taskRunCount,taskID,taskName,i,channel,pitch,velocity,microseconds
1,1,Ticks_Pract_5,0,5,42,127,6878592
1,1,Ticks_Pract_5,1,5,42,127,7379428
1,1,Ticks_Pract_5,2,5,42,127,7879120
1,1,Ticks_Pract_5,3,5,42,127,8378764
1,1,Ticks_Pract_5,4,5,42,127,8878480
1,1,Ticks_Pract_5,5,1,38,32,8889976
1,1,Ticks_Pract_5,6,1,38,40,9366460
1,1,Ticks_Pract_5,7,5,42,127,9379288
1,1,Ticks_Pract_5,8,5,42,127,9878916
1,1,Ticks_Pract_5,9,1,38,42,9892356
1,1,Ticks_Pract_5,10,5,42,127,10378460
1,1,Ticks_Pract_5,11,1,38,35,10406408
1,1,Ticks_Pract_5,12,5,42,127,10879572
1,1,Ticks_Pract_5,13,1,38,34,10883368
1,1,Ticks_Pract_5,14,5,42,127,11379044
1,1,Ticks_Pract_5,15,1,38,36,11392560
1,1,Ticks_Pract_5,16,5,42,127,11878736
1,1,Ticks_Pract_5,17,1,38,35,11891576
1,1,Ticks_Pract_5,18,5,42,127,12378360
1,1,Ticks_Pract_5,19,1,38,36,12393068
1,1,Ticks_Pract_5,20,5,42,127,12879396
1,1,Ticks_Pract_5,21,1,38,38,12901592
1,1,Ticks_Pract_5,22,5,42,127,13378944
1,1,Ticks_Pract_5,23,1,38,38,13391856
1,1,Ticks_Pract_5,24,1,38,38,13878488
1,1,Ticks_Pract_5,25,5,42,127,13880652
1,1,Ticks_Pract_5,26,1,38,39,14375224
1,1,Ticks_Pract_5,27,5,42,127,14379668
1,1,Ticks_Pract_5,28,1,38,35,14879592
1,1,Ticks_Pract_5,29,5,42,127,14881532
1,1,Ticks_Pract_5,30,5,42,127,15378696
1,1,Ticks_Pract_5,31,1,38,32,15401560
1,1,Ticks_Pract_5,32,1,38,36,15876180
1,1,Ticks_Pract_5,33,5,42,127,15878604
1,1,Ticks_Pract_5,34,1,38,36,16369816
1,1,Ticks_Pract_5,35,5,42,127,16379420
1,1,Ticks_Pract_5,36,5,42,127,16878900
1,1,Ticks_Pract_5,37,1,38,40,16900644
1,1,Ticks_Pract_5,38,5,42,127,17378596
1,1,Ticks_Pract_5,39,1,38,39,17388144
1,1,Ticks_Pract_5,40,1,38,33,17867452
1,1,Ticks_Pract_5,41,5,42,127,17879328
1,1,Ticks_Pract_5,42,1,38,35,18350392
1,1,Ticks_Pract_5,43,5,42,127,18379296
1,1,Ticks_Pract_5,44,1,38,36,18856364
1,1,Ticks_Pract_5,45,5,42,127,18878916
1,1,Ticks_Pract_5,46,1,38,30,19333696
1,1,Ticks_Pract_5,47,5,42,127,19378612
1,1,Ticks_Pract_5,48,1,38,36,19818880
1,1,Ticks_Pract_5,49,5,42,127,19879200
1,1,Ticks_Pract_5,50,1,38,40,20348348
1,1,Ticks_Pract_5,51,5,42,127,20379196
1,1,Ticks_Pract_5,52,1,38,38,20840108
1,1,Ticks_Pract_5,53,5,42,127,20878664
1,1,Ticks_Pract_5,54,1,38,36,21354764
1,1,Ticks_Pract_5,55,5,42,127,21378288
1,1,Ticks_Pract_5,56,1,38,34,21837108
1,1,Ticks_Pract_5,57,5,42,127,21879252
1,1,Ticks_Pract_5,58,1,38,32,22350040
1,1,Ticks_Pract_5,59,5,42,127,22378796
1,1,Ticks_Pract_5,60,1,38,33,22858632
1,1,Ticks_Pract_5,61,5,42,127,22878492
1,1,Ticks_Pract_5,62,1,38,37,23358856
1,1,Ticks_Pract_5,63,5,42,127,23379308
1,1,Ticks_Pract_5,64,1,38,35,23853684
1,1,Ticks_Pract_5,65,5,42,127,23879228
1,1,Ticks_Pract_5,66,1,38,38,24368272
1,1,Ticks_Pract_5,67,5,42,127,24378848
1,1,Ticks_Pract_5,68,5,42,127,24878324
1,1,Ticks_Pract_5,69,1,38,38,24885104
1,1,Ticks_Pract_5,70,1,38,37,25371100
1,1,Ticks_Pract_5,71,5,42,127,25379136
1,1,Ticks_Pract_5,72,1,38,40,25861668
1,1,Ticks_Pract_5,73,5,42,127,25879128
1,1,Ticks_Pract_5,74,1,38,37,26373256
1,1,Ticks_Pract_5,75,5,42,127,26378600
1,1,Ticks_Pract_5,76,1,38,38,26874972
1,1,Ticks_Pract_5,0,9999,9999,9999,9999,6876232
1,1,Ticks_Pract_5,1,9999,9999,9999,9999,7376996
1,1,Ticks_Pract_5,2,9999,9999,9999,9999,7876684
1,1,Ticks_Pract_5,3,9999,9999,9999,9999,8376400
1,1,Ticks_Pract_5,4,9999,9999,9999,9999,8876120
1,1,Ticks_Pract_5,5,9999,9999,9999,9999,9376852
1,1,Ticks_Pract_5,6,9999,9999,9999,9999,9876556
1,1,Ticks_Pract_5,7,9999,9999,9999,9999,10376248
1,1,Ticks_Pract_5,8,9999,9999,9999,9999,10876988
1,1,Ticks_Pract_5,9,9999,9999,9999,9999,11376756
1,1,Ticks_Pract_5,10,9999,9999,9999,9999,11876452
1,1,Ticks_Pract_5,11,9999,9999,9999,9999,12376148
1,1,Ticks_Pract_5,12,9999,9999,9999,9999,12876884
1,1,Ticks_Pract_5,13,9999,9999,9999,9999,13376580
1,1,Ticks_Pract_5,14,9999,9999,9999,9999,13876276
1,1,Ticks_Pract_5,15,9999,9999,9999,9999,14377012
1,1,Ticks_Pract_5,16,9999,9999,9999,9999,14876788
1,1,Ticks_Pract_5,17,9999,9999,9999,9999,15376484
1,1,Ticks_Pract_5,18,9999,9999,9999,9999,15876244
1,1,Ticks_Pract_5,19,9999,9999,9999,9999,16376912
1,1,Ticks_Pract_5,20,9999,9999,9999,9999,16876612
1,1,Ticks_Pract_5,21,9999,9999,9999,9999,17376308
1,1,Ticks_Pract_5,22,9999,9999,9999,9999,17877044
1,1,Ticks_Pract_5,23,9999,9999,9999,9999,18376788
1,1,Ticks_Pract_5,24,9999,9999,9999,9999,18876480
1,1,Ticks_Pract_5,25,9999,9999,9999,9999,19376252
1,1,Ticks_Pract_5,26,9999,9999,9999,9999,19876916
1,1,Ticks_Pract_5,27,9999,9999,9999,9999,20376688
1,1,Ticks_Pract_5,28,9999,9999,9999,9999,20876380
1,1,Ticks_Pract_5,29,9999,9999,9999,9999,21376076
1,1,Ticks_Pract_5,30,9999,9999,9999,9999,21876816
1,1,Ticks_Pract_5,31,9999,9999,9999,9999,22376512
1,1,Ticks_Pract_5,32,9999,9999,9999,9999,22876280
1,1,Ticks_Pract_5,33,9999,9999,9999,9999,23376948
1,1,Ticks_Pract_5,34,9999,9999,9999,9999,23876716
1,1,Ticks_Pract_5,35,9999,9999,9999,9999,24376412
1,1,Ticks_Pract_5,36,9999,9999,9999,9999,24876112
1,1,Ticks_Pract_5,37,9999,9999,9999,9999,25376852
1,1,Ticks_Pract_5,38,9999,9999,9999,9999,25876548
1,1,Ticks_Pract_5,39,9999,9999,9999,9999,26376316
2,0,Ticks_Pract_8,0,5,42,127,78574912
2,0,Ticks_Pract_8,1,5,42,127,79374744
2,0,Ticks_Pract_8,2,5,42,127,80174572
2,0,Ticks_Pract_8,3,1,48,38,80219952
2,0,Ticks_Pract_8,4,5,42,127,80975352
2,0,Ticks_Pract_8,5,1,48,44,80979076
2,0,Ticks_Pract_8,6,1,48,44,81742888
2,0,Ticks_Pract_8,7,5,42,127,81774928
2,0,Ticks_Pract_8,8,1,48,41,82520628
2,0,Ticks_Pract_8,9,5,42,127,82574588
2,0,Ticks_Pract_8,10,1,48,37,83341752
2,0,Ticks_Pract_8,11,5,42,127,83374544
2,0,Ticks_Pract_8,12,1,48,40,84155096
2,0,Ticks_Pract_8,13,5,42,127,84175128
2,0,Ticks_Pract_8,14,1,48,44,84944832
2,0,Ticks_Pract_8,15,5,42,127,84975012
2,0,Ticks_Pract_8,16,1,48,41,85737912
2,0,Ticks_Pract_8,17,5,42,127,85774668
2,0,Ticks_Pract_8,18,1,48,44,86545272
2,0,Ticks_Pract_8,19,5,42,127,86574480
2,0,Ticks_Pract_8,20,1,48,44,87344336
2,0,Ticks_Pract_8,21,5,42,127,87375484
2,0,Ticks_Pract_8,22,1,48,37,88139960
2,0,Ticks_Pract_8,23,5,42,127,88174924
2,0,Ticks_Pract_8,24,1,48,37,88919944
2,0,Ticks_Pract_8,25,5,42,127,88974656
2,0,Ticks_Pract_8,26,1,48,29,89716764
2,0,Ticks_Pract_8,27,5,42,127,89774388
2,0,Ticks_Pract_8,28,1,48,36,90478348
2,0,Ticks_Pract_8,29,5,42,127,90575268
2,0,Ticks_Pract_8,30,1,48,35,91301788
2,0,Ticks_Pract_8,31,5,42,127,91375004
2,0,Ticks_Pract_8,32,1,48,26,92142692
2,0,Ticks_Pract_8,33,5,42,127,92174808
2,0,Ticks_Pract_8,34,1,48,30,92942652
2,0,Ticks_Pract_8,35,5,42,127,92974544
2,0,Ticks_Pract_8,36,1,48,33,93765492
2,0,Ticks_Pract_8,37,5,42,127,93775176
2,0,Ticks_Pract_8,38,1,48,35,94566200
2,0,Ticks_Pract_8,39,5,42,127,94574912
2,0,Ticks_Pract_8,40,1,48,27,95368176
2,0,Ticks_Pract_8,41,5,42,127,95374572
2,0,Ticks_Pract_8,42,1,48,28,96146972
2,0,Ticks_Pract_8,43,5,42,127,96174380
2,0,Ticks_Pract_8,44,1,48,23,96970140
2,0,Ticks_Pract_8,45,5,42,127,96975408
2,0,Ticks_Pract_8,46,5,42,127,97774996
2,0,Ticks_Pract_8,47,1,48,21,97795544
2,0,Ticks_Pract_8,48,1,48,30,98518596
2,0,Ticks_Pract_8,49,5,42,127,98574724
2,0,Ticks_Pract_8,50,1,48,42,99307256
2,0,Ticks_Pract_8,51,5,42,127,99374384
2,0,Ticks_Pract_8,52,1,48,36,100104224
2,0,Ticks_Pract_8,53,5,42,127,100175164
2,0,Ticks_Pract_8,54,1,48,35,100924748
2,0,Ticks_Pract_8,55,5,42,127,100974896
2,0,Ticks_Pract_8,56,1,48,38,101737124
2,0,Ticks_Pract_8,57,5,42,127,101774632
2,0,Ticks_Pract_8,58,1,48,35,102537384
2,0,Ticks_Pract_8,0,9999,9999,9999,9999,78572624
2,0,Ticks_Pract_8,1,9999,9999,9999,9999,79372380
2,0,Ticks_Pract_8,2,9999,9999,9999,9999,80172136
2,0,Ticks_Pract_8,3,9999,9999,9999,9999,80972916
2,0,Ticks_Pract_8,4,9999,9999,9999,9999,81772644
2,0,Ticks_Pract_8,5,9999,9999,9999,9999,82572376
2,0,Ticks_Pract_8,6,9999,9999,9999,9999,83372108
2,0,Ticks_Pract_8,7,9999,9999,9999,9999,84172912
2,0,Ticks_Pract_8,8,9999,9999,9999,9999,84972648
2,0,Ticks_Pract_8,9,9999,9999,9999,9999,85772380
2,0,Ticks_Pract_8,10,9999,9999,9999,9999,86572116
2,0,Ticks_Pract_8,11,9999,9999,9999,9999,87372896
2,0,Ticks_Pract_8,12,9999,9999,9999,9999,88172636
2,0,Ticks_Pract_8,13,9999,9999,9999,9999,88972368
2,0,Ticks_Pract_8,14,9999,9999,9999,9999,89772100
2,0,Ticks_Pract_8,15,9999,9999,9999,9999,90572904
2,0,Ticks_Pract_8,16,9999,9999,9999,9999,91372640
2,0,Ticks_Pract_8,17,9999,9999,9999,9999,92172372
2,0,Ticks_Pract_8,18,9999,9999,9999,9999,92972108
2,0,Ticks_Pract_8,19,9999,9999,9999,9999,93772888
2,0,Ticks_Pract_8,20,9999,9999,9999,9999,94572624
2,0,Ticks_Pract_8,21,9999,9999,9999,9999,95372356
2,0,Ticks_Pract_8,22,9999,9999,9999,9999,96172092
2,0,Ticks_Pract_8,23,9999,9999,9999,9999,96972896
2,0,Ticks_Pract_8,24,9999,9999,9999,9999,97772636
2,0,Ticks_Pract_8,25,9999,9999,9999,9999,98572360
2,0,Ticks_Pract_8,26,9999,9999,9999,9999,99372096
2,0,Ticks_Pract_8,27,9999,9999,9999,9999,100172876
2,0,Ticks_Pract_8,28,9999,9999,9999,9999,100972608
2,0,Ticks_Pract_8,29,9999,9999,9999,9999,101772344
3,4,T1_SMS_5,0,5,42,127,200467752
3,4,T1_SMS_5,1,5,42,127,200967616
3,4,T1_SMS_5,2,5,42,127,201468232
3,4,T1_SMS_5,3,5,42,127,201967876
3,4,T1_SMS_5,4,1,48,46,202420404
3,4,T1_SMS_5,5,5,42,127,202467584
3,4,T1_SMS_5,6,1,48,46,202879480
3,4,T1_SMS_5,7,5,42,127,202968548
3,4,T1_SMS_5,8,1,48,41,203460732
3,4,T1_SMS_5,9,5,42,127,203468092
3,4,T1_SMS_5,10,1,48,46,203928232
3,4,T1_SMS_5,11,5,42,127,203967836
3,4,T1_SMS_5,12,5,42,127,204467540
3,4,T1_SMS_5,13,1,48,43,204473268
3,4,T1_SMS_5,14,5,42,127,204968504
3,4,T1_SMS_5,15,1,48,39,204982692
3,4,T1_SMS_5,16,5,42,127,205467972
3,4,T1_SMS_5,17,1,48,35,205475648
3,4,T1_SMS_5,18,5,42,127,205967744
3,4,T1_SMS_5,19,1,48,31,205976848
3,4,T1_SMS_5,20,1,48,22,206465080
3,4,T1_SMS_5,21,5,42,127,206467580
3,4,T1_SMS_5,22,1,48,46,206913384
3,4,T1_SMS_5,23,5,42,127,206968028
3,4,T1_SMS_5,24,5,42,127,207467804
3,4,T1_SMS_5,25,1,48,39,207487824
3,4,T1_SMS_5,26,5,42,127,207967496
3,4,T1_SMS_5,27,1,48,44,207970612
3,4,T1_SMS_5,28,1,48,47,208441496
3,4,T1_SMS_5,29,5,42,127,208468528
3,4,T1_SMS_5,30,1,48,45,208959212
3,4,T1_SMS_5,31,5,42,127,208968148
3,4,T1_SMS_5,32,1,48,45,209456292
3,4,T1_SMS_5,33,5,42,127,209467620
3,4,T1_SMS_5,34,1,48,46,209946108
3,4,T1_SMS_5,35,5,42,127,209967540
3,4,T1_SMS_5,36,1,48,46,210442960
3,4,T1_SMS_5,37,5,42,127,210468428
3,4,T1_SMS_5,38,1,48,46,210964500
3,4,T1_SMS_5,39,5,42,127,210967828
3,4,T1_SMS_5,40,5,42,127,211467604
3,4,T1_SMS_5,41,1,48,42,211469320
3,4,T1_SMS_5,42,5,42,127,211968492
3,4,T1_SMS_5,43,1,48,47,211975424
3,4,T1_SMS_5,44,1,48,42,212460668
3,4,T1_SMS_5,45,5,42,127,212468032
3,4,T1_SMS_5,46,1,48,44,212958940
3,4,T1_SMS_5,47,5,42,127,212967728
3,4,T1_SMS_5,48,1,48,43,213459608
3,4,T1_SMS_5,49,5,42,127,213467572
3,4,T1_SMS_5,50,1,48,40,213952468
3,4,T1_SMS_5,51,5,42,127,213968512
3,4,T1_SMS_5,52,5,42,127,214467840
3,4,T1_SMS_5,53,1,48,43,214487492
3,4,T1_SMS_5,54,5,42,127,214967588
3,4,T1_SMS_5,55,1,48,45,214988756
3,4,T1_SMS_5,56,5,42,127,215468480
3,4,T1_SMS_5,57,1,48,41,215500644
3,4,T1_SMS_5,58,5,42,127,215968696
3,4,T1_SMS_5,59,1,48,38,215991936
3,4,T1_SMS_5,60,5,42,127,216467720
3,4,T1_SMS_5,61,1,48,41,216472184
3,4,T1_SMS_5,62,1,48,46,216962588
3,4,T1_SMS_5,63,5,42,127,216967484
3,4,T1_SMS_5,64,1,48,43,217462356
3,4,T1_SMS_5,65,5,42,127,217468528
3,4,T1_SMS_5,66,5,42,127,217968156
3,4,T1_SMS_5,67,1,48,44,217972772
3,4,T1_SMS_5,68,1,48,41,218465260
3,4,T1_SMS_5,69,5,42,127,218467692
3,4,T1_SMS_5,70,5,42,127,218968444
3,4,T1_SMS_5,71,1,48,46,218997588
3,4,T1_SMS_5,72,5,42,127,219468436
3,4,T1_SMS_5,73,1,48,46,219482328
3,4,T1_SMS_5,74,5,42,127,219967832
3,4,T1_SMS_5,75,1,48,41,219978884
3,4,T1_SMS_5,76,1,48,41,220455740
3,4,T1_SMS_5,77,5,42,127,220467448
3,4,T1_SMS_5,78,5,42,127,220968344
3,4,T1_SMS_5,79,1,48,41,220970712
3,4,T1_SMS_5,80,5,42,127,221468260
3,4,T1_SMS_5,81,1,48,41,221475568
3,4,T1_SMS_5,82,5,42,127,221967660
3,4,T1_SMS_5,83,1,48,44,221982444
3,4,T1_SMS_5,84,1,48,47,222442704
3,4,T1_SMS_5,85,5,42,127,222467424
3,4,T1_SMS_5,86,1,48,40,222949584
3,4,T1_SMS_5,87,5,42,127,222968388
3,4,T1_SMS_5,88,5,42,127,223468168
3,4,T1_SMS_5,89,1,48,39,223493048
3,4,T1_SMS_5,90,5,42,127,223967564
3,4,T1_SMS_5,91,1,48,42,224000228
3,4,T1_SMS_5,92,5,42,127,224468452
3,4,T1_SMS_5,93,1,48,40,224486536
3,4,T1_SMS_5,94,5,42,127,224968220
3,4,T1_SMS_5,95,1,48,44,224969188
3,4,T1_SMS_5,96,5,42,127,225468040
3,4,T1_SMS_5,97,1,48,43,225479488
3,4,T1_SMS_5,98,1,48,43,225955128
3,4,T1_SMS_5,99,5,42,127,225967508
3,4,T1_SMS_5,100,5,42,127,226468404
3,4,T1_SMS_5,101,1,48,49,226469292
3,4,T1_SMS_5,102,1,48,47,226964840
3,4,T1_SMS_5,103,5,42,127,226968016
3,4,T1_SMS_5,104,5,42,127,227467720
3,4,T1_SMS_5,105,1,48,38,227513244
3,4,T1_SMS_5,106,1,48,40,227957572
3,4,T1_SMS_5,107,5,42,127,227968380
3,4,T1_SMS_5,108,1,48,43,228459592
3,4,T1_SMS_5,109,5,42,127,228468004
3,4,T1_SMS_5,110,1,48,41,228967100
3,4,T1_SMS_5,111,5,42,127,228968672
3,4,T1_SMS_5,112,1,48,42,229455536
3,4,T1_SMS_5,113,5,42,127,229467468
3,4,T1_SMS_5,114,5,42,127,229968368
3,4,T1_SMS_5,115,1,48,37,229977324
3,4,T1_SMS_5,116,5,42,127,230467912
3,4,T1_SMS_5,117,1,48,49,230486064
3,4,T1_SMS_5,118,1,48,44,230952900
3,4,T1_SMS_5,119,5,42,127,230967524
3,4,T1_SMS_5,120,1,48,46,231465164
3,4,T1_SMS_5,121,5,42,127,231468492
3,4,T1_SMS_5,122,1,48,44,231960824
3,4,T1_SMS_5,123,5,42,127,231968112
3,4,T1_SMS_5,124,1,48,45,232452736
3,4,T1_SMS_5,125,5,42,127,232467808
3,4,T1_SMS_5,126,5,42,127,232967508
3,4,T1_SMS_5,127,1,48,45,232978708
3,4,T1_SMS_5,128,5,42,127,233468252
3,4,T1_SMS_5,129,1,48,46,233480944
3,4,T1_SMS_5,130,5,42,127,233967948
3,4,T1_SMS_5,131,1,48,43,234014520
3,4,T1_SMS_5,132,5,42,127,234467716
3,4,T1_SMS_5,133,1,48,48,234501352
3,4,T1_SMS_5,134,5,42,127,234968532
3,4,T1_SMS_5,135,1,48,43,234984812
3,4,T1_SMS_5,136,1,48,39,235468004
3,4,T1_SMS_5,137,5,42,127,235469344
3,4,T1_SMS_5,138,1,48,38,235960456
3,4,T1_SMS_5,139,5,42,127,235967916
3,4,T1_SMS_5,140,1,48,41,236438084
3,4,T1_SMS_5,141,5,42,127,236467660
3,4,T1_SMS_5,142,1,48,41,236940992
3,4,T1_SMS_5,143,5,42,127,236968328
3,4,T1_SMS_5,144,1,48,42,237464920
3,4,T1_SMS_5,145,5,42,127,237468024
3,4,T1_SMS_5,146,1,48,40,237956012
3,4,T1_SMS_5,147,5,42,127,237967792
3,4,T1_SMS_5,148,1,48,41,238464904
3,4,T1_SMS_5,149,5,42,127,238467412
3,4,T1_SMS_5,150,5,42,127,238968164
3,4,T1_SMS_5,151,1,48,35,239000300
3,4,T1_SMS_5,152,5,42,127,239467784
3,4,T1_SMS_5,153,1,48,39,239496780
3,4,T1_SMS_5,154,5,42,127,239967700
3,4,T1_SMS_5,155,1,48,36,239990564
3,4,T1_SMS_5,156,5,42,127,240468440
3,4,T1_SMS_5,157,1,48,32,240482104
3,4,T1_SMS_5,158,1,48,43,240963080
3,4,T1_SMS_5,159,5,42,127,240967904
3,4,T1_SMS_5,160,5,42,127,241467832
3,4,T1_SMS_5,161,1,48,46,241472068
3,4,T1_SMS_5,162,1,48,41,241958880
3,4,T1_SMS_5,163,5,42,127,241967596
3,4,T1_SMS_5,164,5,42,127,242468196
3,4,T1_SMS_5,165,1,48,45,242469084
3,4,T1_SMS_5,166,5,42,127,242967888
3,4,T1_SMS_5,167,1,48,46,242984768
3,4,T1_SMS_5,168,5,42,127,243467584
3,4,T1_SMS_5,169,1,48,45,243471000
3,4,T1_SMS_5,170,1,48,46,243959988
3,4,T1_SMS_5,171,5,42,127,243968248
3,4,T1_SMS_5,172,1,48,44,244447788
3,4,T1_SMS_5,173,5,42,127,244468020
3,4,T1_SMS_5,174,5,42,127,244967720
3,4,T1_SMS_5,175,1,48,43,244982880
3,4,T1_SMS_5,176,5,42,127,245467640
3,4,T1_SMS_5,177,1,48,40,245497832
3,4,T1_SMS_5,178,5,42,127,245968232
3,4,T1_SMS_5,179,1,48,48,245981968
3,4,T1_SMS_5,180,1,48,27,246036552
3,4,T1_SMS_5,181,5,42,127,246468056
3,4,T1_SMS_5,182,1,48,46,246469544
3,4,T1_SMS_5,183,5,42,127,246967728
3,4,T1_SMS_5,184,1,48,51,246973988
3,4,T1_SMS_5,185,5,42,127,247468544
3,4,T1_SMS_5,186,1,48,48,247473312
3,4,T1_SMS_5,187,5,42,127,247968088
3,4,T1_SMS_5,188,1,48,44,247973524
3,4,T1_SMS_5,189,5,42,127,248467860
3,4,T1_SMS_5,190,1,48,43,248472172
3,4,T1_SMS_5,191,5,42,127,248967552
3,4,T1_SMS_5,192,1,48,49,248970300
3,4,T1_SMS_5,193,1,48,28,249020912
3,4,T1_SMS_5,194,5,42,127,249468348
3,4,T1_SMS_5,195,1,48,44,249470864
3,4,T1_SMS_5,196,5,42,127,249967968
3,4,T1_SMS_5,197,1,48,48,249988216
3,4,T1_SMS_5,198,5,42,127,250467808
3,4,T1_SMS_5,199,1,48,43,250476384
3,4,T1_SMS_5,200,5,42,127,250968700
3,4,T1_SMS_5,201,1,48,46,250998076
3,4,T1_SMS_5,202,5,42,127,251468176
3,4,T1_SMS_5,203,1,48,45,251470768
3,4,T1_SMS_5,204,1,48,49,251964984
3,4,T1_SMS_5,205,5,42,127,251967864
3,4,T1_SMS_5,206,5,42,127,252467492
3,4,T1_SMS_5,207,1,48,42,252504344
3,4,T1_SMS_5,208,5,42,127,252968232
3,4,T1_SMS_5,209,1,48,46,252990424
3,4,T1_SMS_5,210,5,42,127,253468152
3,4,T1_SMS_5,211,1,48,47,253484880
3,4,T1_SMS_5,212,1,48,46,253960256
3,4,T1_SMS_5,213,5,42,127,253967692
3,4,T1_SMS_5,214,5,42,127,254467544
3,4,T1_SMS_5,215,1,48,45,254501328
3,4,T1_SMS_5,216,5,42,127,254968284
3,4,T1_SMS_5,217,1,48,42,254975664
3,4,T1_SMS_5,218,5,42,127,255467756
3,4,T1_SMS_5,219,1,48,41,255488972
3,4,T1_SMS_5,220,5,42,127,255967528
3,4,T1_SMS_5,221,1,48,42,255979696
3,4,T1_SMS_5,222,1,48,41,256460000
3,4,T1_SMS_5,223,5,42,127,256468408
3,4,T1_SMS_5,224,1,48,43,256955556
3,4,T1_SMS_5,225,5,42,127,256968104
3,4,T1_SMS_5,226,5,42,127,257467856
3,4,T1_SMS_5,227,1,48,42,257500472
3,4,T1_SMS_5,228,5,42,127,257967480
3,4,T1_SMS_5,229,1,48,40,257977480
3,4,T1_SMS_5,230,1,48,43,258454112
3,4,T1_SMS_5,231,5,42,127,258468360
3,4,T1_SMS_5,232,5,42,127,258967916
3,4,T1_SMS_5,233,1,48,43,258991824
3,4,T1_SMS_5,234,5,42,127,259467536
3,4,T1_SMS_5,235,1,48,45,259479252
3,4,T1_SMS_5,236,1,48,43,259946920
3,4,T1_SMS_5,237,5,42,127,259968420
3,4,T1_SMS_5,238,1,48,43,260464408
3,4,T1_SMS_5,239,5,42,127,260468188
3,4,T1_SMS_5,240,1,48,45,260964780
3,4,T1_SMS_5,241,5,42,127,260967880
3,4,T1_SMS_5,242,1,48,44,261442636
3,4,T1_SMS_5,243,5,42,127,261467352
3,4,T1_SMS_5,244,1,48,41,261950856
3,4,T1_SMS_5,245,5,42,127,261968168
3,4,T1_SMS_5,246,1,48,40,262458628
3,4,T1_SMS_5,247,5,42,127,262468160
3,4,T1_SMS_5,248,1,48,43,262935356
3,4,T1_SMS_5,249,5,42,127,262967560
3,4,T1_SMS_5,250,1,48,45,263461912
3,4,T1_SMS_5,251,5,42,127,263468300
3,4,T1_SMS_5,252,1,48,40,263955388
3,4,T1_SMS_5,253,5,42,127,263968220
3,4,T1_SMS_5,254,1,48,44,264454268
3,4,T1_SMS_5,255,5,42,127,264467764
3,4,T1_SMS_5,256,1,48,42,264954628
3,4,T1_SMS_5,257,5,42,127,264967532
3,4,T1_SMS_5,258,1,48,43,265442060
3,4,T1_SMS_5,0,9999,9999,9999,9999,200465460
3,4,T1_SMS_5,1,9999,9999,9999,9999,200965176
3,4,T1_SMS_5,2,9999,9999,9999,9999,201465940
3,4,T1_SMS_5,3,9999,9999,9999,9999,201965656
3,4,T1_SMS_5,4,9999,9999,9999,9999,202465368
3,4,T1_SMS_5,5,9999,9999,9999,9999,202966112
3,4,T1_SMS_5,6,9999,9999,9999,9999,203465804
3,4,T1_SMS_5,7,9999,9999,9999,9999,203965548
3,4,T1_SMS_5,8,9999,9999,9999,9999,204465248
3,4,T1_SMS_5,9,9999,9999,9999,9999,204965988
3,4,T1_SMS_5,10,9999,9999,9999,9999,205465684
3,4,T1_SMS_5,11,9999,9999,9999,9999,205965380
3,4,T1_SMS_5,12,9999,9999,9999,9999,206465140
3,4,T1_SMS_5,13,9999,9999,9999,9999,206965812
3,4,T1_SMS_5,14,9999,9999,9999,9999,207465588
3,4,T1_SMS_5,15,9999,9999,9999,9999,207965280
3,4,T1_SMS_5,16,9999,9999,9999,9999,208466016
3,4,T1_SMS_5,17,9999,9999,9999,9999,208965708
3,4,T1_SMS_5,18,9999,9999,9999,9999,209465404
3,4,T1_SMS_5,19,9999,9999,9999,9999,209965176
3,4,T1_SMS_5,20,9999,9999,9999,9999,210465840
3,4,T1_SMS_5,21,9999,9999,9999,9999,210965612
3,4,T1_SMS_5,22,9999,9999,9999,9999,211465312
3,4,T1_SMS_5,23,9999,9999,9999,9999,211966052
3,4,T1_SMS_5,24,9999,9999,9999,9999,212465744
3,4,T1_SMS_5,25,9999,9999,9999,9999,212965436
3,4,T1_SMS_5,26,9999,9999,9999,9999,213465208
3,4,T1_SMS_5,27,9999,9999,9999,9999,213965924
3,4,T1_SMS_5,28,9999,9999,9999,9999,214465624
3,4,T1_SMS_5,29,9999,9999,9999,9999,214965300
3,4,T1_SMS_5,30,9999,9999,9999,9999,215466040
3,4,T1_SMS_5,31,9999,9999,9999,9999,215965808
3,4,T1_SMS_5,32,9999,9999,9999,9999,216465504
3,4,T1_SMS_5,33,9999,9999,9999,9999,216965196
3,4,T1_SMS_5,34,9999,9999,9999,9999,217465936
3,4,T1_SMS_5,35,9999,9999,9999,9999,217965640
3,4,T1_SMS_5,36,9999,9999,9999,9999,218465328
3,4,T1_SMS_5,37,9999,9999,9999,9999,218966084
3,4,T1_SMS_5,38,9999,9999,9999,9999,219465848
3,4,T1_SMS_5,39,9999,9999,9999,9999,219965540
3,4,T1_SMS_5,40,9999,9999,9999,9999,220465232
3,4,T1_SMS_5,41,9999,9999,9999,9999,220965980
3,4,T1_SMS_5,42,9999,9999,9999,9999,221465676
3,4,T1_SMS_5,43,9999,9999,9999,9999,221965368
3,4,T1_SMS_5,44,9999,9999,9999,9999,222465132
3,4,T1_SMS_5,45,9999,9999,9999,9999,222965876
3,4,T1_SMS_5,46,9999,9999,9999,9999,223465576
3,4,T1_SMS_5,47,9999,9999,9999,9999,223965272
3,4,T1_SMS_5,48,9999,9999,9999,9999,224466012
3,4,T1_SMS_5,49,9999,9999,9999,9999,224965708
3,4,T1_SMS_5,50,9999,9999,9999,9999,225465452
3,4,T1_SMS_5,51,9999,9999,9999,9999,225965144
3,4,T1_SMS_5,52,9999,9999,9999,9999,226465888
3,4,T1_SMS_5,53,9999,9999,9999,9999,226965580
3,4,T1_SMS_5,54,9999,9999,9999,9999,227465280
3,4,T1_SMS_5,55,9999,9999,9999,9999,227966016
3,4,T1_SMS_5,56,9999,9999,9999,9999,228465712
3,4,T1_SMS_5,57,9999,9999,9999,9999,228965488
3,4,T1_SMS_5,58,9999,9999,9999,9999,229465180
3,4,T1_SMS_5,59,9999,9999,9999,9999,229965928
3,4,T1_SMS_5,60,9999,9999,9999,9999,230465620
3,4,T1_SMS_5,61,9999,9999,9999,9999,230965312
3,4,T1_SMS_5,62,9999,9999,9999,9999,231466052
3,4,T1_SMS_5,63,9999,9999,9999,9999,231965748
3,4,T1_SMS_5,64,9999,9999,9999,9999,232465520
3,4,T1_SMS_5,65,9999,9999,9999,9999,232965220
3,4,T1_SMS_5,66,9999,9999,9999,9999,233465960
3,4,T1_SMS_5,67,9999,9999,9999,9999,233965656
3,4,T1_SMS_5,68,9999,9999,9999,9999,234465352
3,4,T1_SMS_5,69,9999,9999,9999,9999,234966096
3,4,T1_SMS_5,70,9999,9999,9999,9999,235465788
3,4,T1_SMS_5,71,9999,9999,9999,9999,235965528
3,4,T1_SMS_5,72,9999,9999,9999,9999,236465224
3,4,T1_SMS_5,73,9999,9999,9999,9999,236965964
3,4,T1_SMS_5,74,9999,9999,9999,9999,237465660
3,4,T1_SMS_5,75,9999,9999,9999,9999,237965428
3,4,T1_SMS_5,76,9999,9999,9999,9999,238465124
3,4,T1_SMS_5,77,9999,9999,9999,9999,238965872
3,4,T1_SMS_5,78,9999,9999,9999,9999,239465568
3,4,T1_SMS_5,79,9999,9999,9999,9999,239965260
3,4,T1_SMS_5,80,9999,9999,9999,9999,240466000
3,4,T1_SMS_5,81,9999,9999,9999,9999,240965688
3,4,T1_SMS_5,82,9999,9999,9999,9999,241465464
3,4,T1_SMS_5,83,9999,9999,9999,9999,241965156
3,4,T1_SMS_5,84,9999,9999,9999,9999,242465904
3,4,T1_SMS_5,85,9999,9999,9999,9999,242965600
3,4,T1_SMS_5,86,9999,9999,9999,9999,243465296
3,4,T1_SMS_5,87,9999,9999,9999,9999,243966032
3,4,T1_SMS_5,88,9999,9999,9999,9999,244465728
3,4,T1_SMS_5,89,9999,9999,9999,9999,244965428
3,4,T1_SMS_5,90,9999,9999,9999,9999,245465200
3,4,T1_SMS_5,91,9999,9999,9999,9999,245965940
3,4,T1_SMS_5,92,9999,9999,9999,9999,246465616
3,4,T1_SMS_5,93,9999,9999,9999,9999,246965364
3,4,T1_SMS_5,94,9999,9999,9999,9999,247466032
3,4,T1_SMS_5,95,9999,9999,9999,9999,247965800
3,4,T1_SMS_5,96,9999,9999,9999,9999,248465496
3,4,T1_SMS_5,97,9999,9999,9999,9999,248965188
3,4,T1_SMS_5,98,9999,9999,9999,9999,249465908
3,4,T1_SMS_5,99,9999,9999,9999,9999,249965676
3,4,T1_SMS_5,100,9999,9999,9999,9999,250465372
3,4,T1_SMS_5,101,9999,9999,9999,9999,250966116
3,4,T1_SMS_5,102,9999,9999,9999,9999,251465808
3,4,T1_SMS_5,103,9999,9999,9999,9999,251965496
3,4,T1_SMS_5,104,9999,9999,9999,9999,252465200
3,4,T1_SMS_5,105,9999,9999,9999,9999,252965944
3,4,T1_SMS_5,106,9999,9999,9999,9999,253465712
3,4,T1_SMS_5,107,9999,9999,9999,9999,253965404
3,4,T1_SMS_5,108,9999,9999,9999,9999,254465104
3,4,T1_SMS_5,109,9999,9999,9999,9999,254965844
3,4,T1_SMS_5,110,9999,9999,9999,9999,255465540
3,4,T1_SMS_5,111,9999,9999,9999,9999,255965236
3,4,T1_SMS_5,112,9999,9999,9999,9999,256465972
3,4,T1_SMS_5,113,9999,9999,9999,9999,256965740
3,4,T1_SMS_5,114,9999,9999,9999,9999,257465416
3,4,T1_SMS_5,115,9999,9999,9999,9999,257965112
3,4,T1_SMS_5,116,9999,9999,9999,9999,258465848
3,4,T1_SMS_5,117,9999,9999,9999,9999,258965624
3,4,T1_SMS_5,118,9999,9999,9999,9999,259465320
3,4,T1_SMS_5,119,9999,9999,9999,9999,259966052
3,4,T1_SMS_5,120,9999,9999,9999,9999,260465748
3,4,T1_SMS_5,121,9999,9999,9999,9999,260965444
3,4,T1_SMS_5,122,9999,9999,9999,9999,261465136
3,4,T1_SMS_5,123,9999,9999,9999,9999,261965880
3,4,T1_SMS_5,124,9999,9999,9999,9999,262465648
3,4,T1_SMS_5,125,9999,9999,9999,9999,262965344
3,4,T1_SMS_5,126,9999,9999,9999,9999,263466084
3,4,T1_SMS_5,127,9999,9999,9999,9999,263965780
3,4,T1_SMS_5,128,9999,9999,9999,9999,264465476
3,4,T1_SMS_5,129,9999,9999,9999,9999,264965168
4,2,T1_SMS_8,0,1,38,16,312796936
4,2,T1_SMS_8,1,5,42,127,313599224
4,2,T1_SMS_8,2,5,42,127,314398980
4,2,T1_SMS_8,3,1,48,52,315184852
4,2,T1_SMS_8,4,5,42,127,315199024
4,2,T1_SMS_8,5,1,48,43,315960952
4,2,T1_SMS_8,6,5,42,127,315998980
4,2,T1_SMS_8,7,1,48,42,316753428
4,2,T1_SMS_8,8,5,42,127,316799240
4,2,T1_SMS_8,9,1,48,36,317532816
4,2,T1_SMS_8,10,5,42,127,317599048
4,2,T1_SMS_8,11,1,48,42,318336148
4,2,T1_SMS_8,12,5,42,127,318398808
4,2,T1_SMS_8,13,1,48,36,319117924
4,2,T1_SMS_8,14,5,42,127,319198764
4,2,T1_SMS_8,15,1,48,34,319916004
4,2,T1_SMS_8,16,5,42,127,319999324
4,2,T1_SMS_8,17,1,48,38,320726768
4,2,T1_SMS_8,18,5,42,127,320799204
4,2,T1_SMS_8,19,1,48,35,321550512
4,2,T1_SMS_8,20,5,42,127,321598716
4,2,T1_SMS_8,21,1,48,35,322335652
4,2,T1_SMS_8,22,5,42,127,322398744
4,2,T1_SMS_8,23,1,48,37,323169724
4,2,T1_SMS_8,24,5,42,127,323199228
4,2,T1_SMS_8,25,5,42,127,323999040
4,2,T1_SMS_8,26,1,48,35,324011732
4,2,T1_SMS_8,27,5,42,127,324798872
4,2,T1_SMS_8,28,1,48,36,324821068
4,2,T1_SMS_8,29,5,42,127,325598608
4,2,T1_SMS_8,30,1,48,33,325610324
4,2,T1_SMS_8,31,5,42,127,326399536
4,2,T1_SMS_8,32,1,48,34,326414020
4,2,T1_SMS_8,33,5,42,127,327199044
4,2,T1_SMS_8,34,1,48,32,327223332
4,2,T1_SMS_8,35,1,48,34,327981832
4,2,T1_SMS_8,36,5,42,127,327998848
4,2,T1_SMS_8,37,1,48,35,328735268
4,2,T1_SMS_8,38,5,42,127,328798432
4,2,T1_SMS_8,39,1,48,31,329553104
4,2,T1_SMS_8,40,5,42,127,329599436
4,2,T1_SMS_8,41,1,48,34,330358744
4,2,T1_SMS_8,42,5,42,127,330399020
4,2,T1_SMS_8,43,1,48,34,331170744
4,2,T1_SMS_8,44,5,42,127,331198780
4,2,T1_SMS_8,45,5,42,127,331998668
4,2,T1_SMS_8,46,1,48,33,332014352
4,2,T1_SMS_8,47,5,42,127,332799524
4,2,T1_SMS_8,48,1,48,30,332806004
4,2,T1_SMS_8,49,5,42,127,333598960
4,2,T1_SMS_8,50,1,48,35,333607832
4,2,T1_SMS_8,51,1,48,34,334389676
4,2,T1_SMS_8,52,5,42,127,334398684
4,2,T1_SMS_8,53,1,48,35,335183496
4,2,T1_SMS_8,54,5,42,127,335198568
4,2,T1_SMS_8,55,1,48,33,335979416
4,2,T1_SMS_8,56,5,42,127,335999568
4,2,T1_SMS_8,57,5,42,127,336799012
4,2,T1_SMS_8,58,1,48,35,336813576
4,2,T1_SMS_8,59,5,42,127,337598848
4,2,T1_SMS_8,60,1,48,31,337646996
4,2,T1_SMS_8,61,1,48,32,338395176
4,2,T1_SMS_8,62,5,42,127,338398500
4,2,T1_SMS_8,63,1,48,30,339132296
4,2,T1_SMS_8,64,5,42,127,339199504
4,2,T1_SMS_8,65,1,48,35,339978708
4,2,T1_SMS_8,66,5,42,127,339999236
4,2,T1_SMS_8,67,5,42,127,340798752
4,2,T1_SMS_8,68,1,48,32,340808156
4,2,T1_SMS_8,69,1,48,40,341594480
4,2,T1_SMS_8,70,5,42,127,341598628
4,2,T1_SMS_8,71,1,48,43,342356736
4,2,T1_SMS_8,72,5,42,127,342399484
4,2,T1_SMS_8,73,5,42,127,343199372
4,2,T1_SMS_8,74,1,48,39,343214908
4,2,T1_SMS_8,75,1,48,40,343992260
4,2,T1_SMS_8,76,5,42,127,343998680
4,2,T1_SMS_8,77,1,48,41,344774364
4,2,T1_SMS_8,78,5,42,127,344798560
4,2,T1_SMS_8,79,1,48,37,345592200
4,2,T1_SMS_8,80,5,42,127,345599268
4,2,T1_SMS_8,81,1,48,36,346396048
4,2,T1_SMS_8,82,5,42,127,346399296
4,2,T1_SMS_8,83,5,42,127,347199112
4,2,T1_SMS_8,84,1,48,30,347200080
4,2,T1_SMS_8,85,5,42,127,347998552
4,2,T1_SMS_8,86,1,48,32,348011616
4,2,T1_SMS_8,87,5,42,127,348799328
4,2,T1_SMS_8,88,1,48,33,348812168
4,2,T1_SMS_8,89,5,42,127,349599140
4,2,T1_SMS_8,90,1,48,38,349608688
4,2,T1_SMS_8,91,5,42,127,350399044
4,2,T1_SMS_8,92,1,48,34,350402532
4,2,T1_SMS_8,93,5,42,127,351198556
4,2,T1_SMS_8,94,1,48,35,351230616
4,2,T1_SMS_8,95,5,42,127,351999408
4,2,T1_SMS_8,96,1,48,29,352021828
4,2,T1_SMS_8,97,5,42,127,352799068
4,2,T1_SMS_8,98,1,48,38,352812284
4,2,T1_SMS_8,99,5,42,127,353599028
4,2,T1_SMS_8,100,1,48,40,353611196
4,2,T1_SMS_8,101,5,42,127,354398536
4,2,T1_SMS_8,102,1,48,40,354412724
4,2,T1_SMS_8,103,5,42,127,355199244
4,2,T1_SMS_8,104,1,48,37,355206020
4,2,T1_SMS_8,105,5,42,127,355999052
4,2,T1_SMS_8,106,1,48,38,356014136
4,2,T1_SMS_8,107,1,48,35,356756636
4,2,T1_SMS_8,108,5,42,127,356798948
4,2,T1_SMS_8,109,5,42,127,357598688
4,2,T1_SMS_8,110,1,48,42,357614972
4,2,T1_SMS_8,111,5,42,127,358399244
4,2,T1_SMS_8,112,1,48,36,358403932
4,2,T1_SMS_8,113,5,42,127,359199128
4,2,T1_SMS_8,114,1,48,41,359209800
4,2,T1_SMS_8,115,5,42,127,359998788
4,2,T1_SMS_8,116,1,48,33,360019704
4,2,T1_SMS_8,117,5,42,127,360798520
4,2,T1_SMS_8,118,1,48,31,360819140
4,2,T1_SMS_8,119,1,48,36,361567400
4,2,T1_SMS_8,120,5,42,127,361599516
4,2,T1_SMS_8,121,5,42,127,362399036
4,2,T1_SMS_8,122,1,48,29,362415244
4,2,T1_SMS_8,123,1,48,34,363186612
4,2,T1_SMS_8,124,5,42,127,363198936
4,2,T1_SMS_8,125,5,42,127,363998676
4,2,T1_SMS_8,126,1,48,30,364023484
4,2,T1_SMS_8,127,1,48,29,364769648
4,2,T1_SMS_8,128,5,42,127,364799228
4,2,T1_SMS_8,129,1,48,33,365571476
4,2,T1_SMS_8,130,5,42,127,365599112
4,2,T1_SMS_8,131,1,48,35,366334108
4,2,T1_SMS_8,132,5,42,127,366398696
4,2,T1_SMS_8,133,5,42,127,367198584
4,2,T1_SMS_8,134,1,48,40,367210680
4,2,T1_SMS_8,135,5,42,127,367999512
4,2,T1_SMS_8,136,1,48,39,368013700
4,2,T1_SMS_8,137,5,42,127,368799020
4,2,T1_SMS_8,138,1,48,37,368811712
4,2,T1_SMS_8,139,1,48,35,369596496
4,2,T1_SMS_8,140,5,42,127,369598848
4,2,T1_SMS_8,141,5,42,127,370398516
4,2,T1_SMS_8,142,1,48,33,370409936
4,2,T1_SMS_8,143,1,48,40,371160584
4,2,T1_SMS_8,144,5,42,127,371199288
4,2,T1_SMS_8,145,1,48,34,371942812
4,2,T1_SMS_8,146,5,42,127,371999024
4,2,T1_SMS_8,147,1,48,36,372770296
4,2,T1_SMS_8,148,5,42,127,372798756
4,2,T1_SMS_8,149,1,48,35,373577288
4,2,T1_SMS_8,150,5,42,127,373598564
4,2,T1_SMS_8,151,1,48,40,374360636
4,2,T1_SMS_8,152,5,42,127,374399492
4,2,T1_SMS_8,153,1,48,39,375196644
4,2,T1_SMS_8,154,5,42,127,375199224
4,2,T1_SMS_8,155,1,48,37,375943944
4,2,T1_SMS_8,156,5,42,127,375998836
4,2,T1_SMS_8,157,1,48,38,376704488
4,2,T1_SMS_8,158,5,42,127,376799000
4,2,T1_SMS_8,159,1,48,30,377546428
4,2,T1_SMS_8,160,5,42,127,377599496
4,2,T1_SMS_8,161,5,42,127,378399012
4,2,T1_SMS_8,162,1,48,36,378413276
4,2,T1_SMS_8,163,5,42,127,379198968
4,2,T1_SMS_8,164,1,48,35,379210388
4,2,T1_SMS_8,165,5,42,127,379998552
4,2,T1_SMS_8,166,1,48,32,380021268
4,2,T1_SMS_8,167,1,48,35,380786496
4,2,T1_SMS_8,168,5,42,127,380799400
4,2,T1_SMS_8,169,1,48,31,381594608
4,2,T1_SMS_8,170,5,42,127,381599060
4,2,T1_SMS_8,171,1,48,33,382354928
4,2,T1_SMS_8,172,5,42,127,382398892
4,2,T1_SMS_8,173,5,42,127,383198560
4,2,T1_SMS_8,174,1,48,29,383224340
4,2,T1_SMS_8,175,1,48,30,383985236
4,2,T1_SMS_8,176,5,42,127,383999332
4,2,T1_SMS_8,177,1,48,27,384778912
4,2,T1_SMS_8,178,5,42,127,384799140
4,2,T1_SMS_8,179,5,42,127,385598732
4,2,T1_SMS_8,180,1,48,29,385610228
4,2,T1_SMS_8,181,5,42,127,386398540
4,2,T1_SMS_8,182,1,48,25,386417216
4,2,T1_SMS_8,183,1,48,26,387179008
4,2,T1_SMS_8,184,5,42,127,387199312
4,2,T1_SMS_8,185,1,48,28,387984272
4,2,T1_SMS_8,186,5,42,127,387999196
4,2,T1_SMS_8,187,1,48,32,388798284
4,2,T1_SMS_8,188,5,42,127,388799852
4,2,T1_SMS_8,189,5,42,127,389598692
4,2,T1_SMS_8,190,1,48,27,389635768
4,2,T1_SMS_8,191,1,48,33,390374900
4,2,T1_SMS_8,192,5,42,127,390399392
4,2,T1_SMS_8,193,5,42,127,391199136
4,2,T1_SMS_8,194,1,48,34,391204872
4,2,T1_SMS_8,195,1,48,32,391969212
4,2,T1_SMS_8,196,5,42,127,391998864
4,2,T1_SMS_8,197,1,48,32,392756900
4,2,T1_SMS_8,198,5,42,127,392798524
4,2,T1_SMS_8,199,1,48,34,393565008
4,2,T1_SMS_8,200,5,42,127,393599228
4,2,T1_SMS_8,201,5,42,127,394399044
4,2,T1_SMS_8,202,1,48,29,394425596
4,2,T1_SMS_8,203,1,48,30,395180932
4,2,T1_SMS_8,204,5,42,127,395198868
4,2,T1_SMS_8,205,1,48,31,395966176
4,2,T1_SMS_8,206,5,42,127,395998528
4,2,T1_SMS_8,207,1,48,34,396725644
4,2,T1_SMS_8,208,5,42,127,396799280
4,2,T1_SMS_8,209,1,48,32,397507428
4,2,T1_SMS_8,210,5,42,127,397599016
4,2,T1_SMS_8,211,1,48,32,398379192
4,2,T1_SMS_8,212,5,42,127,398398968
4,2,T1_SMS_8,213,1,48,29,399140624
4,2,T1_SMS_8,214,5,42,127,399198704
4,2,T1_SMS_8,215,1,48,27,399964888
4,2,T1_SMS_8,216,5,42,127,399999336
4,2,T1_SMS_8,217,1,48,28,400741588
4,2,T1_SMS_8,218,5,42,127,400799144
4,2,T1_SMS_8,219,1,48,28,401528908
4,2,T1_SMS_8,220,5,42,127,401598828
4,2,T1_SMS_8,221,1,48,32,402396372
4,2,T1_SMS_8,222,5,42,127,402398484
4,2,T1_SMS_8,223,1,48,29,403161832
4,2,T1_SMS_8,224,5,42,127,403199264
4,2,T1_SMS_8,225,1,48,28,403935832
4,2,T1_SMS_8,226,5,42,127,403999148
4,2,T1_SMS_8,227,1,48,26,404749484
4,2,T1_SMS_8,228,5,42,127,404798804
4,2,T1_SMS_8,229,1,48,29,405553476
4,2,T1_SMS_8,230,5,42,127,405598688
4,2,T1_SMS_8,231,1,48,28,406347228
4,2,T1_SMS_8,232,5,42,127,406399392
4,2,T1_SMS_8,233,1,48,29,407139852
4,2,T1_SMS_8,234,5,42,127,407199128
4,2,T1_SMS_8,235,1,48,30,407941456
4,2,T1_SMS_8,236,5,42,127,407998812
4,2,T1_SMS_8,237,1,48,30,408776744
4,2,T1_SMS_8,238,5,42,127,408798768
4,2,T1_SMS_8,239,1,48,34,409582460
4,2,T1_SMS_8,0,9999,9999,9999,9999,313597012
4,2,T1_SMS_8,1,9999,9999,9999,9999,314396764
4,2,T1_SMS_8,2,9999,9999,9999,9999,315196516
4,2,T1_SMS_8,3,9999,9999,9999,9999,315996248
4,2,T1_SMS_8,4,9999,9999,9999,9999,316797028
4,2,T1_SMS_8,5,9999,9999,9999,9999,317596760
4,2,T1_SMS_8,6,9999,9999,9999,9999,318396520
4,2,T1_SMS_8,7,9999,9999,9999,9999,319196252
4,2,T1_SMS_8,8,9999,9999,9999,9999,319997032
4,2,T1_SMS_8,9,9999,9999,9999,9999,320796768
4,2,T1_SMS_8,10,9999,9999,9999,9999,321596500
4,2,T1_SMS_8,11,9999,9999,9999,9999,322396232
4,2,T1_SMS_8,12,9999,9999,9999,9999,323197012
4,2,T1_SMS_8,13,9999,9999,9999,9999,323996752
4,2,T1_SMS_8,14,9999,9999,9999,9999,324796508
4,2,T1_SMS_8,15,9999,9999,9999,9999,325596244
4,2,T1_SMS_8,16,9999,9999,9999,9999,326397024
4,2,T1_SMS_8,17,9999,9999,9999,9999,327196756
4,2,T1_SMS_8,18,9999,9999,9999,9999,327996488
4,2,T1_SMS_8,19,9999,9999,9999,9999,328796220
4,2,T1_SMS_8,20,9999,9999,9999,9999,329597000
4,2,T1_SMS_8,21,9999,9999,9999,9999,330396732
4,2,T1_SMS_8,22,9999,9999,9999,9999,331196492
4,2,T1_SMS_8,23,9999,9999,9999,9999,331996232
4,2,T1_SMS_8,24,9999,9999,9999,9999,332797012
4,2,T1_SMS_8,25,9999,9999,9999,9999,333596744
4,2,T1_SMS_8,26,9999,9999,9999,9999,334396472
4,2,T1_SMS_8,27,9999,9999,9999,9999,335196280
4,2,T1_SMS_8,28,9999,9999,9999,9999,335996984
4,2,T1_SMS_8,29,9999,9999,9999,9999,336796724
4,2,T1_SMS_8,30,9999,9999,9999,9999,337596484
4,2,T1_SMS_8,31,9999,9999,9999,9999,338396212
4,2,T1_SMS_8,32,9999,9999,9999,9999,339196992
4,2,T1_SMS_8,33,9999,9999,9999,9999,339996724
4,2,T1_SMS_8,34,9999,9999,9999,9999,340796540
4,2,T1_SMS_8,35,9999,9999,9999,9999,341596268
4,2,T1_SMS_8,36,9999,9999,9999,9999,342397048
4,2,T1_SMS_8,37,9999,9999,9999,9999,343196788
4,2,T1_SMS_8,38,9999,9999,9999,9999,343996464
4,2,T1_SMS_8,39,9999,9999,9999,9999,344796272
4,2,T1_SMS_8,40,9999,9999,9999,9999,345596980
4,2,T1_SMS_8,41,9999,9999,9999,9999,346396788
4,2,T1_SMS_8,42,9999,9999,9999,9999,347196528
4,2,T1_SMS_8,43,9999,9999,9999,9999,347996260
4,2,T1_SMS_8,44,9999,9999,9999,9999,348797040
4,2,T1_SMS_8,45,9999,9999,9999,9999,349596776
4,2,T1_SMS_8,46,9999,9999,9999,9999,350396532
4,2,T1_SMS_8,47,9999,9999,9999,9999,351196264
4,2,T1_SMS_8,48,9999,9999,9999,9999,351997044
4,2,T1_SMS_8,49,9999,9999,9999,9999,352796780
4,2,T1_SMS_8,50,9999,9999,9999,9999,353596516
4,2,T1_SMS_8,51,9999,9999,9999,9999,354396248
4,2,T1_SMS_8,52,9999,9999,9999,9999,355197028
4,2,T1_SMS_8,53,9999,9999,9999,9999,355996760
4,2,T1_SMS_8,54,9999,9999,9999,9999,356796512
4,2,T1_SMS_8,55,9999,9999,9999,9999,357596252
4,2,T1_SMS_8,56,9999,9999,9999,9999,358397032
4,2,T1_SMS_8,57,9999,9999,9999,9999,359196764
4,2,T1_SMS_8,58,9999,9999,9999,9999,359996500
4,2,T1_SMS_8,59,9999,9999,9999,9999,360796232
4,2,T1_SMS_8,60,9999,9999,9999,9999,361597004
4,2,T1_SMS_8,61,9999,9999,9999,9999,362396748
4,2,T1_SMS_8,62,9999,9999,9999,9999,363196500
4,2,T1_SMS_8,63,9999,9999,9999,9999,363996240
4,2,T1_SMS_8,64,9999,9999,9999,9999,364797016
4,2,T1_SMS_8,65,9999,9999,9999,9999,365596748
4,2,T1_SMS_8,66,9999,9999,9999,9999,366396480
4,2,T1_SMS_8,67,9999,9999,9999,9999,367196220
4,2,T1_SMS_8,68,9999,9999,9999,9999,367997000
4,2,T1_SMS_8,69,9999,9999,9999,9999,368796732
4,2,T1_SMS_8,70,9999,9999,9999,9999,369596560
4,2,T1_SMS_8,71,9999,9999,9999,9999,370396228
4,2,T1_SMS_8,72,9999,9999,9999,9999,371197000
4,2,T1_SMS_8,73,9999,9999,9999,9999,371996736
4,2,T1_SMS_8,74,9999,9999,9999,9999,372796468
4,2,T1_SMS_8,75,9999,9999,9999,9999,373596276
4,2,T1_SMS_8,76,9999,9999,9999,9999,374396980
4,2,T1_SMS_8,77,9999,9999,9999,9999,375196788
4,2,T1_SMS_8,78,9999,9999,9999,9999,375996472
4,2,T1_SMS_8,79,9999,9999,9999,9999,376796280
4,2,T1_SMS_8,80,9999,9999,9999,9999,377596984
4,2,T1_SMS_8,81,9999,9999,9999,9999,378396724
4,2,T1_SMS_8,82,9999,9999,9999,9999,379196532
4,2,T1_SMS_8,83,9999,9999,9999,9999,379996264
4,2,T1_SMS_8,84,9999,9999,9999,9999,380797040
4,2,T1_SMS_8,85,9999,9999,9999,9999,381596772
4,2,T1_SMS_8,86,9999,9999,9999,9999,382396532
4,2,T1_SMS_8,87,9999,9999,9999,9999,383196272
4,2,T1_SMS_8,88,9999,9999,9999,9999,383997044
4,2,T1_SMS_8,89,9999,9999,9999,9999,384796780
4,2,T1_SMS_8,90,9999,9999,9999,9999,385596520
4,2,T1_SMS_8,91,9999,9999,9999,9999,386396252
4,2,T1_SMS_8,92,9999,9999,9999,9999,387197024
4,2,T1_SMS_8,93,9999,9999,9999,9999,387996760
4,2,T1_SMS_8,94,9999,9999,9999,9999,388796524
4,2,T1_SMS_8,95,9999,9999,9999,9999,389596256
4,2,T1_SMS_8,96,9999,9999,9999,9999,390397032
4,2,T1_SMS_8,97,9999,9999,9999,9999,391196772
4,2,T1_SMS_8,98,9999,9999,9999,9999,391996500
4,2,T1_SMS_8,99,9999,9999,9999,9999,392796236
4,2,T1_SMS_8,100,9999,9999,9999,9999,393597016
4,2,T1_SMS_8,101,9999,9999,9999,9999,394396756
4,2,T1_SMS_8,102,9999,9999,9999,9999,395196508
4,2,T1_SMS_8,103,9999,9999,9999,9999,395996240
4,2,T1_SMS_8,104,9999,9999,9999,9999,396796992
4,2,T1_SMS_8,105,9999,9999,9999,9999,397596728
4,2,T1_SMS_8,106,9999,9999,9999,9999,398396532
4,2,T1_SMS_8,107,9999,9999,9999,9999,399196268
4,2,T1_SMS_8,108,9999,9999,9999,9999,399997048
4,2,T1_SMS_8,109,9999,9999,9999,9999,400796780
4,2,T1_SMS_8,110,9999,9999,9999,9999,401596540
4,2,T1_SMS_8,111,9999,9999,9999,9999,402396240
4,2,T1_SMS_8,112,9999,9999,9999,9999,403196976
4,2,T1_SMS_8,113,9999,9999,9999,9999,403996784
4,2,T1_SMS_8,114,9999,9999,9999,9999,404796516
4,2,T1_SMS_8,115,9999,9999,9999,9999,405596252
4,2,T1_SMS_8,116,9999,9999,9999,9999,406397032
4,2,T1_SMS_8,117,9999,9999,9999,9999,407196764
4,2,T1_SMS_8,118,9999,9999,9999,9999,407996524
4,2,T1_SMS_8,119,9999,9999,9999,9999,408796256
5,10,Ticks_ISO_T2_5,0,5,42,127,421509352
5,10,Ticks_ISO_T2_5,1,5,42,127,422010412
5,10,Ticks_ISO_T2_5,2,5,42,127,422510056
5,10,Ticks_ISO_T2_5,3,5,42,127,423009772
5,10,Ticks_ISO_T2_5,4,1,48,32,423411316
5,10,Ticks_ISO_T2_5,5,5,42,127,423511712
5,10,Ticks_ISO_T2_5,6,1,48,33,423954840
5,10,Ticks_ISO_T2_5,7,5,42,127,424010300
5,10,Ticks_ISO_T2_5,8,1,48,38,424481916
5,10,Ticks_ISO_T2_5,9,5,42,127,424509772
5,10,Ticks_ISO_T2_5,10,1,48,35,424991480
5,10,Ticks_ISO_T2_5,11,5,42,127,425009468
5,10,Ticks_ISO_T2_5,12,1,48,37,425494240
5,10,Ticks_ISO_T2_5,13,5,42,127,425510508
5,10,Ticks_ISO_T2_5,14,1,48,37,426010136
5,10,Ticks_ISO_T2_5,15,5,42,127,426011548
5,10,Ticks_ISO_T2_5,16,5,42,127,426509608
5,10,Ticks_ISO_T2_5,17,1,48,35,426512432
5,10,Ticks_ISO_T2_5,18,1,48,33,427000512
5,10,Ticks_ISO_T2_5,19,5,42,127,427010344
5,10,Ticks_ISO_T2_5,20,1,48,31,427505068
5,10,Ticks_ISO_T2_5,21,5,42,127,427510260
5,10,Ticks_ISO_T2_5,22,5,42,127,428010036
5,10,Ticks_ISO_T2_5,23,1,48,33,428011004
5,10,Ticks_ISO_T2_5,24,1,48,34,428506176
5,10,Ticks_ISO_T2_5,25,5,42,127,428509652
5,10,Ticks_ISO_T2_5,26,1,48,32,429004300
5,10,Ticks_ISO_T2_5,27,5,42,127,429010172
5,10,Ticks_ISO_T2_5,28,1,48,28,429483328
5,10,Ticks_ISO_T2_5,29,5,42,127,429510160
5,10,Ticks_ISO_T2_5,30,1,48,29,429989232
5,10,Ticks_ISO_T2_5,31,5,42,127,430009632
5,10,Ticks_ISO_T2_5,32,1,48,36,430486832
5,10,Ticks_ISO_T2_5,33,5,42,127,430509380
5,10,Ticks_ISO_T2_5,34,5,42,127,431010276
5,10,Ticks_ISO_T2_5,35,1,48,38,431014516
5,10,Ticks_ISO_T2_5,36,5,42,127,431509824
5,10,Ticks_ISO_T2_5,37,1,48,37,431519900
5,10,Ticks_ISO_T2_5,38,5,42,127,432009516
5,10,Ticks_ISO_T2_5,39,1,48,34,432026544
5,10,Ticks_ISO_T2_5,40,5,42,127,432510184
5,10,Ticks_ISO_T2_5,41,1,48,35,432523772
5,10,Ticks_ISO_T2_5,42,1,48,36,433006540
5,10,Ticks_ISO_T2_5,43,5,42,127,433010168
5,10,Ticks_ISO_T2_5,44,1,48,35,433482976
5,10,Ticks_ISO_T2_5,45,5,42,127,433509712
5,10,Ticks_ISO_T2_5,46,1,48,35,434002640
5,10,Ticks_ISO_T2_5,47,5,42,127,434009484
5,10,Ticks_ISO_T2_5,48,5,42,127,434510084
5,10,Ticks_ISO_T2_5,49,1,48,32,434518512
5,10,Ticks_ISO_T2_5,50,5,42,127,435010000
5,10,Ticks_ISO_T2_5,51,1,48,38,435023512
5,10,Ticks_ISO_T2_5,52,5,42,127,435509620
5,10,Ticks_ISO_T2_5,53,1,48,32,435527104
5,10,Ticks_ISO_T2_5,54,5,42,127,436010440
5,10,Ticks_ISO_T2_5,55,1,48,34,436060152
5,10,Ticks_ISO_T2_5,56,5,42,127,436510208
5,10,Ticks_ISO_T2_5,57,1,48,35,436522004
5,10,Ticks_ISO_T2_5,58,5,42,127,437009752
5,10,Ticks_ISO_T2_5,59,1,48,37,437023340
5,10,Ticks_ISO_T2_5,60,5,42,127,437509520
5,10,Ticks_ISO_T2_5,61,1,48,41,437511460
5,10,Ticks_ISO_T2_5,62,5,42,127,438010264
5,10,Ticks_ISO_T2_5,63,1,48,41,438014500
5,10,Ticks_ISO_T2_5,64,5,42,127,438510108
5,10,Ticks_ISO_T2_5,65,1,48,39,438535064
5,10,Ticks_ISO_T2_5,66,5,42,127,439009580
5,10,Ticks_ISO_T2_5,67,1,48,39,439023540
5,10,Ticks_ISO_T2_5,68,5,42,127,439510244
5,10,Ticks_ISO_T2_5,69,1,48,43,439536472
5,10,Ticks_ISO_T2_5,70,5,42,127,440010016
5,10,Ticks_ISO_T2_5,71,1,48,42,440015376
5,10,Ticks_ISO_T2_5,72,5,42,127,440509932
5,10,Ticks_ISO_T2_5,73,1,48,35,440557552
5,10,Ticks_ISO_T2_5,74,5,42,127,441009452
5,10,Ticks_ISO_T2_5,75,1,48,40,441061492
5,10,Ticks_ISO_T2_5,76,5,42,127,441510392
5,10,Ticks_ISO_T2_5,77,1,48,36,441567988
5,10,Ticks_ISO_T2_5,78,5,42,127,442010012
5,10,Ticks_ISO_T2_5,79,1,48,36,442061624
5,10,Ticks_ISO_T2_5,80,5,42,127,442509784
5,10,Ticks_ISO_T2_5,81,1,48,38,442538112
5,10,Ticks_ISO_T2_5,82,5,42,127,443010524
5,10,Ticks_ISO_T2_5,83,1,48,40,443027484
5,10,Ticks_ISO_T2_5,84,5,42,127,443510144
5,10,Ticks_ISO_T2_5,85,1,48,42,443523884
5,10,Ticks_ISO_T2_5,86,1,48,42,444004936
5,10,Ticks_ISO_T2_5,87,5,42,127,444009908
5,10,Ticks_ISO_T2_5,88,5,42,127,444509536
5,10,Ticks_ISO_T2_5,89,1,48,40,444517964
5,10,Ticks_ISO_T2_5,90,5,42,127,445010276
5,10,Ticks_ISO_T2_5,91,1,48,43,445013244
5,10,Ticks_ISO_T2_5,92,1,48,42,445497960
5,10,Ticks_ISO_T2_5,93,5,42,127,445509964
5,10,Ticks_ISO_T2_5,94,1,48,39,446004612
5,10,Ticks_ISO_T2_5,95,5,42,127,446009808
5,10,Ticks_ISO_T2_5,96,5,42,127,446509508
5,10,Ticks_ISO_T2_5,97,1,48,38,446530656
5,10,Ticks_ISO_T2_5,98,5,42,127,447010176
5,10,Ticks_ISO_T2_5,99,1,48,37,447042164
5,10,Ticks_ISO_T2_5,100,5,42,127,447509868
5,10,Ticks_ISO_T2_5,101,1,48,39,447533112
5,10,Ticks_ISO_T2_5,102,5,42,127,448009716
5,10,Ticks_ISO_T2_5,103,1,48,35,448036616
5,10,Ticks_ISO_T2_5,104,5,42,127,448510232
5,10,Ticks_ISO_T2_5,105,1,48,40,448523820
5,10,Ticks_ISO_T2_5,106,5,42,127,449010004
5,10,Ticks_ISO_T2_5,107,1,48,41,449015660
5,10,Ticks_ISO_T2_5,108,1,48,41,449484824
5,10,Ticks_ISO_T2_5,109,5,42,127,449509840
5,10,Ticks_ISO_T2_5,110,1,48,43,450003368
5,10,Ticks_ISO_T2_5,111,5,42,127,450009312
5,10,Ticks_ISO_T2_5,112,1,48,43,450507252
5,10,Ticks_ISO_T2_5,113,5,42,127,450510276
5,10,Ticks_ISO_T2_5,114,1,48,40,450960920
5,10,Ticks_ISO_T2_5,115,5,42,127,451009896
5,10,Ticks_ISO_T2_5,116,1,48,41,451469064
5,10,Ticks_ISO_T2_5,117,5,42,127,451509812
5,10,Ticks_ISO_T2_5,118,1,48,39,451958288
5,10,Ticks_ISO_T2_5,119,5,42,127,452010232
5,10,Ticks_ISO_T2_5,120,1,48,41,452444744
5,10,Ticks_ISO_T2_5,121,5,42,127,452510004
5,10,Ticks_ISO_T2_5,122,1,48,39,452960448
5,10,Ticks_ISO_T2_5,123,5,42,127,453009848
5,10,Ticks_ISO_T2_5,124,1,48,40,453454456
5,10,Ticks_ISO_T2_5,125,5,42,127,453509764
5,10,Ticks_ISO_T2_5,126,1,48,40,453963876
5,10,Ticks_ISO_T2_5,127,5,42,127,454010360
5,10,Ticks_ISO_T2_5,128,1,48,41,454461248
5,10,Ticks_ISO_T2_5,129,5,42,127,454509980
5,10,Ticks_ISO_T2_5,130,1,48,38,454939708
5,10,Ticks_ISO_T2_5,131,5,42,127,455009748
5,10,Ticks_ISO_T2_5,132,1,48,39,455470364
5,10,Ticks_ISO_T2_5,133,5,42,127,455510492
5,10,Ticks_ISO_T2_5,134,1,48,38,455998712
5,10,Ticks_ISO_T2_5,135,5,42,127,456010036
5,10,Ticks_ISO_T2_5,136,1,48,31,456482468
5,10,Ticks_ISO_T2_5,137,5,42,127,456509732
5,10,Ticks_ISO_T2_5,138,1,48,39,456988372
5,10,Ticks_ISO_T2_5,139,5,42,127,457009796
5,10,Ticks_ISO_T2_5,140,1,48,38,457472208
5,10,Ticks_ISO_T2_5,141,5,42,127,457510240
5,10,Ticks_ISO_T2_5,142,1,48,34,457957768
5,10,Ticks_ISO_T2_5,143,5,42,127,458009936
5,10,Ticks_ISO_T2_5,144,1,48,35,458481616
5,10,Ticks_ISO_T2_5,145,5,42,127,458509780
5,10,Ticks_ISO_T2_5,146,1,48,33,458956936
5,10,Ticks_ISO_T2_5,147,5,42,127,459010444
5,10,Ticks_ISO_T2_5,148,1,48,29,459443008
5,10,Ticks_ISO_T2_5,149,5,42,127,459510212
5,10,Ticks_ISO_T2_5,150,1,48,30,459932356
5,10,Ticks_ISO_T2_5,151,5,42,127,460009688
5,10,Ticks_ISO_T2_5,152,1,48,30,460438188
5,10,Ticks_ISO_T2_5,153,5,42,127,460509676
5,10,Ticks_ISO_T2_5,154,1,48,40,460949852
5,10,Ticks_ISO_T2_5,155,5,42,127,461010268
5,10,Ticks_ISO_T2_5,156,1,48,40,461501248
5,10,Ticks_ISO_T2_5,157,5,42,127,461509888
5,10,Ticks_ISO_T2_5,158,1,48,42,461997780
5,10,Ticks_ISO_T2_5,159,5,42,127,462009660
5,10,Ticks_ISO_T2_5,160,1,48,43,462484540
5,10,Ticks_ISO_T2_5,161,5,42,127,462509628
5,10,Ticks_ISO_T2_5,162,1,48,38,462981464
5,10,Ticks_ISO_T2_5,163,5,42,127,463010292
5,10,Ticks_ISO_T2_5,164,1,48,40,463500308
5,10,Ticks_ISO_T2_5,165,5,42,127,463509988
5,10,Ticks_ISO_T2_5,166,1,48,41,463996852
5,10,Ticks_ISO_T2_5,167,5,42,127,464009536
5,10,Ticks_ISO_T2_5,168,1,48,43,464502088
5,10,Ticks_ISO_T2_5,169,5,42,127,464510500
5,10,Ticks_ISO_T2_5,170,5,42,127,465010052
5,10,Ticks_ISO_T2_5,171,1,48,46,465032320
5,10,Ticks_ISO_T2_5,172,5,42,127,465509744
5,10,Ticks_ISO_T2_5,173,1,48,41,465514508
5,10,Ticks_ISO_T2_5,174,5,42,127,466009512
5,10,Ticks_ISO_T2_5,175,1,48,41,466014280
5,10,Ticks_ISO_T2_5,176,5,42,127,466510328
5,10,Ticks_ISO_T2_5,177,1,48,43,466526316
5,10,Ticks_ISO_T2_5,178,5,42,127,467009872
5,10,Ticks_ISO_T2_5,179,1,48,42,467014112
5,10,Ticks_ISO_T2_5,180,5,42,127,467509644
5,10,Ticks_ISO_T2_5,181,1,48,41,467518220
5,10,Ticks_ISO_T2_5,182,5,42,127,468010236
5,10,Ticks_ISO_T2_5,183,1,48,44,468028540
5,10,Ticks_ISO_T2_5,184,1,48,39,468484236
5,10,Ticks_ISO_T2_5,185,5,42,127,468510148
5,10,Ticks_ISO_T2_5,186,1,48,39,468992828
5,10,Ticks_ISO_T2_5,187,5,42,127,469009620
5,10,Ticks_ISO_T2_5,188,1,48,41,469489604
5,10,Ticks_ISO_T2_5,189,5,42,127,469509460
5,10,Ticks_ISO_T2_5,190,1,48,41,470000748
5,10,Ticks_ISO_T2_5,191,5,42,127,470010280
5,10,Ticks_ISO_T2_5,192,1,48,40,470503656
5,10,Ticks_ISO_T2_5,193,5,42,127,470509972
5,10,Ticks_ISO_T2_5,194,5,42,127,471009600
5,10,Ticks_ISO_T2_5,195,1,48,43,471022216
5,10,Ticks_ISO_T2_5,196,5,42,127,471510416
5,10,Ticks_ISO_T2_5,197,1,48,43,471521012
5,10,Ticks_ISO_T2_5,198,5,42,127,472010188
5,10,Ticks_ISO_T2_5,199,1,48,42,472016592
5,10,Ticks_ISO_T2_5,200,5,42,127,472509656
5,10,Ticks_ISO_T2_5,201,1,48,45,472531324
5,10,Ticks_ISO_T2_5,202,1,48,42,473009404
5,10,Ticks_ISO_T2_5,203,5,42,127,473010740
5,10,Ticks_ISO_T2_5,204,1,48,40,473508148
5,10,Ticks_ISO_T2_5,205,5,42,127,473510260
5,10,Ticks_ISO_T2_5,206,5,42,127,474010036
5,10,Ticks_ISO_T2_5,207,1,48,42,474063668
5,10,Ticks_ISO_T2_5,208,5,42,127,474509584
5,10,Ticks_ISO_T2_5,209,1,48,40,474542248
5,10,Ticks_ISO_T2_5,210,5,42,127,475010400
5,10,Ticks_ISO_T2_5,211,1,48,39,475016956
5,10,Ticks_ISO_T2_5,212,5,42,127,475510244
5,10,Ticks_ISO_T2_5,213,1,48,41,475522412
5,10,Ticks_ISO_T2_5,214,5,42,127,476009712
5,10,Ticks_ISO_T2_5,215,1,48,37,476018516
5,10,Ticks_ISO_T2_5,216,5,42,127,476509408
5,10,Ticks_ISO_T2_5,217,1,48,38,476515216
5,10,Ticks_ISO_T2_5,218,5,42,127,477010152
5,10,Ticks_ISO_T2_5,219,1,48,44,477013120
5,10,Ticks_ISO_T2_5,220,1,48,43,477504644
5,10,Ticks_ISO_T2_5,221,5,42,127,477510136
5,10,Ticks_ISO_T2_5,222,5,42,127,478009688
5,10,Ticks_ISO_T2_5,223,1,48,38,478030012
5,10,Ticks_ISO_T2_5,224,5,42,127,478509388
5,10,Ticks_ISO_T2_5,225,1,48,40,478514968
5,10,Ticks_ISO_T2_5,226,5,42,127,479010276
5,10,Ticks_ISO_T2_5,227,1,48,40,479016760
5,10,Ticks_ISO_T2_5,228,5,42,127,479510196
5,10,Ticks_ISO_T2_5,229,1,48,38,479511836
5,10,Ticks_ISO_T2_5,230,5,42,127,480009592
5,10,Ticks_ISO_T2_5,231,1,48,39,480015776
5,10,Ticks_ISO_T2_5,232,5,42,127,480510184
5,10,Ticks_ISO_T2_5,233,1,48,39,480514352
5,10,Ticks_ISO_T2_5,234,5,42,127,481010104
5,10,Ticks_ISO_T2_5,235,1,48,35,481014716
5,10,Ticks_ISO_T2_5,236,5,42,127,481510020
5,10,Ticks_ISO_T2_5,237,1,48,38,481521968
5,10,Ticks_ISO_T2_5,238,1,48,35,481983720
5,10,Ticks_ISO_T2_5,239,5,42,127,482009412
5,10,Ticks_ISO_T2_5,240,1,48,38,482465892
5,10,Ticks_ISO_T2_5,241,5,42,127,482510152
5,10,Ticks_ISO_T2_5,242,1,48,39,482986896
5,10,Ticks_ISO_T2_5,243,5,42,127,483010072
5,10,Ticks_ISO_T2_5,244,1,48,39,483484572
5,10,Ticks_ISO_T2_5,245,5,42,127,483509544
5,10,Ticks_ISO_T2_5,246,1,48,38,483981876
5,10,Ticks_ISO_T2_5,247,5,42,127,484010332
5,10,Ticks_ISO_T2_5,248,1,48,42,484473192
5,10,Ticks_ISO_T2_5,249,5,42,127,484510100
5,10,Ticks_ISO_T2_5,250,1,48,45,484969672
5,10,Ticks_ISO_T2_5,251,5,42,127,485010020
5,10,Ticks_ISO_T2_5,252,1,48,45,485482156
5,10,Ticks_ISO_T2_5,253,5,42,127,485509420
5,10,Ticks_ISO_T2_5,254,5,42,127,486010168
5,10,Ticks_ISO_T2_5,255,1,48,37,486015900
5,10,Ticks_ISO_T2_5,256,1,48,56,486475632
5,10,Ticks_ISO_T2_5,0,9999,9999,9999,9999,421507140
5,10,Ticks_ISO_T2_5,1,9999,9999,9999,9999,422007904
5,10,Ticks_ISO_T2_5,2,9999,9999,9999,9999,422507620
5,10,Ticks_ISO_T2_5,3,9999,9999,9999,9999,423007336
5,10,Ticks_ISO_T2_5,4,9999,9999,9999,9999,423508020
5,10,Ticks_ISO_T2_5,5,9999,9999,9999,9999,424007792
5,10,Ticks_ISO_T2_5,6,9999,9999,9999,9999,424507488
5,10,Ticks_ISO_T2_5,7,9999,9999,9999,9999,425007184
5,10,Ticks_ISO_T2_5,8,9999,9999,9999,9999,425507924
5,10,Ticks_ISO_T2_5,9,9999,9999,9999,9999,426007628
5,10,Ticks_ISO_T2_5,10,9999,9999,9999,9999,426507324
5,10,Ticks_ISO_T2_5,11,9999,9999,9999,9999,427008060
5,10,Ticks_ISO_T2_5,12,9999,9999,9999,9999,427507828
5,10,Ticks_ISO_T2_5,13,9999,9999,9999,9999,428007528
5,10,Ticks_ISO_T2_5,14,9999,9999,9999,9999,428507216
5,10,Ticks_ISO_T2_5,15,9999,9999,9999,9999,429007960
5,10,Ticks_ISO_T2_5,16,9999,9999,9999,9999,429507652
5,10,Ticks_ISO_T2_5,17,9999,9999,9999,9999,430007348
5,10,Ticks_ISO_T2_5,18,9999,9999,9999,9999,430507092
5,10,Ticks_ISO_T2_5,19,9999,9999,9999,9999,431007840
5,10,Ticks_ISO_T2_5,20,9999,9999,9999,9999,431507536
5,10,Ticks_ISO_T2_5,21,9999,9999,9999,9999,432007232
5,10,Ticks_ISO_T2_5,22,9999,9999,9999,9999,432507972
5,10,Ticks_ISO_T2_5,23,9999,9999,9999,9999,433007732
5,10,Ticks_ISO_T2_5,24,9999,9999,9999,9999,433507428
5,10,Ticks_ISO_T2_5,25,9999,9999,9999,9999,434007124
5,10,Ticks_ISO_T2_5,26,9999,9999,9999,9999,434507872
5,10,Ticks_ISO_T2_5,27,9999,9999,9999,9999,435007564
5,10,Ticks_ISO_T2_5,28,9999,9999,9999,9999,435507260
5,10,Ticks_ISO_T2_5,29,9999,9999,9999,9999,436008004
5,10,Ticks_ISO_T2_5,30,9999,9999,9999,9999,436507696
5,10,Ticks_ISO_T2_5,31,9999,9999,9999,9999,437007468
5,10,Ticks_ISO_T2_5,32,9999,9999,9999,9999,437507160
5,10,Ticks_ISO_T2_5,33,9999,9999,9999,9999,438007900
5,10,Ticks_ISO_T2_5,34,9999,9999,9999,9999,438507596
5,10,Ticks_ISO_T2_5,35,9999,9999,9999,9999,439007292
5,10,Ticks_ISO_T2_5,36,9999,9999,9999,9999,439508032
5,10,Ticks_ISO_T2_5,37,9999,9999,9999,9999,440007728
5,10,Ticks_ISO_T2_5,38,9999,9999,9999,9999,440507496
5,10,Ticks_ISO_T2_5,39,9999,9999,9999,9999,441007168
5,10,Ticks_ISO_T2_5,40,9999,9999,9999,9999,441507956
5,10,Ticks_ISO_T2_5,41,9999,9999,9999,9999,442007652
5,10,Ticks_ISO_T2_5,42,9999,9999,9999,9999,442507348
5,10,Ticks_ISO_T2_5,43,9999,9999,9999,9999,443008088
5,10,Ticks_ISO_T2_5,44,9999,9999,9999,9999,443507784
5,10,Ticks_ISO_T2_5,45,9999,9999,9999,9999,444007472
5,10,Ticks_ISO_T2_5,46,9999,9999,9999,9999,444507248
5,10,Ticks_ISO_T2_5,47,9999,9999,9999,9999,445007988
5,10,Ticks_ISO_T2_5,48,9999,9999,9999,9999,445507676
5,10,Ticks_ISO_T2_5,49,9999,9999,9999,9999,446007372
5,10,Ticks_ISO_T2_5,50,9999,9999,9999,9999,446507072
5,10,Ticks_ISO_T2_5,51,9999,9999,9999,9999,447007812
5,10,Ticks_ISO_T2_5,52,9999,9999,9999,9999,447507508
5,10,Ticks_ISO_T2_5,53,9999,9999,9999,9999,448007280
5,10,Ticks_ISO_T2_5,54,9999,9999,9999,9999,448508020
5,10,Ticks_ISO_T2_5,55,9999,9999,9999,9999,449007716
5,10,Ticks_ISO_T2_5,56,9999,9999,9999,9999,449507404
5,10,Ticks_ISO_T2_5,57,9999,9999,9999,9999,450007100
5,10,Ticks_ISO_T2_5,58,9999,9999,9999,9999,450507840
5,10,Ticks_ISO_T2_5,59,9999,9999,9999,9999,451007608
5,10,Ticks_ISO_T2_5,60,9999,9999,9999,9999,451507304
5,10,Ticks_ISO_T2_5,61,9999,9999,9999,9999,452008024
5,10,Ticks_ISO_T2_5,62,9999,9999,9999,9999,452507716
5,10,Ticks_ISO_T2_5,63,9999,9999,9999,9999,453007412
5,10,Ticks_ISO_T2_5,64,9999,9999,9999,9999,453507180
5,10,Ticks_ISO_T2_5,65,9999,9999,9999,9999,454007924
5,10,Ticks_ISO_T2_5,66,9999,9999,9999,9999,454507620
5,10,Ticks_ISO_T2_5,67,9999,9999,9999,9999,455007312
5,10,Ticks_ISO_T2_5,68,9999,9999,9999,9999,455508056
5,10,Ticks_ISO_T2_5,69,9999,9999,9999,9999,456007752
5,10,Ticks_ISO_T2_5,70,9999,9999,9999,9999,456507444
5,10,Ticks_ISO_T2_5,71,9999,9999,9999,9999,457007212
5,10,Ticks_ISO_T2_5,72,9999,9999,9999,9999,457507952
5,10,Ticks_ISO_T2_5,73,9999,9999,9999,9999,458007648
5,10,Ticks_ISO_T2_5,74,9999,9999,9999,9999,458507344
5,10,Ticks_ISO_T2_5,75,9999,9999,9999,9999,459008084
5,10,Ticks_ISO_T2_5,76,9999,9999,9999,9999,459507780
5,10,Ticks_ISO_T2_5,77,9999,9999,9999,9999,460007476
5,10,Ticks_ISO_T2_5,78,9999,9999,9999,9999,460507244
5,10,Ticks_ISO_T2_5,79,9999,9999,9999,9999,461007984
5,10,Ticks_ISO_T2_5,80,9999,9999,9999,9999,461507676
5,10,Ticks_ISO_T2_5,81,9999,9999,9999,9999,462007372
5,10,Ticks_ISO_T2_5,82,9999,9999,9999,9999,462507120
5,10,Ticks_ISO_T2_5,83,9999,9999,9999,9999,463007860
5,10,Ticks_ISO_T2_5,84,9999,9999,9999,9999,463507552
5,10,Ticks_ISO_T2_5,85,9999,9999,9999,9999,464007248
5,10,Ticks_ISO_T2_5,86,9999,9999,9999,9999,464507988
5,10,Ticks_ISO_T2_5,87,9999,9999,9999,9999,465007692
5,10,Ticks_ISO_T2_5,88,9999,9999,9999,9999,465507384
5,10,Ticks_ISO_T2_5,89,9999,9999,9999,9999,466007152
5,10,Ticks_ISO_T2_5,90,9999,9999,9999,9999,466507892
5,10,Ticks_ISO_T2_5,91,9999,9999,9999,9999,467007588
5,10,Ticks_ISO_T2_5,92,9999,9999,9999,9999,467507280
5,10,Ticks_ISO_T2_5,93,9999,9999,9999,9999,468008024
5,10,Ticks_ISO_T2_5,94,9999,9999,9999,9999,468507712
5,10,Ticks_ISO_T2_5,95,9999,9999,9999,9999,469007408
5,10,Ticks_ISO_T2_5,96,9999,9999,9999,9999,469507176
5,10,Ticks_ISO_T2_5,97,9999,9999,9999,9999,470007920
5,10,Ticks_ISO_T2_5,98,9999,9999,9999,9999,470507612
5,10,Ticks_ISO_T2_5,99,9999,9999,9999,9999,471007316
5,10,Ticks_ISO_T2_5,100,9999,9999,9999,9999,471508056
5,10,Ticks_ISO_T2_5,101,9999,9999,9999,9999,472007752
5,10,Ticks_ISO_T2_5,102,9999,9999,9999,9999,472507444
5,10,Ticks_ISO_T2_5,103,9999,9999,9999,9999,473007192
5,10,Ticks_ISO_T2_5,104,9999,9999,9999,9999,473507940
5,10,Ticks_ISO_T2_5,105,9999,9999,9999,9999,474007600
5,10,Ticks_ISO_T2_5,106,9999,9999,9999,9999,474507372
5,10,Ticks_ISO_T2_5,107,9999,9999,9999,9999,475008112
5,10,Ticks_ISO_T2_5,108,9999,9999,9999,9999,475507808
5,10,Ticks_ISO_T2_5,109,9999,9999,9999,9999,476007500
5,10,Ticks_ISO_T2_5,110,9999,9999,9999,9999,476507196
5,10,Ticks_ISO_T2_5,111,9999,9999,9999,9999,477007940
5,10,Ticks_ISO_T2_5,112,9999,9999,9999,9999,477507700
5,10,Ticks_ISO_T2_5,113,9999,9999,9999,9999,478007404
5,10,Ticks_ISO_T2_5,114,9999,9999,9999,9999,478507100
5,10,Ticks_ISO_T2_5,115,9999,9999,9999,9999,479007840
5,10,Ticks_ISO_T2_5,116,9999,9999,9999,9999,479507536
5,10,Ticks_ISO_T2_5,117,9999,9999,9999,9999,480007232
5,10,Ticks_ISO_T2_5,118,9999,9999,9999,9999,480507972
5,10,Ticks_ISO_T2_5,119,9999,9999,9999,9999,481007668
5,10,Ticks_ISO_T2_5,120,9999,9999,9999,9999,481507436
5,10,Ticks_ISO_T2_5,121,9999,9999,9999,9999,482007124
5,10,Ticks_ISO_T2_5,122,9999,9999,9999,9999,482507868
5,10,Ticks_ISO_T2_5,123,9999,9999,9999,9999,483007560
5,10,Ticks_ISO_T2_5,124,9999,9999,9999,9999,483507256
5,10,Ticks_ISO_T2_5,125,9999,9999,9999,9999,484008048
5,10,Ticks_ISO_T2_5,126,9999,9999,9999,9999,484507740
5,10,Ticks_ISO_T2_5,127,9999,9999,9999,9999,485007436
5,10,Ticks_ISO_T2_5,128,9999,9999,9999,9999,485507132
5,10,Ticks_ISO_T2_5,129,9999,9999,9999,9999,486007880
6,9,Ticks_ISO_T2_8,0,5,42,127,498766100
6,9,Ticks_ISO_T2_8,1,5,42,127,499565780
6,9,Ticks_ISO_T2_8,2,1,48,38,499738340
6,9,Ticks_ISO_T2_8,3,5,42,127,500365812
6,9,Ticks_ISO_T2_8,4,1,48,34,500436796
6,9,Ticks_ISO_T2_8,5,1,48,45,501137984
6,9,Ticks_ISO_T2_8,6,5,42,127,501165612
6,9,Ticks_ISO_T2_8,7,1,48,49,501835612
6,9,Ticks_ISO_T2_8,8,5,42,127,501966476
6,9,Ticks_ISO_T2_8,9,1,48,48,502666468
6,9,Ticks_ISO_T2_8,10,5,42,127,502766580
6,9,Ticks_ISO_T2_8,11,1,48,44,503514316
6,9,Ticks_ISO_T2_8,12,5,42,127,503565808
6,9,Ticks_ISO_T2_8,13,1,48,45,504341800
6,9,Ticks_ISO_T2_8,14,5,42,127,504365616
6,9,Ticks_ISO_T2_8,15,5,42,127,505166328
6,9,Ticks_ISO_T2_8,16,1,48,40,505170200
6,9,Ticks_ISO_T2_8,17,1,48,35,505964552
6,9,Ticks_ISO_T2_8,18,5,42,127,505965908
6,9,Ticks_ISO_T2_8,19,1,48,40,506742420
6,9,Ticks_ISO_T2_8,20,5,42,127,506765640
6,9,Ticks_ISO_T2_8,21,5,42,127,507565532
6,9,Ticks_ISO_T2_8,22,1,48,39,507577328
6,9,Ticks_ISO_T2_8,23,1,48,39,508305960
6,9,Ticks_ISO_T2_8,24,5,42,127,508366376
6,9,Ticks_ISO_T2_8,25,1,48,32,509116716
6,9,Ticks_ISO_T2_8,26,5,42,127,509166036
6,9,Ticks_ISO_T2_8,27,1,48,34,509931560
6,9,Ticks_ISO_T2_8,28,5,42,127,509965696
6,9,Ticks_ISO_T2_8,29,5,42,127,510765436
6,9,Ticks_ISO_T2_8,30,1,48,36,510816580
6,9,Ticks_ISO_T2_8,31,1,48,31,511535360
6,9,Ticks_ISO_T2_8,32,5,42,127,511566356
6,9,Ticks_ISO_T2_8,33,1,48,27,512293724
6,9,Ticks_ISO_T2_8,34,5,42,127,512365940
6,9,Ticks_ISO_T2_8,35,1,48,44,513162280
6,9,Ticks_ISO_T2_8,36,5,42,127,513165676
6,9,Ticks_ISO_T2_8,37,5,42,127,513965340
6,9,Ticks_ISO_T2_8,38,1,48,40,514032812
6,9,Ticks_ISO_T2_8,39,5,42,127,514766292
6,9,Ticks_ISO_T2_8,40,1,48,38,514791928
6,9,Ticks_ISO_T2_8,41,5,42,127,515566028
6,9,Ticks_ISO_T2_8,42,1,48,39,515593608
6,9,Ticks_ISO_T2_8,43,1,48,36,516336472
6,9,Ticks_ISO_T2_8,44,5,42,127,516365528
6,9,Ticks_ISO_T2_8,45,1,48,44,517112644
6,9,Ticks_ISO_T2_8,46,5,42,127,517165412
6,9,Ticks_ISO_T2_8,47,1,48,46,517964380
6,9,Ticks_ISO_T2_8,48,5,42,127,517966192
6,9,Ticks_ISO_T2_8,49,5,42,127,518766008
6,9,Ticks_ISO_T2_8,50,1,48,43,518769576
6,9,Ticks_ISO_T2_8,51,5,42,127,519565592
6,9,Ticks_ISO_T2_8,52,1,48,41,519592276
6,9,Ticks_ISO_T2_8,53,1,48,38,520313076
6,9,Ticks_ISO_T2_8,54,5,42,127,520365540
6,9,Ticks_ISO_T2_8,55,1,48,33,521120440
6,9,Ticks_ISO_T2_8,56,5,42,127,521166196
6,9,Ticks_ISO_T2_8,57,1,48,45,521900576
6,9,Ticks_ISO_T2_8,58,5,42,127,521966004
6,9,Ticks_ISO_T2_8,59,1,48,46,522692852
6,9,Ticks_ISO_T2_8,60,5,42,127,522765588
6,9,Ticks_ISO_T2_8,61,1,48,44,523514204
6,9,Ticks_ISO_T2_8,62,5,42,127,523565472
6,9,Ticks_ISO_T2_8,63,1,48,41,524296512
6,9,Ticks_ISO_T2_8,64,5,42,127,524366176
6,9,Ticks_ISO_T2_8,65,1,48,45,525157128
6,9,Ticks_ISO_T2_8,66,5,42,127,525165912
6,9,Ticks_ISO_T2_8,67,1,48,43,525938012
6,9,Ticks_ISO_T2_8,68,5,42,127,525965792
6,9,Ticks_ISO_T2_8,69,1,48,42,526730936
6,9,Ticks_ISO_T2_8,70,5,42,127,526765300
6,9,Ticks_ISO_T2_8,71,1,48,44,527558972
6,9,Ticks_ISO_T2_8,72,5,42,127,527566108
6,9,Ticks_ISO_T2_8,73,1,48,47,528362964
6,9,Ticks_ISO_T2_8,74,5,42,127,528366136
6,9,Ticks_ISO_T2_8,75,1,48,39,529138020
6,9,Ticks_ISO_T2_8,76,5,42,127,529165796
6,9,Ticks_ISO_T2_8,77,5,42,127,529965464
6,9,Ticks_ISO_T2_8,78,1,48,40,530004632
6,9,Ticks_ISO_T2_8,79,1,48,48,530722448
6,9,Ticks_ISO_T2_8,80,5,42,127,530766236
6,9,Ticks_ISO_T2_8,81,5,42,127,531565976
6,9,Ticks_ISO_T2_8,82,1,48,46,531567020
6,9,Ticks_ISO_T2_8,83,1,48,48,532318848
6,9,Ticks_ISO_T2_8,84,5,42,127,532365700
6,9,Ticks_ISO_T2_8,85,1,48,46,533128152
6,9,Ticks_ISO_T2_8,86,5,42,127,533165360
6,9,Ticks_ISO_T2_8,87,1,48,51,533882856
6,9,Ticks_ISO_T2_8,88,5,42,127,533966240
6,9,Ticks_ISO_T2_8,89,1,48,46,534693212
6,9,Ticks_ISO_T2_8,90,5,42,127,534766048
6,9,Ticks_ISO_T2_8,91,5,42,127,535565936
6,9,Ticks_ISO_T2_8,92,1,48,42,535592840
6,9,Ticks_ISO_T2_8,93,5,42,127,536365596
6,9,Ticks_ISO_T2_8,94,1,48,43,536386068
6,9,Ticks_ISO_T2_8,95,1,48,48,537132976
6,9,Ticks_ISO_T2_8,96,5,42,127,537166220
6,9,Ticks_ISO_T2_8,97,5,42,127,537965888
6,9,Ticks_ISO_T2_8,98,1,48,38,537971176
6,9,Ticks_ISO_T2_8,99,1,48,47,538754360
6,9,Ticks_ISO_T2_8,100,5,42,127,538765836
6,9,Ticks_ISO_T2_8,101,5,42,127,539565504
6,9,Ticks_ISO_T2_8,102,1,48,36,539579920
6,9,Ticks_ISO_T2_8,103,1,48,43,540313188
6,9,Ticks_ISO_T2_8,104,5,42,127,540366128
6,9,Ticks_ISO_T2_8,105,1,48,41,541157976
6,9,Ticks_ISO_T2_8,106,5,42,127,541165860
6,9,Ticks_ISO_T2_8,107,1,48,51,541937660
6,9,Ticks_ISO_T2_8,108,5,42,127,541965816
6,9,Ticks_ISO_T2_8,109,1,48,43,542755196
6,9,Ticks_ISO_T2_8,110,5,42,127,542765700
6,9,Ticks_ISO_T2_8,111,1,48,37,543514464
6,9,Ticks_ISO_T2_8,112,5,42,127,543566256
6,9,Ticks_ISO_T2_8,113,1,48,44,544360724
6,9,Ticks_ISO_T2_8,114,5,42,127,544366064
6,9,Ticks_ISO_T2_8,115,1,48,50,545106748
6,9,Ticks_ISO_T2_8,116,5,42,127,545165724
6,9,Ticks_ISO_T2_8,117,1,48,51,545912540
6,9,Ticks_ISO_T2_8,118,5,42,127,545965628
6,9,Ticks_ISO_T2_8,119,1,48,54,546695596
6,9,Ticks_ISO_T2_8,120,5,42,127,546766036
6,9,Ticks_ISO_T2_8,121,1,48,49,547518316
6,9,Ticks_ISO_T2_8,122,5,42,127,547565920
6,9,Ticks_ISO_T2_8,123,1,48,49,548280200
6,9,Ticks_ISO_T2_8,124,5,42,127,548365652
6,9,Ticks_ISO_T2_8,125,1,48,49,549087792
6,9,Ticks_ISO_T2_8,126,5,42,127,549165612
6,9,Ticks_ISO_T2_8,127,1,48,47,549929932
6,9,Ticks_ISO_T2_8,128,5,42,127,549966240
6,9,Ticks_ISO_T2_8,129,1,48,47,550735952
6,9,Ticks_ISO_T2_8,130,5,42,127,550765976
6,9,Ticks_ISO_T2_8,131,1,48,45,551554532
6,9,Ticks_ISO_T2_8,132,5,42,127,551565636
6,9,Ticks_ISO_T2_8,133,5,42,127,552365400
6,9,Ticks_ISO_T2_8,134,1,48,47,552403372
6,9,Ticks_ISO_T2_8,135,5,42,127,553166400
6,9,Ticks_ISO_T2_8,136,1,48,46,553173712
6,9,Ticks_ISO_T2_8,137,1,48,45,553952784
6,9,Ticks_ISO_T2_8,138,5,42,127,553965832
6,9,Ticks_ISO_T2_8,139,1,48,47,554723268
6,9,Ticks_ISO_T2_8,140,5,42,127,554765564
6,9,Ticks_ISO_T2_8,141,1,48,47,555540428
6,9,Ticks_ISO_T2_8,142,5,42,127,555565372
6,9,Ticks_ISO_T2_8,143,1,48,48,556346676
6,9,Ticks_ISO_T2_8,144,5,42,127,556366152
6,9,Ticks_ISO_T2_8,145,1,48,48,557141320
6,9,Ticks_ISO_T2_8,146,5,42,127,557165960
6,9,Ticks_ISO_T2_8,147,1,48,45,557960724
6,9,Ticks_ISO_T2_8,148,5,42,127,557965544
6,9,Ticks_ISO_T2_8,149,5,42,127,558765460
6,9,Ticks_ISO_T2_8,150,1,48,46,558785036
6,9,Ticks_ISO_T2_8,151,5,42,127,559566388
6,9,Ticks_ISO_T2_8,152,1,48,49,559571008
6,9,Ticks_ISO_T2_8,153,5,42,127,560365896
6,9,Ticks_ISO_T2_8,154,1,48,44,560385844
6,9,Ticks_ISO_T2_8,155,1,48,45,561155196
6,9,Ticks_ISO_T2_8,156,5,42,127,561165552
6,9,Ticks_ISO_T2_8,157,5,42,127,561965288
6,9,Ticks_ISO_T2_8,158,1,48,43,561977392
6,9,Ticks_ISO_T2_8,159,5,42,127,562766296
6,9,Ticks_ISO_T2_8,160,1,48,47,562816540
6,9,Ticks_ISO_T2_8,161,5,42,127,563566028
6,9,Ticks_ISO_T2_8,162,1,48,44,563604604
6,9,Ticks_ISO_T2_8,163,5,42,127,564365612
6,9,Ticks_ISO_T2_8,164,1,48,43,564391244
6,9,Ticks_ISO_T2_8,165,5,42,127,565165368
6,9,Ticks_ISO_T2_8,166,1,48,49,565169084
6,9,Ticks_ISO_T2_8,167,1,48,49,565947636
6,9,Ticks_ISO_T2_8,168,5,42,127,565966140
6,9,Ticks_ISO_T2_8,169,1,48,45,566735620
6,9,Ticks_ISO_T2_8,170,5,42,127,566766172
6,9,Ticks_ISO_T2_8,171,1,48,47,567502072
6,9,Ticks_ISO_T2_8,172,5,42,127,567565608
6,9,Ticks_ISO_T2_8,173,1,48,43,568296872
6,9,Ticks_ISO_T2_8,174,5,42,127,568365488
6,9,Ticks_ISO_T2_8,175,1,48,46,569099144
6,9,Ticks_ISO_T2_8,176,5,42,127,569166196
6,9,Ticks_ISO_T2_8,177,1,48,43,569925056
6,9,Ticks_ISO_T2_8,178,5,42,127,569966076
6,9,Ticks_ISO_T2_8,179,1,48,53,570743340
6,9,Ticks_ISO_T2_8,180,5,42,127,570765660
6,9,Ticks_ISO_T2_8,181,1,48,47,571552420
6,9,Ticks_ISO_T2_8,182,5,42,127,571565420
6,9,Ticks_ISO_T2_8,183,1,48,48,572362876
6,9,Ticks_ISO_T2_8,184,5,42,127,572366124
6,9,Ticks_ISO_T2_8,185,5,42,127,573166012
6,9,Ticks_ISO_T2_8,186,1,48,46,573190752
6,9,Ticks_ISO_T2_8,187,5,42,127,573965896
6,9,Ticks_ISO_T2_8,188,1,48,50,573980984
6,9,Ticks_ISO_T2_8,189,5,42,127,574765404
6,9,Ticks_ISO_T2_8,190,1,48,49,574781912
6,9,Ticks_ISO_T2_8,191,1,48,40,575545432
6,9,Ticks_ISO_T2_8,192,5,42,127,575566256
6,9,Ticks_ISO_T2_8,193,1,48,50,576324292
6,9,Ticks_ISO_T2_8,194,5,42,127,576365912
6,9,Ticks_ISO_T2_8,195,1,48,53,577127472
6,9,Ticks_ISO_T2_8,196,5,42,127,577165868
6,9,Ticks_ISO_T2_8,197,1,48,55,577914780
6,9,Ticks_ISO_T2_8,198,5,42,127,577965332
6,9,Ticks_ISO_T2_8,199,1,48,60,578673756
6,9,Ticks_ISO_T2_8,200,5,42,127,578766112
6,9,Ticks_ISO_T2_8,201,1,48,47,579474308
6,9,Ticks_ISO_T2_8,202,5,42,127,579565980
6,9,Ticks_ISO_T2_8,203,1,48,46,580334056
6,9,Ticks_ISO_T2_8,204,5,42,127,580365728
6,9,Ticks_ISO_T2_8,205,1,48,50,581134468
6,9,Ticks_ISO_T2_8,206,5,42,127,581165388
6,9,Ticks_ISO_T2_8,207,1,48,50,581959180
6,9,Ticks_ISO_T2_8,208,5,42,127,581966168
6,9,Ticks_ISO_T2_8,209,1,48,50,582758916
6,9,Ticks_ISO_T2_8,210,5,42,127,582765828
6,9,Ticks_ISO_T2_8,211,1,48,46,583497988
6,9,Ticks_ISO_T2_8,212,5,42,127,583565784
6,9,Ticks_ISO_T2_8,213,1,48,52,584321804
6,9,Ticks_ISO_T2_8,214,5,42,127,584365620
6,9,Ticks_ISO_T2_8,215,1,48,51,585059308
6,9,Ticks_ISO_T2_8,216,5,42,127,585166088
6,9,Ticks_ISO_T2_8,217,1,48,44,585885440
6,9,Ticks_ISO_T2_8,218,5,42,127,585966056
6,9,Ticks_ISO_T2_8,219,1,48,44,586735988
6,9,Ticks_ISO_T2_8,220,5,42,127,586765568
6,9,Ticks_ISO_T2_8,221,1,48,43,587540432
6,9,Ticks_ISO_T2_8,222,5,42,127,587565600
6,9,Ticks_ISO_T2_8,223,1,48,49,588314812
6,9,Ticks_ISO_T2_8,224,5,42,127,588366080
6,9,Ticks_ISO_T2_8,225,1,48,42,589161296
6,9,Ticks_ISO_T2_8,226,5,42,127,589165964
6,9,Ticks_ISO_T2_8,227,5,42,127,589965704
6,9,Ticks_ISO_T2_8,228,1,48,44,589991784
6,9,Ticks_ISO_T2_8,229,5,42,127,590765464
6,9,Ticks_ISO_T2_8,230,1,48,43,590798280
6,9,Ticks_ISO_T2_8,231,5,42,127,591566392
6,9,Ticks_ISO_T2_8,232,1,48,45,591613864
6,9,Ticks_ISO_T2_8,233,5,42,127,592365828
6,9,Ticks_ISO_T2_8,234,1,48,43,592459904
6,9,Ticks_ISO_T2_8,235,1,48,43,593165784
6,9,Ticks_ISO_T2_8,236,5,42,127,593166976
6,9,Ticks_ISO_T2_8,237,5,42,127,593965516
6,9,Ticks_ISO_T2_8,238,1,48,40,594048004
6,9,Ticks_ISO_T2_8,239,1,48,43,594742328
6,9,Ticks_ISO_T2_8,0,9999,9999,9999,9999,498763884
6,9,Ticks_ISO_T2_8,1,9999,9999,9999,9999,499563568
6,9,Ticks_ISO_T2_8,2,9999,9999,9999,9999,500363376
6,9,Ticks_ISO_T2_8,3,9999,9999,9999,9999,501163100
6,9,Ticks_ISO_T2_8,4,9999,9999,9999,9999,501963892
6,9,Ticks_ISO_T2_8,5,9999,9999,9999,9999,502763640
6,9,Ticks_ISO_T2_8,6,9999,9999,9999,9999,503563372
6,9,Ticks_ISO_T2_8,7,9999,9999,9999,9999,504363108
6,9,Ticks_ISO_T2_8,8,9999,9999,9999,9999,505163892
6,9,Ticks_ISO_T2_8,9,9999,9999,9999,9999,505963624
6,9,Ticks_ISO_T2_8,10,9999,9999,9999,9999,506763352
6,9,Ticks_ISO_T2_8,11,9999,9999,9999,9999,507563092
6,9,Ticks_ISO_T2_8,12,9999,9999,9999,9999,508363864
6,9,Ticks_ISO_T2_8,13,9999,9999,9999,9999,509163600
6,9,Ticks_ISO_T2_8,14,9999,9999,9999,9999,509963332
6,9,Ticks_ISO_T2_8,15,9999,9999,9999,9999,510763072
6,9,Ticks_ISO_T2_8,16,9999,9999,9999,9999,511563848
6,9,Ticks_ISO_T2_8,17,9999,9999,9999,9999,512363580
6,9,Ticks_ISO_T2_8,18,9999,9999,9999,9999,513163312
6,9,Ticks_ISO_T2_8,19,9999,9999,9999,9999,513963124
6,9,Ticks_ISO_T2_8,20,9999,9999,9999,9999,514763856
6,9,Ticks_ISO_T2_8,21,9999,9999,9999,9999,515563592
6,9,Ticks_ISO_T2_8,22,9999,9999,9999,9999,516363316
6,9,Ticks_ISO_T2_8,23,9999,9999,9999,9999,517163124
6,9,Ticks_ISO_T2_8,24,9999,9999,9999,9999,517963852
6,9,Ticks_ISO_T2_8,25,9999,9999,9999,9999,518763572
6,9,Ticks_ISO_T2_8,26,9999,9999,9999,9999,519563380
6,9,Ticks_ISO_T2_8,27,9999,9999,9999,9999,520363104
6,9,Ticks_ISO_T2_8,28,9999,9999,9999,9999,521163836
6,9,Ticks_ISO_T2_8,29,9999,9999,9999,9999,521963568
6,9,Ticks_ISO_T2_8,30,9999,9999,9999,9999,522763376
6,9,Ticks_ISO_T2_8,31,9999,9999,9999,9999,523563108
6,9,Ticks_ISO_T2_8,32,9999,9999,9999,9999,524363888
6,9,Ticks_ISO_T2_8,33,9999,9999,9999,9999,525163624
6,9,Ticks_ISO_T2_8,34,9999,9999,9999,9999,525963356
6,9,Ticks_ISO_T2_8,35,9999,9999,9999,9999,526763088
6,9,Ticks_ISO_T2_8,36,9999,9999,9999,9999,527563892
6,9,Ticks_ISO_T2_8,37,9999,9999,9999,9999,528363624
6,9,Ticks_ISO_T2_8,38,9999,9999,9999,9999,529163360
6,9,Ticks_ISO_T2_8,39,9999,9999,9999,9999,529963100
6,9,Ticks_ISO_T2_8,40,9999,9999,9999,9999,530763872
6,9,Ticks_ISO_T2_8,41,9999,9999,9999,9999,531563612
6,9,Ticks_ISO_T2_8,42,9999,9999,9999,9999,532363340
6,9,Ticks_ISO_T2_8,43,9999,9999,9999,9999,533163072
6,9,Ticks_ISO_T2_8,44,9999,9999,9999,9999,533963876
6,9,Ticks_ISO_T2_8,45,9999,9999,9999,9999,534763612
6,9,Ticks_ISO_T2_8,46,9999,9999,9999,9999,535563352
6,9,Ticks_ISO_T2_8,47,9999,9999,9999,9999,536363084
6,9,Ticks_ISO_T2_8,48,9999,9999,9999,9999,537163860
6,9,Ticks_ISO_T2_8,49,9999,9999,9999,9999,537963600
6,9,Ticks_ISO_T2_8,50,9999,9999,9999,9999,538763324
6,9,Ticks_ISO_T2_8,51,9999,9999,9999,9999,539563068
6,9,Ticks_ISO_T2_8,52,9999,9999,9999,9999,540363840
6,9,Ticks_ISO_T2_8,53,9999,9999,9999,9999,541163572
6,9,Ticks_ISO_T2_8,54,9999,9999,9999,9999,541963380
6,9,Ticks_ISO_T2_8,55,9999,9999,9999,9999,542763116
6,9,Ticks_ISO_T2_8,56,9999,9999,9999,9999,543563896
6,9,Ticks_ISO_T2_8,57,9999,9999,9999,9999,544363628
6,9,Ticks_ISO_T2_8,58,9999,9999,9999,9999,545163364
6,9,Ticks_ISO_T2_8,59,9999,9999,9999,9999,545963096
6,9,Ticks_ISO_T2_8,60,9999,9999,9999,9999,546763824
6,9,Ticks_ISO_T2_8,61,9999,9999,9999,9999,547563632
6,9,Ticks_ISO_T2_8,62,9999,9999,9999,9999,548363364
6,9,Ticks_ISO_T2_8,63,9999,9999,9999,9999,549163100
6,9,Ticks_ISO_T2_8,64,9999,9999,9999,9999,549963880
6,9,Ticks_ISO_T2_8,65,9999,9999,9999,9999,550763612
6,9,Ticks_ISO_T2_8,66,9999,9999,9999,9999,551563348
6,9,Ticks_ISO_T2_8,67,9999,9999,9999,9999,552363084
6,9,Ticks_ISO_T2_8,68,9999,9999,9999,9999,553163892
6,9,Ticks_ISO_T2_8,69,9999,9999,9999,9999,553963616
6,9,Ticks_ISO_T2_8,70,9999,9999,9999,9999,554763352
6,9,Ticks_ISO_T2_8,71,9999,9999,9999,9999,555563084
6,9,Ticks_ISO_T2_8,72,9999,9999,9999,9999,556363864
6,9,Ticks_ISO_T2_8,73,9999,9999,9999,9999,557163600
6,9,Ticks_ISO_T2_8,74,9999,9999,9999,9999,557963332
6,9,Ticks_ISO_T2_8,75,9999,9999,9999,9999,558763072
6,9,Ticks_ISO_T2_8,76,9999,9999,9999,9999,559563876
6,9,Ticks_ISO_T2_8,77,9999,9999,9999,9999,560363608
6,9,Ticks_ISO_T2_8,78,9999,9999,9999,9999,561163336
6,9,Ticks_ISO_T2_8,79,9999,9999,9999,9999,561963076
6,9,Ticks_ISO_T2_8,80,9999,9999,9999,9999,562763856
6,9,Ticks_ISO_T2_8,81,9999,9999,9999,9999,563563592
6,9,Ticks_ISO_T2_8,82,9999,9999,9999,9999,564363324
6,9,Ticks_ISO_T2_8,83,9999,9999,9999,9999,565163056
6,9,Ticks_ISO_T2_8,84,9999,9999,9999,9999,565963852
6,9,Ticks_ISO_T2_8,85,9999,9999,9999,9999,566763588
6,9,Ticks_ISO_T2_8,86,9999,9999,9999,9999,567563320
6,9,Ticks_ISO_T2_8,87,9999,9999,9999,9999,568363128
6,9,Ticks_ISO_T2_8,88,9999,9999,9999,9999,569163832
6,9,Ticks_ISO_T2_8,89,9999,9999,9999,9999,569963564
6,9,Ticks_ISO_T2_8,90,9999,9999,9999,9999,570763372
6,9,Ticks_ISO_T2_8,91,9999,9999,9999,9999,571563108
6,9,Ticks_ISO_T2_8,92,9999,9999,9999,9999,572363836
6,9,Ticks_ISO_T2_8,93,9999,9999,9999,9999,573163576
6,9,Ticks_ISO_T2_8,94,9999,9999,9999,9999,573963384
6,9,Ticks_ISO_T2_8,95,9999,9999,9999,9999,574763116
6,9,Ticks_ISO_T2_8,96,9999,9999,9999,9999,575563892
6,9,Ticks_ISO_T2_8,97,9999,9999,9999,9999,576363624
6,9,Ticks_ISO_T2_8,98,9999,9999,9999,9999,577163360
6,9,Ticks_ISO_T2_8,99,9999,9999,9999,9999,577963116
6,9,Ticks_ISO_T2_8,100,9999,9999,9999,9999,578763824
6,9,Ticks_ISO_T2_8,101,9999,9999,9999,9999,579563636
6,9,Ticks_ISO_T2_8,102,9999,9999,9999,9999,580363368
6,9,Ticks_ISO_T2_8,103,9999,9999,9999,9999,581163100
6,9,Ticks_ISO_T2_8,104,9999,9999,9999,9999,581963880
6,9,Ticks_ISO_T2_8,105,9999,9999,9999,9999,582763612
6,9,Ticks_ISO_T2_8,106,9999,9999,9999,9999,583563348
6,9,Ticks_ISO_T2_8,107,9999,9999,9999,9999,584363108
6,9,Ticks_ISO_T2_8,108,9999,9999,9999,9999,585163872
6,9,Ticks_ISO_T2_8,109,9999,9999,9999,9999,585963620
6,9,Ticks_ISO_T2_8,110,9999,9999,9999,9999,586763356
6,9,Ticks_ISO_T2_8,111,9999,9999,9999,9999,587563088
6,9,Ticks_ISO_T2_8,112,9999,9999,9999,9999,588363868
6,9,Ticks_ISO_T2_8,113,9999,9999,9999,9999,589163604
6,9,Ticks_ISO_T2_8,114,9999,9999,9999,9999,589963340
6,9,Ticks_ISO_T2_8,115,9999,9999,9999,9999,590763100
6,9,Ticks_ISO_T2_8,116,9999,9999,9999,9999,591563880
6,9,Ticks_ISO_T2_8,117,9999,9999,9999,9999,592363612
6,9,Ticks_ISO_T2_8,118,9999,9999,9999,9999,593163348
6,9,Ticks_ISO_T2_8,119,9999,9999,9999,9999,593963080
7,23,Ticks_Phase_5,0,5,42,127,609928628
7,23,Ticks_Phase_5,1,5,42,127,610429236
7,23,Ticks_Phase_5,2,1,48,50,610891844
7,23,Ticks_Phase_5,3,5,42,127,610929164
7,23,Ticks_Phase_5,4,1,48,51,611369068
7,23,Ticks_Phase_5,5,5,42,127,611429000
7,23,Ticks_Phase_5,6,1,48,45,611884620
7,23,Ticks_Phase_5,7,5,42,127,611928392
7,23,Ticks_Phase_5,8,1,48,41,612384008
7,23,Ticks_Phase_5,9,5,42,127,612429276
7,23,Ticks_Phase_5,10,1,48,42,612902792
7,23,Ticks_Phase_5,11,5,42,127,612929108
7,23,Ticks_Phase_5,12,1,48,38,613413712
7,23,Ticks_Phase_5,13,5,42,127,613428576
7,23,Ticks_Phase_5,14,1,48,35,613914900
7,23,Ticks_Phase_5,15,5,42,127,613929388
7,23,Ticks_Phase_5,16,1,48,40,614415412
7,23,Ticks_Phase_5,17,5,42,127,614428928
7,23,Ticks_Phase_5,18,1,48,36,614887028
7,23,Ticks_Phase_5,19,5,42,127,614928692
7,23,Ticks_Phase_5,20,1,48,46,615369864
7,23,Ticks_Phase_5,21,5,42,127,615428380
7,23,Ticks_Phase_5,22,1,48,42,615862288
7,23,Ticks_Phase_5,23,5,42,127,615929188
7,23,Ticks_Phase_5,24,1,48,37,616360004
7,23,Ticks_Phase_5,25,5,42,127,616428952
7,23,Ticks_Phase_5,26,1,48,36,616861332
7,23,Ticks_Phase_5,27,5,42,127,616928788
7,23,Ticks_Phase_5,28,1,48,36,617377652
7,23,Ticks_Phase_5,29,5,42,127,617429300
7,23,Ticks_Phase_5,30,1,48,34,617872988
7,23,Ticks_Phase_5,31,5,42,127,617929212
7,23,Ticks_Phase_5,32,1,48,41,618374248
7,23,Ticks_Phase_5,33,5,42,127,618428900
7,23,Ticks_Phase_5,34,1,48,36,618882848
7,23,Ticks_Phase_5,35,5,42,127,618928440
7,23,Ticks_Phase_5,36,1,48,42,619383580
7,23,Ticks_Phase_5,37,5,42,127,619429372
7,23,Ticks_Phase_5,38,1,48,44,619891960
7,23,Ticks_Phase_5,39,5,42,127,619929060
7,23,Ticks_Phase_5,40,1,48,42,620390900
7,23,Ticks_Phase_5,41,5,42,127,620428824
7,23,Ticks_Phase_5,42,1,48,41,620915968
7,23,Ticks_Phase_5,43,5,42,127,620929408
7,23,Ticks_Phase_5,44,1,48,42,621427056
7,23,Ticks_Phase_5,45,5,42,127,621429024
7,23,Ticks_Phase_5,46,1,48,43,621909364
7,23,Ticks_Phase_5,47,5,42,127,621928788
7,23,Ticks_Phase_5,48,1,48,42,622409948
7,23,Ticks_Phase_5,49,5,42,127,622428624
7,23,Ticks_Phase_5,50,1,48,40,622925652
7,23,Ticks_Phase_5,51,5,42,127,622929284
7,23,Ticks_Phase_5,52,5,42,127,623428980
7,23,Ticks_Phase_5,53,1,48,41,623439588
7,23,Ticks_Phase_5,54,5,42,127,623928816
7,23,Ticks_Phase_5,55,1,48,43,623937708
7,23,Ticks_Phase_5,56,5,42,127,624429700
7,23,Ticks_Phase_5,57,1,48,39,624453936
7,23,Ticks_Phase_5,58,1,48,38,624922236
7,23,Ticks_Phase_5,59,5,42,127,624929232
7,23,Ticks_Phase_5,60,1,48,41,625396308
7,23,Ticks_Phase_5,61,5,42,127,625428996
7,23,Ticks_Phase_5,62,5,42,127,625928616
7,23,Ticks_Phase_5,63,1,48,37,625948436
7,23,Ticks_Phase_5,64,5,42,127,626429276
7,23,Ticks_Phase_5,65,1,48,41,626473284
7,23,Ticks_Phase_5,66,5,42,127,626929116
7,23,Ticks_Phase_5,67,1,48,42,626936496
7,23,Ticks_Phase_5,68,5,42,127,627428656
7,23,Ticks_Phase_5,69,1,48,36,627478660
7,23,Ticks_Phase_5,70,5,42,127,627928492
7,23,Ticks_Phase_5,71,1,48,47,627957452
7,23,Ticks_Phase_5,72,5,42,127,628429228
7,23,Ticks_Phase_5,73,1,48,44,628440140
7,23,Ticks_Phase_5,74,5,42,127,628928768
7,23,Ticks_Phase_5,75,1,48,43,628942292
7,23,Ticks_Phase_5,76,1,48,40,629426484
7,23,Ticks_Phase_5,77,5,42,127,629428600
7,23,Ticks_Phase_5,78,5,42,127,629929712
7,23,Ticks_Phase_5,79,1,48,30,629942644
7,23,Ticks_Phase_5,80,5,42,127,630429080
7,23,Ticks_Phase_5,81,1,48,40,630442408
7,23,Ticks_Phase_5,82,1,48,41,630923412
7,23,Ticks_Phase_5,83,5,42,127,630928688
7,23,Ticks_Phase_5,84,1,48,39,631394936
7,23,Ticks_Phase_5,85,5,42,127,631428596
7,23,Ticks_Phase_5,86,1,48,46,631904136
7,23,Ticks_Phase_5,87,5,42,127,631929556
7,23,Ticks_Phase_5,88,1,48,48,632412220
7,23,Ticks_Phase_5,89,5,42,127,632428876
7,23,Ticks_Phase_5,90,1,48,47,632899400
7,23,Ticks_Phase_5,91,5,42,127,632928488
7,23,Ticks_Phase_5,92,1,48,44,633403200
7,23,Ticks_Phase_5,93,5,42,127,633429520
7,23,Ticks_Phase_5,94,5,42,127,633939476
7,23,Ticks_Phase_5,95,1,48,47,633945956
7,23,Ticks_Phase_5,96,5,42,127,634438940
7,23,Ticks_Phase_5,97,1,48,42,634449624
7,23,Ticks_Phase_5,98,5,42,127,634938628
7,23,Ticks_Phase_5,99,1,48,40,634942124
7,23,Ticks_Phase_5,100,5,42,127,635438544
7,23,Ticks_Phase_5,101,1,48,43,635442856
7,23,Ticks_Phase_5,102,5,42,127,635939204
7,23,Ticks_Phase_5,103,1,48,40,635983508
7,23,Ticks_Phase_5,104,5,42,127,636438968
7,23,Ticks_Phase_5,105,1,48,52,636456904
7,23,Ticks_Phase_5,106,1,48,51,636936612
7,23,Ticks_Phase_5,107,5,42,127,636938576
7,23,Ticks_Phase_5,108,1,48,50,637435456
7,23,Ticks_Phase_5,109,5,42,127,637439536
7,23,Ticks_Phase_5,110,5,42,127,637939156
7,23,Ticks_Phase_5,111,1,48,48,637957032
7,23,Ticks_Phase_5,112,5,42,127,638438620
7,23,Ticks_Phase_5,113,1,48,47,638452444
7,23,Ticks_Phase_5,114,5,42,127,638938460
7,23,Ticks_Phase_5,115,1,48,45,638951688
7,23,Ticks_Phase_5,116,1,48,48,639426192
7,23,Ticks_Phase_5,117,5,42,127,639439484
7,23,Ticks_Phase_5,118,1,48,48,639934572
7,23,Ticks_Phase_5,119,5,42,127,639938800
7,23,Ticks_Phase_5,120,1,48,48,640415064
7,23,Ticks_Phase_5,121,5,42,127,640438640
7,23,Ticks_Phase_5,122,1,48,47,640878440
7,23,Ticks_Phase_5,123,5,42,127,640939524
7,23,Ticks_Phase_5,124,1,48,46,641395488
7,23,Ticks_Phase_5,125,5,42,127,641439336
7,23,Ticks_Phase_5,126,1,48,47,641900732
7,23,Ticks_Phase_5,127,5,42,127,641959396
7,23,Ticks_Phase_5,128,1,48,45,642408108
7,23,Ticks_Phase_5,129,5,42,127,642459132
7,23,Ticks_Phase_5,130,1,48,45,642924564
7,23,Ticks_Phase_5,131,5,42,127,642958820
7,23,Ticks_Phase_5,132,1,48,43,643442152
7,23,Ticks_Phase_5,133,5,42,127,643458360
7,23,Ticks_Phase_5,134,1,48,46,643932180
7,23,Ticks_Phase_5,135,5,42,127,643959320
7,23,Ticks_Phase_5,136,1,48,46,644452908
7,23,Ticks_Phase_5,137,5,42,127,644458784
7,23,Ticks_Phase_5,138,5,42,127,644958628
7,23,Ticks_Phase_5,139,1,48,46,644971404
7,23,Ticks_Phase_5,140,1,48,46,645452508
7,23,Ticks_Phase_5,141,5,42,127,645459356
7,23,Ticks_Phase_5,142,1,48,43,645950480
7,23,Ticks_Phase_5,143,5,42,127,645959268
7,23,Ticks_Phase_5,144,1,48,45,646458212
7,23,Ticks_Phase_5,145,5,42,127,646459780
7,23,Ticks_Phase_5,146,5,42,127,646958356
7,23,Ticks_Phase_5,147,1,48,38,646983712
7,23,Ticks_Phase_5,148,5,42,127,647459312
7,23,Ticks_Phase_5,149,1,48,38,647468132
7,23,Ticks_Phase_5,150,5,42,127,647959000
7,23,Ticks_Phase_5,151,1,48,40,647991624
7,23,Ticks_Phase_5,152,1,48,40,648451092
7,23,Ticks_Phase_5,153,5,42,127,648458608
7,23,Ticks_Phase_5,154,1,48,40,648947336
7,23,Ticks_Phase_5,155,5,42,127,648959416
7,23,Ticks_Phase_5,156,5,42,127,649459260
7,23,Ticks_Phase_5,157,1,48,37,649483944
7,23,Ticks_Phase_5,158,1,48,42,649941684
7,23,Ticks_Phase_5,159,5,42,127,649958868
7,23,Ticks_Phase_5,160,1,48,43,650429244
7,23,Ticks_Phase_5,161,5,42,127,650439012
7,23,Ticks_Phase_5,162,5,42,127,650938632
7,23,Ticks_Phase_5,163,1,48,45,650955076
7,23,Ticks_Phase_5,164,5,42,127,651438472
7,23,Ticks_Phase_5,165,1,48,47,651446392
7,23,Ticks_Phase_5,166,5,42,127,651939180
7,23,Ticks_Phase_5,167,1,48,47,651962168
7,23,Ticks_Phase_5,168,5,42,127,652438944
7,23,Ticks_Phase_5,169,1,48,45,652441460
7,23,Ticks_Phase_5,170,1,48,45,652932896
7,23,Ticks_Phase_5,171,5,42,127,652938624
7,23,Ticks_Phase_5,172,1,48,48,653414988
7,23,Ticks_Phase_5,173,5,42,127,653439360
7,23,Ticks_Phase_5,174,5,42,127,653939128
7,23,Ticks_Phase_5,175,1,48,47,653954600
7,23,Ticks_Phase_5,176,5,42,127,654438968
7,23,Ticks_Phase_5,177,1,48,48,654468232
7,23,Ticks_Phase_5,178,5,42,127,654938436
7,23,Ticks_Phase_5,179,1,48,48,654959376
7,23,Ticks_Phase_5,180,1,48,49,655415908
7,23,Ticks_Phase_5,181,5,42,127,655439164
7,23,Ticks_Phase_5,182,5,42,127,655938932
7,23,Ticks_Phase_5,183,1,48,46,655942420
7,23,Ticks_Phase_5,184,1,48,46,656431468
7,23,Ticks_Phase_5,185,5,42,127,656438764
7,23,Ticks_Phase_5,186,1,48,40,656934444
7,23,Ticks_Phase_5,187,5,42,127,656939276
7,23,Ticks_Phase_5,188,1,48,42,657432864
7,23,Ticks_Phase_5,189,5,42,127,657439112
7,23,Ticks_Phase_5,190,5,42,127,657938808
7,23,Ticks_Phase_5,191,1,48,38,657961024
7,23,Ticks_Phase_5,192,5,42,127,658389444
7,23,Ticks_Phase_5,193,1,48,44,658414800
7,23,Ticks_Phase_5,194,1,48,43,658865352
7,23,Ticks_Phase_5,195,5,42,127,658889052
7,23,Ticks_Phase_5,196,1,48,48,659364784
7,23,Ticks_Phase_5,197,5,42,127,659388960
7,23,Ticks_Phase_5,198,1,48,48,659849956
7,23,Ticks_Phase_5,199,5,42,127,659888428
7,23,Ticks_Phase_5,200,1,48,46,660334884
7,23,Ticks_Phase_5,201,5,42,127,660389288
7,23,Ticks_Phase_5,202,1,48,45,660840344
7,23,Ticks_Phase_5,203,5,42,127,660888900
7,23,Ticks_Phase_5,204,1,48,36,661365940
7,23,Ticks_Phase_5,205,5,42,127,661388592
7,23,Ticks_Phase_5,206,1,48,37,661854988
7,23,Ticks_Phase_5,207,5,42,127,661889324
7,23,Ticks_Phase_5,208,1,48,44,662341056
7,23,Ticks_Phase_5,209,5,42,127,662389088
7,23,Ticks_Phase_5,210,1,48,53,662841940
7,23,Ticks_Phase_5,211,1,48,37,662884076
7,23,Ticks_Phase_5,212,5,42,127,662888828
7,23,Ticks_Phase_5,213,1,48,48,663331792
7,23,Ticks_Phase_5,214,5,42,127,663388520
7,23,Ticks_Phase_5,215,1,48,56,663858148
7,23,Ticks_Phase_5,216,5,42,127,663889180
7,23,Ticks_Phase_5,217,1,48,51,664363596
7,23,Ticks_Phase_5,218,5,42,127,664388868
7,23,Ticks_Phase_5,219,1,48,49,664870776
7,23,Ticks_Phase_5,220,5,42,127,664888780
7,23,Ticks_Phase_5,221,1,48,48,665383196
7,23,Ticks_Phase_5,222,5,42,127,665389368
7,23,Ticks_Phase_5,223,5,42,127,665899320
7,23,Ticks_Phase_5,224,1,48,50,665910080
7,23,Ticks_Phase_5,225,5,42,127,666399160
7,23,Ticks_Phase_5,226,1,48,46,666427220
7,23,Ticks_Phase_5,227,1,48,45,666905020
7,23,Ticks_Phase_5,228,5,42,127,666948940
7,23,Ticks_Phase_5,229,1,48,48,667429876
7,23,Ticks_Phase_5,230,5,42,127,667448704
7,23,Ticks_Phase_5,231,5,42,127,667949744
7,23,Ticks_Phase_5,232,1,48,46,667972712
7,23,Ticks_Phase_5,233,5,42,127,668459444
7,23,Ticks_Phase_5,234,1,48,40,668473116
7,23,Ticks_Phase_5,235,5,42,127,668959056
7,23,Ticks_Phase_5,236,1,48,46,668985384
7,23,Ticks_Phase_5,237,5,42,127,669458672
7,23,Ticks_Phase_5,238,1,48,44,669459636
7,23,Ticks_Phase_5,239,5,42,127,669958728
7,23,Ticks_Phase_5,240,1,48,48,669979600
7,23,Ticks_Phase_5,241,5,42,127,670459316
7,23,Ticks_Phase_5,242,1,48,46,670489468
7,23,Ticks_Phase_5,243,5,42,127,670958856
7,23,Ticks_Phase_5,244,1,48,46,670996264
7,23,Ticks_Phase_5,245,5,42,127,671458768
7,23,Ticks_Phase_5,246,1,48,45,671511016
7,23,Ticks_Phase_5,247,5,42,127,671959580
7,23,Ticks_Phase_5,248,1,48,50,671994224
7,23,Ticks_Phase_5,249,5,42,127,672459044
7,23,Ticks_Phase_5,250,1,48,47,672490024
7,23,Ticks_Phase_5,251,5,42,127,672958956
7,23,Ticks_Phase_5,252,1,48,44,673012024
7,23,Ticks_Phase_5,253,5,42,127,673458716
7,23,Ticks_Phase_5,254,1,48,45,673485272
7,23,Ticks_Phase_5,255,5,42,127,673959600
7,23,Ticks_Phase_5,256,1,48,46,674006168
7,23,Ticks_Phase_5,257,5,42,127,674458968
7,23,Ticks_Phase_5,258,1,48,39,674485020
7,23,Ticks_Phase_5,259,5,42,127,674958732
7,23,Ticks_Phase_5,260,1,48,48,675003732
7,23,Ticks_Phase_5,261,1,48,43,675476736
7,23,Ticks_Phase_5,262,5,42,127,675558712
7,23,Ticks_Phase_5,263,1,48,45,676019208
7,23,Ticks_Phase_5,264,5,42,127,676058700
7,23,Ticks_Phase_5,265,1,48,41,676531696
7,23,Ticks_Phase_5,266,5,42,127,676559136
7,23,Ticks_Phase_5,267,1,48,51,677052272
7,23,Ticks_Phase_5,268,5,42,127,677058896
7,23,Ticks_Phase_5,269,5,42,127,677558740
7,23,Ticks_Phase_5,270,1,48,48,677576452
7,23,Ticks_Phase_5,271,1,48,46,678049236
7,23,Ticks_Phase_5,272,5,42,127,678059544
7,23,Ticks_Phase_5,273,1,48,44,678522704
7,23,Ticks_Phase_5,274,5,42,127,678559056
7,23,Ticks_Phase_5,275,5,42,127,679058904
7,23,Ticks_Phase_5,276,1,48,43,679067420
7,23,Ticks_Phase_5,277,5,42,127,679558664
7,23,Ticks_Phase_5,278,1,48,43,679559556
7,23,Ticks_Phase_5,279,1,48,45,680056064
7,23,Ticks_Phase_5,280,5,42,127,680059320
7,23,Ticks_Phase_5,281,1,48,45,680559312
7,23,Ticks_Phase_5,282,5,42,127,680560576
7,23,Ticks_Phase_5,283,1,48,40,681050728
7,23,Ticks_Phase_5,284,5,42,127,681058620
7,23,Ticks_Phase_5,285,5,42,127,681559588
7,23,Ticks_Phase_5,286,1,48,41,681565920
7,23,Ticks_Phase_5,287,5,42,127,682059276
7,23,Ticks_Phase_5,288,1,48,44,682100964
7,23,Ticks_Phase_5,289,1,48,46,682549420
7,23,Ticks_Phase_5,290,5,42,127,682558808
7,23,Ticks_Phase_5,291,5,42,127,683058428
7,23,Ticks_Phase_5,292,1,48,47,683060292
7,23,Ticks_Phase_5,293,5,42,127,683559384
7,23,Ticks_Phase_5,294,1,48,49,683563552
7,23,Ticks_Phase_5,295,5,42,127,684058928
7,23,Ticks_Phase_5,296,1,48,47,684061016
7,23,Ticks_Phase_5,297,1,48,52,684539188
7,23,Ticks_Phase_5,298,5,42,127,684558684
7,23,Ticks_Phase_5,299,5,42,127,684959052
7,23,Ticks_Phase_5,300,1,48,49,685032592
7,23,Ticks_Phase_5,301,5,42,127,685458740
7,23,Ticks_Phase_5,302,1,48,35,685790368
7,23,Ticks_Phase_5,303,5,42,127,685958652
7,23,Ticks_Phase_5,304,1,48,26,686346676
7,23,Ticks_Phase_5,305,5,42,127,686459312
7,23,Ticks_Phase_5,306,1,48,35,686908592
7,23,Ticks_Phase_5,307,5,42,127,686959092
7,23,Ticks_Phase_5,308,1,48,47,687446700
7,23,Ticks_Phase_5,309,5,42,127,687458632
7,23,Ticks_Phase_5,310,1,48,43,687927140
7,23,Ticks_Phase_5,311,5,42,127,687959364
7,23,Ticks_Phase_5,312,1,48,45,688427132
7,23,Ticks_Phase_5,313,5,42,127,688459204
7,23,Ticks_Phase_5,314,1,48,42,688913172
7,23,Ticks_Phase_5,315,5,42,127,688958964
7,23,Ticks_Phase_5,316,1,48,44,689414288
7,23,Ticks_Phase_5,317,5,42,127,689458504
7,23,Ticks_Phase_5,318,1,48,45,689921012
7,23,Ticks_Phase_5,319,5,42,127,689959240
7,23,Ticks_Phase_5,320,1,48,48,690424220
7,23,Ticks_Phase_5,321,5,42,127,690458928
7,23,Ticks_Phase_5,322,1,48,43,690944428
7,23,Ticks_Phase_5,323,5,42,127,690958840
7,23,Ticks_Phase_5,324,1,48,45,691435200
7,23,Ticks_Phase_5,325,5,42,127,691458380
7,23,Ticks_Phase_5,326,1,48,44,691925008
7,23,Ticks_Phase_5,327,5,42,127,691959264
7,23,Ticks_Phase_5,328,1,48,46,692440204
7,23,Ticks_Phase_5,329,5,42,127,692458876
7,23,Ticks_Phase_5,330,1,48,43,692922060
7,23,Ticks_Phase_5,331,5,42,127,692958564
7,23,Ticks_Phase_5,332,1,48,45,693431564
7,23,Ticks_Phase_5,333,5,42,127,693459300
7,23,Ticks_Phase_5,334,1,48,47,693933864
7,23,Ticks_Phase_5,335,5,42,127,693959212
7,23,Ticks_Phase_5,336,1,48,41,694446452
7,23,Ticks_Phase_5,337,5,42,127,694458828
7,23,Ticks_Phase_5,0,9999,9999,9999,9999,609926268
7,23,Ticks_Phase_5,1,9999,9999,9999,9999,610426952
7,23,Ticks_Phase_5,2,9999,9999,9999,9999,610926656
7,23,Ticks_Phase_5,3,9999,9999,9999,9999,611426416
7,23,Ticks_Phase_5,4,9999,9999,9999,9999,611926104
7,23,Ticks_Phase_5,5,9999,9999,9999,9999,612426840
7,23,Ticks_Phase_5,6,9999,9999,9999,9999,612926528
7,23,Ticks_Phase_5,7,9999,9999,9999,9999,613426288
7,23,Ticks_Phase_5,8,9999,9999,9999,9999,613927024
7,23,Ticks_Phase_5,9,9999,9999,9999,9999,614426716
7,23,Ticks_Phase_5,10,9999,9999,9999,9999,614926404
7,23,Ticks_Phase_5,11,9999,9999,9999,9999,615426168
7,23,Ticks_Phase_5,12,9999,9999,9999,9999,615926904
7,23,Ticks_Phase_5,13,9999,9999,9999,9999,616426592
7,23,Ticks_Phase_5,14,9999,9999,9999,9999,616926276
7,23,Ticks_Phase_5,15,9999,9999,9999,9999,617427012
7,23,Ticks_Phase_5,16,9999,9999,9999,9999,617926776
7,23,Ticks_Phase_5,17,9999,9999,9999,9999,618426464
7,23,Ticks_Phase_5,18,9999,9999,9999,9999,618926152
7,23,Ticks_Phase_5,19,9999,9999,9999,9999,619426936
7,23,Ticks_Phase_5,20,9999,9999,9999,9999,619926624
7,23,Ticks_Phase_5,21,9999,9999,9999,9999,620426312
7,23,Ticks_Phase_5,22,9999,9999,9999,9999,620927048
7,23,Ticks_Phase_5,23,9999,9999,9999,9999,621426768
7,23,Ticks_Phase_5,24,9999,9999,9999,9999,621926500
7,23,Ticks_Phase_5,25,9999,9999,9999,9999,622426188
7,23,Ticks_Phase_5,26,9999,9999,9999,9999,622926924
7,23,Ticks_Phase_5,27,9999,9999,9999,9999,623426616
7,23,Ticks_Phase_5,28,9999,9999,9999,9999,623926380
7,23,Ticks_Phase_5,29,9999,9999,9999,9999,624427116
7,23,Ticks_Phase_5,30,9999,9999,9999,9999,624926796
7,23,Ticks_Phase_5,31,9999,9999,9999,9999,625426560
7,23,Ticks_Phase_5,32,9999,9999,9999,9999,625926256
7,23,Ticks_Phase_5,33,9999,9999,9999,9999,626426988
7,23,Ticks_Phase_5,34,9999,9999,9999,9999,626926680
7,23,Ticks_Phase_5,35,9999,9999,9999,9999,627426368
7,23,Ticks_Phase_5,36,9999,9999,9999,9999,627926132
7,23,Ticks_Phase_5,37,9999,9999,9999,9999,628426868
7,23,Ticks_Phase_5,38,9999,9999,9999,9999,628926552
7,23,Ticks_Phase_5,39,9999,9999,9999,9999,629426276
7,23,Ticks_Phase_5,40,9999,9999,9999,9999,629927028
7,23,Ticks_Phase_5,41,9999,9999,9999,9999,630426720
7,23,Ticks_Phase_5,42,9999,9999,9999,9999,630926400
7,23,Ticks_Phase_5,43,9999,9999,9999,9999,631426160
7,23,Ticks_Phase_5,44,9999,9999,9999,9999,631926900
7,23,Ticks_Phase_5,45,9999,9999,9999,9999,632426588
7,23,Ticks_Phase_5,46,9999,9999,9999,9999,632926276
7,23,Ticks_Phase_5,47,9999,9999,9999,9999,633427012
7,23,Ticks_Phase_5,48,9999,9999,9999,9999,633936964
7,23,Ticks_Phase_5,49,9999,9999,9999,9999,634436728
7,23,Ticks_Phase_5,50,9999,9999,9999,9999,634936416
7,23,Ticks_Phase_5,51,9999,9999,9999,9999,635436108
7,23,Ticks_Phase_5,52,9999,9999,9999,9999,635936844
7,23,Ticks_Phase_5,53,9999,9999,9999,9999,636436608
7,23,Ticks_Phase_5,54,9999,9999,9999,9999,636936328
7,23,Ticks_Phase_5,55,9999,9999,9999,9999,637437024
7,23,Ticks_Phase_5,56,9999,9999,9999,9999,637936720
7,23,Ticks_Phase_5,57,9999,9999,9999,9999,638436408
7,23,Ticks_Phase_5,58,9999,9999,9999,9999,638936172
7,23,Ticks_Phase_5,59,9999,9999,9999,9999,639436900
7,23,Ticks_Phase_5,60,9999,9999,9999,9999,639936588
7,23,Ticks_Phase_5,61,9999,9999,9999,9999,640436352
7,23,Ticks_Phase_5,62,9999,9999,9999,9999,640937088
7,23,Ticks_Phase_5,63,9999,9999,9999,9999,641436752
7,23,Ticks_Phase_5,64,9999,9999,9999,9999,641956960
7,23,Ticks_Phase_5,65,9999,9999,9999,9999,642456696
7,23,Ticks_Phase_5,66,9999,9999,9999,9999,642956388
7,23,Ticks_Phase_5,67,9999,9999,9999,9999,643456072
7,23,Ticks_Phase_5,68,9999,9999,9999,9999,643956808
7,23,Ticks_Phase_5,69,9999,9999,9999,9999,644456572
7,23,Ticks_Phase_5,70,9999,9999,9999,9999,644956268
7,23,Ticks_Phase_5,71,9999,9999,9999,9999,645456996
7,23,Ticks_Phase_5,72,9999,9999,9999,9999,645956684
7,23,Ticks_Phase_5,73,9999,9999,9999,9999,646456376
7,23,Ticks_Phase_5,74,9999,9999,9999,9999,646956144
7,23,Ticks_Phase_5,75,9999,9999,9999,9999,647456876
7,23,Ticks_Phase_5,76,9999,9999,9999,9999,647956564
7,23,Ticks_Phase_5,77,9999,9999,9999,9999,648456320
7,23,Ticks_Phase_5,78,9999,9999,9999,9999,648957056
7,23,Ticks_Phase_5,79,9999,9999,9999,9999,649456748
7,23,Ticks_Phase_5,80,9999,9999,9999,9999,649956432
7,23,Ticks_Phase_5,81,9999,9999,9999,9999,650436724
7,23,Ticks_Phase_5,82,9999,9999,9999,9999,650936420
7,23,Ticks_Phase_5,83,9999,9999,9999,9999,651436108
7,23,Ticks_Phase_5,84,9999,9999,9999,9999,651936896
7,23,Ticks_Phase_5,85,9999,9999,9999,9999,652436584
7,23,Ticks_Phase_5,86,9999,9999,9999,9999,652936264
7,23,Ticks_Phase_5,87,9999,9999,9999,9999,653437000
7,23,Ticks_Phase_5,88,9999,9999,9999,9999,653936768
7,23,Ticks_Phase_5,89,9999,9999,9999,9999,654436456
7,23,Ticks_Phase_5,90,9999,9999,9999,9999,654936148
7,23,Ticks_Phase_5,91,9999,9999,9999,9999,655436876
7,23,Ticks_Phase_5,92,9999,9999,9999,9999,655936572
7,23,Ticks_Phase_5,93,9999,9999,9999,9999,656436328
7,23,Ticks_Phase_5,94,9999,9999,9999,9999,656937060
7,23,Ticks_Phase_5,95,9999,9999,9999,9999,657436752
7,23,Ticks_Phase_5,96,9999,9999,9999,9999,657936444
7,23,Ticks_Phase_5,97,9999,9999,9999,9999,658387008
7,23,Ticks_Phase_5,98,9999,9999,9999,9999,658886764
7,23,Ticks_Phase_5,99,9999,9999,9999,9999,659386452
7,23,Ticks_Phase_5,100,9999,9999,9999,9999,659886140
7,23,Ticks_Phase_5,101,9999,9999,9999,9999,660386928
7,23,Ticks_Phase_5,102,9999,9999,9999,9999,660886616
7,23,Ticks_Phase_5,103,9999,9999,9999,9999,661386304
7,23,Ticks_Phase_5,104,9999,9999,9999,9999,661887040
7,23,Ticks_Phase_5,105,9999,9999,9999,9999,662386800
7,23,Ticks_Phase_5,106,9999,9999,9999,9999,662886468
7,23,Ticks_Phase_5,107,9999,9999,9999,9999,663386232
7,23,Ticks_Phase_5,108,9999,9999,9999,9999,663886968
7,23,Ticks_Phase_5,109,9999,9999,9999,9999,664386656
7,23,Ticks_Phase_5,110,9999,9999,9999,9999,664886344
7,23,Ticks_Phase_5,111,9999,9999,9999,9999,665387080
7,23,Ticks_Phase_5,112,9999,9999,9999,9999,665897036
7,23,Ticks_Phase_5,113,9999,9999,9999,9999,666396796
7,23,Ticks_Phase_5,114,9999,9999,9999,9999,666946652
7,23,Ticks_Phase_5,115,9999,9999,9999,9999,667446344
7,23,Ticks_Phase_5,116,9999,9999,9999,9999,667947084
7,23,Ticks_Phase_5,117,9999,9999,9999,9999,668457080
7,23,Ticks_Phase_5,118,9999,9999,9999,9999,668956768
7,23,Ticks_Phase_5,119,9999,9999,9999,9999,669456456
7,23,Ticks_Phase_5,120,9999,9999,9999,9999,669956220
7,23,Ticks_Phase_5,121,9999,9999,9999,9999,670456956
7,23,Ticks_Phase_5,122,9999,9999,9999,9999,670956644
7,23,Ticks_Phase_5,123,9999,9999,9999,9999,671456332
7,23,Ticks_Phase_5,124,9999,9999,9999,9999,671957068
7,23,Ticks_Phase_5,125,9999,9999,9999,9999,672456832
7,23,Ticks_Phase_5,126,9999,9999,9999,9999,672956520
7,23,Ticks_Phase_5,127,9999,9999,9999,9999,673456208
7,23,Ticks_Phase_5,128,9999,9999,9999,9999,673956992
7,23,Ticks_Phase_5,129,9999,9999,9999,9999,674456680
7,23,Ticks_Phase_5,130,9999,9999,9999,9999,674956368
7,23,Ticks_Phase_5,131,9999,9999,9999,9999,675556424
7,23,Ticks_Phase_5,132,9999,9999,9999,9999,676056188
7,23,Ticks_Phase_5,133,9999,9999,9999,9999,676556924
7,23,Ticks_Phase_5,134,9999,9999,9999,9999,677056612
7,23,Ticks_Phase_5,135,9999,9999,9999,9999,677556304
7,23,Ticks_Phase_5,136,9999,9999,9999,9999,678057032
7,23,Ticks_Phase_5,137,9999,9999,9999,9999,678556772
7,23,Ticks_Phase_5,138,9999,9999,9999,9999,679056468
7,23,Ticks_Phase_5,139,9999,9999,9999,9999,679556156
7,23,Ticks_Phase_5,140,9999,9999,9999,9999,680056960
7,23,Ticks_Phase_5,141,9999,9999,9999,9999,680556652
7,23,Ticks_Phase_5,142,9999,9999,9999,9999,681056336
7,23,Ticks_Phase_5,143,9999,9999,9999,9999,681557076
7,23,Ticks_Phase_5,144,9999,9999,9999,9999,682056764
7,23,Ticks_Phase_5,145,9999,9999,9999,9999,682556520
7,23,Ticks_Phase_5,146,9999,9999,9999,9999,683056216
7,23,Ticks_Phase_5,147,9999,9999,9999,9999,683556952
7,23,Ticks_Phase_5,148,9999,9999,9999,9999,684056640
7,23,Ticks_Phase_5,149,9999,9999,9999,9999,684556396
7,23,Ticks_Phase_5,150,9999,9999,9999,9999,684956764
7,23,Ticks_Phase_5,151,9999,9999,9999,9999,685456452
7,23,Ticks_Phase_5,152,9999,9999,9999,9999,685956216
7,23,Ticks_Phase_5,153,9999,9999,9999,9999,686456952
7,23,Ticks_Phase_5,154,9999,9999,9999,9999,686956656
7,23,Ticks_Phase_5,155,9999,9999,9999,9999,687456344
7,23,Ticks_Phase_5,156,9999,9999,9999,9999,687957080
7,23,Ticks_Phase_5,157,9999,9999,9999,9999,688456768
7,23,Ticks_Phase_5,158,9999,9999,9999,9999,688956528
7,23,Ticks_Phase_5,159,9999,9999,9999,9999,689456216
7,23,Ticks_Phase_5,160,9999,9999,9999,9999,689956952
7,23,Ticks_Phase_5,161,9999,9999,9999,9999,690456640
7,23,Ticks_Phase_5,162,9999,9999,9999,9999,690956404
7,23,Ticks_Phase_5,163,9999,9999,9999,9999,691456092
7,23,Ticks_Phase_5,164,9999,9999,9999,9999,691956828
7,23,Ticks_Phase_5,165,9999,9999,9999,9999,692456516
7,23,Ticks_Phase_5,166,9999,9999,9999,9999,692956280
7,23,Ticks_Phase_5,167,9999,9999,9999,9999,693457016
7,23,Ticks_Phase_5,168,9999,9999,9999,9999,693956700
7,23,Ticks_Phase_5,169,9999,9999,9999,9999,694456392
8,22,Ticks_Phase_8,0,5,42,127,706848008
8,22,Ticks_Phase_8,1,5,42,127,707647816
8,22,Ticks_Phase_8,2,1,48,49,708370828
8,22,Ticks_Phase_8,3,5,42,127,708447544
8,22,Ticks_Phase_8,4,1,48,46,709146880
8,22,Ticks_Phase_8,5,5,42,127,709248360
8,22,Ticks_Phase_8,6,1,48,35,709977964
8,22,Ticks_Phase_8,7,5,42,127,710048164
8,22,Ticks_Phase_8,8,1,48,41,710749668
8,22,Ticks_Phase_8,9,5,42,127,710847736
8,22,Ticks_Phase_8,10,1,48,40,711611180
8,22,Ticks_Phase_8,11,5,42,127,711647760
8,22,Ticks_Phase_8,12,1,48,32,712396000
8,22,Ticks_Phase_8,13,5,42,127,712448368
8,22,Ticks_Phase_8,14,1,48,41,713166880
8,22,Ticks_Phase_8,15,5,42,127,713248232
8,22,Ticks_Phase_8,16,1,48,41,714028968
8,22,Ticks_Phase_8,17,5,42,127,714047944
8,22,Ticks_Phase_8,18,1,48,41,714832048
8,22,Ticks_Phase_8,19,5,42,127,714847732
8,22,Ticks_Phase_8,20,1,48,39,715641644
8,22,Ticks_Phase_8,21,5,42,127,715648268
8,22,Ticks_Phase_8,22,1,48,40,716439712
8,22,Ticks_Phase_8,23,5,42,127,716448052
8,22,Ticks_Phase_8,24,1,48,40,717203992
8,22,Ticks_Phase_8,25,5,42,127,717247788
8,22,Ticks_Phase_8,26,1,48,35,718011448
8,22,Ticks_Phase_8,27,5,42,127,718047724
8,22,Ticks_Phase_8,28,1,48,47,718807048
8,22,Ticks_Phase_8,29,5,42,127,718848484
8,22,Ticks_Phase_8,30,1,48,46,719616496
8,22,Ticks_Phase_8,31,5,42,127,719647972
8,22,Ticks_Phase_8,32,1,48,45,720421364
8,22,Ticks_Phase_8,33,5,42,127,720447756
8,22,Ticks_Phase_8,34,1,48,44,721205956
8,22,Ticks_Phase_8,35,5,42,127,721247692
8,22,Ticks_Phase_8,36,1,48,46,722002364
8,22,Ticks_Phase_8,37,5,42,127,722048452
8,22,Ticks_Phase_8,38,1,48,40,722835632
8,22,Ticks_Phase_8,39,5,42,127,722848012
8,22,Ticks_Phase_8,40,1,48,49,723626976
8,22,Ticks_Phase_8,41,5,42,127,723647828
8,22,Ticks_Phase_8,42,1,48,46,724425256
8,22,Ticks_Phase_8,43,5,42,127,724447536
8,22,Ticks_Phase_8,44,1,48,48,725216968
8,22,Ticks_Phase_8,45,5,42,127,725248372
8,22,Ticks_Phase_8,46,1,48,45,725996608
8,22,Ticks_Phase_8,47,5,42,127,726048008
8,22,Ticks_Phase_8,48,1,48,46,726773096
8,22,Ticks_Phase_8,49,5,42,127,726847792
8,22,Ticks_Phase_8,50,1,48,48,727608084
8,22,Ticks_Phase_8,51,5,42,127,727647580
8,22,Ticks_Phase_8,52,5,42,127,728448420
8,22,Ticks_Phase_8,53,1,48,45,728451536
8,22,Ticks_Phase_8,54,5,42,127,729248204
8,22,Ticks_Phase_8,55,1,48,43,729291340
8,22,Ticks_Phase_8,56,5,42,127,730047944
8,22,Ticks_Phase_8,57,1,48,45,730081392
8,22,Ticks_Phase_8,58,1,48,41,730816996
8,22,Ticks_Phase_8,59,5,42,127,730828328
8,22,Ticks_Phase_8,60,1,48,41,731589592
8,22,Ticks_Phase_8,61,5,42,127,731627816
8,22,Ticks_Phase_8,62,5,42,127,732427612
8,22,Ticks_Phase_8,63,1,48,40,732428500
8,22,Ticks_Phase_8,64,1,48,43,733219948
8,22,Ticks_Phase_8,65,5,42,127,733228436
8,22,Ticks_Phase_8,66,1,48,40,734028080
8,22,Ticks_Phase_8,67,5,42,127,734029420
8,22,Ticks_Phase_8,68,5,42,127,734827868
8,22,Ticks_Phase_8,69,1,48,39,734831208
8,22,Ticks_Phase_8,70,1,48,43,735607772
8,22,Ticks_Phase_8,71,5,42,127,735627648
8,22,Ticks_Phase_8,72,1,48,46,736368696
8,22,Ticks_Phase_8,73,5,42,127,736428356
8,22,Ticks_Phase_8,74,1,48,43,737189996
8,22,Ticks_Phase_8,75,5,42,127,737228292
8,22,Ticks_Phase_8,76,1,48,38,737999144
8,22,Ticks_Phase_8,77,5,42,127,738028000
8,22,Ticks_Phase_8,78,1,48,40,738790764
8,22,Ticks_Phase_8,79,5,42,127,738827640
8,22,Ticks_Phase_8,80,1,48,35,739591524
8,22,Ticks_Phase_8,81,5,42,127,739628400
8,22,Ticks_Phase_8,82,1,48,38,740349668
8,22,Ticks_Phase_8,83,5,42,127,740428256
8,22,Ticks_Phase_8,84,1,48,33,741137400
8,22,Ticks_Phase_8,85,5,42,127,741227820
8,22,Ticks_Phase_8,86,1,48,35,741945188
8,22,Ticks_Phase_8,87,5,42,127,742027532
8,22,Ticks_Phase_8,88,1,48,38,742760112
8,22,Ticks_Phase_8,89,5,42,127,742828464
8,22,Ticks_Phase_8,90,1,48,41,743560424
8,22,Ticks_Phase_8,91,5,42,127,743628248
8,22,Ticks_Phase_8,92,5,42,127,744428116
8,22,Ticks_Phase_8,93,1,48,43,744479992
8,22,Ticks_Phase_8,94,1,48,44,745241948
8,22,Ticks_Phase_8,95,5,42,127,745248268
8,22,Ticks_Phase_8,96,1,48,43,746008264
8,22,Ticks_Phase_8,97,5,42,127,746048056
8,22,Ticks_Phase_8,98,1,48,43,746845804
8,22,Ticks_Phase_8,99,5,42,127,746847472
8,22,Ticks_Phase_8,100,1,48,48,747601468
8,22,Ticks_Phase_8,101,5,42,127,747648376
8,22,Ticks_Phase_8,102,1,48,31,747692540
8,22,Ticks_Phase_8,103,1,48,22,747750332
8,22,Ticks_Phase_8,104,1,48,44,748351032
8,22,Ticks_Phase_8,105,5,42,127,748448180
8,22,Ticks_Phase_8,106,1,48,46,749217028
8,22,Ticks_Phase_8,107,5,42,127,749248056
8,22,Ticks_Phase_8,108,1,48,47,750046184
8,22,Ticks_Phase_8,109,5,42,127,750047768
8,22,Ticks_Phase_8,110,1,48,43,750835084
8,22,Ticks_Phase_8,111,5,42,127,750848304
8,22,Ticks_Phase_8,112,1,48,47,751607548
8,22,Ticks_Phase_8,113,5,42,127,751648088
8,22,Ticks_Phase_8,114,1,48,45,752423952
8,22,Ticks_Phase_8,115,5,42,127,752448096
8,22,Ticks_Phase_8,116,1,48,44,753187056
8,22,Ticks_Phase_8,117,5,42,127,753247812
8,22,Ticks_Phase_8,118,1,48,43,754009304
8,22,Ticks_Phase_8,119,5,42,127,754048272
8,22,Ticks_Phase_8,120,1,48,46,754811108
8,22,Ticks_Phase_8,121,5,42,127,754848132
8,22,Ticks_Phase_8,122,1,48,42,755581164
8,22,Ticks_Phase_8,123,5,42,127,755647944
8,22,Ticks_Phase_8,124,1,48,45,756411076
8,22,Ticks_Phase_8,125,5,42,127,756447876
8,22,Ticks_Phase_8,126,1,48,41,757197840
8,22,Ticks_Phase_8,127,5,42,127,757248340
8,22,Ticks_Phase_8,128,1,48,43,758044568
8,22,Ticks_Phase_8,129,5,42,127,758088044
8,22,Ticks_Phase_8,130,1,48,40,758826248
8,22,Ticks_Phase_8,131,5,42,127,758887976
8,22,Ticks_Phase_8,132,5,42,127,759687472
8,22,Ticks_Phase_8,133,1,48,43,759705260
8,22,Ticks_Phase_8,134,5,42,127,760488180
8,22,Ticks_Phase_8,135,1,48,33,760528520
8,22,Ticks_Phase_8,136,5,42,127,761288040
8,22,Ticks_Phase_8,137,1,48,37,761326136
8,22,Ticks_Phase_8,138,5,42,127,762087828
8,22,Ticks_Phase_8,139,1,48,38,762105240
8,22,Ticks_Phase_8,140,1,48,43,762883676
8,22,Ticks_Phase_8,141,5,42,127,762887532
8,22,Ticks_Phase_8,142,5,42,127,763688596
8,22,Ticks_Phase_8,143,1,48,45,763735980
8,22,Ticks_Phase_8,144,1,48,45,764476672
8,22,Ticks_Phase_8,145,5,42,127,764487928
8,22,Ticks_Phase_8,146,1,48,51,765237664
8,22,Ticks_Phase_8,147,5,42,127,765287792
8,22,Ticks_Phase_8,148,1,48,43,766067404
8,22,Ticks_Phase_8,149,5,42,127,766087800
8,22,Ticks_Phase_8,150,5,42,127,766888516
8,22,Ticks_Phase_8,151,1,48,41,766923908
8,22,Ticks_Phase_8,152,1,48,44,767659436
8,22,Ticks_Phase_8,153,5,42,127,767687996
8,22,Ticks_Phase_8,154,1,48,42,768462508
8,22,Ticks_Phase_8,155,5,42,127,768487780
8,22,Ticks_Phase_8,156,1,48,48,769238712
8,22,Ticks_Phase_8,157,5,42,127,769287644
8,22,Ticks_Phase_8,158,1,48,45,770021424
8,22,Ticks_Phase_8,159,5,42,127,770088328
8,22,Ticks_Phase_8,160,1,48,43,770833712
8,22,Ticks_Phase_8,161,5,42,127,770888116
8,22,Ticks_Phase_8,162,5,42,127,771647848
8,22,Ticks_Phase_8,163,1,48,44,771662944
8,22,Ticks_Phase_8,164,1,48,46,772428876
8,22,Ticks_Phase_8,165,5,42,127,772447624
8,22,Ticks_Phase_8,166,1,48,49,773246496
8,22,Ticks_Phase_8,167,5,42,127,773248460
8,22,Ticks_Phase_8,168,5,42,127,774048424
8,22,Ticks_Phase_8,169,1,48,48,774058440
8,22,Ticks_Phase_8,170,5,42,127,774847836
8,22,Ticks_Phase_8,171,1,48,40,774855832
8,22,Ticks_Phase_8,172,1,48,33,775645576
8,22,Ticks_Phase_8,173,5,42,127,775647544
8,22,Ticks_Phase_8,174,1,48,49,776401020
8,22,Ticks_Phase_8,175,5,42,127,776448448
8,22,Ticks_Phase_8,176,1,48,48,777247116
8,22,Ticks_Phase_8,177,5,42,127,777248680
8,22,Ticks_Phase_8,178,1,48,43,778038340
8,22,Ticks_Phase_8,179,5,42,127,778047800
8,22,Ticks_Phase_8,180,1,48,48,778837076
8,22,Ticks_Phase_8,181,5,42,127,778847588
8,22,Ticks_Phase_8,182,5,42,127,779648500
8,22,Ticks_Phase_8,183,1,48,48,779670644
8,22,Ticks_Phase_8,184,5,42,127,780448384
8,22,Ticks_Phase_8,185,1,48,48,780500928
8,22,Ticks_Phase_8,186,1,48,45,781236460
8,22,Ticks_Phase_8,187,5,42,127,781247792
8,22,Ticks_Phase_8,188,1,48,43,782015112
8,22,Ticks_Phase_8,189,5,42,127,782047652
8,22,Ticks_Phase_8,190,1,48,41,782810116
8,22,Ticks_Phase_8,191,5,42,127,782848484
8,22,Ticks_Phase_8,192,5,42,127,783648280
8,22,Ticks_Phase_8,193,1,48,37,783655136
8,22,Ticks_Phase_8,194,5,42,127,784368084
8,22,Ticks_Phase_8,195,1,48,29,784376300
8,22,Ticks_Phase_8,196,1,48,43,785142368
8,22,Ticks_Phase_8,197,5,42,127,785167716
8,22,Ticks_Phase_8,198,1,48,41,785903508
8,22,Ticks_Phase_8,199,5,42,127,785967500
8,22,Ticks_Phase_8,200,1,48,38,786700608
8,22,Ticks_Phase_8,201,5,42,127,786768336
8,22,Ticks_Phase_8,202,1,48,39,787479276
8,22,Ticks_Phase_8,203,5,42,127,787568048
8,22,Ticks_Phase_8,204,1,48,31,788247616
8,22,Ticks_Phase_8,205,5,42,127,788367820
8,22,Ticks_Phase_8,206,1,48,36,789061776
8,22,Ticks_Phase_8,207,5,42,127,789167408
8,22,Ticks_Phase_8,208,1,48,36,789871220
8,22,Ticks_Phase_8,209,5,42,127,789968180
8,22,Ticks_Phase_8,210,1,48,29,790656188
8,22,Ticks_Phase_8,211,5,42,127,790767952
8,22,Ticks_Phase_8,212,1,48,31,791474924
8,22,Ticks_Phase_8,213,5,42,127,791567680
8,22,Ticks_Phase_8,214,1,48,51,792299960
8,22,Ticks_Phase_8,215,5,42,127,792367540
8,22,Ticks_Phase_8,216,1,48,45,793109480
8,22,Ticks_Phase_8,217,5,42,127,793168224
8,22,Ticks_Phase_8,218,1,48,35,793915788
8,22,Ticks_Phase_8,219,5,42,127,793968084
8,22,Ticks_Phase_8,220,1,48,38,794730172
8,22,Ticks_Phase_8,221,5,42,127,794767872
8,22,Ticks_Phase_8,222,1,48,42,795511164
8,22,Ticks_Phase_8,223,5,42,127,795567460
8,22,Ticks_Phase_8,224,1,48,36,796310872
8,22,Ticks_Phase_8,225,5,42,127,796368292
8,22,Ticks_Phase_8,226,1,48,38,797098552
8,22,Ticks_Phase_8,227,5,42,127,797168080
8,22,Ticks_Phase_8,228,1,48,42,797894664
8,22,Ticks_Phase_8,229,5,42,127,798047828
8,22,Ticks_Phase_8,230,5,42,127,798848464
8,22,Ticks_Phase_8,231,1,48,30,798858476
8,22,Ticks_Phase_8,232,5,42,127,799648048
8,22,Ticks_Phase_8,233,1,48,38,799666452
8,22,Ticks_Phase_8,234,1,48,43,800444344
8,22,Ticks_Phase_8,235,5,42,127,800447828
8,22,Ticks_Phase_8,236,5,42,127,801247848
8,22,Ticks_Phase_8,237,1,48,32,801254928
8,22,Ticks_Phase_8,238,5,42,127,802048532
8,22,Ticks_Phase_8,239,1,48,39,802054196
8,22,Ticks_Phase_8,240,1,48,36,802815772
8,22,Ticks_Phase_8,241,5,42,127,802848012
8,22,Ticks_Phase_8,242,1,48,41,803619760
8,22,Ticks_Phase_8,243,5,42,127,803647800
8,22,Ticks_Phase_8,244,1,48,45,804443580
8,22,Ticks_Phase_8,245,5,42,127,804447808
8,22,Ticks_Phase_8,246,5,42,127,805248352
8,22,Ticks_Phase_8,247,1,48,38,805252888
8,22,Ticks_Phase_8,248,5,42,127,806048088
8,22,Ticks_Phase_8,249,1,48,35,806057424
8,22,Ticks_Phase_8,250,1,48,41,806826200
8,22,Ticks_Phase_8,251,5,42,127,806847716
8,22,Ticks_Phase_8,252,1,48,43,807626656
8,22,Ticks_Phase_8,253,5,42,127,807647652
8,22,Ticks_Phase_8,254,1,48,42,808408172
8,22,Ticks_Phase_8,255,5,42,127,808448260
8,22,Ticks_Phase_8,256,1,48,40,809218292
8,22,Ticks_Phase_8,257,5,42,127,809248048
8,22,Ticks_Phase_8,258,1,48,37,810002192
8,22,Ticks_Phase_8,259,5,42,127,810047832
8,22,Ticks_Phase_8,260,1,48,30,810838004
8,22,Ticks_Phase_8,261,5,42,127,810847544
8,22,Ticks_Phase_8,262,1,48,39,811584236
8,22,Ticks_Phase_8,263,5,42,127,811807976
8,22,Ticks_Phase_8,264,5,42,127,812607708
8,22,Ticks_Phase_8,265,1,48,19,813045512
8,22,Ticks_Phase_8,266,5,42,127,813407716
8,22,Ticks_Phase_8,267,1,48,27,814008516
8,22,Ticks_Phase_8,268,5,42,127,814208624
8,22,Ticks_Phase_8,269,1,48,39,814929840
8,22,Ticks_Phase_8,270,5,42,127,815008004
8,22,Ticks_Phase_8,271,1,48,43,815723856
8,22,Ticks_Phase_8,272,5,42,127,815807792
8,22,Ticks_Phase_8,273,1,48,42,816560740
8,22,Ticks_Phase_8,274,5,42,127,816607504
8,22,Ticks_Phase_8,275,1,48,41,817397600
8,22,Ticks_Phase_8,276,5,42,127,817408560
8,22,Ticks_Phase_8,277,1,48,43,818189896
8,22,Ticks_Phase_8,278,5,42,127,818207972
8,22,Ticks_Phase_8,279,1,48,40,818983088
8,22,Ticks_Phase_8,280,5,42,127,819007836
8,22,Ticks_Phase_8,281,1,48,43,819755400
8,22,Ticks_Phase_8,282,5,42,127,819807548
8,22,Ticks_Phase_8,283,1,48,40,820579596
8,22,Ticks_Phase_8,284,5,42,127,820608452
8,22,Ticks_Phase_8,285,1,48,38,821389112
8,22,Ticks_Phase_8,286,5,42,127,821408336
8,22,Ticks_Phase_8,287,1,48,42,822208352
8,22,Ticks_Phase_8,288,5,42,127,822209392
8,22,Ticks_Phase_8,289,1,48,48,822975072
8,22,Ticks_Phase_8,290,5,42,127,823007612
8,22,Ticks_Phase_8,291,1,48,41,823777040
8,22,Ticks_Phase_8,292,5,42,127,823808444
8,22,Ticks_Phase_8,293,1,48,41,824553004
8,22,Ticks_Phase_8,294,5,42,127,824608304
8,22,Ticks_Phase_8,295,1,48,42,825384836
8,22,Ticks_Phase_8,296,5,42,127,825407720
8,22,Ticks_Phase_8,297,1,48,33,826199168
8,22,Ticks_Phase_8,298,5,42,127,826207584
8,22,Ticks_Phase_8,299,5,42,127,826847716
8,22,Ticks_Phase_8,300,1,48,31,826979344
8,22,Ticks_Phase_8,301,5,42,127,827648252
8,22,Ticks_Phase_8,302,1,48,35,827682444
8,22,Ticks_Phase_8,303,1,48,39,828417528
8,22,Ticks_Phase_8,304,5,42,127,828448108
8,22,Ticks_Phase_8,305,1,48,37,829223220
8,22,Ticks_Phase_8,306,5,42,127,829247816
8,22,Ticks_Phase_8,307,1,48,36,829986764
8,22,Ticks_Phase_8,308,5,42,127,830047456
8,22,Ticks_Phase_8,309,1,48,33,830806776
8,22,Ticks_Phase_8,310,5,42,127,830848512
8,22,Ticks_Phase_8,311,1,48,35,831590832
8,22,Ticks_Phase_8,312,5,42,127,831648100
8,22,Ticks_Phase_8,313,1,48,34,832401172
8,22,Ticks_Phase_8,314,5,42,127,832447960
8,22,Ticks_Phase_8,315,1,48,33,833178948
8,22,Ticks_Phase_8,316,5,42,127,833247672
8,22,Ticks_Phase_8,317,1,48,37,834040608
8,22,Ticks_Phase_8,318,5,42,127,834048356
8,22,Ticks_Phase_8,319,1,48,44,834832756
8,22,Ticks_Phase_8,320,5,42,127,834848064
8,22,Ticks_Phase_8,321,1,48,39,835638540
8,22,Ticks_Phase_8,322,5,42,127,835648152
8,22,Ticks_Phase_8,323,5,42,127,836447644
8,22,Ticks_Phase_8,324,1,48,32,836458780
8,22,Ticks_Phase_8,325,1,48,40,837190404
8,22,Ticks_Phase_8,326,5,42,127,837248324
8,22,Ticks_Phase_8,327,1,48,39,838010936
8,22,Ticks_Phase_8,328,5,42,127,838048060
8,22,Ticks_Phase_8,329,1,48,38,838835688
8,22,Ticks_Phase_8,330,5,42,127,838847916
8,22,Ticks_Phase_8,331,1,48,36,839642652
8,22,Ticks_Phase_8,332,5,42,127,839647556
8,22,Ticks_Phase_8,333,5,42,127,840448320
8,22,Ticks_Phase_8,334,1,48,41,840464312
8,22,Ticks_Phase_8,335,5,42,127,841248032
8,22,Ticks_Phase_8,336,1,48,39,841259616
8,22,Ticks_Phase_8,337,5,42,127,842047968
8,22,Ticks_Phase_8,338,1,48,41,842054380
8,22,Ticks_Phase_8,0,9999,9999,9999,9999,706845792
8,22,Ticks_Phase_8,1,9999,9999,9999,9999,707645528
8,22,Ticks_Phase_8,2,9999,9999,9999,9999,708445252
8,22,Ticks_Phase_8,3,9999,9999,9999,9999,709246072
8,22,Ticks_Phase_8,4,9999,9999,9999,9999,710045800
8,22,Ticks_Phase_8,5,9999,9999,9999,9999,710845520
8,22,Ticks_Phase_8,6,9999,9999,9999,9999,711645248
8,22,Ticks_Phase_8,7,9999,9999,9999,9999,712446008
8,22,Ticks_Phase_8,8,9999,9999,9999,9999,713245792
8,22,Ticks_Phase_8,9,9999,9999,9999,9999,714045508
8,22,Ticks_Phase_8,10,9999,9999,9999,9999,714845292
8,22,Ticks_Phase_8,11,9999,9999,9999,9999,715646052
8,22,Ticks_Phase_8,12,9999,9999,9999,9999,716445764
8,22,Ticks_Phase_8,13,9999,9999,9999,9999,717245500
8,22,Ticks_Phase_8,14,9999,9999,9999,9999,718045288
8,22,Ticks_Phase_8,15,9999,9999,9999,9999,718846044
8,22,Ticks_Phase_8,16,9999,9999,9999,9999,719645760
8,22,Ticks_Phase_8,17,9999,9999,9999,9999,720445544
8,22,Ticks_Phase_8,18,9999,9999,9999,9999,721245256
8,22,Ticks_Phase_8,19,9999,9999,9999,9999,722046016
8,22,Ticks_Phase_8,20,9999,9999,9999,9999,722845800
8,22,Ticks_Phase_8,21,9999,9999,9999,9999,723645536
8,22,Ticks_Phase_8,22,9999,9999,9999,9999,724445248
8,22,Ticks_Phase_8,23,9999,9999,9999,9999,725246008
8,22,Ticks_Phase_8,24,9999,9999,9999,9999,726045792
8,22,Ticks_Phase_8,25,9999,9999,9999,9999,726845504
8,22,Ticks_Phase_8,26,9999,9999,9999,9999,727645292
8,22,Ticks_Phase_8,27,9999,9999,9999,9999,728446056
8,22,Ticks_Phase_8,28,9999,9999,9999,9999,729245768
8,22,Ticks_Phase_8,29,9999,9999,9999,9999,730045504
8,22,Ticks_Phase_8,30,9999,9999,9999,9999,730825816
8,22,Ticks_Phase_8,31,9999,9999,9999,9999,731625528
8,22,Ticks_Phase_8,32,9999,9999,9999,9999,732425320
8,22,Ticks_Phase_8,33,9999,9999,9999,9999,733226072
8,22,Ticks_Phase_8,34,9999,9999,9999,9999,734025792
8,22,Ticks_Phase_8,35,9999,9999,9999,9999,734825576
8,22,Ticks_Phase_8,36,9999,9999,9999,9999,735625284
8,22,Ticks_Phase_8,37,9999,9999,9999,9999,736426068
8,22,Ticks_Phase_8,38,9999,9999,9999,9999,737225852
8,22,Ticks_Phase_8,39,9999,9999,9999,9999,738025564
8,22,Ticks_Phase_8,40,9999,9999,9999,9999,738825276
8,22,Ticks_Phase_8,41,9999,9999,9999,9999,739626108
8,22,Ticks_Phase_8,42,9999,9999,9999,9999,740425820
8,22,Ticks_Phase_8,43,9999,9999,9999,9999,741225532
8,22,Ticks_Phase_8,44,9999,9999,9999,9999,742025316
8,22,Ticks_Phase_8,45,9999,9999,9999,9999,742826100
8,22,Ticks_Phase_8,46,9999,9999,9999,9999,743625812
8,22,Ticks_Phase_8,47,9999,9999,9999,9999,744425528
8,22,Ticks_Phase_8,48,9999,9999,9999,9999,745245756
8,22,Ticks_Phase_8,49,9999,9999,9999,9999,746045544
8,22,Ticks_Phase_8,50,9999,9999,9999,9999,746845280
8,22,Ticks_Phase_8,51,9999,9999,9999,9999,747646016
8,22,Ticks_Phase_8,52,9999,9999,9999,9999,748445756
8,22,Ticks_Phase_8,53,9999,9999,9999,9999,749245544
8,22,Ticks_Phase_8,54,9999,9999,9999,9999,750045260
8,22,Ticks_Phase_8,55,9999,9999,9999,9999,750846016
8,22,Ticks_Phase_8,56,9999,9999,9999,9999,751645800
8,22,Ticks_Phase_8,57,9999,9999,9999,9999,752445512
8,22,Ticks_Phase_8,58,9999,9999,9999,9999,753245300
8,22,Ticks_Phase_8,59,9999,9999,9999,9999,754046056
8,22,Ticks_Phase_8,60,9999,9999,9999,9999,754845768
8,22,Ticks_Phase_8,61,9999,9999,9999,9999,755645504
8,22,Ticks_Phase_8,62,9999,9999,9999,9999,756445292
8,22,Ticks_Phase_8,63,9999,9999,9999,9999,757246048
8,22,Ticks_Phase_8,64,9999,9999,9999,9999,758085752
8,22,Ticks_Phase_8,65,9999,9999,9999,9999,758885464
8,22,Ticks_Phase_8,66,9999,9999,9999,9999,759685184
8,22,Ticks_Phase_8,67,9999,9999,9999,9999,760485964
8,22,Ticks_Phase_8,68,9999,9999,9999,9999,761285752
8,22,Ticks_Phase_8,69,9999,9999,9999,9999,762085464
8,22,Ticks_Phase_8,70,9999,9999,9999,9999,762885244
8,22,Ticks_Phase_8,71,9999,9999,9999,9999,763686008
8,22,Ticks_Phase_8,72,9999,9999,9999,9999,764485716
8,22,Ticks_Phase_8,73,9999,9999,9999,9999,765285500
8,22,Ticks_Phase_8,74,9999,9999,9999,9999,766085212
8,22,Ticks_Phase_8,75,9999,9999,9999,9999,766886000
8,22,Ticks_Phase_8,76,9999,9999,9999,9999,767685708
8,22,Ticks_Phase_8,77,9999,9999,9999,9999,768485492
8,22,Ticks_Phase_8,78,9999,9999,9999,9999,769285204
8,22,Ticks_Phase_8,79,9999,9999,9999,9999,770085964
8,22,Ticks_Phase_8,80,9999,9999,9999,9999,770885748
8,22,Ticks_Phase_8,81,9999,9999,9999,9999,771645556
8,22,Ticks_Phase_8,82,9999,9999,9999,9999,772445260
8,22,Ticks_Phase_8,83,9999,9999,9999,9999,773246044
8,22,Ticks_Phase_8,84,9999,9999,9999,9999,774045812
8,22,Ticks_Phase_8,85,9999,9999,9999,9999,774845548
8,22,Ticks_Phase_8,86,9999,9999,9999,9999,775645292
8,22,Ticks_Phase_8,87,9999,9999,9999,9999,776446012
8,22,Ticks_Phase_8,88,9999,9999,9999,9999,777245804
8,22,Ticks_Phase_8,89,9999,9999,9999,9999,778045512
8,22,Ticks_Phase_8,90,9999,9999,9999,9999,778845296
8,22,Ticks_Phase_8,91,9999,9999,9999,9999,779646060
8,22,Ticks_Phase_8,92,9999,9999,9999,9999,780445772
8,22,Ticks_Phase_8,93,9999,9999,9999,9999,781245504
8,22,Ticks_Phase_8,94,9999,9999,9999,9999,782045288
8,22,Ticks_Phase_8,95,9999,9999,9999,9999,782846048
8,22,Ticks_Phase_8,96,9999,9999,9999,9999,783645764
8,22,Ticks_Phase_8,97,9999,9999,9999,9999,784365648
8,22,Ticks_Phase_8,98,9999,9999,9999,9999,785165428
8,22,Ticks_Phase_8,99,9999,9999,9999,9999,785965140
8,22,Ticks_Phase_8,100,9999,9999,9999,9999,786765896
8,22,Ticks_Phase_8,101,9999,9999,9999,9999,787565688
8,22,Ticks_Phase_8,102,9999,9999,9999,9999,788365380
8,22,Ticks_Phase_8,103,9999,9999,9999,9999,789165120
8,22,Ticks_Phase_8,104,9999,9999,9999,9999,789965892
8,22,Ticks_Phase_8,105,9999,9999,9999,9999,790765664
8,22,Ticks_Phase_8,106,9999,9999,9999,9999,791565388
8,22,Ticks_Phase_8,107,9999,9999,9999,9999,792365176
8,22,Ticks_Phase_8,108,9999,9999,9999,9999,793165936
8,22,Ticks_Phase_8,109,9999,9999,9999,9999,793965648
8,22,Ticks_Phase_8,110,9999,9999,9999,9999,794765436
8,22,Ticks_Phase_8,111,9999,9999,9999,9999,795565172
8,22,Ticks_Phase_8,112,9999,9999,9999,9999,796365928
8,22,Ticks_Phase_8,113,9999,9999,9999,9999,797165640
8,22,Ticks_Phase_8,114,9999,9999,9999,9999,798045240
8,22,Ticks_Phase_8,115,9999,9999,9999,9999,798846024
8,22,Ticks_Phase_8,116,9999,9999,9999,9999,799645812
8,22,Ticks_Phase_8,117,9999,9999,9999,9999,800445540
8,22,Ticks_Phase_8,118,9999,9999,9999,9999,801245260
8,22,Ticks_Phase_8,119,9999,9999,9999,9999,802046020
8,22,Ticks_Phase_8,120,9999,9999,9999,9999,802845800
8,22,Ticks_Phase_8,121,9999,9999,9999,9999,803645512
8,22,Ticks_Phase_8,122,9999,9999,9999,9999,804445296
8,22,Ticks_Phase_8,123,9999,9999,9999,9999,805246060
8,22,Ticks_Phase_8,124,9999,9999,9999,9999,806045796
8,22,Ticks_Phase_8,125,9999,9999,9999,9999,806845504
8,22,Ticks_Phase_8,126,9999,9999,9999,9999,807645288
8,22,Ticks_Phase_8,127,9999,9999,9999,9999,808446048
8,22,Ticks_Phase_8,128,9999,9999,9999,9999,809245760
8,22,Ticks_Phase_8,129,9999,9999,9999,9999,810045544
8,22,Ticks_Phase_8,130,9999,9999,9999,9999,810845256
8,22,Ticks_Phase_8,131,9999,9999,9999,9999,811805760
8,22,Ticks_Phase_8,132,9999,9999,9999,9999,812605492
8,22,Ticks_Phase_8,133,9999,9999,9999,9999,813405280
8,22,Ticks_Phase_8,134,9999,9999,9999,9999,814206036
8,22,Ticks_Phase_8,135,9999,9999,9999,9999,815005788
8,22,Ticks_Phase_8,136,9999,9999,9999,9999,815805500
8,22,Ticks_Phase_8,137,9999,9999,9999,9999,816605288
8,22,Ticks_Phase_8,138,9999,9999,9999,9999,817406048
8,22,Ticks_Phase_8,139,9999,9999,9999,9999,818205760
8,22,Ticks_Phase_8,140,9999,9999,9999,9999,819005544
8,22,Ticks_Phase_8,141,9999,9999,9999,9999,819805256
8,22,Ticks_Phase_8,142,9999,9999,9999,9999,820606016
8,22,Ticks_Phase_8,143,9999,9999,9999,9999,821405752
8,22,Ticks_Phase_8,144,9999,9999,9999,9999,822205544
8,22,Ticks_Phase_8,145,9999,9999,9999,9999,823005248
8,22,Ticks_Phase_8,146,9999,9999,9999,9999,823806008
8,22,Ticks_Phase_8,147,9999,9999,9999,9999,824605792
8,22,Ticks_Phase_8,148,9999,9999,9999,9999,825405504
8,22,Ticks_Phase_8,149,9999,9999,9999,9999,826205292
8,22,Ticks_Phase_8,150,9999,9999,9999,9999,826845276
8,22,Ticks_Phase_8,151,9999,9999,9999,9999,827646036
8,22,Ticks_Phase_8,152,9999,9999,9999,9999,828445816
8,22,Ticks_Phase_8,153,9999,9999,9999,9999,829245528
8,22,Ticks_Phase_8,154,9999,9999,9999,9999,830045244
8,22,Ticks_Phase_8,155,9999,9999,9999,9999,830846072
8,22,Ticks_Phase_8,156,9999,9999,9999,9999,831645812
8,22,Ticks_Phase_8,157,9999,9999,9999,9999,832445524
8,22,Ticks_Phase_8,158,9999,9999,9999,9999,833245308
8,22,Ticks_Phase_8,159,9999,9999,9999,9999,834046068
8,22,Ticks_Phase_8,160,9999,9999,9999,9999,834845776
8,22,Ticks_Phase_8,161,9999,9999,9999,9999,835645564
8,22,Ticks_Phase_8,162,9999,9999,9999,9999,836445280
8,22,Ticks_Phase_8,163,9999,9999,9999,9999,837246032
8,22,Ticks_Phase_8,164,9999,9999,9999,9999,838045768
8,22,Ticks_Phase_8,165,9999,9999,9999,9999,838845556
8,22,Ticks_Phase_8,166,9999,9999,9999,9999,839645268
8,22,Ticks_Phase_8,167,9999,9999,9999,9999,840446032
8,22,Ticks_Phase_8,168,9999,9999,9999,9999,841245820
8,22,Ticks_Phase_8,169,9999,9999,9999,9999,842045532
9,21,Ticks_Linear_5,0,5,42,127,853108084
9,21,Ticks_Linear_5,1,5,42,127,853588408
9,21,Ticks_Linear_5,2,1,48,27,853757880
9,21,Ticks_Linear_5,3,5,42,127,854067664
9,21,Ticks_Linear_5,4,1,48,31,854134580
9,21,Ticks_Linear_5,5,5,42,127,854547816
9,21,Ticks_Linear_5,6,1,48,38,854590852
9,21,Ticks_Linear_5,7,5,42,127,855028048
9,21,Ticks_Linear_5,8,1,48,50,855063436
9,21,Ticks_Linear_5,9,5,42,127,855517560
9,21,Ticks_Linear_5,10,1,48,47,855530116
9,21,Ticks_Linear_5,11,5,42,127,856007976
9,21,Ticks_Linear_5,12,1,48,51,856008940
9,21,Ticks_Linear_5,13,5,42,127,856497488
9,21,Ticks_Linear_5,14,1,48,46,856505396
9,21,Ticks_Linear_5,15,5,42,127,856988048
9,21,Ticks_Linear_5,16,1,48,50,857004420
9,21,Ticks_Linear_5,17,5,42,127,857477764
9,21,Ticks_Linear_5,18,1,48,51,857498112
9,21,Ticks_Linear_5,19,1,48,46,857967236
9,21,Ticks_Linear_5,20,5,42,127,857978428
9,21,Ticks_Linear_5,21,1,48,43,858472096
9,21,Ticks_Linear_5,22,5,42,127,858477908
9,21,Ticks_Linear_5,23,5,42,127,858977688
9,21,Ticks_Linear_5,24,1,48,52,858984244
9,21,Ticks_Linear_5,25,5,42,127,859478508
9,21,Ticks_Linear_5,26,1,48,52,859487028
9,21,Ticks_Linear_5,27,5,42,127,859978212
9,21,Ticks_Linear_5,28,1,48,50,859985144
9,21,Ticks_Linear_5,29,5,42,127,860488024
9,21,Ticks_Linear_5,30,1,48,57,860497584
9,21,Ticks_Linear_5,31,1,48,52,860995524
9,21,Ticks_Linear_5,32,5,42,127,860998124
9,21,Ticks_Linear_5,33,1,48,53,861467832
9,21,Ticks_Linear_5,34,5,42,127,861508008
9,21,Ticks_Linear_5,35,1,48,49,861992016
9,21,Ticks_Linear_5,36,5,42,127,862017968
9,21,Ticks_Linear_5,37,1,48,49,862481228
9,21,Ticks_Linear_5,38,5,42,127,862527856
9,21,Ticks_Linear_5,39,1,48,51,863011112
9,21,Ticks_Linear_5,40,5,42,127,863047924
9,21,Ticks_Linear_5,41,1,48,53,863544652
9,21,Ticks_Linear_5,42,5,42,127,863568440
9,21,Ticks_Linear_5,43,1,48,54,864049148
9,21,Ticks_Linear_5,44,5,42,127,864088432
9,21,Ticks_Linear_5,45,1,48,52,864564424
9,21,Ticks_Linear_5,46,5,42,127,864617716
9,21,Ticks_Linear_5,47,1,48,51,865114668
9,21,Ticks_Linear_5,48,5,42,127,865137932
9,21,Ticks_Linear_5,49,1,48,49,865615940
9,21,Ticks_Linear_5,50,5,42,127,865667436
9,21,Ticks_Linear_5,51,1,48,45,866154056
9,21,Ticks_Linear_5,52,5,42,127,866197916
9,21,Ticks_Linear_5,53,1,48,51,866696380
9,21,Ticks_Linear_5,54,5,42,127,866728192
9,21,Ticks_Linear_5,55,1,48,44,867230920
9,21,Ticks_Linear_5,56,5,42,127,867257696
9,21,Ticks_Linear_5,57,1,48,48,867780648
9,21,Ticks_Linear_5,58,5,42,127,867788324
9,21,Ticks_Linear_5,59,1,48,40,868323996
9,21,Ticks_Linear_5,60,5,42,127,868327788
9,21,Ticks_Linear_5,61,1,48,46,868830068
9,21,Ticks_Linear_5,62,5,42,127,868867404
9,21,Ticks_Linear_5,63,1,48,39,869395512
9,21,Ticks_Linear_5,64,5,42,127,869408068
9,21,Ticks_Linear_5,65,1,48,44,869946784
9,21,Ticks_Linear_5,66,5,42,127,869948352
9,21,Ticks_Linear_5,67,1,48,42,870488428
9,21,Ticks_Linear_5,68,5,42,127,870489836
9,21,Ticks_Linear_5,69,1,48,42,871037580
9,21,Ticks_Linear_5,70,5,42,127,871047432
9,21,Ticks_Linear_5,71,1,48,40,871579168
9,21,Ticks_Linear_5,72,5,42,127,871597408
9,21,Ticks_Linear_5,73,1,48,37,872142588
9,21,Ticks_Linear_5,74,5,42,127,872148328
9,21,Ticks_Linear_5,75,1,48,43,872698656
9,21,Ticks_Linear_5,76,5,42,127,872699768
9,21,Ticks_Linear_5,77,5,42,127,873248160
9,21,Ticks_Linear_5,78,1,48,39,873261388
9,21,Ticks_Linear_5,79,5,42,127,873808288
9,21,Ticks_Linear_5,80,1,48,40,873820396
9,21,Ticks_Linear_5,81,1,48,37,874348084
9,21,Ticks_Linear_5,82,5,42,127,874368416
9,21,Ticks_Linear_5,83,1,48,46,874895324
9,21,Ticks_Linear_5,84,5,42,127,874927380
9,21,Ticks_Linear_5,85,1,48,46,875451596
9,21,Ticks_Linear_5,86,5,42,127,875487584
9,21,Ticks_Linear_5,87,1,48,42,876016980
9,21,Ticks_Linear_5,88,5,42,127,876047648
9,21,Ticks_Linear_5,89,1,48,39,876594552
9,21,Ticks_Linear_5,90,5,42,127,876618188
9,21,Ticks_Linear_5,91,1,48,44,877165708
9,21,Ticks_Linear_5,92,5,42,127,877187384
9,21,Ticks_Linear_5,93,1,48,44,877721936
9,21,Ticks_Linear_5,94,5,42,127,877757924
9,21,Ticks_Linear_5,95,1,48,42,878259156
9,21,Ticks_Linear_5,96,5,42,127,878328168
9,21,Ticks_Linear_5,97,1,48,44,878827832
9,21,Ticks_Linear_5,98,5,42,127,878897664
9,21,Ticks_Linear_5,99,1,48,43,879424948
9,21,Ticks_Linear_5,100,5,42,127,879478092
9,21,Ticks_Linear_5,101,1,48,47,880014212
9,21,Ticks_Linear_5,102,5,42,127,880057720
9,21,Ticks_Linear_5,103,1,48,42,880594812
9,21,Ticks_Linear_5,104,5,42,127,880638448
9,21,Ticks_Linear_5,105,1,48,44,881203176
9,21,Ticks_Linear_5,106,5,42,127,881218128
9,21,Ticks_Linear_5,107,1,48,38,881761444
9,21,Ticks_Linear_5,108,5,42,127,881797508
9,21,Ticks_Linear_5,109,1,48,33,882322700
9,21,Ticks_Linear_5,110,5,42,127,882388220
9,21,Ticks_Linear_5,111,1,48,46,882920828
9,21,Ticks_Linear_5,112,5,42,127,882978156
9,21,Ticks_Linear_5,113,1,48,54,883540644
9,21,Ticks_Linear_5,114,5,42,127,883568024
9,21,Ticks_Linear_5,115,1,48,39,884131956
9,21,Ticks_Linear_5,116,5,42,127,884157984
9,21,Ticks_Linear_5,117,1,48,47,884731032
9,21,Ticks_Linear_5,118,5,42,127,884747776
9,21,Ticks_Linear_5,119,1,48,33,885307944
9,21,Ticks_Linear_5,120,5,42,127,885348120
9,21,Ticks_Linear_5,121,1,48,47,885899828
9,21,Ticks_Linear_5,122,5,42,127,885947896
9,21,Ticks_Linear_5,123,1,48,39,886503336
9,21,Ticks_Linear_5,124,5,42,127,886548020
9,21,Ticks_Linear_5,125,1,48,48,887082572
9,21,Ticks_Linear_5,126,5,42,127,887147920
9,21,Ticks_Linear_5,127,1,48,42,887704784
9,21,Ticks_Linear_5,128,5,42,127,887748068
9,21,Ticks_Linear_5,129,1,48,44,888268548
9,21,Ticks_Linear_5,130,5,42,127,888358228
9,21,Ticks_Linear_5,131,1,48,43,888911428
9,21,Ticks_Linear_5,132,5,42,127,888967488
9,21,Ticks_Linear_5,133,1,48,44,889505880
9,21,Ticks_Linear_5,134,5,42,127,889577820
9,21,Ticks_Linear_5,135,1,48,44,890107968
9,21,Ticks_Linear_5,136,5,42,127,890188204
9,21,Ticks_Linear_5,137,1,48,43,890743128
9,21,Ticks_Linear_5,138,5,42,127,890797716
9,21,Ticks_Linear_5,139,1,48,43,891397352
9,21,Ticks_Linear_5,140,5,42,127,891417908
9,21,Ticks_Linear_5,141,1,48,44,892026008
9,21,Ticks_Linear_5,142,5,42,127,892037428
9,21,Ticks_Linear_5,143,5,42,127,892657952
9,21,Ticks_Linear_5,144,1,48,49,892663016
9,21,Ticks_Linear_5,145,5,42,127,893277696
9,21,Ticks_Linear_5,146,1,48,41,893308228
9,21,Ticks_Linear_5,147,1,48,43,893888500
9,21,Ticks_Linear_5,148,5,42,127,893898204
9,21,Ticks_Linear_5,149,1,48,42,894497540
9,21,Ticks_Linear_5,150,5,42,127,894527984
9,21,Ticks_Linear_5,151,1,48,44,895107996
9,21,Ticks_Linear_5,152,5,42,127,895157564
9,21,Ticks_Linear_5,153,1,48,49,895766564
9,21,Ticks_Linear_5,154,5,42,127,895788612
9,21,Ticks_Linear_5,155,5,42,127,896418200
9,21,Ticks_Linear_5,156,1,48,44,896491188
9,21,Ticks_Linear_5,157,5,42,127,897048056
9,21,Ticks_Linear_5,158,1,48,40,897063820
9,21,Ticks_Linear_5,159,1,48,46,897650076
9,21,Ticks_Linear_5,160,5,42,127,897688012
9,21,Ticks_Linear_5,161,1,48,48,898300620
9,21,Ticks_Linear_5,162,5,42,127,898327924
9,21,Ticks_Linear_5,163,1,48,43,898928160
9,21,Ticks_Linear_5,164,5,42,127,898967812
9,21,Ticks_Linear_5,165,1,48,47,899569564
9,21,Ticks_Linear_5,166,5,42,127,899607876
9,21,Ticks_Linear_5,167,1,48,41,900213564
9,21,Ticks_Linear_5,168,5,42,127,900247912
9,21,Ticks_Linear_5,169,1,48,50,900883736
9,21,Ticks_Linear_5,170,5,42,127,900898460
9,21,Ticks_Linear_5,171,5,42,127,901548492
9,21,Ticks_Linear_5,172,1,48,39,901561192
9,21,Ticks_Linear_5,173,1,48,49,902176880
9,21,Ticks_Linear_5,174,5,42,127,902197584
9,21,Ticks_Linear_5,175,1,48,46,902818140
9,21,Ticks_Linear_5,176,5,42,127,902847832
9,21,Ticks_Linear_5,177,5,42,127,903498060
9,21,Ticks_Linear_5,178,1,48,45,903508076
9,21,Ticks_Linear_5,179,5,42,127,904157448
9,21,Ticks_Linear_5,180,1,48,38,904186032
9,21,Ticks_Linear_5,181,1,48,39,904793832
9,21,Ticks_Linear_5,182,5,42,127,904817996
9,21,Ticks_Linear_5,183,1,48,38,905432924
9,21,Ticks_Linear_5,184,5,42,127,905477380
9,21,Ticks_Linear_5,185,1,48,38,906114448
9,21,Ticks_Linear_5,186,5,42,127,906138112
9,21,Ticks_Linear_5,187,1,48,43,906770244
9,21,Ticks_Linear_5,188,5,42,127,906797396
9,21,Ticks_Linear_5,189,1,48,40,907417348
9,21,Ticks_Linear_5,190,5,42,127,907468384
9,21,Ticks_Linear_5,191,1,48,34,908122160
9,21,Ticks_Linear_5,192,5,42,127,908137856
9,21,Ticks_Linear_5,193,1,48,35,908795688
9,21,Ticks_Linear_5,194,5,42,127,908807500
9,21,Ticks_Linear_5,195,1,48,37,909449068
9,21,Ticks_Linear_5,196,5,42,127,909478488
9,21,Ticks_Linear_5,197,1,48,38,910099916
9,21,Ticks_Linear_5,198,5,42,127,910147888
9,21,Ticks_Linear_5,199,1,48,39,910784832
9,21,Ticks_Linear_5,200,5,42,127,910828012
9,21,Ticks_Linear_5,201,1,48,32,911439032
9,21,Ticks_Linear_5,202,5,42,127,911507744
9,21,Ticks_Linear_5,203,1,48,42,912131060
9,21,Ticks_Linear_5,204,5,42,127,912187648
9,21,Ticks_Linear_5,205,1,48,41,912852156
9,21,Ticks_Linear_5,206,5,42,127,912867700
9,21,Ticks_Linear_5,207,5,42,127,913547588
9,21,Ticks_Linear_5,208,1,48,43,913558724
9,21,Ticks_Linear_5,209,1,48,28,914232752
9,21,Ticks_Linear_5,210,5,42,127,914237820
9,21,Ticks_Linear_5,211,1,48,41,914908472
9,21,Ticks_Linear_5,212,5,42,127,914928204
9,21,Ticks_Linear_5,213,5,42,127,915618372
9,21,Ticks_Linear_5,214,1,48,43,915629656
9,21,Ticks_Linear_5,215,5,42,127,916308288
9,21,Ticks_Linear_5,216,1,48,36,916322036
9,21,Ticks_Linear_5,217,1,48,40,916989192
9,21,Ticks_Linear_5,218,5,42,127,916997620
9,21,Ticks_Linear_5,219,1,48,39,917643004
9,21,Ticks_Linear_5,220,5,42,127,917698044
9,21,Ticks_Linear_5,221,1,48,38,918297008
9,21,Ticks_Linear_5,222,5,42,127,918398204
9,21,Ticks_Linear_5,223,5,42,127,919097676
9,21,Ticks_Linear_5,224,1,48,36,919117792
9,21,Ticks_Linear_5,225,5,42,127,919798244
9,21,Ticks_Linear_5,226,1,48,45,919804800
9,21,Ticks_Linear_5,227,1,48,35,920460852
9,21,Ticks_Linear_5,228,5,42,127,920497464
9,21,Ticks_Linear_5,229,5,42,127,921208128
9,21,Ticks_Linear_5,230,1,48,44,921237460
9,21,Ticks_Linear_5,231,1,48,36,921893220
9,21,Ticks_Linear_5,232,5,42,127,921917904
9,21,Ticks_Linear_5,233,1,48,45,922609152
9,21,Ticks_Linear_5,234,5,42,127,922627392
9,21,Ticks_Linear_5,235,1,48,42,923326420
9,21,Ticks_Linear_5,236,5,42,127,923338072
9,21,Ticks_Linear_5,237,5,42,127,924047836
9,21,Ticks_Linear_5,238,1,48,45,924054024
9,21,Ticks_Linear_5,239,5,42,127,924767732
9,21,Ticks_Linear_5,240,1,48,40,924805900
9,21,Ticks_Linear_5,241,1,48,40,925481432
9,21,Ticks_Linear_5,242,5,42,127,925487392
9,21,Ticks_Linear_5,243,1,48,41,926203644
9,21,Ticks_Linear_5,244,5,42,127,926208408
9,21,Ticks_Linear_5,245,1,48,38,926893804
9,21,Ticks_Linear_5,246,5,42,127,926928152
9,21,Ticks_Linear_5,247,1,48,45,927602896
9,21,Ticks_Linear_5,248,5,42,127,927648048
9,21,Ticks_Linear_5,249,1,48,44,928342852
9,21,Ticks_Linear_5,250,5,42,127,928378172
9,21,Ticks_Linear_5,251,1,48,42,929075860
9,21,Ticks_Linear_5,252,5,42,127,929108400
9,21,Ticks_Linear_5,253,1,48,38,929791776
9,21,Ticks_Linear_5,254,5,42,127,929837504
9,21,Ticks_Linear_5,255,1,48,45,930530772
9,21,Ticks_Linear_5,256,5,42,127,930567808
9,21,Ticks_Linear_5,257,1,48,45,931277328
9,21,Ticks_Linear_5,258,5,42,127,931297808
9,21,Ticks_Linear_5,259,1,48,44,932005148
9,21,Ticks_Linear_5,260,5,42,127,932037924
9,21,Ticks_Linear_5,261,1,48,41,932759200
9,21,Ticks_Linear_5,262,5,42,127,932778484
9,21,Ticks_Linear_5,263,1,48,40,933486788
9,21,Ticks_Linear_5,264,5,42,127,933517900
9,21,Ticks_Linear_5,265,1,48,43,934231684
9,21,Ticks_Linear_5,266,5,42,127,934258012
9,21,Ticks_Linear_5,267,1,48,39,934964604
9,21,Ticks_Linear_5,268,5,42,127,934998428
9,21,Ticks_Linear_5,269,1,48,41,935721868
9,21,Ticks_Linear_5,270,5,42,127,935747976
9,21,Ticks_Linear_5,271,1,48,36,936449256
9,21,Ticks_Linear_5,272,5,42,127,936497672
9,21,Ticks_Linear_5,273,1,48,44,937177464
9,21,Ticks_Linear_5,274,5,42,127,937248044
9,21,Ticks_Linear_5,275,1,48,40,937953812
9,21,Ticks_Linear_5,276,5,42,127,937997668
9,21,Ticks_Linear_5,277,1,48,44,938716328
9,21,Ticks_Linear_5,278,5,42,127,938748340
9,21,Ticks_Linear_5,279,1,48,44,939446632
9,21,Ticks_Linear_5,280,5,42,127,939508224
9,21,Ticks_Linear_5,281,1,48,45,940224628
9,21,Ticks_Linear_5,282,5,42,127,940267884
9,21,Ticks_Linear_5,283,1,48,48,940985864
9,21,Ticks_Linear_5,284,5,42,127,941027692
9,21,Ticks_Linear_5,285,5,42,127,941787656
9,21,Ticks_Linear_5,286,1,48,46,941794960
9,21,Ticks_Linear_5,287,5,42,127,942548512
9,21,Ticks_Linear_5,288,1,48,51,942577700
9,21,Ticks_Linear_5,289,1,48,38,943308276
9,21,Ticks_Linear_5,290,5,42,127,943318496
9,21,Ticks_Linear_5,291,1,48,41,944049736
9,21,Ticks_Linear_5,292,5,42,127,944088568
9,21,Ticks_Linear_5,293,1,48,34,944805416
9,21,Ticks_Linear_5,294,5,42,127,944867772
9,21,Ticks_Linear_5,295,1,48,43,945549856
9,21,Ticks_Linear_5,296,5,42,127,945637764
9,21,Ticks_Linear_5,297,1,48,44,946363224
9,21,Ticks_Linear_5,298,5,42,127,946407684
9,21,Ticks_Linear_5,299,1,48,42,947176888
9,21,Ticks_Linear_5,300,5,42,127,947188160
9,21,Ticks_Linear_5,301,5,42,127,947968416
9,21,Ticks_Linear_5,302,1,48,46,947999172
9,21,Ticks_Linear_5,303,1,48,50,948692972
9,21,Ticks_Linear_5,304,5,42,127,948747692
9,21,Ticks_Linear_5,305,1,48,47,949504156
9,21,Ticks_Linear_5,306,5,42,127,949527868
9,21,Ticks_Linear_5,307,5,42,127,950308500
9,21,Ticks_Linear_5,308,1,48,52,950323300
9,21,Ticks_Linear_5,309,1,48,50,951077928
9,21,Ticks_Linear_5,310,5,42,127,951097660
9,21,Ticks_Linear_5,311,1,48,42,951871200
9,21,Ticks_Linear_5,312,5,42,127,951888468
9,21,Ticks_Linear_5,313,1,48,43,952629444
9,21,Ticks_Linear_5,314,5,42,127,952677860
9,21,Ticks_Linear_5,315,1,48,42,953417184
9,21,Ticks_Linear_5,316,5,42,127,953468368
9,21,Ticks_Linear_5,317,1,48,50,954241172
9,21,Ticks_Linear_5,318,5,42,127,954257836
9,21,Ticks_Linear_5,319,1,48,47,955057296
9,21,Ticks_Linear_5,320,5,42,127,955058708
9,21,Ticks_Linear_5,321,1,48,43,955840040
9,21,Ticks_Linear_5,322,5,42,127,955858280
9,21,Ticks_Linear_5,323,1,48,50,956616700
9,21,Ticks_Linear_5,324,5,42,127,956658080
9,21,Ticks_Linear_5,325,1,48,38,957414768
9,21,Ticks_Linear_5,326,5,42,127,957457728
9,21,Ticks_Linear_5,327,1,48,42,958187168
9,21,Ticks_Linear_5,328,5,42,127,958257524
9,21,Ticks_Linear_5,329,1,48,39,959044096
9,21,Ticks_Linear_5,330,5,42,127,959067508
9,21,Ticks_Linear_5,331,1,48,41,959825688
9,21,Ticks_Linear_5,332,5,42,127,959877564
9,21,Ticks_Linear_5,333,1,48,45,960654996
9,21,Ticks_Linear_5,334,5,42,127,960687424
9,21,Ticks_Linear_5,335,1,48,48,961479692
9,21,Ticks_Linear_5,336,5,42,127,961497404
9,21,Ticks_Linear_5,337,5,42,127,962307396
9,21,Ticks_Linear_5,0,9999,9999,9999,9999,853105784
9,21,Ticks_Linear_5,1,9999,9999,9999,9999,853586032
9,21,Ticks_Linear_5,2,9999,9999,9999,9999,854065216
9,21,Ticks_Linear_5,3,9999,9999,9999,9999,854545516
9,21,Ticks_Linear_5,4,9999,9999,9999,9999,855025744
9,21,Ticks_Linear_5,5,9999,9999,9999,9999,855515260
9,21,Ticks_Linear_5,6,9999,9999,9999,9999,856005748
9,21,Ticks_Linear_5,7,9999,9999,9999,9999,856495188
9,21,Ticks_Linear_5,8,9999,9999,9999,9999,856985724
9,21,Ticks_Linear_5,9,9999,9999,9999,9999,857475164
9,21,Ticks_Linear_5,10,9999,9999,9999,9999,857975904
9,21,Ticks_Linear_5,11,9999,9999,9999,9999,858475608
9,21,Ticks_Linear_5,12,9999,9999,9999,9999,858975312
9,21,Ticks_Linear_5,13,9999,9999,9999,9999,859476060
9,21,Ticks_Linear_5,14,9999,9999,9999,9999,859975760
9,21,Ticks_Linear_5,15,9999,9999,9999,9999,860485720
9,21,Ticks_Linear_5,16,9999,9999,9999,9999,860995672
9,21,Ticks_Linear_5,17,9999,9999,9999,9999,861505632
9,21,Ticks_Linear_5,18,9999,9999,9999,9999,862015596
9,21,Ticks_Linear_5,19,9999,9999,9999,9999,862525552
9,21,Ticks_Linear_5,20,9999,9999,9999,9999,863045696
9,21,Ticks_Linear_5,21,9999,9999,9999,9999,863565916
9,21,Ticks_Linear_5,22,9999,9999,9999,9999,864086136
9,21,Ticks_Linear_5,23,9999,9999,9999,9999,864615488
9,21,Ticks_Linear_5,24,9999,9999,9999,9999,865135704
9,21,Ticks_Linear_5,25,9999,9999,9999,9999,865665136
9,21,Ticks_Linear_5,26,9999,9999,9999,9999,866195540
9,21,Ticks_Linear_5,27,9999,9999,9999,9999,866725964
9,21,Ticks_Linear_5,28,9999,9999,9999,9999,867255396
9,21,Ticks_Linear_5,29,9999,9999,9999,9999,867785800
9,21,Ticks_Linear_5,30,9999,9999,9999,9999,868325488
9,21,Ticks_Linear_5,31,9999,9999,9999,9999,868865104
9,21,Ticks_Linear_5,32,9999,9999,9999,9999,869405768
9,21,Ticks_Linear_5,33,9999,9999,9999,9999,869945460
9,21,Ticks_Linear_5,34,9999,9999,9999,9999,870486128
9,21,Ticks_Linear_5,35,9999,9999,9999,9999,871045208
9,21,Ticks_Linear_5,36,9999,9999,9999,9999,871595108
9,21,Ticks_Linear_5,37,9999,9999,9999,9999,872146028
9,21,Ticks_Linear_5,38,9999,9999,9999,9999,872695908
9,21,Ticks_Linear_5,39,9999,9999,9999,9999,873245784
9,21,Ticks_Linear_5,40,9999,9999,9999,9999,873805916
9,21,Ticks_Linear_5,41,9999,9999,9999,9999,874366040
9,21,Ticks_Linear_5,42,9999,9999,9999,9999,874925152
9,21,Ticks_Linear_5,43,9999,9999,9999,9999,875485284
9,21,Ticks_Linear_5,44,9999,9999,9999,9999,876045420
9,21,Ticks_Linear_5,45,9999,9999,9999,9999,876615740
9,21,Ticks_Linear_5,46,9999,9999,9999,9999,877185084
9,21,Ticks_Linear_5,47,9999,9999,9999,9999,877755476
9,21,Ticks_Linear_5,48,9999,9999,9999,9999,878325868
9,21,Ticks_Linear_5,49,9999,9999,9999,9999,878895212
9,21,Ticks_Linear_5,50,9999,9999,9999,9999,879475792
9,21,Ticks_Linear_5,51,9999,9999,9999,9999,880055420
9,21,Ticks_Linear_5,52,9999,9999,9999,9999,880636000
9,21,Ticks_Linear_5,53,9999,9999,9999,9999,881215604
9,21,Ticks_Linear_5,54,9999,9999,9999,9999,881795132
9,21,Ticks_Linear_5,55,9999,9999,9999,9999,882385992
9,21,Ticks_Linear_5,56,9999,9999,9999,9999,882975856
9,21,Ticks_Linear_5,57,9999,9999,9999,9999,883565648
9,21,Ticks_Linear_5,58,9999,9999,9999,9999,884155460
9,21,Ticks_Linear_5,59,9999,9999,9999,9999,884745324
9,21,Ticks_Linear_5,60,9999,9999,9999,9999,885345376
9,21,Ticks_Linear_5,61,9999,9999,9999,9999,885945444
9,21,Ticks_Linear_5,62,9999,9999,9999,9999,886545496
9,21,Ticks_Linear_5,63,9999,9999,9999,9999,887145544
9,21,Ticks_Linear_5,64,9999,9999,9999,9999,887745616
9,21,Ticks_Linear_5,65,9999,9999,9999,9999,888355928
9,21,Ticks_Linear_5,66,9999,9999,9999,9999,888965188
9,21,Ticks_Linear_5,67,9999,9999,9999,9999,889575520
9,21,Ticks_Linear_5,68,9999,9999,9999,9999,890185832
9,21,Ticks_Linear_5,69,9999,9999,9999,9999,890795116
9,21,Ticks_Linear_5,70,9999,9999,9999,9999,891415608
9,21,Ticks_Linear_5,71,9999,9999,9999,9999,892035128
9,21,Ticks_Linear_5,72,9999,9999,9999,9999,892655724
9,21,Ticks_Linear_5,73,9999,9999,9999,9999,893275244
9,21,Ticks_Linear_5,74,9999,9999,9999,9999,893895752
9,21,Ticks_Linear_5,75,9999,9999,9999,9999,894525536
9,21,Ticks_Linear_5,76,9999,9999,9999,9999,895155264
9,21,Ticks_Linear_5,77,9999,9999,9999,9999,895786088
9,21,Ticks_Linear_5,78,9999,9999,9999,9999,896415824
9,21,Ticks_Linear_5,79,9999,9999,9999,9999,897045604
9,21,Ticks_Linear_5,80,9999,9999,9999,9999,897685560
9,21,Ticks_Linear_5,81,9999,9999,9999,9999,898325624
9,21,Ticks_Linear_5,82,9999,9999,9999,9999,898965588
9,21,Ticks_Linear_5,83,9999,9999,9999,9999,899605576
9,21,Ticks_Linear_5,84,9999,9999,9999,9999,900245612
9,21,Ticks_Linear_5,85,9999,9999,9999,9999,900895860
9,21,Ticks_Linear_5,86,9999,9999,9999,9999,901546040
9,21,Ticks_Linear_5,87,9999,9999,9999,9999,902195284
9,21,Ticks_Linear_5,88,9999,9999,9999,9999,902845532
9,21,Ticks_Linear_5,89,9999,9999,9999,9999,903495760
9,21,Ticks_Linear_5,90,9999,9999,9999,9999,904155220
9,21,Ticks_Linear_5,91,9999,9999,9999,9999,904815696
9,21,Ticks_Linear_5,92,9999,9999,9999,9999,905475156
9,21,Ticks_Linear_5,93,9999,9999,9999,9999,906135636
9,21,Ticks_Linear_5,94,9999,9999,9999,9999,906795096
9,21,Ticks_Linear_5,95,9999,9999,9999,9999,907465788
9,21,Ticks_Linear_5,96,9999,9999,9999,9999,908135480
9,21,Ticks_Linear_5,97,9999,9999,9999,9999,908805200
9,21,Ticks_Linear_5,98,9999,9999,9999,9999,909475964
9,21,Ticks_Linear_5,99,9999,9999,9999,9999,910145660
9,21,Ticks_Linear_5,100,9999,9999,9999,9999,910825564
9,21,Ticks_Linear_5,101,9999,9999,9999,9999,911505516
9,21,Ticks_Linear_5,102,9999,9999,9999,9999,912185420
9,21,Ticks_Linear_5,103,9999,9999,9999,9999,912865400
9,21,Ticks_Linear_5,104,9999,9999,9999,9999,913545284
9,21,Ticks_Linear_5,105,9999,9999,9999,9999,914235516
9,21,Ticks_Linear_5,106,9999,9999,9999,9999,914925680
9,21,Ticks_Linear_5,107,9999,9999,9999,9999,915615848
9,21,Ticks_Linear_5,108,9999,9999,9999,9999,916305984
9,21,Ticks_Linear_5,109,9999,9999,9999,9999,916995168
9,21,Ticks_Linear_5,110,9999,9999,9999,9999,917695592
9,21,Ticks_Linear_5,111,9999,9999,9999,9999,918395976
9,21,Ticks_Linear_5,112,9999,9999,9999,9999,919095376
9,21,Ticks_Linear_5,113,9999,9999,9999,9999,919795796
9,21,Ticks_Linear_5,114,9999,9999,9999,9999,920495164
9,21,Ticks_Linear_5,115,9999,9999,9999,9999,921205828
9,21,Ticks_Linear_5,116,9999,9999,9999,9999,921915452
9,21,Ticks_Linear_5,117,9999,9999,9999,9999,922625088
9,21,Ticks_Linear_5,118,9999,9999,9999,9999,923335772
9,21,Ticks_Linear_5,119,9999,9999,9999,9999,924045388
9,21,Ticks_Linear_5,120,9999,9999,9999,9999,924765280
9,21,Ticks_Linear_5,121,9999,9999,9999,9999,925485168
9,21,Ticks_Linear_5,122,9999,9999,9999,9999,926206032
9,21,Ticks_Linear_5,123,9999,9999,9999,9999,926925928
9,21,Ticks_Linear_5,124,9999,9999,9999,9999,927645820
9,21,Ticks_Linear_5,125,9999,9999,9999,9999,928375872
9,21,Ticks_Linear_5,126,9999,9999,9999,9999,929106024
9,21,Ticks_Linear_5,127,9999,9999,9999,9999,929835128
9,21,Ticks_Linear_5,128,9999,9999,9999,9999,930565208
9,21,Ticks_Linear_5,129,9999,9999,9999,9999,931295284
9,21,Ticks_Linear_5,130,9999,9999,9999,9999,932035700
9,21,Ticks_Linear_5,131,9999,9999,9999,9999,932776036
9,21,Ticks_Linear_5,132,9999,9999,9999,9999,933515376
9,21,Ticks_Linear_5,133,9999,9999,9999,9999,934255712
9,21,Ticks_Linear_5,134,9999,9999,9999,9999,934996052
9,21,Ticks_Linear_5,135,9999,9999,9999,9999,935745600
9,21,Ticks_Linear_5,136,9999,9999,9999,9999,936495224
9,21,Ticks_Linear_5,137,9999,9999,9999,9999,937245820
9,21,Ticks_Linear_5,138,9999,9999,9999,9999,937995368
9,21,Ticks_Linear_5,139,9999,9999,9999,9999,938745964
9,21,Ticks_Linear_5,140,9999,9999,9999,9999,939505772
9,21,Ticks_Linear_5,141,9999,9999,9999,9999,940265584
9,21,Ticks_Linear_5,142,9999,9999,9999,9999,941025392
9,21,Ticks_Linear_5,143,9999,9999,9999,9999,941785204
9,21,Ticks_Linear_5,144,9999,9999,9999,9999,942545988
9,21,Ticks_Linear_5,145,9999,9999,9999,9999,943316048
9,21,Ticks_Linear_5,146,9999,9999,9999,9999,944086120
9,21,Ticks_Linear_5,147,9999,9999,9999,9999,944865396
9,21,Ticks_Linear_5,148,9999,9999,9999,9999,945635388
9,21,Ticks_Linear_5,149,9999,9999,9999,9999,946405456
9,21,Ticks_Linear_5,150,9999,9999,9999,9999,947185784
9,21,Ticks_Linear_5,151,9999,9999,9999,9999,947966040
9,21,Ticks_Linear_5,152,9999,9999,9999,9999,948745316
9,21,Ticks_Linear_5,153,9999,9999,9999,9999,949525568
9,21,Ticks_Linear_5,154,9999,9999,9999,9999,950305900
9,21,Ticks_Linear_5,155,9999,9999,9999,9999,951095360
9,21,Ticks_Linear_5,156,9999,9999,9999,9999,951885944
9,21,Ticks_Linear_5,157,9999,9999,9999,9999,952675408
9,21,Ticks_Linear_5,158,9999,9999,9999,9999,953465920
9,21,Ticks_Linear_5,159,9999,9999,9999,9999,954255460
9,21,Ticks_Linear_5,160,9999,9999,9999,9999,955055216
9,21,Ticks_Linear_5,161,9999,9999,9999,9999,955855980
9,21,Ticks_Linear_5,162,9999,9999,9999,9999,956655704
9,21,Ticks_Linear_5,163,9999,9999,9999,9999,957455428
9,21,Ticks_Linear_5,164,9999,9999,9999,9999,958255224
9,21,Ticks_Linear_5,165,9999,9999,9999,9999,959065208
9,21,Ticks_Linear_5,166,9999,9999,9999,9999,959875188
9,21,Ticks_Linear_5,167,9999,9999,9999,9999,960685124
9,21,Ticks_Linear_5,168,9999,9999,9999,9999,961495104
9,21,Ticks_Linear_5,169,9999,9999,9999,9999,962305092
10,20,Ticks_Linear_8,0,5,42,127,973683980
10,20,Ticks_Linear_8,1,1,48,38,974265828
10,20,Ticks_Linear_8,2,5,42,127,974504320
10,20,Ticks_Linear_8,3,1,48,36,975299600
10,20,Ticks_Linear_8,4,5,42,127,975323384
10,20,Ticks_Linear_8,5,1,48,43,976101728
10,20,Ticks_Linear_8,6,5,42,127,976143848
10,20,Ticks_Linear_8,7,1,48,45,976909976
10,20,Ticks_Linear_8,8,5,42,127,976963868
10,20,Ticks_Linear_8,9,1,48,36,977764600
10,20,Ticks_Linear_8,10,5,42,127,977773924
10,20,Ticks_Linear_8,11,1,48,44,978524488
10,20,Ticks_Linear_8,12,5,42,127,978583784
10,20,Ticks_Linear_8,13,1,48,49,979325256
10,20,Ticks_Linear_8,14,5,42,127,979393916
10,20,Ticks_Linear_8,15,1,48,45,980175848
10,20,Ticks_Linear_8,16,5,42,127,980203900
10,20,Ticks_Linear_8,17,1,48,44,980968832
10,20,Ticks_Linear_8,18,5,42,127,981013812
10,20,Ticks_Linear_8,19,1,48,41,981757328
10,20,Ticks_Linear_8,20,5,42,127,981813832
10,20,Ticks_Linear_8,21,1,48,44,982585280
10,20,Ticks_Linear_8,22,5,42,127,982614528
10,20,Ticks_Linear_8,23,5,42,127,983414108
10,20,Ticks_Linear_8,24,1,48,32,983423744
10,20,Ticks_Linear_8,25,1,48,43,984193420
10,20,Ticks_Linear_8,26,5,42,127,984213852
10,20,Ticks_Linear_8,27,1,48,43,984967676
10,20,Ticks_Linear_8,28,5,42,127,985013800
10,20,Ticks_Linear_8,29,1,48,47,985799252
10,20,Ticks_Linear_8,30,5,42,127,985804088
10,20,Ticks_Linear_8,31,5,42,127,986593712
10,20,Ticks_Linear_8,32,1,48,38,986603272
10,20,Ticks_Linear_8,33,1,48,40,987335644
10,20,Ticks_Linear_8,34,5,42,127,987384212
10,20,Ticks_Linear_8,35,5,42,127,988173684
10,20,Ticks_Linear_8,36,1,48,46,988184072
10,20,Ticks_Linear_8,37,1,48,48,988946172
10,20,Ticks_Linear_8,38,5,42,127,988964340
10,20,Ticks_Linear_8,39,1,48,36,989719612
10,20,Ticks_Linear_8,40,5,42,127,989743472
10,20,Ticks_Linear_8,41,1,48,40,990520384
10,20,Ticks_Linear_8,42,5,42,127,990523796
10,20,Ticks_Linear_8,43,1,48,38,991289380
10,20,Ticks_Linear_8,44,5,42,127,991304100
10,20,Ticks_Linear_8,45,5,42,127,992084432
10,20,Ticks_Linear_8,46,1,48,41,992105976
10,20,Ticks_Linear_8,47,1,48,37,992840516
10,20,Ticks_Linear_8,48,5,42,127,992863560
10,20,Ticks_Linear_8,49,1,48,46,993566184
10,20,Ticks_Linear_8,50,5,42,127,993633628
10,20,Ticks_Linear_8,51,1,48,48,994309812
10,20,Ticks_Linear_8,52,5,42,127,994403620
10,20,Ticks_Linear_8,53,5,42,127,995173844
10,20,Ticks_Linear_8,54,1,48,46,995174884
10,20,Ticks_Linear_8,55,1,48,46,995916080
10,20,Ticks_Linear_8,56,5,42,127,995943756
10,20,Ticks_Linear_8,57,1,48,43,996678060
10,20,Ticks_Linear_8,58,5,42,127,996713752
10,20,Ticks_Linear_8,59,1,48,41,997408288
10,20,Ticks_Linear_8,60,5,42,127,997473560
10,20,Ticks_Linear_8,61,1,48,45,998210632
10,20,Ticks_Linear_8,62,5,42,127,998233516
10,20,Ticks_Linear_8,63,1,48,44,998946552
10,20,Ticks_Linear_8,64,5,42,127,998994372
10,20,Ticks_Linear_8,65,1,48,43,999695432
10,20,Ticks_Linear_8,66,5,42,127,999754404
10,20,Ticks_Linear_8,67,1,48,39,1000457184
10,20,Ticks_Linear_8,68,5,42,127,1000513844
10,20,Ticks_Linear_8,69,5,42,127,1001263476
10,20,Ticks_Linear_8,70,1,48,39,1001277300
10,20,Ticks_Linear_8,71,1,48,49,1002004136
10,20,Ticks_Linear_8,72,5,42,127,1002014288
10,20,Ticks_Linear_8,73,1,48,35,1002743352
10,20,Ticks_Linear_8,74,5,42,127,1002763688
10,20,Ticks_Linear_8,75,1,48,44,1003482792
10,20,Ticks_Linear_8,76,5,42,127,1003514284
10,20,Ticks_Linear_8,77,1,48,46,1004239152
10,20,Ticks_Linear_8,78,5,42,127,1004263832
10,20,Ticks_Linear_8,79,1,48,37,1005002056
10,20,Ticks_Linear_8,80,5,42,127,1005004096
10,20,Ticks_Linear_8,81,1,48,47,1005707144
10,20,Ticks_Linear_8,82,5,42,127,1005743460
10,20,Ticks_Linear_8,83,1,48,43,1006442396
10,20,Ticks_Linear_8,84,5,42,127,1006484020
10,20,Ticks_Linear_8,85,1,48,43,1007165512
10,20,Ticks_Linear_8,86,5,42,127,1007224336
10,20,Ticks_Linear_8,87,1,48,44,1007856416
10,20,Ticks_Linear_8,88,5,42,127,1007963612
10,20,Ticks_Linear_8,89,1,48,42,1008641088
10,20,Ticks_Linear_8,90,5,42,127,1008693556
10,20,Ticks_Linear_8,91,1,48,46,1009414080
10,20,Ticks_Linear_8,92,5,42,127,1009423784
10,20,Ticks_Linear_8,93,1,48,46,1010144388
10,20,Ticks_Linear_8,94,5,42,127,1010154012
10,20,Ticks_Linear_8,95,5,42,127,1010884168
10,20,Ticks_Linear_8,96,1,48,46,1010896648
10,20,Ticks_Linear_8,97,5,42,127,1011614100
10,20,Ticks_Linear_8,98,1,48,45,1011624712
10,20,Ticks_Linear_8,99,5,42,127,1012334116
10,20,Ticks_Linear_8,100,1,48,44,1012336560
10,20,Ticks_Linear_8,101,5,42,127,1013053864
10,20,Ticks_Linear_8,102,1,48,43,1013068068
10,20,Ticks_Linear_8,103,5,42,127,1013773980
10,20,Ticks_Linear_8,104,1,48,44,1013778968
10,20,Ticks_Linear_8,105,1,48,46,1014451596
10,20,Ticks_Linear_8,106,5,42,127,1014493420
10,20,Ticks_Linear_8,107,1,48,46,1015170028
10,20,Ticks_Linear_8,108,5,42,127,1015213316
10,20,Ticks_Linear_8,109,1,48,41,1015891272
10,20,Ticks_Linear_8,110,5,42,127,1015923972
10,20,Ticks_Linear_8,111,1,48,44,1016596796
10,20,Ticks_Linear_8,112,5,42,127,1016633832
10,20,Ticks_Linear_8,113,1,48,43,1017303808
10,20,Ticks_Linear_8,114,5,42,127,1017344288
10,20,Ticks_Linear_8,115,5,42,127,1018054080
10,20,Ticks_Linear_8,116,1,48,40,1018066112
10,20,Ticks_Linear_8,117,1,48,42,1018758692
10,20,Ticks_Linear_8,118,5,42,127,1018763684
10,20,Ticks_Linear_8,119,5,42,127,1019464036
10,20,Ticks_Linear_8,120,1,48,36,1019469768
10,20,Ticks_Linear_8,121,5,42,127,1020163708
10,20,Ticks_Linear_8,122,1,48,45,1020190636
10,20,Ticks_Linear_8,123,1,48,38,1020856820
10,20,Ticks_Linear_8,124,5,42,127,1020863828
10,20,Ticks_Linear_8,125,1,48,42,1021559088
10,20,Ticks_Linear_8,126,5,42,127,1021564300
10,20,Ticks_Linear_8,127,1,48,37,1022252108
10,20,Ticks_Linear_8,128,5,42,127,1022263600
10,20,Ticks_Linear_8,129,1,48,38,1022909684
10,20,Ticks_Linear_8,130,5,42,127,1022953912
10,20,Ticks_Linear_8,131,1,48,42,1023631956
10,20,Ticks_Linear_8,132,5,42,127,1023644000
10,20,Ticks_Linear_8,133,5,42,127,1024334144
10,20,Ticks_Linear_8,134,1,48,42,1024340848
10,20,Ticks_Linear_8,135,1,48,47,1025024828
10,20,Ticks_Linear_8,136,5,42,127,1025026016
10,20,Ticks_Linear_8,137,1,48,44,1025705360
10,20,Ticks_Linear_8,138,5,42,127,1025713640
10,20,Ticks_Linear_8,139,5,42,127,1026393600
10,20,Ticks_Linear_8,140,1,48,41,1026420676
10,20,Ticks_Linear_8,141,5,42,127,1027074700
10,20,Ticks_Linear_8,142,1,48,44,1027093104
10,20,Ticks_Linear_8,143,5,42,127,1027763520
10,20,Ticks_Linear_8,144,1,48,46,1027775628
10,20,Ticks_Linear_8,145,1,48,43,1028433540
10,20,Ticks_Linear_8,146,5,42,127,1028443392
10,20,Ticks_Linear_8,147,5,42,127,1029123524
10,20,Ticks_Linear_8,148,1,48,45,1029139444
10,20,Ticks_Linear_8,149,1,48,46,1029792784
10,20,Ticks_Linear_8,150,5,42,127,1029794360
10,20,Ticks_Linear_8,151,5,42,127,1030463988
10,20,Ticks_Linear_8,152,1,48,47,1030465928
10,20,Ticks_Linear_8,153,1,48,46,1031131188
10,20,Ticks_Linear_8,154,5,42,127,1031133628
10,20,Ticks_Linear_8,155,1,48,48,1031803776
10,20,Ticks_Linear_8,156,5,42,127,1031805268
10,20,Ticks_Linear_8,157,1,48,48,1032462372
10,20,Ticks_Linear_8,158,5,42,127,1032473864
10,20,Ticks_Linear_8,159,1,48,41,1033125492
10,20,Ticks_Linear_8,160,5,42,127,1033133400
10,20,Ticks_Linear_8,161,1,48,48,1033773548
10,20,Ticks_Linear_8,162,5,42,127,1033794028
10,20,Ticks_Linear_8,163,1,48,45,1034412044
10,20,Ticks_Linear_8,164,5,42,127,1034454536
10,20,Ticks_Linear_8,165,1,48,47,1035053648
10,20,Ticks_Linear_8,166,5,42,127,1035113896
10,20,Ticks_Linear_8,167,1,48,41,1035763808
10,20,Ticks_Linear_8,168,5,42,127,1035774480
10,20,Ticks_Linear_8,169,1,48,47,1036420392
10,20,Ticks_Linear_8,170,5,42,127,1036423580
10,20,Ticks_Linear_8,171,1,48,46,1037058956
10,20,Ticks_Linear_8,172,5,42,127,1037073756
10,20,Ticks_Linear_8,173,1,48,44,1037706712
10,20,Ticks_Linear_8,174,5,42,127,1037724152
10,20,Ticks_Linear_8,175,1,48,40,1038346776
10,20,Ticks_Linear_8,176,5,42,127,1038374152
10,20,Ticks_Linear_8,177,1,48,47,1038993584
10,20,Ticks_Linear_8,178,5,42,127,1039023428
10,20,Ticks_Linear_8,179,1,48,43,1039636240
10,20,Ticks_Linear_8,180,5,42,127,1039663468
10,20,Ticks_Linear_8,181,1,48,48,1040257484
10,20,Ticks_Linear_8,182,5,42,127,1040303456
10,20,Ticks_Linear_8,183,1,48,39,1040895524
10,20,Ticks_Linear_8,184,5,42,127,1040943420
10,20,Ticks_Linear_8,185,1,48,45,1041543056
10,20,Ticks_Linear_8,186,5,42,127,1041583336
10,20,Ticks_Linear_8,187,1,48,46,1042189252
10,20,Ticks_Linear_8,188,5,42,127,1042223524
10,20,Ticks_Linear_8,189,1,48,45,1042830936
10,20,Ticks_Linear_8,190,5,42,127,1042854224
10,20,Ticks_Linear_8,191,1,48,44,1043462844
10,20,Ticks_Linear_8,192,5,42,127,1043484152
10,20,Ticks_Linear_8,193,1,48,44,1044110140
10,20,Ticks_Linear_8,194,5,42,127,1044113808
10,20,Ticks_Linear_8,195,5,42,127,1044743520
10,20,Ticks_Linear_8,196,1,48,40,1044768500
10,20,Ticks_Linear_8,197,1,48,38,1045354228
10,20,Ticks_Linear_8,198,5,42,127,1045374188
10,20,Ticks_Linear_8,199,1,48,48,1045991136
10,20,Ticks_Linear_8,200,5,42,127,1045993884
10,20,Ticks_Linear_8,201,1,48,42,1046591188
10,20,Ticks_Linear_8,202,5,42,127,1046614300
10,20,Ticks_Linear_8,203,1,48,46,1047221904
10,20,Ticks_Linear_8,204,5,42,127,1047234144
10,20,Ticks_Linear_8,205,5,42,127,1047853372
10,20,Ticks_Linear_8,206,1,48,40,1047880300
10,20,Ticks_Linear_8,207,5,42,127,1048474188
10,20,Ticks_Linear_8,208,1,48,38,1048479700
10,20,Ticks_Linear_8,209,5,42,127,1049084272
10,20,Ticks_Linear_8,210,1,48,43,1049090088
10,20,Ticks_Linear_8,211,5,42,127,1049693536
10,20,Ticks_Linear_8,212,1,48,39,1049715600
10,20,Ticks_Linear_8,213,5,42,127,1050303792
10,20,Ticks_Linear_8,214,1,48,38,1050319636
10,20,Ticks_Linear_8,215,5,42,127,1050914100
10,20,Ticks_Linear_8,216,1,48,45,1050920956
10,20,Ticks_Linear_8,217,5,42,127,1051523436
10,20,Ticks_Linear_8,218,1,48,46,1051546276
10,20,Ticks_Linear_8,219,5,42,127,1052123736
10,20,Ticks_Linear_8,220,1,48,49,1052147448
10,20,Ticks_Linear_8,221,5,42,127,1052723636
10,20,Ticks_Linear_8,222,1,48,49,1052733652
10,20,Ticks_Linear_8,223,5,42,127,1053323760
10,20,Ticks_Linear_8,224,1,48,50,1053343832
10,20,Ticks_Linear_8,225,1,48,48,1053918164
10,20,Ticks_Linear_8,226,5,42,127,1053923900
10,20,Ticks_Linear_8,227,5,42,127,1054523732
10,20,Ticks_Linear_8,228,1,48,54,1054544304
10,20,Ticks_Linear_8,229,5,42,127,1055113744
10,20,Ticks_Linear_8,230,1,48,52,1055122212
10,20,Ticks_Linear_8,231,5,42,127,1055704308
10,20,Ticks_Linear_8,232,1,48,48,1055706172
10,20,Ticks_Linear_8,233,1,48,49,1056242380
10,20,Ticks_Linear_8,234,5,42,127,1056303452
10,20,Ticks_Linear_8,235,1,48,50,1056822060
10,20,Ticks_Linear_8,236,5,42,127,1056894212
10,20,Ticks_Linear_8,237,1,48,53,1057417908
10,20,Ticks_Linear_8,238,5,42,127,1057484104
10,20,Ticks_Linear_8,239,1,48,48,1058034312
10,20,Ticks_Linear_8,240,5,42,127,1058063712
10,20,Ticks_Linear_8,241,1,48,47,1058638328
10,20,Ticks_Linear_8,242,5,42,127,1058644212
10,20,Ticks_Linear_8,243,5,42,127,1059223924
10,20,Ticks_Linear_8,244,1,48,48,1059229736
10,20,Ticks_Linear_8,245,1,48,51,1059790896
10,20,Ticks_Linear_8,246,5,42,127,1059803372
10,20,Ticks_Linear_8,247,1,48,51,1060339944
10,20,Ticks_Linear_8,248,5,42,127,1060384100
10,20,Ticks_Linear_8,249,1,48,51,1060904948
10,20,Ticks_Linear_8,250,5,42,127,1060953444
10,20,Ticks_Linear_8,251,1,48,46,1061510832
10,20,Ticks_Linear_8,252,5,42,127,1061523788
10,20,Ticks_Linear_8,253,5,42,127,1062094260
10,20,Ticks_Linear_8,254,1,48,44,1062118724
10,20,Ticks_Linear_8,255,5,42,127,1062663680
10,20,Ticks_Linear_8,256,1,48,44,1062687772
10,20,Ticks_Linear_8,257,5,42,127,1063233852
10,20,Ticks_Linear_8,258,1,48,45,1063238020
10,20,Ticks_Linear_8,259,5,42,127,1063793988
10,20,Ticks_Linear_8,260,1,48,46,1063799348
10,20,Ticks_Linear_8,261,1,48,44,1064347204
10,20,Ticks_Linear_8,262,5,42,127,1064354136
10,20,Ticks_Linear_8,263,1,48,42,1064890860
10,20,Ticks_Linear_8,264,5,42,127,1064914344
10,20,Ticks_Linear_8,265,1,48,44,1065456536
10,20,Ticks_Linear_8,266,5,42,127,1065474628
10,20,Ticks_Linear_8,267,1,48,42,1066008960
10,20,Ticks_Linear_8,268,5,42,127,1066043680
10,20,Ticks_Linear_8,269,1,48,41,1066554792
10,20,Ticks_Linear_8,270,5,42,127,1066593624
10,20,Ticks_Linear_8,271,5,42,127,1067143580
10,20,Ticks_Linear_8,272,1,48,46,1067146628
10,20,Ticks_Linear_8,273,5,42,127,1067693704
10,20,Ticks_Linear_8,274,1,48,46,1067713008
10,20,Ticks_Linear_8,275,1,48,48,1068211096
10,20,Ticks_Linear_8,276,5,42,127,1068244396
10,20,Ticks_Linear_8,277,1,48,44,1068747952
10,20,Ticks_Linear_8,278,5,42,127,1068794348
10,20,Ticks_Linear_8,279,1,48,42,1069277604
10,20,Ticks_Linear_8,280,5,42,127,1069333740
10,20,Ticks_Linear_8,281,1,48,46,1069829720
10,20,Ticks_Linear_8,282,5,42,127,1069873652
10,20,Ticks_Linear_8,283,1,48,44,1070388288
10,20,Ticks_Linear_8,284,5,42,127,1070414316
10,20,Ticks_Linear_8,285,1,48,45,1070931640
10,20,Ticks_Linear_8,286,5,42,127,1070953708
10,20,Ticks_Linear_8,287,1,48,44,1071483400
10,20,Ticks_Linear_8,288,5,42,127,1071493548
10,20,Ticks_Linear_8,289,1,48,47,1072012312
10,20,Ticks_Linear_8,290,5,42,127,1072023828
10,20,Ticks_Linear_8,291,1,48,48,1072539280
10,20,Ticks_Linear_8,292,5,42,127,1072554452
10,20,Ticks_Linear_8,293,1,48,46,1073041540
10,20,Ticks_Linear_8,294,5,42,127,1073083812
10,20,Ticks_Linear_8,295,1,48,44,1073597996
10,20,Ticks_Linear_8,296,5,42,127,1073614288
10,20,Ticks_Linear_8,297,5,42,127,1074143656
10,20,Ticks_Linear_8,298,1,48,45,1074144620
10,20,Ticks_Linear_8,299,5,42,127,1074663724
10,20,Ticks_Linear_8,300,1,48,46,1074684220
10,20,Ticks_Linear_8,301,5,42,127,1075183940
10,20,Ticks_Linear_8,302,1,48,47,1075186988
10,20,Ticks_Linear_8,303,5,42,127,1075704160
10,20,Ticks_Linear_8,304,1,48,46,1075706100
10,20,Ticks_Linear_8,305,5,42,127,1076224528
10,20,Ticks_Linear_8,306,1,48,47,1076239404
10,20,Ticks_Linear_8,307,5,42,127,1076743400
10,20,Ticks_Linear_8,308,1,48,50,1076752888
10,20,Ticks_Linear_8,309,1,48,44,1077250312
10,20,Ticks_Linear_8,310,5,42,127,1077253428
10,20,Ticks_Linear_8,311,1,48,48,1077740052
10,20,Ticks_Linear_8,312,5,42,127,1077763536
10,20,Ticks_Linear_8,313,1,48,48,1078234816
10,20,Ticks_Linear_8,314,5,42,127,1078274320
10,20,Ticks_Linear_8,315,1,48,51,1078756904
10,20,Ticks_Linear_8,316,5,42,127,1078793640
10,20,Ticks_Linear_8,317,1,48,50,1079242308
10,20,Ticks_Linear_8,318,5,42,127,1079303452
10,20,Ticks_Linear_8,319,1,48,47,1079765368
10,20,Ticks_Linear_8,320,5,42,127,1079804424
10,20,Ticks_Linear_8,321,1,48,53,1080283640
10,20,Ticks_Linear_8,322,5,42,127,1080304272
10,20,Ticks_Linear_8,323,5,42,127,1080803832
10,20,Ticks_Linear_8,324,1,48,47,1080813320
10,20,Ticks_Linear_8,325,1,48,45,1081304052
10,20,Ticks_Linear_8,326,5,42,127,1081305544
10,20,Ticks_Linear_8,327,5,42,127,1081814388
10,20,Ticks_Linear_8,328,1,48,45,1081835256
10,20,Ticks_Linear_8,329,5,42,127,1082303980
10,20,Ticks_Linear_8,330,1,48,54,1082342000
10,20,Ticks_Linear_8,331,5,42,127,1082794316
10,20,Ticks_Linear_8,332,1,48,57,1082840120
10,20,Ticks_Linear_8,333,5,42,127,1083283908
10,20,Ticks_Linear_8,334,1,48,52,1083350304
10,20,Ticks_Linear_8,335,5,42,127,1083774220
10,20,Ticks_Linear_8,336,1,48,41,1083844092
10,20,Ticks_Linear_8,337,5,42,127,1084263660
10,20,Ticks_Linear_8,0,9999,9999,9999,9999,973681756
10,20,Ticks_Linear_8,1,9999,9999,9999,9999,974501948
10,20,Ticks_Linear_8,2,9999,9999,9999,9999,975321160
10,20,Ticks_Linear_8,3,9999,9999,9999,9999,976141400
10,20,Ticks_Linear_8,4,9999,9999,9999,9999,976961644
10,20,Ticks_Linear_8,5,9999,9999,9999,9999,977771628
10,20,Ticks_Linear_8,6,9999,9999,9999,9999,978581560
10,20,Ticks_Linear_8,7,9999,9999,9999,9999,979391544
10,20,Ticks_Linear_8,8,9999,9999,9999,9999,980201528
10,20,Ticks_Linear_8,9,9999,9999,9999,9999,981011512
10,20,Ticks_Linear_8,10,9999,9999,9999,9999,981811312
10,20,Ticks_Linear_8,11,9999,9999,9999,9999,982612080
10,20,Ticks_Linear_8,12,9999,9999,9999,9999,983411812
10,20,Ticks_Linear_8,13,9999,9999,9999,9999,984211552
10,20,Ticks_Linear_8,14,9999,9999,9999,9999,985011276
10,20,Ticks_Linear_8,15,9999,9999,9999,9999,985801792
10,20,Ticks_Linear_8,16,9999,9999,9999,9999,986591336
10,20,Ticks_Linear_8,17,9999,9999,9999,9999,987381840
10,20,Ticks_Linear_8,18,9999,9999,9999,9999,988171388
10,20,Ticks_Linear_8,19,9999,9999,9999,9999,988961892
10,20,Ticks_Linear_8,20,9999,9999,9999,9999,989741172
10,20,Ticks_Linear_8,21,9999,9999,9999,9999,990521424
10,20,Ticks_Linear_8,22,9999,9999,9999,9999,991301724
10,20,Ticks_Linear_8,23,9999,9999,9999,9999,992081984
10,20,Ticks_Linear_8,24,9999,9999,9999,9999,992861260
10,20,Ticks_Linear_8,25,9999,9999,9999,9999,993631328
10,20,Ticks_Linear_8,26,9999,9999,9999,9999,994401396
10,20,Ticks_Linear_8,27,9999,9999,9999,9999,995171396
10,20,Ticks_Linear_8,28,9999,9999,9999,9999,995941456
10,20,Ticks_Linear_8,29,9999,9999,9999,9999,996711528
10,20,Ticks_Linear_8,30,9999,9999,9999,9999,997471336
10,20,Ticks_Linear_8,31,9999,9999,9999,9999,998231144
10,20,Ticks_Linear_8,32,9999,9999,9999,9999,998992000
10,20,Ticks_Linear_8,33,9999,9999,9999,9999,999751736
10,20,Ticks_Linear_8,34,9999,9999,9999,9999,1000511544
10,20,Ticks_Linear_8,35,9999,9999,9999,9999,1001261176
10,20,Ticks_Linear_8,36,9999,9999,9999,9999,1002011764
10,20,Ticks_Linear_8,37,9999,9999,9999,9999,1002761312
10,20,Ticks_Linear_8,38,9999,9999,9999,9999,1003511912
10,20,Ticks_Linear_8,39,9999,9999,9999,9999,1004261460
10,20,Ticks_Linear_8,40,9999,9999,9999,9999,1005001836
10,20,Ticks_Linear_8,41,9999,9999,9999,9999,1005741164
10,20,Ticks_Linear_8,42,9999,9999,9999,9999,1006481476
10,20,Ticks_Linear_8,43,9999,9999,9999,9999,1007221888
10,20,Ticks_Linear_8,44,9999,9999,9999,9999,1007961164
10,20,Ticks_Linear_8,45,9999,9999,9999,9999,1008691256
10,20,Ticks_Linear_8,46,9999,9999,9999,9999,1009421408
10,20,Ticks_Linear_8,47,9999,9999,9999,9999,1010151488
10,20,Ticks_Linear_8,48,9999,9999,9999,9999,1010881648
10,20,Ticks_Linear_8,49,9999,9999,9999,9999,1011611724
10,20,Ticks_Linear_8,50,9999,9999,9999,9999,1012331596
10,20,Ticks_Linear_8,51,9999,9999,9999,9999,1013051492
10,20,Ticks_Linear_8,52,9999,9999,9999,9999,1013771384
10,20,Ticks_Linear_8,53,9999,9999,9999,9999,1014491196
10,20,Ticks_Linear_8,54,9999,9999,9999,9999,1015211088
10,20,Ticks_Linear_8,55,9999,9999,9999,9999,1015921748
10,20,Ticks_Linear_8,56,9999,9999,9999,9999,1016631384
10,20,Ticks_Linear_8,57,9999,9999,9999,9999,1017342064
10,20,Ticks_Linear_8,58,9999,9999,9999,9999,1018051704
10,20,Ticks_Linear_8,59,9999,9999,9999,9999,1018761308
10,20,Ticks_Linear_8,60,9999,9999,9999,9999,1019461736
10,20,Ticks_Linear_8,61,9999,9999,9999,9999,1020161112
10,20,Ticks_Linear_8,62,9999,9999,9999,9999,1020861528
10,20,Ticks_Linear_8,63,9999,9999,9999,9999,1021561924
10,20,Ticks_Linear_8,64,9999,9999,9999,9999,1022261376
10,20,Ticks_Linear_8,65,9999,9999,9999,9999,1022951536
10,20,Ticks_Linear_8,66,9999,9999,9999,9999,1023641704
10,20,Ticks_Linear_8,67,9999,9999,9999,9999,1024331844
10,20,Ticks_Linear_8,68,9999,9999,9999,9999,1025022008
10,20,Ticks_Linear_8,69,9999,9999,9999,9999,1025711192
10,20,Ticks_Linear_8,70,9999,9999,9999,9999,1026391152
10,20,Ticks_Linear_8,71,9999,9999,9999,9999,1027072104
10,20,Ticks_Linear_8,72,9999,9999,9999,9999,1027761220
10,20,Ticks_Linear_8,73,9999,9999,9999,9999,1028441168
10,20,Ticks_Linear_8,74,9999,9999,9999,9999,1029121076
10,20,Ticks_Linear_8,75,9999,9999,9999,9999,1029791844
10,20,Ticks_Linear_8,76,9999,9999,9999,9999,1030461540
10,20,Ticks_Linear_8,77,9999,9999,9999,9999,1031131256
10,20,Ticks_Linear_8,78,9999,9999,9999,9999,1031801928
10,20,Ticks_Linear_8,79,9999,9999,9999,9999,1032471640
10,20,Ticks_Linear_8,80,9999,9999,9999,9999,1033131100
10,20,Ticks_Linear_8,81,9999,9999,9999,9999,1033791584
10,20,Ticks_Linear_8,82,9999,9999,9999,9999,1034452088
10,20,Ticks_Linear_8,83,9999,9999,9999,9999,1035111524
10,20,Ticks_Linear_8,84,9999,9999,9999,9999,1035772032
10,20,Ticks_Linear_8,85,9999,9999,9999,9999,1036421208
10,20,Ticks_Linear_8,86,9999,9999,9999,9999,1037071456
10,20,Ticks_Linear_8,87,9999,9999,9999,9999,1037721704
10,20,Ticks_Linear_8,88,9999,9999,9999,9999,1038371928
10,20,Ticks_Linear_8,89,9999,9999,9999,9999,1039021132
10,20,Ticks_Linear_8,90,9999,9999,9999,9999,1039661168
10,20,Ticks_Linear_8,91,9999,9999,9999,9999,1040301156
10,20,Ticks_Linear_8,92,9999,9999,9999,9999,1040941120
10,20,Ticks_Linear_8,93,9999,9999,9999,9999,1041581112
10,20,Ticks_Linear_8,94,9999,9999,9999,9999,1042221148
10,20,Ticks_Linear_8,95,9999,9999,9999,9999,1042851924
10,20,Ticks_Linear_8,96,9999,9999,9999,9999,1043481704
10,20,Ticks_Linear_8,97,9999,9999,9999,9999,1044111484
10,20,Ticks_Linear_8,98,9999,9999,9999,9999,1044741220
10,20,Ticks_Linear_8,99,9999,9999,9999,9999,1045371964
10,20,Ticks_Linear_8,100,9999,9999,9999,9999,1045991512
10,20,Ticks_Linear_8,101,9999,9999,9999,9999,1046612076
10,20,Ticks_Linear_8,102,9999,9999,9999,9999,1047231548
10,20,Ticks_Linear_8,103,9999,9999,9999,9999,1047851076
10,20,Ticks_Linear_8,104,9999,9999,9999,9999,1048471664
10,20,Ticks_Linear_8,105,9999,9999,9999,9999,1049081972
10,20,Ticks_Linear_8,106,9999,9999,9999,9999,1049691236
10,20,Ticks_Linear_8,107,9999,9999,9999,9999,1050301496
10,20,Ticks_Linear_8,108,9999,9999,9999,9999,1050911804
10,20,Ticks_Linear_8,109,9999,9999,9999,9999,1051521140
10,20,Ticks_Linear_8,110,9999,9999,9999,9999,1052121212
10,20,Ticks_Linear_8,111,9999,9999,9999,9999,1052721264
10,20,Ticks_Linear_8,112,9999,9999,9999,9999,1053321312
10,20,Ticks_Linear_8,113,9999,9999,9999,9999,1053921376
10,20,Ticks_Linear_8,114,9999,9999,9999,9999,1054521432
10,20,Ticks_Linear_8,115,9999,9999,9999,9999,1055111224
10,20,Ticks_Linear_8,116,9999,9999,9999,9999,1055702084
10,20,Ticks_Linear_8,117,9999,9999,9999,9999,1056301152
10,20,Ticks_Linear_8,118,9999,9999,9999,9999,1056891988
10,20,Ticks_Linear_8,119,9999,9999,9999,9999,1057481804
10,20,Ticks_Linear_8,120,9999,9999,9999,9999,1058061412
10,20,Ticks_Linear_8,121,9999,9999,9999,9999,1058641988
10,20,Ticks_Linear_8,122,9999,9999,9999,9999,1059221624
10,20,Ticks_Linear_8,123,9999,9999,9999,9999,1059801148
10,20,Ticks_Linear_8,124,9999,9999,9999,9999,1060381800
10,20,Ticks_Linear_8,125,9999,9999,9999,9999,1060951144
10,20,Ticks_Linear_8,126,9999,9999,9999,9999,1061521488
10,20,Ticks_Linear_8,127,9999,9999,9999,9999,1062091888
10,20,Ticks_Linear_8,128,9999,9999,9999,9999,1062661232
10,20,Ticks_Linear_8,129,9999,9999,9999,9999,1063231552
10,20,Ticks_Linear_8,130,9999,9999,9999,9999,1063791688
10,20,Ticks_Linear_8,131,9999,9999,9999,9999,1064351840
10,20,Ticks_Linear_8,132,9999,9999,9999,9999,1064911972
10,20,Ticks_Linear_8,133,9999,9999,9999,9999,1065472108
10,20,Ticks_Linear_8,134,9999,9999,9999,9999,1066041452
10,20,Ticks_Linear_8,135,9999,9999,9999,9999,1066591328
10,20,Ticks_Linear_8,136,9999,9999,9999,9999,1067141208
10,20,Ticks_Linear_8,137,9999,9999,9999,9999,1067691108
10,20,Ticks_Linear_8,138,9999,9999,9999,9999,1068242024
10,20,Ticks_Linear_8,139,9999,9999,9999,9999,1068791896
10,20,Ticks_Linear_8,140,9999,9999,9999,9999,1069331516
10,20,Ticks_Linear_8,141,9999,9999,9999,9999,1069871204
10,20,Ticks_Linear_8,142,9999,9999,9999,9999,1070411868
10,20,Ticks_Linear_8,143,9999,9999,9999,9999,1070951484
10,20,Ticks_Linear_8,144,9999,9999,9999,9999,1071491172
10,20,Ticks_Linear_8,145,9999,9999,9999,9999,1072021604
10,20,Ticks_Linear_8,146,9999,9999,9999,9999,1072552008
10,20,Ticks_Linear_8,147,9999,9999,9999,9999,1073081436
10,20,Ticks_Linear_8,148,9999,9999,9999,9999,1073611840
10,20,Ticks_Linear_8,149,9999,9999,9999,9999,1074141280
10,20,Ticks_Linear_8,150,9999,9999,9999,9999,1074661496
10,20,Ticks_Linear_8,151,9999,9999,9999,9999,1075181644
10,20,Ticks_Linear_8,152,9999,9999,9999,9999,1075701860
10,20,Ticks_Linear_8,153,9999,9999,9999,9999,1076222080
10,20,Ticks_Linear_8,154,9999,9999,9999,9999,1076741176
10,20,Ticks_Linear_8,155,9999,9999,9999,9999,1077251128
10,20,Ticks_Linear_8,156,9999,9999,9999,9999,1077761088
10,20,Ticks_Linear_8,157,9999,9999,9999,9999,1078272096
10,20,Ticks_Linear_8,158,9999,9999,9999,9999,1078791268
10,20,Ticks_Linear_8,159,9999,9999,9999,9999,1079301228
10,20,Ticks_Linear_8,160,9999,9999,9999,9999,1079801976
10,20,Ticks_Linear_8,161,9999,9999,9999,9999,1080301676
10,20,Ticks_Linear_8,162,9999,9999,9999,9999,1080801384
10,20,Ticks_Linear_8,163,9999,9999,9999,9999,1081302128
10,20,Ticks_Linear_8,164,9999,9999,9999,9999,1081812088
10,20,Ticks_Linear_8,165,9999,9999,9999,9999,1082301532
10,20,Ticks_Linear_8,166,9999,9999,9999,9999,1082792020
10,20,Ticks_Linear_8,167,9999,9999,9999,9999,1083281532
10,20,Ticks_Linear_8,168,9999,9999,9999,9999,1083771996
10,20,Ticks_Linear_8,169,9999,9999,9999,9999,1084261436
11,25,Jits_Pract_5,0,5,56,103,1124535592
11,25,Jits_Pract_5,1,5,63,98,1124538764
11,25,Jits_Pract_5,2,5,80,127,1124541812
11,25,Jits_Pract_5,0,5,56,103,1125036368
11,25,Jits_Pract_5,1,5,63,98,1125039688
11,25,Jits_Pract_5,2,5,80,127,1125042660
11,25,Jits_Pract_5,0,5,56,103,1125536108
11,25,Jits_Pract_5,1,5,80,127,1125546304
11,25,Jits_Pract_5,2,5,63,98,1125565864
11,25,Jits_Pract_5,0,5,63,98,1125985556
11,25,Jits_Pract_5,1,5,80,127,1126016356
11,25,Jits_Pract_5,2,5,56,103,1126025576
11,25,Jits_Pract_5,0,5,80,127,1126545912
11,25,Jits_Pract_5,1,5,56,103,1126556404
11,25,Jits_Pract_5,2,5,63,98,1126585708
11,25,Jits_Pract_5,0,5,63,98,1127045412
11,25,Jits_Pract_5,1,5,56,103,1127076308
11,25,Jits_Pract_5,2,5,80,127,1127085308
11,25,Jits_Pract_5,0,5,56,103,1127496212
11,25,Jits_Pract_5,1,5,63,98,1127546196
11,25,Jits_Pract_5,2,5,80,127,1127565632
11,25,Jits_Pract_5,0,5,80,127,1127996028
11,25,Jits_Pract_5,1,5,63,98,1128045936
11,25,Jits_Pract_5,2,5,56,103,1128086044
11,25,Jits_Pract_5,0,5,56,103,1128495328
11,25,Jits_Pract_5,1,5,63,98,1128526052
11,25,Jits_Pract_5,2,5,80,127,1128595904
11,25,Jits_Pract_5,0,5,56,103,1128996188
11,25,Jits_Pract_5,1,5,80,127,1129055536
11,25,Jits_Pract_5,2,5,63,98,1129086256
11,25,Jits_Pract_5,0,5,56,103,1129506124
11,25,Jits_Pract_5,1,5,63,98,1129516472
11,25,Jits_Pract_5,2,5,80,127,1129556332
11,25,Jits_Pract_5,0,5,63,98,1129995748
11,25,Jits_Pract_5,1,5,80,127,1130075400
11,25,Jits_Pract_5,2,5,56,103,1130085968
11,25,Jits_Pract_5,0,5,63,98,1130545380
11,25,Jits_Pract_5,1,5,56,103,1130585468
11,25,Jits_Pract_5,2,5,80,127,1130588388
11,25,Jits_Pract_5,0,5,56,103,1131006368
11,25,Jits_Pract_5,1,5,63,98,1131015520
11,25,Jits_Pract_5,2,5,80,127,1131055380
11,25,Jits_Pract_5,0,5,56,103,1131495916
11,25,Jits_Pract_5,1,5,63,98,1131498836
11,25,Jits_Pract_5,2,5,80,127,1131516228
11,25,Jits_Pract_5,0,9999,9999,9999,9999,1124783176
11,25,Jits_Pract_5,1,9999,9999,9999,9999,1125283952
11,25,Jits_Pract_5,2,9999,9999,9999,9999,1125783624
11,25,Jits_Pract_5,3,9999,9999,9999,9999,1126283356
11,25,Jits_Pract_5,4,9999,9999,9999,9999,1126784112
11,25,Jits_Pract_5,5,9999,9999,9999,9999,1127294048
11,25,Jits_Pract_5,6,9999,9999,9999,9999,1127793776
11,25,Jits_Pract_5,7,9999,9999,9999,9999,1128293444
11,25,Jits_Pract_5,8,9999,9999,9999,9999,1128793188
11,25,Jits_Pract_5,9,9999,9999,9999,9999,1129293904
11,25,Jits_Pract_5,10,9999,9999,9999,9999,1129793644
11,25,Jits_Pract_5,11,9999,9999,9999,9999,1130293316
11,25,Jits_Pract_5,12,9999,9999,9999,9999,1130794088
11,25,Jits_Pract_5,13,9999,9999,9999,9999,1131293812
11,25,Jits_Pract_5,14,9999,9999,9999,9999,1131793468
12,25,Jits_Pract_5,0,5,56,103,1180375432
12,25,Jits_Pract_5,1,5,63,98,1180378828
12,25,Jits_Pract_5,2,5,80,127,1180381800
12,25,Jits_Pract_5,0,5,56,103,1180875228
12,25,Jits_Pract_5,1,5,63,98,1180878248
12,25,Jits_Pract_5,2,5,80,127,1180881296
12,25,Jits_Pract_5,0,1,48,48,1181342788
12,25,Jits_Pract_5,1,5,56,103,1181374812
12,25,Jits_Pract_5,2,5,80,127,1181384936
12,25,Jits_Pract_5,3,5,63,98,1181404720
12,25,Jits_Pract_5,0,5,63,98,1181825336
12,25,Jits_Pract_5,1,5,80,127,1181854964
12,25,Jits_Pract_5,2,1,48,42,1181863260
12,25,Jits_Pract_5,3,5,56,103,1181865224
12,25,Jits_Pract_5,0,1,48,45,1182347716
12,25,Jits_Pract_5,1,5,80,127,1182394792
12,25,Jits_Pract_5,2,5,56,103,1182404916
12,25,Jits_Pract_5,3,5,63,98,1182434740
12,25,Jits_Pract_5,0,1,48,45,1182856552
12,25,Jits_Pract_5,1,5,63,98,1182885200
12,25,Jits_Pract_5,2,5,56,103,1182914876
12,25,Jits_Pract_5,3,5,80,127,1182925072
12,25,Jits_Pract_5,0,5,56,103,1183334900
12,25,Jits_Pract_5,1,1,48,47,1183352472
12,25,Jits_Pract_5,2,5,63,98,1183384972
12,25,Jits_Pract_5,3,5,80,127,1183405652
12,25,Jits_Pract_5,0,5,80,127,1183834680
12,25,Jits_Pract_5,1,1,48,47,1183844020
12,25,Jits_Pract_5,2,5,63,98,1183884676
12,25,Jits_Pract_5,3,5,56,103,1183924612
12,25,Jits_Pract_5,0,5,56,103,1184335200
12,25,Jits_Pract_5,1,1,48,43,1184352640
12,25,Jits_Pract_5,2,5,63,98,1184364796
12,25,Jits_Pract_5,3,5,80,127,1184434576
12,25,Jits_Pract_5,0,5,56,103,1184834832
12,25,Jits_Pract_5,1,1,48,40,1184844176
12,25,Jits_Pract_5,2,5,80,127,1184895288
12,25,Jits_Pract_5,3,5,63,98,1184924988
12,25,Jits_Pract_5,0,5,56,103,1185344800
12,25,Jits_Pract_5,1,5,63,98,1185355072
12,25,Jits_Pract_5,2,1,48,43,1185361776
12,25,Jits_Pract_5,3,5,80,127,1185395000
12,25,Jits_Pract_5,0,5,63,98,1185835508
12,25,Jits_Pract_5,1,1,48,43,1185844628
12,25,Jits_Pract_5,2,5,80,127,1185915148
12,25,Jits_Pract_5,3,5,56,103,1185924448
12,25,Jits_Pract_5,0,1,48,36,1186377124
12,25,Jits_Pract_5,1,5,63,98,1186385168
12,25,Jits_Pract_5,2,5,56,103,1186425100
12,25,Jits_Pract_5,3,5,80,127,1186428468
12,25,Jits_Pract_5,0,5,56,103,1186845000
12,25,Jits_Pract_5,1,5,63,98,1186855496
12,25,Jits_Pract_5,2,1,48,40,1186883120
12,25,Jits_Pract_5,3,5,80,127,1186895352
12,25,Jits_Pract_5,0,5,56,103,1187334512
12,25,Jits_Pract_5,1,5,63,98,1187337580
12,25,Jits_Pract_5,2,1,48,38,1187353380
12,25,Jits_Pract_5,3,5,80,127,1187354964
12,25,Jits_Pract_5,0,9999,9999,9999,9999,1180622944
12,25,Jits_Pract_5,1,9999,9999,9999,9999,1181122664
12,25,Jits_Pract_5,2,9999,9999,9999,9999,1181622388
12,25,Jits_Pract_5,3,9999,9999,9999,9999,1182123120
12,25,Jits_Pract_5,4,9999,9999,9999,9999,1182633080
12,25,Jits_Pract_5,5,9999,9999,9999,9999,1183132776
12,25,Jits_Pract_5,6,9999,9999,9999,9999,1183632468
12,25,Jits_Pract_5,7,9999,9999,9999,9999,1184132220
12,25,Jits_Pract_5,8,9999,9999,9999,9999,1184632892
12,25,Jits_Pract_5,9,9999,9999,9999,9999,1185132596
12,25,Jits_Pract_5,10,9999,9999,9999,9999,1185632372
12,25,Jits_Pract_5,11,9999,9999,9999,9999,1186133052
12,25,Jits_Pract_5,12,9999,9999,9999,9999,1186632808
12,25,Jits_Pract_5,13,9999,9999,9999,9999,1187132500
12,25,Jits_Pract_5,14,9999,9999,9999,9999,1187632192
13,24,Jits_Pract_8,0,5,56,103,1194062380
13,24,Jits_Pract_8,1,5,63,98,1194065328
13,24,Jits_Pract_8,2,5,80,127,1194068452
13,24,Jits_Pract_8,0,5,56,103,1194861876
13,24,Jits_Pract_8,1,5,63,98,1194865196
13,24,Jits_Pract_8,2,5,80,127,1194868244
13,24,Jits_Pract_8,0,5,80,127,1195602416
13,24,Jits_Pract_8,1,1,48,47,1195617744
13,24,Jits_Pract_8,2,5,63,98,1195692496
13,24,Jits_Pract_8,3,5,56,103,1195701568
13,24,Jits_Pract_8,0,1,48,44,1196401040
13,24,Jits_Pract_8,1,5,56,103,1196421440
13,24,Jits_Pract_8,2,5,63,98,1196431712
13,24,Jits_Pract_8,3,5,80,127,1196521976
13,24,Jits_Pract_8,0,1,48,41,1197159244
13,24,Jits_Pract_8,1,5,63,98,1197191524
13,24,Jits_Pract_8,2,5,80,127,1197222248
13,24,Jits_Pract_8,3,5,56,103,1197251848
13,24,Jits_Pract_8,0,1,48,36,1197933228
13,24,Jits_Pract_8,1,5,56,103,1197992392
13,24,Jits_Pract_8,2,5,80,127,1198091656
13,24,Jits_Pract_8,3,5,63,98,1198141784
13,24,Jits_Pract_8,0,1,48,36,1198710220
13,24,Jits_Pract_8,1,5,56,103,1198792080
13,24,Jits_Pract_8,2,5,80,127,1198842344
13,24,Jits_Pract_8,3,5,63,98,1198882428
13,24,Jits_Pract_8,0,1,48,38,1199522060
13,24,Jits_Pract_8,1,5,80,127,1199622316
13,24,Jits_Pract_8,2,5,63,98,1199652216
13,24,Jits_Pract_8,3,5,56,103,1199721968
13,24,Jits_Pract_8,0,1,48,33,1200389164
13,24,Jits_Pract_8,1,5,63,98,1200452356
13,24,Jits_Pract_8,2,5,56,103,1200481732
13,24,Jits_Pract_8,3,5,80,127,1200542204
13,24,Jits_Pract_8,0,5,56,103,1201192332
13,24,Jits_Pract_8,1,5,80,127,1201195400
13,24,Jits_Pract_8,2,1,48,31,1201236576
13,24,Jits_Pract_8,3,5,63,98,1201312296
13,24,Jits_Pract_8,0,1,48,31,1202000908
13,24,Jits_Pract_8,1,5,56,103,1202072128
13,24,Jits_Pract_8,2,5,80,127,1202111976
13,24,Jits_Pract_8,3,5,63,98,1202122320
13,24,Jits_Pract_8,0,5,56,103,1202831664
13,24,Jits_Pract_8,1,1,48,31,1202841228
13,24,Jits_Pract_8,2,5,80,127,1202852116
13,24,Jits_Pract_8,3,5,63,98,1202932060
13,24,Jits_Pract_8,0,1,48,28,1203620100
13,24,Jits_Pract_8,1,5,80,127,1203622292
13,24,Jits_Pract_8,2,5,56,103,1203721480
13,24,Jits_Pract_8,3,5,63,98,1203731900
13,24,Jits_Pract_8,0,5,63,98,1204392240
13,24,Jits_Pract_8,1,1,48,26,1204425476
13,24,Jits_Pract_8,2,5,80,127,1204451728
13,24,Jits_Pract_8,3,5,56,103,1204461996
13,24,Jits_Pract_8,0,1,48,26,1205149460
13,24,Jits_Pract_8,1,5,56,103,1205192280
13,24,Jits_Pract_8,2,5,63,98,1205261796
13,24,Jits_Pract_8,3,5,80,127,1205265308
13,24,Jits_Pract_8,0,9999,9999,9999,9999,1194459216
13,24,Jits_Pract_8,1,9999,9999,9999,9999,1195259980
13,24,Jits_Pract_8,2,9999,9999,9999,9999,1196059768
13,24,Jits_Pract_8,3,9999,9999,9999,9999,1196859516
13,24,Jits_Pract_8,4,9999,9999,9999,9999,1197659188
13,24,Jits_Pract_8,5,9999,9999,9999,9999,1198459992
13,24,Jits_Pract_8,6,9999,9999,9999,9999,1199259700
13,24,Jits_Pract_8,7,9999,9999,9999,9999,1200059460
13,24,Jits_Pract_8,8,9999,9999,9999,9999,1200859220
13,24,Jits_Pract_8,9,9999,9999,9999,9999,1201660012
13,24,Jits_Pract_8,10,9999,9999,9999,9999,1202459712
13,24,Jits_Pract_8,11,9999,9999,9999,9999,1203259472
13,24,Jits_Pract_8,12,9999,9999,9999,9999,1204059252
13,24,Jits_Pract_8,13,9999,9999,9999,9999,1204859976
13,24,Jits_Pract_8,14,9999,9999,9999,9999,1205659740
14,16,Jits_ISO_5,0,5,56,103,1234607588
14,16,Jits_ISO_5,1,5,63,98,1234610608
14,16,Jits_ISO_5,2,5,80,127,1234613880
14,16,Jits_ISO_5,0,5,56,103,1235108428
14,16,Jits_ISO_5,1,5,63,98,1235111380
14,16,Jits_ISO_5,2,5,80,127,1235114500
14,16,Jits_ISO_5,0,1,48,32,1235541204
14,16,Jits_ISO_5,1,5,56,103,1235607936
14,16,Jits_ISO_5,2,5,80,127,1235618504
14,16,Jits_ISO_5,3,5,63,98,1235637468
14,16,Jits_ISO_5,0,1,48,44,1236049700
14,16,Jits_ISO_5,1,5,63,98,1236057372
14,16,Jits_ISO_5,2,5,80,127,1236088320
14,16,Jits_ISO_5,3,5,56,103,1236098512
14,16,Jits_ISO_5,0,1,48,40,1236540668
14,16,Jits_ISO_5,1,5,80,127,1236617512
14,16,Jits_ISO_5,2,5,56,103,1236627784
14,16,Jits_ISO_5,3,5,63,98,1236657516
14,16,Jits_ISO_5,0,1,48,34,1237066408
14,16,Jits_ISO_5,1,5,63,98,1237108236
14,16,Jits_ISO_5,2,5,56,103,1237137636
14,16,Jits_ISO_5,3,5,80,127,1237148128
14,16,Jits_ISO_5,0,5,56,103,1237557484
14,16,Jits_ISO_5,1,5,63,98,1237607760
14,16,Jits_ISO_5,2,1,48,34,1237612520
14,16,Jits_ISO_5,3,5,80,127,1237628136
14,16,Jits_ISO_5,0,5,80,127,1238058428
14,16,Jits_ISO_5,1,1,48,30,1238088368
14,16,Jits_ISO_5,2,5,63,98,1238107424
14,16,Jits_ISO_5,3,5,56,103,1238147584
14,16,Jits_ISO_5,0,5,56,103,1238558320
14,16,Jits_ISO_5,1,1,48,28,1238580620
14,16,Jits_ISO_5,2,5,63,98,1238587692
14,16,Jits_ISO_5,3,5,80,127,1238658488
14,16,Jits_ISO_5,0,5,56,103,1239057896
14,16,Jits_ISO_5,1,1,48,35,1239100720
14,16,Jits_ISO_5,2,5,80,127,1239118352
14,16,Jits_ISO_5,3,5,63,98,1239148100
14,16,Jits_ISO_5,0,5,56,103,1239567760
14,16,Jits_ISO_5,1,5,63,98,1239578104
14,16,Jits_ISO_5,2,1,48,35,1239586248
14,16,Jits_ISO_5,3,5,80,127,1239617884
14,16,Jits_ISO_5,0,5,63,98,1240058212
14,16,Jits_ISO_5,1,1,48,34,1240061480
14,16,Jits_ISO_5,2,5,80,127,1240138076
14,16,Jits_ISO_5,3,5,56,103,1240148420
14,16,Jits_ISO_5,0,1,48,35,1240589008
14,16,Jits_ISO_5,1,5,63,98,1240608360
14,16,Jits_ISO_5,2,5,56,103,1240648000
14,16,Jits_ISO_5,3,5,80,127,1240651140
14,16,Jits_ISO_5,0,5,56,103,1241068012
14,16,Jits_ISO_5,1,5,63,98,1241078208
14,16,Jits_ISO_5,2,1,48,29,1241097740
14,16,Jits_ISO_5,3,5,80,127,1241118212
14,16,Jits_ISO_5,0,5,56,103,1241558320
14,16,Jits_ISO_5,1,5,63,98,1241561312
14,16,Jits_ISO_5,2,1,48,30,1241570728
14,16,Jits_ISO_5,3,5,80,127,1241577796
14,16,Jits_ISO_5,0,1,48,25,1242050300
14,16,Jits_ISO_5,1,5,80,127,1242077676
14,16,Jits_ISO_5,2,5,56,103,1242087948
14,16,Jits_ISO_5,3,5,63,98,1242157532
14,16,Jits_ISO_5,0,5,63,98,1242568048
14,16,Jits_ISO_5,1,1,48,33,1242577464
14,16,Jits_ISO_5,2,5,56,103,1242587452
14,16,Jits_ISO_5,3,5,80,127,1242668288
14,16,Jits_ISO_5,0,1,48,32,1243044436
14,16,Jits_ISO_5,1,5,56,103,1243078112
14,16,Jits_ISO_5,2,5,80,127,1243118124
14,16,Jits_ISO_5,3,5,63,98,1243128168
14,16,Jits_ISO_5,0,1,48,33,1243522200
14,16,Jits_ISO_5,1,5,80,127,1243567432
14,16,Jits_ISO_5,2,5,63,98,1243598152
14,16,Jits_ISO_5,3,5,56,103,1243638148
14,16,Jits_ISO_5,0,1,48,29,1244021476
14,16,Jits_ISO_5,1,5,56,103,1244087764
14,16,Jits_ISO_5,2,5,63,98,1244118260
14,16,Jits_ISO_5,3,5,80,127,1244167624
14,16,Jits_ISO_5,0,1,48,31,1244508188
14,16,Jits_ISO_5,1,5,80,127,1244588320
14,16,Jits_ISO_5,2,5,56,103,1244628320
14,16,Jits_ISO_5,3,5,63,98,1244637540
14,16,Jits_ISO_5,0,1,48,35,1245032404
14,16,Jits_ISO_5,1,5,80,127,1245067600
14,16,Jits_ISO_5,2,5,63,98,1245107612
14,16,Jits_ISO_5,3,5,56,103,1245168060
14,16,Jits_ISO_5,0,1,48,34,1245517992
14,16,Jits_ISO_5,1,5,56,103,1245568284
14,16,Jits_ISO_5,2,5,80,127,1245577456
14,16,Jits_ISO_5,3,5,63,98,1245657380
14,16,Jits_ISO_5,0,1,48,28,1246037276
14,16,Jits_ISO_5,1,5,80,127,1246068236
14,16,Jits_ISO_5,2,5,63,98,1246127456
14,16,Jits_ISO_5,3,5,56,103,1246158308
14,16,Jits_ISO_5,0,1,48,31,1246560076
14,16,Jits_ISO_5,1,5,56,103,1246567972
14,16,Jits_ISO_5,2,5,80,127,1246628164
14,16,Jits_ISO_5,3,5,63,98,1246668156
14,16,Jits_ISO_5,0,1,48,32,1247074112
14,16,Jits_ISO_5,1,5,56,103,1247117552
14,16,Jits_ISO_5,2,5,63,98,1247128120
14,16,Jits_ISO_5,3,5,80,127,1247131480
14,16,Jits_ISO_5,0,1,48,33,1247564924
14,16,Jits_ISO_5,1,5,80,127,1247568180
14,16,Jits_ISO_5,2,5,63,98,1247658320
14,16,Jits_ISO_5,3,5,56,103,1247667468
14,16,Jits_ISO_5,0,5,56,103,1248068120
14,16,Jits_ISO_5,1,5,63,98,1248071148
14,16,Jits_ISO_5,2,5,80,127,1248074340
14,16,Jits_ISO_5,3,1,48,45,1248093348
14,16,Jits_ISO_5,0,1,48,46,1248555396
14,16,Jits_ISO_5,1,5,80,127,1248588008
14,16,Jits_ISO_5,2,5,63,98,1248638280
14,16,Jits_ISO_5,3,5,56,103,1248668116
14,16,Jits_ISO_5,0,1,48,47,1249055116
14,16,Jits_ISO_5,1,5,56,103,1249068412
14,16,Jits_ISO_5,2,5,80,127,1249077636
14,16,Jits_ISO_5,3,5,63,98,1249148212
14,16,Jits_ISO_5,0,1,48,43,1249565880
14,16,Jits_ISO_5,1,5,56,103,1249587696
14,16,Jits_ISO_5,2,5,63,98,1249607932
14,16,Jits_ISO_5,3,5,80,127,1249667556
14,16,Jits_ISO_5,0,1,48,46,1250077368
14,16,Jits_ISO_5,1,5,80,127,1250079012
14,16,Jits_ISO_5,2,5,63,98,1250147796
14,16,Jits_ISO_5,3,5,56,103,1250168252
14,16,Jits_ISO_5,0,1,48,41,1250579172
14,16,Jits_ISO_5,1,5,80,127,1250598376
14,16,Jits_ISO_5,2,5,56,103,1250607452
14,16,Jits_ISO_5,3,5,63,98,1250617944
14,16,Jits_ISO_5,0,1,48,43,1251063164
14,16,Jits_ISO_5,1,5,80,127,1251087844
14,16,Jits_ISO_5,2,5,56,103,1251108228
14,16,Jits_ISO_5,3,5,63,98,1251177816
14,16,Jits_ISO_5,0,1,48,49,1251590548
14,16,Jits_ISO_5,1,5,56,103,1251597768
14,16,Jits_ISO_5,2,5,80,127,1251628492
14,16,Jits_ISO_5,3,5,63,98,1251647752
14,16,Jits_ISO_5,0,1,48,48,1252085624
14,16,Jits_ISO_5,1,5,63,98,1252088136
14,16,Jits_ISO_5,2,5,56,103,1252147704
14,16,Jits_ISO_5,3,5,80,127,1252178184
14,16,Jits_ISO_5,0,5,63,98,1252577912
14,16,Jits_ISO_5,1,5,80,127,1252581052
14,16,Jits_ISO_5,2,1,48,52,1252588900
14,16,Jits_ISO_5,3,5,56,103,1252668032
14,16,Jits_ISO_5,0,1,48,51,1253097716
14,16,Jits_ISO_5,1,5,56,103,1253099128
14,16,Jits_ISO_5,2,5,63,98,1253127756
14,16,Jits_ISO_5,3,5,80,127,1253167544
14,16,Jits_ISO_5,0,1,48,49,1253583104
14,16,Jits_ISO_5,1,5,63,98,1253607784
14,16,Jits_ISO_5,2,5,56,103,1253647944
14,16,Jits_ISO_5,3,5,80,127,1253668252
14,16,Jits_ISO_5,0,1,48,49,1254084404
14,16,Jits_ISO_5,1,5,63,98,1254117856
14,16,Jits_ISO_5,2,5,56,103,1254157792
14,16,Jits_ISO_5,3,5,80,127,1254167916
14,16,Jits_ISO_5,0,5,80,127,1254597892
14,16,Jits_ISO_5,1,1,48,50,1254602656
14,16,Jits_ISO_5,2,5,63,98,1254667568
14,16,Jits_ISO_5,3,5,56,103,1254688172
14,16,Jits_ISO_5,0,5,56,103,1255087380
14,16,Jits_ISO_5,1,1,48,46,1255096048
14,16,Jits_ISO_5,2,5,80,127,1255108056
14,16,Jits_ISO_5,3,5,63,98,1255147992
14,16,Jits_ISO_5,0,5,63,98,1255597316
14,16,Jits_ISO_5,1,1,48,48,1255616948
14,16,Jits_ISO_5,2,5,80,127,1255618436
14,16,Jits_ISO_5,3,5,56,103,1255657704
14,16,Jits_ISO_5,0,1,48,37,1256075048
14,16,Jits_ISO_5,1,5,63,98,1256098088
14,16,Jits_ISO_5,2,5,56,103,1256117800
14,16,Jits_ISO_5,3,5,80,127,1256127992
14,16,Jits_ISO_5,0,1,48,41,1256579808
14,16,Jits_ISO_5,1,5,80,127,1256597892
14,16,Jits_ISO_5,2,5,56,103,1256618280
14,16,Jits_ISO_5,3,5,63,98,1256648028
14,16,Jits_ISO_5,0,1,48,29,1257076076
14,16,Jits_ISO_5,1,5,56,103,1257168864
14,16,Jits_ISO_5,2,5,80,127,1257171844
14,16,Jits_ISO_5,3,5,63,98,1257187816
14,16,Jits_ISO_5,0,1,48,38,1257544852
14,16,Jits_ISO_5,1,5,63,98,1257588188
14,16,Jits_ISO_5,2,5,56,103,1257617740
14,16,Jits_ISO_5,3,5,80,127,1257678188
14,16,Jits_ISO_5,0,1,48,39,1258061296
14,16,Jits_ISO_5,1,5,63,98,1258167648
14,16,Jits_ISO_5,2,5,56,103,1258177920
14,16,Jits_ISO_5,3,5,80,127,1258188264
14,16,Jits_ISO_5,0,1,48,36,1258577748
14,16,Jits_ISO_5,1,5,56,103,1258618304
14,16,Jits_ISO_5,2,5,80,127,1258647928
14,16,Jits_ISO_5,3,5,63,98,1258658124
14,16,Jits_ISO_5,0,1,48,29,1259093136
14,16,Jits_ISO_5,1,5,63,98,1259157920
14,16,Jits_ISO_5,2,5,56,103,1259168192
14,16,Jits_ISO_5,3,5,80,127,1259187676
14,16,Jits_ISO_5,0,1,48,32,1259581252
14,16,Jits_ISO_5,1,5,56,103,1259587876
14,16,Jits_ISO_5,2,5,63,98,1259648488
14,16,Jits_ISO_5,3,5,80,127,1259651804
14,16,Jits_ISO_5,0,1,48,42,1260074452
14,16,Jits_ISO_5,1,5,80,127,1260108200
14,16,Jits_ISO_5,2,5,56,103,1260118620
14,16,Jits_ISO_5,3,5,63,98,1260188008
14,16,Jits_ISO_5,0,1,48,45,1260569176
14,16,Jits_ISO_5,1,5,80,127,1260597744
14,16,Jits_ISO_5,2,5,56,103,1260668384
14,16,Jits_ISO_5,3,5,63,98,1260677704
14,16,Jits_ISO_5,0,1,48,45,1261083740
14,16,Jits_ISO_5,1,5,63,98,1261147824
14,16,Jits_ISO_5,2,5,56,103,1261157948
14,16,Jits_ISO_5,3,5,80,127,1261178244
14,16,Jits_ISO_5,0,1,48,46,1261579584
14,16,Jits_ISO_5,1,5,80,127,1261598040
14,16,Jits_ISO_5,2,5,63,98,1261657680
14,16,Jits_ISO_5,3,5,56,103,1261698352
14,16,Jits_ISO_5,0,1,48,48,1262073464
14,16,Jits_ISO_5,1,5,56,103,1262137704
14,16,Jits_ISO_5,2,5,63,98,1262147900
14,16,Jits_ISO_5,3,5,80,127,1262187896
14,16,Jits_ISO_5,0,1,48,45,1262562340
14,16,Jits_ISO_5,1,5,56,103,1262597432
14,16,Jits_ISO_5,2,5,80,127,1262628228
14,16,Jits_ISO_5,3,5,63,98,1262678636
14,16,Jits_ISO_5,0,1,48,49,1263085832
14,16,Jits_ISO_5,1,5,56,103,1263138068
14,16,Jits_ISO_5,2,5,63,98,1263178152
14,16,Jits_ISO_5,3,5,80,127,1263182176
14,16,Jits_ISO_5,0,1,48,48,1263579484
14,16,Jits_ISO_5,1,5,56,103,1263637944
14,16,Jits_ISO_5,2,5,63,98,1263648216
14,16,Jits_ISO_5,3,5,80,127,1263667476
14,16,Jits_ISO_5,0,1,48,46,1264049696
14,16,Jits_ISO_5,1,5,56,103,1264097744
14,16,Jits_ISO_5,2,5,80,127,1264100888
14,16,Jits_ISO_5,3,5,63,98,1264137532
14,16,Jits_ISO_5,0,1,48,42,1264554800
14,16,Jits_ISO_5,1,5,63,98,1264638444
14,16,Jits_ISO_5,2,5,56,103,1264667880
14,16,Jits_ISO_5,3,5,80,127,1264687592
14,16,Jits_ISO_5,0,1,48,50,1265076048
14,16,Jits_ISO_5,1,5,80,127,1265117504
14,16,Jits_ISO_5,2,5,56,103,1265127776
14,16,Jits_ISO_5,3,5,63,98,1265137896
14,16,Jits_ISO_5,0,1,48,45,1265568508
14,16,Jits_ISO_5,1,5,56,103,1265618576
14,16,Jits_ISO_5,2,5,80,127,1265658144
14,16,Jits_ISO_5,3,5,63,98,1265687876
14,16,Jits_ISO_5,0,1,48,40,1266076040
14,16,Jits_ISO_5,1,5,63,98,1266128352
14,16,Jits_ISO_5,2,5,80,127,1266137576
14,16,Jits_ISO_5,3,5,56,103,1266147772
14,16,Jits_ISO_5,0,1,48,40,1266559112
14,16,Jits_ISO_5,1,5,56,103,1266607556
14,16,Jits_ISO_5,2,5,63,98,1266678120
14,16,Jits_ISO_5,3,5,80,127,1266688760
14,16,Jits_ISO_5,0,1,48,46,1267077452
14,16,Jits_ISO_5,1,5,80,127,1267108192
14,16,Jits_ISO_5,2,5,56,103,1267117412
14,16,Jits_ISO_5,3,5,63,98,1267167540
14,16,Jits_ISO_5,0,1,48,52,1267589320
14,16,Jits_ISO_5,1,5,80,127,1267618036
14,16,Jits_ISO_5,2,5,56,103,1267677528
14,16,Jits_ISO_5,3,5,63,98,1267708380
14,16,Jits_ISO_5,0,5,56,103,1268117848
14,16,Jits_ISO_5,1,1,48,51,1268118752
14,16,Jits_ISO_5,2,5,80,127,1268122180
14,16,Jits_ISO_5,3,5,63,98,1268157852
14,16,Jits_ISO_5,0,1,48,52,1268633504
14,16,Jits_ISO_5,1,5,56,103,1268648448
14,16,Jits_ISO_5,2,5,63,98,1268678048
14,16,Jits_ISO_5,3,5,80,127,1268688612
14,16,Jits_ISO_5,0,1,48,54,1269141564
14,16,Jits_ISO_5,1,5,63,98,1269158444
14,16,Jits_ISO_5,2,5,80,127,1269167596
14,16,Jits_ISO_5,3,5,56,103,1269177644
14,16,Jits_ISO_5,0,5,80,127,1269607820
14,16,Jits_ISO_5,1,5,56,103,1269657896
14,16,Jits_ISO_5,2,5,63,98,1269660884
14,16,Jits_ISO_5,3,1,48,51,1269663700
14,16,Jits_ISO_5,0,5,56,103,1270138344
14,16,Jits_ISO_5,1,5,80,127,1270157636
14,16,Jits_ISO_5,2,5,63,98,1270167832
14,16,Jits_ISO_5,3,1,48,42,1270178892
14,16,Jits_ISO_5,0,5,63,98,1270617568
14,16,Jits_ISO_5,1,5,56,103,1270648288
14,16,Jits_ISO_5,2,5,80,127,1270667576
14,16,Jits_ISO_5,3,1,48,50,1270679160
14,16,Jits_ISO_5,0,1,48,46,1271125344
14,16,Jits_ISO_5,1,5,56,103,1271128672
14,16,Jits_ISO_5,2,5,80,127,1271137524
14,16,Jits_ISO_5,3,5,63,98,1271208496
14,16,Jits_ISO_5,0,5,63,98,1271617780
14,16,Jits_ISO_5,1,1,48,45,1271637084
14,16,Jits_ISO_5,2,5,80,127,1271657708
14,16,Jits_ISO_5,3,5,56,103,1271697744
14,16,Jits_ISO_5,0,1,48,36,1272109908
14,16,Jits_ISO_5,1,5,56,103,1272127840
14,16,Jits_ISO_5,2,5,63,98,1272138112
14,16,Jits_ISO_5,3,5,80,127,1272157448
14,16,Jits_ISO_5,0,1,48,38,1272616540
14,16,Jits_ISO_5,1,5,63,98,1272677696
14,16,Jits_ISO_5,2,5,80,127,1272698376
14,16,Jits_ISO_5,3,5,56,103,1272717576
14,16,Jits_ISO_5,0,5,56,103,1273118476
14,16,Jits_ISO_5,1,1,48,39,1273134924
14,16,Jits_ISO_5,2,5,80,127,1273198116
14,16,Jits_ISO_5,3,5,63,98,1273208308
14,16,Jits_ISO_5,0,1,48,41,1273626668
14,16,Jits_ISO_5,1,5,80,127,1273657780
14,16,Jits_ISO_5,2,5,63,98,1273668052
14,16,Jits_ISO_5,3,5,56,103,1273697500
14,16,Jits_ISO_5,0,5,63,98,1274117516
14,16,Jits_ISO_5,1,1,48,43,1274131268
14,16,Jits_ISO_5,2,5,80,127,1274157448
14,16,Jits_ISO_5,3,5,56,103,1274217832
14,16,Jits_ISO_5,0,1,48,45,1274617896
14,16,Jits_ISO_5,1,5,63,98,1274627356
14,16,Jits_ISO_5,2,5,56,103,1274677556
14,16,Jits_ISO_5,3,5,80,127,1274708428
14,16,Jits_ISO_5,0,5,80,127,1275138488
14,16,Jits_ISO_5,1,5,63,98,1275147560
14,16,Jits_ISO_5,2,1,48,43,1275160192
14,16,Jits_ISO_5,3,5,56,103,1275218352
14,16,Jits_ISO_5,0,1,48,46,1275659484
14,16,Jits_ISO_5,1,5,80,127,1275707832
14,16,Jits_ISO_5,2,5,56,103,1275718024
14,16,Jits_ISO_5,3,5,63,98,1275721312
14,16,Jits_ISO_5,0,5,56,103,1276148080
14,16,Jits_ISO_5,1,5,80,127,1276167492
14,16,Jits_ISO_5,2,1,48,49,1276170160
14,16,Jits_ISO_5,3,5,63,98,1276177760
14,16,Jits_ISO_5,0,1,48,44,1276646684
14,16,Jits_ISO_5,1,5,63,98,1276668352
14,16,Jits_ISO_5,2,5,56,103,1276708292
14,16,Jits_ISO_5,3,5,80,127,1276727556
14,16,Jits_ISO_5,0,1,48,48,1277166360
14,16,Jits_ISO_5,1,5,63,98,1277167940
14,16,Jits_ISO_5,2,5,56,103,1277228476
14,16,Jits_ISO_5,3,5,80,127,1277231468
14,16,Jits_ISO_5,0,5,56,103,1277627820
14,16,Jits_ISO_5,1,5,80,127,1277648128
14,16,Jits_ISO_5,2,1,48,38,1277650796
14,16,Jits_ISO_5,3,5,63,98,1277688356
14,16,Jits_ISO_5,0,1,48,50,1278145128
14,16,Jits_ISO_5,1,5,56,103,1278158276
14,16,Jits_ISO_5,2,5,63,98,1278177616
14,16,Jits_ISO_5,3,5,80,127,1278187812
14,16,Jits_ISO_5,0,5,80,127,1278628424
14,16,Jits_ISO_5,1,1,48,48,1278648704
14,16,Jits_ISO_5,2,5,56,103,1278658092
14,16,Jits_ISO_5,3,5,63,98,1278697804
14,16,Jits_ISO_5,0,1,48,47,1279134948
14,16,Jits_ISO_5,1,5,80,127,1279138576
14,16,Jits_ISO_5,2,5,56,103,1279157616
14,16,Jits_ISO_5,3,5,63,98,1279218224
14,16,Jits_ISO_5,0,1,48,42,1279632816
14,16,Jits_ISO_5,1,5,56,103,1279648352
14,16,Jits_ISO_5,2,5,80,127,1279667540
14,16,Jits_ISO_5,3,5,63,98,1279728664
14,16,Jits_ISO_5,0,5,80,127,1280128512
14,16,Jits_ISO_5,1,5,56,103,1280137464
14,16,Jits_ISO_5,2,1,48,45,1280154284
14,16,Jits_ISO_5,3,5,63,98,1280177468
14,16,Jits_ISO_5,0,5,63,98,1280628252
14,16,Jits_ISO_5,1,1,48,46,1280641112
14,16,Jits_ISO_5,2,5,56,103,1280668132
14,16,Jits_ISO_5,3,5,80,127,1280671124
14,16,Jits_ISO_5,0,1,48,46,1281137756
14,16,Jits_ISO_5,1,5,63,98,1281148268
14,16,Jits_ISO_5,2,5,80,127,1281188156
14,16,Jits_ISO_5,3,5,56,103,1281218052
14,16,Jits_ISO_5,0,1,48,45,1281619876
14,16,Jits_ISO_5,1,5,56,103,1281637664
14,16,Jits_ISO_5,2,5,63,98,1281648232
14,16,Jits_ISO_5,3,5,80,127,1281677556
14,16,Jits_ISO_5,0,1,48,42,1282090836
14,16,Jits_ISO_5,1,5,80,127,1282128324
14,16,Jits_ISO_5,2,5,63,98,1282198164
14,16,Jits_ISO_5,3,5,56,103,1282208284
14,16,Jits_ISO_5,0,1,48,45,1282591384
14,16,Jits_ISO_5,1,5,63,98,1282627976
14,16,Jits_ISO_5,2,5,56,103,1282697592
14,16,Jits_ISO_5,3,5,80,127,1282708084
14,16,Jits_ISO_5,0,5,63,98,1283127788
14,16,Jits_ISO_5,1,1,48,39,1283131880
14,16,Jits_ISO_5,2,5,56,103,1283148312
14,16,Jits_ISO_5,3,5,80,127,1283188176
14,16,Jits_ISO_5,0,1,48,38,1283635812
14,16,Jits_ISO_5,1,5,56,103,1283637552
14,16,Jits_ISO_5,2,5,63,98,1283647820
14,16,Jits_ISO_5,3,5,80,127,1283727696
14,16,Jits_ISO_5,0,5,63,98,1284138336
14,16,Jits_ISO_5,1,1,48,36,1284158460
14,16,Jits_ISO_5,2,5,56,103,1284168152
14,16,Jits_ISO_5,3,5,80,127,1284208236
14,16,Jits_ISO_5,0,1,48,36,1284634128
14,16,Jits_ISO_5,1,5,56,103,1284638356
14,16,Jits_ISO_5,2,5,63,98,1284677996
14,16,Jits_ISO_5,3,5,80,127,1284718156
14,16,Jits_ISO_5,0,5,80,127,1285137648
14,16,Jits_ISO_5,1,1,48,48,1285141136
14,16,Jits_ISO_5,2,5,56,103,1285217732
14,16,Jits_ISO_5,3,5,63,98,1285228076
14,16,Jits_ISO_5,0,1,48,44,1285637588
14,16,Jits_ISO_5,1,5,56,103,1285677392
14,16,Jits_ISO_5,2,5,63,98,1285680456
14,16,Jits_ISO_5,3,5,80,127,1285687660
14,16,Jits_ISO_5,0,1,48,46,1286132880
14,16,Jits_ISO_5,1,5,56,103,1286197568
14,16,Jits_ISO_5,2,5,63,98,1286218176
14,16,Jits_ISO_5,3,5,80,127,1286228220
14,16,Jits_ISO_5,0,1,48,46,1286627904
14,16,Jits_ISO_5,1,5,63,98,1286658344
14,16,Jits_ISO_5,2,5,80,127,1286667568
14,16,Jits_ISO_5,3,5,56,103,1286688176
14,16,Jits_ISO_5,0,1,48,45,1287107404
14,16,Jits_ISO_5,1,5,63,98,1287158224
14,16,Jits_ISO_5,2,5,56,103,1287238000
14,16,Jits_ISO_5,3,5,80,127,1287241068
14,16,Jits_ISO_5,0,1,48,45,1287596052
14,16,Jits_ISO_5,1,5,63,98,1287658100
14,16,Jits_ISO_5,2,5,56,103,1287678264
14,16,Jits_ISO_5,3,5,80,127,1287708144
14,16,Jits_ISO_5,0,1,48,44,1288110004
14,16,Jits_ISO_5,1,5,56,103,1288167872
14,16,Jits_ISO_5,2,5,63,98,1288188256
14,16,Jits_ISO_5,3,5,80,127,1288197480
14,16,Jits_ISO_5,0,1,48,46,1288617088
14,16,Jits_ISO_5,1,5,56,103,1288698096
14,16,Jits_ISO_5,2,5,63,98,1288727980
14,16,Jits_ISO_5,3,5,80,127,1288731416
14,16,Jits_ISO_5,0,1,48,40,1289135544
14,16,Jits_ISO_5,1,5,56,103,1289148000
14,16,Jits_ISO_5,2,5,63,98,1289187864
14,16,Jits_ISO_5,3,5,80,127,1289248088
14,16,Jits_ISO_5,0,1,48,39,1289639168
14,16,Jits_ISO_5,1,5,56,103,1289667964
14,16,Jits_ISO_5,2,5,63,98,1289678232
14,16,Jits_ISO_5,3,5,80,127,1289737632
14,16,Jits_ISO_5,0,1,48,43,1290122864
14,16,Jits_ISO_5,1,5,56,103,1290167696
14,16,Jits_ISO_5,2,5,80,127,1290188084
14,16,Jits_ISO_5,3,5,63,98,1290218128
14,16,Jits_ISO_5,0,1,48,42,1290622420
14,16,Jits_ISO_5,1,5,80,127,1290668252
14,16,Jits_ISO_5,2,5,56,103,1290677476
14,16,Jits_ISO_5,3,5,63,98,1290698084
14,16,Jits_ISO_5,0,1,48,36,1291112112
14,16,Jits_ISO_5,1,5,63,98,1291158092
14,16,Jits_ISO_5,2,5,80,127,1291237796
14,16,Jits_ISO_5,3,5,56,103,1291248064
14,16,Jits_ISO_5,0,1,48,41,1291608408
14,16,Jits_ISO_5,1,5,80,127,1291718124
14,16,Jits_ISO_5,2,5,56,103,1291737304
14,16,Jits_ISO_5,3,5,63,98,1291740376
14,16,Jits_ISO_5,0,1,48,41,1292150308
14,16,Jits_ISO_5,1,5,63,98,1292187968
14,16,Jits_ISO_5,2,5,80,127,1292191184
14,16,Jits_ISO_5,3,5,56,103,1292248492
14,16,Jits_ISO_5,0,1,48,38,1292620968
14,16,Jits_ISO_5,1,5,56,103,1292668344
14,16,Jits_ISO_5,2,5,80,127,1292677516
14,16,Jits_ISO_5,3,5,63,98,1292717288
14,16,Jits_ISO_5,0,1,48,38,1293116736
14,16,Jits_ISO_5,1,5,56,103,1293147472
14,16,Jits_ISO_5,2,5,63,98,1293208544
14,16,Jits_ISO_5,3,5,80,127,1293218220
14,16,Jits_ISO_5,0,1,48,34,1293627632
14,16,Jits_ISO_5,1,5,63,98,1293657472
14,16,Jits_ISO_5,2,5,80,127,1293698332
14,16,Jits_ISO_5,3,5,56,103,1293738400
14,16,Jits_ISO_5,0,1,48,38,1294104268
14,16,Jits_ISO_5,1,5,56,103,1294158248
14,16,Jits_ISO_5,2,5,63,98,1294238124
14,16,Jits_ISO_5,3,5,80,127,1294241484
14,16,Jits_ISO_5,0,9999,9999,9999,9999,1234855988
14,16,Jits_ISO_5,1,9999,9999,9999,9999,1235355704
14,16,Jits_ISO_5,2,9999,9999,9999,9999,1235855424
14,16,Jits_ISO_5,3,9999,9999,9999,9999,1236355128
14,16,Jits_ISO_5,4,9999,9999,9999,9999,1236855916
14,16,Jits_ISO_5,5,9999,9999,9999,9999,1237355576
14,16,Jits_ISO_5,6,9999,9999,9999,9999,1237855308
14,16,Jits_ISO_5,7,9999,9999,9999,9999,1238356028
14,16,Jits_ISO_5,8,9999,9999,9999,9999,1238855748
14,16,Jits_ISO_5,9,9999,9999,9999,9999,1239355500
14,16,Jits_ISO_5,10,9999,9999,9999,9999,1239855172
14,16,Jits_ISO_5,11,9999,9999,9999,9999,1240355892
14,16,Jits_ISO_5,12,9999,9999,9999,9999,1240855620
14,16,Jits_ISO_5,13,9999,9999,9999,9999,1241355352
14,16,Jits_ISO_5,14,9999,9999,9999,9999,1241856056
14,16,Jits_ISO_5,15,9999,9999,9999,9999,1242366068
14,16,Jits_ISO_5,16,9999,9999,9999,9999,1242865724
14,16,Jits_ISO_5,17,9999,9999,9999,9999,1243365456
14,16,Jits_ISO_5,18,9999,9999,9999,9999,1243865188
14,16,Jits_ISO_5,19,9999,9999,9999,9999,1244365896
14,16,Jits_ISO_5,20,9999,9999,9999,9999,1244865628
14,16,Jits_ISO_5,21,9999,9999,9999,9999,1245365360
14,16,Jits_ISO_5,22,9999,9999,9999,9999,1245866064
14,16,Jits_ISO_5,23,9999,9999,9999,9999,1246365796
14,16,Jits_ISO_5,24,9999,9999,9999,9999,1246865456
14,16,Jits_ISO_5,25,9999,9999,9999,9999,1247365180
14,16,Jits_ISO_5,26,9999,9999,9999,9999,1247865940
14,16,Jits_ISO_5,27,9999,9999,9999,9999,1248365640
14,16,Jits_ISO_5,28,9999,9999,9999,9999,1248865388
14,16,Jits_ISO_5,29,9999,9999,9999,9999,1249366096
14,16,Jits_ISO_5,30,9999,9999,9999,9999,1249876064
14,16,Jits_ISO_5,31,9999,9999,9999,9999,1250375800
14,16,Jits_ISO_5,32,9999,9999,9999,9999,1250875456
14,16,Jits_ISO_5,33,9999,9999,9999,9999,1251375192
14,16,Jits_ISO_5,34,9999,9999,9999,9999,1251875896
14,16,Jits_ISO_5,35,9999,9999,9999,9999,1252375636
14,16,Jits_ISO_5,36,9999,9999,9999,9999,1252875356
14,16,Jits_ISO_5,37,9999,9999,9999,9999,1253376064
14,16,Jits_ISO_5,38,9999,9999,9999,9999,1253886060
14,16,Jits_ISO_5,39,9999,9999,9999,9999,1254385724
14,16,Jits_ISO_5,40,9999,9999,9999,9999,1254885460
14,16,Jits_ISO_5,41,9999,9999,9999,9999,1255385204
14,16,Jits_ISO_5,42,9999,9999,9999,9999,1255885924
14,16,Jits_ISO_5,43,9999,9999,9999,9999,1256385656
14,16,Jits_ISO_5,44,9999,9999,9999,9999,1256885312
14,16,Jits_ISO_5,45,9999,9999,9999,9999,1257386088
14,16,Jits_ISO_5,46,9999,9999,9999,9999,1257885748
14,16,Jits_ISO_5,47,9999,9999,9999,9999,1258385488
14,16,Jits_ISO_5,48,9999,9999,9999,9999,1258885224
14,16,Jits_ISO_5,49,9999,9999,9999,9999,1259385908
14,16,Jits_ISO_5,50,9999,9999,9999,9999,1259885624
14,16,Jits_ISO_5,51,9999,9999,9999,9999,1260385360
14,16,Jits_ISO_5,52,9999,9999,9999,9999,1260886140
14,16,Jits_ISO_5,53,9999,9999,9999,9999,1261396068
14,16,Jits_ISO_5,54,9999,9999,9999,9999,1261895800
14,16,Jits_ISO_5,55,9999,9999,9999,9999,1262395460
14,16,Jits_ISO_5,56,9999,9999,9999,9999,1262895192
14,16,Jits_ISO_5,57,9999,9999,9999,9999,1263395960
14,16,Jits_ISO_5,58,9999,9999,9999,9999,1263895624
14,16,Jits_ISO_5,59,9999,9999,9999,9999,1264395344
14,16,Jits_ISO_5,60,9999,9999,9999,9999,1264896124
14,16,Jits_ISO_5,61,9999,9999,9999,9999,1265406044
14,16,Jits_ISO_5,62,9999,9999,9999,9999,1265905776
14,16,Jits_ISO_5,63,9999,9999,9999,9999,1266405432
14,16,Jits_ISO_5,64,9999,9999,9999,9999,1266905168
14,16,Jits_ISO_5,65,9999,9999,9999,9999,1267405948
14,16,Jits_ISO_5,66,9999,9999,9999,9999,1267905608
14,16,Jits_ISO_5,67,9999,9999,9999,9999,1268405328
14,16,Jits_ISO_5,68,9999,9999,9999,9999,1268906048
14,16,Jits_ISO_5,69,9999,9999,9999,9999,1269405788
14,16,Jits_ISO_5,70,9999,9999,9999,9999,1269905508
14,16,Jits_ISO_5,71,9999,9999,9999,9999,1270405184
14,16,Jits_ISO_5,72,9999,9999,9999,9999,1270905952
14,16,Jits_ISO_5,73,9999,9999,9999,9999,1271405680
14,16,Jits_ISO_5,74,9999,9999,9999,9999,1271905340
14,16,Jits_ISO_5,75,9999,9999,9999,9999,1272406120
14,16,Jits_ISO_5,76,9999,9999,9999,9999,1272916044
14,16,Jits_ISO_5,77,9999,9999,9999,9999,1273415784
14,16,Jits_ISO_5,78,9999,9999,9999,9999,1273915460
14,16,Jits_ISO_5,79,9999,9999,9999,9999,1274415192
14,16,Jits_ISO_5,80,9999,9999,9999,9999,1274915900
14,16,Jits_ISO_5,81,9999,9999,9999,9999,1275415636
14,16,Jits_ISO_5,82,9999,9999,9999,9999,1275915384
14,16,Jits_ISO_5,83,9999,9999,9999,9999,1276416092
14,16,Jits_ISO_5,84,9999,9999,9999,9999,1276926036
14,16,Jits_ISO_5,85,9999,9999,9999,9999,1277425764
14,16,Jits_ISO_5,86,9999,9999,9999,9999,1277925492
14,16,Jits_ISO_5,87,9999,9999,9999,9999,1278425172
14,16,Jits_ISO_5,88,9999,9999,9999,9999,1278925876
14,16,Jits_ISO_5,89,9999,9999,9999,9999,1279425624
14,16,Jits_ISO_5,90,9999,9999,9999,9999,1279925360
14,16,Jits_ISO_5,91,9999,9999,9999,9999,1280426060
14,16,Jits_ISO_5,92,9999,9999,9999,9999,1280925792
14,16,Jits_ISO_5,93,9999,9999,9999,9999,1281425524
14,16,Jits_ISO_5,94,9999,9999,9999,9999,1281925180
14,16,Jits_ISO_5,95,9999,9999,9999,9999,1282425936
14,16,Jits_ISO_5,96,9999,9999,9999,9999,1282925660
14,16,Jits_ISO_5,97,9999,9999,9999,9999,1283425384
14,16,Jits_ISO_5,98,9999,9999,9999,9999,1283926092
14,16,Jits_ISO_5,99,9999,9999,9999,9999,1284436084
14,16,Jits_ISO_5,100,9999,9999,9999,9999,1284935744
14,16,Jits_ISO_5,101,9999,9999,9999,9999,1285435476
14,16,Jits_ISO_5,102,9999,9999,9999,9999,1285935208
14,16,Jits_ISO_5,103,9999,9999,9999,9999,1286435916
14,16,Jits_ISO_5,104,9999,9999,9999,9999,1286935648
14,16,Jits_ISO_5,105,9999,9999,9999,9999,1287435376
14,16,Jits_ISO_5,106,9999,9999,9999,9999,1287936080
14,16,Jits_ISO_5,107,9999,9999,9999,9999,1288446076
14,16,Jits_ISO_5,108,9999,9999,9999,9999,1288945728
14,16,Jits_ISO_5,109,9999,9999,9999,9999,1289445460
14,16,Jits_ISO_5,110,9999,9999,9999,9999,1289945196
14,16,Jits_ISO_5,111,9999,9999,9999,9999,1290445900
14,16,Jits_ISO_5,112,9999,9999,9999,9999,1290945632
14,16,Jits_ISO_5,113,9999,9999,9999,9999,1291445364
14,16,Jits_ISO_5,114,9999,9999,9999,9999,1291946064
14,16,Jits_ISO_5,115,9999,9999,9999,9999,1292445792
14,16,Jits_ISO_5,116,9999,9999,9999,9999,1292945524
14,16,Jits_ISO_5,117,9999,9999,9999,9999,1293445184
14,16,Jits_ISO_5,118,9999,9999,9999,9999,1293945940
14,16,Jits_ISO_5,119,9999,9999,9999,9999,1294445660
15,7,Jits_ISO_8,0,5,56,103,1305640284
15,7,Jits_ISO_8,1,5,63,98,1305643152
15,7,Jits_ISO_8,2,5,80,127,1305646580
15,7,Jits_ISO_8,0,1,48,30,1306153356
15,7,Jits_ISO_8,1,5,56,103,1306440040
15,7,Jits_ISO_8,2,5,63,98,1306442988
15,7,Jits_ISO_8,3,5,80,127,1306446408
15,7,Jits_ISO_8,0,1,48,40,1307071080
15,7,Jits_ISO_8,1,5,80,127,1307189552
15,7,Jits_ISO_8,2,5,63,98,1307279636
15,7,Jits_ISO_8,3,5,56,103,1307289832
15,7,Jits_ISO_8,0,1,48,47,1307890728
15,7,Jits_ISO_8,1,5,56,103,1308019980
15,7,Jits_ISO_8,2,5,63,98,1308030400
15,7,Jits_ISO_8,3,5,80,127,1308120704
15,7,Jits_ISO_8,0,1,48,41,1308657852
15,7,Jits_ISO_8,1,5,63,98,1308790020
15,7,Jits_ISO_8,2,5,80,127,1308819796
15,7,Jits_ISO_8,3,5,56,103,1308849696
15,7,Jits_ISO_8,0,1,48,45,1309405988
15,7,Jits_ISO_8,1,5,56,103,1309589976
15,7,Jits_ISO_8,2,5,80,127,1309690228
15,7,Jits_ISO_8,3,5,63,98,1309740504
15,7,Jits_ISO_8,0,1,48,47,1310140156
15,7,Jits_ISO_8,1,5,56,103,1310389544
15,7,Jits_ISO_8,2,5,80,127,1310439672
15,7,Jits_ISO_8,3,5,63,98,1310479684
15,7,Jits_ISO_8,0,1,48,43,1311030900
15,7,Jits_ISO_8,1,5,80,127,1311220044
15,7,Jits_ISO_8,2,5,63,98,1311249796
15,7,Jits_ISO_8,3,5,56,103,1311320596
15,7,Jits_ISO_8,0,1,48,39,1311933872
15,7,Jits_ISO_8,1,5,63,98,1312049720
15,7,Jits_ISO_8,2,5,56,103,1312080520
15,7,Jits_ISO_8,3,5,80,127,1312139588
15,7,Jits_ISO_8,0,5,56,103,1312789816
15,7,Jits_ISO_8,1,5,80,127,1312792880
15,7,Jits_ISO_8,2,1,48,39,1312799160
15,7,Jits_ISO_8,3,5,63,98,1312909692
15,7,Jits_ISO_8,0,1,48,36,1313655048
15,7,Jits_ISO_8,1,5,56,103,1313669564
15,7,Jits_ISO_8,2,5,80,127,1313709356
15,7,Jits_ISO_8,3,5,63,98,1313719624
15,7,Jits_ISO_8,0,5,56,103,1314430296
15,7,Jits_ISO_8,1,5,80,127,1314449712
15,7,Jits_ISO_8,2,1,48,32,1314484368
15,7,Jits_ISO_8,3,5,63,98,1314529576
15,7,Jits_ISO_8,0,5,80,127,1315219684
15,7,Jits_ISO_8,1,1,48,38,1315279972
15,7,Jits_ISO_8,2,5,56,103,1315320372
15,7,Jits_ISO_8,3,5,63,98,1315330720
15,7,Jits_ISO_8,0,5,63,98,1315989740
15,7,Jits_ISO_8,1,5,80,127,1316050280
15,7,Jits_ISO_8,2,5,56,103,1316059504
15,7,Jits_ISO_8,3,1,48,40,1316123976
15,7,Jits_ISO_8,0,5,56,103,1316789668
15,7,Jits_ISO_8,1,1,48,38,1316854440
15,7,Jits_ISO_8,2,5,63,98,1316860312
15,7,Jits_ISO_8,3,5,80,127,1316863528
15,7,Jits_ISO_8,0,5,63,98,1317620172
15,7,Jits_ISO_8,1,5,56,103,1317670372
15,7,Jits_ISO_8,2,5,80,127,1317673292
15,7,Jits_ISO_8,3,1,48,37,1317685772
15,7,Jits_ISO_8,0,5,56,103,1318379776
15,7,Jits_ISO_8,1,5,80,127,1318382848
15,7,Jits_ISO_8,2,5,63,98,1318470136
15,7,Jits_ISO_8,3,1,48,41,1318502172
15,7,Jits_ISO_8,0,5,63,98,1319219424
15,7,Jits_ISO_8,1,1,48,43,1319270496
15,7,Jits_ISO_8,2,5,56,103,1319309728
15,7,Jits_ISO_8,3,5,80,127,1319340376
15,7,Jits_ISO_8,0,5,56,103,1320010144
15,7,Jits_ISO_8,1,1,48,40,1320088292
15,7,Jits_ISO_8,2,5,63,98,1320109440
15,7,Jits_ISO_8,3,5,80,127,1320140308
15,7,Jits_ISO_8,0,5,63,98,1320830396
15,7,Jits_ISO_8,1,5,56,103,1320839496
15,7,Jits_ISO_8,2,1,48,53,1320862468
15,7,Jits_ISO_8,3,5,80,127,1320929548
15,7,Jits_ISO_8,0,1,48,46,1321604620
15,7,Jits_ISO_8,1,5,63,98,1321649456
15,7,Jits_ISO_8,2,5,56,103,1321730360
15,7,Jits_ISO_8,3,5,80,127,1321733428
15,7,Jits_ISO_8,0,5,80,127,1322410428
15,7,Jits_ISO_8,1,1,48,47,1322415344
15,7,Jits_ISO_8,2,5,63,98,1322429836
15,7,Jits_ISO_8,3,5,56,103,1322490224
15,7,Jits_ISO_8,0,1,48,43,1323169964
15,7,Jits_ISO_8,1,5,56,103,1323250080
15,7,Jits_ISO_8,2,5,63,98,1323269476
15,7,Jits_ISO_8,3,5,80,127,1323272840
15,7,Jits_ISO_8,0,5,63,98,1323990372
15,7,Jits_ISO_8,1,1,48,45,1324020540
15,7,Jits_ISO_8,2,5,80,127,1324070236
15,7,Jits_ISO_8,3,5,56,103,1324079464
15,7,Jits_ISO_8,0,1,48,46,1324804428
15,7,Jits_ISO_8,1,5,63,98,1324809628
15,7,Jits_ISO_8,2,5,56,103,1324830236
15,7,Jits_ISO_8,3,5,80,127,1324880216
15,7,Jits_ISO_8,0,1,48,47,1325589904
15,7,Jits_ISO_8,1,5,80,127,1325610232
15,7,Jits_ISO_8,2,5,63,98,1325650248
15,7,Jits_ISO_8,3,5,56,103,1325669660
15,7,Jits_ISO_8,0,1,48,45,1326396716
15,7,Jits_ISO_8,1,5,56,103,1326450168
15,7,Jits_ISO_8,2,5,63,98,1326460364
15,7,Jits_ISO_8,3,5,80,127,1326479652
15,7,Jits_ISO_8,0,5,56,103,1327180208
15,7,Jits_ISO_8,1,1,48,43,1327213440
15,7,Jits_ISO_8,2,5,63,98,1327270140
15,7,Jits_ISO_8,3,5,80,127,1327329616
15,7,Jits_ISO_8,0,5,80,127,1328009552
15,7,Jits_ISO_8,1,1,48,46,1328010520
15,7,Jits_ISO_8,2,5,56,103,1328019964
15,7,Jits_ISO_8,3,5,63,98,1328089424
15,7,Jits_ISO_8,0,1,48,40,1328824444
15,7,Jits_ISO_8,1,5,63,98,1328840208
15,7,Jits_ISO_8,2,5,80,127,1328930032
15,7,Jits_ISO_8,3,5,56,103,1328940452
15,7,Jits_ISO_8,0,5,63,98,1329580440
15,7,Jits_ISO_8,1,5,80,127,1329629596
15,7,Jits_ISO_8,2,1,48,39,1329683204
15,7,Jits_ISO_8,3,5,56,103,1329690052
15,7,Jits_ISO_8,0,5,56,103,1330410112
15,7,Jits_ISO_8,1,1,48,44,1330458428
15,7,Jits_ISO_8,2,5,80,127,1330460084
15,7,Jits_ISO_8,3,5,63,98,1330479424
15,7,Jits_ISO_8,0,5,56,103,1331179940
15,7,Jits_ISO_8,1,1,48,42,1331224560
15,7,Jits_ISO_8,2,5,80,127,1331240180
15,7,Jits_ISO_8,3,5,63,98,1331309932
15,7,Jits_ISO_8,0,5,56,103,1331979740
15,7,Jits_ISO_8,1,1,48,37,1332003832
15,7,Jits_ISO_8,2,5,80,127,1332010232
15,7,Jits_ISO_8,3,5,63,98,1332040132
15,7,Jits_ISO_8,0,1,48,44,1332798908
15,7,Jits_ISO_8,1,5,56,103,1332820284
15,7,Jits_ISO_8,2,5,80,127,1332839920
15,7,Jits_ISO_8,3,5,63,98,1332900096
15,7,Jits_ISO_8,0,1,48,43,1333567428
15,7,Jits_ISO_8,1,5,80,127,1333700092
15,7,Jits_ISO_8,2,5,56,103,1333710288
15,7,Jits_ISO_8,3,5,63,98,1333720484
15,7,Jits_ISO_8,0,1,48,45,1334386476
15,7,Jits_ISO_8,1,5,56,103,1334459740
15,7,Jits_ISO_8,2,5,80,127,1334499816
15,7,Jits_ISO_8,3,5,63,98,1334530388
15,7,Jits_ISO_8,0,1,48,47,1335202632
15,7,Jits_ISO_8,1,5,56,103,1335230232
15,7,Jits_ISO_8,2,5,63,98,1335259688
15,7,Jits_ISO_8,3,5,80,127,1335299476
15,7,Jits_ISO_8,0,5,80,127,1335980352
15,7,Jits_ISO_8,1,5,63,98,1336029656
15,7,Jits_ISO_8,2,1,48,45,1336047680
15,7,Jits_ISO_8,3,5,56,103,1336050036
15,7,Jits_ISO_8,0,5,56,103,1336809816
15,7,Jits_ISO_8,1,1,48,42,1336821104
15,7,Jits_ISO_8,2,5,80,127,1336879416
15,7,Jits_ISO_8,3,5,63,98,1336940016
15,7,Jits_ISO_8,0,1,48,45,1337577972
15,7,Jits_ISO_8,1,5,80,127,1337609980
15,7,Jits_ISO_8,2,5,63,98,1337699880
15,7,Jits_ISO_8,3,5,56,103,1337720188
15,7,Jits_ISO_8,0,1,48,48,1338357288
15,7,Jits_ISO_8,1,5,63,98,1338429996
15,7,Jits_ISO_8,2,5,56,103,1338450312
15,7,Jits_ISO_8,3,5,80,127,1338490308
15,7,Jits_ISO_8,0,1,48,51,1339127180
15,7,Jits_ISO_8,1,5,80,127,1339189700
15,7,Jits_ISO_8,2,5,63,98,1339210084
15,7,Jits_ISO_8,3,5,56,103,1339290188
15,7,Jits_ISO_8,0,1,48,43,1339907716
15,7,Jits_ISO_8,1,5,63,98,1339980188
15,7,Jits_ISO_8,2,5,56,103,1340089812
15,7,Jits_ISO_8,3,5,80,127,1340092880
15,7,Jits_ISO_8,0,1,48,40,1340747112
15,7,Jits_ISO_8,1,5,63,98,1340800364
15,7,Jits_ISO_8,2,5,56,103,1340809736
15,7,Jits_ISO_8,3,5,80,127,1340812876
15,7,Jits_ISO_8,0,1,48,43,1341443264
15,7,Jits_ISO_8,1,5,56,103,1341579740
15,7,Jits_ISO_8,2,5,80,127,1341699548
15,7,Jits_ISO_8,3,5,63,98,1341740308
15,7,Jits_ISO_8,0,1,48,43,1342281708
15,7,Jits_ISO_8,1,5,56,103,1342399828
15,7,Jits_ISO_8,2,5,80,127,1342479704
15,7,Jits_ISO_8,3,5,63,98,1342500160
15,7,Jits_ISO_8,0,1,48,43,1343166248
15,7,Jits_ISO_8,1,5,56,103,1343199700
15,7,Jits_ISO_8,2,5,63,98,1343310196
15,7,Jits_ISO_8,3,5,80,127,1343313560
15,7,Jits_ISO_8,0,1,48,43,1343976436
15,7,Jits_ISO_8,1,5,56,103,1344029972
15,7,Jits_ISO_8,2,5,80,127,1344059944
15,7,Jits_ISO_8,3,5,63,98,1344080168
15,7,Jits_ISO_8,0,1,48,37,1344791216
15,7,Jits_ISO_8,1,5,63,98,1344810420
15,7,Jits_ISO_8,2,5,56,103,1344819792
15,7,Jits_ISO_8,3,5,80,127,1344829768
15,7,Jits_ISO_8,0,1,48,46,1345572780
15,7,Jits_ISO_8,1,5,80,127,1345599932
15,7,Jits_ISO_8,2,5,56,103,1345649916
15,7,Jits_ISO_8,3,5,63,98,1345689936
15,7,Jits_ISO_8,0,1,48,46,1346406724
15,7,Jits_ISO_8,1,5,80,127,1346420092
15,7,Jits_ISO_8,2,5,63,98,1346439828
15,7,Jits_ISO_8,3,5,56,103,1346489880
15,7,Jits_ISO_8,0,1,48,46,1347226380
15,7,Jits_ISO_8,1,5,80,127,1347230088
15,7,Jits_ISO_8,2,5,56,103,1347259768
15,7,Jits_ISO_8,3,5,63,98,1347330628
15,7,Jits_ISO_8,0,1,48,44,1348048732
15,7,Jits_ISO_8,1,5,56,103,1348080072
15,7,Jits_ISO_8,2,5,80,127,1348090196
15,7,Jits_ISO_8,3,5,63,98,1348130208
15,7,Jits_ISO_8,0,5,56,103,1348789732
15,7,Jits_ISO_8,1,5,63,98,1348809968
15,7,Jits_ISO_8,2,1,48,41,1348846644
15,7,Jits_ISO_8,3,5,80,127,1348879940
15,7,Jits_ISO_8,0,1,48,38,1349593984
15,7,Jits_ISO_8,1,5,63,98,1349609824
15,7,Jits_ISO_8,2,5,80,127,1349670292
15,7,Jits_ISO_8,3,5,56,103,1349689704
15,7,Jits_ISO_8,0,1,48,48,1350353384
15,7,Jits_ISO_8,1,5,80,127,1350400540
15,7,Jits_ISO_8,2,5,56,103,1350429916
15,7,Jits_ISO_8,3,5,63,98,1350459728
15,7,Jits_ISO_8,0,1,48,57,1351158120
15,7,Jits_ISO_8,1,5,56,103,1351200168
15,7,Jits_ISO_8,2,5,63,98,1351259724
15,7,Jits_ISO_8,3,5,80,127,1351319916
15,7,Jits_ISO_8,0,1,48,56,1351906416
15,7,Jits_ISO_8,1,5,80,127,1352020540
15,7,Jits_ISO_8,2,5,56,103,1352039732
15,7,Jits_ISO_8,3,5,63,98,1352109512
15,7,Jits_ISO_8,0,1,48,51,1352676296
15,7,Jits_ISO_8,1,5,80,127,1352820100
15,7,Jits_ISO_8,2,5,63,98,1352839612
15,7,Jits_ISO_8,3,5,56,103,1352870260
15,7,Jits_ISO_8,0,1,48,47,1353487092
15,7,Jits_ISO_8,1,5,80,127,1353609492
15,7,Jits_ISO_8,2,5,63,98,1353630252
15,7,Jits_ISO_8,3,5,56,103,1353689668
15,7,Jits_ISO_8,0,1,48,46,1354291308
15,7,Jits_ISO_8,1,5,80,127,1354410616
15,7,Jits_ISO_8,2,5,56,103,1354509676
15,7,Jits_ISO_8,3,5,63,98,1354540620
15,7,Jits_ISO_8,0,1,48,51,1355061352
15,7,Jits_ISO_8,1,5,63,98,1355199844
15,7,Jits_ISO_8,2,5,80,127,1355249972
15,7,Jits_ISO_8,3,5,56,103,1355269680
15,7,Jits_ISO_8,0,1,48,45,1355846884
15,7,Jits_ISO_8,1,5,80,127,1356039560
15,7,Jits_ISO_8,2,5,56,103,1356070356
15,7,Jits_ISO_8,3,5,63,98,1356073348
15,7,Jits_ISO_8,0,1,48,42,1356666804
15,7,Jits_ISO_8,1,5,63,98,1356869976
15,7,Jits_ISO_8,2,5,56,103,1356909988
15,7,Jits_ISO_8,3,5,80,127,1356930400
15,7,Jits_ISO_8,0,1,48,36,1357536608
15,7,Jits_ISO_8,1,5,80,127,1357610512
15,7,Jits_ISO_8,2,5,63,98,1357690372
15,7,Jits_ISO_8,3,5,56,103,1357730036
15,7,Jits_ISO_8,0,5,63,98,1358429564
15,7,Jits_ISO_8,1,1,48,47,1358493468
15,7,Jits_ISO_8,2,5,80,127,1358509532
15,7,Jits_ISO_8,3,5,56,103,1358529844
15,7,Jits_ISO_8,0,5,56,103,1359270364
15,7,Jits_ISO_8,1,1,48,47,1359274084
15,7,Jits_ISO_8,2,5,63,98,1359279580
15,7,Jits_ISO_8,3,5,80,127,1359320416
15,7,Jits_ISO_8,0,5,56,103,1359990496
15,7,Jits_ISO_8,1,5,80,127,1359993412
15,7,Jits_ISO_8,2,1,48,49,1360058452
15,7,Jits_ISO_8,3,5,63,98,1360130316
15,7,Jits_ISO_8,0,5,56,103,1360779744
15,7,Jits_ISO_8,1,1,48,51,1360818460
15,7,Jits_ISO_8,2,5,63,98,1360869724
15,7,Jits_ISO_8,3,5,80,127,1360940436
15,7,Jits_ISO_8,0,1,48,50,1361635692
15,7,Jits_ISO_8,1,5,63,98,1361660224
15,7,Jits_ISO_8,2,5,80,127,1361663512
15,7,Jits_ISO_8,3,5,56,103,1361719568
15,7,Jits_ISO_8,0,1,48,46,1362462224
15,7,Jits_ISO_8,1,5,80,127,1362500084
15,7,Jits_ISO_8,2,5,56,103,1362520324
15,7,Jits_ISO_8,3,5,63,98,1362529548
15,7,Jits_ISO_8,0,5,56,103,1363209452
15,7,Jits_ISO_8,1,5,63,98,1363219948
15,7,Jits_ISO_8,2,1,48,48,1363268628
15,7,Jits_ISO_8,3,5,80,127,1363289324
15,7,Jits_ISO_8,0,5,80,127,1364010220
15,7,Jits_ISO_8,1,5,56,103,1364059448
15,7,Jits_ISO_8,2,1,48,39,1364078980
15,7,Jits_ISO_8,3,5,63,98,1364109592
15,7,Jits_ISO_8,0,5,56,103,1364889832
15,7,Jits_ISO_8,1,5,63,98,1364900324
15,7,Jits_ISO_8,2,1,48,42,1364920976
15,7,Jits_ISO_8,3,5,80,127,1364940256
15,7,Jits_ISO_8,0,5,56,103,1365630292
15,7,Jits_ISO_8,1,5,63,98,1365670380
15,7,Jits_ISO_8,2,1,48,39,1365707728
15,7,Jits_ISO_8,3,5,80,127,1365720424
15,7,Jits_ISO_8,0,5,80,127,1366390280
15,7,Jits_ISO_8,1,5,56,103,1366440436
15,7,Jits_ISO_8,2,1,48,34,1366454564
15,7,Jits_ISO_8,3,5,63,98,1366459840
15,7,Jits_ISO_8,0,5,80,127,1367200292
15,7,Jits_ISO_8,1,1,48,46,1367235544
15,7,Jits_ISO_8,2,5,63,98,1367259480
15,7,Jits_ISO_8,3,5,56,103,1367340380
15,7,Jits_ISO_8,0,5,80,127,1367980380
15,7,Jits_ISO_8,1,1,48,47,1368015264
15,7,Jits_ISO_8,2,5,56,103,1368020392
15,7,Jits_ISO_8,3,5,63,98,1368039656
15,7,Jits_ISO_8,0,1,48,47,1368796988
15,7,Jits_ISO_8,1,5,56,103,1368830292
15,7,Jits_ISO_8,2,5,80,127,1368839592
15,7,Jits_ISO_8,3,5,63,98,1368879532
15,7,Jits_ISO_8,0,1,48,44,1369615132
15,7,Jits_ISO_8,1,5,56,103,1369699756
15,7,Jits_ISO_8,2,5,63,98,1369739556
15,7,Jits_ISO_8,3,5,80,127,1369742996
15,7,Jits_ISO_8,0,5,63,98,1370390008
15,7,Jits_ISO_8,1,1,48,48,1370411112
15,7,Jits_ISO_8,2,5,80,127,1370430012
15,7,Jits_ISO_8,3,5,56,103,1370499496
15,7,Jits_ISO_8,0,1,48,54,1371132584
15,7,Jits_ISO_8,1,5,63,98,1371180340
15,7,Jits_ISO_8,2,5,56,103,1371260196
15,7,Jits_ISO_8,3,5,80,127,1371319688
15,7,Jits_ISO_8,0,1,48,47,1371941856
15,7,Jits_ISO_8,1,5,80,127,1371990364
15,7,Jits_ISO_8,2,5,63,98,1372039400
15,7,Jits_ISO_8,3,5,56,103,1372070256
15,7,Jits_ISO_8,0,1,48,51,1372724704
15,7,Jits_ISO_8,1,5,56,103,1372780032
15,7,Jits_ISO_8,2,5,63,98,1372830020
15,7,Jits_ISO_8,3,5,80,127,1372840292
15,7,Jits_ISO_8,0,1,48,49,1373538580
15,7,Jits_ISO_8,1,5,56,103,1373589800
15,7,Jits_ISO_8,2,5,63,98,1373699400
15,7,Jits_ISO_8,3,5,80,127,1373720008
15,7,Jits_ISO_8,0,1,48,50,1374350748
15,7,Jits_ISO_8,1,5,63,98,1374389584
15,7,Jits_ISO_8,2,5,80,127,1374440084
15,7,Jits_ISO_8,3,5,56,103,1374530056
15,7,Jits_ISO_8,0,1,48,56,1375155616
15,7,Jits_ISO_8,1,5,63,98,1375180076
15,7,Jits_ISO_8,2,5,80,127,1375209976
15,7,Jits_ISO_8,3,5,56,103,1375299944
15,7,Jits_ISO_8,0,1,48,54,1375969496
15,7,Jits_ISO_8,1,5,63,98,1375980076
15,7,Jits_ISO_8,2,5,56,103,1375990124
15,7,Jits_ISO_8,3,5,80,127,1376089312
15,7,Jits_ISO_8,0,1,48,51,1376769348
15,7,Jits_ISO_8,1,5,63,98,1376880088
15,7,Jits_ISO_8,2,5,80,127,1376909792
15,7,Jits_ISO_8,3,5,56,103,1376940364
15,7,Jits_ISO_8,0,1,48,55,1377607404
15,7,Jits_ISO_8,1,5,80,127,1377700148
15,7,Jits_ISO_8,2,5,63,98,1377709432
15,7,Jits_ISO_8,3,5,56,103,1377740004
15,7,Jits_ISO_8,0,5,80,127,1378399520
15,7,Jits_ISO_8,1,5,63,98,1378420204
15,7,Jits_ISO_8,2,1,48,52,1378445524
15,7,Jits_ISO_8,3,5,56,103,1378470200
15,7,Jits_ISO_8,0,1,48,56,1379221036
15,7,Jits_ISO_8,1,5,63,98,1379230052
15,7,Jits_ISO_8,2,5,80,127,1379289400
15,7,Jits_ISO_8,3,5,56,103,1379309932
15,7,Jits_ISO_8,0,5,63,98,1379989836
15,7,Jits_ISO_8,1,1,48,55,1380023744
15,7,Jits_ISO_8,2,5,56,103,1380040032
15,7,Jits_ISO_8,3,5,80,127,1380050152
15,7,Jits_ISO_8,0,1,48,53,1380769808
15,7,Jits_ISO_8,1,5,56,103,1380820476
15,7,Jits_ISO_8,2,5,80,127,1380829848
15,7,Jits_ISO_8,3,5,63,98,1380929928
15,7,Jits_ISO_8,0,1,48,55,1381567176
15,7,Jits_ISO_8,1,5,80,127,1381580248
15,7,Jits_ISO_8,2,5,63,98,1381590592
15,7,Jits_ISO_8,3,5,56,103,1381739972
15,7,Jits_ISO_8,0,5,63,98,1382390076
15,7,Jits_ISO_8,1,1,48,53,1382406896
15,7,Jits_ISO_8,2,5,80,127,1382430084
15,7,Jits_ISO_8,3,5,56,103,1382510012
15,7,Jits_ISO_8,0,5,56,103,1383179744
15,7,Jits_ISO_8,1,1,48,58,1383206308
15,7,Jits_ISO_8,2,5,80,127,1383279916
15,7,Jits_ISO_8,3,5,63,98,1383299428
15,7,Jits_ISO_8,0,1,48,48,1383976648
15,7,Jits_ISO_8,1,5,80,127,1384039852
15,7,Jits_ISO_8,2,5,56,103,1384049972
15,7,Jits_ISO_8,3,5,63,98,1384140112
15,7,Jits_ISO_8,0,1,48,54,1384789340
15,7,Jits_ISO_8,1,5,56,103,1384839512
15,7,Jits_ISO_8,2,5,63,98,1384860044
15,7,Jits_ISO_8,3,5,80,127,1384939824
15,7,Jits_ISO_8,0,5,63,98,1385590128
15,7,Jits_ISO_8,1,1,48,53,1385597756
15,7,Jits_ISO_8,2,5,56,103,1385680204
15,7,Jits_ISO_8,3,5,80,127,1385683272
15,7,Jits_ISO_8,0,1,48,56,1386393712
15,7,Jits_ISO_8,1,5,56,103,1386419664
15,7,Jits_ISO_8,2,5,80,127,1386479908
15,7,Jits_ISO_8,3,5,63,98,1386490180
15,7,Jits_ISO_8,0,1,48,60,1387198224
15,7,Jits_ISO_8,1,1,48,43,1387246360
15,7,Jits_ISO_8,2,5,80,127,1387269776
15,7,Jits_ISO_8,3,5,56,103,1387279820
15,7,Jits_ISO_8,4,5,63,98,1387282888
15,7,Jits_ISO_8,0,5,56,103,1388030320
15,7,Jits_ISO_8,1,5,80,127,1388039472
15,7,Jits_ISO_8,2,5,63,98,1388060004
15,7,Jits_ISO_8,3,1,48,58,1388062016
15,7,Jits_ISO_8,4,1,48,42,1388095380
15,7,Jits_ISO_8,0,5,63,98,1388800296
15,7,Jits_ISO_8,1,5,80,127,1388859640
15,7,Jits_ISO_8,2,5,56,103,1388909988
15,7,Jits_ISO_8,3,1,48,54,1388955756
15,7,Jits_ISO_8,0,5,63,98,1389680020
15,7,Jits_ISO_8,1,5,56,103,1389690144
15,7,Jits_ISO_8,2,1,48,52,1389721684
15,7,Jits_ISO_8,3,5,80,127,1389740436
15,7,Jits_ISO_8,0,5,63,98,1390380532
15,7,Jits_ISO_8,1,5,80,127,1390399796
15,7,Jits_ISO_8,2,5,56,103,1390409992
15,7,Jits_ISO_8,3,1,48,47,1390524080
15,7,Jits_ISO_8,0,5,63,98,1391180004
15,7,Jits_ISO_8,1,5,80,127,1391183372
15,7,Jits_ISO_8,2,1,48,46,1391198044
15,7,Jits_ISO_8,3,5,56,103,1391220088
15,7,Jits_ISO_8,0,1,48,46,1391979144
15,7,Jits_ISO_8,1,5,63,98,1392049624
15,7,Jits_ISO_8,2,5,80,127,1392080184
15,7,Jits_ISO_8,3,5,56,103,1392089704
15,7,Jits_ISO_8,0,1,48,46,1392751736
15,7,Jits_ISO_8,1,5,56,103,1392800112
15,7,Jits_ISO_8,2,5,80,127,1392829936
15,7,Jits_ISO_8,3,5,63,98,1392859448
15,7,Jits_ISO_8,0,1,48,45,1393605548
15,7,Jits_ISO_8,1,5,63,98,1393700196
15,7,Jits_ISO_8,2,5,56,103,1393740212
15,7,Jits_ISO_8,3,5,80,127,1393743428
15,7,Jits_ISO_8,0,1,48,51,1394386228
15,7,Jits_ISO_8,1,5,80,127,1394399748
15,7,Jits_ISO_8,2,5,56,103,1394479624
15,7,Jits_ISO_8,3,5,63,98,1394529736
15,7,Jits_ISO_8,0,5,80,127,1395179840
15,7,Jits_ISO_8,1,5,56,103,1395200448
15,7,Jits_ISO_8,2,1,48,49,1395215100
15,7,Jits_ISO_8,3,5,63,98,1395289672
15,7,Jits_ISO_8,0,1,48,48,1395976592
15,7,Jits_ISO_8,1,5,80,127,1396019484
15,7,Jits_ISO_8,2,5,63,98,1396059500
15,7,Jits_ISO_8,3,5,56,103,1396099596
15,7,Jits_ISO_8,0,1,48,52,1396757660
15,7,Jits_ISO_8,1,5,63,98,1396789672
15,7,Jits_ISO_8,2,5,80,127,1396850136
15,7,Jits_ISO_8,3,5,56,103,1396879824
15,7,Jits_ISO_8,0,1,48,52,1397563424
15,7,Jits_ISO_8,1,5,56,103,1397590496
15,7,Jits_ISO_8,2,5,80,127,1397620100
15,7,Jits_ISO_8,3,5,63,98,1397710392
15,7,Jits_ISO_8,0,1,48,49,1398372424
15,7,Jits_ISO_8,1,5,56,103,1398400416
15,7,Jits_ISO_8,2,5,80,127,1398509872
15,7,Jits_ISO_8,3,5,63,98,1398539768
15,7,Jits_ISO_8,0,1,48,49,1399184968
15,7,Jits_ISO_8,1,5,56,103,1399250704
15,7,Jits_ISO_8,2,5,63,98,1399309588
15,7,Jits_ISO_8,3,5,80,127,1399340536
15,7,Jits_ISO_8,0,1,48,50,1399932616
15,7,Jits_ISO_8,1,5,56,103,1400020380
15,7,Jits_ISO_8,2,5,63,98,1400089976
15,7,Jits_ISO_8,3,5,80,127,1400109684
15,7,Jits_ISO_8,0,1,48,51,1400740352
15,7,Jits_ISO_8,1,5,80,127,1400790496
15,7,Jits_ISO_8,2,5,63,98,1400809760
15,7,Jits_ISO_8,3,5,56,103,1400859872
15,7,Jits_ISO_8,0,9999,9999,9999,9999,1306037356
15,7,Jits_ISO_8,1,9999,9999,9999,9999,1306838084
15,7,Jits_ISO_8,2,9999,9999,9999,9999,1307648056
15,7,Jits_ISO_8,3,9999,9999,9999,9999,1308458104
15,7,Jits_ISO_8,4,9999,9999,9999,9999,1309257812
15,7,Jits_ISO_8,5,9999,9999,9999,9999,1310057528
15,7,Jits_ISO_8,6,9999,9999,9999,9999,1310857340
15,7,Jits_ISO_8,7,9999,9999,9999,9999,1311658096
15,7,Jits_ISO_8,8,9999,9999,9999,9999,1312457808
15,7,Jits_ISO_8,9,9999,9999,9999,9999,1313257580
15,7,Jits_ISO_8,10,9999,9999,9999,9999,1314057312
15,7,Jits_ISO_8,11,9999,9999,9999,9999,1314858040
15,7,Jits_ISO_8,12,9999,9999,9999,9999,1315657844
15,7,Jits_ISO_8,13,9999,9999,9999,9999,1316457560
15,7,Jits_ISO_8,14,9999,9999,9999,9999,1317257284
15,7,Jits_ISO_8,15,9999,9999,9999,9999,1318058044
15,7,Jits_ISO_8,16,9999,9999,9999,9999,1318857808
15,7,Jits_ISO_8,17,9999,9999,9999,9999,1319657536
15,7,Jits_ISO_8,18,9999,9999,9999,9999,1320457320
15,7,Jits_ISO_8,19,9999,9999,9999,9999,1321258088
15,7,Jits_ISO_8,20,9999,9999,9999,9999,1322057796
15,7,Jits_ISO_8,21,9999,9999,9999,9999,1322857580
15,7,Jits_ISO_8,22,9999,9999,9999,9999,1323657320
15,7,Jits_ISO_8,23,9999,9999,9999,9999,1324458072
15,7,Jits_ISO_8,24,9999,9999,9999,9999,1325257780
15,7,Jits_ISO_8,25,9999,9999,9999,9999,1326057560
15,7,Jits_ISO_8,26,9999,9999,9999,9999,1326857268
15,7,Jits_ISO_8,27,9999,9999,9999,9999,1327658100
15,7,Jits_ISO_8,28,9999,9999,9999,9999,1328457820
15,7,Jits_ISO_8,29,9999,9999,9999,9999,1329257552
15,7,Jits_ISO_8,30,9999,9999,9999,9999,1330057280
15,7,Jits_ISO_8,31,9999,9999,9999,9999,1330858036
15,7,Jits_ISO_8,32,9999,9999,9999,9999,1331657832
15,7,Jits_ISO_8,33,9999,9999,9999,9999,1332457548
15,7,Jits_ISO_8,34,9999,9999,9999,9999,1333257272
15,7,Jits_ISO_8,35,9999,9999,9999,9999,1334058036
15,7,Jits_ISO_8,36,9999,9999,9999,9999,1334857824
15,7,Jits_ISO_8,37,9999,9999,9999,9999,1335657536
15,7,Jits_ISO_8,38,9999,9999,9999,9999,1336457340
15,7,Jits_ISO_8,39,9999,9999,9999,9999,1337258040
15,7,Jits_ISO_8,40,9999,9999,9999,9999,1338057840
15,7,Jits_ISO_8,41,9999,9999,9999,9999,1338857552
15,7,Jits_ISO_8,42,9999,9999,9999,9999,1339657332
15,7,Jits_ISO_8,43,9999,9999,9999,9999,1340458076
15,7,Jits_ISO_8,44,9999,9999,9999,9999,1341257844
15,7,Jits_ISO_8,45,9999,9999,9999,9999,1342057556
15,7,Jits_ISO_8,46,9999,9999,9999,9999,1342857288
15,7,Jits_ISO_8,47,9999,9999,9999,9999,1343658036
15,7,Jits_ISO_8,48,9999,9999,9999,9999,1344457820
15,7,Jits_ISO_8,49,9999,9999,9999,9999,1345257520
15,7,Jits_ISO_8,50,9999,9999,9999,9999,1346057304
15,7,Jits_ISO_8,51,9999,9999,9999,9999,1346858056
15,7,Jits_ISO_8,52,9999,9999,9999,9999,1347657840
15,7,Jits_ISO_8,53,9999,9999,9999,9999,1348457552
15,7,Jits_ISO_8,54,9999,9999,9999,9999,1349257280
15,7,Jits_ISO_8,55,9999,9999,9999,9999,1350058052
15,7,Jits_ISO_8,56,9999,9999,9999,9999,1350857832
15,7,Jits_ISO_8,57,9999,9999,9999,9999,1351657540
15,7,Jits_ISO_8,58,9999,9999,9999,9999,1352457324
15,7,Jits_ISO_8,59,9999,9999,9999,9999,1353258076
15,7,Jits_ISO_8,60,9999,9999,9999,9999,1354057784
15,7,Jits_ISO_8,61,9999,9999,9999,9999,1354857568
15,7,Jits_ISO_8,62,9999,9999,9999,9999,1355657300
15,7,Jits_ISO_8,63,9999,9999,9999,9999,1356458044
15,7,Jits_ISO_8,64,9999,9999,9999,9999,1357257836
15,7,Jits_ISO_8,65,9999,9999,9999,9999,1358057548
15,7,Jits_ISO_8,66,9999,9999,9999,9999,1358857340
15,7,Jits_ISO_8,67,9999,9999,9999,9999,1359658100
15,7,Jits_ISO_8,68,9999,9999,9999,9999,1360457812
15,7,Jits_ISO_8,69,9999,9999,9999,9999,1361257536
15,7,Jits_ISO_8,70,9999,9999,9999,9999,1362057276
15,7,Jits_ISO_8,71,9999,9999,9999,9999,1362858040
15,7,Jits_ISO_8,72,9999,9999,9999,9999,1363657820
15,7,Jits_ISO_8,73,9999,9999,9999,9999,1364457540
15,7,Jits_ISO_8,74,9999,9999,9999,9999,1365257268
15,7,Jits_ISO_8,75,9999,9999,9999,9999,1366058036
15,7,Jits_ISO_8,76,9999,9999,9999,9999,1366857828
15,7,Jits_ISO_8,77,9999,9999,9999,9999,1367657556
15,7,Jits_ISO_8,78,9999,9999,9999,9999,1368457296
15,7,Jits_ISO_8,79,9999,9999,9999,9999,1369258068
15,7,Jits_ISO_8,80,9999,9999,9999,9999,1370057852
15,7,Jits_ISO_8,81,9999,9999,9999,9999,1370857556
15,7,Jits_ISO_8,82,9999,9999,9999,9999,1371657316
15,7,Jits_ISO_8,83,9999,9999,9999,9999,1372458068
15,7,Jits_ISO_8,84,9999,9999,9999,9999,1373257848
15,7,Jits_ISO_8,85,9999,9999,9999,9999,1374057560
15,7,Jits_ISO_8,86,9999,9999,9999,9999,1374857292
15,7,Jits_ISO_8,87,9999,9999,9999,9999,1375658044
15,7,Jits_ISO_8,88,9999,9999,9999,9999,1376457820
15,7,Jits_ISO_8,89,9999,9999,9999,9999,1377257540
15,7,Jits_ISO_8,90,9999,9999,9999,9999,1378057328
15,7,Jits_ISO_8,91,9999,9999,9999,9999,1378858076
15,7,Jits_ISO_8,92,9999,9999,9999,9999,1379657804
15,7,Jits_ISO_8,93,9999,9999,9999,9999,1380457584
15,7,Jits_ISO_8,94,9999,9999,9999,9999,1381257316
15,7,Jits_ISO_8,95,9999,9999,9999,9999,1382058068
15,7,Jits_ISO_8,96,9999,9999,9999,9999,1382857848
15,7,Jits_ISO_8,97,9999,9999,9999,9999,1383657564
15,7,Jits_ISO_8,98,9999,9999,9999,9999,1384457288
15,7,Jits_ISO_8,99,9999,9999,9999,9999,1385258048
15,7,Jits_ISO_8,100,9999,9999,9999,9999,1386057820
15,7,Jits_ISO_8,101,9999,9999,9999,9999,1386857528
15,7,Jits_ISO_8,102,9999,9999,9999,9999,1387657308
15,7,Jits_ISO_8,103,9999,9999,9999,9999,1388458060
15,7,Jits_ISO_8,104,9999,9999,9999,9999,1389257808
15,7,Jits_ISO_8,105,9999,9999,9999,9999,1390057524
15,7,Jits_ISO_8,106,9999,9999,9999,9999,1390857292
15,7,Jits_ISO_8,107,9999,9999,9999,9999,1391658108
15,7,Jits_ISO_8,108,9999,9999,9999,9999,1392457820
15,7,Jits_ISO_8,109,9999,9999,9999,9999,1393257528
15,7,Jits_ISO_8,110,9999,9999,9999,9999,1394057336
15,7,Jits_ISO_8,111,9999,9999,9999,9999,1394858096
15,7,Jits_ISO_8,112,9999,9999,9999,9999,1395657800
15,7,Jits_ISO_8,113,9999,9999,9999,9999,1396457524
15,7,Jits_ISO_8,114,9999,9999,9999,9999,1397257304
15,7,Jits_ISO_8,115,9999,9999,9999,9999,1398058056
15,7,Jits_ISO_8,116,9999,9999,9999,9999,1398857840
15,7,Jits_ISO_8,117,9999,9999,9999,9999,1399657564
15,7,Jits_ISO_8,118,9999,9999,9999,9999,1400457300
15,7,Jits_ISO_8,119,9999,9999,9999,9999,1401258052
16,17,Jits_Phase_5,0,5,56,103,1410263452
16,17,Jits_Phase_5,1,5,63,98,1410266396
16,17,Jits_Phase_5,2,5,80,127,1410269524
16,17,Jits_Phase_5,0,5,56,103,1410763236
16,17,Jits_Phase_5,1,5,63,98,1410766336
16,17,Jits_Phase_5,2,5,80,127,1410769456
16,17,Jits_Phase_5,3,1,48,21,1410933492
16,17,Jits_Phase_5,0,5,56,103,1411262700
16,17,Jits_Phase_5,1,5,80,127,1411273340
16,17,Jits_Phase_5,2,5,63,98,1411292604
16,17,Jits_Phase_5,3,1,48,29,1411406212
16,17,Jits_Phase_5,0,5,63,98,1411713468
16,17,Jits_Phase_5,1,5,80,127,1411743216
16,17,Jits_Phase_5,2,5,56,103,1411753188
16,17,Jits_Phase_5,3,1,48,27,1411853016
16,17,Jits_Phase_5,0,1,48,35,1412265396
16,17,Jits_Phase_5,1,5,80,127,1412282656
16,17,Jits_Phase_5,2,5,56,103,1412293224
16,17,Jits_Phase_5,3,5,63,98,1412322676
16,17,Jits_Phase_5,0,5,63,98,1412773128
16,17,Jits_Phase_5,1,5,56,103,1412802876
16,17,Jits_Phase_5,2,1,48,47,1412808088
16,17,Jits_Phase_5,3,5,80,127,1412813288
16,17,Jits_Phase_5,0,5,56,103,1413222660
16,17,Jits_Phase_5,1,5,63,98,1413273112
16,17,Jits_Phase_5,2,5,80,127,1413293344
16,17,Jits_Phase_5,3,1,48,50,1413332948
16,17,Jits_Phase_5,0,5,80,127,1413722348
16,17,Jits_Phase_5,1,5,63,98,1413772648
16,17,Jits_Phase_5,2,1,48,46,1413784832
16,17,Jits_Phase_5,3,5,56,103,1413812504
16,17,Jits_Phase_5,0,5,56,103,1414223308
16,17,Jits_Phase_5,1,5,63,98,1414253132
16,17,Jits_Phase_5,2,1,48,55,1414311416
16,17,Jits_Phase_5,3,5,80,127,1414322600
16,17,Jits_Phase_5,0,5,56,103,1414723220
16,17,Jits_Phase_5,1,1,48,49,1414767768
16,17,Jits_Phase_5,2,5,80,127,1414783328
16,17,Jits_Phase_5,3,5,63,98,1414813076
16,17,Jits_Phase_5,0,5,56,103,1415233244
16,17,Jits_Phase_5,1,5,63,98,1415242996
16,17,Jits_Phase_5,2,5,80,127,1415283300
16,17,Jits_Phase_5,3,1,48,45,1415285672
16,17,Jits_Phase_5,0,5,63,98,1415723416
16,17,Jits_Phase_5,1,1,48,51,1415766172
16,17,Jits_Phase_5,2,5,80,127,1415803380
16,17,Jits_Phase_5,3,5,56,103,1415812380
16,17,Jits_Phase_5,0,5,63,98,1416273216
16,17,Jits_Phase_5,1,1,48,50,1416292748
16,17,Jits_Phase_5,2,5,56,103,1416313220
16,17,Jits_Phase_5,3,5,80,127,1416316384
16,17,Jits_Phase_5,0,5,56,103,1416733248
16,17,Jits_Phase_5,1,5,63,98,1416743220
16,17,Jits_Phase_5,2,5,80,127,1416783160
16,17,Jits_Phase_5,3,1,48,45,1416807024
16,17,Jits_Phase_5,0,5,56,103,1417222368
16,17,Jits_Phase_5,1,5,63,98,1417225516
16,17,Jits_Phase_5,2,5,80,127,1417243204
16,17,Jits_Phase_5,3,1,48,47,1417280940
16,17,Jits_Phase_5,0,5,80,127,1417732460
16,17,Jits_Phase_5,1,1,48,46,1417736548
16,17,Jits_Phase_5,2,5,56,103,1417742648
16,17,Jits_Phase_5,3,5,63,98,1417813296
16,17,Jits_Phase_5,0,5,63,98,1418223152
16,17,Jits_Phase_5,1,1,48,48,1418237284
16,17,Jits_Phase_5,2,5,56,103,1418242408
16,17,Jits_Phase_5,3,5,80,127,1418323244
16,17,Jits_Phase_5,0,5,56,103,1418733088
16,17,Jits_Phase_5,1,1,48,42,1418743032
16,17,Jits_Phase_5,2,5,80,127,1418772948
16,17,Jits_Phase_5,3,5,63,98,1418783068
16,17,Jits_Phase_5,0,5,80,127,1419223264
16,17,Jits_Phase_5,1,1,48,44,1419233200
16,17,Jits_Phase_5,2,5,63,98,1419253156
16,17,Jits_Phase_5,3,5,56,103,1419293164
16,17,Jits_Phase_5,0,1,48,46,1419731536
16,17,Jits_Phase_5,1,5,56,103,1419742500
16,17,Jits_Phase_5,2,5,63,98,1419773296
16,17,Jits_Phase_5,3,5,80,127,1419822372
16,17,Jits_Phase_5,0,5,80,127,1420243304
16,17,Jits_Phase_5,1,1,48,46,1420254516
16,17,Jits_Phase_5,2,5,56,103,1420283232
16,17,Jits_Phase_5,3,5,63,98,1420292456
16,17,Jits_Phase_5,0,5,80,127,1420722540
16,17,Jits_Phase_5,1,5,63,98,1420762404
16,17,Jits_Phase_5,2,1,48,46,1420765300
16,17,Jits_Phase_5,3,5,56,103,1420823008
16,17,Jits_Phase_5,0,5,56,103,1421223280
16,17,Jits_Phase_5,1,5,80,127,1421232428
16,17,Jits_Phase_5,2,1,48,40,1421278616
16,17,Jits_Phase_5,3,5,63,98,1421313256
16,17,Jits_Phase_5,0,5,80,127,1421722888
16,17,Jits_Phase_5,1,1,48,44,1421759788
16,17,Jits_Phase_5,2,5,63,98,1421783496
16,17,Jits_Phase_5,3,5,56,103,1421813240
16,17,Jits_Phase_5,0,5,56,103,1422222800
16,17,Jits_Phase_5,1,1,48,47,1422266220
16,17,Jits_Phase_5,2,5,80,127,1422283108
16,17,Jits_Phase_5,3,5,63,98,1422323120
16,17,Jits_Phase_5,0,5,56,103,1422772836
16,17,Jits_Phase_5,1,1,48,44,1422779920
16,17,Jits_Phase_5,2,5,63,98,1422783100
16,17,Jits_Phase_5,3,5,80,127,1422786240
16,17,Jits_Phase_5,0,5,80,127,1423223196
16,17,Jits_Phase_5,1,1,48,48,1423306424
16,17,Jits_Phase_5,2,5,63,98,1423313272
16,17,Jits_Phase_5,3,5,56,103,1423322496
16,17,Jits_Phase_5,0,5,56,103,1423722948
16,17,Jits_Phase_5,1,5,63,98,1423726196
16,17,Jits_Phase_5,2,5,80,127,1423729168
16,17,Jits_Phase_5,3,1,48,45,1423808800
16,17,Jits_Phase_5,0,5,80,127,1424243008
16,17,Jits_Phase_5,1,5,63,98,1424293232
16,17,Jits_Phase_5,2,1,48,47,1424308632
16,17,Jits_Phase_5,3,5,56,103,1424322824
16,17,Jits_Phase_5,0,5,56,103,1424723292
16,17,Jits_Phase_5,1,5,80,127,1424732592
16,17,Jits_Phase_5,2,1,48,42,1424795364
16,17,Jits_Phase_5,3,5,63,98,1424803184
16,17,Jits_Phase_5,0,5,56,103,1425233316
16,17,Jits_Phase_5,1,5,63,98,1425252952
16,17,Jits_Phase_5,2,1,48,41,1425284344
16,17,Jits_Phase_5,3,5,80,127,1425313136
16,17,Jits_Phase_5,0,5,80,127,1425712632
16,17,Jits_Phase_5,1,5,63,98,1425783136
16,17,Jits_Phase_5,2,5,56,103,1425802548
16,17,Jits_Phase_5,3,1,48,46,1425805368
16,17,Jits_Phase_5,0,5,80,127,1426232676
16,17,Jits_Phase_5,1,5,56,103,1426243096
16,17,Jits_Phase_5,2,5,63,98,1426253368
16,17,Jits_Phase_5,3,1,48,40,1426305132
16,17,Jits_Phase_5,0,5,80,127,1426723072
16,17,Jits_Phase_5,1,5,56,103,1426742932
16,17,Jits_Phase_5,2,1,48,43,1426777060
16,17,Jits_Phase_5,3,5,63,98,1426813376
16,17,Jits_Phase_5,0,5,56,103,1427233172
16,17,Jits_Phase_5,1,5,80,127,1427262924
16,17,Jits_Phase_5,2,5,63,98,1427283380
16,17,Jits_Phase_5,3,1,48,47,1427301112
16,17,Jits_Phase_5,0,5,63,98,1427722676
16,17,Jits_Phase_5,1,1,48,44,1427782692
16,17,Jits_Phase_5,2,5,56,103,1427784176
16,17,Jits_Phase_5,3,5,80,127,1427812952
16,17,Jits_Phase_5,0,5,63,98,1428223320
16,17,Jits_Phase_5,1,5,80,127,1428226832
16,17,Jits_Phase_5,2,1,48,42,1428293488
16,17,Jits_Phase_5,3,5,56,103,1428312396
16,17,Jits_Phase_5,0,5,56,103,1428742764
16,17,Jits_Phase_5,1,5,63,98,1428773188
16,17,Jits_Phase_5,2,1,48,41,1428795184
16,17,Jits_Phase_5,3,5,80,127,1428813120
16,17,Jits_Phase_5,0,5,63,98,1429243128
16,17,Jits_Phase_5,1,1,48,43,1429274868
16,17,Jits_Phase_5,2,5,56,103,1429283132
16,17,Jits_Phase_5,3,5,80,127,1429302916
16,17,Jits_Phase_5,0,5,63,98,1429753140
16,17,Jits_Phase_5,1,1,48,43,1429765024
16,17,Jits_Phase_5,2,5,56,103,1429792996
16,17,Jits_Phase_5,3,5,80,127,1429803488
16,17,Jits_Phase_5,0,1,48,43,1430232216
16,17,Jits_Phase_5,1,5,80,127,1430233556
16,17,Jits_Phase_5,2,5,63,98,1430303084
16,17,Jits_Phase_5,3,5,56,103,1430322720
16,17,Jits_Phase_5,0,5,56,103,1430722976
16,17,Jits_Phase_5,1,5,80,127,1430743360
16,17,Jits_Phase_5,2,1,48,44,1430752628
16,17,Jits_Phase_5,3,5,63,98,1430783292
16,17,Jits_Phase_5,0,5,63,98,1431232780
16,17,Jits_Phase_5,1,5,80,127,1431253388
16,17,Jits_Phase_5,2,1,48,45,1431254428
16,17,Jits_Phase_5,3,5,56,103,1431293316
16,17,Jits_Phase_5,0,5,63,98,1431732680
16,17,Jits_Phase_5,1,5,56,103,1431753136
16,17,Jits_Phase_5,2,5,80,127,1431763332
16,17,Jits_Phase_5,3,1,48,45,1431772896
16,17,Jits_Phase_5,0,1,48,41,1432232044
16,17,Jits_Phase_5,1,5,80,127,1432233464
16,17,Jits_Phase_5,2,5,56,103,1432252952
16,17,Jits_Phase_5,3,5,63,98,1432282628
16,17,Jits_Phase_5,0,1,48,45,1432746448
16,17,Jits_Phase_5,1,5,56,103,1432802740
16,17,Jits_Phase_5,2,5,80,127,1432805808
16,17,Jits_Phase_5,3,5,63,98,1432823052
16,17,Jits_Phase_5,0,5,63,98,1433222704
16,17,Jits_Phase_5,1,1,48,45,1433245008
16,17,Jits_Phase_5,2,5,56,103,1433253272
16,17,Jits_Phase_5,3,5,80,127,1433312912
16,17,Jits_Phase_5,0,1,48,34,1433762064
16,17,Jits_Phase_5,1,5,63,98,1433803064
16,17,Jits_Phase_5,2,5,56,103,1433813484
16,17,Jits_Phase_5,3,5,80,127,1433822780
16,17,Jits_Phase_5,0,1,48,31,1434229188
16,17,Jits_Phase_5,1,5,56,103,1434262960
16,17,Jits_Phase_5,2,5,80,127,1434292636
16,17,Jits_Phase_5,3,5,63,98,1434302832
16,17,Jits_Phase_5,0,1,48,37,1434757288
16,17,Jits_Phase_5,1,5,63,98,1434802644
16,17,Jits_Phase_5,2,5,56,103,1434812768
16,17,Jits_Phase_5,3,5,80,127,1434833224
16,17,Jits_Phase_5,0,5,56,103,1435232628
16,17,Jits_Phase_5,1,1,48,40,1435261104
16,17,Jits_Phase_5,2,5,63,98,1435293112
16,17,Jits_Phase_5,3,5,80,127,1435296548
16,17,Jits_Phase_5,0,1,48,40,1435708368
16,17,Jits_Phase_5,1,5,80,127,1435752684
16,17,Jits_Phase_5,2,5,56,103,1435762952
16,17,Jits_Phase_5,3,5,63,98,1435832788
16,17,Jits_Phase_5,0,5,80,127,1436243444
16,17,Jits_Phase_5,1,1,48,44,1436275704
16,17,Jits_Phase_5,2,5,56,103,1436312844
16,17,Jits_Phase_5,3,5,63,98,1436323116
16,17,Jits_Phase_5,0,5,63,98,1436783060
16,17,Jits_Phase_5,1,1,48,39,1436789320
16,17,Jits_Phase_5,2,5,56,103,1436793124
16,17,Jits_Phase_5,3,5,80,127,1436812760
16,17,Jits_Phase_5,0,5,80,127,1437232616
16,17,Jits_Phase_5,1,5,63,98,1437292856
16,17,Jits_Phase_5,2,1,48,44,1437314060
16,17,Jits_Phase_5,3,5,56,103,1437332812
16,17,Jits_Phase_5,0,5,56,103,1437773064
16,17,Jits_Phase_5,1,5,63,98,1437783704
16,17,Jits_Phase_5,2,1,48,40,1437801068
16,17,Jits_Phase_5,3,5,80,127,1437823436
16,17,Jits_Phase_5,0,5,56,103,1438232820
16,17,Jits_Phase_5,1,5,80,127,1438262792
16,17,Jits_Phase_5,2,5,63,98,1438312916
16,17,Jits_Phase_5,3,1,48,27,1438318500
16,17,Jits_Phase_5,0,5,56,103,1438772740
16,17,Jits_Phase_5,1,1,48,35,1438795708
16,17,Jits_Phase_5,2,5,63,98,1438812520
16,17,Jits_Phase_5,3,5,80,127,1438815732
16,17,Jits_Phase_5,0,1,48,40,1439264000
16,17,Jits_Phase_5,1,5,56,103,1439273536
16,17,Jits_Phase_5,2,5,63,98,1439282608
16,17,Jits_Phase_5,3,5,80,127,1439302992
16,17,Jits_Phase_5,0,5,56,103,1439743472
16,17,Jits_Phase_5,1,5,80,127,1439746612
16,17,Jits_Phase_5,2,1,48,38,1439757752
16,17,Jits_Phase_5,3,5,63,98,1439783476
16,17,Jits_Phase_5,0,1,48,40,1440226708
16,17,Jits_Phase_5,1,5,63,98,1440282856
16,17,Jits_Phase_5,2,5,56,103,1440312680
16,17,Jits_Phase_5,3,5,80,127,1440333048
16,17,Jits_Phase_5,0,1,48,38,1440749980
16,17,Jits_Phase_5,1,5,80,127,1440753012
16,17,Jits_Phase_5,2,5,56,103,1440763356
16,17,Jits_Phase_5,3,5,63,98,1440772728
16,17,Jits_Phase_5,0,1,48,41,1441236392
16,17,Jits_Phase_5,1,5,56,103,1441252680
16,17,Jits_Phase_5,2,5,80,127,1441292620
16,17,Jits_Phase_5,3,5,63,98,1441323564
16,17,Jits_Phase_5,0,1,48,42,1441712624
16,17,Jits_Phase_5,1,5,63,98,1441762768
16,17,Jits_Phase_5,2,5,80,127,1441772964
16,17,Jits_Phase_5,3,5,56,103,1441783308
16,17,Jits_Phase_5,0,1,48,40,1442240080
16,17,Jits_Phase_5,1,5,56,103,1442253076
16,17,Jits_Phase_5,2,5,63,98,1442322832
16,17,Jits_Phase_5,3,5,80,127,1442333028
16,17,Jits_Phase_5,0,5,80,127,1442763240
16,17,Jits_Phase_5,1,1,48,42,1442764728
16,17,Jits_Phase_5,2,5,56,103,1442773356
16,17,Jits_Phase_5,3,5,63,98,1442822584
16,17,Jits_Phase_5,0,5,80,127,1443273264
16,17,Jits_Phase_5,1,1,48,40,1443279972
16,17,Jits_Phase_5,2,5,56,103,1443332600
16,17,Jits_Phase_5,3,5,63,98,1443363392
16,17,Jits_Phase_5,0,1,48,46,1443718448
16,17,Jits_Phase_5,1,5,56,103,1443772720
16,17,Jits_Phase_5,2,5,80,127,1443775712
16,17,Jits_Phase_5,3,5,63,98,1443812640
16,17,Jits_Phase_5,0,1,48,47,1444254444
16,17,Jits_Phase_5,1,5,56,103,1444303468
16,17,Jits_Phase_5,2,5,63,98,1444332844
16,17,Jits_Phase_5,3,5,80,127,1444343264
16,17,Jits_Phase_5,0,1,48,48,1444748944
16,17,Jits_Phase_5,1,5,63,98,1444813112
16,17,Jits_Phase_5,2,5,80,127,1444823528
16,17,Jits_Phase_5,3,5,56,103,1444832604
16,17,Jits_Phase_5,0,5,80,127,1445262672
16,17,Jits_Phase_5,1,1,48,48,1445275304
16,17,Jits_Phase_5,2,5,56,103,1445312940
16,17,Jits_Phase_5,3,5,63,98,1445315932
16,17,Jits_Phase_5,0,1,48,46,1445775944
16,17,Jits_Phase_5,1,5,56,103,1445793428
16,17,Jits_Phase_5,2,5,80,127,1445812544
16,17,Jits_Phase_5,3,5,63,98,1445822964
16,17,Jits_Phase_5,0,1,48,43,1446256340
16,17,Jits_Phase_5,1,5,63,98,1446273328
16,17,Jits_Phase_5,2,5,56,103,1446303372
16,17,Jits_Phase_5,3,5,80,127,1446322636
16,17,Jits_Phase_5,0,1,48,42,1446743656
16,17,Jits_Phase_5,1,5,56,103,1446783340
16,17,Jits_Phase_5,2,5,80,127,1446792488
16,17,Jits_Phase_5,3,5,63,98,1446863496
16,17,Jits_Phase_5,0,1,48,46,1447253744
16,17,Jits_Phase_5,1,5,63,98,1447272724
16,17,Jits_Phase_5,2,5,80,127,1447312612
16,17,Jits_Phase_5,3,5,56,103,1447352608
16,17,Jits_Phase_5,0,1,48,38,1447750036
16,17,Jits_Phase_5,1,5,56,103,1447782664
16,17,Jits_Phase_5,2,5,63,98,1447793380
16,17,Jits_Phase_5,3,5,80,127,1447812444
16,17,Jits_Phase_5,0,1,48,38,1448247540
16,17,Jits_Phase_5,1,5,63,98,1448322516
16,17,Jits_Phase_5,2,5,80,127,1448342884
16,17,Jits_Phase_5,3,5,56,103,1448363492
16,17,Jits_Phase_5,0,1,48,37,1448746832
16,17,Jits_Phase_5,1,5,56,103,1448762676
16,17,Jits_Phase_5,2,5,80,127,1448842552
16,17,Jits_Phase_5,3,5,63,98,1448852824
16,17,Jits_Phase_5,0,1,48,39,1449249652
16,17,Jits_Phase_5,1,5,80,127,1449303480
16,17,Jits_Phase_5,2,5,63,98,1449312556
16,17,Jits_Phase_5,3,5,56,103,1449343360
16,17,Jits_Phase_5,0,5,63,98,1449763228
16,17,Jits_Phase_5,1,5,80,127,1449803540
16,17,Jits_Phase_5,2,1,48,30,1449816248
16,17,Jits_Phase_5,3,5,56,103,1449862672
16,17,Jits_Phase_5,0,5,63,98,1450273240
16,17,Jits_Phase_5,1,1,48,41,1450277256
16,17,Jits_Phase_5,2,5,56,103,1450323508
16,17,Jits_Phase_5,3,5,80,127,1450353104
16,17,Jits_Phase_5,0,5,80,127,1450772764
16,17,Jits_Phase_5,1,5,63,98,1450783260
16,17,Jits_Phase_5,2,1,48,35,1450789668
16,17,Jits_Phase_5,3,5,56,103,1450852708
16,17,Jits_Phase_5,0,1,48,34,1451302172
16,17,Jits_Phase_5,1,5,80,127,1451332912
16,17,Jits_Phase_5,2,5,56,103,1451343328
16,17,Jits_Phase_5,3,5,63,98,1451346244
16,17,Jits_Phase_5,0,5,56,103,1451773180
16,17,Jits_Phase_5,1,1,48,39,1451789552
16,17,Jits_Phase_5,2,5,80,127,1451792880
16,17,Jits_Phase_5,3,5,63,98,1451803076
16,17,Jits_Phase_5,0,1,48,40,1452258216
16,17,Jits_Phase_5,1,5,63,98,1452283276
16,17,Jits_Phase_5,2,5,56,103,1452323212
16,17,Jits_Phase_5,3,5,80,127,1452342548
16,17,Jits_Phase_5,0,1,48,43,1452752292
16,17,Jits_Phase_5,1,5,63,98,1452783028
16,17,Jits_Phase_5,2,5,56,103,1452843492
16,17,Jits_Phase_5,3,5,80,127,1452846332
16,17,Jits_Phase_5,0,5,56,103,1453242776
16,17,Jits_Phase_5,1,1,48,41,1453247988
16,17,Jits_Phase_5,2,5,80,127,1453263300
16,17,Jits_Phase_5,3,5,63,98,1453303384
16,17,Jits_Phase_5,0,1,48,43,1453736580
16,17,Jits_Phase_5,1,5,56,103,1453773244
16,17,Jits_Phase_5,2,5,63,98,1453792508
16,17,Jits_Phase_5,3,5,80,127,1453802780
16,17,Jits_Phase_5,0,5,80,127,1454243332
16,17,Jits_Phase_5,1,1,48,44,1454262416
16,17,Jits_Phase_5,2,5,56,103,1454272776
16,17,Jits_Phase_5,3,5,63,98,1454312712
16,17,Jits_Phase_5,0,1,48,46,1454728372
16,17,Jits_Phase_5,1,5,80,127,1454753496
16,17,Jits_Phase_5,2,5,56,103,1454772464
16,17,Jits_Phase_5,3,5,63,98,1454833060
16,17,Jits_Phase_5,0,5,56,103,1455263292
16,17,Jits_Phase_5,1,5,80,127,1455282480
16,17,Jits_Phase_5,2,1,48,44,1455283448
16,17,Jits_Phase_5,3,5,63,98,1455343084
16,17,Jits_Phase_5,0,5,80,127,1455743356
16,17,Jits_Phase_5,1,5,56,103,1455752504
16,17,Jits_Phase_5,2,1,48,39,1455787160
16,17,Jits_Phase_5,3,5,63,98,1455792508
16,17,Jits_Phase_5,0,5,63,98,1456243240
16,17,Jits_Phase_5,1,1,48,39,1456265184
16,17,Jits_Phase_5,2,5,56,103,1456283044
16,17,Jits_Phase_5,3,5,80,127,1456286036
16,17,Jits_Phase_5,0,5,63,98,1456763452
16,17,Jits_Phase_5,1,1,48,43,1456765092
16,17,Jits_Phase_5,2,5,80,127,1456803160
16,17,Jits_Phase_5,3,5,56,103,1456832984
16,17,Jits_Phase_5,0,5,56,103,1457252692
16,17,Jits_Phase_5,1,1,48,43,1457256932
16,17,Jits_Phase_5,2,5,63,98,1457263252
16,17,Jits_Phase_5,3,5,80,127,1457292728
16,17,Jits_Phase_5,0,5,80,127,1457743088
16,17,Jits_Phase_5,1,1,48,39,1457744424
16,17,Jits_Phase_5,2,5,63,98,1457812712
16,17,Jits_Phase_5,3,5,56,103,1457823280
16,17,Jits_Phase_5,0,1,48,42,1458214348
16,17,Jits_Phase_5,1,5,63,98,1458242996
16,17,Jits_Phase_5,2,5,56,103,1458312684
16,17,Jits_Phase_5,3,5,80,127,1458323176
16,17,Jits_Phase_5,0,5,63,98,1458723196
16,17,Jits_Phase_5,1,5,56,103,1458742532
16,17,Jits_Phase_5,2,1,48,35,1458774200
16,17,Jits_Phase_5,3,5,80,127,1458782540
16,17,Jits_Phase_5,0,5,56,103,1459202276
16,17,Jits_Phase_5,1,5,63,98,1459212544
16,17,Jits_Phase_5,2,1,48,34,1459228244
16,17,Jits_Phase_5,3,5,80,127,1459292476
16,17,Jits_Phase_5,0,1,48,38,1459682600
16,17,Jits_Phase_5,1,5,63,98,1459693184
16,17,Jits_Phase_5,2,5,56,103,1459722560
16,17,Jits_Phase_5,3,5,80,127,1459762496
16,17,Jits_Phase_5,0,1,48,44,1460159476
16,17,Jits_Phase_5,1,5,56,103,1460192556
16,17,Jits_Phase_5,2,5,63,98,1460232496
16,17,Jits_Phase_5,3,5,80,127,1460272488
16,17,Jits_Phase_5,0,1,48,43,1460634212
16,17,Jits_Phase_5,1,5,80,127,1460693424
16,17,Jits_Phase_5,2,5,56,103,1460773132
16,17,Jits_Phase_5,3,5,63,98,1460782504
16,17,Jits_Phase_5,0,1,48,44,1461179280
16,17,Jits_Phase_5,1,5,56,103,1461233104
16,17,Jits_Phase_5,2,5,63,98,1461236172
16,17,Jits_Phase_5,3,5,80,127,1461243228
16,17,Jits_Phase_5,0,1,48,40,1461651764
16,17,Jits_Phase_5,1,5,56,103,1461753280
16,17,Jits_Phase_5,2,5,63,98,1461772620
16,17,Jits_Phase_5,3,5,80,127,1461783036
16,17,Jits_Phase_5,0,1,48,39,1462177128
16,17,Jits_Phase_5,1,5,63,98,1462213044
16,17,Jits_Phase_5,2,5,80,127,1462223168
16,17,Jits_Phase_5,3,5,56,103,1462242804
16,17,Jits_Phase_5,0,1,48,40,1462670968
16,17,Jits_Phase_5,1,5,63,98,1462712868
16,17,Jits_Phase_5,2,5,56,103,1462792416
16,17,Jits_Phase_5,3,5,80,127,1462795712
16,17,Jits_Phase_5,0,1,48,44,1463177596
16,17,Jits_Phase_5,1,5,63,98,1463213360
16,17,Jits_Phase_5,2,5,56,103,1463232848
16,17,Jits_Phase_5,3,5,80,127,1463262668
16,17,Jits_Phase_5,0,1,48,40,1463673908
16,17,Jits_Phase_5,1,5,56,103,1463713336
16,17,Jits_Phase_5,2,5,63,98,1463732672
16,17,Jits_Phase_5,3,5,80,127,1463743020
16,17,Jits_Phase_5,0,1,48,38,1464154300
16,17,Jits_Phase_5,1,5,56,103,1464242456
16,17,Jits_Phase_5,2,5,63,98,1464273312
16,17,Jits_Phase_5,3,5,80,127,1464276524
16,17,Jits_Phase_5,0,1,48,39,1464688348
16,17,Jits_Phase_5,1,5,56,103,1464703388
16,17,Jits_Phase_5,2,5,63,98,1464743252
16,17,Jits_Phase_5,3,5,80,127,1464802876
16,17,Jits_Phase_5,0,1,48,38,1465210592
16,17,Jits_Phase_5,1,5,56,103,1465222472
16,17,Jits_Phase_5,2,5,63,98,1465232888
16,17,Jits_Phase_5,3,5,80,127,1465293276
16,17,Jits_Phase_5,0,1,48,40,1465712280
16,17,Jits_Phase_5,1,5,56,103,1465723196
16,17,Jits_Phase_5,2,5,80,127,1465742904
16,17,Jits_Phase_5,3,5,63,98,1465773400
16,17,Jits_Phase_5,0,5,80,127,1466223000
16,17,Jits_Phase_5,1,1,48,37,1466228960
16,17,Jits_Phase_5,2,5,56,103,1466233360
16,17,Jits_Phase_5,3,5,63,98,1466252700
16,17,Jits_Phase_5,0,5,63,98,1466712424
16,17,Jits_Phase_5,1,1,48,38,1466723864
16,17,Jits_Phase_5,2,5,80,127,1466793284
16,17,Jits_Phase_5,3,5,56,103,1466802584
16,17,Jits_Phase_5,0,1,48,39,1467221292
16,17,Jits_Phase_5,1,5,80,127,1467303224
16,17,Jits_Phase_5,2,5,56,103,1467323072
16,17,Jits_Phase_5,3,5,63,98,1467325984
16,17,Jits_Phase_5,0,1,48,40,1467722980
16,17,Jits_Phase_5,1,5,63,98,1467792852
16,17,Jits_Phase_5,2,5,80,127,1467796064
16,17,Jits_Phase_5,3,5,56,103,1467853148
16,17,Jits_Phase_5,0,1,48,44,1468250372
16,17,Jits_Phase_5,1,5,56,103,1468273164
16,17,Jits_Phase_5,2,5,80,127,1468283236
16,17,Jits_Phase_5,3,5,63,98,1468323324
16,17,Jits_Phase_5,0,5,56,103,1468753216
16,17,Jits_Phase_5,1,1,48,42,1468777008
16,17,Jits_Phase_5,2,5,63,98,1468812876
16,17,Jits_Phase_5,3,5,80,127,1468822920
16,17,Jits_Phase_5,0,5,63,98,1469263244
16,17,Jits_Phase_5,1,5,80,127,1469303208
16,17,Jits_Phase_5,2,1,48,37,1469321092
16,17,Jits_Phase_5,3,5,56,103,1469343064
16,17,Jits_Phase_5,0,5,56,103,1469762916
16,17,Jits_Phase_5,1,1,48,35,1469817148
16,17,Jits_Phase_5,2,5,63,98,1469842948
16,17,Jits_Phase_5,3,5,80,127,1469846236
16,17,Jits_Phase_5,0,1,48,37,1470307204
16,17,Jits_Phase_5,1,5,80,127,1470322972
16,17,Jits_Phase_5,2,5,56,103,1470352896
16,17,Jits_Phase_5,3,5,63,98,1470356036
16,17,Jits_Phase_5,0,5,56,103,1470782944
16,17,Jits_Phase_5,1,5,80,127,1470803400
16,17,Jits_Phase_5,2,1,48,34,1470804292
16,17,Jits_Phase_5,3,5,63,98,1470843208
16,17,Jits_Phase_5,0,5,80,127,1471263080
16,17,Jits_Phase_5,1,1,48,35,1471266196
16,17,Jits_Phase_5,2,5,63,98,1471282484
16,17,Jits_Phase_5,3,5,56,103,1471342944
16,17,Jits_Phase_5,0,5,63,98,1471773032
16,17,Jits_Phase_5,1,1,48,39,1471777948
16,17,Jits_Phase_5,2,5,56,103,1471783220
16,17,Jits_Phase_5,3,5,80,127,1471832372
16,17,Jits_Phase_5,0,5,56,103,1472262520
16,17,Jits_Phase_5,1,1,48,35,1472276724
16,17,Jits_Phase_5,2,5,63,98,1472283120
16,17,Jits_Phase_5,3,5,80,127,1472293168
16,17,Jits_Phase_5,0,5,56,103,1472752988
16,17,Jits_Phase_5,1,5,63,98,1472756052
16,17,Jits_Phase_5,2,1,48,36,1472759692
16,17,Jits_Phase_5,3,5,80,127,1472772464
16,17,Jits_Phase_5,0,1,48,30,1473247976
16,17,Jits_Phase_5,1,5,63,98,1473292736
16,17,Jits_Phase_5,2,5,56,103,1473323236
16,17,Jits_Phase_5,3,5,80,127,1473353192
16,17,Jits_Phase_5,0,1,48,38,1473716792
16,17,Jits_Phase_5,1,5,80,127,1473752708
16,17,Jits_Phase_5,2,5,56,103,1473842748
16,17,Jits_Phase_5,3,5,63,98,1473845888
16,17,Jits_Phase_5,0,1,48,38,1474245156
16,17,Jits_Phase_5,1,5,56,103,1474253124
16,17,Jits_Phase_5,2,5,80,127,1474256188
16,17,Jits_Phase_5,3,5,63,98,1474332912
16,17,Jits_Phase_5,0,1,48,38,1474747512
16,17,Jits_Phase_5,1,5,80,127,1474752936
16,17,Jits_Phase_5,2,5,63,98,1474813400
16,17,Jits_Phase_5,3,5,56,103,1474842852
16,17,Jits_Phase_5,0,1,48,38,1475241276
16,17,Jits_Phase_5,1,5,63,98,1475252760
16,17,Jits_Phase_5,2,5,80,127,1475262884
16,17,Jits_Phase_5,3,5,56,103,1475332632
16,17,Jits_Phase_5,0,1,48,41,1475750892
16,17,Jits_Phase_5,1,5,56,103,1475812592
16,17,Jits_Phase_5,2,5,80,127,1475842716
16,17,Jits_Phase_5,3,5,63,98,1475892676
16,17,Jits_Phase_5,0,1,48,37,1476266008
16,17,Jits_Phase_5,1,5,63,98,1476402748
16,17,Jits_Phase_5,2,5,56,103,1476433164
16,17,Jits_Phase_5,3,5,80,127,1476436236
16,17,Jits_Phase_5,0,1,48,39,1476778184
16,17,Jits_Phase_5,1,5,63,98,1476912756
16,17,Jits_Phase_5,2,5,80,127,1476932844
16,17,Jits_Phase_5,3,5,56,103,1476943184
16,17,Jits_Phase_5,0,1,48,36,1477321776
16,17,Jits_Phase_5,1,5,56,103,1477422620
16,17,Jits_Phase_5,2,5,63,98,1477425684
16,17,Jits_Phase_5,3,5,80,127,1477442780
16,17,Jits_Phase_5,0,1,48,40,1477852004
16,17,Jits_Phase_5,1,5,56,103,1477873004
16,17,Jits_Phase_5,2,5,63,98,1477883124
16,17,Jits_Phase_5,3,5,80,127,1477912872
16,17,Jits_Phase_5,0,1,48,37,1478375720
16,17,Jits_Phase_5,1,5,63,98,1478393128
16,17,Jits_Phase_5,2,5,80,127,1478412912
16,17,Jits_Phase_5,3,5,56,103,1478452700
16,17,Jits_Phase_5,0,1,48,36,1478868792
16,17,Jits_Phase_5,1,5,56,103,1478922696
16,17,Jits_Phase_5,2,5,63,98,1478962632
16,17,Jits_Phase_5,3,5,80,127,1478965924
16,17,Jits_Phase_5,0,1,48,40,1479355440
16,17,Jits_Phase_5,1,5,80,127,1479362880
16,17,Jits_Phase_5,2,5,56,103,1479402968
16,17,Jits_Phase_5,3,5,63,98,1479452928
16,17,Jits_Phase_5,0,1,48,36,1479842752
16,17,Jits_Phase_5,1,5,56,103,1479922940
16,17,Jits_Phase_5,2,5,80,127,1479933436
16,17,Jits_Phase_5,3,5,63,98,1479962944
16,17,Jits_Phase_5,0,1,48,40,1480358600
16,17,Jits_Phase_5,1,5,56,103,1480372648
16,17,Jits_Phase_5,2,5,80,127,1480412736
16,17,Jits_Phase_5,3,5,63,98,1480462768
16,17,Jits_Phase_5,0,1,48,39,1480845992
16,17,Jits_Phase_5,1,5,56,103,1480873516
16,17,Jits_Phase_5,2,5,80,127,1480913232
16,17,Jits_Phase_5,3,5,63,98,1480962516
16,17,Jits_Phase_5,0,1,48,35,1481362032
16,17,Jits_Phase_5,1,5,80,127,1481363676
16,17,Jits_Phase_5,2,5,63,98,1481442648
16,17,Jits_Phase_5,3,5,56,103,1481453348
16,17,Jits_Phase_5,0,1,48,37,1481890508
16,17,Jits_Phase_5,1,5,80,127,1481912648
16,17,Jits_Phase_5,2,5,56,103,1481922844
16,17,Jits_Phase_5,3,5,63,98,1481943672
16,17,Jits_Phase_5,0,5,63,98,1482382588
16,17,Jits_Phase_5,1,1,48,39,1482407652
16,17,Jits_Phase_5,2,5,56,103,1482453604
16,17,Jits_Phase_5,3,5,80,127,1482456596
16,17,Jits_Phase_5,0,5,80,127,1482873192
16,17,Jits_Phase_5,1,1,48,40,1482914668
16,17,Jits_Phase_5,2,5,63,98,1482923384
16,17,Jits_Phase_5,3,5,56,103,1482963320
16,17,Jits_Phase_5,0,1,48,37,1483374920
16,17,Jits_Phase_5,1,5,63,98,1483412808
16,17,Jits_Phase_5,2,5,56,103,1483452820
16,17,Jits_Phase_5,3,5,80,127,1483463164
16,17,Jits_Phase_5,0,1,48,39,1483893936
16,17,Jits_Phase_5,1,5,63,98,1483903472
16,17,Jits_Phase_5,2,5,56,103,1483922884
16,17,Jits_Phase_5,3,5,80,127,1483943488
16,17,Jits_Phase_5,0,5,80,127,1484363196
16,17,Jits_Phase_5,1,5,56,103,1484373764
16,17,Jits_Phase_5,2,1,48,40,1484391288
16,17,Jits_Phase_5,3,5,63,98,1484392796
16,17,Jits_Phase_5,0,1,48,37,1484844568
16,17,Jits_Phase_5,1,5,63,98,1484892544
16,17,Jits_Phase_5,2,5,56,103,1484932656
16,17,Jits_Phase_5,3,5,80,127,1484963064
16,17,Jits_Phase_5,0,1,48,39,1485350228
16,17,Jits_Phase_5,1,5,56,103,1485353408
16,17,Jits_Phase_5,2,5,63,98,1485383160
16,17,Jits_Phase_5,3,5,80,127,1485412836
16,17,Jits_Phase_5,0,5,80,127,1485773388
16,17,Jits_Phase_5,1,5,56,103,1485842768
16,17,Jits_Phase_5,2,5,63,98,1485845832
16,17,Jits_Phase_5,3,1,48,39,1485853904
16,17,Jits_Phase_5,0,5,56,103,1486283328
16,17,Jits_Phase_5,1,1,48,38,1486326832
16,17,Jits_Phase_5,2,5,63,98,1486333672
16,17,Jits_Phase_5,3,5,80,127,1486362976
16,17,Jits_Phase_5,0,5,63,98,1486763616
16,17,Jits_Phase_5,1,5,80,127,1486766828
16,17,Jits_Phase_5,2,1,48,40,1486791388
16,17,Jits_Phase_5,3,5,56,103,1486822872
16,17,Jits_Phase_5,0,1,48,41,1487269456
16,17,Jits_Phase_5,1,5,56,103,1487292644
16,17,Jits_Phase_5,2,5,80,127,1487303136
16,17,Jits_Phase_5,3,5,63,98,1487353332
16,17,Jits_Phase_5,0,1,48,44,1487747484
16,17,Jits_Phase_5,1,5,63,98,1487762724
16,17,Jits_Phase_5,2,5,56,103,1487772996
16,17,Jits_Phase_5,3,5,80,127,1487802596
16,17,Jits_Phase_5,0,1,48,41,1488220000
16,17,Jits_Phase_5,1,5,63,98,1488293328
16,17,Jits_Phase_5,2,5,80,127,1488296616
16,17,Jits_Phase_5,3,5,56,103,1488322912
16,17,Jits_Phase_5,0,1,48,40,1488743500
16,17,Jits_Phase_5,1,5,63,98,1488813372
16,17,Jits_Phase_5,2,5,56,103,1488832780
16,17,Jits_Phase_5,3,5,80,127,1488835848
16,17,Jits_Phase_5,0,1,48,37,1489251636
16,17,Jits_Phase_5,1,5,63,98,1489273480
16,17,Jits_Phase_5,2,5,56,103,1489342864
16,17,Jits_Phase_5,3,5,80,127,1489363380
16,17,Jits_Phase_5,0,1,48,43,1489723440
16,17,Jits_Phase_5,1,5,56,103,1489762648
16,17,Jits_Phase_5,2,5,63,98,1489772768
16,17,Jits_Phase_5,3,5,80,127,1489862904
16,17,Jits_Phase_5,0,1,48,38,1490281648
16,17,Jits_Phase_5,1,5,56,103,1490283144
16,17,Jits_Phase_5,2,5,80,127,1490322660
16,17,Jits_Phase_5,3,5,63,98,1490332932
16,17,Jits_Phase_5,0,1,48,43,1490769152
16,17,Jits_Phase_5,1,5,56,103,1490803048
16,17,Jits_Phase_5,2,5,63,98,1490832824
16,17,Jits_Phase_5,3,5,80,127,1490862572
16,17,Jits_Phase_5,0,5,80,127,1491262728
16,17,Jits_Phase_5,1,1,48,36,1491285400
16,17,Jits_Phase_5,2,5,63,98,1491302660
16,17,Jits_Phase_5,3,5,56,103,1491323512
16,17,Jits_Phase_5,0,1,48,42,1491766268
16,17,Jits_Phase_5,1,5,56,103,1491802416
16,17,Jits_Phase_5,2,5,80,127,1491822948
16,17,Jits_Phase_5,3,5,63,98,1491842384
16,17,Jits_Phase_5,0,5,63,98,1492272428
16,17,Jits_Phase_5,1,1,48,40,1492278612
16,17,Jits_Phase_5,2,5,56,103,1492282840
16,17,Jits_Phase_5,3,5,80,127,1492343396
16,17,Jits_Phase_5,0,1,48,30,1492769208
16,17,Jits_Phase_5,1,5,56,103,1492773584
16,17,Jits_Phase_5,2,5,63,98,1492842968
16,17,Jits_Phase_5,3,5,80,127,1492863304
16,17,Jits_Phase_5,0,1,48,36,1493237568
16,17,Jits_Phase_5,1,5,56,103,1493272892
16,17,Jits_Phase_5,2,5,63,98,1493302644
16,17,Jits_Phase_5,3,5,80,127,1493342636
16,17,Jits_Phase_5,0,1,48,46,1493735604
16,17,Jits_Phase_5,1,5,63,98,1493762452
16,17,Jits_Phase_5,2,5,56,103,1493812580
16,17,Jits_Phase_5,3,5,80,127,1493822776
16,17,Jits_Phase_5,0,1,48,48,1494267040
16,17,Jits_Phase_5,1,5,56,103,1494303180
16,17,Jits_Phase_5,2,5,63,98,1494353308
16,17,Jits_Phase_5,3,5,80,127,1494362440
16,17,Jits_Phase_5,0,5,56,103,1494773272
16,17,Jits_Phase_5,1,5,63,98,1494783392
16,17,Jits_Phase_5,2,1,48,46,1494810704
16,17,Jits_Phase_5,3,5,80,127,1494863176
16,17,Jits_Phase_5,0,9999,9999,9999,9999,1410510960
16,17,Jits_Phase_5,1,9999,9999,9999,9999,1411010660
16,17,Jits_Phase_5,2,9999,9999,9999,9999,1411510336
16,17,Jits_Phase_5,3,9999,9999,9999,9999,1412011072
16,17,Jits_Phase_5,4,9999,9999,9999,9999,1412521088
16,17,Jits_Phase_5,5,9999,9999,9999,9999,1413020768
16,17,Jits_Phase_5,6,9999,9999,9999,9999,1413520440
16,17,Jits_Phase_5,7,9999,9999,9999,9999,1414020204
16,17,Jits_Phase_5,8,9999,9999,9999,9999,1414520912
16,17,Jits_Phase_5,9,9999,9999,9999,9999,1415020604
16,17,Jits_Phase_5,10,9999,9999,9999,9999,1415520360
16,17,Jits_Phase_5,11,9999,9999,9999,9999,1416021104
16,17,Jits_Phase_5,12,9999,9999,9999,9999,1416520768
16,17,Jits_Phase_5,13,9999,9999,9999,9999,1417020516
16,17,Jits_Phase_5,14,9999,9999,9999,9999,1417520192
16,17,Jits_Phase_5,15,9999,9999,9999,9999,1418020924
16,17,Jits_Phase_5,16,9999,9999,9999,9999,1418520684
16,17,Jits_Phase_5,17,9999,9999,9999,9999,1419020360
16,17,Jits_Phase_5,18,9999,9999,9999,9999,1419520120
16,17,Jits_Phase_5,19,9999,9999,9999,9999,1420020860
16,17,Jits_Phase_5,20,9999,9999,9999,9999,1420520532
16,17,Jits_Phase_5,21,9999,9999,9999,9999,1421020220
16,17,Jits_Phase_5,22,9999,9999,9999,9999,1421520956
16,17,Jits_Phase_5,23,9999,9999,9999,9999,1422020720
16,17,Jits_Phase_5,24,9999,9999,9999,9999,1422520408
16,17,Jits_Phase_5,25,9999,9999,9999,9999,1423020092
16,17,Jits_Phase_5,26,9999,9999,9999,9999,1423520832
16,17,Jits_Phase_5,27,9999,9999,9999,9999,1424020572
16,17,Jits_Phase_5,28,9999,9999,9999,9999,1424520264
16,17,Jits_Phase_5,29,9999,9999,9999,9999,1425020996
16,17,Jits_Phase_5,30,9999,9999,9999,9999,1425510476
16,17,Jits_Phase_5,31,9999,9999,9999,9999,1426010216
16,17,Jits_Phase_5,32,9999,9999,9999,9999,1426510952
16,17,Jits_Phase_5,33,9999,9999,9999,9999,1427010640
16,17,Jits_Phase_5,34,9999,9999,9999,9999,1427510328
16,17,Jits_Phase_5,35,9999,9999,9999,9999,1428011068
16,17,Jits_Phase_5,36,9999,9999,9999,9999,1428521068
16,17,Jits_Phase_5,37,9999,9999,9999,9999,1429020744
16,17,Jits_Phase_5,38,9999,9999,9999,9999,1429520508
16,17,Jits_Phase_5,39,9999,9999,9999,9999,1430020184
16,17,Jits_Phase_5,40,9999,9999,9999,9999,1430520908
16,17,Jits_Phase_5,41,9999,9999,9999,9999,1431020656
16,17,Jits_Phase_5,42,9999,9999,9999,9999,1431520344
16,17,Jits_Phase_5,43,9999,9999,9999,9999,1432021064
16,17,Jits_Phase_5,44,9999,9999,9999,9999,1432520816
16,17,Jits_Phase_5,45,9999,9999,9999,9999,1433020488
16,17,Jits_Phase_5,46,9999,9999,9999,9999,1433520240
16,17,Jits_Phase_5,47,9999,9999,9999,9999,1434020968
16,17,Jits_Phase_5,48,9999,9999,9999,9999,1434530908
16,17,Jits_Phase_5,49,9999,9999,9999,9999,1435030588
16,17,Jits_Phase_5,50,9999,9999,9999,9999,1435530328
16,17,Jits_Phase_5,51,9999,9999,9999,9999,1436031064
16,17,Jits_Phase_5,52,9999,9999,9999,9999,1436530792
16,17,Jits_Phase_5,53,9999,9999,9999,9999,1437030472
16,17,Jits_Phase_5,54,9999,9999,9999,9999,1437530224
16,17,Jits_Phase_5,55,9999,9999,9999,9999,1438030964
16,17,Jits_Phase_5,56,9999,9999,9999,9999,1438530648
16,17,Jits_Phase_5,57,9999,9999,9999,9999,1439030332
16,17,Jits_Phase_5,58,9999,9999,9999,9999,1439531068
16,17,Jits_Phase_5,59,9999,9999,9999,9999,1440041068
16,17,Jits_Phase_5,60,9999,9999,9999,9999,1440540764
16,17,Jits_Phase_5,61,9999,9999,9999,9999,1441040504
16,17,Jits_Phase_5,62,9999,9999,9999,9999,1441540180
16,17,Jits_Phase_5,63,9999,9999,9999,9999,1442040900
16,17,Jits_Phase_5,64,9999,9999,9999,9999,1442560056
16,17,Jits_Phase_5,65,9999,9999,9999,9999,1443060844
16,17,Jits_Phase_5,66,9999,9999,9999,9999,1443560532
16,17,Jits_Phase_5,67,9999,9999,9999,9999,1444060284
16,17,Jits_Phase_5,68,9999,9999,9999,9999,1444561004
16,17,Jits_Phase_5,69,9999,9999,9999,9999,1445060680
16,17,Jits_Phase_5,70,9999,9999,9999,9999,1445560416
16,17,Jits_Phase_5,71,9999,9999,9999,9999,1446060104
16,17,Jits_Phase_5,72,9999,9999,9999,9999,1446560824
16,17,Jits_Phase_5,73,9999,9999,9999,9999,1447060576
16,17,Jits_Phase_5,74,9999,9999,9999,9999,1447560248
16,17,Jits_Phase_5,75,9999,9999,9999,9999,1448061044
16,17,Jits_Phase_5,76,9999,9999,9999,9999,1448560696
16,17,Jits_Phase_5,77,9999,9999,9999,9999,1449060440
16,17,Jits_Phase_5,78,9999,9999,9999,9999,1449560116
16,17,Jits_Phase_5,79,9999,9999,9999,9999,1450060912
16,17,Jits_Phase_5,80,9999,9999,9999,9999,1450560584
16,17,Jits_Phase_5,81,9999,9999,9999,9999,1451040856
16,17,Jits_Phase_5,82,9999,9999,9999,9999,1451540544
16,17,Jits_Phase_5,83,9999,9999,9999,9999,1452040292
16,17,Jits_Phase_5,84,9999,9999,9999,9999,1452541036
16,17,Jits_Phase_5,85,9999,9999,9999,9999,1453040704
16,17,Jits_Phase_5,86,9999,9999,9999,9999,1453540452
16,17,Jits_Phase_5,87,9999,9999,9999,9999,1454040144
16,17,Jits_Phase_5,88,9999,9999,9999,9999,1454540860
16,17,Jits_Phase_5,89,9999,9999,9999,9999,1455040624
16,17,Jits_Phase_5,90,9999,9999,9999,9999,1455540300
16,17,Jits_Phase_5,91,9999,9999,9999,9999,1456041032
16,17,Jits_Phase_5,92,9999,9999,9999,9999,1456540784
16,17,Jits_Phase_5,93,9999,9999,9999,9999,1457040460
16,17,Jits_Phase_5,94,9999,9999,9999,9999,1457540204
16,17,Jits_Phase_5,95,9999,9999,9999,9999,1458040944
16,17,Jits_Phase_5,96,9999,9999,9999,9999,1458540608
16,17,Jits_Phase_5,97,9999,9999,9999,9999,1458990164
16,17,Jits_Phase_5,98,9999,9999,9999,9999,1459490884
16,17,Jits_Phase_5,99,9999,9999,9999,9999,1459990644
16,17,Jits_Phase_5,100,9999,9999,9999,9999,1460490316
16,17,Jits_Phase_5,101,9999,9999,9999,9999,1460991040
16,17,Jits_Phase_5,102,9999,9999,9999,9999,1461490776
16,17,Jits_Phase_5,103,9999,9999,9999,9999,1461990456
16,17,Jits_Phase_5,104,9999,9999,9999,9999,1462490204
16,17,Jits_Phase_5,105,9999,9999,9999,9999,1462990920
16,17,Jits_Phase_5,106,9999,9999,9999,9999,1463490668
16,17,Jits_Phase_5,107,9999,9999,9999,9999,1463990348
16,17,Jits_Phase_5,108,9999,9999,9999,9999,1464491064
16,17,Jits_Phase_5,109,9999,9999,9999,9999,1465001076
16,17,Jits_Phase_5,110,9999,9999,9999,9999,1465500752
16,17,Jits_Phase_5,111,9999,9999,9999,9999,1466000504
16,17,Jits_Phase_5,112,9999,9999,9999,9999,1466500176
16,17,Jits_Phase_5,113,9999,9999,9999,9999,1467000916
16,17,Jits_Phase_5,114,9999,9999,9999,9999,1467550784
16,17,Jits_Phase_5,115,9999,9999,9999,9999,1468050528
16,17,Jits_Phase_5,116,9999,9999,9999,9999,1468550204
16,17,Jits_Phase_5,117,9999,9999,9999,9999,1469051000
16,17,Jits_Phase_5,118,9999,9999,9999,9999,1469550664
16,17,Jits_Phase_5,119,9999,9999,9999,9999,1470050400
16,17,Jits_Phase_5,120,9999,9999,9999,9999,1470550084
16,17,Jits_Phase_5,121,9999,9999,9999,9999,1471050808
16,17,Jits_Phase_5,122,9999,9999,9999,9999,1471550572
16,17,Jits_Phase_5,123,9999,9999,9999,9999,1472050260
16,17,Jits_Phase_5,124,9999,9999,9999,9999,1472550984
16,17,Jits_Phase_5,125,9999,9999,9999,9999,1473050728
16,17,Jits_Phase_5,126,9999,9999,9999,9999,1473550420
16,17,Jits_Phase_5,127,9999,9999,9999,9999,1474050168
16,17,Jits_Phase_5,128,9999,9999,9999,9999,1474550876
16,17,Jits_Phase_5,129,9999,9999,9999,9999,1475050552
16,17,Jits_Phase_5,130,9999,9999,9999,9999,1475550296
16,17,Jits_Phase_5,131,9999,9999,9999,9999,1476150356
16,17,Jits_Phase_5,132,9999,9999,9999,9999,1476651076
16,17,Jits_Phase_5,133,9999,9999,9999,9999,1477161012
16,17,Jits_Phase_5,134,9999,9999,9999,9999,1477660756
16,17,Jits_Phase_5,135,9999,9999,9999,9999,1478160500
16,17,Jits_Phase_5,136,9999,9999,9999,9999,1478660176
16,17,Jits_Phase_5,137,9999,9999,9999,9999,1479160896
16,17,Jits_Phase_5,138,9999,9999,9999,9999,1479660644
16,17,Jits_Phase_5,139,9999,9999,9999,9999,1480160324
16,17,Jits_Phase_5,140,9999,9999,9999,9999,1480661044
16,17,Jits_Phase_5,141,9999,9999,9999,9999,1481160792
16,17,Jits_Phase_5,142,9999,9999,9999,9999,1481660544
16,17,Jits_Phase_5,143,9999,9999,9999,9999,1482160216
16,17,Jits_Phase_5,144,9999,9999,9999,9999,1482660932
16,17,Jits_Phase_5,145,9999,9999,9999,9999,1483160684
16,17,Jits_Phase_5,146,9999,9999,9999,9999,1483660380
16,17,Jits_Phase_5,147,9999,9999,9999,9999,1484160108
16,17,Jits_Phase_5,148,9999,9999,9999,9999,1484660800
16,17,Jits_Phase_5,149,9999,9999,9999,9999,1485160568
16,17,Jits_Phase_5,150,9999,9999,9999,9999,1485560908
16,17,Jits_Phase_5,151,9999,9999,9999,9999,1486060648
16,17,Jits_Phase_5,152,9999,9999,9999,9999,1486560340
16,17,Jits_Phase_5,153,9999,9999,9999,9999,1487061060
16,17,Jits_Phase_5,154,9999,9999,9999,9999,1487560812
16,17,Jits_Phase_5,155,9999,9999,9999,9999,1488060484
16,17,Jits_Phase_5,156,9999,9999,9999,9999,1488560220
16,17,Jits_Phase_5,157,9999,9999,9999,9999,1489060932
16,17,Jits_Phase_5,158,9999,9999,9999,9999,1489560684
16,17,Jits_Phase_5,159,9999,9999,9999,9999,1490060360
16,17,Jits_Phase_5,160,9999,9999,9999,9999,1490560108
16,17,Jits_Phase_5,161,9999,9999,9999,9999,1491060808
16,17,Jits_Phase_5,162,9999,9999,9999,9999,1491560556
16,17,Jits_Phase_5,163,9999,9999,9999,9999,1492060248
16,17,Jits_Phase_5,164,9999,9999,9999,9999,1492560964
16,17,Jits_Phase_5,165,9999,9999,9999,9999,1493060716
16,17,Jits_Phase_5,166,9999,9999,9999,9999,1493560392
16,17,Jits_Phase_5,167,9999,9999,9999,9999,1494060140
16,17,Jits_Phase_5,168,9999,9999,9999,9999,1494560864
16,17,Jits_Phase_5,169,9999,9999,9999,9999,1495060540
17,15,Jits_Phase_8,0,5,56,103,1505095168
17,15,Jits_Phase_8,1,5,63,98,1505098268
17,15,Jits_Phase_8,2,5,80,127,1505101388
17,15,Jits_Phase_8,0,5,56,103,1505894960
17,15,Jits_Phase_8,1,5,63,98,1505898136
17,15,Jits_Phase_8,2,5,80,127,1505901104
17,15,Jits_Phase_8,3,1,48,35,1506105480
17,15,Jits_Phase_8,0,5,80,127,1506635168
17,15,Jits_Phase_8,1,5,63,98,1506725180
17,15,Jits_Phase_8,2,5,56,103,1506734404
17,15,Jits_Phase_8,3,1,48,39,1506752812
17,15,Jits_Phase_8,0,5,56,103,1507455420
17,15,Jits_Phase_8,1,5,63,98,1507464424
17,15,Jits_Phase_8,2,1,48,47,1507522368
17,15,Jits_Phase_8,3,5,80,127,1507554620
17,15,Jits_Phase_8,0,5,63,98,1508225524
17,15,Jits_Phase_8,1,5,80,127,1508255200
17,15,Jits_Phase_8,2,1,48,51,1508264248
17,15,Jits_Phase_8,3,5,56,103,1508284944
17,15,Jits_Phase_8,4,1,48,38,1508298912
17,15,Jits_Phase_8,0,1,48,53,1509019880
17,15,Jits_Phase_8,1,5,56,103,1509025080
17,15,Jits_Phase_8,2,5,80,127,1509124416
17,15,Jits_Phase_8,3,5,63,98,1509174764
17,15,Jits_Phase_8,0,5,56,103,1509824992
17,15,Jits_Phase_8,1,5,80,127,1509875048
17,15,Jits_Phase_8,2,1,48,52,1509911420
17,15,Jits_Phase_8,3,5,63,98,1509915128
17,15,Jits_Phase_8,4,1,48,38,1509944304
17,15,Jits_Phase_8,0,5,80,127,1510655212
17,15,Jits_Phase_8,1,5,63,98,1510685040
17,15,Jits_Phase_8,2,1,48,50,1510698644
17,15,Jits_Phase_8,3,5,56,103,1510754784
17,15,Jits_Phase_8,0,1,48,53,1511463276
17,15,Jits_Phase_8,1,5,63,98,1511484948
17,15,Jits_Phase_8,2,1,48,38,1511495248
17,15,Jits_Phase_8,3,5,56,103,1511514380
17,15,Jits_Phase_8,4,5,80,127,1511574796
17,15,Jits_Phase_8,0,5,56,103,1512225028
17,15,Jits_Phase_8,1,5,80,127,1512228176
17,15,Jits_Phase_8,2,1,48,54,1512306216
17,15,Jits_Phase_8,3,1,48,38,1512339852
17,15,Jits_Phase_8,4,5,63,98,1512344904
17,15,Jits_Phase_8,0,5,56,103,1513105016
17,15,Jits_Phase_8,1,1,48,50,1513115936
17,15,Jits_Phase_8,2,5,80,127,1513144876
17,15,Jits_Phase_8,3,5,63,98,1513154924
17,15,Jits_Phase_8,0,5,56,103,1513864488
17,15,Jits_Phase_8,1,5,80,127,1513884948
17,15,Jits_Phase_8,2,1,48,52,1513945384
17,15,Jits_Phase_8,3,5,63,98,1513964884
17,15,Jits_Phase_8,0,5,80,127,1514655048
17,15,Jits_Phase_8,1,1,48,54,1514686492
17,15,Jits_Phase_8,2,5,56,103,1514754616
17,15,Jits_Phase_8,3,5,63,98,1514764740
17,15,Jits_Phase_8,0,5,63,98,1515425156
17,15,Jits_Phase_8,1,1,48,50,1515463944
17,15,Jits_Phase_8,2,5,80,127,1515484716
17,15,Jits_Phase_8,3,5,56,103,1515494764
17,15,Jits_Phase_8,0,5,56,103,1516224984
17,15,Jits_Phase_8,1,1,48,51,1516228856
17,15,Jits_Phase_8,2,5,63,98,1516294436
17,15,Jits_Phase_8,3,5,80,127,1516297948
17,15,Jits_Phase_8,0,1,48,51,1517011892
17,15,Jits_Phase_8,1,5,63,98,1517055384
17,15,Jits_Phase_8,2,5,56,103,1517104684
17,15,Jits_Phase_8,3,5,80,127,1517107752
17,15,Jits_Phase_8,0,5,56,103,1517815048
17,15,Jits_Phase_8,1,5,80,127,1517818268
17,15,Jits_Phase_8,2,1,48,51,1517846792
17,15,Jits_Phase_8,3,5,63,98,1517905476
17,15,Jits_Phase_8,0,1,48,51,1518596724
17,15,Jits_Phase_8,1,5,63,98,1518654816
17,15,Jits_Phase_8,2,5,56,103,1518744884
17,15,Jits_Phase_8,3,5,80,127,1518774708
17,15,Jits_Phase_8,0,1,48,51,1519425032
17,15,Jits_Phase_8,1,5,56,103,1519445732
17,15,Jits_Phase_8,2,5,63,98,1519544872
17,15,Jits_Phase_8,3,5,80,127,1519575668
17,15,Jits_Phase_8,0,5,63,98,1520264712
17,15,Jits_Phase_8,1,5,56,103,1520274760
17,15,Jits_Phase_8,2,1,48,47,1520284852
17,15,Jits_Phase_8,3,5,80,127,1520364960
17,15,Jits_Phase_8,0,1,48,53,1521037768
17,15,Jits_Phase_8,1,1,48,39,1521070928
17,15,Jits_Phase_8,2,5,63,98,1521084748
17,15,Jits_Phase_8,3,5,56,103,1521164768
17,15,Jits_Phase_8,4,5,80,127,1521167760
17,15,Jits_Phase_8,0,5,80,127,1521844556
17,15,Jits_Phase_8,1,1,48,54,1521855464
17,15,Jits_Phase_8,2,5,63,98,1521864932
17,15,Jits_Phase_8,3,1,48,42,1521883256
17,15,Jits_Phase_8,4,5,56,103,1521924700
17,15,Jits_Phase_8,0,5,56,103,1522685260
17,15,Jits_Phase_8,1,5,63,98,1522704744
17,15,Jits_Phase_8,2,5,80,127,1522708108
17,15,Jits_Phase_8,3,1,48,41,1522754164
17,15,Jits_Phase_8,0,5,63,98,1523424712
17,15,Jits_Phase_8,1,1,48,35,1523498628
17,15,Jits_Phase_8,2,5,80,127,1523504724
17,15,Jits_Phase_8,3,5,56,103,1523514848
17,15,Jits_Phase_8,0,1,48,40,1524235452
17,15,Jits_Phase_8,1,5,63,98,1524244840
17,15,Jits_Phase_8,2,5,56,103,1524265596
17,15,Jits_Phase_8,3,5,80,127,1524314676
17,15,Jits_Phase_8,0,1,48,43,1525036996
17,15,Jits_Phase_8,1,5,80,127,1525044520
17,15,Jits_Phase_8,2,5,63,98,1525084608
17,15,Jits_Phase_8,3,5,56,103,1525104920
17,15,Jits_Phase_8,0,1,48,42,1525813612
17,15,Jits_Phase_8,1,5,56,103,1525885580
17,15,Jits_Phase_8,2,5,63,98,1525894508
17,15,Jits_Phase_8,3,5,80,127,1525914948
17,15,Jits_Phase_8,0,5,56,103,1526615420
17,15,Jits_Phase_8,1,1,48,43,1526647408
17,15,Jits_Phase_8,2,5,63,98,1526704528
17,15,Jits_Phase_8,3,5,80,127,1526764900
17,15,Jits_Phase_8,0,1,48,49,1527375908
17,15,Jits_Phase_8,1,5,80,127,1527444808
17,15,Jits_Phase_8,2,5,56,103,1527455076
17,15,Jits_Phase_8,3,5,63,98,1527524744
17,15,Jits_Phase_8,0,1,48,43,1528229324
17,15,Jits_Phase_8,1,5,63,98,1528275728
17,15,Jits_Phase_8,2,5,80,127,1528365476
17,15,Jits_Phase_8,3,5,56,103,1528374700
17,15,Jits_Phase_8,0,5,63,98,1529005376
17,15,Jits_Phase_8,1,1,48,41,1529047532
17,15,Jits_Phase_8,2,5,80,127,1529054528
17,15,Jits_Phase_8,3,5,56,103,1529115140
17,15,Jits_Phase_8,0,1,48,46,1529798580
17,15,Jits_Phase_8,1,5,56,103,1529824684
17,15,Jits_Phase_8,2,5,80,127,1529874888
17,15,Jits_Phase_8,3,5,63,98,1529895480
17,15,Jits_Phase_8,0,1,48,47,1530536232
17,15,Jits_Phase_8,1,5,56,103,1530594548
17,15,Jits_Phase_8,2,5,80,127,1530655148
17,15,Jits_Phase_8,3,5,63,98,1530724828
17,15,Jits_Phase_8,0,1,48,46,1531254404
17,15,Jits_Phase_8,1,5,56,103,1531394444
17,15,Jits_Phase_8,2,5,80,127,1531425164
17,15,Jits_Phase_8,3,5,63,98,1531454916
17,15,Jits_Phase_8,0,1,48,45,1531990732
17,15,Jits_Phase_8,1,5,56,103,1532235248
17,15,Jits_Phase_8,2,5,80,127,1532254660
17,15,Jits_Phase_8,3,5,63,98,1532314924
17,15,Jits_Phase_8,0,1,48,44,1532756556
17,15,Jits_Phase_8,1,5,80,127,1533114676
17,15,Jits_Phase_8,2,5,56,103,1533125168
17,15,Jits_Phase_8,3,5,63,98,1533135292
17,15,Jits_Phase_8,0,5,56,103,1533874752
17,15,Jits_Phase_8,1,5,80,127,1533914396
17,15,Jits_Phase_8,2,5,63,98,1533945264
17,15,Jits_Phase_8,3,1,48,36,1534049292
17,15,Jits_Phase_8,0,5,56,103,1534644492
17,15,Jits_Phase_8,1,5,63,98,1534675288
17,15,Jits_Phase_8,2,5,80,127,1534715448
17,15,Jits_Phase_8,3,1,48,43,1534746440
17,15,Jits_Phase_8,0,5,80,127,1535395116
17,15,Jits_Phase_8,1,5,63,98,1535445396
17,15,Jits_Phase_8,2,1,48,46,1535451128
17,15,Jits_Phase_8,3,5,56,103,1535464800
17,15,Jits_Phase_8,0,1,48,43,1536194864
17,15,Jits_Phase_8,1,5,56,103,1536224628
17,15,Jits_Phase_8,2,5,80,127,1536295416
17,15,Jits_Phase_8,3,5,63,98,1536354608
17,15,Jits_Phase_8,0,5,80,127,1537025444
17,15,Jits_Phase_8,1,1,48,45,1537039576
17,15,Jits_Phase_8,2,5,63,98,1537114600
17,15,Jits_Phase_8,3,5,56,103,1537136012
17,15,Jits_Phase_8,0,5,63,98,1537844696
17,15,Jits_Phase_8,1,5,56,103,1537865156
17,15,Jits_Phase_8,2,1,48,45,1537873080
17,15,Jits_Phase_8,3,5,80,127,1537905236
17,15,Jits_Phase_8,0,1,48,48,1538588968
17,15,Jits_Phase_8,1,5,80,127,1538605556
17,15,Jits_Phase_8,2,5,63,98,1538624892
17,15,Jits_Phase_8,3,5,56,103,1538704768
17,15,Jits_Phase_8,0,1,48,44,1539395348
17,15,Jits_Phase_8,1,5,63,98,1539396460
17,15,Jits_Phase_8,2,5,56,103,1539504444
17,15,Jits_Phase_8,3,5,80,127,1539507584
17,15,Jits_Phase_8,0,1,48,46,1540213848
17,15,Jits_Phase_8,1,5,63,98,1540215420
17,15,Jits_Phase_8,2,5,56,103,1540225316
17,15,Jits_Phase_8,3,5,80,127,1540228308
17,15,Jits_Phase_8,0,5,56,103,1540994412
17,15,Jits_Phase_8,1,1,48,40,1541013196
17,15,Jits_Phase_8,2,5,80,127,1541115240
17,15,Jits_Phase_8,3,5,63,98,1541155104
17,15,Jits_Phase_8,0,5,56,103,1541814716
17,15,Jits_Phase_8,1,1,48,44,1541817684
17,15,Jits_Phase_8,2,5,80,127,1541894580
17,15,Jits_Phase_8,3,5,63,98,1541916440
17,15,Jits_Phase_8,0,5,56,103,1542615460
17,15,Jits_Phase_8,1,1,48,42,1542679336
17,15,Jits_Phase_8,2,5,63,98,1542725216
17,15,Jits_Phase_8,3,5,80,127,1542728504
17,15,Jits_Phase_8,0,5,56,103,1543455012
17,15,Jits_Phase_8,1,1,48,39,1543458880
17,15,Jits_Phase_8,2,5,80,127,1543484756
17,15,Jits_Phase_8,3,5,63,98,1543505216
17,15,Jits_Phase_8,0,5,63,98,1544244524
17,15,Jits_Phase_8,1,5,56,103,1544254792
17,15,Jits_Phase_8,2,5,80,127,1544265212
17,15,Jits_Phase_8,3,1,48,44,1544331280
17,15,Jits_Phase_8,0,5,80,127,1545034980
17,15,Jits_Phase_8,1,1,48,33,1545039072
17,15,Jits_Phase_8,2,5,56,103,1545085276
17,15,Jits_Phase_8,3,5,63,98,1545125288
17,15,Jits_Phase_8,0,1,48,44,1545832012
17,15,Jits_Phase_8,1,5,80,127,1545855296
17,15,Jits_Phase_8,2,5,63,98,1545875084
17,15,Jits_Phase_8,3,5,56,103,1545925492
17,15,Jits_Phase_8,0,1,48,50,1546603016
17,15,Jits_Phase_8,1,5,80,127,1546665244
17,15,Jits_Phase_8,2,5,56,103,1546695068
17,15,Jits_Phase_8,3,5,63,98,1546764588
17,15,Jits_Phase_8,0,1,48,43,1547407664
17,15,Jits_Phase_8,1,5,56,103,1547515116
17,15,Jits_Phase_8,2,5,80,127,1547524340
17,15,Jits_Phase_8,3,5,63,98,1547565400
17,15,Jits_Phase_8,0,5,56,103,1548224920
17,15,Jits_Phase_8,1,5,63,98,1548245304
17,15,Jits_Phase_8,2,1,48,45,1548279212
17,15,Jits_Phase_8,3,5,80,127,1548315124
17,15,Jits_Phase_8,0,1,48,47,1548989512
17,15,Jits_Phase_8,1,5,63,98,1549045208
17,15,Jits_Phase_8,2,5,80,127,1549104536
17,15,Jits_Phase_8,3,5,56,103,1549125220
17,15,Jits_Phase_8,0,1,48,47,1549776384
17,15,Jits_Phase_8,1,5,80,127,1549834628
17,15,Jits_Phase_8,2,5,56,103,1549865276
17,15,Jits_Phase_8,3,5,63,98,1549895008
17,15,Jits_Phase_8,0,1,48,49,1550534936
17,15,Jits_Phase_8,1,5,56,103,1550635936
17,15,Jits_Phase_8,2,5,63,98,1550695056
17,15,Jits_Phase_8,3,5,80,127,1550755172
17,15,Jits_Phase_8,0,1,48,45,1551352660
17,15,Jits_Phase_8,1,5,80,127,1551454508
17,15,Jits_Phase_8,2,5,56,103,1551475064
17,15,Jits_Phase_8,3,5,63,98,1551544820
17,15,Jits_Phase_8,0,1,48,34,1552150780
17,15,Jits_Phase_8,1,5,80,127,1552255264
17,15,Jits_Phase_8,2,5,63,98,1552274900
17,15,Jits_Phase_8,3,5,56,103,1552304352
17,15,Jits_Phase_8,0,1,48,44,1552959300
17,15,Jits_Phase_8,1,5,80,127,1553044844
17,15,Jits_Phase_8,2,5,63,98,1553065216
17,15,Jits_Phase_8,3,5,56,103,1553125004
17,15,Jits_Phase_8,0,1,48,42,1553819772
17,15,Jits_Phase_8,1,5,80,127,1553844676
17,15,Jits_Phase_8,2,5,56,103,1553944984
17,15,Jits_Phase_8,3,5,63,98,1553974732
17,15,Jits_Phase_8,0,1,48,42,1554620656
17,15,Jits_Phase_8,1,5,63,98,1554635072
17,15,Jits_Phase_8,2,5,80,127,1554685424
17,15,Jits_Phase_8,3,5,56,103,1554704688
17,15,Jits_Phase_8,0,1,48,39,1555457652
17,15,Jits_Phase_8,1,5,80,127,1555474764
17,15,Jits_Phase_8,2,5,56,103,1555504512
17,15,Jits_Phase_8,3,5,63,98,1555507804
17,15,Jits_Phase_8,0,1,48,39,1556232320
17,15,Jits_Phase_8,1,5,63,98,1556324936
17,15,Jits_Phase_8,2,5,56,103,1556364588
17,15,Jits_Phase_8,3,5,80,127,1556385196
17,15,Jits_Phase_8,0,1,48,41,1556991824
17,15,Jits_Phase_8,1,5,80,127,1557084468
17,15,Jits_Phase_8,2,5,63,98,1557165324
17,15,Jits_Phase_8,3,5,56,103,1557205336
17,15,Jits_Phase_8,0,1,48,44,1557889248
17,15,Jits_Phase_8,1,5,63,98,1557904788
17,15,Jits_Phase_8,2,5,80,127,1557984716
17,15,Jits_Phase_8,3,5,56,103,1558005252
17,15,Jits_Phase_8,0,1,48,43,1558692524
17,15,Jits_Phase_8,1,5,56,103,1558744484
17,15,Jits_Phase_8,2,5,63,98,1558754904
17,15,Jits_Phase_8,3,5,80,127,1558794676
17,15,Jits_Phase_8,0,5,56,103,1559465200
17,15,Jits_Phase_8,1,5,80,127,1559468348
17,15,Jits_Phase_8,2,1,48,39,1559491620
17,15,Jits_Phase_8,3,5,63,98,1559604688
17,15,Jits_Phase_8,0,1,48,43,1560233920
17,15,Jits_Phase_8,1,5,56,103,1560254772
17,15,Jits_Phase_8,2,5,63,98,1560345040
17,15,Jits_Phase_8,3,5,80,127,1560414796
17,15,Jits_Phase_8,0,1,48,44,1561017268
17,15,Jits_Phase_8,1,5,63,98,1561134388
17,15,Jits_Phase_8,2,5,80,127,1561137972
17,15,Jits_Phase_8,3,5,56,103,1561195000
17,15,Jits_Phase_8,0,1,48,43,1561900628
17,15,Jits_Phase_8,1,5,80,127,1561975088
17,15,Jits_Phase_8,2,5,56,103,1561994648
17,15,Jits_Phase_8,3,5,63,98,1562004980
17,15,Jits_Phase_8,0,1,48,43,1562666020
17,15,Jits_Phase_8,1,5,56,103,1562684700
17,15,Jits_Phase_8,2,5,63,98,1562695044
17,15,Jits_Phase_8,3,5,80,127,1562764808
17,15,Jits_Phase_8,0,1,48,40,1563461188
17,15,Jits_Phase_8,1,5,80,127,1563484528
17,15,Jits_Phase_8,2,5,56,103,1563534680
17,15,Jits_Phase_8,3,5,63,98,1563584792
17,15,Jits_Phase_8,0,1,48,43,1564194428
17,15,Jits_Phase_8,1,1,48,29,1564237780
17,15,Jits_Phase_8,2,5,56,103,1564365040
17,15,Jits_Phase_8,3,5,63,98,1564375460
17,15,Jits_Phase_8,4,5,80,127,1564415548
17,15,Jits_Phase_8,0,1,48,48,1565047664
17,15,Jits_Phase_8,1,5,56,103,1565104488
17,15,Jits_Phase_8,2,5,63,98,1565144652
17,15,Jits_Phase_8,3,5,80,127,1565194760
17,15,Jits_Phase_8,0,1,48,38,1565822844
17,15,Jits_Phase_8,1,5,80,127,1565865512
17,15,Jits_Phase_8,2,5,56,103,1565914444
17,15,Jits_Phase_8,3,5,63,98,1565934960
17,15,Jits_Phase_8,0,1,48,47,1566622224
17,15,Jits_Phase_8,1,5,80,127,1566675604
17,15,Jits_Phase_8,2,5,63,98,1566734636
17,15,Jits_Phase_8,3,5,56,103,1566814652
17,15,Jits_Phase_8,0,1,48,52,1567442292
17,15,Jits_Phase_8,1,5,80,127,1567454688
17,15,Jits_Phase_8,2,5,56,103,1567494552
17,15,Jits_Phase_8,3,5,63,98,1567515012
17,15,Jits_Phase_8,0,1,48,49,1568189676
17,15,Jits_Phase_8,1,5,56,103,1568304548
17,15,Jits_Phase_8,2,5,80,127,1568314892
17,15,Jits_Phase_8,3,5,63,98,1568354684
17,15,Jits_Phase_8,0,1,48,50,1568952808
17,15,Jits_Phase_8,1,1,48,35,1568994136
17,15,Jits_Phase_8,2,5,56,103,1569174888
17,15,Jits_Phase_8,3,5,63,98,1569214824
17,15,Jits_Phase_8,4,5,80,127,1569218188
17,15,Jits_Phase_8,0,1,48,46,1569728312
17,15,Jits_Phase_8,1,5,63,98,1569844680
17,15,Jits_Phase_8,2,5,80,127,1569884472
17,15,Jits_Phase_8,3,5,56,103,1569955220
17,15,Jits_Phase_8,0,1,48,49,1570473088
17,15,Jits_Phase_8,1,5,63,98,1570614624
17,15,Jits_Phase_8,2,5,56,103,1570694444
17,15,Jits_Phase_8,3,5,80,127,1570754980
17,15,Jits_Phase_8,0,1,48,46,1571198216
17,15,Jits_Phase_8,1,5,80,127,1571424644
17,15,Jits_Phase_8,2,5,63,98,1571474724
17,15,Jits_Phase_8,3,5,56,103,1571504620
17,15,Jits_Phase_8,0,1,48,46,1571941452
17,15,Jits_Phase_8,1,5,56,103,1572215288
17,15,Jits_Phase_8,2,5,63,98,1572265344
17,15,Jits_Phase_8,3,5,80,127,1572274640
17,15,Jits_Phase_8,0,1,48,44,1572716568
17,15,Jits_Phase_8,1,5,56,103,1573025232
17,15,Jits_Phase_8,2,5,63,98,1573134772
17,15,Jits_Phase_8,3,5,80,127,1573155304
17,15,Jits_Phase_8,0,5,63,98,1573824868
17,15,Jits_Phase_8,1,1,48,40,1573835032
17,15,Jits_Phase_8,2,5,80,127,1573875064
17,15,Jits_Phase_8,3,5,56,103,1573965176
17,15,Jits_Phase_8,0,5,63,98,1574615556
17,15,Jits_Phase_8,1,5,80,127,1574645308
17,15,Jits_Phase_8,2,1,48,36,1574655996
17,15,Jits_Phase_8,3,5,56,103,1574735504
17,15,Jits_Phase_8,0,1,48,47,1575387556
17,15,Jits_Phase_8,1,5,63,98,1575415152
17,15,Jits_Phase_8,2,5,56,103,1575425500
17,15,Jits_Phase_8,3,5,80,127,1575524608
17,15,Jits_Phase_8,0,1,48,37,1576196824
17,15,Jits_Phase_8,1,5,63,98,1576315536
17,15,Jits_Phase_8,2,5,80,127,1576344916
17,15,Jits_Phase_8,3,5,56,103,1576374588
17,15,Jits_Phase_8,0,1,48,42,1577069332
17,15,Jits_Phase_8,1,5,80,127,1577134424
17,15,Jits_Phase_8,2,5,63,98,1577144768
17,15,Jits_Phase_8,3,5,56,103,1577175400
17,15,Jits_Phase_8,0,5,80,127,1577834820
17,15,Jits_Phase_8,1,5,63,98,1577855456
17,15,Jits_Phase_8,2,5,56,103,1577904460
17,15,Jits_Phase_8,3,1,48,37,1577908024
17,15,Jits_Phase_8,0,1,48,39,1578608256
17,15,Jits_Phase_8,1,5,63,98,1578665300
17,15,Jits_Phase_8,2,5,80,127,1578724704
17,15,Jits_Phase_8,3,5,56,103,1578745536
17,15,Jits_Phase_8,0,1,48,36,1579374732
17,15,Jits_Phase_8,1,5,63,98,1579425348
17,15,Jits_Phase_8,2,5,56,103,1579475164
17,15,Jits_Phase_8,3,5,80,127,1579484536
17,15,Jits_Phase_8,0,1,48,44,1580205452
17,15,Jits_Phase_8,1,5,56,103,1580254552
17,15,Jits_Phase_8,2,5,80,127,1580264820
17,15,Jits_Phase_8,3,5,63,98,1580365124
17,15,Jits_Phase_8,0,5,80,127,1581015504
17,15,Jits_Phase_8,1,5,63,98,1581024580
17,15,Jits_Phase_8,2,1,48,39,1581037664
17,15,Jits_Phase_8,3,5,56,103,1581175244
17,15,Jits_Phase_8,0,1,48,40,1581818088
17,15,Jits_Phase_8,1,5,63,98,1581825456
17,15,Jits_Phase_8,2,5,80,127,1581865396
17,15,Jits_Phase_8,3,5,56,103,1581945344
17,15,Jits_Phase_8,0,5,56,103,1582575320
17,15,Jits_Phase_8,1,1,48,38,1582653892
17,15,Jits_Phase_8,2,5,80,127,1582675340
17,15,Jits_Phase_8,3,5,63,98,1582694900
17,15,Jits_Phase_8,0,1,48,44,1583344356
17,15,Jits_Phase_8,1,5,80,127,1583395324
17,15,Jits_Phase_8,2,5,56,103,1583405372
17,15,Jits_Phase_8,3,5,63,98,1583494464
17,15,Jits_Phase_8,0,1,48,45,1584090168
17,15,Jits_Phase_8,1,5,56,103,1584195372
17,15,Jits_Phase_8,2,5,63,98,1584215384
17,15,Jits_Phase_8,3,5,80,127,1584295200
17,15,Jits_Phase_8,0,1,48,44,1584885736
17,15,Jits_Phase_8,1,5,63,98,1584944356
17,15,Jits_Phase_8,2,5,56,103,1585034572
17,15,Jits_Phase_8,3,5,80,127,1585037640
17,15,Jits_Phase_8,0,1,48,39,1585683244
17,15,Jits_Phase_8,1,5,56,103,1585775120
17,15,Jits_Phase_8,2,5,80,127,1585835372
17,15,Jits_Phase_8,3,5,63,98,1585844596
17,15,Jits_Phase_8,0,1,48,42,1586456776
17,15,Jits_Phase_8,1,5,80,127,1586625008
17,15,Jits_Phase_8,2,5,56,103,1586635276
17,15,Jits_Phase_8,3,5,63,98,1586638344
17,15,Jits_Phase_8,0,1,48,38,1587264096
17,15,Jits_Phase_8,1,5,56,103,1587384828
17,15,Jits_Phase_8,2,5,80,127,1587395248
17,15,Jits_Phase_8,3,5,63,98,1587415484
17,15,Jits_Phase_8,0,1,48,35,1588107552
17,15,Jits_Phase_8,1,5,63,98,1588154632
17,15,Jits_Phase_8,2,5,80,127,1588215228
17,15,Jits_Phase_8,3,5,56,103,1588265428
17,15,Jits_Phase_8,0,1,48,40,1588906484
17,15,Jits_Phase_8,1,5,63,98,1589035512
17,15,Jits_Phase_8,2,5,56,103,1589044512
17,15,Jits_Phase_8,3,5,80,127,1589094712
17,15,Jits_Phase_8,0,1,48,43,1589686396
17,15,Jits_Phase_8,1,5,63,98,1589734896
17,15,Jits_Phase_8,2,5,80,127,1589755280
17,15,Jits_Phase_8,3,5,56,103,1589764356
17,15,Jits_Phase_8,0,1,48,40,1590475280
17,15,Jits_Phase_8,1,5,63,98,1590534492
17,15,Jits_Phase_8,2,5,80,127,1590538008
17,15,Jits_Phase_8,3,5,56,103,1590574640
17,15,Jits_Phase_8,0,1,48,35,1591247372
17,15,Jits_Phase_8,1,5,63,98,1591405244
17,15,Jits_Phase_8,2,5,80,127,1591434720
17,15,Jits_Phase_8,3,5,56,103,1591444844
17,15,Jits_Phase_8,0,1,48,38,1592051172
17,15,Jits_Phase_8,1,5,56,103,1592154508
17,15,Jits_Phase_8,2,5,80,127,1592185108
17,15,Jits_Phase_8,3,5,63,98,1592215156
17,15,Jits_Phase_8,0,1,48,35,1592873268
17,15,Jits_Phase_8,1,5,63,98,1593054760
17,15,Jits_Phase_8,2,5,56,103,1593094624
17,15,Jits_Phase_8,3,5,80,127,1593097540
17,15,Jits_Phase_8,0,5,80,127,1593754968
17,15,Jits_Phase_8,1,1,48,35,1593810004
17,15,Jits_Phase_8,2,5,56,103,1593835132
17,15,Jits_Phase_8,3,5,63,98,1593885108
17,15,Jits_Phase_8,0,5,80,127,1594535264
17,15,Jits_Phase_8,1,5,56,103,1594554900
17,15,Jits_Phase_8,2,5,63,98,1594645028
17,15,Jits_Phase_8,3,1,48,36,1594651216
17,15,Jits_Phase_8,0,1,48,38,1595336872
17,15,Jits_Phase_8,1,5,80,127,1595374956
17,15,Jits_Phase_8,2,5,63,98,1595414896
17,15,Jits_Phase_8,3,5,56,103,1595455040
17,15,Jits_Phase_8,0,1,48,43,1596141720
17,15,Jits_Phase_8,1,5,63,98,1596184984
17,15,Jits_Phase_8,2,5,80,127,1596245360
17,15,Jits_Phase_8,3,5,56,103,1596275136
17,15,Jits_Phase_8,0,1,48,41,1596947024
17,15,Jits_Phase_8,1,5,56,103,1597024896
17,15,Jits_Phase_8,2,5,80,127,1597055404
17,15,Jits_Phase_8,3,5,63,98,1597144560
17,15,Jits_Phase_8,0,1,48,38,1597822020
17,15,Jits_Phase_8,1,5,56,103,1597834864
17,15,Jits_Phase_8,2,5,80,127,1597945216
17,15,Jits_Phase_8,3,5,63,98,1597974964
17,15,Jits_Phase_8,0,1,48,48,1598581548
17,15,Jits_Phase_8,1,5,56,103,1598684588
17,15,Jits_Phase_8,2,5,63,98,1598744832
17,15,Jits_Phase_8,3,5,80,127,1598774956
17,15,Jits_Phase_8,0,1,48,45,1599428372
17,15,Jits_Phase_8,1,5,56,103,1599454700
17,15,Jits_Phase_8,2,5,63,98,1599525268
17,15,Jits_Phase_8,3,5,80,127,1599544904
17,15,Jits_Phase_8,0,5,80,127,1600224948
17,15,Jits_Phase_8,1,5,63,98,1600245112
17,15,Jits_Phase_8,2,5,56,103,1600295308
17,15,Jits_Phase_8,3,1,48,34,1600350860
17,15,Jits_Phase_8,0,5,63,98,1601044868
17,15,Jits_Phase_8,1,1,48,40,1601048960
17,15,Jits_Phase_8,2,5,80,127,1601055208
17,15,Jits_Phase_8,3,5,56,103,1601105260
17,15,Jits_Phase_8,0,1,48,41,1601819628
17,15,Jits_Phase_8,1,5,63,98,1601844836
17,15,Jits_Phase_8,2,5,80,127,1601915220
17,15,Jits_Phase_8,3,5,56,103,1601934692
17,15,Jits_Phase_8,0,1,48,42,1602628604
17,15,Jits_Phase_8,1,5,63,98,1602675112
17,15,Jits_Phase_8,2,5,80,127,1602678400
17,15,Jits_Phase_8,3,5,56,103,1602744624
17,15,Jits_Phase_8,0,1,48,43,1603393148
17,15,Jits_Phase_8,1,5,80,127,1603424860
17,15,Jits_Phase_8,2,5,56,103,1603445048
17,15,Jits_Phase_8,3,5,63,98,1603455240
17,15,Jits_Phase_8,0,1,48,44,1604146220
17,15,Jits_Phase_8,1,5,56,103,1604244776
17,15,Jits_Phase_8,2,5,63,98,1604334828
17,15,Jits_Phase_8,3,5,80,127,1604338196
17,15,Jits_Phase_8,0,1,48,41,1604953316
17,15,Jits_Phase_8,1,5,80,127,1605014872
17,15,Jits_Phase_8,2,5,56,103,1605025068
17,15,Jits_Phase_8,3,5,63,98,1605045512
17,15,Jits_Phase_8,0,1,48,43,1605729452
17,15,Jits_Phase_8,1,5,63,98,1605814692
17,15,Jits_Phase_8,2,5,80,127,1605875068
17,15,Jits_Phase_8,3,5,56,103,1605885340
17,15,Jits_Phase_8,0,1,48,38,1606468288
17,15,Jits_Phase_8,1,5,63,98,1606685080
17,15,Jits_Phase_8,2,5,80,127,1606714604
17,15,Jits_Phase_8,3,5,56,103,1606754616
17,15,Jits_Phase_8,0,1,48,39,1607386604
17,15,Jits_Phase_8,1,5,56,103,1607474740
17,15,Jits_Phase_8,2,5,80,127,1607484772
17,15,Jits_Phase_8,3,5,63,98,1607524784
17,15,Jits_Phase_8,0,1,48,42,1608180960
17,15,Jits_Phase_8,1,5,80,127,1608235536
17,15,Jits_Phase_8,2,5,56,103,1608315192
17,15,Jits_Phase_8,3,5,63,98,1608324640
17,15,Jits_Phase_8,0,1,48,43,1608985672
17,15,Jits_Phase_8,1,5,80,127,1609085204
17,15,Jits_Phase_8,2,5,56,103,1609165148
17,15,Jits_Phase_8,3,5,63,98,1609175492
17,15,Jits_Phase_8,0,1,48,48,1609829328
17,15,Jits_Phase_8,1,5,80,127,1609924916
17,15,Jits_Phase_8,2,5,56,103,1609975400
17,15,Jits_Phase_8,3,5,63,98,1610025528
17,15,Jits_Phase_8,0,1,48,42,1610649856
17,15,Jits_Phase_8,1,5,56,103,1610864920
17,15,Jits_Phase_8,2,5,63,98,1610868068
17,15,Jits_Phase_8,3,5,80,127,1610915124
17,15,Jits_Phase_8,0,1,48,40,1611566272
17,15,Jits_Phase_8,1,5,56,103,1611685208
17,15,Jits_Phase_8,2,5,63,98,1611714884
17,15,Jits_Phase_8,3,5,80,127,1611725152
17,15,Jits_Phase_8,0,1,48,40,1612379368
17,15,Jits_Phase_8,1,5,63,98,1612394832
17,15,Jits_Phase_8,2,5,56,103,1612464464
17,15,Jits_Phase_8,3,5,80,127,1612514652
17,15,Jits_Phase_8,0,1,48,45,1613197660
17,15,Jits_Phase_8,1,5,63,98,1613225408
17,15,Jits_Phase_8,2,5,56,103,1613234556
17,15,Jits_Phase_8,3,5,80,127,1613237696
17,15,Jits_Phase_8,0,1,48,38,1613974812
17,15,Jits_Phase_8,1,5,80,127,1613976300
17,15,Jits_Phase_8,2,5,56,103,1614035420
17,15,Jits_Phase_8,3,5,63,98,1614125388
17,15,Jits_Phase_8,0,1,48,44,1614739916
17,15,Jits_Phase_8,1,5,80,127,1614774712
17,15,Jits_Phase_8,2,5,56,103,1614875020
17,15,Jits_Phase_8,3,5,63,98,1614914808
17,15,Jits_Phase_8,0,1,48,40,1615602924
17,15,Jits_Phase_8,1,5,56,103,1615624672
17,15,Jits_Phase_8,2,5,63,98,1615645056
17,15,Jits_Phase_8,3,5,80,127,1615684920
17,15,Jits_Phase_8,0,1,48,52,1616340180
17,15,Jits_Phase_8,1,5,63,98,1616394536
17,15,Jits_Phase_8,2,5,56,103,1616415216
17,15,Jits_Phase_8,3,5,80,127,1616514428
17,15,Jits_Phase_8,0,1,48,45,1617129000
17,15,Jits_Phase_8,1,5,63,98,1617185076
17,15,Jits_Phase_8,2,5,80,127,1617294696
17,15,Jits_Phase_8,3,5,56,103,1617325492
17,15,Jits_Phase_8,0,1,48,46,1617948464
17,15,Jits_Phase_8,1,5,56,103,1618005436
17,15,Jits_Phase_8,2,5,63,98,1618034916
17,15,Jits_Phase_8,3,5,80,127,1618085544
17,15,Jits_Phase_8,0,1,48,47,1618711580
17,15,Jits_Phase_8,1,5,63,98,1618775372
17,15,Jits_Phase_8,2,5,56,103,1618805884
17,15,Jits_Phase_8,3,5,80,127,1618855260
17,15,Jits_Phase_8,0,1,48,48,1619493292
17,15,Jits_Phase_8,1,5,56,103,1619604808
17,15,Jits_Phase_8,2,5,63,98,1619625340
17,15,Jits_Phase_8,3,5,80,127,1619705356
17,15,Jits_Phase_8,0,1,48,46,1620250924
17,15,Jits_Phase_8,1,5,63,98,1620374816
17,15,Jits_Phase_8,2,5,56,103,1620435280
17,15,Jits_Phase_8,3,5,80,127,1620465252
17,15,Jits_Phase_8,0,1,48,47,1621060644
17,15,Jits_Phase_8,1,5,56,103,1621214504
17,15,Jits_Phase_8,2,5,80,127,1621275192
17,15,Jits_Phase_8,3,5,63,98,1621314832
17,15,Jits_Phase_8,0,1,48,46,1621820768
17,15,Jits_Phase_8,1,5,63,98,1621994928
17,15,Jits_Phase_8,2,5,56,103,1622055248
17,15,Jits_Phase_8,3,5,80,127,1622124852
17,15,Jits_Phase_8,0,1,48,43,1622633048
17,15,Jits_Phase_8,1,5,56,103,1622874480
17,15,Jits_Phase_8,2,5,63,98,1622884824
17,15,Jits_Phase_8,3,5,80,127,1622888112
17,15,Jits_Phase_8,0,1,48,36,1623468184
17,15,Jits_Phase_8,1,5,63,98,1623614968
17,15,Jits_Phase_8,2,5,56,103,1623675236
17,15,Jits_Phase_8,3,5,80,127,1623678448
17,15,Jits_Phase_8,0,1,48,41,1624306968
17,15,Jits_Phase_8,1,5,63,98,1624395252
17,15,Jits_Phase_8,2,5,80,127,1624424764
17,15,Jits_Phase_8,3,5,56,103,1624445248
17,15,Jits_Phase_8,0,1,48,43,1625097804
17,15,Jits_Phase_8,1,5,56,103,1625125256
17,15,Jits_Phase_8,2,5,63,98,1625175384
17,15,Jits_Phase_8,3,5,80,127,1625255260
17,15,Jits_Phase_8,0,5,80,127,1625824492
17,15,Jits_Phase_8,1,5,63,98,1625864432
17,15,Jits_Phase_8,2,5,56,103,1625885188
17,15,Jits_Phase_8,3,1,48,43,1625908312
17,15,Jits_Phase_8,0,1,48,43,1626569976
17,15,Jits_Phase_8,1,5,56,103,1626695036
17,15,Jits_Phase_8,2,5,80,127,1626705232
17,15,Jits_Phase_8,3,5,63,98,1626724644
17,15,Jits_Phase_8,0,1,48,44,1627359548
17,15,Jits_Phase_8,1,5,56,103,1627475316
17,15,Jits_Phase_8,2,5,63,98,1627524572
17,15,Jits_Phase_8,3,5,80,127,1627555144
17,15,Jits_Phase_8,0,1,48,44,1628155272
17,15,Jits_Phase_8,1,5,56,103,1628225120
17,15,Jits_Phase_8,2,5,63,98,1628235240
17,15,Jits_Phase_8,3,5,80,127,1628285304
17,15,Jits_Phase_8,0,1,48,43,1628893964
17,15,Jits_Phase_8,1,5,56,103,1629015492
17,15,Jits_Phase_8,2,5,80,127,1629018484
17,15,Jits_Phase_8,3,5,63,98,1629175320
17,15,Jits_Phase_8,0,1,48,45,1629636988
17,15,Jits_Phase_8,1,5,63,98,1629834596
17,15,Jits_Phase_8,2,5,56,103,1629905252
17,15,Jits_Phase_8,3,5,80,127,1629945112
17,15,Jits_Phase_8,0,1,48,48,1630444916
17,15,Jits_Phase_8,1,5,63,98,1630675260
17,15,Jits_Phase_8,2,5,56,103,1630765468
17,15,Jits_Phase_8,3,5,80,127,1630768388
17,15,Jits_Phase_8,0,1,48,39,1631372668
17,15,Jits_Phase_8,1,5,56,103,1631454504
17,15,Jits_Phase_8,2,5,63,98,1631544844
17,15,Jits_Phase_8,3,5,80,127,1631555264
17,15,Jits_Phase_8,0,5,56,103,1632224528
17,15,Jits_Phase_8,1,5,63,98,1632274952
17,15,Jits_Phase_8,2,1,48,42,1632281740
17,15,Jits_Phase_8,3,5,80,127,1632304620
17,15,Jits_Phase_8,0,1,48,43,1633020284
17,15,Jits_Phase_8,1,5,63,98,1633105204
17,15,Jits_Phase_8,2,5,80,127,1633114428
17,15,Jits_Phase_8,3,5,56,103,1633175052
17,15,Jits_Phase_8,0,5,63,98,1633825108
17,15,Jits_Phase_8,1,1,48,43,1633844040
17,15,Jits_Phase_8,2,5,80,127,1633884444
17,15,Jits_Phase_8,3,5,56,103,1633924408
17,15,Jits_Phase_8,0,1,48,44,1634615016
17,15,Jits_Phase_8,1,5,56,103,1634725188
17,15,Jits_Phase_8,2,5,80,127,1634744972
17,15,Jits_Phase_8,3,5,63,98,1634765208
17,15,Jits_Phase_8,0,1,48,44,1635432300
17,15,Jits_Phase_8,1,5,63,98,1635445176
17,15,Jits_Phase_8,2,5,56,103,1635464440
17,15,Jits_Phase_8,3,5,80,127,1635504448
17,15,Jits_Phase_8,0,1,48,38,1636201644
17,15,Jits_Phase_8,1,5,63,98,1636255192
17,15,Jits_Phase_8,2,5,80,127,1636284872
17,15,Jits_Phase_8,3,5,56,103,1636305316
17,15,Jits_Phase_8,0,1,48,40,1636932936
17,15,Jits_Phase_8,1,5,80,127,1637026092
17,15,Jits_Phase_8,2,5,56,103,1637075320
17,15,Jits_Phase_8,3,5,63,98,1637134736
17,15,Jits_Phase_8,0,1,48,38,1637733360
17,15,Jits_Phase_8,1,5,63,98,1637814920
17,15,Jits_Phase_8,2,5,56,103,1637934412
17,15,Jits_Phase_8,3,5,80,127,1637965208
17,15,Jits_Phase_8,0,1,48,45,1638620796
17,15,Jits_Phase_8,1,5,80,127,1638655296
17,15,Jits_Phase_8,2,5,63,98,1638675080
17,15,Jits_Phase_8,3,5,56,103,1638744820
17,15,Jits_Phase_8,0,1,48,41,1639381516
17,15,Jits_Phase_8,1,5,63,98,1639474680
17,15,Jits_Phase_8,2,5,56,103,1639484936
17,15,Jits_Phase_8,3,5,80,127,1639564832
17,15,Jits_Phase_8,0,1,48,41,1640216800
17,15,Jits_Phase_8,1,5,56,103,1640334836
17,15,Jits_Phase_8,2,5,80,127,1640365336
17,15,Jits_Phase_8,3,5,63,98,1640374860
17,15,Jits_Phase_8,0,9999,9999,9999,9999,1505493052
17,15,Jits_Phase_8,1,9999,9999,9999,9999,1506292824
17,15,Jits_Phase_8,2,9999,9999,9999,9999,1507092600
17,15,Jits_Phase_8,3,9999,9999,9999,9999,1507892300
17,15,Jits_Phase_8,4,9999,9999,9999,9999,1508693092
17,15,Jits_Phase_8,5,9999,9999,9999,9999,1509492856
17,15,Jits_Phase_8,6,9999,9999,9999,9999,1510292588
17,15,Jits_Phase_8,7,9999,9999,9999,9999,1511092340
17,15,Jits_Phase_8,8,9999,9999,9999,9999,1511893068
17,15,Jits_Phase_8,9,9999,9999,9999,9999,1512692844
17,15,Jits_Phase_8,10,9999,9999,9999,9999,1513492600
17,15,Jits_Phase_8,11,9999,9999,9999,9999,1514292304
17,15,Jits_Phase_8,12,9999,9999,9999,9999,1515093052
17,15,Jits_Phase_8,13,9999,9999,9999,9999,1515892844
17,15,Jits_Phase_8,14,9999,9999,9999,9999,1516692596
17,15,Jits_Phase_8,15,9999,9999,9999,9999,1517492284
17,15,Jits_Phase_8,16,9999,9999,9999,9999,1518293076
17,15,Jits_Phase_8,17,9999,9999,9999,9999,1519092852
17,15,Jits_Phase_8,18,9999,9999,9999,9999,1519892540
17,15,Jits_Phase_8,19,9999,9999,9999,9999,1520692300
17,15,Jits_Phase_8,20,9999,9999,9999,9999,1521493080
17,15,Jits_Phase_8,21,9999,9999,9999,9999,1522292820
17,15,Jits_Phase_8,22,9999,9999,9999,9999,1523092560
17,15,Jits_Phase_8,23,9999,9999,9999,9999,1523892328
17,15,Jits_Phase_8,24,9999,9999,9999,9999,1524693056
17,15,Jits_Phase_8,25,9999,9999,9999,9999,1525492812
17,15,Jits_Phase_8,26,9999,9999,9999,9999,1526292572
17,15,Jits_Phase_8,27,9999,9999,9999,9999,1527092332
17,15,Jits_Phase_8,28,9999,9999,9999,9999,1527893072
17,15,Jits_Phase_8,29,9999,9999,9999,9999,1528692792
17,15,Jits_Phase_8,30,9999,9999,9999,9999,1529472096
17,15,Jits_Phase_8,31,9999,9999,9999,9999,1530272828
17,15,Jits_Phase_8,32,9999,9999,9999,9999,1531072588
17,15,Jits_Phase_8,33,9999,9999,9999,9999,1531872340
17,15,Jits_Phase_8,34,9999,9999,9999,9999,1532672096
17,15,Jits_Phase_8,35,9999,9999,9999,9999,1533472836
17,15,Jits_Phase_8,36,9999,9999,9999,9999,1534272600
17,15,Jits_Phase_8,37,9999,9999,9999,9999,1535072380
17,15,Jits_Phase_8,38,9999,9999,9999,9999,1535872100
17,15,Jits_Phase_8,39,9999,9999,9999,9999,1536672852
17,15,Jits_Phase_8,40,9999,9999,9999,9999,1537472612
17,15,Jits_Phase_8,41,9999,9999,9999,9999,1538272376
17,15,Jits_Phase_8,42,9999,9999,9999,9999,1539072056
17,15,Jits_Phase_8,43,9999,9999,9999,9999,1539872848
17,15,Jits_Phase_8,44,9999,9999,9999,9999,1540672588
17,15,Jits_Phase_8,45,9999,9999,9999,9999,1541472348
17,15,Jits_Phase_8,46,9999,9999,9999,9999,1542272072
17,15,Jits_Phase_8,47,9999,9999,9999,9999,1543072888
17,15,Jits_Phase_8,48,9999,9999,9999,9999,1543893108
17,15,Jits_Phase_8,49,9999,9999,9999,9999,1544692804
17,15,Jits_Phase_8,50,9999,9999,9999,9999,1545492556
17,15,Jits_Phase_8,51,9999,9999,9999,9999,1546292332
17,15,Jits_Phase_8,52,9999,9999,9999,9999,1547093064
17,15,Jits_Phase_8,53,9999,9999,9999,9999,1547892852
17,15,Jits_Phase_8,54,9999,9999,9999,9999,1548692536
17,15,Jits_Phase_8,55,9999,9999,9999,9999,1549492304
17,15,Jits_Phase_8,56,9999,9999,9999,9999,1550293104
17,15,Jits_Phase_8,57,9999,9999,9999,9999,1551092792
17,15,Jits_Phase_8,58,9999,9999,9999,9999,1551892552
17,15,Jits_Phase_8,59,9999,9999,9999,9999,1552692308
17,15,Jits_Phase_8,60,9999,9999,9999,9999,1553493112
17,15,Jits_Phase_8,61,9999,9999,9999,9999,1554292824
17,15,Jits_Phase_8,62,9999,9999,9999,9999,1555092584
17,15,Jits_Phase_8,63,9999,9999,9999,9999,1555892336
17,15,Jits_Phase_8,64,9999,9999,9999,9999,1556733004
17,15,Jits_Phase_8,65,9999,9999,9999,9999,1557532768
17,15,Jits_Phase_8,66,9999,9999,9999,9999,1558332532
17,15,Jits_Phase_8,67,9999,9999,9999,9999,1559132224
17,15,Jits_Phase_8,68,9999,9999,9999,9999,1559933040
17,15,Jits_Phase_8,69,9999,9999,9999,9999,1560732740
17,15,Jits_Phase_8,70,9999,9999,9999,9999,1561532496
17,15,Jits_Phase_8,71,9999,9999,9999,9999,1562332260
17,15,Jits_Phase_8,72,9999,9999,9999,9999,1563132992
17,15,Jits_Phase_8,73,9999,9999,9999,9999,1563932748
17,15,Jits_Phase_8,74,9999,9999,9999,9999,1564732492
17,15,Jits_Phase_8,75,9999,9999,9999,9999,1565532232
17,15,Jits_Phase_8,76,9999,9999,9999,9999,1566332984
17,15,Jits_Phase_8,77,9999,9999,9999,9999,1567132744
17,15,Jits_Phase_8,78,9999,9999,9999,9999,1567932500
17,15,Jits_Phase_8,79,9999,9999,9999,9999,1568732256
17,15,Jits_Phase_8,80,9999,9999,9999,9999,1569533040
17,15,Jits_Phase_8,81,9999,9999,9999,9999,1570292844
17,15,Jits_Phase_8,82,9999,9999,9999,9999,1571092604
17,15,Jits_Phase_8,83,9999,9999,9999,9999,1571892284
17,15,Jits_Phase_8,84,9999,9999,9999,9999,1572693088
17,15,Jits_Phase_8,85,9999,9999,9999,9999,1573492800
17,15,Jits_Phase_8,86,9999,9999,9999,9999,1574292560
17,15,Jits_Phase_8,87,9999,9999,9999,9999,1575092316
17,15,Jits_Phase_8,88,9999,9999,9999,9999,1575893112
17,15,Jits_Phase_8,89,9999,9999,9999,9999,1576692804
17,15,Jits_Phase_8,90,9999,9999,9999,9999,1577492568
17,15,Jits_Phase_8,91,9999,9999,9999,9999,1578292324
17,15,Jits_Phase_8,92,9999,9999,9999,9999,1579093048
17,15,Jits_Phase_8,93,9999,9999,9999,9999,1579892824
17,15,Jits_Phase_8,94,9999,9999,9999,9999,1580692580
17,15,Jits_Phase_8,95,9999,9999,9999,9999,1581492336
17,15,Jits_Phase_8,96,9999,9999,9999,9999,1582293080
17,15,Jits_Phase_8,97,9999,9999,9999,9999,1583012980
17,15,Jits_Phase_8,98,9999,9999,9999,9999,1583812680
17,15,Jits_Phase_8,99,9999,9999,9999,9999,1584612448
17,15,Jits_Phase_8,100,9999,9999,9999,9999,1585412196
17,15,Jits_Phase_8,101,9999,9999,9999,9999,1586212928
17,15,Jits_Phase_8,102,9999,9999,9999,9999,1587012676
17,15,Jits_Phase_8,103,9999,9999,9999,9999,1587812436
17,15,Jits_Phase_8,104,9999,9999,9999,9999,1588612216
17,15,Jits_Phase_8,105,9999,9999,9999,9999,1589412952
17,15,Jits_Phase_8,106,9999,9999,9999,9999,1590212700
17,15,Jits_Phase_8,107,9999,9999,9999,9999,1591012444
17,15,Jits_Phase_8,108,9999,9999,9999,9999,1591812204
17,15,Jits_Phase_8,109,9999,9999,9999,9999,1592612932
17,15,Jits_Phase_8,110,9999,9999,9999,9999,1593412692
17,15,Jits_Phase_8,111,9999,9999,9999,9999,1594212452
17,15,Jits_Phase_8,112,9999,9999,9999,9999,1595012168
17,15,Jits_Phase_8,113,9999,9999,9999,9999,1595812988
17,15,Jits_Phase_8,114,9999,9999,9999,9999,1596692536
17,15,Jits_Phase_8,115,9999,9999,9999,9999,1597492296
17,15,Jits_Phase_8,116,9999,9999,9999,9999,1598293108
17,15,Jits_Phase_8,117,9999,9999,9999,9999,1599092824
17,15,Jits_Phase_8,118,9999,9999,9999,9999,1599892588
17,15,Jits_Phase_8,119,9999,9999,9999,9999,1600692340
17,15,Jits_Phase_8,120,9999,9999,9999,9999,1601493076
17,15,Jits_Phase_8,121,9999,9999,9999,9999,1602292836
17,15,Jits_Phase_8,122,9999,9999,9999,9999,1603092584
17,15,Jits_Phase_8,123,9999,9999,9999,9999,1603892332
17,15,Jits_Phase_8,124,9999,9999,9999,9999,1604693052
17,15,Jits_Phase_8,125,9999,9999,9999,9999,1605492824
17,15,Jits_Phase_8,126,9999,9999,9999,9999,1606292576
17,15,Jits_Phase_8,127,9999,9999,9999,9999,1607092336
17,15,Jits_Phase_8,128,9999,9999,9999,9999,1607893064
17,15,Jits_Phase_8,129,9999,9999,9999,9999,1608692824
17,15,Jits_Phase_8,130,9999,9999,9999,9999,1609492588
17,15,Jits_Phase_8,131,9999,9999,9999,9999,1610453064
17,15,Jits_Phase_8,132,9999,9999,9999,9999,1611252820
17,15,Jits_Phase_8,133,9999,9999,9999,9999,1612052584
17,15,Jits_Phase_8,134,9999,9999,9999,9999,1612852344
17,15,Jits_Phase_8,135,9999,9999,9999,9999,1613653064
17,15,Jits_Phase_8,136,9999,9999,9999,9999,1614452844
17,15,Jits_Phase_8,137,9999,9999,9999,9999,1615252600
17,15,Jits_Phase_8,138,9999,9999,9999,9999,1616052288
17,15,Jits_Phase_8,139,9999,9999,9999,9999,1616853092
17,15,Jits_Phase_8,140,9999,9999,9999,9999,1617652852
17,15,Jits_Phase_8,141,9999,9999,9999,9999,1618452604
17,15,Jits_Phase_8,142,9999,9999,9999,9999,1619252284
17,15,Jits_Phase_8,143,9999,9999,9999,9999,1620053088
17,15,Jits_Phase_8,144,9999,9999,9999,9999,1620852788
17,15,Jits_Phase_8,145,9999,9999,9999,9999,1621652548
17,15,Jits_Phase_8,146,9999,9999,9999,9999,1622452304
17,15,Jits_Phase_8,147,9999,9999,9999,9999,1623253104
17,15,Jits_Phase_8,148,9999,9999,9999,9999,1624052856
17,15,Jits_Phase_8,149,9999,9999,9999,9999,1624852532
17,15,Jits_Phase_8,150,9999,9999,9999,9999,1625492572
17,15,Jits_Phase_8,151,9999,9999,9999,9999,1626292328
17,15,Jits_Phase_8,152,9999,9999,9999,9999,1627093076
17,15,Jits_Phase_8,153,9999,9999,9999,9999,1627892840
17,15,Jits_Phase_8,154,9999,9999,9999,9999,1628692592
17,15,Jits_Phase_8,155,9999,9999,9999,9999,1629492336
17,15,Jits_Phase_8,156,9999,9999,9999,9999,1630293072
17,15,Jits_Phase_8,157,9999,9999,9999,9999,1631092848
17,15,Jits_Phase_8,158,9999,9999,9999,9999,1631892536
17,15,Jits_Phase_8,159,9999,9999,9999,9999,1632692292
17,15,Jits_Phase_8,160,9999,9999,9999,9999,1633493116
17,15,Jits_Phase_8,161,9999,9999,9999,9999,1634292800
17,15,Jits_Phase_8,162,9999,9999,9999,9999,1635092564
17,15,Jits_Phase_8,163,9999,9999,9999,9999,1635892320
17,15,Jits_Phase_8,164,9999,9999,9999,9999,1636693052
17,15,Jits_Phase_8,165,9999,9999,9999,9999,1637492828
17,15,Jits_Phase_8,166,9999,9999,9999,9999,1638292592
17,15,Jits_Phase_8,167,9999,9999,9999,9999,1639092280
17,15,Jits_Phase_8,168,9999,9999,9999,9999,1639893084
17,15,Jits_Phase_8,169,9999,9999,9999,9999,1640692852
18,19,Jits_Linear_5,0,5,56,103,1649332788
18,19,Jits_Linear_5,1,5,63,98,1649335888
18,19,Jits_Linear_5,2,5,80,127,1649338932
18,19,Jits_Linear_5,0,5,56,103,1649812948
18,19,Jits_Linear_5,1,5,63,98,1649815968
18,19,Jits_Linear_5,2,5,80,127,1649819020
18,19,Jits_Linear_5,3,1,48,43,1650022100
18,19,Jits_Linear_5,0,5,56,103,1650293092
18,19,Jits_Linear_5,1,5,80,127,1650303588
18,19,Jits_Linear_5,2,5,63,98,1650322704
18,19,Jits_Linear_5,3,1,48,35,1650436248
18,19,Jits_Linear_5,0,5,63,98,1650723144
18,19,Jits_Linear_5,1,5,80,127,1650752824
18,19,Jits_Linear_5,2,5,56,103,1650763092
18,19,Jits_Linear_5,3,1,48,27,1650888796
18,19,Jits_Linear_5,0,5,80,127,1651262768
18,19,Jits_Linear_5,1,1,48,29,1651265212
18,19,Jits_Linear_5,2,5,56,103,1651273032
18,19,Jits_Linear_5,3,5,63,98,1651302708
18,19,Jits_Linear_5,0,5,63,98,1651743068
18,19,Jits_Linear_5,1,1,48,29,1651759444
18,19,Jits_Linear_5,2,5,56,103,1651772812
18,19,Jits_Linear_5,3,5,80,127,1651783008
18,19,Jits_Linear_5,0,5,56,103,1652183640
18,19,Jits_Linear_5,1,1,48,34,1652229012
18,19,Jits_Linear_5,2,5,63,98,1652232568
18,19,Jits_Linear_5,3,5,80,127,1652253104
18,19,Jits_Linear_5,0,5,80,127,1652672856
18,19,Jits_Linear_5,1,1,48,39,1652695604
18,19,Jits_Linear_5,2,5,63,98,1652722980
18,19,Jits_Linear_5,3,5,56,103,1652762920
18,19,Jits_Linear_5,0,5,56,103,1653163492
18,19,Jits_Linear_5,1,1,48,40,1653184896
18,19,Jits_Linear_5,2,5,63,98,1653192940
18,19,Jits_Linear_5,3,5,80,127,1653262844
18,19,Jits_Linear_5,0,5,56,103,1653652780
18,19,Jits_Linear_5,1,1,48,38,1653687588
18,19,Jits_Linear_5,2,5,80,127,1653713388
18,19,Jits_Linear_5,3,5,63,98,1653742916
18,19,Jits_Linear_5,0,5,56,103,1654152784
18,19,Jits_Linear_5,1,5,63,98,1654162908
18,19,Jits_Linear_5,2,1,48,40,1654192328
18,19,Jits_Linear_5,3,5,80,127,1654202688
18,19,Jits_Linear_5,0,5,63,98,1654643040
18,19,Jits_Linear_5,1,1,48,39,1654674636
18,19,Jits_Linear_5,2,5,80,127,1654722908
18,19,Jits_Linear_5,3,5,56,103,1654733032
18,19,Jits_Linear_5,0,5,63,98,1655192932
18,19,Jits_Linear_5,1,1,48,40,1655195828
18,19,Jits_Linear_5,2,5,56,103,1655232936
18,19,Jits_Linear_5,3,5,80,127,1655236300
18,19,Jits_Linear_5,0,5,56,103,1655652804
18,19,Jits_Linear_5,1,5,63,98,1655662952
18,19,Jits_Linear_5,2,5,80,127,1655702888
18,19,Jits_Linear_5,3,1,48,48,1655750420
18,19,Jits_Linear_5,0,5,56,103,1656143356
18,19,Jits_Linear_5,1,5,63,98,1656146348
18,19,Jits_Linear_5,2,5,80,127,1656162624
18,19,Jits_Linear_5,3,1,48,43,1656168808
18,19,Jits_Linear_5,0,1,48,38,1656655600
18,19,Jits_Linear_5,1,5,80,127,1656663496
18,19,Jits_Linear_5,2,5,56,103,1656672500
18,19,Jits_Linear_5,3,5,63,98,1656743476
18,19,Jits_Linear_5,0,1,48,40,1657145772
18,19,Jits_Linear_5,1,5,63,98,1657163108
18,19,Jits_Linear_5,2,5,56,103,1657182448
18,19,Jits_Linear_5,3,5,80,127,1657262404
18,19,Jits_Linear_5,0,1,48,38,1657659236
18,19,Jits_Linear_5,1,5,56,103,1657683548
18,19,Jits_Linear_5,2,5,80,127,1657723440
18,19,Jits_Linear_5,3,5,63,98,1657732588
18,19,Jits_Linear_5,0,5,80,127,1658183168
18,19,Jits_Linear_5,1,1,48,42,1658208608
18,19,Jits_Linear_5,2,5,63,98,1658212764
18,19,Jits_Linear_5,3,5,56,103,1658252652
18,19,Jits_Linear_5,0,1,48,43,1658708600
18,19,Jits_Linear_5,1,5,56,103,1658712680
18,19,Jits_Linear_5,2,5,63,98,1658743204
18,19,Jits_Linear_5,3,5,80,127,1658793408
18,19,Jits_Linear_5,0,5,80,127,1659223392
18,19,Jits_Linear_5,1,1,48,42,1659229648
18,19,Jits_Linear_5,2,5,56,103,1659263348
18,19,Jits_Linear_5,3,5,63,98,1659272424
18,19,Jits_Linear_5,0,5,80,127,1659723088
18,19,Jits_Linear_5,1,1,48,38,1659740900
18,19,Jits_Linear_5,2,5,63,98,1659763196
18,19,Jits_Linear_5,3,5,56,103,1659822468
18,19,Jits_Linear_5,0,1,48,42,1660238036
18,19,Jits_Linear_5,1,5,56,103,1660243536
18,19,Jits_Linear_5,2,5,80,127,1660252536
18,19,Jits_Linear_5,3,5,63,98,1660333328
18,19,Jits_Linear_5,0,5,80,127,1660762488
18,19,Jits_Linear_5,1,1,48,45,1660776468
18,19,Jits_Linear_5,2,5,63,98,1660822824
18,19,Jits_Linear_5,3,5,56,103,1660852648
18,19,Jits_Linear_5,0,5,56,103,1661282644
18,19,Jits_Linear_5,1,1,48,42,1661301152
18,19,Jits_Linear_5,2,5,80,127,1661343204
18,19,Jits_Linear_5,3,5,63,98,1661383144
18,19,Jits_Linear_5,0,1,48,46,1661770460
18,19,Jits_Linear_5,1,5,56,103,1661863356
18,19,Jits_Linear_5,2,5,63,98,1661872492
18,19,Jits_Linear_5,3,5,80,127,1661875928
18,19,Jits_Linear_5,0,1,48,42,1662295252
18,19,Jits_Linear_5,1,5,80,127,1662342584
18,19,Jits_Linear_5,2,5,63,98,1662432484
18,19,Jits_Linear_5,3,5,56,103,1662442976
18,19,Jits_Linear_5,0,5,56,103,1662872908
18,19,Jits_Linear_5,1,5,63,98,1662876156
18,19,Jits_Linear_5,2,5,80,127,1662879348
18,19,Jits_Linear_5,3,1,48,38,1662934176
18,19,Jits_Linear_5,0,1,48,40,1663409420
18,19,Jits_Linear_5,1,5,80,127,1663422868
18,19,Jits_Linear_5,2,5,63,98,1663473144
18,19,Jits_Linear_5,3,5,56,103,1663502672
18,19,Jits_Linear_5,0,5,56,103,1663932680
18,19,Jits_Linear_5,1,5,80,127,1663943320
18,19,Jits_Linear_5,2,1,48,42,1663954312
18,19,Jits_Linear_5,3,5,63,98,1664012552
18,19,Jits_Linear_5,0,1,48,42,1664462996
18,19,Jits_Linear_5,1,5,56,103,1664472312
18,19,Jits_Linear_5,2,5,63,98,1664492992
18,19,Jits_Linear_5,3,5,80,127,1664553312
18,19,Jits_Linear_5,0,1,48,42,1664969704
18,19,Jits_Linear_5,1,5,80,127,1665003008
18,19,Jits_Linear_5,2,5,63,98,1665072456
18,19,Jits_Linear_5,3,5,56,103,1665092992
18,19,Jits_Linear_5,0,1,48,47,1665529184
18,19,Jits_Linear_5,1,5,80,127,1665562936
18,19,Jits_Linear_5,2,5,56,103,1665573504
18,19,Jits_Linear_5,3,5,63,98,1665582504
18,19,Jits_Linear_5,0,1,48,46,1666049248
18,19,Jits_Linear_5,1,5,80,127,1666093412
18,19,Jits_Linear_5,2,5,56,103,1666112824
18,19,Jits_Linear_5,3,5,63,98,1666182516
18,19,Jits_Linear_5,0,1,48,38,1666581756
18,19,Jits_Linear_5,1,5,56,103,1666643364
18,19,Jits_Linear_5,2,5,80,127,1666673216
18,19,Jits_Linear_5,3,5,63,98,1666692612
18,19,Jits_Linear_5,0,1,48,38,1667121148
18,19,Jits_Linear_5,1,5,63,98,1667183084
18,19,Jits_Linear_5,2,5,56,103,1667243240
18,19,Jits_Linear_5,3,5,80,127,1667273064
18,19,Jits_Linear_5,0,1,48,42,1667683696
18,19,Jits_Linear_5,1,5,63,98,1667722704
18,19,Jits_Linear_5,2,5,80,127,1667725992
18,19,Jits_Linear_5,3,5,56,103,1667812824
18,19,Jits_Linear_5,0,1,48,39,1668257260
18,19,Jits_Linear_5,1,5,56,103,1668293180
18,19,Jits_Linear_5,2,5,63,98,1668322636
18,19,Jits_Linear_5,3,5,80,127,1668362632
18,19,Jits_Linear_5,0,1,48,40,1668798376
18,19,Jits_Linear_5,1,5,63,98,1668842772
18,19,Jits_Linear_5,2,5,56,103,1668882936
18,19,Jits_Linear_5,3,5,80,127,1668903232
18,19,Jits_Linear_5,0,1,48,46,1669320464
18,19,Jits_Linear_5,1,5,63,98,1669403072
18,19,Jits_Linear_5,2,5,56,103,1669443144
18,19,Jits_Linear_5,3,5,80,127,1669453416
18,19,Jits_Linear_5,0,1,48,44,1669864744
18,19,Jits_Linear_5,1,5,80,127,1669933476
18,19,Jits_Linear_5,2,5,63,98,1670003320
18,19,Jits_Linear_5,3,5,56,103,1670022512
18,19,Jits_Linear_5,0,1,48,43,1670376712
18,19,Jits_Linear_5,1,5,56,103,1670483272
18,19,Jits_Linear_5,2,5,80,127,1670502908
18,19,Jits_Linear_5,3,5,63,98,1670542652
18,19,Jits_Linear_5,0,1,48,46,1670988256
18,19,Jits_Linear_5,1,5,63,98,1671052528
18,19,Jits_Linear_5,2,5,80,127,1671073284
18,19,Jits_Linear_5,3,5,56,103,1671113208
18,19,Jits_Linear_5,0,1,48,47,1671565368
18,19,Jits_Linear_5,1,1,48,35,1671600940
18,19,Jits_Linear_5,2,5,63,98,1671612652
18,19,Jits_Linear_5,3,5,56,103,1671633260
18,19,Jits_Linear_5,4,5,80,127,1671642336
18,19,Jits_Linear_5,0,1,48,45,1672137688
18,19,Jits_Linear_5,1,5,80,127,1672173012
18,19,Jits_Linear_5,2,5,56,103,1672193324
18,19,Jits_Linear_5,3,5,63,98,1672223148
18,19,Jits_Linear_5,0,1,48,42,1672721900
18,19,Jits_Linear_5,1,5,56,103,1672813052
18,19,Jits_Linear_5,2,5,80,127,1672816780
18,19,Jits_Linear_5,3,5,63,98,1672833348
18,19,Jits_Linear_5,0,1,48,45,1673302944
18,19,Jits_Linear_5,1,5,63,98,1673312636
18,19,Jits_Linear_5,2,5,56,103,1673343308
18,19,Jits_Linear_5,3,5,80,127,1673402860
18,19,Jits_Linear_5,0,1,48,44,1673833120
18,19,Jits_Linear_5,1,5,63,98,1673963148
18,19,Jits_Linear_5,2,5,56,103,1673973124
18,19,Jits_Linear_5,3,5,80,127,1673983320
18,19,Jits_Linear_5,0,1,48,47,1674406032
18,19,Jits_Linear_5,1,5,56,103,1674483008
18,19,Jits_Linear_5,2,5,80,127,1674512968
18,19,Jits_Linear_5,3,5,63,98,1674523240
18,19,Jits_Linear_5,0,1,48,38,1674977864
18,19,Jits_Linear_5,1,5,63,98,1675093344
18,19,Jits_Linear_5,2,5,56,103,1675102568
18,19,Jits_Linear_5,3,5,80,127,1675123128
18,19,Jits_Linear_5,0,1,48,43,1675591236
18,19,Jits_Linear_5,1,5,56,103,1675593124
18,19,Jits_Linear_5,2,5,63,98,1675652420
18,19,Jits_Linear_5,3,5,80,127,1675656004
18,19,Jits_Linear_5,0,1,48,40,1676149056
18,19,Jits_Linear_5,1,5,80,127,1676192996
18,19,Jits_Linear_5,2,5,56,103,1676203344
18,19,Jits_Linear_5,3,5,63,98,1676273156
18,19,Jits_Linear_5,0,1,48,42,1676711168
18,19,Jits_Linear_5,1,5,80,127,1676762512
18,19,Jits_Linear_5,2,5,56,103,1676833080
18,19,Jits_Linear_5,3,5,63,98,1676843348
18,19,Jits_Linear_5,0,1,48,37,1677285916
18,19,Jits_Linear_5,1,5,63,98,1677383052
18,19,Jits_Linear_5,2,5,56,103,1677393308
18,19,Jits_Linear_5,3,5,80,127,1677412648
18,19,Jits_Linear_5,0,1,48,39,1677856104
18,19,Jits_Linear_5,1,5,80,127,1677912332
18,19,Jits_Linear_5,2,5,63,98,1677973256
18,19,Jits_Linear_5,3,5,56,103,1678012900
18,19,Jits_Linear_5,0,1,48,37,1678435056
18,19,Jits_Linear_5,1,5,56,103,1678543288
18,19,Jits_Linear_5,2,5,63,98,1678552364
18,19,Jits_Linear_5,3,5,80,127,1678593272
18,19,Jits_Linear_5,0,1,48,39,1679015088
18,19,Jits_Linear_5,1,5,56,103,1679103300
18,19,Jits_Linear_5,2,5,80,127,1679133108
18,19,Jits_Linear_5,3,5,63,98,1679183164
18,19,Jits_Linear_5,0,1,48,42,1679660356
18,19,Jits_Linear_5,1,5,56,103,1679733076
18,19,Jits_Linear_5,2,5,63,98,1679773076
18,19,Jits_Linear_5,3,5,80,127,1679776440
18,19,Jits_Linear_5,0,1,48,38,1680271168
18,19,Jits_Linear_5,1,5,56,103,1680322964
18,19,Jits_Linear_5,2,5,63,98,1680333236
18,19,Jits_Linear_5,3,5,80,127,1680352500
18,19,Jits_Linear_5,0,1,48,42,1680862928
18,19,Jits_Linear_5,1,5,56,103,1680872844
18,19,Jits_Linear_5,2,5,80,127,1680875832
18,19,Jits_Linear_5,3,5,63,98,1680913004
18,19,Jits_Linear_5,0,1,48,39,1681429644
18,19,Jits_Linear_5,1,5,63,98,1681502432
18,19,Jits_Linear_5,2,5,56,103,1681533244
18,19,Jits_Linear_5,3,5,80,127,1681553028
18,19,Jits_Linear_5,0,1,48,45,1681966716
18,19,Jits_Linear_5,1,5,80,127,1682072928
18,19,Jits_Linear_5,2,5,56,103,1682083124
18,19,Jits_Linear_5,3,5,63,98,1682093320
18,19,Jits_Linear_5,0,1,48,39,1682585700
18,19,Jits_Linear_5,1,5,56,103,1682672944
18,19,Jits_Linear_5,2,5,80,127,1682713092
18,19,Jits_Linear_5,3,5,63,98,1682742692
18,19,Jits_Linear_5,0,1,48,38,1683159696
18,19,Jits_Linear_5,1,5,63,98,1683283420
18,19,Jits_Linear_5,2,5,80,127,1683292496
18,19,Jits_Linear_5,3,5,56,103,1683302764
18,19,Jits_Linear_5,0,1,48,36,1683794324
18,19,Jits_Linear_5,1,5,56,103,1683862932
18,19,Jits_Linear_5,2,5,63,98,1683932456
18,19,Jits_Linear_5,3,5,80,127,1683942876
18,19,Jits_Linear_5,0,1,48,40,1684384844
18,19,Jits_Linear_5,1,5,80,127,1684473128
18,19,Jits_Linear_5,2,5,56,103,1684482564
18,19,Jits_Linear_5,3,5,63,98,1684532840
18,19,Jits_Linear_5,0,1,48,37,1684989848
18,19,Jits_Linear_5,1,5,80,127,1685092968
18,19,Jits_Linear_5,2,5,56,103,1685153088
18,19,Jits_Linear_5,3,5,63,98,1685182916
18,19,Jits_Linear_5,0,1,48,38,1685615964
18,19,Jits_Linear_5,1,5,56,103,1685702980
18,19,Jits_Linear_5,2,5,80,127,1685706044
18,19,Jits_Linear_5,3,5,63,98,1685742904
18,19,Jits_Linear_5,0,1,48,44,1686192212
18,19,Jits_Linear_5,1,5,56,103,1686343044
18,19,Jits_Linear_5,2,5,63,98,1686372944
18,19,Jits_Linear_5,3,5,80,127,1686382868
18,19,Jits_Linear_5,0,1,48,35,1686843388
18,19,Jits_Linear_5,1,5,63,98,1686962484
18,19,Jits_Linear_5,2,5,80,127,1686972976
18,19,Jits_Linear_5,3,5,56,103,1686983100
18,19,Jits_Linear_5,0,1,48,39,1687499080
18,19,Jits_Linear_5,1,5,80,127,1687522716
18,19,Jits_Linear_5,2,5,56,103,1687572772
18,19,Jits_Linear_5,3,5,63,98,1687575840
18,19,Jits_Linear_5,0,1,48,42,1688146804
18,19,Jits_Linear_5,1,5,56,103,1688172936
18,19,Jits_Linear_5,2,5,80,127,1688193320
18,19,Jits_Linear_5,3,5,63,98,1688202620
18,19,Jits_Linear_5,0,1,48,42,1688721292
18,19,Jits_Linear_5,1,5,63,98,1688773012
18,19,Jits_Linear_5,2,5,56,103,1688802840
18,19,Jits_Linear_5,3,5,80,127,1688823132
18,19,Jits_Linear_5,0,1,48,35,1689356272
18,19,Jits_Linear_5,1,5,56,103,1689402608
18,19,Jits_Linear_5,2,5,80,127,1689412956
18,19,Jits_Linear_5,3,5,63,98,1689482944
18,19,Jits_Linear_5,0,1,48,35,1689995188
18,19,Jits_Linear_5,1,5,63,98,1690012980
18,19,Jits_Linear_5,2,5,80,127,1690052920
18,19,Jits_Linear_5,3,5,56,103,1690093064
18,19,Jits_Linear_5,0,1,48,38,1690567020
18,19,Jits_Linear_5,1,5,56,103,1690652916
18,19,Jits_Linear_5,2,5,63,98,1690664444
18,19,Jits_Linear_5,3,5,80,127,1690682664
18,19,Jits_Linear_5,0,1,48,30,1691198264
18,19,Jits_Linear_5,1,5,63,98,1691322688
18,19,Jits_Linear_5,2,5,80,127,1691343072
18,19,Jits_Linear_5,3,5,56,103,1691362856
18,19,Jits_Linear_5,0,1,48,31,1691885516
18,19,Jits_Linear_5,1,5,56,103,1691893044
18,19,Jits_Linear_5,2,5,80,127,1691973068
18,19,Jits_Linear_5,3,5,63,98,1691983172
18,19,Jits_Linear_5,0,1,48,39,1692546540
18,19,Jits_Linear_5,1,5,80,127,1692562680
18,19,Jits_Linear_5,2,5,63,98,1692573028
18,19,Jits_Linear_5,3,5,56,103,1692602776
18,19,Jits_Linear_5,0,5,63,98,1693152648
18,19,Jits_Linear_5,1,1,48,38,1693187004
18,19,Jits_Linear_5,2,5,80,127,1693192660
18,19,Jits_Linear_5,3,5,56,103,1693252904
18,19,Jits_Linear_5,0,5,63,98,1693792736
18,19,Jits_Linear_5,1,1,48,39,1693803680
18,19,Jits_Linear_5,2,5,56,103,1693842736
18,19,Jits_Linear_5,3,5,80,127,1693872712
18,19,Jits_Linear_5,0,1,48,37,1694439848
18,19,Jits_Linear_5,1,5,80,127,1694442884
18,19,Jits_Linear_5,2,5,63,98,1694453304
18,19,Jits_Linear_5,3,5,56,103,1694522688
18,19,Jits_Linear_5,0,1,48,43,1695044504
18,19,Jits_Linear_5,1,5,80,127,1695152588
18,19,Jits_Linear_5,2,5,56,103,1695162708
18,19,Jits_Linear_5,3,5,63,98,1695165996
18,19,Jits_Linear_5,0,1,48,35,1695692636
18,19,Jits_Linear_5,1,5,56,103,1695732972
18,19,Jits_Linear_5,2,5,80,127,1695752756
18,19,Jits_Linear_5,3,5,63,98,1695762728
18,19,Jits_Linear_5,0,1,48,36,1696342244
18,19,Jits_Linear_5,1,5,63,98,1696383720
18,19,Jits_Linear_5,2,5,56,103,1696423436
18,19,Jits_Linear_5,3,5,80,127,1696442688
18,19,Jits_Linear_5,0,1,48,30,1696960784
18,19,Jits_Linear_5,1,5,63,98,1697032508
18,19,Jits_Linear_5,2,5,56,103,1697092960
18,19,Jits_Linear_5,3,5,80,127,1697096024
18,19,Jits_Linear_5,0,1,48,28,1697630296
18,19,Jits_Linear_5,1,5,56,103,1697642792
18,19,Jits_Linear_5,2,5,80,127,1697663476
18,19,Jits_Linear_5,3,5,63,98,1697703564
18,19,Jits_Linear_5,0,1,48,35,1698261800
18,19,Jits_Linear_5,1,5,56,103,1698322740
18,19,Jits_Linear_5,2,5,63,98,1698343496
18,19,Jits_Linear_5,3,5,80,127,1698352424
18,19,Jits_Linear_5,0,1,48,32,1698890548
18,19,Jits_Linear_5,1,5,80,127,1698943436
18,19,Jits_Linear_5,2,5,56,103,1698973112
18,19,Jits_Linear_5,3,5,63,98,1699012964
18,19,Jits_Linear_5,0,1,48,32,1699493436
18,19,Jits_Linear_5,1,5,80,127,1699602988
18,19,Jits_Linear_5,2,5,56,103,1699623376
18,19,Jits_Linear_5,3,5,63,98,1699682720
18,19,Jits_Linear_5,0,1,48,34,1700186124
18,19,Jits_Linear_5,1,5,56,103,1700263568
18,19,Jits_Linear_5,2,5,80,127,1700282684
18,19,Jits_Linear_5,3,5,63,98,1700343060
18,19,Jits_Linear_5,0,1,48,36,1700861752
18,19,Jits_Linear_5,1,5,80,127,1700903504
18,19,Jits_Linear_5,2,5,56,103,1700912508
18,19,Jits_Linear_5,3,5,63,98,1700952520
18,19,Jits_Linear_5,0,1,48,37,1701487016
18,19,Jits_Linear_5,1,5,63,98,1701562796
18,19,Jits_Linear_5,2,5,56,103,1701602720
18,19,Jits_Linear_5,3,5,80,127,1701605712
18,19,Jits_Linear_5,0,1,48,40,1702110692
18,19,Jits_Linear_5,1,5,63,98,1702242640
18,19,Jits_Linear_5,2,5,80,127,1702282532
18,19,Jits_Linear_5,3,5,56,103,1702313404
18,19,Jits_Linear_5,0,1,48,41,1702765480
18,19,Jits_Linear_5,1,1,48,25,1702818952
18,19,Jits_Linear_5,2,5,56,103,1702892864
18,19,Jits_Linear_5,3,5,63,98,1702903136
18,19,Jits_Linear_5,4,5,80,127,1702932796
18,19,Jits_Linear_5,0,1,48,46,1703467568
18,19,Jits_Linear_5,1,5,80,127,1703553340
18,19,Jits_Linear_5,2,5,63,98,1703623160
18,19,Jits_Linear_5,3,5,56,103,1703633428
18,19,Jits_Linear_5,0,1,48,42,1704192800
18,19,Jits_Linear_5,1,5,63,98,1704223392
18,19,Jits_Linear_5,2,5,56,103,1704292692
18,19,Jits_Linear_5,3,5,80,127,1704302984
18,19,Jits_Linear_5,0,1,48,50,1704854712
18,19,Jits_Linear_5,1,5,63,98,1704892872
18,19,Jits_Linear_5,2,5,56,103,1704913556
18,19,Jits_Linear_5,3,5,80,127,1704953348
18,19,Jits_Linear_5,0,1,48,43,1705524540
18,19,Jits_Linear_5,1,5,56,103,1705572668
18,19,Jits_Linear_5,2,5,63,98,1705583040
18,19,Jits_Linear_5,3,5,80,127,1705662748
18,19,Jits_Linear_5,0,1,48,42,1706165020
18,19,Jits_Linear_5,1,5,63,98,1706233308
18,19,Jits_Linear_5,2,5,56,103,1706262896
18,19,Jits_Linear_5,3,5,80,127,1706302908
18,19,Jits_Linear_5,0,1,48,45,1706794616
18,19,Jits_Linear_5,1,5,56,103,1706902848
18,19,Jits_Linear_5,2,5,63,98,1706942788
18,19,Jits_Linear_5,3,5,80,127,1706982728
18,19,Jits_Linear_5,0,1,48,36,1707480124
18,19,Jits_Linear_5,1,5,80,127,1707582792
18,19,Jits_Linear_5,2,5,56,103,1707662840
18,19,Jits_Linear_5,3,5,63,98,1707672888
18,19,Jits_Linear_5,0,1,48,42,1708140460
18,19,Jits_Linear_5,1,5,56,103,1708302844
18,19,Jits_Linear_5,2,5,63,98,1708305836
18,19,Jits_Linear_5,3,5,80,127,1708312892
18,19,Jits_Linear_5,0,1,48,45,1708798816
18,19,Jits_Linear_5,1,1,48,26,1708852388
18,19,Jits_Linear_5,2,5,56,103,1709003092
18,19,Jits_Linear_5,3,5,63,98,1709022580
18,19,Jits_Linear_5,4,5,80,127,1709032776
18,19,Jits_Linear_5,0,1,48,45,1709524260
18,19,Jits_Linear_5,1,5,63,98,1709643252
18,19,Jits_Linear_5,2,5,80,127,1709653300
18,19,Jits_Linear_5,3,5,56,103,1709672712
18,19,Jits_Linear_5,0,1,48,48,1710254848
18,19,Jits_Linear_5,1,5,63,98,1710333248
18,19,Jits_Linear_5,2,5,56,103,1710413404
18,19,Jits_Linear_5,3,5,80,127,1710416468
18,19,Jits_Linear_5,0,1,48,48,1710920860
18,19,Jits_Linear_5,1,5,63,98,1711022416
18,19,Jits_Linear_5,2,5,56,103,1711042804
18,19,Jits_Linear_5,3,5,80,127,1711072628
18,19,Jits_Linear_5,0,1,48,44,1711567696
18,19,Jits_Linear_5,1,5,56,103,1711712624
18,19,Jits_Linear_5,2,5,63,98,1711733332
18,19,Jits_Linear_5,3,5,80,127,1711743452
18,19,Jits_Linear_5,0,1,48,42,1712275992
18,19,Jits_Linear_5,1,5,56,103,1712432452
18,19,Jits_Linear_5,2,5,63,98,1712463324
18,19,Jits_Linear_5,3,5,80,127,1712466464
18,19,Jits_Linear_5,0,1,48,49,1713023544
18,19,Jits_Linear_5,1,5,56,103,1713072424
18,19,Jits_Linear_5,2,5,63,98,1713112368
18,19,Jits_Linear_5,3,5,80,127,1713173264
18,19,Jits_Linear_5,0,1,48,36,1713782744
18,19,Jits_Linear_5,1,5,56,103,1713784384
18,19,Jits_Linear_5,2,5,63,98,1713793388
18,19,Jits_Linear_5,3,5,80,127,1713852732
18,19,Jits_Linear_5,0,1,48,44,1714431568
18,19,Jits_Linear_5,1,5,56,103,1714482540
18,19,Jits_Linear_5,2,5,80,127,1714503224
18,19,Jits_Linear_5,3,5,63,98,1714532664
18,19,Jits_Linear_5,0,1,48,49,1715083588
18,19,Jits_Linear_5,1,5,80,127,1715183100
18,19,Jits_Linear_5,2,5,56,103,1715193148
18,19,Jits_Linear_5,3,5,63,98,1715212636
18,19,Jits_Linear_5,0,1,48,35,1715796716
18,19,Jits_Linear_5,1,5,63,98,1715873048
18,19,Jits_Linear_5,2,5,80,127,1715953132
18,19,Jits_Linear_5,3,5,56,103,1715963176
18,19,Jits_Linear_5,0,1,48,35,1716484412
18,19,Jits_Linear_5,1,5,80,127,1716632952
18,19,Jits_Linear_5,2,5,56,103,1716653328
18,19,Jits_Linear_5,3,5,63,98,1716656400
18,19,Jits_Linear_5,0,1,48,43,1717124516
18,19,Jits_Linear_5,1,5,63,98,1717313040
18,19,Jits_Linear_5,2,5,80,127,1717316404
18,19,Jits_Linear_5,3,5,56,103,1717373232
18,19,Jits_Linear_5,0,1,48,49,1717838536
18,19,Jits_Linear_5,1,5,56,103,1718003044
18,19,Jits_Linear_5,2,5,80,127,1718013240
18,19,Jits_Linear_5,3,5,63,98,1718053256
18,19,Jits_Linear_5,0,1,48,42,1718534328
18,19,Jits_Linear_5,1,5,56,103,1718693280
18,19,Jits_Linear_5,2,5,63,98,1718752552
18,19,Jits_Linear_5,3,5,80,127,1718762972
18,19,Jits_Linear_5,0,1,48,45,1719218408
18,19,Jits_Linear_5,1,5,63,98,1719412960
18,19,Jits_Linear_5,2,5,80,127,1719453124
18,19,Jits_Linear_5,3,5,56,103,1719493212
18,19,Jits_Linear_5,0,1,48,45,1719891320
18,19,Jits_Linear_5,1,5,56,103,1720122948
18,19,Jits_Linear_5,2,5,63,98,1720202548
18,19,Jits_Linear_5,3,5,80,127,1720205912
18,19,Jits_Linear_5,0,1,48,37,1720699120
18,19,Jits_Linear_5,1,5,80,127,1720892748
18,19,Jits_Linear_5,2,5,56,103,1720922572
18,19,Jits_Linear_5,3,5,63,98,1720925712
18,19,Jits_Linear_5,0,1,48,45,1721499036
18,19,Jits_Linear_5,1,5,56,103,1721572800
18,19,Jits_Linear_5,2,5,80,127,1721593172
18,19,Jits_Linear_5,3,5,63,98,1721633260
18,19,Jits_Linear_5,0,1,48,42,1722250328
18,19,Jits_Linear_5,1,5,80,127,1722273068
18,19,Jits_Linear_5,2,5,63,98,1722292556
18,19,Jits_Linear_5,3,5,56,103,1722353156
18,19,Jits_Linear_5,0,1,48,44,1722953508
18,19,Jits_Linear_5,1,5,63,98,1723003384
18,19,Jits_Linear_5,2,5,56,103,1723012460
18,19,Jits_Linear_5,3,5,80,127,1723062572
18,19,Jits_Linear_5,0,1,48,44,1723646136
18,19,Jits_Linear_5,1,5,56,103,1723712924
18,19,Jits_Linear_5,2,5,63,98,1723733236
18,19,Jits_Linear_5,3,5,80,127,1723742460
18,19,Jits_Linear_5,0,1,48,41,1724373084
18,19,Jits_Linear_5,1,5,56,103,1724433196
18,19,Jits_Linear_5,2,5,63,98,1724436108
18,19,Jits_Linear_5,3,5,80,127,1724453204
18,19,Jits_Linear_5,0,1,48,45,1725058940
18,19,Jits_Linear_5,1,5,63,98,1725202896
18,19,Jits_Linear_5,2,5,56,103,1725232424
18,19,Jits_Linear_5,3,5,80,127,1725263144
18,19,Jits_Linear_5,0,1,48,39,1725786172
18,19,Jits_Linear_5,1,5,80,127,1725892904
18,19,Jits_Linear_5,2,5,56,103,1725983188
18,19,Jits_Linear_5,3,5,63,98,1725986180
18,19,Jits_Linear_5,0,1,48,50,1726546224
18,19,Jits_Linear_5,1,5,56,103,1726623148
18,19,Jits_Linear_5,2,5,80,127,1726626216
18,19,Jits_Linear_5,3,5,63,98,1726702932
18,19,Jits_Linear_5,0,1,48,40,1727302532
18,19,Jits_Linear_5,1,5,80,127,1727353232
18,19,Jits_Linear_5,2,5,63,98,1727412488
18,19,Jits_Linear_5,3,5,56,103,1727443432
18,19,Jits_Linear_5,0,1,48,43,1728002656
18,19,Jits_Linear_5,1,5,63,98,1728083376
18,19,Jits_Linear_5,2,5,80,127,1728092676
18,19,Jits_Linear_5,3,5,56,103,1728163040
18,19,Jits_Linear_5,0,1,48,41,1728704192
18,19,Jits_Linear_5,1,5,56,103,1728832852
18,19,Jits_Linear_5,2,5,80,127,1728862456
18,19,Jits_Linear_5,3,5,63,98,1728912684
18,19,Jits_Linear_5,0,1,48,45,1729482092
18,19,Jits_Linear_5,1,5,63,98,1729613144
18,19,Jits_Linear_5,2,5,56,103,1729642848
18,19,Jits_Linear_5,3,5,80,127,1729646060
18,19,Jits_Linear_5,0,1,48,46,1730216968
18,19,Jits_Linear_5,1,5,63,98,1730352448
18,19,Jits_Linear_5,2,5,80,127,1730372908
18,19,Jits_Linear_5,3,5,56,103,1730383104
18,19,Jits_Linear_5,0,1,48,42,1731005576
18,19,Jits_Linear_5,1,5,56,103,1731103516
18,19,Jits_Linear_5,2,5,63,98,1731106504
18,19,Jits_Linear_5,3,5,80,127,1731122852
18,19,Jits_Linear_5,0,1,48,42,1731778592
18,19,Jits_Linear_5,1,5,56,103,1731802376
18,19,Jits_Linear_5,2,5,63,98,1731812944
18,19,Jits_Linear_5,3,5,80,127,1731842400
18,19,Jits_Linear_5,0,1,48,41,1732497816
18,19,Jits_Linear_5,1,5,63,98,1732572700
18,19,Jits_Linear_5,2,5,80,127,1732592936
18,19,Jits_Linear_5,3,5,56,103,1732632936
18,19,Jits_Linear_5,0,1,48,35,1733212152
18,19,Jits_Linear_5,1,5,56,103,1733352748
18,19,Jits_Linear_5,2,5,63,98,1733392908
18,19,Jits_Linear_5,3,5,80,127,1733396348
18,19,Jits_Linear_5,0,1,48,40,1733918252
18,19,Jits_Linear_5,1,5,80,127,1734043196
18,19,Jits_Linear_5,2,5,56,103,1734082988
18,19,Jits_Linear_5,3,5,63,98,1734132968
18,19,Jits_Linear_5,0,1,48,40,1734662444
18,19,Jits_Linear_5,1,5,56,103,1734852864
18,19,Jits_Linear_5,2,5,80,127,1734863432
18,19,Jits_Linear_5,3,5,63,98,1734892956
18,19,Jits_Linear_5,0,1,48,43,1735509260
18,19,Jits_Linear_5,1,5,56,103,1735562664
18,19,Jits_Linear_5,2,5,80,127,1735603416
18,19,Jits_Linear_5,3,5,63,98,1735652720
18,19,Jits_Linear_5,0,5,56,103,1736322360
18,19,Jits_Linear_5,1,1,48,43,1736332604
18,19,Jits_Linear_5,2,5,80,127,1736363492
18,19,Jits_Linear_5,3,5,63,98,1736412648
18,19,Jits_Linear_5,0,1,48,38,1737072772
18,19,Jits_Linear_5,1,5,80,127,1737074256
18,19,Jits_Linear_5,2,5,63,98,1737152788
18,19,Jits_Linear_5,3,5,56,103,1737163060
18,19,Jits_Linear_5,0,1,48,47,1737833172
18,19,Jits_Linear_5,1,5,80,127,1737882948
18,19,Jits_Linear_5,2,5,56,103,1737893220
18,19,Jits_Linear_5,3,5,63,98,1737912632
18,19,Jits_Linear_5,0,1,48,40,1738588784
18,19,Jits_Linear_5,1,5,63,98,1738612968
18,19,Jits_Linear_5,2,5,56,103,1738682860
18,19,Jits_Linear_5,3,5,80,127,1738685776
18,19,Jits_Linear_5,0,1,48,39,1739341960
18,19,Jits_Linear_5,1,5,80,127,1739372948
18,19,Jits_Linear_5,2,5,63,98,1739423228
18,19,Jits_Linear_5,3,5,56,103,1739463152
18,19,Jits_Linear_5,0,1,48,38,1740113032
18,19,Jits_Linear_5,1,5,63,98,1740182912
18,19,Jits_Linear_5,2,5,56,103,1740222760
18,19,Jits_Linear_5,3,5,80,127,1740233180
18,19,Jits_Linear_5,0,1,48,44,1740879156
18,19,Jits_Linear_5,1,5,63,98,1740942752
18,19,Jits_Linear_5,2,5,56,103,1740963064
18,19,Jits_Linear_5,3,5,80,127,1740982608
18,19,Jits_Linear_5,0,1,48,36,1741650824
18,19,Jits_Linear_5,1,5,80,127,1741672916
18,19,Jits_Linear_5,2,5,56,103,1741683040
18,19,Jits_Linear_5,3,5,63,98,1741702752
18,19,Jits_Linear_5,0,1,48,43,1742423632
18,19,Jits_Linear_5,1,5,63,98,1742472832
18,19,Jits_Linear_5,2,1,48,23,1742484780
18,19,Jits_Linear_5,3,5,56,103,1742512824
18,19,Jits_Linear_5,4,5,80,127,1742543176
18,19,Jits_Linear_5,0,1,48,36,1743176100
18,19,Jits_Linear_5,1,5,56,103,1743252952
18,19,Jits_Linear_5,2,5,63,98,1743282764
18,19,Jits_Linear_5,3,5,80,127,1743313484
18,19,Jits_Linear_5,0,1,48,41,1743922532
18,19,Jits_Linear_5,1,1,48,26,1743980508
18,19,Jits_Linear_5,2,5,80,127,1744002504
18,19,Jits_Linear_5,3,5,56,103,1744073068
18,19,Jits_Linear_5,4,5,63,98,1744076136
18,19,Jits_Linear_5,0,1,48,48,1744642020
18,19,Jits_Linear_5,1,5,56,103,1744792804
18,19,Jits_Linear_5,2,5,63,98,1744843084
18,19,Jits_Linear_5,3,5,80,127,1744872908
18,19,Jits_Linear_5,0,1,48,57,1745373828
18,19,Jits_Linear_5,1,5,63,98,1745552788
18,19,Jits_Linear_5,2,5,80,127,1745556076
18,19,Jits_Linear_5,3,5,56,103,1745613104
18,19,Jits_Linear_5,0,1,48,42,1746128620
18,19,Jits_Linear_5,1,5,56,103,1746362884
18,19,Jits_Linear_5,2,5,80,127,1746372932
18,19,Jits_Linear_5,3,5,63,98,1746423208
18,19,Jits_Linear_5,0,1,48,44,1746969076
18,19,Jits_Linear_5,1,5,63,98,1747122572
18,19,Jits_Linear_5,2,5,56,103,1747132844
18,19,Jits_Linear_5,3,5,80,127,1747162668
18,19,Jits_Linear_5,0,1,48,47,1747861564
18,19,Jits_Linear_5,1,5,63,98,1747942648
18,19,Jits_Linear_5,2,5,80,127,1747945868
18,19,Jits_Linear_5,3,5,56,103,1747972612
18,19,Jits_Linear_5,0,1,48,47,1748682524
18,19,Jits_Linear_5,1,5,63,98,1748752680
18,19,Jits_Linear_5,2,5,56,103,1748773436
18,19,Jits_Linear_5,3,5,80,127,1748776352
18,19,Jits_Linear_5,0,1,48,50,1749433060
18,19,Jits_Linear_5,1,5,63,98,1749503512
18,19,Jits_Linear_5,2,5,56,103,1749573108
18,19,Jits_Linear_5,3,5,80,127,1749592596
18,19,Jits_Linear_5,0,1,48,49,1750178132
18,19,Jits_Linear_5,1,5,56,103,1750282672
18,19,Jits_Linear_5,2,5,63,98,1750292940
18,19,Jits_Linear_5,3,5,80,127,1750383248
18,19,Jits_Linear_5,0,1,48,50,1750965160
18,19,Jits_Linear_5,1,5,56,103,1751102816
18,19,Jits_Linear_5,2,5,80,127,1751142784
18,19,Jits_Linear_5,3,5,63,98,1751153128
18,19,Jits_Linear_5,0,1,48,43,1751771908
18,19,Jits_Linear_5,1,5,56,103,1751922916
18,19,Jits_Linear_5,2,5,63,98,1751952892
18,19,Jits_Linear_5,3,5,80,127,1751982568
18,19,Jits_Linear_5,0,1,48,45,1752598044
18,19,Jits_Linear_5,1,5,80,127,1752682844
18,19,Jits_Linear_5,2,5,63,98,1752722696
18,19,Jits_Linear_5,3,5,56,103,1752743452
18,19,Jits_Linear_5,0,1,48,43,1753398784
18,19,Jits_Linear_5,1,5,56,103,1753532796
18,19,Jits_Linear_5,2,5,80,127,1753553404
18,19,Jits_Linear_5,3,5,63,98,1753572740
18,19,Jits_Linear_5,0,1,48,43,1754287964
18,19,Jits_Linear_5,1,5,63,98,1754302836
18,19,Jits_Linear_5,2,5,56,103,1754313404
18,19,Jits_Linear_5,3,5,80,127,1754372376
18,19,Jits_Linear_5,0,1,48,42,1755089380
18,19,Jits_Linear_5,1,5,56,103,1755112868
18,19,Jits_Linear_5,2,5,63,98,1755182404
18,19,Jits_Linear_5,3,5,80,127,1755202924
18,19,Jits_Linear_5,0,1,48,48,1755883844
18,19,Jits_Linear_5,1,5,56,103,1755922832
18,19,Jits_Linear_5,2,5,63,98,1755952508
18,19,Jits_Linear_5,3,5,80,127,1755992580
18,19,Jits_Linear_5,0,1,48,49,1756705116
18,19,Jits_Linear_5,1,5,63,98,1756722452
18,19,Jits_Linear_5,2,5,56,103,1756772804
18,19,Jits_Linear_5,3,5,80,127,1756782948
18,19,Jits_Linear_5,0,1,48,40,1757533508
18,19,Jits_Linear_5,1,5,56,103,1757572444
18,19,Jits_Linear_5,2,5,63,98,1757622572
18,19,Jits_Linear_5,3,5,80,127,1757632828
18,19,Jits_Linear_5,0,1,48,41,1758334276
18,19,Jits_Linear_5,1,5,56,103,1758352660
18,19,Jits_Linear_5,2,5,63,98,1758362928
18,19,Jits_Linear_5,3,5,80,127,1758442860
18,19,Jits_Linear_5,0,9999,9999,9999,9999,1649570872
18,19,Jits_Linear_5,1,9999,9999,9999,9999,1650050128
18,19,Jits_Linear_5,2,9999,9999,9999,9999,1650530404
18,19,Jits_Linear_5,3,9999,9999,9999,9999,1651010660
18,19,Jits_Linear_5,4,9999,9999,9999,9999,1651490944
18,19,Jits_Linear_5,5,9999,9999,9999,9999,1651980388
18,19,Jits_Linear_5,6,9999,9999,9999,9999,1652470856
18,19,Jits_Linear_5,7,9999,9999,9999,9999,1652960368
18,19,Jits_Linear_5,8,9999,9999,9999,9999,1653450856
18,19,Jits_Linear_5,9,9999,9999,9999,9999,1653940296
18,19,Jits_Linear_5,10,9999,9999,9999,9999,1654441044
18,19,Jits_Linear_5,11,9999,9999,9999,9999,1654940744
18,19,Jits_Linear_5,12,9999,9999,9999,9999,1655440504
18,19,Jits_Linear_5,13,9999,9999,9999,9999,1655940188
18,19,Jits_Linear_5,14,9999,9999,9999,9999,1656440924
18,19,Jits_Linear_5,15,9999,9999,9999,9999,1656950892
18,19,Jits_Linear_5,16,9999,9999,9999,9999,1657460844
18,19,Jits_Linear_5,17,9999,9999,9999,9999,1657970796
18,19,Jits_Linear_5,18,9999,9999,9999,9999,1658480740
18,19,Jits_Linear_5,19,9999,9999,9999,9999,1658990712
18,19,Jits_Linear_5,20,9999,9999,9999,9999,1659510852
18,19,Jits_Linear_5,21,9999,9999,9999,9999,1660031080
18,19,Jits_Linear_5,22,9999,9999,9999,9999,1660550260
18,19,Jits_Linear_5,23,9999,9999,9999,9999,1661070404
18,19,Jits_Linear_5,24,9999,9999,9999,9999,1661590636
18,19,Jits_Linear_5,25,9999,9999,9999,9999,1662121052
18,19,Jits_Linear_5,26,9999,9999,9999,9999,1662650484
18,19,Jits_Linear_5,27,9999,9999,9999,9999,1663180864
18,19,Jits_Linear_5,28,9999,9999,9999,9999,1663710316
18,19,Jits_Linear_5,29,9999,9999,9999,9999,1664240716
18,19,Jits_Linear_5,30,9999,9999,9999,9999,1664780356
18,19,Jits_Linear_5,31,9999,9999,9999,9999,1665321024
18,19,Jits_Linear_5,32,9999,9999,9999,9999,1665860712
18,19,Jits_Linear_5,33,9999,9999,9999,9999,1666400336
18,19,Jits_Linear_5,34,9999,9999,9999,9999,1666941020
18,19,Jits_Linear_5,35,9999,9999,9999,9999,1667490908
18,19,Jits_Linear_5,36,9999,9999,9999,9999,1668040780
18,19,Jits_Linear_5,37,9999,9999,9999,9999,1668590668
18,19,Jits_Linear_5,38,9999,9999,9999,9999,1669140552
18,19,Jits_Linear_5,39,9999,9999,9999,9999,1669690440
18,19,Jits_Linear_5,40,9999,9999,9999,9999,1670250616
18,19,Jits_Linear_5,41,9999,9999,9999,9999,1670810688
18,19,Jits_Linear_5,42,9999,9999,9999,9999,1671370832
18,19,Jits_Linear_5,43,9999,9999,9999,9999,1671930956
18,19,Jits_Linear_5,44,9999,9999,9999,9999,1672491096
18,19,Jits_Linear_5,45,9999,9999,9999,9999,1673070672
18,19,Jits_Linear_5,46,9999,9999,9999,9999,1673641084
18,19,Jits_Linear_5,47,9999,9999,9999,9999,1674210380
18,19,Jits_Linear_5,48,9999,9999,9999,9999,1674780792
18,19,Jits_Linear_5,49,9999,9999,9999,9999,1675350088
18,19,Jits_Linear_5,50,9999,9999,9999,9999,1675930704
18,19,Jits_Linear_5,51,9999,9999,9999,9999,1676510332
18,19,Jits_Linear_5,52,9999,9999,9999,9999,1677090936
18,19,Jits_Linear_5,53,9999,9999,9999,9999,1677670496
18,19,Jits_Linear_5,54,9999,9999,9999,9999,1678251120
18,19,Jits_Linear_5,55,9999,9999,9999,9999,1678850148
18,19,Jits_Linear_5,56,9999,9999,9999,9999,1679441012
18,19,Jits_Linear_5,57,9999,9999,9999,9999,1680030776
18,19,Jits_Linear_5,58,9999,9999,9999,9999,1680620668
18,19,Jits_Linear_5,59,9999,9999,9999,9999,1681210472
18,19,Jits_Linear_5,60,9999,9999,9999,9999,1681810500
18,19,Jits_Linear_5,61,9999,9999,9999,9999,1682410576
18,19,Jits_Linear_5,62,9999,9999,9999,9999,1683010656
18,19,Jits_Linear_5,63,9999,9999,9999,9999,1683610680
18,19,Jits_Linear_5,64,9999,9999,9999,9999,1684210764
18,19,Jits_Linear_5,65,9999,9999,9999,9999,1684821104
18,19,Jits_Linear_5,66,9999,9999,9999,9999,1685430352
18,19,Jits_Linear_5,67,9999,9999,9999,9999,1686040680
18,19,Jits_Linear_5,68,9999,9999,9999,9999,1686650976
18,19,Jits_Linear_5,69,9999,9999,9999,9999,1687260276
18,19,Jits_Linear_5,70,9999,9999,9999,9999,1687880796
18,19,Jits_Linear_5,71,9999,9999,9999,9999,1688500308
18,19,Jits_Linear_5,72,9999,9999,9999,9999,1689120836
18,19,Jits_Linear_5,73,9999,9999,9999,9999,1689740344
18,19,Jits_Linear_5,74,9999,9999,9999,9999,1690360952
18,19,Jits_Linear_5,75,9999,9999,9999,9999,1690990652
18,19,Jits_Linear_5,76,9999,9999,9999,9999,1691620412
18,19,Jits_Linear_5,77,9999,9999,9999,9999,1692250236
18,19,Jits_Linear_5,78,9999,9999,9999,9999,1692880984
18,19,Jits_Linear_5,79,9999,9999,9999,9999,1693510736
18,19,Jits_Linear_5,80,9999,9999,9999,9999,1694150772
18,19,Jits_Linear_5,81,9999,9999,9999,9999,1694790784
18,19,Jits_Linear_5,82,9999,9999,9999,9999,1695430744
18,19,Jits_Linear_5,83,9999,9999,9999,9999,1696070752
18,19,Jits_Linear_5,84,9999,9999,9999,9999,1696710724
18,19,Jits_Linear_5,85,9999,9999,9999,9999,1697360996
18,19,Jits_Linear_5,86,9999,9999,9999,9999,1698010172
18,19,Jits_Linear_5,87,9999,9999,9999,9999,1698660448
18,19,Jits_Linear_5,88,9999,9999,9999,9999,1699310664
18,19,Jits_Linear_5,89,9999,9999,9999,9999,1699960896
18,19,Jits_Linear_5,90,9999,9999,9999,9999,1700620388
18,19,Jits_Linear_5,91,9999,9999,9999,9999,1701280872
18,19,Jits_Linear_5,92,9999,9999,9999,9999,1701940280
18,19,Jits_Linear_5,93,9999,9999,9999,9999,1702600772
18,19,Jits_Linear_5,94,9999,9999,9999,9999,1703260240
18,19,Jits_Linear_5,95,9999,9999,9999,9999,1703930984
18,19,Jits_Linear_5,96,9999,9999,9999,9999,1704600692
18,19,Jits_Linear_5,97,9999,9999,9999,9999,1705270368
18,19,Jits_Linear_5,98,9999,9999,9999,9999,1705941120
18,19,Jits_Linear_5,99,9999,9999,9999,9999,1706610752
18,19,Jits_Linear_5,100,9999,9999,9999,9999,1707290692
18,19,Jits_Linear_5,101,9999,9999,9999,9999,1707970664
18,19,Jits_Linear_5,102,9999,9999,9999,9999,1708650552
18,19,Jits_Linear_5,103,9999,9999,9999,9999,1709330552
18,19,Jits_Linear_5,104,9999,9999,9999,9999,1710010492
18,19,Jits_Linear_5,105,9999,9999,9999,9999,1710700648
18,19,Jits_Linear_5,106,9999,9999,9999,9999,1711390780
18,19,Jits_Linear_5,107,9999,9999,9999,9999,1712081012
18,19,Jits_Linear_5,108,9999,9999,9999,9999,1712770120
18,19,Jits_Linear_5,109,9999,9999,9999,9999,1713460332
18,19,Jits_Linear_5,110,9999,9999,9999,9999,1714160760
18,19,Jits_Linear_5,111,9999,9999,9999,9999,1714860132
18,19,Jits_Linear_5,112,9999,9999,9999,9999,1715560556
18,19,Jits_Linear_5,113,9999,9999,9999,9999,1716260956
18,19,Jits_Linear_5,114,9999,9999,9999,9999,1716960328
18,19,Jits_Linear_5,115,9999,9999,9999,9999,1717671012
18,19,Jits_Linear_5,116,9999,9999,9999,9999,1718380648
18,19,Jits_Linear_5,117,9999,9999,9999,9999,1719090268
18,19,Jits_Linear_5,118,9999,9999,9999,9999,1719800956
18,19,Jits_Linear_5,119,9999,9999,9999,9999,1720510588
18,19,Jits_Linear_5,120,9999,9999,9999,9999,1721230416
18,19,Jits_Linear_5,121,9999,9999,9999,9999,1721950292
18,19,Jits_Linear_5,122,9999,9999,9999,9999,1722670188
18,19,Jits_Linear_5,123,9999,9999,9999,9999,1723391064
18,19,Jits_Linear_5,124,9999,9999,9999,9999,1724110964
18,19,Jits_Linear_5,125,9999,9999,9999,9999,1724841040
18,19,Jits_Linear_5,126,9999,9999,9999,9999,1725570164
18,19,Jits_Linear_5,127,9999,9999,9999,9999,1726300220
18,19,Jits_Linear_5,128,9999,9999,9999,9999,1727030376
18,19,Jits_Linear_5,129,9999,9999,9999,9999,1727760468
18,19,Jits_Linear_5,130,9999,9999,9999,9999,1728500824
18,19,Jits_Linear_5,131,9999,9999,9999,9999,1729240128
18,19,Jits_Linear_5,132,9999,9999,9999,9999,1729980480
18,19,Jits_Linear_5,133,9999,9999,9999,9999,1730720836
18,19,Jits_Linear_5,134,9999,9999,9999,9999,1731460212
18,19,Jits_Linear_5,135,9999,9999,9999,9999,1732210756
18,19,Jits_Linear_5,136,9999,9999,9999,9999,1732960380
18,19,Jits_Linear_5,137,9999,9999,9999,9999,1733710916
18,19,Jits_Linear_5,138,9999,9999,9999,9999,1734460488
18,19,Jits_Linear_5,139,9999,9999,9999,9999,1735211112
18,19,Jits_Linear_5,140,9999,9999,9999,9999,1735980088
18,19,Jits_Linear_5,141,9999,9999,9999,9999,1736740972
18,19,Jits_Linear_5,142,9999,9999,9999,9999,1737500752
18,19,Jits_Linear_5,143,9999,9999,9999,9999,1738260592
18,19,Jits_Linear_5,144,9999,9999,9999,9999,1739020348
18,19,Jits_Linear_5,145,9999,9999,9999,9999,1739790448
18,19,Jits_Linear_5,146,9999,9999,9999,9999,1740560480
18,19,Jits_Linear_5,147,9999,9999,9999,9999,1741330504
18,19,Jits_Linear_5,148,9999,9999,9999,9999,1742100600
18,19,Jits_Linear_5,149,9999,9999,9999,9999,1742870608
18,19,Jits_Linear_5,150,9999,9999,9999,9999,1743650896
18,19,Jits_Linear_5,151,9999,9999,9999,9999,1744430180
18,19,Jits_Linear_5,152,9999,9999,9999,9999,1745210468
18,19,Jits_Linear_5,153,9999,9999,9999,9999,1745990740
18,19,Jits_Linear_5,154,9999,9999,9999,9999,1746771032
18,19,Jits_Linear_5,155,9999,9999,9999,9999,1747560556
18,19,Jits_Linear_5,156,9999,9999,9999,9999,1748351096
18,19,Jits_Linear_5,157,9999,9999,9999,9999,1749140596
18,19,Jits_Linear_5,158,9999,9999,9999,9999,1749931080
18,19,Jits_Linear_5,159,9999,9999,9999,9999,1750730844
18,19,Jits_Linear_5,160,9999,9999,9999,9999,1751530616
18,19,Jits_Linear_5,161,9999,9999,9999,9999,1752330312
18,19,Jits_Linear_5,162,9999,9999,9999,9999,1753131128
18,19,Jits_Linear_5,163,9999,9999,9999,9999,1753941088
18,19,Jits_Linear_5,164,9999,9999,9999,9999,1754740808
18,19,Jits_Linear_5,165,9999,9999,9999,9999,1755550844
18,19,Jits_Linear_5,166,9999,9999,9999,9999,1756360804
18,19,Jits_Linear_5,167,9999,9999,9999,9999,1757170760
18,19,Jits_Linear_5,168,9999,9999,9999,9999,1757980796
18,19,Jits_Linear_5,169,9999,9999,9999,9999,1758790756
19,18,Jits_Linear_8,0,5,56,103,1768573364
19,18,Jits_Linear_8,1,5,63,98,1768576464
19,18,Jits_Linear_8,2,5,80,127,1768579508
19,18,Jits_Linear_8,0,1,48,20,1769035168
19,18,Jits_Linear_8,1,5,56,103,1769392528
19,18,Jits_Linear_8,2,5,63,98,1769395852
19,18,Jits_Linear_8,3,5,80,127,1769398896
19,18,Jits_Linear_8,0,5,80,127,1770153192
19,18,Jits_Linear_8,1,1,48,30,1770194520
19,18,Jits_Linear_8,2,5,63,98,1770242276
19,18,Jits_Linear_8,3,5,56,103,1770252768
19,18,Jits_Linear_8,0,5,56,103,1770992964
19,18,Jits_Linear_8,1,5,63,98,1771003384
19,18,Jits_Linear_8,2,1,48,43,1771012880
19,18,Jits_Linear_8,3,5,80,127,1771093212
19,18,Jits_Linear_8,0,1,48,42,1771726912
19,18,Jits_Linear_8,1,5,63,98,1771782388
19,18,Jits_Linear_8,2,5,80,127,1771813184
19,18,Jits_Linear_8,3,5,56,103,1771843068
19,18,Jits_Linear_8,0,1,48,42,1772534152
19,18,Jits_Linear_8,1,5,56,103,1772603032
19,18,Jits_Linear_8,2,5,80,127,1772703144
19,18,Jits_Linear_8,3,5,63,98,1772753272
19,18,Jits_Linear_8,0,5,56,103,1773412912
19,18,Jits_Linear_8,1,5,80,127,1773463040
19,18,Jits_Linear_8,2,5,63,98,1773502828
19,18,Jits_Linear_8,3,1,48,46,1773532772
19,18,Jits_Linear_8,0,5,80,127,1774253360
19,18,Jits_Linear_8,1,1,48,46,1774271020
19,18,Jits_Linear_8,2,5,63,98,1774283176
19,18,Jits_Linear_8,3,5,56,103,1774353080
19,18,Jits_Linear_8,0,1,48,47,1775076312
19,18,Jits_Linear_8,1,5,63,98,1775093052
19,18,Jits_Linear_8,2,5,56,103,1775122876
19,18,Jits_Linear_8,3,5,80,127,1775183176
19,18,Jits_Linear_8,0,5,56,103,1775842840
19,18,Jits_Linear_8,1,5,80,127,1775845828
19,18,Jits_Linear_8,2,1,48,41,1775862220
19,18,Jits_Linear_8,3,5,63,98,1775962320
19,18,Jits_Linear_8,0,1,48,43,1776660308
19,18,Jits_Linear_8,1,5,56,103,1776723212
19,18,Jits_Linear_8,2,5,80,127,1776763236
19,18,Jits_Linear_8,3,5,63,98,1776772460
19,18,Jits_Linear_8,0,5,56,103,1777483192
19,18,Jits_Linear_8,1,5,80,127,1777502680
19,18,Jits_Linear_8,2,1,48,44,1777507144
19,18,Jits_Linear_8,3,5,63,98,1777582344
19,18,Jits_Linear_8,0,5,80,127,1778272700
19,18,Jits_Linear_8,1,1,48,45,1778358848
19,18,Jits_Linear_8,2,5,56,103,1778372968
19,18,Jits_Linear_8,3,5,63,98,1778383092
19,18,Jits_Linear_8,0,5,63,98,1779043100
19,18,Jits_Linear_8,1,5,80,127,1779103048
19,18,Jits_Linear_8,2,5,56,103,1779113244
19,18,Jits_Linear_8,3,1,48,48,1779145952
19,18,Jits_Linear_8,0,5,56,103,1779842556
19,18,Jits_Linear_8,1,1,48,41,1779891680
19,18,Jits_Linear_8,2,5,63,98,1779912972
19,18,Jits_Linear_8,3,5,80,127,1779916192
19,18,Jits_Linear_8,0,5,63,98,1780672956
19,18,Jits_Linear_8,1,1,48,36,1780685588
19,18,Jits_Linear_8,2,5,56,103,1780723076
19,18,Jits_Linear_8,3,5,80,127,1780726140
19,18,Jits_Linear_8,0,5,56,103,1781422424
19,18,Jits_Linear_8,1,5,80,127,1781425788
19,18,Jits_Linear_8,2,1,48,44,1781492152
19,18,Jits_Linear_8,3,5,63,98,1781512700
19,18,Jits_Linear_8,0,1,48,37,1782217420
19,18,Jits_Linear_8,1,5,63,98,1782252968
19,18,Jits_Linear_8,2,5,56,103,1782343164
19,18,Jits_Linear_8,3,5,80,127,1782373012
19,18,Jits_Linear_8,0,5,56,103,1783033180
19,18,Jits_Linear_8,1,1,48,41,1783040580
19,18,Jits_Linear_8,2,5,63,98,1783132528
19,18,Jits_Linear_8,3,5,80,127,1783163332
19,18,Jits_Linear_8,0,5,63,98,1783843220
19,18,Jits_Linear_8,1,5,56,103,1783853416
19,18,Jits_Linear_8,2,1,48,38,1783866272
19,18,Jits_Linear_8,3,5,80,127,1783942592
19,18,Jits_Linear_8,0,1,48,34,1784611108
19,18,Jits_Linear_8,1,5,63,98,1784642820
19,18,Jits_Linear_8,2,5,56,103,1784722776
19,18,Jits_Linear_8,3,5,80,127,1784725768
19,18,Jits_Linear_8,0,5,80,127,1785383236
19,18,Jits_Linear_8,1,5,63,98,1785402652
19,18,Jits_Linear_8,2,1,48,33,1785431020
19,18,Jits_Linear_8,3,5,56,103,1785463132
19,18,Jits_Linear_8,0,1,48,41,1786157716
19,18,Jits_Linear_8,1,5,56,103,1786202556
19,18,Jits_Linear_8,2,5,63,98,1786222888
19,18,Jits_Linear_8,3,5,80,127,1786226252
19,18,Jits_Linear_8,0,5,63,98,1786923412
19,18,Jits_Linear_8,1,1,48,39,1786933356
19,18,Jits_Linear_8,2,5,80,127,1787003228
19,18,Jits_Linear_8,3,5,56,103,1787012600
19,18,Jits_Linear_8,0,1,48,38,1787708360
19,18,Jits_Linear_8,1,5,63,98,1787723008
19,18,Jits_Linear_8,2,5,56,103,1787742720
19,18,Jits_Linear_8,3,5,80,127,1787792648
19,18,Jits_Linear_8,0,1,48,44,1788502304
19,18,Jits_Linear_8,1,5,80,127,1788503876
19,18,Jits_Linear_8,2,5,63,98,1788543468
19,18,Jits_Linear_8,3,5,56,103,1788562732
19,18,Jits_Linear_8,0,1,48,39,1789249280
19,18,Jits_Linear_8,1,5,56,103,1789313472
19,18,Jits_Linear_8,2,5,63,98,1789322548
19,18,Jits_Linear_8,3,5,80,127,1789342992
19,18,Jits_Linear_8,0,1,48,37,1790009248
19,18,Jits_Linear_8,1,5,56,103,1790012884
19,18,Jits_Linear_8,2,5,63,98,1790103704
19,18,Jits_Linear_8,3,5,80,127,1790163420
19,18,Jits_Linear_8,0,1,48,38,1790734312
19,18,Jits_Linear_8,1,5,80,127,1790812712
19,18,Jits_Linear_8,2,5,56,103,1790822712
19,18,Jits_Linear_8,3,5,63,98,1790893648
19,18,Jits_Linear_8,0,1,48,38,1791514216
19,18,Jits_Linear_8,1,5,63,98,1791613228
19,18,Jits_Linear_8,2,5,80,127,1791703660
19,18,Jits_Linear_8,3,5,56,103,1791712512
19,18,Jits_Linear_8,0,5,63,98,1792312668
19,18,Jits_Linear_8,1,1,48,42,1792318924
19,18,Jits_Linear_8,2,5,80,127,1792362960
19,18,Jits_Linear_8,3,5,56,103,1792423484
19,18,Jits_Linear_8,0,1,48,29,1793091260
19,18,Jits_Linear_8,1,5,56,103,1793103268
19,18,Jits_Linear_8,2,5,80,127,1793153648
19,18,Jits_Linear_8,3,5,63,98,1793172912
19,18,Jits_Linear_8,0,5,56,103,1793833572
19,18,Jits_Linear_8,1,1,48,40,1793847556
19,18,Jits_Linear_8,2,5,80,127,1793892860
19,18,Jits_Linear_8,3,5,63,98,1793963572
19,18,Jits_Linear_8,0,5,56,103,1794593184
19,18,Jits_Linear_8,1,1,48,39,1794615780
19,18,Jits_Linear_8,2,5,80,127,1794622776
19,18,Jits_Linear_8,3,5,63,98,1794652752
19,18,Jits_Linear_8,0,1,48,41,1795329220
19,18,Jits_Linear_8,1,5,56,103,1795392864
19,18,Jits_Linear_8,2,5,80,127,1795413548
19,18,Jits_Linear_8,3,5,63,98,1795472676
19,18,Jits_Linear_8,0,1,48,43,1796114524
19,18,Jits_Linear_8,1,5,80,127,1796232640
19,18,Jits_Linear_8,2,5,56,103,1796242984
19,18,Jits_Linear_8,3,5,63,98,1796253108
19,18,Jits_Linear_8,0,5,56,103,1796943240
19,18,Jits_Linear_8,1,5,80,127,1796983132
19,18,Jits_Linear_8,2,1,48,46,1797001840
19,18,Jits_Linear_8,3,5,63,98,1797012728
19,18,Jits_Linear_8,0,5,56,103,1797663076
19,18,Jits_Linear_8,1,5,63,98,1797692752
19,18,Jits_Linear_8,2,5,80,127,1797732644
19,18,Jits_Linear_8,3,1,48,49,1797756212
19,18,Jits_Linear_8,0,5,80,127,1798362452
19,18,Jits_Linear_8,1,5,63,98,1798412732
19,18,Jits_Linear_8,2,5,56,103,1798433116
19,18,Jits_Linear_8,3,1,48,40,1798458928
19,18,Jits_Linear_8,0,5,56,103,1799142740
19,18,Jits_Linear_8,1,1,48,37,1799152684
19,18,Jits_Linear_8,2,5,80,127,1799213464
19,18,Jits_Linear_8,3,5,63,98,1799272744
19,18,Jits_Linear_8,0,1,48,41,1799877364
19,18,Jits_Linear_8,1,5,80,127,1799883316
19,18,Jits_Linear_8,2,5,63,98,1799973528
19,18,Jits_Linear_8,3,5,56,103,1799992628
19,18,Jits_Linear_8,0,5,63,98,1800642852
19,18,Jits_Linear_8,1,5,56,103,1800663536
19,18,Jits_Linear_8,2,1,48,37,1800670712
19,18,Jits_Linear_8,3,5,80,127,1800703468
19,18,Jits_Linear_8,0,5,80,127,1801343480
19,18,Jits_Linear_8,1,5,63,98,1801362748
19,18,Jits_Linear_8,2,1,48,36,1801393060
19,18,Jits_Linear_8,3,5,56,103,1801442608
19,18,Jits_Linear_8,0,1,48,40,1802049832
19,18,Jits_Linear_8,1,5,63,98,1802072496
19,18,Jits_Linear_8,2,5,56,103,1802183016
19,18,Jits_Linear_8,3,5,80,127,1802186232
19,18,Jits_Linear_8,0,1,48,40,1802818860
19,18,Jits_Linear_8,1,5,63,98,1802833428
19,18,Jits_Linear_8,2,5,56,103,1802842500
19,18,Jits_Linear_8,3,5,80,127,1802845644
19,18,Jits_Linear_8,0,5,56,103,1803553380
19,18,Jits_Linear_8,1,1,48,45,1803560992
19,18,Jits_Linear_8,2,5,80,127,1803672896
19,18,Jits_Linear_8,3,5,63,98,1803712832
19,18,Jits_Linear_8,0,5,56,103,1804302808
19,18,Jits_Linear_8,1,1,48,38,1804381252
19,18,Jits_Linear_8,2,5,80,127,1804382748
19,18,Jits_Linear_8,3,5,63,98,1804403160
19,18,Jits_Linear_8,0,5,56,103,1805032752
19,18,Jits_Linear_8,1,1,48,33,1805105176
19,18,Jits_Linear_8,2,5,63,98,1805143252
19,18,Jits_Linear_8,3,5,80,127,1805146624
19,18,Jits_Linear_8,0,5,56,103,1805792584
19,18,Jits_Linear_8,1,1,48,37,1805819520
19,18,Jits_Linear_8,2,5,80,127,1805823224
19,18,Jits_Linear_8,3,5,63,98,1805842712
19,18,Jits_Linear_8,0,5,63,98,1806503344
19,18,Jits_Linear_8,1,1,48,38,1806508260
19,18,Jits_Linear_8,2,5,56,103,1806512488
19,18,Jits_Linear_8,3,5,80,127,1806522908
19,18,Jits_Linear_8,0,1,48,45,1807164732
19,18,Jits_Linear_8,1,5,80,127,1807212884
19,18,Jits_Linear_8,2,5,56,103,1807263072
19,18,Jits_Linear_8,3,5,63,98,1807303232
19,18,Jits_Linear_8,0,5,80,127,1807953280
19,18,Jits_Linear_8,1,5,63,98,1807972644
19,18,Jits_Linear_8,2,1,48,38,1807994196
19,18,Jits_Linear_8,3,5,56,103,1808023064
19,18,Jits_Linear_8,0,5,80,127,1808683596
19,18,Jits_Linear_8,1,1,48,42,1808701564
19,18,Jits_Linear_8,2,5,56,103,1808713268
19,18,Jits_Linear_8,3,5,63,98,1808782676
19,18,Jits_Linear_8,0,5,56,103,1809453332
19,18,Jits_Linear_8,1,1,48,42,1809455272
19,18,Jits_Linear_8,2,5,80,127,1809462700
19,18,Jits_Linear_8,3,5,63,98,1809502564
19,18,Jits_Linear_8,0,5,56,103,1810083332
19,18,Jits_Linear_8,1,5,63,98,1810102596
19,18,Jits_Linear_8,2,1,48,40,1810159652
19,18,Jits_Linear_8,3,5,80,127,1810173392
19,18,Jits_Linear_8,0,1,48,36,1810815336
19,18,Jits_Linear_8,1,5,63,98,1810822560
19,18,Jits_Linear_8,2,5,80,127,1810883024
19,18,Jits_Linear_8,3,5,56,103,1810903408
19,18,Jits_Linear_8,0,5,80,127,1811523024
19,18,Jits_Linear_8,1,1,48,39,1811526140
19,18,Jits_Linear_8,2,5,56,103,1811552620
19,18,Jits_Linear_8,3,5,63,98,1811583440
19,18,Jits_Linear_8,0,5,56,103,1812232512
19,18,Jits_Linear_8,1,1,48,46,1812292600
19,18,Jits_Linear_8,2,5,63,98,1812294092
19,18,Jits_Linear_8,3,5,80,127,1812353460
19,18,Jits_Linear_8,0,5,80,127,1812962604
19,18,Jits_Linear_8,1,5,56,103,1812983364
19,18,Jits_Linear_8,2,1,48,37,1812993380
19,18,Jits_Linear_8,3,5,63,98,1813052668
19,18,Jits_Linear_8,0,1,48,43,1813673516
19,18,Jits_Linear_8,1,5,80,127,1813675004
19,18,Jits_Linear_8,2,5,63,98,1813692996
19,18,Jits_Linear_8,3,5,56,103,1813722528
19,18,Jits_Linear_8,0,5,80,127,1814362444
19,18,Jits_Linear_8,1,1,48,48,1814370048
19,18,Jits_Linear_8,2,5,63,98,1814382996
19,18,Jits_Linear_8,3,5,56,103,1814443312
19,18,Jits_Linear_8,0,5,80,127,1815063092
19,18,Jits_Linear_8,1,1,48,45,1815076548
19,18,Jits_Linear_8,2,5,56,103,1815163288
19,18,Jits_Linear_8,3,5,63,98,1815193096
19,18,Jits_Linear_8,0,5,63,98,1815753256
19,18,Jits_Linear_8,1,5,80,127,1815803236
19,18,Jits_Linear_8,2,1,48,44,1815822948
19,18,Jits_Linear_8,3,5,56,103,1815824208
19,18,Jits_Linear_8,0,1,48,45,1816471692
19,18,Jits_Linear_8,1,5,80,127,1816493288
19,18,Jits_Linear_8,2,5,56,103,1816523116
19,18,Jits_Linear_8,3,5,63,98,1816526104
19,18,Jits_Linear_8,0,1,48,45,1817172592
19,18,Jits_Linear_8,1,5,63,98,1817222540
19,18,Jits_Linear_8,2,5,56,103,1817262556
19,18,Jits_Linear_8,3,5,80,127,1817282924
19,18,Jits_Linear_8,0,5,80,127,1817862476
19,18,Jits_Linear_8,1,1,48,46,1817884780
19,18,Jits_Linear_8,2,5,63,98,1817943392
19,18,Jits_Linear_8,3,5,56,103,1817983352
19,18,Jits_Linear_8,0,5,63,98,1818573244
19,18,Jits_Linear_8,1,1,48,38,1818622076
19,18,Jits_Linear_8,2,5,80,127,1818653184
19,18,Jits_Linear_8,3,5,56,103,1818672372
19,18,Jits_Linear_8,0,5,56,103,1819303332
19,18,Jits_Linear_8,1,1,48,46,1819306076
19,18,Jits_Linear_8,2,5,63,98,1819312476
19,18,Jits_Linear_8,3,5,80,127,1819352488
19,18,Jits_Linear_8,0,5,56,103,1819912556
19,18,Jits_Linear_8,1,5,80,127,1819915620
19,18,Jits_Linear_8,2,1,48,49,1819999944
19,18,Jits_Linear_8,3,5,63,98,1820052824
19,18,Jits_Linear_8,0,5,56,103,1820592444
19,18,Jits_Linear_8,1,1,48,50,1820622164
19,18,Jits_Linear_8,2,5,63,98,1820683020
19,18,Jits_Linear_8,3,5,80,127,1820753212
19,18,Jits_Linear_8,0,1,48,46,1821279468
19,18,Jits_Linear_8,1,5,63,98,1821353324
19,18,Jits_Linear_8,2,5,80,127,1821356688
19,18,Jits_Linear_8,3,5,56,103,1821412728
19,18,Jits_Linear_8,0,1,48,44,1821955608
19,18,Jits_Linear_8,1,5,80,127,1822073204
19,18,Jits_Linear_8,2,5,56,103,1822092764
19,18,Jits_Linear_8,3,5,63,98,1822102812
19,18,Jits_Linear_8,0,1,48,39,1822650720
19,18,Jits_Linear_8,1,5,56,103,1822662952
19,18,Jits_Linear_8,2,5,63,98,1822673296
19,18,Jits_Linear_8,3,5,80,127,1822742828
19,18,Jits_Linear_8,0,1,48,42,1823331800
19,18,Jits_Linear_8,1,5,80,127,1823342912
19,18,Jits_Linear_8,2,5,56,103,1823393040
19,18,Jits_Linear_8,3,5,63,98,1823443224
19,18,Jits_Linear_8,0,1,48,43,1823963556
19,18,Jits_Linear_8,1,5,56,103,1824102724
19,18,Jits_Linear_8,2,5,63,98,1824112996
19,18,Jits_Linear_8,3,5,80,127,1824152860
19,18,Jits_Linear_8,0,1,48,37,1824644348
19,18,Jits_Linear_8,1,5,56,103,1824723192
19,18,Jits_Linear_8,2,5,63,98,1824763116
19,18,Jits_Linear_8,3,5,80,127,1824813392
19,18,Jits_Linear_8,0,1,48,37,1825317908
19,18,Jits_Linear_8,1,5,80,127,1825353080
19,18,Jits_Linear_8,2,5,56,103,1825403308
19,18,Jits_Linear_8,3,5,63,98,1825422704
19,18,Jits_Linear_8,0,1,48,36,1825932236
19,18,Jits_Linear_8,1,5,80,127,1826032948
19,18,Jits_Linear_8,2,5,63,98,1826093416
19,18,Jits_Linear_8,3,5,56,103,1826173232
19,18,Jits_Linear_8,0,1,48,29,1826479844
19,18,Jits_Linear_8,1,5,80,127,1826683384
19,18,Jits_Linear_8,2,5,56,103,1826723324
19,18,Jits_Linear_8,3,5,63,98,1826742664
19,18,Jits_Linear_8,0,1,48,40,1827218916
19,18,Jits_Linear_8,1,5,56,103,1827403100
19,18,Jits_Linear_8,2,5,80,127,1827413448
19,18,Jits_Linear_8,3,5,63,98,1827453336
19,18,Jits_Linear_8,0,1,48,43,1827997252
19,18,Jits_Linear_8,1,5,56,103,1828133332
19,18,Jits_Linear_8,2,5,63,98,1828173124
19,18,Jits_Linear_8,3,5,80,127,1828176784
19,18,Jits_Linear_8,0,5,63,98,1828683000
19,18,Jits_Linear_8,1,5,80,127,1828723040
19,18,Jits_Linear_8,2,1,48,43,1828752464
19,18,Jits_Linear_8,3,5,56,103,1828792788
19,18,Jits_Linear_8,0,5,63,98,1829333360
19,18,Jits_Linear_8,1,1,48,46,1829352672
19,18,Jits_Linear_8,2,5,56,103,1829413228
19,18,Jits_Linear_8,3,5,80,127,1829472628
19,18,Jits_Linear_8,0,1,48,48,1829997996
19,18,Jits_Linear_8,1,5,80,127,1830003124
19,18,Jits_Linear_8,2,5,63,98,1830053328
19,18,Jits_Linear_8,3,5,56,103,1830083004
19,18,Jits_Linear_8,0,5,56,103,1830653244
19,18,Jits_Linear_8,1,1,48,43,1830666476
19,18,Jits_Linear_8,2,5,63,98,1830702320
19,18,Jits_Linear_8,3,5,80,127,1830712960
19,18,Jits_Linear_8,0,1,48,44,1831291896
19,18,Jits_Linear_8,1,5,56,103,1831323092
19,18,Jits_Linear_8,2,5,63,98,1831432620
19,18,Jits_Linear_8,3,5,80,127,1831453076
19,18,Jits_Linear_8,0,5,63,98,1831973216
19,18,Jits_Linear_8,1,1,48,44,1831985256
19,18,Jits_Linear_8,2,5,80,127,1832023268
19,18,Jits_Linear_8,3,5,56,103,1832112660
19,18,Jits_Linear_8,0,5,63,98,1832613244
19,18,Jits_Linear_8,1,1,48,44,1832625876
19,18,Jits_Linear_8,2,5,80,127,1832642992
19,18,Jits_Linear_8,3,5,56,103,1832733036
19,18,Jits_Linear_8,0,1,48,41,1833248864
19,18,Jits_Linear_8,1,5,63,98,1833262604
19,18,Jits_Linear_8,2,5,56,103,1833272876
19,18,Jits_Linear_8,3,5,80,127,1833372908
19,18,Jits_Linear_8,0,1,48,38,1833875172
19,18,Jits_Linear_8,1,5,63,98,1834012976
19,18,Jits_Linear_8,2,5,80,127,1834042728
19,18,Jits_Linear_8,3,5,56,103,1834072552
19,18,Jits_Linear_8,0,1,48,32,1834597404
19,18,Jits_Linear_8,1,5,80,127,1834672584
19,18,Jits_Linear_8,2,5,63,98,1834682780
19,18,Jits_Linear_8,3,5,56,103,1834712588
19,18,Jits_Linear_8,0,5,80,127,1835213028
19,18,Jits_Linear_8,1,5,63,98,1835232592
19,18,Jits_Linear_8,2,5,56,103,1835282868
19,18,Jits_Linear_8,3,1,48,36,1835308308
19,18,Jits_Linear_8,0,5,63,98,1835882808
19,18,Jits_Linear_8,1,1,48,38,1835884368
19,18,Jits_Linear_8,2,5,80,127,1835943340
19,18,Jits_Linear_8,3,5,56,103,1835962756
19,18,Jits_Linear_8,0,5,63,98,1836482876
19,18,Jits_Linear_8,1,1,48,35,1836504800
19,18,Jits_Linear_8,2,5,56,103,1836533220
19,18,Jits_Linear_8,3,5,80,127,1836543640
19,18,Jits_Linear_8,0,1,48,38,1837113920
19,18,Jits_Linear_8,1,5,56,103,1837152608
19,18,Jits_Linear_8,2,5,80,127,1837162756
19,18,Jits_Linear_8,3,5,63,98,1837263136
19,18,Jits_Linear_8,0,5,80,127,1837752708
19,18,Jits_Linear_8,1,1,48,39,1837757844
19,18,Jits_Linear_8,2,5,63,98,1837763044
19,18,Jits_Linear_8,3,5,56,103,1837912720
19,18,Jits_Linear_8,0,5,63,98,1838392720
19,18,Jits_Linear_8,1,1,48,40,1838397564
19,18,Jits_Linear_8,2,5,80,127,1838432656
19,18,Jits_Linear_8,3,5,56,103,1838512608
19,18,Jits_Linear_8,0,5,56,103,1839013264
19,18,Jits_Linear_8,1,1,48,38,1839077364
19,18,Jits_Linear_8,2,5,80,127,1839112536
19,18,Jits_Linear_8,3,5,63,98,1839132996
19,18,Jits_Linear_8,0,5,80,127,1839703484
19,18,Jits_Linear_8,1,1,48,34,1839704820
19,18,Jits_Linear_8,2,5,56,103,1839712852
19,18,Jits_Linear_8,3,5,63,98,1839803288
19,18,Jits_Linear_8,0,5,56,103,1840333340
19,18,Jits_Linear_8,1,1,48,35,1840341188
19,18,Jits_Linear_8,2,5,63,98,1840352596
19,18,Jits_Linear_8,3,5,80,127,1840432616
19,18,Jits_Linear_8,0,5,63,98,1840902632
19,18,Jits_Linear_8,1,1,48,39,1840953104
19,18,Jits_Linear_8,2,5,56,103,1840992688
19,18,Jits_Linear_8,3,5,80,127,1840995852
19,18,Jits_Linear_8,0,5,56,103,1841552620
19,18,Jits_Linear_8,1,1,48,36,1841603840
19,18,Jits_Linear_8,2,5,80,127,1841613300
19,18,Jits_Linear_8,3,5,63,98,1841623720
19,18,Jits_Linear_8,0,1,48,37,1842184960
19,18,Jits_Linear_8,1,5,80,127,1842222672
19,18,Jits_Linear_8,2,5,56,103,1842232644
19,18,Jits_Linear_8,3,5,63,98,1842235788
19,18,Jits_Linear_8,0,5,56,103,1842802984
19,18,Jits_Linear_8,1,5,80,127,1842813700
19,18,Jits_Linear_8,2,1,48,38,1842818468
19,18,Jits_Linear_8,3,5,63,98,1842832732
19,18,Jits_Linear_8,0,5,63,98,1843393024
19,18,Jits_Linear_8,1,1,48,40,1843439068
19,18,Jits_Linear_8,2,5,80,127,1843453408
19,18,Jits_Linear_8,3,5,56,103,1843502416
19,18,Jits_Linear_8,0,1,48,42,1844024152
19,18,Jits_Linear_8,1,5,63,98,1844093360
19,18,Jits_Linear_8,2,5,56,103,1844102656
19,18,Jits_Linear_8,3,5,80,127,1844152768
19,18,Jits_Linear_8,0,5,63,98,1844603452
19,18,Jits_Linear_8,1,5,80,127,1844622568
19,18,Jits_Linear_8,2,1,48,44,1844624580
19,18,Jits_Linear_8,3,5,56,103,1844633132
19,18,Jits_Linear_8,0,5,63,98,1845212424
19,18,Jits_Linear_8,1,5,80,127,1845215720
19,18,Jits_Linear_8,2,1,48,42,1845219812
19,18,Jits_Linear_8,3,5,56,103,1845252436
19,18,Jits_Linear_8,0,1,48,43,1845789652
19,18,Jits_Linear_8,1,5,63,98,1845892348
19,18,Jits_Linear_8,2,5,80,127,1845923368
19,18,Jits_Linear_8,3,5,56,103,1845933712
19,18,Jits_Linear_8,0,1,48,36,1846415304
19,18,Jits_Linear_8,1,5,56,103,1846452720
19,18,Jits_Linear_8,2,5,80,127,1846483296
19,18,Jits_Linear_8,3,5,63,98,1846512880
19,18,Jits_Linear_8,0,1,48,36,1847046012
19,18,Jits_Linear_8,1,5,63,98,1847152896
19,18,Jits_Linear_8,2,5,56,103,1847192908
19,18,Jits_Linear_8,3,5,80,127,1847195824
19,18,Jits_Linear_8,0,5,80,127,1847652664
19,18,Jits_Linear_8,1,1,48,36,1847698560
19,18,Jits_Linear_8,2,5,56,103,1847732604
19,18,Jits_Linear_8,3,5,63,98,1847782732
19,18,Jits_Linear_8,0,5,80,127,1848233416
19,18,Jits_Linear_8,1,5,56,103,1848252756
19,18,Jits_Linear_8,2,5,63,98,1848342960
19,18,Jits_Linear_8,3,1,48,38,1848361444
19,18,Jits_Linear_8,0,5,80,127,1848873504
19,18,Jits_Linear_8,1,5,63,98,1848913292
19,18,Jits_Linear_8,2,5,56,103,1848953404
19,18,Jits_Linear_8,3,1,48,33,1848987764
19,18,Jits_Linear_8,0,5,63,98,1849442744
19,18,Jits_Linear_8,1,5,80,127,1849503064
19,18,Jits_Linear_8,2,5,56,103,1849532664
19,18,Jits_Linear_8,3,1,48,35,1849583504
19,18,Jits_Linear_8,0,5,56,103,1850042812
19,18,Jits_Linear_8,1,5,80,127,1850072488
19,18,Jits_Linear_8,2,5,63,98,1850162472
19,18,Jits_Linear_8,3,1,48,30,1850208136
19,18,Jits_Linear_8,0,5,56,103,1850642668
19,18,Jits_Linear_8,1,5,80,127,1850753580
19,18,Jits_Linear_8,2,5,63,98,1850783108
19,18,Jits_Linear_8,3,1,48,35,1850863092
19,18,Jits_Linear_8,0,5,56,103,1851282720
19,18,Jits_Linear_8,1,5,63,98,1851343336
19,18,Jits_Linear_8,2,5,80,127,1851372860
19,18,Jits_Linear_8,3,1,48,34,1851503736
19,18,Jits_Linear_8,0,5,56,103,1851842800
19,18,Jits_Linear_8,1,5,63,98,1851912560
19,18,Jits_Linear_8,2,5,80,127,1851933168
19,18,Jits_Linear_8,3,1,48,34,1852120312
19,18,Jits_Linear_8,0,5,80,127,1852403176
19,18,Jits_Linear_8,1,5,63,98,1852422512
19,18,Jits_Linear_8,2,5,56,103,1852472640
19,18,Jits_Linear_8,0,1,48,25,1852851320
19,18,Jits_Linear_8,1,5,63,98,1853003340
19,18,Jits_Linear_8,2,5,80,127,1853013464
19,18,Jits_Linear_8,3,5,56,103,1853062496
19,18,Jits_Linear_8,0,5,63,98,1853582780
19,18,Jits_Linear_8,1,1,48,27,1853596984
19,18,Jits_Linear_8,2,5,80,127,1853653280
19,18,Jits_Linear_8,3,5,56,103,1853672916
19,18,Jits_Linear_8,0,5,63,98,1854193112
19,18,Jits_Linear_8,1,5,80,127,1854196400
19,18,Jits_Linear_8,2,5,56,103,1854262572
19,18,Jits_Linear_8,3,1,48,30,1854323028
19,18,Jits_Linear_8,0,5,80,127,1854722452
19,18,Jits_Linear_8,1,5,56,103,1854742836
19,18,Jits_Linear_8,2,5,63,98,1854753332
19,18,Jits_Linear_8,3,1,48,32,1854918508
19,18,Jits_Linear_8,0,5,56,103,1855322532
19,18,Jits_Linear_8,1,5,63,98,1855412540
19,18,Jits_Linear_8,2,5,80,127,1855415680
19,18,Jits_Linear_8,3,1,48,34,1855478284
19,18,Jits_Linear_8,0,5,80,127,1855873484
19,18,Jits_Linear_8,1,5,56,103,1855882484
19,18,Jits_Linear_8,2,5,63,98,1855903240
19,18,Jits_Linear_8,3,1,48,29,1855983976
19,18,Jits_Linear_8,0,5,63,98,1856442696
19,18,Jits_Linear_8,1,1,48,34,1856487388
19,18,Jits_Linear_8,2,5,80,127,1856503080
19,18,Jits_Linear_8,3,5,56,103,1856513500
19,18,Jits_Linear_8,0,1,48,34,1857047668
19,18,Jits_Linear_8,1,5,63,98,1857082688
19,18,Jits_Linear_8,2,5,80,127,1857112364
19,18,Jits_Linear_8,3,5,56,103,1857153360
19,18,Jits_Linear_8,0,5,56,103,1857643076
19,18,Jits_Linear_8,1,5,80,127,1857653276
19,18,Jits_Linear_8,2,1,48,36,1857691784
19,18,Jits_Linear_8,3,5,63,98,1857693356
19,18,Jits_Linear_8,0,5,80,127,1858173188
19,18,Jits_Linear_8,1,1,48,35,1858223288
19,18,Jits_Linear_8,2,5,56,103,1858253128
19,18,Jits_Linear_8,3,5,63,98,1858263548
19,18,Jits_Linear_8,0,5,80,127,1858782640
19,18,Jits_Linear_8,1,1,48,37,1858838124
19,18,Jits_Linear_8,2,5,56,103,1858862432
19,18,Jits_Linear_8,3,5,63,98,1858872552
19,18,Jits_Linear_8,0,5,80,127,1859302864
19,18,Jits_Linear_8,1,5,56,103,1859352992
19,18,Jits_Linear_8,2,5,63,98,1859403268
19,18,Jits_Linear_8,3,1,48,39,1859438624
19,18,Jits_Linear_8,0,5,56,103,1859923252
19,18,Jits_Linear_8,1,5,63,98,1859926540
19,18,Jits_Linear_8,2,1,48,37,1859950284
19,18,Jits_Linear_8,3,5,80,127,1859972572
19,18,Jits_Linear_8,0,5,56,103,1860502972
19,18,Jits_Linear_8,1,1,48,37,1860525496
19,18,Jits_Linear_8,2,5,63,98,1860532572
19,18,Jits_Linear_8,3,5,80,127,1860542840
19,18,Jits_Linear_8,0,5,63,98,1860973076
19,18,Jits_Linear_8,1,5,56,103,1861042536
19,18,Jits_Linear_8,2,1,48,37,1861093036
19,18,Jits_Linear_8,3,5,80,127,1861094224
19,18,Jits_Linear_8,0,5,63,98,1861562884
19,18,Jits_Linear_8,1,5,56,103,1861573080
19,18,Jits_Linear_8,2,5,80,127,1861576072
19,18,Jits_Linear_8,3,1,48,44,1861632912
19,18,Jits_Linear_8,0,5,80,127,1862062476
19,18,Jits_Linear_8,1,5,56,103,1862122944
19,18,Jits_Linear_8,2,1,48,46,1862152588
19,18,Jits_Linear_8,3,5,63,98,1862213140
19,18,Jits_Linear_8,0,5,80,127,1862613336
19,18,Jits_Linear_8,1,1,48,33,1862711324
19,18,Jits_Linear_8,2,5,56,103,1862712828
19,18,Jits_Linear_8,3,5,63,98,1862752644
19,18,Jits_Linear_8,0,5,56,103,1863213496
19,18,Jits_Linear_8,1,5,63,98,1863232984
19,18,Jits_Linear_8,2,5,80,127,1863273096
19,18,Jits_Linear_8,3,1,48,38,1863280948
19,18,Jits_Linear_8,0,5,63,98,1863732516
19,18,Jits_Linear_8,1,5,56,103,1863753124
19,18,Jits_Linear_8,2,1,48,36,1863799264
19,18,Jits_Linear_8,3,5,80,127,1863853388
19,18,Jits_Linear_8,0,5,63,98,1864263056
19,18,Jits_Linear_8,1,1,48,35,1864293552
19,18,Jits_Linear_8,2,5,80,127,1864372468
19,18,Jits_Linear_8,3,5,56,103,1864403176
19,18,Jits_Linear_8,0,5,56,103,1864823224
19,18,Jits_Linear_8,1,5,63,98,1864853048
19,18,Jits_Linear_8,2,1,48,33,1864871984
19,18,Jits_Linear_8,3,5,80,127,1864903168
19,18,Jits_Linear_8,0,5,63,98,1865333100
19,18,Jits_Linear_8,1,5,56,103,1865362928
19,18,Jits_Linear_8,2,1,48,33,1865395416
19,18,Jits_Linear_8,3,5,80,127,1865413120
19,18,Jits_Linear_8,0,1,48,42,1865886524
19,18,Jits_Linear_8,1,5,56,103,1865902516
19,18,Jits_Linear_8,2,5,63,98,1865923124
19,18,Jits_Linear_8,3,5,80,127,1866002908
19,18,Jits_Linear_8,0,1,48,37,1866407776
19,18,Jits_Linear_8,1,5,63,98,1866413356
19,18,Jits_Linear_8,2,5,56,103,1866473000
19,18,Jits_Linear_8,3,5,80,127,1866502512
19,18,Jits_Linear_8,0,1,48,42,1866922372
19,18,Jits_Linear_8,1,5,56,103,1866992972
19,18,Jits_Linear_8,2,5,80,127,1867053352
19,18,Jits_Linear_8,3,5,63,98,1867093288
19,18,Jits_Linear_8,0,1,48,37,1867477708
19,18,Jits_Linear_8,1,5,63,98,1867502992
19,18,Jits_Linear_8,2,5,56,103,1867563460
19,18,Jits_Linear_8,3,5,80,127,1867633000
19,18,Jits_Linear_8,0,1,48,40,1868045796
19,18,Jits_Linear_8,1,5,56,103,1868113332
19,18,Jits_Linear_8,2,5,63,98,1868122404
19,18,Jits_Linear_8,3,5,80,127,1868126140
19,18,Jits_Linear_8,0,5,63,98,1868583168
19,18,Jits_Linear_8,1,1,48,36,1868603744
19,18,Jits_Linear_8,2,5,56,103,1868642752
19,18,Jits_Linear_8,3,5,80,127,1868645740
19,18,Jits_Linear_8,0,5,63,98,1869093320
19,18,Jits_Linear_8,1,5,80,127,1869122924
19,18,Jits_Linear_8,2,1,48,37,1869125668
19,18,Jits_Linear_8,3,5,56,103,1869143524
19,18,Jits_Linear_8,0,1,48,38,1869612224
19,18,Jits_Linear_8,1,5,56,103,1869622512
19,18,Jits_Linear_8,2,5,63,98,1869673036
19,18,Jits_Linear_8,3,5,80,127,1869752740
19,18,Jits_Linear_8,0,5,80,127,1870123392
19,18,Jits_Linear_8,1,1,48,35,1870125984
19,18,Jits_Linear_8,2,5,63,98,1870163400
19,18,Jits_Linear_8,3,5,56,103,1870182836
19,18,Jits_Linear_8,0,1,48,35,1870646640
19,18,Jits_Linear_8,1,5,56,103,1870713152
19,18,Jits_Linear_8,2,5,80,127,1870722376
19,18,Jits_Linear_8,3,5,63,98,1870743044
19,18,Jits_Linear_8,0,1,48,32,1871187672
19,18,Jits_Linear_8,1,5,56,103,1871212908
19,18,Jits_Linear_8,2,5,63,98,1871263036
19,18,Jits_Linear_8,3,5,80,127,1871292996
19,18,Jits_Linear_8,0,5,56,103,1871682900
19,18,Jits_Linear_8,1,5,63,98,1871693172
19,18,Jits_Linear_8,2,1,48,28,1871715720
19,18,Jits_Linear_8,3,5,80,127,1871743464
19,18,Jits_Linear_8,0,1,48,31,1872187644
19,18,Jits_Linear_8,1,5,56,103,1872192916
19,18,Jits_Linear_8,2,5,80,127,1872195904
19,18,Jits_Linear_8,3,5,63,98,1872352880
19,18,Jits_Linear_8,0,1,48,33,1872678388
19,18,Jits_Linear_8,1,5,63,98,1872723304
19,18,Jits_Linear_8,2,5,56,103,1872792920
19,18,Jits_Linear_8,3,5,80,127,1872832860
19,18,Jits_Linear_8,0,1,48,26,1873230660
19,18,Jits_Linear_8,1,5,63,98,1873273132
19,18,Jits_Linear_8,2,5,56,103,1873363172
19,18,Jits_Linear_8,3,5,80,127,1873366392
19,18,Jits_Linear_8,0,5,56,103,1873762776
19,18,Jits_Linear_8,1,1,48,19,1873836912
19,18,Jits_Linear_8,2,5,63,98,1873853052
19,18,Jits_Linear_8,3,5,80,127,1873862952
19,18,Jits_Linear_8,0,5,56,103,1874242892
19,18,Jits_Linear_8,1,5,63,98,1874293048
19,18,Jits_Linear_8,2,5,80,127,1874322796
19,18,Jits_Linear_8,3,1,48,21,1874380664
19,18,Jits_Linear_8,0,1,48,34,1874792776
19,18,Jits_Linear_8,1,5,63,98,1874822472
19,18,Jits_Linear_8,2,5,80,127,1874832816
19,18,Jits_Linear_8,3,5,56,103,1874893264
19,18,Jits_Linear_8,0,5,63,98,1875243464
19,18,Jits_Linear_8,1,1,48,33,1875301704
19,18,Jits_Linear_8,2,5,80,127,1875303200
19,18,Jits_Linear_8,3,5,56,103,1875342840
19,18,Jits_Linear_8,0,1,48,35,1875789476
19,18,Jits_Linear_8,1,5,56,103,1875842436
19,18,Jits_Linear_8,2,5,80,127,1875862968
19,18,Jits_Linear_8,3,5,63,98,1875883264
19,18,Jits_Linear_8,0,5,63,98,1876263200
19,18,Jits_Linear_8,1,5,56,103,1876282836
19,18,Jits_Linear_8,2,1,48,39,1876301396
19,18,Jits_Linear_8,3,5,80,127,1876322868
19,18,Jits_Linear_8,0,5,63,98,1876773140
19,18,Jits_Linear_8,1,1,48,35,1876774476
19,18,Jits_Linear_8,2,5,80,127,1876802888
19,18,Jits_Linear_8,3,5,56,103,1876823272
19,18,Jits_Linear_8,0,5,80,127,1877243668
19,18,Jits_Linear_8,1,1,48,40,1877293576
19,18,Jits_Linear_8,2,5,56,103,1877294988
19,18,Jits_Linear_8,3,5,63,98,1877352792
19,18,Jits_Linear_8,0,5,63,98,1877722616
19,18,Jits_Linear_8,1,1,48,44,1877774512
19,18,Jits_Linear_8,2,5,56,103,1877843460
19,18,Jits_Linear_8,3,5,80,127,1877872996
19,18,Jits_Linear_8,0,5,80,127,1878253016
19,18,Jits_Linear_8,1,1,48,40,1878268788
19,18,Jits_Linear_8,2,5,63,98,1878273320
19,18,Jits_Linear_8,3,5,56,103,1878343076
19,18,Jits_Linear_8,0,1,48,39,1878751784
19,18,Jits_Linear_8,1,5,63,98,1878762820
19,18,Jits_Linear_8,2,5,56,103,1878773164
19,18,Jits_Linear_8,3,5,80,127,1878852944
19,18,Jits_Linear_8,0,1,48,33,1879244120
19,18,Jits_Linear_8,1,5,56,103,1879312852
19,18,Jits_Linear_8,2,5,80,127,1879342436
19,18,Jits_Linear_8,3,5,63,98,1879352632
19,18,Jits_Linear_8,0,9999,9999,9999,9999,1768980596
19,18,Jits_Linear_8,1,9999,9999,9999,9999,1769800808
19,18,Jits_Linear_8,2,9999,9999,9999,9999,1770621040
19,18,Jits_Linear_8,3,9999,9999,9999,9999,1771440212
19,18,Jits_Linear_8,4,9999,9999,9999,9999,1772260428
19,18,Jits_Linear_8,5,9999,9999,9999,9999,1773070448
19,18,Jits_Linear_8,6,9999,9999,9999,9999,1773880436
19,18,Jits_Linear_8,7,9999,9999,9999,9999,1774690396
19,18,Jits_Linear_8,8,9999,9999,9999,9999,1775500376
19,18,Jits_Linear_8,9,9999,9999,9999,9999,1776310384
19,18,Jits_Linear_8,10,9999,9999,9999,9999,1777110084
19,18,Jits_Linear_8,11,9999,9999,9999,9999,1777910888
19,18,Jits_Linear_8,12,9999,9999,9999,9999,1778710588
19,18,Jits_Linear_8,13,9999,9999,9999,9999,1779510328
19,18,Jits_Linear_8,14,9999,9999,9999,9999,1780310072
19,18,Jits_Linear_8,15,9999,9999,9999,9999,1781100640
19,18,Jits_Linear_8,16,9999,9999,9999,9999,1781890116
19,18,Jits_Linear_8,17,9999,9999,9999,9999,1782680676
19,18,Jits_Linear_8,18,9999,9999,9999,9999,1783470172
19,18,Jits_Linear_8,19,9999,9999,9999,9999,1784260724
19,18,Jits_Linear_8,20,9999,9999,9999,9999,1785041000
19,18,Jits_Linear_8,21,9999,9999,9999,9999,1785820224
19,18,Jits_Linear_8,22,9999,9999,9999,9999,1786600504
19,18,Jits_Linear_8,23,9999,9999,9999,9999,1787380848
19,18,Jits_Linear_8,24,9999,9999,9999,9999,1788160072
19,18,Jits_Linear_8,25,9999,9999,9999,9999,1788930160
19,18,Jits_Linear_8,26,9999,9999,9999,9999,1789700172
19,18,Jits_Linear_8,27,9999,9999,9999,9999,1790470256
19,18,Jits_Linear_8,28,9999,9999,9999,9999,1791240264
19,18,Jits_Linear_8,29,9999,9999,9999,9999,1792010360
19,18,Jits_Linear_8,30,9999,9999,9999,9999,1792770104
19,18,Jits_Linear_8,31,9999,9999,9999,9999,1793530972
19,18,Jits_Linear_8,32,9999,9999,9999,9999,1794290788
19,18,Jits_Linear_8,33,9999,9999,9999,9999,1795050620
19,18,Jits_Linear_8,34,9999,9999,9999,9999,1795810380
19,18,Jits_Linear_8,35,9999,9999,9999,9999,1796560992
19,18,Jits_Linear_8,36,9999,9999,9999,9999,1797310560
19,18,Jits_Linear_8,37,9999,9999,9999,9999,1798060136
19,18,Jits_Linear_8,38,9999,9999,9999,9999,1798810748
19,18,Jits_Linear_8,39,9999,9999,9999,9999,1799560252
19,18,Jits_Linear_8,40,9999,9999,9999,9999,1800300612
19,18,Jits_Linear_8,41,9999,9999,9999,9999,1801041004
19,18,Jits_Linear_8,42,9999,9999,9999,9999,1801780296
19,18,Jits_Linear_8,43,9999,9999,9999,9999,1802520644
19,18,Jits_Linear_8,44,9999,9999,9999,9999,1803261044
19,18,Jits_Linear_8,45,9999,9999,9999,9999,1803990080
19,18,Jits_Linear_8,46,9999,9999,9999,9999,1804720244
19,18,Jits_Linear_8,47,9999,9999,9999,9999,1805450332
19,18,Jits_Linear_8,48,9999,9999,9999,9999,1806180424
19,18,Jits_Linear_8,49,9999,9999,9999,9999,1806910560
19,18,Jits_Linear_8,50,9999,9999,9999,9999,1807630448
19,18,Jits_Linear_8,51,9999,9999,9999,9999,1808350260
19,18,Jits_Linear_8,52,9999,9999,9999,9999,1809070172
19,18,Jits_Linear_8,53,9999,9999,9999,9999,1809791056
19,18,Jits_Linear_8,54,9999,9999,9999,9999,1810510928
19,18,Jits_Linear_8,55,9999,9999,9999,9999,1811220572
19,18,Jits_Linear_8,56,9999,9999,9999,9999,1811930192
19,18,Jits_Linear_8,57,9999,9999,9999,9999,1812640880
19,18,Jits_Linear_8,58,9999,9999,9999,9999,1813350524
19,18,Jits_Linear_8,59,9999,9999,9999,9999,1814060140
19,18,Jits_Linear_8,60,9999,9999,9999,9999,1814760548
19,18,Jits_Linear_8,61,9999,9999,9999,9999,1815460976
19,18,Jits_Linear_8,62,9999,9999,9999,9999,1816160328
19,18,Jits_Linear_8,63,9999,9999,9999,9999,1816860800
19,18,Jits_Linear_8,64,9999,9999,9999,9999,1817560172
19,18,Jits_Linear_8,65,9999,9999,9999,9999,1818250324
19,18,Jits_Linear_8,66,9999,9999,9999,9999,1818940540
19,18,Jits_Linear_8,67,9999,9999,9999,9999,1819630692
19,18,Jits_Linear_8,68,9999,9999,9999,9999,1820320840
19,18,Jits_Linear_8,69,9999,9999,9999,9999,1821011056
19,18,Jits_Linear_8,70,9999,9999,9999,9999,1821690948
19,18,Jits_Linear_8,71,9999,9999,9999,9999,1822370916
19,18,Jits_Linear_8,72,9999,9999,9999,9999,1823050852
19,18,Jits_Linear_8,73,9999,9999,9999,9999,1823730808
19,18,Jits_Linear_8,74,9999,9999,9999,9999,1824410700
19,18,Jits_Linear_8,75,9999,9999,9999,9999,1825080376
19,18,Jits_Linear_8,76,9999,9999,9999,9999,1825750144
19,18,Jits_Linear_8,77,9999,9999,9999,9999,1826420812
19,18,Jits_Linear_8,78,9999,9999,9999,9999,1827090552
19,18,Jits_Linear_8,79,9999,9999,9999,9999,1827760248
19,18,Jits_Linear_8,80,9999,9999,9999,9999,1828420704
19,18,Jits_Linear_8,81,9999,9999,9999,9999,1829080132
19,18,Jits_Linear_8,82,9999,9999,9999,9999,1829740612
19,18,Jits_Linear_8,83,9999,9999,9999,9999,1830400088
19,18,Jits_Linear_8,84,9999,9999,9999,9999,1831060564
19,18,Jits_Linear_8,85,9999,9999,9999,9999,1831710772
19,18,Jits_Linear_8,86,9999,9999,9999,9999,1832361064
19,18,Jits_Linear_8,87,9999,9999,9999,9999,1833010284
19,18,Jits_Linear_8,88,9999,9999,9999,9999,1833660492
19,18,Jits_Linear_8,89,9999,9999,9999,9999,1834310768
19,18,Jits_Linear_8,90,9999,9999,9999,9999,1834950732
19,18,Jits_Linear_8,91,9999,9999,9999,9999,1835590732
19,18,Jits_Linear_8,92,9999,9999,9999,9999,1836230772
19,18,Jits_Linear_8,93,9999,9999,9999,9999,1836870764
19,18,Jits_Linear_8,94,9999,9999,9999,9999,1837510716
19,18,Jits_Linear_8,95,9999,9999,9999,9999,1838140528
19,18,Jits_Linear_8,96,9999,9999,9999,9999,1838770304
19,18,Jits_Linear_8,97,9999,9999,9999,9999,1839401088
19,18,Jits_Linear_8,98,9999,9999,9999,9999,1840030796
19,18,Jits_Linear_8,99,9999,9999,9999,9999,1840660556
19,18,Jits_Linear_8,100,9999,9999,9999,9999,1841280060
19,18,Jits_Linear_8,101,9999,9999,9999,9999,1841900656
19,18,Jits_Linear_8,102,9999,9999,9999,9999,1842520140
19,18,Jits_Linear_8,103,9999,9999,9999,9999,1843140680
19,18,Jits_Linear_8,104,9999,9999,9999,9999,1843760244
19,18,Jits_Linear_8,105,9999,9999,9999,9999,1844370532
19,18,Jits_Linear_8,106,9999,9999,9999,9999,1844980856
19,18,Jits_Linear_8,107,9999,9999,9999,9999,1845590124
19,18,Jits_Linear_8,108,9999,9999,9999,9999,1846200400
19,18,Jits_Linear_8,109,9999,9999,9999,9999,1846810728
19,18,Jits_Linear_8,110,9999,9999,9999,9999,1847410748
19,18,Jits_Linear_8,111,9999,9999,9999,9999,1848010820
19,18,Jits_Linear_8,112,9999,9999,9999,9999,1848610896
19,18,Jits_Linear_8,113,9999,9999,9999,9999,1849211004
19,18,Jits_Linear_8,114,9999,9999,9999,9999,1849811008
19,18,Jits_Linear_8,115,9999,9999,9999,9999,1850400888
19,18,Jits_Linear_8,116,9999,9999,9999,9999,1850990664
19,18,Jits_Linear_8,117,9999,9999,9999,9999,1851580508
19,18,Jits_Linear_8,118,9999,9999,9999,9999,1852170332
19,18,Jits_Linear_8,119,9999,9999,9999,9999,1852760152
19,18,Jits_Linear_8,120,9999,9999,9999,9999,1853340792
19,18,Jits_Linear_8,121,9999,9999,9999,9999,1853920332
19,18,Jits_Linear_8,122,9999,9999,9999,9999,1854500988
19,18,Jits_Linear_8,123,9999,9999,9999,9999,1855080552
19,18,Jits_Linear_8,124,9999,9999,9999,9999,1855660100
19,18,Jits_Linear_8,125,9999,9999,9999,9999,1856230508
19,18,Jits_Linear_8,126,9999,9999,9999,9999,1856800844
19,18,Jits_Linear_8,127,9999,9999,9999,9999,1857370204
19,18,Jits_Linear_8,128,9999,9999,9999,9999,1857940548
19,18,Jits_Linear_8,129,9999,9999,9999,9999,1858510964
19,18,Jits_Linear_8,130,9999,9999,9999,9999,1859071048
19,18,Jits_Linear_8,131,9999,9999,9999,9999,1859630152
19,18,Jits_Linear_8,132,9999,9999,9999,9999,1860190300
19,18,Jits_Linear_8,133,9999,9999,9999,9999,1860750404
19,18,Jits_Linear_8,134,9999,9999,9999,9999,1861310556
19,18,Jits_Linear_8,135,9999,9999,9999,9999,1861860420
19,18,Jits_Linear_8,136,9999,9999,9999,9999,1862410368
19,18,Jits_Linear_8,137,9999,9999,9999,9999,1862960180
19,18,Jits_Linear_8,138,9999,9999,9999,9999,1863510072
19,18,Jits_Linear_8,139,9999,9999,9999,9999,1864061028
19,18,Jits_Linear_8,140,9999,9999,9999,9999,1864600640
19,18,Jits_Linear_8,141,9999,9999,9999,9999,1865140324
19,18,Jits_Linear_8,142,9999,9999,9999,9999,1865680988
19,18,Jits_Linear_8,143,9999,9999,9999,9999,1866220596
19,18,Jits_Linear_8,144,9999,9999,9999,9999,1866760280
19,18,Jits_Linear_8,145,9999,9999,9999,9999,1867290680
19,18,Jits_Linear_8,146,9999,9999,9999,9999,1867820104
19,18,Jits_Linear_8,147,9999,9999,9999,9999,1868350540
19,18,Jits_Linear_8,148,9999,9999,9999,9999,1868881000
19,18,Jits_Linear_8,149,9999,9999,9999,9999,1869410372
19,18,Jits_Linear_8,150,9999,9999,9999,9999,1869930576
19,18,Jits_Linear_8,151,9999,9999,9999,9999,1870450776
19,18,Jits_Linear_8,152,9999,9999,9999,9999,1870971000
19,18,Jits_Linear_8,153,9999,9999,9999,9999,1871490160
19,18,Jits_Linear_8,154,9999,9999,9999,9999,1872010360
19,18,Jits_Linear_8,155,9999,9999,9999,9999,1872520308
19,18,Jits_Linear_8,156,9999,9999,9999,9999,1873030252
19,18,Jits_Linear_8,157,9999,9999,9999,9999,1873540192
19,18,Jits_Linear_8,158,9999,9999,9999,9999,1874050140
19,18,Jits_Linear_8,159,9999,9999,9999,9999,1874560092
19,18,Jits_Linear_8,160,9999,9999,9999,9999,1875060840
19,18,Jits_Linear_8,161,9999,9999,9999,9999,1875560516
19,18,Jits_Linear_8,162,9999,9999,9999,9999,1876060252
19,18,Jits_Linear_8,163,9999,9999,9999,9999,1876560968
19,18,Jits_Linear_8,164,9999,9999,9999,9999,1877060724
19,18,Jits_Linear_8,165,9999,9999,9999,9999,1877550140
19,18,Jits_Linear_8,166,9999,9999,9999,9999,1878040696
19,18,Jits_Linear_8,167,9999,9999,9999,9999,1878530112
19,18,Jits_Linear_8,168,9999,9999,9999,9999,1879020668
19,18,Jits_Linear_8,169,9999,9999,9999,9999,1879510092
20,5,ISIP_5,0,5,42,127,1942682388
20,5,ISIP_5,1,1,48,17,1943163068
20,5,ISIP_5,2,5,42,127,1943181652
20,5,ISIP_5,3,1,48,28,1943666576
20,5,ISIP_5,4,5,42,127,1943682396
20,5,ISIP_5,5,5,42,127,1944182392
20,5,ISIP_5,6,1,48,26,1944212592
20,5,ISIP_5,7,5,42,127,1944681864
20,5,ISIP_5,8,1,48,28,1944695232
20,5,ISIP_5,9,5,42,127,1945181484
20,5,ISIP_5,10,1,48,26,1945187820
20,5,ISIP_5,11,1,48,24,1945673784
20,5,ISIP_5,12,5,42,127,1945682268
20,5,ISIP_5,13,1,48,29,1946141684
20,5,ISIP_5,14,5,42,127,1946182188
20,5,ISIP_5,15,1,48,30,1946663372
20,5,ISIP_5,16,5,42,127,1946681732
20,5,ISIP_5,17,1,48,29,1947168524
20,5,ISIP_5,18,5,42,127,1947181428
20,5,ISIP_5,19,1,48,27,1947678468
20,5,ISIP_5,20,5,42,127,1947682392
20,5,ISIP_5,21,1,48,27,1948164024
20,5,ISIP_5,22,5,42,127,1948182236
20,5,ISIP_5,23,1,48,31,1948680664
20,5,ISIP_5,24,5,42,127,1948682384
20,5,ISIP_5,25,1,48,27,1949179424
20,5,ISIP_5,26,5,42,127,1949182304
20,5,ISIP_5,27,1,48,28,1949672912
20,5,ISIP_5,28,5,42,127,1949682220
20,5,ISIP_5,29,1,48,24,1950163556
20,5,ISIP_5,30,5,42,127,1950181844
20,5,ISIP_5,31,1,48,26,1950664300
20,5,ISIP_5,32,5,42,127,1950681388
20,5,ISIP_5,33,1,48,23,1951167284
20,5,ISIP_5,34,5,42,127,1951182208
20,5,ISIP_5,35,1,48,26,1951672144
20,5,ISIP_5,36,5,42,127,1951682124
20,5,ISIP_5,37,1,48,23,1952176096
20,5,ISIP_5,38,5,42,127,1952181524
20,5,ISIP_5,39,1,48,23,1952678044
20,5,ISIP_5,40,5,42,127,1952682340
20,5,ISIP_5,41,1,48,28,1953166888
20,5,ISIP_5,42,5,42,127,1953182256
20,5,ISIP_5,43,1,48,27,1953673244
20,5,ISIP_5,44,5,42,127,1953681728
20,5,ISIP_5,45,1,48,27,1954165604
20,5,ISIP_5,46,5,42,127,1954181348
20,5,ISIP_5,47,5,42,127,1954682096
20,5,ISIP_5,48,1,48,27,1954685064
20,5,ISIP_5,49,5,42,127,1955182016
20,5,ISIP_5,50,1,48,31,1955201588
20,5,ISIP_5,51,1,48,29,1955667356
20,5,ISIP_5,52,5,42,127,1955681852
20,5,ISIP_5,53,1,48,27,1956169896
20,5,ISIP_5,54,5,42,127,1956182344
20,5,ISIP_5,55,1,48,29,1956640792
20,5,ISIP_5,56,5,42,127,1956681968
20,5,ISIP_5,57,1,48,29,1957139812
20,5,ISIP_5,58,5,42,127,1957181884
20,5,ISIP_5,59,1,48,25,1957654544
20,5,ISIP_5,60,5,42,127,1957681504
20,5,ISIP_5,61,1,48,23,1958170768
20,5,ISIP_5,62,5,42,127,1958182244
20,5,ISIP_5,63,1,48,28,1958679976
20,5,ISIP_5,64,5,42,127,1958681864
20,5,ISIP_5,65,1,48,29,1959178080
20,5,ISIP_5,66,5,42,127,1959181856
20,5,ISIP_5,67,5,42,127,1959682532
20,5,ISIP_5,68,1,48,28,1959689164
20,5,ISIP_5,69,5,42,127,1960182152
20,5,ISIP_5,70,1,48,31,1960204040
20,5,ISIP_5,71,5,42,127,1960681920
20,5,ISIP_5,72,1,48,35,1960705608
20,5,ISIP_5,73,5,42,127,1961181544
20,5,ISIP_5,74,1,48,28,1961195732
20,5,ISIP_5,75,1,48,35,1961678056
20,5,ISIP_5,76,5,42,127,1961682276
20,5,ISIP_5,77,1,48,42,1962181904
20,5,ISIP_5,78,5,42,127,1962183316
20,5,ISIP_5,79,1,48,42,1962659636
20,5,ISIP_5,80,1,48,27,1963251420
20,5,ISIP_5,81,1,48,31,1963730020
20,5,ISIP_5,82,1,48,32,1964248260
20,5,ISIP_5,83,1,48,31,1964762984
20,5,ISIP_5,84,1,48,37,1965269184
20,5,ISIP_5,85,1,48,36,1965820036
20,5,ISIP_5,86,1,48,32,1966336480
20,5,ISIP_5,87,1,48,35,1966873196
20,5,ISIP_5,88,1,48,35,1967394428
20,5,ISIP_5,89,1,48,35,1967929796
20,5,ISIP_5,90,1,48,31,1968468904
20,5,ISIP_5,91,1,48,35,1968963284
20,5,ISIP_5,92,1,48,32,1969509528
20,5,ISIP_5,93,1,48,32,1970072648
20,5,ISIP_5,94,1,48,37,1970573608
20,5,ISIP_5,95,1,48,37,1971115112
20,5,ISIP_5,96,1,48,35,1971650704
20,5,ISIP_5,97,1,48,36,1972170964
20,5,ISIP_5,98,1,48,40,1972719360
20,5,ISIP_5,99,1,48,36,1973246876
20,5,ISIP_5,100,1,48,39,1973788756
20,5,ISIP_5,101,1,48,32,1974309016
20,5,ISIP_5,102,1,48,34,1974881204
20,5,ISIP_5,103,1,48,38,1975409844
20,5,ISIP_5,104,1,48,39,1975926588
20,5,ISIP_5,105,1,48,37,1976450960
20,5,ISIP_5,106,1,48,35,1976981548
20,5,ISIP_5,107,1,48,29,1977535688
20,5,ISIP_5,108,1,48,40,1978068068
20,5,ISIP_5,109,1,48,35,1978596552
20,5,ISIP_5,110,1,48,38,1979135436
20,5,ISIP_5,111,1,48,42,1979657868
20,5,ISIP_5,112,1,48,43,1980175808
20,5,ISIP_5,113,1,48,37,1980697652
20,5,ISIP_5,114,1,48,42,1981250600
20,5,ISIP_5,115,1,48,39,1981757168
20,5,ISIP_5,116,1,48,33,1982293956
20,5,ISIP_5,117,1,48,43,1982830628
20,5,ISIP_5,118,1,48,39,1983353208
20,5,ISIP_5,119,1,48,43,1983884540
20,5,ISIP_5,120,1,48,43,1984419012
20,5,ISIP_5,121,1,48,42,1984933584
20,5,ISIP_5,122,1,48,42,1985461400
20,5,ISIP_5,123,1,48,44,1985968420
20,5,ISIP_5,124,1,48,38,1986522488
20,5,ISIP_5,125,1,48,43,1987038032
20,5,ISIP_5,126,1,48,38,1987541688
20,5,ISIP_5,127,1,48,44,1988062404
20,5,ISIP_5,128,1,48,46,1988582284
20,5,ISIP_5,129,1,48,41,1989085940
20,5,ISIP_5,130,1,48,43,1989610616
20,5,ISIP_5,131,1,48,45,1990129228
20,5,ISIP_5,132,1,48,40,1990650984
20,5,ISIP_5,133,1,48,48,1991143868
20,5,ISIP_5,134,1,48,45,1991670260
20,5,ISIP_5,135,1,48,43,1992140932
20,5,ISIP_5,136,1,48,40,1992649596
20,5,ISIP_5,137,1,48,42,1993187824
20,5,ISIP_5,138,1,48,38,1993697012
20,5,ISIP_5,139,1,48,42,1994251608
20,5,ISIP_5,140,1,48,40,1994780168
20,5,ISIP_5,141,1,48,44,1995309924
20,5,ISIP_5,142,1,48,43,1995829588
20,5,ISIP_5,143,1,48,41,1996337432
20,5,ISIP_5,144,1,48,40,1996861952
20,5,ISIP_5,145,1,48,40,1997420688
20,5,ISIP_5,146,1,48,43,1997939900
20,5,ISIP_5,147,1,48,40,1998487380
20,5,ISIP_5,148,1,48,39,1999006896
20,5,ISIP_5,149,1,48,45,1999568740
20,5,ISIP_5,150,1,48,40,2000094316
20,5,ISIP_5,151,1,48,42,2000651752
20,5,ISIP_5,152,1,48,40,2001212788
20,5,ISIP_5,153,1,48,39,2001737308
20,5,ISIP_5,154,1,48,40,2002289908
20,5,ISIP_5,155,1,48,45,2002829836
20,5,ISIP_5,156,1,48,42,2003389140
20,5,ISIP_5,157,1,48,42,2003912172
20,5,ISIP_5,158,1,48,46,2004437516
20,5,ISIP_5,159,1,48,43,2004928756
20,5,ISIP_5,160,1,48,40,2005441456
20,5,ISIP_5,161,1,48,38,2005957228
20,5,ISIP_5,162,1,48,39,2006486096
20,5,ISIP_5,163,1,48,39,2007007404
20,5,ISIP_5,164,1,48,40,2007536040
20,5,ISIP_5,165,1,48,34,2008054428
20,5,ISIP_5,166,1,48,40,2008582544
20,5,ISIP_5,167,1,48,44,2009122924
20,5,ISIP_5,168,1,48,44,2009640488
20,5,ISIP_5,169,1,48,36,2010168824
20,5,ISIP_5,170,1,48,39,2010680044
20,5,ISIP_5,171,1,48,40,2011207112
20,5,ISIP_5,172,1,48,46,2011736824
20,5,ISIP_5,173,1,48,48,2012261124
20,5,ISIP_5,174,1,48,48,2012751736
20,5,ISIP_5,175,1,48,38,2013294164
20,5,ISIP_5,176,1,48,47,2013846588
20,5,ISIP_5,177,1,48,49,2014367144
20,5,ISIP_5,178,1,48,46,2014878652
20,5,ISIP_5,179,1,48,50,2015410808
20,5,ISIP_5,180,1,48,51,2015927176
20,5,ISIP_5,181,1,48,46,2016471600
20,5,ISIP_5,182,1,48,50,2016995672
20,5,ISIP_5,183,1,48,41,2017528052
20,5,ISIP_5,184,1,48,46,2018019368
20,5,ISIP_5,185,1,48,48,2018560716
20,5,ISIP_5,186,1,48,50,2019091900
20,5,ISIP_5,187,1,48,51,2019593684
20,5,ISIP_5,188,1,48,47,2020105340
20,5,ISIP_5,189,1,48,47,2020620812
20,5,ISIP_5,190,1,48,48,2021150344
20,5,ISIP_5,191,1,48,45,2021645624
20,5,ISIP_5,192,1,48,46,2022172840
20,5,ISIP_5,0,9999,9999,9999,9999,1942679652
20,5,ISIP_5,1,9999,9999,9999,9999,1943179364
20,5,ISIP_5,2,9999,9999,9999,9999,1943680108
20,5,ISIP_5,3,9999,9999,9999,9999,1944179804
20,5,ISIP_5,4,9999,9999,9999,9999,1944679500
20,5,ISIP_5,5,9999,9999,9999,9999,1945179196
20,5,ISIP_5,6,9999,9999,9999,9999,1945679980
20,5,ISIP_5,7,9999,9999,9999,9999,1946179676
20,5,ISIP_5,8,9999,9999,9999,9999,1946679368
20,5,ISIP_5,9,9999,9999,9999,9999,1947179064
20,5,ISIP_5,10,9999,9999,9999,9999,1947679808
20,5,ISIP_5,11,9999,9999,9999,9999,1948179576
20,5,ISIP_5,12,9999,9999,9999,9999,1948679276
20,5,ISIP_5,13,9999,9999,9999,9999,1949180012
20,5,ISIP_5,14,9999,9999,9999,9999,1949679708
20,5,ISIP_5,15,9999,9999,9999,9999,1950179404
20,5,ISIP_5,16,9999,9999,9999,9999,1950679100
20,5,ISIP_5,17,9999,9999,9999,9999,1951179840
20,5,ISIP_5,18,9999,9999,9999,9999,1951679540
20,5,ISIP_5,19,9999,9999,9999,9999,1952179308
20,5,ISIP_5,20,9999,9999,9999,9999,1952680048
20,5,ISIP_5,21,9999,9999,9999,9999,1953179744
20,5,ISIP_5,22,9999,9999,9999,9999,1953679440
20,5,ISIP_5,23,9999,9999,9999,9999,1954179136
20,5,ISIP_5,24,9999,9999,9999,9999,1954679880
20,5,ISIP_5,25,9999,9999,9999,9999,1955179576
20,5,ISIP_5,26,9999,9999,9999,9999,1955679340
20,5,ISIP_5,27,9999,9999,9999,9999,1956180056
20,5,ISIP_5,28,9999,9999,9999,9999,1956679752
20,5,ISIP_5,29,9999,9999,9999,9999,1957179448
20,5,ISIP_5,30,9999,9999,9999,9999,1957679216
20,5,ISIP_5,31,9999,9999,9999,9999,1958179956
20,5,ISIP_5,32,9999,9999,9999,9999,1958679608
20,5,ISIP_5,33,9999,9999,9999,9999,1959179344
20,5,ISIP_5,34,9999,9999,9999,9999,1959680096
20,5,ISIP_5,35,9999,9999,9999,9999,1960179788
20,5,ISIP_5,36,9999,9999,9999,9999,1960679484
20,5,ISIP_5,37,9999,9999,9999,9999,1961179252
20,5,ISIP_5,38,9999,9999,9999,9999,1961679988
20,5,ISIP_5,39,9999,9999,9999,9999,1962179692
20,5,ISIP_5,40,9999,9999,9999,9999,1962679376
20,5,ISIP_5,41,9999,9999,9999,9999,1963179076
20,5,ISIP_5,42,9999,9999,9999,9999,1963679812
20,5,ISIP_5,43,9999,9999,9999,9999,1964179576
20,5,ISIP_5,44,9999,9999,9999,9999,1964679268
20,5,ISIP_5,45,9999,9999,9999,9999,1965180008
20,5,ISIP_5,46,9999,9999,9999,9999,1965679696
20,5,ISIP_5,47,9999,9999,9999,9999,1966179388
20,5,ISIP_5,48,9999,9999,9999,9999,1966679128
20,5,ISIP_5,49,9999,9999,9999,9999,1967179864
20,5,ISIP_5,50,9999,9999,9999,9999,1967679556
20,5,ISIP_5,51,9999,9999,9999,9999,1968179320
20,5,ISIP_5,52,9999,9999,9999,9999,1968679984
20,5,ISIP_5,53,9999,9999,9999,9999,1969179748
20,5,ISIP_5,54,9999,9999,9999,9999,1969679440
20,5,ISIP_5,55,9999,9999,9999,9999,1970179132
20,5,ISIP_5,56,9999,9999,9999,9999,1970679868
20,5,ISIP_5,57,9999,9999,9999,9999,1971179576
20,5,ISIP_5,58,9999,9999,9999,9999,1971679340
20,5,ISIP_5,59,9999,9999,9999,9999,1972180076
20,5,ISIP_5,60,9999,9999,9999,9999,1972679776
20,5,ISIP_5,61,9999,9999,9999,9999,1973179468
20,5,ISIP_5,62,9999,9999,9999,9999,1973679160
20,5,ISIP_5,63,9999,9999,9999,9999,1974179896
20,5,ISIP_5,64,9999,9999,9999,9999,1974679660
20,5,ISIP_5,65,9999,9999,9999,9999,1975179352
20,5,ISIP_5,66,9999,9999,9999,9999,1975680092
20,5,ISIP_5,67,9999,9999,9999,9999,1976179780
20,5,ISIP_5,68,9999,9999,9999,9999,1976679544
20,5,ISIP_5,69,9999,9999,9999,9999,1977179236
20,5,ISIP_5,70,9999,9999,9999,9999,1977679948
20,5,ISIP_5,71,9999,9999,9999,9999,1978179640
20,5,ISIP_5,72,9999,9999,9999,9999,1978679344
20,5,ISIP_5,73,9999,9999,9999,9999,1979179108
20,5,ISIP_5,74,9999,9999,9999,9999,1979679848
20,5,ISIP_5,75,9999,9999,9999,9999,1980179536
20,5,ISIP_5,76,9999,9999,9999,9999,1980679236
20,5,ISIP_5,77,9999,9999,9999,9999,1981179972
20,5,ISIP_5,78,9999,9999,9999,9999,1981679736
20,5,ISIP_5,79,9999,9999,9999,9999,1982179428
20,5,ISIP_5,80,9999,9999,9999,9999,1982679120
20,5,ISIP_5,81,9999,9999,9999,9999,1983179856
20,5,ISIP_5,82,9999,9999,9999,9999,1983679548
20,5,ISIP_5,83,9999,9999,9999,9999,1984179316
20,5,ISIP_5,84,9999,9999,9999,9999,1984680052
20,5,ISIP_5,85,9999,9999,9999,9999,1985179744
20,5,ISIP_5,86,9999,9999,9999,9999,1985679432
20,5,ISIP_5,87,9999,9999,9999,9999,1986179124
20,5,ISIP_5,88,9999,9999,9999,9999,1986679860
20,5,ISIP_5,89,9999,9999,9999,9999,1987179628
20,5,ISIP_5,90,9999,9999,9999,9999,1987679320
20,5,ISIP_5,91,9999,9999,9999,9999,1988180032
20,5,ISIP_5,92,9999,9999,9999,9999,1988679740
20,5,ISIP_5,93,9999,9999,9999,9999,1989179504
20,5,ISIP_5,94,9999,9999,9999,9999,1989679192
20,5,ISIP_5,95,9999,9999,9999,9999,1990179932
20,5,ISIP_5,96,9999,9999,9999,9999,1990679620
20,5,ISIP_5,97,9999,9999,9999,9999,1991179312
20,5,ISIP_5,98,9999,9999,9999,9999,1991680052
20,5,ISIP_5,99,9999,9999,9999,9999,1992179816
20,5,ISIP_5,100,9999,9999,9999,9999,1992679508
20,5,ISIP_5,101,9999,9999,9999,9999,1993179204
20,5,ISIP_5,102,9999,9999,9999,9999,1993679944
20,5,ISIP_5,103,9999,9999,9999,9999,1994179632
20,5,ISIP_5,104,9999,9999,9999,9999,1994679396
20,5,ISIP_5,105,9999,9999,9999,9999,1995179088
20,5,ISIP_5,106,9999,9999,9999,9999,1995679824
20,5,ISIP_5,107,9999,9999,9999,9999,1996179516
20,5,ISIP_5,108,9999,9999,9999,9999,1996679280
20,5,ISIP_5,109,9999,9999,9999,9999,1997180020
20,5,ISIP_5,110,9999,9999,9999,9999,1997679708
20,5,ISIP_5,111,9999,9999,9999,9999,1998179400
20,5,ISIP_5,112,9999,9999,9999,9999,1998679140
20,5,ISIP_5,113,9999,9999,9999,9999,1999179876
20,5,ISIP_5,114,9999,9999,9999,9999,1999679568
20,5,ISIP_5,115,9999,9999,9999,9999,2000179276
20,5,ISIP_5,116,9999,9999,9999,9999,2000680012
20,5,ISIP_5,117,9999,9999,9999,9999,2001179708
20,5,ISIP_5,118,9999,9999,9999,9999,2001679472
20,5,ISIP_5,119,9999,9999,9999,9999,2002179164
20,5,ISIP_5,120,9999,9999,9999,9999,2002679900
20,5,ISIP_5,121,9999,9999,9999,9999,2003179592
20,5,ISIP_5,122,9999,9999,9999,9999,2003679284
20,5,ISIP_5,123,9999,9999,9999,9999,2004180020
20,5,ISIP_5,124,9999,9999,9999,9999,2004679788
20,5,ISIP_5,125,9999,9999,9999,9999,2005179476
20,5,ISIP_5,126,9999,9999,9999,9999,2005679168
20,5,ISIP_5,127,9999,9999,9999,9999,2006179904
20,5,ISIP_5,128,9999,9999,9999,9999,2006679672
20,5,ISIP_5,129,9999,9999,9999,9999,2007179360
20,5,ISIP_5,130,9999,9999,9999,9999,2007680100
20,5,ISIP_5,131,9999,9999,9999,9999,2008179788
20,5,ISIP_5,132,9999,9999,9999,9999,2008679480
20,5,ISIP_5,133,9999,9999,9999,9999,2009179184
20,5,ISIP_5,134,9999,9999,9999,9999,2009679972
20,5,ISIP_5,135,9999,9999,9999,9999,2010179664
20,5,ISIP_5,136,9999,9999,9999,9999,2010679356
20,5,ISIP_5,137,9999,9999,9999,9999,2011179124
20,5,ISIP_5,138,9999,9999,9999,9999,2011679860
20,5,ISIP_5,139,9999,9999,9999,9999,2012179552
20,5,ISIP_5,140,9999,9999,9999,9999,2012679244
20,5,ISIP_5,141,9999,9999,9999,9999,2013179980
20,5,ISIP_5,142,9999,9999,9999,9999,2013679672
20,5,ISIP_5,143,9999,9999,9999,9999,2014179436
20,5,ISIP_5,144,9999,9999,9999,9999,2014679128
20,5,ISIP_5,145,9999,9999,9999,9999,2015179864
20,5,ISIP_5,146,9999,9999,9999,9999,2015679556
20,5,ISIP_5,147,9999,9999,9999,9999,2016179320
20,5,ISIP_5,148,9999,9999,9999,9999,2016679984
20,5,ISIP_5,149,9999,9999,9999,9999,2017179752
20,5,ISIP_5,150,9999,9999,9999,9999,2017679440
20,5,ISIP_5,151,9999,9999,9999,9999,2018179132
20,5,ISIP_5,152,9999,9999,9999,9999,2018679868
20,5,ISIP_5,153,9999,9999,9999,9999,2019179576
20,5,ISIP_5,154,9999,9999,9999,9999,2019679340
20,5,ISIP_5,155,9999,9999,9999,9999,2020180052
20,5,ISIP_5,156,9999,9999,9999,9999,2020679744
20,5,ISIP_5,157,9999,9999,9999,9999,2021179508
20,5,ISIP_5,158,9999,9999,9999,9999,2021679196
20,5,ISIP_5,159,9999,9999,9999,9999,2022179936
21,3,ISIP_8,0,5,42,127,2045570328
21,3,ISIP_8,1,1,48,37,2045895248
21,3,ISIP_8,2,5,42,127,2046370060
21,3,ISIP_8,3,1,48,22,2046599912
21,3,ISIP_8,4,5,42,127,2047170016
21,3,ISIP_8,5,5,42,127,2047969844
21,3,ISIP_8,6,1,48,32,2048005132
21,3,ISIP_8,7,1,48,37,2048724216
21,3,ISIP_8,8,5,42,127,2048770324
21,3,ISIP_8,9,1,48,41,2049524772
21,3,ISIP_8,10,5,42,127,2049570128
21,3,ISIP_8,11,1,48,37,2050315224
21,3,ISIP_8,12,5,42,127,2050369936
21,3,ISIP_8,13,1,48,44,2051141668
21,3,ISIP_8,14,5,42,127,2051169548
21,3,ISIP_8,15,1,48,43,2051921128
21,3,ISIP_8,16,5,42,127,2051970328
21,3,ISIP_8,17,1,48,40,2052755668
21,3,ISIP_8,18,5,42,127,2052770208
21,3,ISIP_8,19,1,48,42,2053541856
21,3,ISIP_8,20,5,42,127,2053569940
21,3,ISIP_8,21,1,48,44,2054331268
21,3,ISIP_8,22,5,42,127,2054369824
21,3,ISIP_8,23,1,48,36,2055110136
21,3,ISIP_8,24,5,42,127,2055170308
21,3,ISIP_8,25,1,48,43,2055935820
21,3,ISIP_8,26,5,42,127,2055970116
21,3,ISIP_8,27,1,48,42,2056724260
21,3,ISIP_8,28,5,42,127,2056769848
21,3,ISIP_8,29,1,48,44,2057548008
21,3,ISIP_8,30,5,42,127,2057569828
21,3,ISIP_8,31,1,48,46,2058362128
21,3,ISIP_8,32,5,42,127,2058370384
21,3,ISIP_8,33,1,48,44,2059136276
21,3,ISIP_8,34,5,42,127,2059170116
21,3,ISIP_8,35,1,48,41,2059944760
21,3,ISIP_8,36,5,42,127,2059969852
21,3,ISIP_8,37,1,48,52,2060761476
21,3,ISIP_8,38,5,42,127,2060769584
21,3,ISIP_8,39,1,48,45,2061547216
21,3,ISIP_8,40,5,42,127,2061570664
21,3,ISIP_8,41,1,48,49,2062367444
21,3,ISIP_8,42,5,42,127,2062370024
21,3,ISIP_8,43,1,48,46,2063150352
21,3,ISIP_8,44,5,42,127,2063169756
21,3,ISIP_8,45,1,48,41,2063941036
21,3,ISIP_8,46,5,42,127,2063969592
21,3,ISIP_8,47,1,48,44,2064731596
21,3,ISIP_8,48,5,42,127,2064770596
21,3,ISIP_8,49,1,48,46,2065508960
21,3,ISIP_8,50,5,42,127,2065570256
21,3,ISIP_8,51,1,48,54,2066306900
21,3,ISIP_8,52,5,42,127,2066369840
21,3,ISIP_8,53,1,48,43,2067162656
21,3,ISIP_8,54,5,42,127,2067169720
21,3,ISIP_8,55,1,48,42,2067964484
21,3,ISIP_8,56,5,42,127,2067970428
21,3,ISIP_8,57,5,42,127,2068770092
21,3,ISIP_8,58,1,48,47,2068772032
21,3,ISIP_8,59,1,48,38,2069575108
21,3,ISIP_8,60,1,48,44,2070398720
21,3,ISIP_8,61,1,48,42,2071219168
21,3,ISIP_8,62,1,48,44,2071995492
21,3,ISIP_8,63,1,48,40,2072796864
21,3,ISIP_8,64,1,48,39,2073591728
21,3,ISIP_8,65,1,48,35,2074360332
21,3,ISIP_8,66,1,48,39,2075156244
21,3,ISIP_8,67,1,48,36,2075909600
21,3,ISIP_8,68,1,48,46,2076671408
21,3,ISIP_8,69,1,48,40,2077415408
21,3,ISIP_8,70,1,48,40,2078150288
21,3,ISIP_8,71,1,48,34,2078906712
21,3,ISIP_8,72,1,48,39,2079701356
21,3,ISIP_8,73,1,48,40,2080508192
21,3,ISIP_8,74,1,48,42,2081277920
21,3,ISIP_8,75,1,48,38,2082054168
21,3,ISIP_8,76,1,48,42,2082884260
21,3,ISIP_8,77,1,48,40,2083684916
21,3,ISIP_8,78,1,48,42,2084452408
21,3,ISIP_8,79,1,48,46,2085253928
21,3,ISIP_8,80,1,48,46,2086076320
21,3,ISIP_8,81,1,48,43,2086857952
21,3,ISIP_8,82,1,48,44,2087687972
21,3,ISIP_8,83,1,48,43,2088529660
21,3,ISIP_8,84,1,48,44,2089359184
21,3,ISIP_8,85,1,48,46,2090159440
21,3,ISIP_8,86,1,48,41,2090953556
21,3,ISIP_8,87,1,48,44,2091766376
21,3,ISIP_8,88,1,48,48,2092596172
21,3,ISIP_8,89,1,48,40,2093390816
21,3,ISIP_8,90,1,48,45,2094245924
21,3,ISIP_8,91,1,48,44,2095052984
21,3,ISIP_8,92,1,48,45,2095869612
21,3,ISIP_8,93,1,48,39,2096685652
21,3,ISIP_8,94,1,48,52,2097499088
21,3,ISIP_8,95,1,48,44,2098338612
21,3,ISIP_8,96,1,48,41,2099138192
21,3,ISIP_8,97,1,48,48,2099968304
21,3,ISIP_8,98,1,48,43,2100789724
21,3,ISIP_8,99,1,48,45,2101629420
21,3,ISIP_8,100,1,48,41,2102513000
21,3,ISIP_8,101,1,48,52,2103296792
21,3,ISIP_8,102,1,48,55,2104118364
21,3,ISIP_8,103,1,48,49,2104915572
21,3,ISIP_8,104,1,48,51,2105731760
21,3,ISIP_8,105,1,48,51,2106588108
21,3,ISIP_8,106,1,48,57,2107423072
21,3,ISIP_8,107,1,48,54,2108279368
21,3,ISIP_8,108,1,48,46,2109108720
21,3,ISIP_8,109,1,48,53,2109959156
21,3,ISIP_8,110,1,48,57,2110776312
21,3,ISIP_8,111,1,48,61,2111616164
21,3,ISIP_8,112,1,48,34,2111671492
21,3,ISIP_8,113,1,48,51,2112490892
21,3,ISIP_8,114,1,48,55,2113362156
21,3,ISIP_8,115,1,48,53,2114220524
21,3,ISIP_8,116,1,48,47,2115007616
21,3,ISIP_8,117,1,48,56,2115814748
21,3,ISIP_8,118,1,48,53,2116642524
21,3,ISIP_8,119,1,48,53,2117451600
21,3,ISIP_8,120,1,48,52,2118217672
21,3,ISIP_8,121,1,48,56,2119050264
21,3,ISIP_8,122,1,48,54,2119861960
21,3,ISIP_8,123,1,48,55,2120656976
21,3,ISIP_8,124,1,48,54,2121445936
21,3,ISIP_8,125,1,48,49,2122227484
21,3,ISIP_8,126,1,48,53,2123062220
21,3,ISIP_8,127,1,48,52,2123894888
21,3,ISIP_8,128,1,48,57,2124671280
21,3,ISIP_8,129,1,48,54,2125469584
21,3,ISIP_8,130,1,48,48,2126301408
21,3,ISIP_8,131,1,48,52,2127189284
21,3,ISIP_8,132,1,48,59,2127997908
21,3,ISIP_8,133,1,48,40,2128829880
21,3,ISIP_8,134,1,48,48,2129645092
21,3,ISIP_8,135,1,48,47,2130457012
21,3,ISIP_8,136,1,48,48,2131251212
21,3,ISIP_8,137,1,48,50,2132051260
21,3,ISIP_8,138,1,48,36,2132830276
21,3,ISIP_8,139,1,48,48,2133622148
21,3,ISIP_8,140,1,48,46,2134399216
21,3,ISIP_8,141,1,48,40,2135179424
21,3,ISIP_8,142,1,48,48,2135954680
21,3,ISIP_8,143,1,48,46,2136681252
21,3,ISIP_8,144,1,48,52,2137397636
21,3,ISIP_8,145,1,48,52,2138222220
21,3,ISIP_8,146,1,48,46,2138979464
21,3,ISIP_8,147,1,48,52,2139781512
21,3,ISIP_8,148,1,48,49,2140598068
21,3,ISIP_8,149,1,48,48,2141437072
21,3,ISIP_8,150,1,48,43,2142400944
21,3,ISIP_8,151,1,48,49,2143199552
21,3,ISIP_8,152,1,48,54,2144043188
21,3,ISIP_8,153,1,48,50,2144864332
21,3,ISIP_8,154,1,48,51,2145690536
21,3,ISIP_8,155,1,48,51,2146462516
21,3,ISIP_8,156,1,48,51,2147344296
21,3,ISIP_8,157,1,48,45,2148150232
21,3,ISIP_8,158,1,48,52,2148929772
21,3,ISIP_8,159,1,48,31,2149768116
21,3,ISIP_8,160,1,48,46,2150540992
21,3,ISIP_8,161,1,48,42,2151352768
21,3,ISIP_8,162,1,48,48,2152195432
21,3,ISIP_8,163,1,48,50,2153088084
21,3,ISIP_8,164,1,48,48,2154033740
21,3,ISIP_8,165,1,48,46,2154958628
21,3,ISIP_8,166,1,48,52,2155878512
21,3,ISIP_8,167,1,48,46,2156665820
21,3,ISIP_8,168,1,48,49,2157505868
21,3,ISIP_8,169,1,48,51,2158258624
21,3,ISIP_8,170,1,48,45,2159060968
21,3,ISIP_8,171,1,48,47,2159841100
21,3,ISIP_8,172,1,48,45,2160605900
21,3,ISIP_8,173,1,48,36,2161532068
21,3,ISIP_8,174,1,48,35,2162359544
21,3,ISIP_8,175,1,48,38,2163131896
21,3,ISIP_8,176,1,48,43,2163983476
21,3,ISIP_8,177,1,48,40,2164860492
21,3,ISIP_8,0,9999,9999,9999,9999,2045568112
21,3,ISIP_8,1,9999,9999,9999,9999,2046367844
21,3,ISIP_8,2,9999,9999,9999,9999,2047167580
21,3,ISIP_8,3,9999,9999,9999,9999,2047967336
21,3,ISIP_8,4,9999,9999,9999,9999,2048768108
21,3,ISIP_8,5,9999,9999,9999,9999,2049567840
21,3,ISIP_8,6,9999,9999,9999,9999,2050367576
21,3,ISIP_8,7,9999,9999,9999,9999,2051167332
21,3,ISIP_8,8,9999,9999,9999,9999,2051968112
21,3,ISIP_8,9,9999,9999,9999,9999,2052767848
21,3,ISIP_8,10,9999,9999,9999,9999,2053567580
21,3,ISIP_8,11,9999,9999,9999,9999,2054367312
21,3,ISIP_8,12,9999,9999,9999,9999,2055168092
21,3,ISIP_8,13,9999,9999,9999,9999,2055967828
21,3,ISIP_8,14,9999,9999,9999,9999,2056767560
21,3,ISIP_8,15,9999,9999,9999,9999,2057567316
21,3,ISIP_8,16,9999,9999,9999,9999,2058368096
21,3,ISIP_8,17,9999,9999,9999,9999,2059167828
21,3,ISIP_8,18,9999,9999,9999,9999,2059967564
21,3,ISIP_8,19,9999,9999,9999,9999,2060767296
21,3,ISIP_8,20,9999,9999,9999,9999,2061568076
21,3,ISIP_8,21,9999,9999,9999,9999,2062367812
21,3,ISIP_8,22,9999,9999,9999,9999,2063167544
21,3,ISIP_8,23,9999,9999,9999,9999,2063967304
21,3,ISIP_8,24,9999,9999,9999,9999,2064768084
21,3,ISIP_8,25,9999,9999,9999,9999,2065567816
21,3,ISIP_8,26,9999,9999,9999,9999,2066367552
21,3,ISIP_8,27,9999,9999,9999,9999,2067167284
21,3,ISIP_8,28,9999,9999,9999,9999,2067968064
21,3,ISIP_8,29,9999,9999,9999,9999,2068767804
21,3,ISIP_8,30,9999,9999,9999,9999,2069567536
21,3,ISIP_8,31,9999,9999,9999,9999,2070367292
21,3,ISIP_8,32,9999,9999,9999,9999,2071168068
21,3,ISIP_8,33,9999,9999,9999,9999,2071967796
21,3,ISIP_8,34,9999,9999,9999,9999,2072767600
21,3,ISIP_8,35,9999,9999,9999,9999,2073567328
21,3,ISIP_8,36,9999,9999,9999,9999,2074368100
21,3,ISIP_8,37,9999,9999,9999,9999,2075167828
21,3,ISIP_8,38,9999,9999,9999,9999,2075967556
21,3,ISIP_8,39,9999,9999,9999,9999,2076767296
21,3,ISIP_8,40,9999,9999,9999,9999,2077568072
21,3,ISIP_8,41,9999,9999,9999,9999,2078367800
21,3,ISIP_8,42,9999,9999,9999,9999,2079167604
21,3,ISIP_8,43,9999,9999,9999,9999,2079967336
21,3,ISIP_8,44,9999,9999,9999,9999,2080768112
21,3,ISIP_8,45,9999,9999,9999,9999,2081567836
21,3,ISIP_8,46,9999,9999,9999,9999,2082367568
21,3,ISIP_8,47,9999,9999,9999,9999,2083167320
21,3,ISIP_8,48,9999,9999,9999,9999,2083968096
21,3,ISIP_8,49,9999,9999,9999,9999,2084767828
21,3,ISIP_8,50,9999,9999,9999,9999,2085567556
21,3,ISIP_8,51,9999,9999,9999,9999,2086367288
21,3,ISIP_8,52,9999,9999,9999,9999,2087168060
21,3,ISIP_8,53,9999,9999,9999,9999,2087967792
21,3,ISIP_8,54,9999,9999,9999,9999,2088767596
21,3,ISIP_8,55,9999,9999,9999,9999,2089567348
21,3,ISIP_8,56,9999,9999,9999,9999,2090368052
21,3,ISIP_8,57,9999,9999,9999,9999,2091167852
21,3,ISIP_8,58,9999,9999,9999,9999,2091967584
21,3,ISIP_8,59,9999,9999,9999,9999,2092767312
21,3,ISIP_8,60,9999,9999,9999,9999,2093568088
21,3,ISIP_8,61,9999,9999,9999,9999,2094367816
21,3,ISIP_8,62,9999,9999,9999,9999,2095167544
21,3,ISIP_8,63,9999,9999,9999,9999,2095967300
21,3,ISIP_8,64,9999,9999,9999,9999,2096768092
21,3,ISIP_8,65,9999,9999,9999,9999,2097567820
21,3,ISIP_8,66,9999,9999,9999,9999,2098367552
21,3,ISIP_8,67,9999,9999,9999,9999,2099167352
21,3,ISIP_8,68,9999,9999,9999,9999,2099968092
21,3,ISIP_8,69,9999,9999,9999,9999,2100767792
21,3,ISIP_8,70,9999,9999,9999,9999,2101567596
21,3,ISIP_8,71,9999,9999,9999,9999,2102367348
21,3,ISIP_8,72,9999,9999,9999,9999,2103168048
21,3,ISIP_8,73,9999,9999,9999,9999,2103967852
21,3,ISIP_8,74,9999,9999,9999,9999,2104767580
21,3,ISIP_8,75,9999,9999,9999,9999,2105567312
21,3,ISIP_8,76,9999,9999,9999,9999,2106368088
21,3,ISIP_8,77,9999,9999,9999,9999,2107167816
21,3,ISIP_8,78,9999,9999,9999,9999,2107967544
21,3,ISIP_8,79,9999,9999,9999,9999,2108767300
21,3,ISIP_8,80,9999,9999,9999,9999,2109568076
21,3,ISIP_8,81,9999,9999,9999,9999,2110367804
21,3,ISIP_8,82,9999,9999,9999,9999,2111167608
21,3,ISIP_8,83,9999,9999,9999,9999,2111967316
21,3,ISIP_8,84,9999,9999,9999,9999,2112768092
21,3,ISIP_8,85,9999,9999,9999,9999,2113567820
21,3,ISIP_8,86,9999,9999,9999,9999,2114367552
21,3,ISIP_8,87,9999,9999,9999,9999,2115167304
21,3,ISIP_8,88,9999,9999,9999,9999,2115968080
21,3,ISIP_8,89,9999,9999,9999,9999,2116767812
21,3,ISIP_8,90,9999,9999,9999,9999,2117567540
21,3,ISIP_8,91,9999,9999,9999,9999,2118367344
21,3,ISIP_8,92,9999,9999,9999,9999,2119168116
21,3,ISIP_8,93,9999,9999,9999,9999,2119967848
21,3,ISIP_8,94,9999,9999,9999,9999,2120767576
21,3,ISIP_8,95,9999,9999,9999,9999,2121567332
21,3,ISIP_8,96,9999,9999,9999,9999,2122368104
21,3,ISIP_8,97,9999,9999,9999,9999,2123167836
21,3,ISIP_8,98,9999,9999,9999,9999,2123967580
21,3,ISIP_8,99,9999,9999,9999,9999,2124767308
21,3,ISIP_8,100,9999,9999,9999,9999,2125568068
21,3,ISIP_8,101,9999,9999,9999,9999,2126367812
21,3,ISIP_8,102,9999,9999,9999,9999,2127167548
21,3,ISIP_8,103,9999,9999,9999,9999,2127967304
21,3,ISIP_8,104,9999,9999,9999,9999,2128768080
21,3,ISIP_8,105,9999,9999,9999,9999,2129567808
21,3,ISIP_8,106,9999,9999,9999,9999,2130367540
21,3,ISIP_8,107,9999,9999,9999,9999,2131167340
21,3,ISIP_8,108,9999,9999,9999,9999,2131968116
21,3,ISIP_8,109,9999,9999,9999,9999,2132767848
21,3,ISIP_8,110,9999,9999,9999,9999,2133567576
21,3,ISIP_8,111,9999,9999,9999,9999,2134367332
21,3,ISIP_8,112,9999,9999,9999,9999,2135168108
21,3,ISIP_8,113,9999,9999,9999,9999,2135967832
21,3,ISIP_8,114,9999,9999,9999,9999,2136767560
21,3,ISIP_8,115,9999,9999,9999,9999,2137567348
21,3,ISIP_8,116,9999,9999,9999,9999,2138368048
21,3,ISIP_8,117,9999,9999,9999,9999,2139167852
21,3,ISIP_8,118,9999,9999,9999,9999,2139967584
21,3,ISIP_8,119,9999,9999,9999,9999,2140767336
21,3,ISIP_8,120,9999,9999,9999,9999,2141568112
21,3,ISIP_8,121,9999,9999,9999,9999,2142367864
21,3,ISIP_8,122,9999,9999,9999,9999,2143167592
21,3,ISIP_8,123,9999,9999,9999,9999,2143967320
21,3,ISIP_8,124,9999,9999,9999,9999,2144768096
21,3,ISIP_8,125,9999,9999,9999,9999,2145567828
21,3,ISIP_8,126,9999,9999,9999,9999,2146367556
21,3,ISIP_8,127,9999,9999,9999,9999,2147167308
21,3,ISIP_8,128,9999,9999,9999,9999,2147968084
21,3,ISIP_8,129,9999,9999,9999,9999,2148767816
21,3,ISIP_8,130,9999,9999,9999,9999,2149567544
21,3,ISIP_8,131,9999,9999,9999,9999,2150367348
21,3,ISIP_8,132,9999,9999,9999,9999,2151168048
21,3,ISIP_8,133,9999,9999,9999,9999,2151967852
21,3,ISIP_8,134,9999,9999,9999,9999,2152767580
21,3,ISIP_8,135,9999,9999,9999,9999,2153567336
21,3,ISIP_8,136,9999,9999,9999,9999,2154368112
21,3,ISIP_8,137,9999,9999,9999,9999,2155167840
21,3,ISIP_8,138,9999,9999,9999,9999,2155967584
21,3,ISIP_8,139,9999,9999,9999,9999,2156767300
21,3,ISIP_8,140,9999,9999,9999,9999,2157568088
21,3,ISIP_8,141,9999,9999,9999,9999,2158367804
21,3,ISIP_8,142,9999,9999,9999,9999,2159167604
21,3,ISIP_8,143,9999,9999,9999,9999,2159967284
21,3,ISIP_8,144,9999,9999,9999,9999,2160768064
21,3,ISIP_8,145,9999,9999,9999,9999,2161567804
21,3,ISIP_8,146,9999,9999,9999,9999,2162367536
21,3,ISIP_8,147,9999,9999,9999,9999,2163167340
21,3,ISIP_8,148,9999,9999,9999,9999,2163968048
21,3,ISIP_8,149,9999,9999,9999,9999,2164767852
22,11,Pattern_Practice,0,5,42,127,2292421952
22,11,Pattern_Practice,1,5,42,127,2292921596
22,11,Pattern_Practice,2,5,42,127,2293421608
22,11,Pattern_Practice,3,5,42,127,2293922148
22,11,Pattern_Practice,4,5,42,127,2294421940
22,11,Pattern_Practice,5,5,42,127,2294921656
22,11,Pattern_Practice,6,5,42,127,2295422196
22,11,Pattern_Practice,7,5,42,127,2295921984
22,11,Pattern_Practice,8,1,38,43,2296418216
22,11,Pattern_Practice,9,5,42,127,2296421768
22,11,Pattern_Practice,10,1,38,36,2296869048
22,11,Pattern_Practice,11,5,42,127,2296921616
22,11,Pattern_Practice,12,5,42,127,2297422288
22,11,Pattern_Practice,13,5,42,127,2297921908
22,11,Pattern_Practice,14,1,38,39,2298304824
22,11,Pattern_Practice,15,1,38,41,2298405180
22,11,Pattern_Practice,16,5,42,127,2298421596
22,11,Pattern_Practice,17,1,38,40,2298734112
22,11,Pattern_Practice,18,1,38,35,2298877104
22,11,Pattern_Practice,19,5,42,127,2298922688
22,11,Pattern_Practice,20,1,48,40,2299172128
22,11,Pattern_Practice,21,5,42,127,2299422068
22,11,Pattern_Practice,22,5,42,127,2299921712
22,11,Pattern_Practice,23,5,42,127,2300421576
22,11,Pattern_Practice,24,5,42,127,2300922116
22,11,Pattern_Practice,25,1,38,38,2300942736
22,11,Pattern_Practice,26,1,38,32,2301300148
22,11,Pattern_Practice,27,5,42,127,2301421788
22,11,Pattern_Practice,28,1,38,39,2301426028
22,11,Pattern_Practice,29,1,38,36,2301729408
22,11,Pattern_Practice,30,5,42,127,2301921684
22,11,Pattern_Practice,31,1,38,46,2301956440
22,11,Pattern_Practice,32,5,42,127,2302422872
22,11,Pattern_Practice,33,1,38,26,2302566488
22,11,Pattern_Practice,34,5,42,127,2302921972
22,11,Pattern_Practice,35,1,38,32,2302972064
22,11,Pattern_Practice,36,1,38,42,2303418932
22,11,Pattern_Practice,37,5,42,127,2303421660
22,11,Pattern_Practice,38,1,38,35,2303739912
22,11,Pattern_Practice,39,1,38,42,2303809372
22,11,Pattern_Practice,40,5,42,127,2303921464
22,11,Pattern_Practice,41,1,38,35,2304005588
22,11,Pattern_Practice,42,1,38,49,2304278452
22,11,Pattern_Practice,43,1,38,34,2304330216
22,11,Pattern_Practice,44,5,42,127,2304422400
22,11,Pattern_Practice,45,1,48,27,2304863424
22,11,Pattern_Practice,46,5,42,127,2304921948
22,11,Pattern_Practice,47,5,42,127,2305421572
22,11,Pattern_Practice,48,5,42,127,2305922484
22,11,Pattern_Practice,49,5,42,127,2306421980
22,11,Pattern_Practice,50,5,42,127,2306921844
22,11,Pattern_Practice,51,1,38,16,2307339740
22,11,Pattern_Practice,52,5,42,127,2307421552
22,11,Pattern_Practice,53,5,42,127,2307922520
22,11,Pattern_Practice,54,1,38,17,2308016068
22,11,Pattern_Practice,55,1,38,20,2308369192
22,11,Pattern_Practice,56,5,42,127,2308422036
22,11,Pattern_Practice,57,1,38,16,2308645072
22,11,Pattern_Practice,58,5,42,127,2308921640
22,11,Pattern_Practice,59,1,38,33,2308942888
22,11,Pattern_Practice,60,1,38,21,2309397808
22,11,Pattern_Practice,61,5,42,127,2309421404
22,11,Pattern_Practice,62,1,38,18,2309614368
22,11,Pattern_Practice,63,1,38,23,2309860384
22,11,Pattern_Practice,64,5,42,127,2309922568
22,11,Pattern_Practice,65,1,38,29,2310237260
22,11,Pattern_Practice,66,1,38,27,2310319660
22,11,Pattern_Practice,67,5,42,127,2310422008
22,11,Pattern_Practice,68,1,38,17,2310503912
22,11,Pattern_Practice,69,1,38,41,2310738556
22,11,Pattern_Practice,70,5,42,127,2310921608
22,11,Pattern_Practice,71,1,38,18,2311070156
22,11,Pattern_Practice,72,1,38,32,2311175376
22,11,Pattern_Practice,73,1,38,15,2311399096
22,11,Pattern_Practice,74,5,42,127,2311422396
22,11,Pattern_Practice,75,1,38,48,2311663380
22,11,Pattern_Practice,76,1,38,30,2311712952
22,11,Pattern_Practice,77,5,42,127,2311922200
22,11,Pattern_Practice,78,1,38,15,2312101644
22,11,Pattern_Practice,79,5,42,127,2312421672
22,11,Pattern_Practice,80,1,38,40,2312602160
22,11,Pattern_Practice,81,5,42,127,2312921444
22,11,Pattern_Practice,82,1,38,33,2312970036
22,11,Pattern_Practice,83,1,38,29,2313079020
22,11,Pattern_Practice,84,1,38,38,2313317404
22,11,Pattern_Practice,85,5,42,127,2313422288
22,11,Pattern_Practice,86,1,38,42,2313556328
22,11,Pattern_Practice,87,1,38,24,2313609264
22,11,Pattern_Practice,88,1,38,25,2313827452
22,11,Pattern_Practice,89,5,42,127,2313921940
22,11,Pattern_Practice,90,1,38,35,2313971732
22,11,Pattern_Practice,91,1,38,38,2314053460
22,11,Pattern_Practice,92,1,38,40,2314336304
22,11,Pattern_Practice,93,5,42,127,2314421532
22,11,Pattern_Practice,94,1,38,38,2314570816
22,11,Pattern_Practice,95,1,38,36,2314862604
22,11,Pattern_Practice,96,5,42,127,2314922472
22,11,Pattern_Practice,97,1,38,27,2314971124
22,11,Pattern_Practice,98,1,38,39,2315109584
22,11,Pattern_Practice,99,1,38,42,2315375716
22,11,Pattern_Practice,100,5,42,127,2315422200
22,11,Pattern_Practice,101,1,38,28,2315427468
22,11,Pattern_Practice,102,1,48,50,2315708788
22,11,Pattern_Practice,103,5,42,127,2315921780
22,11,Pattern_Practice,104,1,38,31,2315977784
22,11,Pattern_Practice,105,1,38,38,2316228208
22,11,Pattern_Practice,106,5,42,127,2316421456
22,11,Pattern_Practice,107,1,38,23,2316581948
22,11,Pattern_Practice,108,1,38,44,2316699156
22,11,Pattern_Practice,109,1,38,20,2316893412
22,11,Pattern_Practice,110,5,42,127,2316922168
22,11,Pattern_Practice,111,1,38,27,2317216628
22,11,Pattern_Practice,112,5,42,127,2317422144
22,11,Pattern_Practice,113,1,38,24,2317448672
22,11,Pattern_Practice,114,1,38,26,2317717124
22,11,Pattern_Practice,115,1,38,24,2317824364
22,11,Pattern_Practice,116,5,42,127,2317921572
22,11,Pattern_Practice,117,1,38,26,2317922536
22,11,Pattern_Practice,118,1,38,31,2318204212
22,11,Pattern_Practice,119,5,42,127,2318422512
22,11,Pattern_Practice,120,1,38,31,2318445080
22,11,Pattern_Practice,121,1,38,22,2318719072
22,11,Pattern_Practice,122,1,38,29,2318828028
22,11,Pattern_Practice,123,5,42,127,2318922016
22,11,Pattern_Practice,124,1,38,29,2318972036
22,11,Pattern_Practice,125,1,38,35,2319255292
22,11,Pattern_Practice,126,5,42,127,2319421740
22,11,Pattern_Practice,127,1,48,37,2319545304
22,11,Pattern_Practice,128,5,42,127,2319921580
22,11,Pattern_Practice,129,1,48,22,2320045672
22,11,Pattern_Practice,130,1,48,35,2320352944
22,11,Pattern_Practice,131,5,42,127,2320422240
22,11,Pattern_Practice,132,1,48,15,2320574068
22,11,Pattern_Practice,133,1,48,29,2320679212
22,11,Pattern_Practice,134,5,42,127,2320921900
22,11,Pattern_Practice,135,1,48,28,2321102016
22,11,Pattern_Practice,136,1,48,15,2321282060
22,11,Pattern_Practice,137,5,42,127,2321421648
22,11,Pattern_Practice,138,1,48,16,2321666612
22,11,Pattern_Practice,139,5,42,127,2321922316
22,11,Pattern_Practice,140,5,42,127,2322422256
22,11,Pattern_Practice,141,1,38,35,2322857380
22,11,Pattern_Practice,142,5,42,127,2322921892
22,11,Pattern_Practice,143,1,38,28,2323163772
22,11,Pattern_Practice,144,1,38,23,2323256048
22,11,Pattern_Practice,145,1,38,29,2323409388
22,11,Pattern_Practice,146,5,42,127,2323421468
22,11,Pattern_Practice,147,1,38,41,2323720116
22,11,Pattern_Practice,148,5,42,127,2323922268
22,11,Pattern_Practice,149,1,38,21,2323971984
22,11,Pattern_Practice,150,1,38,24,2324237068
22,11,Pattern_Practice,151,1,38,35,2324353312
22,11,Pattern_Practice,152,5,42,127,2324422084
22,11,Pattern_Practice,153,1,38,27,2324491532
22,11,Pattern_Practice,154,1,38,45,2324788260
22,11,Pattern_Practice,155,5,42,127,2324921592
22,11,Pattern_Practice,156,1,38,25,2325017608
22,11,Pattern_Practice,157,1,38,40,2325187324
22,11,Pattern_Practice,158,1,38,20,2325360260
22,11,Pattern_Practice,159,5,42,127,2325421404
22,11,Pattern_Practice,160,1,38,37,2325517484
22,11,Pattern_Practice,161,5,42,127,2325922204
22,11,Pattern_Practice,162,1,38,29,2326127004
22,11,Pattern_Practice,163,1,38,26,2326416996
22,11,Pattern_Practice,164,5,42,127,2326421820
22,11,Pattern_Practice,165,1,38,33,2326498600
22,11,Pattern_Practice,166,1,38,32,2326652680
22,11,Pattern_Practice,167,5,42,127,2326921552
22,11,Pattern_Practice,168,1,38,30,2326928412
22,11,Pattern_Practice,169,1,38,25,2327180852
22,11,Pattern_Practice,170,5,42,127,2327422196
22,11,Pattern_Practice,171,1,38,19,2327473108
22,11,Pattern_Practice,172,1,38,30,2327637516
22,11,Pattern_Practice,173,1,38,24,2327754932
22,11,Pattern_Practice,174,5,42,127,2327921996
22,11,Pattern_Practice,175,1,38,32,2328034992
22,11,Pattern_Practice,176,1,38,22,2328258264
22,11,Pattern_Practice,177,5,42,127,2328421820
22,11,Pattern_Practice,178,1,38,19,2328579916
22,11,Pattern_Practice,179,1,38,25,2328734080
22,11,Pattern_Practice,180,1,38,28,2328839968
22,11,Pattern_Practice,181,5,42,127,2328921484
22,11,Pattern_Practice,182,1,38,39,2329131628
22,11,Pattern_Practice,183,1,38,24,2329377188
22,11,Pattern_Practice,184,5,42,127,2329422128
22,11,Pattern_Practice,185,1,38,34,2329612380
22,11,Pattern_Practice,186,1,48,35,2329890324
22,11,Pattern_Practice,187,5,42,127,2329921924
22,11,Pattern_Practice,188,5,42,127,2330421628
22,11,Pattern_Practice,189,1,38,30,2330460896
22,11,Pattern_Practice,190,1,38,21,2330675768
22,11,Pattern_Practice,191,1,38,17,2330812504
22,11,Pattern_Practice,192,1,38,17,2330922696
22,11,Pattern_Practice,193,5,42,127,2330924856
22,11,Pattern_Practice,194,1,38,26,2331255032
22,11,Pattern_Practice,195,5,42,127,2331422148
22,11,Pattern_Practice,196,1,38,21,2331870584
22,11,Pattern_Practice,197,5,42,127,2331921856
22,11,Pattern_Practice,198,1,38,13,2332141752
22,11,Pattern_Practice,199,1,38,19,2332308176
22,11,Pattern_Practice,0,9999,9999,9999,9999,2292419664
22,11,Pattern_Practice,1,9999,9999,9999,9999,2292919380
22,11,Pattern_Practice,2,9999,9999,9999,9999,2293419096
22,11,Pattern_Practice,3,9999,9999,9999,9999,2293919860
22,11,Pattern_Practice,4,9999,9999,9999,9999,2294419576
22,11,Pattern_Practice,5,9999,9999,9999,9999,2294919216
22,11,Pattern_Practice,6,9999,9999,9999,9999,2295419980
22,11,Pattern_Practice,7,9999,9999,9999,9999,2295919696
22,11,Pattern_Practice,8,9999,9999,9999,9999,2296419408
22,11,Pattern_Practice,9,9999,9999,9999,9999,2296919104
22,11,Pattern_Practice,10,9999,9999,9999,9999,2297419852
22,11,Pattern_Practice,11,9999,9999,9999,9999,2297919544
22,11,Pattern_Practice,12,9999,9999,9999,9999,2298419308
22,11,Pattern_Practice,13,9999,9999,9999,9999,2298920028
22,11,Pattern_Practice,14,9999,9999,9999,9999,2299419708
22,11,Pattern_Practice,15,9999,9999,9999,9999,2299919420
22,11,Pattern_Practice,16,9999,9999,9999,9999,2300419140
22,11,Pattern_Practice,17,9999,9999,9999,9999,2300919900
22,11,Pattern_Practice,18,9999,9999,9999,9999,2301419572
22,11,Pattern_Practice,19,9999,9999,9999,9999,2301919320
22,11,Pattern_Practice,20,9999,9999,9999,9999,2302420064
22,11,Pattern_Practice,21,9999,9999,9999,9999,2302919756
22,11,Pattern_Practice,22,9999,9999,9999,9999,2303419444
22,11,Pattern_Practice,23,9999,9999,9999,9999,2303919176
22,11,Pattern_Practice,24,9999,9999,9999,9999,2304419888
22,11,Pattern_Practice,25,9999,9999,9999,9999,2304919656
22,11,Pattern_Practice,26,9999,9999,9999,9999,2305419360
22,11,Pattern_Practice,27,9999,9999,9999,9999,2305920124
22,11,Pattern_Practice,28,9999,9999,9999,9999,2306419764
22,11,Pattern_Practice,29,9999,9999,9999,9999,2306919480
22,11,Pattern_Practice,30,9999,9999,9999,9999,2307419188
22,11,Pattern_Practice,31,9999,9999,9999,9999,2307919936
22,11,Pattern_Practice,32,9999,9999,9999,9999,2308419676
22,11,Pattern_Practice,33,9999,9999,9999,9999,2308919352
22,11,Pattern_Practice,34,9999,9999,9999,9999,2309419116
22,11,Pattern_Practice,35,9999,9999,9999,9999,2309919836
22,11,Pattern_Practice,36,9999,9999,9999,9999,2310419568
22,11,Pattern_Practice,37,9999,9999,9999,9999,2310919244
22,11,Pattern_Practice,38,9999,9999,9999,9999,2311419960
22,11,Pattern_Practice,39,9999,9999,9999,9999,2311919688
22,11,Pattern_Practice,40,9999,9999,9999,9999,2312419384
22,11,Pattern_Practice,41,9999,9999,9999,9999,2312919152
22,11,Pattern_Practice,42,9999,9999,9999,9999,2313419852
22,11,Pattern_Practice,43,9999,9999,9999,9999,2313919576
22,11,Pattern_Practice,44,9999,9999,9999,9999,2314419316
22,11,Pattern_Practice,45,9999,9999,9999,9999,2314920036
22,11,Pattern_Practice,46,9999,9999,9999,9999,2315419760
22,11,Pattern_Practice,47,9999,9999,9999,9999,2315919420
22,11,Pattern_Practice,48,9999,9999,9999,9999,2316419168
22,11,Pattern_Practice,49,9999,9999,9999,9999,2316919880
22,11,Pattern_Practice,50,9999,9999,9999,9999,2317419632
22,11,Pattern_Practice,51,9999,9999,9999,9999,2317919280
22,11,Pattern_Practice,52,9999,9999,9999,9999,2318420076
22,11,Pattern_Practice,53,9999,9999,9999,9999,2318919728
22,11,Pattern_Practice,54,9999,9999,9999,9999,2319419452
22,11,Pattern_Practice,55,9999,9999,9999,9999,2319919220
22,11,Pattern_Practice,56,9999,9999,9999,9999,2320419952
22,11,Pattern_Practice,57,9999,9999,9999,9999,2320919612
22,11,Pattern_Practice,58,9999,9999,9999,9999,2321419360
22,11,Pattern_Practice,59,9999,9999,9999,9999,2321920104
22,11,Pattern_Practice,60,9999,9999,9999,9999,2322419816
22,11,Pattern_Practice,61,9999,9999,9999,9999,2322919528
22,11,Pattern_Practice,62,9999,9999,9999,9999,2323419252
22,11,Pattern_Practice,63,9999,9999,9999,9999,2323919976
22,11,Pattern_Practice,64,9999,9999,9999,9999,2324419644
22,11,Pattern_Practice,65,9999,9999,9999,9999,2324919376
22,11,Pattern_Practice,66,9999,9999,9999,9999,2325419116
22,11,Pattern_Practice,67,9999,9999,9999,9999,2325919844
22,11,Pattern_Practice,68,9999,9999,9999,9999,2326419532
22,11,Pattern_Practice,69,9999,9999,9999,9999,2326919260
22,11,Pattern_Practice,70,9999,9999,9999,9999,2327419980
22,11,Pattern_Practice,71,9999,9999,9999,9999,2327919708
22,11,Pattern_Practice,72,9999,9999,9999,9999,2328419380
22,11,Pattern_Practice,73,9999,9999,9999,9999,2328919120
22,11,Pattern_Practice,74,9999,9999,9999,9999,2329419840
22,11,Pattern_Practice,75,9999,9999,9999,9999,2329919564
22,11,Pattern_Practice,76,9999,9999,9999,9999,2330419264
22,11,Pattern_Practice,77,9999,9999,9999,9999,2330920036
22,11,Pattern_Practice,78,9999,9999,9999,9999,2331419708
22,11,Pattern_Practice,79,9999,9999,9999,9999,2331919416
23,13,Improv_Metronome,0,5,42,127,2361674200
23,13,Improv_Metronome,1,5,42,127,2362173668
23,13,Improv_Metronome,2,1,38,36,2362224308
23,13,Improv_Metronome,3,5,42,127,2362673440
23,13,Improv_Metronome,4,5,42,127,2363174352
23,13,Improv_Metronome,5,5,42,127,2363674068
23,13,Improv_Metronome,6,1,38,27,2364136500
23,13,Improv_Metronome,7,5,42,127,2364173556
23,13,Improv_Metronome,8,5,42,127,2364674380
23,13,Improv_Metronome,9,5,42,127,2365174244
23,13,Improv_Metronome,10,5,42,127,2365673812
23,13,Improv_Metronome,11,5,42,127,2366173528
23,13,Improv_Metronome,12,1,38,33,2366200060
23,13,Improv_Metronome,13,5,42,127,2366674272
23,13,Improv_Metronome,14,5,42,127,2367174212
23,13,Improv_Metronome,15,5,42,127,2367673632
23,13,Improv_Metronome,16,1,38,43,2368091100
23,13,Improv_Metronome,17,5,42,127,2368173488
23,13,Improv_Metronome,18,5,42,127,2368674012
23,13,Improv_Metronome,19,5,42,127,2369174028
23,13,Improv_Metronome,20,5,42,127,2369673524
23,13,Improv_Metronome,21,1,38,44,2369883104
23,13,Improv_Metronome,22,1,38,42,2370150812
23,13,Improv_Metronome,23,5,42,127,2370174256
23,13,Improv_Metronome,24,5,42,127,2370674184
23,13,Improv_Metronome,25,5,42,127,2371173676
23,13,Improv_Metronome,26,5,42,127,2371673320
23,13,Improv_Metronome,27,1,38,47,2371905092
23,13,Improv_Metronome,28,1,38,47,2372135844
23,13,Improv_Metronome,29,5,42,127,2372174128
23,13,Improv_Metronome,30,5,42,127,2372674252
23,13,Improv_Metronome,31,5,42,127,2373173968
23,13,Improv_Metronome,32,5,42,127,2373674436
23,13,Improv_Metronome,33,1,38,16,2373935780
23,13,Improv_Metronome,34,5,42,127,2374174056
23,13,Improv_Metronome,35,1,38,56,2374217816
23,13,Improv_Metronome,36,1,38,21,2374296104
23,13,Improv_Metronome,37,5,42,127,2374673952
23,13,Improv_Metronome,38,5,42,127,2375173596
23,13,Improv_Metronome,39,5,42,127,2375674208
23,13,Improv_Metronome,40,1,38,38,2375920292
23,13,Improv_Metronome,41,5,42,127,2376174052
23,13,Improv_Metronome,42,1,38,39,2376195644
23,13,Improv_Metronome,43,5,42,127,2376673596
23,13,Improv_Metronome,44,5,42,127,2377174360
23,13,Improv_Metronome,45,5,42,127,2377674080
23,13,Improv_Metronome,46,1,38,41,2377887028
23,13,Improv_Metronome,47,1,38,46,2378121300
23,13,Improv_Metronome,48,5,42,127,2378173988
23,13,Improv_Metronome,49,1,38,50,2378256604
23,13,Improv_Metronome,50,1,38,57,2378392288
23,13,Improv_Metronome,51,5,42,127,2378673496
23,13,Improv_Metronome,52,5,42,127,2379174188
23,13,Improv_Metronome,53,5,42,127,2379674052
23,13,Improv_Metronome,54,1,38,38,2379938612
23,13,Improv_Metronome,55,5,42,127,2380173896
23,13,Improv_Metronome,56,1,38,36,2380176940
23,13,Improv_Metronome,57,1,38,41,2380290540
23,13,Improv_Metronome,58,1,38,42,2380431232
23,13,Improv_Metronome,59,5,42,127,2380674372
23,13,Improv_Metronome,60,1,48,59,2380733212
23,13,Improv_Metronome,61,5,42,127,2381174068
23,13,Improv_Metronome,62,5,42,127,2381673932
23,13,Improv_Metronome,63,1,38,64,2381920544
23,13,Improv_Metronome,64,1,38,39,2382138484
23,13,Improv_Metronome,65,5,42,127,2382173844
23,13,Improv_Metronome,66,1,38,51,2382247780
23,13,Improv_Metronome,67,1,38,53,2382418100
23,13,Improv_Metronome,68,5,42,127,2382674400
23,13,Improv_Metronome,69,1,48,59,2382697188
23,13,Improv_Metronome,70,5,42,127,2383173944
23,13,Improv_Metronome,71,5,42,127,2383673860
23,13,Improv_Metronome,72,1,38,51,2383901172
23,13,Improv_Metronome,73,1,38,35,2384129828
23,13,Improv_Metronome,74,5,42,127,2384173548
23,13,Improv_Metronome,75,1,38,48,2384252520
23,13,Improv_Metronome,76,1,38,50,2384410096
23,13,Improv_Metronome,77,5,42,127,2384674176
23,13,Improv_Metronome,78,1,48,60,2384685224
23,13,Improv_Metronome,79,5,42,127,2385173872
23,13,Improv_Metronome,80,5,42,127,2385673588
23,13,Improv_Metronome,81,1,38,48,2385902920
23,13,Improv_Metronome,82,1,38,38,2386122156
23,13,Improv_Metronome,83,5,42,127,2386174172
23,13,Improv_Metronome,84,1,38,55,2386246188
23,13,Improv_Metronome,85,1,38,55,2386401748
23,13,Improv_Metronome,86,1,48,63,2386666736
23,13,Improv_Metronome,87,5,42,127,2386674024
23,13,Improv_Metronome,88,5,42,127,2387173724
23,13,Improv_Metronome,89,5,42,127,2387673516
23,13,Improv_Metronome,90,1,38,44,2387920948
23,13,Improv_Metronome,91,1,38,35,2388092016
23,13,Improv_Metronome,92,5,42,127,2388174176
23,13,Improv_Metronome,93,1,38,50,2388238912
23,13,Improv_Metronome,94,1,38,49,2388385072
23,13,Improv_Metronome,95,5,42,127,2388673832
23,13,Improv_Metronome,96,1,48,48,2388718912
23,13,Improv_Metronome,97,5,42,127,2389174124
23,13,Improv_Metronome,98,5,42,127,2389674216
23,13,Improv_Metronome,99,5,42,127,2390174156
23,13,Improv_Metronome,100,1,38,40,2390386508
23,13,Improv_Metronome,101,1,38,30,2390488812
23,13,Improv_Metronome,102,5,42,127,2390673756
23,13,Improv_Metronome,103,1,48,16,2390848984
23,13,Improv_Metronome,104,5,42,127,2391173600
23,13,Improv_Metronome,105,5,42,127,2391674140
23,13,Improv_Metronome,106,1,38,29,2392047008
23,13,Improv_Metronome,107,5,42,127,2392173836
23,13,Improv_Metronome,108,1,38,38,2392338740
23,13,Improv_Metronome,109,1,38,45,2392471208
23,13,Improv_Metronome,110,1,38,47,2392617492
23,13,Improv_Metronome,111,5,42,127,2392673576
23,13,Improv_Metronome,112,1,38,65,2392906552
23,13,Improv_Metronome,113,1,38,41,2392947372
23,13,Improv_Metronome,114,5,42,127,2393174504
23,13,Improv_Metronome,115,1,48,56,2393248528
23,13,Improv_Metronome,116,1,48,29,2393541288
23,13,Improv_Metronome,117,5,42,127,2393674028
23,13,Improv_Metronome,118,1,38,29,2393859724
23,13,Improv_Metronome,119,1,38,32,2394151736
23,13,Improv_Metronome,120,5,42,127,2394173692
23,13,Improv_Metronome,121,1,38,35,2394440576
23,13,Improv_Metronome,122,1,38,41,2394544452
23,13,Improv_Metronome,123,5,42,127,2394673496
23,13,Improv_Metronome,124,1,38,43,2394718676
23,13,Improv_Metronome,125,1,38,47,2394927712
23,13,Improv_Metronome,126,5,42,127,2395174216
23,13,Improv_Metronome,127,1,38,42,2395226724
23,13,Improv_Metronome,128,5,42,127,2395674060
23,13,Improv_Metronome,129,1,38,37,2396121604
23,13,Improv_Metronome,130,5,42,127,2396173696
23,13,Improv_Metronome,131,1,38,40,2396451180
23,13,Improv_Metronome,132,1,38,40,2396538768
23,13,Improv_Metronome,133,5,42,127,2396674620
23,13,Improv_Metronome,134,1,38,41,2396841200
23,13,Improv_Metronome,135,1,38,36,2397130664
23,13,Improv_Metronome,136,5,42,127,2397174012
23,13,Improv_Metronome,137,1,38,33,2397382532
23,13,Improv_Metronome,138,1,38,45,2397541256
23,13,Improv_Metronome,139,5,42,127,2397673744
23,13,Improv_Metronome,140,1,38,48,2397847652
23,13,Improv_Metronome,141,5,42,127,2398173440
23,13,Improv_Metronome,142,1,38,32,2398357596
23,13,Improv_Metronome,143,1,38,25,2398662468
23,13,Improv_Metronome,144,5,42,127,2398674544
23,13,Improv_Metronome,145,1,38,43,2398693732
23,13,Improv_Metronome,146,1,38,22,2398874944
23,13,Improv_Metronome,147,1,38,35,2399138460
23,13,Improv_Metronome,148,5,42,127,2399173948
23,13,Improv_Metronome,149,1,48,32,2399428472
23,13,Improv_Metronome,150,5,42,127,2399673856
23,13,Improv_Metronome,151,5,42,127,2400173348
23,13,Improv_Metronome,152,1,38,19,2400557364
23,13,Improv_Metronome,153,5,42,127,2400674312
23,13,Improv_Metronome,154,1,38,29,2400986820
23,13,Improv_Metronome,155,5,42,127,2401173784
23,13,Improv_Metronome,156,1,38,21,2401649224
23,13,Improv_Metronome,157,5,42,127,2401673496
23,13,Improv_Metronome,158,5,42,127,2402174540
23,13,Improv_Metronome,159,5,42,127,2402674108
23,13,Improv_Metronome,160,5,42,127,2403173680
23,13,Improv_Metronome,161,1,38,36,2403190936
23,13,Improv_Metronome,162,5,42,127,2403673596
23,13,Improv_Metronome,163,1,38,38,2404168632
23,13,Improv_Metronome,164,5,42,127,2404174352
23,13,Improv_Metronome,165,5,42,127,2404673904
23,13,Improv_Metronome,166,1,38,25,2405166376
23,13,Improv_Metronome,167,5,42,127,2405173588
23,13,Improv_Metronome,168,5,42,127,2405674488
23,13,Improv_Metronome,169,1,38,37,2405880776
23,13,Improv_Metronome,170,1,38,39,2406064932
23,13,Improv_Metronome,171,1,38,32,2406170904
23,13,Improv_Metronome,172,5,42,127,2406174304
23,13,Improv_Metronome,173,5,42,127,2406673856
23,13,Improv_Metronome,174,1,38,40,2407095444
23,13,Improv_Metronome,175,5,42,127,2407173492
23,13,Improv_Metronome,176,5,42,127,2407674464
23,13,Improv_Metronome,177,1,38,49,2408143252
23,13,Improv_Metronome,178,5,42,127,2408173800
23,13,Improv_Metronome,179,5,42,127,2408673504
23,13,Improv_Metronome,180,1,38,45,2409131516
23,13,Improv_Metronome,181,5,42,127,2409174336
23,13,Improv_Metronome,182,5,42,127,2409674408
23,13,Improv_Metronome,183,1,38,34,2409848916
23,13,Improv_Metronome,184,1,38,47,2410102556
23,13,Improv_Metronome,185,5,42,127,2410173800
23,13,Improv_Metronome,186,1,48,41,2410443812
23,13,Improv_Metronome,187,5,42,127,2410673556
23,13,Improv_Metronome,188,1,38,51,2411137772
23,13,Improv_Metronome,189,5,42,127,2411174312
23,13,Improv_Metronome,190,5,42,127,2411674084
23,13,Improv_Metronome,191,1,38,40,2412136960
23,13,Improv_Metronome,192,5,42,127,2412173796
23,13,Improv_Metronome,193,5,42,127,2412674396
23,13,Improv_Metronome,194,5,42,127,2413174184
23,13,Improv_Metronome,195,1,38,49,2413198472
23,13,Improv_Metronome,196,5,42,127,2413673880
23,13,Improv_Metronome,197,1,38,44,2413921160
23,13,Improv_Metronome,198,5,42,127,2414173500
23,13,Improv_Metronome,199,1,38,50,2414205412
23,13,Improv_Metronome,200,1,38,38,2414431232
23,13,Improv_Metronome,201,1,38,45,2414596064
23,13,Improv_Metronome,202,5,42,127,2414674212
23,13,Improv_Metronome,203,5,42,127,2415174212
23,13,Improv_Metronome,204,1,38,46,2415178904
23,13,Improv_Metronome,205,5,42,127,2415673660
23,13,Improv_Metronome,206,5,42,127,2416173524
23,13,Improv_Metronome,207,1,38,51,2416174564
23,13,Improv_Metronome,208,5,42,127,2416674040
23,13,Improv_Metronome,209,1,38,55,2417152772
23,13,Improv_Metronome,210,5,42,127,2417174048
23,13,Improv_Metronome,211,5,42,127,2417673528
23,13,Improv_Metronome,212,1,38,45,2417843020
23,13,Improv_Metronome,213,1,38,40,2418087760
23,13,Improv_Metronome,214,5,42,127,2418174260
23,13,Improv_Metronome,215,1,38,46,2418194868
23,13,Improv_Metronome,216,1,38,52,2418317616
23,13,Improv_Metronome,217,5,42,127,2418674144
23,13,Improv_Metronome,218,1,38,52,2419102164
23,13,Improv_Metronome,219,5,42,127,2419173852
23,13,Improv_Metronome,220,5,42,127,2419673552
23,13,Improv_Metronome,221,1,38,54,2420154756
23,13,Improv_Metronome,222,5,42,127,2420174312
23,13,Improv_Metronome,223,5,42,127,2420674012
23,13,Improv_Metronome,224,5,42,127,2421173580
23,13,Improv_Metronome,225,1,38,48,2421181936
23,13,Improv_Metronome,226,5,42,127,2421674324
23,13,Improv_Metronome,227,1,38,51,2421934472
23,13,Improv_Metronome,228,5,42,127,2422173944
23,13,Improv_Metronome,229,1,38,47,2422190300
23,13,Improv_Metronome,230,1,38,56,2422278984
23,13,Improv_Metronome,231,1,38,56,2422395004
23,13,Improv_Metronome,232,5,42,127,2422673892
23,13,Improv_Metronome,233,1,38,63,2423166460
23,13,Improv_Metronome,234,5,42,127,2423173528
23,13,Improv_Metronome,235,5,42,127,2423674128
23,13,Improv_Metronome,236,1,38,61,2424136032
23,13,Improv_Metronome,237,5,42,127,2424173988
23,13,Improv_Metronome,238,5,42,127,2424673540
23,13,Improv_Metronome,239,1,38,77,2425167984
23,13,Improv_Metronome,240,5,42,127,2425174448
23,13,Improv_Metronome,241,5,42,127,2425674224
23,13,Improv_Metronome,242,1,38,59,2425977752
23,13,Improv_Metronome,243,5,42,127,2426173892
23,13,Improv_Metronome,244,1,38,40,2426232588
23,13,Improv_Metronome,245,1,38,66,2426329356
23,13,Improv_Metronome,246,1,38,57,2426483216
23,13,Improv_Metronome,247,5,42,127,2426673444
23,13,Improv_Metronome,248,5,42,127,2427174208
23,13,Improv_Metronome,249,1,38,66,2427204576
23,13,Improv_Metronome,250,5,42,127,2427673828
23,13,Improv_Metronome,251,1,38,70,2428158692
23,13,Improv_Metronome,252,5,42,127,2428173840
23,13,Improv_Metronome,253,5,42,127,2428674364
23,13,Improv_Metronome,254,5,42,127,2429174080
23,13,Improv_Metronome,255,1,38,51,2429208088
23,13,Improv_Metronome,256,5,42,127,2429673776
23,13,Improv_Metronome,257,1,38,53,2429937656
23,13,Improv_Metronome,258,1,38,56,2430164080
23,13,Improv_Metronome,259,5,42,127,2430173536
23,13,Improv_Metronome,260,5,42,127,2430674136
23,13,Improv_Metronome,261,1,48,60,2431117260
23,13,Improv_Metronome,262,5,42,127,2431173996
23,13,Improv_Metronome,0,9999,9999,9999,9999,2361671768
23,13,Improv_Metronome,1,9999,9999,9999,9999,2362171456
23,13,Improv_Metronome,2,9999,9999,9999,9999,2362671152
23,13,Improv_Metronome,3,9999,9999,9999,9999,2363171916
23,13,Improv_Metronome,4,9999,9999,9999,9999,2363671632
23,13,Improv_Metronome,5,9999,9999,9999,9999,2364171344
23,13,Improv_Metronome,6,9999,9999,9999,9999,2364672092
23,13,Improv_Metronome,7,9999,9999,9999,9999,2365171808
23,13,Improv_Metronome,8,9999,9999,9999,9999,2365671524
23,13,Improv_Metronome,9,9999,9999,9999,9999,2366171240
23,13,Improv_Metronome,10,9999,9999,9999,9999,2366671984
23,13,Improv_Metronome,11,9999,9999,9999,9999,2367171700
23,13,Improv_Metronome,12,9999,9999,9999,9999,2367671420
23,13,Improv_Metronome,13,9999,9999,9999,9999,2368171128
23,13,Improv_Metronome,14,9999,9999,9999,9999,2368671800
23,13,Improv_Metronome,15,9999,9999,9999,9999,2369171520
23,13,Improv_Metronome,16,9999,9999,9999,9999,2369671236
23,13,Improv_Metronome,17,9999,9999,9999,9999,2370171972
23,13,Improv_Metronome,18,9999,9999,9999,9999,2370671672
23,13,Improv_Metronome,19,9999,9999,9999,9999,2371171388
23,13,Improv_Metronome,20,9999,9999,9999,9999,2371671108
23,13,Improv_Metronome,21,9999,9999,9999,9999,2372171844
23,13,Improv_Metronome,22,9999,9999,9999,9999,2372671592
23,13,Improv_Metronome,23,9999,9999,9999,9999,2373171308
23,13,Improv_Metronome,24,9999,9999,9999,9999,2373672000
23,13,Improv_Metronome,25,9999,9999,9999,9999,2374171768
23,13,Improv_Metronome,26,9999,9999,9999,9999,2374671444
23,13,Improv_Metronome,27,9999,9999,9999,9999,2375171160
23,13,Improv_Metronome,28,9999,9999,9999,9999,2375671920
23,13,Improv_Metronome,29,9999,9999,9999,9999,2376171616
23,13,Improv_Metronome,30,9999,9999,9999,9999,2376671312
23,13,Improv_Metronome,31,9999,9999,9999,9999,2377172076
23,13,Improv_Metronome,32,9999,9999,9999,9999,2377671792
23,13,Improv_Metronome,33,9999,9999,9999,9999,2378171480
23,13,Improv_Metronome,34,9999,9999,9999,9999,2378671212
23,13,Improv_Metronome,35,9999,9999,9999,9999,2379171900
23,13,Improv_Metronome,36,9999,9999,9999,9999,2379671616
23,13,Improv_Metronome,37,9999,9999,9999,9999,2380171312
23,13,Improv_Metronome,38,9999,9999,9999,9999,2380672084
23,13,Improv_Metronome,39,9999,9999,9999,9999,2381171780
23,13,Improv_Metronome,40,9999,9999,9999,9999,2381671496
23,13,Improv_Metronome,41,9999,9999,9999,9999,2382171184
23,13,Improv_Metronome,42,9999,9999,9999,9999,2382671964
23,13,Improv_Metronome,43,9999,9999,9999,9999,2383171660
23,13,Improv_Metronome,44,9999,9999,9999,9999,2383671348
23,13,Improv_Metronome,45,9999,9999,9999,9999,2384171112
23,13,Improv_Metronome,46,9999,9999,9999,9999,2384671816
23,13,Improv_Metronome,47,9999,9999,9999,9999,2385171512
23,13,Improv_Metronome,48,9999,9999,9999,9999,2385671228
23,13,Improv_Metronome,49,9999,9999,9999,9999,2386171960
23,13,Improv_Metronome,50,9999,9999,9999,9999,2386671736
23,13,Improv_Metronome,51,9999,9999,9999,9999,2387171440
23,13,Improv_Metronome,52,9999,9999,9999,9999,2387671156
23,13,Improv_Metronome,53,9999,9999,9999,9999,2388171888
23,13,Improv_Metronome,54,9999,9999,9999,9999,2388671548
23,13,Improv_Metronome,55,9999,9999,9999,9999,2389171316
23,13,Improv_Metronome,56,9999,9999,9999,9999,2389672004
23,13,Improv_Metronome,57,9999,9999,9999,9999,2390171720
23,13,Improv_Metronome,58,9999,9999,9999,9999,2390671472
23,13,Improv_Metronome,59,9999,9999,9999,9999,2391171164
23,13,Improv_Metronome,60,9999,9999,9999,9999,2391671928
23,13,Improv_Metronome,61,9999,9999,9999,9999,2392171624
23,13,Improv_Metronome,62,9999,9999,9999,9999,2392671288
23,13,Improv_Metronome,63,9999,9999,9999,9999,2393172068
23,13,Improv_Metronome,64,9999,9999,9999,9999,2393671740
23,13,Improv_Metronome,65,9999,9999,9999,9999,2394171480
23,13,Improv_Metronome,66,9999,9999,9999,9999,2394671212
23,13,Improv_Metronome,67,9999,9999,9999,9999,2395171932
23,13,Improv_Metronome,68,9999,9999,9999,9999,2395671624
23,13,Improv_Metronome,69,9999,9999,9999,9999,2396171336
23,13,Improv_Metronome,70,9999,9999,9999,9999,2396672112
23,13,Improv_Metronome,71,9999,9999,9999,9999,2397171800
23,13,Improv_Metronome,72,9999,9999,9999,9999,2397671532
23,13,Improv_Metronome,73,9999,9999,9999,9999,2398171228
23,13,Improv_Metronome,74,9999,9999,9999,9999,2398671964
23,13,Improv_Metronome,75,9999,9999,9999,9999,2399171664
23,13,Improv_Metronome,76,9999,9999,9999,9999,2399671420
23,13,Improv_Metronome,77,9999,9999,9999,9999,2400171060
23,13,Improv_Metronome,78,9999,9999,9999,9999,2400671804
23,13,Improv_Metronome,79,9999,9999,9999,9999,2401171572
23,13,Improv_Metronome,80,9999,9999,9999,9999,2401671284
23,13,Improv_Metronome,81,9999,9999,9999,9999,2402171956
23,13,Improv_Metronome,82,9999,9999,9999,9999,2402671672
23,13,Improv_Metronome,83,9999,9999,9999,9999,2403171392
23,13,Improv_Metronome,84,9999,9999,9999,9999,2403671160
23,13,Improv_Metronome,85,9999,9999,9999,9999,2404171844
23,13,Improv_Metronome,86,9999,9999,9999,9999,2404671592
23,13,Improv_Metronome,87,9999,9999,9999,9999,2405171304
23,13,Improv_Metronome,88,9999,9999,9999,9999,2405672052
23,13,Improv_Metronome,89,9999,9999,9999,9999,2406171720
23,13,Improv_Metronome,90,9999,9999,9999,9999,2406671420
23,13,Improv_Metronome,91,9999,9999,9999,9999,2407171132
23,13,Improv_Metronome,92,9999,9999,9999,9999,2407671880
23,13,Improv_Metronome,93,9999,9999,9999,9999,2408171592
23,13,Improv_Metronome,94,9999,9999,9999,9999,2408671292
23,13,Improv_Metronome,95,9999,9999,9999,9999,2409172048
23,13,Improv_Metronome,96,9999,9999,9999,9999,2409671752
23,13,Improv_Metronome,97,9999,9999,9999,9999,2410171512
23,13,Improv_Metronome,98,9999,9999,9999,9999,2410671196
23,13,Improv_Metronome,99,9999,9999,9999,9999,2411171952
23,13,Improv_Metronome,100,9999,9999,9999,9999,2411671652
23,13,Improv_Metronome,101,9999,9999,9999,9999,2412171360
23,13,Improv_Metronome,102,9999,9999,9999,9999,2412672108
23,13,Improv_Metronome,103,9999,9999,9999,9999,2413171824
23,13,Improv_Metronome,104,9999,9999,9999,9999,2413671520
23,13,Improv_Metronome,105,9999,9999,9999,9999,2414171212
23,13,Improv_Metronome,106,9999,9999,9999,9999,2414671928
23,13,Improv_Metronome,107,9999,9999,9999,9999,2415171704
23,13,Improv_Metronome,108,9999,9999,9999,9999,2415671372
23,13,Improv_Metronome,109,9999,9999,9999,9999,2416171088
23,13,Improv_Metronome,110,9999,9999,9999,9999,2416671828
23,13,Improv_Metronome,111,9999,9999,9999,9999,2417171540
23,13,Improv_Metronome,112,9999,9999,9999,9999,2417671240
23,13,Improv_Metronome,113,9999,9999,9999,9999,2418171976
23,13,Improv_Metronome,114,9999,9999,9999,9999,2418671708
23,13,Improv_Metronome,115,9999,9999,9999,9999,2419171420
23,13,Improv_Metronome,116,9999,9999,9999,9999,2419671120
23,13,Improv_Metronome,117,9999,9999,9999,9999,2420171876
23,13,Improv_Metronome,118,9999,9999,9999,9999,2420671576
23,13,Improv_Metronome,119,9999,9999,9999,9999,2421171296
23,13,Improv_Metronome,120,9999,9999,9999,9999,2421672036
23,13,Improv_Metronome,121,9999,9999,9999,9999,2422171728
23,13,Improv_Metronome,122,9999,9999,9999,9999,2422671456
23,13,Improv_Metronome,123,9999,9999,9999,9999,2423171168
23,13,Improv_Metronome,124,9999,9999,9999,9999,2423671916
23,13,Improv_Metronome,125,9999,9999,9999,9999,2424171628
23,13,Improv_Metronome,126,9999,9999,9999,9999,2424671328
23,13,Improv_Metronome,127,9999,9999,9999,9999,2425172084
23,13,Improv_Metronome,128,9999,9999,9999,9999,2425671788
23,13,Improv_Metronome,129,9999,9999,9999,9999,2426171460
23,13,Improv_Metronome,130,9999,9999,9999,9999,2426671160
23,13,Improv_Metronome,131,9999,9999,9999,9999,2427171924
23,13,Improv_Metronome,132,9999,9999,9999,9999,2427671616
23,13,Improv_Metronome,133,9999,9999,9999,9999,2428171328
23,13,Improv_Metronome,134,9999,9999,9999,9999,2428672076
23,13,Improv_Metronome,135,9999,9999,9999,9999,2429171792
23,13,Improv_Metronome,136,9999,9999,9999,9999,2429671488
23,13,Improv_Metronome,137,9999,9999,9999,9999,2430171248
23,13,Improv_Metronome,138,9999,9999,9999,9999,2430671924
23,13,Improv_Metronome,139,9999,9999,9999,9999,2431171636
24,14,Improv_Melody,0,2,48,80,2484096448
24,14,Improv_Melody,1,2,72,80,2484099120
24,14,Improv_Melody,2,5,42,127,2484100756
24,14,Improv_Melody,3,5,42,110,2484593000
24,14,Improv_Melody,4,5,42,110,2485092648
24,14,Improv_Melody,5,5,42,110,2485592516
24,14,Improv_Melody,6,5,42,127,2486093140
24,14,Improv_Melody,7,5,42,110,2486592784
24,14,Improv_Melody,8,5,42,110,2487092632
24,14,Improv_Melody,9,5,42,110,2487593400
24,14,Improv_Melody,10,2,43,80,2488095472
24,14,Improv_Melody,11,2,67,80,2488097476
24,14,Improv_Melody,12,5,42,127,2488100016
24,14,Improv_Melody,13,5,42,110,2488592632
24,14,Improv_Melody,14,5,42,110,2489092580
24,14,Improv_Melody,15,5,42,110,2489593200
24,14,Improv_Melody,16,5,42,127,2490092772
24,14,Improv_Melody,17,5,42,110,2490592716
24,14,Improv_Melody,18,5,42,110,2491093556
24,14,Improv_Melody,19,5,42,110,2491593352
24,14,Improv_Melody,20,2,45,80,2492095432
24,14,Improv_Melody,21,2,69,80,2492097432
24,14,Improv_Melody,22,5,42,127,2492100120
24,14,Improv_Melody,23,5,42,110,2492592440
24,14,Improv_Melody,24,5,42,110,2493093504
24,14,Improv_Melody,25,5,42,110,2493592932
24,14,Improv_Melody,26,5,42,127,2494092576
24,14,Improv_Melody,27,5,42,110,2494593568
24,14,Improv_Melody,28,5,42,110,2495093068
24,14,Improv_Melody,29,5,42,110,2495592788
24,14,Improv_Melody,30,2,41,80,2496094936
24,14,Improv_Melody,31,2,65,80,2496097164
24,14,Improv_Melody,32,5,42,127,2496099852
24,14,Improv_Melody,33,5,42,110,2496593516
24,14,Improv_Melody,34,5,42,110,2497093016
24,14,Improv_Melody,35,5,42,110,2497592564
24,14,Improv_Melody,36,5,42,127,2498093404
24,14,Improv_Melody,37,5,42,110,2498593424
24,14,Improv_Melody,38,5,42,110,2499092776
24,14,Improv_Melody,39,5,42,110,2499592644
24,14,Improv_Melody,40,2,48,80,2500095844
24,14,Improv_Melody,41,2,72,80,2500098076
24,14,Improv_Melody,42,5,42,127,2500100460
24,14,Improv_Melody,43,1,38,46,2500113076
24,14,Improv_Melody,44,5,42,110,2500593200
24,14,Improv_Melody,45,1,38,42,2500598792
24,14,Improv_Melody,46,1,38,46,2501090388
24,14,Improv_Melody,47,5,42,110,2501092744
24,14,Improv_Melody,48,1,38,18,2501171916
24,14,Improv_Melody,49,1,38,41,2501588272
24,14,Improv_Melody,50,5,42,110,2501592424
24,14,Improv_Melody,51,1,38,20,2501669352
24,14,Improv_Melody,52,1,38,51,2502078524
24,14,Improv_Melody,53,5,42,127,2502093372
24,14,Improv_Melody,54,1,38,58,2502554668
24,14,Improv_Melody,55,5,42,110,2502592852
24,14,Improv_Melody,56,1,38,47,2503081664
24,14,Improv_Melody,57,5,42,110,2503092476
24,14,Improv_Melody,58,1,38,47,2503592404
24,14,Improv_Melody,59,5,42,110,2503594568
24,14,Improv_Melody,60,1,38,44,2504047784
24,14,Improv_Melody,61,2,43,80,2504095728
24,14,Improv_Melody,62,2,67,80,2504097956
24,14,Improv_Melody,63,5,42,127,2504100564
24,14,Improv_Melody,64,1,48,46,2504580184
24,14,Improv_Melody,65,5,42,110,2504592860
24,14,Improv_Melody,66,1,48,42,2505079504
24,14,Improv_Melody,67,5,42,110,2505092488
24,14,Improv_Melody,68,1,48,52,2505578984
24,14,Improv_Melody,69,5,42,110,2505593308
24,14,Improv_Melody,70,1,48,54,2506081000
24,14,Improv_Melody,71,5,42,127,2506092860
24,14,Improv_Melody,72,1,48,52,2506583248
24,14,Improv_Melody,73,5,42,110,2506592488
24,14,Improv_Melody,74,1,48,52,2507092180
24,14,Improv_Melody,75,5,42,110,2507093752
24,14,Improv_Melody,76,5,42,110,2507593164
24,14,Improv_Melody,77,1,48,52,2507631284
24,14,Improv_Melody,78,2,45,80,2508095440
24,14,Improv_Melody,79,2,69,80,2508097440
24,14,Improv_Melody,80,5,42,127,2508100352
24,14,Improv_Melody,81,1,48,45,2508569484
24,14,Improv_Melody,82,5,42,110,2508592492
24,14,Improv_Melody,83,1,48,51,2509053112
24,14,Improv_Melody,84,5,42,110,2509093312
24,14,Improv_Melody,85,1,48,53,2509567096
24,14,Improv_Melody,86,5,42,110,2509593088
24,14,Improv_Melody,87,1,48,52,2510080260
24,14,Improv_Melody,88,5,42,127,2510092640
24,14,Improv_Melody,89,1,48,53,2510573680
24,14,Improv_Melody,90,5,42,110,2510593388
24,14,Improv_Melody,91,1,48,50,2511079132
24,14,Improv_Melody,92,5,42,110,2511093084
24,14,Improv_Melody,93,1,48,51,2511592496
24,14,Improv_Melody,94,5,42,110,2511593980
24,14,Improv_Melody,95,2,41,80,2512095072
24,14,Improv_Melody,96,2,65,80,2512097072
24,14,Improv_Melody,97,5,42,127,2512099536
24,14,Improv_Melody,98,5,42,110,2512593348
24,14,Improv_Melody,99,1,48,46,2512615168
24,14,Improv_Melody,100,1,48,50,2513089564
24,14,Improv_Melody,101,5,42,110,2513092896
24,14,Improv_Melody,102,1,48,51,2513586200
24,14,Improv_Melody,103,5,42,110,2513592744
24,14,Improv_Melody,104,5,42,127,2514093496
24,14,Improv_Melody,105,1,48,55,2514096168
24,14,Improv_Melody,106,5,42,110,2514593124
24,14,Improv_Melody,107,1,48,52,2514609852
24,14,Improv_Melody,108,5,42,110,2515092972
24,14,Improv_Melody,109,1,48,48,2515108208
24,14,Improv_Melody,110,5,42,110,2515592672
24,14,Improv_Melody,111,1,48,46,2515627876
24,14,Improv_Melody,112,2,48,80,2516095848
24,14,Improv_Melody,113,2,72,80,2516097924
24,14,Improv_Melody,114,5,42,127,2516100468
24,14,Improv_Melody,115,1,38,43,2516469968
24,14,Improv_Melody,116,1,38,59,2516577828
24,14,Improv_Melody,117,5,42,110,2516592976
24,14,Improv_Melody,118,1,38,47,2516848248
24,14,Improv_Melody,119,5,42,110,2517092888
24,14,Improv_Melody,120,1,38,41,2517299232
24,14,Improv_Melody,121,1,38,42,2517516816
24,14,Improv_Melody,122,5,42,110,2517592428
24,14,Improv_Melody,123,5,42,127,2518093256
24,14,Improv_Melody,124,1,38,46,2518482136
24,14,Improv_Melody,125,1,38,41,2518570592
24,14,Improv_Melody,126,5,42,110,2518592800
24,14,Improv_Melody,127,1,38,52,2518834584
24,14,Improv_Melody,128,5,42,110,2519092460
24,14,Improv_Melody,129,1,38,18,2519319392
24,14,Improv_Melody,130,1,38,54,2519581264
24,14,Improv_Melody,131,5,42,110,2519593348
24,14,Improv_Melody,132,2,43,80,2520095788
24,14,Improv_Melody,133,2,67,80,2520097708
24,14,Improv_Melody,134,5,42,127,2520100248
24,14,Improv_Melody,135,1,48,59,2520522580
24,14,Improv_Melody,136,1,48,37,2520592472
24,14,Improv_Melody,137,5,42,110,2520593884
24,14,Improv_Melody,138,1,48,46,2520847736
24,14,Improv_Melody,139,5,42,110,2521092372
24,14,Improv_Melody,140,1,48,52,2521368376
24,14,Improv_Melody,141,5,42,110,2521593120
24,14,Improv_Melody,142,1,48,36,2521601696
24,14,Improv_Melody,143,5,42,127,2522092892
24,14,Improv_Melody,144,1,48,54,2522500716
24,14,Improv_Melody,145,5,42,110,2522592756
24,14,Improv_Melody,146,1,48,34,2522605588
24,14,Improv_Melody,147,1,48,51,2522870296
24,14,Improv_Melody,148,5,42,110,2523093316
24,14,Improv_Melody,149,1,48,41,2523356080
24,14,Improv_Melody,150,5,42,110,2523593140
24,14,Improv_Melody,151,1,48,59,2523631720
24,14,Improv_Melody,152,2,45,80,2524095348
24,14,Improv_Melody,153,2,69,80,2524097496
24,14,Improv_Melody,154,5,42,127,2524100036
24,14,Improv_Melody,155,1,38,37,2524460636
24,14,Improv_Melody,156,1,38,39,2524573656
24,14,Improv_Melody,157,5,42,110,2524592696
24,14,Improv_Melody,158,1,48,56,2524853284
24,14,Improv_Melody,159,5,42,110,2525093280
24,14,Improv_Melody,160,1,38,46,2525367936
24,14,Improv_Melody,161,5,42,110,2525593056
24,14,Improv_Melody,162,1,38,42,2525606868
24,14,Improv_Melody,163,5,42,127,2526092752
24,14,Improv_Melody,164,1,38,67,2526458816
24,14,Improv_Melody,165,1,38,47,2526588972
24,14,Improv_Melody,166,5,42,110,2526593420
24,14,Improv_Melody,167,1,48,54,2526898804
24,14,Improv_Melody,168,5,42,110,2527093032
24,14,Improv_Melody,169,1,38,50,2527419148
24,14,Improv_Melody,170,5,42,110,2527592808
24,14,Improv_Melody,171,1,38,73,2527661672
24,14,Improv_Melody,172,1,38,30,2527721188
24,14,Improv_Melody,173,2,41,80,2528094988
24,14,Improv_Melody,174,2,65,80,2528097216
24,14,Improv_Melody,175,5,42,127,2528099828
24,14,Improv_Melody,176,1,38,51,2528545028
24,14,Improv_Melody,177,5,42,110,2528593188
24,14,Improv_Melody,178,1,38,47,2528613792
24,14,Improv_Melody,179,1,48,67,2528864444
24,14,Improv_Melody,180,5,42,110,2529093072
24,14,Improv_Melody,181,1,38,60,2529374464
24,14,Improv_Melody,182,5,42,110,2529592676
24,14,Improv_Melody,183,1,38,56,2529624464
24,14,Improv_Melody,184,1,48,53,2529813304
24,14,Improv_Melody,185,1,38,56,2530034112
24,14,Improv_Melody,186,5,42,127,2530093688
24,14,Improv_Melody,187,1,38,57,2530181864
24,14,Improv_Melody,188,5,42,110,2530593004
24,14,Improv_Melody,189,5,42,110,2531092724
24,14,Improv_Melody,190,5,42,110,2531592744
24,14,Improv_Melody,191,1,38,33,2532033032
24,14,Improv_Melody,192,2,48,80,2532096020
24,14,Improv_Melody,193,2,72,80,2532098168
24,14,Improv_Melody,194,5,42,127,2532100776
24,14,Improv_Melody,195,1,38,28,2532427956
24,14,Improv_Melody,196,1,38,35,2532505796
24,14,Improv_Melody,197,5,42,110,2532593200
24,14,Improv_Melody,198,1,38,24,2532746524
24,14,Improv_Melody,199,5,42,110,2533092736
24,14,Improv_Melody,200,1,38,19,2533334112
24,14,Improv_Melody,201,5,42,110,2533592660
24,14,Improv_Melody,202,1,38,24,2533623232
24,14,Improv_Melody,203,1,38,20,2533789736
24,14,Improv_Melody,204,5,42,127,2534093088
24,14,Improv_Melody,205,1,48,16,2534122612
24,14,Improv_Melody,206,5,42,110,2534593008
24,14,Improv_Melody,207,5,42,110,2535092656
24,14,Improv_Melody,208,5,42,110,2535593424
24,14,Improv_Melody,209,2,43,80,2536095724
24,14,Improv_Melody,210,2,67,80,2536097880
24,14,Improv_Melody,211,5,42,127,2536100488
24,14,Improv_Melody,212,1,38,39,2536432144
24,14,Improv_Melody,213,5,42,110,2536592708
24,14,Improv_Melody,214,1,38,44,2536626044
24,14,Improv_Melody,215,1,38,48,2536883580
24,14,Improv_Melody,216,5,42,110,2537092684
24,14,Improv_Melody,217,1,38,49,2537365996
24,14,Improv_Melody,218,5,42,110,2537593060
24,14,Improv_Melody,219,1,38,50,2537603136
24,14,Improv_Melody,220,1,48,63,2537866048
24,14,Improv_Melody,221,5,42,127,2538092888
24,14,Improv_Melody,222,1,48,45,2538431504
24,14,Improv_Melody,223,5,42,110,2538592736
24,14,Improv_Melody,224,5,42,110,2539093356
24,14,Improv_Melody,225,5,42,110,2539593080
24,14,Improv_Melody,226,2,45,80,2540095076
24,14,Improv_Melody,227,2,69,80,2540097380
24,14,Improv_Melody,228,5,42,127,2540099768
24,14,Improv_Melody,229,1,48,47,2540377496
24,14,Improv_Melody,230,1,48,45,2540504260
24,14,Improv_Melody,231,5,42,110,2540592484
24,14,Improv_Melody,232,1,48,48,2540808708
24,14,Improv_Melody,233,5,42,110,2541093436
24,14,Improv_Melody,234,1,48,53,2541311920
24,14,Improv_Melody,235,5,42,110,2541592840
24,14,Improv_Melody,236,1,48,47,2541873928
24,14,Improv_Melody,237,5,42,127,2542092612
24,14,Improv_Melody,238,5,42,110,2542593532
24,14,Improv_Melody,239,5,42,110,2543093252
24,14,Improv_Melody,240,5,42,110,2543592748
24,14,Improv_Melody,241,2,41,80,2544094972
24,14,Improv_Melody,242,2,65,80,2544097200
24,14,Improv_Melody,243,5,42,127,2544099740
24,14,Improv_Melody,244,1,38,47,2544346204
24,14,Improv_Melody,245,5,42,110,2544593456
24,14,Improv_Melody,246,1,38,55,2544892872
24,14,Improv_Melody,247,5,42,110,2545093080
24,14,Improv_Melody,248,1,38,47,2545407756
24,14,Improv_Melody,249,5,42,110,2545592632
24,14,Improv_Melody,250,1,38,54,2545903492
24,14,Improv_Melody,251,5,42,127,2546093380
24,14,Improv_Melody,252,1,38,45,2546422944
24,14,Improv_Melody,253,5,42,110,2546593228
24,14,Improv_Melody,254,1,38,42,2546962060
24,14,Improv_Melody,255,5,42,110,2547092780
24,14,Improv_Melody,256,1,38,48,2547514212
24,14,Improv_Melody,257,5,42,110,2547592492
24,14,Improv_Melody,258,2,48,80,2548095824
24,14,Improv_Melody,259,2,72,80,2548098056
24,14,Improv_Melody,260,5,42,127,2548100592
24,14,Improv_Melody,261,5,42,110,2548593132
24,14,Improv_Melody,262,1,48,38,2548640452
24,14,Improv_Melody,263,5,42,110,2549092684
24,14,Improv_Melody,264,5,42,110,2549592480
24,14,Improv_Melody,265,1,48,50,2549608012
24,14,Improv_Melody,266,5,42,127,2550093076
24,14,Improv_Melody,267,1,48,51,2550584428
24,14,Improv_Melody,268,5,42,110,2550592992
24,14,Improv_Melody,269,5,42,110,2551092672
24,14,Improv_Melody,270,5,42,110,2551593216
24,14,Improv_Melody,271,1,48,62,2551606508
24,14,Improv_Melody,272,2,43,80,2552095492
24,14,Improv_Melody,273,2,67,80,2552097644
24,14,Improv_Melody,274,5,42,127,2552100260
24,14,Improv_Melody,275,5,42,110,2552592728
24,14,Improv_Melody,276,1,48,62,2552673288
24,14,Improv_Melody,277,5,42,110,2553092504
24,14,Improv_Melody,278,1,48,60,2553471156
24,14,Improv_Melody,279,1,48,20,2553566796
24,14,Improv_Melody,280,5,42,110,2553593168
24,14,Improv_Melody,281,5,42,127,2554092872
24,14,Improv_Melody,282,1,48,62,2554492096
24,14,Improv_Melody,283,5,42,110,2554592720
24,14,Improv_Melody,284,5,42,110,2555093264
24,14,Improv_Melody,285,1,48,66,2555592460
24,14,Improv_Melody,286,5,42,110,2555594100
24,14,Improv_Melody,287,2,45,80,2556095188
24,14,Improv_Melody,288,2,69,80,2556097264
24,14,Improv_Melody,289,5,42,127,2556100028
24,14,Improv_Melody,290,5,42,110,2556592424
24,14,Improv_Melody,291,5,42,110,2557093192
24,14,Improv_Melody,292,5,42,110,2557593136
24,14,Improv_Melody,293,5,42,127,2558092636
24,14,Improv_Melody,294,5,42,110,2558593328
24,14,Improv_Melody,295,5,42,110,2559093200
24,14,Improv_Melody,296,5,42,110,2559593068
24,14,Improv_Melody,297,2,41,80,2560094992
24,14,Improv_Melody,298,2,65,80,2560097072
24,14,Improv_Melody,299,5,42,127,2560099760
24,14,Improv_Melody,300,5,42,110,2560593128
24,14,Improv_Melody,301,5,42,110,2561093144
24,14,Improv_Melody,302,5,42,110,2561592644
24,14,Improv_Melody,303,5,42,127,2562093388
24,14,Improv_Melody,304,1,48,38,2562552300
24,14,Improv_Melody,305,5,42,110,2562593104
24,14,Improv_Melody,306,1,38,38,2563043472
24,14,Improv_Melody,307,5,42,110,2563093248
24,14,Improv_Melody,308,5,42,110,2563592436
24,14,Improv_Melody,309,1,38,46,2564068700
24,14,Improv_Melody,310,2,48,80,2564096004
24,14,Improv_Melody,311,2,72,80,2564097928
24,14,Improv_Melody,312,5,42,127,2564100468
24,14,Improv_Melody,313,1,38,47,2564495860
24,14,Improv_Melody,314,1,38,50,2564583800
24,14,Improv_Melody,315,5,42,110,2564593040
24,14,Improv_Melody,316,1,38,46,2564841956
24,14,Improv_Melody,0,9999,9999,9999,9999,2484090948
24,14,Improv_Melody,1,9999,9999,9999,9999,2484590708
24,14,Improv_Melody,2,9999,9999,9999,9999,2485090356
24,14,Improv_Melody,3,9999,9999,9999,9999,2485590076
24,14,Improv_Melody,4,9999,9999,9999,9999,2486090844
24,14,Improv_Melody,5,9999,9999,9999,9999,2486590568
24,14,Improv_Melody,6,9999,9999,9999,9999,2487090264
24,14,Improv_Melody,7,9999,9999,9999,9999,2487591032
24,14,Improv_Melody,8,9999,9999,9999,9999,2488090680
24,14,Improv_Melody,9,9999,9999,9999,9999,2488590416
24,14,Improv_Melody,10,9999,9999,9999,9999,2489090136
24,14,Improv_Melody,11,9999,9999,9999,9999,2489590904
24,14,Improv_Melody,12,9999,9999,9999,9999,2490090552
24,14,Improv_Melody,13,9999,9999,9999,9999,2490590272
24,14,Improv_Melody,14,9999,9999,9999,9999,2491091040
24,14,Improv_Melody,15,9999,9999,9999,9999,2491590764
24,14,Improv_Melody,16,9999,9999,9999,9999,2492090484
24,14,Improv_Melody,17,9999,9999,9999,9999,2492590148
24,14,Improv_Melody,18,9999,9999,9999,9999,2493090916
24,14,Improv_Melody,19,9999,9999,9999,9999,2493590640
24,14,Improv_Melody,20,9999,9999,9999,9999,2494090360
24,14,Improv_Melody,21,9999,9999,9999,9999,2494591052
24,14,Improv_Melody,22,9999,9999,9999,9999,2495090772
24,14,Improv_Melody,23,9999,9999,9999,9999,2495590496
24,14,Improv_Melody,24,9999,9999,9999,9999,2496090216
24,14,Improv_Melody,25,9999,9999,9999,9999,2496590924
24,14,Improv_Melody,26,9999,9999,9999,9999,2497090648
24,14,Improv_Melody,27,9999,9999,9999,9999,2497590344
24,14,Improv_Melody,28,9999,9999,9999,9999,2498091112
24,14,Improv_Melody,29,9999,9999,9999,9999,2498590836
24,14,Improv_Melody,30,9999,9999,9999,9999,2499090480
24,14,Improv_Melody,31,9999,9999,9999,9999,2499590204
24,14,Improv_Melody,32,9999,9999,9999,9999,2500090972
24,14,Improv_Melody,33,9999,9999,9999,9999,2500590684
24,14,Improv_Melody,34,9999,9999,9999,9999,2501090452
24,14,Improv_Melody,35,9999,9999,9999,9999,2501590132
24,14,Improv_Melody,36,9999,9999,9999,9999,2502090856
24,14,Improv_Melody,37,9999,9999,9999,9999,2502590556
24,14,Improv_Melody,38,9999,9999,9999,9999,2503090260
24,14,Improv_Melody,39,9999,9999,9999,9999,2503591012
24,14,Improv_Melody,40,9999,9999,9999,9999,2504090708
24,14,Improv_Melody,41,9999,9999,9999,9999,2504590420
24,14,Improv_Melody,42,9999,9999,9999,9999,2505090120
24,14,Improv_Melody,43,9999,9999,9999,9999,2505590868
24,14,Improv_Melody,44,9999,9999,9999,9999,2506090568
24,14,Improv_Melody,45,9999,9999,9999,9999,2506590268
24,14,Improv_Melody,46,9999,9999,9999,9999,2507091020
24,14,Improv_Melody,47,9999,9999,9999,9999,2507590720
24,14,Improv_Melody,48,9999,9999,9999,9999,2508090472
24,14,Improv_Melody,49,9999,9999,9999,9999,2508590200
24,14,Improv_Melody,50,9999,9999,9999,9999,2509090872
24,14,Improv_Melody,51,9999,9999,9999,9999,2509590648
24,14,Improv_Melody,52,9999,9999,9999,9999,2510090348
24,14,Improv_Melody,53,9999,9999,9999,9999,2510591096
24,14,Improv_Melody,54,9999,9999,9999,9999,2511090792
24,14,Improv_Melody,55,9999,9999,9999,9999,2511590500
24,14,Improv_Melody,56,9999,9999,9999,9999,2512090200
24,14,Improv_Melody,57,9999,9999,9999,9999,2512590908
24,14,Improv_Melody,58,9999,9999,9999,9999,2513090676
24,14,Improv_Melody,59,9999,9999,9999,9999,2513590376
24,14,Improv_Melody,60,9999,9999,9999,9999,2514091128
24,14,Improv_Melody,61,9999,9999,9999,9999,2514590828
24,14,Improv_Melody,62,9999,9999,9999,9999,2515090528
24,14,Improv_Melody,63,9999,9999,9999,9999,2515590228
24,14,Improv_Melody,64,9999,9999,9999,9999,2516090976
24,14,Improv_Melody,65,9999,9999,9999,9999,2516590684
24,14,Improv_Melody,66,9999,9999,9999,9999,2517090372
24,14,Improv_Melody,67,9999,9999,9999,9999,2517590136
24,14,Improv_Melody,68,9999,9999,9999,9999,2518090816
24,14,Improv_Melody,69,9999,9999,9999,9999,2518590584
24,14,Improv_Melody,70,9999,9999,9999,9999,2519090240
24,14,Improv_Melody,71,9999,9999,9999,9999,2519590980
24,14,Improv_Melody,72,9999,9999,9999,9999,2520090688
24,14,Improv_Melody,73,9999,9999,9999,9999,2520590416
24,14,Improv_Melody,74,9999,9999,9999,9999,2521090156
24,14,Improv_Melody,75,9999,9999,9999,9999,2521590900
24,14,Improv_Melody,76,9999,9999,9999,9999,2522090600
24,14,Improv_Melody,77,9999,9999,9999,9999,2522590316
24,14,Improv_Melody,78,9999,9999,9999,9999,2523091024
24,14,Improv_Melody,79,9999,9999,9999,9999,2523590776
24,14,Improv_Melody,80,9999,9999,9999,9999,2524090476
24,14,Improv_Melody,81,9999,9999,9999,9999,2524590180
24,14,Improv_Melody,82,9999,9999,9999,9999,2525090912
24,14,Improv_Melody,83,9999,9999,9999,9999,2525590612
24,14,Improv_Melody,84,9999,9999,9999,9999,2526090312
24,14,Improv_Melody,85,9999,9999,9999,9999,2526591056
24,14,Improv_Melody,86,9999,9999,9999,9999,2527090740
24,14,Improv_Melody,87,9999,9999,9999,9999,2527590512
24,14,Improv_Melody,88,9999,9999,9999,9999,2528090196
24,14,Improv_Melody,89,9999,9999,9999,9999,2528590968
24,14,Improv_Melody,90,9999,9999,9999,9999,2529090632
24,14,Improv_Melody,91,9999,9999,9999,9999,2529590380
24,14,Improv_Melody,92,9999,9999,9999,9999,2530091100
24,14,Improv_Melody,93,9999,9999,9999,9999,2530590784
24,14,Improv_Melody,94,9999,9999,9999,9999,2531090504
24,14,Improv_Melody,95,9999,9999,9999,9999,2531590228
24,14,Improv_Melody,96,9999,9999,9999,9999,2532090992
24,14,Improv_Melody,97,9999,9999,9999,9999,2532590684
24,14,Improv_Melody,98,9999,9999,9999,9999,2533090372
24,14,Improv_Melody,99,9999,9999,9999,9999,2533590072
24,14,Improv_Melody,100,9999,9999,9999,9999,2534090868
24,14,Improv_Melody,101,9999,9999,9999,9999,2534590568
24,14,Improv_Melody,102,9999,9999,9999,9999,2535090288
24,14,Improv_Melody,103,9999,9999,9999,9999,2535590984
24,14,Improv_Melody,104,9999,9999,9999,9999,2536090704
24,14,Improv_Melody,105,9999,9999,9999,9999,2536590416
24,14,Improv_Melody,106,9999,9999,9999,9999,2537090168
24,14,Improv_Melody,107,9999,9999,9999,9999,2537590840
24,14,Improv_Melody,108,9999,9999,9999,9999,2538090596
24,14,Improv_Melody,109,9999,9999,9999,9999,2538590296
24,14,Improv_Melody,110,9999,9999,9999,9999,2539091064
24,14,Improv_Melody,111,9999,9999,9999,9999,2539590712
24,14,Improv_Melody,112,9999,9999,9999,9999,2540090432
24,14,Improv_Melody,113,9999,9999,9999,9999,2540590188
24,14,Improv_Melody,114,9999,9999,9999,9999,2541090920
24,14,Improv_Melody,115,9999,9999,9999,9999,2541590620
24,14,Improv_Melody,116,9999,9999,9999,9999,2542090320
24,14,Improv_Melody,117,9999,9999,9999,9999,2542591088
24,14,Improv_Melody,118,9999,9999,9999,9999,2543090808
24,14,Improv_Melody,119,9999,9999,9999,9999,2543590456
24,14,Improv_Melody,120,9999,9999,9999,9999,2544090180
24,14,Improv_Melody,121,9999,9999,9999,9999,2544590940
24,14,Improv_Melody,122,9999,9999,9999,9999,2545090640
24,14,Improv_Melody,123,9999,9999,9999,9999,2545590340
24,14,Improv_Melody,124,9999,9999,9999,9999,2546091088
24,14,Improv_Melody,125,9999,9999,9999,9999,2546590788
24,14,Improv_Melody,126,9999,9999,9999,9999,2547090484
24,14,Improv_Melody,127,9999,9999,9999,9999,2547590200
24,14,Improv_Melody,128,9999,9999,9999,9999,2548090956
24,14,Improv_Melody,129,9999,9999,9999,9999,2548590688
24,14,Improv_Melody,130,9999,9999,9999,9999,2549090388
24,14,Improv_Melody,131,9999,9999,9999,9999,2549590112
24,14,Improv_Melody,132,9999,9999,9999,9999,2550090856
24,14,Improv_Melody,133,9999,9999,9999,9999,2550590548
24,14,Improv_Melody,134,9999,9999,9999,9999,2551090228
24,14,Improv_Melody,135,9999,9999,9999,9999,2551591000
24,14,Improv_Melody,136,9999,9999,9999,9999,2552090700
24,14,Improv_Melody,137,9999,9999,9999,9999,2552590432
24,14,Improv_Melody,138,9999,9999,9999,9999,2553090136
24,14,Improv_Melody,139,9999,9999,9999,9999,2553590876
24,14,Improv_Melody,140,9999,9999,9999,9999,2554090580
24,14,Improv_Melody,141,9999,9999,9999,9999,2554590280
24,14,Improv_Melody,142,9999,9999,9999,9999,2555091048
24,14,Improv_Melody,143,9999,9999,9999,9999,2555590768
24,14,Improv_Melody,144,9999,9999,9999,9999,2556090468
24,14,Improv_Melody,145,9999,9999,9999,9999,2556590128
24,14,Improv_Melody,146,9999,9999,9999,9999,2557090900
24,14,Improv_Melody,147,9999,9999,9999,9999,2557590620
24,14,Improv_Melody,148,9999,9999,9999,9999,2558090340
24,14,Improv_Melody,149,9999,9999,9999,9999,2558591036
24,14,Improv_Melody,150,9999,9999,9999,9999,2559090756
24,14,Improv_Melody,151,9999,9999,9999,9999,2559590480
24,14,Improv_Melody,152,9999,9999,9999,9999,2560090200
24,14,Improv_Melody,153,9999,9999,9999,9999,2560590908
24,14,Improv_Melody,154,9999,9999,9999,9999,2561090628
24,14,Improv_Melody,155,9999,9999,9999,9999,2561590328
24,14,Improv_Melody,156,9999,9999,9999,9999,2562091096
24,14,Improv_Melody,157,9999,9999,9999,9999,2562590812
24,14,Improv_Melody,158,9999,9999,9999,9999,2563090508
24,14,Improv_Melody,159,9999,9999,9999,9999,2563590216
24,14,Improv_Melody,160,9999,9999,9999,9999,2564090980
24,14,Improv_Melody,161,9999,9999,9999,9999,2564590672
