pid,taskRunCount,taskID,taskName,i,channel,pitch,velocity,microseconds
52,1,1,Ticks_Pract_5,0,5,42,127,1030392156
52,1,1,Ticks_Pract_5,1,5,42,127,1030893044
52,1,1,Ticks_Pract_5,2,5,42,127,1031392536
52,1,1,Ticks_Pract_5,3,5,42,127,1031892252
52,1,1,Ticks_Pract_5,4,5,42,127,1032392940
52,1,1,Ticks_Pract_5,5,5,42,127,1032892880
52,1,1,Ticks_Pract_5,6,5,42,127,1033392596
52,1,1,Ticks_Pract_5,7,1,48,32,1033432296
52,1,1,Ticks_Pract_5,8,5,42,127,1033892144
52,1,1,Ticks_Pract_5,9,1,48,31,1033919192
52,1,1,Ticks_Pract_5,10,5,42,127,1034392884
52,1,1,Ticks_Pract_5,11,1,48,29,1034404600
52,1,1,Ticks_Pract_5,12,1,48,27,1034879968
52,1,1,Ticks_Pract_5,13,5,42,127,1034892868
52,1,1,Ticks_Pract_5,14,5,42,127,1035392344
52,1,1,Ticks_Pract_5,15,1,48,28,1035393312
52,1,1,Ticks_Pract_5,16,5,42,127,1035893088
52,1,1,Ticks_Pract_5,17,1,48,28,1035908920
52,1,1,Ticks_Pract_5,18,1,48,30,1036389604
52,1,1,Ticks_Pract_5,19,5,42,127,1036392776
52,1,1,Ticks_Pract_5,20,1,48,31,1036888768
52,1,1,Ticks_Pract_5,21,5,42,127,1036892544
52,1,1,Ticks_Pract_5,22,5,42,127,1037392176
52,1,1,Ticks_Pract_5,23,1,48,28,1037406512
52,1,1,Ticks_Pract_5,24,1,48,33,1037866916
52,1,1,Ticks_Pract_5,25,5,42,127,1037892980
52,1,1,Ticks_Pract_5,26,1,48,34,1038391856
52,1,1,Ticks_Pract_5,27,5,42,127,1038393272
52,1,1,Ticks_Pract_5,28,5,42,127,1038892528
52,1,1,Ticks_Pract_5,29,1,48,29,1038909332
52,1,1,Ticks_Pract_5,30,5,42,127,1039393268
52,1,1,Ticks_Pract_5,31,1,48,31,1039400576
52,1,1,Ticks_Pract_5,32,5,42,127,1039892816
52,1,1,Ticks_Pract_5,33,1,48,30,1039925480
52,1,1,Ticks_Pract_5,34,1,48,31,1040385884
52,1,1,Ticks_Pract_5,35,5,42,127,1040392728
52,1,1,Ticks_Pract_5,36,5,42,127,1040892280
52,1,1,Ticks_Pract_5,37,1,48,28,1040904600
52,1,1,Ticks_Pract_5,38,5,42,127,1041393096
52,1,1,Ticks_Pract_5,39,1,48,30,1041430172
52,1,1,Ticks_Pract_5,40,5,42,127,1041892840
52,1,1,Ticks_Pract_5,41,1,48,30,1041911844
52,1,1,Ticks_Pract_5,42,5,42,127,1042392684
52,1,1,Ticks_Pract_5,43,1,48,30,1042409492
52,1,1,Ticks_Pract_5,44,5,42,127,1042892080
52,1,1,Ticks_Pract_5,45,1,48,29,1042912176
52,1,1,Ticks_Pract_5,46,1,48,31,1043383204
52,1,1,Ticks_Pract_5,47,5,42,127,1043392816
52,1,1,Ticks_Pract_5,48,1,48,31,1043885740
52,1,1,Ticks_Pract_5,49,5,42,127,1043892732
52,1,1,Ticks_Pract_5,50,5,42,127,1044392284
52,1,1,Ticks_Pract_5,51,1,48,27,1044401612
52,1,1,Ticks_Pract_5,52,5,42,127,1044893100
52,1,1,Ticks_Pract_5,53,1,48,33,1044903696
52,1,1,Ticks_Pract_5,54,5,42,127,1045392720
52,1,1,Ticks_Pract_5,55,1,48,36,1045413340
52,1,1,Ticks_Pract_5,56,5,42,127,1045892712
52,1,1,Ticks_Pract_5,57,1,48,34,1045912360
52,1,1,Ticks_Pract_5,58,1,48,31,1046390900
52,1,1,Ticks_Pract_5,59,5,42,127,1046392248
52,1,1,Ticks_Pract_5,60,1,48,29,1046892020
52,1,1,Ticks_Pract_5,61,5,42,127,1046893512
52,1,1,Ticks_Pract_5,62,1,48,32,1047380088
52,1,1,Ticks_Pract_5,63,5,42,127,1047392608
52,1,1,Ticks_Pract_5,64,1,48,34,1047852552
52,1,1,Ticks_Pract_5,65,5,42,127,1047892604
52,1,1,Ticks_Pract_5,66,1,48,39,1048361596
52,1,1,Ticks_Pract_5,67,5,42,127,1048393048
52,1,1,Ticks_Pract_5,68,1,48,36,1048870716
52,1,1,Ticks_Pract_5,69,5,42,127,1048892892
52,1,1,Ticks_Pract_5,70,5,42,127,1049392668
52,1,1,Ticks_Pract_5,71,1,48,33,1049396460
52,1,1,Ticks_Pract_5,72,1,48,36,1049882000
52,1,1,Ticks_Pract_5,73,5,42,127,1049892428
52,1,1,Ticks_Pract_5,0,9999,9999,9999,1030389868
52,1,1,Ticks_Pract_5,1,9999,9999,9999,1030890608
52,1,1,Ticks_Pract_5,2,9999,9999,9999,1031390324
52,1,1,Ticks_Pract_5,3,9999,9999,9999,1031890040
52,1,1,Ticks_Pract_5,4,9999,9999,9999,1032390728
52,1,1,Ticks_Pract_5,5,9999,9999,9999,1032890444
52,1,1,Ticks_Pract_5,6,9999,9999,9999,1033390164
52,1,1,Ticks_Pract_5,7,9999,9999,9999,1033889856
52,1,1,Ticks_Pract_5,8,9999,9999,9999,1034390596
52,1,1,Ticks_Pract_5,9,9999,9999,9999,1034890360
52,1,1,Ticks_Pract_5,10,9999,9999,9999,1035390060
52,1,1,Ticks_Pract_5,11,9999,9999,9999,1035890800
52,1,1,Ticks_Pract_5,12,9999,9999,9999,1036390492
52,1,1,Ticks_Pract_5,13,9999,9999,9999,1036890184
52,1,1,Ticks_Pract_5,14,9999,9999,9999,1037389888
52,1,1,Ticks_Pract_5,15,9999,9999,9999,1037890620
52,1,1,Ticks_Pract_5,16,9999,9999,9999,1038390324
52,1,1,Ticks_Pract_5,17,9999,9999,9999,1038890092
52,1,1,Ticks_Pract_5,18,9999,9999,9999,1039390832
52,1,1,Ticks_Pract_5,19,9999,9999,9999,1039890528
52,1,1,Ticks_Pract_5,20,9999,9999,9999,1040390216
52,1,1,Ticks_Pract_5,21,9999,9999,9999,1040889920
52,1,1,Ticks_Pract_5,22,9999,9999,9999,1041390660
52,1,1,Ticks_Pract_5,23,9999,9999,9999,1041890404
52,1,1,Ticks_Pract_5,24,9999,9999,9999,1042390100
52,1,1,Ticks_Pract_5,25,9999,9999,9999,1042889796
52,1,1,Ticks_Pract_5,26,9999,9999,9999,1043390528
52,1,1,Ticks_Pract_5,27,9999,9999,9999,1043890296
52,1,1,Ticks_Pract_5,28,9999,9999,9999,1044390000
52,1,1,Ticks_Pract_5,29,9999,9999,9999,1044890740
52,1,1,Ticks_Pract_5,30,9999,9999,9999,1045390432
52,1,1,Ticks_Pract_5,31,9999,9999,9999,1045890128
52,1,1,Ticks_Pract_5,32,9999,9999,9999,1046389820
52,1,1,Ticks_Pract_5,33,9999,9999,9999,1046890564
52,1,1,Ticks_Pract_5,34,9999,9999,9999,1047390324
52,1,1,Ticks_Pract_5,35,9999,9999,9999,1047890020
52,1,1,Ticks_Pract_5,36,9999,9999,9999,1048390760
52,1,1,Ticks_Pract_5,37,9999,9999,9999,1048890456
52,1,1,Ticks_Pract_5,38,9999,9999,9999,1049390156
52,1,1,Ticks_Pract_5,39,9999,9999,9999,1049889844
52,2,0,Ticks_Pract_8,0,5,42,127,1087432928
52,2,0,Ticks_Pract_8,1,5,42,127,1088232904
52,2,0,Ticks_Pract_8,2,5,42,127,1089032536
52,2,0,Ticks_Pract_8,3,5,42,127,1089832292
52,2,0,Ticks_Pract_8,4,5,42,127,1090633020
52,2,0,Ticks_Pract_8,5,1,48,50,1090647284
52,2,0,Ticks_Pract_8,6,5,42,127,1091432756
52,2,0,Ticks_Pract_8,7,1,48,51,1091461308
52,2,0,Ticks_Pract_8,8,1,48,43,1092229532
52,2,0,Ticks_Pract_8,9,5,42,127,1092232480
52,2,0,Ticks_Pract_8,10,5,42,127,1093032224
52,2,0,Ticks_Pract_8,11,1,48,46,1093071996
52,2,0,Ticks_Pract_8,12,1,48,45,1093790780
52,2,0,Ticks_Pract_8,13,5,42,127,1093833216
52,2,0,Ticks_Pract_8,14,1,48,41,1094622072
52,2,0,Ticks_Pract_8,15,5,42,127,1094633100
52,2,0,Ticks_Pract_8,16,1,48,42,1095424376
52,2,0,Ticks_Pract_8,17,5,42,127,1095432412
52,2,0,Ticks_Pract_8,18,5,42,127,1096232376
52,2,0,Ticks_Pract_8,19,1,48,40,1096255388
52,2,0,Ticks_Pract_8,20,5,42,127,1097033156
52,2,0,Ticks_Pract_8,21,1,48,40,1097053928
52,2,0,Ticks_Pract_8,22,5,42,127,1097832668
52,2,0,Ticks_Pract_8,23,1,48,42,1097838400
52,2,0,Ticks_Pract_8,24,5,42,127,1098632552
52,2,0,Ticks_Pract_8,25,1,48,40,1098645016
52,2,0,Ticks_Pract_8,26,1,48,46,1099431760
52,2,0,Ticks_Pract_8,27,5,42,127,1099433324
52,2,0,Ticks_Pract_8,28,5,42,127,1100233064
52,2,0,Ticks_Pract_8,29,1,48,45,1100245976
52,2,0,Ticks_Pract_8,30,5,42,127,1101033096
52,2,0,Ticks_Pract_8,31,1,48,42,1101046236
52,2,0,Ticks_Pract_8,32,1,48,37,1101809904
52,2,0,Ticks_Pract_8,33,5,42,127,1101832524
52,2,0,Ticks_Pract_8,34,1,48,44,1102631968
52,2,0,Ticks_Pract_8,35,5,42,127,1102633456
52,2,0,Ticks_Pract_8,36,5,42,127,1103433196
52,2,0,Ticks_Pract_8,37,1,48,47,1103451124
52,2,0,Ticks_Pract_8,38,5,42,127,1104232852
52,2,0,Ticks_Pract_8,39,1,48,45,1104250708
52,2,0,Ticks_Pract_8,40,5,42,127,1105032660
52,2,0,Ticks_Pract_8,41,1,48,51,1105037352
52,2,0,Ticks_Pract_8,42,1,48,29,1105085796
52,2,0,Ticks_Pract_8,43,5,42,127,1105832224
52,2,0,Ticks_Pract_8,44,1,48,43,1105861672
52,2,0,Ticks_Pract_8,45,5,42,127,1106632928
52,2,0,Ticks_Pract_8,46,1,48,42,1106646516
52,2,0,Ticks_Pract_8,47,5,42,127,1107432736
52,2,0,Ticks_Pract_8,48,1,48,40,1107441168
52,2,0,Ticks_Pract_8,49,5,42,127,1108232768
52,2,0,Ticks_Pract_8,50,1,48,40,1108241200
52,2,0,Ticks_Pract_8,51,1,48,46,1109021468
52,2,0,Ticks_Pract_8,52,5,42,127,1109032200
52,2,0,Ticks_Pract_8,53,5,42,127,1109833136
52,2,0,Ticks_Pract_8,54,1,48,43,1109874700
52,2,0,Ticks_Pract_8,55,5,42,127,1110632796
52,2,0,Ticks_Pract_8,56,1,48,40,1110665904
52,2,0,Ticks_Pract_8,57,1,48,35,1111426800
52,2,0,Ticks_Pract_8,0,9999,9999,9999,1087430712
52,2,0,Ticks_Pract_8,1,9999,9999,9999,1088230468
52,2,0,Ticks_Pract_8,2,9999,9999,9999,1089030248
52,2,0,Ticks_Pract_8,3,9999,9999,9999,1089830000
52,2,0,Ticks_Pract_8,4,9999,9999,9999,1090630732
52,2,0,Ticks_Pract_8,5,9999,9999,9999,1091430468
52,2,0,Ticks_Pract_8,6,9999,9999,9999,1092230192
52,2,0,Ticks_Pract_8,7,9999,9999,9999,1093029936
52,2,0,Ticks_Pract_8,8,9999,9999,9999,1093830708
52,2,0,Ticks_Pract_8,9,9999,9999,9999,1094630516
52,2,0,Ticks_Pract_8,10,9999,9999,9999,1095430200
52,2,0,Ticks_Pract_8,11,9999,9999,9999,1096229940
52,2,0,Ticks_Pract_8,12,9999,9999,9999,1097030720
52,2,0,Ticks_Pract_8,13,9999,9999,9999,1097830456
52,2,0,Ticks_Pract_8,14,9999,9999,9999,1098630264
52,2,0,Ticks_Pract_8,15,9999,9999,9999,1099429996
52,2,0,Ticks_Pract_8,16,9999,9999,9999,1100230776
52,2,0,Ticks_Pract_8,17,9999,9999,9999,1101030508
52,2,0,Ticks_Pract_8,18,9999,9999,9999,1101830236
52,2,0,Ticks_Pract_8,19,9999,9999,9999,1102629976
52,2,0,Ticks_Pract_8,20,9999,9999,9999,1103430760
52,2,0,Ticks_Pract_8,21,9999,9999,9999,1104230492
52,2,0,Ticks_Pract_8,22,9999,9999,9999,1105030224
52,2,0,Ticks_Pract_8,23,9999,9999,9999,1105829936
52,2,0,Ticks_Pract_8,24,9999,9999,9999,1106630716
52,2,0,Ticks_Pract_8,25,9999,9999,9999,1107430448
52,2,0,Ticks_Pract_8,26,9999,9999,9999,1108230256
52,2,0,Ticks_Pract_8,27,9999,9999,9999,1109029984
52,2,0,Ticks_Pract_8,28,9999,9999,9999,1109830772
52,2,0,Ticks_Pract_8,29,9999,9999,9999,1110630504
52,3,4,T1_SMS_5,0,5,42,127,1178251816
52,3,4,T1_SMS_5,1,5,42,127,1178751236
52,3,4,T1_SMS_5,2,5,42,127,1179252144
52,3,4,T1_SMS_5,3,5,42,127,1179751716
52,3,4,T1_SMS_5,4,5,42,127,1180251580
52,3,4,T1_SMS_5,5,5,42,127,1180751296
52,3,4,T1_SMS_5,6,5,42,127,1181251836
52,3,4,T1_SMS_5,7,5,42,127,1181751624
52,3,4,T1_SMS_5,8,1,48,43,1182225120
52,3,4,T1_SMS_5,9,5,42,127,1182251484
52,3,4,T1_SMS_5,10,1,48,42,1182745984
52,3,4,T1_SMS_5,11,5,42,127,1182752152
52,3,4,T1_SMS_5,12,1,48,44,1183239548
52,3,4,T1_SMS_5,13,5,42,127,1183251848
52,3,4,T1_SMS_5,14,1,48,44,1183744996
52,3,4,T1_SMS_5,15,5,42,127,1183751468
52,3,4,T1_SMS_5,16,1,48,43,1184235796
52,3,4,T1_SMS_5,17,5,42,127,1184251312
52,3,4,T1_SMS_5,18,1,48,39,1184735316
52,3,4,T1_SMS_5,19,5,42,127,1184752052
52,3,4,T1_SMS_5,20,1,48,43,1185243388
52,3,4,T1_SMS_5,21,5,42,127,1185251724
52,3,4,T1_SMS_5,22,1,48,37,1185747392
52,3,4,T1_SMS_5,23,5,42,127,1185751540
52,3,4,T1_SMS_5,24,5,42,127,1186251096
52,3,4,T1_SMS_5,25,1,48,42,1186261396
52,3,4,T1_SMS_5,26,5,42,127,1186751836
52,3,4,T1_SMS_5,27,1,48,42,1186767296
52,3,4,T1_SMS_5,28,1,48,43,1187219776
52,3,4,T1_SMS_5,29,5,42,127,1187251748
52,3,4,T1_SMS_5,30,5,42,127,1187751524
52,3,4,T1_SMS_5,31,1,48,39,1187753388
52,3,4,T1_SMS_5,32,5,42,127,1188251968
52,3,4,T1_SMS_5,33,1,48,42,1188257400
52,3,4,T1_SMS_5,34,5,42,127,1188751808
52,3,4,T1_SMS_5,35,1,48,40,1188752776
52,3,4,T1_SMS_5,36,5,42,127,1189251652
52,3,4,T1_SMS_5,37,1,48,40,1189257540
52,3,4,T1_SMS_5,38,5,42,127,1189751572
52,3,4,T1_SMS_5,39,1,48,45,1189753288
52,3,4,T1_SMS_5,40,5,42,127,1190251792
52,3,4,T1_SMS_5,41,1,48,44,1190257452
52,3,4,T1_SMS_5,42,5,42,127,1190751712
52,3,4,T1_SMS_5,43,1,48,46,1190759164
52,3,4,T1_SMS_5,44,5,42,127,1191251480
52,3,4,T1_SMS_5,45,1,48,40,1191255200
52,3,4,T1_SMS_5,46,5,42,127,1191752220
52,3,4,T1_SMS_5,47,1,48,42,1191757884
52,3,4,T1_SMS_5,48,1,48,43,1192250488
52,3,4,T1_SMS_5,49,5,42,127,1192251984
52,3,4,T1_SMS_5,50,5,42,127,1192751536
52,3,4,T1_SMS_5,51,1,48,39,1192768044
52,3,4,T1_SMS_5,52,1,48,40,1193242668
52,3,4,T1_SMS_5,53,5,42,127,1193251452
52,3,4,T1_SMS_5,54,5,42,127,1193751900
52,3,4,T1_SMS_5,55,1,48,42,1193763396
52,3,4,T1_SMS_5,56,5,42,127,1194251672
52,3,4,T1_SMS_5,57,1,48,43,1194281492
52,3,4,T1_SMS_5,58,1,48,41,1194739352
52,3,4,T1_SMS_5,59,5,42,127,1194751432
52,3,4,T1_SMS_5,60,5,42,127,1195252180
52,3,4,T1_SMS_5,61,1,48,43,1195253220
52,3,4,T1_SMS_5,62,5,42,127,1195751728
52,3,4,T1_SMS_5,63,1,48,41,1195764120
52,3,4,T1_SMS_5,64,1,48,48,1196233780
52,3,4,T1_SMS_5,65,5,42,127,1196251464
52,3,4,T1_SMS_5,66,1,48,43,1196723072
52,3,4,T1_SMS_5,67,5,42,127,1196751456
52,3,4,T1_SMS_5,68,5,42,127,1197251832
52,3,4,T1_SMS_5,69,1,48,38,1197252800
52,3,4,T1_SMS_5,70,1,48,38,1197745800
52,3,4,T1_SMS_5,71,5,42,127,1197751672
52,3,4,T1_SMS_5,72,5,42,127,1198251448
52,3,4,T1_SMS_5,73,1,48,41,1198253236
52,3,4,T1_SMS_5,74,5,42,127,1198752192
52,3,4,T1_SMS_5,75,1,48,37,1198767500
52,3,4,T1_SMS_5,76,1,48,43,1199242644
52,3,4,T1_SMS_5,77,5,42,127,1199251804
52,3,4,T1_SMS_5,78,5,42,127,1199751432
52,3,4,T1_SMS_5,79,1,48,45,1199752992
52,3,4,T1_SMS_5,80,5,42,127,1200251352
52,3,4,T1_SMS_5,81,1,48,46,1200257460
52,3,4,T1_SMS_5,82,1,48,43,1200737664
52,3,4,T1_SMS_5,83,5,42,127,1200751984
52,3,4,T1_SMS_5,84,5,42,127,1201251688
52,3,4,T1_SMS_5,85,1,48,39,1201261236
52,3,4,T1_SMS_5,86,1,48,34,1201748496
52,3,4,T1_SMS_5,87,5,42,127,1201751448
52,3,4,T1_SMS_5,88,5,42,127,1202251004
52,3,4,T1_SMS_5,89,1,48,35,1202266240
52,3,4,T1_SMS_5,90,1,48,38,1202746164
52,3,4,T1_SMS_5,91,5,42,127,1202752036
52,3,4,T1_SMS_5,92,5,42,127,1203251444
52,3,4,T1_SMS_5,93,1,48,37,1203264660
52,3,4,T1_SMS_5,94,5,42,127,1203751212
52,3,4,T1_SMS_5,95,1,48,40,1203770936
52,3,4,T1_SMS_5,96,1,48,42,1204226628
52,3,4,T1_SMS_5,97,5,42,127,1204251948
52,3,4,T1_SMS_5,98,1,48,43,1204740540
52,3,4,T1_SMS_5,99,5,42,127,1204751716
52,3,4,T1_SMS_5,100,1,48,47,1205250060
52,3,4,T1_SMS_5,101,5,42,127,1205251488
52,3,4,T1_SMS_5,102,5,42,127,1205751188
52,3,4,T1_SMS_5,103,1,48,40,1205755280
52,3,4,T1_SMS_5,104,1,48,46,1206245904
52,3,4,T1_SMS_5,105,5,42,127,1206251924
52,3,4,T1_SMS_5,106,1,48,41,1206749404
52,3,4,T1_SMS_5,107,5,42,127,1206751592
52,3,4,T1_SMS_5,108,1,48,43,1207229488
52,3,4,T1_SMS_5,109,5,42,127,1207251364
52,3,4,T1_SMS_5,110,1,48,42,1207725144
52,3,4,T1_SMS_5,111,5,42,127,1207751956
52,3,4,T1_SMS_5,112,1,48,42,1208228424
52,3,4,T1_SMS_5,113,5,42,127,1208251872
52,3,4,T1_SMS_5,114,1,48,41,1208725428
52,3,4,T1_SMS_5,115,5,42,127,1208751420
52,3,4,T1_SMS_5,116,1,48,38,1209245320
52,3,4,T1_SMS_5,117,5,42,127,1209251116
52,3,4,T1_SMS_5,118,5,42,127,1209751864
52,3,4,T1_SMS_5,119,1,48,35,1209755952
52,3,4,T1_SMS_5,120,5,42,127,1210251484
52,3,4,T1_SMS_5,121,1,48,38,1210257140
52,3,4,T1_SMS_5,122,5,42,127,1210751252
52,3,4,T1_SMS_5,123,1,48,32,1210775688
52,3,4,T1_SMS_5,124,1,48,31,1211251688
52,3,4,T1_SMS_5,125,5,42,127,1211253180
52,3,4,T1_SMS_5,126,5,42,127,1211751988
52,3,4,T1_SMS_5,127,1,48,45,1211774180
52,3,4,T1_SMS_5,128,1,48,37,1212247156
52,3,4,T1_SMS_5,129,5,42,127,1212251452
52,3,4,T1_SMS_5,130,1,48,39,1212706604
52,3,4,T1_SMS_5,131,5,42,127,1212751148
52,3,4,T1_SMS_5,132,1,48,34,1213247364
52,3,4,T1_SMS_5,133,5,42,127,1213251892
52,3,4,T1_SMS_5,134,1,48,36,1213729560
52,3,4,T1_SMS_5,135,5,42,127,1213751884
52,3,4,T1_SMS_5,136,5,42,127,1214251360
52,3,4,T1_SMS_5,137,1,48,40,1214259268
52,3,4,T1_SMS_5,138,5,42,127,1214752104
52,3,4,T1_SMS_5,139,1,48,37,1214775420
52,3,4,T1_SMS_5,140,1,48,39,1215232460
52,3,4,T1_SMS_5,141,5,42,127,1215251940
52,3,4,T1_SMS_5,142,1,48,39,1215728788
52,3,4,T1_SMS_5,143,5,42,127,1215751488
52,3,4,T1_SMS_5,144,1,48,41,1216210432
52,3,4,T1_SMS_5,145,5,42,127,1216251184
52,3,4,T1_SMS_5,146,1,48,38,1216704216
52,3,4,T1_SMS_5,147,5,42,127,1216751920
52,3,4,T1_SMS_5,148,5,42,127,1217251920
52,3,4,T1_SMS_5,149,1,48,33,1217262296
52,3,4,T1_SMS_5,150,5,42,127,1217751368
52,3,4,T1_SMS_5,151,1,48,38,1217773284
52,3,4,T1_SMS_5,152,5,42,127,1218250988
52,3,4,T1_SMS_5,153,1,48,37,1218272656
52,3,4,T1_SMS_5,154,1,48,36,1218742416
52,3,4,T1_SMS_5,155,5,42,127,1218751872
52,3,4,T1_SMS_5,156,1,48,43,1219240168
52,3,4,T1_SMS_5,157,5,42,127,1219251792
52,3,4,T1_SMS_5,158,5,42,127,1219751196
52,3,4,T1_SMS_5,159,1,48,40,1219774508
52,3,4,T1_SMS_5,160,1,48,37,1220249496
52,3,4,T1_SMS_5,161,5,42,127,1220252004
52,3,4,T1_SMS_5,162,1,48,38,1220738276
52,3,4,T1_SMS_5,163,5,42,127,1220751700
52,3,4,T1_SMS_5,164,1,48,38,1221210148
52,3,4,T1_SMS_5,165,5,42,127,1221251692
52,3,4,T1_SMS_5,166,1,48,38,1221724652
52,3,4,T1_SMS_5,167,5,42,127,1221751016
52,3,4,T1_SMS_5,168,1,48,42,1222247160
52,3,4,T1_SMS_5,169,5,42,127,1222251984
52,3,4,T1_SMS_5,170,1,48,40,1222749024
52,3,4,T1_SMS_5,171,5,42,127,1222751680
52,3,4,T1_SMS_5,172,5,42,127,1223251528
52,3,4,T1_SMS_5,173,1,48,38,1223259056
52,3,4,T1_SMS_5,174,1,48,38,1223749384
52,3,4,T1_SMS_5,175,5,42,127,1223752044
52,3,4,T1_SMS_5,176,1,48,34,1224231732
52,3,4,T1_SMS_5,177,5,42,127,1224251736
52,3,4,T1_SMS_5,178,1,48,36,1224730980
52,3,4,T1_SMS_5,179,5,42,127,1224751656
52,3,4,T1_SMS_5,180,5,42,127,1225251504
52,3,4,T1_SMS_5,181,1,48,35,1225252472
52,3,4,T1_SMS_5,182,5,42,127,1225751876
52,3,4,T1_SMS_5,183,1,48,37,1225768008
52,3,4,T1_SMS_5,184,5,42,127,1226251644
52,3,4,T1_SMS_5,185,1,48,39,1226276528
52,3,4,T1_SMS_5,186,1,48,38,1226743668
52,3,4,T1_SMS_5,187,5,42,127,1226751556
52,3,4,T1_SMS_5,188,5,42,127,1227252080
52,3,4,T1_SMS_5,189,1,48,41,1227267392
52,3,4,T1_SMS_5,190,5,42,127,1227751928
52,3,4,T1_SMS_5,191,1,48,40,1227761328
52,3,4,T1_SMS_5,192,5,42,127,1228251448
52,3,4,T1_SMS_5,193,1,48,32,1228266108
52,3,4,T1_SMS_5,194,5,42,127,1228751292
52,3,4,T1_SMS_5,195,1,48,33,1228780840
52,3,4,T1_SMS_5,196,1,48,38,1229246980
52,3,4,T1_SMS_5,197,5,42,127,1229251880
52,3,4,T1_SMS_5,198,1,48,38,1229736872
52,3,4,T1_SMS_5,199,5,42,127,1229751796
52,3,4,T1_SMS_5,200,1,48,43,1230213832
52,3,4,T1_SMS_5,201,5,42,127,1230251344
52,3,4,T1_SMS_5,202,5,42,127,1230752316
52,3,4,T1_SMS_5,203,1,48,34,1230769276
52,3,4,T1_SMS_5,204,5,42,127,1231251860
52,3,4,T1_SMS_5,205,1,48,30,1231304568
52,3,4,T1_SMS_5,206,5,42,127,1231751408
52,3,4,T1_SMS_5,207,1,48,34,1231770836
52,3,4,T1_SMS_5,208,1,48,28,1232249664
52,3,4,T1_SMS_5,209,5,42,127,1232251320
52,3,4,T1_SMS_5,210,1,48,34,1232737368
52,3,4,T1_SMS_5,211,5,42,127,1232751988
52,3,4,T1_SMS_5,212,1,48,36,1233235716
52,3,4,T1_SMS_5,213,5,42,127,1233251760
52,3,4,T1_SMS_5,214,1,48,37,1233726432
52,3,4,T1_SMS_5,215,5,42,127,1233751376
52,3,4,T1_SMS_5,216,1,48,38,1234231668
52,3,4,T1_SMS_5,217,5,42,127,1234251148
52,3,4,T1_SMS_5,218,1,48,29,1234742204
52,3,4,T1_SMS_5,219,5,42,127,1234751740
52,3,4,T1_SMS_5,220,1,48,39,1235237264
52,3,4,T1_SMS_5,221,5,42,127,1235251512
52,3,4,T1_SMS_5,222,1,48,29,1235742716
52,3,4,T1_SMS_5,223,5,42,127,1235751208
52,3,4,T1_SMS_5,224,1,48,36,1236250676
52,3,4,T1_SMS_5,225,5,42,127,1236252172
52,3,4,T1_SMS_5,226,1,48,37,1236740760
52,3,4,T1_SMS_5,227,5,42,127,1236751644
52,3,4,T1_SMS_5,228,1,48,40,1237247932
52,3,4,T1_SMS_5,229,5,42,127,1237251560
52,3,4,T1_SMS_5,230,1,48,38,1237744940
52,3,4,T1_SMS_5,231,5,42,127,1237751108
52,3,4,T1_SMS_5,232,1,48,42,1238209152
52,3,4,T1_SMS_5,233,5,42,127,1238252072
52,3,4,T1_SMS_5,234,1,48,39,1238749240
52,3,4,T1_SMS_5,235,5,42,127,1238751668
52,3,4,T1_SMS_5,236,5,42,127,1239251444
52,3,4,T1_SMS_5,237,1,48,30,1239281512
52,3,4,T1_SMS_5,238,5,42,127,1239752256
52,3,4,T1_SMS_5,239,1,48,31,1239770860
52,3,4,T1_SMS_5,240,1,48,31,1240251204
52,3,4,T1_SMS_5,241,5,42,127,1240252844
52,3,4,T1_SMS_5,242,1,48,31,1240734028
52,3,4,T1_SMS_5,243,5,42,127,1240751416
52,3,4,T1_SMS_5,244,1,48,32,1241237016
52,3,4,T1_SMS_5,245,5,42,127,1241251112
52,3,4,T1_SMS_5,246,5,42,127,1241752084
52,3,4,T1_SMS_5,247,1,48,22,1241759020
52,3,4,T1_SMS_5,248,1,48,43,1242241640
52,3,4,T1_SMS_5,249,5,42,127,1242251624
52,3,4,T1_SMS_5,250,1,48,24,1242734080
52,3,4,T1_SMS_5,251,5,42,127,1242751320
52,3,4,T1_SMS_5,252,1,48,29,1243232728
52,3,4,T1_SMS_5,0,9999,9999,9999,1178249304
52,3,4,T1_SMS_5,1,9999,9999,9999,1178749020
52,3,4,T1_SMS_5,2,9999,9999,9999,1179249784
52,3,4,T1_SMS_5,3,9999,9999,9999,1179749428
52,3,4,T1_SMS_5,4,9999,9999,9999,1180249144
52,3,4,T1_SMS_5,5,9999,9999,9999,1180748860
52,3,4,T1_SMS_5,6,9999,9999,9999,1181249624
52,3,4,T1_SMS_5,7,9999,9999,9999,1181749340
52,3,4,T1_SMS_5,8,9999,9999,9999,1182249052
52,3,4,T1_SMS_5,9,9999,9999,9999,1182749792
52,3,4,T1_SMS_5,10,9999,9999,9999,1183249488
52,3,4,T1_SMS_5,11,9999,9999,9999,1183749180
52,3,4,T1_SMS_5,12,9999,9999,9999,1184248952
52,3,4,T1_SMS_5,13,9999,9999,9999,1184749692
52,3,4,T1_SMS_5,14,9999,9999,9999,1185249364
52,3,4,T1_SMS_5,15,9999,9999,9999,1185749108
52,3,4,T1_SMS_5,16,9999,9999,9999,1186248808
52,3,4,T1_SMS_5,17,9999,9999,9999,1186749548
52,3,4,T1_SMS_5,18,9999,9999,9999,1187249236
52,3,4,T1_SMS_5,19,9999,9999,9999,1187748940
52,3,4,T1_SMS_5,20,9999,9999,9999,1188249680
52,3,4,T1_SMS_5,21,9999,9999,9999,1188749376
52,3,4,T1_SMS_5,22,9999,9999,9999,1189249144
52,3,4,T1_SMS_5,23,9999,9999,9999,1189748840
52,3,4,T1_SMS_5,24,9999,9999,9999,1190249580
52,3,4,T1_SMS_5,25,9999,9999,9999,1190749276
52,3,4,T1_SMS_5,26,9999,9999,9999,1191248972
52,3,4,T1_SMS_5,27,9999,9999,9999,1191749712
52,3,4,T1_SMS_5,28,9999,9999,9999,1192249408
52,3,4,T1_SMS_5,29,9999,9999,9999,1192749176
52,3,4,T1_SMS_5,30,9999,9999,9999,1193248868
52,3,4,T1_SMS_5,31,9999,9999,9999,1193749612
52,3,4,T1_SMS_5,32,9999,9999,9999,1194249308
52,3,4,T1_SMS_5,33,9999,9999,9999,1194749000
52,3,4,T1_SMS_5,34,9999,9999,9999,1195249744
52,3,4,T1_SMS_5,35,9999,9999,9999,1195749440
52,3,4,T1_SMS_5,36,9999,9999,9999,1196249180
52,3,4,T1_SMS_5,37,9999,9999,9999,1196748872
52,3,4,T1_SMS_5,38,9999,9999,9999,1197249620
52,3,4,T1_SMS_5,39,9999,9999,9999,1197749308
52,3,4,T1_SMS_5,40,9999,9999,9999,1198249012
52,3,4,T1_SMS_5,41,9999,9999,9999,1198749756
52,3,4,T1_SMS_5,42,9999,9999,9999,1199249516
52,3,4,T1_SMS_5,43,9999,9999,9999,1199749220
52,3,4,T1_SMS_5,44,9999,9999,9999,1200248916
52,3,4,T1_SMS_5,45,9999,9999,9999,1200749624
52,3,4,T1_SMS_5,46,9999,9999,9999,1201249400
52,3,4,T1_SMS_5,47,9999,9999,9999,1201749088
52,3,4,T1_SMS_5,48,9999,9999,9999,1202248792
52,3,4,T1_SMS_5,49,9999,9999,9999,1202749524
52,3,4,T1_SMS_5,50,9999,9999,9999,1203249232
52,3,4,T1_SMS_5,51,9999,9999,9999,1203748928
52,3,4,T1_SMS_5,52,9999,9999,9999,1204249660
52,3,4,T1_SMS_5,53,9999,9999,9999,1204749428
52,3,4,T1_SMS_5,54,9999,9999,9999,1205249132
52,3,4,T1_SMS_5,55,9999,9999,9999,1205748828
52,3,4,T1_SMS_5,56,9999,9999,9999,1206249564
52,3,4,T1_SMS_5,57,9999,9999,9999,1206749272
52,3,4,T1_SMS_5,58,9999,9999,9999,1207249000
52,3,4,T1_SMS_5,59,9999,9999,9999,1207749744
52,3,4,T1_SMS_5,60,9999,9999,9999,1208249440
52,3,4,T1_SMS_5,61,9999,9999,9999,1208749132
52,3,4,T1_SMS_5,62,9999,9999,9999,1209248828
52,3,4,T1_SMS_5,63,9999,9999,9999,1209749576
52,3,4,T1_SMS_5,64,9999,9999,9999,1210249272
52,3,4,T1_SMS_5,65,9999,9999,9999,1210749040
52,3,4,T1_SMS_5,66,9999,9999,9999,1211249780
52,3,4,T1_SMS_5,67,9999,9999,9999,1211749476
52,3,4,T1_SMS_5,68,9999,9999,9999,1212249168
52,3,4,T1_SMS_5,69,9999,9999,9999,1212748860
52,3,4,T1_SMS_5,70,9999,9999,9999,1213249604
52,3,4,T1_SMS_5,71,9999,9999,9999,1213749300
52,3,4,T1_SMS_5,72,9999,9999,9999,1214249076
52,3,4,T1_SMS_5,73,9999,9999,9999,1214749816
52,3,4,T1_SMS_5,74,9999,9999,9999,1215249504
52,3,4,T1_SMS_5,75,9999,9999,9999,1215749200
52,3,4,T1_SMS_5,76,9999,9999,9999,1216248896
52,3,4,T1_SMS_5,77,9999,9999,9999,1216749636
52,3,4,T1_SMS_5,78,9999,9999,9999,1217249388
52,3,4,T1_SMS_5,79,9999,9999,9999,1217749084
52,3,4,T1_SMS_5,80,9999,9999,9999,1218248776
52,3,4,T1_SMS_5,81,9999,9999,9999,1218749512
52,3,4,T1_SMS_5,82,9999,9999,9999,1219249208
52,3,4,T1_SMS_5,83,9999,9999,9999,1219748984
52,3,4,T1_SMS_5,84,9999,9999,9999,1220249720
52,3,4,T1_SMS_5,85,9999,9999,9999,1220749412
52,3,4,T1_SMS_5,86,9999,9999,9999,1221249108
52,3,4,T1_SMS_5,87,9999,9999,9999,1221748804
52,3,4,T1_SMS_5,88,9999,9999,9999,1222249548
52,3,4,T1_SMS_5,89,9999,9999,9999,1222749244
52,3,4,T1_SMS_5,90,9999,9999,9999,1223249020
52,3,4,T1_SMS_5,91,9999,9999,9999,1223749756
52,3,4,T1_SMS_5,92,9999,9999,9999,1224249452
52,3,4,T1_SMS_5,93,9999,9999,9999,1224749144
52,3,4,T1_SMS_5,94,9999,9999,9999,1225248848
52,3,4,T1_SMS_5,95,9999,9999,9999,1225749588
52,3,4,T1_SMS_5,96,9999,9999,9999,1226249284
52,3,4,T1_SMS_5,97,9999,9999,9999,1226749048
52,3,4,T1_SMS_5,98,9999,9999,9999,1227249720
52,3,4,T1_SMS_5,99,9999,9999,9999,1227749492
52,3,4,T1_SMS_5,100,9999,9999,9999,1228249160
52,3,4,T1_SMS_5,101,9999,9999,9999,1228748856
52,3,4,T1_SMS_5,102,9999,9999,9999,1229249592
52,3,4,T1_SMS_5,103,9999,9999,9999,1229749360
52,3,4,T1_SMS_5,104,9999,9999,9999,1230249056
52,3,4,T1_SMS_5,105,9999,9999,9999,1230749804
52,3,4,T1_SMS_5,106,9999,9999,9999,1231249500
52,3,4,T1_SMS_5,107,9999,9999,9999,1231749196
52,3,4,T1_SMS_5,108,9999,9999,9999,1232248892
52,3,4,T1_SMS_5,109,9999,9999,9999,1232749628
52,3,4,T1_SMS_5,110,9999,9999,9999,1233249396
52,3,4,T1_SMS_5,111,9999,9999,9999,1233749092
52,3,4,T1_SMS_5,112,9999,9999,9999,1234248788
52,3,4,T1_SMS_5,113,9999,9999,9999,1234749528
52,3,4,T1_SMS_5,114,9999,9999,9999,1235249224
52,3,4,T1_SMS_5,115,9999,9999,9999,1235748920
52,3,4,T1_SMS_5,116,9999,9999,9999,1236249668
52,3,4,T1_SMS_5,117,9999,9999,9999,1236749432
52,3,4,T1_SMS_5,118,9999,9999,9999,1237249124
52,3,4,T1_SMS_5,119,9999,9999,9999,1237748820
52,3,4,T1_SMS_5,120,9999,9999,9999,1238249560
52,3,4,T1_SMS_5,121,9999,9999,9999,1238749304
52,3,4,T1_SMS_5,122,9999,9999,9999,1239249008
52,3,4,T1_SMS_5,123,9999,9999,9999,1239749748
52,3,4,T1_SMS_5,124,9999,9999,9999,1240249444
52,3,4,T1_SMS_5,125,9999,9999,9999,1240749132
52,3,4,T1_SMS_5,126,9999,9999,9999,1241248828
52,3,4,T1_SMS_5,127,9999,9999,9999,1241749572
52,3,4,T1_SMS_5,128,9999,9999,9999,1242249340
52,3,4,T1_SMS_5,129,9999,9999,9999,1242749032
52,4,2,T1_SMS_8,0,5,42,127,1290803696
52,4,2,T1_SMS_8,1,5,42,127,1291603228
52,4,2,T1_SMS_8,2,5,42,127,1292404028
52,4,2,T1_SMS_8,3,5,42,127,1293203708
52,4,2,T1_SMS_8,4,1,48,41,1293989808
52,4,2,T1_SMS_8,5,5,42,127,1294003532
52,4,2,T1_SMS_8,6,1,48,38,1294789392
52,4,2,T1_SMS_8,7,5,42,127,1294803416
52,4,2,T1_SMS_8,8,1,48,36,1295567064
52,4,2,T1_SMS_8,9,5,42,127,1295603996
52,4,2,T1_SMS_8,10,1,48,36,1296371760
52,4,2,T1_SMS_8,11,5,42,127,1296403804
52,4,2,T1_SMS_8,12,1,48,45,1297182408
52,4,2,T1_SMS_8,13,5,42,127,1297203536
52,4,2,T1_SMS_8,14,1,48,43,1297993888
52,4,2,T1_SMS_8,15,5,42,127,1298003268
52,4,2,T1_SMS_8,16,5,42,127,1298803984
52,4,2,T1_SMS_8,17,1,48,30,1298842632
52,4,2,T1_SMS_8,18,5,42,127,1299603788
52,4,2,T1_SMS_8,19,1,48,36,1299622316
52,4,2,T1_SMS_8,20,5,42,127,1300403596
52,4,2,T1_SMS_8,21,1,48,28,1300415844
52,4,2,T1_SMS_8,22,5,42,127,1301203404
52,4,2,T1_SMS_8,23,1,48,29,1301204368
52,4,2,T1_SMS_8,24,5,42,127,1302004360
52,4,2,T1_SMS_8,25,1,48,40,1302008004
52,4,2,T1_SMS_8,26,5,42,127,1302803796
52,4,2,T1_SMS_8,27,1,48,38,1302828972
52,4,2,T1_SMS_8,28,1,48,29,1303598476
52,4,2,T1_SMS_8,29,5,42,127,1303603596
52,4,2,T1_SMS_8,30,1,48,28,1304396340
52,4,2,T1_SMS_8,31,5,42,127,1304403256
52,4,2,T1_SMS_8,32,5,42,127,1305204264
52,4,2,T1_SMS_8,33,1,48,33,1305220024
52,4,2,T1_SMS_8,34,5,42,127,1306003776
52,4,2,T1_SMS_8,35,1,48,14,1306109996
52,4,2,T1_SMS_8,36,5,42,127,1306803512
52,4,2,T1_SMS_8,37,1,48,34,1306807224
52,4,2,T1_SMS_8,38,5,42,127,1307603392
52,4,2,T1_SMS_8,39,1,48,30,1307610624
52,4,2,T1_SMS_8,40,1,48,28,1308397272
52,4,2,T1_SMS_8,41,5,42,127,1308404188
52,4,2,T1_SMS_8,42,1,48,25,1309190948
52,4,2,T1_SMS_8,43,5,42,127,1309204072
52,4,2,T1_SMS_8,44,1,48,36,1309994872
52,4,2,T1_SMS_8,45,5,42,127,1310003508
52,4,2,T1_SMS_8,46,5,42,127,1310803248
52,4,2,T1_SMS_8,47,1,48,31,1310810260
52,4,2,T1_SMS_8,48,5,42,127,1311603956
52,4,2,T1_SMS_8,49,1,48,32,1311624428
52,4,2,T1_SMS_8,50,1,48,35,1312400584
52,4,2,T1_SMS_8,51,5,42,127,1312404200
52,4,2,T1_SMS_8,52,5,42,127,1313203420
52,4,2,T1_SMS_8,53,1,48,36,1313204384
52,4,2,T1_SMS_8,54,1,48,36,1313970356
52,4,2,T1_SMS_8,55,5,42,127,1314003296
52,4,2,T1_SMS_8,56,1,48,35,1314785740
52,4,2,T1_SMS_8,57,5,42,127,1314804028
52,4,2,T1_SMS_8,58,1,48,40,1315600136
52,4,2,T1_SMS_8,59,5,42,127,1315603984
52,4,2,T1_SMS_8,60,5,42,127,1316403652
52,4,2,T1_SMS_8,61,1,48,35,1316408936
52,4,2,T1_SMS_8,62,1,48,34,1317176640
52,4,2,T1_SMS_8,63,5,42,127,1317203524
52,4,2,T1_SMS_8,64,1,48,37,1318004016
52,4,2,T1_SMS_8,65,5,42,127,1318005352
52,4,2,T1_SMS_8,66,5,42,127,1318803896
52,4,2,T1_SMS_8,67,1,48,38,1318811204
52,4,2,T1_SMS_8,68,5,42,127,1319603704
52,4,2,T1_SMS_8,69,1,48,44,1319616244
52,4,2,T1_SMS_8,70,1,48,40,1320399960
52,4,2,T1_SMS_8,71,5,42,127,1320403208
52,4,2,T1_SMS_8,72,1,48,42,1321204392
52,4,2,T1_SMS_8,73,5,42,127,1321205728
52,4,2,T1_SMS_8,74,5,42,127,1322003904
52,4,2,T1_SMS_8,75,1,48,40,1322032076
52,4,2,T1_SMS_8,76,5,42,127,1322803488
52,4,2,T1_SMS_8,77,1,48,40,1322827100
52,4,2,T1_SMS_8,78,1,48,40,1323598916
52,4,2,T1_SMS_8,79,5,42,127,1323603288
52,4,2,T1_SMS_8,80,1,48,40,1324398200
52,4,2,T1_SMS_8,81,5,42,127,1324404068
52,4,2,T1_SMS_8,82,1,48,39,1325197488
52,4,2,T1_SMS_8,83,5,42,127,1325203804
52,4,2,T1_SMS_8,84,5,42,127,1326003768
52,4,2,T1_SMS_8,85,1,48,39,1326004732
52,4,2,T1_SMS_8,86,1,48,39,1326772720
52,4,2,T1_SMS_8,87,5,42,127,1326803272
52,4,2,T1_SMS_8,88,1,48,33,1327573052
52,4,2,T1_SMS_8,89,5,42,127,1327604000
52,4,2,T1_SMS_8,90,5,42,127,1328403740
52,4,2,T1_SMS_8,91,1,48,39,1328412096
52,4,2,T1_SMS_8,92,5,42,127,1329203548
52,4,2,T1_SMS_8,93,1,48,38,1329204884
52,4,2,T1_SMS_8,94,5,42,127,1330003428
52,4,2,T1_SMS_8,95,1,48,36,1330006624
52,4,2,T1_SMS_8,96,5,42,127,1330804060
52,4,2,T1_SMS_8,97,1,48,40,1330816304
52,4,2,T1_SMS_8,98,5,42,127,1331603792
52,4,2,T1_SMS_8,99,1,48,38,1331627628
52,4,2,T1_SMS_8,100,1,48,35,1332350084
52,4,2,T1_SMS_8,101,5,42,127,1332403596
52,4,2,T1_SMS_8,102,1,48,30,1333160880
52,4,2,T1_SMS_8,103,5,42,127,1333203328
52,4,2,T1_SMS_8,104,5,42,127,1334004216
52,4,2,T1_SMS_8,105,1,48,31,1334020500
52,4,2,T1_SMS_8,106,5,42,127,1334803948
52,4,2,T1_SMS_8,107,1,48,32,1334885904
52,4,2,T1_SMS_8,108,5,42,127,1335603532
52,4,2,T1_SMS_8,109,1,48,31,1335634772
52,4,2,T1_SMS_8,110,5,42,127,1336403268
52,4,2,T1_SMS_8,111,1,48,31,1336429124
52,4,2,T1_SMS_8,112,1,48,28,1337193084
52,4,2,T1_SMS_8,113,5,42,127,1337203968
52,4,2,T1_SMS_8,114,1,48,30,1337965744
52,4,2,T1_SMS_8,115,5,42,127,1338003700
52,4,2,T1_SMS_8,116,1,48,36,1338775728
52,4,2,T1_SMS_8,117,5,42,127,1338803584
52,4,2,T1_SMS_8,118,1,48,38,1339575008
52,4,2,T1_SMS_8,119,5,42,127,1339603392
52,4,2,T1_SMS_8,120,5,42,127,1340404576
52,4,2,T1_SMS_8,121,1,48,36,1340405540
52,4,2,T1_SMS_8,122,5,42,127,1341203712
52,4,2,T1_SMS_8,123,1,48,36,1341218348
52,4,2,T1_SMS_8,124,5,42,127,1342003448
52,4,2,T1_SMS_8,125,1,48,35,1342006116
52,4,2,T1_SMS_8,126,1,48,39,1342787356
52,4,2,T1_SMS_8,127,5,42,127,1342803400
52,4,2,T1_SMS_8,128,1,48,33,1343552312
52,4,2,T1_SMS_8,129,5,42,127,1343604256
52,4,2,T1_SMS_8,130,5,42,127,1344403848
52,4,2,T1_SMS_8,131,1,48,33,1344411760
52,4,2,T1_SMS_8,132,5,42,127,1345203508
52,4,2,T1_SMS_8,133,1,48,35,1345205216
52,4,2,T1_SMS_8,134,1,48,31,1345993852
52,4,2,T1_SMS_8,135,5,42,127,1346003308
52,4,2,T1_SMS_8,136,1,48,32,1346790472
52,4,2,T1_SMS_8,137,5,42,127,1346804116
52,4,2,T1_SMS_8,138,5,42,127,1347604000
52,4,2,T1_SMS_8,139,1,48,34,1347606444
52,4,2,T1_SMS_8,140,1,48,37,1348399732
52,4,2,T1_SMS_8,141,5,42,127,1348403508
52,4,2,T1_SMS_8,142,5,42,127,1349203396
52,4,2,T1_SMS_8,143,1,48,36,1349216236
52,4,2,T1_SMS_8,144,1,48,36,1349993140
52,4,2,T1_SMS_8,145,5,42,127,1350004020
52,4,2,T1_SMS_8,146,1,48,34,1350787936
52,4,2,T1_SMS_8,147,5,42,127,1350803980
52,4,2,T1_SMS_8,148,5,42,127,1351603420
52,4,2,T1_SMS_8,149,1,48,32,1351618728
52,4,2,T1_SMS_8,150,1,48,35,1352395480
52,4,2,T1_SMS_8,151,5,42,127,1352403296
52,4,2,T1_SMS_8,152,1,48,34,1353192476
52,4,2,T1_SMS_8,153,5,42,127,1353203952
52,4,2,T1_SMS_8,154,5,42,127,1354003768
52,4,2,T1_SMS_8,155,1,48,35,1354036952
52,4,2,T1_SMS_8,156,1,48,34,1354778548
52,4,2,T1_SMS_8,157,5,42,127,1354803496
52,4,2,T1_SMS_8,158,1,48,35,1355576864
52,4,2,T1_SMS_8,159,5,42,127,1355603228
52,4,2,T1_SMS_8,160,1,48,34,1356374724
52,4,2,T1_SMS_8,161,5,42,127,1356404080
52,4,2,T1_SMS_8,162,1,48,29,1357181196
52,4,2,T1_SMS_8,163,5,42,127,1357203888
52,4,2,T1_SMS_8,164,1,48,36,1357990128
52,4,2,T1_SMS_8,165,5,42,127,1358003772
52,4,2,T1_SMS_8,166,5,42,127,1358803216
52,4,2,T1_SMS_8,167,1,48,39,1358824684
52,4,2,T1_SMS_8,168,5,42,127,1359604096
52,4,2,T1_SMS_8,169,1,48,41,1359608336
52,4,2,T1_SMS_8,170,5,42,127,1360403680
52,4,2,T1_SMS_8,171,1,48,37,1360434096
52,4,2,T1_SMS_8,172,1,48,34,1361170912
52,4,2,T1_SMS_8,173,5,42,127,1361203704
52,4,2,T1_SMS_8,174,1,48,30,1361969144
52,4,2,T1_SMS_8,175,5,42,127,1362003364
52,4,2,T1_SMS_8,176,1,48,33,1362779284
52,4,2,T1_SMS_8,177,5,42,127,1362803924
52,4,2,T1_SMS_8,178,1,48,34,1363597636
52,4,2,T1_SMS_8,179,5,42,127,1363603952
52,4,2,T1_SMS_8,180,5,42,127,1364403692
52,4,2,T1_SMS_8,181,1,48,35,1364414216
52,4,2,T1_SMS_8,182,5,42,127,1365203280
52,4,2,T1_SMS_8,183,1,48,36,1365228112
52,4,2,T1_SMS_8,184,5,42,127,1366004156
52,4,2,T1_SMS_8,185,1,48,38,1366036296
52,4,2,T1_SMS_8,186,1,48,38,1366792632
52,4,2,T1_SMS_8,187,5,42,127,1366803960
52,4,2,T1_SMS_8,188,1,48,38,1367571796
52,4,2,T1_SMS_8,189,5,42,127,1367603468
52,4,2,T1_SMS_8,190,5,42,127,1368403508
52,4,2,T1_SMS_8,191,1,48,38,1368408792
52,4,2,T1_SMS_8,192,1,48,38,1369189960
52,4,2,T1_SMS_8,193,5,42,127,1369204132
52,4,2,T1_SMS_8,194,5,42,127,1370003796
52,4,2,T1_SMS_8,195,1,48,42,1370023520
52,4,2,T1_SMS_8,196,1,48,40,1370788824
52,4,2,T1_SMS_8,197,5,42,127,1370803448
52,4,2,T1_SMS_8,198,1,48,36,1371579280
52,4,2,T1_SMS_8,199,5,42,127,1371603404
52,4,2,T1_SMS_8,200,5,42,127,1372404216
52,4,2,T1_SMS_8,201,1,48,38,1372423868
52,4,2,T1_SMS_8,202,5,42,127,1373203728
52,4,2,T1_SMS_8,203,1,48,38,1373211184
52,4,2,T1_SMS_8,204,1,48,34,1373999004
52,4,2,T1_SMS_8,205,5,42,127,1374003680
52,4,2,T1_SMS_8,206,5,42,127,1374803344
52,4,2,T1_SMS_8,207,1,48,35,1374814320
52,4,2,T1_SMS_8,208,1,48,34,1375548436
52,4,2,T1_SMS_8,209,5,42,127,1375604044
52,4,2,T1_SMS_8,210,1,48,32,1376378756
52,4,2,T1_SMS_8,211,5,42,127,1376403852
52,4,2,T1_SMS_8,212,1,48,37,1377170336
52,4,2,T1_SMS_8,213,5,42,127,1377203508
52,4,2,T1_SMS_8,214,1,48,35,1377980320
52,4,2,T1_SMS_8,215,5,42,127,1378003316
52,4,2,T1_SMS_8,216,1,48,29,1378784864
52,4,2,T1_SMS_8,217,5,42,127,1378804268
52,4,2,T1_SMS_8,218,1,48,29,1379589760
52,4,2,T1_SMS_8,219,5,42,127,1379603780
52,4,2,T1_SMS_8,220,5,42,127,1380403520
52,4,2,T1_SMS_8,221,1,48,35,1380405080
52,4,2,T1_SMS_8,222,5,42,127,1381203328
52,4,2,T1_SMS_8,223,1,48,28,1381209216
52,4,2,T1_SMS_8,224,5,42,127,1382004184
52,4,2,T1_SMS_8,225,1,48,33,1382030188
52,4,2,T1_SMS_8,226,5,42,127,1382803840
52,4,2,T1_SMS_8,227,1,48,35,1382813244
52,4,2,T1_SMS_8,228,5,42,127,1383603576
52,4,2,T1_SMS_8,229,1,48,29,1383622176
52,4,2,T1_SMS_8,230,5,42,127,1384403232
52,4,2,T1_SMS_8,231,1,48,29,1384432856
52,4,2,T1_SMS_8,232,1,48,32,1385198384
52,4,2,T1_SMS_8,233,5,42,127,1385204104
52,4,2,T1_SMS_8,234,1,48,37,1385989448
52,4,2,T1_SMS_8,235,5,42,127,1386003912
52,4,2,T1_SMS_8,0,9999,9999,9999,1290801260
52,4,2,T1_SMS_8,1,9999,9999,9999,1291601012
52,4,2,T1_SMS_8,2,9999,9999,9999,1292401740
52,4,2,T1_SMS_8,3,9999,9999,9999,1293201496
52,4,2,T1_SMS_8,4,9999,9999,9999,1294001244
52,4,2,T1_SMS_8,5,9999,9999,9999,1294800980
52,4,2,T1_SMS_8,6,9999,9999,9999,1295601780
52,4,2,T1_SMS_8,7,9999,9999,9999,1296401516
52,4,2,T1_SMS_8,8,9999,9999,9999,1297201248
52,4,2,T1_SMS_8,9,9999,9999,9999,1298000980
52,4,2,T1_SMS_8,10,9999,9999,9999,1298801768
52,4,2,T1_SMS_8,11,9999,9999,9999,1299601500
52,4,2,T1_SMS_8,12,9999,9999,9999,1300401236
52,4,2,T1_SMS_8,13,9999,9999,9999,1301200968
52,4,2,T1_SMS_8,14,9999,9999,9999,1302001772
52,4,2,T1_SMS_8,15,9999,9999,9999,1302801508
52,4,2,T1_SMS_8,16,9999,9999,9999,1303601232
52,4,2,T1_SMS_8,17,9999,9999,9999,1304400968
52,4,2,T1_SMS_8,18,9999,9999,9999,1305201756
52,4,2,T1_SMS_8,19,9999,9999,9999,1306001488
52,4,2,T1_SMS_8,20,9999,9999,9999,1306801224
52,4,2,T1_SMS_8,21,9999,9999,9999,1307600956
52,4,2,T1_SMS_8,22,9999,9999,9999,1308401752
52,4,2,T1_SMS_8,23,9999,9999,9999,1309201484
52,4,2,T1_SMS_8,24,9999,9999,9999,1310001220
52,4,2,T1_SMS_8,25,9999,9999,9999,1310800960
52,4,2,T1_SMS_8,26,9999,9999,9999,1311601740
52,4,2,T1_SMS_8,27,9999,9999,9999,1312401468
52,4,2,T1_SMS_8,28,9999,9999,9999,1313201208
52,4,2,T1_SMS_8,29,9999,9999,9999,1314001008
52,4,2,T1_SMS_8,30,9999,9999,9999,1314801740
52,4,2,T1_SMS_8,31,9999,9999,9999,1315601472
52,4,2,T1_SMS_8,32,9999,9999,9999,1316401212
52,4,2,T1_SMS_8,33,9999,9999,9999,1317201012
52,4,2,T1_SMS_8,34,9999,9999,9999,1318001724
52,4,2,T1_SMS_8,35,9999,9999,9999,1318801460
52,4,2,T1_SMS_8,36,9999,9999,9999,1319601268
52,4,2,T1_SMS_8,37,9999,9999,9999,1320400992
52,4,2,T1_SMS_8,38,9999,9999,9999,1321201732
52,4,2,T1_SMS_8,39,9999,9999,9999,1322001464
52,4,2,T1_SMS_8,40,9999,9999,9999,1322801200
52,4,2,T1_SMS_8,41,9999,9999,9999,1323601000
52,4,2,T1_SMS_8,42,9999,9999,9999,1324401780
52,4,2,T1_SMS_8,43,9999,9999,9999,1325201516
52,4,2,T1_SMS_8,44,9999,9999,9999,1326001256
52,4,2,T1_SMS_8,45,9999,9999,9999,1326800984
52,4,2,T1_SMS_8,46,9999,9999,9999,1327601712
52,4,2,T1_SMS_8,47,9999,9999,9999,1328401528
52,4,2,T1_SMS_8,48,9999,9999,9999,1329201260
52,4,2,T1_SMS_8,49,9999,9999,9999,1330000992
52,4,2,T1_SMS_8,50,9999,9999,9999,1330801772
52,4,2,T1_SMS_8,51,9999,9999,9999,1331601504
52,4,2,T1_SMS_8,52,9999,9999,9999,1332401232
52,4,2,T1_SMS_8,53,9999,9999,9999,1333200964
52,4,2,T1_SMS_8,54,9999,9999,9999,1334001776
52,4,2,T1_SMS_8,55,9999,9999,9999,1334801512
52,4,2,T1_SMS_8,56,9999,9999,9999,1335601244
52,4,2,T1_SMS_8,57,9999,9999,9999,1336400980
52,4,2,T1_SMS_8,58,9999,9999,9999,1337201752
52,4,2,T1_SMS_8,59,9999,9999,9999,1338001488
52,4,2,T1_SMS_8,60,9999,9999,9999,1338801220
52,4,2,T1_SMS_8,61,9999,9999,9999,1339600952
52,4,2,T1_SMS_8,62,9999,9999,9999,1340401764
52,4,2,T1_SMS_8,63,9999,9999,9999,1341201500
52,4,2,T1_SMS_8,64,9999,9999,9999,1342001236
52,4,2,T1_SMS_8,65,9999,9999,9999,1342800964
52,4,2,T1_SMS_8,66,9999,9999,9999,1343601744
52,4,2,T1_SMS_8,67,9999,9999,9999,1344401484
52,4,2,T1_SMS_8,68,9999,9999,9999,1345201220
52,4,2,T1_SMS_8,69,9999,9999,9999,1346000948
52,4,2,T1_SMS_8,70,9999,9999,9999,1346801752
52,4,2,T1_SMS_8,71,9999,9999,9999,1347601492
52,4,2,T1_SMS_8,72,9999,9999,9999,1348401220
52,4,2,T1_SMS_8,73,9999,9999,9999,1349200956
52,4,2,T1_SMS_8,74,9999,9999,9999,1350001732
52,4,2,T1_SMS_8,75,9999,9999,9999,1350801468
52,4,2,T1_SMS_8,76,9999,9999,9999,1351601208
52,4,2,T1_SMS_8,77,9999,9999,9999,1352401008
52,4,2,T1_SMS_8,78,9999,9999,9999,1353201740
52,4,2,T1_SMS_8,79,9999,9999,9999,1354001480
52,4,2,T1_SMS_8,80,9999,9999,9999,1354801208
52,4,2,T1_SMS_8,81,9999,9999,9999,1355601012
52,4,2,T1_SMS_8,82,9999,9999,9999,1356401720
52,4,2,T1_SMS_8,83,9999,9999,9999,1357201528
52,4,2,T1_SMS_8,84,9999,9999,9999,1358001260
52,4,2,T1_SMS_8,85,9999,9999,9999,1358801004
52,4,2,T1_SMS_8,86,9999,9999,9999,1359601732
52,4,2,T1_SMS_8,87,9999,9999,9999,1360401468
52,4,2,T1_SMS_8,88,9999,9999,9999,1361201268
52,4,2,T1_SMS_8,89,9999,9999,9999,1362001004
52,4,2,T1_SMS_8,90,9999,9999,9999,1362801712
52,4,2,T1_SMS_8,91,9999,9999,9999,1363601516
52,4,2,T1_SMS_8,92,9999,9999,9999,1364401256
52,4,2,T1_SMS_8,93,9999,9999,9999,1365200988
52,4,2,T1_SMS_8,94,9999,9999,9999,1366001720
52,4,2,T1_SMS_8,95,9999,9999,9999,1366801524
52,4,2,T1_SMS_8,96,9999,9999,9999,1367601256
52,4,2,T1_SMS_8,97,9999,9999,9999,1368400996
52,4,2,T1_SMS_8,98,9999,9999,9999,1369201768
52,4,2,T1_SMS_8,99,9999,9999,9999,1370001508
52,4,2,T1_SMS_8,100,9999,9999,9999,1370801236
52,4,2,T1_SMS_8,101,9999,9999,9999,1371600968
52,4,2,T1_SMS_8,102,9999,9999,9999,1372401780
52,4,2,T1_SMS_8,103,9999,9999,9999,1373201516
52,4,2,T1_SMS_8,104,9999,9999,9999,1374001244
52,4,2,T1_SMS_8,105,9999,9999,9999,1374800984
52,4,2,T1_SMS_8,106,9999,9999,9999,1375601756
52,4,2,T1_SMS_8,107,9999,9999,9999,1376401488
52,4,2,T1_SMS_8,108,9999,9999,9999,1377201220
52,4,2,T1_SMS_8,109,9999,9999,9999,1378000956
52,4,2,T1_SMS_8,110,9999,9999,9999,1378801760
52,4,2,T1_SMS_8,111,9999,9999,9999,1379601492
52,4,2,T1_SMS_8,112,9999,9999,9999,1380401232
52,4,2,T1_SMS_8,113,9999,9999,9999,1381200964
52,4,2,T1_SMS_8,114,9999,9999,9999,1382001748
52,4,2,T1_SMS_8,115,9999,9999,9999,1382801480
52,4,2,T1_SMS_8,116,9999,9999,9999,1383601212
52,4,2,T1_SMS_8,117,9999,9999,9999,1384400944
52,4,2,T1_SMS_8,118,9999,9999,9999,1385201744
52,4,2,T1_SMS_8,119,9999,9999,9999,1386001476
52,5,10,Ticks_ISO_T2_5,0,5,42,127,1398030780
52,5,10,Ticks_ISO_T2_5,1,5,42,127,1398530276
52,5,10,Ticks_ISO_T2_5,2,5,42,127,1399030064
52,5,10,Ticks_ISO_T2_5,3,5,42,127,1399530900
52,5,10,Ticks_ISO_T2_5,4,1,48,35,1399989492
52,5,10,Ticks_ISO_T2_5,5,5,42,127,1400030684
52,5,10,Ticks_ISO_T2_5,6,5,42,127,1400530216
52,5,10,Ticks_ISO_T2_5,7,1,48,36,1400551908
52,5,10,Ticks_ISO_T2_5,8,5,42,127,1401030956
52,5,10,Ticks_ISO_T2_5,9,1,48,35,1401064312
52,5,10,Ticks_ISO_T2_5,10,5,42,127,1401530724
52,5,10,Ticks_ISO_T2_5,11,1,48,34,1401566852
52,5,10,Ticks_ISO_T2_5,12,5,42,127,1402030568
52,5,10,Ticks_ISO_T2_5,13,1,48,32,1402046400
52,5,10,Ticks_ISO_T2_5,14,5,42,127,1402530116
52,5,10,Ticks_ISO_T2_5,15,1,48,29,1402531676
52,5,10,Ticks_ISO_T2_5,16,5,42,127,1403031004
52,5,10,Ticks_ISO_T2_5,17,1,48,30,1403043324
52,5,10,Ticks_ISO_T2_5,18,5,42,127,1403530624
52,5,10,Ticks_ISO_T2_5,19,1,48,31,1403567772
52,5,10,Ticks_ISO_T2_5,20,1,48,37,1404029416
52,5,10,Ticks_ISO_T2_5,21,5,42,127,1404030760
52,5,10,Ticks_ISO_T2_5,22,5,42,127,1404531060
52,5,10,Ticks_ISO_T2_5,23,1,48,37,1404548912
52,5,10,Ticks_ISO_T2_5,24,5,42,127,1405030684
52,5,10,Ticks_ISO_T2_5,25,1,48,38,1405042704
52,5,10,Ticks_ISO_T2_5,26,5,42,127,1405530600
52,5,10,Ticks_ISO_T2_5,27,1,48,41,1405541648
52,5,10,Ticks_ISO_T2_5,28,5,42,127,1406030220
52,5,10,Ticks_ISO_T2_5,29,1,48,38,1406049648
52,5,10,Ticks_ISO_T2_5,30,5,42,127,1406531040
52,5,10,Ticks_ISO_T2_5,31,1,48,35,1406549492
52,5,10,Ticks_ISO_T2_5,32,5,42,127,1407030584
52,5,10,Ticks_ISO_T2_5,33,1,48,31,1407042528
52,5,10,Ticks_ISO_T2_5,34,5,42,127,1407530428
52,5,10,Ticks_ISO_T2_5,35,1,48,35,1407548580
52,5,10,Ticks_ISO_T2_5,36,5,42,127,1408031020
52,5,10,Ticks_ISO_T2_5,37,1,48,41,1408057404
52,5,10,Ticks_ISO_T2_5,38,5,42,127,1408530716
52,5,10,Ticks_ISO_T2_5,39,1,48,39,1408559036
52,5,10,Ticks_ISO_T2_5,40,5,42,127,1409030488
52,5,10,Ticks_ISO_T2_5,41,1,48,39,1409033080
52,5,10,Ticks_ISO_T2_5,42,1,48,39,1409530404
52,5,10,Ticks_ISO_T2_5,43,5,42,127,1409531816
52,5,10,Ticks_ISO_T2_5,44,1,48,39,1410030848
52,5,10,Ticks_ISO_T2_5,45,5,42,127,1410032260
52,5,10,Ticks_ISO_T2_5,46,5,42,127,1410530616
52,5,10,Ticks_ISO_T2_5,47,1,48,38,1410531584
52,5,10,Ticks_ISO_T2_5,48,1,48,38,1411023364
52,5,10,Ticks_ISO_T2_5,49,5,42,127,1411030356
52,5,10,Ticks_ISO_T2_5,50,5,42,127,1411531324
52,5,10,Ticks_ISO_T2_5,51,1,48,36,1411532364
52,5,10,Ticks_ISO_T2_5,52,5,42,127,1412030796
52,5,10,Ticks_ISO_T2_5,53,1,48,43,1412049620
52,5,10,Ticks_ISO_T2_5,54,1,48,37,1412521400
52,5,10,Ticks_ISO_T2_5,55,5,42,127,1412530484
52,5,10,Ticks_ISO_T2_5,56,1,48,40,1413012264
52,5,10,Ticks_ISO_T2_5,57,5,42,127,1413030476
52,5,10,Ticks_ISO_T2_5,58,5,42,127,1413530928
52,5,10,Ticks_ISO_T2_5,59,1,48,35,1413539428
52,5,10,Ticks_ISO_T2_5,60,5,42,127,1414030768
52,5,10,Ticks_ISO_T2_5,61,1,48,38,1414046152
52,5,10,Ticks_ISO_T2_5,62,5,42,127,1414530388
52,5,10,Ticks_ISO_T2_5,63,1,48,36,1414553104
52,5,10,Ticks_ISO_T2_5,64,5,42,127,1415030232
52,5,10,Ticks_ISO_T2_5,65,1,48,36,1415031196
52,5,10,Ticks_ISO_T2_5,66,5,42,127,1415530748
52,5,10,Ticks_ISO_T2_5,67,1,48,34,1415554884
52,5,10,Ticks_ISO_T2_5,68,5,42,127,1416030444
52,5,10,Ticks_ISO_T2_5,69,1,48,40,1416050692
52,5,10,Ticks_ISO_T2_5,70,1,48,37,1416521644
52,5,10,Ticks_ISO_T2_5,71,5,42,127,1416530432
52,5,10,Ticks_ISO_T2_5,72,1,48,38,1417020596
52,5,10,Ticks_ISO_T2_5,73,5,42,127,1417030948
52,5,10,Ticks_ISO_T2_5,74,1,48,39,1417515724
52,5,10,Ticks_ISO_T2_5,75,5,42,127,1417530720
52,5,10,Ticks_ISO_T2_5,76,5,42,127,1418030420
52,5,10,Ticks_ISO_T2_5,77,1,48,38,1418038772
52,5,10,Ticks_ISO_T2_5,78,5,42,127,1418530340
52,5,10,Ticks_ISO_T2_5,79,1,48,38,1418544900
52,5,10,Ticks_ISO_T2_5,80,5,42,127,1419030784
52,5,10,Ticks_ISO_T2_5,81,1,48,39,1419036516
52,5,10,Ticks_ISO_T2_5,82,1,48,41,1419522880
52,5,10,Ticks_ISO_T2_5,83,5,42,127,1419530692
52,5,10,Ticks_ISO_T2_5,84,5,42,127,1420030396
52,5,10,Ticks_ISO_T2_5,85,1,48,43,1420044132
52,5,10,Ticks_ISO_T2_5,86,5,42,127,1420531140
52,5,10,Ticks_ISO_T2_5,87,1,48,37,1420549064
52,5,10,Ticks_ISO_T2_5,88,5,42,127,1421030760
52,5,10,Ticks_ISO_T2_5,89,1,48,42,1421060804
52,5,10,Ticks_ISO_T2_5,90,5,42,127,1421530380
52,5,10,Ticks_ISO_T2_5,91,1,48,42,1421533944
52,5,10,Ticks_ISO_T2_5,92,5,42,127,1422030348
52,5,10,Ticks_ISO_T2_5,93,1,48,40,1422033468
52,5,10,Ticks_ISO_T2_5,94,1,48,41,1422516612
52,5,10,Ticks_ISO_T2_5,95,5,42,127,1422531008
52,5,10,Ticks_ISO_T2_5,96,5,42,127,1423030636
52,5,10,Ticks_ISO_T2_5,97,1,48,42,1423033976
52,5,10,Ticks_ISO_T2_5,98,1,48,37,1423524080
52,5,10,Ticks_ISO_T2_5,99,5,42,127,1423530468
52,5,10,Ticks_ISO_T2_5,100,5,42,127,1424031220
52,5,10,Ticks_ISO_T2_5,101,1,48,41,1424040028
52,5,10,Ticks_ISO_T2_5,102,5,42,127,1424530764
52,5,10,Ticks_ISO_T2_5,103,1,48,43,1424560512
52,5,10,Ticks_ISO_T2_5,104,1,48,42,1425029088
52,5,10,Ticks_ISO_T2_5,105,5,42,127,1425030676
52,5,10,Ticks_ISO_T2_5,106,5,42,127,1425530156
52,5,10,Ticks_ISO_T2_5,107,1,48,41,1425540000
52,5,10,Ticks_ISO_T2_5,108,5,42,127,1426031120
52,5,10,Ticks_ISO_T2_5,109,1,48,43,1426046576
52,5,10,Ticks_ISO_T2_5,110,5,42,127,1426530812
52,5,10,Ticks_ISO_T2_5,111,1,48,45,1426536476
52,5,10,Ticks_ISO_T2_5,112,1,48,37,1426984992
52,5,10,Ticks_ISO_T2_5,113,5,42,127,1427030428
52,5,10,Ticks_ISO_T2_5,114,5,42,127,1427531028
52,5,10,Ticks_ISO_T2_5,115,1,48,44,1427559048
52,5,10,Ticks_ISO_T2_5,116,5,42,127,1428030872
52,5,10,Ticks_ISO_T2_5,117,1,48,46,1428051936
52,5,10,Ticks_ISO_T2_5,118,5,42,127,1428530416
52,5,10,Ticks_ISO_T2_5,119,1,48,41,1428539892
52,5,10,Ticks_ISO_T2_5,120,5,42,127,1429030260
52,5,10,Ticks_ISO_T2_5,121,1,48,40,1429046544
52,5,10,Ticks_ISO_T2_5,122,5,42,127,1429530928
52,5,10,Ticks_ISO_T2_5,123,1,48,42,1429546464
52,5,10,Ticks_ISO_T2_5,124,5,42,127,1430030848
52,5,10,Ticks_ISO_T2_5,125,1,48,38,1430062168
52,5,10,Ticks_ISO_T2_5,126,5,42,127,1430530912
52,5,10,Ticks_ISO_T2_5,127,1,48,38,1430568884
52,5,10,Ticks_ISO_T2_5,128,5,42,127,1431030164
52,5,10,Ticks_ISO_T2_5,129,1,48,40,1431056692
52,5,10,Ticks_ISO_T2_5,130,5,42,127,1431530904
52,5,10,Ticks_ISO_T2_5,131,1,48,39,1431531872
52,5,10,Ticks_ISO_T2_5,132,1,48,38,1432028404
52,5,10,Ticks_ISO_T2_5,133,5,42,127,1432030520
52,5,10,Ticks_ISO_T2_5,134,1,48,35,1432520808
52,5,10,Ticks_ISO_T2_5,135,5,42,127,1432530412
52,5,10,Ticks_ISO_T2_5,136,5,42,127,1433031088
52,5,10,Ticks_ISO_T2_5,137,1,48,41,1433043256
52,5,10,Ticks_ISO_T2_5,138,5,42,127,1433530708
52,5,10,Ticks_ISO_T2_5,139,1,48,39,1433533604
52,5,10,Ticks_ISO_T2_5,140,1,48,42,1434028656
52,5,10,Ticks_ISO_T2_5,141,5,42,127,1434030544
52,5,10,Ticks_ISO_T2_5,142,5,42,127,1434530172
52,5,10,Ticks_ISO_T2_5,143,1,48,40,1434539128
52,5,10,Ticks_ISO_T2_5,144,5,42,127,1435030764
52,5,10,Ticks_ISO_T2_5,145,1,48,43,1435048764
52,5,10,Ticks_ISO_T2_5,146,5,42,127,1435530532
52,5,10,Ticks_ISO_T2_5,147,1,48,41,1435548684
52,5,10,Ticks_ISO_T2_5,148,1,48,43,1436030452
52,5,10,Ticks_ISO_T2_5,149,5,42,127,1436031788
52,5,10,Ticks_ISO_T2_5,150,1,48,40,1436507888
52,5,10,Ticks_ISO_T2_5,151,5,42,127,1436531040
52,5,10,Ticks_ISO_T2_5,152,5,42,127,1437030888
52,5,10,Ticks_ISO_T2_5,153,1,48,46,1437038192
52,5,10,Ticks_ISO_T2_5,154,5,42,127,1437530584
52,5,10,Ticks_ISO_T2_5,155,1,48,44,1437556440
52,5,10,Ticks_ISO_T2_5,156,5,42,127,1438030208
52,5,10,Ticks_ISO_T2_5,157,1,48,44,1438047760
52,5,10,Ticks_ISO_T2_5,158,5,42,127,1438530872
52,5,10,Ticks_ISO_T2_5,159,1,48,38,1438554264
52,5,10,Ticks_ISO_T2_5,160,5,42,127,1439030796
52,5,10,Ticks_ISO_T2_5,161,1,48,39,1439054184
52,5,10,Ticks_ISO_T2_5,162,1,48,43,1439524684
52,5,10,Ticks_ISO_T2_5,163,5,42,127,1439530632
52,5,10,Ticks_ISO_T2_5,164,5,42,127,1440031008
52,5,10,Ticks_ISO_T2_5,165,1,48,40,1440042728
52,5,10,Ticks_ISO_T2_5,166,5,42,127,1440530928
52,5,10,Ticks_ISO_T2_5,167,1,48,40,1440569576
52,5,10,Ticks_ISO_T2_5,168,5,42,127,1441030768
52,5,10,Ticks_ISO_T2_5,169,1,48,40,1441051692
52,5,10,Ticks_ISO_T2_5,170,5,42,127,1441530092
52,5,10,Ticks_ISO_T2_5,171,1,48,37,1441535676
52,5,10,Ticks_ISO_T2_5,172,1,48,38,1442020844
52,5,10,Ticks_ISO_T2_5,173,5,42,127,1442031124
52,5,10,Ticks_ISO_T2_5,174,1,48,39,1442517768
52,5,10,Ticks_ISO_T2_5,175,5,42,127,1442530744
52,5,10,Ticks_ISO_T2_5,176,1,48,40,1443022524
52,5,10,Ticks_ISO_T2_5,177,5,42,127,1443030588
52,5,10,Ticks_ISO_T2_5,178,1,48,41,1443525432
52,5,10,Ticks_ISO_T2_5,179,5,42,127,1443531376
52,5,10,Ticks_ISO_T2_5,180,5,42,127,1444030784
52,5,10,Ticks_ISO_T2_5,181,1,48,41,1444053668
52,5,10,Ticks_ISO_T2_5,182,5,42,127,1444530624
52,5,10,Ticks_ISO_T2_5,183,1,48,45,1444544212
52,5,10,Ticks_ISO_T2_5,184,5,42,127,1445030540
52,5,10,Ticks_ISO_T2_5,185,1,48,45,1445052588
52,5,10,Ticks_ISO_T2_5,186,1,48,45,1445518148
52,5,10,Ticks_ISO_T2_5,187,5,42,127,1445530904
52,5,10,Ticks_ISO_T2_5,188,5,42,127,1446030680
52,5,10,Ticks_ISO_T2_5,189,1,48,42,1446044192
52,5,10,Ticks_ISO_T2_5,190,1,48,40,1446528856
52,5,10,Ticks_ISO_T2_5,191,5,42,127,1446530592
52,5,10,Ticks_ISO_T2_5,192,1,48,41,1447029388
52,5,10,Ticks_ISO_T2_5,193,5,42,127,1447030960
52,5,10,Ticks_ISO_T2_5,194,1,48,41,1447519172
52,5,10,Ticks_ISO_T2_5,195,5,42,127,1447530880
52,5,10,Ticks_ISO_T2_5,196,5,42,127,1448030656
52,5,10,Ticks_ISO_T2_5,197,1,48,43,1448033328
52,5,10,Ticks_ISO_T2_5,198,1,48,45,1448526564
52,5,10,Ticks_ISO_T2_5,199,5,42,127,1448530564
52,5,10,Ticks_ISO_T2_5,200,5,42,127,1449030940
52,5,10,Ticks_ISO_T2_5,201,1,48,48,1449058064
52,5,10,Ticks_ISO_T2_5,202,5,42,127,1449530860
52,5,10,Ticks_ISO_T2_5,203,1,48,44,1449560008
52,5,10,Ticks_ISO_T2_5,204,1,48,45,1450021612
52,5,10,Ticks_ISO_T2_5,205,5,42,127,1450030848
52,5,10,Ticks_ISO_T2_5,206,1,48,43,1450527364
52,5,10,Ticks_ISO_T2_5,207,5,42,127,1450530316
52,5,10,Ticks_ISO_T2_5,208,5,42,127,1451030840
52,5,10,Ticks_ISO_T2_5,209,1,48,45,1451045624
52,5,10,Ticks_ISO_T2_5,210,5,42,127,1451530460
52,5,10,Ticks_ISO_T2_5,211,1,48,46,1451555788
52,5,10,Ticks_ISO_T2_5,212,5,42,127,1452030380
52,5,10,Ticks_ISO_T2_5,213,1,48,43,1452048828
52,5,10,Ticks_ISO_T2_5,214,5,42,127,1452531268
52,5,10,Ticks_ISO_T2_5,215,1,48,43,1452532308
52,5,10,Ticks_ISO_T2_5,216,1,48,44,1453025012
52,5,10,Ticks_ISO_T2_5,217,5,42,127,1453030884
52,5,10,Ticks_ISO_T2_5,218,5,42,127,1453530512
52,5,10,Ticks_ISO_T2_5,219,1,48,42,1453551808
52,5,10,Ticks_ISO_T2_5,220,5,42,127,1454030108
52,5,10,Ticks_ISO_T2_5,221,1,48,46,1454055468
52,5,10,Ticks_ISO_T2_5,222,5,42,127,1454531072
52,5,10,Ticks_ISO_T2_5,223,1,48,44,1454552244
52,5,10,Ticks_ISO_T2_5,224,5,42,127,1455030544
52,5,10,Ticks_ISO_T2_5,225,1,48,44,1455060980
52,5,10,Ticks_ISO_T2_5,226,5,42,127,1455530456
52,5,10,Ticks_ISO_T2_5,227,1,48,44,1455555936
52,5,10,Ticks_ISO_T2_5,228,5,42,127,1456031272
52,5,10,Ticks_ISO_T2_5,229,1,48,45,1456060944
52,5,10,Ticks_ISO_T2_5,230,5,42,127,1456530964
52,5,10,Ticks_ISO_T2_5,231,1,48,45,1456537676
52,5,10,Ticks_ISO_T2_5,232,1,48,45,1457000848
52,5,10,Ticks_ISO_T2_5,233,5,42,127,1457030652
52,5,10,Ticks_ISO_T2_5,234,5,42,127,1457530356
52,5,10,Ticks_ISO_T2_5,235,1,48,44,1457534444
52,5,10,Ticks_ISO_T2_5,236,5,42,127,1458031096
52,5,10,Ticks_ISO_T2_5,237,1,48,44,1458054484
52,5,10,Ticks_ISO_T2_5,238,5,42,127,1458530640
52,5,10,Ticks_ISO_T2_5,239,1,48,42,1458549316
52,5,10,Ticks_ISO_T2_5,240,5,42,127,1459030336
52,5,10,Ticks_ISO_T2_5,241,1,48,41,1459055816
52,5,10,Ticks_ISO_T2_5,242,5,42,127,1459531000
52,5,10,Ticks_ISO_T2_5,243,1,48,36,1459557004
52,5,10,Ticks_ISO_T2_5,244,1,48,43,1460027284
52,5,10,Ticks_ISO_T2_5,245,5,42,127,1460030912
52,5,10,Ticks_ISO_T2_5,246,1,48,38,1460515536
52,5,10,Ticks_ISO_T2_5,247,5,42,127,1460530608
52,5,10,Ticks_ISO_T2_5,248,1,48,40,1461024504
52,5,10,Ticks_ISO_T2_5,249,5,42,127,1461030228
52,5,10,Ticks_ISO_T2_5,250,5,42,127,1461531124
52,5,10,Ticks_ISO_T2_5,251,1,48,38,1461551820
52,5,10,Ticks_ISO_T2_5,252,5,42,127,1462030596
52,5,10,Ticks_ISO_T2_5,253,1,48,41,1462036856
52,5,10,Ticks_ISO_T2_5,254,5,42,127,1462530364
52,5,10,Ticks_ISO_T2_5,255,1,48,38,1462544100
52,5,10,Ticks_ISO_T2_5,0,9999,9999,9999,1398028340
52,5,10,Ticks_ISO_T2_5,1,9999,9999,9999,1398528056
52,5,10,Ticks_ISO_T2_5,2,9999,9999,9999,1399027776
52,5,10,Ticks_ISO_T2_5,3,9999,9999,9999,1399528536
52,5,10,Ticks_ISO_T2_5,4,9999,9999,9999,1400028248
52,5,10,Ticks_ISO_T2_5,5,9999,9999,9999,1400527924
52,5,10,Ticks_ISO_T2_5,6,9999,9999,9999,1401028664
52,5,10,Ticks_ISO_T2_5,7,9999,9999,9999,1401528432
52,5,10,Ticks_ISO_T2_5,8,9999,9999,9999,1402028128
52,5,10,Ticks_ISO_T2_5,9,9999,9999,9999,1402527824
52,5,10,Ticks_ISO_T2_5,10,9999,9999,9999,1403028568
52,5,10,Ticks_ISO_T2_5,11,9999,9999,9999,1403528260
52,5,10,Ticks_ISO_T2_5,12,9999,9999,9999,1404027956
52,5,10,Ticks_ISO_T2_5,13,9999,9999,9999,1404528696
52,5,10,Ticks_ISO_T2_5,14,9999,9999,9999,1405028468
52,5,10,Ticks_ISO_T2_5,15,9999,9999,9999,1405528164
52,5,10,Ticks_ISO_T2_5,16,9999,9999,9999,1406027856
52,5,10,Ticks_ISO_T2_5,17,9999,9999,9999,1406528600
52,5,10,Ticks_ISO_T2_5,18,9999,9999,9999,1407028296
52,5,10,Ticks_ISO_T2_5,19,9999,9999,9999,1407527988
52,5,10,Ticks_ISO_T2_5,20,9999,9999,9999,1408028732
52,5,10,Ticks_ISO_T2_5,21,9999,9999,9999,1408528500
52,5,10,Ticks_ISO_T2_5,22,9999,9999,9999,1409028196
52,5,10,Ticks_ISO_T2_5,23,9999,9999,9999,1409527892
52,5,10,Ticks_ISO_T2_5,24,9999,9999,9999,1410028632
52,5,10,Ticks_ISO_T2_5,25,9999,9999,9999,1410528328
52,5,10,Ticks_ISO_T2_5,26,9999,9999,9999,1411028064
52,5,10,Ticks_ISO_T2_5,27,9999,9999,9999,1411528816
52,5,10,Ticks_ISO_T2_5,28,9999,9999,9999,1412028508
52,5,10,Ticks_ISO_T2_5,29,9999,9999,9999,1412528196
52,5,10,Ticks_ISO_T2_5,30,9999,9999,9999,1413027888
52,5,10,Ticks_ISO_T2_5,31,9999,9999,9999,1413528636
52,5,10,Ticks_ISO_T2_5,32,9999,9999,9999,1414028404
52,5,10,Ticks_ISO_T2_5,33,9999,9999,9999,1414528100
52,5,10,Ticks_ISO_T2_5,34,9999,9999,9999,1415027792
52,5,10,Ticks_ISO_T2_5,35,9999,9999,9999,1415528532
52,5,10,Ticks_ISO_T2_5,36,9999,9999,9999,1416028228
52,5,10,Ticks_ISO_T2_5,37,9999,9999,9999,1416527992
52,5,10,Ticks_ISO_T2_5,38,9999,9999,9999,1417028660
52,5,10,Ticks_ISO_T2_5,39,9999,9999,9999,1417528428
52,5,10,Ticks_ISO_T2_5,40,9999,9999,9999,1418028132
52,5,10,Ticks_ISO_T2_5,41,9999,9999,9999,1418527824
52,5,10,Ticks_ISO_T2_5,42,9999,9999,9999,1419028568
52,5,10,Ticks_ISO_T2_5,43,9999,9999,9999,1419528256
52,5,10,Ticks_ISO_T2_5,44,9999,9999,9999,1420027956
52,5,10,Ticks_ISO_T2_5,45,9999,9999,9999,1420528700
52,5,10,Ticks_ISO_T2_5,46,9999,9999,9999,1421028468
52,5,10,Ticks_ISO_T2_5,47,9999,9999,9999,1421528164
52,5,10,Ticks_ISO_T2_5,48,9999,9999,9999,1422027836
52,5,10,Ticks_ISO_T2_5,49,9999,9999,9999,1422528568
52,5,10,Ticks_ISO_T2_5,50,9999,9999,9999,1423028344
52,5,10,Ticks_ISO_T2_5,51,9999,9999,9999,1423528032
52,5,10,Ticks_ISO_T2_5,52,9999,9999,9999,1424028780
52,5,10,Ticks_ISO_T2_5,53,9999,9999,9999,1424528476
52,5,10,Ticks_ISO_T2_5,54,9999,9999,9999,1425028168
52,5,10,Ticks_ISO_T2_5,55,9999,9999,9999,1425527864
52,5,10,Ticks_ISO_T2_5,56,9999,9999,9999,1426028604
52,5,10,Ticks_ISO_T2_5,57,9999,9999,9999,1426528376
52,5,10,Ticks_ISO_T2_5,58,9999,9999,9999,1427028064
52,5,10,Ticks_ISO_T2_5,59,9999,9999,9999,1427528816
52,5,10,Ticks_ISO_T2_5,60,9999,9999,9999,1428028504
52,5,10,Ticks_ISO_T2_5,61,9999,9999,9999,1428528200
52,5,10,Ticks_ISO_T2_5,62,9999,9999,9999,1429027896
52,5,10,Ticks_ISO_T2_5,63,9999,9999,9999,1429528640
52,5,10,Ticks_ISO_T2_5,64,9999,9999,9999,1430028408
52,5,10,Ticks_ISO_T2_5,65,9999,9999,9999,1430528104
52,5,10,Ticks_ISO_T2_5,66,9999,9999,9999,1431027796
52,5,10,Ticks_ISO_T2_5,67,9999,9999,9999,1431528540
52,5,10,Ticks_ISO_T2_5,68,9999,9999,9999,1432028268
52,5,10,Ticks_ISO_T2_5,69,9999,9999,9999,1432527976
52,5,10,Ticks_ISO_T2_5,70,9999,9999,9999,1433028724
52,5,10,Ticks_ISO_T2_5,71,9999,9999,9999,1433528416
52,5,10,Ticks_ISO_T2_5,72,9999,9999,9999,1434028132
52,5,10,Ticks_ISO_T2_5,73,9999,9999,9999,1434527808
52,5,10,Ticks_ISO_T2_5,74,9999,9999,9999,1435028548
52,5,10,Ticks_ISO_T2_5,75,9999,9999,9999,1435528244
52,5,10,Ticks_ISO_T2_5,76,9999,9999,9999,1436028012
52,5,10,Ticks_ISO_T2_5,77,9999,9999,9999,1436528748
52,5,10,Ticks_ISO_T2_5,78,9999,9999,9999,1437028448
52,5,10,Ticks_ISO_T2_5,79,9999,9999,9999,1437528144
52,5,10,Ticks_ISO_T2_5,80,9999,9999,9999,1438027840
52,5,10,Ticks_ISO_T2_5,81,9999,9999,9999,1438528584
52,5,10,Ticks_ISO_T2_5,82,9999,9999,9999,1439028280
52,5,10,Ticks_ISO_T2_5,83,9999,9999,9999,1439528044
52,5,10,Ticks_ISO_T2_5,84,9999,9999,9999,1440028792
52,5,10,Ticks_ISO_T2_5,85,9999,9999,9999,1440528488
52,5,10,Ticks_ISO_T2_5,86,9999,9999,9999,1441028180
52,5,10,Ticks_ISO_T2_5,87,9999,9999,9999,1441527876
52,5,10,Ticks_ISO_T2_5,88,9999,9999,9999,1442028612
52,5,10,Ticks_ISO_T2_5,89,9999,9999,9999,1442528304
52,5,10,Ticks_ISO_T2_5,90,9999,9999,9999,1443028048
52,5,10,Ticks_ISO_T2_5,91,9999,9999,9999,1443528792
52,5,10,Ticks_ISO_T2_5,92,9999,9999,9999,1444028492
52,5,10,Ticks_ISO_T2_5,93,9999,9999,9999,1444528188
52,5,10,Ticks_ISO_T2_5,94,9999,9999,9999,1445027956
52,5,10,Ticks_ISO_T2_5,95,9999,9999,9999,1445528688
52,5,10,Ticks_ISO_T2_5,96,9999,9999,9999,1446028388
52,5,10,Ticks_ISO_T2_5,97,9999,9999,9999,1446528084
52,5,10,Ticks_ISO_T2_5,98,9999,9999,9999,1447027780
52,5,10,Ticks_ISO_T2_5,99,9999,9999,9999,1447528516
52,5,10,Ticks_ISO_T2_5,100,9999,9999,9999,1448028216
52,5,10,Ticks_ISO_T2_5,101,9999,9999,9999,1448527980
52,5,10,Ticks_ISO_T2_5,102,9999,9999,9999,1449028724
52,5,10,Ticks_ISO_T2_5,103,9999,9999,9999,1449528420
52,5,10,Ticks_ISO_T2_5,104,9999,9999,9999,1450028108
52,5,10,Ticks_ISO_T2_5,105,9999,9999,9999,1450527804
52,5,10,Ticks_ISO_T2_5,106,9999,9999,9999,1451028552
52,5,10,Ticks_ISO_T2_5,107,9999,9999,9999,1451528244
52,5,10,Ticks_ISO_T2_5,108,9999,9999,9999,1452028016
52,5,10,Ticks_ISO_T2_5,109,9999,9999,9999,1452528756
52,5,10,Ticks_ISO_T2_5,110,9999,9999,9999,1453028444
52,5,10,Ticks_ISO_T2_5,111,9999,9999,9999,1453528144
52,5,10,Ticks_ISO_T2_5,112,9999,9999,9999,1454027892
52,5,10,Ticks_ISO_T2_5,113,9999,9999,9999,1454528632
52,5,10,Ticks_ISO_T2_5,114,9999,9999,9999,1455028328
52,5,10,Ticks_ISO_T2_5,115,9999,9999,9999,1455528016
52,5,10,Ticks_ISO_T2_5,116,9999,9999,9999,1456028756
52,5,10,Ticks_ISO_T2_5,117,9999,9999,9999,1456528452
52,5,10,Ticks_ISO_T2_5,118,9999,9999,9999,1457028212
52,5,10,Ticks_ISO_T2_5,119,9999,9999,9999,1457527916
52,5,10,Ticks_ISO_T2_5,120,9999,9999,9999,1458028656
52,5,10,Ticks_ISO_T2_5,121,9999,9999,9999,1458528352
52,5,10,Ticks_ISO_T2_5,122,9999,9999,9999,1459028044
52,5,10,Ticks_ISO_T2_5,123,9999,9999,9999,1459528788
52,5,10,Ticks_ISO_T2_5,124,9999,9999,9999,1460028476
52,5,10,Ticks_ISO_T2_5,125,9999,9999,9999,1460528244
52,5,10,Ticks_ISO_T2_5,126,9999,9999,9999,1461027936
52,5,10,Ticks_ISO_T2_5,127,9999,9999,9999,1461528684
52,5,10,Ticks_ISO_T2_5,128,9999,9999,9999,1462028380
52,5,10,Ticks_ISO_T2_5,129,9999,9999,9999,1462528076
52,6,9,Ticks_ISO_T2_8,0,5,42,127,1473392856
52,6,9,Ticks_ISO_T2_8,1,5,42,127,1474192684
52,6,9,Ticks_ISO_T2_8,2,5,42,127,1474992588
52,6,9,Ticks_ISO_T2_8,3,5,42,127,1475792344
52,6,9,Ticks_ISO_T2_8,4,1,48,33,1476556084
52,6,9,Ticks_ISO_T2_8,5,5,42,127,1476592940
52,6,9,Ticks_ISO_T2_8,6,1,48,45,1477322676
52,6,9,Ticks_ISO_T2_8,7,5,42,127,1477392748
52,6,9,Ticks_ISO_T2_8,8,1,48,39,1478138444
52,6,9,Ticks_ISO_T2_8,9,5,42,127,1478192484
52,6,9,Ticks_ISO_T2_8,10,1,48,33,1478979692
52,6,9,Ticks_ISO_T2_8,11,5,42,127,1478992216
52,6,9,Ticks_ISO_T2_8,12,1,48,36,1479783164
52,6,9,Ticks_ISO_T2_8,13,5,42,127,1479792996
52,6,9,Ticks_ISO_T2_8,14,5,42,127,1480592960
52,6,9,Ticks_ISO_T2_8,15,1,48,40,1480611416
52,6,9,Ticks_ISO_T2_8,16,5,42,127,1481392472
52,6,9,Ticks_ISO_T2_8,17,1,48,41,1481408828
52,6,9,Ticks_ISO_T2_8,18,5,42,127,1482192356
52,6,9,Ticks_ISO_T2_8,19,1,48,41,1482218160
52,6,9,Ticks_ISO_T2_8,20,5,42,127,1482993012
52,6,9,Ticks_ISO_T2_8,21,1,48,41,1482997696
52,6,9,Ticks_ISO_T2_8,22,5,42,127,1483792672
52,6,9,Ticks_ISO_T2_8,23,1,48,37,1483805888
52,6,9,Ticks_ISO_T2_8,24,5,42,127,1484592628
52,6,9,Ticks_ISO_T2_8,25,1,48,35,1484600084
52,6,9,Ticks_ISO_T2_8,26,5,42,127,1485392284
52,6,9,Ticks_ISO_T2_8,27,1,48,38,1485421432
52,6,9,Ticks_ISO_T2_8,28,1,48,42,1486163776
52,6,9,Ticks_ISO_T2_8,29,5,42,127,1486192984
52,6,9,Ticks_ISO_T2_8,30,1,48,38,1486960372
52,6,9,Ticks_ISO_T2_8,31,5,42,127,1486992716
52,6,9,Ticks_ISO_T2_8,32,1,48,41,1487769980
52,6,9,Ticks_ISO_T2_8,33,5,42,127,1487792524
52,6,9,Ticks_ISO_T2_8,34,1,48,34,1488588708
52,6,9,Ticks_ISO_T2_8,35,5,42,127,1488592484
52,6,9,Ticks_ISO_T2_8,36,5,42,127,1489392972
52,6,9,Ticks_ISO_T2_8,37,1,48,40,1489402744
52,6,9,Ticks_ISO_T2_8,38,5,42,127,1490192708
52,6,9,Ticks_ISO_T2_8,39,1,48,45,1490216692
52,6,9,Ticks_ISO_T2_8,40,1,48,45,1490987536
52,6,9,Ticks_ISO_T2_8,41,5,42,127,1490992432
52,6,9,Ticks_ISO_T2_8,42,1,48,47,1491790124
52,6,9,Ticks_ISO_T2_8,43,5,42,127,1491792388
52,6,9,Ticks_ISO_T2_8,44,1,48,30,1492567332
52,6,9,Ticks_ISO_T2_8,45,5,42,127,1492593096
52,6,9,Ticks_ISO_T2_8,46,1,48,42,1493365344
52,6,9,Ticks_ISO_T2_8,47,5,42,127,1493392680
52,6,9,Ticks_ISO_T2_8,48,1,48,42,1494138672
52,6,9,Ticks_ISO_T2_8,49,5,42,127,1494192412
52,6,9,Ticks_ISO_T2_8,50,1,48,36,1494975132
52,6,9,Ticks_ISO_T2_8,51,5,42,127,1494992368
52,6,9,Ticks_ISO_T2_8,52,1,48,37,1495791264
52,6,9,Ticks_ISO_T2_8,53,5,42,127,1495792928
52,6,9,Ticks_ISO_T2_8,54,1,48,37,1496553956
52,6,9,Ticks_ISO_T2_8,55,5,42,127,1496592956
52,6,9,Ticks_ISO_T2_8,56,1,48,43,1497370516
52,6,9,Ticks_ISO_T2_8,57,5,42,127,1497392468
52,6,9,Ticks_ISO_T2_8,58,5,42,127,1498192136
52,6,9,Ticks_ISO_T2_8,59,1,48,43,1498203556
52,6,9,Ticks_ISO_T2_8,60,1,48,40,1498993288
52,6,9,Ticks_ISO_T2_8,61,5,42,127,1498994624
52,6,9,Ticks_ISO_T2_8,62,5,42,127,1499792872
52,6,9,Ticks_ISO_T2_8,63,1,48,30,1499796592
52,6,9,Ticks_ISO_T2_8,64,5,42,127,1500592384
52,6,9,Ticks_ISO_T2_8,65,1,48,36,1500611284
52,6,9,Ticks_ISO_T2_8,66,1,48,37,1501387436
52,6,9,Ticks_ISO_T2_8,67,5,42,127,1501392184
52,6,9,Ticks_ISO_T2_8,68,5,42,127,1502192996
52,6,9,Ticks_ISO_T2_8,69,1,48,35,1502206136
52,6,9,Ticks_ISO_T2_8,70,5,42,127,1502992948
52,6,9,Ticks_ISO_T2_8,71,1,48,38,1503043792
52,6,9,Ticks_ISO_T2_8,72,1,48,46,1503780080
52,6,9,Ticks_ISO_T2_8,73,5,42,127,1503792452
52,6,9,Ticks_ISO_T2_8,74,5,42,127,1504592344
52,6,9,Ticks_ISO_T2_8,75,1,48,35,1504615056
52,6,9,Ticks_ISO_T2_8,76,5,42,127,1505392900
52,6,9,Ticks_ISO_T2_8,77,1,48,34,1505438956
52,6,9,Ticks_ISO_T2_8,78,5,42,127,1506192856
52,6,9,Ticks_ISO_T2_8,79,1,48,40,1506204572
52,6,9,Ticks_ISO_T2_8,80,1,48,38,1506982152
52,6,9,Ticks_ISO_T2_8,81,5,42,127,1506992580
52,6,9,Ticks_ISO_T2_8,82,5,42,127,1507792172
52,6,9,Ticks_ISO_T2_8,83,1,48,33,1507807580
52,6,9,Ticks_ISO_T2_8,84,5,42,127,1508592904
52,6,9,Ticks_ISO_T2_8,85,1,48,38,1508626764
52,6,9,Ticks_ISO_T2_8,86,1,48,39,1509386684
52,6,9,Ticks_ISO_T2_8,87,5,42,127,1509392704
52,6,9,Ticks_ISO_T2_8,88,1,48,36,1510182308
52,6,9,Ticks_ISO_T2_8,89,5,42,127,1510192436
52,6,9,Ticks_ISO_T2_8,90,5,42,127,1510992176
52,6,9,Ticks_ISO_T2_8,91,1,48,29,1511003820
52,6,9,Ticks_ISO_T2_8,92,1,48,34,1511780200
52,6,9,Ticks_ISO_T2_8,93,5,42,127,1511792952
52,6,9,Ticks_ISO_T2_8,94,1,48,33,1512554876
52,6,9,Ticks_ISO_T2_8,95,5,42,127,1512592612
52,6,9,Ticks_ISO_T2_8,96,1,48,38,1513374208
52,6,9,Ticks_ISO_T2_8,97,5,42,127,1513392492
52,6,9,Ticks_ISO_T2_8,98,1,48,35,1514156660
52,6,9,Ticks_ISO_T2_8,99,5,42,127,1514192224
52,6,9,Ticks_ISO_T2_8,100,1,48,34,1514985740
52,6,9,Ticks_ISO_T2_8,101,5,42,127,1514993032
52,6,9,Ticks_ISO_T2_8,102,1,48,31,1515786596
52,6,9,Ticks_ISO_T2_8,103,5,42,127,1515792688
52,6,9,Ticks_ISO_T2_8,104,1,48,34,1516584460
52,6,9,Ticks_ISO_T2_8,105,5,42,127,1516592424
52,6,9,Ticks_ISO_T2_8,106,1,48,32,1517367960
52,6,9,Ticks_ISO_T2_8,107,5,42,127,1517392380
52,6,9,Ticks_ISO_T2_8,108,5,42,127,1518192944
52,6,9,Ticks_ISO_T2_8,109,1,48,36,1518207652
52,6,9,Ticks_ISO_T2_8,110,5,42,127,1518992676
52,6,9,Ticks_ISO_T2_8,111,1,48,32,1519030052
52,6,9,Ticks_ISO_T2_8,112,1,48,33,1519786236
52,6,9,Ticks_ISO_T2_8,113,5,42,127,1519792476
52,6,9,Ticks_ISO_T2_8,114,1,48,35,1520545804
52,6,9,Ticks_ISO_T2_8,115,5,42,127,1520592360
52,6,9,Ticks_ISO_T2_8,116,1,48,35,1521365356
52,6,9,Ticks_ISO_T2_8,117,5,42,127,1521393140
52,6,9,Ticks_ISO_T2_8,118,5,42,127,1522192732
52,6,9,Ticks_ISO_T2_8,119,1,48,35,1522221060
52,6,9,Ticks_ISO_T2_8,120,5,42,127,1522992612
52,6,9,Ticks_ISO_T2_8,121,1,48,37,1522996480
52,6,9,Ticks_ISO_T2_8,122,1,48,38,1523782432
52,6,9,Ticks_ISO_T2_8,123,5,42,127,1523792192
52,6,9,Ticks_ISO_T2_8,124,5,42,127,1524593276
52,6,9,Ticks_ISO_T2_8,125,1,48,40,1524602604
52,6,9,Ticks_ISO_T2_8,126,5,42,127,1525392712
52,6,9,Ticks_ISO_T2_8,127,1,48,34,1525411240
52,6,9,Ticks_ISO_T2_8,128,1,48,43,1526178340
52,6,9,Ticks_ISO_T2_8,129,5,42,127,1526192512
52,6,9,Ticks_ISO_T2_8,130,5,42,127,1526992500
52,6,9,Ticks_ISO_T2_8,131,1,48,46,1526993464
52,6,9,Ticks_ISO_T2_8,132,5,42,127,1527793132
52,6,9,Ticks_ISO_T2_8,133,1,48,41,1527808884
52,6,9,Ticks_ISO_T2_8,134,1,48,42,1528523160
52,6,9,Ticks_ISO_T2_8,135,5,42,127,1528592632
52,6,9,Ticks_ISO_T2_8,136,5,42,127,1529392596
52,6,9,Ticks_ISO_T2_8,137,1,48,37,1529395640
52,6,9,Ticks_ISO_T2_8,138,5,42,127,1530192332
52,6,9,Ticks_ISO_T2_8,139,1,48,39,1530225144
52,6,9,Ticks_ISO_T2_8,140,1,48,35,1530990008
52,6,9,Ticks_ISO_T2_8,141,5,42,127,1530993104
52,6,9,Ticks_ISO_T2_8,142,1,48,44,1531735508
52,6,9,Ticks_ISO_T2_8,143,5,42,127,1531792688
52,6,9,Ticks_ISO_T2_8,144,1,48,35,1532592504
52,6,9,Ticks_ISO_T2_8,145,5,42,127,1532593916
52,6,9,Ticks_ISO_T2_8,146,1,48,36,1533384636
52,6,9,Ticks_ISO_T2_8,147,5,42,127,1533392256
52,6,9,Ticks_ISO_T2_8,148,1,48,34,1534163084
52,6,9,Ticks_ISO_T2_8,149,5,42,127,1534193184
52,6,9,Ticks_ISO_T2_8,150,5,42,127,1534992700
52,6,9,Ticks_ISO_T2_8,151,1,48,39,1534995368
52,6,9,Ticks_ISO_T2_8,152,5,42,127,1535792508
52,6,9,Ticks_ISO_T2_8,153,1,48,36,1535823376
52,6,9,Ticks_ISO_T2_8,154,1,48,42,1536583524
52,6,9,Ticks_ISO_T2_8,155,5,42,127,1536592236
52,6,9,Ticks_ISO_T2_8,156,5,42,127,1537392872
52,6,9,Ticks_ISO_T2_8,157,1,48,42,1537418800
52,6,9,Ticks_ISO_T2_8,158,5,42,127,1538192756
52,6,9,Ticks_ISO_T2_8,159,1,48,47,1538225272
52,6,9,Ticks_ISO_T2_8,160,1,48,43,1538991280
52,6,9,Ticks_ISO_T2_8,161,5,42,127,1538992928
52,6,9,Ticks_ISO_T2_8,162,5,42,127,1539792320
52,6,9,Ticks_ISO_T2_8,163,1,48,48,1539800900
52,6,9,Ticks_ISO_T2_8,164,5,42,127,1540592952
52,6,9,Ticks_ISO_T2_8,165,1,48,43,1540622848
52,6,9,Ticks_ISO_T2_8,166,5,42,127,1541392836
52,6,9,Ticks_ISO_T2_8,167,1,48,44,1541396028
52,6,9,Ticks_ISO_T2_8,168,1,48,41,1542183704
52,6,9,Ticks_ISO_T2_8,169,5,42,127,1542192416
52,6,9,Ticks_ISO_T2_8,170,1,48,43,1542985452
52,6,9,Ticks_ISO_T2_8,171,5,42,127,1542992148
52,6,9,Ticks_ISO_T2_8,172,5,42,127,1543792936
52,6,9,Ticks_ISO_T2_8,173,1,48,37,1543816020
52,6,9,Ticks_ISO_T2_8,174,5,42,127,1544592740
52,6,9,Ticks_ISO_T2_8,175,1,48,43,1544620620
52,6,9,Ticks_ISO_T2_8,176,1,48,29,1545376648
52,6,9,Ticks_ISO_T2_8,177,5,42,127,1545392468
52,6,9,Ticks_ISO_T2_8,178,1,48,43,1546188572
52,6,9,Ticks_ISO_T2_8,179,5,42,127,1546192300
52,6,9,Ticks_ISO_T2_8,180,5,42,127,1546992936
52,6,9,Ticks_ISO_T2_8,181,1,48,39,1547002636
52,6,9,Ticks_ISO_T2_8,182,1,48,35,1547786120
52,6,9,Ticks_ISO_T2_8,183,5,42,127,1547792664
52,6,9,Ticks_ISO_T2_8,184,1,48,32,1548552352
52,6,9,Ticks_ISO_T2_8,185,5,42,127,1548592548
52,6,9,Ticks_ISO_T2_8,186,1,48,39,1549356196
52,6,9,Ticks_ISO_T2_8,187,5,42,127,1549392280
52,6,9,Ticks_ISO_T2_8,188,1,48,38,1550176720
52,6,9,Ticks_ISO_T2_8,189,5,42,127,1550192988
52,6,9,Ticks_ISO_T2_8,190,5,42,127,1550992800
52,6,9,Ticks_ISO_T2_8,191,1,48,40,1551036688
52,6,9,Ticks_ISO_T2_8,192,1,48,43,1551788232
52,6,9,Ticks_ISO_T2_8,193,5,42,127,1551792604
52,6,9,Ticks_ISO_T2_8,194,1,48,30,1552567092
52,6,9,Ticks_ISO_T2_8,195,5,42,127,1552592360
52,6,9,Ticks_ISO_T2_8,196,5,42,127,1553392996
52,6,9,Ticks_ISO_T2_8,197,1,48,38,1554173340
52,6,9,Ticks_ISO_T2_8,198,5,42,127,1554192748
52,6,9,Ticks_ISO_T2_8,199,1,48,36,1554964548
52,6,9,Ticks_ISO_T2_8,200,5,42,127,1554992480
52,6,9,Ticks_ISO_T2_8,201,1,48,42,1555783572
52,6,9,Ticks_ISO_T2_8,202,5,42,127,1555792360
52,6,9,Ticks_ISO_T2_8,203,1,48,38,1556555484
52,6,9,Ticks_ISO_T2_8,204,5,42,127,1556592992
52,6,9,Ticks_ISO_T2_8,205,1,48,38,1557328808
52,6,9,Ticks_ISO_T2_8,206,5,42,127,1557392800
52,6,9,Ticks_ISO_T2_8,207,1,48,40,1558161308
52,6,9,Ticks_ISO_T2_8,208,5,42,127,1558192532
52,6,9,Ticks_ISO_T2_8,209,5,42,127,1558992296
52,6,9,Ticks_ISO_T2_8,210,1,48,44,1558998332
52,6,9,Ticks_ISO_T2_8,211,1,48,41,1559767532
52,6,9,Ticks_ISO_T2_8,212,5,42,127,1559792924
52,6,9,Ticks_ISO_T2_8,213,5,42,127,1560592740
52,6,9,Ticks_ISO_T2_8,214,1,48,41,1560601992
52,6,9,Ticks_ISO_T2_8,215,1,48,50,1561367600
52,6,9,Ticks_ISO_T2_8,216,5,42,127,1561392464
52,6,9,Ticks_ISO_T2_8,217,5,42,127,1562192428
52,6,9,Ticks_ISO_T2_8,218,1,48,43,1562212004
52,6,9,Ticks_ISO_T2_8,219,5,42,127,1562992984
52,6,9,Ticks_ISO_T2_8,220,1,48,36,1563030664
52,6,9,Ticks_ISO_T2_8,221,5,42,127,1563792720
52,6,9,Ticks_ISO_T2_8,222,1,48,44,1563798524
52,6,9,Ticks_ISO_T2_8,223,5,42,127,1564592452
52,6,9,Ticks_ISO_T2_8,224,1,48,41,1564603344
52,6,9,Ticks_ISO_T2_8,225,5,42,127,1565392360
52,6,9,Ticks_ISO_T2_8,226,1,48,44,1565406472
52,6,9,Ticks_ISO_T2_8,227,1,48,37,1566192988
52,6,9,Ticks_ISO_T2_8,228,5,42,127,1566194400
52,6,9,Ticks_ISO_T2_8,229,5,42,127,1566992724
52,6,9,Ticks_ISO_T2_8,230,1,48,42,1567006312
52,6,9,Ticks_ISO_T2_8,231,5,42,127,1567792460
52,6,9,Ticks_ISO_T2_8,232,1,48,43,1567828932
52,6,9,Ticks_ISO_T2_8,233,5,42,127,1568592264
52,6,9,Ticks_ISO_T2_8,234,1,48,43,1568601296
52,6,9,Ticks_ISO_T2_8,235,1,48,40,1569384928
52,6,9,Ticks_ISO_T2_8,0,9999,9999,9999,1473390640
52,6,9,Ticks_ISO_T2_8,1,9999,9999,9999,1474190396
52,6,9,Ticks_ISO_T2_8,2,9999,9999,9999,1474990152
52,6,9,Ticks_ISO_T2_8,3,9999,9999,9999,1475789908
52,6,9,Ticks_ISO_T2_8,4,9999,9999,9999,1476590652
52,6,9,Ticks_ISO_T2_8,5,9999,9999,9999,1477390384
52,6,9,Ticks_ISO_T2_8,6,9999,9999,9999,1478190196
52,6,9,Ticks_ISO_T2_8,7,9999,9999,9999,1478989928
52,6,9,Ticks_ISO_T2_8,8,9999,9999,9999,1479790708
52,6,9,Ticks_ISO_T2_8,9,9999,9999,9999,1480590448
52,6,9,Ticks_ISO_T2_8,10,9999,9999,9999,1481390184
52,6,9,Ticks_ISO_T2_8,11,9999,9999,9999,1482189920
52,6,9,Ticks_ISO_T2_8,12,9999,9999,9999,1482990648
52,6,9,Ticks_ISO_T2_8,13,9999,9999,9999,1483790380
52,6,9,Ticks_ISO_T2_8,14,9999,9999,9999,1484590192
52,6,9,Ticks_ISO_T2_8,15,9999,9999,9999,1485389924
52,6,9,Ticks_ISO_T2_8,16,9999,9999,9999,1486190696
52,6,9,Ticks_ISO_T2_8,17,9999,9999,9999,1486990428
52,6,9,Ticks_ISO_T2_8,18,9999,9999,9999,1487790164
52,6,9,Ticks_ISO_T2_8,19,9999,9999,9999,1488589900
52,6,9,Ticks_ISO_T2_8,20,9999,9999,9999,1489390684
52,6,9,Ticks_ISO_T2_8,21,9999,9999,9999,1490190416
52,6,9,Ticks_ISO_T2_8,22,9999,9999,9999,1490990144
52,6,9,Ticks_ISO_T2_8,23,9999,9999,9999,1491789916
52,6,9,Ticks_ISO_T2_8,24,9999,9999,9999,1492590660
52,6,9,Ticks_ISO_T2_8,25,9999,9999,9999,1493390392
52,6,9,Ticks_ISO_T2_8,26,9999,9999,9999,1494190124
52,6,9,Ticks_ISO_T2_8,27,9999,9999,9999,1494989932
52,6,9,Ticks_ISO_T2_8,28,9999,9999,9999,1495790664
52,6,9,Ticks_ISO_T2_8,29,9999,9999,9999,1496590448
52,6,9,Ticks_ISO_T2_8,30,9999,9999,9999,1497390180
52,6,9,Ticks_ISO_T2_8,31,9999,9999,9999,1498189920
52,6,9,Ticks_ISO_T2_8,32,9999,9999,9999,1498990700
52,6,9,Ticks_ISO_T2_8,33,9999,9999,9999,1499790436
52,6,9,Ticks_ISO_T2_8,34,9999,9999,9999,1500590168
52,6,9,Ticks_ISO_T2_8,35,9999,9999,9999,1501389896
52,6,9,Ticks_ISO_T2_8,36,9999,9999,9999,1502190708
52,6,9,Ticks_ISO_T2_8,37,9999,9999,9999,1502990440
52,6,9,Ticks_ISO_T2_8,38,9999,9999,9999,1503790164
52,6,9,Ticks_ISO_T2_8,39,9999,9999,9999,1504589908
52,6,9,Ticks_ISO_T2_8,40,9999,9999,9999,1505390684
52,6,9,Ticks_ISO_T2_8,41,9999,9999,9999,1506190420
52,6,9,Ticks_ISO_T2_8,42,9999,9999,9999,1506990144
52,6,9,Ticks_ISO_T2_8,43,9999,9999,9999,1507789884
52,6,9,Ticks_ISO_T2_8,44,9999,9999,9999,1508590688
52,6,9,Ticks_ISO_T2_8,45,9999,9999,9999,1509390416
52,6,9,Ticks_ISO_T2_8,46,9999,9999,9999,1510190148
52,6,9,Ticks_ISO_T2_8,47,9999,9999,9999,1510989888
52,6,9,Ticks_ISO_T2_8,48,9999,9999,9999,1511790664
52,6,9,Ticks_ISO_T2_8,49,9999,9999,9999,1512590396
52,6,9,Ticks_ISO_T2_8,50,9999,9999,9999,1513390128
52,6,9,Ticks_ISO_T2_8,51,9999,9999,9999,1514189940
52,6,9,Ticks_ISO_T2_8,52,9999,9999,9999,1514990668
52,6,9,Ticks_ISO_T2_8,53,9999,9999,9999,1515790400
52,6,9,Ticks_ISO_T2_8,54,9999,9999,9999,1516590136
52,6,9,Ticks_ISO_T2_8,55,9999,9999,9999,1517389944
52,6,9,Ticks_ISO_T2_8,56,9999,9999,9999,1518190656
52,6,9,Ticks_ISO_T2_8,57,9999,9999,9999,1518990388
52,6,9,Ticks_ISO_T2_8,58,9999,9999,9999,1519790188
52,6,9,Ticks_ISO_T2_8,59,9999,9999,9999,1520589924
52,6,9,Ticks_ISO_T2_8,60,9999,9999,9999,1521390704
52,6,9,Ticks_ISO_T2_8,61,9999,9999,9999,1522190444
52,6,9,Ticks_ISO_T2_8,62,9999,9999,9999,1522990176
52,6,9,Ticks_ISO_T2_8,63,9999,9999,9999,1523789904
52,6,9,Ticks_ISO_T2_8,64,9999,9999,9999,1524590692
52,6,9,Ticks_ISO_T2_8,65,9999,9999,9999,1525390424
52,6,9,Ticks_ISO_T2_8,66,9999,9999,9999,1526190148
52,6,9,Ticks_ISO_T2_8,67,9999,9999,9999,1526989888
52,6,9,Ticks_ISO_T2_8,68,9999,9999,9999,1527790692
52,6,9,Ticks_ISO_T2_8,69,9999,9999,9999,1528590420
52,6,9,Ticks_ISO_T2_8,70,9999,9999,9999,1529390160
52,6,9,Ticks_ISO_T2_8,71,9999,9999,9999,1530189892
52,6,9,Ticks_ISO_T2_8,72,9999,9999,9999,1530990668
52,6,9,Ticks_ISO_T2_8,73,9999,9999,9999,1531790400
52,6,9,Ticks_ISO_T2_8,74,9999,9999,9999,1532590140
52,6,9,Ticks_ISO_T2_8,75,9999,9999,9999,1533389940
52,6,9,Ticks_ISO_T2_8,76,9999,9999,9999,1534190672
52,6,9,Ticks_ISO_T2_8,77,9999,9999,9999,1534990412
52,6,9,Ticks_ISO_T2_8,78,9999,9999,9999,1535790148
52,6,9,Ticks_ISO_T2_8,79,9999,9999,9999,1536589872
52,6,9,Ticks_ISO_T2_8,80,9999,9999,9999,1537390660
52,6,9,Ticks_ISO_T2_8,81,9999,9999,9999,1538190392
52,6,9,Ticks_ISO_T2_8,82,9999,9999,9999,1538990200
52,6,9,Ticks_ISO_T2_8,83,9999,9999,9999,1539789932
52,6,9,Ticks_ISO_T2_8,84,9999,9999,9999,1540590664
52,6,9,Ticks_ISO_T2_8,85,9999,9999,9999,1541390400
52,6,9,Ticks_ISO_T2_8,86,9999,9999,9999,1542190128
52,6,9,Ticks_ISO_T2_8,87,9999,9999,9999,1542989936
52,6,9,Ticks_ISO_T2_8,88,9999,9999,9999,1543790648
52,6,9,Ticks_ISO_T2_8,89,9999,9999,9999,1544590452
52,6,9,Ticks_ISO_T2_8,90,9999,9999,9999,1545390180
52,6,9,Ticks_ISO_T2_8,91,9999,9999,9999,1546189916
52,6,9,Ticks_ISO_T2_8,92,9999,9999,9999,1546990648
52,6,9,Ticks_ISO_T2_8,93,9999,9999,9999,1547790452
52,6,9,Ticks_ISO_T2_8,94,9999,9999,9999,1548590188
52,6,9,Ticks_ISO_T2_8,95,9999,9999,9999,1549389920
52,6,9,Ticks_ISO_T2_8,96,9999,9999,9999,1550190700
52,6,9,Ticks_ISO_T2_8,97,9999,9999,9999,1550990440
52,6,9,Ticks_ISO_T2_8,98,9999,9999,9999,1551790168
52,6,9,Ticks_ISO_T2_8,99,9999,9999,9999,1552589904
52,6,9,Ticks_ISO_T2_8,100,9999,9999,9999,1553390708
52,6,9,Ticks_ISO_T2_8,101,9999,9999,9999,1554190384
52,6,9,Ticks_ISO_T2_8,102,9999,9999,9999,1554990192
52,6,9,Ticks_ISO_T2_8,103,9999,9999,9999,1555789924
52,6,9,Ticks_ISO_T2_8,104,9999,9999,9999,1556590704
52,6,9,Ticks_ISO_T2_8,105,9999,9999,9999,1557390436
52,6,9,Ticks_ISO_T2_8,106,9999,9999,9999,1558190172
52,6,9,Ticks_ISO_T2_8,107,9999,9999,9999,1558989936
52,6,9,Ticks_ISO_T2_8,108,9999,9999,9999,1559790708
52,6,9,Ticks_ISO_T2_8,109,9999,9999,9999,1560590452
52,6,9,Ticks_ISO_T2_8,110,9999,9999,9999,1561390176
52,6,9,Ticks_ISO_T2_8,111,9999,9999,9999,1562189916
52,6,9,Ticks_ISO_T2_8,112,9999,9999,9999,1562990696
52,6,9,Ticks_ISO_T2_8,113,9999,9999,9999,1563790432
52,6,9,Ticks_ISO_T2_8,114,9999,9999,9999,1564590164
52,6,9,Ticks_ISO_T2_8,115,9999,9999,9999,1565389920
52,6,9,Ticks_ISO_T2_8,116,9999,9999,9999,1566190700
52,6,9,Ticks_ISO_T2_8,117,9999,9999,9999,1566990436
52,6,9,Ticks_ISO_T2_8,118,9999,9999,9999,1567790172
52,6,9,Ticks_ISO_T2_8,119,9999,9999,9999,1568589904
52,7,21,Ticks_Linear_5,0,5,42,127,1580462632
52,7,21,Ticks_Linear_5,1,5,42,127,1580942880
52,7,21,Ticks_Linear_5,2,5,42,127,1581422908
52,7,21,Ticks_Linear_5,3,5,42,127,1581902112
52,7,21,Ticks_Linear_5,4,1,48,40,1582382288
52,7,21,Ticks_Linear_5,5,5,42,127,1582383700
52,7,21,Ticks_Linear_5,6,1,48,38,1582856248
52,7,21,Ticks_Linear_5,7,5,42,127,1582872840
52,7,21,Ticks_Linear_5,8,1,48,44,1583347480
52,7,21,Ticks_Linear_5,9,5,42,127,1583362356
52,7,21,Ticks_Linear_5,10,5,42,127,1583852924
52,7,21,Ticks_Linear_5,11,1,48,44,1583868324
52,7,21,Ticks_Linear_5,12,5,42,127,1584342292
52,7,21,Ticks_Linear_5,13,1,48,42,1584363012
52,7,21,Ticks_Linear_5,14,1,48,50,1584805448
52,7,21,Ticks_Linear_5,15,5,42,127,1584832824
52,7,21,Ticks_Linear_5,16,1,48,48,1585291672
52,7,21,Ticks_Linear_5,17,5,42,127,1585332820
52,7,21,Ticks_Linear_5,18,1,48,46,1585797952
52,7,21,Ticks_Linear_5,19,5,42,127,1585832224
52,7,21,Ticks_Linear_5,20,1,48,49,1586325212
52,7,21,Ticks_Linear_5,21,5,42,127,1586332968
52,7,21,Ticks_Linear_5,22,1,48,41,1586813308
52,7,21,Ticks_Linear_5,23,5,42,127,1586832744
52,7,21,Ticks_Linear_5,24,1,48,39,1587303420
52,7,21,Ticks_Linear_5,25,5,42,127,1587332740
52,7,21,Ticks_Linear_5,26,1,48,43,1587818840
52,7,21,Ticks_Linear_5,27,5,42,127,1587842700
52,7,21,Ticks_Linear_5,28,1,48,43,1588338532
52,7,21,Ticks_Linear_5,29,5,42,127,1588352584
52,7,21,Ticks_Linear_5,30,1,48,37,1588854120
52,7,21,Ticks_Linear_5,31,5,42,127,1588862544
52,7,21,Ticks_Linear_5,32,1,48,38,1589353364
52,7,21,Ticks_Linear_5,33,5,42,127,1589372280
52,7,21,Ticks_Linear_5,34,1,48,42,1589876352
52,7,21,Ticks_Linear_5,35,5,42,127,1589882240
52,7,21,Ticks_Linear_5,36,5,42,127,1590402764
52,7,21,Ticks_Linear_5,37,1,48,37,1590404404
52,7,21,Ticks_Linear_5,38,1,48,39,1590902268
52,7,21,Ticks_Linear_5,39,5,42,127,1590922676
52,7,21,Ticks_Linear_5,40,1,48,41,1591391936
52,7,21,Ticks_Linear_5,41,5,42,127,1591442820
52,7,21,Ticks_Linear_5,42,1,48,38,1591921744
52,7,21,Ticks_Linear_5,43,5,42,127,1591962964
52,7,21,Ticks_Linear_5,44,1,48,37,1592447788
52,7,21,Ticks_Linear_5,45,5,42,127,1592482060
52,7,21,Ticks_Linear_5,46,1,48,38,1592966136
52,7,21,Ticks_Linear_5,47,5,42,127,1593012540
52,7,21,Ticks_Linear_5,48,5,42,127,1593543172
52,7,21,Ticks_Linear_5,49,1,48,35,1593547708
52,7,21,Ticks_Linear_5,50,5,42,127,1594072528
52,7,21,Ticks_Linear_5,51,1,48,43,1594116160
52,7,21,Ticks_Linear_5,52,5,42,127,1594602856
52,7,21,Ticks_Linear_5,53,1,48,40,1594622380
52,7,21,Ticks_Linear_5,54,1,48,37,1595129756
52,7,21,Ticks_Linear_5,55,5,42,127,1595132352
52,7,21,Ticks_Linear_5,56,1,48,41,1595639640
52,7,21,Ticks_Linear_5,57,5,42,127,1595672940
52,7,21,Ticks_Linear_5,58,1,48,35,1596182484
52,7,21,Ticks_Linear_5,59,5,42,127,1596212556
52,7,21,Ticks_Linear_5,60,1,48,34,1596731088
52,7,21,Ticks_Linear_5,61,5,42,127,1596752396
52,7,21,Ticks_Linear_5,62,1,48,43,1597271228
52,7,21,Ticks_Linear_5,63,5,42,127,1597292832
52,7,21,Ticks_Linear_5,64,5,42,127,1597832676
52,7,21,Ticks_Linear_5,65,1,48,36,1597841572
52,7,21,Ticks_Linear_5,66,5,42,127,1598382328
52,7,21,Ticks_Linear_5,67,1,48,41,1598405964
52,7,21,Ticks_Linear_5,68,5,42,127,1598932300
52,7,21,Ticks_Linear_5,69,1,48,45,1598939832
52,7,21,Ticks_Linear_5,70,5,42,127,1599482472
52,7,21,Ticks_Linear_5,71,1,48,44,1599485812
52,7,21,Ticks_Linear_5,72,5,42,127,1600033320
52,7,21,Ticks_Linear_5,73,1,48,44,1600052772
52,7,21,Ticks_Linear_5,74,1,48,41,1600585244
52,7,21,Ticks_Linear_5,75,5,42,127,1600592400
52,7,21,Ticks_Linear_5,76,1,48,44,1601135416
52,7,21,Ticks_Linear_5,77,5,42,127,1601152308
52,7,21,Ticks_Linear_5,78,5,42,127,1601712448
52,7,21,Ticks_Linear_5,79,1,48,37,1601717208
52,7,21,Ticks_Linear_5,80,5,42,127,1602272756
52,7,21,Ticks_Linear_5,81,1,48,38,1602299912
52,7,21,Ticks_Linear_5,82,5,42,127,1602832964
52,7,21,Ticks_Linear_5,83,1,48,38,1602833928
52,7,21,Ticks_Linear_5,84,5,42,127,1603393172
52,7,21,Ticks_Linear_5,85,1,48,36,1603397264
52,7,21,Ticks_Linear_5,86,1,48,38,1603938356
52,7,21,Ticks_Linear_5,87,5,42,127,1603962216
52,7,21,Ticks_Linear_5,88,5,42,127,1604532612
52,7,21,Ticks_Linear_5,89,1,48,36,1604535656
52,7,21,Ticks_Linear_5,90,5,42,127,1605102960
52,7,21,Ticks_Linear_5,91,1,48,42,1605114540
52,7,21,Ticks_Linear_5,92,5,42,127,1605672228
52,7,21,Ticks_Linear_5,93,1,48,39,1605673568
52,7,21,Ticks_Linear_5,94,5,42,127,1606242620
52,7,21,Ticks_Linear_5,95,1,48,39,1606261776
52,7,21,Ticks_Linear_5,96,1,48,38,1606813264
52,7,21,Ticks_Linear_5,97,5,42,127,1606822216
52,7,21,Ticks_Linear_5,98,1,48,36,1607366428
52,7,21,Ticks_Linear_5,99,5,42,127,1607402892
52,7,21,Ticks_Linear_5,100,1,48,43,1607954896
52,7,21,Ticks_Linear_5,101,5,42,127,1607982348
52,7,21,Ticks_Linear_5,102,5,42,127,1608563156
52,7,21,Ticks_Linear_5,103,1,48,35,1608568812
52,7,21,Ticks_Linear_5,104,5,42,127,1609142684
52,7,21,Ticks_Linear_5,105,1,48,40,1609147372
52,7,21,Ticks_Linear_5,106,1,48,39,1609727056
52,7,21,Ticks_Linear_5,107,5,42,127,1609732344
52,7,21,Ticks_Linear_5,108,1,48,42,1610310400
52,7,21,Ticks_Linear_5,109,5,42,127,1610322284
52,7,21,Ticks_Linear_5,110,1,48,38,1610912068
52,7,21,Ticks_Linear_5,111,5,42,127,1610913416
52,7,21,Ticks_Linear_5,112,5,42,127,1611512300
52,7,21,Ticks_Linear_5,113,1,48,41,1611520740
52,7,21,Ticks_Linear_5,114,1,48,41,1612087508
52,7,21,Ticks_Linear_5,115,5,42,127,1612102908
52,7,21,Ticks_Linear_5,116,1,48,42,1612655660
52,7,21,Ticks_Linear_5,117,5,42,127,1612703180
52,7,21,Ticks_Linear_5,118,1,48,37,1613275428
52,7,21,Ticks_Linear_5,119,5,42,127,1613302280
52,7,21,Ticks_Linear_5,120,1,48,39,1613873976
52,7,21,Ticks_Linear_5,121,5,42,127,1613902252
52,7,21,Ticks_Linear_5,122,1,48,42,1614456876
52,7,21,Ticks_Linear_5,123,5,42,127,1614502376
52,7,21,Ticks_Linear_5,124,5,42,127,1615102232
52,7,21,Ticks_Linear_5,125,1,48,44,1615129760
52,7,21,Ticks_Linear_5,126,1,48,43,1615691748
52,7,21,Ticks_Linear_5,127,5,42,127,1615712904
52,7,21,Ticks_Linear_5,128,1,48,43,1616306248
52,7,21,Ticks_Linear_5,129,5,42,127,1616322988
52,7,21,Ticks_Linear_5,130,1,48,43,1616912988
52,7,21,Ticks_Linear_5,131,5,42,127,1616932124
52,7,21,Ticks_Linear_5,132,5,42,127,1617542588
52,7,21,Ticks_Linear_5,133,1,48,37,1617582408
52,7,21,Ticks_Linear_5,134,5,42,127,1618152848
52,7,21,Ticks_Linear_5,135,1,48,39,1618169740
52,7,21,Ticks_Linear_5,136,1,48,43,1618760032
52,7,21,Ticks_Linear_5,137,5,42,127,1618772288
52,7,21,Ticks_Linear_5,138,1,48,44,1619370204
52,7,21,Ticks_Linear_5,139,5,42,127,1619392928
52,7,21,Ticks_Linear_5,140,1,48,43,1619944584
52,7,21,Ticks_Linear_5,141,5,42,127,1620012620
52,7,21,Ticks_Linear_5,142,1,48,42,1620615024
52,7,21,Ticks_Linear_5,143,5,42,127,1620632892
52,7,21,Ticks_Linear_5,144,5,42,127,1621252668
52,7,21,Ticks_Linear_5,145,1,48,38,1621253560
52,7,21,Ticks_Linear_5,146,5,42,127,1621882448
52,7,21,Ticks_Linear_5,147,1,48,37,1621920024
52,7,21,Ticks_Linear_5,148,1,48,38,1622468812
52,7,21,Ticks_Linear_5,149,5,42,127,1622513068
52,7,21,Ticks_Linear_5,150,1,48,42,1623130904
52,7,21,Ticks_Linear_5,151,5,42,127,1623142772
52,7,21,Ticks_Linear_5,152,5,42,127,1623772732
52,7,21,Ticks_Linear_5,153,1,48,33,1623787976
52,7,21,Ticks_Linear_5,154,5,42,127,1624402508
52,7,21,Ticks_Linear_5,155,1,48,32,1624403476
52,7,21,Ticks_Linear_5,156,1,48,32,1625039824
52,7,21,Ticks_Linear_5,157,5,42,127,1625042492
52,7,21,Ticks_Linear_5,158,1,48,38,1625665340
52,7,21,Ticks_Linear_5,159,5,42,127,1625682456
52,7,21,Ticks_Linear_5,160,1,48,41,1626309192
52,7,21,Ticks_Linear_5,161,5,42,127,1626322444
52,7,21,Ticks_Linear_5,162,1,48,42,1626939524
52,7,21,Ticks_Linear_5,163,5,42,127,1626962408
52,7,21,Ticks_Linear_5,164,1,48,43,1627562644
52,7,21,Ticks_Linear_5,165,5,42,127,1627602472
52,7,21,Ticks_Linear_5,166,1,48,42,1628221060
52,7,21,Ticks_Linear_5,167,5,42,127,1628252548
52,7,21,Ticks_Linear_5,168,5,42,127,1628902728
52,7,21,Ticks_Linear_5,169,1,48,40,1628923596
52,7,21,Ticks_Linear_5,170,1,48,43,1629544964
52,7,21,Ticks_Linear_5,171,5,42,127,1629552872
52,7,21,Ticks_Linear_5,172,1,48,41,1630192972
52,7,21,Ticks_Linear_5,173,5,42,127,1630202296
52,7,21,Ticks_Linear_5,174,1,48,44,1630824768
52,7,21,Ticks_Linear_5,175,5,42,127,1630852516
52,7,21,Ticks_Linear_5,176,5,42,127,1631512884
52,7,21,Ticks_Linear_5,177,1,48,35,1631524020
52,7,21,Ticks_Linear_5,178,1,48,40,1632163136
52,7,21,Ticks_Linear_5,179,5,42,127,1632172536
52,7,21,Ticks_Linear_5,180,1,48,41,1632784404
52,7,21,Ticks_Linear_5,181,5,42,127,1632832892
52,7,21,Ticks_Linear_5,182,1,48,42,1633479700
52,7,21,Ticks_Linear_5,183,5,42,127,1633492428
52,7,21,Ticks_Linear_5,184,5,42,127,1634152692
52,7,21,Ticks_Linear_5,185,1,48,42,1634153660
52,7,21,Ticks_Linear_5,186,5,42,127,1634822560
52,7,21,Ticks_Linear_5,187,1,48,41,1634856012
52,7,21,Ticks_Linear_5,188,1,48,42,1635481204
52,7,21,Ticks_Linear_5,189,5,42,127,1635492400
52,7,21,Ticks_Linear_5,190,1,48,41,1636141340
52,7,21,Ticks_Linear_5,191,5,42,127,1636162868
52,7,21,Ticks_Linear_5,192,5,42,127,1636832668
52,7,21,Ticks_Linear_5,193,1,48,41,1636833632
52,7,21,Ticks_Linear_5,194,5,42,127,1637502436
52,7,21,Ticks_Linear_5,195,1,48,40,1637551248
52,7,21,Ticks_Linear_5,196,5,42,127,1638182340
52,7,21,Ticks_Linear_5,197,1,48,40,1638230324
52,7,21,Ticks_Linear_5,198,1,48,38,1638831248
52,7,21,Ticks_Linear_5,199,5,42,127,1638862384
52,7,21,Ticks_Linear_5,200,1,48,46,1639494292
52,7,21,Ticks_Linear_5,201,5,42,127,1639542116
52,7,21,Ticks_Linear_5,202,1,48,47,1640214112
52,7,21,Ticks_Linear_5,203,5,42,127,1640223364
52,7,21,Ticks_Linear_5,204,1,48,43,1640884856
52,7,21,Ticks_Linear_5,205,5,42,127,1640903244
52,7,21,Ticks_Linear_5,206,1,48,39,1641521384
52,7,21,Ticks_Linear_5,207,5,42,127,1641592112
52,7,21,Ticks_Linear_5,208,1,48,41,1642236324
52,7,21,Ticks_Linear_5,209,5,42,127,1642282424
52,7,21,Ticks_Linear_5,210,5,42,127,1642972592
52,7,21,Ticks_Linear_5,211,1,48,44,1642987912
52,7,21,Ticks_Linear_5,212,5,42,127,1643662656
52,7,21,Ticks_Linear_5,213,1,48,43,1643679400
52,7,21,Ticks_Linear_5,214,5,42,127,1644353116
52,7,21,Ticks_Linear_5,215,1,48,45,1644371444
52,7,21,Ticks_Linear_5,216,5,42,127,1645052268
52,7,21,Ticks_Linear_5,217,1,48,40,1645067964
52,7,21,Ticks_Linear_5,218,5,42,127,1645752816
52,7,21,Ticks_Linear_5,219,1,48,43,1645769212
52,7,21,Ticks_Linear_5,220,5,42,127,1646453088
52,7,21,Ticks_Linear_5,221,1,48,39,1646469976
52,7,21,Ticks_Linear_5,222,5,42,127,1647152464
52,7,21,Ticks_Linear_5,223,1,48,43,1647153652
52,7,21,Ticks_Linear_5,224,5,42,127,1647853032
52,7,21,Ticks_Linear_5,225,1,48,45,1647863716
52,7,21,Ticks_Linear_5,226,1,48,42,1648560600
52,7,21,Ticks_Linear_5,227,5,42,127,1648562488
52,7,21,Ticks_Linear_5,228,5,42,127,1649272128
52,7,21,Ticks_Linear_5,229,1,48,42,1649275172
52,7,21,Ticks_Linear_5,230,1,48,44,1649966136
52,7,21,Ticks_Linear_5,231,5,42,127,1649982948
52,7,21,Ticks_Linear_5,232,1,48,40,1650671956
52,7,21,Ticks_Linear_5,233,5,42,127,1650692364
52,7,21,Ticks_Linear_5,234,1,48,40,1651378032
52,7,21,Ticks_Linear_5,235,5,42,127,1651403268
52,7,21,Ticks_Linear_5,236,1,48,41,1652052928
52,7,21,Ticks_Linear_5,237,5,42,127,1652132124
52,7,21,Ticks_Linear_5,238,5,42,127,1652853144
52,7,21,Ticks_Linear_5,239,1,48,44,1652859036
52,7,21,Ticks_Linear_5,240,1,48,49,1653567596
52,7,21,Ticks_Linear_5,241,5,42,127,1653572884
52,7,21,Ticks_Linear_5,242,1,48,48,1654268612
52,7,21,Ticks_Linear_5,243,5,42,127,1654292924
52,7,21,Ticks_Linear_5,244,1,48,47,1654986188
52,7,21,Ticks_Linear_5,245,5,42,127,1655012668
52,7,21,Ticks_Linear_5,246,1,48,43,1655704484
52,7,21,Ticks_Linear_5,247,5,42,127,1655742868
52,7,21,Ticks_Linear_5,248,1,48,44,1656453288
52,7,21,Ticks_Linear_5,249,5,42,127,1656472948
52,7,21,Ticks_Linear_5,250,1,48,46,1657188824
52,7,21,Ticks_Linear_5,251,5,42,127,1657203100
52,7,21,Ticks_Linear_5,252,1,48,48,1657876968
52,7,21,Ticks_Linear_5,253,5,42,127,1657932132
52,7,21,Ticks_Linear_5,254,5,42,127,1658662216
52,7,21,Ticks_Linear_5,255,1,48,42,1658663704
52,7,21,Ticks_Linear_5,256,1,48,43,1659390232
52,7,21,Ticks_Linear_5,257,5,42,127,1659402548
52,7,21,Ticks_Linear_5,258,1,48,41,1660124348
52,7,21,Ticks_Linear_5,259,5,42,127,1660142956
52,7,21,Ticks_Linear_5,260,1,48,52,1660861740
52,7,21,Ticks_Linear_5,261,5,42,127,1660882396
52,7,21,Ticks_Linear_5,262,1,48,52,1661603052
52,7,21,Ticks_Linear_5,263,5,42,127,1661622632
52,7,21,Ticks_Linear_5,264,1,48,46,1662350420
52,7,21,Ticks_Linear_5,265,5,42,127,1662363120
52,7,21,Ticks_Linear_5,266,1,48,45,1663069416
52,7,21,Ticks_Linear_5,267,5,42,127,1663112596
52,7,21,Ticks_Linear_5,268,1,48,32,1663854768
52,7,21,Ticks_Linear_5,269,5,42,127,1663862368
52,7,21,Ticks_Linear_5,270,5,42,127,1664612676
52,7,21,Ticks_Linear_5,271,1,48,41,1664629716
52,7,21,Ticks_Linear_5,272,1,48,35,1665360552
52,7,21,Ticks_Linear_5,273,5,42,127,1665362292
52,7,21,Ticks_Linear_5,274,5,42,127,1666112968
52,7,21,Ticks_Linear_5,275,1,48,40,1666116532
52,7,21,Ticks_Linear_5,276,1,48,42,1666813196
52,7,21,Ticks_Linear_5,277,5,42,127,1666872696
52,7,21,Ticks_Linear_5,278,1,48,44,1667580048
52,7,21,Ticks_Linear_5,279,5,42,127,1667632652
52,7,21,Ticks_Linear_5,280,1,48,42,1668381412
52,7,21,Ticks_Linear_5,281,5,42,127,1668392312
52,7,21,Ticks_Linear_5,282,5,42,127,1669153320
52,7,21,Ticks_Linear_5,283,1,48,39,1669165504
52,7,21,Ticks_Linear_5,284,1,48,43,1669915328
52,7,21,Ticks_Linear_5,285,5,42,127,1669922188
52,7,21,Ticks_Linear_5,286,5,42,127,1670692412
52,7,21,Ticks_Linear_5,287,1,48,42,1670733424
52,7,21,Ticks_Linear_5,288,1,48,52,1671432256
52,7,21,Ticks_Linear_5,289,5,42,127,1671462324
52,7,21,Ticks_Linear_5,290,1,48,47,1672162032
52,7,21,Ticks_Linear_5,291,5,42,127,1672232240
52,7,21,Ticks_Linear_5,292,5,42,127,1673002316
52,7,21,Ticks_Linear_5,293,1,48,43,1673008276
52,7,21,Ticks_Linear_5,294,5,42,127,1673772384
52,7,21,Ticks_Linear_5,295,1,48,22,1673779912
52,7,21,Ticks_Linear_5,296,5,42,127,1674552712
52,7,21,Ticks_Linear_5,297,1,48,41,1674558596
52,7,21,Ticks_Linear_5,298,1,48,37,1675319804
52,7,21,Ticks_Linear_5,299,5,42,127,1675333104
52,7,21,Ticks_Linear_5,300,1,48,35,1676078488
52,7,21,Ticks_Linear_5,301,5,42,127,1676112236
52,7,21,Ticks_Linear_5,302,5,42,127,1676892568
52,7,21,Ticks_Linear_5,303,1,48,46,1676895012
52,7,21,Ticks_Linear_5,304,5,42,127,1677673044
52,7,21,Ticks_Linear_5,305,1,48,43,1677714736
52,7,21,Ticks_Linear_5,306,1,48,42,1678446284
52,7,21,Ticks_Linear_5,307,5,42,127,1678462208
52,7,21,Ticks_Linear_5,308,1,48,43,1679219268
52,7,21,Ticks_Linear_5,309,5,42,127,1679253016
52,7,21,Ticks_Linear_5,310,1,48,40,1679998772
52,7,21,Ticks_Linear_5,311,5,42,127,1680042332
52,7,21,Ticks_Linear_5,312,1,48,47,1680832628
52,7,21,Ticks_Linear_5,313,5,42,127,1680834112
52,7,21,Ticks_Linear_5,314,1,48,48,1681621660
52,7,21,Ticks_Linear_5,315,5,42,127,1681623232
52,7,21,Ticks_Linear_5,316,1,48,42,1682395728
52,7,21,Ticks_Linear_5,317,5,42,127,1682422132
52,7,21,Ticks_Linear_5,318,1,48,42,1683217692
52,7,21,Ticks_Linear_5,319,5,42,127,1683223052
52,7,21,Ticks_Linear_5,320,1,48,43,1684002744
52,7,21,Ticks_Linear_5,321,5,42,127,1684022704
52,7,21,Ticks_Linear_5,322,5,42,127,1684822508
52,7,21,Ticks_Linear_5,323,1,48,43,1684844052
52,7,21,Ticks_Linear_5,324,1,48,40,1685608172
52,7,21,Ticks_Linear_5,325,5,42,127,1685622152
52,7,21,Ticks_Linear_5,326,1,48,45,1686383340
52,7,21,Ticks_Linear_5,327,5,42,127,1686433180
52,7,21,Ticks_Linear_5,328,1,48,45,1687223952
52,7,21,Ticks_Linear_5,329,5,42,127,1687243040
52,7,21,Ticks_Linear_5,330,1,48,48,1688058072
52,7,21,Ticks_Linear_5,331,5,42,127,1688062308
52,7,21,Ticks_Linear_5,332,5,42,127,1688872224
52,7,21,Ticks_Linear_5,333,1,48,47,1688881712
52,7,21,Ticks_Linear_5,334,1,48,44,1689631388
52,7,21,Ticks_Linear_5,335,5,42,127,1689682200
52,7,21,Ticks_Linear_5,0,9999,9999,9999,1580460108
52,7,21,Ticks_Linear_5,1,9999,9999,9999,1580940360
52,7,21,Ticks_Linear_5,2,9999,9999,9999,1581420608
52,7,21,Ticks_Linear_5,3,9999,9999,9999,1581899888
52,7,21,Ticks_Linear_5,4,9999,9999,9999,1582380136
52,7,21,Ticks_Linear_5,5,9999,9999,9999,1582870616
52,7,21,Ticks_Linear_5,6,9999,9999,9999,1583360060
52,7,21,Ticks_Linear_5,7,9999,9999,9999,1583850552
52,7,21,Ticks_Linear_5,8,9999,9999,9999,1584340068
52,7,21,Ticks_Linear_5,9,9999,9999,9999,1584830524
52,7,21,Ticks_Linear_5,10,9999,9999,9999,1585330300
52,7,21,Ticks_Linear_5,11,9999,9999,9999,1585830000
52,7,21,Ticks_Linear_5,12,9999,9999,9999,1586330748
52,7,21,Ticks_Linear_5,13,9999,9999,9999,1586830444
52,7,21,Ticks_Linear_5,14,9999,9999,9999,1587330144
52,7,21,Ticks_Linear_5,15,9999,9999,9999,1587840108
52,7,21,Ticks_Linear_5,16,9999,9999,9999,1588350064
52,7,21,Ticks_Linear_5,17,9999,9999,9999,1588860024
52,7,21,Ticks_Linear_5,18,9999,9999,9999,1589369984
52,7,21,Ticks_Linear_5,19,9999,9999,9999,1589879868
52,7,21,Ticks_Linear_5,20,9999,9999,9999,1590400092
52,7,21,Ticks_Linear_5,21,9999,9999,9999,1590920304
52,7,21,Ticks_Linear_5,22,9999,9999,9999,1591440448
52,7,21,Ticks_Linear_5,23,9999,9999,9999,1591960668
52,7,21,Ticks_Linear_5,24,9999,9999,9999,1592479836
52,7,21,Ticks_Linear_5,25,9999,9999,9999,1593010240
52,7,21,Ticks_Linear_5,26,9999,9999,9999,1593540724
52,7,21,Ticks_Linear_5,27,9999,9999,9999,1594070080
52,7,21,Ticks_Linear_5,28,9999,9999,9999,1594600556
52,7,21,Ticks_Linear_5,29,9999,9999,9999,1595129980
52,7,21,Ticks_Linear_5,30,9999,9999,9999,1595670640
52,7,21,Ticks_Linear_5,31,9999,9999,9999,1596210256
52,7,21,Ticks_Linear_5,32,9999,9999,9999,1596749948
52,7,21,Ticks_Linear_5,33,9999,9999,9999,1597290608
52,7,21,Ticks_Linear_5,34,9999,9999,9999,1597830228
52,7,21,Ticks_Linear_5,35,9999,9999,9999,1598380104
52,7,21,Ticks_Linear_5,36,9999,9999,9999,1598930000
52,7,21,Ticks_Linear_5,37,9999,9999,9999,1599479876
52,7,21,Ticks_Linear_5,38,9999,9999,9999,1600030800
52,7,21,Ticks_Linear_5,39,9999,9999,9999,1600589880
52,7,21,Ticks_Linear_5,40,9999,9999,9999,1601150012
52,7,21,Ticks_Linear_5,41,9999,9999,9999,1601710152
52,7,21,Ticks_Linear_5,42,9999,9999,9999,1602270308
52,7,21,Ticks_Linear_5,43,9999,9999,9999,1602830440
52,7,21,Ticks_Linear_5,44,9999,9999,9999,1603390576
52,7,21,Ticks_Linear_5,45,9999,9999,9999,1603959916
52,7,21,Ticks_Linear_5,46,9999,9999,9999,1604530240
52,7,21,Ticks_Linear_5,47,9999,9999,9999,1605100660
52,7,21,Ticks_Linear_5,48,9999,9999,9999,1605670004
52,7,21,Ticks_Linear_5,49,9999,9999,9999,1606240324
52,7,21,Ticks_Linear_5,50,9999,9999,9999,1606819920
52,7,21,Ticks_Linear_5,51,9999,9999,9999,1607400520
52,7,21,Ticks_Linear_5,52,9999,9999,9999,1607980124
52,7,21,Ticks_Linear_5,53,9999,9999,9999,1608560708
52,7,21,Ticks_Linear_5,54,9999,9999,9999,1609140312
52,7,21,Ticks_Linear_5,55,9999,9999,9999,1609730120
52,7,21,Ticks_Linear_5,56,9999,9999,9999,1610319984
52,7,21,Ticks_Linear_5,57,9999,9999,9999,1610910824
52,7,21,Ticks_Linear_5,58,9999,9999,9999,1611509852
52,7,21,Ticks_Linear_5,59,9999,9999,9999,1612100680
52,7,21,Ticks_Linear_5,60,9999,9999,9999,1612700732
52,7,21,Ticks_Linear_5,61,9999,9999,9999,1613299832
52,7,21,Ticks_Linear_5,62,9999,9999,9999,1613899880
52,7,21,Ticks_Linear_5,63,9999,9999,9999,1614499928
52,7,21,Ticks_Linear_5,64,9999,9999,9999,1615100008
52,7,21,Ticks_Linear_5,65,9999,9999,9999,1615710308
52,7,21,Ticks_Linear_5,66,9999,9999,9999,1616320616
52,7,21,Ticks_Linear_5,67,9999,9999,9999,1616929904
52,7,21,Ticks_Linear_5,68,9999,9999,9999,1617540216
52,7,21,Ticks_Linear_5,69,9999,9999,9999,1618150472
52,7,21,Ticks_Linear_5,70,9999,9999,9999,1618769988
52,7,21,Ticks_Linear_5,71,9999,9999,9999,1619390556
52,7,21,Ticks_Linear_5,72,9999,9999,9999,1620010100
52,7,21,Ticks_Linear_5,73,9999,9999,9999,1620630596
52,7,21,Ticks_Linear_5,74,9999,9999,9999,1621250144
52,7,21,Ticks_Linear_5,75,9999,9999,9999,1621879924
52,7,21,Ticks_Linear_5,76,9999,9999,9999,1622510696
52,7,21,Ticks_Linear_5,77,9999,9999,9999,1623140476
52,7,21,Ticks_Linear_5,78,9999,9999,9999,1623770208
52,7,21,Ticks_Linear_5,79,9999,9999,9999,1624399988
52,7,21,Ticks_Linear_5,80,9999,9999,9999,1625039972
52,7,21,Ticks_Linear_5,81,9999,9999,9999,1625679936
52,7,21,Ticks_Linear_5,82,9999,9999,9999,1626320000
52,7,21,Ticks_Linear_5,83,9999,9999,9999,1626959964
52,7,21,Ticks_Linear_5,84,9999,9999,9999,1627599952
52,7,21,Ticks_Linear_5,85,9999,9999,9999,1628250176
52,7,21,Ticks_Linear_5,86,9999,9999,9999,1628900428
52,7,21,Ticks_Linear_5,87,9999,9999,9999,1629550648
52,7,21,Ticks_Linear_5,88,9999,9999,9999,1630199924
52,7,21,Ticks_Linear_5,89,9999,9999,9999,1630850144
52,7,21,Ticks_Linear_5,90,9999,9999,9999,1631510584
52,7,21,Ticks_Linear_5,91,9999,9999,9999,1632170088
52,7,21,Ticks_Linear_5,92,9999,9999,9999,1632830520
52,7,21,Ticks_Linear_5,93,9999,9999,9999,1633489980
52,7,21,Ticks_Linear_5,94,9999,9999,9999,1634150468
52,7,21,Ticks_Linear_5,95,9999,9999,9999,1634820188
52,7,21,Ticks_Linear_5,96,9999,9999,9999,1635489876
52,7,21,Ticks_Linear_5,97,9999,9999,9999,1636160572
52,7,21,Ticks_Linear_5,98,9999,9999,9999,1636830296
52,7,21,Ticks_Linear_5,99,9999,9999,9999,1637499988
52,7,21,Ticks_Linear_5,100,9999,9999,9999,1638179892
52,7,21,Ticks_Linear_5,101,9999,9999,9999,1638859864
52,7,21,Ticks_Linear_5,102,9999,9999,9999,1639539816
52,7,21,Ticks_Linear_5,103,9999,9999,9999,1640220768
52,7,21,Ticks_Linear_5,104,9999,9999,9999,1640900724
52,7,21,Ticks_Linear_5,105,9999,9999,9999,1641589816
52,7,21,Ticks_Linear_5,106,9999,9999,9999,1642280052
52,7,21,Ticks_Linear_5,107,9999,9999,9999,1642970220
52,7,21,Ticks_Linear_5,108,9999,9999,9999,1643660356
52,7,21,Ticks_Linear_5,109,9999,9999,9999,1644350520
52,7,21,Ticks_Linear_5,110,9999,9999,9999,1645049972
52,7,21,Ticks_Linear_5,111,9999,9999,9999,1645750368
52,7,21,Ticks_Linear_5,112,9999,9999,9999,1646450788
52,7,21,Ticks_Linear_5,113,9999,9999,9999,1647150164
52,7,21,Ticks_Linear_5,114,9999,9999,9999,1647850584
52,7,21,Ticks_Linear_5,115,9999,9999,9999,1648560220
52,7,21,Ticks_Linear_5,116,9999,9999,9999,1649269828
52,7,21,Ticks_Linear_5,117,9999,9999,9999,1649980504
52,7,21,Ticks_Linear_5,118,9999,9999,9999,1650690140
52,7,21,Ticks_Linear_5,119,9999,9999,9999,1651400820
52,7,21,Ticks_Linear_5,120,9999,9999,9999,1652129904
52,7,21,Ticks_Linear_5,121,9999,9999,9999,1652850772
52,7,21,Ticks_Linear_5,122,9999,9999,9999,1653570660
52,7,21,Ticks_Linear_5,123,9999,9999,9999,1654290552
52,7,21,Ticks_Linear_5,124,9999,9999,9999,1655010368
52,7,21,Ticks_Linear_5,125,9999,9999,9999,1655740496
52,7,21,Ticks_Linear_5,126,9999,9999,9999,1656470648
52,7,21,Ticks_Linear_5,127,9999,9999,9999,1657200728
52,7,21,Ticks_Linear_5,128,9999,9999,9999,1657929832
52,7,21,Ticks_Linear_5,129,9999,9999,9999,1658659916
52,7,21,Ticks_Linear_5,130,9999,9999,9999,1659400248
52,7,21,Ticks_Linear_5,131,9999,9999,9999,1660140660
52,7,21,Ticks_Linear_5,132,9999,9999,9999,1660879948
52,7,21,Ticks_Linear_5,133,9999,9999,9999,1661620336
52,7,21,Ticks_Linear_5,134,9999,9999,9999,1662360672
52,7,21,Ticks_Linear_5,135,9999,9999,9999,1663110224
52,7,21,Ticks_Linear_5,136,9999,9999,9999,1663859772
52,7,21,Ticks_Linear_5,137,9999,9999,9999,1664610376
52,7,21,Ticks_Linear_5,138,9999,9999,9999,1665359944
52,7,21,Ticks_Linear_5,139,9999,9999,9999,1666110520
52,7,21,Ticks_Linear_5,140,9999,9999,9999,1666870396
52,7,21,Ticks_Linear_5,141,9999,9999,9999,1667630204
52,7,21,Ticks_Linear_5,142,9999,9999,9999,1668390012
52,7,21,Ticks_Linear_5,143,9999,9999,9999,1669150800
52,7,21,Ticks_Linear_5,144,9999,9999,9999,1669919812
52,7,21,Ticks_Linear_5,145,9999,9999,9999,1670689888
52,7,21,Ticks_Linear_5,146,9999,9999,9999,1671459948
52,7,21,Ticks_Linear_5,147,9999,9999,9999,1672229944
52,7,21,Ticks_Linear_5,148,9999,9999,9999,1673000016
52,7,21,Ticks_Linear_5,149,9999,9999,9999,1673770084
52,7,21,Ticks_Linear_5,150,9999,9999,9999,1674550336
52,7,21,Ticks_Linear_5,151,9999,9999,9999,1675330656
52,7,21,Ticks_Linear_5,152,9999,9999,9999,1676109936
52,7,21,Ticks_Linear_5,153,9999,9999,9999,1676890196
52,7,21,Ticks_Linear_5,154,9999,9999,9999,1677670524
52,7,21,Ticks_Linear_5,155,9999,9999,9999,1678459980
52,7,21,Ticks_Linear_5,156,9999,9999,9999,1679250496
52,7,21,Ticks_Linear_5,157,9999,9999,9999,1680040032
52,7,21,Ticks_Linear_5,158,9999,9999,9999,1680830552
52,7,21,Ticks_Linear_5,159,9999,9999,9999,1681620040
52,7,21,Ticks_Linear_5,160,9999,9999,9999,1682419836
52,7,21,Ticks_Linear_5,161,9999,9999,9999,1683220604
52,7,21,Ticks_Linear_5,162,9999,9999,9999,1684020332
52,7,21,Ticks_Linear_5,163,9999,9999,9999,1684820060
52,7,21,Ticks_Linear_5,164,9999,9999,9999,1685619780
52,7,21,Ticks_Linear_5,165,9999,9999,9999,1686430808
52,7,21,Ticks_Linear_5,166,9999,9999,9999,1687240816
52,7,21,Ticks_Linear_5,167,9999,9999,9999,1688060012
52,7,21,Ticks_Linear_5,168,9999,9999,9999,1688870000
52,7,21,Ticks_Linear_5,169,9999,9999,9999,1689679976
52,8,20,Ticks_Linear_8,0,5,42,127,1700332844
52,8,20,Ticks_Linear_8,1,5,42,127,1701153108
52,8,20,Ticks_Linear_8,2,5,42,127,1701982508
52,8,20,Ticks_Linear_8,3,5,42,127,1702802772
52,8,20,Ticks_Linear_8,4,5,42,127,1703623136
52,8,20,Ticks_Linear_8,5,1,48,48,1703635244
52,8,20,Ticks_Linear_8,6,1,48,33,1703682852
52,8,20,Ticks_Linear_8,7,1,48,46,1704422720
52,8,20,Ticks_Linear_8,8,5,42,127,1704433016
52,8,20,Ticks_Linear_8,9,1,48,47,1705230684
52,8,20,Ticks_Linear_8,10,5,42,127,1705243220
52,8,20,Ticks_Linear_8,11,5,42,127,1706052840
52,8,20,Ticks_Linear_8,12,1,48,46,1706059768
52,8,20,Ticks_Linear_8,13,5,42,127,1706862972
52,8,20,Ticks_Linear_8,14,1,48,46,1706867736
52,8,20,Ticks_Linear_8,15,5,42,127,1707672956
52,8,20,Ticks_Linear_8,16,1,48,45,1707679816
52,8,20,Ticks_Linear_8,17,5,42,127,1708472676
52,8,20,Ticks_Linear_8,18,1,48,41,1708495368
52,8,20,Ticks_Linear_8,19,5,42,127,1709272428
52,8,20,Ticks_Linear_8,20,1,48,47,1709277564
52,8,20,Ticks_Linear_8,21,1,48,41,1710064016
52,8,20,Ticks_Linear_8,22,5,42,127,1710072292
52,8,20,Ticks_Linear_8,23,5,42,127,1710873220
52,8,20,Ticks_Linear_8,24,1,48,48,1710874112
52,8,20,Ticks_Linear_8,25,1,48,46,1711652528
52,8,20,Ticks_Linear_8,26,5,42,127,1711672640
52,8,20,Ticks_Linear_8,27,5,42,127,1712462260
52,8,20,Ticks_Linear_8,28,1,48,38,1712474816
52,8,20,Ticks_Linear_8,29,5,42,127,1713252700
52,8,20,Ticks_Linear_8,30,1,48,41,1713280908
52,8,20,Ticks_Linear_8,31,1,48,43,1714039264
52,8,20,Ticks_Linear_8,32,5,42,127,1714042308
52,8,20,Ticks_Linear_8,33,1,48,40,1714818316
52,8,20,Ticks_Linear_8,34,5,42,127,1714832964
52,8,20,Ticks_Linear_8,35,1,48,43,1715621616
52,8,20,Ticks_Linear_8,36,5,42,127,1715623180
52,8,20,Ticks_Linear_8,37,5,42,127,1716402468
52,8,20,Ticks_Linear_8,38,1,48,48,1716433028
52,8,20,Ticks_Linear_8,39,5,42,127,1717183092
52,8,20,Ticks_Linear_8,40,1,48,47,1717205636
52,8,20,Ticks_Linear_8,41,1,48,48,1717944728
52,8,20,Ticks_Linear_8,42,5,42,127,1717963216
52,8,20,Ticks_Linear_8,43,1,48,45,1718724552
52,8,20,Ticks_Linear_8,44,5,42,127,1718752608
52,8,20,Ticks_Linear_8,45,1,48,45,1719503536
52,8,20,Ticks_Linear_8,46,5,42,127,1719532936
52,8,20,Ticks_Linear_8,47,5,42,127,1720303008
52,8,20,Ticks_Linear_8,48,1,48,46,1720325072
52,8,20,Ticks_Linear_8,49,1,48,47,1721061652
52,8,20,Ticks_Linear_8,50,5,42,127,1721072996
52,8,20,Ticks_Linear_8,51,1,48,46,1721814044
52,8,20,Ticks_Linear_8,52,5,42,127,1721843064
52,8,20,Ticks_Linear_8,53,5,42,127,1722612988
52,8,20,Ticks_Linear_8,54,1,48,47,1722634680
52,8,20,Ticks_Linear_8,55,5,42,127,1723382084
52,8,20,Ticks_Linear_8,56,1,48,48,1723404220
52,8,20,Ticks_Linear_8,57,5,42,127,1724142940
52,8,20,Ticks_Linear_8,58,1,48,42,1724164928
52,8,20,Ticks_Linear_8,59,1,48,47,1724883680
52,8,20,Ticks_Linear_8,60,5,42,127,1724902892
52,8,20,Ticks_Linear_8,61,1,48,38,1725626984
52,8,20,Ticks_Linear_8,62,5,42,127,1725662700
52,8,20,Ticks_Linear_8,63,5,42,127,1726422588
52,8,20,Ticks_Linear_8,64,1,48,28,1726458504
52,8,20,Ticks_Linear_8,65,5,42,127,1727182252
52,8,20,Ticks_Linear_8,66,1,48,45,1727209252
52,8,20,Ticks_Linear_8,67,1,48,43,1727907908
52,8,20,Ticks_Linear_8,68,5,42,127,1727932816
52,8,20,Ticks_Linear_8,69,5,42,127,1728682224
52,8,20,Ticks_Linear_8,70,1,48,43,1728691712
52,8,20,Ticks_Linear_8,71,5,42,127,1729433044
52,8,20,Ticks_Linear_8,72,1,48,40,1729471668
52,8,20,Ticks_Linear_8,73,5,42,127,1730182740
52,8,20,Ticks_Linear_8,74,1,48,47,1730211628
52,8,20,Ticks_Linear_8,75,1,48,44,1730914644
52,8,20,Ticks_Linear_8,76,5,42,127,1730933108
52,8,20,Ticks_Linear_8,77,1,48,46,1731655204
52,8,20,Ticks_Linear_8,78,5,42,127,1731672548
52,8,20,Ticks_Linear_8,79,1,48,43,1732403932
52,8,20,Ticks_Linear_8,80,5,42,127,1732412660
52,8,20,Ticks_Linear_8,81,5,42,127,1733153004
52,8,20,Ticks_Linear_8,82,1,48,48,1733178956
52,8,20,Ticks_Linear_8,83,1,48,51,1733901644
52,8,20,Ticks_Linear_8,84,5,42,127,1733903140
52,8,20,Ticks_Linear_8,85,5,42,127,1734643044
52,8,20,Ticks_Linear_8,86,1,48,50,1734660548
52,8,20,Ticks_Linear_8,87,5,42,127,1735372072
52,8,20,Ticks_Linear_8,88,1,48,41,1735426560
52,8,20,Ticks_Linear_8,89,5,42,127,1736102572
52,8,20,Ticks_Linear_8,90,1,48,43,1736146008
52,8,20,Ticks_Linear_8,91,1,48,38,1736827960
52,8,20,Ticks_Linear_8,92,5,42,127,1736832420
52,8,20,Ticks_Linear_8,93,5,42,127,1737562580
52,8,20,Ticks_Linear_8,94,1,48,42,1737572520
52,8,20,Ticks_Linear_8,95,1,48,43,1738272320
52,8,20,Ticks_Linear_8,96,5,42,127,1738292580
52,8,20,Ticks_Linear_8,97,1,48,48,1739005988
52,8,20,Ticks_Linear_8,98,5,42,127,1739012544
52,8,20,Ticks_Linear_8,99,1,48,49,1739722144
52,8,20,Ticks_Linear_8,100,5,42,127,1739732516
52,8,20,Ticks_Linear_8,101,1,48,48,1740436688
52,8,20,Ticks_Linear_8,102,5,42,127,1740452232
52,8,20,Ticks_Linear_8,103,1,48,42,1741133444
52,8,20,Ticks_Linear_8,104,5,42,127,1741173176
52,8,20,Ticks_Linear_8,105,1,48,48,1741879840
52,8,20,Ticks_Linear_8,106,5,42,127,1741892992
52,8,20,Ticks_Linear_8,107,1,48,46,1742588352
52,8,20,Ticks_Linear_8,108,5,42,127,1742602628
52,8,20,Ticks_Linear_8,109,5,42,127,1743312344
52,8,20,Ticks_Linear_8,110,1,48,46,1743320412
52,8,20,Ticks_Linear_8,111,1,48,45,1744020324
52,8,20,Ticks_Linear_8,112,5,42,127,1744022920
52,8,20,Ticks_Linear_8,113,1,48,43,1744719476
52,8,20,Ticks_Linear_8,114,5,42,127,1744732480
52,8,20,Ticks_Linear_8,115,1,48,46,1745426720
52,8,20,Ticks_Linear_8,116,5,42,127,1745442116
52,8,20,Ticks_Linear_8,117,5,42,127,1746142472
52,8,20,Ticks_Linear_8,118,1,48,42,1746160336
52,8,20,Ticks_Linear_8,119,1,48,42,1746842944
52,8,20,Ticks_Linear_8,120,5,42,127,1746844280
52,8,20,Ticks_Linear_8,121,1,48,42,1747538296
52,8,20,Ticks_Linear_8,122,5,42,127,1747542536
52,8,20,Ticks_Linear_8,123,5,42,127,1748242740
52,8,20,Ticks_Linear_8,124,1,48,46,1748252756
52,8,20,Ticks_Linear_8,125,5,42,127,1748942264
52,8,20,Ticks_Linear_8,126,1,48,38,1748966576
52,8,20,Ticks_Linear_8,127,1,48,43,1749612136
52,8,20,Ticks_Linear_8,128,5,42,127,1749632396
52,8,20,Ticks_Linear_8,129,5,42,127,1750322492
52,8,20,Ticks_Linear_8,130,1,48,49,1750325536
52,8,20,Ticks_Linear_8,131,5,42,127,1751012656
52,8,20,Ticks_Linear_8,132,1,48,47,1751028276
52,8,20,Ticks_Linear_8,133,1,48,46,1751686416
52,8,20,Ticks_Linear_8,134,5,42,127,1751703084
52,8,20,Ticks_Linear_8,135,1,48,45,1752378524
52,8,20,Ticks_Linear_8,136,5,42,127,1752393324
52,8,20,Ticks_Linear_8,137,1,48,44,1753061356
52,8,20,Ticks_Linear_8,138,5,42,127,1753073228
52,8,20,Ticks_Linear_8,139,1,48,46,1753710224
52,8,20,Ticks_Linear_8,140,5,42,127,1753753032
52,8,20,Ticks_Linear_8,141,1,48,38,1754400472
52,8,20,Ticks_Linear_8,142,5,42,127,1754432936
52,8,20,Ticks_Linear_8,143,1,48,40,1755092212
52,8,20,Ticks_Linear_8,144,5,42,127,1755112768
52,8,20,Ticks_Linear_8,145,5,42,127,1755792728
52,8,20,Ticks_Linear_8,146,1,48,45,1755797864
52,8,20,Ticks_Linear_8,147,5,42,127,1756462444
52,8,20,Ticks_Linear_8,148,1,48,42,1756503832
52,8,20,Ticks_Linear_8,149,1,48,45,1757110904
52,8,20,Ticks_Linear_8,150,5,42,127,1757132084
52,8,20,Ticks_Linear_8,151,1,48,46,1757778512
52,8,20,Ticks_Linear_8,152,5,42,127,1757802972
52,8,20,Ticks_Linear_8,153,1,48,49,1758437296
52,8,20,Ticks_Linear_8,154,5,42,127,1758472544
52,8,20,Ticks_Linear_8,155,1,48,44,1759113888
52,8,20,Ticks_Linear_8,156,5,42,127,1759142388
52,8,20,Ticks_Linear_8,157,1,48,51,1759801924
52,8,20,Ticks_Linear_8,158,5,42,127,1759803268
52,8,20,Ticks_Linear_8,159,5,42,127,1760462136
52,8,20,Ticks_Linear_8,160,1,48,45,1760485924
52,8,20,Ticks_Linear_8,161,1,48,33,1761122548
52,8,20,Ticks_Linear_8,162,5,42,127,1761123960
52,8,20,Ticks_Linear_8,163,1,48,41,1761756864
52,8,20,Ticks_Linear_8,164,5,42,127,1761782000
52,8,20,Ticks_Linear_8,165,1,48,46,1762415552
52,8,20,Ticks_Linear_8,166,5,42,127,1762442856
52,8,20,Ticks_Linear_8,167,5,42,127,1763093036
52,8,20,Ticks_Linear_8,168,1,48,45,1763095048
52,8,20,Ticks_Linear_8,169,1,48,43,1763736768
52,8,20,Ticks_Linear_8,170,5,42,127,1763743104
52,8,20,Ticks_Linear_8,171,1,48,37,1764371672
52,8,20,Ticks_Linear_8,172,5,42,127,1764392304
52,8,20,Ticks_Linear_8,173,5,42,127,1765042904
52,8,20,Ticks_Linear_8,174,1,48,40,1765068512
52,8,20,Ticks_Linear_8,175,5,42,127,1765692780
52,8,20,Ticks_Linear_8,176,1,48,37,1765715892
52,8,20,Ticks_Linear_8,177,5,42,127,1766332820
52,8,20,Ticks_Linear_8,178,1,48,43,1766351544
52,8,20,Ticks_Linear_8,179,5,42,127,1766973032
52,8,20,Ticks_Linear_8,180,1,48,47,1766976148
52,8,20,Ticks_Linear_8,181,5,42,127,1767612772
52,8,20,Ticks_Linear_8,182,1,48,28,1767619500
52,8,20,Ticks_Linear_8,183,5,42,127,1768252764
52,8,20,Ticks_Linear_8,184,1,48,44,1768269060
52,8,20,Ticks_Linear_8,185,1,48,47,1768883472
52,8,20,Ticks_Linear_8,186,5,42,127,1768892720
52,8,20,Ticks_Linear_8,187,1,48,35,1769519780
52,8,20,Ticks_Linear_8,188,5,42,127,1769522600
52,8,20,Ticks_Linear_8,189,1,48,42,1770124704
52,8,20,Ticks_Linear_8,190,5,42,127,1770152380
52,8,20,Ticks_Linear_8,191,1,48,44,1770755628
52,8,20,Ticks_Linear_8,192,5,42,127,1770783156
52,8,20,Ticks_Linear_8,193,1,48,46,1771374472
52,8,20,Ticks_Linear_8,194,5,42,127,1771412860
52,8,20,Ticks_Linear_8,195,1,48,45,1772036108
52,8,20,Ticks_Linear_8,196,5,42,127,1772042740
52,8,20,Ticks_Linear_8,197,5,42,127,1772662120
52,8,20,Ticks_Linear_8,198,1,48,38,1772683660
52,8,20,Ticks_Linear_8,199,1,48,43,1773252556
52,8,20,Ticks_Linear_8,200,5,42,127,1773282628
52,8,20,Ticks_Linear_8,201,1,48,46,1773887344
52,8,20,Ticks_Linear_8,202,5,42,127,1773902148
52,8,20,Ticks_Linear_8,203,1,48,47,1774511744
52,8,20,Ticks_Linear_8,204,5,42,127,1774522792
52,8,20,Ticks_Linear_8,205,5,42,127,1775142344
52,8,20,Ticks_Linear_8,206,1,48,44,1775152656
52,8,20,Ticks_Linear_8,207,5,42,127,1775752504
52,8,20,Ticks_Linear_8,208,1,48,49,1775788492
52,8,20,Ticks_Linear_8,209,1,48,43,1776345860
52,8,20,Ticks_Linear_8,210,5,42,127,1776362828
52,8,20,Ticks_Linear_8,211,5,42,127,1776972096
52,8,20,Ticks_Linear_8,212,1,48,44,1776975064
52,8,20,Ticks_Linear_8,213,1,48,39,1777579056
52,8,20,Ticks_Linear_8,214,5,42,127,1777582324
52,8,20,Ticks_Linear_8,215,1,48,44,1778184600
52,8,20,Ticks_Linear_8,216,5,42,127,1778192660
52,8,20,Ticks_Linear_8,217,1,48,44,1778771772
52,8,20,Ticks_Linear_8,218,5,42,127,1778792928
52,8,20,Ticks_Linear_8,219,1,48,50,1779348296
52,8,20,Ticks_Linear_8,220,5,42,127,1779392856
52,8,20,Ticks_Linear_8,221,1,48,43,1779988812
52,8,20,Ticks_Linear_8,222,5,42,127,1779993052
52,8,20,Ticks_Linear_8,223,5,42,127,1780592960
52,8,20,Ticks_Linear_8,224,1,48,47,1780616144
52,8,20,Ticks_Linear_8,225,5,42,127,1781193184
52,8,20,Ticks_Linear_8,226,1,48,49,1781206336
52,8,20,Ticks_Linear_8,227,1,48,47,1781773416
52,8,20,Ticks_Linear_8,228,5,42,127,1781783040
52,8,20,Ticks_Linear_8,229,1,48,46,1782354812
52,8,20,Ticks_Linear_8,230,5,42,127,1782372680
52,8,20,Ticks_Linear_8,231,1,48,43,1782942736
52,8,20,Ticks_Linear_8,232,5,42,127,1782962544
52,8,20,Ticks_Linear_8,233,1,48,41,1783547372
52,8,20,Ticks_Linear_8,234,5,42,127,1783552288
52,8,20,Ticks_Linear_8,235,1,48,43,1784119788
52,8,20,Ticks_Linear_8,236,5,42,127,1784142228
52,8,20,Ticks_Linear_8,237,5,42,127,1784722736
52,8,20,Ticks_Linear_8,238,1,48,41,1784727872
52,8,20,Ticks_Linear_8,239,5,42,127,1785302288
52,8,20,Ticks_Linear_8,240,1,48,38,1785318656
52,8,20,Ticks_Linear_8,241,5,42,127,1785883164
52,8,20,Ticks_Linear_8,242,1,48,43,1785888904
52,8,20,Ticks_Linear_8,243,5,42,127,1786462472
52,8,20,Ticks_Linear_8,244,1,48,47,1786471888
52,8,20,Ticks_Linear_8,245,5,42,127,1787042304
52,8,20,Ticks_Linear_8,246,1,48,48,1787050968
52,8,20,Ticks_Linear_8,247,5,42,127,1787612420
52,8,20,Ticks_Linear_8,248,1,48,49,1787623252
52,8,20,Ticks_Linear_8,249,1,48,47,1788174900
52,8,20,Ticks_Linear_8,250,5,42,127,1788183104
52,8,20,Ticks_Linear_8,251,5,42,127,1788752232
52,8,20,Ticks_Linear_8,252,1,48,47,1788768380
52,8,20,Ticks_Linear_8,253,1,48,43,1789284460
52,8,20,Ticks_Linear_8,254,5,42,127,1789322468
52,8,20,Ticks_Linear_8,255,5,42,127,1789893116
52,8,20,Ticks_Linear_8,256,1,48,49,1789921928
52,8,20,Ticks_Linear_8,257,5,42,127,1790453104
52,8,20,Ticks_Linear_8,258,1,48,46,1790480720
52,8,20,Ticks_Linear_8,259,5,42,127,1791012120
52,8,20,Ticks_Linear_8,260,1,48,49,1791016060
52,8,20,Ticks_Linear_8,261,1,48,45,1791559992
52,8,20,Ticks_Linear_8,262,5,42,127,1791572248
52,8,20,Ticks_Linear_8,263,1,48,43,1792120140
52,8,20,Ticks_Linear_8,264,5,42,127,1792132456
52,8,20,Ticks_Linear_8,265,5,42,127,1792692596
52,8,20,Ticks_Linear_8,266,1,48,46,1792694608
52,8,20,Ticks_Linear_8,267,5,42,127,1793242420
52,8,20,Ticks_Linear_8,268,1,48,45,1793256548
52,8,20,Ticks_Linear_8,269,5,42,127,1793792296
52,8,20,Ticks_Linear_8,270,1,48,44,1793814284
52,8,20,Ticks_Linear_8,271,1,48,47,1794330132
52,8,20,Ticks_Linear_8,272,5,42,127,1794342240
52,8,20,Ticks_Linear_8,273,1,48,46,1794850064
52,8,20,Ticks_Linear_8,274,5,42,127,1794892036
52,8,20,Ticks_Linear_8,275,5,42,127,1795443040
52,8,20,Ticks_Linear_8,276,1,48,41,1795444008
52,8,20,Ticks_Linear_8,277,5,42,127,1795982880
52,8,20,Ticks_Linear_8,278,1,48,42,1795998124
52,8,20,Ticks_Linear_8,279,5,42,127,1796522344
52,8,20,Ticks_Linear_8,280,1,48,41,1796562932
52,8,20,Ticks_Linear_8,281,5,42,127,1797063032
52,8,20,Ticks_Linear_8,282,1,48,45,1797090944
52,8,20,Ticks_Linear_8,283,5,42,127,1797602944
52,8,20,Ticks_Linear_8,284,1,48,41,1797651680
52,8,20,Ticks_Linear_8,285,1,48,42,1798123340
52,8,20,Ticks_Linear_8,286,5,42,127,1798142256
52,8,20,Ticks_Linear_8,287,1,48,41,1798653076
52,8,20,Ticks_Linear_8,288,5,42,127,1798673104
52,8,20,Ticks_Linear_8,289,1,48,35,1799176732
52,8,20,Ticks_Linear_8,290,5,42,127,1799202092
52,8,20,Ticks_Linear_8,291,1,48,49,1799721004
52,8,20,Ticks_Linear_8,292,5,42,127,1799732868
52,8,20,Ticks_Linear_8,293,5,42,127,1800263052
52,8,20,Ticks_Linear_8,294,1,48,41,1800276284
52,8,20,Ticks_Linear_8,295,5,42,127,1800792412
52,8,20,Ticks_Linear_8,296,1,48,43,1800811564
52,8,20,Ticks_Linear_8,297,5,42,127,1801312928
52,8,20,Ticks_Linear_8,298,1,48,42,1801334100
52,8,20,Ticks_Linear_8,299,5,42,127,1801832776
52,8,20,Ticks_Linear_8,300,1,48,46,1801852820
52,8,20,Ticks_Linear_8,301,5,42,127,1802352920
52,8,20,Ticks_Linear_8,302,1,48,39,1802381952
52,8,20,Ticks_Linear_8,303,5,42,127,1802872240
52,8,20,Ticks_Linear_8,304,1,48,41,1802896024
52,8,20,Ticks_Linear_8,305,1,48,43,1803367388
52,8,20,Ticks_Linear_8,306,5,42,127,1803392376
52,8,20,Ticks_Linear_8,307,1,48,44,1803877504
52,8,20,Ticks_Linear_8,308,5,42,127,1803902264
52,8,20,Ticks_Linear_8,309,1,48,44,1804389856
52,8,20,Ticks_Linear_8,310,5,42,127,1804412220
52,8,20,Ticks_Linear_8,311,1,48,42,1804879820
52,8,20,Ticks_Linear_8,312,5,42,127,1804922184
52,8,20,Ticks_Linear_8,313,1,48,43,1805424608
52,8,20,Ticks_Linear_8,314,5,42,127,1805432068
52,8,20,Ticks_Linear_8,315,5,42,127,1805942112
52,8,20,Ticks_Linear_8,316,1,48,45,1805955488
52,8,20,Ticks_Linear_8,317,5,42,127,1806442856
52,8,20,Ticks_Linear_8,318,1,48,46,1806456084
52,8,20,Ticks_Linear_8,319,5,42,127,1806942780
52,8,20,Ticks_Linear_8,320,1,48,43,1806963876
52,8,20,Ticks_Linear_8,321,1,48,47,1807433896
52,8,20,Ticks_Linear_8,322,5,42,127,1807442620
52,8,20,Ticks_Linear_8,323,1,48,42,1807941112
52,8,20,Ticks_Linear_8,324,5,42,127,1807942996
52,8,20,Ticks_Linear_8,325,5,42,127,1808442628
52,8,20,Ticks_Linear_8,326,1,48,41,1808457424
52,8,20,Ticks_Linear_8,327,5,42,127,1808932144
52,8,20,Ticks_Linear_8,328,1,48,48,1808948364
52,8,20,Ticks_Linear_8,329,1,48,44,1809413076
52,8,20,Ticks_Linear_8,330,5,42,127,1809422628
52,8,20,Ticks_Linear_8,331,1,48,44,1809890300
52,8,20,Ticks_Linear_8,332,5,42,127,1809912144
52,8,20,Ticks_Linear_8,333,1,48,48,1810397344
52,8,20,Ticks_Linear_8,334,5,42,127,1810402632
52,8,20,Ticks_Linear_8,335,5,42,127,1810892228
52,8,20,Ticks_Linear_8,0,9999,9999,9999,1700330616
52,8,20,Ticks_Linear_8,1,9999,9999,9999,1701150808
52,8,20,Ticks_Linear_8,2,9999,9999,9999,1701980284
52,8,20,Ticks_Linear_8,3,9999,9999,9999,1702800472
52,8,20,Ticks_Linear_8,4,9999,9999,9999,1703620688
52,8,20,Ticks_Linear_8,5,9999,9999,9999,1704430716
52,8,20,Ticks_Linear_8,6,9999,9999,9999,1705240700
52,8,20,Ticks_Linear_8,7,9999,9999,9999,1706050616
52,8,20,Ticks_Linear_8,8,9999,9999,9999,1706860596
52,8,20,Ticks_Linear_8,9,9999,9999,9999,1707670656
52,8,20,Ticks_Linear_8,10,9999,9999,9999,1708470380
52,8,20,Ticks_Linear_8,11,9999,9999,9999,1709270128
52,8,20,Ticks_Linear_8,12,9999,9999,9999,1710069848
52,8,20,Ticks_Linear_8,13,9999,9999,9999,1710870624
52,8,20,Ticks_Linear_8,14,9999,9999,9999,1711670340
52,8,20,Ticks_Linear_8,15,9999,9999,9999,1712459884
52,8,20,Ticks_Linear_8,16,9999,9999,9999,1713250400
52,8,20,Ticks_Linear_8,17,9999,9999,9999,1714039932
52,8,20,Ticks_Linear_8,18,9999,9999,9999,1714830444
52,8,20,Ticks_Linear_8,19,9999,9999,9999,1715619916
52,8,20,Ticks_Linear_8,20,9999,9999,9999,1716400244
52,8,20,Ticks_Linear_8,21,9999,9999,9999,1717180496
52,8,20,Ticks_Linear_8,22,9999,9999,9999,1717960768
52,8,20,Ticks_Linear_8,23,9999,9999,9999,1718750308
52,8,20,Ticks_Linear_8,24,9999,9999,9999,1719530560
52,8,20,Ticks_Linear_8,25,9999,9999,9999,1720300636
52,8,20,Ticks_Linear_8,26,9999,9999,9999,1721070696
52,8,20,Ticks_Linear_8,27,9999,9999,9999,1721840764
52,8,20,Ticks_Linear_8,28,9999,9999,9999,1722610764
52,8,20,Ticks_Linear_8,29,9999,9999,9999,1723379784
52,8,20,Ticks_Linear_8,30,9999,9999,9999,1724140640
52,8,20,Ticks_Linear_8,31,9999,9999,9999,1724900444
52,8,20,Ticks_Linear_8,32,9999,9999,9999,1725660252
52,8,20,Ticks_Linear_8,33,9999,9999,9999,1726420068
52,8,20,Ticks_Linear_8,34,9999,9999,9999,1727179876
52,8,20,Ticks_Linear_8,35,9999,9999,9999,1727930444
52,8,20,Ticks_Linear_8,36,9999,9999,9999,1728680000
52,8,20,Ticks_Linear_8,37,9999,9999,9999,1729430596
52,8,20,Ticks_Linear_8,38,9999,9999,9999,1730180216
52,8,20,Ticks_Linear_8,39,9999,9999,9999,1730930808
52,8,20,Ticks_Linear_8,40,9999,9999,9999,1731670100
52,8,20,Ticks_Linear_8,41,9999,9999,9999,1732410436
52,8,20,Ticks_Linear_8,42,9999,9999,9999,1733150780
52,8,20,Ticks_Linear_8,43,9999,9999,9999,1733900404
52,8,20,Ticks_Linear_8,44,9999,9999,9999,1734640744
52,8,20,Ticks_Linear_8,45,9999,9999,9999,1735369848
52,8,20,Ticks_Linear_8,46,9999,9999,9999,1736099904
52,8,20,Ticks_Linear_8,47,9999,9999,9999,1736830048
52,8,20,Ticks_Linear_8,48,9999,9999,9999,1737560136
52,8,20,Ticks_Linear_8,49,9999,9999,9999,1738290280
52,8,20,Ticks_Linear_8,50,9999,9999,9999,1739010172
52,8,20,Ticks_Linear_8,51,9999,9999,9999,1739729992
52,8,20,Ticks_Linear_8,52,9999,9999,9999,1740449860
52,8,20,Ticks_Linear_8,53,9999,9999,9999,1741170800
52,8,20,Ticks_Linear_8,54,9999,9999,9999,1741890620
52,8,20,Ticks_Linear_8,55,9999,9999,9999,1742600256
52,8,20,Ticks_Linear_8,56,9999,9999,9999,1743309896
52,8,20,Ticks_Linear_8,57,9999,9999,9999,1744020544
52,8,20,Ticks_Linear_8,58,9999,9999,9999,1744730184
52,8,20,Ticks_Linear_8,59,9999,9999,9999,1745439816
52,8,20,Ticks_Linear_8,60,9999,9999,9999,1746140248
52,8,20,Ticks_Linear_8,61,9999,9999,9999,1746840644
52,8,20,Ticks_Linear_8,62,9999,9999,9999,1747540088
52,8,20,Ticks_Linear_8,63,9999,9999,9999,1748240440
52,8,20,Ticks_Linear_8,64,9999,9999,9999,1748939892
52,8,20,Ticks_Linear_8,65,9999,9999,9999,1749630024
52,8,20,Ticks_Linear_8,66,9999,9999,9999,1750320192
52,8,20,Ticks_Linear_8,67,9999,9999,9999,1751010432
52,8,20,Ticks_Linear_8,68,9999,9999,9999,1751700564
52,8,20,Ticks_Linear_8,69,9999,9999,9999,1752390724
52,8,20,Ticks_Linear_8,70,9999,9999,9999,1753070704
52,8,20,Ticks_Linear_8,71,9999,9999,9999,1753750584
52,8,20,Ticks_Linear_8,72,9999,9999,9999,1754430564
52,8,20,Ticks_Linear_8,73,9999,9999,9999,1755110468
52,8,20,Ticks_Linear_8,74,9999,9999,9999,1755790428
52,8,20,Ticks_Linear_8,75,9999,9999,9999,1756460148
52,8,20,Ticks_Linear_8,76,9999,9999,9999,1757129784
52,8,20,Ticks_Linear_8,77,9999,9999,9999,1757800524
52,8,20,Ticks_Linear_8,78,9999,9999,9999,1758470244
52,8,20,Ticks_Linear_8,79,9999,9999,9999,1759139940
52,8,20,Ticks_Linear_8,80,9999,9999,9999,1759800380
52,8,20,Ticks_Linear_8,81,9999,9999,9999,1760459840
52,8,20,Ticks_Linear_8,82,9999,9999,9999,1761120324
52,8,20,Ticks_Linear_8,83,9999,9999,9999,1761779776
52,8,20,Ticks_Linear_8,84,9999,9999,9999,1762440260
52,8,20,Ticks_Linear_8,85,9999,9999,9999,1763090516
52,8,20,Ticks_Linear_8,86,9999,9999,9999,1763740732
52,8,20,Ticks_Linear_8,87,9999,9999,9999,1764390004
52,8,20,Ticks_Linear_8,88,9999,9999,9999,1765040236
52,8,20,Ticks_Linear_8,89,9999,9999,9999,1765690484
52,8,20,Ticks_Linear_8,90,9999,9999,9999,1766330448
52,8,20,Ticks_Linear_8,91,9999,9999,9999,1766970436
52,8,20,Ticks_Linear_8,92,9999,9999,9999,1767610476
52,8,20,Ticks_Linear_8,93,9999,9999,9999,1768250464
52,8,20,Ticks_Linear_8,94,9999,9999,9999,1768890420
52,8,20,Ticks_Linear_8,95,9999,9999,9999,1769520228
52,8,20,Ticks_Linear_8,96,9999,9999,9999,1770150008
52,8,20,Ticks_Linear_8,97,9999,9999,9999,1770780784
52,8,20,Ticks_Linear_8,98,9999,9999,9999,1771410488
52,8,20,Ticks_Linear_8,99,9999,9999,9999,1772040292
52,8,20,Ticks_Linear_8,100,9999,9999,9999,1772659820
52,8,20,Ticks_Linear_8,101,9999,9999,9999,1773280328
52,8,20,Ticks_Linear_8,102,9999,9999,9999,1773899848
52,8,20,Ticks_Linear_8,103,9999,9999,9999,1774520416
52,8,20,Ticks_Linear_8,104,9999,9999,9999,1775139896
52,8,20,Ticks_Linear_8,105,9999,9999,9999,1775750204
52,8,20,Ticks_Linear_8,106,9999,9999,9999,1776360528
52,8,20,Ticks_Linear_8,107,9999,9999,9999,1776969796
52,8,20,Ticks_Linear_8,108,9999,9999,9999,1777580100
52,8,20,Ticks_Linear_8,109,9999,9999,9999,1778190432
52,8,20,Ticks_Linear_8,110,9999,9999,9999,1778790484
52,8,20,Ticks_Linear_8,111,9999,9999,9999,1779390532
52,8,20,Ticks_Linear_8,112,9999,9999,9999,1779990604
52,8,20,Ticks_Linear_8,113,9999,9999,9999,1780590660
52,8,20,Ticks_Linear_8,114,9999,9999,9999,1781190732
52,8,20,Ticks_Linear_8,115,9999,9999,9999,1781780592
52,8,20,Ticks_Linear_8,116,9999,9999,9999,1782370384
52,8,20,Ticks_Linear_8,117,9999,9999,9999,1782960244
52,8,20,Ticks_Linear_8,118,9999,9999,9999,1783550064
52,8,20,Ticks_Linear_8,119,9999,9999,9999,1784139852
52,8,20,Ticks_Linear_8,120,9999,9999,9999,1784720512
52,8,20,Ticks_Linear_8,121,9999,9999,9999,1785300064
52,8,20,Ticks_Linear_8,122,9999,9999,9999,1785880640
52,8,20,Ticks_Linear_8,123,9999,9999,9999,1786460248
52,8,20,Ticks_Linear_8,124,9999,9999,9999,1787039852
52,8,20,Ticks_Linear_8,125,9999,9999,9999,1787610196
52,8,20,Ticks_Linear_8,126,9999,9999,9999,1788180584
52,8,20,Ticks_Linear_8,127,9999,9999,9999,1788749936
52,8,20,Ticks_Linear_8,128,9999,9999,9999,1789320244
52,8,20,Ticks_Linear_8,129,9999,9999,9999,1789890668
52,8,20,Ticks_Linear_8,130,9999,9999,9999,1790450804
52,8,20,Ticks_Linear_8,131,9999,9999,9999,1791009892
52,8,20,Ticks_Linear_8,132,9999,9999,9999,1791570020
52,8,20,Ticks_Linear_8,133,9999,9999,9999,1792130156
52,8,20,Ticks_Linear_8,134,9999,9999,9999,1792690296
52,8,20,Ticks_Linear_8,135,9999,9999,9999,1793240120
52,8,20,Ticks_Linear_8,136,9999,9999,9999,1793790072
52,8,20,Ticks_Linear_8,137,9999,9999,9999,1794339940
52,8,20,Ticks_Linear_8,138,9999,9999,9999,1794889812
52,8,20,Ticks_Linear_8,139,9999,9999,9999,1795440740
52,8,20,Ticks_Linear_8,140,9999,9999,9999,1795980356
52,8,20,Ticks_Linear_8,141,9999,9999,9999,1796520044
52,8,20,Ticks_Linear_8,142,9999,9999,9999,1797060732
52,8,20,Ticks_Linear_8,143,9999,9999,9999,1797600348
52,8,20,Ticks_Linear_8,144,9999,9999,9999,1798139956
52,8,20,Ticks_Linear_8,145,9999,9999,9999,1798670436
52,8,20,Ticks_Linear_8,146,9999,9999,9999,1799199868
52,8,20,Ticks_Linear_8,147,9999,9999,9999,1799730272
52,8,20,Ticks_Linear_8,148,9999,9999,9999,1800260680
52,8,20,Ticks_Linear_8,149,9999,9999,9999,1800790112
52,8,20,Ticks_Linear_8,150,9999,9999,9999,1801310332
52,8,20,Ticks_Linear_8,151,9999,9999,9999,1801830476
52,8,20,Ticks_Linear_8,152,9999,9999,9999,1802350692
52,8,20,Ticks_Linear_8,153,9999,9999,9999,1802869864
52,8,20,Ticks_Linear_8,154,9999,9999,9999,1803390080
52,8,20,Ticks_Linear_8,155,9999,9999,9999,1803899964
52,8,20,Ticks_Linear_8,156,9999,9999,9999,1804409924
52,8,20,Ticks_Linear_8,157,9999,9999,9999,1804919884
52,8,20,Ticks_Linear_8,158,9999,9999,9999,1805429844
52,8,20,Ticks_Linear_8,159,9999,9999,9999,1805939812
52,8,20,Ticks_Linear_8,160,9999,9999,9999,1806440556
52,8,20,Ticks_Linear_8,161,9999,9999,9999,1806940256
52,8,20,Ticks_Linear_8,162,9999,9999,9999,1807439952
52,8,20,Ticks_Linear_8,163,9999,9999,9999,1807940728
52,8,20,Ticks_Linear_8,164,9999,9999,9999,1808440404
52,8,20,Ticks_Linear_8,165,9999,9999,9999,1808929848
52,8,20,Ticks_Linear_8,166,9999,9999,9999,1809420404
52,8,20,Ticks_Linear_8,167,9999,9999,9999,1809909844
52,8,20,Ticks_Linear_8,168,9999,9999,9999,1810400332
52,8,20,Ticks_Linear_8,169,9999,9999,9999,1810889856
52,9,23,Ticks_Phase_5,0,5,42,127,1820629308
52,9,23,Ticks_Phase_5,1,5,42,127,1821130064
52,9,23,Ticks_Phase_5,2,5,42,127,1821629996
52,9,23,Ticks_Phase_5,3,5,42,127,1822129456
52,9,23,Ticks_Phase_5,4,1,48,51,1822616316
52,9,23,Ticks_Phase_5,5,5,42,127,1822629236
52,9,23,Ticks_Phase_5,6,1,48,50,1823087396
52,9,23,Ticks_Phase_5,7,5,42,127,1823129972
52,9,23,Ticks_Phase_5,8,1,48,51,1823628224
52,9,23,Ticks_Phase_5,9,5,42,127,1823629660
52,9,23,Ticks_Phase_5,10,5,42,127,1824129352
52,9,23,Ticks_Phase_5,11,1,48,51,1824137720
52,9,23,Ticks_Phase_5,12,5,42,127,1824630088
52,9,23,Ticks_Phase_5,13,1,48,46,1824648860
52,9,23,Ticks_Phase_5,14,5,42,127,1825140036
52,9,23,Ticks_Phase_5,15,1,48,39,1825147204
52,9,23,Ticks_Phase_5,16,1,48,43,1825638892
52,9,23,Ticks_Phase_5,17,5,42,127,1825640384
52,9,23,Ticks_Phase_5,18,5,42,127,1826139412
52,9,23,Ticks_Phase_5,19,1,48,43,1826148452
52,9,23,Ticks_Phase_5,20,5,42,127,1826639248
52,9,23,Ticks_Phase_5,21,1,48,43,1826648512
52,9,23,Ticks_Phase_5,22,1,48,48,1827133656
52,9,23,Ticks_Phase_5,23,5,42,127,1827140200
52,9,23,Ticks_Phase_5,24,5,42,127,1827639820
52,9,23,Ticks_Phase_5,25,1,48,45,1827678812
52,9,23,Ticks_Phase_5,26,5,42,127,1828139360
52,9,23,Ticks_Phase_5,27,1,48,43,1828142108
52,9,23,Ticks_Phase_5,28,1,48,47,1828640244
52,9,23,Ticks_Phase_5,29,5,42,127,1828641580
52,9,23,Ticks_Phase_5,30,1,48,46,1829121400
52,9,23,Ticks_Phase_5,31,5,42,127,1829139924
52,9,23,Ticks_Phase_5,32,5,42,127,1829639472
52,9,23,Ticks_Phase_5,33,1,48,46,1829644388
52,9,23,Ticks_Phase_5,34,1,48,47,1830131408
52,9,23,Ticks_Phase_5,35,5,42,127,1830139228
52,9,23,Ticks_Phase_5,36,5,42,127,1830639896
52,9,23,Ticks_Phase_5,37,1,48,36,1830641232
52,9,23,Ticks_Phase_5,38,1,48,40,1831132356
52,9,23,Ticks_Phase_5,39,5,42,127,1831139800
52,9,23,Ticks_Phase_5,40,5,42,127,1831639420
52,9,23,Ticks_Phase_5,41,1,48,46,1831645752
52,9,23,Ticks_Phase_5,42,1,48,35,1832130688
52,9,23,Ticks_Phase_5,43,5,42,127,1832139100
52,9,23,Ticks_Phase_5,44,1,48,36,1832620760
52,9,23,Ticks_Phase_5,45,5,42,127,1832639836
52,9,23,Ticks_Phase_5,46,1,48,44,1833121200
52,9,23,Ticks_Phase_5,47,5,42,127,1833139500
52,9,23,Ticks_Phase_5,48,1,48,45,1833622536
52,9,23,Ticks_Phase_5,49,5,42,127,1833639264
52,9,23,Ticks_Phase_5,50,5,42,127,1834140004
52,9,23,Ticks_Phase_5,51,1,48,41,1834144844
52,9,23,Ticks_Phase_5,52,1,48,43,1834620112
52,9,23,Ticks_Phase_5,53,5,42,127,1834639832
52,9,23,Ticks_Phase_5,54,1,48,46,1835102048
52,9,23,Ticks_Phase_5,55,5,42,127,1835139600
52,9,23,Ticks_Phase_5,56,5,42,127,1835629932
52,9,23,Ticks_Phase_5,57,1,48,47,1835675132
52,9,23,Ticks_Phase_5,58,1,48,45,1836111164
52,9,23,Ticks_Phase_5,59,5,42,127,1836129836
52,9,23,Ticks_Phase_5,60,1,48,43,1836593476
52,9,23,Ticks_Phase_5,61,5,42,127,1836629228
52,9,23,Ticks_Phase_5,62,1,48,42,1837107768
52,9,23,Ticks_Phase_5,63,5,42,127,1837130040
52,9,23,Ticks_Phase_5,64,1,48,36,1837614192
52,9,23,Ticks_Phase_5,65,5,42,127,1837629948
52,9,23,Ticks_Phase_5,66,5,42,127,1838129496
52,9,23,Ticks_Phase_5,67,1,48,41,1838139808
52,9,23,Ticks_Phase_5,68,5,42,127,1838629184
52,9,23,Ticks_Phase_5,69,1,48,39,1838646748
52,9,23,Ticks_Phase_5,70,1,48,39,1839117368
52,9,23,Ticks_Phase_5,71,5,42,127,1839129984
52,9,23,Ticks_Phase_5,72,1,48,44,1839609576
52,9,23,Ticks_Phase_5,73,5,42,127,1839629896
52,9,23,Ticks_Phase_5,74,5,42,127,1840129368
52,9,23,Ticks_Phase_5,75,1,48,43,1840153152
52,9,23,Ticks_Phase_5,76,5,42,127,1840630252
52,9,23,Ticks_Phase_5,77,1,48,44,1840657940
52,9,23,Ticks_Phase_5,78,5,42,127,1841140052
52,9,23,Ticks_Phase_5,79,1,48,45,1841157700
52,9,23,Ticks_Phase_5,80,5,42,127,1841639740
52,9,23,Ticks_Phase_5,81,1,48,41,1841667352
52,9,23,Ticks_Phase_5,82,5,42,127,1842139724
52,9,23,Ticks_Phase_5,83,1,48,44,1842160972
52,9,23,Ticks_Phase_5,84,1,48,43,1842619888
52,9,23,Ticks_Phase_5,85,5,42,127,1842639236
52,9,23,Ticks_Phase_5,86,1,48,45,1843131456
52,9,23,Ticks_Phase_5,87,5,42,127,1843139896
52,9,23,Ticks_Phase_5,88,5,42,127,1843639860
52,9,23,Ticks_Phase_5,89,1,48,45,1843647656
52,9,23,Ticks_Phase_5,90,5,42,127,1844139624
52,9,23,Ticks_Phase_5,91,1,48,48,1844144688
52,9,23,Ticks_Phase_5,92,5,42,127,1844649200
52,9,23,Ticks_Phase_5,93,1,48,49,1844660784
52,9,23,Ticks_Phase_5,94,5,42,127,1845150008
52,9,23,Ticks_Phase_5,95,1,48,45,1845156120
52,9,23,Ticks_Phase_5,96,5,42,127,1845649920
52,9,23,Ticks_Phase_5,97,1,48,46,1845658888
52,9,23,Ticks_Phase_5,98,5,42,127,1846149460
52,9,23,Ticks_Phase_5,99,1,48,41,1846159548
52,9,23,Ticks_Phase_5,100,5,42,127,1846649148
52,9,23,Ticks_Phase_5,101,1,48,41,1846655776
52,9,23,Ticks_Phase_5,102,5,42,127,1847150032
52,9,23,Ticks_Phase_5,103,1,48,42,1847156364
52,9,23,Ticks_Phase_5,104,5,42,127,1847649716
52,9,23,Ticks_Phase_5,105,1,48,46,1847675372
52,9,23,Ticks_Phase_5,106,1,48,44,1848137768
52,9,23,Ticks_Phase_5,107,5,42,127,1848149548
52,9,23,Ticks_Phase_5,108,1,48,49,1848621128
52,9,23,Ticks_Phase_5,109,5,42,127,1848649988
52,9,23,Ticks_Phase_5,110,1,48,46,1849121780
52,9,23,Ticks_Phase_5,111,5,42,127,1849149748
52,9,23,Ticks_Phase_5,112,1,48,41,1849633080
52,9,23,Ticks_Phase_5,113,5,42,127,1849649660
52,9,23,Ticks_Phase_5,114,5,42,127,1850149428
52,9,23,Ticks_Phase_5,115,1,48,45,1850162212
52,9,23,Ticks_Phase_5,116,5,42,127,1850650164
52,9,23,Ticks_Phase_5,117,1,48,43,1850676116
52,9,23,Ticks_Phase_5,118,5,42,127,1851149628
52,9,23,Ticks_Phase_5,119,1,48,45,1851156112
52,9,23,Ticks_Phase_5,120,5,42,127,1851649616
52,9,23,Ticks_Phase_5,121,1,48,48,1851656400
52,9,23,Ticks_Phase_5,122,5,42,127,1852150276
52,9,23,Ticks_Phase_5,123,1,48,45,1852164924
52,9,23,Ticks_Phase_5,124,1,48,51,1852673296
52,9,23,Ticks_Phase_5,125,5,42,127,1852679392
52,9,23,Ticks_Phase_5,126,1,48,47,1853173356
52,9,23,Ticks_Phase_5,127,5,42,127,1853179304
52,9,23,Ticks_Phase_5,128,1,48,53,1853643840
52,9,23,Ticks_Phase_5,129,5,42,127,1853679964
52,9,23,Ticks_Phase_5,130,5,42,127,1854179584
52,9,23,Ticks_Phase_5,131,1,48,44,1854188396
52,9,23,Ticks_Phase_5,132,5,42,127,1854679348
52,9,23,Ticks_Phase_5,133,1,48,45,1854717296
52,9,23,Ticks_Phase_5,134,5,42,127,1855179112
52,9,23,Ticks_Phase_5,135,1,48,38,1855186268
52,9,23,Ticks_Phase_5,136,5,42,127,1855679844
52,9,23,Ticks_Phase_5,137,1,48,42,1855717028
52,9,23,Ticks_Phase_5,138,5,42,127,1856179584
52,9,23,Ticks_Phase_5,139,1,48,44,1856206756
52,9,23,Ticks_Phase_5,140,5,42,127,1856679424
52,9,23,Ticks_Phase_5,141,1,48,40,1856687860
52,9,23,Ticks_Phase_5,142,5,42,127,1857180308
52,9,23,Ticks_Phase_5,143,1,48,45,1857206184
52,9,23,Ticks_Phase_5,144,5,42,127,1857679696
52,9,23,Ticks_Phase_5,145,1,48,45,1857703928
52,9,23,Ticks_Phase_5,146,1,48,44,1858156576
52,9,23,Ticks_Phase_5,147,5,42,127,1858179600
52,9,23,Ticks_Phase_5,148,1,48,34,1858638076
52,9,23,Ticks_Phase_5,149,5,42,127,1858679140
52,9,23,Ticks_Phase_5,150,1,48,45,1859175872
52,9,23,Ticks_Phase_5,151,5,42,127,1859180172
52,9,23,Ticks_Phase_5,152,1,48,47,1859653616
52,9,23,Ticks_Phase_5,153,5,42,127,1859679564
52,9,23,Ticks_Phase_5,154,5,42,127,1860179260
52,9,23,Ticks_Phase_5,155,1,48,34,1860216984
52,9,23,Ticks_Phase_5,156,5,42,127,1860680292
52,9,23,Ticks_Phase_5,157,1,48,43,1860712920
52,9,23,Ticks_Phase_5,158,5,42,127,1861159316
52,9,23,Ticks_Phase_5,159,1,48,40,1861207668
52,9,23,Ticks_Phase_5,160,5,42,127,1861660124
52,9,23,Ticks_Phase_5,161,1,48,46,1861683908
52,9,23,Ticks_Phase_5,162,5,42,127,1862159664
52,9,23,Ticks_Phase_5,163,1,48,41,1862179560
52,9,23,Ticks_Phase_5,164,1,48,45,1862652272
52,9,23,Ticks_Phase_5,165,5,42,127,1862659492
52,9,23,Ticks_Phase_5,166,1,48,43,1863142600
52,9,23,Ticks_Phase_5,167,5,42,127,1863159256
52,9,23,Ticks_Phase_5,168,5,42,127,1863659996
52,9,23,Ticks_Phase_5,169,1,48,49,1863674720
52,9,23,Ticks_Phase_5,170,5,42,127,1864159684
52,9,23,Ticks_Phase_5,171,1,48,50,1864162360
52,9,23,Ticks_Phase_5,172,5,42,127,1864659376
52,9,23,Ticks_Phase_5,173,1,48,47,1864660936
52,9,23,Ticks_Phase_5,174,1,48,49,1865147648
52,9,23,Ticks_Phase_5,175,5,42,127,1865160028
52,9,23,Ticks_Phase_5,176,1,48,47,1865645800
52,9,23,Ticks_Phase_5,177,5,42,127,1865659644
52,9,23,Ticks_Phase_5,178,1,48,48,1866155672
52,9,23,Ticks_Phase_5,179,5,42,127,1866159456
52,9,23,Ticks_Phase_5,180,5,42,127,1866659152
52,9,23,Ticks_Phase_5,181,1,48,50,1866660712
52,9,23,Ticks_Phase_5,182,1,48,49,1867152132
52,9,23,Ticks_Phase_5,183,5,42,127,1867159880
52,9,23,Ticks_Phase_5,184,1,48,52,1867653768
52,9,23,Ticks_Phase_5,185,5,42,127,1867659716
52,9,23,Ticks_Phase_5,186,5,42,127,1868159336
52,9,23,Ticks_Phase_5,187,1,48,50,1868173836
52,9,23,Ticks_Phase_5,188,5,42,127,1868660220
52,9,23,Ticks_Phase_5,189,1,48,41,1868699140
52,9,23,Ticks_Phase_5,190,5,42,127,1869109660
52,9,23,Ticks_Phase_5,191,1,48,48,1869152244
52,9,23,Ticks_Phase_5,192,1,48,44,1869576728
52,9,23,Ticks_Phase_5,193,5,42,127,1869609344
52,9,23,Ticks_Phase_5,194,1,48,49,1870073424
52,9,23,Ticks_Phase_5,195,5,42,127,1870110076
52,9,23,Ticks_Phase_5,196,1,48,46,1870551992
52,9,23,Ticks_Phase_5,197,5,42,127,1870609764
52,9,23,Ticks_Phase_5,198,1,48,49,1871084032
52,9,23,Ticks_Phase_5,199,5,42,127,1871109604
52,9,23,Ticks_Phase_5,200,1,48,41,1871600728
52,9,23,Ticks_Phase_5,201,5,42,127,1871609140
52,9,23,Ticks_Phase_5,202,5,42,127,1872109960
52,9,23,Ticks_Phase_5,203,1,48,44,1872126848
52,9,23,Ticks_Phase_5,204,5,42,127,1872609872
52,9,23,Ticks_Phase_5,205,1,48,41,1872659196
52,9,23,Ticks_Phase_5,206,5,42,127,1873109408
52,9,23,Ticks_Phase_5,207,1,48,40,1873123232
52,9,23,Ticks_Phase_5,208,5,42,127,1873609996
52,9,23,Ticks_Phase_5,209,1,48,39,1873622624
52,9,23,Ticks_Phase_5,210,1,48,39,1874098392
52,9,23,Ticks_Phase_5,211,5,42,127,1874109824
52,9,23,Ticks_Phase_5,212,1,48,43,1874601520
52,9,23,Ticks_Phase_5,213,5,42,127,1874609636
52,9,23,Ticks_Phase_5,214,1,48,34,1875094312
52,9,23,Ticks_Phase_5,215,5,42,127,1875109252
52,9,23,Ticks_Phase_5,216,1,48,41,1875607792
52,9,23,Ticks_Phase_5,217,5,42,127,1875609912
52,9,23,Ticks_Phase_5,218,1,48,46,1876107484
52,9,23,Ticks_Phase_5,219,5,42,127,1876109672
52,9,23,Ticks_Phase_5,220,5,42,127,1876609296
52,9,23,Ticks_Phase_5,221,1,48,39,1876624988
52,9,23,Ticks_Phase_5,222,5,42,127,1877110104
52,9,23,Ticks_Phase_5,223,1,48,44,1877115612
52,9,23,Ticks_Phase_5,224,1,48,47,1877613720
52,9,23,Ticks_Phase_5,225,5,42,127,1877669172
52,9,23,Ticks_Phase_5,226,5,42,127,1878169840
52,9,23,Ticks_Phase_5,227,1,48,41,1878192952
52,9,23,Ticks_Phase_5,228,5,42,127,1878669676
52,9,23,Ticks_Phase_5,229,1,48,43,1878681708
52,9,23,Ticks_Phase_5,230,1,48,40,1879168984
52,9,23,Ticks_Phase_5,231,5,42,127,1879170628
52,9,23,Ticks_Phase_5,232,5,42,127,1879670100
52,9,23,Ticks_Phase_5,233,1,48,41,1879682428
52,9,23,Ticks_Phase_5,234,5,42,127,1880180048
52,9,23,Ticks_Phase_5,235,1,48,39,1880182060
52,9,23,Ticks_Phase_5,236,5,42,127,1880679808
52,9,23,Ticks_Phase_5,237,1,48,37,1880682476
52,9,23,Ticks_Phase_5,238,5,42,127,1881179644
52,9,23,Ticks_Phase_5,239,1,48,38,1881188008
52,9,23,Ticks_Phase_5,240,1,48,41,1881672032
52,9,23,Ticks_Phase_5,241,5,42,127,1881679324
52,9,23,Ticks_Phase_5,242,1,48,38,1882165796
52,9,23,Ticks_Phase_5,243,5,42,127,1882179912
52,9,23,Ticks_Phase_5,244,5,42,127,1882679608
52,9,23,Ticks_Phase_5,245,1,48,40,1882683548
52,9,23,Ticks_Phase_5,246,1,48,40,1883163080
52,9,23,Ticks_Phase_5,247,5,42,127,1883179512
52,9,23,Ticks_Phase_5,248,5,42,127,1883680108
52,9,23,Ticks_Phase_5,249,1,48,43,1883682044
52,9,23,Ticks_Phase_5,250,5,42,127,1884179868
52,9,23,Ticks_Phase_5,251,1,48,42,1884196236
52,9,23,Ticks_Phase_5,252,1,48,43,1884656824
52,9,23,Ticks_Phase_5,253,5,42,127,1884679552
52,9,23,Ticks_Phase_5,254,1,48,45,1885175308
52,9,23,Ticks_Phase_5,255,5,42,127,1885179240
52,9,23,Ticks_Phase_5,256,5,42,127,1885679984
52,9,23,Ticks_Phase_5,257,1,48,40,1885689472
52,9,23,Ticks_Phase_5,258,1,48,40,1886162704
52,9,23,Ticks_Phase_5,259,5,42,127,1886280000
52,9,23,Ticks_Phase_5,260,5,42,127,1886779632
52,9,23,Ticks_Phase_5,261,1,48,43,1886836216
52,9,23,Ticks_Phase_5,262,5,42,127,1887279544
52,9,23,Ticks_Phase_5,263,1,48,38,1887280512
52,9,23,Ticks_Phase_5,264,5,42,127,1887779160
52,9,23,Ticks_Phase_5,265,1,48,33,1887817328
52,9,23,Ticks_Phase_5,266,1,48,35,1888254992
52,9,23,Ticks_Phase_5,267,5,42,127,1888279960
52,9,23,Ticks_Phase_5,268,1,48,38,1888770784
52,9,23,Ticks_Phase_5,269,5,42,127,1888779652
52,9,23,Ticks_Phase_5,270,1,48,30,1889265972
52,9,23,Ticks_Phase_5,271,5,42,127,1889279636
52,9,23,Ticks_Phase_5,272,1,48,38,1889772328
52,9,23,Ticks_Phase_5,273,5,42,127,1889780224
52,9,23,Ticks_Phase_5,274,5,42,127,1890279772
52,9,23,Ticks_Phase_5,275,1,48,39,1890281560
52,9,23,Ticks_Phase_5,276,5,42,127,1890779608
52,9,23,Ticks_Phase_5,277,1,48,34,1890826308
52,9,23,Ticks_Phase_5,278,5,42,127,1891279372
52,9,23,Ticks_Phase_5,279,1,48,39,1891280336
52,9,23,Ticks_Phase_5,280,5,42,127,1891779808
52,9,23,Ticks_Phase_5,281,1,48,44,1891797832
52,9,23,Ticks_Phase_5,282,5,42,127,1892279620
52,9,23,Ticks_Phase_5,283,1,48,47,1892295040
52,9,23,Ticks_Phase_5,284,1,48,47,1892769240
52,9,23,Ticks_Phase_5,285,5,42,127,1892779376
52,9,23,Ticks_Phase_5,286,1,48,44,1893265096
52,9,23,Ticks_Phase_5,287,5,42,127,1893280260
52,9,23,Ticks_Phase_5,288,1,48,37,1893746064
52,9,23,Ticks_Phase_5,289,5,42,127,1893779876
52,9,23,Ticks_Phase_5,290,1,48,40,1894252048
52,9,23,Ticks_Phase_5,291,5,42,127,1894279416
52,9,23,Ticks_Phase_5,292,5,42,127,1894779184
52,9,23,Ticks_Phase_5,293,1,48,45,1894826852
52,9,23,Ticks_Phase_5,294,5,42,127,1895279996
52,9,23,Ticks_Phase_5,295,1,48,43,1895285056
52,9,23,Ticks_Phase_5,296,5,42,127,1895679336
52,9,23,Ticks_Phase_5,297,1,48,41,1895793960
52,9,23,Ticks_Phase_5,298,5,42,127,1896180216
52,9,23,Ticks_Phase_5,299,1,48,43,1896239952
52,9,23,Ticks_Phase_5,300,1,48,36,1896670216
52,9,23,Ticks_Phase_5,301,5,42,127,1896679752
52,9,23,Ticks_Phase_5,302,5,42,127,1897179668
52,9,23,Ticks_Phase_5,303,1,48,26,1897230348
52,9,23,Ticks_Phase_5,304,1,48,33,1897668916
52,9,23,Ticks_Phase_5,305,5,42,127,1897679352
52,9,23,Ticks_Phase_5,306,5,42,127,1898180096
52,9,23,Ticks_Phase_5,307,1,48,37,1898185760
52,9,23,Ticks_Phase_5,308,5,42,127,1898679688
52,9,23,Ticks_Phase_5,309,1,48,39,1898702004
52,9,23,Ticks_Phase_5,310,5,42,127,1899179376
52,9,23,Ticks_Phase_5,311,1,48,37,1899191484
52,9,23,Ticks_Phase_5,312,5,42,127,1899680184
52,9,23,Ticks_Phase_5,313,1,48,36,1899694532
52,9,23,Ticks_Phase_5,314,1,48,43,1900163136
52,9,23,Ticks_Phase_5,315,5,42,127,1900179792
52,9,23,Ticks_Phase_5,316,1,48,39,1900669640
52,9,23,Ticks_Phase_5,317,5,42,127,1900679404
52,9,23,Ticks_Phase_5,318,1,48,38,1901141988
52,9,23,Ticks_Phase_5,319,5,42,127,1901179388
52,9,23,Ticks_Phase_5,320,1,48,40,1901676344
52,9,23,Ticks_Phase_5,321,5,42,127,1901680052
52,9,23,Ticks_Phase_5,322,5,42,127,1902179672
52,9,23,Ticks_Phase_5,323,1,48,43,1902207508
52,9,23,Ticks_Phase_5,324,5,42,127,1902679508
52,9,23,Ticks_Phase_5,325,1,48,36,1902697524
52,9,23,Ticks_Phase_5,326,1,48,39,1903165076
52,9,23,Ticks_Phase_5,327,5,42,127,1903179188
52,9,23,Ticks_Phase_5,328,5,42,127,1903679932
52,9,23,Ticks_Phase_5,329,1,48,44,1903697212
52,9,23,Ticks_Phase_5,330,5,42,127,1904179472
52,9,23,Ticks_Phase_5,331,1,48,40,1904180436
52,9,23,Ticks_Phase_5,332,5,42,127,1904679236
52,9,23,Ticks_Phase_5,333,1,48,37,1904691492
52,9,23,Ticks_Phase_5,334,1,48,39,1905173488
52,9,23,Ticks_Phase_5,335,5,42,127,1905179888
52,9,23,Ticks_Phase_5,0,9999,9999,9999,1820627016
52,9,23,Ticks_Phase_5,1,9999,9999,9999,1821127772
52,9,23,Ticks_Phase_5,2,9999,9999,9999,1821627460
52,9,23,Ticks_Phase_5,3,9999,9999,9999,1822127168
52,9,23,Ticks_Phase_5,4,9999,9999,9999,1822626872
52,9,23,Ticks_Phase_5,5,9999,9999,9999,1823127608
52,9,23,Ticks_Phase_5,6,9999,9999,9999,1823627376
52,9,23,Ticks_Phase_5,7,9999,9999,9999,1824127064
52,9,23,Ticks_Phase_5,8,9999,9999,9999,1824627800
52,9,23,Ticks_Phase_5,9,9999,9999,9999,1825137744
52,9,23,Ticks_Phase_5,10,9999,9999,9999,1825637436
52,9,23,Ticks_Phase_5,11,9999,9999,9999,1826137196
52,9,23,Ticks_Phase_5,12,9999,9999,9999,1826636884
52,9,23,Ticks_Phase_5,13,9999,9999,9999,1827137612
52,9,23,Ticks_Phase_5,14,9999,9999,9999,1827637308
52,9,23,Ticks_Phase_5,15,9999,9999,9999,1828137072
52,9,23,Ticks_Phase_5,16,9999,9999,9999,1828637804
52,9,23,Ticks_Phase_5,17,9999,9999,9999,1829137488
52,9,23,Ticks_Phase_5,18,9999,9999,9999,1829637180
52,9,23,Ticks_Phase_5,19,9999,9999,9999,1830136940
52,9,23,Ticks_Phase_5,20,9999,9999,9999,1830637680
52,9,23,Ticks_Phase_5,21,9999,9999,9999,1831137364
52,9,23,Ticks_Phase_5,22,9999,9999,9999,1831637056
52,9,23,Ticks_Phase_5,23,9999,9999,9999,1832136812
52,9,23,Ticks_Phase_5,24,9999,9999,9999,1832637548
52,9,23,Ticks_Phase_5,25,9999,9999,9999,1833137212
52,9,23,Ticks_Phase_5,26,9999,9999,9999,1833636976
52,9,23,Ticks_Phase_5,27,9999,9999,9999,1834137712
52,9,23,Ticks_Phase_5,28,9999,9999,9999,1834637396
52,9,23,Ticks_Phase_5,29,9999,9999,9999,1835137088
52,9,23,Ticks_Phase_5,30,9999,9999,9999,1835627644
52,9,23,Ticks_Phase_5,31,9999,9999,9999,1836127324
52,9,23,Ticks_Phase_5,32,9999,9999,9999,1836627016
52,9,23,Ticks_Phase_5,33,9999,9999,9999,1837127748
52,9,23,Ticks_Phase_5,34,9999,9999,9999,1837627512
52,9,23,Ticks_Phase_5,35,9999,9999,9999,1838127204
52,9,23,Ticks_Phase_5,36,9999,9999,9999,1838626892
52,9,23,Ticks_Phase_5,37,9999,9999,9999,1839127624
52,9,23,Ticks_Phase_5,38,9999,9999,9999,1839627384
52,9,23,Ticks_Phase_5,39,9999,9999,9999,1840127080
52,9,23,Ticks_Phase_5,40,9999,9999,9999,1840627812
52,9,23,Ticks_Phase_5,41,9999,9999,9999,1841137760
52,9,23,Ticks_Phase_5,42,9999,9999,9999,1841637452
52,9,23,Ticks_Phase_5,43,9999,9999,9999,1842137212
52,9,23,Ticks_Phase_5,44,9999,9999,9999,1842636872
52,9,23,Ticks_Phase_5,45,9999,9999,9999,1843137604
52,9,23,Ticks_Phase_5,46,9999,9999,9999,1843637348
52,9,23,Ticks_Phase_5,47,9999,9999,9999,1844137036
52,9,23,Ticks_Phase_5,48,9999,9999,9999,1844646984
52,9,23,Ticks_Phase_5,49,9999,9999,9999,1845147720
52,9,23,Ticks_Phase_5,50,9999,9999,9999,1845647484
52,9,23,Ticks_Phase_5,51,9999,9999,9999,1846147168
52,9,23,Ticks_Phase_5,52,9999,9999,9999,1846646856
52,9,23,Ticks_Phase_5,53,9999,9999,9999,1847147592
52,9,23,Ticks_Phase_5,54,9999,9999,9999,1847647352
52,9,23,Ticks_Phase_5,55,9999,9999,9999,1848147036
52,9,23,Ticks_Phase_5,56,9999,9999,9999,1848647772
52,9,23,Ticks_Phase_5,57,9999,9999,9999,1849147460
52,9,23,Ticks_Phase_5,58,9999,9999,9999,1849647220
52,9,23,Ticks_Phase_5,59,9999,9999,9999,1850146916
52,9,23,Ticks_Phase_5,60,9999,9999,9999,1850647652
52,9,23,Ticks_Phase_5,61,9999,9999,9999,1851147340
52,9,23,Ticks_Phase_5,62,9999,9999,9999,1851647100
52,9,23,Ticks_Phase_5,63,9999,9999,9999,1852147840
52,9,23,Ticks_Phase_5,64,9999,9999,9999,1852677176
52,9,23,Ticks_Phase_5,65,9999,9999,9999,1853176940
52,9,23,Ticks_Phase_5,66,9999,9999,9999,1853677676
52,9,23,Ticks_Phase_5,67,9999,9999,9999,1854177368
52,9,23,Ticks_Phase_5,68,9999,9999,9999,1854677060
52,9,23,Ticks_Phase_5,69,9999,9999,9999,1855176820
52,9,23,Ticks_Phase_5,70,9999,9999,9999,1855677556
52,9,23,Ticks_Phase_5,71,9999,9999,9999,1856177220
52,9,23,Ticks_Phase_5,72,9999,9999,9999,1856676984
52,9,23,Ticks_Phase_5,73,9999,9999,9999,1857177720
52,9,23,Ticks_Phase_5,74,9999,9999,9999,1857677408
52,9,23,Ticks_Phase_5,75,9999,9999,9999,1858177088
52,9,23,Ticks_Phase_5,76,9999,9999,9999,1858676852
52,9,23,Ticks_Phase_5,77,9999,9999,9999,1859177588
52,9,23,Ticks_Phase_5,78,9999,9999,9999,1859677276
52,9,23,Ticks_Phase_5,79,9999,9999,9999,1860176972
52,9,23,Ticks_Phase_5,80,9999,9999,9999,1860677704
52,9,23,Ticks_Phase_5,81,9999,9999,9999,1861156948
52,9,23,Ticks_Phase_5,82,9999,9999,9999,1861657684
52,9,23,Ticks_Phase_5,83,9999,9999,9999,1862157372
52,9,23,Ticks_Phase_5,84,9999,9999,9999,1862657128
52,9,23,Ticks_Phase_5,85,9999,9999,9999,1863156820
52,9,23,Ticks_Phase_5,86,9999,9999,9999,1863657560
52,9,23,Ticks_Phase_5,87,9999,9999,9999,1864157248
52,9,23,Ticks_Phase_5,88,9999,9999,9999,1864657012
52,9,23,Ticks_Phase_5,89,9999,9999,9999,1865157740
52,9,23,Ticks_Phase_5,90,9999,9999,9999,1865657404
52,9,23,Ticks_Phase_5,91,9999,9999,9999,1866157168
52,9,23,Ticks_Phase_5,92,9999,9999,9999,1866656860
52,9,23,Ticks_Phase_5,93,9999,9999,9999,1867157588
52,9,23,Ticks_Phase_5,94,9999,9999,9999,1867657280
52,9,23,Ticks_Phase_5,95,9999,9999,9999,1868157048
52,9,23,Ticks_Phase_5,96,9999,9999,9999,1868657784
52,9,23,Ticks_Phase_5,97,9999,9999,9999,1869107296
52,9,23,Ticks_Phase_5,98,9999,9999,9999,1869606980
52,9,23,Ticks_Phase_5,99,9999,9999,9999,1870107712
52,9,23,Ticks_Phase_5,100,9999,9999,9999,1870607476
52,9,23,Ticks_Phase_5,101,9999,9999,9999,1871107164
52,9,23,Ticks_Phase_5,102,9999,9999,9999,1871606852
52,9,23,Ticks_Phase_5,103,9999,9999,9999,1872107592
52,9,23,Ticks_Phase_5,104,9999,9999,9999,1872607356
52,9,23,Ticks_Phase_5,105,9999,9999,9999,1873107044
52,9,23,Ticks_Phase_5,106,9999,9999,9999,1873607780
52,9,23,Ticks_Phase_5,107,9999,9999,9999,1874107460
52,9,23,Ticks_Phase_5,108,9999,9999,9999,1874607200
52,9,23,Ticks_Phase_5,109,9999,9999,9999,1875106888
52,9,23,Ticks_Phase_5,110,9999,9999,9999,1875607660
52,9,23,Ticks_Phase_5,111,9999,9999,9999,1876107352
52,9,23,Ticks_Phase_5,112,9999,9999,9999,1876607080
52,9,23,Ticks_Phase_5,113,9999,9999,9999,1877107812
52,9,23,Ticks_Phase_5,114,9999,9999,9999,1877666880
52,9,23,Ticks_Phase_5,115,9999,9999,9999,1878167624
52,9,23,Ticks_Phase_5,116,9999,9999,9999,1878667388
52,9,23,Ticks_Phase_5,117,9999,9999,9999,1879167076
52,9,23,Ticks_Phase_5,118,9999,9999,9999,1879667812
52,9,23,Ticks_Phase_5,119,9999,9999,9999,1880177756
52,9,23,Ticks_Phase_5,120,9999,9999,9999,1880677444
52,9,23,Ticks_Phase_5,121,9999,9999,9999,1881177208
52,9,23,Ticks_Phase_5,122,9999,9999,9999,1881676888
52,9,23,Ticks_Phase_5,123,9999,9999,9999,1882177624
52,9,23,Ticks_Phase_5,124,9999,9999,9999,1882677316
52,9,23,Ticks_Phase_5,125,9999,9999,9999,1883177076
52,9,23,Ticks_Phase_5,126,9999,9999,9999,1883677816
52,9,23,Ticks_Phase_5,127,9999,9999,9999,1884177504
52,9,23,Ticks_Phase_5,128,9999,9999,9999,1884677188
52,9,23,Ticks_Phase_5,129,9999,9999,9999,1885176952
52,9,23,Ticks_Phase_5,130,9999,9999,9999,1885677692
52,9,23,Ticks_Phase_5,131,9999,9999,9999,1886277708
52,9,23,Ticks_Phase_5,132,9999,9999,9999,1886777420
52,9,23,Ticks_Phase_5,133,9999,9999,9999,1887277180
52,9,23,Ticks_Phase_5,134,9999,9999,9999,1887776868
52,9,23,Ticks_Phase_5,135,9999,9999,9999,1888277600
52,9,23,Ticks_Phase_5,136,9999,9999,9999,1888777288
52,9,23,Ticks_Phase_5,137,9999,9999,9999,1889277052
52,9,23,Ticks_Phase_5,138,9999,9999,9999,1889777784
52,9,23,Ticks_Phase_5,139,9999,9999,9999,1890277480
52,9,23,Ticks_Phase_5,140,9999,9999,9999,1890777168
52,9,23,Ticks_Phase_5,141,9999,9999,9999,1891276860
52,9,23,Ticks_Phase_5,142,9999,9999,9999,1891777592
52,9,23,Ticks_Phase_5,143,9999,9999,9999,1892277332
52,9,23,Ticks_Phase_5,144,9999,9999,9999,1892777012
52,9,23,Ticks_Phase_5,145,9999,9999,9999,1893277820
52,9,23,Ticks_Phase_5,146,9999,9999,9999,1893777512
52,9,23,Ticks_Phase_5,147,9999,9999,9999,1894277200
52,9,23,Ticks_Phase_5,148,9999,9999,9999,1894776896
52,9,23,Ticks_Phase_5,149,9999,9999,9999,1895277632
52,9,23,Ticks_Phase_5,150,9999,9999,9999,1895677044
52,9,23,Ticks_Phase_5,151,9999,9999,9999,1896177780
52,9,23,Ticks_Phase_5,152,9999,9999,9999,1896677464
52,9,23,Ticks_Phase_5,153,9999,9999,9999,1897177156
52,9,23,Ticks_Phase_5,154,9999,9999,9999,1897676916
52,9,23,Ticks_Phase_5,155,9999,9999,9999,1898177656
52,9,23,Ticks_Phase_5,156,9999,9999,9999,1898677324
52,9,23,Ticks_Phase_5,157,9999,9999,9999,1899177084
52,9,23,Ticks_Phase_5,158,9999,9999,9999,1899677820
52,9,23,Ticks_Phase_5,159,9999,9999,9999,1900177504
52,9,23,Ticks_Phase_5,160,9999,9999,9999,1900677192
52,9,23,Ticks_Phase_5,161,9999,9999,9999,1901176952
52,9,23,Ticks_Phase_5,162,9999,9999,9999,1901677688
52,9,23,Ticks_Phase_5,163,9999,9999,9999,1902177384
52,9,23,Ticks_Phase_5,164,9999,9999,9999,1902677072
52,9,23,Ticks_Phase_5,165,9999,9999,9999,1903176828
52,9,23,Ticks_Phase_5,166,9999,9999,9999,1903677492
52,9,23,Ticks_Phase_5,167,9999,9999,9999,1904177256
52,9,23,Ticks_Phase_5,168,9999,9999,9999,1904676948
52,9,23,Ticks_Phase_5,169,9999,9999,9999,1905177672
52,10,22,Ticks_Phase_8,0,5,42,127,1916987804
52,10,22,Ticks_Phase_8,1,5,42,127,1917787536
52,10,22,Ticks_Phase_8,2,5,42,127,1918587200
52,10,22,Ticks_Phase_8,3,5,42,127,1919387904
52,10,22,Ticks_Phase_8,4,1,48,49,1920171724
52,10,22,Ticks_Phase_8,5,5,42,127,1920187804
52,10,22,Ticks_Phase_8,6,1,48,45,1920932568
52,10,22,Ticks_Phase_8,7,5,42,127,1920987664
52,10,22,Ticks_Phase_8,8,1,48,43,1921738520
52,10,22,Ticks_Phase_8,9,5,42,127,1921787228
52,10,22,Ticks_Phase_8,10,5,42,127,1922587992
52,10,22,Ticks_Phase_8,11,1,48,38,1922594328
52,10,22,Ticks_Phase_8,12,5,42,127,1923387852
52,10,22,Ticks_Phase_8,13,1,48,42,1923399432
52,10,22,Ticks_Phase_8,14,5,42,127,1924187640
52,10,22,Ticks_Phase_8,15,1,48,38,1924217496
52,10,22,Ticks_Phase_8,16,5,42,127,1924987424
52,10,22,Ticks_Phase_8,17,1,48,47,1925007996
52,10,22,Ticks_Phase_8,18,5,42,127,1925787960
52,10,22,Ticks_Phase_8,19,1,48,43,1925788928
52,10,22,Ticks_Phase_8,20,5,42,127,1926587700
52,10,22,Ticks_Phase_8,21,1,48,48,1926617484
52,10,22,Ticks_Phase_8,22,1,48,43,1927387108
52,10,22,Ticks_Phase_8,23,5,42,127,1927388600
52,10,22,Ticks_Phase_8,24,5,42,127,1928187644
52,10,22,Ticks_Phase_8,25,1,48,45,1928218400
52,10,22,Ticks_Phase_8,26,1,48,38,1928968824
52,10,22,Ticks_Phase_8,27,5,42,127,1928988024
52,10,22,Ticks_Phase_8,28,1,48,43,1929764708
52,10,22,Ticks_Phase_8,29,5,42,127,1929787736
52,10,22,Ticks_Phase_8,30,1,48,43,1930565244
52,10,22,Ticks_Phase_8,31,5,42,127,1930587448
52,10,22,Ticks_Phase_8,32,5,42,127,1931387536
52,10,22,Ticks_Phase_8,33,1,48,44,1931391108
52,10,22,Ticks_Phase_8,34,1,48,42,1932177032
52,10,22,Ticks_Phase_8,35,5,42,127,1932188212
52,10,22,Ticks_Phase_8,36,1,48,45,1932982504
52,10,22,Ticks_Phase_8,37,5,42,127,1932987776
52,10,22,Ticks_Phase_8,38,1,48,42,1933770240
52,10,22,Ticks_Phase_8,39,5,42,127,1933787492
52,10,22,Ticks_Phase_8,40,5,42,127,1934587360
52,10,22,Ticks_Phase_8,41,1,48,43,1934597448
52,10,22,Ticks_Phase_8,42,5,42,127,1935388116
52,10,22,Ticks_Phase_8,43,1,48,47,1935416852
52,10,22,Ticks_Phase_8,44,1,48,46,1936163224
52,10,22,Ticks_Phase_8,45,5,42,127,1936187672
52,10,22,Ticks_Phase_8,46,1,48,40,1936950132
52,10,22,Ticks_Phase_8,47,5,42,127,1936987532
52,10,22,Ticks_Phase_8,48,1,48,45,1937780400
52,10,22,Ticks_Phase_8,49,5,42,127,1937787172
52,10,22,Ticks_Phase_8,50,1,48,46,1938581612
52,10,22,Ticks_Phase_8,51,5,42,127,1938588228
52,10,22,Ticks_Phase_8,52,5,42,127,1939387748
52,10,22,Ticks_Phase_8,53,1,48,44,1939390572
52,10,22,Ticks_Phase_8,54,5,42,127,1940187608
52,10,22,Ticks_Phase_8,55,1,48,39,1940197624
52,10,22,Ticks_Phase_8,56,5,42,127,1940967924
52,10,22,Ticks_Phase_8,57,1,48,43,1940997032
52,10,22,Ticks_Phase_8,58,1,48,46,1941734572
52,10,22,Ticks_Phase_8,59,5,42,127,1941767632
52,10,22,Ticks_Phase_8,60,1,48,45,1942538108
52,10,22,Ticks_Phase_8,61,5,42,127,1942567268
52,10,22,Ticks_Phase_8,62,1,48,45,1943348752
52,10,22,Ticks_Phase_8,63,5,42,127,1943368176
52,10,22,Ticks_Phase_8,64,5,42,127,1944167896
52,10,22,Ticks_Phase_8,65,1,48,48,1944187716
52,10,22,Ticks_Phase_8,66,1,48,47,1944936648
52,10,22,Ticks_Phase_8,67,5,42,127,1944967452
52,10,22,Ticks_Phase_8,68,1,48,46,1945763984
52,10,22,Ticks_Phase_8,69,5,42,127,1945767240
52,10,22,Ticks_Phase_8,70,1,48,44,1946556616
52,10,22,Ticks_Phase_8,71,5,42,127,1946568172
52,10,22,Ticks_Phase_8,72,1,48,50,1947354596
52,10,22,Ticks_Phase_8,73,5,42,127,1947368032
52,10,22,Ticks_Phase_8,74,1,48,46,1948145860
52,10,22,Ticks_Phase_8,75,5,42,127,1948167672
52,10,22,Ticks_Phase_8,76,1,48,45,1948947812
52,10,22,Ticks_Phase_8,77,5,42,127,1948967308
52,10,22,Ticks_Phase_8,78,1,48,47,1949729696
52,10,22,Ticks_Phase_8,79,5,42,127,1949767992
52,10,22,Ticks_Phase_8,80,1,48,47,1950544984
52,10,22,Ticks_Phase_8,81,5,42,127,1950567928
52,10,22,Ticks_Phase_8,82,5,42,127,1951367648
52,10,22,Ticks_Phase_8,83,1,48,47,1951372340
52,10,22,Ticks_Phase_8,84,1,48,43,1952159388
52,10,22,Ticks_Phase_8,85,5,42,127,1952167128
52,10,22,Ticks_Phase_8,86,1,48,46,1952954624
52,10,22,Ticks_Phase_8,87,5,42,127,1952967912
52,10,22,Ticks_Phase_8,88,5,42,127,1953767852
52,10,22,Ticks_Phase_8,89,1,48,47,1953789100
52,10,22,Ticks_Phase_8,90,1,48,47,1954542668
52,10,22,Ticks_Phase_8,91,5,42,127,1954567932
52,10,22,Ticks_Phase_8,92,1,48,46,1955340132
52,10,22,Ticks_Phase_8,93,5,42,127,1955387940
52,10,22,Ticks_Phase_8,94,1,48,40,1956143140
52,10,22,Ticks_Phase_8,95,5,42,127,1956187504
52,10,22,Ticks_Phase_8,96,1,48,39,1956976180
52,10,22,Ticks_Phase_8,97,5,42,127,1956987140
52,10,22,Ticks_Phase_8,98,1,48,40,1957756420
52,10,22,Ticks_Phase_8,99,5,42,127,1957788048
52,10,22,Ticks_Phase_8,100,1,48,46,1958545728
52,10,22,Ticks_Phase_8,101,5,42,127,1958587712
52,10,22,Ticks_Phase_8,102,1,48,44,1959374356
52,10,22,Ticks_Phase_8,103,5,42,127,1959387720
52,10,22,Ticks_Phase_8,104,1,48,46,1960167408
52,10,22,Ticks_Phase_8,105,5,42,127,1960187208
52,10,22,Ticks_Phase_8,106,1,48,44,1960949000
52,10,22,Ticks_Phase_8,107,5,42,127,1960987892
52,10,22,Ticks_Phase_8,108,5,42,127,1961787612
52,10,22,Ticks_Phase_8,109,1,48,36,1961806240
52,10,22,Ticks_Phase_8,110,5,42,127,1962587620
52,10,22,Ticks_Phase_8,111,1,48,43,1962606624
52,10,22,Ticks_Phase_8,112,1,48,48,1963371196
52,10,22,Ticks_Phase_8,113,5,42,127,1963387252
52,10,22,Ticks_Phase_8,114,5,42,127,1964188092
52,10,22,Ticks_Phase_8,115,1,48,48,1964201176
52,10,22,Ticks_Phase_8,116,5,42,127,1964987752
52,10,22,Ticks_Phase_8,117,1,48,47,1965013856
52,10,22,Ticks_Phase_8,118,1,48,48,1965776724
52,10,22,Ticks_Phase_8,119,5,42,127,1965787460
52,10,22,Ticks_Phase_8,120,1,48,46,1966573280
52,10,22,Ticks_Phase_8,121,5,42,127,1966587468
52,10,22,Ticks_Phase_8,122,5,42,127,1967388084
52,10,22,Ticks_Phase_8,123,1,48,41,1967394960
52,10,22,Ticks_Phase_8,124,1,48,42,1968179528
52,10,22,Ticks_Phase_8,125,5,42,127,1968227780
52,10,22,Ticks_Phase_8,126,5,42,127,1969027576
52,10,22,Ticks_Phase_8,127,1,48,45,1969051436
52,10,22,Ticks_Phase_8,128,1,48,42,1969804928
52,10,22,Ticks_Phase_8,129,5,42,127,1969827280
52,10,22,Ticks_Phase_8,130,1,48,40,1970583148
52,10,22,Ticks_Phase_8,131,5,42,127,1970627916
52,10,22,Ticks_Phase_8,132,1,48,46,1971416072
52,10,22,Ticks_Phase_8,133,5,42,127,1971427628
52,10,22,Ticks_Phase_8,134,5,42,127,1972227492
52,10,22,Ticks_Phase_8,135,1,48,42,1972251280
52,10,22,Ticks_Phase_8,136,5,42,127,1973027356
52,10,22,Ticks_Phase_8,137,1,48,37,1973036768
52,10,22,Ticks_Phase_8,138,5,42,127,1973828188
52,10,22,Ticks_Phase_8,139,1,48,43,1973858868
52,10,22,Ticks_Phase_8,140,1,48,37,1974582556
52,10,22,Ticks_Phase_8,141,5,42,127,1974627672
52,10,22,Ticks_Phase_8,142,5,42,127,1975427388
52,10,22,Ticks_Phase_8,143,1,48,41,1975434324
52,10,22,Ticks_Phase_8,144,1,48,34,1976185956
52,10,22,Ticks_Phase_8,145,5,42,127,1976227316
52,10,22,Ticks_Phase_8,146,1,48,50,1977021856
52,10,22,Ticks_Phase_8,147,5,42,127,1977027952
52,10,22,Ticks_Phase_8,148,5,42,127,1977827596
52,10,22,Ticks_Phase_8,149,1,48,43,1977849812
52,10,22,Ticks_Phase_8,150,5,42,127,1978627308
52,10,22,Ticks_Phase_8,151,1,48,43,1978643080
52,10,22,Ticks_Phase_8,152,5,42,127,1979427168
52,10,22,Ticks_Phase_8,153,1,48,43,1979446240
52,10,22,Ticks_Phase_8,154,1,48,45,1980220780
52,10,22,Ticks_Phase_8,155,5,42,127,1980227920
52,10,22,Ticks_Phase_8,156,1,48,48,1981020192
52,10,22,Ticks_Phase_8,157,5,42,127,1981027784
52,10,22,Ticks_Phase_8,158,5,42,127,1981787512
52,10,22,Ticks_Phase_8,159,1,48,49,1981841256
52,10,22,Ticks_Phase_8,160,5,42,127,1982587448
52,10,22,Ticks_Phase_8,161,1,48,43,1982625472
52,10,22,Ticks_Phase_8,162,5,42,127,1983387984
52,10,22,Ticks_Phase_8,163,1,48,39,1983418016
52,10,22,Ticks_Phase_8,164,1,48,47,1984160928
52,10,22,Ticks_Phase_8,165,5,42,127,1984187860
52,10,22,Ticks_Phase_8,166,1,48,41,1984952496
52,10,22,Ticks_Phase_8,167,5,42,127,1984987500
52,10,22,Ticks_Phase_8,168,1,48,44,1985725556
52,10,22,Ticks_Phase_8,169,5,42,127,1985787212
52,10,22,Ticks_Phase_8,170,1,48,46,1986567948
52,10,22,Ticks_Phase_8,171,5,42,127,1986588044
52,10,22,Ticks_Phase_8,172,5,42,127,1987388060
52,10,22,Ticks_Phase_8,173,1,48,43,1987399268
52,10,22,Ticks_Phase_8,174,1,48,43,1988169540
52,10,22,Ticks_Phase_8,175,5,42,127,1988187468
52,10,22,Ticks_Phase_8,176,1,48,38,1988969324
52,10,22,Ticks_Phase_8,177,5,42,127,1988987180
52,10,22,Ticks_Phase_8,178,1,48,46,1989707784
52,10,22,Ticks_Phase_8,179,5,42,127,1989788084
52,10,22,Ticks_Phase_8,180,5,42,127,1990587904
52,10,22,Ticks_Phase_8,181,1,48,45,1990602552
52,10,22,Ticks_Phase_8,182,5,42,127,1991387616
52,10,22,Ticks_Phase_8,183,1,48,43,1991397704
52,10,22,Ticks_Phase_8,184,1,48,41,1992187104
52,10,22,Ticks_Phase_8,185,5,42,127,1992188588
52,10,22,Ticks_Phase_8,186,1,48,34,1992947768
52,10,22,Ticks_Phase_8,187,5,42,127,1992988004
52,10,22,Ticks_Phase_8,188,1,48,51,1993765228
52,10,22,Ticks_Phase_8,189,5,42,127,1993787716
52,10,22,Ticks_Phase_8,190,5,42,127,1994507532
52,10,22,Ticks_Phase_8,191,1,48,43,1994582912
52,10,22,Ticks_Phase_8,192,1,48,43,1995271336
52,10,22,Ticks_Phase_8,193,5,42,127,1995307460
52,10,22,Ticks_Phase_8,194,1,48,42,1996041688
52,10,22,Ticks_Phase_8,195,5,42,127,1996107248
52,10,22,Ticks_Phase_8,196,1,48,43,1996902204
52,10,22,Ticks_Phase_8,197,5,42,127,1996907928
52,10,22,Ticks_Phase_8,198,5,42,127,1997707500
52,10,22,Ticks_Phase_8,199,1,48,50,1997758796
52,10,22,Ticks_Phase_8,200,1,48,43,1998493092
52,10,22,Ticks_Phase_8,201,5,42,127,1998507428
52,10,22,Ticks_Phase_8,202,1,48,46,1999254980
52,10,22,Ticks_Phase_8,203,5,42,127,1999307164
52,10,22,Ticks_Phase_8,204,1,48,46,2000092612
52,10,22,Ticks_Phase_8,205,5,42,127,2000107848
52,10,22,Ticks_Phase_8,206,5,42,127,2000907788
52,10,22,Ticks_Phase_8,207,1,48,43,2000914576
52,10,22,Ticks_Phase_8,208,1,48,51,2001687772
52,10,22,Ticks_Phase_8,209,5,42,127,2001707420
52,10,22,Ticks_Phase_8,210,1,48,50,2002506684
52,10,22,Ticks_Phase_8,211,5,42,127,2002508104
52,10,22,Ticks_Phase_8,212,5,42,127,2003307824
52,10,22,Ticks_Phase_8,213,1,48,47,2003322924
52,10,22,Ticks_Phase_8,214,5,42,127,2004107684
52,10,22,Ticks_Phase_8,215,1,48,41,2004126764
52,10,22,Ticks_Phase_8,216,1,48,49,2004902560
52,10,22,Ticks_Phase_8,217,5,42,127,2004907460
52,10,22,Ticks_Phase_8,218,5,42,127,2005707132
52,10,22,Ticks_Phase_8,219,1,48,46,2005724400
52,10,22,Ticks_Phase_8,220,5,42,127,2006507888
52,10,22,Ticks_Phase_8,221,1,48,50,2006536552
52,10,22,Ticks_Phase_8,222,1,48,50,2007274836
52,10,22,Ticks_Phase_8,223,5,42,127,2007307668
52,10,22,Ticks_Phase_8,224,1,48,47,2008068340
52,10,22,Ticks_Phase_8,225,5,42,127,2008187420
52,10,22,Ticks_Phase_8,226,1,48,38,2008960684
52,10,22,Ticks_Phase_8,227,5,42,127,2008988120
52,10,22,Ticks_Phase_8,228,1,48,39,2009733432
52,10,22,Ticks_Phase_8,229,5,42,127,2009787632
52,10,22,Ticks_Phase_8,230,5,42,127,2010587576
52,10,22,Ticks_Phase_8,231,1,48,41,2010589664
52,10,22,Ticks_Phase_8,232,1,48,38,2011371224
52,10,22,Ticks_Phase_8,233,5,42,127,2011387132
52,10,22,Ticks_Phase_8,234,1,48,34,2012175272
52,10,22,Ticks_Phase_8,235,5,42,127,2012188188
52,10,22,Ticks_Phase_8,236,1,48,41,2012967432
52,10,22,Ticks_Phase_8,237,5,42,127,2012987676
52,10,22,Ticks_Phase_8,238,5,42,127,2013787544
52,10,22,Ticks_Phase_8,239,1,48,41,2013796208
52,10,22,Ticks_Phase_8,240,5,42,127,2014587180
52,10,22,Ticks_Phase_8,241,1,48,42,2014604524
52,10,22,Ticks_Phase_8,242,5,42,127,2015388088
52,10,22,Ticks_Phase_8,243,1,48,42,2015411308
52,10,22,Ticks_Phase_8,244,5,42,127,2016187752
52,10,22,Ticks_Phase_8,245,1,48,46,2016202324
52,10,22,Ticks_Phase_8,246,5,42,127,2016987388
52,10,22,Ticks_Phase_8,247,1,48,48,2017019564
52,10,22,Ticks_Phase_8,248,1,48,49,2017772908
52,10,22,Ticks_Phase_8,249,5,42,127,2017787244
52,10,22,Ticks_Phase_8,250,5,42,127,2018588232
52,10,22,Ticks_Phase_8,251,1,48,45,2018594640
52,10,22,Ticks_Phase_8,252,1,48,44,2019365300
52,10,22,Ticks_Phase_8,253,5,42,127,2019387788
52,10,22,Ticks_Phase_8,254,1,48,45,2020183940
52,10,22,Ticks_Phase_8,255,5,42,127,2020187572
52,10,22,Ticks_Phase_8,256,1,48,42,2020985400
52,10,22,Ticks_Phase_8,257,5,42,127,2020987212
52,10,22,Ticks_Phase_8,258,1,48,38,2021794904
52,10,22,Ticks_Phase_8,259,5,42,127,2021947940
52,10,22,Ticks_Phase_8,260,5,42,127,2022747524
52,10,22,Ticks_Phase_8,261,1,48,36,2022796780
52,10,22,Ticks_Phase_8,262,5,42,127,2023547384
52,10,22,Ticks_Phase_8,263,1,48,35,2023552152
52,10,22,Ticks_Phase_8,264,1,48,42,2024317184
52,10,22,Ticks_Phase_8,265,5,42,127,2024347912
52,10,22,Ticks_Phase_8,266,1,48,42,2025146064
52,10,22,Ticks_Phase_8,267,5,42,127,2025147724
52,10,22,Ticks_Phase_8,268,5,42,127,2025947444
52,10,22,Ticks_Phase_8,269,1,48,35,2025955196
52,10,22,Ticks_Phase_8,270,1,48,38,2026728624
52,10,22,Ticks_Phase_8,271,5,42,127,2026747224
52,10,22,Ticks_Phase_8,272,5,42,127,2027547992
52,10,22,Ticks_Phase_8,273,1,48,42,2027549932
52,10,22,Ticks_Phase_8,274,5,42,127,2028347700
52,10,22,Ticks_Phase_8,275,1,48,40,2028351344
52,10,22,Ticks_Phase_8,276,5,42,127,2029147640
52,10,22,Ticks_Phase_8,277,1,48,38,2029170980
52,10,22,Ticks_Phase_8,278,1,48,40,2029919904
52,10,22,Ticks_Phase_8,279,5,42,127,2029947120
52,10,22,Ticks_Phase_8,280,1,48,39,2030744396
52,10,22,Ticks_Phase_8,281,5,42,127,2030748028
52,10,22,Ticks_Phase_8,282,5,42,127,2031547696
52,10,22,Ticks_Phase_8,283,1,48,41,2031568488
52,10,22,Ticks_Phase_8,284,5,42,127,2032347480
52,10,22,Ticks_Phase_8,285,1,48,41,2032354344
52,10,22,Ticks_Phase_8,286,5,42,127,2033147344
52,10,22,Ticks_Phase_8,287,1,48,40,2033186636
52,10,22,Ticks_Phase_8,288,1,48,38,2033930324
52,10,22,Ticks_Phase_8,289,5,42,127,2033947872
52,10,22,Ticks_Phase_8,290,5,42,127,2034747888
52,10,22,Ticks_Phase_8,291,1,48,41,2034760444
52,10,22,Ticks_Phase_8,292,5,42,127,2035547748
52,10,22,Ticks_Phase_8,293,1,48,46,2035554688
52,10,22,Ticks_Phase_8,294,1,48,43,2036331324
52,10,22,Ticks_Phase_8,295,5,42,127,2036347456
52,10,22,Ticks_Phase_8,296,5,42,127,2036987588
52,10,22,Ticks_Phase_8,297,1,48,46,2037132696
52,10,22,Ticks_Phase_8,298,5,42,127,2037788052
52,10,22,Ticks_Phase_8,299,1,48,36,2037993160
52,10,22,Ticks_Phase_8,300,5,42,127,2038587764
52,10,22,Ticks_Phase_8,301,1,48,41,2038668016
52,10,22,Ticks_Phase_8,302,1,48,37,2039355988
52,10,22,Ticks_Phase_8,303,5,42,127,2039387540
52,10,22,Ticks_Phase_8,304,1,48,40,2040136976
52,10,22,Ticks_Phase_8,305,5,42,127,2040187476
52,10,22,Ticks_Phase_8,306,1,48,39,2040956904
52,10,22,Ticks_Phase_8,307,5,42,127,2040988160
52,10,22,Ticks_Phase_8,308,1,48,40,2041767032
52,10,22,Ticks_Phase_8,309,5,42,127,2041787752
52,10,22,Ticks_Phase_8,310,1,48,38,2042548040
52,10,22,Ticks_Phase_8,311,5,42,127,2042587388
52,10,22,Ticks_Phase_8,312,1,48,40,2043351200
52,10,22,Ticks_Phase_8,313,5,42,127,2043387472
52,10,22,Ticks_Phase_8,314,1,48,46,2044162812
52,10,22,Ticks_Phase_8,315,5,42,127,2044188156
52,10,22,Ticks_Phase_8,316,1,48,43,2044960652
52,10,22,Ticks_Phase_8,317,5,42,127,2044987644
52,10,22,Ticks_Phase_8,318,5,42,127,2045787436
52,10,22,Ticks_Phase_8,319,1,48,38,2045823204
52,10,22,Ticks_Phase_8,320,1,48,36,2046584784
52,10,22,Ticks_Phase_8,321,5,42,127,2046587368
52,10,22,Ticks_Phase_8,322,1,48,37,2047371696
52,10,22,Ticks_Phase_8,323,5,42,127,2047387976
52,10,22,Ticks_Phase_8,324,1,48,38,2048184308
52,10,22,Ticks_Phase_8,325,5,42,127,2048187864
52,10,22,Ticks_Phase_8,326,5,42,127,2048987432
52,10,22,Ticks_Phase_8,327,1,48,32,2048990104
52,10,22,Ticks_Phase_8,328,1,48,37,2049777228
52,10,22,Ticks_Phase_8,329,5,42,127,2049787216
52,10,22,Ticks_Phase_8,330,1,48,37,2050578360
52,10,22,Ticks_Phase_8,331,5,42,127,2050587976
52,10,22,Ticks_Phase_8,332,1,48,39,2051380468
52,10,22,Ticks_Phase_8,333,5,42,127,2051387612
52,10,22,Ticks_Phase_8,334,1,48,36,2052176512
52,10,22,Ticks_Phase_8,335,5,42,127,2052187396
52,10,22,Ticks_Phase_8,0,9999,9999,9999,1916985444
52,10,22,Ticks_Phase_8,1,9999,9999,9999,1917785176
52,10,22,Ticks_Phase_8,2,9999,9999,9999,1918584912
52,10,22,Ticks_Phase_8,3,9999,9999,9999,1919385692
52,10,22,Ticks_Phase_8,4,9999,9999,9999,1920185444
52,10,22,Ticks_Phase_8,5,9999,9999,9999,1920985156
52,10,22,Ticks_Phase_8,6,9999,9999,9999,1921784944
52,10,22,Ticks_Phase_8,7,9999,9999,9999,1922585708
52,10,22,Ticks_Phase_8,8,9999,9999,9999,1923385416
52,10,22,Ticks_Phase_8,9,9999,9999,9999,1924185204
52,10,22,Ticks_Phase_8,10,9999,9999,9999,1924984916
52,10,22,Ticks_Phase_8,11,9999,9999,9999,1925785676
52,10,22,Ticks_Phase_8,12,9999,9999,9999,1926585412
52,10,22,Ticks_Phase_8,13,9999,9999,9999,1927385200
52,10,22,Ticks_Phase_8,14,9999,9999,9999,1928184912
52,10,22,Ticks_Phase_8,15,9999,9999,9999,1928985664
52,10,22,Ticks_Phase_8,16,9999,9999,9999,1929785448
52,10,22,Ticks_Phase_8,17,9999,9999,9999,1930585160
52,10,22,Ticks_Phase_8,18,9999,9999,9999,1931384952
52,10,22,Ticks_Phase_8,19,9999,9999,9999,1932185704
52,10,22,Ticks_Phase_8,20,9999,9999,9999,1932985416
52,10,22,Ticks_Phase_8,21,9999,9999,9999,1933785204
52,10,22,Ticks_Phase_8,22,9999,9999,9999,1934584924
52,10,22,Ticks_Phase_8,23,9999,9999,9999,1935385680
52,10,22,Ticks_Phase_8,24,9999,9999,9999,1936185460
52,10,22,Ticks_Phase_8,25,9999,9999,9999,1936985172
52,10,22,Ticks_Phase_8,26,9999,9999,9999,1937784884
52,10,22,Ticks_Phase_8,27,9999,9999,9999,1938585720
52,10,22,Ticks_Phase_8,28,9999,9999,9999,1939385460
52,10,22,Ticks_Phase_8,29,9999,9999,9999,1940185172
52,10,22,Ticks_Phase_8,30,9999,9999,9999,1940965488
52,10,22,Ticks_Phase_8,31,9999,9999,9999,1941765196
52,10,22,Ticks_Phase_8,32,9999,9999,9999,1942564984
52,10,22,Ticks_Phase_8,33,9999,9999,9999,1943365740
52,10,22,Ticks_Phase_8,34,9999,9999,9999,1944165460
52,10,22,Ticks_Phase_8,35,9999,9999,9999,1944965240
52,10,22,Ticks_Phase_8,36,9999,9999,9999,1945764952
52,10,22,Ticks_Phase_8,37,9999,9999,9999,1946565736
52,10,22,Ticks_Phase_8,38,9999,9999,9999,1947365448
52,10,22,Ticks_Phase_8,39,9999,9999,9999,1948165236
52,10,22,Ticks_Phase_8,40,9999,9999,9999,1948964948
52,10,22,Ticks_Phase_8,41,9999,9999,9999,1949765708
52,10,22,Ticks_Phase_8,42,9999,9999,9999,1950565496
52,10,22,Ticks_Phase_8,43,9999,9999,9999,1951365212
52,10,22,Ticks_Phase_8,44,9999,9999,9999,1952164916
52,10,22,Ticks_Phase_8,45,9999,9999,9999,1952965700
52,10,22,Ticks_Phase_8,46,9999,9999,9999,1953765492
52,10,22,Ticks_Phase_8,47,9999,9999,9999,1954565200
52,10,22,Ticks_Phase_8,48,9999,9999,9999,1955385432
52,10,22,Ticks_Phase_8,49,9999,9999,9999,1956185144
52,10,22,Ticks_Phase_8,50,9999,9999,9999,1956984928
52,10,22,Ticks_Phase_8,51,9999,9999,9999,1957785688
52,10,22,Ticks_Phase_8,52,9999,9999,9999,1958585424
52,10,22,Ticks_Phase_8,53,9999,9999,9999,1959385212
52,10,22,Ticks_Phase_8,54,9999,9999,9999,1960184924
52,10,22,Ticks_Phase_8,55,9999,9999,9999,1960985680
52,10,22,Ticks_Phase_8,56,9999,9999,9999,1961785400
52,10,22,Ticks_Phase_8,57,9999,9999,9999,1962585188
52,10,22,Ticks_Phase_8,58,9999,9999,9999,1963384892
52,10,22,Ticks_Phase_8,59,9999,9999,9999,1964185656
52,10,22,Ticks_Phase_8,60,9999,9999,9999,1964985464
52,10,22,Ticks_Phase_8,61,9999,9999,9999,1965785172
52,10,22,Ticks_Phase_8,62,9999,9999,9999,1966584884
52,10,22,Ticks_Phase_8,63,9999,9999,9999,1967385724
52,10,22,Ticks_Phase_8,64,9999,9999,9999,1968225348
52,10,22,Ticks_Phase_8,65,9999,9999,9999,1969025140
52,10,22,Ticks_Phase_8,66,9999,9999,9999,1969824844
52,10,22,Ticks_Phase_8,67,9999,9999,9999,1970625628
52,10,22,Ticks_Phase_8,68,9999,9999,9999,1971425340
52,10,22,Ticks_Phase_8,69,9999,9999,9999,1972225132
52,10,22,Ticks_Phase_8,70,9999,9999,9999,1973024844
52,10,22,Ticks_Phase_8,71,9999,9999,9999,1973825604
52,10,22,Ticks_Phase_8,72,9999,9999,9999,1974625384
52,10,22,Ticks_Phase_8,73,9999,9999,9999,1975425100
52,10,22,Ticks_Phase_8,74,9999,9999,9999,1976224880
52,10,22,Ticks_Phase_8,75,9999,9999,9999,1977025592
52,10,22,Ticks_Phase_8,76,9999,9999,9999,1977825384
52,10,22,Ticks_Phase_8,77,9999,9999,9999,1978625096
52,10,22,Ticks_Phase_8,78,9999,9999,9999,1979424884
52,10,22,Ticks_Phase_8,79,9999,9999,9999,1980225636
52,10,22,Ticks_Phase_8,80,9999,9999,9999,1981025348
52,10,22,Ticks_Phase_8,81,9999,9999,9999,1981785152
52,10,22,Ticks_Phase_8,82,9999,9999,9999,1982584940
52,10,22,Ticks_Phase_8,83,9999,9999,9999,1983385696
52,10,22,Ticks_Phase_8,84,9999,9999,9999,1984185428
52,10,22,Ticks_Phase_8,85,9999,9999,9999,1984985212
52,10,22,Ticks_Phase_8,86,9999,9999,9999,1985784924
52,10,22,Ticks_Phase_8,87,9999,9999,9999,1986585684
52,10,22,Ticks_Phase_8,88,9999,9999,9999,1987385400
52,10,22,Ticks_Phase_8,89,9999,9999,9999,1988185180
52,10,22,Ticks_Phase_8,90,9999,9999,9999,1988984892
52,10,22,Ticks_Phase_8,91,9999,9999,9999,1989785724
52,10,22,Ticks_Phase_8,92,9999,9999,9999,1990585468
52,10,22,Ticks_Phase_8,93,9999,9999,9999,1991385180
52,10,22,Ticks_Phase_8,94,9999,9999,9999,1992184892
52,10,22,Ticks_Phase_8,95,9999,9999,9999,1992985716
52,10,22,Ticks_Phase_8,96,9999,9999,9999,1993785432
52,10,22,Ticks_Phase_8,97,9999,9999,9999,1994505320
52,10,22,Ticks_Phase_8,98,9999,9999,9999,1995305024
52,10,22,Ticks_Phase_8,99,9999,9999,9999,1996104812
52,10,22,Ticks_Phase_8,100,9999,9999,9999,1996905568
52,10,22,Ticks_Phase_8,101,9999,9999,9999,1997705288
52,10,22,Ticks_Phase_8,102,9999,9999,9999,1998505068
52,10,22,Ticks_Phase_8,103,9999,9999,9999,1999304804
52,10,22,Ticks_Phase_8,104,9999,9999,9999,2000105560
52,10,22,Ticks_Phase_8,105,9999,9999,9999,2000905276
52,10,22,Ticks_Phase_8,106,9999,9999,9999,2001705060
52,10,22,Ticks_Phase_8,107,9999,9999,9999,2002504776
52,10,22,Ticks_Phase_8,108,9999,9999,9999,2003305536
52,10,22,Ticks_Phase_8,109,9999,9999,9999,2004105324
52,10,22,Ticks_Phase_8,110,9999,9999,9999,2004905028
52,10,22,Ticks_Phase_8,111,9999,9999,9999,2005704772
52,10,22,Ticks_Phase_8,112,9999,9999,9999,2006505528
52,10,22,Ticks_Phase_8,113,9999,9999,9999,2007305308
52,10,22,Ticks_Phase_8,114,9999,9999,9999,2008184912
52,10,22,Ticks_Phase_8,115,9999,9999,9999,2008985684
52,10,22,Ticks_Phase_8,116,9999,9999,9999,2009785420
52,10,22,Ticks_Phase_8,117,9999,9999,9999,2010585140
52,10,22,Ticks_Phase_8,118,9999,9999,9999,2011384920
52,10,22,Ticks_Phase_8,119,9999,9999,9999,2012185680
52,10,22,Ticks_Phase_8,120,9999,9999,9999,2012985464
52,10,22,Ticks_Phase_8,121,9999,9999,9999,2013785184
52,10,22,Ticks_Phase_8,122,9999,9999,9999,2014584896
52,10,22,Ticks_Phase_8,123,9999,9999,9999,2015385652
52,10,22,Ticks_Phase_8,124,9999,9999,9999,2016185464
52,10,22,Ticks_Phase_8,125,9999,9999,9999,2016985176
52,10,22,Ticks_Phase_8,126,9999,9999,9999,2017784956
52,10,22,Ticks_Phase_8,127,9999,9999,9999,2018585720
52,10,22,Ticks_Phase_8,128,9999,9999,9999,2019385424
52,10,22,Ticks_Phase_8,129,9999,9999,9999,2020185212
52,10,22,Ticks_Phase_8,130,9999,9999,9999,2020984948
52,10,22,Ticks_Phase_8,131,9999,9999,9999,2021945428
52,10,22,Ticks_Phase_8,132,9999,9999,9999,2022745164
52,10,22,Ticks_Phase_8,133,9999,9999,9999,2023544948
52,10,22,Ticks_Phase_8,134,9999,9999,9999,2024345700
52,10,22,Ticks_Phase_8,135,9999,9999,9999,2025145464
52,10,22,Ticks_Phase_8,136,9999,9999,9999,2025945156
52,10,22,Ticks_Phase_8,137,9999,9999,9999,2026744940
52,10,22,Ticks_Phase_8,138,9999,9999,9999,2027545704
52,10,22,Ticks_Phase_8,139,9999,9999,9999,2028345416
52,10,22,Ticks_Phase_8,140,9999,9999,9999,2029145204
52,10,22,Ticks_Phase_8,141,9999,9999,9999,2029944908
52,10,22,Ticks_Phase_8,142,9999,9999,9999,2030745664
52,10,22,Ticks_Phase_8,143,9999,9999,9999,2031545408
52,10,22,Ticks_Phase_8,144,9999,9999,9999,2032345192
52,10,22,Ticks_Phase_8,145,9999,9999,9999,2033144908
52,10,22,Ticks_Phase_8,146,9999,9999,9999,2033945660
52,10,22,Ticks_Phase_8,147,9999,9999,9999,2034745452
52,10,22,Ticks_Phase_8,148,9999,9999,9999,2035545164
52,10,22,Ticks_Phase_8,149,9999,9999,9999,2036344944
52,10,22,Ticks_Phase_8,150,9999,9999,9999,2036984928
52,10,22,Ticks_Phase_8,151,9999,9999,9999,2037785688
52,10,22,Ticks_Phase_8,152,9999,9999,9999,2038585400
52,10,22,Ticks_Phase_8,153,9999,9999,9999,2039385180
52,10,22,Ticks_Phase_8,154,9999,9999,9999,2040184892
52,10,22,Ticks_Phase_8,155,9999,9999,9999,2040985724
52,10,22,Ticks_Phase_8,156,9999,9999,9999,2041785464
52,10,22,Ticks_Phase_8,157,9999,9999,9999,2042585176
52,10,22,Ticks_Phase_8,158,9999,9999,9999,2043384888
52,10,22,Ticks_Phase_8,159,9999,9999,9999,2044185720
52,10,22,Ticks_Phase_8,160,9999,9999,9999,2044985432
52,10,22,Ticks_Phase_8,161,9999,9999,9999,2045785152
52,10,22,Ticks_Phase_8,162,9999,9999,9999,2046584932
52,10,22,Ticks_Phase_8,163,9999,9999,9999,2047385692
52,10,22,Ticks_Phase_8,164,9999,9999,9999,2048185428
52,10,22,Ticks_Phase_8,165,9999,9999,9999,2048985148
52,10,22,Ticks_Phase_8,166,9999,9999,9999,2049784928
52,10,22,Ticks_Phase_8,167,9999,9999,9999,2050585688
52,10,22,Ticks_Phase_8,168,9999,9999,9999,2051385400
52,10,22,Ticks_Phase_8,169,9999,9999,9999,2052185184
52,11,25,Jits_Pract_5,0,5,56,103,2095736256
52,11,25,Jits_Pract_5,1,5,63,98,2095739280
52,11,25,Jits_Pract_5,2,5,80,127,2095742476
52,11,25,Jits_Pract_5,0,5,56,103,2096236956
52,11,25,Jits_Pract_5,1,5,63,98,2096240204
52,11,25,Jits_Pract_5,2,5,80,127,2096243248
52,11,25,Jits_Pract_5,0,5,56,103,2096736848
52,11,25,Jits_Pract_5,1,5,80,127,2096747044
52,11,25,Jits_Pract_5,2,5,63,98,2096766308
52,11,25,Jits_Pract_5,0,5,63,98,2097186024
52,11,25,Jits_Pract_5,1,5,80,127,2097216748
52,11,25,Jits_Pract_5,2,5,56,103,2097227240
52,11,25,Jits_Pract_5,0,5,80,127,2097746356
52,11,25,Jits_Pract_5,1,5,56,103,2097756552
52,11,25,Jits_Pract_5,2,5,63,98,2097786152
52,11,25,Jits_Pract_5,0,5,63,98,2098236960
52,11,25,Jits_Pract_5,1,5,56,103,2098266636
52,11,25,Jits_Pract_5,2,5,80,127,2098276684
52,11,25,Jits_Pract_5,0,5,56,103,2098686344
52,11,25,Jits_Pract_5,1,5,63,98,2098736472
52,11,25,Jits_Pract_5,2,5,80,127,2098756932
52,11,25,Jits_Pract_5,0,5,80,127,2099186912
52,11,25,Jits_Pract_5,1,5,63,98,2099236068
52,11,25,Jits_Pract_5,2,5,56,103,2099276228
52,11,25,Jits_Pract_5,0,5,56,103,2099686876
52,11,25,Jits_Pract_5,1,5,63,98,2099716404
52,11,25,Jits_Pract_5,2,5,80,127,2099787056
52,11,25,Jits_Pract_5,0,5,56,103,2100186768
52,11,25,Jits_Pract_5,1,5,80,127,2100247012
52,11,25,Jits_Pract_5,2,5,63,98,2100276684
52,11,25,Jits_Pract_5,0,5,56,103,2100696328
52,11,25,Jits_Pract_5,1,5,63,98,2100706748
52,11,25,Jits_Pract_5,2,5,80,127,2100746980
52,11,25,Jits_Pract_5,0,5,63,98,2101186848
52,11,25,Jits_Pract_5,1,5,80,127,2101266796
52,11,25,Jits_Pract_5,2,5,56,103,2101276988
52,11,25,Jits_Pract_5,0,5,63,98,2101736776
52,11,25,Jits_Pract_5,1,5,56,103,2101776632
52,11,25,Jits_Pract_5,2,5,80,127,2101779780
52,11,25,Jits_Pract_5,0,5,56,103,2102196716
52,11,25,Jits_Pract_5,1,5,63,98,2102206836
52,11,25,Jits_Pract_5,2,5,80,127,2102246776
52,11,25,Jits_Pract_5,0,5,56,103,2102687136
52,11,25,Jits_Pract_5,1,5,63,98,2102690128
52,11,25,Jits_Pract_5,2,5,80,127,2102706648
52,11,25,Jits_Pract_5,0,9999,9999,9999,2095984740
52,11,25,Jits_Pract_5,1,9999,9999,9999,2096484464
52,11,25,Jits_Pract_5,2,9999,9999,9999,2096984136
52,11,25,Jits_Pract_5,3,9999,9999,9999,2097483880
52,11,25,Jits_Pract_5,4,9999,9999,9999,2097984580
52,11,25,Jits_Pract_5,5,9999,9999,9999,2098484328
52,11,25,Jits_Pract_5,6,9999,9999,9999,2098984052
52,11,25,Jits_Pract_5,7,9999,9999,9999,2099484768
52,11,25,Jits_Pract_5,8,9999,9999,9999,2099984440
52,11,25,Jits_Pract_5,9,9999,9999,9999,2100484180
52,11,25,Jits_Pract_5,10,9999,9999,9999,2100983920
52,11,25,Jits_Pract_5,11,9999,9999,9999,2101484636
52,11,25,Jits_Pract_5,12,9999,9999,9999,2101984356
52,11,25,Jits_Pract_5,13,9999,9999,9999,2102484084
52,11,25,Jits_Pract_5,14,9999,9999,9999,2102984784
52,12,25,Jits_Pract_5,0,5,56,103,2155564524
52,12,25,Jits_Pract_5,1,5,63,98,2155567772
52,12,25,Jits_Pract_5,2,5,80,127,2155570816
52,12,25,Jits_Pract_5,0,5,56,103,2156065220
52,12,25,Jits_Pract_5,1,5,63,98,2156068240
52,12,25,Jits_Pract_5,2,5,80,127,2156071292
52,12,25,Jits_Pract_5,0,5,56,103,2156564736
52,12,25,Jits_Pract_5,1,5,80,127,2156575308
52,12,25,Jits_Pract_5,2,5,63,98,2156594568
52,12,25,Jits_Pract_5,0,5,63,98,2157014284
52,12,25,Jits_Pract_5,1,5,80,127,2157045084
52,12,25,Jits_Pract_5,2,5,56,103,2157054380
52,12,25,Jits_Pract_5,0,5,80,127,2157574472
52,12,25,Jits_Pract_5,1,5,56,103,2157584744
52,12,25,Jits_Pract_5,2,5,63,98,2157614420
52,12,25,Jits_Pract_5,0,5,63,98,2158065152
52,12,25,Jits_Pract_5,1,5,56,103,2158094832
52,12,25,Jits_Pract_5,2,5,80,127,2158105028
52,12,25,Jits_Pract_5,0,5,56,103,2158514616
52,12,25,Jits_Pract_5,1,5,63,98,2158564600
52,12,25,Jits_Pract_5,2,5,80,127,2158584232
52,12,25,Jits_Pract_5,0,5,80,127,2159014188
52,12,25,Jits_Pract_5,1,5,63,98,2159064468
52,12,25,Jits_Pract_5,2,5,56,103,2159104332
52,12,25,Jits_Pract_5,0,5,56,103,2159515176
52,12,25,Jits_Pract_5,1,1,48,47,2159536832
52,12,25,Jits_Pract_5,2,5,63,98,2159544800
52,12,25,Jits_Pract_5,3,5,80,127,2159614256
52,12,25,Jits_Pract_5,0,5,56,103,2160014660
52,12,25,Jits_Pract_5,1,1,48,45,2160049272
52,12,25,Jits_Pract_5,2,5,80,127,2160075072
52,12,25,Jits_Pract_5,3,5,63,98,2160104896
52,12,25,Jits_Pract_5,0,5,56,103,2160524704
52,12,25,Jits_Pract_5,1,5,63,98,2160534900
52,12,25,Jits_Pract_5,2,5,80,127,2160575088
52,12,25,Jits_Pract_5,3,1,48,43,2160583012
52,12,25,Jits_Pract_5,0,5,63,98,2161014072
52,12,25,Jits_Pract_5,1,1,48,39,2161063720
52,12,25,Jits_Pract_5,2,5,80,127,2161095156
52,12,25,Jits_Pract_5,3,5,56,103,2161104308
52,12,25,Jits_Pract_5,0,1,48,43,2161565304
52,12,25,Jits_Pract_5,1,5,63,98,2161566492
52,12,25,Jits_Pract_5,2,5,56,103,2161604960
52,12,25,Jits_Pract_5,3,5,80,127,2161608028
52,12,25,Jits_Pract_5,0,5,56,103,2162025052
52,12,25,Jits_Pract_5,1,5,63,98,2162035028
52,12,25,Jits_Pract_5,2,5,80,127,2162075116
52,12,25,Jits_Pract_5,3,1,48,38,2162108452
52,12,25,Jits_Pract_5,0,5,56,103,2162514344
52,12,25,Jits_Pract_5,1,5,63,98,2162517484
52,12,25,Jits_Pract_5,2,5,80,127,2162534952
52,12,25,Jits_Pract_5,3,1,48,34,2162538368
52,12,25,Jits_Pract_5,0,9999,9999,9999,2155811960
52,12,25,Jits_Pract_5,1,9999,9999,9999,2156312656
52,12,25,Jits_Pract_5,2,9999,9999,9999,2156812404
52,12,25,Jits_Pract_5,3,9999,9999,9999,2157312068
52,12,25,Jits_Pract_5,4,9999,9999,9999,2157811800
52,12,25,Jits_Pract_5,5,9999,9999,9999,2158312524
52,12,25,Jits_Pract_5,6,9999,9999,9999,2158812252
52,12,25,Jits_Pract_5,7,9999,9999,9999,2159311976
52,12,25,Jits_Pract_5,8,9999,9999,9999,2159812668
52,12,25,Jits_Pract_5,9,9999,9999,9999,2160312376
52,12,25,Jits_Pract_5,10,9999,9999,9999,2160812156
52,12,25,Jits_Pract_5,11,9999,9999,9999,2161311836
52,12,25,Jits_Pract_5,12,9999,9999,9999,2161812564
52,12,25,Jits_Pract_5,13,9999,9999,9999,2162312256
52,12,25,Jits_Pract_5,14,9999,9999,9999,2162812020
52,13,24,Jits_Pract_8,0,5,56,103,2171236792
52,13,24,Jits_Pract_8,1,5,63,98,2171239816
52,13,24,Jits_Pract_8,2,5,80,127,2171243088
52,13,24,Jits_Pract_8,0,5,56,103,2172036732
52,13,24,Jits_Pract_8,1,5,63,98,2172039908
52,13,24,Jits_Pract_8,2,5,80,127,2172042804
52,13,24,Jits_Pract_8,0,5,80,127,2172776828
52,13,24,Jits_Pract_8,1,5,63,98,2172866836
52,13,24,Jits_Pract_8,2,5,56,103,2172876060
52,13,24,Jits_Pract_8,0,5,56,103,2173597016
52,13,24,Jits_Pract_8,1,5,63,98,2173606312
52,13,24,Jits_Pract_8,2,5,80,127,2173696320
52,13,24,Jits_Pract_8,0,1,48,48,2174367004
52,13,24,Jits_Pract_8,1,5,63,98,2174368488
52,13,24,Jits_Pract_8,2,5,80,127,2174396700
52,13,24,Jits_Pract_8,3,5,56,103,2174426596
52,13,24,Jits_Pract_8,0,1,48,47,2175132400
52,13,24,Jits_Pract_8,1,5,56,103,2175166848
52,13,24,Jits_Pract_8,2,5,80,127,2175266112
52,13,24,Jits_Pract_8,3,5,63,98,2175316384
52,13,24,Jits_Pract_8,0,1,48,48,2175952192
52,13,24,Jits_Pract_8,1,5,56,103,2175966680
52,13,24,Jits_Pract_8,2,5,80,127,2176016660
52,13,24,Jits_Pract_8,3,5,63,98,2176056656
52,13,24,Jits_Pract_8,0,1,48,40,2176772992
52,13,24,Jits_Pract_8,1,5,80,127,2176797076
52,13,24,Jits_Pract_8,2,5,63,98,2176826604
52,13,24,Jits_Pract_8,3,5,56,103,2176896492
52,13,24,Jits_Pract_8,0,1,48,44,2177618684
52,13,24,Jits_Pract_8,1,5,63,98,2177626504
52,13,24,Jits_Pract_8,2,5,56,103,2177656032
52,13,24,Jits_Pract_8,3,5,80,127,2177717476
52,13,24,Jits_Pract_8,0,5,56,103,2178366852
52,13,24,Jits_Pract_8,1,5,80,127,2178369920
52,13,24,Jits_Pract_8,2,1,48,40,2178408108
52,13,24,Jits_Pract_8,3,5,63,98,2178486520
52,13,24,Jits_Pract_8,0,1,48,45,2179169352
52,13,24,Jits_Pract_8,1,5,56,103,2179246572
52,13,24,Jits_Pract_8,2,5,80,127,2179286648
52,13,24,Jits_Pract_8,3,5,63,98,2179296768
52,13,24,Jits_Pract_8,0,1,48,46,2180001772
52,13,24,Jits_Pract_8,1,5,56,103,2180006452
52,13,24,Jits_Pract_8,2,5,80,127,2180026712
52,13,24,Jits_Pract_8,3,5,63,98,2180106712
52,13,24,Jits_Pract_8,0,5,80,127,2180796652
52,13,24,Jits_Pract_8,1,1,48,43,2180819396
52,13,24,Jits_Pract_8,2,5,56,103,2180897336
52,13,24,Jits_Pract_8,3,5,63,98,2180906560
52,13,24,Jits_Pract_8,0,5,63,98,2181566832
52,13,24,Jits_Pract_8,1,1,48,49,2181623284
52,13,24,Jits_Pract_8,2,5,80,127,2181626316
52,13,24,Jits_Pract_8,3,5,56,103,2181636440
52,13,24,Jits_Pract_8,0,1,48,51,2182280436
52,13,24,Jits_Pract_8,1,5,56,103,2182366724
52,13,24,Jits_Pract_8,2,5,63,98,2182436244
52,13,24,Jits_Pract_8,3,5,80,127,2182439828
52,13,24,Jits_Pract_8,0,9999,9999,9999,2171634748
52,13,24,Jits_Pract_8,1,9999,9999,9999,2172434536
52,13,24,Jits_Pract_8,2,9999,9999,9999,2173234272
52,13,24,Jits_Pract_8,3,9999,9999,9999,2174034008
52,13,24,Jits_Pract_8,4,9999,9999,9999,2174834764
52,13,24,Jits_Pract_8,5,9999,9999,9999,2175634520
52,13,24,Jits_Pract_8,6,9999,9999,9999,2176434296
52,13,24,Jits_Pract_8,7,9999,9999,9999,2177233980
52,13,24,Jits_Pract_8,8,9999,9999,9999,2178034788
52,13,24,Jits_Pract_8,9,9999,9999,9999,2178834528
52,13,24,Jits_Pract_8,10,9999,9999,9999,2179634232
52,13,24,Jits_Pract_8,11,9999,9999,9999,2180433992
52,13,24,Jits_Pract_8,12,9999,9999,9999,2181234796
52,13,24,Jits_Pract_8,13,9999,9999,9999,2182034492
52,13,24,Jits_Pract_8,14,9999,9999,9999,2182834260
52,14,16,Jits_ISO_5,0,5,56,103,2209954116
52,14,16,Jits_ISO_5,1,5,63,98,2209957532
52,14,16,Jits_ISO_5,2,5,80,127,2209960652
52,14,16,Jits_ISO_5,0,5,56,103,2210454876
52,14,16,Jits_ISO_5,1,5,63,98,2210458424
52,14,16,Jits_ISO_5,2,5,80,127,2210461392
52,14,16,Jits_ISO_5,0,5,56,103,2210954540
52,14,16,Jits_ISO_5,1,5,80,127,2210964736
52,14,16,Jits_ISO_5,2,5,63,98,2210984468
52,14,16,Jits_ISO_5,0,5,63,98,2211404160
52,14,16,Jits_ISO_5,1,5,80,127,2211434732
52,14,16,Jits_ISO_5,2,5,56,103,2211445224
52,14,16,Jits_ISO_5,0,1,48,32,2211879568
52,14,16,Jits_ISO_5,1,5,80,127,2211964332
52,14,16,Jits_ISO_5,2,5,56,103,2211974588
52,14,16,Jits_ISO_5,3,5,63,98,2212004412
52,14,16,Jits_ISO_5,0,5,63,98,2212454712
52,14,16,Jits_ISO_5,1,5,56,103,2212484384
52,14,16,Jits_ISO_5,2,5,80,127,2212494656
52,14,16,Jits_ISO_5,3,1,48,42,2212497396
52,14,16,Jits_ISO_5,0,5,56,103,2212904324
52,14,16,Jits_ISO_5,1,5,63,98,2212954452
52,14,16,Jits_ISO_5,2,5,80,127,2212974984
52,14,16,Jits_ISO_5,3,1,48,46,2213002140
52,14,16,Jits_ISO_5,0,5,80,127,2213404968
52,14,16,Jits_ISO_5,1,5,63,98,2213454048
52,14,16,Jits_ISO_5,2,1,48,51,2213469748
52,14,16,Jits_ISO_5,3,5,56,103,2213494124
52,14,16,Jits_ISO_5,0,5,56,103,2213904788
52,14,16,Jits_ISO_5,1,5,63,98,2213934612
52,14,16,Jits_ISO_5,2,1,48,46,2213981772
52,14,16,Jits_ISO_5,3,5,80,127,2214005032
52,14,16,Jits_ISO_5,0,5,56,103,2214404460
52,14,16,Jits_ISO_5,1,5,80,127,2214464776
52,14,16,Jits_ISO_5,2,1,48,48,2214479880
52,14,16,Jits_ISO_5,3,5,63,98,2214494588
52,14,16,Jits_ISO_5,0,5,56,103,2214914396
52,14,16,Jits_ISO_5,1,5,63,98,2214924664
52,14,16,Jits_ISO_5,2,5,80,127,2214964452
52,14,16,Jits_ISO_5,3,1,48,43,2214987716
52,14,16,Jits_ISO_5,0,5,63,98,2215404772
52,14,16,Jits_ISO_5,1,1,48,44,2215442888
52,14,16,Jits_ISO_5,2,5,80,127,2215484708
52,14,16,Jits_ISO_5,3,5,56,103,2215495128
52,14,16,Jits_ISO_5,0,5,63,98,2215954780
52,14,16,Jits_ISO_5,1,1,48,46,2215961040
52,14,16,Jits_ISO_5,2,5,56,103,2215994628
52,14,16,Jits_ISO_5,3,5,80,127,2215997852
52,14,16,Jits_ISO_5,0,5,56,103,2216414576
52,14,16,Jits_ISO_5,1,5,63,98,2216424772
52,14,16,Jits_ISO_5,2,5,80,127,2216464632
52,14,16,Jits_ISO_5,3,1,48,49,2216476220
52,14,16,Jits_ISO_5,0,5,56,103,2216905180
52,14,16,Jits_ISO_5,1,5,63,98,2216908024
52,14,16,Jits_ISO_5,2,5,80,127,2216924440
52,14,16,Jits_ISO_5,3,1,48,47,2216941336
52,14,16,Jits_ISO_5,0,5,80,127,2217414952
52,14,16,Jits_ISO_5,1,1,48,46,2217420316
52,14,16,Jits_ISO_5,2,5,56,103,2217424320
52,14,16,Jits_ISO_5,3,5,63,98,2217494820
52,14,16,Jits_ISO_5,0,5,63,98,2217904516
52,14,16,Jits_ISO_5,1,5,56,103,2217925048
52,14,16,Jits_ISO_5,2,1,48,43,2217949592
52,14,16,Jits_ISO_5,3,5,80,127,2218005132
52,14,16,Jits_ISO_5,0,5,56,103,2218414516
52,14,16,Jits_ISO_5,1,1,48,47,2218429620
52,14,16,Jits_ISO_5,2,5,80,127,2218454520
52,14,16,Jits_ISO_5,3,5,63,98,2218464492
52,14,16,Jits_ISO_5,0,5,80,127,2218904872
52,14,16,Jits_ISO_5,1,5,63,98,2218934496
52,14,16,Jits_ISO_5,2,1,48,44,2218944960
52,14,16,Jits_ISO_5,3,5,56,103,2218974572
52,14,16,Jits_ISO_5,0,5,56,103,2219425220
52,14,16,Jits_ISO_5,1,5,63,98,2219454844
52,14,16,Jits_ISO_5,2,1,48,49,2219473552
52,14,16,Jits_ISO_5,3,5,80,127,2219504888
52,14,16,Jits_ISO_5,0,5,80,127,2219924748
52,14,16,Jits_ISO_5,1,1,48,49,2219952248
52,14,16,Jits_ISO_5,2,5,56,103,2219964852
52,14,16,Jits_ISO_5,3,5,63,98,2219975268
52,14,16,Jits_ISO_5,0,5,80,127,2220405312
52,14,16,Jits_ISO_5,1,1,48,43,2220429412
52,14,16,Jits_ISO_5,2,5,63,98,2220445020
52,14,16,Jits_ISO_5,3,5,56,103,2220504460
52,14,16,Jits_ISO_5,0,5,56,103,2220915244
52,14,16,Jits_ISO_5,1,5,80,127,2220924244
52,14,16,Jits_ISO_5,2,1,48,53,2220955232
52,14,16,Jits_ISO_5,3,5,63,98,2221004352
52,14,16,Jits_ISO_5,0,5,80,127,2221414836
52,14,16,Jits_ISO_5,1,5,63,98,2221474328
52,14,16,Jits_ISO_5,2,1,48,47,2221494532
52,14,16,Jits_ISO_5,3,5,56,103,2221504892
52,14,16,Jits_ISO_5,0,5,56,103,2221914484
52,14,16,Jits_ISO_5,1,1,48,49,2221967272
52,14,16,Jits_ISO_5,2,5,80,127,2221974868
52,14,16,Jits_ISO_5,3,5,63,98,2222014828
52,14,16,Jits_ISO_5,0,1,48,48,2222458700
52,14,16,Jits_ISO_5,1,5,56,103,2222464500
52,14,16,Jits_ISO_5,2,5,63,98,2222474544
52,14,16,Jits_ISO_5,3,5,80,127,2222478208
52,14,16,Jits_ISO_5,0,5,80,127,2222914784
52,14,16,Jits_ISO_5,1,1,48,48,2222939628
52,14,16,Jits_ISO_5,2,5,63,98,2223005136
52,14,16,Jits_ISO_5,3,5,56,103,2223014384
52,14,16,Jits_ISO_5,0,5,56,103,2223414596
52,14,16,Jits_ISO_5,1,5,63,98,2223417920
52,14,16,Jits_ISO_5,2,5,80,127,2223421112
52,14,16,Jits_ISO_5,3,1,48,45,2223438400
52,14,16,Jits_ISO_5,0,1,48,55,2223906656
52,14,16,Jits_ISO_5,1,5,80,127,2223934708
52,14,16,Jits_ISO_5,2,5,63,98,2223985204
52,14,16,Jits_ISO_5,3,5,56,103,2224014564
52,14,16,Jits_ISO_5,0,5,56,103,2224415268
52,14,16,Jits_ISO_5,1,5,80,127,2224424268
52,14,16,Jits_ISO_5,2,1,48,47,2224437500
52,14,16,Jits_ISO_5,3,5,63,98,2224495056
52,14,16,Jits_ISO_5,0,5,56,103,2224934196
52,14,16,Jits_ISO_5,1,5,63,98,2224954804
52,14,16,Jits_ISO_5,2,1,48,48,2224969156
52,14,16,Jits_ISO_5,3,5,80,127,2225014356
52,14,16,Jits_ISO_5,0,5,80,127,2225424728
52,14,16,Jits_ISO_5,1,1,48,48,2225473924
52,14,16,Jits_ISO_5,2,5,63,98,2225494472
52,14,16,Jits_ISO_5,3,5,56,103,2225514932
52,14,16,Jits_ISO_5,0,5,80,127,2225944976
52,14,16,Jits_ISO_5,1,5,56,103,2225954348
52,14,16,Jits_ISO_5,2,5,63,98,2225964616
52,14,16,Jits_ISO_5,3,1,48,43,2225996652
52,14,16,Jits_ISO_5,0,5,80,127,2226434384
52,14,16,Jits_ISO_5,1,5,56,103,2226454844
52,14,16,Jits_ISO_5,2,1,48,44,2226488000
52,14,16,Jits_ISO_5,3,5,63,98,2226524664
52,14,16,Jits_ISO_5,0,5,56,103,2226944324
52,14,16,Jits_ISO_5,1,5,80,127,2226975344
52,14,16,Jits_ISO_5,2,1,48,51,2226985360
52,14,16,Jits_ISO_5,3,5,63,98,2226994600
52,14,16,Jits_ISO_5,0,5,63,98,2227434852
52,14,16,Jits_ISO_5,1,1,48,50,2227461716
52,14,16,Jits_ISO_5,2,5,56,103,2227494188
52,14,16,Jits_ISO_5,3,5,80,127,2227524984
52,14,16,Jits_ISO_5,0,5,63,98,2227924472
52,14,16,Jits_ISO_5,1,5,80,127,2227927836
52,14,16,Jits_ISO_5,2,1,48,48,2227963184
52,14,16,Jits_ISO_5,3,5,56,103,2228014368
52,14,16,Jits_ISO_5,0,5,56,103,2228444424
52,14,16,Jits_ISO_5,1,5,63,98,2228474100
52,14,16,Jits_ISO_5,2,1,48,48,2228478192
52,14,16,Jits_ISO_5,3,5,80,127,2228514252
52,14,16,Jits_ISO_5,0,5,63,98,2228944096
52,14,16,Jits_ISO_5,1,1,48,46,2228971632
52,14,16,Jits_ISO_5,2,5,56,103,2228984104
52,14,16,Jits_ISO_5,3,5,80,127,2229004636
52,14,16,Jits_ISO_5,0,5,63,98,2229454168
52,14,16,Jits_ISO_5,1,1,48,48,2229477812
52,14,16,Jits_ISO_5,2,5,56,103,2229494172
52,14,16,Jits_ISO_5,3,5,80,127,2229504296
52,14,16,Jits_ISO_5,0,5,80,127,2229934420
52,14,16,Jits_ISO_5,1,1,48,50,2229998072
52,14,16,Jits_ISO_5,2,5,63,98,2230005140
52,14,16,Jits_ISO_5,3,5,56,103,2230024552
52,14,16,Jits_ISO_5,0,5,56,103,2230425224
52,14,16,Jits_ISO_5,1,5,80,127,2230444440
52,14,16,Jits_ISO_5,2,5,63,98,2230484300
52,14,16,Jits_ISO_5,3,1,48,49,2230501572
52,14,16,Jits_ISO_5,0,5,63,98,2230935084
52,14,16,Jits_ISO_5,1,1,48,47,2230943604
52,14,16,Jits_ISO_5,2,5,80,127,2230954216
52,14,16,Jits_ISO_5,3,5,56,103,2230994152
52,14,16,Jits_ISO_5,0,5,63,98,2231434592
52,14,16,Jits_ISO_5,1,1,48,50,2231436080
52,14,16,Jits_ISO_5,2,5,56,103,2231455120
52,14,16,Jits_ISO_5,3,5,80,127,2231464292
52,14,16,Jits_ISO_5,0,5,80,127,2231934324
52,14,16,Jits_ISO_5,1,1,48,51,2231948752
52,14,16,Jits_ISO_5,2,5,56,103,2231954852
52,14,16,Jits_ISO_5,3,5,63,98,2231984476
52,14,16,Jits_ISO_5,0,1,48,50,2232463560
52,14,16,Jits_ISO_5,1,5,56,103,2232514992
52,14,16,Jits_ISO_5,2,5,80,127,2232518060
52,14,16,Jits_ISO_5,3,5,63,98,2232534260
52,14,16,Jits_ISO_5,0,5,63,98,2232935060
52,14,16,Jits_ISO_5,1,1,48,48,2232963304
52,14,16,Jits_ISO_5,2,5,56,103,2232964948
52,14,16,Jits_ISO_5,3,5,80,127,2233024916
52,14,16,Jits_ISO_5,0,1,48,47,2233438280
52,14,16,Jits_ISO_5,1,5,63,98,2233514452
52,14,16,Jits_ISO_5,2,5,56,103,2233524796
52,14,16,Jits_ISO_5,3,5,80,127,2233534904
52,14,16,Jits_ISO_5,0,1,48,48,2233960940
52,14,16,Jits_ISO_5,1,5,56,103,2233965092
52,14,16,Jits_ISO_5,2,5,80,127,2233994468
52,14,16,Jits_ISO_5,3,5,63,98,2234005184
52,14,16,Jits_ISO_5,0,1,48,50,2234449964
52,14,16,Jits_ISO_5,1,5,63,98,2234504536
52,14,16,Jits_ISO_5,2,5,56,103,2234514880
52,14,16,Jits_ISO_5,3,5,80,127,2234534244
52,14,16,Jits_ISO_5,0,5,56,103,2234934528
52,14,16,Jits_ISO_5,1,1,48,46,2234954656
52,14,16,Jits_ISO_5,2,5,63,98,2234994984
52,14,16,Jits_ISO_5,3,5,80,127,2234998348
52,14,16,Jits_ISO_5,0,1,48,48,2235428164
52,14,16,Jits_ISO_5,1,5,80,127,2235454788
52,14,16,Jits_ISO_5,2,5,56,103,2235465060
52,14,16,Jits_ISO_5,3,5,63,98,2235534792
52,14,16,Jits_ISO_5,0,5,80,127,2235944264
52,14,16,Jits_ISO_5,1,1,48,50,2235955552
52,14,16,Jits_ISO_5,2,5,56,103,2236014984
52,14,16,Jits_ISO_5,3,5,63,98,2236024132
52,14,16,Jits_ISO_5,0,5,63,98,2236494060
52,14,16,Jits_ISO_5,1,1,48,53,2236499276
52,14,16,Jits_ISO_5,2,5,56,103,2236504476
52,14,16,Jits_ISO_5,3,5,80,127,2236524856
52,14,16,Jits_ISO_5,0,5,80,127,2236945020
52,14,16,Jits_ISO_5,1,5,63,98,2237004068
52,14,16,Jits_ISO_5,2,1,48,48,2237017672
52,14,16,Jits_ISO_5,3,5,56,103,2237045044
52,14,16,Jits_ISO_5,0,5,56,103,2237484332
52,14,16,Jits_ISO_5,1,5,63,98,2237494900
52,14,16,Jits_ISO_5,2,1,48,51,2237503572
52,14,16,Jits_ISO_5,3,5,80,127,2237534532
52,14,16,Jits_ISO_5,0,5,56,103,2237944148
52,14,16,Jits_ISO_5,1,5,80,127,2237974868
52,14,16,Jits_ISO_5,2,1,48,47,2237998808
52,14,16,Jits_ISO_5,3,5,63,98,2238025136
52,14,16,Jits_ISO_5,0,5,56,103,2238484800
52,14,16,Jits_ISO_5,1,1,48,46,2238495264
52,14,16,Jits_ISO_5,2,5,63,98,2238524804
52,14,16,Jits_ISO_5,3,5,80,127,2238528092
52,14,16,Jits_ISO_5,0,5,56,103,2238984760
52,14,16,Jits_ISO_5,1,5,63,98,2238995256
52,14,16,Jits_ISO_5,2,1,48,50,2238998900
52,14,16,Jits_ISO_5,3,5,80,127,2239014212
52,14,16,Jits_ISO_5,0,5,56,103,2239444280
52,14,16,Jits_ISO_5,1,5,80,127,2239447344
52,14,16,Jits_ISO_5,2,5,63,98,2239484212
52,14,16,Jits_ISO_5,3,1,48,42,2239485180
52,14,16,Jits_ISO_5,0,1,48,46,2239955592
52,14,16,Jits_ISO_5,1,5,63,98,2239985060
52,14,16,Jits_ISO_5,2,5,56,103,2240014960
52,14,16,Jits_ISO_5,3,5,80,127,2240034148
52,14,16,Jits_ISO_5,0,1,48,43,2240445672
52,14,16,Jits_ISO_5,1,5,80,127,2240454984
52,14,16,Jits_ISO_5,2,5,56,103,2240464204
52,14,16,Jits_ISO_5,3,5,63,98,2240474624
52,14,16,Jits_ISO_5,0,1,48,34,2240939844
52,14,16,Jits_ISO_5,1,5,56,103,2240954932
52,14,16,Jits_ISO_5,2,5,80,127,2240994948
52,14,16,Jits_ISO_5,3,5,63,98,2241024400
52,14,16,Jits_ISO_5,0,1,48,51,2241457192
52,14,16,Jits_ISO_5,1,5,63,98,2241464784
52,14,16,Jits_ISO_5,2,5,80,127,2241474904
52,14,16,Jits_ISO_5,3,5,56,103,2241484128
52,14,16,Jits_ISO_5,0,5,56,103,2241945016
52,14,16,Jits_ISO_5,1,1,48,50,2241965844
52,14,16,Jits_ISO_5,2,5,63,98,2242014860
52,14,16,Jits_ISO_5,3,5,80,127,2242024760
52,14,16,Jits_ISO_5,0,5,80,127,2242444988
52,14,16,Jits_ISO_5,1,5,56,103,2242454960
52,14,16,Jits_ISO_5,2,1,48,49,2242479972
52,14,16,Jits_ISO_5,3,5,63,98,2242504956
52,14,16,Jits_ISO_5,0,5,80,127,2242954920
52,14,16,Jits_ISO_5,1,1,48,51,2242961852
52,14,16,Jits_ISO_5,2,5,56,103,2243014956
52,14,16,Jits_ISO_5,3,5,63,98,2243044628
52,14,16,Jits_ISO_5,0,5,56,103,2243454296
52,14,16,Jits_ISO_5,1,5,80,127,2243457360
52,14,16,Jits_ISO_5,2,5,63,98,2243494180
52,14,16,Jits_ISO_5,3,1,48,47,2243512960
52,14,16,Jits_ISO_5,0,1,48,50,2243983592
52,14,16,Jits_ISO_5,1,5,56,103,2243994852
52,14,16,Jits_ISO_5,2,5,63,98,2244024628
52,14,16,Jits_ISO_5,3,5,80,127,2244034824
52,14,16,Jits_ISO_5,0,1,48,53,2244484296
52,14,16,Jits_ISO_5,1,5,63,98,2244504992
52,14,16,Jits_ISO_5,2,5,80,127,2244514140
52,14,16,Jits_ISO_5,3,5,56,103,2244524360
52,14,16,Jits_ISO_5,0,5,80,127,2244954836
52,14,16,Jits_ISO_5,1,1,48,49,2244989344
52,14,16,Jits_ISO_5,2,5,56,103,2245004804
52,14,16,Jits_ISO_5,3,5,63,98,2245007944
52,14,16,Jits_ISO_5,0,1,48,47,2245473428
52,14,16,Jits_ISO_5,1,5,56,103,2245485060
52,14,16,Jits_ISO_5,2,5,80,127,2245504324
52,14,16,Jits_ISO_5,3,5,63,98,2245514888
52,14,16,Jits_ISO_5,0,5,63,98,2245964048
52,14,16,Jits_ISO_5,1,1,48,48,2245986120
52,14,16,Jits_ISO_5,2,5,56,103,2245994836
52,14,16,Jits_ISO_5,3,5,80,127,2246014324
52,14,16,Jits_ISO_5,0,5,56,103,2246475168
52,14,16,Jits_ISO_5,1,5,80,127,2246484464
52,14,16,Jits_ISO_5,2,1,48,51,2246485428
52,14,16,Jits_ISO_5,3,5,63,98,2246555032
52,14,16,Jits_ISO_5,0,5,63,98,2246964796
52,14,16,Jits_ISO_5,1,1,48,46,2246991360
52,14,16,Jits_ISO_5,2,5,80,127,2247004876
52,14,16,Jits_ISO_5,3,5,56,103,2247044592
52,14,16,Jits_ISO_5,0,5,56,103,2247474572
52,14,16,Jits_ISO_5,1,1,48,49,2247481432
52,14,16,Jits_ISO_5,2,5,63,98,2247484908
52,14,16,Jits_ISO_5,3,5,80,127,2247504172
52,14,16,Jits_ISO_5,0,1,48,51,2247946940
52,14,16,Jits_ISO_5,1,5,63,98,2248024360
52,14,16,Jits_ISO_5,2,5,80,127,2248044952
52,14,16,Jits_ISO_5,3,5,56,103,2248064512
52,14,16,Jits_ISO_5,0,1,48,51,2248464616
52,14,16,Jits_ISO_5,1,5,56,103,2248466028
52,14,16,Jits_ISO_5,2,5,80,127,2248544552
52,14,16,Jits_ISO_5,3,5,63,98,2248555044
52,14,16,Jits_ISO_5,0,1,48,49,2248948428
52,14,16,Jits_ISO_5,1,5,80,127,2249004348
52,14,16,Jits_ISO_5,2,5,63,98,2249014844
52,14,16,Jits_ISO_5,3,5,56,103,2249044652
52,14,16,Jits_ISO_5,0,5,63,98,2249464532
52,14,16,Jits_ISO_5,1,1,48,50,2249487280
52,14,16,Jits_ISO_5,2,5,80,127,2249505140
52,14,16,Jits_ISO_5,3,5,56,103,2249564628
52,14,16,Jits_ISO_5,0,5,63,98,2249974308
52,14,16,Jits_ISO_5,1,1,48,50,2250012872
52,14,16,Jits_ISO_5,2,5,56,103,2250024724
52,14,16,Jits_ISO_5,3,5,80,127,2250055076
52,14,16,Jits_ISO_5,0,5,80,127,2250485056
52,14,16,Jits_ISO_5,1,5,63,98,2250494280
52,14,16,Jits_ISO_5,2,1,48,50,2250523772
52,14,16,Jits_ISO_5,3,5,56,103,2250564920
52,14,16,Jits_ISO_5,0,1,48,48,2251010688
52,14,16,Jits_ISO_5,1,5,80,127,2251054624
52,14,16,Jits_ISO_5,2,5,56,103,2251064668
52,14,16,Jits_ISO_5,3,5,63,98,2251067884
52,14,16,Jits_ISO_5,0,1,48,53,2251491388
52,14,16,Jits_ISO_5,1,5,56,103,2251494868
52,14,16,Jits_ISO_5,2,5,80,127,2251514504
52,14,16,Jits_ISO_5,3,5,63,98,2251524696
52,14,16,Jits_ISO_5,0,1,48,53,2251980188
52,14,16,Jits_ISO_5,1,5,63,98,2252004716
52,14,16,Jits_ISO_5,2,5,56,103,2252044656
52,14,16,Jits_ISO_5,3,5,80,127,2252065116
52,14,16,Jits_ISO_5,0,1,48,53,2252494316
52,14,16,Jits_ISO_5,1,5,63,98,2252504456
52,14,16,Jits_ISO_5,2,5,56,103,2252564764
52,14,16,Jits_ISO_5,3,5,80,127,2252567908
52,14,16,Jits_ISO_5,0,5,56,103,2252964184
52,14,16,Jits_ISO_5,1,5,80,127,2252984644
52,14,16,Jits_ISO_5,2,1,48,51,2252996004
52,14,16,Jits_ISO_5,3,5,63,98,2253024648
52,14,16,Jits_ISO_5,0,1,48,52,2253484200
52,14,16,Jits_ISO_5,1,5,56,103,2253494708
52,14,16,Jits_ISO_5,2,5,63,98,2253515096
52,14,16,Jits_ISO_5,3,5,80,127,2253524616
52,14,16,Jits_ISO_5,0,5,80,127,2253964604
52,14,16,Jits_ISO_5,1,1,48,49,2253984888
52,14,16,Jits_ISO_5,2,5,56,103,2253994448
52,14,16,Jits_ISO_5,3,5,63,98,2254034608
52,14,16,Jits_ISO_5,0,5,80,127,2254474768
52,14,16,Jits_ISO_5,1,1,48,48,2254486952
52,14,16,Jits_ISO_5,2,5,56,103,2254495072
52,14,16,Jits_ISO_5,3,5,63,98,2254554436
52,14,16,Jits_ISO_5,0,5,56,103,2254984628
52,14,16,Jits_ISO_5,1,5,80,127,2255005012
52,14,16,Jits_ISO_5,2,1,48,45,2255020364
52,14,16,Jits_ISO_5,3,5,63,98,2255064444
52,14,16,Jits_ISO_5,0,5,80,127,2255474928
52,14,16,Jits_ISO_5,1,5,56,103,2255484452
52,14,16,Jits_ISO_5,2,5,63,98,2255524484
52,14,16,Jits_ISO_5,3,1,48,49,2255541612
52,14,16,Jits_ISO_5,0,5,63,98,2255974744
52,14,16,Jits_ISO_5,1,1,48,46,2256001004
52,14,16,Jits_ISO_5,2,5,56,103,2256014744
52,14,16,Jits_ISO_5,3,5,80,127,2256017888
52,14,16,Jits_ISO_5,0,1,48,51,2256478472
52,14,16,Jits_ISO_5,1,5,63,98,2256494908
52,14,16,Jits_ISO_5,2,5,80,127,2256534920
52,14,16,Jits_ISO_5,3,5,56,103,2256564620
52,14,16,Jits_ISO_5,0,5,56,103,2256984536
52,14,16,Jits_ISO_5,1,5,63,98,2256994808
52,14,16,Jits_ISO_5,2,5,80,127,2257024628
52,14,16,Jits_ISO_5,3,1,48,46,2257028124
52,14,16,Jits_ISO_5,0,5,80,127,2257474988
52,14,16,Jits_ISO_5,1,1,48,49,2257503440
52,14,16,Jits_ISO_5,2,5,63,98,2257544516
52,14,16,Jits_ISO_5,3,5,56,103,2257554712
52,14,16,Jits_ISO_5,0,5,63,98,2257974592
52,14,16,Jits_ISO_5,1,1,48,49,2258000180
52,14,16,Jits_ISO_5,2,5,56,103,2258044412
52,14,16,Jits_ISO_5,3,5,80,127,2258054460
52,14,16,Jits_ISO_5,0,1,48,46,2258471060
52,14,16,Jits_ISO_5,1,5,63,98,2258474688
52,14,16,Jits_ISO_5,2,5,56,103,2258494924
52,14,16,Jits_ISO_5,3,5,80,127,2258534864
52,14,16,Jits_ISO_5,0,1,48,45,2258967948
52,14,16,Jits_ISO_5,1,5,56,103,2258984384
52,14,16,Jits_ISO_5,2,5,63,98,2258994508
52,14,16,Jits_ISO_5,3,5,80,127,2259074432
52,14,16,Jits_ISO_5,0,5,63,98,2259485320
52,14,16,Jits_ISO_5,1,1,48,50,2259497580
52,14,16,Jits_ISO_5,2,5,56,103,2259514840
52,14,16,Jits_ISO_5,3,5,80,127,2259554628
52,14,16,Jits_ISO_5,0,1,48,46,2259966664
52,14,16,Jits_ISO_5,1,5,56,103,2259984820
52,14,16,Jits_ISO_5,2,5,63,98,2260024684
52,14,16,Jits_ISO_5,3,5,80,127,2260064608
52,14,16,Jits_ISO_5,0,1,48,51,2260451852
52,14,16,Jits_ISO_5,1,5,80,127,2260484404
52,14,16,Jits_ISO_5,2,5,56,103,2260564260
52,14,16,Jits_ISO_5,3,5,63,98,2260574680
52,14,16,Jits_ISO_5,0,1,48,46,2260994532
52,14,16,Jits_ISO_5,1,5,56,103,2261025268
52,14,16,Jits_ISO_5,2,5,63,98,2261028264
52,14,16,Jits_ISO_5,3,5,80,127,2261034492
52,14,16,Jits_ISO_5,0,1,48,47,2261479564
52,14,16,Jits_ISO_5,1,5,56,103,2261544476
52,14,16,Jits_ISO_5,2,5,63,98,2261564636
52,14,16,Jits_ISO_5,3,5,80,127,2261574968
52,14,16,Jits_ISO_5,0,1,48,44,2262000352
52,14,16,Jits_ISO_5,1,5,63,98,2262005328
52,14,16,Jits_ISO_5,2,5,80,127,2262014252
52,14,16,Jits_ISO_5,3,5,56,103,2262034860
52,14,16,Jits_ISO_5,0,1,48,43,2262501656
52,14,16,Jits_ISO_5,1,5,63,98,2262504760
52,14,16,Jits_ISO_5,2,5,56,103,2262584628
52,14,16,Jits_ISO_5,3,5,80,127,2262587620
52,14,16,Jits_ISO_5,0,5,63,98,2263004424
52,14,16,Jits_ISO_5,1,1,48,45,2263023980
52,14,16,Jits_ISO_5,2,5,56,103,2263025396
52,14,16,Jits_ISO_5,3,5,80,127,2263054696
52,14,16,Jits_ISO_5,0,5,56,103,2263504232
52,14,16,Jits_ISO_5,1,5,63,98,2263524840
52,14,16,Jits_ISO_5,2,1,48,45,2263528328
52,14,16,Jits_ISO_5,3,5,80,127,2263535176
52,14,16,Jits_ISO_5,0,1,48,51,2264001016
52,14,16,Jits_ISO_5,1,5,56,103,2264034540
52,14,16,Jits_ISO_5,2,5,63,98,2264064364
52,14,16,Jits_ISO_5,3,5,80,127,2264067728
52,14,16,Jits_ISO_5,0,5,56,103,2264484452
52,14,16,Jits_ISO_5,1,1,48,51,2264523712
52,14,16,Jits_ISO_5,2,5,63,98,2264525204
52,14,16,Jits_ISO_5,3,5,80,127,2264584548
52,14,16,Jits_ISO_5,0,1,48,47,2264991028
52,14,16,Jits_ISO_5,1,5,56,103,2265004344
52,14,16,Jits_ISO_5,2,5,63,98,2265014540
52,14,16,Jits_ISO_5,3,5,80,127,2265075300
52,14,16,Jits_ISO_5,0,5,56,103,2265505332
52,14,16,Jits_ISO_5,1,5,80,127,2265524544
52,14,16,Jits_ISO_5,2,1,48,44,2265528108
52,14,16,Jits_ISO_5,3,5,63,98,2265554360
52,14,16,Jits_ISO_5,0,5,80,127,2266004928
52,14,16,Jits_ISO_5,1,5,56,103,2266015348
52,14,16,Jits_ISO_5,2,1,48,46,2266022476
52,14,16,Jits_ISO_5,3,5,63,98,2266034556
52,14,16,Jits_ISO_5,0,5,63,98,2266494260
52,14,16,Jits_ISO_5,1,1,48,45,2266518656
52,14,16,Jits_ISO_5,2,5,80,127,2266574076
52,14,16,Jits_ISO_5,3,5,56,103,2266584420
52,14,16,Jits_ISO_5,0,1,48,43,2267022188
52,14,16,Jits_ISO_5,1,5,80,127,2267064660
52,14,16,Jits_ISO_5,2,5,56,103,2267084292
52,14,16,Jits_ISO_5,3,5,63,98,2267087284
52,14,16,Jits_ISO_5,0,5,63,98,2267534692
52,14,16,Jits_ISO_5,1,5,80,127,2267537984
52,14,16,Jits_ISO_5,2,1,48,46,2267549196
52,14,16,Jits_ISO_5,3,5,56,103,2267595248
52,14,16,Jits_ISO_5,0,5,56,103,2268015240
52,14,16,Jits_ISO_5,1,5,80,127,2268024164
52,14,16,Jits_ISO_5,2,1,48,49,2268058672
52,14,16,Jits_ISO_5,3,5,63,98,2268065440
52,14,16,Jits_ISO_5,0,5,56,103,2268494284
52,14,16,Jits_ISO_5,1,1,48,47,2268544012
52,14,16,Jits_ISO_5,2,5,63,98,2268554596
52,14,16,Jits_ISO_5,3,5,80,127,2268564864
52,14,16,Jits_ISO_5,0,5,63,98,2269004072
52,14,16,Jits_ISO_5,1,1,48,47,2269040448
52,14,16,Jits_ISO_5,2,5,80,127,2269045128
52,14,16,Jits_ISO_5,3,5,56,103,2269085284
52,14,16,Jits_ISO_5,0,5,56,103,2269505152
52,14,16,Jits_ISO_5,1,1,48,45,2269520852
52,14,16,Jits_ISO_5,2,5,63,98,2269584712
52,14,16,Jits_ISO_5,3,5,80,127,2269588300
52,14,16,Jits_ISO_5,0,9999,9999,9999,2210202736
52,14,16,Jits_ISO_5,1,9999,9999,9999,2210702452
52,14,16,Jits_ISO_5,2,9999,9999,9999,2211202120
52,14,16,Jits_ISO_5,3,9999,9999,9999,2211701856
52,14,16,Jits_ISO_5,4,9999,9999,9999,2212202612
52,14,16,Jits_ISO_5,5,9999,9999,9999,2212702272
52,14,16,Jits_ISO_5,6,9999,9999,9999,2213202004
52,14,16,Jits_ISO_5,7,9999,9999,9999,2213702720
52,14,16,Jits_ISO_5,8,9999,9999,9999,2214202468
52,14,16,Jits_ISO_5,9,9999,9999,9999,2214702140
52,14,16,Jits_ISO_5,10,9999,9999,9999,2215201880
52,14,16,Jits_ISO_5,11,9999,9999,9999,2215702604
52,14,16,Jits_ISO_5,12,9999,9999,9999,2216202332
52,14,16,Jits_ISO_5,13,9999,9999,9999,2216702064
52,14,16,Jits_ISO_5,14,9999,9999,9999,2217202768
52,14,16,Jits_ISO_5,15,9999,9999,9999,2217702520
52,14,16,Jits_ISO_5,16,9999,9999,9999,2218202196
52,14,16,Jits_ISO_5,17,9999,9999,9999,2218701928
52,14,16,Jits_ISO_5,18,9999,9999,9999,2219202648
52,14,16,Jits_ISO_5,19,9999,9999,9999,2219702324
52,14,16,Jits_ISO_5,20,9999,9999,9999,2220202072
52,14,16,Jits_ISO_5,21,9999,9999,9999,2220702772
52,14,16,Jits_ISO_5,22,9999,9999,9999,2221212772
52,14,16,Jits_ISO_5,23,9999,9999,9999,2221712488
52,14,16,Jits_ISO_5,24,9999,9999,9999,2222212168
52,14,16,Jits_ISO_5,25,9999,9999,9999,2222711908
52,14,16,Jits_ISO_5,26,9999,9999,9999,2223212616
52,14,16,Jits_ISO_5,27,9999,9999,9999,2223712340
52,14,16,Jits_ISO_5,28,9999,9999,9999,2224212092
52,14,16,Jits_ISO_5,29,9999,9999,9999,2224712796
52,14,16,Jits_ISO_5,30,9999,9999,9999,2225222732
52,14,16,Jits_ISO_5,31,9999,9999,9999,2225722456
52,14,16,Jits_ISO_5,32,9999,9999,9999,2226222200
52,14,16,Jits_ISO_5,33,9999,9999,9999,2226721876
52,14,16,Jits_ISO_5,34,9999,9999,9999,2227222596
52,14,16,Jits_ISO_5,35,9999,9999,9999,2227722344
52,14,16,Jits_ISO_5,36,9999,9999,9999,2228222068
52,14,16,Jits_ISO_5,37,9999,9999,9999,2228722776
52,14,16,Jits_ISO_5,38,9999,9999,9999,2229222520
52,14,16,Jits_ISO_5,39,9999,9999,9999,2229722180
52,14,16,Jits_ISO_5,40,9999,9999,9999,2230221912
52,14,16,Jits_ISO_5,41,9999,9999,9999,2230722628
52,14,16,Jits_ISO_5,42,9999,9999,9999,2231222376
52,14,16,Jits_ISO_5,43,9999,9999,9999,2231722104
52,14,16,Jits_ISO_5,44,9999,9999,9999,2232222784
52,14,16,Jits_ISO_5,45,9999,9999,9999,2232732788
52,14,16,Jits_ISO_5,46,9999,9999,9999,2233232440
52,14,16,Jits_ISO_5,47,9999,9999,9999,2233732180
52,14,16,Jits_ISO_5,48,9999,9999,9999,2234231916
52,14,16,Jits_ISO_5,49,9999,9999,9999,2234732628
52,14,16,Jits_ISO_5,50,9999,9999,9999,2235232348
52,14,16,Jits_ISO_5,51,9999,9999,9999,2235732020
52,14,16,Jits_ISO_5,52,9999,9999,9999,2236232804
52,14,16,Jits_ISO_5,53,9999,9999,9999,2236742744
52,14,16,Jits_ISO_5,54,9999,9999,9999,2237242480
52,14,16,Jits_ISO_5,55,9999,9999,9999,2237742156
52,14,16,Jits_ISO_5,56,9999,9999,9999,2238241900
52,14,16,Jits_ISO_5,57,9999,9999,9999,2238742612
52,14,16,Jits_ISO_5,58,9999,9999,9999,2239242360
52,14,16,Jits_ISO_5,59,9999,9999,9999,2239742020
52,14,16,Jits_ISO_5,60,9999,9999,9999,2240242744
52,14,16,Jits_ISO_5,61,9999,9999,9999,2240742476
52,14,16,Jits_ISO_5,62,9999,9999,9999,2241242208
52,14,16,Jits_ISO_5,63,9999,9999,9999,2241741940
52,14,16,Jits_ISO_5,64,9999,9999,9999,2242242644
52,14,16,Jits_ISO_5,65,9999,9999,9999,2242742388
52,14,16,Jits_ISO_5,66,9999,9999,9999,2243242064
52,14,16,Jits_ISO_5,67,9999,9999,9999,2243742820
52,14,16,Jits_ISO_5,68,9999,9999,9999,2244252756
52,14,16,Jits_ISO_5,69,9999,9999,9999,2244752484
52,14,16,Jits_ISO_5,70,9999,9999,9999,2245252204
52,14,16,Jits_ISO_5,71,9999,9999,9999,2245751880
52,14,16,Jits_ISO_5,72,9999,9999,9999,2246252660
52,14,16,Jits_ISO_5,73,9999,9999,9999,2246752316
52,14,16,Jits_ISO_5,74,9999,9999,9999,2247252064
52,14,16,Jits_ISO_5,75,9999,9999,9999,2247752768
52,14,16,Jits_ISO_5,76,9999,9999,9999,2248262712
52,14,16,Jits_ISO_5,77,9999,9999,9999,2248762444
52,14,16,Jits_ISO_5,78,9999,9999,9999,2249262180
52,14,16,Jits_ISO_5,79,9999,9999,9999,2249761916
52,14,16,Jits_ISO_5,80,9999,9999,9999,2250262624
52,14,16,Jits_ISO_5,81,9999,9999,9999,2250762356
52,14,16,Jits_ISO_5,82,9999,9999,9999,2251262028
52,14,16,Jits_ISO_5,83,9999,9999,9999,2251762808
52,14,16,Jits_ISO_5,84,9999,9999,9999,2252262472
52,14,16,Jits_ISO_5,85,9999,9999,9999,2252762204
52,14,16,Jits_ISO_5,86,9999,9999,9999,2253261936
52,14,16,Jits_ISO_5,87,9999,9999,9999,2253762652
52,14,16,Jits_ISO_5,88,9999,9999,9999,2254262384
52,14,16,Jits_ISO_5,89,9999,9999,9999,2254762056
52,14,16,Jits_ISO_5,90,9999,9999,9999,2255262828
52,14,16,Jits_ISO_5,91,9999,9999,9999,2255772752
52,14,16,Jits_ISO_5,92,9999,9999,9999,2256272484
52,14,16,Jits_ISO_5,93,9999,9999,9999,2256772220
52,14,16,Jits_ISO_5,94,9999,9999,9999,2257271872
52,14,16,Jits_ISO_5,95,9999,9999,9999,2257772596
52,14,16,Jits_ISO_5,96,9999,9999,9999,2258272344
52,14,16,Jits_ISO_5,97,9999,9999,9999,2258772076
52,14,16,Jits_ISO_5,98,9999,9999,9999,2259272780
52,14,16,Jits_ISO_5,99,9999,9999,9999,2259782772
52,14,16,Jits_ISO_5,100,9999,9999,9999,2260282432
52,14,16,Jits_ISO_5,101,9999,9999,9999,2260782168
52,14,16,Jits_ISO_5,102,9999,9999,9999,2261281892
52,14,16,Jits_ISO_5,103,9999,9999,9999,2261782604
52,14,16,Jits_ISO_5,104,9999,9999,9999,2262282336
52,14,16,Jits_ISO_5,105,9999,9999,9999,2262782064
52,14,16,Jits_ISO_5,106,9999,9999,9999,2263282768
52,14,16,Jits_ISO_5,107,9999,9999,9999,2263782504
52,14,16,Jits_ISO_5,108,9999,9999,9999,2264282176
52,14,16,Jits_ISO_5,109,9999,9999,9999,2264781908
52,14,16,Jits_ISO_5,110,9999,9999,9999,2265282624
52,14,16,Jits_ISO_5,111,9999,9999,9999,2265782356
52,14,16,Jits_ISO_5,112,9999,9999,9999,2266282104
52,14,16,Jits_ISO_5,113,9999,9999,9999,2266782800
52,14,16,Jits_ISO_5,114,9999,9999,9999,2267292788
52,14,16,Jits_ISO_5,115,9999,9999,9999,2267792432
52,14,16,Jits_ISO_5,116,9999,9999,9999,2268292216
52,14,16,Jits_ISO_5,117,9999,9999,9999,2268791888
52,14,16,Jits_ISO_5,118,9999,9999,9999,2269292608
52,14,16,Jits_ISO_5,119,9999,9999,9999,2269792336
52,15,7,Jits_ISO_8,0,5,56,103,2279820764
52,15,7,Jits_ISO_8,1,5,63,98,2279824012
52,15,7,Jits_ISO_8,2,5,80,127,2279827056
52,15,7,Jits_ISO_8,0,5,56,103,2280620416
52,15,7,Jits_ISO_8,1,5,63,98,2280623816
52,15,7,Jits_ISO_8,2,5,80,127,2280626784
52,15,7,Jits_ISO_8,0,5,80,127,2281360916
52,15,7,Jits_ISO_8,1,5,63,98,2281450932
52,15,7,Jits_ISO_8,2,5,56,103,2281461052
52,15,7,Jits_ISO_8,0,5,56,103,2282180968
52,15,7,Jits_ISO_8,1,5,63,98,2282190192
52,15,7,Jits_ISO_8,2,5,80,127,2282280252
52,15,7,Jits_ISO_8,0,1,48,43,2282936592
52,15,7,Jits_ISO_8,1,5,63,98,2282951084
52,15,7,Jits_ISO_8,2,5,80,127,2282980760
52,15,7,Jits_ISO_8,3,5,56,103,2283010436
52,15,7,Jits_ISO_8,0,1,48,40,2283710748
52,15,7,Jits_ISO_8,1,5,56,103,2283750856
52,15,7,Jits_ISO_8,2,5,80,127,2283851092
52,15,7,Jits_ISO_8,3,5,63,98,2283900320
52,15,7,Jits_ISO_8,0,5,56,103,2284550724
52,15,7,Jits_ISO_8,1,1,48,52,2284573472
52,15,7,Jits_ISO_8,2,5,80,127,2284600624
52,15,7,Jits_ISO_8,3,5,63,98,2284640712
52,15,7,Jits_ISO_8,0,1,48,49,2285342772
52,15,7,Jits_ISO_8,1,5,80,127,2285380932
52,15,7,Jits_ISO_8,2,5,63,98,2285410612
52,15,7,Jits_ISO_8,3,5,56,103,2285480524
52,15,7,Jits_ISO_8,0,1,48,45,2286193648
52,15,7,Jits_ISO_8,1,5,63,98,2286210540
52,15,7,Jits_ISO_8,2,5,56,103,2286241212
52,15,7,Jits_ISO_8,3,5,80,127,2286300692
52,15,7,Jits_ISO_8,0,5,56,103,2286950768
52,15,7,Jits_ISO_8,1,5,80,127,2286953832
52,15,7,Jits_ISO_8,2,1,48,41,2286997708
52,15,7,Jits_ISO_8,3,5,63,98,2287070812
52,15,7,Jits_ISO_8,0,1,48,54,2287793404
52,15,7,Jits_ISO_8,1,5,56,103,2287830596
52,15,7,Jits_ISO_8,2,5,80,127,2287870312
52,15,7,Jits_ISO_8,3,5,63,98,2287880880
52,15,7,Jits_ISO_8,0,5,56,103,2288590312
52,15,7,Jits_ISO_8,1,5,80,127,2288610624
52,15,7,Jits_ISO_8,2,1,48,49,2288627984
52,15,7,Jits_ISO_8,3,5,63,98,2288690856
52,15,7,Jits_ISO_8,0,5,80,127,2289380672
52,15,7,Jits_ISO_8,1,1,48,51,2289435788
52,15,7,Jits_ISO_8,2,5,56,103,2289480992
52,15,7,Jits_ISO_8,3,5,63,98,2289490144
52,15,7,Jits_ISO_8,0,5,63,98,2290150876
52,15,7,Jits_ISO_8,1,5,80,127,2290210148
52,15,7,Jits_ISO_8,2,5,56,103,2290220492
52,15,7,Jits_ISO_8,3,1,48,46,2290271708
52,15,7,Jits_ISO_8,0,5,56,103,2290950656
52,15,7,Jits_ISO_8,1,5,63,98,2291020036
52,15,7,Jits_ISO_8,2,5,80,127,2291023628
52,15,7,Jits_ISO_8,3,1,48,51,2291033276
52,15,7,Jits_ISO_8,0,1,48,49,2291757820
52,15,7,Jits_ISO_8,1,5,63,98,2291781008
52,15,7,Jits_ISO_8,2,5,56,103,2291830088
52,15,7,Jits_ISO_8,3,5,80,127,2291833080
52,15,7,Jits_ISO_8,0,5,56,103,2292540780
52,15,7,Jits_ISO_8,1,5,80,127,2292543768
52,15,7,Jits_ISO_8,2,1,48,43,2292560012
52,15,7,Jits_ISO_8,3,5,63,98,2292630832
52,15,7,Jits_ISO_8,0,5,63,98,2293380572
52,15,7,Jits_ISO_8,1,1,48,44,2293396272
52,15,7,Jits_ISO_8,2,5,56,103,2293470580
52,15,7,Jits_ISO_8,3,5,80,127,2293500536
52,15,7,Jits_ISO_8,0,5,56,103,2294170924
52,15,7,Jits_ISO_8,1,1,48,50,2294248848
52,15,7,Jits_ISO_8,2,5,63,98,2294270592
52,15,7,Jits_ISO_8,3,5,80,127,2294301016
52,15,7,Jits_ISO_8,0,5,63,98,2294990084
52,15,7,Jits_ISO_8,1,5,56,103,2295000652
52,15,7,Jits_ISO_8,2,1,48,56,2295038688
52,15,7,Jits_ISO_8,3,1,48,39,2295080320
52,15,7,Jits_ISO_8,4,5,80,127,2295090456
52,15,7,Jits_ISO_8,0,5,63,98,2295810392
52,15,7,Jits_ISO_8,1,1,48,54,2295834640
52,15,7,Jits_ISO_8,2,1,48,39,2295872452
52,15,7,Jits_ISO_8,3,5,56,103,2295890540
52,15,7,Jits_ISO_8,4,5,80,127,2295893600
52,15,7,Jits_ISO_8,0,5,80,127,2296570380
52,15,7,Jits_ISO_8,1,5,63,98,2296590768
52,15,7,Jits_ISO_8,2,5,56,103,2296651232
52,15,7,Jits_ISO_8,3,1,48,56,2296667604
52,15,7,Jits_ISO_8,4,1,48,37,2296715152
52,15,7,Jits_ISO_8,0,5,56,103,2297410936
52,15,7,Jits_ISO_8,1,5,63,98,2297430268
52,15,7,Jits_ISO_8,2,5,80,127,2297433636
52,15,7,Jits_ISO_8,3,1,48,51,2297451896
52,15,7,Jits_ISO_8,0,5,63,98,2298150484
52,15,7,Jits_ISO_8,1,1,48,58,2298203576
52,15,7,Jits_ISO_8,2,5,80,127,2298230204
52,15,7,Jits_ISO_8,3,5,56,103,2298240472
52,15,7,Jits_ISO_8,0,1,48,55,2298967976
52,15,7,Jits_ISO_8,1,5,63,98,2298970488
52,15,7,Jits_ISO_8,2,5,56,103,2298990948
52,15,7,Jits_ISO_8,3,5,80,127,2299041324
52,15,7,Jits_ISO_8,0,1,48,58,2299730016
52,15,7,Jits_ISO_8,1,5,80,127,2299770420
52,15,7,Jits_ISO_8,2,5,63,98,2299810236
52,15,7,Jits_ISO_8,3,5,56,103,2299830608
52,15,7,Jits_ISO_8,0,1,48,50,2300548456
52,15,7,Jits_ISO_8,1,5,56,103,2300610984
52,15,7,Jits_ISO_8,2,5,63,98,2300620136
52,15,7,Jits_ISO_8,3,5,80,127,2300640596
52,15,7,Jits_ISO_8,0,5,56,103,2301341000
52,15,7,Jits_ISO_8,1,1,48,56,2301388576
52,15,7,Jits_ISO_8,2,5,63,98,2301430256
52,15,7,Jits_ISO_8,3,5,80,127,2301490484
52,15,7,Jits_ISO_8,0,5,80,127,2302170420
52,15,7,Jits_ISO_8,1,5,56,103,2302180692
52,15,7,Jits_ISO_8,2,1,48,58,2302181952
52,15,7,Jits_ISO_8,3,5,63,98,2302250364
52,15,7,Jits_ISO_8,0,1,48,54,2302963880
52,15,7,Jits_ISO_8,1,5,63,98,2303001144
52,15,7,Jits_ISO_8,2,5,80,127,2303091268
52,15,7,Jits_ISO_8,3,5,56,103,2303100416
52,15,7,Jits_ISO_8,0,5,63,98,2303740184
52,15,7,Jits_ISO_8,1,5,80,127,2303790312
52,15,7,Jits_ISO_8,2,1,48,53,2303811412
52,15,7,Jits_ISO_8,3,5,56,103,2303850920
52,15,7,Jits_ISO_8,0,1,48,54,2304552816
52,15,7,Jits_ISO_8,1,5,56,103,2304570824
52,15,7,Jits_ISO_8,2,5,80,127,2304620880
52,15,7,Jits_ISO_8,3,5,63,98,2304640516
52,15,7,Jits_ISO_8,0,5,56,103,2305340720
52,15,7,Jits_ISO_8,1,1,48,54,2305351484
52,15,7,Jits_ISO_8,2,5,80,127,2305400360
52,15,7,Jits_ISO_8,3,5,63,98,2305470872
52,15,7,Jits_ISO_8,0,5,56,103,2306140444
52,15,7,Jits_ISO_8,1,5,80,127,2306170192
52,15,7,Jits_ISO_8,2,1,48,48,2306187012
52,15,7,Jits_ISO_8,3,5,63,98,2306200984
52,15,7,Jits_ISO_8,0,1,48,54,2306933080
52,15,7,Jits_ISO_8,1,5,56,103,2306980188
52,15,7,Jits_ISO_8,2,5,80,127,2307000648
52,15,7,Jits_ISO_8,3,5,63,98,2307061396
52,15,7,Jits_ISO_8,0,1,48,45,2307792604
52,15,7,Jits_ISO_8,1,5,80,127,2307861112
52,15,7,Jits_ISO_8,2,5,56,103,2307871456
52,15,7,Jits_ISO_8,3,5,63,98,2307880236
52,15,7,Jits_ISO_8,0,5,56,103,2308620604
52,15,7,Jits_ISO_8,1,1,48,57,2308624168
52,15,7,Jits_ISO_8,2,5,80,127,2308660612
52,15,7,Jits_ISO_8,3,5,63,98,2308690212
52,15,7,Jits_ISO_8,0,5,56,103,2309390656
52,15,7,Jits_ISO_8,1,5,63,98,2309420332
52,15,7,Jits_ISO_8,2,1,48,42,2309456936
52,15,7,Jits_ISO_8,3,5,80,127,2309460264
52,15,7,Jits_ISO_8,0,5,80,127,2310140332
52,15,7,Jits_ISO_8,1,1,48,55,2310165172
52,15,7,Jits_ISO_8,2,5,63,98,2310190456
52,15,7,Jits_ISO_8,3,5,56,103,2310211060
52,15,7,Jits_ISO_8,0,1,48,65,2310938752
52,15,7,Jits_ISO_8,1,5,56,103,2310970836
52,15,7,Jits_ISO_8,2,5,80,127,2311040432
52,15,7,Jits_ISO_8,3,5,63,98,2311100920
52,15,7,Jits_ISO_8,0,5,80,127,2311770408
52,15,7,Jits_ISO_8,1,1,48,47,2311800880
52,15,7,Jits_ISO_8,2,5,63,98,2311860488
52,15,7,Jits_ISO_8,3,5,56,103,2311881168
52,15,7,Jits_ISO_8,0,5,63,98,2312590588
52,15,7,Jits_ISO_8,1,5,56,103,2312610100
52,15,7,Jits_ISO_8,2,1,48,45,2312619072
52,15,7,Jits_ISO_8,3,5,80,127,2312651152
52,15,7,Jits_ISO_8,0,1,48,58,2313311596
52,15,7,Jits_ISO_8,1,5,80,127,2313350432
52,15,7,Jits_ISO_8,2,5,63,98,2313371112
52,15,7,Jits_ISO_8,3,5,56,103,2313451140
52,15,7,Jits_ISO_8,0,1,48,53,2314133996
52,15,7,Jits_ISO_8,1,5,63,98,2314141144
52,15,7,Jits_ISO_8,2,5,56,103,2314250768
52,15,7,Jits_ISO_8,3,5,80,127,2314253832
52,15,7,Jits_ISO_8,0,5,63,98,2314960280
52,15,7,Jits_ISO_8,1,1,48,54,2314969332
52,15,7,Jits_ISO_8,2,5,56,103,2314970996
52,15,7,Jits_ISO_8,3,5,80,127,2314973684
52,15,7,Jits_ISO_8,0,5,56,103,2315740412
52,15,7,Jits_ISO_8,1,1,48,57,2315773796
52,15,7,Jits_ISO_8,2,5,80,127,2315860288
52,15,7,Jits_ISO_8,3,5,63,98,2315900136
52,15,7,Jits_ISO_8,0,5,56,103,2316561040
52,15,7,Jits_ISO_8,1,1,48,54,2316606712
52,15,7,Jits_ISO_8,2,5,80,127,2316641056
52,15,7,Jits_ISO_8,3,5,63,98,2316661140
52,15,7,Jits_ISO_8,0,5,56,103,2317360440
52,15,7,Jits_ISO_8,1,1,48,45,2317368268
52,15,7,Jits_ISO_8,2,5,63,98,2317471256
52,15,7,Jits_ISO_8,3,5,80,127,2317474544
52,15,7,Jits_ISO_8,0,5,56,103,2318190952
52,15,7,Jits_ISO_8,1,1,48,61,2318195792
52,15,7,Jits_ISO_8,2,5,80,127,2318220768
52,15,7,Jits_ISO_8,3,5,63,98,2318241104
52,15,7,Jits_ISO_8,0,5,63,98,2318970372
52,15,7,Jits_ISO_8,1,1,48,41,2318974164
52,15,7,Jits_ISO_8,2,5,56,103,2318980412
52,15,7,Jits_ISO_8,3,5,80,127,2318990756
52,15,7,Jits_ISO_8,0,5,80,127,2319760932
52,15,7,Jits_ISO_8,1,1,48,57,2319764576
52,15,7,Jits_ISO_8,2,5,56,103,2319810932
52,15,7,Jits_ISO_8,3,5,63,98,2319850796
52,15,7,Jits_ISO_8,0,5,80,127,2320581060
52,15,7,Jits_ISO_8,1,1,48,55,2320584780
52,15,7,Jits_ISO_8,2,5,63,98,2320600396
52,15,7,Jits_ISO_8,3,5,56,103,2320650744
52,15,7,Jits_ISO_8,0,1,48,49,2321334816
52,15,7,Jits_ISO_8,1,5,80,127,2321390892
52,15,7,Jits_ISO_8,2,5,56,103,2321420720
52,15,7,Jits_ISO_8,3,5,63,98,2321490236
52,15,7,Jits_ISO_8,0,1,48,55,2322161732
52,15,7,Jits_ISO_8,1,5,56,103,2322240800
52,15,7,Jits_ISO_8,2,5,80,127,2322251072
52,15,7,Jits_ISO_8,3,5,63,98,2322290992
52,15,7,Jits_ISO_8,0,5,56,103,2322950684
52,15,7,Jits_ISO_8,1,5,63,98,2322970920
52,15,7,Jits_ISO_8,2,1,48,49,2322997484
52,15,7,Jits_ISO_8,3,5,80,127,2323040744
52,15,7,Jits_ISO_8,0,1,48,55,2323715748
52,15,7,Jits_ISO_8,1,5,63,98,2323770852
52,15,7,Jits_ISO_8,2,5,80,127,2323830032
52,15,7,Jits_ISO_8,3,5,56,103,2323850640
52,15,7,Jits_ISO_8,0,5,80,127,2324560376
52,15,7,Jits_ISO_8,1,5,56,103,2324590880
52,15,7,Jits_ISO_8,2,1,48,47,2324593924
52,15,7,Jits_ISO_8,3,5,63,98,2324620768
52,15,7,Jits_ISO_8,0,5,56,103,2325361068
52,15,7,Jits_ISO_8,1,1,48,56,2325399564
52,15,7,Jits_ISO_8,2,5,63,98,2325420360
52,15,7,Jits_ISO_8,3,5,80,127,2325480748
52,15,7,Jits_ISO_8,0,5,80,127,2326180300
52,15,7,Jits_ISO_8,1,1,48,54,2326186116
52,15,7,Jits_ISO_8,2,5,56,103,2326200756
52,15,7,Jits_ISO_8,3,5,63,98,2326270212
52,15,7,Jits_ISO_8,0,5,80,127,2326980924
52,15,7,Jits_ISO_8,1,5,63,98,2327000412
52,15,7,Jits_ISO_8,2,5,56,103,2327030240
52,15,7,Jits_ISO_8,3,1,48,61,2327038088
52,15,7,Jits_ISO_8,0,5,80,127,2327770756
52,15,7,Jits_ISO_8,1,5,63,98,2327791068
52,15,7,Jits_ISO_8,2,1,48,54,2327830680
52,15,7,Jits_ISO_8,3,5,56,103,2327850332
52,15,7,Jits_ISO_8,0,5,80,127,2328570252
52,15,7,Jits_ISO_8,1,1,48,46,2328594044
52,15,7,Jits_ISO_8,2,5,56,103,2328670796
52,15,7,Jits_ISO_8,3,5,63,98,2328700156
52,15,7,Jits_ISO_8,0,5,63,98,2329360612
52,15,7,Jits_ISO_8,1,1,48,53,2329402092
52,15,7,Jits_ISO_8,2,5,80,127,2329410884
52,15,7,Jits_ISO_8,3,5,56,103,2329430668
52,15,7,Jits_ISO_8,0,1,48,49,2330187472
52,15,7,Jits_ISO_8,1,5,80,127,2330200620
52,15,7,Jits_ISO_8,2,5,56,103,2330230148
52,15,7,Jits_ISO_8,3,5,63,98,2330233436
52,15,7,Jits_ISO_8,0,1,48,46,2331004564
52,15,7,Jits_ISO_8,1,5,63,98,2331030892
52,15,7,Jits_ISO_8,2,5,56,103,2331070784
52,15,7,Jits_ISO_8,3,5,80,127,2331090644
52,15,7,Jits_ISO_8,0,5,80,127,2331770600
52,15,7,Jits_ISO_8,1,1,48,50,2331809640
52,15,7,Jits_ISO_8,2,5,63,98,2331851092
52,15,7,Jits_ISO_8,3,5,56,103,2331890956
52,15,7,Jits_ISO_8,0,5,63,98,2332590660
52,15,7,Jits_ISO_8,1,1,48,43,2332664132
52,15,7,Jits_ISO_8,2,5,80,127,2332670452
52,15,7,Jits_ISO_8,3,5,56,103,2332690688
52,15,7,Jits_ISO_8,0,5,56,103,2333430088
52,15,7,Jits_ISO_8,1,5,63,98,2333440508
52,15,7,Jits_ISO_8,2,5,80,127,2333480520
52,15,7,Jits_ISO_8,3,1,48,19,2333486928
52,15,7,Jits_ISO_8,4,1,38,13,2333496272
52,15,7,Jits_ISO_8,0,5,56,103,2334151040
52,15,7,Jits_ISO_8,1,5,80,127,2334154032
52,15,7,Jits_ISO_8,2,1,48,48,2334251036
52,15,7,Jits_ISO_8,3,5,63,98,2334290536
52,15,7,Jits_ISO_8,0,5,56,103,2334940484
52,15,7,Jits_ISO_8,1,1,48,36,2334989388
52,15,7,Jits_ISO_8,2,5,63,98,2335030616
52,15,7,Jits_ISO_8,3,5,80,127,2335100504
52,15,7,Jits_ISO_8,0,5,63,98,2335819996
52,15,7,Jits_ISO_8,1,5,80,127,2335823292
52,15,7,Jits_ISO_8,2,5,56,103,2335880616
52,15,7,Jits_ISO_8,0,1,48,43,2336605952
52,15,7,Jits_ISO_8,1,5,80,127,2336660976
52,15,7,Jits_ISO_8,2,5,56,103,2336680340
52,15,7,Jits_ISO_8,3,5,63,98,2336690536
52,15,7,Jits_ISO_8,0,5,56,103,2337370420
52,15,7,Jits_ISO_8,1,5,63,98,2337380692
52,15,7,Jits_ISO_8,2,5,80,127,2337450324
52,15,7,Jits_ISO_8,0,5,80,127,2338170432
52,15,7,Jits_ISO_8,1,1,48,51,2338196628
52,15,7,Jits_ISO_8,2,5,56,103,2338220508
52,15,7,Jits_ISO_8,3,5,63,98,2338270708
52,15,7,Jits_ISO_8,0,1,48,45,2339014276
52,15,7,Jits_ISO_8,1,5,56,103,2339050796
52,15,7,Jits_ISO_8,2,5,63,98,2339061364
52,15,7,Jits_ISO_8,3,5,80,127,2339101008
52,15,7,Jits_ISO_8,0,5,56,103,2339790356
52,15,7,Jits_ISO_8,1,1,48,43,2339819856
52,15,7,Jits_ISO_8,2,5,63,98,2339830216
52,15,7,Jits_ISO_8,3,5,80,127,2339880416
52,15,7,Jits_ISO_8,0,5,80,127,2340550972
52,15,7,Jits_ISO_8,1,1,48,42,2340574544
52,15,7,Jits_ISO_8,2,5,56,103,2340600348
52,15,7,Jits_ISO_8,3,5,63,98,2340620508
52,15,7,Jits_ISO_8,0,5,80,127,2341360952
52,15,7,Jits_ISO_8,1,1,48,42,2341377624
52,15,7,Jits_ISO_8,2,5,63,98,2341420516
52,15,7,Jits_ISO_8,3,5,56,103,2341500220
52,15,7,Jits_ISO_8,0,5,80,127,2342140300
52,15,7,Jits_ISO_8,1,5,56,103,2342180388
52,15,7,Jits_ISO_8,2,5,63,98,2342200552
52,15,7,Jits_ISO_8,3,1,48,48,2342209820
52,15,7,Jits_ISO_8,0,1,48,48,2342959692
52,15,7,Jits_ISO_8,1,5,56,103,2342990432
52,15,7,Jits_ISO_8,2,5,80,127,2343000480
52,15,7,Jits_ISO_8,3,5,63,98,2343040496
52,15,7,Jits_ISO_8,0,1,48,49,2343796104
52,15,7,Jits_ISO_8,1,5,56,103,2343860520
52,15,7,Jits_ISO_8,2,5,63,98,2343900592
52,15,7,Jits_ISO_8,3,5,80,127,2343904104
52,15,7,Jits_ISO_8,0,5,63,98,2344550672
52,15,7,Jits_ISO_8,1,5,80,127,2344590764
52,15,7,Jits_ISO_8,2,1,48,53,2344621560
52,15,7,Jits_ISO_8,3,5,56,103,2344660316
52,15,7,Jits_ISO_8,0,5,63,98,2345340340
52,15,7,Jits_ISO_8,1,1,48,49,2345367728
52,15,7,Jits_ISO_8,2,5,56,103,2345420308
52,15,7,Jits_ISO_8,3,5,80,127,2345480536
52,15,7,Jits_ISO_8,0,1,48,45,2346138580
52,15,7,Jits_ISO_8,1,5,80,127,2346150260
52,15,7,Jits_ISO_8,2,5,63,98,2346200392
52,15,7,Jits_ISO_8,3,5,56,103,2346230288
52,15,7,Jits_ISO_8,0,5,56,103,2346940904
52,15,7,Jits_ISO_8,1,1,48,46,2346970480
52,15,7,Jits_ISO_8,2,5,63,98,2346991104
52,15,7,Jits_ISO_8,3,5,80,127,2347000252
52,15,7,Jits_ISO_8,0,1,48,43,2347702900
52,15,7,Jits_ISO_8,1,5,56,103,2347750728
52,15,7,Jits_ISO_8,2,5,63,98,2347860332
52,15,7,Jits_ISO_8,3,5,80,127,2347880788
52,15,7,Jits_ISO_8,0,1,48,46,2348520148
52,15,7,Jits_ISO_8,1,5,63,98,2348550444
52,15,7,Jits_ISO_8,2,5,80,127,2348600572
52,15,7,Jits_ISO_8,3,5,56,103,2348690764
52,15,7,Jits_ISO_8,0,5,63,98,2349341240
52,15,7,Jits_ISO_8,1,1,48,44,2349352304
52,15,7,Jits_ISO_8,2,5,80,127,2349370684
52,15,7,Jits_ISO_8,3,5,56,103,2349461024
52,15,7,Jits_ISO_8,0,5,63,98,2350140724
52,15,7,Jits_ISO_8,1,5,56,103,2350151216
52,15,7,Jits_ISO_8,2,1,48,45,2350159812
52,15,7,Jits_ISO_8,3,5,80,127,2350250360
52,15,7,Jits_ISO_8,0,1,48,46,2350903604
52,15,7,Jits_ISO_8,1,5,63,98,2351041052
52,15,7,Jits_ISO_8,2,5,80,127,2351070504
52,15,7,Jits_ISO_8,3,5,56,103,2351100180
52,15,7,Jits_ISO_8,0,1,48,45,2351806064
52,15,7,Jits_ISO_8,1,5,80,127,2351861088
52,15,7,Jits_ISO_8,2,5,63,98,2351870312
52,15,7,Jits_ISO_8,3,5,56,103,2351901020
52,15,7,Jits_ISO_8,0,5,80,127,2352560420
52,15,7,Jits_ISO_8,1,5,63,98,2352581248
52,15,7,Jits_ISO_8,2,1,48,47,2352603100
52,15,7,Jits_ISO_8,3,5,56,103,2352630100
52,15,7,Jits_ISO_8,0,1,48,47,2353371792
52,15,7,Jits_ISO_8,1,5,63,98,2353391148
52,15,7,Jits_ISO_8,2,5,80,127,2353450344
52,15,7,Jits_ISO_8,3,5,56,103,2353471160
52,15,7,Jits_ISO_8,0,5,63,98,2354151004
52,15,7,Jits_ISO_8,1,1,48,51,2354174056
52,15,7,Jits_ISO_8,2,5,56,103,2354200904
52,15,7,Jits_ISO_8,3,5,80,127,2354210128
52,15,7,Jits_ISO_8,0,1,48,55,2354942288
52,15,7,Jits_ISO_8,1,5,56,103,2354980076
52,15,7,Jits_ISO_8,2,5,80,127,2354990496
52,15,7,Jits_ISO_8,3,5,63,98,2355090952
52,15,7,Jits_ISO_8,0,5,80,127,2355740908
52,15,7,Jits_ISO_8,1,5,63,98,2355750208
52,15,7,Jits_ISO_8,2,1,48,49,2355780080
52,15,7,Jits_ISO_8,3,5,56,103,2355901024
52,15,7,Jits_ISO_8,0,5,63,98,2356550896
52,15,7,Jits_ISO_8,1,1,48,54,2356556628
52,15,7,Jits_ISO_8,2,5,80,127,2356590980
52,15,7,Jits_ISO_8,3,5,56,103,2356670784
52,15,7,Jits_ISO_8,0,5,56,103,2357340712
52,15,7,Jits_ISO_8,1,1,48,51,2357381892
52,15,7,Jits_ISO_8,2,5,80,127,2357440980
52,15,7,Jits_ISO_8,3,5,63,98,2357460244
52,15,7,Jits_ISO_8,0,1,48,47,2358182828
52,15,7,Jits_ISO_8,1,5,80,127,2358200768
52,15,7,Jits_ISO_8,2,5,56,103,2358211036
52,15,7,Jits_ISO_8,3,5,63,98,2358301008
52,15,7,Jits_ISO_8,0,1,48,47,2358952648
52,15,7,Jits_ISO_8,1,5,56,103,2359000480
52,15,7,Jits_ISO_8,2,5,63,98,2359020868
52,15,7,Jits_ISO_8,3,5,80,127,2359101020
52,15,7,Jits_ISO_8,0,5,63,98,2359751124
52,15,7,Jits_ISO_8,1,1,48,43,2359768488
52,15,7,Jits_ISO_8,2,5,56,103,2359841104
52,15,7,Jits_ISO_8,3,5,80,127,2359844096
52,15,7,Jits_ISO_8,0,1,48,51,2360531016
52,15,7,Jits_ISO_8,1,5,56,103,2360580412
52,15,7,Jits_ISO_8,2,5,80,127,2360640792
52,15,7,Jits_ISO_8,3,5,63,98,2360650988
52,15,7,Jits_ISO_8,0,1,48,48,2361365556
52,15,7,Jits_ISO_8,1,5,80,127,2361430324
52,15,7,Jits_ISO_8,2,5,56,103,2361440740
52,15,7,Jits_ISO_8,3,5,63,98,2361443804
52,15,7,Jits_ISO_8,0,1,48,46,2362177240
52,15,7,Jits_ISO_8,1,5,56,103,2362190092
52,15,7,Jits_ISO_8,2,5,80,127,2362200288
52,15,7,Jits_ISO_8,3,5,63,98,2362220892
52,15,7,Jits_ISO_8,0,1,48,46,2362949764
52,15,7,Jits_ISO_8,1,5,63,98,2362960196
52,15,7,Jits_ISO_8,2,5,80,127,2363020592
52,15,7,Jits_ISO_8,3,5,56,103,2363070804
52,15,7,Jits_ISO_8,0,1,48,48,2363781308
52,15,7,Jits_ISO_8,1,5,63,98,2363840772
52,15,7,Jits_ISO_8,2,5,56,103,2363851044
52,15,7,Jits_ISO_8,3,5,80,127,2363900184
52,15,7,Jits_ISO_8,0,5,63,98,2364540296
52,15,7,Jits_ISO_8,1,5,80,127,2364560684
52,15,7,Jits_ISO_8,2,5,56,103,2364571100
52,15,7,Jits_ISO_8,3,1,48,29,2364715160
52,15,7,Jits_ISO_8,0,5,63,98,2365341064
52,15,7,Jits_ISO_8,1,5,80,127,2365344428
52,15,7,Jits_ISO_8,2,5,56,103,2365381004
52,15,7,Jits_ISO_8,3,1,48,49,2365381968
52,15,7,Jits_ISO_8,0,1,48,50,2366073268
52,15,7,Jits_ISO_8,1,5,63,98,2366210568
52,15,7,Jits_ISO_8,2,5,80,127,2366241068
52,15,7,Jits_ISO_8,3,5,56,103,2366250292
52,15,7,Jits_ISO_8,0,1,48,52,2366946196
52,15,7,Jits_ISO_8,1,5,56,103,2366961140
52,15,7,Jits_ISO_8,2,5,80,127,2366990820
52,15,7,Jits_ISO_8,3,5,63,98,2367020348
52,15,7,Jits_ISO_8,0,1,48,48,2367760828
52,15,7,Jits_ISO_8,1,5,63,98,2367861084
52,15,7,Jits_ISO_8,2,5,56,103,2367901120
52,15,7,Jits_ISO_8,3,5,80,127,2367904112
52,15,7,Jits_ISO_8,0,5,80,127,2368560492
52,15,7,Jits_ISO_8,1,1,48,50,2368609244
52,15,7,Jits_ISO_8,2,5,56,103,2368640508
52,15,7,Jits_ISO_8,3,5,63,98,2368690588
52,15,7,Jits_ISO_8,0,5,80,127,2369340736
52,15,7,Jits_ISO_8,1,5,56,103,2369360524
52,15,7,Jits_ISO_8,2,1,48,43,2369448720
52,15,7,Jits_ISO_8,3,5,63,98,2369450376
52,15,7,Jits_ISO_8,0,5,80,127,2370180688
52,15,7,Jits_ISO_8,1,1,48,50,2370218236
52,15,7,Jits_ISO_8,2,5,63,98,2370220428
52,15,7,Jits_ISO_8,3,5,56,103,2370260512
52,15,7,Jits_ISO_8,0,5,63,98,2370950592
52,15,7,Jits_ISO_8,1,1,48,50,2371004980
52,15,7,Jits_ISO_8,2,5,80,127,2371010932
52,15,7,Jits_ISO_8,3,5,56,103,2371040608
52,15,7,Jits_ISO_8,0,5,56,103,2371750472
52,15,7,Jits_ISO_8,1,1,48,47,2371752916
52,15,7,Jits_ISO_8,2,5,80,127,2371781116
52,15,7,Jits_ISO_8,3,5,63,98,2371871084
52,15,7,Jits_ISO_8,0,5,56,103,2372560608
52,15,7,Jits_ISO_8,1,1,48,50,2372619552
52,15,7,Jits_ISO_8,2,5,80,127,2372670744
52,15,7,Jits_ISO_8,3,5,63,98,2372700568
52,15,7,Jits_ISO_8,0,1,48,52,2373398428
52,15,7,Jits_ISO_8,1,5,56,103,2373410156
52,15,7,Jits_ISO_8,2,5,63,98,2373470548
52,15,7,Jits_ISO_8,3,5,80,127,2373500508
52,15,7,Jits_ISO_8,0,5,56,103,2374180432
52,15,7,Jits_ISO_8,1,1,48,53,2374193516
52,15,7,Jits_ISO_8,2,5,63,98,2374250860
52,15,7,Jits_ISO_8,3,5,80,127,2374270272
52,15,7,Jits_ISO_8,0,5,80,127,2374950488
52,15,7,Jits_ISO_8,1,5,63,98,2374970728
52,15,7,Jits_ISO_8,2,5,56,103,2375020780
52,15,7,Jits_ISO_8,3,1,48,44,2375040608
52,15,7,Jits_ISO_8,0,9999,9999,9999,2280218728
52,15,7,Jits_ISO_8,1,9999,9999,9999,2281018432
52,15,7,Jits_ISO_8,2,9999,9999,9999,2281818228
52,15,7,Jits_ISO_8,3,9999,9999,9999,2282617948
52,15,7,Jits_ISO_8,4,9999,9999,9999,2283418684
52,15,7,Jits_ISO_8,5,9999,9999,9999,2284218492
52,15,7,Jits_ISO_8,6,9999,9999,9999,2285018200
52,15,7,Jits_ISO_8,7,9999,9999,9999,2285817924
52,15,7,Jits_ISO_8,8,9999,9999,9999,2286618688
52,15,7,Jits_ISO_8,9,9999,9999,9999,2287418456
52,15,7,Jits_ISO_8,10,9999,9999,9999,2288218188
52,15,7,Jits_ISO_8,11,9999,9999,9999,2289017980
52,15,7,Jits_ISO_8,12,9999,9999,9999,2289818684
52,15,7,Jits_ISO_8,13,9999,9999,9999,2290618424
52,15,7,Jits_ISO_8,14,9999,9999,9999,2291418196
52,15,7,Jits_ISO_8,15,9999,9999,9999,2292217912
52,15,7,Jits_ISO_8,16,9999,9999,9999,2293018728
52,15,7,Jits_ISO_8,17,9999,9999,9999,2293818460
52,15,7,Jits_ISO_8,18,9999,9999,9999,2294618176
52,15,7,Jits_ISO_8,19,9999,9999,9999,2295417952
52,15,7,Jits_ISO_8,20,9999,9999,9999,2296218704
52,15,7,Jits_ISO_8,21,9999,9999,9999,2297018428
52,15,7,Jits_ISO_8,22,9999,9999,9999,2297818164
52,15,7,Jits_ISO_8,23,9999,9999,9999,2298617960
52,15,7,Jits_ISO_8,24,9999,9999,9999,2299418712
52,15,7,Jits_ISO_8,25,9999,9999,9999,2300218420
52,15,7,Jits_ISO_8,26,9999,9999,9999,2301018204
52,15,7,Jits_ISO_8,27,9999,9999,9999,2301817916
52,15,7,Jits_ISO_8,28,9999,9999,9999,2302618688
52,15,7,Jits_ISO_8,29,9999,9999,9999,2303418436
52,15,7,Jits_ISO_8,30,9999,9999,9999,2304218220
52,15,7,Jits_ISO_8,31,9999,9999,9999,2305017928
52,15,7,Jits_ISO_8,32,9999,9999,9999,2305818684
52,15,7,Jits_ISO_8,33,9999,9999,9999,2306618476
52,15,7,Jits_ISO_8,34,9999,9999,9999,2307418200
52,15,7,Jits_ISO_8,35,9999,9999,9999,2308217916
52,15,7,Jits_ISO_8,36,9999,9999,9999,2309018680
52,15,7,Jits_ISO_8,37,9999,9999,9999,2309818420
52,15,7,Jits_ISO_8,38,9999,9999,9999,2310618216
52,15,7,Jits_ISO_8,39,9999,9999,9999,2311417944
52,15,7,Jits_ISO_8,40,9999,9999,9999,2312218704
52,15,7,Jits_ISO_8,41,9999,9999,9999,2313018428
52,15,7,Jits_ISO_8,42,9999,9999,9999,2313818208
52,15,7,Jits_ISO_8,43,9999,9999,9999,2314617908
52,15,7,Jits_ISO_8,44,9999,9999,9999,2315418724
52,15,7,Jits_ISO_8,45,9999,9999,9999,2316218456
52,15,7,Jits_ISO_8,46,9999,9999,9999,2317018228
52,15,7,Jits_ISO_8,47,9999,9999,9999,2317817944
52,15,7,Jits_ISO_8,48,9999,9999,9999,2318618716
52,15,7,Jits_ISO_8,49,9999,9999,9999,2319418436
52,15,7,Jits_ISO_8,50,9999,9999,9999,2320218220
52,15,7,Jits_ISO_8,51,9999,9999,9999,2321017944
52,15,7,Jits_ISO_8,52,9999,9999,9999,2321818716
52,15,7,Jits_ISO_8,53,9999,9999,9999,2322618452
52,15,7,Jits_ISO_8,54,9999,9999,9999,2323418232
52,15,7,Jits_ISO_8,55,9999,9999,9999,2324217956
52,15,7,Jits_ISO_8,56,9999,9999,9999,2325018704
52,15,7,Jits_ISO_8,57,9999,9999,9999,2325818432
52,15,7,Jits_ISO_8,58,9999,9999,9999,2326618232
52,15,7,Jits_ISO_8,59,9999,9999,9999,2327417956
52,15,7,Jits_ISO_8,60,9999,9999,9999,2328218728
52,15,7,Jits_ISO_8,61,9999,9999,9999,2329018472
52,15,7,Jits_ISO_8,62,9999,9999,9999,2329818196
52,15,7,Jits_ISO_8,63,9999,9999,9999,2330617972
52,15,7,Jits_ISO_8,64,9999,9999,9999,2331418736
52,15,7,Jits_ISO_8,65,9999,9999,9999,2332218452
52,15,7,Jits_ISO_8,66,9999,9999,9999,2333018180
52,15,7,Jits_ISO_8,67,9999,9999,9999,2333817928
52,15,7,Jits_ISO_8,68,9999,9999,9999,2334618708
52,15,7,Jits_ISO_8,69,9999,9999,9999,2335418448
52,15,7,Jits_ISO_8,70,9999,9999,9999,2336218188
52,15,7,Jits_ISO_8,71,9999,9999,9999,2337017956
52,15,7,Jits_ISO_8,72,9999,9999,9999,2337818732
52,15,7,Jits_ISO_8,73,9999,9999,9999,2338618432
52,15,7,Jits_ISO_8,74,9999,9999,9999,2339418164
52,15,7,Jits_ISO_8,75,9999,9999,9999,2340217952
52,15,7,Jits_ISO_8,76,9999,9999,9999,2341018720
52,15,7,Jits_ISO_8,77,9999,9999,9999,2341818464
52,15,7,Jits_ISO_8,78,9999,9999,9999,2342618180
52,15,7,Jits_ISO_8,79,9999,9999,9999,2343417908
52,15,7,Jits_ISO_8,80,9999,9999,9999,2344218740
52,15,7,Jits_ISO_8,81,9999,9999,9999,2345018448
52,15,7,Jits_ISO_8,82,9999,9999,9999,2345818232
52,15,7,Jits_ISO_8,83,9999,9999,9999,2346617940
52,15,7,Jits_ISO_8,84,9999,9999,9999,2347418692
52,15,7,Jits_ISO_8,85,9999,9999,9999,2348218440
52,15,7,Jits_ISO_8,86,9999,9999,9999,2349018220
52,15,7,Jits_ISO_8,87,9999,9999,9999,2349817928
52,15,7,Jits_ISO_8,88,9999,9999,9999,2350618680
52,15,7,Jits_ISO_8,89,9999,9999,9999,2351418472
52,15,7,Jits_ISO_8,90,9999,9999,9999,2352218192
52,15,7,Jits_ISO_8,91,9999,9999,9999,2353017976
52,15,7,Jits_ISO_8,92,9999,9999,9999,2353818676
52,15,7,Jits_ISO_8,93,9999,9999,9999,2354618476
52,15,7,Jits_ISO_8,94,9999,9999,9999,2355418188
52,15,7,Jits_ISO_8,95,9999,9999,9999,2356217972
52,15,7,Jits_ISO_8,96,9999,9999,9999,2357018744
52,15,7,Jits_ISO_8,97,9999,9999,9999,2357818452
52,15,7,Jits_ISO_8,98,9999,9999,9999,2358618180
52,15,7,Jits_ISO_8,99,9999,9999,9999,2359417968
52,15,7,Jits_ISO_8,100,9999,9999,9999,2360218716
52,15,7,Jits_ISO_8,101,9999,9999,9999,2361018452
52,15,7,Jits_ISO_8,102,9999,9999,9999,2361818228
52,15,7,Jits_ISO_8,103,9999,9999,9999,2362617932
52,15,7,Jits_ISO_8,104,9999,9999,9999,2363418688
52,15,7,Jits_ISO_8,105,9999,9999,9999,2364218476
52,15,7,Jits_ISO_8,106,9999,9999,9999,2365018176
52,15,7,Jits_ISO_8,107,9999,9999,9999,2365817944
52,15,7,Jits_ISO_8,108,9999,9999,9999,2366618700
52,15,7,Jits_ISO_8,109,9999,9999,9999,2367418432
52,15,7,Jits_ISO_8,110,9999,9999,9999,2368218220
52,15,7,Jits_ISO_8,111,9999,9999,9999,2369017932
52,15,7,Jits_ISO_8,112,9999,9999,9999,2369818696
52,15,7,Jits_ISO_8,113,9999,9999,9999,2370618424
52,15,7,Jits_ISO_8,114,9999,9999,9999,2371418216
52,15,7,Jits_ISO_8,115,9999,9999,9999,2372217924
52,15,7,Jits_ISO_8,116,9999,9999,9999,2373018696
52,15,7,Jits_ISO_8,117,9999,9999,9999,2373818452
52,15,7,Jits_ISO_8,118,9999,9999,9999,2374618168
52,15,7,Jits_ISO_8,119,9999,9999,9999,2375417960
52,16,19,Jits_Linear_5,0,5,56,103,2384424268
52,16,19,Jits_Linear_5,1,5,63,98,2384427440
52,16,19,Jits_Linear_5,2,5,80,127,2384430492
52,16,19,Jits_Linear_5,0,5,56,103,2384904656
52,16,19,Jits_Linear_5,1,5,63,98,2384907680
52,16,19,Jits_Linear_5,2,5,80,127,2384910656
52,16,19,Jits_Linear_5,0,5,56,103,2385384688
52,16,19,Jits_Linear_5,1,5,80,127,2385395332
52,16,19,Jits_Linear_5,2,5,63,98,2385414448
52,16,19,Jits_Linear_5,0,5,63,98,2385815168
52,16,19,Jits_Linear_5,1,5,80,127,2385844724
52,16,19,Jits_Linear_5,2,5,56,103,2385854992
52,16,19,Jits_Linear_5,0,1,48,51,2386301736
52,16,19,Jits_Linear_5,1,5,80,127,2386354472
52,16,19,Jits_Linear_5,2,5,56,103,2386364668
52,16,19,Jits_Linear_5,3,5,63,98,2386394492
52,16,19,Jits_Linear_5,0,5,63,98,2386835036
52,16,19,Jits_Linear_5,1,1,48,51,2386852724
52,16,19,Jits_Linear_5,2,5,56,103,2386864432
52,16,19,Jits_Linear_5,3,5,80,127,2386874628
52,16,19,Jits_Linear_5,0,5,56,103,2387275240
52,16,19,Jits_Linear_5,1,5,63,98,2387324172
52,16,19,Jits_Linear_5,2,5,80,127,2387344856
52,16,19,Jits_Linear_5,3,1,48,53,2387352160
52,16,19,Jits_Linear_5,0,5,80,127,2387764452
52,16,19,Jits_Linear_5,1,5,63,98,2387814956
52,16,19,Jits_Linear_5,2,1,48,47,2387829012
52,16,19,Jits_Linear_5,3,5,56,103,2387854812
52,16,19,Jits_Linear_5,0,5,56,103,2388255236
52,16,19,Jits_Linear_5,1,5,63,98,2388284912
52,16,19,Jits_Linear_5,2,1,48,57,2388320620
52,16,19,Jits_Linear_5,3,5,80,127,2388354364
52,16,19,Jits_Linear_5,0,5,56,103,2388744452
52,16,19,Jits_Linear_5,1,1,48,55,2388788332
52,16,19,Jits_Linear_5,2,5,80,127,2388804916
52,16,19,Jits_Linear_5,3,5,63,98,2388834664
52,16,19,Jits_Linear_5,0,5,56,103,2389244232
52,16,19,Jits_Linear_5,1,5,63,98,2389254432
52,16,19,Jits_Linear_5,2,1,48,56,2389284980
52,16,19,Jits_Linear_5,3,5,80,127,2389294364
52,16,19,Jits_Linear_5,0,5,63,98,2389734868
52,16,19,Jits_Linear_5,1,1,48,52,2389769456
52,16,19,Jits_Linear_5,2,5,80,127,2389814512
52,16,19,Jits_Linear_5,3,5,56,103,2389825156
52,16,19,Jits_Linear_5,0,1,48,53,2390280824
52,16,19,Jits_Linear_5,1,5,63,98,2390284604
52,16,19,Jits_Linear_5,2,5,56,103,2390324544
52,16,19,Jits_Linear_5,3,5,80,127,2390327832
52,16,19,Jits_Linear_5,0,5,56,103,2390744436
52,16,19,Jits_Linear_5,1,5,63,98,2390754780
52,16,19,Jits_Linear_5,2,1,48,48,2390764496
52,16,19,Jits_Linear_5,3,5,80,127,2390794784
52,16,19,Jits_Linear_5,0,5,56,103,2391234916
52,16,19,Jits_Linear_5,1,5,63,98,2391238060
52,16,19,Jits_Linear_5,2,1,48,68,2391241780
52,16,19,Jits_Linear_5,3,5,80,127,2391254472
52,16,19,Jits_Linear_5,0,1,48,56,2391744992
52,16,19,Jits_Linear_5,1,5,80,127,2391755056
52,16,19,Jits_Linear_5,2,5,56,103,2391764204
52,16,19,Jits_Linear_5,3,5,63,98,2391835084
52,16,19,Jits_Linear_5,0,5,63,98,2392254972
52,16,19,Jits_Linear_5,1,1,48,55,2392259064
52,16,19,Jits_Linear_5,2,5,56,103,2392274232
52,16,19,Jits_Linear_5,3,5,80,127,2392354100
52,16,19,Jits_Linear_5,0,1,48,57,2392756580
52,16,19,Jits_Linear_5,1,5,56,103,2392775036
52,16,19,Jits_Linear_5,2,5,80,127,2392814900
52,16,19,Jits_Linear_5,3,5,63,98,2392824052
52,16,19,Jits_Linear_5,0,5,80,127,2393275024
52,16,19,Jits_Linear_5,1,1,48,53,2393283324
52,16,19,Jits_Linear_5,2,5,63,98,2393304476
52,16,19,Jits_Linear_5,3,5,56,103,2393344412
52,16,19,Jits_Linear_5,0,5,56,103,2393804104
52,16,19,Jits_Linear_5,1,1,48,51,2393823932
52,16,19,Jits_Linear_5,2,5,63,98,2393835044
52,16,19,Jits_Linear_5,3,5,80,127,2393885096
52,16,19,Jits_Linear_5,0,5,80,127,2394315120
52,16,19,Jits_Linear_5,1,1,48,54,2394341832
52,16,19,Jits_Linear_5,2,5,56,103,2394355052
52,16,19,Jits_Linear_5,3,5,63,98,2394364276
52,16,19,Jits_Linear_5,0,5,80,127,2394814748
52,16,19,Jits_Linear_5,1,5,63,98,2394854836
52,16,19,Jits_Linear_5,2,1,48,42,2394871212
52,16,19,Jits_Linear_5,3,5,56,103,2394914324
52,16,19,Jits_Linear_5,0,5,56,103,2395335056
52,16,19,Jits_Linear_5,1,5,80,127,2395344204
52,16,19,Jits_Linear_5,2,5,63,98,2395425048
52,16,19,Jits_Linear_5,3,1,48,49,2395432972
52,16,19,Jits_Linear_5,0,5,80,127,2395854088
52,16,19,Jits_Linear_5,1,1,48,49,2395895496
52,16,19,Jits_Linear_5,2,5,63,98,2395914772
52,16,19,Jits_Linear_5,3,5,56,103,2395944448
52,16,19,Jits_Linear_5,0,5,56,103,2396374244
52,16,19,Jits_Linear_5,1,1,48,56,2396416620
52,16,19,Jits_Linear_5,2,5,80,127,2396434780
52,16,19,Jits_Linear_5,3,5,63,98,2396475016
52,16,19,Jits_Linear_5,0,1,48,45,2396949808
52,16,19,Jits_Linear_5,1,5,56,103,2396955084
52,16,19,Jits_Linear_5,2,5,63,98,2396964156
52,16,19,Jits_Linear_5,3,5,80,127,2396967668
52,16,19,Jits_Linear_5,0,5,80,127,2397434168
52,16,19,Jits_Linear_5,1,1,48,54,2397458640
52,16,19,Jits_Linear_5,2,5,63,98,2397524300
52,16,19,Jits_Linear_5,3,5,56,103,2397534792
52,16,19,Jits_Linear_5,0,5,56,103,2397964872
52,16,19,Jits_Linear_5,1,5,63,98,2397967972
52,16,19,Jits_Linear_5,2,5,80,127,2397970944
52,16,19,Jits_Linear_5,3,1,48,54,2397997448
52,16,19,Jits_Linear_5,0,1,48,49,2398469548
52,16,19,Jits_Linear_5,1,5,80,127,2398514756
52,16,19,Jits_Linear_5,2,5,63,98,2398564800
52,16,19,Jits_Linear_5,3,5,56,103,2398594328
52,16,19,Jits_Linear_5,0,1,48,52,2399017048
52,16,19,Jits_Linear_5,1,5,56,103,2399024712
52,16,19,Jits_Linear_5,2,5,80,127,2399034908
52,16,19,Jits_Linear_5,3,5,63,98,2399104292
52,16,19,Jits_Linear_5,0,5,56,103,2399564044
52,16,19,Jits_Linear_5,1,5,63,98,2399585024
52,16,19,Jits_Linear_5,2,1,48,47,2399589496
52,16,19,Jits_Linear_5,3,5,80,127,2399644912
52,16,19,Jits_Linear_5,0,5,80,127,2400094760
52,16,19,Jits_Linear_5,1,1,48,41,2400111432
52,16,19,Jits_Linear_5,2,5,63,98,2400164092
52,16,19,Jits_Linear_5,3,5,56,103,2400184776
52,16,19,Jits_Linear_5,0,5,80,127,2400654852
52,16,19,Jits_Linear_5,1,5,56,103,2400665120
52,16,19,Jits_Linear_5,2,5,63,98,2400674124
52,16,19,Jits_Linear_5,3,1,48,48,2400679856
52,16,19,Jits_Linear_5,0,5,80,127,2401185192
52,16,19,Jits_Linear_5,1,1,48,44,2401201716
52,16,19,Jits_Linear_5,2,5,56,103,2401204744
52,16,19,Jits_Linear_5,3,5,63,98,2401274352
52,16,19,Jits_Linear_5,0,5,56,103,2401735016
52,16,19,Jits_Linear_5,1,5,80,127,2401764620
52,16,19,Jits_Linear_5,2,1,48,48,2401765588
52,16,19,Jits_Linear_5,3,5,63,98,2401784100
52,16,19,Jits_Linear_5,0,5,63,98,2402274728
52,16,19,Jits_Linear_5,1,1,48,50,2402305720
52,16,19,Jits_Linear_5,2,5,56,103,2402335044
52,16,19,Jits_Linear_5,3,5,80,127,2402364716
52,16,19,Jits_Linear_5,0,5,63,98,2402814348
52,16,19,Jits_Linear_5,1,5,80,127,2402817640
52,16,19,Jits_Linear_5,2,1,48,60,2402823248
52,16,19,Jits_Linear_5,3,5,56,103,2402904700
52,16,19,Jits_Linear_5,0,5,56,103,2403384680
52,16,19,Jits_Linear_5,1,1,48,53,2403414508
52,16,19,Jits_Linear_5,2,5,63,98,2403415920
52,16,19,Jits_Linear_5,3,5,80,127,2403454216
52,16,19,Jits_Linear_5,0,5,63,98,2403934508
52,16,19,Jits_Linear_5,1,1,48,58,2403949160
52,16,19,Jits_Linear_5,2,5,56,103,2403974740
52,16,19,Jits_Linear_5,3,5,80,127,2403994928
52,16,19,Jits_Linear_5,0,1,48,55,2404473652
52,16,19,Jits_Linear_5,1,5,63,98,2404494728
52,16,19,Jits_Linear_5,2,5,56,103,2404534768
52,16,19,Jits_Linear_5,3,5,80,127,2404545040
52,16,19,Jits_Linear_5,0,5,80,127,2405025168
52,16,19,Jits_Linear_5,1,1,48,40,2405052724
52,16,19,Jits_Linear_5,2,5,63,98,2405094696
52,16,19,Jits_Linear_5,3,5,56,103,2405114184
52,16,19,Jits_Linear_5,0,5,56,103,2405575068
52,16,19,Jits_Linear_5,1,5,80,127,2405594704
52,16,19,Jits_Linear_5,2,5,63,98,2405634420
52,16,19,Jits_Linear_5,3,1,48,57,2405653656
52,16,19,Jits_Linear_5,0,5,63,98,2406144448
52,16,19,Jits_Linear_5,1,5,80,127,2406164832
52,16,19,Jits_Linear_5,2,1,48,48,2406176344
52,16,19,Jits_Linear_5,3,5,56,103,2406204840
52,16,19,Jits_Linear_5,0,5,63,98,2406704596
52,16,19,Jits_Linear_5,1,1,48,62,2406707416
52,16,19,Jits_Linear_5,2,5,56,103,2406725048
52,16,19,Jits_Linear_5,3,5,80,127,2406734196
52,16,19,Jits_Linear_5,0,1,48,57,2407247548
52,16,19,Jits_Linear_5,1,5,80,127,2407264660
52,16,19,Jits_Linear_5,2,5,56,103,2407285044
52,16,19,Jits_Linear_5,3,5,63,98,2407314944
52,16,19,Jits_Linear_5,0,1,48,55,2407809416
52,16,19,Jits_Linear_5,1,5,56,103,2407904608
52,16,19,Jits_Linear_5,2,5,80,127,2407907528
52,16,19,Jits_Linear_5,3,5,63,98,2407925144
52,16,19,Jits_Linear_5,0,5,63,98,2408404384
52,16,19,Jits_Linear_5,1,5,56,103,2408435184
52,16,19,Jits_Linear_5,2,1,48,54,2408442960
52,16,19,Jits_Linear_5,3,5,80,127,2408494672
52,16,19,Jits_Linear_5,0,1,48,45,2408994548
52,16,19,Jits_Linear_5,1,5,63,98,2409054592
52,16,19,Jits_Linear_5,2,5,56,103,2409064712
52,16,19,Jits_Linear_5,3,5,80,127,2409074984
52,16,19,Jits_Linear_5,0,5,56,103,2409574740
52,16,19,Jits_Linear_5,1,5,80,127,2409604640
52,16,19,Jits_Linear_5,2,1,48,38,2409612096
52,16,19,Jits_Linear_5,3,5,63,98,2409614684
52,16,19,Jits_Linear_5,0,1,48,51,2410173332
52,16,19,Jits_Linear_5,1,5,63,98,2410185044
52,16,19,Jits_Linear_5,2,5,56,103,2410194416
52,16,19,Jits_Linear_5,3,5,80,127,2410214800
52,16,19,Jits_Linear_5,0,5,56,103,2410684740
52,16,19,Jits_Linear_5,1,1,48,51,2410733044
52,16,19,Jits_Linear_5,2,5,63,98,2410744376
52,16,19,Jits_Linear_5,3,5,80,127,2410747740
52,16,19,Jits_Linear_5,0,5,80,127,2411284828
52,16,19,Jits_Linear_5,1,1,48,50,2411290488
52,16,19,Jits_Linear_5,2,5,56,103,2411295316
52,16,19,Jits_Linear_5,3,5,63,98,2411364776
52,16,19,Jits_Linear_5,0,5,80,127,2411854360
52,16,19,Jits_Linear_5,1,1,48,39,2411916668
52,16,19,Jits_Linear_5,2,5,56,103,2411924860
52,16,19,Jits_Linear_5,3,5,63,98,2411935232
52,16,19,Jits_Linear_5,0,5,63,98,2412474632
52,16,19,Jits_Linear_5,1,5,56,103,2412485052
52,16,19,Jits_Linear_5,2,5,80,127,2412504316
52,16,19,Jits_Linear_5,3,1,48,46,2412505356
52,16,19,Jits_Linear_5,0,5,80,127,2413004288
52,16,19,Jits_Linear_5,1,1,48,46,2413062792
52,16,19,Jits_Linear_5,2,5,63,98,2413064528
52,16,19,Jits_Linear_5,3,5,56,103,2413104616
52,16,19,Jits_Linear_5,0,1,48,46,2413631772
52,16,19,Jits_Linear_5,1,5,56,103,2413634952
52,16,19,Jits_Linear_5,2,5,63,98,2413644100
52,16,19,Jits_Linear_5,3,5,80,127,2413685236
52,16,19,Jits_Linear_5,0,5,56,103,2414195328
52,16,19,Jits_Linear_5,1,1,48,52,2414211256
52,16,19,Jits_Linear_5,2,5,80,127,2414224700
52,16,19,Jits_Linear_5,3,5,63,98,2414274928
52,16,19,Jits_Linear_5,0,1,48,54,2414813704
52,16,19,Jits_Linear_5,1,5,56,103,2414824812
52,16,19,Jits_Linear_5,2,5,63,98,2414864680
52,16,19,Jits_Linear_5,3,5,80,127,2414867968
52,16,19,Jits_Linear_5,0,1,48,43,2415403592
52,16,19,Jits_Linear_5,1,5,56,103,2415414700
52,16,19,Jits_Linear_5,2,5,63,98,2415424824
52,16,19,Jits_Linear_5,3,5,80,127,2415444384
52,16,19,Jits_Linear_5,0,5,56,103,2415964516
52,16,19,Jits_Linear_5,1,1,48,54,2415967432
52,16,19,Jits_Linear_5,2,5,80,127,2415968848
52,16,19,Jits_Linear_5,3,5,63,98,2416004596
52,16,19,Jits_Linear_5,0,1,48,51,2416566764
52,16,19,Jits_Linear_5,1,5,63,98,2416594216
52,16,19,Jits_Linear_5,2,5,56,103,2416625092
52,16,19,Jits_Linear_5,3,5,80,127,2416644428
52,16,19,Jits_Linear_5,0,5,80,127,2417164636
52,16,19,Jits_Linear_5,1,5,56,103,2417174832
52,16,19,Jits_Linear_5,2,5,63,98,2417185252
52,16,19,Jits_Linear_5,3,1,48,44,2417211140
52,16,19,Jits_Linear_5,0,5,56,103,2417764876
52,16,19,Jits_Linear_5,1,1,48,54,2417776388
52,16,19,Jits_Linear_5,2,5,80,127,2417804588
52,16,19,Jits_Linear_5,3,5,63,98,2417834436
52,16,19,Jits_Linear_5,0,5,63,98,2418375112
52,16,19,Jits_Linear_5,1,5,80,127,2418384560
52,16,19,Jits_Linear_5,2,5,56,103,2418394456
52,16,19,Jits_Linear_5,3,1,48,53,2418405220
52,16,19,Jits_Linear_5,0,5,56,103,2418954588
52,16,19,Jits_Linear_5,1,1,48,51,2419010000
52,16,19,Jits_Linear_5,2,5,63,98,2419024268
52,16,19,Jits_Linear_5,3,5,80,127,2419034464
52,16,19,Jits_Linear_5,0,5,80,127,2419564876
52,16,19,Jits_Linear_5,1,5,56,103,2419574544
52,16,19,Jits_Linear_5,2,1,48,45,2419589280
52,16,19,Jits_Linear_5,3,5,63,98,2419624392
52,16,19,Jits_Linear_5,0,1,48,44,2420180016
52,16,19,Jits_Linear_5,1,5,80,127,2420184540
52,16,19,Jits_Linear_5,2,5,56,103,2420244932
52,16,19,Jits_Linear_5,3,5,63,98,2420274520
52,16,19,Jits_Linear_5,0,5,56,103,2420805004
52,16,19,Jits_Linear_5,1,5,80,127,2420807996
52,16,19,Jits_Linear_5,2,1,48,52,2420831716
52,16,19,Jits_Linear_5,3,5,63,98,2420845160
52,16,19,Jits_Linear_5,0,1,48,40,2421415648
52,16,19,Jits_Linear_5,1,5,56,103,2421444968
52,16,19,Jits_Linear_5,2,5,63,98,2421474644
52,16,19,Jits_Linear_5,3,5,80,127,2421484992
52,16,19,Jits_Linear_5,0,1,48,51,2422063484
52,16,19,Jits_Linear_5,1,5,63,98,2422065128
52,16,19,Jits_Linear_5,2,5,80,127,2422074656
52,16,19,Jits_Linear_5,3,5,56,103,2422085224
52,16,19,Jits_Linear_5,0,5,80,127,2422624616
52,16,19,Jits_Linear_5,1,5,56,103,2422674744
52,16,19,Jits_Linear_5,2,5,63,98,2422677812
52,16,19,Jits_Linear_5,3,1,48,48,2422693404
52,16,19,Jits_Linear_5,0,1,48,51,2423272652
52,16,19,Jits_Linear_5,1,5,56,103,2423274840
52,16,19,Jits_Linear_5,2,5,80,127,2423294256
52,16,19,Jits_Linear_5,3,5,63,98,2423304524
52,16,19,Jits_Linear_5,0,5,63,98,2423875076
52,16,19,Jits_Linear_5,1,5,56,103,2423904680
52,16,19,Jits_Linear_5,2,1,48,36,2423912904
52,16,19,Jits_Linear_5,3,5,80,127,2423925136
52,16,19,Jits_Linear_5,0,5,56,103,2424514968
52,16,19,Jits_Linear_5,1,1,48,45,2424523364
52,16,19,Jits_Linear_5,2,5,80,127,2424525012
52,16,19,Jits_Linear_5,3,5,63,98,2424595068
52,16,19,Jits_Linear_5,0,5,63,98,2425124136
52,16,19,Jits_Linear_5,1,5,80,127,2425164076
52,16,19,Jits_Linear_5,2,1,48,55,2425178132
52,16,19,Jits_Linear_5,3,5,56,103,2425205204
52,16,19,Jits_Linear_5,0,1,48,46,2425757024
52,16,19,Jits_Linear_5,1,5,56,103,2425764172
52,16,19,Jits_Linear_5,2,5,63,98,2425774592
52,16,19,Jits_Linear_5,3,5,80,127,2425795196
52,16,19,Jits_Linear_5,0,1,48,45,2426351628
52,16,19,Jits_Linear_5,1,5,63,98,2426435052
52,16,19,Jits_Linear_5,2,5,80,127,2426454376
52,16,19,Jits_Linear_5,3,5,56,103,2426475132
52,16,19,Jits_Linear_5,0,5,56,103,2427004204
52,16,19,Jits_Linear_5,1,1,48,48,2427023884
52,16,19,Jits_Linear_5,2,5,80,127,2427084096
52,16,19,Jits_Linear_5,3,5,63,98,2427094440
52,16,19,Jits_Linear_5,0,5,80,127,2427675124
52,16,19,Jits_Linear_5,1,5,63,98,2427684124
52,16,19,Jits_Linear_5,2,1,48,58,2427687172
52,16,19,Jits_Linear_5,3,5,56,103,2427715212
52,16,19,Jits_Linear_5,0,5,63,98,2428264808
52,16,19,Jits_Linear_5,1,5,80,127,2428304896
52,16,19,Jits_Linear_5,2,1,48,43,2428358160
52,16,19,Jits_Linear_5,3,5,56,103,2428364036
52,16,19,Jits_Linear_5,0,5,63,98,2428905144
52,16,19,Jits_Linear_5,1,1,48,46,2428927300
52,16,19,Jits_Linear_5,2,5,56,103,2428954896
52,16,19,Jits_Linear_5,3,5,80,127,2428984944
52,16,19,Jits_Linear_5,0,1,48,29,2429522960
52,16,19,Jits_Linear_5,1,5,80,127,2429555048
52,16,19,Jits_Linear_5,2,5,63,98,2429564196
52,16,19,Jits_Linear_5,3,5,56,103,2429634936
52,16,19,Jits_Linear_5,0,1,48,41,2430197384
52,16,19,Jits_Linear_5,1,5,80,127,2430264620
52,16,19,Jits_Linear_5,2,5,56,103,2430274808
52,16,19,Jits_Linear_5,3,5,63,98,2430278032
52,16,19,Jits_Linear_5,0,5,56,103,2430844252
52,16,19,Jits_Linear_5,1,5,80,127,2430864936
52,16,19,Jits_Linear_5,2,5,63,98,2430874860
52,16,19,Jits_Linear_5,3,1,48,53,2430879028
52,16,19,Jits_Linear_5,0,5,63,98,2431494572
52,16,19,Jits_Linear_5,1,1,48,47,2431496060
52,16,19,Jits_Linear_5,2,5,56,103,2431534356
52,16,19,Jits_Linear_5,3,5,80,127,2431555112
52,16,19,Jits_Linear_5,0,5,63,98,2432144856
52,16,19,Jits_Linear_5,1,1,48,50,2432147824
52,16,19,Jits_Linear_5,2,5,56,103,2432204068
52,16,19,Jits_Linear_5,3,5,80,127,2432207208
52,16,19,Jits_Linear_5,0,5,56,103,2432754916
52,16,19,Jits_Linear_5,1,5,80,127,2432774628
52,16,19,Jits_Linear_5,2,1,48,42,2432799324
52,16,19,Jits_Linear_5,3,5,63,98,2432814560
52,16,19,Jits_Linear_5,0,1,48,50,2433419556
52,16,19,Jits_Linear_5,1,5,56,103,2433435044
52,16,19,Jits_Linear_5,2,5,63,98,2433454460
52,16,19,Jits_Linear_5,3,5,80,127,2433464804
52,16,19,Jits_Linear_5,0,5,80,127,2434054832
52,16,19,Jits_Linear_5,1,1,48,54,2434065148
52,16,19,Jits_Linear_5,2,5,56,103,2434084208
52,16,19,Jits_Linear_5,3,5,63,98,2434123996
52,16,19,Jits_Linear_5,0,1,48,53,2434708984
52,16,19,Jits_Linear_5,1,5,80,127,2434715104
52,16,19,Jits_Linear_5,2,5,56,103,2434734592
52,16,19,Jits_Linear_5,3,5,63,98,2434795060
52,16,19,Jits_Linear_5,0,1,48,51,2435369924
52,16,19,Jits_Linear_5,1,5,56,103,2435374380
52,16,19,Jits_Linear_5,2,5,80,127,2435394988
52,16,19,Jits_Linear_5,3,5,63,98,2435454260
52,16,19,Jits_Linear_5,0,5,80,127,2436014492
52,16,19,Jits_Linear_5,1,5,56,103,2436024836
52,16,19,Jits_Linear_5,2,1,48,49,2436056580
52,16,19,Jits_Linear_5,3,5,63,98,2436064768
52,16,19,Jits_Linear_5,0,1,48,53,2436662508
52,16,19,Jits_Linear_5,1,5,63,98,2436674888
52,16,19,Jits_Linear_5,2,5,56,103,2436714824
52,16,19,Jits_Linear_5,3,5,80,127,2436718040
52,16,19,Jits_Linear_5,0,1,48,42,2437325300
52,16,19,Jits_Linear_5,1,5,63,98,2437354844
52,16,19,Jits_Linear_5,2,5,80,127,2437394712
52,16,19,Jits_Linear_5,3,5,56,103,2437424672
52,16,19,Jits_Linear_5,0,5,56,103,2438005056
52,16,19,Jits_Linear_5,1,1,48,45,2438014204
52,16,19,Jits_Linear_5,2,5,63,98,2438015692
52,16,19,Jits_Linear_5,3,5,80,127,2438044944
52,16,19,Jits_Linear_5,0,5,80,127,2438664512
52,16,19,Jits_Linear_5,1,1,48,53,2438686660
52,16,19,Jits_Linear_5,2,5,63,98,2438734416
52,16,19,Jits_Linear_5,3,5,56,103,2438744388
52,16,19,Jits_Linear_5,0,5,63,98,2439334236
52,16,19,Jits_Linear_5,1,1,48,49,2439362688
52,16,19,Jits_Linear_5,2,5,56,103,2439405036
52,16,19,Jits_Linear_5,3,5,80,127,2439414108
52,16,19,Jits_Linear_5,0,5,63,98,2440004968
52,16,19,Jits_Linear_5,1,5,56,103,2440024456
52,16,19,Jits_Linear_5,2,1,48,50,2440029596
52,16,19,Jits_Linear_5,3,5,80,127,2440064240
52,16,19,Jits_Linear_5,0,5,56,103,2440684864
52,16,19,Jits_Linear_5,1,1,48,49,2440690076
52,16,19,Jits_Linear_5,2,5,63,98,2440694156
52,16,19,Jits_Linear_5,3,5,80,127,2440775072
52,16,19,Jits_Linear_5,0,5,63,98,2441344444
52,16,19,Jits_Linear_5,1,1,48,46,2441358124
52,16,19,Jits_Linear_5,2,5,56,103,2441375040
52,16,19,Jits_Linear_5,3,5,80,127,2441415052
52,16,19,Jits_Linear_5,0,5,56,103,2442014972
52,16,19,Jits_Linear_5,1,1,48,48,2442047688
52,16,19,Jits_Linear_5,2,5,63,98,2442054908
52,16,19,Jits_Linear_5,3,5,80,127,2442094996
52,16,19,Jits_Linear_5,0,1,48,53,2442675524
52,16,19,Jits_Linear_5,1,5,80,127,2442695024
52,16,19,Jits_Linear_5,2,5,56,103,2442774884
52,16,19,Jits_Linear_5,3,5,63,98,2442785084
52,16,19,Jits_Linear_5,0,5,56,103,2443414760
52,16,19,Jits_Linear_5,1,5,63,98,2443417908
52,16,19,Jits_Linear_5,2,1,48,46,2443422000
52,16,19,Jits_Linear_5,3,5,80,127,2443425328
52,16,19,Jits_Linear_5,0,1,48,42,2444057596
52,16,19,Jits_Linear_5,1,5,56,103,2444114272
52,16,19,Jits_Linear_5,2,5,63,98,2444134808
52,16,19,Jits_Linear_5,3,5,80,127,2444145076
52,16,19,Jits_Linear_5,0,5,63,98,2444754544
52,16,19,Jits_Linear_5,1,5,80,127,2444764516
52,16,19,Jits_Linear_5,2,5,56,103,2444785124
52,16,19,Jits_Linear_5,3,1,48,46,2444798804
52,16,19,Jits_Linear_5,0,5,63,98,2445444680
52,16,19,Jits_Linear_5,1,1,48,53,2445464616
52,16,19,Jits_Linear_5,2,5,56,103,2445524348
52,16,19,Jits_Linear_5,3,5,80,127,2445527488
52,16,19,Jits_Linear_5,0,5,63,98,2446134760
52,16,19,Jits_Linear_5,1,1,48,58,2446152328
52,16,19,Jits_Linear_5,2,5,56,103,2446155068
52,16,19,Jits_Linear_5,3,5,80,127,2446184816
52,16,19,Jits_Linear_5,0,1,48,56,2446789368
52,16,19,Jits_Linear_5,1,5,56,103,2446824764
52,16,19,Jits_Linear_5,2,5,63,98,2446844476
52,16,19,Jits_Linear_5,3,5,80,127,2446854452
52,16,19,Jits_Linear_5,0,1,48,50,2447498912
52,16,19,Jits_Linear_5,1,5,56,103,2447544676
52,16,19,Jits_Linear_5,2,5,63,98,2447574572
52,16,19,Jits_Linear_5,3,5,80,127,2447577864
52,16,19,Jits_Linear_5,0,5,56,103,2448184836
52,16,19,Jits_Linear_5,1,5,63,98,2448224700
52,16,19,Jits_Linear_5,2,1,48,54,2448234644
52,16,19,Jits_Linear_5,3,5,80,127,2448285036
52,16,19,Jits_Linear_5,0,1,48,51,2448865392
52,16,19,Jits_Linear_5,1,5,56,103,2448894336
52,16,19,Jits_Linear_5,2,5,63,98,2448904456
52,16,19,Jits_Linear_5,3,5,80,127,2448964980
52,16,19,Jits_Linear_5,0,1,48,43,2449557316
52,16,19,Jits_Linear_5,1,5,56,103,2449594684
52,16,19,Jits_Linear_5,2,5,80,127,2449614320
52,16,19,Jits_Linear_5,3,5,63,98,2449644972
52,16,19,Jits_Linear_5,0,1,48,52,2450264272
52,16,19,Jits_Linear_5,1,5,80,127,2450294336
52,16,19,Jits_Linear_5,2,5,56,103,2450304460
52,16,19,Jits_Linear_5,3,5,63,98,2450324844
52,16,19,Jits_Linear_5,0,1,48,50,2450975180
52,16,19,Jits_Linear_5,1,5,63,98,2450984420
52,16,19,Jits_Linear_5,2,5,80,127,2451064372
52,16,19,Jits_Linear_5,3,5,56,103,2451074700
52,16,19,Jits_Linear_5,0,1,48,54,2451739292
52,16,19,Jits_Linear_5,1,5,80,127,2451745244
52,16,19,Jits_Linear_5,2,5,56,103,2451764580
52,16,19,Jits_Linear_5,3,5,63,98,2451767572
52,16,19,Jits_Linear_5,0,5,63,98,2452425216
52,16,19,Jits_Linear_5,1,5,80,127,2452428580
52,16,19,Jits_Linear_5,2,1,48,51,2452448636
52,16,19,Jits_Linear_5,3,5,56,103,2452484328
52,16,19,Jits_Linear_5,0,1,48,51,2453109844
52,16,19,Jits_Linear_5,1,5,56,103,2453114216
52,16,19,Jits_Linear_5,2,5,80,127,2453124340
52,16,19,Jits_Linear_5,3,5,63,98,2453164452
52,16,19,Jits_Linear_5,0,5,56,103,2453804312
52,16,19,Jits_Linear_5,1,1,48,51,2453813804
52,16,19,Jits_Linear_5,2,5,63,98,2453864772
52,16,19,Jits_Linear_5,3,5,80,127,2453875192
52,16,19,Jits_Linear_5,0,5,63,98,2454524452
52,16,19,Jits_Linear_5,1,1,48,43,2454536792
52,16,19,Jits_Linear_5,2,5,80,127,2454564316
52,16,19,Jits_Linear_5,3,5,56,103,2454604252
52,16,19,Jits_Linear_5,0,5,56,103,2455235368
52,16,19,Jits_Linear_5,1,1,48,44,2455270928
52,16,19,Jits_Linear_5,2,5,63,98,2455314788
52,16,19,Jits_Linear_5,3,5,80,127,2455318300
52,16,19,Jits_Linear_5,0,1,48,47,2455947884
52,16,19,Jits_Linear_5,1,5,80,127,2456004956
52,16,19,Jits_Linear_5,2,5,56,103,2456034552
52,16,19,Jits_Linear_5,3,5,63,98,2456037624
52,16,19,Jits_Linear_5,0,5,56,103,2456685056
52,16,19,Jits_Linear_5,1,1,48,51,2456695000
52,16,19,Jits_Linear_5,2,5,80,127,2456704316
52,16,19,Jits_Linear_5,3,5,63,98,2456744280
52,16,19,Jits_Linear_5,0,5,80,127,2457384300
52,16,19,Jits_Linear_5,1,1,48,48,2457392208
52,16,19,Jits_Linear_5,2,5,63,98,2457404904
52,16,19,Jits_Linear_5,3,5,56,103,2457464396
52,16,19,Jits_Linear_5,0,5,63,98,2458114412
52,16,19,Jits_Linear_5,1,5,56,103,2458124684
52,16,19,Jits_Linear_5,2,1,48,46,2458159640
52,16,19,Jits_Linear_5,3,5,80,127,2458174956
52,16,19,Jits_Linear_5,0,1,48,44,2458809252
52,16,19,Jits_Linear_5,1,5,56,103,2458825168
52,16,19,Jits_Linear_5,2,5,63,98,2458844508
52,16,19,Jits_Linear_5,3,5,80,127,2458854776
52,16,19,Jits_Linear_5,0,1,48,45,2459477284
52,16,19,Jits_Linear_5,1,5,56,103,2459545216
52,16,19,Jits_Linear_5,2,5,63,98,2459548208
52,16,19,Jits_Linear_5,3,5,80,127,2459564256
52,16,19,Jits_Linear_5,0,1,48,53,2460176868
52,16,19,Jits_Linear_5,1,5,63,98,2460314992
52,16,19,Jits_Linear_5,2,5,56,103,2460344744
52,16,19,Jits_Linear_5,3,5,80,127,2460374272
52,16,19,Jits_Linear_5,0,5,80,127,2461004104
52,16,19,Jits_Linear_5,1,1,48,50,2461022664
52,16,19,Jits_Linear_5,2,5,56,103,2461094184
52,16,19,Jits_Linear_5,3,5,63,98,2461097176
52,16,19,Jits_Linear_5,0,5,56,103,2461734200
52,16,19,Jits_Linear_5,1,5,80,127,2461737344
52,16,19,Jits_Linear_5,2,5,63,98,2461813996
52,16,19,Jits_Linear_5,3,1,48,46,2461840412
52,16,19,Jits_Linear_5,0,1,48,50,2462460808
52,16,19,Jits_Linear_5,1,5,80,127,2462464512
52,16,19,Jits_Linear_5,2,5,63,98,2462524760
52,16,19,Jits_Linear_5,3,5,56,103,2462554568
52,16,19,Jits_Linear_5,0,5,63,98,2463194392
52,16,19,Jits_Linear_5,1,5,80,127,2463204736
52,16,19,Jits_Linear_5,2,1,48,53,2463226736
52,16,19,Jits_Linear_5,3,5,56,103,2463274340
52,16,19,Jits_Linear_5,0,5,56,103,2463945012
52,16,19,Jits_Linear_5,1,1,48,40,2463954728
52,16,19,Jits_Linear_5,2,5,80,127,2463974904
52,16,19,Jits_Linear_5,3,5,63,98,2464024884
52,16,19,Jits_Linear_5,0,1,48,48,2464680104
52,16,19,Jits_Linear_5,1,5,63,98,2464724192
52,16,19,Jits_Linear_5,2,5,56,103,2464755140
52,16,19,Jits_Linear_5,3,5,80,127,2464758280
52,16,19,Jits_Linear_5,0,1,48,48,2465420800
52,16,19,Jits_Linear_5,1,5,63,98,2465464692
52,16,19,Jits_Linear_5,2,5,80,127,2465484028
52,16,19,Jits_Linear_5,3,5,56,103,2465494376
52,16,19,Jits_Linear_5,0,1,48,52,2466183124
52,16,19,Jits_Linear_5,1,5,56,103,2466214192
52,16,19,Jits_Linear_5,2,5,63,98,2466217260
52,16,19,Jits_Linear_5,3,5,80,127,2466234948
52,16,19,Jits_Linear_5,0,1,48,48,2466897396
52,16,19,Jits_Linear_5,1,5,56,103,2466914804
52,16,19,Jits_Linear_5,2,5,63,98,2466925148
52,16,19,Jits_Linear_5,3,5,80,127,2466954752
52,16,19,Jits_Linear_5,0,1,48,48,2467597812
52,16,19,Jits_Linear_5,1,5,63,98,2467685124
52,16,19,Jits_Linear_5,2,5,80,127,2467704080
52,16,19,Jits_Linear_5,3,5,56,103,2467745164
52,16,19,Jits_Linear_5,0,1,48,51,2468432808
52,16,19,Jits_Linear_5,1,5,56,103,2468465120
52,16,19,Jits_Linear_5,2,5,63,98,2468505156
52,16,19,Jits_Linear_5,3,5,80,127,2468508372
52,16,19,Jits_Linear_5,0,5,80,127,2469154308
52,16,19,Jits_Linear_5,1,1,48,58,2469181096
52,16,19,Jits_Linear_5,2,5,56,103,2469195068
52,16,19,Jits_Linear_5,3,5,63,98,2469244220
52,16,19,Jits_Linear_5,0,1,48,54,2469899364
52,16,19,Jits_Linear_5,1,5,56,103,2469964128
52,16,19,Jits_Linear_5,2,5,80,127,2469974472
52,16,19,Jits_Linear_5,3,5,63,98,2470005036
52,16,19,Jits_Linear_5,0,5,56,103,2470664488
52,16,19,Jits_Linear_5,1,1,48,57,2470684844
52,16,19,Jits_Linear_5,2,5,80,127,2470704420
52,16,19,Jits_Linear_5,3,5,63,98,2470754920
52,16,19,Jits_Linear_5,0,1,48,50,2471397104
52,16,19,Jits_Linear_5,1,5,56,103,2471424260
52,16,19,Jits_Linear_5,2,5,80,127,2471464200
52,16,19,Jits_Linear_5,3,5,63,98,2471514460
52,16,19,Jits_Linear_5,0,1,48,40,2472172072
52,16,19,Jits_Linear_5,1,5,80,127,2472174956
52,16,19,Jits_Linear_5,2,5,63,98,2472255128
52,16,19,Jits_Linear_5,3,5,56,103,2472265984
52,16,19,Jits_Linear_5,0,1,48,53,2472977920
52,16,19,Jits_Linear_5,1,5,80,127,2472984992
52,16,19,Jits_Linear_5,2,5,56,103,2472994216
52,16,19,Jits_Linear_5,3,5,63,98,2473014900
52,16,19,Jits_Linear_5,0,1,48,48,2473705164
52,16,19,Jits_Linear_5,1,5,63,98,2473715080
52,16,19,Jits_Linear_5,2,5,56,103,2473784764
52,16,19,Jits_Linear_5,3,5,80,127,2473787832
52,16,19,Jits_Linear_5,0,5,80,127,2474474764
52,16,19,Jits_Linear_5,1,1,48,50,2474478480
52,16,19,Jits_Linear_5,2,5,63,98,2474525188
52,16,19,Jits_Linear_5,3,5,56,103,2474565052
52,16,19,Jits_Linear_5,0,1,48,51,2475247020
52,16,19,Jits_Linear_5,1,5,63,98,2475284808
52,16,19,Jits_Linear_5,2,5,56,103,2475324896
52,16,19,Jits_Linear_5,3,5,80,127,2475334944
52,16,19,Jits_Linear_5,0,1,48,52,2476003936
52,16,19,Jits_Linear_5,1,5,63,98,2476044792
52,16,19,Jits_Linear_5,2,5,56,103,2476065104
52,16,19,Jits_Linear_5,3,5,80,127,2476084888
52,16,19,Jits_Linear_5,0,5,80,127,2476774808
52,16,19,Jits_Linear_5,1,5,56,103,2476785008
52,16,19,Jits_Linear_5,2,1,48,52,2476796740
52,16,19,Jits_Linear_5,3,5,63,98,2476804560
52,16,19,Jits_Linear_5,0,1,48,47,2477552668
52,16,19,Jits_Linear_5,1,5,63,98,2477574804
52,16,19,Jits_Linear_5,2,5,56,103,2477614520
52,16,19,Jits_Linear_5,3,5,80,127,2477644196
52,16,19,Jits_Linear_5,0,1,48,59,2478311156
52,16,19,Jits_Linear_5,1,5,56,103,2478354724
52,16,19,Jits_Linear_5,2,5,63,98,2478384772
52,16,19,Jits_Linear_5,3,5,80,127,2478414136
52,16,19,Jits_Linear_5,0,5,80,127,2479104380
52,16,19,Jits_Linear_5,1,1,48,62,2479123092
52,16,19,Jits_Linear_5,2,5,56,103,2479175032
52,16,19,Jits_Linear_5,3,5,63,98,2479177948
52,16,19,Jits_Linear_5,0,5,56,103,2479894864
52,16,19,Jits_Linear_5,1,1,48,48,2479932140
52,16,19,Jits_Linear_5,2,5,63,98,2479945064
52,16,19,Jits_Linear_5,3,5,80,127,2479974740
52,16,19,Jits_Linear_5,0,1,48,47,2480653424
52,16,19,Jits_Linear_5,1,5,63,98,2480654936
52,16,19,Jits_Linear_5,2,5,80,127,2480658076
52,16,19,Jits_Linear_5,3,5,56,103,2480715104
52,16,19,Jits_Linear_5,0,1,48,47,2481447324
52,16,19,Jits_Linear_5,1,5,56,103,2481464808
52,16,19,Jits_Linear_5,2,5,80,127,2481475004
52,16,19,Jits_Linear_5,3,5,63,98,2481525208
52,16,19,Jits_Linear_5,0,5,63,98,2482224580
52,16,19,Jits_Linear_5,1,5,56,103,2482234776
52,16,19,Jits_Linear_5,2,1,48,54,2482247936
52,16,19,Jits_Linear_5,3,5,80,127,2482264668
52,16,19,Jits_Linear_5,0,1,48,45,2483009548
52,16,19,Jits_Linear_5,1,5,63,98,2483044636
52,16,19,Jits_Linear_5,2,5,80,127,2483047932
52,16,19,Jits_Linear_5,3,5,56,103,2483074616
52,16,19,Jits_Linear_5,0,1,48,55,2483792384
52,16,19,Jits_Linear_5,1,5,63,98,2483854668
52,16,19,Jits_Linear_5,2,5,56,103,2483874104
52,16,19,Jits_Linear_5,3,5,80,127,2483877172
52,16,19,Jits_Linear_5,0,1,48,56,2484602048
52,16,19,Jits_Linear_5,1,5,63,98,2484604160
52,16,19,Jits_Linear_5,2,5,56,103,2484674916
52,16,19,Jits_Linear_5,3,5,80,127,2484694536
52,16,19,Jits_Linear_5,0,5,56,103,2485384456
52,16,19,Jits_Linear_5,1,5,63,98,2485394876
52,16,19,Jits_Linear_5,2,1,48,55,2485441768
52,16,19,Jits_Linear_5,3,5,80,127,2485484804
52,16,19,Jits_Linear_5,0,1,48,53,2486150108
52,16,19,Jits_Linear_5,1,5,56,103,2486194524
52,16,19,Jits_Linear_5,2,5,80,127,2486234392
52,16,19,Jits_Linear_5,3,5,63,98,2486244664
52,16,19,Jits_Linear_5,0,1,48,46,2486954632
52,16,19,Jits_Linear_5,1,5,56,103,2487014896
52,16,19,Jits_Linear_5,2,5,63,98,2487044428
52,16,19,Jits_Linear_5,3,5,80,127,2487074236
52,16,19,Jits_Linear_5,0,5,80,127,2487774524
52,16,19,Jits_Linear_5,1,1,48,52,2487777040
52,16,19,Jits_Linear_5,2,5,63,98,2487814532
52,16,19,Jits_Linear_5,3,5,56,103,2487834916
52,16,19,Jits_Linear_5,0,1,48,53,2488590752
52,16,19,Jits_Linear_5,1,5,56,103,2488624428
52,16,19,Jits_Linear_5,2,5,80,127,2488645036
52,16,19,Jits_Linear_5,3,5,63,98,2488664520
52,16,19,Jits_Linear_5,0,5,63,98,2489404724
52,16,19,Jits_Linear_5,1,5,56,103,2489415140
52,16,19,Jits_Linear_5,2,1,48,48,2489425236
52,16,19,Jits_Linear_5,3,5,80,127,2489474552
52,16,19,Jits_Linear_5,0,5,56,103,2490214756
52,16,19,Jits_Linear_5,1,1,48,54,2490218172
52,16,19,Jits_Linear_5,2,5,63,98,2490284608
52,16,19,Jits_Linear_5,3,5,80,127,2490304844
52,16,19,Jits_Linear_5,0,5,56,103,2491024880
52,16,19,Jits_Linear_5,1,5,63,98,2491054584
52,16,19,Jits_Linear_5,2,5,80,127,2491094524
52,16,19,Jits_Linear_5,3,1,48,50,2491099216
52,16,19,Jits_Linear_5,0,5,63,98,2491824464
52,16,19,Jits_Linear_5,1,1,48,48,2491849308
52,16,19,Jits_Linear_5,2,5,56,103,2491874664
52,16,19,Jits_Linear_5,3,5,80,127,2491885008
52,16,19,Jits_Linear_5,0,1,48,48,2492615432
52,16,19,Jits_Linear_5,1,5,56,103,2492674500
52,16,19,Jits_Linear_5,2,5,63,98,2492724540
52,16,19,Jits_Linear_5,3,5,80,127,2492734960
52,16,19,Jits_Linear_5,0,5,56,103,2493454648
52,16,19,Jits_Linear_5,1,5,63,98,2493464920
52,16,19,Jits_Linear_5,2,1,48,45,2493482284
52,16,19,Jits_Linear_5,3,5,80,127,2493544712
52,16,19,Jits_Linear_5,0,9999,9999,9999,2384662652
52,16,19,Jits_Linear_5,1,9999,9999,9999,2385141844
52,16,19,Jits_Linear_5,2,9999,9999,9999,2385622104
52,16,19,Jits_Linear_5,3,9999,9999,9999,2386102356
52,16,19,Jits_Linear_5,4,9999,9999,9999,2386582632
52,16,19,Jits_Linear_5,5,9999,9999,9999,2387072060
52,16,19,Jits_Linear_5,6,9999,9999,9999,2387562604
52,16,19,Jits_Linear_5,7,9999,9999,9999,2388052044
52,16,19,Jits_Linear_5,8,9999,9999,9999,2388542528
52,16,19,Jits_Linear_5,9,9999,9999,9999,2389032044
52,16,19,Jits_Linear_5,10,9999,9999,9999,2389532796
52,16,19,Jits_Linear_5,11,9999,9999,9999,2390032500
52,16,19,Jits_Linear_5,12,9999,9999,9999,2390532184
52,16,19,Jits_Linear_5,13,9999,9999,9999,2391031872
52,16,19,Jits_Linear_5,14,9999,9999,9999,2391532608
52,16,19,Jits_Linear_5,15,9999,9999,9999,2392042576
52,16,19,Jits_Linear_5,16,9999,9999,9999,2392552528
52,16,19,Jits_Linear_5,17,9999,9999,9999,2393062480
52,16,19,Jits_Linear_5,18,9999,9999,9999,2393572432
52,16,19,Jits_Linear_5,19,9999,9999,9999,2394082400
52,16,19,Jits_Linear_5,20,9999,9999,9999,2394602556
52,16,19,Jits_Linear_5,21,9999,9999,9999,2395122792
52,16,19,Jits_Linear_5,22,9999,9999,9999,2395641972
52,16,19,Jits_Linear_5,23,9999,9999,9999,2396162132
52,16,19,Jits_Linear_5,24,9999,9999,9999,2396682364
52,16,19,Jits_Linear_5,25,9999,9999,9999,2397212776
52,16,19,Jits_Linear_5,26,9999,9999,9999,2397742136
52,16,19,Jits_Linear_5,27,9999,9999,9999,2398272608
52,16,19,Jits_Linear_5,28,9999,9999,9999,2398801980
52,16,19,Jits_Linear_5,29,9999,9999,9999,2399332460
52,16,19,Jits_Linear_5,30,9999,9999,9999,2399872084
52,16,19,Jits_Linear_5,31,9999,9999,9999,2400412792
52,16,19,Jits_Linear_5,32,9999,9999,9999,2400952400
52,16,19,Jits_Linear_5,33,9999,9999,9999,2401492036
52,16,19,Jits_Linear_5,34,9999,9999,9999,2402032720
52,16,19,Jits_Linear_5,35,9999,9999,9999,2402582620
52,16,19,Jits_Linear_5,36,9999,9999,9999,2403132496
52,16,19,Jits_Linear_5,37,9999,9999,9999,2403682384
52,16,19,Jits_Linear_5,38,9999,9999,9999,2404232288
52,16,19,Jits_Linear_5,39,9999,9999,9999,2404782200
52,16,19,Jits_Linear_5,40,9999,9999,9999,2405342276
52,16,19,Jits_Linear_5,41,9999,9999,9999,2405902436
52,16,19,Jits_Linear_5,42,9999,9999,9999,2406462524
52,16,19,Jits_Linear_5,43,9999,9999,9999,2407022672
52,16,19,Jits_Linear_5,44,9999,9999,9999,2407582840
52,16,19,Jits_Linear_5,45,9999,9999,9999,2408162392
52,16,19,Jits_Linear_5,46,9999,9999,9999,2408732728
52,16,19,Jits_Linear_5,47,9999,9999,9999,2409302104
52,16,19,Jits_Linear_5,48,9999,9999,9999,2409872444
52,16,19,Jits_Linear_5,49,9999,9999,9999,2410441844
52,16,19,Jits_Linear_5,50,9999,9999,9999,2411022436
52,16,19,Jits_Linear_5,51,9999,9999,9999,2411602012
52,16,19,Jits_Linear_5,52,9999,9999,9999,2412182628
52,16,19,Jits_Linear_5,53,9999,9999,9999,2412762220
52,16,19,Jits_Linear_5,54,9999,9999,9999,2413342820
52,16,19,Jits_Linear_5,55,9999,9999,9999,2413941872
52,16,19,Jits_Linear_5,56,9999,9999,9999,2414532688
52,16,19,Jits_Linear_5,57,9999,9999,9999,2415122512
52,16,19,Jits_Linear_5,58,9999,9999,9999,2415712332
52,16,19,Jits_Linear_5,59,9999,9999,9999,2416302160
52,16,19,Jits_Linear_5,60,9999,9999,9999,2416902260
52,16,19,Jits_Linear_5,61,9999,9999,9999,2417502264
52,16,19,Jits_Linear_5,62,9999,9999,9999,2418102384
52,16,19,Jits_Linear_5,63,9999,9999,9999,2418702404
52,16,19,Jits_Linear_5,64,9999,9999,9999,2419302484
52,16,19,Jits_Linear_5,65,9999,9999,9999,2419912792
52,16,19,Jits_Linear_5,66,9999,9999,9999,2420532296
52,16,19,Jits_Linear_5,67,9999,9999,9999,2421142628
52,16,19,Jits_Linear_5,68,9999,9999,9999,2421751892
52,16,19,Jits_Linear_5,69,9999,9999,9999,2422362240
52,16,19,Jits_Linear_5,70,9999,9999,9999,2422982712
52,16,19,Jits_Linear_5,71,9999,9999,9999,2423602288
52,16,19,Jits_Linear_5,72,9999,9999,9999,2424222776
52,16,19,Jits_Linear_5,73,9999,9999,9999,2424852604
52,16,19,Jits_Linear_5,74,9999,9999,9999,2425472104
52,16,19,Jits_Linear_5,75,9999,9999,9999,2426101880
52,16,19,Jits_Linear_5,76,9999,9999,9999,2426732608
52,16,19,Jits_Linear_5,77,9999,9999,9999,2427362388
52,16,19,Jits_Linear_5,78,9999,9999,9999,2427992156
52,16,19,Jits_Linear_5,79,9999,9999,9999,2428621944
52,16,19,Jits_Linear_5,80,9999,9999,9999,2429261884
52,16,19,Jits_Linear_5,81,9999,9999,9999,2429901924
52,16,19,Jits_Linear_5,82,9999,9999,9999,2430541940
52,16,19,Jits_Linear_5,83,9999,9999,9999,2431181908
52,16,19,Jits_Linear_5,84,9999,9999,9999,2431821940
52,16,19,Jits_Linear_5,85,9999,9999,9999,2432472164
52,16,19,Jits_Linear_5,86,9999,9999,9999,2433122364
52,16,19,Jits_Linear_5,87,9999,9999,9999,2433772604
52,16,19,Jits_Linear_5,88,9999,9999,9999,2434421836
52,16,19,Jits_Linear_5,89,9999,9999,9999,2435072076
52,16,19,Jits_Linear_5,90,9999,9999,9999,2435732544
52,16,19,Jits_Linear_5,91,9999,9999,9999,2436392052
52,16,19,Jits_Linear_5,92,9999,9999,9999,2437052544
52,16,19,Jits_Linear_5,93,9999,9999,9999,2437711964
52,16,19,Jits_Linear_5,94,9999,9999,9999,2438372452
52,16,19,Jits_Linear_5,95,9999,9999,9999,2439042152
52,16,19,Jits_Linear_5,96,9999,9999,9999,2439711800
52,16,19,Jits_Linear_5,97,9999,9999,9999,2440382552
52,16,19,Jits_Linear_5,98,9999,9999,9999,2441052236
52,16,19,Jits_Linear_5,99,9999,9999,9999,2441721956
52,16,19,Jits_Linear_5,100,9999,9999,9999,2442401852
52,16,19,Jits_Linear_5,101,9999,9999,9999,2443081816
52,16,19,Jits_Linear_5,102,9999,9999,9999,2443762800
52,16,19,Jits_Linear_5,103,9999,9999,9999,2444442716
52,16,19,Jits_Linear_5,104,9999,9999,9999,2445122664
52,16,19,Jits_Linear_5,105,9999,9999,9999,2445811772
52,16,19,Jits_Linear_5,106,9999,9999,9999,2446502008
52,16,19,Jits_Linear_5,107,9999,9999,9999,2447192144
52,16,19,Jits_Linear_5,108,9999,9999,9999,2447882300
52,16,19,Jits_Linear_5,109,9999,9999,9999,2448572536
52,16,19,Jits_Linear_5,110,9999,9999,9999,2449271904
52,16,19,Jits_Linear_5,111,9999,9999,9999,2449972324
52,16,19,Jits_Linear_5,112,9999,9999,9999,2450672748
52,16,19,Jits_Linear_5,113,9999,9999,9999,2451372132
52,16,19,Jits_Linear_5,114,9999,9999,9999,2452072532
52,16,19,Jits_Linear_5,115,9999,9999,9999,2452782168
52,16,19,Jits_Linear_5,116,9999,9999,9999,2453491808
52,16,19,Jits_Linear_5,117,9999,9999,9999,2454202424
52,16,19,Jits_Linear_5,118,9999,9999,9999,2454912056
52,16,19,Jits_Linear_5,119,9999,9999,9999,2455622740
52,16,19,Jits_Linear_5,120,9999,9999,9999,2456342584
52,16,19,Jits_Linear_5,121,9999,9999,9999,2457062492
52,16,19,Jits_Linear_5,122,9999,9999,9999,2457782340
52,16,19,Jits_Linear_5,123,9999,9999,9999,2458502236
52,16,19,Jits_Linear_5,124,9999,9999,9999,2459222136
52,16,19,Jits_Linear_5,125,9999,9999,9999,2459952216
52,16,19,Jits_Linear_5,126,9999,9999,9999,2460682316
52,16,19,Jits_Linear_5,127,9999,9999,9999,2461412472
52,16,19,Jits_Linear_5,128,9999,9999,9999,2462142568
52,16,19,Jits_Linear_5,129,9999,9999,9999,2462872672
52,16,19,Jits_Linear_5,130,9999,9999,9999,2463611956
52,16,19,Jits_Linear_5,131,9999,9999,9999,2464352316
52,16,19,Jits_Linear_5,132,9999,9999,9999,2465092684
52,16,19,Jits_Linear_5,133,9999,9999,9999,2465831996
52,16,19,Jits_Linear_5,134,9999,9999,9999,2466572344
52,16,19,Jits_Linear_5,135,9999,9999,9999,2467321912
52,16,19,Jits_Linear_5,136,9999,9999,9999,2468072536
52,16,19,Jits_Linear_5,137,9999,9999,9999,2468822104
52,16,19,Jits_Linear_5,138,9999,9999,9999,2469572724
52,16,19,Jits_Linear_5,139,9999,9999,9999,2470322240
52,16,19,Jits_Linear_5,140,9999,9999,9999,2471082080
52,16,19,Jits_Linear_5,141,9999,9999,9999,2471841860
52,16,19,Jits_Linear_5,142,9999,9999,9999,2472602744
52,16,19,Jits_Linear_5,143,9999,9999,9999,2473362556
52,16,19,Jits_Linear_5,144,9999,9999,9999,2474122308
52,16,19,Jits_Linear_5,145,9999,9999,9999,2474892408
52,16,19,Jits_Linear_5,146,9999,9999,9999,2475662448
52,16,19,Jits_Linear_5,147,9999,9999,9999,2476432468
52,16,19,Jits_Linear_5,148,9999,9999,9999,2477202484
52,16,19,Jits_Linear_5,149,9999,9999,9999,2477972548
52,16,19,Jits_Linear_5,150,9999,9999,9999,2478751872
52,16,19,Jits_Linear_5,151,9999,9999,9999,2479532152
52,16,19,Jits_Linear_5,152,9999,9999,9999,2480312384
52,16,19,Jits_Linear_5,153,9999,9999,9999,2481092676
52,16,19,Jits_Linear_5,154,9999,9999,9999,2481871992
52,16,19,Jits_Linear_5,155,9999,9999,9999,2482662468
52,16,19,Jits_Linear_5,156,9999,9999,9999,2483451964
52,16,19,Jits_Linear_5,157,9999,9999,9999,2484242512
52,16,19,Jits_Linear_5,158,9999,9999,9999,2485032024
52,16,19,Jits_Linear_5,159,9999,9999,9999,2485822572
52,16,19,Jits_Linear_5,160,9999,9999,9999,2486622284
52,16,19,Jits_Linear_5,161,9999,9999,9999,2487422060
52,16,19,Jits_Linear_5,162,9999,9999,9999,2488222828
52,16,19,Jits_Linear_5,163,9999,9999,9999,2489032804
52,16,19,Jits_Linear_5,164,9999,9999,9999,2489842764
52,16,19,Jits_Linear_5,165,9999,9999,9999,2490652724
52,16,19,Jits_Linear_5,166,9999,9999,9999,2491462772
52,16,19,Jits_Linear_5,167,9999,9999,9999,2492272744
52,16,19,Jits_Linear_5,168,9999,9999,9999,2493082732
52,16,19,Jits_Linear_5,169,9999,9999,9999,2493892692
52,17,18,Jits_Linear_8,0,5,56,103,2504912152
52,17,18,Jits_Linear_8,1,5,63,98,2504915172
52,17,18,Jits_Linear_8,2,5,80,127,2504918224
52,17,18,Jits_Linear_8,0,5,56,103,2505732388
52,17,18,Jits_Linear_8,1,5,63,98,2505735484
52,17,18,Jits_Linear_8,2,5,80,127,2505738832
52,17,18,Jits_Linear_8,0,5,80,127,2506492176
52,17,18,Jits_Linear_8,1,5,63,98,2506582316
52,17,18,Jits_Linear_8,2,5,56,103,2506592808
52,17,18,Jits_Linear_8,0,5,56,103,2507332960
52,17,18,Jits_Linear_8,1,5,63,98,2507342184
52,17,18,Jits_Linear_8,2,5,80,127,2507432416
52,17,18,Jits_Linear_8,0,5,63,98,2508122648
52,17,18,Jits_Linear_8,1,1,48,43,2508125392
52,17,18,Jits_Linear_8,2,5,80,127,2508152240
52,17,18,Jits_Linear_8,3,5,56,103,2508182764
52,17,18,Jits_Linear_8,0,1,48,50,2508938392
52,17,18,Jits_Linear_8,1,5,56,103,2508942840
52,17,18,Jits_Linear_8,2,5,80,127,2509043028
52,17,18,Jits_Linear_8,3,5,63,98,2509092108
52,17,18,Jits_Linear_8,0,5,56,103,2509752820
52,17,18,Jits_Linear_8,1,5,80,127,2509802724
52,17,18,Jits_Linear_8,2,5,63,98,2509842888
52,17,18,Jits_Linear_8,3,1,48,49,2509843852
52,17,18,Jits_Linear_8,0,1,48,53,2510557860
52,17,18,Jits_Linear_8,1,5,80,127,2510592360
52,17,18,Jits_Linear_8,2,5,63,98,2510623232
52,17,18,Jits_Linear_8,3,5,56,103,2510692672
52,17,18,Jits_Linear_8,0,1,48,54,2511392688
52,17,18,Jits_Linear_8,1,5,63,98,2511433020
52,17,18,Jits_Linear_8,2,5,56,103,2511462624
52,17,18,Jits_Linear_8,3,5,80,127,2511522128
52,17,18,Jits_Linear_8,0,1,48,53,2512171772
52,17,18,Jits_Linear_8,1,5,56,103,2512182728
52,17,18,Jits_Linear_8,2,5,80,127,2512185872
52,17,18,Jits_Linear_8,3,5,63,98,2512302540
52,17,18,Jits_Linear_8,0,1,48,56,2513043008
52,17,18,Jits_Linear_8,1,5,56,103,2513062288
52,17,18,Jits_Linear_8,2,5,80,127,2513102228
52,17,18,Jits_Linear_8,3,5,63,98,2513112720
52,17,18,Jits_Linear_8,0,1,48,56,2513803032
52,17,18,Jits_Linear_8,1,5,56,103,2513823236
52,17,18,Jits_Linear_8,2,5,80,127,2513842648
52,17,18,Jits_Linear_8,3,5,63,98,2513922724
52,17,18,Jits_Linear_8,0,5,80,127,2514612808
52,17,18,Jits_Linear_8,1,1,48,51,2514648516
52,17,18,Jits_Linear_8,2,5,56,103,2514712980
52,17,18,Jits_Linear_8,3,5,63,98,2514722128
52,17,18,Jits_Linear_8,0,5,63,98,2515382616
52,17,18,Jits_Linear_8,1,5,80,127,2515443008
52,17,18,Jits_Linear_8,2,5,56,103,2515452156
52,17,18,Jits_Linear_8,3,1,48,58,2515463668
52,17,18,Jits_Linear_8,0,1,48,54,2516155876
52,17,18,Jits_Linear_8,1,5,56,103,2516182576
52,17,18,Jits_Linear_8,2,5,63,98,2516253140
52,17,18,Jits_Linear_8,3,5,80,127,2516256580
52,17,18,Jits_Linear_8,0,1,48,54,2516887884
52,17,18,Jits_Linear_8,1,5,63,98,2517012800
52,17,18,Jits_Linear_8,2,5,56,103,2517062924
52,17,18,Jits_Linear_8,3,5,80,127,2517066220
52,17,18,Jits_Linear_8,0,1,48,56,2517740372
52,17,18,Jits_Linear_8,1,5,56,103,2517762512
52,17,18,Jits_Linear_8,2,5,80,127,2517765504
52,17,18,Jits_Linear_8,3,5,63,98,2517852704
52,17,18,Jits_Linear_8,0,1,48,52,2518570476
52,17,18,Jits_Linear_8,1,5,63,98,2518592748
52,17,18,Jits_Linear_8,2,5,56,103,2518682968
52,17,18,Jits_Linear_8,3,5,80,127,2518712568
52,17,18,Jits_Linear_8,0,5,56,103,2519372136
52,17,18,Jits_Linear_8,1,1,48,53,2519405516
52,17,18,Jits_Linear_8,2,5,63,98,2519472628
52,17,18,Jits_Linear_8,3,5,80,127,2519502064
52,17,18,Jits_Linear_8,0,5,63,98,2520182100
52,17,18,Jits_Linear_8,1,5,56,103,2520192444
52,17,18,Jits_Linear_8,2,1,48,49,2520248100
52,17,18,Jits_Linear_8,3,5,80,127,2520282444
52,17,18,Jits_Linear_8,0,5,63,98,2520982852
52,17,18,Jits_Linear_8,1,1,48,55,2521006204
52,17,18,Jits_Linear_8,2,5,56,103,2521062720
52,17,18,Jits_Linear_8,3,5,80,127,2521065784
52,17,18,Jits_Linear_8,0,5,80,127,2521722344
52,17,18,Jits_Linear_8,1,5,63,98,2521742656
52,17,18,Jits_Linear_8,2,5,56,103,2521803068
52,17,18,Jits_Linear_8,3,1,48,52,2521850324
52,17,18,Jits_Linear_8,0,5,56,103,2522542444
52,17,18,Jits_Linear_8,1,1,48,54,2522552984
52,17,18,Jits_Linear_8,2,5,63,98,2522563116
52,17,18,Jits_Linear_8,3,5,80,127,2522566332
52,17,18,Jits_Linear_8,0,5,63,98,2523262460
52,17,18,Jits_Linear_8,1,1,48,52,2523320900
52,17,18,Jits_Linear_8,2,5,80,127,2523342124
52,17,18,Jits_Linear_8,3,5,56,103,2523352544
52,17,18,Jits_Linear_8,0,5,63,98,2524072424
52,17,18,Jits_Linear_8,1,5,56,103,2524092736
52,17,18,Jits_Linear_8,2,1,48,58,2524116828
52,17,18,Jits_Linear_8,3,5,80,127,2524142856
52,17,18,Jits_Linear_8,0,5,80,127,2524852548
52,17,18,Jits_Linear_8,1,1,48,56,2524855668
52,17,18,Jits_Linear_8,2,5,63,98,2524892480
52,17,18,Jits_Linear_8,3,5,56,103,2524912940
52,17,18,Jits_Linear_8,0,1,48,51,2525632056
52,17,18,Jits_Linear_8,1,5,56,103,2525662500
52,17,18,Jits_Linear_8,2,5,63,98,2525672920
52,17,18,Jits_Linear_8,3,5,80,127,2525692556
52,17,18,Jits_Linear_8,0,5,56,103,2526363136
52,17,18,Jits_Linear_8,1,1,48,48,2526418172
52,17,18,Jits_Linear_8,2,5,63,98,2526453340
52,17,18,Jits_Linear_8,3,5,80,127,2526512384
52,17,18,Jits_Linear_8,0,5,80,127,2527162832
52,17,18,Jits_Linear_8,1,5,56,103,2527173180
52,17,18,Jits_Linear_8,2,1,48,49,2527213160
52,17,18,Jits_Linear_8,3,5,63,98,2527242556
52,17,18,Jits_Linear_8,0,5,63,98,2527962452
52,17,18,Jits_Linear_8,1,1,48,50,2527978152
52,17,18,Jits_Linear_8,2,5,80,127,2528052584
52,17,18,Jits_Linear_8,3,5,56,103,2528062780
52,17,18,Jits_Linear_8,0,5,63,98,2528662872
52,17,18,Jits_Linear_8,1,5,80,127,2528713224
52,17,18,Jits_Linear_8,2,5,56,103,2528772416
52,17,18,Jits_Linear_8,3,1,48,56,2528782360
52,17,18,Jits_Linear_8,0,5,56,103,2529452360
52,17,18,Jits_Linear_8,1,5,80,127,2529502568
52,17,18,Jits_Linear_8,2,5,63,98,2529523248
52,17,18,Jits_Linear_8,3,1,48,48,2529542780
52,17,18,Jits_Linear_8,0,5,56,103,2530182504
52,17,18,Jits_Linear_8,1,1,48,46,2530241332
52,17,18,Jits_Linear_8,2,5,80,127,2530242916
52,17,18,Jits_Linear_8,3,5,63,98,2530312596
52,17,18,Jits_Linear_8,0,5,56,103,2530942264
52,17,18,Jits_Linear_8,1,5,80,127,2530973308
52,17,18,Jits_Linear_8,2,1,48,55,2530993588
52,17,18,Jits_Linear_8,3,5,63,98,2531002756
52,17,18,Jits_Linear_8,0,5,56,103,2531752244
52,17,18,Jits_Linear_8,1,1,48,51,2531757828
52,17,18,Jits_Linear_8,2,5,80,127,2531772696
52,17,18,Jits_Linear_8,3,5,63,98,2531832116
52,17,18,Jits_Linear_8,0,1,48,53,2532525308
52,17,18,Jits_Linear_8,1,5,80,127,2532593288
52,17,18,Jits_Linear_8,2,5,56,103,2532602216
52,17,18,Jits_Linear_8,3,5,63,98,2532612336
52,17,18,Jits_Linear_8,0,5,56,103,2533302628
52,17,18,Jits_Linear_8,1,1,48,50,2533324108
52,17,18,Jits_Linear_8,2,5,80,127,2533342636
52,17,18,Jits_Linear_8,3,5,63,98,2533372388
52,17,18,Jits_Linear_8,0,5,56,103,2534022516
52,17,18,Jits_Linear_8,1,5,63,98,2534052220
52,17,18,Jits_Linear_8,2,1,48,49,2534077284
52,17,18,Jits_Linear_8,3,5,80,127,2534092152
52,17,18,Jits_Linear_8,0,5,80,127,2534723092
52,17,18,Jits_Linear_8,1,1,48,53,2534736696
52,17,18,Jits_Linear_8,2,5,63,98,2534773216
52,17,18,Jits_Linear_8,3,5,56,103,2534792552
52,17,18,Jits_Linear_8,0,1,48,57,2535454348
52,17,18,Jits_Linear_8,1,5,56,103,2535502176
52,17,18,Jits_Linear_8,2,5,80,127,2535572992
52,17,18,Jits_Linear_8,3,5,63,98,2535632188
52,17,18,Jits_Linear_8,0,5,80,127,2536242532
52,17,18,Jits_Linear_8,1,1,48,50,2536275468
52,17,18,Jits_Linear_8,2,5,63,98,2536332512
52,17,18,Jits_Linear_8,3,5,56,103,2536353220
52,17,18,Jits_Linear_8,0,5,63,98,2537002376
52,17,18,Jits_Linear_8,1,5,56,103,2537022760
52,17,18,Jits_Linear_8,2,1,48,51,2537059664
52,17,18,Jits_Linear_8,3,5,80,127,2537062916
52,17,18,Jits_Linear_8,0,5,80,127,2537702784
52,17,18,Jits_Linear_8,1,1,48,54,2537707924
52,17,18,Jits_Linear_8,2,5,63,98,2537722340
52,17,18,Jits_Linear_8,3,5,56,103,2537803168
52,17,18,Jits_Linear_8,0,5,63,98,2538432948
52,17,18,Jits_Linear_8,1,1,48,53,2538457040
52,17,18,Jits_Linear_8,2,5,56,103,2538542408
52,17,18,Jits_Linear_8,3,5,80,127,2538545472
52,17,18,Jits_Linear_8,0,5,63,98,2539192688
52,17,18,Jits_Linear_8,1,5,56,103,2539203032
52,17,18,Jits_Linear_8,2,5,80,127,2539205952
52,17,18,Jits_Linear_8,3,1,48,57,2539237912
52,17,18,Jits_Linear_8,0,5,56,103,2539912540
52,17,18,Jits_Linear_8,1,1,48,54,2539931420
52,17,18,Jits_Linear_8,2,5,80,127,2540032348
52,17,18,Jits_Linear_8,3,5,63,98,2540072360
52,17,18,Jits_Linear_8,0,5,56,103,2540662116
52,17,18,Jits_Linear_8,1,5,80,127,2540743136
52,17,18,Jits_Linear_8,2,5,63,98,2540762624
52,17,18,Jits_Linear_8,3,1,48,54,2540783576
52,17,18,Jits_Linear_8,0,5,56,103,2541392216
52,17,18,Jits_Linear_8,1,1,48,55,2541480328
52,17,18,Jits_Linear_8,2,5,63,98,2541502972
52,17,18,Jits_Linear_8,3,5,80,127,2541506336
52,17,18,Jits_Linear_8,0,5,56,103,2542153024
52,17,18,Jits_Linear_8,1,5,80,127,2542182996
52,17,18,Jits_Linear_8,2,1,48,50,2542189636
52,17,18,Jits_Linear_8,3,5,63,98,2542202180
52,17,18,Jits_Linear_8,0,5,63,98,2542863036
52,17,18,Jits_Linear_8,1,5,56,103,2542873160
52,17,18,Jits_Linear_8,2,5,80,127,2542882084
52,17,18,Jits_Linear_8,3,1,48,54,2542910364
52,17,18,Jits_Linear_8,0,5,80,127,2543572288
52,17,18,Jits_Linear_8,1,1,48,49,2543594436
52,17,18,Jits_Linear_8,2,5,56,103,2543622932
52,17,18,Jits_Linear_8,3,5,63,98,2543662572
52,17,18,Jits_Linear_8,0,5,80,127,2544312944
52,17,18,Jits_Linear_8,1,1,48,48,2544327668
52,17,18,Jits_Linear_8,2,5,63,98,2544332052
52,17,18,Jits_Linear_8,3,5,56,103,2544382328
52,17,18,Jits_Linear_8,0,5,80,127,2545042964
52,17,18,Jits_Linear_8,1,5,56,103,2545072492
52,17,18,Jits_Linear_8,2,1,48,58,2545094264
52,17,18,Jits_Linear_8,3,5,63,98,2545142092
52,17,18,Jits_Linear_8,0,5,56,103,2545812848
52,17,18,Jits_Linear_8,1,1,48,48,2545819032
52,17,18,Jits_Linear_8,2,5,80,127,2545823036
52,17,18,Jits_Linear_8,3,5,63,98,2545863048
52,17,18,Jits_Linear_8,0,5,56,103,2546442748
52,17,18,Jits_Linear_8,1,5,63,98,2546463136
52,17,18,Jits_Linear_8,2,5,80,127,2546532740
52,17,18,Jits_Linear_8,3,1,48,52,2546545900
52,17,18,Jits_Linear_8,0,1,48,49,2547170420
52,17,18,Jits_Linear_8,1,5,63,98,2547183024
52,17,18,Jits_Linear_8,2,5,80,127,2547242444
52,17,18,Jits_Linear_8,3,5,56,103,2547262756
52,17,18,Jits_Linear_8,0,5,80,127,2547882248
52,17,18,Jits_Linear_8,1,5,56,103,2547913044
52,17,18,Jits_Linear_8,2,1,48,52,2547919156
52,17,18,Jits_Linear_8,3,5,63,98,2547942936
52,17,18,Jits_Linear_8,0,5,56,103,2548592908
52,17,18,Jits_Linear_8,1,1,48,48,2548640940
52,17,18,Jits_Linear_8,2,5,63,98,2548652420
52,17,18,Jits_Linear_8,3,5,80,127,2548712808
52,17,18,Jits_Linear_8,0,1,48,48,2549284756
52,17,18,Jits_Linear_8,1,5,80,127,2549323144
52,17,18,Jits_Linear_8,2,5,56,103,2549342704
52,17,18,Jits_Linear_8,3,5,63,98,2549412100
52,17,18,Jits_Linear_8,0,5,80,127,2550032780
52,17,18,Jits_Linear_8,1,1,48,52,2550044440
52,17,18,Jits_Linear_8,2,5,63,98,2550052188
52,17,18,Jits_Linear_8,3,5,56,103,2550082836
52,17,18,Jits_Linear_8,0,5,80,127,2550722868
52,17,18,Jits_Linear_8,1,5,63,98,2550742356
52,17,18,Jits_Linear_8,2,1,48,46,2550743320
52,17,18,Jits_Linear_8,3,5,56,103,2550802740
52,17,18,Jits_Linear_8,0,5,80,127,2551422444
52,17,18,Jits_Linear_8,1,1,48,47,2551482684
52,17,18,Jits_Linear_8,2,5,56,103,2551522640
52,17,18,Jits_Linear_8,3,5,63,98,2551552388
52,17,18,Jits_Linear_8,0,5,63,98,2552112464
52,17,18,Jits_Linear_8,1,5,80,127,2552162668
52,17,18,Jits_Linear_8,2,5,56,103,2552182004
52,17,18,Jits_Linear_8,3,1,48,47,2552245148
52,17,18,Jits_Linear_8,0,5,80,127,2552863148
52,17,18,Jits_Linear_8,1,1,48,46,2552867912
52,17,18,Jits_Linear_8,2,5,56,103,2552892816
52,17,18,Jits_Linear_8,3,5,63,98,2552896028
52,17,18,Jits_Linear_8,0,1,48,47,2553536708
52,17,18,Jits_Linear_8,1,5,63,98,2553592108
52,17,18,Jits_Linear_8,2,5,56,103,2553633096
52,17,18,Jits_Linear_8,3,5,80,127,2553652568
52,17,18,Jits_Linear_8,0,5,80,127,2554232120
52,17,18,Jits_Linear_8,1,1,48,42,2554294600
52,17,18,Jits_Linear_8,2,5,63,98,2554312984
52,17,18,Jits_Linear_8,3,5,56,103,2554353144
52,17,18,Jits_Linear_8,0,5,63,98,2554942740
52,17,18,Jits_Linear_8,1,1,48,46,2554994336
52,17,18,Jits_Linear_8,2,5,80,127,2555022684
52,17,18,Jits_Linear_8,3,5,56,103,2555042048
52,17,18,Jits_Linear_8,0,1,48,53,2555666580
52,17,18,Jits_Linear_8,1,5,56,103,2555672900
52,17,18,Jits_Linear_8,2,5,63,98,2555682048
52,17,18,Jits_Linear_8,3,5,80,127,2555723108
52,17,18,Jits_Linear_8,0,5,56,103,2556282344
52,17,18,Jits_Linear_8,1,5,80,127,2556285336
52,17,18,Jits_Linear_8,2,1,48,51,2556355308
52,17,18,Jits_Linear_8,3,5,63,98,2556422536
52,17,18,Jits_Linear_8,0,5,56,103,2556962156
52,17,18,Jits_Linear_8,1,5,63,98,2557052368
52,17,18,Jits_Linear_8,2,1,48,47,2557072528
52,17,18,Jits_Linear_8,3,5,80,127,2557122968
52,17,18,Jits_Linear_8,0,1,48,54,2557707056
52,17,18,Jits_Linear_8,1,5,63,98,2557722968
52,17,18,Jits_Linear_8,2,5,80,127,2557726556
52,17,18,Jits_Linear_8,3,5,56,103,2557782460
52,17,18,Jits_Linear_8,0,1,48,50,2558404772
52,17,18,Jits_Linear_8,1,5,80,127,2558442860
52,17,18,Jits_Linear_8,2,5,56,103,2558462424
52,17,18,Jits_Linear_8,3,5,63,98,2558472468
52,17,18,Jits_Linear_8,0,5,56,103,2559032680
52,17,18,Jits_Linear_8,1,5,63,98,2559042876
52,17,18,Jits_Linear_8,2,5,80,127,2559112484
52,17,18,Jits_Linear_8,3,1,48,51,2559143572
52,17,18,Jits_Linear_8,0,5,80,127,2559712576
52,17,18,Jits_Linear_8,1,5,56,103,2559762928
52,17,18,Jits_Linear_8,2,1,48,50,2559770928
52,17,18,Jits_Linear_8,3,5,63,98,2559812828
52,17,18,Jits_Linear_8,0,1,48,53,2560436792
52,17,18,Jits_Linear_8,1,5,56,103,2560472412
52,17,18,Jits_Linear_8,2,5,63,98,2560482760
52,17,18,Jits_Linear_8,3,5,80,127,2560522696
52,17,18,Jits_Linear_8,0,5,56,103,2561092948
52,17,18,Jits_Linear_8,1,1,48,51,2561131528
52,17,18,Jits_Linear_8,2,5,63,98,2561132956
52,17,18,Jits_Linear_8,3,5,80,127,2561183032
52,17,18,Jits_Linear_8,0,5,80,127,2561722724
52,17,18,Jits_Linear_8,1,5,56,103,2561772776
52,17,18,Jits_Linear_8,2,5,63,98,2561792340
52,17,18,Jits_Linear_8,3,1,48,55,2561821380
52,17,18,Jits_Linear_8,0,5,80,127,2562402740
52,17,18,Jits_Linear_8,1,1,48,51,2562412380
52,17,18,Jits_Linear_8,2,5,63,98,2562463376
52,17,18,Jits_Linear_8,3,5,56,103,2562543156
52,17,18,Jits_Linear_8,0,5,80,127,2563062260
52,17,18,Jits_Linear_8,1,5,56,103,2563103248
52,17,18,Jits_Linear_8,2,5,63,98,2563122436
52,17,18,Jits_Linear_8,3,1,48,54,2563125484
52,17,18,Jits_Linear_8,0,1,48,56,2563772020
52,17,18,Jits_Linear_8,1,5,56,103,2563783276
52,17,18,Jits_Linear_8,2,5,80,127,2563792352
52,17,18,Jits_Linear_8,3,5,63,98,2563832516
52,17,18,Jits_Linear_8,0,1,48,54,2564471728
52,17,18,Jits_Linear_8,1,5,56,103,2564513212
52,17,18,Jits_Linear_8,2,5,63,98,2564553300
52,17,18,Jits_Linear_8,3,5,80,127,2564556664
52,17,18,Jits_Linear_8,0,5,63,98,2565063012
52,17,18,Jits_Linear_8,1,5,80,127,2565102952
52,17,18,Jits_Linear_8,2,1,48,54,2565171040
52,17,18,Jits_Linear_8,3,5,56,103,2565172476
52,17,18,Jits_Linear_8,0,5,63,98,2565712448
52,17,18,Jits_Linear_8,1,5,56,103,2565793316
52,17,18,Jits_Linear_8,2,1,48,54,2565813452
52,17,18,Jits_Linear_8,3,5,80,127,2565852432
52,17,18,Jits_Linear_8,0,5,80,127,2566382892
52,17,18,Jits_Linear_8,1,1,48,48,2566427960
52,17,18,Jits_Linear_8,2,5,63,98,2566433312
52,17,18,Jits_Linear_8,3,5,56,103,2566462764
52,17,18,Jits_Linear_8,0,5,56,103,2567032416
52,17,18,Jits_Linear_8,1,5,63,98,2567082424
52,17,18,Jits_Linear_8,2,5,80,127,2567092616
52,17,18,Jits_Linear_8,3,1,48,54,2567093584
52,17,18,Jits_Linear_8,0,5,56,103,2567702796
52,17,18,Jits_Linear_8,1,1,48,60,2567723672
52,17,18,Jits_Linear_8,2,5,63,98,2567812332
52,17,18,Jits_Linear_8,3,5,80,127,2567832872
52,17,18,Jits_Linear_8,0,5,63,98,2568353324
52,17,18,Jits_Linear_8,1,5,80,127,2568402256
52,17,18,Jits_Linear_8,2,1,48,54,2568417660
52,17,18,Jits_Linear_8,3,5,56,103,2568492456
52,17,18,Jits_Linear_8,0,5,63,98,2568993324
52,17,18,Jits_Linear_8,1,5,80,127,2569022704
52,17,18,Jits_Linear_8,2,1,48,54,2569081640
52,17,18,Jits_Linear_8,3,5,56,103,2569112852
52,17,18,Jits_Linear_8,0,5,63,98,2569642340
52,17,18,Jits_Linear_8,1,5,56,103,2569652536
52,17,18,Jits_Linear_8,2,1,48,51,2569700836
52,17,18,Jits_Linear_8,3,5,80,127,2569753072
52,17,18,Jits_Linear_8,0,1,48,54,2570281856
52,17,18,Jits_Linear_8,1,5,63,98,2570393076
52,17,18,Jits_Linear_8,2,5,80,127,2570422676
52,17,18,Jits_Linear_8,3,5,56,103,2570452204
52,17,18,Jits_Linear_8,0,1,48,50,2571008044
52,17,18,Jits_Linear_8,1,5,80,127,2571052504
52,17,18,Jits_Linear_8,2,5,63,98,2571062628
52,17,18,Jits_Linear_8,3,5,56,103,2571092452
52,17,18,Jits_Linear_8,0,5,80,127,2571593240
52,17,18,Jits_Linear_8,1,5,63,98,2571612432
52,17,18,Jits_Linear_8,2,5,56,103,2571662632
52,17,18,Jits_Linear_8,3,1,48,53,2571715120
52,17,18,Jits_Linear_8,0,5,63,98,2572262628
52,17,18,Jits_Linear_8,1,5,80,127,2572322124
52,17,18,Jits_Linear_8,2,1,48,49,2572325540
52,17,18,Jits_Linear_8,3,5,56,103,2572342576
52,17,18,Jits_Linear_8,0,5,63,98,2572862772
52,17,18,Jits_Linear_8,1,5,56,103,2572912976
52,17,18,Jits_Linear_8,2,5,80,127,2572922272
52,17,18,Jits_Linear_8,3,1,48,57,2572956056
52,17,18,Jits_Linear_8,0,5,56,103,2573532388
52,17,18,Jits_Linear_8,1,5,80,127,2573542732
52,17,18,Jits_Linear_8,2,1,48,53,2573546824
52,17,18,Jits_Linear_8,3,5,63,98,2573643032
52,17,18,Jits_Linear_8,0,5,80,127,2574132544
52,17,18,Jits_Linear_8,1,5,63,98,2574142888
52,17,18,Jits_Linear_8,2,1,48,53,2574218600
52,17,18,Jits_Linear_8,3,5,56,103,2574292448
52,17,18,Jits_Linear_8,0,5,63,98,2574772580
52,17,18,Jits_Linear_8,1,5,80,127,2574812520
52,17,18,Jits_Linear_8,2,1,48,58,2574859832
52,17,18,Jits_Linear_8,3,5,56,103,2574892456
52,17,18,Jits_Linear_8,0,5,56,103,2575393100
52,17,18,Jits_Linear_8,1,1,48,56,2575453388
52,17,18,Jits_Linear_8,2,5,80,127,2575492520
52,17,18,Jits_Linear_8,3,5,63,98,2575513004
52,17,18,Jits_Linear_8,0,1,48,54,2576050260
52,17,18,Jits_Linear_8,1,5,80,127,2576082216
52,17,18,Jits_Linear_8,2,5,56,103,2576092636
52,17,18,Jits_Linear_8,3,5,63,98,2576182676
52,17,18,Jits_Linear_8,0,5,56,103,2576713008
52,17,18,Jits_Linear_8,1,1,48,49,2576724744
52,17,18,Jits_Linear_8,2,5,63,98,2576732488
52,17,18,Jits_Linear_8,3,5,80,127,2576812456
52,17,18,Jits_Linear_8,0,5,63,98,2577282524
52,17,18,Jits_Linear_8,1,5,56,103,2577372536
52,17,18,Jits_Linear_8,2,5,80,127,2577375824
52,17,18,Jits_Linear_8,3,1,48,51,2577380980
52,17,18,Jits_Linear_8,0,5,56,103,2577932876
52,17,18,Jits_Linear_8,1,1,48,55,2577979292
52,17,18,Jits_Linear_8,2,5,80,127,2577993040
52,17,18,Jits_Linear_8,3,5,63,98,2578002340
52,17,18,Jits_Linear_8,0,1,48,57,2578590636
52,17,18,Jits_Linear_8,1,5,80,127,2578602216
52,17,18,Jits_Linear_8,2,5,56,103,2578612560
52,17,18,Jits_Linear_8,3,5,63,98,2578615700
52,17,18,Jits_Linear_8,0,5,56,103,2579183100
52,17,18,Jits_Linear_8,1,5,80,127,2579192028
52,17,18,Jits_Linear_8,2,1,48,60,2579203092
52,17,18,Jits_Linear_8,3,5,63,98,2579212628
52,17,18,Jits_Linear_8,0,5,63,98,2579772768
52,17,18,Jits_Linear_8,1,1,48,55,2579823096
52,17,18,Jits_Linear_8,2,5,80,127,2579832260
52,17,18,Jits_Linear_8,3,5,56,103,2579882264
52,17,18,Jits_Linear_8,0,1,48,59,2580427220
52,17,18,Jits_Linear_8,1,5,63,98,2580472060
52,17,18,Jits_Linear_8,2,5,56,103,2580482328
52,17,18,Jits_Linear_8,3,5,80,127,2580532516
52,17,18,Jits_Linear_8,0,5,63,98,2580982084
52,17,18,Jits_Linear_8,1,5,80,127,2581002844
52,17,18,Jits_Linear_8,2,5,56,103,2581013040
52,17,18,Jits_Linear_8,3,1,48,54,2581068668
52,17,18,Jits_Linear_8,0,5,63,98,2581592484
52,17,18,Jits_Linear_8,1,5,80,127,2581595920
52,17,18,Jits_Linear_8,2,5,56,103,2581632348
52,17,18,Jits_Linear_8,3,1,48,43,2581657212
52,17,18,Jits_Linear_8,0,1,48,45,2582225568
52,17,18,Jits_Linear_8,1,5,63,98,2582272424
52,17,18,Jits_Linear_8,2,5,80,127,2582303000
52,17,18,Jits_Linear_8,3,5,56,103,2582312224
52,17,18,Jits_Linear_8,0,5,56,103,2582832716
52,17,18,Jits_Linear_8,1,1,48,51,2582857556
52,17,18,Jits_Linear_8,2,5,80,127,2582862312
52,17,18,Jits_Linear_8,3,5,63,98,2582892960
52,17,18,Jits_Linear_8,0,1,48,49,2583469716
52,17,18,Jits_Linear_8,1,5,63,98,2583532916
52,17,18,Jits_Linear_8,2,5,56,103,2583572988
52,17,18,Jits_Linear_8,3,5,80,127,2583575908
52,17,18,Jits_Linear_8,0,5,80,127,2584032824
52,17,18,Jits_Linear_8,1,5,56,103,2584112696
52,17,18,Jits_Linear_8,2,1,48,52,2584127800
52,17,18,Jits_Linear_8,3,5,63,98,2584162816
52,17,18,Jits_Linear_8,0,5,80,127,2584612232
52,17,18,Jits_Linear_8,1,5,56,103,2584632840
52,17,18,Jits_Linear_8,2,5,63,98,2584722848
52,17,18,Jits_Linear_8,3,1,48,51,2584731668
52,17,18,Jits_Linear_8,0,5,80,127,2585262384
52,17,18,Jits_Linear_8,1,1,48,50,2585301944
52,17,18,Jits_Linear_8,2,5,63,98,2585303584
52,17,18,Jits_Linear_8,3,5,56,103,2585342256
52,17,18,Jits_Linear_8,0,5,63,98,2585832796
52,17,18,Jits_Linear_8,1,1,48,50,2585870764
52,17,18,Jits_Linear_8,2,5,80,127,2585892136
52,17,18,Jits_Linear_8,3,5,56,103,2585922860
52,17,18,Jits_Linear_8,0,5,56,103,2586432864
52,17,18,Jits_Linear_8,1,1,48,53,2586453668
52,17,18,Jits_Linear_8,2,5,80,127,2586462832
52,17,18,Jits_Linear_8,3,5,63,98,2586552680
52,17,18,Jits_Linear_8,0,5,56,103,2587032900
52,17,18,Jits_Linear_8,1,1,48,48,2587081128
52,17,18,Jits_Linear_8,2,5,80,127,2587142732
52,17,18,Jits_Linear_8,3,5,63,98,2587172184
52,17,18,Jits_Linear_8,0,5,56,103,2587672852
52,17,18,Jits_Linear_8,1,1,48,51,2587689744
52,17,18,Jits_Linear_8,2,5,63,98,2587732188
52,17,18,Jits_Linear_8,3,5,80,127,2587762984
52,17,18,Jits_Linear_8,0,5,56,103,2588232932
52,17,18,Jits_Linear_8,1,5,63,98,2588302644
52,17,18,Jits_Linear_8,2,1,48,53,2588308752
52,17,18,Jits_Linear_8,3,5,80,127,2588322048
52,17,18,Jits_Linear_8,0,5,80,127,2588792040
52,17,18,Jits_Linear_8,1,5,63,98,2588812800
52,17,18,Jits_Linear_8,2,5,56,103,2588862800
52,17,18,Jits_Linear_8,3,1,48,53,2588888760
52,17,18,Jits_Linear_8,0,5,63,98,2589392368
52,17,18,Jits_Linear_8,1,5,80,127,2589402712
52,17,18,Jits_Linear_8,2,5,56,103,2589452840
52,17,18,Jits_Linear_8,3,1,48,48,2589488616
52,17,18,Jits_Linear_8,0,5,63,98,2589972728
52,17,18,Jits_Linear_8,1,1,48,53,2590034664
52,17,18,Jits_Linear_8,2,5,80,127,2590042408
52,17,18,Jits_Linear_8,3,5,56,103,2590062868
52,17,18,Jits_Linear_8,0,5,63,98,2590582096
52,17,18,Jits_Linear_8,1,5,80,127,2590585680
52,17,18,Jits_Linear_8,2,1,48,55,2590586720
52,17,18,Jits_Linear_8,3,5,56,103,2590652840
52,17,18,Jits_Linear_8,0,5,80,127,2591112480
52,17,18,Jits_Linear_8,1,5,56,103,2591133036
52,17,18,Jits_Linear_8,2,5,63,98,2591142336
52,17,18,Jits_Linear_8,3,1,48,52,2591175640
52,17,18,Jits_Linear_8,0,1,48,51,2591705356
52,17,18,Jits_Linear_8,1,5,56,103,2591712724
52,17,18,Jits_Linear_8,2,5,63,98,2591802696
52,17,18,Jits_Linear_8,3,5,80,127,2591805984
52,17,18,Jits_Linear_8,0,5,80,127,2592262748
52,17,18,Jits_Linear_8,1,5,56,103,2592272868
52,17,18,Jits_Linear_8,2,5,63,98,2592292208
52,17,18,Jits_Linear_8,3,1,48,50,2592308656
52,17,18,Jits_Linear_8,0,5,63,98,2592832928
52,17,18,Jits_Linear_8,1,1,48,48,2592884300
52,17,18,Jits_Linear_8,2,5,80,127,2592892492
52,17,18,Jits_Linear_8,3,5,56,103,2592902612
52,17,18,Jits_Linear_8,0,1,48,52,2593464456
52,17,18,Jits_Linear_8,1,5,63,98,2593472872
52,17,18,Jits_Linear_8,2,5,80,127,2593502700
52,17,18,Jits_Linear_8,3,5,56,103,2593542416
52,17,18,Jits_Linear_8,0,5,56,103,2594032948
52,17,18,Jits_Linear_8,1,5,80,127,2594042320
52,17,18,Jits_Linear_8,2,1,48,50,2594046932
52,17,18,Jits_Linear_8,3,5,63,98,2594082028
52,17,18,Jits_Linear_8,0,5,80,127,2594562532
52,17,18,Jits_Linear_8,1,1,48,51,2594620184
52,17,18,Jits_Linear_8,2,5,56,103,2594642476
52,17,18,Jits_Linear_8,3,5,63,98,2594652596
52,17,18,Jits_Linear_8,0,5,80,127,2595172588
52,17,18,Jits_Linear_8,1,1,48,45,2595174148
52,17,18,Jits_Linear_8,2,5,56,103,2595252556
52,17,18,Jits_Linear_8,3,5,63,98,2595262752
52,17,18,Jits_Linear_8,0,5,80,127,2595692960
52,17,18,Jits_Linear_8,1,5,56,103,2595743040
52,17,18,Jits_Linear_8,2,5,63,98,2595792344
52,17,18,Jits_Linear_8,3,1,48,47,2595793384
52,17,18,Jits_Linear_8,0,5,56,103,2596312476
52,17,18,Jits_Linear_8,1,5,63,98,2596315540
52,17,18,Jits_Linear_8,2,1,48,53,2596336868
52,17,18,Jits_Linear_8,3,5,80,127,2596362592
52,17,18,Jits_Linear_8,0,1,48,49,2596887196
52,17,18,Jits_Linear_8,1,5,56,103,2596892996
52,17,18,Jits_Linear_8,2,5,63,98,2596922672
52,17,18,Jits_Linear_8,3,5,80,127,2596932868
52,17,18,Jits_Linear_8,0,5,63,98,2597363016
52,17,18,Jits_Linear_8,1,5,56,103,2597432552
52,17,18,Jits_Linear_8,2,1,48,56,2597456868
52,17,18,Jits_Linear_8,3,5,80,127,2597482748
52,17,18,Jits_Linear_8,0,5,63,98,2597952900
52,17,18,Jits_Linear_8,1,5,56,103,2597963096
52,17,18,Jits_Linear_8,2,5,80,127,2597966236
52,17,18,Jits_Linear_8,3,1,48,53,2598004048
52,17,18,Jits_Linear_8,0,5,80,127,2598452492
52,17,18,Jits_Linear_8,1,5,56,103,2598512956
52,17,18,Jits_Linear_8,2,1,48,55,2598540044
52,17,18,Jits_Linear_8,3,5,63,98,2598603256
52,17,18,Jits_Linear_8,0,5,80,127,2599002452
52,17,18,Jits_Linear_8,1,1,48,52,2599094456
52,17,18,Jits_Linear_8,2,5,56,103,2599102800
52,17,18,Jits_Linear_8,3,5,63,98,2599142736
52,17,18,Jits_Linear_8,0,5,56,103,2599602492
52,17,18,Jits_Linear_8,1,5,63,98,2599622952
52,17,18,Jits_Linear_8,2,5,80,127,2599662892
52,17,18,Jits_Linear_8,3,1,48,52,2599670512
52,17,18,Jits_Linear_8,0,5,63,98,2600122716
52,17,18,Jits_Linear_8,1,5,56,103,2600142276
52,17,18,Jits_Linear_8,2,1,48,53,2600200000
52,17,18,Jits_Linear_8,3,5,80,127,2600242444
52,17,18,Jits_Linear_8,0,5,63,98,2600652436
52,17,18,Jits_Linear_8,1,1,48,53,2600699528
52,17,18,Jits_Linear_8,2,5,80,127,2600762796
52,17,18,Jits_Linear_8,3,5,56,103,2600792544
52,17,18,Jits_Linear_8,0,5,56,103,2601222544
52,17,18,Jits_Linear_8,1,5,63,98,2601252292
52,17,18,Jits_Linear_8,2,1,48,50,2601288824
52,17,18,Jits_Linear_8,3,5,80,127,2601302488
52,17,18,Jits_Linear_8,0,5,63,98,2601732496
52,17,18,Jits_Linear_8,1,5,56,103,2601762248
52,17,18,Jits_Linear_8,2,1,48,51,2601764840
52,17,18,Jits_Linear_8,3,5,80,127,2601812220
52,17,18,Jits_Linear_8,0,1,48,53,2602257828
52,17,18,Jits_Linear_8,1,5,56,103,2602302888
52,17,18,Jits_Linear_8,2,5,63,98,2602322376
52,17,18,Jits_Linear_8,3,5,80,127,2602402404
52,17,18,Jits_Linear_8,0,1,48,54,2602770552
52,17,18,Jits_Linear_8,1,5,63,98,2602812828
52,17,18,Jits_Linear_8,2,5,56,103,2602872384
52,17,18,Jits_Linear_8,3,5,80,127,2602902832
52,17,18,Jits_Linear_8,0,1,48,51,2603283856
52,17,18,Jits_Linear_8,1,5,56,103,2603392432
52,17,18,Jits_Linear_8,2,5,80,127,2603452848
52,17,18,Jits_Linear_8,3,5,63,98,2603492636
52,17,18,Jits_Linear_8,0,1,48,52,2603815976
52,17,18,Jits_Linear_8,1,5,63,98,2603902392
52,17,18,Jits_Linear_8,2,5,56,103,2603962720
52,17,18,Jits_Linear_8,3,5,80,127,2604032328
52,17,18,Jits_Linear_8,0,1,48,46,2604393504
52,17,18,Jits_Linear_8,1,5,56,103,2604512592
52,17,18,Jits_Linear_8,2,5,63,98,2604522788
52,17,18,Jits_Linear_8,3,5,80,127,2604526376
52,17,18,Jits_Linear_8,0,5,63,98,2604982544
52,17,18,Jits_Linear_8,1,1,48,40,2605000884
52,17,18,Jits_Linear_8,2,5,56,103,2605043080
52,17,18,Jits_Linear_8,3,5,80,127,2605046148
52,17,18,Jits_Linear_8,0,5,63,98,2605492704
52,17,18,Jits_Linear_8,1,5,80,127,2605522304
52,17,18,Jits_Linear_8,2,1,48,40,2605535160
52,17,18,Jits_Linear_8,3,5,56,103,2605542756
52,17,18,Jits_Linear_8,0,5,56,103,2606023240
52,17,18,Jits_Linear_8,1,5,63,98,2606072176
52,17,18,Jits_Linear_8,2,1,48,35,2606086080
52,17,18,Jits_Linear_8,3,5,80,127,2606153160
52,17,18,Jits_Linear_8,0,5,80,127,2606522716
52,17,18,Jits_Linear_8,1,5,63,98,2606562656
52,17,18,Jits_Linear_8,2,5,56,103,2606582216
52,17,18,Jits_Linear_8,3,1,48,41,2606639196
52,17,18,Jits_Linear_8,0,5,56,103,2607112616
52,17,18,Jits_Linear_8,1,5,80,127,2607122812
52,17,18,Jits_Linear_8,2,1,48,41,2607134472
52,17,18,Jits_Linear_8,3,5,63,98,2607142216
52,17,18,Jits_Linear_8,0,5,56,103,2607612236
52,17,18,Jits_Linear_8,1,1,48,40,2607636476
52,17,18,Jits_Linear_8,2,5,63,98,2607662432
52,17,18,Jits_Linear_8,3,5,80,127,2607692256
52,17,18,Jits_Linear_8,0,5,56,103,2608082340
52,17,18,Jits_Linear_8,1,5,63,98,2608092612
52,17,18,Jits_Linear_8,2,1,48,49,2608138432
52,17,18,Jits_Linear_8,3,5,80,127,2608143104
52,17,18,Jits_Linear_8,0,1,48,46,2608550532
52,17,18,Jits_Linear_8,1,5,56,103,2608592208
52,17,18,Jits_Linear_8,2,5,80,127,2608595352
52,17,18,Jits_Linear_8,3,5,63,98,2608753268
52,17,18,Jits_Linear_8,0,5,63,98,2609122676
52,17,18,Jits_Linear_8,1,1,48,49,2609138524
52,17,18,Jits_Linear_8,2,5,56,103,2609192428
52,17,18,Jits_Linear_8,3,5,80,127,2609232292
52,17,18,Jits_Linear_8,0,5,63,98,2609672556
52,17,18,Jits_Linear_8,1,1,48,49,2609696576
52,17,18,Jits_Linear_8,2,5,56,103,2609762528
52,17,18,Jits_Linear_8,3,5,80,127,2609765676
52,17,18,Jits_Linear_8,0,5,56,103,2610163164
52,17,18,Jits_Linear_8,1,5,63,98,2610252104
52,17,18,Jits_Linear_8,2,1,48,45,2610262300
52,17,18,Jits_Linear_8,3,5,80,127,2610263788
52,17,18,Jits_Linear_8,0,5,56,103,2610642412
52,17,18,Jits_Linear_8,1,5,63,98,2610692392
52,17,18,Jits_Linear_8,2,5,80,127,2610722140
52,17,18,Jits_Linear_8,3,1,48,46,2610765336
52,17,18,Jits_Linear_8,0,5,63,98,2611223016
52,17,18,Jits_Linear_8,1,5,80,127,2611233212
52,17,18,Jits_Linear_8,2,1,48,43,2611258732
52,17,18,Jits_Linear_8,3,5,56,103,2611292476
52,17,18,Jits_Linear_8,0,5,63,98,2611642608
52,17,18,Jits_Linear_8,1,5,80,127,2611702180
52,17,18,Jits_Linear_8,2,5,56,103,2611743088
52,17,18,Jits_Linear_8,3,1,48,43,2611760972
52,17,18,Jits_Linear_8,0,1,48,46,2612225912
52,17,18,Jits_Linear_8,1,5,56,103,2612242948
52,17,18,Jits_Linear_8,2,5,80,127,2612262140
52,17,18,Jits_Linear_8,3,5,63,98,2612282820
52,17,18,Jits_Linear_8,0,5,63,98,2612662624
52,17,18,Jits_Linear_8,1,5,56,103,2612683156
52,17,18,Jits_Linear_8,2,1,48,52,2612718560
52,17,18,Jits_Linear_8,3,5,80,127,2612723088
52,17,18,Jits_Linear_8,0,1,48,52,2613172788
52,17,18,Jits_Linear_8,1,5,63,98,2613174196
52,17,18,Jits_Linear_8,2,5,80,127,2613202308
52,17,18,Jits_Linear_8,3,5,56,103,2613222840
52,17,18,Jits_Linear_8,0,5,80,127,2613642472
52,17,18,Jits_Linear_8,1,5,56,103,2613692900
52,17,18,Jits_Linear_8,2,1,48,47,2613707252
52,17,18,Jits_Linear_8,3,5,63,98,2613752308
52,17,18,Jits_Linear_8,0,5,63,98,2614122956
52,17,18,Jits_Linear_8,1,5,56,103,2614242860
52,17,18,Jits_Linear_8,2,1,48,48,2614254000
52,17,18,Jits_Linear_8,3,5,80,127,2614272308
52,17,18,Jits_Linear_8,0,5,80,127,2614652160
52,17,18,Jits_Linear_8,1,5,63,98,2614672868
52,17,18,Jits_Linear_8,2,5,56,103,2614742400
52,17,18,Jits_Linear_8,3,1,48,48,2614798556
52,17,18,Jits_Linear_8,0,5,63,98,2615162344
52,17,18,Jits_Linear_8,1,5,56,103,2615172540
52,17,18,Jits_Linear_8,2,5,80,127,2615252436
52,17,18,Jits_Linear_8,3,1,48,49,2615311220
52,17,18,Jits_Linear_8,0,5,56,103,2615713228
52,17,18,Jits_Linear_8,1,5,80,127,2615742828
52,17,18,Jits_Linear_8,2,5,63,98,2615753024
52,17,18,Jits_Linear_8,3,1,48,49,2615841772
52,17,18,Jits_Linear_8,0,9999,9999,9999,2505320508
52,17,18,Jits_Linear_8,1,9999,9999,9999,2506140768
52,17,18,Jits_Linear_8,2,9999,9999,9999,2506959976
52,17,18,Jits_Linear_8,3,9999,9999,9999,2507780156
52,17,18,Jits_Linear_8,4,9999,9999,9999,2508600384
52,17,18,Jits_Linear_8,5,9999,9999,9999,2509410408
52,17,18,Jits_Linear_8,6,9999,9999,9999,2510220348
52,17,18,Jits_Linear_8,7,9999,9999,9999,2511030328
52,17,18,Jits_Linear_8,8,9999,9999,9999,2511840352
52,17,18,Jits_Linear_8,9,9999,9999,9999,2512650356
52,17,18,Jits_Linear_8,10,9999,9999,9999,2513450112
52,17,18,Jits_Linear_8,11,9999,9999,9999,2514249792
52,17,18,Jits_Linear_8,12,9999,9999,9999,2515050600
52,17,18,Jits_Linear_8,13,9999,9999,9999,2515850364
52,17,18,Jits_Linear_8,14,9999,9999,9999,2516650052
52,17,18,Jits_Linear_8,15,9999,9999,9999,2517440584
52,17,18,Jits_Linear_8,16,9999,9999,9999,2518230136
52,17,18,Jits_Linear_8,17,9999,9999,9999,2519020604
52,17,18,Jits_Linear_8,18,9999,9999,9999,2519810176
52,17,18,Jits_Linear_8,19,9999,9999,9999,2520600656
52,17,18,Jits_Linear_8,20,9999,9999,9999,2521379956
52,17,18,Jits_Linear_8,21,9999,9999,9999,2522160228
52,17,18,Jits_Linear_8,22,9999,9999,9999,2522940508
52,17,18,Jits_Linear_8,23,9999,9999,9999,2523720796
52,17,18,Jits_Linear_8,24,9999,9999,9999,2524510284
52,17,18,Jits_Linear_8,25,9999,9999,9999,2525280368
52,17,18,Jits_Linear_8,26,9999,9999,9999,2526050396
52,17,18,Jits_Linear_8,27,9999,9999,9999,2526820480
52,17,18,Jits_Linear_8,28,9999,9999,9999,2527590504
52,17,18,Jits_Linear_8,29,9999,9999,9999,2528360536
52,17,18,Jits_Linear_8,30,9999,9999,9999,2529120360
52,17,18,Jits_Linear_8,31,9999,9999,9999,2529880184
52,17,18,Jits_Linear_8,32,9999,9999,9999,2530639948
52,17,18,Jits_Linear_8,33,9999,9999,9999,2531400820
52,17,18,Jits_Linear_8,34,9999,9999,9999,2532169800
52,17,18,Jits_Linear_8,35,9999,9999,9999,2532920432
52,17,18,Jits_Linear_8,36,9999,9999,9999,2533670000
52,17,18,Jits_Linear_8,37,9999,9999,9999,2534420548
52,17,18,Jits_Linear_8,38,9999,9999,9999,2535170120
52,17,18,Jits_Linear_8,39,9999,9999,9999,2535920744
52,17,18,Jits_Linear_8,40,9999,9999,9999,2536660048
52,17,18,Jits_Linear_8,41,9999,9999,9999,2537400408
52,17,18,Jits_Linear_8,42,9999,9999,9999,2538140744
52,17,18,Jits_Linear_8,43,9999,9999,9999,2538880092
52,17,18,Jits_Linear_8,44,9999,9999,9999,2539620420
52,17,18,Jits_Linear_8,45,9999,9999,9999,2540350580
52,17,18,Jits_Linear_8,46,9999,9999,9999,2541080680
52,17,18,Jits_Linear_8,47,9999,9999,9999,2541810768
52,17,18,Jits_Linear_8,48,9999,9999,9999,2542539892
52,17,18,Jits_Linear_8,49,9999,9999,9999,2543269984
52,17,18,Jits_Linear_8,50,9999,9999,9999,2543989848
52,17,18,Jits_Linear_8,51,9999,9999,9999,2544710728
52,17,18,Jits_Linear_8,52,9999,9999,9999,2545430632
52,17,18,Jits_Linear_8,53,9999,9999,9999,2546150472
52,17,18,Jits_Linear_8,54,9999,9999,9999,2546870372
52,17,18,Jits_Linear_8,55,9999,9999,9999,2547579992
52,17,18,Jits_Linear_8,56,9999,9999,9999,2548290664
52,17,18,Jits_Linear_8,57,9999,9999,9999,2549000304
52,17,18,Jits_Linear_8,58,9999,9999,9999,2549709948
52,17,18,Jits_Linear_8,59,9999,9999,9999,2550420548
52,17,18,Jits_Linear_8,60,9999,9999,9999,2551119976
52,17,18,Jits_Linear_8,61,9999,9999,9999,2551820408
52,17,18,Jits_Linear_8,62,9999,9999,9999,2552520832
52,17,18,Jits_Linear_8,63,9999,9999,9999,2553230428
52,17,18,Jits_Linear_8,64,9999,9999,9999,2553929812
52,17,18,Jits_Linear_8,65,9999,9999,9999,2554619968
52,17,18,Jits_Linear_8,66,9999,9999,9999,2555310140
52,17,18,Jits_Linear_8,67,9999,9999,9999,2556000344
52,17,18,Jits_Linear_8,68,9999,9999,9999,2556690556
52,17,18,Jits_Linear_8,69,9999,9999,9999,2557380720
52,17,18,Jits_Linear_8,70,9999,9999,9999,2558060668
52,17,18,Jits_Linear_8,71,9999,9999,9999,2558740564
52,17,18,Jits_Linear_8,72,9999,9999,9999,2559420520
52,17,18,Jits_Linear_8,73,9999,9999,9999,2560100472
52,17,18,Jits_Linear_8,74,9999,9999,9999,2560780380
52,17,18,Jits_Linear_8,75,9999,9999,9999,2561450076
52,17,18,Jits_Linear_8,76,9999,9999,9999,2562120804
52,17,18,Jits_Linear_8,77,9999,9999,9999,2562800700
52,17,18,Jits_Linear_8,78,9999,9999,9999,2563470452
52,17,18,Jits_Linear_8,79,9999,9999,9999,2564140088
52,17,18,Jits_Linear_8,80,9999,9999,9999,2564800568
52,17,18,Jits_Linear_8,81,9999,9999,9999,2565460044
52,17,18,Jits_Linear_8,82,9999,9999,9999,2566120524
52,17,18,Jits_Linear_8,83,9999,9999,9999,2566780000
52,17,18,Jits_Linear_8,84,9999,9999,9999,2567440484
52,17,18,Jits_Linear_8,85,9999,9999,9999,2568090716
52,17,18,Jits_Linear_8,86,9999,9999,9999,2568739952
52,17,18,Jits_Linear_8,87,9999,9999,9999,2569390160
52,17,18,Jits_Linear_8,88,9999,9999,9999,2570040420
52,17,18,Jits_Linear_8,89,9999,9999,9999,2570690644
52,17,18,Jits_Linear_8,90,9999,9999,9999,2571330652
52,17,18,Jits_Linear_8,91,9999,9999,9999,2571970648
52,17,18,Jits_Linear_8,92,9999,9999,9999,2572610668
52,17,18,Jits_Linear_8,93,9999,9999,9999,2573250616
52,17,18,Jits_Linear_8,94,9999,9999,9999,2573890688
52,17,18,Jits_Linear_8,95,9999,9999,9999,2574520388
52,17,18,Jits_Linear_8,96,9999,9999,9999,2575150140
52,17,18,Jits_Linear_8,97,9999,9999,9999,2575779904
52,17,18,Jits_Linear_8,98,9999,9999,9999,2576410704
52,17,18,Jits_Linear_8,99,9999,9999,9999,2577040472
52,17,18,Jits_Linear_8,100,9999,9999,9999,2577660024
52,17,18,Jits_Linear_8,101,9999,9999,9999,2578280548
52,17,18,Jits_Linear_8,102,9999,9999,9999,2578900052
52,17,18,Jits_Linear_8,103,9999,9999,9999,2579520572
52,17,18,Jits_Linear_8,104,9999,9999,9999,2580140092
52,17,18,Jits_Linear_8,105,9999,9999,9999,2580750432
52,17,18,Jits_Linear_8,106,9999,9999,9999,2581360760
52,17,18,Jits_Linear_8,107,9999,9999,9999,2581969976
52,17,18,Jits_Linear_8,108,9999,9999,9999,2582580316
52,17,18,Jits_Linear_8,109,9999,9999,9999,2583190596
52,17,18,Jits_Linear_8,110,9999,9999,9999,2583790684
52,17,18,Jits_Linear_8,111,9999,9999,9999,2584390752
52,17,18,Jits_Linear_8,112,9999,9999,9999,2584990784
52,17,18,Jits_Linear_8,113,9999,9999,9999,2585600084
52,17,18,Jits_Linear_8,114,9999,9999,9999,2586200168
52,17,18,Jits_Linear_8,115,9999,9999,9999,2586789996
52,17,18,Jits_Linear_8,116,9999,9999,9999,2587379820
52,17,18,Jits_Linear_8,117,9999,9999,9999,2587970624
52,17,18,Jits_Linear_8,118,9999,9999,9999,2588560472
52,17,18,Jits_Linear_8,119,9999,9999,9999,2589150288
52,17,18,Jits_Linear_8,120,9999,9999,9999,2589729916
52,17,18,Jits_Linear_8,121,9999,9999,9999,2590310508
52,17,18,Jits_Linear_8,122,9999,9999,9999,2590890068
52,17,18,Jits_Linear_8,123,9999,9999,9999,2591470652
52,17,18,Jits_Linear_8,124,9999,9999,9999,2592050276
52,17,18,Jits_Linear_8,125,9999,9999,9999,2592620672
52,17,18,Jits_Linear_8,126,9999,9999,9999,2593189984
52,17,18,Jits_Linear_8,127,9999,9999,9999,2593760316
52,17,18,Jits_Linear_8,128,9999,9999,9999,2594330720
52,17,18,Jits_Linear_8,129,9999,9999,9999,2594900088
52,17,18,Jits_Linear_8,130,9999,9999,9999,2595460176
52,17,18,Jits_Linear_8,131,9999,9999,9999,2596020348
52,17,18,Jits_Linear_8,132,9999,9999,9999,2596580420
52,17,18,Jits_Linear_8,133,9999,9999,9999,2597140584
52,17,18,Jits_Linear_8,134,9999,9999,9999,2597700720
52,17,18,Jits_Linear_8,135,9999,9999,9999,2598250584
52,17,18,Jits_Linear_8,136,9999,9999,9999,2598800484
52,17,18,Jits_Linear_8,137,9999,9999,9999,2599350372
52,17,18,Jits_Linear_8,138,9999,9999,9999,2599900264
52,17,18,Jits_Linear_8,139,9999,9999,9999,2600450152
52,17,18,Jits_Linear_8,140,9999,9999,9999,2600990816
52,17,18,Jits_Linear_8,141,9999,9999,9999,2601540692
52,17,18,Jits_Linear_8,142,9999,9999,9999,2602080312
52,17,18,Jits_Linear_8,143,9999,9999,9999,2602619996
52,17,18,Jits_Linear_8,144,9999,9999,9999,2603160676
52,17,18,Jits_Linear_8,145,9999,9999,9999,2603690104
52,17,18,Jits_Linear_8,146,9999,9999,9999,2604220500
52,17,18,Jits_Linear_8,147,9999,9999,9999,2604749920
52,17,18,Jits_Linear_8,148,9999,9999,9999,2605280384
52,17,18,Jits_Linear_8,149,9999,9999,9999,2605810776
52,17,18,Jits_Linear_8,150,9999,9999,9999,2606329936
52,17,18,Jits_Linear_8,151,9999,9999,9999,2606850152
52,17,18,Jits_Linear_8,152,9999,9999,9999,2607370304
52,17,18,Jits_Linear_8,153,9999,9999,9999,2607890532
52,17,18,Jits_Linear_8,154,9999,9999,9999,2608410748
52,17,18,Jits_Linear_8,155,9999,9999,9999,2608920696
52,17,18,Jits_Linear_8,156,9999,9999,9999,2609430640
52,17,18,Jits_Linear_8,157,9999,9999,9999,2609940580
52,17,18,Jits_Linear_8,158,9999,9999,9999,2610450528
52,17,18,Jits_Linear_8,159,9999,9999,9999,2610960484
52,17,18,Jits_Linear_8,160,9999,9999,9999,2611460184
52,17,18,Jits_Linear_8,161,9999,9999,9999,2611959912
52,17,18,Jits_Linear_8,162,9999,9999,9999,2612460644
52,17,18,Jits_Linear_8,163,9999,9999,9999,2612960316
52,17,18,Jits_Linear_8,164,9999,9999,9999,2613460072
52,17,18,Jits_Linear_8,165,9999,9999,9999,2613950580
52,17,18,Jits_Linear_8,166,9999,9999,9999,2614440016
52,17,18,Jits_Linear_8,167,9999,9999,9999,2614930552
52,17,18,Jits_Linear_8,168,9999,9999,9999,2615419964
52,17,18,Jits_Linear_8,169,9999,9999,9999,2615910456
52,18,17,Jits_Phase_5,0,5,56,103,2624969004
52,18,17,Jits_Phase_5,1,5,63,98,2624972100
52,18,17,Jits_Phase_5,2,5,80,127,2624975076
52,18,17,Jits_Phase_5,0,5,56,103,2625468860
52,18,17,Jits_Phase_5,1,5,63,98,2625471884
52,18,17,Jits_Phase_5,2,5,80,127,2625474856
52,18,17,Jits_Phase_5,0,5,56,103,2625968584
52,18,17,Jits_Phase_5,1,5,80,127,2625978856
52,18,17,Jits_Phase_5,2,5,63,98,2625998044
52,18,17,Jits_Phase_5,0,5,63,98,2626418916
52,18,17,Jits_Phase_5,1,5,80,127,2626448764
52,18,17,Jits_Phase_5,2,5,56,103,2626458960
52,18,17,Jits_Phase_5,0,1,48,52,2626878432
52,18,17,Jits_Phase_5,1,5,80,127,2626978112
52,18,17,Jits_Phase_5,2,5,56,103,2626988532
52,18,17,Jits_Phase_5,3,5,63,98,2627019252
52,18,17,Jits_Phase_5,0,1,48,52,2627447864
52,18,17,Jits_Phase_5,1,5,63,98,2627468588
52,18,17,Jits_Phase_5,2,5,56,103,2627498560
52,18,17,Jits_Phase_5,3,5,80,127,2627508756
52,18,17,Jits_Phase_5,0,5,56,103,2627918120
52,18,17,Jits_Phase_5,1,5,63,98,2627968320
52,18,17,Jits_Phase_5,2,1,48,52,2627976688
52,18,17,Jits_Phase_5,3,5,80,127,2627988796
52,18,17,Jits_Phase_5,0,5,80,127,2628418928
52,18,17,Jits_Phase_5,1,1,48,49,2628450740
52,18,17,Jits_Phase_5,2,5,63,98,2628469120
52,18,17,Jits_Phase_5,3,5,56,103,2628509080
52,18,17,Jits_Phase_5,0,5,56,103,2628918612
52,18,17,Jits_Phase_5,1,5,63,98,2628948288
52,18,17,Jits_Phase_5,2,1,48,49,2628983092
52,18,17,Jits_Phase_5,3,5,80,127,2629018880
52,18,17,Jits_Phase_5,0,5,56,103,2629418376
52,18,17,Jits_Phase_5,1,1,48,48,2629436636
52,18,17,Jits_Phase_5,2,5,80,127,2629478760
52,18,17,Jits_Phase_5,3,5,63,98,2629508728
52,18,17,Jits_Phase_5,0,5,56,103,2629928256
52,18,17,Jits_Phase_5,1,5,63,98,2629938748
52,18,17,Jits_Phase_5,2,1,48,49,2629954972
52,18,17,Jits_Phase_5,3,5,80,127,2629978456
52,18,17,Jits_Phase_5,0,5,63,98,2630428988
52,18,17,Jits_Phase_5,1,1,48,54,2630459304
52,18,17,Jits_Phase_5,2,5,80,127,2630508924
52,18,17,Jits_Phase_5,3,5,56,103,2630518220
52,18,17,Jits_Phase_5,0,1,48,59,2630964288
52,18,17,Jits_Phase_5,1,5,63,98,2630979152
52,18,17,Jits_Phase_5,2,5,56,103,2631018792
52,18,17,Jits_Phase_5,3,5,80,127,2631021928
52,18,17,Jits_Phase_5,0,5,56,103,2631438744
52,18,17,Jits_Phase_5,1,5,63,98,2631448940
52,18,17,Jits_Phase_5,2,1,48,54,2631461052
52,18,17,Jits_Phase_5,3,5,80,127,2631488872
52,18,17,Jits_Phase_5,0,5,56,103,2631928168
52,18,17,Jits_Phase_5,1,1,48,58,2631929980
52,18,17,Jits_Phase_5,2,5,63,98,2631932496
52,18,17,Jits_Phase_5,3,5,80,127,2631948620
52,18,17,Jits_Phase_5,0,5,80,127,2632438476
52,18,17,Jits_Phase_5,1,1,48,51,2632442864
52,18,17,Jits_Phase_5,2,5,56,103,2632448668
52,18,17,Jits_Phase_5,3,5,63,98,2632518944
52,18,17,Jits_Phase_5,0,5,63,98,2632928652
52,18,17,Jits_Phase_5,1,5,56,103,2632948960
52,18,17,Jits_Phase_5,2,1,48,51,2632981596
52,18,17,Jits_Phase_5,3,5,80,127,2633028968
52,18,17,Jits_Phase_5,0,1,48,51,2633435328
52,18,17,Jits_Phase_5,1,5,56,103,2633438804
52,18,17,Jits_Phase_5,2,5,80,127,2633478444
52,18,17,Jits_Phase_5,3,5,63,98,2633488640
52,18,17,Jits_Phase_5,0,5,80,127,2633929192
52,18,17,Jits_Phase_5,1,1,48,56,2633930156
52,18,17,Jits_Phase_5,2,5,63,98,2633958860
52,18,17,Jits_Phase_5,3,5,56,103,2633998724
52,18,17,Jits_Phase_5,0,5,56,103,2634448436
52,18,17,Jits_Phase_5,1,1,48,49,2634468940
52,18,17,Jits_Phase_5,2,5,63,98,2634478928
52,18,17,Jits_Phase_5,3,5,80,127,2634529128
52,18,17,Jits_Phase_5,0,5,80,127,2634948876
52,18,17,Jits_Phase_5,1,1,48,51,2634950360
52,18,17,Jits_Phase_5,2,5,56,103,2634988808
52,18,17,Jits_Phase_5,3,5,63,98,2634998328
52,18,17,Jits_Phase_5,0,5,80,127,2635428412
52,18,17,Jits_Phase_5,1,5,63,98,2635468348
52,18,17,Jits_Phase_5,2,1,48,43,2635491316
52,18,17,Jits_Phase_5,3,5,56,103,2635528656
52,18,17,Jits_Phase_5,0,5,56,103,2635928852
52,18,17,Jits_Phase_5,1,5,80,127,2635938300
52,18,17,Jits_Phase_5,2,5,63,98,2636018912
52,18,17,Jits_Phase_5,3,1,48,42,2636025692
52,18,17,Jits_Phase_5,0,5,80,127,2636428612
52,18,17,Jits_Phase_5,1,5,63,98,2636489004
52,18,17,Jits_Phase_5,2,1,48,48,2636490264
52,18,17,Jits_Phase_5,3,5,56,103,2636518820
52,18,17,Jits_Phase_5,0,5,56,103,2636928352
52,18,17,Jits_Phase_5,1,5,80,127,2636988768
52,18,17,Jits_Phase_5,2,1,48,46,2637004688
52,18,17,Jits_Phase_5,3,5,63,98,2637028624
52,18,17,Jits_Phase_5,0,5,56,103,2637478488
52,18,17,Jits_Phase_5,1,1,48,51,2637482876
52,18,17,Jits_Phase_5,2,5,63,98,2637488376
52,18,17,Jits_Phase_5,3,5,80,127,2637491816
52,18,17,Jits_Phase_5,0,5,80,127,2637939260
52,18,17,Jits_Phase_5,1,1,48,50,2637995660
52,18,17,Jits_Phase_5,2,5,63,98,2638028436
52,18,17,Jits_Phase_5,3,5,56,103,2638038336
52,18,17,Jits_Phase_5,0,5,56,103,2638438628
52,18,17,Jits_Phase_5,1,5,63,98,2638441880
52,18,17,Jits_Phase_5,2,5,80,127,2638445000
52,18,17,Jits_Phase_5,3,1,48,47,2638513328
52,18,17,Jits_Phase_5,0,5,80,127,2638959136
52,18,17,Jits_Phase_5,1,1,48,48,2638977020
52,18,17,Jits_Phase_5,2,5,63,98,2639009356
52,18,17,Jits_Phase_5,3,5,56,103,2639038808
52,18,17,Jits_Phase_5,0,5,56,103,2639438148
52,18,17,Jits_Phase_5,1,5,80,127,2639448420
52,18,17,Jits_Phase_5,2,1,48,51,2639469220
52,18,17,Jits_Phase_5,3,5,63,98,2639519084
52,18,17,Jits_Phase_5,0,5,56,103,2639948324
52,18,17,Jits_Phase_5,1,1,48,51,2639953536
52,18,17,Jits_Phase_5,2,5,63,98,2639968552
52,18,17,Jits_Phase_5,3,5,80,127,2640029188
52,18,17,Jits_Phase_5,0,5,80,127,2640428384
52,18,17,Jits_Phase_5,1,1,48,46,2640463340
52,18,17,Jits_Phase_5,2,5,63,98,2640499108
52,18,17,Jits_Phase_5,3,5,56,103,2640518444
52,18,17,Jits_Phase_5,0,5,80,127,2640948528
52,18,17,Jits_Phase_5,1,5,56,103,2640958800
52,18,17,Jits_Phase_5,2,5,63,98,2640969368
52,18,17,Jits_Phase_5,3,1,48,54,2640985372
52,18,17,Jits_Phase_5,0,5,80,127,2641439076
52,18,17,Jits_Phase_5,1,5,56,103,2641458488
52,18,17,Jits_Phase_5,2,1,48,51,2641476656
52,18,17,Jits_Phase_5,3,5,63,98,2641528384
52,18,17,Jits_Phase_5,0,5,56,103,2641949176
52,18,17,Jits_Phase_5,1,5,80,127,2641978628
52,18,17,Jits_Phase_5,2,1,48,48,2641981368
52,18,17,Jits_Phase_5,3,5,63,98,2641998256
52,18,17,Jits_Phase_5,0,5,63,98,2642438376
52,18,17,Jits_Phase_5,1,1,48,45,2642484344
52,18,17,Jits_Phase_5,2,5,56,103,2642499056
52,18,17,Jits_Phase_5,3,5,80,127,2642528584
52,18,17,Jits_Phase_5,0,5,63,98,2642929280
52,18,17,Jits_Phase_5,1,5,80,127,2642932568
52,18,17,Jits_Phase_5,2,1,48,52,2642967388
52,18,17,Jits_Phase_5,3,5,56,103,2643019104
52,18,17,Jits_Phase_5,0,5,56,103,2643448200
52,18,17,Jits_Phase_5,1,1,48,48,2643475584
52,18,17,Jits_Phase_5,2,5,63,98,2643478764
52,18,17,Jits_Phase_5,3,5,80,127,2643518776
52,18,17,Jits_Phase_5,0,5,63,98,2643949008
52,18,17,Jits_Phase_5,1,1,48,55,2643953776
52,18,17,Jits_Phase_5,2,5,56,103,2643988864
52,18,17,Jits_Phase_5,3,5,80,127,2644008276
52,18,17,Jits_Phase_5,0,1,48,45,2644435604
52,18,17,Jits_Phase_5,1,5,63,98,2644458792
52,18,17,Jits_Phase_5,2,5,56,103,2644498732
52,18,17,Jits_Phase_5,3,5,80,127,2644509148
52,18,17,Jits_Phase_5,0,1,48,52,2644933188
52,18,17,Jits_Phase_5,1,5,80,127,2644939360
52,18,17,Jits_Phase_5,2,5,63,98,2645008744
52,18,17,Jits_Phase_5,3,5,56,103,2645028288
52,18,17,Jits_Phase_5,0,5,56,103,2645428560
52,18,17,Jits_Phase_5,1,5,80,127,2645449164
52,18,17,Jits_Phase_5,2,1,48,56,2645467204
52,18,17,Jits_Phase_5,3,5,63,98,2645489168
52,18,17,Jits_Phase_5,0,5,63,98,2645938580
52,18,17,Jits_Phase_5,1,5,80,127,2645959116
52,18,17,Jits_Phase_5,2,1,48,29,2645982536
52,18,17,Jits_Phase_5,3,5,56,103,2645999116
52,18,17,Jits_Phase_5,0,5,63,98,2646438256
52,18,17,Jits_Phase_5,1,5,56,103,2646458712
52,18,17,Jits_Phase_5,2,5,80,127,2646469060
52,18,17,Jits_Phase_5,3,1,48,44,2646491652
52,18,17,Jits_Phase_5,0,5,80,127,2646939268
52,18,17,Jits_Phase_5,1,1,48,51,2646946368
52,18,17,Jits_Phase_5,2,5,56,103,2646958528
52,18,17,Jits_Phase_5,3,5,63,98,2646988128
52,18,17,Jits_Phase_5,0,1,48,42,2647466132
52,18,17,Jits_Phase_5,1,5,56,103,2647508400
52,18,17,Jits_Phase_5,2,5,80,127,2647511468
52,18,17,Jits_Phase_5,3,5,63,98,2647528936
52,18,17,Jits_Phase_5,0,5,63,98,2647928120
52,18,17,Jits_Phase_5,1,5,56,103,2647958868
52,18,17,Jits_Phase_5,2,1,48,38,2647986864
52,18,17,Jits_Phase_5,3,5,80,127,2648018272
52,18,17,Jits_Phase_5,0,1,48,41,2648487124
52,18,17,Jits_Phase_5,1,5,63,98,2648508944
52,18,17,Jits_Phase_5,2,5,56,103,2648519068
52,18,17,Jits_Phase_5,3,5,80,127,2648528144
52,18,17,Jits_Phase_5,0,5,56,103,2648968528
52,18,17,Jits_Phase_5,1,5,80,127,2648998372
52,18,17,Jits_Phase_5,2,1,48,37,2649001936
52,18,17,Jits_Phase_5,3,5,63,98,2649008412
52,18,17,Jits_Phase_5,0,1,48,54,2649464572
52,18,17,Jits_Phase_5,1,5,63,98,2649508164
52,18,17,Jits_Phase_5,2,5,56,103,2649518360
52,18,17,Jits_Phase_5,3,5,80,127,2649538968
52,18,17,Jits_Phase_5,0,5,56,103,2649938144
52,18,17,Jits_Phase_5,1,1,48,54,2649973544
52,18,17,Jits_Phase_5,2,5,63,98,2649998700
52,18,17,Jits_Phase_5,3,5,80,127,2650002284
52,18,17,Jits_Phase_5,0,5,80,127,2650458572
52,18,17,Jits_Phase_5,1,1,48,46,2650464384
52,18,17,Jits_Phase_5,2,5,56,103,2650468688
52,18,17,Jits_Phase_5,3,5,63,98,2650538464
52,18,17,Jits_Phase_5,0,5,80,127,2650949192
52,18,17,Jits_Phase_5,1,1,48,38,2650987380
52,18,17,Jits_Phase_5,2,5,56,103,2651018596
52,18,17,Jits_Phase_5,3,5,63,98,2651029088
52,18,17,Jits_Phase_5,0,5,63,98,2651488592
52,18,17,Jits_Phase_5,1,5,56,103,2651499160
52,18,17,Jits_Phase_5,2,1,48,56,2651514936
52,18,17,Jits_Phase_5,3,5,80,127,2651518488
52,18,17,Jits_Phase_5,0,5,80,127,2651938076
52,18,17,Jits_Phase_5,1,5,63,98,2651998464
52,18,17,Jits_Phase_5,2,1,48,48,2651999428
52,18,17,Jits_Phase_5,3,5,56,103,2652038392
52,18,17,Jits_Phase_5,0,5,56,103,2652478964
52,18,17,Jits_Phase_5,1,5,63,98,2652489088
52,18,17,Jits_Phase_5,2,1,48,46,2652492880
52,18,17,Jits_Phase_5,3,5,80,127,2652528868
52,18,17,Jits_Phase_5,0,5,56,103,2652938948
52,18,17,Jits_Phase_5,1,5,80,127,2652968328
52,18,17,Jits_Phase_5,2,1,48,49,2652988376
52,18,17,Jits_Phase_5,3,5,63,98,2653018520
52,18,17,Jits_Phase_5,0,1,48,52,2653454328
52,18,17,Jits_Phase_5,1,5,56,103,2653478116
52,18,17,Jits_Phase_5,2,5,63,98,2653518128
52,18,17,Jits_Phase_5,3,5,80,127,2653521416
52,18,17,Jits_Phase_5,0,1,48,48,2653961572
52,18,17,Jits_Phase_5,1,5,56,103,2653978980
52,18,17,Jits_Phase_5,2,5,63,98,2653988128
52,18,17,Jits_Phase_5,3,5,80,127,2654008884
52,18,17,Jits_Phase_5,0,1,48,57,2654426496
52,18,17,Jits_Phase_5,1,5,56,103,2654439020
52,18,17,Jits_Phase_5,2,5,80,127,2654441940
52,18,17,Jits_Phase_5,3,5,63,98,2654478808
52,18,17,Jits_Phase_5,0,1,48,51,2654929968
52,18,17,Jits_Phase_5,1,5,63,98,2654978540
52,18,17,Jits_Phase_5,2,5,56,103,2655009264
52,18,17,Jits_Phase_5,3,5,80,127,2655028664
52,18,17,Jits_Phase_5,0,5,80,127,2655448336
52,18,17,Jits_Phase_5,1,1,48,55,2655455716
52,18,17,Jits_Phase_5,2,5,56,103,2655458600
52,18,17,Jits_Phase_5,3,5,63,98,2655469020
52,18,17,Jits_Phase_5,0,5,56,103,2655948024
52,18,17,Jits_Phase_5,1,1,48,47,2655963792
52,18,17,Jits_Phase_5,2,5,80,127,2655989148
52,18,17,Jits_Phase_5,3,5,63,98,2656019120
52,18,17,Jits_Phase_5,0,5,63,98,2656459024
52,18,17,Jits_Phase_5,1,5,80,127,2656468320
52,18,17,Jits_Phase_5,2,1,48,52,2656471144
52,18,17,Jits_Phase_5,3,5,56,103,2656478436
52,18,17,Jits_Phase_5,0,5,56,103,2656948956
52,18,17,Jits_Phase_5,1,1,48,51,2656988416
52,18,17,Jits_Phase_5,2,5,63,98,2657018256
52,18,17,Jits_Phase_5,3,5,80,127,2657028604
52,18,17,Jits_Phase_5,0,5,80,127,2657458760
52,18,17,Jits_Phase_5,1,5,56,103,2657468884
52,18,17,Jits_Phase_5,2,5,63,98,2657518932
52,18,17,Jits_Phase_5,3,1,48,47,2657546320
52,18,17,Jits_Phase_5,0,5,80,127,2657968488
52,18,17,Jits_Phase_5,1,1,48,55,2658012132
52,18,17,Jits_Phase_5,2,5,56,103,2658029020
52,18,17,Jits_Phase_5,3,5,63,98,2658058696
52,18,17,Jits_Phase_5,0,5,56,103,2658468328
52,18,17,Jits_Phase_5,1,5,80,127,2658471168
52,18,17,Jits_Phase_5,2,5,63,98,2658508112
52,18,17,Jits_Phase_5,3,1,48,51,2658529212
52,18,17,Jits_Phase_5,0,5,56,103,2658998572
52,18,17,Jits_Phase_5,1,1,48,51,2658999536
52,18,17,Jits_Phase_5,2,5,63,98,2659028240
52,18,17,Jits_Phase_5,3,5,80,127,2659038508
52,18,17,Jits_Phase_5,0,1,48,46,2659495816
52,18,17,Jits_Phase_5,1,5,63,98,2659508816
52,18,17,Jits_Phase_5,2,5,80,127,2659518864
52,18,17,Jits_Phase_5,3,5,56,103,2659528984
52,18,17,Jits_Phase_5,0,5,80,127,2659958132
52,18,17,Jits_Phase_5,1,1,48,50,2659984644
52,18,17,Jits_Phase_5,2,5,56,103,2660008424
52,18,17,Jits_Phase_5,3,5,63,98,2660011636
52,18,17,Jits_Phase_5,0,5,56,103,2660488672
52,18,17,Jits_Phase_5,1,1,48,48,2660497820
52,18,17,Jits_Phase_5,2,5,80,127,2660509076
52,18,17,Jits_Phase_5,3,5,63,98,2660518376
52,18,17,Jits_Phase_5,0,5,63,98,2660969036
52,18,17,Jits_Phase_5,1,1,48,46,2660969924
52,18,17,Jits_Phase_5,2,5,56,103,2660998628
52,18,17,Jits_Phase_5,3,5,80,127,2661018960
52,18,17,Jits_Phase_5,0,1,48,54,2661460136
52,18,17,Jits_Phase_5,1,5,56,103,2661478664
52,18,17,Jits_Phase_5,2,5,80,127,2661488936
52,18,17,Jits_Phase_5,3,5,63,98,2661558700
52,18,17,Jits_Phase_5,0,5,63,98,2661968160
52,18,17,Jits_Phase_5,1,5,80,127,2662008172
52,18,17,Jits_Phase_5,2,1,48,46,2662027948
52,18,17,Jits_Phase_5,3,5,56,103,2662049100
52,18,17,Jits_Phase_5,0,1,48,54,2662465620
52,18,17,Jits_Phase_5,1,5,56,103,2662478240
52,18,17,Jits_Phase_5,2,5,63,98,2662488512
52,18,17,Jits_Phase_5,3,5,80,127,2662508968
52,18,17,Jits_Phase_5,0,1,48,51,2662981924
52,18,17,Jits_Phase_5,1,5,63,98,2663018816
52,18,17,Jits_Phase_5,2,5,80,127,2663038380
52,18,17,Jits_Phase_5,3,5,56,103,2663058784
52,18,17,Jits_Phase_5,0,5,56,103,2663458264
52,18,17,Jits_Phase_5,1,1,48,56,2663502508
52,18,17,Jits_Phase_5,2,5,80,127,2663539100
52,18,17,Jits_Phase_5,3,5,63,98,2663548324
52,18,17,Jits_Phase_5,0,1,48,53,2663970800
52,18,17,Jits_Phase_5,1,5,80,127,2663998928
52,18,17,Jits_Phase_5,2,5,63,98,2664009124
52,18,17,Jits_Phase_5,3,5,56,103,2664038724
52,18,17,Jits_Phase_5,0,1,48,49,2664455340
52,18,17,Jits_Phase_5,1,5,63,98,2664458892
52,18,17,Jits_Phase_5,2,5,80,127,2664498680
52,18,17,Jits_Phase_5,3,5,56,103,2664558904
52,18,17,Jits_Phase_5,0,5,63,98,2664968984
52,18,17,Jits_Phase_5,1,5,56,103,2665018888
52,18,17,Jits_Phase_5,2,1,48,44,2665027856
52,18,17,Jits_Phase_5,3,5,80,127,2665048628
52,18,17,Jits_Phase_5,0,5,80,127,2665468212
52,18,17,Jits_Phase_5,1,5,63,98,2665478632
52,18,17,Jits_Phase_5,2,1,48,47,2665523172
52,18,17,Jits_Phase_5,3,5,56,103,2665548080
52,18,17,Jits_Phase_5,0,1,48,43,2666013936
52,18,17,Jits_Phase_5,1,5,80,127,2666028580
52,18,17,Jits_Phase_5,2,5,56,103,2666038624
52,18,17,Jits_Phase_5,3,5,63,98,2666041912
52,18,17,Jits_Phase_5,0,5,56,103,2666468844
52,18,17,Jits_Phase_5,1,5,80,127,2666488180
52,18,17,Jits_Phase_5,2,5,63,98,2666498528
52,18,17,Jits_Phase_5,3,1,48,40,2666524188
52,18,17,Jits_Phase_5,0,5,63,98,2666978724
52,18,17,Jits_Phase_5,1,1,48,40,2667016468
52,18,17,Jits_Phase_5,2,5,56,103,2667018660
52,18,17,Jits_Phase_5,3,5,80,127,2667038968
52,18,17,Jits_Phase_5,0,5,63,98,2667478480
52,18,17,Jits_Phase_5,1,1,48,45,2667525640
52,18,17,Jits_Phase_5,2,5,56,103,2667538788
52,18,17,Jits_Phase_5,3,5,80,127,2667542076
52,18,17,Jits_Phase_5,0,5,56,103,2667938068
52,18,17,Jits_Phase_5,1,5,80,127,2667958824
52,18,17,Jits_Phase_5,2,5,63,98,2667998612
52,18,17,Jits_Phase_5,3,1,48,46,2668018968
52,18,17,Jits_Phase_5,0,5,56,103,2668468768
52,18,17,Jits_Phase_5,1,1,48,43,2668477588
52,18,17,Jits_Phase_5,2,5,63,98,2668489072
52,18,17,Jits_Phase_5,3,5,80,127,2668498368
52,18,17,Jits_Phase_5,0,5,80,127,2668938492
52,18,17,Jits_Phase_5,1,1,48,44,2668946640
52,18,17,Jits_Phase_5,2,5,56,103,2668968532
52,18,17,Jits_Phase_5,3,5,63,98,2669008172
52,18,17,Jits_Phase_5,0,1,48,50,2669440888
52,18,17,Jits_Phase_5,1,5,80,127,2669448636
52,18,17,Jits_Phase_5,2,5,56,103,2669469096
52,18,17,Jits_Phase_5,3,5,63,98,2669528660
52,18,17,Jits_Phase_5,0,5,56,103,2669958628
52,18,17,Jits_Phase_5,1,1,48,52,2669976372
52,18,17,Jits_Phase_5,2,5,80,127,2669978956
52,18,17,Jits_Phase_5,3,5,63,98,2670038596
52,18,17,Jits_Phase_5,0,5,80,127,2670438768
52,18,17,Jits_Phase_5,1,5,56,103,2670449112
52,18,17,Jits_Phase_5,2,5,63,98,2670489072
52,18,17,Jits_Phase_5,3,1,48,47,2670512936
52,18,17,Jits_Phase_5,0,5,63,98,2670938452
52,18,17,Jits_Phase_5,1,1,48,48,2670976628
52,18,17,Jits_Phase_5,2,5,56,103,2670978528
52,18,17,Jits_Phase_5,3,5,80,127,2670981444
52,18,17,Jits_Phase_5,0,5,63,98,2671458708
52,18,17,Jits_Phase_5,1,1,48,31,2671484148
52,18,17,Jits_Phase_5,2,5,80,127,2671498664
52,18,17,Jits_Phase_5,3,5,56,103,2671528560
52,18,17,Jits_Phase_5,0,5,56,103,2671948120
52,18,17,Jits_Phase_5,1,5,63,98,2671958616
52,18,17,Jits_Phase_5,2,1,48,53,2671981884
52,18,17,Jits_Phase_5,3,5,80,127,2671988956
52,18,17,Jits_Phase_5,0,5,80,127,2672438592
52,18,17,Jits_Phase_5,1,1,48,57,2672469136
52,18,17,Jits_Phase_5,2,5,63,98,2672508412
52,18,17,Jits_Phase_5,3,5,56,103,2672518532
52,18,17,Jits_Phase_5,0,5,63,98,2672938428
52,18,17,Jits_Phase_5,1,1,48,53,2672981476
52,18,17,Jits_Phase_5,2,5,56,103,2673009076
52,18,17,Jits_Phase_5,3,5,80,127,2673018224
52,18,17,Jits_Phase_5,0,5,63,98,2673418624
52,18,17,Jits_Phase_5,1,5,56,103,2673439012
52,18,17,Jits_Phase_5,2,1,48,45,2673450372
52,18,17,Jits_Phase_5,3,5,80,127,2673479088
52,18,17,Jits_Phase_5,0,5,56,103,2673898968
52,18,17,Jits_Phase_5,1,5,63,98,2673909316
52,18,17,Jits_Phase_5,2,1,48,39,2673935652
52,18,17,Jits_Phase_5,3,5,80,127,2673988948
52,18,17,Jits_Phase_5,0,5,63,98,2674388472
52,18,17,Jits_Phase_5,1,5,56,103,2674419044
52,18,17,Jits_Phase_5,2,1,48,47,2674428236
52,18,17,Jits_Phase_5,3,5,80,127,2674458896
52,18,17,Jits_Phase_5,0,1,48,45,2674887452
52,18,17,Jits_Phase_5,1,5,56,103,2674888964
52,18,17,Jits_Phase_5,2,5,63,98,2674928900
52,18,17,Jits_Phase_5,3,5,80,127,2674968836
52,18,17,Jits_Phase_5,0,1,48,48,2675380140
52,18,17,Jits_Phase_5,1,5,80,127,2675388784
52,18,17,Jits_Phase_5,2,5,56,103,2675468728
52,18,17,Jits_Phase_5,3,5,63,98,2675479060
52,18,17,Jits_Phase_5,0,1,48,43,2675914876
52,18,17,Jits_Phase_5,1,5,56,103,2675928468
52,18,17,Jits_Phase_5,2,5,63,98,2675931756
52,18,17,Jits_Phase_5,3,5,80,127,2675938736
52,18,17,Jits_Phase_5,0,1,48,46,2676414164
52,18,17,Jits_Phase_5,1,5,56,103,2676448588
52,18,17,Jits_Phase_5,2,5,63,98,2676469196
52,18,17,Jits_Phase_5,3,5,80,127,2676478568
52,18,17,Jits_Phase_5,0,5,63,98,2676908492
52,18,17,Jits_Phase_5,1,5,80,127,2676918612
52,18,17,Jits_Phase_5,2,1,48,46,2676926520
52,18,17,Jits_Phase_5,3,5,56,103,2676939436
52,18,17,Jits_Phase_5,0,5,63,98,2677409284
52,18,17,Jits_Phase_5,1,1,48,43,2677431732
52,18,17,Jits_Phase_5,2,5,56,103,2677488996
52,18,17,Jits_Phase_5,3,5,80,127,2677492136
52,18,17,Jits_Phase_5,0,5,63,98,2677908732
52,18,17,Jits_Phase_5,1,5,56,103,2677928364
52,18,17,Jits_Phase_5,2,1,48,44,2677956344
52,18,17,Jits_Phase_5,3,5,80,127,2677959004
52,18,17,Jits_Phase_5,0,5,56,103,2678408776
52,18,17,Jits_Phase_5,1,1,48,40,2678425520
52,18,17,Jits_Phase_5,2,5,63,98,2678429228
52,18,17,Jits_Phase_5,3,5,80,127,2678438452
52,18,17,Jits_Phase_5,0,1,48,46,2678912152
52,18,17,Jits_Phase_5,1,5,56,103,2678948316
52,18,17,Jits_Phase_5,2,5,63,98,2678978804
52,18,17,Jits_Phase_5,3,5,80,127,2678982248
52,18,17,Jits_Phase_5,0,5,56,103,2679398816
52,18,17,Jits_Phase_5,1,1,48,49,2679424704
52,18,17,Jits_Phase_5,2,5,63,98,2679438624
52,18,17,Jits_Phase_5,3,5,80,127,2679499308
52,18,17,Jits_Phase_5,0,5,56,103,2679918960
52,18,17,Jits_Phase_5,1,1,48,48,2679920220
52,18,17,Jits_Phase_5,2,5,63,98,2679928400
52,18,17,Jits_Phase_5,3,5,80,127,2679988660
52,18,17,Jits_Phase_5,0,1,48,47,2680407228
52,18,17,Jits_Phase_5,1,5,56,103,2680418708
52,18,17,Jits_Phase_5,2,5,80,127,2680438268
52,18,17,Jits_Phase_5,3,5,63,98,2680468940
52,18,17,Jits_Phase_5,0,5,80,127,2680918320
52,18,17,Jits_Phase_5,1,1,48,49,2680920184
52,18,17,Jits_Phase_5,2,5,56,103,2680928732
52,18,17,Jits_Phase_5,3,5,63,98,2680949264
52,18,17,Jits_Phase_5,0,5,63,98,2681409012
52,18,17,Jits_Phase_5,1,1,48,49,2681441948
52,18,17,Jits_Phase_5,2,5,80,127,2681488752
52,18,17,Jits_Phase_5,3,5,56,103,2681499244
52,18,17,Jits_Phase_5,0,1,48,51,2681928212
52,18,17,Jits_Phase_5,1,5,80,127,2681998612
52,18,17,Jits_Phase_5,2,5,56,103,2682018248
52,18,17,Jits_Phase_5,3,5,63,98,2682021236
52,18,17,Jits_Phase_5,0,1,48,41,2682450124
52,18,17,Jits_Phase_5,1,5,63,98,2682488356
52,18,17,Jits_Phase_5,2,5,80,127,2682491572
52,18,17,Jits_Phase_5,3,5,56,103,2682548680
52,18,17,Jits_Phase_5,0,1,48,43,2682953832
52,18,17,Jits_Phase_5,1,5,56,103,2682968396
52,18,17,Jits_Phase_5,2,5,80,127,2682978816
52,18,17,Jits_Phase_5,3,5,63,98,2683018484
52,18,17,Jits_Phase_5,0,5,56,103,2683448824
52,18,17,Jits_Phase_5,1,1,48,44,2683486340
52,18,17,Jits_Phase_5,2,5,63,98,2683509280
52,18,17,Jits_Phase_5,3,5,80,127,2683518428
52,18,17,Jits_Phase_5,0,5,63,98,2683958628
52,18,17,Jits_Phase_5,1,1,48,48,2683989840
52,18,17,Jits_Phase_5,2,5,80,127,2683998708
52,18,17,Jits_Phase_5,3,5,56,103,2684038568
52,18,17,Jits_Phase_5,0,5,56,103,2684458300
52,18,17,Jits_Phase_5,1,1,48,46,2684496784
52,18,17,Jits_Phase_5,2,5,63,98,2684538164
52,18,17,Jits_Phase_5,3,5,80,127,2684541524
52,18,17,Jits_Phase_5,0,1,48,39,2684983492
52,18,17,Jits_Phase_5,1,5,80,127,2685018436
52,18,17,Jits_Phase_5,2,5,56,103,2685048184
52,18,17,Jits_Phase_5,3,5,63,98,2685051252
52,18,17,Jits_Phase_5,0,5,56,103,2685478184
52,18,17,Jits_Phase_5,1,5,80,127,2685498936
52,18,17,Jits_Phase_5,2,1,48,44,2685529108
52,18,17,Jits_Phase_5,3,5,63,98,2685538644
52,18,17,Jits_Phase_5,0,5,80,127,2685958540
52,18,17,Jits_Phase_5,1,5,63,98,2685979000
52,18,17,Jits_Phase_5,2,1,48,43,2686018452
52,18,17,Jits_Phase_5,3,5,56,103,2686038260
52,18,17,Jits_Phase_5,0,5,63,98,2686468420
52,18,17,Jits_Phase_5,1,5,56,103,2686478764
52,18,17,Jits_Phase_5,2,1,48,47,2686506072
52,18,17,Jits_Phase_5,3,5,80,127,2686528880
52,18,17,Jits_Phase_5,0,5,56,103,2686959168
52,18,17,Jits_Phase_5,1,5,63,98,2686978284
52,18,17,Jits_Phase_5,2,5,80,127,2686988852
52,18,17,Jits_Phase_5,3,1,48,50,2686991376
52,18,17,Jits_Phase_5,0,5,56,103,2687448444
52,18,17,Jits_Phase_5,1,5,63,98,2687451588
52,18,17,Jits_Phase_5,2,5,80,127,2687469128
52,18,17,Jits_Phase_5,3,1,48,49,2687470168
52,18,17,Jits_Phase_5,0,1,48,48,2687958284
52,18,17,Jits_Phase_5,1,5,63,98,2687989168
52,18,17,Jits_Phase_5,2,5,56,103,2688018992
52,18,17,Jits_Phase_5,3,5,80,127,2688048444
52,18,17,Jits_Phase_5,0,5,80,127,2688449072
52,18,17,Jits_Phase_5,1,1,48,37,2688490248
52,18,17,Jits_Phase_5,2,5,56,103,2688538972
52,18,17,Jits_Phase_5,3,5,63,98,2688542188
52,18,17,Jits_Phase_5,0,5,56,103,2688948676
52,18,17,Jits_Phase_5,1,5,80,127,2688951888
52,18,17,Jits_Phase_5,2,1,48,49,2688975236
52,18,17,Jits_Phase_5,3,5,63,98,2689028532
52,18,17,Jits_Phase_5,0,5,80,127,2689448352
52,18,17,Jits_Phase_5,1,1,48,50,2689477996
52,18,17,Jits_Phase_5,2,5,63,98,2689508736
52,18,17,Jits_Phase_5,3,5,56,103,2689538556
52,18,17,Jits_Phase_5,0,5,63,98,2689949160
52,18,17,Jits_Phase_5,1,5,80,127,2689958236
52,18,17,Jits_Phase_5,2,1,48,51,2689997168
52,18,17,Jits_Phase_5,3,5,56,103,2690029100
52,18,17,Jits_Phase_5,0,1,48,47,2690498924
52,18,17,Jits_Phase_5,1,5,56,103,2690508164
52,18,17,Jits_Phase_5,2,5,80,127,2690538884
52,18,17,Jits_Phase_5,3,5,63,98,2690589084
52,18,17,Jits_Phase_5,0,1,48,44,2691003528
52,18,17,Jits_Phase_5,1,5,63,98,2691108136
52,18,17,Jits_Phase_5,2,5,56,103,2691139232
52,18,17,Jits_Phase_5,3,5,80,127,2691142068
52,18,17,Jits_Phase_5,0,1,48,47,2691529052
52,18,17,Jits_Phase_5,1,5,63,98,2691609016
52,18,17,Jits_Phase_5,2,5,80,127,2691628636
52,18,17,Jits_Phase_5,3,5,56,103,2691638532
52,18,17,Jits_Phase_5,0,1,48,47,2692089412
52,18,17,Jits_Phase_5,1,5,56,103,2692118880
52,18,17,Jits_Phase_5,2,5,63,98,2692121872
52,18,17,Jits_Phase_5,3,5,80,127,2692138440
52,18,17,Jits_Phase_5,0,5,56,103,2692568284
52,18,17,Jits_Phase_5,1,5,63,98,2692578928
52,18,17,Jits_Phase_5,2,1,48,49,2692605860
52,18,17,Jits_Phase_5,3,5,80,127,2692608372
52,18,17,Jits_Phase_5,0,5,63,98,2693088572
52,18,17,Jits_Phase_5,1,1,48,49,2693106516
52,18,17,Jits_Phase_5,2,5,80,127,2693109176
52,18,17,Jits_Phase_5,3,5,56,103,2693149036
52,18,17,Jits_Phase_5,0,5,56,103,2693619116
52,18,17,Jits_Phase_5,1,1,48,43,2693623280
52,18,17,Jits_Phase_5,2,5,63,98,2693659192
52,18,17,Jits_Phase_5,3,5,80,127,2693662480
52,18,17,Jits_Phase_5,0,5,80,127,2694058264
52,18,17,Jits_Phase_5,1,5,56,103,2694098204
52,18,17,Jits_Phase_5,2,1,48,43,2694132108
52,18,17,Jits_Phase_5,3,5,63,98,2694148468
52,18,17,Jits_Phase_5,0,1,48,51,2694593648
52,18,17,Jits_Phase_5,1,5,56,103,2694618704
52,18,17,Jits_Phase_5,2,5,80,127,2694628676
52,18,17,Jits_Phase_5,3,5,63,98,2694658576
52,18,17,Jits_Phase_5,0,5,56,103,2695078236
52,18,17,Jits_Phase_5,1,5,80,127,2695118172
52,18,17,Jits_Phase_5,2,1,48,51,2695119212
52,18,17,Jits_Phase_5,3,5,63,98,2695168440
52,18,17,Jits_Phase_5,0,5,56,103,2695578972
52,18,17,Jits_Phase_5,1,5,80,127,2695618908
52,18,17,Jits_Phase_5,2,1,48,44,2695645244
52,18,17,Jits_Phase_5,3,5,63,98,2695669248
52,18,17,Jits_Phase_5,0,5,80,127,2696068596
52,18,17,Jits_Phase_5,1,1,48,49,2696127184
52,18,17,Jits_Phase_5,2,5,63,98,2696148480
52,18,17,Jits_Phase_5,3,5,56,103,2696158824
52,18,17,Jits_Phase_5,0,5,80,127,2696618432
52,18,17,Jits_Phase_5,1,1,48,51,2696624688
52,18,17,Jits_Phase_5,2,5,56,103,2696628620
52,18,17,Jits_Phase_5,3,5,63,98,2696649080
52,18,17,Jits_Phase_5,0,5,63,98,2697088280
52,18,17,Jits_Phase_5,1,1,48,50,2697123704
52,18,17,Jits_Phase_5,2,5,56,103,2697158948
52,18,17,Jits_Phase_5,3,5,80,127,2697162012
52,18,17,Jits_Phase_5,0,5,80,127,2697578880
52,18,17,Jits_Phase_5,1,1,48,50,2697623824
52,18,17,Jits_Phase_5,2,5,63,98,2697629024
52,18,17,Jits_Phase_5,3,5,56,103,2697668960
52,18,17,Jits_Phase_5,0,5,63,98,2698118576
52,18,17,Jits_Phase_5,1,1,48,40,2698122444
52,18,17,Jits_Phase_5,2,5,56,103,2698158360
52,18,17,Jits_Phase_5,3,5,80,127,2698168924
52,18,17,Jits_Phase_5,0,5,63,98,2698609008
52,18,17,Jits_Phase_5,1,1,48,44,2698628044
52,18,17,Jits_Phase_5,2,5,56,103,2698629684
52,18,17,Jits_Phase_5,3,5,80,127,2698648872
52,18,17,Jits_Phase_5,0,5,80,127,2699068728
52,18,17,Jits_Phase_5,1,5,56,103,2699079148
52,18,17,Jits_Phase_5,2,5,63,98,2699098336
52,18,17,Jits_Phase_5,3,1,48,42,2699136444
52,18,17,Jits_Phase_5,0,1,48,44,2699580888
52,18,17,Jits_Phase_5,1,5,63,98,2699598148
52,18,17,Jits_Phase_5,2,5,56,103,2699638084
52,18,17,Jits_Phase_5,3,5,80,127,2699668832
52,18,17,Jits_Phase_5,0,5,56,103,2700059020
52,18,17,Jits_Phase_5,1,5,63,98,2700088844
52,18,17,Jits_Phase_5,2,1,48,49,2700093536
52,18,17,Jits_Phase_5,3,5,80,127,2700118364
52,18,17,Jits_Phase_5,0,5,80,127,2700478784
52,18,17,Jits_Phase_5,1,5,56,103,2700548684
52,18,17,Jits_Phase_5,2,5,63,98,2700551824
52,18,17,Jits_Phase_5,3,1,48,47,2700554500
52,18,17,Jits_Phase_5,0,5,56,103,2700988880
52,18,17,Jits_Phase_5,1,5,63,98,2701038932
52,18,17,Jits_Phase_5,2,1,48,44,2701041680
52,18,17,Jits_Phase_5,3,5,80,127,2701068600
52,18,17,Jits_Phase_5,0,5,63,98,2701469236
52,18,17,Jits_Phase_5,1,5,80,127,2701472452
52,18,17,Jits_Phase_5,2,1,48,45,2701509516
52,18,17,Jits_Phase_5,3,5,56,103,2701528644
52,18,17,Jits_Phase_5,0,1,48,46,2701961968
52,18,17,Jits_Phase_5,1,5,56,103,2701998560
52,18,17,Jits_Phase_5,2,5,80,127,2702008680
52,18,17,Jits_Phase_5,3,5,63,98,2702058732
52,18,17,Jits_Phase_5,0,5,63,98,2702468624
52,18,17,Jits_Phase_5,1,5,56,103,2702478820
52,18,17,Jits_Phase_5,2,1,48,42,2702490856
52,18,17,Jits_Phase_5,3,5,80,127,2702508560
52,18,17,Jits_Phase_5,0,1,48,39,2702964404
52,18,17,Jits_Phase_5,1,5,63,98,2702999004
52,18,17,Jits_Phase_5,2,5,80,127,2703002588
52,18,17,Jits_Phase_5,3,5,56,103,2703028528
52,18,17,Jits_Phase_5,0,1,48,14,2703504704
52,18,17,Jits_Phase_5,1,5,63,98,2703519048
52,18,17,Jits_Phase_5,2,5,56,103,2703538756
52,18,17,Jits_Phase_5,3,5,80,127,2703541824
52,18,17,Jits_Phase_5,0,5,63,98,2703978840
52,18,17,Jits_Phase_5,1,1,48,49,2704000764
52,18,17,Jits_Phase_5,2,5,56,103,2704048912
52,18,17,Jits_Phase_5,3,5,80,127,2704068848
52,18,17,Jits_Phase_5,0,5,56,103,2704468552
52,18,17,Jits_Phase_5,1,5,63,98,2704478820
52,18,17,Jits_Phase_5,2,1,48,51,2704516016
52,18,17,Jits_Phase_5,3,5,80,127,2704568820
52,18,17,Jits_Phase_5,0,5,56,103,2704988760
52,18,17,Jits_Phase_5,1,1,48,54,2705011808
52,18,17,Jits_Phase_5,2,5,80,127,2705028468
52,18,17,Jits_Phase_5,3,5,63,98,2705038836
52,18,17,Jits_Phase_5,0,1,48,53,2705503620
52,18,17,Jits_Phase_5,1,5,56,103,2705508748
52,18,17,Jits_Phase_5,2,5,63,98,2705538572
52,18,17,Jits_Phase_5,3,5,80,127,2705569096
52,18,17,Jits_Phase_5,0,5,80,127,2705968648
52,18,17,Jits_Phase_5,1,5,63,98,2706008512
52,18,17,Jits_Phase_5,2,1,48,52,2706022792
52,18,17,Jits_Phase_5,3,5,56,103,2706028816
52,18,17,Jits_Phase_5,0,5,56,103,2706508192
52,18,17,Jits_Phase_5,1,1,48,41,2706520528
52,18,17,Jits_Phase_5,2,5,80,127,2706528576
52,18,17,Jits_Phase_5,3,5,63,98,2706549032
52,18,17,Jits_Phase_5,0,5,63,98,2706978144
52,18,17,Jits_Phase_5,1,5,56,103,2706988636
52,18,17,Jits_Phase_5,2,1,48,44,2707022468
52,18,17,Jits_Phase_5,3,5,80,127,2707048720
52,18,17,Jits_Phase_5,0,1,48,38,2707473276
52,18,17,Jits_Phase_5,1,5,56,103,2707478852
52,18,17,Jits_Phase_5,2,5,63,98,2707548684
52,18,17,Jits_Phase_5,3,5,80,127,2707568920
52,18,17,Jits_Phase_5,0,5,56,103,2707978612
52,18,17,Jits_Phase_5,1,5,63,98,2708008288
52,18,17,Jits_Phase_5,2,1,48,44,2708039880
52,18,17,Jits_Phase_5,3,5,80,127,2708048444
52,18,17,Jits_Phase_5,0,5,63,98,2708469084
52,18,17,Jits_Phase_5,1,5,56,103,2708518460
52,18,17,Jits_Phase_5,2,1,48,48,2708519428
52,18,17,Jits_Phase_5,3,5,80,127,2708528576
52,18,17,Jits_Phase_5,0,1,48,43,2709005124
52,18,17,Jits_Phase_5,1,5,56,103,2709019024
52,18,17,Jits_Phase_5,2,5,63,98,2709068180
52,18,17,Jits_Phase_5,3,5,80,127,2709078376
52,18,17,Jits_Phase_5,0,5,56,103,2709489040
52,18,17,Jits_Phase_5,1,5,63,98,2709498488
52,18,17,Jits_Phase_5,2,1,48,40,2709525724
52,18,17,Jits_Phase_5,3,5,80,127,2709579172
52,18,17,Jits_Phase_5,0,9999,9999,9999,2625216584
52,18,17,Jits_Phase_5,1,9999,9999,9999,2625716292
52,18,17,Jits_Phase_5,2,9999,9999,9999,2626216020
52,18,17,Jits_Phase_5,3,9999,9999,9999,2626716788
52,18,17,Jits_Phase_5,4,9999,9999,9999,2627216480
52,18,17,Jits_Phase_5,5,9999,9999,9999,2627716208
52,18,17,Jits_Phase_5,6,9999,9999,9999,2628215872
52,18,17,Jits_Phase_5,7,9999,9999,9999,2628716608
52,18,17,Jits_Phase_5,8,9999,9999,9999,2629216368
52,18,17,Jits_Phase_5,9,9999,9999,9999,2629716060
52,18,17,Jits_Phase_5,10,9999,9999,9999,2630216792
52,18,17,Jits_Phase_5,11,9999,9999,9999,2630726744
52,18,17,Jits_Phase_5,12,9999,9999,9999,2631226492
52,18,17,Jits_Phase_5,13,9999,9999,9999,2631726160
52,18,17,Jits_Phase_5,14,9999,9999,9999,2632225908
52,18,17,Jits_Phase_5,15,9999,9999,9999,2632726644
52,18,17,Jits_Phase_5,16,9999,9999,9999,2633226332
52,18,17,Jits_Phase_5,17,9999,9999,9999,2633726080
52,18,17,Jits_Phase_5,18,9999,9999,9999,2634226800
52,18,17,Jits_Phase_5,19,9999,9999,9999,2634726492
52,18,17,Jits_Phase_5,20,9999,9999,9999,2635226180
52,18,17,Jits_Phase_5,21,9999,9999,9999,2635725948
52,18,17,Jits_Phase_5,22,9999,9999,9999,2636226680
52,18,17,Jits_Phase_5,23,9999,9999,9999,2636726372
52,18,17,Jits_Phase_5,24,9999,9999,9999,2637226064
52,18,17,Jits_Phase_5,25,9999,9999,9999,2637726792
52,18,17,Jits_Phase_5,26,9999,9999,9999,2638236744
52,18,17,Jits_Phase_5,27,9999,9999,9999,2638736480
52,18,17,Jits_Phase_5,28,9999,9999,9999,2639236220
52,18,17,Jits_Phase_5,29,9999,9999,9999,2639735900
52,18,17,Jits_Phase_5,30,9999,9999,9999,2640226376
52,18,17,Jits_Phase_5,31,9999,9999,9999,2640726068
52,18,17,Jits_Phase_5,32,9999,9999,9999,2641225832
52,18,17,Jits_Phase_5,33,9999,9999,9999,2641726568
52,18,17,Jits_Phase_5,34,9999,9999,9999,2642226256
52,18,17,Jits_Phase_5,35,9999,9999,9999,2642725948
52,18,17,Jits_Phase_5,36,9999,9999,9999,2643226728
52,18,17,Jits_Phase_5,37,9999,9999,9999,2643726400
52,18,17,Jits_Phase_5,38,9999,9999,9999,2644226164
52,18,17,Jits_Phase_5,39,9999,9999,9999,2644725844
52,18,17,Jits_Phase_5,40,9999,9999,9999,2645226564
52,18,17,Jits_Phase_5,41,9999,9999,9999,2645726312
52,18,17,Jits_Phase_5,42,9999,9999,9999,2646226000
52,18,17,Jits_Phase_5,43,9999,9999,9999,2646726716
52,18,17,Jits_Phase_5,44,9999,9999,9999,2647226464
52,18,17,Jits_Phase_5,45,9999,9999,9999,2647726152
52,18,17,Jits_Phase_5,46,9999,9999,9999,2648225900
52,18,17,Jits_Phase_5,47,9999,9999,9999,2648726628
52,18,17,Jits_Phase_5,48,9999,9999,9999,2649236560
52,18,17,Jits_Phase_5,49,9999,9999,9999,2649736304
52,18,17,Jits_Phase_5,50,9999,9999,9999,2650235964
52,18,17,Jits_Phase_5,51,9999,9999,9999,2650736700
52,18,17,Jits_Phase_5,52,9999,9999,9999,2651236464
52,18,17,Jits_Phase_5,53,9999,9999,9999,2651736152
52,18,17,Jits_Phase_5,54,9999,9999,9999,2652235832
52,18,17,Jits_Phase_5,55,9999,9999,9999,2652736568
52,18,17,Jits_Phase_5,56,9999,9999,9999,2653236332
52,18,17,Jits_Phase_5,57,9999,9999,9999,2653736016
52,18,17,Jits_Phase_5,58,9999,9999,9999,2654236740
52,18,17,Jits_Phase_5,59,9999,9999,9999,2654736476
52,18,17,Jits_Phase_5,60,9999,9999,9999,2655236156
52,18,17,Jits_Phase_5,61,9999,9999,9999,2655735900
52,18,17,Jits_Phase_5,62,9999,9999,9999,2656236636
52,18,17,Jits_Phase_5,63,9999,9999,9999,2656736324
52,18,17,Jits_Phase_5,64,9999,9999,9999,2657256528
52,18,17,Jits_Phase_5,65,9999,9999,9999,2657756216
52,18,17,Jits_Phase_5,66,9999,9999,9999,2658255984
52,18,17,Jits_Phase_5,67,9999,9999,9999,2658756704
52,18,17,Jits_Phase_5,68,9999,9999,9999,2659256396
52,18,17,Jits_Phase_5,69,9999,9999,9999,2659756088
52,18,17,Jits_Phase_5,70,9999,9999,9999,2660255828
52,18,17,Jits_Phase_5,71,9999,9999,9999,2660756564
52,18,17,Jits_Phase_5,72,9999,9999,9999,2661256300
52,18,17,Jits_Phase_5,73,9999,9999,9999,2661755980
52,18,17,Jits_Phase_5,74,9999,9999,9999,2662256700
52,18,17,Jits_Phase_5,75,9999,9999,9999,2662756448
52,18,17,Jits_Phase_5,76,9999,9999,9999,2663256124
52,18,17,Jits_Phase_5,77,9999,9999,9999,2663755872
52,18,17,Jits_Phase_5,78,9999,9999,9999,2664256608
52,18,17,Jits_Phase_5,79,9999,9999,9999,2664756284
52,18,17,Jits_Phase_5,80,9999,9999,9999,2665256032
52,18,17,Jits_Phase_5,81,9999,9999,9999,2665736300
52,18,17,Jits_Phase_5,82,9999,9999,9999,2666235988
52,18,17,Jits_Phase_5,83,9999,9999,9999,2666736708
52,18,17,Jits_Phase_5,84,9999,9999,9999,2667236404
52,18,17,Jits_Phase_5,85,9999,9999,9999,2667736148
52,18,17,Jits_Phase_5,86,9999,9999,9999,2668235896
52,18,17,Jits_Phase_5,87,9999,9999,9999,2668736632
52,18,17,Jits_Phase_5,88,9999,9999,9999,2669236324
52,18,17,Jits_Phase_5,89,9999,9999,9999,2669736060
52,18,17,Jits_Phase_5,90,9999,9999,9999,2670236784
52,18,17,Jits_Phase_5,91,9999,9999,9999,2670736468
52,18,17,Jits_Phase_5,92,9999,9999,9999,2671236196
52,18,17,Jits_Phase_5,93,9999,9999,9999,2671735864
52,18,17,Jits_Phase_5,94,9999,9999,9999,2672236656
52,18,17,Jits_Phase_5,95,9999,9999,9999,2672736348
52,18,17,Jits_Phase_5,96,9999,9999,9999,2673236036
52,18,17,Jits_Phase_5,97,9999,9999,9999,2673686640
52,18,17,Jits_Phase_5,98,9999,9999,9999,2674186312
52,18,17,Jits_Phase_5,99,9999,9999,9999,2674686076
52,18,17,Jits_Phase_5,100,9999,9999,9999,2675186800
52,18,17,Jits_Phase_5,101,9999,9999,9999,2675686476
52,18,17,Jits_Phase_5,102,9999,9999,9999,2676186216
52,18,17,Jits_Phase_5,103,9999,9999,9999,2676685896
52,18,17,Jits_Phase_5,104,9999,9999,9999,2677186616
52,18,17,Jits_Phase_5,105,9999,9999,9999,2677686360
52,18,17,Jits_Phase_5,106,9999,9999,9999,2678186108
52,18,17,Jits_Phase_5,107,9999,9999,9999,2678686828
52,18,17,Jits_Phase_5,108,9999,9999,9999,2679196776
52,18,17,Jits_Phase_5,109,9999,9999,9999,2679696448
52,18,17,Jits_Phase_5,110,9999,9999,9999,2680196188
52,18,17,Jits_Phase_5,111,9999,9999,9999,2680695872
52,18,17,Jits_Phase_5,112,9999,9999,9999,2681196668
52,18,17,Jits_Phase_5,113,9999,9999,9999,2681696360
52,18,17,Jits_Phase_5,114,9999,9999,9999,2682246224
52,18,17,Jits_Phase_5,115,9999,9999,9999,2682745960
52,18,17,Jits_Phase_5,116,9999,9999,9999,2683246680
52,18,17,Jits_Phase_5,117,9999,9999,9999,2683746428
52,18,17,Jits_Phase_5,118,9999,9999,9999,2684246120
52,18,17,Jits_Phase_5,119,9999,9999,9999,2684745788
52,18,17,Jits_Phase_5,120,9999,9999,9999,2685246520
52,18,17,Jits_Phase_5,121,9999,9999,9999,2685746268
52,18,17,Jits_Phase_5,122,9999,9999,9999,2686245960
52,18,17,Jits_Phase_5,123,9999,9999,9999,2686746692
52,18,17,Jits_Phase_5,124,9999,9999,9999,2687246436
52,18,17,Jits_Phase_5,125,9999,9999,9999,2687746116
52,18,17,Jits_Phase_5,126,9999,9999,9999,2688245880
52,18,17,Jits_Phase_5,127,9999,9999,9999,2688746596
52,18,17,Jits_Phase_5,128,9999,9999,9999,2689246272
52,18,17,Jits_Phase_5,129,9999,9999,9999,2689746032
52,18,17,Jits_Phase_5,130,9999,9999,9999,2690246764
52,18,17,Jits_Phase_5,131,9999,9999,9999,2690846824
52,18,17,Jits_Phase_5,132,9999,9999,9999,2691356756
52,18,17,Jits_Phase_5,133,9999,9999,9999,2691856508
52,18,17,Jits_Phase_5,134,9999,9999,9999,2692356176
52,18,17,Jits_Phase_5,135,9999,9999,9999,2692855924
52,18,17,Jits_Phase_5,136,9999,9999,9999,2693356660
52,18,17,Jits_Phase_5,137,9999,9999,9999,2693856332
52,18,17,Jits_Phase_5,138,9999,9999,9999,2694356096
52,18,17,Jits_Phase_5,139,9999,9999,9999,2694856760
52,18,17,Jits_Phase_5,140,9999,9999,9999,2695366772
52,18,17,Jits_Phase_5,141,9999,9999,9999,2695866464
52,18,17,Jits_Phase_5,142,9999,9999,9999,2696366152
52,18,17,Jits_Phase_5,143,9999,9999,9999,2696865920
52,18,17,Jits_Phase_5,144,9999,9999,9999,2697366648
52,18,17,Jits_Phase_5,145,9999,9999,9999,2697866320
52,18,17,Jits_Phase_5,146,9999,9999,9999,2698366040
52,18,17,Jits_Phase_5,147,9999,9999,9999,2698866808
52,18,17,Jits_Phase_5,148,9999,9999,9999,2699366476
52,18,17,Jits_Phase_5,149,9999,9999,9999,2699866168
52,18,17,Jits_Phase_5,150,9999,9999,9999,2700266584
52,18,17,Jits_Phase_5,151,9999,9999,9999,2700766272
52,18,17,Jits_Phase_5,152,9999,9999,9999,2701266036
52,18,17,Jits_Phase_5,153,9999,9999,9999,2701766756
52,18,17,Jits_Phase_5,154,9999,9999,9999,2702266432
52,18,17,Jits_Phase_5,155,9999,9999,9999,2702766152
52,18,17,Jits_Phase_5,156,9999,9999,9999,2703265892
52,18,17,Jits_Phase_5,157,9999,9999,9999,2703766608
52,18,17,Jits_Phase_5,158,9999,9999,9999,2704266360
52,18,17,Jits_Phase_5,159,9999,9999,9999,2704766008
52,18,17,Jits_Phase_5,160,9999,9999,9999,2705266812
52,18,17,Jits_Phase_5,161,9999,9999,9999,2705766508
52,18,17,Jits_Phase_5,162,9999,9999,9999,2706266180
52,18,17,Jits_Phase_5,163,9999,9999,9999,2706765948
52,18,17,Jits_Phase_5,164,9999,9999,9999,2707266680
52,18,17,Jits_Phase_5,165,9999,9999,9999,2707766356
52,18,17,Jits_Phase_5,166,9999,9999,9999,2708266104
52,18,17,Jits_Phase_5,167,9999,9999,9999,2708766840
52,18,17,Jits_Phase_5,168,9999,9999,9999,2709276784
52,18,17,Jits_Phase_5,169,9999,9999,9999,2709776460
52,19,15,Jits_Phase_8,0,5,56,103,2718424396
52,19,15,Jits_Phase_8,1,5,63,98,2718427648
52,19,15,Jits_Phase_8,2,5,80,127,2718430764
52,19,15,Jits_Phase_8,0,5,56,103,2719224340
52,19,15,Jits_Phase_8,1,5,63,98,2719227512
52,19,15,Jits_Phase_8,2,5,80,127,2719230560
52,19,15,Jits_Phase_8,0,5,80,127,2719964508
52,19,15,Jits_Phase_8,1,5,63,98,2720054644
52,19,15,Jits_Phase_8,2,5,56,103,2720065136
52,19,15,Jits_Phase_8,0,5,56,103,2720784696
52,19,15,Jits_Phase_8,1,5,63,98,2720795264
52,19,15,Jits_Phase_8,2,5,80,127,2720885100
52,19,15,Jits_Phase_8,0,5,63,98,2721554760
52,19,15,Jits_Phase_8,1,1,48,49,2721561468
52,19,15,Jits_Phase_8,2,5,80,127,2721584432
52,19,15,Jits_Phase_8,3,5,56,103,2721614256
52,19,15,Jits_Phase_8,0,1,48,51,2722328184
52,19,15,Jits_Phase_8,1,5,56,103,2722354512
52,19,15,Jits_Phase_8,2,5,80,127,2722454844
52,19,15,Jits_Phase_8,3,5,63,98,2722505492
52,19,15,Jits_Phase_8,0,5,56,103,2723154280
52,19,15,Jits_Phase_8,1,1,48,54,2723180992
52,19,15,Jits_Phase_8,2,5,80,127,2723204324
52,19,15,Jits_Phase_8,3,5,63,98,2723244360
52,19,15,Jits_Phase_8,0,5,80,127,2723984936
52,19,15,Jits_Phase_8,1,1,48,50,2723992172
52,19,15,Jits_Phase_8,2,5,63,98,2724014456
52,19,15,Jits_Phase_8,3,5,56,103,2724085036
52,19,15,Jits_Phase_8,0,5,63,98,2724814308
52,19,15,Jits_Phase_8,1,1,48,57,2724827320
52,19,15,Jits_Phase_8,2,5,56,103,2724844948
52,19,15,Jits_Phase_8,3,5,80,127,2724904292
52,19,15,Jits_Phase_8,0,5,56,103,2725554508
52,19,15,Jits_Phase_8,1,5,80,127,2725557648
52,19,15,Jits_Phase_8,2,1,48,54,2725600168
52,19,15,Jits_Phase_8,3,5,63,98,2725674296
52,19,15,Jits_Phase_8,0,1,48,54,2726404212
52,19,15,Jits_Phase_8,1,5,56,103,2726434052
52,19,15,Jits_Phase_8,2,5,80,127,2726475116
52,19,15,Jits_Phase_8,3,5,63,98,2726484264
52,19,15,Jits_Phase_8,0,5,56,103,2727195304
52,19,15,Jits_Phase_8,1,1,48,60,2727196348
52,19,15,Jits_Phase_8,2,5,80,127,2727214412
52,19,15,Jits_Phase_8,3,5,63,98,2727294280
52,19,15,Jits_Phase_8,0,5,80,127,2727984444
52,19,15,Jits_Phase_8,1,1,48,52,2728045780
52,19,15,Jits_Phase_8,2,5,56,103,2728084932
52,19,15,Jits_Phase_8,3,5,63,98,2728095056
52,19,15,Jits_Phase_8,0,5,63,98,2728754400
52,19,15,Jits_Phase_8,1,5,80,127,2728815164
52,19,15,Jits_Phase_8,2,5,56,103,2728824164
52,19,15,Jits_Phase_8,3,1,48,57,2728866264
52,19,15,Jits_Phase_8,0,5,56,103,2729554156
52,19,15,Jits_Phase_8,1,1,48,54,2729586868
52,19,15,Jits_Phase_8,2,5,63,98,2729625124
52,19,15,Jits_Phase_8,3,5,80,127,2729628412
52,19,15,Jits_Phase_8,0,1,48,60,2730372392
52,19,15,Jits_Phase_8,1,5,63,98,2730385020
52,19,15,Jits_Phase_8,2,5,56,103,2730435148
52,19,15,Jits_Phase_8,3,5,80,127,2730437992
52,19,15,Jits_Phase_8,0,5,56,103,2731144616
52,19,15,Jits_Phase_8,1,5,80,127,2731147832
52,19,15,Jits_Phase_8,2,1,48,55,2731196060
52,19,15,Jits_Phase_8,3,5,63,98,2731234812
52,19,15,Jits_Phase_8,0,1,48,49,2731982720
52,19,15,Jits_Phase_8,1,5,63,98,2731984228
52,19,15,Jits_Phase_8,2,5,56,103,2732074292
52,19,15,Jits_Phase_8,3,5,80,127,2732105072
52,19,15,Jits_Phase_8,0,5,56,103,2732774856
52,19,15,Jits_Phase_8,1,1,48,57,2732827724
52,19,15,Jits_Phase_8,2,5,63,98,2732875172
52,19,15,Jits_Phase_8,3,5,80,127,2732904772
52,19,15,Jits_Phase_8,0,5,63,98,2733594864
52,19,15,Jits_Phase_8,1,1,48,56,2733604312
52,19,15,Jits_Phase_8,2,5,56,103,2733605500
52,19,15,Jits_Phase_8,3,5,80,127,2733694284
52,19,15,Jits_Phase_8,0,1,48,54,2734402912
52,19,15,Jits_Phase_8,1,5,63,98,2734414100
52,19,15,Jits_Phase_8,2,5,56,103,2734495112
52,19,15,Jits_Phase_8,3,5,80,127,2734498180
52,19,15,Jits_Phase_8,0,5,80,127,2735175044
52,19,15,Jits_Phase_8,1,5,63,98,2735194460
52,19,15,Jits_Phase_8,2,5,56,103,2735254872
52,19,15,Jits_Phase_8,3,1,48,56,2735261060
52,19,15,Jits_Phase_8,0,5,56,103,2736015000
52,19,15,Jits_Phase_8,1,5,63,98,2736034188
52,19,15,Jits_Phase_8,2,5,80,127,2736037776
52,19,15,Jits_Phase_8,3,1,48,59,2736095816
52,19,15,Jits_Phase_8,0,5,63,98,2736754952
52,19,15,Jits_Phase_8,1,5,80,127,2736834924
52,19,15,Jits_Phase_8,2,5,56,103,2736844072
52,19,15,Jits_Phase_8,3,1,48,23,2737035996
52,19,15,Jits_Phase_8,0,5,63,98,2737574368
52,19,15,Jits_Phase_8,1,5,56,103,2737594680
52,19,15,Jits_Phase_8,2,5,80,127,2737644876
52,19,15,Jits_Phase_8,3,1,48,60,2737671884
52,19,15,Jits_Phase_8,0,1,48,52,2738368092
52,19,15,Jits_Phase_8,1,5,80,127,2738375088
52,19,15,Jits_Phase_8,2,5,63,98,2738414880
52,19,15,Jits_Phase_8,3,5,56,103,2738434516
52,19,15,Jits_Phase_8,0,1,48,55,2739142220
52,19,15,Jits_Phase_8,1,5,56,103,2739214928
52,19,15,Jits_Phase_8,2,5,63,98,2739225052
52,19,15,Jits_Phase_8,3,5,80,127,2739244372
52,19,15,Jits_Phase_8,0,5,56,103,2739944796
52,19,15,Jits_Phase_8,1,1,48,56,2739953168
52,19,15,Jits_Phase_8,2,5,63,98,2740034852
52,19,15,Jits_Phase_8,3,5,80,127,2740094180
52,19,15,Jits_Phase_8,0,5,80,127,2740774168
52,19,15,Jits_Phase_8,1,1,48,56,2740782692
52,19,15,Jits_Phase_8,2,5,56,103,2740784728
52,19,15,Jits_Phase_8,3,5,63,98,2740854036
52,19,15,Jits_Phase_8,0,5,63,98,2741604728
52,19,15,Jits_Phase_8,1,1,48,56,2741608896
52,19,15,Jits_Phase_8,2,5,80,127,2741694808
52,19,15,Jits_Phase_8,3,5,56,103,2741705152
52,19,15,Jits_Phase_8,0,5,63,98,2742334816
52,19,15,Jits_Phase_8,1,5,80,127,2742385020
52,19,15,Jits_Phase_8,2,5,56,103,2742444388
52,19,15,Jits_Phase_8,3,1,48,59,2742453128
52,19,15,Jits_Phase_8,0,5,56,103,2743155028
52,19,15,Jits_Phase_8,1,5,80,127,2743204284
52,19,15,Jits_Phase_8,2,5,63,98,2743224740
52,19,15,Jits_Phase_8,3,1,48,49,2743270484
52,19,15,Jits_Phase_8,0,5,56,103,2743924984
52,19,15,Jits_Phase_8,1,5,80,127,2743984500
52,19,15,Jits_Phase_8,2,5,63,98,2744054180
52,19,15,Jits_Phase_8,0,5,56,103,2744724816
52,19,15,Jits_Phase_8,1,5,80,127,2744754492
52,19,15,Jits_Phase_8,2,5,63,98,2744784244
52,19,15,Jits_Phase_8,3,1,48,51,2744788780
52,19,15,Jits_Phase_8,0,1,48,50,2745534440
52,19,15,Jits_Phase_8,1,5,56,103,2745564660
52,19,15,Jits_Phase_8,2,5,80,127,2745584972
52,19,15,Jits_Phase_8,3,5,63,98,2745644672
52,19,15,Jits_Phase_8,0,1,48,47,2746332932
52,19,15,Jits_Phase_8,1,5,80,127,2746444124
52,19,15,Jits_Phase_8,2,5,56,103,2746454320
52,19,15,Jits_Phase_8,3,5,63,98,2746464592
52,19,15,Jits_Phase_8,0,1,48,49,2747184616
52,19,15,Jits_Phase_8,1,5,56,103,2747204872
52,19,15,Jits_Phase_8,2,5,80,127,2747244884
52,19,15,Jits_Phase_8,3,5,63,98,2747274656
52,19,15,Jits_Phase_8,0,5,56,103,2747974900
52,19,15,Jits_Phase_8,1,5,63,98,2748004576
52,19,15,Jits_Phase_8,2,1,48,48,2748026128
52,19,15,Jits_Phase_8,3,5,80,127,2748044604
52,19,15,Jits_Phase_8,0,5,80,127,2748724624
52,19,15,Jits_Phase_8,1,1,48,44,2748757860
52,19,15,Jits_Phase_8,2,5,63,98,2748774824
52,19,15,Jits_Phase_8,3,5,56,103,2748794456
52,19,15,Jits_Phase_8,0,1,48,48,2749489888
52,19,15,Jits_Phase_8,1,5,56,103,2749555180
52,19,15,Jits_Phase_8,2,5,80,127,2749624572
52,19,15,Jits_Phase_8,3,5,63,98,2749685484
52,19,15,Jits_Phase_8,0,5,80,127,2750354748
52,19,15,Jits_Phase_8,1,1,48,48,2750359508
52,19,15,Jits_Phase_8,2,5,63,98,2750444948
52,19,15,Jits_Phase_8,3,5,56,103,2750464492
52,19,15,Jits_Phase_8,0,5,63,98,2751175124
52,19,15,Jits_Phase_8,1,5,56,103,2751194540
52,19,15,Jits_Phase_8,2,1,48,49,2751207172
52,19,15,Jits_Phase_8,3,5,80,127,2751234616
52,19,15,Jits_Phase_8,0,5,80,127,2751934728
52,19,15,Jits_Phase_8,1,5,63,98,2751954292
52,19,15,Jits_Phase_8,2,1,48,46,2751955256
52,19,15,Jits_Phase_8,3,5,56,103,2752034452
52,19,15,Jits_Phase_8,0,5,63,98,2752724388
52,19,15,Jits_Phase_8,1,1,48,50,2752794560
52,19,15,Jits_Phase_8,2,5,56,103,2752834892
52,19,15,Jits_Phase_8,3,5,80,127,2752837960
52,19,15,Jits_Phase_8,0,5,63,98,2753544440
52,19,15,Jits_Phase_8,1,5,56,103,2753554780
52,19,15,Jits_Phase_8,2,5,80,127,2753557924
52,19,15,Jits_Phase_8,3,1,48,48,2753591976
52,19,15,Jits_Phase_8,0,5,56,103,2754324768
52,19,15,Jits_Phase_8,1,1,48,52,2754331476
52,19,15,Jits_Phase_8,2,5,80,127,2754444648
52,19,15,Jits_Phase_8,3,5,63,98,2754484588
52,19,15,Jits_Phase_8,0,5,56,103,2755145148
52,19,15,Jits_Phase_8,1,1,48,56,2755222920
52,19,15,Jits_Phase_8,2,5,80,127,2755224888
52,19,15,Jits_Phase_8,3,5,63,98,2755244448
52,19,15,Jits_Phase_8,0,5,56,103,2755944844
52,19,15,Jits_Phase_8,1,1,48,53,2756009120
52,19,15,Jits_Phase_8,2,5,63,98,2756054324
52,19,15,Jits_Phase_8,3,5,80,127,2756057616
52,19,15,Jits_Phase_8,0,1,48,51,2756777120
52,19,15,Jits_Phase_8,1,5,56,103,2756784412
52,19,15,Jits_Phase_8,2,5,80,127,2756814236
52,19,15,Jits_Phase_8,3,5,63,98,2756834620
52,19,15,Jits_Phase_8,0,1,48,52,2757559416
52,19,15,Jits_Phase_8,1,5,63,98,2757575252
52,19,15,Jits_Phase_8,2,5,56,103,2757584180
52,19,15,Jits_Phase_8,3,5,80,127,2757594596
52,19,15,Jits_Phase_8,0,1,48,54,2758347704
52,19,15,Jits_Phase_8,1,5,80,127,2758364592
52,19,15,Jits_Phase_8,2,5,56,103,2758414572
52,19,15,Jits_Phase_8,3,5,63,98,2758454568
52,19,15,Jits_Phase_8,0,5,80,127,2759184660
52,19,15,Jits_Phase_8,1,1,48,52,2759203172
52,19,15,Jits_Phase_8,2,5,63,98,2759204736
52,19,15,Jits_Phase_8,3,5,56,103,2759254416
52,19,15,Jits_Phase_8,0,5,80,127,2759994696
52,19,15,Jits_Phase_8,1,1,48,48,2760020660
52,19,15,Jits_Phase_8,2,5,56,103,2760024364
52,19,15,Jits_Phase_8,3,5,63,98,2760095192
52,19,15,Jits_Phase_8,0,1,48,54,2760832132
52,19,15,Jits_Phase_8,1,5,56,103,2760844684
52,19,15,Jits_Phase_8,2,5,80,127,2760855104
52,19,15,Jits_Phase_8,3,5,63,98,2760895192
52,19,15,Jits_Phase_8,0,5,56,103,2761554224
52,19,15,Jits_Phase_8,1,5,63,98,2761575056
52,19,15,Jits_Phase_8,2,5,80,127,2761644388
52,19,15,Jits_Phase_8,3,1,48,52,2761681436
52,19,15,Jits_Phase_8,0,5,63,98,2762374544
52,19,15,Jits_Phase_8,1,1,48,53,2762425988
52,19,15,Jits_Phase_8,2,5,80,127,2762434856
52,19,15,Jits_Phase_8,3,5,56,103,2762454416
52,19,15,Jits_Phase_8,0,5,80,127,2763165012
52,19,15,Jits_Phase_8,1,1,48,53,2763182524
52,19,15,Jits_Phase_8,2,5,56,103,2763194828
52,19,15,Jits_Phase_8,3,5,63,98,2763224428
52,19,15,Jits_Phase_8,0,5,56,103,2763965076
52,19,15,Jits_Phase_8,1,1,48,46,2763978532
52,19,15,Jits_Phase_8,2,5,63,98,2764024192
52,19,15,Jits_Phase_8,3,5,80,127,2764084492
52,19,15,Jits_Phase_8,0,5,80,127,2764785008
52,19,15,Jits_Phase_8,1,1,48,46,2764785900
52,19,15,Jits_Phase_8,2,5,56,103,2764804488
52,19,15,Jits_Phase_8,3,5,63,98,2764874996
52,19,15,Jits_Phase_8,0,5,80,127,2765585156
52,19,15,Jits_Phase_8,1,5,63,98,2765604272
52,19,15,Jits_Phase_8,2,1,48,44,2765630760
52,19,15,Jits_Phase_8,3,5,56,103,2765634984
52,19,15,Jits_Phase_8,0,5,80,127,2766374140
52,19,15,Jits_Phase_8,1,5,63,98,2766394676
52,19,15,Jits_Phase_8,2,1,48,37,2766427388
52,19,15,Jits_Phase_8,3,5,56,103,2766454084
52,19,15,Jits_Phase_8,0,5,80,127,2767174960
52,19,15,Jits_Phase_8,1,1,48,23,2767213676
52,19,15,Jits_Phase_8,2,5,56,103,2767274404
52,19,15,Jits_Phase_8,3,5,63,98,2767305112
52,19,15,Jits_Phase_8,0,5,63,98,2767964400
52,19,15,Jits_Phase_8,1,5,80,127,2768014996
52,19,15,Jits_Phase_8,2,5,56,103,2768034188
52,19,15,Jits_Phase_8,3,1,48,52,2768065472
52,19,15,Jits_Phase_8,0,5,80,127,2768804188
52,19,15,Jits_Phase_8,1,1,48,46,2768835056
52,19,15,Jits_Phase_8,2,5,56,103,2768836416
52,19,15,Jits_Phase_8,3,5,63,98,2768839164
52,19,15,Jits_Phase_8,0,1,48,53,2769611324
52,19,15,Jits_Phase_8,1,5,63,98,2769654068
52,19,15,Jits_Phase_8,2,5,56,103,2769695056
52,19,15,Jits_Phase_8,3,5,80,127,2769714524
52,19,15,Jits_Phase_8,0,1,48,61,2770407272
52,19,15,Jits_Phase_8,1,5,80,127,2770414940
52,19,15,Jits_Phase_8,2,5,63,98,2770494888
52,19,15,Jits_Phase_8,3,5,56,103,2770535032
52,19,15,Jits_Phase_8,0,5,63,98,2771234192
52,19,15,Jits_Phase_8,1,1,48,53,2771260156
52,19,15,Jits_Phase_8,2,5,80,127,2771315028
52,19,15,Jits_Phase_8,3,5,56,103,2771334464
52,19,15,Jits_Phase_8,0,5,56,103,2772074936
52,19,15,Jits_Phase_8,1,5,63,98,2772085208
52,19,15,Jits_Phase_8,2,1,48,57,2772096124
52,19,15,Jits_Phase_8,3,5,80,127,2772125012
52,19,15,Jits_Phase_8,0,5,56,103,2772794916
52,19,15,Jits_Phase_8,1,5,80,127,2772797908
52,19,15,Jits_Phase_8,2,1,48,55,2772892296
52,19,15,Jits_Phase_8,3,5,63,98,2772934960
52,19,15,Jits_Phase_8,0,5,56,103,2773584120
52,19,15,Jits_Phase_8,1,1,48,51,2773652676
52,19,15,Jits_Phase_8,2,5,63,98,2773674348
52,19,15,Jits_Phase_8,3,5,80,127,2773745072
52,19,15,Jits_Phase_8,0,1,48,48,2774438948
52,19,15,Jits_Phase_8,1,5,63,98,2774464896
52,19,15,Jits_Phase_8,2,5,80,127,2774468112
52,19,15,Jits_Phase_8,3,5,56,103,2774524164
52,19,15,Jits_Phase_8,0,1,48,54,2775230376
52,19,15,Jits_Phase_8,1,5,80,127,2775304660
52,19,15,Jits_Phase_8,2,5,56,103,2775325180
52,19,15,Jits_Phase_8,3,5,63,98,2775334252
52,19,15,Jits_Phase_8,0,5,56,103,2776014080
52,19,15,Jits_Phase_8,1,5,63,98,2776024500
52,19,15,Jits_Phase_8,2,1,48,55,2776075116
52,19,15,Jits_Phase_8,3,5,80,127,2776095072
52,19,15,Jits_Phase_8,0,5,80,127,2776814968
52,19,15,Jits_Phase_8,1,5,56,103,2776865024
52,19,15,Jits_Phase_8,2,1,48,52,2776865992
52,19,15,Jits_Phase_8,3,5,63,98,2776914244
52,19,15,Jits_Phase_8,0,1,48,50,2777651040
52,19,15,Jits_Phase_8,1,5,56,103,2777694528
52,19,15,Jits_Phase_8,2,5,63,98,2777704876
52,19,15,Jits_Phase_8,3,5,80,127,2777744764
52,19,15,Jits_Phase_8,0,5,56,103,2778434892
52,19,15,Jits_Phase_8,1,5,63,98,2778474832
52,19,15,Jits_Phase_8,2,1,48,53,2778484852
52,19,15,Jits_Phase_8,3,5,80,127,2778524900
52,19,15,Jits_Phase_8,0,5,80,127,2779194660
52,19,15,Jits_Phase_8,1,5,56,103,2779244936
52,19,15,Jits_Phase_8,2,5,63,98,2779264496
52,19,15,Jits_Phase_8,3,1,48,48,2779291084
52,19,15,Jits_Phase_8,0,5,80,127,2780004688
52,19,15,Jits_Phase_8,1,1,48,50,2780032616
52,19,15,Jits_Phase_8,2,5,63,98,2780065028
52,19,15,Jits_Phase_8,3,5,56,103,2780144876
52,19,15,Jits_Phase_8,0,5,80,127,2780784984
52,19,15,Jits_Phase_8,1,5,56,103,2780824872
52,19,15,Jits_Phase_8,2,5,63,98,2780844580
52,19,15,Jits_Phase_8,3,1,48,53,2780858788
52,19,15,Jits_Phase_8,0,1,48,50,2781623632
52,19,15,Jits_Phase_8,1,5,56,103,2781634816
52,19,15,Jits_Phase_8,2,5,80,127,2781644188
52,19,15,Jits_Phase_8,3,5,63,98,2781685100
52,19,15,Jits_Phase_8,0,1,48,51,2782430644
52,19,15,Jits_Phase_8,1,5,56,103,2782504400
52,19,15,Jits_Phase_8,2,5,63,98,2782544096
52,19,15,Jits_Phase_8,3,5,80,127,2782547764
52,19,15,Jits_Phase_8,0,5,63,98,2783175076
52,19,15,Jits_Phase_8,1,5,80,127,2783214940
52,19,15,Jits_Phase_8,2,1,48,57,2783269004
52,19,15,Jits_Phase_8,3,5,56,103,2783284464
52,19,15,Jits_Phase_8,0,5,63,98,2783945096
52,19,15,Jits_Phase_8,1,1,48,54,2783977884
52,19,15,Jits_Phase_8,2,5,56,103,2784024960
52,19,15,Jits_Phase_8,3,5,80,127,2784084436
52,19,15,Jits_Phase_8,0,5,80,127,2784755044
52,19,15,Jits_Phase_8,1,1,48,49,2784775552
52,19,15,Jits_Phase_8,2,5,63,98,2784804568
52,19,15,Jits_Phase_8,3,5,56,103,2784834988
52,19,15,Jits_Phase_8,0,5,56,103,2785544628
52,19,15,Jits_Phase_8,1,1,48,54,2785585732
52,19,15,Jits_Phase_8,2,5,63,98,2785594676
52,19,15,Jits_Phase_8,3,5,80,127,2785604944
52,19,15,Jits_Phase_8,0,1,48,52,2786350200
52,19,15,Jits_Phase_8,1,5,56,103,2786354500
52,19,15,Jits_Phase_8,2,5,63,98,2786465100
52,19,15,Jits_Phase_8,3,5,80,127,2786484584
52,19,15,Jits_Phase_8,0,5,63,98,2787154344
52,19,15,Jits_Phase_8,1,1,48,52,2787171164
52,19,15,Jits_Phase_8,2,5,80,127,2787204636
52,19,15,Jits_Phase_8,3,5,56,103,2787294604
52,19,15,Jits_Phase_8,0,5,63,98,2787944812
52,19,15,Jits_Phase_8,1,5,80,127,2787974440
52,19,15,Jits_Phase_8,2,1,48,54,2787991332
52,19,15,Jits_Phase_8,3,5,56,103,2788064560
52,19,15,Jits_Phase_8,0,5,63,98,2788744516
52,19,15,Jits_Phase_8,1,5,56,103,2788754784
52,19,15,Jits_Phase_8,2,1,48,53,2788786524
52,19,15,Jits_Phase_8,3,5,80,127,2788854272
52,19,15,Jits_Phase_8,0,1,48,53,2789560036
52,19,15,Jits_Phase_8,1,5,63,98,2789644580
52,19,15,Jits_Phase_8,2,5,80,127,2789674540
52,19,15,Jits_Phase_8,3,5,56,103,2789705336
52,19,15,Jits_Phase_8,0,1,48,51,2790435704
52,19,15,Jits_Phase_8,1,5,80,127,2790465024
52,19,15,Jits_Phase_8,2,5,63,98,2790475220
52,19,15,Jits_Phase_8,3,5,56,103,2790504820
52,19,15,Jits_Phase_8,0,5,80,127,2791164256
52,19,15,Jits_Phase_8,1,5,63,98,2791184788
52,19,15,Jits_Phase_8,2,5,56,103,2791234912
52,19,15,Jits_Phase_8,3,1,48,58,2791242088
52,19,15,Jits_Phase_8,0,1,48,52,2791975824
52,19,15,Jits_Phase_8,1,5,63,98,2791994808
52,19,15,Jits_Phase_8,2,5,80,127,2792054300
52,19,15,Jits_Phase_8,3,5,56,103,2792074544
52,19,15,Jits_Phase_8,0,5,63,98,2792754492
52,19,15,Jits_Phase_8,1,5,56,103,2792804620
52,19,15,Jits_Phase_8,2,1,48,48,2792805588
52,19,15,Jits_Phase_8,3,5,80,127,2792814960
52,19,15,Jits_Phase_8,0,5,56,103,2793584964
52,19,15,Jits_Phase_8,1,5,80,127,2793594188
52,19,15,Jits_Phase_8,2,1,48,50,2793597604
52,19,15,Jits_Phase_8,3,5,63,98,2793694584
52,19,15,Jits_Phase_8,0,5,80,127,2794344728
52,19,15,Jits_Phase_8,1,5,63,98,2794355072
52,19,15,Jits_Phase_8,2,1,48,39,2794433064
52,19,15,Jits_Phase_8,3,5,56,103,2794504628
52,19,15,Jits_Phase_8,0,5,63,98,2795154788
52,19,15,Jits_Phase_8,1,5,80,127,2795194652
52,19,15,Jits_Phase_8,2,1,48,53,2795233736
52,19,15,Jits_Phase_8,3,5,56,103,2795274584
52,19,15,Jits_Phase_8,0,5,56,103,2795904320
52,19,15,Jits_Phase_8,1,1,48,45,2795948372
52,19,15,Jits_Phase_8,2,5,80,127,2796004664
52,19,15,Jits_Phase_8,3,5,63,98,2796024224
52,19,15,Jits_Phase_8,0,1,48,49,2796720492
52,19,15,Jits_Phase_8,1,5,80,127,2796724720
52,19,15,Jits_Phase_8,2,5,56,103,2796734840
52,19,15,Jits_Phase_8,3,5,63,98,2796824956
52,19,15,Jits_Phase_8,0,5,56,103,2797524188
52,19,15,Jits_Phase_8,1,1,48,52,2797525676
52,19,15,Jits_Phase_8,2,5,63,98,2797544720
52,19,15,Jits_Phase_8,3,5,80,127,2797624644
52,19,15,Jits_Phase_8,0,5,63,98,2798275188
52,19,15,Jits_Phase_8,1,1,48,49,2798345816
52,19,15,Jits_Phase_8,2,5,56,103,2798365240
52,19,15,Jits_Phase_8,3,5,80,127,2798368160
52,19,15,Jits_Phase_8,0,5,56,103,2799104384
52,19,15,Jits_Phase_8,1,1,48,49,2799152152
52,19,15,Jits_Phase_8,2,5,80,127,2799165068
52,19,15,Jits_Phase_8,3,5,63,98,2799175040
52,19,15,Jits_Phase_8,0,1,48,51,2799903308
52,19,15,Jits_Phase_8,1,5,80,127,2799954352
52,19,15,Jits_Phase_8,2,5,56,103,2799964692
52,19,15,Jits_Phase_8,3,5,63,98,2799967908
52,19,15,Jits_Phase_8,0,5,56,103,2800715300
52,19,15,Jits_Phase_8,1,5,80,127,2800724300
52,19,15,Jits_Phase_8,2,5,63,98,2800744980
52,19,15,Jits_Phase_8,3,1,48,48,2800856896
52,19,15,Jits_Phase_8,0,5,63,98,2801484128
52,19,15,Jits_Phase_8,1,5,80,127,2801544544
52,19,15,Jits_Phase_8,2,1,48,46,2801574116
52,19,15,Jits_Phase_8,3,5,56,103,2801594736
52,19,15,Jits_Phase_8,0,1,48,50,2802321632
52,19,15,Jits_Phase_8,1,5,63,98,2802364968
52,19,15,Jits_Phase_8,2,5,56,103,2802375016
52,19,15,Jits_Phase_8,3,5,80,127,2802424152
52,19,15,Jits_Phase_8,0,5,63,98,2803064320
52,19,15,Jits_Phase_8,1,1,48,46,2803078328
52,19,15,Jits_Phase_8,2,5,80,127,2803084648
52,19,15,Jits_Phase_8,3,5,56,103,2803095140
52,19,15,Jits_Phase_8,0,1,48,42,2803803204
52,19,15,Jits_Phase_8,1,5,63,98,2803865128
52,19,15,Jits_Phase_8,2,5,80,127,2803868420
52,19,15,Jits_Phase_8,3,5,56,103,2803904980
52,19,15,Jits_Phase_8,0,1,48,40,2804613236
52,19,15,Jits_Phase_8,1,5,63,98,2804734312
52,19,15,Jits_Phase_8,2,5,80,127,2804765108
52,19,15,Jits_Phase_8,3,5,56,103,2804774184
52,19,15,Jits_Phase_8,0,5,56,103,2805485092
52,19,15,Jits_Phase_8,1,1,48,44,2805513864
52,19,15,Jits_Phase_8,2,5,80,127,2805515436
52,19,15,Jits_Phase_8,3,5,63,98,2805544216
52,19,15,Jits_Phase_8,0,1,48,43,2806326788
52,19,15,Jits_Phase_8,1,5,63,98,2806384880
52,19,15,Jits_Phase_8,2,5,56,103,2806425048
52,19,15,Jits_Phase_8,3,5,80,127,2806428116
52,19,15,Jits_Phase_8,0,5,80,127,2807084400
52,19,15,Jits_Phase_8,1,5,56,103,2807164268
52,19,15,Jits_Phase_8,2,5,63,98,2807214344
52,19,15,Jits_Phase_8,3,1,48,37,2807230192
52,19,15,Jits_Phase_8,0,5,80,127,2807864840
52,19,15,Jits_Phase_8,1,5,56,103,2807884252
52,19,15,Jits_Phase_8,2,5,63,98,2807974184
52,19,15,Jits_Phase_8,3,1,48,34,2807977156
52,19,15,Jits_Phase_8,0,1,48,42,2808690564
52,19,15,Jits_Phase_8,1,5,80,127,2808704704
52,19,15,Jits_Phase_8,2,5,63,98,2808744344
52,19,15,Jits_Phase_8,3,5,56,103,2808784208
52,19,15,Jits_Phase_8,0,1,48,40,2809486460
52,19,15,Jits_Phase_8,1,5,63,98,2809514280
52,19,15,Jits_Phase_8,2,5,80,127,2809574896
52,19,15,Jits_Phase_8,3,5,56,103,2809604332
52,19,15,Jits_Phase_8,0,1,48,46,2810297144
52,19,15,Jits_Phase_8,1,5,56,103,2810355012
52,19,15,Jits_Phase_8,2,5,80,127,2810384912
52,19,15,Jits_Phase_8,3,5,63,98,2810474804
52,19,15,Jits_Phase_8,0,5,56,103,2811164968
52,19,15,Jits_Phase_8,1,1,48,48,2811184944
52,19,15,Jits_Phase_8,2,5,80,127,2811274672
52,19,15,Jits_Phase_8,3,5,63,98,2811304184
52,19,15,Jits_Phase_8,0,5,56,103,2812014940
52,19,15,Jits_Phase_8,1,1,48,50,2812049248
52,19,15,Jits_Phase_8,2,5,63,98,2812074380
52,19,15,Jits_Phase_8,3,5,80,127,2812105176
52,19,15,Jits_Phase_8,0,5,56,103,2812785052
52,19,15,Jits_Phase_8,1,1,48,52,2812823116
52,19,15,Jits_Phase_8,2,5,63,98,2812854604
52,19,15,Jits_Phase_8,3,5,80,127,2812875140
52,19,15,Jits_Phase_8,0,5,80,127,2813555012
52,19,15,Jits_Phase_8,1,5,63,98,2813574524
52,19,15,Jits_Phase_8,2,1,48,51,2813576464
52,19,15,Jits_Phase_8,3,5,56,103,2813624868
52,19,15,Jits_Phase_8,0,1,48,46,2814356044
52,19,15,Jits_Phase_8,1,5,63,98,2814374128
52,19,15,Jits_Phase_8,2,5,80,127,2814384696
52,19,15,Jits_Phase_8,3,5,56,103,2814434824
52,19,15,Jits_Phase_8,0,1,48,49,2815171376
52,19,15,Jits_Phase_8,1,5,63,98,2815175156
52,19,15,Jits_Phase_8,2,5,80,127,2815244836
52,19,15,Jits_Phase_8,3,5,56,103,2815265000
52,19,15,Jits_Phase_8,0,1,48,50,2815994372
52,19,15,Jits_Phase_8,1,5,63,98,2816004656
52,19,15,Jits_Phase_8,2,5,80,127,2816007948
52,19,15,Jits_Phase_8,3,5,56,103,2816075240
52,19,15,Jits_Phase_8,0,5,80,127,2816755124
52,19,15,Jits_Phase_8,1,5,56,103,2816774612
52,19,15,Jits_Phase_8,2,5,63,98,2816784808
52,19,15,Jits_Phase_8,3,1,48,47,2816841184
52,19,15,Jits_Phase_8,0,5,56,103,2817574148
52,19,15,Jits_Phase_8,1,1,48,42,2817615776
52,19,15,Jits_Phase_8,2,5,63,98,2817664448
52,19,15,Jits_Phase_8,3,5,80,127,2817667812
52,19,15,Jits_Phase_8,0,5,80,127,2818344392
52,19,15,Jits_Phase_8,1,5,56,103,2818354512
52,19,15,Jits_Phase_8,2,5,63,98,2818374972
52,19,15,Jits_Phase_8,3,1,48,52,2818392012
52,19,15,Jits_Phase_8,0,1,48,47,2819138648
52,19,15,Jits_Phase_8,1,5,63,98,2819145196
52,19,15,Jits_Phase_8,2,5,80,127,2819204564
52,19,15,Jits_Phase_8,3,5,56,103,2819214832
52,19,15,Jits_Phase_8,0,1,48,47,2819922452
52,19,15,Jits_Phase_8,1,5,63,98,2820014648
52,19,15,Jits_Phase_8,2,5,80,127,2820044088
52,19,15,Jits_Phase_8,3,5,56,103,2820085072
52,19,15,Jits_Phase_8,0,1,48,46,2820742072
52,19,15,Jits_Phase_8,1,5,56,103,2820804972
52,19,15,Jits_Phase_8,2,5,80,127,2820814048
52,19,15,Jits_Phase_8,3,5,63,98,2820854044
52,19,15,Jits_Phase_8,0,1,48,43,2821546488
52,19,15,Jits_Phase_8,1,5,80,127,2821564872
52,19,15,Jits_Phase_8,2,5,56,103,2821644728
52,19,15,Jits_Phase_8,3,5,63,98,2821654996
52,19,15,Jits_Phase_8,0,5,80,127,2822414684
52,19,15,Jits_Phase_8,1,1,48,43,2822432872
52,19,15,Jits_Phase_8,2,5,56,103,2822494476
52,19,15,Jits_Phase_8,3,5,63,98,2822504672
52,19,15,Jits_Phase_8,0,1,48,42,2823213392
52,19,15,Jits_Phase_8,1,5,80,127,2823254616
52,19,15,Jits_Phase_8,2,5,56,103,2823304544
52,19,15,Jits_Phase_8,3,5,63,98,2823354656
52,19,15,Jits_Phase_8,0,1,48,41,2824061076
52,19,15,Jits_Phase_8,1,5,56,103,2824194552
52,19,15,Jits_Phase_8,2,5,63,98,2824197620
52,19,15,Jits_Phase_8,3,5,80,127,2824244528
52,19,15,Jits_Phase_8,0,1,48,52,2824922380
52,19,15,Jits_Phase_8,1,5,56,103,2825014700
52,19,15,Jits_Phase_8,2,5,63,98,2825044288
52,19,15,Jits_Phase_8,3,5,80,127,2825054484
52,19,15,Jits_Phase_8,0,5,63,98,2825724420
52,19,15,Jits_Phase_8,1,5,56,103,2825795072
52,19,15,Jits_Phase_8,2,1,48,47,2825831600
52,19,15,Jits_Phase_8,3,5,80,127,2825844968
52,19,15,Jits_Phase_8,0,5,63,98,2826554748
52,19,15,Jits_Phase_8,1,5,56,103,2826564940
52,19,15,Jits_Phase_8,2,5,80,127,2826567936
52,19,15,Jits_Phase_8,3,1,48,46,2826620124
52,19,15,Jits_Phase_8,0,5,80,127,2827304444
52,19,15,Jits_Phase_8,1,1,48,45,2827340076
52,19,15,Jits_Phase_8,2,5,56,103,2827364676
52,19,15,Jits_Phase_8,3,5,63,98,2827454892
52,19,15,Jits_Phase_8,0,5,80,127,2828105040
52,19,15,Jits_Phase_8,1,1,48,51,2828158056
52,19,15,Jits_Phase_8,2,5,56,103,2828204480
52,19,15,Jits_Phase_8,3,5,63,98,2828244344
52,19,15,Jits_Phase_8,0,5,56,103,2828954956
52,19,15,Jits_Phase_8,1,5,63,98,2828974444
52,19,15,Jits_Phase_8,2,1,48,51,2828983936
52,19,15,Jits_Phase_8,3,5,80,127,2829014376
52,19,15,Jits_Phase_8,0,5,63,98,2829725432
52,19,15,Jits_Phase_8,1,5,56,103,2829744472
52,19,15,Jits_Phase_8,2,1,48,49,2829745512
52,19,15,Jits_Phase_8,3,5,80,127,2829844916
52,19,15,Jits_Phase_8,0,5,63,98,2830514480
52,19,15,Jits_Phase_8,1,1,48,43,2830540296
52,19,15,Jits_Phase_8,2,5,80,127,2830625284
52,19,15,Jits_Phase_8,3,5,56,103,2830654792
52,19,15,Jits_Phase_8,0,5,56,103,2831334916
52,19,15,Jits_Phase_8,1,1,48,44,2831337360
52,19,15,Jits_Phase_8,2,5,63,98,2831364436
52,19,15,Jits_Phase_8,3,5,80,127,2831414784
52,19,15,Jits_Phase_8,0,5,63,98,2832104796
52,19,15,Jits_Phase_8,1,5,56,103,2832134472
52,19,15,Jits_Phase_8,2,1,48,42,2832137444
52,19,15,Jits_Phase_8,3,5,80,127,2832184740
52,19,15,Jits_Phase_8,0,1,48,47,2832889300
52,19,15,Jits_Phase_8,1,5,56,103,2832934212
52,19,15,Jits_Phase_8,2,5,63,98,2832954744
52,19,15,Jits_Phase_8,3,5,80,127,2833034472
52,19,15,Jits_Phase_8,0,5,63,98,2833704380
52,19,15,Jits_Phase_8,1,1,48,51,2833734100
52,19,15,Jits_Phase_8,2,5,56,103,2833764688
52,19,15,Jits_Phase_8,3,5,80,127,2833794536
52,19,15,Jits_Phase_8,0,1,48,51,2834511960
52,19,15,Jits_Phase_8,1,5,56,103,2834545256
52,19,15,Jits_Phase_8,2,5,80,127,2834604312
52,19,15,Jits_Phase_8,3,5,63,98,2834644324
52,19,15,Jits_Phase_8,0,5,63,98,2835324200
52,19,15,Jits_Phase_8,1,1,48,46,2835378560
52,19,15,Jits_Phase_8,2,5,56,103,2835384584
52,19,15,Jits_Phase_8,3,5,80,127,2835454412
52,19,15,Jits_Phase_8,0,1,48,42,2836184612
52,19,15,Jits_Phase_8,1,5,56,103,2836204940
52,19,15,Jits_Phase_8,2,5,63,98,2836214236
52,19,15,Jits_Phase_8,3,5,80,127,2836217672
52,19,15,Jits_Phase_8,0,1,48,50,2836942192
52,19,15,Jits_Phase_8,1,5,63,98,2836944156
52,19,15,Jits_Phase_8,2,5,56,103,2837004540
52,19,15,Jits_Phase_8,3,5,80,127,2837007684
52,19,15,Jits_Phase_8,0,5,63,98,2837724504
52,19,15,Jits_Phase_8,1,5,80,127,2837754180
52,19,15,Jits_Phase_8,2,1,48,44,2837758496
52,19,15,Jits_Phase_8,3,5,56,103,2837774632
52,19,15,Jits_Phase_8,0,5,56,103,2838454504
52,19,15,Jits_Phase_8,1,5,63,98,2838504780
52,19,15,Jits_Phase_8,2,1,48,44,2838541080
52,19,15,Jits_Phase_8,3,5,80,127,2838584644
52,19,15,Jits_Phase_8,0,5,80,127,2839155140
52,19,15,Jits_Phase_8,1,5,63,98,2839195252
52,19,15,Jits_Phase_8,2,5,56,103,2839214444
52,19,15,Jits_Phase_8,3,1,48,43,2839315624
52,19,15,Jits_Phase_8,0,1,48,46,2839992744
52,19,15,Jits_Phase_8,1,5,56,103,2840024380
52,19,15,Jits_Phase_8,2,5,80,127,2840034876
52,19,15,Jits_Phase_8,3,5,63,98,2840054064
52,19,15,Jits_Phase_8,0,1,48,47,2840760580
52,19,15,Jits_Phase_8,1,5,56,103,2840804964
52,19,15,Jits_Phase_8,2,5,63,98,2840855016
52,19,15,Jits_Phase_8,3,5,80,127,2840884452
52,19,15,Jits_Phase_8,0,1,48,50,2841549928
52,19,15,Jits_Phase_8,1,5,56,103,2841554228
52,19,15,Jits_Phase_8,2,5,63,98,2841564576
52,19,15,Jits_Phase_8,3,5,80,127,2841615072
52,19,15,Jits_Phase_8,0,1,48,50,2842308248
52,19,15,Jits_Phase_8,1,5,56,103,2842344912
52,19,15,Jits_Phase_8,2,5,80,127,2842348052
52,19,15,Jits_Phase_8,3,5,63,98,2842504424
52,19,15,Jits_Phase_8,0,5,63,98,2843165044
52,19,15,Jits_Phase_8,1,1,48,52,2843171996
52,19,15,Jits_Phase_8,2,5,56,103,2843234868
52,19,15,Jits_Phase_8,3,5,80,127,2843274816
52,19,15,Jits_Phase_8,0,1,48,41,2843998856
52,19,15,Jits_Phase_8,1,5,63,98,2844005100
52,19,15,Jits_Phase_8,2,5,56,103,2844094872
52,19,15,Jits_Phase_8,3,5,80,127,2844097940
52,19,15,Jits_Phase_8,0,5,56,103,2844784864
52,19,15,Jits_Phase_8,1,1,48,47,2844827792
52,19,15,Jits_Phase_8,2,5,63,98,2844875016
52,19,15,Jits_Phase_8,3,5,80,127,2844884464
52,19,15,Jits_Phase_8,0,5,56,103,2845554968
52,19,15,Jits_Phase_8,1,5,63,98,2845604224
52,19,15,Jits_Phase_8,2,1,48,46,2845606972
52,19,15,Jits_Phase_8,3,5,80,127,2845635012
52,19,15,Jits_Phase_8,0,1,48,37,2846382144
52,19,15,Jits_Phase_8,1,5,63,98,2846434924
52,19,15,Jits_Phase_8,2,5,80,127,2846445120
52,19,15,Jits_Phase_8,3,5,56,103,2846504300
52,19,15,Jits_Phase_8,0,5,63,98,2847154680
52,19,15,Jits_Phase_8,1,5,80,127,2847214848
52,19,15,Jits_Phase_8,2,1,48,44,2847216788
52,19,15,Jits_Phase_8,3,5,56,103,2847254928
52,19,15,Jits_Phase_8,0,1,48,48,2847978900
52,19,15,Jits_Phase_8,1,5,56,103,2848054680
52,19,15,Jits_Phase_8,2,5,80,127,2848075052
52,19,15,Jits_Phase_8,3,5,63,98,2848094684
52,19,15,Jits_Phase_8,0,5,63,98,2848774660
52,19,15,Jits_Phase_8,1,5,56,103,2848794972
52,19,15,Jits_Phase_8,2,5,80,127,2848834912
52,19,15,Jits_Phase_8,3,1,48,39,2848846124
52,19,15,Jits_Phase_8,0,1,48,48,2849571824
52,19,15,Jits_Phase_8,1,5,63,98,2849584672
52,19,15,Jits_Phase_8,2,5,80,127,2849614128
52,19,15,Jits_Phase_8,3,5,56,103,2849634956
52,19,15,Jits_Phase_8,0,1,48,45,2850324844
52,19,15,Jits_Phase_8,1,5,80,127,2850354688
52,19,15,Jits_Phase_8,2,5,56,103,2850404816
52,19,15,Jits_Phase_8,3,5,63,98,2850465068
52,19,15,Jits_Phase_8,0,5,63,98,2851145088
52,19,15,Jits_Phase_8,1,1,48,40,2851184772
52,19,15,Jits_Phase_8,2,5,56,103,2851264980
52,19,15,Jits_Phase_8,3,5,80,127,2851294788
52,19,15,Jits_Phase_8,0,5,80,127,2851984656
52,19,15,Jits_Phase_8,1,5,63,98,2852004144
52,19,15,Jits_Phase_8,2,1,48,41,2852011228
52,19,15,Jits_Phase_8,3,5,56,103,2852074864
52,19,15,Jits_Phase_8,0,5,63,98,2852804956
52,19,15,Jits_Phase_8,1,5,56,103,2852814256
52,19,15,Jits_Phase_8,2,1,48,44,2852863528
52,19,15,Jits_Phase_8,3,5,80,127,2852895164
52,19,15,Jits_Phase_8,0,1,48,35,2853638400
52,19,15,Jits_Phase_8,1,5,56,103,2853665248
52,19,15,Jits_Phase_8,2,5,80,127,2853694848
52,19,15,Jits_Phase_8,3,5,63,98,2853705192
52,19,15,Jits_Phase_8,0,9999,9999,9999,2718822480
52,19,15,Jits_Phase_8,1,9999,9999,9999,2719622224
52,19,15,Jits_Phase_8,2,9999,9999,9999,2720421960
52,19,15,Jits_Phase_8,3,9999,9999,9999,2721222740
52,19,15,Jits_Phase_8,4,9999,9999,9999,2722022524
52,19,15,Jits_Phase_8,5,9999,9999,9999,2722822212
52,19,15,Jits_Phase_8,6,9999,9999,9999,2723621968
52,19,15,Jits_Phase_8,7,9999,9999,9999,2724422712
52,19,15,Jits_Phase_8,8,9999,9999,9999,2725222492
52,19,15,Jits_Phase_8,9,9999,9999,9999,2726022260
52,19,15,Jits_Phase_8,10,9999,9999,9999,2726821964
52,19,15,Jits_Phase_8,11,9999,9999,9999,2727622768
52,19,15,Jits_Phase_8,12,9999,9999,9999,2728422468
52,19,15,Jits_Phase_8,13,9999,9999,9999,2729222240
52,19,15,Jits_Phase_8,14,9999,9999,9999,2730021984
52,19,15,Jits_Phase_8,15,9999,9999,9999,2730822716
52,19,15,Jits_Phase_8,16,9999,9999,9999,2731622460
52,19,15,Jits_Phase_8,17,9999,9999,9999,2732422264
52,19,15,Jits_Phase_8,18,9999,9999,9999,2733221952
52,19,15,Jits_Phase_8,19,9999,9999,9999,2734022772
52,19,15,Jits_Phase_8,20,9999,9999,9999,2734822456
52,19,15,Jits_Phase_8,21,9999,9999,9999,2735622208
52,19,15,Jits_Phase_8,22,9999,9999,9999,2736421976
52,19,15,Jits_Phase_8,23,9999,9999,9999,2737222720
52,19,15,Jits_Phase_8,24,9999,9999,9999,2738022476
52,19,15,Jits_Phase_8,25,9999,9999,9999,2738822260
52,19,15,Jits_Phase_8,26,9999,9999,9999,2739621948
52,19,15,Jits_Phase_8,27,9999,9999,9999,2740422756
52,19,15,Jits_Phase_8,28,9999,9999,9999,2741222524
52,19,15,Jits_Phase_8,29,9999,9999,9999,2742022228
52,19,15,Jits_Phase_8,30,9999,9999,9999,2742802508
52,19,15,Jits_Phase_8,31,9999,9999,9999,2743602268
52,19,15,Jits_Phase_8,32,9999,9999,9999,2744401988
52,19,15,Jits_Phase_8,33,9999,9999,9999,2745202744
52,19,15,Jits_Phase_8,34,9999,9999,9999,2746002540
52,19,15,Jits_Phase_8,35,9999,9999,9999,2746802236
52,19,15,Jits_Phase_8,36,9999,9999,9999,2747602000
52,19,15,Jits_Phase_8,37,9999,9999,9999,2748402808
52,19,15,Jits_Phase_8,38,9999,9999,9999,2749202504
52,19,15,Jits_Phase_8,39,9999,9999,9999,2750002280
52,19,15,Jits_Phase_8,40,9999,9999,9999,2750802040
52,19,15,Jits_Phase_8,41,9999,9999,9999,2751602784
52,19,15,Jits_Phase_8,42,9999,9999,9999,2752402492
52,19,15,Jits_Phase_8,43,9999,9999,9999,2753202260
52,19,15,Jits_Phase_8,44,9999,9999,9999,2754001996
52,19,15,Jits_Phase_8,45,9999,9999,9999,2754802804
52,19,15,Jits_Phase_8,46,9999,9999,9999,2755602500
52,19,15,Jits_Phase_8,47,9999,9999,9999,2756402264
52,19,15,Jits_Phase_8,48,9999,9999,9999,2757222492
52,19,15,Jits_Phase_8,49,9999,9999,9999,2758022268
52,19,15,Jits_Phase_8,50,9999,9999,9999,2758821952
52,19,15,Jits_Phase_8,51,9999,9999,9999,2759622756
52,19,15,Jits_Phase_8,52,9999,9999,9999,2760422456
52,19,15,Jits_Phase_8,53,9999,9999,9999,2761222236
52,19,15,Jits_Phase_8,54,9999,9999,9999,2762021988
52,19,15,Jits_Phase_8,55,9999,9999,9999,2762822732
52,19,15,Jits_Phase_8,56,9999,9999,9999,2763622484
52,19,15,Jits_Phase_8,57,9999,9999,9999,2764422208
52,19,15,Jits_Phase_8,58,9999,9999,9999,2765221988
52,19,15,Jits_Phase_8,59,9999,9999,9999,2766022728
52,19,15,Jits_Phase_8,60,9999,9999,9999,2766822504
52,19,15,Jits_Phase_8,61,9999,9999,9999,2767622204
52,19,15,Jits_Phase_8,62,9999,9999,9999,2768421972
52,19,15,Jits_Phase_8,63,9999,9999,9999,2769222768
52,19,15,Jits_Phase_8,64,9999,9999,9999,2770062432
52,19,15,Jits_Phase_8,65,9999,9999,9999,2770862192
52,19,15,Jits_Phase_8,66,9999,9999,9999,2771661880
52,19,15,Jits_Phase_8,67,9999,9999,9999,2772462688
52,19,15,Jits_Phase_8,68,9999,9999,9999,2773262452
52,19,15,Jits_Phase_8,69,9999,9999,9999,2774062152
52,19,15,Jits_Phase_8,70,9999,9999,9999,2774861916
52,19,15,Jits_Phase_8,71,9999,9999,9999,2775662656
52,19,15,Jits_Phase_8,72,9999,9999,9999,2776462436
52,19,15,Jits_Phase_8,73,9999,9999,9999,2777262136
52,19,15,Jits_Phase_8,74,9999,9999,9999,2778061920
52,19,15,Jits_Phase_8,75,9999,9999,9999,2778862652
52,19,15,Jits_Phase_8,76,9999,9999,9999,2779662420
52,19,15,Jits_Phase_8,77,9999,9999,9999,2780462196
52,19,15,Jits_Phase_8,78,9999,9999,9999,2781261888
52,19,15,Jits_Phase_8,79,9999,9999,9999,2782062704
52,19,15,Jits_Phase_8,80,9999,9999,9999,2782862416
52,19,15,Jits_Phase_8,81,9999,9999,9999,2783622244
52,19,15,Jits_Phase_8,82,9999,9999,9999,2784422004
52,19,15,Jits_Phase_8,83,9999,9999,9999,2785222736
52,19,15,Jits_Phase_8,84,9999,9999,9999,2786022504
52,19,15,Jits_Phase_8,85,9999,9999,9999,2786822204
52,19,15,Jits_Phase_8,86,9999,9999,9999,2787621964
52,19,15,Jits_Phase_8,87,9999,9999,9999,2788422764
52,19,15,Jits_Phase_8,88,9999,9999,9999,2789222516
52,19,15,Jits_Phase_8,89,9999,9999,9999,2790022232
52,19,15,Jits_Phase_8,90,9999,9999,9999,2790822000
52,19,15,Jits_Phase_8,91,9999,9999,9999,2791622724
52,19,15,Jits_Phase_8,92,9999,9999,9999,2792422500
52,19,15,Jits_Phase_8,93,9999,9999,9999,2793222256
52,19,15,Jits_Phase_8,94,9999,9999,9999,2794022012
52,19,15,Jits_Phase_8,95,9999,9999,9999,2794822756
52,19,15,Jits_Phase_8,96,9999,9999,9999,2795622524
52,19,15,Jits_Phase_8,97,9999,9999,9999,2796342348
52,19,15,Jits_Phase_8,98,9999,9999,9999,2797142124
52,19,15,Jits_Phase_8,99,9999,9999,9999,2797941888
52,19,15,Jits_Phase_8,100,9999,9999,9999,2798742648
52,19,15,Jits_Phase_8,101,9999,9999,9999,2799542336
52,19,15,Jits_Phase_8,102,9999,9999,9999,2800342100
52,19,15,Jits_Phase_8,103,9999,9999,9999,2801141860
52,19,15,Jits_Phase_8,104,9999,9999,9999,2801942604
52,19,15,Jits_Phase_8,105,9999,9999,9999,2802742368
52,19,15,Jits_Phase_8,106,9999,9999,9999,2803542116
52,19,15,Jits_Phase_8,107,9999,9999,9999,2804341856
52,19,15,Jits_Phase_8,108,9999,9999,9999,2805142616
52,19,15,Jits_Phase_8,109,9999,9999,9999,2805942368
52,19,15,Jits_Phase_8,110,9999,9999,9999,2806742068
52,19,15,Jits_Phase_8,111,9999,9999,9999,2807541828
52,19,15,Jits_Phase_8,112,9999,9999,9999,2808342640
52,19,15,Jits_Phase_8,113,9999,9999,9999,2809142336
52,19,15,Jits_Phase_8,114,9999,9999,9999,2810021980
52,19,15,Jits_Phase_8,115,9999,9999,9999,2810822712
52,19,15,Jits_Phase_8,116,9999,9999,9999,2811622472
52,19,15,Jits_Phase_8,117,9999,9999,9999,2812422256
52,19,15,Jits_Phase_8,118,9999,9999,9999,2813221956
52,19,15,Jits_Phase_8,119,9999,9999,9999,2814022772
52,19,15,Jits_Phase_8,120,9999,9999,9999,2814822468
52,19,15,Jits_Phase_8,121,9999,9999,9999,2815622252
52,19,15,Jits_Phase_8,122,9999,9999,9999,2816422008
52,19,15,Jits_Phase_8,123,9999,9999,9999,2817222736
52,19,15,Jits_Phase_8,124,9999,9999,9999,2818022500
52,19,15,Jits_Phase_8,125,9999,9999,9999,2818822264
52,19,15,Jits_Phase_8,126,9999,9999,9999,2819621956
52,19,15,Jits_Phase_8,127,9999,9999,9999,2820422764
52,19,15,Jits_Phase_8,128,9999,9999,9999,2821222524
52,19,15,Jits_Phase_8,129,9999,9999,9999,2822022232
52,19,15,Jits_Phase_8,130,9999,9999,9999,2822822000
52,19,15,Jits_Phase_8,131,9999,9999,9999,2823782468
52,19,15,Jits_Phase_8,132,9999,9999,9999,2824582248
52,19,15,Jits_Phase_8,133,9999,9999,9999,2825382012
52,19,15,Jits_Phase_8,134,9999,9999,9999,2826182748
52,19,15,Jits_Phase_8,135,9999,9999,9999,2826982492
52,19,15,Jits_Phase_8,136,9999,9999,9999,2827782248
52,19,15,Jits_Phase_8,137,9999,9999,9999,2828581948
52,19,15,Jits_Phase_8,138,9999,9999,9999,2829382764
52,19,15,Jits_Phase_8,139,9999,9999,9999,2830182464
52,19,15,Jits_Phase_8,140,9999,9999,9999,2830982248
52,19,15,Jits_Phase_8,141,9999,9999,9999,2831782008
52,19,15,Jits_Phase_8,142,9999,9999,9999,2832582748
52,19,15,Jits_Phase_8,143,9999,9999,9999,2833382504
52,19,15,Jits_Phase_8,144,9999,9999,9999,2834182256
52,19,15,Jits_Phase_8,145,9999,9999,9999,2834981944
52,19,15,Jits_Phase_8,146,9999,9999,9999,2835782724
52,19,15,Jits_Phase_8,147,9999,9999,9999,2836582476
52,19,15,Jits_Phase_8,148,9999,9999,9999,2837382248
52,19,15,Jits_Phase_8,149,9999,9999,9999,2838182004
52,19,15,Jits_Phase_8,150,9999,9999,9999,2838822012
52,19,15,Jits_Phase_8,151,9999,9999,9999,2839622752
52,19,15,Jits_Phase_8,152,9999,9999,9999,2840422456
52,19,15,Jits_Phase_8,153,9999,9999,9999,2841222244
52,19,15,Jits_Phase_8,154,9999,9999,9999,2842021996
52,19,15,Jits_Phase_8,155,9999,9999,9999,2842822716
52,19,15,Jits_Phase_8,156,9999,9999,9999,2843622476
52,19,15,Jits_Phase_8,157,9999,9999,9999,2844422228
52,19,15,Jits_Phase_8,158,9999,9999,9999,2845221992
52,19,15,Jits_Phase_8,159,9999,9999,9999,2846022732
52,19,15,Jits_Phase_8,160,9999,9999,9999,2846822512
52,19,15,Jits_Phase_8,161,9999,9999,9999,2847622224
52,19,15,Jits_Phase_8,162,9999,9999,9999,2848421992
52,19,15,Jits_Phase_8,163,9999,9999,9999,2849222720
52,19,15,Jits_Phase_8,164,9999,9999,9999,2850022476
52,19,15,Jits_Phase_8,165,9999,9999,9999,2850822236
52,19,15,Jits_Phase_8,166,9999,9999,9999,2851621996
52,19,15,Jits_Phase_8,167,9999,9999,9999,2852422728
52,19,15,Jits_Phase_8,168,9999,9999,9999,2853222504
52,19,15,Jits_Phase_8,169,9999,9999,9999,2854022220
52,20,5,ISIP_5,0,5,42,127,2931299776
52,20,5,ISIP_5,1,5,42,127,2931799568
52,20,5,ISIP_5,2,5,42,127,2932299060
52,20,5,ISIP_5,3,5,42,127,2932799824
52,20,5,ISIP_5,4,1,48,50,2933296876
52,20,5,ISIP_5,5,5,42,127,2933299532
52,20,5,ISIP_5,6,5,42,127,2933799308
52,20,5,ISIP_5,7,1,48,52,2933802872
52,20,5,ISIP_5,8,1,48,48,2934297464
52,20,5,ISIP_5,9,5,42,127,2934300044
52,20,5,ISIP_5,10,1,48,48,2934798768
52,20,5,ISIP_5,11,5,42,127,2934800184
52,20,5,ISIP_5,12,5,42,127,2935299444
52,20,5,ISIP_5,13,1,48,43,2935305556
52,20,5,ISIP_5,14,1,48,51,2935791020
52,20,5,ISIP_5,15,5,42,127,2935799280
52,20,5,ISIP_5,16,1,48,48,2936284052
52,20,5,ISIP_5,17,5,42,127,2936299948
52,20,5,ISIP_5,18,5,42,127,2936799500
52,20,5,ISIP_5,19,1,48,47,2936815788
52,20,5,ISIP_5,20,5,42,127,2937299272
52,20,5,ISIP_5,21,1,48,51,2937320340
52,20,5,ISIP_5,22,5,42,127,2937800236
52,20,5,ISIP_5,23,1,48,47,2937807768
52,20,5,ISIP_5,24,5,42,127,2938299708
52,20,5,ISIP_5,25,1,48,48,2938310156
52,20,5,ISIP_5,26,5,42,127,2938799328
52,20,5,ISIP_5,27,1,48,53,2938837824
52,20,5,ISIP_5,28,5,42,127,2939299248
52,20,5,ISIP_5,29,1,48,52,2939329440
52,20,5,ISIP_5,30,5,42,127,2939799840
52,20,5,ISIP_5,31,1,48,40,2939830560
52,20,5,ISIP_5,32,5,42,127,2940299760
52,20,5,ISIP_5,33,1,48,51,2940304296
52,20,5,ISIP_5,34,5,42,127,2940799380
52,20,5,ISIP_5,35,1,48,51,2940807436
52,20,5,ISIP_5,36,5,42,127,2941300244
52,20,5,ISIP_5,37,1,48,46,2941323588
52,20,5,ISIP_5,38,1,48,52,2941793240
52,20,5,ISIP_5,39,5,42,127,2941799860
52,20,5,ISIP_5,40,5,42,127,2942299560
52,20,5,ISIP_5,41,1,48,50,2942300528
52,20,5,ISIP_5,42,1,48,52,2942791208
52,20,5,ISIP_5,43,5,42,127,2942799248
52,20,5,ISIP_5,44,1,48,51,2943293896
52,20,5,ISIP_5,45,5,42,127,2943300140
52,20,5,ISIP_5,46,5,42,127,2943799616
52,20,5,ISIP_5,47,1,48,50,2943809620
52,20,5,ISIP_5,48,5,42,127,2944299312
52,20,5,ISIP_5,49,1,48,51,2944301176
52,20,5,ISIP_5,50,5,42,127,2944800200
52,20,5,ISIP_5,51,1,48,45,2944801168
52,20,5,ISIP_5,52,5,42,127,2945300044
52,20,5,ISIP_5,53,1,48,48,2945327772
52,20,5,ISIP_5,54,5,42,127,2945799516
52,20,5,ISIP_5,55,1,48,53,2945801232
52,20,5,ISIP_5,56,5,42,127,2946299284
52,20,5,ISIP_5,57,1,48,48,2946320956
52,20,5,ISIP_5,58,5,42,127,2946800252
52,20,5,ISIP_5,59,1,48,47,2946819752
52,20,5,ISIP_5,60,5,42,127,2947299576
52,20,5,ISIP_5,61,1,48,51,2947320196
52,20,5,ISIP_5,62,5,42,127,2947799420
52,20,5,ISIP_5,63,1,48,53,2947823180
52,20,5,ISIP_5,64,5,42,127,2948299188
52,20,5,ISIP_5,65,1,48,51,2948308216
52,20,5,ISIP_5,66,5,42,127,2948800076
52,20,5,ISIP_5,67,1,48,48,2948815464
52,20,5,ISIP_5,68,1,48,53,2949297804
52,20,5,ISIP_5,69,5,42,127,2949299468
52,20,5,ISIP_5,70,1,48,51,2949778488
52,20,5,ISIP_5,71,5,42,127,2949799240
52,20,5,ISIP_5,72,1,48,51,2950298316
52,20,5,ISIP_5,73,5,42,127,2950300056
52,20,5,ISIP_5,74,5,42,127,2950800052
52,20,5,ISIP_5,75,1,48,47,2950819628
52,20,5,ISIP_5,76,1,48,49,2951304584
52,20,5,ISIP_5,77,1,48,47,2951847960
52,20,5,ISIP_5,78,1,48,48,2952314364
52,20,5,ISIP_5,79,1,48,51,2952819340
52,20,5,ISIP_5,80,1,48,44,2953339248
52,20,5,ISIP_5,81,1,48,52,2953833080
52,20,5,ISIP_5,82,1,48,49,2954338980
52,20,5,ISIP_5,83,1,48,53,2954817728
52,20,5,ISIP_5,84,1,48,53,2955308144
52,20,5,ISIP_5,85,1,48,51,2955830192
52,20,5,ISIP_5,86,1,48,51,2956302660
52,20,5,ISIP_5,87,1,48,51,2956774360
52,20,5,ISIP_5,88,1,48,48,2957315732
52,20,5,ISIP_5,89,1,48,50,2957806600
52,20,5,ISIP_5,90,1,48,51,2958294084
52,20,5,ISIP_5,91,1,48,44,2958824224
52,20,5,ISIP_5,92,1,48,47,2959347476
52,20,5,ISIP_5,93,1,48,49,2959863028
52,20,5,ISIP_5,94,1,48,52,2960347236
52,20,5,ISIP_5,95,1,48,50,2960841764
52,20,5,ISIP_5,96,1,48,49,2961353272
52,20,5,ISIP_5,97,1,48,55,2961822516
52,20,5,ISIP_5,98,1,48,52,2962344724
52,20,5,ISIP_5,99,1,48,52,2962832220
52,20,5,ISIP_5,100,1,48,52,2963322640
52,20,5,ISIP_5,101,1,48,50,2963808916
52,20,5,ISIP_5,102,1,48,48,2964315488
52,20,5,ISIP_5,103,1,48,50,2964801940
52,20,5,ISIP_5,104,1,48,37,2965358028
52,20,5,ISIP_5,105,1,48,46,2965834980
52,20,5,ISIP_5,106,1,48,46,2966308944
52,20,5,ISIP_5,107,1,48,47,2966801748
52,20,5,ISIP_5,108,1,48,51,2967295664
52,20,5,ISIP_5,109,1,48,46,2967816088
52,20,5,ISIP_5,110,1,48,47,2968315256
52,20,5,ISIP_5,111,1,48,45,2968837908
52,20,5,ISIP_5,112,1,48,48,2969321820
52,20,5,ISIP_5,113,1,48,45,2969851280
52,20,5,ISIP_5,114,1,48,47,2970345356
52,20,5,ISIP_5,115,1,48,46,2970866816
52,20,5,ISIP_5,116,1,48,34,2971354836
52,20,5,ISIP_5,117,1,48,49,2971867248
52,20,5,ISIP_5,118,1,48,43,2972380096
52,20,5,ISIP_5,119,1,48,41,2972873132
52,20,5,ISIP_5,120,1,48,40,2973346492
52,20,5,ISIP_5,121,1,48,49,2973851344
52,20,5,ISIP_5,122,1,48,49,2974372132
52,20,5,ISIP_5,123,1,48,48,2974879300
52,20,5,ISIP_5,124,1,48,46,2975389012
52,20,5,ISIP_5,125,1,48,44,2975878160
52,20,5,ISIP_5,126,1,48,50,2976403580
52,20,5,ISIP_5,127,1,48,50,2976901176
52,20,5,ISIP_5,128,1,48,49,2977371592
52,20,5,ISIP_5,129,1,48,40,2977881680
52,20,5,ISIP_5,130,1,48,41,2978380100
52,20,5,ISIP_5,131,1,48,44,2978909032
52,20,5,ISIP_5,132,1,48,46,2979427196
52,20,5,ISIP_5,133,1,48,38,2979927788
52,20,5,ISIP_5,134,1,48,33,2980400924
52,20,5,ISIP_5,135,1,48,42,2980925368
52,20,5,ISIP_5,136,1,48,31,2981457600
52,20,5,ISIP_5,137,1,48,41,2981938888
52,20,5,ISIP_5,138,1,48,35,2982426016
52,20,5,ISIP_5,139,1,48,44,2982924808
52,20,5,ISIP_5,140,1,48,43,2983428240
52,20,5,ISIP_5,141,1,48,40,2983934512
52,20,5,ISIP_5,142,1,48,38,2984431808
52,20,5,ISIP_5,143,1,48,39,2984945712
52,20,5,ISIP_5,144,1,48,39,2985470460
52,20,5,ISIP_5,145,1,48,40,2985975984
52,20,5,ISIP_5,146,1,48,35,2986521296
52,20,5,ISIP_5,147,1,48,27,2987047540
52,20,5,ISIP_5,148,1,48,33,2987570644
52,20,5,ISIP_5,149,1,48,40,2988090980
52,20,5,ISIP_5,150,1,48,32,2988589100
52,20,5,ISIP_5,151,1,48,37,2989090888
52,20,5,ISIP_5,152,1,48,34,2989624388
52,20,5,ISIP_5,153,1,48,33,2990115996
52,20,5,ISIP_5,154,1,48,40,2990589060
52,20,5,ISIP_5,155,1,48,51,2991080148
52,20,5,ISIP_5,156,1,48,53,2991593300
52,20,5,ISIP_5,157,1,48,48,2992087980
52,20,5,ISIP_5,158,1,48,48,2992629336
52,20,5,ISIP_5,159,1,48,46,2993118556
52,20,5,ISIP_5,160,1,48,43,2993618396
52,20,5,ISIP_5,161,1,48,44,2994132740
52,20,5,ISIP_5,162,1,48,45,2994655548
52,20,5,ISIP_5,163,1,48,47,2995180744
52,20,5,ISIP_5,164,1,48,52,2995682528
52,20,5,ISIP_5,165,1,48,44,2996195228
52,20,5,ISIP_5,166,1,48,46,2996719528
52,20,5,ISIP_5,167,1,48,50,2997220044
52,20,5,ISIP_5,168,1,48,48,2997721080
52,20,5,ISIP_5,169,1,48,49,2998255704
52,20,5,ISIP_5,170,1,48,45,2998764440
52,20,5,ISIP_5,171,1,48,47,2999268476
52,20,5,ISIP_5,172,1,48,45,2999802888
52,20,5,ISIP_5,173,1,48,47,3000296124
52,20,5,ISIP_5,174,1,48,48,3000778840
52,20,5,ISIP_5,175,1,48,46,3001286760
52,20,5,ISIP_5,176,1,48,45,3001780912
52,20,5,ISIP_5,177,1,48,40,3002268864
52,20,5,ISIP_5,178,1,48,44,3002777824
52,20,5,ISIP_5,179,1,48,43,3003277288
52,20,5,ISIP_5,180,1,48,55,3003772048
52,20,5,ISIP_5,181,1,48,40,3004258996
52,20,5,ISIP_5,182,1,48,41,3004769684
52,20,5,ISIP_5,183,1,48,39,3005283436
52,20,5,ISIP_5,184,1,48,43,3005769512
52,20,5,ISIP_5,185,1,48,34,3006274740
52,20,5,ISIP_5,186,1,48,42,3006751612
52,20,5,ISIP_5,187,1,48,41,3007256616
52,20,5,ISIP_5,188,1,48,56,3007789812
52,20,5,ISIP_5,189,1,48,33,3008287036
52,20,5,ISIP_5,190,1,48,38,3008780372
52,20,5,ISIP_5,191,1,48,37,3009287688
52,20,5,ISIP_5,192,1,48,38,3009785732
52,20,5,ISIP_5,193,1,48,40,3010286396
52,20,5,ISIP_5,194,1,48,46,3010789384
52,20,5,ISIP_5,195,1,48,42,3011286380
52,20,5,ISIP_5,0,9999,9999,9999,2931297340
52,20,5,ISIP_5,1,9999,9999,9999,2931797056
52,20,5,ISIP_5,2,9999,9999,9999,2932296772
52,20,5,ISIP_5,3,9999,9999,9999,2932797536
52,20,5,ISIP_5,4,9999,9999,9999,2933297244
52,20,5,ISIP_5,5,9999,9999,9999,2933796944
52,20,5,ISIP_5,6,9999,9999,9999,2934297684
52,20,5,ISIP_5,7,9999,9999,9999,2934797384
52,20,5,ISIP_5,8,9999,9999,9999,2935297080
52,20,5,ISIP_5,9,9999,9999,9999,2935796844
52,20,5,ISIP_5,10,9999,9999,9999,2936297584
52,20,5,ISIP_5,11,9999,9999,9999,2936797288
52,20,5,ISIP_5,12,9999,9999,9999,2937296984
52,20,5,ISIP_5,13,9999,9999,9999,2937797728
52,20,5,ISIP_5,14,9999,9999,9999,2938297420
52,20,5,ISIP_5,15,9999,9999,9999,2938797116
52,20,5,ISIP_5,16,9999,9999,9999,2939296888
52,20,5,ISIP_5,17,9999,9999,9999,2939797552
52,20,5,ISIP_5,18,9999,9999,9999,2940297324
52,20,5,ISIP_5,19,9999,9999,9999,2940797016
52,20,5,ISIP_5,20,9999,9999,9999,2941297732
52,20,5,ISIP_5,21,9999,9999,9999,2941797496
52,20,5,ISIP_5,22,9999,9999,9999,2942297200
52,20,5,ISIP_5,23,9999,9999,9999,2942796888
52,20,5,ISIP_5,24,9999,9999,9999,2943297628
52,20,5,ISIP_5,25,9999,9999,9999,2943797328
52,20,5,ISIP_5,26,9999,9999,9999,2944297024
52,20,5,ISIP_5,27,9999,9999,9999,2944797764
52,20,5,ISIP_5,28,9999,9999,9999,2945297460
52,20,5,ISIP_5,29,9999,9999,9999,2945797228
52,20,5,ISIP_5,30,9999,9999,9999,2946296924
52,20,5,ISIP_5,31,9999,9999,9999,2946797664
52,20,5,ISIP_5,32,9999,9999,9999,2947297360
52,20,5,ISIP_5,33,9999,9999,9999,2947797056
52,20,5,ISIP_5,34,9999,9999,9999,2948296824
52,20,5,ISIP_5,35,9999,9999,9999,2948797492
52,20,5,ISIP_5,36,9999,9999,9999,2949297204
52,20,5,ISIP_5,37,9999,9999,9999,2949796952
52,20,5,ISIP_5,38,9999,9999,9999,2950297704
52,20,5,ISIP_5,39,9999,9999,9999,2950797392
52,20,5,ISIP_5,40,9999,9999,9999,2951297088
52,20,5,ISIP_5,41,9999,9999,9999,2951796828
52,20,5,ISIP_5,42,9999,9999,9999,2952297568
52,20,5,ISIP_5,43,9999,9999,9999,2952797256
52,20,5,ISIP_5,44,9999,9999,9999,2953296948
52,20,5,ISIP_5,45,9999,9999,9999,2953797684
52,20,5,ISIP_5,46,9999,9999,9999,2954297448
52,20,5,ISIP_5,47,9999,9999,9999,2954797140
52,20,5,ISIP_5,48,9999,9999,9999,2955296828
52,20,5,ISIP_5,49,9999,9999,9999,2955797568
52,20,5,ISIP_5,50,9999,9999,9999,2956297332
52,20,5,ISIP_5,51,9999,9999,9999,2956797016
52,20,5,ISIP_5,52,9999,9999,9999,2957297764
52,20,5,ISIP_5,53,9999,9999,9999,2957797452
52,20,5,ISIP_5,54,9999,9999,9999,2958297136
52,20,5,ISIP_5,55,9999,9999,9999,2958796908
52,20,5,ISIP_5,56,9999,9999,9999,2959297644
52,20,5,ISIP_5,57,9999,9999,9999,2959797336
52,20,5,ISIP_5,58,9999,9999,9999,2960297028
52,20,5,ISIP_5,59,9999,9999,9999,2960797764
52,20,5,ISIP_5,60,9999,9999,9999,2961297528
52,20,5,ISIP_5,61,9999,9999,9999,2961797220
52,20,5,ISIP_5,62,9999,9999,9999,2962296912
52,20,5,ISIP_5,63,9999,9999,9999,2962797624
52,20,5,ISIP_5,64,9999,9999,9999,2963297392
52,20,5,ISIP_5,65,9999,9999,9999,2963797084
52,20,5,ISIP_5,66,9999,9999,9999,2964296772
52,20,5,ISIP_5,67,9999,9999,9999,2964797512
52,20,5,ISIP_5,68,9999,9999,9999,2965297200
52,20,5,ISIP_5,69,9999,9999,9999,2965796964
52,20,5,ISIP_5,70,9999,9999,9999,2966297704
52,20,5,ISIP_5,71,9999,9999,9999,2966797392
52,20,5,ISIP_5,72,9999,9999,9999,2967297080
52,20,5,ISIP_5,73,9999,9999,9999,2967796848
52,20,5,ISIP_5,74,9999,9999,9999,2968297588
52,20,5,ISIP_5,75,9999,9999,9999,2968797280
52,20,5,ISIP_5,76,9999,9999,9999,2969296968
52,20,5,ISIP_5,77,9999,9999,9999,2969797708
52,20,5,ISIP_5,78,9999,9999,9999,2970297396
52,20,5,ISIP_5,79,9999,9999,9999,2970797164
52,20,5,ISIP_5,80,9999,9999,9999,2971296852
52,20,5,ISIP_5,81,9999,9999,9999,2971797592
52,20,5,ISIP_5,82,9999,9999,9999,2972297280
52,20,5,ISIP_5,83,9999,9999,9999,2972797048
52,20,5,ISIP_5,84,9999,9999,9999,2973297756
52,20,5,ISIP_5,85,9999,9999,9999,2973797448
52,20,5,ISIP_5,86,9999,9999,9999,2974297140
52,20,5,ISIP_5,87,9999,9999,9999,2974796904
52,20,5,ISIP_5,88,9999,9999,9999,2975297644
52,20,5,ISIP_5,89,9999,9999,9999,2975797332
52,20,5,ISIP_5,90,9999,9999,9999,2976297024
52,20,5,ISIP_5,91,9999,9999,9999,2976797760
52,20,5,ISIP_5,92,9999,9999,9999,2977297524
52,20,5,ISIP_5,93,9999,9999,9999,2977797216
52,20,5,ISIP_5,94,9999,9999,9999,2978296908
52,20,5,ISIP_5,95,9999,9999,9999,2978797644
52,20,5,ISIP_5,96,9999,9999,9999,2979297336
52,20,5,ISIP_5,97,9999,9999,9999,2979797100
52,20,5,ISIP_5,98,9999,9999,9999,2980296788
52,20,5,ISIP_5,99,9999,9999,9999,2980797528
52,20,5,ISIP_5,100,9999,9999,9999,2981297216
52,20,5,ISIP_5,101,9999,9999,9999,2981796984
52,20,5,ISIP_5,102,9999,9999,9999,2982297720
52,20,5,ISIP_5,103,9999,9999,9999,2982797408
52,20,5,ISIP_5,104,9999,9999,9999,2983297100
52,20,5,ISIP_5,105,9999,9999,9999,2983796792
52,20,5,ISIP_5,106,9999,9999,9999,2984297580
52,20,5,ISIP_5,107,9999,9999,9999,2984797272
52,20,5,ISIP_5,108,9999,9999,9999,2985296960
52,20,5,ISIP_5,109,9999,9999,9999,2985797696
52,20,5,ISIP_5,110,9999,9999,9999,2986297464
52,20,5,ISIP_5,111,9999,9999,9999,2986797152
52,20,5,ISIP_5,112,9999,9999,9999,2987296844
52,20,5,ISIP_5,113,9999,9999,9999,2987797584
52,20,5,ISIP_5,114,9999,9999,9999,2988297272
52,20,5,ISIP_5,115,9999,9999,9999,2988797036
52,20,5,ISIP_5,116,9999,9999,9999,2989297776
52,20,5,ISIP_5,117,9999,9999,9999,2989797464
52,20,5,ISIP_5,118,9999,9999,9999,2990297156
52,20,5,ISIP_5,119,9999,9999,9999,2990796920
52,20,5,ISIP_5,120,9999,9999,9999,2991297584
52,20,5,ISIP_5,121,9999,9999,9999,2991797352
52,20,5,ISIP_5,122,9999,9999,9999,2992297040
52,20,5,ISIP_5,123,9999,9999,9999,2992797780
52,20,5,ISIP_5,124,9999,9999,9999,2993297468
52,20,5,ISIP_5,125,9999,9999,9999,2993797236
52,20,5,ISIP_5,126,9999,9999,9999,2994296924
52,20,5,ISIP_5,127,9999,9999,9999,2994797636
52,20,5,ISIP_5,128,9999,9999,9999,2995297328
52,20,5,ISIP_5,129,9999,9999,9999,2995797092
52,20,5,ISIP_5,130,9999,9999,9999,2996296784
52,20,5,ISIP_5,131,9999,9999,9999,2996797536
52,20,5,ISIP_5,132,9999,9999,9999,2997297228
52,20,5,ISIP_5,133,9999,9999,9999,2997796916
52,20,5,ISIP_5,134,9999,9999,9999,2998297656
52,20,5,ISIP_5,135,9999,9999,9999,2998797420
52,20,5,ISIP_5,136,9999,9999,9999,2999297112
52,20,5,ISIP_5,137,9999,9999,9999,2999796808
52,20,5,ISIP_5,138,9999,9999,9999,3000297540
52,20,5,ISIP_5,139,9999,9999,9999,3000797304
52,20,5,ISIP_5,140,9999,9999,9999,3001296996
52,20,5,ISIP_5,141,9999,9999,9999,3001797732
52,20,5,ISIP_5,142,9999,9999,9999,3002297424
52,20,5,ISIP_5,143,9999,9999,9999,3002797112
52,20,5,ISIP_5,144,9999,9999,9999,3003296880
52,20,5,ISIP_5,145,9999,9999,9999,3003797620
52,20,5,ISIP_5,146,9999,9999,9999,3004297308
52,20,5,ISIP_5,147,9999,9999,9999,3004797000
52,20,5,ISIP_5,148,9999,9999,9999,3005297712
52,20,5,ISIP_5,149,9999,9999,9999,3005797476
52,20,5,ISIP_5,150,9999,9999,9999,3006297168
52,20,5,ISIP_5,151,9999,9999,9999,3006796856
52,20,5,ISIP_5,152,9999,9999,9999,3007297596
52,20,5,ISIP_5,153,9999,9999,9999,3007797360
52,20,5,ISIP_5,154,9999,9999,9999,3008297052
52,20,5,ISIP_5,155,9999,9999,9999,3008797788
52,20,5,ISIP_5,156,9999,9999,9999,3009297480
52,20,5,ISIP_5,157,9999,9999,9999,3009797168
52,20,5,ISIP_5,158,9999,9999,9999,3010296936
52,20,5,ISIP_5,159,9999,9999,9999,3010797672
52,21,3,ISIP_8,0,5,42,127,3037834544
52,21,3,ISIP_8,1,5,42,127,3038634372
52,21,3,ISIP_8,2,5,42,127,3039435104
52,21,3,ISIP_8,3,5,42,127,3040234856
52,21,3,ISIP_8,4,1,48,54,3041026496
52,21,3,ISIP_8,5,5,42,127,3041034604
52,21,3,ISIP_8,6,1,48,59,3041764372
52,21,3,ISIP_8,7,5,42,127,3041834412
52,21,3,ISIP_8,8,1,48,45,3042570908
52,21,3,ISIP_8,9,5,42,127,3042635120
52,21,3,ISIP_8,10,5,42,127,3043434784
52,21,3,ISIP_8,11,1,48,51,3043504120
52,21,3,ISIP_8,12,5,42,127,3044234468
52,21,3,ISIP_8,13,1,48,45,3044244840
52,21,3,ISIP_8,14,5,42,127,3045034424
52,21,3,ISIP_8,15,1,48,42,3045058260
52,21,3,ISIP_8,16,1,48,42,3045818332
52,21,3,ISIP_8,17,5,42,127,3045835052
52,21,3,ISIP_8,18,5,42,127,3046634716
52,21,3,ISIP_8,19,1,48,49,3046638280
52,21,3,ISIP_8,20,1,48,48,3047428424
52,21,3,ISIP_8,21,5,42,127,3047434516
52,21,3,ISIP_8,22,1,48,45,3048223668
52,21,3,ISIP_8,23,5,42,127,3048234252
52,21,3,ISIP_8,24,5,42,127,3049035336
52,21,3,ISIP_8,25,1,48,45,3049042048
52,21,3,ISIP_8,26,1,48,44,3049817228
52,21,3,ISIP_8,27,5,42,127,3049834764
52,21,3,ISIP_8,28,1,48,48,3050621624
52,21,3,ISIP_8,29,5,42,127,3050634596
52,21,3,ISIP_8,30,1,48,46,3051417316
52,21,3,ISIP_8,31,5,42,127,3051434332
52,21,3,ISIP_8,32,5,42,127,3052235268
52,21,3,ISIP_8,33,1,48,48,3052249532
52,21,3,ISIP_8,34,1,48,48,3053026280
52,21,3,ISIP_8,35,5,42,127,3053035140
52,21,3,ISIP_8,36,1,48,47,3053795872
52,21,3,ISIP_8,37,5,42,127,3053834728
52,21,3,ISIP_8,38,1,48,41,3054593068
52,21,3,ISIP_8,39,5,42,127,3054634312
52,21,3,ISIP_8,40,1,48,49,3055402072
52,21,3,ISIP_8,41,5,42,127,3055435092
52,21,3,ISIP_8,42,1,48,50,3056219080
52,21,3,ISIP_8,43,5,42,127,3056235044
52,21,3,ISIP_8,44,5,42,127,3057034588
52,21,3,ISIP_8,45,1,48,48,3057063288
52,21,3,ISIP_8,46,5,42,127,3057834248
52,21,3,ISIP_8,47,1,48,48,3057866312
52,21,3,ISIP_8,48,5,42,127,3058635104
52,21,3,ISIP_8,49,1,48,50,3058669036
52,21,3,ISIP_8,50,1,48,55,3059433396
52,21,3,ISIP_8,51,5,42,127,3059434828
52,21,3,ISIP_8,52,1,48,53,3060207976
52,21,3,ISIP_8,53,5,42,127,3060234636
52,21,3,ISIP_8,54,1,48,51,3061031492
52,21,3,ISIP_8,55,5,42,127,3061034296
52,21,3,ISIP_8,56,1,48,46,3061845748
52,21,3,ISIP_8,57,1,48,56,3062661956
52,21,3,ISIP_8,58,1,48,47,3063488692
52,21,3,ISIP_8,59,1,48,51,3064297316
52,21,3,ISIP_8,60,1,48,46,3065091216
52,21,3,ISIP_8,61,1,48,44,3065906128
52,21,3,ISIP_8,62,1,48,37,3066741408
52,21,3,ISIP_8,63,1,48,47,3067545632
52,21,3,ISIP_8,64,1,48,45,3068331964
52,21,3,ISIP_8,65,1,48,44,3069116516
52,21,3,ISIP_8,66,1,48,46,3069954912
52,21,3,ISIP_8,67,1,48,49,3070795408
52,21,3,ISIP_8,68,1,48,47,3071606008
52,21,3,ISIP_8,69,1,48,42,3072443808
52,21,3,ISIP_8,70,1,48,48,3073224088
52,21,3,ISIP_8,71,1,48,42,3074061592
52,21,3,ISIP_8,72,1,48,46,3074872288
52,21,3,ISIP_8,73,1,48,46,3075669328
52,21,3,ISIP_8,74,1,48,46,3076524800
52,21,3,ISIP_8,75,1,48,44,3077371652
52,21,3,ISIP_8,76,1,48,43,3078181256
52,21,3,ISIP_8,77,1,48,44,3078982180
52,21,3,ISIP_8,78,1,48,43,3079860252
52,21,3,ISIP_8,79,1,48,41,3080628268
52,21,3,ISIP_8,80,1,48,34,3081422828
52,21,3,ISIP_8,81,1,48,44,3082214860
52,21,3,ISIP_8,82,1,48,41,3083007332
52,21,3,ISIP_8,83,1,48,39,3083805416
52,21,3,ISIP_8,84,1,48,40,3084615316
52,21,3,ISIP_8,85,1,48,41,3085441104
52,21,3,ISIP_8,86,1,48,44,3086260280
52,21,3,ISIP_8,87,1,48,31,3087109152
52,21,3,ISIP_8,88,1,48,40,3087903640
52,21,3,ISIP_8,89,1,48,38,3088758004
52,21,3,ISIP_8,90,1,48,42,3089569024
52,21,3,ISIP_8,91,1,48,42,3090380644
52,21,3,ISIP_8,92,1,48,44,3091186432
52,21,3,ISIP_8,93,1,48,35,3092046672
52,21,3,ISIP_8,94,1,48,43,3092884800
52,21,3,ISIP_8,95,1,48,35,3093691032
52,21,3,ISIP_8,96,1,48,40,3094507820
52,21,3,ISIP_8,97,1,48,35,3095371200
52,21,3,ISIP_8,98,1,48,37,3096215008
52,21,3,ISIP_8,99,1,48,36,3097026708
52,21,3,ISIP_8,100,1,48,32,3097812372
52,21,3,ISIP_8,101,1,48,41,3098623468
52,21,3,ISIP_8,102,1,48,42,3099470936
52,21,3,ISIP_8,103,1,48,42,3100251364
52,21,3,ISIP_8,104,1,48,44,3101048876
52,21,3,ISIP_8,105,1,48,43,3101882488
52,21,3,ISIP_8,106,1,48,44,3102704880
52,21,3,ISIP_8,107,1,48,43,3103531608
52,21,3,ISIP_8,108,1,48,42,3104351084
52,21,3,ISIP_8,109,1,48,43,3105143212
52,21,3,ISIP_8,110,1,48,40,3105951464
52,21,3,ISIP_8,111,1,48,43,3106782240
52,21,3,ISIP_8,112,1,48,45,3107599244
52,21,3,ISIP_8,113,1,48,44,3108469836
52,21,3,ISIP_8,114,1,48,48,3109278988
52,21,3,ISIP_8,115,1,48,46,3110110728
52,21,3,ISIP_8,116,1,48,46,3110919808
52,21,3,ISIP_8,117,1,48,43,3111729336
52,21,3,ISIP_8,118,1,48,47,3112563420
52,21,3,ISIP_8,119,1,48,35,3113409824
52,21,3,ISIP_8,120,1,48,45,3114243288
52,21,3,ISIP_8,121,1,48,46,3115079444
52,21,3,ISIP_8,122,1,48,40,3115898420
52,21,3,ISIP_8,123,1,48,44,3116738988
52,21,3,ISIP_8,124,1,48,45,3117586360
52,21,3,ISIP_8,125,1,48,45,3118417508
52,21,3,ISIP_8,126,1,48,47,3119266108
52,21,3,ISIP_8,127,1,48,43,3120069728
52,21,3,ISIP_8,128,1,48,45,3120868708
52,21,3,ISIP_8,129,1,48,42,3121702836
52,21,3,ISIP_8,130,1,48,42,3122584272
52,21,3,ISIP_8,131,1,48,46,3123387448
52,21,3,ISIP_8,132,1,48,45,3124224348
52,21,3,ISIP_8,133,1,48,40,3125093128
52,21,3,ISIP_8,134,1,48,46,3125954140
52,21,3,ISIP_8,135,1,48,38,3126812508
52,21,3,ISIP_8,136,1,48,47,3127643128
52,21,3,ISIP_8,137,1,48,45,3128481628
52,21,3,ISIP_8,138,1,48,40,3129342100
52,21,3,ISIP_8,139,1,48,44,3130199048
52,21,3,ISIP_8,140,1,48,37,3131084892
52,21,3,ISIP_8,141,1,48,40,3131895916
52,21,3,ISIP_8,142,1,48,45,3132714044
52,21,3,ISIP_8,143,1,48,44,3133516316
52,21,3,ISIP_8,144,1,48,45,3134347932
52,21,3,ISIP_8,145,1,48,38,3135235700
52,21,3,ISIP_8,146,1,48,39,3136099828
52,21,3,ISIP_8,147,1,48,41,3136886196
52,21,3,ISIP_8,148,1,48,48,3137674484
52,21,3,ISIP_8,149,1,48,40,3138552820
52,21,3,ISIP_8,150,1,48,37,3139357040
52,21,3,ISIP_8,151,1,48,40,3140194240
52,21,3,ISIP_8,152,1,48,39,3141019056
52,21,3,ISIP_8,153,1,48,40,3141868612
52,21,3,ISIP_8,154,1,48,43,3142725936
52,21,3,ISIP_8,155,1,48,41,3143573560
52,21,3,ISIP_8,156,1,48,41,3144430884
52,21,3,ISIP_8,157,1,48,38,3145288652
52,21,3,ISIP_8,158,1,48,40,3146156024
52,21,3,ISIP_8,159,1,48,45,3146965328
52,21,3,ISIP_8,160,1,48,44,3147777844
52,21,3,ISIP_8,161,1,48,39,3148637192
52,21,3,ISIP_8,162,1,48,38,3149485788
52,21,3,ISIP_8,163,1,48,35,3150332116
52,21,3,ISIP_8,164,1,48,34,3151190260
52,21,3,ISIP_8,165,1,48,41,3152048804
52,21,3,ISIP_8,166,1,48,39,3152915180
52,21,3,ISIP_8,167,1,48,32,3153785172
52,21,3,ISIP_8,168,1,48,44,3154612648
52,21,3,ISIP_8,169,1,48,37,3155503200
52,21,3,ISIP_8,170,1,48,39,3156347604
52,21,3,ISIP_8,171,1,48,36,3157156084
52,21,3,ISIP_8,0,9999,9999,9999,3037832256
52,21,3,ISIP_8,1,9999,9999,9999,3038632012
52,21,3,ISIP_8,2,9999,9999,9999,3039432812
52,21,3,ISIP_8,3,9999,9999,9999,3040232568
52,21,3,ISIP_8,4,9999,9999,9999,3041032244
52,21,3,ISIP_8,5,9999,9999,9999,3041832052
52,21,3,ISIP_8,6,9999,9999,9999,3042632756
52,21,3,ISIP_8,7,9999,9999,9999,3043432496
52,21,3,ISIP_8,8,9999,9999,9999,3044232252
52,21,3,ISIP_8,9,9999,9999,9999,3045031988
52,21,3,ISIP_8,10,9999,9999,9999,3045832764
52,21,3,ISIP_8,11,9999,9999,9999,3046632500
52,21,3,ISIP_8,12,9999,9999,9999,3047432304
52,21,3,ISIP_8,13,9999,9999,9999,3048232036
52,21,3,ISIP_8,14,9999,9999,9999,3049032824
52,21,3,ISIP_8,15,9999,9999,9999,3049832548
52,21,3,ISIP_8,16,9999,9999,9999,3050632308
52,21,3,ISIP_8,17,9999,9999,9999,3051432044
52,21,3,ISIP_8,18,9999,9999,9999,3052232752
52,21,3,ISIP_8,19,9999,9999,9999,3053032556
52,21,3,ISIP_8,20,9999,9999,9999,3053832292
52,21,3,ISIP_8,21,9999,9999,9999,3054632024
52,21,3,ISIP_8,22,9999,9999,9999,3055432804
52,21,3,ISIP_8,23,9999,9999,9999,3056232536
52,21,3,ISIP_8,24,9999,9999,9999,3057032300
52,21,3,ISIP_8,25,9999,9999,9999,3057832032
52,21,3,ISIP_8,26,9999,9999,9999,3058632812
52,21,3,ISIP_8,27,9999,9999,9999,3059432548
52,21,3,ISIP_8,28,9999,9999,9999,3060232272
52,21,3,ISIP_8,29,9999,9999,9999,3061032008
52,21,3,ISIP_8,30,9999,9999,9999,3061832792
52,21,3,ISIP_8,31,9999,9999,9999,3062632520
52,21,3,ISIP_8,32,9999,9999,9999,3063432276
52,21,3,ISIP_8,33,9999,9999,9999,3064232004
52,21,3,ISIP_8,34,9999,9999,9999,3065032780
52,21,3,ISIP_8,35,9999,9999,9999,3065832512
52,21,3,ISIP_8,36,9999,9999,9999,3066632240
52,21,3,ISIP_8,37,9999,9999,9999,3067432044
52,21,3,ISIP_8,38,9999,9999,9999,3068232820
52,21,3,ISIP_8,39,9999,9999,9999,3069032548
52,21,3,ISIP_8,40,9999,9999,9999,3069832304
52,21,3,ISIP_8,41,9999,9999,9999,3070632032
52,21,3,ISIP_8,42,9999,9999,9999,3071432808
52,21,3,ISIP_8,43,9999,9999,9999,3072232536
52,21,3,ISIP_8,44,9999,9999,9999,3073032264
52,21,3,ISIP_8,45,9999,9999,9999,3073831996
52,21,3,ISIP_8,46,9999,9999,9999,3074632820
52,21,3,ISIP_8,47,9999,9999,9999,3075432548
52,21,3,ISIP_8,48,9999,9999,9999,3076232300
52,21,3,ISIP_8,49,9999,9999,9999,3077032032
52,21,3,ISIP_8,50,9999,9999,9999,3077832808
52,21,3,ISIP_8,51,9999,9999,9999,3078632536
52,21,3,ISIP_8,52,9999,9999,9999,3079432264
52,21,3,ISIP_8,53,9999,9999,9999,3080231992
52,21,3,ISIP_8,54,9999,9999,9999,3081032768
52,21,3,ISIP_8,55,9999,9999,9999,3081832500
52,21,3,ISIP_8,56,9999,9999,9999,3082632256
52,21,3,ISIP_8,57,9999,9999,9999,3083431984
52,21,3,ISIP_8,58,9999,9999,9999,3084232760
52,21,3,ISIP_8,59,9999,9999,9999,3085032564
52,21,3,ISIP_8,60,9999,9999,9999,3085832296
52,21,3,ISIP_8,61,9999,9999,9999,3086632024
52,21,3,ISIP_8,62,9999,9999,9999,3087432800
52,21,3,ISIP_8,63,9999,9999,9999,3088232528
52,21,3,ISIP_8,64,9999,9999,9999,3089032284
52,21,3,ISIP_8,65,9999,9999,9999,3089832012
52,21,3,ISIP_8,66,9999,9999,9999,3090632788
52,21,3,ISIP_8,67,9999,9999,9999,3091432516
52,21,3,ISIP_8,68,9999,9999,9999,3092232244
52,21,3,ISIP_8,69,9999,9999,9999,3093032048
52,21,3,ISIP_8,70,9999,9999,9999,3093832752
52,21,3,ISIP_8,71,9999,9999,9999,3094632552
52,21,3,ISIP_8,72,9999,9999,9999,3095432248
52,21,3,ISIP_8,73,9999,9999,9999,3096232052
52,21,3,ISIP_8,74,9999,9999,9999,3097032752
52,21,3,ISIP_8,75,9999,9999,9999,3097832556
52,21,3,ISIP_8,76,9999,9999,9999,3098632284
52,21,3,ISIP_8,77,9999,9999,9999,3099432020
52,21,3,ISIP_8,78,9999,9999,9999,3100232796
52,21,3,ISIP_8,79,9999,9999,9999,3101032524
52,21,3,ISIP_8,80,9999,9999,9999,3101832280
52,21,3,ISIP_8,81,9999,9999,9999,3102632008
52,21,3,ISIP_8,82,9999,9999,9999,3103432784
52,21,3,ISIP_8,83,9999,9999,9999,3104232512
52,21,3,ISIP_8,84,9999,9999,9999,3105032244
52,21,3,ISIP_8,85,9999,9999,9999,3105832048
52,21,3,ISIP_8,86,9999,9999,9999,3106632824
52,21,3,ISIP_8,87,9999,9999,9999,3107432552
52,21,3,ISIP_8,88,9999,9999,9999,3108232304
52,21,3,ISIP_8,89,9999,9999,9999,3109032036
52,21,3,ISIP_8,90,9999,9999,9999,3109832812
52,21,3,ISIP_8,91,9999,9999,9999,3110632540
52,21,3,ISIP_8,92,9999,9999,9999,3111432272
52,21,3,ISIP_8,93,9999,9999,9999,3112232000
52,21,3,ISIP_8,94,9999,9999,9999,3113032776
52,21,3,ISIP_8,95,9999,9999,9999,3113832504
52,21,3,ISIP_8,96,9999,9999,9999,3114632260
52,21,3,ISIP_8,97,9999,9999,9999,3115431988
52,21,3,ISIP_8,98,9999,9999,9999,3116232764
52,21,3,ISIP_8,99,9999,9999,9999,3117032568
52,21,3,ISIP_8,100,9999,9999,9999,3117832296
52,21,3,ISIP_8,101,9999,9999,9999,3118632024
52,21,3,ISIP_8,102,9999,9999,9999,3119432804
52,21,3,ISIP_8,103,9999,9999,9999,3120232532
52,21,3,ISIP_8,104,9999,9999,9999,3121032284
52,21,3,ISIP_8,105,9999,9999,9999,3121832016
52,21,3,ISIP_8,106,9999,9999,9999,3122632804
52,21,3,ISIP_8,107,9999,9999,9999,3123432536
52,21,3,ISIP_8,108,9999,9999,9999,3124232264
52,21,3,ISIP_8,109,9999,9999,9999,3125032000
52,21,3,ISIP_8,110,9999,9999,9999,3125832776
52,21,3,ISIP_8,111,9999,9999,9999,3126632504
52,21,3,ISIP_8,112,9999,9999,9999,3127432260
52,21,3,ISIP_8,113,9999,9999,9999,3128231988
52,21,3,ISIP_8,114,9999,9999,9999,3129032764
52,21,3,ISIP_8,115,9999,9999,9999,3129832568
52,21,3,ISIP_8,116,9999,9999,9999,3130632296
52,21,3,ISIP_8,117,9999,9999,9999,3131432028
52,21,3,ISIP_8,118,9999,9999,9999,3132232800
52,21,3,ISIP_8,119,9999,9999,9999,3133032532
52,21,3,ISIP_8,120,9999,9999,9999,3133832288
52,21,3,ISIP_8,121,9999,9999,9999,3134632016
52,21,3,ISIP_8,122,9999,9999,9999,3135432792
52,21,3,ISIP_8,123,9999,9999,9999,3136232520
52,21,3,ISIP_8,124,9999,9999,9999,3137032252
52,21,3,ISIP_8,125,9999,9999,9999,3137832056
52,21,3,ISIP_8,126,9999,9999,9999,3138632772
52,21,3,ISIP_8,127,9999,9999,9999,3139432500
52,21,3,ISIP_8,128,9999,9999,9999,3140232256
52,21,3,ISIP_8,129,9999,9999,9999,3141031984
52,21,3,ISIP_8,130,9999,9999,9999,3141832768
52,21,3,ISIP_8,131,9999,9999,9999,3142632568
52,21,3,ISIP_8,132,9999,9999,9999,3143432300
52,21,3,ISIP_8,133,9999,9999,9999,3144232028
52,21,3,ISIP_8,134,9999,9999,9999,3145032804
52,21,3,ISIP_8,135,9999,9999,9999,3145832532
52,21,3,ISIP_8,136,9999,9999,9999,3146632284
52,21,3,ISIP_8,137,9999,9999,9999,3147432016
52,21,3,ISIP_8,138,9999,9999,9999,3148232792
52,21,3,ISIP_8,139,9999,9999,9999,3149032520
52,21,3,ISIP_8,140,9999,9999,9999,3149832248
52,21,3,ISIP_8,141,9999,9999,9999,3150632052
52,21,3,ISIP_8,142,9999,9999,9999,3151432752
52,21,3,ISIP_8,143,9999,9999,9999,3152232556
52,21,3,ISIP_8,144,9999,9999,9999,3153032312
52,21,3,ISIP_8,145,9999,9999,9999,3153831984
52,21,3,ISIP_8,146,9999,9999,9999,3154632756
52,21,3,ISIP_8,147,9999,9999,9999,3155432568
52,21,3,ISIP_8,148,9999,9999,9999,3156232296
52,21,3,ISIP_8,149,9999,9999,9999,3157032028
52,22,11,Pattern_Practice,0,5,42,127,3263517028
52,22,11,Pattern_Practice,1,5,42,127,3264016744
52,22,11,Pattern_Practice,2,5,42,127,3264516388
52,22,11,Pattern_Practice,3,5,42,127,3265016176
52,22,11,Pattern_Practice,4,1,48,51,3265459756
52,22,11,Pattern_Practice,5,5,42,127,3265517008
52,22,11,Pattern_Practice,6,1,48,52,3265739148
52,22,11,Pattern_Practice,7,5,42,127,3266016688
52,22,11,Pattern_Practice,8,5,42,127,3266516256
52,22,11,Pattern_Practice,9,5,42,127,3267017020
52,22,11,Pattern_Practice,10,1,48,42,3267509212
52,22,11,Pattern_Practice,11,5,42,127,3267516880
52,22,11,Pattern_Practice,12,1,48,57,3267780976
52,22,11,Pattern_Practice,13,5,42,127,3268016484
52,22,11,Pattern_Practice,14,5,42,127,3268516276
52,22,11,Pattern_Practice,15,5,42,127,3269016816
52,22,11,Pattern_Practice,16,5,42,127,3269516608
52,22,11,Pattern_Practice,17,1,48,54,3269521672
52,22,11,Pattern_Practice,18,1,48,57,3269619860
52,22,11,Pattern_Practice,19,1,48,47,3269780004
52,22,11,Pattern_Practice,20,5,42,127,3270016484
52,22,11,Pattern_Practice,21,5,42,127,3270517096
52,22,11,Pattern_Practice,22,5,42,127,3271016964
52,22,11,Pattern_Practice,23,1,48,50,3271513252
52,22,11,Pattern_Practice,24,5,42,127,3271516648
52,22,11,Pattern_Practice,25,1,48,49,3271593084
52,22,11,Pattern_Practice,26,1,48,48,3271765392
52,22,11,Pattern_Practice,27,5,42,127,3272016232
52,22,11,Pattern_Practice,28,5,42,127,3272516920
52,22,11,Pattern_Practice,29,5,42,127,3273016860
52,22,11,Pattern_Practice,30,1,48,52,3273482728
52,22,11,Pattern_Practice,31,5,42,127,3273516568
52,22,11,Pattern_Practice,32,1,48,49,3273760248
52,22,11,Pattern_Practice,33,1,48,27,3273817068
52,22,11,Pattern_Practice,34,1,38,54,3273983796
52,22,11,Pattern_Practice,35,5,42,127,3274017116
52,22,11,Pattern_Practice,36,1,48,52,3274480652
52,22,11,Pattern_Practice,37,5,42,127,3274516812
52,22,11,Pattern_Practice,38,1,48,48,3274761084
52,22,11,Pattern_Practice,39,1,38,67,3275016268
52,22,11,Pattern_Practice,40,5,42,127,3275018876
52,22,11,Pattern_Practice,41,1,48,41,3275263156
52,22,11,Pattern_Practice,42,1,48,48,3275515108
52,22,11,Pattern_Practice,43,5,42,127,3275516532
52,22,11,Pattern_Practice,44,1,48,45,3275775024
52,22,11,Pattern_Practice,45,5,42,127,3276016888
52,22,11,Pattern_Practice,46,1,38,69,3276058300
52,22,11,Pattern_Practice,47,5,42,127,3276516952
52,22,11,Pattern_Practice,48,1,48,58,3276524408
52,22,11,Pattern_Practice,49,1,48,48,3276775660
52,22,11,Pattern_Practice,50,1,38,68,3277001776
52,22,11,Pattern_Practice,51,5,42,127,3277016692
52,22,11,Pattern_Practice,52,1,48,50,3277252072
52,22,11,Pattern_Practice,53,1,48,38,3277513268
52,22,11,Pattern_Practice,54,5,42,127,3277516072
52,22,11,Pattern_Practice,55,1,48,54,3277775532
52,22,11,Pattern_Practice,56,5,42,127,3278016948
52,22,11,Pattern_Practice,57,1,38,67,3278032632
52,22,11,Pattern_Practice,58,1,48,53,3278504556
52,22,11,Pattern_Practice,59,5,42,127,3278516784
52,22,11,Pattern_Practice,60,1,48,42,3278854108
52,22,11,Pattern_Practice,61,5,42,127,3279016312
52,22,11,Pattern_Practice,62,1,38,58,3279019880
52,22,11,Pattern_Practice,63,1,48,43,3279244428
52,22,11,Pattern_Practice,64,1,48,51,3279503152
52,22,11,Pattern_Practice,65,5,42,127,3279517176
52,22,11,Pattern_Practice,66,1,48,47,3279756664
52,22,11,Pattern_Practice,67,1,38,69,3280001704
52,22,11,Pattern_Practice,68,5,42,127,3280016700
52,22,11,Pattern_Practice,69,1,48,59,3280506484
52,22,11,Pattern_Practice,70,5,42,127,3280516616
52,22,11,Pattern_Practice,71,1,48,56,3280853864
52,22,11,Pattern_Practice,72,1,38,71,3280994712
52,22,11,Pattern_Practice,73,5,42,127,3281016140
52,22,11,Pattern_Practice,74,1,48,48,3281261616
52,22,11,Pattern_Practice,75,5,42,127,3281516792
52,22,11,Pattern_Practice,76,1,48,51,3281527760
52,22,11,Pattern_Practice,77,1,48,48,3281800928
52,22,11,Pattern_Practice,78,5,42,127,3282016664
52,22,11,Pattern_Practice,79,1,38,51,3282042372
52,22,11,Pattern_Practice,80,1,48,36,3282294440
52,22,11,Pattern_Practice,81,1,48,47,3282393976
52,22,11,Pattern_Practice,82,1,48,31,3282478628
52,22,11,Pattern_Practice,83,5,42,127,3282516580
52,22,11,Pattern_Practice,84,1,48,67,3282783896
52,22,11,Pattern_Practice,85,5,42,127,3283017012
52,22,11,Pattern_Practice,86,1,38,52,3283057476
52,22,11,Pattern_Practice,87,5,42,127,3283516784
52,22,11,Pattern_Practice,88,1,48,61,3283528880
52,22,11,Pattern_Practice,89,1,48,44,3283802644
52,22,11,Pattern_Practice,90,5,42,127,3284016604
52,22,11,Pattern_Practice,91,1,38,51,3284033040
52,22,11,Pattern_Practice,92,1,48,53,3284279652
52,22,11,Pattern_Practice,93,1,48,19,3284391400
52,22,11,Pattern_Practice,94,5,42,127,3284516180
52,22,11,Pattern_Practice,95,1,48,49,3284733544
52,22,11,Pattern_Practice,96,1,38,61,3284992720
52,22,11,Pattern_Practice,97,5,42,127,3285016840
52,22,11,Pattern_Practice,98,5,42,127,3285516616
52,22,11,Pattern_Practice,99,1,48,56,3285532076
52,22,11,Pattern_Practice,100,1,48,46,3285799556
52,22,11,Pattern_Practice,101,5,42,127,3286016588
52,22,11,Pattern_Practice,102,1,38,57,3286023968
52,22,11,Pattern_Practice,103,1,48,52,3286286064
52,22,11,Pattern_Practice,104,1,48,42,3286371560
52,22,11,Pattern_Practice,105,5,42,127,3286517060
52,22,11,Pattern_Practice,106,1,48,48,3286772048
52,22,11,Pattern_Practice,107,5,42,127,3287016756
52,22,11,Pattern_Practice,108,1,38,67,3287049192
52,22,11,Pattern_Practice,109,5,42,127,3287516448
52,22,11,Pattern_Practice,110,1,48,67,3287542232
52,22,11,Pattern_Practice,111,1,48,38,3287819060
52,22,11,Pattern_Practice,112,5,42,127,3288016492
52,22,11,Pattern_Practice,113,1,38,60,3288049760
52,22,11,Pattern_Practice,114,1,48,55,3288294428
52,22,11,Pattern_Practice,115,1,48,42,3288398596
52,22,11,Pattern_Practice,116,5,42,127,3288517044
52,22,11,Pattern_Practice,117,1,48,51,3288773904
52,22,11,Pattern_Practice,118,5,42,127,3289016592
52,22,11,Pattern_Practice,119,1,38,70,3289044020
52,22,11,Pattern_Practice,120,1,48,64,3289503304
52,22,11,Pattern_Practice,121,5,42,127,3289516500
52,22,11,Pattern_Practice,122,1,48,49,3289772596
52,22,11,Pattern_Practice,123,1,48,52,3290011356
52,22,11,Pattern_Practice,124,5,42,127,3290017300
52,22,11,Pattern_Practice,125,1,48,51,3290256340
52,22,11,Pattern_Practice,126,5,42,127,3290516832
52,22,11,Pattern_Practice,127,1,48,43,3290531540
52,22,11,Pattern_Practice,128,1,48,49,3290785112
52,22,11,Pattern_Practice,129,5,42,127,3291016504
52,22,11,Pattern_Practice,130,1,48,61,3291033384
52,22,11,Pattern_Practice,131,5,42,127,3291516200
52,22,11,Pattern_Practice,132,1,48,59,3291533004
52,22,11,Pattern_Practice,133,1,48,26,3291782388
52,22,11,Pattern_Practice,134,5,42,127,3292016996
52,22,11,Pattern_Practice,135,1,48,57,3292022136
52,22,11,Pattern_Practice,136,1,48,49,3292279144
52,22,11,Pattern_Practice,137,5,42,127,3292516816
52,22,11,Pattern_Practice,138,1,48,32,3292573640
52,22,11,Pattern_Practice,139,1,48,42,3292798192
52,22,11,Pattern_Practice,140,5,42,127,3293016316
52,22,11,Pattern_Practice,141,1,48,62,3293040704
52,22,11,Pattern_Practice,142,5,42,127,3293516236
52,22,11,Pattern_Practice,143,1,38,58,3293519504
52,22,11,Pattern_Practice,144,5,42,127,3294016976
52,22,11,Pattern_Practice,145,1,48,58,3294069192
52,22,11,Pattern_Practice,146,5,42,127,3294516524
52,22,11,Pattern_Practice,147,1,38,62,3294536544
52,22,11,Pattern_Practice,148,1,48,46,3294986780
52,22,11,Pattern_Practice,149,5,42,127,3295016360
52,22,11,Pattern_Practice,150,1,38,52,3295515212
52,22,11,Pattern_Practice,151,5,42,127,3295518220
52,22,11,Pattern_Practice,152,1,48,56,3296001352
52,22,11,Pattern_Practice,153,5,42,127,3296016720
52,22,11,Pattern_Practice,154,1,48,42,3296284384
52,22,11,Pattern_Practice,155,1,38,58,3296504068
52,22,11,Pattern_Practice,156,5,42,127,3296516516
52,22,11,Pattern_Practice,157,1,48,49,3296763264
52,22,11,Pattern_Practice,158,5,42,127,3297016124
52,22,11,Pattern_Practice,159,1,48,51,3297032256
52,22,11,Pattern_Practice,160,1,38,64,3297490124
52,22,11,Pattern_Practice,161,5,42,127,3297517080
52,22,11,Pattern_Practice,162,5,42,127,3298016560
52,22,11,Pattern_Practice,163,1,48,60,3298017600
52,22,11,Pattern_Practice,164,1,38,66,3298512548
52,22,11,Pattern_Practice,165,5,42,127,3298516248
52,22,11,Pattern_Practice,166,5,42,127,3299017072
52,22,11,Pattern_Practice,167,1,48,58,3299031336
52,22,11,Pattern_Practice,168,1,48,29,3299295144
52,22,11,Pattern_Practice,169,5,42,127,3299516892
52,22,11,Pattern_Practice,170,1,38,52,3299538564
52,22,11,Pattern_Practice,171,1,48,53,3299778592
52,22,11,Pattern_Practice,172,5,42,127,3300016416
52,22,11,Pattern_Practice,173,1,48,55,3300284496
52,22,11,Pattern_Practice,174,5,42,127,3300516260
52,22,11,Pattern_Practice,175,1,38,68,3300540996
52,22,11,Pattern_Practice,176,5,42,127,3301017224
52,22,11,Pattern_Practice,177,1,48,44,3301053256
52,22,11,Pattern_Practice,178,5,42,127,3301516700
52,22,11,Pattern_Practice,179,1,38,54,3301548984
52,22,11,Pattern_Practice,180,1,48,54,3302003040
52,22,11,Pattern_Practice,181,5,42,127,3302016312
52,22,11,Pattern_Practice,182,1,38,48,3302506024
52,22,11,Pattern_Practice,183,5,42,127,3302517056
52,22,11,Pattern_Practice,184,5,42,127,3303017128
52,22,11,Pattern_Practice,185,1,48,28,3303069020
52,22,11,Pattern_Practice,0,9999,9999,9999,3263514740
52,22,11,Pattern_Practice,1,9999,9999,9999,3264014456
52,22,11,Pattern_Practice,2,9999,9999,9999,3264514100
52,22,11,Pattern_Practice,3,9999,9999,9999,3265013816
52,22,11,Pattern_Practice,4,9999,9999,9999,3265514572
52,22,11,Pattern_Practice,5,9999,9999,9999,3266014328
52,22,11,Pattern_Practice,6,9999,9999,9999,3266513968
52,22,11,Pattern_Practice,7,9999,9999,9999,3267014732
52,22,11,Pattern_Practice,8,9999,9999,9999,3267514444
52,22,11,Pattern_Practice,9,9999,9999,9999,3268014196
52,22,11,Pattern_Practice,10,9999,9999,9999,3268513912
52,22,11,Pattern_Practice,11,9999,9999,9999,3269014600
52,22,11,Pattern_Practice,12,9999,9999,9999,3269514320
52,22,11,Pattern_Practice,13,9999,9999,9999,3270014048
52,22,11,Pattern_Practice,14,9999,9999,9999,3270514808
52,22,11,Pattern_Practice,15,9999,9999,9999,3271014452
52,22,11,Pattern_Practice,16,9999,9999,9999,3271514212
52,22,11,Pattern_Practice,17,9999,9999,9999,3272013944
52,22,11,Pattern_Practice,18,9999,9999,9999,3272514632
52,22,11,Pattern_Practice,19,9999,9999,9999,3273014348
52,22,11,Pattern_Practice,20,9999,9999,9999,3273514060
52,22,11,Pattern_Practice,21,9999,9999,9999,3274014832
52,22,11,Pattern_Practice,22,9999,9999,9999,3274514524
52,22,11,Pattern_Practice,23,9999,9999,9999,3275014204
52,22,11,Pattern_Practice,24,9999,9999,9999,3275513952
52,22,11,Pattern_Practice,25,9999,9999,9999,3276014672
52,22,11,Pattern_Practice,26,9999,9999,9999,3276514368
52,22,11,Pattern_Practice,27,9999,9999,9999,3277014108
52,22,11,Pattern_Practice,28,9999,9999,9999,3277513784
52,22,11,Pattern_Practice,29,9999,9999,9999,3278014584
52,22,11,Pattern_Practice,30,9999,9999,9999,3278514272
52,22,11,Pattern_Practice,31,9999,9999,9999,3279013952
52,22,11,Pattern_Practice,32,9999,9999,9999,3279514740
52,22,11,Pattern_Practice,33,9999,9999,9999,3280014412
52,22,11,Pattern_Practice,34,9999,9999,9999,3280514108
52,22,11,Pattern_Practice,35,9999,9999,9999,3281013852
52,22,11,Pattern_Practice,36,9999,9999,9999,3281514580
52,22,11,Pattern_Practice,37,9999,9999,9999,3282014300
52,22,11,Pattern_Practice,38,9999,9999,9999,3282513996
52,22,11,Pattern_Practice,39,9999,9999,9999,3283014724
52,22,11,Pattern_Practice,40,9999,9999,9999,3283514420
52,22,11,Pattern_Practice,41,9999,9999,9999,3284014168
52,22,11,Pattern_Practice,42,9999,9999,9999,3284513892
52,22,11,Pattern_Practice,43,9999,9999,9999,3285014628
52,22,11,Pattern_Practice,44,9999,9999,9999,3285514332
52,22,11,Pattern_Practice,45,9999,9999,9999,3286014004
52,22,11,Pattern_Practice,46,9999,9999,9999,3286514772
52,22,11,Pattern_Practice,47,9999,9999,9999,3287014468
52,22,11,Pattern_Practice,48,9999,9999,9999,3287514164
52,22,11,Pattern_Practice,49,9999,9999,9999,3288013908
52,22,11,Pattern_Practice,50,9999,9999,9999,3288514608
52,22,11,Pattern_Practice,51,9999,9999,9999,3289014376
52,22,11,Pattern_Practice,52,9999,9999,9999,3289514064
52,22,11,Pattern_Practice,53,9999,9999,9999,3290014788
52,22,11,Pattern_Practice,54,9999,9999,9999,3290514544
52,22,11,Pattern_Practice,55,9999,9999,9999,3291014216
52,22,11,Pattern_Practice,56,9999,9999,9999,3291513912
52,22,11,Pattern_Practice,57,9999,9999,9999,3292014708
52,22,11,Pattern_Practice,58,9999,9999,9999,3292514380
52,22,11,Pattern_Practice,59,9999,9999,9999,3293014104
52,22,11,Pattern_Practice,60,9999,9999,9999,3293513800
52,22,11,Pattern_Practice,61,9999,9999,9999,3294014540
52,22,11,Pattern_Practice,62,9999,9999,9999,3294514236
52,22,11,Pattern_Practice,63,9999,9999,9999,3295013996
52,22,11,Pattern_Practice,64,9999,9999,9999,3295514688
52,22,11,Pattern_Practice,65,9999,9999,9999,3296014432
52,22,11,Pattern_Practice,66,9999,9999,9999,3296514156
52,22,11,Pattern_Practice,67,9999,9999,9999,3297013836
52,22,11,Pattern_Practice,68,9999,9999,9999,3297514568
52,22,11,Pattern_Practice,69,9999,9999,9999,3298014272
52,22,11,Pattern_Practice,70,9999,9999,9999,3298514036
52,22,11,Pattern_Practice,71,9999,9999,9999,3299014708
52,22,11,Pattern_Practice,72,9999,9999,9999,3299514456
52,22,11,Pattern_Practice,73,9999,9999,9999,3300014128
52,22,11,Pattern_Practice,74,9999,9999,9999,3300513900
52,22,11,Pattern_Practice,75,9999,9999,9999,3301014640
52,22,11,Pattern_Practice,76,9999,9999,9999,3301514336
52,22,11,Pattern_Practice,77,9999,9999,9999,3302014028
52,22,11,Pattern_Practice,78,9999,9999,9999,3302514768
52,22,11,Pattern_Practice,79,9999,9999,9999,3303014468
52,23,13,Improv_Metronome,0,5,42,127,3322778064
52,23,13,Improv_Metronome,1,5,42,127,3323277632
52,23,13,Improv_Metronome,2,5,42,127,3323777352
52,23,13,Improv_Metronome,3,5,42,127,3324278412
52,23,13,Improv_Metronome,4,5,42,127,3324777756
52,23,13,Improv_Metronome,5,5,42,127,3325277524
52,23,13,Improv_Metronome,6,5,42,127,3325777288
52,23,13,Improv_Metronome,7,5,42,127,3326278052
52,23,13,Improv_Metronome,8,1,48,62,3326755512
52,23,13,Improv_Metronome,9,5,42,127,3326777836
52,23,13,Improv_Metronome,10,1,48,49,3327014260
52,23,13,Improv_Metronome,11,5,42,127,3327277440
52,23,13,Improv_Metronome,12,5,42,127,3327777160
52,23,13,Improv_Metronome,13,5,42,127,3328278144
52,23,13,Improv_Metronome,14,1,48,60,3328755156
52,23,13,Improv_Metronome,15,5,42,127,3328777556
52,23,13,Improv_Metronome,16,1,48,49,3329044420
52,23,13,Improv_Metronome,17,5,42,127,3329277384
52,23,13,Improv_Metronome,18,5,42,127,3329778296
52,23,13,Improv_Metronome,19,5,42,127,3330277716
52,23,13,Improv_Metronome,20,1,48,34,3330756596
52,23,13,Improv_Metronome,21,5,42,127,3330777500
52,23,13,Improv_Metronome,22,1,48,41,3330858248
52,23,13,Improv_Metronome,23,1,48,29,3331014728
52,23,13,Improv_Metronome,24,5,42,127,3331277232
52,23,13,Improv_Metronome,25,5,42,127,3331777848
52,23,13,Improv_Metronome,26,5,42,127,3332277712
52,23,13,Improv_Metronome,27,5,42,127,3332777280
52,23,13,Improv_Metronome,28,1,48,43,3332793336
52,23,13,Improv_Metronome,29,1,48,52,3332926832
52,23,13,Improv_Metronome,30,1,48,40,3333052572
52,23,13,Improv_Metronome,31,5,42,127,3333278200
52,23,13,Improv_Metronome,32,5,42,127,3333777844
52,23,13,Improv_Metronome,33,5,42,127,3334277412
52,23,13,Improv_Metronome,34,1,48,46,3334708324
52,23,13,Improv_Metronome,35,5,42,127,3334777268
52,23,13,Improv_Metronome,36,1,48,48,3334833104
52,23,13,Improv_Metronome,37,1,48,41,3334952388
52,23,13,Improv_Metronome,38,1,48,49,3335195108
52,23,13,Improv_Metronome,39,5,42,127,3335277892
52,23,13,Improv_Metronome,40,1,48,48,3335494920
52,23,13,Improv_Metronome,41,1,48,43,3335629184
52,23,13,Improv_Metronome,42,1,48,42,3335710992
52,23,13,Improv_Metronome,43,5,42,127,3335777544
52,23,13,Improv_Metronome,44,1,48,38,3336038576
52,23,13,Improv_Metronome,45,5,42,127,3336277348
52,23,13,Improv_Metronome,46,1,48,46,3336331804
52,23,13,Improv_Metronome,47,1,48,44,3336455120
52,23,13,Improv_Metronome,48,1,48,40,3336559096
52,23,13,Improv_Metronome,49,5,42,127,3336778048
52,23,13,Improv_Metronome,50,1,48,42,3336792312
52,23,13,Improv_Metronome,51,1,48,43,3336874812
52,23,13,Improv_Metronome,52,1,48,36,3337034408
52,23,13,Improv_Metronome,53,1,48,46,3337268608
52,23,13,Improv_Metronome,54,5,42,127,3337277764
52,23,13,Improv_Metronome,55,1,48,39,3337526076
52,23,13,Improv_Metronome,56,1,48,44,3337623092
52,23,13,Improv_Metronome,57,5,42,127,3337777496
52,23,13,Improv_Metronome,58,1,48,46,3337784052
52,23,13,Improv_Metronome,59,1,48,43,3338017876
52,23,13,Improv_Metronome,60,5,42,127,3338277168
52,23,13,Improv_Metronome,61,1,48,47,3338282976
52,23,13,Improv_Metronome,62,1,48,44,3338383956
52,23,13,Improv_Metronome,63,1,48,48,3338524476
52,23,13,Improv_Metronome,64,5,42,127,3338778012
52,23,13,Improv_Metronome,65,1,48,46,3338779052
52,23,13,Improv_Metronome,66,1,48,49,3338898496
52,23,13,Improv_Metronome,67,1,48,42,3339035124
52,23,13,Improv_Metronome,68,1,48,41,3339248752
52,23,13,Improv_Metronome,69,5,42,127,3339277804
52,23,13,Improv_Metronome,70,1,48,40,3339533380
52,23,13,Improv_Metronome,71,1,48,43,3339627024
52,23,13,Improv_Metronome,72,5,42,127,3339777240
52,23,13,Improv_Metronome,73,1,48,43,3339790152
52,23,13,Improv_Metronome,74,1,48,43,3340061596
52,23,13,Improv_Metronome,75,5,42,127,3340278032
52,23,13,Improv_Metronome,76,1,48,43,3340318028
52,23,13,Improv_Metronome,77,1,48,40,3340408608
52,23,13,Improv_Metronome,78,1,48,44,3340543224
52,23,13,Improv_Metronome,79,5,42,127,3340777832
52,23,13,Improv_Metronome,80,1,48,49,3340819172
52,23,13,Improv_Metronome,81,1,48,45,3340918132
52,23,13,Improv_Metronome,82,1,48,43,3341062248
52,23,13,Improv_Metronome,83,5,42,127,3341277704
52,23,13,Improv_Metronome,84,1,48,46,3341314032
52,23,13,Improv_Metronome,85,1,48,39,3341557056
52,23,13,Improv_Metronome,86,1,48,38,3341632280
52,23,13,Improv_Metronome,87,5,42,127,3341777432
52,23,13,Improv_Metronome,88,1,48,51,3341791096
52,23,13,Improv_Metronome,89,1,48,43,3342053040
52,23,13,Improv_Metronome,90,5,42,127,3342277928
52,23,13,Improv_Metronome,91,1,48,48,3342299376
52,23,13,Improv_Metronome,92,1,48,31,3342401900
52,23,13,Improv_Metronome,93,1,48,43,3342545512
52,23,13,Improv_Metronome,94,5,42,127,3342777804
52,23,13,Improv_Metronome,95,1,48,49,3342795284
52,23,13,Improv_Metronome,96,1,48,48,3343030972
52,23,13,Improv_Metronome,97,1,48,52,3343277400
52,23,13,Improv_Metronome,98,5,42,127,3343278888
52,23,13,Improv_Metronome,99,1,48,47,3343522872
52,23,13,Improv_Metronome,100,1,48,46,3343630708
52,23,13,Improv_Metronome,101,5,42,127,3343777128
52,23,13,Improv_Metronome,102,1,48,44,3343780692
52,23,13,Improv_Metronome,103,1,48,43,3344041664
52,23,13,Improv_Metronome,104,5,42,127,3344277772
52,23,13,Improv_Metronome,105,1,48,62,3344287324
52,23,13,Improv_Metronome,106,1,48,45,3344547252
52,23,13,Improv_Metronome,107,5,42,127,3344777672
52,23,13,Improv_Metronome,108,1,48,47,3344805924
52,23,13,Improv_Metronome,109,1,48,40,3345061804
52,23,13,Improv_Metronome,110,5,42,127,3345277196
52,23,13,Improv_Metronome,111,1,48,55,3345295796
52,23,13,Improv_Metronome,112,1,48,41,3345537916
52,23,13,Improv_Metronome,113,1,48,48,3345651140
52,23,13,Improv_Metronome,114,5,42,127,3345778044
52,23,13,Improv_Metronome,115,1,48,43,3345801584
52,23,13,Improv_Metronome,116,1,48,40,3346065096
52,23,13,Improv_Metronome,117,5,42,127,3346277864
52,23,13,Improv_Metronome,118,1,48,57,3346296992
52,23,13,Improv_Metronome,119,1,48,53,3346769268
52,23,13,Improv_Metronome,120,5,42,127,3346777528
52,23,13,Improv_Metronome,121,1,48,33,3347027564
52,23,13,Improv_Metronome,122,1,48,56,3347268488
52,23,13,Improv_Metronome,123,5,42,127,3347277052
52,23,13,Improv_Metronome,124,1,48,42,3347528432
52,23,13,Improv_Metronome,125,1,48,43,3347631660
52,23,13,Improv_Metronome,126,5,42,127,3347777832
52,23,13,Improv_Metronome,127,1,48,43,3347780952
52,23,13,Improv_Metronome,128,1,48,41,3348035484
52,23,13,Improv_Metronome,129,5,42,127,3348277652
52,23,13,Improv_Metronome,130,1,48,58,3348281820
52,23,13,Improv_Metronome,131,1,48,33,3348538300
52,23,13,Improv_Metronome,132,5,42,127,3348777176
52,23,13,Improv_Metronome,133,1,48,38,3348794656
52,23,13,Improv_Metronome,134,1,48,35,3349042836
52,23,13,Improv_Metronome,135,5,42,127,3349278044
52,23,13,Improv_Metronome,136,1,48,60,3349282732
52,23,13,Improv_Metronome,137,1,48,43,3349532332
52,23,13,Improv_Metronome,138,1,48,49,3349646104
52,23,13,Improv_Metronome,139,1,48,51,3349766132
52,23,13,Improv_Metronome,140,5,42,127,3349777760
52,23,13,Improv_Metronome,141,1,48,49,3349900792
52,23,13,Improv_Metronome,142,1,48,47,3350018352
52,23,13,Improv_Metronome,143,1,48,57,3350277268
52,23,13,Improv_Metronome,144,5,42,127,3350278756
52,23,13,Improv_Metronome,145,5,42,127,3350777188
52,23,13,Improv_Metronome,146,1,48,65,3350799832
52,23,13,Improv_Metronome,147,1,48,50,3351055040
52,23,13,Improv_Metronome,148,1,38,57,3351277760
52,23,13,Improv_Metronome,149,5,42,127,3351280516
52,23,13,Improv_Metronome,150,1,48,59,3351556288
52,23,13,Improv_Metronome,151,5,42,127,3351777580
52,23,13,Improv_Metronome,152,1,48,43,3351817576
52,23,13,Improv_Metronome,153,1,48,60,3352074508
52,23,13,Improv_Metronome,154,5,42,127,3352277404
52,23,13,Improv_Metronome,155,1,38,64,3352300344
52,23,13,Improv_Metronome,156,1,48,51,3352560416
52,23,13,Improv_Metronome,157,5,42,127,3352778124
52,23,13,Improv_Metronome,158,1,48,49,3352805324
52,23,13,Improv_Metronome,159,1,48,32,3353080140
52,23,13,Improv_Metronome,160,5,42,127,3353277796
52,23,13,Improv_Metronome,161,1,38,60,3353295500
52,23,13,Improv_Metronome,162,1,48,50,3353545700
52,23,13,Improv_Metronome,163,1,48,41,3353643068
52,23,13,Improv_Metronome,164,5,42,127,3353777520
52,23,13,Improv_Metronome,165,1,48,46,3354039088
52,23,13,Improv_Metronome,166,5,42,127,3354277216
52,23,13,Improv_Metronome,167,1,38,68,3354281752
52,23,13,Improv_Metronome,168,1,38,38,3354328632
52,23,13,Improv_Metronome,169,5,42,127,3354777936
52,23,13,Improv_Metronome,170,1,48,54,3354804320
52,23,13,Improv_Metronome,171,1,48,39,3355056764
52,23,13,Improv_Metronome,172,5,42,127,3355277608
52,23,13,Improv_Metronome,173,1,38,54,3355313936
52,23,13,Improv_Metronome,174,1,48,50,3355544696
52,23,13,Improv_Metronome,175,5,42,127,3355777504
52,23,13,Improv_Metronome,176,1,48,49,3355791992
52,23,13,Improv_Metronome,177,1,48,46,3356057756
52,23,13,Improv_Metronome,178,1,38,67,3356269060
52,23,13,Improv_Metronome,179,5,42,127,3356278144
52,23,13,Improv_Metronome,180,1,48,48,3356549868
52,23,13,Improv_Metronome,181,5,42,127,3356777824
52,23,13,Improv_Metronome,182,1,48,54,3356819688
52,23,13,Improv_Metronome,183,1,48,49,3357053436
52,23,13,Improv_Metronome,184,5,42,127,3357277868
52,23,13,Improv_Metronome,185,1,38,51,3357279208
52,23,13,Improv_Metronome,186,1,48,36,3357560360
52,23,13,Improv_Metronome,187,1,48,49,3357626464
52,23,13,Improv_Metronome,188,5,42,127,3357777420
52,23,13,Improv_Metronome,189,1,48,46,3358029120
52,23,13,Improv_Metronome,190,5,42,127,3358277940
52,23,13,Improv_Metronome,191,1,38,82,3358282108
52,23,13,Improv_Metronome,192,5,42,127,3358777784
52,23,13,Improv_Metronome,193,1,48,58,3358804836
52,23,13,Improv_Metronome,194,1,38,61,3359268612
52,23,13,Improv_Metronome,195,5,42,127,3359277620
52,23,13,Improv_Metronome,196,1,48,53,3359531548
52,23,13,Improv_Metronome,197,5,42,127,3359777076
52,23,13,Improv_Metronome,198,1,48,21,3359789020
52,23,13,Improv_Metronome,199,1,48,57,3360026660
52,23,13,Improv_Metronome,200,1,38,56,3360277796
52,23,13,Improv_Metronome,201,5,42,127,3360280404
52,23,13,Improv_Metronome,202,1,48,64,3360748580
52,23,13,Improv_Metronome,203,1,38,16,3360758136
52,23,13,Improv_Metronome,204,5,42,127,3360777540
52,23,13,Improv_Metronome,205,1,48,37,3361029196
52,23,13,Improv_Metronome,206,1,38,60,3361274756
52,23,13,Improv_Metronome,207,5,42,127,3361277556
52,23,13,Improv_Metronome,208,1,48,48,3361543304
52,23,13,Improv_Metronome,209,5,42,127,3361777984
52,23,13,Improv_Metronome,210,1,48,23,3361814164
52,23,13,Improv_Metronome,211,1,48,48,3362023904
52,23,13,Improv_Metronome,212,5,42,127,3362277808
52,23,13,Improv_Metronome,213,1,38,65,3362292668
52,23,13,Improv_Metronome,214,1,48,57,3362759436
52,23,13,Improv_Metronome,215,5,42,127,3362777496
52,23,13,Improv_Metronome,216,1,48,35,3363016016
52,23,13,Improv_Metronome,217,1,48,50,3363261124
52,23,13,Improv_Metronome,218,5,42,127,3363277316
52,23,13,Improv_Metronome,219,1,38,54,3363497508
52,23,13,Improv_Metronome,220,1,48,47,3363613128
52,23,13,Improv_Metronome,221,5,42,127,3363777800
52,23,13,Improv_Metronome,222,1,48,26,3363936676
52,23,13,Improv_Metronome,223,1,48,50,3364030444
52,23,13,Improv_Metronome,224,5,42,127,3364277552
52,23,13,Improv_Metronome,225,1,48,64,3364303260
52,23,13,Improv_Metronome,226,1,48,46,3364533036
52,23,13,Improv_Metronome,227,5,42,127,3364777372
52,23,13,Improv_Metronome,228,1,48,52,3364781012
52,23,13,Improv_Metronome,229,1,38,47,3365043708
52,23,13,Improv_Metronome,230,5,42,127,3365278240
52,23,13,Improv_Metronome,231,1,48,47,3365295500
52,23,13,Improv_Metronome,232,1,48,56,3365644436
52,23,13,Improv_Metronome,233,5,42,127,3365777764
52,23,13,Improv_Metronome,234,1,48,53,3366015328
52,23,13,Improv_Metronome,235,5,42,127,3366277388
52,23,13,Improv_Metronome,236,1,48,62,3366295460
52,23,13,Improv_Metronome,237,5,42,127,3366777308
52,23,13,Improv_Metronome,238,1,48,58,3366805560
52,23,13,Improv_Metronome,239,1,38,46,3367030328
52,23,13,Improv_Metronome,240,5,42,127,3367277876
52,23,13,Improv_Metronome,241,1,48,32,3367292588
52,23,13,Improv_Metronome,242,1,48,37,3367729340
52,23,13,Improv_Metronome,243,5,42,127,3367777564
52,23,13,Improv_Metronome,244,1,48,51,3368263364
52,23,13,Improv_Metronome,245,5,42,127,3368277388
52,23,13,Improv_Metronome,246,5,42,127,3368778208
52,23,13,Improv_Metronome,247,1,48,62,3368790232
52,23,13,Improv_Metronome,248,1,38,16,3368800496
52,23,13,Improv_Metronome,249,1,38,50,3369035236
52,23,13,Improv_Metronome,250,1,48,58,3369264716
52,23,13,Improv_Metronome,251,5,42,127,3369278064
52,23,13,Improv_Metronome,252,5,42,127,3369777540
52,23,13,Improv_Metronome,253,1,48,52,3369793376
52,23,13,Improv_Metronome,254,5,42,127,3370277312
52,23,13,Improv_Metronome,255,1,48,54,3370292476
52,23,13,Improv_Metronome,256,5,42,127,3370778052
52,23,13,Improv_Metronome,257,1,48,60,3370782072
52,23,13,Improv_Metronome,258,1,38,58,3371014248
52,23,13,Improv_Metronome,259,5,42,127,3371277576
52,23,13,Improv_Metronome,260,1,48,41,3371292888
52,23,13,Improv_Metronome,261,5,42,127,3371777272
52,23,13,Improv_Metronome,262,1,48,51,3371814348
52,23,13,Improv_Metronome,263,5,42,127,3372278088
52,23,13,Improv_Metronome,264,1,48,57,3372292576
52,23,13,Improv_Metronome,265,5,42,127,3372777928
52,23,13,Improv_Metronome,266,1,48,52,3372786356
52,23,13,Improv_Metronome,267,1,38,46,3373024296
52,23,13,Improv_Metronome,268,1,48,54,3373268364
52,23,13,Improv_Metronome,269,5,42,127,3373277448
52,23,13,Improv_Metronome,270,1,48,29,3373524712
52,23,13,Improv_Metronome,271,5,42,127,3373777200
52,23,13,Improv_Metronome,272,1,48,59,3373789068
52,23,13,Improv_Metronome,273,5,42,127,3374277944
52,23,13,Improv_Metronome,274,1,48,59,3374315844
52,23,13,Improv_Metronome,275,5,42,127,3374777784
52,23,13,Improv_Metronome,276,1,48,55,3374800872
52,23,13,Improv_Metronome,277,1,38,46,3375060504
52,23,13,Improv_Metronome,278,5,42,127,3375277384
52,23,13,Improv_Metronome,279,1,48,51,3375296588
52,23,13,Improv_Metronome,280,5,42,127,3375777156
52,23,13,Improv_Metronome,281,1,48,51,3375794336
52,23,13,Improv_Metronome,282,5,42,127,3376277820
52,23,13,Improv_Metronome,283,1,48,48,3376294628
52,23,13,Improv_Metronome,284,1,48,40,3376567116
52,23,13,Improv_Metronome,285,5,42,127,3376777496
52,23,13,Improv_Metronome,286,1,48,51,3376804100
52,23,13,Improv_Metronome,287,1,38,60,3377023484
52,23,13,Improv_Metronome,288,1,48,56,3377268004
52,23,13,Improv_Metronome,289,5,42,127,3377277236
52,23,13,Improv_Metronome,290,5,42,127,3377777984
52,23,13,Improv_Metronome,291,1,48,52,3377790228
52,23,13,Improv_Metronome,292,1,48,60,3378272248
52,23,13,Improv_Metronome,293,5,42,127,3378277820
52,23,13,Improv_Metronome,294,1,48,40,3378555912
52,23,13,Improv_Metronome,295,5,42,127,3378777404
52,23,13,Improv_Metronome,296,1,48,49,3378816448
52,23,13,Improv_Metronome,297,1,38,49,3379054980
52,23,13,Improv_Metronome,298,5,42,127,3379277072
52,23,13,Improv_Metronome,299,1,48,62,3379291708
52,23,13,Improv_Metronome,300,5,42,127,3379777864
52,23,13,Improv_Metronome,301,1,48,59,3379795348
52,23,13,Improv_Metronome,302,5,42,127,3380277560
52,23,13,Improv_Metronome,303,1,48,62,3380278528
52,23,13,Improv_Metronome,304,1,48,60,3380731964
52,23,13,Improv_Metronome,305,5,42,127,3380777248
52,23,13,Improv_Metronome,306,1,48,33,3381031396
52,23,13,Improv_Metronome,307,1,48,59,3381260128
52,23,13,Improv_Metronome,308,5,42,127,3381278116
52,23,13,Improv_Metronome,309,1,38,54,3381504144
52,23,13,Improv_Metronome,310,1,48,60,3381765192
52,23,13,Improv_Metronome,311,5,42,127,3381777712
52,23,13,Improv_Metronome,312,5,42,127,3382277492
52,23,13,Improv_Metronome,313,1,48,61,3382305072
52,23,13,Improv_Metronome,314,5,42,127,3382777184
52,23,13,Improv_Metronome,315,1,48,58,3382795712
52,23,13,Improv_Metronome,316,1,48,48,3383272724
52,23,13,Improv_Metronome,317,5,42,127,3383277916
52,23,13,Improv_Metronome,318,1,48,48,3383514120
52,23,13,Improv_Metronome,319,1,48,56,3383774788
52,23,13,Improv_Metronome,320,5,42,127,3383777888
52,23,13,Improv_Metronome,321,1,38,53,3384003620
52,23,13,Improv_Metronome,322,1,48,44,3384270348
52,23,13,Improv_Metronome,323,5,42,127,3384277340
52,23,13,Improv_Metronome,324,1,48,40,3384510772
52,23,13,Improv_Metronome,325,1,48,56,3384769724
52,23,13,Improv_Metronome,326,5,42,127,3384778060
52,23,13,Improv_Metronome,327,5,42,127,3385277836
52,23,13,Improv_Metronome,328,1,48,47,3385280952
52,23,13,Improv_Metronome,329,1,48,23,3385581868
52,23,13,Improv_Metronome,330,5,42,127,3385777732
52,23,13,Improv_Metronome,331,1,48,50,3385796184
52,23,13,Improv_Metronome,332,1,38,54,3386038684
52,23,13,Improv_Metronome,333,5,42,127,3386277184
52,23,13,Improv_Metronome,334,1,48,44,3386281792
52,23,13,Improv_Metronome,335,1,48,46,3386525116
52,23,13,Improv_Metronome,336,1,48,58,3386777524
52,23,13,Improv_Metronome,337,5,42,127,3386779020
52,23,13,Improv_Metronome,338,5,42,127,3387277820
52,23,13,Improv_Metronome,339,1,48,53,3387283404
52,23,13,Improv_Metronome,340,1,48,39,3387549096
52,23,13,Improv_Metronome,341,5,42,127,3387777640
52,23,13,Improv_Metronome,342,1,48,49,3387797068
52,23,13,Improv_Metronome,343,1,38,42,3388024380
52,23,13,Improv_Metronome,344,5,42,127,3388278068
52,23,13,Improv_Metronome,345,1,48,56,3388283652
52,23,13,Improv_Metronome,346,1,48,56,3388771208
52,23,13,Improv_Metronome,347,5,42,127,3388777828
52,23,13,Improv_Metronome,348,5,42,127,3389277752
52,23,13,Improv_Metronome,349,1,48,55,3389296732
52,23,13,Improv_Metronome,350,1,48,26,3389586124
52,23,13,Improv_Metronome,351,5,42,127,3389777180
52,23,13,Improv_Metronome,352,1,48,55,3389796104
52,23,13,Improv_Metronome,353,1,38,50,3390068752
52,23,13,Improv_Metronome,354,5,42,127,3390277976
52,23,13,Improv_Metronome,355,1,48,54,3390305804
52,23,13,Improv_Metronome,356,1,48,42,3390558476
52,23,13,Improv_Metronome,357,5,42,127,3390777648
52,23,13,Improv_Metronome,358,1,48,50,3390826344
52,23,13,Improv_Metronome,359,1,48,46,3391063656
52,23,13,Improv_Metronome,360,5,42,127,3391277692
52,23,13,Improv_Metronome,361,1,48,57,3391326912
52,23,13,Improv_Metronome,362,5,42,127,3391777016
52,23,13,Improv_Metronome,363,1,48,41,3392026168
52,23,13,Improv_Metronome,364,1,48,50,3392272108
52,23,13,Improv_Metronome,365,5,42,127,3392277828
52,23,13,Improv_Metronome,366,1,48,41,3392514180
52,23,13,Improv_Metronome,367,1,48,58,3392757492
52,23,13,Improv_Metronome,0,9999,9999,9999,3322775632
52,23,13,Improv_Metronome,1,9999,9999,9999,3323275348
52,23,13,Improv_Metronome,2,9999,9999,9999,3323775064
52,23,13,Improv_Metronome,3,9999,9999,9999,3324275828
52,23,13,Improv_Metronome,4,9999,9999,9999,3324775544
52,23,13,Improv_Metronome,5,9999,9999,9999,3325275236
52,23,13,Improv_Metronome,6,9999,9999,9999,3325774928
52,23,13,Improv_Metronome,7,9999,9999,9999,3326275692
52,23,13,Improv_Metronome,8,9999,9999,9999,3326775404
52,23,13,Improv_Metronome,9,9999,9999,9999,3327275080
52,23,13,Improv_Metronome,10,9999,9999,9999,3327774796
52,23,13,Improv_Metronome,11,9999,9999,9999,3328275560
52,23,13,Improv_Metronome,12,9999,9999,9999,3328775272
52,23,13,Improv_Metronome,13,9999,9999,9999,3329274948
52,23,13,Improv_Metronome,14,9999,9999,9999,3329775712
52,23,13,Improv_Metronome,15,9999,9999,9999,3330275428
52,23,13,Improv_Metronome,16,9999,9999,9999,3330775140
52,23,13,Improv_Metronome,17,9999,9999,9999,3331274872
52,23,13,Improv_Metronome,18,9999,9999,9999,3331775560
52,23,13,Improv_Metronome,19,9999,9999,9999,3332275276
52,23,13,Improv_Metronome,20,9999,9999,9999,3332774992
52,23,13,Improv_Metronome,21,9999,9999,9999,3333275764
52,23,13,Improv_Metronome,22,9999,9999,9999,3333775480
52,23,13,Improv_Metronome,23,9999,9999,9999,3334275124
52,23,13,Improv_Metronome,24,9999,9999,9999,3334774836
52,23,13,Improv_Metronome,25,9999,9999,9999,3335275608
52,23,13,Improv_Metronome,26,9999,9999,9999,3335775332
52,23,13,Improv_Metronome,27,9999,9999,9999,3336275064
52,23,13,Improv_Metronome,28,9999,9999,9999,3336775760
52,23,13,Improv_Metronome,29,9999,9999,9999,3337275476
52,23,13,Improv_Metronome,30,9999,9999,9999,3337775208
52,23,13,Improv_Metronome,31,9999,9999,9999,3338274880
52,23,13,Improv_Metronome,32,9999,9999,9999,3338775652
52,23,13,Improv_Metronome,33,9999,9999,9999,3339275368
52,23,13,Improv_Metronome,34,9999,9999,9999,3339775024
52,23,13,Improv_Metronome,35,9999,9999,9999,3340275820
52,23,13,Improv_Metronome,36,9999,9999,9999,3340775544
52,23,13,Improv_Metronome,37,9999,9999,9999,3341275196
52,23,13,Improv_Metronome,38,9999,9999,9999,3341774924
52,23,13,Improv_Metronome,39,9999,9999,9999,3342275640
52,23,13,Improv_Metronome,40,9999,9999,9999,3342775368
52,23,13,Improv_Metronome,41,9999,9999,9999,3343275116
52,23,13,Improv_Metronome,42,9999,9999,9999,3343774840
52,23,13,Improv_Metronome,43,9999,9999,9999,3344275560
52,23,13,Improv_Metronome,44,9999,9999,9999,3344775236
52,23,13,Improv_Metronome,45,9999,9999,9999,3345274984
52,23,13,Improv_Metronome,46,9999,9999,9999,3345775680
52,23,13,Improv_Metronome,47,9999,9999,9999,3346275432
52,23,13,Improv_Metronome,48,9999,9999,9999,3346775096
52,23,13,Improv_Metronome,49,9999,9999,9999,3347274840
52,23,13,Improv_Metronome,50,9999,9999,9999,3347775544
52,23,13,Improv_Metronome,51,9999,9999,9999,3348275292
52,23,13,Improv_Metronome,52,9999,9999,9999,3348774964
52,23,13,Improv_Metronome,53,9999,9999,9999,3349275756
52,23,13,Improv_Metronome,54,9999,9999,9999,3349775476
52,23,13,Improv_Metronome,55,9999,9999,9999,3350275132
52,23,13,Improv_Metronome,56,9999,9999,9999,3350774900
52,23,13,Improv_Metronome,57,9999,9999,9999,3351275620
52,23,13,Improv_Metronome,58,9999,9999,9999,3351775296
52,23,13,Improv_Metronome,59,9999,9999,9999,3352275044
52,23,13,Improv_Metronome,60,9999,9999,9999,3352775764
52,23,13,Improv_Metronome,61,9999,9999,9999,3353275508
52,23,13,Improv_Metronome,62,9999,9999,9999,3353775160
52,23,13,Improv_Metronome,63,9999,9999,9999,3354274928
52,23,13,Improv_Metronome,64,9999,9999,9999,3354775648
52,23,13,Improv_Metronome,65,9999,9999,9999,3355275324
52,23,13,Improv_Metronome,66,9999,9999,9999,3355775072
52,23,13,Improv_Metronome,67,9999,9999,9999,3356275784
52,23,13,Improv_Metronome,68,9999,9999,9999,3356775536
52,23,13,Improv_Metronome,69,9999,9999,9999,3357275184
52,23,13,Improv_Metronome,70,9999,9999,9999,3357774912
52,23,13,Improv_Metronome,71,9999,9999,9999,3358275652
52,23,13,Improv_Metronome,72,9999,9999,9999,3358775348
52,23,13,Improv_Metronome,73,9999,9999,9999,3359275112
52,23,13,Improv_Metronome,74,9999,9999,9999,3359774792
52,23,13,Improv_Metronome,75,9999,9999,9999,3360275512
52,23,13,Improv_Metronome,76,9999,9999,9999,3360775252
52,23,13,Improv_Metronome,77,9999,9999,9999,3361274976
52,23,13,Improv_Metronome,78,9999,9999,9999,3361775700
52,23,13,Improv_Metronome,79,9999,9999,9999,3362275448
52,23,13,Improv_Metronome,80,9999,9999,9999,3362775136
52,23,13,Improv_Metronome,81,9999,9999,9999,3363274808
52,23,13,Improv_Metronome,82,9999,9999,9999,3363775588
52,23,13,Improv_Metronome,83,9999,9999,9999,3364275264
52,23,13,Improv_Metronome,84,9999,9999,9999,3364775012
52,23,13,Improv_Metronome,85,9999,9999,9999,3365275732
52,23,13,Improv_Metronome,86,9999,9999,9999,3365775480
52,23,13,Improv_Metronome,87,9999,9999,9999,3366275176
52,23,13,Improv_Metronome,88,9999,9999,9999,3366774872
52,23,13,Improv_Metronome,89,9999,9999,9999,3367275588
52,23,13,Improv_Metronome,90,9999,9999,9999,3367775352
52,23,13,Improv_Metronome,91,9999,9999,9999,3368275024
52,23,13,Improv_Metronome,92,9999,9999,9999,3368775772
52,23,13,Improv_Metronome,93,9999,9999,9999,3369275480
52,23,13,Improv_Metronome,94,9999,9999,9999,3369775180
52,23,13,Improv_Metronome,95,9999,9999,9999,3370274876
52,23,13,Improv_Metronome,96,9999,9999,9999,3370775616
52,23,13,Improv_Metronome,97,9999,9999,9999,3371275364
52,23,13,Improv_Metronome,98,9999,9999,9999,3371775060
52,23,13,Improv_Metronome,99,9999,9999,9999,3372275800
52,23,13,Improv_Metronome,100,9999,9999,9999,3372775492
52,23,13,Improv_Metronome,101,9999,9999,9999,3373275236
52,23,13,Improv_Metronome,102,9999,9999,9999,3373774912
52,23,13,Improv_Metronome,103,9999,9999,9999,3374275656
52,23,13,Improv_Metronome,104,9999,9999,9999,3374775352
52,23,13,Improv_Metronome,105,9999,9999,9999,3375275096
52,23,13,Improv_Metronome,106,9999,9999,9999,3375774792
52,23,13,Improv_Metronome,107,9999,9999,9999,3376275536
52,23,13,Improv_Metronome,108,9999,9999,9999,3376775284
52,23,13,Improv_Metronome,109,9999,9999,9999,3377274948
52,23,13,Improv_Metronome,110,9999,9999,9999,3377775696
52,23,13,Improv_Metronome,111,9999,9999,9999,3378275388
52,23,13,Improv_Metronome,112,9999,9999,9999,3378775116
52,23,13,Improv_Metronome,113,9999,9999,9999,3379274860
52,23,13,Improv_Metronome,114,9999,9999,9999,3379775580
52,23,13,Improv_Metronome,115,9999,9999,9999,3380275272
52,23,13,Improv_Metronome,116,9999,9999,9999,3380774960
52,23,13,Improv_Metronome,117,9999,9999,9999,3381275752
52,23,13,Improv_Metronome,118,9999,9999,9999,3381775428
52,23,13,Improv_Metronome,119,9999,9999,9999,3382275128
52,23,13,Improv_Metronome,120,9999,9999,9999,3382774900
52,23,13,Improv_Metronome,121,9999,9999,9999,3383275632
52,23,13,Improv_Metronome,122,9999,9999,9999,3383775304
52,23,13,Improv_Metronome,123,9999,9999,9999,3384275052
52,23,13,Improv_Metronome,124,9999,9999,9999,3384775772
52,23,13,Improv_Metronome,125,9999,9999,9999,3385275472
52,23,13,Improv_Metronome,126,9999,9999,9999,3385775220
52,23,13,Improv_Metronome,127,9999,9999,9999,3386274896
52,23,13,Improv_Metronome,128,9999,9999,9999,3386775616
52,23,13,Improv_Metronome,129,9999,9999,9999,3387275384
52,23,13,Improv_Metronome,130,9999,9999,9999,3387775056
52,23,13,Improv_Metronome,131,9999,9999,9999,3388275780
52,23,13,Improv_Metronome,132,9999,9999,9999,3388775540
52,23,13,Improv_Metronome,133,9999,9999,9999,3389275244
52,23,13,Improv_Metronome,134,9999,9999,9999,3389774964
52,23,13,Improv_Metronome,135,9999,9999,9999,3390275688
52,23,13,Improv_Metronome,136,9999,9999,9999,3390775364
52,23,13,Improv_Metronome,137,9999,9999,9999,3391275108
52,23,13,Improv_Metronome,138,9999,9999,9999,3391774804
52,23,13,Improv_Metronome,139,9999,9999,9999,3392275540
52,24,14,Improv_Melody,0,2,48,80,3440392444
52,24,14,Improv_Melody,1,2,72,80,3440394824
52,24,14,Improv_Melody,2,5,42,127,3440397208
52,24,14,Improv_Melody,3,5,42,110,3440890348
52,24,14,Improv_Melody,4,5,42,110,3441390972
52,24,14,Improv_Melody,5,5,42,110,3441890692
52,24,14,Improv_Melody,6,5,42,127,3442390344
52,24,14,Improv_Melody,7,5,42,110,3442891184
52,24,14,Improv_Melody,8,5,42,110,3443390904
52,24,14,Improv_Melody,9,5,42,110,3443890556
52,24,14,Improv_Melody,10,2,43,80,3444392856
52,24,14,Improv_Melody,11,2,67,80,3444394928
52,24,14,Improv_Melody,12,5,42,127,3444397320
52,24,14,Improv_Melody,13,5,42,110,3444890908
52,24,14,Improv_Melody,14,5,42,110,3445390780
52,24,14,Improv_Melody,15,5,42,110,3445890428
52,24,14,Improv_Melody,16,5,42,127,3446390072
52,24,14,Improv_Melody,17,5,42,110,3446890988
52,24,14,Improv_Melody,18,5,42,110,3447390712
52,24,14,Improv_Melody,19,5,42,110,3447890336
52,24,14,Improv_Melody,20,2,45,80,3448393456
52,24,14,Improv_Melody,21,2,69,80,3448395684
52,24,14,Improv_Melody,22,5,42,127,3448398152
52,24,14,Improv_Melody,23,5,42,110,3448890988
52,24,14,Improv_Melody,24,5,42,110,3449390484
52,24,14,Improv_Melody,25,5,42,110,3449890060
52,24,14,Improv_Melody,26,5,42,127,3450390824
52,24,14,Improv_Melody,27,5,42,110,3450890696
52,24,14,Improv_Melody,28,5,42,110,3451390344
52,24,14,Improv_Melody,29,5,42,110,3451891036
52,24,14,Improv_Melody,30,2,41,80,3452393260
52,24,14,Improv_Melody,31,2,65,80,3452395488
52,24,14,Improv_Melody,32,5,42,127,3452397952
52,24,14,Improv_Melody,33,5,42,110,3452890420
52,24,14,Improv_Melody,34,5,42,110,3453390140
52,24,14,Improv_Melody,35,5,42,110,3453890836
52,24,14,Improv_Melody,36,5,42,127,3454390704
52,24,14,Improv_Melody,37,5,42,110,3454890500
52,24,14,Improv_Melody,38,5,42,110,3455391044
52,24,14,Improv_Melody,39,5,42,110,3455890768
52,24,14,Improv_Melody,40,1,48,58,3456353792
52,24,14,Improv_Melody,41,2,48,80,3456393064
52,24,14,Improv_Melody,42,2,72,80,3456395368
52,24,14,Improv_Melody,43,5,42,127,3456397900
52,24,14,Improv_Melody,44,1,48,52,3456864648
52,24,14,Improv_Melody,45,5,42,110,3456890196
52,24,14,Improv_Melody,46,5,42,110,3457390872
52,24,14,Improv_Melody,47,1,48,60,3457398256
52,24,14,Improv_Melody,48,5,42,110,3457890796
52,24,14,Improv_Melody,49,1,48,57,3457901848
52,24,14,Improv_Melody,50,1,48,58,3458375092
52,24,14,Improv_Melody,51,5,42,127,3458390612
52,24,14,Improv_Melody,52,1,48,59,3458869980
52,24,14,Improv_Melody,53,5,42,110,3458891188
52,24,14,Improv_Melody,54,1,48,62,3459381872
52,24,14,Improv_Melody,55,5,42,110,3459390960
52,24,14,Improv_Melody,56,1,48,62,3459877236
52,24,14,Improv_Melody,57,5,42,110,3459890736
52,24,14,Improv_Melody,58,1,48,63,3460372824
52,24,14,Improv_Melody,59,2,43,80,3460392716
52,24,14,Improv_Melody,60,2,67,80,3460395024
52,24,14,Improv_Melody,61,5,42,127,3460397556
52,24,14,Improv_Melody,62,5,42,110,3460891052
52,24,14,Improv_Melody,63,1,48,61,3460894776
52,24,14,Improv_Melody,64,5,42,110,3461390828
52,24,14,Improv_Melody,65,1,48,63,3461416908
52,24,14,Improv_Melody,66,5,42,110,3461890600
52,24,14,Improv_Melody,67,1,48,59,3461902552
52,24,14,Improv_Melody,68,5,42,127,3462390080
52,24,14,Improv_Melody,69,1,48,60,3462393644
52,24,14,Improv_Melody,70,1,48,59,3462880008
52,24,14,Improv_Melody,71,5,42,110,3462890820
52,24,14,Improv_Melody,72,1,48,58,3463374248
52,24,14,Improv_Melody,73,5,42,110,3463390520
52,24,14,Improv_Melody,74,1,48,56,3463870208
52,24,14,Improv_Melody,75,5,42,110,3463890440
52,24,14,Improv_Melody,76,1,48,60,3464381504
52,24,14,Improv_Melody,77,2,45,80,3464393468
52,24,14,Improv_Melody,78,2,69,80,3464395620
52,24,14,Improv_Melody,79,5,42,127,3464398088
52,24,14,Improv_Melody,80,5,42,110,3464890684
52,24,14,Improv_Melody,81,1,48,59,3464916692
52,24,14,Improv_Melody,82,1,48,59,3465379944
52,24,14,Improv_Melody,83,5,42,110,3465390528
52,24,14,Improv_Melody,84,1,48,62,3465853988
52,24,14,Improv_Melody,85,5,42,110,3465890600
52,24,14,Improv_Melody,86,1,48,34,3465895576
52,24,14,Improv_Melody,87,1,38,59,3466138896
52,24,14,Improv_Melody,88,5,42,127,3466390788
52,24,14,Improv_Melody,89,1,48,60,3466392876
52,24,14,Improv_Melody,90,1,48,63,3466873612
52,24,14,Improv_Melody,91,5,42,110,3466890708
52,24,14,Improv_Melody,92,1,48,62,3467368676
52,24,14,Improv_Melody,93,5,42,110,3467390480
52,24,14,Improv_Melody,94,1,48,73,3467832292
52,24,14,Improv_Melody,95,1,48,36,3467879500
52,24,14,Improv_Melody,96,5,42,110,3467890980
52,24,14,Improv_Melody,97,1,38,62,3468089532
52,24,14,Improv_Melody,98,1,38,29,3468140172
52,24,14,Improv_Melody,99,1,48,75,3468372548
52,24,14,Improv_Melody,100,2,41,80,3468393364
52,24,14,Improv_Melody,101,2,65,80,3468395592
52,24,14,Improv_Melody,102,5,42,127,3468398052
52,24,14,Improv_Melody,103,5,42,110,3468890432
52,24,14,Improv_Melody,104,1,48,69,3468903272
52,24,14,Improv_Melody,105,5,42,110,3469390404
52,24,14,Improv_Melody,106,1,48,70,3469393076
52,24,14,Improv_Melody,107,1,48,67,3469886020
52,24,14,Improv_Melody,108,5,42,110,3469890920
52,24,14,Improv_Melody,109,1,48,38,3469951048
52,24,14,Improv_Melody,110,1,38,64,3470144676
52,24,14,Improv_Melody,111,1,48,66,3470389828
52,24,14,Improv_Melody,112,5,42,127,3470391472
52,24,14,Improv_Melody,113,1,48,49,3470642704
52,24,14,Improv_Melody,114,5,42,110,3470890332
52,24,14,Improv_Melody,115,1,48,63,3470910132
52,24,14,Improv_Melody,116,1,38,82,3471137072
52,24,14,Improv_Melody,117,5,42,110,3471391204
52,24,14,Improv_Melody,118,1,48,62,3471587252
52,24,14,Improv_Melody,119,1,48,65,3471847480
52,24,14,Improv_Melody,120,5,42,110,3471890748
52,24,14,Improv_Melody,121,1,48,74,3472341420
52,24,14,Improv_Melody,122,1,38,18,3472351276
52,24,14,Improv_Melody,123,2,48,80,3472393004
52,24,14,Improv_Melody,124,2,72,80,3472395232
52,24,14,Improv_Melody,125,5,42,127,3472397772
52,24,14,Improv_Melody,126,1,38,58,3472861504
52,24,14,Improv_Melody,127,5,42,110,3472890340
52,24,14,Improv_Melody,128,1,48,64,3473130656
52,24,14,Improv_Melody,129,1,48,54,3473382048
52,24,14,Improv_Melody,130,5,42,110,3473391064
52,24,14,Improv_Melody,131,1,48,57,3473631976
52,24,14,Improv_Melody,132,1,48,30,3473697400
52,24,14,Improv_Melody,133,1,38,62,3473887988
52,24,14,Improv_Melody,134,5,42,110,3473890576
52,24,14,Improv_Melody,135,1,48,57,3474134772
52,24,14,Improv_Melody,136,1,48,60,3474386472
52,24,14,Improv_Melody,137,5,42,127,3474390252
52,24,14,Improv_Melody,138,1,48,46,3474666388
52,24,14,Improv_Melody,139,1,38,54,3474873132
52,24,14,Improv_Melody,140,5,42,110,3474891052
52,24,14,Improv_Melody,141,1,48,54,3475155076
52,24,14,Improv_Melody,142,5,42,110,3475390960
52,24,14,Improv_Melody,143,1,48,49,3475407688
52,24,14,Improv_Melody,144,1,38,50,3475655572
52,24,14,Improv_Melody,145,5,42,110,3475890488
52,24,14,Improv_Melody,146,1,48,57,3475913204
52,24,14,Improv_Melody,147,1,48,51,3476157944
52,24,14,Improv_Melody,148,1,38,67,3476384812
52,24,14,Improv_Melody,149,2,43,80,3476392588
52,24,14,Improv_Melody,150,2,67,80,3476394964
52,24,14,Improv_Melody,151,5,42,127,3476397428
52,24,14,Improv_Melody,152,1,48,69,3476889796
52,24,14,Improv_Melody,153,5,42,110,3476891216
52,24,14,Improv_Melody,154,1,48,47,3477152324
52,24,14,Improv_Melody,155,5,42,110,3477390604
52,24,14,Improv_Melody,156,1,48,57,3477400004
52,24,14,Improv_Melody,157,1,38,54,3477642428
52,24,14,Improv_Melody,158,1,48,59,3477883576
52,24,14,Improv_Melody,159,5,42,110,3477890500
52,24,14,Improv_Melody,160,1,48,38,3478132604
52,24,14,Improv_Melody,161,1,48,67,3478389960
52,24,14,Improv_Melody,162,5,42,127,3478391224
52,24,14,Improv_Melody,163,5,42,110,3478891004
52,24,14,Improv_Melody,164,1,48,74,3478895848
52,24,14,Improv_Melody,165,1,38,17,3478905700
52,24,14,Improv_Melody,166,1,48,36,3479162232
52,24,14,Improv_Melody,167,5,42,110,3479390712
52,24,14,Improv_Melody,168,1,48,63,3479411556
52,24,14,Improv_Melody,169,1,38,50,3479654728
52,24,14,Improv_Melody,170,5,42,110,3479890288
52,24,14,Improv_Melody,171,1,48,67,3479897176
52,24,14,Improv_Melody,172,1,48,14,3480160316
52,24,14,Improv_Melody,173,2,45,80,3480393668
52,24,14,Improv_Melody,174,2,69,80,3480395744
52,24,14,Improv_Melody,175,5,42,127,3480398208
52,24,14,Improv_Melody,176,1,48,70,3480412944
52,24,14,Improv_Melody,177,1,38,18,3480422800
52,24,14,Improv_Melody,178,5,42,110,3480890752
52,24,14,Improv_Melody,179,1,48,66,3480955900
52,24,14,Improv_Melody,180,1,38,16,3480965760
52,24,14,Improv_Melody,181,1,38,52,3481183992
52,24,14,Improv_Melody,182,5,42,110,3481390460
52,24,14,Improv_Melody,183,1,48,65,3481417588
52,24,14,Improv_Melody,184,1,48,49,3481675872
52,24,14,Improv_Melody,185,5,42,110,3481890140
52,24,14,Improv_Melody,186,1,48,59,3481935592
52,24,14,Improv_Melody,187,1,38,48,3482168816
52,24,14,Improv_Melody,188,1,48,67,3482390788
52,24,14,Improv_Melody,189,5,42,127,3482392276
52,24,14,Improv_Melody,190,5,42,110,3482890860
52,24,14,Improv_Melody,191,1,48,71,3482898472
52,24,14,Improv_Melody,192,1,48,64,3483363588
52,24,14,Improv_Melody,193,5,42,110,3483390256
52,24,14,Improv_Melody,194,1,38,49,3483647992
52,24,14,Improv_Melody,195,1,48,63,3483877780
52,24,14,Improv_Melody,196,5,42,110,3483890980
52,24,14,Improv_Melody,197,1,48,39,3484127332
52,24,14,Improv_Melody,198,1,48,69,3484390928
52,24,14,Improv_Melody,199,2,41,80,3484394816
52,24,14,Improv_Melody,200,2,65,80,3484396668
52,24,14,Improv_Melody,201,5,42,127,3484399200
52,24,14,Improv_Melody,202,5,42,110,3484890380
52,24,14,Improv_Melody,203,1,48,63,3484922744
52,24,14,Improv_Melody,204,1,38,42,3485168084
52,24,14,Improv_Melody,205,5,42,110,3485390132
52,24,14,Improv_Melody,206,1,48,64,3485405296
52,24,14,Improv_Melody,207,5,42,110,3485891028
52,24,14,Improv_Melody,208,1,48,49,3485902672
52,24,14,Improv_Melody,209,1,48,34,3486128272
52,24,14,Improv_Melody,210,1,38,64,3486358124
52,24,14,Improv_Melody,211,5,42,127,3486390848
52,24,14,Improv_Melody,212,1,38,38,3486414148
52,24,14,Improv_Melody,213,1,48,70,3486643632
52,24,14,Improv_Melody,214,1,48,53,3486889156
52,24,14,Improv_Melody,215,5,42,110,3486890728
52,24,14,Improv_Melody,216,1,38,60,3487111744
52,24,14,Improv_Melody,217,1,38,37,3487170212
52,24,14,Improv_Melody,218,5,42,110,3487391064
52,24,14,Improv_Melody,219,1,48,61,3487844288
52,24,14,Improv_Melody,220,5,42,110,3487890928
52,24,14,Improv_Melody,221,1,48,86,3488357756
52,24,14,Improv_Melody,222,1,38,20,3488367684
52,24,14,Improv_Melody,223,2,48,80,3488393192
52,24,14,Improv_Melody,224,2,72,80,3488395496
52,24,14,Improv_Melody,225,5,42,127,3488397952
52,24,14,Improv_Melody,226,1,48,65,3488883152
52,24,14,Improv_Melody,227,5,42,110,3488890296
52,24,14,Improv_Melody,228,1,38,53,3489126792
52,24,14,Improv_Melody,229,1,48,67,3489361632
52,24,14,Improv_Melody,230,5,42,110,3489391020
52,24,14,Improv_Melody,231,1,48,50,3489623028
52,24,14,Improv_Melody,232,1,48,43,3489739320
52,24,14,Improv_Melody,233,1,48,44,3489820152
52,24,14,Improv_Melody,234,5,42,110,3489890824
52,24,14,Improv_Melody,235,1,38,58,3490103136
52,24,14,Improv_Melody,236,1,38,24,3490168144
52,24,14,Improv_Melody,237,1,48,62,3490366108
52,24,14,Improv_Melody,238,5,42,127,3490390632
52,24,14,Improv_Melody,239,1,48,29,3490630848
52,24,14,Improv_Melody,240,1,48,56,3490876036
52,24,14,Improv_Melody,241,5,42,110,3490891108
52,24,14,Improv_Melody,242,1,48,55,3491170864
52,24,14,Improv_Melody,243,5,42,110,3491390792
52,24,14,Improv_Melody,244,1,48,49,3491402512
52,24,14,Improv_Melody,245,1,48,38,3491663188
52,24,14,Improv_Melody,246,5,42,110,3491890768
52,24,14,Improv_Melody,247,1,48,54,3491915056
52,24,14,Improv_Melody,248,1,38,45,3492125088
52,24,14,Improv_Melody,249,1,48,62,3492389192
52,24,14,Improv_Melody,250,2,43,80,3492393172
52,24,14,Improv_Melody,251,2,67,80,3492395320
52,24,14,Improv_Melody,252,5,42,127,3492397780
52,24,14,Improv_Melody,253,5,42,110,3492890980
52,24,14,Improv_Melody,254,1,48,59,3492909360
52,24,14,Improv_Melody,255,1,48,44,3493163748
52,24,14,Improv_Melody,256,5,42,110,3493390732
52,24,14,Improv_Melody,257,1,48,56,3493415692
52,24,14,Improv_Melody,258,1,38,39,3493650332
52,24,14,Improv_Melody,259,1,48,54,3493889204
52,24,14,Improv_Melody,260,5,42,110,3493890700
52,24,14,Improv_Melody,261,1,48,47,3494156596
52,24,14,Improv_Melody,262,5,42,127,3494390160
52,24,14,Improv_Melody,263,1,48,50,3494404724
52,24,14,Improv_Melody,264,5,42,110,3494890836
52,24,14,Improv_Melody,265,1,48,57,3494910556
52,24,14,Improv_Melody,266,1,48,51,3495135100
52,24,14,Improv_Melody,267,1,48,52,3495260320
52,24,14,Improv_Melody,268,1,48,49,3495360976
52,24,14,Improv_Melody,269,5,42,110,3495390636
52,24,14,Improv_Melody,270,1,38,59,3495621444
52,24,14,Improv_Melody,271,1,48,48,3495884660
52,24,14,Improv_Melody,272,5,42,110,3495890460
52,24,14,Improv_Melody,273,1,48,41,3496136236
52,24,14,Improv_Melody,274,2,45,80,3496393552
52,24,14,Improv_Melody,275,1,48,70,3496395492
52,24,14,Improv_Melody,276,2,69,80,3496397428
52,24,14,Improv_Melody,277,5,42,127,3496399516
52,24,14,Improv_Melody,278,5,42,110,3496890620
52,24,14,Improv_Melody,279,1,48,63,3496912440
52,24,14,Improv_Melody,280,1,48,53,3497169976
52,24,14,Improv_Melody,281,5,42,110,3497390672
52,24,14,Improv_Melody,282,1,48,51,3497421688
52,24,14,Improv_Melody,283,1,38,52,3497656932
52,24,14,Improv_Melody,284,1,48,67,3497882600
52,24,14,Improv_Melody,285,5,42,110,3497890124
52,24,14,Improv_Melody,286,1,38,17,3497892792
52,24,14,Improv_Melody,287,1,48,52,3498152316
52,24,14,Improv_Melody,288,1,48,43,3498268828
52,24,14,Improv_Melody,289,1,48,43,3498345648
52,24,14,Improv_Melody,290,5,42,127,3498390864
52,24,14,Improv_Melody,291,1,48,66,3498841980
52,24,14,Improv_Melody,292,1,38,16,3498851908
52,24,14,Improv_Melody,293,5,42,110,3498890544
52,24,14,Improv_Melody,294,1,48,33,3499131204
52,24,14,Improv_Melody,295,1,48,59,3499373996
52,24,14,Improv_Melody,296,5,42,110,3499390492
52,24,14,Improv_Melody,297,1,38,54,3499620108
52,24,14,Improv_Melody,298,1,48,60,3499888408
52,24,14,Improv_Melody,299,5,42,110,3499891068
52,24,14,Improv_Melody,300,1,48,67,3500375324
52,24,14,Improv_Melody,301,2,41,80,3500393424
52,24,14,Improv_Melody,302,2,65,80,3500395348
52,24,14,Improv_Melody,303,5,42,127,3500398036
52,24,14,Improv_Melody,304,5,42,110,3500890412
52,24,14,Improv_Melody,305,1,48,65,3500905424
52,24,14,Improv_Melody,306,1,48,41,3501169168
52,24,14,Improv_Melody,307,5,42,110,3501390220
52,24,14,Improv_Melody,308,1,48,62,3501408548
52,24,14,Improv_Melody,309,1,38,46,3501683280
52,24,14,Improv_Melody,310,5,42,110,3501891092
52,24,14,Improv_Melody,311,1,48,66,3501910248
52,24,14,Improv_Melody,312,1,48,47,3502157204
52,24,14,Improv_Melody,313,5,42,127,3502390624
52,24,14,Improv_Melody,314,1,48,57,3502399200
52,24,14,Improv_Melody,315,1,38,50,3502647908
52,24,14,Improv_Melody,316,1,48,68,3502881428
52,24,14,Improv_Melody,317,5,42,110,3502890368
52,24,14,Improv_Melody,318,1,48,75,3503125144
52,24,14,Improv_Melody,319,1,38,18,3503134472
52,24,14,Improv_Melody,320,5,42,110,3503391052
52,24,14,Improv_Melody,321,1,48,56,3503634896
52,24,14,Improv_Melody,322,1,48,51,3503876572
52,24,14,Improv_Melody,323,5,42,110,3503890820
52,24,14,Improv_Melody,324,1,38,52,3504130388
52,24,14,Improv_Melody,325,1,48,77,3504374980
52,24,14,Improv_Melody,326,1,38,18,3504384680
52,24,14,Improv_Melody,327,2,48,80,3504393060
52,24,14,Improv_Melody,328,2,72,80,3504395288
52,24,14,Improv_Melody,329,5,42,127,3504397824
52,24,14,Improv_Melody,330,5,42,110,3504890184
52,24,14,Improv_Melody,331,1,48,78,3504914696
52,24,14,Improv_Melody,332,1,38,19,3504924700
52,24,14,Improv_Melody,333,1,38,57,3505144956
52,24,14,Improv_Melody,334,5,42,110,3505391084
52,24,14,Improv_Melody,335,1,48,76,3505396520
52,24,14,Improv_Melody,336,1,38,18,3505406228
52,24,14,Improv_Melody,337,1,48,37,3505646316
52,24,14,Improv_Melody,338,1,48,73,3505870340
52,24,14,Improv_Melody,339,1,38,18,3505879892
52,24,14,Improv_Melody,340,5,42,110,3505890628
52,24,14,Improv_Melody,341,1,48,24,3505939660
52,24,14,Improv_Melody,342,1,38,65,3506145640
52,24,14,Improv_Melody,343,1,48,83,3506386044
52,24,14,Improv_Melody,344,5,42,127,3506390344
52,24,14,Improv_Melody,345,1,38,20,3506395856
52,24,14,Improv_Melody,346,5,42,110,3506891216
52,24,14,Improv_Melody,347,1,48,73,3506900988
52,24,14,Improv_Melody,348,1,38,17,3506911068
52,24,14,Improv_Melody,349,1,38,46,3507165208
52,24,14,Improv_Melody,350,5,42,110,3507390844
52,24,14,Improv_Melody,351,1,48,70,3507403840
52,24,14,Improv_Melody,352,1,38,17,3507413764
52,24,14,Improv_Melody,353,1,48,54,3507655716
52,24,14,Improv_Melody,354,5,42,110,3507890552
52,24,14,Improv_Melody,355,1,48,61,3507904964
52,24,14,Improv_Melody,356,1,38,42,3508173868
52,24,14,Improv_Melody,357,1,48,67,3508384200
52,24,14,Improv_Melody,358,2,43,80,3508392724
52,24,14,Improv_Melody,359,2,67,80,3508394876
52,24,14,Improv_Melody,360,5,42,127,3508397564
52,24,14,Improv_Melody,361,1,48,69,3508882040
52,24,14,Improv_Melody,362,5,42,110,3508891132
52,24,14,Improv_Melody,363,1,38,40,3509134588
52,24,14,Improv_Melody,364,1,38,23,3509197544
52,24,14,Improv_Melody,365,5,42,110,3509390648
52,24,14,Improv_Melody,366,1,48,57,3509403412
52,24,14,Improv_Melody,367,1,48,26,3509681664
52,24,14,Improv_Melody,368,5,42,110,3509890476
52,24,14,Improv_Melody,369,1,48,58,3509891592
52,24,14,Improv_Melody,370,1,38,53,3510116120
52,24,14,Improv_Melody,371,5,42,127,3510390008
52,24,14,Improv_Melody,372,1,48,60,3510391344
52,24,14,Improv_Melody,373,5,42,110,3510891128
52,24,14,Improv_Melody,374,1,48,66,3510894100
52,24,14,Improv_Melody,375,1,48,51,3511149836
52,24,14,Improv_Melody,376,5,42,110,3511390508
52,24,14,Improv_Melody,377,1,48,56,3511405516
52,24,14,Improv_Melody,378,1,38,49,3511656844
52,24,14,Improv_Melody,379,5,42,110,3511890236
52,24,14,Improv_Melody,380,1,48,68,3511904148
52,24,14,Improv_Melody,381,1,48,41,3512167364
52,24,14,Improv_Melody,382,1,38,55,3512379920
52,24,14,Improv_Melody,383,2,45,80,3512393684
52,24,14,Improv_Melody,384,2,69,80,3512395916
52,24,14,Improv_Melody,385,5,42,127,3512398300
52,24,14,Improv_Melody,386,1,48,66,3512887788
52,24,14,Improv_Melody,387,5,42,110,3512890964
52,24,14,Improv_Melody,388,1,48,46,3513117968
52,24,14,Improv_Melody,389,1,48,63,3513379916
52,24,14,Improv_Melody,390,5,42,110,3513390348
52,24,14,Improv_Melody,391,1,38,47,3513655420
52,24,14,Improv_Melody,392,5,42,110,3513890256
52,24,14,Improv_Melody,393,1,48,48,3513921124
52,24,14,Improv_Melody,394,1,48,45,3514166692
52,24,14,Improv_Melody,395,5,42,127,3514391128
52,24,14,Improv_Melody,396,1,48,68,3514431724
52,24,14,Improv_Melody,397,1,38,17,3514441648
52,24,14,Improv_Melody,398,5,42,110,3514890560
52,24,14,Improv_Melody,399,1,48,60,3514899516
52,24,14,Improv_Melody,400,1,48,46,3515150012
52,24,14,Improv_Melody,401,5,42,110,3515390384
52,24,14,Improv_Melody,402,1,48,48,3515414000
52,24,14,Improv_Melody,403,1,38,48,3515637348
52,24,14,Improv_Melody,404,5,42,110,3515891112
52,24,14,Improv_Melody,405,1,48,62,3515895880
52,24,14,Improv_Melody,406,1,48,19,3516157148
52,24,14,Improv_Melody,407,2,41,80,3516393444
52,24,14,Improv_Melody,408,2,65,80,3516395748
52,24,14,Improv_Melody,409,5,42,127,3516398208
52,24,14,Improv_Melody,410,1,48,63,3516412104
52,24,14,Improv_Melody,411,5,42,110,3516890580
52,24,14,Improv_Melody,412,1,48,67,3516906188
52,24,14,Improv_Melody,413,1,48,60,3517378340
52,24,14,Improv_Melody,414,5,42,110,3517390052
52,24,14,Improv_Melody,415,1,38,50,3517603888
52,24,14,Improv_Melody,416,1,38,23,3517677688
52,24,14,Improv_Melody,417,1,48,70,3517890908
52,24,14,Improv_Melody,418,5,42,110,3517892320
52,24,14,Improv_Melody,419,1,38,18,3517901056
52,24,14,Improv_Melody,420,1,48,45,3518130212
52,24,14,Improv_Melody,421,5,42,127,3518391076
52,24,14,Improv_Melody,422,1,48,68,3518392716
52,24,14,Improv_Melody,423,5,42,110,3518890404
52,24,14,Improv_Melody,424,1,48,57,3518899656
52,24,14,Improv_Melody,425,5,42,110,3519391152
52,24,14,Improv_Melody,426,1,48,56,3519392192
52,24,14,Improv_Melody,427,1,38,59,3519628320
52,24,14,Improv_Melody,428,1,38,36,3519691052
52,24,14,Improv_Melody,429,5,42,110,3519890880
52,24,14,Improv_Melody,430,1,48,62,3519900736
52,24,14,Improv_Melody,431,1,48,29,3520153928
52,24,14,Improv_Melody,432,1,48,57,3520255032
52,24,14,Improv_Melody,433,1,48,48,3520355564
52,24,14,Improv_Melody,434,2,48,80,3520393184
52,24,14,Improv_Melody,435,2,72,80,3520395184
52,24,14,Improv_Melody,436,5,42,127,3520397948
52,24,14,Improv_Melody,437,1,38,54,3520889044
52,24,14,Improv_Melody,438,5,42,110,3520891884
52,24,14,Improv_Melody,439,1,48,54,3521155616
52,24,14,Improv_Melody,0,9999,9999,9999,3440388208
52,24,14,Improv_Melody,1,9999,9999,9999,3440887908
52,24,14,Improv_Melody,2,9999,9999,9999,3441388604
52,24,14,Improv_Melody,3,9999,9999,9999,3441888328
52,24,14,Improv_Melody,4,9999,9999,9999,3442388048
52,24,14,Improv_Melody,5,9999,9999,9999,3442888820
52,24,14,Improv_Melody,6,9999,9999,9999,3443388464
52,24,14,Improv_Melody,7,9999,9999,9999,3443888188
52,24,14,Improv_Melody,8,9999,9999,9999,3444387912
52,24,14,Improv_Melody,9,9999,9999,9999,3444888692
52,24,14,Improv_Melody,10,9999,9999,9999,3445388340
52,24,14,Improv_Melody,11,9999,9999,9999,3445888060
52,24,14,Improv_Melody,12,9999,9999,9999,3446387780
52,24,14,Improv_Melody,13,9999,9999,9999,3446888548
52,24,14,Improv_Melody,14,9999,9999,9999,3447388272
52,24,14,Improv_Melody,15,9999,9999,9999,3447887968
52,24,14,Improv_Melody,16,9999,9999,9999,3448388664
52,24,14,Improv_Melody,17,9999,9999,9999,3448888396
52,24,14,Improv_Melody,18,9999,9999,9999,3449388120
52,24,14,Improv_Melody,19,9999,9999,9999,3449887840
52,24,14,Improv_Melody,20,9999,9999,9999,3450388536
52,24,14,Improv_Melody,21,9999,9999,9999,3450888256
52,24,14,Improv_Melody,22,9999,9999,9999,3451387976
52,24,14,Improv_Melody,23,9999,9999,9999,3451888744
52,24,14,Improv_Melody,24,9999,9999,9999,3452388468
52,24,14,Improv_Melody,25,9999,9999,9999,3452888128
52,24,14,Improv_Melody,26,9999,9999,9999,3453387848
52,24,14,Improv_Melody,27,9999,9999,9999,3453888616
52,24,14,Improv_Melody,28,9999,9999,9999,3454388340
52,24,14,Improv_Melody,29,9999,9999,9999,3454887988
52,24,14,Improv_Melody,30,9999,9999,9999,3455388752
52,24,14,Improv_Melody,31,9999,9999,9999,3455888476
52,24,14,Improv_Melody,32,9999,9999,9999,3456388192
52,24,14,Improv_Melody,33,9999,9999,9999,3456887904
52,24,14,Improv_Melody,34,9999,9999,9999,3457388656
52,24,14,Improv_Melody,35,9999,9999,9999,3457888356
52,24,14,Improv_Melody,36,9999,9999,9999,3458388024
52,24,14,Improv_Melody,37,9999,9999,9999,3458888820
52,24,14,Improv_Melody,38,9999,9999,9999,3459388520
52,24,14,Improv_Melody,39,9999,9999,9999,3459888224
52,24,14,Improv_Melody,40,9999,9999,9999,3460387924
52,24,14,Improv_Melody,41,9999,9999,9999,3460888688
52,24,14,Improv_Melody,42,9999,9999,9999,3461388388
52,24,14,Improv_Melody,43,9999,9999,9999,3461888088
52,24,14,Improv_Melody,44,9999,9999,9999,3462387788
52,24,14,Improv_Melody,45,9999,9999,9999,3462888528
52,24,14,Improv_Melody,46,9999,9999,9999,3463388228
52,24,14,Improv_Melody,47,9999,9999,9999,3463887928
52,24,14,Improv_Melody,48,9999,9999,9999,3464388676
52,24,14,Improv_Melody,49,9999,9999,9999,3464888392
52,24,14,Improv_Melody,50,9999,9999,9999,3465388088
52,24,14,Improv_Melody,51,9999,9999,9999,3465887860
52,24,14,Improv_Melody,52,9999,9999,9999,3466388572
52,24,14,Improv_Melody,53,9999,9999,9999,3466888268
52,24,14,Improv_Melody,54,9999,9999,9999,3467387964
52,24,14,Improv_Melody,55,9999,9999,9999,3467888688
52,24,14,Improv_Melody,56,9999,9999,9999,3468388420
52,24,14,Improv_Melody,57,9999,9999,9999,3468888140
52,24,14,Improv_Melody,58,9999,9999,9999,3469387888
52,24,14,Improv_Melody,59,9999,9999,9999,3469888628
52,24,14,Improv_Melody,60,9999,9999,9999,3470388288
52,24,14,Improv_Melody,61,9999,9999,9999,3470888040
52,24,14,Improv_Melody,62,9999,9999,9999,3471388764
52,24,14,Improv_Melody,63,9999,9999,9999,3471888456
52,24,14,Improv_Melody,64,9999,9999,9999,3472388212
52,24,14,Improv_Melody,65,9999,9999,9999,3472887900
52,24,14,Improv_Melody,66,9999,9999,9999,3473388624
52,24,14,Improv_Melody,67,9999,9999,9999,3473888356
52,24,14,Improv_Melody,68,9999,9999,9999,3474388036
52,24,14,Improv_Melody,69,9999,9999,9999,3474888760
52,24,14,Improv_Melody,70,9999,9999,9999,3475388516
52,24,14,Improv_Melody,71,9999,9999,9999,3475888196
52,24,14,Improv_Melody,72,9999,9999,9999,3476387944
52,24,14,Improv_Melody,73,9999,9999,9999,3476888632
52,24,14,Improv_Melody,74,9999,9999,9999,3477388388
52,24,14,Improv_Melody,75,9999,9999,9999,3477888060
52,24,14,Improv_Melody,76,9999,9999,9999,3478387820
52,24,14,Improv_Melody,77,9999,9999,9999,3478888564
52,24,14,Improv_Melody,78,9999,9999,9999,3479388268
52,24,14,Improv_Melody,79,9999,9999,9999,3479887924
52,24,14,Improv_Melody,80,9999,9999,9999,3480388724
52,24,14,Improv_Melody,81,9999,9999,9999,3480888388
52,24,14,Improv_Melody,82,9999,9999,9999,3481388092
52,24,14,Improv_Melody,83,9999,9999,9999,3481887848
52,24,14,Improv_Melody,84,9999,9999,9999,3482388572
52,24,14,Improv_Melody,85,9999,9999,9999,3482888272
52,24,14,Improv_Melody,86,9999,9999,9999,3483387964
52,24,14,Improv_Melody,87,9999,9999,9999,3483888692
52,24,14,Improv_Melody,88,9999,9999,9999,3484388452
52,24,14,Improv_Melody,89,9999,9999,9999,3484888164
52,24,14,Improv_Melody,90,9999,9999,9999,3485387840
52,24,14,Improv_Melody,91,9999,9999,9999,3485888588
52,24,14,Improv_Melody,92,9999,9999,9999,3486388332
52,24,14,Improv_Melody,93,9999,9999,9999,3486887996
52,24,14,Improv_Melody,94,9999,9999,9999,3487388772
52,24,14,Improv_Melody,95,9999,9999,9999,3487888488
52,24,14,Improv_Melody,96,9999,9999,9999,3488388172
52,24,14,Improv_Melody,97,9999,9999,9999,3488887928
52,24,14,Improv_Melody,98,9999,9999,9999,3489388652
52,24,14,Improv_Melody,99,9999,9999,9999,3489888312
52,24,14,Improv_Melody,100,9999,9999,9999,3490388016
52,24,14,Improv_Melody,101,9999,9999,9999,3490888816
52,24,14,Improv_Melody,102,9999,9999,9999,3491388500
52,24,14,Improv_Melody,103,9999,9999,9999,3491888180
52,24,14,Improv_Melody,104,9999,9999,9999,3492387932
52,24,14,Improv_Melody,105,9999,9999,9999,3492888688
52,24,14,Improv_Melody,106,9999,9999,9999,3493388368
52,24,14,Improv_Melody,107,9999,9999,9999,3493888120
52,24,14,Improv_Melody,108,9999,9999,9999,3494387796
52,24,14,Improv_Melody,109,9999,9999,9999,3494888544
52,24,14,Improv_Melody,110,9999,9999,9999,3495388268
52,24,14,Improv_Melody,111,9999,9999,9999,3495887948
52,24,14,Improv_Melody,112,9999,9999,9999,3496388680
52,24,14,Improv_Melody,113,9999,9999,9999,3496888404
52,24,14,Improv_Melody,114,9999,9999,9999,3497388084
52,24,14,Improv_Melody,115,9999,9999,9999,3497887832
52,24,14,Improv_Melody,116,9999,9999,9999,3498388572
52,24,14,Improv_Melody,117,9999,9999,9999,3498888252
52,24,14,Improv_Melody,118,9999,9999,9999,3499387976
52,24,14,Improv_Melody,119,9999,9999,9999,3499888700
52,24,14,Improv_Melody,120,9999,9999,9999,3500388404
52,24,14,Improv_Melody,121,9999,9999,9999,3500888120
52,24,14,Improv_Melody,122,9999,9999,9999,3501387852
52,24,14,Improv_Melody,123,9999,9999,9999,3501888576
52,24,14,Improv_Melody,124,9999,9999,9999,3502388332
52,24,14,Improv_Melody,125,9999,9999,9999,3502888004
52,24,14,Improv_Melody,126,9999,9999,9999,3503388760
52,24,14,Improv_Melody,127,9999,9999,9999,3503888456
52,24,14,Improv_Melody,128,9999,9999,9999,3504388188
52,24,14,Improv_Melody,129,9999,9999,9999,3504887892
52,24,14,Improv_Melody,130,9999,9999,9999,3505388644
52,24,14,Improv_Melody,131,9999,9999,9999,3505888336
52,24,14,Improv_Melody,132,9999,9999,9999,3506388056
52,24,14,Improv_Melody,133,9999,9999,9999,3506888776
52,24,14,Improv_Melody,134,9999,9999,9999,3507388480
52,24,14,Improv_Melody,135,9999,9999,9999,3507888184
52,24,14,Improv_Melody,136,9999,9999,9999,3508387932
52,24,14,Improv_Melody,137,9999,9999,9999,3508888692
52,24,14,Improv_Melody,138,9999,9999,9999,3509388356
52,24,14,Improv_Melody,139,9999,9999,9999,3509888108
52,24,14,Improv_Melody,140,9999,9999,9999,3510387788
52,24,14,Improv_Melody,141,9999,9999,9999,3510888540
52,24,14,Improv_Melody,142,9999,9999,9999,3511388216
52,24,14,Improv_Melody,143,9999,9999,9999,3511887944
52,24,14,Improv_Melody,144,9999,9999,9999,3512388664
52,24,14,Improv_Melody,145,9999,9999,9999,3512888376
52,24,14,Improv_Melody,146,9999,9999,9999,3513388132
52,24,14,Improv_Melody,147,9999,9999,9999,3513887816
52,24,14,Improv_Melody,148,9999,9999,9999,3514388540
52,24,14,Improv_Melody,149,9999,9999,9999,3514888268
52,24,14,Improv_Melody,150,9999,9999,9999,3515388020
52,24,14,Improv_Melody,151,9999,9999,9999,3515888744
52,24,14,Improv_Melody,152,9999,9999,9999,3516388424
52,24,14,Improv_Melody,153,9999,9999,9999,3516888136
52,24,14,Improv_Melody,154,9999,9999,9999,3517387836
52,24,14,Improv_Melody,155,9999,9999,9999,3517888616
52,24,14,Improv_Melody,156,9999,9999,9999,3518388336
52,24,14,Improv_Melody,157,9999,9999,9999,3518888040
52,24,14,Improv_Melody,158,9999,9999,9999,3519388784
52,24,14,Improv_Melody,159,9999,9999,9999,3519888440
52,24,14,Improv_Melody,160,9999,9999,9999,3520388164
52,24,14,Improv_Melody,161,9999,9999,9999,3520887884
