pid,taskRunCount,taskID,taskName,i,channel,pitch,velocity,microseconds
56,1,1,Ticks_Pract_5,0,5,42,127,1099867416
56,1,1,Ticks_Pract_5,1,1,48,48,1100197128
56,1,1,Ticks_Pract_5,2,5,42,127,1100368580
56,1,1,Ticks_Pract_5,3,1,48,28,1100758752
56,1,1,Ticks_Pract_5,4,5,42,127,1100867904
56,1,1,Ticks_Pract_5,5,1,48,31,1101214768
56,1,1,Ticks_Pract_5,6,5,42,127,1101367524
56,1,1,Ticks_Pract_5,7,1,48,31,1101764652
56,1,1,Ticks_Pract_5,8,5,42,127,1101868640
56,1,1,Ticks_Pract_5,9,1,48,28,1102320892
56,1,1,Ticks_Pract_5,10,5,42,127,1102368272
56,1,1,Ticks_Pract_5,11,1,48,35,1102830532
56,1,1,Ticks_Pract_5,12,5,42,127,1102867820
56,1,1,Ticks_Pract_5,13,1,48,32,1103304348
56,1,1,Ticks_Pract_5,14,5,42,127,1103367440
56,1,1,Ticks_Pract_5,15,1,48,31,1103816608
56,1,1,Ticks_Pract_5,16,5,42,127,1103868480
56,1,1,Ticks_Pract_5,17,1,48,29,1104321768
56,1,1,Ticks_Pract_5,18,5,42,127,1104367876
56,1,1,Ticks_Pract_5,19,1,48,28,1104815176
56,1,1,Ticks_Pract_5,20,5,42,127,1104867644
56,1,1,Ticks_Pract_5,21,1,48,32,1105317488
56,1,1,Ticks_Pract_5,22,5,42,127,1105368388
56,1,1,Ticks_Pract_5,23,1,48,22,1105851140
56,1,1,Ticks_Pract_5,24,5,42,127,1105868228
56,1,1,Ticks_Pract_5,25,1,48,29,1106323908
56,1,1,Ticks_Pract_5,26,5,42,127,1106367776
56,1,1,Ticks_Pract_5,27,1,48,30,1106846488
56,1,1,Ticks_Pract_5,28,5,42,127,1106867472
56,1,1,Ticks_Pract_5,29,1,48,29,1107349104
56,1,1,Ticks_Pract_5,30,5,42,127,1107368284
56,1,1,Ticks_Pract_5,31,5,42,127,1107867912
56,1,1,Ticks_Pract_5,32,1,48,31,1107872080
56,1,1,Ticks_Pract_5,33,1,48,32,1108358372
56,1,1,Ticks_Pract_5,34,5,42,127,1108367604
56,1,1,Ticks_Pract_5,35,1,48,31,1108857992
56,1,1,Ticks_Pract_5,36,5,42,127,1108867300
56,1,1,Ticks_Pract_5,37,5,42,127,1109368272
56,1,1,Ticks_Pract_5,38,1,48,20,1109378796
56,1,1,Ticks_Pract_5,39,1,48,32,1109840820
56,1,1,Ticks_Pract_5,40,5,42,127,1109867812
56,1,1,Ticks_Pract_5,41,1,48,32,1110331620
56,1,1,Ticks_Pract_5,42,5,42,127,1110367508
56,1,1,Ticks_Pract_5,43,1,48,38,1110836552
56,1,1,Ticks_Pract_5,44,5,42,127,1110868224
56,1,1,Ticks_Pract_5,45,1,48,32,1111349412
56,1,1,Ticks_Pract_5,46,5,42,127,1111368140
56,1,1,Ticks_Pract_5,47,1,48,35,1111831224
56,1,1,Ticks_Pract_5,48,5,42,127,1111867688
56,1,1,Ticks_Pract_5,49,1,48,31,1112337128
56,1,1,Ticks_Pract_5,50,5,42,127,1112367604
56,1,1,Ticks_Pract_5,51,1,48,27,1112837200
56,1,1,Ticks_Pract_5,52,5,42,127,1112868196
56,1,1,Ticks_Pract_5,53,1,48,27,1113317964
56,1,1,Ticks_Pract_5,54,5,42,127,1113367892
56,1,1,Ticks_Pract_5,55,1,48,32,1113835536
56,1,1,Ticks_Pract_5,56,5,42,127,1113867660
56,1,1,Ticks_Pract_5,57,1,48,20,1114331936
56,1,1,Ticks_Pract_5,58,5,42,127,1114368476
56,1,1,Ticks_Pract_5,59,1,48,34,1114797604
56,1,1,Ticks_Pract_5,60,5,42,127,1114868244
56,1,1,Ticks_Pract_5,61,1,48,35,1115285472
56,1,1,Ticks_Pract_5,62,5,42,127,1115367864
56,1,1,Ticks_Pract_5,63,1,48,34,1115847932
56,1,1,Ticks_Pract_5,64,5,42,127,1115867412
56,1,1,Ticks_Pract_5,65,1,48,38,1116358244
56,1,1,Ticks_Pract_5,66,5,42,127,1116368152
56,1,1,Ticks_Pract_5,67,1,48,40,1116860856
56,1,1,Ticks_Pract_5,68,5,42,127,1116868068
56,1,1,Ticks_Pract_5,69,5,42,127,1117367772
56,1,1,Ticks_Pract_5,70,1,48,19,1117388540
56,1,1,Ticks_Pract_5,71,1,48,40,1117833164
56,1,1,Ticks_Pract_5,72,5,42,127,1117868356
56,1,1,Ticks_Pract_5,73,1,48,40,1118350284
56,1,1,Ticks_Pract_5,74,5,42,127,1118368052
56,1,1,Ticks_Pract_5,75,1,48,44,1118834272
56,1,1,Ticks_Pract_5,76,5,42,127,1118867968
56,1,1,Ticks_Pract_5,77,5,42,127,1119367520
56,1,1,Ticks_Pract_5,78,1,48,30,1119372880
56,1,1,Ticks_Pract_5,79,1,48,43,1119848996
56,1,1,Ticks_Pract_5,0,9999,9999,9999,1099865200
56,1,1,Ticks_Pract_5,1,9999,9999,9999,1100365920
56,1,1,Ticks_Pract_5,2,9999,9999,9999,1100865612
56,1,1,Ticks_Pract_5,3,9999,9999,9999,1101365308
56,1,1,Ticks_Pract_5,4,9999,9999,9999,1101866052
56,1,1,Ticks_Pract_5,5,9999,9999,9999,1102365760
56,1,1,Ticks_Pract_5,6,9999,9999,9999,1102865528
56,1,1,Ticks_Pract_5,7,9999,9999,9999,1103365224
56,1,1,Ticks_Pract_5,8,9999,9999,9999,1103865968
56,1,1,Ticks_Pract_5,9,9999,9999,9999,1104365660
56,1,1,Ticks_Pract_5,10,9999,9999,9999,1104865356
56,1,1,Ticks_Pract_5,11,9999,9999,9999,1105366100
56,1,1,Ticks_Pract_5,12,9999,9999,9999,1105865792
56,1,1,Ticks_Pract_5,13,9999,9999,9999,1106365560
56,1,1,Ticks_Pract_5,14,9999,9999,9999,1106865256
56,1,1,Ticks_Pract_5,15,9999,9999,9999,1107365996
56,1,1,Ticks_Pract_5,16,9999,9999,9999,1107865696
56,1,1,Ticks_Pract_5,17,9999,9999,9999,1108365388
56,1,1,Ticks_Pract_5,18,9999,9999,9999,1108865084
56,1,1,Ticks_Pract_5,19,9999,9999,9999,1109365832
56,1,1,Ticks_Pract_5,20,9999,9999,9999,1109865520
56,1,1,Ticks_Pract_5,21,9999,9999,9999,1110365292
56,1,1,Ticks_Pract_5,22,9999,9999,9999,1110866008
56,1,1,Ticks_Pract_5,23,9999,9999,9999,1111365704
56,1,1,Ticks_Pract_5,24,9999,9999,9999,1111865396
56,1,1,Ticks_Pract_5,25,9999,9999,9999,1112365164
56,1,1,Ticks_Pract_5,26,9999,9999,9999,1112865904
56,1,1,Ticks_Pract_5,27,9999,9999,9999,1113365600
56,1,1,Ticks_Pract_5,28,9999,9999,9999,1113865296
56,1,1,Ticks_Pract_5,29,9999,9999,9999,1114366036
56,1,1,Ticks_Pract_5,30,9999,9999,9999,1114865732
56,1,1,Ticks_Pract_5,31,9999,9999,9999,1115365428
56,1,1,Ticks_Pract_5,32,9999,9999,9999,1115865196
56,1,1,Ticks_Pract_5,33,9999,9999,9999,1116365936
56,1,1,Ticks_Pract_5,34,9999,9999,9999,1116865632
56,1,1,Ticks_Pract_5,35,9999,9999,9999,1117365332
56,1,1,Ticks_Pract_5,36,9999,9999,9999,1117866068
56,1,1,Ticks_Pract_5,37,9999,9999,9999,1118365760
56,1,1,Ticks_Pract_5,38,9999,9999,9999,1118865528
56,1,1,Ticks_Pract_5,39,9999,9999,9999,1119365232
56,2,0,Ticks_Pract_8,0,5,42,127,1137001904
56,2,0,Ticks_Pract_8,1,1,48,43,1137443212
56,2,0,Ticks_Pract_8,2,5,42,127,1137801712
56,2,0,Ticks_Pract_8,3,1,48,33,1137959736
56,2,0,Ticks_Pract_8,4,5,42,127,1138602492
56,2,0,Ticks_Pract_8,5,1,48,40,1138741668
56,2,0,Ticks_Pract_8,6,5,42,127,1139402076
56,2,0,Ticks_Pract_8,7,1,48,38,1139470348
56,2,0,Ticks_Pract_8,8,5,42,127,1140201884
56,2,0,Ticks_Pract_8,9,1,48,36,1140221456
56,2,0,Ticks_Pract_8,10,1,48,44,1140999188
56,2,0,Ticks_Pract_8,11,5,42,127,1141001684
56,2,0,Ticks_Pract_8,12,1,48,46,1141782612
56,2,0,Ticks_Pract_8,13,5,42,127,1141802688
56,2,0,Ticks_Pract_8,14,5,42,127,1142601984
56,2,0,Ticks_Pract_8,15,1,48,43,1142610040
56,2,0,Ticks_Pract_8,16,1,48,45,1143374596
56,2,0,Ticks_Pract_8,17,5,42,127,1143401956
56,2,0,Ticks_Pract_8,18,1,48,43,1144180636
56,2,0,Ticks_Pract_8,19,5,42,127,1144201616
56,2,0,Ticks_Pract_8,20,1,48,43,1144961820
56,2,0,Ticks_Pract_8,21,5,42,127,1145002620
56,2,0,Ticks_Pract_8,22,1,48,41,1145752584
56,2,0,Ticks_Pract_8,23,5,42,127,1145801980
56,2,0,Ticks_Pract_8,24,1,48,46,1146523744
56,2,0,Ticks_Pract_8,25,5,42,127,1146601864
56,2,0,Ticks_Pract_8,26,1,48,34,1147332224
56,2,0,Ticks_Pract_8,27,5,42,127,1147401596
56,2,0,Ticks_Pract_8,28,1,48,37,1148121488
56,2,0,Ticks_Pract_8,29,5,42,127,1148202600
56,2,0,Ticks_Pract_8,30,1,48,39,1148952408
56,2,0,Ticks_Pract_8,31,5,42,127,1149002184
56,2,0,Ticks_Pract_8,32,1,48,48,1149724844
56,2,0,Ticks_Pract_8,33,5,42,127,1149801792
56,2,0,Ticks_Pract_8,34,1,48,41,1150499372
56,2,0,Ticks_Pract_8,35,5,42,127,1150601512
56,2,0,Ticks_Pract_8,36,1,48,41,1151330844
56,2,0,Ticks_Pract_8,37,5,42,127,1151402456
56,2,0,Ticks_Pract_8,38,1,48,44,1152110452
56,2,0,Ticks_Pract_8,39,5,42,127,1152202412
56,2,0,Ticks_Pract_8,40,1,48,34,1152901812
56,2,0,Ticks_Pract_8,41,5,42,127,1153002584
56,2,0,Ticks_Pract_8,42,1,48,32,1153727504
56,2,0,Ticks_Pract_8,43,5,42,127,1153801508
56,2,0,Ticks_Pract_8,44,1,48,35,1154499480
56,2,0,Ticks_Pract_8,45,5,42,127,1154602272
56,2,0,Ticks_Pract_8,46,1,48,40,1155307144
56,2,0,Ticks_Pract_8,47,5,42,127,1155402024
56,2,0,Ticks_Pract_8,48,1,48,37,1156124832
56,2,0,Ticks_Pract_8,49,5,42,127,1156201928
56,2,0,Ticks_Pract_8,50,1,48,43,1156898236
56,2,0,Ticks_Pract_8,51,5,42,127,1157001576
56,2,0,Ticks_Pract_8,52,1,48,38,1157722304
56,2,0,Ticks_Pract_8,53,5,42,127,1157802296
56,2,0,Ticks_Pract_8,54,1,48,39,1158571032
56,2,0,Ticks_Pract_8,55,5,42,127,1158602104
56,2,0,Ticks_Pract_8,56,1,48,29,1159310848
56,2,0,Ticks_Pract_8,57,5,42,127,1159401764
56,2,0,Ticks_Pract_8,58,1,48,25,1160094648
56,2,0,Ticks_Pract_8,59,5,42,127,1160201628
56,2,0,Ticks_Pract_8,60,1,48,30,1160902608
56,2,0,Ticks_Pract_8,0,9999,9999,9999,1136999544
56,2,0,Ticks_Pract_8,1,9999,9999,9999,1137799272
56,2,0,Ticks_Pract_8,2,9999,9999,9999,1138600056
56,2,0,Ticks_Pract_8,3,9999,9999,9999,1139399788
56,2,0,Ticks_Pract_8,4,9999,9999,9999,1140199520
56,2,0,Ticks_Pract_8,5,9999,9999,9999,1140999248
56,2,0,Ticks_Pract_8,6,9999,9999,9999,1141800028
56,2,0,Ticks_Pract_8,7,9999,9999,9999,1142599768
56,2,0,Ticks_Pract_8,8,9999,9999,9999,1143399520
56,2,0,Ticks_Pract_8,9,9999,9999,9999,1144199252
56,2,0,Ticks_Pract_8,10,9999,9999,9999,1145000032
56,2,0,Ticks_Pract_8,11,9999,9999,9999,1145799768
56,2,0,Ticks_Pract_8,12,9999,9999,9999,1146599500
56,2,0,Ticks_Pract_8,13,9999,9999,9999,1147399236
56,2,0,Ticks_Pract_8,14,9999,9999,9999,1148200016
56,2,0,Ticks_Pract_8,15,9999,9999,9999,1148999748
56,2,0,Ticks_Pract_8,16,9999,9999,9999,1149799504
56,2,0,Ticks_Pract_8,17,9999,9999,9999,1150599224
56,2,0,Ticks_Pract_8,18,9999,9999,9999,1151400020
56,2,0,Ticks_Pract_8,19,9999,9999,9999,1152199752
56,2,0,Ticks_Pract_8,20,9999,9999,9999,1152999488
56,2,0,Ticks_Pract_8,21,9999,9999,9999,1153799220
56,2,0,Ticks_Pract_8,22,9999,9999,9999,1154599984
56,2,0,Ticks_Pract_8,23,9999,9999,9999,1155399736
56,2,0,Ticks_Pract_8,24,9999,9999,9999,1156199492
56,2,0,Ticks_Pract_8,25,9999,9999,9999,1156999288
56,2,0,Ticks_Pract_8,26,9999,9999,9999,1157800008
56,2,0,Ticks_Pract_8,27,9999,9999,9999,1158599740
56,2,0,Ticks_Pract_8,28,9999,9999,9999,1159399476
56,2,0,Ticks_Pract_8,29,9999,9999,9999,1160199268
56,3,4,T1_SMS_5,0,5,42,127,1238702596
56,3,4,T1_SMS_5,1,5,42,127,1239203284
56,3,4,T1_SMS_5,2,1,48,39,1239206180
56,3,4,T1_SMS_5,3,5,42,127,1239702832
56,3,4,T1_SMS_5,4,1,48,51,1239731680
56,3,4,T1_SMS_5,5,1,48,48,1240185956
56,3,4,T1_SMS_5,6,5,42,127,1240202596
56,3,4,T1_SMS_5,7,1,48,52,1240678392
56,3,4,T1_SMS_5,8,5,42,127,1240703264
56,3,4,T1_SMS_5,9,1,48,49,1241182356
56,3,4,T1_SMS_5,10,5,42,127,1241203032
56,3,4,T1_SMS_5,11,1,48,47,1241646572
56,3,4,T1_SMS_5,12,5,42,127,1241702724
56,3,4,T1_SMS_5,13,1,48,49,1242194680
56,3,4,T1_SMS_5,14,5,42,127,1242202644
56,3,4,T1_SMS_5,15,1,48,48,1242701940
56,3,4,T1_SMS_5,16,5,42,127,1242703584
56,3,4,T1_SMS_5,17,1,48,48,1243184896
56,3,4,T1_SMS_5,18,5,42,127,1243202960
56,3,4,T1_SMS_5,19,5,42,127,1243702512
56,3,4,T1_SMS_5,20,1,48,45,1243707128
56,3,4,T1_SMS_5,21,1,48,46,1244186008
56,3,4,T1_SMS_5,22,5,42,127,1244203472
56,3,4,T1_SMS_5,23,1,48,48,1244668204
56,3,4,T1_SMS_5,24,5,42,127,1244703164
56,3,4,T1_SMS_5,25,5,42,127,1245202792
56,3,4,T1_SMS_5,26,1,48,50,1245205984
56,3,4,T1_SMS_5,27,1,48,46,1245685992
56,3,4,T1_SMS_5,28,5,42,127,1245702480
56,3,4,T1_SMS_5,29,5,42,127,1246203376
56,3,4,T1_SMS_5,30,1,48,49,1246205976
56,3,4,T1_SMS_5,31,1,48,45,1246671764
56,3,4,T1_SMS_5,32,5,42,127,1246702844
56,3,4,T1_SMS_5,33,1,48,42,1247150744
56,3,4,T1_SMS_5,34,5,42,127,1247202612
56,3,4,T1_SMS_5,35,1,48,43,1247682976
56,3,4,T1_SMS_5,36,5,42,127,1247703352
56,3,4,T1_SMS_5,37,1,48,39,1248166660
56,3,4,T1_SMS_5,38,5,42,127,1248203200
56,3,4,T1_SMS_5,39,1,48,47,1248673312
56,3,4,T1_SMS_5,40,5,42,127,1248702816
56,3,4,T1_SMS_5,41,1,48,40,1249188568
56,3,4,T1_SMS_5,42,5,42,127,1249202588
56,3,4,T1_SMS_5,43,1,48,42,1249660212
56,3,4,T1_SMS_5,44,5,42,127,1249703328
56,3,4,T1_SMS_5,45,1,48,39,1250192816
56,3,4,T1_SMS_5,46,5,42,127,1250203096
56,3,4,T1_SMS_5,47,1,48,38,1250685628
56,3,4,T1_SMS_5,48,5,42,127,1250702644
56,3,4,T1_SMS_5,49,1,48,36,1251183904
56,3,4,T1_SMS_5,50,5,42,127,1251202488
56,3,4,T1_SMS_5,51,1,48,42,1251665424
56,3,4,T1_SMS_5,52,5,42,127,1251703084
56,3,4,T1_SMS_5,53,5,42,127,1252202788
56,3,4,T1_SMS_5,54,1,48,21,1252211744
56,3,4,T1_SMS_5,55,1,48,43,1252651180
56,3,4,T1_SMS_5,56,5,42,127,1252702548
56,3,4,T1_SMS_5,57,1,48,47,1253178848
56,3,4,T1_SMS_5,58,5,42,127,1253203216
56,3,4,T1_SMS_5,59,1,48,44,1253670092
56,3,4,T1_SMS_5,60,5,42,127,1253702960
56,3,4,T1_SMS_5,61,5,42,127,1254202736
56,3,4,T1_SMS_5,62,1,48,39,1254205480
56,3,4,T1_SMS_5,63,1,48,43,1254681592
56,3,4,T1_SMS_5,64,5,42,127,1254702496
56,3,4,T1_SMS_5,65,5,42,127,1255203320
56,3,4,T1_SMS_5,66,1,48,46,1255213172
56,3,4,T1_SMS_5,67,5,42,127,1255703012
56,3,4,T1_SMS_5,68,1,48,39,1255713016
56,3,4,T1_SMS_5,69,1,48,41,1256169156
56,3,4,T1_SMS_5,70,5,42,127,1256202552
56,3,4,T1_SMS_5,71,1,48,42,1256699072
56,3,4,T1_SMS_5,72,5,42,127,1256703292
56,3,4,T1_SMS_5,73,1,48,29,1257197648
56,3,4,T1_SMS_5,74,5,42,127,1257202988
56,3,4,T1_SMS_5,75,1,48,29,1257687244
56,3,4,T1_SMS_5,76,5,42,127,1257702832
56,3,4,T1_SMS_5,77,1,48,43,1258170704
56,3,4,T1_SMS_5,78,5,42,127,1258202380
56,3,4,T1_SMS_5,79,1,48,37,1258686556
56,3,4,T1_SMS_5,80,5,42,127,1258703196
56,3,4,T1_SMS_5,81,1,48,43,1259184456
56,3,4,T1_SMS_5,82,5,42,127,1259202888
56,3,4,T1_SMS_5,83,5,42,127,1259702668
56,3,4,T1_SMS_5,84,1,48,39,1259723212
56,3,4,T1_SMS_5,85,1,48,44,1260178908
56,3,4,T1_SMS_5,86,5,42,127,1260203252
56,3,4,T1_SMS_5,87,1,48,39,1260675760
56,3,4,T1_SMS_5,88,5,42,127,1260703244
56,3,4,T1_SMS_5,89,1,48,44,1261133244
56,3,4,T1_SMS_5,90,5,42,127,1261203088
56,3,4,T1_SMS_5,91,1,48,48,1261685692
56,3,4,T1_SMS_5,92,5,42,127,1261702412
56,3,4,T1_SMS_5,93,1,48,27,1261746204
56,3,4,T1_SMS_5,94,1,48,39,1262175044
56,3,4,T1_SMS_5,95,5,42,127,1262203204
56,3,4,T1_SMS_5,96,1,48,43,1262690976
56,3,4,T1_SMS_5,97,5,42,127,1262703424
56,3,4,T1_SMS_5,98,1,48,39,1263185876
56,3,4,T1_SMS_5,99,5,42,127,1263202596
56,3,4,T1_SMS_5,100,1,48,40,1263698972
56,3,4,T1_SMS_5,101,5,42,127,1263703340
56,3,4,T1_SMS_5,102,1,48,40,1264177092
56,3,4,T1_SMS_5,103,5,42,127,1264203308
56,3,4,T1_SMS_5,104,1,48,36,1264679184
56,3,4,T1_SMS_5,105,5,42,127,1264703000
56,3,4,T1_SMS_5,106,1,48,41,1265196080
56,3,4,T1_SMS_5,107,5,42,127,1265202548
56,3,4,T1_SMS_5,108,1,48,42,1265703144
56,3,4,T1_SMS_5,109,5,42,127,1265704556
56,3,4,T1_SMS_5,110,1,48,38,1266192252
56,3,4,T1_SMS_5,111,5,42,127,1266203208
56,3,4,T1_SMS_5,112,5,42,127,1266702684
56,3,4,T1_SMS_5,113,1,48,37,1266704624
56,3,4,T1_SMS_5,114,5,42,127,1267202456
56,3,4,T1_SMS_5,115,1,48,36,1267211632
56,3,4,T1_SMS_5,116,1,48,40,1267679892
56,3,4,T1_SMS_5,117,5,42,127,1267703116
56,3,4,T1_SMS_5,118,5,42,127,1268203040
56,3,4,T1_SMS_5,119,1,48,39,1268210952
56,3,4,T1_SMS_5,120,5,42,127,1268702588
56,3,4,T1_SMS_5,121,1,48,38,1268723356
56,3,4,T1_SMS_5,122,1,48,40,1269179876
56,3,4,T1_SMS_5,123,5,42,127,1269203320
56,3,4,T1_SMS_5,124,1,48,38,1269687200
56,3,4,T1_SMS_5,125,5,42,127,1269703164
56,3,4,T1_SMS_5,126,1,48,38,1270171788
56,3,4,T1_SMS_5,127,5,42,127,1270203008
56,3,4,T1_SMS_5,128,1,48,38,1270702340
56,3,4,T1_SMS_5,129,5,42,127,1270703824
56,3,4,T1_SMS_5,130,1,48,37,1271181944
56,3,4,T1_SMS_5,131,5,42,127,1271203148
56,3,4,T1_SMS_5,132,1,48,36,1271696976
56,3,4,T1_SMS_5,133,5,42,127,1271703364
56,3,4,T1_SMS_5,134,1,48,42,1272189860
56,3,4,T1_SMS_5,135,5,42,127,1272202540
56,3,4,T1_SMS_5,136,1,48,38,1272682076
56,3,4,T1_SMS_5,137,5,42,127,1272703204
56,3,4,T1_SMS_5,138,1,48,31,1273197180
56,3,4,T1_SMS_5,139,5,42,127,1273203048
56,3,4,T1_SMS_5,140,5,42,127,1273703044
56,3,4,T1_SMS_5,141,1,48,40,1273722024
56,3,4,T1_SMS_5,142,1,48,37,1274189888
56,3,4,T1_SMS_5,143,5,42,127,1274202364
56,3,4,T1_SMS_5,144,1,48,34,1274677764
56,3,4,T1_SMS_5,145,5,42,127,1274703080
56,3,4,T1_SMS_5,146,1,48,39,1275186932
56,3,4,T1_SMS_5,147,5,42,127,1275203124
56,3,4,T1_SMS_5,148,1,48,38,1275699572
56,3,4,T1_SMS_5,149,5,42,127,1275702892
56,3,4,T1_SMS_5,150,5,42,127,1276203420
56,3,4,T1_SMS_5,151,1,48,32,1276221420
56,3,4,T1_SMS_5,152,1,48,35,1276657372
56,3,4,T1_SMS_5,153,5,42,127,1276703108
56,3,4,T1_SMS_5,154,1,48,39,1277201676
56,3,4,T1_SMS_5,155,5,42,127,1277203248
56,3,4,T1_SMS_5,156,5,42,127,1277702652
56,3,4,T1_SMS_5,157,1,48,37,1277715120
56,3,4,T1_SMS_5,158,5,42,127,1278203244
56,3,4,T1_SMS_5,159,1,48,38,1278228956
56,3,4,T1_SMS_5,160,1,48,40,1278685772
56,3,4,T1_SMS_5,161,5,42,127,1278702936
56,3,4,T1_SMS_5,162,5,42,127,1279202860
56,3,4,T1_SMS_5,163,1,48,37,1279205228
56,3,4,T1_SMS_5,164,1,48,37,1279679852
56,3,4,T1_SMS_5,165,5,42,127,1279703444
56,3,4,T1_SMS_5,166,1,48,43,1280196900
56,3,4,T1_SMS_5,167,5,42,127,1280203068
56,3,4,T1_SMS_5,168,1,48,34,1280674748
56,3,4,T1_SMS_5,169,5,42,127,1280702760
56,3,4,T1_SMS_5,170,1,48,35,1281189780
56,3,4,T1_SMS_5,171,5,42,127,1281202680
56,3,4,T1_SMS_5,172,5,42,127,1281703204
56,3,4,T1_SMS_5,173,1,48,39,1281717244
56,3,4,T1_SMS_5,174,1,48,36,1282194328
56,3,4,T1_SMS_5,175,5,42,127,1282202892
56,3,4,T1_SMS_5,176,1,48,31,1282682136
56,3,4,T1_SMS_5,177,5,42,127,1282702588
56,3,4,T1_SMS_5,178,1,48,33,1283187740
56,3,4,T1_SMS_5,179,5,42,127,1283202504
56,3,4,T1_SMS_5,180,1,48,40,1283663264
56,3,4,T1_SMS_5,181,5,42,127,1283703092
56,3,4,T1_SMS_5,182,1,48,29,1284151792
56,3,4,T1_SMS_5,183,5,42,127,1284202788
56,3,4,T1_SMS_5,184,1,48,29,1284619096
56,3,4,T1_SMS_5,185,5,42,127,1284702704
56,3,4,T1_SMS_5,186,1,48,34,1285157464
56,3,4,T1_SMS_5,187,5,42,127,1285203296
56,3,4,T1_SMS_5,188,1,48,35,1285639804
56,3,4,T1_SMS_5,189,5,42,127,1285703040
56,3,4,T1_SMS_5,190,1,48,32,1286151392
56,3,4,T1_SMS_5,191,5,42,127,1286202812
56,3,4,T1_SMS_5,192,1,48,32,1286657744
56,3,4,T1_SMS_5,193,5,42,127,1286702504
56,3,4,T1_SMS_5,194,1,48,28,1287174040
56,3,4,T1_SMS_5,195,5,42,127,1287203096
56,3,4,T1_SMS_5,196,1,48,30,1287658704
56,3,4,T1_SMS_5,197,5,42,127,1287702792
56,3,4,T1_SMS_5,198,1,48,29,1288143132
56,3,4,T1_SMS_5,199,5,42,127,1288202556
56,3,4,T1_SMS_5,200,1,48,33,1288660404
56,3,4,T1_SMS_5,201,5,42,127,1288703296
56,3,4,T1_SMS_5,202,1,48,33,1289173340
56,3,4,T1_SMS_5,203,5,42,127,1289202916
56,3,4,T1_SMS_5,204,1,48,28,1289655152
56,3,4,T1_SMS_5,205,5,42,127,1289702908
56,3,4,T1_SMS_5,206,1,48,25,1290148492
56,3,4,T1_SMS_5,207,5,42,127,1290202456
56,3,4,T1_SMS_5,208,1,48,30,1290653272
56,3,4,T1_SMS_5,209,5,42,127,1290703272
56,3,4,T1_SMS_5,210,1,48,33,1291139952
56,3,4,T1_SMS_5,211,5,42,127,1291202892
56,3,4,T1_SMS_5,212,1,48,29,1291623568
56,3,4,T1_SMS_5,213,5,42,127,1291702588
56,3,4,T1_SMS_5,214,1,48,28,1292141664
56,3,4,T1_SMS_5,215,5,42,127,1292203552
56,3,4,T1_SMS_5,216,1,48,28,1292659384
56,3,4,T1_SMS_5,217,5,42,127,1292703096
56,3,4,T1_SMS_5,218,1,48,31,1293172612
56,3,4,T1_SMS_5,219,5,42,127,1293202644
56,3,4,T1_SMS_5,220,1,48,29,1293679868
56,3,4,T1_SMS_5,221,5,42,127,1293702488
56,3,4,T1_SMS_5,222,1,48,32,1294187568
56,3,4,T1_SMS_5,223,5,42,127,1294203232
56,3,4,T1_SMS_5,224,1,48,28,1294668088
56,3,4,T1_SMS_5,225,5,42,127,1294703076
56,3,4,T1_SMS_5,226,1,48,29,1295188600
56,3,4,T1_SMS_5,227,5,42,127,1295202620
56,3,4,T1_SMS_5,228,1,48,32,1295691936
56,3,4,T1_SMS_5,229,5,42,127,1295703584
56,3,4,T1_SMS_5,230,1,48,33,1296126848
56,3,4,T1_SMS_5,231,5,42,127,1296203180
56,3,4,T1_SMS_5,232,5,42,127,1296702808
56,3,4,T1_SMS_5,233,1,48,20,1296719788
56,3,4,T1_SMS_5,234,1,48,28,1297201064
56,3,4,T1_SMS_5,235,5,42,127,1297202496
56,3,4,T1_SMS_5,236,1,48,31,1297700888
56,3,4,T1_SMS_5,237,5,42,127,1297703460
56,3,4,T1_SMS_5,238,1,48,32,1298184724
56,3,4,T1_SMS_5,239,5,42,127,1298203008
56,3,4,T1_SMS_5,240,5,42,127,1298702712
56,3,4,T1_SMS_5,241,1,48,29,1298725280
56,3,4,T1_SMS_5,242,1,48,26,1299176640
56,3,4,T1_SMS_5,243,5,42,127,1299202324
56,3,4,T1_SMS_5,244,1,48,30,1299703000
56,3,4,T1_SMS_5,245,5,42,127,1299704484
56,3,4,T1_SMS_5,246,1,48,32,1300202164
56,3,4,T1_SMS_5,247,5,42,127,1300203736
56,3,4,T1_SMS_5,248,1,48,29,1300683048
56,3,4,T1_SMS_5,249,5,42,127,1300702532
56,3,4,T1_SMS_5,250,1,48,29,1301162252
56,3,4,T1_SMS_5,251,5,42,127,1301203568
56,3,4,T1_SMS_5,252,1,48,29,1301680348
56,3,4,T1_SMS_5,253,5,42,127,1301702968
56,3,4,T1_SMS_5,254,1,48,28,1302182284
56,3,4,T1_SMS_5,255,5,42,127,1302202660
56,3,4,T1_SMS_5,256,1,48,27,1302673824
56,3,4,T1_SMS_5,257,5,42,127,1302702432
56,3,4,T1_SMS_5,258,1,48,34,1303190124
56,3,4,T1_SMS_5,259,5,42,127,1303203244
56,3,4,T1_SMS_5,0,9999,9999,9999,1238700088
56,3,4,T1_SMS_5,1,9999,9999,9999,1239200848
56,3,4,T1_SMS_5,2,9999,9999,9999,1239700544
56,3,4,T1_SMS_5,3,9999,9999,9999,1240200308
56,3,4,T1_SMS_5,4,9999,9999,9999,1240700976
56,3,4,T1_SMS_5,5,9999,9999,9999,1241200744
56,3,4,T1_SMS_5,6,9999,9999,9999,1241700440
56,3,4,T1_SMS_5,7,9999,9999,9999,1242200132
56,3,4,T1_SMS_5,8,9999,9999,9999,1242700860
56,3,4,T1_SMS_5,9,9999,9999,9999,1243200600
56,3,4,T1_SMS_5,10,9999,9999,9999,1243700300
56,3,4,T1_SMS_5,11,9999,9999,9999,1244201036
56,3,4,T1_SMS_5,12,9999,9999,9999,1244700732
56,3,4,T1_SMS_5,13,9999,9999,9999,1245200432
56,3,4,T1_SMS_5,14,9999,9999,9999,1245700196
56,3,4,T1_SMS_5,15,9999,9999,9999,1246200944
56,3,4,T1_SMS_5,16,9999,9999,9999,1246700632
56,3,4,T1_SMS_5,17,9999,9999,9999,1247200324
56,3,4,T1_SMS_5,18,9999,9999,9999,1247701068
56,3,4,T1_SMS_5,19,9999,9999,9999,1248200764
56,3,4,T1_SMS_5,20,9999,9999,9999,1248700532
56,3,4,T1_SMS_5,21,9999,9999,9999,1249200228
56,3,4,T1_SMS_5,22,9999,9999,9999,1249700968
56,3,4,T1_SMS_5,23,9999,9999,9999,1250200664
56,3,4,T1_SMS_5,24,9999,9999,9999,1250700360
56,3,4,T1_SMS_5,25,9999,9999,9999,1251200052
56,3,4,T1_SMS_5,26,9999,9999,9999,1251700796
56,3,4,T1_SMS_5,27,9999,9999,9999,1252200500
56,3,4,T1_SMS_5,28,9999,9999,9999,1252700264
56,3,4,T1_SMS_5,29,9999,9999,9999,1253201004
56,3,4,T1_SMS_5,30,9999,9999,9999,1253700672
56,3,4,T1_SMS_5,31,9999,9999,9999,1254200372
56,3,4,T1_SMS_5,32,9999,9999,9999,1254700136
56,3,4,T1_SMS_5,33,9999,9999,9999,1255200884
56,3,4,T1_SMS_5,34,9999,9999,9999,1255700576
56,3,4,T1_SMS_5,35,9999,9999,9999,1256200268
56,3,4,T1_SMS_5,36,9999,9999,9999,1256701008
56,3,4,T1_SMS_5,37,9999,9999,9999,1257200704
56,3,4,T1_SMS_5,38,9999,9999,9999,1257700472
56,3,4,T1_SMS_5,39,9999,9999,9999,1258200168
56,3,4,T1_SMS_5,40,9999,9999,9999,1258700908
56,3,4,T1_SMS_5,41,9999,9999,9999,1259200600
56,3,4,T1_SMS_5,42,9999,9999,9999,1259700304
56,3,4,T1_SMS_5,43,9999,9999,9999,1260201040
56,3,4,T1_SMS_5,44,9999,9999,9999,1260700736
56,3,4,T1_SMS_5,45,9999,9999,9999,1261200504
56,3,4,T1_SMS_5,46,9999,9999,9999,1261700200
56,3,4,T1_SMS_5,47,9999,9999,9999,1262200920
56,3,4,T1_SMS_5,48,9999,9999,9999,1262700616
56,3,4,T1_SMS_5,49,9999,9999,9999,1263200312
56,3,4,T1_SMS_5,50,9999,9999,9999,1263701052
56,3,4,T1_SMS_5,51,9999,9999,9999,1264200796
56,3,4,T1_SMS_5,52,9999,9999,9999,1264700492
56,3,4,T1_SMS_5,53,9999,9999,9999,1265200188
56,3,4,T1_SMS_5,54,9999,9999,9999,1265700932
56,3,4,T1_SMS_5,55,9999,9999,9999,1266200696
56,3,4,T1_SMS_5,56,9999,9999,9999,1266700400
56,3,4,T1_SMS_5,57,9999,9999,9999,1267200092
56,3,4,T1_SMS_5,58,9999,9999,9999,1267700828
56,3,4,T1_SMS_5,59,9999,9999,9999,1268200532
56,3,4,T1_SMS_5,60,9999,9999,9999,1268700224
56,3,4,T1_SMS_5,61,9999,9999,9999,1269200960
56,3,4,T1_SMS_5,62,9999,9999,9999,1269700728
56,3,4,T1_SMS_5,63,9999,9999,9999,1270200424
56,3,4,T1_SMS_5,64,9999,9999,9999,1270700128
56,3,4,T1_SMS_5,65,9999,9999,9999,1271200860
56,3,4,T1_SMS_5,66,9999,9999,9999,1271700556
56,3,4,T1_SMS_5,67,9999,9999,9999,1272200252
56,3,4,T1_SMS_5,68,9999,9999,9999,1272700992
56,3,4,T1_SMS_5,69,9999,9999,9999,1273200760
56,3,4,T1_SMS_5,70,9999,9999,9999,1273700460
56,3,4,T1_SMS_5,71,9999,9999,9999,1274200152
56,3,4,T1_SMS_5,72,9999,9999,9999,1274700868
56,3,4,T1_SMS_5,73,9999,9999,9999,1275200612
56,3,4,T1_SMS_5,74,9999,9999,9999,1275700308
56,3,4,T1_SMS_5,75,9999,9999,9999,1276201056
56,3,4,T1_SMS_5,76,9999,9999,9999,1276700744
56,3,4,T1_SMS_5,77,9999,9999,9999,1277200448
56,3,4,T1_SMS_5,78,9999,9999,9999,1277700216
56,3,4,T1_SMS_5,79,9999,9999,9999,1278200884
56,3,4,T1_SMS_5,80,9999,9999,9999,1278700648
56,3,4,T1_SMS_5,81,9999,9999,9999,1279200348
56,3,4,T1_SMS_5,82,9999,9999,9999,1279701084
56,3,4,T1_SMS_5,83,9999,9999,9999,1280200780
56,3,4,T1_SMS_5,84,9999,9999,9999,1280700476
56,3,4,T1_SMS_5,85,9999,9999,9999,1281200244
56,3,4,T1_SMS_5,86,9999,9999,9999,1281700916
56,3,4,T1_SMS_5,87,9999,9999,9999,1282200680
56,3,4,T1_SMS_5,88,9999,9999,9999,1282700376
56,3,4,T1_SMS_5,89,9999,9999,9999,1283200072
56,3,4,T1_SMS_5,90,9999,9999,9999,1283700804
56,3,4,T1_SMS_5,91,9999,9999,9999,1284200500
56,3,4,T1_SMS_5,92,9999,9999,9999,1284700268
56,3,4,T1_SMS_5,93,9999,9999,9999,1285201012
56,3,4,T1_SMS_5,94,9999,9999,9999,1285700680
56,3,4,T1_SMS_5,95,9999,9999,9999,1286200376
56,3,4,T1_SMS_5,96,9999,9999,9999,1286700144
56,3,4,T1_SMS_5,97,9999,9999,9999,1287200884
56,3,4,T1_SMS_5,98,9999,9999,9999,1287700580
56,3,4,T1_SMS_5,99,9999,9999,9999,1288200268
56,3,4,T1_SMS_5,100,9999,9999,9999,1288701008
56,3,4,T1_SMS_5,101,9999,9999,9999,1289200704
56,3,4,T1_SMS_5,102,9999,9999,9999,1289700472
56,3,4,T1_SMS_5,103,9999,9999,9999,1290200168
56,3,4,T1_SMS_5,104,9999,9999,9999,1290700912
56,3,4,T1_SMS_5,105,9999,9999,9999,1291200604
56,3,4,T1_SMS_5,106,9999,9999,9999,1291700300
56,3,4,T1_SMS_5,107,9999,9999,9999,1292201044
56,3,4,T1_SMS_5,108,9999,9999,9999,1292700736
56,3,4,T1_SMS_5,109,9999,9999,9999,1293200432
56,3,4,T1_SMS_5,110,9999,9999,9999,1293700200
56,3,4,T1_SMS_5,111,9999,9999,9999,1294200944
56,3,4,T1_SMS_5,112,9999,9999,9999,1294700640
56,3,4,T1_SMS_5,113,9999,9999,9999,1295200336
56,3,4,T1_SMS_5,114,9999,9999,9999,1295701076
56,3,4,T1_SMS_5,115,9999,9999,9999,1296200820
56,3,4,T1_SMS_5,116,9999,9999,9999,1296700520
56,3,4,T1_SMS_5,117,9999,9999,9999,1297200216
56,3,4,T1_SMS_5,118,9999,9999,9999,1297700952
56,3,4,T1_SMS_5,119,9999,9999,9999,1298200648
56,3,4,T1_SMS_5,120,9999,9999,9999,1298700352
56,3,4,T1_SMS_5,121,9999,9999,9999,1299200112
56,3,4,T1_SMS_5,122,9999,9999,9999,1299700788
56,3,4,T1_SMS_5,123,9999,9999,9999,1300200556
56,3,4,T1_SMS_5,124,9999,9999,9999,1300700244
56,3,4,T1_SMS_5,125,9999,9999,9999,1301200984
56,3,4,T1_SMS_5,126,9999,9999,9999,1301700680
56,3,4,T1_SMS_5,127,9999,9999,9999,1302200376
56,3,4,T1_SMS_5,128,9999,9999,9999,1302700144
56,3,4,T1_SMS_5,129,9999,9999,9999,1303200884
56,4,2,T1_SMS_8,0,5,42,127,1354724660
56,4,2,T1_SMS_8,1,1,48,41,1355114760
56,4,2,T1_SMS_8,2,5,42,127,1355524320
56,4,2,T1_SMS_8,3,1,48,21,1355704884
56,4,2,T1_SMS_8,4,5,42,127,1356325176
56,4,2,T1_SMS_8,5,1,48,29,1356328444
56,4,2,T1_SMS_8,6,5,42,127,1357125204
56,4,2,T1_SMS_8,7,1,48,35,1357132016
56,4,2,T1_SMS_8,8,5,42,127,1357924816
56,4,2,T1_SMS_8,9,1,48,36,1357984404
56,4,2,T1_SMS_8,10,5,42,127,1358724328
56,4,2,T1_SMS_8,11,1,48,35,1358791172
56,4,2,T1_SMS_8,12,5,42,127,1359525256
56,4,2,T1_SMS_8,13,1,48,36,1359572952
56,4,2,T1_SMS_8,14,5,42,127,1360325212
56,4,2,T1_SMS_8,15,1,48,26,1360346436
56,4,2,T1_SMS_8,16,1,48,30,1361119072
56,4,2,T1_SMS_8,17,5,42,127,1361124640
56,4,2,T1_SMS_8,18,5,42,127,1361924384
56,4,2,T1_SMS_8,19,1,48,34,1361944932
56,4,2,T1_SMS_8,20,1,48,32,1362713008
56,4,2,T1_SMS_8,21,5,42,127,1362725084
56,4,2,T1_SMS_8,22,5,42,127,1363525044
56,4,2,T1_SMS_8,23,1,48,23,1363537468
56,4,2,T1_SMS_8,24,1,48,30,1364289064
56,4,2,T1_SMS_8,25,5,42,127,1364324572
56,4,2,T1_SMS_8,26,1,48,26,1365084852
56,4,2,T1_SMS_8,27,5,42,127,1365124456
56,4,2,T1_SMS_8,28,1,48,29,1365912712
56,4,2,T1_SMS_8,29,5,42,127,1365925160
56,4,2,T1_SMS_8,30,1,48,29,1366700024
56,4,2,T1_SMS_8,31,5,42,127,1366725044
56,4,2,T1_SMS_8,32,1,48,29,1367510608
56,4,2,T1_SMS_8,33,5,42,127,1367524924
56,4,2,T1_SMS_8,34,1,48,21,1368322548
56,4,2,T1_SMS_8,35,5,42,127,1368324360
56,4,2,T1_SMS_8,36,1,48,26,1369111796
56,4,2,T1_SMS_8,37,5,42,127,1369125288
56,4,2,T1_SMS_8,38,1,48,23,1369913772
56,4,2,T1_SMS_8,39,5,42,127,1369925100
56,4,2,T1_SMS_8,40,1,48,24,1370701712
56,4,2,T1_SMS_8,41,5,42,127,1370724860
56,4,2,T1_SMS_8,42,1,48,21,1371499876
56,4,2,T1_SMS_8,43,5,42,127,1371524812
56,4,2,T1_SMS_8,44,1,48,16,1372265424
56,4,2,T1_SMS_8,45,5,42,127,1372325224
56,4,2,T1_SMS_8,46,1,48,24,1373110036
56,4,2,T1_SMS_8,47,5,42,127,1373124880
56,4,2,T1_SMS_8,48,5,42,127,1373924696
56,4,2,T1_SMS_8,49,1,48,25,1373930884
56,4,2,T1_SMS_8,50,1,48,23,1374724876
56,4,2,T1_SMS_8,51,5,42,127,1374726064
56,4,2,T1_SMS_8,52,1,48,19,1375523848
56,4,2,T1_SMS_8,53,5,42,127,1375525424
56,4,2,T1_SMS_8,54,1,48,19,1376308972
56,4,2,T1_SMS_8,55,5,42,127,1376324936
56,4,2,T1_SMS_8,56,1,48,18,1377122736
56,4,2,T1_SMS_8,57,5,42,127,1377124696
56,4,2,T1_SMS_8,58,1,48,17,1377888496
56,4,2,T1_SMS_8,59,5,42,127,1377924356
56,4,2,T1_SMS_8,60,1,48,16,1378690624
56,4,2,T1_SMS_8,61,5,42,127,1378725288
56,4,2,T1_SMS_8,62,5,42,127,1379524952
56,4,2,T1_SMS_8,63,5,42,127,1380324780
56,4,2,T1_SMS_8,64,1,48,25,1381077600
56,4,2,T1_SMS_8,65,5,42,127,1381124676
56,4,2,T1_SMS_8,66,1,48,45,1381868428
56,4,2,T1_SMS_8,67,5,42,127,1381925236
56,4,2,T1_SMS_8,68,1,48,47,1382712668
56,4,2,T1_SMS_8,69,5,42,127,1382724892
56,4,2,T1_SMS_8,70,1,48,35,1383518636
56,4,2,T1_SMS_8,71,5,42,127,1383524580
56,4,2,T1_SMS_8,72,1,48,37,1384306028
56,4,2,T1_SMS_8,73,5,42,127,1384324460
56,4,2,T1_SMS_8,74,1,48,30,1385083692
56,4,2,T1_SMS_8,75,5,42,127,1385125164
56,4,2,T1_SMS_8,76,1,48,31,1385852388
56,4,2,T1_SMS_8,77,5,42,127,1385924972
56,4,2,T1_SMS_8,78,1,48,32,1386655260
56,4,2,T1_SMS_8,79,5,42,127,1386724856
56,4,2,T1_SMS_8,80,1,48,29,1387435696
56,4,2,T1_SMS_8,81,5,42,127,1387524516
56,4,2,T1_SMS_8,82,1,48,32,1388270288
56,4,2,T1_SMS_8,83,5,42,127,1388325296
56,4,2,T1_SMS_8,84,1,48,35,1389046964
56,4,2,T1_SMS_8,85,5,42,127,1389124928
56,4,2,T1_SMS_8,86,1,48,33,1389856792
56,4,2,T1_SMS_8,87,5,42,127,1389924764
56,4,2,T1_SMS_8,88,1,48,35,1390674424
56,4,2,T1_SMS_8,89,5,42,127,1390724644
56,4,2,T1_SMS_8,90,1,48,37,1391461068
56,4,2,T1_SMS_8,91,5,42,127,1391525424
56,4,2,T1_SMS_8,92,1,48,36,1392267908
56,4,2,T1_SMS_8,93,5,42,127,1392324936
56,4,2,T1_SMS_8,94,1,48,36,1393063080
56,4,2,T1_SMS_8,95,5,42,127,1393124740
56,4,2,T1_SMS_8,96,1,48,37,1393840968
56,4,2,T1_SMS_8,97,5,42,127,1393924624
56,4,2,T1_SMS_8,98,1,48,35,1394646464
56,4,2,T1_SMS_8,99,5,42,127,1394725332
56,4,2,T1_SMS_8,100,1,48,39,1395447844
56,4,2,T1_SMS_8,101,5,42,127,1395524916
56,4,2,T1_SMS_8,102,1,48,39,1396222592
56,4,2,T1_SMS_8,103,5,42,127,1396324584
56,4,2,T1_SMS_8,104,1,48,27,1397084208
56,4,2,T1_SMS_8,105,5,42,127,1397124628
56,4,2,T1_SMS_8,106,1,48,39,1397842500
56,4,2,T1_SMS_8,107,5,42,127,1397925332
56,4,2,T1_SMS_8,108,1,48,38,1398703940
56,4,2,T1_SMS_8,109,5,42,127,1398724920
56,4,2,T1_SMS_8,110,1,48,39,1399476752
56,4,2,T1_SMS_8,111,5,42,127,1399524652
56,4,2,T1_SMS_8,112,1,48,29,1400278504
56,4,2,T1_SMS_8,113,5,42,127,1400324388
56,4,2,T1_SMS_8,114,1,48,28,1401086536
56,4,2,T1_SMS_8,115,5,42,127,1401125164
56,4,2,T1_SMS_8,116,1,48,29,1401887844
56,4,2,T1_SMS_8,117,5,42,127,1401925048
56,4,2,T1_SMS_8,118,1,48,34,1402685704
56,4,2,T1_SMS_8,119,5,42,127,1402724660
56,4,2,T1_SMS_8,120,1,48,32,1403475664
56,4,2,T1_SMS_8,121,5,42,127,1403524392
56,4,2,T1_SMS_8,122,5,42,127,1404325180
56,4,2,T1_SMS_8,123,5,42,127,1405124936
56,4,2,T1_SMS_8,124,1,48,39,1405158500
56,4,2,T1_SMS_8,125,5,42,127,1405924668
56,4,2,T1_SMS_8,126,1,48,30,1405949108
56,4,2,T1_SMS_8,127,1,48,29,1406710976
56,4,2,T1_SMS_8,128,5,42,127,1406724396
56,4,2,T1_SMS_8,129,1,48,31,1407478020
56,4,2,T1_SMS_8,130,5,42,127,1407525100
56,4,2,T1_SMS_8,131,1,48,33,1408275808
56,4,2,T1_SMS_8,132,5,42,127,1408325132
56,4,2,T1_SMS_8,133,1,48,32,1409076888
56,4,2,T1_SMS_8,134,5,42,127,1409124664
56,4,2,T1_SMS_8,135,1,48,37,1409862260
56,4,2,T1_SMS_8,136,5,42,127,1409924324
56,4,2,T1_SMS_8,137,1,48,34,1410671512
56,4,2,T1_SMS_8,138,5,42,127,1410725328
56,4,2,T1_SMS_8,139,1,48,35,1411471324
56,4,2,T1_SMS_8,140,5,42,127,1411524912
56,4,2,T1_SMS_8,141,1,48,41,1412252656
56,4,2,T1_SMS_8,142,5,42,127,1412324648
56,4,2,T1_SMS_8,143,1,48,41,1413056500
56,4,2,T1_SMS_8,144,5,42,127,1413124528
56,4,2,T1_SMS_8,145,1,48,37,1413870224
56,4,2,T1_SMS_8,146,5,42,127,1413925308
56,4,2,T1_SMS_8,147,1,48,45,1414671828
56,4,2,T1_SMS_8,148,5,42,127,1414725044
56,4,2,T1_SMS_8,149,1,48,45,1415505172
56,4,2,T1_SMS_8,150,5,42,127,1415524576
56,4,2,T1_SMS_8,151,1,48,41,1416303860
56,4,2,T1_SMS_8,152,5,42,127,1416324312
56,4,2,T1_SMS_8,153,1,48,41,1417105832
56,4,2,T1_SMS_8,154,5,42,127,1417125240
56,4,2,T1_SMS_8,155,1,48,42,1417909232
56,4,2,T1_SMS_8,156,5,42,127,1417925120
56,4,2,T1_SMS_8,157,1,48,34,1418706420
56,4,2,T1_SMS_8,158,5,42,127,1418724780
56,4,2,T1_SMS_8,159,1,48,38,1419502940
56,4,2,T1_SMS_8,160,5,42,127,1419524440
56,4,2,T1_SMS_8,161,1,48,37,1420311872
56,4,2,T1_SMS_8,162,5,42,127,1420325296
56,4,2,T1_SMS_8,163,1,48,35,1421122764
56,4,2,T1_SMS_8,164,5,42,127,1421125028
56,4,2,T1_SMS_8,165,5,42,127,1421924940
56,4,2,T1_SMS_8,166,1,48,39,1421938912
56,4,2,T1_SMS_8,167,1,48,39,1422706012
56,4,2,T1_SMS_8,168,5,42,127,1422724372
56,4,2,T1_SMS_8,169,1,48,43,1423495348
56,4,2,T1_SMS_8,170,5,42,127,1423525372
56,4,2,T1_SMS_8,171,1,48,43,1424313704
56,4,2,T1_SMS_8,172,5,42,127,1424325032
56,4,2,T1_SMS_8,173,5,42,127,1425124996
56,4,2,T1_SMS_8,174,1,48,43,1425142400
56,4,2,T1_SMS_8,175,1,48,41,1425904564
56,4,2,T1_SMS_8,176,5,42,127,1425924424
56,4,2,T1_SMS_8,177,1,48,40,1426702884
56,4,2,T1_SMS_8,178,5,42,127,1426725428
56,4,2,T1_SMS_8,179,1,48,40,1427471948
56,4,2,T1_SMS_8,180,5,42,127,1427524864
56,4,2,T1_SMS_8,181,1,48,45,1428229324
56,4,2,T1_SMS_8,182,5,42,127,1428324968
56,4,2,T1_SMS_8,183,1,48,27,1429051720
56,4,2,T1_SMS_8,184,5,42,127,1429124404
56,4,2,T1_SMS_8,185,1,48,39,1429845120
56,4,2,T1_SMS_8,186,5,42,127,1429925256
56,4,2,T1_SMS_8,187,1,48,43,1430699676
56,4,2,T1_SMS_8,188,5,42,127,1430724916
56,4,2,T1_SMS_8,189,1,48,36,1431514148
56,4,2,T1_SMS_8,190,5,42,127,1431524800
56,4,2,T1_SMS_8,191,5,42,127,1432324464
56,4,2,T1_SMS_8,192,1,48,33,1432342844
56,4,2,T1_SMS_8,193,1,48,39,1433109800
56,4,2,T1_SMS_8,194,5,42,127,1433125164
56,4,2,T1_SMS_8,195,1,48,43,1433883124
56,4,2,T1_SMS_8,196,5,42,127,1433924896
56,4,2,T1_SMS_8,197,1,48,43,1434687196
56,4,2,T1_SMS_8,198,5,42,127,1434724728
56,4,2,T1_SMS_8,199,1,48,41,1435476112
56,4,2,T1_SMS_8,200,5,42,127,1435524684
56,4,2,T1_SMS_8,201,1,48,34,1436264772
56,4,2,T1_SMS_8,202,5,42,127,1436325240
56,4,2,T1_SMS_8,203,1,48,37,1437059496
56,4,2,T1_SMS_8,204,5,42,127,1437124824
56,4,2,T1_SMS_8,205,1,48,36,1437853616
56,4,2,T1_SMS_8,206,5,42,127,1437924708
56,4,2,T1_SMS_8,207,1,48,36,1438665020
56,4,2,T1_SMS_8,208,5,42,127,1438724664
56,4,2,T1_SMS_8,209,1,48,40,1439489736
56,4,2,T1_SMS_8,210,5,42,127,1439525148
56,4,2,T1_SMS_8,211,1,48,38,1440278472
56,4,2,T1_SMS_8,212,5,42,127,1440324884
56,4,2,T1_SMS_8,213,1,48,35,1441073568
56,4,2,T1_SMS_8,214,5,42,127,1441124640
56,4,2,T1_SMS_8,215,1,48,34,1441839420
56,4,2,T1_SMS_8,216,5,42,127,1441924444
56,4,2,T1_SMS_8,217,1,48,34,1442705292
56,4,2,T1_SMS_8,218,5,42,127,1442725152
56,4,2,T1_SMS_8,219,1,48,43,1443501220
56,4,2,T1_SMS_8,220,5,42,127,1443524884
56,4,2,T1_SMS_8,221,1,48,42,1444280152
56,4,2,T1_SMS_8,222,5,42,127,1444324620
56,4,2,T1_SMS_8,223,1,48,39,1445114072
56,4,2,T1_SMS_8,224,5,42,127,1445124424
56,4,2,T1_SMS_8,225,1,48,36,1445897048
56,4,2,T1_SMS_8,226,5,42,127,1445925428
56,4,2,T1_SMS_8,227,1,48,40,1446716456
56,4,2,T1_SMS_8,228,5,42,127,1446724940
56,4,2,T1_SMS_8,229,1,48,34,1447491056
56,4,2,T1_SMS_8,230,5,42,127,1447524696
56,4,2,T1_SMS_8,231,1,48,37,1448281836
56,4,2,T1_SMS_8,232,5,42,127,1448324432
56,4,2,T1_SMS_8,233,1,48,37,1449054568
56,4,2,T1_SMS_8,234,5,42,127,1449125432
56,4,2,T1_SMS_8,235,1,48,33,1449918484
56,4,2,T1_SMS_8,236,5,42,127,1449924868
56,4,2,T1_SMS_8,0,9999,9999,9999,1354722372
56,4,2,T1_SMS_8,1,9999,9999,9999,1355522104
56,4,2,T1_SMS_8,2,9999,9999,9999,1356322888
56,4,2,T1_SMS_8,3,9999,9999,9999,1357122620
56,4,2,T1_SMS_8,4,9999,9999,9999,1357922376
56,4,2,T1_SMS_8,5,9999,9999,9999,1358722112
56,4,2,T1_SMS_8,6,9999,9999,9999,1359522892
56,4,2,T1_SMS_8,7,9999,9999,9999,1360322628
56,4,2,T1_SMS_8,8,9999,9999,9999,1361122352
56,4,2,T1_SMS_8,9,9999,9999,9999,1361922096
56,4,2,T1_SMS_8,10,9999,9999,9999,1362722872
56,4,2,T1_SMS_8,11,9999,9999,9999,1363522608
56,4,2,T1_SMS_8,12,9999,9999,9999,1364322360
56,4,2,T1_SMS_8,13,9999,9999,9999,1365122168
56,4,2,T1_SMS_8,14,9999,9999,9999,1365922872
56,4,2,T1_SMS_8,15,9999,9999,9999,1366722608
56,4,2,T1_SMS_8,16,9999,9999,9999,1367522412
56,4,2,T1_SMS_8,17,9999,9999,9999,1368322096
56,4,2,T1_SMS_8,18,9999,9999,9999,1369122928
56,4,2,T1_SMS_8,19,9999,9999,9999,1369922664
56,4,2,T1_SMS_8,20,9999,9999,9999,1370722424
56,4,2,T1_SMS_8,21,9999,9999,9999,1371522156
56,4,2,T1_SMS_8,22,9999,9999,9999,1372322936
56,4,2,T1_SMS_8,23,9999,9999,9999,1373122668
56,4,2,T1_SMS_8,24,9999,9999,9999,1373922408
56,4,2,T1_SMS_8,25,9999,9999,9999,1374722140
56,4,2,T1_SMS_8,26,9999,9999,9999,1375522920
56,4,2,T1_SMS_8,27,9999,9999,9999,1376322648
56,4,2,T1_SMS_8,28,9999,9999,9999,1377122364
56,4,2,T1_SMS_8,29,9999,9999,9999,1377922144
56,4,2,T1_SMS_8,30,9999,9999,9999,1378722924
56,4,2,T1_SMS_8,31,9999,9999,9999,1379522664
56,4,2,T1_SMS_8,32,9999,9999,9999,1380322420
56,4,2,T1_SMS_8,33,9999,9999,9999,1381122164
56,4,2,T1_SMS_8,34,9999,9999,9999,1381922872
56,4,2,T1_SMS_8,35,9999,9999,9999,1382722608
56,4,2,T1_SMS_8,36,9999,9999,9999,1383522364
56,4,2,T1_SMS_8,37,9999,9999,9999,1384322100
56,4,2,T1_SMS_8,38,9999,9999,9999,1385122876
56,4,2,T1_SMS_8,39,9999,9999,9999,1385922612
56,4,2,T1_SMS_8,40,9999,9999,9999,1386722420
56,4,2,T1_SMS_8,41,9999,9999,9999,1387522152
56,4,2,T1_SMS_8,42,9999,9999,9999,1388322932
56,4,2,T1_SMS_8,43,9999,9999,9999,1389122644
56,4,2,T1_SMS_8,44,9999,9999,9999,1389922400
56,4,2,T1_SMS_8,45,9999,9999,9999,1390722136
56,4,2,T1_SMS_8,46,9999,9999,9999,1391522912
56,4,2,T1_SMS_8,47,9999,9999,9999,1392322648
56,4,2,T1_SMS_8,48,9999,9999,9999,1393122380
56,4,2,T1_SMS_8,49,9999,9999,9999,1393922112
56,4,2,T1_SMS_8,50,9999,9999,9999,1394722896
56,4,2,T1_SMS_8,51,9999,9999,9999,1395522628
56,4,2,T1_SMS_8,52,9999,9999,9999,1396322368
56,4,2,T1_SMS_8,53,9999,9999,9999,1397122116
56,4,2,T1_SMS_8,54,9999,9999,9999,1397922896
56,4,2,T1_SMS_8,55,9999,9999,9999,1398722632
56,4,2,T1_SMS_8,56,9999,9999,9999,1399522364
56,4,2,T1_SMS_8,57,9999,9999,9999,1400322100
56,4,2,T1_SMS_8,58,9999,9999,9999,1401122876
56,4,2,T1_SMS_8,59,9999,9999,9999,1401922612
56,4,2,T1_SMS_8,60,9999,9999,9999,1402722372
56,4,2,T1_SMS_8,61,9999,9999,9999,1403522104
56,4,2,T1_SMS_8,62,9999,9999,9999,1404322892
56,4,2,T1_SMS_8,63,9999,9999,9999,1405122648
56,4,2,T1_SMS_8,64,9999,9999,9999,1405922380
56,4,2,T1_SMS_8,65,9999,9999,9999,1406722108
56,4,2,T1_SMS_8,66,9999,9999,9999,1407522884
56,4,2,T1_SMS_8,67,9999,9999,9999,1408322620
56,4,2,T1_SMS_8,68,9999,9999,9999,1409122380
56,4,2,T1_SMS_8,69,9999,9999,9999,1409922112
56,4,2,T1_SMS_8,70,9999,9999,9999,1410722892
56,4,2,T1_SMS_8,71,9999,9999,9999,1411522624
56,4,2,T1_SMS_8,72,9999,9999,9999,1412322360
56,4,2,T1_SMS_8,73,9999,9999,9999,1413122168
56,4,2,T1_SMS_8,74,9999,9999,9999,1413922872
56,4,2,T1_SMS_8,75,9999,9999,9999,1414722608
56,4,2,T1_SMS_8,76,9999,9999,9999,1415522364
56,4,2,T1_SMS_8,77,9999,9999,9999,1416322100
56,4,2,T1_SMS_8,78,9999,9999,9999,1417122876
56,4,2,T1_SMS_8,79,9999,9999,9999,1417922612
56,4,2,T1_SMS_8,80,9999,9999,9999,1418722420
56,4,2,T1_SMS_8,81,9999,9999,9999,1419522152
56,4,2,T1_SMS_8,82,9999,9999,9999,1420322932
56,4,2,T1_SMS_8,83,9999,9999,9999,1421122628
56,4,2,T1_SMS_8,84,9999,9999,9999,1421922356
56,4,2,T1_SMS_8,85,9999,9999,9999,1422722156
56,4,2,T1_SMS_8,86,9999,9999,9999,1423522936
56,4,2,T1_SMS_8,87,9999,9999,9999,1424322668
56,4,2,T1_SMS_8,88,9999,9999,9999,1425122408
56,4,2,T1_SMS_8,89,9999,9999,9999,1425922136
56,4,2,T1_SMS_8,90,9999,9999,9999,1426722916
56,4,2,T1_SMS_8,91,9999,9999,9999,1427522652
56,4,2,T1_SMS_8,92,9999,9999,9999,1428322384
56,4,2,T1_SMS_8,93,9999,9999,9999,1429122116
56,4,2,T1_SMS_8,94,9999,9999,9999,1429922896
56,4,2,T1_SMS_8,95,9999,9999,9999,1430722628
56,4,2,T1_SMS_8,96,9999,9999,9999,1431522364
56,4,2,T1_SMS_8,97,9999,9999,9999,1432322104
56,4,2,T1_SMS_8,98,9999,9999,9999,1433122876
56,4,2,T1_SMS_8,99,9999,9999,9999,1433922608
56,4,2,T1_SMS_8,100,9999,9999,9999,1434722364
56,4,2,T1_SMS_8,101,9999,9999,9999,1435522100
56,4,2,T1_SMS_8,102,9999,9999,9999,1436322880
56,4,2,T1_SMS_8,103,9999,9999,9999,1437122612
56,4,2,T1_SMS_8,104,9999,9999,9999,1437922420
56,4,2,T1_SMS_8,105,9999,9999,9999,1438722156
56,4,2,T1_SMS_8,106,9999,9999,9999,1439522936
56,4,2,T1_SMS_8,107,9999,9999,9999,1440322668
56,4,2,T1_SMS_8,108,9999,9999,9999,1441122352
56,4,2,T1_SMS_8,109,9999,9999,9999,1441922160
56,4,2,T1_SMS_8,110,9999,9999,9999,1442722864
56,4,2,T1_SMS_8,111,9999,9999,9999,1443522672
56,4,2,T1_SMS_8,112,9999,9999,9999,1444322404
56,4,2,T1_SMS_8,113,9999,9999,9999,1445122136
56,4,2,T1_SMS_8,114,9999,9999,9999,1445922920
56,4,2,T1_SMS_8,115,9999,9999,9999,1446722652
56,4,2,T1_SMS_8,116,9999,9999,9999,1447522408
56,4,2,T1_SMS_8,117,9999,9999,9999,1448322144
56,4,2,T1_SMS_8,118,9999,9999,9999,1449122924
56,4,2,T1_SMS_8,119,9999,9999,9999,1449922656
56,5,21,Ticks_Linear_5,0,5,42,127,1462239548
56,5,21,Ticks_Linear_5,1,5,42,127,1462720096
56,5,21,Ticks_Linear_5,2,1,48,35,1462888600
56,5,21,Ticks_Linear_5,3,5,42,127,1463200248
56,5,21,Ticks_Linear_5,4,1,48,26,1463223588
56,5,21,Ticks_Linear_5,5,5,42,127,1463680252
56,5,21,Ticks_Linear_5,6,1,48,31,1463681220
56,5,21,Ticks_Linear_5,7,1,48,34,1464144256
56,5,21,Ticks_Linear_5,8,5,42,127,1464159504
56,5,21,Ticks_Linear_5,9,1,48,33,1464623860
56,5,21,Ticks_Linear_5,10,5,42,127,1464650216
56,5,21,Ticks_Linear_5,11,1,48,29,1465114344
56,5,21,Ticks_Linear_5,12,5,42,127,1465139556
56,5,21,Ticks_Linear_5,13,1,48,25,1465622812
56,5,21,Ticks_Linear_5,14,5,42,127,1465630192
56,5,21,Ticks_Linear_5,15,5,42,127,1466119568
56,5,21,Ticks_Linear_5,16,1,48,32,1466145592
56,5,21,Ticks_Linear_5,17,1,48,30,1466572780
56,5,21,Ticks_Linear_5,18,5,42,127,1466610120
56,5,21,Ticks_Linear_5,19,1,48,29,1467084536
56,5,21,Ticks_Linear_5,20,5,42,127,1467109896
56,5,21,Ticks_Linear_5,21,1,48,22,1467580576
56,5,21,Ticks_Linear_5,22,5,42,127,1467609520
56,5,21,Ticks_Linear_5,23,1,48,24,1468089332
56,5,21,Ticks_Linear_5,24,5,42,127,1468110340
56,5,21,Ticks_Linear_5,25,1,48,26,1468583636
56,5,21,Ticks_Linear_5,26,5,42,127,1468610040
56,5,21,Ticks_Linear_5,27,1,48,25,1469099516
56,5,21,Ticks_Linear_5,28,5,42,127,1469109816
56,5,21,Ticks_Linear_5,29,1,48,26,1469594868
56,5,21,Ticks_Linear_5,30,5,42,127,1469619552
56,5,21,Ticks_Linear_5,31,1,48,27,1470107000
56,5,21,Ticks_Linear_5,32,5,42,127,1470129512
56,5,21,Ticks_Linear_5,33,1,48,33,1470633284
56,5,21,Ticks_Linear_5,34,5,42,127,1470639620
56,5,21,Ticks_Linear_5,35,5,42,127,1471149512
56,5,21,Ticks_Linear_5,36,1,48,27,1471150996
56,5,21,Ticks_Linear_5,37,1,48,24,1471641148
56,5,21,Ticks_Linear_5,38,5,42,127,1471660360
56,5,21,Ticks_Linear_5,39,1,48,31,1472146232
56,5,21,Ticks_Linear_5,40,5,42,127,1472179532
56,5,21,Ticks_Linear_5,41,1,48,31,1472674168
56,5,21,Ticks_Linear_5,42,5,42,127,1472699896
56,5,21,Ticks_Linear_5,43,1,48,27,1473197692
56,5,21,Ticks_Linear_5,44,5,42,127,1473220120
56,5,21,Ticks_Linear_5,45,1,48,29,1473694384
56,5,21,Ticks_Linear_5,46,5,42,127,1473740188
56,5,21,Ticks_Linear_5,47,1,48,24,1474253996
56,5,21,Ticks_Linear_5,48,5,42,127,1474260332
56,5,21,Ticks_Linear_5,49,1,48,30,1474758348
56,5,21,Ticks_Linear_5,50,5,42,127,1474789984
56,5,21,Ticks_Linear_5,51,1,48,29,1475297740
56,5,21,Ticks_Linear_5,52,5,42,127,1475320164
56,5,21,Ticks_Linear_5,53,1,48,26,1475814272
56,5,21,Ticks_Linear_5,54,5,42,127,1475849520
56,5,21,Ticks_Linear_5,55,1,48,23,1476357188
56,5,21,Ticks_Linear_5,56,5,42,127,1476379996
56,5,21,Ticks_Linear_5,57,1,48,19,1476878760
56,5,21,Ticks_Linear_5,58,5,42,127,1476909352
56,5,21,Ticks_Linear_5,59,1,48,26,1477409236
56,5,21,Ticks_Linear_5,60,5,42,127,1477450040
56,5,21,Ticks_Linear_5,61,1,48,29,1477938744
56,5,21,Ticks_Linear_5,62,5,42,127,1477990024
56,5,21,Ticks_Linear_5,63,1,48,32,1478482196
56,5,21,Ticks_Linear_5,64,5,42,127,1478530388
56,5,21,Ticks_Linear_5,65,1,48,32,1479006828
56,5,21,Ticks_Linear_5,66,5,42,127,1479080188
56,5,21,Ticks_Linear_5,67,1,48,27,1479590112
56,5,21,Ticks_Linear_5,68,5,42,127,1479620032
56,5,21,Ticks_Linear_5,69,1,48,33,1480104408
56,5,21,Ticks_Linear_5,70,5,42,127,1480169980
56,5,21,Ticks_Linear_5,71,1,48,24,1480709108
56,5,21,Ticks_Linear_5,72,5,42,127,1480719928
56,5,21,Ticks_Linear_5,73,1,48,34,1481222212
56,5,21,Ticks_Linear_5,74,5,42,127,1481269656
56,5,21,Ticks_Linear_5,75,5,42,127,1481819484
56,5,21,Ticks_Linear_5,76,1,48,40,1481820448
56,5,21,Ticks_Linear_5,77,5,42,127,1482370332
56,5,21,Ticks_Linear_5,78,1,48,40,1482373968
56,5,21,Ticks_Linear_5,79,5,42,127,1482939900
56,5,21,Ticks_Linear_5,80,1,48,28,1482952528
56,5,21,Ticks_Linear_5,81,1,48,49,1483492268
56,5,21,Ticks_Linear_5,82,5,42,127,1483500024
56,5,21,Ticks_Linear_5,83,5,42,127,1484060016
56,5,21,Ticks_Linear_5,84,1,48,44,1484533776
56,5,21,Ticks_Linear_5,85,5,42,127,1484620188
56,5,21,Ticks_Linear_5,86,1,48,33,1485113304
56,5,21,Ticks_Linear_5,87,5,42,127,1485180248
56,5,21,Ticks_Linear_5,88,1,48,40,1485662312
56,5,21,Ticks_Linear_5,89,5,42,127,1485749820
56,5,21,Ticks_Linear_5,90,1,48,37,1486261908
56,5,21,Ticks_Linear_5,91,5,42,127,1486320060
56,5,21,Ticks_Linear_5,92,1,48,34,1486831180
56,5,21,Ticks_Linear_5,93,5,42,127,1486890304
56,5,21,Ticks_Linear_5,94,1,48,35,1487403960
56,5,21,Ticks_Linear_5,95,5,42,127,1487459672
56,5,21,Ticks_Linear_5,96,5,42,127,1488030148
56,5,21,Ticks_Linear_5,97,1,48,21,1488049676
56,5,21,Ticks_Linear_5,98,1,48,39,1488515792
56,5,21,Ticks_Linear_5,99,5,42,127,1488609672
56,5,21,Ticks_Linear_5,100,5,42,127,1489190184
56,5,21,Ticks_Linear_5,101,1,48,36,1489194424
56,5,21,Ticks_Linear_5,102,1,48,35,1489753364
56,5,21,Ticks_Linear_5,103,5,42,127,1489769952
56,5,21,Ticks_Linear_5,104,1,48,35,1490315364
56,5,21,Ticks_Linear_5,105,5,42,127,1490349556
56,5,21,Ticks_Linear_5,106,1,48,27,1490900888
56,5,21,Ticks_Linear_5,107,5,42,127,1490929988
56,5,21,Ticks_Linear_5,108,1,48,35,1491486856
56,5,21,Ticks_Linear_5,109,5,42,127,1491519928
56,5,21,Ticks_Linear_5,110,1,48,29,1492076144
56,5,21,Ticks_Linear_5,111,5,42,127,1492109816
56,5,21,Ticks_Linear_5,112,1,48,30,1492656648
56,5,21,Ticks_Linear_5,113,5,42,127,1492699680
56,5,21,Ticks_Linear_5,114,1,48,31,1493227728
56,5,21,Ticks_Linear_5,115,5,42,127,1493290516
56,5,21,Ticks_Linear_5,116,1,48,39,1493829296
56,5,21,Ticks_Linear_5,117,5,42,127,1493880180
56,5,21,Ticks_Linear_5,118,1,48,36,1494455844
56,5,21,Ticks_Linear_5,119,5,42,127,1494480156
56,5,21,Ticks_Linear_5,120,1,48,36,1495047520
56,5,21,Ticks_Linear_5,121,5,42,127,1495080424
56,5,21,Ticks_Linear_5,122,1,48,34,1495631936
56,5,21,Ticks_Linear_5,123,5,42,127,1495680572
56,5,21,Ticks_Linear_5,124,1,48,38,1496210940
56,5,21,Ticks_Linear_5,125,5,42,127,1496280624
56,5,21,Ticks_Linear_5,126,1,48,34,1496846176
56,5,21,Ticks_Linear_5,127,5,42,127,1496889660
56,5,21,Ticks_Linear_5,128,1,48,35,1497432256
56,5,21,Ticks_Linear_5,129,5,42,127,1497500068
56,5,21,Ticks_Linear_5,130,1,48,37,1498047572
56,5,21,Ticks_Linear_5,131,5,42,127,1498110596
56,5,21,Ticks_Linear_5,132,1,48,37,1498678636
56,5,21,Ticks_Linear_5,133,5,42,127,1498719512
56,5,21,Ticks_Linear_5,134,1,48,33,1499315544
56,5,21,Ticks_Linear_5,135,5,42,127,1499329968
56,5,21,Ticks_Linear_5,136,1,48,29,1499893128
56,5,21,Ticks_Linear_5,137,5,42,127,1499940276
56,5,21,Ticks_Linear_5,138,1,48,36,1500482468
56,5,21,Ticks_Linear_5,139,5,42,127,1500559796
56,5,21,Ticks_Linear_5,140,1,48,35,1501085960
56,5,21,Ticks_Linear_5,141,5,42,127,1501180720
56,5,21,Ticks_Linear_5,142,1,48,31,1501731768
56,5,21,Ticks_Linear_5,143,5,42,127,1501799760
56,5,21,Ticks_Linear_5,144,1,48,31,1502382988
56,5,21,Ticks_Linear_5,145,5,42,127,1502420624
56,5,21,Ticks_Linear_5,146,1,48,32,1503002736
56,5,21,Ticks_Linear_5,147,5,42,127,1503039848
56,5,21,Ticks_Linear_5,148,1,48,39,1503629248
56,5,21,Ticks_Linear_5,149,5,42,127,1503669504
56,5,21,Ticks_Linear_5,150,1,48,35,1504299808
56,5,21,Ticks_Linear_5,151,5,42,127,1504301376
56,5,21,Ticks_Linear_5,152,1,48,38,1504927388
56,5,21,Ticks_Linear_5,153,5,42,127,1504930352
56,5,21,Ticks_Linear_5,154,5,42,127,1505559844
56,5,21,Ticks_Linear_5,155,1,48,39,1505566176
56,5,21,Ticks_Linear_5,156,1,48,34,1506185328
56,5,21,Ticks_Linear_5,157,5,42,127,1506189644
56,5,21,Ticks_Linear_5,158,5,42,127,1506829840
56,5,21,Ticks_Linear_5,159,1,48,30,1506830804
56,5,21,Ticks_Linear_5,160,1,48,39,1507427232
56,5,21,Ticks_Linear_5,161,5,42,127,1507469596
56,5,21,Ticks_Linear_5,162,1,48,36,1508087416
56,5,21,Ticks_Linear_5,163,5,42,127,1508109556
56,5,21,Ticks_Linear_5,164,1,48,29,1508692960
56,5,21,Ticks_Linear_5,165,5,42,127,1508749620
56,5,21,Ticks_Linear_5,166,1,48,31,1509361688
56,5,21,Ticks_Linear_5,167,5,42,127,1509389808
56,5,21,Ticks_Linear_5,168,1,48,29,1509996876
56,5,21,Ticks_Linear_5,169,5,42,127,1510039832
56,5,21,Ticks_Linear_5,170,1,48,29,1510663048
56,5,21,Ticks_Linear_5,171,5,42,127,1510690424
56,5,21,Ticks_Linear_5,172,1,48,32,1511317264
56,5,21,Ticks_Linear_5,173,5,42,127,1511340376
56,5,21,Ticks_Linear_5,174,1,48,34,1511963520
56,5,21,Ticks_Linear_5,175,5,42,127,1511989552
56,5,21,Ticks_Linear_5,176,1,48,29,1512620812
56,5,21,Ticks_Linear_5,177,5,42,127,1512639724
56,5,21,Ticks_Linear_5,178,1,48,24,1513252388
56,5,21,Ticks_Linear_5,179,5,42,127,1513300456
56,5,21,Ticks_Linear_5,180,1,48,39,1513928400
56,5,21,Ticks_Linear_5,181,5,42,127,1513959740
56,5,21,Ticks_Linear_5,182,1,48,38,1514576168
56,5,21,Ticks_Linear_5,183,5,42,127,1514620320
56,5,21,Ticks_Linear_5,184,1,48,31,1515244216
56,5,21,Ticks_Linear_5,185,5,42,127,1515279684
56,5,21,Ticks_Linear_5,186,1,48,31,1515888784
56,5,21,Ticks_Linear_5,187,5,42,127,1515940264
56,5,21,Ticks_Linear_5,188,1,48,32,1516546188
56,5,21,Ticks_Linear_5,189,5,42,127,1516610036
56,5,21,Ticks_Linear_5,190,1,48,35,1517220380
56,5,21,Ticks_Linear_5,191,5,42,127,1517279580
56,5,21,Ticks_Linear_5,192,1,48,37,1517882732
56,5,21,Ticks_Linear_5,193,5,42,127,1517950196
56,5,21,Ticks_Linear_5,194,1,48,42,1518576552
56,5,21,Ticks_Linear_5,195,5,42,127,1518619964
56,5,21,Ticks_Linear_5,196,1,48,40,1519242760
56,5,21,Ticks_Linear_5,197,5,42,127,1519289984
56,5,21,Ticks_Linear_5,198,1,48,36,1519940940
56,5,21,Ticks_Linear_5,199,5,42,127,1519969512
56,5,21,Ticks_Linear_5,200,1,48,41,1520585240
56,5,21,Ticks_Linear_5,201,5,42,127,1520649616
56,5,21,Ticks_Linear_5,202,1,48,44,1521268228
56,5,21,Ticks_Linear_5,203,5,42,127,1521329596
56,5,21,Ticks_Linear_5,204,5,42,127,1522009580
56,5,21,Ticks_Linear_5,205,1,48,40,1522011520
56,5,21,Ticks_Linear_5,206,1,48,37,1522637504
56,5,21,Ticks_Linear_5,207,5,42,127,1522690572
56,5,21,Ticks_Linear_5,208,1,48,39,1523336360
56,5,21,Ticks_Linear_5,209,5,42,127,1523390096
56,5,21,Ticks_Linear_5,210,1,48,39,1524037524
56,5,21,Ticks_Linear_5,211,5,42,127,1524080184
56,5,21,Ticks_Linear_5,212,1,48,41,1524712844
56,5,21,Ticks_Linear_5,213,5,42,127,1524770176
56,5,21,Ticks_Linear_5,214,1,48,41,1525405848
56,5,21,Ticks_Linear_5,215,5,42,127,1525460412
56,5,21,Ticks_Linear_5,216,1,48,44,1526097732
56,5,21,Ticks_Linear_5,217,5,42,127,1526149456
56,5,21,Ticks_Linear_5,218,1,48,37,1526812588
56,5,21,Ticks_Linear_5,219,5,42,127,1526850024
56,5,21,Ticks_Linear_5,220,1,48,43,1527483952
56,5,21,Ticks_Linear_5,221,5,42,127,1527550424
56,5,21,Ticks_Linear_5,222,1,48,41,1528217936
56,5,21,Ticks_Linear_5,223,5,42,127,1528249648
56,5,21,Ticks_Linear_5,224,5,42,127,1528950152
56,5,21,Ticks_Linear_5,225,1,48,37,1528957680
56,5,21,Ticks_Linear_5,226,1,48,43,1529612756
56,5,21,Ticks_Linear_5,227,5,42,127,1529649644
56,5,21,Ticks_Linear_5,228,1,48,44,1530310636
56,5,21,Ticks_Linear_5,229,5,42,127,1530360104
56,5,21,Ticks_Linear_5,230,1,48,41,1531020348
56,5,21,Ticks_Linear_5,231,5,42,127,1531069884
56,5,21,Ticks_Linear_5,232,1,48,43,1531725256
56,5,21,Ticks_Linear_5,233,5,42,127,1531779592
56,5,21,Ticks_Linear_5,234,1,48,47,1532454408
56,5,21,Ticks_Linear_5,235,5,42,127,1532490124
56,5,21,Ticks_Linear_5,236,1,48,43,1533163292
56,5,21,Ticks_Linear_5,237,5,42,127,1533199808
56,5,21,Ticks_Linear_5,238,1,48,37,1533882816
56,5,21,Ticks_Linear_5,239,5,42,127,1533919704
56,5,21,Ticks_Linear_5,240,1,48,47,1534582116
56,5,21,Ticks_Linear_5,241,5,42,127,1534639448
56,5,21,Ticks_Linear_5,242,1,48,35,1535323724
56,5,21,Ticks_Linear_5,243,5,42,127,1535360240
56,5,21,Ticks_Linear_5,244,1,48,41,1536008924
56,5,21,Ticks_Linear_5,245,5,42,127,1536080352
56,5,21,Ticks_Linear_5,246,1,48,34,1536728224
56,5,21,Ticks_Linear_5,247,5,42,127,1536800148
56,5,21,Ticks_Linear_5,248,1,48,41,1537458228
56,5,21,Ticks_Linear_5,249,5,42,127,1537530224
56,5,21,Ticks_Linear_5,250,1,48,43,1538204468
56,5,21,Ticks_Linear_5,251,5,42,127,1538260456
56,5,21,Ticks_Linear_5,252,1,48,29,1538934848
56,5,21,Ticks_Linear_5,253,5,42,127,1538989636
56,5,21,Ticks_Linear_5,254,1,48,41,1539649808
56,5,21,Ticks_Linear_5,255,5,42,127,1539719788
56,5,21,Ticks_Linear_5,256,5,42,127,1540449652
56,5,21,Ticks_Linear_5,257,1,48,38,1540456512
56,5,21,Ticks_Linear_5,258,1,48,30,1541143560
56,5,21,Ticks_Linear_5,259,5,42,127,1541189980
56,5,21,Ticks_Linear_5,260,1,48,24,1541851544
56,5,21,Ticks_Linear_5,261,5,42,127,1541930220
56,5,21,Ticks_Linear_5,262,1,48,39,1542589712
56,5,21,Ticks_Linear_5,263,5,42,127,1542669880
56,5,21,Ticks_Linear_5,264,1,48,43,1543403208
56,5,21,Ticks_Linear_5,265,5,42,127,1543410144
56,5,21,Ticks_Linear_5,266,1,48,45,1544079600
56,5,21,Ticks_Linear_5,267,5,42,127,1544150480
56,5,21,Ticks_Linear_5,268,1,48,43,1544861128
56,5,21,Ticks_Linear_5,269,5,42,127,1544899884
56,5,21,Ticks_Linear_5,270,1,48,44,1545627756
56,5,21,Ticks_Linear_5,271,5,42,127,1545649508
56,5,21,Ticks_Linear_5,272,1,48,45,1546354004
56,5,21,Ticks_Linear_5,273,5,42,127,1546400104
56,5,21,Ticks_Linear_5,274,1,48,45,1547114712
56,5,21,Ticks_Linear_5,275,5,42,127,1547149728
56,5,21,Ticks_Linear_5,276,1,48,48,1547868836
56,5,21,Ticks_Linear_5,277,5,42,127,1547900252
56,5,21,Ticks_Linear_5,278,1,48,43,1548629912
56,5,21,Ticks_Linear_5,279,5,42,127,1548659984
56,5,21,Ticks_Linear_5,280,1,48,40,1549394732
56,5,21,Ticks_Linear_5,281,5,42,127,1549420016
56,5,21,Ticks_Linear_5,282,1,48,31,1550072668
56,5,21,Ticks_Linear_5,283,5,42,127,1550179736
56,5,21,Ticks_Linear_5,284,1,48,46,1550880864
56,5,21,Ticks_Linear_5,285,5,42,127,1550939712
56,5,21,Ticks_Linear_5,286,1,48,41,1551640968
56,5,21,Ticks_Linear_5,287,5,42,127,1551700564
56,5,21,Ticks_Linear_5,288,1,48,45,1552396048
56,5,21,Ticks_Linear_5,289,5,42,127,1552470560
56,5,21,Ticks_Linear_5,290,1,48,43,1553202672
56,5,21,Ticks_Linear_5,291,5,42,127,1553240332
56,5,21,Ticks_Linear_5,292,1,48,39,1554001444
56,5,21,Ticks_Linear_5,293,5,42,127,1554019832
56,5,21,Ticks_Linear_5,294,1,48,43,1554714868
56,5,21,Ticks_Linear_5,295,5,42,127,1554789752
56,5,21,Ticks_Linear_5,296,1,48,44,1555496464
56,5,21,Ticks_Linear_5,297,5,42,127,1555559892
56,5,21,Ticks_Linear_5,298,1,48,37,1556222208
56,5,21,Ticks_Linear_5,299,5,42,127,1556339984
56,5,21,Ticks_Linear_5,300,1,48,26,1557118356
56,5,21,Ticks_Linear_5,301,5,42,127,1557120320
56,5,21,Ticks_Linear_5,302,1,48,47,1557888112
56,5,21,Ticks_Linear_5,303,5,42,127,1557899604
56,5,21,Ticks_Linear_5,304,1,48,48,1558598564
56,5,21,Ticks_Linear_5,305,5,42,127,1558679928
56,5,21,Ticks_Linear_5,306,1,48,35,1559458216
56,5,21,Ticks_Linear_5,307,5,42,127,1559460404
56,5,21,Ticks_Linear_5,308,1,48,38,1560208872
56,5,21,Ticks_Linear_5,309,5,42,127,1560249572
56,5,21,Ticks_Linear_5,310,1,48,40,1561000356
56,5,21,Ticks_Linear_5,311,5,42,127,1561040456
56,5,21,Ticks_Linear_5,312,1,48,37,1561795876
56,5,21,Ticks_Linear_5,313,5,42,127,1561829624
56,5,21,Ticks_Linear_5,314,1,48,39,1562549256
56,5,21,Ticks_Linear_5,315,5,42,127,1562620284
56,5,21,Ticks_Linear_5,316,1,48,39,1563379604
56,5,21,Ticks_Linear_5,317,5,42,127,1563409676
56,5,21,Ticks_Linear_5,318,1,48,43,1564184560
56,5,21,Ticks_Linear_5,319,5,42,127,1564209476
56,5,21,Ticks_Linear_5,320,1,48,50,1564959728
56,5,21,Ticks_Linear_5,321,5,42,127,1565010196
56,5,21,Ticks_Linear_5,322,1,48,52,1565756296
56,5,21,Ticks_Linear_5,323,5,42,127,1565810216
56,5,21,Ticks_Linear_5,324,1,48,42,1566559356
56,5,21,Ticks_Linear_5,325,5,42,127,1566609716
56,5,21,Ticks_Linear_5,326,1,48,43,1567387224
56,5,21,Ticks_Linear_5,327,5,42,127,1567409440
56,5,21,Ticks_Linear_5,328,1,48,47,1568198940
56,5,21,Ticks_Linear_5,329,5,42,127,1568219420
56,5,21,Ticks_Linear_5,330,5,42,127,1569029484
56,5,21,Ticks_Linear_5,331,1,48,42,1569068704
56,5,21,Ticks_Linear_5,332,1,48,48,1569787812
56,5,21,Ticks_Linear_5,333,5,42,127,1569839536
56,5,21,Ticks_Linear_5,334,1,48,44,1570628616
56,5,21,Ticks_Linear_5,335,5,42,127,1570649392
56,5,21,Ticks_Linear_5,336,1,48,48,1571448108
56,5,21,Ticks_Linear_5,337,5,42,127,1571459376
56,5,21,Ticks_Linear_5,0,9999,9999,9999,1462237252
56,5,21,Ticks_Linear_5,1,9999,9999,9999,1462717500
56,5,21,Ticks_Linear_5,2,9999,9999,9999,1463197800
56,5,21,Ticks_Linear_5,3,9999,9999,9999,1463678028
56,5,21,Ticks_Linear_5,4,9999,9999,9999,1464157280
56,5,21,Ticks_Linear_5,5,9999,9999,9999,1464647768
56,5,21,Ticks_Linear_5,6,9999,9999,9999,1465137260
56,5,21,Ticks_Linear_5,7,9999,9999,9999,1465627744
56,5,21,Ticks_Linear_5,8,9999,9999,9999,1466117192
56,5,21,Ticks_Linear_5,9,9999,9999,9999,1466607672
56,5,21,Ticks_Linear_5,10,9999,9999,9999,1467107448
56,5,21,Ticks_Linear_5,11,9999,9999,9999,1467607148
56,5,21,Ticks_Linear_5,12,9999,9999,9999,1468107896
56,5,21,Ticks_Linear_5,13,9999,9999,9999,1468607596
56,5,21,Ticks_Linear_5,14,9999,9999,9999,1469107292
56,5,21,Ticks_Linear_5,15,9999,9999,9999,1469617252
56,5,21,Ticks_Linear_5,16,9999,9999,9999,1470127212
56,5,21,Ticks_Linear_5,17,9999,9999,9999,1470637172
56,5,21,Ticks_Linear_5,18,9999,9999,9999,1471147136
56,5,21,Ticks_Linear_5,19,9999,9999,9999,1471658064
56,5,21,Ticks_Linear_5,20,9999,9999,9999,1472177232
56,5,21,Ticks_Linear_5,21,9999,9999,9999,1472697452
56,5,21,Ticks_Linear_5,22,9999,9999,9999,1473217596
56,5,21,Ticks_Linear_5,23,9999,9999,9999,1473737816
56,5,21,Ticks_Linear_5,24,9999,9999,9999,1474258032
56,5,21,Ticks_Linear_5,25,9999,9999,9999,1474787388
56,5,21,Ticks_Linear_5,26,9999,9999,9999,1475317864
56,5,21,Ticks_Linear_5,27,9999,9999,9999,1475847220
56,5,21,Ticks_Linear_5,28,9999,9999,9999,1476377700
56,5,21,Ticks_Linear_5,29,9999,9999,9999,1476907128
56,5,21,Ticks_Linear_5,30,9999,9999,9999,1477447740
56,5,21,Ticks_Linear_5,31,9999,9999,9999,1477987428
56,5,21,Ticks_Linear_5,32,9999,9999,9999,1478528092
56,5,21,Ticks_Linear_5,33,9999,9999,9999,1479077964
56,5,21,Ticks_Linear_5,34,9999,9999,9999,1479617656
56,5,21,Ticks_Linear_5,35,9999,9999,9999,1480167532
56,5,21,Ticks_Linear_5,36,9999,9999,9999,1480717408
56,5,21,Ticks_Linear_5,37,9999,9999,9999,1481267280
56,5,21,Ticks_Linear_5,38,9999,9999,9999,1481817184
56,5,21,Ticks_Linear_5,39,9999,9999,9999,1482368108
56,5,21,Ticks_Linear_5,40,9999,9999,9999,1482937452
56,5,21,Ticks_Linear_5,41,9999,9999,9999,1483497576
56,5,21,Ticks_Linear_5,42,9999,9999,9999,1484057716
56,5,21,Ticks_Linear_5,43,9999,9999,9999,1484617816
56,5,21,Ticks_Linear_5,44,9999,9999,9999,1485177952
56,5,21,Ticks_Linear_5,45,9999,9999,9999,1485747296
56,5,21,Ticks_Linear_5,46,9999,9999,9999,1486317688
56,5,21,Ticks_Linear_5,47,9999,9999,9999,1486888008
56,5,21,Ticks_Linear_5,48,9999,9999,9999,1487457376
56,5,21,Ticks_Linear_5,49,9999,9999,9999,1488027700
56,5,21,Ticks_Linear_5,50,9999,9999,9999,1488607300
56,5,21,Ticks_Linear_5,51,9999,9999,9999,1489187960
56,5,21,Ticks_Linear_5,52,9999,9999,9999,1489767508
56,5,21,Ticks_Linear_5,53,9999,9999,9999,1490347112
56,5,21,Ticks_Linear_5,54,9999,9999,9999,1490927688
56,5,21,Ticks_Linear_5,55,9999,9999,9999,1491517552
56,5,21,Ticks_Linear_5,56,9999,9999,9999,1492107368
56,5,21,Ticks_Linear_5,57,9999,9999,9999,1492697156
56,5,21,Ticks_Linear_5,58,9999,9999,9999,1493287996
56,5,21,Ticks_Linear_5,59,9999,9999,9999,1493877884
56,5,21,Ticks_Linear_5,60,9999,9999,9999,1494477932
56,5,21,Ticks_Linear_5,61,9999,9999,9999,1495077980
56,5,21,Ticks_Linear_5,62,9999,9999,9999,1495678052
56,5,21,Ticks_Linear_5,63,9999,9999,9999,1496278100
56,5,21,Ticks_Linear_5,64,9999,9999,9999,1496887360
56,5,21,Ticks_Linear_5,65,9999,9999,9999,1497497696
56,5,21,Ticks_Linear_5,66,9999,9999,9999,1498108000
56,5,21,Ticks_Linear_5,67,9999,9999,9999,1498717288
56,5,21,Ticks_Linear_5,68,9999,9999,9999,1499327596
56,5,21,Ticks_Linear_5,69,9999,9999,9999,1499937900
56,5,21,Ticks_Linear_5,70,9999,9999,9999,1500557424
56,5,21,Ticks_Linear_5,71,9999,9999,9999,1501177916
56,5,21,Ticks_Linear_5,72,9999,9999,9999,1501797460
56,5,21,Ticks_Linear_5,73,9999,9999,9999,1502418028
56,5,21,Ticks_Linear_5,74,9999,9999,9999,1503037548
56,5,21,Ticks_Linear_5,75,9999,9999,9999,1503667280
56,5,21,Ticks_Linear_5,76,9999,9999,9999,1504298112
56,5,21,Ticks_Linear_5,77,9999,9999,9999,1504927832
56,5,21,Ticks_Linear_5,78,9999,9999,9999,1505557620
56,5,21,Ticks_Linear_5,79,9999,9999,9999,1506187344
56,5,21,Ticks_Linear_5,80,9999,9999,9999,1506827392
56,5,21,Ticks_Linear_5,81,9999,9999,9999,1507467372
56,5,21,Ticks_Linear_5,82,9999,9999,9999,1508107336
56,5,21,Ticks_Linear_5,83,9999,9999,9999,1508747324
56,5,21,Ticks_Linear_5,84,9999,9999,9999,1509387360
56,5,21,Ticks_Linear_5,85,9999,9999,9999,1510037608
56,5,21,Ticks_Linear_5,86,9999,9999,9999,1510687828
56,5,21,Ticks_Linear_5,87,9999,9999,9999,1511338076
56,5,21,Ticks_Linear_5,88,9999,9999,9999,1511987252
56,5,21,Ticks_Linear_5,89,9999,9999,9999,1512637500
56,5,21,Ticks_Linear_5,90,9999,9999,9999,1513298008
56,5,21,Ticks_Linear_5,91,9999,9999,9999,1513957444
56,5,21,Ticks_Linear_5,92,9999,9999,9999,1514617948
56,5,21,Ticks_Linear_5,93,9999,9999,9999,1515277384
56,5,21,Ticks_Linear_5,94,9999,9999,9999,1515937892
56,5,21,Ticks_Linear_5,95,9999,9999,9999,1516607588
56,5,21,Ticks_Linear_5,96,9999,9999,9999,1517277284
56,5,21,Ticks_Linear_5,97,9999,9999,9999,1517947972
56,5,21,Ticks_Linear_5,98,9999,9999,9999,1518617668
56,5,21,Ticks_Linear_5,99,9999,9999,9999,1519287384
56,5,21,Ticks_Linear_5,100,9999,9999,9999,1519967292
56,5,21,Ticks_Linear_5,101,9999,9999,9999,1520647244
56,5,21,Ticks_Linear_5,102,9999,9999,9999,1521327224
56,5,21,Ticks_Linear_5,103,9999,9999,9999,1522007132
56,5,21,Ticks_Linear_5,104,9999,9999,9999,1522688124
56,5,21,Ticks_Linear_5,105,9999,9999,9999,1523387504
56,5,21,Ticks_Linear_5,106,9999,9999,9999,1524077664
56,5,21,Ticks_Linear_5,107,9999,9999,9999,1524767804
56,5,21,Ticks_Linear_5,108,9999,9999,9999,1525458040
56,5,21,Ticks_Linear_5,109,9999,9999,9999,1526147156
56,5,21,Ticks_Linear_5,110,9999,9999,9999,1526847552
56,5,21,Ticks_Linear_5,111,9999,9999,9999,1527547976
56,5,21,Ticks_Linear_5,112,9999,9999,9999,1528247352
56,5,21,Ticks_Linear_5,113,9999,9999,9999,1528947776
56,5,21,Ticks_Linear_5,114,9999,9999,9999,1529647196
56,5,21,Ticks_Linear_5,115,9999,9999,9999,1530357880
56,5,21,Ticks_Linear_5,116,9999,9999,9999,1531067512
56,5,21,Ticks_Linear_5,117,9999,9999,9999,1531777148
56,5,21,Ticks_Linear_5,118,9999,9999,9999,1532487752
56,5,21,Ticks_Linear_5,119,9999,9999,9999,1533197436
56,5,21,Ticks_Linear_5,120,9999,9999,9999,1533917256
56,5,21,Ticks_Linear_5,121,9999,9999,9999,1534637148
56,5,21,Ticks_Linear_5,122,9999,9999,9999,1535358016
56,5,21,Ticks_Linear_5,123,9999,9999,9999,1536077908
56,5,21,Ticks_Linear_5,124,9999,9999,9999,1536797776
56,5,21,Ticks_Linear_5,125,9999,9999,9999,1537527928
56,5,21,Ticks_Linear_5,126,9999,9999,9999,1538258008
56,5,21,Ticks_Linear_5,127,9999,9999,9999,1538987112
56,5,21,Ticks_Linear_5,128,9999,9999,9999,1539717192
56,5,21,Ticks_Linear_5,129,9999,9999,9999,1540447352
56,5,21,Ticks_Linear_5,130,9999,9999,9999,1541187684
56,5,21,Ticks_Linear_5,131,9999,9999,9999,1541927996
56,5,21,Ticks_Linear_5,132,9999,9999,9999,1542667356
56,5,21,Ticks_Linear_5,133,9999,9999,9999,1543407696
56,5,21,Ticks_Linear_5,134,9999,9999,9999,1544148032
56,5,21,Ticks_Linear_5,135,9999,9999,9999,1544897660
56,5,21,Ticks_Linear_5,136,9999,9999,9999,1545647212
56,5,21,Ticks_Linear_5,137,9999,9999,9999,1546397808
56,5,21,Ticks_Linear_5,138,9999,9999,9999,1547147356
56,5,21,Ticks_Linear_5,139,9999,9999,9999,1547897952
56,5,21,Ticks_Linear_5,140,9999,9999,9999,1548657760
56,5,21,Ticks_Linear_5,141,9999,9999,9999,1549417572
56,5,21,Ticks_Linear_5,142,9999,9999,9999,1550177364
56,5,21,Ticks_Linear_5,143,9999,9999,9999,1550937188
56,5,21,Ticks_Linear_5,144,9999,9999,9999,1551698044
56,5,21,Ticks_Linear_5,145,9999,9999,9999,1552468040
56,5,21,Ticks_Linear_5,146,9999,9999,9999,1553238108
56,5,21,Ticks_Linear_5,147,9999,9999,9999,1554017388
56,5,21,Ticks_Linear_5,148,9999,9999,9999,1554787452
56,5,21,Ticks_Linear_5,149,9999,9999,9999,1555557448
56,5,21,Ticks_Linear_5,150,9999,9999,9999,1556337756
56,5,21,Ticks_Linear_5,151,9999,9999,9999,1557118060
56,5,21,Ticks_Linear_5,152,9999,9999,9999,1557897304
56,5,21,Ticks_Linear_5,153,9999,9999,9999,1558677632
56,5,21,Ticks_Linear_5,154,9999,9999,9999,1559457920
56,5,21,Ticks_Linear_5,155,9999,9999,9999,1560247348
56,5,21,Ticks_Linear_5,156,9999,9999,9999,1561037936
56,5,21,Ticks_Linear_5,157,9999,9999,9999,1561827400
56,5,21,Ticks_Linear_5,158,9999,9999,9999,1562617912
56,5,21,Ticks_Linear_5,159,9999,9999,9999,1563407452
56,5,21,Ticks_Linear_5,160,9999,9999,9999,1564207176
56,5,21,Ticks_Linear_5,161,9999,9999,9999,1565007972
56,5,21,Ticks_Linear_5,162,9999,9999,9999,1565807696
56,5,21,Ticks_Linear_5,163,9999,9999,9999,1566607416
56,5,21,Ticks_Linear_5,164,9999,9999,9999,1567407216
56,5,21,Ticks_Linear_5,165,9999,9999,9999,1568217196
56,5,21,Ticks_Linear_5,166,9999,9999,9999,1569027188
56,5,21,Ticks_Linear_5,167,9999,9999,9999,1569837164
56,5,21,Ticks_Linear_5,168,9999,9999,9999,1570647096
56,5,21,Ticks_Linear_5,169,9999,9999,9999,1571457080
56,6,20,Ticks_Linear_8,0,5,42,127,1583656260
56,6,20,Ticks_Linear_8,1,1,48,22,1583814352
56,6,20,Ticks_Linear_8,2,1,48,36,1584462692
56,6,20,Ticks_Linear_8,3,5,42,127,1584475624
56,6,20,Ticks_Linear_8,4,5,42,127,1585295872
56,6,20,Ticks_Linear_8,5,1,48,48,1585298768
56,6,20,Ticks_Linear_8,6,5,42,127,1586115964
56,6,20,Ticks_Linear_8,7,1,48,43,1586177276
56,6,20,Ticks_Linear_8,8,1,48,39,1586925524
56,6,20,Ticks_Linear_8,9,5,42,127,1586936128
56,6,20,Ticks_Linear_8,10,1,48,35,1587701808
56,6,20,Ticks_Linear_8,11,5,42,127,1587746036
56,6,20,Ticks_Linear_8,12,1,48,32,1588516888
56,6,20,Ticks_Linear_8,13,5,42,127,1588556044
56,6,20,Ticks_Linear_8,14,1,48,39,1589362532
56,6,20,Ticks_Linear_8,15,5,42,127,1589366248
56,6,20,Ticks_Linear_8,16,1,48,38,1590167660
56,6,20,Ticks_Linear_8,17,5,42,127,1590176304
56,6,20,Ticks_Linear_8,18,1,48,45,1590946264
56,6,20,Ticks_Linear_8,19,5,42,127,1590986068
56,6,20,Ticks_Linear_8,20,5,42,127,1591785800
56,6,20,Ticks_Linear_8,21,1,48,44,1591802096
56,6,20,Ticks_Linear_8,22,5,42,127,1592585668
56,6,20,Ticks_Linear_8,23,1,48,42,1592591560
56,6,20,Ticks_Linear_8,24,5,42,127,1593386588
56,6,20,Ticks_Linear_8,25,1,48,46,1593406288
56,6,20,Ticks_Linear_8,26,5,42,127,1594186040
56,6,20,Ticks_Linear_8,27,1,48,39,1594215676
56,6,20,Ticks_Linear_8,28,5,42,127,1594985992
56,6,20,Ticks_Linear_8,29,1,48,50,1594986960
56,6,20,Ticks_Linear_8,30,5,42,127,1595776432
56,6,20,Ticks_Linear_8,31,1,48,42,1595831140
56,6,20,Ticks_Linear_8,32,5,42,127,1596565892
56,6,20,Ticks_Linear_8,33,1,48,50,1596587064
56,6,20,Ticks_Linear_8,34,1,48,55,1597318392
56,6,20,Ticks_Linear_8,35,5,42,127,1597356548
56,6,20,Ticks_Linear_8,36,1,48,55,1598135492
56,6,20,Ticks_Linear_8,37,5,42,127,1598146012
56,6,20,Ticks_Linear_8,38,1,48,44,1598923296
56,6,20,Ticks_Linear_8,39,5,42,127,1598936528
56,6,20,Ticks_Linear_8,40,1,48,51,1599716288
56,6,20,Ticks_Linear_8,41,5,42,127,1599725916
56,6,20,Ticks_Linear_8,42,5,42,127,1600506100
56,6,20,Ticks_Linear_8,43,1,48,55,1600511388
56,6,20,Ticks_Linear_8,44,5,42,127,1601285456
56,6,20,Ticks_Linear_8,45,1,48,52,1601295992
56,6,20,Ticks_Linear_8,46,1,48,54,1602047464
56,6,20,Ticks_Linear_8,47,5,42,127,1602065776
56,6,20,Ticks_Linear_8,48,1,48,53,1602798060
56,6,20,Ticks_Linear_8,49,5,42,127,1602845952
56,6,20,Ticks_Linear_8,50,1,48,56,1603597784
56,6,20,Ticks_Linear_8,51,5,42,127,1603616172
56,6,20,Ticks_Linear_8,52,1,48,38,1604357596
56,6,20,Ticks_Linear_8,53,5,42,127,1604386168
56,6,20,Ticks_Linear_8,54,1,48,58,1605105344
56,6,20,Ticks_Linear_8,55,5,42,127,1605156532
56,6,20,Ticks_Linear_8,56,1,48,48,1605881768
56,6,20,Ticks_Linear_8,57,5,42,127,1605926376
56,6,20,Ticks_Linear_8,58,1,48,44,1606657240
56,6,20,Ticks_Linear_8,59,5,42,127,1606696292
56,6,20,Ticks_Linear_8,60,1,48,48,1607407460
56,6,20,Ticks_Linear_8,61,5,42,127,1607456328
56,6,20,Ticks_Linear_8,62,1,48,51,1608162400
56,6,20,Ticks_Linear_8,63,5,42,127,1608216360
56,6,20,Ticks_Linear_8,64,1,48,51,1608955244
56,6,20,Ticks_Linear_8,65,5,42,127,1608975872
56,6,20,Ticks_Linear_8,66,5,42,127,1609735464
56,6,20,Ticks_Linear_8,67,1,48,51,1609742624
56,6,20,Ticks_Linear_8,68,1,48,44,1610485564
56,6,20,Ticks_Linear_8,69,5,42,127,1610496244
56,6,20,Ticks_Linear_8,70,5,42,127,1611245872
56,6,20,Ticks_Linear_8,71,1,48,55,1611260372
56,6,20,Ticks_Linear_8,72,1,48,58,1611990056
56,6,20,Ticks_Linear_8,73,5,42,127,1611995412
56,6,20,Ticks_Linear_8,74,1,48,58,1612706204
56,6,20,Ticks_Linear_8,75,5,42,127,1612746232
56,6,20,Ticks_Linear_8,76,1,48,61,1613494888
56,6,20,Ticks_Linear_8,77,5,42,127,1613496460
56,6,20,Ticks_Linear_8,78,5,42,127,1614246312
56,6,20,Ticks_Linear_8,79,1,48,49,1614281332
56,6,20,Ticks_Linear_8,80,5,42,127,1614985528
56,6,20,Ticks_Linear_8,81,1,48,48,1615013576
56,6,20,Ticks_Linear_8,82,1,48,54,1615705308
56,6,20,Ticks_Linear_8,83,5,42,127,1615726160
56,6,20,Ticks_Linear_8,84,5,42,127,1616466280
56,6,20,Ticks_Linear_8,85,1,48,49,1616481456
56,6,20,Ticks_Linear_8,86,1,48,55,1617194792
56,6,20,Ticks_Linear_8,87,5,42,127,1617205540
56,6,20,Ticks_Linear_8,88,5,42,127,1617945960
56,6,20,Ticks_Linear_8,89,1,48,57,1617974020
56,6,20,Ticks_Linear_8,90,5,42,127,1618676260
56,6,20,Ticks_Linear_8,91,1,48,59,1618720416
56,6,20,Ticks_Linear_8,92,5,42,127,1619406188
56,6,20,Ticks_Linear_8,93,1,48,45,1619428256
56,6,20,Ticks_Linear_8,94,5,42,127,1620136268
56,6,20,Ticks_Linear_8,95,1,48,48,1620153308
56,6,20,Ticks_Linear_8,96,5,42,127,1620866496
56,6,20,Ticks_Linear_8,97,1,48,43,1620868140
56,6,20,Ticks_Linear_8,98,5,42,127,1621605712
56,6,20,Ticks_Linear_8,99,1,48,57,1621631296
56,6,20,Ticks_Linear_8,100,1,48,57,1622319912
56,6,20,Ticks_Linear_8,101,5,42,127,1622325648
56,6,20,Ticks_Linear_8,102,1,48,53,1623038240
56,6,20,Ticks_Linear_8,103,5,42,127,1623045396
56,6,20,Ticks_Linear_8,104,5,42,127,1623766272
56,6,20,Ticks_Linear_8,105,1,48,50,1623813112
56,6,20,Ticks_Linear_8,106,5,42,127,1624486236
56,6,20,Ticks_Linear_8,107,1,48,50,1624508004
56,6,20,Ticks_Linear_8,108,1,48,40,1625205980
56,6,20,Ticks_Linear_8,109,5,42,127,1625207396
56,6,20,Ticks_Linear_8,110,5,42,127,1625915740
56,6,20,Ticks_Linear_8,111,1,48,44,1625975104
56,6,20,Ticks_Linear_8,112,5,42,127,1626626472
56,6,20,Ticks_Linear_8,113,1,48,45,1626692364
56,6,20,Ticks_Linear_8,114,5,42,127,1627346364
56,6,20,Ticks_Linear_8,115,1,48,35,1627381680
56,6,20,Ticks_Linear_8,116,5,42,127,1628056148
56,6,20,Ticks_Linear_8,117,1,48,34,1628101052
56,6,20,Ticks_Linear_8,118,5,42,127,1628765484
56,6,20,Ticks_Linear_8,119,1,48,40,1628803124
56,6,20,Ticks_Linear_8,120,1,48,44,1629443224
56,6,20,Ticks_Linear_8,121,5,42,127,1629465948
56,6,20,Ticks_Linear_8,122,5,42,127,1630166304
56,6,20,Ticks_Linear_8,123,1,48,34,1630211284
56,6,20,Ticks_Linear_8,124,5,42,127,1630866048
56,6,20,Ticks_Linear_8,125,1,48,43,1630880328
56,6,20,Ticks_Linear_8,126,1,48,36,1631550996
56,6,20,Ticks_Linear_8,127,5,42,127,1631566092
56,6,20,Ticks_Linear_8,128,5,42,127,1632265452
56,6,20,Ticks_Linear_8,129,1,48,45,1632297628
56,6,20,Ticks_Linear_8,130,5,42,127,1632955764
56,6,20,Ticks_Linear_8,131,1,48,44,1632985396
56,6,20,Ticks_Linear_8,132,5,42,127,1633646000
56,6,20,Ticks_Linear_8,133,1,48,51,1633664700
56,6,20,Ticks_Linear_8,134,5,42,127,1634336064
56,6,20,Ticks_Linear_8,135,1,48,49,1634384444
56,6,20,Ticks_Linear_8,136,5,42,127,1635026300
56,6,20,Ticks_Linear_8,137,1,48,45,1635062820
56,6,20,Ticks_Linear_8,138,5,42,127,1635715492
56,6,20,Ticks_Linear_8,139,1,48,32,1635798372
56,6,20,Ticks_Linear_8,140,5,42,127,1636396272
56,6,20,Ticks_Linear_8,141,1,48,39,1636427952
56,6,20,Ticks_Linear_8,142,5,42,127,1637076320
56,6,20,Ticks_Linear_8,143,1,48,44,1637127452
56,6,20,Ticks_Linear_8,144,5,42,127,1637756228
56,6,20,Ticks_Linear_8,145,1,48,43,1637809596
56,6,20,Ticks_Linear_8,146,5,42,127,1638436328
56,6,20,Ticks_Linear_8,147,1,48,38,1638458848
56,6,20,Ticks_Linear_8,148,1,48,36,1639094244
56,6,20,Ticks_Linear_8,149,5,42,127,1639116300
56,6,20,Ticks_Linear_8,150,1,48,32,1639776324
56,6,20,Ticks_Linear_8,151,5,42,127,1639785800
56,6,20,Ticks_Linear_8,152,1,48,42,1640444224
56,6,20,Ticks_Linear_8,153,5,42,127,1640455792
56,6,20,Ticks_Linear_8,154,5,42,127,1641126192
56,6,20,Ticks_Linear_8,155,1,48,41,1641151632
56,6,20,Ticks_Linear_8,156,5,42,127,1641795988
56,6,20,Ticks_Linear_8,157,1,48,38,1641825772
56,6,20,Ticks_Linear_8,158,5,42,127,1642465832
56,6,20,Ticks_Linear_8,159,1,48,43,1642490668
56,6,20,Ticks_Linear_8,160,5,42,127,1643126116
56,6,20,Ticks_Linear_8,161,1,48,38,1643187576
56,6,20,Ticks_Linear_8,162,5,42,127,1643785628
56,6,20,Ticks_Linear_8,163,1,48,39,1643801548
56,6,20,Ticks_Linear_8,164,5,42,127,1644446060
56,6,20,Ticks_Linear_8,165,1,48,28,1644454504
56,6,20,Ticks_Linear_8,166,5,42,127,1645105496
56,6,20,Ticks_Linear_8,167,1,48,40,1645110108
56,6,20,Ticks_Linear_8,168,1,48,48,1645761384
56,6,20,Ticks_Linear_8,169,5,42,127,1645766072
56,6,20,Ticks_Linear_8,170,5,42,127,1646416104
56,6,20,Ticks_Linear_8,171,1,48,43,1646452920
56,6,20,Ticks_Linear_8,172,5,42,127,1647065504
56,6,20,Ticks_Linear_8,173,1,48,46,1647081048
56,6,20,Ticks_Linear_8,174,5,42,127,1647715676
56,6,20,Ticks_Linear_8,175,1,48,46,1647746508
56,6,20,Ticks_Linear_8,176,1,48,47,1648355292
56,6,20,Ticks_Linear_8,177,5,42,127,1648366040
56,6,20,Ticks_Linear_8,178,5,42,127,1649016072
56,6,20,Ticks_Linear_8,179,1,48,39,1649036720
56,6,20,Ticks_Linear_8,180,5,42,127,1649656108
56,6,20,Ticks_Linear_8,181,1,48,36,1649665300
56,6,20,Ticks_Linear_8,182,5,42,127,1650296396
56,6,20,Ticks_Linear_8,183,1,48,50,1650309628
56,6,20,Ticks_Linear_8,184,5,42,127,1650936212
56,6,20,Ticks_Linear_8,185,1,48,52,1650938804
56,6,20,Ticks_Linear_8,186,5,42,127,1651576052
56,6,20,Ticks_Linear_8,187,1,48,53,1651592940
56,6,20,Ticks_Linear_8,188,5,42,127,1652216312
56,6,20,Ticks_Linear_8,189,1,48,54,1652234788
56,6,20,Ticks_Linear_8,190,5,42,127,1652845892
56,6,20,Ticks_Linear_8,191,1,48,48,1652898364
56,6,20,Ticks_Linear_8,192,1,48,54,1653463424
56,6,20,Ticks_Linear_8,193,5,42,127,1653475592
56,6,20,Ticks_Linear_8,194,5,42,127,1654105552
56,6,20,Ticks_Linear_8,195,1,48,46,1654140048
56,6,20,Ticks_Linear_8,196,5,42,127,1654736380
56,6,20,Ticks_Linear_8,197,1,48,39,1654811988
56,6,20,Ticks_Linear_8,198,5,42,127,1655365960
56,6,20,Ticks_Linear_8,199,1,48,47,1655406444
56,6,20,Ticks_Linear_8,200,5,42,127,1655985552
56,6,20,Ticks_Linear_8,201,1,48,43,1656001624
56,6,20,Ticks_Linear_8,202,5,42,127,1656606268
56,6,20,Ticks_Linear_8,203,1,48,48,1656635328
56,6,20,Ticks_Linear_8,204,5,42,127,1657225592
56,6,20,Ticks_Linear_8,205,1,48,34,1657232452
56,6,20,Ticks_Linear_8,206,5,42,127,1657846156
56,6,20,Ticks_Linear_8,207,1,48,43,1657859388
56,6,20,Ticks_Linear_8,208,5,42,127,1658465556
56,6,20,Ticks_Linear_8,209,1,48,45,1658490536
56,6,20,Ticks_Linear_8,210,5,42,127,1659076012
56,6,20,Ticks_Linear_8,211,1,48,46,1659117924
56,6,20,Ticks_Linear_8,212,5,42,127,1659686464
56,6,20,Ticks_Linear_8,213,1,48,52,1659727360
56,6,20,Ticks_Linear_8,214,5,42,127,1660295456
56,6,20,Ticks_Linear_8,215,1,48,53,1660307568
56,6,20,Ticks_Linear_8,216,5,42,127,1660905912
56,6,20,Ticks_Linear_8,217,1,48,51,1660935620
56,6,20,Ticks_Linear_8,218,1,48,51,1661514656
56,6,20,Ticks_Linear_8,219,5,42,127,1661516312
56,6,20,Ticks_Linear_8,220,5,42,127,1662116220
56,6,20,Ticks_Linear_8,221,1,48,41,1662202312
56,6,20,Ticks_Linear_8,222,5,42,127,1662716492
56,6,20,Ticks_Linear_8,223,1,48,47,1662777584
56,6,20,Ticks_Linear_8,224,1,48,47,1663292300
56,6,20,Ticks_Linear_8,225,5,42,127,1663316312
56,6,20,Ticks_Linear_8,226,1,48,50,1663876340
56,6,20,Ticks_Linear_8,227,5,42,127,1663916368
56,6,20,Ticks_Linear_8,228,1,48,45,1664504096
56,6,20,Ticks_Linear_8,229,5,42,127,1664515440
56,6,20,Ticks_Linear_8,230,1,48,47,1665093676
56,6,20,Ticks_Linear_8,231,5,42,127,1665106228
56,6,20,Ticks_Linear_8,232,1,48,44,1665678604
56,6,20,Ticks_Linear_8,233,5,42,127,1665696312
56,6,20,Ticks_Linear_8,234,1,48,41,1666263160
56,6,20,Ticks_Linear_8,235,5,42,127,1666285884
56,6,20,Ticks_Linear_8,236,1,48,43,1666871584
56,6,20,Ticks_Linear_8,237,5,42,127,1666875772
56,6,20,Ticks_Linear_8,238,1,48,46,1667421632
56,6,20,Ticks_Linear_8,239,5,42,127,1667465636
56,6,20,Ticks_Linear_8,240,1,48,46,1668024008
56,6,20,Ticks_Linear_8,241,5,42,127,1668046064
56,6,20,Ticks_Linear_8,242,1,48,44,1668620008
56,6,20,Ticks_Linear_8,243,5,42,127,1668625816
56,6,20,Ticks_Linear_8,244,5,42,127,1669206356
56,6,20,Ticks_Linear_8,245,1,48,51,1669240928
56,6,20,Ticks_Linear_8,246,5,42,127,1669786104
56,6,20,Ticks_Linear_8,247,1,48,42,1669814240
56,6,20,Ticks_Linear_8,248,1,48,40,1670354360
56,6,20,Ticks_Linear_8,249,5,42,127,1670365556
56,6,20,Ticks_Linear_8,250,5,42,127,1670936028
56,6,20,Ticks_Linear_8,251,1,48,41,1670981708
56,6,20,Ticks_Linear_8,252,5,42,127,1671506224
56,6,20,Ticks_Linear_8,253,1,48,46,1671510912
56,6,20,Ticks_Linear_8,254,5,42,127,1672075496
56,6,20,Ticks_Linear_8,255,1,48,46,1672108864
56,6,20,Ticks_Linear_8,256,5,42,127,1672646260
56,6,20,Ticks_Linear_8,257,1,48,20,1672690192
56,6,20,Ticks_Linear_8,258,1,48,48,1673187324
56,6,20,Ticks_Linear_8,259,5,42,127,1673216424
56,6,20,Ticks_Linear_8,260,5,42,127,1673775588
56,6,20,Ticks_Linear_8,261,1,48,52,1673780804
56,6,20,Ticks_Linear_8,262,5,42,127,1674335600
56,6,20,Ticks_Linear_8,263,1,48,49,1674359092
56,6,20,Ticks_Linear_8,264,5,42,127,1674896180
56,6,20,Ticks_Linear_8,265,1,48,45,1674917056
56,6,20,Ticks_Linear_8,266,5,42,127,1675455944
56,6,20,Ticks_Linear_8,267,1,48,41,1675497332
56,6,20,Ticks_Linear_8,268,5,42,127,1676016004
56,6,20,Ticks_Linear_8,269,1,48,49,1676025492
56,6,20,Ticks_Linear_8,270,5,42,127,1676565880
56,6,20,Ticks_Linear_8,271,1,48,46,1676645488
56,6,20,Ticks_Linear_8,272,5,42,127,1677115852
56,6,20,Ticks_Linear_8,273,1,48,43,1677129084
56,6,20,Ticks_Linear_8,274,5,42,127,1677665952
56,6,20,Ticks_Linear_8,275,1,48,41,1677673036
56,6,20,Ticks_Linear_8,276,1,48,41,1678202000
56,6,20,Ticks_Linear_8,277,5,42,127,1678215596
56,6,20,Ticks_Linear_8,278,1,48,39,1678744844
56,6,20,Ticks_Linear_8,279,5,42,127,1678765328
56,6,20,Ticks_Linear_8,280,1,48,41,1679277716
56,6,20,Ticks_Linear_8,281,5,42,127,1679306136
56,6,20,Ticks_Linear_8,282,5,42,127,1679845908
56,6,20,Ticks_Linear_8,283,1,48,44,1679848352
56,6,20,Ticks_Linear_8,284,1,48,47,1680383148
56,6,20,Ticks_Linear_8,285,5,42,127,1680386416
56,6,20,Ticks_Linear_8,286,1,48,47,1680924868
56,6,20,Ticks_Linear_8,287,5,42,127,1680936436
56,6,20,Ticks_Linear_8,288,1,48,48,1681466532
56,6,20,Ticks_Linear_8,289,5,42,127,1681475928
56,6,20,Ticks_Linear_8,290,1,48,48,1682001944
56,6,20,Ticks_Linear_8,291,5,42,127,1682006260
56,6,20,Ticks_Linear_8,292,1,48,45,1682521560
56,6,20,Ticks_Linear_8,293,5,42,127,1682536060
56,6,20,Ticks_Linear_8,294,1,48,47,1683061780
56,6,20,Ticks_Linear_8,295,5,42,127,1683066092
56,6,20,Ticks_Linear_8,296,5,42,127,1683595828
56,6,20,Ticks_Linear_8,297,1,48,40,1683601940
56,6,20,Ticks_Linear_8,298,1,48,43,1684114428
56,6,20,Ticks_Linear_8,299,5,42,127,1684126000
56,6,20,Ticks_Linear_8,300,1,48,47,1684637492
56,6,20,Ticks_Linear_8,301,5,42,127,1684646220
56,6,20,Ticks_Linear_8,302,5,42,127,1685165324
56,6,20,Ticks_Linear_8,303,1,48,50,1685168964
56,6,20,Ticks_Linear_8,304,5,42,127,1685685764
56,6,20,Ticks_Linear_8,305,1,48,31,1685731268
56,6,20,Ticks_Linear_8,306,5,42,127,1686205836
56,6,20,Ticks_Linear_8,307,1,48,45,1686238836
56,6,20,Ticks_Linear_8,308,5,42,127,1686726056
56,6,20,Ticks_Linear_8,309,1,48,48,1686734052
56,6,20,Ticks_Linear_8,310,5,42,127,1687235940
56,6,20,Ticks_Linear_8,311,1,48,48,1687240404
56,6,20,Ticks_Linear_8,312,5,42,127,1687745900
56,6,20,Ticks_Linear_8,313,1,48,49,1687759504
56,6,20,Ticks_Linear_8,314,5,42,127,1688255932
56,6,20,Ticks_Linear_8,315,1,48,46,1688268116
56,6,20,Ticks_Linear_8,316,5,42,127,1688765892
56,6,20,Ticks_Linear_8,317,1,48,42,1688795676
56,6,20,Ticks_Linear_8,318,5,42,127,1689275852
56,6,20,Ticks_Linear_8,319,1,48,40,1689280548
56,6,20,Ticks_Linear_8,320,5,42,127,1689775628
56,6,20,Ticks_Linear_8,321,1,48,46,1689803828
56,6,20,Ticks_Linear_8,322,1,48,43,1690261572
56,6,20,Ticks_Linear_8,323,5,42,127,1690276144
56,6,20,Ticks_Linear_8,324,1,48,43,1690763828
56,6,20,Ticks_Linear_8,325,5,42,127,1690775920
56,6,20,Ticks_Linear_8,326,5,42,127,1691276072
56,6,20,Ticks_Linear_8,327,1,48,47,1691283008
56,6,20,Ticks_Linear_8,328,1,48,45,1691769212
56,6,20,Ticks_Linear_8,329,5,42,127,1691776668
56,6,20,Ticks_Linear_8,330,5,42,127,1692265740
56,6,20,Ticks_Linear_8,331,1,48,46,1692266780
56,6,20,Ticks_Linear_8,332,5,42,127,1692756524
56,6,20,Ticks_Linear_8,333,1,48,43,1692782328
56,6,20,Ticks_Linear_8,334,1,48,45,1693242020
56,6,20,Ticks_Linear_8,335,5,42,127,1693245808
56,6,20,Ticks_Linear_8,336,1,48,43,1693717664
56,6,20,Ticks_Linear_8,337,5,42,127,1693736420
56,6,20,Ticks_Linear_8,338,5,42,127,1694225872
56,6,20,Ticks_Linear_8,339,1,48,30,1694232132
56,6,20,Ticks_Linear_8,0,9999,9999,9999,1583653960
56,6,20,Ticks_Linear_8,1,9999,9999,9999,1584473176
56,6,20,Ticks_Linear_8,2,9999,9999,9999,1585293424
56,6,20,Ticks_Linear_8,3,9999,9999,9999,1586113592
56,6,20,Ticks_Linear_8,4,9999,9999,9999,1586933828
56,6,20,Ticks_Linear_8,5,9999,9999,9999,1587743812
56,6,20,Ticks_Linear_8,6,9999,9999,9999,1588553820
56,6,20,Ticks_Linear_8,7,9999,9999,9999,1589363800
56,6,20,Ticks_Linear_8,8,9999,9999,9999,1590173784
56,6,20,Ticks_Linear_8,9,9999,9999,9999,1590983768
56,6,20,Ticks_Linear_8,10,9999,9999,9999,1591783500
56,6,20,Ticks_Linear_8,11,9999,9999,9999,1592583224
56,6,20,Ticks_Linear_8,12,9999,9999,9999,1593383992
56,6,20,Ticks_Linear_8,13,9999,9999,9999,1594183740
56,6,20,Ticks_Linear_8,14,9999,9999,9999,1594983540
56,6,20,Ticks_Linear_8,15,9999,9999,9999,1595774056
56,6,20,Ticks_Linear_8,16,9999,9999,9999,1596563520
56,6,20,Ticks_Linear_8,17,9999,9999,9999,1597354100
56,6,20,Ticks_Linear_8,18,9999,9999,9999,1598143564
56,6,20,Ticks_Linear_8,19,9999,9999,9999,1598934076
56,6,20,Ticks_Linear_8,20,9999,9999,9999,1599723620
56,6,20,Ticks_Linear_8,21,9999,9999,9999,1600503876
56,6,20,Ticks_Linear_8,22,9999,9999,9999,1601283156
56,6,20,Ticks_Linear_8,23,9999,9999,9999,1602063476
56,6,20,Ticks_Linear_8,24,9999,9999,9999,1602843728
56,6,20,Ticks_Linear_8,25,9999,9999,9999,1603613796
56,6,20,Ticks_Linear_8,26,9999,9999,9999,1604383868
56,6,20,Ticks_Linear_8,27,9999,9999,9999,1605153860
56,6,20,Ticks_Linear_8,28,9999,9999,9999,1605923928
56,6,20,Ticks_Linear_8,29,9999,9999,9999,1606693996
56,6,20,Ticks_Linear_8,30,9999,9999,9999,1607453804
56,6,20,Ticks_Linear_8,31,9999,9999,9999,1608213616
56,6,20,Ticks_Linear_8,32,9999,9999,9999,1608973424
56,6,20,Ticks_Linear_8,33,9999,9999,9999,1609733240
56,6,20,Ticks_Linear_8,34,9999,9999,9999,1610494016
56,6,20,Ticks_Linear_8,35,9999,9999,9999,1611243648
56,6,20,Ticks_Linear_8,36,9999,9999,9999,1611993188
56,6,20,Ticks_Linear_8,37,9999,9999,9999,1612743784
56,6,20,Ticks_Linear_8,38,9999,9999,9999,1613493340
56,6,20,Ticks_Linear_8,39,9999,9999,9999,1614243940
56,6,20,Ticks_Linear_8,40,9999,9999,9999,1614983232
56,6,20,Ticks_Linear_8,41,9999,9999,9999,1615723636
56,6,20,Ticks_Linear_8,42,9999,9999,9999,1616463980
56,6,20,Ticks_Linear_8,43,9999,9999,9999,1617203316
56,6,20,Ticks_Linear_8,44,9999,9999,9999,1617943660
56,6,20,Ticks_Linear_8,45,9999,9999,9999,1618673736
56,6,20,Ticks_Linear_8,46,9999,9999,9999,1619403888
56,6,20,Ticks_Linear_8,47,9999,9999,9999,1620133968
56,6,20,Ticks_Linear_8,48,9999,9999,9999,1620864124
56,6,20,Ticks_Linear_8,49,9999,9999,9999,1621603412
56,6,20,Ticks_Linear_8,50,9999,9999,9999,1622323276
56,6,20,Ticks_Linear_8,51,9999,9999,9999,1623043172
56,6,20,Ticks_Linear_8,52,9999,9999,9999,1623764044
56,6,20,Ticks_Linear_8,53,9999,9999,9999,1624483936
56,6,20,Ticks_Linear_8,54,9999,9999,9999,1625203832
56,6,20,Ticks_Linear_8,55,9999,9999,9999,1625913440
56,6,20,Ticks_Linear_8,56,9999,9999,9999,1626624096
56,6,20,Ticks_Linear_8,57,9999,9999,9999,1627343988
56,6,20,Ticks_Linear_8,58,9999,9999,9999,1628053624
56,6,20,Ticks_Linear_8,59,9999,9999,9999,1628763260
56,6,20,Ticks_Linear_8,60,9999,9999,9999,1629463652
56,6,20,Ticks_Linear_8,61,9999,9999,9999,1630164080
56,6,20,Ticks_Linear_8,62,9999,9999,9999,1630863452
56,6,20,Ticks_Linear_8,63,9999,9999,9999,1631563868
56,6,20,Ticks_Linear_8,64,9999,9999,9999,1632263228
56,6,20,Ticks_Linear_8,65,9999,9999,9999,1632953464
56,6,20,Ticks_Linear_8,66,9999,9999,9999,1633643628
56,6,20,Ticks_Linear_8,67,9999,9999,9999,1634333764
56,6,20,Ticks_Linear_8,68,9999,9999,9999,1635023928
56,6,20,Ticks_Linear_8,69,9999,9999,9999,1635713120
56,6,20,Ticks_Linear_8,70,9999,9999,9999,1636394044
56,6,20,Ticks_Linear_8,71,9999,9999,9999,1637074024
56,6,20,Ticks_Linear_8,72,9999,9999,9999,1637753928
56,6,20,Ticks_Linear_8,73,9999,9999,9999,1638433880
56,6,20,Ticks_Linear_8,74,9999,9999,9999,1639113852
56,6,20,Ticks_Linear_8,75,9999,9999,9999,1639783500
56,6,20,Ticks_Linear_8,76,9999,9999,9999,1640453196
56,6,20,Ticks_Linear_8,77,9999,9999,9999,1641123896
56,6,20,Ticks_Linear_8,78,9999,9999,9999,1641793616
56,6,20,Ticks_Linear_8,79,9999,9999,9999,1642463312
56,6,20,Ticks_Linear_8,80,9999,9999,9999,1643123816
56,6,20,Ticks_Linear_8,81,9999,9999,9999,1643783256
56,6,20,Ticks_Linear_8,82,9999,9999,9999,1644443760
56,6,20,Ticks_Linear_8,83,9999,9999,9999,1645103196
56,6,20,Ticks_Linear_8,84,9999,9999,9999,1645763700
56,6,20,Ticks_Linear_8,85,9999,9999,9999,1646413880
56,6,20,Ticks_Linear_8,86,9999,9999,9999,1647063128
56,6,20,Ticks_Linear_8,87,9999,9999,9999,1647713376
56,6,20,Ticks_Linear_8,88,9999,9999,9999,1648363592
56,6,20,Ticks_Linear_8,89,9999,9999,9999,1649013844
56,6,20,Ticks_Linear_8,90,9999,9999,9999,1649653884
56,6,20,Ticks_Linear_8,91,9999,9999,9999,1650293872
56,6,20,Ticks_Linear_8,92,9999,9999,9999,1650933836
56,6,20,Ticks_Linear_8,93,9999,9999,9999,1651573824
56,6,20,Ticks_Linear_8,94,9999,9999,9999,1652213864
56,6,20,Ticks_Linear_8,95,9999,9999,9999,1652843592
56,6,20,Ticks_Linear_8,96,9999,9999,9999,1653473368
56,6,20,Ticks_Linear_8,97,9999,9999,9999,1654103104
56,6,20,Ticks_Linear_8,98,9999,9999,9999,1654733932
56,6,20,Ticks_Linear_8,99,9999,9999,9999,1655363660
56,6,20,Ticks_Linear_8,100,9999,9999,9999,1655983180
56,6,20,Ticks_Linear_8,101,9999,9999,9999,1656603744
56,6,20,Ticks_Linear_8,102,9999,9999,9999,1657223292
56,6,20,Ticks_Linear_8,103,9999,9999,9999,1657843784
56,6,20,Ticks_Linear_8,104,9999,9999,9999,1658463328
56,6,20,Ticks_Linear_8,105,9999,9999,9999,1659073636
56,6,20,Ticks_Linear_8,106,9999,9999,9999,1659683944
56,6,20,Ticks_Linear_8,107,9999,9999,9999,1660293232
56,6,20,Ticks_Linear_8,108,9999,9999,9999,1660903540
56,6,20,Ticks_Linear_8,109,9999,9999,9999,1661513796
56,6,20,Ticks_Linear_8,110,9999,9999,9999,1662113848
56,6,20,Ticks_Linear_8,111,9999,9999,9999,1662713972
56,6,20,Ticks_Linear_8,112,9999,9999,9999,1663314016
56,6,20,Ticks_Linear_8,113,9999,9999,9999,1663914064
56,6,20,Ticks_Linear_8,114,9999,9999,9999,1664513140
56,6,20,Ticks_Linear_8,115,9999,9999,9999,1665103928
56,6,20,Ticks_Linear_8,116,9999,9999,9999,1665693792
56,6,20,Ticks_Linear_8,117,9999,9999,9999,1666283584
56,6,20,Ticks_Linear_8,118,9999,9999,9999,1666873400
56,6,20,Ticks_Linear_8,119,9999,9999,9999,1667463260
56,6,20,Ticks_Linear_8,120,9999,9999,9999,1668043840
56,6,20,Ticks_Linear_8,121,9999,9999,9999,1668623444
56,6,20,Ticks_Linear_8,122,9999,9999,9999,1669204056
56,6,20,Ticks_Linear_8,123,9999,9999,9999,1669783660
56,6,20,Ticks_Linear_8,124,9999,9999,9999,1670363256
56,6,20,Ticks_Linear_8,125,9999,9999,9999,1670933584
56,6,20,Ticks_Linear_8,126,9999,9999,9999,1671504000
56,6,20,Ticks_Linear_8,127,9999,9999,9999,1672073268
56,6,20,Ticks_Linear_8,128,9999,9999,9999,1672643664
56,6,20,Ticks_Linear_8,129,9999,9999,9999,1673214048
56,6,20,Ticks_Linear_8,130,9999,9999,9999,1673773140
56,6,20,Ticks_Linear_8,131,9999,9999,9999,1674333300
56,6,20,Ticks_Linear_8,132,9999,9999,9999,1674893436
56,6,20,Ticks_Linear_8,133,9999,9999,9999,1675453496
56,6,20,Ticks_Linear_8,134,9999,9999,9999,1676013632
56,6,20,Ticks_Linear_8,135,9999,9999,9999,1676563580
56,6,20,Ticks_Linear_8,136,9999,9999,9999,1677113404
56,6,20,Ticks_Linear_8,137,9999,9999,9999,1677663356
56,6,20,Ticks_Linear_8,138,9999,9999,9999,1678213224
56,6,20,Ticks_Linear_8,139,9999,9999,9999,1678763100
56,6,20,Ticks_Linear_8,140,9999,9999,9999,1679303764
56,6,20,Ticks_Linear_8,141,9999,9999,9999,1679843384
56,6,20,Ticks_Linear_8,142,9999,9999,9999,1680384116
56,6,20,Ticks_Linear_8,143,9999,9999,9999,1680933988
56,6,20,Ticks_Linear_8,144,9999,9999,9999,1681473628
56,6,20,Ticks_Linear_8,145,9999,9999,9999,1682004032
56,6,20,Ticks_Linear_8,146,9999,9999,9999,1682533460
56,6,20,Ticks_Linear_8,147,9999,9999,9999,1683063868
56,6,20,Ticks_Linear_8,148,9999,9999,9999,1683593304
56,6,20,Ticks_Linear_8,149,9999,9999,9999,1684123776
56,6,20,Ticks_Linear_8,150,9999,9999,9999,1684643920
56,6,20,Ticks_Linear_8,151,9999,9999,9999,1685163100
56,6,20,Ticks_Linear_8,152,9999,9999,9999,1685683316
56,6,20,Ticks_Linear_8,153,9999,9999,9999,1686203460
56,6,20,Ticks_Linear_8,154,9999,9999,9999,1686723680
56,6,20,Ticks_Linear_8,155,9999,9999,9999,1687233640
56,6,20,Ticks_Linear_8,156,9999,9999,9999,1687743600
56,6,20,Ticks_Linear_8,157,9999,9999,9999,1688253560
56,6,20,Ticks_Linear_8,158,9999,9999,9999,1688763520
56,6,20,Ticks_Linear_8,159,9999,9999,9999,1689273404
56,6,20,Ticks_Linear_8,160,9999,9999,9999,1689773180
56,6,20,Ticks_Linear_8,161,9999,9999,9999,1690273844
56,6,20,Ticks_Linear_8,162,9999,9999,9999,1690773620
56,6,20,Ticks_Linear_8,163,9999,9999,9999,1691273328
56,6,20,Ticks_Linear_8,164,9999,9999,9999,1691774068
56,6,20,Ticks_Linear_8,165,9999,9999,9999,1692263516
56,6,20,Ticks_Linear_8,166,9999,9999,9999,1692754000
56,6,20,Ticks_Linear_8,167,9999,9999,9999,1693243512
56,6,20,Ticks_Linear_8,168,9999,9999,9999,1693733972
56,6,20,Ticks_Linear_8,169,9999,9999,9999,1694223424
56,7,23,Ticks_Phase_5,0,5,42,127,1704302876
56,7,23,Ticks_Phase_5,1,5,42,127,1704802660
56,7,23,Ticks_Phase_5,2,1,48,46,1704971584
56,7,23,Ticks_Phase_5,3,5,42,127,1705303544
56,7,23,Ticks_Phase_5,4,1,48,40,1705358332
56,7,23,Ticks_Phase_5,5,1,48,48,1705800340
56,7,23,Ticks_Phase_5,6,5,42,127,1705803000
56,7,23,Ticks_Phase_5,7,1,48,48,1706291260
56,7,23,Ticks_Phase_5,8,5,42,127,1706302688
56,7,23,Ticks_Phase_5,9,1,48,57,1706776636
56,7,23,Ticks_Phase_5,10,5,42,127,1706802504
56,7,23,Ticks_Phase_5,11,1,48,50,1707284336
56,7,23,Ticks_Phase_5,12,5,42,127,1707303388
56,7,23,Ticks_Phase_5,13,1,48,55,1707787468
56,7,23,Ticks_Phase_5,14,5,42,127,1707802928
56,7,23,Ticks_Phase_5,15,1,48,53,1708301564
56,7,23,Ticks_Phase_5,16,5,42,127,1708303060
56,7,23,Ticks_Phase_5,17,5,42,127,1708802312
56,7,23,Ticks_Phase_5,18,1,48,52,1708823400
56,7,23,Ticks_Phase_5,19,1,48,57,1709287956
56,7,23,Ticks_Phase_5,20,5,42,127,1709303340
56,7,23,Ticks_Phase_5,21,1,48,53,1709795512
56,7,23,Ticks_Phase_5,22,5,42,127,1709802728
56,7,23,Ticks_Phase_5,23,5,42,127,1710302500
56,7,23,Ticks_Phase_5,24,1,48,49,1710305240
56,7,23,Ticks_Phase_5,25,5,42,127,1710803308
56,7,23,Ticks_Phase_5,26,1,48,46,1710813168
56,7,23,Ticks_Phase_5,27,5,42,127,1711303144
56,7,23,Ticks_Phase_5,28,1,48,56,1711314728
56,7,23,Ticks_Phase_5,29,1,48,47,1711797780
56,7,23,Ticks_Phase_5,30,5,42,127,1711802604
56,7,23,Ticks_Phase_5,31,5,42,127,1712302372
56,7,23,Ticks_Phase_5,32,1,48,49,1712319188
56,7,23,Ticks_Phase_5,33,5,42,127,1712803108
56,7,23,Ticks_Phase_5,34,1,48,49,1712806596
56,7,23,Ticks_Phase_5,35,5,42,127,1713302944
56,7,23,Ticks_Phase_5,36,1,48,43,1713318716
56,7,23,Ticks_Phase_5,37,5,42,127,1713802560
56,7,23,Ticks_Phase_5,38,1,48,51,1713817956
56,7,23,Ticks_Phase_5,39,1,48,56,1714287156
56,7,23,Ticks_Phase_5,40,5,42,127,1714303436
56,7,23,Ticks_Phase_5,41,5,42,127,1714803204
56,7,23,Ticks_Phase_5,42,1,48,43,1714813888
56,7,23,Ticks_Phase_5,43,1,48,46,1715268256
56,7,23,Ticks_Phase_5,44,5,42,127,1715302812
56,7,23,Ticks_Phase_5,45,5,42,127,1715802432
56,7,23,Ticks_Phase_5,46,1,48,53,1715819028
56,7,23,Ticks_Phase_5,47,5,42,127,1716303316
56,7,23,Ticks_Phase_5,48,1,48,48,1716327632
56,7,23,Ticks_Phase_5,49,5,42,127,1716802780
56,7,23,Ticks_Phase_5,50,1,48,45,1716817504
56,7,23,Ticks_Phase_5,51,5,42,127,1717302592
56,7,23,Ticks_Phase_5,52,1,48,52,1717315296
56,7,23,Ticks_Phase_5,53,5,42,127,1717803304
56,7,23,Ticks_Phase_5,54,1,48,51,1717827188
56,7,23,Ticks_Phase_5,55,1,48,43,1718274044
56,7,23,Ticks_Phase_5,56,5,42,127,1718303356
56,7,23,Ticks_Phase_5,57,5,42,127,1718802904
56,7,23,Ticks_Phase_5,58,1,48,46,1718808192
56,7,23,Ticks_Phase_5,59,1,48,42,1719290788
56,7,23,Ticks_Phase_5,60,5,42,127,1719293300
56,7,23,Ticks_Phase_5,61,5,42,127,1719793216
56,7,23,Ticks_Phase_5,62,1,48,44,1719807644
56,7,23,Ticks_Phase_5,63,1,48,49,1720291316
56,7,23,Ticks_Phase_5,64,5,42,127,1720292748
56,7,23,Ticks_Phase_5,65,5,42,127,1720792296
56,7,23,Ticks_Phase_5,66,1,48,40,1720810384
56,7,23,Ticks_Phase_5,67,1,48,48,1721273676
56,7,23,Ticks_Phase_5,68,5,42,127,1721293320
56,7,23,Ticks_Phase_5,69,1,48,39,1721785420
56,7,23,Ticks_Phase_5,70,5,42,127,1721793156
56,7,23,Ticks_Phase_5,71,1,48,46,1722280012
56,7,23,Ticks_Phase_5,72,5,42,127,1722292552
56,7,23,Ticks_Phase_5,73,1,48,45,1722772964
56,7,23,Ticks_Phase_5,74,5,42,127,1722793360
56,7,23,Ticks_Phase_5,75,1,48,47,1723265308
56,7,23,Ticks_Phase_5,76,5,42,127,1723293048
56,7,23,Ticks_Phase_5,77,1,48,46,1723784320
56,7,23,Ticks_Phase_5,78,5,42,127,1723792884
56,7,23,Ticks_Phase_5,79,5,42,127,1724292356
56,7,23,Ticks_Phase_5,80,1,48,47,1724307608
56,7,23,Ticks_Phase_5,81,5,42,127,1724793240
56,7,23,Ticks_Phase_5,82,1,48,48,1724794576
56,7,23,Ticks_Phase_5,83,1,48,45,1725292780
56,7,23,Ticks_Phase_5,84,5,42,127,1725294116
56,7,23,Ticks_Phase_5,85,5,42,127,1725792540
56,7,23,Ticks_Phase_5,86,1,48,45,1725826064
56,7,23,Ticks_Phase_5,87,5,42,127,1726293352
56,7,23,Ticks_Phase_5,88,1,48,40,1726305980
56,7,23,Ticks_Phase_5,89,5,42,127,1726793040
56,7,23,Ticks_Phase_5,90,1,48,53,1726798928
56,7,23,Ticks_Phase_5,91,5,42,127,1727292876
56,7,23,Ticks_Phase_5,92,1,48,52,1727315760
56,7,23,Ticks_Phase_5,93,1,48,54,1727790344
56,7,23,Ticks_Phase_5,94,5,42,127,1727792384
56,7,23,Ticks_Phase_5,95,5,42,127,1728302488
56,7,23,Ticks_Phase_5,96,1,48,54,1728331928
56,7,23,Ticks_Phase_5,97,1,48,52,1728779816
56,7,23,Ticks_Phase_5,98,5,42,127,1728803220
56,7,23,Ticks_Phase_5,99,1,48,55,1729301472
56,7,23,Ticks_Phase_5,100,5,42,127,1729303132
56,7,23,Ticks_Phase_5,101,5,42,127,1729802676
56,7,23,Ticks_Phase_5,102,1,48,53,1729805268
56,7,23,Ticks_Phase_5,103,5,42,127,1730303412
56,7,23,Ticks_Phase_5,104,1,48,48,1730309820
56,7,23,Ticks_Phase_5,105,5,42,127,1730803100
56,7,23,Ticks_Phase_5,106,1,48,49,1730823448
56,7,23,Ticks_Phase_5,107,5,42,127,1731302788
56,7,23,Ticks_Phase_5,108,1,48,43,1731308004
56,7,23,Ticks_Phase_5,109,5,42,127,1731802476
56,7,23,Ticks_Phase_5,110,1,48,56,1731814732
56,7,23,Ticks_Phase_5,111,1,48,54,1732302912
56,7,23,Ticks_Phase_5,112,5,42,127,1732304252
56,7,23,Ticks_Phase_5,113,5,42,127,1732802824
56,7,23,Ticks_Phase_5,114,1,48,55,1732834552
56,7,23,Ticks_Phase_5,115,5,42,127,1733302588
56,7,23,Ticks_Phase_5,116,1,48,42,1733309820
56,7,23,Ticks_Phase_5,117,1,48,52,1733803100
56,7,23,Ticks_Phase_5,118,5,42,127,1733804512
56,7,23,Ticks_Phase_5,119,5,42,127,1734303160
56,7,23,Ticks_Phase_5,120,1,48,56,1734304800
56,7,23,Ticks_Phase_5,121,5,42,127,1734802924
56,7,23,Ticks_Phase_5,122,1,48,53,1734847532
56,7,23,Ticks_Phase_5,123,1,48,52,1735302388
56,7,23,Ticks_Phase_5,124,5,42,127,1735303724
56,7,23,Ticks_Phase_5,125,5,42,127,1735803344
56,7,23,Ticks_Phase_5,126,1,48,62,1735819792
56,7,23,Ticks_Phase_5,127,1,48,57,1736308912
56,7,23,Ticks_Phase_5,128,5,42,127,1736322280
56,7,23,Ticks_Phase_5,129,1,48,56,1736796248
56,7,23,Ticks_Phase_5,130,5,42,127,1736823236
56,7,23,Ticks_Phase_5,131,5,42,127,1737322856
56,7,23,Ticks_Phase_5,132,1,48,57,1737337060
56,7,23,Ticks_Phase_5,133,1,48,58,1737811056
56,7,23,Ticks_Phase_5,134,5,42,127,1737822760
56,7,23,Ticks_Phase_5,135,5,42,127,1738323280
56,7,23,Ticks_Phase_5,136,1,48,61,1738332172
56,7,23,Ticks_Phase_5,137,5,42,127,1738822968
56,7,23,Ticks_Phase_5,138,1,48,57,1738859108
56,7,23,Ticks_Phase_5,139,1,48,55,1739317428
56,7,23,Ticks_Phase_5,140,5,42,127,1739322848
56,7,23,Ticks_Phase_5,141,5,42,127,1739822668
56,7,23,Ticks_Phase_5,142,1,48,56,1739845808
56,7,23,Ticks_Phase_5,143,5,42,127,1740323104
56,7,23,Ticks_Phase_5,144,1,48,46,1740351716
56,7,23,Ticks_Phase_5,145,1,48,58,1740796020
56,7,23,Ticks_Phase_5,146,5,42,127,1740822860
56,7,23,Ticks_Phase_5,147,1,48,61,1741312340
56,7,23,Ticks_Phase_5,148,5,42,127,1741322848
56,7,23,Ticks_Phase_5,149,5,42,127,1741823440
56,7,23,Ticks_Phase_5,150,1,48,51,1741826112
56,7,23,Ticks_Phase_5,151,1,48,58,1742312088
56,7,23,Ticks_Phase_5,152,5,42,127,1742323196
56,7,23,Ticks_Phase_5,153,5,42,127,1742822668
56,7,23,Ticks_Phase_5,154,1,48,49,1742844960
56,7,23,Ticks_Phase_5,155,5,42,127,1743322580
56,7,23,Ticks_Phase_5,156,1,48,49,1743331696
56,7,23,Ticks_Phase_5,157,5,42,127,1743823312
56,7,23,Ticks_Phase_5,158,1,48,55,1743824576
56,7,23,Ticks_Phase_5,159,5,42,127,1744322856
56,7,23,Ticks_Phase_5,160,1,48,57,1744333464
56,7,23,Ticks_Phase_5,161,5,42,127,1744803148
56,7,23,Ticks_Phase_5,162,1,48,52,1744858684
56,7,23,Ticks_Phase_5,163,5,42,127,1745302912
56,7,23,Ticks_Phase_5,164,1,48,57,1745312028
56,7,23,Ticks_Phase_5,165,5,42,127,1745802672
56,7,23,Ticks_Phase_5,166,1,48,54,1745809080
56,7,23,Ticks_Phase_5,167,1,48,59,1746292588
56,7,23,Ticks_Phase_5,168,5,42,127,1746303548
56,7,23,Ticks_Phase_5,169,1,48,54,1746781120
56,7,23,Ticks_Phase_5,170,5,42,127,1746803016
56,7,23,Ticks_Phase_5,171,5,42,127,1747302708
56,7,23,Ticks_Phase_5,172,1,48,33,1747570272
56,7,23,Ticks_Phase_5,173,5,42,127,1747802472
56,7,23,Ticks_Phase_5,174,1,48,47,1747877556
56,7,23,Ticks_Phase_5,175,1,48,43,1748272372
56,7,23,Ticks_Phase_5,176,5,42,127,1748303200
56,7,23,Ticks_Phase_5,177,1,48,46,1748754460
56,7,23,Ticks_Phase_5,178,5,42,127,1748802888
56,7,23,Ticks_Phase_5,179,1,48,42,1749276760
56,7,23,Ticks_Phase_5,180,5,42,127,1749302576
56,7,23,Ticks_Phase_5,181,1,48,30,1749768356
56,7,23,Ticks_Phase_5,182,5,42,127,1749803584
56,7,23,Ticks_Phase_5,183,1,48,28,1750302676
56,7,23,Ticks_Phase_5,184,5,42,127,1750304168
56,7,23,Ticks_Phase_5,185,5,42,127,1750802744
56,7,23,Ticks_Phase_5,186,1,48,34,1750808552
56,7,23,Ticks_Phase_5,187,5,42,127,1751302508
56,7,23,Ticks_Phase_5,188,1,48,29,1751321732
56,7,23,Ticks_Phase_5,189,1,48,30,1751791080
56,7,23,Ticks_Phase_5,190,5,42,127,1751803456
56,7,23,Ticks_Phase_5,191,1,48,46,1752293756
56,7,23,Ticks_Phase_5,192,5,42,127,1752303072
56,7,23,Ticks_Phase_5,193,5,42,127,1752752520
56,7,23,Ticks_Phase_5,194,1,48,45,1752789852
56,7,23,Ticks_Phase_5,195,1,48,44,1753225288
56,7,23,Ticks_Phase_5,196,5,42,127,1753253468
56,7,23,Ticks_Phase_5,197,1,48,43,1753745416
56,7,23,Ticks_Phase_5,198,5,42,127,1753753008
56,7,23,Ticks_Phase_5,199,1,48,45,1754221144
56,7,23,Ticks_Phase_5,200,5,42,127,1754252772
56,7,23,Ticks_Phase_5,201,1,48,46,1754739320
56,7,23,Ticks_Phase_5,202,5,42,127,1754753580
56,7,23,Ticks_Phase_5,203,1,48,43,1755221492
56,7,23,Ticks_Phase_5,204,5,42,127,1755253044
56,7,23,Ticks_Phase_5,205,1,48,43,1755733460
56,7,23,Ticks_Phase_5,206,5,42,127,1755752808
56,7,23,Ticks_Phase_5,207,1,48,49,1756209824
56,7,23,Ticks_Phase_5,208,5,42,127,1756252420
56,7,23,Ticks_Phase_5,209,1,48,47,1756737024
56,7,23,Ticks_Phase_5,210,5,42,127,1756753452
56,7,23,Ticks_Phase_5,211,1,48,43,1757214748
56,7,23,Ticks_Phase_5,212,5,42,127,1757252992
56,7,23,Ticks_Phase_5,213,1,48,43,1757738244
56,7,23,Ticks_Phase_5,214,5,42,127,1757752604
56,7,23,Ticks_Phase_5,215,1,48,39,1758247968
56,7,23,Ticks_Phase_5,216,5,42,127,1758253612
56,7,23,Ticks_Phase_5,217,1,48,46,1758756712
56,7,23,Ticks_Phase_5,218,5,42,127,1758763488
56,7,23,Ticks_Phase_5,219,1,48,46,1759247716
56,7,23,Ticks_Phase_5,220,5,42,127,1759263324
56,7,23,Ticks_Phase_5,221,1,48,42,1759746284
56,7,23,Ticks_Phase_5,222,5,42,127,1759762712
56,7,23,Ticks_Phase_5,223,1,48,46,1760208972
56,7,23,Ticks_Phase_5,224,5,42,127,1760262548
56,7,23,Ticks_Phase_5,225,1,48,48,1760714132
56,7,23,Ticks_Phase_5,226,5,42,127,1760763432
56,7,23,Ticks_Phase_5,227,1,48,53,1761211580
56,7,23,Ticks_Phase_5,228,5,42,127,1761313356
56,7,23,Ticks_Phase_5,229,1,48,43,1761774312
56,7,23,Ticks_Phase_5,230,5,42,127,1761812984
56,7,23,Ticks_Phase_5,231,1,48,48,1762276096
56,7,23,Ticks_Phase_5,232,5,42,127,1762312524
56,7,23,Ticks_Phase_5,233,1,48,51,1762793384
56,7,23,Ticks_Phase_5,234,5,42,127,1762813408
56,7,23,Ticks_Phase_5,235,1,48,46,1763286408
56,7,23,Ticks_Phase_5,236,5,42,127,1763313096
56,7,23,Ticks_Phase_5,237,5,42,127,1763812644
56,7,23,Ticks_Phase_5,238,1,48,46,1763814508
56,7,23,Ticks_Phase_5,239,5,42,127,1764312480
56,7,23,Ticks_Phase_5,240,1,48,38,1764342792
56,7,23,Ticks_Phase_5,241,1,48,46,1764775656
56,7,23,Ticks_Phase_5,242,5,42,127,1764813284
56,7,23,Ticks_Phase_5,243,1,48,44,1765303436
56,7,23,Ticks_Phase_5,244,5,42,127,1765312972
56,7,23,Ticks_Phase_5,245,1,48,50,1765783728
56,7,23,Ticks_Phase_5,246,5,42,127,1765812584
56,7,23,Ticks_Phase_5,247,1,48,50,1766292776
56,7,23,Ticks_Phase_5,248,5,42,127,1766313392
56,7,23,Ticks_Phase_5,249,1,48,50,1766780544
56,7,23,Ticks_Phase_5,250,5,42,127,1766813080
56,7,23,Ticks_Phase_5,251,1,48,35,1767288924
56,7,23,Ticks_Phase_5,252,5,42,127,1767312696
56,7,23,Ticks_Phase_5,253,1,48,48,1767778504
56,7,23,Ticks_Phase_5,254,5,42,127,1767812384
56,7,23,Ticks_Phase_5,255,1,48,47,1768298480
56,7,23,Ticks_Phase_5,256,5,42,127,1768313116
56,7,23,Ticks_Phase_5,257,1,48,44,1768779520
56,7,23,Ticks_Phase_5,258,5,42,127,1768812956
56,7,23,Ticks_Phase_5,259,1,48,41,1769275992
56,7,23,Ticks_Phase_5,260,5,42,127,1769312568
56,7,23,Ticks_Phase_5,261,1,48,45,1769782652
56,7,23,Ticks_Phase_5,262,5,42,127,1769912816
56,7,23,Ticks_Phase_5,263,5,42,127,1770413348
56,7,23,Ticks_Phase_5,264,1,48,36,1770546548
56,7,23,Ticks_Phase_5,265,1,48,39,1770902516
56,7,23,Ticks_Phase_5,266,5,42,127,1770923440
56,7,23,Ticks_Phase_5,267,1,48,40,1771382212
56,7,23,Ticks_Phase_5,268,5,42,127,1771423052
56,7,23,Ticks_Phase_5,269,1,48,41,1771897472
56,7,23,Ticks_Phase_5,270,5,42,127,1771922740
56,7,23,Ticks_Phase_5,271,1,48,41,1772389744
56,7,23,Ticks_Phase_5,272,5,42,127,1772422432
56,7,23,Ticks_Phase_5,273,1,48,44,1772885468
56,7,23,Ticks_Phase_5,274,5,42,127,1772923388
56,7,23,Ticks_Phase_5,275,1,48,35,1773402536
56,7,23,Ticks_Phase_5,276,5,42,127,1773423004
56,7,23,Ticks_Phase_5,277,1,48,40,1773921036
56,7,23,Ticks_Phase_5,278,5,42,127,1773922544
56,7,23,Ticks_Phase_5,279,1,48,43,1774384432
56,7,23,Ticks_Phase_5,280,5,42,127,1774423500
56,7,23,Ticks_Phase_5,281,1,48,37,1774894076
56,7,23,Ticks_Phase_5,282,5,42,127,1774923116
56,7,23,Ticks_Phase_5,283,1,48,39,1775389416
56,7,23,Ticks_Phase_5,284,5,42,127,1775422876
56,7,23,Ticks_Phase_5,285,5,42,127,1775922400
56,7,23,Ticks_Phase_5,286,1,48,39,1775924208
56,7,23,Ticks_Phase_5,287,5,42,127,1776423360
56,7,23,Ticks_Phase_5,288,1,48,43,1776429100
56,7,23,Ticks_Phase_5,289,1,48,40,1776919932
56,7,23,Ticks_Phase_5,290,5,42,127,1776923112
56,7,23,Ticks_Phase_5,291,5,42,127,1777422660
56,7,23,Ticks_Phase_5,292,1,48,49,1777432072
56,7,23,Ticks_Phase_5,293,1,48,43,1777887560
56,7,23,Ticks_Phase_5,294,5,42,127,1777922416
56,7,23,Ticks_Phase_5,295,1,48,34,1778388296
56,7,23,Ticks_Phase_5,296,5,42,127,1778423148
56,7,23,Ticks_Phase_5,297,5,42,127,1778923144
56,7,23,Ticks_Phase_5,298,1,48,37,1778943120
56,7,23,Ticks_Phase_5,299,5,42,127,1779323304
56,7,23,Ticks_Phase_5,300,1,48,37,1779416140
56,7,23,Ticks_Phase_5,301,5,42,127,1779822992
56,7,23,Ticks_Phase_5,302,1,48,42,1779842296
56,7,23,Ticks_Phase_5,303,1,48,43,1780279580
56,7,23,Ticks_Phase_5,304,5,42,127,1780322600
56,7,23,Ticks_Phase_5,305,1,48,39,1780757904
56,7,23,Ticks_Phase_5,306,5,42,127,1780823336
56,7,23,Ticks_Phase_5,307,1,48,41,1781274368
56,7,23,Ticks_Phase_5,308,5,42,127,1781323024
56,7,23,Ticks_Phase_5,309,1,48,43,1781806852
56,7,23,Ticks_Phase_5,310,5,42,127,1781822784
56,7,23,Ticks_Phase_5,311,1,48,39,1782317548
56,7,23,Ticks_Phase_5,312,5,42,127,1782322524
56,7,23,Ticks_Phase_5,313,1,48,44,1782821372
56,7,23,Ticks_Phase_5,314,5,42,127,1782823184
56,7,23,Ticks_Phase_5,315,1,48,47,1783323248
56,7,23,Ticks_Phase_5,316,5,42,127,1783324660
56,7,23,Ticks_Phase_5,317,5,42,127,1783822792
56,7,23,Ticks_Phase_5,318,1,48,41,1783826808
56,7,23,Ticks_Phase_5,319,1,48,41,1784322776
56,7,23,Ticks_Phase_5,320,5,42,127,1784324040
56,7,23,Ticks_Phase_5,321,1,48,38,1784816960
56,7,23,Ticks_Phase_5,322,5,42,127,1784823204
56,7,23,Ticks_Phase_5,323,5,42,127,1785322828
56,7,23,Ticks_Phase_5,324,1,48,39,1785330132
56,7,23,Ticks_Phase_5,325,1,48,37,1785820696
56,7,23,Ticks_Phase_5,326,5,42,127,1785822584
56,7,23,Ticks_Phase_5,327,5,42,127,1786323324
56,7,23,Ticks_Phase_5,328,1,48,43,1786348308
56,7,23,Ticks_Phase_5,329,1,48,42,1786808144
56,7,23,Ticks_Phase_5,330,5,42,127,1786823080
56,7,23,Ticks_Phase_5,331,1,48,37,1787294652
56,7,23,Ticks_Phase_5,332,5,42,127,1787322620
56,7,23,Ticks_Phase_5,333,1,48,43,1787798012
56,7,23,Ticks_Phase_5,334,5,42,127,1787822608
56,7,23,Ticks_Phase_5,335,1,48,42,1788282504
56,7,23,Ticks_Phase_5,336,5,42,127,1788323120
56,7,23,Ticks_Phase_5,337,1,48,38,1788790716
56,7,23,Ticks_Phase_5,338,5,42,127,1788822880
56,7,23,Ticks_Phase_5,0,9999,9999,9999,1704300664
56,7,23,Ticks_Phase_5,1,9999,9999,9999,1704800372
56,7,23,Ticks_Phase_5,2,9999,9999,9999,1705301108
56,7,23,Ticks_Phase_5,3,9999,9999,9999,1705800788
56,7,23,Ticks_Phase_5,4,9999,9999,9999,1706300476
56,7,23,Ticks_Phase_5,5,9999,9999,9999,1706800216
56,7,23,Ticks_Phase_5,6,9999,9999,9999,1707300952
56,7,23,Ticks_Phase_5,7,9999,9999,9999,1707800640
56,7,23,Ticks_Phase_5,8,9999,9999,9999,1708300408
56,7,23,Ticks_Phase_5,9,9999,9999,9999,1708800100
56,7,23,Ticks_Phase_5,10,9999,9999,9999,1709300828
56,7,23,Ticks_Phase_5,11,9999,9999,9999,1709800516
56,7,23,Ticks_Phase_5,12,9999,9999,9999,1710300288
56,7,23,Ticks_Phase_5,13,9999,9999,9999,1710801020
56,7,23,Ticks_Phase_5,14,9999,9999,9999,1711300708
56,7,23,Ticks_Phase_5,15,9999,9999,9999,1711800392
56,7,23,Ticks_Phase_5,16,9999,9999,9999,1712300084
56,7,23,Ticks_Phase_5,17,9999,9999,9999,1712800820
56,7,23,Ticks_Phase_5,18,9999,9999,9999,1713300584
56,7,23,Ticks_Phase_5,19,9999,9999,9999,1713800272
56,7,23,Ticks_Phase_5,20,9999,9999,9999,1714301000
56,7,23,Ticks_Phase_5,21,9999,9999,9999,1714800696
56,7,23,Ticks_Phase_5,22,9999,9999,9999,1715300452
56,7,23,Ticks_Phase_5,23,9999,9999,9999,1715800144
56,7,23,Ticks_Phase_5,24,9999,9999,9999,1716300880
56,7,23,Ticks_Phase_5,25,9999,9999,9999,1716800568
56,7,23,Ticks_Phase_5,26,9999,9999,9999,1717300308
56,7,23,Ticks_Phase_5,27,9999,9999,9999,1717801016
56,7,23,Ticks_Phase_5,28,9999,9999,9999,1718300772
56,7,23,Ticks_Phase_5,29,9999,9999,9999,1718800468
56,7,23,Ticks_Phase_5,30,9999,9999,9999,1719290936
56,7,23,Ticks_Phase_5,31,9999,9999,9999,1719790708
56,7,23,Ticks_Phase_5,32,9999,9999,9999,1720290392
56,7,23,Ticks_Phase_5,33,9999,9999,9999,1720790084
56,7,23,Ticks_Phase_5,34,9999,9999,9999,1721290812
56,7,23,Ticks_Phase_5,35,9999,9999,9999,1721790576
56,7,23,Ticks_Phase_5,36,9999,9999,9999,1722290264
56,7,23,Ticks_Phase_5,37,9999,9999,9999,1722791000
56,7,23,Ticks_Phase_5,38,9999,9999,9999,1723290684
56,7,23,Ticks_Phase_5,39,9999,9999,9999,1723790448
56,7,23,Ticks_Phase_5,40,9999,9999,9999,1724290144
56,7,23,Ticks_Phase_5,41,9999,9999,9999,1724790880
56,7,23,Ticks_Phase_5,42,9999,9999,9999,1725290568
56,7,23,Ticks_Phase_5,43,9999,9999,9999,1725790328
56,7,23,Ticks_Phase_5,44,9999,9999,9999,1726291064
56,7,23,Ticks_Phase_5,45,9999,9999,9999,1726790752
56,7,23,Ticks_Phase_5,46,9999,9999,9999,1727290440
56,7,23,Ticks_Phase_5,47,9999,9999,9999,1727790136
56,7,23,Ticks_Phase_5,48,9999,9999,9999,1728300124
56,7,23,Ticks_Phase_5,49,9999,9999,9999,1728800856
56,7,23,Ticks_Phase_5,50,9999,9999,9999,1729300552
56,7,23,Ticks_Phase_5,51,9999,9999,9999,1729800316
56,7,23,Ticks_Phase_5,52,9999,9999,9999,1730301048
56,7,23,Ticks_Phase_5,53,9999,9999,9999,1730800740
56,7,23,Ticks_Phase_5,54,9999,9999,9999,1731300428
56,7,23,Ticks_Phase_5,55,9999,9999,9999,1731800192
56,7,23,Ticks_Phase_5,56,9999,9999,9999,1732300924
56,7,23,Ticks_Phase_5,57,9999,9999,9999,1732800612
56,7,23,Ticks_Phase_5,58,9999,9999,9999,1733300300
56,7,23,Ticks_Phase_5,59,9999,9999,9999,1733801036
56,7,23,Ticks_Phase_5,60,9999,9999,9999,1734300796
56,7,23,Ticks_Phase_5,61,9999,9999,9999,1734800488
56,7,23,Ticks_Phase_5,62,9999,9999,9999,1735300172
56,7,23,Ticks_Phase_5,63,9999,9999,9999,1735800908
56,7,23,Ticks_Phase_5,64,9999,9999,9999,1736320064
56,7,23,Ticks_Phase_5,65,9999,9999,9999,1736820800
56,7,23,Ticks_Phase_5,66,9999,9999,9999,1737320568
56,7,23,Ticks_Phase_5,67,9999,9999,9999,1737820252
56,7,23,Ticks_Phase_5,68,9999,9999,9999,1738320992
56,7,23,Ticks_Phase_5,69,9999,9999,9999,1738820684
56,7,23,Ticks_Phase_5,70,9999,9999,9999,1739320412
56,7,23,Ticks_Phase_5,71,9999,9999,9999,1739820156
56,7,23,Ticks_Phase_5,72,9999,9999,9999,1740320892
56,7,23,Ticks_Phase_5,73,9999,9999,9999,1740820572
56,7,23,Ticks_Phase_5,74,9999,9999,9999,1741320264
56,7,23,Ticks_Phase_5,75,9999,9999,9999,1741821004
56,7,23,Ticks_Phase_5,76,9999,9999,9999,1742320760
56,7,23,Ticks_Phase_5,77,9999,9999,9999,1742820456
56,7,23,Ticks_Phase_5,78,9999,9999,9999,1743320144
56,7,23,Ticks_Phase_5,79,9999,9999,9999,1743820876
56,7,23,Ticks_Phase_5,80,9999,9999,9999,1744320568
56,7,23,Ticks_Phase_5,81,9999,9999,9999,1744800860
56,7,23,Ticks_Phase_5,82,9999,9999,9999,1745300548
56,7,23,Ticks_Phase_5,83,9999,9999,9999,1745800312
56,7,23,Ticks_Phase_5,84,9999,9999,9999,1746301040
56,7,23,Ticks_Phase_5,85,9999,9999,9999,1746800728
56,7,23,Ticks_Phase_5,86,9999,9999,9999,1747300420
56,7,23,Ticks_Phase_5,87,9999,9999,9999,1747800184
56,7,23,Ticks_Phase_5,88,9999,9999,9999,1748300912
56,7,23,Ticks_Phase_5,89,9999,9999,9999,1748800600
56,7,23,Ticks_Phase_5,90,9999,9999,9999,1749300340
56,7,23,Ticks_Phase_5,91,9999,9999,9999,1749801072
56,7,23,Ticks_Phase_5,92,9999,9999,9999,1750300768
56,7,23,Ticks_Phase_5,93,9999,9999,9999,1750800460
56,7,23,Ticks_Phase_5,94,9999,9999,9999,1751300220
56,7,23,Ticks_Phase_5,95,9999,9999,9999,1751800948
56,7,23,Ticks_Phase_5,96,9999,9999,9999,1752300636
56,7,23,Ticks_Phase_5,97,9999,9999,9999,1752750156
56,7,23,Ticks_Phase_5,98,9999,9999,9999,1753250884
56,7,23,Ticks_Phase_5,99,9999,9999,9999,1753750648
56,7,23,Ticks_Phase_5,100,9999,9999,9999,1754250336
56,7,23,Ticks_Phase_5,101,9999,9999,9999,1754751072
56,7,23,Ticks_Phase_5,102,9999,9999,9999,1755250756
56,7,23,Ticks_Phase_5,103,9999,9999,9999,1755750520
56,7,23,Ticks_Phase_5,104,9999,9999,9999,1756250208
56,7,23,Ticks_Phase_5,105,9999,9999,9999,1756750944
56,7,23,Ticks_Phase_5,106,9999,9999,9999,1757250632
56,7,23,Ticks_Phase_5,107,9999,9999,9999,1757750392
56,7,23,Ticks_Phase_5,108,9999,9999,9999,1758251104
56,7,23,Ticks_Phase_5,109,9999,9999,9999,1758761052
56,7,23,Ticks_Phase_5,110,9999,9999,9999,1759260740
56,7,23,Ticks_Phase_5,111,9999,9999,9999,1759760500
56,7,23,Ticks_Phase_5,112,9999,9999,9999,1760260188
56,7,23,Ticks_Phase_5,113,9999,9999,9999,1760760924
56,7,23,Ticks_Phase_5,114,9999,9999,9999,1761310848
56,7,23,Ticks_Phase_5,115,9999,9999,9999,1761810552
56,7,23,Ticks_Phase_5,116,9999,9999,9999,1762310240
56,7,23,Ticks_Phase_5,117,9999,9999,9999,1762810972
56,7,23,Ticks_Phase_5,118,9999,9999,9999,1763310660
56,7,23,Ticks_Phase_5,119,9999,9999,9999,1763810432
56,7,23,Ticks_Phase_5,120,9999,9999,9999,1764310120
56,7,23,Ticks_Phase_5,121,9999,9999,9999,1764810848
56,7,23,Ticks_Phase_5,122,9999,9999,9999,1765310536
56,7,23,Ticks_Phase_5,123,9999,9999,9999,1765810296
56,7,23,Ticks_Phase_5,124,9999,9999,9999,1766311032
56,7,23,Ticks_Phase_5,125,9999,9999,9999,1766810720
56,7,23,Ticks_Phase_5,126,9999,9999,9999,1767310408
56,7,23,Ticks_Phase_5,127,9999,9999,9999,1767810172
56,7,23,Ticks_Phase_5,128,9999,9999,9999,1768310904
56,7,23,Ticks_Phase_5,129,9999,9999,9999,1768810596
56,7,23,Ticks_Phase_5,130,9999,9999,9999,1769310284
56,7,23,Ticks_Phase_5,131,9999,9999,9999,1769910380
56,7,23,Ticks_Phase_5,132,9999,9999,9999,1770411060
56,7,23,Ticks_Phase_5,133,9999,9999,9999,1770921076
56,7,23,Ticks_Phase_5,134,9999,9999,9999,1771420764
56,7,23,Ticks_Phase_5,135,9999,9999,9999,1771920456
56,7,23,Ticks_Phase_5,136,9999,9999,9999,1772420220
56,7,23,Ticks_Phase_5,137,9999,9999,9999,1772920952
56,7,23,Ticks_Phase_5,138,9999,9999,9999,1773420644
56,7,23,Ticks_Phase_5,139,9999,9999,9999,1773920336
56,7,23,Ticks_Phase_5,140,9999,9999,9999,1774421064
56,7,23,Ticks_Phase_5,141,9999,9999,9999,1774920828
56,7,23,Ticks_Phase_5,142,9999,9999,9999,1775420516
56,7,23,Ticks_Phase_5,143,9999,9999,9999,1775920188
56,7,23,Ticks_Phase_5,144,9999,9999,9999,1776420924
56,7,23,Ticks_Phase_5,145,9999,9999,9999,1776920676
56,7,23,Ticks_Phase_5,146,9999,9999,9999,1777420372
56,7,23,Ticks_Phase_5,147,9999,9999,9999,1777920128
56,7,23,Ticks_Phase_5,148,9999,9999,9999,1778420864
56,7,23,Ticks_Phase_5,149,9999,9999,9999,1778920556
56,7,23,Ticks_Phase_5,150,9999,9999,9999,1779320944
56,7,23,Ticks_Phase_5,151,9999,9999,9999,1779820632
56,7,23,Ticks_Phase_5,152,9999,9999,9999,1780320312
56,7,23,Ticks_Phase_5,153,9999,9999,9999,1780821048
56,7,23,Ticks_Phase_5,154,9999,9999,9999,1781320812
56,7,23,Ticks_Phase_5,155,9999,9999,9999,1781820500
56,7,23,Ticks_Phase_5,156,9999,9999,9999,1782320236
56,7,23,Ticks_Phase_5,157,9999,9999,9999,1782820920
56,7,23,Ticks_Phase_5,158,9999,9999,9999,1783320664
56,7,23,Ticks_Phase_5,159,9999,9999,9999,1783820352
56,7,23,Ticks_Phase_5,160,9999,9999,9999,1784320116
56,7,23,Ticks_Phase_5,161,9999,9999,9999,1784820844
56,7,23,Ticks_Phase_5,162,9999,9999,9999,1785320540
56,7,23,Ticks_Phase_5,163,9999,9999,9999,1785820244
56,7,23,Ticks_Phase_5,164,9999,9999,9999,1786320964
56,7,23,Ticks_Phase_5,165,9999,9999,9999,1786820720
56,7,23,Ticks_Phase_5,166,9999,9999,9999,1787320408
56,7,23,Ticks_Phase_5,167,9999,9999,9999,1787820096
56,7,23,Ticks_Phase_5,168,9999,9999,9999,1788320832
56,7,23,Ticks_Phase_5,169,9999,9999,9999,1788820596
56,8,22,Ticks_Phase_8,0,5,42,127,1801552208
56,8,22,Ticks_Phase_8,1,1,48,40,1801725544
56,8,22,Ticks_Phase_8,2,5,42,127,1802351844
56,8,22,Ticks_Phase_8,3,1,48,46,1802498740
56,8,22,Ticks_Phase_8,4,5,42,127,1803151704
56,8,22,Ticks_Phase_8,5,1,48,41,1803253300
56,8,22,Ticks_Phase_8,6,5,42,127,1803951416
56,8,22,Ticks_Phase_8,7,1,48,39,1803972060
56,8,22,Ticks_Phase_8,8,1,48,43,1804738056
56,8,22,Ticks_Phase_8,9,5,42,127,1804752316
56,8,22,Ticks_Phase_8,10,5,42,127,1805551888
56,8,22,Ticks_Phase_8,11,1,48,40,1805559120
56,8,22,Ticks_Phase_8,12,5,42,127,1806351748
56,8,22,Ticks_Phase_8,13,1,48,40,1806361912
56,8,22,Ticks_Phase_8,14,5,42,127,1807151608
56,8,22,Ticks_Phase_8,15,1,48,38,1807155276
56,8,22,Ticks_Phase_8,16,1,48,42,1807930720
56,8,22,Ticks_Phase_8,17,5,42,127,1807952384
56,8,22,Ticks_Phase_8,18,1,48,35,1808717020
56,8,22,Ticks_Phase_8,19,5,42,127,1808751872
56,8,22,Ticks_Phase_8,20,5,42,127,1809551664
56,8,22,Ticks_Phase_8,21,1,48,49,1809555376
56,8,22,Ticks_Phase_8,22,1,48,47,1810335608
56,8,22,Ticks_Phase_8,23,5,42,127,1810351372
56,8,22,Ticks_Phase_8,24,5,42,127,1811152432
56,8,22,Ticks_Phase_8,25,1,48,42,1811156824
56,8,22,Ticks_Phase_8,26,1,48,43,1811937880
56,8,22,Ticks_Phase_8,27,5,42,127,1811952068
56,8,22,Ticks_Phase_8,28,1,48,42,1812745008
56,8,22,Ticks_Phase_8,29,5,42,127,1812751780
56,8,22,Ticks_Phase_8,30,1,48,48,1813499260
56,8,22,Ticks_Phase_8,31,5,42,127,1813551492
56,8,22,Ticks_Phase_8,32,1,48,46,1814308604
56,8,22,Ticks_Phase_8,33,5,42,127,1814352324
56,8,22,Ticks_Phase_8,34,1,48,43,1815136652
56,8,22,Ticks_Phase_8,35,5,42,127,1815152260
56,8,22,Ticks_Phase_8,36,1,48,42,1815910536
56,8,22,Ticks_Phase_8,37,5,42,127,1815951748
56,8,22,Ticks_Phase_8,38,1,48,43,1816737872
56,8,22,Ticks_Phase_8,39,5,42,127,1816751384
56,8,22,Ticks_Phase_8,40,5,42,127,1817552300
56,8,22,Ticks_Phase_8,41,1,48,46,1817568216
56,8,22,Ticks_Phase_8,42,5,42,127,1818352232
56,8,22,Ticks_Phase_8,43,1,48,52,1818361720
56,8,22,Ticks_Phase_8,44,5,42,127,1819151648
56,8,22,Ticks_Phase_8,45,1,48,51,1819165320
56,8,22,Ticks_Phase_8,46,5,42,127,1819951580
56,8,22,Ticks_Phase_8,47,1,48,42,1819967508
56,8,22,Ticks_Phase_8,48,5,42,127,1820752120
56,8,22,Ticks_Phase_8,49,1,48,53,1820765348
56,8,22,Ticks_Phase_8,50,1,48,50,1821536368
56,8,22,Ticks_Phase_8,51,5,42,127,1821552196
56,8,22,Ticks_Phase_8,52,5,42,127,1822351616
56,8,22,Ticks_Phase_8,53,1,48,43,1822353028
56,8,22,Ticks_Phase_8,54,1,48,48,1823147764
56,8,22,Ticks_Phase_8,55,5,42,127,1823151396
56,8,22,Ticks_Phase_8,56,1,48,52,1823929816
56,8,22,Ticks_Phase_8,57,5,42,127,1823952228
56,8,22,Ticks_Phase_8,58,1,48,48,1824748988
56,8,22,Ticks_Phase_8,59,5,42,127,1824752016
56,8,22,Ticks_Phase_8,60,5,42,127,1825532488
56,8,22,Ticks_Phase_8,61,1,48,55,1825557848
56,8,22,Ticks_Phase_8,62,1,48,52,1826329784
56,8,22,Ticks_Phase_8,63,5,42,127,1826331896
56,8,22,Ticks_Phase_8,64,5,42,127,1827131936
56,8,22,Ticks_Phase_8,65,1,48,44,1827197436
56,8,22,Ticks_Phase_8,66,5,42,127,1827931648
56,8,22,Ticks_Phase_8,67,1,48,51,1827933216
56,8,22,Ticks_Phase_8,68,1,48,52,1828656336
56,8,22,Ticks_Phase_8,69,5,42,127,1828732152
56,8,22,Ticks_Phase_8,70,5,42,127,1829531944
56,8,22,Ticks_Phase_8,71,1,48,46,1829563000
56,8,22,Ticks_Phase_8,72,1,48,55,1830323384
56,8,22,Ticks_Phase_8,73,5,42,127,1830331948
56,8,22,Ticks_Phase_8,74,1,48,44,1831126908
56,8,22,Ticks_Phase_8,75,5,42,127,1831131512
56,8,22,Ticks_Phase_8,76,1,48,55,1831919892
56,8,22,Ticks_Phase_8,77,5,42,127,1831932268
56,8,22,Ticks_Phase_8,78,1,48,56,1832722892
56,8,22,Ticks_Phase_8,79,5,42,127,1832732056
56,8,22,Ticks_Phase_8,80,5,42,127,1833531724
56,8,22,Ticks_Phase_8,81,1,48,48,1833539944
56,8,22,Ticks_Phase_8,82,1,48,38,1834299804
56,8,22,Ticks_Phase_8,83,5,42,127,1834331432
56,8,22,Ticks_Phase_8,84,1,48,46,1834964460
56,8,22,Ticks_Phase_8,85,5,42,127,1835132248
56,8,22,Ticks_Phase_8,86,1,48,54,1835818684
56,8,22,Ticks_Phase_8,87,5,42,127,1835932108
56,8,22,Ticks_Phase_8,88,5,42,127,1836731768
56,8,22,Ticks_Phase_8,89,1,48,55,1836746044
56,8,22,Ticks_Phase_8,90,5,42,127,1837531552
56,8,22,Ticks_Phase_8,91,1,48,54,1837609552
56,8,22,Ticks_Phase_8,92,1,48,54,1838330648
56,8,22,Ticks_Phase_8,93,5,42,127,1838332156
56,8,22,Ticks_Phase_8,94,5,42,127,1839131948
56,8,22,Ticks_Phase_8,95,1,48,57,1839160636
56,8,22,Ticks_Phase_8,96,5,42,127,1839952428
56,8,22,Ticks_Phase_8,97,1,48,53,1839972848
56,8,22,Ticks_Phase_8,98,5,42,127,1840751844
56,8,22,Ticks_Phase_8,99,1,48,44,1840783644
56,8,22,Ticks_Phase_8,100,1,48,38,1841516240
56,8,22,Ticks_Phase_8,101,5,42,127,1841551624
56,8,22,Ticks_Phase_8,102,1,48,55,1842247652
56,8,22,Ticks_Phase_8,103,5,42,127,1842351616
56,8,22,Ticks_Phase_8,104,1,48,52,1843123080
56,8,22,Ticks_Phase_8,105,5,42,127,1843152164
56,8,22,Ticks_Phase_8,106,5,42,127,1843952032
56,8,22,Ticks_Phase_8,107,1,48,45,1843965112
56,8,22,Ticks_Phase_8,108,1,48,48,1844711420
56,8,22,Ticks_Phase_8,109,5,42,127,1844751664
56,8,22,Ticks_Phase_8,110,1,48,47,1845514276
56,8,22,Ticks_Phase_8,111,5,42,127,1845551748
56,8,22,Ticks_Phase_8,112,5,42,127,1846352216
56,8,22,Ticks_Phase_8,113,1,48,51,1846408576
56,8,22,Ticks_Phase_8,114,5,42,127,1847152000
56,8,22,Ticks_Phase_8,115,1,48,50,1847195032
56,8,22,Ticks_Phase_8,116,5,42,127,1847951712
56,8,22,Ticks_Phase_8,117,1,48,50,1848018184
56,8,22,Ticks_Phase_8,118,5,42,127,1848751500
56,8,22,Ticks_Phase_8,119,1,48,51,1848800680
56,8,22,Ticks_Phase_8,120,5,42,127,1849552552
56,8,22,Ticks_Phase_8,121,1,48,54,1849572224
56,8,22,Ticks_Phase_8,122,5,42,127,1850351892
56,8,22,Ticks_Phase_8,123,1,48,53,1850397392
56,8,22,Ticks_Phase_8,124,1,48,52,1851111352
56,8,22,Ticks_Phase_8,125,5,42,127,1851151672
56,8,22,Ticks_Phase_8,126,5,42,127,1851951860
56,8,22,Ticks_Phase_8,127,1,48,52,1851971912
56,8,22,Ticks_Phase_8,128,1,48,55,1852790272
56,8,22,Ticks_Phase_8,129,5,42,127,1852792084
56,8,22,Ticks_Phase_8,130,5,42,127,1853591876
56,8,22,Ticks_Phase_8,131,1,48,52,1853653632
56,8,22,Ticks_Phase_8,132,5,42,127,1854391660
56,8,22,Ticks_Phase_8,133,1,48,55,1854416788
56,8,22,Ticks_Phase_8,134,5,42,127,1855192568
56,8,22,Ticks_Phase_8,135,1,48,52,1855195164
56,8,22,Ticks_Phase_8,136,5,42,127,1856002388
56,8,22,Ticks_Phase_8,137,1,48,49,1856021016
56,8,22,Ticks_Phase_8,138,5,42,127,1856812436
56,8,22,Ticks_Phase_8,139,1,48,52,1856850112
56,8,22,Ticks_Phase_8,140,5,42,127,1857612396
56,8,22,Ticks_Phase_8,141,1,48,57,1857622560
56,8,22,Ticks_Phase_8,142,5,42,127,1858411812
56,8,22,Ticks_Phase_8,143,1,48,55,1858420624
56,8,22,Ticks_Phase_8,144,5,42,127,1859211524
56,8,22,Ticks_Phase_8,145,1,48,52,1859262196
56,8,22,Ticks_Phase_8,146,5,42,127,1860012356
56,8,22,Ticks_Phase_8,147,1,48,54,1860030532
56,8,22,Ticks_Phase_8,148,1,48,48,1860807084
56,8,22,Ticks_Phase_8,149,5,42,127,1860812356
56,8,22,Ticks_Phase_8,150,5,42,127,1861611852
56,8,22,Ticks_Phase_8,151,1,48,54,1861624856
56,8,22,Ticks_Phase_8,152,5,42,127,1862411488
56,8,22,Ticks_Phase_8,153,1,48,55,1862415580
56,8,22,Ticks_Phase_8,154,5,42,127,1863212396
56,8,22,Ticks_Phase_8,155,1,48,46,1863228264
56,8,22,Ticks_Phase_8,156,1,48,48,1864007152
56,8,22,Ticks_Phase_8,157,5,42,127,1864012424
56,8,22,Ticks_Phase_8,158,5,42,127,1864811916
56,8,22,Ticks_Phase_8,159,1,48,60,1864870460
56,8,22,Ticks_Phase_8,160,1,48,53,1865588000
56,8,22,Ticks_Phase_8,161,5,42,127,1865611548
56,8,22,Ticks_Phase_8,162,5,42,127,1866371428
56,8,22,Ticks_Phase_8,163,1,48,50,1866421952
56,8,22,Ticks_Phase_8,164,5,42,127,1867172184
56,8,22,Ticks_Phase_8,165,1,48,50,1867178892
56,8,22,Ticks_Phase_8,166,1,48,60,1867970620
56,8,22,Ticks_Phase_8,167,5,42,127,1867972116
56,8,22,Ticks_Phase_8,168,5,42,127,1868771684
56,8,22,Ticks_Phase_8,169,1,48,50,1868784840
56,8,22,Ticks_Phase_8,170,1,48,43,1869569272
56,8,22,Ticks_Phase_8,171,5,42,127,1869571388
56,8,22,Ticks_Phase_8,172,5,42,127,1870372152
56,8,22,Ticks_Phase_8,173,1,48,46,1870385104
56,8,22,Ticks_Phase_8,174,5,42,127,1871171888
56,8,22,Ticks_Phase_8,175,1,48,49,1871203092
56,8,22,Ticks_Phase_8,176,5,42,127,1871971900
56,8,22,Ticks_Phase_8,177,1,48,41,1871974420
56,8,22,Ticks_Phase_8,178,5,42,127,1872771388
56,8,22,Ticks_Phase_8,179,1,48,48,1872796820
56,8,22,Ticks_Phase_8,180,1,48,51,1873563724
56,8,22,Ticks_Phase_8,181,5,42,127,1873572064
56,8,22,Ticks_Phase_8,182,5,42,127,1874371932
56,8,22,Ticks_Phase_8,183,1,48,49,1874424328
56,8,22,Ticks_Phase_8,184,5,42,127,1875171716
56,8,22,Ticks_Phase_8,185,1,48,30,1875189728
56,8,22,Ticks_Phase_8,186,1,48,40,1875919488
56,8,22,Ticks_Phase_8,187,5,42,127,1875971500
56,8,22,Ticks_Phase_8,188,5,42,127,1876772116
56,8,22,Ticks_Phase_8,189,1,48,51,1876787984
56,8,22,Ticks_Phase_8,190,5,42,127,1877572000
56,8,22,Ticks_Phase_8,191,1,48,51,1877628808
56,8,22,Ticks_Phase_8,192,5,42,127,1878371640
56,8,22,Ticks_Phase_8,193,1,48,48,1878404784
56,8,22,Ticks_Phase_8,194,5,42,127,1879091820
56,8,22,Ticks_Phase_8,195,1,48,52,1879185324
56,8,22,Ticks_Phase_8,196,5,42,127,1879892280
56,8,22,Ticks_Phase_8,197,1,48,46,1879899676
56,8,22,Ticks_Phase_8,198,1,48,47,1880649708
56,8,22,Ticks_Phase_8,199,5,42,127,1880692208
56,8,22,Ticks_Phase_8,200,1,48,57,1881476464
56,8,22,Ticks_Phase_8,201,5,42,127,1881491920
56,8,22,Ticks_Phase_8,202,1,48,51,1882287184
56,8,22,Ticks_Phase_8,203,5,42,127,1882291780
56,8,22,Ticks_Phase_8,204,5,42,127,1883092248
56,8,22,Ticks_Phase_8,205,1,48,56,1883109212
56,8,22,Ticks_Phase_8,206,1,48,51,1883860920
56,8,22,Ticks_Phase_8,207,5,42,127,1883892028
56,8,22,Ticks_Phase_8,208,5,42,127,1884691748
56,8,22,Ticks_Phase_8,209,1,48,57,1884693156
56,8,22,Ticks_Phase_8,210,5,42,127,1885491708
56,8,22,Ticks_Phase_8,211,1,48,63,1885549952
56,8,22,Ticks_Phase_8,212,5,42,127,1886292320
56,8,22,Ticks_Phase_8,213,1,48,57,1886301132
56,8,22,Ticks_Phase_8,214,5,42,127,1887092028
56,8,22,Ticks_Phase_8,215,1,48,57,1887124428
56,8,22,Ticks_Phase_8,216,5,42,127,1887891744
56,8,22,Ticks_Phase_8,217,1,48,58,1887898004
56,8,22,Ticks_Phase_8,218,5,42,127,1888691680
56,8,22,Ticks_Phase_8,219,1,48,60,1888728344
56,8,22,Ticks_Phase_8,220,1,48,59,1889484240
56,8,22,Ticks_Phase_8,221,5,42,127,1889492280
56,8,22,Ticks_Phase_8,222,1,48,60,1890276304
56,8,22,Ticks_Phase_8,223,5,42,127,1890292140
56,8,22,Ticks_Phase_8,224,1,48,61,1891069128
56,8,22,Ticks_Phase_8,225,5,42,127,1891091852
56,8,22,Ticks_Phase_8,226,1,48,40,1891878424
56,8,22,Ticks_Phase_8,227,5,42,127,1891891664
56,8,22,Ticks_Phase_8,228,1,48,54,1892669392
56,8,22,Ticks_Phase_8,229,5,42,127,1892772164
56,8,22,Ticks_Phase_8,230,1,48,62,1893547668
56,8,22,Ticks_Phase_8,231,5,42,127,1893571964
56,8,22,Ticks_Phase_8,232,5,42,127,1894371760
56,8,22,Ticks_Phase_8,233,1,48,49,1894403192
56,8,22,Ticks_Phase_8,234,1,48,52,1895138776
56,8,22,Ticks_Phase_8,235,5,42,127,1895171688
56,8,22,Ticks_Phase_8,236,1,48,54,1895960964
56,8,22,Ticks_Phase_8,237,5,42,127,1895972072
56,8,22,Ticks_Phase_8,238,1,48,49,1896765564
56,8,22,Ticks_Phase_8,239,5,42,127,1896771888
56,8,22,Ticks_Phase_8,240,5,42,127,1897571680
56,8,22,Ticks_Phase_8,241,1,48,47,1897576520
56,8,22,Ticks_Phase_8,242,5,42,127,1898371616
56,8,22,Ticks_Phase_8,243,1,48,47,1898383800
56,8,22,Ticks_Phase_8,244,1,48,37,1899136468
56,8,22,Ticks_Phase_8,245,5,42,127,1899172144
56,8,22,Ticks_Phase_8,246,1,48,55,1899961944
56,8,22,Ticks_Phase_8,247,5,42,127,1899972156
56,8,22,Ticks_Phase_8,248,5,42,127,1900771724
56,8,22,Ticks_Phase_8,249,1,48,53,1900821880
56,8,22,Ticks_Phase_8,250,5,42,127,1901571584
56,8,22,Ticks_Phase_8,251,1,48,53,1901595368
56,8,22,Ticks_Phase_8,252,5,42,127,1902372268
56,8,22,Ticks_Phase_8,253,1,48,56,1902374208
56,8,22,Ticks_Phase_8,254,5,42,127,1903171932
56,8,22,Ticks_Phase_8,255,1,48,58,1903245668
56,8,22,Ticks_Phase_8,256,1,48,49,1903925400
56,8,22,Ticks_Phase_8,257,5,42,127,1903971636
56,8,22,Ticks_Phase_8,258,1,48,54,1904747876
56,8,22,Ticks_Phase_8,259,5,42,127,1904771424
56,8,22,Ticks_Phase_8,260,5,42,127,1905572412
56,8,22,Ticks_Phase_8,261,1,48,55,1905574780
56,8,22,Ticks_Phase_8,262,1,48,59,1906373064
56,8,22,Ticks_Phase_8,263,5,42,127,1906531564
56,8,22,Ticks_Phase_8,264,5,42,127,1907331376
56,8,22,Ticks_Phase_8,265,1,48,52,1907360556
56,8,22,Ticks_Phase_8,266,5,42,127,1908132356
56,8,22,Ticks_Phase_8,267,1,48,63,1908136816
56,8,22,Ticks_Phase_8,268,5,42,127,1908931844
56,8,22,Ticks_Phase_8,269,1,48,55,1908962072
56,8,22,Ticks_Phase_8,270,1,48,47,1909704556
56,8,22,Ticks_Phase_8,271,5,42,127,1909731772
56,8,22,Ticks_Phase_8,272,1,48,53,1910511912
56,8,22,Ticks_Phase_8,273,5,42,127,1910531484
56,8,22,Ticks_Phase_8,274,5,42,127,1911332248
56,8,22,Ticks_Phase_8,275,1,48,51,1911337388
56,8,22,Ticks_Phase_8,276,5,42,127,1912131912
56,8,22,Ticks_Phase_8,277,1,48,64,1912181536
56,8,22,Ticks_Phase_8,278,1,48,51,1912902084
56,8,22,Ticks_Phase_8,279,5,42,127,1912931616
56,8,22,Ticks_Phase_8,280,5,42,127,1913731336
56,8,22,Ticks_Phase_8,281,1,48,46,1913783804
56,8,22,Ticks_Phase_8,282,5,42,127,1914532168
56,8,22,Ticks_Phase_8,283,1,48,56,1914542256
56,8,22,Ticks_Phase_8,284,5,42,127,1915331880
56,8,22,Ticks_Phase_8,285,1,48,36,1915426960
56,8,22,Ticks_Phase_8,286,5,42,127,1916131888
56,8,22,Ticks_Phase_8,287,1,48,54,1916144068
56,8,22,Ticks_Phase_8,288,5,42,127,1916931376
56,8,22,Ticks_Phase_8,289,1,48,59,1916933164
56,8,22,Ticks_Phase_8,290,5,42,127,1917732208
56,8,22,Ticks_Phase_8,291,1,48,59,1917766276
56,8,22,Ticks_Phase_8,292,1,48,63,1918522924
56,8,22,Ticks_Phase_8,293,5,42,127,1918532160
56,8,22,Ticks_Phase_8,294,1,48,61,1919305404
56,8,22,Ticks_Phase_8,295,5,42,127,1919331648
56,8,22,Ticks_Phase_8,296,1,48,56,1920108784
56,8,22,Ticks_Phase_8,297,5,42,127,1920131584
56,8,22,Ticks_Phase_8,298,1,48,67,1920909240
56,8,22,Ticks_Phase_8,299,5,42,127,1920932120
56,8,22,Ticks_Phase_8,300,5,42,127,1921572304
56,8,22,Ticks_Phase_8,301,1,48,62,1921709212
56,8,22,Ticks_Phase_8,302,5,42,127,1922372116
56,8,22,Ticks_Phase_8,303,1,48,53,1922394408
56,8,22,Ticks_Phase_8,304,1,48,64,1923161832
56,8,22,Ticks_Phase_8,305,5,42,127,1923171972
56,8,22,Ticks_Phase_8,306,1,48,50,1923953684
56,8,22,Ticks_Phase_8,307,5,42,127,1923971312
56,8,22,Ticks_Phase_8,308,1,48,33,1924772148
56,8,22,Ticks_Phase_8,309,5,42,127,1924773636
56,8,22,Ticks_Phase_8,310,5,42,127,1925571936
56,8,22,Ticks_Phase_8,311,1,48,59,1925594376
56,8,22,Ticks_Phase_8,312,1,48,68,1926359100
56,8,22,Ticks_Phase_8,313,5,42,127,1926372012
56,8,22,Ticks_Phase_8,314,5,42,127,1927171360
56,8,22,Ticks_Phase_8,315,1,48,50,1927195144
56,8,22,Ticks_Phase_8,316,1,48,60,1927954108
56,8,22,Ticks_Phase_8,317,5,42,127,1927972112
56,8,22,Ticks_Phase_8,318,5,42,127,1928772008
56,8,22,Ticks_Phase_8,319,1,48,60,1928780672
56,8,22,Ticks_Phase_8,320,1,48,50,1929568228
56,8,22,Ticks_Phase_8,321,5,42,127,1929571860
56,8,22,Ticks_Phase_8,322,5,42,127,1930371356
56,8,22,Ticks_Phase_8,323,1,48,44,1930382260
56,8,22,Ticks_Phase_8,324,5,42,127,1931172188
56,8,22,Ticks_Phase_8,325,1,48,54,1931204812
56,8,22,Ticks_Phase_8,326,1,48,59,1931927604
56,8,22,Ticks_Phase_8,327,5,42,127,1931972040
56,8,22,Ticks_Phase_8,328,1,48,51,1932726640
56,8,22,Ticks_Phase_8,329,5,42,127,1932771904
56,8,22,Ticks_Phase_8,330,1,48,52,1933511600
56,8,22,Ticks_Phase_8,331,5,42,127,1933571540
56,8,22,Ticks_Phase_8,332,1,48,41,1934359996
56,8,22,Ticks_Phase_8,333,5,42,127,1934372148
56,8,22,Ticks_Phase_8,334,1,48,52,1935171440
56,8,22,Ticks_Phase_8,335,5,42,127,1935173004
56,8,22,Ticks_Phase_8,336,5,42,127,1935971752
56,8,22,Ticks_Phase_8,337,1,48,54,1935988800
56,8,22,Ticks_Phase_8,338,1,48,50,1936745888
56,8,22,Ticks_Phase_8,339,5,42,127,1936771608
56,8,22,Ticks_Phase_8,0,9999,9999,9999,1801549924
56,8,22,Ticks_Phase_8,1,9999,9999,9999,1802349632
56,8,22,Ticks_Phase_8,2,9999,9999,9999,1803149420
56,8,22,Ticks_Phase_8,3,9999,9999,9999,1803949132
56,8,22,Ticks_Phase_8,4,9999,9999,9999,1804749884
56,8,22,Ticks_Phase_8,5,9999,9999,9999,1805549676
56,8,22,Ticks_Phase_8,6,9999,9999,9999,1806349388
56,8,22,Ticks_Phase_8,7,9999,9999,9999,1807149172
56,8,22,Ticks_Phase_8,8,9999,9999,9999,1807949948
56,8,22,Ticks_Phase_8,9,9999,9999,9999,1808749660
56,8,22,Ticks_Phase_8,10,9999,9999,9999,1809549380
56,8,22,Ticks_Phase_8,11,9999,9999,9999,1810349160
56,8,22,Ticks_Phase_8,12,9999,9999,9999,1811149924
56,8,22,Ticks_Phase_8,13,9999,9999,9999,1811949632
56,8,22,Ticks_Phase_8,14,9999,9999,9999,1812749420
56,8,22,Ticks_Phase_8,15,9999,9999,9999,1813549132
56,8,22,Ticks_Phase_8,16,9999,9999,9999,1814349888
56,8,22,Ticks_Phase_8,17,9999,9999,9999,1815149676
56,8,22,Ticks_Phase_8,18,9999,9999,9999,1815949388
56,8,22,Ticks_Phase_8,19,9999,9999,9999,1816749172
56,8,22,Ticks_Phase_8,20,9999,9999,9999,1817549936
56,8,22,Ticks_Phase_8,21,9999,9999,9999,1818349648
56,8,22,Ticks_Phase_8,22,9999,9999,9999,1819149432
56,8,22,Ticks_Phase_8,23,9999,9999,9999,1819949148
56,8,22,Ticks_Phase_8,24,9999,9999,9999,1820749904
56,8,22,Ticks_Phase_8,25,9999,9999,9999,1821549684
56,8,22,Ticks_Phase_8,26,9999,9999,9999,1822349404
56,8,22,Ticks_Phase_8,27,9999,9999,9999,1823149108
56,8,22,Ticks_Phase_8,28,9999,9999,9999,1823949940
56,8,22,Ticks_Phase_8,29,9999,9999,9999,1824749656
56,8,22,Ticks_Phase_8,30,9999,9999,9999,1825529976
56,8,22,Ticks_Phase_8,31,9999,9999,9999,1826329652
56,8,22,Ticks_Phase_8,32,9999,9999,9999,1827129424
56,8,22,Ticks_Phase_8,33,9999,9999,9999,1827929216
56,8,22,Ticks_Phase_8,34,9999,9999,9999,1828729940
56,8,22,Ticks_Phase_8,35,9999,9999,9999,1829529660
56,8,22,Ticks_Phase_8,36,9999,9999,9999,1830329440
56,8,22,Ticks_Phase_8,37,9999,9999,9999,1831129152
56,8,22,Ticks_Phase_8,38,9999,9999,9999,1831929984
56,8,22,Ticks_Phase_8,39,9999,9999,9999,1832729696
56,8,22,Ticks_Phase_8,40,9999,9999,9999,1833529436
56,8,22,Ticks_Phase_8,41,9999,9999,9999,1834329144
56,8,22,Ticks_Phase_8,42,9999,9999,9999,1835129960
56,8,22,Ticks_Phase_8,43,9999,9999,9999,1835929672
56,8,22,Ticks_Phase_8,44,9999,9999,9999,1836729404
56,8,22,Ticks_Phase_8,45,9999,9999,9999,1837529192
56,8,22,Ticks_Phase_8,46,9999,9999,9999,1838329952
56,8,22,Ticks_Phase_8,47,9999,9999,9999,1839129660
56,8,22,Ticks_Phase_8,48,9999,9999,9999,1839949916
56,8,22,Ticks_Phase_8,49,9999,9999,9999,1840749632
56,8,22,Ticks_Phase_8,50,9999,9999,9999,1841549408
56,8,22,Ticks_Phase_8,51,9999,9999,9999,1842349180
56,8,22,Ticks_Phase_8,52,9999,9999,9999,1843149880
56,8,22,Ticks_Phase_8,53,9999,9999,9999,1843949672
56,8,22,Ticks_Phase_8,54,9999,9999,9999,1844749376
56,8,22,Ticks_Phase_8,55,9999,9999,9999,1845549164
56,8,22,Ticks_Phase_8,56,9999,9999,9999,1846349928
56,8,22,Ticks_Phase_8,57,9999,9999,9999,1847149640
56,8,22,Ticks_Phase_8,58,9999,9999,9999,1847949424
56,8,22,Ticks_Phase_8,59,9999,9999,9999,1848749136
56,8,22,Ticks_Phase_8,60,9999,9999,9999,1849549896
56,8,22,Ticks_Phase_8,61,9999,9999,9999,1850349680
56,8,22,Ticks_Phase_8,62,9999,9999,9999,1851149384
56,8,22,Ticks_Phase_8,63,9999,9999,9999,1851949176
56,8,22,Ticks_Phase_8,64,9999,9999,9999,1852789820
56,8,22,Ticks_Phase_8,65,9999,9999,9999,1853589588
56,8,22,Ticks_Phase_8,66,9999,9999,9999,1854389376
56,8,22,Ticks_Phase_8,67,9999,9999,9999,1855190132
56,8,22,Ticks_Phase_8,68,9999,9999,9999,1856000104
56,8,22,Ticks_Phase_8,69,9999,9999,9999,1856810072
56,8,22,Ticks_Phase_8,70,9999,9999,9999,1857609812
56,8,22,Ticks_Phase_8,71,9999,9999,9999,1858409596
56,8,22,Ticks_Phase_8,72,9999,9999,9999,1859209312
56,8,22,Ticks_Phase_8,73,9999,9999,9999,1860010068
56,8,22,Ticks_Phase_8,74,9999,9999,9999,1860809848
56,8,22,Ticks_Phase_8,75,9999,9999,9999,1861609564
56,8,22,Ticks_Phase_8,76,9999,9999,9999,1862409276
56,8,22,Ticks_Phase_8,77,9999,9999,9999,1863210108
56,8,22,Ticks_Phase_8,78,9999,9999,9999,1864009840
56,8,22,Ticks_Phase_8,79,9999,9999,9999,1864809556
56,8,22,Ticks_Phase_8,80,9999,9999,9999,1865609336
56,8,22,Ticks_Phase_8,81,9999,9999,9999,1866369140
56,8,22,Ticks_Phase_8,82,9999,9999,9999,1867169900
56,8,22,Ticks_Phase_8,83,9999,9999,9999,1867969612
56,8,22,Ticks_Phase_8,84,9999,9999,9999,1868769396
56,8,22,Ticks_Phase_8,85,9999,9999,9999,1869569140
56,8,22,Ticks_Phase_8,86,9999,9999,9999,1870369868
56,8,22,Ticks_Phase_8,87,9999,9999,9999,1871169600
56,8,22,Ticks_Phase_8,88,9999,9999,9999,1871969388
56,8,22,Ticks_Phase_8,89,9999,9999,9999,1872769100
56,8,22,Ticks_Phase_8,90,9999,9999,9999,1873569852
56,8,22,Ticks_Phase_8,91,9999,9999,9999,1874369644
56,8,22,Ticks_Phase_8,92,9999,9999,9999,1875169356
56,8,22,Ticks_Phase_8,93,9999,9999,9999,1875969136
56,8,22,Ticks_Phase_8,94,9999,9999,9999,1876769904
56,8,22,Ticks_Phase_8,95,9999,9999,9999,1877569640
56,8,22,Ticks_Phase_8,96,9999,9999,9999,1878369352
56,8,22,Ticks_Phase_8,97,9999,9999,9999,1879089232
56,8,22,Ticks_Phase_8,98,9999,9999,9999,1879889992
56,8,22,Ticks_Phase_8,99,9999,9999,9999,1880689772
56,8,22,Ticks_Phase_8,100,9999,9999,9999,1881489484
56,8,22,Ticks_Phase_8,101,9999,9999,9999,1882289272
56,8,22,Ticks_Phase_8,102,9999,9999,9999,1883090036
56,8,22,Ticks_Phase_8,103,9999,9999,9999,1883889740
56,8,22,Ticks_Phase_8,104,9999,9999,9999,1884689532
56,8,22,Ticks_Phase_8,105,9999,9999,9999,1885489272
56,8,22,Ticks_Phase_8,106,9999,9999,9999,1886290032
56,8,22,Ticks_Phase_8,107,9999,9999,9999,1887089744
56,8,22,Ticks_Phase_8,108,9999,9999,9999,1887889532
56,8,22,Ticks_Phase_8,109,9999,9999,9999,1888689244
56,8,22,Ticks_Phase_8,110,9999,9999,9999,1889489996
56,8,22,Ticks_Phase_8,111,9999,9999,9999,1890289780
56,8,22,Ticks_Phase_8,112,9999,9999,9999,1891089492
56,8,22,Ticks_Phase_8,113,9999,9999,9999,1891889228
56,8,22,Ticks_Phase_8,114,9999,9999,9999,1892769876
56,8,22,Ticks_Phase_8,115,9999,9999,9999,1893569604
56,8,22,Ticks_Phase_8,116,9999,9999,9999,1894369400
56,8,22,Ticks_Phase_8,117,9999,9999,9999,1895169104
56,8,22,Ticks_Phase_8,118,9999,9999,9999,1895969860
56,8,22,Ticks_Phase_8,119,9999,9999,9999,1896769600
56,8,22,Ticks_Phase_8,120,9999,9999,9999,1897569392
56,8,22,Ticks_Phase_8,121,9999,9999,9999,1898369104
56,8,22,Ticks_Phase_8,122,9999,9999,9999,1899169856
56,8,22,Ticks_Phase_8,123,9999,9999,9999,1899969644
56,8,22,Ticks_Phase_8,124,9999,9999,9999,1900769364
56,8,22,Ticks_Phase_8,125,9999,9999,9999,1901569148
56,8,22,Ticks_Phase_8,126,9999,9999,9999,1902369908
56,8,22,Ticks_Phase_8,127,9999,9999,9999,1903169644
56,8,22,Ticks_Phase_8,128,9999,9999,9999,1903969348
56,8,22,Ticks_Phase_8,129,9999,9999,9999,1904769136
56,8,22,Ticks_Phase_8,130,9999,9999,9999,1905569900
56,8,22,Ticks_Phase_8,131,9999,9999,9999,1906529352
56,8,22,Ticks_Phase_8,132,9999,9999,9999,1907329088
56,8,22,Ticks_Phase_8,133,9999,9999,9999,1908129920
56,8,22,Ticks_Phase_8,134,9999,9999,9999,1908929632
56,8,22,Ticks_Phase_8,135,9999,9999,9999,1909729336
56,8,22,Ticks_Phase_8,136,9999,9999,9999,1910529124
56,8,22,Ticks_Phase_8,137,9999,9999,9999,1911329888
56,8,22,Ticks_Phase_8,138,9999,9999,9999,1912129624
56,8,22,Ticks_Phase_8,139,9999,9999,9999,1912929404
56,8,22,Ticks_Phase_8,140,9999,9999,9999,1913729124
56,8,22,Ticks_Phase_8,141,9999,9999,9999,1914529880
56,8,22,Ticks_Phase_8,142,9999,9999,9999,1915329592
56,8,22,Ticks_Phase_8,143,9999,9999,9999,1916129376
56,8,22,Ticks_Phase_8,144,9999,9999,9999,1916929088
56,8,22,Ticks_Phase_8,145,9999,9999,9999,1917729848
56,8,22,Ticks_Phase_8,146,9999,9999,9999,1918529652
56,8,22,Ticks_Phase_8,147,9999,9999,9999,1919329364
56,8,22,Ticks_Phase_8,148,9999,9999,9999,1920129148
56,8,22,Ticks_Phase_8,149,9999,9999,9999,1920929908
56,8,22,Ticks_Phase_8,150,9999,9999,9999,1921569868
56,8,22,Ticks_Phase_8,151,9999,9999,9999,1922369608
56,8,22,Ticks_Phase_8,152,9999,9999,9999,1923169384
56,8,22,Ticks_Phase_8,153,9999,9999,9999,1923969100
56,8,22,Ticks_Phase_8,154,9999,9999,9999,1924769864
56,8,22,Ticks_Phase_8,155,9999,9999,9999,1925569648
56,8,22,Ticks_Phase_8,156,9999,9999,9999,1926369356
56,8,22,Ticks_Phase_8,157,9999,9999,9999,1927169148
56,8,22,Ticks_Phase_8,158,9999,9999,9999,1927969900
56,8,22,Ticks_Phase_8,159,9999,9999,9999,1928769644
56,8,22,Ticks_Phase_8,160,9999,9999,9999,1929569352
56,8,22,Ticks_Phase_8,161,9999,9999,9999,1930369144
56,8,22,Ticks_Phase_8,162,9999,9999,9999,1931169900
56,8,22,Ticks_Phase_8,163,9999,9999,9999,1931969608
56,8,22,Ticks_Phase_8,164,9999,9999,9999,1932769392
56,8,22,Ticks_Phase_8,165,9999,9999,9999,1933569104
56,8,22,Ticks_Phase_8,166,9999,9999,9999,1934369864
56,8,22,Ticks_Phase_8,167,9999,9999,9999,1935169604
56,8,22,Ticks_Phase_8,168,9999,9999,9999,1935969392
56,8,22,Ticks_Phase_8,169,9999,9999,9999,1936769096
56,9,10,Ticks_ISO_T2_5,0,5,42,127,1948005748
56,9,10,Ticks_ISO_T2_5,1,5,42,127,1948505616
56,9,10,Ticks_ISO_T2_5,2,1,48,48,1948604100
56,9,10,Ticks_ISO_T2_5,3,5,42,127,1949006208
56,9,10,Ticks_ISO_T2_5,4,1,48,51,1949007176
56,9,10,Ticks_ISO_T2_5,5,1,48,51,1949470012
56,9,10,Ticks_ISO_T2_5,6,5,42,127,1949505824
56,9,10,Ticks_ISO_T2_5,7,1,48,55,1949999356
56,9,10,Ticks_ISO_T2_5,8,5,42,127,1950005668
56,9,10,Ticks_ISO_T2_5,9,1,48,51,1950473588
56,9,10,Ticks_ISO_T2_5,10,5,42,127,1950506480
56,9,10,Ticks_ISO_T2_5,11,1,48,55,1951001404
56,9,10,Ticks_ISO_T2_5,12,5,42,127,1951006152
56,9,10,Ticks_ISO_T2_5,13,5,42,127,1951505852
56,9,10,Ticks_ISO_T2_5,14,1,48,55,1951522288
56,9,10,Ticks_ISO_T2_5,15,5,42,127,1952005696
56,9,10,Ticks_ISO_T2_5,16,1,48,64,1952033276
56,9,10,Ticks_ISO_T2_5,17,5,42,127,1952506364
56,9,10,Ticks_ISO_T2_5,18,1,48,63,1952523472
56,9,10,Ticks_ISO_T2_5,19,5,42,127,1953005836
56,9,10,Ticks_ISO_T2_5,20,1,48,56,1953018380
56,9,10,Ticks_ISO_T2_5,21,5,42,127,1953505528
56,9,10,Ticks_ISO_T2_5,22,1,48,57,1953538268
56,9,10,Ticks_ISO_T2_5,23,1,48,55,1954002116
56,9,10,Ticks_ISO_T2_5,24,5,42,127,1954006340
56,9,10,Ticks_ISO_T2_5,25,5,42,127,1954506260
56,9,10,Ticks_ISO_T2_5,26,1,48,56,1954566380
56,9,10,Ticks_ISO_T2_5,27,1,48,51,1955005732
56,9,10,Ticks_ISO_T2_5,28,5,42,127,1955006996
56,9,10,Ticks_ISO_T2_5,29,5,42,127,1955505500
56,9,10,Ticks_ISO_T2_5,30,1,48,50,1955508696
56,9,10,Ticks_ISO_T2_5,31,1,48,56,1956000220
56,9,10,Ticks_ISO_T2_5,32,5,42,127,1956006236
56,9,10,Ticks_ISO_T2_5,33,1,48,56,1956480024
56,9,10,Ticks_ISO_T2_5,34,5,42,127,1956506008
56,9,10,Ticks_ISO_T2_5,35,1,48,54,1956978516
56,9,10,Ticks_ISO_T2_5,36,5,42,127,1957005776
56,9,10,Ticks_ISO_T2_5,37,1,48,59,1957496312
56,9,10,Ticks_ISO_T2_5,38,5,42,127,1957506372
56,9,10,Ticks_ISO_T2_5,39,1,48,60,1957979928
56,9,10,Ticks_ISO_T2_5,40,5,42,127,1958006212
56,9,10,Ticks_ISO_T2_5,41,1,48,62,1958450676
56,9,10,Ticks_ISO_T2_5,42,5,42,127,1958505832
56,9,10,Ticks_ISO_T2_5,43,5,42,127,1959005532
56,9,10,Ticks_ISO_T2_5,44,1,48,45,1959019876
56,9,10,Ticks_ISO_T2_5,45,5,42,127,1959506200
56,9,10,Ticks_ISO_T2_5,46,1,48,53,1959509692
56,9,10,Ticks_ISO_T2_5,47,5,42,127,1960006044
56,9,10,Ticks_ISO_T2_5,48,1,48,60,1960023524
56,9,10,Ticks_ISO_T2_5,49,1,48,54,1960501440
56,9,10,Ticks_ISO_T2_5,50,5,42,127,1960505656
56,9,10,Ticks_ISO_T2_5,51,1,48,60,1961001256
56,9,10,Ticks_ISO_T2_5,52,5,42,127,1961005548
56,9,10,Ticks_ISO_T2_5,53,1,48,62,1961504380
56,9,10,Ticks_ISO_T2_5,54,5,42,127,1961506120
56,9,10,Ticks_ISO_T2_5,55,5,42,127,1962006044
56,9,10,Ticks_ISO_T2_5,56,1,48,59,1962024348
56,9,10,Ticks_ISO_T2_5,57,1,48,59,1962504456
56,9,10,Ticks_ISO_T2_5,58,5,42,127,1962506028
56,9,10,Ticks_ISO_T2_5,59,1,48,59,1963000828
56,9,10,Ticks_ISO_T2_5,60,5,42,127,1963006176
56,9,10,Ticks_ISO_T2_5,61,1,48,58,1963500680
56,9,10,Ticks_ISO_T2_5,62,5,42,127,1963506392
56,9,10,Ticks_ISO_T2_5,63,5,42,127,1964005648
56,9,10,Ticks_ISO_T2_5,64,1,48,59,1964023572
56,9,10,Ticks_ISO_T2_5,65,1,48,59,1964497672
56,9,10,Ticks_ISO_T2_5,66,5,42,127,1964505336
56,9,10,Ticks_ISO_T2_5,67,5,42,127,1965006304
56,9,10,Ticks_ISO_T2_5,68,1,48,55,1965010324
56,9,10,Ticks_ISO_T2_5,69,5,42,127,1965506076
56,9,10,Ticks_ISO_T2_5,70,1,48,56,1965511512
56,9,10,Ticks_ISO_T2_5,71,5,42,127,1966005696
56,9,10,Ticks_ISO_T2_5,72,1,48,58,1966025492
56,9,10,Ticks_ISO_T2_5,73,1,48,54,1966503032
56,9,10,Ticks_ISO_T2_5,74,5,42,127,1966506356
56,9,10,Ticks_ISO_T2_5,75,5,42,127,1967006204
56,9,10,Ticks_ISO_T2_5,76,1,48,55,1967024956
56,9,10,Ticks_ISO_T2_5,77,1,48,46,1967490676
56,9,10,Ticks_ISO_T2_5,78,5,42,127,1967505744
56,9,10,Ticks_ISO_T2_5,79,1,48,52,1968005968
56,9,10,Ticks_ISO_T2_5,80,5,42,127,1968007084
56,9,10,Ticks_ISO_T2_5,81,1,48,45,1968495004
56,9,10,Ticks_ISO_T2_5,82,5,42,127,1968506180
56,9,10,Ticks_ISO_T2_5,83,5,42,127,1969006104
56,9,10,Ticks_ISO_T2_5,84,1,48,46,1969016552
56,9,10,Ticks_ISO_T2_5,85,1,48,58,1969481228
56,9,10,Ticks_ISO_T2_5,86,5,42,127,1969505572
56,9,10,Ticks_ISO_T2_5,87,1,48,59,1970000972
56,9,10,Ticks_ISO_T2_5,88,5,42,127,1970006392
56,9,10,Ticks_ISO_T2_5,89,1,48,62,1970485028
56,9,10,Ticks_ISO_T2_5,90,5,42,127,1970506156
56,9,10,Ticks_ISO_T2_5,91,1,48,59,1970998492
56,9,10,Ticks_ISO_T2_5,92,5,42,127,1971006000
56,9,10,Ticks_ISO_T2_5,93,1,48,44,1971489108
56,9,10,Ticks_ISO_T2_5,94,5,42,127,1971505472
56,9,10,Ticks_ISO_T2_5,95,5,42,127,1972006268
56,9,10,Ticks_ISO_T2_5,96,1,48,67,1972007312
56,9,10,Ticks_ISO_T2_5,97,5,42,127,1972506184
56,9,10,Ticks_ISO_T2_5,98,1,48,69,1972542316
56,9,10,Ticks_ISO_T2_5,99,5,42,127,1973005804
56,9,10,Ticks_ISO_T2_5,100,1,48,58,1973008480
56,9,10,Ticks_ISO_T2_5,101,5,42,127,1973506328
56,9,10,Ticks_ISO_T2_5,102,1,48,61,1973540936
56,9,10,Ticks_ISO_T2_5,103,5,42,127,1974006240
56,9,10,Ticks_ISO_T2_5,104,1,48,53,1974025068
56,9,10,Ticks_ISO_T2_5,105,5,42,127,1974506084
56,9,10,Ticks_ISO_T2_5,106,1,48,62,1974523120
56,9,10,Ticks_ISO_T2_5,107,1,48,64,1975002824
56,9,10,Ticks_ISO_T2_5,108,5,42,127,1975005624
56,9,10,Ticks_ISO_T2_5,109,5,42,127,1975506148
56,9,10,Ticks_ISO_T2_5,110,1,48,69,1975511288
56,9,10,Ticks_ISO_T2_5,111,1,48,65,1975981644
56,9,10,Ticks_ISO_T2_5,112,5,42,127,1976005984
56,9,10,Ticks_ISO_T2_5,113,5,42,127,1976505988
56,9,10,Ticks_ISO_T2_5,114,1,48,55,1976523996
56,9,10,Ticks_ISO_T2_5,115,5,42,127,1977005456
56,9,10,Ticks_ISO_T2_5,116,1,48,66,1977021364
56,9,10,Ticks_ISO_T2_5,117,1,48,59,1977505296
56,9,10,Ticks_ISO_T2_5,118,5,42,127,1977506868
56,9,10,Ticks_ISO_T2_5,119,1,48,48,1977979152
56,9,10,Ticks_ISO_T2_5,120,5,42,127,1978006036
56,9,10,Ticks_ISO_T2_5,121,1,48,60,1978494032
56,9,10,Ticks_ISO_T2_5,122,5,42,127,1978505732
56,9,10,Ticks_ISO_T2_5,123,1,48,70,1979003300
56,9,10,Ticks_ISO_T2_5,124,5,42,127,1979006324
56,9,10,Ticks_ISO_T2_5,125,1,48,66,1979474868
56,9,10,Ticks_ISO_T2_5,126,5,42,127,1979506020
56,9,10,Ticks_ISO_T2_5,127,5,42,127,1980005796
56,9,10,Ticks_ISO_T2_5,128,1,48,61,1980017292
56,9,10,Ticks_ISO_T2_5,129,5,42,127,1980505488
56,9,10,Ticks_ISO_T2_5,130,1,48,65,1980536884
56,9,10,Ticks_ISO_T2_5,131,5,42,127,1981006080
56,9,10,Ticks_ISO_T2_5,132,1,48,64,1981022440
56,9,10,Ticks_ISO_T2_5,133,5,42,127,1981505852
56,9,10,Ticks_ISO_T2_5,134,1,48,57,1981515928
56,9,10,Ticks_ISO_T2_5,135,5,42,127,1982005620
56,9,10,Ticks_ISO_T2_5,136,1,48,57,1982025120
56,9,10,Ticks_ISO_T2_5,137,1,48,54,1982492532
56,9,10,Ticks_ISO_T2_5,138,5,42,127,1982506280
56,9,10,Ticks_ISO_T2_5,139,5,42,127,1983005956
56,9,10,Ticks_ISO_T2_5,140,1,48,53,1983013264
56,9,10,Ticks_ISO_T2_5,141,1,48,59,1983478680
56,9,10,Ticks_ISO_T2_5,142,5,42,127,1983505864
56,9,10,Ticks_ISO_T2_5,143,1,48,55,1983965808
56,9,10,Ticks_ISO_T2_5,144,5,42,127,1984005560
56,9,10,Ticks_ISO_T2_5,145,1,48,68,1984465432
56,9,10,Ticks_ISO_T2_5,146,5,42,127,1984506156
56,9,10,Ticks_ISO_T2_5,147,1,48,63,1984952260
56,9,10,Ticks_ISO_T2_5,148,5,42,127,1985006000
56,9,10,Ticks_ISO_T2_5,149,1,48,53,1985496464
56,9,10,Ticks_ISO_T2_5,150,5,42,127,1985505768
56,9,10,Ticks_ISO_T2_5,151,1,48,57,1985992716
56,9,10,Ticks_ISO_T2_5,152,5,42,127,1986006512
56,9,10,Ticks_ISO_T2_5,153,1,48,65,1986479396
56,9,10,Ticks_ISO_T2_5,154,5,42,127,1986506128
56,9,10,Ticks_ISO_T2_5,155,1,48,53,1986982824
56,9,10,Ticks_ISO_T2_5,156,5,42,127,1987005748
56,9,10,Ticks_ISO_T2_5,157,1,48,45,1987491720
56,9,10,Ticks_ISO_T2_5,158,5,42,127,1987505520
56,9,10,Ticks_ISO_T2_5,159,1,48,56,1987972864
56,9,10,Ticks_ISO_T2_5,160,5,42,127,1988006332
56,9,10,Ticks_ISO_T2_5,161,1,48,53,1988460444
56,9,10,Ticks_ISO_T2_5,162,5,42,127,1988506028
56,9,10,Ticks_ISO_T2_5,163,1,48,51,1988926180
56,9,10,Ticks_ISO_T2_5,164,5,42,127,1989005648
56,9,10,Ticks_ISO_T2_5,165,1,48,54,1989449508
56,9,10,Ticks_ISO_T2_5,166,5,42,127,1989506692
56,9,10,Ticks_ISO_T2_5,167,1,48,55,1989936568
56,9,10,Ticks_ISO_T2_5,168,5,42,127,1990006084
56,9,10,Ticks_ISO_T2_5,169,1,48,51,1990444412
56,9,10,Ticks_ISO_T2_5,170,5,42,127,1990505704
56,9,10,Ticks_ISO_T2_5,171,1,48,48,1990924784
56,9,10,Ticks_ISO_T2_5,172,5,42,127,1991005696
56,9,10,Ticks_ISO_T2_5,173,1,48,52,1991405328
56,9,10,Ticks_ISO_T2_5,174,5,42,127,1991506644
56,9,10,Ticks_ISO_T2_5,175,1,48,62,1991961724
56,9,10,Ticks_ISO_T2_5,176,5,42,127,1992006132
56,9,10,Ticks_ISO_T2_5,177,1,48,59,1992445780
56,9,10,Ticks_ISO_T2_5,178,5,42,127,1992505828
56,9,10,Ticks_ISO_T2_5,179,1,48,59,1992939644
56,9,10,Ticks_ISO_T2_5,180,5,42,127,1993005520
56,9,10,Ticks_ISO_T2_5,181,1,48,66,1993447040
56,9,10,Ticks_ISO_T2_5,182,5,42,127,1993506536
56,9,10,Ticks_ISO_T2_5,183,1,48,65,1993931700
56,9,10,Ticks_ISO_T2_5,184,5,42,127,1994005932
56,9,10,Ticks_ISO_T2_5,185,1,48,57,1994471936
56,9,10,Ticks_ISO_T2_5,186,5,42,127,1994505552
56,9,10,Ticks_ISO_T2_5,187,1,48,60,1994964672
56,9,10,Ticks_ISO_T2_5,188,5,42,127,1995006516
56,9,10,Ticks_ISO_T2_5,189,1,48,55,1995487484
56,9,10,Ticks_ISO_T2_5,190,5,42,127,1995505988
56,9,10,Ticks_ISO_T2_5,191,1,48,50,1995980144
56,9,10,Ticks_ISO_T2_5,192,5,42,127,1996005756
56,9,10,Ticks_ISO_T2_5,193,1,48,51,1996496664
56,9,10,Ticks_ISO_T2_5,194,5,42,127,1996505600
56,9,10,Ticks_ISO_T2_5,195,1,48,57,1996979156
56,9,10,Ticks_ISO_T2_5,196,5,42,127,1997006044
56,9,10,Ticks_ISO_T2_5,197,1,48,53,1997490820
56,9,10,Ticks_ISO_T2_5,198,5,42,127,1997506036
56,9,10,Ticks_ISO_T2_5,199,1,48,53,1997989468
56,9,10,Ticks_ISO_T2_5,200,5,42,127,1998005584
56,9,10,Ticks_ISO_T2_5,201,1,48,57,1998471960
56,9,10,Ticks_ISO_T2_5,202,5,42,127,1998506620
56,9,10,Ticks_ISO_T2_5,203,1,48,55,1998961404
56,9,10,Ticks_ISO_T2_5,204,5,42,127,1999006168
56,9,10,Ticks_ISO_T2_5,205,1,48,49,1999447116
56,9,10,Ticks_ISO_T2_5,206,5,42,127,1999505712
56,9,10,Ticks_ISO_T2_5,207,1,48,48,1999941948
56,9,10,Ticks_ISO_T2_5,208,5,42,127,2000005480
56,9,10,Ticks_ISO_T2_5,209,1,48,55,2000421868
56,9,10,Ticks_ISO_T2_5,210,5,42,127,2000506372
56,9,10,Ticks_ISO_T2_5,211,1,48,49,2000951808
56,9,10,Ticks_ISO_T2_5,212,5,42,127,2001005844
56,9,10,Ticks_ISO_T2_5,213,1,48,55,2001436892
56,9,10,Ticks_ISO_T2_5,214,5,42,127,2001505612
56,9,10,Ticks_ISO_T2_5,215,1,48,51,2001963092
56,9,10,Ticks_ISO_T2_5,216,5,42,127,2002006504
56,9,10,Ticks_ISO_T2_5,217,1,48,50,2002460140
56,9,10,Ticks_ISO_T2_5,218,5,42,127,2002506420
56,9,10,Ticks_ISO_T2_5,219,1,48,44,2002953100
56,9,10,Ticks_ISO_T2_5,220,5,42,127,2003005740
56,9,10,Ticks_ISO_T2_5,221,1,48,47,2003445992
56,9,10,Ticks_ISO_T2_5,222,5,42,127,2003505512
56,9,10,Ticks_ISO_T2_5,223,1,48,45,2003939324
56,9,10,Ticks_ISO_T2_5,224,5,42,127,2004006528
56,9,10,Ticks_ISO_T2_5,225,1,48,44,2004457924
56,9,10,Ticks_ISO_T2_5,226,5,42,127,2004505900
56,9,10,Ticks_ISO_T2_5,227,1,48,51,2004973172
56,9,10,Ticks_ISO_T2_5,228,5,42,127,2005005668
56,9,10,Ticks_ISO_T2_5,229,1,48,54,2005503312
56,9,10,Ticks_ISO_T2_5,230,5,42,127,2005506488
56,9,10,Ticks_ISO_T2_5,231,1,48,55,2005987000
56,9,10,Ticks_ISO_T2_5,232,5,42,127,2006006180
56,9,10,Ticks_ISO_T2_5,233,1,48,54,2006498364
56,9,10,Ticks_ISO_T2_5,234,5,42,127,2006505724
56,9,10,Ticks_ISO_T2_5,235,1,48,54,2006997756
56,9,10,Ticks_ISO_T2_5,236,5,42,127,2007005492
56,9,10,Ticks_ISO_T2_5,237,5,42,127,2007506392
56,9,10,Ticks_ISO_T2_5,238,1,48,26,2007540700
56,9,10,Ticks_ISO_T2_5,239,1,48,64,2007993780
56,9,10,Ticks_ISO_T2_5,240,5,42,127,2008005932
56,9,10,Ticks_ISO_T2_5,241,1,48,56,2008498860
56,9,10,Ticks_ISO_T2_5,242,5,42,127,2008505700
56,9,10,Ticks_ISO_T2_5,243,1,48,57,2008993764
56,9,10,Ticks_ISO_T2_5,244,5,42,127,2009005392
56,9,10,Ticks_ISO_T2_5,245,5,42,127,2009506140
56,9,10,Ticks_ISO_T2_5,246,1,48,54,2009507112
56,9,10,Ticks_ISO_T2_5,247,5,42,127,2010005836
56,9,10,Ticks_ISO_T2_5,248,1,48,43,2010009932
56,9,10,Ticks_ISO_T2_5,249,1,48,53,2010501752
56,9,10,Ticks_ISO_T2_5,250,5,42,127,2010505524
56,9,10,Ticks_ISO_T2_5,251,5,42,127,2011006196
56,9,10,Ticks_ISO_T2_5,252,1,48,43,2011010292
56,9,10,Ticks_ISO_T2_5,253,1,48,63,2011502336
56,9,10,Ticks_ISO_T2_5,254,5,42,127,2011506256
56,9,10,Ticks_ISO_T2_5,255,1,48,60,2012003616
56,9,10,Ticks_ISO_T2_5,256,5,42,127,2012005652
56,9,10,Ticks_ISO_T2_5,257,5,42,127,2012505428
56,9,10,Ticks_ISO_T2_5,258,1,48,56,2012525452
56,9,10,Ticks_ISO_T2_5,0,9999,9999,9999,1948003388
56,9,10,Ticks_ISO_T2_5,1,9999,9999,9999,1948503104
56,9,10,Ticks_ISO_T2_5,2,9999,9999,9999,1949003848
56,9,10,Ticks_ISO_T2_5,3,9999,9999,9999,1949503536
56,9,10,Ticks_ISO_T2_5,4,9999,9999,9999,1950003308
56,9,10,Ticks_ISO_T2_5,5,9999,9999,9999,1950504024
56,9,10,Ticks_ISO_T2_5,6,9999,9999,9999,1951003716
56,9,10,Ticks_ISO_T2_5,7,9999,9999,9999,1951503416
56,9,10,Ticks_ISO_T2_5,8,9999,9999,9999,1952003184
56,9,10,Ticks_ISO_T2_5,9,9999,9999,9999,1952503928
56,9,10,Ticks_ISO_T2_5,10,9999,9999,9999,1953003624
56,9,10,Ticks_ISO_T2_5,11,9999,9999,9999,1953503316
56,9,10,Ticks_ISO_T2_5,12,9999,9999,9999,1954004052
56,9,10,Ticks_ISO_T2_5,13,9999,9999,9999,1954503752
56,9,10,Ticks_ISO_T2_5,14,9999,9999,9999,1955003444
56,9,10,Ticks_ISO_T2_5,15,9999,9999,9999,1955503216
56,9,10,Ticks_ISO_T2_5,16,9999,9999,9999,1956003948
56,9,10,Ticks_ISO_T2_5,17,9999,9999,9999,1956503648
56,9,10,Ticks_ISO_T2_5,18,9999,9999,9999,1957003340
56,9,10,Ticks_ISO_T2_5,19,9999,9999,9999,1957504084
56,9,10,Ticks_ISO_T2_5,20,9999,9999,9999,1958003776
56,9,10,Ticks_ISO_T2_5,21,9999,9999,9999,1958503472
56,9,10,Ticks_ISO_T2_5,22,9999,9999,9999,1959003248
56,9,10,Ticks_ISO_T2_5,23,9999,9999,9999,1959503988
56,9,10,Ticks_ISO_T2_5,24,9999,9999,9999,1960003684
56,9,10,Ticks_ISO_T2_5,25,9999,9999,9999,1960503372
56,9,10,Ticks_ISO_T2_5,26,9999,9999,9999,1961003116
56,9,10,Ticks_ISO_T2_5,27,9999,9999,9999,1961503856
56,9,10,Ticks_ISO_T2_5,28,9999,9999,9999,1962003532
56,9,10,Ticks_ISO_T2_5,29,9999,9999,9999,1962503228
56,9,10,Ticks_ISO_T2_5,30,9999,9999,9999,1963003964
56,9,10,Ticks_ISO_T2_5,31,9999,9999,9999,1963503732
56,9,10,Ticks_ISO_T2_5,32,9999,9999,9999,1964003432
56,9,10,Ticks_ISO_T2_5,33,9999,9999,9999,1964503124
56,9,10,Ticks_ISO_T2_5,34,9999,9999,9999,1965003868
56,9,10,Ticks_ISO_T2_5,35,9999,9999,9999,1965503564
56,9,10,Ticks_ISO_T2_5,36,9999,9999,9999,1966003260
56,9,10,Ticks_ISO_T2_5,37,9999,9999,9999,1966503996
56,9,10,Ticks_ISO_T2_5,38,9999,9999,9999,1967003696
56,9,10,Ticks_ISO_T2_5,39,9999,9999,9999,1967503460
56,9,10,Ticks_ISO_T2_5,40,9999,9999,9999,1968003160
56,9,10,Ticks_ISO_T2_5,41,9999,9999,9999,1968503896
56,9,10,Ticks_ISO_T2_5,42,9999,9999,9999,1969003596
56,9,10,Ticks_ISO_T2_5,43,9999,9999,9999,1969503284
56,9,10,Ticks_ISO_T2_5,44,9999,9999,9999,1970004028
56,9,10,Ticks_ISO_T2_5,45,9999,9999,9999,1970503796
56,9,10,Ticks_ISO_T2_5,46,9999,9999,9999,1971003492
56,9,10,Ticks_ISO_T2_5,47,9999,9999,9999,1971503184
56,9,10,Ticks_ISO_T2_5,48,9999,9999,9999,1972003908
56,9,10,Ticks_ISO_T2_5,49,9999,9999,9999,1972503604
56,9,10,Ticks_ISO_T2_5,50,9999,9999,9999,1973003372
56,9,10,Ticks_ISO_T2_5,51,9999,9999,9999,1973504112
56,9,10,Ticks_ISO_T2_5,52,9999,9999,9999,1974003808
56,9,10,Ticks_ISO_T2_5,53,9999,9999,9999,1974503500
56,9,10,Ticks_ISO_T2_5,54,9999,9999,9999,1975003188
56,9,10,Ticks_ISO_T2_5,55,9999,9999,9999,1975503936
56,9,10,Ticks_ISO_T2_5,56,9999,9999,9999,1976003700
56,9,10,Ticks_ISO_T2_5,57,9999,9999,9999,1976503404
56,9,10,Ticks_ISO_T2_5,58,9999,9999,9999,1977003096
56,9,10,Ticks_ISO_T2_5,59,9999,9999,9999,1977503836
56,9,10,Ticks_ISO_T2_5,60,9999,9999,9999,1978003528
56,9,10,Ticks_ISO_T2_5,61,9999,9999,9999,1978503220
56,9,10,Ticks_ISO_T2_5,62,9999,9999,9999,1979003964
56,9,10,Ticks_ISO_T2_5,63,9999,9999,9999,1979503732
56,9,10,Ticks_ISO_T2_5,64,9999,9999,9999,1980003436
56,9,10,Ticks_ISO_T2_5,65,9999,9999,9999,1980503128
56,9,10,Ticks_ISO_T2_5,66,9999,9999,9999,1981003868
56,9,10,Ticks_ISO_T2_5,67,9999,9999,9999,1981503564
56,9,10,Ticks_ISO_T2_5,68,9999,9999,9999,1982003260
56,9,10,Ticks_ISO_T2_5,69,9999,9999,9999,1982503992
56,9,10,Ticks_ISO_T2_5,70,9999,9999,9999,1983003744
56,9,10,Ticks_ISO_T2_5,71,9999,9999,9999,1983503432
56,9,10,Ticks_ISO_T2_5,72,9999,9999,9999,1984003128
56,9,10,Ticks_ISO_T2_5,73,9999,9999,9999,1984503868
56,9,10,Ticks_ISO_T2_5,74,9999,9999,9999,1985003640
56,9,10,Ticks_ISO_T2_5,75,9999,9999,9999,1985503332
56,9,10,Ticks_ISO_T2_5,76,9999,9999,9999,1986004076
56,9,10,Ticks_ISO_T2_5,77,9999,9999,9999,1986503768
56,9,10,Ticks_ISO_T2_5,78,9999,9999,9999,1987003464
56,9,10,Ticks_ISO_T2_5,79,9999,9999,9999,1987503156
56,9,10,Ticks_ISO_T2_5,80,9999,9999,9999,1988003900
56,9,10,Ticks_ISO_T2_5,81,9999,9999,9999,1988503668
56,9,10,Ticks_ISO_T2_5,82,9999,9999,9999,1989003364
56,9,10,Ticks_ISO_T2_5,83,9999,9999,9999,1989504104
56,9,10,Ticks_ISO_T2_5,84,9999,9999,9999,1990003800
56,9,10,Ticks_ISO_T2_5,85,9999,9999,9999,1990503492
56,9,10,Ticks_ISO_T2_5,86,9999,9999,9999,1991003188
56,9,10,Ticks_ISO_T2_5,87,9999,9999,9999,1991503988
56,9,10,Ticks_ISO_T2_5,88,9999,9999,9999,1992003696
56,9,10,Ticks_ISO_T2_5,89,9999,9999,9999,1992503392
56,9,10,Ticks_ISO_T2_5,90,9999,9999,9999,1993003084
56,9,10,Ticks_ISO_T2_5,91,9999,9999,9999,1993503804
56,9,10,Ticks_ISO_T2_5,92,9999,9999,9999,1994003572
56,9,10,Ticks_ISO_T2_5,93,9999,9999,9999,1994503268
56,9,10,Ticks_ISO_T2_5,94,9999,9999,9999,1995004008
56,9,10,Ticks_ISO_T2_5,95,9999,9999,9999,1995503700
56,9,10,Ticks_ISO_T2_5,96,9999,9999,9999,1996003396
56,9,10,Ticks_ISO_T2_5,97,9999,9999,9999,1996503092
56,9,10,Ticks_ISO_T2_5,98,9999,9999,9999,1997003832
56,9,10,Ticks_ISO_T2_5,99,9999,9999,9999,1997503600
56,9,10,Ticks_ISO_T2_5,100,9999,9999,9999,1998003296
56,9,10,Ticks_ISO_T2_5,101,9999,9999,9999,1998504040
56,9,10,Ticks_ISO_T2_5,102,9999,9999,9999,1999003732
56,9,10,Ticks_ISO_T2_5,103,9999,9999,9999,1999503428
56,9,10,Ticks_ISO_T2_5,104,9999,9999,9999,2000003120
56,9,10,Ticks_ISO_T2_5,105,9999,9999,9999,2000503864
56,9,10,Ticks_ISO_T2_5,106,9999,9999,9999,2001003632
56,9,10,Ticks_ISO_T2_5,107,9999,9999,9999,2001503324
56,9,10,Ticks_ISO_T2_5,108,9999,9999,9999,2002004068
56,9,10,Ticks_ISO_T2_5,109,9999,9999,9999,2002503760
56,9,10,Ticks_ISO_T2_5,110,9999,9999,9999,2003003456
56,9,10,Ticks_ISO_T2_5,111,9999,9999,9999,2003503224
56,9,10,Ticks_ISO_T2_5,112,9999,9999,9999,2004003944
56,9,10,Ticks_ISO_T2_5,113,9999,9999,9999,2004503612
56,9,10,Ticks_ISO_T2_5,114,9999,9999,9999,2005003380
56,9,10,Ticks_ISO_T2_5,115,9999,9999,9999,2005504048
56,9,10,Ticks_ISO_T2_5,116,9999,9999,9999,2006003820
56,9,10,Ticks_ISO_T2_5,117,9999,9999,9999,2006503512
56,9,10,Ticks_ISO_T2_5,118,9999,9999,9999,2007003208
56,9,10,Ticks_ISO_T2_5,119,9999,9999,9999,2007503956
56,9,10,Ticks_ISO_T2_5,120,9999,9999,9999,2008003644
56,9,10,Ticks_ISO_T2_5,121,9999,9999,9999,2008503416
56,9,10,Ticks_ISO_T2_5,122,9999,9999,9999,2009003108
56,9,10,Ticks_ISO_T2_5,123,9999,9999,9999,2009503856
56,9,10,Ticks_ISO_T2_5,124,9999,9999,9999,2010003552
56,9,10,Ticks_ISO_T2_5,125,9999,9999,9999,2010503240
56,9,10,Ticks_ISO_T2_5,126,9999,9999,9999,2011003984
56,9,10,Ticks_ISO_T2_5,127,9999,9999,9999,2011503672
56,9,10,Ticks_ISO_T2_5,128,9999,9999,9999,2012003404
56,9,10,Ticks_ISO_T2_5,129,9999,9999,9999,2012503144
56,10,9,Ticks_ISO_T2_8,0,5,42,127,2022530364
56,10,9,Ticks_ISO_T2_8,1,1,48,48,2022877800
56,10,9,Ticks_ISO_T2_8,2,5,42,127,2023331068
56,10,9,Ticks_ISO_T2_8,3,1,48,51,2023480740
56,10,9,Ticks_ISO_T2_8,4,5,42,127,2024130952
56,10,9,Ticks_ISO_T2_8,5,1,48,52,2024160476
56,10,9,Ticks_ISO_T2_8,6,1,48,43,2024924956
56,10,9,Ticks_ISO_T2_8,7,5,42,127,2024930676
56,10,9,Ticks_ISO_T2_8,8,1,48,55,2025678392
56,10,9,Ticks_ISO_T2_8,9,5,42,127,2025730264
56,10,9,Ticks_ISO_T2_8,10,1,48,62,2026426520
56,10,9,Ticks_ISO_T2_8,11,5,42,127,2026531252
56,10,9,Ticks_ISO_T2_8,12,1,48,56,2027327776
56,10,9,Ticks_ISO_T2_8,13,5,42,127,2027331024
56,10,9,Ticks_ISO_T2_8,14,1,48,58,2028125112
56,10,9,Ticks_ISO_T2_8,15,5,42,127,2028130612
56,10,9,Ticks_ISO_T2_8,16,5,42,127,2028930276
56,10,9,Ticks_ISO_T2_8,17,1,48,57,2028952464
56,10,9,Ticks_ISO_T2_8,18,5,42,127,2029731280
56,10,9,Ticks_ISO_T2_8,19,1,48,62,2029755188
56,10,9,Ticks_ISO_T2_8,20,1,48,49,2030522600
56,10,9,Ticks_ISO_T2_8,21,5,42,127,2030530932
56,10,9,Ticks_ISO_T2_8,22,5,42,127,2031330748
56,10,9,Ticks_ISO_T2_8,23,1,48,53,2031336564
56,10,9,Ticks_ISO_T2_8,24,5,42,127,2032130704
56,10,9,Ticks_ISO_T2_8,25,1,48,42,2032139436
56,10,9,Ticks_ISO_T2_8,26,1,48,59,2032918204
56,10,9,Ticks_ISO_T2_8,27,5,42,127,2032931104
56,10,9,Ticks_ISO_T2_8,28,5,42,127,2033730844
56,10,9,Ticks_ISO_T2_8,29,1,48,52,2033767024
56,10,9,Ticks_ISO_T2_8,30,1,48,57,2034506080
56,10,9,Ticks_ISO_T2_8,31,5,42,127,2034530648
56,10,9,Ticks_ISO_T2_8,32,1,48,53,2035305736
56,10,9,Ticks_ISO_T2_8,33,5,42,127,2035330528
56,10,9,Ticks_ISO_T2_8,34,1,48,53,2036110636
56,10,9,Ticks_ISO_T2_8,35,5,42,127,2036131236
56,10,9,Ticks_ISO_T2_8,36,1,48,46,2036916352
56,10,9,Ticks_ISO_T2_8,37,5,42,127,2036930892
56,10,9,Ticks_ISO_T2_8,38,1,48,50,2037697456
56,10,9,Ticks_ISO_T2_8,39,5,42,127,2037730776
56,10,9,Ticks_ISO_T2_8,40,1,48,51,2038503024
56,10,9,Ticks_ISO_T2_8,41,5,42,127,2038530436
56,10,9,Ticks_ISO_T2_8,42,1,48,52,2039306724
56,10,9,Ticks_ISO_T2_8,43,5,42,127,2039331068
56,10,9,Ticks_ISO_T2_8,44,1,48,50,2040119700
56,10,9,Ticks_ISO_T2_8,45,5,42,127,2040130804
56,10,9,Ticks_ISO_T2_8,46,1,48,54,2040898564
56,10,9,Ticks_ISO_T2_8,47,5,42,127,2040930608
56,10,9,Ticks_ISO_T2_8,48,1,48,55,2041713928
56,10,9,Ticks_ISO_T2_8,49,5,42,127,2041730492
56,10,9,Ticks_ISO_T2_8,50,5,42,127,2042531204
56,10,9,Ticks_ISO_T2_8,51,1,48,55,2042539636
56,10,9,Ticks_ISO_T2_8,52,5,42,127,2043330864
56,10,9,Ticks_ISO_T2_8,53,1,48,62,2043357016
56,10,9,Ticks_ISO_T2_8,54,5,42,127,2044130672
56,10,9,Ticks_ISO_T2_8,55,1,48,65,2044149720
56,10,9,Ticks_ISO_T2_8,56,1,48,68,2044925424
56,10,9,Ticks_ISO_T2_8,57,5,42,127,2044930544
56,10,9,Ticks_ISO_T2_8,58,5,42,127,2045731108
56,10,9,Ticks_ISO_T2_8,59,1,48,57,2045785264
56,10,9,Ticks_ISO_T2_8,60,1,48,64,2046525516
56,10,9,Ticks_ISO_T2_8,61,5,42,127,2046530788
56,10,9,Ticks_ISO_T2_8,62,5,42,127,2047330600
56,10,9,Ticks_ISO_T2_8,63,1,48,66,2047348524
56,10,9,Ticks_ISO_T2_8,64,1,48,70,2048124984
56,10,9,Ticks_ISO_T2_8,65,5,42,127,2048130400
56,10,9,Ticks_ISO_T2_8,66,5,42,127,2048931036
56,10,9,Ticks_ISO_T2_8,67,1,48,80,2048951280
56,10,9,Ticks_ISO_T2_8,68,1,48,67,2049728260
56,10,9,Ticks_ISO_T2_8,69,5,42,127,2049730916
56,10,9,Ticks_ISO_T2_8,70,1,48,36,2050524332
56,10,9,Ticks_ISO_T2_8,71,5,42,127,2050530648
56,10,9,Ticks_ISO_T2_8,72,1,48,56,2051314116
56,10,9,Ticks_ISO_T2_8,73,5,42,127,2051330528
56,10,9,Ticks_ISO_T2_8,74,1,48,54,2052100008
56,10,9,Ticks_ISO_T2_8,75,5,42,127,2052131384
56,10,9,Ticks_ISO_T2_8,76,1,48,74,2052901712
56,10,9,Ticks_ISO_T2_8,77,5,42,127,2052930916
56,10,9,Ticks_ISO_T2_8,78,1,48,70,2053718948
56,10,9,Ticks_ISO_T2_8,79,5,42,127,2053730580
56,10,9,Ticks_ISO_T2_8,80,5,42,127,2054530392
56,10,9,Ticks_ISO_T2_8,81,1,48,69,2054533140
56,10,9,Ticks_ISO_T2_8,82,5,42,127,2055331320
56,10,9,Ticks_ISO_T2_8,83,1,48,59,2055337580
56,10,9,Ticks_ISO_T2_8,84,5,42,127,2056130904
56,10,9,Ticks_ISO_T2_8,85,1,48,72,2056149432
56,10,9,Ticks_ISO_T2_8,86,5,42,127,2056930712
56,10,9,Ticks_ISO_T2_8,87,1,48,63,2056947144
56,10,9,Ticks_ISO_T2_8,88,5,42,127,2057730372
56,10,9,Ticks_ISO_T2_8,89,1,48,71,2057731336
56,10,9,Ticks_ISO_T2_8,90,5,42,127,2058531300
56,10,9,Ticks_ISO_T2_8,91,1,48,62,2058546264
56,10,9,Ticks_ISO_T2_8,92,1,48,55,2059331132
56,10,9,Ticks_ISO_T2_8,93,5,42,127,2059332468
56,10,9,Ticks_ISO_T2_8,94,5,42,127,2060130568
56,10,9,Ticks_ISO_T2_8,95,1,48,65,2060148420
56,10,9,Ticks_ISO_T2_8,96,1,48,67,2060916048
56,10,9,Ticks_ISO_T2_8,97,5,42,127,2060930368
56,10,9,Ticks_ISO_T2_8,98,5,42,127,2061731156
56,10,9,Ticks_ISO_T2_8,99,1,48,67,2061732120
56,10,9,Ticks_ISO_T2_8,100,1,48,68,2062506240
56,10,9,Ticks_ISO_T2_8,101,5,42,127,2062530884
56,10,9,Ticks_ISO_T2_8,102,1,48,64,2063324144
56,10,9,Ticks_ISO_T2_8,103,5,42,127,2063330616
56,10,9,Ticks_ISO_T2_8,104,1,48,49,2064101596
56,10,9,Ticks_ISO_T2_8,105,5,42,127,2064130348
56,10,9,Ticks_ISO_T2_8,106,1,48,73,2064912472
56,10,9,Ticks_ISO_T2_8,107,5,42,127,2064931204
56,10,9,Ticks_ISO_T2_8,108,1,48,76,2065693108
56,10,9,Ticks_ISO_T2_8,109,5,42,127,2065730864
56,10,9,Ticks_ISO_T2_8,110,1,48,71,2066491820
56,10,9,Ticks_ISO_T2_8,111,5,42,127,2066530600
56,10,9,Ticks_ISO_T2_8,112,1,48,72,2067293348
56,10,9,Ticks_ISO_T2_8,113,5,42,127,2067330404
56,10,9,Ticks_ISO_T2_8,114,1,48,71,2068092932
56,10,9,Ticks_ISO_T2_8,115,5,42,127,2068131336
56,10,9,Ticks_ISO_T2_8,116,1,48,71,2068869924
56,10,9,Ticks_ISO_T2_8,117,5,42,127,2068931068
56,10,9,Ticks_ISO_T2_8,118,1,48,58,2069686036
56,10,9,Ticks_ISO_T2_8,119,5,42,127,2069730652
56,10,9,Ticks_ISO_T2_8,120,1,48,73,2070478812
56,10,9,Ticks_ISO_T2_8,121,5,42,127,2070530388
56,10,9,Ticks_ISO_T2_8,122,1,48,71,2071272116
56,10,9,Ticks_ISO_T2_8,123,5,42,127,2071331240
56,10,9,Ticks_ISO_T2_8,124,1,48,82,2072100200
56,10,9,Ticks_ISO_T2_8,125,5,42,127,2072130900
56,10,9,Ticks_ISO_T2_8,126,1,48,50,2072898136
56,10,9,Ticks_ISO_T2_8,127,5,42,127,2072930632
56,10,9,Ticks_ISO_T2_8,128,1,48,75,2073715000
56,10,9,Ticks_ISO_T2_8,129,5,42,127,2073730440
56,10,9,Ticks_ISO_T2_8,130,1,48,79,2074518248
56,10,9,Ticks_ISO_T2_8,131,5,42,127,2074531148
56,10,9,Ticks_ISO_T2_8,132,1,48,66,2075280508
56,10,9,Ticks_ISO_T2_8,133,5,42,127,2075331100
56,10,9,Ticks_ISO_T2_8,134,1,48,75,2076091464
56,10,9,Ticks_ISO_T2_8,135,5,42,127,2076130760
56,10,9,Ticks_ISO_T2_8,136,1,48,87,2076877428
56,10,9,Ticks_ISO_T2_8,137,5,42,127,2076930568
56,10,9,Ticks_ISO_T2_8,138,1,48,70,2077650908
56,10,9,Ticks_ISO_T2_8,139,5,42,127,2077731300
56,10,9,Ticks_ISO_T2_8,140,1,48,77,2078464924
56,10,9,Ticks_ISO_T2_8,141,5,42,127,2078530956
56,10,9,Ticks_ISO_T2_8,142,1,48,69,2079290568
56,10,9,Ticks_ISO_T2_8,143,5,42,127,2079330764
56,10,9,Ticks_ISO_T2_8,144,1,48,56,2080101816
56,10,9,Ticks_ISO_T2_8,145,5,42,127,2080130348
56,10,9,Ticks_ISO_T2_8,146,1,48,68,2080909252
56,10,9,Ticks_ISO_T2_8,147,5,42,127,2080931056
56,10,9,Ticks_ISO_T2_8,148,1,48,84,2081703080
56,10,9,Ticks_ISO_T2_8,149,5,42,127,2081731084
56,10,9,Ticks_ISO_T2_8,150,1,48,51,2082496004
56,10,9,Ticks_ISO_T2_8,151,5,42,127,2082530892
56,10,9,Ticks_ISO_T2_8,152,1,48,71,2083272924
56,10,9,Ticks_ISO_T2_8,153,5,42,127,2083330552
56,10,9,Ticks_ISO_T2_8,154,1,48,76,2084042216
56,10,9,Ticks_ISO_T2_8,155,5,42,127,2084131060
56,10,9,Ticks_ISO_T2_8,156,1,48,74,2084861248
56,10,9,Ticks_ISO_T2_8,157,5,42,127,2084930940
56,10,9,Ticks_ISO_T2_8,158,1,48,73,2085610488
56,10,9,Ticks_ISO_T2_8,159,5,42,127,2085730808
56,10,9,Ticks_ISO_T2_8,160,1,48,66,2086453336
56,10,9,Ticks_ISO_T2_8,161,5,42,127,2086530336
56,10,9,Ticks_ISO_T2_8,162,1,48,70,2087288000
56,10,9,Ticks_ISO_T2_8,163,5,42,127,2087331040
56,10,9,Ticks_ISO_T2_8,164,5,42,127,2088130928
56,10,9,Ticks_ISO_T2_8,165,1,48,63,2088160076
56,10,9,Ticks_ISO_T2_8,166,5,42,127,2088930812
56,10,9,Ticks_ISO_T2_8,167,1,48,63,2088945076
56,10,9,Ticks_ISO_T2_8,168,1,48,70,2089728956
56,10,9,Ticks_ISO_T2_8,169,5,42,127,2089730540
56,10,9,Ticks_ISO_T2_8,170,5,42,127,2090531200
56,10,9,Ticks_ISO_T2_8,171,1,48,66,2090579052
56,10,9,Ticks_ISO_T2_8,172,1,48,77,2091304488
56,10,9,Ticks_ISO_T2_8,173,5,42,127,2091330928
56,10,9,Ticks_ISO_T2_8,174,1,48,85,2092119112
56,10,9,Ticks_ISO_T2_8,175,5,42,127,2092130736
56,10,9,Ticks_ISO_T2_8,176,5,42,127,2092930696
56,10,9,Ticks_ISO_T2_8,177,1,48,79,2092936660
56,10,9,Ticks_ISO_T2_8,178,5,42,127,2093731104
56,10,9,Ticks_ISO_T2_8,179,1,48,72,2093736316
56,10,9,Ticks_ISO_T2_8,180,1,48,69,2094526084
56,10,9,Ticks_ISO_T2_8,181,5,42,127,2094530984
56,10,9,Ticks_ISO_T2_8,182,1,48,65,2095319984
56,10,9,Ticks_ISO_T2_8,183,5,42,127,2095330640
56,10,9,Ticks_ISO_T2_8,184,5,42,127,2096130608
56,10,9,Ticks_ISO_T2_8,185,1,48,73,2096131572
56,10,9,Ticks_ISO_T2_8,186,5,42,127,2096931188
56,10,9,Ticks_ISO_T2_8,187,1,48,73,2096938940
56,10,9,Ticks_ISO_T2_8,188,1,48,54,2097706720
56,10,9,Ticks_ISO_T2_8,189,5,42,127,2097731064
56,10,9,Ticks_ISO_T2_8,190,5,42,127,2098530656
56,10,9,Ticks_ISO_T2_8,191,1,48,79,2098551880
56,10,9,Ticks_ISO_T2_8,192,5,42,127,2099330388
56,10,9,Ticks_ISO_T2_8,193,1,48,61,2099356168
56,10,9,Ticks_ISO_T2_8,194,1,48,72,2100120508
56,10,9,Ticks_ISO_T2_8,195,5,42,127,2100131164
56,10,9,Ticks_ISO_T2_8,196,1,48,68,2100920988
56,10,9,Ticks_ISO_T2_8,197,5,42,127,2100930972
56,10,9,Ticks_ISO_T2_8,198,1,48,60,2101713096
56,10,9,Ticks_ISO_T2_8,199,5,42,127,2101730628
56,10,9,Ticks_ISO_T2_8,200,1,48,71,2102501684
56,10,9,Ticks_ISO_T2_8,201,5,42,127,2102530364
56,10,9,Ticks_ISO_T2_8,202,1,48,48,2103269704
56,10,9,Ticks_ISO_T2_8,203,5,42,127,2103331316
56,10,9,Ticks_ISO_T2_8,204,1,48,55,2104067268
56,10,9,Ticks_ISO_T2_8,205,5,42,127,2104130904
56,10,9,Ticks_ISO_T2_8,206,1,48,62,2104841792
56,10,9,Ticks_ISO_T2_8,207,5,42,127,2104930560
56,10,9,Ticks_ISO_T2_8,208,1,48,75,2105622152
56,10,9,Ticks_ISO_T2_8,209,5,42,127,2105730280
56,10,9,Ticks_ISO_T2_8,210,1,48,66,2106424004
56,10,9,Ticks_ISO_T2_8,211,5,42,127,2106531508
56,10,9,Ticks_ISO_T2_8,212,5,42,127,2107330816
56,10,9,Ticks_ISO_T2_8,213,1,48,76,2107339244
56,10,9,Ticks_ISO_T2_8,214,1,48,68,2108104928
56,10,9,Ticks_ISO_T2_8,215,5,42,127,2108130616
56,10,9,Ticks_ISO_T2_8,216,1,48,69,2108913480
56,10,9,Ticks_ISO_T2_8,217,5,42,127,2108930424
56,10,9,Ticks_ISO_T2_8,218,5,42,127,2109731308
56,10,9,Ticks_ISO_T2_8,219,1,48,58,2109736000
56,10,9,Ticks_ISO_T2_8,220,1,48,64,2110491628
56,10,9,Ticks_ISO_T2_8,221,5,42,127,2110531108
56,10,9,Ticks_ISO_T2_8,222,1,48,58,2111267008
56,10,9,Ticks_ISO_T2_8,223,5,42,127,2111330620
56,10,9,Ticks_ISO_T2_8,224,1,48,64,2112099352
56,10,9,Ticks_ISO_T2_8,225,5,42,127,2112130500
56,10,9,Ticks_ISO_T2_8,226,5,42,127,2112931288
56,10,9,Ticks_ISO_T2_8,227,1,48,72,2112934032
56,10,9,Ticks_ISO_T2_8,228,1,48,69,2113694932
56,10,9,Ticks_ISO_T2_8,229,5,42,127,2113731088
56,10,9,Ticks_ISO_T2_8,230,1,48,65,2114513140
56,10,9,Ticks_ISO_T2_8,231,5,42,127,2114530600
56,10,9,Ticks_ISO_T2_8,232,1,48,67,2115289460
56,10,9,Ticks_ISO_T2_8,233,5,42,127,2115330408
56,10,9,Ticks_ISO_T2_8,234,1,48,67,2116013648
56,10,9,Ticks_ISO_T2_8,235,5,42,127,2116131048
56,10,9,Ticks_ISO_T2_8,236,5,42,127,2116931100
56,10,9,Ticks_ISO_T2_8,237,1,48,68,2116947988
56,10,9,Ticks_ISO_T2_8,238,1,48,67,2117720772
56,10,9,Ticks_ISO_T2_8,239,5,42,127,2117730756
56,10,9,Ticks_ISO_T2_8,0,9999,9999,9999,2022528076
56,10,9,Ticks_ISO_T2_8,1,9999,9999,9999,2023328852
56,10,9,Ticks_ISO_T2_8,2,9999,9999,9999,2024128588
56,10,9,Ticks_ISO_T2_8,3,9999,9999,9999,2024928312
56,10,9,Ticks_ISO_T2_8,4,9999,9999,9999,2025728048
56,10,9,Ticks_ISO_T2_8,5,9999,9999,9999,2026528816
56,10,9,Ticks_ISO_T2_8,6,9999,9999,9999,2027328588
56,10,9,Ticks_ISO_T2_8,7,9999,9999,9999,2028128320
56,10,9,Ticks_ISO_T2_8,8,9999,9999,9999,2028928060
56,10,9,Ticks_ISO_T2_8,9,9999,9999,9999,2029728840
56,10,9,Ticks_ISO_T2_8,10,9999,9999,9999,2030528572
56,10,9,Ticks_ISO_T2_8,11,9999,9999,9999,2031328308
56,10,9,Ticks_ISO_T2_8,12,9999,9999,9999,2032128116
56,10,9,Ticks_ISO_T2_8,13,9999,9999,9999,2032928816
56,10,9,Ticks_ISO_T2_8,14,9999,9999,9999,2033728632
56,10,9,Ticks_ISO_T2_8,15,9999,9999,9999,2034528360
56,10,9,Ticks_ISO_T2_8,16,9999,9999,9999,2035328092
56,10,9,Ticks_ISO_T2_8,17,9999,9999,9999,2036128872
56,10,9,Ticks_ISO_T2_8,18,9999,9999,9999,2036928604
56,10,9,Ticks_ISO_T2_8,19,9999,9999,9999,2037728340
56,10,9,Ticks_ISO_T2_8,20,9999,9999,9999,2038528076
56,10,9,Ticks_ISO_T2_8,21,9999,9999,9999,2039328852
56,10,9,Ticks_ISO_T2_8,22,9999,9999,9999,2040128588
56,10,9,Ticks_ISO_T2_8,23,9999,9999,9999,2040928320
56,10,9,Ticks_ISO_T2_8,24,9999,9999,9999,2041728056
56,10,9,Ticks_ISO_T2_8,25,9999,9999,9999,2042528840
56,10,9,Ticks_ISO_T2_8,26,9999,9999,9999,2043328572
56,10,9,Ticks_ISO_T2_8,27,9999,9999,9999,2044128308
56,10,9,Ticks_ISO_T2_8,28,9999,9999,9999,2044928108
56,10,9,Ticks_ISO_T2_8,29,9999,9999,9999,2045728820
56,10,9,Ticks_ISO_T2_8,30,9999,9999,9999,2046528572
56,10,9,Ticks_ISO_T2_8,31,9999,9999,9999,2047328312
56,10,9,Ticks_ISO_T2_8,32,9999,9999,9999,2048128112
56,10,9,Ticks_ISO_T2_8,33,9999,9999,9999,2048928824
56,10,9,Ticks_ISO_T2_8,34,9999,9999,9999,2049728624
56,10,9,Ticks_ISO_T2_8,35,9999,9999,9999,2050528360
56,10,9,Ticks_ISO_T2_8,36,9999,9999,9999,2051328092
56,10,9,Ticks_ISO_T2_8,37,9999,9999,9999,2052128872
56,10,9,Ticks_ISO_T2_8,38,9999,9999,9999,2052928628
56,10,9,Ticks_ISO_T2_8,39,9999,9999,9999,2053728364
56,10,9,Ticks_ISO_T2_8,40,9999,9999,9999,2054528104
56,10,9,Ticks_ISO_T2_8,41,9999,9999,9999,2055328884
56,10,9,Ticks_ISO_T2_8,42,9999,9999,9999,2056128616
56,10,9,Ticks_ISO_T2_8,43,9999,9999,9999,2056928348
56,10,9,Ticks_ISO_T2_8,44,9999,9999,9999,2057728080
56,10,9,Ticks_ISO_T2_8,45,9999,9999,9999,2058528860
56,10,9,Ticks_ISO_T2_8,46,9999,9999,9999,2059328616
56,10,9,Ticks_ISO_T2_8,47,9999,9999,9999,2060128352
56,10,9,Ticks_ISO_T2_8,48,9999,9999,9999,2060928080
56,10,9,Ticks_ISO_T2_8,49,9999,9999,9999,2061728868
56,10,9,Ticks_ISO_T2_8,50,9999,9999,9999,2062528596
56,10,9,Ticks_ISO_T2_8,51,9999,9999,9999,2063328328
56,10,9,Ticks_ISO_T2_8,52,9999,9999,9999,2064128060
56,10,9,Ticks_ISO_T2_8,53,9999,9999,9999,2064928840
56,10,9,Ticks_ISO_T2_8,54,9999,9999,9999,2065728576
56,10,9,Ticks_ISO_T2_8,55,9999,9999,9999,2066528308
56,10,9,Ticks_ISO_T2_8,56,9999,9999,9999,2067328116
56,10,9,Ticks_ISO_T2_8,57,9999,9999,9999,2068128824
56,10,9,Ticks_ISO_T2_8,58,9999,9999,9999,2068928628
56,10,9,Ticks_ISO_T2_8,59,9999,9999,9999,2069728364
56,10,9,Ticks_ISO_T2_8,60,9999,9999,9999,2070528096
56,10,9,Ticks_ISO_T2_8,61,9999,9999,9999,2071328876
56,10,9,Ticks_ISO_T2_8,62,9999,9999,9999,2072128608
56,10,9,Ticks_ISO_T2_8,63,9999,9999,9999,2072928344
56,10,9,Ticks_ISO_T2_8,64,9999,9999,9999,2073728076
56,10,9,Ticks_ISO_T2_8,65,9999,9999,9999,2074528856
56,10,9,Ticks_ISO_T2_8,66,9999,9999,9999,2075328588
56,10,9,Ticks_ISO_T2_8,67,9999,9999,9999,2076128324
56,10,9,Ticks_ISO_T2_8,68,9999,9999,9999,2076928056
56,10,9,Ticks_ISO_T2_8,69,9999,9999,9999,2077728836
56,10,9,Ticks_ISO_T2_8,70,9999,9999,9999,2078528596
56,10,9,Ticks_ISO_T2_8,71,9999,9999,9999,2079328328
56,10,9,Ticks_ISO_T2_8,72,9999,9999,9999,2080128060
56,10,9,Ticks_ISO_T2_8,73,9999,9999,9999,2080928840
56,10,9,Ticks_ISO_T2_8,74,9999,9999,9999,2081728572
56,10,9,Ticks_ISO_T2_8,75,9999,9999,9999,2082528308
56,10,9,Ticks_ISO_T2_8,76,9999,9999,9999,2083328112
56,10,9,Ticks_ISO_T2_8,77,9999,9999,9999,2084128820
56,10,9,Ticks_ISO_T2_8,78,9999,9999,9999,2084928576
56,10,9,Ticks_ISO_T2_8,79,9999,9999,9999,2085728372
56,10,9,Ticks_ISO_T2_8,80,9999,9999,9999,2086528048
56,10,9,Ticks_ISO_T2_8,81,9999,9999,9999,2087328828
56,10,9,Ticks_ISO_T2_8,82,9999,9999,9999,2088128568
56,10,9,Ticks_ISO_T2_8,83,9999,9999,9999,2088928372
56,10,9,Ticks_ISO_T2_8,84,9999,9999,9999,2089728108
56,10,9,Ticks_ISO_T2_8,85,9999,9999,9999,2090528888
56,10,9,Ticks_ISO_T2_8,86,9999,9999,9999,2091328564
56,10,9,Ticks_ISO_T2_8,87,9999,9999,9999,2092128372
56,10,9,Ticks_ISO_T2_8,88,9999,9999,9999,2092928112
56,10,9,Ticks_ISO_T2_8,89,9999,9999,9999,2093728816
56,10,9,Ticks_ISO_T2_8,90,9999,9999,9999,2094528620
56,10,9,Ticks_ISO_T2_8,91,9999,9999,9999,2095328352
56,10,9,Ticks_ISO_T2_8,92,9999,9999,9999,2096128092
56,10,9,Ticks_ISO_T2_8,93,9999,9999,9999,2096928872
56,10,9,Ticks_ISO_T2_8,94,9999,9999,9999,2097728624
56,10,9,Ticks_ISO_T2_8,95,9999,9999,9999,2098528368
56,10,9,Ticks_ISO_T2_8,96,9999,9999,9999,2099328100
56,10,9,Ticks_ISO_T2_8,97,9999,9999,9999,2100128876
56,10,9,Ticks_ISO_T2_8,98,9999,9999,9999,2100928608
56,10,9,Ticks_ISO_T2_8,99,9999,9999,9999,2101728340
56,10,9,Ticks_ISO_T2_8,100,9999,9999,9999,2102528076
56,10,9,Ticks_ISO_T2_8,101,9999,9999,9999,2103328856
56,10,9,Ticks_ISO_T2_8,102,9999,9999,9999,2104128616
56,10,9,Ticks_ISO_T2_8,103,9999,9999,9999,2104928348
56,10,9,Ticks_ISO_T2_8,104,9999,9999,9999,2105728064
56,10,9,Ticks_ISO_T2_8,105,9999,9999,9999,2106528844
56,10,9,Ticks_ISO_T2_8,106,9999,9999,9999,2107328600
56,10,9,Ticks_ISO_T2_8,107,9999,9999,9999,2108128328
56,10,9,Ticks_ISO_T2_8,108,9999,9999,9999,2108928060
56,10,9,Ticks_ISO_T2_8,109,9999,9999,9999,2109728872
56,10,9,Ticks_ISO_T2_8,110,9999,9999,9999,2110528596
56,10,9,Ticks_ISO_T2_8,111,9999,9999,9999,2111328328
56,10,9,Ticks_ISO_T2_8,112,9999,9999,9999,2112128064
56,10,9,Ticks_ISO_T2_8,113,9999,9999,9999,2112928848
56,10,9,Ticks_ISO_T2_8,114,9999,9999,9999,2113728576
56,10,9,Ticks_ISO_T2_8,115,9999,9999,9999,2114528312
56,10,9,Ticks_ISO_T2_8,116,9999,9999,9999,2115328120
56,10,9,Ticks_ISO_T2_8,117,9999,9999,9999,2116128836
56,10,9,Ticks_ISO_T2_8,118,9999,9999,9999,2116928588
56,10,9,Ticks_ISO_T2_8,119,9999,9999,9999,2117728316
56,11,25,Jits_Pract_5,0,5,56,103,2155421024
56,11,25,Jits_Pract_5,1,5,63,98,2155424200
56,11,25,Jits_Pract_5,2,5,80,127,2155427244
56,11,25,Jits_Pract_5,0,5,56,103,2155920676
56,11,25,Jits_Pract_5,1,5,63,98,2155923696
56,11,25,Jits_Pract_5,2,5,80,127,2155926744
56,11,25,Jits_Pract_5,0,5,56,103,2156420344
56,11,25,Jits_Pract_5,1,5,80,127,2156430688
56,11,25,Jits_Pract_5,2,5,63,98,2156451296
56,11,25,Jits_Pract_5,0,5,63,98,2156871160
56,11,25,Jits_Pract_5,1,5,80,127,2156900764
56,11,25,Jits_Pract_5,2,5,56,103,2156911108
56,11,25,Jits_Pract_5,0,5,80,127,2157431128
56,11,25,Jits_Pract_5,1,5,56,103,2157441324
56,11,25,Jits_Pract_5,2,5,63,98,2157471148
56,11,25,Jits_Pract_5,0,5,63,98,2157920612
56,11,25,Jits_Pract_5,1,5,56,103,2157951484
56,11,25,Jits_Pract_5,2,5,80,127,2157960412
56,11,25,Jits_Pract_5,0,5,56,103,2158371048
56,11,25,Jits_Pract_5,1,5,63,98,2158421396
56,11,25,Jits_Pract_5,2,5,80,127,2158440808
56,11,25,Jits_Pract_5,0,5,80,127,2158871064
56,11,25,Jits_Pract_5,1,5,63,98,2158921068
56,11,25,Jits_Pract_5,2,5,56,103,2158961300
56,11,25,Jits_Pract_5,0,5,56,103,2159370584
56,11,25,Jits_Pract_5,1,5,63,98,2159401332
56,11,25,Jits_Pract_5,2,5,80,127,2159471012
56,11,25,Jits_Pract_5,0,5,56,103,2159871448
56,11,25,Jits_Pract_5,1,5,80,127,2159930668
56,11,25,Jits_Pract_5,2,5,63,98,2159960492
56,11,25,Jits_Pract_5,0,5,56,103,2160381160
56,11,25,Jits_Pract_5,1,5,63,98,2160390388
56,11,25,Jits_Pract_5,2,5,80,127,2160430496
56,11,25,Jits_Pract_5,0,5,63,98,2160870864
56,11,25,Jits_Pract_5,1,5,80,127,2160950760
56,11,25,Jits_Pract_5,2,5,56,103,2160961104
56,11,25,Jits_Pract_5,0,5,63,98,2161420644
56,11,25,Jits_Pract_5,1,5,56,103,2161460532
56,11,25,Jits_Pract_5,2,5,80,127,2161463596
56,11,25,Jits_Pract_5,0,5,56,103,2161880360
56,11,25,Jits_Pract_5,1,5,63,98,2161890556
56,11,25,Jits_Pract_5,2,5,80,127,2161930568
56,11,25,Jits_Pract_5,0,5,56,103,2162371104
56,11,25,Jits_Pract_5,1,5,63,98,2162374020
56,11,25,Jits_Pract_5,2,5,80,127,2162391416
56,11,25,Jits_Pract_5,0,9999,9999,9999,2155668536
56,11,25,Jits_Pract_5,1,9999,9999,9999,2156168260
56,11,25,Jits_Pract_5,2,9999,9999,9999,2156668980
56,11,25,Jits_Pract_5,3,9999,9999,9999,2157168720
56,11,25,Jits_Pract_5,4,9999,9999,9999,2157668456
56,11,25,Jits_Pract_5,5,9999,9999,9999,2158168132
56,11,25,Jits_Pract_5,6,9999,9999,9999,2158668904
56,11,25,Jits_Pract_5,7,9999,9999,9999,2159168572
56,11,25,Jits_Pract_5,8,9999,9999,9999,2159668320
56,11,25,Jits_Pract_5,9,9999,9999,9999,2160169036
56,11,25,Jits_Pract_5,10,9999,9999,9999,2160668756
56,11,25,Jits_Pract_5,11,9999,9999,9999,2161168504
56,11,25,Jits_Pract_5,12,9999,9999,9999,2161668152
56,11,25,Jits_Pract_5,13,9999,9999,9999,2162168924
56,11,25,Jits_Pract_5,14,9999,9999,9999,2162668656
56,12,25,Jits_Pract_5,0,5,56,103,2201466196
56,12,25,Jits_Pract_5,1,5,63,98,2201469292
56,12,25,Jits_Pract_5,2,5,80,127,2201472416
56,12,25,Jits_Pract_5,0,5,56,103,2201966072
56,12,25,Jits_Pract_5,1,5,63,98,2201969172
56,12,25,Jits_Pract_5,2,5,80,127,2201972144
56,12,25,Jits_Pract_5,0,1,48,50,2202448176
56,12,25,Jits_Pract_5,1,5,56,103,2202465508
56,12,25,Jits_Pract_5,2,5,80,127,2202475856
56,12,25,Jits_Pract_5,3,5,63,98,2202496388
56,12,25,Jits_Pract_5,0,5,63,98,2202916356
56,12,25,Jits_Pract_5,1,5,80,127,2202946032
56,12,25,Jits_Pract_5,2,5,56,103,2202956076
56,12,25,Jits_Pract_5,3,1,48,53,2202996280
56,12,25,Jits_Pract_5,0,1,48,59,2203458640
56,12,25,Jits_Pract_5,1,5,80,127,2203476272
56,12,25,Jits_Pract_5,2,5,56,103,2203485572
56,12,25,Jits_Pract_5,3,5,63,98,2203516220
56,12,25,Jits_Pract_5,0,5,63,98,2203965784
56,12,25,Jits_Pract_5,1,5,56,103,2203995460
56,12,25,Jits_Pract_5,2,5,80,127,2204005732
56,12,25,Jits_Pract_5,3,1,48,59,2204007596
56,12,25,Jits_Pract_5,0,5,56,103,2204416380
56,12,25,Jits_Pract_5,1,5,63,98,2204465632
56,12,25,Jits_Pract_5,2,5,80,127,2204486240
56,12,25,Jits_Pract_5,3,1,48,60,2204516412
56,12,25,Jits_Pract_5,0,5,80,127,2204916380
56,12,25,Jits_Pract_5,1,5,63,98,2204966236
56,12,25,Jits_Pract_5,2,1,48,60,2204985768
56,12,25,Jits_Pract_5,3,5,56,103,2205006240
56,12,25,Jits_Pract_5,0,5,56,103,2205416084
56,12,25,Jits_Pract_5,1,5,63,98,2205445388
56,12,25,Jits_Pract_5,2,1,48,61,2205503516
56,12,25,Jits_Pract_5,3,5,80,127,2205516136
56,12,25,Jits_Pract_5,0,5,56,103,2205915488
56,12,25,Jits_Pract_5,1,1,48,60,2205966036
56,12,25,Jits_Pract_5,2,5,80,127,2205976096
56,12,25,Jits_Pract_5,3,5,63,98,2206005648
56,12,25,Jits_Pract_5,0,5,56,103,2206425384
56,12,25,Jits_Pract_5,1,5,63,98,2206435580
56,12,25,Jits_Pract_5,2,5,80,127,2206475592
56,12,25,Jits_Pract_5,3,1,48,64,2206477004
56,12,25,Jits_Pract_5,0,5,63,98,2206916168
56,12,25,Jits_Pract_5,1,1,48,65,2206973744
56,12,25,Jits_Pract_5,2,5,80,127,2206996108
56,12,25,Jits_Pract_5,3,5,56,103,2207006104
56,12,25,Jits_Pract_5,0,1,48,59,2207447748
56,12,25,Jits_Pract_5,1,5,63,98,2207465980
56,12,25,Jits_Pract_5,2,5,56,103,2207505916
56,12,25,Jits_Pract_5,3,5,80,127,2207509132
56,12,25,Jits_Pract_5,0,5,56,103,2207925664
56,12,25,Jits_Pract_5,1,5,63,98,2207936084
56,12,25,Jits_Pract_5,2,1,48,70,2207961376
56,12,25,Jits_Pract_5,3,5,80,127,2207975864
56,12,25,Jits_Pract_5,0,5,56,103,2208426412
56,12,25,Jits_Pract_5,1,5,63,98,2208429408
56,12,25,Jits_Pract_5,2,5,80,127,2208445900
56,12,25,Jits_Pract_5,3,1,48,65,2208446940
56,12,25,Jits_Pract_5,0,9999,9999,9999,2201713780
56,12,25,Jits_Pract_5,1,9999,9999,9999,2202213436
56,12,25,Jits_Pract_5,2,9999,9999,9999,2202713160
56,12,25,Jits_Pract_5,3,9999,9999,9999,2203213892
56,12,25,Jits_Pract_5,4,9999,9999,9999,2203713660
56,12,25,Jits_Pract_5,5,9999,9999,9999,2204213356
56,12,25,Jits_Pract_5,6,9999,9999,9999,2204714092
56,12,25,Jits_Pract_5,7,9999,9999,9999,2205213796
56,12,25,Jits_Pract_5,8,9999,9999,9999,2205713480
56,12,25,Jits_Pract_5,9,9999,9999,9999,2206213180
56,12,25,Jits_Pract_5,10,9999,9999,9999,2206713928
56,12,25,Jits_Pract_5,11,9999,9999,9999,2207213636
56,12,25,Jits_Pract_5,12,9999,9999,9999,2207713400
56,12,25,Jits_Pract_5,13,9999,9999,9999,2208214136
56,12,25,Jits_Pract_5,14,9999,9999,9999,2208724088
56,13,24,Jits_Pract_8,0,5,56,103,2215482968
56,13,24,Jits_Pract_8,1,5,63,98,2215486144
56,13,24,Jits_Pract_8,2,5,80,127,2215489264
56,13,24,Jits_Pract_8,0,5,56,103,2216282684
56,13,24,Jits_Pract_8,1,5,63,98,2216285632
56,13,24,Jits_Pract_8,2,5,80,127,2216288904
56,13,24,Jits_Pract_8,0,5,80,127,2217022708
56,13,24,Jits_Pract_8,1,1,48,60,2217081348
56,13,24,Jits_Pract_8,2,5,63,98,2217112832
56,13,24,Jits_Pract_8,3,5,56,103,2217123180
56,13,24,Jits_Pract_8,0,5,56,103,2217843004
56,13,24,Jits_Pract_8,1,5,63,98,2217853276
56,13,24,Jits_Pract_8,2,1,48,66,2217867332
56,13,24,Jits_Pract_8,3,5,80,127,2217943472
56,13,24,Jits_Pract_8,0,5,63,98,2218613032
56,13,24,Jits_Pract_8,1,5,80,127,2218642932
56,13,24,Jits_Pract_8,2,5,56,103,2218672756
56,13,24,Jits_Pract_8,3,1,48,66,2218688008
56,13,24,Jits_Pract_8,0,5,56,103,2219412784
56,13,24,Jits_Pract_8,1,1,48,60,2219437776
56,13,24,Jits_Pract_8,2,5,80,127,2219513176
56,13,24,Jits_Pract_8,3,5,63,98,2219563536
56,13,24,Jits_Pract_8,0,5,56,103,2220212784
56,13,24,Jits_Pract_8,1,1,48,45,2220252692
56,13,24,Jits_Pract_8,2,5,80,127,2220262680
56,13,24,Jits_Pract_8,3,5,63,98,2220302840
56,13,24,Jits_Pract_8,0,1,48,46,2220999776
56,13,24,Jits_Pract_8,1,5,80,127,2221043116
56,13,24,Jits_Pract_8,2,5,63,98,2221072716
56,13,24,Jits_Pract_8,3,5,56,103,2221143600
56,13,24,Jits_Pract_8,0,1,48,45,2221839988
56,13,24,Jits_Pract_8,1,5,63,98,2221872716
56,13,24,Jits_Pract_8,2,5,56,103,2221903068
56,13,24,Jits_Pract_8,3,5,80,127,2221962764
56,13,24,Jits_Pract_8,0,5,56,103,2222612820
56,13,24,Jits_Pract_8,1,5,80,127,2222615884
56,13,24,Jits_Pract_8,2,1,48,53,2222694100
56,13,24,Jits_Pract_8,3,5,63,98,2222732560
56,13,24,Jits_Pract_8,0,1,48,57,2223457744
56,13,24,Jits_Pract_8,1,5,56,103,2223492688
56,13,24,Jits_Pract_8,2,5,80,127,2223533748
56,13,24,Jits_Pract_8,3,5,63,98,2223542600
56,13,24,Jits_Pract_8,0,5,56,103,2224253424
56,13,24,Jits_Pract_8,1,1,48,57,2224270320
56,13,24,Jits_Pract_8,2,5,80,127,2224272756
56,13,24,Jits_Pract_8,3,5,63,98,2224352696
56,13,24,Jits_Pract_8,0,5,80,127,2225042788
56,13,24,Jits_Pract_8,1,1,48,54,2225091164
56,13,24,Jits_Pract_8,2,5,56,103,2225143180
56,13,24,Jits_Pract_8,3,5,63,98,2225153672
56,13,24,Jits_Pract_8,0,5,63,98,2225812820
56,13,24,Jits_Pract_8,1,5,80,127,2225873360
56,13,24,Jits_Pract_8,2,5,56,103,2225882732
56,13,24,Jits_Pract_8,3,1,48,54,2225921292
56,13,24,Jits_Pract_8,0,5,56,103,2226612572
56,13,24,Jits_Pract_8,1,1,48,51,2226673980
56,13,24,Jits_Pract_8,2,5,63,98,2226683364
56,13,24,Jits_Pract_8,3,5,80,127,2226686728
56,13,24,Jits_Pract_8,0,9999,9999,9999,2215880828
56,13,24,Jits_Pract_8,1,9999,9999,9999,2216680544
56,13,24,Jits_Pract_8,2,9999,9999,9999,2217480256
56,13,24,Jits_Pract_8,3,9999,9999,9999,2218281024
56,13,24,Jits_Pract_8,4,9999,9999,9999,2219080792
56,13,24,Jits_Pract_8,5,9999,9999,9999,2219880552
56,13,24,Jits_Pract_8,6,9999,9999,9999,2220680248
56,13,24,Jits_Pract_8,7,9999,9999,9999,2221481068
56,13,24,Jits_Pract_8,8,9999,9999,9999,2222280828
56,13,24,Jits_Pract_8,9,9999,9999,9999,2223080500
56,13,24,Jits_Pract_8,10,9999,9999,9999,2223880276
56,13,24,Jits_Pract_8,11,9999,9999,9999,2224681032
56,13,24,Jits_Pract_8,12,9999,9999,9999,2225480812
56,13,24,Jits_Pract_8,13,9999,9999,9999,2226280504
56,13,24,Jits_Pract_8,14,9999,9999,9999,2227080248
56,14,19,Jits_Linear_5,0,5,56,103,2252728632
56,14,19,Jits_Linear_5,1,5,63,98,2252731736
56,14,19,Jits_Linear_5,2,5,80,127,2252735004
56,14,19,Jits_Linear_5,0,1,48,46,2253203012
56,14,19,Jits_Linear_5,1,5,56,103,2253209320
56,14,19,Jits_Linear_5,2,5,63,98,2253212268
56,14,19,Jits_Linear_5,3,5,80,127,2253215460
56,14,19,Jits_Linear_5,0,1,48,56,2253665960
56,14,19,Jits_Linear_5,1,5,56,103,2253689148
56,14,19,Jits_Linear_5,2,5,80,127,2253698376
56,14,19,Jits_Linear_5,3,5,63,98,2253719204
56,14,19,Jits_Linear_5,0,5,63,98,2254119240
56,14,19,Jits_Linear_5,1,5,80,127,2254149068
56,14,19,Jits_Linear_5,2,5,56,103,2254159116
56,14,19,Jits_Linear_5,3,1,48,58,2254163728
56,14,19,Jits_Linear_5,0,1,48,54,2254614968
56,14,19,Jits_Linear_5,1,5,80,127,2254659080
56,14,19,Jits_Linear_5,2,5,56,103,2254669132
56,14,19,Jits_Linear_5,3,5,63,98,2254698956
56,14,19,Jits_Linear_5,0,5,63,98,2255139152
56,14,19,Jits_Linear_5,1,5,56,103,2255169052
56,14,19,Jits_Linear_5,2,1,48,65,2255174196
56,14,19,Jits_Linear_5,3,5,80,127,2255179096
56,14,19,Jits_Linear_5,0,5,56,103,2255578428
56,14,19,Jits_Linear_5,1,5,63,98,2255628784
56,14,19,Jits_Linear_5,2,5,80,127,2255649192
56,14,19,Jits_Linear_5,3,1,48,62,2255665196
56,14,19,Jits_Linear_5,0,5,80,127,2256068912
56,14,19,Jits_Linear_5,1,1,48,63,2256112864
56,14,19,Jits_Linear_5,2,5,63,98,2256119036
56,14,19,Jits_Linear_5,3,5,56,103,2256159076
56,14,19,Jits_Linear_5,0,5,56,103,2256558504
56,14,19,Jits_Linear_5,1,5,63,98,2256589300
56,14,19,Jits_Linear_5,2,1,48,59,2256605228
56,14,19,Jits_Linear_5,3,5,80,127,2256659048
56,14,19,Jits_Linear_5,0,5,56,103,2257049064
56,14,19,Jits_Linear_5,1,1,48,61,2257075104
56,14,19,Jits_Linear_5,2,5,80,127,2257109304
56,14,19,Jits_Linear_5,3,5,63,98,2257139128
56,14,19,Jits_Linear_5,0,5,56,103,2257548916
56,14,19,Jits_Linear_5,1,5,63,98,2257558892
56,14,19,Jits_Linear_5,2,1,48,57,2257570704
56,14,19,Jits_Linear_5,3,5,80,127,2257599048
56,14,19,Jits_Linear_5,0,5,63,98,2258039108
56,14,19,Jits_Linear_5,1,1,48,57,2258051740
56,14,19,Jits_Linear_5,2,5,80,127,2258118900
56,14,19,Jits_Linear_5,3,5,56,103,2258129244
56,14,19,Jits_Linear_5,0,5,63,98,2258588996
56,14,19,Jits_Linear_5,1,1,48,57,2258606808
56,14,19,Jits_Linear_5,2,5,56,103,2258628928
56,14,19,Jits_Linear_5,3,5,80,127,2258631996
56,14,19,Jits_Linear_5,0,5,56,103,2259049040
56,14,19,Jits_Linear_5,1,5,63,98,2259059164
56,14,19,Jits_Linear_5,2,1,48,60,2259082436
56,14,19,Jits_Linear_5,3,5,80,127,2259098944
56,14,19,Jits_Linear_5,0,5,56,103,2259539216
56,14,19,Jits_Linear_5,1,5,63,98,2259542364
56,14,19,Jits_Linear_5,2,5,80,127,2259558932
56,14,19,Jits_Linear_5,3,1,48,57,2259605576
56,14,19,Jits_Linear_5,0,1,48,66,2260035124
56,14,19,Jits_Linear_5,1,5,80,127,2260058536
56,14,19,Jits_Linear_5,2,5,56,103,2260068808
56,14,19,Jits_Linear_5,3,5,63,98,2260139596
56,14,19,Jits_Linear_5,0,5,63,98,2260559200
56,14,19,Jits_Linear_5,1,1,48,76,2260560540
56,14,19,Jits_Linear_5,2,5,56,103,2260578756
56,14,19,Jits_Linear_5,3,5,80,127,2260658912
56,14,19,Jits_Linear_5,0,5,56,103,2261079496
56,14,19,Jits_Linear_5,1,1,48,67,2261103364
56,14,19,Jits_Linear_5,2,5,80,127,2261119428
56,14,19,Jits_Linear_5,3,5,63,98,2261128508
56,14,19,Jits_Linear_5,0,5,80,127,2261579048
56,14,19,Jits_Linear_5,1,1,48,66,2261597084
56,14,19,Jits_Linear_5,2,5,63,98,2261608944
56,14,19,Jits_Linear_5,3,5,56,103,2261648732
56,14,19,Jits_Linear_5,0,5,56,103,2262108496
56,14,19,Jits_Linear_5,1,1,48,66,2262116176
56,14,19,Jits_Linear_5,2,5,63,98,2262139212
56,14,19,Jits_Linear_5,3,5,80,127,2262189564
56,14,19,Jits_Linear_5,0,5,80,127,2262618840
56,14,19,Jits_Linear_5,1,1,48,69,2262649756
56,14,19,Jits_Linear_5,2,5,56,103,2262658476
56,14,19,Jits_Linear_5,3,5,63,98,2262668892
56,14,19,Jits_Linear_5,0,5,80,127,2263119216
56,14,19,Jits_Linear_5,1,5,63,98,2263159156
56,14,19,Jits_Linear_5,2,1,48,73,2263176816
56,14,19,Jits_Linear_5,3,5,56,103,2263218496
56,14,19,Jits_Linear_5,0,5,56,103,2263639372
56,14,19,Jits_Linear_5,1,5,80,127,2263648816
56,14,19,Jits_Linear_5,2,1,48,63,2263708432
56,14,19,Jits_Linear_5,3,5,63,98,2263728756
56,14,19,Jits_Linear_5,0,5,80,127,2264158776
56,14,19,Jits_Linear_5,1,1,48,64,2264210296
56,14,19,Jits_Linear_5,2,5,63,98,2264219016
56,14,19,Jits_Linear_5,3,5,56,103,2264248840
56,14,19,Jits_Linear_5,0,5,56,103,2264678856
56,14,19,Jits_Linear_5,1,1,48,71,2264736216
56,14,19,Jits_Linear_5,2,5,80,127,2264739244
56,14,19,Jits_Linear_5,3,5,63,98,2264779260
56,14,19,Jits_Linear_5,0,1,48,76,2265257660
56,14,19,Jits_Linear_5,1,5,56,103,2265259324
56,14,19,Jits_Linear_5,2,5,63,98,2265268696
56,14,19,Jits_Linear_5,3,5,80,127,2265271912
56,14,19,Jits_Linear_5,0,5,80,127,2265738852
56,14,19,Jits_Linear_5,1,1,48,69,2265778988
56,14,19,Jits_Linear_5,2,5,63,98,2265828612
56,14,19,Jits_Linear_5,3,5,56,103,2265838956
56,14,19,Jits_Linear_5,0,5,56,103,2266268960
56,14,19,Jits_Linear_5,1,5,63,98,2266271980
56,14,19,Jits_Linear_5,2,5,80,127,2266275252
56,14,19,Jits_Linear_5,3,1,48,70,2266301684
56,14,19,Jits_Linear_5,0,5,80,127,2266818848
56,14,19,Jits_Linear_5,1,1,48,68,2266839504
56,14,19,Jits_Linear_5,2,5,63,98,2266869192
56,14,19,Jits_Linear_5,3,5,56,103,2266898868
56,14,19,Jits_Linear_5,0,5,56,103,2267328740
56,14,19,Jits_Linear_5,1,5,80,127,2267339084
56,14,19,Jits_Linear_5,2,1,48,65,2267355908
56,14,19,Jits_Linear_5,3,5,63,98,2267408616
56,14,19,Jits_Linear_5,0,5,56,103,2267868748
56,14,19,Jits_Linear_5,1,5,63,98,2267888988
56,14,19,Jits_Linear_5,2,1,48,70,2267898848
56,14,19,Jits_Linear_5,3,5,80,127,2267949768
56,14,19,Jits_Linear_5,0,5,80,127,2268398936
56,14,19,Jits_Linear_5,1,1,48,70,2268414564
56,14,19,Jits_Linear_5,2,5,63,98,2268468640
56,14,19,Jits_Linear_5,3,5,56,103,2268489024
56,14,19,Jits_Linear_5,0,5,80,127,2268959052
56,14,19,Jits_Linear_5,1,5,56,103,2268969248
56,14,19,Jits_Linear_5,2,5,63,98,2268978696
56,14,19,Jits_Linear_5,3,1,48,58,2268981520
56,14,19,Jits_Linear_5,0,5,80,127,2269488792
56,14,19,Jits_Linear_5,1,5,56,103,2269508956
56,14,19,Jits_Linear_5,2,1,48,64,2269512076
56,14,19,Jits_Linear_5,3,5,63,98,2269578632
56,14,19,Jits_Linear_5,0,1,48,63,2270029668
56,14,19,Jits_Linear_5,1,5,56,103,2270039512
56,14,19,Jits_Linear_5,2,5,80,127,2270069112
56,14,19,Jits_Linear_5,3,5,63,98,2270088672
56,14,19,Jits_Linear_5,0,5,63,98,2270578992
56,14,19,Jits_Linear_5,1,1,48,69,2270601296
56,14,19,Jits_Linear_5,2,5,56,103,2270638556
56,14,19,Jits_Linear_5,3,5,80,127,2270669052
56,14,19,Jits_Linear_5,0,1,48,74,2271103592
56,14,19,Jits_Linear_5,1,5,63,98,2271118828
56,14,19,Jits_Linear_5,2,5,80,127,2271122048
56,14,19,Jits_Linear_5,3,5,56,103,2271208800
56,14,19,Jits_Linear_5,0,1,48,72,2271685984
56,14,19,Jits_Linear_5,1,5,56,103,2271689236
56,14,19,Jits_Linear_5,2,5,63,98,2271718768
56,14,19,Jits_Linear_5,3,5,80,127,2271758856
56,14,19,Jits_Linear_5,0,1,48,65,2272238460
56,14,19,Jits_Linear_5,1,5,63,98,2272240028
56,14,19,Jits_Linear_5,2,5,56,103,2272278772
56,14,19,Jits_Linear_5,3,5,80,127,2272299404
56,14,19,Jits_Linear_5,0,1,48,57,2272748080
56,14,19,Jits_Linear_5,1,5,63,98,2272799228
56,14,19,Jits_Linear_5,2,5,56,103,2272839096
56,14,19,Jits_Linear_5,3,5,80,127,2272849720
56,14,19,Jits_Linear_5,0,1,48,62,2273291896
56,14,19,Jits_Linear_5,1,5,80,127,2273328588
56,14,19,Jits_Linear_5,2,5,63,98,2273399156
56,14,19,Jits_Linear_5,3,5,56,103,2273418644
56,14,19,Jits_Linear_5,0,1,48,65,2273804616
56,14,19,Jits_Linear_5,1,5,56,103,2273879520
56,14,19,Jits_Linear_5,2,5,80,127,2273898992
56,14,19,Jits_Linear_5,3,5,63,98,2273938932
56,14,19,Jits_Linear_5,0,1,48,66,2274365680
56,14,19,Jits_Linear_5,1,5,63,98,2274448732
56,14,19,Jits_Linear_5,2,5,80,127,2274469104
56,14,19,Jits_Linear_5,3,5,56,103,2274509044
56,14,19,Jits_Linear_5,0,1,48,70,2274969668
56,14,19,Jits_Linear_5,1,5,63,98,2275008880
56,14,19,Jits_Linear_5,2,5,56,103,2275029636
56,14,19,Jits_Linear_5,3,5,80,127,2275038564
56,14,19,Jits_Linear_5,0,1,48,74,2275562556
56,14,19,Jits_Linear_5,1,5,80,127,2275569024
56,14,19,Jits_Linear_5,2,5,56,103,2275588584
56,14,19,Jits_Linear_5,3,5,63,98,2275619108
56,14,19,Jits_Linear_5,0,1,48,64,2276107196
56,14,19,Jits_Linear_5,1,5,56,103,2276209048
56,14,19,Jits_Linear_5,2,5,80,127,2276212340
56,14,19,Jits_Linear_5,3,5,63,98,2276228464
56,14,19,Jits_Linear_5,0,5,63,98,2276698636
56,14,19,Jits_Linear_5,1,5,56,103,2276729212
56,14,19,Jits_Linear_5,2,5,80,127,2276788480
56,14,19,Jits_Linear_5,3,1,48,57,2276830708
56,14,19,Jits_Linear_5,0,1,48,57,2277315384
56,14,19,Jits_Linear_5,1,5,63,98,2277348688
56,14,19,Jits_Linear_5,2,5,56,103,2277358960
56,14,19,Jits_Linear_5,3,5,80,127,2277369380
56,14,19,Jits_Linear_5,0,5,56,103,2277868916
56,14,19,Jits_Linear_5,1,1,48,59,2277886340
56,14,19,Jits_Linear_5,2,5,80,127,2277898588
56,14,19,Jits_Linear_5,3,5,63,98,2277908784
56,14,19,Jits_Linear_5,0,1,48,49,2278440536
56,14,19,Jits_Linear_5,1,5,63,98,2278479372
56,14,19,Jits_Linear_5,2,5,56,103,2278488372
56,14,19,Jits_Linear_5,3,5,80,127,2278508908
56,14,19,Jits_Linear_5,0,5,56,103,2278978920
56,14,19,Jits_Linear_5,1,5,63,98,2279039608
56,14,19,Jits_Linear_5,2,5,80,127,2279042824
56,14,19,Jits_Linear_5,3,1,48,59,2279047980
56,14,19,Jits_Linear_5,0,1,48,64,2279552896
56,14,19,Jits_Linear_5,1,5,80,127,2279579072
56,14,19,Jits_Linear_5,2,5,56,103,2279589640
56,14,19,Jits_Linear_5,3,5,63,98,2279658936
56,14,19,Jits_Linear_5,0,1,48,69,2280138596
56,14,19,Jits_Linear_5,1,5,80,127,2280149336
56,14,19,Jits_Linear_5,2,5,56,103,2280218972
56,14,19,Jits_Linear_5,3,5,63,98,2280229900
56,14,19,Jits_Linear_5,0,1,48,56,2280721596
56,14,19,Jits_Linear_5,1,5,63,98,2280769000
56,14,19,Jits_Linear_5,2,5,56,103,2280779120
56,14,19,Jits_Linear_5,3,5,80,127,2280798532
56,14,19,Jits_Linear_5,0,5,80,127,2281299484
56,14,19,Jits_Linear_5,1,1,48,54,2281306956
56,14,19,Jits_Linear_5,2,5,63,98,2281358676
56,14,19,Jits_Linear_5,3,5,56,103,2281398764
56,14,19,Jits_Linear_5,0,5,56,103,2281929104
56,14,19,Jits_Linear_5,1,1,48,64,2281933272
56,14,19,Jits_Linear_5,2,5,63,98,2281939444
56,14,19,Jits_Linear_5,3,5,80,127,2281979456
56,14,19,Jits_Linear_5,0,5,56,103,2282479080
56,14,19,Jits_Linear_5,1,1,48,61,2282488124
56,14,19,Jits_Linear_5,2,5,80,127,2282508676
56,14,19,Jits_Linear_5,3,5,63,98,2282558904
56,14,19,Jits_Linear_5,0,1,48,50,2283055560
56,14,19,Jits_Linear_5,1,5,56,103,2283108716
56,14,19,Jits_Linear_5,2,5,63,98,2283148728
56,14,19,Jits_Linear_5,3,5,80,127,2283151948
56,14,19,Jits_Linear_5,0,1,48,65,2283654368
56,14,19,Jits_Linear_5,1,5,56,103,2283698456
56,14,19,Jits_Linear_5,2,5,63,98,2283708728
56,14,19,Jits_Linear_5,3,5,80,127,2283729484
56,14,19,Jits_Linear_5,0,1,48,63,2284245308
56,14,19,Jits_Linear_5,1,5,56,103,2284248412
56,14,19,Jits_Linear_5,2,5,80,127,2284251628
56,14,19,Jits_Linear_5,3,5,63,98,2284289548
56,14,19,Jits_Linear_5,0,1,48,56,2284799008
56,14,19,Jits_Linear_5,1,5,63,98,2284888368
56,14,19,Jits_Linear_5,2,5,56,103,2284919448
56,14,19,Jits_Linear_5,3,5,80,127,2284938564
56,14,19,Jits_Linear_5,0,5,80,127,2285458716
56,14,19,Jits_Linear_5,1,5,56,103,2285469208
56,14,19,Jits_Linear_5,2,5,63,98,2285479552
56,14,19,Jits_Linear_5,3,1,48,53,2285494364
56,14,19,Jits_Linear_5,0,1,48,53,2285995580
56,14,19,Jits_Linear_5,1,5,56,103,2286058852
56,14,19,Jits_Linear_5,2,5,80,127,2286098928
56,14,19,Jits_Linear_5,3,5,63,98,2286128552
56,14,19,Jits_Linear_5,0,1,48,59,2286622068
56,14,19,Jits_Linear_5,1,5,63,98,2286669444
56,14,19,Jits_Linear_5,2,5,80,127,2286679348
56,14,19,Jits_Linear_5,3,5,56,103,2286688644
56,14,19,Jits_Linear_5,0,5,56,103,2287248780
56,14,19,Jits_Linear_5,1,1,48,48,2287275496
56,14,19,Jits_Linear_5,2,5,63,98,2287319284
56,14,19,Jits_Linear_5,3,5,80,127,2287328732
56,14,19,Jits_Linear_5,0,5,80,127,2287858996
56,14,19,Jits_Linear_5,1,1,48,49,2287859960
56,14,19,Jits_Linear_5,2,5,56,103,2287869408
56,14,19,Jits_Linear_5,3,5,63,98,2287918364
56,14,19,Jits_Linear_5,0,1,48,54,2288452860
56,14,19,Jits_Linear_5,1,5,80,127,2288478516
56,14,19,Jits_Linear_5,2,5,56,103,2288539208
56,14,19,Jits_Linear_5,3,5,63,98,2288568572
56,14,19,Jits_Linear_5,0,5,56,103,2289088868
56,14,19,Jits_Linear_5,1,5,80,127,2289092084
56,14,19,Jits_Linear_5,2,1,48,48,2289101580
56,14,19,Jits_Linear_5,3,5,63,98,2289128728
56,14,19,Jits_Linear_5,0,1,48,52,2289704148
56,14,19,Jits_Linear_5,1,5,56,103,2289729200
56,14,19,Jits_Linear_5,2,5,63,98,2289758508
56,14,19,Jits_Linear_5,3,5,80,127,2289769000
56,14,19,Jits_Linear_5,0,1,48,53,2290303480
56,14,19,Jits_Linear_5,1,5,63,98,2290349444
56,14,19,Jits_Linear_5,2,5,80,127,2290358664
56,14,19,Jits_Linear_5,3,5,56,103,2290369308
56,14,19,Jits_Linear_5,0,5,80,127,2290908476
56,14,19,Jits_Linear_5,1,1,48,60,2290939768
56,14,19,Jits_Linear_5,2,5,56,103,2290958824
56,14,19,Jits_Linear_5,3,5,63,98,2290961816
56,14,19,Jits_Linear_5,0,1,48,61,2291520316
56,14,19,Jits_Linear_5,1,5,56,103,2291558632
56,14,19,Jits_Linear_5,2,5,80,127,2291579240
56,14,19,Jits_Linear_5,3,5,63,98,2291588464
56,14,19,Jits_Linear_5,0,1,48,62,2292152236
56,14,19,Jits_Linear_5,1,5,63,98,2292158860
56,14,19,Jits_Linear_5,2,5,56,103,2292188464
56,14,19,Jits_Linear_5,3,5,80,127,2292209144
56,14,19,Jits_Linear_5,0,1,48,58,2292746316
56,14,19,Jits_Linear_5,1,5,56,103,2292788560
56,14,19,Jits_Linear_5,2,5,80,127,2292798904
56,14,19,Jits_Linear_5,3,5,63,98,2292868424
56,14,19,Jits_Linear_5,0,5,63,98,2293398840
56,14,19,Jits_Linear_5,1,1,48,52,2293409156
56,14,19,Jits_Linear_5,2,5,80,127,2293438848
56,14,19,Jits_Linear_5,3,5,56,103,2293478864
56,14,19,Jits_Linear_5,0,1,48,59,2294021520
56,14,19,Jits_Linear_5,1,5,56,103,2294039100
56,14,19,Jits_Linear_5,2,5,63,98,2294049372
56,14,19,Jits_Linear_5,3,5,80,127,2294068560
56,14,19,Jits_Linear_5,0,1,48,64,2294671672
56,14,19,Jits_Linear_5,1,5,63,98,2294708560
56,14,19,Jits_Linear_5,2,5,80,127,2294729244
56,14,19,Jits_Linear_5,3,5,56,103,2294748512
56,14,19,Jits_Linear_5,0,1,48,48,2295267492
56,14,19,Jits_Linear_5,1,5,56,103,2295279048
56,14,19,Jits_Linear_5,2,5,80,127,2295358800
56,14,19,Jits_Linear_5,3,5,63,98,2295369280
56,14,19,Jits_Linear_5,0,1,48,61,2295905272
56,14,19,Jits_Linear_5,1,5,80,127,2295948540
56,14,19,Jits_Linear_5,2,5,63,98,2295959108
56,14,19,Jits_Linear_5,3,5,56,103,2295988564
56,14,19,Jits_Linear_5,0,5,63,98,2296538440
56,14,19,Jits_Linear_5,1,1,48,59,2296565980
56,14,19,Jits_Linear_5,2,5,80,127,2296578524
56,14,19,Jits_Linear_5,3,5,56,103,2296638940
56,14,19,Jits_Linear_5,0,5,63,98,2297178332
56,14,19,Jits_Linear_5,1,1,48,49,2297184140
56,14,19,Jits_Linear_5,2,5,56,103,2297228680
56,14,19,Jits_Linear_5,3,5,80,127,2297259256
56,14,19,Jits_Linear_5,0,1,48,64,2297826564
56,14,19,Jits_Linear_5,1,5,80,127,2297828680
56,14,19,Jits_Linear_5,2,5,63,98,2297839100
56,14,19,Jits_Linear_5,3,5,56,103,2297908584
56,14,19,Jits_Linear_5,0,1,48,57,2298468092
56,14,19,Jits_Linear_5,1,5,80,127,2298539524
56,14,19,Jits_Linear_5,2,5,56,103,2298548596
56,14,19,Jits_Linear_5,3,5,63,98,2298551664
56,14,19,Jits_Linear_5,0,5,56,103,2299119152
56,14,19,Jits_Linear_5,1,5,80,127,2299138340
56,14,19,Jits_Linear_5,2,5,63,98,2299148612
56,14,19,Jits_Linear_5,3,1,48,60,2299155392
56,14,19,Jits_Linear_5,0,1,48,57,2299752276
56,14,19,Jits_Linear_5,1,5,63,98,2299769312
56,14,19,Jits_Linear_5,2,5,56,103,2299809256
56,14,19,Jits_Linear_5,3,5,80,127,2299828444
56,14,19,Jits_Linear_5,0,1,48,55,2300405780
56,14,19,Jits_Linear_5,1,5,63,98,2300418476
56,14,19,Jits_Linear_5,2,5,56,103,2300479040
56,14,19,Jits_Linear_5,3,5,80,127,2300481960
56,14,19,Jits_Linear_5,0,5,56,103,2301028696
56,14,19,Jits_Linear_5,1,5,80,127,2301049232
56,14,19,Jits_Linear_5,2,1,48,70,2301061864
56,14,19,Jits_Linear_5,3,5,63,98,2301089088
56,14,19,Jits_Linear_5,0,1,48,58,2301683972
56,14,19,Jits_Linear_5,1,5,56,103,2301708652
56,14,19,Jits_Linear_5,2,5,63,98,2301729140
56,14,19,Jits_Linear_5,3,5,80,127,2301739412
56,14,19,Jits_Linear_5,0,1,48,68,2302328240
56,14,19,Jits_Linear_5,1,5,80,127,2302329804
56,14,19,Jits_Linear_5,2,5,56,103,2302359036
56,14,19,Jits_Linear_5,3,5,63,98,2302398976
56,14,19,Jits_Linear_5,0,1,48,61,2302978272
56,14,19,Jits_Linear_5,1,5,80,127,2302988856
56,14,19,Jits_Linear_5,2,5,56,103,2303009116
56,14,19,Jits_Linear_5,3,5,63,98,2303068388
56,14,19,Jits_Linear_5,0,1,48,67,2303636820
56,14,19,Jits_Linear_5,1,5,56,103,2303649128
56,14,19,Jits_Linear_5,2,5,80,127,2303668464
56,14,19,Jits_Linear_5,3,5,63,98,2303729004
56,14,19,Jits_Linear_5,0,1,48,57,2304287052
56,14,19,Jits_Linear_5,1,5,80,127,2304289092
56,14,19,Jits_Linear_5,2,5,56,103,2304299288
56,14,19,Jits_Linear_5,3,5,63,98,2304339300
56,14,19,Jits_Linear_5,0,1,48,71,2304947832
56,14,19,Jits_Linear_5,1,5,63,98,2304949328
56,14,19,Jits_Linear_5,2,5,56,103,2304988592
56,14,19,Jits_Linear_5,3,5,80,127,2304991512
56,14,19,Jits_Linear_5,0,1,48,67,2305623188
56,14,19,Jits_Linear_5,1,5,63,98,2305628612
56,14,19,Jits_Linear_5,2,5,80,127,2305668404
56,14,19,Jits_Linear_5,3,5,56,103,2305699128
56,14,19,Jits_Linear_5,0,5,56,103,2306278896
56,14,19,Jits_Linear_5,1,5,63,98,2306289092
56,14,19,Jits_Linear_5,2,1,48,54,2306313416
56,14,19,Jits_Linear_5,3,5,80,127,2306318912
56,14,19,Jits_Linear_5,0,1,48,57,2306925652
56,14,19,Jits_Linear_5,1,5,80,127,2306939392
56,14,19,Jits_Linear_5,2,5,63,98,2307009080
56,14,19,Jits_Linear_5,3,5,56,103,2307019036
56,14,19,Jits_Linear_5,0,5,63,98,2307609036
56,14,19,Jits_Linear_5,1,1,48,70,2307633356
56,14,19,Jits_Linear_5,2,5,56,103,2307678636
56,14,19,Jits_Linear_5,3,5,80,127,2307688832
56,14,19,Jits_Linear_5,0,1,48,68,2308267524
56,14,19,Jits_Linear_5,1,5,63,98,2308278708
56,14,19,Jits_Linear_5,2,5,56,103,2308299020
56,14,19,Jits_Linear_5,3,5,80,127,2308339032
56,14,19,Jits_Linear_5,0,1,48,59,2308899236
56,14,19,Jits_Linear_5,1,5,56,103,2308958824
56,14,19,Jits_Linear_5,2,5,63,98,2308968800
56,14,19,Jits_Linear_5,3,5,80,127,2309048804
56,14,19,Jits_Linear_5,0,1,48,73,2309613792
56,14,19,Jits_Linear_5,1,5,63,98,2309618992
56,14,19,Jits_Linear_5,2,5,56,103,2309648968
56,14,19,Jits_Linear_5,3,5,80,127,2309688780
56,14,19,Jits_Linear_5,0,5,56,103,2310288780
56,14,19,Jits_Linear_5,1,1,48,78,2310296708
56,14,19,Jits_Linear_5,2,5,63,98,2310328864
56,14,19,Jits_Linear_5,3,5,80,127,2310368728
56,14,19,Jits_Linear_5,0,5,80,127,2310968912
56,14,19,Jits_Linear_5,1,1,48,70,2310975624
56,14,19,Jits_Linear_5,2,5,56,103,2311048632
56,14,19,Jits_Linear_5,3,5,63,98,2311058904
56,14,19,Jits_Linear_5,0,1,48,66,2311685844
56,14,19,Jits_Linear_5,1,5,56,103,2311688580
56,14,19,Jits_Linear_5,2,5,63,98,2311691648
56,14,19,Jits_Linear_5,3,5,80,127,2311698996
56,14,19,Jits_Linear_5,0,1,48,68,2312356812
56,14,19,Jits_Linear_5,1,5,56,103,2312388920
56,14,19,Jits_Linear_5,2,5,63,98,2312408856
56,14,19,Jits_Linear_5,3,5,80,127,2312418756
56,14,19,Jits_Linear_5,0,5,63,98,2313028964
56,14,19,Jits_Linear_5,1,5,80,127,2313039084
56,14,19,Jits_Linear_5,2,5,56,103,2313058720
56,14,19,Jits_Linear_5,3,1,48,63,2313088292
56,14,19,Jits_Linear_5,0,1,48,68,2313718872
56,14,19,Jits_Linear_5,1,5,63,98,2313720360
56,14,19,Jits_Linear_5,2,5,56,103,2313798908
56,14,19,Jits_Linear_5,3,5,80,127,2313801984
56,14,19,Jits_Linear_5,0,5,63,98,2314409252
56,14,19,Jits_Linear_5,1,5,56,103,2314428740
56,14,19,Jits_Linear_5,2,1,48,65,2314449996
56,14,19,Jits_Linear_5,3,5,80,127,2314458408
56,14,19,Jits_Linear_5,0,5,56,103,2315098740
56,14,19,Jits_Linear_5,1,1,48,70,2315101560
56,14,19,Jits_Linear_5,2,5,63,98,2315118968
56,14,19,Jits_Linear_5,3,5,80,127,2315129164
56,14,19,Jits_Linear_5,0,1,48,68,2315796956
56,14,19,Jits_Linear_5,1,5,56,103,2315819376
56,14,19,Jits_Linear_5,2,5,63,98,2315849200
56,14,19,Jits_Linear_5,3,5,80,127,2315852416
56,14,19,Jits_Linear_5,0,1,48,70,2316439656
56,14,19,Jits_Linear_5,1,5,56,103,2316459232
56,14,19,Jits_Linear_5,2,5,63,98,2316499248
56,14,19,Jits_Linear_5,3,5,80,127,2316558652
56,14,19,Jits_Linear_5,0,1,48,73,2317145316
56,14,19,Jits_Linear_5,1,5,56,103,2317168876
56,14,19,Jits_Linear_5,2,5,63,98,2317179444
56,14,19,Jits_Linear_5,3,5,80,127,2317238640
56,14,19,Jits_Linear_5,0,1,48,76,2317815444
56,14,19,Jits_Linear_5,1,5,56,103,2317869748
56,14,19,Jits_Linear_5,2,5,80,127,2317888864
56,14,19,Jits_Linear_5,3,5,63,98,2317918672
56,14,19,Jits_Linear_5,0,1,48,81,2318528168
56,14,19,Jits_Linear_5,1,5,80,127,2318568728
56,14,19,Jits_Linear_5,2,5,56,103,2318579000
56,14,19,Jits_Linear_5,3,5,63,98,2318598712
56,14,19,Jits_Linear_5,0,1,48,56,2319233000
56,14,19,Jits_Linear_5,1,5,63,98,2319258960
56,14,19,Jits_Linear_5,2,5,80,127,2319338968
56,14,19,Jits_Linear_5,3,5,56,103,2319349312
56,14,19,Jits_Linear_5,0,1,48,70,2319992852
56,14,19,Jits_Linear_5,1,5,80,127,2320018728
56,14,19,Jits_Linear_5,2,5,56,103,2320039260
56,14,19,Jits_Linear_5,3,5,63,98,2320042476
56,14,19,Jits_Linear_5,0,5,63,98,2320698772
56,14,19,Jits_Linear_5,1,5,80,127,2320702140
56,14,19,Jits_Linear_5,2,1,48,78,2320719352
56,14,19,Jits_Linear_5,3,5,56,103,2320759084
56,14,19,Jits_Linear_5,0,5,56,103,2321388904
56,14,19,Jits_Linear_5,1,5,80,127,2321399024
56,14,19,Jits_Linear_5,2,1,48,74,2321410612
56,14,19,Jits_Linear_5,3,5,63,98,2321439132
56,14,19,Jits_Linear_5,0,5,56,103,2322079076
56,14,19,Jits_Linear_5,1,1,48,64,2322087976
56,14,19,Jits_Linear_5,2,5,63,98,2322138568
56,14,19,Jits_Linear_5,3,5,80,127,2322148688
56,14,19,Jits_Linear_5,0,1,48,64,2322781880
56,14,19,Jits_Linear_5,1,5,63,98,2322798916
56,14,19,Jits_Linear_5,2,5,80,127,2322838932
56,14,19,Jits_Linear_5,3,5,56,103,2322878780
56,14,19,Jits_Linear_5,0,5,56,103,2323508564
56,14,19,Jits_Linear_5,1,1,48,86,2323513852
56,14,19,Jits_Linear_5,2,5,63,98,2323588580
56,14,19,Jits_Linear_5,3,5,80,127,2323591724
56,14,19,Jits_Linear_5,0,1,48,72,2324220252
56,14,19,Jits_Linear_5,1,5,80,127,2324278596
56,14,19,Jits_Linear_5,2,5,56,103,2324309616
56,14,19,Jits_Linear_5,3,5,63,98,2324312532
56,14,19,Jits_Linear_5,0,5,56,103,2324958468
56,14,19,Jits_Linear_5,1,5,80,127,2324979076
56,14,19,Jits_Linear_5,2,1,48,65,2324984588
56,14,19,Jits_Linear_5,3,5,63,98,2325019036
56,14,19,Jits_Linear_5,0,1,48,59,2325639916
56,14,19,Jits_Linear_5,1,5,80,127,2325659048
56,14,19,Jits_Linear_5,2,5,63,98,2325678684
56,14,19,Jits_Linear_5,3,5,56,103,2325738852
56,14,19,Jits_Linear_5,0,1,48,79,2326359448
56,14,19,Jits_Linear_5,1,5,63,98,2326389068
56,14,19,Jits_Linear_5,2,5,56,103,2326399336
56,14,19,Jits_Linear_5,3,5,80,127,2326448492
56,14,19,Jits_Linear_5,0,1,48,84,2327078384
56,14,19,Jits_Linear_5,1,5,56,103,2327098636
56,14,19,Jits_Linear_5,2,5,63,98,2327119172
56,14,19,Jits_Linear_5,3,5,80,127,2327128544
56,14,19,Jits_Linear_5,0,1,48,80,2327813612
56,14,19,Jits_Linear_5,1,5,56,103,2327818588
56,14,19,Jits_Linear_5,2,5,63,98,2327821652
56,14,19,Jits_Linear_5,3,5,80,127,2327839144
56,14,19,Jits_Linear_5,0,1,48,89,2328505404
56,14,19,Jits_Linear_5,1,5,63,98,2328588604
56,14,19,Jits_Linear_5,2,5,56,103,2328619416
56,14,19,Jits_Linear_5,3,5,80,127,2328649016
56,14,19,Jits_Linear_5,0,1,48,76,2329257764
56,14,19,Jits_Linear_5,1,5,80,127,2329278768
56,14,19,Jits_Linear_5,2,5,56,103,2329368832
56,14,19,Jits_Linear_5,3,5,63,98,2329371980
56,14,19,Jits_Linear_5,0,5,56,103,2330008932
56,14,19,Jits_Linear_5,1,5,80,127,2330012224
56,14,19,Jits_Linear_5,2,5,63,98,2330088880
56,14,19,Jits_Linear_5,3,1,48,84,2330121068
56,14,19,Jits_Linear_5,0,5,80,127,2330739180
56,14,19,Jits_Linear_5,1,1,48,75,2330781716
56,14,19,Jits_Linear_5,2,5,63,98,2330798596
56,14,19,Jits_Linear_5,3,5,56,103,2330829392
56,14,19,Jits_Linear_5,0,5,63,98,2331469136
56,14,19,Jits_Linear_5,1,5,80,127,2331479260
56,14,19,Jits_Linear_5,2,1,48,73,2331517228
56,14,19,Jits_Linear_5,3,5,56,103,2331549012
56,14,19,Jits_Linear_5,0,5,56,103,2332218636
56,14,19,Jits_Linear_5,1,1,48,72,2332235456
56,14,19,Jits_Linear_5,2,5,80,127,2332248528
56,14,19,Jits_Linear_5,3,5,63,98,2332298732
56,14,19,Jits_Linear_5,0,5,63,98,2332999168
56,14,19,Jits_Linear_5,1,1,48,74,2333012408
56,14,19,Jits_Linear_5,2,5,56,103,2333028840
56,14,19,Jits_Linear_5,3,5,80,127,2333031832
56,14,19,Jits_Linear_5,0,1,48,72,2333721064
56,14,19,Jits_Linear_5,1,5,63,98,2333739444
56,14,19,Jits_Linear_5,2,5,80,127,2333758784
56,14,19,Jits_Linear_5,3,5,56,103,2333769052
56,14,19,Jits_Linear_5,0,1,48,69,2334443712
56,14,19,Jits_Linear_5,1,5,56,103,2334488868
56,14,19,Jits_Linear_5,2,5,63,98,2334492012
56,14,19,Jits_Linear_5,3,5,80,127,2334509404
56,14,19,Jits_Linear_5,0,5,56,103,2335189344
56,14,19,Jits_Linear_5,1,1,48,68,2335195676
56,14,19,Jits_Linear_5,2,5,63,98,2335198560
56,14,19,Jits_Linear_5,3,5,80,127,2335229208
56,14,19,Jits_Linear_5,0,1,48,72,2335935520
56,14,19,Jits_Linear_5,1,5,63,98,2335959452
56,14,19,Jits_Linear_5,2,5,80,127,2335978716
56,14,19,Jits_Linear_5,3,5,56,103,2336018732
56,14,19,Jits_Linear_5,0,5,56,103,2336738708
56,14,19,Jits_Linear_5,1,1,48,62,2336742352
56,14,19,Jits_Linear_5,2,5,63,98,2336778568
56,14,19,Jits_Linear_5,3,5,80,127,2336782008
56,14,19,Jits_Linear_5,0,5,80,127,2337428952
56,14,19,Jits_Linear_5,1,1,48,61,2337456112
56,14,19,Jits_Linear_5,2,5,56,103,2337468664
56,14,19,Jits_Linear_5,3,5,63,98,2337519164
56,14,19,Jits_Linear_5,0,1,48,86,2338200988
56,14,19,Jits_Linear_5,1,5,56,103,2338238776
56,14,19,Jits_Linear_5,2,5,80,127,2338249048
56,14,19,Jits_Linear_5,3,5,63,98,2338278796
56,14,19,Jits_Linear_5,0,1,48,72,2338933856
56,14,19,Jits_Linear_5,1,5,56,103,2338939204
56,14,19,Jits_Linear_5,2,5,80,127,2338979144
56,14,19,Jits_Linear_5,3,5,63,98,2339029780
56,14,19,Jits_Linear_5,0,1,48,73,2339657512
56,14,19,Jits_Linear_5,1,5,56,103,2339699188
56,14,19,Jits_Linear_5,2,5,80,127,2339739056
56,14,19,Jits_Linear_5,3,5,63,98,2339789168
56,14,19,Jits_Linear_5,0,5,80,127,2340448620
56,14,19,Jits_Linear_5,1,1,48,71,2340453984
56,14,19,Jits_Linear_5,2,5,63,98,2340528492
56,14,19,Jits_Linear_5,3,5,56,103,2340538612
56,14,19,Jits_Linear_5,0,1,48,77,2341243868
56,14,19,Jits_Linear_5,1,5,80,127,2341258664
56,14,19,Jits_Linear_5,2,5,56,103,2341268860
56,14,19,Jits_Linear_5,3,5,63,98,2341289392
56,14,19,Jits_Linear_5,0,5,63,98,2341988692
56,14,19,Jits_Linear_5,1,1,48,68,2342031596
56,14,19,Jits_Linear_5,2,5,56,103,2342059264
56,14,19,Jits_Linear_5,3,5,80,127,2342062412
56,14,19,Jits_Linear_5,0,5,80,127,2342748528
56,14,19,Jits_Linear_5,1,1,48,69,2342763708
56,14,19,Jits_Linear_5,2,5,63,98,2342798724
56,14,19,Jits_Linear_5,3,5,56,103,2342838592
56,14,19,Jits_Linear_5,0,1,48,62,2343510744
56,14,19,Jits_Linear_5,1,5,63,98,2343558648
56,14,19,Jits_Linear_5,2,5,56,103,2343598592
56,14,19,Jits_Linear_5,3,5,80,127,2343609892
56,14,19,Jits_Linear_5,0,5,63,98,2344319324
56,14,19,Jits_Linear_5,1,1,48,49,2344324388
56,14,19,Jits_Linear_5,2,5,56,103,2344338804
56,14,19,Jits_Linear_5,3,5,80,127,2344359264
56,14,19,Jits_Linear_5,0,5,80,127,2345048372
56,14,19,Jits_Linear_5,1,5,56,103,2345058568
56,14,19,Jits_Linear_5,2,5,63,98,2345079104
56,14,19,Jits_Linear_5,3,1,48,60,2345080892
56,14,19,Jits_Linear_5,0,1,48,61,2345801364
56,14,19,Jits_Linear_5,1,5,63,98,2345849192
56,14,19,Jits_Linear_5,2,5,56,103,2345889136
56,14,19,Jits_Linear_5,3,5,80,127,2345919016
56,14,19,Jits_Linear_5,0,1,48,56,2346626860
56,14,19,Jits_Linear_5,1,5,56,103,2346628368
56,14,19,Jits_Linear_5,2,5,63,98,2346659168
56,14,19,Jits_Linear_5,3,5,80,127,2346688840
56,14,19,Jits_Linear_5,0,5,80,127,2347379068
56,14,19,Jits_Linear_5,1,1,48,66,2347433360
56,14,19,Jits_Linear_5,2,5,56,103,2347448748
56,14,19,Jits_Linear_5,3,5,63,98,2347451664
56,14,19,Jits_Linear_5,0,5,56,103,2348168956
56,14,19,Jits_Linear_5,1,1,48,76,2348197856
56,14,19,Jits_Linear_5,2,5,63,98,2348219008
56,14,19,Jits_Linear_5,3,5,80,127,2348248312
56,14,19,Jits_Linear_5,0,1,48,77,2348936492
56,14,19,Jits_Linear_5,1,5,63,98,2348938540
56,14,19,Jits_Linear_5,2,5,80,127,2348941984
56,14,19,Jits_Linear_5,3,5,56,103,2348999160
56,14,19,Jits_Linear_5,0,1,48,86,2349722312
56,14,19,Jits_Linear_5,1,5,56,103,2349748640
56,14,19,Jits_Linear_5,2,5,80,127,2349758988
56,14,19,Jits_Linear_5,3,5,63,98,2349809040
56,14,19,Jits_Linear_5,0,5,63,98,2350509460
56,14,19,Jits_Linear_5,1,5,56,103,2350518756
56,14,19,Jits_Linear_5,2,1,48,74,2350519724
56,14,19,Jits_Linear_5,3,5,80,127,2350549324
56,14,19,Jits_Linear_5,0,1,48,78,2351274940
56,14,19,Jits_Linear_5,1,5,63,98,2351328696
56,14,19,Jits_Linear_5,2,5,80,127,2351331916
56,14,19,Jits_Linear_5,3,5,56,103,2351359272
56,14,19,Jits_Linear_5,0,1,48,68,2352069168
56,14,19,Jits_Linear_5,1,5,63,98,2352138504
56,14,19,Jits_Linear_5,2,5,56,103,2352159132
56,14,19,Jits_Linear_5,3,5,80,127,2352162276
56,14,19,Jits_Linear_5,0,1,48,66,2352864284
56,14,19,Jits_Linear_5,1,5,63,98,2352889188
56,14,19,Jits_Linear_5,2,5,56,103,2352958972
56,14,19,Jits_Linear_5,3,5,80,127,2352979416
56,14,19,Jits_Linear_5,0,5,56,103,2353668440
56,14,19,Jits_Linear_5,1,5,63,98,2353678636
56,14,19,Jits_Linear_5,2,1,48,73,2353690544
56,14,19,Jits_Linear_5,3,5,80,127,2353768936
56,14,19,Jits_Linear_5,0,1,48,72,2354464160
56,14,19,Jits_Linear_5,1,5,56,103,2354478576
56,14,19,Jits_Linear_5,2,5,80,127,2354519344
56,14,19,Jits_Linear_5,3,5,63,98,2354528792
56,14,19,Jits_Linear_5,0,1,48,58,2355273148
56,14,19,Jits_Linear_5,1,5,56,103,2355298948
56,14,19,Jits_Linear_5,2,5,63,98,2355329528
56,14,19,Jits_Linear_5,3,5,80,127,2355359204
56,14,19,Jits_Linear_5,0,1,48,72,2356046316
56,14,19,Jits_Linear_5,1,5,80,127,2356058416
56,14,19,Jits_Linear_5,2,5,63,98,2356098432
56,14,19,Jits_Linear_5,3,5,56,103,2356119112
56,14,19,Jits_Linear_5,0,1,48,79,2356797092
56,14,19,Jits_Linear_5,1,5,56,103,2356899072
56,14,19,Jits_Linear_5,2,5,80,127,2356918932
56,14,19,Jits_Linear_5,3,5,63,98,2356939020
56,14,19,Jits_Linear_5,0,5,63,98,2357669124
56,14,19,Jits_Linear_5,1,5,56,103,2357678796
56,14,19,Jits_Linear_5,2,1,48,74,2357713008
56,14,19,Jits_Linear_5,3,5,80,127,2357739032
56,14,19,Jits_Linear_5,0,1,48,72,2358472228
56,14,19,Jits_Linear_5,1,5,56,103,2358479220
56,14,19,Jits_Linear_5,2,5,63,98,2358549008
56,14,19,Jits_Linear_5,3,5,80,127,2358569468
56,14,19,Jits_Linear_5,0,1,48,69,2359244272
56,14,19,Jits_Linear_5,1,5,56,103,2359289332
56,14,19,Jits_Linear_5,2,5,63,98,2359318812
56,14,19,Jits_Linear_5,3,5,80,127,2359359036
56,14,19,Jits_Linear_5,0,1,48,66,2360044868
56,14,19,Jits_Linear_5,1,5,63,98,2360088832
56,14,19,Jits_Linear_5,2,5,56,103,2360139172
56,14,19,Jits_Linear_5,3,5,80,127,2360149296
56,14,19,Jits_Linear_5,0,1,48,74,2360843736
56,14,19,Jits_Linear_5,1,5,56,103,2360938932
56,14,19,Jits_Linear_5,2,5,63,98,2360988988
56,14,19,Jits_Linear_5,3,5,80,127,2360999332
56,14,19,Jits_Linear_5,0,5,56,103,2361719020
56,14,19,Jits_Linear_5,1,5,63,98,2361729372
56,14,19,Jits_Linear_5,2,1,48,61,2361736544
56,14,19,Jits_Linear_5,3,5,80,127,2361809308
56,14,19,Jits_Linear_5,0,9999,9999,9999,2252967020
56,14,19,Jits_Linear_5,1,9999,9999,9999,2253446264
56,14,19,Jits_Linear_5,2,9999,9999,9999,2253926476
56,14,19,Jits_Linear_5,3,9999,9999,9999,2254406756
56,14,19,Jits_Linear_5,4,9999,9999,9999,2254886968
56,14,19,Jits_Linear_5,5,9999,9999,9999,2255376452
56,14,19,Jits_Linear_5,6,9999,9999,9999,2255866988
56,14,19,Jits_Linear_5,7,9999,9999,9999,2256356428
56,14,19,Jits_Linear_5,8,9999,9999,9999,2256846916
56,14,19,Jits_Linear_5,9,9999,9999,9999,2257336432
56,14,19,Jits_Linear_5,10,9999,9999,9999,2257836136
56,14,19,Jits_Linear_5,11,9999,9999,9999,2258336884
56,14,19,Jits_Linear_5,12,9999,9999,9999,2258836568
56,14,19,Jits_Linear_5,13,9999,9999,9999,2259336256
56,14,19,Jits_Linear_5,14,9999,9999,9999,2259836988
56,14,19,Jits_Linear_5,15,9999,9999,9999,2260346952
56,14,19,Jits_Linear_5,16,9999,9999,9999,2260856904
56,14,19,Jits_Linear_5,17,9999,9999,9999,2261366860
56,14,19,Jits_Linear_5,18,9999,9999,9999,2261876824
56,14,19,Jits_Linear_5,19,9999,9999,9999,2262386796
56,14,19,Jits_Linear_5,20,9999,9999,9999,2262906952
56,14,19,Jits_Linear_5,21,9999,9999,9999,2263426136
56,14,19,Jits_Linear_5,22,9999,9999,9999,2263946364
56,14,19,Jits_Linear_5,23,9999,9999,9999,2264466520
56,14,19,Jits_Linear_5,24,9999,9999,9999,2264986680
56,14,19,Jits_Linear_5,25,9999,9999,9999,2265516120
56,14,19,Jits_Linear_5,26,9999,9999,9999,2266046524
56,14,19,Jits_Linear_5,27,9999,9999,9999,2266576992
56,14,19,Jits_Linear_5,28,9999,9999,9999,2267106364
56,14,19,Jits_Linear_5,29,9999,9999,9999,2267636856
56,14,19,Jits_Linear_5,30,9999,9999,9999,2268176492
56,14,19,Jits_Linear_5,31,9999,9999,9999,2268716144
56,14,19,Jits_Linear_5,32,9999,9999,9999,2269256824
56,14,19,Jits_Linear_5,33,9999,9999,9999,2269796460
56,14,19,Jits_Linear_5,34,9999,9999,9999,2270336096
56,14,19,Jits_Linear_5,35,9999,9999,9999,2270887032
56,14,19,Jits_Linear_5,36,9999,9999,9999,2271436908
56,14,19,Jits_Linear_5,37,9999,9999,9999,2271986800
56,14,19,Jits_Linear_5,38,9999,9999,9999,2272536636
56,14,19,Jits_Linear_5,39,9999,9999,9999,2273086528
56,14,19,Jits_Linear_5,40,9999,9999,9999,2273646676
56,14,19,Jits_Linear_5,41,9999,9999,9999,2274206820
56,14,19,Jits_Linear_5,42,9999,9999,9999,2274766968
56,14,19,Jits_Linear_5,43,9999,9999,9999,2275327036
56,14,19,Jits_Linear_5,44,9999,9999,9999,2275886160
56,14,19,Jits_Linear_5,45,9999,9999,9999,2276456568
56,14,19,Jits_Linear_5,46,9999,9999,9999,2277026904
56,14,19,Jits_Linear_5,47,9999,9999,9999,2277596276
56,14,19,Jits_Linear_5,48,9999,9999,9999,2278166620
56,14,19,Jits_Linear_5,49,9999,9999,9999,2278737000
56,14,19,Jits_Linear_5,50,9999,9999,9999,2279316544
56,14,19,Jits_Linear_5,51,9999,9999,9999,2279896184
56,14,19,Jits_Linear_5,52,9999,9999,9999,2280476736
56,14,19,Jits_Linear_5,53,9999,9999,9999,2281056372
56,14,19,Jits_Linear_5,54,9999,9999,9999,2281636968
56,14,19,Jits_Linear_5,55,9999,9999,9999,2282226804
56,14,19,Jits_Linear_5,56,9999,9999,9999,2282816588
56,14,19,Jits_Linear_5,57,9999,9999,9999,2283406416
56,14,19,Jits_Linear_5,58,9999,9999,9999,2283996236
56,14,19,Jits_Linear_5,59,9999,9999,9999,2284587112
56,14,19,Jits_Linear_5,60,9999,9999,9999,2285196412
56,14,19,Jits_Linear_5,61,9999,9999,9999,2285796468
56,14,19,Jits_Linear_5,62,9999,9999,9999,2286396516
56,14,19,Jits_Linear_5,63,9999,9999,9999,2286996596
56,14,19,Jits_Linear_5,64,9999,9999,9999,2287596604
56,14,19,Jits_Linear_5,65,9999,9999,9999,2288206912
56,14,19,Jits_Linear_5,66,9999,9999,9999,2288816232
56,14,19,Jits_Linear_5,67,9999,9999,9999,2289426492
56,14,19,Jits_Linear_5,68,9999,9999,9999,2290036800
56,14,19,Jits_Linear_5,69,9999,9999,9999,2290646100
56,14,19,Jits_Linear_5,70,9999,9999,9999,2291266652
56,14,19,Jits_Linear_5,71,9999,9999,9999,2291886152
56,14,19,Jits_Linear_5,72,9999,9999,9999,2292506708
56,14,19,Jits_Linear_5,73,9999,9999,9999,2293126200
56,14,19,Jits_Linear_5,74,9999,9999,9999,2293746812
56,14,19,Jits_Linear_5,75,9999,9999,9999,2294376512
56,14,19,Jits_Linear_5,76,9999,9999,9999,2295006272
56,14,19,Jits_Linear_5,77,9999,9999,9999,2295637096
56,14,19,Jits_Linear_5,78,9999,9999,9999,2296266848
56,14,19,Jits_Linear_5,79,9999,9999,9999,2296896624
56,14,19,Jits_Linear_5,80,9999,9999,9999,2297536564
56,14,19,Jits_Linear_5,81,9999,9999,9999,2298176604
56,14,19,Jits_Linear_5,82,9999,9999,9999,2298816616
56,14,19,Jits_Linear_5,83,9999,9999,9999,2299456580
56,14,19,Jits_Linear_5,84,9999,9999,9999,2300096616
56,14,19,Jits_Linear_5,85,9999,9999,9999,2300746840
56,14,19,Jits_Linear_5,86,9999,9999,9999,2301397116
56,14,19,Jits_Linear_5,87,9999,9999,9999,2302046316
56,14,19,Jits_Linear_5,88,9999,9999,9999,2302696520
56,14,19,Jits_Linear_5,89,9999,9999,9999,2303346748
56,14,19,Jits_Linear_5,90,9999,9999,9999,2304006244
56,14,19,Jits_Linear_5,91,9999,9999,9999,2304666732
56,14,19,Jits_Linear_5,92,9999,9999,9999,2305326160
56,14,19,Jits_Linear_5,93,9999,9999,9999,2305986628
56,14,19,Jits_Linear_5,94,9999,9999,9999,2306646072
56,14,19,Jits_Linear_5,95,9999,9999,9999,2307316816
56,14,19,Jits_Linear_5,96,9999,9999,9999,2307986524
56,14,19,Jits_Linear_5,97,9999,9999,9999,2308656228
56,14,19,Jits_Linear_5,98,9999,9999,9999,2309326956
56,14,19,Jits_Linear_5,99,9999,9999,9999,2309996660
56,14,19,Jits_Linear_5,100,9999,9999,9999,2310676608
56,14,19,Jits_Linear_5,101,9999,9999,9999,2311356516
56,14,19,Jits_Linear_5,102,9999,9999,9999,2312036420
56,14,19,Jits_Linear_5,103,9999,9999,9999,2312716372
56,14,19,Jits_Linear_5,104,9999,9999,9999,2313396332
56,14,19,Jits_Linear_5,105,9999,9999,9999,2314086492
56,14,19,Jits_Linear_5,106,9999,9999,9999,2314776652
56,14,19,Jits_Linear_5,107,9999,9999,9999,2315466856
56,14,19,Jits_Linear_5,108,9999,9999,9999,2316157004
56,14,19,Jits_Linear_5,109,9999,9999,9999,2316846192
56,14,19,Jits_Linear_5,110,9999,9999,9999,2317546592
56,14,19,Jits_Linear_5,111,9999,9999,9999,2318247016
56,14,19,Jits_Linear_5,112,9999,9999,9999,2318946392
56,14,19,Jits_Linear_5,113,9999,9999,9999,2319646820
56,14,19,Jits_Linear_5,114,9999,9999,9999,2320346168
56,14,19,Jits_Linear_5,115,9999,9999,9999,2321056848
56,14,19,Jits_Linear_5,116,9999,9999,9999,2321766488
56,14,19,Jits_Linear_5,117,9999,9999,9999,2322476144
56,14,19,Jits_Linear_5,118,9999,9999,9999,2323186748
56,14,19,Jits_Linear_5,119,9999,9999,9999,2323896380
56,14,19,Jits_Linear_5,120,9999,9999,9999,2324616296
56,14,19,Jits_Linear_5,121,9999,9999,9999,2325336128
56,14,19,Jits_Linear_5,122,9999,9999,9999,2326057020
56,14,19,Jits_Linear_5,123,9999,9999,9999,2326776896
56,14,19,Jits_Linear_5,124,9999,9999,9999,2327496800
56,14,19,Jits_Linear_5,125,9999,9999,9999,2328226884
56,14,19,Jits_Linear_5,126,9999,9999,9999,2328956980
56,14,19,Jits_Linear_5,127,9999,9999,9999,2329686096
56,14,19,Jits_Linear_5,128,9999,9999,9999,2330416252
56,14,19,Jits_Linear_5,129,9999,9999,9999,2331146340
56,14,19,Jits_Linear_5,130,9999,9999,9999,2331886704
56,14,19,Jits_Linear_5,131,9999,9999,9999,2332627060
56,14,19,Jits_Linear_5,132,9999,9999,9999,2333366384
56,14,19,Jits_Linear_5,133,9999,9999,9999,2334106748
56,14,19,Jits_Linear_5,134,9999,9999,9999,2334847096
56,14,19,Jits_Linear_5,135,9999,9999,9999,2335596668
56,14,19,Jits_Linear_5,136,9999,9999,9999,2336346188
56,14,19,Jits_Linear_5,137,9999,9999,9999,2337096808
56,14,19,Jits_Linear_5,138,9999,9999,9999,2337846396
56,14,19,Jits_Linear_5,139,9999,9999,9999,2338596964
56,14,19,Jits_Linear_5,140,9999,9999,9999,2339356728
56,14,19,Jits_Linear_5,141,9999,9999,9999,2340116564
56,14,19,Jits_Linear_5,142,9999,9999,9999,2340876380
56,14,19,Jits_Linear_5,143,9999,9999,9999,2341636156
56,14,19,Jits_Linear_5,144,9999,9999,9999,2342397036
56,14,19,Jits_Linear_5,145,9999,9999,9999,2343167068
56,14,19,Jits_Linear_5,146,9999,9999,9999,2343936068
56,14,19,Jits_Linear_5,147,9999,9999,9999,2344706172
56,14,19,Jits_Linear_5,148,9999,9999,9999,2345476196
56,14,19,Jits_Linear_5,149,9999,9999,9999,2346246240
56,14,19,Jits_Linear_5,150,9999,9999,9999,2347026536
56,14,19,Jits_Linear_5,151,9999,9999,9999,2347806840
56,14,19,Jits_Linear_5,152,9999,9999,9999,2348587076
56,14,19,Jits_Linear_5,153,9999,9999,9999,2349376584
56,14,19,Jits_Linear_5,154,9999,9999,9999,2350156872
56,14,19,Jits_Linear_5,155,9999,9999,9999,2350946376
56,14,19,Jits_Linear_5,156,9999,9999,9999,2351736920
56,14,19,Jits_Linear_5,157,9999,9999,9999,2352526420
56,14,19,Jits_Linear_5,158,9999,9999,9999,2353316976
56,14,19,Jits_Linear_5,159,9999,9999,9999,2354106480
56,14,19,Jits_Linear_5,160,9999,9999,9999,2354906192
56,14,19,Jits_Linear_5,161,9999,9999,9999,2355706936
56,14,19,Jits_Linear_5,162,9999,9999,9999,2356506728
56,14,19,Jits_Linear_5,163,9999,9999,9999,2357306420
56,14,19,Jits_Linear_5,164,9999,9999,9999,2358106192
56,14,19,Jits_Linear_5,165,9999,9999,9999,2358916152
56,14,19,Jits_Linear_5,166,9999,9999,9999,2359726188
56,14,19,Jits_Linear_5,167,9999,9999,9999,2360536148
56,14,19,Jits_Linear_5,168,9999,9999,9999,2361346108
56,14,19,Jits_Linear_5,169,9999,9999,9999,2362156092
56,15,18,Jits_Linear_8,0,5,56,103,2373688644
56,15,18,Jits_Linear_8,1,5,63,98,2373691676
56,15,18,Jits_Linear_8,2,5,80,127,2373694724
56,15,18,Jits_Linear_8,0,1,48,59,2374342664
56,15,18,Jits_Linear_8,1,5,56,103,2374508940
56,15,18,Jits_Linear_8,2,5,63,98,2374512036
56,15,18,Jits_Linear_8,3,5,80,127,2374515384
56,15,18,Jits_Linear_8,0,5,80,127,2375268704
56,15,18,Jits_Linear_8,1,1,48,57,2375329736
56,15,18,Jits_Linear_8,2,5,63,98,2375358760
56,15,18,Jits_Linear_8,3,5,56,103,2375368956
56,15,18,Jits_Linear_8,0,5,56,103,2376109604
56,15,18,Jits_Linear_8,1,5,63,98,2376118604
56,15,18,Jits_Linear_8,2,5,80,127,2376208884
56,15,18,Jits_Linear_8,3,1,48,54,2376218856
56,15,18,Jits_Linear_8,0,5,63,98,2376898956
56,15,18,Jits_Linear_8,1,5,80,127,2376928636
56,15,18,Jits_Linear_8,2,5,56,103,2376959432
56,15,18,Jits_Linear_8,3,1,48,68,2377024604
56,15,18,Jits_Linear_8,0,5,56,103,2377719084
56,15,18,Jits_Linear_8,1,1,48,54,2377768832
56,15,18,Jits_Linear_8,2,5,80,127,2377818456
56,15,18,Jits_Linear_8,3,5,63,98,2377868640
56,15,18,Jits_Linear_8,0,5,56,103,2378529220
56,15,18,Jits_Linear_8,1,5,80,127,2378579348
56,15,18,Jits_Linear_8,2,1,48,56,2378588172
56,15,18,Jits_Linear_8,3,5,63,98,2378619428
56,15,18,Jits_Linear_8,0,1,48,59,2379304816
56,15,18,Jits_Linear_8,1,5,80,127,2379368836
56,15,18,Jits_Linear_8,2,5,63,98,2379398724
56,15,18,Jits_Linear_8,3,5,56,103,2379469300
56,15,18,Jits_Linear_8,0,1,48,64,2380142488
56,15,18,Jits_Linear_8,1,5,63,98,2380208456
56,15,18,Jits_Linear_8,2,5,56,103,2380240432
56,15,18,Jits_Linear_8,3,5,80,127,2380298580
56,15,18,Jits_Linear_8,0,1,48,67,2380953336
56,15,18,Jits_Linear_8,1,5,56,103,2380959208
56,15,18,Jits_Linear_8,2,5,80,127,2380962276
56,15,18,Jits_Linear_8,3,5,63,98,2381078872
56,15,18,Jits_Linear_8,0,1,48,67,2381838080
56,15,18,Jits_Linear_8,1,5,56,103,2381839572
56,15,18,Jits_Linear_8,2,5,80,127,2381878640
56,15,18,Jits_Linear_8,3,5,63,98,2381889056
56,15,18,Jits_Linear_8,0,5,56,103,2382598504
56,15,18,Jits_Linear_8,1,5,80,127,2382619212
56,15,18,Jits_Linear_8,2,1,48,79,2382666992
56,15,18,Jits_Linear_8,3,5,63,98,2382698852
56,15,18,Jits_Linear_8,0,5,80,127,2383389156
56,15,18,Jits_Linear_8,1,5,56,103,2383489484
56,15,18,Jits_Linear_8,2,5,63,98,2383498556
56,15,18,Jits_Linear_8,3,1,48,66,2383515008
56,15,18,Jits_Linear_8,0,5,63,98,2384159184
56,15,18,Jits_Linear_8,1,5,80,127,2384218604
56,15,18,Jits_Linear_8,2,5,56,103,2384228652
56,15,18,Jits_Linear_8,3,1,48,69,2384347592
56,15,18,Jits_Linear_8,0,5,56,103,2384958936
56,15,18,Jits_Linear_8,1,5,63,98,2385028544
56,15,18,Jits_Linear_8,2,5,80,127,2385031836
56,15,18,Jits_Linear_8,3,1,48,60,2385079312
56,15,18,Jits_Linear_8,0,5,63,98,2385789188
56,15,18,Jits_Linear_8,1,1,48,60,2385813280
56,15,18,Jits_Linear_8,2,5,56,103,2385838408
56,15,18,Jits_Linear_8,3,5,80,127,2385841476
56,15,18,Jits_Linear_8,0,5,56,103,2386538808
56,15,18,Jits_Linear_8,1,5,80,127,2386541876
56,15,18,Jits_Linear_8,2,1,48,58,2386560880
56,15,18,Jits_Linear_8,3,5,63,98,2386629304
56,15,18,Jits_Linear_8,0,1,48,62,2387339804
56,15,18,Jits_Linear_8,1,5,63,98,2387369272
56,15,18,Jits_Linear_8,2,5,56,103,2387458348
56,15,18,Jits_Linear_8,3,5,80,127,2387489316
56,15,18,Jits_Linear_8,0,5,56,103,2388148736
56,15,18,Jits_Linear_8,1,1,48,71,2388155672
56,15,18,Jits_Linear_8,2,5,63,98,2388249216
56,15,18,Jits_Linear_8,3,5,80,127,2388278592
56,15,18,Jits_Linear_8,0,5,63,98,2388958700
56,15,18,Jits_Linear_8,1,5,56,103,2388968748
56,15,18,Jits_Linear_8,2,1,48,59,2389003856
56,15,18,Jits_Linear_8,3,5,80,127,2389059196
56,15,18,Jits_Linear_8,0,5,63,98,2389759360
56,15,18,Jits_Linear_8,1,1,48,60,2389770428
56,15,18,Jits_Linear_8,2,5,56,103,2389839092
56,15,18,Jits_Linear_8,3,5,80,127,2389842168
56,15,18,Jits_Linear_8,0,5,80,127,2390498576
56,15,18,Jits_Linear_8,1,5,63,98,2390519036
56,15,18,Jits_Linear_8,2,5,56,103,2390578556
56,15,18,Jits_Linear_8,3,1,48,58,2390608948
56,15,18,Jits_Linear_8,0,5,56,103,2391319120
56,15,18,Jits_Linear_8,1,5,63,98,2391339360
56,15,18,Jits_Linear_8,2,5,80,127,2391342724
56,15,18,Jits_Linear_8,3,1,48,59,2391354084
56,15,18,Jits_Linear_8,0,5,63,98,2392038768
56,15,18,Jits_Linear_8,1,1,48,58,2392097656
56,15,18,Jits_Linear_8,2,5,80,127,2392118584
56,15,18,Jits_Linear_8,3,5,56,103,2392129156
56,15,18,Jits_Linear_8,0,5,63,98,2392838524
56,15,18,Jits_Linear_8,1,5,56,103,2392859084
56,15,18,Jits_Linear_8,2,1,48,58,2392860424
56,15,18,Jits_Linear_8,3,5,80,127,2392909204
56,15,18,Jits_Linear_8,0,5,80,127,2393618976
56,15,18,Jits_Linear_8,1,1,48,52,2393624788
56,15,18,Jits_Linear_8,2,5,63,98,2393658908
56,15,18,Jits_Linear_8,3,5,56,103,2393679292
56,15,18,Jits_Linear_8,0,1,48,57,2394383696
56,15,18,Jits_Linear_8,1,5,56,103,2394428928
56,15,18,Jits_Linear_8,2,5,63,98,2394439272
56,15,18,Jits_Linear_8,3,5,80,127,2394458388
56,15,18,Jits_Linear_8,0,5,56,103,2395129244
56,15,18,Jits_Linear_8,1,1,48,66,2395217364
56,15,18,Jits_Linear_8,2,5,63,98,2395219248
56,15,18,Jits_Linear_8,3,5,80,127,2395278668
56,15,18,Jits_Linear_8,0,5,80,127,2395928968
56,15,18,Jits_Linear_8,1,1,48,61,2395939312
56,15,18,Jits_Linear_8,2,5,56,103,2395940652
56,15,18,Jits_Linear_8,3,5,63,98,2396009064
56,15,18,Jits_Linear_8,0,1,48,56,2396725852
56,15,18,Jits_Linear_8,1,5,63,98,2396728736
56,15,18,Jits_Linear_8,2,5,80,127,2396819080
56,15,18,Jits_Linear_8,3,5,56,103,2396829204
56,15,18,Jits_Linear_8,0,5,63,98,2397428984
56,15,18,Jits_Linear_8,1,5,80,127,2397479360
56,15,18,Jits_Linear_8,2,5,56,103,2397538632
56,15,18,Jits_Linear_8,3,1,48,58,2397571040
56,15,18,Jits_Linear_8,0,5,56,103,2398218552
56,15,18,Jits_Linear_8,1,5,80,127,2398269076
56,15,18,Jits_Linear_8,2,1,48,63,2398274964
56,15,18,Jits_Linear_8,3,5,63,98,2398289304
56,15,18,Jits_Linear_8,0,5,56,103,2398948940
56,15,18,Jits_Linear_8,1,1,48,71,2399000936
56,15,18,Jits_Linear_8,2,5,80,127,2399009128
56,15,18,Jits_Linear_8,3,5,63,98,2399079032
56,15,18,Jits_Linear_8,0,5,56,103,2399708404
56,15,18,Jits_Linear_8,1,5,80,127,2399739200
56,15,18,Jits_Linear_8,2,5,63,98,2399769048
56,15,18,Jits_Linear_8,3,1,48,70,2399809404
56,15,18,Jits_Linear_8,0,1,48,67,2400485500
56,15,18,Jits_Linear_8,1,5,56,103,2400509432
56,15,18,Jits_Linear_8,2,5,80,127,2400529092
56,15,18,Jits_Linear_8,3,5,63,98,2400589096
56,15,18,Jits_Linear_8,0,1,48,66,2401263156
56,15,18,Jits_Linear_8,1,5,80,127,2401348924
56,15,18,Jits_Linear_8,2,5,56,103,2401359180
56,15,18,Jits_Linear_8,3,5,63,98,2401368332
56,15,18,Jits_Linear_8,0,5,56,103,2402058692
56,15,18,Jits_Linear_8,1,1,48,70,2402071424
56,15,18,Jits_Linear_8,2,5,80,127,2402098500
56,15,18,Jits_Linear_8,3,5,63,98,2402129296
56,15,18,Jits_Linear_8,0,5,56,103,2402778376
56,15,18,Jits_Linear_8,1,5,63,98,2402809324
56,15,18,Jits_Linear_8,2,5,80,127,2402849060
56,15,18,Jits_Linear_8,3,1,48,75,2402859972
56,15,18,Jits_Linear_8,0,5,80,127,2403478948
56,15,18,Jits_Linear_8,1,5,63,98,2403529004
56,15,18,Jits_Linear_8,2,5,56,103,2403548488
56,15,18,Jits_Linear_8,3,1,48,64,2403596716
56,15,18,Jits_Linear_8,0,5,56,103,2404259312
56,15,18,Jits_Linear_8,1,1,48,64,2404301020
56,15,18,Jits_Linear_8,2,5,80,127,2404329064
56,15,18,Jits_Linear_8,3,5,63,98,2404389180
56,15,18,Jits_Linear_8,0,5,80,127,2404998552
56,15,18,Jits_Linear_8,1,1,48,67,2405073592
56,15,18,Jits_Linear_8,2,5,63,98,2405088832
56,15,18,Jits_Linear_8,3,5,56,103,2405109068
56,15,18,Jits_Linear_8,0,5,63,98,2405759368
56,15,18,Jits_Linear_8,1,5,56,103,2405778928
56,15,18,Jits_Linear_8,2,5,80,127,2405818720
56,15,18,Jits_Linear_8,3,1,48,64,2405854496
56,15,18,Jits_Linear_8,0,5,80,127,2406459020
56,15,18,Jits_Linear_8,1,5,63,98,2406479180
56,15,18,Jits_Linear_8,2,1,48,63,2406541264
56,15,18,Jits_Linear_8,3,5,56,103,2406558972
56,15,18,Jits_Linear_8,0,5,63,98,2407188812
56,15,18,Jits_Linear_8,1,1,48,66,2407243768
56,15,18,Jits_Linear_8,2,5,56,103,2407298344
56,15,18,Jits_Linear_8,3,5,80,127,2407301416
56,15,18,Jits_Linear_8,0,5,63,98,2407948676
56,15,18,Jits_Linear_8,1,5,56,103,2407958820
56,15,18,Jits_Linear_8,2,5,80,127,2407961888
56,15,18,Jits_Linear_8,3,1,48,60,2407976612
56,15,18,Jits_Linear_8,0,1,48,67,2408659676
56,15,18,Jits_Linear_8,1,5,56,103,2408668468
56,15,18,Jits_Linear_8,2,5,80,127,2408789332
56,15,18,Jits_Linear_8,3,5,63,98,2408829344
56,15,18,Jits_Linear_8,0,5,56,103,2409419084
56,15,18,Jits_Linear_8,1,1,48,77,2409494972
56,15,18,Jits_Linear_8,2,5,80,127,2409499124
56,15,18,Jits_Linear_8,3,5,63,98,2409518536
56,15,18,Jits_Linear_8,0,5,56,103,2410149108
56,15,18,Jits_Linear_8,1,1,48,71,2410231788
56,15,18,Jits_Linear_8,2,5,63,98,2410258888
56,15,18,Jits_Linear_8,3,5,80,127,2410262104
56,15,18,Jits_Linear_8,0,5,56,103,2410909088
56,15,18,Jits_Linear_8,1,1,48,73,2410930344
56,15,18,Jits_Linear_8,2,5,80,127,2410938684
56,15,18,Jits_Linear_8,3,5,63,98,2410959144
56,15,18,Jits_Linear_8,0,5,63,98,2411618732
56,15,18,Jits_Linear_8,1,5,56,103,2411628852
56,15,18,Jits_Linear_8,2,5,80,127,2411639048
56,15,18,Jits_Linear_8,3,1,48,63,2411642096
56,15,18,Jits_Linear_8,0,5,80,127,2412329472
56,15,18,Jits_Linear_8,1,1,48,48,2412346448
56,15,18,Jits_Linear_8,2,5,56,103,2412378696
56,15,18,Jits_Linear_8,3,5,63,98,2412418708
56,15,18,Jits_Linear_8,0,1,48,72,2413063404
56,15,18,Jits_Linear_8,1,5,80,127,2413068528
56,15,18,Jits_Linear_8,2,5,63,98,2413089164
56,15,18,Jits_Linear_8,3,5,56,103,2413139216
56,15,18,Jits_Linear_8,0,5,80,127,2413798912
56,15,18,Jits_Linear_8,1,5,56,103,2413828512
56,15,18,Jits_Linear_8,2,1,48,55,2413833504
56,15,18,Jits_Linear_8,3,5,63,98,2413899036
56,15,18,Jits_Linear_8,0,5,56,103,2414568940
56,15,18,Jits_Linear_8,1,5,80,127,2414579064
56,15,18,Jits_Linear_8,2,1,48,54,2414593196
56,15,18,Jits_Linear_8,3,5,63,98,2414618872
56,15,18,Jits_Linear_8,0,5,56,103,2415198644
56,15,18,Jits_Linear_8,1,5,63,98,2415218956
56,15,18,Jits_Linear_8,2,5,80,127,2415288784
56,15,18,Jits_Linear_8,3,1,48,56,2415352888
56,15,18,Jits_Linear_8,0,5,63,98,2415938920
56,15,18,Jits_Linear_8,1,1,48,58,2415961224
56,15,18,Jits_Linear_8,2,5,80,127,2415999528
56,15,18,Jits_Linear_8,3,5,56,103,2416018792
56,15,18,Jits_Linear_8,0,5,80,127,2416639824
56,15,18,Jits_Linear_8,1,5,56,103,2416669080
56,15,18,Jits_Linear_8,2,5,63,98,2416698756
56,15,18,Jits_Linear_8,3,1,48,53,2416707200
56,15,18,Jits_Linear_8,0,5,56,103,2417348948
56,15,18,Jits_Linear_8,1,1,48,59,2417374464
56,15,18,Jits_Linear_8,2,5,63,98,2417409484
56,15,18,Jits_Linear_8,3,5,80,127,2417468852
56,15,18,Jits_Linear_8,0,5,80,127,2418079044
56,15,18,Jits_Linear_8,1,5,56,103,2418098756
56,15,18,Jits_Linear_8,2,1,48,55,2418151320
56,15,18,Jits_Linear_8,3,5,63,98,2418169104
56,15,18,Jits_Linear_8,0,1,48,57,2418783408
56,15,18,Jits_Linear_8,1,5,80,127,2418788756
56,15,18,Jits_Linear_8,2,5,63,98,2418809140
56,15,18,Jits_Linear_8,3,5,56,103,2418838888
56,15,18,Jits_Linear_8,0,1,48,62,2419479276
56,15,18,Jits_Linear_8,1,5,80,127,2419480544
56,15,18,Jits_Linear_8,2,5,63,98,2419499584
56,15,18,Jits_Linear_8,3,5,56,103,2419558704
56,15,18,Jits_Linear_8,0,5,80,127,2420179444
56,15,18,Jits_Linear_8,1,1,48,61,2420230888
56,15,18,Jits_Linear_8,2,5,56,103,2420278592
56,15,18,Jits_Linear_8,3,5,63,98,2420309460
56,15,18,Jits_Linear_8,0,5,63,98,2420868560
56,15,18,Jits_Linear_8,1,5,80,127,2420918688
56,15,18,Jits_Linear_8,2,5,56,103,2420939520
56,15,18,Jits_Linear_8,3,1,48,69,2420979352
56,15,18,Jits_Linear_8,0,5,80,127,2421608828
56,15,18,Jits_Linear_8,1,5,56,103,2421638576
56,15,18,Jits_Linear_8,2,5,63,98,2421641572
56,15,18,Jits_Linear_8,3,1,48,74,2421644540
56,15,18,Jits_Linear_8,0,5,63,98,2422338988
56,15,18,Jits_Linear_8,1,1,48,81,2422361964
56,15,18,Jits_Linear_8,2,5,56,103,2422378924
56,15,18,Jits_Linear_8,3,5,80,127,2422399604
56,15,18,Jits_Linear_8,0,5,80,127,2422978924
56,15,18,Jits_Linear_8,1,5,63,98,2423058972
56,15,18,Jits_Linear_8,2,1,48,75,2423074900
56,15,18,Jits_Linear_8,3,5,56,103,2423098828
56,15,18,Jits_Linear_8,0,5,63,98,2423688496
56,15,18,Jits_Linear_8,1,1,48,72,2423766628
56,15,18,Jits_Linear_8,2,5,80,127,2423768364
56,15,18,Jits_Linear_8,3,5,56,103,2423788972
56,15,18,Jits_Linear_8,0,5,56,103,2424418808
56,15,18,Jits_Linear_8,1,5,63,98,2424428932
56,15,18,Jits_Linear_8,2,1,48,76,2424463440
56,15,18,Jits_Linear_8,3,5,80,127,2424468936
56,15,18,Jits_Linear_8,0,5,56,103,2425029008
56,15,18,Jits_Linear_8,1,5,80,127,2425032000
56,15,18,Jits_Linear_8,2,1,48,88,2425123252
56,15,18,Jits_Linear_8,3,5,63,98,2425169424
56,15,18,Jits_Linear_8,0,5,56,103,2425719084
56,15,18,Jits_Linear_8,1,5,63,98,2425809296
56,15,18,Jits_Linear_8,2,1,48,65,2425825968
56,15,18,Jits_Linear_8,3,5,80,127,2425878920
56,15,18,Jits_Linear_8,0,1,48,68,2426477244
56,15,18,Jits_Linear_8,1,5,63,98,2426478916
56,15,18,Jits_Linear_8,2,5,80,127,2426482284
56,15,18,Jits_Linear_8,3,5,56,103,2426539388
56,15,18,Jits_Linear_8,0,5,80,127,2427198816
56,15,18,Jits_Linear_8,1,1,48,69,2427200832
56,15,18,Jits_Linear_8,2,5,56,103,2427219492
56,15,18,Jits_Linear_8,3,5,63,98,2427228492
56,15,18,Jits_Linear_8,0,5,56,103,2427788716
56,15,18,Jits_Linear_8,1,5,63,98,2427798836
56,15,18,Jits_Linear_8,2,5,80,127,2427868516
56,15,18,Jits_Linear_8,3,1,48,78,2427920508
56,15,18,Jits_Linear_8,0,5,80,127,2428468464
56,15,18,Jits_Linear_8,1,5,56,103,2428518740
56,15,18,Jits_Linear_8,2,1,48,72,2428537524
56,15,18,Jits_Linear_8,3,5,63,98,2428568936
56,15,18,Jits_Linear_8,0,1,48,78,2429203548
56,15,18,Jits_Linear_8,1,5,56,103,2429229424
56,15,18,Jits_Linear_8,2,5,63,98,2429238720
56,15,18,Jits_Linear_8,3,5,80,127,2429278436
56,15,18,Jits_Linear_8,0,5,56,103,2429848836
56,15,18,Jits_Linear_8,1,1,48,65,2429887032
56,15,18,Jits_Linear_8,2,5,63,98,2429888920
56,15,18,Jits_Linear_8,3,5,80,127,2429939268
56,15,18,Jits_Linear_8,0,5,80,127,2430478664
56,15,18,Jits_Linear_8,1,5,56,103,2430528944
56,15,18,Jits_Linear_8,2,5,63,98,2430549328
56,15,18,Jits_Linear_8,3,1,48,61,2430599200
56,15,18,Jits_Linear_8,0,5,80,127,2431158684
56,15,18,Jits_Linear_8,1,1,48,60,2431217184
56,15,18,Jits_Linear_8,2,5,63,98,2431219296
56,15,18,Jits_Linear_8,3,5,56,103,2431299040
56,15,18,Jits_Linear_8,0,5,80,127,2431808992
56,15,18,Jits_Linear_8,1,5,56,103,2431848932
56,15,18,Jits_Linear_8,2,5,63,98,2431869244
56,15,18,Jits_Linear_8,3,1,48,69,2431903076
56,15,18,Jits_Linear_8,0,5,56,103,2432528900
56,15,18,Jits_Linear_8,1,1,48,67,2432539020
56,15,18,Jits_Linear_8,2,5,80,127,2432540432
56,15,18,Jits_Linear_8,3,5,63,98,2432578876
56,15,18,Jits_Linear_8,0,1,48,59,2433230764
56,15,18,Jits_Linear_8,1,5,56,103,2433258816
56,15,18,Jits_Linear_8,2,5,63,98,2433298780
56,15,18,Jits_Linear_8,3,5,80,127,2433302292
56,15,18,Jits_Linear_8,0,5,63,98,2433808632
56,15,18,Jits_Linear_8,1,5,80,127,2433848572
56,15,18,Jits_Linear_8,2,5,56,103,2433919300
56,15,18,Jits_Linear_8,3,1,48,62,2433960108
56,15,18,Jits_Linear_8,0,5,63,98,2434459412
56,15,18,Jits_Linear_8,1,5,56,103,2434538844
56,15,18,Jits_Linear_8,2,1,48,57,2434544132
56,15,18,Jits_Linear_8,3,5,80,127,2434599396
56,15,18,Jits_Linear_8,0,5,80,127,2435128736
56,15,18,Jits_Linear_8,1,1,48,62,2435148420
56,15,18,Jits_Linear_8,2,5,63,98,2435178784
56,15,18,Jits_Linear_8,3,5,56,103,2435208536
56,15,18,Jits_Linear_8,0,1,48,65,2435776816
56,15,18,Jits_Linear_8,1,5,56,103,2435778856
56,15,18,Jits_Linear_8,2,5,63,98,2435829208
56,15,18,Jits_Linear_8,3,5,80,127,2435839404
56,15,18,Jits_Linear_8,0,1,48,65,2436401912
56,15,18,Jits_Linear_8,1,5,56,103,2436448548
56,15,18,Jits_Linear_8,2,5,63,98,2436559272
56,15,18,Jits_Linear_8,3,5,80,127,2436578608
56,15,18,Jits_Linear_8,0,5,63,98,2437098824
56,15,18,Jits_Linear_8,1,5,80,127,2437149128
56,15,18,Jits_Linear_8,2,1,48,66,2437181692
56,15,18,Jits_Linear_8,3,5,56,103,2437239176
56,15,18,Jits_Linear_8,0,5,63,98,2437738852
56,15,18,Jits_Linear_8,1,5,80,127,2437768528
56,15,18,Jits_Linear_8,2,5,56,103,2437858660
56,15,18,Jits_Linear_8,3,1,48,66,2437868300
56,15,18,Jits_Linear_8,0,5,63,98,2438389040
56,15,18,Jits_Linear_8,1,5,56,103,2438399236
56,15,18,Jits_Linear_8,2,1,48,57,2438475344
56,15,18,Jits_Linear_8,3,5,80,127,2438498752
56,15,18,Jits_Linear_8,0,1,48,60,2439044904
56,15,18,Jits_Linear_8,1,5,63,98,2439138672
56,15,18,Jits_Linear_8,2,5,80,127,2439169528
56,15,18,Jits_Linear_8,3,5,56,103,2439199152
56,15,18,Jits_Linear_8,0,1,48,65,2439745100
56,15,18,Jits_Linear_8,1,5,80,127,2439799228
56,15,18,Jits_Linear_8,2,5,63,98,2439809352
56,15,18,Jits_Linear_8,3,5,56,103,2439839024
56,15,18,Jits_Linear_8,0,5,80,127,2440338920
56,15,18,Jits_Linear_8,1,5,63,98,2440359232
56,15,18,Jits_Linear_8,2,5,56,103,2440408388
56,15,18,Jits_Linear_8,3,1,48,55,2440434200
56,15,18,Jits_Linear_8,0,5,63,98,2441008476
56,15,18,Jits_Linear_8,1,1,48,64,2441009444
56,15,18,Jits_Linear_8,2,5,80,127,2441068860
56,15,18,Jits_Linear_8,3,5,56,103,2441089320
56,15,18,Jits_Linear_8,0,5,63,98,2441608544
56,15,18,Jits_Linear_8,1,1,48,74,2441653692
56,15,18,Jits_Linear_8,2,5,56,103,2441658592
56,15,18,Jits_Linear_8,3,5,80,127,2441669236
56,15,18,Jits_Linear_8,0,1,48,70,2442248508
56,15,18,Jits_Linear_8,1,5,56,103,2442279344
56,15,18,Jits_Linear_8,2,5,80,127,2442288568
56,15,18,Jits_Linear_8,3,5,63,98,2442388948
56,15,18,Jits_Linear_8,0,5,80,127,2442879344
56,15,18,Jits_Linear_8,1,5,63,98,2442888568
56,15,18,Jits_Linear_8,2,1,48,69,2442944948
56,15,18,Jits_Linear_8,3,5,56,103,2443039236
56,15,18,Jits_Linear_8,0,5,63,98,2443519284
56,15,18,Jits_Linear_8,1,5,80,127,2443559176
56,15,18,Jits_Linear_8,2,1,48,64,2443598860
56,15,18,Jits_Linear_8,3,5,56,103,2443639260
56,15,18,Jits_Linear_8,0,5,56,103,2444139008
56,15,18,Jits_Linear_8,1,1,48,64,2444224540
56,15,18,Jits_Linear_8,2,5,80,127,2444239252
56,15,18,Jits_Linear_8,3,5,63,98,2444258664
56,15,18,Jits_Linear_8,0,5,80,127,2444829024
56,15,18,Jits_Linear_8,1,5,56,103,2444839444
56,15,18,Jits_Linear_8,2,1,48,60,2444869164
56,15,18,Jits_Linear_8,3,5,63,98,2444929276
56,15,18,Jits_Linear_8,0,5,56,103,2445458928
56,15,18,Jits_Linear_8,1,5,63,98,2445479388
56,15,18,Jits_Linear_8,2,1,48,57,2445524388
56,15,18,Jits_Linear_8,3,5,80,127,2445559104
56,15,18,Jits_Linear_8,0,5,63,98,2446029124
56,15,18,Jits_Linear_8,1,5,56,103,2446119208
56,15,18,Jits_Linear_8,2,5,80,127,2446122276
56,15,18,Jits_Linear_8,3,1,48,66,2446158292
56,15,18,Jits_Linear_8,0,5,56,103,2446679408
56,15,18,Jits_Linear_8,1,1,48,54,2446735112
56,15,18,Jits_Linear_8,2,5,80,127,2446739116
56,15,18,Jits_Linear_8,3,5,63,98,2446749088
56,15,18,Jits_Linear_8,0,5,80,127,2447349096
56,15,18,Jits_Linear_8,1,1,48,71,2447350656
56,15,18,Jits_Linear_8,2,5,56,103,2447359356
56,15,18,Jits_Linear_8,3,5,63,98,2447362424
56,15,18,Jits_Linear_8,0,5,56,103,2447929040
56,15,18,Jits_Linear_8,1,5,80,127,2447939088
56,15,18,Jits_Linear_8,2,1,48,61,2447957884
56,15,18,Jits_Linear_8,3,5,63,98,2447959396
56,15,18,Jits_Linear_8,0,5,63,98,2448518640
56,15,18,Jits_Linear_8,1,1,48,62,2448576992
56,15,18,Jits_Linear_8,2,5,80,127,2448578876
56,15,18,Jits_Linear_8,3,5,56,103,2448629076
56,15,18,Jits_Linear_8,0,1,48,60,2449182760
56,15,18,Jits_Linear_8,1,5,63,98,2449218900
56,15,18,Jits_Linear_8,2,5,56,103,2449229172
56,15,18,Jits_Linear_8,3,5,80,127,2449279296
56,15,18,Jits_Linear_8,0,5,63,98,2449728852
56,15,18,Jits_Linear_8,1,5,80,127,2449749312
56,15,18,Jits_Linear_8,2,5,56,103,2449758536
56,15,18,Jits_Linear_8,3,1,48,64,2449849460
56,15,18,Jits_Linear_8,0,5,63,98,2450339172
56,15,18,Jits_Linear_8,1,5,80,127,2450342392
56,15,18,Jits_Linear_8,2,5,56,103,2450379036
56,15,18,Jits_Linear_8,3,1,48,60,2450418416
56,15,18,Jits_Linear_8,0,5,63,98,2451019052
56,15,18,Jits_Linear_8,1,1,48,57,2451048124
56,15,18,Jits_Linear_8,2,5,80,127,2451049768
56,15,18,Jits_Linear_8,3,5,56,103,2451058992
56,15,18,Jits_Linear_8,0,5,56,103,2451579192
56,15,18,Jits_Linear_8,1,5,80,127,2451608944
56,15,18,Jits_Linear_8,2,5,63,98,2451638840
56,15,18,Jits_Linear_8,3,1,48,60,2451653568
56,15,18,Jits_Linear_8,0,1,48,57,2452234080
56,15,18,Jits_Linear_8,1,5,63,98,2452278568
56,15,18,Jits_Linear_8,2,5,56,103,2452318804
56,15,18,Jits_Linear_8,3,5,80,127,2452321872
56,15,18,Jits_Linear_8,0,5,80,127,2452779520
56,15,18,Jits_Linear_8,1,5,56,103,2452859244
56,15,18,Jits_Linear_8,2,1,48,54,2452901472
56,15,18,Jits_Linear_8,3,5,63,98,2452909292
56,15,18,Jits_Linear_8,0,5,80,127,2453359004
56,15,18,Jits_Linear_8,1,5,56,103,2453378416
56,15,18,Jits_Linear_8,2,5,63,98,2453468548
56,15,18,Jits_Linear_8,3,1,48,52,2453482756
56,15,18,Jits_Linear_8,0,5,80,127,2453999020
56,15,18,Jits_Linear_8,1,1,48,50,2454017360
56,15,18,Jits_Linear_8,2,5,63,98,2454038832
56,15,18,Jits_Linear_8,3,5,56,103,2454078768
56,15,18,Jits_Linear_8,0,5,63,98,2454569240
56,15,18,Jits_Linear_8,1,1,48,57,2454606140
56,15,18,Jits_Linear_8,2,5,80,127,2454628876
56,15,18,Jits_Linear_8,3,5,56,103,2454658328
56,15,18,Jits_Linear_8,0,5,56,103,2455169308
56,15,18,Jits_Linear_8,1,1,48,54,2455180896
56,15,18,Jits_Linear_8,2,5,80,127,2455198976
56,15,18,Jits_Linear_8,3,5,63,98,2455289092
56,15,18,Jits_Linear_8,0,5,56,103,2455768640
56,15,18,Jits_Linear_8,1,1,48,62,2455835088
56,15,18,Jits_Linear_8,2,5,80,127,2455879024
56,15,18,Jits_Linear_8,3,5,63,98,2455908700
56,15,18,Jits_Linear_8,0,5,56,103,2456408320
56,15,18,Jits_Linear_8,1,5,63,98,2456468788
56,15,18,Jits_Linear_8,2,1,48,54,2456470804
56,15,18,Jits_Linear_8,3,5,80,127,2456498828
56,15,18,Jits_Linear_8,0,5,56,103,2456968704
56,15,18,Jits_Linear_8,1,5,63,98,2457039140
56,15,18,Jits_Linear_8,2,5,80,127,2457058920
56,15,18,Jits_Linear_8,3,1,48,60,2457096588
56,15,18,Jits_Linear_8,0,5,80,127,2457528856
56,15,18,Jits_Linear_8,1,5,63,98,2457549096
56,15,18,Jits_Linear_8,2,5,56,103,2457599296
56,15,18,Jits_Linear_8,3,1,48,64,2457657208
56,15,18,Jits_Linear_8,0,5,63,98,2458128968
56,15,18,Jits_Linear_8,1,5,80,127,2458139016
56,15,18,Jits_Linear_8,2,5,56,103,2458189144
56,15,18,Jits_Linear_8,3,1,48,51,2458263276
56,15,18,Jits_Linear_8,0,5,63,98,2458709700
56,15,18,Jits_Linear_8,1,5,80,127,2458778940
56,15,18,Jits_Linear_8,2,5,56,103,2458798576
56,15,18,Jits_Linear_8,3,1,48,61,2458809568
56,15,18,Jits_Linear_8,0,5,63,98,2459318840
56,15,18,Jits_Linear_8,1,5,80,127,2459322128
56,15,18,Jits_Linear_8,2,1,48,63,2459367444
56,15,18,Jits_Linear_8,3,5,56,103,2459389264
56,15,18,Jits_Linear_8,0,5,80,127,2459849000
56,15,18,Jits_Linear_8,1,5,56,103,2459868636
56,15,18,Jits_Linear_8,2,5,63,98,2459878904
56,15,18,Jits_Linear_8,3,1,48,62,2459975236
56,15,18,Jits_Linear_8,0,1,48,65,2460413448
56,15,18,Jits_Linear_8,1,5,56,103,2460449244
56,15,18,Jits_Linear_8,2,5,63,98,2460539288
56,15,18,Jits_Linear_8,3,5,80,127,2460542728
56,15,18,Jits_Linear_8,0,5,80,127,2460999116
56,15,18,Jits_Linear_8,1,5,56,103,2461009240
56,15,18,Jits_Linear_8,2,5,63,98,2461028724
56,15,18,Jits_Linear_8,3,1,48,51,2461038892
56,15,18,Jits_Linear_8,0,1,48,59,2461514116
56,15,18,Jits_Linear_8,1,5,63,98,2461569516
56,15,18,Jits_Linear_8,2,5,80,127,2461628996
56,15,18,Jits_Linear_8,3,5,56,103,2461639192
56,15,18,Jits_Linear_8,0,1,48,59,2462133592
56,15,18,Jits_Linear_8,1,1,48,41,2462166252
56,15,18,Jits_Linear_8,2,5,63,98,2462209500
56,15,18,Jits_Linear_8,3,5,80,127,2462238976
56,15,18,Jits_Linear_8,4,5,56,103,2462278900
56,15,18,Jits_Linear_8,0,5,56,103,2462768768
56,15,18,Jits_Linear_8,1,5,80,127,2462778592
56,15,18,Jits_Linear_8,2,5,63,98,2462818752
56,15,18,Jits_Linear_8,3,1,48,55,2462847428
56,15,18,Jits_Linear_8,0,5,80,127,2463298800
56,15,18,Jits_Linear_8,1,5,56,103,2463378900
56,15,18,Jits_Linear_8,2,5,63,98,2463389168
56,15,18,Jits_Linear_8,3,1,48,61,2463399780
56,15,18,Jits_Linear_8,0,5,80,127,2463909376
56,15,18,Jits_Linear_8,1,1,48,65,2463973704
56,15,18,Jits_Linear_8,2,5,56,103,2463989244
56,15,18,Jits_Linear_8,3,5,63,98,2463999440
56,15,18,Jits_Linear_8,0,5,80,127,2464429604
56,15,18,Jits_Linear_8,1,5,56,103,2464478612
56,15,18,Jits_Linear_8,2,5,63,98,2464528836
56,15,18,Jits_Linear_8,3,1,48,67,2464591588
56,15,18,Jits_Linear_8,0,5,56,103,2465048816
56,15,18,Jits_Linear_8,1,5,63,98,2465051892
56,15,18,Jits_Linear_8,2,1,48,61,2465061984
56,15,18,Jits_Linear_8,3,5,80,127,2465099168
56,15,18,Jits_Linear_8,0,1,48,66,2465598900
56,15,18,Jits_Linear_8,1,5,56,103,2465628668
56,15,18,Jits_Linear_8,2,5,63,98,2465659168
56,15,18,Jits_Linear_8,3,5,80,127,2465668540
56,15,18,Jits_Linear_8,0,5,63,98,2466098540
56,15,18,Jits_Linear_8,1,5,56,103,2466169268
56,15,18,Jits_Linear_8,2,1,48,64,2466195308
56,15,18,Jits_Linear_8,3,5,80,127,2466219540
56,15,18,Jits_Linear_8,0,5,63,98,2466689472
56,15,18,Jits_Linear_8,1,5,56,103,2466698692
56,15,18,Jits_Linear_8,2,5,80,127,2466701836
56,15,18,Jits_Linear_8,3,1,48,59,2466722492
56,15,18,Jits_Linear_8,0,5,80,127,2467189064
56,15,18,Jits_Linear_8,1,5,56,103,2467248484
56,15,18,Jits_Linear_8,2,1,48,66,2467256632
56,15,18,Jits_Linear_8,3,5,63,98,2467338684
56,15,18,Jits_Linear_8,0,5,80,127,2467749336
56,15,18,Jits_Linear_8,1,1,48,58,2467808656
56,15,18,Jits_Linear_8,2,5,56,103,2467848536
56,15,18,Jits_Linear_8,3,5,63,98,2467888720
56,15,18,Jits_Linear_8,0,5,56,103,2468349500
56,15,18,Jits_Linear_8,1,1,48,58,2468361616
56,15,18,Jits_Linear_8,2,5,63,98,2468368708
56,15,18,Jits_Linear_8,3,5,80,127,2468408648
56,15,18,Jits_Linear_8,0,5,63,98,2468868600
56,15,18,Jits_Linear_8,1,5,56,103,2468888864
56,15,18,Jits_Linear_8,2,1,48,67,2468893028
56,15,18,Jits_Linear_8,3,5,80,127,2468989460
56,15,18,Jits_Linear_8,0,5,63,98,2469399020
56,15,18,Jits_Linear_8,1,1,48,56,2469445888
56,15,18,Jits_Linear_8,2,5,80,127,2469508556
56,15,18,Jits_Linear_8,3,5,56,103,2469539264
56,15,18,Jits_Linear_8,0,5,56,103,2469959012
56,15,18,Jits_Linear_8,1,1,48,59,2469974788
56,15,18,Jits_Linear_8,2,5,63,98,2469988608
56,15,18,Jits_Linear_8,3,5,80,127,2470039036
56,15,18,Jits_Linear_8,0,5,63,98,2470468968
56,15,18,Jits_Linear_8,1,5,56,103,2470498644
56,15,18,Jits_Linear_8,2,1,48,52,2470525580
56,15,18,Jits_Linear_8,3,5,80,127,2470548916
56,15,18,Jits_Linear_8,0,1,48,57,2471003740
56,15,18,Jits_Linear_8,1,5,56,103,2471039580
56,15,18,Jits_Linear_8,2,5,63,98,2471058696
56,15,18,Jits_Linear_8,3,5,80,127,2471138628
56,15,18,Jits_Linear_8,0,5,63,98,2471549532
56,15,18,Jits_Linear_8,1,1,48,55,2471597984
56,15,18,Jits_Linear_8,2,5,56,103,2471608572
56,15,18,Jits_Linear_8,3,5,80,127,2471639444
56,15,18,Jits_Linear_8,0,1,48,63,2472122376
56,15,18,Jits_Linear_8,1,5,56,103,2472128920
56,15,18,Jits_Linear_8,2,5,80,127,2472189536
56,15,18,Jits_Linear_8,3,5,63,98,2472229560
56,15,18,Jits_Linear_8,0,5,63,98,2472638796
56,15,18,Jits_Linear_8,1,5,56,103,2472699340
56,15,18,Jits_Linear_8,2,1,48,64,2472726992
56,15,18,Jits_Linear_8,3,5,80,127,2472768888
56,15,18,Jits_Linear_8,0,1,48,59,2473219888
56,15,18,Jits_Linear_8,1,5,56,103,2473249456
56,15,18,Jits_Linear_8,2,5,63,98,2473259352
56,15,18,Jits_Linear_8,3,5,80,127,2473262868
56,15,18,Jits_Linear_8,0,5,63,98,2473719216
56,15,18,Jits_Linear_8,1,5,56,103,2473778660
56,15,18,Jits_Linear_8,2,1,48,65,2473779872
56,15,18,Jits_Linear_8,3,5,80,127,2473782620
56,15,18,Jits_Linear_8,0,5,63,98,2474229224
56,15,18,Jits_Linear_8,1,1,48,59,2474250704
56,15,18,Jits_Linear_8,2,5,80,127,2474258844
56,15,18,Jits_Linear_8,3,5,56,103,2474279376
56,15,18,Jits_Linear_8,0,5,56,103,2474758496
56,15,18,Jits_Linear_8,1,1,48,56,2474763932
56,15,18,Jits_Linear_8,2,5,63,98,2474808616
56,15,18,Jits_Linear_8,3,5,80,127,2474888544
56,15,18,Jits_Linear_8,0,5,80,127,2475259356
56,15,18,Jits_Linear_8,1,1,48,56,2475295536
56,15,18,Jits_Linear_8,2,5,63,98,2475299464
56,15,18,Jits_Linear_8,3,5,56,103,2475318504
56,15,18,Jits_Linear_8,0,1,48,59,2475810140
56,15,18,Jits_Linear_8,1,5,56,103,2475848976
56,15,18,Jits_Linear_8,2,5,80,127,2475859544
56,15,18,Jits_Linear_8,3,5,63,98,2475878880
56,15,18,Jits_Linear_8,0,1,48,69,2476344504
56,15,18,Jits_Linear_8,1,5,56,103,2476348880
56,15,18,Jits_Linear_8,2,5,63,98,2476398860
56,15,18,Jits_Linear_8,3,5,80,127,2476428688
56,15,18,Jits_Linear_8,0,5,56,103,2476818748
56,15,18,Jits_Linear_8,1,5,63,98,2476829020
56,15,18,Jits_Linear_8,2,5,80,127,2476879444
56,15,18,Jits_Linear_8,3,1,48,62,2476894324
56,15,18,Jits_Linear_8,0,5,56,103,2477328696
56,15,18,Jits_Linear_8,1,5,80,127,2477331692
56,15,18,Jits_Linear_8,2,1,48,57,2477394664
56,15,18,Jits_Linear_8,3,5,63,98,2477488496
56,15,18,Jits_Linear_8,0,1,48,63,2477843700
56,15,18,Jits_Linear_8,1,5,63,98,2477859388
56,15,18,Jits_Linear_8,2,5,56,103,2477928848
56,15,18,Jits_Linear_8,3,5,80,127,2477968624
56,15,18,Jits_Linear_8,0,1,48,64,2478345896
56,15,18,Jits_Linear_8,1,5,63,98,2478409044
56,15,18,Jits_Linear_8,2,5,56,103,2478499460
56,15,18,Jits_Linear_8,3,5,80,127,2478502456
56,15,18,Jits_Linear_8,0,1,48,72,2478860120
56,15,18,Jits_Linear_8,1,5,56,103,2478898436
56,15,18,Jits_Linear_8,2,5,63,98,2478988704
56,15,18,Jits_Linear_8,3,5,80,127,2478998976
56,15,18,Jits_Linear_8,0,5,56,103,2479378720
56,15,18,Jits_Linear_8,1,1,48,65,2479427028
56,15,18,Jits_Linear_8,2,5,63,98,2479428988
56,15,18,Jits_Linear_8,3,5,80,127,2479458592
56,15,18,Jits_Linear_8,0,1,48,62,2479908420
56,15,18,Jits_Linear_8,1,5,63,98,2479959540
56,15,18,Jits_Linear_8,2,5,80,127,2479968616
56,15,18,Jits_Linear_8,3,5,56,103,2480028992
56,15,18,Jits_Linear_8,0,5,63,98,2480379412
56,15,18,Jits_Linear_8,1,5,80,127,2480438712
56,15,18,Jits_Linear_8,2,5,56,103,2480478648
56,15,18,Jits_Linear_8,3,1,48,64,2480484388
56,15,18,Jits_Linear_8,0,1,48,70,2480963220
56,15,18,Jits_Linear_8,1,5,56,103,2480979284
56,15,18,Jits_Linear_8,2,5,80,127,2480998772
56,15,18,Jits_Linear_8,3,5,63,98,2481019308
56,15,18,Jits_Linear_8,0,5,63,98,2481399232
56,15,18,Jits_Linear_8,1,5,56,103,2481418496
56,15,18,Jits_Linear_8,2,5,80,127,2481458460
56,15,18,Jits_Linear_8,3,1,48,65,2481499192
56,15,18,Jits_Linear_8,0,5,63,98,2481909172
56,15,18,Jits_Linear_8,1,5,80,127,2481938728
56,15,18,Jits_Linear_8,2,5,56,103,2481959260
56,15,18,Jits_Linear_8,3,1,48,70,2481960820
56,15,18,Jits_Linear_8,0,5,80,127,2482379332
56,15,18,Jits_Linear_8,1,5,56,103,2482429164
56,15,18,Jits_Linear_8,2,1,48,66,2482442772
56,15,18,Jits_Linear_8,3,5,63,98,2482488600
56,15,18,Jits_Linear_8,0,5,63,98,2482859472
56,15,18,Jits_Linear_8,1,1,48,61,2482944924
56,15,18,Jits_Linear_8,2,5,56,103,2482979144
56,15,18,Jits_Linear_8,3,5,80,127,2483008824
56,15,18,Jits_Linear_8,0,5,80,127,2483388828
56,15,18,Jits_Linear_8,1,5,63,98,2483409212
56,15,18,Jits_Linear_8,2,1,48,62,2483441176
56,15,18,Jits_Linear_8,3,5,56,103,2483479060
56,15,18,Jits_Linear_8,0,5,63,98,2483898712
56,15,18,Jits_Linear_8,1,1,48,68,2483909280
56,15,18,Jits_Linear_8,2,5,56,103,2483910468
56,15,18,Jits_Linear_8,3,5,80,127,2483988720
56,15,18,Jits_Linear_8,0,1,48,65,2484422712
56,15,18,Jits_Linear_8,1,5,56,103,2484448588
56,15,18,Jits_Linear_8,2,5,80,127,2484479460
56,15,18,Jits_Linear_8,3,5,63,98,2484488532
56,15,18,Jits_Linear_8,0,9999,9999,9999,2374097008
56,15,18,Jits_Linear_8,1,9999,9999,9999,2374916176
56,15,18,Jits_Linear_8,2,9999,9999,9999,2375736408
56,15,18,Jits_Linear_8,3,9999,9999,9999,2376556632
56,15,18,Jits_Linear_8,4,9999,9999,9999,2377376844
56,15,18,Jits_Linear_8,5,9999,9999,9999,2378186864
56,15,18,Jits_Linear_8,6,9999,9999,9999,2378996820
56,15,18,Jits_Linear_8,7,9999,9999,9999,2379806804
56,15,18,Jits_Linear_8,8,9999,9999,9999,2380616828
56,15,18,Jits_Linear_8,9,9999,9999,9999,2381426760
56,15,18,Jits_Linear_8,10,9999,9999,9999,2382226520
56,15,18,Jits_Linear_8,11,9999,9999,9999,2383026276
56,15,18,Jits_Linear_8,12,9999,9999,9999,2383827020
56,15,18,Jits_Linear_8,13,9999,9999,9999,2384626784
56,15,18,Jits_Linear_8,14,9999,9999,9999,2385426552
56,15,18,Jits_Linear_8,15,9999,9999,9999,2386217020
56,15,18,Jits_Linear_8,16,9999,9999,9999,2387006572
56,15,18,Jits_Linear_8,17,9999,9999,9999,2387797056
56,15,18,Jits_Linear_8,18,9999,9999,9999,2388586552
56,15,18,Jits_Linear_8,19,9999,9999,9999,2389376060
56,15,18,Jits_Linear_8,20,9999,9999,9999,2390156408
56,15,18,Jits_Linear_8,21,9999,9999,9999,2390936684
56,15,18,Jits_Linear_8,22,9999,9999,9999,2391716968
56,15,18,Jits_Linear_8,23,9999,9999,9999,2392496212
56,15,18,Jits_Linear_8,24,9999,9999,9999,2393276488
56,15,18,Jits_Linear_8,25,9999,9999,9999,2394046576
56,15,18,Jits_Linear_8,26,9999,9999,9999,2394816600
56,15,18,Jits_Linear_8,27,9999,9999,9999,2395586616
56,15,18,Jits_Linear_8,28,9999,9999,9999,2396356716
56,15,18,Jits_Linear_8,29,9999,9999,9999,2397126752
56,15,18,Jits_Linear_8,30,9999,9999,9999,2397886576
56,15,18,Jits_Linear_8,31,9999,9999,9999,2398646396
56,15,18,Jits_Linear_8,32,9999,9999,9999,2399406160
56,15,18,Jits_Linear_8,33,9999,9999,9999,2400167036
56,15,18,Jits_Linear_8,34,9999,9999,9999,2400926796
56,15,18,Jits_Linear_8,35,9999,9999,9999,2401676368
56,15,18,Jits_Linear_8,36,9999,9999,9999,2402426980
56,15,18,Jits_Linear_8,37,9999,9999,9999,2403176552
56,15,18,Jits_Linear_8,38,9999,9999,9999,2403926124
56,15,18,Jits_Linear_8,39,9999,9999,9999,2404676676
56,15,18,Jits_Linear_8,40,9999,9999,9999,2405417036
56,15,18,Jits_Linear_8,41,9999,9999,9999,2406156396
56,15,18,Jits_Linear_8,42,9999,9999,9999,2406896732
56,15,18,Jits_Linear_8,43,9999,9999,9999,2407637080
56,15,18,Jits_Linear_8,44,9999,9999,9999,2408376436
56,15,18,Jits_Linear_8,45,9999,9999,9999,2409106520
56,15,18,Jits_Linear_8,46,9999,9999,9999,2409836596
56,15,18,Jits_Linear_8,47,9999,9999,9999,2410566760
56,15,18,Jits_Linear_8,48,9999,9999,9999,2411296856
56,15,18,Jits_Linear_8,49,9999,9999,9999,2412026992
56,15,18,Jits_Linear_8,50,9999,9999,9999,2412746808
56,15,18,Jits_Linear_8,51,9999,9999,9999,2413466712
56,15,18,Jits_Linear_8,52,9999,9999,9999,2414186604
56,15,18,Jits_Linear_8,53,9999,9999,9999,2414906440
56,15,18,Jits_Linear_8,54,9999,9999,9999,2415626316
56,15,18,Jits_Linear_8,55,9999,9999,9999,2416337000
56,15,18,Jits_Linear_8,56,9999,9999,9999,2417046628
56,15,18,Jits_Linear_8,57,9999,9999,9999,2417756272
56,15,18,Jits_Linear_8,58,9999,9999,9999,2418466888
56,15,18,Jits_Linear_8,59,9999,9999,9999,2419176500
56,15,18,Jits_Linear_8,60,9999,9999,9999,2419876988
56,15,18,Jits_Linear_8,61,9999,9999,9999,2420576356
56,15,18,Jits_Linear_8,62,9999,9999,9999,2421276780
56,15,18,Jits_Linear_8,63,9999,9999,9999,2421976184
56,15,18,Jits_Linear_8,64,9999,9999,9999,2422676544
56,15,18,Jits_Linear_8,65,9999,9999,9999,2423366772
56,15,18,Jits_Linear_8,66,9999,9999,9999,2424056916
56,15,18,Jits_Linear_8,67,9999,9999,9999,2424747068
56,15,18,Jits_Linear_8,68,9999,9999,9999,2425446508
56,15,18,Jits_Linear_8,69,9999,9999,9999,2426136676
56,15,18,Jits_Linear_8,70,9999,9999,9999,2426816620
56,15,18,Jits_Linear_8,71,9999,9999,9999,2427496508
56,15,18,Jits_Linear_8,72,9999,9999,9999,2428176484
56,15,18,Jits_Linear_8,73,9999,9999,9999,2428856432
56,15,18,Jits_Linear_8,74,9999,9999,9999,2429536340
56,15,18,Jits_Linear_8,75,9999,9999,9999,2430207064
56,15,18,Jits_Linear_8,76,9999,9999,9999,2430876744
56,15,18,Jits_Linear_8,77,9999,9999,9999,2431546460
56,15,18,Jits_Linear_8,78,9999,9999,9999,2432216140
56,15,18,Jits_Linear_8,79,9999,9999,9999,2432886896
56,15,18,Jits_Linear_8,80,9999,9999,9999,2433546320
56,15,18,Jits_Linear_8,81,9999,9999,9999,2434206788
56,15,18,Jits_Linear_8,82,9999,9999,9999,2434866292
56,15,18,Jits_Linear_8,83,9999,9999,9999,2435526744
56,15,18,Jits_Linear_8,84,9999,9999,9999,2436186184
56,15,18,Jits_Linear_8,85,9999,9999,9999,2436836452
56,15,18,Jits_Linear_8,86,9999,9999,9999,2437486668
56,15,18,Jits_Linear_8,87,9999,9999,9999,2438136932
56,15,18,Jits_Linear_8,88,9999,9999,9999,2438786176
56,15,18,Jits_Linear_8,89,9999,9999,9999,2439436372
56,15,18,Jits_Linear_8,90,9999,9999,9999,2440076404
56,15,18,Jits_Linear_8,91,9999,9999,9999,2440716400
56,15,18,Jits_Linear_8,92,9999,9999,9999,2441356364
56,15,18,Jits_Linear_8,93,9999,9999,9999,2441996364
56,15,18,Jits_Linear_8,94,9999,9999,9999,2442636384
56,15,18,Jits_Linear_8,95,9999,9999,9999,2443266116
56,15,18,Jits_Linear_8,96,9999,9999,9999,2443896940
56,15,18,Jits_Linear_8,97,9999,9999,9999,2444526680
56,15,18,Jits_Linear_8,98,9999,9999,9999,2445156464
56,15,18,Jits_Linear_8,99,9999,9999,9999,2445786220
56,15,18,Jits_Linear_8,100,9999,9999,9999,2446406772
56,15,18,Jits_Linear_8,101,9999,9999,9999,2447026248
56,15,18,Jits_Linear_8,102,9999,9999,9999,2447646804
56,15,18,Jits_Linear_8,103,9999,9999,9999,2448266296
56,15,18,Jits_Linear_8,104,9999,9999,9999,2448886904
56,15,18,Jits_Linear_8,105,9999,9999,9999,2449496148
56,15,18,Jits_Linear_8,106,9999,9999,9999,2450106480
56,15,18,Jits_Linear_8,107,9999,9999,9999,2450716744
56,15,18,Jits_Linear_8,108,9999,9999,9999,2451327080
56,15,18,Jits_Linear_8,109,9999,9999,9999,2451936368
56,15,18,Jits_Linear_8,110,9999,9999,9999,2452536408
56,15,18,Jits_Linear_8,111,9999,9999,9999,2453136480
56,15,18,Jits_Linear_8,112,9999,9999,9999,2453736560
56,15,18,Jits_Linear_8,113,9999,9999,9999,2454336596
56,15,18,Jits_Linear_8,114,9999,9999,9999,2454936680
56,15,18,Jits_Linear_8,115,9999,9999,9999,2455526488
56,15,18,Jits_Linear_8,116,9999,9999,9999,2456116340
56,15,18,Jits_Linear_8,117,9999,9999,9999,2456706172
56,15,18,Jits_Linear_8,118,9999,9999,9999,2457296968
56,15,18,Jits_Linear_8,119,9999,9999,9999,2457886812
56,15,18,Jits_Linear_8,120,9999,9999,9999,2458466368
56,15,18,Jits_Linear_8,121,9999,9999,9999,2459047032
56,15,18,Jits_Linear_8,122,9999,9999,9999,2459626568
56,15,18,Jits_Linear_8,123,9999,9999,9999,2460206200
56,15,18,Jits_Linear_8,124,9999,9999,9999,2460786796
56,15,18,Jits_Linear_8,125,9999,9999,9999,2461356140
56,15,18,Jits_Linear_8,126,9999,9999,9999,2461926480
56,15,18,Jits_Linear_8,127,9999,9999,9999,2462496888
56,15,18,Jits_Linear_8,128,9999,9999,9999,2463066164
56,15,18,Jits_Linear_8,129,9999,9999,9999,2463636580
56,15,18,Jits_Linear_8,130,9999,9999,9999,2464196668
56,15,18,Jits_Linear_8,131,9999,9999,9999,2464756820
56,15,18,Jits_Linear_8,132,9999,9999,9999,2465316916
56,15,18,Jits_Linear_8,133,9999,9999,9999,2465877076
56,15,18,Jits_Linear_8,134,9999,9999,9999,2466436168
56,15,18,Jits_Linear_8,135,9999,9999,9999,2466987080
56,15,18,Jits_Linear_8,136,9999,9999,9999,2467546224
56,15,18,Jits_Linear_8,137,9999,9999,9999,2468096112
56,15,18,Jits_Linear_8,138,9999,9999,9999,2468647000
56,15,18,Jits_Linear_8,139,9999,9999,9999,2469196888
56,15,18,Jits_Linear_8,140,9999,9999,9999,2469736504
56,15,18,Jits_Linear_8,141,9999,9999,9999,2470276188
56,15,18,Jits_Linear_8,142,9999,9999,9999,2470816856
56,15,18,Jits_Linear_8,143,9999,9999,9999,2471356468
56,15,18,Jits_Linear_8,144,9999,9999,9999,2471896152
56,15,18,Jits_Linear_8,145,9999,9999,9999,2472426552
56,15,18,Jits_Linear_8,146,9999,9999,9999,2472957024
56,15,18,Jits_Linear_8,147,9999,9999,9999,2473486392
56,15,18,Jits_Linear_8,148,9999,9999,9999,2474016856
56,15,18,Jits_Linear_8,149,9999,9999,9999,2474546276
56,15,18,Jits_Linear_8,150,9999,9999,9999,2475066456
56,15,18,Jits_Linear_8,151,9999,9999,9999,2475586672
56,15,18,Jits_Linear_8,152,9999,9999,9999,2476106820
56,15,18,Jits_Linear_8,153,9999,9999,9999,2476627036
56,15,18,Jits_Linear_8,154,9999,9999,9999,2477146188
56,15,18,Jits_Linear_8,155,9999,9999,9999,2477656132
56,15,18,Jits_Linear_8,156,9999,9999,9999,2478166088
56,15,18,Jits_Linear_8,157,9999,9999,9999,2478677080
56,15,18,Jits_Linear_8,158,9999,9999,9999,2479187000
56,15,18,Jits_Linear_8,159,9999,9999,9999,2479697016
56,15,18,Jits_Linear_8,160,9999,9999,9999,2480196716
56,15,18,Jits_Linear_8,161,9999,9999,9999,2480696396
56,15,18,Jits_Linear_8,162,9999,9999,9999,2481196160
56,15,18,Jits_Linear_8,163,9999,9999,9999,2481696880
56,15,18,Jits_Linear_8,164,9999,9999,9999,2482196560
56,15,18,Jits_Linear_8,165,9999,9999,9999,2482687072
56,15,18,Jits_Linear_8,166,9999,9999,9999,2483176508
56,15,18,Jits_Linear_8,167,9999,9999,9999,2483667044
56,15,18,Jits_Linear_8,168,9999,9999,9999,2484156480
56,15,18,Jits_Linear_8,169,9999,9999,9999,2484647028
56,16,17,Jits_Phase_5,0,5,56,103,2493688196
56,16,17,Jits_Phase_5,1,5,63,98,2493691144
56,16,17,Jits_Phase_5,2,5,80,127,2493694340
56,16,17,Jits_Phase_5,0,5,56,103,2494188208
56,16,17,Jits_Phase_5,1,5,63,98,2494191232
56,16,17,Jits_Phase_5,2,5,80,127,2494194348
56,16,17,Jits_Phase_5,0,1,48,66,2494642568
56,16,17,Jits_Phase_5,1,5,56,103,2494687476
56,16,17,Jits_Phase_5,2,5,80,127,2494698120
56,16,17,Jits_Phase_5,3,5,63,98,2494718280
56,16,17,Jits_Phase_5,0,5,63,98,2495138084
56,16,17,Jits_Phase_5,1,5,80,127,2495167908
56,16,17,Jits_Phase_5,2,1,48,78,2495173568
56,16,17,Jits_Phase_5,3,5,56,103,2495178024
56,16,17,Jits_Phase_5,0,1,48,65,2495663940
56,16,17,Jits_Phase_5,1,5,80,127,2495698212
56,16,17,Jits_Phase_5,2,5,56,103,2495707436
56,16,17,Jits_Phase_5,3,5,63,98,2495738156
56,16,17,Jits_Phase_5,0,1,48,70,2496188160
56,16,17,Jits_Phase_5,1,5,63,98,2496189348
56,16,17,Jits_Phase_5,2,5,56,103,2496217532
56,16,17,Jits_Phase_5,3,5,80,127,2496227800
56,16,17,Jits_Phase_5,0,5,56,103,2496638316
56,16,17,Jits_Phase_5,1,5,63,98,2496687324
56,16,17,Jits_Phase_5,2,1,48,72,2496703244
56,16,17,Jits_Phase_5,3,5,80,127,2496708220
56,16,17,Jits_Phase_5,0,5,80,127,2497138008
56,16,17,Jits_Phase_5,1,1,48,67,2497183672
56,16,17,Jits_Phase_5,2,5,63,98,2497188348
56,16,17,Jits_Phase_5,3,5,56,103,2497228212
56,16,17,Jits_Phase_5,0,5,56,103,2497637992
56,16,17,Jits_Phase_5,1,5,63,98,2497667296
56,16,17,Jits_Phase_5,2,1,48,71,2497716040
56,16,17,Jits_Phase_5,3,5,80,127,2497738012
56,16,17,Jits_Phase_5,0,5,56,103,2498137460
56,16,17,Jits_Phase_5,1,1,48,67,2498179912
56,16,17,Jits_Phase_5,2,5,80,127,2498197992
56,16,17,Jits_Phase_5,3,5,63,98,2498227516
56,16,17,Jits_Phase_5,0,5,56,103,2498648388
56,16,17,Jits_Phase_5,1,5,63,98,2498657760
56,16,17,Jits_Phase_5,2,1,48,68,2498669648
56,16,17,Jits_Phase_5,3,5,80,127,2498697692
56,16,17,Jits_Phase_5,0,5,63,98,2499137960
56,16,17,Jits_Phase_5,1,1,48,67,2499158760
56,16,17,Jits_Phase_5,2,5,80,127,2499217820
56,16,17,Jits_Phase_5,3,5,56,103,2499227868
56,16,17,Jits_Phase_5,0,1,48,69,2499653404
56,16,17,Jits_Phase_5,1,5,63,98,2499687976
56,16,17,Jits_Phase_5,2,5,56,103,2499727836
56,16,17,Jits_Phase_5,3,5,80,127,2499730904
56,16,17,Jits_Phase_5,0,5,56,103,2500147500
56,16,17,Jits_Phase_5,1,5,63,98,2500157920
56,16,17,Jits_Phase_5,2,1,48,69,2500179840
56,16,17,Jits_Phase_5,3,5,80,127,2500197924
56,16,17,Jits_Phase_5,0,5,56,103,2500638192
56,16,17,Jits_Phase_5,1,5,63,98,2500641188
56,16,17,Jits_Phase_5,2,5,80,127,2500657532
56,16,17,Jits_Phase_5,3,1,48,71,2500673980
56,16,17,Jits_Phase_5,0,5,80,127,2501147984
56,16,17,Jits_Phase_5,1,5,56,103,2501158108
56,16,17,Jits_Phase_5,2,1,48,65,2501164368
56,16,17,Jits_Phase_5,3,5,63,98,2501227852
56,16,17,Jits_Phase_5,0,5,63,98,2501637612
56,16,17,Jits_Phase_5,1,5,56,103,2501657872
56,16,17,Jits_Phase_5,2,1,48,63,2501664728
56,16,17,Jits_Phase_5,3,5,80,127,2501737804
56,16,17,Jits_Phase_5,0,5,56,103,2502147400
56,16,17,Jits_Phase_5,1,5,80,127,2502188560
56,16,17,Jits_Phase_5,2,5,63,98,2502197856
56,16,17,Jits_Phase_5,3,1,48,53,2502236568
56,16,17,Jits_Phase_5,0,5,80,127,2502637876
56,16,17,Jits_Phase_5,1,5,63,98,2502667796
56,16,17,Jits_Phase_5,2,1,48,70,2502673160
56,16,17,Jits_Phase_5,3,5,56,103,2502707948
56,16,17,Jits_Phase_5,0,5,56,103,2503158236
56,16,17,Jits_Phase_5,1,1,48,73,2503182132
56,16,17,Jits_Phase_5,2,5,63,98,2503188080
56,16,17,Jits_Phase_5,3,5,80,127,2503238128
56,16,17,Jits_Phase_5,0,5,80,127,2503657708
56,16,17,Jits_Phase_5,1,1,48,75,2503693812
56,16,17,Jits_Phase_5,2,5,56,103,2503697964
56,16,17,Jits_Phase_5,3,5,63,98,2503708084
56,16,17,Jits_Phase_5,0,5,80,127,2504148480
56,16,17,Jits_Phase_5,1,1,48,69,2504177304
56,16,17,Jits_Phase_5,2,5,63,98,2504188412
56,16,17,Jits_Phase_5,3,5,56,103,2504247776
56,16,17,Jits_Phase_5,0,5,56,103,2504647944
56,16,17,Jits_Phase_5,1,5,80,127,2504658140
56,16,17,Jits_Phase_5,2,1,48,69,2504709136
56,16,17,Jits_Phase_5,3,5,63,98,2504738024
56,16,17,Jits_Phase_5,0,5,80,127,2505148008
56,16,17,Jits_Phase_5,1,1,48,74,2505183040
56,16,17,Jits_Phase_5,2,5,63,98,2505208092
56,16,17,Jits_Phase_5,3,5,56,103,2505237940
56,16,17,Jits_Phase_5,0,5,56,103,2505647476
56,16,17,Jits_Phase_5,1,1,48,83,2505674040
56,16,17,Jits_Phase_5,2,5,80,127,2505707860
56,16,17,Jits_Phase_5,3,5,63,98,2505747820
56,16,17,Jits_Phase_5,0,5,56,103,2506198484
56,16,17,Jits_Phase_5,1,5,63,98,2506207856
56,16,17,Jits_Phase_5,2,5,80,127,2506211148
56,16,17,Jits_Phase_5,3,1,48,79,2506216976
56,16,17,Jits_Phase_5,0,5,80,127,2506648048
56,16,17,Jits_Phase_5,1,1,48,78,2506687584
56,16,17,Jits_Phase_5,2,5,63,98,2506738100
56,16,17,Jits_Phase_5,3,5,56,103,2506748220
56,16,17,Jits_Phase_5,0,5,56,103,2507147800
56,16,17,Jits_Phase_5,1,5,63,98,2507150976
56,16,17,Jits_Phase_5,2,5,80,127,2507154168
56,16,17,Jits_Phase_5,3,1,48,73,2507244640
56,16,17,Jits_Phase_5,0,5,80,127,2507667932
56,16,17,Jits_Phase_5,1,1,48,67,2507672700
56,16,17,Jits_Phase_5,2,5,63,98,2507718128
56,16,17,Jits_Phase_5,3,5,56,103,2507747800
56,16,17,Jits_Phase_5,0,5,56,103,2508148144
56,16,17,Jits_Phase_5,1,5,80,127,2508158416
56,16,17,Jits_Phase_5,2,1,48,72,2508184832
56,16,17,Jits_Phase_5,3,5,63,98,2508227936
56,16,17,Jits_Phase_5,0,1,48,72,2508643824
56,16,17,Jits_Phase_5,1,5,56,103,2508658016
56,16,17,Jits_Phase_5,2,5,63,98,2508677656
56,16,17,Jits_Phase_5,3,5,80,127,2508737892
56,16,17,Jits_Phase_5,0,5,80,127,2509138224
56,16,17,Jits_Phase_5,1,1,48,76,2509153404
56,16,17,Jits_Phase_5,2,5,63,98,2509207900
56,16,17,Jits_Phase_5,3,5,56,103,2509228580
56,16,17,Jits_Phase_5,0,1,48,72,2509655576
56,16,17,Jits_Phase_5,1,5,80,127,2509657612
56,16,17,Jits_Phase_5,2,5,56,103,2509667808
56,16,17,Jits_Phase_5,3,5,63,98,2509678076
56,16,17,Jits_Phase_5,0,5,80,127,2510148076
56,16,17,Jits_Phase_5,1,1,48,73,2510154636
56,16,17,Jits_Phase_5,2,5,56,103,2510168604
56,16,17,Jits_Phase_5,3,5,63,98,2510238204
56,16,17,Jits_Phase_5,0,1,48,75,2510643684
56,16,17,Jits_Phase_5,1,5,56,103,2510657952
56,16,17,Jits_Phase_5,2,5,80,127,2510687552
56,16,17,Jits_Phase_5,3,5,63,98,2510708084
56,16,17,Jits_Phase_5,0,5,63,98,2511148416
56,16,17,Jits_Phase_5,1,1,48,66,2511181796
56,16,17,Jits_Phase_5,2,5,56,103,2511207752
56,16,17,Jits_Phase_5,3,5,80,127,2511237572
56,16,17,Jits_Phase_5,0,5,63,98,2511637904
56,16,17,Jits_Phase_5,1,5,80,127,2511641268
56,16,17,Jits_Phase_5,2,1,48,77,2511659000
56,16,17,Jits_Phase_5,3,5,56,103,2511728024
56,16,17,Jits_Phase_5,0,5,56,103,2512158024
56,16,17,Jits_Phase_5,1,1,48,82,2512170660
56,16,17,Jits_Phase_5,2,5,63,98,2512187772
56,16,17,Jits_Phase_5,3,5,80,127,2512227780
56,16,17,Jits_Phase_5,0,5,63,98,2512657868
56,16,17,Jits_Phase_5,1,1,48,88,2512676056
56,16,17,Jits_Phase_5,2,5,56,103,2512697724
56,16,17,Jits_Phase_5,3,5,80,127,2512718184
56,16,17,Jits_Phase_5,0,1,48,87,2513158760
56,16,17,Jits_Phase_5,1,5,63,98,2513167580
56,16,17,Jits_Phase_5,2,5,56,103,2513207740
56,16,17,Jits_Phase_5,3,5,80,127,2513217936
56,16,17,Jits_Phase_5,0,5,80,127,2513647912
56,16,17,Jits_Phase_5,1,1,48,88,2513699600
56,16,17,Jits_Phase_5,2,5,63,98,2513717756
56,16,17,Jits_Phase_5,3,5,56,103,2513737992
56,16,17,Jits_Phase_5,0,5,56,103,2514137564
56,16,17,Jits_Phase_5,1,5,80,127,2514157948
56,16,17,Jits_Phase_5,2,5,63,98,2514197836
56,16,17,Jits_Phase_5,3,1,48,86,2514207028
56,16,17,Jits_Phase_5,0,5,63,98,2514648484
56,16,17,Jits_Phase_5,1,5,80,127,2514667820
56,16,17,Jits_Phase_5,2,5,56,103,2514707708
56,16,17,Jits_Phase_5,3,1,48,85,2514738472
56,16,17,Jits_Phase_5,0,5,63,98,2515148008
56,16,17,Jits_Phase_5,1,5,56,103,2515167568
56,16,17,Jits_Phase_5,2,5,80,127,2515177912
56,16,17,Jits_Phase_5,3,1,48,74,2515211024
56,16,17,Jits_Phase_5,0,5,80,127,2515647760
56,16,17,Jits_Phase_5,1,5,56,103,2515668440
56,16,17,Jits_Phase_5,2,5,63,98,2515697892
56,16,17,Jits_Phase_5,3,1,48,76,2515698856
56,16,17,Jits_Phase_5,0,1,48,68,2516195524
56,16,17,Jits_Phase_5,1,5,56,103,2516218388
56,16,17,Jits_Phase_5,2,5,80,127,2516221308
56,16,17,Jits_Phase_5,3,5,63,98,2516237824
56,16,17,Jits_Phase_5,0,5,63,98,2516638056
56,16,17,Jits_Phase_5,1,5,56,103,2516667656
56,16,17,Jits_Phase_5,2,1,48,86,2516680288
56,16,17,Jits_Phase_5,3,5,80,127,2516728108
56,16,17,Jits_Phase_5,0,1,48,73,2517177704
56,16,17,Jits_Phase_5,1,5,63,98,2517217588
56,16,17,Jits_Phase_5,2,5,56,103,2517227784
56,16,17,Jits_Phase_5,3,5,80,127,2517238052
56,16,17,Jits_Phase_5,0,5,56,103,2517677564
56,16,17,Jits_Phase_5,1,1,48,73,2517699412
56,16,17,Jits_Phase_5,2,5,80,127,2517708280
56,16,17,Jits_Phase_5,3,5,63,98,2517718548
56,16,17,Jits_Phase_5,0,1,48,73,2518201872
56,16,17,Jits_Phase_5,1,5,63,98,2518218080
56,16,17,Jits_Phase_5,2,5,56,103,2518228500
56,16,17,Jits_Phase_5,3,5,80,127,2518247764
56,16,17,Jits_Phase_5,0,5,56,103,2518648244
56,16,17,Jits_Phase_5,1,1,48,73,2518682004
56,16,17,Jits_Phase_5,2,5,63,98,2518707652
56,16,17,Jits_Phase_5,3,5,80,127,2518710944
56,16,17,Jits_Phase_5,0,5,80,127,2519168372
56,16,17,Jits_Phase_5,1,5,56,103,2519177524
56,16,17,Jits_Phase_5,2,1,48,81,2519207464
56,16,17,Jits_Phase_5,3,5,63,98,2519248536
56,16,17,Jits_Phase_5,0,5,80,127,2519657800
56,16,17,Jits_Phase_5,1,1,48,71,2519697412
56,16,17,Jits_Phase_5,2,5,56,103,2519727548
56,16,17,Jits_Phase_5,3,5,63,98,2519737596
56,16,17,Jits_Phase_5,0,5,63,98,2520197428
56,16,17,Jits_Phase_5,1,5,56,103,2520207620
56,16,17,Jits_Phase_5,2,1,48,75,2520210668
56,16,17,Jits_Phase_5,3,5,80,127,2520228296
56,16,17,Jits_Phase_5,0,5,80,127,2520648252
56,16,17,Jits_Phase_5,1,5,63,98,2520707444
56,16,17,Jits_Phase_5,2,1,48,62,2520740904
56,16,17,Jits_Phase_5,3,5,56,103,2520748568
56,16,17,Jits_Phase_5,0,1,48,74,2521174720
56,16,17,Jits_Phase_5,1,5,56,103,2521187644
56,16,17,Jits_Phase_5,2,5,63,98,2521197916
56,16,17,Jits_Phase_5,3,5,80,127,2521237776
56,16,17,Jits_Phase_5,0,5,56,103,2521647468
56,16,17,Jits_Phase_5,1,1,48,77,2521674628
56,16,17,Jits_Phase_5,2,5,80,127,2521678560
56,16,17,Jits_Phase_5,3,5,63,98,2521728312
56,16,17,Jits_Phase_5,0,1,48,73,2522178292
56,16,17,Jits_Phase_5,1,5,56,103,2522188428
56,16,17,Jits_Phase_5,2,5,63,98,2522228068
56,16,17,Jits_Phase_5,3,5,80,127,2522231432
56,16,17,Jits_Phase_5,0,5,56,103,2522687808
56,16,17,Jits_Phase_5,1,5,63,98,2522698376
56,16,17,Jits_Phase_5,2,1,48,70,2522708316
56,16,17,Jits_Phase_5,3,5,80,127,2522717408
56,16,17,Jits_Phase_5,0,5,56,103,2523147712
56,16,17,Jits_Phase_5,1,5,80,127,2523150708
56,16,17,Jits_Phase_5,2,5,63,98,2523187428
56,16,17,Jits_Phase_5,3,1,48,70,2523193464
56,16,17,Jits_Phase_5,0,1,48,69,2523677252
56,16,17,Jits_Phase_5,1,5,63,98,2523688512
56,16,17,Jits_Phase_5,2,5,56,103,2523717964
56,16,17,Jits_Phase_5,3,5,80,127,2523737452
56,16,17,Jits_Phase_5,0,5,80,127,2524158356
56,16,17,Jits_Phase_5,1,1,48,83,2524163792
56,16,17,Jits_Phase_5,2,5,56,103,2524167496
56,16,17,Jits_Phase_5,3,5,63,98,2524177768
56,16,17,Jits_Phase_5,0,1,48,49,2524639704
56,16,17,Jits_Phase_5,1,5,56,103,2524658232
56,16,17,Jits_Phase_5,2,5,80,127,2524697900
56,16,17,Jits_Phase_5,3,5,63,98,2524727720
56,16,17,Jits_Phase_5,0,1,48,62,2525146652
56,16,17,Jits_Phase_5,1,5,63,98,2525167952
56,16,17,Jits_Phase_5,2,5,80,127,2525178220
56,16,17,Jits_Phase_5,3,5,56,103,2525187296
56,16,17,Jits_Phase_5,0,5,56,103,2525657508
56,16,17,Jits_Phase_5,1,1,48,54,2525675080
56,16,17,Jits_Phase_5,2,5,63,98,2525728328
56,16,17,Jits_Phase_5,3,5,80,127,2525738376
56,16,17,Jits_Phase_5,0,5,80,127,2526168436
56,16,17,Jits_Phase_5,1,5,56,103,2526177584
56,16,17,Jits_Phase_5,2,1,48,54,2526178476
56,16,17,Jits_Phase_5,3,5,63,98,2526227800
56,16,17,Jits_Phase_5,0,1,48,62,2526674972
56,16,17,Jits_Phase_5,1,5,80,127,2526678596
56,16,17,Jits_Phase_5,2,5,56,103,2526737740
56,16,17,Jits_Phase_5,3,5,63,98,2526767416
56,16,17,Jits_Phase_5,0,5,56,103,2527178132
56,16,17,Jits_Phase_5,1,1,48,73,2527180744
56,16,17,Jits_Phase_5,2,5,80,127,2527182460
56,16,17,Jits_Phase_5,3,5,63,98,2527218060
56,16,17,Jits_Phase_5,0,1,48,58,2527684888
56,16,17,Jits_Phase_5,1,5,56,103,2527707624
56,16,17,Jits_Phase_5,2,5,63,98,2527738272
56,16,17,Jits_Phase_5,3,5,80,127,2527747420
56,16,17,Jits_Phase_5,0,1,48,76,2528164636
56,16,17,Jits_Phase_5,1,5,63,98,2528217416
56,16,17,Jits_Phase_5,2,5,80,127,2528227688
56,16,17,Jits_Phase_5,3,5,56,103,2528237808
56,16,17,Jits_Phase_5,0,5,80,127,2528668100
56,16,17,Jits_Phase_5,1,1,48,70,2528694368
56,16,17,Jits_Phase_5,2,5,56,103,2528718220
56,16,17,Jits_Phase_5,3,5,63,98,2528721436
56,16,17,Jits_Phase_5,0,5,56,103,2529197376
56,16,17,Jits_Phase_5,1,5,80,127,2529217908
56,16,17,Jits_Phase_5,2,5,63,98,2529228404
56,16,17,Jits_Phase_5,3,1,48,58,2529242236
56,16,17,Jits_Phase_5,0,5,63,98,2529677588
56,16,17,Jits_Phase_5,1,1,48,71,2529685116
56,16,17,Jits_Phase_5,2,5,56,103,2529708376
56,16,17,Jits_Phase_5,3,5,80,127,2529727712
56,16,17,Jits_Phase_5,0,5,56,103,2530187600
56,16,17,Jits_Phase_5,1,5,80,127,2530198016
56,16,17,Jits_Phase_5,2,1,48,75,2530212224
56,16,17,Jits_Phase_5,3,5,63,98,2530267464
56,16,17,Jits_Phase_5,0,5,63,98,2530678220
56,16,17,Jits_Phase_5,1,1,48,67,2530702392
56,16,17,Jits_Phase_5,2,5,80,127,2530718152
56,16,17,Jits_Phase_5,3,5,56,103,2530758160
56,16,17,Jits_Phase_5,0,1,48,59,2531182880
56,16,17,Jits_Phase_5,1,5,56,103,2531188224
56,16,17,Jits_Phase_5,2,5,63,98,2531198420
56,16,17,Jits_Phase_5,3,5,80,127,2531217832
56,16,17,Jits_Phase_5,0,1,48,62,2531717020
56,16,17,Jits_Phase_5,1,5,63,98,2531727684
56,16,17,Jits_Phase_5,2,5,80,127,2531748144
56,16,17,Jits_Phase_5,3,5,56,103,2531767704
56,16,17,Jits_Phase_5,0,5,56,103,2532168260
56,16,17,Jits_Phase_5,1,1,48,72,2532183140
56,16,17,Jits_Phase_5,2,5,80,127,2532248044
56,16,17,Jits_Phase_5,3,5,63,98,2532258388
56,16,17,Jits_Phase_5,0,5,80,127,2532707660
56,16,17,Jits_Phase_5,1,5,63,98,2532718152
56,16,17,Jits_Phase_5,2,1,48,69,2532727568
56,16,17,Jits_Phase_5,3,5,56,103,2532747668
56,16,17,Jits_Phase_5,0,5,63,98,2533167420
56,16,17,Jits_Phase_5,1,5,80,127,2533208480
56,16,17,Jits_Phase_5,2,1,48,79,2533231376
56,16,17,Jits_Phase_5,3,5,56,103,2533267960
56,16,17,Jits_Phase_5,0,5,63,98,2533677360
56,16,17,Jits_Phase_5,1,1,48,80,2533684296
56,16,17,Jits_Phase_5,2,5,56,103,2533727476
56,16,17,Jits_Phase_5,3,5,80,127,2533758348
56,16,17,Jits_Phase_5,0,5,80,127,2534178084
56,16,17,Jits_Phase_5,1,5,63,98,2534188356
56,16,17,Jits_Phase_5,2,1,48,80,2534204204
56,16,17,Jits_Phase_5,3,5,56,103,2534258024
56,16,17,Jits_Phase_5,0,1,48,76,2534716860
56,16,17,Jits_Phase_5,1,5,80,127,2534738308
56,16,17,Jits_Phase_5,2,5,56,103,2534747528
56,16,17,Jits_Phase_5,3,5,63,98,2534750672
56,16,17,Jits_Phase_5,0,5,56,103,2535177600
56,16,17,Jits_Phase_5,1,5,80,127,2535198208
56,16,17,Jits_Phase_5,2,5,63,98,2535208328
56,16,17,Jits_Phase_5,3,1,48,70,2535230176
56,16,17,Jits_Phase_5,0,5,63,98,2535687532
56,16,17,Jits_Phase_5,1,1,48,86,2535694416
56,16,17,Jits_Phase_5,2,5,56,103,2535727412
56,16,17,Jits_Phase_5,3,5,80,127,2535748092
56,16,17,Jits_Phase_5,0,5,63,98,2536188332
56,16,17,Jits_Phase_5,1,1,48,78,2536202340
56,16,17,Jits_Phase_5,2,5,56,103,2536247616
56,16,17,Jits_Phase_5,3,5,80,127,2536250608
56,16,17,Jits_Phase_5,0,5,56,103,2536648440
56,16,17,Jits_Phase_5,1,5,80,127,2536667556
56,16,17,Jits_Phase_5,2,1,48,78,2536689932
56,16,17,Jits_Phase_5,3,5,63,98,2536707412
56,16,17,Jits_Phase_5,0,5,56,103,2537177500
56,16,17,Jits_Phase_5,1,1,48,80,2537188788
56,16,17,Jits_Phase_5,2,5,63,98,2537197880
56,16,17,Jits_Phase_5,3,5,80,127,2537208296
56,16,17,Jits_Phase_5,0,5,80,127,2537647448
56,16,17,Jits_Phase_5,1,5,56,103,2537678172
56,16,17,Jits_Phase_5,2,1,48,77,2537681588
56,16,17,Jits_Phase_5,3,5,63,98,2537718100
56,16,17,Jits_Phase_5,0,5,80,127,2538157476
56,16,17,Jits_Phase_5,1,1,48,69,2538158888
56,16,17,Jits_Phase_5,2,5,56,103,2538178080
56,16,17,Jits_Phase_5,3,5,63,98,2538238316
56,16,17,Jits_Phase_5,0,5,56,103,2538668556
56,16,17,Jits_Phase_5,1,5,80,127,2538687964
56,16,17,Jits_Phase_5,2,1,48,76,2538689228
56,16,17,Jits_Phase_5,3,5,63,98,2538748344
56,16,17,Jits_Phase_5,0,5,80,127,2539147572
56,16,17,Jits_Phase_5,1,5,56,103,2539158288
56,16,17,Jits_Phase_5,2,1,48,67,2539176472
56,16,17,Jits_Phase_5,3,5,63,98,2539197920
56,16,17,Jits_Phase_5,0,5,63,98,2539648232
56,16,17,Jits_Phase_5,1,1,48,74,2539671132
56,16,17,Jits_Phase_5,2,5,56,103,2539688236
56,16,17,Jits_Phase_5,3,5,80,127,2539691452
56,16,17,Jits_Phase_5,0,5,63,98,2540167448
56,16,17,Jits_Phase_5,1,1,48,57,2540195132
56,16,17,Jits_Phase_5,2,5,80,127,2540207380
56,16,17,Jits_Phase_5,3,5,56,103,2540238172
56,16,17,Jits_Phase_5,0,5,56,103,2540658128
56,16,17,Jits_Phase_5,1,5,63,98,2540668252
56,16,17,Jits_Phase_5,2,1,48,69,2540673012
56,16,17,Jits_Phase_5,3,5,80,127,2540697992
56,16,17,Jits_Phase_5,0,5,80,127,2541147404
56,16,17,Jits_Phase_5,1,1,48,74,2541182436
56,16,17,Jits_Phase_5,2,5,63,98,2541218124
56,16,17,Jits_Phase_5,3,5,56,103,2541228320
56,16,17,Jits_Phase_5,0,5,63,98,2541648216
56,16,17,Jits_Phase_5,1,1,48,84,2541668424
56,16,17,Jits_Phase_5,2,5,56,103,2541718040
56,16,17,Jits_Phase_5,3,5,80,127,2541728308
56,16,17,Jits_Phase_5,0,5,63,98,2542127440
56,16,17,Jits_Phase_5,1,5,56,103,2542148124
56,16,17,Jits_Phase_5,2,1,48,78,2542173416
56,16,17,Jits_Phase_5,3,5,80,127,2542187828
56,16,17,Jits_Phase_5,0,5,56,103,2542608012
56,16,17,Jits_Phase_5,1,5,63,98,2542617984
56,16,17,Jits_Phase_5,2,1,48,59,2542676544
56,16,17,Jits_Phase_5,3,5,80,127,2542697916
56,16,17,Jits_Phase_5,0,5,63,98,2543098308
56,16,17,Jits_Phase_5,1,1,48,75,2543102104
56,16,17,Jits_Phase_5,2,5,56,103,2543127852
56,16,17,Jits_Phase_5,3,5,80,127,2543168012
56,16,17,Jits_Phase_5,0,5,56,103,2543598132
56,16,17,Jits_Phase_5,1,1,48,78,2543626460
56,16,17,Jits_Phase_5,2,5,63,98,2543637864
56,16,17,Jits_Phase_5,3,5,80,127,2543677800
56,16,17,Jits_Phase_5,0,1,48,75,2544087528
56,16,17,Jits_Phase_5,1,5,80,127,2544097592
56,16,17,Jits_Phase_5,2,5,56,103,2544177484
56,16,17,Jits_Phase_5,3,5,63,98,2544187740
56,16,17,Jits_Phase_5,0,5,56,103,2544638328
56,16,17,Jits_Phase_5,1,5,63,98,2544641396
56,16,17,Jits_Phase_5,2,1,48,83,2544647400
56,16,17,Jits_Phase_5,3,5,80,127,2544648836
56,16,17,Jits_Phase_5,0,1,48,73,2545165576
56,16,17,Jits_Phase_5,1,5,56,103,2545167840
56,16,17,Jits_Phase_5,2,5,63,98,2545188152
56,16,17,Jits_Phase_5,3,5,80,127,2545197372
56,16,17,Jits_Phase_5,0,5,63,98,2545627492
56,16,17,Jits_Phase_5,1,5,80,127,2545637836
56,16,17,Jits_Phase_5,2,1,48,71,2545640356
56,16,17,Jits_Phase_5,3,5,56,103,2545658360
56,16,17,Jits_Phase_5,0,5,63,98,2546128360
56,16,17,Jits_Phase_5,1,1,48,74,2546149984
56,16,17,Jits_Phase_5,2,5,56,103,2546208244
56,16,17,Jits_Phase_5,3,5,80,127,2546211312
56,16,17,Jits_Phase_5,0,5,63,98,2546627956
56,16,17,Jits_Phase_5,1,5,56,103,2546648340
56,16,17,Jits_Phase_5,2,1,48,64,2546651008
56,16,17,Jits_Phase_5,3,5,80,127,2546678080
56,16,17,Jits_Phase_5,0,5,56,103,2547127776
56,16,17,Jits_Phase_5,1,5,63,98,2547148088
56,16,17,Jits_Phase_5,2,1,48,76,2547150984
56,16,17,Jits_Phase_5,3,5,80,127,2547158348
56,16,17,Jits_Phase_5,0,1,48,59,2547648864
56,16,17,Jits_Phase_5,1,5,56,103,2547658176
56,16,17,Jits_Phase_5,2,5,63,98,2547687852
56,16,17,Jits_Phase_5,3,5,80,127,2547691292
56,16,17,Jits_Phase_5,0,5,56,103,2548108032
56,16,17,Jits_Phase_5,1,1,48,67,2548119776
56,16,17,Jits_Phase_5,2,5,63,98,2548147520
56,16,17,Jits_Phase_5,3,5,80,127,2548208056
56,16,17,Jits_Phase_5,0,5,56,103,2548627804
56,16,17,Jits_Phase_5,1,5,63,98,2548638148
56,16,17,Jits_Phase_5,2,1,48,66,2548668092
56,16,17,Jits_Phase_5,3,5,80,127,2548697332
56,16,17,Jits_Phase_5,0,1,48,71,2549117800
56,16,17,Jits_Phase_5,1,5,56,103,2549127416
56,16,17,Jits_Phase_5,2,5,80,127,2549147948
56,16,17,Jits_Phase_5,3,5,63,98,2549177992
56,16,17,Jits_Phase_5,0,5,80,127,2549628368
56,16,17,Jits_Phase_5,1,1,48,72,2549633136
56,16,17,Jits_Phase_5,2,5,56,103,2549637360
56,16,17,Jits_Phase_5,3,5,63,98,2549658116
56,16,17,Jits_Phase_5,0,5,63,98,2550118164
56,16,17,Jits_Phase_5,1,1,48,73,2550125544
56,16,17,Jits_Phase_5,2,5,80,127,2550197728
56,16,17,Jits_Phase_5,3,5,56,103,2550207996
56,16,17,Jits_Phase_5,0,1,48,80,2550648084
56,16,17,Jits_Phase_5,1,5,80,127,2550707668
56,16,17,Jits_Phase_5,2,5,56,103,2550728052
56,16,17,Jits_Phase_5,3,5,63,98,2550731120
56,16,17,Jits_Phase_5,0,1,48,70,2551188208
56,16,17,Jits_Phase_5,1,5,63,98,2551198044
56,16,17,Jits_Phase_5,2,5,80,127,2551201412
56,16,17,Jits_Phase_5,3,5,56,103,2551257312
56,16,17,Jits_Phase_5,0,5,56,103,2551678244
56,16,17,Jits_Phase_5,1,5,80,127,2551687468
56,16,17,Jits_Phase_5,2,1,48,70,2551698904
56,16,17,Jits_Phase_5,3,5,63,98,2551727692
56,16,17,Jits_Phase_5,0,5,56,103,2552157632
56,16,17,Jits_Phase_5,1,1,48,69,2552212436
56,16,17,Jits_Phase_5,2,5,63,98,2552217864
56,16,17,Jits_Phase_5,3,5,80,127,2552228136
56,16,17,Jits_Phase_5,0,5,63,98,2552667360
56,16,17,Jits_Phase_5,1,5,80,127,2552707376
56,16,17,Jits_Phase_5,2,1,48,71,2552711244
56,16,17,Jits_Phase_5,3,5,56,103,2552748276
56,16,17,Jits_Phase_5,0,5,56,103,2553168160
56,16,17,Jits_Phase_5,1,1,48,76,2553174348
56,16,17,Jits_Phase_5,2,5,63,98,2553248244
56,16,17,Jits_Phase_5,3,5,80,127,2553251612
56,16,17,Jits_Phase_5,0,1,48,72,2553719804
56,16,17,Jits_Phase_5,1,5,80,127,2553728300
56,16,17,Jits_Phase_5,2,5,56,103,2553758048
56,16,17,Jits_Phase_5,3,5,63,98,2553761264
56,16,17,Jits_Phase_5,0,5,56,103,2554188124
56,16,17,Jits_Phase_5,1,5,80,127,2554207684
56,16,17,Jits_Phase_5,2,1,48,67,2554231404
56,16,17,Jits_Phase_5,3,5,63,98,2554247836
56,16,17,Jits_Phase_5,0,5,80,127,2554668412
56,16,17,Jits_Phase_5,1,5,63,98,2554687824
56,16,17,Jits_Phase_5,2,1,48,62,2554713932
56,16,17,Jits_Phase_5,3,5,56,103,2554748204
56,16,17,Jits_Phase_5,0,5,63,98,2555178292
56,16,17,Jits_Phase_5,1,5,56,103,2555187812
56,16,17,Jits_Phase_5,2,1,48,73,2555206824
56,16,17,Jits_Phase_5,3,5,80,127,2555237932
56,16,17,Jits_Phase_5,0,5,56,103,2555667780
56,16,17,Jits_Phase_5,1,1,48,74,2555684080
56,16,17,Jits_Phase_5,2,5,63,98,2555688380
56,16,17,Jits_Phase_5,3,5,80,127,2555697528
56,16,17,Jits_Phase_5,0,5,56,103,2556158448
56,16,17,Jits_Phase_5,1,5,63,98,2556161292
56,16,17,Jits_Phase_5,2,1,48,77,2556162260
56,16,17,Jits_Phase_5,3,5,80,127,2556177876
56,16,17,Jits_Phase_5,0,1,48,59,2556663704
56,16,17,Jits_Phase_5,1,5,63,98,2556698076
56,16,17,Jits_Phase_5,2,5,56,103,2556727752
56,16,17,Jits_Phase_5,3,5,80,127,2556758544
56,16,17,Jits_Phase_5,0,5,80,127,2557157656
56,16,17,Jits_Phase_5,1,1,48,73,2557187376
56,16,17,Jits_Phase_5,2,5,56,103,2557247952
56,16,17,Jits_Phase_5,3,5,63,98,2557250944
56,16,17,Jits_Phase_5,0,5,56,103,2557657632
56,16,17,Jits_Phase_5,1,5,80,127,2557660628
56,16,17,Jits_Phase_5,2,1,48,52,2557697688
56,16,17,Jits_Phase_5,3,5,63,98,2557738340
56,16,17,Jits_Phase_5,0,5,80,127,2558158132
56,16,17,Jits_Phase_5,1,1,48,63,2558199984
56,16,17,Jits_Phase_5,2,5,63,98,2558217640
56,16,17,Jits_Phase_5,3,5,56,103,2558248284
56,16,17,Jits_Phase_5,0,5,63,98,2558657896
56,16,17,Jits_Phase_5,1,5,80,127,2558668092
56,16,17,Jits_Phase_5,2,1,48,77,2558682300
56,16,17,Jits_Phase_5,3,5,56,103,2558737712
56,16,17,Jits_Phase_5,0,1,48,82,2559188256
56,16,17,Jits_Phase_5,1,5,56,103,2559218096
56,16,17,Jits_Phase_5,2,5,80,127,2559247648
56,16,17,Jits_Phase_5,3,5,63,98,2559297908
56,16,17,Jits_Phase_5,0,1,48,66,2559717368
56,16,17,Jits_Phase_5,1,5,63,98,2559807848
56,16,17,Jits_Phase_5,2,5,56,103,2559837652
56,16,17,Jits_Phase_5,3,5,80,127,2559840648
56,16,17,Jits_Phase_5,0,1,48,70,2560282164
56,16,17,Jits_Phase_5,1,5,63,98,2560307744
56,16,17,Jits_Phase_5,2,5,80,127,2560327904
56,16,17,Jits_Phase_5,3,5,56,103,2560338176
56,16,17,Jits_Phase_5,0,1,48,75,2560788740
56,16,17,Jits_Phase_5,1,5,56,103,2560817908
56,16,17,Jits_Phase_5,2,5,63,98,2560820748
56,16,17,Jits_Phase_5,3,5,80,127,2560837912
56,16,17,Jits_Phase_5,0,5,56,103,2561268108
56,16,17,Jits_Phase_5,1,5,63,98,2561278748
56,16,17,Jits_Phase_5,2,5,80,127,2561308076
56,16,17,Jits_Phase_5,3,1,48,91,2561317792
56,16,17,Jits_Phase_5,0,1,48,84,2561775020
56,16,17,Jits_Phase_5,1,5,63,98,2561788240
56,16,17,Jits_Phase_5,2,5,80,127,2561807676
56,16,17,Jits_Phase_5,3,5,56,103,2561847540
56,16,17,Jits_Phase_5,0,1,48,82,2562279576
56,16,17,Jits_Phase_5,1,5,56,103,2562317756
56,16,17,Jits_Phase_5,2,5,63,98,2562357544
56,16,17,Jits_Phase_5,3,5,80,127,2562360760
56,16,17,Jits_Phase_5,0,5,80,127,2562758000
56,16,17,Jits_Phase_5,1,1,48,77,2562796656
56,16,17,Jits_Phase_5,2,5,56,103,2562798152
56,16,17,Jits_Phase_5,3,5,63,98,2562848152
56,16,17,Jits_Phase_5,0,1,48,70,2563273528
56,16,17,Jits_Phase_5,1,5,56,103,2563318288
56,16,17,Jits_Phase_5,2,5,80,127,2563328632
56,16,17,Jits_Phase_5,3,5,63,98,2563358184
56,16,17,Jits_Phase_5,0,5,56,103,2563767780
56,16,17,Jits_Phase_5,1,1,48,80,2563801316
56,16,17,Jits_Phase_5,2,5,80,127,2563807712
56,16,17,Jits_Phase_5,3,5,63,98,2563857712
56,16,17,Jits_Phase_5,0,5,56,103,2564268672
56,16,17,Jits_Phase_5,1,1,48,73,2564303476
56,16,17,Jits_Phase_5,2,5,80,127,2564308380
56,16,17,Jits_Phase_5,3,5,63,98,2564357456
56,16,17,Jits_Phase_5,0,5,80,127,2564757940
56,16,17,Jits_Phase_5,1,1,48,68,2564820248
56,16,17,Jits_Phase_5,2,5,63,98,2564837728
56,16,17,Jits_Phase_5,3,5,56,103,2564848000
56,16,17,Jits_Phase_5,0,1,48,67,2565297684
56,16,17,Jits_Phase_5,1,5,80,127,2565307820
56,16,17,Jits_Phase_5,2,5,56,103,2565317944
56,16,17,Jits_Phase_5,3,5,63,98,2565337428
56,16,17,Jits_Phase_5,0,5,63,98,2565777764
56,16,17,Jits_Phase_5,1,1,48,69,2565820440
56,16,17,Jits_Phase_5,2,5,56,103,2565848556
56,16,17,Jits_Phase_5,3,5,80,127,2565851696
56,16,17,Jits_Phase_5,0,5,80,127,2566268360
56,16,17,Jits_Phase_5,1,1,48,77,2566295220
56,16,17,Jits_Phase_5,2,5,63,98,2566317584
56,16,17,Jits_Phase_5,3,5,56,103,2566358492
56,16,17,Jits_Phase_5,0,1,48,64,2566798212
56,16,17,Jits_Phase_5,1,5,63,98,2566807904
56,16,17,Jits_Phase_5,2,5,56,103,2566847840
56,16,17,Jits_Phase_5,3,5,80,127,2566858036
56,16,17,Jits_Phase_5,0,1,48,65,2567284616
56,16,17,Jits_Phase_5,1,5,63,98,2567298440
56,16,17,Jits_Phase_5,2,5,56,103,2567317776
56,16,17,Jits_Phase_5,3,5,80,127,2567338532
56,16,17,Jits_Phase_5,0,5,80,127,2567758336
56,16,17,Jits_Phase_5,1,5,56,103,2567768312
56,16,17,Jits_Phase_5,2,5,63,98,2567787944
56,16,17,Jits_Phase_5,3,1,48,63,2567807548
56,16,17,Jits_Phase_5,0,1,48,68,2568286340
56,16,17,Jits_Phase_5,1,5,63,98,2568287908
56,16,17,Jits_Phase_5,2,5,56,103,2568327624
56,16,17,Jits_Phase_5,3,5,80,127,2568358492
56,16,17,Jits_Phase_5,0,5,56,103,2568748484
56,16,17,Jits_Phase_5,1,1,48,63,2568775568
56,16,17,Jits_Phase_5,2,5,63,98,2568778300
56,16,17,Jits_Phase_5,3,5,80,127,2568807828
56,16,17,Jits_Phase_5,0,5,80,127,2569168520
56,16,17,Jits_Phase_5,1,5,56,103,2569237852
56,16,17,Jits_Phase_5,2,5,63,98,2569240844
56,16,17,Jits_Phase_5,3,1,48,57,2569281492
56,16,17,Jits_Phase_5,0,5,56,103,2569678312
56,16,17,Jits_Phase_5,1,5,63,98,2569728516
56,16,17,Jits_Phase_5,2,1,48,73,2569737884
56,16,17,Jits_Phase_5,3,5,80,127,2569758056
56,16,17,Jits_Phase_5,0,5,63,98,2570157400
56,16,17,Jits_Phase_5,1,5,80,127,2570160840
56,16,17,Jits_Phase_5,2,5,56,103,2570217788
56,16,17,Jits_Phase_5,3,1,48,66,2570248872
56,16,17,Jits_Phase_5,0,5,56,103,2570687932
56,16,17,Jits_Phase_5,1,5,80,127,2570698276
56,16,17,Jits_Phase_5,2,1,48,69,2570700796
56,16,17,Jits_Phase_5,3,5,63,98,2570748244
56,16,17,Jits_Phase_5,0,5,63,98,2571157876
56,16,17,Jits_Phase_5,1,5,56,103,2571168372
56,16,17,Jits_Phase_5,2,5,80,127,2571197748
56,16,17,Jits_Phase_5,3,1,48,66,2571223932
56,16,17,Jits_Phase_5,0,1,48,72,2571660136
56,16,17,Jits_Phase_5,1,5,63,98,2571688404
56,16,17,Jits_Phase_5,2,5,80,127,2571691768
56,16,17,Jits_Phase_5,3,5,56,103,2571718076
56,16,17,Jits_Phase_5,0,1,48,67,2572155668
56,16,17,Jits_Phase_5,1,5,63,98,2572207404
56,16,17,Jits_Phase_5,2,5,56,103,2572227932
56,16,17,Jits_Phase_5,3,5,80,127,2572231300
56,16,17,Jits_Phase_5,0,1,48,76,2572659392
56,16,17,Jits_Phase_5,1,5,63,98,2572668484
56,16,17,Jits_Phase_5,2,5,56,103,2572738016
56,16,17,Jits_Phase_5,3,5,80,127,2572758384
56,16,17,Jits_Phase_5,0,5,56,103,2573158276
56,16,17,Jits_Phase_5,1,5,63,98,2573167952
56,16,17,Jits_Phase_5,2,1,48,70,2573189724
56,16,17,Jits_Phase_5,3,5,80,127,2573258292
56,16,17,Jits_Phase_5,0,1,48,76,2573677292
56,16,17,Jits_Phase_5,1,5,56,103,2573678784
56,16,17,Jits_Phase_5,2,5,80,127,2573717752
56,16,17,Jits_Phase_5,3,5,63,98,2573728392
56,16,17,Jits_Phase_5,0,5,56,103,2574198244
56,16,17,Jits_Phase_5,1,1,48,66,2574205180
56,16,17,Jits_Phase_5,2,5,63,98,2574227840
56,16,17,Jits_Phase_5,3,5,80,127,2574257588
56,16,17,Jits_Phase_5,0,5,80,127,2574657860
56,16,17,Jits_Phase_5,1,5,63,98,2574697872
56,16,17,Jits_Phase_5,2,1,48,52,2574701064
56,16,17,Jits_Phase_5,3,5,56,103,2574718172
56,16,17,Jits_Phase_5,0,1,48,75,2575166280
56,16,17,Jits_Phase_5,1,5,56,103,2575197544
56,16,17,Jits_Phase_5,2,5,80,127,2575218004
56,16,17,Jits_Phase_5,3,5,63,98,2575237416
56,16,17,Jits_Phase_5,0,5,63,98,2575667560
56,16,17,Jits_Phase_5,1,5,56,103,2575677832
56,16,17,Jits_Phase_5,2,1,48,72,2575687848
56,16,17,Jits_Phase_5,3,5,80,127,2575738432
56,16,17,Jits_Phase_5,0,5,56,103,2576168352
56,16,17,Jits_Phase_5,1,1,48,58,2576175060
56,16,17,Jits_Phase_5,2,5,63,98,2576237952
56,16,17,Jits_Phase_5,3,5,80,127,2576258412
56,16,17,Jits_Phase_5,0,1,48,56,2576660144
56,16,17,Jits_Phase_5,1,5,56,103,2576668260
56,16,17,Jits_Phase_5,2,5,63,98,2576697712
56,16,17,Jits_Phase_5,3,5,80,127,2576737500
56,16,17,Jits_Phase_5,0,5,63,98,2577157356
56,16,17,Jits_Phase_5,1,1,48,62,2577176016
56,16,17,Jits_Phase_5,2,5,56,103,2577207724
56,16,17,Jits_Phase_5,3,5,80,127,2577217992
56,16,17,Jits_Phase_5,0,1,48,65,2577660216
56,16,17,Jits_Phase_5,1,5,56,103,2577698324
56,16,17,Jits_Phase_5,2,5,63,98,2577748452
56,16,17,Jits_Phase_5,3,5,80,127,2577757584
56,16,17,Jits_Phase_5,0,5,56,103,2578168388
56,16,17,Jits_Phase_5,1,5,63,98,2578178360
56,16,17,Jits_Phase_5,2,1,48,72,2578200688
56,16,17,Jits_Phase_5,3,5,80,127,2578258392
56,16,17,Jits_Phase_5,0,9999,9999,9999,2493935700
56,16,17,Jits_Phase_5,1,9999,9999,9999,2494435412
56,16,17,Jits_Phase_5,2,9999,9999,9999,2494935120
56,16,17,Jits_Phase_5,3,9999,9999,9999,2495435840
56,16,17,Jits_Phase_5,4,9999,9999,9999,2495935596
56,16,17,Jits_Phase_5,5,9999,9999,9999,2496435276
56,16,17,Jits_Phase_5,6,9999,9999,9999,2496936000
56,16,17,Jits_Phase_5,7,9999,9999,9999,2497435764
56,16,17,Jits_Phase_5,8,9999,9999,9999,2497935452
56,16,17,Jits_Phase_5,9,9999,9999,9999,2498435144
56,16,17,Jits_Phase_5,10,9999,9999,9999,2498935880
56,16,17,Jits_Phase_5,11,9999,9999,9999,2499435644
56,16,17,Jits_Phase_5,12,9999,9999,9999,2499935316
56,16,17,Jits_Phase_5,13,9999,9999,9999,2500436036
56,16,17,Jits_Phase_5,14,9999,9999,9999,2500935788
56,16,17,Jits_Phase_5,15,9999,9999,9999,2501435480
56,16,17,Jits_Phase_5,16,9999,9999,9999,2501935168
56,16,17,Jits_Phase_5,17,9999,9999,9999,2502435964
56,16,17,Jits_Phase_5,18,9999,9999,9999,2502935652
56,16,17,Jits_Phase_5,19,9999,9999,9999,2503435348
56,16,17,Jits_Phase_5,20,9999,9999,9999,2503936060
56,16,17,Jits_Phase_5,21,9999,9999,9999,2504446012
56,16,17,Jits_Phase_5,22,9999,9999,9999,2504945776
56,16,17,Jits_Phase_5,23,9999,9999,9999,2505445468
56,16,17,Jits_Phase_5,24,9999,9999,9999,2505945160
56,16,17,Jits_Phase_5,25,9999,9999,9999,2506445888
56,16,17,Jits_Phase_5,26,9999,9999,9999,2506945656
56,16,17,Jits_Phase_5,27,9999,9999,9999,2507445324
56,16,17,Jits_Phase_5,28,9999,9999,9999,2507946060
56,16,17,Jits_Phase_5,29,9999,9999,9999,2508445752
56,16,17,Jits_Phase_5,30,9999,9999,9999,2508935256
56,16,17,Jits_Phase_5,31,9999,9999,9999,2509435984
56,16,17,Jits_Phase_5,32,9999,9999,9999,2509935668
56,16,17,Jits_Phase_5,33,9999,9999,9999,2510435420
56,16,17,Jits_Phase_5,34,9999,9999,9999,2510935112
56,16,17,Jits_Phase_5,35,9999,9999,9999,2511435836
56,16,17,Jits_Phase_5,36,9999,9999,9999,2511935576
56,16,17,Jits_Phase_5,37,9999,9999,9999,2512435256
56,16,17,Jits_Phase_5,38,9999,9999,9999,2512935996
56,16,17,Jits_Phase_5,39,9999,9999,9999,2513435752
56,16,17,Jits_Phase_5,40,9999,9999,9999,2513935432
56,16,17,Jits_Phase_5,41,9999,9999,9999,2514435168
56,16,17,Jits_Phase_5,42,9999,9999,9999,2514935900
56,16,17,Jits_Phase_5,43,9999,9999,9999,2515435576
56,16,17,Jits_Phase_5,44,9999,9999,9999,2515935324
56,16,17,Jits_Phase_5,45,9999,9999,9999,2516436060
56,16,17,Jits_Phase_5,46,9999,9999,9999,2516935736
56,16,17,Jits_Phase_5,47,9999,9999,9999,2517435488
56,16,17,Jits_Phase_5,48,9999,9999,9999,2517945432
56,16,17,Jits_Phase_5,49,9999,9999,9999,2518445128
56,16,17,Jits_Phase_5,50,9999,9999,9999,2518945912
56,16,17,Jits_Phase_5,51,9999,9999,9999,2519445604
56,16,17,Jits_Phase_5,52,9999,9999,9999,2519945296
56,16,17,Jits_Phase_5,53,9999,9999,9999,2520446036
56,16,17,Jits_Phase_5,54,9999,9999,9999,2520945784
56,16,17,Jits_Phase_5,55,9999,9999,9999,2521445476
56,16,17,Jits_Phase_5,56,9999,9999,9999,2521945152
56,16,17,Jits_Phase_5,57,9999,9999,9999,2522445880
56,16,17,Jits_Phase_5,58,9999,9999,9999,2522945632
56,16,17,Jits_Phase_5,59,9999,9999,9999,2523445312
56,16,17,Jits_Phase_5,60,9999,9999,9999,2523946048
56,16,17,Jits_Phase_5,61,9999,9999,9999,2524445768
56,16,17,Jits_Phase_5,62,9999,9999,9999,2524945460
56,16,17,Jits_Phase_5,63,9999,9999,9999,2525445184
56,16,17,Jits_Phase_5,64,9999,9999,9999,2525965404
56,16,17,Jits_Phase_5,65,9999,9999,9999,2526465144
56,16,17,Jits_Phase_5,66,9999,9999,9999,2526965876
56,16,17,Jits_Phase_5,67,9999,9999,9999,2527465540
56,16,17,Jits_Phase_5,68,9999,9999,9999,2527965308
56,16,17,Jits_Phase_5,69,9999,9999,9999,2528466032
56,16,17,Jits_Phase_5,70,9999,9999,9999,2528965700
56,16,17,Jits_Phase_5,71,9999,9999,9999,2529465464
56,16,17,Jits_Phase_5,72,9999,9999,9999,2529965152
56,16,17,Jits_Phase_5,73,9999,9999,9999,2530465876
56,16,17,Jits_Phase_5,74,9999,9999,9999,2530965564
56,16,17,Jits_Phase_5,75,9999,9999,9999,2531465312
56,16,17,Jits_Phase_5,76,9999,9999,9999,2531966040
56,16,17,Jits_Phase_5,77,9999,9999,9999,2532465720
56,16,17,Jits_Phase_5,78,9999,9999,9999,2532965484
56,16,17,Jits_Phase_5,79,9999,9999,9999,2533465176
56,16,17,Jits_Phase_5,80,9999,9999,9999,2533965900
56,16,17,Jits_Phase_5,81,9999,9999,9999,2534445128
56,16,17,Jits_Phase_5,82,9999,9999,9999,2534945864
56,16,17,Jits_Phase_5,83,9999,9999,9999,2535445616
56,16,17,Jits_Phase_5,84,9999,9999,9999,2535945308
56,16,17,Jits_Phase_5,85,9999,9999,9999,2536446076
56,16,17,Jits_Phase_5,86,9999,9999,9999,2536945748
56,16,17,Jits_Phase_5,87,9999,9999,9999,2537445440
56,16,17,Jits_Phase_5,88,9999,9999,9999,2537945204
56,16,17,Jits_Phase_5,89,9999,9999,9999,2538445944
56,16,17,Jits_Phase_5,90,9999,9999,9999,2538945636
56,16,17,Jits_Phase_5,91,9999,9999,9999,2539445324
56,16,17,Jits_Phase_5,92,9999,9999,9999,2539946048
56,16,17,Jits_Phase_5,93,9999,9999,9999,2540445800
56,16,17,Jits_Phase_5,94,9999,9999,9999,2540945472
56,16,17,Jits_Phase_5,95,9999,9999,9999,2541445236
56,16,17,Jits_Phase_5,96,9999,9999,9999,2541945972
56,16,17,Jits_Phase_5,97,9999,9999,9999,2542395452
56,16,17,Jits_Phase_5,98,9999,9999,9999,2542895204
56,16,17,Jits_Phase_5,99,9999,9999,9999,2543395940
56,16,17,Jits_Phase_5,100,9999,9999,9999,2543895612
56,16,17,Jits_Phase_5,101,9999,9999,9999,2544395380
56,16,17,Jits_Phase_5,102,9999,9999,9999,2544896068
56,16,17,Jits_Phase_5,103,9999,9999,9999,2545406020
56,16,17,Jits_Phase_5,104,9999,9999,9999,2545905764
56,16,17,Jits_Phase_5,105,9999,9999,9999,2546405432
56,16,17,Jits_Phase_5,106,9999,9999,9999,2546905180
56,16,17,Jits_Phase_5,107,9999,9999,9999,2547405904
56,16,17,Jits_Phase_5,108,9999,9999,9999,2547905592
56,16,17,Jits_Phase_5,109,9999,9999,9999,2548405344
56,16,17,Jits_Phase_5,110,9999,9999,9999,2548906080
56,16,17,Jits_Phase_5,111,9999,9999,9999,2549405772
56,16,17,Jits_Phase_5,112,9999,9999,9999,2549905520
56,16,17,Jits_Phase_5,113,9999,9999,9999,2550405212
56,16,17,Jits_Phase_5,114,9999,9999,9999,2550955080
56,16,17,Jits_Phase_5,115,9999,9999,9999,2551455872
56,16,17,Jits_Phase_5,116,9999,9999,9999,2551955544
56,16,17,Jits_Phase_5,117,9999,9999,9999,2552455236
56,16,17,Jits_Phase_5,118,9999,9999,9999,2552955976
56,16,17,Jits_Phase_5,119,9999,9999,9999,2553455724
56,16,17,Jits_Phase_5,120,9999,9999,9999,2553955412
56,16,17,Jits_Phase_5,121,9999,9999,9999,2554455164
56,16,17,Jits_Phase_5,122,9999,9999,9999,2554955904
56,16,17,Jits_Phase_5,123,9999,9999,9999,2555455596
56,16,17,Jits_Phase_5,124,9999,9999,9999,2555955268
56,16,17,Jits_Phase_5,125,9999,9999,9999,2556455992
56,16,17,Jits_Phase_5,126,9999,9999,9999,2556955760
56,16,17,Jits_Phase_5,127,9999,9999,9999,2557455428
56,16,17,Jits_Phase_5,128,9999,9999,9999,2557955156
56,16,17,Jits_Phase_5,129,9999,9999,9999,2558455888
56,16,17,Jits_Phase_5,130,9999,9999,9999,2558955576
56,16,17,Jits_Phase_5,131,9999,9999,9999,2559555664
56,16,17,Jits_Phase_5,132,9999,9999,9999,2560055408
56,16,17,Jits_Phase_5,133,9999,9999,9999,2560555092
56,16,17,Jits_Phase_5,134,9999,9999,9999,2561055804
56,16,17,Jits_Phase_5,135,9999,9999,9999,2561555552
56,16,17,Jits_Phase_5,136,9999,9999,9999,2562055240
56,16,17,Jits_Phase_5,137,9999,9999,9999,2562556008
56,16,17,Jits_Phase_5,138,9999,9999,9999,2563055680
56,16,17,Jits_Phase_5,139,9999,9999,9999,2563555448
56,16,17,Jits_Phase_5,140,9999,9999,9999,2564055128
56,16,17,Jits_Phase_5,141,9999,9999,9999,2564555860
56,16,17,Jits_Phase_5,142,9999,9999,9999,2565055552
56,16,17,Jits_Phase_5,143,9999,9999,9999,2565555316
56,16,17,Jits_Phase_5,144,9999,9999,9999,2566056032
56,16,17,Jits_Phase_5,145,9999,9999,9999,2566555708
56,16,17,Jits_Phase_5,146,9999,9999,9999,2567055476
56,16,17,Jits_Phase_5,147,9999,9999,9999,2567555152
56,16,17,Jits_Phase_5,148,9999,9999,9999,2568055868
56,16,17,Jits_Phase_5,149,9999,9999,9999,2568555636
56,16,17,Jits_Phase_5,150,9999,9999,9999,2568956024
56,16,17,Jits_Phase_5,151,9999,9999,9999,2569455704
56,16,17,Jits_Phase_5,152,9999,9999,9999,2569955396
56,16,17,Jits_Phase_5,153,9999,9999,9999,2570455144
56,16,17,Jits_Phase_5,154,9999,9999,9999,2570955868
56,16,17,Jits_Phase_5,155,9999,9999,9999,2571455556
56,16,17,Jits_Phase_5,156,9999,9999,9999,2571955296
56,16,17,Jits_Phase_5,157,9999,9999,9999,2572456008
56,16,17,Jits_Phase_5,158,9999,9999,9999,2572955764
56,16,17,Jits_Phase_5,159,9999,9999,9999,2573455432
56,16,17,Jits_Phase_5,160,9999,9999,9999,2573955200
56,16,17,Jits_Phase_5,161,9999,9999,9999,2574455924
56,16,17,Jits_Phase_5,162,9999,9999,9999,2574955612
56,16,17,Jits_Phase_5,163,9999,9999,9999,2575455304
56,16,17,Jits_Phase_5,164,9999,9999,9999,2575956024
56,16,17,Jits_Phase_5,165,9999,9999,9999,2576455776
56,16,17,Jits_Phase_5,166,9999,9999,9999,2576955464
56,16,17,Jits_Phase_5,167,9999,9999,9999,2577455208
56,16,17,Jits_Phase_5,168,9999,9999,9999,2577955936
56,16,17,Jits_Phase_5,169,9999,9999,9999,2578455608
56,17,15,Jits_Phase_8,0,5,56,103,2588859984
56,17,15,Jits_Phase_8,1,5,63,98,2588863008
56,17,15,Jits_Phase_8,2,5,80,127,2588865980
56,17,15,Jits_Phase_8,0,1,48,60,2589382516
56,17,15,Jits_Phase_8,1,5,56,103,2589659604
56,17,15,Jits_Phase_8,2,5,63,98,2589662628
56,17,15,Jits_Phase_8,3,5,80,127,2589665824
56,17,15,Jits_Phase_8,4,1,48,46,2589862404
56,17,15,Jits_Phase_8,0,5,80,127,2590400000
56,17,15,Jits_Phase_8,1,1,48,50,2590473044
56,17,15,Jits_Phase_8,2,5,63,98,2590490004
56,17,15,Jits_Phase_8,3,5,56,103,2590500276
56,17,15,Jits_Phase_8,0,1,48,51,2591205728
56,17,15,Jits_Phase_8,1,5,56,103,2591219996
56,17,15,Jits_Phase_8,2,5,63,98,2591230192
56,17,15,Jits_Phase_8,3,5,80,127,2591320484
56,17,15,Jits_Phase_8,0,1,48,62,2591988812
56,17,15,Jits_Phase_8,1,5,63,98,2591990308
56,17,15,Jits_Phase_8,2,5,80,127,2592019788
56,17,15,Jits_Phase_8,3,5,56,103,2592049536
56,17,15,Jits_Phase_8,0,1,48,62,2592767176
56,17,15,Jits_Phase_8,1,5,56,103,2592789940
56,17,15,Jits_Phase_8,2,5,80,127,2592890096
56,17,15,Jits_Phase_8,3,5,63,98,2592940376
56,17,15,Jits_Phase_8,0,5,56,103,2593589560
56,17,15,Jits_Phase_8,1,5,80,127,2593639912
56,17,15,Jits_Phase_8,2,1,48,57,2593648956
56,17,15,Jits_Phase_8,3,5,63,98,2593679988
56,17,15,Jits_Phase_8,0,1,48,55,2594410200
56,17,15,Jits_Phase_8,1,5,80,127,2594420188
56,17,15,Jits_Phase_8,2,5,63,98,2594449716
56,17,15,Jits_Phase_8,3,5,56,103,2594520576
56,17,15,Jits_Phase_8,0,5,63,98,2595249548
56,17,15,Jits_Phase_8,1,1,48,61,2595263380
56,17,15,Jits_Phase_8,2,5,56,103,2595280264
56,17,15,Jits_Phase_8,3,5,80,127,2595339708
56,17,15,Jits_Phase_8,4,1,48,21,2595353824
56,17,15,Jits_Phase_8,0,5,56,103,2595989924
56,17,15,Jits_Phase_8,1,5,80,127,2595992844
56,17,15,Jits_Phase_8,2,1,48,57,2596105588
56,17,15,Jits_Phase_8,3,5,63,98,2596109892
56,17,15,Jits_Phase_8,0,1,48,59,2596811608
56,17,15,Jits_Phase_8,1,5,56,103,2596869872
56,17,15,Jits_Phase_8,2,5,80,127,2596909572
56,17,15,Jits_Phase_8,3,5,63,98,2596919692
56,17,15,Jits_Phase_8,0,5,56,103,2597630284
56,17,15,Jits_Phase_8,1,5,80,127,2597649724
56,17,15,Jits_Phase_8,2,1,48,55,2597700192
56,17,15,Jits_Phase_8,3,5,63,98,2597729732
56,17,15,Jits_Phase_8,0,5,80,127,2598419824
56,17,15,Jits_Phase_8,1,1,48,59,2598460180
56,17,15,Jits_Phase_8,2,5,56,103,2598520212
56,17,15,Jits_Phase_8,3,5,63,98,2598530488
56,17,15,Jits_Phase_8,0,5,63,98,2599189856
56,17,15,Jits_Phase_8,1,5,80,127,2599250248
56,17,15,Jits_Phase_8,2,5,56,103,2599259768
56,17,15,Jits_Phase_8,3,1,48,47,2599298700
56,17,15,Jits_Phase_8,0,5,56,103,2599989684
56,17,15,Jits_Phase_8,1,1,48,55,2600037988
56,17,15,Jits_Phase_8,2,5,63,98,2600060256
56,17,15,Jits_Phase_8,3,5,80,127,2600063620
56,17,15,Jits_Phase_8,0,1,48,55,2600791436
56,17,15,Jits_Phase_8,1,5,63,98,2600820156
56,17,15,Jits_Phase_8,2,5,56,103,2600870356
56,17,15,Jits_Phase_8,3,5,80,127,2600873500
56,17,15,Jits_Phase_8,0,1,48,53,2601557980
56,17,15,Jits_Phase_8,1,5,56,103,2601579824
56,17,15,Jits_Phase_8,2,5,80,127,2601582892
56,17,15,Jits_Phase_8,3,5,63,98,2601669936
56,17,15,Jits_Phase_8,0,1,48,49,2602414748
56,17,15,Jits_Phase_8,1,5,63,98,2602419724
56,17,15,Jits_Phase_8,2,5,56,103,2602510768
56,17,15,Jits_Phase_8,3,5,80,127,2602540668
56,17,15,Jits_Phase_8,0,5,56,103,2603210056
56,17,15,Jits_Phase_8,1,1,48,55,2603237360
56,17,15,Jits_Phase_8,2,5,63,98,2603309500
56,17,15,Jits_Phase_8,3,5,80,127,2603340132
56,17,15,Jits_Phase_8,0,5,63,98,2604030660
56,17,15,Jits_Phase_8,1,5,56,103,2604039608
56,17,15,Jits_Phase_8,2,1,48,54,2604084528
56,17,15,Jits_Phase_8,3,5,80,127,2604129732
56,17,15,Jits_Phase_8,0,5,63,98,2604849628
56,17,15,Jits_Phase_8,1,1,48,53,2604881368
56,17,15,Jits_Phase_8,2,5,56,103,2604930392
56,17,15,Jits_Phase_8,3,5,80,127,2604933680
56,17,15,Jits_Phase_8,0,5,80,127,2605610572
56,17,15,Jits_Phase_8,1,5,63,98,2605629760
56,17,15,Jits_Phase_8,2,1,48,53,2605661724
56,17,15,Jits_Phase_8,3,5,56,103,2605690216
56,17,15,Jits_Phase_8,0,1,48,62,2606447460
56,17,15,Jits_Phase_8,1,5,56,103,2606449972
56,17,15,Jits_Phase_8,2,5,63,98,2606469680
56,17,15,Jits_Phase_8,3,5,80,127,2606472968
56,17,15,Jits_Phase_8,0,5,63,98,2607190316
56,17,15,Jits_Phase_8,1,1,48,34,2607258544
56,17,15,Jits_Phase_8,2,5,80,127,2607270476
56,17,15,Jits_Phase_8,3,5,56,103,2607279700
56,17,15,Jits_Phase_8,0,5,63,98,2608009708
56,17,15,Jits_Phase_8,1,1,48,58,2608022488
56,17,15,Jits_Phase_8,2,5,56,103,2608030160
56,17,15,Jits_Phase_8,3,5,80,127,2608080432
56,17,15,Jits_Phase_8,0,5,80,127,2608810508
56,17,15,Jits_Phase_8,1,5,63,98,2608850596
56,17,15,Jits_Phase_8,2,1,48,60,2608856708
56,17,15,Jits_Phase_8,3,5,56,103,2608869704
56,17,15,Jits_Phase_8,0,5,56,103,2609649992
56,17,15,Jits_Phase_8,1,5,63,98,2609660484
56,17,15,Jits_Phase_8,2,1,48,58,2609671948
56,17,15,Jits_Phase_8,3,5,80,127,2609679616
56,17,15,Jits_Phase_8,0,5,56,103,2610380088
56,17,15,Jits_Phase_8,1,5,63,98,2610470468
56,17,15,Jits_Phase_8,2,1,48,65,2610494712
56,17,15,Jits_Phase_8,3,5,80,127,2610529656
56,17,15,Jits_Phase_8,0,5,80,127,2611209556
56,17,15,Jits_Phase_8,1,5,56,103,2611219752
56,17,15,Jits_Phase_8,2,1,48,78,2611272768
56,17,15,Jits_Phase_8,3,5,63,98,2611289424
56,17,15,Jits_Phase_8,0,5,63,98,2612040192
56,17,15,Jits_Phase_8,1,1,48,72,2612085636
56,17,15,Jits_Phase_8,2,5,80,127,2612130172
56,17,15,Jits_Phase_8,3,5,56,103,2612140520
56,17,15,Jits_Phase_8,0,5,63,98,2612770280
56,17,15,Jits_Phase_8,1,5,80,127,2612820408
56,17,15,Jits_Phase_8,2,5,56,103,2612879672
56,17,15,Jits_Phase_8,3,1,48,67,2612915148
56,17,15,Jits_Phase_8,0,5,56,103,2613590492
56,17,15,Jits_Phase_8,1,1,48,86,2613608972
56,17,15,Jits_Phase_8,2,5,80,127,2613639488
56,17,15,Jits_Phase_8,3,5,63,98,2613659948
56,17,15,Jits_Phase_8,0,5,56,103,2614360592
56,17,15,Jits_Phase_8,1,1,48,88,2614375696
56,17,15,Jits_Phase_8,2,5,80,127,2614419708
56,17,15,Jits_Phase_8,3,5,63,98,2614489368
56,17,15,Jits_Phase_8,0,1,48,78,2615128572
56,17,15,Jits_Phase_8,1,5,56,103,2615160284
56,17,15,Jits_Phase_8,2,5,80,127,2615189812
56,17,15,Jits_Phase_8,3,5,63,98,2615219560
56,17,15,Jits_Phase_8,0,1,48,67,2615948552
56,17,15,Jits_Phase_8,1,5,56,103,2616010084
56,17,15,Jits_Phase_8,2,5,80,127,2616029648
56,17,15,Jits_Phase_8,3,5,63,98,2616089896
56,17,15,Jits_Phase_8,0,1,48,67,2616803972
56,17,15,Jits_Phase_8,1,5,80,127,2616899928
56,17,15,Jits_Phase_8,2,5,56,103,2616910408
56,17,15,Jits_Phase_8,3,5,63,98,2616920308
56,17,15,Jits_Phase_8,0,1,48,78,2617636648
56,17,15,Jits_Phase_8,1,5,56,103,2617659616
56,17,15,Jits_Phase_8,2,5,80,127,2617699628
56,17,15,Jits_Phase_8,3,5,63,98,2617730276
56,17,15,Jits_Phase_8,0,5,56,103,2618429864
56,17,15,Jits_Phase_8,1,5,63,98,2618459540
56,17,15,Jits_Phase_8,2,5,80,127,2618499404
56,17,15,Jits_Phase_8,3,1,48,71,2618524392
56,17,15,Jits_Phase_8,0,5,80,127,2619180488
56,17,15,Jits_Phase_8,1,5,63,98,2619229572
56,17,15,Jits_Phase_8,2,5,56,103,2619250104
56,17,15,Jits_Phase_8,3,1,48,74,2619274496
56,17,15,Jits_Phase_8,0,5,56,103,2620009780
56,17,15,Jits_Phase_8,1,1,48,73,2620038824
56,17,15,Jits_Phase_8,2,5,80,127,2620079456
56,17,15,Jits_Phase_8,3,5,63,98,2620139756
56,17,15,Jits_Phase_8,0,5,80,127,2620809556
56,17,15,Jits_Phase_8,1,1,48,71,2620844512
56,17,15,Jits_Phase_8,2,5,63,98,2620899756
56,17,15,Jits_Phase_8,3,5,56,103,2620920364
56,17,15,Jits_Phase_8,0,5,63,98,2621629788
56,17,15,Jits_Phase_8,1,5,56,103,2621650172
56,17,15,Jits_Phase_8,2,5,80,127,2621690404
56,17,15,Jits_Phase_8,3,1,48,68,2621692776
56,17,15,Jits_Phase_8,0,5,80,127,2622389532
56,17,15,Jits_Phase_8,1,5,63,98,2622410288
56,17,15,Jits_Phase_8,2,1,48,76,2622482508
56,17,15,Jits_Phase_8,3,5,56,103,2622490172
56,17,15,Jits_Phase_8,0,5,63,98,2623180232
56,17,15,Jits_Phase_8,1,1,48,62,2623244804
56,17,15,Jits_Phase_8,2,5,56,103,2623289640
56,17,15,Jits_Phase_8,3,5,80,127,2623292704
56,17,15,Jits_Phase_8,0,5,63,98,2624000508
56,17,15,Jits_Phase_8,1,5,56,103,2624009532
56,17,15,Jits_Phase_8,2,5,80,127,2624012524
56,17,15,Jits_Phase_8,3,1,48,78,2624049132
56,17,15,Jits_Phase_8,0,5,56,103,2624779516
56,17,15,Jits_Phase_8,1,1,48,80,2624828568
56,17,15,Jits_Phase_8,2,5,80,127,2624899388
56,17,15,Jits_Phase_8,3,5,63,98,2624940360
56,17,15,Jits_Phase_8,0,5,56,103,2625599820
56,17,15,Jits_Phase_8,1,1,48,74,2625659280
56,17,15,Jits_Phase_8,2,5,80,127,2625679684
56,17,15,Jits_Phase_8,3,5,63,98,2625700364
56,17,15,Jits_Phase_8,0,5,56,103,2626399588
56,17,15,Jits_Phase_8,1,1,48,64,2626493584
56,17,15,Jits_Phase_8,2,5,63,98,2626510316
56,17,15,Jits_Phase_8,3,5,80,127,2626513608
56,17,15,Jits_Phase_8,0,5,56,103,2627240264
56,17,15,Jits_Phase_8,1,1,48,71,2627249460
56,17,15,Jits_Phase_8,2,5,80,127,2627270232
56,17,15,Jits_Phase_8,3,5,63,98,2627289420
56,17,15,Jits_Phase_8,4,1,48,18,2627639868
56,17,15,Jits_Phase_8,0,1,48,54,2628021152
56,17,15,Jits_Phase_8,1,5,63,98,2628029944
56,17,15,Jits_Phase_8,2,5,56,103,2628040212
56,17,15,Jits_Phase_8,3,5,80,127,2628050408
56,17,15,Jits_Phase_8,0,1,48,71,2628786724
56,17,15,Jits_Phase_8,1,5,80,127,2628820252
56,17,15,Jits_Phase_8,2,5,56,103,2628869432
56,17,15,Jits_Phase_8,3,5,63,98,2628909428
56,17,15,Jits_Phase_8,0,1,48,75,2629608824
56,17,15,Jits_Phase_8,1,5,80,127,2629639664
56,17,15,Jits_Phase_8,2,5,63,98,2629659976
56,17,15,Jits_Phase_8,3,5,56,103,2629710308
56,17,15,Jits_Phase_8,0,5,80,127,2630449392
56,17,15,Jits_Phase_8,1,5,56,103,2630480188
56,17,15,Jits_Phase_8,2,1,48,84,2630525556
56,17,15,Jits_Phase_8,3,5,63,98,2630550012
56,17,15,Jits_Phase_8,0,5,56,103,2631299440
56,17,15,Jits_Phase_8,1,5,80,127,2631309784
56,17,15,Jits_Phase_8,2,1,48,67,2631318228
56,17,15,Jits_Phase_8,3,5,63,98,2631349568
56,17,15,Jits_Phase_8,0,5,56,103,2632010128
56,17,15,Jits_Phase_8,1,5,63,98,2632029540
56,17,15,Jits_Phase_8,2,5,80,127,2632100116
56,17,15,Jits_Phase_8,3,1,48,54,2632154400
56,17,15,Jits_Phase_8,0,1,48,65,2632825584
56,17,15,Jits_Phase_8,1,5,63,98,2632830412
56,17,15,Jits_Phase_8,2,5,80,127,2632889980
56,17,15,Jits_Phase_8,3,5,56,103,2632910140
56,17,15,Jits_Phase_8,0,5,80,127,2633619916
56,17,15,Jits_Phase_8,1,1,48,63,2633635992
56,17,15,Jits_Phase_8,2,5,56,103,2633649584
56,17,15,Jits_Phase_8,3,5,63,98,2633680156
56,17,15,Jits_Phase_8,0,5,56,103,2634419532
56,17,15,Jits_Phase_8,1,1,48,72,2634458320
56,17,15,Jits_Phase_8,2,5,63,98,2634479992
56,17,15,Jits_Phase_8,3,5,80,127,2634540336
56,17,15,Jits_Phase_8,0,5,80,127,2635239912
56,17,15,Jits_Phase_8,1,1,48,81,2635258100
56,17,15,Jits_Phase_8,2,5,56,103,2635260216
56,17,15,Jits_Phase_8,3,5,63,98,2635330068
56,17,15,Jits_Phase_8,0,1,48,65,2636025260
56,17,15,Jits_Phase_8,1,5,80,127,2636039628
56,17,15,Jits_Phase_8,2,5,63,98,2636059940
56,17,15,Jits_Phase_8,3,5,56,103,2636089984
56,17,15,Jits_Phase_8,0,1,48,56,2636788768
56,17,15,Jits_Phase_8,1,5,80,127,2636830168
56,17,15,Jits_Phase_8,2,5,63,98,2636849432
56,17,15,Jits_Phase_8,3,5,56,103,2636910176
56,17,15,Jits_Phase_8,0,5,80,127,2637630008
56,17,15,Jits_Phase_8,1,1,48,65,2637665340
56,17,15,Jits_Phase_8,2,5,56,103,2637730100
56,17,15,Jits_Phase_8,3,5,63,98,2637759984
56,17,15,Jits_Phase_8,0,5,63,98,2638420188
56,17,15,Jits_Phase_8,1,5,80,127,2638469568
56,17,15,Jits_Phase_8,2,5,56,103,2638490024
56,17,15,Jits_Phase_8,3,1,48,64,2638503408
56,17,15,Jits_Phase_8,0,1,48,62,2639245824
56,17,15,Jits_Phase_8,1,5,80,127,2639260092
56,17,15,Jits_Phase_8,2,5,56,103,2639289992
56,17,15,Jits_Phase_8,3,5,63,98,2639292984
56,17,15,Jits_Phase_8,0,1,48,61,2640074052
56,17,15,Jits_Phase_8,1,5,63,98,2640109896
56,17,15,Jits_Phase_8,2,5,56,103,2640150008
56,17,15,Jits_Phase_8,3,5,80,127,2640170244
56,17,15,Jits_Phase_8,0,5,80,127,2640869880
56,17,15,Jits_Phase_8,1,1,48,81,2640917592
56,17,15,Jits_Phase_8,2,5,63,98,2640949548
56,17,15,Jits_Phase_8,3,5,56,103,2640989484
56,17,15,Jits_Phase_8,0,5,63,98,2641689836
56,17,15,Jits_Phase_8,1,1,48,56,2641702468
56,17,15,Jits_Phase_8,2,5,80,127,2641769852
56,17,15,Jits_Phase_8,3,5,56,103,2641790460
56,17,15,Jits_Phase_8,0,5,56,103,2642529908
56,17,15,Jits_Phase_8,1,5,63,98,2642540032
56,17,15,Jits_Phase_8,2,5,80,127,2642579896
56,17,15,Jits_Phase_8,3,1,48,87,2642589012
56,17,15,Jits_Phase_8,0,5,56,103,2643249740
56,17,15,Jits_Phase_8,1,5,80,127,2643252732
56,17,15,Jits_Phase_8,2,1,48,71,2643385008
56,17,15,Jits_Phase_8,3,5,63,98,2643389836
56,17,15,Jits_Phase_8,0,5,56,103,2644039916
56,17,15,Jits_Phase_8,1,1,48,58,2644113976
56,17,15,Jits_Phase_8,2,5,63,98,2644130116
56,17,15,Jits_Phase_8,3,5,80,127,2644199720
56,17,15,Jits_Phase_8,0,1,48,70,2644852388
56,17,15,Jits_Phase_8,1,5,63,98,2644919844
56,17,15,Jits_Phase_8,2,5,80,127,2644923208
56,17,15,Jits_Phase_8,3,5,56,103,2644979992
56,17,15,Jits_Phase_8,0,1,48,56,2645685996
56,17,15,Jits_Phase_8,1,5,80,127,2645760428
56,17,15,Jits_Phase_8,2,5,56,103,2645779864
56,17,15,Jits_Phase_8,3,5,63,98,2645790048
56,17,15,Jits_Phase_8,0,5,56,103,2646469920
56,17,15,Jits_Phase_8,1,5,63,98,2646480188
56,17,15,Jits_Phase_8,2,1,48,73,2646545360
56,17,15,Jits_Phase_8,3,5,80,127,2646549964
56,17,15,Jits_Phase_8,0,5,80,127,2647269688
56,17,15,Jits_Phase_8,1,1,48,70,2647285164
56,17,15,Jits_Phase_8,2,5,56,103,2647319836
56,17,15,Jits_Phase_8,3,5,63,98,2647370036
56,17,15,Jits_Phase_8,0,1,48,70,2648097092
56,17,15,Jits_Phase_8,1,5,56,103,2648150472
56,17,15,Jits_Phase_8,2,5,63,98,2648159844
56,17,15,Jits_Phase_8,3,5,80,127,2648199616
56,17,15,Jits_Phase_8,0,5,56,103,2648889628
56,17,15,Jits_Phase_8,1,5,63,98,2648929868
56,17,15,Jits_Phase_8,2,1,48,77,2648931280
56,17,15,Jits_Phase_8,3,5,80,127,2648979764
56,17,15,Jits_Phase_8,0,5,80,127,2649649544
56,17,15,Jits_Phase_8,1,5,56,103,2649699748
56,17,15,Jits_Phase_8,2,1,48,71,2649720428
56,17,15,Jits_Phase_8,3,5,63,98,2649721768
56,17,15,Jits_Phase_8,0,5,80,127,2650459648
56,17,15,Jits_Phase_8,1,1,48,71,2650497388
56,17,15,Jits_Phase_8,2,5,63,98,2650519812
56,17,15,Jits_Phase_8,3,5,56,103,2650599740
56,17,15,Jits_Phase_8,0,5,80,127,2651239940
56,17,15,Jits_Phase_8,1,5,56,103,2651279804
56,17,15,Jits_Phase_8,2,5,63,98,2651300188
56,17,15,Jits_Phase_8,3,1,48,76,2651307956
56,17,15,Jits_Phase_8,0,1,48,78,2652068152
56,17,15,Jits_Phase_8,1,5,56,103,2652089748
56,17,15,Jits_Phase_8,2,5,80,127,2652100020
56,17,15,Jits_Phase_8,3,5,63,98,2652140032
56,17,15,Jits_Phase_8,0,1,48,70,2652921844
56,17,15,Jits_Phase_8,1,5,56,103,2652960108
56,17,15,Jits_Phase_8,2,5,63,98,2653000120
56,17,15,Jits_Phase_8,3,5,80,127,2653003484
56,17,15,Jits_Phase_8,0,5,63,98,2653629860
56,17,15,Jits_Phase_8,1,5,80,127,2653669796
56,17,15,Jits_Phase_8,2,5,56,103,2653740400
56,17,15,Jits_Phase_8,3,1,48,76,2653753932
56,17,15,Jits_Phase_8,0,5,63,98,2654399724
56,17,15,Jits_Phase_8,1,5,56,103,2654479696
56,17,15,Jits_Phase_8,2,1,48,83,2654532788
56,17,15,Jits_Phase_8,3,5,80,127,2654540004
56,17,15,Jits_Phase_8,0,5,80,127,2655209896
56,17,15,Jits_Phase_8,1,5,63,98,2655259900
56,17,15,Jits_Phase_8,2,1,48,74,2655271416
56,17,15,Jits_Phase_8,3,5,56,103,2655289720
56,17,15,Jits_Phase_8,0,5,56,103,2656000452
56,17,15,Jits_Phase_8,1,5,63,98,2656049680
56,17,15,Jits_Phase_8,2,5,80,127,2656059728
56,17,15,Jits_Phase_8,3,1,48,79,2656062320
56,17,15,Jits_Phase_8,0,5,56,103,2656810404
56,17,15,Jits_Phase_8,1,1,48,70,2656855620
56,17,15,Jits_Phase_8,2,5,63,98,2656919860
56,17,15,Jits_Phase_8,3,5,80,127,2656940396
56,17,15,Jits_Phase_8,0,5,63,98,2657610244
56,17,15,Jits_Phase_8,1,5,80,127,2657660372
56,17,15,Jits_Phase_8,2,1,48,60,2657674428
56,17,15,Jits_Phase_8,3,5,56,103,2657750572
56,17,15,Jits_Phase_8,0,5,63,98,2658399588
56,17,15,Jits_Phase_8,1,5,80,127,2658430460
56,17,15,Jits_Phase_8,2,1,48,81,2658466988
56,17,15,Jits_Phase_8,3,5,56,103,2658520584
56,17,15,Jits_Phase_8,0,5,63,98,2659200540
56,17,15,Jits_Phase_8,1,5,56,103,2659209468
56,17,15,Jits_Phase_8,2,1,48,78,2659297472
56,17,15,Jits_Phase_8,3,5,80,127,2659309924
56,17,15,Jits_Phase_8,0,1,48,76,2660039972
56,17,15,Jits_Phase_8,1,5,63,98,2660099584
56,17,15,Jits_Phase_8,2,5,80,127,2660130084
56,17,15,Jits_Phase_8,3,5,56,103,2660159892
56,17,15,Jits_Phase_8,0,1,48,64,2660902544
56,17,15,Jits_Phase_8,1,5,80,127,2660919580
56,17,15,Jits_Phase_8,2,5,63,98,2660929924
56,17,15,Jits_Phase_8,3,5,56,103,2660959600
56,17,15,Jits_Phase_8,0,5,80,127,2661620128
56,17,15,Jits_Phase_8,1,5,63,98,2661639568
56,17,15,Jits_Phase_8,2,5,56,103,2661689692
56,17,15,Jits_Phase_8,3,1,48,73,2661714828
56,17,15,Jits_Phase_8,0,1,48,78,2662449140
56,17,15,Jits_Phase_8,1,5,63,98,2662450636
56,17,15,Jits_Phase_8,2,5,80,127,2662509980
56,17,15,Jits_Phase_8,3,5,56,103,2662530516
56,17,15,Jits_Phase_8,0,5,63,98,2663210764
56,17,15,Jits_Phase_8,1,5,56,103,2663259472
56,17,15,Jits_Phase_8,2,1,48,77,2663261340
56,17,15,Jits_Phase_8,3,5,80,127,2663269736
56,17,15,Jits_Phase_8,0,5,56,103,2664039812
56,17,15,Jits_Phase_8,1,5,80,127,2664049932
56,17,15,Jits_Phase_8,2,1,48,64,2664063164
56,17,15,Jits_Phase_8,3,5,63,98,2664150616
56,17,15,Jits_Phase_8,0,5,80,127,2664799572
56,17,15,Jits_Phase_8,1,5,63,98,2664809768
56,17,15,Jits_Phase_8,2,1,48,69,2664838292
56,17,15,Jits_Phase_8,3,5,56,103,2664960632
56,17,15,Jits_Phase_8,0,5,63,98,2665609456
56,17,15,Jits_Phase_8,1,1,48,83,2665641272
56,17,15,Jits_Phase_8,2,5,80,127,2665649464
56,17,15,Jits_Phase_8,3,5,56,103,2665730480
56,17,15,Jits_Phase_8,0,5,56,103,2666360284
56,17,15,Jits_Phase_8,1,5,80,127,2666459412
56,17,15,Jits_Phase_8,2,1,48,73,2666462456
56,17,15,Jits_Phase_8,3,5,63,98,2666479936
56,17,15,Jits_Phase_8,0,5,80,127,2667180296
56,17,15,Jits_Phase_8,1,5,56,103,2667189516
56,17,15,Jits_Phase_8,2,1,48,59,2667238864
56,17,15,Jits_Phase_8,3,5,63,98,2667279668
56,17,15,Jits_Phase_8,0,5,56,103,2667980440
56,17,15,Jits_Phase_8,1,1,48,76,2667992852
56,17,15,Jits_Phase_8,2,5,63,98,2667999624
56,17,15,Jits_Phase_8,3,5,80,127,2668079444
56,17,15,Jits_Phase_8,0,5,63,98,2668729724
56,17,15,Jits_Phase_8,1,1,48,75,2668801172
56,17,15,Jits_Phase_8,2,5,56,103,2668819696
56,17,15,Jits_Phase_8,3,5,80,127,2668822840
56,17,15,Jits_Phase_8,0,5,56,103,2669560236
56,17,15,Jits_Phase_8,1,1,48,89,2669593200
56,17,15,Jits_Phase_8,2,5,80,127,2669619600
56,17,15,Jits_Phase_8,3,5,63,98,2669629796
56,17,15,Jits_Phase_8,0,5,80,127,2670410384
56,17,15,Jits_Phase_8,1,5,56,103,2670420428
56,17,15,Jits_Phase_8,2,1,48,66,2670423572
56,17,15,Jits_Phase_8,3,5,63,98,2670424836
56,17,15,Jits_Phase_8,0,5,56,103,2671169848
56,17,15,Jits_Phase_8,1,5,80,127,2671180264
56,17,15,Jits_Phase_8,2,5,63,98,2671199528
56,17,15,Jits_Phase_8,3,1,48,76,2671244892
56,17,15,Jits_Phase_8,0,5,63,98,2671939944
56,17,15,Jits_Phase_8,1,1,48,84,2671991388
56,17,15,Jits_Phase_8,2,5,80,127,2672000332
56,17,15,Jits_Phase_8,3,5,56,103,2672049412
56,17,15,Jits_Phase_8,0,5,63,98,2672819572
56,17,15,Jits_Phase_8,1,1,48,83,2672825532
56,17,15,Jits_Phase_8,2,5,56,103,2672829760
56,17,15,Jits_Phase_8,3,5,80,127,2672880108
56,17,15,Jits_Phase_8,0,5,63,98,2673520060
56,17,15,Jits_Phase_8,1,5,80,127,2673539328
56,17,15,Jits_Phase_8,2,5,56,103,2673549744
56,17,15,Jits_Phase_8,3,1,48,94,2673642536
56,17,15,Jits_Phase_8,0,5,63,98,2674319580
56,17,15,Jits_Phase_8,1,5,80,127,2674322948
56,17,15,Jits_Phase_8,2,5,56,103,2674359524
56,17,15,Jits_Phase_8,3,1,48,84,2674372232
56,17,15,Jits_Phase_8,0,1,48,96,2675133148
56,17,15,Jits_Phase_8,1,5,63,98,2675190268
56,17,15,Jits_Phase_8,2,5,80,127,2675219820
56,17,15,Jits_Phase_8,3,5,56,103,2675231272
56,17,15,Jits_Phase_8,0,1,48,98,2675927152
56,17,15,Jits_Phase_8,1,5,56,103,2675939832
56,17,15,Jits_Phase_8,2,5,80,127,2675970432
56,17,15,Jits_Phase_8,3,5,63,98,2676000108
56,17,15,Jits_Phase_8,0,1,48,62,2676743480
56,17,15,Jits_Phase_8,1,5,63,98,2676839916
56,17,15,Jits_Phase_8,2,5,56,103,2676879704
56,17,15,Jits_Phase_8,3,5,80,127,2676882696
56,17,15,Jits_Phase_8,0,5,80,127,2677540276
56,17,15,Jits_Phase_8,1,1,48,84,2677609176
56,17,15,Jits_Phase_8,2,5,56,103,2677620288
56,17,15,Jits_Phase_8,3,5,63,98,2677670340
56,17,15,Jits_Phase_8,0,5,80,127,2678319520
56,17,15,Jits_Phase_8,1,5,56,103,2678340128
56,17,15,Jits_Phase_8,2,1,48,82,2678427916
56,17,15,Jits_Phase_8,3,5,63,98,2678430180
56,17,15,Jits_Phase_8,0,5,80,127,2679160124
56,17,15,Jits_Phase_8,1,1,48,89,2679172164
56,17,15,Jits_Phase_8,2,5,63,98,2679200056
56,17,15,Jits_Phase_8,3,5,56,103,2679240292
56,17,15,Jits_Phase_8,0,1,48,89,2679963528
56,17,15,Jits_Phase_8,1,5,63,98,2679970156
56,17,15,Jits_Phase_8,2,5,80,127,2680029500
56,17,15,Jits_Phase_8,3,5,56,103,2680060368
56,17,15,Jits_Phase_8,0,1,48,89,2680801196
56,17,15,Jits_Phase_8,1,5,56,103,2680810064
56,17,15,Jits_Phase_8,2,5,80,127,2680839616
56,17,15,Jits_Phase_8,3,5,63,98,2680929584
56,17,15,Jits_Phase_8,0,5,56,103,2681620040
56,17,15,Jits_Phase_8,1,1,48,86,2681630732
56,17,15,Jits_Phase_8,2,5,80,127,2681730384
56,17,15,Jits_Phase_8,3,5,63,98,2681760132
56,17,15,Jits_Phase_8,0,5,56,103,2682469716
56,17,15,Jits_Phase_8,1,1,48,82,2682497268
56,17,15,Jits_Phase_8,2,5,63,98,2682530176
56,17,15,Jits_Phase_8,3,5,80,127,2682560072
56,17,15,Jits_Phase_8,0,5,56,103,2683240044
56,17,15,Jits_Phase_8,1,5,63,98,2683309504
56,17,15,Jits_Phase_8,2,5,80,127,2683330036
56,17,15,Jits_Phase_8,3,1,48,84,2683339676
56,17,15,Jits_Phase_8,0,5,80,127,2684010000
56,17,15,Jits_Phase_8,1,5,63,98,2684030460
56,17,15,Jits_Phase_8,2,5,56,103,2684079912
56,17,15,Jits_Phase_8,3,1,48,92,2684126096
56,17,15,Jits_Phase_8,0,5,63,98,2684829924
56,17,15,Jits_Phase_8,1,5,80,127,2684840416
56,17,15,Jits_Phase_8,2,5,56,103,2684889420
56,17,15,Jits_Phase_8,3,1,48,32,2684978420
56,17,15,Jits_Phase_8,0,5,63,98,2685630048
56,17,15,Jits_Phase_8,1,5,80,127,2685699308
56,17,15,Jits_Phase_8,2,1,48,79,2685716128
56,17,15,Jits_Phase_8,3,5,56,103,2685719908
56,17,15,Jits_Phase_8,0,5,63,98,2686460224
56,17,15,Jits_Phase_8,1,5,80,127,2686463736
56,17,15,Jits_Phase_8,2,1,48,65,2686492284
56,17,15,Jits_Phase_8,3,5,56,103,2686529996
56,17,15,Jits_Phase_8,0,5,80,127,2687209852
56,17,15,Jits_Phase_8,1,5,56,103,2687230384
56,17,15,Jits_Phase_8,2,5,63,98,2687239536
56,17,15,Jits_Phase_8,3,1,48,66,2687323928
56,17,15,Jits_Phase_8,0,5,56,103,2688029920
56,17,15,Jits_Phase_8,1,1,48,76,2688118980
56,17,15,Jits_Phase_8,2,5,63,98,2688120416
56,17,15,Jits_Phase_8,3,5,80,127,2688123708
56,17,15,Jits_Phase_8,0,5,80,127,2688800308
56,17,15,Jits_Phase_8,1,5,56,103,2688810280
56,17,15,Jits_Phase_8,2,5,63,98,2688830140
56,17,15,Jits_Phase_8,3,1,48,67,2688871548
56,17,15,Jits_Phase_8,0,1,48,67,2689589920
56,17,15,Jits_Phase_8,1,5,63,98,2689599908
56,17,15,Jits_Phase_8,2,5,80,127,2689660224
56,17,15,Jits_Phase_8,3,5,56,103,2689669448
56,17,15,Jits_Phase_8,0,1,48,66,2690412820
56,17,15,Jits_Phase_8,1,5,63,98,2690470236
56,17,15,Jits_Phase_8,2,5,80,127,2690500060
56,17,15,Jits_Phase_8,3,5,56,103,2690539984
56,17,15,Jits_Phase_8,0,1,48,68,2691257144
56,17,15,Jits_Phase_8,1,5,56,103,2691259956
56,17,15,Jits_Phase_8,2,5,80,127,2691269928
56,17,15,Jits_Phase_8,3,5,63,98,2691309940
56,17,15,Jits_Phase_8,0,5,80,127,2692019936
56,17,15,Jits_Phase_8,1,1,48,77,2692052796
56,17,15,Jits_Phase_8,2,5,56,103,2692099600
56,17,15,Jits_Phase_8,3,5,63,98,2692109648
56,17,15,Jits_Phase_8,0,1,48,81,2692858188
56,17,15,Jits_Phase_8,1,5,80,127,2692869472
56,17,15,Jits_Phase_8,2,5,56,103,2692950604
56,17,15,Jits_Phase_8,3,5,63,98,2692959824
56,17,15,Jits_Phase_8,0,5,80,127,2693710228
56,17,15,Jits_Phase_8,1,1,48,56,2693741000
56,17,15,Jits_Phase_8,2,5,56,103,2693760352
56,17,15,Jits_Phase_8,3,5,63,98,2693809576
56,17,15,Jits_Phase_8,0,1,48,73,2694612080
56,17,15,Jits_Phase_8,1,5,56,103,2694650160
56,17,15,Jits_Phase_8,2,5,63,98,2694653228
56,17,15,Jits_Phase_8,3,5,80,127,2694700536
56,17,15,Jits_Phase_8,0,1,48,83,2695385152
56,17,15,Jits_Phase_8,1,5,56,103,2695469420
56,17,15,Jits_Phase_8,2,5,63,98,2695500204
56,17,15,Jits_Phase_8,3,5,80,127,2695510328
56,17,15,Jits_Phase_8,0,5,63,98,2696180012
56,17,15,Jits_Phase_8,1,5,56,103,2696249792
56,17,15,Jits_Phase_8,2,1,48,68,2696258836
56,17,15,Jits_Phase_8,3,5,80,127,2696299836
56,17,15,Jits_Phase_8,0,5,63,98,2697009688
56,17,15,Jits_Phase_8,1,5,56,103,2697019808
56,17,15,Jits_Phase_8,2,5,80,127,2697022724
56,17,15,Jits_Phase_8,3,1,48,89,2697025168
56,17,15,Jits_Phase_8,0,5,80,127,2697760056
56,17,15,Jits_Phase_8,1,5,56,103,2697819624
56,17,15,Jits_Phase_8,2,1,48,88,2697823568
56,17,15,Jits_Phase_8,3,5,63,98,2697909752
56,17,15,Jits_Phase_8,0,5,80,127,2698559756
56,17,15,Jits_Phase_8,1,1,48,80,2698616508
56,17,15,Jits_Phase_8,2,5,56,103,2698660072
56,17,15,Jits_Phase_8,3,5,63,98,2698700084
56,17,15,Jits_Phase_8,0,5,56,103,2699409652
56,17,15,Jits_Phase_8,1,5,63,98,2699430556
56,17,15,Jits_Phase_8,2,5,80,127,2699470124
56,17,15,Jits_Phase_8,3,1,48,82,2699484180
56,17,15,Jits_Phase_8,0,5,63,98,2700179680
56,17,15,Jits_Phase_8,1,5,56,103,2700200512
56,17,15,Jits_Phase_8,2,1,48,87,2700268140
56,17,15,Jits_Phase_8,3,5,80,127,2700299580
56,17,15,Jits_Phase_8,0,5,63,98,2700970292
56,17,15,Jits_Phase_8,1,1,48,81,2701039120
56,17,15,Jits_Phase_8,2,5,80,127,2701079924
56,17,15,Jits_Phase_8,3,5,56,103,2701109672
56,17,15,Jits_Phase_8,0,5,56,103,2701789532
56,17,15,Jits_Phase_8,1,5,63,98,2701820252
56,17,15,Jits_Phase_8,2,1,48,59,2701843248
56,17,15,Jits_Phase_8,3,5,80,127,2701869572
56,17,15,Jits_Phase_8,0,5,63,98,2702559632
56,17,15,Jits_Phase_8,1,5,56,103,2702590280
56,17,15,Jits_Phase_8,2,1,48,94,2702633280
56,17,15,Jits_Phase_8,3,5,80,127,2702639452
56,17,15,Jits_Phase_8,0,1,48,61,2703340624
56,17,15,Jits_Phase_8,1,5,56,103,2703390044
56,17,15,Jits_Phase_8,2,5,63,98,2703409680
56,17,15,Jits_Phase_8,3,5,80,127,2703490656
56,17,15,Jits_Phase_8,0,1,48,65,2704117364
56,17,15,Jits_Phase_8,1,5,63,98,2704160060
56,17,15,Jits_Phase_8,2,5,56,103,2704219612
56,17,15,Jits_Phase_8,3,5,80,127,2704250184
56,17,15,Jits_Phase_8,0,1,48,88,2704889484
56,17,15,Jits_Phase_8,1,5,56,103,2704999732
56,17,15,Jits_Phase_8,2,5,80,127,2705060196
56,17,15,Jits_Phase_8,3,5,63,98,2705100136
56,17,15,Jits_Phase_8,0,1,48,72,2705740068
56,17,15,Jits_Phase_8,1,5,63,98,2705780100
56,17,15,Jits_Phase_8,2,5,56,103,2705839656
56,17,15,Jits_Phase_8,3,5,80,127,2705910008
56,17,15,Jits_Phase_8,0,1,48,73,2706575928
56,17,15,Jits_Phase_8,1,5,56,103,2706659652
56,17,15,Jits_Phase_8,2,5,63,98,2706670668
56,17,15,Jits_Phase_8,3,5,80,127,2706673800
56,17,15,Jits_Phase_8,0,5,63,98,2707400148
56,17,15,Jits_Phase_8,1,1,48,67,2707433908
56,17,15,Jits_Phase_8,2,5,56,103,2707459580
56,17,15,Jits_Phase_8,3,5,80,127,2707462648
56,17,15,Jits_Phase_8,0,5,63,98,2708180488
56,17,15,Jits_Phase_8,1,5,80,127,2708210016
56,17,15,Jits_Phase_8,2,1,48,69,2708216952
56,17,15,Jits_Phase_8,3,5,56,103,2708229668
56,17,15,Jits_Phase_8,0,5,56,103,2708909588
56,17,15,Jits_Phase_8,1,1,48,74,2708941256
56,17,15,Jits_Phase_8,2,5,63,98,2708959564
56,17,15,Jits_Phase_8,3,5,80,127,2709039588
56,17,15,Jits_Phase_8,0,5,80,127,2709609804
56,17,15,Jits_Phase_8,1,5,63,98,2709649744
56,17,15,Jits_Phase_8,2,5,56,103,2709670352
56,17,15,Jits_Phase_8,3,1,48,81,2709707472
56,17,15,Jits_Phase_8,0,1,48,79,2710386152
56,17,15,Jits_Phase_8,1,5,56,103,2710480420
56,17,15,Jits_Phase_8,2,5,80,127,2710489420
56,17,15,Jits_Phase_8,3,5,63,98,2710510028
56,17,15,Jits_Phase_8,0,5,56,103,2711259604
56,17,15,Jits_Phase_8,1,1,48,80,2711269768
56,17,15,Jits_Phase_8,2,5,63,98,2711309824
56,17,15,Jits_Phase_8,3,5,80,127,2711340324
56,17,15,Jits_Phase_8,0,5,56,103,2712010304
56,17,15,Jits_Phase_8,1,5,63,98,2712020276
56,17,15,Jits_Phase_8,2,5,80,127,2712069456
56,17,15,Jits_Phase_8,3,1,48,75,2712130408
56,17,15,Jits_Phase_8,0,5,56,103,2712799732
56,17,15,Jits_Phase_8,1,5,80,127,2712802648
56,17,15,Jits_Phase_8,2,1,48,69,2712850372
56,17,15,Jits_Phase_8,3,5,63,98,2712960360
56,17,15,Jits_Phase_8,0,5,63,98,2713619900
56,17,15,Jits_Phase_8,1,1,48,87,2713659812
56,17,15,Jits_Phase_8,2,5,56,103,2713689576
56,17,15,Jits_Phase_8,3,5,80,127,2713730416
56,17,15,Jits_Phase_8,0,5,63,98,2714459444
56,17,15,Jits_Phase_8,1,1,48,79,2714482192
56,17,15,Jits_Phase_8,2,5,56,103,2714549572
56,17,15,Jits_Phase_8,3,5,80,127,2714552564
56,17,15,Jits_Phase_8,0,5,56,103,2715239716
56,17,15,Jits_Phase_8,1,5,63,98,2715329852
56,17,15,Jits_Phase_8,2,1,48,78,2715332824
56,17,15,Jits_Phase_8,3,5,80,127,2715340264
56,17,15,Jits_Phase_8,0,5,56,103,2716009972
56,17,15,Jits_Phase_8,1,5,63,98,2716060248
56,17,15,Jits_Phase_8,2,5,80,127,2716089700
56,17,15,Jits_Phase_8,3,1,48,79,2716090740
56,17,15,Jits_Phase_8,0,1,48,87,2716847476
56,17,15,Jits_Phase_8,1,5,63,98,2716889380
56,17,15,Jits_Phase_8,2,5,80,127,2716899648
56,17,15,Jits_Phase_8,3,5,56,103,2716960344
56,17,15,Jits_Phase_8,0,5,63,98,2717610328
56,17,15,Jits_Phase_8,1,5,80,127,2717669672
56,17,15,Jits_Phase_8,2,1,48,76,2717685372
56,17,15,Jits_Phase_8,3,5,56,103,2717709700
56,17,15,Jits_Phase_8,0,1,48,76,2718427044
56,17,15,Jits_Phase_8,1,5,56,103,2718509452
56,17,15,Jits_Phase_8,2,5,80,127,2718530120
56,17,15,Jits_Phase_8,3,5,63,98,2718550280
56,17,15,Jits_Phase_8,0,5,63,98,2719230380
56,17,15,Jits_Phase_8,1,5,56,103,2719249644
56,17,15,Jits_Phase_8,2,1,48,76,2719251580
56,17,15,Jits_Phase_8,3,5,80,127,2719289720
56,17,15,Jits_Phase_8,0,5,63,98,2720040324
56,17,15,Jits_Phase_8,1,1,48,64,2720065316
56,17,15,Jits_Phase_8,2,5,80,127,2720070292
56,17,15,Jits_Phase_8,3,5,56,103,2720089332
56,17,15,Jits_Phase_8,0,5,80,127,2720810260
56,17,15,Jits_Phase_8,1,1,48,84,2720828668
56,17,15,Jits_Phase_8,2,5,56,103,2720859408
56,17,15,Jits_Phase_8,3,5,63,98,2720919872
56,17,15,Jits_Phase_8,0,5,63,98,2721599764
56,17,15,Jits_Phase_8,1,1,48,83,2721646328
56,17,15,Jits_Phase_8,2,5,56,103,2721719708
56,17,15,Jits_Phase_8,3,5,80,127,2721750272
56,17,15,Jits_Phase_8,0,1,48,70,2722420172
56,17,15,Jits_Phase_8,1,5,80,127,2722439528
56,17,15,Jits_Phase_8,2,5,63,98,2722460284
56,17,15,Jits_Phase_8,3,5,56,103,2722529504
56,17,15,Jits_Phase_8,0,1,48,86,2723252368
56,17,15,Jits_Phase_8,1,5,63,98,2723259960
56,17,15,Jits_Phase_8,2,5,56,103,2723270156
56,17,15,Jits_Phase_8,3,5,80,127,2723349812
56,17,15,Jits_Phase_8,0,1,48,84,2724029732
56,17,15,Jits_Phase_8,1,5,56,103,2724119984
56,17,15,Jits_Phase_8,2,5,80,127,2724149572
56,17,15,Jits_Phase_8,3,5,63,98,2724160064
56,17,15,Jits_Phase_8,0,9999,9999,9999,2589257792
56,17,15,Jits_Phase_8,1,9999,9999,9999,2590057544
56,17,15,Jits_Phase_8,2,9999,9999,9999,2590857284
56,17,15,Jits_Phase_8,3,9999,9999,9999,2591658100
56,17,15,Jits_Phase_8,4,9999,9999,9999,2592457852
56,17,15,Jits_Phase_8,5,9999,9999,9999,2593257540
56,17,15,Jits_Phase_8,6,9999,9999,9999,2594057324
56,17,15,Jits_Phase_8,7,9999,9999,9999,2594858068
56,17,15,Jits_Phase_8,8,9999,9999,9999,2595657812
56,17,15,Jits_Phase_8,9,9999,9999,9999,2596457532
56,17,15,Jits_Phase_8,10,9999,9999,9999,2597257312
56,17,15,Jits_Phase_8,11,9999,9999,9999,2598058048
56,17,15,Jits_Phase_8,12,9999,9999,9999,2598857824
56,17,15,Jits_Phase_8,13,9999,9999,9999,2599657596
56,17,15,Jits_Phase_8,14,9999,9999,9999,2600457288
56,17,15,Jits_Phase_8,15,9999,9999,9999,2601258100
56,17,15,Jits_Phase_8,16,9999,9999,9999,2602057844
56,17,15,Jits_Phase_8,17,9999,9999,9999,2602857536
56,17,15,Jits_Phase_8,18,9999,9999,9999,2603657300
56,17,15,Jits_Phase_8,19,9999,9999,9999,2604458044
56,17,15,Jits_Phase_8,20,9999,9999,9999,2605257804
56,17,15,Jits_Phase_8,21,9999,9999,9999,2606057560
56,17,15,Jits_Phase_8,22,9999,9999,9999,2606857276
56,17,15,Jits_Phase_8,23,9999,9999,9999,2607658080
56,17,15,Jits_Phase_8,24,9999,9999,9999,2608457840
56,17,15,Jits_Phase_8,25,9999,9999,9999,2609257600
56,17,15,Jits_Phase_8,26,9999,9999,9999,2610057300
56,17,15,Jits_Phase_8,27,9999,9999,9999,2610858044
56,17,15,Jits_Phase_8,28,9999,9999,9999,2611657816
56,17,15,Jits_Phase_8,29,9999,9999,9999,2612457596
56,17,15,Jits_Phase_8,30,9999,9999,9999,2613237868
56,17,15,Jits_Phase_8,31,9999,9999,9999,2614037580
56,17,15,Jits_Phase_8,32,9999,9999,9999,2614837352
56,17,15,Jits_Phase_8,33,9999,9999,9999,2615638092
56,17,15,Jits_Phase_8,34,9999,9999,9999,2616448112
56,17,15,Jits_Phase_8,35,9999,9999,9999,2617258072
56,17,15,Jits_Phase_8,36,9999,9999,9999,2618057840
56,17,15,Jits_Phase_8,37,9999,9999,9999,2618857524
56,17,15,Jits_Phase_8,38,9999,9999,9999,2619657320
56,17,15,Jits_Phase_8,39,9999,9999,9999,2620458068
56,17,15,Jits_Phase_8,40,9999,9999,9999,2621257844
56,17,15,Jits_Phase_8,41,9999,9999,9999,2622057544
56,17,15,Jits_Phase_8,42,9999,9999,9999,2622857296
56,17,15,Jits_Phase_8,43,9999,9999,9999,2623658104
56,17,15,Jits_Phase_8,44,9999,9999,9999,2624457844
56,17,15,Jits_Phase_8,45,9999,9999,9999,2625257524
56,17,15,Jits_Phase_8,46,9999,9999,9999,2626057320
56,17,15,Jits_Phase_8,47,9999,9999,9999,2626858060
56,17,15,Jits_Phase_8,48,9999,9999,9999,2627677308
56,17,15,Jits_Phase_8,49,9999,9999,9999,2628478008
56,17,15,Jits_Phase_8,50,9999,9999,9999,2629277760
56,17,15,Jits_Phase_8,51,9999,9999,9999,2630077520
56,17,15,Jits_Phase_8,52,9999,9999,9999,2630877280
56,17,15,Jits_Phase_8,53,9999,9999,9999,2631678032
56,17,15,Jits_Phase_8,54,9999,9999,9999,2632477812
56,17,15,Jits_Phase_8,55,9999,9999,9999,2633277508
56,17,15,Jits_Phase_8,56,9999,9999,9999,2634077264
56,17,15,Jits_Phase_8,57,9999,9999,9999,2634878012
56,17,15,Jits_Phase_8,58,9999,9999,9999,2635677784
56,17,15,Jits_Phase_8,59,9999,9999,9999,2636477556
56,17,15,Jits_Phase_8,60,9999,9999,9999,2637277240
56,17,15,Jits_Phase_8,61,9999,9999,9999,2638078052
56,17,15,Jits_Phase_8,62,9999,9999,9999,2638877764
56,17,15,Jits_Phase_8,63,9999,9999,9999,2639677512
56,17,15,Jits_Phase_8,64,9999,9999,9999,2640517212
56,17,15,Jits_Phase_8,65,9999,9999,9999,2641317944
56,17,15,Jits_Phase_8,66,9999,9999,9999,2642117724
56,17,15,Jits_Phase_8,67,9999,9999,9999,2642917488
56,17,15,Jits_Phase_8,68,9999,9999,9999,2643717200
56,17,15,Jits_Phase_8,69,9999,9999,9999,2644517944
56,17,15,Jits_Phase_8,70,9999,9999,9999,2645317712
56,17,15,Jits_Phase_8,71,9999,9999,9999,2646117476
56,17,15,Jits_Phase_8,72,9999,9999,9999,2646917232
56,17,15,Jits_Phase_8,73,9999,9999,9999,2647717976
56,17,15,Jits_Phase_8,74,9999,9999,9999,2648517756
56,17,15,Jits_Phase_8,75,9999,9999,9999,2649317440
56,17,15,Jits_Phase_8,76,9999,9999,9999,2650117232
56,17,15,Jits_Phase_8,77,9999,9999,9999,2650917976
56,17,15,Jits_Phase_8,78,9999,9999,9999,2651717740
56,17,15,Jits_Phase_8,79,9999,9999,9999,2652517440
56,17,15,Jits_Phase_8,80,9999,9999,9999,2653317200
56,17,15,Jits_Phase_8,81,9999,9999,9999,2654078072
56,17,15,Jits_Phase_8,82,9999,9999,9999,2654877756
56,17,15,Jits_Phase_8,83,9999,9999,9999,2655677512
56,17,15,Jits_Phase_8,84,9999,9999,9999,2656477252
56,17,15,Jits_Phase_8,85,9999,9999,9999,2657278072
56,17,15,Jits_Phase_8,86,9999,9999,9999,2658077788
56,17,15,Jits_Phase_8,87,9999,9999,9999,2658877540
56,17,15,Jits_Phase_8,88,9999,9999,9999,2659677296
56,17,15,Jits_Phase_8,89,9999,9999,9999,2660478032
56,17,15,Jits_Phase_8,90,9999,9999,9999,2661277800
56,17,15,Jits_Phase_8,91,9999,9999,9999,2662077556
56,17,15,Jits_Phase_8,92,9999,9999,9999,2662877256
56,17,15,Jits_Phase_8,93,9999,9999,9999,2663678056
56,17,15,Jits_Phase_8,94,9999,9999,9999,2664477756
56,17,15,Jits_Phase_8,95,9999,9999,9999,2665277524
56,17,15,Jits_Phase_8,96,9999,9999,9999,2666077296
56,17,15,Jits_Phase_8,97,9999,9999,9999,2666797116
56,17,15,Jits_Phase_8,98,9999,9999,9999,2667597940
56,17,15,Jits_Phase_8,99,9999,9999,9999,2668397640
56,17,15,Jits_Phase_8,100,9999,9999,9999,2669197380
56,17,15,Jits_Phase_8,101,9999,9999,9999,2669997140
56,17,15,Jits_Phase_8,102,9999,9999,9999,2670797880
56,17,15,Jits_Phase_8,103,9999,9999,9999,2671597652
56,17,15,Jits_Phase_8,104,9999,9999,9999,2672397376
56,17,15,Jits_Phase_8,105,9999,9999,9999,2673197140
56,17,15,Jits_Phase_8,106,9999,9999,9999,2673997932
56,17,15,Jits_Phase_8,107,9999,9999,9999,2674797672
56,17,15,Jits_Phase_8,108,9999,9999,9999,2675597436
56,17,15,Jits_Phase_8,109,9999,9999,9999,2676397116
56,17,15,Jits_Phase_8,110,9999,9999,9999,2677197920
56,17,15,Jits_Phase_8,111,9999,9999,9999,2677997680
56,17,15,Jits_Phase_8,112,9999,9999,9999,2678797400
56,17,15,Jits_Phase_8,113,9999,9999,9999,2679597176
56,17,15,Jits_Phase_8,114,9999,9999,9999,2680477780
56,17,15,Jits_Phase_8,115,9999,9999,9999,2681277536
56,17,15,Jits_Phase_8,116,9999,9999,9999,2682077300
56,17,15,Jits_Phase_8,117,9999,9999,9999,2682878048
56,17,15,Jits_Phase_8,118,9999,9999,9999,2683677772
56,17,15,Jits_Phase_8,119,9999,9999,9999,2684477536
56,17,15,Jits_Phase_8,120,9999,9999,9999,2685277308
56,17,15,Jits_Phase_8,121,9999,9999,9999,2686078036
56,17,15,Jits_Phase_8,122,9999,9999,9999,2686877784
56,17,15,Jits_Phase_8,123,9999,9999,9999,2687677512
56,17,15,Jits_Phase_8,124,9999,9999,9999,2688477276
56,17,15,Jits_Phase_8,125,9999,9999,9999,2689278008
56,17,15,Jits_Phase_8,126,9999,9999,9999,2690077792
56,17,15,Jits_Phase_8,127,9999,9999,9999,2690877552
56,17,15,Jits_Phase_8,128,9999,9999,9999,2691677308
56,17,15,Jits_Phase_8,129,9999,9999,9999,2692478036
56,17,15,Jits_Phase_8,130,9999,9999,9999,2693277816
56,17,15,Jits_Phase_8,131,9999,9999,9999,2694237248
56,17,15,Jits_Phase_8,132,9999,9999,9999,2695038064
56,17,15,Jits_Phase_8,133,9999,9999,9999,2695837756
56,17,15,Jits_Phase_8,134,9999,9999,9999,2696637512
56,17,15,Jits_Phase_8,135,9999,9999,9999,2697437260
56,17,15,Jits_Phase_8,136,9999,9999,9999,2698238064
56,17,15,Jits_Phase_8,137,9999,9999,9999,2699037784
56,17,15,Jits_Phase_8,138,9999,9999,9999,2699837560
56,17,15,Jits_Phase_8,139,9999,9999,9999,2700637256
56,17,15,Jits_Phase_8,140,9999,9999,9999,2701438060
56,17,15,Jits_Phase_8,141,9999,9999,9999,2702237816
56,17,15,Jits_Phase_8,142,9999,9999,9999,2703037508
56,17,15,Jits_Phase_8,143,9999,9999,9999,2703837264
56,17,15,Jits_Phase_8,144,9999,9999,9999,2704638068
56,17,15,Jits_Phase_8,145,9999,9999,9999,2705437776
56,17,15,Jits_Phase_8,146,9999,9999,9999,2706237536
56,17,15,Jits_Phase_8,147,9999,9999,9999,2707037292
56,17,15,Jits_Phase_8,148,9999,9999,9999,2707838008
56,17,15,Jits_Phase_8,149,9999,9999,9999,2708637764
56,17,15,Jits_Phase_8,150,9999,9999,9999,2709277796
56,17,15,Jits_Phase_8,151,9999,9999,9999,2710077564
56,17,15,Jits_Phase_8,152,9999,9999,9999,2710877264
56,17,15,Jits_Phase_8,153,9999,9999,9999,2711678072
56,17,15,Jits_Phase_8,154,9999,9999,9999,2712477768
56,17,15,Jits_Phase_8,155,9999,9999,9999,2713277528
56,17,15,Jits_Phase_8,156,9999,9999,9999,2714077308
56,17,15,Jits_Phase_8,157,9999,9999,9999,2714878032
56,17,15,Jits_Phase_8,158,9999,9999,9999,2715677820
56,17,15,Jits_Phase_8,159,9999,9999,9999,2716477512
56,17,15,Jits_Phase_8,160,9999,9999,9999,2717277292
56,17,15,Jits_Phase_8,161,9999,9999,9999,2718078020
56,17,15,Jits_Phase_8,162,9999,9999,9999,2718877784
56,17,15,Jits_Phase_8,163,9999,9999,9999,2719677516
56,17,15,Jits_Phase_8,164,9999,9999,9999,2720477272
56,17,15,Jits_Phase_8,165,9999,9999,9999,2721278024
56,17,15,Jits_Phase_8,166,9999,9999,9999,2722077796
56,17,15,Jits_Phase_8,167,9999,9999,9999,2722877556
56,17,15,Jits_Phase_8,168,9999,9999,9999,2723677244
56,17,15,Jits_Phase_8,169,9999,9999,9999,2724478056
56,18,16,Jits_ISO_5,0,5,56,103,2733654340
56,18,16,Jits_ISO_5,1,5,63,98,2733657592
56,18,16,Jits_ISO_5,2,5,80,127,2733660784
56,18,16,Jits_ISO_5,0,5,56,103,2734154064
56,18,16,Jits_ISO_5,1,5,63,98,2734157312
56,18,16,Jits_ISO_5,2,5,80,127,2734160432
56,18,16,Jits_ISO_5,3,1,48,64,2734286864
56,18,16,Jits_ISO_5,0,1,48,59,2734633180
56,18,16,Jits_ISO_5,1,5,56,103,2734653952
56,18,16,Jits_ISO_5,2,5,80,127,2734664000
56,18,16,Jits_ISO_5,3,5,63,98,2734683484
56,18,16,Jits_ISO_5,0,5,63,98,2735104320
56,18,16,Jits_ISO_5,1,5,80,127,2735133996
56,18,16,Jits_ISO_5,2,5,56,103,2735144416
56,18,16,Jits_ISO_5,3,1,48,60,2735154952
56,18,16,Jits_ISO_5,0,1,48,69,2735585564
56,18,16,Jits_ISO_5,1,5,80,127,2735663752
56,18,16,Jits_ISO_5,2,5,56,103,2735673652
56,18,16,Jits_ISO_5,3,5,63,98,2735704360
56,18,16,Jits_ISO_5,0,1,48,73,2736147956
56,18,16,Jits_ISO_5,1,5,63,98,2736153904
56,18,16,Jits_ISO_5,2,5,56,103,2736183876
56,18,16,Jits_ISO_5,3,5,80,127,2736193848
56,18,16,Jits_ISO_5,0,5,56,103,2736603648
56,18,16,Jits_ISO_5,1,5,63,98,2736653800
56,18,16,Jits_ISO_5,2,1,48,84,2736664864
56,18,16,Jits_ISO_5,3,5,80,127,2736674100
56,18,16,Jits_ISO_5,0,5,80,127,2737104144
56,18,16,Jits_ISO_5,1,1,48,81,2737147564
56,18,16,Jits_ISO_5,2,5,63,98,2737154588
56,18,16,Jits_ISO_5,3,5,56,103,2737194448
56,18,16,Jits_ISO_5,0,5,56,103,2737603808
56,18,16,Jits_ISO_5,1,5,63,98,2737633856
56,18,16,Jits_ISO_5,2,1,48,89,2737658844
56,18,16,Jits_ISO_5,3,5,80,127,2737704448
56,18,16,Jits_ISO_5,0,5,56,103,2738103780
56,18,16,Jits_ISO_5,1,1,48,95,2738112976
56,18,16,Jits_ISO_5,2,5,80,127,2738164088
56,18,16,Jits_ISO_5,3,5,63,98,2738193936
56,18,16,Jits_ISO_5,0,5,56,103,2738613792
56,18,16,Jits_ISO_5,1,5,63,98,2738624064
56,18,16,Jits_ISO_5,2,1,48,86,2738638196
56,18,16,Jits_ISO_5,3,5,80,127,2738663768
56,18,16,Jits_ISO_5,0,5,63,98,2739114288
56,18,16,Jits_ISO_5,1,1,48,83,2739125048
56,18,16,Jits_ISO_5,2,5,80,127,2739194148
56,18,16,Jits_ISO_5,3,5,56,103,2739203400
56,18,16,Jits_ISO_5,0,5,63,98,2739664444
56,18,16,Jits_ISO_5,1,1,48,84,2739672296
56,18,16,Jits_ISO_5,2,5,56,103,2739704148
56,18,16,Jits_ISO_5,3,5,80,127,2739707288
56,18,16,Jits_ISO_5,0,5,56,103,2740123988
56,18,16,Jits_ISO_5,1,5,63,98,2740134336
56,18,16,Jits_ISO_5,2,5,80,127,2740174120
56,18,16,Jits_ISO_5,3,1,48,65,2740183092
56,18,16,Jits_ISO_5,0,5,56,103,2740613544
56,18,16,Jits_ISO_5,1,5,63,98,2740616680
56,18,16,Jits_ISO_5,2,5,80,127,2740633924
56,18,16,Jits_ISO_5,3,1,48,78,2740693528
56,18,16,Jits_ISO_5,0,5,80,127,2741123540
56,18,16,Jits_ISO_5,1,5,56,103,2741133808
56,18,16,Jits_ISO_5,2,1,48,75,2741149060
56,18,16,Jits_ISO_5,3,5,63,98,2741204452
56,18,16,Jits_ISO_5,0,5,63,98,2741613920
56,18,16,Jits_ISO_5,1,1,48,80,2741624456
56,18,16,Jits_ISO_5,2,5,56,103,2741634520
56,18,16,Jits_ISO_5,3,5,80,127,2741714456
56,18,16,Jits_ISO_5,0,5,56,103,2742123840
56,18,16,Jits_ISO_5,1,1,48,86,2742159992
56,18,16,Jits_ISO_5,2,5,80,127,2742163848
56,18,16,Jits_ISO_5,3,5,63,98,2742173968
56,18,16,Jits_ISO_5,0,5,80,127,2742614372
56,18,16,Jits_ISO_5,1,1,48,87,2742640408
56,18,16,Jits_ISO_5,2,5,63,98,2742644040
56,18,16,Jits_ISO_5,3,5,56,103,2742684048
56,18,16,Jits_ISO_5,0,5,56,103,2743143936
56,18,16,Jits_ISO_5,1,1,48,88,2743156124
56,18,16,Jits_ISO_5,2,5,63,98,2743173604
56,18,16,Jits_ISO_5,3,5,80,127,2743223804
56,18,16,Jits_ISO_5,0,5,80,127,2743643760
56,18,16,Jits_ISO_5,1,1,48,89,2743661948
56,18,16,Jits_ISO_5,2,5,56,103,2743683544
56,18,16,Jits_ISO_5,3,5,63,98,2743693740
56,18,16,Jits_ISO_5,0,5,80,127,2744123732
56,18,16,Jits_ISO_5,1,1,48,74,2744151284
56,18,16,Jits_ISO_5,2,5,63,98,2744163812
56,18,16,Jits_ISO_5,3,5,56,103,2744224048
56,18,16,Jits_ISO_5,0,5,56,103,2744623552
56,18,16,Jits_ISO_5,1,5,80,127,2744633748
56,18,16,Jits_ISO_5,2,1,48,92,2744680308
56,18,16,Jits_ISO_5,3,5,63,98,2744713756
56,18,16,Jits_ISO_5,0,5,80,127,2745124344
56,18,16,Jits_ISO_5,1,1,48,88,2745159752
56,18,16,Jits_ISO_5,2,5,63,98,2745183684
56,18,16,Jits_ISO_5,3,5,56,103,2745214180
56,18,16,Jits_ISO_5,0,5,56,103,2745623872
56,18,16,Jits_ISO_5,1,1,48,82,2745672620
56,18,16,Jits_ISO_5,2,5,80,127,2745684700
56,18,16,Jits_ISO_5,3,5,63,98,2745724488
56,18,16,Jits_ISO_5,0,5,56,103,2746173744
56,18,16,Jits_ISO_5,1,1,48,81,2746184536
56,18,16,Jits_ISO_5,2,5,63,98,2746185820
56,18,16,Jits_ISO_5,3,5,80,127,2746188712
56,18,16,Jits_ISO_5,0,5,80,127,2746624556
56,18,16,Jits_ISO_5,1,5,63,98,2746713716
56,18,16,Jits_ISO_5,2,1,48,81,2746719076
56,18,16,Jits_ISO_5,3,5,56,103,2746723904
56,18,16,Jits_ISO_5,0,5,56,103,2747123960
56,18,16,Jits_ISO_5,1,5,63,98,2747127136
56,18,16,Jits_ISO_5,2,5,80,127,2747130484
56,18,16,Jits_ISO_5,3,1,48,85,2747192076
56,18,16,Jits_ISO_5,0,1,48,89,2747623076
56,18,16,Jits_ISO_5,1,5,80,127,2747644376
56,18,16,Jits_ISO_5,2,5,63,98,2747693556
56,18,16,Jits_ISO_5,3,5,56,103,2747724188
56,18,16,Jits_ISO_5,0,5,56,103,2748123592
56,18,16,Jits_ISO_5,1,5,80,127,2748133788
56,18,16,Jits_ISO_5,2,1,48,77,2748156236
56,18,16,Jits_ISO_5,3,5,63,98,2748204604
56,18,16,Jits_ISO_5,0,1,48,92,2748620372
56,18,16,Jits_ISO_5,1,5,56,103,2748633592
56,18,16,Jits_ISO_5,2,5,63,98,2748653904
56,18,16,Jits_ISO_5,3,5,80,127,2748714372
56,18,16,Jits_ISO_5,0,1,48,91,2749118228
56,18,16,Jits_ISO_5,1,5,80,127,2749123808
56,18,16,Jits_ISO_5,2,5,63,98,2749193512
56,18,16,Jits_ISO_5,3,5,56,103,2749214696
56,18,16,Jits_ISO_5,0,5,80,127,2749644224
56,18,16,Jits_ISO_5,1,1,48,82,2749651084
56,18,16,Jits_ISO_5,2,5,56,103,2749654712
56,18,16,Jits_ISO_5,3,5,63,98,2749663788
56,18,16,Jits_ISO_5,0,5,80,127,2750133484
56,18,16,Jits_ISO_5,1,1,48,91,2750151276
56,18,16,Jits_ISO_5,2,5,56,103,2750154084
56,18,16,Jits_ISO_5,3,5,63,98,2750223788
56,18,16,Jits_ISO_5,0,1,48,94,2750636940
56,18,16,Jits_ISO_5,1,5,56,103,2750653680
56,18,16,Jits_ISO_5,2,5,80,127,2750683428
56,18,16,Jits_ISO_5,3,5,63,98,2750704036
56,18,16,Jits_ISO_5,0,1,48,65,2751138848
56,18,16,Jits_ISO_5,1,5,63,98,2751144420
56,18,16,Jits_ISO_5,2,5,56,103,2751203688
56,18,16,Jits_ISO_5,3,5,80,127,2751234360
56,18,16,Jits_ISO_5,0,5,63,98,2751633752
56,18,16,Jits_ISO_5,1,5,80,127,2751637040
56,18,16,Jits_ISO_5,2,1,48,71,2751656720
56,18,16,Jits_ISO_5,3,5,56,103,2751723872
56,18,16,Jits_ISO_5,0,1,48,81,2752123260
56,18,16,Jits_ISO_5,1,5,56,103,2752153924
56,18,16,Jits_ISO_5,2,5,63,98,2752183600
56,18,16,Jits_ISO_5,3,5,80,127,2752223596
56,18,16,Jits_ISO_5,0,1,48,63,2752643372
56,18,16,Jits_ISO_5,1,5,63,98,2752653656
56,18,16,Jits_ISO_5,2,5,56,103,2752693520
56,18,16,Jits_ISO_5,3,5,80,127,2752714052
56,18,16,Jits_ISO_5,0,1,48,59,2753163436
56,18,16,Jits_ISO_5,1,5,63,98,2753164920
56,18,16,Jits_ISO_5,2,5,56,103,2753203440
56,18,16,Jits_ISO_5,3,5,80,127,2753213936
56,18,16,Jits_ISO_5,0,1,48,75,2753633992
56,18,16,Jits_ISO_5,1,5,80,127,2753643980
56,18,16,Jits_ISO_5,2,5,63,98,2753713436
56,18,16,Jits_ISO_5,3,5,56,103,2753734624
56,18,16,Jits_ISO_5,0,5,56,103,2754134580
56,18,16,Jits_ISO_5,1,5,80,127,2754153772
56,18,16,Jits_ISO_5,2,1,48,54,2754162740
56,18,16,Jits_ISO_5,3,5,63,98,2754193772
56,18,16,Jits_ISO_5,0,1,48,81,2754598552
56,18,16,Jits_ISO_5,1,5,63,98,2754653504
56,18,16,Jits_ISO_5,2,5,80,127,2754673888
56,18,16,Jits_ISO_5,3,5,56,103,2754713960
56,18,16,Jits_ISO_5,0,1,48,76,2755132232
56,18,16,Jits_ISO_5,1,5,63,98,2755154504
56,18,16,Jits_ISO_5,2,5,56,103,2755173692
56,18,16,Jits_ISO_5,3,5,80,127,2755183964
56,18,16,Jits_ISO_5,0,1,48,88,2755636828
56,18,16,Jits_ISO_5,1,5,80,127,2755653864
56,18,16,Jits_ISO_5,2,5,56,103,2755673572
56,18,16,Jits_ISO_5,3,5,63,98,2755704516
56,18,16,Jits_ISO_5,0,1,48,80,2756147420
56,18,16,Jits_ISO_5,1,5,56,103,2756224316
56,18,16,Jits_ISO_5,2,5,80,127,2756227456
56,18,16,Jits_ISO_5,3,5,63,98,2756243860
56,18,16,Jits_ISO_5,0,5,63,98,2756644556
56,18,16,Jits_ISO_5,1,5,56,103,2756674008
56,18,16,Jits_ISO_5,2,1,48,79,2756716760
56,18,16,Jits_ISO_5,3,5,80,127,2756734312
56,18,16,Jits_ISO_5,0,1,48,76,2757163516
56,18,16,Jits_ISO_5,1,5,63,98,2757223700
56,18,16,Jits_ISO_5,2,5,56,103,2757233896
56,18,16,Jits_ISO_5,3,5,80,127,2757244388
56,18,16,Jits_ISO_5,0,5,56,103,2757674448
56,18,16,Jits_ISO_5,1,5,80,127,2757704420
56,18,16,Jits_ISO_5,2,5,63,98,2757714244
56,18,16,Jits_ISO_5,3,1,48,77,2757717880
56,18,16,Jits_ISO_5,0,1,48,67,2758176260
56,18,16,Jits_ISO_5,1,5,63,98,2758213900
56,18,16,Jits_ISO_5,2,5,56,103,2758224244
56,18,16,Jits_ISO_5,3,5,80,127,2758243656
56,18,16,Jits_ISO_5,0,5,56,103,2758644688
56,18,16,Jits_ISO_5,1,5,63,98,2758703376
56,18,16,Jits_ISO_5,2,5,80,127,2758706672
56,18,16,Jits_ISO_5,3,1,48,65,2758712356
56,18,16,Jits_ISO_5,0,5,80,127,2759164680
56,18,16,Jits_ISO_5,1,5,56,103,2759173456
56,18,16,Jits_ISO_5,2,1,48,82,2759183024
56,18,16,Jits_ISO_5,3,5,63,98,2759244320
56,18,16,Jits_ISO_5,0,5,80,127,2759653620
56,18,16,Jits_ISO_5,1,1,48,78,2759686728
56,18,16,Jits_ISO_5,2,5,56,103,2759724512
56,18,16,Jits_ISO_5,3,5,63,98,2759733588
56,18,16,Jits_ISO_5,0,1,48,82,2760187196
56,18,16,Jits_ISO_5,1,5,63,98,2760194368
56,18,16,Jits_ISO_5,2,5,56,103,2760203664
56,18,16,Jits_ISO_5,3,5,80,127,2760224048
56,18,16,Jits_ISO_5,0,5,80,127,2760643808
56,18,16,Jits_ISO_5,1,1,48,78,2760692784
56,18,16,Jits_ISO_5,2,5,63,98,2760704512
56,18,16,Jits_ISO_5,3,5,56,103,2760744300
56,18,16,Jits_ISO_5,0,5,56,103,2761183716
56,18,16,Jits_ISO_5,1,5,63,98,2761193836
56,18,16,Jits_ISO_5,2,1,48,71,2761202808
56,18,16,Jits_ISO_5,3,5,80,127,2761233788
56,18,16,Jits_ISO_5,0,5,56,103,2761644504
56,18,16,Jits_ISO_5,1,5,80,127,2761674180
56,18,16,Jits_ISO_5,2,1,48,78,2761681560
56,18,16,Jits_ISO_5,3,5,63,98,2761724468
56,18,16,Jits_ISO_5,0,1,48,65,2762169688
56,18,16,Jits_ISO_5,1,5,56,103,2762194364
56,18,16,Jits_ISO_5,2,5,63,98,2762234152
56,18,16,Jits_ISO_5,3,5,80,127,2762237468
56,18,16,Jits_ISO_5,0,1,48,66,2762681640
56,18,16,Jits_ISO_5,1,5,56,103,2762693944
56,18,16,Jits_ISO_5,2,5,63,98,2762704436
56,18,16,Jits_ISO_5,3,5,80,127,2762723628
56,18,16,Jits_ISO_5,0,5,56,103,2763153896
56,18,16,Jits_ISO_5,1,5,80,127,2763157112
56,18,16,Jits_ISO_5,2,1,48,78,2763173352
56,18,16,Jits_ISO_5,3,5,63,98,2763193676
56,18,16,Jits_ISO_5,0,1,48,67,2763665140
56,18,16,Jits_ISO_5,1,5,63,98,2763693412
56,18,16,Jits_ISO_5,2,5,56,103,2763724208
56,18,16,Jits_ISO_5,3,5,80,127,2763743544
56,18,16,Jits_ISO_5,0,5,80,127,2764163336
56,18,16,Jits_ISO_5,1,1,48,68,2764166976
56,18,16,Jits_ISO_5,2,5,56,103,2764173600
56,18,16,Jits_ISO_5,3,5,63,98,2764184020
56,18,16,Jits_ISO_5,0,5,56,103,2764664276
56,18,16,Jits_ISO_5,1,1,48,66,2764698260
56,18,16,Jits_ISO_5,2,5,80,127,2764704356
56,18,16,Jits_ISO_5,3,5,63,98,2764733880
56,18,16,Jits_ISO_5,0,1,48,67,2765147884
56,18,16,Jits_ISO_5,1,5,63,98,2765174064
56,18,16,Jits_ISO_5,2,5,80,127,2765184260
56,18,16,Jits_ISO_5,3,5,56,103,2765193556
56,18,16,Jits_ISO_5,0,5,56,103,2765654244
56,18,16,Jits_ISO_5,1,1,48,70,2765676316
56,18,16,Jits_ISO_5,2,5,63,98,2765724216
56,18,16,Jits_ISO_5,3,5,80,127,2765734264
56,18,16,Jits_ISO_5,0,1,48,71,2766155680
56,18,16,Jits_ISO_5,1,5,80,127,2766164400
56,18,16,Jits_ISO_5,2,5,56,103,2766173624
56,18,16,Jits_ISO_5,3,5,63,98,2766223600
56,18,16,Jits_ISO_5,0,5,80,127,2766674176
56,18,16,Jits_ISO_5,1,1,48,61,2766676916
56,18,16,Jits_ISO_5,2,5,56,103,2766733584
56,18,16,Jits_ISO_5,3,5,63,98,2766764380
56,18,16,Jits_ISO_5,0,5,56,103,2767174072
56,18,16,Jits_ISO_5,1,5,80,127,2767177212
56,18,16,Jits_ISO_5,2,5,63,98,2767214232
56,18,16,Jits_ISO_5,3,1,48,74,2767224472
56,18,16,Jits_ISO_5,0,1,48,78,2767699244
56,18,16,Jits_ISO_5,1,5,56,103,2767704520
56,18,16,Jits_ISO_5,2,5,63,98,2767734268
56,18,16,Jits_ISO_5,3,5,80,127,2767744392
56,18,16,Jits_ISO_5,0,1,48,76,2768206400
56,18,16,Jits_ISO_5,1,5,63,98,2768214296
56,18,16,Jits_ISO_5,2,5,80,127,2768223520
56,18,16,Jits_ISO_5,3,5,56,103,2768233792
56,18,16,Jits_ISO_5,0,5,80,127,2768664064
56,18,16,Jits_ISO_5,1,1,48,74,2768712820
56,18,16,Jits_ISO_5,2,5,56,103,2768714332
56,18,16,Jits_ISO_5,3,5,63,98,2768717248
56,18,16,Jits_ISO_5,0,5,56,103,2769194440
56,18,16,Jits_ISO_5,1,5,80,127,2769213856
56,18,16,Jits_ISO_5,2,5,63,98,2769224272
56,18,16,Jits_ISO_5,3,1,48,69,2769225236
56,18,16,Jits_ISO_5,0,5,63,98,2769673512
56,18,16,Jits_ISO_5,1,5,56,103,2769704232
56,18,16,Jits_ISO_5,2,5,80,127,2769723644
56,18,16,Jits_ISO_5,3,1,48,76,2769740020
56,18,16,Jits_ISO_5,0,1,48,71,2770178748
56,18,16,Jits_ISO_5,1,5,56,103,2770183500
56,18,16,Jits_ISO_5,2,5,80,127,2770193772
56,18,16,Jits_ISO_5,3,5,63,98,2770264420
56,18,16,Jits_ISO_5,0,5,63,98,2770674224
56,18,16,Jits_ISO_5,1,5,80,127,2770714260
56,18,16,Jits_ISO_5,2,1,48,70,2770715300
56,18,16,Jits_ISO_5,3,5,56,103,2770754116
56,18,16,Jits_ISO_5,0,5,56,103,2771183996
56,18,16,Jits_ISO_5,1,5,63,98,2771194192
56,18,16,Jits_ISO_5,2,1,48,72,2771204680
56,18,16,Jits_ISO_5,3,5,80,127,2771213624
56,18,16,Jits_ISO_5,0,1,48,72,2771682220
56,18,16,Jits_ISO_5,1,5,63,98,2771723624
56,18,16,Jits_ISO_5,2,5,80,127,2771744156
56,18,16,Jits_ISO_5,3,5,56,103,2771763496
56,18,16,Jits_ISO_5,0,5,56,103,2772164228
56,18,16,Jits_ISO_5,1,1,48,78,2772223568
56,18,16,Jits_ISO_5,2,5,80,127,2772244040
56,18,16,Jits_ISO_5,3,5,63,98,2772254312
56,18,16,Jits_ISO_5,0,1,48,86,2772684104
56,18,16,Jits_ISO_5,1,5,80,127,2772703532
56,18,16,Jits_ISO_5,2,5,63,98,2772714100
56,18,16,Jits_ISO_5,3,5,56,103,2772743500
56,18,16,Jits_ISO_5,0,5,63,98,2773164464
56,18,16,Jits_ISO_5,1,1,48,93,2773202204
56,18,16,Jits_ISO_5,2,5,80,127,2773204244
56,18,16,Jits_ISO_5,3,5,56,103,2773263760
56,18,16,Jits_ISO_5,0,1,48,82,2773679516
56,18,16,Jits_ISO_5,1,5,63,98,2773683596
56,18,16,Jits_ISO_5,2,5,56,103,2773733724
56,18,16,Jits_ISO_5,3,5,80,127,2773763348
56,18,16,Jits_ISO_5,0,1,48,89,2774191008
56,18,16,Jits_ISO_5,1,5,80,127,2774193448
56,18,16,Jits_ISO_5,2,5,63,98,2774203864
56,18,16,Jits_ISO_5,3,5,56,103,2774274464
56,18,16,Jits_ISO_5,0,1,48,75,2774689028
56,18,16,Jits_ISO_5,1,5,80,127,2774763980
56,18,16,Jits_ISO_5,2,5,56,103,2774774248
56,18,16,Jits_ISO_5,3,5,63,98,2774777164
56,18,16,Jits_ISO_5,0,5,56,103,2775204132
56,18,16,Jits_ISO_5,1,1,48,90,2775222028
56,18,16,Jits_ISO_5,2,5,80,127,2775223612
56,18,16,Jits_ISO_5,3,5,63,98,2775234176
56,18,16,Jits_ISO_5,0,5,63,98,2775714140
56,18,16,Jits_ISO_5,1,1,48,70,2775726180
56,18,16,Jits_ISO_5,2,5,56,103,2775753996
56,18,16,Jits_ISO_5,3,5,80,127,2775773408
56,18,16,Jits_ISO_5,0,5,63,98,2776214104
56,18,16,Jits_ISO_5,1,1,48,82,2776221560
56,18,16,Jits_ISO_5,2,5,56,103,2776274260
56,18,16,Jits_ISO_5,3,5,80,127,2776277324
56,18,16,Jits_ISO_5,0,5,56,103,2776673600
56,18,16,Jits_ISO_5,1,5,80,127,2776694060
56,18,16,Jits_ISO_5,2,1,48,83,2776727592
56,18,16,Jits_ISO_5,3,5,63,98,2776734136
56,18,16,Jits_ISO_5,0,5,56,103,2777204060
56,18,16,Jits_ISO_5,1,1,48,68,2777223548
56,18,16,Jits_ISO_5,2,5,63,98,2777224960
56,18,16,Jits_ISO_5,3,5,80,127,2777234108
56,18,16,Jits_ISO_5,0,5,80,127,2777684328
56,18,16,Jits_ISO_5,1,5,56,103,2777714076
56,18,16,Jits_ISO_5,2,1,48,71,2777736972
56,18,16,Jits_ISO_5,3,5,63,98,2777753860
56,18,16,Jits_ISO_5,0,5,80,127,2778194340
56,18,16,Jits_ISO_5,1,1,48,74,2778212236
56,18,16,Jits_ISO_5,2,5,56,103,2778213820
56,18,16,Jits_ISO_5,3,5,63,98,2778274056
56,18,16,Jits_ISO_5,0,5,56,103,2778704204
56,18,16,Jits_ISO_5,1,5,80,127,2778723988
56,18,16,Jits_ISO_5,2,1,48,60,2778745164
56,18,16,Jits_ISO_5,3,5,63,98,2778783996
56,18,16,Jits_ISO_5,0,5,80,127,2779183352
56,18,16,Jits_ISO_5,1,5,56,103,2779193920
56,18,16,Jits_ISO_5,2,1,48,70,2779209320
56,18,16,Jits_ISO_5,3,5,63,98,2779233924
56,18,16,Jits_ISO_5,0,5,63,98,2779684072
56,18,16,Jits_ISO_5,1,1,48,76,2779697900
56,18,16,Jits_ISO_5,2,5,56,103,2779724076
56,18,16,Jits_ISO_5,3,5,80,127,2779727068
56,18,16,Jits_ISO_5,0,5,63,98,2780204544
56,18,16,Jits_ISO_5,1,1,48,59,2780222056
56,18,16,Jits_ISO_5,2,5,80,127,2780244400
56,18,16,Jits_ISO_5,3,5,56,103,2780274076
56,18,16,Jits_ISO_5,0,5,56,103,2780694012
56,18,16,Jits_ISO_5,1,5,63,98,2780704060
56,18,16,Jits_ISO_5,2,1,48,66,2780712432
56,18,16,Jits_ISO_5,3,5,80,127,2780734100
56,18,16,Jits_ISO_5,0,5,80,127,2781184244
56,18,16,Jits_ISO_5,1,1,48,70,2781244456
56,18,16,Jits_ISO_5,2,5,63,98,2781254068
56,18,16,Jits_ISO_5,3,5,56,103,2781264188
56,18,16,Jits_ISO_5,0,5,63,98,2781683964
56,18,16,Jits_ISO_5,1,1,48,58,2781725168
56,18,16,Jits_ISO_5,2,5,56,103,2781753812
56,18,16,Jits_ISO_5,3,5,80,127,2781764008
56,18,16,Jits_ISO_5,0,5,63,98,2782184068
56,18,16,Jits_ISO_5,1,5,56,103,2782204256
56,18,16,Jits_ISO_5,2,1,48,86,2782229696
56,18,16,Jits_ISO_5,3,5,80,127,2782244112
56,18,16,Jits_ISO_5,0,5,56,103,2782693692
56,18,16,Jits_ISO_5,1,5,63,98,2782704112
56,18,16,Jits_ISO_5,2,1,48,76,2782718640
56,18,16,Jits_ISO_5,3,5,80,127,2782783848
56,18,16,Jits_ISO_5,0,5,63,98,2783184300
56,18,16,Jits_ISO_5,1,1,48,79,2783191252
56,18,16,Jits_ISO_5,2,5,56,103,2783213968
56,18,16,Jits_ISO_5,3,5,80,127,2783253856
56,18,16,Jits_ISO_5,0,5,56,103,2783683960
56,18,16,Jits_ISO_5,1,1,48,73,2783708872
56,18,16,Jits_ISO_5,2,5,63,98,2783723816
56,18,16,Jits_ISO_5,3,5,80,127,2783763924
56,18,16,Jits_ISO_5,0,5,80,127,2784183932
56,18,16,Jits_ISO_5,1,1,48,59,2784212308
56,18,16,Jits_ISO_5,2,5,56,103,2784263520
56,18,16,Jits_ISO_5,3,5,63,98,2784273716
56,18,16,Jits_ISO_5,0,1,48,78,2784694888
56,18,16,Jits_ISO_5,1,5,56,103,2784724200
56,18,16,Jits_ISO_5,2,5,63,98,2784727344
56,18,16,Jits_ISO_5,3,5,80,127,2784733500
56,18,16,Jits_ISO_5,0,1,48,70,2785203532
56,18,16,Jits_ISO_5,1,5,56,103,2785253672
56,18,16,Jits_ISO_5,2,5,63,98,2785274280
56,18,16,Jits_ISO_5,3,5,80,127,2785283580
56,18,16,Jits_ISO_5,0,5,63,98,2785713608
56,18,16,Jits_ISO_5,1,5,80,127,2785723880
56,18,16,Jits_ISO_5,2,1,48,74,2785726924
56,18,16,Jits_ISO_5,3,5,56,103,2785744256
56,18,16,Jits_ISO_5,0,1,48,67,2786209700
56,18,16,Jits_ISO_5,1,5,63,98,2786214380
56,18,16,Jits_ISO_5,2,5,56,103,2786294100
56,18,16,Jits_ISO_5,3,5,80,127,2786297312
56,18,16,Jits_ISO_5,0,5,63,98,2786713964
56,18,16,Jits_ISO_5,1,5,56,103,2786733376
56,18,16,Jits_ISO_5,2,1,48,80,2786746084
56,18,16,Jits_ISO_5,3,5,80,127,2786764092
56,18,16,Jits_ISO_5,0,5,56,103,2787213696
56,18,16,Jits_ISO_5,1,5,63,98,2787234152
56,18,16,Jits_ISO_5,2,1,48,85,2787238996
56,18,16,Jits_ISO_5,3,5,80,127,2787244492
56,18,16,Jits_ISO_5,0,5,56,103,2787744156
56,18,16,Jits_ISO_5,1,1,48,69,2787750716
56,18,16,Jits_ISO_5,2,5,63,98,2787773824
56,18,16,Jits_ISO_5,3,5,80,127,2787777040
56,18,16,Jits_ISO_5,0,5,56,103,2788193776
56,18,16,Jits_ISO_5,1,5,63,98,2788233788
56,18,16,Jits_ISO_5,2,1,48,67,2788275188
56,18,16,Jits_ISO_5,3,5,80,127,2788294020
56,18,16,Jits_ISO_5,0,5,56,103,2788713828
56,18,16,Jits_ISO_5,1,1,48,81,2788722280
56,18,16,Jits_ISO_5,2,5,63,98,2788724016
56,18,16,Jits_ISO_5,3,5,80,127,2788783504
56,18,16,Jits_ISO_5,0,5,56,103,2789223768
56,18,16,Jits_ISO_5,1,5,80,127,2789244224
56,18,16,Jits_ISO_5,2,1,48,67,2789250188
56,18,16,Jits_ISO_5,3,5,63,98,2789274040
56,18,16,Jits_ISO_5,0,1,48,69,2789709088
56,18,16,Jits_ISO_5,1,5,80,127,2789723428
56,18,16,Jits_ISO_5,2,5,56,103,2789733700
56,18,16,Jits_ISO_5,3,5,63,98,2789754232
56,18,16,Jits_ISO_5,0,5,63,98,2790213952
56,18,16,Jits_ISO_5,1,1,48,74,2790222248
56,18,16,Jits_ISO_5,2,5,80,127,2790294036
56,18,16,Jits_ISO_5,3,5,56,103,2790304156
56,18,16,Jits_ISO_5,0,1,48,70,2790745124
56,18,16,Jits_ISO_5,1,5,80,127,2790774216
56,18,16,Jits_ISO_5,2,5,56,103,2790793552
56,18,16,Jits_ISO_5,3,5,63,98,2790796764
56,18,16,Jits_ISO_5,0,5,63,98,2791244132
56,18,16,Jits_ISO_5,1,5,80,127,2791247492
56,18,16,Jits_ISO_5,2,1,48,59,2791273848
56,18,16,Jits_ISO_5,3,5,56,103,2791303688
56,18,16,Jits_ISO_5,0,5,56,103,2791724452
56,18,16,Jits_ISO_5,1,5,80,127,2791733676
56,18,16,Jits_ISO_5,2,1,48,78,2791744364
56,18,16,Jits_ISO_5,3,5,63,98,2791773680
56,18,16,Jits_ISO_5,0,5,56,103,2792203672
56,18,16,Jits_ISO_5,1,1,48,79,2792260652
56,18,16,Jits_ISO_5,2,5,63,98,2792263980
56,18,16,Jits_ISO_5,3,5,80,127,2792274328
56,18,16,Jits_ISO_5,0,5,63,98,2792713684
56,18,16,Jits_ISO_5,1,1,48,61,2792747592
56,18,16,Jits_ISO_5,2,5,80,127,2792753688
56,18,16,Jits_ISO_5,3,5,56,103,2792793476
56,18,16,Jits_ISO_5,0,5,56,103,2793214540
56,18,16,Jits_ISO_5,1,1,48,73,2793241472
56,18,16,Jits_ISO_5,2,5,63,98,2793294176
56,18,16,Jits_ISO_5,3,5,80,127,2793297688
56,18,16,Jits_ISO_5,0,9999,9999,9999,2733901920
56,18,16,Jits_ISO_5,1,9999,9999,9999,2734401620
56,18,16,Jits_ISO_5,2,9999,9999,9999,2734901368
56,18,16,Jits_ISO_5,3,9999,9999,9999,2735402072
56,18,16,Jits_ISO_5,4,9999,9999,9999,2735901808
56,18,16,Jits_ISO_5,5,9999,9999,9999,2736401472
56,18,16,Jits_ISO_5,6,9999,9999,9999,2736901200
56,18,16,Jits_ISO_5,7,9999,9999,9999,2737401972
56,18,16,Jits_ISO_5,8,9999,9999,9999,2737901636
56,18,16,Jits_ISO_5,9,9999,9999,9999,2738401384
56,18,16,Jits_ISO_5,10,9999,9999,9999,2738902104
56,18,16,Jits_ISO_5,11,9999,9999,9999,2739412044
56,18,16,Jits_ISO_5,12,9999,9999,9999,2739911744
56,18,16,Jits_ISO_5,13,9999,9999,9999,2740411476
56,18,16,Jits_ISO_5,14,9999,9999,9999,2740911204
56,18,16,Jits_ISO_5,15,9999,9999,9999,2741411924
56,18,16,Jits_ISO_5,16,9999,9999,9999,2741911672
56,18,16,Jits_ISO_5,17,9999,9999,9999,2742411328
56,18,16,Jits_ISO_5,18,9999,9999,9999,2742912120
56,18,16,Jits_ISO_5,19,9999,9999,9999,2743422060
56,18,16,Jits_ISO_5,20,9999,9999,9999,2743921736
56,18,16,Jits_ISO_5,21,9999,9999,9999,2744421484
56,18,16,Jits_ISO_5,22,9999,9999,9999,2744921152
56,18,16,Jits_ISO_5,23,9999,9999,9999,2745421876
56,18,16,Jits_ISO_5,24,9999,9999,9999,2745921624
56,18,16,Jits_ISO_5,25,9999,9999,9999,2746421364
56,18,16,Jits_ISO_5,26,9999,9999,9999,2746922088
56,18,16,Jits_ISO_5,27,9999,9999,9999,2747421808
56,18,16,Jits_ISO_5,28,9999,9999,9999,2747921488
56,18,16,Jits_ISO_5,29,9999,9999,9999,2748421216
56,18,16,Jits_ISO_5,30,9999,9999,9999,2748921912
56,18,16,Jits_ISO_5,31,9999,9999,9999,2749421640
56,18,16,Jits_ISO_5,32,9999,9999,9999,2749921376
56,18,16,Jits_ISO_5,33,9999,9999,9999,2750422096
56,18,16,Jits_ISO_5,34,9999,9999,9999,2750932032
56,18,16,Jits_ISO_5,35,9999,9999,9999,2751431772
56,18,16,Jits_ISO_5,36,9999,9999,9999,2751931496
56,18,16,Jits_ISO_5,37,9999,9999,9999,2752431156
56,18,16,Jits_ISO_5,38,9999,9999,9999,2752931936
56,18,16,Jits_ISO_5,39,9999,9999,9999,2753431668
56,18,16,Jits_ISO_5,40,9999,9999,9999,2753931332
56,18,16,Jits_ISO_5,41,9999,9999,9999,2754432108
56,18,16,Jits_ISO_5,42,9999,9999,9999,2754942044
56,18,16,Jits_ISO_5,43,9999,9999,9999,2755441776
56,18,16,Jits_ISO_5,44,9999,9999,9999,2755941432
56,18,16,Jits_ISO_5,45,9999,9999,9999,2756441160
56,18,16,Jits_ISO_5,46,9999,9999,9999,2756941936
56,18,16,Jits_ISO_5,47,9999,9999,9999,2757441600
56,18,16,Jits_ISO_5,48,9999,9999,9999,2757941336
56,18,16,Jits_ISO_5,49,9999,9999,9999,2758442064
56,18,16,Jits_ISO_5,50,9999,9999,9999,2758941784
56,18,16,Jits_ISO_5,51,9999,9999,9999,2759441460
56,18,16,Jits_ISO_5,52,9999,9999,9999,2759941208
56,18,16,Jits_ISO_5,53,9999,9999,9999,2760441908
56,18,16,Jits_ISO_5,54,9999,9999,9999,2760941636
56,18,16,Jits_ISO_5,55,9999,9999,9999,2761441388
56,18,16,Jits_ISO_5,56,9999,9999,9999,2761942108
56,18,16,Jits_ISO_5,57,9999,9999,9999,2762452036
56,18,16,Jits_ISO_5,58,9999,9999,9999,2762951772
56,18,16,Jits_ISO_5,59,9999,9999,9999,2763451488
56,18,16,Jits_ISO_5,60,9999,9999,9999,2763951168
56,18,16,Jits_ISO_5,61,9999,9999,9999,2764451944
56,18,16,Jits_ISO_5,62,9999,9999,9999,2764951620
56,18,16,Jits_ISO_5,63,9999,9999,9999,2765451368
56,18,16,Jits_ISO_5,64,9999,9999,9999,2765952076
56,18,16,Jits_ISO_5,65,9999,9999,9999,2766462008
56,18,16,Jits_ISO_5,66,9999,9999,9999,2766961740
56,18,16,Jits_ISO_5,67,9999,9999,9999,2767461476
56,18,16,Jits_ISO_5,68,9999,9999,9999,2767961156
56,18,16,Jits_ISO_5,69,9999,9999,9999,2768461936
56,18,16,Jits_ISO_5,70,9999,9999,9999,2768961656
56,18,16,Jits_ISO_5,71,9999,9999,9999,2769461328
56,18,16,Jits_ISO_5,72,9999,9999,9999,2769962048
56,18,16,Jits_ISO_5,73,9999,9999,9999,2770461780
56,18,16,Jits_ISO_5,74,9999,9999,9999,2770961512
56,18,16,Jits_ISO_5,75,9999,9999,9999,2771461172
56,18,16,Jits_ISO_5,76,9999,9999,9999,2771961952
56,18,16,Jits_ISO_5,77,9999,9999,9999,2772461684
56,18,16,Jits_ISO_5,78,9999,9999,9999,2772961360
56,18,16,Jits_ISO_5,79,9999,9999,9999,2773462068
56,18,16,Jits_ISO_5,80,9999,9999,9999,2773972064
56,18,16,Jits_ISO_5,81,9999,9999,9999,2774471800
56,18,16,Jits_ISO_5,82,9999,9999,9999,2774971508
56,18,16,Jits_ISO_5,83,9999,9999,9999,2775471168
56,18,16,Jits_ISO_5,84,9999,9999,9999,2775971892
56,18,16,Jits_ISO_5,85,9999,9999,9999,2776471620
56,18,16,Jits_ISO_5,86,9999,9999,9999,2776971352
56,18,16,Jits_ISO_5,87,9999,9999,9999,2777472072
56,18,16,Jits_ISO_5,88,9999,9999,9999,2777982008
56,18,16,Jits_ISO_5,89,9999,9999,9999,2778481756
56,18,16,Jits_ISO_5,90,9999,9999,9999,2778981432
56,18,16,Jits_ISO_5,91,9999,9999,9999,2779481176
56,18,16,Jits_ISO_5,92,9999,9999,9999,2779981888
56,18,16,Jits_ISO_5,93,9999,9999,9999,2780481624
56,18,16,Jits_ISO_5,94,9999,9999,9999,2780981352
56,18,16,Jits_ISO_5,95,9999,9999,9999,2781482072
56,18,16,Jits_ISO_5,96,9999,9999,9999,2781981816
56,18,16,Jits_ISO_5,97,9999,9999,9999,2782481472
56,18,16,Jits_ISO_5,98,9999,9999,9999,2782981208
56,18,16,Jits_ISO_5,99,9999,9999,9999,2783481976
56,18,16,Jits_ISO_5,100,9999,9999,9999,2783981636
56,18,16,Jits_ISO_5,101,9999,9999,9999,2784481384
56,18,16,Jits_ISO_5,102,9999,9999,9999,2784982096
56,18,16,Jits_ISO_5,103,9999,9999,9999,2785492072
56,18,16,Jits_ISO_5,104,9999,9999,9999,2785991732
56,18,16,Jits_ISO_5,105,9999,9999,9999,2786491460
56,18,16,Jits_ISO_5,106,9999,9999,9999,2786991188
56,18,16,Jits_ISO_5,107,9999,9999,9999,2787491892
56,18,16,Jits_ISO_5,108,9999,9999,9999,2787991632
56,18,16,Jits_ISO_5,109,9999,9999,9999,2788491380
56,18,16,Jits_ISO_5,110,9999,9999,9999,2788992104
56,18,16,Jits_ISO_5,111,9999,9999,9999,2789502036
56,18,16,Jits_ISO_5,112,9999,9999,9999,2790001780
56,18,16,Jits_ISO_5,113,9999,9999,9999,2790501444
56,18,16,Jits_ISO_5,114,9999,9999,9999,2791001172
56,18,16,Jits_ISO_5,115,9999,9999,9999,2791501944
56,18,16,Jits_ISO_5,116,9999,9999,9999,2792001604
56,18,16,Jits_ISO_5,117,9999,9999,9999,2792501352
56,18,16,Jits_ISO_5,118,9999,9999,9999,2793002072
56,18,16,Jits_ISO_5,119,9999,9999,9999,2793501800
56,19,7,Jits_ISO_8,0,5,56,103,2802854440
56,19,7,Jits_ISO_8,1,5,63,98,2802857540
56,19,7,Jits_ISO_8,2,5,80,127,2802860512
56,19,7,Jits_ISO_8,0,1,48,53,2803377176
56,19,7,Jits_ISO_8,1,1,48,27,2803436192
56,19,7,Jits_ISO_8,2,5,56,103,2803653948
56,19,7,Jits_ISO_8,3,5,63,98,2803657196
56,19,7,Jits_ISO_8,4,5,80,127,2803660244
56,19,7,Jits_ISO_8,5,1,48,51,2803853384
56,19,7,Jits_ISO_8,0,5,80,127,2804394432
56,19,7,Jits_ISO_8,1,1,48,47,2804412920
56,19,7,Jits_ISO_8,2,5,63,98,2804483468
56,19,7,Jits_ISO_8,3,5,56,103,2804493812
56,19,7,Jits_ISO_8,0,5,56,103,2805213716
56,19,7,Jits_ISO_8,1,5,63,98,2805223836
56,19,7,Jits_ISO_8,2,1,48,51,2805251788
56,19,7,Jits_ISO_8,3,5,80,127,2805313840
56,19,7,Jits_ISO_8,0,5,63,98,2805983468
56,19,7,Jits_ISO_8,1,5,80,127,2806014368
56,19,7,Jits_ISO_8,2,5,56,103,2806044044
56,19,7,Jits_ISO_8,3,1,48,58,2806112720
56,19,7,Jits_ISO_8,0,5,56,103,2806784320
56,19,7,Jits_ISO_8,1,1,48,65,2806824528
56,19,7,Jits_ISO_8,2,5,80,127,2806883668
56,19,7,Jits_ISO_8,3,5,63,98,2806933776
56,19,7,Jits_ISO_8,0,5,56,103,2807584192
56,19,7,Jits_ISO_8,1,1,48,60,2807609932
56,19,7,Jits_ISO_8,2,5,80,127,2807634316
56,19,7,Jits_ISO_8,3,5,63,98,2807674400
56,19,7,Jits_ISO_8,0,1,48,62,2808396308
56,19,7,Jits_ISO_8,1,5,80,127,2808413496
56,19,7,Jits_ISO_8,2,5,63,98,2808444220
56,19,7,Jits_ISO_8,3,5,56,103,2808513960
56,19,7,Jits_ISO_8,0,1,48,66,2809198640
56,19,7,Jits_ISO_8,1,5,63,98,2809244296
56,19,7,Jits_ISO_8,2,5,56,103,2809273824
56,19,7,Jits_ISO_8,3,5,80,127,2809334200
56,19,7,Jits_ISO_8,0,5,56,103,2809984304
56,19,7,Jits_ISO_8,1,5,80,127,2809987368
56,19,7,Jits_ISO_8,2,1,48,59,2810052012
56,19,7,Jits_ISO_8,3,5,63,98,2810104396
56,19,7,Jits_ISO_8,0,5,56,103,2810864180
56,19,7,Jits_ISO_8,1,1,48,71,2810881500
56,19,7,Jits_ISO_8,2,5,80,127,2810904068
56,19,7,Jits_ISO_8,3,5,63,98,2810914336
56,19,7,Jits_ISO_8,0,5,56,103,2811623760
56,19,7,Jits_ISO_8,1,5,80,127,2811644244
56,19,7,Jits_ISO_8,2,1,48,79,2811702360
56,19,7,Jits_ISO_8,3,5,63,98,2811724252
56,19,7,Jits_ISO_8,0,5,80,127,2812414292
56,19,7,Jits_ISO_8,1,5,56,103,2812513792
56,19,7,Jits_ISO_8,2,5,63,98,2812523840
56,19,7,Jits_ISO_8,3,1,48,60,2812543372
56,19,7,Jits_ISO_8,0,5,63,98,2813184576
56,19,7,Jits_ISO_8,1,5,80,127,2813243696
56,19,7,Jits_ISO_8,2,5,56,103,2813254264
56,19,7,Jits_ISO_8,3,1,48,61,2813308324
56,19,7,Jits_ISO_8,0,5,56,103,2813984352
56,19,7,Jits_ISO_8,1,1,48,63,2814016696
56,19,7,Jits_ISO_8,2,5,63,98,2814053808
56,19,7,Jits_ISO_8,3,5,80,127,2814057468
56,19,7,Jits_ISO_8,0,5,63,98,2814813508
56,19,7,Jits_ISO_8,1,1,48,76,2814818268
56,19,7,Jits_ISO_8,2,5,56,103,2814863704
56,19,7,Jits_ISO_8,3,5,80,127,2814866916
56,19,7,Jits_ISO_8,0,5,56,103,2815574236
56,19,7,Jits_ISO_8,1,5,80,127,2815577460
56,19,7,Jits_ISO_8,2,1,48,72,2815654752
56,19,7,Jits_ISO_8,3,5,63,98,2815663544
56,19,7,Jits_ISO_8,0,1,48,52,2816404192
56,19,7,Jits_ISO_8,1,5,63,98,2816414104
56,19,7,Jits_ISO_8,2,5,56,103,2816504304
56,19,7,Jits_ISO_8,3,5,80,127,2816534000
56,19,7,Jits_ISO_8,0,5,56,103,2817203564
56,19,7,Jits_ISO_8,1,1,48,70,2817287992
56,19,7,Jits_ISO_8,2,5,63,98,2817304276
56,19,7,Jits_ISO_8,3,5,80,127,2817333804
56,19,7,Jits_ISO_8,0,5,63,98,2818023892
56,19,7,Jits_ISO_8,1,5,56,103,2818034088
56,19,7,Jits_ISO_8,2,1,48,71,2818064132
56,19,7,Jits_ISO_8,3,5,80,127,2818124240
56,19,7,Jits_ISO_8,0,1,48,64,2818841116
56,19,7,Jits_ISO_8,1,5,63,98,2818844148
56,19,7,Jits_ISO_8,2,5,56,103,2818924020
56,19,7,Jits_ISO_8,3,5,80,127,2818927160
56,19,7,Jits_ISO_8,0,5,80,127,2819603928
56,19,7,Jits_ISO_8,1,5,63,98,2819624240
56,19,7,Jits_ISO_8,2,5,56,103,2819683732
56,19,7,Jits_ISO_8,3,1,48,78,2819695316
56,19,7,Jits_ISO_8,0,5,56,103,2820443508
56,19,7,Jits_ISO_8,1,1,48,81,2820460932
56,19,7,Jits_ISO_8,2,5,63,98,2820464112
56,19,7,Jits_ISO_8,3,5,80,127,2820467400
56,19,7,Jits_ISO_8,0,5,63,98,2821184104
56,19,7,Jits_ISO_8,1,1,48,62,2821253832
56,19,7,Jits_ISO_8,2,5,80,127,2821263972
56,19,7,Jits_ISO_8,3,5,56,103,2821273944
56,19,7,Jits_ISO_8,0,5,63,98,2822004188
56,19,7,Jits_ISO_8,1,5,56,103,2822023676
56,19,7,Jits_ISO_8,2,1,48,70,2822025016
56,19,7,Jits_ISO_8,3,5,80,127,2822073648
56,19,7,Jits_ISO_8,0,5,80,127,2822803820
56,19,7,Jits_ISO_8,1,1,48,79,2822814740
56,19,7,Jits_ISO_8,2,5,63,98,2822843980
56,19,7,Jits_ISO_8,3,5,56,103,2822864216
56,19,7,Jits_ISO_8,0,1,48,79,2823617892
56,19,7,Jits_ISO_8,1,5,56,103,2823643396
56,19,7,Jits_ISO_8,2,5,63,98,2823653816
56,19,7,Jits_ISO_8,3,5,80,127,2823674224
56,19,7,Jits_ISO_8,0,5,56,103,2824373732
56,19,7,Jits_ISO_8,1,1,48,78,2824429816
56,19,7,Jits_ISO_8,2,5,63,98,2824463812
56,19,7,Jits_ISO_8,3,5,80,127,2824524128
56,19,7,Jits_ISO_8,0,5,80,127,2825204172
56,19,7,Jits_ISO_8,1,5,56,103,2825214396
56,19,7,Jits_ISO_8,2,1,48,76,2825226656
56,19,7,Jits_ISO_8,3,5,63,98,2825284068
56,19,7,Jits_ISO_8,0,1,48,67,2826025992
56,19,7,Jits_ISO_8,1,5,63,98,2826033660
56,19,7,Jits_ISO_8,2,5,80,127,2826124080
56,19,7,Jits_ISO_8,3,5,56,103,2826133976
56,19,7,Jits_ISO_8,0,5,63,98,2826774116
56,19,7,Jits_ISO_8,1,5,80,127,2826824020
56,19,7,Jits_ISO_8,2,5,56,103,2826883812
56,19,7,Jits_ISO_8,3,1,48,72,2826884700
56,19,7,Jits_ISO_8,0,5,56,103,2827604312
56,19,7,Jits_ISO_8,1,1,48,67,2827629680
56,19,7,Jits_ISO_8,2,5,80,127,2827653536
56,19,7,Jits_ISO_8,3,5,63,98,2827673920
56,19,7,Jits_ISO_8,0,5,56,103,2828374360
56,19,7,Jits_ISO_8,1,1,48,71,2828413596
56,19,7,Jits_ISO_8,2,5,80,127,2828433848
56,19,7,Jits_ISO_8,3,5,63,98,2828504580
56,19,7,Jits_ISO_8,0,5,56,103,2829174160
56,19,7,Jits_ISO_8,1,5,80,127,2829203988
56,19,7,Jits_ISO_8,2,1,48,78,2829212284
56,19,7,Jits_ISO_8,3,5,63,98,2829233656
56,19,7,Jits_ISO_8,0,5,56,103,2830013960
56,19,7,Jits_ISO_8,1,1,48,78,2830031608
56,19,7,Jits_ISO_8,2,5,80,127,2830034268
56,19,7,Jits_ISO_8,3,5,63,98,2830093860
56,19,7,Jits_ISO_8,0,1,48,77,2830818144
56,19,7,Jits_ISO_8,1,5,80,127,2830893424
56,19,7,Jits_ISO_8,2,5,56,103,2830903992
56,19,7,Jits_ISO_8,3,5,63,98,2830914848
56,19,7,Jits_ISO_8,0,1,48,84,2831646812
56,19,7,Jits_ISO_8,1,5,56,103,2831654180
56,19,7,Jits_ISO_8,2,5,80,127,2831694196
56,19,7,Jits_ISO_8,3,5,63,98,2831723872
56,19,7,Jits_ISO_8,0,5,56,103,2832424232
56,19,7,Jits_ISO_8,1,5,63,98,2832453984
56,19,7,Jits_ISO_8,2,1,48,67,2832482880
56,19,7,Jits_ISO_8,3,5,80,127,2832493988
56,19,7,Jits_ISO_8,0,5,80,127,2833173756
56,19,7,Jits_ISO_8,1,5,63,98,2833224036
56,19,7,Jits_ISO_8,2,5,56,103,2833243520
56,19,7,Jits_ISO_8,3,1,48,71,2833247540
56,19,7,Jits_ISO_8,0,1,48,72,2833953656
56,19,7,Jits_ISO_8,1,5,56,103,2834004332
56,19,7,Jits_ISO_8,2,5,80,127,2834074000
56,19,7,Jits_ISO_8,3,5,63,98,2834134316
56,19,7,Jits_ISO_8,0,1,48,76,2834803296
56,19,7,Jits_ISO_8,1,5,80,127,2834804868
56,19,7,Jits_ISO_8,2,5,63,98,2834894256
56,19,7,Jits_ISO_8,3,5,56,103,2834913800
56,19,7,Jits_ISO_8,0,5,63,98,2835624216
56,19,7,Jits_ISO_8,1,5,56,103,2835643852
56,19,7,Jits_ISO_8,2,1,48,75,2835680228
56,19,7,Jits_ISO_8,3,5,80,127,2835683636
56,19,7,Jits_ISO_8,0,5,80,127,2836384064
56,19,7,Jits_ISO_8,1,5,63,98,2836403776
56,19,7,Jits_ISO_8,2,1,48,76,2836437980
56,19,7,Jits_ISO_8,3,5,56,103,2836483588
56,19,7,Jits_ISO_8,0,5,63,98,2837173596
56,19,7,Jits_ISO_8,1,1,48,67,2837212980
56,19,7,Jits_ISO_8,2,5,56,103,2837284200
56,19,7,Jits_ISO_8,3,5,80,127,2837287192
56,19,7,Jits_ISO_8,0,5,63,98,2837993972
56,19,7,Jits_ISO_8,1,5,56,103,2838004016
56,19,7,Jits_ISO_8,2,1,48,72,2838007156
56,19,7,Jits_ISO_8,3,5,80,127,2838008668
56,19,7,Jits_ISO_8,0,1,48,70,2838729040
56,19,7,Jits_ISO_8,1,5,56,103,2838774104
56,19,7,Jits_ISO_8,2,5,80,127,2838893916
56,19,7,Jits_ISO_8,3,5,63,98,2838933856
56,19,7,Jits_ISO_8,0,5,56,103,2839594448
56,19,7,Jits_ISO_8,1,1,48,82,2839623948
56,19,7,Jits_ISO_8,2,5,80,127,2839674164
56,19,7,Jits_ISO_8,3,5,63,98,2839693800
56,19,7,Jits_ISO_8,0,5,56,103,2840394092
56,19,7,Jits_ISO_8,1,1,48,75,2840475656
56,19,7,Jits_ISO_8,2,5,63,98,2840503776
56,19,7,Jits_ISO_8,3,5,80,127,2840507136
56,19,7,Jits_ISO_8,0,5,56,103,2841223704
56,19,7,Jits_ISO_8,1,1,48,74,2841226896
56,19,7,Jits_ISO_8,2,5,80,127,2841254196
56,19,7,Jits_ISO_8,3,5,63,98,2841273756
56,19,7,Jits_ISO_8,0,1,48,75,2841985112
56,19,7,Jits_ISO_8,1,5,63,98,2842003792
56,19,7,Jits_ISO_8,2,5,56,103,2842014060
56,19,7,Jits_ISO_8,3,5,80,127,2842024480
56,19,7,Jits_ISO_8,0,1,48,79,2842745924
56,19,7,Jits_ISO_8,1,5,80,127,2842794500
56,19,7,Jits_ISO_8,2,5,56,103,2842843640
56,19,7,Jits_ISO_8,3,5,63,98,2842883456
56,19,7,Jits_ISO_8,0,1,48,76,2843570500
56,19,7,Jits_ISO_8,1,5,80,127,2843613688
56,19,7,Jits_ISO_8,2,5,63,98,2843634000
56,19,7,Jits_ISO_8,3,5,56,103,2843684060
56,19,7,Jits_ISO_8,0,1,48,74,2844383408
56,19,7,Jits_ISO_8,1,5,80,127,2844423688
56,19,7,Jits_ISO_8,2,5,56,103,2844454336
56,19,7,Jits_ISO_8,3,5,63,98,2844523856
56,19,7,Jits_ISO_8,0,1,48,59,2845188976
56,19,7,Jits_ISO_8,1,5,56,103,2845273452
56,19,7,Jits_ISO_8,2,5,80,127,2845283648
56,19,7,Jits_ISO_8,3,5,63,98,2845323720
56,19,7,Jits_ISO_8,0,5,56,103,2845984160
56,19,7,Jits_ISO_8,1,5,63,98,2846003428
56,19,7,Jits_ISO_8,2,1,48,65,2846043032
56,19,7,Jits_ISO_8,3,5,80,127,2846074520
56,19,7,Jits_ISO_8,0,1,48,70,2846775676
56,19,7,Jits_ISO_8,1,5,63,98,2846804472
56,19,7,Jits_ISO_8,2,5,80,127,2846863596
56,19,7,Jits_ISO_8,3,5,56,103,2846884560
56,19,7,Jits_ISO_8,0,1,48,77,2847588424
56,19,7,Jits_ISO_8,1,5,80,127,2847593920
56,19,7,Jits_ISO_8,2,5,56,103,2847623524
56,19,7,Jits_ISO_8,3,5,63,98,2847654392
56,19,7,Jits_ISO_8,0,5,56,103,2848393484
56,19,7,Jits_ISO_8,1,1,48,75,2848402756
56,19,7,Jits_ISO_8,2,5,63,98,2848453872
56,19,7,Jits_ISO_8,3,5,80,127,2848514568
56,19,7,Jits_ISO_8,0,1,48,80,2849187624
56,19,7,Jits_ISO_8,1,5,80,127,2849213956
56,19,7,Jits_ISO_8,2,5,56,103,2849234416
56,19,7,Jits_ISO_8,3,5,63,98,2849304180
56,19,7,Jits_ISO_8,0,5,80,127,2850013672
56,19,7,Jits_ISO_8,1,1,48,78,2850030124
56,19,7,Jits_ISO_8,2,5,63,98,2850033904
56,19,7,Jits_ISO_8,3,5,56,103,2850063676
56,19,7,Jits_ISO_8,0,5,80,127,2850803956
56,19,7,Jits_ISO_8,1,5,63,98,2850823468
56,19,7,Jits_ISO_8,2,1,48,73,2850847260
56,19,7,Jits_ISO_8,3,5,56,103,2850883924
56,19,7,Jits_ISO_8,0,5,80,127,2851603704
56,19,7,Jits_ISO_8,1,1,48,75,2851646304
56,19,7,Jits_ISO_8,2,5,56,103,2851704468
56,19,7,Jits_ISO_8,3,5,63,98,2851733848
56,19,7,Jits_ISO_8,0,5,63,98,2852394512
56,19,7,Jits_ISO_8,1,5,80,127,2852443372
56,19,7,Jits_ISO_8,2,5,56,103,2852463904
56,19,7,Jits_ISO_8,3,1,48,53,2852471360
56,19,7,Jits_ISO_8,0,1,48,71,2853208712
56,19,7,Jits_ISO_8,1,5,80,127,2853234216
56,19,7,Jits_ISO_8,2,5,56,103,2853263668
56,19,7,Jits_ISO_8,3,5,63,98,2853266808
56,19,7,Jits_ISO_8,0,1,48,77,2854010960
56,19,7,Jits_ISO_8,1,5,63,98,2854063516
56,19,7,Jits_ISO_8,2,5,56,103,2854104504
56,19,7,Jits_ISO_8,3,5,80,127,2854123752
56,19,7,Jits_ISO_8,0,5,80,127,2854803896
56,19,7,Jits_ISO_8,1,1,48,78,2854861552
56,19,7,Jits_ISO_8,2,5,63,98,2854883764
56,19,7,Jits_ISO_8,3,5,56,103,2854923504
56,19,7,Jits_ISO_8,0,5,63,98,2855624152
56,19,7,Jits_ISO_8,1,1,48,78,2855647280
56,19,7,Jits_ISO_8,2,5,80,127,2855704044
56,19,7,Jits_ISO_8,3,5,56,103,2855724356
56,19,7,Jits_ISO_8,0,1,48,74,2856445736
56,19,7,Jits_ISO_8,1,5,56,103,2856463672
56,19,7,Jits_ISO_8,2,5,63,98,2856474092
56,19,7,Jits_ISO_8,3,5,80,127,2856513956
56,19,7,Jits_ISO_8,0,5,56,103,2857183648
56,19,7,Jits_ISO_8,1,5,80,127,2857186640
56,19,7,Jits_ISO_8,2,1,48,63,2857253696
56,19,7,Jits_ISO_8,3,5,63,98,2857323916
56,19,7,Jits_ISO_8,0,5,56,103,2857974296
56,19,7,Jits_ISO_8,1,1,48,66,2858037200
56,19,7,Jits_ISO_8,2,5,63,98,2858064204
56,19,7,Jits_ISO_8,3,5,80,127,2858134692
56,19,7,Jits_ISO_8,0,1,48,66,2858802320
56,19,7,Jits_ISO_8,1,5,63,98,2858853808
56,19,7,Jits_ISO_8,2,5,80,127,2858857392
56,19,7,Jits_ISO_8,3,5,56,103,2858914256
56,19,7,Jits_ISO_8,0,1,48,69,2859642400
56,19,7,Jits_ISO_8,1,5,80,127,2859693368
56,19,7,Jits_ISO_8,2,5,56,103,2859713756
56,19,7,Jits_ISO_8,3,5,63,98,2859724320
56,19,7,Jits_ISO_8,0,5,56,103,2860404228
56,19,7,Jits_ISO_8,1,5,63,98,2860414352
56,19,7,Jits_ISO_8,2,5,80,127,2860484032
56,19,7,Jits_ISO_8,3,1,48,72,2860503864
56,19,7,Jits_ISO_8,0,5,80,127,2861203728
56,19,7,Jits_ISO_8,1,1,48,64,2861247228
56,19,7,Jits_ISO_8,2,5,56,103,2861254076
56,19,7,Jits_ISO_8,3,5,63,98,2861304152
56,19,7,Jits_ISO_8,0,1,48,69,2862075596
56,19,7,Jits_ISO_8,1,5,56,103,2862083340
56,19,7,Jits_ISO_8,2,5,63,98,2862093760
56,19,7,Jits_ISO_8,3,5,80,127,2862133624
56,19,7,Jits_ISO_8,0,5,56,103,2862824000
56,19,7,Jits_ISO_8,1,1,48,66,2862845132
56,19,7,Jits_ISO_8,2,5,63,98,2862863808
56,19,7,Jits_ISO_8,3,5,80,127,2862914380
56,19,7,Jits_ISO_8,0,5,80,127,2863583568
56,19,7,Jits_ISO_8,1,1,48,68,2863627396
56,19,7,Jits_ISO_8,2,5,56,103,2863633940
56,19,7,Jits_ISO_8,3,5,63,98,2863654324
56,19,7,Jits_ISO_8,0,1,48,65,2864342280
56,19,7,Jits_ISO_8,1,5,80,127,2864393572
56,19,7,Jits_ISO_8,2,5,63,98,2864453948
56,19,7,Jits_ISO_8,3,5,56,103,2864534116
56,19,7,Jits_ISO_8,0,5,80,127,2865174032
56,19,7,Jits_ISO_8,1,5,56,103,2865214048
56,19,7,Jits_ISO_8,2,1,48,76,2865221748
56,19,7,Jits_ISO_8,3,5,63,98,2865234352
56,19,7,Jits_ISO_8,0,1,48,71,2865995144
56,19,7,Jits_ISO_8,1,5,56,103,2866023868
56,19,7,Jits_ISO_8,2,5,80,127,2866034212
56,19,7,Jits_ISO_8,3,5,63,98,2866074076
56,19,7,Jits_ISO_8,0,1,48,66,2866822732
56,19,7,Jits_ISO_8,1,5,56,103,2866894152
56,19,7,Jits_ISO_8,2,5,63,98,2866934552
56,19,7,Jits_ISO_8,3,5,80,127,2866937540
56,19,7,Jits_ISO_8,0,5,63,98,2867584480
56,19,7,Jits_ISO_8,1,5,80,127,2867624348
56,19,7,Jits_ISO_8,2,1,48,68,2867636460
56,19,7,Jits_ISO_8,3,5,56,103,2867693872
56,19,7,Jits_ISO_8,0,5,63,98,2868373996
56,19,7,Jits_ISO_8,1,1,48,60,2868395252
56,19,7,Jits_ISO_8,2,5,56,103,2868453788
56,19,7,Jits_ISO_8,3,5,80,127,2868514116
56,19,7,Jits_ISO_8,0,1,48,53,2869136132
56,19,7,Jits_ISO_8,1,5,80,127,2869183964
56,19,7,Jits_ISO_8,2,5,63,98,2869234076
56,19,7,Jits_ISO_8,3,5,56,103,2869263780
56,19,7,Jits_ISO_8,0,1,48,61,2869963044
56,19,7,Jits_ISO_8,1,5,56,103,2869974304
56,19,7,Jits_ISO_8,2,5,63,98,2870023488
56,19,7,Jits_ISO_8,3,5,80,127,2870033980
56,19,7,Jits_ISO_8,0,1,48,64,2870715312
56,19,7,Jits_ISO_8,1,5,56,103,2870784300
56,19,7,Jits_ISO_8,2,5,63,98,2870893976
56,19,7,Jits_ISO_8,3,5,80,127,2870914284
56,19,7,Jits_ISO_8,0,5,63,98,2871584096
56,19,7,Jits_ISO_8,1,1,48,74,2871590280
56,19,7,Jits_ISO_8,2,5,80,127,2871634216
56,19,7,Jits_ISO_8,3,5,56,103,2871724408
56,19,7,Jits_ISO_8,0,5,63,98,2872373828
56,19,7,Jits_ISO_8,1,5,80,127,2872404404
56,19,7,Jits_ISO_8,2,1,48,78,2872485216
56,19,7,Jits_ISO_8,3,5,56,103,2872493408
56,19,7,Jits_ISO_8,0,5,63,98,2873174512
56,19,7,Jits_ISO_8,1,5,56,103,2873183808
56,19,7,Jits_ISO_8,2,1,48,68,2873244696
56,19,7,Jits_ISO_8,3,5,80,127,2873283900
56,19,7,Jits_ISO_8,0,1,48,66,2874021300
56,19,7,Jits_ISO_8,1,5,63,98,2874073412
56,19,7,Jits_ISO_8,2,5,80,127,2874104236
56,19,7,Jits_ISO_8,3,5,56,103,2874133820
56,19,7,Jits_ISO_8,0,5,80,127,2874893688
56,19,7,Jits_ISO_8,1,5,63,98,2874903884
56,19,7,Jits_ISO_8,2,5,56,103,2874933560
56,19,7,Jits_ISO_8,3,1,48,76,2874946792
56,19,7,Jits_ISO_8,0,5,80,127,2875594044
56,19,7,Jits_ISO_8,1,5,63,98,2875613532
56,19,7,Jits_ISO_8,2,5,56,103,2875663832
56,19,7,Jits_ISO_8,3,1,48,72,2875719016
56,19,7,Jits_ISO_8,0,5,63,98,2876423464
56,19,7,Jits_ISO_8,1,1,48,69,2876447108
56,19,7,Jits_ISO_8,2,5,80,127,2876484072
56,19,7,Jits_ISO_8,3,5,56,103,2876504384
56,19,7,Jits_ISO_8,0,5,63,98,2877184288
56,19,7,Jits_ISO_8,1,5,56,103,2877233740
56,19,7,Jits_ISO_8,2,5,80,127,2877243936
56,19,7,Jits_ISO_8,3,1,48,73,2877266532
56,19,7,Jits_ISO_8,0,5,56,103,2878013736
56,19,7,Jits_ISO_8,1,1,48,62,2878021488
56,19,7,Jits_ISO_8,2,5,80,127,2878024076
56,19,7,Jits_ISO_8,3,5,63,98,2878124456
56,19,7,Jits_ISO_8,0,5,80,127,2878773752
56,19,7,Jits_ISO_8,1,5,63,98,2878783796
56,19,7,Jits_ISO_8,2,1,48,49,2878795604
56,19,7,Jits_ISO_8,3,5,56,103,2878934440
56,19,7,Jits_ISO_8,0,5,63,98,2879583736
56,19,7,Jits_ISO_8,1,1,48,57,2879616744
56,19,7,Jits_ISO_8,2,5,80,127,2879623744
56,19,7,Jits_ISO_8,3,5,56,103,2879704364
56,19,7,Jits_ISO_8,0,5,56,103,2880374080
56,19,7,Jits_ISO_8,1,1,48,61,2880393908
56,19,7,Jits_ISO_8,2,5,80,127,2880473500
56,19,7,Jits_ISO_8,3,5,63,98,2880494168
56,19,7,Jits_ISO_8,0,1,48,57,2881184784
56,19,7,Jits_ISO_8,1,5,80,127,2881234256
56,19,7,Jits_ISO_8,2,5,56,103,2881243704
56,19,7,Jits_ISO_8,3,5,63,98,2881333696
56,19,7,Jits_ISO_8,0,5,56,103,2882033976
56,19,7,Jits_ISO_8,1,1,48,62,2882043568
56,19,7,Jits_ISO_8,2,5,63,98,2882053780
56,19,7,Jits_ISO_8,3,5,80,127,2882134252
56,19,7,Jits_ISO_8,0,5,63,98,2882783728
56,19,7,Jits_ISO_8,1,1,48,62,2882825832
56,19,7,Jits_ISO_8,2,5,56,103,2882873804
56,19,7,Jits_ISO_8,3,5,80,127,2882876872
56,19,7,Jits_ISO_8,0,5,56,103,2883614096
56,19,7,Jits_ISO_8,1,1,48,53,2883624116
56,19,7,Jits_ISO_8,2,5,80,127,2883673660
56,19,7,Jits_ISO_8,3,5,63,98,2883683780
56,19,7,Jits_ISO_8,0,1,48,68,2884385540
56,19,7,Jits_ISO_8,1,5,80,127,2884463936
56,19,7,Jits_ISO_8,2,5,56,103,2884474204
56,19,7,Jits_ISO_8,3,5,63,98,2884477200
56,19,7,Jits_ISO_8,0,1,48,71,2885219176
56,19,7,Jits_ISO_8,1,5,56,103,2885223856
56,19,7,Jits_ISO_8,2,5,80,127,2885233976
56,19,7,Jits_ISO_8,3,5,63,98,2885253760
56,19,7,Jits_ISO_8,0,5,63,98,2885993900
56,19,7,Jits_ISO_8,1,1,48,67,2886030052
56,19,7,Jits_ISO_8,2,5,80,127,2886054284
56,19,7,Jits_ISO_8,3,5,56,103,2886104560
56,19,7,Jits_ISO_8,0,1,48,66,2886820688
56,19,7,Jits_ISO_8,1,5,63,98,2886873620
56,19,7,Jits_ISO_8,2,5,56,103,2886883820
56,19,7,Jits_ISO_8,3,5,80,127,2886933808
56,19,7,Jits_ISO_8,0,5,63,98,2887573844
56,19,7,Jits_ISO_8,1,5,80,127,2887594528
56,19,7,Jits_ISO_8,2,5,56,103,2887603676
56,19,7,Jits_ISO_8,3,1,48,78,2887659008
56,19,7,Jits_ISO_8,0,5,63,98,2888373768
56,19,7,Jits_ISO_8,1,5,80,127,2888376980
56,19,7,Jits_ISO_8,2,1,48,70,2888380704
56,19,7,Jits_ISO_8,3,5,56,103,2888413700
56,19,7,Jits_ISO_8,0,1,48,70,2889140232
56,19,7,Jits_ISO_8,1,5,63,98,2889243892
56,19,7,Jits_ISO_8,2,5,80,127,2889273640
56,19,7,Jits_ISO_8,3,5,56,103,2889283912
56,19,7,Jits_ISO_8,0,1,48,68,2889992368
56,19,7,Jits_ISO_8,1,5,56,103,2889994016
56,19,7,Jits_ISO_8,2,5,80,127,2890024592
56,19,7,Jits_ISO_8,3,5,63,98,2890053968
56,19,7,Jits_ISO_8,0,1,48,71,2890787620
56,19,7,Jits_ISO_8,1,5,63,98,2890893728
56,19,7,Jits_ISO_8,2,5,56,103,2890933740
56,19,7,Jits_ISO_8,3,5,80,127,2890936808
56,19,7,Jits_ISO_8,0,5,80,127,2891593964
56,19,7,Jits_ISO_8,1,1,48,66,2891650716
56,19,7,Jits_ISO_8,2,5,56,103,2891673904
56,19,7,Jits_ISO_8,3,5,63,98,2891724104
56,19,7,Jits_ISO_8,0,5,80,127,2892374504
56,19,7,Jits_ISO_8,1,5,56,103,2892393696
56,19,7,Jits_ISO_8,2,1,48,77,2892479592
56,19,7,Jits_ISO_8,3,5,63,98,2892483892
56,19,7,Jits_ISO_8,0,1,48,73,2893203116
56,19,7,Jits_ISO_8,1,5,80,127,2893214004
56,19,7,Jits_ISO_8,2,5,63,98,2893253868
56,19,7,Jits_ISO_8,3,5,56,103,2893293880
56,19,7,Jits_ISO_8,0,5,63,98,2893984048
56,19,7,Jits_ISO_8,1,1,48,73,2894000348
56,19,7,Jits_ISO_8,2,5,80,127,2894043540
56,19,7,Jits_ISO_8,3,5,56,103,2894074360
56,19,7,Jits_ISO_8,0,1,48,76,2894781088
56,19,7,Jits_ISO_8,1,5,56,103,2894783748
56,19,7,Jits_ISO_8,2,5,80,127,2894813648
56,19,7,Jits_ISO_8,3,5,63,98,2894903716
56,19,7,Jits_ISO_8,0,1,48,83,2895586948
56,19,7,Jits_ISO_8,1,5,56,103,2895593796
56,19,7,Jits_ISO_8,2,5,80,127,2895704320
56,19,7,Jits_ISO_8,3,5,63,98,2895734516
56,19,7,Jits_ISO_8,0,1,48,82,2896433520
56,19,7,Jits_ISO_8,1,5,56,103,2896443660
56,19,7,Jits_ISO_8,2,5,63,98,2896504276
56,19,7,Jits_ISO_8,3,5,80,127,2896533788
56,19,7,Jits_ISO_8,0,5,56,103,2897213788
56,19,7,Jits_ISO_8,1,5,63,98,2897283544
56,19,7,Jits_ISO_8,2,1,48,79,2897291076
56,19,7,Jits_ISO_8,3,5,80,127,2897303776
56,19,7,Jits_ISO_8,0,5,80,127,2897983916
56,19,7,Jits_ISO_8,1,5,63,98,2898004228
56,19,7,Jits_ISO_8,2,5,56,103,2898053456
56,19,7,Jits_ISO_8,3,1,48,62,2898071396
56,19,7,Jits_ISO_8,0,9999,9999,9999,2803251284
56,19,7,Jits_ISO_8,1,9999,9999,9999,2804052040
56,19,7,Jits_ISO_8,2,9999,9999,9999,2804851796
56,19,7,Jits_ISO_8,3,9999,9999,9999,2805651520
56,19,7,Jits_ISO_8,4,9999,9999,9999,2806451316
56,19,7,Jits_ISO_8,5,9999,9999,9999,2807252072
56,19,7,Jits_ISO_8,6,9999,9999,9999,2808051788
56,19,7,Jits_ISO_8,7,9999,9999,9999,2808851532
56,19,7,Jits_ISO_8,8,9999,9999,9999,2809651324
56,19,7,Jits_ISO_8,9,9999,9999,9999,2810452068
56,19,7,Jits_ISO_8,10,9999,9999,9999,2811251800
56,19,7,Jits_ISO_8,11,9999,9999,9999,2812051524
56,19,7,Jits_ISO_8,12,9999,9999,9999,2812851256
56,19,7,Jits_ISO_8,13,9999,9999,9999,2813652024
56,19,7,Jits_ISO_8,14,9999,9999,9999,2814451796
56,19,7,Jits_ISO_8,15,9999,9999,9999,2815251528
56,19,7,Jits_ISO_8,16,9999,9999,9999,2816051296
56,19,7,Jits_ISO_8,17,9999,9999,9999,2816852072
56,19,7,Jits_ISO_8,18,9999,9999,9999,2817651784
56,19,7,Jits_ISO_8,19,9999,9999,9999,2818451508
56,19,7,Jits_ISO_8,20,9999,9999,9999,2819251292
56,19,7,Jits_ISO_8,21,9999,9999,9999,2820052048
56,19,7,Jits_ISO_8,22,9999,9999,9999,2820851836
56,19,7,Jits_ISO_8,23,9999,9999,9999,2821651580
56,19,7,Jits_ISO_8,24,9999,9999,9999,2822451284
56,19,7,Jits_ISO_8,25,9999,9999,9999,2823252040
56,19,7,Jits_ISO_8,26,9999,9999,9999,2824051764
56,19,7,Jits_ISO_8,27,9999,9999,9999,2824851548
56,19,7,Jits_ISO_8,28,9999,9999,9999,2825651272
56,19,7,Jits_ISO_8,29,9999,9999,9999,2826452048
56,19,7,Jits_ISO_8,30,9999,9999,9999,2827251828
56,19,7,Jits_ISO_8,31,9999,9999,9999,2828051556
56,19,7,Jits_ISO_8,32,9999,9999,9999,2828851280
56,19,7,Jits_ISO_8,33,9999,9999,9999,2829652044
56,19,7,Jits_ISO_8,34,9999,9999,9999,2830451768
56,19,7,Jits_ISO_8,35,9999,9999,9999,2831251576
56,19,7,Jits_ISO_8,36,9999,9999,9999,2832051292
56,19,7,Jits_ISO_8,37,9999,9999,9999,2832852048
56,19,7,Jits_ISO_8,38,9999,9999,9999,2833651768
56,19,7,Jits_ISO_8,39,9999,9999,9999,2834451516
56,19,7,Jits_ISO_8,40,9999,9999,9999,2835251300
56,19,7,Jits_ISO_8,41,9999,9999,9999,2836052056
56,19,7,Jits_ISO_8,42,9999,9999,9999,2836851836
56,19,7,Jits_ISO_8,43,9999,9999,9999,2837651548
56,19,7,Jits_ISO_8,44,9999,9999,9999,2838451316
56,19,7,Jits_ISO_8,45,9999,9999,9999,2839252076
56,19,7,Jits_ISO_8,46,9999,9999,9999,2840051784
56,19,7,Jits_ISO_8,47,9999,9999,9999,2840851520
56,19,7,Jits_ISO_8,48,9999,9999,9999,2841651320
56,19,7,Jits_ISO_8,49,9999,9999,9999,2842452084
56,19,7,Jits_ISO_8,50,9999,9999,9999,2843251792
56,19,7,Jits_ISO_8,51,9999,9999,9999,2844051576
56,19,7,Jits_ISO_8,52,9999,9999,9999,2844851288
56,19,7,Jits_ISO_8,53,9999,9999,9999,2845652052
56,19,7,Jits_ISO_8,54,9999,9999,9999,2846451836
56,19,7,Jits_ISO_8,55,9999,9999,9999,2847251580
56,19,7,Jits_ISO_8,56,9999,9999,9999,2848051288
56,19,7,Jits_ISO_8,57,9999,9999,9999,2848852044
56,19,7,Jits_ISO_8,58,9999,9999,9999,2849651772
56,19,7,Jits_ISO_8,59,9999,9999,9999,2850451552
56,19,7,Jits_ISO_8,60,9999,9999,9999,2851251276
56,19,7,Jits_ISO_8,61,9999,9999,9999,2852052052
56,19,7,Jits_ISO_8,62,9999,9999,9999,2852851772
56,19,7,Jits_ISO_8,63,9999,9999,9999,2853651568
56,19,7,Jits_ISO_8,64,9999,9999,9999,2854451284
56,19,7,Jits_ISO_8,65,9999,9999,9999,2855252044
56,19,7,Jits_ISO_8,66,9999,9999,9999,2856051776
56,19,7,Jits_ISO_8,67,9999,9999,9999,2856851564
56,19,7,Jits_ISO_8,68,9999,9999,9999,2857651264
56,19,7,Jits_ISO_8,69,9999,9999,9999,2858452088
56,19,7,Jits_ISO_8,70,9999,9999,9999,2859251808
56,19,7,Jits_ISO_8,71,9999,9999,9999,2860051544
56,19,7,Jits_ISO_8,72,9999,9999,9999,2860851252
56,19,7,Jits_ISO_8,73,9999,9999,9999,2861652024
56,19,7,Jits_ISO_8,74,9999,9999,9999,2862451828
56,19,7,Jits_ISO_8,75,9999,9999,9999,2863251544
56,19,7,Jits_ISO_8,76,9999,9999,9999,2864051264
56,19,7,Jits_ISO_8,77,9999,9999,9999,2864852040
56,19,7,Jits_ISO_8,78,9999,9999,9999,2865651816
56,19,7,Jits_ISO_8,79,9999,9999,9999,2866451564
56,19,7,Jits_ISO_8,80,9999,9999,9999,2867251276
56,19,7,Jits_ISO_8,81,9999,9999,9999,2868052032
56,19,7,Jits_ISO_8,82,9999,9999,9999,2868851812
56,19,7,Jits_ISO_8,83,9999,9999,9999,2869651520
56,19,7,Jits_ISO_8,84,9999,9999,9999,2870451296
56,19,7,Jits_ISO_8,85,9999,9999,9999,2871252060
56,19,7,Jits_ISO_8,86,9999,9999,9999,2872051768
56,19,7,Jits_ISO_8,87,9999,9999,9999,2872851568
56,19,7,Jits_ISO_8,88,9999,9999,9999,2873651276
56,19,7,Jits_ISO_8,89,9999,9999,9999,2874452040
56,19,7,Jits_ISO_8,90,9999,9999,9999,2875251832
56,19,7,Jits_ISO_8,91,9999,9999,9999,2876051552
56,19,7,Jits_ISO_8,92,9999,9999,9999,2876851280
56,19,7,Jits_ISO_8,93,9999,9999,9999,2877652032
56,19,7,Jits_ISO_8,94,9999,9999,9999,2878451816
56,19,7,Jits_ISO_8,95,9999,9999,9999,2879251564
56,19,7,Jits_ISO_8,96,9999,9999,9999,2880051288
56,19,7,Jits_ISO_8,97,9999,9999,9999,2880852044
56,19,7,Jits_ISO_8,98,9999,9999,9999,2881651768
56,19,7,Jits_ISO_8,99,9999,9999,9999,2882451556
56,19,7,Jits_ISO_8,100,9999,9999,9999,2883251268
56,19,7,Jits_ISO_8,101,9999,9999,9999,2884052028
56,19,7,Jits_ISO_8,102,9999,9999,9999,2884851820
56,19,7,Jits_ISO_8,103,9999,9999,9999,2885651552
56,19,7,Jits_ISO_8,104,9999,9999,9999,2886451260
56,19,7,Jits_ISO_8,105,9999,9999,9999,2887252028
56,19,7,Jits_ISO_8,106,9999,9999,9999,2888051800
56,19,7,Jits_ISO_8,107,9999,9999,9999,2888851564
56,19,7,Jits_ISO_8,108,9999,9999,9999,2889651280
56,19,7,Jits_ISO_8,109,9999,9999,9999,2890452028
56,19,7,Jits_ISO_8,110,9999,9999,9999,2891251812
56,19,7,Jits_ISO_8,111,9999,9999,9999,2892051552
56,19,7,Jits_ISO_8,112,9999,9999,9999,2892851268
56,19,7,Jits_ISO_8,113,9999,9999,9999,2893652040
56,19,7,Jits_ISO_8,114,9999,9999,9999,2894451820
56,19,7,Jits_ISO_8,115,9999,9999,9999,2895251528
56,19,7,Jits_ISO_8,116,9999,9999,9999,2896051320
56,19,7,Jits_ISO_8,117,9999,9999,9999,2896852080
56,19,7,Jits_ISO_8,118,9999,9999,9999,2897651800
56,19,7,Jits_ISO_8,119,9999,9999,9999,2898451536
56,20,5,ISIP_5,0,5,42,127,2968165844
56,20,5,ISIP_5,1,5,42,127,2968665636
56,20,5,ISIP_5,2,1,48,41,2968794712
56,20,5,ISIP_5,3,5,42,127,2969166152
56,20,5,ISIP_5,4,1,48,59,2969181468
56,20,5,ISIP_5,5,1,48,66,2969651520
56,20,5,ISIP_5,6,5,42,127,2969665840
56,20,5,ISIP_5,7,1,48,62,2970133712
56,20,5,ISIP_5,8,5,42,127,2970165832
56,20,5,ISIP_5,9,5,42,127,2970666432
56,20,5,ISIP_5,10,1,48,60,2970677928
56,20,5,ISIP_5,11,1,48,63,2971155240
56,20,5,ISIP_5,12,5,42,127,2971165972
56,20,5,ISIP_5,13,1,48,62,2971642224
56,20,5,ISIP_5,14,5,42,127,2971665744
56,20,5,ISIP_5,15,1,48,58,2972148648
56,20,5,ISIP_5,16,5,42,127,2972165664
56,20,5,ISIP_5,17,1,48,53,2972625060
56,20,5,ISIP_5,18,5,42,127,2972666328
56,20,5,ISIP_5,19,1,48,54,2973099324
56,20,5,ISIP_5,20,5,42,127,2973165924
56,20,5,ISIP_5,21,1,48,57,2973641548
56,20,5,ISIP_5,22,5,42,127,2973665596
56,20,5,ISIP_5,23,1,48,59,2974144312
56,20,5,ISIP_5,24,5,42,127,2974166488
56,20,5,ISIP_5,25,1,48,56,2974635260
56,20,5,ISIP_5,26,5,42,127,2974666032
56,20,5,ISIP_5,27,1,48,55,2975112516
56,20,5,ISIP_5,28,5,42,127,2975165728
56,20,5,ISIP_5,29,1,48,24,2975185212
56,20,5,ISIP_5,30,1,48,47,2975621388
56,20,5,ISIP_5,31,5,42,127,2975665624
56,20,5,ISIP_5,32,1,48,57,2976145836
56,20,5,ISIP_5,33,5,42,127,2976166216
56,20,5,ISIP_5,34,1,48,57,2976630424
56,20,5,ISIP_5,35,5,42,127,2976665984
56,20,5,ISIP_5,36,1,48,54,2977142164
56,20,5,ISIP_5,37,5,42,127,2977165608
56,20,5,ISIP_5,38,1,48,52,2977639912
56,20,5,ISIP_5,39,5,42,127,2977666420
56,20,5,ISIP_5,40,1,48,56,2978141924
56,20,5,ISIP_5,41,5,42,127,2978166264
56,20,5,ISIP_5,42,1,48,50,2978620224
56,20,5,ISIP_5,43,5,42,127,2978665812
56,20,5,ISIP_5,44,1,48,52,2979152384
56,20,5,ISIP_5,45,5,42,127,2979165580
56,20,5,ISIP_5,46,1,48,48,2979632484
56,20,5,ISIP_5,47,5,42,127,2979666324
56,20,5,ISIP_5,48,1,48,44,2980164672
56,20,5,ISIP_5,49,5,42,127,2980166092
56,20,5,ISIP_5,50,1,48,43,2980615416
56,20,5,ISIP_5,51,5,42,127,2980665712
56,20,5,ISIP_5,52,1,48,50,2981138748
56,20,5,ISIP_5,53,5,42,127,2981165408
56,20,5,ISIP_5,54,5,42,127,2981666228
56,20,5,ISIP_5,55,1,48,48,2981681092
56,20,5,ISIP_5,56,1,48,48,2982146960
56,20,5,ISIP_5,57,5,42,127,2982165920
56,20,5,ISIP_5,58,1,48,45,2982632048
56,20,5,ISIP_5,59,5,42,127,2982665612
56,20,5,ISIP_5,60,1,48,53,2983143404
56,20,5,ISIP_5,61,5,42,127,2983166280
56,20,5,ISIP_5,62,1,48,55,2983649760
56,20,5,ISIP_5,63,5,42,127,2983666124
56,20,5,ISIP_5,64,5,42,127,2984165728
56,20,5,ISIP_5,65,1,48,58,2984168396
56,20,5,ISIP_5,66,1,48,57,2984632544
56,20,5,ISIP_5,67,5,42,127,2984665488
56,20,5,ISIP_5,68,1,48,58,2985147500
56,20,5,ISIP_5,69,5,42,127,2985166452
56,20,5,ISIP_5,70,1,48,55,2985656016
56,20,5,ISIP_5,71,5,42,127,2985665852
56,20,5,ISIP_5,72,1,48,54,2986133580
56,20,5,ISIP_5,73,5,42,127,2986165476
56,20,5,ISIP_5,74,1,48,54,2986632300
56,20,5,ISIP_5,75,5,42,127,2986666440
56,20,5,ISIP_5,76,1,48,53,2987146052
56,20,5,ISIP_5,77,5,42,127,2987166280
56,20,5,ISIP_5,78,1,48,49,2987619192
56,20,5,ISIP_5,79,5,42,127,2987665680
56,20,5,ISIP_5,80,1,48,50,2988131008
56,20,5,ISIP_5,81,1,48,57,2988635108
56,20,5,ISIP_5,82,1,48,53,2989103316
56,20,5,ISIP_5,83,1,48,54,2989598440
56,20,5,ISIP_5,84,1,48,52,2990111740
56,20,5,ISIP_5,85,1,48,53,2990614276
56,20,5,ISIP_5,86,1,48,55,2991119200
56,20,5,ISIP_5,87,1,48,46,2991616204
56,20,5,ISIP_5,88,1,48,48,2992137736
56,20,5,ISIP_5,89,1,48,50,2992619000
56,20,5,ISIP_5,90,1,48,48,2993143472
56,20,5,ISIP_5,91,1,48,49,2993620328
56,20,5,ISIP_5,92,1,48,49,2994109096
56,20,5,ISIP_5,93,1,48,37,2994595696
56,20,5,ISIP_5,94,1,48,50,2995070332
56,20,5,ISIP_5,95,1,48,51,2995563816
56,20,5,ISIP_5,96,1,48,51,2996057672
56,20,5,ISIP_5,97,1,48,54,2996564692
56,20,5,ISIP_5,98,1,48,53,2997064084
56,20,5,ISIP_5,99,1,48,50,2997576788
56,20,5,ISIP_5,100,1,48,51,2998066152
56,20,5,ISIP_5,101,1,48,40,2998547672
56,20,5,ISIP_5,102,1,48,46,2999044744
56,20,5,ISIP_5,103,1,48,41,2999548028
56,20,5,ISIP_5,104,1,48,49,3000032056
56,20,5,ISIP_5,105,1,48,49,3000532124
56,20,5,ISIP_5,106,1,48,46,3001005632
56,20,5,ISIP_5,107,1,48,48,3001498440
56,20,5,ISIP_5,108,1,48,38,3001988780
56,20,5,ISIP_5,109,1,48,40,3002507844
56,20,5,ISIP_5,110,1,48,41,3002990480
56,20,5,ISIP_5,111,1,48,46,3003455388
56,20,5,ISIP_5,112,1,48,42,3003944608
56,20,5,ISIP_5,113,1,48,40,3004460456
56,20,5,ISIP_5,114,1,48,40,3004935392
56,20,5,ISIP_5,115,1,48,42,3005449064
56,20,5,ISIP_5,116,1,48,44,3005986604
56,20,5,ISIP_5,117,1,48,42,3006460864
56,20,5,ISIP_5,118,1,48,51,3006987932
56,20,5,ISIP_5,119,1,48,48,3007471772
56,20,5,ISIP_5,120,1,48,46,3007996292
56,20,5,ISIP_5,121,1,48,38,3008495156
56,20,5,ISIP_5,122,1,48,46,3008982560
56,20,5,ISIP_5,123,1,48,40,3009470204
56,20,5,ISIP_5,124,1,48,41,3009972740
56,20,5,ISIP_5,125,1,48,50,3010467712
56,20,5,ISIP_5,126,1,48,51,3010964788
56,20,5,ISIP_5,127,1,48,48,3011470088
56,20,5,ISIP_5,128,1,48,46,3011963868
56,20,5,ISIP_5,129,1,48,49,3012455180
56,20,5,ISIP_5,130,1,48,50,3012959208
56,20,5,ISIP_5,131,1,48,48,3013472216
56,20,5,ISIP_5,132,1,48,49,3013972580
56,20,5,ISIP_5,133,1,48,42,3014484908
56,20,5,ISIP_5,134,1,48,47,3014981840
56,20,5,ISIP_5,135,1,48,49,3015490500
56,20,5,ISIP_5,136,1,48,39,3015993412
56,20,5,ISIP_5,137,1,48,47,3016485544
56,20,5,ISIP_5,138,1,48,44,3017007072
56,20,5,ISIP_5,139,1,48,49,3017489188
56,20,5,ISIP_5,140,1,48,44,3017992096
56,20,5,ISIP_5,141,1,48,48,3018509740
56,20,5,ISIP_5,142,1,48,43,3018995892
56,20,5,ISIP_5,143,1,48,51,3019495564
56,20,5,ISIP_5,144,1,48,49,3020015996
56,20,5,ISIP_5,145,1,48,50,3020499280
56,20,5,ISIP_5,146,1,48,40,3020987824
56,20,5,ISIP_5,147,1,48,40,3021499328
56,20,5,ISIP_5,148,1,48,47,3021992592
56,20,5,ISIP_5,149,1,48,43,3022516664
56,20,5,ISIP_5,150,1,48,45,3023022788
56,20,5,ISIP_5,151,1,48,46,3023515520
56,20,5,ISIP_5,152,1,48,49,3024027624
56,20,5,ISIP_5,153,1,48,50,3024537796
56,20,5,ISIP_5,154,1,48,46,3025027980
56,20,5,ISIP_5,155,1,48,47,3025518924
56,20,5,ISIP_5,156,1,48,43,3026015472
56,20,5,ISIP_5,157,1,48,46,3026510076
56,20,5,ISIP_5,158,1,48,40,3026989796
56,20,5,ISIP_5,159,1,48,50,3027492256
56,20,5,ISIP_5,160,1,48,49,3027963972
56,20,5,ISIP_5,161,1,48,53,3028481388
56,20,5,ISIP_5,162,1,48,50,3029000380
56,20,5,ISIP_5,163,1,48,50,3029491844
56,20,5,ISIP_5,164,1,48,51,3029968020
56,20,5,ISIP_5,165,1,48,51,3030503544
56,20,5,ISIP_5,166,1,48,55,3030970244
56,20,5,ISIP_5,167,1,48,52,3031490804
56,20,5,ISIP_5,168,1,48,53,3032009416
56,20,5,ISIP_5,169,1,48,48,3032503428
56,20,5,ISIP_5,170,1,48,62,3033004088
56,20,5,ISIP_5,171,1,48,59,3033475504
56,20,5,ISIP_5,172,1,48,61,3033974592
56,20,5,ISIP_5,173,1,48,57,3034469344
56,20,5,ISIP_5,174,1,48,59,3034960140
56,20,5,ISIP_5,175,1,48,52,3035459008
56,20,5,ISIP_5,176,1,48,54,3035926308
56,20,5,ISIP_5,177,1,48,57,3036433032
56,20,5,ISIP_5,178,1,48,53,3036939532
56,20,5,ISIP_5,179,1,48,57,3037400600
56,20,5,ISIP_5,180,1,48,56,3037853612
56,20,5,ISIP_5,181,1,48,54,3038368340
56,20,5,ISIP_5,182,1,48,48,3038892416
56,20,5,ISIP_5,183,1,48,52,3039347976
56,20,5,ISIP_5,184,1,48,57,3039838464
56,20,5,ISIP_5,185,1,48,52,3040352064
56,20,5,ISIP_5,186,1,48,56,3040832160
56,20,5,ISIP_5,187,1,48,50,3041340904
56,20,5,ISIP_5,188,1,48,52,3041830568
56,20,5,ISIP_5,189,1,48,54,3042292188
56,20,5,ISIP_5,190,1,48,59,3042787368
56,20,5,ISIP_5,191,1,48,56,3043294984
56,20,5,ISIP_5,192,1,48,61,3043780536
56,20,5,ISIP_5,193,1,48,54,3044295940
56,20,5,ISIP_5,194,1,48,47,3044780592
56,20,5,ISIP_5,195,1,48,55,3045273928
56,20,5,ISIP_5,196,1,48,50,3045781848
56,20,5,ISIP_5,197,1,48,59,3046266496
56,20,5,ISIP_5,198,1,48,57,3046773220
56,20,5,ISIP_5,199,1,48,49,3047233868
56,20,5,ISIP_5,200,1,48,45,3047745448
56,20,5,ISIP_5,0,9999,9999,9999,2968163408
56,20,5,ISIP_5,1,9999,9999,9999,2968663124
56,20,5,ISIP_5,2,9999,9999,9999,2969163864
56,20,5,ISIP_5,3,9999,9999,9999,2969663552
56,20,5,ISIP_5,4,9999,9999,9999,2970163248
56,20,5,ISIP_5,5,9999,9999,9999,2970663996
56,20,5,ISIP_5,6,9999,9999,9999,2971163760
56,20,5,ISIP_5,7,9999,9999,9999,2971663456
56,20,5,ISIP_5,8,9999,9999,9999,2972163152
56,20,5,ISIP_5,9,9999,9999,9999,2972663892
56,20,5,ISIP_5,10,9999,9999,9999,2973163636
56,20,5,ISIP_5,11,9999,9999,9999,2973663308
56,20,5,ISIP_5,12,9999,9999,9999,2974164052
56,20,5,ISIP_5,13,9999,9999,9999,2974663748
56,20,5,ISIP_5,14,9999,9999,9999,2975163440
56,20,5,ISIP_5,15,9999,9999,9999,2975663188
56,20,5,ISIP_5,16,9999,9999,9999,2976163932
56,20,5,ISIP_5,17,9999,9999,9999,2976663624
56,20,5,ISIP_5,18,9999,9999,9999,2977163320
56,20,5,ISIP_5,19,9999,9999,9999,2977664060
56,20,5,ISIP_5,20,9999,9999,9999,2978163832
56,20,5,ISIP_5,21,9999,9999,9999,2978663528
56,20,5,ISIP_5,22,9999,9999,9999,2979163220
56,20,5,ISIP_5,23,9999,9999,9999,2979663960
56,20,5,ISIP_5,24,9999,9999,9999,2980163664
56,20,5,ISIP_5,25,9999,9999,9999,2980663352
56,20,5,ISIP_5,26,9999,9999,9999,2981163124
56,20,5,ISIP_5,27,9999,9999,9999,2981663796
56,20,5,ISIP_5,28,9999,9999,9999,2982163560
56,20,5,ISIP_5,29,9999,9999,9999,2982663252
56,20,5,ISIP_5,30,9999,9999,9999,2983163992
56,20,5,ISIP_5,31,9999,9999,9999,2983663688
56,20,5,ISIP_5,32,9999,9999,9999,2984163440
56,20,5,ISIP_5,33,9999,9999,9999,2984663128
56,20,5,ISIP_5,34,9999,9999,9999,2985163872
56,20,5,ISIP_5,35,9999,9999,9999,2985663564
56,20,5,ISIP_5,36,9999,9999,9999,2986163264
56,20,5,ISIP_5,37,9999,9999,9999,2986664004
56,20,5,ISIP_5,38,9999,9999,9999,2987163696
56,20,5,ISIP_5,39,9999,9999,9999,2987663468
56,20,5,ISIP_5,40,9999,9999,9999,2988163164
56,20,5,ISIP_5,41,9999,9999,9999,2988663900
56,20,5,ISIP_5,42,9999,9999,9999,2989163592
56,20,5,ISIP_5,43,9999,9999,9999,2989663280
56,20,5,ISIP_5,44,9999,9999,9999,2990164020
56,20,5,ISIP_5,45,9999,9999,9999,2990663784
56,20,5,ISIP_5,46,9999,9999,9999,2991163476
56,20,5,ISIP_5,47,9999,9999,9999,2991663164
56,20,5,ISIP_5,48,9999,9999,9999,2992163904
56,20,5,ISIP_5,49,9999,9999,9999,2992663668
56,20,5,ISIP_5,50,9999,9999,9999,2993163360
56,20,5,ISIP_5,51,9999,9999,9999,2993664096
56,20,5,ISIP_5,52,9999,9999,9999,2994163788
56,20,5,ISIP_5,53,9999,9999,9999,2994663532
56,20,5,ISIP_5,54,9999,9999,9999,2995163224
56,20,5,ISIP_5,55,9999,9999,9999,2995663944
56,20,5,ISIP_5,56,9999,9999,9999,2996163636
56,20,5,ISIP_5,57,9999,9999,9999,2996663400
56,20,5,ISIP_5,58,9999,9999,9999,2997163092
56,20,5,ISIP_5,59,9999,9999,9999,2997663844
56,20,5,ISIP_5,60,9999,9999,9999,2998163520
56,20,5,ISIP_5,61,9999,9999,9999,2998663284
56,20,5,ISIP_5,62,9999,9999,9999,2999164020
56,20,5,ISIP_5,63,9999,9999,9999,2999663712
56,20,5,ISIP_5,64,9999,9999,9999,3000163404
56,20,5,ISIP_5,65,9999,9999,9999,3000663096
56,20,5,ISIP_5,66,9999,9999,9999,3001163832
56,20,5,ISIP_5,67,9999,9999,9999,3001663596
56,20,5,ISIP_5,68,9999,9999,9999,3002163288
56,20,5,ISIP_5,69,9999,9999,9999,3002664024
56,20,5,ISIP_5,70,9999,9999,9999,3003163712
56,20,5,ISIP_5,71,9999,9999,9999,3003663480
56,20,5,ISIP_5,72,9999,9999,9999,3004163172
56,20,5,ISIP_5,73,9999,9999,9999,3004663908
56,20,5,ISIP_5,74,9999,9999,9999,3005163576
56,20,5,ISIP_5,75,9999,9999,9999,3005663340
56,20,5,ISIP_5,76,9999,9999,9999,3006164076
56,20,5,ISIP_5,77,9999,9999,9999,3006663768
56,20,5,ISIP_5,78,9999,9999,9999,3007163460
56,20,5,ISIP_5,79,9999,9999,9999,3007663224
56,20,5,ISIP_5,80,9999,9999,9999,3008163888
56,20,5,ISIP_5,81,9999,9999,9999,3008663652
56,20,5,ISIP_5,82,9999,9999,9999,3009163344
56,20,5,ISIP_5,83,9999,9999,9999,3009664080
56,20,5,ISIP_5,84,9999,9999,9999,3010163772
56,20,5,ISIP_5,85,9999,9999,9999,3010663536
56,20,5,ISIP_5,86,9999,9999,9999,3011163228
56,20,5,ISIP_5,87,9999,9999,9999,3011663964
56,20,5,ISIP_5,88,9999,9999,9999,3012163656
56,20,5,ISIP_5,89,9999,9999,9999,3012663348
56,20,5,ISIP_5,90,9999,9999,9999,3013163112
56,20,5,ISIP_5,91,9999,9999,9999,3013663848
56,20,5,ISIP_5,92,9999,9999,9999,3014163540
56,20,5,ISIP_5,93,9999,9999,9999,3014663232
56,20,5,ISIP_5,94,9999,9999,9999,3015163968
56,20,5,ISIP_5,95,9999,9999,9999,3015663736
56,20,5,ISIP_5,96,9999,9999,9999,3016163400
56,20,5,ISIP_5,97,9999,9999,9999,3016663092
56,20,5,ISIP_5,98,9999,9999,9999,3017163828
56,20,5,ISIP_5,99,9999,9999,9999,3017663596
56,20,5,ISIP_5,100,9999,9999,9999,3018163288
56,20,5,ISIP_5,101,9999,9999,9999,3018664024
56,20,5,ISIP_5,102,9999,9999,9999,3019163716
56,20,5,ISIP_5,103,9999,9999,9999,3019663480
56,20,5,ISIP_5,104,9999,9999,9999,3020163172
56,20,5,ISIP_5,105,9999,9999,9999,3020663908
56,20,5,ISIP_5,106,9999,9999,9999,3021163600
56,20,5,ISIP_5,107,9999,9999,9999,3021663288
56,20,5,ISIP_5,108,9999,9999,9999,3022164028
56,20,5,ISIP_5,109,9999,9999,9999,3022663796
56,20,5,ISIP_5,110,9999,9999,9999,3023163484
56,20,5,ISIP_5,111,9999,9999,9999,3023663176
56,20,5,ISIP_5,112,9999,9999,9999,3024163912
56,20,5,ISIP_5,113,9999,9999,9999,3024663604
56,20,5,ISIP_5,114,9999,9999,9999,3025163368
56,20,5,ISIP_5,115,9999,9999,9999,3025664104
56,20,5,ISIP_5,116,9999,9999,9999,3026163796
56,20,5,ISIP_5,117,9999,9999,9999,3026663536
56,20,5,ISIP_5,118,9999,9999,9999,3027163228
56,20,5,ISIP_5,119,9999,9999,9999,3027663964
56,20,5,ISIP_5,120,9999,9999,9999,3028163656
56,20,5,ISIP_5,121,9999,9999,9999,3028663348
56,20,5,ISIP_5,122,9999,9999,9999,3029163112
56,20,5,ISIP_5,123,9999,9999,9999,3029663848
56,20,5,ISIP_5,124,9999,9999,9999,3030163544
56,20,5,ISIP_5,125,9999,9999,9999,3030663236
56,20,5,ISIP_5,126,9999,9999,9999,3031163972
56,20,5,ISIP_5,127,9999,9999,9999,3031663736
56,20,5,ISIP_5,128,9999,9999,9999,3032163428
56,20,5,ISIP_5,129,9999,9999,9999,3032663116
56,20,5,ISIP_5,130,9999,9999,9999,3033163856
56,20,5,ISIP_5,131,9999,9999,9999,3033663544
56,20,5,ISIP_5,132,9999,9999,9999,3034163312
56,20,5,ISIP_5,133,9999,9999,9999,3034664048
56,20,5,ISIP_5,134,9999,9999,9999,3035163740
56,20,5,ISIP_5,135,9999,9999,9999,3035663428
56,20,5,ISIP_5,136,9999,9999,9999,3036163120
56,20,5,ISIP_5,137,9999,9999,9999,3036663856
56,20,5,ISIP_5,138,9999,9999,9999,3037163600
56,20,5,ISIP_5,139,9999,9999,9999,3037663288
56,20,5,ISIP_5,140,9999,9999,9999,3038164024
56,20,5,ISIP_5,141,9999,9999,9999,3038663792
56,20,5,ISIP_5,142,9999,9999,9999,3039163480
56,20,5,ISIP_5,143,9999,9999,9999,3039663172
56,20,5,ISIP_5,144,9999,9999,9999,3040163908
56,20,5,ISIP_5,145,9999,9999,9999,3040663600
56,20,5,ISIP_5,146,9999,9999,9999,3041163364
56,20,5,ISIP_5,147,9999,9999,9999,3041664104
56,20,5,ISIP_5,148,9999,9999,9999,3042163796
56,20,5,ISIP_5,149,9999,9999,9999,3042663488
56,20,5,ISIP_5,150,9999,9999,9999,3043163252
56,20,5,ISIP_5,151,9999,9999,9999,3043663988
56,20,5,ISIP_5,152,9999,9999,9999,3044163680
56,20,5,ISIP_5,153,9999,9999,9999,3044663368
56,20,5,ISIP_5,154,9999,9999,9999,3045163060
56,20,5,ISIP_5,155,9999,9999,9999,3045663796
56,20,5,ISIP_5,156,9999,9999,9999,3046163560
56,20,5,ISIP_5,157,9999,9999,9999,3046663252
56,20,5,ISIP_5,158,9999,9999,9999,3047163988
56,20,5,ISIP_5,159,9999,9999,9999,3047663680
56,21,3,ISIP_8,0,5,42,127,3069439508
56,21,3,ISIP_8,1,1,48,52,3070003960
56,21,3,ISIP_8,2,5,42,127,3070239240
56,21,3,ISIP_8,3,1,48,59,3070902580
56,21,3,ISIP_8,4,5,42,127,3071038824
56,21,3,ISIP_8,5,1,48,63,3071778032
56,21,3,ISIP_8,6,5,42,127,3071838648
56,21,3,ISIP_8,7,1,48,58,3072614640
56,21,3,ISIP_8,8,5,42,127,3072639500
56,21,3,ISIP_8,9,1,48,54,3073429636
56,21,3,ISIP_8,10,5,42,127,3073438940
56,21,3,ISIP_8,11,1,48,68,3074185240
56,21,3,ISIP_8,12,5,42,127,3074238752
56,21,3,ISIP_8,13,1,48,67,3075008080
56,21,3,ISIP_8,14,5,42,127,3075038632
56,21,3,ISIP_8,15,1,48,59,3075821156
56,21,3,ISIP_8,16,5,42,127,3075839364
56,21,3,ISIP_8,17,1,48,63,3076590824
56,21,3,ISIP_8,18,5,42,127,3076639172
56,21,3,ISIP_8,19,1,48,56,3077399452
56,21,3,ISIP_8,20,5,42,127,3077438832
56,21,3,ISIP_8,21,1,48,51,3078168444
56,21,3,ISIP_8,22,5,42,127,3078238640
56,21,3,ISIP_8,23,1,48,57,3078973416
56,21,3,ISIP_8,24,5,42,127,3079039420
56,21,3,ISIP_8,25,1,48,58,3079746296
56,21,3,ISIP_8,26,5,42,127,3079839080
56,21,3,ISIP_8,27,1,48,53,3080541472
56,21,3,ISIP_8,28,5,42,127,3080638724
56,21,3,ISIP_8,29,1,48,54,3081361476
56,21,3,ISIP_8,30,5,42,127,3081438624
56,21,3,ISIP_8,31,1,48,59,3082155744
56,21,3,ISIP_8,32,5,42,127,3082239352
56,21,3,ISIP_8,33,1,48,59,3083006736
56,21,3,ISIP_8,34,5,42,127,3083039084
56,21,3,ISIP_8,35,1,48,63,3083798172
56,21,3,ISIP_8,36,5,42,127,3083838744
56,21,3,ISIP_8,37,1,48,61,3084612716
56,21,3,ISIP_8,38,5,42,127,3084638552
56,21,3,ISIP_8,39,1,48,66,3085392180
56,21,3,ISIP_8,40,5,42,127,3085439332
56,21,3,ISIP_8,41,1,48,55,3086212108
56,21,3,ISIP_8,42,5,42,127,3086239288
56,21,3,ISIP_8,43,1,48,54,3087035552
56,21,3,ISIP_8,44,5,42,127,3087038800
56,21,3,ISIP_8,45,1,48,61,3087795188
56,21,3,ISIP_8,46,5,42,127,3087838608
56,21,3,ISIP_8,47,1,48,50,3088572260
56,21,3,ISIP_8,48,5,42,127,3088639188
56,21,3,ISIP_8,49,1,48,68,3089411740
56,21,3,ISIP_8,50,5,42,127,3089439296
56,21,3,ISIP_8,51,1,48,53,3090199504
56,21,3,ISIP_8,52,5,42,127,3090239032
56,21,3,ISIP_8,53,1,48,56,3091013076
56,21,3,ISIP_8,54,5,42,127,3091038540
56,21,3,ISIP_8,55,1,48,59,3091802788
56,21,3,ISIP_8,56,5,42,127,3091839320
56,21,3,ISIP_8,57,1,48,44,3092627348
56,21,3,ISIP_8,58,5,42,127,3092639128
56,21,3,ISIP_8,59,1,48,51,3093385196
56,21,3,ISIP_8,60,1,48,58,3094140348
56,21,3,ISIP_8,61,1,48,54,3094941200
56,21,3,ISIP_8,62,1,48,51,3095752300
56,21,3,ISIP_8,63,1,48,57,3096503412
56,21,3,ISIP_8,64,1,48,54,3097260204
56,21,3,ISIP_8,65,1,48,52,3097998896
56,21,3,ISIP_8,66,1,48,54,3098770200
56,21,3,ISIP_8,67,1,48,57,3099556240
56,21,3,ISIP_8,68,1,48,59,3100343928
56,21,3,ISIP_8,69,1,48,59,3101106480
56,21,3,ISIP_8,70,1,48,55,3101874720
56,21,3,ISIP_8,71,1,48,58,3102622016
56,21,3,ISIP_8,72,1,48,38,3103397136
56,21,3,ISIP_8,73,1,48,52,3104128648
56,21,3,ISIP_8,74,1,48,55,3104886268
56,21,3,ISIP_8,75,1,48,62,3105690260
56,21,3,ISIP_8,76,1,48,60,3106447276
56,21,3,ISIP_8,77,1,48,59,3107227332
56,21,3,ISIP_8,78,1,48,63,3107963560
56,21,3,ISIP_8,79,1,48,50,3108721780
56,21,3,ISIP_8,80,1,48,54,3109517164
56,21,3,ISIP_8,81,1,48,54,3110242628
56,21,3,ISIP_8,82,1,48,48,3110951756
56,21,3,ISIP_8,83,1,48,57,3111707280
56,21,3,ISIP_8,84,1,48,58,3112422388
56,21,3,ISIP_8,85,1,48,59,3113153680
56,21,3,ISIP_8,86,1,48,56,3113904040
56,21,3,ISIP_8,87,1,48,60,3114621420
56,21,3,ISIP_8,88,1,48,65,3115374776
56,21,3,ISIP_8,89,1,48,67,3116127976
56,21,3,ISIP_8,90,1,48,66,3116883876
56,21,3,ISIP_8,91,1,48,63,3117624516
56,21,3,ISIP_8,92,1,48,70,3118370612
56,21,3,ISIP_8,93,1,48,68,3119119856
56,21,3,ISIP_8,94,1,48,64,3119839676
56,21,3,ISIP_8,95,1,48,69,3120602220
56,21,3,ISIP_8,96,1,48,66,3121346368
56,21,3,ISIP_8,97,1,48,66,3122077132
56,21,3,ISIP_8,98,1,48,69,3122801244
56,21,3,ISIP_8,99,1,48,66,3123566940
56,21,3,ISIP_8,100,1,48,65,3124364352
56,21,3,ISIP_8,101,1,48,70,3125102592
56,21,3,ISIP_8,102,1,48,61,3125826852
56,21,3,ISIP_8,103,1,48,67,3126604736
56,21,3,ISIP_8,104,1,48,68,3127362508
56,21,3,ISIP_8,105,1,48,68,3128135760
56,21,3,ISIP_8,106,1,48,68,3128871832
56,21,3,ISIP_8,107,1,48,61,3129659968
56,21,3,ISIP_8,108,1,48,69,3130403452
56,21,3,ISIP_8,109,1,48,20,3130784248
56,21,3,ISIP_8,110,1,48,64,3131412620
56,21,3,ISIP_8,111,1,48,53,3132141436
56,21,3,ISIP_8,112,1,48,62,3132890356
56,21,3,ISIP_8,113,1,48,63,3133616028
56,21,3,ISIP_8,114,1,48,66,3134342684
56,21,3,ISIP_8,115,1,48,63,3135078536
56,21,3,ISIP_8,116,1,48,63,3135804276
56,21,3,ISIP_8,117,1,48,62,3136560476
56,21,3,ISIP_8,118,1,48,68,3137255184
56,21,3,ISIP_8,119,1,48,64,3137970144
56,21,3,ISIP_8,120,1,48,66,3138705996
56,21,3,ISIP_8,121,1,48,65,3139457928
56,21,3,ISIP_8,122,1,48,65,3140181736
56,21,3,ISIP_8,123,1,48,63,3140913180
56,21,3,ISIP_8,124,1,48,63,3141620760
56,21,3,ISIP_8,125,1,48,60,3142364512
56,21,3,ISIP_8,126,1,48,63,3143058100
56,21,3,ISIP_8,127,1,48,68,3143793416
56,21,3,ISIP_8,128,1,48,62,3144492840
56,21,3,ISIP_8,129,1,48,59,3145238720
56,21,3,ISIP_8,130,1,48,67,3145953900
56,21,3,ISIP_8,131,1,48,61,3146659084
56,21,3,ISIP_8,132,1,48,65,3147399120
56,21,3,ISIP_8,133,1,48,64,3148101392
56,21,3,ISIP_8,134,1,48,65,3148848392
56,21,3,ISIP_8,135,1,48,73,3149543628
56,21,3,ISIP_8,136,1,48,70,3150467592
56,21,3,ISIP_8,137,1,48,52,3151129848
56,21,3,ISIP_8,138,1,48,63,3151788840
56,21,3,ISIP_8,139,1,48,57,3152461560
56,21,3,ISIP_8,140,1,48,64,3153184852
56,21,3,ISIP_8,141,1,48,69,3153832788
56,21,3,ISIP_8,142,1,48,66,3154525408
56,21,3,ISIP_8,143,1,48,65,3155259540
56,21,3,ISIP_8,144,1,48,61,3155964496
56,21,3,ISIP_8,145,1,48,62,3156693592
56,21,3,ISIP_8,146,1,48,62,3157441484
56,21,3,ISIP_8,147,1,48,58,3158191464
56,21,3,ISIP_8,148,1,48,57,3158937556
56,21,3,ISIP_8,149,1,48,60,3159674912
56,21,3,ISIP_8,150,1,48,62,3160423176
56,21,3,ISIP_8,151,1,48,65,3161168908
56,21,3,ISIP_8,152,1,48,61,3161915152
56,21,3,ISIP_8,153,1,48,60,3162674416
56,21,3,ISIP_8,154,1,48,60,3163389324
56,21,3,ISIP_8,155,1,48,62,3164104652
56,21,3,ISIP_8,156,1,48,62,3164841332
56,21,3,ISIP_8,157,1,48,67,3165545616
56,21,3,ISIP_8,158,1,48,66,3166299200
56,21,3,ISIP_8,159,1,48,78,3166986344
56,21,3,ISIP_8,160,1,48,73,3167651480
56,21,3,ISIP_8,161,1,48,66,3168285312
56,21,3,ISIP_8,162,1,48,62,3169032084
56,21,3,ISIP_8,163,1,48,62,3169716528
56,21,3,ISIP_8,164,1,48,65,3170411912
56,21,3,ISIP_8,165,1,48,65,3171133028
56,21,3,ISIP_8,166,1,48,59,3171872172
56,21,3,ISIP_8,167,1,48,63,3172583248
56,21,3,ISIP_8,168,1,48,62,3173301576
56,21,3,ISIP_8,169,1,48,68,3173980052
56,21,3,ISIP_8,170,1,48,57,3174696088
56,21,3,ISIP_8,171,1,48,58,3175457664
56,21,3,ISIP_8,172,1,48,61,3176147864
56,21,3,ISIP_8,173,1,48,68,3176830016
56,21,3,ISIP_8,174,1,48,70,3177508644
56,21,3,ISIP_8,175,1,48,57,3178241284
56,21,3,ISIP_8,176,1,48,63,3178956596
56,21,3,ISIP_8,177,1,48,57,3179647868
56,21,3,ISIP_8,178,1,48,57,3180353280
56,21,3,ISIP_8,179,1,48,65,3181046052
56,21,3,ISIP_8,180,1,48,64,3181739616
56,21,3,ISIP_8,181,1,48,60,3182438892
56,21,3,ISIP_8,182,1,48,61,3183124328
56,21,3,ISIP_8,183,1,48,63,3183817060
56,21,3,ISIP_8,184,1,48,59,3184551784
56,21,3,ISIP_8,185,1,48,62,3185262736
56,21,3,ISIP_8,186,1,48,55,3185950192
56,21,3,ISIP_8,187,1,48,63,3186630368
56,21,3,ISIP_8,188,1,48,52,3187320592
56,21,3,ISIP_8,189,1,48,58,3188004016
56,21,3,ISIP_8,190,1,48,60,3188688676
56,21,3,ISIP_8,191,1,48,57,3189392128
56,21,3,ISIP_8,0,9999,9999,9999,3069436996
56,21,3,ISIP_8,1,9999,9999,9999,3070236728
56,21,3,ISIP_8,2,9999,9999,9999,3071036460
56,21,3,ISIP_8,3,9999,9999,9999,3071836212
56,21,3,ISIP_8,4,9999,9999,9999,3072636988
56,21,3,ISIP_8,5,9999,9999,9999,3073436728
56,21,3,ISIP_8,6,9999,9999,9999,3074236460
56,21,3,ISIP_8,7,9999,9999,9999,3075036268
56,21,3,ISIP_8,8,9999,9999,9999,3075837000
56,21,3,ISIP_8,9,9999,9999,9999,3076636736
56,21,3,ISIP_8,10,9999,9999,9999,3077436468
56,21,3,ISIP_8,11,9999,9999,9999,3078236276
56,21,3,ISIP_8,12,9999,9999,9999,3079036984
56,21,3,ISIP_8,13,9999,9999,9999,3079836716
56,21,3,ISIP_8,14,9999,9999,9999,3080636508
56,21,3,ISIP_8,15,9999,9999,9999,3081436260
56,21,3,ISIP_8,16,9999,9999,9999,3082236988
56,21,3,ISIP_8,17,9999,9999,9999,3083036720
56,21,3,ISIP_8,18,9999,9999,9999,3083836532
56,21,3,ISIP_8,19,9999,9999,9999,3084636264
56,21,3,ISIP_8,20,9999,9999,9999,3085437044
56,21,3,ISIP_8,21,9999,9999,9999,3086236776
56,21,3,ISIP_8,22,9999,9999,9999,3087036512
56,21,3,ISIP_8,23,9999,9999,9999,3087836244
56,21,3,ISIP_8,24,9999,9999,9999,3088636976
56,21,3,ISIP_8,25,9999,9999,9999,3089436784
56,21,3,ISIP_8,26,9999,9999,9999,3090236520
56,21,3,ISIP_8,27,9999,9999,9999,3091036252
56,21,3,ISIP_8,28,9999,9999,9999,3091837032
56,21,3,ISIP_8,29,9999,9999,9999,3092636764
56,21,3,ISIP_8,30,9999,9999,9999,3093436500
56,21,3,ISIP_8,31,9999,9999,9999,3094236212
56,21,3,ISIP_8,32,9999,9999,9999,3095037012
56,21,3,ISIP_8,33,9999,9999,9999,3095836756
56,21,3,ISIP_8,34,9999,9999,9999,3096636468
56,21,3,ISIP_8,35,9999,9999,9999,3097436272
56,21,3,ISIP_8,36,9999,9999,9999,3098236976
56,21,3,ISIP_8,37,9999,9999,9999,3099036776
56,21,3,ISIP_8,38,9999,9999,9999,3099836504
56,21,3,ISIP_8,39,9999,9999,9999,3100636232
56,21,3,ISIP_8,40,9999,9999,9999,3101437032
56,21,3,ISIP_8,41,9999,9999,9999,3102236764
56,21,3,ISIP_8,42,9999,9999,9999,3103036492
56,21,3,ISIP_8,43,9999,9999,9999,3103836220
56,21,3,ISIP_8,44,9999,9999,9999,3104636996
56,21,3,ISIP_8,45,9999,9999,9999,3105436728
56,21,3,ISIP_8,46,9999,9999,9999,3106236532
56,21,3,ISIP_8,47,9999,9999,9999,3107036260
56,21,3,ISIP_8,48,9999,9999,9999,3107836984
56,21,3,ISIP_8,49,9999,9999,9999,3108636788
56,21,3,ISIP_8,50,9999,9999,9999,3109436516
56,21,3,ISIP_8,51,9999,9999,9999,3110236248
56,21,3,ISIP_8,52,9999,9999,9999,3111037016
56,21,3,ISIP_8,53,9999,9999,9999,3111836732
56,21,3,ISIP_8,54,9999,9999,9999,3112636532
56,21,3,ISIP_8,55,9999,9999,9999,3113436264
56,21,3,ISIP_8,56,9999,9999,9999,3114236992
56,21,3,ISIP_8,57,9999,9999,9999,3115036720
56,21,3,ISIP_8,58,9999,9999,9999,3115836524
56,21,3,ISIP_8,59,9999,9999,9999,3116636252
56,21,3,ISIP_8,60,9999,9999,9999,3117437028
56,21,3,ISIP_8,61,9999,9999,9999,3118236756
56,21,3,ISIP_8,62,9999,9999,9999,3119036484
56,21,3,ISIP_8,63,9999,9999,9999,3119836216
56,21,3,ISIP_8,64,9999,9999,9999,3120637008
56,21,3,ISIP_8,65,9999,9999,9999,3121436740
56,21,3,ISIP_8,66,9999,9999,9999,3122236528
56,21,3,ISIP_8,67,9999,9999,9999,3123036256
56,21,3,ISIP_8,68,9999,9999,9999,3123837032
56,21,3,ISIP_8,69,9999,9999,9999,3124636760
56,21,3,ISIP_8,70,9999,9999,9999,3125436488
56,21,3,ISIP_8,71,9999,9999,9999,3126236216
56,21,3,ISIP_8,72,9999,9999,9999,3127037020
56,21,3,ISIP_8,73,9999,9999,9999,3127836748
56,21,3,ISIP_8,74,9999,9999,9999,3128636476
56,21,3,ISIP_8,75,9999,9999,9999,3129436208
56,21,3,ISIP_8,76,9999,9999,9999,3130236984
56,21,3,ISIP_8,77,9999,9999,9999,3131036764
56,21,3,ISIP_8,78,9999,9999,9999,3131836492
56,21,3,ISIP_8,79,9999,9999,9999,3132636220
56,21,3,ISIP_8,80,9999,9999,9999,3133437020
56,21,3,ISIP_8,81,9999,9999,9999,3134236752
56,21,3,ISIP_8,82,9999,9999,9999,3135036480
56,21,3,ISIP_8,83,9999,9999,9999,3135836280
56,21,3,ISIP_8,84,9999,9999,9999,3136636980
56,21,3,ISIP_8,85,9999,9999,9999,3137436768
56,21,3,ISIP_8,86,9999,9999,9999,3138236496
56,21,3,ISIP_8,87,9999,9999,9999,3139036224
56,21,3,ISIP_8,88,9999,9999,9999,3139837024
56,21,3,ISIP_8,89,9999,9999,9999,3140636756
56,21,3,ISIP_8,90,9999,9999,9999,3141436484
56,21,3,ISIP_8,91,9999,9999,9999,3142236216
56,21,3,ISIP_8,92,9999,9999,9999,3143036988
56,21,3,ISIP_8,93,9999,9999,9999,3143836788
56,21,3,ISIP_8,94,9999,9999,9999,3144636500
56,21,3,ISIP_8,95,9999,9999,9999,3145436232
56,21,3,ISIP_8,96,9999,9999,9999,3146237032
56,21,3,ISIP_8,97,9999,9999,9999,3147036760
56,21,3,ISIP_8,98,9999,9999,9999,3147836488
56,21,3,ISIP_8,99,9999,9999,9999,3148636220
56,21,3,ISIP_8,100,9999,9999,9999,3149436996
56,21,3,ISIP_8,101,9999,9999,9999,3150236724
56,21,3,ISIP_8,102,9999,9999,9999,3151036528
56,21,3,ISIP_8,103,9999,9999,9999,3151836252
56,21,3,ISIP_8,104,9999,9999,9999,3152637036
56,21,3,ISIP_8,105,9999,9999,9999,3153436768
56,21,3,ISIP_8,106,9999,9999,9999,3154236496
56,21,3,ISIP_8,107,9999,9999,9999,3155036224
56,21,3,ISIP_8,108,9999,9999,9999,3155837000
56,21,3,ISIP_8,109,9999,9999,9999,3156636728
56,21,3,ISIP_8,110,9999,9999,9999,3157436532
56,21,3,ISIP_8,111,9999,9999,9999,3158236256
56,21,3,ISIP_8,112,9999,9999,9999,3159037012
56,21,3,ISIP_8,113,9999,9999,9999,3159836768
56,21,3,ISIP_8,114,9999,9999,9999,3160636500
56,21,3,ISIP_8,115,9999,9999,9999,3161436228
56,21,3,ISIP_8,116,9999,9999,9999,3162237004
56,21,3,ISIP_8,117,9999,9999,9999,3163036732
56,21,3,ISIP_8,118,9999,9999,9999,3163836464
56,21,3,ISIP_8,119,9999,9999,9999,3164636264
56,21,3,ISIP_8,120,9999,9999,9999,3165436992
56,21,3,ISIP_8,121,9999,9999,9999,3166236720
56,21,3,ISIP_8,122,9999,9999,9999,3167036516
56,21,3,ISIP_8,123,9999,9999,9999,3167836232
56,21,3,ISIP_8,124,9999,9999,9999,3168637008
56,21,3,ISIP_8,125,9999,9999,9999,3169436736
56,21,3,ISIP_8,126,9999,9999,9999,3170236468
56,21,3,ISIP_8,127,9999,9999,9999,3171036272
56,21,3,ISIP_8,128,9999,9999,9999,3171836996
56,21,3,ISIP_8,129,9999,9999,9999,3172636720
56,21,3,ISIP_8,130,9999,9999,9999,3173436508
56,21,3,ISIP_8,131,9999,9999,9999,3174236236
56,21,3,ISIP_8,132,9999,9999,9999,3175037012
56,21,3,ISIP_8,133,9999,9999,9999,3175836740
56,21,3,ISIP_8,134,9999,9999,9999,3176636468
56,21,3,ISIP_8,135,9999,9999,9999,3177436272
56,21,3,ISIP_8,136,9999,9999,9999,3178237000
56,21,3,ISIP_8,137,9999,9999,9999,3179036720
56,21,3,ISIP_8,138,9999,9999,9999,3179836512
56,21,3,ISIP_8,139,9999,9999,9999,3180636240
56,21,3,ISIP_8,140,9999,9999,9999,3181437016
56,21,3,ISIP_8,141,9999,9999,9999,3182236744
56,21,3,ISIP_8,142,9999,9999,9999,3183036472
56,21,3,ISIP_8,143,9999,9999,9999,3183836272
56,21,3,ISIP_8,144,9999,9999,9999,3184636996
56,21,3,ISIP_8,145,9999,9999,9999,3185436784
56,21,3,ISIP_8,146,9999,9999,9999,3186236516
56,21,3,ISIP_8,147,9999,9999,9999,3187036244
56,21,3,ISIP_8,148,9999,9999,9999,3187837020
56,21,3,ISIP_8,149,9999,9999,9999,3188636748
56,22,11,Pattern_Practice,0,5,42,127,3280236852
56,22,11,Pattern_Practice,1,5,42,127,3280736792
56,22,11,Pattern_Practice,2,1,48,64,3281237256
56,22,11,Pattern_Practice,3,5,42,127,3281238744
56,22,11,Pattern_Practice,4,1,48,27,3281471804
56,22,11,Pattern_Practice,5,5,42,127,3281737004
56,22,11,Pattern_Practice,6,1,48,56,3281745508
56,22,11,Pattern_Practice,7,1,38,41,3281790072
56,22,11,Pattern_Practice,8,1,48,38,3281999636
56,22,11,Pattern_Practice,9,5,42,127,3282236720
56,22,11,Pattern_Practice,10,1,48,47,3282270584
56,22,11,Pattern_Practice,11,1,48,39,3282496548
56,22,11,Pattern_Practice,12,5,42,127,3282736616
56,22,11,Pattern_Practice,13,1,38,74,3282776980
56,22,11,Pattern_Practice,14,1,48,58,3282780260
56,22,11,Pattern_Practice,15,1,48,43,3283020256
56,22,11,Pattern_Practice,16,5,42,127,3283237212
56,22,11,Pattern_Practice,17,1,48,51,3283296656
56,22,11,Pattern_Practice,18,1,48,51,3283521496
56,22,11,Pattern_Practice,19,5,42,127,3283736884
56,22,11,Pattern_Practice,20,1,48,50,3283804928
56,22,11,Pattern_Practice,21,1,38,60,3283823908
56,22,11,Pattern_Practice,22,1,48,53,3284054784
56,22,11,Pattern_Practice,23,5,42,127,3284236736
56,22,11,Pattern_Practice,24,1,48,60,3284318244
56,22,11,Pattern_Practice,25,1,48,53,3284560292
56,22,11,Pattern_Practice,26,5,42,127,3284737308
56,22,11,Pattern_Practice,27,1,48,54,3284827788
56,22,11,Pattern_Practice,28,1,38,62,3284831060
56,22,11,Pattern_Practice,29,1,48,54,3285066800
56,22,11,Pattern_Practice,30,5,42,127,3285237228
56,22,11,Pattern_Practice,31,1,48,59,3285318512
56,22,11,Pattern_Practice,32,1,48,49,3285564828
56,22,11,Pattern_Practice,33,5,42,127,3285736756
56,22,11,Pattern_Practice,34,1,38,58,3285814596
56,22,11,Pattern_Practice,35,1,48,56,3285840908
56,22,11,Pattern_Practice,36,1,48,57,3286083152
56,22,11,Pattern_Practice,37,5,42,127,3286236656
56,22,11,Pattern_Practice,38,1,48,58,3286330980
56,22,11,Pattern_Practice,39,1,48,56,3286563824
56,22,11,Pattern_Practice,40,5,42,127,3286737596
56,22,11,Pattern_Practice,41,1,38,77,3286815240
56,22,11,Pattern_Practice,42,1,48,71,3286827860
56,22,11,Pattern_Practice,43,1,48,53,3287049836
56,22,11,Pattern_Practice,44,5,42,127,3287236928
56,22,11,Pattern_Practice,45,1,38,65,3287255900
56,22,11,Pattern_Practice,46,1,48,67,3287317176
56,22,11,Pattern_Practice,47,1,38,51,3287449896
56,22,11,Pattern_Practice,48,1,48,66,3287662624
56,22,11,Pattern_Practice,49,5,42,127,3287736780
56,22,11,Pattern_Practice,50,1,38,77,3287812760
56,22,11,Pattern_Practice,51,1,48,58,3287847372
56,22,11,Pattern_Practice,52,1,48,62,3288120812
56,22,11,Pattern_Practice,53,5,42,127,3288237364
56,22,11,Pattern_Practice,54,1,48,64,3288375964
56,22,11,Pattern_Practice,55,1,48,53,3288611208
56,22,11,Pattern_Practice,56,5,42,127,3288737112
56,22,11,Pattern_Practice,57,1,38,57,3288857460
56,22,11,Pattern_Practice,58,1,48,59,3288859916
56,22,11,Pattern_Practice,59,1,48,46,3289085700
56,22,11,Pattern_Practice,60,5,42,127,3289236960
56,22,11,Pattern_Practice,61,1,48,59,3289343104
56,22,11,Pattern_Practice,62,1,48,51,3289574228
56,22,11,Pattern_Practice,63,5,42,127,3289736780
56,22,11,Pattern_Practice,64,1,48,63,3289841504
56,22,11,Pattern_Practice,65,1,38,102,3289847996
56,22,11,Pattern_Practice,66,1,48,45,3290081784
56,22,11,Pattern_Practice,67,5,42,127,3290237160
56,22,11,Pattern_Practice,68,1,48,53,3290351228
56,22,11,Pattern_Practice,69,1,48,46,3290578664
56,22,11,Pattern_Practice,70,5,42,127,3290737128
56,22,11,Pattern_Practice,71,1,38,66,3290830008
56,22,11,Pattern_Practice,72,1,48,67,3290835448
56,22,11,Pattern_Practice,73,1,48,41,3291050984
56,22,11,Pattern_Practice,74,5,42,127,3291236828
56,22,11,Pattern_Practice,75,1,48,65,3291324472
56,22,11,Pattern_Practice,76,1,48,59,3291542132
56,22,11,Pattern_Practice,77,1,38,76,3291721424
56,22,11,Pattern_Practice,78,5,42,127,3291736640
56,22,11,Pattern_Practice,79,1,48,90,3291758988
56,22,11,Pattern_Practice,80,1,38,45,3292093684
56,22,11,Pattern_Practice,81,5,42,127,3292237112
56,22,11,Pattern_Practice,82,1,48,71,3292261996
56,22,11,Pattern_Practice,83,1,48,62,3292528128
56,22,11,Pattern_Practice,84,5,42,127,3292736932
56,22,11,Pattern_Practice,85,1,38,70,3292781940
56,22,11,Pattern_Practice,86,1,48,44,3292822912
56,22,11,Pattern_Practice,87,1,48,63,3293038692
56,22,11,Pattern_Practice,88,5,42,127,3293236720
56,22,11,Pattern_Practice,89,1,48,55,3293277012
56,22,11,Pattern_Practice,90,1,48,59,3293528116
56,22,11,Pattern_Practice,91,5,42,127,3293737440
56,22,11,Pattern_Practice,92,1,38,61,3293772276
56,22,11,Pattern_Practice,93,1,48,72,3293791852
56,22,11,Pattern_Practice,94,1,48,52,3294013976
56,22,11,Pattern_Practice,95,5,42,127,3294237068
56,22,11,Pattern_Practice,96,1,48,67,3294274596
56,22,11,Pattern_Practice,97,1,48,57,3294515892
56,22,11,Pattern_Practice,98,1,38,65,3294715012
56,22,11,Pattern_Practice,99,5,42,127,3294736808
56,22,11,Pattern_Practice,100,1,48,89,3294777324
56,22,11,Pattern_Practice,101,1,48,45,3294997804
56,22,11,Pattern_Practice,102,5,42,127,3295236600
56,22,11,Pattern_Practice,103,1,48,72,3295249368
56,22,11,Pattern_Practice,104,5,42,127,3295737192
56,22,11,Pattern_Practice,105,1,48,80,3295743976
56,22,11,Pattern_Practice,106,1,38,53,3295771712
56,22,11,Pattern_Practice,107,5,42,127,3296236768
56,22,11,Pattern_Practice,108,1,48,76,3296259408
56,22,11,Pattern_Practice,109,1,38,18,3296269340
56,22,11,Pattern_Practice,110,1,48,64,3296484656
56,22,11,Pattern_Practice,111,1,38,61,3296730568
56,22,11,Pattern_Practice,112,5,42,127,3296736832
56,22,11,Pattern_Practice,113,1,48,75,3296751624
56,22,11,Pattern_Practice,114,1,48,53,3296988756
56,22,11,Pattern_Practice,115,1,48,80,3297226916
56,22,11,Pattern_Practice,116,5,42,127,3297237492
56,22,11,Pattern_Practice,117,1,48,64,3297478108
56,22,11,Pattern_Practice,118,5,42,127,3297737172
56,22,11,Pattern_Practice,119,1,38,66,3297747472
56,22,11,Pattern_Practice,120,1,48,84,3297750668
56,22,11,Pattern_Practice,121,1,48,63,3297988876
56,22,11,Pattern_Practice,122,5,42,127,3298236648
56,22,11,Pattern_Practice,123,1,48,68,3298246644
56,22,11,Pattern_Practice,124,1,48,68,3298488400
56,22,11,Pattern_Practice,125,1,38,62,3298734800
56,22,11,Pattern_Practice,126,5,42,127,3298737732
56,22,11,Pattern_Practice,127,1,48,85,3298758956
56,22,11,Pattern_Practice,128,1,48,60,3299001120
56,22,11,Pattern_Practice,129,5,42,127,3299237300
56,22,11,Pattern_Practice,130,1,48,70,3299266900
56,22,11,Pattern_Practice,131,1,48,32,3299486432
56,22,11,Pattern_Practice,132,5,42,127,3299736972
56,22,11,Pattern_Practice,133,1,48,91,3299753036
56,22,11,Pattern_Practice,134,1,38,73,3299772160
56,22,11,Pattern_Practice,135,5,42,127,3300236620
56,22,11,Pattern_Practice,136,1,48,81,3300263976
56,22,11,Pattern_Practice,137,1,48,73,3300514324
56,22,11,Pattern_Practice,138,5,42,127,3300737416
56,22,11,Pattern_Practice,139,1,48,76,3300759156
56,22,11,Pattern_Practice,140,1,38,66,3300777836
56,22,11,Pattern_Practice,141,1,48,80,3301015516
56,22,11,Pattern_Practice,142,5,42,127,3301237036
56,22,11,Pattern_Practice,143,1,48,79,3301272624
56,22,11,Pattern_Practice,144,1,48,76,3301531496
56,22,11,Pattern_Practice,145,5,42,127,3301736860
56,22,11,Pattern_Practice,146,1,38,76,3301769528
56,22,11,Pattern_Practice,147,1,48,77,3301781472
56,22,11,Pattern_Practice,148,1,48,62,3302011976
56,22,11,Pattern_Practice,149,5,42,127,3302236488
56,22,11,Pattern_Practice,150,1,48,72,3302267204
56,22,11,Pattern_Practice,151,1,48,73,3302519052
56,22,11,Pattern_Practice,152,1,38,15,3302656756
56,22,11,Pattern_Practice,153,5,42,127,3302737348
56,22,11,Pattern_Practice,154,1,48,89,3302771796
56,22,11,Pattern_Practice,155,1,48,75,3303018476
56,22,11,Pattern_Practice,156,1,48,35,3303069020
56,22,11,Pattern_Practice,157,5,42,127,3303236908
56,22,11,Pattern_Practice,158,1,48,94,3303292992
56,22,11,Pattern_Practice,159,1,48,36,3303345920
56,22,11,Pattern_Practice,160,5,42,127,3303736656
56,22,11,Pattern_Practice,161,1,48,127,3303793628
56,22,11,Pattern_Practice,162,1,38,75,3303799896
56,22,11,Pattern_Practice,163,5,42,127,3304237428
56,22,11,Pattern_Practice,164,1,48,95,3304305392
56,22,11,Pattern_Practice,165,1,48,79,3304530392
56,22,11,Pattern_Practice,166,5,42,127,3304737248
56,22,11,Pattern_Practice,167,1,38,84,3304761012
56,22,11,Pattern_Practice,168,1,38,86,3304981220
56,22,11,Pattern_Practice,169,1,38,52,3305020316
56,22,11,Pattern_Practice,170,1,38,80,3305212328
56,22,11,Pattern_Practice,171,5,42,127,3305236820
56,22,11,Pattern_Practice,172,1,48,74,3305255644
56,22,11,Pattern_Practice,173,1,48,99,3305710116
56,22,11,Pattern_Practice,174,5,42,127,3305736628
56,22,11,Pattern_Practice,175,1,38,84,3306209060
56,22,11,Pattern_Practice,176,1,48,100,3306213388
56,22,11,Pattern_Practice,177,5,42,127,3306237280
56,22,11,Pattern_Practice,178,1,38,85,3306426296
56,22,11,Pattern_Practice,179,1,48,92,3306645236
56,22,11,Pattern_Practice,180,5,42,127,3306737144
56,22,11,Pattern_Practice,181,1,48,84,3306883636
56,22,11,Pattern_Practice,182,1,38,87,3307126208
56,22,11,Pattern_Practice,183,5,42,127,3307236804
56,22,11,Pattern_Practice,184,1,48,98,3307623356
56,22,11,Pattern_Practice,185,5,42,127,3307736396
56,22,11,Pattern_Practice,186,1,38,113,3308139812
56,22,11,Pattern_Practice,187,5,42,127,3308237364
56,22,11,Pattern_Practice,188,1,38,68,3308404536
56,22,11,Pattern_Practice,189,1,48,91,3308622280
56,22,11,Pattern_Practice,190,5,42,127,3308736812
56,22,11,Pattern_Practice,191,1,38,77,3308855372
56,22,11,Pattern_Practice,192,1,38,80,3309118736
56,22,11,Pattern_Practice,193,5,42,127,3309236636
56,22,11,Pattern_Practice,194,1,48,107,3309600032
56,22,11,Pattern_Practice,195,5,42,127,3309737228
56,22,11,Pattern_Practice,196,1,38,92,3309845312
56,22,11,Pattern_Practice,197,1,48,97,3310113316
56,22,11,Pattern_Practice,198,5,42,127,3310237124
56,22,11,Pattern_Practice,199,1,48,61,3310351192
56,22,11,Pattern_Practice,200,1,38,88,3310585092
56,22,11,Pattern_Practice,201,5,42,127,3310736648
56,22,11,Pattern_Practice,202,1,48,81,3310846900
56,22,11,Pattern_Practice,203,1,48,83,3311089028
56,22,11,Pattern_Practice,204,5,42,127,3311236396
56,22,11,Pattern_Practice,205,1,48,69,3311337448
56,22,11,Pattern_Practice,206,1,38,80,3311573640
56,22,11,Pattern_Practice,207,5,42,127,3311737340
56,22,11,Pattern_Practice,208,1,48,73,3311803140
56,22,11,Pattern_Practice,209,1,48,82,3312077572
56,22,11,Pattern_Practice,210,5,42,127,3312237012
56,22,11,Pattern_Practice,211,1,38,92,3312554308
56,22,11,Pattern_Practice,212,5,42,127,3312736484
56,22,11,Pattern_Practice,213,1,48,84,3312789792
56,22,11,Pattern_Practice,214,1,48,74,3313033032
56,22,11,Pattern_Practice,215,1,38,108,3313226988
56,22,11,Pattern_Practice,216,5,42,127,3313237416
56,22,11,Pattern_Practice,217,1,48,87,3313442952
56,22,11,Pattern_Practice,218,1,38,87,3313638024
56,22,11,Pattern_Practice,219,5,42,127,3313737224
56,22,11,Pattern_Practice,220,1,38,58,3313882168
56,22,11,Pattern_Practice,221,1,48,102,3314198660
56,22,11,Pattern_Practice,222,5,42,127,3314237136
56,22,11,Pattern_Practice,223,1,48,83,3314712416
56,22,11,Pattern_Practice,224,5,42,127,3314736384
56,22,11,Pattern_Practice,225,1,48,85,3315231260
56,22,11,Pattern_Practice,226,5,42,127,3315237276
56,22,11,Pattern_Practice,227,1,48,58,3315448044
56,22,11,Pattern_Practice,228,1,38,83,3315685384
56,22,11,Pattern_Practice,229,5,42,127,3315737244
56,22,11,Pattern_Practice,230,1,48,72,3315896756
56,22,11,Pattern_Practice,231,1,48,80,3316158924
56,22,11,Pattern_Practice,232,5,42,127,3316236696
56,22,11,Pattern_Practice,233,1,38,77,3316601544
56,22,11,Pattern_Practice,234,5,42,127,3316737276
56,22,11,Pattern_Practice,235,1,48,79,3316811080
56,22,11,Pattern_Practice,236,1,48,77,3317058360
56,22,11,Pattern_Practice,237,5,42,127,3317237168
56,22,11,Pattern_Practice,238,1,48,94,3317507420
56,22,11,Pattern_Practice,239,5,42,127,3317737236
56,22,11,Pattern_Practice,240,1,48,73,3317742228
56,22,11,Pattern_Practice,241,1,38,87,3317958444
56,22,11,Pattern_Practice,242,1,48,64,3318206852
56,22,11,Pattern_Practice,243,5,42,127,3318236604
56,22,11,Pattern_Practice,244,1,48,89,3318466344
56,22,11,Pattern_Practice,245,1,48,45,3318510032
56,22,11,Pattern_Practice,246,5,42,127,3318737208
56,22,11,Pattern_Practice,247,1,38,97,3318930492
56,22,11,Pattern_Practice,248,5,42,127,3319237200
56,22,11,Pattern_Practice,249,1,48,100,3319425620
56,22,11,Pattern_Practice,250,1,48,78,3319672160
56,22,11,Pattern_Practice,251,5,42,127,3319736812
56,22,11,Pattern_Practice,252,1,38,72,3319881888
56,22,11,Pattern_Practice,253,1,48,78,3320110992
56,22,11,Pattern_Practice,0,9999,9999,9999,3280234564
56,22,11,Pattern_Practice,1,9999,9999,9999,3280734280
56,22,11,Pattern_Practice,2,9999,9999,9999,3281235044
56,22,11,Pattern_Practice,3,9999,9999,9999,3281734716
56,22,11,Pattern_Practice,4,9999,9999,9999,3282234432
56,22,11,Pattern_Practice,5,9999,9999,9999,3282734180
56,22,11,Pattern_Practice,6,9999,9999,9999,3283234928
56,22,11,Pattern_Practice,7,9999,9999,9999,3283734600
56,22,11,Pattern_Practice,8,9999,9999,9999,3284234300
56,22,11,Pattern_Practice,9,9999,9999,9999,3284735096
56,22,11,Pattern_Practice,10,9999,9999,9999,3285234792
56,22,11,Pattern_Practice,11,9999,9999,9999,3285734468
56,22,11,Pattern_Practice,12,9999,9999,9999,3286234220
56,22,11,Pattern_Practice,13,9999,9999,9999,3286734940
56,22,11,Pattern_Practice,14,9999,9999,9999,3287234640
56,22,11,Pattern_Practice,15,9999,9999,9999,3287734344
56,22,11,Pattern_Practice,16,9999,9999,9999,3288235076
56,22,11,Pattern_Practice,17,9999,9999,9999,3288734824
56,22,11,Pattern_Practice,18,9999,9999,9999,3289234524
56,22,11,Pattern_Practice,19,9999,9999,9999,3289734200
56,22,11,Pattern_Practice,20,9999,9999,9999,3290234944
56,22,11,Pattern_Practice,21,9999,9999,9999,3290734692
56,22,11,Pattern_Practice,22,9999,9999,9999,3291234392
56,22,11,Pattern_Practice,23,9999,9999,9999,3291734132
56,22,11,Pattern_Practice,24,9999,9999,9999,3292234824
56,22,11,Pattern_Practice,25,9999,9999,9999,3292734572
56,22,11,Pattern_Practice,26,9999,9999,9999,3293234284
56,22,11,Pattern_Practice,27,9999,9999,9999,3293735004
56,22,11,Pattern_Practice,28,9999,9999,9999,3294234704
56,22,11,Pattern_Practice,29,9999,9999,9999,3294734448
56,22,11,Pattern_Practice,30,9999,9999,9999,3295234168
56,22,11,Pattern_Practice,31,9999,9999,9999,3295734832
56,22,11,Pattern_Practice,32,9999,9999,9999,3296234556
56,22,11,Pattern_Practice,33,9999,9999,9999,3296734324
56,22,11,Pattern_Practice,34,9999,9999,9999,3297235056
56,22,11,Pattern_Practice,35,9999,9999,9999,3297734736
56,22,11,Pattern_Practice,36,9999,9999,9999,3298234436
56,22,11,Pattern_Practice,37,9999,9999,9999,3298734200
56,22,11,Pattern_Practice,38,9999,9999,9999,3299234868
56,22,11,Pattern_Practice,39,9999,9999,9999,3299734612
56,22,11,Pattern_Practice,40,9999,9999,9999,3300234336
56,22,11,Pattern_Practice,41,9999,9999,9999,3300735052
56,22,11,Pattern_Practice,42,9999,9999,9999,3301234752
56,22,11,Pattern_Practice,43,9999,9999,9999,3301734500
56,22,11,Pattern_Practice,44,9999,9999,9999,3302234200
56,22,11,Pattern_Practice,45,9999,9999,9999,3302734912
56,22,11,Pattern_Practice,46,9999,9999,9999,3303234624
56,22,11,Pattern_Practice,47,9999,9999,9999,3303734372
56,22,11,Pattern_Practice,48,9999,9999,9999,3304235064
56,22,11,Pattern_Practice,49,9999,9999,9999,3304734812
56,22,11,Pattern_Practice,50,9999,9999,9999,3305234532
56,22,11,Pattern_Practice,51,9999,9999,9999,3305734192
56,22,11,Pattern_Practice,52,9999,9999,9999,3306234988
56,22,11,Pattern_Practice,53,9999,9999,9999,3306734708
56,22,11,Pattern_Practice,54,9999,9999,9999,3307234368
56,22,11,Pattern_Practice,55,9999,9999,9999,3307734112
56,22,11,Pattern_Practice,56,9999,9999,9999,3308234868
56,22,11,Pattern_Practice,57,9999,9999,9999,3308734524
56,22,11,Pattern_Practice,58,9999,9999,9999,3309234272
56,22,11,Pattern_Practice,59,9999,9999,9999,3309735016
56,22,11,Pattern_Practice,60,9999,9999,9999,3310234688
56,22,11,Pattern_Practice,61,9999,9999,9999,3310734436
56,22,11,Pattern_Practice,62,9999,9999,9999,3311234108
56,22,11,Pattern_Practice,63,9999,9999,9999,3311734904
56,22,11,Pattern_Practice,64,9999,9999,9999,3312234576
56,22,11,Pattern_Practice,65,9999,9999,9999,3312734272
56,22,11,Pattern_Practice,66,9999,9999,9999,3313235056
56,22,11,Pattern_Practice,67,9999,9999,9999,3313734716
56,22,11,Pattern_Practice,68,9999,9999,9999,3314234476
56,22,11,Pattern_Practice,69,9999,9999,9999,3314734172
56,22,11,Pattern_Practice,70,9999,9999,9999,3315234916
56,22,11,Pattern_Practice,71,9999,9999,9999,3315734588
56,22,11,Pattern_Practice,72,9999,9999,9999,3316234336
56,22,11,Pattern_Practice,73,9999,9999,9999,3316735064
56,22,11,Pattern_Practice,74,9999,9999,9999,3317234808
56,22,11,Pattern_Practice,75,9999,9999,9999,3317734504
56,22,11,Pattern_Practice,76,9999,9999,9999,3318234216
56,22,11,Pattern_Practice,77,9999,9999,9999,3318734924
56,22,11,Pattern_Practice,78,9999,9999,9999,3319234616
56,22,11,Pattern_Practice,79,9999,9999,9999,3319734380
56,23,13,Improv_Metronome,0,5,42,127,3350487480
56,23,13,Improv_Metronome,1,5,42,127,3350987268
56,23,13,Improv_Metronome,2,1,48,79,3351051380
56,23,13,Improv_Metronome,3,1,48,48,3351229296
56,23,13,Improv_Metronome,4,5,42,127,3351486792
56,23,13,Improv_Metronome,5,1,48,80,3351499040
56,23,13,Improv_Metronome,6,1,38,62,3351544532
56,23,13,Improv_Metronome,7,1,48,51,3351756384
56,23,13,Improv_Metronome,8,5,42,127,3351986432
56,23,13,Improv_Metronome,9,1,48,65,3352006452
56,23,13,Improv_Metronome,10,1,48,57,3352231672
56,23,13,Improv_Metronome,11,5,42,127,3352487224
56,23,13,Improv_Metronome,12,1,48,84,3352502536
56,23,13,Improv_Metronome,13,1,38,94,3352511940
56,23,13,Improv_Metronome,14,1,48,47,3352735336
56,23,13,Improv_Metronome,15,5,42,127,3352986924
56,23,13,Improv_Metronome,16,1,48,79,3352999244
56,23,13,Improv_Metronome,17,1,48,70,3353238972
56,23,13,Improv_Metronome,18,5,42,127,3353486596
56,23,13,Improv_Metronome,19,1,48,90,3353500336
56,23,13,Improv_Metronome,20,1,38,51,3353503532
56,23,13,Improv_Metronome,21,1,48,66,3353744584
56,23,13,Improv_Metronome,22,5,42,127,3353986372
56,23,13,Improv_Metronome,23,1,48,77,3354013052
56,23,13,Improv_Metronome,24,1,48,71,3354265052
56,23,13,Improv_Metronome,25,5,42,127,3354487092
56,23,13,Improv_Metronome,26,1,48,89,3354518480
56,23,13,Improv_Metronome,27,1,38,77,3354532600
56,23,13,Improv_Metronome,28,1,48,59,3354754056
56,23,13,Improv_Metronome,29,5,42,127,3354986864
56,23,13,Improv_Metronome,30,1,48,85,3355028276
56,23,13,Improv_Metronome,31,1,48,68,3355268608
56,23,13,Improv_Metronome,32,5,42,127,3355486464
56,23,13,Improv_Metronome,33,1,48,88,3355539244
56,23,13,Improv_Metronome,34,1,38,80,3355541848
56,23,13,Improv_Metronome,35,1,48,69,3355785884
56,23,13,Improv_Metronome,36,5,42,127,3355987284
56,23,13,Improv_Metronome,37,1,48,75,3356047700
56,23,13,Improv_Metronome,38,1,48,61,3356284360
56,23,13,Improv_Metronome,39,5,42,127,3356487104
56,23,13,Improv_Metronome,40,1,48,98,3356541756
56,23,13,Improv_Metronome,41,1,38,82,3356545032
56,23,13,Improv_Metronome,42,5,42,127,3356986688
56,23,13,Improv_Metronome,43,1,38,98,3357025488
56,23,13,Improv_Metronome,44,1,38,80,3357260056
56,23,13,Improv_Metronome,45,1,48,114,3357466728
56,23,13,Improv_Metronome,46,5,42,127,3357486580
56,23,13,Improv_Metronome,47,1,38,79,3357700712
56,23,13,Improv_Metronome,48,1,38,105,3357951956
56,23,13,Improv_Metronome,49,5,42,127,3357987148
56,23,13,Improv_Metronome,50,1,48,127,3358422240
56,23,13,Improv_Metronome,51,5,42,127,3358487068
56,23,13,Improv_Metronome,52,1,48,127,3358939832
56,23,13,Improv_Metronome,53,5,42,127,3358986540
56,23,13,Improv_Metronome,54,1,48,96,3359186212
56,23,13,Improv_Metronome,55,1,38,89,3359475032
56,23,13,Improv_Metronome,56,5,42,127,3359487332
56,23,13,Improv_Metronome,57,1,48,104,3359716948
56,23,13,Improv_Metronome,58,1,48,106,3359985500
56,23,13,Improv_Metronome,59,5,42,127,3359987304
56,23,13,Improv_Metronome,60,1,48,107,3360218644
56,23,13,Improv_Metronome,61,1,38,125,3360478344
56,23,13,Improv_Metronome,62,1,48,92,3360482060
56,23,13,Improv_Metronome,63,5,42,127,3360486732
56,23,13,Improv_Metronome,64,1,48,76,3360718840
56,23,13,Improv_Metronome,65,1,48,89,3360982136
56,23,13,Improv_Metronome,66,5,42,127,3360986452
56,23,13,Improv_Metronome,67,1,48,78,3361231156
56,23,13,Improv_Metronome,68,1,38,90,3361472980
56,23,13,Improv_Metronome,69,5,42,127,3361487300
56,23,13,Improv_Metronome,70,1,48,103,3361490940
56,23,13,Improv_Metronome,71,1,48,88,3361743284
56,23,13,Improv_Metronome,72,5,42,127,3361987016
56,23,13,Improv_Metronome,73,1,48,95,3361998736
56,23,13,Improv_Metronome,74,1,48,67,3362240712
56,23,13,Improv_Metronome,75,5,42,127,3362486760
56,23,13,Improv_Metronome,76,1,38,102,3362501780
56,23,13,Improv_Metronome,77,1,48,109,3362511628
56,23,13,Improv_Metronome,78,1,48,88,3362767264
56,23,13,Improv_Metronome,79,5,42,127,3362987436
56,23,13,Improv_Metronome,80,1,48,80,3363024660
56,23,13,Improv_Metronome,81,1,48,70,3363263344
56,23,13,Improv_Metronome,82,5,42,127,3363487032
56,23,13,Improv_Metronome,83,1,38,89,3363523364
56,23,13,Improv_Metronome,84,1,48,96,3363526556
56,23,13,Improv_Metronome,85,1,48,85,3363770452
56,23,13,Improv_Metronome,86,5,42,127,3363986884
56,23,13,Improv_Metronome,87,1,48,91,3364027924
56,23,13,Improv_Metronome,88,1,48,82,3364271248
56,23,13,Improv_Metronome,89,5,42,127,3364486404
56,23,13,Improv_Metronome,90,1,48,97,3364528940
56,23,13,Improv_Metronome,91,1,38,91,3364538496
56,23,13,Improv_Metronome,92,1,48,92,3364774236
56,23,13,Improv_Metronome,93,5,42,127,3364987152
56,23,13,Improv_Metronome,94,1,48,74,3365035524
56,23,13,Improv_Metronome,95,1,48,91,3365259396
56,23,13,Improv_Metronome,96,1,38,105,3365422460
56,23,13,Improv_Metronome,97,1,48,85,3365452060
56,23,13,Improv_Metronome,98,5,42,127,3365487020
56,23,13,Improv_Metronome,99,1,48,83,3365587036
56,23,13,Improv_Metronome,100,1,38,111,3365591876
56,23,13,Improv_Metronome,101,1,38,127,3365733292
56,23,13,Improv_Metronome,102,1,48,50,3365766708
56,23,13,Improv_Metronome,103,5,42,127,3365986644
56,23,13,Improv_Metronome,104,1,48,94,3366025592
56,23,13,Improv_Metronome,105,1,38,21,3366035524
56,23,13,Improv_Metronome,106,1,48,71,3366041932
56,23,13,Improv_Metronome,107,5,42,127,3366487392
56,23,13,Improv_Metronome,108,1,48,85,3366501132
56,23,13,Improv_Metronome,109,1,48,57,3366525496
56,23,13,Improv_Metronome,110,5,42,127,3366987064
56,23,13,Improv_Metronome,111,1,48,96,3367006640
56,23,13,Improv_Metronome,112,1,38,22,3367016340
56,23,13,Improv_Metronome,113,1,48,68,3367227172
56,23,13,Improv_Metronome,114,1,38,88,3367467280
56,23,13,Improv_Metronome,115,5,42,127,3367486908
56,23,13,Improv_Metronome,116,1,48,101,3367511348
56,23,13,Improv_Metronome,117,1,48,70,3367736984
56,23,13,Improv_Metronome,118,5,42,127,3367986484
56,23,13,Improv_Metronome,119,1,48,73,3367988044
56,23,13,Improv_Metronome,120,1,48,73,3368227236
56,23,13,Improv_Metronome,121,5,42,127,3368487200
56,23,13,Improv_Metronome,122,1,48,78,3368497652
56,23,13,Improv_Metronome,123,1,38,74,3368518348
56,23,13,Improv_Metronome,124,1,48,57,3368728956
56,23,13,Improv_Metronome,125,1,48,79,3368979832
56,23,13,Improv_Metronome,126,5,42,127,3368987120
56,23,13,Improv_Metronome,127,1,48,78,3369227204
56,23,13,Improv_Metronome,128,5,42,127,3369486724
56,23,13,Improv_Metronome,129,1,48,105,3369496728
56,23,13,Improv_Metronome,130,1,38,121,3369497304
56,23,13,Improv_Metronome,131,1,48,73,3369724968
56,23,13,Improv_Metronome,132,1,48,94,3369971728
56,23,13,Improv_Metronome,133,1,38,20,3369981132
56,23,13,Improv_Metronome,134,5,42,127,3369986396
56,23,13,Improv_Metronome,135,1,48,79,3370230348
56,23,13,Improv_Metronome,136,5,42,127,3370487096
56,23,13,Improv_Metronome,137,1,38,103,3370497844
56,23,13,Improv_Metronome,138,1,48,99,3370503736
56,23,13,Improv_Metronome,139,1,48,62,3370721824
56,23,13,Improv_Metronome,140,1,48,82,3370972328
56,23,13,Improv_Metronome,141,5,42,127,3370986792
56,23,13,Improv_Metronome,142,1,48,72,3371212948
56,23,13,Improv_Metronome,143,5,42,127,3371486696
56,23,13,Improv_Metronome,144,1,48,106,3371487736
56,23,13,Improv_Metronome,145,1,38,124,3371497432
56,23,13,Improv_Metronome,146,1,48,107,3371972304
56,23,13,Improv_Metronome,147,5,42,127,3371987444
56,23,13,Improv_Metronome,148,1,48,68,3372209880
56,23,13,Improv_Metronome,149,5,42,127,3372486976
56,23,13,Improv_Metronome,150,1,38,100,3372490168
56,23,13,Improv_Metronome,151,1,48,107,3372498980
56,23,13,Improv_Metronome,152,1,48,72,3372728732
56,23,13,Improv_Metronome,153,5,42,127,3372986748
56,23,13,Improv_Metronome,154,1,48,100,3372990244
56,23,13,Improv_Metronome,155,1,38,21,3373000172
56,23,13,Improv_Metronome,156,1,48,86,3373232768
56,23,13,Improv_Metronome,157,5,42,127,3373486376
56,23,13,Improv_Metronome,158,1,48,95,3373498620
56,23,13,Improv_Metronome,159,1,38,20,3373508628
56,23,13,Improv_Metronome,160,1,38,71,3373518252
56,23,13,Improv_Metronome,161,1,48,63,3373714644
56,23,13,Improv_Metronome,162,1,48,89,3373973524
56,23,13,Improv_Metronome,163,5,42,127,3373987168
56,23,13,Improv_Metronome,164,1,48,80,3374234136
56,23,13,Improv_Metronome,165,5,42,127,3374486996
56,23,13,Improv_Metronome,166,1,48,113,3374503356
56,23,13,Improv_Metronome,167,1,38,80,3374504012
56,23,13,Improv_Metronome,168,1,48,73,3374732564
56,23,13,Improv_Metronome,169,5,42,127,3374986692
56,23,13,Improv_Metronome,170,1,48,93,3374995796
56,23,13,Improv_Metronome,171,1,48,118,3375476248
56,23,13,Improv_Metronome,172,1,38,108,3375482512
56,23,13,Improv_Metronome,173,5,42,127,3375487332
56,23,13,Improv_Metronome,174,5,42,127,3375987008
56,23,13,Improv_Metronome,175,1,48,111,3376019524
56,23,13,Improv_Metronome,176,1,38,24,3376028852
56,23,13,Improv_Metronome,177,1,48,99,3376286500
56,23,13,Improv_Metronome,178,1,38,21,3376296356
56,23,13,Improv_Metronome,179,5,42,127,3376486808
56,23,13,Improv_Metronome,180,1,38,98,3376539820
56,23,13,Improv_Metronome,181,1,48,75,3376546904
56,23,13,Improv_Metronome,182,1,48,71,3376798952
56,23,13,Improv_Metronome,183,5,42,127,3376986508
56,23,13,Improv_Metronome,184,1,48,98,3377049020
56,23,13,Improv_Metronome,185,1,38,20,3377058876
56,23,13,Improv_Metronome,186,1,48,100,3377302460
56,23,13,Improv_Metronome,187,5,42,127,3377487108
56,23,13,Improv_Metronome,188,1,38,119,3377514308
56,23,13,Improv_Metronome,189,1,48,89,3377560144
56,23,13,Improv_Metronome,190,1,48,62,3377786244
56,23,13,Improv_Metronome,191,5,42,127,3377986968
56,23,13,Improv_Metronome,192,1,48,71,3378024720
56,23,13,Improv_Metronome,193,1,48,85,3378281732
56,23,13,Improv_Metronome,194,1,38,83,3378411880
56,23,13,Improv_Metronome,195,5,42,127,3378486784
56,23,13,Improv_Metronome,196,1,48,79,3378536860
56,23,13,Improv_Metronome,197,1,48,84,3378776588
56,23,13,Improv_Metronome,198,5,42,127,3378987488
56,23,13,Improv_Metronome,199,1,48,86,3378993228
56,23,13,Improv_Metronome,200,1,48,48,3379024920
56,23,13,Improv_Metronome,201,1,48,67,3379260688
56,23,13,Improv_Metronome,202,1,38,115,3379403304
56,23,13,Improv_Metronome,203,5,42,127,3379487132
56,23,13,Improv_Metronome,204,1,48,66,3379507292
56,23,13,Improv_Metronome,205,1,48,75,3379970840
56,23,13,Improv_Metronome,206,1,38,76,3379979120
56,23,13,Improv_Metronome,207,5,42,127,3379986860
56,23,13,Improv_Metronome,208,1,48,61,3380231264
56,23,13,Improv_Metronome,209,1,38,64,3380273052
56,23,13,Improv_Metronome,210,5,42,127,3380486764
56,23,13,Improv_Metronome,211,1,48,89,3380488552
56,23,13,Improv_Metronome,212,1,38,21,3380498328
56,23,13,Improv_Metronome,213,1,48,82,3380723896
56,23,13,Improv_Metronome,214,1,48,79,3380985480
56,23,13,Improv_Metronome,215,5,42,127,3380987144
56,23,13,Improv_Metronome,216,1,48,67,3381217512
56,23,13,Improv_Metronome,217,1,48,84,3381483720
56,23,13,Improv_Metronome,218,5,42,127,3381487040
56,23,13,Improv_Metronome,219,1,38,75,3381488008
56,23,13,Improv_Metronome,220,1,48,64,3381714132
56,23,13,Improv_Metronome,221,1,48,78,3381971360
56,23,13,Improv_Metronome,222,5,42,127,3381986752
56,23,13,Improv_Metronome,223,1,48,76,3382214100
56,23,13,Improv_Metronome,224,1,48,95,3382479336
56,23,13,Improv_Metronome,225,1,38,77,3382482608
56,23,13,Improv_Metronome,226,5,42,127,3382487504
56,23,13,Improv_Metronome,227,1,48,75,3382707740
56,23,13,Improv_Metronome,228,1,48,92,3382969836
56,23,13,Improv_Metronome,229,5,42,127,3382986996
56,23,13,Improv_Metronome,230,1,48,53,3382999528
56,23,13,Improv_Metronome,231,1,48,94,3383465764
56,23,13,Improv_Metronome,232,5,42,127,3383486744
56,23,13,Improv_Metronome,233,1,38,85,3383488684
56,23,13,Improv_Metronome,234,1,48,53,3383495376
56,23,13,Improv_Metronome,235,5,42,127,3383986688
56,23,13,Improv_Metronome,236,1,48,105,3384018232
56,23,13,Improv_Metronome,237,1,38,22,3384028272
56,23,13,Improv_Metronome,238,1,48,99,3384267496
56,23,13,Improv_Metronome,239,5,42,127,3384487220
56,23,13,Improv_Metronome,240,1,48,86,3384528488
56,23,13,Improv_Metronome,241,1,38,91,3384534452
56,23,13,Improv_Metronome,242,1,48,72,3384751864
56,23,13,Improv_Metronome,243,5,42,127,3384986996
56,23,13,Improv_Metronome,244,1,48,86,3385006572
56,23,13,Improv_Metronome,245,1,48,94,3385256916
56,23,13,Improv_Metronome,246,5,42,127,3385486744
56,23,13,Improv_Metronome,247,1,48,114,3385523144
56,23,13,Improv_Metronome,248,1,38,81,3385525596
56,23,13,Improv_Metronome,249,1,48,78,3385750112
56,23,13,Improv_Metronome,250,5,42,127,3385986588
56,23,13,Improv_Metronome,251,1,48,106,3386017608
56,23,13,Improv_Metronome,252,1,38,21,3386027536
56,23,13,Improv_Metronome,253,1,48,85,3386264772
56,23,13,Improv_Metronome,254,5,42,127,3386487188
56,23,13,Improv_Metronome,255,1,48,87,3386544980
56,23,13,Improv_Metronome,256,1,38,104,3386548332
56,23,13,Improv_Metronome,257,1,48,71,3386796484
56,23,13,Improv_Metronome,258,5,42,127,3386986736
56,23,13,Improv_Metronome,259,1,48,127,3387051268
56,23,13,Improv_Metronome,260,1,48,45,3387108416
56,23,13,Improv_Metronome,261,5,42,127,3387486708
56,23,13,Improv_Metronome,262,1,48,127,3387542936
56,23,13,Improv_Metronome,263,1,38,110,3387547852
56,23,13,Improv_Metronome,264,5,42,127,3387987252
56,23,13,Improv_Metronome,265,1,48,126,3388060160
56,23,13,Improv_Metronome,266,1,48,117,3388314324
56,23,13,Improv_Metronome,267,5,42,127,3388486924
56,23,13,Improv_Metronome,268,1,38,102,3388563868
56,23,13,Improv_Metronome,269,1,48,121,3388831876
56,23,13,Improv_Metronome,270,5,42,127,3388986672
56,23,13,Improv_Metronome,271,1,48,106,3389068176
56,23,13,Improv_Metronome,272,1,38,22,3389077584
56,23,13,Improv_Metronome,273,1,48,56,3389097308
56,23,13,Improv_Metronome,274,5,42,127,3389486672
56,23,13,Improv_Metronome,275,1,38,119,3389543268
56,23,13,Improv_Metronome,276,5,42,127,3389987412
56,23,13,Improv_Metronome,277,1,48,127,3390054112
56,23,13,Improv_Metronome,278,1,48,127,3390294368
56,23,13,Improv_Metronome,279,5,42,127,3390487012
56,23,13,Improv_Metronome,280,1,38,116,3390532316
56,23,13,Improv_Metronome,281,1,48,127,3390750056
56,23,13,Improv_Metronome,282,5,42,127,3390986684
56,23,13,Improv_Metronome,283,1,38,120,3391028100
56,23,13,Improv_Metronome,284,5,42,127,3391487280
56,23,13,Improv_Metronome,285,1,48,127,3391809432
56,23,13,Improv_Metronome,286,5,42,127,3391987124
56,23,13,Improv_Metronome,287,1,48,127,3392081124
56,23,13,Improv_Metronome,288,1,38,101,3392360720
56,23,13,Improv_Metronome,289,5,42,127,3392486724
56,23,13,Improv_Metronome,290,1,48,79,3392605332
56,23,13,Improv_Metronome,291,1,48,90,3392883132
56,23,13,Improv_Metronome,292,5,42,127,3392986472
56,23,13,Improv_Metronome,293,1,48,93,3393140380
56,23,13,Improv_Metronome,294,1,38,114,3393406140
56,23,13,Improv_Metronome,295,1,48,127,3393417940
56,23,13,Improv_Metronome,296,5,42,127,3393487236
56,23,13,Improv_Metronome,297,1,48,84,3393672324
56,23,13,Improv_Metronome,298,1,48,99,3393941972
56,23,13,Improv_Metronome,299,1,38,21,3393951520
56,23,13,Improv_Metronome,300,5,42,127,3393986860
56,23,13,Improv_Metronome,301,1,48,82,3394188552
56,23,13,Improv_Metronome,302,1,38,127,3394456928
56,23,13,Improv_Metronome,303,1,48,109,3394476208
56,23,13,Improv_Metronome,304,5,42,127,3394486636
56,23,13,Improv_Metronome,305,1,48,67,3394742780
56,23,13,Improv_Metronome,306,5,42,127,3394987484
56,23,13,Improv_Metronome,307,1,48,82,3395028376
56,23,13,Improv_Metronome,308,5,42,127,3395487028
56,23,13,Improv_Metronome,309,1,38,88,3395516100
56,23,13,Improv_Metronome,310,1,48,127,3395520420
56,23,13,Improv_Metronome,311,5,42,127,3395986752
56,23,13,Improv_Metronome,312,1,48,113,3396056392
56,23,13,Improv_Metronome,313,1,38,24,3396065944
56,23,13,Improv_Metronome,314,1,48,80,3396324944
56,23,13,Improv_Metronome,315,1,38,19,3396334500
56,23,13,Improv_Metronome,316,5,42,127,3396486556
56,23,13,Improv_Metronome,317,1,38,94,3396590228
56,23,13,Improv_Metronome,318,1,48,87,3396605764
56,23,13,Improv_Metronome,319,1,48,79,3396857360
56,23,13,Improv_Metronome,320,5,42,127,3396987228
56,23,13,Improv_Metronome,321,1,48,80,3397116936
56,23,13,Improv_Metronome,322,1,48,70,3397338108
56,23,13,Improv_Metronome,323,5,42,127,3397486904
56,23,13,Improv_Metronome,324,1,48,117,3397611220
56,23,13,Improv_Metronome,325,1,38,99,3397619056
56,23,13,Improv_Metronome,326,5,42,127,3397986624
56,23,13,Improv_Metronome,327,1,48,81,3398099620
56,23,13,Improv_Metronome,328,1,48,63,3398349744
56,23,13,Improv_Metronome,329,5,42,127,3398487344
56,23,13,Improv_Metronome,330,1,48,86,3398623256
56,23,13,Improv_Metronome,331,1,38,78,3398626524
56,23,13,Improv_Metronome,332,1,48,65,3398849600
56,23,13,Improv_Metronome,333,5,42,127,3398987116
56,23,13,Improv_Metronome,334,1,48,77,3399104376
56,23,13,Improv_Metronome,335,1,48,49,3399136620
56,23,13,Improv_Metronome,336,5,42,127,3399486792
56,23,13,Improv_Metronome,337,1,48,105,3399580716
56,23,13,Improv_Metronome,338,1,38,78,3399583988
56,23,13,Improv_Metronome,339,5,42,127,3399986512
56,23,13,Improv_Metronome,340,1,48,100,3400085752
56,23,13,Improv_Metronome,341,1,48,91,3400329520
56,23,13,Improv_Metronome,342,5,42,127,3400487232
56,23,13,Improv_Metronome,343,1,48,84,3400597912
56,23,13,Improv_Metronome,344,1,38,76,3400601184
56,23,13,Improv_Metronome,345,5,42,127,3400986956
56,23,13,Improv_Metronome,346,1,48,76,3401060612
56,23,13,Improv_Metronome,347,1,48,76,3401314552
56,23,13,Improv_Metronome,348,5,42,127,3401486556
56,23,13,Improv_Metronome,349,1,48,106,3401572176
56,23,13,Improv_Metronome,350,1,38,94,3401575524
56,23,13,Improv_Metronome,351,5,42,127,3401986424
56,23,13,Improv_Metronome,352,1,48,100,3402082292
56,23,13,Improv_Metronome,353,1,48,89,3402325984
56,23,13,Improv_Metronome,354,5,42,127,3402487072
56,23,13,Improv_Metronome,355,1,38,119,3402568648
56,23,13,Improv_Metronome,356,1,48,95,3402574616
56,23,13,Improv_Metronome,357,1,48,74,3402812296
56,23,13,Improv_Metronome,358,5,42,127,3402986920
56,23,13,Improv_Metronome,359,1,48,87,3403066108
56,23,13,Improv_Metronome,360,5,42,127,3403486688
56,23,13,Improv_Metronome,361,1,48,102,3403549272
56,23,13,Improv_Metronome,362,1,38,85,3403552544
56,23,13,Improv_Metronome,363,1,48,42,3403590368
56,23,13,Improv_Metronome,364,5,42,127,3403987260
56,23,13,Improv_Metronome,365,1,48,111,3404063556
56,23,13,Improv_Metronome,366,1,38,22,3404073264
56,23,13,Improv_Metronome,367,1,48,92,3404303392
56,23,13,Improv_Metronome,368,1,38,20,3404313316
56,23,13,Improv_Metronome,369,5,42,127,3404487212
56,23,13,Improv_Metronome,370,1,38,70,3404537848
56,23,13,Improv_Metronome,371,1,48,99,3404560724
56,23,13,Improv_Metronome,372,1,48,79,3404786288
56,23,13,Improv_Metronome,373,5,42,127,3404986688
56,23,13,Improv_Metronome,374,1,48,82,3405042640
56,23,13,Improv_Metronome,375,1,48,81,3405278780
56,23,13,Improv_Metronome,376,5,42,127,3405486364
56,23,13,Improv_Metronome,377,1,38,94,3405520004
56,23,13,Improv_Metronome,378,1,48,92,3405528100
56,23,13,Improv_Metronome,379,1,48,71,3405750568
56,23,13,Improv_Metronome,380,5,42,127,3405987196
56,23,13,Improv_Metronome,381,1,48,73,3406015072
56,23,13,Improv_Metronome,382,1,48,78,3406269384
56,23,13,Improv_Metronome,383,5,42,127,3406487092
56,23,13,Improv_Metronome,384,1,48,87,3406543540
56,23,13,Improv_Metronome,385,1,38,78,3406553212
56,23,13,Improv_Metronome,386,1,48,54,3406769400
56,23,13,Improv_Metronome,387,5,42,127,3406986580
56,23,13,Improv_Metronome,388,1,48,75,3407027020
56,23,13,Improv_Metronome,389,1,48,56,3407273116
56,23,13,Improv_Metronome,390,5,42,127,3407487224
56,23,13,Improv_Metronome,391,1,38,77,3407527592
56,23,13,Improv_Metronome,392,1,48,87,3407530788
56,23,13,Improv_Metronome,393,1,48,67,3407758824
56,23,13,Improv_Metronome,394,5,42,127,3407987148
56,23,13,Improv_Metronome,395,1,48,70,3408052428
56,23,13,Improv_Metronome,396,1,48,71,3408291704
56,23,13,Improv_Metronome,397,5,42,127,3408486748
56,23,13,Improv_Metronome,398,1,48,85,3408566832
56,23,13,Improv_Metronome,399,1,38,90,3408580652
56,23,13,Improv_Metronome,400,1,48,61,3408783028
56,23,13,Improv_Metronome,401,5,42,127,3408986448
56,23,13,Improv_Metronome,402,1,48,68,3409022556
56,23,13,Improv_Metronome,403,1,48,65,3409277612
56,23,13,Improv_Metronome,404,5,42,127,3409487168
56,23,13,Improv_Metronome,405,1,48,87,3409540404
56,23,13,Improv_Metronome,406,1,38,127,3409546368
56,23,13,Improv_Metronome,407,1,48,56,3409770060
56,23,13,Improv_Metronome,408,5,42,127,3409987092
56,23,13,Improv_Metronome,409,1,48,79,3410049600
56,23,13,Improv_Metronome,410,1,48,84,3410300624
56,23,13,Improv_Metronome,411,5,42,127,3410486764
56,23,13,Improv_Metronome,412,1,48,123,3410569092
56,23,13,Improv_Metronome,413,1,38,87,3410572444
56,23,13,Improv_Metronome,414,1,48,48,3410804812
56,23,13,Improv_Metronome,415,5,42,127,3410987412
56,23,13,Improv_Metronome,416,1,48,125,3411091208
56,23,13,Improv_Metronome,417,5,42,127,3411487032
56,23,13,Improv_Metronome,418,1,48,91,3411585668
56,23,13,Improv_Metronome,419,1,38,47,3411603076
56,23,13,Improv_Metronome,420,5,42,127,3411986976
56,23,13,Improv_Metronome,421,1,48,87,3412082024
56,23,13,Improv_Metronome,422,1,48,70,3412349872
56,23,13,Improv_Metronome,423,5,42,127,3412486796
56,23,13,Improv_Metronome,424,1,38,65,3412587452
56,23,13,Improv_Metronome,425,1,48,91,3412594020
56,23,13,Improv_Metronome,426,1,48,61,3412838436
56,23,13,Improv_Metronome,427,5,42,127,3412987320
56,23,13,Improv_Metronome,428,1,48,75,3413116400
56,23,13,Improv_Metronome,429,1,48,57,3413355380
56,23,13,Improv_Metronome,430,5,42,127,3413487068
56,23,13,Improv_Metronome,431,1,38,70,3413595948
56,23,13,Improv_Metronome,432,1,48,82,3413603416
56,23,13,Improv_Metronome,433,1,48,38,3413814396
56,23,13,Improv_Metronome,434,5,42,127,3413986844
56,23,13,Improv_Metronome,435,1,48,75,3414057208
56,23,13,Improv_Metronome,436,1,48,66,3414304712
56,23,13,Improv_Metronome,437,5,42,127,3414487340
56,23,13,Improv_Metronome,438,1,38,76,3414533172
56,23,13,Improv_Metronome,439,1,48,83,3414541604
56,23,13,Improv_Metronome,440,1,48,52,3414763804
56,23,13,Improv_Metronome,441,5,42,127,3414987092
56,23,13,Improv_Metronome,442,1,48,72,3415013724
56,23,13,Improv_Metronome,443,1,48,106,3415477920
56,23,13,Improv_Metronome,444,5,42,127,3415487004
56,23,13,Improv_Metronome,445,1,38,22,3415487972
56,23,13,Improv_Metronome,446,1,38,73,3415492724
56,23,13,Improv_Metronome,447,5,42,127,3415986500
56,23,13,Improv_Metronome,448,1,48,86,3416009664
56,23,13,Improv_Metronome,449,1,48,79,3416255376
56,23,13,Improv_Metronome,450,5,42,127,3416487220
56,23,13,Improv_Metronome,451,1,48,96,3416508888
56,23,13,Improv_Metronome,452,1,38,93,3416512160
56,23,13,Improv_Metronome,453,1,48,69,3416747228
56,23,13,Improv_Metronome,454,5,42,127,3416986920
56,23,13,Improv_Metronome,455,1,48,85,3417005672
56,23,13,Improv_Metronome,456,1,48,53,3417039828
56,23,13,Improv_Metronome,457,1,48,106,3417482888
56,23,13,Improv_Metronome,458,1,38,114,3417486352
56,23,13,Improv_Metronome,459,5,42,127,3417489332
56,23,13,Improv_Metronome,460,5,42,127,3417986392
56,23,13,Improv_Metronome,461,1,48,78,3418011276
56,23,13,Improv_Metronome,462,1,48,69,3418264992
56,23,13,Improv_Metronome,463,5,42,127,3418487108
56,23,13,Improv_Metronome,464,1,48,105,3418528152
56,23,13,Improv_Metronome,465,1,38,80,3418530672
56,23,13,Improv_Metronome,466,1,48,73,3418745392
56,23,13,Improv_Metronome,467,5,42,127,3418986956
56,23,13,Improv_Metronome,468,1,48,95,3418992920
56,23,13,Improv_Metronome,469,1,38,21,3419002928
56,23,13,Improv_Metronome,470,1,48,58,3419021976
56,23,13,Improv_Metronome,471,5,42,127,3419486732
56,23,13,Improv_Metronome,472,1,48,98,3419497328
56,23,13,Improv_Metronome,473,1,38,89,3419507184
56,23,13,Improv_Metronome,474,5,42,127,3419987280
56,23,13,Improv_Metronome,475,1,48,80,3420036548
56,23,13,Improv_Metronome,476,1,48,68,3420269996
56,23,13,Improv_Metronome,0,9999,9999,9999,3350485044
56,23,13,Improv_Metronome,1,9999,9999,9999,3350984760
56,23,13,Improv_Metronome,2,9999,9999,9999,3351484508
56,23,13,Improv_Metronome,3,9999,9999,9999,3351984220
56,23,13,Improv_Metronome,4,9999,9999,9999,3352484936
56,23,13,Improv_Metronome,5,9999,9999,9999,3352984636
56,23,13,Improv_Metronome,6,9999,9999,9999,3353484384
56,23,13,Improv_Metronome,7,9999,9999,9999,3353984084
56,23,13,Improv_Metronome,8,9999,9999,9999,3354484804
56,23,13,Improv_Metronome,9,9999,9999,9999,3354984504
56,23,13,Improv_Metronome,10,9999,9999,9999,3355484252
56,23,13,Improv_Metronome,11,9999,9999,9999,3355984996
56,23,13,Improv_Metronome,12,9999,9999,9999,3356484668
56,23,13,Improv_Metronome,13,9999,9999,9999,3356984404
56,23,13,Improv_Metronome,14,9999,9999,9999,3357484144
56,23,13,Improv_Metronome,15,9999,9999,9999,3357984864
56,23,13,Improv_Metronome,16,9999,9999,9999,3358484556
56,23,13,Improv_Metronome,17,9999,9999,9999,3358984252
56,23,13,Improv_Metronome,18,9999,9999,9999,3359485044
56,23,13,Improv_Metronome,19,9999,9999,9999,3359984728
56,23,13,Improv_Metronome,20,9999,9999,9999,3360484448
56,23,13,Improv_Metronome,21,9999,9999,9999,3360984144
56,23,13,Improv_Metronome,22,9999,9999,9999,3361484864
56,23,13,Improv_Metronome,23,9999,9999,9999,3361984580
56,23,13,Improv_Metronome,24,9999,9999,9999,3362484328
56,23,13,Improv_Metronome,25,9999,9999,9999,3362985072
56,23,13,Improv_Metronome,26,9999,9999,9999,3363484748
56,23,13,Improv_Metronome,27,9999,9999,9999,3363984448
56,23,13,Improv_Metronome,28,9999,9999,9999,3364484192
56,23,13,Improv_Metronome,29,9999,9999,9999,3364984940
56,23,13,Improv_Metronome,30,9999,9999,9999,3365484660
56,23,13,Improv_Metronome,31,9999,9999,9999,3365984356
56,23,13,Improv_Metronome,32,9999,9999,9999,3366485104
56,23,13,Improv_Metronome,33,9999,9999,9999,3366984780
56,23,13,Improv_Metronome,34,9999,9999,9999,3367484472
56,23,13,Improv_Metronome,35,9999,9999,9999,3367984196
56,23,13,Improv_Metronome,36,9999,9999,9999,3368484916
56,23,13,Improv_Metronome,37,9999,9999,9999,3368984684
56,23,13,Improv_Metronome,38,9999,9999,9999,3369484364
56,23,13,Improv_Metronome,39,9999,9999,9999,3369984112
56,23,13,Improv_Metronome,40,9999,9999,9999,3370484812
56,23,13,Improv_Metronome,41,9999,9999,9999,3370984508
56,23,13,Improv_Metronome,42,9999,9999,9999,3371484260
56,23,13,Improv_Metronome,43,9999,9999,9999,3371985008
56,23,13,Improv_Metronome,44,9999,9999,9999,3372484688
56,23,13,Improv_Metronome,45,9999,9999,9999,3372984388
56,23,13,Improv_Metronome,46,9999,9999,9999,3373484088
56,23,13,Improv_Metronome,47,9999,9999,9999,3373984880
56,23,13,Improv_Metronome,48,9999,9999,9999,3374484560
56,23,13,Improv_Metronome,49,9999,9999,9999,3374984256
56,23,13,Improv_Metronome,50,9999,9999,9999,3375485048
56,23,13,Improv_Metronome,51,9999,9999,9999,3375984720
56,23,13,Improv_Metronome,52,9999,9999,9999,3376484448
56,23,13,Improv_Metronome,53,9999,9999,9999,3376984148
56,23,13,Improv_Metronome,54,9999,9999,9999,3377484896
56,23,13,Improv_Metronome,55,9999,9999,9999,3377984608
56,23,13,Improv_Metronome,56,9999,9999,9999,3378484276
56,23,13,Improv_Metronome,57,9999,9999,9999,3378985052
56,23,13,Improv_Metronome,58,9999,9999,9999,3379484772
56,23,13,Improv_Metronome,59,9999,9999,9999,3379984500
56,23,13,Improv_Metronome,60,9999,9999,9999,3380484180
56,23,13,Improv_Metronome,61,9999,9999,9999,3380984884
56,23,13,Improv_Metronome,62,9999,9999,9999,3381484608
56,23,13,Improv_Metronome,63,9999,9999,9999,3381984316
56,23,13,Improv_Metronome,64,9999,9999,9999,3382485068
56,23,13,Improv_Metronome,65,9999,9999,9999,3382984788
56,23,13,Improv_Metronome,66,9999,9999,9999,3383484532
56,23,13,Improv_Metronome,67,9999,9999,9999,3383984176
56,23,13,Improv_Metronome,68,9999,9999,9999,3384484936
56,23,13,Improv_Metronome,69,9999,9999,9999,3384984636
56,23,13,Improv_Metronome,70,9999,9999,9999,3385484380
56,23,13,Improv_Metronome,71,9999,9999,9999,3385984080
56,23,13,Improv_Metronome,72,9999,9999,9999,3386484824
56,23,13,Improv_Metronome,73,9999,9999,9999,3386984524
56,23,13,Improv_Metronome,74,9999,9999,9999,3387484272
56,23,13,Improv_Metronome,75,9999,9999,9999,3387984968
56,23,13,Improv_Metronome,76,9999,9999,9999,3388484712
56,23,13,Improv_Metronome,77,9999,9999,9999,3388984384
56,23,13,Improv_Metronome,78,9999,9999,9999,3389484084
56,23,13,Improv_Metronome,79,9999,9999,9999,3389984828
56,23,13,Improv_Metronome,80,9999,9999,9999,3390484576
56,23,13,Improv_Metronome,81,9999,9999,9999,3390984248
56,23,13,Improv_Metronome,82,9999,9999,9999,3391484992
56,23,13,Improv_Metronome,83,9999,9999,9999,3391984688
56,23,13,Improv_Metronome,84,9999,9999,9999,3392484436
56,23,13,Improv_Metronome,85,9999,9999,9999,3392984184
56,23,13,Improv_Metronome,86,9999,9999,9999,3393484876
56,23,13,Improv_Metronome,87,9999,9999,9999,3393984576
56,23,13,Improv_Metronome,88,9999,9999,9999,3394484276
56,23,13,Improv_Metronome,89,9999,9999,9999,3394985048
56,23,13,Improv_Metronome,90,9999,9999,9999,3395484740
56,23,13,Improv_Metronome,91,9999,9999,9999,3395984468
56,23,13,Improv_Metronome,92,9999,9999,9999,3396484196
56,23,13,Improv_Metronome,93,9999,9999,9999,3396984944
56,23,13,Improv_Metronome,94,9999,9999,9999,3397484616
56,23,13,Improv_Metronome,95,9999,9999,9999,3397984336
56,23,13,Improv_Metronome,96,9999,9999,9999,3398485056
56,23,13,Improv_Metronome,97,9999,9999,9999,3398984756
56,23,13,Improv_Metronome,98,9999,9999,9999,3399484504
56,23,13,Improv_Metronome,99,9999,9999,9999,3399984228
56,23,13,Improv_Metronome,100,9999,9999,9999,3400484944
56,23,13,Improv_Metronome,101,9999,9999,9999,3400984668
56,23,13,Improv_Metronome,102,9999,9999,9999,3401484344
56,23,13,Improv_Metronome,103,9999,9999,9999,3401984064
56,23,13,Improv_Metronome,104,9999,9999,9999,3402484784
56,23,13,Improv_Metronome,105,9999,9999,9999,3402984560
56,23,13,Improv_Metronome,106,9999,9999,9999,3403484252
56,23,13,Improv_Metronome,107,9999,9999,9999,3403984976
56,23,13,Improv_Metronome,108,9999,9999,9999,3404484704
56,23,13,Improv_Metronome,109,9999,9999,9999,3404984404
56,23,13,Improv_Metronome,110,9999,9999,9999,3405484152
56,23,13,Improv_Metronome,111,9999,9999,9999,3405984832
56,23,13,Improv_Metronome,112,9999,9999,9999,3406484580
56,23,13,Improv_Metronome,113,9999,9999,9999,3406984292
56,23,13,Improv_Metronome,114,9999,9999,9999,3407485012
56,23,13,Improv_Metronome,115,9999,9999,9999,3407984716
56,23,13,Improv_Metronome,116,9999,9999,9999,3408484460
56,23,13,Improv_Metronome,117,9999,9999,9999,3408984160
56,23,13,Improv_Metronome,118,9999,9999,9999,3409484880
56,23,13,Improv_Metronome,119,9999,9999,9999,3409984580
56,23,13,Improv_Metronome,120,9999,9999,9999,3410484328
56,23,13,Improv_Metronome,121,9999,9999,9999,3410985048
56,23,13,Improv_Metronome,122,9999,9999,9999,3411484744
56,23,13,Improv_Metronome,123,9999,9999,9999,3411984468
56,23,13,Improv_Metronome,124,9999,9999,9999,3412484212
56,23,13,Improv_Metronome,125,9999,9999,9999,3412984884
56,23,13,Improv_Metronome,126,9999,9999,9999,3413484632
56,23,13,Improv_Metronome,127,9999,9999,9999,3413984336
56,23,13,Improv_Metronome,128,9999,9999,9999,3414485104
56,23,13,Improv_Metronome,129,9999,9999,9999,3414984804
56,23,13,Improv_Metronome,130,9999,9999,9999,3415484496
56,23,13,Improv_Metronome,131,9999,9999,9999,3415984212
56,23,13,Improv_Metronome,132,9999,9999,9999,3416484932
56,23,13,Improv_Metronome,133,9999,9999,9999,3416984632
56,23,13,Improv_Metronome,134,9999,9999,9999,3417484376
56,23,13,Improv_Metronome,135,9999,9999,9999,3417984104
56,23,13,Improv_Metronome,136,9999,9999,9999,3418484824
56,23,13,Improv_Metronome,137,9999,9999,9999,3418984524
56,23,13,Improv_Metronome,138,9999,9999,9999,3419484220
56,23,13,Improv_Metronome,139,9999,9999,9999,3419984992
56,24,14,Improv_Melody,0,2,48,80,3470421664
56,24,14,Improv_Melody,1,2,72,80,3470423520
56,24,14,Improv_Melody,2,5,42,127,3470426052
56,24,14,Improv_Melody,3,5,42,110,3470919120
56,24,14,Improv_Melody,4,5,42,110,3471418696
56,24,14,Improv_Melody,5,5,42,110,3471918568
56,24,14,Improv_Melody,6,5,42,127,3472419036
56,24,14,Improv_Melody,7,5,42,110,3472918984
56,24,14,Improv_Melody,8,5,42,110,3473418480
56,24,14,Improv_Melody,9,5,42,110,3473919472
56,24,14,Improv_Melody,10,2,43,80,3474421548
56,24,14,Improv_Melody,11,2,67,80,3474423628
56,24,14,Improv_Melody,12,5,42,127,3474426536
56,24,14,Improv_Melody,13,5,42,110,3474918704
56,24,14,Improv_Melody,14,5,42,110,3475418652
56,24,14,Improv_Melody,15,5,42,110,3475919320
56,24,14,Improv_Melody,16,1,48,96,3476394164
56,24,14,Improv_Melody,17,5,42,127,3476418812
56,24,14,Improv_Melody,18,5,42,110,3476918816
56,24,14,Improv_Melody,19,5,42,110,3477419288
56,24,14,Improv_Melody,20,5,42,110,3477919084
56,24,14,Improv_Melody,21,2,45,80,3478421460
56,24,14,Improv_Melody,22,1,48,103,3478423548
56,24,14,Improv_Melody,23,2,69,80,3478425264
56,24,14,Improv_Melody,24,5,42,127,3478427572
56,24,14,Improv_Melody,25,5,42,110,3478918532
56,24,14,Improv_Melody,26,5,42,110,3479419304
56,24,14,Improv_Melody,27,5,42,110,3479918948
56,24,14,Improv_Melody,28,1,48,93,3480405756
56,24,14,Improv_Melody,29,5,42,127,3480418664
56,24,14,Improv_Melody,30,5,42,110,3480919344
56,24,14,Improv_Melody,31,5,42,110,3481419212
56,24,14,Improv_Melody,32,1,48,114,3481899444
56,24,14,Improv_Melody,33,5,42,110,3481918708
56,24,14,Improv_Melody,34,2,41,80,3482420916
56,24,14,Improv_Melody,35,2,65,80,3482423220
56,24,14,Improv_Melody,36,5,42,127,3482425684
56,24,14,Improv_Melody,37,5,42,110,3482919196
56,24,14,Improv_Melody,38,1,48,101,3482956872
56,24,14,Improv_Melody,39,5,42,110,3483419120
56,24,14,Improv_Melody,40,1,48,83,3483871380
56,24,14,Improv_Melody,41,5,42,110,3483918684
56,24,14,Improv_Melody,42,1,48,49,3484283312
56,24,14,Improv_Melody,43,5,42,127,3484418368
56,24,14,Improv_Melody,44,1,48,101,3484756456
56,24,14,Improv_Melody,45,5,42,110,3484919264
56,24,14,Improv_Melody,46,1,48,79,3485274188
56,24,14,Improv_Melody,47,5,42,110,3485418892
56,24,14,Improv_Melody,48,1,48,94,3485798340
56,24,14,Improv_Melody,49,5,42,110,3485918516
56,24,14,Improv_Melody,50,1,48,100,3486378376
56,24,14,Improv_Melody,51,2,48,80,3486421780
56,24,14,Improv_Melody,52,2,72,80,3486424008
56,24,14,Improv_Melody,53,5,42,127,3486426472
56,24,14,Improv_Melody,54,5,42,110,3486919124
56,24,14,Improv_Melody,55,1,48,78,3486921716
56,24,14,Improv_Melody,56,5,42,110,3487418896
56,24,14,Improv_Melody,57,1,48,111,3487450988
56,24,14,Improv_Melody,58,5,42,110,3487918376
56,24,14,Improv_Melody,59,1,48,108,3487942888
56,24,14,Improv_Melody,60,5,42,127,3488419192
56,24,14,Improv_Melody,61,1,38,97,3488469236
56,24,14,Improv_Melody,62,1,48,91,3488474604
56,24,14,Improv_Melody,63,1,48,84,3488915956
56,24,14,Improv_Melody,64,5,42,110,3488918840
56,24,14,Improv_Melody,65,5,42,110,3489418472
56,24,14,Improv_Melody,66,1,48,95,3489448292
56,24,14,Improv_Melody,67,1,38,111,3489905632
56,24,14,Improv_Melody,68,1,48,90,3489913468
56,24,14,Improv_Melody,69,5,42,110,3489919488
56,24,14,Improv_Melody,70,1,48,70,3490345536
56,24,14,Improv_Melody,71,2,43,80,3490421608
56,24,14,Improv_Melody,72,2,67,80,3490423912
56,24,14,Improv_Melody,73,5,42,127,3490426368
56,24,14,Improv_Melody,74,1,48,80,3490884364
56,24,14,Improv_Melody,75,5,42,110,3490918812
56,24,14,Improv_Melody,76,1,38,79,3491400000
56,24,14,Improv_Melody,77,1,48,76,3491404844
56,24,14,Improv_Melody,78,5,42,110,3491418492
56,24,14,Improv_Melody,79,1,48,81,3491839812
56,24,14,Improv_Melody,80,5,42,110,3491919136
56,24,14,Improv_Melody,81,1,48,76,3492342132
56,24,14,Improv_Melody,82,5,42,127,3492419136
56,24,14,Improv_Melody,83,1,38,101,3492887380
56,24,14,Improv_Melody,84,5,42,110,3492918760
56,24,14,Improv_Melody,85,1,48,94,3493309492
56,24,14,Improv_Melody,86,5,42,110,3493419344
56,24,14,Improv_Melody,87,1,48,84,3493811216
56,24,14,Improv_Melody,88,5,42,110,3493919120
56,24,14,Improv_Melody,89,1,48,67,3494329912
56,24,14,Improv_Melody,90,2,45,80,3494421340
56,24,14,Improv_Melody,91,2,69,80,3494423644
56,24,14,Improv_Melody,92,5,42,127,3494426176
56,24,14,Improv_Melody,93,1,38,75,3494871008
56,24,14,Improv_Melody,94,1,48,122,3494877120
56,24,14,Improv_Melody,95,5,42,110,3494918380
56,24,14,Improv_Melody,96,1,48,99,3495405748
56,24,14,Improv_Melody,97,5,42,110,3495419248
56,24,14,Improv_Melody,98,1,48,90,3495899008
56,24,14,Improv_Melody,99,5,42,110,3495918872
56,24,14,Improv_Melody,100,1,48,90,3496416060
56,24,14,Improv_Melody,101,1,38,70,3496416660
56,24,14,Improv_Melody,102,5,42,127,3496420648
56,24,14,Improv_Melody,103,1,48,75,3496854280
56,24,14,Improv_Melody,104,5,42,110,3496919348
56,24,14,Improv_Melody,105,1,48,95,3497380832
56,24,14,Improv_Melody,106,5,42,110,3497419092
56,24,14,Improv_Melody,107,1,38,123,3497917596
56,24,14,Improv_Melody,108,5,42,110,3497919916
56,24,14,Improv_Melody,109,1,48,96,3498411500
56,24,14,Improv_Melody,110,2,41,80,3498421224
56,24,14,Improv_Melody,111,2,65,80,3498423528
56,24,14,Improv_Melody,112,5,42,127,3498426132
56,24,14,Improv_Melody,113,1,38,84,3498901936
56,24,14,Improv_Melody,114,5,42,110,3498919252
56,24,14,Improv_Melody,115,1,48,104,3499415024
56,24,14,Improv_Melody,116,5,42,110,3499418952
56,24,14,Improv_Melody,117,1,48,111,3499915100
56,24,14,Improv_Melody,118,5,42,110,3499918952
56,24,14,Improv_Melody,119,5,42,127,3500418360
56,24,14,Improv_Melody,120,1,48,98,3500446088
56,24,14,Improv_Melody,121,5,42,110,3500919108
56,24,14,Improv_Melody,122,5,42,110,3501418976
56,24,14,Improv_Melody,123,5,42,110,3501918772
56,24,14,Improv_Melody,124,2,48,80,3502421596
56,24,14,Improv_Melody,125,1,48,121,3502423912
56,24,14,Improv_Melody,126,2,72,80,3502425700
56,24,14,Improv_Melody,127,5,42,127,3502427936
56,24,14,Improv_Melody,128,1,48,60,3502669300
56,24,14,Improv_Melody,129,5,42,110,3502919172
56,24,14,Improv_Melody,130,1,48,96,3502928796
56,24,14,Improv_Melody,131,1,48,54,3503172868
56,24,14,Improv_Melody,132,5,42,110,3503419000
56,24,14,Improv_Melody,133,1,48,78,3503432744
56,24,14,Improv_Melody,134,1,48,58,3503669028
56,24,14,Improv_Melody,135,5,42,110,3503918380
56,24,14,Improv_Melody,136,1,48,101,3503932648
56,24,14,Improv_Melody,137,1,48,52,3504170876
56,24,14,Improv_Melody,138,5,42,127,3504419180
56,24,14,Improv_Melody,139,1,48,69,3504433592
56,24,14,Improv_Melody,140,1,48,66,3504685964
56,24,14,Improv_Melody,141,5,42,110,3504919008
56,24,14,Improv_Melody,142,1,48,77,3504956084
56,24,14,Improv_Melody,143,1,38,127,3504963920
56,24,14,Improv_Melody,144,1,48,67,3505196888
56,24,14,Improv_Melody,145,5,42,110,3505418788
56,24,14,Improv_Melody,146,1,48,79,3505455792
56,24,14,Improv_Melody,147,1,48,49,3505485240
56,24,14,Improv_Melody,148,1,48,78,3505704176
56,24,14,Improv_Melody,149,5,42,110,3505919416
56,24,14,Improv_Melody,150,1,48,82,3505963228
56,24,14,Improv_Melody,151,1,38,111,3505985344
56,24,14,Improv_Melody,152,1,48,57,3506199768
56,24,14,Improv_Melody,153,2,43,80,3506421244
56,24,14,Improv_Melody,154,2,67,80,3506423704
56,24,14,Improv_Melody,155,5,42,127,3506426240
56,24,14,Improv_Melody,156,1,48,72,3506480072
56,24,14,Improv_Melody,157,1,48,61,3506732148
56,24,14,Improv_Melody,158,5,42,110,3506918888
56,24,14,Improv_Melody,159,1,48,70,3506989920
56,24,14,Improv_Melody,160,1,38,82,3507030148
56,24,14,Improv_Melody,161,1,48,54,3507219884
56,24,14,Improv_Melody,162,5,42,110,3507418668
56,24,14,Improv_Melody,163,1,48,67,3507480804
56,24,14,Improv_Melody,164,1,48,63,3507722024
56,24,14,Improv_Melody,165,5,42,110,3507919144
56,24,14,Improv_Melody,166,1,48,74,3507967588
56,24,14,Improv_Melody,167,1,38,77,3507995468
56,24,14,Improv_Melody,168,1,48,54,3508188868
56,24,14,Improv_Melody,169,5,42,127,3508419120
56,24,14,Improv_Melody,170,1,48,65,3508447844
56,24,14,Improv_Melody,171,1,48,62,3508702688
56,24,14,Improv_Melody,172,5,42,110,3508918800
56,24,14,Improv_Melody,173,1,48,77,3508971692
56,24,14,Improv_Melody,174,1,38,73,3509007796
56,24,14,Improv_Melody,175,1,48,59,3509221844
56,24,14,Improv_Melody,176,5,42,110,3509419332
56,24,14,Improv_Melody,177,1,48,85,3509484636
56,24,14,Improv_Melody,178,5,42,110,3509919032
56,24,14,Improv_Melody,179,1,48,104,3509985152
56,24,14,Improv_Melody,180,1,38,76,3509988504
56,24,14,Improv_Melody,181,2,45,80,3510421340
56,24,14,Improv_Melody,182,2,69,80,3510423572
56,24,14,Improv_Melody,183,5,42,127,3510425880
56,24,14,Improv_Melody,184,1,48,61,3510497160
56,24,14,Improv_Melody,185,1,48,60,3510731480
56,24,14,Improv_Melody,186,5,42,110,3510918748
56,24,14,Improv_Melody,187,1,48,70,3510968396
56,24,14,Improv_Melody,188,1,48,63,3511219420
56,24,14,Improv_Melody,189,5,42,110,3511419248
56,24,14,Improv_Melody,190,1,48,76,3511476672
56,24,14,Improv_Melody,191,1,48,65,3511724180
56,24,14,Improv_Melody,192,5,42,110,3511918852
56,24,14,Improv_Melody,193,1,48,94,3511990340
56,24,14,Improv_Melody,194,1,48,78,3512243752
56,24,14,Improv_Melody,195,5,42,127,3512418680
56,24,14,Improv_Melody,196,1,48,87,3512486496
56,24,14,Improv_Melody,197,1,48,69,3512753904
56,24,14,Improv_Melody,198,5,42,110,3512919480
56,24,14,Improv_Melody,199,1,48,81,3513008012
56,24,14,Improv_Melody,200,1,48,65,3513255744
56,24,14,Improv_Melody,201,5,42,110,3513419080
56,24,14,Improv_Melody,202,1,48,83,3513503728
56,24,14,Improv_Melody,203,1,48,64,3513750568
56,24,14,Improv_Melody,204,5,42,110,3513918832
56,24,14,Improv_Melody,205,1,48,97,3513997648
56,24,14,Improv_Melody,206,1,38,21,3514007728
56,24,14,Improv_Melody,207,1,48,59,3514024308
56,24,14,Improv_Melody,208,2,41,80,3514421036
56,24,14,Improv_Melody,209,2,65,80,3514423268
56,24,14,Improv_Melody,210,5,42,127,3514425804
56,24,14,Improv_Melody,211,5,42,110,3514919392
56,24,14,Improv_Melody,212,5,42,110,3515418892
56,24,14,Improv_Melody,213,5,42,110,3515918688
56,24,14,Improv_Melody,214,5,42,127,3516418560
56,24,14,Improv_Melody,215,5,42,110,3516919180
56,24,14,Improv_Melody,216,5,42,110,3517418752
56,24,14,Improv_Melody,217,5,42,110,3517918472
56,24,14,Improv_Melody,218,1,38,83,3518338836
56,24,14,Improv_Melody,219,1,38,65,3518419252
56,24,14,Improv_Melody,220,2,48,80,3518424488
56,24,14,Improv_Melody,221,2,72,80,3518426340
56,24,14,Improv_Melody,222,5,42,127,3518428800
56,24,14,Improv_Melody,223,1,38,71,3518559956
56,24,14,Improv_Melody,224,1,38,73,3518660840
56,24,14,Improv_Melody,225,1,38,79,3518793680
56,24,14,Improv_Melody,226,1,38,65,3518913860
56,24,14,Improv_Melody,227,5,42,110,3518919060
56,24,14,Improv_Melody,228,1,38,82,3519059888
56,24,14,Improv_Melody,229,1,38,82,3519165332
56,24,14,Improv_Melody,230,1,38,75,3519303488
56,24,14,Improv_Melody,231,1,38,74,3519376168
56,24,14,Improv_Melody,232,1,48,18,3519384376
56,24,14,Improv_Melody,233,5,42,110,3519418600
56,24,14,Improv_Melody,234,1,48,127,3519774692
56,24,14,Improv_Melody,235,5,42,110,3519918408
56,24,14,Improv_Melody,236,1,38,84,3520294144
56,24,14,Improv_Melody,237,1,38,73,3520314312
56,24,14,Improv_Melody,238,5,42,127,3520419128
56,24,14,Improv_Melody,239,1,38,64,3520499916
56,24,14,Improv_Melody,240,1,38,63,3520590768
56,24,14,Improv_Melody,241,1,38,68,3520705336
56,24,14,Improv_Melody,242,1,38,40,3520739824
56,24,14,Improv_Melody,243,1,38,71,3520799044
56,24,14,Improv_Melody,244,5,42,110,3520918892
56,24,14,Improv_Melody,245,1,38,96,3520996756
56,24,14,Improv_Melody,246,1,48,127,3521355940
56,24,14,Improv_Melody,247,5,42,110,3521418508
56,24,14,Improv_Melody,248,5,42,110,3521919336
56,24,14,Improv_Melody,249,1,38,108,3522416244
56,24,14,Improv_Melody,250,2,43,80,3522421788
56,24,14,Improv_Melody,251,2,67,80,3522423936
56,24,14,Improv_Melody,252,5,42,127,3522426396
56,24,14,Improv_Melody,253,1,38,84,3522840336
56,24,14,Improv_Melody,254,1,38,77,3522873824
56,24,14,Improv_Melody,255,5,42,110,3522918744
56,24,14,Improv_Melody,256,1,38,44,3523048056
56,24,14,Improv_Melody,257,1,38,114,3523275344
56,24,14,Improv_Melody,258,5,42,110,3523418332
56,24,14,Improv_Melody,259,1,48,125,3523796460
56,24,14,Improv_Melody,260,5,42,110,3523919452
56,24,14,Improv_Melody,261,1,48,94,3524296136
56,24,14,Improv_Melody,262,5,42,127,3524418856
56,24,14,Improv_Melody,263,1,48,62,3524553844
56,24,14,Improv_Melody,264,1,48,104,3524820820
56,24,14,Improv_Melody,265,5,42,110,3524918608
56,24,14,Improv_Melody,266,1,48,69,3525091844
56,24,14,Improv_Melody,267,1,48,110,3525367768
56,24,14,Improv_Melody,268,1,48,48,3525410912
56,24,14,Improv_Melody,269,5,42,110,3525419400
56,24,14,Improv_Melody,270,5,42,110,3525919256
56,24,14,Improv_Melody,271,2,45,80,3526421332
56,24,14,Improv_Melody,272,2,69,80,3526423408
56,24,14,Improv_Melody,273,5,42,127,3526426020
56,24,14,Improv_Melody,274,1,48,85,3526457864
56,24,14,Improv_Melody,275,1,48,57,3526725268
56,24,14,Improv_Melody,276,5,42,110,3526918520
56,24,14,Improv_Melody,277,1,48,86,3526984768
56,24,14,Improv_Melody,278,1,48,69,3527236912
56,24,14,Improv_Melody,279,5,42,110,3527419468
56,24,14,Improv_Melody,280,1,48,79,3527482724
56,24,14,Improv_Melody,281,1,48,72,3527733300
56,24,14,Improv_Melody,282,5,42,110,3527919144
56,24,14,Improv_Melody,283,1,48,88,3527996616
56,24,14,Improv_Melody,284,1,48,67,3528234252
56,24,14,Improv_Melody,285,5,42,127,3528418672
56,24,14,Improv_Melody,286,1,48,75,3528486196
56,24,14,Improv_Melody,287,1,48,60,3528753748
56,24,14,Improv_Melody,288,5,42,110,3528919476
56,24,14,Improv_Melody,289,1,48,76,3529009956
56,24,14,Improv_Melody,290,1,48,70,3529272052
56,24,14,Improv_Melody,291,5,42,110,3529419424
56,24,14,Improv_Melody,292,1,38,106,3529531928
56,24,14,Improv_Melody,293,5,42,110,3529919124
56,24,14,Improv_Melody,294,1,48,80,3530368616
56,24,14,Improv_Melody,295,2,41,80,3530420972
56,24,14,Improv_Melody,296,2,65,80,3530423048
56,24,14,Improv_Melody,297,5,42,127,3530425664
56,24,14,Improv_Melody,298,1,48,65,3530654908
56,24,14,Improv_Melody,299,5,42,110,3530919212
56,24,14,Improv_Melody,300,1,48,75,3530937212
56,24,14,Improv_Melody,301,1,48,62,3531196472
56,24,14,Improv_Melody,302,5,42,110,3531419264
56,24,14,Improv_Melody,303,1,48,69,3531446768
56,24,14,Improv_Melody,304,1,48,17,3531730208
56,24,14,Improv_Melody,305,5,42,110,3531919164
56,24,14,Improv_Melody,306,1,38,86,3531969636
56,24,14,Improv_Melody,307,1,48,89,3531972156
56,24,14,Improv_Melody,308,5,42,127,3532418520
56,24,14,Improv_Melody,309,1,48,85,3532520920
56,24,14,Improv_Melody,310,1,48,78,3532774040
56,24,14,Improv_Melody,311,5,42,110,3532919244
56,24,14,Improv_Melody,312,1,38,71,3533020072
56,24,14,Improv_Melody,313,1,48,97,3533037036
56,24,14,Improv_Melody,314,1,48,72,3533279200
56,24,14,Improv_Melody,315,5,42,110,3533419024
56,24,14,Improv_Melody,316,1,48,95,3533553816
56,24,14,Improv_Melody,317,1,48,37,3533610192
56,24,14,Improv_Melody,318,5,42,110,3533918556
56,24,14,Improv_Melody,319,1,38,90,3534047132
56,24,14,Improv_Melody,320,2,48,80,3534421956
56,24,14,Improv_Melody,321,2,72,80,3534424032
56,24,14,Improv_Melody,322,5,42,127,3534426420
56,24,14,Improv_Melody,323,1,48,52,3534567492
56,24,14,Improv_Melody,324,1,48,42,3534811636
56,24,14,Improv_Melody,325,5,42,110,3534919140
56,24,14,Improv_Melody,326,1,48,48,3535087212
56,24,14,Improv_Melody,327,1,48,44,3535326944
56,24,14,Improv_Melody,328,5,42,110,3535418684
56,24,14,Improv_Melody,329,1,48,56,3535595268
56,24,14,Improv_Melody,330,1,48,53,3535845992
56,24,14,Improv_Melody,331,5,42,110,3535918364
56,24,14,Improv_Melody,332,1,48,87,3536089192
56,24,14,Improv_Melody,333,1,48,49,3536123572
56,24,14,Improv_Melody,334,5,42,127,3536419296
56,24,14,Improv_Melody,335,5,42,110,3536919168
56,24,14,Improv_Melody,336,5,42,110,3537418816
56,24,14,Improv_Melody,337,5,42,110,3537919436
56,24,14,Improv_Melody,338,2,43,80,3538421508
56,24,14,Improv_Melody,339,2,67,80,3538423820
56,24,14,Improv_Melody,340,5,42,127,3538426276
56,24,14,Improv_Melody,341,1,48,27,3538457972
56,24,14,Improv_Melody,342,1,48,75,3538899080
56,24,14,Improv_Melody,343,5,42,110,3538919012
56,24,14,Improv_Melody,344,1,48,83,3539397708
56,24,14,Improv_Melody,345,5,42,110,3539418340
56,24,14,Improv_Melody,346,1,48,104,3539888052
56,24,14,Improv_Melody,347,5,42,110,3539919608
56,24,14,Improv_Melody,348,1,48,80,3540391864
56,24,14,Improv_Melody,349,5,42,127,3540418984
56,24,14,Improv_Melody,350,1,48,103,3540886332
56,24,14,Improv_Melody,351,1,38,86,3540904564
56,24,14,Improv_Melody,352,1,48,49,3540916832
56,24,14,Improv_Melody,353,5,42,110,3540918792
56,24,14,Improv_Melody,354,1,48,67,3541135740
56,24,14,Improv_Melody,355,1,48,75,3541395364
56,24,14,Improv_Melody,356,5,42,110,3541419416
56,24,14,Improv_Melody,357,1,48,62,3541637444
56,24,14,Improv_Melody,358,1,38,105,3541873576
56,24,14,Improv_Melody,359,1,48,100,3541885980
56,24,14,Improv_Melody,360,5,42,110,3541919076
56,24,14,Improv_Melody,361,2,45,80,3542421256
56,24,14,Improv_Melody,362,2,69,80,3542423564
56,24,14,Improv_Melody,363,5,42,127,3542426096
56,24,14,Improv_Melody,364,1,48,104,3542910144
56,24,14,Improv_Melody,365,5,42,110,3542918480
56,24,14,Improv_Melody,366,1,48,53,3542940812
56,24,14,Improv_Melody,367,1,48,71,3543167896
56,24,14,Improv_Melody,368,5,42,110,3543419192
56,24,14,Improv_Melody,369,1,38,90,3543433756
56,24,14,Improv_Melody,370,1,48,78,3543437024
56,24,14,Improv_Melody,371,1,48,65,3543669396
56,24,14,Improv_Melody,372,5,42,110,3543918820
56,24,14,Improv_Melody,373,1,48,88,3543922464
56,24,14,Improv_Melody,374,1,48,92,3544398648
56,24,14,Improv_Melody,375,5,42,127,3544418812
56,24,14,Improv_Melody,376,1,38,93,3544425296
56,24,14,Improv_Melody,377,1,48,53,3544622368
56,24,14,Improv_Melody,378,1,48,63,3544879672
56,24,14,Improv_Melody,379,5,42,110,3544919580
56,24,14,Improv_Melody,380,1,48,54,3545121220
56,24,14,Improv_Melody,381,1,38,92,3545377624
56,24,14,Improv_Melody,382,1,48,83,3545386288
56,24,14,Improv_Melody,383,5,42,110,3545419160
56,24,14,Improv_Melody,384,1,48,39,3545602824
56,24,14,Improv_Melody,385,1,48,87,3545847636
56,24,14,Improv_Melody,386,5,42,110,3545918884
56,24,14,Improv_Melody,387,2,41,80,3546421328
56,24,14,Improv_Melody,388,2,65,80,3546423552
56,24,14,Improv_Melody,389,5,42,127,3546426084
56,24,14,Improv_Melody,390,1,38,27,3546428100
56,24,14,Improv_Melody,391,1,48,71,3546883556
56,24,14,Improv_Melody,392,5,42,110,3546919348
56,24,14,Improv_Melody,393,1,48,50,3547144700
56,24,14,Improv_Melody,394,1,38,97,3547405748
56,24,14,Improv_Melody,395,1,48,64,3547408192
56,24,14,Improv_Melody,396,5,42,110,3547418856
56,24,14,Improv_Melody,397,1,48,61,3547647396
56,24,14,Improv_Melody,398,1,48,73,3547910316
56,24,14,Improv_Melody,399,5,42,110,3547918656
56,24,14,Improv_Melody,400,1,38,72,3548405980
56,24,14,Improv_Melody,401,5,42,127,3548418360
56,24,14,Improv_Melody,402,1,48,93,3548431052
56,24,14,Improv_Melody,403,1,48,53,3548650108
56,24,14,Improv_Melody,404,1,48,81,3548903080
56,24,14,Improv_Melody,405,5,42,110,3548919048
56,24,14,Improv_Melody,406,1,48,67,3549169456
56,24,14,Improv_Melody,407,5,42,110,3549418808
56,24,14,Improv_Melody,408,1,38,84,3549425744
56,24,14,Improv_Melody,409,1,48,89,3549429916
56,24,14,Improv_Melody,410,1,48,71,3549665272
56,24,14,Improv_Melody,411,1,48,93,3549909568
56,24,14,Improv_Melody,412,5,42,110,3549918584
56,24,14,Improv_Melody,413,1,48,75,3550409244
56,24,14,Improv_Melody,414,1,38,81,3550421032
56,24,14,Improv_Melody,415,2,48,80,3550424684
56,24,14,Improv_Melody,416,2,72,80,3550426536
56,24,14,Improv_Melody,417,5,42,127,3550428996
56,24,14,Improv_Melody,418,5,42,110,3550919004
56,24,14,Improv_Melody,0,9999,9999,9999,3470416976
56,24,14,Improv_Melody,1,9999,9999,9999,3470916680
56,24,14,Improv_Melody,2,9999,9999,9999,3471416400
56,24,14,Improv_Melody,3,9999,9999,9999,3471916124
56,24,14,Improv_Melody,4,9999,9999,9999,3472416820
56,24,14,Improv_Melody,5,9999,9999,9999,3472916540
56,24,14,Improv_Melody,6,9999,9999,9999,3473416260
56,24,14,Improv_Melody,7,9999,9999,9999,3473917028
56,24,14,Improv_Melody,8,9999,9999,9999,3474416752
56,24,14,Improv_Melody,9,9999,9999,9999,3474916412
56,24,14,Improv_Melody,10,9999,9999,9999,3475416136
56,24,14,Improv_Melody,11,9999,9999,9999,3475916876
56,24,14,Improv_Melody,12,9999,9999,9999,3476416592
56,24,14,Improv_Melody,13,9999,9999,9999,3476916300
56,24,14,Improv_Melody,14,9999,9999,9999,3477417068
56,24,14,Improv_Melody,15,9999,9999,9999,3477916792
56,24,14,Improv_Melody,16,9999,9999,9999,3478416440
56,24,14,Improv_Melody,17,9999,9999,9999,3478916164
56,24,14,Improv_Melody,18,9999,9999,9999,3479416936
56,24,14,Improv_Melody,19,9999,9999,9999,3479916656
56,24,14,Improv_Melody,20,9999,9999,9999,3480416372
56,24,14,Improv_Melody,21,9999,9999,9999,3480917052
56,24,14,Improv_Melody,22,9999,9999,9999,3481416772
56,24,14,Improv_Melody,23,9999,9999,9999,3481916488
56,24,14,Improv_Melody,24,9999,9999,9999,3482416196
56,24,14,Improv_Melody,25,9999,9999,9999,3482916976
56,24,14,Improv_Melody,26,9999,9999,9999,3483416676
56,24,14,Improv_Melody,27,9999,9999,9999,3483916392
56,24,14,Improv_Melody,28,9999,9999,9999,3484416076
56,24,14,Improv_Melody,29,9999,9999,9999,3484916824
56,24,14,Improv_Melody,30,9999,9999,9999,3485416524
56,24,14,Improv_Melody,31,9999,9999,9999,3485916224
56,24,14,Improv_Melody,32,9999,9999,9999,3486416960
56,24,14,Improv_Melody,33,9999,9999,9999,3486916680
56,24,14,Improv_Melody,34,9999,9999,9999,3487416380
56,24,14,Improv_Melody,35,9999,9999,9999,3487916080
56,24,14,Improv_Melody,36,9999,9999,9999,3488416828
56,24,14,Improv_Melody,37,9999,9999,9999,3488916548
56,24,14,Improv_Melody,38,9999,9999,9999,3489416252
56,24,14,Improv_Melody,39,9999,9999,9999,3489917048
56,24,14,Improv_Melody,40,9999,9999,9999,3490416732
56,24,14,Improv_Melody,41,9999,9999,9999,3490916444
56,24,14,Improv_Melody,42,9999,9999,9999,3491416128
56,24,14,Improv_Melody,43,9999,9999,9999,3491916920
56,24,14,Improv_Melody,44,9999,9999,9999,3492416620
56,24,14,Improv_Melody,45,9999,9999,9999,3492916320
56,24,14,Improv_Melody,46,9999,9999,9999,3493417048
56,24,14,Improv_Melody,47,9999,9999,9999,3493916752
56,24,14,Improv_Melody,48,9999,9999,9999,3494416468
56,24,14,Improv_Melody,49,9999,9999,9999,3494916160
56,24,14,Improv_Melody,50,9999,9999,9999,3495416880
56,24,14,Improv_Melody,51,9999,9999,9999,3495916656
56,24,14,Improv_Melody,52,9999,9999,9999,3496416372
56,24,14,Improv_Melody,53,9999,9999,9999,3496917052
56,24,14,Improv_Melody,54,9999,9999,9999,3497416800
56,24,14,Improv_Melody,55,9999,9999,9999,3497916508
56,24,14,Improv_Melody,56,9999,9999,9999,3498416200
56,24,14,Improv_Melody,57,9999,9999,9999,3498916960
56,24,14,Improv_Melody,58,9999,9999,9999,3499416660
56,24,14,Improv_Melody,59,9999,9999,9999,3499916364
56,24,14,Improv_Melody,60,9999,9999,9999,3500416068
56,24,14,Improv_Melody,61,9999,9999,9999,3500916816
56,24,14,Improv_Melody,62,9999,9999,9999,3501416536
56,24,14,Improv_Melody,63,9999,9999,9999,3501916256
56,24,14,Improv_Melody,64,9999,9999,9999,3502416952
56,24,14,Improv_Melody,65,9999,9999,9999,3502916728
56,24,14,Improv_Melody,66,9999,9999,9999,3503416408
56,24,14,Improv_Melody,67,9999,9999,9999,3503916088
56,24,14,Improv_Melody,68,9999,9999,9999,3504416888
56,24,14,Improv_Melody,69,9999,9999,9999,3504916568
56,24,14,Improv_Melody,70,9999,9999,9999,3505416272
56,24,14,Improv_Melody,71,9999,9999,9999,3505917048
56,24,14,Improv_Melody,72,9999,9999,9999,3506416756
56,24,14,Improv_Melody,73,9999,9999,9999,3506916444
56,24,14,Improv_Melody,74,9999,9999,9999,3507416152
56,24,14,Improv_Melody,75,9999,9999,9999,3507916852
56,24,14,Improv_Melody,76,9999,9999,9999,3508416604
56,24,14,Improv_Melody,77,9999,9999,9999,3508916284
56,24,14,Improv_Melody,78,9999,9999,9999,3509417040
56,24,14,Improv_Melody,79,9999,9999,9999,3509916740
56,24,14,Improv_Melody,80,9999,9999,9999,3510416468
56,24,14,Improv_Melody,81,9999,9999,9999,3510916156
56,24,14,Improv_Melody,82,9999,9999,9999,3511416880
56,24,14,Improv_Melody,83,9999,9999,9999,3511916636
56,24,14,Improv_Melody,84,9999,9999,9999,3512416312
56,24,14,Improv_Melody,85,9999,9999,9999,3512917112
56,24,14,Improv_Melody,86,9999,9999,9999,3513416788
56,24,14,Improv_Melody,87,9999,9999,9999,3513916464
56,24,14,Improv_Melody,88,9999,9999,9999,3514416244
56,24,14,Improv_Melody,89,9999,9999,9999,3514916952
56,24,14,Improv_Melody,90,9999,9999,9999,3515416672
56,24,14,Improv_Melody,91,9999,9999,9999,3515916396
56,24,14,Improv_Melody,92,9999,9999,9999,3516416116
56,24,14,Improv_Melody,93,9999,9999,9999,3516916812
56,24,14,Improv_Melody,94,9999,9999,9999,3517416532
56,24,14,Improv_Melody,95,9999,9999,9999,3517916252
56,24,14,Improv_Melody,96,9999,9999,9999,3518417016
56,24,14,Improv_Melody,97,9999,9999,9999,3518916692
56,24,14,Improv_Melody,98,9999,9999,9999,3519416380
56,24,14,Improv_Melody,99,9999,9999,9999,3519916112
56,24,14,Improv_Melody,100,9999,9999,9999,3520416836
56,24,14,Improv_Melody,101,9999,9999,9999,3520916600
56,24,14,Improv_Melody,102,9999,9999,9999,3521416292
56,24,14,Improv_Melody,103,9999,9999,9999,3521917044
56,24,14,Improv_Melody,104,9999,9999,9999,3522416760
56,24,14,Improv_Melody,105,9999,9999,9999,3522916452
56,24,14,Improv_Melody,106,9999,9999,9999,3523416116
56,24,14,Improv_Melody,107,9999,9999,9999,3523916860
56,24,14,Improv_Melody,108,9999,9999,9999,3524416560
56,24,14,Improv_Melody,109,9999,9999,9999,3524916316
56,24,14,Improv_Melody,110,9999,9999,9999,3525417032
56,24,14,Improv_Melody,111,9999,9999,9999,3525916740
56,24,14,Improv_Melody,112,9999,9999,9999,3526416460
56,24,14,Improv_Melody,113,9999,9999,9999,3526916152
56,24,14,Improv_Melody,114,9999,9999,9999,3527416952
56,24,14,Improv_Melody,115,9999,9999,9999,3527916628
56,24,14,Improv_Melody,116,9999,9999,9999,3528416308
56,24,14,Improv_Melody,117,9999,9999,9999,3528917108
56,24,14,Improv_Melody,118,9999,9999,9999,3529416760
56,24,14,Improv_Melody,119,9999,9999,9999,3529916536
56,24,14,Improv_Melody,120,9999,9999,9999,3530416176
56,24,14,Improv_Melody,121,9999,9999,9999,3530916920
56,24,14,Improv_Melody,122,9999,9999,9999,3531416672
56,24,14,Improv_Melody,123,9999,9999,9999,3531916352
56,24,14,Improv_Melody,124,9999,9999,9999,3532416080
56,24,14,Improv_Melody,125,9999,9999,9999,3532916804
56,24,14,Improv_Melody,126,9999,9999,9999,3533416508
56,24,14,Improv_Melody,127,9999,9999,9999,3533916260
56,24,14,Improv_Melody,128,9999,9999,9999,3534417008
56,24,14,Improv_Melody,129,9999,9999,9999,3534916700
56,24,14,Improv_Melody,130,9999,9999,9999,3535416392
56,24,14,Improv_Melody,131,9999,9999,9999,3535916144
56,24,14,Improv_Melody,132,9999,9999,9999,3536416856
56,24,14,Improv_Melody,133,9999,9999,9999,3536916580
56,24,14,Improv_Melody,134,9999,9999,9999,3537416300
56,24,14,Improv_Melody,135,9999,9999,9999,3537916992
56,24,14,Improv_Melody,136,9999,9999,9999,3538416716
56,24,14,Improv_Melody,137,9999,9999,9999,3538916424
56,24,14,Improv_Melody,138,9999,9999,9999,3539416120
56,24,14,Improv_Melody,139,9999,9999,9999,3539916916
56,24,14,Improv_Melody,140,9999,9999,9999,3540416616
56,24,14,Improv_Melody,141,9999,9999,9999,3540916300
56,24,14,Improv_Melody,142,9999,9999,9999,3541417048
56,24,14,Improv_Melody,143,9999,9999,9999,3541916784
56,24,14,Improv_Melody,144,9999,9999,9999,3542416460
56,24,14,Improv_Melody,145,9999,9999,9999,3542916188
56,24,14,Improv_Melody,146,9999,9999,9999,3543416900
56,24,14,Improv_Melody,147,9999,9999,9999,3543916604
56,24,14,Improv_Melody,148,9999,9999,9999,3544416368
56,24,14,Improv_Melody,149,9999,9999,9999,3544917060
56,24,14,Improv_Melody,150,9999,9999,9999,3545416792
56,24,14,Improv_Melody,151,9999,9999,9999,3545916520
56,24,14,Improv_Melody,152,9999,9999,9999,3546416224
56,24,14,Improv_Melody,153,9999,9999,9999,3546916980
56,24,14,Improv_Melody,154,9999,9999,9999,3547416640
56,24,14,Improv_Melody,155,9999,9999,9999,3547916364
56,24,14,Improv_Melody,156,9999,9999,9999,3548416064
56,24,14,Improv_Melody,157,9999,9999,9999,3548916832
56,24,14,Improv_Melody,158,9999,9999,9999,3549416516
56,24,14,Improv_Melody,159,9999,9999,9999,3549916216
56,24,14,Improv_Melody,160,9999,9999,9999,3550416964
56,24,14,Improv_Melody,161,9999,9999,9999,3550916708
