pid,taskRunCount,taskID,taskName,i,channel,pitch,velocity,microseconds
1,0,Ticks_Pract_8,0,5,42,127,245465668
661,0,Ticks_Pract_8,1,1,48,36,245984944
661,0,Ticks_Pract_8,2,5,42,127,246266176
661,0,Ticks_Pract_8,3,1,48,21,246681760
661,0,Ticks_Pract_8,4,5,42,127,247065908
661,0,Ticks_Pract_8,5,1,48,43,247304888
661,0,Ticks_Pract_8,6,5,42,127,247865644
661,0,Ticks_Pract_8,7,1,48,40,248065952
661,0,Ticks_Pract_8,8,5,42,127,248665528
661,0,Ticks_Pract_8,9,1,48,37,248840032
661,0,Ticks_Pract_8,10,5,42,127,249466380
661,0,Ticks_Pract_8,11,1,48,35,249663704
661,0,Ticks_Pract_8,12,5,42,127,250265892
661,0,Ticks_Pract_8,13,1,48,37,250413844
661,0,Ticks_Pract_8,14,5,42,127,251065700
661,0,Ticks_Pract_8,15,1,48,35,251089096
661,0,Ticks_Pract_8,16,1,48,34,251771524
661,0,Ticks_Pract_8,17,5,42,127,251865652
661,0,Ticks_Pract_8,18,1,48,31,252579864
661,0,Ticks_Pract_8,19,5,42,127,252666084
661,0,Ticks_Pract_8,20,1,48,32,253443496
661,0,Ticks_Pract_8,21,5,42,127,253465892
661,0,Ticks_Pract_8,22,5,42,127,254265704
661,0,Ticks_Pract_8,23,1,48,34,254306896
661,0,Ticks_Pract_8,24,1,48,33,255056496
661,0,Ticks_Pract_8,25,5,42,127,255065580
661,0,Ticks_Pract_8,26,1,48,23,255117080
661,0,Ticks_Pract_8,27,1,48,35,255835344
661,0,Ticks_Pract_8,28,5,42,127,255866192
661,0,Ticks_Pract_8,29,1,48,25,255890240
661,0,Ticks_Pract_8,30,1,48,43,256621144
661,0,Ticks_Pract_8,31,5,42,127,256665832
661,0,Ticks_Pract_8,32,1,48,42,257416160
661,0,Ticks_Pract_8,33,1,48,32,257450924
661,0,Ticks_Pract_8,34,5,42,127,257465692
661,0,Ticks_Pract_8,35,1,48,43,258230688
661,0,Ticks_Pract_8,36,5,42,127,258265648
661,0,Ticks_Pract_8,37,1,48,33,259000356
661,0,Ticks_Pract_8,38,5,42,127,259066156
661,0,Ticks_Pract_8,39,1,48,38,259824612
661,0,Ticks_Pract_8,40,5,42,127,259866036
661,0,Ticks_Pract_8,41,5,42,127,260665704
661,0,Ticks_Pract_8,42,1,48,35,260690072
661,0,Ticks_Pract_8,43,1,48,42,261458744
661,0,Ticks_Pract_8,44,5,42,127,261465436
661,0,Ticks_Pract_8,45,5,42,127,262266296
661,0,Ticks_Pract_8,46,1,48,38,262280416
661,0,Ticks_Pract_8,47,1,48,33,263018272
661,0,Ticks_Pract_8,48,5,42,127,263065948
661,0,Ticks_Pract_8,49,1,48,38,263805512
661,0,Ticks_Pract_8,50,5,42,127,263865684
661,0,Ticks_Pract_8,51,1,48,27,264596796
661,0,Ticks_Pract_8,52,5,42,127,264665416
661,0,Ticks_Pract_8,53,1,48,34,265388376
661,0,Ticks_Pract_8,54,5,42,127,265466296
661,0,Ticks_Pract_8,55,1,48,29,266211292
661,0,Ticks_Pract_8,56,5,42,127,266266176
661,0,Ticks_Pract_8,57,1,48,32,266963308
661,0,Ticks_Pract_8,58,5,42,127,267065672
661,0,Ticks_Pract_8,59,1,48,36,267777280
661,0,Ticks_Pract_8,60,5,42,127,267865420
661,0,Ticks_Pract_8,61,1,48,33,268595032
661,0,Ticks_Pract_8,62,5,42,127,268666348
661,0,Ticks_Pract_8,63,1,48,37,269348096
661,0,Ticks_Pract_8,0,9999,9999,9999,245463160
661,0,Ticks_Pract_8,1,9999,9999,9999,246263888
661,0,Ticks_Pract_8,2,9999,9999,9999,247063620
661,0,Ticks_Pract_8,3,9999,9999,9999,247863356
661,0,Ticks_Pract_8,4,9999,9999,9999,248663088
661,0,Ticks_Pract_8,5,9999,9999,9999,249463868
661,0,Ticks_Pract_8,6,9999,9999,9999,250263604
661,0,Ticks_Pract_8,7,9999,9999,9999,251063412
661,0,Ticks_Pract_8,8,9999,9999,9999,251863140
661,0,Ticks_Pract_8,9,9999,9999,9999,252663868
661,0,Ticks_Pract_8,10,9999,9999,9999,253463604
661,0,Ticks_Pract_8,11,9999,9999,9999,254263344
661,0,Ticks_Pract_8,12,9999,9999,9999,255063144
661,0,Ticks_Pract_8,13,9999,9999,9999,255863904
661,0,Ticks_Pract_8,14,9999,9999,9999,256663620
661,0,Ticks_Pract_8,15,9999,9999,9999,257463404
661,0,Ticks_Pract_8,16,9999,9999,9999,258263136
661,0,Ticks_Pract_8,17,9999,9999,9999,259063868
661,0,Ticks_Pract_8,18,9999,9999,9999,259863600
661,0,Ticks_Pract_8,19,9999,9999,9999,260663344
661,0,Ticks_Pract_8,20,9999,9999,9999,261463148
661,0,Ticks_Pract_8,21,9999,9999,9999,262263860
661,0,Ticks_Pract_8,22,9999,9999,9999,263063660
661,0,Ticks_Pract_8,23,9999,9999,9999,263863396
661,0,Ticks_Pract_8,24,9999,9999,9999,264663128
661,0,Ticks_Pract_8,25,9999,9999,9999,265463860
661,0,Ticks_Pract_8,26,9999,9999,9999,266263668
661,0,Ticks_Pract_8,27,9999,9999,9999,267063384
661,0,Ticks_Pract_8,28,9999,9999,9999,267863132
661,0,Ticks_Pract_8,29,9999,9999,9999,268663912
662,1,Ticks_Pract_5,0,5,42,127,281863468
662,1,Ticks_Pract_5,1,1,48,43,282273964
662,1,Ticks_Pract_5,2,5,42,127,282364152
662,1,Ticks_Pract_5,3,1,48,46,282609620
662,1,Ticks_Pract_5,4,1,48,29,282660536
662,1,Ticks_Pract_5,5,5,42,127,282863856
662,1,Ticks_Pract_5,6,1,48,46,282989944
662,1,Ticks_Pract_5,7,5,42,127,283363676
662,1,Ticks_Pract_5,8,1,48,48,283372104
662,1,Ticks_Pract_5,9,1,48,48,283861312
662,1,Ticks_Pract_5,10,5,42,127,283864412
662,1,Ticks_Pract_5,11,5,42,127,284364184
662,1,Ticks_Pract_5,12,1,48,45,284381668
662,1,Ticks_Pract_5,13,1,48,48,284856360
662,1,Ticks_Pract_5,14,5,42,127,284863948
662,1,Ticks_Pract_5,15,5,42,127,285363648
662,1,Ticks_Pract_5,16,1,48,49,285379408
662,1,Ticks_Pract_5,17,1,48,50,285857544
662,1,Ticks_Pract_5,18,5,42,127,285864232
662,1,Ticks_Pract_5,19,1,48,47,286354472
662,1,Ticks_Pract_5,20,5,42,127,286364152
662,1,Ticks_Pract_5,21,1,48,35,286404504
662,1,Ticks_Pract_5,22,5,42,127,286863904
662,1,Ticks_Pract_5,23,1,48,51,286867396
662,1,Ticks_Pract_5,24,1,48,38,286919508
662,1,Ticks_Pract_5,25,5,42,127,287363356
662,1,Ticks_Pract_5,26,1,48,46,287380760
662,1,Ticks_Pract_5,27,1,48,48,287863112
662,1,Ticks_Pract_5,28,5,42,127,287864840
662,1,Ticks_Pract_5,29,1,48,51,288357316
662,1,Ticks_Pract_5,30,5,42,127,288363856
662,1,Ticks_Pract_5,31,1,48,50,288859028
662,1,Ticks_Pract_5,32,5,42,127,288863700
662,1,Ticks_Pract_5,33,1,48,46,289344588
662,1,Ticks_Pract_5,34,5,42,127,289364368
662,1,Ticks_Pract_5,35,1,48,47,289823560
662,1,Ticks_Pract_5,36,5,42,127,289864064
662,1,Ticks_Pract_5,37,1,48,50,290336124
662,1,Ticks_Pract_5,38,5,42,127,290363684
662,1,Ticks_Pract_5,39,1,48,51,290818764
662,1,Ticks_Pract_5,40,5,42,127,290863452
662,1,Ticks_Pract_5,41,1,48,46,291349204
662,1,Ticks_Pract_5,42,5,42,127,291364196
662,1,Ticks_Pract_5,43,1,48,51,291849500
662,1,Ticks_Pract_5,44,5,42,127,291863820
662,1,Ticks_Pract_5,45,5,42,127,292363740
662,1,Ticks_Pract_5,46,1,48,48,292364708
662,1,Ticks_Pract_5,47,5,42,127,292864264
662,1,Ticks_Pract_5,48,1,48,51,292869476
662,1,Ticks_Pract_5,49,1,48,49,293359476
662,1,Ticks_Pract_5,50,5,42,127,293364072
662,1,Ticks_Pract_5,51,1,48,46,293859968
662,1,Ticks_Pract_5,52,5,42,127,293864040
662,1,Ticks_Pract_5,53,1,48,46,294360640
662,1,Ticks_Pract_5,54,5,42,127,294363736
662,1,Ticks_Pract_5,55,5,42,127,294864260
662,1,Ticks_Pract_5,56,1,48,49,294866928
662,1,Ticks_Pract_5,57,1,48,44,295356736
662,1,Ticks_Pract_5,58,5,42,127,295364024
662,1,Ticks_Pract_5,59,1,48,43,295840716
662,1,Ticks_Pract_5,60,5,42,127,295863792
662,1,Ticks_Pract_5,61,1,48,41,296353804
662,1,Ticks_Pract_5,62,5,42,127,296364532
662,1,Ticks_Pract_5,63,1,48,43,296852752
662,1,Ticks_Pract_5,64,5,42,127,296864076
662,1,Ticks_Pract_5,65,1,48,43,297339356
662,1,Ticks_Pract_5,66,5,42,127,297363920
662,1,Ticks_Pract_5,67,1,48,44,297849448
662,1,Ticks_Pract_5,68,5,42,127,297863688
662,1,Ticks_Pract_5,69,1,48,46,298340088
662,1,Ticks_Pract_5,70,5,42,127,298364132
662,1,Ticks_Pract_5,71,1,48,48,298825568
662,1,Ticks_Pract_5,72,5,42,127,298863828
662,1,Ticks_Pract_5,73,1,48,46,299342620
662,1,Ticks_Pract_5,74,5,42,127,299363820
662,1,Ticks_Pract_5,75,1,48,47,299847104
662,1,Ticks_Pract_5,76,5,42,127,299864488
662,1,Ticks_Pract_5,77,5,42,127,300364040
662,1,Ticks_Pract_5,78,1,48,45,300365008
662,1,Ticks_Pract_5,79,5,42,127,300863812
662,1,Ticks_Pract_5,80,1,48,43,300868424
662,1,Ticks_Pract_5,81,1,48,39,301358528
662,1,Ticks_Pract_5,82,5,42,127,301363720
662,1,Ticks_Pract_5,0,9999,9999,9999,281861184
662,1,Ticks_Pract_5,1,9999,9999,9999,282361940
662,1,Ticks_Pract_5,2,9999,9999,9999,282861644
662,1,Ticks_Pract_5,3,9999,9999,9999,283361388
662,1,Ticks_Pract_5,4,9999,9999,9999,283862124
662,1,Ticks_Pract_5,5,9999,9999,9999,284361824
662,1,Ticks_Pract_5,6,9999,9999,9999,284861512
662,1,Ticks_Pract_5,7,9999,9999,9999,285361212
662,1,Ticks_Pract_5,8,9999,9999,9999,285861948
662,1,Ticks_Pract_5,9,9999,9999,9999,286361716
662,1,Ticks_Pract_5,10,9999,9999,9999,286861396
662,1,Ticks_Pract_5,11,9999,9999,9999,287361144
662,1,Ticks_Pract_5,12,9999,9999,9999,287861880
662,1,Ticks_Pract_5,13,9999,9999,9999,288361572
662,1,Ticks_Pract_5,14,9999,9999,9999,288861268
662,1,Ticks_Pract_5,15,9999,9999,9999,289362008
662,1,Ticks_Pract_5,16,9999,9999,9999,289861704
662,1,Ticks_Pract_5,17,9999,9999,9999,290361400
662,1,Ticks_Pract_5,18,9999,9999,9999,290861168
662,1,Ticks_Pract_5,19,9999,9999,9999,291361912
662,1,Ticks_Pract_5,20,9999,9999,9999,291861604
662,1,Ticks_Pract_5,21,9999,9999,9999,292361308
662,1,Ticks_Pract_5,22,9999,9999,9999,292862052
662,1,Ticks_Pract_5,23,9999,9999,9999,293361712
662,1,Ticks_Pract_5,24,9999,9999,9999,293861456
662,1,Ticks_Pract_5,25,9999,9999,9999,294361152
662,1,Ticks_Pract_5,26,9999,9999,9999,294861900
662,1,Ticks_Pract_5,27,9999,9999,9999,295361588
662,1,Ticks_Pract_5,28,9999,9999,9999,295861356
662,1,Ticks_Pract_5,29,9999,9999,9999,296362096
662,1,Ticks_Pract_5,30,9999,9999,9999,296861792
662,1,Ticks_Pract_5,31,9999,9999,9999,297361484
662,1,Ticks_Pract_5,32,9999,9999,9999,297861180
662,1,Ticks_Pract_5,33,9999,9999,9999,298361920
662,1,Ticks_Pract_5,34,9999,9999,9999,298861616
662,1,Ticks_Pract_5,35,9999,9999,9999,299361388
662,1,Ticks_Pract_5,36,9999,9999,9999,299862128
662,1,Ticks_Pract_5,37,9999,9999,9999,300361828
662,1,Ticks_Pract_5,38,9999,9999,9999,300861524
662,1,Ticks_Pract_5,39,9999,9999,9999,301361212
661,2,T1_SMS_8,0,5,42,127,9386452
661,2,T1_SMS_8,1,5,42,127,10186208
661,2,T1_SMS_8,2,5,42,127,10985740
661,2,T1_SMS_8,3,5,42,127,11785644
661,2,T1_SMS_8,4,1,48,50,12533676
661,2,T1_SMS_8,5,5,42,127,12586392
661,2,T1_SMS_8,6,1,48,51,13278060
661,2,T1_SMS_8,7,5,42,127,13386036
661,2,T1_SMS_8,8,1,48,47,14092828
661,2,T1_SMS_8,9,5,42,127,14185856
661,2,T1_SMS_8,10,1,48,53,14943968
661,2,T1_SMS_8,11,5,42,127,14985444
661,2,T1_SMS_8,12,1,48,54,15740192
661,2,T1_SMS_8,13,5,42,127,15786372
661,2,T1_SMS_8,14,1,48,55,16561540
661,2,T1_SMS_8,15,5,42,127,16586176
661,2,T1_SMS_8,16,1,48,42,16591600
661,2,T1_SMS_8,17,1,48,55,17361176
661,2,T1_SMS_8,18,5,42,127,17385740
661,2,T1_SMS_8,19,1,48,55,18179164
661,2,T1_SMS_8,20,5,42,127,18185548
661,2,T1_SMS_8,21,1,48,49,18980464
661,2,T1_SMS_8,22,5,42,127,18986428
661,2,T1_SMS_8,23,1,48,54,19762940
661,2,T1_SMS_8,24,5,42,127,19786088
661,2,T1_SMS_8,25,1,48,44,19788012
661,2,T1_SMS_8,26,1,48,50,20581352
661,2,T1_SMS_8,27,5,42,127,20585724
661,2,T1_SMS_8,28,1,48,55,21357976
661,2,T1_SMS_8,29,5,42,127,21385532
661,2,T1_SMS_8,30,1,48,60,22131304
661,2,T1_SMS_8,31,5,42,127,22186312
661,2,T1_SMS_8,32,1,48,59,22934176
661,2,T1_SMS_8,33,5,42,127,22986268
661,2,T1_SMS_8,34,1,48,59,23736228
661,2,T1_SMS_8,35,5,42,127,23785708
661,2,T1_SMS_8,36,1,48,55,24544792
661,2,T1_SMS_8,37,5,42,127,24585516
661,2,T1_SMS_8,38,1,48,51,25361580
661,2,T1_SMS_8,39,5,42,127,25386540
661,2,T1_SMS_8,40,1,48,56,26149124
661,2,T1_SMS_8,41,5,42,127,26186276
661,2,T1_SMS_8,42,1,48,51,26957632
661,2,T1_SMS_8,43,5,42,127,26985936
661,2,T1_SMS_8,44,1,48,53,27709796
661,2,T1_SMS_8,45,5,42,127,27785520
661,2,T1_SMS_8,46,1,48,54,28556800
661,2,T1_SMS_8,47,5,42,127,28586300
661,2,T1_SMS_8,48,1,48,52,29374332
661,2,T1_SMS_8,49,5,42,127,29386332
661,2,T1_SMS_8,50,1,48,43,30156192
661,2,T1_SMS_8,51,5,42,127,30186068
661,2,T1_SMS_8,52,1,48,39,30912240
661,2,T1_SMS_8,53,5,42,127,30985504
661,2,T1_SMS_8,54,1,48,36,31670988
661,2,T1_SMS_8,55,5,42,127,31786220
661,2,T1_SMS_8,56,1,48,52,32515820
661,2,T1_SMS_8,57,5,42,127,32586044
661,2,T1_SMS_8,58,1,48,49,33314284
661,2,T1_SMS_8,59,5,42,127,33386000
661,2,T1_SMS_8,60,1,48,53,34148228
661,2,T1_SMS_8,61,5,42,127,34185508
661,2,T1_SMS_8,62,1,48,51,34946092
661,2,T1_SMS_8,63,5,42,127,34986216
661,2,T1_SMS_8,64,1,48,52,35782324
661,2,T1_SMS_8,65,5,42,127,35786024
661,2,T1_SMS_8,66,1,48,47,36573756
661,2,T1_SMS_8,67,5,42,127,36586052
661,2,T1_SMS_8,68,5,42,127,37385496
661,2,T1_SMS_8,69,1,48,52,37405516
661,2,T1_SMS_8,70,1,48,43,38128492
661,2,T1_SMS_8,71,5,42,127,38186296
661,2,T1_SMS_8,72,1,48,55,38959372
661,2,T1_SMS_8,73,5,42,127,38985956
661,2,T1_SMS_8,74,1,48,47,39736364
661,2,T1_SMS_8,75,5,42,127,39785836
661,2,T1_SMS_8,76,1,48,49,40522704
661,2,T1_SMS_8,77,5,42,127,40585868
661,2,T1_SMS_8,78,1,48,53,41350492
661,2,T1_SMS_8,79,5,42,127,41386204
661,2,T1_SMS_8,80,1,48,54,42140804
661,2,T1_SMS_8,81,5,42,127,42186012
661,2,T1_SMS_8,82,1,48,53,42934248
661,2,T1_SMS_8,83,5,42,127,42985820
661,2,T1_SMS_8,84,1,48,56,43738776
661,2,T1_SMS_8,85,5,42,127,43785780
661,2,T1_SMS_8,86,1,48,52,44528188
661,2,T1_SMS_8,87,5,42,127,44586288
661,2,T1_SMS_8,88,1,48,57,45342204
661,2,T1_SMS_8,89,5,42,127,45386020
661,2,T1_SMS_8,90,1,48,53,46122144
661,2,T1_SMS_8,91,5,42,127,46185828
661,2,T1_SMS_8,92,1,48,53,46883476
661,2,T1_SMS_8,93,5,42,127,46985620
661,2,T1_SMS_8,94,1,48,55,47692140
661,2,T1_SMS_8,95,5,42,127,47787228
661,2,T1_SMS_8,96,5,42,127,48586084
661,2,T1_SMS_8,97,1,48,46,48601992
661,2,T1_SMS_8,98,5,42,127,49385816
661,2,T1_SMS_8,99,1,48,54,49402768
661,2,T1_SMS_8,100,1,48,53,50155740
661,2,T1_SMS_8,101,5,42,127,50185540
661,2,T1_SMS_8,102,1,48,48,50982204
661,2,T1_SMS_8,103,5,42,127,50986420
661,2,T1_SMS_8,104,5,42,127,51786088
661,2,T1_SMS_8,105,1,48,48,51821896
661,2,T1_SMS_8,106,1,48,46,52542996
661,2,T1_SMS_8,107,5,42,127,52585816
661,2,T1_SMS_8,108,1,48,47,53196176
661,2,T1_SMS_8,109,5,42,127,53385532
661,2,T1_SMS_8,110,5,42,127,54186632
661,2,T1_SMS_8,111,5,42,127,54985940
661,2,T1_SMS_8,112,1,48,44,55769204
661,2,T1_SMS_8,113,5,42,127,55785688
661,2,T1_SMS_8,114,1,48,50,56566688
661,2,T1_SMS_8,115,5,42,127,56585648
661,2,T1_SMS_8,116,5,42,127,57386608
661,2,T1_SMS_8,117,1,48,52,57408056
661,2,T1_SMS_8,118,1,48,48,58168128
661,2,T1_SMS_8,119,5,42,127,58186184
661,2,T1_SMS_8,120,1,48,52,58937572
661,2,T1_SMS_8,121,5,42,127,58985772
661,2,T1_SMS_8,122,1,48,53,59743512
661,2,T1_SMS_8,123,5,42,127,59785504
661,2,T1_SMS_8,124,1,48,50,60575404
661,2,T1_SMS_8,125,5,42,127,60586508
661,2,T1_SMS_8,126,5,42,127,61386024
661,2,T1_SMS_8,127,1,48,54,61387440
661,2,T1_SMS_8,128,1,48,53,62122516
661,2,T1_SMS_8,129,5,42,127,62185752
661,2,T1_SMS_8,130,1,48,48,62910656
661,2,T1_SMS_8,131,5,42,127,62985560
661,2,T1_SMS_8,132,1,48,44,63742548
661,2,T1_SMS_8,133,5,42,127,63786436
661,2,T1_SMS_8,134,1,48,46,64530988
661,2,T1_SMS_8,135,5,42,127,64585948
661,2,T1_SMS_8,136,1,48,47,65366052
661,2,T1_SMS_8,137,5,42,127,65385756
661,2,T1_SMS_8,138,1,48,48,66183376
661,2,T1_SMS_8,139,5,42,127,66185488
661,2,T1_SMS_8,140,5,42,127,66986204
661,2,T1_SMS_8,141,1,48,45,67005104
661,2,T1_SMS_8,142,1,48,48,67780360
661,2,T1_SMS_8,143,5,42,127,67786304
661,2,T1_SMS_8,144,5,42,127,68585744
661,2,T1_SMS_8,145,1,48,49,68609436
661,2,T1_SMS_8,146,5,42,127,69385624
661,2,T1_SMS_8,147,1,48,54,69426548
661,2,T1_SMS_8,148,1,48,24,69492420
661,2,T1_SMS_8,149,1,48,54,70166604
661,2,T1_SMS_8,150,5,42,127,70186256
661,2,T1_SMS_8,151,5,42,127,70986220
661,2,T1_SMS_8,152,1,48,56,70989788
661,2,T1_SMS_8,153,5,42,127,71785876
661,2,T1_SMS_8,154,1,48,60,71791692
661,2,T1_SMS_8,155,1,48,53,72577348
661,2,T1_SMS_8,156,5,42,127,72585532
661,2,T1_SMS_8,157,5,42,127,73386316
661,2,T1_SMS_8,158,1,48,57,73413148
661,2,T1_SMS_8,159,5,42,127,74186052
661,2,T1_SMS_8,160,1,48,53,74228364
661,2,T1_SMS_8,161,1,48,55,74948944
661,2,T1_SMS_8,162,5,42,127,74985704
661,2,T1_SMS_8,163,1,48,52,75744340
661,2,T1_SMS_8,164,5,42,127,75785512
661,2,T1_SMS_8,165,1,48,50,76549980
661,2,T1_SMS_8,166,5,42,127,76586316
661,2,T1_SMS_8,167,1,48,50,77347620
661,2,T1_SMS_8,168,5,42,127,77386024
661,2,T1_SMS_8,169,1,48,53,78157156
661,2,T1_SMS_8,170,5,42,127,78185832
661,2,T1_SMS_8,171,1,48,49,78900040
661,2,T1_SMS_8,172,5,42,127,78985716
661,2,T1_SMS_8,173,1,48,55,79742856
661,2,T1_SMS_8,174,5,42,127,79786272
661,2,T1_SMS_8,175,5,42,127,80586088
661,2,T1_SMS_8,176,1,48,54,80698216
661,2,T1_SMS_8,177,5,42,127,81385824
661,2,T1_SMS_8,178,1,48,47,81629744
661,2,T1_SMS_8,179,5,42,127,82185484
661,2,T1_SMS_8,180,1,48,45,82338076
661,2,T1_SMS_8,181,5,42,127,82986436
661,2,T1_SMS_8,182,5,42,127,83786040
661,2,T1_SMS_8,183,1,48,53,84184268
661,2,T1_SMS_8,184,5,42,127,84585776
661,2,T1_SMS_8,185,5,42,127,85385528
661,2,T1_SMS_8,186,5,42,127,86186332
661,2,T1_SMS_8,187,5,42,127,86986160
661,2,T1_SMS_8,188,1,48,49,87349928
661,2,T1_SMS_8,189,5,42,127,87785892
661,2,T1_SMS_8,190,1,48,39,87974684
661,2,T1_SMS_8,191,1,48,40,88548788
661,2,T1_SMS_8,192,5,42,127,88585620
661,2,T1_SMS_8,193,1,48,43,89334380
661,2,T1_SMS_8,194,5,42,127,89386200
661,2,T1_SMS_8,195,1,48,40,90091480
661,2,T1_SMS_8,196,5,42,127,90186232
661,2,T1_SMS_8,197,1,48,38,90857560
661,2,T1_SMS_8,198,5,42,127,90985948
661,2,T1_SMS_8,199,1,48,36,91625796
661,2,T1_SMS_8,200,5,42,127,91785608
661,2,T1_SMS_8,201,1,48,41,92437276
661,2,T1_SMS_8,202,5,42,127,92586464
661,2,T1_SMS_8,203,1,48,43,93196396
661,2,T1_SMS_8,204,5,42,127,93385972
661,2,T1_SMS_8,205,1,48,47,93970620
661,2,T1_SMS_8,206,5,42,127,94186000
661,2,T1_SMS_8,207,1,48,42,94706924
661,2,T1_SMS_8,208,5,42,127,94985512
661,2,T1_SMS_8,209,1,48,38,95453772
661,2,T1_SMS_8,210,5,42,127,95786316
661,2,T1_SMS_8,211,1,48,50,96401928
661,2,T1_SMS_8,212,5,42,127,96586124
661,2,T1_SMS_8,213,5,42,127,97386028
661,2,T1_SMS_8,214,5,42,127,98185560
661,2,T1_SMS_8,215,1,48,52,98834980
661,2,T1_SMS_8,216,5,42,127,98986340
661,2,T1_SMS_8,217,1,48,49,99724872
661,2,T1_SMS_8,218,5,42,127,99785940
661,2,T1_SMS_8,219,1,48,58,100493264
661,2,T1_SMS_8,220,5,42,127,100585824
661,2,T1_SMS_8,221,1,48,54,101329352
661,2,T1_SMS_8,222,5,42,127,101385856
661,2,T1_SMS_8,223,1,48,56,102166560
661,2,T1_SMS_8,224,5,42,127,102186288
661,2,T1_SMS_8,225,5,42,127,102986028
661,2,T1_SMS_8,226,1,48,53,103011212
661,2,T1_SMS_8,227,5,42,127,103785688
661,2,T1_SMS_8,228,1,48,57,103825828
661,2,T1_SMS_8,229,1,48,56,104542448
661,2,T1_SMS_8,230,5,42,127,104585784
661,2,T1_SMS_8,231,1,48,59,105311588
661,2,T1_SMS_8,0,9999,9999,9999,9384016
661,2,T1_SMS_8,1,9999,9999,9999,10183772
661,2,T1_SMS_8,2,9999,9999,9999,10983528
661,2,T1_SMS_8,3,9999,9999,9999,11783284
661,2,T1_SMS_8,4,9999,9999,9999,12584032
661,2,T1_SMS_8,5,9999,9999,9999,13383748
661,2,T1_SMS_8,6,9999,9999,9999,14183496
661,2,T1_SMS_8,7,9999,9999,9999,14983228
661,2,T1_SMS_8,8,9999,9999,9999,15784008
661,2,T1_SMS_8,9,9999,9999,9999,16583740
661,2,T1_SMS_8,10,9999,9999,9999,17383524
661,2,T1_SMS_8,11,9999,9999,9999,18183260
661,2,T1_SMS_8,12,9999,9999,9999,18983992
661,2,T1_SMS_8,13,9999,9999,9999,19783800
661,2,T1_SMS_8,14,9999,9999,9999,20583512
661,2,T1_SMS_8,15,9999,9999,9999,21383244
661,2,T1_SMS_8,16,9999,9999,9999,22184024
661,2,T1_SMS_8,17,9999,9999,9999,22983760
661,2,T1_SMS_8,18,9999,9999,9999,23783492
661,2,T1_SMS_8,19,9999,9999,9999,24583228
661,2,T1_SMS_8,20,9999,9999,9999,25384032
661,2,T1_SMS_8,21,9999,9999,9999,26183764
661,2,T1_SMS_8,22,9999,9999,9999,26983500
661,2,T1_SMS_8,23,9999,9999,9999,27783232
661,2,T1_SMS_8,24,9999,9999,9999,28584012
661,2,T1_SMS_8,25,9999,9999,9999,29383748
661,2,T1_SMS_8,26,9999,9999,9999,30183480
661,2,T1_SMS_8,27,9999,9999,9999,30983216
661,2,T1_SMS_8,28,9999,9999,9999,31784004
661,2,T1_SMS_8,29,9999,9999,9999,32583752
661,2,T1_SMS_8,30,9999,9999,9999,33383488
661,2,T1_SMS_8,31,9999,9999,9999,34183220
661,2,T1_SMS_8,32,9999,9999,9999,34984004
661,2,T1_SMS_8,33,9999,9999,9999,35783736
661,2,T1_SMS_8,34,9999,9999,9999,36583544
661,2,T1_SMS_8,35,9999,9999,9999,37383280
661,2,T1_SMS_8,36,9999,9999,9999,38184008
661,2,T1_SMS_8,37,9999,9999,9999,38983744
661,2,T1_SMS_8,38,9999,9999,9999,39783476
661,2,T1_SMS_8,39,9999,9999,9999,40583284
661,2,T1_SMS_8,40,9999,9999,9999,41383988
661,2,T1_SMS_8,41,9999,9999,9999,42183800
661,2,T1_SMS_8,42,9999,9999,9999,42983532
661,2,T1_SMS_8,43,9999,9999,9999,43783268
661,2,T1_SMS_8,44,9999,9999,9999,44584000
661,2,T1_SMS_8,45,9999,9999,9999,45383732
661,2,T1_SMS_8,46,9999,9999,9999,46183540
661,2,T1_SMS_8,47,9999,9999,9999,46983256
661,2,T1_SMS_8,48,9999,9999,9999,47784052
661,2,T1_SMS_8,49,9999,9999,9999,48583796
661,2,T1_SMS_8,50,9999,9999,9999,49383528
661,2,T1_SMS_8,51,9999,9999,9999,50183252
661,2,T1_SMS_8,52,9999,9999,9999,50983984
661,2,T1_SMS_8,53,9999,9999,9999,51783800
661,2,T1_SMS_8,54,9999,9999,9999,52583528
661,2,T1_SMS_8,55,9999,9999,9999,53383244
661,2,T1_SMS_8,56,9999,9999,9999,54184044
661,2,T1_SMS_8,57,9999,9999,9999,54983728
661,2,T1_SMS_8,58,9999,9999,9999,55783476
661,2,T1_SMS_8,59,9999,9999,9999,56583284
661,2,T1_SMS_8,60,9999,9999,9999,57384020
661,2,T1_SMS_8,61,9999,9999,9999,58183748
661,2,T1_SMS_8,62,9999,9999,9999,58983484
661,2,T1_SMS_8,63,9999,9999,9999,59783216
661,2,T1_SMS_8,64,9999,9999,9999,60584000
661,2,T1_SMS_8,65,9999,9999,9999,61383736
661,2,T1_SMS_8,66,9999,9999,9999,62183540
661,2,T1_SMS_8,67,9999,9999,9999,62983272
661,2,T1_SMS_8,68,9999,9999,9999,63784000
661,2,T1_SMS_8,69,9999,9999,9999,64583736
661,2,T1_SMS_8,70,9999,9999,9999,65383544
661,2,T1_SMS_8,71,9999,9999,9999,66183240
661,2,T1_SMS_8,72,9999,9999,9999,66983988
661,2,T1_SMS_8,73,9999,9999,9999,67783792
661,2,T1_SMS_8,74,9999,9999,9999,68583532
661,2,T1_SMS_8,75,9999,9999,9999,69383264
661,2,T1_SMS_8,76,9999,9999,9999,70184044
661,2,T1_SMS_8,77,9999,9999,9999,70983784
661,2,T1_SMS_8,78,9999,9999,9999,71783516
661,2,T1_SMS_8,79,9999,9999,9999,72583244
661,2,T1_SMS_8,80,9999,9999,9999,73384028
661,2,T1_SMS_8,81,9999,9999,9999,74183764
661,2,T1_SMS_8,82,9999,9999,9999,74983488
661,2,T1_SMS_8,83,9999,9999,9999,75783224
661,2,T1_SMS_8,84,9999,9999,9999,76584028
661,2,T1_SMS_8,85,9999,9999,9999,77383736
661,2,T1_SMS_8,86,9999,9999,9999,78183468
661,2,T1_SMS_8,87,9999,9999,9999,78983280
661,2,T1_SMS_8,88,9999,9999,9999,79783984
661,2,T1_SMS_8,89,9999,9999,9999,80583728
661,2,T1_SMS_8,90,9999,9999,9999,81383536
661,2,T1_SMS_8,91,9999,9999,9999,82183268
661,2,T1_SMS_8,92,9999,9999,9999,82984000
661,2,T1_SMS_8,93,9999,9999,9999,83783752
661,2,T1_SMS_8,94,9999,9999,9999,84583488
661,2,T1_SMS_8,95,9999,9999,9999,85383240
661,2,T1_SMS_8,96,9999,9999,9999,86184044
661,2,T1_SMS_8,97,9999,9999,9999,86983796
661,2,T1_SMS_8,98,9999,9999,9999,87783532
661,2,T1_SMS_8,99,9999,9999,9999,88583256
661,2,T1_SMS_8,100,9999,9999,9999,89383984
661,2,T1_SMS_8,101,9999,9999,9999,90183792
661,2,T1_SMS_8,102,9999,9999,9999,90983512
661,2,T1_SMS_8,103,9999,9999,9999,91783244
661,2,T1_SMS_8,104,9999,9999,9999,92584024
661,2,T1_SMS_8,105,9999,9999,9999,93383756
661,2,T1_SMS_8,106,9999,9999,9999,94183492
661,2,T1_SMS_8,107,9999,9999,9999,94983224
661,2,T1_SMS_8,108,9999,9999,9999,95784028
661,2,T1_SMS_8,109,9999,9999,9999,96583760
661,2,T1_SMS_8,110,9999,9999,9999,97383516
661,2,T1_SMS_8,111,9999,9999,9999,98183272
661,2,T1_SMS_8,112,9999,9999,9999,98984052
661,2,T1_SMS_8,113,9999,9999,9999,99783728
661,2,T1_SMS_8,114,9999,9999,9999,100583536
661,2,T1_SMS_8,115,9999,9999,9999,101383268
661,2,T1_SMS_8,116,9999,9999,9999,102184000
661,2,T1_SMS_8,117,9999,9999,9999,102983740
661,2,T1_SMS_8,118,9999,9999,9999,103783472
661,2,T1_SMS_8,119,9999,9999,9999,104583276
662,4,T1_SMS_5,0,5,42,127,149751088
662,4,T1_SMS_5,1,5,42,127,150250804
662,4,T1_SMS_5,2,5,42,127,150750820
662,4,T1_SMS_5,3,5,42,127,151251508
662,4,T1_SMS_5,4,5,42,127,151751000
662,4,T1_SMS_5,5,1,48,65,151799672
662,4,T1_SMS_5,6,1,48,51,152197624
662,4,T1_SMS_5,7,5,42,127,152250836
662,4,T1_SMS_5,8,1,48,61,152675924
662,4,T1_SMS_5,9,5,42,127,152750384
662,4,T1_SMS_5,10,1,48,54,153214216
662,4,T1_SMS_5,11,5,42,127,153251200
662,4,T1_SMS_5,12,1,48,57,153708076
662,4,T1_SMS_5,13,5,42,127,153750820
662,4,T1_SMS_5,14,1,48,56,154225568
662,4,T1_SMS_5,15,5,42,127,154250812
662,4,T1_SMS_5,16,5,42,127,154751412
662,4,T1_SMS_5,17,1,48,58,154773756
662,4,T1_SMS_5,18,1,48,63,155230424
662,4,T1_SMS_5,19,5,42,127,155251028
662,4,T1_SMS_5,20,1,48,58,155711864
662,4,T1_SMS_5,21,5,42,127,155750720
662,4,T1_SMS_5,22,1,48,57,156187680
662,4,T1_SMS_5,23,5,42,127,156250712
662,4,T1_SMS_5,24,1,48,56,156699716
662,4,T1_SMS_5,25,5,42,127,156751156
662,4,T1_SMS_5,26,1,48,64,157216404
662,4,T1_SMS_5,27,1,48,50,157240548
662,4,T1_SMS_5,28,5,42,127,157250980
662,4,T1_SMS_5,29,1,48,63,157725108
662,4,T1_SMS_5,30,5,42,127,157750824
662,4,T1_SMS_5,31,1,48,42,157762756
662,4,T1_SMS_5,32,1,48,71,158230092
662,4,T1_SMS_5,33,5,42,127,158251468
662,4,T1_SMS_5,34,1,48,48,158261308
662,4,T1_SMS_5,35,1,48,55,158737392
662,4,T1_SMS_5,36,5,42,127,158751192
662,4,T1_SMS_5,37,1,48,57,159222180
662,4,T1_SMS_5,38,5,42,127,159250788
662,4,T1_SMS_5,39,1,48,58,159718808
662,4,T1_SMS_5,40,1,48,41,159751884
662,4,T1_SMS_5,41,5,42,127,159752852
662,4,T1_SMS_5,42,1,48,57,160217736
662,4,T1_SMS_5,43,5,42,127,160251204
662,4,T1_SMS_5,44,1,48,39,160253124
662,4,T1_SMS_5,45,1,48,52,160744032
662,4,T1_SMS_5,46,5,42,127,160751024
662,4,T1_SMS_5,47,1,48,58,161230488
662,4,T1_SMS_5,48,5,42,127,161250644
662,4,T1_SMS_5,49,5,42,127,161751468
662,4,T1_SMS_5,50,1,48,60,162200356
662,4,T1_SMS_5,51,5,42,127,162251104
662,4,T1_SMS_5,52,1,48,64,162715084
662,4,T1_SMS_5,53,5,42,127,162750800
662,4,T1_SMS_5,54,1,48,68,163198404
662,4,T1_SMS_5,55,5,42,127,163250716
662,4,T1_SMS_5,56,1,48,75,163704228
662,4,T1_SMS_5,57,5,42,127,163751236
662,4,T1_SMS_5,58,1,48,76,164217612
662,4,T1_SMS_5,59,5,42,127,164250932
662,4,T1_SMS_5,60,1,48,44,164276332
662,4,T1_SMS_5,61,1,48,58,164731576
662,4,T1_SMS_5,62,5,42,127,164750684
662,4,T1_SMS_5,63,1,48,66,165203224
662,4,T1_SMS_5,64,5,42,127,165250600
662,4,T1_SMS_5,65,1,48,64,165733956
662,4,T1_SMS_5,66,5,42,127,165751120
662,4,T1_SMS_5,67,1,48,55,166229392
662,4,T1_SMS_5,68,5,42,127,166250968
662,4,T1_SMS_5,69,1,48,65,166742328
662,4,T1_SMS_5,70,5,42,127,166750512
662,4,T1_SMS_5,71,5,42,127,167251264
662,4,T1_SMS_5,72,1,48,62,167256024
662,4,T1_SMS_5,73,1,48,62,167750580
662,4,T1_SMS_5,74,5,42,127,167751996
662,4,T1_SMS_5,75,1,48,72,168230712
662,4,T1_SMS_5,76,5,42,127,168250796
662,4,T1_SMS_5,77,1,48,69,168744176
662,4,T1_SMS_5,78,5,42,127,168750344
662,4,T1_SMS_5,79,1,48,70,169244216
662,4,T1_SMS_5,80,5,42,127,169251308
662,4,T1_SMS_5,81,5,42,127,169750908
662,4,T1_SMS_5,82,1,48,75,169768564
662,4,T1_SMS_5,83,1,48,63,170239792
662,4,T1_SMS_5,84,5,42,127,170250600
662,4,T1_SMS_5,85,5,42,127,170751420
662,4,T1_SMS_5,86,1,48,69,170752460
662,4,T1_SMS_5,87,5,42,127,171250968
662,4,T1_SMS_5,88,1,48,67,171259996
662,4,T1_SMS_5,89,1,48,68,171744856
662,4,T1_SMS_5,90,5,42,127,171750804
662,4,T1_SMS_5,91,5,42,127,172250504
662,4,T1_SMS_5,92,1,48,70,172262824
662,4,T1_SMS_5,93,5,42,127,172751320
662,4,T1_SMS_5,94,1,48,68,172752508
662,4,T1_SMS_5,95,1,48,62,173226960
662,4,T1_SMS_5,96,5,42,127,173250784
662,4,T1_SMS_5,97,5,42,127,173750564
662,4,T1_SMS_5,98,1,48,73,173755848
662,4,T1_SMS_5,99,5,42,127,174251280
662,4,T1_SMS_5,100,1,48,75,174262176
662,4,T1_SMS_5,101,5,42,127,174751124
662,4,T1_SMS_5,102,1,48,70,174768004
662,4,T1_SMS_5,103,1,48,72,175236120
662,4,T1_SMS_5,104,5,42,127,175250736
662,4,T1_SMS_5,105,5,42,127,175750512
662,4,T1_SMS_5,106,1,48,74,175767624
662,4,T1_SMS_5,107,1,48,59,176231620
662,4,T1_SMS_5,108,5,42,127,176251396
662,4,T1_SMS_5,109,5,42,127,176751396
662,4,T1_SMS_5,110,1,48,72,176770972
662,4,T1_SMS_5,111,5,42,127,177250572
662,4,T1_SMS_5,112,1,48,63,177266856
662,4,T1_SMS_5,113,5,42,127,177751536
662,4,T1_SMS_5,114,1,48,69,177778068
662,4,T1_SMS_5,115,5,42,127,178251380
662,4,T1_SMS_5,116,1,48,65,178269008
662,4,T1_SMS_5,117,5,42,127,178750776
662,4,T1_SMS_5,118,1,48,68,178757336
662,4,T1_SMS_5,119,5,42,127,179250400
662,4,T1_SMS_5,120,1,48,62,179254036
662,4,T1_SMS_5,121,5,42,127,179751364
662,4,T1_SMS_5,122,1,48,72,179771688
662,4,T1_SMS_5,123,1,48,64,180251184
662,4,T1_SMS_5,124,5,42,127,180252448
662,4,T1_SMS_5,125,5,42,127,180750660
662,4,T1_SMS_5,126,1,48,67,180759612
662,4,T1_SMS_5,127,1,48,69,181245672
662,4,T1_SMS_5,128,5,42,127,181250344
662,4,T1_SMS_5,129,5,42,127,181751320
662,4,T1_SMS_5,130,1,48,61,181785180
662,4,T1_SMS_5,131,5,42,127,182250716
662,4,T1_SMS_5,132,1,48,65,182269168
662,4,T1_SMS_5,133,5,42,127,182750632
662,4,T1_SMS_5,134,1,48,72,182783072
662,4,T1_SMS_5,135,5,42,127,183251224
662,4,T1_SMS_5,136,1,48,65,183289720
662,4,T1_SMS_5,137,5,42,127,183751292
662,4,T1_SMS_5,138,1,48,62,183796444
662,4,T1_SMS_5,139,5,42,127,184250616
662,4,T1_SMS_5,140,1,48,63,184256272
662,4,T1_SMS_5,141,1,48,27,184337488
662,4,T1_SMS_5,142,5,42,127,184750436
662,4,T1_SMS_5,143,1,48,69,184778240
662,4,T1_SMS_5,144,5,42,127,185251252
662,4,T1_SMS_5,145,1,48,70,185271872
662,4,T1_SMS_5,146,5,42,127,185751168
662,4,T1_SMS_5,147,1,48,74,185777628
662,4,T1_SMS_5,148,5,42,127,186250568
662,4,T1_SMS_5,149,1,48,69,186261840
662,4,T1_SMS_5,150,5,42,127,186751308
662,4,T1_SMS_5,151,1,48,66,186760180
662,4,T1_SMS_5,152,5,42,127,187251224
662,4,T1_SMS_5,153,1,48,64,187259284
662,4,T1_SMS_5,154,1,48,67,187736668
662,4,T1_SMS_5,155,5,42,127,187750840
662,4,T1_SMS_5,156,5,42,127,188250468
662,4,T1_SMS_5,157,1,48,68,188273780
662,4,T1_SMS_5,158,5,42,127,188751284
662,4,T1_SMS_5,159,1,48,62,188768088
662,4,T1_SMS_5,160,5,42,127,189251128
662,4,T1_SMS_5,161,1,48,63,189292168
662,4,T1_SMS_5,162,1,48,64,189741056
662,4,T1_SMS_5,163,5,42,127,189750592
662,4,T1_SMS_5,164,5,42,127,190251416
662,4,T1_SMS_5,165,1,48,62,190513732
662,4,T1_SMS_5,166,5,42,127,190751036
662,4,T1_SMS_5,167,5,42,127,191250728
662,4,T1_SMS_5,168,5,42,127,191750520
662,4,T1_SMS_5,169,5,42,127,192251284
662,4,T1_SMS_5,170,5,42,127,192750928
662,4,T1_SMS_5,171,1,48,69,193225096
662,4,T1_SMS_5,172,5,42,127,193250560
662,4,T1_SMS_5,173,1,48,86,193709008
662,4,T1_SMS_5,174,5,42,127,193751528
662,4,T1_SMS_5,175,1,48,85,194224564
662,4,T1_SMS_5,176,5,42,127,194251076
662,4,T1_SMS_5,177,1,48,72,194739816
662,4,T1_SMS_5,178,5,42,127,194750920
662,4,T1_SMS_5,179,1,48,78,195224628
662,4,T1_SMS_5,180,5,42,127,195250392
662,4,T1_SMS_5,181,5,42,127,195751136
662,4,T1_SMS_5,182,1,48,74,195754776
662,4,T1_SMS_5,183,5,42,127,196250908
662,4,T1_SMS_5,184,1,48,76,196273624
662,4,T1_SMS_5,185,1,48,70,196730664
662,4,T1_SMS_5,186,5,42,127,196750820
662,4,T1_SMS_5,187,5,42,127,197250372
662,4,T1_SMS_5,188,1,48,67,197256340
662,4,T1_SMS_5,189,5,42,127,197751116
662,4,T1_SMS_5,190,1,48,58,197763880
662,4,T1_SMS_5,191,1,48,68,198245008
662,4,T1_SMS_5,192,5,42,127,198251028
662,4,T1_SMS_5,193,5,42,127,198750652
662,4,T1_SMS_5,194,1,48,71,198768432
662,4,T1_SMS_5,195,1,48,69,199222180
662,4,T1_SMS_5,196,5,42,127,199251316
662,4,T1_SMS_5,197,5,42,127,199751016
662,4,T1_SMS_5,198,1,48,82,199779264
662,4,T1_SMS_5,199,5,42,127,200250860
662,4,T1_SMS_5,200,1,48,70,200299980
662,4,T1_SMS_5,201,5,42,127,200750332
662,4,T1_SMS_5,202,1,48,68,200753896
662,4,T1_SMS_5,203,5,42,127,201251296
662,4,T1_SMS_5,204,1,48,77,201280368
662,4,T1_SMS_5,205,5,42,127,201750820
662,4,T1_SMS_5,206,1,48,69,201776256
662,4,T1_SMS_5,207,1,48,76,202231852
662,4,T1_SMS_5,208,5,42,127,202250732
662,4,T1_SMS_5,209,5,42,127,202751404
662,4,T1_SMS_5,210,1,48,65,202783272
662,4,T1_SMS_5,211,1,48,79,203212760
662,4,T1_SMS_5,212,5,42,127,203251020
662,4,T1_SMS_5,213,1,48,67,203742076
662,4,T1_SMS_5,214,5,42,127,203750864
662,4,T1_SMS_5,215,1,48,65,204204304
662,4,T1_SMS_5,216,5,42,127,204250412
662,4,T1_SMS_5,217,1,48,65,204746404
662,4,T1_SMS_5,218,5,42,127,204751228
662,4,T1_SMS_5,219,1,48,69,205203016
662,4,T1_SMS_5,220,5,42,127,205250848
662,4,T1_SMS_5,221,5,42,127,205750772
662,4,T1_SMS_5,222,1,48,61,205759652
662,4,T1_SMS_5,223,1,48,61,206202852
662,4,T1_SMS_5,224,5,42,127,206251432
662,4,T1_SMS_5,225,5,42,127,206751132
662,4,T1_SMS_5,226,1,48,63,206784020
662,4,T1_SMS_5,227,1,48,73,207191696
662,4,T1_SMS_5,228,5,42,127,207250748
662,4,T1_SMS_5,229,5,42,127,207750596
662,4,T1_SMS_5,230,1,48,66,207766428
662,4,T1_SMS_5,231,1,48,67,208180544
662,4,T1_SMS_5,232,5,42,127,208251332
662,4,T1_SMS_5,233,1,48,59,208749444
662,4,T1_SMS_5,234,5,42,127,208750880
662,4,T1_SMS_5,235,1,48,63,209239692
662,4,T1_SMS_5,236,5,42,127,209250796
662,4,T1_SMS_5,237,5,42,127,209751396
662,4,T1_SMS_5,238,1,48,54,209776056
662,4,T1_SMS_5,239,1,48,62,210233772
662,4,T1_SMS_5,240,5,42,127,210251160
662,4,T1_SMS_5,241,1,48,59,210748592
662,4,T1_SMS_5,242,5,42,127,210750784
662,4,T1_SMS_5,243,5,42,127,211250632
662,4,T1_SMS_5,244,1,48,64,211255772
662,4,T1_SMS_5,245,5,42,127,211751300
662,4,T1_SMS_5,246,1,48,58,211768108
662,4,T1_SMS_5,247,5,42,127,212250972
662,4,T1_SMS_5,248,1,48,53,212257772
662,4,T1_SMS_5,249,1,48,58,212741040
662,4,T1_SMS_5,250,5,42,127,212750580
662,4,T1_SMS_5,251,1,48,55,213229672
662,4,T1_SMS_5,252,5,42,127,213250348
662,4,T1_SMS_5,253,1,48,63,213719568
662,4,T1_SMS_5,254,5,42,127,213751016
662,4,T1_SMS_5,255,1,48,60,214224720
662,4,T1_SMS_5,256,5,42,127,214250784
662,4,T1_SMS_5,257,1,48,59,214720752
662,4,T1_SMS_5,0,9999,9999,9999,149748800
662,4,T1_SMS_5,1,9999,9999,9999,150248520
662,4,T1_SMS_5,2,9999,9999,9999,150748236
662,4,T1_SMS_5,3,9999,9999,9999,151249000
662,4,T1_SMS_5,4,9999,9999,9999,151748716
662,4,T1_SMS_5,5,9999,9999,9999,152248404
662,4,T1_SMS_5,6,9999,9999,9999,152748100
662,4,T1_SMS_5,7,9999,9999,9999,153248840
662,4,T1_SMS_5,8,9999,9999,9999,153748532
662,4,T1_SMS_5,9,9999,9999,9999,154248304
662,4,T1_SMS_5,10,9999,9999,9999,154748976
662,4,T1_SMS_5,11,9999,9999,9999,155248740
662,4,T1_SMS_5,12,9999,9999,9999,155748432
662,4,T1_SMS_5,13,9999,9999,9999,156248128
662,4,T1_SMS_5,14,9999,9999,9999,156748868
662,4,T1_SMS_5,15,9999,9999,9999,157248616
662,4,T1_SMS_5,16,9999,9999,9999,157748312
662,4,T1_SMS_5,17,9999,9999,9999,158249032
662,4,T1_SMS_5,18,9999,9999,9999,158748756
662,4,T1_SMS_5,19,9999,9999,9999,159248500
662,4,T1_SMS_5,20,9999,9999,9999,159748196
662,4,T1_SMS_5,21,9999,9999,9999,160248916
662,4,T1_SMS_5,22,9999,9999,9999,160748664
662,4,T1_SMS_5,23,9999,9999,9999,161248360
662,4,T1_SMS_5,24,9999,9999,9999,161749108
662,4,T1_SMS_5,25,9999,9999,9999,162248820
662,4,T1_SMS_5,26,9999,9999,9999,162748512
662,4,T1_SMS_5,27,9999,9999,9999,163248208
662,4,T1_SMS_5,28,9999,9999,9999,163748952
662,4,T1_SMS_5,29,9999,9999,9999,164248648
662,4,T1_SMS_5,30,9999,9999,9999,164748396
662,4,T1_SMS_5,31,9999,9999,9999,165248092
662,4,T1_SMS_5,32,9999,9999,9999,165748836
662,4,T1_SMS_5,33,9999,9999,9999,166248532
662,4,T1_SMS_5,34,9999,9999,9999,166748228
662,4,T1_SMS_5,35,9999,9999,9999,167248976
662,4,T1_SMS_5,36,9999,9999,9999,167748672
662,4,T1_SMS_5,37,9999,9999,9999,168248436
662,4,T1_SMS_5,38,9999,9999,9999,168748132
662,4,T1_SMS_5,39,9999,9999,9999,169248872
662,4,T1_SMS_5,40,9999,9999,9999,169748548
662,4,T1_SMS_5,41,9999,9999,9999,170248312
662,4,T1_SMS_5,42,9999,9999,9999,170748984
662,4,T1_SMS_5,43,9999,9999,9999,171248756
662,4,T1_SMS_5,44,9999,9999,9999,171748440
662,4,T1_SMS_5,45,9999,9999,9999,172248144
662,4,T1_SMS_5,46,9999,9999,9999,172748884
662,4,T1_SMS_5,47,9999,9999,9999,173248572
662,4,T1_SMS_5,48,9999,9999,9999,173748276
662,4,T1_SMS_5,49,9999,9999,9999,174249068
662,4,T1_SMS_5,50,9999,9999,9999,174748764
662,4,T1_SMS_5,51,9999,9999,9999,175248452
662,4,T1_SMS_5,52,9999,9999,9999,175748152
662,4,T1_SMS_5,53,9999,9999,9999,176248888
662,4,T1_SMS_5,54,9999,9999,9999,176748664
662,4,T1_SMS_5,55,9999,9999,9999,177248360
662,4,T1_SMS_5,56,9999,9999,9999,177749100
662,4,T1_SMS_5,57,9999,9999,9999,178248796
662,4,T1_SMS_5,58,9999,9999,9999,178748488
662,4,T1_SMS_5,59,9999,9999,9999,179248184
662,4,T1_SMS_5,60,9999,9999,9999,179748928
662,4,T1_SMS_5,61,9999,9999,9999,180248676
662,4,T1_SMS_5,62,9999,9999,9999,180748372
662,4,T1_SMS_5,63,9999,9999,9999,181248060
662,4,T1_SMS_5,64,9999,9999,9999,181748808
662,4,T1_SMS_5,65,9999,9999,9999,182248504
662,4,T1_SMS_5,66,9999,9999,9999,182748272
662,4,T1_SMS_5,67,9999,9999,9999,183249012
662,4,T1_SMS_5,68,9999,9999,9999,183748708
662,4,T1_SMS_5,69,9999,9999,9999,184248404
662,4,T1_SMS_5,70,9999,9999,9999,184748148
662,4,T1_SMS_5,71,9999,9999,9999,185248888
662,4,T1_SMS_5,72,9999,9999,9999,185748584
662,4,T1_SMS_5,73,9999,9999,9999,186248280
662,4,T1_SMS_5,74,9999,9999,9999,186749020
662,4,T1_SMS_5,75,9999,9999,9999,187248716
662,4,T1_SMS_5,76,9999,9999,9999,187748404
662,4,T1_SMS_5,77,9999,9999,9999,188248180
662,4,T1_SMS_5,78,9999,9999,9999,188748848
662,4,T1_SMS_5,79,9999,9999,9999,189248616
662,4,T1_SMS_5,80,9999,9999,9999,189748304
662,4,T1_SMS_5,81,9999,9999,9999,190249056
662,4,T1_SMS_5,82,9999,9999,9999,190748724
662,4,T1_SMS_5,83,9999,9999,9999,191248444
662,4,T1_SMS_5,84,9999,9999,9999,191748160
662,4,T1_SMS_5,85,9999,9999,9999,192248924
662,4,T1_SMS_5,86,9999,9999,9999,192748640
662,4,T1_SMS_5,87,9999,9999,9999,193248348
662,4,T1_SMS_5,88,9999,9999,9999,193749092
662,4,T1_SMS_5,89,9999,9999,9999,194248788
662,4,T1_SMS_5,90,9999,9999,9999,194748484
662,4,T1_SMS_5,91,9999,9999,9999,195248180
662,4,T1_SMS_5,92,9999,9999,9999,195748924
662,4,T1_SMS_5,93,9999,9999,9999,196248696
662,4,T1_SMS_5,94,9999,9999,9999,196748384
662,4,T1_SMS_5,95,9999,9999,9999,197248088
662,4,T1_SMS_5,96,9999,9999,9999,197748828
662,4,T1_SMS_5,97,9999,9999,9999,198248520
662,4,T1_SMS_5,98,9999,9999,9999,198748220
662,4,T1_SMS_5,99,9999,9999,9999,199248952
662,4,T1_SMS_5,100,9999,9999,9999,199748728
662,4,T1_SMS_5,101,9999,9999,9999,200248424
662,4,T1_SMS_5,102,9999,9999,9999,200748120
662,4,T1_SMS_5,103,9999,9999,9999,201248864
662,4,T1_SMS_5,104,9999,9999,9999,201748532
662,4,T1_SMS_5,105,9999,9999,9999,202248296
662,4,T1_SMS_5,106,9999,9999,9999,202749044
662,4,T1_SMS_5,107,9999,9999,9999,203248732
662,4,T1_SMS_5,108,9999,9999,9999,203748428
662,4,T1_SMS_5,109,9999,9999,9999,204248124
662,4,T1_SMS_5,110,9999,9999,9999,204748868
662,4,T1_SMS_5,111,9999,9999,9999,205248560
662,4,T1_SMS_5,112,9999,9999,9999,205748336
662,4,T1_SMS_5,113,9999,9999,9999,206249072
662,4,T1_SMS_5,114,9999,9999,9999,206748772
662,4,T1_SMS_5,115,9999,9999,9999,207248460
662,4,T1_SMS_5,116,9999,9999,9999,207748160
662,4,T1_SMS_5,117,9999,9999,9999,208248896
662,4,T1_SMS_5,118,9999,9999,9999,208748600
662,4,T1_SMS_5,119,9999,9999,9999,209248360
662,4,T1_SMS_5,120,9999,9999,9999,209749108
662,4,T1_SMS_5,121,9999,9999,9999,210248800
662,4,T1_SMS_5,122,9999,9999,9999,210748464
662,4,T1_SMS_5,123,9999,9999,9999,211248196
662,4,T1_SMS_5,124,9999,9999,9999,211748940
662,4,T1_SMS_5,125,9999,9999,9999,212248684
662,4,T1_SMS_5,126,9999,9999,9999,212748368
662,4,T1_SMS_5,127,9999,9999,9999,213248064
662,4,T1_SMS_5,128,9999,9999,9999,213748804
662,4,T1_SMS_5,129,9999,9999,9999,214248500
663,22,Ticks_Phase_8,0,5,42,127,226551132
663,22,Ticks_Phase_8,1,1,48,65,227143016
663,22,Ticks_Phase_8,2,5,42,127,227350844
663,22,Ticks_Phase_8,3,5,42,127,228150676
663,22,Ticks_Phase_8,4,5,42,127,228951384
663,22,Ticks_Phase_8,5,5,42,127,229751340
663,22,Ticks_Phase_8,6,1,48,67,229777144
663,22,Ticks_Phase_8,7,1,48,32,229856656
663,22,Ticks_Phase_8,8,1,48,62,230504636
663,22,Ticks_Phase_8,9,1,48,50,230542208
663,22,Ticks_Phase_8,10,5,42,127,230550852
663,22,Ticks_Phase_8,11,1,48,55,231310248
663,22,Ticks_Phase_8,12,5,42,127,231350564
663,22,Ticks_Phase_8,13,1,48,59,232092208
663,22,Ticks_Phase_8,14,1,48,42,232127376
663,22,Ticks_Phase_8,15,5,42,127,232151376
663,22,Ticks_Phase_8,16,1,48,59,232936000
663,22,Ticks_Phase_8,17,5,42,127,232951236
663,22,Ticks_Phase_8,18,1,48,57,233747692
663,22,Ticks_Phase_8,19,5,42,127,233750872
663,22,Ticks_Phase_8,20,1,48,31,233814508
663,22,Ticks_Phase_8,21,5,42,127,234550596
663,22,Ticks_Phase_8,22,1,48,61,234564868
663,22,Ticks_Phase_8,23,1,48,59,235298292
663,22,Ticks_Phase_8,24,5,42,127,235351496
663,22,Ticks_Phase_8,25,1,48,62,236072028
663,22,Ticks_Phase_8,26,5,42,127,236151280
663,22,Ticks_Phase_8,27,5,42,127,236950780
663,22,Ticks_Phase_8,28,1,48,56,236956508
663,22,Ticks_Phase_8,29,5,42,127,237750712
663,22,Ticks_Phase_8,30,1,48,48,237851336
663,22,Ticks_Phase_8,31,5,42,127,238551296
663,22,Ticks_Phase_8,32,1,48,58,238561232
663,22,Ticks_Phase_8,33,5,42,127,239351308
663,22,Ticks_Phase_8,34,1,48,61,239406868
663,22,Ticks_Phase_8,35,5,42,127,240151168
663,22,Ticks_Phase_8,36,1,48,58,240152428
663,22,Ticks_Phase_8,37,5,42,127,240950608
663,22,Ticks_Phase_8,38,1,48,62,240974836
663,22,Ticks_Phase_8,39,5,42,127,241751516
663,22,Ticks_Phase_8,40,1,48,58,241768796
663,22,Ticks_Phase_8,41,5,42,127,242551300
663,22,Ticks_Phase_8,42,1,48,56,242596956
663,22,Ticks_Phase_8,43,1,48,60,243317276
663,22,Ticks_Phase_8,44,5,42,127,243351008
663,22,Ticks_Phase_8,45,1,48,61,244081872
663,22,Ticks_Phase_8,46,5,42,127,244150568
663,22,Ticks_Phase_8,47,1,48,42,244941488
663,22,Ticks_Phase_8,48,5,42,127,244951624
663,22,Ticks_Phase_8,49,5,42,127,245751272
663,22,Ticks_Phase_8,50,1,48,48,245797844
663,22,Ticks_Phase_8,51,1,48,57,246462128
663,22,Ticks_Phase_8,52,5,42,127,246551048
663,22,Ticks_Phase_8,53,1,48,50,247244016
663,22,Ticks_Phase_8,54,5,42,127,247350624
663,22,Ticks_Phase_8,55,1,48,52,248022008
663,22,Ticks_Phase_8,56,5,42,127,248151304
663,22,Ticks_Phase_8,57,5,42,127,248951112
663,22,Ticks_Phase_8,58,1,48,53,248954008
663,22,Ticks_Phase_8,59,1,48,48,249735432
663,22,Ticks_Phase_8,60,5,42,127,249751192
663,22,Ticks_Phase_8,61,1,48,44,250515528
663,22,Ticks_Phase_8,62,5,42,127,250531060
663,22,Ticks_Phase_8,63,1,48,45,251282140
663,22,Ticks_Phase_8,64,5,42,127,251330920
663,22,Ticks_Phase_8,65,1,48,48,252068068
663,22,Ticks_Phase_8,66,5,42,127,252130780
663,22,Ticks_Phase_8,67,1,48,53,252902304
663,22,Ticks_Phase_8,68,5,42,127,252930420
663,22,Ticks_Phase_8,69,1,48,43,253659784
663,22,Ticks_Phase_8,70,5,42,127,253731128
663,22,Ticks_Phase_8,71,1,48,44,254488020
663,22,Ticks_Phase_8,72,5,42,127,254530912
663,22,Ticks_Phase_8,73,1,48,48,255277868
663,22,Ticks_Phase_8,74,5,42,127,255330552
663,22,Ticks_Phase_8,75,1,48,42,256075936
663,22,Ticks_Phase_8,76,5,42,127,256130340
663,22,Ticks_Phase_8,77,1,48,49,256867336
663,22,Ticks_Phase_8,78,5,42,127,256931172
663,22,Ticks_Phase_8,79,1,48,48,257665176
663,22,Ticks_Phase_8,80,5,42,127,257730884
663,22,Ticks_Phase_8,81,1,48,53,258463916
663,22,Ticks_Phase_8,82,5,42,127,258530596
663,22,Ticks_Phase_8,83,1,48,35,259271492
663,22,Ticks_Phase_8,84,5,42,127,259330456
663,22,Ticks_Phase_8,85,1,48,54,260020804
663,22,Ticks_Phase_8,86,5,42,127,260131076
663,22,Ticks_Phase_8,87,1,48,49,260884016
663,22,Ticks_Phase_8,88,5,42,127,260930880
663,22,Ticks_Phase_8,89,1,48,50,261699112
663,22,Ticks_Phase_8,90,5,42,127,261730812
663,22,Ticks_Phase_8,91,1,48,19,262522480
663,22,Ticks_Phase_8,92,5,42,127,262530524
663,22,Ticks_Phase_8,93,1,48,62,263286992
663,22,Ticks_Phase_8,94,5,42,127,263331208
663,22,Ticks_Phase_8,95,1,48,51,264096436
663,22,Ticks_Phase_8,96,5,42,127,264131068
663,22,Ticks_Phase_8,97,1,48,65,264901024
663,22,Ticks_Phase_8,98,5,42,127,264951152
663,22,Ticks_Phase_8,99,1,48,40,265669664
663,22,Ticks_Phase_8,100,5,42,127,265750788
663,22,Ticks_Phase_8,101,1,48,66,266470796
663,22,Ticks_Phase_8,102,5,42,127,266550748
663,22,Ticks_Phase_8,103,1,48,38,267296132
663,22,Ticks_Phase_8,104,5,42,127,267351284
663,22,Ticks_Phase_8,105,1,48,65,268095772
663,22,Ticks_Phase_8,106,5,42,127,268151072
663,22,Ticks_Phase_8,107,1,48,58,268900508
663,22,Ticks_Phase_8,108,5,42,127,268950856
663,22,Ticks_Phase_8,109,1,48,66,269688448
663,22,Ticks_Phase_8,110,5,42,127,269750644
663,22,Ticks_Phase_8,111,1,48,55,270497672
663,22,Ticks_Phase_8,112,5,42,127,270551400
663,22,Ticks_Phase_8,113,1,48,63,271302556
663,22,Ticks_Phase_8,114,5,42,127,271351040
663,22,Ticks_Phase_8,115,1,48,56,272066240
663,22,Ticks_Phase_8,116,5,42,127,272150972
663,22,Ticks_Phase_8,117,1,48,67,272781264
663,22,Ticks_Phase_8,118,5,42,127,272950624
663,22,Ticks_Phase_8,119,1,48,45,273681848
663,22,Ticks_Phase_8,120,5,42,127,273751696
663,22,Ticks_Phase_8,121,5,42,127,274551040
663,22,Ticks_Phase_8,122,1,48,62,274573856
663,22,Ticks_Phase_8,123,1,48,53,275329604
663,22,Ticks_Phase_8,124,5,42,127,275350820
663,22,Ticks_Phase_8,125,1,48,63,276131332
663,22,Ticks_Phase_8,126,5,42,127,276150756
663,22,Ticks_Phase_8,127,5,42,127,276951672
663,22,Ticks_Phase_8,128,1,48,54,276952640
663,22,Ticks_Phase_8,129,1,48,67,277719528
663,22,Ticks_Phase_8,130,5,42,127,277791020
663,22,Ticks_Phase_8,131,1,48,49,278542752
663,22,Ticks_Phase_8,132,5,42,127,278590884
663,22,Ticks_Phase_8,133,5,42,127,279390452
663,22,Ticks_Phase_8,134,1,48,65,279406296
663,22,Ticks_Phase_8,135,1,48,41,280153876
663,22,Ticks_Phase_8,136,5,42,127,280191576
663,22,Ticks_Phase_8,137,5,42,127,280991220
663,22,Ticks_Phase_8,138,1,48,62,281007144
663,22,Ticks_Phase_8,139,1,48,51,281714136
663,22,Ticks_Phase_8,140,5,42,127,281790780
663,22,Ticks_Phase_8,141,1,48,61,282587756
663,22,Ticks_Phase_8,142,5,42,127,282590488
663,22,Ticks_Phase_8,143,1,48,36,283354596
663,22,Ticks_Phase_8,144,5,42,127,283391620
663,22,Ticks_Phase_8,145,5,42,127,284191064
663,22,Ticks_Phase_8,146,1,48,68,284201896
663,22,Ticks_Phase_8,147,5,42,127,284990776
663,22,Ticks_Phase_8,148,1,48,46,285021532
663,22,Ticks_Phase_8,149,5,42,127,285790564
663,22,Ticks_Phase_8,150,1,48,57,285881976
663,22,Ticks_Phase_8,151,5,42,127,286591768
663,22,Ticks_Phase_8,152,1,48,37,286712760
663,22,Ticks_Phase_8,153,1,48,68,287320756
663,22,Ticks_Phase_8,154,5,42,127,287390952
663,22,Ticks_Phase_8,155,1,48,48,288077248
663,22,Ticks_Phase_8,156,1,48,30,288150248
663,22,Ticks_Phase_8,157,5,42,127,288190716
663,22,Ticks_Phase_8,158,5,42,127,288990512
663,22,Ticks_Phase_8,159,5,42,127,289791440
663,22,Ticks_Phase_8,160,5,42,127,290591272
663,22,Ticks_Phase_8,161,5,42,127,291350844
663,22,Ticks_Phase_8,162,1,48,67,291413944
663,22,Ticks_Phase_8,163,5,42,127,292150776
663,22,Ticks_Phase_8,164,1,48,49,292165500
663,22,Ticks_Phase_8,165,1,48,57,292926332
663,22,Ticks_Phase_8,166,5,42,127,292951380
663,22,Ticks_Phase_8,167,1,48,54,293703136
663,22,Ticks_Phase_8,168,5,42,127,293751092
663,22,Ticks_Phase_8,169,1,48,56,294500828
663,22,Ticks_Phase_8,170,5,42,127,294550880
663,22,Ticks_Phase_8,171,1,48,59,295271256
663,22,Ticks_Phase_8,172,5,42,127,295350740
663,22,Ticks_Phase_8,173,1,48,54,296044376
663,22,Ticks_Phase_8,174,5,42,127,296151408
663,22,Ticks_Phase_8,175,1,48,47,296887448
663,22,Ticks_Phase_8,176,5,42,127,296951208
663,22,Ticks_Phase_8,177,1,48,62,297716508
663,22,Ticks_Phase_8,178,5,42,127,297750848
663,22,Ticks_Phase_8,179,1,48,56,298507984
663,22,Ticks_Phase_8,180,5,42,127,298550584
663,22,Ticks_Phase_8,181,1,48,53,299293348
663,22,Ticks_Phase_8,182,5,42,127,299351344
663,22,Ticks_Phase_8,183,1,48,49,300137088
663,22,Ticks_Phase_8,184,5,42,127,300151352
663,22,Ticks_Phase_8,185,5,42,127,300950924
663,22,Ticks_Phase_8,186,1,48,49,300988572
663,22,Ticks_Phase_8,187,1,48,54,301676152
663,22,Ticks_Phase_8,188,5,42,127,301750552
663,22,Ticks_Phase_8,189,1,48,54,302520432
663,22,Ticks_Phase_8,190,5,42,127,302551384
663,22,Ticks_Phase_8,191,1,48,51,303299548
663,22,Ticks_Phase_8,192,5,42,127,303351396
663,22,Ticks_Phase_8,193,5,42,127,304071208
663,22,Ticks_Phase_8,194,1,48,45,304123380
663,22,Ticks_Phase_8,195,1,48,62,304826400
663,22,Ticks_Phase_8,196,5,42,127,304870692
663,22,Ticks_Phase_8,197,1,48,65,305570176
663,22,Ticks_Phase_8,198,5,42,127,305670536
663,22,Ticks_Phase_8,199,1,48,64,306413692
663,22,Ticks_Phase_8,200,5,42,127,306471184
663,22,Ticks_Phase_8,201,1,48,48,307251848
663,22,Ticks_Phase_8,202,5,42,127,307271120
663,22,Ticks_Phase_8,203,1,48,55,308048256
663,22,Ticks_Phase_8,204,5,42,127,308070684
663,22,Ticks_Phase_8,205,1,48,47,308834864
663,22,Ticks_Phase_8,206,5,42,127,308870468
663,22,Ticks_Phase_8,207,1,48,52,309625140
663,22,Ticks_Phase_8,208,5,42,127,309671300
663,22,Ticks_Phase_8,209,1,48,47,310432268
663,22,Ticks_Phase_8,210,5,42,127,310471088
663,22,Ticks_Phase_8,211,1,48,62,311220376
663,22,Ticks_Phase_8,212,5,42,127,311270876
663,22,Ticks_Phase_8,213,1,48,48,312023524
663,22,Ticks_Phase_8,214,5,42,127,312070364
663,22,Ticks_Phase_8,215,1,48,59,312833944
663,22,Ticks_Phase_8,216,5,42,127,312871220
663,22,Ticks_Phase_8,217,1,48,53,313661768
663,22,Ticks_Phase_8,218,5,42,127,313671156
663,22,Ticks_Phase_8,219,1,48,62,314430100
663,22,Ticks_Phase_8,220,5,42,127,314470716
663,22,Ticks_Phase_8,221,1,48,49,315186448
663,22,Ticks_Phase_8,222,5,42,127,315270432
663,22,Ticks_Phase_8,223,1,48,74,315997540
663,22,Ticks_Phase_8,224,5,42,127,316071336
663,22,Ticks_Phase_8,225,1,48,50,316863532
663,22,Ticks_Phase_8,226,5,42,127,316871124
663,22,Ticks_Phase_8,227,1,48,67,317672976
663,22,Ticks_Phase_8,228,5,42,127,317750620
663,22,Ticks_Phase_8,229,5,42,127,318551384
663,22,Ticks_Phase_8,230,1,48,43,318643988
663,22,Ticks_Phase_8,231,5,42,127,319351244
663,22,Ticks_Phase_8,232,1,48,56,319381924
663,22,Ticks_Phase_8,233,1,48,57,320140212
663,22,Ticks_Phase_8,234,5,42,127,320151020
663,22,Ticks_Phase_8,235,1,48,60,320942988
663,22,Ticks_Phase_8,236,5,42,127,320950808
663,22,Ticks_Phase_8,237,1,48,52,321750296
663,22,Ticks_Phase_8,238,5,42,127,321751940
663,22,Ticks_Phase_8,239,1,48,55,322516128
663,22,Ticks_Phase_8,240,5,42,127,322551132
663,22,Ticks_Phase_8,241,5,42,127,323350852
663,22,Ticks_Phase_8,242,1,48,45,323357188
663,22,Ticks_Phase_8,243,1,48,58,324143856
663,22,Ticks_Phase_8,244,5,42,127,324150928
663,22,Ticks_Phase_8,245,1,48,50,324925672
663,22,Ticks_Phase_8,246,5,42,127,324951388
663,22,Ticks_Phase_8,247,1,48,30,325003916
663,22,Ticks_Phase_8,248,1,48,59,325697800
663,22,Ticks_Phase_8,249,5,42,127,325751004
663,22,Ticks_Phase_8,250,1,48,38,325776720
663,22,Ticks_Phase_8,251,5,42,127,326550924
663,22,Ticks_Phase_8,252,1,48,51,326571572
663,22,Ticks_Phase_8,253,1,48,57,327338016
663,22,Ticks_Phase_8,254,5,42,127,327350856
663,22,Ticks_Phase_8,255,1,48,44,328109356
663,22,Ticks_Phase_8,256,5,42,127,328151388
663,22,Ticks_Phase_8,257,1,48,64,328856636
663,22,Ticks_Phase_8,258,1,48,38,328929712
663,22,Ticks_Phase_8,259,5,42,127,328951004
663,22,Ticks_Phase_8,260,5,42,127,329751044
663,22,Ticks_Phase_8,261,1,48,49,329777676
663,22,Ticks_Phase_8,262,1,48,63,330546376
663,22,Ticks_Phase_8,263,5,42,127,330550824
663,22,Ticks_Phase_8,264,1,48,43,331331484
663,22,Ticks_Phase_8,265,5,42,127,331511008
663,22,Ticks_Phase_8,266,5,42,127,332310988
663,22,Ticks_Phase_8,267,5,42,127,333110720
663,22,Ticks_Phase_8,268,1,48,44,333151132
663,22,Ticks_Phase_8,269,5,42,127,333911556
663,22,Ticks_Phase_8,270,1,48,42,333949724
663,22,Ticks_Phase_8,271,5,42,127,334711192
663,22,Ticks_Phase_8,272,1,48,39,334744188
663,22,Ticks_Phase_8,273,5,42,127,335510756
663,22,Ticks_Phase_8,274,1,48,35,335545996
663,22,Ticks_Phase_8,275,1,48,48,336249108
663,22,Ticks_Phase_8,276,5,42,127,336310688
663,22,Ticks_Phase_8,277,1,48,56,337097404
663,22,Ticks_Phase_8,278,5,42,127,337111368
663,22,Ticks_Phase_8,279,5,42,127,337911088
663,22,Ticks_Phase_8,280,1,48,51,337930236
663,22,Ticks_Phase_8,281,5,42,127,338710976
663,22,Ticks_Phase_8,282,1,48,48,338746364
663,22,Ticks_Phase_8,283,1,48,48,339473400
663,22,Ticks_Phase_8,284,5,42,127,339510752
663,22,Ticks_Phase_8,285,1,48,55,340231780
663,22,Ticks_Phase_8,286,5,42,127,340311660
663,22,Ticks_Phase_8,287,1,48,46,341101836
663,22,Ticks_Phase_8,288,5,42,127,341111148
663,22,Ticks_Phase_8,289,5,42,127,341910796
663,22,Ticks_Phase_8,290,1,48,52,342016656
663,22,Ticks_Phase_8,291,5,42,127,342710508
663,22,Ticks_Phase_8,292,1,48,46,342966468
663,22,Ticks_Phase_8,293,5,42,127,343511564
663,22,Ticks_Phase_8,294,5,42,127,344311148
663,22,Ticks_Phase_8,295,1,48,51,344990880
663,22,Ticks_Phase_8,296,1,48,25,345101540
663,22,Ticks_Phase_8,297,5,42,127,345110952
663,22,Ticks_Phase_8,298,5,42,127,345910600
663,22,Ticks_Phase_8,299,5,42,127,346550576
663,22,Ticks_Phase_8,300,1,48,42,346757336
663,22,Ticks_Phase_8,301,1,48,46,347286064
663,22,Ticks_Phase_8,302,5,42,127,347351548
663,22,Ticks_Phase_8,303,1,48,38,348127416
663,22,Ticks_Phase_8,304,5,42,127,348151484
663,22,Ticks_Phase_8,305,1,48,49,348910208
663,22,Ticks_Phase_8,306,5,42,127,348950772
663,22,Ticks_Phase_8,307,1,48,50,349711712
663,22,Ticks_Phase_8,308,5,42,127,349750780
663,22,Ticks_Phase_8,309,1,48,43,350537952
663,22,Ticks_Phase_8,310,5,42,127,350551464
663,22,Ticks_Phase_8,311,1,48,52,351292960
663,22,Ticks_Phase_8,312,5,42,127,351351252
663,22,Ticks_Phase_8,313,1,48,33,351369040
663,22,Ticks_Phase_8,314,5,42,127,352150876
663,22,Ticks_Phase_8,315,1,48,48,352154512
663,22,Ticks_Phase_8,316,5,42,127,352950512
663,22,Ticks_Phase_8,317,1,48,52,352969512
663,22,Ticks_Phase_8,318,1,48,51,353715056
663,22,Ticks_Phase_8,319,5,42,127,353751340
663,22,Ticks_Phase_8,320,1,48,47,354483848
663,22,Ticks_Phase_8,321,5,42,127,354551128
663,22,Ticks_Phase_8,322,1,48,45,355279000
663,22,Ticks_Phase_8,323,5,42,127,355350788
663,22,Ticks_Phase_8,324,1,48,35,356100424
663,22,Ticks_Phase_8,325,5,42,127,356150648
663,22,Ticks_Phase_8,326,1,48,54,356923596
663,22,Ticks_Phase_8,327,5,42,127,356951332
663,22,Ticks_Phase_8,328,1,48,43,357688716
663,22,Ticks_Phase_8,329,5,42,127,357751268
663,22,Ticks_Phase_8,330,1,48,42,358485348
663,22,Ticks_Phase_8,331,5,42,127,358550908
663,22,Ticks_Phase_8,332,1,48,41,359336280
663,22,Ticks_Phase_8,333,5,42,127,359350692
663,22,Ticks_Phase_8,334,5,42,127,360151384
663,22,Ticks_Phase_8,335,1,48,42,360152348
663,22,Ticks_Phase_8,336,1,48,39,360940732
663,22,Ticks_Phase_8,337,5,42,127,360951236
663,22,Ticks_Phase_8,338,1,48,43,361691612
663,22,Ticks_Phase_8,339,5,42,127,361750900
663,22,Ticks_Phase_8,0,9999,9999,9999,226548844
663,22,Ticks_Phase_8,1,9999,9999,9999,227348556
663,22,Ticks_Phase_8,2,9999,9999,9999,228148316
663,22,Ticks_Phase_8,3,9999,9999,9999,228949096
663,22,Ticks_Phase_8,4,9999,9999,9999,229748832
663,22,Ticks_Phase_8,5,9999,9999,9999,230548564
663,22,Ticks_Phase_8,6,9999,9999,9999,231348280
663,22,Ticks_Phase_8,7,9999,9999,9999,232149088
663,22,Ticks_Phase_8,8,9999,9999,9999,232948800
663,22,Ticks_Phase_8,9,9999,9999,9999,233748588
663,22,Ticks_Phase_8,10,9999,9999,9999,234548308
663,22,Ticks_Phase_8,11,9999,9999,9999,235349060
663,22,Ticks_Phase_8,12,9999,9999,9999,236148848
663,22,Ticks_Phase_8,13,9999,9999,9999,236948564
663,22,Ticks_Phase_8,14,9999,9999,9999,237748352
663,22,Ticks_Phase_8,15,9999,9999,9999,238549084
663,22,Ticks_Phase_8,16,9999,9999,9999,239348796
663,22,Ticks_Phase_8,17,9999,9999,9999,240148584
663,22,Ticks_Phase_8,18,9999,9999,9999,240948320
663,22,Ticks_Phase_8,19,9999,9999,9999,241749080
663,22,Ticks_Phase_8,20,9999,9999,9999,242548792
663,22,Ticks_Phase_8,21,9999,9999,9999,243348572
663,22,Ticks_Phase_8,22,9999,9999,9999,244148284
663,22,Ticks_Phase_8,23,9999,9999,9999,244949116
663,22,Ticks_Phase_8,24,9999,9999,9999,245748836
663,22,Ticks_Phase_8,25,9999,9999,9999,246548540
663,22,Ticks_Phase_8,26,9999,9999,9999,247348336
663,22,Ticks_Phase_8,27,9999,9999,9999,248149092
663,22,Ticks_Phase_8,28,9999,9999,9999,248948828
663,22,Ticks_Phase_8,29,9999,9999,9999,249748608
663,22,Ticks_Phase_8,30,9999,9999,9999,250528848
663,22,Ticks_Phase_8,31,9999,9999,9999,251328636
663,22,Ticks_Phase_8,32,9999,9999,9999,252128348
663,22,Ticks_Phase_8,33,9999,9999,9999,252928060
663,22,Ticks_Phase_8,34,9999,9999,9999,253728840
663,22,Ticks_Phase_8,35,9999,9999,9999,254528628
663,22,Ticks_Phase_8,36,9999,9999,9999,255328340
663,22,Ticks_Phase_8,37,9999,9999,9999,256128128
663,22,Ticks_Phase_8,38,9999,9999,9999,256928884
663,22,Ticks_Phase_8,39,9999,9999,9999,257728596
663,22,Ticks_Phase_8,40,9999,9999,9999,258528308
663,22,Ticks_Phase_8,41,9999,9999,9999,259328096
663,22,Ticks_Phase_8,42,9999,9999,9999,260128864
663,22,Ticks_Phase_8,43,9999,9999,9999,260928592
663,22,Ticks_Phase_8,44,9999,9999,9999,261728376
663,22,Ticks_Phase_8,45,9999,9999,9999,262528088
663,22,Ticks_Phase_8,46,9999,9999,9999,263328848
663,22,Ticks_Phase_8,47,9999,9999,9999,264128632
663,22,Ticks_Phase_8,48,9999,9999,9999,264948864
663,22,Ticks_Phase_8,49,9999,9999,9999,265748576
663,22,Ticks_Phase_8,50,9999,9999,9999,266548312
663,22,Ticks_Phase_8,51,9999,9999,9999,267349072
663,22,Ticks_Phase_8,52,9999,9999,9999,268148860
663,22,Ticks_Phase_8,53,9999,9999,9999,268948572
663,22,Ticks_Phase_8,54,9999,9999,9999,269748284
663,22,Ticks_Phase_8,55,9999,9999,9999,270549116
663,22,Ticks_Phase_8,56,9999,9999,9999,271348828
663,22,Ticks_Phase_8,57,9999,9999,9999,272148540
663,22,Ticks_Phase_8,58,9999,9999,9999,272948336
663,22,Ticks_Phase_8,59,9999,9999,9999,273749112
663,22,Ticks_Phase_8,60,9999,9999,9999,274548828
663,22,Ticks_Phase_8,61,9999,9999,9999,275348536
663,22,Ticks_Phase_8,62,9999,9999,9999,276148320
663,22,Ticks_Phase_8,63,9999,9999,9999,276949088
663,22,Ticks_Phase_8,64,9999,9999,9999,277788732
663,22,Ticks_Phase_8,65,9999,9999,9999,278588524
663,22,Ticks_Phase_8,66,9999,9999,9999,279388240
663,22,Ticks_Phase_8,67,9999,9999,9999,280188992
663,22,Ticks_Phase_8,68,9999,9999,9999,280988784
663,22,Ticks_Phase_8,69,9999,9999,9999,281788492
663,22,Ticks_Phase_8,70,9999,9999,9999,282588276
663,22,Ticks_Phase_8,71,9999,9999,9999,283389036
663,22,Ticks_Phase_8,72,9999,9999,9999,284188780
663,22,Ticks_Phase_8,73,9999,9999,9999,284988492
663,22,Ticks_Phase_8,74,9999,9999,9999,285788276
663,22,Ticks_Phase_8,75,9999,9999,9999,286589036
663,22,Ticks_Phase_8,76,9999,9999,9999,287388740
663,22,Ticks_Phase_8,77,9999,9999,9999,288188504
663,22,Ticks_Phase_8,78,9999,9999,9999,288988224
663,22,Ticks_Phase_8,79,9999,9999,9999,289789004
663,22,Ticks_Phase_8,80,9999,9999,9999,290588760
663,22,Ticks_Phase_8,81,9999,9999,9999,291348556
663,22,Ticks_Phase_8,82,9999,9999,9999,292148344
663,22,Ticks_Phase_8,83,9999,9999,9999,292949096
663,22,Ticks_Phase_8,84,9999,9999,9999,293748808
663,22,Ticks_Phase_8,85,9999,9999,9999,294548592
663,22,Ticks_Phase_8,86,9999,9999,9999,295348304
663,22,Ticks_Phase_8,87,9999,9999,9999,296149048
663,22,Ticks_Phase_8,88,9999,9999,9999,296948848
663,22,Ticks_Phase_8,89,9999,9999,9999,297748560
663,22,Ticks_Phase_8,90,9999,9999,9999,298548296
663,22,Ticks_Phase_8,91,9999,9999,9999,299349056
663,22,Ticks_Phase_8,92,9999,9999,9999,300148840
663,22,Ticks_Phase_8,93,9999,9999,9999,300948560
663,22,Ticks_Phase_8,94,9999,9999,9999,301748340
663,22,Ticks_Phase_8,95,9999,9999,9999,302549100
663,22,Ticks_Phase_8,96,9999,9999,9999,303348812
663,22,Ticks_Phase_8,97,9999,9999,9999,304068700
663,22,Ticks_Phase_8,98,9999,9999,9999,304868404
663,22,Ticks_Phase_8,99,9999,9999,9999,305668176
663,22,Ticks_Phase_8,100,9999,9999,9999,306468972
663,22,Ticks_Phase_8,101,9999,9999,9999,307268684
663,22,Ticks_Phase_8,102,9999,9999,9999,308068472
663,22,Ticks_Phase_8,103,9999,9999,9999,308868184
663,22,Ticks_Phase_8,104,9999,9999,9999,309668940
663,22,Ticks_Phase_8,105,9999,9999,9999,310468728
663,22,Ticks_Phase_8,106,9999,9999,9999,311268440
663,22,Ticks_Phase_8,107,9999,9999,9999,312068152
663,22,Ticks_Phase_8,108,9999,9999,9999,312868932
663,22,Ticks_Phase_8,109,9999,9999,9999,313668720
663,22,Ticks_Phase_8,110,9999,9999,9999,314468432
663,22,Ticks_Phase_8,111,9999,9999,9999,315268216
663,22,Ticks_Phase_8,112,9999,9999,9999,316068976
663,22,Ticks_Phase_8,113,9999,9999,9999,316868688
663,22,Ticks_Phase_8,114,9999,9999,9999,317748332
663,22,Ticks_Phase_8,115,9999,9999,9999,318549096
663,22,Ticks_Phase_8,116,9999,9999,9999,319348808
663,22,Ticks_Phase_8,117,9999,9999,9999,320148588
663,22,Ticks_Phase_8,118,9999,9999,9999,320948300
663,22,Ticks_Phase_8,119,9999,9999,9999,321749064
663,22,Ticks_Phase_8,120,9999,9999,9999,322548848
663,22,Ticks_Phase_8,121,9999,9999,9999,323348564
663,22,Ticks_Phase_8,122,9999,9999,9999,324148344
663,22,Ticks_Phase_8,123,9999,9999,9999,324949100
663,22,Ticks_Phase_8,124,9999,9999,9999,325748792
663,22,Ticks_Phase_8,125,9999,9999,9999,326548564
663,22,Ticks_Phase_8,126,9999,9999,9999,327348344
663,22,Ticks_Phase_8,127,9999,9999,9999,328149100
663,22,Ticks_Phase_8,128,9999,9999,9999,328948792
663,22,Ticks_Phase_8,129,9999,9999,9999,329748584
663,22,Ticks_Phase_8,130,9999,9999,9999,330548316
663,22,Ticks_Phase_8,131,9999,9999,9999,331508792
663,22,Ticks_Phase_8,132,9999,9999,9999,332308600
663,22,Ticks_Phase_8,133,9999,9999,9999,333108284
663,22,Ticks_Phase_8,134,9999,9999,9999,333909120
663,22,Ticks_Phase_8,135,9999,9999,9999,334708832
663,22,Ticks_Phase_8,136,9999,9999,9999,335508544
663,22,Ticks_Phase_8,137,9999,9999,9999,336308324
663,22,Ticks_Phase_8,138,9999,9999,9999,337109084
663,22,Ticks_Phase_8,139,9999,9999,9999,337908804
663,22,Ticks_Phase_8,140,9999,9999,9999,338708588
663,22,Ticks_Phase_8,141,9999,9999,9999,339508320
663,22,Ticks_Phase_8,142,9999,9999,9999,340309076
663,22,Ticks_Phase_8,143,9999,9999,9999,341108864
663,22,Ticks_Phase_8,144,9999,9999,9999,341908580
663,22,Ticks_Phase_8,145,9999,9999,9999,342708292
663,22,Ticks_Phase_8,146,9999,9999,9999,343509052
663,22,Ticks_Phase_8,147,9999,9999,9999,344308860
663,22,Ticks_Phase_8,148,9999,9999,9999,345108568
663,22,Ticks_Phase_8,149,9999,9999,9999,345908312
663,22,Ticks_Phase_8,150,9999,9999,9999,346548288
663,22,Ticks_Phase_8,151,9999,9999,9999,347349112
663,22,Ticks_Phase_8,152,9999,9999,9999,348148824
663,22,Ticks_Phase_8,153,9999,9999,9999,348948536
663,22,Ticks_Phase_8,154,9999,9999,9999,349748348
663,22,Ticks_Phase_8,155,9999,9999,9999,350549104
663,22,Ticks_Phase_8,156,9999,9999,9999,351348816
663,22,Ticks_Phase_8,157,9999,9999,9999,352148588
663,22,Ticks_Phase_8,158,9999,9999,9999,352948300
663,22,Ticks_Phase_8,159,9999,9999,9999,353749052
663,22,Ticks_Phase_8,160,9999,9999,9999,354548840
663,22,Ticks_Phase_8,161,9999,9999,9999,355348552
663,22,Ticks_Phase_8,162,9999,9999,9999,356148288
663,22,Ticks_Phase_8,163,9999,9999,9999,356949048
663,22,Ticks_Phase_8,164,9999,9999,9999,357748832
663,22,Ticks_Phase_8,165,9999,9999,9999,358548544
663,22,Ticks_Phase_8,166,9999,9999,9999,359348332
663,22,Ticks_Phase_8,167,9999,9999,9999,360149096
663,22,Ticks_Phase_8,168,9999,9999,9999,360948804
663,22,Ticks_Phase_8,169,9999,9999,9999,361748540
664,23,Ticks_Phase_5,0,5,42,127,373117308
664,23,Ticks_Phase_5,1,5,42,127,373617092
664,23,Ticks_Phase_5,2,5,42,127,374116652
664,23,Ticks_Phase_5,3,5,42,127,374616364
664,23,Ticks_Phase_5,4,5,42,127,375117120
664,23,Ticks_Phase_5,5,1,48,57,375146004
664,23,Ticks_Phase_5,6,5,42,127,375616884
664,23,Ticks_Phase_5,7,1,48,55,375641040
664,23,Ticks_Phase_5,8,5,42,127,376116496
664,23,Ticks_Phase_5,9,1,48,48,376127404
664,23,Ticks_Phase_5,10,5,42,127,376617308
664,23,Ticks_Phase_5,11,1,48,48,376649036
664,23,Ticks_Phase_5,12,5,42,127,377117364
664,23,Ticks_Phase_5,13,1,48,55,377121680
664,23,Ticks_Phase_5,14,5,42,127,377616732
664,23,Ticks_Phase_5,15,1,48,52,377644148
664,23,Ticks_Phase_5,16,5,42,127,378116420
664,23,Ticks_Phase_5,17,1,48,48,378141952
664,23,Ticks_Phase_5,18,5,42,127,378617304
664,23,Ticks_Phase_5,19,1,48,46,378646964
664,23,Ticks_Phase_5,20,5,42,127,379117068
664,23,Ticks_Phase_5,21,1,48,52,379152984
664,23,Ticks_Phase_5,22,5,42,127,379616608
664,23,Ticks_Phase_5,23,1,48,59,379648112
664,23,Ticks_Phase_5,24,5,42,127,380117416
664,23,Ticks_Phase_5,25,1,48,56,380142320
664,23,Ticks_Phase_5,26,5,42,127,380617180
664,23,Ticks_Phase_5,27,1,48,52,380627640
664,23,Ticks_Phase_5,28,5,42,127,381116864
664,23,Ticks_Phase_5,29,1,48,55,381151288
664,23,Ticks_Phase_5,30,5,42,127,381616480
664,23,Ticks_Phase_5,31,1,48,50,381629856
664,23,Ticks_Phase_5,32,5,42,127,382117140
664,23,Ticks_Phase_5,33,1,48,45,382155236
664,23,Ticks_Phase_5,34,1,48,48,382612668
664,23,Ticks_Phase_5,35,5,42,127,382616896
664,23,Ticks_Phase_5,36,5,42,127,383116740
664,23,Ticks_Phase_5,37,1,48,48,383155436
664,23,Ticks_Phase_5,38,1,48,43,383606812
664,23,Ticks_Phase_5,39,5,42,127,383617320
664,23,Ticks_Phase_5,40,5,42,127,384117240
664,23,Ticks_Phase_5,41,1,48,46,384147476
664,23,Ticks_Phase_5,42,5,42,127,384616780
664,23,Ticks_Phase_5,43,1,48,46,384647008
664,23,Ticks_Phase_5,44,5,42,127,385116540
664,23,Ticks_Phase_5,45,1,48,54,385129096
664,23,Ticks_Phase_5,46,5,42,127,385617276
664,23,Ticks_Phase_5,47,1,48,55,385623164
664,23,Ticks_Phase_5,48,5,42,127,386117116
664,23,Ticks_Phase_5,49,1,48,63,386140824
664,23,Ticks_Phase_5,50,1,48,58,386605388
664,23,Ticks_Phase_5,51,5,42,127,386616872
664,23,Ticks_Phase_5,52,5,42,127,387117388
664,23,Ticks_Phase_5,53,1,48,59,387136988
664,23,Ticks_Phase_5,54,5,42,127,387627412
664,23,Ticks_Phase_5,55,1,48,54,387643252
664,23,Ticks_Phase_5,56,5,42,127,388116768
664,23,Ticks_Phase_5,57,1,48,53,388146328
664,23,Ticks_Phase_5,58,5,42,127,388616580
664,23,Ticks_Phase_5,59,1,48,50,388641512
664,23,Ticks_Phase_5,60,5,42,127,389117312
664,23,Ticks_Phase_5,61,1,48,53,389128524
664,23,Ticks_Phase_5,62,5,42,127,389617004
664,23,Ticks_Phase_5,63,1,48,50,389630828
664,23,Ticks_Phase_5,64,5,42,127,390116692
664,23,Ticks_Phase_5,65,1,48,53,390117656
664,23,Ticks_Phase_5,66,1,48,53,390601212
664,23,Ticks_Phase_5,67,5,42,127,390616520
664,23,Ticks_Phase_5,68,1,48,56,391097612
664,23,Ticks_Phase_5,69,5,42,127,391117180
664,23,Ticks_Phase_5,70,1,48,53,391595040
664,23,Ticks_Phase_5,71,5,42,127,391616868
664,23,Ticks_Phase_5,72,5,42,127,392117008
664,23,Ticks_Phase_5,73,1,48,59,392118352
664,23,Ticks_Phase_5,74,1,48,62,392581612
664,23,Ticks_Phase_5,75,5,42,127,392617216
664,23,Ticks_Phase_5,76,1,48,66,393106768
664,23,Ticks_Phase_5,77,5,42,127,393117056
664,23,Ticks_Phase_5,78,5,42,127,393616824
664,23,Ticks_Phase_5,79,1,48,64,393618160
664,23,Ticks_Phase_5,80,1,48,60,394105692
664,23,Ticks_Phase_5,81,5,42,127,394116432
664,23,Ticks_Phase_5,82,1,48,61,394593092
664,23,Ticks_Phase_5,83,5,42,127,394617096
664,23,Ticks_Phase_5,84,1,48,66,395099604
664,23,Ticks_Phase_5,85,5,42,127,395116936
664,23,Ticks_Phase_5,86,1,48,59,395615040
664,23,Ticks_Phase_5,87,5,42,127,395616696
664,23,Ticks_Phase_5,88,5,42,127,396117216
664,23,Ticks_Phase_5,89,1,48,62,396119156
664,23,Ticks_Phase_5,90,1,48,50,396614388
664,23,Ticks_Phase_5,91,5,42,127,396617052
664,23,Ticks_Phase_5,92,1,48,63,397108844
664,23,Ticks_Phase_5,93,5,42,127,397127000
664,23,Ticks_Phase_5,94,1,48,50,397603884
664,23,Ticks_Phase_5,95,5,42,127,397626836
664,23,Ticks_Phase_5,96,1,48,54,398097788
664,23,Ticks_Phase_5,97,5,42,127,398126820
664,23,Ticks_Phase_5,98,1,48,54,398608856
664,23,Ticks_Phase_5,99,5,42,127,398627184
664,23,Ticks_Phase_5,100,1,48,60,399097536
664,23,Ticks_Phase_5,101,5,42,127,399126872
664,23,Ticks_Phase_5,102,1,48,59,399617816
664,23,Ticks_Phase_5,103,5,42,127,399626756
664,23,Ticks_Phase_5,104,1,48,59,400124608
664,23,Ticks_Phase_5,105,5,42,127,400127344
664,23,Ticks_Phase_5,106,1,48,55,400602880
664,23,Ticks_Phase_5,107,5,42,127,400627032
664,23,Ticks_Phase_5,108,1,48,62,401101076
664,23,Ticks_Phase_5,109,5,42,127,401126940
664,23,Ticks_Phase_5,110,1,48,51,401623968
664,23,Ticks_Phase_5,111,5,42,127,401626704
664,23,Ticks_Phase_5,112,1,48,67,402105400
664,23,Ticks_Phase_5,113,5,42,127,402127220
664,23,Ticks_Phase_5,114,1,48,57,402603356
664,23,Ticks_Phase_5,115,5,42,127,402626908
664,23,Ticks_Phase_5,116,1,48,61,403106496
664,23,Ticks_Phase_5,117,5,42,127,403126744
664,23,Ticks_Phase_5,118,1,48,52,403620408
664,23,Ticks_Phase_5,119,5,42,127,403627480
664,23,Ticks_Phase_5,120,5,42,127,404126952
664,23,Ticks_Phase_5,121,1,48,56,404136960
664,23,Ticks_Phase_5,122,1,48,48,404621280
664,23,Ticks_Phase_5,123,5,42,127,404626784
664,23,Ticks_Phase_5,124,1,48,59,405119996
664,23,Ticks_Phase_5,125,5,42,127,405146992
664,23,Ticks_Phase_5,126,5,42,127,405646908
664,23,Ticks_Phase_5,127,1,48,45,405650480
664,23,Ticks_Phase_5,128,1,48,65,406145004
664,23,Ticks_Phase_5,129,5,42,127,406146368
664,23,Ticks_Phase_5,130,5,42,127,406647108
664,23,Ticks_Phase_5,131,1,48,57,406649776
664,23,Ticks_Phase_5,132,1,48,75,407134636
664,23,Ticks_Phase_5,133,5,42,127,407146792
664,23,Ticks_Phase_5,134,1,48,62,407641948
664,23,Ticks_Phase_5,135,5,42,127,407646552
664,23,Ticks_Phase_5,136,1,48,57,408124648
664,23,Ticks_Phase_5,137,5,42,127,408147512
664,23,Ticks_Phase_5,138,1,48,61,408644936
664,23,Ticks_Phase_5,139,5,42,127,408646976
664,23,Ticks_Phase_5,140,1,48,56,409144852
664,23,Ticks_Phase_5,141,5,42,127,409146664
664,23,Ticks_Phase_5,142,5,42,127,409646508
664,23,Ticks_Phase_5,143,1,48,59,409655992
664,23,Ticks_Phase_5,144,5,42,127,410147612
664,23,Ticks_Phase_5,145,1,48,51,410180388
664,23,Ticks_Phase_5,146,5,42,127,410646780
664,23,Ticks_Phase_5,147,1,48,66,410678808
664,23,Ticks_Phase_5,148,5,42,127,411146744
664,23,Ticks_Phase_5,149,1,48,57,411151508
664,23,Ticks_Phase_5,150,5,42,127,411647476
664,23,Ticks_Phase_5,151,1,48,56,411668148
664,23,Ticks_Phase_5,152,5,42,127,412147168
664,23,Ticks_Phase_5,153,1,48,53,412180564
664,23,Ticks_Phase_5,154,5,42,127,412646632
664,23,Ticks_Phase_5,155,1,48,54,412651768
664,23,Ticks_Phase_5,156,5,42,127,413146544
664,23,Ticks_Phase_5,157,1,48,66,413152652
664,23,Ticks_Phase_5,158,5,42,127,413626688
664,23,Ticks_Phase_5,159,1,48,58,413640140
664,23,Ticks_Phase_5,160,5,42,127,414126372
664,23,Ticks_Phase_5,161,1,48,58,414140124
664,23,Ticks_Phase_5,162,1,48,50,414622272
664,23,Ticks_Phase_5,163,5,42,127,414627324
664,23,Ticks_Phase_5,164,1,48,49,415094852
664,23,Ticks_Phase_5,165,5,42,127,415126864
664,23,Ticks_Phase_5,166,1,48,65,415620156
664,23,Ticks_Phase_5,167,5,42,127,415626700
664,23,Ticks_Phase_5,168,5,42,127,416127292
664,23,Ticks_Phase_5,169,1,48,59,416153172
664,23,Ticks_Phase_5,170,5,42,127,416627132
664,23,Ticks_Phase_5,171,1,48,64,416646284
664,23,Ticks_Phase_5,172,1,48,40,417111352
664,23,Ticks_Phase_5,173,5,42,127,417126812
664,23,Ticks_Phase_5,174,1,48,65,417615836
664,23,Ticks_Phase_5,175,5,42,127,417626504
664,23,Ticks_Phase_5,176,1,48,65,418111628
664,23,Ticks_Phase_5,177,5,42,127,418127312
664,23,Ticks_Phase_5,178,1,48,53,418617464
664,23,Ticks_Phase_5,179,5,42,127,418626852
664,23,Ticks_Phase_5,180,1,48,80,419117300
664,23,Ticks_Phase_5,181,5,42,127,419126764
664,23,Ticks_Phase_5,182,1,48,61,419597344
664,23,Ticks_Phase_5,183,5,42,127,419627348
664,23,Ticks_Phase_5,184,1,48,62,420113268
664,23,Ticks_Phase_5,185,5,42,127,420127184
664,23,Ticks_Phase_5,186,1,48,61,420613408
664,23,Ticks_Phase_5,187,5,42,127,420626724
664,23,Ticks_Phase_5,188,1,48,69,421124420
664,23,Ticks_Phase_5,189,5,42,127,421126464
664,23,Ticks_Phase_5,190,5,42,127,421577180
664,23,Ticks_Phase_5,191,1,48,59,421606136
664,23,Ticks_Phase_5,192,5,42,127,422076644
664,23,Ticks_Phase_5,193,1,48,60,422091216
664,23,Ticks_Phase_5,194,5,42,127,422576556
664,23,Ticks_Phase_5,195,1,48,61,422579304
664,23,Ticks_Phase_5,196,5,42,127,423077216
664,23,Ticks_Phase_5,197,1,48,61,423100556
664,23,Ticks_Phase_5,198,1,48,57,423567584
664,23,Ticks_Phase_5,199,5,42,127,423576824
664,23,Ticks_Phase_5,200,5,42,127,424076592
664,23,Ticks_Phase_5,201,1,48,49,424115288
664,23,Ticks_Phase_5,202,1,48,58,424573992
664,23,Ticks_Phase_5,203,5,42,127,424577248
664,23,Ticks_Phase_5,204,5,42,127,425077240
664,23,Ticks_Phase_5,205,1,48,71,425104632
664,23,Ticks_Phase_5,206,1,48,50,425548660
664,23,Ticks_Phase_5,207,5,42,127,425576772
664,23,Ticks_Phase_5,208,1,48,64,426064588
664,23,Ticks_Phase_5,209,5,42,127,426076388
664,23,Ticks_Phase_5,210,1,48,50,426572296
664,23,Ticks_Phase_5,211,5,42,127,426577196
664,23,Ticks_Phase_5,212,1,48,57,427031468
664,23,Ticks_Phase_5,213,5,42,127,427077108
664,23,Ticks_Phase_5,214,1,48,52,427562904
664,23,Ticks_Phase_5,215,5,42,127,427576724
664,23,Ticks_Phase_5,216,1,48,56,428075268
664,23,Ticks_Phase_5,217,5,42,127,428077384
664,23,Ticks_Phase_5,218,1,48,44,428566184
664,23,Ticks_Phase_5,219,5,42,127,428587332
664,23,Ticks_Phase_5,220,1,48,50,429076512
664,23,Ticks_Phase_5,221,5,42,127,429087096
664,23,Ticks_Phase_5,222,1,48,48,429550856
664,23,Ticks_Phase_5,223,5,42,127,429586860
664,23,Ticks_Phase_5,224,1,48,54,430061472
664,23,Ticks_Phase_5,225,5,42,127,430136720
664,23,Ticks_Phase_5,226,1,48,55,430637536
664,23,Ticks_Phase_5,227,5,42,127,430638876
664,23,Ticks_Phase_5,228,5,42,127,431147264
664,23,Ticks_Phase_5,229,1,48,73,431182652
664,23,Ticks_Phase_5,230,5,42,127,431647172
664,23,Ticks_Phase_5,231,1,48,64,431659280
664,23,Ticks_Phase_5,232,5,42,127,432146788
664,23,Ticks_Phase_5,233,1,48,64,432163452
664,23,Ticks_Phase_5,234,5,42,127,432646452
664,23,Ticks_Phase_5,235,1,48,48,432664264
664,23,Ticks_Phase_5,236,5,42,127,433147112
664,23,Ticks_Phase_5,237,1,48,78,433149124
664,23,Ticks_Phase_5,238,5,42,127,433647100
664,23,Ticks_Phase_5,239,1,48,69,433652532
664,23,Ticks_Phase_5,240,1,48,70,434135224
664,23,Ticks_Phase_5,241,5,42,127,434146632
664,23,Ticks_Phase_5,242,1,48,63,434628536
664,23,Ticks_Phase_5,243,5,42,127,434647516
664,23,Ticks_Phase_5,244,1,48,84,435136920
664,23,Ticks_Phase_5,245,5,42,127,435146980
664,23,Ticks_Phase_5,246,1,48,62,435630756
664,23,Ticks_Phase_5,247,5,42,127,435647116
664,23,Ticks_Phase_5,248,5,42,127,436146512
664,23,Ticks_Phase_5,249,1,48,64,436166556
664,23,Ticks_Phase_5,250,5,42,127,436647248
664,23,Ticks_Phase_5,251,1,48,54,436665872
664,23,Ticks_Phase_5,252,1,48,63,437145040
664,23,Ticks_Phase_5,253,5,42,127,437147076
664,23,Ticks_Phase_5,254,1,48,57,437616404
664,23,Ticks_Phase_5,255,5,42,127,437646916
664,23,Ticks_Phase_5,256,1,48,63,438094292
664,23,Ticks_Phase_5,257,5,42,127,438146528
664,23,Ticks_Phase_5,258,1,48,65,438640792
664,23,Ticks_Phase_5,259,5,42,127,438746476
664,23,Ticks_Phase_5,260,1,48,69,439204956
664,23,Ticks_Phase_5,261,5,42,127,439247152
664,23,Ticks_Phase_5,262,5,42,127,439747072
664,23,Ticks_Phase_5,263,1,48,45,439981468
664,23,Ticks_Phase_5,264,5,42,127,440246760
664,23,Ticks_Phase_5,265,1,48,37,440478160
664,23,Ticks_Phase_5,266,5,42,127,440747344
664,23,Ticks_Phase_5,267,1,48,39,440844976
664,23,Ticks_Phase_5,268,5,42,127,441247108
664,23,Ticks_Phase_5,269,1,48,50,441334092
664,23,Ticks_Phase_5,270,5,42,127,441746944
664,23,Ticks_Phase_5,271,5,42,127,442246504
664,23,Ticks_Phase_5,272,5,42,127,442747336
664,23,Ticks_Phase_5,273,5,42,127,443246820
664,23,Ticks_Phase_5,274,5,42,127,443746756
664,23,Ticks_Phase_5,275,1,48,65,443774280
664,23,Ticks_Phase_5,276,5,42,127,444247340
664,23,Ticks_Phase_5,277,1,48,61,444290972
664,23,Ticks_Phase_5,278,5,42,127,444747028
664,23,Ticks_Phase_5,279,1,48,51,444775764
664,23,Ticks_Phase_5,280,5,42,127,445246940
664,23,Ticks_Phase_5,281,1,48,54,445260316
664,23,Ticks_Phase_5,282,5,42,127,445746480
664,23,Ticks_Phase_5,283,1,48,53,445767876
664,23,Ticks_Phase_5,284,5,42,127,446247212
664,23,Ticks_Phase_5,285,1,48,45,446275876
664,23,Ticks_Phase_5,286,1,48,48,446726020
664,23,Ticks_Phase_5,287,5,42,127,446746968
664,23,Ticks_Phase_5,288,5,42,127,447246788
664,23,Ticks_Phase_5,289,1,48,62,447251028
664,23,Ticks_Phase_5,290,5,42,127,447746376
664,23,Ticks_Phase_5,291,1,48,57,447783884
664,23,Ticks_Phase_5,292,5,42,127,448146988
664,23,Ticks_Phase_5,293,1,48,51,448277820
664,23,Ticks_Phase_5,294,5,42,127,448646380
664,23,Ticks_Phase_5,295,1,48,26,448779356
664,23,Ticks_Phase_5,296,1,48,56,449141008
664,23,Ticks_Phase_5,297,5,42,127,449147108
664,23,Ticks_Phase_5,298,1,48,23,449515312
664,23,Ticks_Phase_5,299,5,42,127,449646928
664,23,Ticks_Phase_5,300,5,42,127,450146860
664,23,Ticks_Phase_5,301,1,48,45,450170124
664,23,Ticks_Phase_5,302,5,42,127,450647448
664,23,Ticks_Phase_5,303,1,48,32,450719684
664,23,Ticks_Phase_5,304,5,42,127,451146988
664,23,Ticks_Phase_5,305,1,48,39,451158048
664,23,Ticks_Phase_5,306,5,42,127,451646824
664,23,Ticks_Phase_5,307,5,42,127,452146680
664,23,Ticks_Phase_5,308,5,42,127,452647292
664,23,Ticks_Phase_5,309,5,42,127,453147000
664,23,Ticks_Phase_5,310,1,48,50,453157016
664,23,Ticks_Phase_5,311,1,48,57,453642652
664,23,Ticks_Phase_5,312,5,42,127,453646808
664,23,Ticks_Phase_5,313,5,42,127,454146548
664,23,Ticks_Phase_5,314,1,48,51,454147960
664,23,Ticks_Phase_5,315,1,48,47,454631892
664,23,Ticks_Phase_5,316,5,42,127,454647056
664,23,Ticks_Phase_5,317,1,48,49,455136228
664,23,Ticks_Phase_5,318,5,42,127,455146892
664,23,Ticks_Phase_5,319,1,48,53,455609180
664,23,Ticks_Phase_5,320,5,42,127,455646580
664,23,Ticks_Phase_5,321,1,48,48,456125124
664,23,Ticks_Phase_5,322,5,42,127,456147316
664,23,Ticks_Phase_5,323,1,48,60,456635368
664,23,Ticks_Phase_5,324,5,42,127,456647004
664,23,Ticks_Phase_5,325,1,48,63,457127640
664,23,Ticks_Phase_5,326,5,42,127,457146692
664,23,Ticks_Phase_5,327,5,42,127,457646536
664,23,Ticks_Phase_5,0,9999,9999,9999,373114944
664,23,Ticks_Phase_5,1,9999,9999,9999,373614652
664,23,Ticks_Phase_5,2,9999,9999,9999,374114364
664,23,Ticks_Phase_5,3,9999,9999,9999,374614072
664,23,Ticks_Phase_5,4,9999,9999,9999,375114832
664,23,Ticks_Phase_5,5,9999,9999,9999,375614520
664,23,Ticks_Phase_5,6,9999,9999,9999,376114280
664,23,Ticks_Phase_5,7,9999,9999,9999,376615016
664,23,Ticks_Phase_5,8,9999,9999,9999,377114704
664,23,Ticks_Phase_5,9,9999,9999,9999,377614444
664,23,Ticks_Phase_5,10,9999,9999,9999,378114132
664,23,Ticks_Phase_5,11,9999,9999,9999,378614868
664,23,Ticks_Phase_5,12,9999,9999,9999,379114556
664,23,Ticks_Phase_5,13,9999,9999,9999,379614316
664,23,Ticks_Phase_5,14,9999,9999,9999,380115052
664,23,Ticks_Phase_5,15,9999,9999,9999,380614740
664,23,Ticks_Phase_5,16,9999,9999,9999,381114428
664,23,Ticks_Phase_5,17,9999,9999,9999,381614192
664,23,Ticks_Phase_5,18,9999,9999,9999,382114924
664,23,Ticks_Phase_5,19,9999,9999,9999,382614608
664,23,Ticks_Phase_5,20,9999,9999,9999,383114300
664,23,Ticks_Phase_5,21,9999,9999,9999,383615032
664,23,Ticks_Phase_5,22,9999,9999,9999,384114800
664,23,Ticks_Phase_5,23,9999,9999,9999,384614488
664,23,Ticks_Phase_5,24,9999,9999,9999,385114180
664,23,Ticks_Phase_5,25,9999,9999,9999,385614912
664,23,Ticks_Phase_5,26,9999,9999,9999,386114676
664,23,Ticks_Phase_5,27,9999,9999,9999,386614360
664,23,Ticks_Phase_5,28,9999,9999,9999,387115100
664,23,Ticks_Phase_5,29,9999,9999,9999,387625044
664,23,Ticks_Phase_5,30,9999,9999,9999,388114524
664,23,Ticks_Phase_5,31,9999,9999,9999,388614216
664,23,Ticks_Phase_5,32,9999,9999,9999,389114948
664,23,Ticks_Phase_5,33,9999,9999,9999,389614716
664,23,Ticks_Phase_5,34,9999,9999,9999,390114400
664,23,Ticks_Phase_5,35,9999,9999,9999,390614084
664,23,Ticks_Phase_5,36,9999,9999,9999,391114820
664,23,Ticks_Phase_5,37,9999,9999,9999,391614580
664,23,Ticks_Phase_5,38,9999,9999,9999,392114276
664,23,Ticks_Phase_5,39,9999,9999,9999,392615004
664,23,Ticks_Phase_5,40,9999,9999,9999,393114692
664,23,Ticks_Phase_5,41,9999,9999,9999,393614460
664,23,Ticks_Phase_5,42,9999,9999,9999,394114144
664,23,Ticks_Phase_5,43,9999,9999,9999,394614880
664,23,Ticks_Phase_5,44,9999,9999,9999,395114572
664,23,Ticks_Phase_5,45,9999,9999,9999,395614268
664,23,Ticks_Phase_5,46,9999,9999,9999,396115000
664,23,Ticks_Phase_5,47,9999,9999,9999,396614760
664,23,Ticks_Phase_5,48,9999,9999,9999,397124708
664,23,Ticks_Phase_5,49,9999,9999,9999,397624396
664,23,Ticks_Phase_5,50,9999,9999,9999,398124160
664,23,Ticks_Phase_5,51,9999,9999,9999,398624896
664,23,Ticks_Phase_5,52,9999,9999,9999,399124584
664,23,Ticks_Phase_5,53,9999,9999,9999,399624244
664,23,Ticks_Phase_5,54,9999,9999,9999,400125056
664,23,Ticks_Phase_5,55,9999,9999,9999,400624744
664,23,Ticks_Phase_5,56,9999,9999,9999,401124432
664,23,Ticks_Phase_5,57,9999,9999,9999,401624120
664,23,Ticks_Phase_5,58,9999,9999,9999,402124852
664,23,Ticks_Phase_5,59,9999,9999,9999,402624616
664,23,Ticks_Phase_5,60,9999,9999,9999,403124308
664,23,Ticks_Phase_5,61,9999,9999,9999,403625040
664,23,Ticks_Phase_5,62,9999,9999,9999,404124736
664,23,Ticks_Phase_5,63,9999,9999,9999,404624496
664,23,Ticks_Phase_5,64,9999,9999,9999,405144700
664,23,Ticks_Phase_5,65,9999,9999,9999,405644396
664,23,Ticks_Phase_5,66,9999,9999,9999,406144084
664,23,Ticks_Phase_5,67,9999,9999,9999,406644820
664,23,Ticks_Phase_5,68,9999,9999,9999,407144504
664,23,Ticks_Phase_5,69,9999,9999,9999,407644264
664,23,Ticks_Phase_5,70,9999,9999,9999,408145000
664,23,Ticks_Phase_5,71,9999,9999,9999,408644724
664,23,Ticks_Phase_5,72,9999,9999,9999,409144400
664,23,Ticks_Phase_5,73,9999,9999,9999,409644144
664,23,Ticks_Phase_5,74,9999,9999,9999,410144880
664,23,Ticks_Phase_5,75,9999,9999,9999,410644568
664,23,Ticks_Phase_5,76,9999,9999,9999,411144304
664,23,Ticks_Phase_5,77,9999,9999,9999,411645040
664,23,Ticks_Phase_5,78,9999,9999,9999,412144728
664,23,Ticks_Phase_5,79,9999,9999,9999,412644416
664,23,Ticks_Phase_5,80,9999,9999,9999,413144176
664,23,Ticks_Phase_5,81,9999,9999,9999,413624396
664,23,Ticks_Phase_5,82,9999,9999,9999,414124160
664,23,Ticks_Phase_5,83,9999,9999,9999,414624888
664,23,Ticks_Phase_5,84,9999,9999,9999,415124576
664,23,Ticks_Phase_5,85,9999,9999,9999,415624264
664,23,Ticks_Phase_5,86,9999,9999,9999,416125004
664,23,Ticks_Phase_5,87,9999,9999,9999,416624692
664,23,Ticks_Phase_5,88,9999,9999,9999,417124448
664,23,Ticks_Phase_5,89,9999,9999,9999,417624140
664,23,Ticks_Phase_5,90,9999,9999,9999,418124872
664,23,Ticks_Phase_5,91,9999,9999,9999,418624636
664,23,Ticks_Phase_5,92,9999,9999,9999,419124324
664,23,Ticks_Phase_5,93,9999,9999,9999,419625060
664,23,Ticks_Phase_5,94,9999,9999,9999,420124748
664,23,Ticks_Phase_5,95,9999,9999,9999,420624484
664,23,Ticks_Phase_5,96,9999,9999,9999,421124212
664,23,Ticks_Phase_5,97,9999,9999,9999,421574740
664,23,Ticks_Phase_5,98,9999,9999,9999,422074428
664,23,Ticks_Phase_5,99,9999,9999,9999,422574192
664,23,Ticks_Phase_5,100,9999,9999,9999,423074928
664,23,Ticks_Phase_5,101,9999,9999,9999,423574608
664,23,Ticks_Phase_5,102,9999,9999,9999,424074304
664,23,Ticks_Phase_5,103,9999,9999,9999,424575032
664,23,Ticks_Phase_5,104,9999,9999,9999,425074804
664,23,Ticks_Phase_5,105,9999,9999,9999,425574484
664,23,Ticks_Phase_5,106,9999,9999,9999,426074172
664,23,Ticks_Phase_5,107,9999,9999,9999,426574908
664,23,Ticks_Phase_5,108,9999,9999,9999,427074672
664,23,Ticks_Phase_5,109,9999,9999,9999,427574360
664,23,Ticks_Phase_5,110,9999,9999,9999,428075136
664,23,Ticks_Phase_5,111,9999,9999,9999,428585044
664,23,Ticks_Phase_5,112,9999,9999,9999,429084732
664,23,Ticks_Phase_5,113,9999,9999,9999,429584468
664,23,Ticks_Phase_5,114,9999,9999,9999,430134356
664,23,Ticks_Phase_5,115,9999,9999,9999,430635100
664,23,Ticks_Phase_5,116,9999,9999,9999,431145048
664,23,Ticks_Phase_5,117,9999,9999,9999,431644736
664,23,Ticks_Phase_5,118,9999,9999,9999,432144472
664,23,Ticks_Phase_5,119,9999,9999,9999,432644164
664,23,Ticks_Phase_5,120,9999,9999,9999,433144896
664,23,Ticks_Phase_5,121,9999,9999,9999,433644660
664,23,Ticks_Phase_5,122,9999,9999,9999,434144340
664,23,Ticks_Phase_5,123,9999,9999,9999,434645076
664,23,Ticks_Phase_5,124,9999,9999,9999,435144764
664,23,Ticks_Phase_5,125,9999,9999,9999,435644528
664,23,Ticks_Phase_5,126,9999,9999,9999,436144224
664,23,Ticks_Phase_5,127,9999,9999,9999,436644960
664,23,Ticks_Phase_5,128,9999,9999,9999,437144668
664,23,Ticks_Phase_5,129,9999,9999,9999,437644400
664,23,Ticks_Phase_5,130,9999,9999,9999,438144088
664,23,Ticks_Phase_5,131,9999,9999,9999,438744184
664,23,Ticks_Phase_5,132,9999,9999,9999,439244864
664,23,Ticks_Phase_5,133,9999,9999,9999,439744632
664,23,Ticks_Phase_5,134,9999,9999,9999,440244320
664,23,Ticks_Phase_5,135,9999,9999,9999,440745056
664,23,Ticks_Phase_5,136,9999,9999,9999,441244744
664,23,Ticks_Phase_5,137,9999,9999,9999,441744504
664,23,Ticks_Phase_5,138,9999,9999,9999,442244216
664,23,Ticks_Phase_5,139,9999,9999,9999,442744896
664,23,Ticks_Phase_5,140,9999,9999,9999,443244608
664,23,Ticks_Phase_5,141,9999,9999,9999,443744316
664,23,Ticks_Phase_5,142,9999,9999,9999,444245052
664,23,Ticks_Phase_5,143,9999,9999,9999,444744816
664,23,Ticks_Phase_5,144,9999,9999,9999,445244500
664,23,Ticks_Phase_5,145,9999,9999,9999,445744188
664,23,Ticks_Phase_5,146,9999,9999,9999,446244924
664,23,Ticks_Phase_5,147,9999,9999,9999,446744680
664,23,Ticks_Phase_5,148,9999,9999,9999,447244348
664,23,Ticks_Phase_5,149,9999,9999,9999,447744084
664,23,Ticks_Phase_5,150,9999,9999,9999,448144476
664,23,Ticks_Phase_5,151,9999,9999,9999,448644164
664,23,Ticks_Phase_5,152,9999,9999,9999,449144892
664,23,Ticks_Phase_5,153,9999,9999,9999,449644640
664,23,Ticks_Phase_5,154,9999,9999,9999,450144348
664,23,Ticks_Phase_5,155,9999,9999,9999,450645084
664,23,Ticks_Phase_5,156,9999,9999,9999,451144772
664,23,Ticks_Phase_5,157,9999,9999,9999,451644532
664,23,Ticks_Phase_5,158,9999,9999,9999,452144244
664,23,Ticks_Phase_5,159,9999,9999,9999,452644928
664,23,Ticks_Phase_5,160,9999,9999,9999,453144636
664,23,Ticks_Phase_5,161,9999,9999,9999,453644368
664,23,Ticks_Phase_5,162,9999,9999,9999,454144112
664,23,Ticks_Phase_5,163,9999,9999,9999,454644840
664,23,Ticks_Phase_5,164,9999,9999,9999,455144528
664,23,Ticks_Phase_5,165,9999,9999,9999,455644216
664,23,Ticks_Phase_5,166,9999,9999,9999,456144952
664,23,Ticks_Phase_5,167,9999,9999,9999,456644716
664,23,Ticks_Phase_5,168,9999,9999,9999,457144404
664,23,Ticks_Phase_5,169,9999,9999,9999,457644100
665,20,Ticks_Linear_8,0,5,42,127,485303644
665,20,Ticks_Linear_8,1,5,42,127,486123980
665,20,Ticks_Linear_8,2,5,42,127,486944196
665,20,Ticks_Linear_8,3,5,42,127,487764312
665,20,Ticks_Linear_8,4,1,48,50,488535180
665,20,Ticks_Linear_8,5,5,42,127,488583596
665,20,Ticks_Linear_8,6,1,48,22,488626468
665,20,Ticks_Linear_8,7,1,48,55,489350452
665,20,Ticks_Linear_8,8,5,42,127,489393408
665,20,Ticks_Linear_8,9,1,48,59,490152876
665,20,Ticks_Linear_8,10,5,42,127,490203392
665,20,Ticks_Linear_8,11,1,48,55,490954692
665,20,Ticks_Linear_8,12,5,42,127,491013376
665,20,Ticks_Linear_8,13,1,48,59,491788344
665,20,Ticks_Linear_8,14,5,42,127,491823460
665,20,Ticks_Linear_8,15,1,48,53,492587492
665,20,Ticks_Linear_8,16,5,42,127,492633368
665,20,Ticks_Linear_8,17,1,48,54,493394112
665,20,Ticks_Linear_8,18,5,42,127,493434364
665,20,Ticks_Linear_8,19,1,48,63,494171212
665,20,Ticks_Linear_8,20,5,42,127,494234160
665,20,Ticks_Linear_8,21,1,48,57,495023736
665,20,Ticks_Linear_8,22,5,42,127,495033812
665,20,Ticks_Linear_8,23,5,42,127,495833320
665,20,Ticks_Linear_8,24,1,48,58,495854936
665,20,Ticks_Linear_8,25,5,42,127,496634164
665,20,Ticks_Linear_8,26,1,48,53,496644920
665,20,Ticks_Linear_8,27,5,42,127,497423952
665,20,Ticks_Linear_8,28,1,48,56,497430812
665,20,Ticks_Linear_8,29,5,42,127,498214316
665,20,Ticks_Linear_8,30,1,48,37,498261540
665,20,Ticks_Linear_8,31,1,48,57,498975800
665,20,Ticks_Linear_8,32,5,42,127,499003924
665,20,Ticks_Linear_8,33,1,48,57,499788400
665,20,Ticks_Linear_8,34,5,42,127,499794360
665,20,Ticks_Linear_8,35,5,42,127,500583832
665,20,Ticks_Linear_8,36,1,48,57,500627764
665,20,Ticks_Linear_8,37,1,48,57,501343968
665,20,Ticks_Linear_8,38,5,42,127,501364076
665,20,Ticks_Linear_8,39,1,48,57,502113812
665,20,Ticks_Linear_8,40,5,42,127,502144256
665,20,Ticks_Linear_8,41,1,48,51,502912492
665,20,Ticks_Linear_8,42,5,42,127,502923836
665,20,Ticks_Linear_8,43,5,42,127,503703944
665,20,Ticks_Linear_8,44,1,48,51,503705356
665,20,Ticks_Linear_8,45,1,48,60,504481824
665,20,Ticks_Linear_8,46,5,42,127,504484264
665,20,Ticks_Linear_8,47,5,42,127,505254416
665,20,Ticks_Linear_8,48,1,48,62,505271232
665,20,Ticks_Linear_8,49,5,42,127,506024408
665,20,Ticks_Linear_8,50,1,48,63,506055388
665,20,Ticks_Linear_8,51,1,48,53,506769788
665,20,Ticks_Linear_8,52,5,42,127,506794248
665,20,Ticks_Linear_8,53,5,42,127,507564320
665,20,Ticks_Linear_8,54,1,48,62,507577852
665,20,Ticks_Linear_8,55,5,42,127,508333492
665,20,Ticks_Linear_8,56,1,48,56,508341936
665,20,Ticks_Linear_8,57,5,42,127,509094200
665,20,Ticks_Linear_8,58,1,48,59,509151992
665,20,Ticks_Linear_8,59,5,42,127,509854156
665,20,Ticks_Linear_8,60,1,48,59,509859296
665,20,Ticks_Linear_8,61,5,42,127,510613888
665,20,Ticks_Linear_8,62,1,48,62,510620448
665,20,Ticks_Linear_8,63,5,42,127,511373776
665,20,Ticks_Linear_8,64,1,48,53,511386032
665,20,Ticks_Linear_8,65,1,48,59,512117508
665,20,Ticks_Linear_8,66,5,42,127,512133652
665,20,Ticks_Linear_8,67,1,48,59,512866540
665,20,Ticks_Linear_8,68,5,42,127,512884176
665,20,Ticks_Linear_8,69,5,42,127,513633880
665,20,Ticks_Linear_8,70,1,48,55,513661260
665,20,Ticks_Linear_8,71,5,42,127,514384328
665,20,Ticks_Linear_8,72,1,48,59,514429532
665,20,Ticks_Linear_8,73,1,48,47,515124096
665,20,Ticks_Linear_8,74,5,42,127,515133944
665,20,Ticks_Linear_8,75,1,48,58,515865332
665,20,Ticks_Linear_8,76,5,42,127,515884396
665,20,Ticks_Linear_8,77,1,48,58,516608192
665,20,Ticks_Linear_8,78,5,42,127,516623608
665,20,Ticks_Linear_8,79,1,48,52,517352728
665,20,Ticks_Linear_8,80,5,42,127,517364072
665,20,Ticks_Linear_8,81,1,48,40,518080320
665,20,Ticks_Linear_8,82,5,42,127,518104704
665,20,Ticks_Linear_8,83,1,48,68,518782256
665,20,Ticks_Linear_8,84,5,42,127,518854032
665,20,Ticks_Linear_8,85,1,48,60,519554936
665,20,Ticks_Linear_8,86,5,42,127,519594296
665,20,Ticks_Linear_8,87,1,48,65,520308452
665,20,Ticks_Linear_8,88,5,42,127,520323476
665,20,Ticks_Linear_8,89,1,48,63,521027000
665,20,Ticks_Linear_8,90,5,42,127,521053480
665,20,Ticks_Linear_8,91,1,48,57,521761192
665,20,Ticks_Linear_8,92,5,42,127,521783780
665,20,Ticks_Linear_8,93,5,42,127,522513792
665,20,Ticks_Linear_8,94,1,48,52,522539076
665,20,Ticks_Linear_8,95,1,48,65,523239748
665,20,Ticks_Linear_8,96,5,42,127,523243988
665,20,Ticks_Linear_8,97,5,42,127,523963740
665,20,Ticks_Linear_8,98,1,48,64,523977120
665,20,Ticks_Linear_8,99,5,42,127,524683560
665,20,Ticks_Linear_8,100,1,48,65,524691312
665,20,Ticks_Linear_8,101,5,42,127,525403600
665,20,Ticks_Linear_8,102,1,48,67,525430308
665,20,Ticks_Linear_8,103,5,42,127,526124616
665,20,Ticks_Linear_8,104,1,48,64,526132908
665,20,Ticks_Linear_8,105,5,42,127,526844412
665,20,Ticks_Linear_8,106,1,48,58,526868224
665,20,Ticks_Linear_8,107,5,42,127,527553972
665,20,Ticks_Linear_8,108,1,48,61,527564728
665,20,Ticks_Linear_8,109,5,42,127,528263532
665,20,Ticks_Linear_8,110,1,48,50,528300124
665,20,Ticks_Linear_8,111,1,48,58,528957468
665,20,Ticks_Linear_8,112,5,42,127,528974356
665,20,Ticks_Linear_8,113,1,48,53,529667524
665,20,Ticks_Linear_8,114,5,42,127,529683840
665,20,Ticks_Linear_8,115,1,48,62,530348180
665,20,Ticks_Linear_8,116,5,42,127,530393452
665,20,Ticks_Linear_8,117,1,48,58,531089712
665,20,Ticks_Linear_8,118,5,42,127,531094024
665,20,Ticks_Linear_8,119,1,48,57,531789312
665,20,Ticks_Linear_8,120,5,42,127,531794300
665,20,Ticks_Linear_8,121,1,48,59,532477428
665,20,Ticks_Linear_8,122,5,42,127,532493748
665,20,Ticks_Linear_8,123,5,42,127,533194448
665,20,Ticks_Linear_8,124,1,48,62,533203192
665,20,Ticks_Linear_8,125,1,48,54,533882104
665,20,Ticks_Linear_8,126,5,42,127,533893372
665,20,Ticks_Linear_8,127,5,42,127,534583616
665,20,Ticks_Linear_8,128,1,48,58,534615864
665,20,Ticks_Linear_8,129,1,48,52,535271636
665,20,Ticks_Linear_8,130,5,42,127,535273752
665,20,Ticks_Linear_8,131,5,42,127,535963996
665,20,Ticks_Linear_8,132,1,48,52,535976032
665,20,Ticks_Linear_8,133,1,48,54,536632328
665,20,Ticks_Linear_8,134,5,42,127,536654300
665,20,Ticks_Linear_8,135,1,48,49,537308228
665,20,Ticks_Linear_8,136,5,42,127,537344368
665,20,Ticks_Linear_8,137,1,48,52,537979664
665,20,Ticks_Linear_8,138,5,42,127,538024416
665,20,Ticks_Linear_8,139,1,48,51,538686232
665,20,Ticks_Linear_8,140,5,42,127,538704396
665,20,Ticks_Linear_8,141,5,42,127,539384356
665,20,Ticks_Linear_8,142,1,48,54,539388672
665,20,Ticks_Linear_8,143,1,48,60,540060312
665,20,Ticks_Linear_8,144,5,42,127,540064256
665,20,Ticks_Linear_8,145,1,48,50,540744092
665,20,Ticks_Linear_8,146,5,42,127,540745428
665,20,Ticks_Linear_8,147,1,48,58,541383556
665,20,Ticks_Linear_8,148,5,42,127,541413704
665,20,Ticks_Linear_8,149,1,48,55,542046540
665,20,Ticks_Linear_8,150,5,42,127,542083424
665,20,Ticks_Linear_8,151,1,48,55,542718252
665,20,Ticks_Linear_8,152,5,42,127,542754192
665,20,Ticks_Linear_8,153,5,42,127,543423748
665,20,Ticks_Linear_8,154,1,48,53,543435328
665,20,Ticks_Linear_8,155,5,42,127,544093464
665,20,Ticks_Linear_8,156,1,48,54,544107144
665,20,Ticks_Linear_8,157,5,42,127,544754096
665,20,Ticks_Linear_8,158,1,48,60,544763964
665,20,Ticks_Linear_8,159,5,42,127,545413480
665,20,Ticks_Linear_8,160,1,48,53,545444684
665,20,Ticks_Linear_8,161,5,42,127,546073988
665,20,Ticks_Linear_8,162,1,48,49,546083852
665,20,Ticks_Linear_8,163,1,48,54,546709104
665,20,Ticks_Linear_8,164,5,42,127,546733416
665,20,Ticks_Linear_8,165,1,48,64,547341076
665,20,Ticks_Linear_8,166,5,42,127,547394072
665,20,Ticks_Linear_8,167,1,48,57,547996852
665,20,Ticks_Linear_8,168,5,42,127,548044144
665,20,Ticks_Linear_8,169,1,48,56,548644104
665,20,Ticks_Linear_8,170,5,42,127,548694392
665,20,Ticks_Linear_8,171,1,48,50,549292980
665,20,Ticks_Linear_8,172,5,42,127,549343568
665,20,Ticks_Linear_8,173,1,48,59,549987108
665,20,Ticks_Linear_8,174,5,42,127,549993816
665,20,Ticks_Linear_8,175,5,42,127,550644044
665,20,Ticks_Linear_8,176,1,48,57,550669200
665,20,Ticks_Linear_8,177,5,42,127,551284184
665,20,Ticks_Linear_8,178,1,48,53,551311800
665,20,Ticks_Linear_8,179,1,48,59,551916088
665,20,Ticks_Linear_8,180,5,42,127,551924144
665,20,Ticks_Linear_8,181,1,48,58,552556904
665,20,Ticks_Linear_8,182,5,42,127,552564056
665,20,Ticks_Linear_8,183,1,48,61,553194096
665,20,Ticks_Linear_8,184,5,42,127,553204096
665,20,Ticks_Linear_8,185,1,48,57,553834084
665,20,Ticks_Linear_8,186,5,42,127,553844236
665,20,Ticks_Linear_8,187,1,48,67,554459064
665,20,Ticks_Linear_8,188,5,42,127,554474012
665,20,Ticks_Linear_8,189,1,48,54,555074272
665,20,Ticks_Linear_8,190,5,42,127,555103672
665,20,Ticks_Linear_8,191,1,48,67,555708244
665,20,Ticks_Linear_8,192,5,42,127,555734348
665,20,Ticks_Linear_8,193,1,48,62,556335284
665,20,Ticks_Linear_8,194,5,42,127,556364080
665,20,Ticks_Linear_8,195,1,48,63,556985056
665,20,Ticks_Linear_8,196,5,42,127,556994156
665,20,Ticks_Linear_8,197,1,48,56,557589844
665,20,Ticks_Linear_8,198,5,42,127,557613328
665,20,Ticks_Linear_8,199,1,48,57,558178884
665,20,Ticks_Linear_8,200,5,42,127,558234196
665,20,Ticks_Linear_8,201,5,42,127,558853352
665,20,Ticks_Linear_8,202,1,48,50,558873272
665,20,Ticks_Linear_8,203,5,42,127,559474016
665,20,Ticks_Linear_8,204,1,48,60,559499972
665,20,Ticks_Linear_8,205,1,48,61,560060380
665,20,Ticks_Linear_8,206,5,42,127,560093604
665,20,Ticks_Linear_8,207,1,48,55,560674916
665,20,Ticks_Linear_8,208,5,42,127,560703788
665,20,Ticks_Linear_8,209,1,48,62,561281264
665,20,Ticks_Linear_8,210,5,42,127,561314172
665,20,Ticks_Linear_8,211,1,48,57,561918968
665,20,Ticks_Linear_8,212,5,42,127,561923436
665,20,Ticks_Linear_8,213,1,48,47,562525488
665,20,Ticks_Linear_8,214,5,42,127,562533840
665,20,Ticks_Linear_8,215,1,48,51,563082556
665,20,Ticks_Linear_8,216,5,42,127,563144076
665,20,Ticks_Linear_8,217,5,42,127,563744156
665,20,Ticks_Linear_8,218,1,48,48,563802924
665,20,Ticks_Linear_8,219,5,42,127,564344208
665,20,Ticks_Linear_8,220,1,48,47,564391800
665,20,Ticks_Linear_8,221,5,42,127,564944108
665,20,Ticks_Linear_8,222,1,48,46,564963032
665,20,Ticks_Linear_8,223,1,48,47,565510180
665,20,Ticks_Linear_8,224,5,42,127,565544248
665,20,Ticks_Linear_8,225,5,42,127,566144528
665,20,Ticks_Linear_8,226,1,48,47,566149740
665,20,Ticks_Linear_8,227,5,42,127,566734092
665,20,Ticks_Linear_8,228,1,48,36,566773088
665,20,Ticks_Linear_8,229,5,42,127,567323984
665,20,Ticks_Linear_8,230,1,48,42,567327700
665,20,Ticks_Linear_8,231,5,42,127,567913848
665,20,Ticks_Linear_8,232,1,48,43,567920108
665,20,Ticks_Linear_8,233,5,42,127,568503936
665,20,Ticks_Linear_8,234,1,48,46,568516488
665,20,Ticks_Linear_8,235,5,42,127,569093356
665,20,Ticks_Linear_8,236,1,48,50,569115968
665,20,Ticks_Linear_8,237,1,48,53,569673276
665,20,Ticks_Linear_8,238,5,42,127,569674692
665,20,Ticks_Linear_8,239,5,42,127,570253860
665,20,Ticks_Linear_8,240,1,48,51,570256456
665,20,Ticks_Linear_8,241,1,48,58,570809672
665,20,Ticks_Linear_8,242,5,42,127,570834280
665,20,Ticks_Linear_8,243,1,48,54,571362248
665,20,Ticks_Linear_8,244,5,42,127,571413836
665,20,Ticks_Linear_8,245,1,48,51,571952220
665,20,Ticks_Linear_8,246,5,42,127,571993812
665,20,Ticks_Linear_8,247,1,48,54,572550384
665,20,Ticks_Linear_8,248,5,42,127,572563832
665,20,Ticks_Linear_8,249,1,48,53,573123856
665,20,Ticks_Linear_8,250,5,42,127,573134080
665,20,Ticks_Linear_8,251,1,48,51,573690048
665,20,Ticks_Linear_8,252,5,42,127,573703724
665,20,Ticks_Linear_8,253,1,48,51,574225948
665,20,Ticks_Linear_8,254,5,42,127,574273768
665,20,Ticks_Linear_8,255,1,48,53,574799852
665,20,Ticks_Linear_8,256,5,42,127,574844308
665,20,Ticks_Linear_8,257,1,48,53,575389724
665,20,Ticks_Linear_8,258,5,42,127,575404740
665,20,Ticks_Linear_8,259,1,48,49,575936532
665,20,Ticks_Linear_8,260,5,42,127,575963604
665,20,Ticks_Linear_8,261,1,48,44,576436828
665,20,Ticks_Linear_8,262,5,42,127,576523764
665,20,Ticks_Linear_8,263,1,48,43,576970972
665,20,Ticks_Linear_8,264,5,42,127,577083880
665,20,Ticks_Linear_8,265,1,48,48,577563788
665,20,Ticks_Linear_8,266,5,42,127,577643880
665,20,Ticks_Linear_8,267,5,42,127,578193836
665,20,Ticks_Linear_8,268,1,48,42,578200624
665,20,Ticks_Linear_8,269,5,42,127,578743636
665,20,Ticks_Linear_8,270,5,42,127,579293608
665,20,Ticks_Linear_8,271,5,42,127,579843504
665,20,Ticks_Linear_8,272,5,42,127,580394472
665,20,Ticks_Linear_8,273,5,42,127,580933884
665,20,Ticks_Linear_8,274,1,48,39,581443600
665,20,Ticks_Linear_8,275,5,42,127,581473664
665,20,Ticks_Linear_8,276,1,48,47,581981344
665,20,Ticks_Linear_8,277,5,42,127,582014400
665,20,Ticks_Linear_8,278,1,48,47,582456548
665,20,Ticks_Linear_8,279,5,42,127,582554000
665,20,Ticks_Linear_8,280,1,48,41,583027092
665,20,Ticks_Linear_8,281,5,42,127,583093708
665,20,Ticks_Linear_8,282,1,48,42,583536676
665,20,Ticks_Linear_8,283,5,42,127,583623960
665,20,Ticks_Linear_8,284,1,48,44,584104672
665,20,Ticks_Linear_8,285,5,42,127,584153616
665,20,Ticks_Linear_8,286,1,48,46,584614188
665,20,Ticks_Linear_8,287,5,42,127,584683868
665,20,Ticks_Linear_8,288,1,48,39,585130280
665,20,Ticks_Linear_8,289,5,42,127,585214420
665,20,Ticks_Linear_8,290,1,48,44,585658588
665,20,Ticks_Linear_8,291,5,42,127,585743656
665,20,Ticks_Linear_8,292,1,48,54,586206372
665,20,Ticks_Linear_8,293,5,42,127,586263800
665,20,Ticks_Linear_8,294,1,48,47,586736468
665,20,Ticks_Linear_8,295,5,42,127,586784312
665,20,Ticks_Linear_8,296,1,48,38,587257512
665,20,Ticks_Linear_8,297,5,42,127,587304532
665,20,Ticks_Linear_8,298,1,48,43,587777804
665,20,Ticks_Linear_8,299,5,42,127,587823332
665,20,Ticks_Linear_8,300,1,48,38,588285668
665,20,Ticks_Linear_8,301,5,42,127,588343624
665,20,Ticks_Linear_8,302,1,48,40,588777280
665,20,Ticks_Linear_8,303,5,42,127,588853512
665,20,Ticks_Linear_8,304,1,48,40,589287992
665,20,Ticks_Linear_8,305,5,42,127,589363620
665,20,Ticks_Linear_8,306,1,48,43,589801540
665,20,Ticks_Linear_8,307,5,42,127,589873504
665,20,Ticks_Linear_8,308,1,48,38,590333152
665,20,Ticks_Linear_8,309,5,42,127,590383388
665,20,Ticks_Linear_8,310,1,48,40,590887312
665,20,Ticks_Linear_8,311,5,42,127,590893420
665,20,Ticks_Linear_8,312,5,42,127,591394248
665,20,Ticks_Linear_8,313,1,48,34,591421104
665,20,Ticks_Linear_8,314,1,48,35,591851648
665,20,Ticks_Linear_8,315,5,42,127,591893796
665,20,Ticks_Linear_8,316,1,48,33,592363700
665,20,Ticks_Linear_8,317,5,42,127,592393640
665,20,Ticks_Linear_8,318,1,48,38,592845048
665,20,Ticks_Linear_8,319,5,42,127,592894440
665,20,Ticks_Linear_8,320,1,48,37,593352840
665,20,Ticks_Linear_8,321,5,42,127,593394064
665,20,Ticks_Linear_8,322,1,48,41,593864148
665,20,Ticks_Linear_8,323,5,42,127,593883508
665,20,Ticks_Linear_8,324,5,42,127,594374076
665,20,Ticks_Linear_8,325,1,48,34,594375340
665,20,Ticks_Linear_8,326,1,48,38,594853512
665,20,Ticks_Linear_8,327,5,42,127,594863436
665,20,Ticks_Linear_8,328,1,48,30,595340172
665,20,Ticks_Linear_8,329,5,42,127,595353852
665,20,Ticks_Linear_8,330,1,48,28,595842008
665,20,Ticks_Linear_8,331,5,42,127,595843440
665,20,Ticks_Linear_8,0,9999,9999,9999,485301344
665,20,Ticks_Linear_8,1,9999,9999,9999,486121532
665,20,Ticks_Linear_8,2,9999,9999,9999,486941824
665,20,Ticks_Linear_8,3,9999,9999,9999,487762012
665,20,Ticks_Linear_8,4,9999,9999,9999,488581224
665,20,Ticks_Linear_8,5,9999,9999,9999,489391184
665,20,Ticks_Linear_8,6,9999,9999,9999,490201168
665,20,Ticks_Linear_8,7,9999,9999,9999,491011152
665,20,Ticks_Linear_8,8,9999,9999,9999,491821160
665,20,Ticks_Linear_8,9,9999,9999,9999,492631144
665,20,Ticks_Linear_8,10,9999,9999,9999,493431916
665,20,Ticks_Linear_8,11,9999,9999,9999,494231640
665,20,Ticks_Linear_8,12,9999,9999,9999,495031364
665,20,Ticks_Linear_8,13,9999,9999,9999,495831096
665,20,Ticks_Linear_8,14,9999,9999,9999,496631864
665,20,Ticks_Linear_8,15,9999,9999,9999,497421432
665,20,Ticks_Linear_8,16,9999,9999,9999,498211940
665,20,Ticks_Linear_8,17,9999,9999,9999,499001400
665,20,Ticks_Linear_8,18,9999,9999,9999,499791988
665,20,Ticks_Linear_8,19,9999,9999,9999,500581456
665,20,Ticks_Linear_8,20,9999,9999,9999,501361780
665,20,Ticks_Linear_8,21,9999,9999,9999,502142032
665,20,Ticks_Linear_8,22,9999,9999,9999,502921312
665,20,Ticks_Linear_8,23,9999,9999,9999,503701572
665,20,Ticks_Linear_8,24,9999,9999,9999,504481892
665,20,Ticks_Linear_8,25,9999,9999,9999,505251968
665,20,Ticks_Linear_8,26,9999,9999,9999,506021960
665,20,Ticks_Linear_8,27,9999,9999,9999,506792024
665,20,Ticks_Linear_8,28,9999,9999,9999,507562096
665,20,Ticks_Linear_8,29,9999,9999,9999,508331120
665,20,Ticks_Linear_8,30,9999,9999,9999,509091900
665,20,Ticks_Linear_8,31,9999,9999,9999,509851708
665,20,Ticks_Linear_8,32,9999,9999,9999,510611516
665,20,Ticks_Linear_8,33,9999,9999,9999,511371328
665,20,Ticks_Linear_8,34,9999,9999,9999,512131128
665,20,Ticks_Linear_8,35,9999,9999,9999,512881728
665,20,Ticks_Linear_8,36,9999,9999,9999,513631356
665,20,Ticks_Linear_8,37,9999,9999,9999,514381880
665,20,Ticks_Linear_8,38,9999,9999,9999,515131500
665,20,Ticks_Linear_8,39,9999,9999,9999,515882096
665,20,Ticks_Linear_8,40,9999,9999,9999,516621384
665,20,Ticks_Linear_8,41,9999,9999,9999,517361772
665,20,Ticks_Linear_8,42,9999,9999,9999,518102108
665,20,Ticks_Linear_8,43,9999,9999,9999,518851660
665,20,Ticks_Linear_8,44,9999,9999,9999,519591996
665,20,Ticks_Linear_8,45,9999,9999,9999,520321104
665,20,Ticks_Linear_8,46,9999,9999,9999,521051256
665,20,Ticks_Linear_8,47,9999,9999,9999,521781332
665,20,Ticks_Linear_8,48,9999,9999,9999,522511416
665,20,Ticks_Linear_8,49,9999,9999,9999,523241536
665,20,Ticks_Linear_8,50,9999,9999,9999,523961440
665,20,Ticks_Linear_8,51,9999,9999,9999,524681332
665,20,Ticks_Linear_8,52,9999,9999,9999,525401152
665,20,Ticks_Linear_8,53,9999,9999,9999,526122092
665,20,Ticks_Linear_8,54,9999,9999,9999,526841964
665,20,Ticks_Linear_8,55,9999,9999,9999,527551596
665,20,Ticks_Linear_8,56,9999,9999,9999,528261232
665,20,Ticks_Linear_8,57,9999,9999,9999,528971832
665,20,Ticks_Linear_8,58,9999,9999,9999,529681468
665,20,Ticks_Linear_8,59,9999,9999,9999,530391152
665,20,Ticks_Linear_8,60,9999,9999,9999,531091576
665,20,Ticks_Linear_8,61,9999,9999,9999,531791928
665,20,Ticks_Linear_8,62,9999,9999,9999,532491348
665,20,Ticks_Linear_8,63,9999,9999,9999,533191776
665,20,Ticks_Linear_8,64,9999,9999,9999,533891148
665,20,Ticks_Linear_8,65,9999,9999,9999,534581320
665,20,Ticks_Linear_8,66,9999,9999,9999,535271492
665,20,Ticks_Linear_8,67,9999,9999,9999,535961696
665,20,Ticks_Linear_8,68,9999,9999,9999,536651856
665,20,Ticks_Linear_8,69,9999,9999,9999,537342068
665,20,Ticks_Linear_8,70,9999,9999,9999,538021972
665,20,Ticks_Linear_8,71,9999,9999,9999,538701948
665,20,Ticks_Linear_8,72,9999,9999,9999,539381836
665,20,Ticks_Linear_8,73,9999,9999,9999,540061808
665,20,Ticks_Linear_8,74,9999,9999,9999,540741716
665,20,Ticks_Linear_8,75,9999,9999,9999,541411408
665,20,Ticks_Linear_8,76,9999,9999,9999,542081124
665,20,Ticks_Linear_8,77,9999,9999,9999,542751820
665,20,Ticks_Linear_8,78,9999,9999,9999,543421520
665,20,Ticks_Linear_8,79,9999,9999,9999,544091240
665,20,Ticks_Linear_8,80,9999,9999,9999,544751724
665,20,Ticks_Linear_8,81,9999,9999,9999,545411184
665,20,Ticks_Linear_8,82,9999,9999,9999,546071612
665,20,Ticks_Linear_8,83,9999,9999,9999,546731116
665,20,Ticks_Linear_8,84,9999,9999,9999,547391548
665,20,Ticks_Linear_8,85,9999,9999,9999,548041848
665,20,Ticks_Linear_8,86,9999,9999,9999,548692092
665,20,Ticks_Linear_8,87,9999,9999,9999,549341268
665,20,Ticks_Linear_8,88,9999,9999,9999,549991516
665,20,Ticks_Linear_8,89,9999,9999,9999,550641744
665,20,Ticks_Linear_8,90,9999,9999,9999,551281736
665,20,Ticks_Linear_8,91,9999,9999,9999,551921772
665,20,Ticks_Linear_8,92,9999,9999,9999,552561760
665,20,Ticks_Linear_8,93,9999,9999,9999,553201720
665,20,Ticks_Linear_8,94,9999,9999,9999,553841788
665,20,Ticks_Linear_8,95,9999,9999,9999,554471492
665,20,Ticks_Linear_8,96,9999,9999,9999,555101296
665,20,Ticks_Linear_8,97,9999,9999,9999,555732048
665,20,Ticks_Linear_8,98,9999,9999,9999,556361856
665,20,Ticks_Linear_8,99,9999,9999,9999,556991560
665,20,Ticks_Linear_8,100,9999,9999,9999,557611104
665,20,Ticks_Linear_8,101,9999,9999,9999,558231672
665,20,Ticks_Linear_8,102,9999,9999,9999,558851124
665,20,Ticks_Linear_8,103,9999,9999,9999,559471716
665,20,Ticks_Linear_8,104,9999,9999,9999,560091232
665,20,Ticks_Linear_8,105,9999,9999,9999,560701564
665,20,Ticks_Linear_8,106,9999,9999,9999,561311796
665,20,Ticks_Linear_8,107,9999,9999,9999,561921136
665,20,Ticks_Linear_8,108,9999,9999,9999,562531392
665,20,Ticks_Linear_8,109,9999,9999,9999,563141700
665,20,Ticks_Linear_8,110,9999,9999,9999,563741780
665,20,Ticks_Linear_8,111,9999,9999,9999,564341832
665,20,Ticks_Linear_8,112,9999,9999,9999,564941884
665,20,Ticks_Linear_8,113,9999,9999,9999,565541948
665,20,Ticks_Linear_8,114,9999,9999,9999,566142076
665,20,Ticks_Linear_8,115,9999,9999,9999,566731868
665,20,Ticks_Linear_8,116,9999,9999,9999,567321684
665,20,Ticks_Linear_8,117,9999,9999,9999,567911548
665,20,Ticks_Linear_8,118,9999,9999,9999,568501340
665,20,Ticks_Linear_8,119,9999,9999,9999,569091128
665,20,Ticks_Linear_8,120,9999,9999,9999,569671804
665,20,Ticks_Linear_8,121,9999,9999,9999,570251336
665,20,Ticks_Linear_8,122,9999,9999,9999,570831980
665,20,Ticks_Linear_8,123,9999,9999,9999,571411536
665,20,Ticks_Linear_8,124,9999,9999,9999,571991144
665,20,Ticks_Linear_8,125,9999,9999,9999,572561536
665,20,Ticks_Linear_8,126,9999,9999,9999,573131856
665,20,Ticks_Linear_8,127,9999,9999,9999,573701200
665,20,Ticks_Linear_8,128,9999,9999,9999,574271544
665,20,Ticks_Linear_8,129,9999,9999,9999,574841936
665,20,Ticks_Linear_8,130,9999,9999,9999,575402068
665,20,Ticks_Linear_8,131,9999,9999,9999,575961160
665,20,Ticks_Linear_8,132,9999,9999,9999,576521316
665,20,Ticks_Linear_8,133,9999,9999,9999,577081432
665,20,Ticks_Linear_8,134,9999,9999,9999,577641580
665,20,Ticks_Linear_8,135,9999,9999,9999,578191464
665,20,Ticks_Linear_8,136,9999,9999,9999,578741336
665,20,Ticks_Linear_8,137,9999,9999,9999,579291236
665,20,Ticks_Linear_8,138,9999,9999,9999,579841132
665,20,Ticks_Linear_8,139,9999,9999,9999,580392024
665,20,Ticks_Linear_8,140,9999,9999,9999,580931660
665,20,Ticks_Linear_8,141,9999,9999,9999,581471292
665,20,Ticks_Linear_8,142,9999,9999,9999,582012028
665,20,Ticks_Linear_8,143,9999,9999,9999,582551628
665,20,Ticks_Linear_8,144,9999,9999,9999,583091260
665,20,Ticks_Linear_8,145,9999,9999,9999,583621736
665,20,Ticks_Linear_8,146,9999,9999,9999,584151092
665,20,Ticks_Linear_8,147,9999,9999,9999,584681572
665,20,Ticks_Linear_8,148,9999,9999,9999,585211972
665,20,Ticks_Linear_8,149,9999,9999,9999,585741428
665,20,Ticks_Linear_8,150,9999,9999,9999,586261576
665,20,Ticks_Linear_8,151,9999,9999,9999,586781792
665,20,Ticks_Linear_8,152,9999,9999,9999,587302012
665,20,Ticks_Linear_8,153,9999,9999,9999,587821108
665,20,Ticks_Linear_8,154,9999,9999,9999,588341328
665,20,Ticks_Linear_8,155,9999,9999,9999,588851288
665,20,Ticks_Linear_8,156,9999,9999,9999,589361248
665,20,Ticks_Linear_8,157,9999,9999,9999,589871204
665,20,Ticks_Linear_8,158,9999,9999,9999,590381164
665,20,Ticks_Linear_8,159,9999,9999,9999,590891124
665,20,Ticks_Linear_8,160,9999,9999,9999,591391804
665,20,Ticks_Linear_8,161,9999,9999,9999,591891572
665,20,Ticks_Linear_8,162,9999,9999,9999,592391244
665,20,Ticks_Linear_8,163,9999,9999,9999,592891992
665,20,Ticks_Linear_8,164,9999,9999,9999,593391692
665,20,Ticks_Linear_8,165,9999,9999,9999,593881208
665,20,Ticks_Linear_8,166,9999,9999,9999,594371704
665,20,Ticks_Linear_8,167,9999,9999,9999,594861140
665,20,Ticks_Linear_8,168,9999,9999,9999,595351628
665,20,Ticks_Linear_8,169,9999,9999,9999,595841148
666,21,Ticks_Linear_5,0,5,42,127,605748500
666,21,Ticks_Linear_5,1,5,42,127,606228972
666,21,Ticks_Linear_5,2,5,42,127,606709268
666,21,Ticks_Linear_5,3,5,42,127,607189372
666,21,Ticks_Linear_5,4,5,42,127,607668500
666,21,Ticks_Linear_5,5,5,42,127,608159232
666,21,Ticks_Linear_5,6,5,42,127,608648548
666,21,Ticks_Linear_5,7,5,42,127,609139204
666,21,Ticks_Linear_5,8,1,48,47,609614384
666,21,Ticks_Linear_5,9,5,42,127,609628512
666,21,Ticks_Linear_5,10,1,48,27,609671152
666,21,Ticks_Linear_5,11,1,48,45,610085980
666,21,Ticks_Linear_5,12,5,42,127,610119200
666,21,Ticks_Linear_5,13,1,48,30,610128524
666,21,Ticks_Linear_5,14,1,48,44,610585576
666,21,Ticks_Linear_5,15,5,42,127,610618880
666,21,Ticks_Linear_5,16,1,48,48,611056344
666,21,Ticks_Linear_5,17,5,42,127,611118428
666,21,Ticks_Linear_5,18,1,48,44,611567068
666,21,Ticks_Linear_5,19,5,42,127,611619100
666,21,Ticks_Linear_5,20,1,48,44,612092000
666,21,Ticks_Linear_5,21,5,42,127,612119100
666,21,Ticks_Linear_5,22,1,48,45,612589376
666,21,Ticks_Linear_5,23,5,42,127,612618500
666,21,Ticks_Linear_5,24,1,48,47,613075808
666,21,Ticks_Linear_5,25,5,42,127,613128460
666,21,Ticks_Linear_5,26,1,48,47,613598064
666,21,Ticks_Linear_5,27,5,42,127,613638392
666,21,Ticks_Linear_5,28,1,48,38,614115428
666,21,Ticks_Linear_5,29,5,42,127,614148348
666,21,Ticks_Linear_5,30,5,42,127,614658464
666,21,Ticks_Linear_5,31,1,48,42,614664672
666,21,Ticks_Linear_5,32,5,42,127,615169324
666,21,Ticks_Linear_5,33,1,48,43,615175580
666,21,Ticks_Linear_5,34,1,48,42,615680404
666,21,Ticks_Linear_5,35,5,42,127,615688560
666,21,Ticks_Linear_5,36,5,42,127,616208856
666,21,Ticks_Linear_5,37,1,48,39,616213172
666,21,Ticks_Linear_5,38,1,48,41,616709908
666,21,Ticks_Linear_5,39,5,42,127,616729144
666,21,Ticks_Linear_5,40,1,48,43,617227836
666,21,Ticks_Linear_5,41,5,42,127,617249068
666,21,Ticks_Linear_5,42,1,48,44,617733344
666,21,Ticks_Linear_5,43,5,42,127,617769284
666,21,Ticks_Linear_5,44,1,48,39,618287448
666,21,Ticks_Linear_5,45,5,42,127,618298940
666,21,Ticks_Linear_5,46,1,48,48,618825996
666,21,Ticks_Linear_5,47,5,42,127,618829116
666,21,Ticks_Linear_5,48,5,42,127,619358628
666,21,Ticks_Linear_5,49,1,48,45,619362420
666,21,Ticks_Linear_5,50,5,42,127,619888956
666,21,Ticks_Linear_5,51,1,48,36,619907056
666,21,Ticks_Linear_5,52,1,48,40,620412492
666,21,Ticks_Linear_5,53,5,42,127,620418380
666,21,Ticks_Linear_5,54,5,42,127,620959048
666,21,Ticks_Linear_5,55,1,48,38,620968164
666,21,Ticks_Linear_5,56,5,42,127,621498860
666,21,Ticks_Linear_5,57,1,48,37,621507304
666,21,Ticks_Linear_5,58,5,42,127,622039300
666,21,Ticks_Linear_5,59,1,48,40,622069832
666,21,Ticks_Linear_5,60,1,48,41,622553328
666,21,Ticks_Linear_5,61,5,42,127,622579056
666,21,Ticks_Linear_5,62,5,42,127,623118928
666,21,Ticks_Linear_5,63,1,48,45,623120792
666,21,Ticks_Linear_5,64,5,42,127,623668876
666,21,Ticks_Linear_5,65,1,48,48,623696624
666,21,Ticks_Linear_5,66,5,42,127,624218452
666,21,Ticks_Linear_5,67,1,48,43,624259172
666,21,Ticks_Linear_5,68,5,42,127,624769524
666,21,Ticks_Linear_5,69,1,48,47,624771612
666,21,Ticks_Linear_5,70,5,42,127,625319248
666,21,Ticks_Linear_5,71,1,48,42,625323192
666,21,Ticks_Linear_5,72,5,42,127,625869048
666,21,Ticks_Linear_5,73,1,48,45,625877788
666,21,Ticks_Linear_5,74,1,48,34,626422240
666,21,Ticks_Linear_5,75,5,42,127,626429172
666,21,Ticks_Linear_5,76,1,48,46,626980980
666,21,Ticks_Linear_5,77,5,42,127,626989332
666,21,Ticks_Linear_5,78,1,48,38,627551140
666,21,Ticks_Linear_5,79,5,42,127,627558900
666,21,Ticks_Linear_5,80,1,48,40,628108060
666,21,Ticks_Linear_5,81,5,42,127,628118956
666,21,Ticks_Linear_5,82,1,48,39,628650668
666,21,Ticks_Linear_5,83,5,42,127,628679016
666,21,Ticks_Linear_5,84,1,48,51,629210724
666,21,Ticks_Linear_5,85,5,42,127,629249408
666,21,Ticks_Linear_5,86,1,48,39,629812296
666,21,Ticks_Linear_5,87,5,42,127,629818852
666,21,Ticks_Linear_5,88,5,42,127,630389176
666,21,Ticks_Linear_5,89,1,48,41,630406532
666,21,Ticks_Linear_5,90,5,42,127,630958448
666,21,Ticks_Linear_5,91,1,48,42,630962012
666,21,Ticks_Linear_5,92,5,42,127,631528764
666,21,Ticks_Linear_5,93,1,48,44,631543264
666,21,Ticks_Linear_5,94,5,42,127,632109292
666,21,Ticks_Linear_5,95,1,48,42,632124164
666,21,Ticks_Linear_5,96,5,42,127,632699232
666,21,Ticks_Linear_5,97,1,48,46,632718156
666,21,Ticks_Linear_5,98,5,42,127,633278836
666,21,Ticks_Linear_5,99,1,48,41,633324260
666,21,Ticks_Linear_5,100,5,42,127,633858588
666,21,Ticks_Linear_5,101,1,48,44,633881728
666,21,Ticks_Linear_5,102,5,42,127,634438968
666,21,Ticks_Linear_5,103,1,48,44,634451152
666,21,Ticks_Linear_5,104,5,42,127,635028832
666,21,Ticks_Linear_5,105,1,48,41,635048060
666,21,Ticks_Linear_5,106,1,48,46,635604856
666,21,Ticks_Linear_5,107,5,42,127,635618836
666,21,Ticks_Linear_5,108,1,48,43,636193776
666,21,Ticks_Linear_5,109,5,42,127,636208576
666,21,Ticks_Linear_5,110,1,48,47,636778184
666,21,Ticks_Linear_5,111,5,42,127,636799340
666,21,Ticks_Linear_5,112,1,48,47,637371112
666,21,Ticks_Linear_5,113,5,42,127,637389352
666,21,Ticks_Linear_5,114,1,48,42,637936480
666,21,Ticks_Linear_5,115,5,42,127,637989204
666,21,Ticks_Linear_5,116,1,48,51,638508636
666,21,Ticks_Linear_5,117,5,42,127,638589400
666,21,Ticks_Linear_5,118,1,48,43,639146640
666,21,Ticks_Linear_5,119,5,42,127,639189300
666,21,Ticks_Linear_5,120,1,48,40,639770988
666,21,Ticks_Linear_5,121,5,42,127,639789672
666,21,Ticks_Linear_5,122,1,48,54,640325268
666,21,Ticks_Linear_5,123,5,42,127,640398708
666,21,Ticks_Linear_5,124,1,48,48,640922328
666,21,Ticks_Linear_5,125,5,42,127,641009016
666,21,Ticks_Linear_5,126,1,48,43,641608676
666,21,Ticks_Linear_5,127,5,42,127,641619424
666,21,Ticks_Linear_5,128,1,48,44,642215980
666,21,Ticks_Linear_5,129,5,42,127,642228460
666,21,Ticks_Linear_5,130,1,48,40,642822844
666,21,Ticks_Linear_5,131,5,42,127,642838768
666,21,Ticks_Linear_5,132,1,48,48,643415776
666,21,Ticks_Linear_5,133,5,42,127,643449076
666,21,Ticks_Linear_5,134,1,48,48,644012388
666,21,Ticks_Linear_5,135,5,42,127,644068748
666,21,Ticks_Linear_5,136,1,48,50,644606956
666,21,Ticks_Linear_5,137,5,42,127,644689412
666,21,Ticks_Linear_5,138,1,48,47,645261564
666,21,Ticks_Linear_5,139,5,42,127,645308784
666,21,Ticks_Linear_5,140,1,48,53,645894028
666,21,Ticks_Linear_5,141,5,42,127,645929424
666,21,Ticks_Linear_5,142,5,42,127,646548876
666,21,Ticks_Linear_5,143,1,48,49,646561580
666,21,Ticks_Linear_5,144,5,42,127,647178536
666,21,Ticks_Linear_5,145,1,48,53,647179800
666,21,Ticks_Linear_5,146,1,48,45,647767680
666,21,Ticks_Linear_5,147,5,42,127,647809580
666,21,Ticks_Linear_5,148,1,48,56,648381876
666,21,Ticks_Linear_5,149,5,42,127,648439280
666,21,Ticks_Linear_5,150,1,48,46,649037900
666,21,Ticks_Linear_5,151,5,42,127,649068864
666,21,Ticks_Linear_5,152,1,48,46,649685412
666,21,Ticks_Linear_5,153,5,42,127,649698568
666,21,Ticks_Linear_5,154,1,48,39,650317548
666,21,Ticks_Linear_5,155,5,42,127,650338632
666,21,Ticks_Linear_5,156,1,48,53,650936384
666,21,Ticks_Linear_5,157,5,42,127,650978668
666,21,Ticks_Linear_5,158,1,48,51,651566504
666,21,Ticks_Linear_5,159,5,42,127,651618660
666,21,Ticks_Linear_5,160,1,48,48,652183764
666,21,Ticks_Linear_5,161,5,42,127,652258624
666,21,Ticks_Linear_5,162,1,48,51,652844720
666,21,Ticks_Linear_5,163,5,42,127,652898612
666,21,Ticks_Linear_5,164,1,48,57,653424176
666,21,Ticks_Linear_5,165,5,42,127,653548896
666,21,Ticks_Linear_5,166,1,48,52,654145336
666,21,Ticks_Linear_5,167,5,42,127,654199304
666,21,Ticks_Linear_5,168,1,48,53,654823348
666,21,Ticks_Linear_5,169,5,42,127,654849304
666,21,Ticks_Linear_5,170,1,48,41,655468592
666,21,Ticks_Linear_5,171,5,42,127,655498580
666,21,Ticks_Linear_5,172,1,48,51,656084132
666,21,Ticks_Linear_5,173,5,42,127,656148752
666,21,Ticks_Linear_5,174,1,48,59,656748988
666,21,Ticks_Linear_5,175,5,42,127,656809460
666,21,Ticks_Linear_5,176,1,48,56,657438700
666,21,Ticks_Linear_5,177,5,42,127,657468772
666,21,Ticks_Linear_5,178,1,48,53,658083748
666,21,Ticks_Linear_5,179,5,42,127,658129400
666,21,Ticks_Linear_5,180,1,48,54,658773020
666,21,Ticks_Linear_5,181,5,42,127,658788716
666,21,Ticks_Linear_5,182,1,48,54,659412456
666,21,Ticks_Linear_5,183,5,42,127,659449420
666,21,Ticks_Linear_5,184,1,48,57,660099780
666,21,Ticks_Linear_5,185,5,42,127,660118768
666,21,Ticks_Linear_5,186,1,48,58,660713300
666,21,Ticks_Linear_5,187,5,42,127,660788560
666,21,Ticks_Linear_5,188,1,48,52,661426988
666,21,Ticks_Linear_5,189,5,42,127,661459300
666,21,Ticks_Linear_5,190,1,48,56,662089664
666,21,Ticks_Linear_5,191,5,42,127,662129168
666,21,Ticks_Linear_5,192,1,48,55,662789860
666,21,Ticks_Linear_5,193,5,42,127,662798668
666,21,Ticks_Linear_5,194,1,48,48,663373132
666,21,Ticks_Linear_5,195,5,42,127,663478604
666,21,Ticks_Linear_5,196,1,48,54,664129424
666,21,Ticks_Linear_5,197,5,42,127,664158524
666,21,Ticks_Linear_5,198,5,42,127,664838436
666,21,Ticks_Linear_5,199,1,48,53,664842376
666,21,Ticks_Linear_5,200,1,48,63,665514436
666,21,Ticks_Linear_5,201,5,42,127,665518528
666,21,Ticks_Linear_5,202,1,48,45,666171952
666,21,Ticks_Linear_5,203,5,42,127,666199480
666,21,Ticks_Linear_5,204,1,48,52,666819484
666,21,Ticks_Linear_5,205,5,42,127,666888596
666,21,Ticks_Linear_5,206,1,48,52,667514956
666,21,Ticks_Linear_5,207,5,42,127,667578732
666,21,Ticks_Linear_5,208,1,48,52,668160392
666,21,Ticks_Linear_5,209,5,42,127,668269252
666,21,Ticks_Linear_5,210,5,42,127,668959212
666,21,Ticks_Linear_5,211,1,48,48,668971396
666,21,Ticks_Linear_5,212,1,48,47,669649128
666,21,Ticks_Linear_5,213,5,42,127,669650540
666,21,Ticks_Linear_5,214,1,48,49,670271768
666,21,Ticks_Linear_5,215,5,42,127,670348792
666,21,Ticks_Linear_5,216,1,48,48,670968052
666,21,Ticks_Linear_5,217,5,42,127,671049064
666,21,Ticks_Linear_5,218,1,48,37,671734964
666,21,Ticks_Linear_5,219,5,42,127,671748492
666,21,Ticks_Linear_5,220,1,48,37,672380548
666,21,Ticks_Linear_5,221,5,42,127,672449108
666,21,Ticks_Linear_5,222,1,48,34,673103432
666,21,Ticks_Linear_5,223,5,42,127,673149308
666,21,Ticks_Linear_5,224,1,48,43,673783088
666,21,Ticks_Linear_5,225,5,42,127,673859016
666,21,Ticks_Linear_5,226,1,48,49,674512788
666,21,Ticks_Linear_5,227,5,42,127,674568500
666,21,Ticks_Linear_5,228,1,48,43,675200484
666,21,Ticks_Linear_5,229,5,42,127,675279084
666,21,Ticks_Linear_5,230,1,48,54,675898592
666,21,Ticks_Linear_5,231,5,42,127,675989016
666,21,Ticks_Linear_5,232,1,48,43,676581156
666,21,Ticks_Linear_5,233,5,42,127,676698488
666,21,Ticks_Linear_5,234,1,48,54,677355788
666,21,Ticks_Linear_5,235,5,42,127,677419440
666,21,Ticks_Linear_5,236,1,48,44,678057420
666,21,Ticks_Linear_5,237,5,42,127,678139380
666,21,Ticks_Linear_5,238,1,48,30,678823436
666,21,Ticks_Linear_5,239,5,42,127,678859276
666,21,Ticks_Linear_5,240,5,42,127,679578952
666,21,Ticks_Linear_5,241,1,48,52,679607012
666,21,Ticks_Linear_5,242,1,48,43,680266904
666,21,Ticks_Linear_5,243,5,42,127,680298840
666,21,Ticks_Linear_5,244,1,48,48,680968892
666,21,Ticks_Linear_5,245,5,42,127,681029068
666,21,Ticks_Linear_5,246,1,48,38,681747200
666,21,Ticks_Linear_5,247,5,42,127,681759144
666,21,Ticks_Linear_5,248,1,48,46,682482940
666,21,Ticks_Linear_5,249,5,42,127,682489124
666,21,Ticks_Linear_5,250,1,48,51,683173620
666,21,Ticks_Linear_5,251,5,42,127,683219200
666,21,Ticks_Linear_5,252,1,48,54,683896504
666,21,Ticks_Linear_5,253,5,42,127,683949500
666,21,Ticks_Linear_5,254,5,42,127,684699056
666,21,Ticks_Linear_5,255,1,48,51,684705240
666,21,Ticks_Linear_5,256,1,48,48,685438320
666,21,Ticks_Linear_5,257,5,42,127,685439960
666,21,Ticks_Linear_5,258,5,42,127,686178812
666,21,Ticks_Linear_5,259,1,48,45,686194060
666,21,Ticks_Linear_5,260,5,42,127,686919000
666,21,Ticks_Linear_5,261,1,48,53,686930956
666,21,Ticks_Linear_5,262,5,42,127,687659336
666,21,Ticks_Linear_5,263,1,48,44,687669500
666,21,Ticks_Linear_5,264,1,48,49,688405084
666,21,Ticks_Linear_5,265,5,42,127,688408956
666,21,Ticks_Linear_5,266,5,42,127,689158880
666,21,Ticks_Linear_5,267,1,48,50,689171588
666,21,Ticks_Linear_5,268,5,42,127,689909008
666,21,Ticks_Linear_5,269,1,48,55,689938516
666,21,Ticks_Linear_5,270,5,42,127,690658632
666,21,Ticks_Linear_5,271,1,48,48,690678524
666,21,Ticks_Linear_5,272,5,42,127,691409300
666,21,Ticks_Linear_5,273,1,48,46,691441028
666,21,Ticks_Linear_5,274,1,48,59,692161944
666,21,Ticks_Linear_5,275,5,42,127,692169028
666,21,Ticks_Linear_5,276,1,48,54,692871656
666,21,Ticks_Linear_5,277,5,42,127,692928836
666,21,Ticks_Linear_5,278,1,48,50,693618212
666,21,Ticks_Linear_5,279,5,42,127,693688792
666,21,Ticks_Linear_5,280,5,42,127,694448532
666,21,Ticks_Linear_5,281,1,48,48,694475460
666,21,Ticks_Linear_5,282,5,42,127,695209536
666,21,Ticks_Linear_5,283,1,48,44,695236312
666,21,Ticks_Linear_5,284,1,48,51,695958968
666,21,Ticks_Linear_5,285,5,42,127,695979600
666,21,Ticks_Linear_5,286,1,48,38,696742660
666,21,Ticks_Linear_5,287,5,42,127,696749372
666,21,Ticks_Linear_5,288,1,48,45,697508168
666,21,Ticks_Linear_5,289,5,42,127,697528796
666,21,Ticks_Linear_5,290,1,48,47,698259136
666,21,Ticks_Linear_5,291,5,42,127,698298868
666,21,Ticks_Linear_5,292,1,48,55,699041704
666,21,Ticks_Linear_5,293,5,42,127,699068860
666,21,Ticks_Linear_5,294,5,42,127,699849120
666,21,Ticks_Linear_5,295,1,48,62,699855976
666,21,Ticks_Linear_5,296,1,48,58,700619736
666,21,Ticks_Linear_5,297,5,42,127,700629364
666,21,Ticks_Linear_5,298,1,48,54,701362396
666,21,Ticks_Linear_5,299,5,42,127,701408496
666,21,Ticks_Linear_5,300,1,48,56,702152156
666,21,Ticks_Linear_5,301,5,42,127,702189044
666,21,Ticks_Linear_5,302,1,48,57,702960564
666,21,Ticks_Linear_5,303,5,42,127,702969444
666,21,Ticks_Linear_5,304,1,48,50,703755444
666,21,Ticks_Linear_5,305,5,42,127,703758860
666,21,Ticks_Linear_5,306,1,48,45,704478840
666,21,Ticks_Linear_5,307,5,42,127,704549372
666,21,Ticks_Linear_5,308,1,48,50,705283452
666,21,Ticks_Linear_5,309,5,42,127,705338612
666,21,Ticks_Linear_5,310,1,48,59,706055008
666,21,Ticks_Linear_5,311,5,42,127,706129420
666,21,Ticks_Linear_5,312,5,42,127,706918744
666,21,Ticks_Linear_5,313,1,48,54,706937972
666,21,Ticks_Linear_5,314,5,42,127,707718468
666,21,Ticks_Linear_5,315,1,48,54,707774976
666,21,Ticks_Linear_5,316,1,48,57,708505032
666,21,Ticks_Linear_5,317,5,42,127,708519380
666,21,Ticks_Linear_5,318,1,48,62,709295472
666,21,Ticks_Linear_5,319,5,42,127,709318956
666,21,Ticks_Linear_5,320,1,48,45,710091980
666,21,Ticks_Linear_5,321,5,42,127,710118680
666,21,Ticks_Linear_5,322,5,42,127,710918512
666,21,Ticks_Linear_5,323,1,48,44,710923796
666,21,Ticks_Linear_5,324,1,48,43,711698496
666,21,Ticks_Linear_5,325,5,42,127,711728488
666,21,Ticks_Linear_5,326,1,48,57,712501436
666,21,Ticks_Linear_5,327,5,42,127,712538544
666,21,Ticks_Linear_5,328,1,48,46,713283108
666,21,Ticks_Linear_5,329,5,42,127,713348456
666,21,Ticks_Linear_5,330,1,48,56,714080364
666,21,Ticks_Linear_5,331,5,42,127,714158436
666,21,Ticks_Linear_5,332,5,42,127,714968428
666,21,Ticks_Linear_5,0,9999,9999,9999,605746272
666,21,Ticks_Linear_5,1,9999,9999,9999,606226524
666,21,Ticks_Linear_5,2,9999,9999,9999,606706748
666,21,Ticks_Linear_5,3,9999,9999,9999,607187072
666,21,Ticks_Linear_5,4,9999,9999,9999,607666276
666,21,Ticks_Linear_5,5,9999,9999,9999,608156784
666,21,Ticks_Linear_5,6,9999,9999,9999,608646248
666,21,Ticks_Linear_5,7,9999,9999,9999,609136756
666,21,Ticks_Linear_5,8,9999,9999,9999,609626216
666,21,Ticks_Linear_5,9,9999,9999,9999,610116680
666,21,Ticks_Linear_5,10,9999,9999,9999,610616432
666,21,Ticks_Linear_5,11,9999,9999,9999,611116132
666,21,Ticks_Linear_5,12,9999,9999,9999,611616876
666,21,Ticks_Linear_5,13,9999,9999,9999,612116576
666,21,Ticks_Linear_5,14,9999,9999,9999,612616276
666,21,Ticks_Linear_5,15,9999,9999,9999,613126212
666,21,Ticks_Linear_5,16,9999,9999,9999,613636168
666,21,Ticks_Linear_5,17,9999,9999,9999,614146128
666,21,Ticks_Linear_5,18,9999,9999,9999,614656092
666,21,Ticks_Linear_5,19,9999,9999,9999,615167096
666,21,Ticks_Linear_5,20,9999,9999,9999,615686236
666,21,Ticks_Linear_5,21,9999,9999,9999,616206412
666,21,Ticks_Linear_5,22,9999,9999,9999,616726624
666,21,Ticks_Linear_5,23,9999,9999,9999,617246840
666,21,Ticks_Linear_5,24,9999,9999,9999,617766984
666,21,Ticks_Linear_5,25,9999,9999,9999,618296416
666,21,Ticks_Linear_5,26,9999,9999,9999,618826820
666,21,Ticks_Linear_5,27,9999,9999,9999,619356256
666,21,Ticks_Linear_5,28,9999,9999,9999,619886656
666,21,Ticks_Linear_5,29,9999,9999,9999,620416080
666,21,Ticks_Linear_5,30,9999,9999,9999,620956748
666,21,Ticks_Linear_5,31,9999,9999,9999,621496416
666,21,Ticks_Linear_5,32,9999,9999,9999,622037076
666,21,Ticks_Linear_5,33,9999,9999,9999,622576756
666,21,Ticks_Linear_5,34,9999,9999,9999,623116404
666,21,Ticks_Linear_5,35,9999,9999,9999,623666280
666,21,Ticks_Linear_5,36,9999,9999,9999,624216152
666,21,Ticks_Linear_5,37,9999,9999,9999,624767076
666,21,Ticks_Linear_5,38,9999,9999,9999,625316948
666,21,Ticks_Linear_5,39,9999,9999,9999,625866824
666,21,Ticks_Linear_5,40,9999,9999,9999,626426952
666,21,Ticks_Linear_5,41,9999,9999,9999,626987108
666,21,Ticks_Linear_5,42,9999,9999,9999,627556452
666,21,Ticks_Linear_5,43,9999,9999,9999,628116584
666,21,Ticks_Linear_5,44,9999,9999,9999,628676720
666,21,Ticks_Linear_5,45,9999,9999,9999,629247036
666,21,Ticks_Linear_5,46,9999,9999,9999,629816408
666,21,Ticks_Linear_5,47,9999,9999,9999,630386804
666,21,Ticks_Linear_5,48,9999,9999,9999,630956148
666,21,Ticks_Linear_5,49,9999,9999,9999,631526464
666,21,Ticks_Linear_5,50,9999,9999,9999,632107068
666,21,Ticks_Linear_5,51,9999,9999,9999,632696932
666,21,Ticks_Linear_5,52,9999,9999,9999,633276536
666,21,Ticks_Linear_5,53,9999,9999,9999,633856068
666,21,Ticks_Linear_5,54,9999,9999,9999,634436668
666,21,Ticks_Linear_5,55,9999,9999,9999,635026536
666,21,Ticks_Linear_5,56,9999,9999,9999,635616316
666,21,Ticks_Linear_5,57,9999,9999,9999,636206204
666,21,Ticks_Linear_5,58,9999,9999,9999,636797040
666,21,Ticks_Linear_5,59,9999,9999,9999,637386832
666,21,Ticks_Linear_5,60,9999,9999,9999,637986904
666,21,Ticks_Linear_5,61,9999,9999,9999,638586956
666,21,Ticks_Linear_5,62,9999,9999,9999,639187004
666,21,Ticks_Linear_5,63,9999,9999,9999,639787076
666,21,Ticks_Linear_5,64,9999,9999,9999,640396412
666,21,Ticks_Linear_5,65,9999,9999,9999,641006720
666,21,Ticks_Linear_5,66,9999,9999,9999,641616976
666,21,Ticks_Linear_5,67,9999,9999,9999,642226236
666,21,Ticks_Linear_5,68,9999,9999,9999,642836544
666,21,Ticks_Linear_5,69,9999,9999,9999,643446852
666,21,Ticks_Linear_5,70,9999,9999,9999,644066372
666,21,Ticks_Linear_5,71,9999,9999,9999,644686964
666,21,Ticks_Linear_5,72,9999,9999,9999,645306484
666,21,Ticks_Linear_5,73,9999,9999,9999,645926976
666,21,Ticks_Linear_5,74,9999,9999,9999,646546504
666,21,Ticks_Linear_5,75,9999,9999,9999,647176312
666,21,Ticks_Linear_5,76,9999,9999,9999,647807056
666,21,Ticks_Linear_5,77,9999,9999,9999,648436836
666,21,Ticks_Linear_5,78,9999,9999,9999,649066564
666,21,Ticks_Linear_5,79,9999,9999,9999,649696344
666,21,Ticks_Linear_5,80,9999,9999,9999,650336332
666,21,Ticks_Linear_5,81,9999,9999,9999,650976372
666,21,Ticks_Linear_5,82,9999,9999,9999,651616360
666,21,Ticks_Linear_5,83,9999,9999,9999,652256324
666,21,Ticks_Linear_5,84,9999,9999,9999,652896312
666,21,Ticks_Linear_5,85,9999,9999,9999,653546596
666,21,Ticks_Linear_5,86,9999,9999,9999,654196860
666,21,Ticks_Linear_5,87,9999,9999,9999,654847080
666,21,Ticks_Linear_5,88,9999,9999,9999,655496284
666,21,Ticks_Linear_5,89,9999,9999,9999,656146528
666,21,Ticks_Linear_5,90,9999,9999,9999,656807012
666,21,Ticks_Linear_5,91,9999,9999,9999,657466476
666,21,Ticks_Linear_5,92,9999,9999,9999,658126956
666,21,Ticks_Linear_5,93,9999,9999,9999,658786416
666,21,Ticks_Linear_5,94,9999,9999,9999,659446896
666,21,Ticks_Linear_5,95,9999,9999,9999,660116544
666,21,Ticks_Linear_5,96,9999,9999,9999,660786264
666,21,Ticks_Linear_5,97,9999,9999,9999,661457004
666,21,Ticks_Linear_5,98,9999,9999,9999,662126648
666,21,Ticks_Linear_5,99,9999,9999,9999,662796368
666,21,Ticks_Linear_5,100,9999,9999,9999,663476304
666,21,Ticks_Linear_5,101,9999,9999,9999,664156224
666,21,Ticks_Linear_5,102,9999,9999,9999,664836184
666,21,Ticks_Linear_5,103,9999,9999,9999,665516156
666,21,Ticks_Linear_5,104,9999,9999,9999,666197108
666,21,Ticks_Linear_5,105,9999,9999,9999,666886224
666,21,Ticks_Linear_5,106,9999,9999,9999,667576432
666,21,Ticks_Linear_5,107,9999,9999,9999,668266580
666,21,Ticks_Linear_5,108,9999,9999,9999,668956764
666,21,Ticks_Linear_5,109,9999,9999,9999,669646976
666,21,Ticks_Linear_5,110,9999,9999,9999,670346348
666,21,Ticks_Linear_5,111,9999,9999,9999,671046768
666,21,Ticks_Linear_5,112,9999,9999,9999,671746116
666,21,Ticks_Linear_5,113,9999,9999,9999,672446588
666,21,Ticks_Linear_5,114,9999,9999,9999,673147008
666,21,Ticks_Linear_5,115,9999,9999,9999,673856572
666,21,Ticks_Linear_5,116,9999,9999,9999,674566204
666,21,Ticks_Linear_5,117,9999,9999,9999,675276860
666,21,Ticks_Linear_5,118,9999,9999,9999,675986496
666,21,Ticks_Linear_5,119,9999,9999,9999,676696188
666,21,Ticks_Linear_5,120,9999,9999,9999,677417068
666,21,Ticks_Linear_5,121,9999,9999,9999,678136936
666,21,Ticks_Linear_5,122,9999,9999,9999,678856828
666,21,Ticks_Linear_5,123,9999,9999,9999,679576652
666,21,Ticks_Linear_5,124,9999,9999,9999,680296540
666,21,Ticks_Linear_5,125,9999,9999,9999,681026620
666,21,Ticks_Linear_5,126,9999,9999,9999,681756772
666,21,Ticks_Linear_5,127,9999,9999,9999,682486900
666,21,Ticks_Linear_5,128,9999,9999,9999,683216976
666,21,Ticks_Linear_5,129,9999,9999,9999,683947128
666,21,Ticks_Linear_5,130,9999,9999,9999,684696684
666,21,Ticks_Linear_5,131,9999,9999,9999,685437000
666,21,Ticks_Linear_5,132,9999,9999,9999,686176364
666,21,Ticks_Linear_5,133,9999,9999,9999,686916700
666,21,Ticks_Linear_5,134,9999,9999,9999,687657036
666,21,Ticks_Linear_5,135,9999,9999,9999,688406656
666,21,Ticks_Linear_5,136,9999,9999,9999,689156212
666,21,Ticks_Linear_5,137,9999,9999,9999,689906784
666,21,Ticks_Linear_5,138,9999,9999,9999,690656332
666,21,Ticks_Linear_5,139,9999,9999,9999,691406928
666,21,Ticks_Linear_5,140,9999,9999,9999,692166728
666,21,Ticks_Linear_5,141,9999,9999,9999,692926540
666,21,Ticks_Linear_5,142,9999,9999,9999,693686344
666,21,Ticks_Linear_5,143,9999,9999,9999,694446160
666,21,Ticks_Linear_5,144,9999,9999,9999,695207016
666,21,Ticks_Linear_5,145,9999,9999,9999,695977076
666,21,Ticks_Linear_5,146,9999,9999,9999,696747072
666,21,Ticks_Linear_5,147,9999,9999,9999,697526352
666,21,Ticks_Linear_5,148,9999,9999,9999,698296420
666,21,Ticks_Linear_5,149,9999,9999,9999,699066488
666,21,Ticks_Linear_5,150,9999,9999,9999,699846744
666,21,Ticks_Linear_5,151,9999,9999,9999,700627064
666,21,Ticks_Linear_5,152,9999,9999,9999,701406272
666,21,Ticks_Linear_5,153,9999,9999,9999,702186596
666,21,Ticks_Linear_5,154,9999,9999,9999,702966848
666,21,Ticks_Linear_5,155,9999,9999,9999,703756416
666,21,Ticks_Linear_5,156,9999,9999,9999,704546924
666,21,Ticks_Linear_5,157,9999,9999,9999,705336388
666,21,Ticks_Linear_5,158,9999,9999,9999,706126972
666,21,Ticks_Linear_5,159,9999,9999,9999,706916444
666,21,Ticks_Linear_5,160,9999,9999,9999,707716168
666,21,Ticks_Linear_5,161,9999,9999,9999,708516936
666,21,Ticks_Linear_5,162,9999,9999,9999,709316736
666,21,Ticks_Linear_5,163,9999,9999,9999,710116456
666,21,Ticks_Linear_5,164,9999,9999,9999,710916212
666,21,Ticks_Linear_5,165,9999,9999,9999,711726188
666,21,Ticks_Linear_5,166,9999,9999,9999,712536172
666,21,Ticks_Linear_5,167,9999,9999,9999,713346156
666,21,Ticks_Linear_5,168,9999,9999,9999,714156140
666,21,Ticks_Linear_5,169,9999,9999,9999,714966128
667,9,Ticks_ISO_T2_8,0,5,42,127,725672332
667,9,Ticks_ISO_T2_8,1,5,42,127,726472160
667,9,Ticks_ISO_T2_8,2,5,42,127,727272064
667,9,Ticks_ISO_T2_8,3,5,42,127,728071396
667,9,Ticks_ISO_T2_8,4,5,42,127,728872272
667,9,Ticks_ISO_T2_8,5,1,48,46,728884592
667,9,Ticks_ISO_T2_8,6,5,42,127,729672084
667,9,Ticks_ISO_T2_8,7,5,42,127,730471988
667,9,Ticks_ISO_T2_8,8,1,48,50,730487300
667,9,Ticks_ISO_T2_8,9,1,48,46,731224188
667,9,Ticks_ISO_T2_8,10,5,42,127,731271492
667,9,Ticks_ISO_T2_8,11,1,48,50,731999760
667,9,Ticks_ISO_T2_8,12,5,42,127,732072272
667,9,Ticks_ISO_T2_8,13,1,48,44,732816848
667,9,Ticks_ISO_T2_8,14,5,42,127,732872004
667,9,Ticks_ISO_T2_8,15,1,48,49,733663848
667,9,Ticks_ISO_T2_8,16,5,42,127,733671960
667,9,Ticks_ISO_T2_8,17,1,48,53,734429552
667,9,Ticks_ISO_T2_8,18,5,42,127,734471420
667,9,Ticks_ISO_T2_8,19,1,48,58,735211404
667,9,Ticks_ISO_T2_8,20,5,42,127,735272276
667,9,Ticks_ISO_T2_8,21,1,48,47,736039584
667,9,Ticks_ISO_T2_8,22,5,42,127,736072008
667,9,Ticks_ISO_T2_8,23,1,48,50,736837448
667,9,Ticks_ISO_T2_8,24,5,42,127,736871816
667,9,Ticks_ISO_T2_8,25,1,48,54,737601424
667,9,Ticks_ISO_T2_8,26,5,42,127,737671472
667,9,Ticks_ISO_T2_8,27,1,48,53,738425544
667,9,Ticks_ISO_T2_8,28,5,42,127,738472252
667,9,Ticks_ISO_T2_8,29,1,48,48,739209944
667,9,Ticks_ISO_T2_8,30,5,42,127,739271988
667,9,Ticks_ISO_T2_8,31,1,48,46,740057624
667,9,Ticks_ISO_T2_8,32,5,42,127,740071868
667,9,Ticks_ISO_T2_8,33,1,48,31,740829756
667,9,Ticks_ISO_T2_8,34,5,42,127,740871552
667,9,Ticks_ISO_T2_8,35,5,42,127,741672264
667,9,Ticks_ISO_T2_8,36,1,48,48,741679200
667,9,Ticks_ISO_T2_8,37,5,42,127,742472072
667,9,Ticks_ISO_T2_8,38,1,48,44,742479752
667,9,Ticks_ISO_T2_8,39,1,48,44,743254560
667,9,Ticks_ISO_T2_8,40,5,42,127,743271724
667,9,Ticks_ISO_T2_8,41,1,48,46,744021012
667,9,Ticks_ISO_T2_8,42,5,42,127,744071680
667,9,Ticks_ISO_T2_8,43,1,48,52,744814832
667,9,Ticks_ISO_T2_8,44,5,42,127,744872236
667,9,Ticks_ISO_T2_8,45,1,48,57,745589732
667,9,Ticks_ISO_T2_8,46,5,42,127,745671896
667,9,Ticks_ISO_T2_8,47,1,48,54,746404800
667,9,Ticks_ISO_T2_8,48,5,42,127,746471852
667,9,Ticks_ISO_T2_8,49,1,48,60,747202740
667,9,Ticks_ISO_T2_8,50,5,42,127,747271688
667,9,Ticks_ISO_T2_8,51,5,42,127,748072176
667,9,Ticks_ISO_T2_8,52,1,48,58,748086444
667,9,Ticks_ISO_T2_8,53,1,48,51,748853092
667,9,Ticks_ISO_T2_8,54,5,42,127,748871976
667,9,Ticks_ISO_T2_8,55,1,48,54,749632632
667,9,Ticks_ISO_T2_8,56,5,42,127,749671860
667,9,Ticks_ISO_T2_8,57,1,48,56,750434084
667,9,Ticks_ISO_T2_8,58,5,42,127,750471516
667,9,Ticks_ISO_T2_8,59,1,48,50,751243912
667,9,Ticks_ISO_T2_8,60,5,42,127,751272224
667,9,Ticks_ISO_T2_8,61,1,48,43,751976252
667,9,Ticks_ISO_T2_8,62,5,42,127,752072104
667,9,Ticks_ISO_T2_8,63,1,48,72,752766416
667,9,Ticks_ISO_T2_8,64,5,42,127,752871748
667,9,Ticks_ISO_T2_8,65,1,48,58,753576692
667,9,Ticks_ISO_T2_8,66,5,42,127,753671744
667,9,Ticks_ISO_T2_8,67,1,48,41,754421752
667,9,Ticks_ISO_T2_8,68,5,42,127,754472376
667,9,Ticks_ISO_T2_8,69,1,48,56,755240292
667,9,Ticks_ISO_T2_8,70,5,42,127,755272112
667,9,Ticks_ISO_T2_8,71,1,48,47,756033740
667,9,Ticks_ISO_T2_8,72,5,42,127,756071768
667,9,Ticks_ISO_T2_8,73,5,42,127,756871660
667,9,Ticks_ISO_T2_8,74,1,48,52,756885472
667,9,Ticks_ISO_T2_8,75,1,48,47,757624304
667,9,Ticks_ISO_T2_8,76,5,42,127,757672432
667,9,Ticks_ISO_T2_8,77,1,48,47,758435856
667,9,Ticks_ISO_T2_8,78,5,42,127,758472092
667,9,Ticks_ISO_T2_8,79,1,48,52,759254884
667,9,Ticks_ISO_T2_8,80,5,42,127,759271752
667,9,Ticks_ISO_T2_8,81,5,42,127,760071592
667,9,Ticks_ISO_T2_8,82,1,48,35,760072556
667,9,Ticks_ISO_T2_8,83,1,48,51,760833364
667,9,Ticks_ISO_T2_8,84,5,42,127,760872364
667,9,Ticks_ISO_T2_8,85,1,48,46,761608340
667,9,Ticks_ISO_T2_8,86,5,42,127,761672096
667,9,Ticks_ISO_T2_8,87,5,42,127,762471836
667,9,Ticks_ISO_T2_8,88,1,48,55,762490216
667,9,Ticks_ISO_T2_8,89,5,42,127,763271648
667,9,Ticks_ISO_T2_8,90,1,48,46,763274240
667,9,Ticks_ISO_T2_8,91,1,48,54,764044712
667,9,Ticks_ISO_T2_8,92,5,42,127,764072420
667,9,Ticks_ISO_T2_8,93,1,48,40,764853720
667,9,Ticks_ISO_T2_8,94,5,42,127,764871932
667,9,Ticks_ISO_T2_8,95,1,48,55,765636624
667,9,Ticks_ISO_T2_8,96,5,42,127,765671736
667,9,Ticks_ISO_T2_8,97,1,48,46,766418184
667,9,Ticks_ISO_T2_8,98,5,42,127,766471568
667,9,Ticks_ISO_T2_8,99,1,48,54,767231156
667,9,Ticks_ISO_T2_8,100,5,42,127,767272424
667,9,Ticks_ISO_T2_8,101,1,48,45,768063444
667,9,Ticks_ISO_T2_8,102,5,42,127,768072156
667,9,Ticks_ISO_T2_8,103,5,42,127,768871748
667,9,Ticks_ISO_T2_8,104,1,48,47,768885864
667,9,Ticks_ISO_T2_8,105,5,42,127,769671556
667,9,Ticks_ISO_T2_8,106,1,48,37,769713272
667,9,Ticks_ISO_T2_8,107,1,48,52,770468188
667,9,Ticks_ISO_T2_8,108,5,42,127,770472480
667,9,Ticks_ISO_T2_8,109,1,48,42,771249068
667,9,Ticks_ISO_T2_8,110,5,42,127,771271988
667,9,Ticks_ISO_T2_8,111,1,48,48,772012596
667,9,Ticks_ISO_T2_8,112,5,42,127,772071872
667,9,Ticks_ISO_T2_8,113,1,48,40,772819736
667,9,Ticks_ISO_T2_8,114,5,42,127,772871480
667,9,Ticks_ISO_T2_8,115,1,48,53,773641412
667,9,Ticks_ISO_T2_8,116,5,42,127,773672408
667,9,Ticks_ISO_T2_8,117,1,48,54,774411748
667,9,Ticks_ISO_T2_8,118,5,42,127,774472216
667,9,Ticks_ISO_T2_8,119,1,48,62,775227492
667,9,Ticks_ISO_T2_8,120,5,42,127,775271728
667,9,Ticks_ISO_T2_8,121,5,42,127,776071468
667,9,Ticks_ISO_T2_8,122,1,48,50,776075928
667,9,Ticks_ISO_T2_8,123,5,42,127,776872248
667,9,Ticks_ISO_T2_8,124,1,48,53,776873212
667,9,Ticks_ISO_T2_8,125,5,42,127,777672204
667,9,Ticks_ISO_T2_8,126,1,48,45,777678092
667,9,Ticks_ISO_T2_8,127,1,48,65,778414156
667,9,Ticks_ISO_T2_8,128,5,42,127,778471780
667,9,Ticks_ISO_T2_8,129,1,48,57,779163024
667,9,Ticks_ISO_T2_8,130,5,42,127,779271572
667,9,Ticks_ISO_T2_8,131,5,42,127,780072152
667,9,Ticks_ISO_T2_8,132,1,48,65,780085740
667,9,Ticks_ISO_T2_8,133,5,42,127,780872332
667,9,Ticks_ISO_T2_8,134,1,48,59,780887572
667,9,Ticks_ISO_T2_8,135,1,48,54,781659012
667,9,Ticks_ISO_T2_8,136,5,42,127,781671760
667,9,Ticks_ISO_T2_8,137,1,48,51,782417608
667,9,Ticks_ISO_T2_8,138,5,42,127,782471572
667,9,Ticks_ISO_T2_8,139,1,48,60,783236192
667,9,Ticks_ISO_T2_8,140,5,42,127,783272276
667,9,Ticks_ISO_T2_8,141,1,48,55,784033232
667,9,Ticks_ISO_T2_8,142,5,42,127,784072232
667,9,Ticks_ISO_T2_8,143,1,48,56,784834984
667,9,Ticks_ISO_T2_8,144,5,42,127,784871744
667,9,Ticks_ISO_T2_8,145,1,48,61,785663464
667,9,Ticks_ISO_T2_8,146,5,42,127,785671652
667,9,Ticks_ISO_T2_8,147,5,42,127,786472288
667,9,Ticks_ISO_T2_8,148,1,48,55,786526192
667,9,Ticks_ISO_T2_8,149,1,48,52,787254028
667,9,Ticks_ISO_T2_8,150,5,42,127,787272016
667,9,Ticks_ISO_T2_8,151,1,48,56,788059972
667,9,Ticks_ISO_T2_8,152,5,42,127,788071676
667,9,Ticks_ISO_T2_8,153,5,42,127,788871416
667,9,Ticks_ISO_T2_8,154,1,48,51,788881940
667,9,Ticks_ISO_T2_8,155,5,42,127,789672196
667,9,Ticks_ISO_T2_8,156,1,48,55,789696784
667,9,Ticks_ISO_T2_8,157,1,48,57,790462088
667,9,Ticks_ISO_T2_8,158,5,42,127,790471996
667,9,Ticks_ISO_T2_8,159,5,42,127,791272108
667,9,Ticks_ISO_T2_8,160,1,48,47,791281740
667,9,Ticks_ISO_T2_8,161,1,48,54,792065016
667,9,Ticks_ISO_T2_8,162,5,42,127,792071564
667,9,Ticks_ISO_T2_8,163,5,42,127,792872276
667,9,Ticks_ISO_T2_8,164,1,48,57,792898284
667,9,Ticks_ISO_T2_8,165,1,48,45,793647736
667,9,Ticks_ISO_T2_8,166,5,42,127,793671928
667,9,Ticks_ISO_T2_8,167,1,48,60,794425176
667,9,Ticks_ISO_T2_8,168,5,42,127,794471884
667,9,Ticks_ISO_T2_8,169,1,48,58,795240092
667,9,Ticks_ISO_T2_8,170,5,42,127,795271468
667,9,Ticks_ISO_T2_8,171,1,48,54,796057180
667,9,Ticks_ISO_T2_8,172,5,42,127,796072248
667,9,Ticks_ISO_T2_8,173,1,48,57,796849292
667,9,Ticks_ISO_T2_8,174,5,42,127,796872132
667,9,Ticks_ISO_T2_8,175,1,48,53,797560984
667,9,Ticks_ISO_T2_8,176,5,42,127,797671924
667,9,Ticks_ISO_T2_8,177,1,48,62,798454964
667,9,Ticks_ISO_T2_8,178,5,42,127,798471400
667,9,Ticks_ISO_T2_8,179,5,42,127,799272264
667,9,Ticks_ISO_T2_8,180,1,48,60,799291836
667,9,Ticks_ISO_T2_8,181,1,48,59,800065748
667,9,Ticks_ISO_T2_8,182,5,42,127,800071916
667,9,Ticks_ISO_T2_8,183,5,42,127,800871804
667,9,Ticks_ISO_T2_8,184,1,48,62,800917784
667,9,Ticks_ISO_T2_8,185,1,48,58,801650108
667,9,Ticks_ISO_T2_8,186,5,42,127,801671384
667,9,Ticks_ISO_T2_8,187,1,48,25,802446476
667,9,Ticks_ISO_T2_8,188,5,42,127,802472312
667,9,Ticks_ISO_T2_8,189,1,48,52,803150316
667,9,Ticks_ISO_T2_8,190,5,42,127,803272032
667,9,Ticks_ISO_T2_8,191,1,48,70,804002260
667,9,Ticks_ISO_T2_8,192,5,42,127,804071856
667,9,Ticks_ISO_T2_8,193,1,48,68,804846048
667,9,Ticks_ISO_T2_8,194,5,42,127,804871616
667,9,Ticks_ISO_T2_8,195,1,48,55,805638628
667,9,Ticks_ISO_T2_8,196,5,42,127,805672244
667,9,Ticks_ISO_T2_8,197,1,48,67,806412032
667,9,Ticks_ISO_T2_8,198,5,42,127,806471980
667,9,Ticks_ISO_T2_8,199,1,48,67,807211692
667,9,Ticks_ISO_T2_8,200,5,42,127,807271716
667,9,Ticks_ISO_T2_8,201,1,48,70,808012696
667,9,Ticks_ISO_T2_8,202,5,42,127,808071744
667,9,Ticks_ISO_T2_8,203,1,48,68,808867708
667,9,Ticks_ISO_T2_8,204,5,42,127,808872452
667,9,Ticks_ISO_T2_8,205,5,42,127,809671968
667,9,Ticks_ISO_T2_8,206,1,48,67,809699696
667,9,Ticks_ISO_T2_8,207,1,48,63,810442116
667,9,Ticks_ISO_T2_8,208,5,42,127,810471844
667,9,Ticks_ISO_T2_8,209,1,48,56,811214844
667,9,Ticks_ISO_T2_8,210,5,42,127,811271600
667,9,Ticks_ISO_T2_8,211,1,48,62,812043924
667,9,Ticks_ISO_T2_8,212,5,42,127,812072380
667,9,Ticks_ISO_T2_8,213,1,48,69,812866468
667,9,Ticks_ISO_T2_8,214,5,42,127,812871892
667,9,Ticks_ISO_T2_8,215,5,42,127,813671780
667,9,Ticks_ISO_T2_8,216,1,48,69,813688140
667,9,Ticks_ISO_T2_8,217,5,42,127,814471588
667,9,Ticks_ISO_T2_8,218,1,48,60,814475676
667,9,Ticks_ISO_T2_8,219,5,42,127,815272664
667,9,Ticks_ISO_T2_8,220,1,48,66,815298828
667,9,Ticks_ISO_T2_8,221,5,42,127,816071952
667,9,Ticks_ISO_T2_8,222,1,48,70,816094740
667,9,Ticks_ISO_T2_8,223,1,48,68,816812184
667,9,Ticks_ISO_T2_8,224,5,42,127,816871828
667,9,Ticks_ISO_T2_8,225,1,48,71,817641308
667,9,Ticks_ISO_T2_8,226,5,42,127,817671660
667,9,Ticks_ISO_T2_8,227,1,48,61,818465448
667,9,Ticks_ISO_T2_8,228,5,42,127,818472512
667,9,Ticks_ISO_T2_8,229,5,42,127,819272032
667,9,Ticks_ISO_T2_8,230,1,48,64,819307312
667,9,Ticks_ISO_T2_8,231,5,42,127,820071912
667,9,Ticks_ISO_T2_8,232,1,48,74,820074956
667,9,Ticks_ISO_T2_8,233,1,48,70,820856644
667,9,Ticks_ISO_T2_8,234,5,42,127,820871640
667,9,Ticks_ISO_T2_8,235,1,48,66,821663408
667,9,Ticks_ISO_T2_8,0,9999,9999,9999,725669968
667,9,Ticks_ISO_T2_8,1,9999,9999,9999,726469724
667,9,Ticks_ISO_T2_8,2,9999,9999,9999,727269480
667,9,Ticks_ISO_T2_8,3,9999,9999,9999,728069184
667,9,Ticks_ISO_T2_8,4,9999,9999,9999,728869984
667,9,Ticks_ISO_T2_8,5,9999,9999,9999,729669720
667,9,Ticks_ISO_T2_8,6,9999,9999,9999,730469476
667,9,Ticks_ISO_T2_8,7,9999,9999,9999,731269204
667,9,Ticks_ISO_T2_8,8,9999,9999,9999,732069984
667,9,Ticks_ISO_T2_8,9,9999,9999,9999,732869716
667,9,Ticks_ISO_T2_8,10,9999,9999,9999,733669448
667,9,Ticks_ISO_T2_8,11,9999,9999,9999,734469208
667,9,Ticks_ISO_T2_8,12,9999,9999,9999,735269988
667,9,Ticks_ISO_T2_8,13,9999,9999,9999,736069720
667,9,Ticks_ISO_T2_8,14,9999,9999,9999,736869452
667,9,Ticks_ISO_T2_8,15,9999,9999,9999,737669184
667,9,Ticks_ISO_T2_8,16,9999,9999,9999,738469964
667,9,Ticks_ISO_T2_8,17,9999,9999,9999,739269700
667,9,Ticks_ISO_T2_8,18,9999,9999,9999,740069432
667,9,Ticks_ISO_T2_8,19,9999,9999,9999,740869192
667,9,Ticks_ISO_T2_8,20,9999,9999,9999,741669976
667,9,Ticks_ISO_T2_8,21,9999,9999,9999,742469708
667,9,Ticks_ISO_T2_8,22,9999,9999,9999,743269436
667,9,Ticks_ISO_T2_8,23,9999,9999,9999,744069168
667,9,Ticks_ISO_T2_8,24,9999,9999,9999,744869948
667,9,Ticks_ISO_T2_8,25,9999,9999,9999,745669680
667,9,Ticks_ISO_T2_8,26,9999,9999,9999,746469492
667,9,Ticks_ISO_T2_8,27,9999,9999,9999,747269176
667,9,Ticks_ISO_T2_8,28,9999,9999,9999,748069960
667,9,Ticks_ISO_T2_8,29,9999,9999,9999,748869688
667,9,Ticks_ISO_T2_8,30,9999,9999,9999,749669420
667,9,Ticks_ISO_T2_8,31,9999,9999,9999,750469228
667,9,Ticks_ISO_T2_8,32,9999,9999,9999,751269936
667,9,Ticks_ISO_T2_8,33,9999,9999,9999,752069744
667,9,Ticks_ISO_T2_8,34,9999,9999,9999,752869460
667,9,Ticks_ISO_T2_8,35,9999,9999,9999,753669236
667,9,Ticks_ISO_T2_8,36,9999,9999,9999,754469940
667,9,Ticks_ISO_T2_8,37,9999,9999,9999,755269748
667,9,Ticks_ISO_T2_8,38,9999,9999,9999,756069484
667,9,Ticks_ISO_T2_8,39,9999,9999,9999,756869224
667,9,Ticks_ISO_T2_8,40,9999,9999,9999,757669996
667,9,Ticks_ISO_T2_8,41,9999,9999,9999,758469728
667,9,Ticks_ISO_T2_8,42,9999,9999,9999,759269464
667,9,Ticks_ISO_T2_8,43,9999,9999,9999,760069228
667,9,Ticks_ISO_T2_8,44,9999,9999,9999,760870000
667,9,Ticks_ISO_T2_8,45,9999,9999,9999,761669736
667,9,Ticks_ISO_T2_8,46,9999,9999,9999,762469476
667,9,Ticks_ISO_T2_8,47,9999,9999,9999,763269208
667,9,Ticks_ISO_T2_8,48,9999,9999,9999,764069984
667,9,Ticks_ISO_T2_8,49,9999,9999,9999,764869716
667,9,Ticks_ISO_T2_8,50,9999,9999,9999,765669448
667,9,Ticks_ISO_T2_8,51,9999,9999,9999,766469208
667,9,Ticks_ISO_T2_8,52,9999,9999,9999,767269988
667,9,Ticks_ISO_T2_8,53,9999,9999,9999,768069720
667,9,Ticks_ISO_T2_8,54,9999,9999,9999,768869460
667,9,Ticks_ISO_T2_8,55,9999,9999,9999,769669196
667,9,Ticks_ISO_T2_8,56,9999,9999,9999,770469968
667,9,Ticks_ISO_T2_8,57,9999,9999,9999,771269704
667,9,Ticks_ISO_T2_8,58,9999,9999,9999,772069436
667,9,Ticks_ISO_T2_8,59,9999,9999,9999,772869192
667,9,Ticks_ISO_T2_8,60,9999,9999,9999,773669972
667,9,Ticks_ISO_T2_8,61,9999,9999,9999,774469704
667,9,Ticks_ISO_T2_8,62,9999,9999,9999,775269440
667,9,Ticks_ISO_T2_8,63,9999,9999,9999,776069180
667,9,Ticks_ISO_T2_8,64,9999,9999,9999,776869960
667,9,Ticks_ISO_T2_8,65,9999,9999,9999,777669692
667,9,Ticks_ISO_T2_8,66,9999,9999,9999,778469492
667,9,Ticks_ISO_T2_8,67,9999,9999,9999,779269212
667,9,Ticks_ISO_T2_8,68,9999,9999,9999,780069936
667,9,Ticks_ISO_T2_8,69,9999,9999,9999,780869748
667,9,Ticks_ISO_T2_8,70,9999,9999,9999,781669476
667,9,Ticks_ISO_T2_8,71,9999,9999,9999,782469208
667,9,Ticks_ISO_T2_8,72,9999,9999,9999,783269988
667,9,Ticks_ISO_T2_8,73,9999,9999,9999,784069720
667,9,Ticks_ISO_T2_8,74,9999,9999,9999,784869456
667,9,Ticks_ISO_T2_8,75,9999,9999,9999,785669216
667,9,Ticks_ISO_T2_8,76,9999,9999,9999,786470000
667,9,Ticks_ISO_T2_8,77,9999,9999,9999,787269728
667,9,Ticks_ISO_T2_8,78,9999,9999,9999,788069460
667,9,Ticks_ISO_T2_8,79,9999,9999,9999,788869204
667,9,Ticks_ISO_T2_8,80,9999,9999,9999,789669980
667,9,Ticks_ISO_T2_8,81,9999,9999,9999,790469708
667,9,Ticks_ISO_T2_8,82,9999,9999,9999,791269448
667,9,Ticks_ISO_T2_8,83,9999,9999,9999,792069200
667,9,Ticks_ISO_T2_8,84,9999,9999,9999,792869988
667,9,Ticks_ISO_T2_8,85,9999,9999,9999,793669716
667,9,Ticks_ISO_T2_8,86,9999,9999,9999,794469448
667,9,Ticks_ISO_T2_8,87,9999,9999,9999,795269180
667,9,Ticks_ISO_T2_8,88,9999,9999,9999,796069960
667,9,Ticks_ISO_T2_8,89,9999,9999,9999,796869696
667,9,Ticks_ISO_T2_8,90,9999,9999,9999,797669488
667,9,Ticks_ISO_T2_8,91,9999,9999,9999,798469188
667,9,Ticks_ISO_T2_8,92,9999,9999,9999,799269976
667,9,Ticks_ISO_T2_8,93,9999,9999,9999,800069700
667,9,Ticks_ISO_T2_8,94,9999,9999,9999,800869440
667,9,Ticks_ISO_T2_8,95,9999,9999,9999,801669168
667,9,Ticks_ISO_T2_8,96,9999,9999,9999,802469948
667,9,Ticks_ISO_T2_8,97,9999,9999,9999,803269744
667,9,Ticks_ISO_T2_8,98,9999,9999,9999,804069492
667,9,Ticks_ISO_T2_8,99,9999,9999,9999,804869180
667,9,Ticks_ISO_T2_8,100,9999,9999,9999,805669960
667,9,Ticks_ISO_T2_8,101,9999,9999,9999,806469692
667,9,Ticks_ISO_T2_8,102,9999,9999,9999,807269428
667,9,Ticks_ISO_T2_8,103,9999,9999,9999,808069236
667,9,Ticks_ISO_T2_8,104,9999,9999,9999,808869940
667,9,Ticks_ISO_T2_8,105,9999,9999,9999,809669680
667,9,Ticks_ISO_T2_8,106,9999,9999,9999,810469484
667,9,Ticks_ISO_T2_8,107,9999,9999,9999,811269164
667,9,Ticks_ISO_T2_8,108,9999,9999,9999,812069944
667,9,Ticks_ISO_T2_8,109,9999,9999,9999,812869676
667,9,Ticks_ISO_T2_8,110,9999,9999,9999,813669492
667,9,Ticks_ISO_T2_8,111,9999,9999,9999,814469224
667,9,Ticks_ISO_T2_8,112,9999,9999,9999,815270004
667,9,Ticks_ISO_T2_8,113,9999,9999,9999,816069736
667,9,Ticks_ISO_T2_8,114,9999,9999,9999,816869464
667,9,Ticks_ISO_T2_8,115,9999,9999,9999,817669224
667,9,Ticks_ISO_T2_8,116,9999,9999,9999,818470004
667,9,Ticks_ISO_T2_8,117,9999,9999,9999,819269744
667,9,Ticks_ISO_T2_8,118,9999,9999,9999,820069476
667,9,Ticks_ISO_T2_8,119,9999,9999,9999,820869204
668,10,Ticks_ISO_T2_5,0,5,42,127,831424816
668,10,Ticks_ISO_T2_5,1,5,42,127,831924532
668,10,Ticks_ISO_T2_5,2,5,42,127,832425372
668,10,Ticks_ISO_T2_5,3,5,42,127,832925312
668,10,Ticks_ISO_T2_5,4,5,42,127,833424728
668,10,Ticks_ISO_T2_5,5,1,48,86,833478636
668,10,Ticks_ISO_T2_5,6,5,42,127,833924500
668,10,Ticks_ISO_T2_5,7,1,48,73,833972500
668,10,Ticks_ISO_T2_5,8,5,42,127,834425388
668,10,Ticks_ISO_T2_5,9,1,48,63,834435984
668,10,Ticks_ISO_T2_5,10,5,42,127,834924860
668,10,Ticks_ISO_T2_5,11,1,48,69,834941148
668,10,Ticks_ISO_T2_5,12,5,42,127,835424484
668,10,Ticks_ISO_T2_5,13,1,48,59,835442408
668,10,Ticks_ISO_T2_5,14,5,42,127,835925444
668,10,Ticks_ISO_T2_5,15,1,48,63,835933800
668,10,Ticks_ISO_T2_5,16,5,42,127,836425288
668,10,Ticks_ISO_T2_5,17,1,48,66,836436264
668,10,Ticks_ISO_T2_5,18,5,42,127,836924908
668,10,Ticks_ISO_T2_5,19,1,48,70,836944408
668,10,Ticks_ISO_T2_5,20,5,42,127,837424380
668,10,Ticks_ISO_T2_5,21,1,48,64,837425344
668,10,Ticks_ISO_T2_5,22,5,42,127,837925272
668,10,Ticks_ISO_T2_5,23,1,48,70,837952176
668,10,Ticks_ISO_T2_5,24,5,42,127,838425116
668,10,Ticks_ISO_T2_5,25,1,48,67,838436088
668,10,Ticks_ISO_T2_5,26,1,48,59,838915940
668,10,Ticks_ISO_T2_5,27,5,42,127,838924652
668,10,Ticks_ISO_T2_5,28,1,48,65,839405068
668,10,Ticks_ISO_T2_5,29,5,42,127,839425248
668,10,Ticks_ISO_T2_5,30,1,48,60,839906860
668,10,Ticks_ISO_T2_5,31,5,42,127,839925288
668,10,Ticks_ISO_T2_5,32,1,48,61,840399296
668,10,Ticks_ISO_T2_5,33,5,42,127,840424760
668,10,Ticks_ISO_T2_5,34,1,48,63,840911852
668,10,Ticks_ISO_T2_5,35,5,42,127,840924528
668,10,Ticks_ISO_T2_5,36,1,48,68,841416484
668,10,Ticks_ISO_T2_5,37,5,42,127,841425196
668,10,Ticks_ISO_T2_5,38,1,48,71,841890976
668,10,Ticks_ISO_T2_5,39,5,42,127,841924968
668,10,Ticks_ISO_T2_5,40,1,48,63,842396572
668,10,Ticks_ISO_T2_5,41,5,42,127,842424660
668,10,Ticks_ISO_T2_5,42,1,48,65,842896120
668,10,Ticks_ISO_T2_5,43,5,42,127,842925400
668,10,Ticks_ISO_T2_5,44,1,48,64,843393200
668,10,Ticks_ISO_T2_5,45,5,42,127,843425024
668,10,Ticks_ISO_T2_5,46,1,48,69,843890804
668,10,Ticks_ISO_T2_5,47,5,42,127,843924868
668,10,Ticks_ISO_T2_5,48,1,48,63,844400896
668,10,Ticks_ISO_T2_5,49,5,42,127,844424564
668,10,Ticks_ISO_T2_5,50,1,48,59,844874184
668,10,Ticks_ISO_T2_5,51,5,42,127,844925228
668,10,Ticks_ISO_T2_5,52,1,48,62,845375600
668,10,Ticks_ISO_T2_5,53,5,42,127,845425148
668,10,Ticks_ISO_T2_5,54,1,48,69,845891520
668,10,Ticks_ISO_T2_5,55,5,42,127,845924692
668,10,Ticks_ISO_T2_5,56,1,48,69,846402064
668,10,Ticks_ISO_T2_5,57,5,42,127,846424312
668,10,Ticks_ISO_T2_5,58,1,48,64,846888224
668,10,Ticks_ISO_T2_5,59,5,42,127,846925204
668,10,Ticks_ISO_T2_5,60,1,48,74,847399512
668,10,Ticks_ISO_T2_5,61,5,42,127,847424972
668,10,Ticks_ISO_T2_5,62,1,48,62,847910424
668,10,Ticks_ISO_T2_5,63,5,42,127,847924668
668,10,Ticks_ISO_T2_5,64,1,48,67,848392764
668,10,Ticks_ISO_T2_5,65,5,42,127,848425264
668,10,Ticks_ISO_T2_5,66,1,48,61,848907944
668,10,Ticks_ISO_T2_5,67,5,42,127,848925032
668,10,Ticks_ISO_T2_5,68,1,48,75,849419312
668,10,Ticks_ISO_T2_5,69,5,42,127,849424728
668,10,Ticks_ISO_T2_5,70,1,48,69,849919752
668,10,Ticks_ISO_T2_5,71,5,42,127,849924572
668,10,Ticks_ISO_T2_5,72,5,42,127,850425072
668,10,Ticks_ISO_T2_5,73,1,48,69,850433872
668,10,Ticks_ISO_T2_5,74,5,42,127,850924964
668,10,Ticks_ISO_T2_5,75,1,48,64,850933244
668,10,Ticks_ISO_T2_5,76,1,48,76,851412504
668,10,Ticks_ISO_T2_5,77,5,42,127,851424800
668,10,Ticks_ISO_T2_5,78,5,42,127,851925324
668,10,Ticks_ISO_T2_5,79,1,48,63,851926816
668,10,Ticks_ISO_T2_5,80,5,42,127,852425168
668,10,Ticks_ISO_T2_5,81,1,48,66,852441604
668,10,Ticks_ISO_T2_5,82,5,42,127,852924788
668,10,Ticks_ISO_T2_5,83,1,48,65,852939056
668,10,Ticks_ISO_T2_5,84,1,48,76,853420332
668,10,Ticks_ISO_T2_5,85,5,42,127,853424624
668,10,Ticks_ISO_T2_5,86,5,42,127,853925148
668,10,Ticks_ISO_T2_5,87,1,48,70,853936648
668,10,Ticks_ISO_T2_5,88,1,48,69,854416656
668,10,Ticks_ISO_T2_5,89,5,42,127,854424912
668,10,Ticks_ISO_T2_5,90,1,48,73,854918292
668,10,Ticks_ISO_T2_5,91,5,42,127,854924756
668,10,Ticks_ISO_T2_5,92,1,48,76,855408412
668,10,Ticks_ISO_T2_5,93,5,42,127,855425496
668,10,Ticks_ISO_T2_5,94,1,48,60,855909452
668,10,Ticks_ISO_T2_5,95,5,42,127,855924968
668,10,Ticks_ISO_T2_5,96,1,48,73,856378780
668,10,Ticks_ISO_T2_5,97,5,42,127,856424884
668,10,Ticks_ISO_T2_5,98,1,48,78,856923608
668,10,Ticks_ISO_T2_5,99,5,42,127,856925024
668,10,Ticks_ISO_T2_5,100,5,42,127,857425476
668,10,Ticks_ISO_T2_5,101,1,48,65,857432264
668,10,Ticks_ISO_T2_5,102,1,48,50,857914660
668,10,Ticks_ISO_T2_5,103,5,42,127,857924940
668,10,Ticks_ISO_T2_5,104,1,48,71,858419668
668,10,Ticks_ISO_T2_5,105,5,42,127,858424784
668,10,Ticks_ISO_T2_5,106,5,42,127,858925308
668,10,Ticks_ISO_T2_5,107,1,48,60,858926800
668,10,Ticks_ISO_T2_5,108,1,48,61,859421972
668,10,Ticks_ISO_T2_5,109,5,42,127,859425072
668,10,Ticks_ISO_T2_5,110,1,48,59,859924920
668,10,Ticks_ISO_T2_5,111,5,42,127,859926260
668,10,Ticks_ISO_T2_5,112,1,48,54,860419268
668,10,Ticks_ISO_T2_5,113,5,42,127,860424760
668,10,Ticks_ISO_T2_5,114,5,42,127,860925208
668,10,Ticks_ISO_T2_5,115,1,48,48,860992880
668,10,Ticks_ISO_T2_5,116,5,42,127,861424880
668,10,Ticks_ISO_T2_5,117,5,42,127,861924892
668,10,Ticks_ISO_T2_5,118,5,42,127,862424460
668,10,Ticks_ISO_T2_5,119,5,42,127,862925224
668,10,Ticks_ISO_T2_5,120,1,48,49,862978636
668,10,Ticks_ISO_T2_5,121,5,42,127,863424844
668,10,Ticks_ISO_T2_5,122,1,48,40,863502788
668,10,Ticks_ISO_T2_5,123,5,42,127,863924688
668,10,Ticks_ISO_T2_5,124,1,48,59,863938504
668,10,Ticks_ISO_T2_5,125,5,42,127,864425356
668,10,Ticks_ISO_T2_5,126,1,48,57,864899976
668,10,Ticks_ISO_T2_5,127,5,42,127,864924996
668,10,Ticks_ISO_T2_5,128,5,42,127,865424844
668,10,Ticks_ISO_T2_5,129,1,48,59,865452796
668,10,Ticks_ISO_T2_5,130,1,48,62,865895924
668,10,Ticks_ISO_T2_5,131,5,42,127,865924680
668,10,Ticks_ISO_T2_5,132,5,42,127,866425128
668,10,Ticks_ISO_T2_5,133,1,48,56,866436704
668,10,Ticks_ISO_T2_5,134,1,48,61,866915660
668,10,Ticks_ISO_T2_5,135,5,42,127,866924892
668,10,Ticks_ISO_T2_5,136,5,42,127,867424816
668,10,Ticks_ISO_T2_5,137,1,48,57,867428464
668,10,Ticks_ISO_T2_5,138,1,48,51,867917440
668,10,Ticks_ISO_T2_5,139,5,42,127,867925552
668,10,Ticks_ISO_T2_5,140,1,48,59,868411456
668,10,Ticks_ISO_T2_5,141,5,42,127,868425100
668,10,Ticks_ISO_T2_5,142,1,48,58,868912196
668,10,Ticks_ISO_T2_5,143,5,42,127,868924868
668,10,Ticks_ISO_T2_5,144,1,48,61,869407928
668,10,Ticks_ISO_T2_5,145,5,42,127,869424784
668,10,Ticks_ISO_T2_5,146,1,48,70,869905224
668,10,Ticks_ISO_T2_5,147,5,42,127,869925228
668,10,Ticks_ISO_T2_5,148,5,42,127,870424932
668,10,Ticks_ISO_T2_5,149,1,48,52,870441812
668,10,Ticks_ISO_T2_5,150,1,48,65,870922580
668,10,Ticks_ISO_T2_5,151,5,42,127,870924692
668,10,Ticks_ISO_T2_5,152,5,42,127,871425440
668,10,Ticks_ISO_T2_5,153,1,48,62,871458108
668,10,Ticks_ISO_T2_5,154,5,42,127,871925036
668,10,Ticks_ISO_T2_5,155,1,48,54,871950992
668,10,Ticks_ISO_T2_5,156,5,42,127,872424956
668,10,Ticks_ISO_T2_5,157,1,48,59,872447104
668,10,Ticks_ISO_T2_5,158,5,42,127,872924800
668,10,Ticks_ISO_T2_5,159,1,48,55,872950212
668,10,Ticks_ISO_T2_5,160,1,48,60,873421088
668,10,Ticks_ISO_T2_5,161,5,42,127,873425308
668,10,Ticks_ISO_T2_5,162,5,42,127,873924864
668,10,Ticks_ISO_T2_5,163,1,48,40,873982012
668,10,Ticks_ISO_T2_5,164,1,48,46,874417860
668,10,Ticks_ISO_T2_5,165,5,42,127,874424624
668,10,Ticks_ISO_T2_5,166,5,42,127,874925520
668,10,Ticks_ISO_T2_5,167,5,42,127,875425164
668,10,Ticks_ISO_T2_5,168,5,42,127,875924732
668,10,Ticks_ISO_T2_5,169,5,42,127,876424744
668,10,Ticks_ISO_T2_5,170,5,42,127,876925508
668,10,Ticks_ISO_T2_5,171,1,48,58,876930648
668,10,Ticks_ISO_T2_5,172,5,42,127,877424904
668,10,Ticks_ISO_T2_5,173,1,48,53,877913884
668,10,Ticks_ISO_T2_5,174,5,42,127,877924688
668,10,Ticks_ISO_T2_5,175,5,42,127,878424688
668,10,Ticks_ISO_T2_5,176,1,48,46,878429080
668,10,Ticks_ISO_T2_5,177,5,42,127,878925280
668,10,Ticks_ISO_T2_5,178,1,48,58,878947480
668,10,Ticks_ISO_T2_5,179,1,48,59,879398756
668,10,Ticks_ISO_T2_5,180,5,42,127,879424748
668,10,Ticks_ISO_T2_5,181,1,48,64,879921568
668,10,Ticks_ISO_T2_5,182,5,42,127,879924664
668,10,Ticks_ISO_T2_5,183,5,42,127,880425412
668,10,Ticks_ISO_T2_5,184,1,48,60,880427428
668,10,Ticks_ISO_T2_5,185,1,48,55,880920884
668,10,Ticks_ISO_T2_5,186,5,42,127,880925028
668,10,Ticks_ISO_T2_5,187,5,42,127,881424804
668,10,Ticks_ISO_T2_5,188,1,48,56,881441684
668,10,Ticks_ISO_T2_5,189,5,42,127,881924424
668,10,Ticks_ISO_T2_5,190,1,48,53,881938092
668,10,Ticks_ISO_T2_5,191,1,48,58,882410596
668,10,Ticks_ISO_T2_5,192,5,42,127,882425284
668,10,Ticks_ISO_T2_5,193,1,48,55,882903900
668,10,Ticks_ISO_T2_5,194,5,42,127,882924804
668,10,Ticks_ISO_T2_5,195,5,42,127,883424580
668,10,Ticks_ISO_T2_5,196,1,48,52,883431520
668,10,Ticks_ISO_T2_5,197,5,42,127,883925320
668,10,Ticks_ISO_T2_5,198,1,48,43,883947440
668,10,Ticks_ISO_T2_5,199,5,42,127,884425240
668,10,Ticks_ISO_T2_5,200,1,48,46,884458956
668,10,Ticks_ISO_T2_5,201,5,42,127,884924712
668,10,Ticks_ISO_T2_5,202,1,48,53,884939128
668,10,Ticks_ISO_T2_5,203,1,48,54,885402824
668,10,Ticks_ISO_T2_5,204,5,42,127,885424548
668,10,Ticks_ISO_T2_5,205,1,48,67,885901372
668,10,Ticks_ISO_T2_5,206,5,42,127,885925336
668,10,Ticks_ISO_T2_5,207,1,48,61,886392236
668,10,Ticks_ISO_T2_5,208,5,42,127,886425032
668,10,Ticks_ISO_T2_5,209,1,48,61,886900836
668,10,Ticks_ISO_T2_5,210,5,42,127,886924728
668,10,Ticks_ISO_T2_5,211,1,48,58,887392380
668,10,Ticks_ISO_T2_5,212,5,42,127,887425396
668,10,Ticks_ISO_T2_5,213,1,48,62,887925244
668,10,Ticks_ISO_T2_5,214,5,42,127,887926508
668,10,Ticks_ISO_T2_5,215,5,42,127,888424944
668,10,Ticks_ISO_T2_5,216,1,48,56,888454540
668,10,Ticks_ISO_T2_5,217,5,42,127,888924488
668,10,Ticks_ISO_T2_5,218,1,48,59,888940028
668,10,Ticks_ISO_T2_5,219,1,48,56,889411728
668,10,Ticks_ISO_T2_5,220,5,42,127,889425224
668,10,Ticks_ISO_T2_5,221,5,42,127,889924852
668,10,Ticks_ISO_T2_5,222,1,48,58,889936496
668,10,Ticks_ISO_T2_5,223,5,42,127,890424544
668,10,Ticks_ISO_T2_5,224,1,48,53,890458780
668,10,Ticks_ISO_T2_5,225,1,48,57,890921656
668,10,Ticks_ISO_T2_5,226,5,42,127,890925504
668,10,Ticks_ISO_T2_5,227,5,42,127,891425352
668,10,Ticks_ISO_T2_5,228,1,48,54,891441040
668,10,Ticks_ISO_T2_5,229,5,42,127,891924824
668,10,Ticks_ISO_T2_5,230,1,48,44,891960256
668,10,Ticks_ISO_T2_5,231,1,48,53,892423008
668,10,Ticks_ISO_T2_5,232,5,42,127,892424516
668,10,Ticks_ISO_T2_5,233,5,42,127,892925336
668,10,Ticks_ISO_T2_5,234,5,42,127,893425400
668,10,Ticks_ISO_T2_5,235,5,42,127,893924672
668,10,Ticks_ISO_T2_5,236,5,42,127,894424312
668,10,Ticks_ISO_T2_5,237,5,42,127,894925372
668,10,Ticks_ISO_T2_5,238,1,48,56,894964472
668,10,Ticks_ISO_T2_5,239,5,42,127,895425292
668,10,Ticks_ISO_T2_5,240,1,48,63,895428340
668,10,Ticks_ISO_T2_5,241,5,42,127,895924540
668,10,Ticks_ISO_T2_5,242,1,48,54,895996272
668,10,Ticks_ISO_T2_5,0,9999,9999,9999,831422528
668,10,Ticks_ISO_T2_5,1,9999,9999,9999,831922244
668,10,Ticks_ISO_T2_5,2,9999,9999,9999,832423008
668,10,Ticks_ISO_T2_5,3,9999,9999,9999,832922728
668,10,Ticks_ISO_T2_5,4,9999,9999,9999,833422444
668,10,Ticks_ISO_T2_5,5,9999,9999,9999,833922136
668,10,Ticks_ISO_T2_5,6,9999,9999,9999,834422880
668,10,Ticks_ISO_T2_5,7,9999,9999,9999,834922576
668,10,Ticks_ISO_T2_5,8,9999,9999,9999,835422272
668,10,Ticks_ISO_T2_5,9,9999,9999,9999,835923012
668,10,Ticks_ISO_T2_5,10,9999,9999,9999,836422704
668,10,Ticks_ISO_T2_5,11,9999,9999,9999,836922476
668,10,Ticks_ISO_T2_5,12,9999,9999,9999,837422168
668,10,Ticks_ISO_T2_5,13,9999,9999,9999,837922912
668,10,Ticks_ISO_T2_5,14,9999,9999,9999,838422604
668,10,Ticks_ISO_T2_5,15,9999,9999,9999,838922292
668,10,Ticks_ISO_T2_5,16,9999,9999,9999,839423036
668,10,Ticks_ISO_T2_5,17,9999,9999,9999,839922780
668,10,Ticks_ISO_T2_5,18,9999,9999,9999,840422476
668,10,Ticks_ISO_T2_5,19,9999,9999,9999,840922168
668,10,Ticks_ISO_T2_5,20,9999,9999,9999,841422908
668,10,Ticks_ISO_T2_5,21,9999,9999,9999,841922680
668,10,Ticks_ISO_T2_5,22,9999,9999,9999,842422372
668,10,Ticks_ISO_T2_5,23,9999,9999,9999,842923116
668,10,Ticks_ISO_T2_5,24,9999,9999,9999,843422812
668,10,Ticks_ISO_T2_5,25,9999,9999,9999,843922504
668,10,Ticks_ISO_T2_5,26,9999,9999,9999,844422200
668,10,Ticks_ISO_T2_5,27,9999,9999,9999,844922944
668,10,Ticks_ISO_T2_5,28,9999,9999,9999,845422712
668,10,Ticks_ISO_T2_5,29,9999,9999,9999,845922408
668,10,Ticks_ISO_T2_5,30,9999,9999,9999,846422100
668,10,Ticks_ISO_T2_5,31,9999,9999,9999,846922844
668,10,Ticks_ISO_T2_5,32,9999,9999,9999,847422540
668,10,Ticks_ISO_T2_5,33,9999,9999,9999,847922232
668,10,Ticks_ISO_T2_5,34,9999,9999,9999,848422976
668,10,Ticks_ISO_T2_5,35,9999,9999,9999,848922744
668,10,Ticks_ISO_T2_5,36,9999,9999,9999,849422440
668,10,Ticks_ISO_T2_5,37,9999,9999,9999,849922136
668,10,Ticks_ISO_T2_5,38,9999,9999,9999,850422860
668,10,Ticks_ISO_T2_5,39,9999,9999,9999,850922604
668,10,Ticks_ISO_T2_5,40,9999,9999,9999,851422292
668,10,Ticks_ISO_T2_5,41,9999,9999,9999,851923040
668,10,Ticks_ISO_T2_5,42,9999,9999,9999,852422732
668,10,Ticks_ISO_T2_5,43,9999,9999,9999,852922428
668,10,Ticks_ISO_T2_5,44,9999,9999,9999,853422188
668,10,Ticks_ISO_T2_5,45,9999,9999,9999,853922936
668,10,Ticks_ISO_T2_5,46,9999,9999,9999,854422624
668,10,Ticks_ISO_T2_5,47,9999,9999,9999,854922320
668,10,Ticks_ISO_T2_5,48,9999,9999,9999,855423060
668,10,Ticks_ISO_T2_5,49,9999,9999,9999,855922756
668,10,Ticks_ISO_T2_5,50,9999,9999,9999,856422448
668,10,Ticks_ISO_T2_5,51,9999,9999,9999,856922224
668,10,Ticks_ISO_T2_5,52,9999,9999,9999,857422968
668,10,Ticks_ISO_T2_5,53,9999,9999,9999,857922656
668,10,Ticks_ISO_T2_5,54,9999,9999,9999,858422348
668,10,Ticks_ISO_T2_5,55,9999,9999,9999,858923096
668,10,Ticks_ISO_T2_5,56,9999,9999,9999,859422788
668,10,Ticks_ISO_T2_5,57,9999,9999,9999,859922488
668,10,Ticks_ISO_T2_5,58,9999,9999,9999,860422248
668,10,Ticks_ISO_T2_5,59,9999,9999,9999,860922996
668,10,Ticks_ISO_T2_5,60,9999,9999,9999,861422668
668,10,Ticks_ISO_T2_5,61,9999,9999,9999,861922384
668,10,Ticks_ISO_T2_5,62,9999,9999,9999,862422100
668,10,Ticks_ISO_T2_5,63,9999,9999,9999,862922864
668,10,Ticks_ISO_T2_5,64,9999,9999,9999,863422560
668,10,Ticks_ISO_T2_5,65,9999,9999,9999,863922252
668,10,Ticks_ISO_T2_5,66,9999,9999,9999,864422996
668,10,Ticks_ISO_T2_5,67,9999,9999,9999,864922708
668,10,Ticks_ISO_T2_5,68,9999,9999,9999,865422408
668,10,Ticks_ISO_T2_5,69,9999,9999,9999,865922096
668,10,Ticks_ISO_T2_5,70,9999,9999,9999,866422844
668,10,Ticks_ISO_T2_5,71,9999,9999,9999,866922608
668,10,Ticks_ISO_T2_5,72,9999,9999,9999,867422308
668,10,Ticks_ISO_T2_5,73,9999,9999,9999,867923040
668,10,Ticks_ISO_T2_5,74,9999,9999,9999,868422736
668,10,Ticks_ISO_T2_5,75,9999,9999,9999,868922432
668,10,Ticks_ISO_T2_5,76,9999,9999,9999,869422128
668,10,Ticks_ISO_T2_5,77,9999,9999,9999,869922868
668,10,Ticks_ISO_T2_5,78,9999,9999,9999,870422644
668,10,Ticks_ISO_T2_5,79,9999,9999,9999,870922296
668,10,Ticks_ISO_T2_5,80,9999,9999,9999,871423080
668,10,Ticks_ISO_T2_5,81,9999,9999,9999,871922748
668,10,Ticks_ISO_T2_5,82,9999,9999,9999,872422520
668,10,Ticks_ISO_T2_5,83,9999,9999,9999,872922216
668,10,Ticks_ISO_T2_5,84,9999,9999,9999,873422948
668,10,Ticks_ISO_T2_5,85,9999,9999,9999,873922648
668,10,Ticks_ISO_T2_5,86,9999,9999,9999,874422336
668,10,Ticks_ISO_T2_5,87,9999,9999,9999,874923084
668,10,Ticks_ISO_T2_5,88,9999,9999,9999,875422804
668,10,Ticks_ISO_T2_5,89,9999,9999,9999,875922520
668,10,Ticks_ISO_T2_5,90,9999,9999,9999,876422236
668,10,Ticks_ISO_T2_5,91,9999,9999,9999,876923000
668,10,Ticks_ISO_T2_5,92,9999,9999,9999,877422692
668,10,Ticks_ISO_T2_5,93,9999,9999,9999,877922404
668,10,Ticks_ISO_T2_5,94,9999,9999,9999,878422104
668,10,Ticks_ISO_T2_5,95,9999,9999,9999,878922848
668,10,Ticks_ISO_T2_5,96,9999,9999,9999,879422536
668,10,Ticks_ISO_T2_5,97,9999,9999,9999,879922232
668,10,Ticks_ISO_T2_5,98,9999,9999,9999,880422976
668,10,Ticks_ISO_T2_5,99,9999,9999,9999,880922744
668,10,Ticks_ISO_T2_5,100,9999,9999,9999,881422444
668,10,Ticks_ISO_T2_5,101,9999,9999,9999,881922140
668,10,Ticks_ISO_T2_5,102,9999,9999,9999,882422848
668,10,Ticks_ISO_T2_5,103,9999,9999,9999,882922592
668,10,Ticks_ISO_T2_5,104,9999,9999,9999,883422296
668,10,Ticks_ISO_T2_5,105,9999,9999,9999,883923036
668,10,Ticks_ISO_T2_5,106,9999,9999,9999,884422728
668,10,Ticks_ISO_T2_5,107,9999,9999,9999,884922424
668,10,Ticks_ISO_T2_5,108,9999,9999,9999,885422188
668,10,Ticks_ISO_T2_5,109,9999,9999,9999,885922904
668,10,Ticks_ISO_T2_5,110,9999,9999,9999,886422596
668,10,Ticks_ISO_T2_5,111,9999,9999,9999,886922292
668,10,Ticks_ISO_T2_5,112,9999,9999,9999,887423036
668,10,Ticks_ISO_T2_5,113,9999,9999,9999,887922808
668,10,Ticks_ISO_T2_5,114,9999,9999,9999,888422508
668,10,Ticks_ISO_T2_5,115,9999,9999,9999,888922204
668,10,Ticks_ISO_T2_5,116,9999,9999,9999,889422936
668,10,Ticks_ISO_T2_5,117,9999,9999,9999,889922640
668,10,Ticks_ISO_T2_5,118,9999,9999,9999,890422332
668,10,Ticks_ISO_T2_5,119,9999,9999,9999,890923068
668,10,Ticks_ISO_T2_5,120,9999,9999,9999,891422768
668,10,Ticks_ISO_T2_5,121,9999,9999,9999,891922536
668,10,Ticks_ISO_T2_5,122,9999,9999,9999,892422236
668,10,Ticks_ISO_T2_5,123,9999,9999,9999,892922976
668,10,Ticks_ISO_T2_5,124,9999,9999,9999,893422668
668,10,Ticks_ISO_T2_5,125,9999,9999,9999,893922384
668,10,Ticks_ISO_T2_5,126,9999,9999,9999,894422100
668,10,Ticks_ISO_T2_5,127,9999,9999,9999,894922864
668,10,Ticks_ISO_T2_5,128,9999,9999,9999,895422560
668,10,Ticks_ISO_T2_5,129,9999,9999,9999,895922252
669,25,Jits_Pract_5,0,5,56,103,947510596
669,25,Jits_Pract_5,1,5,63,98,947513692
669,25,Jits_Pract_5,2,5,80,127,947517040
669,25,Jits_Pract_5,0,5,56,103,948011328
669,25,Jits_Pract_5,1,5,63,98,948014424
669,25,Jits_Pract_5,2,5,80,127,948017624
669,25,Jits_Pract_5,0,5,56,103,948511104
669,25,Jits_Pract_5,1,5,80,127,948521300
669,25,Jits_Pract_5,2,5,63,98,948540860
669,25,Jits_Pract_5,0,5,63,98,948960588
669,25,Jits_Pract_5,1,5,80,127,948991264
669,25,Jits_Pract_5,2,5,56,103,949000488
669,25,Jits_Pract_5,0,5,80,127,949520688
669,25,Jits_Pract_5,1,5,56,103,949531108
669,25,Jits_Pract_5,2,5,63,98,949560560
669,25,Jits_Pract_5,0,5,63,98,950011180
669,25,Jits_Pract_5,1,5,56,103,950041004
669,25,Jits_Pract_5,2,5,80,127,950051200
669,25,Jits_Pract_5,0,5,56,103,950460944
669,25,Jits_Pract_5,1,5,63,98,950511148
669,25,Jits_Pract_5,2,5,80,127,950530508
669,25,Jits_Pract_5,0,5,80,127,950960348
669,25,Jits_Pract_5,1,5,63,98,951010624
669,25,Jits_Pract_5,2,5,56,103,951050664
669,25,Jits_Pract_5,0,5,56,103,951461248
669,25,Jits_Pract_5,1,5,63,98,951491220
669,25,Jits_Pract_5,2,5,80,127,951560628
669,25,Jits_Pract_5,0,5,56,103,951960952
669,25,Jits_Pract_5,1,5,80,127,952021340
669,25,Jits_Pract_5,2,5,63,98,952051164
669,25,Jits_Pract_5,0,5,56,103,952470996
669,25,Jits_Pract_5,1,5,63,98,952481192
669,25,Jits_Pract_5,2,5,80,127,952520980
669,25,Jits_Pract_5,0,5,63,98,952961332
669,25,Jits_Pract_5,1,5,80,127,953041352
669,25,Jits_Pract_5,2,5,56,103,953050428
669,25,Jits_Pract_5,0,5,63,98,953520512
669,25,Jits_Pract_5,1,5,56,103,953560372
669,25,Jits_Pract_5,2,5,80,127,953563292
669,25,Jits_Pract_5,0,5,56,103,953981236
669,25,Jits_Pract_5,1,5,63,98,953990460
669,25,Jits_Pract_5,2,5,80,127,954030544
669,25,Jits_Pract_5,0,5,56,103,954470820
669,25,Jits_Pract_5,1,5,63,98,954473964
669,25,Jits_Pract_5,2,5,80,127,954491132
669,25,Jits_Pract_5,0,9999,9999,9999,947758180
669,25,Jits_Pract_5,1,9999,9999,9999,948258916
669,25,Jits_Pract_5,2,9999,9999,9999,948758620
669,25,Jits_Pract_5,3,9999,9999,9999,949258320
669,25,Jits_Pract_5,4,9999,9999,9999,949759064
669,25,Jits_Pract_5,5,9999,9999,9999,950258744
669,25,Jits_Pract_5,6,9999,9999,9999,950758504
669,25,Jits_Pract_5,7,9999,9999,9999,951258208
669,25,Jits_Pract_5,8,9999,9999,9999,951758956
669,25,Jits_Pract_5,9,9999,9999,9999,952258660
669,25,Jits_Pract_5,10,9999,9999,9999,952758364
669,25,Jits_Pract_5,11,9999,9999,9999,953259120
669,25,Jits_Pract_5,12,9999,9999,9999,953769064
669,25,Jits_Pract_5,13,9999,9999,9999,954268752
669,25,Jits_Pract_5,14,9999,9999,9999,954768448
6610,24,Jits_Pract_8,0,5,56,103,994940364
6610,24,Jits_Pract_8,1,5,63,98,994943384
6610,24,Jits_Pract_8,2,5,80,127,994946508
6610,24,Jits_Pract_8,0,5,56,103,995740156
6610,24,Jits_Pract_8,1,5,63,98,995743332
6610,24,Jits_Pract_8,2,5,80,127,995746448
6610,24,Jits_Pract_8,0,5,80,127,996480404
6610,24,Jits_Pract_8,1,5,63,98,996569416
6610,24,Jits_Pract_8,2,5,56,103,996579612
6610,24,Jits_Pract_8,0,5,56,103,997299616
6610,24,Jits_Pract_8,1,5,63,98,997309888
6610,24,Jits_Pract_8,2,5,80,127,997399820
6610,24,Jits_Pract_8,0,5,63,98,998069612
6610,24,Jits_Pract_8,1,5,80,127,998100260
6610,24,Jits_Pract_8,2,5,56,103,998130304
6610,24,Jits_Pract_8,3,1,48,43,998176968
6610,24,Jits_Pract_8,0,1,48,58,998836792
6610,24,Jits_Pract_8,1,5,56,103,998870244
6610,24,Jits_Pract_8,2,5,80,127,998969752
6610,24,Jits_Pract_8,3,5,63,98,999020028
6610,24,Jits_Pract_8,0,5,56,103,999670100
6610,24,Jits_Pract_8,1,5,80,127,999720376
6610,24,Jits_Pract_8,2,5,63,98,999760240
6610,24,Jits_Pract_8,3,1,48,57,999773396
6610,24,Jits_Pract_8,0,1,48,51,1000488024
6610,24,Jits_Pract_8,1,5,80,127,1000499672
6610,24,Jits_Pract_8,2,5,63,98,1000530248
6610,24,Jits_Pract_8,3,5,56,103,1000600060
6610,24,Jits_Pract_8,0,5,63,98,1001330220
6610,24,Jits_Pract_8,1,1,48,52,1001351324
6610,24,Jits_Pract_8,2,5,56,103,1001359592
6610,24,Jits_Pract_8,3,5,80,127,1001420128
6610,24,Jits_Pract_8,0,5,56,103,1002070492
6610,24,Jits_Pract_8,1,5,80,127,1002073408
6610,24,Jits_Pract_8,2,1,48,59,1002142460
6610,24,Jits_Pract_8,3,5,63,98,1002190132
6610,24,Jits_Pract_8,0,1,48,51,1002841300
6610,24,Jits_Pract_8,1,5,56,103,1002950172
6610,24,Jits_Pract_8,2,5,80,127,1002990112
6610,24,Jits_Pract_8,3,5,63,98,1003000108
6610,24,Jits_Pract_8,0,1,48,54,1003655664
6610,24,Jits_Pract_8,1,5,56,103,1003710164
6610,24,Jits_Pract_8,2,5,80,127,1003730252
6610,24,Jits_Pract_8,3,5,63,98,1003810204
6610,24,Jits_Pract_8,0,5,80,127,1004500264
6610,24,Jits_Pract_8,1,1,48,54,1004518676
6610,24,Jits_Pract_8,2,5,56,103,1004599860
6610,24,Jits_Pract_8,3,5,63,98,1004609980
6610,24,Jits_Pract_8,0,5,63,98,1005270300
6610,24,Jits_Pract_8,1,5,80,127,1005330040
6610,24,Jits_Pract_8,2,1,48,54,1005333304
6610,24,Jits_Pract_8,3,5,56,103,1005340080
6610,24,Jits_Pract_8,0,5,56,103,1006070076
6610,24,Jits_Pract_8,1,1,48,48,1006091100
6610,24,Jits_Pract_8,2,5,63,98,1006140048
6610,24,Jits_Pract_8,3,5,80,127,1006143336
6610,24,Jits_Pract_8,0,9999,9999,9999,995337276
6610,24,Jits_Pract_8,1,9999,9999,9999,996138040
6610,24,Jits_Pract_8,2,9999,9999,9999,996937780
6610,24,Jits_Pract_8,3,9999,9999,9999,997737588
6610,24,Jits_Pract_8,4,9999,9999,9999,998537296
6610,24,Jits_Pract_8,5,9999,9999,9999,999338092
6610,24,Jits_Pract_8,6,9999,9999,9999,1000137836
6610,24,Jits_Pract_8,7,9999,9999,9999,1000937528
6610,24,Jits_Pract_8,8,9999,9999,9999,1001737308
6610,24,Jits_Pract_8,9,9999,9999,9999,1002538096
6610,24,Jits_Pract_8,10,9999,9999,9999,1003337800
6610,24,Jits_Pract_8,11,9999,9999,9999,1004137556
6610,24,Jits_Pract_8,12,9999,9999,9999,1004937320
6610,24,Jits_Pract_8,13,9999,9999,9999,1005738060
6610,24,Jits_Pract_8,14,9999,9999,9999,1006537804
6611,25,Jits_Pract_5,0,5,56,103,1012433200
6611,25,Jits_Pract_5,1,5,63,98,1012436296
6611,25,Jits_Pract_5,2,5,80,127,1012439644
6611,25,Jits_Pract_5,0,5,56,103,1012932928
6611,25,Jits_Pract_5,1,5,63,98,1012936096
6611,25,Jits_Pract_5,2,5,80,127,1012939220
6611,25,Jits_Pract_5,0,5,56,103,1013432816
6611,25,Jits_Pract_5,1,5,80,127,1013443012
6611,25,Jits_Pract_5,2,5,63,98,1013463620
6611,25,Jits_Pract_5,3,1,48,24,1013466296
6611,25,Jits_Pract_5,0,5,63,98,1013883152
6611,25,Jits_Pract_5,1,5,80,127,1013912900
6611,25,Jits_Pract_5,2,5,56,103,1013923096
6611,25,Jits_Pract_5,3,1,48,41,1013934008
6611,25,Jits_Pract_5,0,1,48,46,1014379872
6611,25,Jits_Pract_5,1,5,80,127,1014443440
6611,25,Jits_Pract_5,2,5,56,103,1014452668
6611,25,Jits_Pract_5,3,5,63,98,1014483300
6611,25,Jits_Pract_5,0,5,63,98,1014932732
6611,25,Jits_Pract_5,1,1,48,46,1014958996
6611,25,Jits_Pract_5,2,5,56,103,1014962476
6611,25,Jits_Pract_5,3,5,80,127,1014972972
6611,25,Jits_Pract_5,0,5,56,103,1015383352
6611,25,Jits_Pract_5,1,5,63,98,1015432660
6611,25,Jits_Pract_5,2,5,80,127,1015452968
6611,25,Jits_Pract_5,3,1,48,46,1015496608
6611,25,Jits_Pract_5,0,5,80,127,1015883056
6611,25,Jits_Pract_5,1,5,63,98,1015933188
6611,25,Jits_Pract_5,2,1,48,56,1015950480
6611,25,Jits_Pract_5,3,5,56,103,1015973192
6611,25,Jits_Pract_5,0,5,56,103,1016382692
6611,25,Jits_Pract_5,1,5,63,98,1016412740
6611,25,Jits_Pract_5,2,1,48,54,1016480428
6611,25,Jits_Pract_5,3,5,80,127,1016483088
6611,25,Jits_Pract_5,0,5,56,103,1016882620
6611,25,Jits_Pract_5,1,1,48,56,1016911668
6611,25,Jits_Pract_5,2,5,80,127,1016942856
6611,25,Jits_Pract_5,3,5,63,98,1016972904
6611,25,Jits_Pract_5,0,5,56,103,1017392664
6611,25,Jits_Pract_5,1,5,63,98,1017402712
6611,25,Jits_Pract_5,2,1,48,49,1017437520
6611,25,Jits_Pract_5,3,5,80,127,1017442868
6611,25,Jits_Pract_5,0,5,63,98,1017882928
6611,25,Jits_Pract_5,1,1,48,54,1017891076
6611,25,Jits_Pract_5,2,5,80,127,1017962868
6611,25,Jits_Pract_5,3,5,56,103,1017973212
6611,25,Jits_Pract_5,0,5,63,98,1018432816
6611,25,Jits_Pract_5,1,1,48,48,1018465680
6611,25,Jits_Pract_5,2,5,56,103,1018472824
6611,25,Jits_Pract_5,3,5,80,127,1018475816
6611,25,Jits_Pract_5,0,5,56,103,1018892868
6611,25,Jits_Pract_5,1,5,63,98,1018902840
6611,25,Jits_Pract_5,2,5,80,127,1018942704
6611,25,Jits_Pract_5,3,1,48,51,1018966128
6611,25,Jits_Pract_5,0,5,56,103,1019383128
6611,25,Jits_Pract_5,1,5,63,98,1019386120
6611,25,Jits_Pract_5,2,5,80,127,1019402836
6611,25,Jits_Pract_5,3,1,48,44,1019419064
6611,25,Jits_Pract_5,0,9999,9999,9999,1012680788
6611,25,Jits_Pract_5,1,9999,9999,9999,1013180512
6611,25,Jits_Pract_5,2,9999,9999,9999,1013680236
6611,25,Jits_Pract_5,3,9999,9999,9999,1014180984
6611,25,Jits_Pract_5,4,9999,9999,9999,1014680680
6611,25,Jits_Pract_5,5,9999,9999,9999,1015180376
6611,25,Jits_Pract_5,6,9999,9999,9999,1015680068
6611,25,Jits_Pract_5,7,9999,9999,9999,1016180824
6611,25,Jits_Pract_5,8,9999,9999,9999,1016680528
6611,25,Jits_Pract_5,9,9999,9999,9999,1017180236
6611,25,Jits_Pract_5,10,9999,9999,9999,1017680988
6611,25,Jits_Pract_5,11,9999,9999,9999,1018180692
6611,25,Jits_Pract_5,12,9999,9999,9999,1018680380
6611,25,Jits_Pract_5,13,9999,9999,9999,1019180140
6611,25,Jits_Pract_5,14,9999,9999,9999,1019680880
6612,15,Jits_Phase_8,0,5,56,103,1046829532
6612,15,Jits_Phase_8,1,5,63,98,1046832408
6612,15,Jits_Phase_8,2,5,80,127,1046835604
6612,15,Jits_Phase_8,0,5,56,103,1047630296
6612,15,Jits_Phase_8,1,5,63,98,1047633320
6612,15,Jits_Phase_8,2,5,80,127,1047636592
6612,15,Jits_Phase_8,0,5,80,127,1048369572
6612,15,Jits_Phase_8,1,5,63,98,1048459560
6612,15,Jits_Phase_8,2,5,56,103,1048469752
6612,15,Jits_Phase_8,3,1,48,42,1048525156
6612,15,Jits_Phase_8,0,5,56,103,1049189872
6612,15,Jits_Phase_8,1,5,63,98,1049200068
6612,15,Jits_Phase_8,2,1,48,45,1049214868
6612,15,Jits_Phase_8,3,5,80,127,1049290264
6612,15,Jits_Phase_8,0,5,63,98,1049959824
6612,15,Jits_Phase_8,1,5,80,127,1049989352
6612,15,Jits_Phase_8,2,5,56,103,1050020148
6612,15,Jits_Phase_8,3,1,48,46,1050037956
6612,15,Jits_Phase_8,0,1,48,52,1050750776
6612,15,Jits_Phase_8,1,5,56,103,1050759492
6612,15,Jits_Phase_8,2,5,80,127,1050860172
6612,15,Jits_Phase_8,3,5,63,98,1050910248
6612,15,Jits_Phase_8,0,5,56,103,1051560232
6612,15,Jits_Phase_8,1,5,80,127,1051609464
6612,15,Jits_Phase_8,2,1,48,41,1051615276
6612,15,Jits_Phase_8,3,5,63,98,1051650464
6612,15,Jits_Phase_8,0,1,48,53,1052388072
6612,15,Jits_Phase_8,1,5,80,127,1052389884
6612,15,Jits_Phase_8,2,5,63,98,1052419436
6612,15,Jits_Phase_8,3,5,56,103,1052490148
6612,15,Jits_Phase_8,0,5,63,98,1053220092
6612,15,Jits_Phase_8,1,1,48,48,1053222032
6612,15,Jits_Phase_8,2,5,56,103,1053249984
6612,15,Jits_Phase_8,3,5,80,127,1053310296
6612,15,Jits_Phase_8,0,5,56,103,1053959464
6612,15,Jits_Phase_8,1,5,80,127,1053962456
6612,15,Jits_Phase_8,2,1,48,61,1054020192
6612,15,Jits_Phase_8,3,5,63,98,1054080228
6612,15,Jits_Phase_8,0,1,48,49,1054798824
6612,15,Jits_Phase_8,1,5,56,103,1054840204
6612,15,Jits_Phase_8,2,5,80,127,1054880216
6612,15,Jits_Phase_8,3,5,63,98,1054890488
6612,15,Jits_Phase_8,0,5,56,103,1055599964
6612,15,Jits_Phase_8,1,1,48,59,1055619528
6612,15,Jits_Phase_8,2,5,80,127,1055620940
6612,15,Jits_Phase_8,3,5,63,98,1055700284
6612,15,Jits_Phase_8,0,1,48,48,1056355496
6612,15,Jits_Phase_8,1,5,80,127,1056389540
6612,15,Jits_Phase_8,2,5,56,103,1056490000
6612,15,Jits_Phase_8,3,5,63,98,1056500220
6612,15,Jits_Phase_8,4,1,48,16,1056505432
6612,15,Jits_Phase_8,0,5,63,98,1057159448
6612,15,Jits_Phase_8,1,5,80,127,1057220064
6612,15,Jits_Phase_8,2,5,56,103,1057230108
6612,15,Jits_Phase_8,3,1,48,55,1057256068
6612,15,Jits_Phase_8,0,5,56,103,1057960248
6612,15,Jits_Phase_8,1,1,48,45,1057999480
6612,15,Jits_Phase_8,2,5,63,98,1058029920
6612,15,Jits_Phase_8,3,5,80,127,1058033208
6612,15,Jits_Phase_8,0,1,48,58,1058760244
6612,15,Jits_Phase_8,1,5,63,98,1058789940
6612,15,Jits_Phase_8,2,5,56,103,1058840088
6612,15,Jits_Phase_8,3,5,80,127,1058843084
6612,15,Jits_Phase_8,0,5,56,103,1059549536
6612,15,Jits_Phase_8,1,5,80,127,1059552748
6612,15,Jits_Phase_8,2,1,48,53,1059609316
6612,15,Jits_Phase_8,3,5,63,98,1059639532
6612,15,Jits_Phase_8,0,1,48,58,1060373104
6612,15,Jits_Phase_8,1,5,63,98,1060390216
6612,15,Jits_Phase_8,2,5,56,103,1060480412
6612,15,Jits_Phase_8,3,5,80,127,1060510160
6612,15,Jits_Phase_8,0,5,56,103,1061179944
6612,15,Jits_Phase_8,1,1,48,52,1061228172
6612,15,Jits_Phase_8,2,5,63,98,1061280260
6612,15,Jits_Phase_8,3,5,80,127,1061310080
6612,15,Jits_Phase_8,0,5,63,98,1062000100
6612,15,Jits_Phase_8,1,1,48,59,1062008028
6612,15,Jits_Phase_8,2,5,56,103,1062010140
6612,15,Jits_Phase_8,3,5,80,127,1062100420
6612,15,Jits_Phase_8,0,1,48,53,1062762960
6612,15,Jits_Phase_8,1,5,63,98,1062820156
6612,15,Jits_Phase_8,2,5,56,103,1062900036
6612,15,Jits_Phase_8,3,5,80,127,1062903028
6612,15,Jits_Phase_8,0,5,80,127,1063580056
6612,15,Jits_Phase_8,1,1,48,59,1063588576
6612,15,Jits_Phase_8,2,5,63,98,1063599612
6612,15,Jits_Phase_8,3,5,56,103,1063659852
6612,15,Jits_Phase_8,0,1,48,58,1064351924
6612,15,Jits_Phase_8,1,5,56,103,1064419828
6612,15,Jits_Phase_8,2,5,63,98,1064440236
6612,15,Jits_Phase_8,3,5,80,127,1064444336
6612,15,Jits_Phase_8,0,5,63,98,1065160092
6612,15,Jits_Phase_8,1,1,48,54,1065163584
6612,15,Jits_Phase_8,2,5,80,127,1065240056
6612,15,Jits_Phase_8,3,5,56,103,1065250252
6612,15,Jits_Phase_8,0,5,63,98,1065980248
6612,15,Jits_Phase_8,1,1,48,50,1065994828
6612,15,Jits_Phase_8,2,5,56,103,1066000028
6612,15,Jits_Phase_8,3,5,80,127,1066049928
6612,15,Jits_Phase_8,0,5,80,127,1066780000
6612,15,Jits_Phase_8,1,1,48,62,1066783716
6612,15,Jits_Phase_8,2,5,63,98,1066819932
6612,15,Jits_Phase_8,3,5,56,103,1066840392
6612,15,Jits_Phase_8,0,1,48,59,1067577252
6612,15,Jits_Phase_8,1,5,56,103,1067619772
6612,15,Jits_Phase_8,2,5,63,98,1067630116
6612,15,Jits_Phase_8,3,5,80,127,1067650428
6612,15,Jits_Phase_8,0,1,48,59,1068350080
6612,15,Jits_Phase_8,1,5,56,103,1068351416
6612,15,Jits_Phase_8,2,5,63,98,1068439912
6612,15,Jits_Phase_8,3,5,80,127,1068500284
6612,15,Jits_Phase_8,0,1,48,68,1069159776
6612,15,Jits_Phase_8,1,5,80,127,1069180324
6612,15,Jits_Phase_8,2,5,56,103,1069189848
6612,15,Jits_Phase_8,3,5,63,98,1069260112
6612,15,Jits_Phase_8,0,1,48,67,1069988376
6612,15,Jits_Phase_8,1,5,63,98,1070010048
6612,15,Jits_Phase_8,2,5,80,127,1070099820
6612,15,Jits_Phase_8,3,5,56,103,1070110164
6612,15,Jits_Phase_8,0,5,63,98,1070739768
6612,15,Jits_Phase_8,1,5,80,127,1070790120
6612,15,Jits_Phase_8,2,1,48,60,1070800064
6612,15,Jits_Phase_8,3,5,56,103,1070850528
6612,15,Jits_Phase_8,0,1,48,63,1071554540
6612,15,Jits_Phase_8,1,5,56,103,1071560044
6612,15,Jits_Phase_8,2,5,80,127,1071610348
6612,15,Jits_Phase_8,3,5,63,98,1071629832
6612,15,Jits_Phase_8,0,5,56,103,1072330064
6612,15,Jits_Phase_8,1,1,48,60,1072353708
6612,15,Jits_Phase_8,2,5,80,127,1072389352
6612,15,Jits_Phase_8,3,5,63,98,1072460136
6612,15,Jits_Phase_8,0,5,56,103,1073129832
6612,15,Jits_Phase_8,1,1,48,64,1073132424
6612,15,Jits_Phase_8,2,5,80,127,1073159748
6612,15,Jits_Phase_8,3,5,63,98,1073190324
6612,15,Jits_Phase_8,0,1,48,67,1073932208
6612,15,Jits_Phase_8,1,5,56,103,1073969476
6612,15,Jits_Phase_8,2,5,80,127,1073990084
6612,15,Jits_Phase_8,3,5,63,98,1074050460
6612,15,Jits_Phase_8,0,1,48,71,1074752116
6612,15,Jits_Phase_8,1,5,80,127,1074850128
6612,15,Jits_Phase_8,2,5,56,103,1074860400
6612,15,Jits_Phase_8,3,5,63,98,1074869548
6612,15,Jits_Phase_8,0,5,56,103,1075609908
6612,15,Jits_Phase_8,1,1,48,71,1075618204
6612,15,Jits_Phase_8,2,5,80,127,1075649840
6612,15,Jits_Phase_8,3,5,63,98,1075679664
6612,15,Jits_Phase_8,0,5,56,103,1076380012
6612,15,Jits_Phase_8,1,5,63,98,1076409688
6612,15,Jits_Phase_8,2,5,80,127,1076449848
6612,15,Jits_Phase_8,3,1,48,71,1076453940
6612,15,Jits_Phase_8,0,5,80,127,1077129660
6612,15,Jits_Phase_8,1,5,63,98,1077179712
6612,15,Jits_Phase_8,2,5,56,103,1077200172
6612,15,Jits_Phase_8,3,1,48,54,1077230336
6612,15,Jits_Phase_8,0,5,56,103,1077959916
6612,15,Jits_Phase_8,1,1,48,63,1078002096
6612,15,Jits_Phase_8,2,5,80,127,1078029912
6612,15,Jits_Phase_8,3,5,63,98,1078090004
6612,15,Jits_Phase_8,0,5,80,127,1078759692
6612,15,Jits_Phase_8,1,1,48,54,1078781712
6612,15,Jits_Phase_8,2,5,63,98,1078849844
6612,15,Jits_Phase_8,3,5,56,103,1078870676
6612,15,Jits_Phase_8,0,1,48,65,1079549496
6612,15,Jits_Phase_8,1,5,63,98,1079580012
6612,15,Jits_Phase_8,2,5,56,103,1079599648
6612,15,Jits_Phase_8,3,5,80,127,1079640556
6612,15,Jits_Phase_8,0,5,80,127,1080339768
6612,15,Jits_Phase_8,1,1,48,67,1080353448
6612,15,Jits_Phase_8,2,5,63,98,1080360444
6612,15,Jits_Phase_8,3,5,56,103,1080440088
6612,15,Jits_Phase_8,0,5,63,98,1081130460
6612,15,Jits_Phase_8,1,1,48,68,1081174704
6612,15,Jits_Phase_8,2,5,56,103,1081239916
6612,15,Jits_Phase_8,3,5,80,127,1081242908
6612,15,Jits_Phase_8,0,5,63,98,1081949764
6612,15,Jits_Phase_8,1,5,56,103,1081959732
6612,15,Jits_Phase_8,2,5,80,127,1081962948
6612,15,Jits_Phase_8,3,1,48,62,1081969300
6612,15,Jits_Phase_8,0,5,56,103,1082729800
6612,15,Jits_Phase_8,1,1,48,57,1082774044
6612,15,Jits_Phase_8,2,5,80,127,1082849744
6612,15,Jits_Phase_8,3,5,63,98,1082889540
6612,15,Jits_Phase_8,0,5,56,103,1083550024
6612,15,Jits_Phase_8,1,1,48,66,1083608740
6612,15,Jits_Phase_8,2,5,80,127,1083630036
6612,15,Jits_Phase_8,3,5,63,98,1083650448
6612,15,Jits_Phase_8,0,5,56,103,1084349944
6612,15,Jits_Phase_8,1,1,48,62,1084456396
6612,15,Jits_Phase_8,2,5,63,98,1084460476
6612,15,Jits_Phase_8,3,5,80,127,1084463764
6612,15,Jits_Phase_8,0,5,56,103,1085189520
6612,15,Jits_Phase_8,1,5,80,127,1085220320
6612,15,Jits_Phase_8,2,1,48,59,1085223808
6612,15,Jits_Phase_8,3,5,63,98,1085239648
6612,15,Jits_Phase_8,0,5,63,98,1085980152
6612,15,Jits_Phase_8,1,5,56,103,1085990272
6612,15,Jits_Phase_8,2,5,80,127,1085999568
6612,15,Jits_Phase_8,3,1,48,61,1086041348
6612,15,Jits_Phase_8,0,5,80,127,1086769488
6612,15,Jits_Phase_8,1,1,48,59,1086820140
6612,15,Jits_Phase_8,2,5,56,103,1086821408
6612,15,Jits_Phase_8,3,5,63,98,1086859772
6612,15,Jits_Phase_8,0,5,80,127,1087589712
6612,15,Jits_Phase_8,1,5,63,98,1087610320
6612,15,Jits_Phase_8,2,1,48,63,1087628956
6612,15,Jits_Phase_8,3,5,56,103,1087660516
6612,15,Jits_Phase_8,0,5,80,127,1088399672
6612,15,Jits_Phase_8,1,1,48,64,1088402340
6612,15,Jits_Phase_8,2,5,56,103,1088429568
6612,15,Jits_Phase_8,3,5,63,98,1088500080
6612,15,Jits_Phase_8,0,1,48,68,1089237688
6612,15,Jits_Phase_8,1,5,56,103,1089249640
6612,15,Jits_Phase_8,2,5,80,127,1089259760
6612,15,Jits_Phase_8,3,5,63,98,1089299796
6612,15,Jits_Phase_8,0,5,56,103,1089960324
6612,15,Jits_Phase_8,1,5,63,98,1089979736
6612,15,Jits_Phase_8,2,5,80,127,1090050412
6612,15,Jits_Phase_8,3,1,48,30,1090158940
6612,15,Jits_Phase_8,0,5,63,98,1090779568
6612,15,Jits_Phase_8,1,5,80,127,1090839984
6612,15,Jits_Phase_8,2,5,56,103,1090860516
6612,15,Jits_Phase_8,3,1,48,59,1090908964
6612,15,Jits_Phase_8,0,5,80,127,1091570060
6612,15,Jits_Phase_8,1,5,56,103,1091599660
6612,15,Jits_Phase_8,2,5,63,98,1091629484
6612,15,Jits_Phase_8,3,1,48,65,1091639948
6612,15,Jits_Phase_8,0,5,56,103,1092369824
6612,15,Jits_Phase_8,1,1,48,54,1092414444
6612,15,Jits_Phase_8,2,5,63,98,1092430136
6612,15,Jits_Phase_8,3,5,80,127,1092489556
6612,15,Jits_Phase_8,0,5,80,127,1093190052
6612,15,Jits_Phase_8,1,1,48,42,1093208336
6612,15,Jits_Phase_8,2,5,56,103,1093209904
6612,15,Jits_Phase_8,3,5,63,98,1093280184
6612,15,Jits_Phase_8,0,5,80,127,1093989824
6612,15,Jits_Phase_8,1,5,63,98,1094010508
6612,15,Jits_Phase_8,2,5,56,103,1094039884
6612,15,Jits_Phase_8,3,1,48,59,1094053044
6612,15,Jits_Phase_8,0,5,80,127,1094780304
6612,15,Jits_Phase_8,1,5,63,98,1094799864
6612,15,Jits_Phase_8,2,1,48,68,1094857984
6612,15,Jits_Phase_8,3,5,56,103,1094860100
6612,15,Jits_Phase_8,0,5,80,127,1095579924
6612,15,Jits_Phase_8,1,1,48,48,1095624848
6612,15,Jits_Phase_8,2,5,56,103,1095680340
6612,15,Jits_Phase_8,3,5,63,98,1095709940
6612,15,Jits_Phase_8,0,5,63,98,1096369512
6612,15,Jits_Phase_8,1,5,80,127,1096419788
6612,15,Jits_Phase_8,2,1,48,49,1096430500
6612,15,Jits_Phase_8,3,5,56,103,1096440116
6612,15,Jits_Phase_8,4,1,48,26,1096825964
6612,15,Jits_Phase_8,0,5,80,127,1097210376
6612,15,Jits_Phase_8,1,1,48,67,1097225704
6612,15,Jits_Phase_8,2,5,56,103,1097239972
6612,15,Jits_Phase_8,3,5,63,98,1097242964
6612,15,Jits_Phase_8,0,1,48,67,1098037916
6612,15,Jits_Phase_8,1,5,63,98,1098060188
6612,15,Jits_Phase_8,2,5,56,103,1098100052
6612,15,Jits_Phase_8,3,5,80,127,1098119612
6612,15,Jits_Phase_8,0,5,80,127,1098819864
6612,15,Jits_Phase_8,1,1,48,61,1098891612
6612,15,Jits_Phase_8,2,5,63,98,1098899804
6612,15,Jits_Phase_8,3,5,56,103,1098939816
6612,15,Jits_Phase_8,0,5,63,98,1099640612
6612,15,Jits_Phase_8,1,5,80,127,1099720260
6612,15,Jits_Phase_8,2,5,56,103,1099739448
6612,15,Jits_Phase_8,3,1,48,65,1099742040
6612,15,Jits_Phase_8,0,5,56,103,1100479788
6612,15,Jits_Phase_8,1,5,63,98,1100490060
6612,15,Jits_Phase_8,2,5,80,127,1100530320
6612,15,Jits_Phase_8,3,1,48,70,1100552396
6612,15,Jits_Phase_8,0,5,56,103,1101199696
6612,15,Jits_Phase_8,1,5,80,127,1101202916
6612,15,Jits_Phase_8,2,1,48,74,1101310352
6612,15,Jits_Phase_8,3,5,63,98,1101340412
6612,15,Jits_Phase_8,0,5,56,103,1101990244
6612,15,Jits_Phase_8,1,5,63,98,1102080480
6612,15,Jits_Phase_8,2,1,48,65,1102087280
6612,15,Jits_Phase_8,3,5,80,127,1102149928
6612,15,Jits_Phase_8,0,5,63,98,1102869752
6612,15,Jits_Phase_8,1,5,80,127,1102873048
6612,15,Jits_Phase_8,2,1,48,67,1102883364
6612,15,Jits_Phase_8,3,5,56,103,1102930288
6612,15,Jits_Phase_8,0,1,48,67,1103691356
6612,15,Jits_Phase_8,1,5,80,127,1103709512
6612,15,Jits_Phase_8,2,5,56,103,1103729972
6612,15,Jits_Phase_8,3,5,63,98,1103740392
6612,15,Jits_Phase_8,0,5,56,103,1104420200
6612,15,Jits_Phase_8,1,5,63,98,1104429352
6612,15,Jits_Phase_8,2,1,48,57,1104492104
6612,15,Jits_Phase_8,3,5,80,127,1104500144
6612,15,Jits_Phase_8,0,5,80,127,1105219888
6612,15,Jits_Phase_8,1,1,48,59,1105229528
6612,15,Jits_Phase_8,2,5,56,103,1105270308
6612,15,Jits_Phase_8,3,5,63,98,1105320208
6612,15,Jits_Phase_8,0,1,48,47,1106049452
6612,15,Jits_Phase_8,1,5,56,103,1106099672
6612,15,Jits_Phase_8,2,5,63,98,1106109720
6612,15,Jits_Phase_8,3,5,80,127,1106149640
6612,15,Jits_Phase_8,0,5,56,103,1106839952
6612,15,Jits_Phase_8,1,5,63,98,1106879744
6612,15,Jits_Phase_8,2,1,48,74,1106920024
6612,15,Jits_Phase_8,3,5,80,127,1106930108
6612,15,Jits_Phase_8,0,5,80,127,1107599792
6612,15,Jits_Phase_8,1,5,56,103,1107649848
6612,15,Jits_Phase_8,2,5,63,98,1107670380
6612,15,Jits_Phase_8,3,1,48,67,1107729260
6612,15,Jits_Phase_8,0,5,80,127,1108409748
6612,15,Jits_Phase_8,1,5,63,98,1108470316
6612,15,Jits_Phase_8,2,5,56,103,1108550184
6612,15,Jits_Phase_8,3,1,48,58,1108688076
6612,15,Jits_Phase_8,0,5,80,127,1109190188
6612,15,Jits_Phase_8,1,5,56,103,1109230228
6612,15,Jits_Phase_8,2,5,63,98,1109250392
6612,15,Jits_Phase_8,0,5,56,103,1110040216
6612,15,Jits_Phase_8,1,5,80,127,1110050116
6612,15,Jits_Phase_8,2,5,63,98,1110090276
6612,15,Jits_Phase_8,0,5,56,103,1110910304
6612,15,Jits_Phase_8,1,5,63,98,1110950316
6612,15,Jits_Phase_8,2,5,80,127,1110953604
6612,15,Jits_Phase_8,0,5,63,98,1111580128
6612,15,Jits_Phase_8,1,5,80,127,1111619992
6612,15,Jits_Phase_8,2,5,56,103,1111689448
6612,15,Jits_Phase_8,3,1,48,59,1111792520
6612,15,Jits_Phase_8,0,5,63,98,1112350292
6612,15,Jits_Phase_8,1,1,48,51,1112395288
6612,15,Jits_Phase_8,2,5,56,103,1112430008
6612,15,Jits_Phase_8,3,5,80,127,1112490308
6612,15,Jits_Phase_8,0,5,80,127,1113160312
6612,15,Jits_Phase_8,1,1,48,54,1113190256
6612,15,Jits_Phase_8,2,5,63,98,1113210136
6612,15,Jits_Phase_8,3,5,56,103,1113240036
6612,15,Jits_Phase_8,0,5,56,103,1113949520
6612,15,Jits_Phase_8,1,5,63,98,1113999800
6612,15,Jits_Phase_8,2,1,48,64,1114002620
6612,15,Jits_Phase_8,3,5,80,127,1114010060
6612,15,Jits_Phase_8,0,1,48,52,1114751648
6612,15,Jits_Phase_8,1,5,56,103,1114759544
6612,15,Jits_Phase_8,2,5,63,98,1114870144
6612,15,Jits_Phase_8,3,5,80,127,1114889480
6612,15,Jits_Phase_8,0,5,63,98,1115560288
6612,15,Jits_Phase_8,1,5,80,127,1115609516
6612,15,Jits_Phase_8,2,1,48,63,1115635576
6612,15,Jits_Phase_8,3,5,56,103,1115699588
6612,15,Jits_Phase_8,0,5,63,98,1116349780
6612,15,Jits_Phase_8,1,5,80,127,1116379528
6612,15,Jits_Phase_8,2,1,48,55,1116434588
6612,15,Jits_Phase_8,3,5,56,103,1116469976
6612,15,Jits_Phase_8,0,5,63,98,1117149532
6612,15,Jits_Phase_8,1,5,56,103,1117159656
6612,15,Jits_Phase_8,2,1,48,50,1117167060
6612,15,Jits_Phase_8,3,5,80,127,1117260496
6612,15,Jits_Phase_8,0,1,48,61,1117883316
6612,15,Jits_Phase_8,1,5,63,98,1118049612
6612,15,Jits_Phase_8,2,5,80,127,1118080560
6612,15,Jits_Phase_8,3,5,56,103,1118110232
6612,15,Jits_Phase_8,0,1,48,53,1118860460
6612,15,Jits_Phase_8,1,5,80,127,1118869992
6612,15,Jits_Phase_8,2,5,63,98,1118880040
6612,15,Jits_Phase_8,3,5,56,103,1118909940
6612,15,Jits_Phase_8,0,5,80,127,1119570272
6612,15,Jits_Phase_8,1,5,63,98,1119589684
6612,15,Jits_Phase_8,2,5,56,103,1119640036
6612,15,Jits_Phase_8,3,1,48,62,1119680164
6612,15,Jits_Phase_8,0,1,48,54,1120393976
6612,15,Jits_Phase_8,1,5,63,98,1120399928
6612,15,Jits_Phase_8,2,5,80,127,1120460168
6612,15,Jits_Phase_8,3,5,56,103,1120479656
6612,15,Jits_Phase_8,0,1,48,61,1121157020
6612,15,Jits_Phase_8,1,5,63,98,1121159532
6612,15,Jits_Phase_8,2,5,56,103,1121209584
6612,15,Jits_Phase_8,3,5,80,127,1121220152
6612,15,Jits_Phase_8,0,1,48,60,1121918800
6612,15,Jits_Phase_8,1,5,56,103,1121990152
6612,15,Jits_Phase_8,2,5,80,127,1122000272
6612,15,Jits_Phase_8,3,5,63,98,1122099480
6612,15,Jits_Phase_8,0,5,80,127,1122749980
6612,15,Jits_Phase_8,1,5,63,98,1122759956
6612,15,Jits_Phase_8,2,5,56,103,1122909444
6612,15,Jits_Phase_8,3,1,48,50,1122955856
6612,15,Jits_Phase_8,0,1,48,49,1123550092
6612,15,Jits_Phase_8,1,5,63,98,1123560080
6612,15,Jits_Phase_8,2,5,80,127,1123599676
6612,15,Jits_Phase_8,3,5,56,103,1123679676
6612,15,Jits_Phase_8,0,5,56,103,1124310248
6612,15,Jits_Phase_8,1,1,48,54,1124378952
6612,15,Jits_Phase_8,2,5,80,127,1124409840
6612,15,Jits_Phase_8,3,5,63,98,1124430300
6612,15,Jits_Phase_8,0,5,80,127,1125129536
6612,15,Jits_Phase_8,1,1,48,56,1125130428
6612,15,Jits_Phase_8,2,5,56,103,1125139800
6612,15,Jits_Phase_8,3,5,63,98,1125230064
6612,15,Jits_Phase_8,0,1,48,57,1125894952
6612,15,Jits_Phase_8,1,5,56,103,1125930500
6612,15,Jits_Phase_8,2,5,63,98,1125949764
6612,15,Jits_Phase_8,3,5,80,127,1126029692
6612,15,Jits_Phase_8,0,5,63,98,1126680148
6612,15,Jits_Phase_8,1,1,48,59,1126685508
6612,15,Jits_Phase_8,2,5,56,103,1126769976
6612,15,Jits_Phase_8,3,5,80,127,1126773044
6612,15,Jits_Phase_8,0,1,48,57,1127455652
6612,15,Jits_Phase_8,1,5,56,103,1127510380
6612,15,Jits_Phase_8,2,5,80,127,1127570008
6612,15,Jits_Phase_8,3,5,63,98,1127579904
6612,15,Jits_Phase_8,0,1,48,52,1128241032
6612,15,Jits_Phase_8,1,5,80,127,1128360172
6612,15,Jits_Phase_8,2,5,56,103,1128369468
6612,15,Jits_Phase_8,3,5,63,98,1128372756
6612,15,Jits_Phase_8,0,1,48,58,1129060264
6612,15,Jits_Phase_8,1,5,56,103,1129120152
6612,15,Jits_Phase_8,2,5,80,127,1129130496
6612,15,Jits_Phase_8,3,5,63,98,1129149908
6612,15,Jits_Phase_8,0,1,48,51,1129854688
6612,15,Jits_Phase_8,1,5,63,98,1129890236
6612,15,Jits_Phase_8,2,5,80,127,1129949492
6612,15,Jits_Phase_8,3,5,56,103,1130000088
6612,15,Jits_Phase_8,0,1,48,58,1130627416
6612,15,Jits_Phase_8,1,5,63,98,1130769720
6612,15,Jits_Phase_8,2,5,56,103,1130780140
6612,15,Jits_Phase_8,3,5,80,127,1130830268
6612,15,Jits_Phase_8,0,1,48,48,1131427088
6612,15,Jits_Phase_8,1,5,63,98,1131470128
6612,15,Jits_Phase_8,2,5,80,127,1131489764
6612,15,Jits_Phase_8,3,5,56,103,1131500032
6612,15,Jits_Phase_8,0,1,48,45,1132178348
6612,15,Jits_Phase_8,1,5,63,98,1132269948
6612,15,Jits_Phase_8,2,5,80,127,1132274196
6612,15,Jits_Phase_8,3,5,56,103,1132309944
6612,15,Jits_Phase_8,0,1,48,54,1132938380
6612,15,Jits_Phase_8,1,5,63,98,1133140248
6612,15,Jits_Phase_8,2,5,80,127,1133170072
6612,15,Jits_Phase_8,3,5,56,103,1133180268
6612,15,Jits_Phase_8,0,1,48,63,1133843192
6612,15,Jits_Phase_8,1,5,56,103,1133889972
6612,15,Jits_Phase_8,2,5,80,127,1133919724
6612,15,Jits_Phase_8,3,5,63,98,1133950208
6612,15,Jits_Phase_8,0,1,48,61,1134642500
6612,15,Jits_Phase_8,1,5,63,98,1134789960
6612,15,Jits_Phase_8,2,5,56,103,1134829920
6612,15,Jits_Phase_8,3,5,80,127,1134833136
6612,15,Jits_Phase_8,0,5,80,127,1135490464
6612,15,Jits_Phase_8,1,5,56,103,1135570336
6612,15,Jits_Phase_8,2,5,63,98,1135619292
6612,15,Jits_Phase_8,3,1,48,57,1135620256
6612,15,Jits_Phase_8,0,5,80,127,1136269860
6612,15,Jits_Phase_8,1,5,56,103,1136290096
6612,15,Jits_Phase_8,2,5,63,98,1136380248
6612,15,Jits_Phase_8,3,1,48,64,1136429820
6612,15,Jits_Phase_8,0,5,80,127,1137110312
6612,15,Jits_Phase_8,1,5,63,98,1137150276
6612,15,Jits_Phase_8,2,5,56,103,1137190284
6612,15,Jits_Phase_8,3,1,48,56,1137197756
6612,15,Jits_Phase_8,0,5,63,98,1137920224
6612,15,Jits_Phase_8,1,5,80,127,1137979792
6612,15,Jits_Phase_8,2,1,48,63,1137994668
6612,15,Jits_Phase_8,3,5,56,103,1138009608
6612,15,Jits_Phase_8,0,5,56,103,1138760052
6612,15,Jits_Phase_8,1,5,80,127,1138789804
6612,15,Jits_Phase_8,2,1,48,64,1138829564
6612,15,Jits_Phase_8,3,5,63,98,1138879928
6612,15,Jits_Phase_8,0,5,56,103,1139570012
6612,15,Jits_Phase_8,1,1,48,68,1139636432
6612,15,Jits_Phase_8,2,5,80,127,1139679768
6612,15,Jits_Phase_8,3,5,63,98,1139710216
6612,15,Jits_Phase_8,0,5,56,103,1140419912
6612,15,Jits_Phase_8,1,1,48,67,1140431352
6612,15,Jits_Phase_8,2,5,63,98,1140480248
6612,15,Jits_Phase_8,3,5,80,127,1140509996
6612,15,Jits_Phase_8,0,5,56,103,1141190020
6612,15,Jits_Phase_8,1,1,48,71,1141223780
6612,15,Jits_Phase_8,2,5,63,98,1141259792
6612,15,Jits_Phase_8,3,5,80,127,1141280028
6612,15,Jits_Phase_8,0,5,80,127,1141960128
6612,15,Jits_Phase_8,1,5,63,98,1141979616
6612,15,Jits_Phase_8,2,1,48,72,1142006572
6612,15,Jits_Phase_8,3,5,56,103,1142029832
6612,15,Jits_Phase_8,0,5,63,98,1142780224
6612,15,Jits_Phase_8,1,5,80,127,1142789596
6612,15,Jits_Phase_8,2,1,48,62,1142823652
6612,15,Jits_Phase_8,3,5,56,103,1142839792
6612,15,Jits_Phase_8,0,5,63,98,1143580056
6612,15,Jits_Phase_8,1,1,48,65,1143608580
6612,15,Jits_Phase_8,2,5,80,127,1143649804
6612,15,Jits_Phase_8,3,5,56,103,1143670116
6612,15,Jits_Phase_8,0,1,48,71,1144394164
6612,15,Jits_Phase_8,1,5,63,98,1144409780
6612,15,Jits_Phase_8,2,5,80,127,1144412992
6612,15,Jits_Phase_8,3,5,56,103,1144480056
6612,15,Jits_Phase_8,0,5,80,127,1145159936
6612,15,Jits_Phase_8,1,1,48,62,1145170400
6612,15,Jits_Phase_8,2,5,56,103,1145179640
6612,15,Jits_Phase_8,3,5,63,98,1145189836
6612,15,Jits_Phase_8,0,1,48,68,1145975920
6612,15,Jits_Phase_8,1,5,56,103,1145980224
6612,15,Jits_Phase_8,2,5,63,98,1146070504
6612,15,Jits_Phase_8,3,5,80,127,1146074752
6612,15,Jits_Phase_8,0,5,80,127,1146750684
6612,15,Jits_Phase_8,1,5,56,103,1146759536
6612,15,Jits_Phase_8,2,5,63,98,1146780144
6612,15,Jits_Phase_8,3,1,48,64,1146804908
6612,15,Jits_Phase_8,0,5,63,98,1147550004
6612,15,Jits_Phase_8,1,1,48,64,1147557756
6612,15,Jits_Phase_8,2,5,80,127,1147609564
6612,15,Jits_Phase_8,3,5,56,103,1147619836
6612,15,Jits_Phase_8,0,1,48,68,1148361936
6612,15,Jits_Phase_8,1,5,63,98,1148419524
6612,15,Jits_Phase_8,2,5,80,127,1148450100
6612,15,Jits_Phase_8,3,5,56,103,1148489948
6612,15,Jits_Phase_8,0,1,48,64,1149185912
6612,15,Jits_Phase_8,1,5,56,103,1149209996
6612,15,Jits_Phase_8,2,5,80,127,1149220416
6612,15,Jits_Phase_8,3,5,63,98,1149260352
6612,15,Jits_Phase_8,0,5,80,127,1149969680
6612,15,Jits_Phase_8,1,1,48,61,1149998580
6612,15,Jits_Phase_8,2,5,56,103,1150049620
6612,15,Jits_Phase_8,3,5,63,98,1150059892
6612,15,Jits_Phase_8,0,1,48,65,1150759012
6612,15,Jits_Phase_8,1,5,80,127,1150819568
6612,15,Jits_Phase_8,2,5,56,103,1150899648
6612,15,Jits_Phase_8,3,5,63,98,1150909920
6612,15,Jits_Phase_8,0,1,48,58,1151586932
6612,15,Jits_Phase_8,1,5,80,127,1151660468
6612,15,Jits_Phase_8,2,5,56,103,1151709460
6612,15,Jits_Phase_8,3,5,63,98,1151759608
6612,15,Jits_Phase_8,0,1,48,57,1152498808
6612,15,Jits_Phase_8,1,5,56,103,1152600480
6612,15,Jits_Phase_8,2,5,63,98,1152603396
6612,15,Jits_Phase_8,3,5,80,127,1152649560
6612,15,Jits_Phase_8,0,5,56,103,1153419660
6612,15,Jits_Phase_8,1,5,63,98,1153450460
6612,15,Jits_Phase_8,2,5,80,127,1153459532
6612,15,Jits_Phase_8,3,1,48,57,1153533020
6612,15,Jits_Phase_8,0,5,63,98,1154130580
6612,15,Jits_Phase_8,1,5,56,103,1154199964
6612,15,Jits_Phase_8,2,5,80,127,1154250388
6612,15,Jits_Phase_8,3,1,48,67,1154313760
6612,15,Jits_Phase_8,0,5,63,98,1154959712
6612,15,Jits_Phase_8,1,5,56,103,1154969904
6612,15,Jits_Phase_8,2,5,80,127,1154972972
6612,15,Jits_Phase_8,3,1,48,63,1154975488
6612,15,Jits_Phase_8,0,1,48,67,1155695732
6612,15,Jits_Phase_8,1,5,80,127,1155710520
6612,15,Jits_Phase_8,2,5,56,103,1155769568
6612,15,Jits_Phase_8,3,5,63,98,1155859928
6612,15,Jits_Phase_8,0,5,80,127,1156510356
6612,15,Jits_Phase_8,1,1,48,61,1156573192
6612,15,Jits_Phase_8,2,5,56,103,1156610328
6612,15,Jits_Phase_8,3,5,63,98,1156650484
6612,15,Jits_Phase_8,0,5,56,103,1157360052
6612,15,Jits_Phase_8,1,5,63,98,1157379392
6612,15,Jits_Phase_8,2,1,48,44,1157418784
6612,15,Jits_Phase_8,3,5,80,127,1157420368
6612,15,Jits_Phase_8,0,5,63,98,1158130008
6612,15,Jits_Phase_8,1,5,56,103,1158149492
6612,15,Jits_Phase_8,2,1,48,67,1158188504
6612,15,Jits_Phase_8,3,5,80,127,1158249952
6612,15,Jits_Phase_8,0,1,48,70,1158883772
6612,15,Jits_Phase_8,1,5,63,98,1158919492
6612,15,Jits_Phase_8,2,5,80,127,1159030064
6612,15,Jits_Phase_8,3,5,56,103,1159059884
6612,15,Jits_Phase_8,0,5,56,103,1159739708
6612,15,Jits_Phase_8,1,5,63,98,1159769460
6612,15,Jits_Phase_8,2,1,48,62,1159773256
6612,15,Jits_Phase_8,3,5,80,127,1159819580
6612,15,Jits_Phase_8,0,5,63,98,1160509884
6612,15,Jits_Phase_8,1,5,56,103,1160539564
6612,15,Jits_Phase_8,2,5,80,127,1160589764
6612,15,Jits_Phase_8,3,1,48,75,1160678064
6612,15,Jits_Phase_8,0,1,48,42,1161120400
6612,15,Jits_Phase_8,1,1,48,39,1161262828
6612,15,Jits_Phase_8,2,5,56,103,1161340400
6612,15,Jits_Phase_8,3,5,63,98,1161359800
6612,15,Jits_Phase_8,4,5,80,127,1161439516
6612,15,Jits_Phase_8,5,1,48,46,1161666412
6612,15,Jits_Phase_8,0,5,63,98,1162110432
6612,15,Jits_Phase_8,1,5,56,103,1162169704
6612,15,Jits_Phase_8,2,5,80,127,1162200576
6612,15,Jits_Phase_8,0,5,56,103,1162950012
6612,15,Jits_Phase_8,1,5,80,127,1163010576
6612,15,Jits_Phase_8,2,5,63,98,1163050512
6612,15,Jits_Phase_8,0,5,63,98,1163730416
6612,15,Jits_Phase_8,1,5,56,103,1163789636
6612,15,Jits_Phase_8,2,5,80,127,1163860216
6612,15,Jits_Phase_8,0,5,56,103,1164610032
6612,15,Jits_Phase_8,1,5,63,98,1164620224
6612,15,Jits_Phase_8,2,5,80,127,1164623516
6612,15,Jits_Phase_8,0,5,63,98,1165350196
6612,15,Jits_Phase_8,1,1,48,55,1165373316
6612,15,Jits_Phase_8,2,5,56,103,1165409680
6612,15,Jits_Phase_8,3,5,80,127,1165412748
6612,15,Jits_Phase_8,0,1,48,54,1166117388
6612,15,Jits_Phase_8,1,5,63,98,1166129488
6612,15,Jits_Phase_8,2,5,80,127,1166160212
6612,15,Jits_Phase_8,3,5,56,103,1166179624
6612,15,Jits_Phase_8,0,1,48,63,1166850252
6612,15,Jits_Phase_8,1,5,56,103,1166859564
6612,15,Jits_Phase_8,2,5,63,98,1166909768
6612,15,Jits_Phase_8,3,5,80,127,1166989768
6612,15,Jits_Phase_8,0,5,80,127,1167560044
6612,15,Jits_Phase_8,1,5,63,98,1167599936
6612,15,Jits_Phase_8,2,5,56,103,1167619568
6612,15,Jits_Phase_8,3,1,48,53,1167641720
6612,15,Jits_Phase_8,0,1,48,59,1168329888
6612,15,Jits_Phase_8,1,5,56,103,1168429420
6612,15,Jits_Phase_8,2,5,80,127,1168439688
6612,15,Jits_Phase_8,3,5,63,98,1168460372
6612,15,Jits_Phase_8,0,1,48,51,1169113160
6612,15,Jits_Phase_8,1,5,56,103,1169209696
6612,15,Jits_Phase_8,2,5,63,98,1169259824
6612,15,Jits_Phase_8,3,5,80,127,1169289572
6612,15,Jits_Phase_8,0,1,48,54,1169924184
6612,15,Jits_Phase_8,1,5,56,103,1169960252
6612,15,Jits_Phase_8,2,5,63,98,1169969476
6612,15,Jits_Phase_8,3,5,80,127,1170019808
6612,15,Jits_Phase_8,0,1,48,56,1170623884
6612,15,Jits_Phase_8,1,5,56,103,1170749792
6612,15,Jits_Phase_8,2,5,80,127,1170752936
6612,15,Jits_Phase_8,3,5,63,98,1170909520
6612,15,Jits_Phase_8,0,1,48,43,1171567348
6612,15,Jits_Phase_8,1,5,63,98,1171570084
6612,15,Jits_Phase_8,2,5,56,103,1171639616
6612,15,Jits_Phase_8,3,5,80,127,1171679540
6612,15,Jits_Phase_8,0,5,63,98,1172409708
6612,15,Jits_Phase_8,1,1,48,34,1172456576
6612,15,Jits_Phase_8,2,5,56,103,1172499784
6612,15,Jits_Phase_8,3,5,80,127,1172503000
6612,15,Jits_Phase_8,0,5,56,103,1173189984
6612,15,Jits_Phase_8,1,1,48,25,1173266472
6612,15,Jits_Phase_8,2,5,63,98,1173280360
6612,15,Jits_Phase_8,3,5,80,127,1173290332
6612,15,Jits_Phase_8,0,5,56,103,1173960240
6612,15,Jits_Phase_8,1,5,63,98,1174010172
6612,15,Jits_Phase_8,2,5,80,127,1174040144
6612,15,Jits_Phase_8,3,1,48,32,1174121172
6612,15,Jits_Phase_8,4,1,48,24,1174408616
6612,15,Jits_Phase_8,0,5,63,98,1174839608
6612,15,Jits_Phase_8,1,5,80,127,1174850176
6612,15,Jits_Phase_8,2,5,56,103,1174910416
6612,15,Jits_Phase_8,3,1,48,37,1174921332
6612,15,Jits_Phase_8,0,5,63,98,1175559580
6612,15,Jits_Phase_8,1,5,80,127,1175619972
6612,15,Jits_Phase_8,2,5,56,103,1175660208
6612,15,Jits_Phase_8,3,1,48,40,1175686696
6612,15,Jits_Phase_8,0,1,48,33,1176422308
6612,15,Jits_Phase_8,1,5,56,103,1176459576
6612,15,Jits_Phase_8,2,5,80,127,1176480332
6612,15,Jits_Phase_8,3,5,63,98,1176499524
6612,15,Jits_Phase_8,0,5,63,98,1177179408
6612,15,Jits_Phase_8,1,5,56,103,1177200088
6612,15,Jits_Phase_8,2,5,80,127,1177239952
6612,15,Jits_Phase_8,3,1,48,35,1177248172
6612,15,Jits_Phase_8,0,1,48,38,1177983620
6612,15,Jits_Phase_8,1,5,63,98,1177989496
6612,15,Jits_Phase_8,2,5,80,127,1178020068
6612,15,Jits_Phase_8,3,5,56,103,1178040000
6612,15,Jits_Phase_8,0,1,48,49,1178729364
6612,15,Jits_Phase_8,1,5,80,127,1178759432
6612,15,Jits_Phase_8,2,5,56,103,1178809856
6612,15,Jits_Phase_8,3,5,63,98,1178870108
6612,15,Jits_Phase_8,0,5,63,98,1179550200
6612,15,Jits_Phase_8,1,1,48,41,1179582460
6612,15,Jits_Phase_8,2,5,56,103,1179670096
6612,15,Jits_Phase_8,3,5,80,127,1179699456
6612,15,Jits_Phase_8,0,5,80,127,1180389672
6612,15,Jits_Phase_8,1,5,63,98,1180410156
6612,15,Jits_Phase_8,2,1,48,42,1180454696
6612,15,Jits_Phase_8,3,5,56,103,1180480124
6612,15,Jits_Phase_8,0,5,63,98,1181209996
6612,15,Jits_Phase_8,1,5,56,103,1181220116
6612,15,Jits_Phase_8,2,1,48,32,1181265484
6612,15,Jits_Phase_8,3,5,80,127,1181300124
6612,15,Jits_Phase_8,0,1,48,47,1182045304
6612,15,Jits_Phase_8,1,5,56,103,1182070132
6612,15,Jits_Phase_8,2,5,80,127,1182100032
6612,15,Jits_Phase_8,3,5,63,98,1182110080
6612,15,Jits_Phase_8,0,9999,9999,9999,1047227468
6612,15,Jits_Phase_8,1,9999,9999,9999,1048027260
6612,15,Jits_Phase_8,2,9999,9999,9999,1048827972
6612,15,Jits_Phase_8,3,9999,9999,9999,1049627748
6612,15,Jits_Phase_8,4,9999,9999,9999,1050427512
6612,15,Jits_Phase_8,5,9999,9999,9999,1051227196
6612,15,Jits_Phase_8,6,9999,9999,9999,1052027996
6612,15,Jits_Phase_8,7,9999,9999,9999,1052827764
6612,15,Jits_Phase_8,8,9999,9999,9999,1053627452
6612,15,Jits_Phase_8,9,9999,9999,9999,1054427192
6612,15,Jits_Phase_8,10,9999,9999,9999,1055227968
6612,15,Jits_Phase_8,11,9999,9999,9999,1056027724
6612,15,Jits_Phase_8,12,9999,9999,9999,1056827480
6612,15,Jits_Phase_8,13,9999,9999,9999,1057627212
6612,15,Jits_Phase_8,14,9999,9999,9999,1058427976
6612,15,Jits_Phase_8,15,9999,9999,9999,1059227736
6612,15,Jits_Phase_8,16,9999,9999,9999,1060027476
6612,15,Jits_Phase_8,17,9999,9999,9999,1060827252
6612,15,Jits_Phase_8,18,9999,9999,9999,1061628012
6612,15,Jits_Phase_8,19,9999,9999,9999,1062427712
6612,15,Jits_Phase_8,20,9999,9999,9999,1063227464
6612,15,Jits_Phase_8,21,9999,9999,9999,1064027220
6612,15,Jits_Phase_8,22,9999,9999,9999,1064828028
6612,15,Jits_Phase_8,23,9999,9999,9999,1065627708
6612,15,Jits_Phase_8,24,9999,9999,9999,1066427460
6612,15,Jits_Phase_8,25,9999,9999,9999,1067227212
6612,15,Jits_Phase_8,26,9999,9999,9999,1068027984
6612,15,Jits_Phase_8,27,9999,9999,9999,1068827740
6612,15,Jits_Phase_8,28,9999,9999,9999,1069627496
6612,15,Jits_Phase_8,29,9999,9999,9999,1070427260
6612,15,Jits_Phase_8,30,9999,9999,9999,1071207536
6612,15,Jits_Phase_8,31,9999,9999,9999,1072007292
6612,15,Jits_Phase_8,32,9999,9999,9999,1072808016
6612,15,Jits_Phase_8,33,9999,9999,9999,1073607780
6612,15,Jits_Phase_8,34,9999,9999,9999,1074407480
6612,15,Jits_Phase_8,35,9999,9999,9999,1075207264
6612,15,Jits_Phase_8,36,9999,9999,9999,1076008000
6612,15,Jits_Phase_8,37,9999,9999,9999,1076807768
6612,15,Jits_Phase_8,38,9999,9999,9999,1077607536
6612,15,Jits_Phase_8,39,9999,9999,9999,1078407232
6612,15,Jits_Phase_8,40,9999,9999,9999,1079208056
6612,15,Jits_Phase_8,41,9999,9999,9999,1080007752
6612,15,Jits_Phase_8,42,9999,9999,9999,1080807504
6612,15,Jits_Phase_8,43,9999,9999,9999,1081607284
6612,15,Jits_Phase_8,44,9999,9999,9999,1082408000
6612,15,Jits_Phase_8,45,9999,9999,9999,1083207756
6612,15,Jits_Phase_8,46,9999,9999,9999,1084007528
6612,15,Jits_Phase_8,47,9999,9999,9999,1084807292
6612,15,Jits_Phase_8,48,9999,9999,9999,1085627516
6612,15,Jits_Phase_8,49,9999,9999,9999,1086427212
6612,15,Jits_Phase_8,50,9999,9999,9999,1087227964
6612,15,Jits_Phase_8,51,9999,9999,9999,1088027736
6612,15,Jits_Phase_8,52,9999,9999,9999,1088827508
6612,15,Jits_Phase_8,53,9999,9999,9999,1089627212
6612,15,Jits_Phase_8,54,9999,9999,9999,1090428012
6612,15,Jits_Phase_8,55,9999,9999,9999,1091227708
6612,15,Jits_Phase_8,56,9999,9999,9999,1092027460
6612,15,Jits_Phase_8,57,9999,9999,9999,1092827232
6612,15,Jits_Phase_8,58,9999,9999,9999,1093628000
6612,15,Jits_Phase_8,59,9999,9999,9999,1094427772
6612,15,Jits_Phase_8,60,9999,9999,9999,1095227468
6612,15,Jits_Phase_8,61,9999,9999,9999,1096027244
6612,15,Jits_Phase_8,62,9999,9999,9999,1096827980
6612,15,Jits_Phase_8,63,9999,9999,9999,1097627764
6612,15,Jits_Phase_8,64,9999,9999,9999,1098467404
6612,15,Jits_Phase_8,65,9999,9999,9999,1099267180
6612,15,Jits_Phase_8,66,9999,9999,9999,1100067928
6612,15,Jits_Phase_8,67,9999,9999,9999,1100867692
6612,15,Jits_Phase_8,68,9999,9999,9999,1101667384
6612,15,Jits_Phase_8,69,9999,9999,9999,1102467156
6612,15,Jits_Phase_8,70,9999,9999,9999,1103267968
6612,15,Jits_Phase_8,71,9999,9999,9999,1104067660
6612,15,Jits_Phase_8,72,9999,9999,9999,1104867412
6612,15,Jits_Phase_8,73,9999,9999,9999,1105667128
6612,15,Jits_Phase_8,74,9999,9999,9999,1106467956
6612,15,Jits_Phase_8,75,9999,9999,9999,1107267640
6612,15,Jits_Phase_8,76,9999,9999,9999,1108067408
6612,15,Jits_Phase_8,77,9999,9999,9999,1108867180
6612,15,Jits_Phase_8,78,9999,9999,9999,1109667936
6612,15,Jits_Phase_8,79,9999,9999,9999,1110467672
6612,15,Jits_Phase_8,80,9999,9999,9999,1111267408
6612,15,Jits_Phase_8,81,9999,9999,9999,1112027196
6612,15,Jits_Phase_8,82,9999,9999,9999,1112828024
6612,15,Jits_Phase_8,83,9999,9999,9999,1113627704
6612,15,Jits_Phase_8,84,9999,9999,9999,1114427472
6612,15,Jits_Phase_8,85,9999,9999,9999,1115227248
6612,15,Jits_Phase_8,86,9999,9999,9999,1116027976
6612,15,Jits_Phase_8,87,9999,9999,9999,1116827732
6612,15,Jits_Phase_8,88,9999,9999,9999,1117627484
6612,15,Jits_Phase_8,89,9999,9999,9999,1118427252
6612,15,Jits_Phase_8,90,9999,9999,9999,1119228016
6612,15,Jits_Phase_8,91,9999,9999,9999,1120027772
6612,15,Jits_Phase_8,92,9999,9999,9999,1120827472
6612,15,Jits_Phase_8,93,9999,9999,9999,1121627228
6612,15,Jits_Phase_8,94,9999,9999,9999,1122427956
6612,15,Jits_Phase_8,95,9999,9999,9999,1123227712
6612,15,Jits_Phase_8,96,9999,9999,9999,1124027480
6612,15,Jits_Phase_8,97,9999,9999,9999,1124747380
6612,15,Jits_Phase_8,98,9999,9999,9999,1125547084
6612,15,Jits_Phase_8,99,9999,9999,9999,1126347832
6612,15,Jits_Phase_8,100,9999,9999,9999,1127147580
6612,15,Jits_Phase_8,101,9999,9999,9999,1127947364
6612,15,Jits_Phase_8,102,9999,9999,9999,1128747112
6612,15,Jits_Phase_8,103,9999,9999,9999,1129547840
6612,15,Jits_Phase_8,104,9999,9999,9999,1130347596
6612,15,Jits_Phase_8,105,9999,9999,9999,1131147360
6612,15,Jits_Phase_8,106,9999,9999,9999,1131947084
6612,15,Jits_Phase_8,107,9999,9999,9999,1132747868
6612,15,Jits_Phase_8,108,9999,9999,9999,1133547636
6612,15,Jits_Phase_8,109,9999,9999,9999,1134347332
6612,15,Jits_Phase_8,110,9999,9999,9999,1135147088
6612,15,Jits_Phase_8,111,9999,9999,9999,1135947896
6612,15,Jits_Phase_8,112,9999,9999,9999,1136747588
6612,15,Jits_Phase_8,113,9999,9999,9999,1137547360
6612,15,Jits_Phase_8,114,9999,9999,9999,1138427992
6612,15,Jits_Phase_8,115,9999,9999,9999,1139227744
6612,15,Jits_Phase_8,116,9999,9999,9999,1140027448
6612,15,Jits_Phase_8,117,9999,9999,9999,1140827224
6612,15,Jits_Phase_8,118,9999,9999,9999,1141627972
6612,15,Jits_Phase_8,119,9999,9999,9999,1142427740
6612,15,Jits_Phase_8,120,9999,9999,9999,1143227512
6612,15,Jits_Phase_8,121,9999,9999,9999,1144027196
6612,15,Jits_Phase_8,122,9999,9999,9999,1144828020
6612,15,Jits_Phase_8,123,9999,9999,9999,1145627772
6612,15,Jits_Phase_8,124,9999,9999,9999,1146427464
6612,15,Jits_Phase_8,125,9999,9999,9999,1147227212
6612,15,Jits_Phase_8,126,9999,9999,9999,1148028028
6612,15,Jits_Phase_8,127,9999,9999,9999,1148827716
6612,15,Jits_Phase_8,128,9999,9999,9999,1149627476
6612,15,Jits_Phase_8,129,9999,9999,9999,1150427236
6612,15,Jits_Phase_8,130,9999,9999,9999,1151228008
6612,15,Jits_Phase_8,131,9999,9999,9999,1152187496
6612,15,Jits_Phase_8,132,9999,9999,9999,1152987252
6612,15,Jits_Phase_8,133,9999,9999,9999,1153788016
6612,15,Jits_Phase_8,134,9999,9999,9999,1154587712
6612,15,Jits_Phase_8,135,9999,9999,9999,1155387456
6612,15,Jits_Phase_8,136,9999,9999,9999,1156187212
6612,15,Jits_Phase_8,137,9999,9999,9999,1156988016
6612,15,Jits_Phase_8,138,9999,9999,9999,1157787716
6612,15,Jits_Phase_8,139,9999,9999,9999,1158587484
6612,15,Jits_Phase_8,140,9999,9999,9999,1159387244
6612,15,Jits_Phase_8,141,9999,9999,9999,1160187996
6612,15,Jits_Phase_8,142,9999,9999,9999,1160987764
6612,15,Jits_Phase_8,143,9999,9999,9999,1161787476
6612,15,Jits_Phase_8,144,9999,9999,9999,1162587212
6612,15,Jits_Phase_8,145,9999,9999,9999,1163387984
6612,15,Jits_Phase_8,146,9999,9999,9999,1164187720
6612,15,Jits_Phase_8,147,9999,9999,9999,1164987512
6612,15,Jits_Phase_8,148,9999,9999,9999,1165787216
6612,15,Jits_Phase_8,149,9999,9999,9999,1166587968
6612,15,Jits_Phase_8,150,9999,9999,9999,1167227980
6612,15,Jits_Phase_8,151,9999,9999,9999,1168027732
6612,15,Jits_Phase_8,152,9999,9999,9999,1168827504
6612,15,Jits_Phase_8,153,9999,9999,9999,1169627192
6612,15,Jits_Phase_8,154,9999,9999,9999,1170428016
6612,15,Jits_Phase_8,155,9999,9999,9999,1171227760
6612,15,Jits_Phase_8,156,9999,9999,9999,1172027448
6612,15,Jits_Phase_8,157,9999,9999,9999,1172827200
6612,15,Jits_Phase_8,158,9999,9999,9999,1173628012
6612,15,Jits_Phase_8,159,9999,9999,9999,1174427776
6612,15,Jits_Phase_8,160,9999,9999,9999,1175227488
6612,15,Jits_Phase_8,161,9999,9999,9999,1176027248
6612,15,Jits_Phase_8,162,9999,9999,9999,1176828008
6612,15,Jits_Phase_8,163,9999,9999,9999,1177627764
6612,15,Jits_Phase_8,164,9999,9999,9999,1178427448
6612,15,Jits_Phase_8,165,9999,9999,9999,1179227204
6612,15,Jits_Phase_8,166,9999,9999,9999,1180028008
6612,15,Jits_Phase_8,167,9999,9999,9999,1180827768
6612,15,Jits_Phase_8,168,9999,9999,9999,1181627468
6612,15,Jits_Phase_8,169,9999,9999,9999,1182427236
6613,17,Jits_Phase_5,0,5,56,103,1191267952
6613,17,Jits_Phase_5,1,5,63,98,1191271056
6613,17,Jits_Phase_5,2,5,80,127,1191274024
6613,17,Jits_Phase_5,0,5,56,103,1191768332
6613,17,Jits_Phase_5,1,5,63,98,1191771584
6613,17,Jits_Phase_5,2,5,80,127,1191774704
6613,17,Jits_Phase_5,0,5,56,103,1192268136
6613,17,Jits_Phase_5,1,5,80,127,1192278408
6613,17,Jits_Phase_5,2,5,63,98,1192297892
6613,17,Jits_Phase_5,0,5,63,98,1192717820
6613,17,Jits_Phase_5,1,5,80,127,1192748540
6613,17,Jits_Phase_5,2,5,56,103,1192757764
6613,17,Jits_Phase_5,0,5,80,127,1193277916
6613,17,Jits_Phase_5,1,1,48,48,1193287888
6613,17,Jits_Phase_5,2,5,56,103,1193289372
6613,17,Jits_Phase_5,3,5,63,98,1193318000
6613,17,Jits_Phase_5,0,5,63,98,1193768320
6613,17,Jits_Phase_5,1,5,56,103,1193797920
6613,17,Jits_Phase_5,2,5,80,127,1193808188
6613,17,Jits_Phase_5,3,1,48,57,1193841196
6613,17,Jits_Phase_5,0,5,56,103,1194217728
6613,17,Jits_Phase_5,1,5,63,98,1194268076
6613,17,Jits_Phase_5,2,5,80,127,1194287564
6613,17,Jits_Phase_5,3,1,48,53,1194320792
6613,17,Jits_Phase_5,0,1,48,48,1194657572
6613,17,Jits_Phase_5,1,5,80,127,1194717684
6613,17,Jits_Phase_5,2,5,63,98,1194767896
6613,17,Jits_Phase_5,3,5,56,103,1194807756
6613,17,Jits_Phase_5,0,5,56,103,1195218264
6613,17,Jits_Phase_5,1,5,63,98,1195247964
6613,17,Jits_Phase_5,2,1,48,58,1195267644
6613,17,Jits_Phase_5,3,5,80,127,1195317860
6613,17,Jits_Phase_5,0,5,56,103,1195718028
6613,17,Jits_Phase_5,1,5,80,127,1195778368
6613,17,Jits_Phase_5,2,5,63,98,1195807968
6613,17,Jits_Phase_5,3,1,48,63,1195814076
6613,17,Jits_Phase_5,0,5,56,103,1196228056
6613,17,Jits_Phase_5,1,5,63,98,1196238176
6613,17,Jits_Phase_5,2,5,80,127,1196278136
6613,17,Jits_Phase_5,3,1,48,62,1196315332
6613,17,Jits_Phase_5,0,5,63,98,1196717544
6613,17,Jits_Phase_5,1,1,48,54,1196741044
6613,17,Jits_Phase_5,2,5,80,127,1196798256
6613,17,Jits_Phase_5,3,5,56,103,1196807480
6613,17,Jits_Phase_5,0,5,63,98,1197268244
6613,17,Jits_Phase_5,1,5,56,103,1197308204
6613,17,Jits_Phase_5,2,5,80,127,1197311344
6613,17,Jits_Phase_5,3,1,48,68,1197334312
6613,17,Jits_Phase_5,0,5,56,103,1197728128
6613,17,Jits_Phase_5,1,5,63,98,1197738400
6613,17,Jits_Phase_5,2,5,80,127,1197778264
6613,17,Jits_Phase_5,3,1,48,71,1197857668
6613,17,Jits_Phase_5,0,5,56,103,1198217776
6613,17,Jits_Phase_5,1,5,63,98,1198220916
6613,17,Jits_Phase_5,2,5,80,127,1198238008
6613,17,Jits_Phase_5,3,1,48,65,1198341680
6613,17,Jits_Phase_5,0,5,80,127,1198727640
6613,17,Jits_Phase_5,1,5,56,103,1198737760
6613,17,Jits_Phase_5,2,5,63,98,1198808632
6613,17,Jits_Phase_5,3,1,48,55,1198812124
6613,17,Jits_Phase_5,0,5,63,98,1199218036
6613,17,Jits_Phase_5,1,5,56,103,1199237448
6613,17,Jits_Phase_5,2,1,48,57,1199316692
6613,17,Jits_Phase_5,3,5,80,127,1199318428
6613,17,Jits_Phase_5,0,5,56,103,1199727972
6613,17,Jits_Phase_5,1,5,80,127,1199767912
6613,17,Jits_Phase_5,2,5,63,98,1199778108
6613,17,Jits_Phase_5,3,1,48,62,1199805952
6613,17,Jits_Phase_5,0,5,80,127,1200217696
6613,17,Jits_Phase_5,1,5,63,98,1200248120
6613,17,Jits_Phase_5,2,5,56,103,1200288132
6613,17,Jits_Phase_5,3,1,48,62,1200304504
6613,17,Jits_Phase_5,0,5,56,103,1200737612
6613,17,Jits_Phase_5,1,5,63,98,1200768556
6613,17,Jits_Phase_5,2,5,80,127,1200817632
6613,17,Jits_Phase_5,3,1,48,51,1200827052
6613,17,Jits_Phase_5,0,5,80,127,1201238644
6613,17,Jits_Phase_5,1,5,56,103,1201278212
6613,17,Jits_Phase_5,2,1,48,51,1201283424
6613,17,Jits_Phase_5,3,5,63,98,1201287576
6613,17,Jits_Phase_5,0,5,80,127,1201717808
6613,17,Jits_Phase_5,1,1,48,62,1201744224
6613,17,Jits_Phase_5,2,5,63,98,1201757516
6613,17,Jits_Phase_5,3,5,56,103,1201817904
6613,17,Jits_Phase_5,0,5,56,103,1202218548
6613,17,Jits_Phase_5,1,5,80,127,1202227472
6613,17,Jits_Phase_5,2,1,48,50,1202307708
6613,17,Jits_Phase_5,3,5,63,98,1202309044
6613,17,Jits_Phase_5,0,5,80,127,1202718232
6613,17,Jits_Phase_5,1,1,48,50,1202759864
6613,17,Jits_Phase_5,2,5,63,98,1202777720
6613,17,Jits_Phase_5,3,5,56,103,1202808660
6613,17,Jits_Phase_5,0,5,56,103,1203217776
6613,17,Jits_Phase_5,1,5,80,127,1203278316
6613,17,Jits_Phase_5,2,1,48,58,1203291548
6613,17,Jits_Phase_5,3,5,63,98,1203318020
6613,17,Jits_Phase_5,0,5,56,103,1203767736
6613,17,Jits_Phase_5,1,1,48,59,1203773920
6613,17,Jits_Phase_5,2,5,63,98,1203778000
6613,17,Jits_Phase_5,3,5,80,127,1203781288
6613,17,Jits_Phase_5,0,5,80,127,1204218420
6613,17,Jits_Phase_5,1,5,63,98,1204308624
6613,17,Jits_Phase_5,2,5,56,103,1204317476
6613,17,Jits_Phase_5,3,1,48,58,1204320372
6613,17,Jits_Phase_5,0,5,56,103,1204717872
6613,17,Jits_Phase_5,1,5,63,98,1204720968
6613,17,Jits_Phase_5,2,5,80,127,1204724240
6613,17,Jits_Phase_5,3,1,48,50,1204840636
6613,17,Jits_Phase_5,0,5,80,127,1205238080
6613,17,Jits_Phase_5,1,1,48,51,1205286232
6613,17,Jits_Phase_5,2,5,63,98,1205288348
6613,17,Jits_Phase_5,3,5,56,103,1205317948
6613,17,Jits_Phase_5,0,5,56,103,1205718492
6613,17,Jits_Phase_5,1,5,80,127,1205727792
6613,17,Jits_Phase_5,2,5,63,98,1205798536
6613,17,Jits_Phase_5,3,1,48,51,1205818140
6613,17,Jits_Phase_5,0,5,56,103,1206228368
6613,17,Jits_Phase_5,1,5,63,98,1206247780
6613,17,Jits_Phase_5,2,1,48,50,1206289056
6613,17,Jits_Phase_5,3,5,80,127,1206308184
6613,17,Jits_Phase_5,0,1,48,49,1206628832
6613,17,Jits_Phase_5,1,5,80,127,1206717864
6613,17,Jits_Phase_5,2,5,63,98,1206787628
6613,17,Jits_Phase_5,3,5,56,103,1206807788
6613,17,Jits_Phase_5,0,1,48,55,1207213608
6613,17,Jits_Phase_5,1,5,80,127,1207238216
6613,17,Jits_Phase_5,2,5,56,103,1207248784
6613,17,Jits_Phase_5,3,5,63,98,1207257560
6613,17,Jits_Phase_5,0,5,80,127,1207727632
6613,17,Jits_Phase_5,1,5,56,103,1207747940
6613,17,Jits_Phase_5,2,1,48,55,1207797384
6613,17,Jits_Phase_5,3,5,63,98,1207817636
6613,17,Jits_Phase_5,0,5,56,103,1208237512
6613,17,Jits_Phase_5,1,5,80,127,1208268084
6613,17,Jits_Phase_5,2,5,63,98,1208287644
6613,17,Jits_Phase_5,3,1,48,58,1208327424
6613,17,Jits_Phase_5,0,5,63,98,1208727984
6613,17,Jits_Phase_5,1,5,56,103,1208788448
6613,17,Jits_Phase_5,2,1,48,55,1208793216
6613,17,Jits_Phase_5,3,5,80,127,1208817916
6613,17,Jits_Phase_5,0,5,63,98,1209218520
6613,17,Jits_Phase_5,1,5,80,127,1209221660
6613,17,Jits_Phase_5,2,5,56,103,1209307524
6613,17,Jits_Phase_5,3,1,48,56,1209336588
6613,17,Jits_Phase_5,0,5,56,103,1209737440
6613,17,Jits_Phase_5,1,5,63,98,1209768384
6613,17,Jits_Phase_5,2,5,80,127,1209808396
6613,17,Jits_Phase_5,3,1,48,49,1209816468
6613,17,Jits_Phase_5,0,5,63,98,1210238548
6613,17,Jits_Phase_5,1,5,56,103,1210278260
6613,17,Jits_Phase_5,2,1,48,52,1210286780
6613,17,Jits_Phase_5,3,5,80,127,1210297816
6613,17,Jits_Phase_5,0,1,48,50,1210651280
6613,17,Jits_Phase_5,1,5,63,98,1210748464
6613,17,Jits_Phase_5,2,5,56,103,1210788180
6613,17,Jits_Phase_5,3,5,80,127,1210797552
6613,17,Jits_Phase_5,0,5,80,127,1211227488
6613,17,Jits_Phase_5,1,1,48,56,1211294576
6613,17,Jits_Phase_5,2,5,63,98,1211298284
6613,17,Jits_Phase_5,3,5,56,103,1211317472
6613,17,Jits_Phase_5,0,5,56,103,1211718188
6613,17,Jits_Phase_5,1,5,80,127,1211737600
6613,17,Jits_Phase_5,2,5,63,98,1211778508
6613,17,Jits_Phase_5,3,1,48,53,1211844624
6613,17,Jits_Phase_5,0,5,63,98,1212227916
6613,17,Jits_Phase_5,1,5,80,127,1212248524
6613,17,Jits_Phase_5,2,5,56,103,1212288460
6613,17,Jits_Phase_5,3,1,48,52,1212331208
6613,17,Jits_Phase_5,0,5,63,98,1212727736
6613,17,Jits_Phase_5,1,1,48,50,1212740592
6613,17,Jits_Phase_5,2,5,56,103,1212748412
6613,17,Jits_Phase_5,3,5,80,127,1212758608
6613,17,Jits_Phase_5,0,5,80,127,1213228384
6613,17,Jits_Phase_5,1,5,56,103,1213247944
6613,17,Jits_Phase_5,2,5,63,98,1213277544
6613,17,Jits_Phase_5,3,1,48,53,1213335040
6613,17,Jits_Phase_5,0,5,56,103,1213797820
6613,17,Jits_Phase_5,1,1,48,55,1213798956
6613,17,Jits_Phase_5,2,5,80,127,1213801704
6613,17,Jits_Phase_5,3,5,63,98,1213818420
6613,17,Jits_Phase_5,0,5,63,98,1214217572
6613,17,Jits_Phase_5,1,5,56,103,1214248516
6613,17,Jits_Phase_5,2,5,80,127,1214307632
6613,17,Jits_Phase_5,3,1,48,49,1214352476
6613,17,Jits_Phase_5,0,1,48,53,1214723944
6613,17,Jits_Phase_5,1,5,63,98,1214798152
6613,17,Jits_Phase_5,2,5,56,103,1214808424
6613,17,Jits_Phase_5,3,5,80,127,1214817852
6613,17,Jits_Phase_5,0,5,56,103,1215257832
6613,17,Jits_Phase_5,1,5,80,127,1215287656
6613,17,Jits_Phase_5,2,5,63,98,1215297852
6613,17,Jits_Phase_5,3,1,48,55,1215414076
6613,17,Jits_Phase_5,0,5,63,98,1215797604
6613,17,Jits_Phase_5,1,5,56,103,1215807952
6613,17,Jits_Phase_5,2,5,80,127,1215828484
6613,17,Jits_Phase_5,3,1,48,52,1215851828
6613,17,Jits_Phase_5,0,5,56,103,1216227660
6613,17,Jits_Phase_5,1,5,63,98,1216288220
6613,17,Jits_Phase_5,2,5,80,127,1216291512
6613,17,Jits_Phase_5,3,1,48,53,1216354856
6613,17,Jits_Phase_5,0,5,80,127,1216747888
6613,17,Jits_Phase_5,1,5,56,103,1216758384
6613,17,Jits_Phase_5,2,1,48,51,1216794684
6613,17,Jits_Phase_5,3,5,63,98,1216827680
6613,17,Jits_Phase_5,0,5,80,127,1217238336
6613,17,Jits_Phase_5,1,5,56,103,1217307968
6613,17,Jits_Phase_5,2,5,63,98,1217318460
6613,17,Jits_Phase_5,3,1,48,53,1217381280
6613,17,Jits_Phase_5,0,5,63,98,1217778136
6613,17,Jits_Phase_5,1,5,56,103,1217788180
6613,17,Jits_Phase_5,2,5,80,127,1217807668
6613,17,Jits_Phase_5,3,1,48,52,1217857160
6613,17,Jits_Phase_5,0,5,80,127,1218227516
6613,17,Jits_Phase_5,1,5,63,98,1218288004
6613,17,Jits_Phase_5,2,1,48,47,1218322360
6613,17,Jits_Phase_5,3,5,56,103,1218327860
6613,17,Jits_Phase_5,0,5,56,103,1218768404
6613,17,Jits_Phase_5,1,5,63,98,1218777480
6613,17,Jits_Phase_5,2,5,80,127,1218818560
6613,17,Jits_Phase_5,3,1,48,49,1218834332
6613,17,Jits_Phase_5,0,5,56,103,1219228012
6613,17,Jits_Phase_5,1,5,80,127,1219257836
6613,17,Jits_Phase_5,2,1,48,47,1219304276
6613,17,Jits_Phase_5,3,5,63,98,1219307980
6613,17,Jits_Phase_5,0,5,56,103,1219767784
6613,17,Jits_Phase_5,1,5,63,98,1219807572
6613,17,Jits_Phase_5,2,5,80,127,1219811008
6613,17,Jits_Phase_5,3,1,48,54,1219814128
6613,17,Jits_Phase_5,0,5,56,103,1220268364
6613,17,Jits_Phase_5,1,5,63,98,1220277736
6613,17,Jits_Phase_5,2,5,80,127,1220298268
6613,17,Jits_Phase_5,3,1,48,55,1220316752
6613,17,Jits_Phase_5,0,5,56,103,1220728268
6613,17,Jits_Phase_5,1,5,80,127,1220731188
6613,17,Jits_Phase_5,2,5,63,98,1220768352
6613,17,Jits_Phase_5,3,1,48,50,1220784652
6613,17,Jits_Phase_5,0,1,48,51,1221240872
6613,17,Jits_Phase_5,1,5,63,98,1221267796
6613,17,Jits_Phase_5,2,5,56,103,1221297548
6613,17,Jits_Phase_5,3,5,80,127,1221317856
6613,17,Jits_Phase_5,0,5,80,127,1221737740
6613,17,Jits_Phase_5,1,5,56,103,1221748232
6613,17,Jits_Phase_5,2,5,63,98,1221758428
6613,17,Jits_Phase_5,3,1,48,48,1221794276
6613,17,Jits_Phase_5,0,5,56,103,1222237648
6613,17,Jits_Phase_5,1,1,48,54,1222257328
6613,17,Jits_Phase_5,2,5,80,127,1222277356
6613,17,Jits_Phase_5,3,5,63,98,1222308372
6613,17,Jits_Phase_5,0,5,63,98,1222747528
6613,17,Jits_Phase_5,1,1,48,46,1222748496
6613,17,Jits_Phase_5,2,5,80,127,1222757644
6613,17,Jits_Phase_5,3,5,56,103,1222767840
6613,17,Jits_Phase_5,0,5,56,103,1223238136
6613,17,Jits_Phase_5,1,1,48,48,1223267104
6613,17,Jits_Phase_5,2,5,63,98,1223307584
6613,17,Jits_Phase_5,3,5,80,127,1223318004
6613,17,Jits_Phase_5,0,5,80,127,1223748164
6613,17,Jits_Phase_5,1,5,56,103,1223758360
6613,17,Jits_Phase_5,2,1,48,49,1223764468
6613,17,Jits_Phase_5,3,5,63,98,1223808252
6613,17,Jits_Phase_5,0,5,80,127,1224258036
6613,17,Jits_Phase_5,1,1,48,40,1224274264
6613,17,Jits_Phase_5,2,5,56,103,1224318272
6613,17,Jits_Phase_5,3,5,63,98,1224348092
6613,17,Jits_Phase_5,0,5,56,103,1224757576
6613,17,Jits_Phase_5,1,5,80,127,1224760568
6613,17,Jits_Phase_5,2,1,48,45,1224783684
6613,17,Jits_Phase_5,3,5,63,98,1224797432
6613,17,Jits_Phase_5,0,1,48,51,1225265148
6613,17,Jits_Phase_5,1,5,56,103,1225298228
6613,17,Jits_Phase_5,2,5,63,98,1225328424
6613,17,Jits_Phase_5,3,5,80,127,1225338396
6613,17,Jits_Phase_5,0,1,48,43,1225804612
6613,17,Jits_Phase_5,1,5,63,98,1225808244
6613,17,Jits_Phase_5,2,5,80,127,1225817392
6613,17,Jits_Phase_5,3,5,56,103,1225827588
6613,17,Jits_Phase_5,0,5,80,127,1226257880
6613,17,Jits_Phase_5,1,1,48,51,1226308384
6613,17,Jits_Phase_5,2,5,56,103,1226309668
6613,17,Jits_Phase_5,3,5,63,98,1226312484
6613,17,Jits_Phase_5,0,5,56,103,1226788276
6613,17,Jits_Phase_5,1,5,80,127,1226807540
6613,17,Jits_Phase_5,2,5,63,98,1226817884
6613,17,Jits_Phase_5,3,1,48,50,1226818848
6613,17,Jits_Phase_5,0,5,63,98,1227267364
6613,17,Jits_Phase_5,1,5,56,103,1227298160
6613,17,Jits_Phase_5,2,1,48,51,1227308552
6613,17,Jits_Phase_5,3,5,80,127,1227317716
6613,17,Jits_Phase_5,0,5,56,103,1227778348
6613,17,Jits_Phase_5,1,5,80,127,1227787720
6613,17,Jits_Phase_5,2,1,48,53,1227793008
6613,17,Jits_Phase_5,3,5,63,98,1227858212
6613,17,Jits_Phase_5,0,5,63,98,1228268072
6613,17,Jits_Phase_5,1,5,80,127,1228307712
6613,17,Jits_Phase_5,2,1,48,51,1228333152
6613,17,Jits_Phase_5,3,5,56,103,1228347640
6613,17,Jits_Phase_5,0,5,56,103,1228778160
6613,17,Jits_Phase_5,1,5,63,98,1228788280
6613,17,Jits_Phase_5,2,5,80,127,1228807620
6613,17,Jits_Phase_5,3,1,48,48,1228828120
6613,17,Jits_Phase_5,0,1,48,56,1229303216
6613,17,Jits_Phase_5,1,5,63,98,1229327596
6613,17,Jits_Phase_5,2,5,80,127,1229348352
6613,17,Jits_Phase_5,3,5,56,103,1229367688
6613,17,Jits_Phase_5,0,5,56,103,1229768292
6613,17,Jits_Phase_5,1,1,48,38,1229840664
6613,17,Jits_Phase_5,2,5,80,127,1229848176
6613,17,Jits_Phase_5,3,5,63,98,1229858224
6613,17,Jits_Phase_5,0,5,80,127,1230307616
6613,17,Jits_Phase_5,1,5,63,98,1230318208
6613,17,Jits_Phase_5,2,5,56,103,1230347584
6613,17,Jits_Phase_5,3,1,48,52,1230355732
6613,17,Jits_Phase_5,0,5,63,98,1230767376
6613,17,Jits_Phase_5,1,5,80,127,1230808360
6613,17,Jits_Phase_5,2,1,48,47,1230845960
6613,17,Jits_Phase_5,3,5,56,103,1230867940
6613,17,Jits_Phase_5,0,5,63,98,1231277316
6613,17,Jits_Phase_5,1,5,56,103,1231327588
6613,17,Jits_Phase_5,2,1,48,50,1231339800
6613,17,Jits_Phase_5,3,5,80,127,1231358252
6613,17,Jits_Phase_5,0,5,80,127,1231778260
6613,17,Jits_Phase_5,1,5,63,98,1231788384
6613,17,Jits_Phase_5,2,1,48,47,1231811576
6613,17,Jits_Phase_5,3,5,56,103,1231858004
6613,17,Jits_Phase_5,0,5,80,127,1232338340
6613,17,Jits_Phase_5,1,1,48,54,1232342580
6613,17,Jits_Phase_5,2,5,56,103,1232347404
6613,17,Jits_Phase_5,3,5,63,98,1232350624
6613,17,Jits_Phase_5,0,5,56,103,1232777792
6613,17,Jits_Phase_5,1,5,80,127,1232798028
6613,17,Jits_Phase_5,2,5,63,98,1232808296
6613,17,Jits_Phase_5,3,1,48,53,1232882080
6613,17,Jits_Phase_5,0,5,63,98,1233287448
6613,17,Jits_Phase_5,1,5,56,103,1233327460
6613,17,Jits_Phase_5,2,5,80,127,1233348140
6613,17,Jits_Phase_5,3,1,48,53,1233352008
6613,17,Jits_Phase_5,0,5,63,98,1233788244
6613,17,Jits_Phase_5,1,5,56,103,1233847580
6613,17,Jits_Phase_5,2,5,80,127,1233850728
6613,17,Jits_Phase_5,3,1,48,43,1233882464
6613,17,Jits_Phase_5,0,5,56,103,1234247980
6613,17,Jits_Phase_5,1,5,80,127,1234267392
6613,17,Jits_Phase_5,2,5,63,98,1234307404
6613,17,Jits_Phase_5,3,1,48,50,1234361536
6613,17,Jits_Phase_5,0,5,56,103,1234777336
6613,17,Jits_Phase_5,1,5,63,98,1234798092
6613,17,Jits_Phase_5,2,5,80,127,1234808140
6613,17,Jits_Phase_5,3,1,48,44,1234812304
6613,17,Jits_Phase_5,0,5,80,127,1235247508
6613,17,Jits_Phase_5,1,5,56,103,1235278156
6613,17,Jits_Phase_5,2,1,48,48,1235288768
6613,17,Jits_Phase_5,3,5,63,98,1235318084
6613,17,Jits_Phase_5,0,5,80,127,1235757308
6613,17,Jits_Phase_5,1,5,56,103,1235778140
6613,17,Jits_Phase_5,2,1,48,43,1235785372
6613,17,Jits_Phase_5,3,5,63,98,1235838296
6613,17,Jits_Phase_5,0,5,56,103,1236268460
6613,17,Jits_Phase_5,1,5,80,127,1236288020
6613,17,Jits_Phase_5,2,1,48,39,1236322076
6613,17,Jits_Phase_5,3,5,63,98,1236348252
6613,17,Jits_Phase_5,0,5,80,127,1236747696
6613,17,Jits_Phase_5,1,5,56,103,1236757968
6613,17,Jits_Phase_5,2,5,63,98,1236798052
6613,17,Jits_Phase_5,3,1,48,46,1236810532
6613,17,Jits_Phase_5,0,5,63,98,1237248280
6613,17,Jits_Phase_5,1,1,48,51,1237268260
6613,17,Jits_Phase_5,2,5,56,103,1237288284
6613,17,Jits_Phase_5,3,5,80,127,1237291424
6613,17,Jits_Phase_5,0,1,48,40,1237755988
6613,17,Jits_Phase_5,1,5,63,98,1237767564
6613,17,Jits_Phase_5,2,5,80,127,1237807504
6613,17,Jits_Phase_5,3,5,56,103,1237838224
6613,17,Jits_Phase_5,0,5,56,103,1238257956
6613,17,Jits_Phase_5,1,5,63,98,1238268376
6613,17,Jits_Phase_5,2,5,80,127,1238298124
6613,17,Jits_Phase_5,3,1,48,43,1238316004
6613,17,Jits_Phase_5,0,5,80,127,1238747652
6613,17,Jits_Phase_5,1,1,48,48,1238796952
6613,17,Jits_Phase_5,2,5,63,98,1238818176
6613,17,Jits_Phase_5,3,5,56,103,1238828296
6613,17,Jits_Phase_5,0,5,63,98,1239248240
6613,17,Jits_Phase_5,1,5,56,103,1239317948
6613,17,Jits_Phase_5,2,1,48,54,1239322112
6613,17,Jits_Phase_5,3,5,80,127,1239328136
6613,17,Jits_Phase_5,0,5,63,98,1239727464
6613,17,Jits_Phase_5,1,5,56,103,1239748068
6613,17,Jits_Phase_5,2,5,80,127,1239788180
6613,17,Jits_Phase_5,3,1,48,49,1239800964
6613,17,Jits_Phase_5,0,5,56,103,1240207808
6613,17,Jits_Phase_5,1,5,63,98,1240218080
6613,17,Jits_Phase_5,2,1,48,47,1240276936
6613,17,Jits_Phase_5,3,5,80,127,1240298108
6613,17,Jits_Phase_5,0,5,63,98,1240698204
6613,17,Jits_Phase_5,1,5,56,103,1240728028
6613,17,Jits_Phase_5,2,1,48,48,1240730472
6613,17,Jits_Phase_5,3,5,80,127,1240767956
6613,17,Jits_Phase_5,0,5,56,103,1241197876
6613,17,Jits_Phase_5,1,1,48,54,1241217780
6613,17,Jits_Phase_5,2,5,63,98,1241238028
6613,17,Jits_Phase_5,3,5,80,127,1241277892
6613,17,Jits_Phase_5,0,5,80,127,1241697788
6613,17,Jits_Phase_5,1,1,48,46,1241709900
6613,17,Jits_Phase_5,2,5,56,103,1241777500
6613,17,Jits_Phase_5,3,5,63,98,1241788144
6613,17,Jits_Phase_5,0,5,56,103,1242238384
6613,17,Jits_Phase_5,1,5,63,98,1242241376
6613,17,Jits_Phase_5,2,5,80,127,1242247604
6613,17,Jits_Phase_5,3,1,48,51,1242263152
6613,17,Jits_Phase_5,0,5,56,103,1242767808
6613,17,Jits_Phase_5,1,1,48,49,1242780364
6613,17,Jits_Phase_5,2,5,63,98,1242788184
6613,17,Jits_Phase_5,3,5,80,127,1242797408
6613,17,Jits_Phase_5,0,5,63,98,1243227940
6613,17,Jits_Phase_5,1,5,80,127,1243238136
6613,17,Jits_Phase_5,2,5,56,103,1243258220
6613,17,Jits_Phase_5,3,1,48,50,1243292128
6613,17,Jits_Phase_5,0,5,63,98,1243728216
6613,17,Jits_Phase_5,1,1,48,48,1243753352
6613,17,Jits_Phase_5,2,5,56,103,1243808072
6613,17,Jits_Phase_5,3,5,80,127,1243811216
6613,17,Jits_Phase_5,0,5,63,98,1244228032
6613,17,Jits_Phase_5,1,5,56,103,1244248344
6613,17,Jits_Phase_5,2,5,80,127,1244278088
6613,17,Jits_Phase_5,3,1,48,56,1244286460
6613,17,Jits_Phase_5,0,5,56,103,1244727852
6613,17,Jits_Phase_5,1,5,63,98,1244748016
6613,17,Jits_Phase_5,2,1,48,51,1244754720
6613,17,Jits_Phase_5,3,5,80,127,1244758428
6613,17,Jits_Phase_5,0,1,48,56,1245230584
6613,17,Jits_Phase_5,1,5,56,103,1245257956
6613,17,Jits_Phase_5,2,5,63,98,1245287928
6613,17,Jits_Phase_5,3,5,80,127,1245291068
6613,17,Jits_Phase_5,0,5,56,103,1245707660
6613,17,Jits_Phase_5,1,5,63,98,1245747524
6613,17,Jits_Phase_5,2,1,48,55,1245756716
6613,17,Jits_Phase_5,3,5,80,127,1245808124
6613,17,Jits_Phase_5,0,5,56,103,1246227800
6613,17,Jits_Phase_5,1,5,63,98,1246238220
6613,17,Jits_Phase_5,2,1,48,57,1246256776
6613,17,Jits_Phase_5,3,5,80,127,1246297404
6613,17,Jits_Phase_5,0,5,56,103,1246727636
6613,17,Jits_Phase_5,1,5,80,127,1246747948
6613,17,Jits_Phase_5,2,1,48,51,1246767848
6613,17,Jits_Phase_5,3,5,63,98,1246777912
6613,17,Jits_Phase_5,0,5,80,127,1247228152
6613,17,Jits_Phase_5,1,5,56,103,1247237820
6613,17,Jits_Phase_5,2,1,48,59,1247249784
6613,17,Jits_Phase_5,3,5,63,98,1247257976
6613,17,Jits_Phase_5,0,5,63,98,1247717856
6613,17,Jits_Phase_5,1,1,48,51,1247734152
6613,17,Jits_Phase_5,2,5,80,127,1247798012
6613,17,Jits_Phase_5,3,5,56,103,1247807984
6613,17,Jits_Phase_5,0,1,48,47,1248264988
6613,17,Jits_Phase_5,1,5,80,127,1248307508
6613,17,Jits_Phase_5,2,5,56,103,1248328188
6613,17,Jits_Phase_5,3,5,63,98,1248331400
6613,17,Jits_Phase_5,0,5,63,98,1248797956
6613,17,Jits_Phase_5,1,5,80,127,1248801252
6613,17,Jits_Phase_5,2,1,48,47,1248823776
6613,17,Jits_Phase_5,3,5,56,103,1248857444
6613,17,Jits_Phase_5,0,5,56,103,1249278376
6613,17,Jits_Phase_5,1,5,80,127,1249287672
6613,17,Jits_Phase_5,2,5,63,98,1249327608
6613,17,Jits_Phase_5,3,1,48,52,1249376052
6613,17,Jits_Phase_5,0,5,56,103,1249757812
6613,17,Jits_Phase_5,1,5,63,98,1249818004
6613,17,Jits_Phase_5,2,5,80,127,1249828200
6613,17,Jits_Phase_5,3,1,48,46,1249859336
6613,17,Jits_Phase_5,0,5,63,98,1250267616
6613,17,Jits_Phase_5,1,5,80,127,1250307356
6613,17,Jits_Phase_5,2,1,48,48,1250336928
6613,17,Jits_Phase_5,3,5,56,103,1250348484
6613,17,Jits_Phase_5,0,5,56,103,1250768192
6613,17,Jits_Phase_5,1,1,48,47,1250822048
6613,17,Jits_Phase_5,2,5,63,98,1250848076
6613,17,Jits_Phase_5,3,5,80,127,1250851440
6613,17,Jits_Phase_5,0,5,80,127,1251328284
6613,17,Jits_Phase_5,1,1,48,53,1251331028
6613,17,Jits_Phase_5,2,5,56,103,1251358024
6613,17,Jits_Phase_5,3,5,63,98,1251361016
6613,17,Jits_Phase_5,0,5,56,103,1251788080
6613,17,Jits_Phase_5,1,5,80,127,1251807864
6613,17,Jits_Phase_5,2,5,63,98,1251847676
6613,17,Jits_Phase_5,3,1,48,46,1251849540
6613,17,Jits_Phase_5,0,5,80,127,1252268368
6613,17,Jits_Phase_5,1,5,63,98,1252287852
6613,17,Jits_Phase_5,2,1,48,49,1252339096
6613,17,Jits_Phase_5,3,5,56,103,1252348260
6613,17,Jits_Phase_5,0,5,63,98,1252778244
6613,17,Jits_Phase_5,1,5,56,103,1252787692
6613,17,Jits_Phase_5,2,1,48,48,1252833432
6613,17,Jits_Phase_5,3,5,80,127,1252837736
6613,17,Jits_Phase_5,0,5,56,103,1253267856
6613,17,Jits_Phase_5,1,1,48,55,1253284748
6613,17,Jits_Phase_5,2,5,63,98,1253288456
6613,17,Jits_Phase_5,3,5,80,127,1253297604
6613,17,Jits_Phase_5,0,5,56,103,1253758252
6613,17,Jits_Phase_5,1,5,63,98,1253761392
6613,17,Jits_Phase_5,2,5,80,127,1253777660
6613,17,Jits_Phase_5,3,1,48,41,1253800108
6613,17,Jits_Phase_5,0,1,48,45,1254278500
6613,17,Jits_Phase_5,1,5,63,98,1254298004
6613,17,Jits_Phase_5,2,5,56,103,1254327828
6613,17,Jits_Phase_5,3,5,80,127,1254358248
6613,17,Jits_Phase_5,0,5,80,127,1254757832
6613,17,Jits_Phase_5,1,1,48,53,1254798112
6613,17,Jits_Phase_5,2,5,56,103,1254847880
6613,17,Jits_Phase_5,3,5,63,98,1254850796
6613,17,Jits_Phase_5,0,5,56,103,1255257660
6613,17,Jits_Phase_5,1,5,80,127,1255260724
6613,17,Jits_Phase_5,2,5,63,98,1255338720
6613,17,Jits_Phase_5,3,1,48,51,1255347164
6613,17,Jits_Phase_5,0,5,80,127,1255758164
6613,17,Jits_Phase_5,1,5,63,98,1255817804
6613,17,Jits_Phase_5,2,1,48,52,1255821968
6613,17,Jits_Phase_5,3,5,56,103,1255848368
6613,17,Jits_Phase_5,0,5,63,98,1256257852
6613,17,Jits_Phase_5,1,5,80,127,1256268124
6613,17,Jits_Phase_5,2,5,56,103,1256337728
6613,17,Jits_Phase_5,3,1,48,51,1256343236
6613,17,Jits_Phase_5,0,5,56,103,1256817988
6613,17,Jits_Phase_5,1,1,48,44,1256842152
6613,17,Jits_Phase_5,2,5,80,127,1256847880
6613,17,Jits_Phase_5,3,5,63,98,1256898004
6613,17,Jits_Phase_5,0,1,48,52,1257368664
6613,17,Jits_Phase_5,1,5,63,98,1257407868
6613,17,Jits_Phase_5,2,5,56,103,1257437840
6613,17,Jits_Phase_5,3,5,80,127,1257440908
6613,17,Jits_Phase_5,0,5,63,98,1257907620
6613,17,Jits_Phase_5,1,1,48,52,1257913436
6613,17,Jits_Phase_5,2,5,80,127,1257928072
6613,17,Jits_Phase_5,3,5,56,103,1257938344
6613,17,Jits_Phase_5,0,5,56,103,1258417636
6613,17,Jits_Phase_5,1,5,63,98,1258420476
6613,17,Jits_Phase_5,2,5,80,127,1258437944
6613,17,Jits_Phase_5,3,1,48,52,1258445772
6613,17,Jits_Phase_5,0,5,56,103,1258868020
6613,17,Jits_Phase_5,1,5,63,98,1258878440
6613,17,Jits_Phase_5,2,5,80,127,1258907964
6613,17,Jits_Phase_5,3,1,48,55,1258935960
6613,17,Jits_Phase_5,0,5,63,98,1259388384
6613,17,Jits_Phase_5,1,5,80,127,1259407720
6613,17,Jits_Phase_5,2,1,48,59,1259410692
6613,17,Jits_Phase_5,3,5,56,103,1259447876
6613,17,Jits_Phase_5,0,1,48,51,1259906612
6613,17,Jits_Phase_5,1,5,56,103,1259917720
6613,17,Jits_Phase_5,2,5,63,98,1259957732
6613,17,Jits_Phase_5,3,5,80,127,1259960948
6613,17,Jits_Phase_5,0,5,80,127,1260357988
6613,17,Jits_Phase_5,1,5,56,103,1260397924
6613,17,Jits_Phase_5,2,1,48,48,1260442696
6613,17,Jits_Phase_5,3,5,63,98,1260448116
6613,17,Jits_Phase_5,0,5,56,103,1260917988
6613,17,Jits_Phase_5,1,5,80,127,1260928556
6613,17,Jits_Phase_5,2,1,48,54,1260941640
6613,17,Jits_Phase_5,3,5,63,98,1260958148
6613,17,Jits_Phase_5,0,5,56,103,1261367780
6613,17,Jits_Phase_5,1,5,80,127,1261407496
6613,17,Jits_Phase_5,2,1,48,58,1261429796
6613,17,Jits_Phase_5,3,5,63,98,1261457760
6613,17,Jits_Phase_5,0,5,56,103,1261868516
6613,17,Jits_Phase_5,1,1,48,58,1261906792
6613,17,Jits_Phase_5,2,5,80,127,1261908524
6613,17,Jits_Phase_5,3,5,63,98,1261957676
6613,17,Jits_Phase_5,0,5,80,127,1262357872
6613,17,Jits_Phase_5,1,5,63,98,1262437740
6613,17,Jits_Phase_5,2,5,56,103,1262448084
6613,17,Jits_Phase_5,0,5,80,127,1262907648
6613,17,Jits_Phase_5,1,5,56,103,1262917992
6613,17,Jits_Phase_5,2,5,63,98,1262937404
6613,17,Jits_Phase_5,3,1,48,51,1262940600
6613,17,Jits_Phase_5,0,5,63,98,1263377668
6613,17,Jits_Phase_5,1,1,48,53,1263421016
6613,17,Jits_Phase_5,2,5,56,103,1263448612
6613,17,Jits_Phase_5,3,5,80,127,1263451528
6613,17,Jits_Phase_5,0,5,80,127,1263868492
6613,17,Jits_Phase_5,1,5,63,98,1263917496
6613,17,Jits_Phase_5,2,1,48,54,1263958256
6613,17,Jits_Phase_5,3,5,56,103,1263959596
6613,17,Jits_Phase_5,0,5,63,98,1264407892
6613,17,Jits_Phase_5,1,5,56,103,1264447832
6613,17,Jits_Phase_5,2,1,48,48,1264454460
6613,17,Jits_Phase_5,3,5,80,127,1264458244
6613,17,Jits_Phase_5,0,5,63,98,1264898504
6613,17,Jits_Phase_5,1,5,56,103,1264917844
6613,17,Jits_Phase_5,2,5,80,127,1264938376
6613,17,Jits_Phase_5,3,1,48,50,1264965532
6613,17,Jits_Phase_5,0,5,80,127,1265358148
6613,17,Jits_Phase_5,1,5,56,103,1265368716
6613,17,Jits_Phase_5,2,5,63,98,1265388004
6613,17,Jits_Phase_5,3,1,48,49,1265436596
6613,17,Jits_Phase_5,0,5,63,98,1265887724
6613,17,Jits_Phase_5,1,1,48,45,1265907884
6613,17,Jits_Phase_5,2,5,56,103,1265927536
6613,17,Jits_Phase_5,3,5,80,127,1265958328
6613,17,Jits_Phase_5,0,5,56,103,1266348668
6613,17,Jits_Phase_5,1,5,63,98,1266378044
6613,17,Jits_Phase_5,2,1,48,47,1266400720
6613,17,Jits_Phase_5,3,5,80,127,1266407736
6613,17,Jits_Phase_5,0,5,80,127,1266768432
6613,17,Jits_Phase_5,1,5,56,103,1266837960
6613,17,Jits_Phase_5,2,5,63,98,1266841028
6613,17,Jits_Phase_5,3,1,48,51,1266858536
6613,17,Jits_Phase_5,0,5,56,103,1267278152
6613,17,Jits_Phase_5,1,1,48,41,1267311840
6613,17,Jits_Phase_5,2,5,63,98,1267328348
6613,17,Jits_Phase_5,3,5,80,127,1267358096
6613,17,Jits_Phase_5,0,5,63,98,1267757468
6613,17,Jits_Phase_5,1,5,80,127,1267760680
6613,17,Jits_Phase_5,2,1,48,40,1267805988
6613,17,Jits_Phase_5,3,5,56,103,1267817696
6613,17,Jits_Phase_5,0,5,56,103,1268287844
6613,17,Jits_Phase_5,1,1,48,23,1268294856
6613,17,Jits_Phase_5,2,5,80,127,1268298184
6613,17,Jits_Phase_5,3,5,63,98,1268348456
6613,17,Jits_Phase_5,0,5,63,98,1268757792
6613,17,Jits_Phase_5,1,5,56,103,1268768284
6613,17,Jits_Phase_5,2,1,48,43,1268787744
6613,17,Jits_Phase_5,3,5,80,127,1268797804
6613,17,Jits_Phase_5,0,5,63,98,1269288476
6613,17,Jits_Phase_5,1,5,80,127,1269291616
6613,17,Jits_Phase_5,2,1,48,47,1269295112
6613,17,Jits_Phase_5,3,5,56,103,1269317992
6613,17,Jits_Phase_5,0,1,48,51,1269797108
6613,17,Jits_Phase_5,1,5,63,98,1269807540
6613,17,Jits_Phase_5,2,5,56,103,1269827844
6613,17,Jits_Phase_5,3,5,80,127,1269830916
6613,17,Jits_Phase_5,0,5,63,98,1270268404
6613,17,Jits_Phase_5,1,1,48,51,1270306740
6613,17,Jits_Phase_5,2,5,56,103,1270338004
6613,17,Jits_Phase_5,3,5,80,127,1270358536
6613,17,Jits_Phase_5,0,5,56,103,1270757744
6613,17,Jits_Phase_5,1,5,63,98,1270767940
6613,17,Jits_Phase_5,2,1,48,44,1270811360
6613,17,Jits_Phase_5,3,5,80,127,1270858060
6613,17,Jits_Phase_5,0,1,48,46,1271259920
6613,17,Jits_Phase_5,1,5,56,103,1271277880
6613,17,Jits_Phase_5,2,5,80,127,1271317892
6613,17,Jits_Phase_5,3,5,63,98,1271328236
6613,17,Jits_Phase_5,0,1,48,49,1271750452
6613,17,Jits_Phase_5,1,5,56,103,1271798528
6613,17,Jits_Phase_5,2,5,63,98,1271827756
6613,17,Jits_Phase_5,3,5,80,127,1271857492
6613,17,Jits_Phase_5,0,5,80,127,1272257884
6613,17,Jits_Phase_5,1,1,48,47,1272297548
6613,17,Jits_Phase_5,2,5,63,98,1272298960
6613,17,Jits_Phase_5,3,5,56,103,1272318300
6613,17,Jits_Phase_5,0,1,48,55,1272795988
6613,17,Jits_Phase_5,1,5,56,103,1272797496
6613,17,Jits_Phase_5,2,5,80,127,1272817980
6613,17,Jits_Phase_5,3,5,63,98,1272837616
6613,17,Jits_Phase_5,0,5,63,98,1273267656
6613,17,Jits_Phase_5,1,5,56,103,1273277776
6613,17,Jits_Phase_5,2,1,48,54,1273321600
6613,17,Jits_Phase_5,3,5,80,127,1273338180
6613,17,Jits_Phase_5,0,5,56,103,1273768300
6613,17,Jits_Phase_5,1,1,48,51,1273811056
6613,17,Jits_Phase_5,2,5,63,98,1273837924
6613,17,Jits_Phase_5,3,5,80,127,1273858384
6613,17,Jits_Phase_5,0,5,56,103,1274267916
6613,17,Jits_Phase_5,1,5,63,98,1274297592
6613,17,Jits_Phase_5,2,1,48,51,1274323404
6613,17,Jits_Phase_5,3,5,80,127,1274337596
6613,17,Jits_Phase_5,0,5,63,98,1274757492
6613,17,Jits_Phase_5,1,1,48,59,1274800468
6613,17,Jits_Phase_5,2,5,56,103,1274807612
6613,17,Jits_Phase_5,3,5,80,127,1274818028
6613,17,Jits_Phase_5,0,5,56,103,1275298144
6613,17,Jits_Phase_5,1,1,48,55,1275316556
6613,17,Jits_Phase_5,2,5,63,98,1275348416
6613,17,Jits_Phase_5,3,5,80,127,1275357488
6613,17,Jits_Phase_5,0,5,56,103,1275768316
6613,17,Jits_Phase_5,1,5,63,98,1275778440
6613,17,Jits_Phase_5,2,1,48,52,1275838576
6613,17,Jits_Phase_5,3,5,80,127,1275858372
6613,17,Jits_Phase_5,0,9999,9999,9999,1191515236
6613,17,Jits_Phase_5,1,9999,9999,9999,1192015992
6613,17,Jits_Phase_5,2,9999,9999,9999,1192515648
6613,17,Jits_Phase_5,3,9999,9999,9999,1193015372
6613,17,Jits_Phase_5,4,9999,9999,9999,1193515068
6613,17,Jits_Phase_5,5,9999,9999,9999,1194015812
6613,17,Jits_Phase_5,6,9999,9999,9999,1194515556
6613,17,Jits_Phase_5,7,9999,9999,9999,1195015248
6613,17,Jits_Phase_5,8,9999,9999,9999,1195515972
6613,17,Jits_Phase_5,9,9999,9999,9999,1196015732
6613,17,Jits_Phase_5,10,9999,9999,9999,1196515396
6613,17,Jits_Phase_5,11,9999,9999,9999,1197015156
6613,17,Jits_Phase_5,12,9999,9999,9999,1197515872
6613,17,Jits_Phase_5,13,9999,9999,9999,1198015544
6613,17,Jits_Phase_5,14,9999,9999,9999,1198515296
6613,17,Jits_Phase_5,15,9999,9999,9999,1199016028
6613,17,Jits_Phase_5,16,9999,9999,9999,1199515716
6613,17,Jits_Phase_5,17,9999,9999,9999,1200015464
6613,17,Jits_Phase_5,18,9999,9999,9999,1200515152
6613,17,Jits_Phase_5,19,9999,9999,9999,1201015888
6613,17,Jits_Phase_5,20,9999,9999,9999,1201515576
6613,17,Jits_Phase_5,21,9999,9999,9999,1202015344
6613,17,Jits_Phase_5,22,9999,9999,9999,1202516076
6613,17,Jits_Phase_5,23,9999,9999,9999,1203015768
6613,17,Jits_Phase_5,24,9999,9999,9999,1203515460
6613,17,Jits_Phase_5,25,9999,9999,9999,1204015216
6613,17,Jits_Phase_5,26,9999,9999,9999,1204515956
6613,17,Jits_Phase_5,27,9999,9999,9999,1205015620
6613,17,Jits_Phase_5,28,9999,9999,9999,1205515388
6613,17,Jits_Phase_5,29,9999,9999,9999,1206016124
6613,17,Jits_Phase_5,30,9999,9999,9999,1206515812
6613,17,Jits_Phase_5,31,9999,9999,9999,1207015480
6613,17,Jits_Phase_5,32,9999,9999,9999,1207515228
6613,17,Jits_Phase_5,33,9999,9999,9999,1208015948
6613,17,Jits_Phase_5,34,9999,9999,9999,1208515636
6613,17,Jits_Phase_5,35,9999,9999,9999,1209015404
6613,17,Jits_Phase_5,36,9999,9999,9999,1209515068
6613,17,Jits_Phase_5,37,9999,9999,9999,1210015864
6613,17,Jits_Phase_5,38,9999,9999,9999,1210515552
6613,17,Jits_Phase_5,39,9999,9999,9999,1211015232
6613,17,Jits_Phase_5,40,9999,9999,9999,1211515956
6613,17,Jits_Phase_5,41,9999,9999,9999,1212015716
6613,17,Jits_Phase_5,42,9999,9999,9999,1212515408
6613,17,Jits_Phase_5,43,9999,9999,9999,1213015156
6613,17,Jits_Phase_5,44,9999,9999,9999,1213515876
6613,17,Jits_Phase_5,45,9999,9999,9999,1214015564
6613,17,Jits_Phase_5,46,9999,9999,9999,1214515252
6613,17,Jits_Phase_5,47,9999,9999,9999,1215016056
6613,17,Jits_Phase_5,48,9999,9999,9999,1215525992
6613,17,Jits_Phase_5,49,9999,9999,9999,1216025692
6613,17,Jits_Phase_5,50,9999,9999,9999,1216525432
6613,17,Jits_Phase_5,51,9999,9999,9999,1217025120
6613,17,Jits_Phase_5,52,9999,9999,9999,1217525856
6613,17,Jits_Phase_5,53,9999,9999,9999,1218025548
6613,17,Jits_Phase_5,54,9999,9999,9999,1218525276
6613,17,Jits_Phase_5,55,9999,9999,9999,1219026008
6613,17,Jits_Phase_5,56,9999,9999,9999,1219525696
6613,17,Jits_Phase_5,57,9999,9999,9999,1220025452
6613,17,Jits_Phase_5,58,9999,9999,9999,1220525140
6613,17,Jits_Phase_5,59,9999,9999,9999,1221025864
6613,17,Jits_Phase_5,60,9999,9999,9999,1221525628
6613,17,Jits_Phase_5,61,9999,9999,9999,1222025300
6613,17,Jits_Phase_5,62,9999,9999,9999,1222526040
6613,17,Jits_Phase_5,63,9999,9999,9999,1223025728
6613,17,Jits_Phase_5,64,9999,9999,9999,1223545932
6613,17,Jits_Phase_5,65,9999,9999,9999,1224045692
6613,17,Jits_Phase_5,66,9999,9999,9999,1224545384
6613,17,Jits_Phase_5,67,9999,9999,9999,1225046108
6613,17,Jits_Phase_5,68,9999,9999,9999,1225556060
6613,17,Jits_Phase_5,69,9999,9999,9999,1226055736
6613,17,Jits_Phase_5,70,9999,9999,9999,1226555480
6613,17,Jits_Phase_5,71,9999,9999,9999,1227055168
6613,17,Jits_Phase_5,72,9999,9999,9999,1227555900
6613,17,Jits_Phase_5,73,9999,9999,9999,1228055652
6613,17,Jits_Phase_5,74,9999,9999,9999,1228555340
6613,17,Jits_Phase_5,75,9999,9999,9999,1229056064
6613,17,Jits_Phase_5,76,9999,9999,9999,1229566024
6613,17,Jits_Phase_5,77,9999,9999,9999,1230065776
6613,17,Jits_Phase_5,78,9999,9999,9999,1230565444
6613,17,Jits_Phase_5,79,9999,9999,9999,1231065208
6613,17,Jits_Phase_5,80,9999,9999,9999,1231565928
6613,17,Jits_Phase_5,81,9999,9999,9999,1232045156
6613,17,Jits_Phase_5,82,9999,9999,9999,1232545892
6613,17,Jits_Phase_5,83,9999,9999,9999,1233045584
6613,17,Jits_Phase_5,84,9999,9999,9999,1233545272
6613,17,Jits_Phase_5,85,9999,9999,9999,1234046064
6613,17,Jits_Phase_5,86,9999,9999,9999,1234545736
6613,17,Jits_Phase_5,87,9999,9999,9999,1235045500
6613,17,Jits_Phase_5,88,9999,9999,9999,1235545188
6613,17,Jits_Phase_5,89,9999,9999,9999,1236045924
6613,17,Jits_Phase_5,90,9999,9999,9999,1236545616
6613,17,Jits_Phase_5,91,9999,9999,9999,1237045300
6613,17,Jits_Phase_5,92,9999,9999,9999,1237546096
6613,17,Jits_Phase_5,93,9999,9999,9999,1238045772
6613,17,Jits_Phase_5,94,9999,9999,9999,1238545520
6613,17,Jits_Phase_5,95,9999,9999,9999,1239045212
6613,17,Jits_Phase_5,96,9999,9999,9999,1239545948
6613,17,Jits_Phase_5,97,9999,9999,9999,1239995476
6613,17,Jits_Phase_5,98,9999,9999,9999,1240495224
6613,17,Jits_Phase_5,99,9999,9999,9999,1240995956
6613,17,Jits_Phase_5,100,9999,9999,9999,1241495628
6613,17,Jits_Phase_5,101,9999,9999,9999,1241995324
6613,17,Jits_Phase_5,102,9999,9999,9999,1242496124
6613,17,Jits_Phase_5,103,9999,9999,9999,1243006008
6613,17,Jits_Phase_5,104,9999,9999,9999,1243505768
6613,17,Jits_Phase_5,105,9999,9999,9999,1244005436
6613,17,Jits_Phase_5,106,9999,9999,9999,1244505188
6613,17,Jits_Phase_5,107,9999,9999,9999,1245005908
6613,17,Jits_Phase_5,108,9999,9999,9999,1245505592
6613,17,Jits_Phase_5,109,9999,9999,9999,1246005340
6613,17,Jits_Phase_5,110,9999,9999,9999,1246506076
6613,17,Jits_Phase_5,111,9999,9999,9999,1247005764
6613,17,Jits_Phase_5,112,9999,9999,9999,1247505532
6613,17,Jits_Phase_5,113,9999,9999,9999,1248005200
6613,17,Jits_Phase_5,114,9999,9999,9999,1248555068
6613,17,Jits_Phase_5,115,9999,9999,9999,1249055856
6613,17,Jits_Phase_5,116,9999,9999,9999,1249555528
6613,17,Jits_Phase_5,117,9999,9999,9999,1250055220
6613,17,Jits_Phase_5,118,9999,9999,9999,1250555960
6613,17,Jits_Phase_5,119,9999,9999,9999,1251055700
6613,17,Jits_Phase_5,120,9999,9999,9999,1251555436
6613,17,Jits_Phase_5,121,9999,9999,9999,1252055124
6613,17,Jits_Phase_5,122,9999,9999,9999,1252555860
6613,17,Jits_Phase_5,123,9999,9999,9999,1253055596
6613,17,Jits_Phase_5,124,9999,9999,9999,1253555272
6613,17,Jits_Phase_5,125,9999,9999,9999,1254055992
6613,17,Jits_Phase_5,126,9999,9999,9999,1254555764
6613,17,Jits_Phase_5,127,9999,9999,9999,1255055432
6613,17,Jits_Phase_5,128,9999,9999,9999,1255555184
6613,17,Jits_Phase_5,129,9999,9999,9999,1256055920
6613,17,Jits_Phase_5,130,9999,9999,9999,1256555608
6613,17,Jits_Phase_5,131,9999,9999,9999,1257155672
6613,17,Jits_Phase_5,132,9999,9999,9999,1257655356
6613,17,Jits_Phase_5,133,9999,9999,9999,1258155108
6613,17,Jits_Phase_5,134,9999,9999,9999,1258655824
6613,17,Jits_Phase_5,135,9999,9999,9999,1259155512
6613,17,Jits_Phase_5,136,9999,9999,9999,1259655276
6613,17,Jits_Phase_5,137,9999,9999,9999,1260155992
6613,17,Jits_Phase_5,138,9999,9999,9999,1260655740
6613,17,Jits_Phase_5,139,9999,9999,9999,1261155436
6613,17,Jits_Phase_5,140,9999,9999,9999,1261655124
6613,17,Jits_Phase_5,141,9999,9999,9999,1262155864
6613,17,Jits_Phase_5,142,9999,9999,9999,1262655576
6613,17,Jits_Phase_5,143,9999,9999,9999,1263155284
6613,17,Jits_Phase_5,144,9999,9999,9999,1263656012
6613,17,Jits_Phase_5,145,9999,9999,9999,1264155764
6613,17,Jits_Phase_5,146,9999,9999,9999,1264655456
6613,17,Jits_Phase_5,147,9999,9999,9999,1265155136
6613,17,Jits_Phase_5,148,9999,9999,9999,1265655924
6613,17,Jits_Phase_5,149,9999,9999,9999,1266155616
6613,17,Jits_Phase_5,150,9999,9999,9999,1266556008
6613,17,Jits_Phase_5,151,9999,9999,9999,1267055692
6613,17,Jits_Phase_5,152,9999,9999,9999,1267555384
6613,17,Jits_Phase_5,153,9999,9999,9999,1268055136
6613,17,Jits_Phase_5,154,9999,9999,9999,1268555860
6613,17,Jits_Phase_5,155,9999,9999,9999,1269055544
6613,17,Jits_Phase_5,156,9999,9999,9999,1269555284
6613,17,Jits_Phase_5,157,9999,9999,9999,1270056000
6613,17,Jits_Phase_5,158,9999,9999,9999,1270555752
6613,17,Jits_Phase_5,159,9999,9999,9999,1271055424
6613,17,Jits_Phase_5,160,9999,9999,9999,1271555192
6613,17,Jits_Phase_5,161,9999,9999,9999,1272055916
6613,17,Jits_Phase_5,162,9999,9999,9999,1272555588
6613,17,Jits_Phase_5,163,9999,9999,9999,1273055332
6613,17,Jits_Phase_5,164,9999,9999,9999,1273556044
6613,17,Jits_Phase_5,165,9999,9999,9999,1274055796
6613,17,Jits_Phase_5,166,9999,9999,9999,1274555484
6613,17,Jits_Phase_5,167,9999,9999,9999,1275055172
6613,17,Jits_Phase_5,168,9999,9999,9999,1275555900
6613,17,Jits_Phase_5,169,9999,9999,9999,1276055664
6614,18,Jits_Linear_8,0,5,56,103,1285803372
6614,18,Jits_Linear_8,1,5,63,98,1285806544
6614,18,Jits_Linear_8,2,5,80,127,1285809588
6614,18,Jits_Linear_8,0,5,56,103,1286622560
6614,18,Jits_Linear_8,1,5,63,98,1286625656
6614,18,Jits_Linear_8,2,5,80,127,1286628928
6614,18,Jits_Linear_8,0,5,80,127,1287383444
6614,18,Jits_Linear_8,1,5,63,98,1287472484
6614,18,Jits_Linear_8,2,5,56,103,1287482904
6614,18,Jits_Linear_8,0,5,56,103,1288233320
6614,18,Jits_Linear_8,1,5,63,98,1288242468
6614,18,Jits_Linear_8,2,5,80,127,1288332676
6614,18,Jits_Linear_8,0,5,63,98,1289023152
6614,18,Jits_Linear_8,1,5,80,127,1289052380
6614,18,Jits_Linear_8,2,1,48,30,1289079240
6614,18,Jits_Linear_8,3,5,56,103,1289083244
6614,18,Jits_Linear_8,0,1,48,29,1289810936
6614,18,Jits_Linear_8,1,5,56,103,1289843196
6614,18,Jits_Linear_8,2,5,80,127,1289943360
6614,18,Jits_Linear_8,3,5,63,98,1289992612
6614,18,Jits_Linear_8,0,5,56,103,1290653224
6614,18,Jits_Linear_8,1,5,80,127,1290703204
6614,18,Jits_Linear_8,2,5,63,98,1290743092
6614,18,Jits_Linear_8,3,1,48,37,1290753036
6614,18,Jits_Linear_8,0,5,80,127,1291492872
6614,18,Jits_Linear_8,1,5,63,98,1291522476
6614,18,Jits_Linear_8,2,1,48,27,1291557504
6614,18,Jits_Linear_8,3,5,56,103,1291593044
6614,18,Jits_Linear_8,0,5,63,98,1292333472
6614,18,Jits_Linear_8,1,1,48,50,1292336592
6614,18,Jits_Linear_8,2,5,56,103,1292363068
6614,18,Jits_Linear_8,3,5,80,127,1292422484
6614,18,Jits_Linear_8,0,5,56,103,1293083104
6614,18,Jits_Linear_8,1,5,80,127,1293086244
6614,18,Jits_Linear_8,2,1,48,50,1293156572
6614,18,Jits_Linear_8,3,5,63,98,1293202972
6614,18,Jits_Linear_8,0,1,48,49,1293933552
6614,18,Jits_Linear_8,1,5,56,103,1293963020
6614,18,Jits_Linear_8,2,5,80,127,1294002516
6614,18,Jits_Linear_8,3,5,63,98,1294012784
6614,18,Jits_Linear_8,0,5,56,103,1294722332
6614,18,Jits_Linear_8,1,1,48,48,1294743460
6614,18,Jits_Linear_8,2,5,80,127,1294744656
6614,18,Jits_Linear_8,3,5,63,98,1294822904
6614,18,Jits_Linear_8,0,5,80,127,1295512960
6614,18,Jits_Linear_8,1,1,48,47,1295594996
6614,18,Jits_Linear_8,2,5,56,103,1295613232
6614,18,Jits_Linear_8,3,5,63,98,1295622380
6614,18,Jits_Linear_8,0,5,63,98,1296282992
6614,18,Jits_Linear_8,1,5,80,127,1296343384
6614,18,Jits_Linear_8,2,5,56,103,1296352828
6614,18,Jits_Linear_8,3,1,48,46,1296427368
6614,18,Jits_Linear_8,0,5,56,103,1297082888
6614,18,Jits_Linear_8,1,1,48,49,1297104664
6614,18,Jits_Linear_8,2,5,63,98,1297153412
6614,18,Jits_Linear_8,3,5,80,127,1297156848
6614,18,Jits_Linear_8,0,1,48,53,1297890932
6614,18,Jits_Linear_8,1,5,63,98,1297913056
6614,18,Jits_Linear_8,2,5,56,103,1297963408
6614,18,Jits_Linear_8,3,5,80,127,1297966400
6614,18,Jits_Linear_8,0,5,56,103,1298663056
6614,18,Jits_Linear_8,1,5,80,127,1298666120
6614,18,Jits_Linear_8,2,1,48,51,1298681020
6614,18,Jits_Linear_8,3,5,63,98,1298752884
6614,18,Jits_Linear_8,0,1,48,59,1299477456
6614,18,Jits_Linear_8,1,5,63,98,1299493372
6614,18,Jits_Linear_8,2,5,56,103,1299583344
6614,18,Jits_Linear_8,3,5,80,127,1299612944
6614,18,Jits_Linear_8,0,5,56,103,1300272460
6614,18,Jits_Linear_8,1,1,48,49,1300299620
6614,18,Jits_Linear_8,2,5,63,98,1300372928
6614,18,Jits_Linear_8,3,5,80,127,1300402736
6614,18,Jits_Linear_8,0,1,48,46,1301076096
6614,18,Jits_Linear_8,1,5,63,98,1301082568
6614,18,Jits_Linear_8,2,5,56,103,1301092988
6614,18,Jits_Linear_8,3,5,80,127,1301182808
6614,18,Jits_Linear_8,0,1,48,53,1301845356
6614,18,Jits_Linear_8,1,5,63,98,1301883220
6614,18,Jits_Linear_8,2,5,56,103,1301963076
6614,18,Jits_Linear_8,3,5,80,127,1301966216
6614,18,Jits_Linear_8,0,5,80,127,1302622516
6614,18,Jits_Linear_8,1,5,63,98,1302643124
6614,18,Jits_Linear_8,2,1,48,51,1302669984
6614,18,Jits_Linear_8,3,5,56,103,1302702460
6614,18,Jits_Linear_8,0,5,56,103,1303442888
6614,18,Jits_Linear_8,1,5,63,98,1303463188
6614,18,Jits_Linear_8,2,1,48,46,1303464172
6614,18,Jits_Linear_8,3,5,80,127,1303467824
6614,18,Jits_Linear_8,0,5,63,98,1304162852
6614,18,Jits_Linear_8,1,5,80,127,1304242648
6614,18,Jits_Linear_8,2,1,48,50,1304243616
6614,18,Jits_Linear_8,3,5,56,103,1304252764
6614,18,Jits_Linear_8,0,5,63,98,1304962460
6614,18,Jits_Linear_8,1,5,56,103,1304982920
6614,18,Jits_Linear_8,2,1,48,55,1304997572
6614,18,Jits_Linear_8,3,5,80,127,1305033188
6614,18,Jits_Linear_8,0,5,80,127,1305743028
6614,18,Jits_Linear_8,1,1,48,47,1305744744
6614,18,Jits_Linear_8,2,5,63,98,1305782888
6614,18,Jits_Linear_8,3,5,56,103,1305803048
6614,18,Jits_Linear_8,0,1,48,57,1306519456
6614,18,Jits_Linear_8,1,5,56,103,1306552908
6614,18,Jits_Linear_8,2,5,63,98,1306562956
6614,18,Jits_Linear_8,3,5,80,127,1306583340
6614,18,Jits_Linear_8,0,5,56,103,1307253172
6614,18,Jits_Linear_8,1,5,63,98,1307343236
6614,18,Jits_Linear_8,2,1,48,51,1307344720
6614,18,Jits_Linear_8,3,5,80,127,1307402744
6614,18,Jits_Linear_8,0,5,80,127,1308053016
6614,18,Jits_Linear_8,1,5,56,103,1308063140
6614,18,Jits_Linear_8,2,5,63,98,1308132624
6614,18,Jits_Linear_8,3,1,48,51,1308159928
6614,18,Jits_Linear_8,0,1,48,50,1308850896
6614,18,Jits_Linear_8,1,5,63,98,1308852852
6614,18,Jits_Linear_8,2,5,80,127,1308943900
6614,18,Jits_Linear_8,3,5,56,103,1308953048
6614,18,Jits_Linear_8,0,5,63,98,1309552976
6614,18,Jits_Linear_8,1,5,80,127,1309603180
6614,18,Jits_Linear_8,2,5,56,103,1309662748
6614,18,Jits_Linear_8,3,1,48,49,1309731448
6614,18,Jits_Linear_8,0,5,56,103,1310342616
6614,18,Jits_Linear_8,1,5,80,127,1310392748
6614,18,Jits_Linear_8,2,5,63,98,1310413132
6614,18,Jits_Linear_8,3,1,48,43,1310427412
6614,18,Jits_Linear_8,0,5,56,103,1311072712
6614,18,Jits_Linear_8,1,5,80,127,1311133028
6614,18,Jits_Linear_8,2,1,48,52,1311172864
6614,18,Jits_Linear_8,3,5,63,98,1311202704
6614,18,Jits_Linear_8,0,5,56,103,1311842632
6614,18,Jits_Linear_8,1,5,80,127,1311873356
6614,18,Jits_Linear_8,2,5,63,98,1311903032
6614,18,Jits_Linear_8,3,1,48,44,1311905924
6614,18,Jits_Linear_8,0,5,56,103,1312642468
6614,18,Jits_Linear_8,1,1,48,51,1312647832
6614,18,Jits_Linear_8,2,5,80,127,1312662772
6614,18,Jits_Linear_8,3,5,63,98,1312723460
6614,18,Jits_Linear_8,0,1,48,31,1313373576
6614,18,Jits_Linear_8,1,5,80,127,1313483124
6614,18,Jits_Linear_8,2,5,56,103,1313493320
6614,18,Jits_Linear_8,3,5,63,98,1313502844
6614,18,Jits_Linear_8,0,5,56,103,1314192704
6614,18,Jits_Linear_8,1,1,48,52,1314196268
6614,18,Jits_Linear_8,2,5,80,127,1314232636
6614,18,Jits_Linear_8,3,5,63,98,1314263584
6614,18,Jits_Linear_8,0,5,56,103,1314912608
6614,18,Jits_Linear_8,1,5,63,98,1314943484
6614,18,Jits_Linear_8,2,1,48,43,1314962192
6614,18,Jits_Linear_8,3,5,80,127,1314983264
6614,18,Jits_Linear_8,0,5,80,127,1315613104
6614,18,Jits_Linear_8,1,5,63,98,1315663088
6614,18,Jits_Linear_8,2,1,48,50,1315677664
6614,18,Jits_Linear_8,3,5,56,103,1315682864
6614,18,Jits_Linear_8,0,5,56,103,1316393608
6614,18,Jits_Linear_8,1,1,48,45,1316426548
6614,18,Jits_Linear_8,2,5,80,127,1316462840
6614,18,Jits_Linear_8,3,5,63,98,1316523588
6614,18,Jits_Linear_8,0,5,80,127,1317132624
6614,18,Jits_Linear_8,1,1,48,46,1317198972
6614,18,Jits_Linear_8,2,5,63,98,1317222828
6614,18,Jits_Linear_8,3,5,56,103,1317243212
6614,18,Jits_Linear_8,0,5,63,98,1317892688
6614,18,Jits_Linear_8,1,5,56,103,1317912924
6614,18,Jits_Linear_8,2,1,48,42,1317946540
6614,18,Jits_Linear_8,3,5,80,127,1317953008
6614,18,Jits_Linear_8,0,5,80,127,1318592772
6614,18,Jits_Linear_8,1,5,63,98,1318613456
6614,18,Jits_Linear_8,2,1,48,44,1318638472
6614,18,Jits_Linear_8,3,5,56,103,1318693416
6614,18,Jits_Linear_8,0,5,63,98,1319323008
6614,18,Jits_Linear_8,1,1,48,48,1319361872
6614,18,Jits_Linear_8,2,5,56,103,1319432716
6614,18,Jits_Linear_8,3,5,80,127,1319435708
6614,18,Jits_Linear_8,0,1,48,46,1320075444
6614,18,Jits_Linear_8,1,5,63,98,1320082812
6614,18,Jits_Linear_8,2,5,56,103,1320093004
6614,18,Jits_Linear_8,3,5,80,127,1320096072
6614,18,Jits_Linear_8,0,1,48,49,1320754776
6614,18,Jits_Linear_8,1,5,56,103,1320802604
6614,18,Jits_Linear_8,2,5,80,127,1320922548
6614,18,Jits_Linear_8,3,5,63,98,1320962512
6614,18,Jits_Linear_8,0,5,56,103,1321553372
6614,18,Jits_Linear_8,1,5,80,127,1321633096
6614,18,Jits_Linear_8,2,5,63,98,1321652584
6614,18,Jits_Linear_8,3,1,48,50,1321686492
6614,18,Jits_Linear_8,0,5,56,103,1322283612
6614,18,Jits_Linear_8,1,5,63,98,1322393004
6614,18,Jits_Linear_8,2,5,80,127,1322396368
6614,18,Jits_Linear_8,3,1,48,49,1322417772
6614,18,Jits_Linear_8,0,5,56,103,1323043148
6614,18,Jits_Linear_8,1,5,80,127,1323072972
6614,18,Jits_Linear_8,2,5,63,98,1323093580
6614,18,Jits_Linear_8,3,1,48,43,1323210788
6614,18,Jits_Linear_8,0,5,63,98,1323752932
6614,18,Jits_Linear_8,1,5,56,103,1323763056
6614,18,Jits_Linear_8,2,5,80,127,1323773624
6614,18,Jits_Linear_8,3,1,48,50,1323849252
6614,18,Jits_Linear_8,0,5,80,127,1324462384
6614,18,Jits_Linear_8,1,5,56,103,1324512588
6614,18,Jits_Linear_8,2,1,48,51,1324529424
6614,18,Jits_Linear_8,3,5,63,98,1324552536
6614,18,Jits_Linear_8,0,5,80,127,1325202880
6614,18,Jits_Linear_8,1,5,63,98,1325223488
6614,18,Jits_Linear_8,2,1,48,57,1325263696
6614,18,Jits_Linear_8,3,5,56,103,1325272564
6614,18,Jits_Linear_8,0,5,80,127,1325932824
6614,18,Jits_Linear_8,1,5,56,103,1325962572
6614,18,Jits_Linear_8,2,1,48,47,1325993116
6614,18,Jits_Linear_8,3,5,63,98,1326033516
6614,18,Jits_Linear_8,0,5,56,103,1326702928
6614,18,Jits_Linear_8,1,5,80,127,1326713344
6614,18,Jits_Linear_8,2,1,48,57,1326730320
6614,18,Jits_Linear_8,3,5,63,98,1326753204
6614,18,Jits_Linear_8,0,5,56,103,1327332628
6614,18,Jits_Linear_8,1,5,63,98,1327353536
6614,18,Jits_Linear_8,2,5,80,127,1327422772
6614,18,Jits_Linear_8,3,1,48,55,1327463800
6614,18,Jits_Linear_8,0,5,63,98,1328072960
6614,18,Jits_Linear_8,1,5,80,127,1328132480
6614,18,Jits_Linear_8,2,5,56,103,1328153012
6614,18,Jits_Linear_8,3,1,48,54,1328159948
6614,18,Jits_Linear_8,0,5,80,127,1328772544
6614,18,Jits_Linear_8,1,5,56,103,1328803340
6614,18,Jits_Linear_8,2,5,63,98,1328832868
6614,18,Jits_Linear_8,3,1,48,55,1328840868
6614,18,Jits_Linear_8,0,5,56,103,1329483376
6614,18,Jits_Linear_8,1,5,63,98,1329542424
6614,18,Jits_Linear_8,2,1,48,48,1329572812
6614,18,Jits_Linear_8,3,5,80,127,1329603032
6614,18,Jits_Linear_8,0,5,80,127,1330213396
6614,18,Jits_Linear_8,1,5,56,103,1330232588
6614,18,Jits_Linear_8,2,1,48,62,1330263576
6614,18,Jits_Linear_8,3,5,63,98,1330303456
6614,18,Jits_Linear_8,0,1,48,47,1330914764
6614,18,Jits_Linear_8,1,5,80,127,1330922884
6614,18,Jits_Linear_8,2,5,63,98,1330943272
6614,18,Jits_Linear_8,3,5,56,103,1330973464
6614,18,Jits_Linear_8,0,5,80,127,1331613456
6614,18,Jits_Linear_8,1,5,63,98,1331632352
6614,18,Jits_Linear_8,2,1,48,47,1331674208
6614,18,Jits_Linear_8,3,5,56,103,1331692984
6614,18,Jits_Linear_8,0,5,80,127,1332322652
6614,18,Jits_Linear_8,1,1,48,59,1332326444
6614,18,Jits_Linear_8,2,5,56,103,1332422972
6614,18,Jits_Linear_8,3,5,63,98,1332452656
6614,18,Jits_Linear_8,0,5,63,98,1333012816
6614,18,Jits_Linear_8,1,5,80,127,1333063244
6614,18,Jits_Linear_8,2,5,56,103,1333082508
6614,18,Jits_Linear_8,3,1,48,60,1333093044
6614,18,Jits_Linear_8,0,5,80,127,1333753304
6614,18,Jits_Linear_8,1,1,48,53,1333782676
6614,18,Jits_Linear_8,2,5,56,103,1333784116
6614,18,Jits_Linear_8,3,5,63,98,1333786712
6614,18,Jits_Linear_8,0,1,48,51,1334473824
6614,18,Jits_Linear_8,1,5,63,98,1334483436
6614,18,Jits_Linear_8,2,5,56,103,1334523256
6614,18,Jits_Linear_8,3,5,80,127,1334542668
6614,18,Jits_Linear_8,0,5,80,127,1335123400
6614,18,Jits_Linear_8,1,1,48,52,1335186228
6614,18,Jits_Linear_8,2,5,63,98,1335203116
6614,18,Jits_Linear_8,3,5,56,103,1335243352
6614,18,Jits_Linear_8,0,5,63,98,1335832824
6614,18,Jits_Linear_8,1,1,48,59,1335896552
6614,18,Jits_Linear_8,2,5,80,127,1335912836
6614,18,Jits_Linear_8,3,5,56,103,1335933520
6614,18,Jits_Linear_8,0,5,56,103,1336563208
6614,18,Jits_Linear_8,1,5,63,98,1336573180
6614,18,Jits_Linear_8,2,1,48,47,1336598172
6614,18,Jits_Linear_8,3,5,80,127,1336613408
6614,18,Jits_Linear_8,0,5,56,103,1337173328
6614,18,Jits_Linear_8,1,5,80,127,1337176396
6614,18,Jits_Linear_8,2,1,48,52,1337281484
6614,18,Jits_Linear_8,3,5,63,98,1337312600
6614,18,Jits_Linear_8,0,5,56,103,1337853288
6614,18,Jits_Linear_8,1,5,63,98,1337943352
6614,18,Jits_Linear_8,2,1,48,49,1337964228
6614,18,Jits_Linear_8,3,5,80,127,1338013176
6614,18,Jits_Linear_8,0,1,48,49,1338583260
6614,18,Jits_Linear_8,1,5,63,98,1338613348
6614,18,Jits_Linear_8,2,5,80,127,1338616560
6614,18,Jits_Linear_8,3,5,56,103,1338672468
6614,18,Jits_Linear_8,0,1,48,53,1339248436
6614,18,Jits_Linear_8,1,5,80,127,1339333060
6614,18,Jits_Linear_8,2,5,56,103,1339352460
6614,18,Jits_Linear_8,3,5,63,98,1339362608
6614,18,Jits_Linear_8,0,5,56,103,1339922828
6614,18,Jits_Linear_8,1,5,63,98,1339933320
6614,18,Jits_Linear_8,2,1,48,63,1339946184
6614,18,Jits_Linear_8,3,5,80,127,1340002624
6614,18,Jits_Linear_8,0,1,48,50,1340588052
6614,18,Jits_Linear_8,1,5,80,127,1340602692
6614,18,Jits_Linear_8,2,5,56,103,1340653072
6614,18,Jits_Linear_8,3,5,63,98,1340703184
6614,18,Jits_Linear_8,0,1,48,47,1341243216
6614,18,Jits_Linear_8,1,5,56,103,1341362508
6614,18,Jits_Linear_8,2,5,63,98,1341372780
6614,18,Jits_Linear_8,3,5,80,127,1341412668
6614,18,Jits_Linear_8,0,5,56,103,1341983080
6614,18,Jits_Linear_8,1,1,48,49,1342017064
6614,18,Jits_Linear_8,2,5,63,98,1342023164
6614,18,Jits_Linear_8,3,5,80,127,1342073288
6614,18,Jits_Linear_8,0,5,80,127,1342612832
6614,18,Jits_Linear_8,1,5,56,103,1342663112
6614,18,Jits_Linear_8,2,5,63,98,1342682448
6614,18,Jits_Linear_8,3,1,48,53,1342705516
6614,18,Jits_Linear_8,0,5,80,127,1343292728
6614,18,Jits_Linear_8,1,1,48,50,1343327388
6614,18,Jits_Linear_8,2,5,63,98,1343353116
6614,18,Jits_Linear_8,3,5,56,103,1343433268
6614,18,Jits_Linear_8,0,5,80,127,1343943232
6614,18,Jits_Linear_8,1,5,56,103,1343983048
6614,18,Jits_Linear_8,2,5,63,98,1344002312
6614,18,Jits_Linear_8,3,1,48,59,1344018908
6614,18,Jits_Linear_8,0,1,48,48,1344629904
6614,18,Jits_Linear_8,1,5,56,103,1344663052
6614,18,Jits_Linear_8,2,5,80,127,1344673100
6614,18,Jits_Linear_8,3,5,63,98,1344713040
6614,18,Jits_Linear_8,0,1,48,62,1345298396
6614,18,Jits_Linear_8,1,5,56,103,1345393208
6614,18,Jits_Linear_8,2,5,63,98,1345433208
6614,18,Jits_Linear_8,3,5,80,127,1345436572
6614,18,Jits_Linear_8,0,5,63,98,1345943156
6614,18,Jits_Linear_8,1,5,80,127,1345982800
6614,18,Jits_Linear_8,2,1,48,47,1346026548
6614,18,Jits_Linear_8,3,5,56,103,1346052424
6614,18,Jits_Linear_8,0,5,63,98,1346593072
6614,18,Jits_Linear_8,1,5,56,103,1346672944
6614,18,Jits_Linear_8,2,1,48,43,1346673908
6614,18,Jits_Linear_8,3,5,80,127,1346733400
6614,18,Jits_Linear_8,0,5,80,127,1347263032
6614,18,Jits_Linear_8,1,5,63,98,1347313188
6614,18,Jits_Linear_8,2,1,48,43,1347316232
6614,18,Jits_Linear_8,3,5,56,103,1347342560
6614,18,Jits_Linear_8,0,5,56,103,1347913108
6614,18,Jits_Linear_8,1,1,48,44,1347963016
6614,18,Jits_Linear_8,2,5,63,98,1347964428
6614,18,Jits_Linear_8,3,5,80,127,1347972384
6614,18,Jits_Linear_8,0,5,56,103,1348582740
6614,18,Jits_Linear_8,1,1,48,44,1348601152
6614,18,Jits_Linear_8,2,5,63,98,1348693396
6614,18,Jits_Linear_8,3,5,80,127,1348712796
6614,18,Jits_Linear_8,0,5,63,98,1349233096
6614,18,Jits_Linear_8,1,5,80,127,1349283152
6614,18,Jits_Linear_8,2,1,48,55,1349351556
6614,18,Jits_Linear_8,3,5,56,103,1349373152
6614,18,Jits_Linear_8,0,5,63,98,1349872896
6614,18,Jits_Linear_8,1,5,80,127,1349902648
6614,18,Jits_Linear_8,2,5,56,103,1349992928
6614,18,Jits_Linear_8,3,1,48,48,1350057104
6614,18,Jits_Linear_8,0,5,63,98,1350523232
6614,18,Jits_Linear_8,1,5,56,103,1350532456
6614,18,Jits_Linear_8,2,5,80,127,1350633024
6614,18,Jits_Linear_8,3,1,48,52,1350648576
6614,18,Jits_Linear_8,0,1,48,46,1351222936
6614,18,Jits_Linear_8,1,5,63,98,1351273008
6614,18,Jits_Linear_8,2,5,80,127,1351302460
6614,18,Jits_Linear_8,3,5,56,103,1351333168
6614,18,Jits_Linear_8,0,5,80,127,1351933280
6614,18,Jits_Linear_8,1,5,63,98,1351942428
6614,18,Jits_Linear_8,2,5,56,103,1351973148
6614,18,Jits_Linear_8,0,5,80,127,1352472936
6614,18,Jits_Linear_8,1,5,63,98,1352493396
6614,18,Jits_Linear_8,2,5,56,103,1352542628
6614,18,Jits_Linear_8,0,5,63,98,1353142952
6614,18,Jits_Linear_8,1,5,80,127,1353202996
6614,18,Jits_Linear_8,2,5,56,103,1353222484
6614,18,Jits_Linear_8,0,5,63,98,1353742632
6614,18,Jits_Linear_8,1,5,56,103,1353792912
6614,18,Jits_Linear_8,2,5,80,127,1353803256
6614,18,Jits_Linear_8,3,1,48,54,1353836116
6614,18,Jits_Linear_8,0,5,56,103,1354413416
6614,18,Jits_Linear_8,1,1,48,41,1354418104
6614,18,Jits_Linear_8,2,5,80,127,1354422860
6614,18,Jits_Linear_8,3,5,63,98,1354523040
6614,18,Jits_Linear_8,0,5,80,127,1355012404
6614,18,Jits_Linear_8,1,5,63,98,1355023044
6614,18,Jits_Linear_8,2,1,48,49,1355088864
6614,18,Jits_Linear_8,3,5,56,103,1355173184
6614,18,Jits_Linear_8,0,5,63,98,1355652344
6614,18,Jits_Linear_8,1,5,80,127,1355693404
6614,18,Jits_Linear_8,2,1,48,45,1355754384
6614,18,Jits_Linear_8,3,5,56,103,1355773292
6614,18,Jits_Linear_8,0,5,56,103,1356272960
6614,18,Jits_Linear_8,1,1,48,46,1356333992
6614,18,Jits_Linear_8,2,5,80,127,1356373280
6614,18,Jits_Linear_8,3,5,63,98,1356392988
6614,18,Jits_Linear_8,0,1,48,47,1356929716
6614,18,Jits_Linear_8,1,5,80,127,1356963316
6614,18,Jits_Linear_8,2,5,56,103,1356973440
6614,18,Jits_Linear_8,3,5,63,98,1357062684
6614,18,Jits_Linear_8,0,5,56,103,1357592940
6614,18,Jits_Linear_8,1,1,48,49,1357598752
6614,18,Jits_Linear_8,2,5,63,98,1357613540
6614,18,Jits_Linear_8,3,5,80,127,1357693172
6614,18,Jits_Linear_8,0,5,63,98,1358163280
6614,18,Jits_Linear_8,1,1,48,47,1358209100
6614,18,Jits_Linear_8,2,5,56,103,1358253408
6614,18,Jits_Linear_8,3,5,80,127,1358256324
6614,18,Jits_Linear_8,0,5,56,103,1358812636
6614,18,Jits_Linear_8,1,1,48,48,1358826868
6614,18,Jits_Linear_8,2,5,80,127,1358872900
6614,18,Jits_Linear_8,3,5,63,98,1358883316
6614,18,Jits_Linear_8,0,1,48,50,1359477068
6614,18,Jits_Linear_8,1,5,80,127,1359483244
6614,18,Jits_Linear_8,2,5,56,103,1359492312
6614,18,Jits_Linear_8,3,5,63,98,1359495456
6614,18,Jits_Linear_8,0,5,56,103,1360062928
6614,18,Jits_Linear_8,1,5,80,127,1360073052
6614,18,Jits_Linear_8,2,5,63,98,1360092464
6614,18,Jits_Linear_8,3,1,48,49,1360102128
6614,18,Jits_Linear_8,0,5,63,98,1360652844
6614,18,Jits_Linear_8,1,1,48,50,1360668468
6614,18,Jits_Linear_8,2,5,80,127,1360713156
6614,18,Jits_Linear_8,3,5,56,103,1360763208
6614,18,Jits_Linear_8,0,1,48,49,1361292296
6614,18,Jits_Linear_8,1,5,63,98,1361353004
6614,18,Jits_Linear_8,2,5,56,103,1361363276
6614,18,Jits_Linear_8,3,5,80,127,1361412664
6614,18,Jits_Linear_8,0,5,63,98,1361863024
6614,18,Jits_Linear_8,1,5,80,127,1361882512
6614,18,Jits_Linear_8,2,5,56,103,1361892952
6614,18,Jits_Linear_8,3,1,48,48,1361921032
6614,18,Jits_Linear_8,0,1,48,42,1362452364
6614,18,Jits_Linear_8,1,5,63,98,1362473364
6614,18,Jits_Linear_8,2,5,80,127,1362476656
6614,18,Jits_Linear_8,3,5,56,103,1362513304
6614,18,Jits_Linear_8,0,1,48,46,1363061628
6614,18,Jits_Linear_8,1,5,63,98,1363153864
6614,18,Jits_Linear_8,2,5,80,127,1363183048
6614,18,Jits_Linear_8,3,5,56,103,1363193392
6614,18,Jits_Linear_8,0,1,48,40,1363710340
6614,18,Jits_Linear_8,1,5,56,103,1363713520
6614,18,Jits_Linear_8,2,5,80,127,1363743048
6614,18,Jits_Linear_8,3,5,63,98,1363772948
6614,18,Jits_Linear_8,0,1,48,48,1364296104
6614,18,Jits_Linear_8,1,5,63,98,1364412848
6614,18,Jits_Linear_8,2,5,56,103,1364452740
6614,18,Jits_Linear_8,3,5,80,127,1364455952
6614,18,Jits_Linear_8,0,5,80,127,1364912764
6614,18,Jits_Linear_8,1,5,56,103,1364993488
6614,18,Jits_Linear_8,2,1,48,48,1365016984
6614,18,Jits_Linear_8,3,5,63,98,1365042708
6614,18,Jits_Linear_8,0,5,80,127,1365493168
6614,18,Jits_Linear_8,1,5,56,103,1365512580
6614,18,Jits_Linear_8,2,5,63,98,1365602936
6614,18,Jits_Linear_8,3,1,48,49,1365638936
6614,18,Jits_Linear_8,0,5,80,127,1366133104
6614,18,Jits_Linear_8,1,5,63,98,1366173044
6614,18,Jits_Linear_8,2,5,56,103,1366212908
6614,18,Jits_Linear_8,3,1,48,31,1366269680
6614,18,Jits_Linear_8,0,5,63,98,1366702396
6614,18,Jits_Linear_8,1,5,80,127,1366762892
6614,18,Jits_Linear_8,2,5,56,103,1366792716
6614,18,Jits_Linear_8,3,1,48,53,1366796360
6614,18,Jits_Linear_8,0,5,56,103,1367302640
6614,18,Jits_Linear_8,1,1,48,43,1367327704
6614,18,Jits_Linear_8,2,5,80,127,1367333208
6614,18,Jits_Linear_8,3,5,63,98,1367423400
6614,18,Jits_Linear_8,0,5,56,103,1367902796
6614,18,Jits_Linear_8,1,1,48,27,1367912064
6614,18,Jits_Linear_8,2,5,80,127,1368013068
6614,18,Jits_Linear_8,3,5,63,98,1368042916
6614,18,Jits_Linear_8,0,1,48,49,1368536568
6614,18,Jits_Linear_8,1,5,56,103,1368542892
6614,18,Jits_Linear_8,2,5,63,98,1368602860
6614,18,Jits_Linear_8,3,5,80,127,1368632684
6614,18,Jits_Linear_8,0,5,56,103,1369102840
6614,18,Jits_Linear_8,1,1,48,43,1369133828
6614,18,Jits_Linear_8,2,5,63,98,1369173488
6614,18,Jits_Linear_8,3,5,80,127,1369192676
6614,18,Jits_Linear_8,0,5,80,127,1369662768
6614,18,Jits_Linear_8,1,5,63,98,1369683672
6614,18,Jits_Linear_8,2,5,56,103,1369732680
6614,18,Jits_Linear_8,3,1,48,43,1369744716
6614,18,Jits_Linear_8,0,5,63,98,1370262844
6614,18,Jits_Linear_8,1,5,80,127,1370273116
6614,18,Jits_Linear_8,2,5,56,103,1370323688
6614,18,Jits_Linear_8,3,1,48,47,1370325980
6614,18,Jits_Linear_8,0,5,63,98,1370842604
6614,18,Jits_Linear_8,1,1,48,36,1370909876
6614,18,Jits_Linear_8,2,5,80,127,1370913208
6614,18,Jits_Linear_8,3,5,56,103,1370932548
6614,18,Jits_Linear_8,0,5,63,98,1371452816
6614,18,Jits_Linear_8,1,5,80,127,1371455884
6614,18,Jits_Linear_8,2,1,48,44,1371465004
6614,18,Jits_Linear_8,3,5,56,103,1371522564
6614,18,Jits_Linear_8,0,5,80,127,1371983348
6614,18,Jits_Linear_8,1,5,56,103,1372002612
6614,18,Jits_Linear_8,2,5,63,98,1372012808
6614,18,Jits_Linear_8,3,1,48,46,1372069704
6614,18,Jits_Linear_8,0,5,56,103,1372583280
6614,18,Jits_Linear_8,1,1,48,32,1372603488
6614,18,Jits_Linear_8,2,5,63,98,1372673504
6614,18,Jits_Linear_8,3,5,80,127,1372676868
6614,18,Jits_Linear_8,0,5,80,127,1373133604
6614,18,Jits_Linear_8,1,5,56,103,1373143800
6614,18,Jits_Linear_8,2,5,63,98,1373162940
6614,18,Jits_Linear_8,3,1,48,31,1373166576
6614,18,Jits_Linear_8,0,5,63,98,1373702540
6614,18,Jits_Linear_8,1,1,48,41,1373733608
6614,18,Jits_Linear_8,2,5,80,127,1373763000
6614,18,Jits_Linear_8,3,5,56,103,1373773124
6614,18,Jits_Linear_8,0,1,48,40,1374296576
6614,18,Jits_Linear_8,1,5,63,98,1374342532
6614,18,Jits_Linear_8,2,5,80,127,1374373408
6614,18,Jits_Linear_8,3,5,56,103,1374413108
6614,18,Jits_Linear_8,0,5,56,103,1374902604
6614,18,Jits_Linear_8,1,5,80,127,1374912876
6614,18,Jits_Linear_8,2,1,48,14,1374939664
6614,18,Jits_Linear_8,3,5,63,98,1374952760
6614,18,Jits_Linear_8,0,5,80,127,1375433012
6614,18,Jits_Linear_8,1,1,48,43,1375498784
6614,18,Jits_Linear_8,2,5,56,103,1375512904
6614,18,Jits_Linear_8,3,5,63,98,1375523176
6614,18,Jits_Linear_8,0,5,80,127,1376043388
6614,18,Jits_Linear_8,1,1,48,20,1376086368
6614,18,Jits_Linear_8,2,5,56,103,1376123184
6614,18,Jits_Linear_8,3,5,63,98,1376132556
6614,18,Jits_Linear_8,0,5,80,127,1376562792
6614,18,Jits_Linear_8,1,5,56,103,1376612696
6614,18,Jits_Linear_8,2,5,63,98,1376662896
6614,18,Jits_Linear_8,3,1,48,27,1376687364
6614,18,Jits_Linear_8,0,5,56,103,1377182948
6614,18,Jits_Linear_8,1,5,63,98,1377186096
6614,18,Jits_Linear_8,2,1,48,30,1377221512
6614,18,Jits_Linear_8,3,5,80,127,1377233372
6614,18,Jits_Linear_8,0,1,48,41,1377730792
6614,18,Jits_Linear_8,1,5,56,103,1377772940
6614,18,Jits_Linear_8,2,5,63,98,1377802544
6614,18,Jits_Linear_8,3,5,80,127,1377812888
6614,18,Jits_Linear_8,0,5,63,98,1378242856
6614,18,Jits_Linear_8,1,1,48,39,1378308332
6614,18,Jits_Linear_8,2,5,56,103,1378312780
6614,18,Jits_Linear_8,3,5,80,127,1378362684
6614,18,Jits_Linear_8,0,5,63,98,1378832692
6614,18,Jits_Linear_8,1,5,56,103,1378843036
6614,18,Jits_Linear_8,2,5,80,127,1378846024
6614,18,Jits_Linear_8,3,1,48,24,1378853720
6614,18,Jits_Linear_8,0,5,80,127,1379332576
6614,18,Jits_Linear_8,1,1,48,32,1379367236
6614,18,Jits_Linear_8,2,5,56,103,1379392888
6614,18,Jits_Linear_8,3,5,63,98,1379482932
6614,18,Jits_Linear_8,0,5,80,127,1379883584
6614,18,Jits_Linear_8,1,5,56,103,1379982640
6614,18,Jits_Linear_8,2,1,48,22,1379999460
6614,18,Jits_Linear_8,3,5,63,98,1380022500
6614,18,Jits_Linear_8,0,5,56,103,1380482552
6614,18,Jits_Linear_8,1,5,63,98,1380502864
6614,18,Jits_Linear_8,2,5,80,127,1380542876
6614,18,Jits_Linear_8,3,1,48,43,1380568316
6614,18,Jits_Linear_8,0,5,63,98,1381002620
6614,18,Jits_Linear_8,1,5,56,103,1381023080
6614,18,Jits_Linear_8,2,1,48,36,1381101604
6614,18,Jits_Linear_8,3,5,80,127,1381122672
6614,18,Jits_Linear_8,0,5,63,98,1381532940
6614,18,Jits_Linear_8,1,1,48,25,1381592924
6614,18,Jits_Linear_8,2,5,80,127,1381642648
6614,18,Jits_Linear_8,3,5,56,103,1381673520
6614,18,Jits_Linear_8,0,5,56,103,1382093376
6614,18,Jits_Linear_8,1,5,63,98,1382123004
6614,18,Jits_Linear_8,2,5,80,127,1382172908
6614,18,Jits_Linear_8,3,1,48,16,1382205164
6614,18,Jits_Linear_8,0,5,63,98,1382603252
6614,18,Jits_Linear_8,1,5,56,103,1382632808
6614,18,Jits_Linear_8,2,5,80,127,1382682932
6614,18,Jits_Linear_8,3,1,48,23,1382699004
6614,18,Jits_Linear_8,0,5,56,103,1383172404
6614,18,Jits_Linear_8,1,5,63,98,1383193160
6614,18,Jits_Linear_8,2,1,48,32,1383195832
6614,18,Jits_Linear_8,3,5,80,127,1383272876
6614,18,Jits_Linear_8,0,5,63,98,1383682580
6614,18,Jits_Linear_8,1,1,48,23,1383730364
6614,18,Jits_Linear_8,2,5,56,103,1383742744
6614,18,Jits_Linear_8,3,5,80,127,1383772420
6614,18,Jits_Linear_8,0,5,56,103,1384263020
6614,18,Jits_Linear_8,1,1,48,24,1384292140
6614,18,Jits_Linear_8,2,5,80,127,1384322656
6614,18,Jits_Linear_8,3,5,63,98,1384363344
6614,18,Jits_Linear_8,0,5,63,98,1384772904
6614,18,Jits_Linear_8,1,5,56,103,1384833592
6614,18,Jits_Linear_8,2,1,48,16,1384873280
6614,18,Jits_Linear_8,3,5,80,127,1384903048
6614,18,Jits_Linear_8,0,5,56,103,1385383392
6614,18,Jits_Linear_8,1,1,48,26,1385389052
6614,18,Jits_Linear_8,2,5,63,98,1385392460
6614,18,Jits_Linear_8,3,5,80,127,1385395896
6614,18,Jits_Linear_8,0,5,63,98,1385853332
6614,18,Jits_Linear_8,1,5,56,103,1385912676
6614,18,Jits_Linear_8,2,5,80,127,1385915816
6614,18,Jits_Linear_8,3,1,48,21,1385954776
6614,18,Jits_Linear_8,0,5,63,98,1386363336
6614,18,Jits_Linear_8,1,5,80,127,1386392868
6614,18,Jits_Linear_8,2,5,56,103,1386413548
6614,18,Jits_Linear_8,3,1,48,24,1386507112
6614,18,Jits_Linear_8,0,5,56,103,1386892608
6614,18,Jits_Linear_8,1,5,63,98,1386942964
6614,18,Jits_Linear_8,2,5,80,127,1387022560
6614,18,Jits_Linear_8,3,1,48,20,1387081124
6614,18,Jits_Linear_8,0,5,80,127,1387393352
6614,18,Jits_Linear_8,1,5,63,98,1387433292
6614,18,Jits_Linear_8,2,5,56,103,1387452780
6614,18,Jits_Linear_8,3,1,48,55,1387605156
6614,18,Jits_Linear_8,0,5,56,103,1387983324
6614,18,Jits_Linear_8,1,5,80,127,1387992400
6614,18,Jits_Linear_8,2,5,63,98,1388013108
6614,18,Jits_Linear_8,3,1,48,40,1388145904
6614,18,Jits_Linear_8,0,5,56,103,1388482868
6614,18,Jits_Linear_8,1,5,63,98,1388533396
6614,18,Jits_Linear_8,2,5,80,127,1388562848
6614,18,Jits_Linear_8,3,1,48,38,1388695644
6614,18,Jits_Linear_8,0,5,56,103,1388953112
6614,18,Jits_Linear_8,1,5,63,98,1388963604
6614,18,Jits_Linear_8,2,5,80,127,1389013436
6614,18,Jits_Linear_8,0,5,56,103,1389462944
6614,18,Jits_Linear_8,1,5,80,127,1389466156
6614,18,Jits_Linear_8,2,5,63,98,1389622624
6614,18,Jits_Linear_8,0,5,63,98,1389993380
6614,18,Jits_Linear_8,1,5,56,103,1390063088
6614,18,Jits_Linear_8,2,5,80,127,1390103024
6614,18,Jits_Linear_8,0,5,63,98,1390543508
6614,18,Jits_Linear_8,1,5,56,103,1390633444
6614,18,Jits_Linear_8,2,5,80,127,1390636436
6614,18,Jits_Linear_8,0,5,56,103,1391032576
6614,18,Jits_Linear_8,1,5,63,98,1391122660
6614,18,Jits_Linear_8,2,5,80,127,1391133228
6614,18,Jits_Linear_8,0,5,56,103,1391513040
6614,18,Jits_Linear_8,1,5,63,98,1391563244
6614,18,Jits_Linear_8,2,5,80,127,1391592720
6614,18,Jits_Linear_8,0,5,63,98,1392092412
6614,18,Jits_Linear_8,1,5,80,127,1392102760
6614,18,Jits_Linear_8,2,5,56,103,1392163372
6614,18,Jits_Linear_8,0,5,63,98,1392513284
6614,18,Jits_Linear_8,1,5,80,127,1392572704
6614,18,Jits_Linear_8,2,5,56,103,1392612668
6614,18,Jits_Linear_8,3,1,48,28,1392632344
6614,18,Jits_Linear_8,0,5,56,103,1393112384
6614,18,Jits_Linear_8,1,5,80,127,1393132796
6614,18,Jits_Linear_8,2,5,63,98,1393153404
6614,18,Jits_Linear_8,3,1,48,49,1393222448
6614,18,Jits_Linear_8,0,5,63,98,1393533408
6614,18,Jits_Linear_8,1,5,56,103,1393552752
6614,18,Jits_Linear_8,2,5,80,127,1393592612
6614,18,Jits_Linear_8,3,1,48,47,1393693972
6614,18,Jits_Linear_8,0,5,63,98,1394043352
6614,18,Jits_Linear_8,1,5,80,127,1394073104
6614,18,Jits_Linear_8,2,5,56,103,1394093412
6614,18,Jits_Linear_8,3,1,48,53,1394187048
6614,18,Jits_Linear_8,0,5,80,127,1394513136
6614,18,Jits_Linear_8,1,5,56,103,1394562440
6614,18,Jits_Linear_8,2,5,63,98,1394622832
6614,18,Jits_Linear_8,3,1,48,51,1394643036
6614,18,Jits_Linear_8,0,5,63,98,1394992448
6614,18,Jits_Linear_8,1,1,48,49,1395109964
6614,18,Jits_Linear_8,2,5,56,103,1395113520
6614,18,Jits_Linear_8,3,5,80,127,1395143120
6614,18,Jits_Linear_8,0,5,80,127,1395522924
6614,18,Jits_Linear_8,1,5,63,98,1395543532
6614,18,Jits_Linear_8,2,1,48,46,1395609276
6614,18,Jits_Linear_8,3,5,56,103,1395613208
6614,18,Jits_Linear_8,0,5,63,98,1396033028
6614,18,Jits_Linear_8,1,5,56,103,1396043300
6614,18,Jits_Linear_8,2,1,48,44,1396115720
6614,18,Jits_Linear_8,3,5,80,127,1396123088
6614,18,Jits_Linear_8,0,5,56,103,1396582688
6614,18,Jits_Linear_8,1,1,48,46,1396609472
6614,18,Jits_Linear_8,2,5,80,127,1396612504
6614,18,Jits_Linear_8,3,5,63,98,1396622776
6614,18,Jits_Linear_8,0,9999,9999,9999,1286210632
6614,18,Jits_Linear_8,1,9999,9999,9999,1287030844
6614,18,Jits_Linear_8,2,9999,9999,9999,1287851096
6614,18,Jits_Linear_8,3,9999,9999,9999,1288680516
6614,18,Jits_Linear_8,4,9999,9999,9999,1289500740
6614,18,Jits_Linear_8,5,9999,9999,9999,1290310760
6614,18,Jits_Linear_8,6,9999,9999,9999,1291120700
6614,18,Jits_Linear_8,7,9999,9999,9999,1291930732
6614,18,Jits_Linear_8,8,9999,9999,9999,1292740692
6614,18,Jits_Linear_8,9,9999,9999,9999,1293550648
6614,18,Jits_Linear_8,10,9999,9999,9999,1294350420
6614,18,Jits_Linear_8,11,9999,9999,9999,1295150180
6614,18,Jits_Linear_8,12,9999,9999,9999,1295950928
6614,18,Jits_Linear_8,13,9999,9999,9999,1296750692
6614,18,Jits_Linear_8,14,9999,9999,9999,1297550432
6614,18,Jits_Linear_8,15,9999,9999,9999,1298340948
6614,18,Jits_Linear_8,16,9999,9999,9999,1299130424
6614,18,Jits_Linear_8,17,9999,9999,9999,1299920980
6614,18,Jits_Linear_8,18,9999,9999,9999,1300710500
6614,18,Jits_Linear_8,19,9999,9999,9999,1301501056
6614,18,Jits_Linear_8,20,9999,9999,9999,1302280276
6614,18,Jits_Linear_8,21,9999,9999,9999,1303060548
6614,18,Jits_Linear_8,22,9999,9999,9999,1303840828
6614,18,Jits_Linear_8,23,9999,9999,9999,1304620144
6614,18,Jits_Linear_8,24,9999,9999,9999,1305400416
6614,18,Jits_Linear_8,25,9999,9999,9999,1306170428
6614,18,Jits_Linear_8,26,9999,9999,9999,1306940528
6614,18,Jits_Linear_8,27,9999,9999,9999,1307710540
6614,18,Jits_Linear_8,28,9999,9999,9999,1308480640
6614,18,Jits_Linear_8,29,9999,9999,9999,1309250672
6614,18,Jits_Linear_8,30,9999,9999,9999,1310010496
6614,18,Jits_Linear_8,31,9999,9999,9999,1310770244
6614,18,Jits_Linear_8,32,9999,9999,9999,1311531100
6614,18,Jits_Linear_8,33,9999,9999,9999,1312300144
6614,18,Jits_Linear_8,34,9999,9999,9999,1313060952
6614,18,Jits_Linear_8,35,9999,9999,9999,1313810532
6614,18,Jits_Linear_8,36,9999,9999,9999,1314560096
6614,18,Jits_Linear_8,37,9999,9999,9999,1315310716
6614,18,Jits_Linear_8,38,9999,9999,9999,1316060256
6614,18,Jits_Linear_8,39,9999,9999,9999,1316810872
6614,18,Jits_Linear_8,40,9999,9999,9999,1317550188
6614,18,Jits_Linear_8,41,9999,9999,9999,1318290544
6614,18,Jits_Linear_8,42,9999,9999,9999,1319030880
6614,18,Jits_Linear_8,43,9999,9999,9999,1319770176
6614,18,Jits_Linear_8,44,9999,9999,9999,1320510576
6614,18,Jits_Linear_8,45,9999,9999,9999,1321240656
6614,18,Jits_Linear_8,46,9999,9999,9999,1321970808
6614,18,Jits_Linear_8,47,9999,9999,9999,1322700872
6614,18,Jits_Linear_8,48,9999,9999,9999,1323431036
6614,18,Jits_Linear_8,49,9999,9999,9999,1324160080
6614,18,Jits_Linear_8,50,9999,9999,9999,1324881008
6614,18,Jits_Linear_8,51,9999,9999,9999,1325600836
6614,18,Jits_Linear_8,52,9999,9999,9999,1326320740
6614,18,Jits_Linear_8,53,9999,9999,9999,1327040624
6614,18,Jits_Linear_8,54,9999,9999,9999,1327760452
6614,18,Jits_Linear_8,55,9999,9999,9999,1328470096
6614,18,Jits_Linear_8,56,9999,9999,9999,1329180760
6614,18,Jits_Linear_8,57,9999,9999,9999,1329890400
6614,18,Jits_Linear_8,58,9999,9999,9999,1330601068
6614,18,Jits_Linear_8,59,9999,9999,9999,1331310708
6614,18,Jits_Linear_8,60,9999,9999,9999,1332011120
6614,18,Jits_Linear_8,61,9999,9999,9999,1332720760
6614,18,Jits_Linear_8,62,9999,9999,9999,1333420112
6614,18,Jits_Linear_8,63,9999,9999,9999,1334120512
6614,18,Jits_Linear_8,64,9999,9999,9999,1334820948
6614,18,Jits_Linear_8,65,9999,9999,9999,1335510104
6614,18,Jits_Linear_8,66,9999,9999,9999,1336200268
6614,18,Jits_Linear_8,67,9999,9999,9999,1336890496
6614,18,Jits_Linear_8,68,9999,9999,9999,1337580644
6614,18,Jits_Linear_8,69,9999,9999,9999,1338270780
6614,18,Jits_Linear_8,70,9999,9999,9999,1338950748
6614,18,Jits_Linear_8,71,9999,9999,9999,1339630712
6614,18,Jits_Linear_8,72,9999,9999,9999,1340310644
6614,18,Jits_Linear_8,73,9999,9999,9999,1340990548
6614,18,Jits_Linear_8,74,9999,9999,9999,1341670512
6614,18,Jits_Linear_8,75,9999,9999,9999,1342340184
6614,18,Jits_Linear_8,76,9999,9999,9999,1343010940
6614,18,Jits_Linear_8,77,9999,9999,9999,1343680628
6614,18,Jits_Linear_8,78,9999,9999,9999,1344350332
6614,18,Jits_Linear_8,79,9999,9999,9999,1345021012
6614,18,Jits_Linear_8,80,9999,9999,9999,1345680492
6614,18,Jits_Linear_8,81,9999,9999,9999,1346340964
6614,18,Jits_Linear_8,82,9999,9999,9999,1347000444
6614,18,Jits_Linear_8,83,9999,9999,9999,1347660916
6614,18,Jits_Linear_8,84,9999,9999,9999,1348320356
6614,18,Jits_Linear_8,85,9999,9999,9999,1348970568
6614,18,Jits_Linear_8,86,9999,9999,9999,1349620792
6614,18,Jits_Linear_8,87,9999,9999,9999,1350271052
6614,18,Jits_Linear_8,88,9999,9999,9999,1350920292
6614,18,Jits_Linear_8,89,9999,9999,9999,1351570488
6614,18,Jits_Linear_8,90,9999,9999,9999,1352210544
6614,18,Jits_Linear_8,91,9999,9999,9999,1352850512
6614,18,Jits_Linear_8,92,9999,9999,9999,1353490516
6614,18,Jits_Linear_8,93,9999,9999,9999,1354130524
6614,18,Jits_Linear_8,94,9999,9999,9999,1354770548
6614,18,Jits_Linear_8,95,9999,9999,9999,1355400300
6614,18,Jits_Linear_8,96,9999,9999,9999,1356031044
6614,18,Jits_Linear_8,97,9999,9999,9999,1356660856
6614,18,Jits_Linear_8,98,9999,9999,9999,1357290564
6614,18,Jits_Linear_8,99,9999,9999,9999,1357920376
6614,18,Jits_Linear_8,100,9999,9999,9999,1358540904
6614,18,Jits_Linear_8,101,9999,9999,9999,1359160404
6614,18,Jits_Linear_8,102,9999,9999,9999,1359780932
6614,18,Jits_Linear_8,103,9999,9999,9999,1360400504
6614,18,Jits_Linear_8,104,9999,9999,9999,1361021040
6614,18,Jits_Linear_8,105,9999,9999,9999,1361630332
6614,18,Jits_Linear_8,106,9999,9999,9999,1362240600
6614,18,Jits_Linear_8,107,9999,9999,9999,1362850912
6614,18,Jits_Linear_8,108,9999,9999,9999,1363460156
6614,18,Jits_Linear_8,109,9999,9999,9999,1364070484
6614,18,Jits_Linear_8,110,9999,9999,9999,1364670556
6614,18,Jits_Linear_8,111,9999,9999,9999,1365270648
6614,18,Jits_Linear_8,112,9999,9999,9999,1365870648
6614,18,Jits_Linear_8,113,9999,9999,9999,1366470732
6614,18,Jits_Linear_8,114,9999,9999,9999,1367070840
6614,18,Jits_Linear_8,115,9999,9999,9999,1367660644
6614,18,Jits_Linear_8,116,9999,9999,9999,1368250472
6614,18,Jits_Linear_8,117,9999,9999,9999,1368840248
6614,18,Jits_Linear_8,118,9999,9999,9999,1369430132
6614,18,Jits_Linear_8,119,9999,9999,9999,1370020992
6614,18,Jits_Linear_8,120,9999,9999,9999,1370600568
6614,18,Jits_Linear_8,121,9999,9999,9999,1371180112
6614,18,Jits_Linear_8,122,9999,9999,9999,1371760768
6614,18,Jits_Linear_8,123,9999,9999,9999,1372340300
6614,18,Jits_Linear_8,124,9999,9999,9999,1372920924
6614,18,Jits_Linear_8,125,9999,9999,9999,1373490284
6614,18,Jits_Linear_8,126,9999,9999,9999,1374060620
6614,18,Jits_Linear_8,127,9999,9999,9999,1374631024
6614,18,Jits_Linear_8,128,9999,9999,9999,1375200324
6614,18,Jits_Linear_8,129,9999,9999,9999,1375770740
6614,18,Jits_Linear_8,130,9999,9999,9999,1376330828
6614,18,Jits_Linear_8,131,9999,9999,9999,1376890980
6614,18,Jits_Linear_8,132,9999,9999,9999,1377451124
6614,18,Jits_Linear_8,133,9999,9999,9999,1378020452
6614,18,Jits_Linear_8,134,9999,9999,9999,1378580588
6614,18,Jits_Linear_8,135,9999,9999,9999,1379130448
6614,18,Jits_Linear_8,136,9999,9999,9999,1379680324
6614,18,Jits_Linear_8,137,9999,9999,9999,1380230212
6614,18,Jits_Linear_8,138,9999,9999,9999,1380780100
6614,18,Jits_Linear_8,139,9999,9999,9999,1381331032
6614,18,Jits_Linear_8,140,9999,9999,9999,1381870672
6614,18,Jits_Linear_8,141,9999,9999,9999,1382410352
6614,18,Jits_Linear_8,142,9999,9999,9999,1382951020
6614,18,Jits_Linear_8,143,9999,9999,9999,1383490628
6614,18,Jits_Linear_8,144,9999,9999,9999,1384030324
6614,18,Jits_Linear_8,145,9999,9999,9999,1384560720
6614,18,Jits_Linear_8,146,9999,9999,9999,1385090160
6614,18,Jits_Linear_8,147,9999,9999,9999,1385620548
6614,18,Jits_Linear_8,148,9999,9999,9999,1386151020
6614,18,Jits_Linear_8,149,9999,9999,9999,1386680440
6614,18,Jits_Linear_8,150,9999,9999,9999,1387200576
6614,18,Jits_Linear_8,151,9999,9999,9999,1387720792
6614,18,Jits_Linear_8,152,9999,9999,9999,1388241016
6614,18,Jits_Linear_8,153,9999,9999,9999,1388760132
6614,18,Jits_Linear_8,154,9999,9999,9999,1389280368
6614,18,Jits_Linear_8,155,9999,9999,9999,1389790276
6614,18,Jits_Linear_8,156,9999,9999,9999,1390300240
6614,18,Jits_Linear_8,157,9999,9999,9999,1390810208
6614,18,Jits_Linear_8,158,9999,9999,9999,1391320184
6614,18,Jits_Linear_8,159,9999,9999,9999,1391830088
6614,18,Jits_Linear_8,160,9999,9999,9999,1392330844
6614,18,Jits_Linear_8,161,9999,9999,9999,1392830536
6614,18,Jits_Linear_8,162,9999,9999,9999,1393330296
6614,18,Jits_Linear_8,163,9999,9999,9999,1393831032
6614,18,Jits_Linear_8,164,9999,9999,9999,1394330708
6614,18,Jits_Linear_8,165,9999,9999,9999,1394820200
6614,18,Jits_Linear_8,166,9999,9999,9999,1395310680
6614,18,Jits_Linear_8,167,9999,9999,9999,1395800172
6614,18,Jits_Linear_8,168,9999,9999,9999,1396290648
6614,18,Jits_Linear_8,169,9999,9999,9999,1396780148
6615,19,Jits_Linear_5,0,5,56,103,1406044516
6615,19,Jits_Linear_5,1,5,63,98,1406047612
6615,19,Jits_Linear_5,2,5,80,127,1406051032
6615,19,Jits_Linear_5,0,5,56,103,1406524828
6615,19,Jits_Linear_5,1,5,63,98,1406527924
6615,19,Jits_Linear_5,2,5,80,127,1406531048
6615,19,Jits_Linear_5,0,5,56,103,1407015344
6615,19,Jits_Linear_5,1,5,80,127,1407024496
6615,19,Jits_Linear_5,2,5,63,98,1407045104
6615,19,Jits_Linear_5,0,5,63,98,1407445232
6615,19,Jits_Linear_5,1,5,80,127,1407475156
6615,19,Jits_Linear_5,2,5,56,103,1407485428
6615,19,Jits_Linear_5,0,5,80,127,1407985132
6615,19,Jits_Linear_5,1,5,56,103,1407995256
6615,19,Jits_Linear_5,2,5,63,98,1408025008
6615,19,Jits_Linear_5,3,1,48,43,1408100640
6615,19,Jits_Linear_5,0,5,63,98,1408465336
6615,19,Jits_Linear_5,1,5,56,103,1408495112
6615,19,Jits_Linear_5,2,5,80,127,1408505160
6615,19,Jits_Linear_5,3,1,48,44,1408544464
6615,19,Jits_Linear_5,0,5,56,103,1408904488
6615,19,Jits_Linear_5,1,5,63,98,1408954916
6615,19,Jits_Linear_5,2,5,80,127,1408975152
6615,19,Jits_Linear_5,3,1,48,47,1408983228
6615,19,Jits_Linear_5,0,1,48,52,1409341428
6615,19,Jits_Linear_5,1,5,80,127,1409395040
6615,19,Jits_Linear_5,2,5,63,98,1409445232
6615,19,Jits_Linear_5,3,5,56,103,1409485096
6615,19,Jits_Linear_5,0,5,56,103,1409884472
6615,19,Jits_Linear_5,1,5,63,98,1409915196
6615,19,Jits_Linear_5,2,1,48,43,1409916160
6615,19,Jits_Linear_5,3,5,80,127,1409985168
6615,19,Jits_Linear_5,0,5,56,103,1410375104
6615,19,Jits_Linear_5,1,5,80,127,1410434380
6615,19,Jits_Linear_5,2,1,48,46,1410459748
6615,19,Jits_Linear_5,3,5,63,98,1410465096
6615,19,Jits_Linear_5,0,5,56,103,1410874884
6615,19,Jits_Linear_5,1,5,63,98,1410885008
6615,19,Jits_Linear_5,2,5,80,127,1410925096
6615,19,Jits_Linear_5,3,1,48,42,1410954668
6615,19,Jits_Linear_5,0,5,63,98,1411365292
6615,19,Jits_Linear_5,1,1,48,42,1411396888
6615,19,Jits_Linear_5,2,5,80,127,1411445160
6615,19,Jits_Linear_5,3,5,56,103,1411455432
6615,19,Jits_Linear_5,0,5,63,98,1411915104
6615,19,Jits_Linear_5,1,1,48,49,1411943636
6615,19,Jits_Linear_5,2,5,56,103,1411955040
6615,19,Jits_Linear_5,3,5,80,127,1411958108
6615,19,Jits_Linear_5,0,5,56,103,1412375152
6615,19,Jits_Linear_5,1,5,63,98,1412385128
6615,19,Jits_Linear_5,2,5,80,127,1412425068
6615,19,Jits_Linear_5,3,1,48,45,1412456584
6615,19,Jits_Linear_5,0,5,56,103,1412865336
6615,19,Jits_Linear_5,1,5,63,98,1412868404
6615,19,Jits_Linear_5,2,5,80,127,1412884828
6615,19,Jits_Linear_5,3,1,48,38,1412937388
6615,19,Jits_Linear_5,0,1,48,30,1413362064
6615,19,Jits_Linear_5,1,5,80,127,1413384652
6615,19,Jits_Linear_5,2,5,56,103,1413394772
6615,19,Jits_Linear_5,3,5,63,98,1413464368
6615,19,Jits_Linear_5,0,5,63,98,1413894384
6615,19,Jits_Linear_5,1,5,56,103,1413914920
6615,19,Jits_Linear_5,2,1,48,32,1413945392
6615,19,Jits_Linear_5,3,5,80,127,1413995080
6615,19,Jits_Linear_5,0,5,56,103,1414414824
6615,19,Jits_Linear_5,1,1,48,34,1414436004
6615,19,Jits_Linear_5,2,5,80,127,1414454760
6615,19,Jits_Linear_5,3,5,63,98,1414464956
6615,19,Jits_Linear_5,0,5,80,127,1414914524
6615,19,Jits_Linear_5,1,5,63,98,1414945176
6615,19,Jits_Linear_5,2,1,48,42,1414955716
6615,19,Jits_Linear_5,3,5,56,103,1414985032
6615,19,Jits_Linear_5,0,5,56,103,1415445020
6615,19,Jits_Linear_5,1,1,48,31,1415467396
6615,19,Jits_Linear_5,2,5,63,98,1415474616
6615,19,Jits_Linear_5,3,5,80,127,1415524816
6615,19,Jits_Linear_5,0,5,80,127,1415965028
6615,19,Jits_Linear_5,1,1,48,39,1415994300
6615,19,Jits_Linear_5,2,5,56,103,1416004964
6615,19,Jits_Linear_5,3,5,63,98,1416015160
6615,19,Jits_Linear_5,0,5,80,127,1416464884
6615,19,Jits_Linear_5,1,1,48,47,1416499320
6615,19,Jits_Linear_5,2,5,63,98,1416505040
6615,19,Jits_Linear_5,3,5,56,103,1416565060
6615,19,Jits_Linear_5,0,5,56,103,1416984888
6615,19,Jits_Linear_5,1,5,80,127,1416995160
6615,19,Jits_Linear_5,2,1,48,36,1417041796
6615,19,Jits_Linear_5,3,5,63,98,1417075024
6615,19,Jits_Linear_5,0,5,80,127,1417505112
6615,19,Jits_Linear_5,1,1,48,59,1417552652
6615,19,Jits_Linear_5,2,5,63,98,1417564380
6615,19,Jits_Linear_5,3,5,56,103,1417595176
6615,19,Jits_Linear_5,0,5,56,103,1418025268
6615,19,Jits_Linear_5,1,5,80,127,1418084764
6615,19,Jits_Linear_5,2,1,48,61,1418095304
6615,19,Jits_Linear_5,3,5,63,98,1418124920
6615,19,Jits_Linear_5,0,5,56,103,1418604772
6615,19,Jits_Linear_5,1,1,48,59,1418607888
6615,19,Jits_Linear_5,2,5,63,98,1418615256
6615,19,Jits_Linear_5,3,5,80,127,1418618620
6615,19,Jits_Linear_5,0,5,80,127,1419085280
6615,19,Jits_Linear_5,1,1,48,69,1419154040
6615,19,Jits_Linear_5,2,5,63,98,1419175412
6615,19,Jits_Linear_5,3,5,56,103,1419184488
6615,19,Jits_Linear_5,0,5,56,103,1419614640
6615,19,Jits_Linear_5,1,5,63,98,1419617812
6615,19,Jits_Linear_5,2,5,80,127,1419620932
6615,19,Jits_Linear_5,3,1,48,55,1419661136
6615,19,Jits_Linear_5,0,5,80,127,1420164676
6615,19,Jits_Linear_5,1,1,48,43,1420173048
6615,19,Jits_Linear_5,2,5,63,98,1420214728
6615,19,Jits_Linear_5,3,5,56,103,1420245448
6615,19,Jits_Linear_5,0,5,56,103,1420674272
6615,19,Jits_Linear_5,1,5,80,127,1420684916
6615,19,Jits_Linear_5,2,1,48,55,1420722880
6615,19,Jits_Linear_5,3,5,63,98,1420755264
6615,19,Jits_Linear_5,0,5,56,103,1421215104
6615,19,Jits_Linear_5,1,5,63,98,1421234740
6615,19,Jits_Linear_5,2,1,48,52,1421267980
6615,19,Jits_Linear_5,3,5,80,127,1421294928
6615,19,Jits_Linear_5,0,5,80,127,1421744616
6615,19,Jits_Linear_5,1,5,63,98,1421815224
6615,19,Jits_Linear_5,2,5,56,103,1421834564
6615,19,Jits_Linear_5,3,1,48,56,1421840072
6615,19,Jits_Linear_5,0,5,80,127,1422304732
6615,19,Jits_Linear_5,1,5,56,103,1422314856
6615,19,Jits_Linear_5,2,5,63,98,1422325200
6615,19,Jits_Linear_5,3,1,48,52,1422373576
6615,19,Jits_Linear_5,0,5,80,127,1422834928
6615,19,Jits_Linear_5,1,1,48,46,1422849132
6615,19,Jits_Linear_5,2,5,56,103,1422854632
6615,19,Jits_Linear_5,3,5,63,98,1422925136
6615,19,Jits_Linear_5,0,5,56,103,1423385052
6615,19,Jits_Linear_5,1,1,48,49,1423399704
6615,19,Jits_Linear_5,2,5,80,127,1423414720
6615,19,Jits_Linear_5,3,5,63,98,1423435108
6615,19,Jits_Linear_5,0,5,63,98,1423924688
6615,19,Jits_Linear_5,1,1,48,45,1423935528
6615,19,Jits_Linear_5,2,5,56,103,1423985000
6615,19,Jits_Linear_5,3,5,80,127,1424014896
6615,19,Jits_Linear_5,0,5,63,98,1424465124
6615,19,Jits_Linear_5,1,5,80,127,1424468720
6615,19,Jits_Linear_5,2,1,48,48,1424524220
6615,19,Jits_Linear_5,3,5,56,103,1424555260
6615,19,Jits_Linear_5,0,1,48,55,1425013480
6615,19,Jits_Linear_5,1,5,56,103,1425034632
6615,19,Jits_Linear_5,2,5,63,98,1425065280
6615,19,Jits_Linear_5,3,5,80,127,1425105220
6615,19,Jits_Linear_5,0,5,63,98,1425584748
6615,19,Jits_Linear_5,1,1,48,48,1425603012
6615,19,Jits_Linear_5,2,5,56,103,1425624532
6615,19,Jits_Linear_5,3,5,80,127,1425644868
6615,19,Jits_Linear_5,0,1,48,47,1426121696
6615,19,Jits_Linear_5,1,5,63,98,1426144760
6615,19,Jits_Linear_5,2,5,56,103,1426184628
6615,19,Jits_Linear_5,3,5,80,127,1426194900
6615,19,Jits_Linear_5,0,1,48,48,1426663980
6615,19,Jits_Linear_5,1,5,80,127,1426675016
6615,19,Jits_Linear_5,2,5,63,98,1426744628
6615,19,Jits_Linear_5,3,5,56,103,1426765072
6615,19,Jits_Linear_5,0,5,56,103,1427224908
6615,19,Jits_Linear_5,1,1,48,45,1427233356
6615,19,Jits_Linear_5,2,5,80,127,1427245584
6615,19,Jits_Linear_5,3,5,63,98,1427285228
6615,19,Jits_Linear_5,0,1,48,47,1427747196
6615,19,Jits_Linear_5,1,5,63,98,1427795176
6615,19,Jits_Linear_5,2,5,80,127,1427814740
6615,19,Jits_Linear_5,3,5,56,103,1427854664
6615,19,Jits_Linear_5,0,1,48,52,1428306816
6615,19,Jits_Linear_5,1,5,63,98,1428354500
6615,19,Jits_Linear_5,2,5,56,103,1428374888
6615,19,Jits_Linear_5,3,5,80,127,1428385008
6615,19,Jits_Linear_5,0,1,48,57,1428896188
6615,19,Jits_Linear_5,1,5,80,127,1428914720
6615,19,Jits_Linear_5,2,5,56,103,1428935032
6615,19,Jits_Linear_5,3,5,63,98,1428964660
6615,19,Jits_Linear_5,0,1,48,49,1429497120
6615,19,Jits_Linear_5,1,5,56,103,1429554536
6615,19,Jits_Linear_5,2,5,80,127,1429557604
6615,19,Jits_Linear_5,3,5,63,98,1429574920
6615,19,Jits_Linear_5,0,5,63,98,1430044936
6615,19,Jits_Linear_5,1,5,56,103,1430074688
6615,19,Jits_Linear_5,2,5,80,127,1430135004
6615,19,Jits_Linear_5,3,1,48,54,1430138568
6615,19,Jits_Linear_5,0,1,48,56,1430674584
6615,19,Jits_Linear_5,1,5,63,98,1430704724
6615,19,Jits_Linear_5,2,5,56,103,1430714772
6615,19,Jits_Linear_5,3,5,80,127,1430724968
6615,19,Jits_Linear_5,0,5,56,103,1431224652
6615,19,Jits_Linear_5,1,5,80,127,1431255524
6615,19,Jits_Linear_5,2,5,63,98,1431264696
6615,19,Jits_Linear_5,3,1,48,55,1431283480
6615,19,Jits_Linear_5,0,5,63,98,1431834964
6615,19,Jits_Linear_5,1,5,56,103,1431845236
6615,19,Jits_Linear_5,2,5,80,127,1431864648
6615,19,Jits_Linear_5,3,1,48,55,1431893396
6615,19,Jits_Linear_5,0,5,56,103,1432334808
6615,19,Jits_Linear_5,1,5,63,98,1432395124
6615,19,Jits_Linear_5,2,5,80,127,1432398560
6615,19,Jits_Linear_5,3,1,48,61,1432429928
6615,19,Jits_Linear_5,0,5,80,127,1432934744
6615,19,Jits_Linear_5,1,5,56,103,1432944940
6615,19,Jits_Linear_5,2,1,48,59,1432963948
6615,19,Jits_Linear_5,3,5,63,98,1433014764
6615,19,Jits_Linear_5,0,5,80,127,1433505024
6615,19,Jits_Linear_5,1,1,48,58,1433530236
6615,19,Jits_Linear_5,2,5,56,103,1433574724
6615,19,Jits_Linear_5,3,5,63,98,1433584996
6615,19,Jits_Linear_5,0,1,48,61,1434080388
6615,19,Jits_Linear_5,1,5,63,98,1434124552
6615,19,Jits_Linear_5,2,5,56,103,1434134820
6615,19,Jits_Linear_5,3,5,80,127,1434155576
6615,19,Jits_Linear_5,0,5,80,127,1434654956
6615,19,Jits_Linear_5,1,1,48,56,1434661220
6615,19,Jits_Linear_5,2,5,63,98,1434714672
6615,19,Jits_Linear_5,3,5,56,103,1434754536
6615,19,Jits_Linear_5,0,1,48,55,1435259512
6615,19,Jits_Linear_5,1,5,56,103,1435284720
6615,19,Jits_Linear_5,2,5,63,98,1435295068
6615,19,Jits_Linear_5,3,5,80,127,1435335004
6615,19,Jits_Linear_5,0,5,56,103,1435834832
6615,19,Jits_Linear_5,1,1,48,59,1435840044
6615,19,Jits_Linear_5,2,5,80,127,1435864428
6615,19,Jits_Linear_5,3,5,63,98,1435914732
6615,19,Jits_Linear_5,0,1,48,51,1436403680
6615,19,Jits_Linear_5,1,5,56,103,1436464696
6615,19,Jits_Linear_5,2,5,63,98,1436504544
6615,19,Jits_Linear_5,3,5,80,127,1436507760
6615,19,Jits_Linear_5,0,1,48,56,1437014920
6615,19,Jits_Linear_5,1,5,56,103,1437055700
6615,19,Jits_Linear_5,2,5,63,98,1437064552
6615,19,Jits_Linear_5,3,5,80,127,1437084936
6615,19,Jits_Linear_5,0,1,48,57,1437583540
6615,19,Jits_Linear_5,1,5,56,103,1437605356
6615,19,Jits_Linear_5,2,5,80,127,1437608496
6615,19,Jits_Linear_5,3,5,63,98,1437645296
6615,19,Jits_Linear_5,0,1,48,47,1438195840
6615,19,Jits_Linear_5,1,5,63,98,1438234900
6615,19,Jits_Linear_5,2,5,56,103,1438264652
6615,19,Jits_Linear_5,3,5,80,127,1438285260
6615,19,Jits_Linear_5,0,1,48,56,1438803348
6615,19,Jits_Linear_5,1,5,80,127,1438805536
6615,19,Jits_Linear_5,2,5,56,103,1438814464
6615,19,Jits_Linear_5,3,5,63,98,1438824960
6615,19,Jits_Linear_5,0,1,48,51,1439370964
6615,19,Jits_Linear_5,1,5,56,103,1439405540
6615,19,Jits_Linear_5,2,5,80,127,1439445628
6615,19,Jits_Linear_5,3,5,63,98,1439474944
6615,19,Jits_Linear_5,0,1,48,54,1440013512
6615,19,Jits_Linear_5,1,5,63,98,1440015084
6615,19,Jits_Linear_5,2,5,80,127,1440024908
6615,19,Jits_Linear_5,3,5,56,103,1440035404
6615,19,Jits_Linear_5,0,5,56,103,1440595464
6615,19,Jits_Linear_5,1,1,48,49,1440626756
6615,19,Jits_Linear_5,2,5,63,98,1440665068
6615,19,Jits_Linear_5,3,5,80,127,1440675412
6615,19,Jits_Linear_5,0,5,80,127,1441204552
6615,19,Jits_Linear_5,1,5,56,103,1441214748
6615,19,Jits_Linear_5,2,1,48,51,1441244716
6615,19,Jits_Linear_5,3,5,63,98,1441264896
6615,19,Jits_Linear_5,0,5,80,127,1441825344
6615,19,Jits_Linear_5,1,1,48,59,1441839700
6615,19,Jits_Linear_5,2,5,56,103,1441884388
6615,19,Jits_Linear_5,3,5,63,98,1441915184
6615,19,Jits_Linear_5,0,5,56,103,1442434356
6615,19,Jits_Linear_5,1,5,80,127,1442437572
6615,19,Jits_Linear_5,2,1,48,58,1442469240
6615,19,Jits_Linear_5,3,5,63,98,1442475336
6615,19,Jits_Linear_5,0,5,56,103,1443074320
6615,19,Jits_Linear_5,1,1,48,57,1443085388
6615,19,Jits_Linear_5,2,5,63,98,1443105188
6615,19,Jits_Linear_5,3,5,80,127,1443115384
6615,19,Jits_Linear_5,0,1,48,51,1443680820
6615,19,Jits_Linear_5,1,5,63,98,1443694864
6615,19,Jits_Linear_5,2,5,80,127,1443705284
6615,19,Jits_Linear_5,3,5,56,103,1443714360
6615,19,Jits_Linear_5,0,5,80,127,1444255312
6615,19,Jits_Linear_5,1,1,48,56,1444268620
6615,19,Jits_Linear_5,2,5,56,103,1444305508
6615,19,Jits_Linear_5,3,5,63,98,1444308500
6615,19,Jits_Linear_5,0,1,48,54,1444856360
6615,19,Jits_Linear_5,1,5,56,103,1444905316
6615,19,Jits_Linear_5,2,5,80,127,1444924728
6615,19,Jits_Linear_5,3,5,63,98,1444935372
6615,19,Jits_Linear_5,0,1,48,58,1445489852
6615,19,Jits_Linear_5,1,5,63,98,1445505540
6615,19,Jits_Linear_5,2,5,56,103,1445535144
6615,19,Jits_Linear_5,3,5,80,127,1445554708
6615,19,Jits_Linear_5,0,1,48,52,1446091276
6615,19,Jits_Linear_5,1,5,56,103,1446135388
6615,19,Jits_Linear_5,2,5,80,127,1446145364
6615,19,Jits_Linear_5,3,5,63,98,1446215104
6615,19,Jits_Linear_5,0,1,48,56,1446726600
6615,19,Jits_Linear_5,1,5,63,98,1446744536
6615,19,Jits_Linear_5,2,5,80,127,1446785376
6615,19,Jits_Linear_5,3,5,56,103,1446825524
6615,19,Jits_Linear_5,0,1,48,57,1447372152
6615,19,Jits_Linear_5,1,5,56,103,1447384328
6615,19,Jits_Linear_5,2,5,63,98,1447394548
6615,19,Jits_Linear_5,3,5,80,127,1447415308
6615,19,Jits_Linear_5,0,1,48,54,1448042160
6615,19,Jits_Linear_5,1,5,63,98,1448055308
6615,19,Jits_Linear_5,2,5,80,127,1448074500
6615,19,Jits_Linear_5,3,5,56,103,1448095180
6615,19,Jits_Linear_5,0,5,56,103,1448634716
6615,19,Jits_Linear_5,1,1,48,61,1448657688
6615,19,Jits_Linear_5,2,5,80,127,1448714608
6615,19,Jits_Linear_5,3,5,63,98,1448725028
6615,19,Jits_Linear_5,0,5,80,127,1449314632
6615,19,Jits_Linear_5,1,1,48,54,1449319316
6615,19,Jits_Linear_5,2,5,63,98,1449324968
6615,19,Jits_Linear_5,3,5,56,103,1449354572
6615,19,Jits_Linear_5,0,5,63,98,1449914800
6615,19,Jits_Linear_5,1,5,80,127,1449954692
6615,19,Jits_Linear_5,2,1,48,55,1449968972
6615,19,Jits_Linear_5,3,5,56,103,1450015448
6615,19,Jits_Linear_5,0,5,63,98,1450575516
6615,19,Jits_Linear_5,1,5,56,103,1450625424
6615,19,Jits_Linear_5,2,1,48,49,1450628248
6615,19,Jits_Linear_5,3,5,80,127,1450655316
6615,19,Jits_Linear_5,0,5,80,127,1451224300
6615,19,Jits_Linear_5,1,5,63,98,1451234596
6615,19,Jits_Linear_5,2,1,48,48,1451239060
6615,19,Jits_Linear_5,3,5,56,103,1451305320
6615,19,Jits_Linear_5,0,1,48,52,1451909796
6615,19,Jits_Linear_5,1,5,80,127,1451935228
6615,19,Jits_Linear_5,2,5,56,103,1451945424
6615,19,Jits_Linear_5,3,5,63,98,1451948416
6615,19,Jits_Linear_5,0,5,56,103,1452514660
6615,19,Jits_Linear_5,1,5,80,127,1452535268
6615,19,Jits_Linear_5,2,5,63,98,1452545464
6615,19,Jits_Linear_5,3,1,48,50,1452579668
6615,19,Jits_Linear_5,0,5,63,98,1453164880
6615,19,Jits_Linear_5,1,1,48,49,1453174072
6615,19,Jits_Linear_5,2,5,56,103,1453204888
6615,19,Jits_Linear_5,3,5,80,127,1453225196
6615,19,Jits_Linear_5,0,5,63,98,1453804848
6615,19,Jits_Linear_5,1,1,48,50,1453811256
6615,19,Jits_Linear_5,2,5,56,103,1453865224
6615,19,Jits_Linear_5,3,5,80,127,1453868300
6615,19,Jits_Linear_5,0,5,56,103,1454424624
6615,19,Jits_Linear_5,1,5,80,127,1454445012
6615,19,Jits_Linear_5,2,1,48,57,1454482440
6615,19,Jits_Linear_5,3,5,63,98,1454484796
6615,19,Jits_Linear_5,0,1,48,53,1455072276
6615,19,Jits_Linear_5,1,5,56,103,1455105352
6615,19,Jits_Linear_5,2,5,63,98,1455124840
6615,19,Jits_Linear_5,3,5,80,127,1455135332
6615,19,Jits_Linear_5,0,1,48,56,1455707352
6615,19,Jits_Linear_5,1,5,80,127,1455725060
6615,19,Jits_Linear_5,2,5,56,103,1455754660
6615,19,Jits_Linear_5,3,5,63,98,1455794528
6615,19,Jits_Linear_5,0,1,48,44,1456350532
6615,19,Jits_Linear_5,1,5,80,127,1456385328
6615,19,Jits_Linear_5,2,5,56,103,1456404740
6615,19,Jits_Linear_5,3,5,63,98,1456465340
6615,19,Jits_Linear_5,0,1,48,60,1457014008
6615,19,Jits_Linear_5,1,5,56,103,1457044824
6615,19,Jits_Linear_5,2,5,80,127,1457065356
6615,19,Jits_Linear_5,3,5,63,98,1457124636
6615,19,Jits_Linear_5,0,1,48,67,1457667448
6615,19,Jits_Linear_5,1,5,80,127,1457684936
6615,19,Jits_Linear_5,2,5,56,103,1457695056
6615,19,Jits_Linear_5,3,5,63,98,1457734996
6615,19,Jits_Linear_5,0,5,63,98,1458345404
6615,19,Jits_Linear_5,1,1,48,66,1458354300
6615,19,Jits_Linear_5,2,5,56,103,1458385260
6615,19,Jits_Linear_5,3,5,80,127,1458388328
6615,19,Jits_Linear_5,0,1,48,69,1458983156
6615,19,Jits_Linear_5,1,5,63,98,1459025432
6615,19,Jits_Linear_5,2,5,80,127,1459065072
6615,19,Jits_Linear_5,3,5,56,103,1459095180
6615,19,Jits_Linear_5,0,5,56,103,1459674444
6615,19,Jits_Linear_5,1,5,63,98,1459684864
6615,19,Jits_Linear_5,2,1,48,62,1459685828
6615,19,Jits_Linear_5,3,5,80,127,1459714308
6615,19,Jits_Linear_5,0,5,80,127,1460335148
6615,19,Jits_Linear_5,1,1,48,54,1460354680
6615,19,Jits_Linear_5,2,5,63,98,1460404752
6615,19,Jits_Linear_5,3,5,56,103,1460415168
6615,19,Jits_Linear_5,0,5,63,98,1461004944
6615,19,Jits_Linear_5,1,1,48,68,1461027028
6615,19,Jits_Linear_5,2,5,56,103,1461075224
6615,19,Jits_Linear_5,3,5,80,127,1461084672
6615,19,Jits_Linear_5,0,5,63,98,1461675380
6615,19,Jits_Linear_5,1,5,56,103,1461695016
6615,19,Jits_Linear_5,2,1,48,61,1461719708
6615,19,Jits_Linear_5,3,5,80,127,1461734972
6615,19,Jits_Linear_5,0,5,56,103,1462355272
6615,19,Jits_Linear_5,1,5,63,98,1462364424
6615,19,Jits_Linear_5,2,1,48,60,1462377056
6615,19,Jits_Linear_5,3,5,80,127,1462445556
6615,19,Jits_Linear_5,0,5,63,98,1463014732
6615,19,Jits_Linear_5,1,1,48,58,1463034040
6615,19,Jits_Linear_5,2,5,56,103,1463044328
6615,19,Jits_Linear_5,3,5,80,127,1463085388
6615,19,Jits_Linear_5,0,5,56,103,1463684412
6615,19,Jits_Linear_5,1,1,48,61,1463716904
6615,19,Jits_Linear_5,2,5,63,98,1463725544
6615,19,Jits_Linear_5,3,5,80,127,1463765332
6615,19,Jits_Linear_5,0,5,80,127,1464365372
6615,19,Jits_Linear_5,1,1,48,61,1464373296
6615,19,Jits_Linear_5,2,5,56,103,1464445240
6615,19,Jits_Linear_5,3,5,63,98,1464454536
6615,19,Jits_Linear_5,0,5,56,103,1465085368
6615,19,Jits_Linear_5,1,5,63,98,1465088508
6615,19,Jits_Linear_5,2,5,80,127,1465094592
6615,19,Jits_Linear_5,3,1,48,64,1465100252
6615,19,Jits_Linear_5,0,1,48,64,1465758992
6615,19,Jits_Linear_5,1,5,56,103,1465784572
6615,19,Jits_Linear_5,2,5,63,98,1465805256
6615,19,Jits_Linear_5,3,5,80,127,1465815452
6615,19,Jits_Linear_5,0,5,63,98,1466424548
6615,19,Jits_Linear_5,1,5,80,127,1466434968
6615,19,Jits_Linear_5,2,1,48,54,1466452984
6615,19,Jits_Linear_5,3,5,56,103,1466455420
6615,19,Jits_Linear_5,0,1,48,65,1467076736
6615,19,Jits_Linear_5,1,5,63,98,1467114996
6615,19,Jits_Linear_5,2,5,56,103,1467194780
6615,19,Jits_Linear_5,3,5,80,127,1467197772
6615,19,Jits_Linear_5,0,1,48,54,1467786748
6615,19,Jits_Linear_5,1,5,63,98,1467804980
6615,19,Jits_Linear_5,2,5,56,103,1467824544
6615,19,Jits_Linear_5,3,5,80,127,1467855340
6615,19,Jits_Linear_5,0,1,48,61,1468461392
6615,19,Jits_Linear_5,1,5,56,103,1468495068
6615,19,Jits_Linear_5,2,5,63,98,1468514780
6615,19,Jits_Linear_5,3,5,80,127,1468524900
6615,19,Jits_Linear_5,0,1,48,62,1469145616
6615,19,Jits_Linear_5,1,5,56,103,1469215120
6615,19,Jits_Linear_5,2,5,63,98,1469244932
6615,19,Jits_Linear_5,3,5,80,127,1469248220
6615,19,Jits_Linear_5,0,5,56,103,1469855056
6615,19,Jits_Linear_5,1,1,48,63,1469875184
6615,19,Jits_Linear_5,2,5,63,98,1469894916
6615,19,Jits_Linear_5,3,5,80,127,1469954360
6615,19,Jits_Linear_5,0,5,56,103,1470564788
6615,19,Jits_Linear_5,1,5,63,98,1470574912
6615,19,Jits_Linear_5,2,1,48,62,1470580568
6615,19,Jits_Linear_5,3,5,80,127,1470635368
6615,19,Jits_Linear_5,0,1,48,58,1471241808
6615,19,Jits_Linear_5,1,5,56,103,1471265144
6615,19,Jits_Linear_5,2,5,80,127,1471284560
6615,19,Jits_Linear_5,3,5,63,98,1471315356
6615,19,Jits_Linear_5,0,1,48,49,1471894940
6615,19,Jits_Linear_5,1,5,80,127,1471964524
6615,19,Jits_Linear_5,2,5,56,103,1471975092
6615,19,Jits_Linear_5,3,5,63,98,1471995312
6615,19,Jits_Linear_5,0,1,48,58,1472556848
6615,19,Jits_Linear_5,1,5,63,98,1472655764
6615,19,Jits_Linear_5,2,5,80,127,1472734988
6615,19,Jits_Linear_5,3,5,56,103,1472745184
6615,19,Jits_Linear_5,0,1,48,56,1473345316
6615,19,Jits_Linear_5,1,5,80,127,1473414648
6615,19,Jits_Linear_5,2,5,56,103,1473434960
6615,19,Jits_Linear_5,3,5,63,98,1473438760
6615,19,Jits_Linear_5,0,5,63,98,1474094396
6615,19,Jits_Linear_5,1,5,80,127,1474097908
6615,19,Jits_Linear_5,2,1,48,65,1474105832
6615,19,Jits_Linear_5,3,5,56,103,1474154852
6615,19,Jits_Linear_5,0,5,56,103,1474784696
6615,19,Jits_Linear_5,1,5,80,127,1474795044
6615,19,Jits_Linear_5,2,1,48,64,1474808500
6615,19,Jits_Linear_5,3,5,63,98,1474834904
6615,19,Jits_Linear_5,0,1,48,60,1475471132
6615,19,Jits_Linear_5,1,5,56,103,1475474836
6615,19,Jits_Linear_5,2,5,63,98,1475535084
6615,19,Jits_Linear_5,3,5,80,127,1475544380
6615,19,Jits_Linear_5,0,1,48,62,1476151776
6615,19,Jits_Linear_5,1,5,63,98,1476194816
6615,19,Jits_Linear_5,2,5,80,127,1476234760
6615,19,Jits_Linear_5,3,5,56,103,1476274684
6615,19,Jits_Linear_5,0,1,48,63,1476876636
6615,19,Jits_Linear_5,1,5,56,103,1476905356
6615,19,Jits_Linear_5,2,5,63,98,1476985288
6615,19,Jits_Linear_5,3,5,80,127,1476988576
6615,19,Jits_Linear_5,0,1,48,59,1477616608
6615,19,Jits_Linear_5,1,5,80,127,1477675308
6615,19,Jits_Linear_5,2,5,56,103,1477705128
6615,19,Jits_Linear_5,3,5,63,98,1477708124
6615,19,Jits_Linear_5,0,5,56,103,1478355324
6615,19,Jits_Linear_5,1,5,80,127,1478374912
6615,19,Jits_Linear_5,2,1,48,61,1478383884
6615,19,Jits_Linear_5,3,5,63,98,1478414696
6615,19,Jits_Linear_5,0,5,80,127,1479054944
6615,19,Jits_Linear_5,1,5,63,98,1479075104
6615,19,Jits_Linear_5,2,1,48,50,1479113592
6615,19,Jits_Linear_5,3,5,56,103,1479134764
6615,19,Jits_Linear_5,0,5,63,98,1479784752
6615,19,Jits_Linear_5,1,5,56,103,1479794948
6615,19,Jits_Linear_5,2,1,48,54,1479801728
6615,19,Jits_Linear_5,3,5,80,127,1479845216
6615,19,Jits_Linear_5,0,1,48,55,1480494168
6615,19,Jits_Linear_5,1,5,56,103,1480495728
6615,19,Jits_Linear_5,2,5,63,98,1480514844
6615,19,Jits_Linear_5,3,5,80,127,1480525116
6615,19,Jits_Linear_5,0,1,48,64,1481193660
6615,19,Jits_Linear_5,1,5,56,103,1481215404
6615,19,Jits_Linear_5,2,5,63,98,1481218324
6615,19,Jits_Linear_5,3,5,80,127,1481234672
6615,19,Jits_Linear_5,0,1,48,52,1481917332
6615,19,Jits_Linear_5,1,5,63,98,1481985420
6615,19,Jits_Linear_5,2,5,56,103,1482015024
6615,19,Jits_Linear_5,3,5,80,127,1482044760
6615,19,Jits_Linear_5,0,1,48,54,1482640760
6615,19,Jits_Linear_5,1,5,80,127,1482674736
6615,19,Jits_Linear_5,2,5,56,103,1482764660
6615,19,Jits_Linear_5,3,5,63,98,1482768024
6615,19,Jits_Linear_5,0,5,56,103,1483404604
6615,19,Jits_Linear_5,1,5,80,127,1483407596
6615,19,Jits_Linear_5,2,1,48,57,1483413944
6615,19,Jits_Linear_5,3,5,63,98,1483484640
6615,19,Jits_Linear_5,0,5,80,127,1484134776
6615,19,Jits_Linear_5,1,1,48,57,1484178200
6615,19,Jits_Linear_5,2,5,63,98,1484195164
6615,19,Jits_Linear_5,3,5,56,103,1484224912
6615,19,Jits_Linear_5,0,5,63,98,1484864956
6615,19,Jits_Linear_5,1,5,80,127,1484875080
6615,19,Jits_Linear_5,2,5,56,103,1484944988
6615,19,Jits_Linear_5,3,1,48,54,1484949752
6615,19,Jits_Linear_5,0,5,56,103,1485614528
6615,19,Jits_Linear_5,1,1,48,65,1485620264
6615,19,Jits_Linear_5,2,5,80,127,1485645316
6615,19,Jits_Linear_5,3,5,63,98,1485695444
6615,19,Jits_Linear_5,0,1,48,58,1486325640
6615,19,Jits_Linear_5,1,5,63,98,1486394676
6615,19,Jits_Linear_5,2,5,56,103,1486424576
6615,19,Jits_Linear_5,3,5,80,127,1486428600
6615,19,Jits_Linear_5,0,1,48,61,1487073644
6615,19,Jits_Linear_5,1,5,63,98,1487145660
6615,19,Jits_Linear_5,2,5,80,127,1487164704
6615,19,Jits_Linear_5,3,5,56,103,1487175032
6615,19,Jits_Linear_5,0,1,48,59,1487861940
6615,19,Jits_Linear_5,1,5,56,103,1487894864
6615,19,Jits_Linear_5,2,5,63,98,1487897856
6615,19,Jits_Linear_5,3,5,80,127,1487915692
6615,19,Jits_Linear_5,0,5,56,103,1488595260
6615,19,Jits_Linear_5,1,5,63,98,1488604512
6615,19,Jits_Linear_5,2,1,48,55,1488622308
6615,19,Jits_Linear_5,3,5,80,127,1488635228
6615,19,Jits_Linear_5,0,1,48,57,1489319632
6615,19,Jits_Linear_5,1,5,63,98,1489365444
6615,19,Jits_Linear_5,2,5,80,127,1489384808
6615,19,Jits_Linear_5,3,5,56,103,1489424808
6615,19,Jits_Linear_5,0,1,48,55,1490053488
6615,19,Jits_Linear_5,1,5,56,103,1490144716
6615,19,Jits_Linear_5,2,5,63,98,1490184640
6615,19,Jits_Linear_5,3,5,80,127,1490187780
6615,19,Jits_Linear_5,0,5,80,127,1490834924
6615,19,Jits_Linear_5,1,5,56,103,1490874640
6615,19,Jits_Linear_5,2,1,48,59,1490910444
6615,19,Jits_Linear_5,3,5,63,98,1490925084
6615,19,Jits_Linear_5,0,5,56,103,1491644752
6615,19,Jits_Linear_5,1,5,80,127,1491654876
6615,19,Jits_Linear_5,2,5,63,98,1491684652
6615,19,Jits_Linear_5,3,1,48,59,1491685988
6615,19,Jits_Linear_5,0,5,56,103,1492345120
6615,19,Jits_Linear_5,1,5,80,127,1492385284
6615,19,Jits_Linear_5,2,1,48,60,1492397320
6615,19,Jits_Linear_5,3,5,63,98,1492435480
6615,19,Jits_Linear_5,0,5,56,103,1493104972
6615,19,Jits_Linear_5,1,5,80,127,1493144912
6615,19,Jits_Linear_5,2,1,48,57,1493167060
6615,19,Jits_Linear_5,3,5,63,98,1493195260
6615,19,Jits_Linear_5,0,5,80,127,1493854636
6615,19,Jits_Linear_5,1,1,48,57,1493904284
6615,19,Jits_Linear_5,2,5,63,98,1493934504
6615,19,Jits_Linear_5,3,5,56,103,1493944624
6615,19,Jits_Linear_5,0,5,80,127,1494664540
6615,19,Jits_Linear_5,1,1,48,55,1494671624
6615,19,Jits_Linear_5,2,5,56,103,1494674880
6615,19,Jits_Linear_5,3,5,63,98,1494695488
6615,19,Jits_Linear_5,0,5,63,98,1495394720
6615,19,Jits_Linear_5,1,1,48,59,1495419264
6615,19,Jits_Linear_5,2,5,56,103,1495465444
6615,19,Jits_Linear_5,3,5,80,127,1495468440
6615,19,Jits_Linear_5,0,1,48,54,1496145008
6615,19,Jits_Linear_5,1,5,80,127,1496154620
6615,19,Jits_Linear_5,2,5,63,98,1496204600
6615,19,Jits_Linear_5,3,5,56,103,1496244676
6615,19,Jits_Linear_5,0,1,48,55,1496926496
6615,19,Jits_Linear_5,1,5,63,98,1496964660
6615,19,Jits_Linear_5,2,5,56,103,1497005424
6615,19,Jits_Linear_5,3,5,80,127,1497014724
6615,19,Jits_Linear_5,0,1,48,59,1497674880
6615,19,Jits_Linear_5,1,5,63,98,1497725548
6615,19,Jits_Linear_5,2,5,56,103,1497744812
6615,19,Jits_Linear_5,3,5,80,127,1497765348
6615,19,Jits_Linear_5,0,1,48,55,1498380156
6615,19,Jits_Linear_5,1,5,80,127,1498455416
6615,19,Jits_Linear_5,2,5,56,103,1498464716
6615,19,Jits_Linear_5,3,5,63,98,1498485012
6615,19,Jits_Linear_5,0,1,48,49,1499147712
6615,19,Jits_Linear_5,1,5,63,98,1499255092
6615,19,Jits_Linear_5,2,5,56,103,1499294960
6615,19,Jits_Linear_5,3,5,80,127,1499324712
6615,19,Jits_Linear_5,0,1,48,51,1499864452
6615,19,Jits_Linear_5,1,5,56,103,1500034612
6615,19,Jits_Linear_5,2,5,63,98,1500065336
6615,19,Jits_Linear_5,3,5,80,127,1500094716
6615,19,Jits_Linear_5,0,1,48,54,1500659420
6615,19,Jits_Linear_5,1,5,80,127,1500784940
6615,19,Jits_Linear_5,2,5,56,103,1500854620
6615,19,Jits_Linear_5,3,5,63,98,1500857988
6615,19,Jits_Linear_5,0,5,56,103,1501574536
6615,19,Jits_Linear_5,1,1,48,51,1501576172
6615,19,Jits_Linear_5,2,5,63,98,1501624732
6615,19,Jits_Linear_5,3,5,80,127,1501655380
6615,19,Jits_Linear_5,0,5,63,98,1502335356
6615,19,Jits_Linear_5,1,5,80,127,1502338572
6615,19,Jits_Linear_5,2,1,48,56,1502366348
6615,19,Jits_Linear_5,3,5,56,103,1502394620
6615,19,Jits_Linear_5,0,1,48,52,1503134416
6615,19,Jits_Linear_5,1,5,56,103,1503145304
6615,19,Jits_Linear_5,2,5,80,127,1503154528
6615,19,Jits_Linear_5,3,5,63,98,1503204680
6615,19,Jits_Linear_5,0,5,63,98,1503905224
6615,19,Jits_Linear_5,1,5,56,103,1503915344
6615,19,Jits_Linear_5,2,1,48,54,1503924244
6615,19,Jits_Linear_5,3,5,80,127,1503945164
6615,19,Jits_Linear_5,0,1,48,56,1504679108
6615,19,Jits_Linear_5,1,5,63,98,1504725360
6615,19,Jits_Linear_5,2,5,80,127,1504728892
6615,19,Jits_Linear_5,3,5,56,103,1504755204
6615,19,Jits_Linear_5,0,1,48,55,1505467100
6615,19,Jits_Linear_5,1,5,63,98,1505535408
6615,19,Jits_Linear_5,2,5,56,103,1505554664
6615,19,Jits_Linear_5,3,5,80,127,1505558620
6615,19,Jits_Linear_5,0,1,48,71,1506280144
6615,19,Jits_Linear_5,1,5,63,98,1506284900
6615,19,Jits_Linear_5,2,5,56,103,1506354508
6615,19,Jits_Linear_5,3,5,80,127,1506375264
6615,19,Jits_Linear_5,0,5,56,103,1507065496
6615,19,Jits_Linear_5,1,5,63,98,1507074272
6615,19,Jits_Linear_5,2,1,48,62,1507110052
6615,19,Jits_Linear_5,3,5,80,127,1507164624
6615,19,Jits_Linear_5,0,1,48,65,1507842556
6615,19,Jits_Linear_5,1,5,56,103,1507875392
6615,19,Jits_Linear_5,2,5,80,127,1507915184
6615,19,Jits_Linear_5,3,5,63,98,1507925232
6615,19,Jits_Linear_5,0,1,48,66,1508625304
6615,19,Jits_Linear_5,1,5,56,103,1508695532
6615,19,Jits_Linear_5,2,5,63,98,1508725420
6615,19,Jits_Linear_5,3,5,80,127,1508754724
6615,19,Jits_Linear_5,0,5,80,127,1509455304
6615,19,Jits_Linear_5,1,1,48,65,1509460668
6615,19,Jits_Linear_5,2,5,63,98,1509495464
6615,19,Jits_Linear_5,3,5,56,103,1509514580
6615,19,Jits_Linear_5,0,1,48,61,1510266972
6615,19,Jits_Linear_5,1,5,56,103,1510294944
6615,19,Jits_Linear_5,2,5,80,127,1510315404
6615,19,Jits_Linear_5,3,5,63,98,1510334964
6615,19,Jits_Linear_5,0,5,63,98,1511065124
6615,19,Jits_Linear_5,1,1,48,61,1511068020
6615,19,Jits_Linear_5,2,5,56,103,1511075316
6615,19,Jits_Linear_5,3,5,80,127,1511134612
6615,19,Jits_Linear_5,0,1,48,66,1511807172
6615,19,Jits_Linear_5,1,5,56,103,1511874852
6615,19,Jits_Linear_5,2,5,63,98,1511944552
6615,19,Jits_Linear_5,3,5,80,127,1511965008
6615,19,Jits_Linear_5,0,1,48,59,1512676048
6615,19,Jits_Linear_5,1,5,56,103,1512684768
6615,19,Jits_Linear_5,2,5,63,98,1512714592
6615,19,Jits_Linear_5,3,5,80,127,1512754608
6615,19,Jits_Linear_5,0,5,63,98,1513484544
6615,19,Jits_Linear_5,1,1,48,55,1513491776
6615,19,Jits_Linear_5,2,5,56,103,1513534964
6615,19,Jits_Linear_5,3,5,80,127,1513545308
6615,19,Jits_Linear_5,0,1,48,57,1514260436
6615,19,Jits_Linear_5,1,5,56,103,1514334500
6615,19,Jits_Linear_5,2,5,63,98,1514385064
6615,19,Jits_Linear_5,3,5,80,127,1514395336
6615,19,Jits_Linear_5,0,1,48,54,1515115172
6615,19,Jits_Linear_5,1,5,56,103,1515116364
6615,19,Jits_Linear_5,2,5,63,98,1515125216
6615,19,Jits_Linear_5,3,5,80,127,1515205160
6615,19,Jits_Linear_5,0,9999,9999,9999,1406282824
6615,19,Jits_Linear_5,1,9999,9999,9999,1406763136
6615,19,Jits_Linear_5,2,9999,9999,9999,1407252536
6615,19,Jits_Linear_5,3,9999,9999,9999,1407732864
6615,19,Jits_Linear_5,4,9999,9999,9999,1408213064
6615,19,Jits_Linear_5,5,9999,9999,9999,1408702580
6615,19,Jits_Linear_5,6,9999,9999,9999,1409193048
6615,19,Jits_Linear_5,7,9999,9999,9999,1409682492
6615,19,Jits_Linear_5,8,9999,9999,9999,1410173032
6615,19,Jits_Linear_5,9,9999,9999,9999,1410662476
6615,19,Jits_Linear_5,10,9999,9999,9999,1411162172
6615,19,Jits_Linear_5,11,9999,9999,9999,1411662924
6615,19,Jits_Linear_5,12,9999,9999,9999,1412162684
6615,19,Jits_Linear_5,13,9999,9999,9999,1412662368
6615,19,Jits_Linear_5,14,9999,9999,9999,1413163104
6615,19,Jits_Linear_5,15,9999,9999,9999,1413682288
6615,19,Jits_Linear_5,16,9999,9999,9999,1414192236
6615,19,Jits_Linear_5,17,9999,9999,9999,1414702192
6615,19,Jits_Linear_5,18,9999,9999,9999,1415212152
6615,19,Jits_Linear_5,19,9999,9999,9999,1415723092
6615,19,Jits_Linear_5,20,9999,9999,9999,1416252472
6615,19,Jits_Linear_5,21,9999,9999,9999,1416772700
6615,19,Jits_Linear_5,22,9999,9999,9999,1417292928
6615,19,Jits_Linear_5,23,9999,9999,9999,1417813080
6615,19,Jits_Linear_5,24,9999,9999,9999,1418332264
6615,19,Jits_Linear_5,25,9999,9999,9999,1418862680
6615,19,Jits_Linear_5,26,9999,9999,9999,1419392056
6615,19,Jits_Linear_5,27,9999,9999,9999,1419922520
6615,19,Jits_Linear_5,28,9999,9999,9999,1420452944
6615,19,Jits_Linear_5,29,9999,9999,9999,1420982388
6615,19,Jits_Linear_5,30,9999,9999,9999,1421523068
6615,19,Jits_Linear_5,31,9999,9999,9999,1422062648
6615,19,Jits_Linear_5,32,9999,9999,9999,1422602360
6615,19,Jits_Linear_5,33,9999,9999,9999,1423142968
6615,19,Jits_Linear_5,34,9999,9999,9999,1423682676
6615,19,Jits_Linear_5,35,9999,9999,9999,1424232504
6615,19,Jits_Linear_5,36,9999,9999,9999,1424782452
6615,19,Jits_Linear_5,37,9999,9999,9999,1425332340
6615,19,Jits_Linear_5,38,9999,9999,9999,1425882228
6615,19,Jits_Linear_5,39,9999,9999,9999,1426432060
6615,19,Jits_Linear_5,40,9999,9999,9999,1426992208
6615,19,Jits_Linear_5,41,9999,9999,9999,1427552352
6615,19,Jits_Linear_5,42,9999,9999,9999,1428112440
6615,19,Jits_Linear_5,43,9999,9999,9999,1428672584
6615,19,Jits_Linear_5,44,9999,9999,9999,1429232756
6615,19,Jits_Linear_5,45,9999,9999,9999,1429803092
6615,19,Jits_Linear_5,46,9999,9999,9999,1430382716
6615,19,Jits_Linear_5,47,9999,9999,9999,1430953060
6615,19,Jits_Linear_5,48,9999,9999,9999,1431522376
6615,19,Jits_Linear_5,49,9999,9999,9999,1432092736
6615,19,Jits_Linear_5,50,9999,9999,9999,1432672356
6615,19,Jits_Linear_5,51,9999,9999,9999,1433252972
6615,19,Jits_Linear_5,52,9999,9999,9999,1433832568
6615,19,Jits_Linear_5,53,9999,9999,9999,1434412140
6615,19,Jits_Linear_5,54,9999,9999,9999,1434992744
6615,19,Jits_Linear_5,55,9999,9999,9999,1435582576
6615,19,Jits_Linear_5,56,9999,9999,9999,1436172344
6615,19,Jits_Linear_5,57,9999,9999,9999,1436762168
6615,19,Jits_Linear_5,58,9999,9999,9999,1437353032
6615,19,Jits_Linear_5,59,9999,9999,9999,1437942864
6615,19,Jits_Linear_5,60,9999,9999,9999,1438542948
6615,19,Jits_Linear_5,61,9999,9999,9999,1439143024
6615,19,Jits_Linear_5,62,9999,9999,9999,1439743052
6615,19,Jits_Linear_5,63,9999,9999,9999,1440342084
6615,19,Jits_Linear_5,64,9999,9999,9999,1440942164
6615,19,Jits_Linear_5,65,9999,9999,9999,1441552468
6615,19,Jits_Linear_5,66,9999,9999,9999,1442162756
6615,19,Jits_Linear_5,67,9999,9999,9999,1442773100
6615,19,Jits_Linear_5,68,9999,9999,9999,1443382360
6615,19,Jits_Linear_5,69,9999,9999,9999,1443992644
6615,19,Jits_Linear_5,70,9999,9999,9999,1444612216
6615,19,Jits_Linear_5,71,9999,9999,9999,1445232764
6615,19,Jits_Linear_5,72,9999,9999,9999,1445852272
6615,19,Jits_Linear_5,73,9999,9999,9999,1446472804
6615,19,Jits_Linear_5,74,9999,9999,9999,1447092292
6615,19,Jits_Linear_5,75,9999,9999,9999,1447723112
6615,19,Jits_Linear_5,76,9999,9999,9999,1448363128
6615,19,Jits_Linear_5,77,9999,9999,9999,1449003092
6615,19,Jits_Linear_5,78,9999,9999,9999,1449643120
6615,19,Jits_Linear_5,79,9999,9999,9999,1450283096
6615,19,Jits_Linear_5,80,9999,9999,9999,1450923116
6615,19,Jits_Linear_5,81,9999,9999,9999,1451563080
6615,19,Jits_Linear_5,82,9999,9999,9999,1452203108
6615,19,Jits_Linear_5,83,9999,9999,9999,1452843072
6615,19,Jits_Linear_5,84,9999,9999,9999,1453483104
6615,19,Jits_Linear_5,85,9999,9999,9999,1454142544
6615,19,Jits_Linear_5,86,9999,9999,9999,1454792820
6615,19,Jits_Linear_5,87,9999,9999,9999,1455443064
6615,19,Jits_Linear_5,88,9999,9999,9999,1456092244
6615,19,Jits_Linear_5,89,9999,9999,9999,1456742520
6615,19,Jits_Linear_5,90,9999,9999,9999,1457402936
6615,19,Jits_Linear_5,91,9999,9999,9999,1458062428
6615,19,Jits_Linear_5,92,9999,9999,9999,1458722904
6615,19,Jits_Linear_5,93,9999,9999,9999,1459382400
6615,19,Jits_Linear_5,94,9999,9999,9999,1460042864
6615,19,Jits_Linear_5,95,9999,9999,9999,1460712512
6615,19,Jits_Linear_5,96,9999,9999,9999,1461382212
6615,19,Jits_Linear_5,97,9999,9999,9999,1462052964
6615,19,Jits_Linear_5,98,9999,9999,9999,1462722648
6615,19,Jits_Linear_5,99,9999,9999,9999,1463392368
6615,19,Jits_Linear_5,100,9999,9999,9999,1464072264
6615,19,Jits_Linear_5,101,9999,9999,9999,1464752224
6615,19,Jits_Linear_5,102,9999,9999,9999,1465432128
6615,19,Jits_Linear_5,103,9999,9999,9999,1466112124
6615,19,Jits_Linear_5,104,9999,9999,9999,1466793040
6615,19,Jits_Linear_5,105,9999,9999,9999,1467482224
6615,19,Jits_Linear_5,106,9999,9999,9999,1468172384
6615,19,Jits_Linear_5,107,9999,9999,9999,1468862520
6615,19,Jits_Linear_5,108,9999,9999,9999,1469552748
6615,19,Jits_Linear_5,109,9999,9999,9999,1470242908
6615,19,Jits_Linear_5,110,9999,9999,9999,1470942300
6615,19,Jits_Linear_5,111,9999,9999,9999,1471642712
6615,19,Jits_Linear_5,112,9999,9999,9999,1472342088
6615,19,Jits_Linear_5,113,9999,9999,9999,1473042520
6615,19,Jits_Linear_5,114,9999,9999,9999,1473742912
6615,19,Jits_Linear_5,115,9999,9999,9999,1474452544
6615,19,Jits_Linear_5,116,9999,9999,9999,1475162184
6615,19,Jits_Linear_5,117,9999,9999,9999,1475872884
6615,19,Jits_Linear_5,118,9999,9999,9999,1476582524
6615,19,Jits_Linear_5,119,9999,9999,9999,1477292132
6615,19,Jits_Linear_5,120,9999,9999,9999,1478013008
6615,19,Jits_Linear_5,121,9999,9999,9999,1478732916
6615,19,Jits_Linear_5,122,9999,9999,9999,1479452756
6615,19,Jits_Linear_5,123,9999,9999,9999,1480172600
6615,19,Jits_Linear_5,124,9999,9999,9999,1480892476
6615,19,Jits_Linear_5,125,9999,9999,9999,1481622628
6615,19,Jits_Linear_5,126,9999,9999,9999,1482352724
6615,19,Jits_Linear_5,127,9999,9999,9999,1483082816
6615,19,Jits_Linear_5,128,9999,9999,9999,1483812968
6615,19,Jits_Linear_5,129,9999,9999,9999,1484543076
6615,19,Jits_Linear_5,130,9999,9999,9999,1485282400
6615,19,Jits_Linear_5,131,9999,9999,9999,1486022728
6615,19,Jits_Linear_5,132,9999,9999,9999,1486763092
6615,19,Jits_Linear_5,133,9999,9999,9999,1487512668
6615,19,Jits_Linear_5,134,9999,9999,9999,1488253016
6615,19,Jits_Linear_5,135,9999,9999,9999,1489002592
6615,19,Jits_Linear_5,136,9999,9999,9999,1489752180
6615,19,Jits_Linear_5,137,9999,9999,9999,1490502720
6615,19,Jits_Linear_5,138,9999,9999,9999,1491252292
6615,19,Jits_Linear_5,139,9999,9999,9999,1492002932
6615,19,Jits_Linear_5,140,9999,9999,9999,1492762712
6615,19,Jits_Linear_5,141,9999,9999,9999,1493522492
6615,19,Jits_Linear_5,142,9999,9999,9999,1494282344
6615,19,Jits_Linear_5,143,9999,9999,9999,1495042124
6615,19,Jits_Linear_5,144,9999,9999,9999,1495802940
6615,19,Jits_Linear_5,145,9999,9999,9999,1496573044
6615,19,Jits_Linear_5,146,9999,9999,9999,1497343076
6615,19,Jits_Linear_5,147,9999,9999,9999,1498112056
6615,19,Jits_Linear_5,148,9999,9999,9999,1498882152
6615,19,Jits_Linear_5,149,9999,9999,9999,1499652184
6615,19,Jits_Linear_5,150,9999,9999,9999,1500432452
6615,19,Jits_Linear_5,151,9999,9999,9999,1501212732
6615,19,Jits_Linear_5,152,9999,9999,9999,1501993024
6615,19,Jits_Linear_5,153,9999,9999,9999,1502772344
6615,19,Jits_Linear_5,154,9999,9999,9999,1503552636
6615,19,Jits_Linear_5,155,9999,9999,9999,1504342140
6615,19,Jits_Linear_5,156,9999,9999,9999,1505132604
6615,19,Jits_Linear_5,157,9999,9999,9999,1505922108
6615,19,Jits_Linear_5,158,9999,9999,9999,1506712664
6615,19,Jits_Linear_5,159,9999,9999,9999,1507502172
6615,19,Jits_Linear_5,160,9999,9999,9999,1508302928
6615,19,Jits_Linear_5,161,9999,9999,9999,1509102648
6615,19,Jits_Linear_5,162,9999,9999,9999,1509902416
6615,19,Jits_Linear_5,163,9999,9999,9999,1510702204
6615,19,Jits_Linear_5,164,9999,9999,9999,1511502944
6615,19,Jits_Linear_5,165,9999,9999,9999,1512312904
6615,19,Jits_Linear_5,166,9999,9999,9999,1513122940
6615,19,Jits_Linear_5,167,9999,9999,9999,1513932896
6615,19,Jits_Linear_5,168,9999,9999,9999,1514742884
6615,19,Jits_Linear_5,169,9999,9999,9999,1515552844
6616,7,Jits_ISO_8,0,5,56,103,1525784048
6616,7,Jits_ISO_8,1,5,63,98,1525787072
6616,7,Jits_ISO_8,2,5,80,127,1525790192
6616,7,Jits_ISO_8,0,5,56,103,1526583896
6616,7,Jits_ISO_8,1,5,63,98,1526587148
6616,7,Jits_ISO_8,2,5,80,127,1526590116
6616,7,Jits_ISO_8,0,5,80,127,1527323976
6616,7,Jits_ISO_8,1,5,63,98,1527414260
6616,7,Jits_ISO_8,2,5,56,103,1527424308
6616,7,Jits_ISO_8,0,5,56,103,1528144224
6616,7,Jits_ISO_8,1,5,63,98,1528153448
6616,7,Jits_ISO_8,2,5,80,127,1528243508
6616,7,Jits_ISO_8,0,5,63,98,1528914348
6616,7,Jits_ISO_8,1,5,80,127,1528943952
6616,7,Jits_ISO_8,2,1,48,67,1528972872
6616,7,Jits_ISO_8,3,5,56,103,1528974368
6616,7,Jits_ISO_8,0,1,48,66,1529683452
6616,7,Jits_ISO_8,1,5,56,103,1529713896
6616,7,Jits_ISO_8,2,5,80,127,1529814280
6616,7,Jits_ISO_8,3,5,63,98,1529863536
6616,7,Jits_ISO_8,0,5,56,103,1530513988
6616,7,Jits_ISO_8,1,5,80,127,1530563892
6616,7,Jits_ISO_8,2,1,48,68,1530576904
6616,7,Jits_ISO_8,3,5,63,98,1530603848
6616,7,Jits_ISO_8,0,1,48,84,1531294272
6616,7,Jits_ISO_8,1,5,80,127,1531344344
6616,7,Jits_ISO_8,2,5,63,98,1531373972
6616,7,Jits_ISO_8,3,5,56,103,1531443788
6616,7,Jits_ISO_8,0,1,48,79,1532087388
6616,7,Jits_ISO_8,1,5,63,98,1532173676
6616,7,Jits_ISO_8,2,5,56,103,1532204384
6616,7,Jits_ISO_8,3,5,80,127,1532264028
6616,7,Jits_ISO_8,0,1,48,78,1532911240
6616,7,Jits_ISO_8,1,5,56,103,1532913972
6616,7,Jits_ISO_8,2,5,80,127,1532916964
6616,7,Jits_ISO_8,3,5,63,98,1533033832
6616,7,Jits_ISO_8,0,1,48,78,1533757396
6616,7,Jits_ISO_8,1,5,56,103,1533793768
6616,7,Jits_ISO_8,2,5,80,127,1533833928
6616,7,Jits_ISO_8,3,5,63,98,1533843752
6616,7,Jits_ISO_8,0,5,56,103,1534553556
6616,7,Jits_ISO_8,1,1,48,81,1534574316
6616,7,Jits_ISO_8,2,5,80,127,1534575428
6616,7,Jits_ISO_8,3,5,63,98,1534653880
6616,7,Jits_ISO_8,0,5,80,127,1535343992
6616,7,Jits_ISO_8,1,1,48,71,1535362628
6616,7,Jits_ISO_8,2,5,56,103,1535444312
6616,7,Jits_ISO_8,3,5,63,98,1535454444
6616,7,Jits_ISO_8,0,5,63,98,1536113980
6616,7,Jits_ISO_8,1,1,48,76,1536159800
6616,7,Jits_ISO_8,2,5,80,127,1536173544
6616,7,Jits_ISO_8,3,5,56,103,1536183740
6616,7,Jits_ISO_8,0,1,48,67,1536912476
6616,7,Jits_ISO_8,1,5,56,103,1536913900
6616,7,Jits_ISO_8,2,5,63,98,1536984656
6616,7,Jits_ISO_8,3,5,80,127,1536988092
6616,7,Jits_ISO_8,0,1,48,73,1537702264
6616,7,Jits_ISO_8,1,5,63,98,1537744240
6616,7,Jits_ISO_8,2,5,56,103,1537794768
6616,7,Jits_ISO_8,3,5,80,127,1537797756
6616,7,Jits_ISO_8,0,5,56,103,1538504084
6616,7,Jits_ISO_8,1,5,80,127,1538507076
6616,7,Jits_ISO_8,2,1,48,86,1538548724
6616,7,Jits_ISO_8,3,5,63,98,1538594232
6616,7,Jits_ISO_8,0,1,48,73,1539291876
6616,7,Jits_ISO_8,1,5,63,98,1539343892
6616,7,Jits_ISO_8,2,5,56,103,1539433792
6616,7,Jits_ISO_8,3,5,80,127,1539463764
6616,7,Jits_ISO_8,0,1,48,81,1540117728
6616,7,Jits_ISO_8,1,5,56,103,1540134240
6616,7,Jits_ISO_8,2,5,63,98,1540233728
6616,7,Jits_ISO_8,3,5,80,127,1540264448
6616,7,Jits_ISO_8,0,1,48,85,1540916392
6616,7,Jits_ISO_8,1,5,63,98,1540953732
6616,7,Jits_ISO_8,2,5,56,103,1540963852
6616,7,Jits_ISO_8,3,5,80,127,1541053748
6616,7,Jits_ISO_8,0,1,48,86,1541746072
6616,7,Jits_ISO_8,1,5,63,98,1541773744
6616,7,Jits_ISO_8,2,5,56,103,1541853552
6616,7,Jits_ISO_8,3,5,80,127,1541856692
6616,7,Jits_ISO_8,0,5,80,127,1542533748
6616,7,Jits_ISO_8,1,5,63,98,1542553984
6616,7,Jits_ISO_8,2,1,48,80,1542595912
6616,7,Jits_ISO_8,3,5,56,103,1542614904
6616,7,Jits_ISO_8,0,1,48,78,1543361832
6616,7,Jits_ISO_8,1,5,56,103,1543374064
6616,7,Jits_ISO_8,2,5,63,98,1543393796
6616,7,Jits_ISO_8,3,5,80,127,1543397160
6616,7,Jits_ISO_8,0,5,63,98,1544113608
6616,7,Jits_ISO_8,1,1,48,74,1544130056
6616,7,Jits_ISO_8,2,5,80,127,1544194696
6616,7,Jits_ISO_8,3,5,56,103,1544203620
6616,7,Jits_ISO_8,0,5,63,98,1544933868
6616,7,Jits_ISO_8,1,1,48,76,1544934836
6616,7,Jits_ISO_8,2,5,56,103,1544954396
6616,7,Jits_ISO_8,3,5,80,127,1545004672
6616,7,Jits_ISO_8,0,1,48,88,1545704700
6616,7,Jits_ISO_8,1,5,80,127,1545733496
6616,7,Jits_ISO_8,2,5,63,98,1545773660
6616,7,Jits_ISO_8,3,5,56,103,1545794044
6616,7,Jits_ISO_8,0,1,48,80,1546480268
6616,7,Jits_ISO_8,1,5,56,103,1546574112
6616,7,Jits_ISO_8,2,5,63,98,1546584588
6616,7,Jits_ISO_8,3,5,80,127,1546604000
6616,7,Jits_ISO_8,0,1,48,79,1547302176
6616,7,Jits_ISO_8,1,5,56,103,1547304588
6616,7,Jits_ISO_8,2,5,63,98,1547394428
6616,7,Jits_ISO_8,3,5,80,127,1547453904
6616,7,Jits_ISO_8,0,5,80,127,1548133680
6616,7,Jits_ISO_8,1,1,48,69,1548143952
6616,7,Jits_ISO_8,2,5,56,103,1548145436
6616,7,Jits_ISO_8,3,5,63,98,1548213624
6616,7,Jits_ISO_8,0,1,48,67,1548913964
6616,7,Jits_ISO_8,1,5,63,98,1548964184
6616,7,Jits_ISO_8,2,5,80,127,1549054480
6616,7,Jits_ISO_8,3,5,56,103,1549063628
6616,7,Jits_ISO_8,0,5,63,98,1549703520
6616,7,Jits_ISO_8,1,5,80,127,1549753796
6616,7,Jits_ISO_8,2,1,48,81,1549754688
6616,7,Jits_ISO_8,3,5,56,103,1549813980
6616,7,Jits_ISO_8,0,5,56,103,1550533868
6616,7,Jits_ISO_8,1,1,48,78,1550536840
6616,7,Jits_ISO_8,2,5,80,127,1550584164
6616,7,Jits_ISO_8,3,5,63,98,1550603652
6616,7,Jits_ISO_8,0,5,56,103,1551303996
6616,7,Jits_ISO_8,1,5,80,127,1551363592
6616,7,Jits_ISO_8,2,1,48,95,1551397952
6616,7,Jits_ISO_8,3,5,63,98,1551434088
6616,7,Jits_ISO_8,0,5,56,103,1552103672
6616,7,Jits_ISO_8,1,5,80,127,1552133424
6616,7,Jits_ISO_8,2,1,48,84,1552151832
6616,7,Jits_ISO_8,3,5,63,98,1552164140
6616,7,Jits_ISO_8,0,1,48,68,1552916016
6616,7,Jits_ISO_8,1,5,56,103,1552943468
6616,7,Jits_ISO_8,2,5,80,127,1552963928
6616,7,Jits_ISO_8,3,5,63,98,1553024452
6616,7,Jits_ISO_8,0,1,48,103,1553742400
6616,7,Jits_ISO_8,1,5,80,127,1553824092
6616,7,Jits_ISO_8,2,5,56,103,1553835096
6616,7,Jits_ISO_8,3,5,63,98,1553843496
6616,7,Jits_ISO_8,0,5,56,103,1554583904
6616,7,Jits_ISO_8,1,5,80,127,1554623844
6616,7,Jits_ISO_8,2,5,63,98,1554653620
6616,7,Jits_ISO_8,3,1,48,76,1554655780
6616,7,Jits_ISO_8,0,5,56,103,1555354036
6616,7,Jits_ISO_8,1,5,63,98,1555383640
6616,7,Jits_ISO_8,2,1,48,74,1555392160
6616,7,Jits_ISO_8,3,5,80,127,1555423524
6616,7,Jits_ISO_8,0,5,80,127,1556103492
6616,7,Jits_ISO_8,1,5,63,98,1556153692
6616,7,Jits_ISO_8,2,1,48,76,1556165280
6616,7,Jits_ISO_8,3,5,56,103,1556174296
6616,7,Jits_ISO_8,0,5,56,103,1556933928
6616,7,Jits_ISO_8,1,1,48,72,1556966140
6616,7,Jits_ISO_8,2,5,80,127,1557003632
6616,7,Jits_ISO_8,3,5,63,98,1557064080
6616,7,Jits_ISO_8,0,5,80,127,1557733680
6616,7,Jits_ISO_8,1,1,48,86,1557798304
6616,7,Jits_ISO_8,2,5,63,98,1557823732
6616,7,Jits_ISO_8,3,5,56,103,1557844416
6616,7,Jits_ISO_8,0,1,48,79,1558549996
6616,7,Jits_ISO_8,1,5,63,98,1558553852
6616,7,Jits_ISO_8,2,5,56,103,1558573412
6616,7,Jits_ISO_8,3,5,80,127,1558614324
6616,7,Jits_ISO_8,0,5,80,127,1559313708
6616,7,Jits_ISO_8,1,5,63,98,1559334540
6616,7,Jits_ISO_8,2,1,48,68,1559344784
6616,7,Jits_ISO_8,3,5,56,103,1559414180
6616,7,Jits_ISO_8,0,5,63,98,1560104436
6616,7,Jits_ISO_8,1,1,48,76,1560138644
6616,7,Jits_ISO_8,2,5,56,103,1560213972
6616,7,Jits_ISO_8,3,5,80,127,1560216888
6616,7,Jits_ISO_8,0,5,63,98,1560923468
6616,7,Jits_ISO_8,1,5,56,103,1560933660
6616,7,Jits_ISO_8,2,5,80,127,1560936732
6616,7,Jits_ISO_8,3,1,48,89,1561017392
6616,7,Jits_ISO_8,0,5,56,103,1561703904
6616,7,Jits_ISO_8,1,1,48,78,1561754756
6616,7,Jits_ISO_8,2,5,80,127,1561823580
6616,7,Jits_ISO_8,3,5,63,98,1561863580
6616,7,Jits_ISO_8,0,5,56,103,1562524236
6616,7,Jits_ISO_8,1,5,80,127,1562603760
6616,7,Jits_ISO_8,2,1,48,67,1562611588
6616,7,Jits_ISO_8,3,5,63,98,1562624288
6616,7,Jits_ISO_8,0,5,56,103,1563323736
6616,7,Jits_ISO_8,1,1,48,74,1563363220
6616,7,Jits_ISO_8,2,5,63,98,1563434260
6616,7,Jits_ISO_8,3,5,80,127,1563437704
6616,7,Jits_ISO_8,0,5,56,103,1564154420
6616,7,Jits_ISO_8,1,1,48,75,1564155460
6616,7,Jits_ISO_8,2,5,80,127,1564184016
6616,7,Jits_ISO_8,3,5,63,98,1564204400
6616,7,Jits_ISO_8,0,5,63,98,1564933468
6616,7,Jits_ISO_8,1,5,56,103,1564943664
6616,7,Jits_ISO_8,2,5,80,127,1564954236
6616,7,Jits_ISO_8,3,1,48,85,1564966568
6616,7,Jits_ISO_8,0,1,48,74,1565690644
6616,7,Jits_ISO_8,1,5,80,127,1565724248
6616,7,Jits_ISO_8,2,5,56,103,1565774376
6616,7,Jits_ISO_8,3,5,63,98,1565814224
6616,7,Jits_ISO_8,0,1,48,72,1566499276
6616,7,Jits_ISO_8,1,5,80,127,1566544264
6616,7,Jits_ISO_8,2,5,63,98,1566563676
6616,7,Jits_ISO_8,3,5,56,103,1566613788
6616,7,Jits_ISO_8,0,1,48,65,1567328360
6616,7,Jits_ISO_8,1,5,80,127,1567354160
6616,7,Jits_ISO_8,2,5,56,103,1567384208
6616,7,Jits_ISO_8,3,5,63,98,1567453676
6616,7,Jits_ISO_8,0,1,48,63,1568135864
6616,7,Jits_ISO_8,1,5,56,103,1568204148
6616,7,Jits_ISO_8,2,5,80,127,1568214296
6616,7,Jits_ISO_8,3,5,63,98,1568254292
6616,7,Jits_ISO_8,0,5,56,103,1568913660
6616,7,Jits_ISO_8,1,5,63,98,1568934268
6616,7,Jits_ISO_8,2,1,48,70,1568936356
6616,7,Jits_ISO_8,3,5,80,127,1569003892
6616,7,Jits_ISO_8,0,1,48,76,1569702856
6616,7,Jits_ISO_8,1,5,63,98,1569734124
6616,7,Jits_ISO_8,2,5,80,127,1569794392
6616,7,Jits_ISO_8,3,5,56,103,1569814012
6616,7,Jits_ISO_8,0,1,48,64,1570488024
6616,7,Jits_ISO_8,1,5,80,127,1570523596
6616,7,Jits_ISO_8,2,5,56,103,1570554096
6616,7,Jits_ISO_8,3,5,63,98,1570584052
6616,7,Jits_ISO_8,0,1,48,79,1571259252
6616,7,Jits_ISO_8,1,5,56,103,1571324272
6616,7,Jits_ISO_8,2,5,63,98,1571383528
6616,7,Jits_ISO_8,3,5,80,127,1571443992
6616,7,Jits_ISO_8,0,1,48,65,1572134976
6616,7,Jits_ISO_8,1,5,80,127,1572143616
6616,7,Jits_ISO_8,2,5,56,103,1572164224
6616,7,Jits_ISO_8,3,5,63,98,1572233456
6616,7,Jits_ISO_8,0,1,48,75,1572933260
6616,7,Jits_ISO_8,1,5,80,127,1572944296
6616,7,Jits_ISO_8,2,5,63,98,1572963560
6616,7,Jits_ISO_8,3,5,56,103,1572994356
6616,7,Jits_ISO_8,0,5,80,127,1573734116
6616,7,Jits_ISO_8,1,5,63,98,1573754280
6616,7,Jits_ISO_8,2,1,48,55,1573774932
6616,7,Jits_ISO_8,3,5,56,103,1573813540
6616,7,Jits_ISO_8,0,5,80,127,1574533392
6616,7,Jits_ISO_8,1,1,48,70,1574574720
6616,7,Jits_ISO_8,2,5,56,103,1574633884
6616,7,Jits_ISO_8,3,5,63,98,1574663484
6616,7,Jits_ISO_8,0,5,63,98,1575324052
6616,7,Jits_ISO_8,1,5,80,127,1575374328
6616,7,Jits_ISO_8,2,5,56,103,1575393544
6616,7,Jits_ISO_8,3,1,48,79,1575402884
6616,7,Jits_ISO_8,0,5,80,127,1576163716
6616,7,Jits_ISO_8,1,1,48,76,1576178820
6616,7,Jits_ISO_8,2,5,56,103,1576194276
6616,7,Jits_ISO_8,3,5,63,98,1576197348
6616,7,Jits_ISO_8,0,1,48,71,1576963180
6616,7,Jits_ISO_8,1,5,63,98,1576994144
6616,7,Jits_ISO_8,2,5,56,103,1577034084
6616,7,Jits_ISO_8,3,5,80,127,1577053496
6616,7,Jits_ISO_8,0,5,80,127,1577733400
6616,7,Jits_ISO_8,1,5,63,98,1577814468
6616,7,Jits_ISO_8,2,1,48,63,1577827104
6616,7,Jits_ISO_8,3,5,56,103,1577854180
6616,7,Jits_ISO_8,0,5,63,98,1578553956
6616,7,Jits_ISO_8,1,1,48,75,1578631408
6616,7,Jits_ISO_8,2,5,80,127,1578633524
6616,7,Jits_ISO_8,3,5,56,103,1578654056
6616,7,Jits_ISO_8,0,5,56,103,1579394352
6616,7,Jits_ISO_8,1,5,63,98,1579403576
6616,7,Jits_ISO_8,2,1,48,80,1579407892
6616,7,Jits_ISO_8,3,5,80,127,1579443512
6616,7,Jits_ISO_8,0,5,56,103,1580114360
6616,7,Jits_ISO_8,1,5,80,127,1580117280
6616,7,Jits_ISO_8,2,1,48,84,1580199880
6616,7,Jits_ISO_8,3,5,63,98,1580253508
6616,7,Jits_ISO_8,0,5,56,103,1580904032
6616,7,Jits_ISO_8,1,5,63,98,1580994172
6616,7,Jits_ISO_8,2,1,48,71,1581017020
6616,7,Jits_ISO_8,3,5,80,127,1581063500
6616,7,Jits_ISO_8,0,1,48,57,1581781064
6616,7,Jits_ISO_8,1,5,63,98,1581784312
6616,7,Jits_ISO_8,2,5,80,127,1581787904
6616,7,Jits_ISO_8,3,5,56,103,1581843960
6616,7,Jits_ISO_8,0,1,48,57,1582586920
6616,7,Jits_ISO_8,1,5,80,127,1582624184
6616,7,Jits_ISO_8,2,5,56,103,1582643524
6616,7,Jits_ISO_8,3,5,63,98,1582654016
6616,7,Jits_ISO_8,0,5,56,103,1583333852
6616,7,Jits_ISO_8,1,5,63,98,1583343972
6616,7,Jits_ISO_8,2,1,48,66,1583395268
6616,7,Jits_ISO_8,3,5,80,127,1583413572
6616,7,Jits_ISO_8,0,5,80,127,1584133352
6616,7,Jits_ISO_8,1,1,48,65,1584145384
6616,7,Jits_ISO_8,2,5,56,103,1584183920
6616,7,Jits_ISO_8,3,5,63,98,1584233972
6616,7,Jits_ISO_8,0,1,48,62,1584926896
6616,7,Jits_ISO_8,1,5,56,103,1585014060
6616,7,Jits_ISO_8,2,5,63,98,1585024240
6616,7,Jits_ISO_8,3,5,80,127,1585064256
6616,7,Jits_ISO_8,0,1,48,59,1585733888
6616,7,Jits_ISO_8,1,5,56,103,1585753616
6616,7,Jits_ISO_8,2,5,63,98,1585794452
6616,7,Jits_ISO_8,3,5,80,127,1585843444
6616,7,Jits_ISO_8,0,5,80,127,1586514148
6616,7,Jits_ISO_8,1,1,48,62,1586532180
6616,7,Jits_ISO_8,2,5,56,103,1586563372
6616,7,Jits_ISO_8,3,5,63,98,1586584056
6616,7,Jits_ISO_8,0,5,80,127,1587324132
6616,7,Jits_ISO_8,1,1,48,75,1587336840
6616,7,Jits_ISO_8,2,5,63,98,1587383916
6616,7,Jits_ISO_8,3,5,56,103,1587463424
6616,7,Jits_ISO_8,0,5,80,127,1588103404
6616,7,Jits_ISO_8,1,1,48,69,1588122936
6616,7,Jits_ISO_8,2,5,56,103,1588143488
6616,7,Jits_ISO_8,3,5,63,98,1588163872
6616,7,Jits_ISO_8,0,1,48,62,1588937620
6616,7,Jits_ISO_8,1,5,56,103,1588953412
6616,7,Jits_ISO_8,2,5,80,127,1588963684
6616,7,Jits_ISO_8,3,5,63,98,1589003920
6616,7,Jits_ISO_8,0,1,48,70,1589763436
6616,7,Jits_ISO_8,1,5,56,103,1589823996
6616,7,Jits_ISO_8,2,5,63,98,1589863916
6616,7,Jits_ISO_8,3,5,80,127,1589867208
6616,7,Jits_ISO_8,0,5,63,98,1590514096
6616,7,Jits_ISO_8,1,5,80,127,1590553964
6616,7,Jits_ISO_8,2,1,48,70,1590588844
6616,7,Jits_ISO_8,3,5,56,103,1590623860
6616,7,Jits_ISO_8,0,5,63,98,1591303764
6616,7,Jits_ISO_8,1,1,48,68,1591371604
6616,7,Jits_ISO_8,2,5,56,103,1591384308
6616,7,Jits_ISO_8,3,5,80,127,1591443948
6616,7,Jits_ISO_8,0,5,80,127,1592113588
6616,7,Jits_ISO_8,1,1,48,66,1592152456
6616,7,Jits_ISO_8,2,5,63,98,1592163636
6616,7,Jits_ISO_8,3,5,56,103,1592194284
6616,7,Jits_ISO_8,0,5,56,103,1592903944
6616,7,Jits_ISO_8,1,5,63,98,1592954152
6616,7,Jits_ISO_8,2,5,80,127,1592963524
6616,7,Jits_ISO_8,3,1,48,61,1592987768
6616,7,Jits_ISO_8,0,5,56,103,1593714076
6616,7,Jits_ISO_8,1,1,48,68,1593775412
6616,7,Jits_ISO_8,2,5,63,98,1593823860
6616,7,Jits_ISO_8,3,5,80,127,1593844168
6616,7,Jits_ISO_8,0,1,48,62,1594503808
6616,7,Jits_ISO_8,1,5,63,98,1594513944
6616,7,Jits_ISO_8,2,5,80,127,1594564000
6616,7,Jits_ISO_8,3,5,56,103,1594653920
6616,7,Jits_ISO_8,0,5,63,98,1595304296
6616,7,Jits_ISO_8,1,5,80,127,1595333972
6616,7,Jits_ISO_8,2,1,48,74,1595352852
6616,7,Jits_ISO_8,3,5,56,103,1595424048
6616,7,Jits_ISO_8,0,5,63,98,1596104152
6616,7,Jits_ISO_8,1,5,56,103,1596114272
6616,7,Jits_ISO_8,2,5,80,127,1596213720
6616,7,Jits_ISO_8,3,1,48,71,1596259980
6616,7,Jits_ISO_8,0,1,48,68,1596971436
6616,7,Jits_ISO_8,1,5,63,98,1597004196
6616,7,Jits_ISO_8,2,5,80,127,1597033876
6616,7,Jits_ISO_8,3,5,56,103,1597063700
6616,7,Jits_ISO_8,0,1,48,56,1597818196
6616,7,Jits_ISO_8,1,5,80,127,1597824296
6616,7,Jits_ISO_8,2,5,63,98,1597833744
6616,7,Jits_ISO_8,3,5,56,103,1597864240
6616,7,Jits_ISO_8,0,5,80,127,1598523848
6616,7,Jits_ISO_8,1,5,63,98,1598544384
6616,7,Jits_ISO_8,2,5,56,103,1598594584
6616,7,Jits_ISO_8,3,1,48,71,1598652920
6616,7,Jits_ISO_8,0,5,63,98,1599354136
6616,7,Jits_ISO_8,1,5,80,127,1599413556
6616,7,Jits_ISO_8,2,5,56,103,1599434092
6616,7,Jits_ISO_8,3,1,48,59,1599438860
6616,7,Jits_ISO_8,0,5,63,98,1600114064
6616,7,Jits_ISO_8,1,5,56,103,1600164120
6616,7,Jits_ISO_8,2,5,80,127,1600173568
6616,7,Jits_ISO_8,3,1,48,59,1600219332
6616,7,Jits_ISO_8,0,1,48,64,1600943440
6616,7,Jits_ISO_8,1,5,56,103,1600944776
6616,7,Jits_ISO_8,2,5,80,127,1600953928
6616,7,Jits_ISO_8,3,5,63,98,1601053960
6616,7,Jits_ISO_8,0,5,80,127,1601704480
6616,7,Jits_ISO_8,1,5,63,98,1601713704
6616,7,Jits_ISO_8,2,1,48,63,1601802860
6616,7,Jits_ISO_8,3,5,56,103,1601864016
6616,7,Jits_ISO_8,0,5,63,98,1602514168
6616,7,Jits_ISO_8,1,5,80,127,1602554280
6616,7,Jits_ISO_8,2,1,48,60,1602578152
6616,7,Jits_ISO_8,3,5,56,103,1602634068
6616,7,Jits_ISO_8,0,5,56,103,1603303784
6616,7,Jits_ISO_8,1,1,48,60,1603355680
6616,7,Jits_ISO_8,2,5,80,127,1603404028
6616,7,Jits_ISO_8,3,5,63,98,1603423740
6616,7,Jits_ISO_8,0,1,48,59,1604161004
6616,7,Jits_ISO_8,1,5,80,127,1604163888
6616,7,Jits_ISO_8,2,5,56,103,1604174084
6616,7,Jits_ISO_8,3,5,63,98,1604264424
6616,7,Jits_ISO_8,0,5,56,103,1604963828
6616,7,Jits_ISO_8,1,5,63,98,1604984064
6616,7,Jits_ISO_8,2,1,48,63,1605004496
6616,7,Jits_ISO_8,3,5,80,127,1605064004
6616,7,Jits_ISO_8,0,5,63,98,1605714480
6616,7,Jits_ISO_8,1,1,48,65,1605793128
6616,7,Jits_ISO_8,2,5,56,103,1605804684
6616,7,Jits_ISO_8,3,5,80,127,1605807748
6616,7,Jits_ISO_8,0,5,56,103,1606543700
6616,7,Jits_ISO_8,1,1,48,61,1606545336
6616,7,Jits_ISO_8,2,5,80,127,1606604088
6616,7,Jits_ISO_8,3,5,63,98,1606614680
6616,7,Jits_ISO_8,0,5,80,127,1607393648
6616,7,Jits_ISO_8,1,1,48,62,1607396312
6616,7,Jits_ISO_8,2,5,56,103,1607403836
6616,7,Jits_ISO_8,3,5,63,98,1607406976
6616,7,Jits_ISO_8,0,5,56,103,1608153580
6616,7,Jits_ISO_8,1,5,80,127,1608163700
6616,7,Jits_ISO_8,2,5,63,98,1608184312
6616,7,Jits_ISO_8,3,1,48,64,1608199192
6616,7,Jits_ISO_8,0,5,63,98,1608923484
6616,7,Jits_ISO_8,1,1,48,53,1608976580
6616,7,Jits_ISO_8,2,5,80,127,1608983800
6616,7,Jits_ISO_8,3,5,56,103,1609034000
6616,7,Jits_ISO_8,0,1,48,70,1609727056
6616,7,Jits_ISO_8,1,5,63,98,1609804104
6616,7,Jits_ISO_8,2,5,56,103,1609814596
6616,7,Jits_ISO_8,3,5,80,127,1609863664
6616,7,Jits_ISO_8,0,5,63,98,1610503580
6616,7,Jits_ISO_8,1,5,80,127,1610523968
6616,7,Jits_ISO_8,2,5,56,103,1610534460
6616,7,Jits_ISO_8,3,1,48,64,1610602384
6616,7,Jits_ISO_8,0,5,63,98,1611304556
6616,7,Jits_ISO_8,1,5,80,127,1611307692
6616,7,Jits_ISO_8,2,1,48,65,1611314044
6616,7,Jits_ISO_8,3,5,56,103,1611344260
6616,7,Jits_ISO_8,0,1,48,71,1612119268
6616,7,Jits_ISO_8,1,5,63,98,1612173620
6616,7,Jits_ISO_8,2,5,80,127,1612204344
6616,7,Jits_ISO_8,3,5,56,103,1612214304
6616,7,Jits_ISO_8,0,5,56,103,1612924560
6616,7,Jits_ISO_8,1,5,80,127,1612953864
6616,7,Jits_ISO_8,2,5,63,98,1612983616
6616,7,Jits_ISO_8,3,1,48,66,1613020464
6616,7,Jits_ISO_8,0,1,48,66,1613748140
6616,7,Jits_ISO_8,1,5,63,98,1613824472
6616,7,Jits_ISO_8,2,5,56,103,1613864468
6616,7,Jits_ISO_8,3,5,80,127,1613867460
6616,7,Jits_ISO_8,0,5,80,127,1614523692
6616,7,Jits_ISO_8,1,5,56,103,1614603588
6616,7,Jits_ISO_8,2,1,48,51,1614611496
6616,7,Jits_ISO_8,3,5,63,98,1614653784
6616,7,Jits_ISO_8,0,5,80,127,1615304304
6616,7,Jits_ISO_8,1,5,56,103,1615323372
6616,7,Jits_ISO_8,2,5,63,98,1615413728
6616,7,Jits_ISO_8,3,1,48,52,1615449284
6616,7,Jits_ISO_8,0,1,48,54,1616141324
6616,7,Jits_ISO_8,1,5,80,127,1616143756
6616,7,Jits_ISO_8,2,5,63,98,1616183620
6616,7,Jits_ISO_8,3,5,56,103,1616223484
6616,7,Jits_ISO_8,0,5,63,98,1616913724
6616,7,Jits_ISO_8,1,1,48,51,1616948312
6616,7,Jits_ISO_8,2,5,80,127,1616974336
6616,7,Jits_ISO_8,3,5,56,103,1617003936
6616,7,Jits_ISO_8,0,5,56,103,1617713504
6616,7,Jits_ISO_8,1,1,48,52,1617716920
6616,7,Jits_ISO_8,2,5,80,127,1617744520
6616,7,Jits_ISO_8,3,5,63,98,1617834340
6616,7,Jits_ISO_8,0,5,56,103,1618523492
6616,7,Jits_ISO_8,1,1,48,57,1618532912
6616,7,Jits_ISO_8,2,5,80,127,1618634284
6616,7,Jits_ISO_8,3,5,63,98,1618663836
6616,7,Jits_ISO_8,0,1,48,51,1619339516
6616,7,Jits_ISO_8,1,5,56,103,1619373340
6616,7,Jits_ISO_8,2,5,63,98,1619433908
6616,7,Jits_ISO_8,3,5,80,127,1619463416
6616,7,Jits_ISO_8,0,5,56,103,1620143616
6616,7,Jits_ISO_8,1,1,48,45,1620144580
6616,7,Jits_ISO_8,2,5,63,98,1620214140
6616,7,Jits_ISO_8,3,5,80,127,1620233624
6616,7,Jits_ISO_8,0,5,80,127,1620913520
6616,7,Jits_ISO_8,1,5,63,98,1620934204
6616,7,Jits_ISO_8,2,1,48,62,1620935168
6616,7,Jits_ISO_8,3,5,56,103,1620984200
6616,7,Jits_ISO_8,0,9999,9999,9999,1526181988
6616,7,Jits_ISO_8,1,9999,9999,9999,1526981688
6616,7,Jits_ISO_8,2,9999,9999,9999,1527781432
6616,7,Jits_ISO_8,3,9999,9999,9999,1528581228
6616,7,Jits_ISO_8,4,9999,9999,9999,1529381964
6616,7,Jits_ISO_8,5,9999,9999,9999,1530181752
6616,7,Jits_ISO_8,6,9999,9999,9999,1530981460
6616,7,Jits_ISO_8,7,9999,9999,9999,1531781184
6616,7,Jits_ISO_8,8,9999,9999,9999,1532581948
6616,7,Jits_ISO_8,9,9999,9999,9999,1533381716
6616,7,Jits_ISO_8,10,9999,9999,9999,1534181460
6616,7,Jits_ISO_8,11,9999,9999,9999,1534981176
6616,7,Jits_ISO_8,12,9999,9999,9999,1535781952
6616,7,Jits_ISO_8,13,9999,9999,9999,1536581752
6616,7,Jits_ISO_8,14,9999,9999,9999,1537381444
6616,7,Jits_ISO_8,15,9999,9999,9999,1538181220
6616,7,Jits_ISO_8,16,9999,9999,9999,1538981956
6616,7,Jits_ISO_8,17,9999,9999,9999,1539781684
6616,7,Jits_ISO_8,18,9999,9999,9999,1540581496
6616,7,Jits_ISO_8,19,9999,9999,9999,1541381204
6616,7,Jits_ISO_8,20,9999,9999,9999,1542181960
6616,7,Jits_ISO_8,21,9999,9999,9999,1542981736
6616,7,Jits_ISO_8,22,9999,9999,9999,1543781448
6616,7,Jits_ISO_8,23,9999,9999,9999,1544581232
6616,7,Jits_ISO_8,24,9999,9999,9999,1545381984
6616,7,Jits_ISO_8,25,9999,9999,9999,1546181692
6616,7,Jits_ISO_8,26,9999,9999,9999,1546981428
6616,7,Jits_ISO_8,27,9999,9999,9999,1547781212
6616,7,Jits_ISO_8,28,9999,9999,9999,1548581968
6616,7,Jits_ISO_8,29,9999,9999,9999,1549381700
6616,7,Jits_ISO_8,30,9999,9999,9999,1550181480
6616,7,Jits_ISO_8,31,9999,9999,9999,1550981188
6616,7,Jits_ISO_8,32,9999,9999,9999,1551781960
6616,7,Jits_ISO_8,33,9999,9999,9999,1552581752
6616,7,Jits_ISO_8,34,9999,9999,9999,1553381428
6616,7,Jits_ISO_8,35,9999,9999,9999,1554181216
6616,7,Jits_ISO_8,36,9999,9999,9999,1554982004
6616,7,Jits_ISO_8,37,9999,9999,9999,1555781728
6616,7,Jits_ISO_8,38,9999,9999,9999,1556581448
6616,7,Jits_ISO_8,39,9999,9999,9999,1557381176
6616,7,Jits_ISO_8,40,9999,9999,9999,1558181948
6616,7,Jits_ISO_8,41,9999,9999,9999,1558981748
6616,7,Jits_ISO_8,42,9999,9999,9999,1559781480
6616,7,Jits_ISO_8,43,9999,9999,9999,1560581196
6616,7,Jits_ISO_8,44,9999,9999,9999,1561382008
6616,7,Jits_ISO_8,45,9999,9999,9999,1562181724
6616,7,Jits_ISO_8,46,9999,9999,9999,1562981448
6616,7,Jits_ISO_8,47,9999,9999,9999,1563781240
6616,7,Jits_ISO_8,48,9999,9999,9999,1564582012
6616,7,Jits_ISO_8,49,9999,9999,9999,1565381732
6616,7,Jits_ISO_8,50,9999,9999,9999,1566181464
6616,7,Jits_ISO_8,51,9999,9999,9999,1566981176
6616,7,Jits_ISO_8,52,9999,9999,9999,1567782008
6616,7,Jits_ISO_8,53,9999,9999,9999,1568581724
6616,7,Jits_ISO_8,54,9999,9999,9999,1569381428
6616,7,Jits_ISO_8,55,9999,9999,9999,1570181228
6616,7,Jits_ISO_8,56,9999,9999,9999,1570981980
6616,7,Jits_ISO_8,57,9999,9999,9999,1571781692
6616,7,Jits_ISO_8,58,9999,9999,9999,1572581428
6616,7,Jits_ISO_8,59,9999,9999,9999,1573381208
6616,7,Jits_ISO_8,60,9999,9999,9999,1574181960
6616,7,Jits_ISO_8,61,9999,9999,9999,1574981692
6616,7,Jits_ISO_8,62,9999,9999,9999,1575781484
6616,7,Jits_ISO_8,63,9999,9999,9999,1576581184
6616,7,Jits_ISO_8,64,9999,9999,9999,1577381960
6616,7,Jits_ISO_8,65,9999,9999,9999,1578181748
6616,7,Jits_ISO_8,66,9999,9999,9999,1578981428
6616,7,Jits_ISO_8,67,9999,9999,9999,1579781216
6616,7,Jits_ISO_8,68,9999,9999,9999,1580581976
6616,7,Jits_ISO_8,69,9999,9999,9999,1581381700
6616,7,Jits_ISO_8,70,9999,9999,9999,1582181492
6616,7,Jits_ISO_8,71,9999,9999,9999,1582981216
6616,7,Jits_ISO_8,72,9999,9999,9999,1583781968
6616,7,Jits_ISO_8,73,9999,9999,9999,1584581696
6616,7,Jits_ISO_8,74,9999,9999,9999,1585381452
6616,7,Jits_ISO_8,75,9999,9999,9999,1586181240
6616,7,Jits_ISO_8,76,9999,9999,9999,1586981992
6616,7,Jits_ISO_8,77,9999,9999,9999,1587781716
6616,7,Jits_ISO_8,78,9999,9999,9999,1588581436
6616,7,Jits_ISO_8,79,9999,9999,9999,1589381232
6616,7,Jits_ISO_8,80,9999,9999,9999,1590181988
6616,7,Jits_ISO_8,81,9999,9999,9999,1590981696
6616,7,Jits_ISO_8,82,9999,9999,9999,1591781432
6616,7,Jits_ISO_8,83,9999,9999,9999,1592581212
6616,7,Jits_ISO_8,84,9999,9999,9999,1593381976
6616,7,Jits_ISO_8,85,9999,9999,9999,1594181704
6616,7,Jits_ISO_8,86,9999,9999,9999,1594981428
6616,7,Jits_ISO_8,87,9999,9999,9999,1595781208
6616,7,Jits_ISO_8,88,9999,9999,9999,1596581960
6616,7,Jits_ISO_8,89,9999,9999,9999,1597381752
6616,7,Jits_ISO_8,90,9999,9999,9999,1598181500
6616,7,Jits_ISO_8,91,9999,9999,9999,1598981204
6616,7,Jits_ISO_8,92,9999,9999,9999,1599781980
6616,7,Jits_ISO_8,93,9999,9999,9999,1600581684
6616,7,Jits_ISO_8,94,9999,9999,9999,1601381468
6616,7,Jits_ISO_8,95,9999,9999,9999,1602181172
6616,7,Jits_ISO_8,96,9999,9999,9999,1602981940
6616,7,Jits_ISO_8,97,9999,9999,9999,1603781720
6616,7,Jits_ISO_8,98,9999,9999,9999,1604581472
6616,7,Jits_ISO_8,99,9999,9999,9999,1605381184
6616,7,Jits_ISO_8,100,9999,9999,9999,1606181948
6616,7,Jits_ISO_8,101,9999,9999,9999,1606981732
6616,7,Jits_ISO_8,102,9999,9999,9999,1607781448
6616,7,Jits_ISO_8,103,9999,9999,9999,1608581172
6616,7,Jits_ISO_8,104,9999,9999,9999,1609381944
6616,7,Jits_ISO_8,105,9999,9999,9999,1610181732
6616,7,Jits_ISO_8,106,9999,9999,9999,1610981460
6616,7,Jits_ISO_8,107,9999,9999,9999,1611781228
6616,7,Jits_ISO_8,108,9999,9999,9999,1612581988
6616,7,Jits_ISO_8,109,9999,9999,9999,1613381692
6616,7,Jits_ISO_8,110,9999,9999,9999,1614181492
6616,7,Jits_ISO_8,111,9999,9999,9999,1614981204
6616,7,Jits_ISO_8,112,9999,9999,9999,1615781968
6616,7,Jits_ISO_8,113,9999,9999,9999,1616581692
6616,7,Jits_ISO_8,114,9999,9999,9999,1617381496
6616,7,Jits_ISO_8,115,9999,9999,9999,1618181204
6616,7,Jits_ISO_8,116,9999,9999,9999,1618981980
6616,7,Jits_ISO_8,117,9999,9999,9999,1619781708
6616,7,Jits_ISO_8,118,9999,9999,9999,1620581496
6616,7,Jits_ISO_8,119,9999,9999,9999,1621381216
6617,16,Jits_ISO_5,0,5,56,103,1630603672
6617,16,Jits_ISO_5,1,5,63,98,1630606996
6617,16,Jits_ISO_5,2,5,80,127,1630610040
6617,16,Jits_ISO_5,0,5,56,103,1631104292
6617,16,Jits_ISO_5,1,5,63,98,1631107764
6617,16,Jits_ISO_5,2,5,80,127,1631110880
6617,16,Jits_ISO_5,0,5,56,103,1631603956
6617,16,Jits_ISO_5,1,5,80,127,1631614372
6617,16,Jits_ISO_5,2,5,63,98,1631633712
6617,16,Jits_ISO_5,0,5,63,98,1632053500
6617,16,Jits_ISO_5,1,5,80,127,1632084224
6617,16,Jits_ISO_5,2,5,56,103,1632093596
6617,16,Jits_ISO_5,0,5,80,127,1632613752
6617,16,Jits_ISO_5,1,5,56,103,1632624100
6617,16,Jits_ISO_5,2,5,63,98,1632653548
6617,16,Jits_ISO_5,0,5,63,98,1633104208
6617,16,Jits_ISO_5,1,5,56,103,1633134108
6617,16,Jits_ISO_5,2,5,80,127,1633144156
6617,16,Jits_ISO_5,0,5,56,103,1633553888
6617,16,Jits_ISO_5,1,5,63,98,1633604164
6617,16,Jits_ISO_5,2,5,80,127,1633624400
6617,16,Jits_ISO_5,0,5,80,127,1634053480
6617,16,Jits_ISO_5,1,5,63,98,1634103604
6617,16,Jits_ISO_5,2,5,56,103,1634143540
6617,16,Jits_ISO_5,0,5,56,103,1634554192
6617,16,Jits_ISO_5,1,5,63,98,1634584092
6617,16,Jits_ISO_5,2,5,80,127,1634653468
6617,16,Jits_ISO_5,3,1,48,63,1634709092
6617,16,Jits_ISO_5,0,5,56,103,1635053864
6617,16,Jits_ISO_5,1,5,80,127,1635114404
6617,16,Jits_ISO_5,2,5,63,98,1635144004
6617,16,Jits_ISO_5,3,1,48,79,1635178428
6617,16,Jits_ISO_5,0,5,56,103,1635564028
6617,16,Jits_ISO_5,1,5,63,98,1635574076
6617,16,Jits_ISO_5,2,5,80,127,1635614012
6617,16,Jits_ISO_5,3,1,48,79,1635671596
6617,16,Jits_ISO_5,0,5,63,98,1636054336
6617,16,Jits_ISO_5,1,5,80,127,1636134352
6617,16,Jits_ISO_5,2,1,48,70,1636140836
6617,16,Jits_ISO_5,3,5,56,103,1636143420
6617,16,Jits_ISO_5,0,5,63,98,1636613560
6617,16,Jits_ISO_5,1,5,56,103,1636653420
6617,16,Jits_ISO_5,2,5,80,127,1636656560
6617,16,Jits_ISO_5,3,1,48,59,1636662464
6617,16,Jits_ISO_5,0,5,56,103,1637074176
6617,16,Jits_ISO_5,1,5,63,98,1637083400
6617,16,Jits_ISO_5,2,5,80,127,1637123412
6617,16,Jits_ISO_5,3,1,48,66,1637153576
6617,16,Jits_ISO_5,0,5,56,103,1637563856
6617,16,Jits_ISO_5,1,5,63,98,1637566848
6617,16,Jits_ISO_5,2,1,48,54,1637581648
6617,16,Jits_ISO_5,3,5,80,127,1637584232
6617,16,Jits_ISO_5,0,5,80,127,1638073784
6617,16,Jits_ISO_5,1,1,48,49,1638076224
6617,16,Jits_ISO_5,2,5,56,103,1638083896
6617,16,Jits_ISO_5,3,5,63,98,1638153448
6617,16,Jits_ISO_5,0,5,63,98,1638564164
6617,16,Jits_ISO_5,1,1,48,62,1638573436
6617,16,Jits_ISO_5,2,5,56,103,1638583572
6617,16,Jits_ISO_5,3,5,80,127,1638663684
6617,16,Jits_ISO_5,0,1,48,57,1639067368
6617,16,Jits_ISO_5,1,5,56,103,1639074068
6617,16,Jits_ISO_5,2,5,80,127,1639114008
6617,16,Jits_ISO_5,3,5,63,98,1639124300
6617,16,Jits_ISO_5,0,5,80,127,1639563616
6617,16,Jits_ISO_5,1,5,63,98,1639594412
6617,16,Jits_ISO_5,2,1,48,59,1639600224
6617,16,Jits_ISO_5,3,5,56,103,1639634216
6617,16,Jits_ISO_5,0,5,56,103,1640083960
6617,16,Jits_ISO_5,1,1,48,54,1640091812
6617,16,Jits_ISO_5,2,5,63,98,1640113632
6617,16,Jits_ISO_5,3,5,80,127,1640163632
6617,16,Jits_ISO_5,0,5,80,127,1640583484
6617,16,Jits_ISO_5,1,1,48,52,1640594996
6617,16,Jits_ISO_5,2,5,56,103,1640623340
6617,16,Jits_ISO_5,3,5,63,98,1640633836
6617,16,Jits_ISO_5,0,5,80,127,1641064272
6617,16,Jits_ISO_5,1,1,48,53,1641087768
6617,16,Jits_ISO_5,2,5,63,98,1641103904
6617,16,Jits_ISO_5,3,5,56,103,1641164144
6617,16,Jits_ISO_5,0,5,56,103,1641563568
6617,16,Jits_ISO_5,1,5,80,127,1641573912
6617,16,Jits_ISO_5,2,1,48,57,1641624232
6617,16,Jits_ISO_5,3,5,63,98,1641653472
6617,16,Jits_ISO_5,0,5,80,127,1642064140
6617,16,Jits_ISO_5,1,1,48,52,1642077144
6617,16,Jits_ISO_5,2,5,63,98,1642123624
6617,16,Jits_ISO_5,3,5,56,103,1642154344
6617,16,Jits_ISO_5,0,5,56,103,1642564108
6617,16,Jits_ISO_5,1,1,48,56,1642615852
6617,16,Jits_ISO_5,2,5,80,127,1642624416
6617,16,Jits_ISO_5,3,5,63,98,1642664276
6617,16,Jits_ISO_5,0,1,48,55,1643107348
6617,16,Jits_ISO_5,1,5,56,103,1643114116
6617,16,Jits_ISO_5,2,5,63,98,1643124012
6617,16,Jits_ISO_5,3,5,80,127,1643127676
6617,16,Jits_ISO_5,0,5,80,127,1643564404
6617,16,Jits_ISO_5,1,1,48,51,1643635848
6617,16,Jits_ISO_5,2,5,63,98,1643653480
6617,16,Jits_ISO_5,3,5,56,103,1643663900
6617,16,Jits_ISO_5,0,5,56,103,1644074324
6617,16,Jits_ISO_5,1,5,63,98,1644077496
6617,16,Jits_ISO_5,2,5,80,127,1644080768
6617,16,Jits_ISO_5,3,1,48,55,1644135960
6617,16,Jits_ISO_5,0,1,48,54,1644566456
6617,16,Jits_ISO_5,1,5,80,127,1644593684
6617,16,Jits_ISO_5,2,5,63,98,1644643736
6617,16,Jits_ISO_5,3,5,56,103,1644674364
6617,16,Jits_ISO_5,0,5,56,103,1645073796
6617,16,Jits_ISO_5,1,5,80,127,1645083916
6617,16,Jits_ISO_5,2,1,48,51,1645119096
6617,16,Jits_ISO_5,3,5,63,98,1645153736
6617,16,Jits_ISO_5,0,1,48,54,1645563692
6617,16,Jits_ISO_5,1,5,56,103,1645583872
6617,16,Jits_ISO_5,2,5,63,98,1645604180
6617,16,Jits_ISO_5,3,5,80,127,1645663800
6617,16,Jits_ISO_5,0,5,80,127,1646074096
6617,16,Jits_ISO_5,1,1,48,45,1646116320
6617,16,Jits_ISO_5,2,5,63,98,1646143840
6617,16,Jits_ISO_5,3,5,56,103,1646164300
6617,16,Jits_ISO_5,0,5,80,127,1646594520
6617,16,Jits_ISO_5,1,5,56,103,1646603892
6617,16,Jits_ISO_5,2,5,63,98,1646614012
6617,16,Jits_ISO_5,3,1,48,63,1646631508
6617,16,Jits_ISO_5,0,5,80,127,1647083924
6617,16,Jits_ISO_5,1,5,56,103,1647104236
6617,16,Jits_ISO_5,2,1,48,54,1647132304
6617,16,Jits_ISO_5,3,5,63,98,1647174128
6617,16,Jits_ISO_5,0,5,56,103,1647593788
6617,16,Jits_ISO_5,1,1,48,56,1647601696
6617,16,Jits_ISO_5,2,5,80,127,1647623828
6617,16,Jits_ISO_5,3,5,63,98,1647644136
6617,16,Jits_ISO_5,0,5,63,98,1648093684
6617,16,Jits_ISO_5,1,1,48,44,1648114716
6617,16,Jits_ISO_5,2,5,56,103,1648153844
6617,16,Jits_ISO_5,3,5,80,127,1648183812
6617,16,Jits_ISO_5,0,5,63,98,1648584024
6617,16,Jits_ISO_5,1,5,80,127,1648587388
6617,16,Jits_ISO_5,2,1,48,54,1648597876
6617,16,Jits_ISO_5,3,5,56,103,1648674168
6617,16,Jits_ISO_5,0,1,48,51,1649100112
6617,16,Jits_ISO_5,1,5,56,103,1649104268
6617,16,Jits_ISO_5,2,5,63,98,1649133816
6617,16,Jits_ISO_5,3,5,80,127,1649173828
6617,16,Jits_ISO_5,0,1,48,59,1649591148
6617,16,Jits_ISO_5,1,5,63,98,1649603924
6617,16,Jits_ISO_5,2,5,56,103,1649643888
6617,16,Jits_ISO_5,3,5,80,127,1649664344
6617,16,Jits_ISO_5,0,1,48,51,1650074192
6617,16,Jits_ISO_5,1,5,63,98,1650113848
6617,16,Jits_ISO_5,2,5,56,103,1650153736
6617,16,Jits_ISO_5,3,5,80,127,1650164156
6617,16,Jits_ISO_5,0,1,48,61,1650588520
6617,16,Jits_ISO_5,1,5,80,127,1650594024
6617,16,Jits_ISO_5,2,5,63,98,1650663652
6617,16,Jits_ISO_5,3,5,56,103,1650684260
6617,16,Jits_ISO_5,0,1,48,57,1651066984
6617,16,Jits_ISO_5,1,5,56,103,1651083720
6617,16,Jits_ISO_5,2,5,80,127,1651104328
6617,16,Jits_ISO_5,3,5,63,98,1651144188
6617,16,Jits_ISO_5,0,1,48,38,1651561540
6617,16,Jits_ISO_5,1,5,63,98,1651593716
6617,16,Jits_ISO_5,2,5,80,127,1651614172
6617,16,Jits_ISO_5,3,5,56,103,1651654036
6617,16,Jits_ISO_5,0,1,48,66,1652087872
6617,16,Jits_ISO_5,1,5,63,98,1652094640
6617,16,Jits_ISO_5,2,5,56,103,1652113828
6617,16,Jits_ISO_5,3,5,80,127,1652123952
6617,16,Jits_ISO_5,0,5,80,127,1652594004
6617,16,Jits_ISO_5,1,1,48,61,1652602076
6617,16,Jits_ISO_5,2,5,56,103,1652613704
6617,16,Jits_ISO_5,3,5,63,98,1652644128
6617,16,Jits_ISO_5,0,1,48,57,1653112076
6617,16,Jits_ISO_5,1,5,56,103,1653164536
6617,16,Jits_ISO_5,2,5,80,127,1653167680
6617,16,Jits_ISO_5,3,5,63,98,1653184024
6617,16,Jits_ISO_5,0,5,63,98,1653584408
6617,16,Jits_ISO_5,1,5,56,103,1653613860
6617,16,Jits_ISO_5,2,1,48,59,1653647092
6617,16,Jits_ISO_5,3,5,80,127,1653674244
6617,16,Jits_ISO_5,0,5,63,98,1654163784
6617,16,Jits_ISO_5,1,1,48,51,1654164748
6617,16,Jits_ISO_5,2,5,56,103,1654173972
6617,16,Jits_ISO_5,3,5,80,127,1654184168
6617,16,Jits_ISO_5,0,5,56,103,1654614600
6617,16,Jits_ISO_5,1,5,80,127,1654643976
6617,16,Jits_ISO_5,2,5,63,98,1654654248
6617,16,Jits_ISO_5,3,1,48,61,1654670768
6617,16,Jits_ISO_5,0,5,63,98,1655153908
6617,16,Jits_ISO_5,1,5,56,103,1655164400
6617,16,Jits_ISO_5,2,1,48,67,1655173448
6617,16,Jits_ISO_5,3,5,80,127,1655183804
6617,16,Jits_ISO_5,0,5,56,103,1655594236
6617,16,Jits_ISO_5,1,5,63,98,1655653644
6617,16,Jits_ISO_5,2,5,80,127,1655656940
6617,16,Jits_ISO_5,3,1,48,64,1655670024
6617,16,Jits_ISO_5,0,5,80,127,1656113604
6617,16,Jits_ISO_5,1,5,56,103,1656123724
6617,16,Jits_ISO_5,2,1,48,56,1656162956
6617,16,Jits_ISO_5,3,5,63,98,1656194440
6617,16,Jits_ISO_5,0,5,80,127,1656604136
6617,16,Jits_ISO_5,1,1,48,63,1656640884
6617,16,Jits_ISO_5,2,5,56,103,1656673732
6617,16,Jits_ISO_5,3,5,63,98,1656683852
6617,16,Jits_ISO_5,0,5,63,98,1657143592
6617,16,Jits_ISO_5,1,5,56,103,1657153864
6617,16,Jits_ISO_5,2,1,48,57,1657167172
6617,16,Jits_ISO_5,3,5,80,127,1657174464
6617,16,Jits_ISO_5,0,5,80,127,1657594180
6617,16,Jits_ISO_5,1,1,48,64,1657632068
6617,16,Jits_ISO_5,2,5,63,98,1657653664
6617,16,Jits_ISO_5,3,5,56,103,1657693824
6617,16,Jits_ISO_5,0,5,56,103,1658133788
6617,16,Jits_ISO_5,1,5,63,98,1658144056
6617,16,Jits_ISO_5,2,1,48,61,1658153028
6617,16,Jits_ISO_5,3,5,80,127,1658183984
6617,16,Jits_ISO_5,0,5,56,103,1658593528
6617,16,Jits_ISO_5,1,5,80,127,1658624472
6617,16,Jits_ISO_5,2,5,63,98,1658673624
6617,16,Jits_ISO_5,3,1,48,64,1658677644
6617,16,Jits_ISO_5,0,5,56,103,1659134404
6617,16,Jits_ISO_5,1,1,48,64,1659159168
6617,16,Jits_ISO_5,2,5,63,98,1659174184
6617,16,Jits_ISO_5,3,5,80,127,1659177772
6617,16,Jits_ISO_5,0,5,56,103,1659644260
6617,16,Jits_ISO_5,1,5,63,98,1659653484
6617,16,Jits_ISO_5,2,1,48,65,1659654448
6617,16,Jits_ISO_5,3,5,80,127,1659673932
6617,16,Jits_ISO_5,0,5,56,103,1660104048
6617,16,Jits_ISO_5,1,5,80,127,1660106964
6617,16,Jits_ISO_5,2,5,63,98,1660143932
6617,16,Jits_ISO_5,3,1,48,64,1660148996
6617,16,Jits_ISO_5,0,1,48,65,1660635244
6617,16,Jits_ISO_5,1,5,63,98,1660643656
6617,16,Jits_ISO_5,2,5,56,103,1660674528
6617,16,Jits_ISO_5,3,5,80,127,1660693864
6617,16,Jits_ISO_5,0,5,80,127,1661113632
6617,16,Jits_ISO_5,1,5,56,103,1661123828
6617,16,Jits_ISO_5,2,5,63,98,1661134396
6617,16,Jits_ISO_5,3,1,48,64,1661174452
6617,16,Jits_ISO_5,0,5,56,103,1661613428
6617,16,Jits_ISO_5,1,1,48,58,1661637672
6617,16,Jits_ISO_5,2,5,80,127,1661654576
6617,16,Jits_ISO_5,3,5,63,98,1661684028
6617,16,Jits_ISO_5,0,5,63,98,1662124480
6617,16,Jits_ISO_5,1,5,80,127,1662133704
6617,16,Jits_ISO_5,2,1,48,66,1662135040
6617,16,Jits_ISO_5,3,5,56,103,1662143744
6617,16,Jits_ISO_5,0,5,56,103,1662603608
6617,16,Jits_ISO_5,1,1,48,64,1662650096
6617,16,Jits_ISO_5,2,5,63,98,1662674576
6617,16,Jits_ISO_5,3,5,80,127,1662683576
6617,16,Jits_ISO_5,0,5,80,127,1663104700
6617,16,Jits_ISO_5,1,5,56,103,1663113552
6617,16,Jits_ISO_5,2,1,48,68,1663140936
6617,16,Jits_ISO_5,3,5,63,98,1663163744
6617,16,Jits_ISO_5,0,5,80,127,1663614408
6617,16,Jits_ISO_5,1,1,48,67,1663620296
6617,16,Jits_ISO_5,2,5,56,103,1663673744
6617,16,Jits_ISO_5,3,5,63,98,1663704492
6617,16,Jits_ISO_5,0,5,56,103,1664114232
6617,16,Jits_ISO_5,1,5,80,127,1664117076
6617,16,Jits_ISO_5,2,1,48,65,1664146192
6617,16,Jits_ISO_5,3,5,63,98,1664153936
6617,16,Jits_ISO_5,0,1,48,71,1664628388
6617,16,Jits_ISO_5,1,5,56,103,1664643704
6617,16,Jits_ISO_5,2,5,63,98,1664674128
6617,16,Jits_ISO_5,3,5,80,127,1664684620
6617,16,Jits_ISO_5,0,1,48,74,1665126780
6617,16,Jits_ISO_5,1,5,63,98,1665154600
6617,16,Jits_ISO_5,2,5,80,127,1665163676
6617,16,Jits_ISO_5,3,5,56,103,1665173796
6617,16,Jits_ISO_5,0,5,80,127,1665604072
6617,16,Jits_ISO_5,1,1,48,59,1665631004
6617,16,Jits_ISO_5,2,5,56,103,1665654188
6617,16,Jits_ISO_5,3,5,63,98,1665657256
6617,16,Jits_ISO_5,0,1,48,62,1666124376
6617,16,Jits_ISO_5,1,5,56,103,1666134512
6617,16,Jits_ISO_5,2,5,80,127,1666153776
6617,16,Jits_ISO_5,3,5,63,98,1666164196
6617,16,Jits_ISO_5,0,5,63,98,1666613576
6617,16,Jits_ISO_5,1,1,48,61,1666616700
6617,16,Jits_ISO_5,2,5,56,103,1666644368
6617,16,Jits_ISO_5,3,5,80,127,1666663852
6617,16,Jits_ISO_5,0,1,48,65,1667120756
6617,16,Jits_ISO_5,1,5,56,103,1667133828
6617,16,Jits_ISO_5,2,5,80,127,1667144172
6617,16,Jits_ISO_5,3,5,63,98,1667213628
6617,16,Jits_ISO_5,0,1,48,48,1667596824
6617,16,Jits_ISO_5,1,5,63,98,1667624420
6617,16,Jits_ISO_5,2,5,80,127,1667664504
6617,16,Jits_ISO_5,3,5,56,103,1667704276
6617,16,Jits_ISO_5,0,1,48,66,1668117684
6617,16,Jits_ISO_5,1,5,56,103,1668134268
6617,16,Jits_ISO_5,2,5,63,98,1668143716
6617,16,Jits_ISO_5,3,5,80,127,1668163948
6617,16,Jits_ISO_5,0,1,48,61,1668618084
6617,16,Jits_ISO_5,1,5,63,98,1668674004
6617,16,Jits_ISO_5,2,5,80,127,1668694464
6617,16,Jits_ISO_5,3,5,56,103,1668713948
6617,16,Jits_ISO_5,0,5,56,103,1669114488
6617,16,Jits_ISO_5,1,1,48,79,1669153720
6617,16,Jits_ISO_5,2,5,80,127,1669193976
6617,16,Jits_ISO_5,3,5,63,98,1669204396
6617,16,Jits_ISO_5,0,1,48,64,1669638180
6617,16,Jits_ISO_5,1,5,80,127,1669653940
6617,16,Jits_ISO_5,2,5,63,98,1669664356
6617,16,Jits_ISO_5,3,5,56,103,1669693884
6617,16,Jits_ISO_5,0,5,63,98,1670113676
6617,16,Jits_ISO_5,1,5,80,127,1670153612
6617,16,Jits_ISO_5,2,1,48,66,1670164900
6617,16,Jits_ISO_5,3,5,56,103,1670213992
6617,16,Jits_ISO_5,0,5,63,98,1670623672
6617,16,Jits_ISO_5,1,1,48,66,1670659228
6617,16,Jits_ISO_5,2,5,56,103,1670673720
6617,16,Jits_ISO_5,3,5,80,127,1670703540
6617,16,Jits_ISO_5,0,5,80,127,1671143712
6617,16,Jits_ISO_5,1,5,63,98,1671153984
6617,16,Jits_ISO_5,2,1,48,74,1671178220
6617,16,Jits_ISO_5,3,5,56,103,1671223652
6617,16,Jits_ISO_5,0,1,48,53,1671645900
6617,16,Jits_ISO_5,1,5,80,127,1671714252
6617,16,Jits_ISO_5,2,5,56,103,1671724596
6617,16,Jits_ISO_5,3,5,63,98,1671727588
6617,16,Jits_ISO_5,0,5,56,103,1672153532
6617,16,Jits_ISO_5,1,5,80,127,1672173916
6617,16,Jits_ISO_5,2,5,63,98,1672184480
6617,16,Jits_ISO_5,3,1,48,63,1672224840
6617,16,Jits_ISO_5,0,5,63,98,1672664512
6617,16,Jits_ISO_5,1,1,48,58,1672696772
6617,16,Jits_ISO_5,2,5,56,103,1672704296
6617,16,Jits_ISO_5,3,5,80,127,1672723780
6617,16,Jits_ISO_5,0,5,63,98,1673164076
6617,16,Jits_ISO_5,1,1,48,65,1673188268
6617,16,Jits_ISO_5,2,5,56,103,1673223660
6617,16,Jits_ISO_5,3,5,80,127,1673226728
6617,16,Jits_ISO_5,0,5,56,103,1673624240
6617,16,Jits_ISO_5,1,5,80,127,1673644252
6617,16,Jits_ISO_5,2,1,48,65,1673675844
6617,16,Jits_ISO_5,3,5,63,98,1673684432
6617,16,Jits_ISO_5,0,5,56,103,1674154256
6617,16,Jits_ISO_5,1,5,63,98,1674173740
6617,16,Jits_ISO_5,2,1,48,54,1674176564
6617,16,Jits_ISO_5,3,5,80,127,1674184004
6617,16,Jits_ISO_5,0,5,80,127,1674624484
6617,16,Jits_ISO_5,1,5,56,103,1674654160
6617,16,Jits_ISO_5,2,1,48,60,1674672116
6617,16,Jits_ISO_5,3,5,63,98,1674693944
6617,16,Jits_ISO_5,0,5,80,127,1675134196
6617,16,Jits_ISO_5,1,1,48,74,1675151636
6617,16,Jits_ISO_5,2,5,56,103,1675153676
6617,16,Jits_ISO_5,3,5,63,98,1675214284
6617,16,Jits_ISO_5,0,5,56,103,1675644360
6617,16,Jits_ISO_5,1,5,80,127,1675663696
6617,16,Jits_ISO_5,2,1,48,64,1675670476
6617,16,Jits_ISO_5,3,5,63,98,1675724224
6617,16,Jits_ISO_5,0,5,80,127,1676123432
6617,16,Jits_ISO_5,1,5,56,103,1676133852
6617,16,Jits_ISO_5,2,1,48,62,1676171516
6617,16,Jits_ISO_5,3,5,63,98,1676173632
6617,16,Jits_ISO_5,0,5,63,98,1676624372
6617,16,Jits_ISO_5,1,1,48,57,1676631172
6617,16,Jits_ISO_5,2,5,56,103,1676664152
6617,16,Jits_ISO_5,3,5,80,127,1676667292
6617,16,Jits_ISO_5,0,5,63,98,1677144324
6617,16,Jits_ISO_5,1,1,48,68,1677153368
6617,16,Jits_ISO_5,2,5,80,127,1677184328
6617,16,Jits_ISO_5,3,5,56,103,1677214224
6617,16,Jits_ISO_5,0,1,48,66,1677622148
6617,16,Jits_ISO_5,1,5,56,103,1677633860
6617,16,Jits_ISO_5,2,5,63,98,1677644204
6617,16,Jits_ISO_5,3,5,80,127,1677673804
6617,16,Jits_ISO_5,0,5,80,127,1678124460
6617,16,Jits_ISO_5,1,1,48,65,1678172008
6617,16,Jits_ISO_5,2,5,63,98,1678194204
6617,16,Jits_ISO_5,3,5,56,103,1678204324
6617,16,Jits_ISO_5,0,5,63,98,1678634396
6617,16,Jits_ISO_5,1,1,48,66,1678690996
6617,16,Jits_ISO_5,2,5,56,103,1678704068
6617,16,Jits_ISO_5,3,5,80,127,1678714340
6617,16,Jits_ISO_5,0,5,63,98,1679134276
6617,16,Jits_ISO_5,1,5,56,103,1679153392
6617,16,Jits_ISO_5,2,5,80,127,1679193400
6617,16,Jits_ISO_5,3,1,48,74,1679213004
6617,16,Jits_ISO_5,0,5,56,103,1679643964
6617,16,Jits_ISO_5,1,5,63,98,1679654160
6617,16,Jits_ISO_5,2,1,48,65,1679705152
6617,16,Jits_ISO_5,3,5,80,127,1679734244
6617,16,Jits_ISO_5,0,5,63,98,1680133372
6617,16,Jits_ISO_5,1,5,56,103,1680164168
6617,16,Jits_ISO_5,2,1,48,59,1680180320
6617,16,Jits_ISO_5,3,5,80,127,1680204172
6617,16,Jits_ISO_5,0,5,56,103,1680634444
6617,16,Jits_ISO_5,1,1,48,63,1680665584
6617,16,Jits_ISO_5,2,5,63,98,1680674304
6617,16,Jits_ISO_5,3,5,80,127,1680714088
6617,16,Jits_ISO_5,0,5,80,127,1681134116
6617,16,Jits_ISO_5,1,1,48,65,1681153052
6617,16,Jits_ISO_5,2,5,56,103,1681213756
6617,16,Jits_ISO_5,3,5,63,98,1681224172
6617,16,Jits_ISO_5,0,1,48,65,1681668140
6617,16,Jits_ISO_5,1,5,56,103,1681673484
6617,16,Jits_ISO_5,2,5,63,98,1681676480
6617,16,Jits_ISO_5,3,5,80,127,1681683760
6617,16,Jits_ISO_5,0,1,48,64,1682190328
6617,16,Jits_ISO_5,1,5,56,103,1682193888
6617,16,Jits_ISO_5,2,5,63,98,1682214124
6617,16,Jits_ISO_5,3,5,80,127,1682223344
6617,16,Jits_ISO_5,0,5,63,98,1682663960
6617,16,Jits_ISO_5,1,5,80,127,1682674156
6617,16,Jits_ISO_5,2,1,48,64,1682682004
6617,16,Jits_ISO_5,3,5,56,103,1682693484
6617,16,Jits_ISO_5,0,5,63,98,1683163464
6617,16,Jits_ISO_5,1,1,48,65,1683195276
6617,16,Jits_ISO_5,2,5,56,103,1683244368
6617,16,Jits_ISO_5,3,5,80,127,1683247436
6617,16,Jits_ISO_5,0,5,63,98,1683664312
6617,16,Jits_ISO_5,1,5,56,103,1683683724
6617,16,Jits_ISO_5,2,1,48,67,1683711776
6617,16,Jits_ISO_5,3,5,80,127,1683714364
6617,16,Jits_ISO_5,0,5,56,103,1684164092
6617,16,Jits_ISO_5,1,5,63,98,1684184428
6617,16,Jits_ISO_5,2,5,80,127,1684193576
6617,16,Jits_ISO_5,3,1,48,62,1684205612
6617,16,Jits_ISO_5,0,1,48,62,1684680200
6617,16,Jits_ISO_5,1,5,56,103,1684694344
6617,16,Jits_ISO_5,2,5,63,98,1684724092
6617,16,Jits_ISO_5,3,5,80,127,1684727380
6617,16,Jits_ISO_5,0,5,56,103,1685144228
6617,16,Jits_ISO_5,1,1,48,64,1685176644
6617,16,Jits_ISO_5,2,5,63,98,1685184084
6617,16,Jits_ISO_5,3,5,80,127,1685244272
6617,16,Jits_ISO_5,0,5,56,103,1685664128
6617,16,Jits_ISO_5,1,5,63,98,1685674324
6617,16,Jits_ISO_5,2,1,48,57,1685682696
6617,16,Jits_ISO_5,3,5,80,127,1685733756
6617,16,Jits_ISO_5,0,5,56,103,1686163872
6617,16,Jits_ISO_5,1,1,48,63,1686171552
6617,16,Jits_ISO_5,2,5,80,127,1686184252
6617,16,Jits_ISO_5,3,5,63,98,1686214072
6617,16,Jits_ISO_5,0,5,80,127,1686663468
6617,16,Jits_ISO_5,1,1,48,58,1686672148
6617,16,Jits_ISO_5,2,5,56,103,1686673732
6617,16,Jits_ISO_5,3,5,63,98,1686694192
6617,16,Jits_ISO_5,0,1,48,70,1687137776
6617,16,Jits_ISO_5,1,5,63,98,1687154140
6617,16,Jits_ISO_5,2,5,80,127,1687233992
6617,16,Jits_ISO_5,3,5,56,103,1687244040
6617,16,Jits_ISO_5,0,1,48,65,1687642468
6617,16,Jits_ISO_5,1,5,80,127,1687714112
6617,16,Jits_ISO_5,2,5,56,103,1687733668
6617,16,Jits_ISO_5,3,5,63,98,1687736660
6617,16,Jits_ISO_5,0,5,63,98,1688184172
6617,16,Jits_ISO_5,1,5,80,127,1688187388
6617,16,Jits_ISO_5,2,1,48,63,1688213520
6617,16,Jits_ISO_5,3,5,56,103,1688243508
6617,16,Jits_ISO_5,0,5,56,103,1688664568
6617,16,Jits_ISO_5,1,5,80,127,1688673644
6617,16,Jits_ISO_5,2,1,48,52,1688691580
6617,16,Jits_ISO_5,3,5,63,98,1688713572
6617,16,Jits_ISO_5,0,5,56,103,1689143612
6617,16,Jits_ISO_5,1,1,48,61,1689153704
6617,16,Jits_ISO_5,2,5,63,98,1689204144
6617,16,Jits_ISO_5,3,5,80,127,1689214264
6617,16,Jits_ISO_5,0,5,63,98,1689653476
6617,16,Jits_ISO_5,1,1,48,67,1689654440
6617,16,Jits_ISO_5,2,5,80,127,1689693408
6617,16,Jits_ISO_5,3,5,56,103,1689733416
6617,16,Jits_ISO_5,0,1,48,66,1690161796
6617,16,Jits_ISO_5,1,5,56,103,1690163460
6617,16,Jits_ISO_5,2,5,63,98,1690243400
6617,16,Jits_ISO_5,3,5,80,127,1690246840
6617,16,Jits_ISO_5,0,9999,9999,9999,1630851172
6617,16,Jits_ISO_5,1,9999,9999,9999,1631351868
6617,16,Jits_ISO_5,2,9999,9999,9999,1631851608
6617,16,Jits_ISO_5,3,9999,9999,9999,1632351344
6617,16,Jits_ISO_5,4,9999,9999,9999,1632852044
6617,16,Jits_ISO_5,5,9999,9999,9999,1633351792
6617,16,Jits_ISO_5,6,9999,9999,9999,1633851512
6617,16,Jits_ISO_5,7,9999,9999,9999,1634351176
6617,16,Jits_ISO_5,8,9999,9999,9999,1634851944
6617,16,Jits_ISO_5,9,9999,9999,9999,1635351620
6617,16,Jits_ISO_5,10,9999,9999,9999,1635851364
6617,16,Jits_ISO_5,11,9999,9999,9999,1636352088
6617,16,Jits_ISO_5,12,9999,9999,9999,1636862004
6617,16,Jits_ISO_5,13,9999,9999,9999,1637361736
6617,16,Jits_ISO_5,14,9999,9999,9999,1637861472
6617,16,Jits_ISO_5,15,9999,9999,9999,1638361144
6617,16,Jits_ISO_5,16,9999,9999,9999,1638861916
6617,16,Jits_ISO_5,17,9999,9999,9999,1639361636
6617,16,Jits_ISO_5,18,9999,9999,9999,1639861364
6617,16,Jits_ISO_5,19,9999,9999,9999,1640362084
6617,16,Jits_ISO_5,20,9999,9999,9999,1640861756
6617,16,Jits_ISO_5,21,9999,9999,9999,1641361504
6617,16,Jits_ISO_5,22,9999,9999,9999,1641861172
6617,16,Jits_ISO_5,23,9999,9999,9999,1642361964
6617,16,Jits_ISO_5,24,9999,9999,9999,1642861636
6617,16,Jits_ISO_5,25,9999,9999,9999,1643361376
6617,16,Jits_ISO_5,26,9999,9999,9999,1643862084
6617,16,Jits_ISO_5,27,9999,9999,9999,1644372064
6617,16,Jits_ISO_5,28,9999,9999,9999,1644871740
6617,16,Jits_ISO_5,29,9999,9999,9999,1645371472
6617,16,Jits_ISO_5,30,9999,9999,9999,1645871216
6617,16,Jits_ISO_5,31,9999,9999,9999,1646371920
6617,16,Jits_ISO_5,32,9999,9999,9999,1646871668
6617,16,Jits_ISO_5,33,9999,9999,9999,1647371340
6617,16,Jits_ISO_5,34,9999,9999,9999,1647872060
6617,16,Jits_ISO_5,35,9999,9999,9999,1648382072
6617,16,Jits_ISO_5,36,9999,9999,9999,1648881716
6617,16,Jits_ISO_5,37,9999,9999,9999,1649381448
6617,16,Jits_ISO_5,38,9999,9999,9999,1649881184
6617,16,Jits_ISO_5,39,9999,9999,9999,1650381940
6617,16,Jits_ISO_5,40,9999,9999,9999,1650881596
6617,16,Jits_ISO_5,41,9999,9999,9999,1651381328
6617,16,Jits_ISO_5,42,9999,9999,9999,1651882104
6617,16,Jits_ISO_5,43,9999,9999,9999,1652381760
6617,16,Jits_ISO_5,44,9999,9999,9999,1652881492
6617,16,Jits_ISO_5,45,9999,9999,9999,1653381232
6617,16,Jits_ISO_5,46,9999,9999,9999,1653881936
6617,16,Jits_ISO_5,47,9999,9999,9999,1654381676
6617,16,Jits_ISO_5,48,9999,9999,9999,1654881336
6617,16,Jits_ISO_5,49,9999,9999,9999,1655382140
6617,16,Jits_ISO_5,50,9999,9999,9999,1655892048
6617,16,Jits_ISO_5,51,9999,9999,9999,1656391800
6617,16,Jits_ISO_5,52,9999,9999,9999,1656891476
6617,16,Jits_ISO_5,53,9999,9999,9999,1657391224
6617,16,Jits_ISO_5,54,9999,9999,9999,1657891932
6617,16,Jits_ISO_5,55,9999,9999,9999,1658391608
6617,16,Jits_ISO_5,56,9999,9999,9999,1658891352
6617,16,Jits_ISO_5,57,9999,9999,9999,1659392068
6617,16,Jits_ISO_5,58,9999,9999,9999,1659902004
6617,16,Jits_ISO_5,59,9999,9999,9999,1660401736
6617,16,Jits_ISO_5,60,9999,9999,9999,1660901488
6617,16,Jits_ISO_5,61,9999,9999,9999,1661401192
6617,16,Jits_ISO_5,62,9999,9999,9999,1661901888
6617,16,Jits_ISO_5,63,9999,9999,9999,1662401628
6617,16,Jits_ISO_5,64,9999,9999,9999,1662901360
6617,16,Jits_ISO_5,65,9999,9999,9999,1663402076
6617,16,Jits_ISO_5,66,9999,9999,9999,1663901748
6617,16,Jits_ISO_5,67,9999,9999,9999,1664401484
6617,16,Jits_ISO_5,68,9999,9999,9999,1664901236
6617,16,Jits_ISO_5,69,9999,9999,9999,1665401944
6617,16,Jits_ISO_5,70,9999,9999,9999,1665901664
6617,16,Jits_ISO_5,71,9999,9999,9999,1666401332
6617,16,Jits_ISO_5,72,9999,9999,9999,1666902112
6617,16,Jits_ISO_5,73,9999,9999,9999,1667412032
6617,16,Jits_ISO_5,74,9999,9999,9999,1667911764
6617,16,Jits_ISO_5,75,9999,9999,9999,1668411496
6617,16,Jits_ISO_5,76,9999,9999,9999,1668911160
6617,16,Jits_ISO_5,77,9999,9999,9999,1669411940
6617,16,Jits_ISO_5,78,9999,9999,9999,1669911620
6617,16,Jits_ISO_5,79,9999,9999,9999,1670411352
6617,16,Jits_ISO_5,80,9999,9999,9999,1670912060
6617,16,Jits_ISO_5,81,9999,9999,9999,1671422060
6617,16,Jits_ISO_5,82,9999,9999,9999,1671921732
6617,16,Jits_ISO_5,83,9999,9999,9999,1672421464
6617,16,Jits_ISO_5,84,9999,9999,9999,1672921140
6617,16,Jits_ISO_5,85,9999,9999,9999,1673421892
6617,16,Jits_ISO_5,86,9999,9999,9999,1673921616
6617,16,Jits_ISO_5,87,9999,9999,9999,1674421364
6617,16,Jits_ISO_5,88,9999,9999,9999,1674922088
6617,16,Jits_ISO_5,89,9999,9999,9999,1675421760
6617,16,Jits_ISO_5,90,9999,9999,9999,1675921508
6617,16,Jits_ISO_5,91,9999,9999,9999,1676421180
6617,16,Jits_ISO_5,92,9999,9999,9999,1676921964
6617,16,Jits_ISO_5,93,9999,9999,9999,1677421624
6617,16,Jits_ISO_5,94,9999,9999,9999,1677921352
6617,16,Jits_ISO_5,95,9999,9999,9999,1678422136
6617,16,Jits_ISO_5,96,9999,9999,9999,1678932072
6617,16,Jits_ISO_5,97,9999,9999,9999,1679431796
6617,16,Jits_ISO_5,98,9999,9999,9999,1679931452
6617,16,Jits_ISO_5,99,9999,9999,9999,1680431196
6617,16,Jits_ISO_5,100,9999,9999,9999,1680931900
6617,16,Jits_ISO_5,101,9999,9999,9999,1681431644
6617,16,Jits_ISO_5,102,9999,9999,9999,1681931380
6617,16,Jits_ISO_5,103,9999,9999,9999,1682432088
6617,16,Jits_ISO_5,104,9999,9999,9999,1682942004
6617,16,Jits_ISO_5,105,9999,9999,9999,1683441732
6617,16,Jits_ISO_5,106,9999,9999,9999,1683941464
6617,16,Jits_ISO_5,107,9999,9999,9999,1684441192
6617,16,Jits_ISO_5,108,9999,9999,9999,1684941876
6617,16,Jits_ISO_5,109,9999,9999,9999,1685441608
6617,16,Jits_ISO_5,110,9999,9999,9999,1685941352
6617,16,Jits_ISO_5,111,9999,9999,9999,1686442068
6617,16,Jits_ISO_5,112,9999,9999,9999,1686941816
6617,16,Jits_ISO_5,113,9999,9999,9999,1687441488
6617,16,Jits_ISO_5,114,9999,9999,9999,1687941216
6617,16,Jits_ISO_5,115,9999,9999,9999,1688441912
6617,16,Jits_ISO_5,116,9999,9999,9999,1688941620
6617,16,Jits_ISO_5,117,9999,9999,9999,1689441364
6617,16,Jits_ISO_5,118,9999,9999,9999,1689942084
6617,16,Jits_ISO_5,119,9999,9999,9999,1690452072
6618,3,ISIP_8,0,5,42,127,1753730600
6618,3,ISIP_8,1,5,42,127,1754530132
6618,3,ISIP_8,2,5,42,127,1755329884
6618,3,ISIP_8,3,5,42,127,1756129740
6618,3,ISIP_8,4,5,42,127,1756930620
6618,3,ISIP_8,5,5,42,127,1757730148
6618,3,ISIP_8,6,5,42,127,1758529832
6618,3,ISIP_8,7,5,42,127,1759329660
6618,3,ISIP_8,8,5,42,127,1760130684
6618,3,ISIP_8,9,1,48,44,1760136048
6618,3,ISIP_8,10,1,48,64,1760857600
6618,3,ISIP_8,11,5,42,127,1760930116
6618,3,ISIP_8,12,1,48,57,1761693464
6618,3,ISIP_8,13,5,42,127,1761729848
6618,3,ISIP_8,14,1,48,61,1762476220
6618,3,ISIP_8,15,5,42,127,1762529532
6618,3,ISIP_8,16,1,48,53,1763296020
6618,3,ISIP_8,17,5,42,127,1763330608
6618,3,ISIP_8,18,1,48,46,1764100840
6618,3,ISIP_8,19,5,42,127,1764130044
6618,3,ISIP_8,20,1,48,48,1764886812
6618,3,ISIP_8,21,5,42,127,1764929780
6618,3,ISIP_8,22,1,48,52,1765709580
6618,3,ISIP_8,23,5,42,127,1765729736
6618,3,ISIP_8,24,1,48,56,1766520912
6618,3,ISIP_8,25,5,42,127,1766530516
6618,3,ISIP_8,26,1,48,53,1767280324
6618,3,ISIP_8,27,5,42,127,1767330172
6618,3,ISIP_8,28,1,48,51,1768092620
6618,3,ISIP_8,29,5,42,127,1768129832
6618,3,ISIP_8,30,1,48,42,1768919536
6618,3,ISIP_8,31,5,42,127,1768929592
6618,3,ISIP_8,32,1,48,51,1769720540
6618,3,ISIP_8,33,5,42,127,1769730520
6618,3,ISIP_8,34,1,48,52,1770505764
6618,3,ISIP_8,35,5,42,127,1770530404
6618,3,ISIP_8,36,1,48,50,1771306620
6618,3,ISIP_8,37,5,42,127,1771329840
6618,3,ISIP_8,38,1,48,46,1772129204
6618,3,ISIP_8,39,5,42,127,1772130772
6618,3,ISIP_8,40,5,42,127,1772930364
6618,3,ISIP_8,41,1,48,45,1772942908
6618,3,ISIP_8,42,1,48,52,1773709108
6618,3,ISIP_8,43,5,42,127,1773730160
6618,3,ISIP_8,44,1,48,47,1774500464
6618,3,ISIP_8,45,5,42,127,1774529820
6618,3,ISIP_8,46,1,48,51,1775290700
6618,3,ISIP_8,47,5,42,127,1775329580
6618,3,ISIP_8,48,1,48,51,1776067396
6618,3,ISIP_8,49,5,42,127,1776130432
6618,3,ISIP_8,50,1,48,58,1776819412
6618,3,ISIP_8,51,5,42,127,1776930300
6618,3,ISIP_8,52,1,48,40,1777741768
6618,3,ISIP_8,53,1,48,53,1778606876
6618,3,ISIP_8,54,1,48,46,1779375488
6618,3,ISIP_8,55,1,48,45,1780178012
6618,3,ISIP_8,56,1,48,38,1780992848
6618,3,ISIP_8,57,1,48,51,1781781584
6618,3,ISIP_8,58,1,48,42,1782631876
6618,3,ISIP_8,59,1,48,47,1783470048
6618,3,ISIP_8,60,1,48,45,1784287832
6618,3,ISIP_8,61,1,48,46,1785108128
6618,3,ISIP_8,62,1,48,39,1785951016
6618,3,ISIP_8,63,1,48,42,1786762936
6618,3,ISIP_8,64,1,48,45,1787538808
6618,3,ISIP_8,65,1,48,46,1788327612
6618,3,ISIP_8,66,1,48,38,1789176064
6618,3,ISIP_8,67,1,48,44,1789985516
6618,3,ISIP_8,68,1,48,40,1790815240
6618,3,ISIP_8,69,1,48,46,1791640248
6618,3,ISIP_8,70,1,48,41,1792470892
6618,3,ISIP_8,71,1,48,42,1793249156
6618,3,ISIP_8,72,1,48,42,1794058464
6618,3,ISIP_8,73,1,48,41,1794921544
6618,3,ISIP_8,74,1,48,39,1795721548
6618,3,ISIP_8,75,1,48,37,1796550748
6618,3,ISIP_8,76,1,48,40,1797373016
6618,3,ISIP_8,77,1,48,45,1798186804
6618,3,ISIP_8,78,1,48,40,1799017952
6618,3,ISIP_8,79,1,48,45,1799847896
6618,3,ISIP_8,80,1,48,44,1800683104
6618,3,ISIP_8,81,1,48,48,1801517840
6618,3,ISIP_8,82,1,48,38,1802353096
6618,3,ISIP_8,83,1,48,38,1803152224
6618,3,ISIP_8,84,1,48,41,1803924884
6618,3,ISIP_8,85,1,48,50,1804761136
6618,3,ISIP_8,86,1,48,40,1805616812
6618,3,ISIP_8,87,1,48,41,1806396724
6618,3,ISIP_8,88,1,48,45,1807212836
6618,3,ISIP_8,89,1,48,50,1808084072
6618,3,ISIP_8,90,1,48,45,1808910352
6618,3,ISIP_8,91,1,48,41,1809716512
6618,3,ISIP_8,92,1,48,49,1810551036
6618,3,ISIP_8,93,1,48,51,1811366396
6618,3,ISIP_8,94,1,48,44,1812171088
6618,3,ISIP_8,95,1,48,49,1812995724
6618,3,ISIP_8,96,1,48,51,1813834272
6618,3,ISIP_8,97,1,48,55,1814682172
6618,3,ISIP_8,98,1,48,44,1815512816
6618,3,ISIP_8,99,1,48,49,1816323840
6618,3,ISIP_8,100,1,48,54,1817135688
6618,3,ISIP_8,101,1,48,53,1817959728
6618,3,ISIP_8,102,1,48,45,1818790644
6618,3,ISIP_8,103,1,48,55,1819587980
6618,3,ISIP_8,104,1,48,16,1819951524
6618,3,ISIP_8,105,1,48,48,1820443212
6618,3,ISIP_8,106,1,48,52,1821283708
6618,3,ISIP_8,107,1,48,43,1822115744
6618,3,ISIP_8,108,1,48,46,1822910540
6618,3,ISIP_8,109,1,48,52,1823697204
6618,3,ISIP_8,110,1,48,54,1824505312
6618,3,ISIP_8,111,1,48,43,1825332864
6618,3,ISIP_8,112,1,48,47,1826155932
6618,3,ISIP_8,113,1,48,47,1826995900
6618,3,ISIP_8,114,1,48,59,1827836792
6618,3,ISIP_8,115,1,48,44,1828675720
6618,3,ISIP_8,116,1,48,51,1829497364
6618,3,ISIP_8,117,1,48,54,1830301428
6618,3,ISIP_8,118,1,48,59,1831127884
6618,3,ISIP_8,119,1,48,48,1831957984
6618,3,ISIP_8,120,1,48,51,1832767212
6618,3,ISIP_8,121,1,48,25,1833139644
6618,3,ISIP_8,122,1,48,53,1833585992
6618,3,ISIP_8,123,1,48,54,1834351384
6618,3,ISIP_8,124,1,48,48,1835136680
6618,3,ISIP_8,125,1,48,46,1835914044
6618,3,ISIP_8,126,1,48,49,1836716616
6618,3,ISIP_8,127,1,48,51,1837516372
6618,3,ISIP_8,128,1,48,37,1838339140
6618,3,ISIP_8,129,1,48,54,1839142456
6618,3,ISIP_8,130,1,48,48,1839944732
6618,3,ISIP_8,131,1,48,53,1840745804
6618,3,ISIP_8,132,1,48,45,1841550068
6618,3,ISIP_8,133,1,48,55,1842317488
6618,3,ISIP_8,134,1,48,48,1843114224
6618,3,ISIP_8,135,1,48,46,1843897944
6618,3,ISIP_8,136,1,48,46,1844719092
6618,3,ISIP_8,137,1,48,51,1845550684
6618,3,ISIP_8,138,1,48,51,1846382952
6618,3,ISIP_8,139,1,48,55,1847204520
6618,3,ISIP_8,140,1,48,35,1848024324
6618,3,ISIP_8,141,1,48,51,1848783136
6618,3,ISIP_8,142,1,48,52,1849577104
6618,3,ISIP_8,143,1,48,51,1850371300
6618,3,ISIP_8,144,1,48,46,1851141780
6618,3,ISIP_8,145,1,48,49,1851929320
6618,3,ISIP_8,146,1,48,50,1852706160
6618,3,ISIP_8,147,1,48,54,1853473504
6618,3,ISIP_8,148,1,48,43,1854305992
6618,3,ISIP_8,149,1,48,43,1855074084
6618,3,ISIP_8,150,1,48,53,1855848756
6618,3,ISIP_8,151,1,48,51,1856648908
6618,3,ISIP_8,152,1,48,46,1857470480
6618,3,ISIP_8,153,1,48,55,1858290572
6618,3,ISIP_8,154,1,48,54,1859042660
6618,3,ISIP_8,155,1,48,56,1859795416
6618,3,ISIP_8,156,1,48,37,1860630520
6618,3,ISIP_8,157,1,48,44,1861458748
6618,3,ISIP_8,158,1,48,47,1862233572
6618,3,ISIP_8,159,1,48,51,1863030604
6618,3,ISIP_8,160,1,48,37,1863788972
6618,3,ISIP_8,161,1,48,34,1864591916
6618,3,ISIP_8,162,1,48,55,1865383048
6618,3,ISIP_8,163,1,48,43,1866203296
6618,3,ISIP_8,164,1,48,42,1867029652
6618,3,ISIP_8,165,1,48,50,1867858252
6618,3,ISIP_8,166,1,48,44,1868655212
6618,3,ISIP_8,167,1,48,44,1869456516
6618,3,ISIP_8,168,1,48,46,1870302188
6618,3,ISIP_8,169,1,48,47,1871101544
6618,3,ISIP_8,170,1,48,49,1871965152
6618,3,ISIP_8,171,1,48,50,1872766676
6618,3,ISIP_8,172,1,48,43,1873551600
6618,3,ISIP_8,0,9999,9999,9999,1753728088
6618,3,ISIP_8,1,9999,9999,9999,1754527844
6618,3,ISIP_8,2,9999,9999,9999,1755327596
6618,3,ISIP_8,3,9999,9999,9999,1756127304
6618,3,ISIP_8,4,9999,9999,9999,1756928108
6618,3,ISIP_8,5,9999,9999,9999,1757727860
6618,3,ISIP_8,6,9999,9999,9999,1758527544
6618,3,ISIP_8,7,9999,9999,9999,1759327296
6618,3,ISIP_8,8,9999,9999,9999,1760128100
6618,3,ISIP_8,9,9999,9999,9999,1760927828
6618,3,ISIP_8,10,9999,9999,9999,1761727560
6618,3,ISIP_8,11,9999,9999,9999,1762527320
6618,3,ISIP_8,12,9999,9999,9999,1763328100
6618,3,ISIP_8,13,9999,9999,9999,1764127832
6618,3,ISIP_8,14,9999,9999,9999,1764927564
6618,3,ISIP_8,15,9999,9999,9999,1765727300
6618,3,ISIP_8,16,9999,9999,9999,1766528080
6618,3,ISIP_8,17,9999,9999,9999,1767327812
6618,3,ISIP_8,18,9999,9999,9999,1768127544
6618,3,ISIP_8,19,9999,9999,9999,1768927304
6618,3,ISIP_8,20,9999,9999,9999,1769728084
6618,3,ISIP_8,21,9999,9999,9999,1770527820
6618,3,ISIP_8,22,9999,9999,9999,1771327552
6618,3,ISIP_8,23,9999,9999,9999,1772127292
6618,3,ISIP_8,24,9999,9999,9999,1772928076
6618,3,ISIP_8,25,9999,9999,9999,1773727800
6618,3,ISIP_8,26,9999,9999,9999,1774527608
6618,3,ISIP_8,27,9999,9999,9999,1775327292
6618,3,ISIP_8,28,9999,9999,9999,1776128072
6618,3,ISIP_8,29,9999,9999,9999,1776927788
6618,3,ISIP_8,30,9999,9999,9999,1777727544
6618,3,ISIP_8,31,9999,9999,9999,1778527348
6618,3,ISIP_8,32,9999,9999,9999,1779328048
6618,3,ISIP_8,33,9999,9999,9999,1780127852
6618,3,ISIP_8,34,9999,9999,9999,1780927580
6618,3,ISIP_8,35,9999,9999,9999,1781727336
6618,3,ISIP_8,36,9999,9999,9999,1782528112
6618,3,ISIP_8,37,9999,9999,9999,1783327840
6618,3,ISIP_8,38,9999,9999,9999,1784127572
6618,3,ISIP_8,39,9999,9999,9999,1784927300
6618,3,ISIP_8,40,9999,9999,9999,1785728076
6618,3,ISIP_8,41,9999,9999,9999,1786527808
6618,3,ISIP_8,42,9999,9999,9999,1787327536
6618,3,ISIP_8,43,9999,9999,9999,1788127288
6618,3,ISIP_8,44,9999,9999,9999,1788928064
6618,3,ISIP_8,45,9999,9999,9999,1789727796
6618,3,ISIP_8,46,9999,9999,9999,1790527600
6618,3,ISIP_8,47,9999,9999,9999,1791327328
6618,3,ISIP_8,48,9999,9999,9999,1792128104
6618,3,ISIP_8,49,9999,9999,9999,1792927836
6618,3,ISIP_8,50,9999,9999,9999,1793727564
6618,3,ISIP_8,51,9999,9999,9999,1794527320
6618,3,ISIP_8,52,9999,9999,9999,1795328068
6618,3,ISIP_8,53,9999,9999,9999,1796127796
6618,3,ISIP_8,54,9999,9999,9999,1796927600
6618,3,ISIP_8,55,9999,9999,9999,1797727328
6618,3,ISIP_8,56,9999,9999,9999,1798528108
6618,3,ISIP_8,57,9999,9999,9999,1799327836
6618,3,ISIP_8,58,9999,9999,9999,1800127564
6618,3,ISIP_8,59,9999,9999,9999,1800927320
6618,3,ISIP_8,60,9999,9999,9999,1801728096
6618,3,ISIP_8,61,9999,9999,9999,1802527824
6618,3,ISIP_8,62,9999,9999,9999,1803327552
6618,3,ISIP_8,63,9999,9999,9999,1804127284
6618,3,ISIP_8,64,9999,9999,9999,1804928060
6618,3,ISIP_8,65,9999,9999,9999,1805727864
6618,3,ISIP_8,66,9999,9999,9999,1806527592
6618,3,ISIP_8,67,9999,9999,9999,1807327320
6618,3,ISIP_8,68,9999,9999,9999,1808128112
6618,3,ISIP_8,69,9999,9999,9999,1808927844
6618,3,ISIP_8,70,9999,9999,9999,1809727572
6618,3,ISIP_8,71,9999,9999,9999,1810527308
6618,3,ISIP_8,72,9999,9999,9999,1811328084
6618,3,ISIP_8,73,9999,9999,9999,1812127812
6618,3,ISIP_8,74,9999,9999,9999,1812927540
6618,3,ISIP_8,75,9999,9999,9999,1813727296
6618,3,ISIP_8,76,9999,9999,9999,1814528072
6618,3,ISIP_8,77,9999,9999,9999,1815327800
6618,3,ISIP_8,78,9999,9999,9999,1816127604
6618,3,ISIP_8,79,9999,9999,9999,1816927336
6618,3,ISIP_8,80,9999,9999,9999,1817728108
6618,3,ISIP_8,81,9999,9999,9999,1818527840
6618,3,ISIP_8,82,9999,9999,9999,1819327568
6618,3,ISIP_8,83,9999,9999,9999,1820127300
6618,3,ISIP_8,84,9999,9999,9999,1820928076
6618,3,ISIP_8,85,9999,9999,9999,1821727804
6618,3,ISIP_8,86,9999,9999,9999,1822527608
6618,3,ISIP_8,87,9999,9999,9999,1823327336
6618,3,ISIP_8,88,9999,9999,9999,1824128112
6618,3,ISIP_8,89,9999,9999,9999,1824927844
6618,3,ISIP_8,90,9999,9999,9999,1825727572
6618,3,ISIP_8,91,9999,9999,9999,1826527328
6618,3,ISIP_8,92,9999,9999,9999,1827328104
6618,3,ISIP_8,93,9999,9999,9999,1828127832
6618,3,ISIP_8,94,9999,9999,9999,1828927560
6618,3,ISIP_8,95,9999,9999,9999,1829727292
6618,3,ISIP_8,96,9999,9999,9999,1830528068
6618,3,ISIP_8,97,9999,9999,9999,1831327796
6618,3,ISIP_8,98,9999,9999,9999,1832127600
6618,3,ISIP_8,99,9999,9999,9999,1832927280
6618,3,ISIP_8,100,9999,9999,9999,1833728104
6618,3,ISIP_8,101,9999,9999,9999,1834527836
6618,3,ISIP_8,102,9999,9999,9999,1835327564
6618,3,ISIP_8,103,9999,9999,9999,1836127292
6618,3,ISIP_8,104,9999,9999,9999,1836928068
6618,3,ISIP_8,105,9999,9999,9999,1837727796
6618,3,ISIP_8,106,9999,9999,9999,1838527600
6618,3,ISIP_8,107,9999,9999,9999,1839327280
6618,3,ISIP_8,108,9999,9999,9999,1840128056
6618,3,ISIP_8,109,9999,9999,9999,1840927836
6618,3,ISIP_8,110,9999,9999,9999,1841727564
6618,3,ISIP_8,111,9999,9999,9999,1842527292
6618,3,ISIP_8,112,9999,9999,9999,1843328068
6618,3,ISIP_8,113,9999,9999,9999,1844127796
6618,3,ISIP_8,114,9999,9999,9999,1844927600
6618,3,ISIP_8,115,9999,9999,9999,1845727280
6618,3,ISIP_8,116,9999,9999,9999,1846528056
6618,3,ISIP_8,117,9999,9999,9999,1847327860
6618,3,ISIP_8,118,9999,9999,9999,1848127588
6618,3,ISIP_8,119,9999,9999,9999,1848927320
6618,3,ISIP_8,120,9999,9999,9999,1849728096
6618,3,ISIP_8,121,9999,9999,9999,1850527824
6618,3,ISIP_8,122,9999,9999,9999,1851327552
6618,3,ISIP_8,123,9999,9999,9999,1852127308
6618,3,ISIP_8,124,9999,9999,9999,1852928088
6618,3,ISIP_8,125,9999,9999,9999,1853727816
6618,3,ISIP_8,126,9999,9999,9999,1854527544
6618,3,ISIP_8,127,9999,9999,9999,1855327348
6618,3,ISIP_8,128,9999,9999,9999,1856128100
6618,3,ISIP_8,129,9999,9999,9999,1856927828
6618,3,ISIP_8,130,9999,9999,9999,1857727556
6618,3,ISIP_8,131,9999,9999,9999,1858527308
6618,3,ISIP_8,132,9999,9999,9999,1859328084
6618,3,ISIP_8,133,9999,9999,9999,1860127816
6618,3,ISIP_8,134,9999,9999,9999,1860927544
6618,3,ISIP_8,135,9999,9999,9999,1861727348
6618,3,ISIP_8,136,9999,9999,9999,1862528048
6618,3,ISIP_8,137,9999,9999,9999,1863327852
6618,3,ISIP_8,138,9999,9999,9999,1864127580
6618,3,ISIP_8,139,9999,9999,9999,1864927336
6618,3,ISIP_8,140,9999,9999,9999,1865728108
6618,3,ISIP_8,141,9999,9999,9999,1866527840
6618,3,ISIP_8,142,9999,9999,9999,1867327568
6618,3,ISIP_8,143,9999,9999,9999,1868127300
6618,3,ISIP_8,144,9999,9999,9999,1868928076
6618,3,ISIP_8,145,9999,9999,9999,1869727804
6618,3,ISIP_8,146,9999,9999,9999,1870527608
6618,3,ISIP_8,147,9999,9999,9999,1871327284
6618,3,ISIP_8,148,9999,9999,9999,1872128064
6618,3,ISIP_8,149,9999,9999,9999,1872927792
6619,5,ISIP_5,0,5,42,127,1896200464
6619,5,ISIP_5,1,5,42,127,1896701452
6619,5,ISIP_5,2,5,42,127,1897201092
6619,5,ISIP_5,3,5,42,127,1897700660
6619,5,ISIP_5,4,5,42,127,1898200376
6619,5,ISIP_5,5,1,48,68,1898237008
6619,5,ISIP_5,6,5,42,127,1898701120
6619,5,ISIP_5,7,1,48,71,1898725032
6619,5,ISIP_5,8,5,42,127,1899201012
6619,5,ISIP_5,9,1,48,75,1899244700
6619,5,ISIP_5,10,5,42,127,1899700704
6619,5,ISIP_5,11,1,48,68,1899713776
6619,5,ISIP_5,12,5,42,127,1900201300
6619,5,ISIP_5,13,1,48,64,1900216308
6619,5,ISIP_5,14,1,48,61,1900673576
6619,5,ISIP_5,15,5,42,127,1900701132
6619,5,ISIP_5,16,1,48,61,1901170500
6619,5,ISIP_5,17,5,42,127,1901200680
6619,5,ISIP_5,18,1,48,60,1901696080
6619,5,ISIP_5,19,5,42,127,1901700448
6619,5,ISIP_5,20,5,42,127,1902201124
6619,5,ISIP_5,21,1,48,60,1902203720
6619,5,ISIP_5,22,1,48,61,1902691052
6619,5,ISIP_5,23,5,42,127,1902701036
6619,5,ISIP_5,24,5,42,127,1903200660
6619,5,ISIP_5,25,1,48,60,1903218744
6619,5,ISIP_5,26,5,42,127,1903701404
6619,5,ISIP_5,27,1,48,50,1903704452
6619,5,ISIP_5,28,1,48,24,1903790816
6619,5,ISIP_5,29,5,42,127,1904201152
6619,5,ISIP_5,30,1,48,51,1904221328
6619,5,ISIP_5,31,5,42,127,1904700772
6619,5,ISIP_5,32,1,48,52,1904712796
6619,5,ISIP_5,33,5,42,127,1905200392
6619,5,ISIP_5,34,1,48,56,1905205384
6619,5,ISIP_5,35,1,48,54,1905700608
6619,5,ISIP_5,36,5,42,127,1905702248
6619,5,ISIP_5,37,5,42,127,1906201052
6619,5,ISIP_5,38,1,48,51,1906217860
6619,5,ISIP_5,39,5,42,127,1906700600
6619,5,ISIP_5,40,1,48,47,1906709632
6619,5,ISIP_5,41,1,48,54,1907196964
6619,5,ISIP_5,42,5,42,127,1907201260
6619,5,ISIP_5,43,1,48,50,1907690676
6619,5,ISIP_5,44,5,42,127,1907701032
6619,5,ISIP_5,45,1,48,47,1908182740
6619,5,ISIP_5,46,5,42,127,1908200876
6619,5,ISIP_5,47,1,48,47,1908695376
6619,5,ISIP_5,48,5,42,127,1908700568
6619,5,ISIP_5,49,1,48,46,1909198888
6619,5,ISIP_5,50,5,42,127,1909201312
6619,5,ISIP_5,51,5,42,127,1909701012
6619,5,ISIP_5,52,1,48,49,1909714980
6619,5,ISIP_5,53,1,48,46,1910186208
6619,5,ISIP_5,54,5,42,127,1910200676
6619,5,ISIP_5,55,1,48,49,1910689488
6619,5,ISIP_5,56,5,42,127,1910701344
6619,5,ISIP_5,57,1,48,48,1911199376
6619,5,ISIP_5,58,5,42,127,1911200964
6619,5,ISIP_5,59,5,42,127,1911701112
6619,5,ISIP_5,60,1,48,48,1911702976
6619,5,ISIP_5,61,1,48,49,1912187900
6619,5,ISIP_5,62,5,42,127,1912200652
6619,5,ISIP_5,63,1,48,52,1912692456
6619,5,ISIP_5,64,5,42,127,1912701244
6619,5,ISIP_5,65,5,42,127,1913201096
6619,5,ISIP_5,66,1,48,46,1913218872
6619,5,ISIP_5,67,1,48,45,1913668508
6619,5,ISIP_5,68,5,42,127,1913700928
6619,5,ISIP_5,69,1,48,54,1914195208
6619,5,ISIP_5,70,5,42,127,1914200328
6619,5,ISIP_5,71,1,48,51,1914698956
6619,5,ISIP_5,72,5,42,127,1914701220
6619,5,ISIP_5,73,1,48,58,1915195872
6619,5,ISIP_5,74,5,42,127,1915201064
6619,5,ISIP_5,75,5,42,127,1915700764
6619,5,ISIP_5,76,1,48,56,1915704784
6619,5,ISIP_5,77,1,48,53,1916196680
6619,5,ISIP_5,78,1,48,52,1916722864
6619,5,ISIP_5,79,1,48,52,1917206248
6619,5,ISIP_5,80,1,48,48,1917692460
6619,5,ISIP_5,81,1,48,48,1918224028
6619,5,ISIP_5,82,1,48,48,1918711156
6619,5,ISIP_5,83,1,48,51,1919207404
6619,5,ISIP_5,84,1,48,48,1919694368
6619,5,ISIP_5,85,1,48,51,1920180792
6619,5,ISIP_5,86,1,48,46,1920674796
6619,5,ISIP_5,87,1,48,46,1921170600
6619,5,ISIP_5,88,1,48,46,1921672384
6619,5,ISIP_5,89,1,48,18,1922171772
6619,5,ISIP_5,90,1,48,31,1922176244
6619,5,ISIP_5,91,1,48,52,1922679896
6619,5,ISIP_5,92,1,48,50,1923155796
6619,5,ISIP_5,93,1,48,72,1923668432
6619,5,ISIP_5,94,1,48,84,1924147176
6619,5,ISIP_5,95,1,48,64,1924630864
6619,5,ISIP_5,96,1,48,58,1925130852
6619,5,ISIP_5,97,1,48,59,1925632488
6619,5,ISIP_5,98,1,48,65,1926127988
6619,5,ISIP_5,99,1,48,65,1926622596
6619,5,ISIP_5,100,1,48,60,1927121684
6619,5,ISIP_5,101,1,48,62,1927609980
6619,5,ISIP_5,102,1,48,69,1928119244
6619,5,ISIP_5,103,1,48,55,1928583484
6619,5,ISIP_5,104,1,48,58,1929078536
6619,5,ISIP_5,105,1,48,53,1929581968
6619,5,ISIP_5,106,1,48,65,1930084576
6619,5,ISIP_5,107,1,48,60,1930589352
6619,5,ISIP_5,108,1,48,59,1931070116
6619,5,ISIP_5,109,1,48,60,1931558964
6619,5,ISIP_5,110,1,48,54,1932041452
6619,5,ISIP_5,111,1,48,51,1932565076
6619,5,ISIP_5,112,1,48,59,1933052720
6619,5,ISIP_5,113,1,48,55,1933581060
6619,5,ISIP_5,114,1,48,51,1934047092
6619,5,ISIP_5,115,1,48,53,1934550304
6619,5,ISIP_5,116,1,48,66,1935052608
6619,5,ISIP_5,117,1,48,55,1935540608
6619,5,ISIP_5,118,1,48,55,1936036404
6619,5,ISIP_5,119,1,48,63,1936539460
6619,5,ISIP_5,120,1,48,61,1937028460
6619,5,ISIP_5,121,1,48,59,1937513260
6619,5,ISIP_5,122,1,48,64,1938006448
6619,5,ISIP_5,123,1,48,61,1938516828
6619,5,ISIP_5,124,1,48,62,1939020780
6619,5,ISIP_5,125,1,48,66,1939520472
6619,5,ISIP_5,126,1,48,60,1940007896
6619,5,ISIP_5,127,1,48,56,1940508636
6619,5,ISIP_5,128,1,48,62,1941011844
6619,5,ISIP_5,129,1,48,65,1941507720
6619,5,ISIP_5,130,1,48,64,1942007040
6619,5,ISIP_5,131,1,48,56,1942510768
6619,5,ISIP_5,132,1,48,58,1942995200
6619,5,ISIP_5,133,1,48,66,1943504388
6619,5,ISIP_5,134,1,48,61,1944028008
6619,5,ISIP_5,135,1,48,65,1944539968
6619,5,ISIP_5,136,1,48,65,1945044152
6619,5,ISIP_5,137,1,48,58,1945539500
6619,5,ISIP_5,138,1,48,64,1946052660
6619,5,ISIP_5,139,1,48,59,1946526140
6619,5,ISIP_5,140,1,48,64,1947035712
6619,5,ISIP_5,141,1,48,66,1947525600
6619,5,ISIP_5,142,1,48,65,1948021248
6619,5,ISIP_5,143,1,48,74,1948523408
6619,5,ISIP_5,144,1,48,65,1949015620
6619,5,ISIP_5,145,1,48,65,1949504692
6619,5,ISIP_5,146,1,48,72,1950012536
6619,5,ISIP_5,147,1,48,63,1950533464
6619,5,ISIP_5,148,1,48,62,1951026724
6619,5,ISIP_5,149,1,48,58,1951518184
6619,5,ISIP_5,150,1,48,65,1951988628
6619,5,ISIP_5,151,1,48,66,1952466256
6619,5,ISIP_5,152,1,48,63,1952957244
6619,5,ISIP_5,153,1,48,67,1953423576
6619,5,ISIP_5,154,1,48,73,1953897308
6619,5,ISIP_5,155,1,48,74,1954370368
6619,5,ISIP_5,156,1,48,61,1954849944
6619,5,ISIP_5,157,1,48,64,1955342532
6619,5,ISIP_5,158,1,48,72,1955838404
6619,5,ISIP_5,159,1,48,66,1956309968
6619,5,ISIP_5,160,1,48,62,1956811528
6619,5,ISIP_5,161,1,48,67,1957304912
6619,5,ISIP_5,162,1,48,76,1957789568
6619,5,ISIP_5,163,1,48,66,1958296668
6619,5,ISIP_5,164,1,48,57,1958785360
6619,5,ISIP_5,165,1,48,73,1959269340
6619,5,ISIP_5,166,1,48,92,1959783968
6619,5,ISIP_5,167,1,48,71,1960297120
6619,5,ISIP_5,168,1,48,61,1960784468
6619,5,ISIP_5,169,1,48,65,1961263372
6619,5,ISIP_5,170,1,48,72,1961747800
6619,5,ISIP_5,171,1,48,66,1962243452
6619,5,ISIP_5,172,1,48,69,1962731700
6619,5,ISIP_5,173,1,48,63,1963228620
6619,5,ISIP_5,174,1,48,73,1963720084
6619,5,ISIP_5,175,1,48,60,1964189588
6619,5,ISIP_5,176,1,48,70,1964677464
6619,5,ISIP_5,177,1,48,60,1965151944
6619,5,ISIP_5,178,1,48,69,1965638544
6619,5,ISIP_5,179,1,48,51,1966133900
6619,5,ISIP_5,180,1,48,71,1966618480
6619,5,ISIP_5,181,1,48,61,1967066564
6619,5,ISIP_5,182,1,48,68,1967554284
6619,5,ISIP_5,183,1,48,61,1968011088
6619,5,ISIP_5,184,1,48,68,1968502032
6619,5,ISIP_5,185,1,48,60,1968974344
6619,5,ISIP_5,186,1,48,70,1969456980
6619,5,ISIP_5,187,1,48,60,1969912844
6619,5,ISIP_5,188,1,48,63,1970402508
6619,5,ISIP_5,189,1,48,60,1970882076
6619,5,ISIP_5,190,1,48,74,1971339632
6619,5,ISIP_5,191,1,48,58,1971812240
6619,5,ISIP_5,192,1,48,62,1972310140
6619,5,ISIP_5,193,1,48,64,1972795092
6619,5,ISIP_5,194,1,48,64,1973280800
6619,5,ISIP_5,195,1,48,62,1973766124
6619,5,ISIP_5,196,1,48,57,1974244876
6619,5,ISIP_5,197,1,48,71,1974714624
6619,5,ISIP_5,198,1,48,65,1975205040
6619,5,ISIP_5,199,1,48,52,1975727244
6619,5,ISIP_5,200,1,48,64,1976171340
6619,5,ISIP_5,0,9999,9999,9999,1896198252
6619,5,ISIP_5,1,9999,9999,9999,1896698940
6619,5,ISIP_5,2,9999,9999,9999,1897198656
6619,5,ISIP_5,3,9999,9999,9999,1897698372
6619,5,ISIP_5,4,9999,9999,9999,1898198092
6619,5,ISIP_5,5,9999,9999,9999,1898698832
6619,5,ISIP_5,6,9999,9999,9999,1899198576
6619,5,ISIP_5,7,9999,9999,9999,1899698272
6619,5,ISIP_5,8,9999,9999,9999,1900199012
6619,5,ISIP_5,9,9999,9999,9999,1900698700
6619,5,ISIP_5,10,9999,9999,9999,1901198392
6619,5,ISIP_5,11,9999,9999,9999,1901698164
6619,5,ISIP_5,12,9999,9999,9999,1902198836
6619,5,ISIP_5,13,9999,9999,9999,1902698600
6619,5,ISIP_5,14,9999,9999,9999,1903198300
6619,5,ISIP_5,15,9999,9999,9999,1903699044
6619,5,ISIP_5,16,9999,9999,9999,1904198716
6619,5,ISIP_5,17,9999,9999,9999,1904698484
6619,5,ISIP_5,18,9999,9999,9999,1905198180
6619,5,ISIP_5,19,9999,9999,9999,1905698920
6619,5,ISIP_5,20,9999,9999,9999,1906198620
6619,5,ISIP_5,21,9999,9999,9999,1906698316
6619,5,ISIP_5,22,9999,9999,9999,1907199048
6619,5,ISIP_5,23,9999,9999,9999,1907698744
6619,5,ISIP_5,24,9999,9999,9999,1908198516
6619,5,ISIP_5,25,9999,9999,9999,1908698208
6619,5,ISIP_5,26,9999,9999,9999,1909198952
6619,5,ISIP_5,27,9999,9999,9999,1909698652
6619,5,ISIP_5,28,9999,9999,9999,1910198388
6619,5,ISIP_5,29,9999,9999,9999,1910699056
6619,5,ISIP_5,30,9999,9999,9999,1911198776
6619,5,ISIP_5,31,9999,9999,9999,1911698528
6619,5,ISIP_5,32,9999,9999,9999,1912198216
6619,5,ISIP_5,33,9999,9999,9999,1912698956
6619,5,ISIP_5,34,9999,9999,9999,1913198660
6619,5,ISIP_5,35,9999,9999,9999,1913698420
6619,5,ISIP_5,36,9999,9999,9999,1914198116
6619,5,ISIP_5,37,9999,9999,9999,1914698824
6619,5,ISIP_5,38,9999,9999,9999,1915198556
6619,5,ISIP_5,39,9999,9999,9999,1915698256
6619,5,ISIP_5,40,9999,9999,9999,1916198992
6619,5,ISIP_5,41,9999,9999,9999,1916698688
6619,5,ISIP_5,42,9999,9999,9999,1917198452
6619,5,ISIP_5,43,9999,9999,9999,1917698136
6619,5,ISIP_5,44,9999,9999,9999,1918198880
6619,5,ISIP_5,45,9999,9999,9999,1918698572
6619,5,ISIP_5,46,9999,9999,9999,1919198264
6619,5,ISIP_5,47,9999,9999,9999,1919698996
6619,5,ISIP_5,48,9999,9999,9999,1920198760
6619,5,ISIP_5,49,9999,9999,9999,1920698424
6619,5,ISIP_5,50,9999,9999,9999,1921198192
6619,5,ISIP_5,51,9999,9999,9999,1921698928
6619,5,ISIP_5,52,9999,9999,9999,1922198596
6619,5,ISIP_5,53,9999,9999,9999,1922698360
6619,5,ISIP_5,54,9999,9999,9999,1923199096
6619,5,ISIP_5,55,9999,9999,9999,1923698788
6619,5,ISIP_5,56,9999,9999,9999,1924198480
6619,5,ISIP_5,57,9999,9999,9999,1924698172
6619,5,ISIP_5,58,9999,9999,9999,1925198908
6619,5,ISIP_5,59,9999,9999,9999,1925698672
6619,5,ISIP_5,60,9999,9999,9999,1926198364
6619,5,ISIP_5,61,9999,9999,9999,1926699104
6619,5,ISIP_5,62,9999,9999,9999,1927198792
6619,5,ISIP_5,63,9999,9999,9999,1927698484
6619,5,ISIP_5,64,9999,9999,9999,1928198248
6619,5,ISIP_5,65,9999,9999,9999,1928698972
6619,5,ISIP_5,66,9999,9999,9999,1929198660
6619,5,ISIP_5,67,9999,9999,9999,1929698352
6619,5,ISIP_5,68,9999,9999,9999,1930198116
6619,5,ISIP_5,69,9999,9999,9999,1930698856
6619,5,ISIP_5,70,9999,9999,9999,1931198520
6619,5,ISIP_5,71,9999,9999,9999,1931698288
6619,5,ISIP_5,72,9999,9999,9999,1932199024
6619,5,ISIP_5,73,9999,9999,9999,1932698716
6619,5,ISIP_5,74,9999,9999,9999,1933198408
6619,5,ISIP_5,75,9999,9999,9999,1933698096
6619,5,ISIP_5,76,9999,9999,9999,1934198836
6619,5,ISIP_5,77,9999,9999,9999,1934698600
6619,5,ISIP_5,78,9999,9999,9999,1935198292
6619,5,ISIP_5,79,9999,9999,9999,1935699028
6619,5,ISIP_5,80,9999,9999,9999,1936198720
6619,5,ISIP_5,81,9999,9999,9999,1936698484
6619,5,ISIP_5,82,9999,9999,9999,1937198172
6619,5,ISIP_5,83,9999,9999,9999,1937698908
6619,5,ISIP_5,84,9999,9999,9999,1938198600
6619,5,ISIP_5,85,9999,9999,9999,1938698292
6619,5,ISIP_5,86,9999,9999,9999,1939199028
6619,5,ISIP_5,87,9999,9999,9999,1939698792
6619,5,ISIP_5,88,9999,9999,9999,1940198484
6619,5,ISIP_5,89,9999,9999,9999,1940698176
6619,5,ISIP_5,90,9999,9999,9999,1941198912
6619,5,ISIP_5,91,9999,9999,9999,1941698676
6619,5,ISIP_5,92,9999,9999,9999,1942198344
6619,5,ISIP_5,93,9999,9999,9999,1942699080
6619,5,ISIP_5,94,9999,9999,9999,1943198772
6619,5,ISIP_5,95,9999,9999,9999,1943698536
6619,5,ISIP_5,96,9999,9999,9999,1944198228
6619,5,ISIP_5,97,9999,9999,9999,1944698964
6619,5,ISIP_5,98,9999,9999,9999,1945198656
6619,5,ISIP_5,99,9999,9999,9999,1945698420
6619,5,ISIP_5,100,9999,9999,9999,1946198112
6619,5,ISIP_5,101,9999,9999,9999,1946698852
6619,5,ISIP_5,102,9999,9999,9999,1947198544
6619,5,ISIP_5,103,9999,9999,9999,1947698232
6619,5,ISIP_5,104,9999,9999,9999,1948198972
6619,5,ISIP_5,105,9999,9999,9999,1948698736
6619,5,ISIP_5,106,9999,9999,9999,1949198424
6619,5,ISIP_5,107,9999,9999,9999,1949698116
6619,5,ISIP_5,108,9999,9999,9999,1950198852
6619,5,ISIP_5,109,9999,9999,9999,1950698544
6619,5,ISIP_5,110,9999,9999,9999,1951198308
6619,5,ISIP_5,111,9999,9999,9999,1951699048
6619,5,ISIP_5,112,9999,9999,9999,1952198736
6619,5,ISIP_5,113,9999,9999,9999,1952698476
6619,5,ISIP_5,114,9999,9999,9999,1953198168
6619,5,ISIP_5,115,9999,9999,9999,1953698904
6619,5,ISIP_5,116,9999,9999,9999,1954198596
6619,5,ISIP_5,117,9999,9999,9999,1954698360
6619,5,ISIP_5,118,9999,9999,9999,1955199024
6619,5,ISIP_5,119,9999,9999,9999,1955698788
6619,5,ISIP_5,120,9999,9999,9999,1956198480
6619,5,ISIP_5,121,9999,9999,9999,1956698172
6619,5,ISIP_5,122,9999,9999,9999,1957198908
6619,5,ISIP_5,123,9999,9999,9999,1957698672
6619,5,ISIP_5,124,9999,9999,9999,1958198364
6619,5,ISIP_5,125,9999,9999,9999,1958699100
6619,5,ISIP_5,126,9999,9999,9999,1959198792
6619,5,ISIP_5,127,9999,9999,9999,1959698532
6619,5,ISIP_5,128,9999,9999,9999,1960198224
6619,5,ISIP_5,129,9999,9999,9999,1960698960
6619,5,ISIP_5,130,9999,9999,9999,1961198652
6619,5,ISIP_5,131,9999,9999,9999,1961698416
6619,5,ISIP_5,132,9999,9999,9999,1962198108
6619,5,ISIP_5,133,9999,9999,9999,1962698844
6619,5,ISIP_5,134,9999,9999,9999,1963198584
6619,5,ISIP_5,135,9999,9999,9999,1963698276
6619,5,ISIP_5,136,9999,9999,9999,1964199008
6619,5,ISIP_5,137,9999,9999,9999,1964698696
6619,5,ISIP_5,138,9999,9999,9999,1965198388
6619,5,ISIP_5,139,9999,9999,9999,1965698152
6619,5,ISIP_5,140,9999,9999,9999,1966198888
6619,5,ISIP_5,141,9999,9999,9999,1966698580
6619,5,ISIP_5,142,9999,9999,9999,1967198328
6619,5,ISIP_5,143,9999,9999,9999,1967698992
6619,5,ISIP_5,144,9999,9999,9999,1968198760
6619,5,ISIP_5,145,9999,9999,9999,1968698448
6619,5,ISIP_5,146,9999,9999,9999,1969198140
6619,5,ISIP_5,147,9999,9999,9999,1969698876
6619,5,ISIP_5,148,9999,9999,9999,1970198640
6619,5,ISIP_5,149,9999,9999,9999,1970698332
6619,5,ISIP_5,150,9999,9999,9999,1971199068
6619,5,ISIP_5,151,9999,9999,9999,1971698760
6619,5,ISIP_5,152,9999,9999,9999,1972198452
6619,5,ISIP_5,153,9999,9999,9999,1972698216
6619,5,ISIP_5,154,9999,9999,9999,1973198952
6619,5,ISIP_5,155,9999,9999,9999,1973698644
6619,5,ISIP_5,156,9999,9999,9999,1974198384
6619,5,ISIP_5,157,9999,9999,9999,1974699124
6619,5,ISIP_5,158,9999,9999,9999,1975198812
6619,5,ISIP_5,159,9999,9999,9999,1975698504
6620,11,Pattern_Practice,0,5,42,127,2057328960
6620,11,Pattern_Practice,1,5,42,127,2057828676
6620,11,Pattern_Practice,2,5,42,127,2058328392
6620,11,Pattern_Practice,3,5,42,127,2058829156
6620,11,Pattern_Practice,4,5,42,127,2059329020
6620,11,Pattern_Practice,5,5,42,127,2059828588
6620,11,Pattern_Practice,6,5,42,127,2060329352
6620,11,Pattern_Practice,7,5,42,127,2060829140
6620,11,Pattern_Practice,8,5,42,127,2061328708
6620,11,Pattern_Practice,9,1,48,99,2061352100
6620,11,Pattern_Practice,10,1,48,66,2061708664
6620,11,Pattern_Practice,11,1,48,65,2061803884
6620,11,Pattern_Practice,12,5,42,127,2061828452
6620,11,Pattern_Practice,13,1,48,35,2061855488
6620,11,Pattern_Practice,14,1,48,55,2062053784
6620,11,Pattern_Practice,15,5,42,127,2062329228
6620,11,Pattern_Practice,16,1,48,59,2062350072
6620,11,Pattern_Practice,17,5,42,127,2062829148
6620,11,Pattern_Practice,18,1,48,80,2062876544
6620,11,Pattern_Practice,19,1,48,48,2063312644
6620,11,Pattern_Practice,20,5,42,127,2063328540
6620,11,Pattern_Practice,21,1,48,48,2063409128
6620,11,Pattern_Practice,22,5,42,127,2063829340
6620,11,Pattern_Practice,23,5,42,127,2064329280
6620,11,Pattern_Practice,24,5,42,127,2064828772
6620,11,Pattern_Practice,25,5,42,127,2065328464
6620,11,Pattern_Practice,26,1,38,72,2065337868
6620,11,Pattern_Practice,27,1,38,49,2065600056
6620,11,Pattern_Practice,28,5,42,127,2065829256
6620,11,Pattern_Practice,29,1,38,63,2065876160
6620,11,Pattern_Practice,30,1,38,58,2066117012
6620,11,Pattern_Practice,31,1,38,43,2066290748
6620,11,Pattern_Practice,32,5,42,127,2066329148
6620,11,Pattern_Practice,33,1,38,47,2066536852
6620,11,Pattern_Practice,34,1,38,41,2066671864
6620,11,Pattern_Practice,35,5,42,127,2066828584
6620,11,Pattern_Practice,36,1,38,85,2066948636
6620,11,Pattern_Practice,37,1,38,57,2067201976
6620,11,Pattern_Practice,38,5,42,127,2067329376
6620,11,Pattern_Practice,39,1,38,44,2067344392
6620,11,Pattern_Practice,40,1,38,65,2067464296
6620,11,Pattern_Practice,41,1,38,51,2067723472
6620,11,Pattern_Practice,42,5,42,127,2067829252
6620,11,Pattern_Practice,43,1,38,93,2067989992
6620,11,Pattern_Practice,44,1,38,57,2068245428
6620,11,Pattern_Practice,45,5,42,127,2068329012
6620,11,Pattern_Practice,46,1,38,49,2068375728
6620,11,Pattern_Practice,47,1,38,53,2068636620
6620,11,Pattern_Practice,48,1,38,50,2068762208
6620,11,Pattern_Practice,49,5,42,127,2068828512
6620,11,Pattern_Practice,50,1,38,66,2069014448
6620,11,Pattern_Practice,51,1,38,65,2069276316
6620,11,Pattern_Practice,52,5,42,127,2069329308
6620,11,Pattern_Practice,53,1,38,43,2069385740
6620,11,Pattern_Practice,54,1,38,58,2069529056
6620,11,Pattern_Practice,55,1,38,50,2069792876
6620,11,Pattern_Practice,56,5,42,127,2069829180
6620,11,Pattern_Practice,57,1,38,82,2070074880
6620,11,Pattern_Practice,58,5,42,127,2070328636
6620,11,Pattern_Practice,59,1,38,60,2070332580
6620,11,Pattern_Practice,60,1,38,40,2070473648
6620,11,Pattern_Practice,61,1,38,51,2070716900
6620,11,Pattern_Practice,62,5,42,127,2070829336
6620,11,Pattern_Practice,63,1,38,45,2070848312
6620,11,Pattern_Practice,64,1,38,95,2071095972
6620,11,Pattern_Practice,65,5,42,127,2071329160
6620,11,Pattern_Practice,66,1,38,64,2071370128
6620,11,Pattern_Practice,67,1,38,54,2071470112
6620,11,Pattern_Practice,68,1,48,64,2071624568
6620,11,Pattern_Practice,69,1,48,35,2071767436
6620,11,Pattern_Practice,70,5,42,127,2071829104
6620,11,Pattern_Practice,71,1,48,65,2071868708
6620,11,Pattern_Practice,72,1,48,51,2071996992
6620,11,Pattern_Practice,73,1,48,72,2072127716
6620,11,Pattern_Practice,74,1,48,52,2072262128
6620,11,Pattern_Practice,75,5,42,127,2072328508
6620,11,Pattern_Practice,76,1,48,74,2072384048
6620,11,Pattern_Practice,77,1,38,54,2072568952
6620,11,Pattern_Practice,78,1,38,96,2072690544
6620,11,Pattern_Practice,79,5,42,127,2072829192
6620,11,Pattern_Practice,80,1,38,32,2072948996
6620,11,Pattern_Practice,81,1,38,72,2073072940
6620,11,Pattern_Practice,82,1,38,37,2073307284
6620,11,Pattern_Practice,83,5,42,127,2073329156
6620,11,Pattern_Practice,84,1,38,59,2073407880
6620,11,Pattern_Practice,85,1,38,48,2073552916
6620,11,Pattern_Practice,86,1,38,72,2073693664
6620,11,Pattern_Practice,87,5,42,127,2073828640
6620,11,Pattern_Practice,88,1,38,56,2073959664
6620,11,Pattern_Practice,89,1,38,41,2074250776
6620,11,Pattern_Practice,90,1,38,84,2074277832
6620,11,Pattern_Practice,91,5,42,127,2074328308
6620,11,Pattern_Practice,92,1,38,46,2074553256
6620,11,Pattern_Practice,93,1,38,43,2074662992
6620,11,Pattern_Practice,94,1,38,67,2074811016
6620,11,Pattern_Practice,95,5,42,127,2074829152
6620,11,Pattern_Practice,96,1,38,53,2075254816
6620,11,Pattern_Practice,97,1,38,31,2075320088
6620,11,Pattern_Practice,98,5,42,127,2075329124
6620,11,Pattern_Practice,99,1,38,59,2075568664
6620,11,Pattern_Practice,100,1,38,38,2075708088
6620,11,Pattern_Practice,101,5,42,127,2075828532
6620,11,Pattern_Practice,102,1,38,74,2075999744
6620,11,Pattern_Practice,103,1,38,67,2076262516
6620,11,Pattern_Practice,104,5,42,127,2076329268
6620,11,Pattern_Practice,105,1,38,83,2076560152
6620,11,Pattern_Practice,106,1,38,45,2076609752
6620,11,Pattern_Practice,107,5,42,127,2076829148
6620,11,Pattern_Practice,108,1,38,68,2076846256
6620,11,Pattern_Practice,109,1,38,68,2077017248
6620,11,Pattern_Practice,110,1,38,58,2077161156
6620,11,Pattern_Practice,111,5,42,127,2077328948
6620,11,Pattern_Practice,112,1,38,69,2077436436
6620,11,Pattern_Practice,113,1,38,58,2077592068
6620,11,Pattern_Practice,114,5,42,127,2077828472
6620,11,Pattern_Practice,115,1,38,73,2077874896
6620,11,Pattern_Practice,116,1,38,45,2078063092
6620,11,Pattern_Practice,117,5,42,127,2078329116
6620,11,Pattern_Practice,118,1,38,76,2078331936
6620,11,Pattern_Practice,119,1,38,50,2078609136
6620,11,Pattern_Practice,120,5,42,127,2078829012
6620,11,Pattern_Practice,121,1,38,60,2078909872
6620,11,Pattern_Practice,122,1,38,76,2078936328
6620,11,Pattern_Practice,123,1,38,59,2079207024
6620,11,Pattern_Practice,124,5,42,127,2079328664
6620,11,Pattern_Practice,125,1,38,46,2079342328
6620,11,Pattern_Practice,126,1,38,68,2079473904
6620,11,Pattern_Practice,127,1,38,51,2079762628
6620,11,Pattern_Practice,128,5,42,127,2079829376
6620,11,Pattern_Practice,129,1,38,90,2079919620
6620,11,Pattern_Practice,130,1,38,48,2080156280
6620,11,Pattern_Practice,131,1,38,67,2080269004
6620,11,Pattern_Practice,132,5,42,127,2080329028
6620,11,Pattern_Practice,133,1,48,82,2080578092
6620,11,Pattern_Practice,134,1,48,55,2080682784
6620,11,Pattern_Practice,135,5,42,127,2080828912
6620,11,Pattern_Practice,136,1,48,72,2080836292
6620,11,Pattern_Practice,137,1,38,54,2080996136
6620,11,Pattern_Practice,138,1,38,91,2081154244
6620,11,Pattern_Practice,139,5,42,127,2081328488
6620,11,Pattern_Practice,140,1,38,34,2081444476
6620,11,Pattern_Practice,141,1,38,92,2081574028
6620,11,Pattern_Practice,142,1,38,51,2081797004
6620,11,Pattern_Practice,143,5,42,127,2081829276
6620,11,Pattern_Practice,144,1,48,92,2081941356
6620,11,Pattern_Practice,145,1,48,60,2082239380
6620,11,Pattern_Practice,146,5,42,127,2082328872
6620,11,Pattern_Practice,147,1,48,103,2082510992
6620,11,Pattern_Practice,148,1,38,60,2082784384
6620,11,Pattern_Practice,149,5,42,127,2082828768
6620,11,Pattern_Practice,150,1,38,67,2083062424
6620,11,Pattern_Practice,151,5,42,127,2083329420
6620,11,Pattern_Practice,152,1,38,85,2083362680
6620,11,Pattern_Practice,153,1,38,47,2083411728
6620,11,Pattern_Practice,154,1,38,68,2083652956
6620,11,Pattern_Practice,155,1,38,53,2083794180
6620,11,Pattern_Practice,156,5,42,127,2083829140
6620,11,Pattern_Practice,157,1,38,55,2084061896
6620,11,Pattern_Practice,158,1,38,62,2084204068
6620,11,Pattern_Practice,159,5,42,127,2084328800
6620,11,Pattern_Practice,160,1,38,67,2084502980
6620,11,Pattern_Practice,161,1,38,62,2084813944
6620,11,Pattern_Practice,162,5,42,127,2084828636
6620,11,Pattern_Practice,163,1,38,52,2084933988
6620,11,Pattern_Practice,164,1,38,70,2085090544
6620,11,Pattern_Practice,165,5,42,127,2085329340
6620,11,Pattern_Practice,166,1,38,54,2085370008
6620,11,Pattern_Practice,167,1,38,91,2085656112
6620,11,Pattern_Practice,168,5,42,127,2085829088
6620,11,Pattern_Practice,169,1,38,65,2085953904
6620,11,Pattern_Practice,170,1,38,57,2086075976
6620,11,Pattern_Practice,171,5,42,127,2086328660
6620,11,Pattern_Practice,172,1,38,67,2086362020
6620,11,Pattern_Practice,173,1,38,58,2086498132
6620,11,Pattern_Practice,174,1,38,34,2086547176
6620,11,Pattern_Practice,175,1,48,87,2086799624
6620,11,Pattern_Practice,176,5,42,127,2086829276
6620,11,Pattern_Practice,177,1,48,72,2087069440
6620,11,Pattern_Practice,178,5,42,127,2087329032
6620,11,Pattern_Practice,179,1,38,68,2087361196
6620,11,Pattern_Practice,180,1,38,29,2087423112
6620,11,Pattern_Practice,181,1,38,42,2087678916
6620,11,Pattern_Practice,182,5,42,127,2087828832
6620,11,Pattern_Practice,183,1,38,41,2087947092
6620,11,Pattern_Practice,184,1,38,60,2088225192
6620,11,Pattern_Practice,185,1,38,24,2088293612
6620,11,Pattern_Practice,186,5,42,127,2088328724
6620,11,Pattern_Practice,187,1,38,85,2088367284
6620,11,Pattern_Practice,188,1,38,50,2088639948
6620,11,Pattern_Practice,189,1,38,71,2088746956
6620,11,Pattern_Practice,190,5,42,127,2088829344
6620,11,Pattern_Practice,191,1,38,59,2089002344
6620,11,Pattern_Practice,192,1,38,85,2089310808
6620,11,Pattern_Practice,193,5,42,127,2089328944
6620,11,Pattern_Practice,194,1,38,69,2089605084
6620,11,Pattern_Practice,195,5,42,127,2089828624
6620,11,Pattern_Practice,196,1,38,67,2089888512
6620,11,Pattern_Practice,197,1,38,91,2090173748
6620,11,Pattern_Practice,198,1,38,47,2090226080
6620,11,Pattern_Practice,199,5,42,127,2090328572
6620,11,Pattern_Practice,200,1,38,57,2090456184
6620,11,Pattern_Practice,201,1,38,51,2090603212
6620,11,Pattern_Practice,202,5,42,127,2090829292
6620,11,Pattern_Practice,203,1,38,66,2090878336
6620,11,Pattern_Practice,204,1,38,56,2091017984
6620,11,Pattern_Practice,205,1,48,80,2091284268
6620,11,Pattern_Practice,206,5,42,127,2091328884
6620,11,Pattern_Practice,207,1,48,65,2091404616
6620,11,Pattern_Practice,208,1,48,57,2091572468
6620,11,Pattern_Practice,209,1,48,58,2091636468
6620,11,Pattern_Practice,210,5,42,127,2091828740
6620,11,Pattern_Practice,211,1,48,57,2091829704
6620,11,Pattern_Practice,212,1,38,41,2092103080
6620,11,Pattern_Practice,213,5,42,127,2092329312
6620,11,Pattern_Practice,214,1,38,92,2092419200
6620,11,Pattern_Practice,215,1,38,67,2092698120
6620,11,Pattern_Practice,216,5,42,127,2092828984
6620,11,Pattern_Practice,217,1,38,60,2092866132
6620,11,Pattern_Practice,218,1,38,73,2093117460
6620,11,Pattern_Practice,219,1,38,60,2093283136
6620,11,Pattern_Practice,220,5,42,127,2093328724
6620,11,Pattern_Practice,221,1,38,93,2093555568
6620,11,Pattern_Practice,222,5,42,127,2093828476
6620,11,Pattern_Practice,223,1,38,72,2093830268
6620,11,Pattern_Practice,224,1,38,73,2094139692
6620,11,Pattern_Practice,225,5,42,127,2094329048
6620,11,Pattern_Practice,226,1,38,71,2094427460
6620,11,Pattern_Practice,227,1,38,80,2094747676
6620,11,Pattern_Practice,228,5,42,127,2094828960
6620,11,Pattern_Practice,229,1,38,69,2095051616
6620,11,Pattern_Practice,230,1,38,81,2095235600
6620,11,Pattern_Practice,231,5,42,127,2095328708
6620,11,Pattern_Practice,232,1,38,60,2095518652
6620,11,Pattern_Practice,233,1,38,79,2095644772
6620,11,Pattern_Practice,234,5,42,127,2095829632
6620,11,Pattern_Practice,235,1,38,75,2095943528
6620,11,Pattern_Practice,236,1,48,127,2096245564
6620,11,Pattern_Practice,237,5,42,127,2096329024
6620,11,Pattern_Practice,238,1,38,71,2096566240
6620,11,Pattern_Practice,239,5,42,127,2096828628
6620,11,Pattern_Practice,240,1,38,81,2096833992
6620,11,Pattern_Practice,241,1,38,76,2097140892
6620,11,Pattern_Practice,242,1,38,119,2097155900
6620,11,Pattern_Practice,0,9999,9999,9999,2057326672
6620,11,Pattern_Practice,1,9999,9999,9999,2057826388
6620,11,Pattern_Practice,2,9999,9999,9999,2058326104
6620,11,Pattern_Practice,3,9999,9999,9999,2058826868
6620,11,Pattern_Practice,4,9999,9999,9999,2059326584
6620,11,Pattern_Practice,5,9999,9999,9999,2059826228
6620,11,Pattern_Practice,6,9999,9999,9999,2060326992
6620,11,Pattern_Practice,7,9999,9999,9999,2060826708
6620,11,Pattern_Practice,8,9999,9999,9999,2061326424
6620,11,Pattern_Practice,9,9999,9999,9999,2061826164
6620,11,Pattern_Practice,10,9999,9999,9999,2062326868
6620,11,Pattern_Practice,11,9999,9999,9999,2062826564
6620,11,Pattern_Practice,12,9999,9999,9999,2063326324
6620,11,Pattern_Practice,13,9999,9999,9999,2063827052
6620,11,Pattern_Practice,14,9999,9999,9999,2064326768
6620,11,Pattern_Practice,15,9999,9999,9999,2064826484
6620,11,Pattern_Practice,16,9999,9999,9999,2065326176
6620,11,Pattern_Practice,17,9999,9999,9999,2065826896
6620,11,Pattern_Practice,18,9999,9999,9999,2066326640
6620,11,Pattern_Practice,19,9999,9999,9999,2066826296
6620,11,Pattern_Practice,20,9999,9999,9999,2067327088
6620,11,Pattern_Practice,21,9999,9999,9999,2067826740
6620,11,Pattern_Practice,22,9999,9999,9999,2068326504
6620,11,Pattern_Practice,23,9999,9999,9999,2068826228
6620,11,Pattern_Practice,24,9999,9999,9999,2069326948
6620,11,Pattern_Practice,25,9999,9999,9999,2069826672
6620,11,Pattern_Practice,26,9999,9999,9999,2070326352
6620,11,Pattern_Practice,27,9999,9999,9999,2070827124
6620,11,Pattern_Practice,28,9999,9999,9999,2071326796
6620,11,Pattern_Practice,29,9999,9999,9999,2071826520
6620,11,Pattern_Practice,30,9999,9999,9999,2072326224
6620,11,Pattern_Practice,31,9999,9999,9999,2072826980
6620,11,Pattern_Practice,32,9999,9999,9999,2073326644
6620,11,Pattern_Practice,33,9999,9999,9999,2073826356
6620,11,Pattern_Practice,34,9999,9999,9999,2074326096
6620,11,Pattern_Practice,35,9999,9999,9999,2074826868
6620,11,Pattern_Practice,36,9999,9999,9999,2075326540
6620,11,Pattern_Practice,37,9999,9999,9999,2075826248
6620,11,Pattern_Practice,38,9999,9999,9999,2076326980
6620,11,Pattern_Practice,39,9999,9999,9999,2076826712
6620,11,Pattern_Practice,40,9999,9999,9999,2077326436
6620,11,Pattern_Practice,41,9999,9999,9999,2077826112
6620,11,Pattern_Practice,42,9999,9999,9999,2078326904
6620,11,Pattern_Practice,43,9999,9999,9999,2078826576
6620,11,Pattern_Practice,44,9999,9999,9999,2079326300
6620,11,Pattern_Practice,45,9999,9999,9999,2079827016
6620,11,Pattern_Practice,46,9999,9999,9999,2080326744
6620,11,Pattern_Practice,47,9999,9999,9999,2080826476
6620,11,Pattern_Practice,48,9999,9999,9999,2081326200
6620,11,Pattern_Practice,49,9999,9999,9999,2081826916
6620,11,Pattern_Practice,50,9999,9999,9999,2082326588
6620,11,Pattern_Practice,51,9999,9999,9999,2082826336
6620,11,Pattern_Practice,52,9999,9999,9999,2083327060
6620,11,Pattern_Practice,53,9999,9999,9999,2083826780
6620,11,Pattern_Practice,54,9999,9999,9999,2084326512
6620,11,Pattern_Practice,55,9999,9999,9999,2084826200
6620,11,Pattern_Practice,56,9999,9999,9999,2085326904
6620,11,Pattern_Practice,57,9999,9999,9999,2085826652
6620,11,Pattern_Practice,58,9999,9999,9999,2086326376
6620,11,Pattern_Practice,59,9999,9999,9999,2086827064
6620,11,Pattern_Practice,60,9999,9999,9999,2087326820
6620,11,Pattern_Practice,61,9999,9999,9999,2087826548
6620,11,Pattern_Practice,62,9999,9999,9999,2088326216
6620,11,Pattern_Practice,63,9999,9999,9999,2088826984
6620,11,Pattern_Practice,64,9999,9999,9999,2089326660
6620,11,Pattern_Practice,65,9999,9999,9999,2089826412
6620,11,Pattern_Practice,66,9999,9999,9999,2090326136
6620,11,Pattern_Practice,67,9999,9999,9999,2090826856
6620,11,Pattern_Practice,68,9999,9999,9999,2091326520
6620,11,Pattern_Practice,69,9999,9999,9999,2091826232
6620,11,Pattern_Practice,70,9999,9999,9999,2092327024
6620,11,Pattern_Practice,71,9999,9999,9999,2092826696
6620,11,Pattern_Practice,72,9999,9999,9999,2093326436
6620,11,Pattern_Practice,73,9999,9999,9999,2093826116
6620,11,Pattern_Practice,74,9999,9999,9999,2094326836
6620,11,Pattern_Practice,75,9999,9999,9999,2094826600
6620,11,Pattern_Practice,76,9999,9999,9999,2095326272
6620,11,Pattern_Practice,77,9999,9999,9999,2095827052
6620,11,Pattern_Practice,78,9999,9999,9999,2096326740
6620,11,Pattern_Practice,79,9999,9999,9999,2096826416
6621,13,Improv_Metronome,0,5,42,127,2129298004
6621,13,Improv_Metronome,1,5,42,127,2129797420
6621,13,Improv_Metronome,2,5,42,127,2130298260
6621,13,Improv_Metronome,3,5,42,127,2130798124
6621,13,Improv_Metronome,4,5,42,127,2131297840
6621,13,Improv_Metronome,5,5,42,127,2131798232
6621,13,Improv_Metronome,6,5,42,127,2132298172
6621,13,Improv_Metronome,7,5,42,127,2132797960
6621,13,Improv_Metronome,8,1,48,80,2133256576
6621,13,Improv_Metronome,9,5,42,127,2133297376
6621,13,Improv_Metronome,10,1,48,81,2133797444
6621,13,Improv_Metronome,11,5,42,127,2133799088
6621,13,Improv_Metronome,12,5,42,127,2134298040
6621,13,Improv_Metronome,13,1,48,64,2134565224
6621,13,Improv_Metronome,14,5,42,127,2134797960
6621,13,Improv_Metronome,15,1,48,67,2134841992
6621,13,Improv_Metronome,16,1,48,66,2135064972
6621,13,Improv_Metronome,17,1,48,71,2135282108
6621,13,Improv_Metronome,18,5,42,127,2135298596
6621,13,Improv_Metronome,19,1,48,39,2135328556
6621,13,Improv_Metronome,20,1,48,77,2135786120
6621,13,Improv_Metronome,21,5,42,127,2135798052
6621,13,Improv_Metronome,22,5,42,127,2136297976
6621,13,Improv_Metronome,23,1,48,65,2136500052
6621,13,Improv_Metronome,24,1,48,69,2136764720
6621,13,Improv_Metronome,25,5,42,127,2136797736
6621,13,Improv_Metronome,26,1,48,46,2137022868
6621,13,Improv_Metronome,27,1,48,67,2137256212
6621,13,Improv_Metronome,28,5,42,127,2137298156
6621,13,Improv_Metronome,29,1,48,37,2137308516
6621,13,Improv_Metronome,30,1,48,74,2137767328
6621,13,Improv_Metronome,31,5,42,127,2137798052
6621,13,Improv_Metronome,32,5,42,127,2138297976
6621,13,Improv_Metronome,33,1,48,61,2138514496
6621,13,Improv_Metronome,34,1,48,90,2138782272
6621,13,Improv_Metronome,35,5,42,127,2138797416
6621,13,Improv_Metronome,36,1,38,41,2139067452
6621,13,Improv_Metronome,37,5,42,127,2139298144
6621,13,Improv_Metronome,38,1,38,105,2139320880
6621,13,Improv_Metronome,39,1,38,60,2139440984
6621,13,Improv_Metronome,40,1,38,70,2139577500
6621,13,Improv_Metronome,41,1,38,55,2139696776
6621,13,Improv_Metronome,42,5,42,127,2139797920
6621,13,Improv_Metronome,43,1,38,80,2139831584
6621,13,Improv_Metronome,44,1,38,56,2139922360
6621,13,Improv_Metronome,45,1,38,85,2140078892
6621,13,Improv_Metronome,46,1,38,58,2140182720
6621,13,Improv_Metronome,47,5,42,127,2140297700
6621,13,Improv_Metronome,48,1,38,91,2140327076
6621,13,Improv_Metronome,49,1,38,60,2140429624
6621,13,Improv_Metronome,50,1,38,93,2140575980
6621,13,Improv_Metronome,51,1,38,61,2140688628
6621,13,Improv_Metronome,52,5,42,127,2140798224
6621,13,Improv_Metronome,53,1,38,107,2140829168
6621,13,Improv_Metronome,54,1,38,78,2141091484
6621,13,Improv_Metronome,55,5,42,127,2141297972
6621,13,Improv_Metronome,56,1,48,63,2141376884
6621,13,Improv_Metronome,57,5,42,127,2141797592
6621,13,Improv_Metronome,58,1,48,94,2141838408
6621,13,Improv_Metronome,59,5,42,127,2142297584
6621,13,Improv_Metronome,60,1,48,81,2142594832
6621,13,Improv_Metronome,61,5,42,127,2142798248
6621,13,Improv_Metronome,62,1,48,76,2142817972
6621,13,Improv_Metronome,63,1,48,57,2143056060
6621,13,Improv_Metronome,64,5,42,127,2143297996
6621,13,Improv_Metronome,65,1,48,65,2143300668
6621,13,Improv_Metronome,66,1,48,100,2143773720
6621,13,Improv_Metronome,67,5,42,127,2143797612
6621,13,Improv_Metronome,68,5,42,127,2144298584
6621,13,Improv_Metronome,69,1,48,74,2144456184
6621,13,Improv_Metronome,70,1,48,86,2144726584
6621,13,Improv_Metronome,71,5,42,127,2144798200
6621,13,Improv_Metronome,72,1,48,73,2144970444
6621,13,Improv_Metronome,73,1,48,68,2145261408
6621,13,Improv_Metronome,74,5,42,127,2145297648
6621,13,Improv_Metronome,75,1,48,93,2145763876
6621,13,Improv_Metronome,76,5,42,127,2145797568
6621,13,Improv_Metronome,77,5,42,127,2146298164
6621,13,Improv_Metronome,78,1,48,107,2146505880
6621,13,Improv_Metronome,79,1,48,100,2146767152
6621,13,Improv_Metronome,80,5,42,127,2146797928
6621,13,Improv_Metronome,81,1,48,77,2147026272
6621,13,Improv_Metronome,82,1,38,94,2147274304
6621,13,Improv_Metronome,83,5,42,127,2147297748
6621,13,Improv_Metronome,84,1,38,114,2147376328
6621,13,Improv_Metronome,85,1,38,77,2147517548
6621,13,Improv_Metronome,86,1,38,100,2147636224
6621,13,Improv_Metronome,87,1,38,76,2147788896
6621,13,Improv_Metronome,88,5,42,127,2147798352
6621,13,Improv_Metronome,89,1,48,52,2147959648
6621,13,Improv_Metronome,90,1,38,20,2147968088
6621,13,Improv_Metronome,91,1,48,65,2148131788
6621,13,Improv_Metronome,92,5,42,127,2148298036
6621,13,Improv_Metronome,93,1,48,93,2148375952
6621,13,Improv_Metronome,94,1,38,71,2148626456
6621,13,Improv_Metronome,95,1,38,99,2148769740
6621,13,Improv_Metronome,96,5,42,127,2148797776
6621,13,Improv_Metronome,97,1,38,62,2149041580
6621,13,Improv_Metronome,98,1,38,94,2149150036
6621,13,Improv_Metronome,99,5,42,127,2149297484
6621,13,Improv_Metronome,100,1,48,92,2149459272
6621,13,Improv_Metronome,101,1,48,78,2149719200
6621,13,Improv_Metronome,102,5,42,127,2149798216
6621,13,Improv_Metronome,103,1,38,87,2149960140
6621,13,Improv_Metronome,104,1,48,127,2149990336
6621,13,Improv_Metronome,105,1,48,80,2150240824
6621,13,Improv_Metronome,106,5,42,127,2150298004
6621,13,Improv_Metronome,107,1,48,76,2150395896
6621,13,Improv_Metronome,108,1,38,100,2150511892
6621,13,Improv_Metronome,109,1,38,79,2150789764
6621,13,Improv_Metronome,110,5,42,127,2150797804
6621,13,Improv_Metronome,111,1,38,85,2151065864
6621,13,Improv_Metronome,112,5,42,127,2151298676
6621,13,Improv_Metronome,113,1,38,75,2151330744
6621,13,Improv_Metronome,114,1,38,65,2151454016
6621,13,Improv_Metronome,115,1,38,73,2151727100
6621,13,Improv_Metronome,116,5,42,127,2151798120
6621,13,Improv_Metronome,117,1,38,65,2151853140
6621,13,Improv_Metronome,118,1,38,107,2152123108
6621,13,Improv_Metronome,119,5,42,127,2152297708
6621,13,Improv_Metronome,120,1,38,73,2152365824
6621,13,Improv_Metronome,121,1,48,87,2152673044
6621,13,Improv_Metronome,122,5,42,127,2152797676
6621,13,Improv_Metronome,123,1,48,41,2152812768
6621,13,Improv_Metronome,124,1,48,73,2152946956
6621,13,Improv_Metronome,125,1,48,59,2153073940
6621,13,Improv_Metronome,126,1,48,127,2153227652
6621,13,Improv_Metronome,127,5,42,127,2153298516
6621,13,Improv_Metronome,128,1,38,74,2153474356
6621,13,Improv_Metronome,129,1,38,59,2153675484
6621,13,Improv_Metronome,130,5,42,127,2153797876
6621,13,Improv_Metronome,131,1,48,67,2153966848
6621,13,Improv_Metronome,132,5,42,127,2154297648
6621,13,Improv_Metronome,133,1,48,50,2154344444
6621,13,Improv_Metronome,134,1,38,57,2154384292
6621,13,Improv_Metronome,135,5,42,127,2154797520
6621,13,Improv_Metronome,136,1,38,71,2154859500
6621,13,Improv_Metronome,137,1,38,37,2155084716
6621,13,Improv_Metronome,138,5,42,127,2155298460
6621,13,Improv_Metronome,139,1,48,76,2155336508
6621,13,Improv_Metronome,140,1,48,46,2155377400
6621,13,Improv_Metronome,141,5,42,127,2155797908
6621,13,Improv_Metronome,142,1,48,105,2155811124
6621,13,Improv_Metronome,143,5,42,127,2156297528
6621,13,Improv_Metronome,144,1,48,62,2156311340
6621,13,Improv_Metronome,145,1,48,64,2156753796
6621,13,Improv_Metronome,146,5,42,127,2156798488
6621,13,Improv_Metronome,147,1,48,57,2157129676
6621,13,Improv_Metronome,148,1,48,67,2157251300
6621,13,Improv_Metronome,149,5,42,127,2157298084
6621,13,Improv_Metronome,150,1,48,42,2157494568
6621,13,Improv_Metronome,151,1,48,83,2157734496
6621,13,Improv_Metronome,152,5,42,127,2157797836
6621,13,Improv_Metronome,153,1,48,59,2158139872
6621,13,Improv_Metronome,154,1,48,80,2158244640
6621,13,Improv_Metronome,155,5,42,127,2158297580
6621,13,Improv_Metronome,156,1,48,58,2158505628
6621,13,Improv_Metronome,157,1,48,72,2158750220
6621,13,Improv_Metronome,158,5,42,127,2158798152
6621,13,Improv_Metronome,159,1,48,67,2159134500
6621,13,Improv_Metronome,160,1,48,99,2159244280
6621,13,Improv_Metronome,161,5,42,127,2159297748
6621,13,Improv_Metronome,162,1,48,54,2159519408
6621,13,Improv_Metronome,163,1,48,92,2159744184
6621,13,Improv_Metronome,164,5,42,127,2159797860
6621,13,Improv_Metronome,165,1,38,64,2159867388
6621,13,Improv_Metronome,166,1,38,42,2159916804
6621,13,Improv_Metronome,167,1,38,74,2159995768
6621,13,Improv_Metronome,168,1,38,51,2160127268
6621,13,Improv_Metronome,169,1,38,74,2160245128
6621,13,Improv_Metronome,170,5,42,127,2160298564
6621,13,Improv_Metronome,171,1,38,75,2160510080
6621,13,Improv_Metronome,172,1,48,125,2160794764
6621,13,Improv_Metronome,173,5,42,127,2160797940
6621,13,Improv_Metronome,174,1,48,58,2161184136
6621,13,Improv_Metronome,175,5,42,127,2161297772
6621,13,Improv_Metronome,176,1,48,97,2161299332
6621,13,Improv_Metronome,177,1,48,58,2161589316
6621,13,Improv_Metronome,178,5,42,127,2161797420
6621,13,Improv_Metronome,179,1,48,84,2161827464
6621,13,Improv_Metronome,180,1,48,69,2162185920
6621,13,Improv_Metronome,181,1,48,106,2162296772
6621,13,Improv_Metronome,182,5,42,127,2162298576
6621,13,Improv_Metronome,183,1,48,62,2162578236
6621,13,Improv_Metronome,184,5,42,127,2162797812
6621,13,Improv_Metronome,185,1,48,87,2162841620
6621,13,Improv_Metronome,186,1,48,60,2163188480
6621,13,Improv_Metronome,187,5,42,127,2163297632
6621,13,Improv_Metronome,188,1,48,113,2163308980
6621,13,Improv_Metronome,189,1,48,56,2163585064
6621,13,Improv_Metronome,190,5,42,127,2163798576
6621,13,Improv_Metronome,191,1,48,74,2163972632
6621,13,Improv_Metronome,192,1,38,82,2164095872
6621,13,Improv_Metronome,193,5,42,127,2164298396
6621,13,Improv_Metronome,194,1,38,112,2164383796
6621,13,Improv_Metronome,195,1,38,70,2164639452
6621,13,Improv_Metronome,196,5,42,127,2164797844
6621,13,Improv_Metronome,197,1,38,81,2164910912
6621,13,Improv_Metronome,198,5,42,127,2165297540
6621,13,Improv_Metronome,199,1,38,57,2165315096
6621,13,Improv_Metronome,200,1,38,90,2165418964
6621,13,Improv_Metronome,201,1,38,65,2165660488
6621,13,Improv_Metronome,202,5,42,127,2165798240
6621,13,Improv_Metronome,203,1,38,107,2165921256
6621,13,Improv_Metronome,204,5,42,127,2166298080
6621,13,Improv_Metronome,205,1,38,55,2166329772
6621,13,Improv_Metronome,206,1,38,100,2166423024
6621,13,Improv_Metronome,207,1,38,69,2166674648
6621,13,Improv_Metronome,208,5,42,127,2166797584
6621,13,Improv_Metronome,209,1,38,103,2166925392
6621,13,Improv_Metronome,210,1,38,68,2167293124
6621,13,Improv_Metronome,211,5,42,127,2167298764
6621,13,Improv_Metronome,212,1,38,90,2167403748
6621,13,Improv_Metronome,213,1,38,69,2167646840
6621,13,Improv_Metronome,214,5,42,127,2167798272
6621,13,Improv_Metronome,215,1,38,80,2167886212
6621,13,Improv_Metronome,216,1,38,62,2167994524
6621,13,Improv_Metronome,217,1,38,71,2168142600
6621,13,Improv_Metronome,218,1,38,57,2168271700
6621,13,Improv_Metronome,219,5,42,127,2168297696
6621,13,Improv_Metronome,220,1,38,78,2168407088
6621,13,Improv_Metronome,221,1,38,55,2168515468
6621,13,Improv_Metronome,222,1,38,88,2168660556
6621,13,Improv_Metronome,223,1,38,59,2168730244
6621,13,Improv_Metronome,224,5,42,127,2168797400
6621,13,Improv_Metronome,225,1,48,82,2168934840
6621,13,Improv_Metronome,226,1,48,59,2169194164
6621,13,Improv_Metronome,227,5,42,127,2169298252
6621,13,Improv_Metronome,228,1,48,77,2169305112
6621,13,Improv_Metronome,229,1,48,40,2169549180
6621,13,Improv_Metronome,230,1,48,78,2169660756
6621,13,Improv_Metronome,231,1,48,43,2169798500
6621,13,Improv_Metronome,232,5,42,127,2169799540
6621,13,Improv_Metronome,233,1,48,85,2169925840
6621,13,Improv_Metronome,234,1,48,48,2170039388
6621,13,Improv_Metronome,235,1,48,79,2170274080
6621,13,Improv_Metronome,236,5,42,127,2170297624
6621,13,Improv_Metronome,237,1,48,62,2170422428
6621,13,Improv_Metronome,238,1,48,96,2170689452
6621,13,Improv_Metronome,239,5,42,127,2170797408
6621,13,Improv_Metronome,240,1,38,84,2170953064
6621,13,Improv_Metronome,241,1,38,101,2171078728
6621,13,Improv_Metronome,242,1,38,49,2171217676
6621,13,Improv_Metronome,243,5,42,127,2171298268
6621,13,Improv_Metronome,244,1,38,61,2171350616
6621,13,Improv_Metronome,245,1,38,62,2171491440
6621,13,Improv_Metronome,246,1,38,93,2171715308
6621,13,Improv_Metronome,247,5,42,127,2171797996
6621,13,Improv_Metronome,248,1,38,73,2171873528
6621,13,Improv_Metronome,249,1,48,124,2172138088
6621,13,Improv_Metronome,250,1,48,54,2172262536
6621,13,Improv_Metronome,251,5,42,127,2172297572
6621,13,Improv_Metronome,252,1,48,123,2172549024
6621,13,Improv_Metronome,253,1,38,77,2172787408
6621,13,Improv_Metronome,254,5,42,127,2172798288
6621,13,Improv_Metronome,255,1,38,90,2173070312
6621,13,Improv_Metronome,256,5,42,127,2173298120
6621,13,Improv_Metronome,257,1,38,68,2173325324
6621,13,Improv_Metronome,258,1,38,82,2173601476
6621,13,Improv_Metronome,259,5,42,127,2173797644
6621,13,Improv_Metronome,260,1,38,85,2173856260
6621,13,Improv_Metronome,261,1,38,58,2174011244
6621,13,Improv_Metronome,262,1,38,78,2174275432
6621,13,Improv_Metronome,263,5,42,127,2174297460
6621,13,Improv_Metronome,264,1,38,68,2174412780
6621,13,Improv_Metronome,265,1,48,119,2174701808
6621,13,Improv_Metronome,266,5,42,127,2174798240
6621,13,Improv_Metronome,267,1,48,52,2174967356
6621,13,Improv_Metronome,268,1,48,73,2175260720
6621,13,Improv_Metronome,269,5,42,127,2175298000
6621,13,Improv_Metronome,270,1,48,55,2175540852
6621,13,Improv_Metronome,271,5,42,127,2175797608
6621,13,Improv_Metronome,272,1,48,81,2175820692
6621,13,Improv_Metronome,273,1,48,54,2176102612
6621,13,Improv_Metronome,274,1,48,83,2176211964
6621,13,Improv_Metronome,275,5,42,127,2176298244
6621,13,Improv_Metronome,276,1,48,53,2176460020
6621,13,Improv_Metronome,277,1,48,97,2176592612
6621,13,Improv_Metronome,278,5,42,127,2176798272
6621,13,Improv_Metronome,279,1,38,84,2176877616
6621,13,Improv_Metronome,280,1,38,63,2177196108
6621,13,Improv_Metronome,281,5,42,127,2177297648
6621,13,Improv_Metronome,282,1,38,68,2177454180
6621,13,Improv_Metronome,283,1,38,56,2177772468
6621,13,Improv_Metronome,284,5,42,127,2177797340
6621,13,Improv_Metronome,285,1,38,65,2177926476
6621,13,Improv_Metronome,286,1,38,52,2178194928
6621,13,Improv_Metronome,287,5,42,127,2178298268
6621,13,Improv_Metronome,288,1,38,70,2178349628
6621,13,Improv_Metronome,289,5,42,127,2178798112
6621,13,Improv_Metronome,290,1,38,46,2178822180
6621,13,Improv_Metronome,291,1,38,80,2178970176
6621,13,Improv_Metronome,292,1,38,51,2179263864
6621,13,Improv_Metronome,293,5,42,127,2179297556
6621,13,Improv_Metronome,294,1,38,48,2179557692
6621,13,Improv_Metronome,295,5,42,127,2179798284
6621,13,Improv_Metronome,296,1,38,86,2179864304
6621,13,Improv_Metronome,297,1,38,65,2180165748
6621,13,Improv_Metronome,298,5,42,127,2180298032
6621,13,Improv_Metronome,299,1,38,95,2180448500
6621,13,Improv_Metronome,300,1,38,81,2180732656
6621,13,Improv_Metronome,301,5,42,127,2180797792
6621,13,Improv_Metronome,302,1,38,95,2180897680
6621,13,Improv_Metronome,303,1,48,105,2181226492
6621,13,Improv_Metronome,304,5,42,127,2181297364
6621,13,Improv_Metronome,305,1,48,66,2181353076
6621,13,Improv_Metronome,306,1,48,115,2181625788
6621,13,Improv_Metronome,307,5,42,127,2181798144
6621,13,Improv_Metronome,308,1,48,62,2181890968
6621,13,Improv_Metronome,309,1,48,102,2182218288
6621,13,Improv_Metronome,310,5,42,127,2182297908
6621,13,Improv_Metronome,311,1,48,67,2182466112
6621,13,Improv_Metronome,312,1,38,109,2182733816
6621,13,Improv_Metronome,313,5,42,127,2182797580
6621,13,Improv_Metronome,314,1,48,58,2182976332
6621,13,Improv_Metronome,315,1,48,59,2183248904
6621,13,Improv_Metronome,316,5,42,127,2183298376
6621,13,Improv_Metronome,317,1,48,58,2183515652
6621,13,Improv_Metronome,318,1,38,75,2183785748
6621,13,Improv_Metronome,319,5,42,127,2183798048
6621,13,Improv_Metronome,320,1,48,35,2184058108
6621,13,Improv_Metronome,321,5,42,127,2184298028
6621,13,Improv_Metronome,322,1,48,62,2184333308
6621,13,Improv_Metronome,323,1,48,68,2184584856
6621,13,Improv_Metronome,324,5,42,127,2184797476
6621,13,Improv_Metronome,325,1,38,85,2184858112
6621,13,Improv_Metronome,326,1,48,46,2185123500
6621,13,Improv_Metronome,327,5,42,127,2185298196
6621,13,Improv_Metronome,328,1,48,71,2185361148
6621,13,Improv_Metronome,329,1,48,67,2185656028
6621,13,Improv_Metronome,330,1,48,80,2185759676
6621,13,Improv_Metronome,331,5,42,127,2185797936
6621,13,Improv_Metronome,332,1,48,62,2186006084
6621,13,Improv_Metronome,333,1,48,99,2186122144
6621,13,Improv_Metronome,334,1,38,76,2186287156
6621,13,Improv_Metronome,335,5,42,127,2186297584
6621,13,Improv_Metronome,336,1,48,56,2186454272
6621,13,Improv_Metronome,337,1,48,54,2186724448
6621,13,Improv_Metronome,338,5,42,127,2186797408
6621,13,Improv_Metronome,339,1,38,117,2186998152
6621,13,Improv_Metronome,340,1,38,24,2187077488
6621,13,Improv_Metronome,341,1,48,44,2187269944
6621,13,Improv_Metronome,342,5,42,127,2187298108
6621,13,Improv_Metronome,343,1,48,51,2187529296
6621,13,Improv_Metronome,344,1,48,56,2187795348
6621,13,Improv_Metronome,345,5,42,127,2187797928
6621,13,Improv_Metronome,346,1,38,90,2188047816
6621,13,Improv_Metronome,347,5,42,127,2188297684
6621,13,Improv_Metronome,348,1,48,46,2188317484
6621,13,Improv_Metronome,349,1,48,52,2188550028
6621,13,Improv_Metronome,350,5,42,127,2188798256
6621,13,Improv_Metronome,351,1,48,50,2188827552
6621,13,Improv_Metronome,352,1,38,106,2189105212
6621,13,Improv_Metronome,353,5,42,127,2189298004
6621,13,Improv_Metronome,354,1,48,48,2189335008
6621,13,Improv_Metronome,355,1,48,59,2189628964
6621,13,Improv_Metronome,356,1,38,80,2189638368
6621,13,Improv_Metronome,357,5,42,127,2189797928
6621,13,Improv_Metronome,358,1,48,77,2189963364
6621,13,Improv_Metronome,359,1,48,64,2190064412
6621,13,Improv_Metronome,360,5,42,127,2190297376
6621,13,Improv_Metronome,361,1,48,95,2190347692
6621,13,Improv_Metronome,362,1,48,78,2190459788
6621,13,Improv_Metronome,363,1,48,76,2190736476
6621,13,Improv_Metronome,364,5,42,127,2190798164
6621,13,Improv_Metronome,365,1,48,74,2191005316
6621,13,Improv_Metronome,366,1,38,127,2191295948
6621,13,Improv_Metronome,367,5,42,127,2191298356
6621,13,Improv_Metronome,368,1,48,44,2191576148
6621,13,Improv_Metronome,369,5,42,127,2191797516
6621,13,Improv_Metronome,370,1,48,64,2191843720
6621,13,Improv_Metronome,371,1,48,64,2192085320
6621,13,Improv_Metronome,372,5,42,127,2192298436
6621,13,Improv_Metronome,373,1,38,101,2192354316
6621,13,Improv_Metronome,374,1,48,44,2192598084
6621,13,Improv_Metronome,375,5,42,127,2192798036
6621,13,Improv_Metronome,376,1,48,65,2192868344
6621,13,Improv_Metronome,377,1,48,63,2193132612
6621,13,Improv_Metronome,378,5,42,127,2193297932
6621,13,Improv_Metronome,379,1,38,65,2193398388
6621,13,Improv_Metronome,380,1,48,51,2193635724
6621,13,Improv_Metronome,381,1,38,83,2193792928
6621,13,Improv_Metronome,382,5,42,127,2193797600
6621,13,Improv_Metronome,383,1,38,88,2194077104
6621,13,Improv_Metronome,384,1,38,61,2194197760
6621,13,Improv_Metronome,385,5,42,127,2194298152
6621,13,Improv_Metronome,386,1,38,62,2194493528
6621,13,Improv_Metronome,387,1,38,62,2194606228
6621,13,Improv_Metronome,388,1,38,73,2194775052
6621,13,Improv_Metronome,389,5,42,127,2194797972
6621,13,Improv_Metronome,390,1,38,80,2194919804
6621,13,Improv_Metronome,391,1,48,87,2195087104
6621,13,Improv_Metronome,392,5,42,127,2195297852
6621,13,Improv_Metronome,393,1,48,78,2195337848
6621,13,Improv_Metronome,394,1,38,116,2195630384
6621,13,Improv_Metronome,395,5,42,127,2195798352
6621,13,Improv_Metronome,396,1,48,45,2195912416
6621,13,Improv_Metronome,397,1,48,55,2196142924
6621,13,Improv_Metronome,398,5,42,127,2196298172
6621,13,Improv_Metronome,399,1,48,70,2196412840
6621,13,Improv_Metronome,400,1,38,97,2196673592
6621,13,Improv_Metronome,401,5,42,127,2196797992
6621,13,Improv_Metronome,402,1,48,73,2196917748
6621,13,Improv_Metronome,403,1,48,73,2197190240
6621,13,Improv_Metronome,404,5,42,127,2197297444
6621,13,Improv_Metronome,405,1,48,75,2197432756
6621,13,Improv_Metronome,406,1,38,91,2197732400
6621,13,Improv_Metronome,407,5,42,127,2197798180
6621,13,Improv_Metronome,408,1,48,73,2197980892
6621,13,Improv_Metronome,409,1,38,76,2198229452
6621,13,Improv_Metronome,410,5,42,127,2198298076
6621,13,Improv_Metronome,411,1,38,55,2198479896
6621,13,Improv_Metronome,412,1,38,63,2198630816
6621,13,Improv_Metronome,413,5,42,127,2198797884
6621,13,Improv_Metronome,414,1,38,63,2198867200
6621,13,Improv_Metronome,415,1,38,61,2199014480
6621,13,Improv_Metronome,416,1,48,81,2199271636
6621,13,Improv_Metronome,0,9999,9999,9999,2129295416
6621,13,Improv_Metronome,1,9999,9999,9999,2129795136
6621,13,Improv_Metronome,2,9999,9999,9999,2130295896
6621,13,Improv_Metronome,3,9999,9999,9999,2130795616
6621,13,Improv_Metronome,4,9999,9999,9999,2131295328
6621,13,Improv_Metronome,5,9999,9999,9999,2131796020
6621,13,Improv_Metronome,6,9999,9999,9999,2132295736
6621,13,Improv_Metronome,7,9999,9999,9999,2132795452
6621,13,Improv_Metronome,8,9999,9999,9999,2133295164
6621,13,Improv_Metronome,9,9999,9999,9999,2133795908
6621,13,Improv_Metronome,10,9999,9999,9999,2134295604
6621,13,Improv_Metronome,11,9999,9999,9999,2134795376
6621,13,Improv_Metronome,12,9999,9999,9999,2135296088
6621,13,Improv_Metronome,13,9999,9999,9999,2135795764
6621,13,Improv_Metronome,14,9999,9999,9999,2136295540
6621,13,Improv_Metronome,15,9999,9999,9999,2136795224
6621,13,Improv_Metronome,16,9999,9999,9999,2137295944
6621,13,Improv_Metronome,17,9999,9999,9999,2137795692
6621,13,Improv_Metronome,18,9999,9999,9999,2138295392
6621,13,Improv_Metronome,19,9999,9999,9999,2138795128
6621,13,Improv_Metronome,20,9999,9999,9999,2139295856
6621,13,Improv_Metronome,21,9999,9999,9999,2139795560
6621,13,Improv_Metronome,22,9999,9999,9999,2140295264
6621,13,Improv_Metronome,23,9999,9999,9999,2140796012
6621,13,Improv_Metronome,24,9999,9999,9999,2141295684
6621,13,Improv_Metronome,25,9999,9999,9999,2141795380
6621,13,Improv_Metronome,26,9999,9999,9999,2142295144
6621,13,Improv_Metronome,27,9999,9999,9999,2142795888
6621,13,Improv_Metronome,28,9999,9999,9999,2143295560
6621,13,Improv_Metronome,29,9999,9999,9999,2143795248
6621,13,Improv_Metronome,30,9999,9999,9999,2144296000
6621,13,Improv_Metronome,31,9999,9999,9999,2144795760
6621,13,Improv_Metronome,32,9999,9999,9999,2145295436
6621,13,Improv_Metronome,33,9999,9999,9999,2145795132
6621,13,Improv_Metronome,34,9999,9999,9999,2146295876
6621,13,Improv_Metronome,35,9999,9999,9999,2146795640
6621,13,Improv_Metronome,36,9999,9999,9999,2147295312
6621,13,Improv_Metronome,37,9999,9999,9999,2147796064
6621,13,Improv_Metronome,38,9999,9999,9999,2148295748
6621,13,Improv_Metronome,39,9999,9999,9999,2148795488
6621,13,Improv_Metronome,40,9999,9999,9999,2149295196
6621,13,Improv_Metronome,41,9999,9999,9999,2149795932
6621,13,Improv_Metronome,42,9999,9999,9999,2150295640
6621,13,Improv_Metronome,43,9999,9999,9999,2150795368
6621,13,Improv_Metronome,44,9999,9999,9999,2151296092
6621,13,Improv_Metronome,45,9999,9999,9999,2151795832
6621,13,Improv_Metronome,46,9999,9999,9999,2152295496
6621,13,Improv_Metronome,47,9999,9999,9999,2152795240
6621,13,Improv_Metronome,48,9999,9999,9999,2153295932
6621,13,Improv_Metronome,49,9999,9999,9999,2153795664
6621,13,Improv_Metronome,50,9999,9999,9999,2154295360
6621,13,Improv_Metronome,51,9999,9999,9999,2154795080
6621,13,Improv_Metronome,52,9999,9999,9999,2155295800
6621,13,Improv_Metronome,53,9999,9999,9999,2155795548
6621,13,Improv_Metronome,54,9999,9999,9999,2156295240
6621,13,Improv_Metronome,55,9999,9999,9999,2156795976
6621,13,Improv_Metronome,56,9999,9999,9999,2157295724
6621,13,Improv_Metronome,57,9999,9999,9999,2157795396
6621,13,Improv_Metronome,58,9999,9999,9999,2158295144
6621,13,Improv_Metronome,59,9999,9999,9999,2158795864
6621,13,Improv_Metronome,60,9999,9999,9999,2159295536
6621,13,Improv_Metronome,61,9999,9999,9999,2159795256
6621,13,Improv_Metronome,62,9999,9999,9999,2160296056
6621,13,Improv_Metronome,63,9999,9999,9999,2160795728
6621,13,Improv_Metronome,64,9999,9999,9999,2161295408
6621,13,Improv_Metronome,65,9999,9999,9999,2161795132
6621,13,Improv_Metronome,66,9999,9999,9999,2162295924
6621,13,Improv_Metronome,67,9999,9999,9999,2162795596
6621,13,Improv_Metronome,68,9999,9999,9999,2163295344
6621,13,Improv_Metronome,69,9999,9999,9999,2163796064
6621,13,Improv_Metronome,70,9999,9999,9999,2164295736
6621,13,Improv_Metronome,71,9999,9999,9999,2164795484
6621,13,Improv_Metronome,72,9999,9999,9999,2165295176
6621,13,Improv_Metronome,73,9999,9999,9999,2165795952
6621,13,Improv_Metronome,74,9999,9999,9999,2166295644
6621,13,Improv_Metronome,75,9999,9999,9999,2166795368
6621,13,Improv_Metronome,76,9999,9999,9999,2167296104
6621,13,Improv_Metronome,77,9999,9999,9999,2167795764
6621,13,Improv_Metronome,78,9999,9999,9999,2168295484
6621,13,Improv_Metronome,79,9999,9999,9999,2168795184
6621,13,Improv_Metronome,80,9999,9999,9999,2169295964
6621,13,Improv_Metronome,81,9999,9999,9999,2169795692
6621,13,Improv_Metronome,82,9999,9999,9999,2170295412
6621,13,Improv_Metronome,83,9999,9999,9999,2170795120
6621,13,Improv_Metronome,84,9999,9999,9999,2171295832
6621,13,Improv_Metronome,85,9999,9999,9999,2171795556
6621,13,Improv_Metronome,86,9999,9999,9999,2172295284
6621,13,Improv_Metronome,87,9999,9999,9999,2172796004
6621,13,Improv_Metronome,88,9999,9999,9999,2173295680
6621,13,Improv_Metronome,89,9999,9999,9999,2173795428
6621,13,Improv_Metronome,90,9999,9999,9999,2174295096
6621,13,Improv_Metronome,91,9999,9999,9999,2174795856
6621,13,Improv_Metronome,92,9999,9999,9999,2175295564
6621,13,Improv_Metronome,93,9999,9999,9999,2175795316
6621,13,Improv_Metronome,94,9999,9999,9999,2176296032
6621,13,Improv_Metronome,95,9999,9999,9999,2176795764
6621,13,Improv_Metronome,96,9999,9999,9999,2177295436
6621,13,Improv_Metronome,97,9999,9999,9999,2177795124
6621,13,Improv_Metronome,98,9999,9999,9999,2178295904
6621,13,Improv_Metronome,99,9999,9999,9999,2178795600
6621,13,Improv_Metronome,100,9999,9999,9999,2179295344
6621,13,Improv_Metronome,101,9999,9999,9999,2179796068
6621,13,Improv_Metronome,102,9999,9999,9999,2180295744
6621,13,Improv_Metronome,103,9999,9999,9999,2180795504
6621,13,Improv_Metronome,104,9999,9999,9999,2181295152
6621,13,Improv_Metronome,105,9999,9999,9999,2181795932
6621,13,Improv_Metronome,106,9999,9999,9999,2182295620
6621,13,Improv_Metronome,107,9999,9999,9999,2182795368
6621,13,Improv_Metronome,108,9999,9999,9999,2183296088
6621,13,Improv_Metronome,109,9999,9999,9999,2183795764
6621,13,Improv_Metronome,110,9999,9999,9999,2184295516
6621,13,Improv_Metronome,111,9999,9999,9999,2184795188
6621,13,Improv_Metronome,112,9999,9999,9999,2185295980
6621,13,Improv_Metronome,113,9999,9999,9999,2185795648
6621,13,Improv_Metronome,114,9999,9999,9999,2186295372
6621,13,Improv_Metronome,115,9999,9999,9999,2186795120
6621,13,Improv_Metronome,116,9999,9999,9999,2187295820
6621,13,Improv_Metronome,117,9999,9999,9999,2187795568
6621,13,Improv_Metronome,118,9999,9999,9999,2188295248
6621,13,Improv_Metronome,119,9999,9999,9999,2188795968
6621,13,Improv_Metronome,120,9999,9999,9999,2189295716
6621,13,Improv_Metronome,121,9999,9999,9999,2189795416
6621,13,Improv_Metronome,122,9999,9999,9999,2190295088
6621,13,Improv_Metronome,123,9999,9999,9999,2190795876
6621,13,Improv_Metronome,124,9999,9999,9999,2191295580
6621,13,Improv_Metronome,125,9999,9999,9999,2191795304
6621,13,Improv_Metronome,126,9999,9999,9999,2192296000
6621,13,Improv_Metronome,127,9999,9999,9999,2192795748
6621,13,Improv_Metronome,128,9999,9999,9999,2193295420
6621,13,Improv_Metronome,129,9999,9999,9999,2193795164
6621,13,Improv_Metronome,130,9999,9999,9999,2194295864
6621,13,Improv_Metronome,131,9999,9999,9999,2194795608
6621,13,Improv_Metronome,132,9999,9999,9999,2195295340
6621,13,Improv_Metronome,133,9999,9999,9999,2195796064
6621,13,Improv_Metronome,134,9999,9999,9999,2196295736
6621,13,Improv_Metronome,135,9999,9999,9999,2196795484
6621,13,Improv_Metronome,136,9999,9999,9999,2197295156
6621,13,Improv_Metronome,137,9999,9999,9999,2197795892
6621,13,Improv_Metronome,138,9999,9999,9999,2198295640
6621,13,Improv_Metronome,139,9999,9999,9999,2198795372
6622,14,Improv_Melody,0,2,48,80,2245508424
6622,14,Improv_Melody,1,2,72,80,2245511088
6622,14,Improv_Melody,2,5,42,127,2245512508
6622,14,Improv_Melody,3,5,42,110,2246005200
6622,14,Improv_Melody,4,5,42,110,2246504992
6622,14,Improv_Melody,5,5,42,110,2247004788
6622,14,Improv_Melody,6,5,42,127,2247505260
6622,14,Improv_Melody,7,5,42,110,2248005056
6622,14,Improv_Melody,8,5,42,110,2248504852
6622,14,Improv_Melody,9,5,42,110,2249005548
6622,14,Improv_Melody,10,2,43,80,2249507700
6622,14,Improv_Melody,11,2,67,80,2249509700
6622,14,Improv_Melody,12,5,42,127,2249512240
6622,14,Improv_Melody,13,5,42,110,2250004932
6622,14,Improv_Melody,14,5,42,110,2250504504
6622,14,Improv_Melody,15,5,42,110,2251005272
6622,14,Improv_Melody,16,5,42,127,2251504996
6622,14,Improv_Melody,17,5,42,110,2252004864
6622,14,Improv_Melody,18,5,42,110,2252504364
6622,14,Improv_Melody,19,5,42,110,2253005280
6622,14,Improv_Melody,20,2,45,80,2253507280
6622,14,Improv_Melody,21,2,69,80,2253509508
6622,14,Improv_Melody,22,5,42,127,2253512048
6622,14,Improv_Melody,23,5,42,110,2254004736
6622,14,Improv_Melody,24,5,42,110,2254505256
6622,14,Improv_Melody,25,5,42,110,2255004904
6622,14,Improv_Melody,26,5,42,127,2255504700
6622,14,Improv_Melody,27,5,42,110,2256004568
6622,14,Improv_Melody,28,5,42,110,2256505264
6622,14,Improv_Melody,29,5,42,110,2257004764
6622,14,Improv_Melody,30,2,41,80,2257507056
6622,14,Improv_Melody,31,2,65,80,2257509284
6622,14,Improv_Melody,32,5,42,127,2257511824
6622,14,Improv_Melody,33,5,42,110,2258005412
6622,14,Improv_Melody,34,5,42,110,2258505060
6622,14,Improv_Melody,35,5,42,110,2259004708
6622,14,Improv_Melody,36,5,42,127,2259504580
6622,14,Improv_Melody,37,5,42,110,2260005200
6622,14,Improv_Melody,38,5,42,110,2260504920
6622,14,Improv_Melody,39,5,42,110,2261004568
6622,14,Improv_Melody,40,2,48,80,2261507992
6622,14,Improv_Melody,41,1,48,39,2261509556
6622,14,Improv_Melody,42,2,72,80,2261511644
6622,14,Improv_Melody,43,5,42,127,2261513880
6622,14,Improv_Melody,44,1,48,35,2261982876
6622,14,Improv_Melody,45,5,42,110,2262005056
6622,14,Improv_Melody,46,1,48,50,2262267656
6622,14,Improv_Melody,47,5,42,110,2262504740
6622,14,Improv_Melody,48,1,48,67,2262524536
6622,14,Improv_Melody,49,1,48,37,2262847072
6622,14,Improv_Melody,50,1,48,45,2262963980
6622,14,Improv_Melody,51,5,42,110,2263004560
6622,14,Improv_Melody,52,1,48,46,2263212536
6622,14,Improv_Melody,53,1,48,62,2263497616
6622,14,Improv_Melody,54,5,42,127,2263505136
6622,14,Improv_Melody,55,5,42,110,2264004916
6622,14,Improv_Melody,56,1,48,33,2264019924
6622,14,Improv_Melody,57,1,48,59,2264026564
6622,14,Improv_Melody,58,1,48,58,2264504820
6622,14,Improv_Melody,59,5,42,110,2264506156
6622,14,Improv_Melody,60,1,48,45,2264764200
6622,14,Improv_Melody,61,5,42,110,2265005596
6622,14,Improv_Melody,62,1,48,62,2265041956
6622,14,Improv_Melody,63,1,48,54,2265275100
6622,14,Improv_Melody,64,2,43,80,2265507860
6622,14,Improv_Melody,65,2,67,80,2265510156
6622,14,Improv_Melody,66,5,42,127,2265512544
6622,14,Improv_Melody,67,1,38,65,2265558324
6622,14,Improv_Melody,68,5,42,110,2266004988
6622,14,Improv_Melody,69,1,38,44,2266041116
6622,14,Improv_Melody,70,5,42,110,2266504464
6622,14,Improv_Melody,71,1,38,26,2266724448
6622,14,Improv_Melody,72,1,38,51,2266999704
6622,14,Improv_Melody,73,5,42,110,2267005652
6622,14,Improv_Melody,74,1,38,21,2267229508
6622,14,Improv_Melody,75,1,38,28,2267483304
6622,14,Improv_Melody,76,5,42,127,2267504956
6622,14,Improv_Melody,77,1,38,64,2267952632
6622,14,Improv_Melody,78,5,42,110,2268004656
6622,14,Improv_Melody,79,5,42,110,2268504512
6622,14,Improv_Melody,80,1,38,48,2268676252
6622,14,Improv_Melody,81,1,38,63,2268927500
6622,14,Improv_Melody,82,5,42,110,2269005404
6622,14,Improv_Melody,83,1,38,37,2269158200
6622,14,Improv_Melody,84,1,48,69,2269454328
6622,14,Improv_Melody,85,2,45,80,2269507592
6622,14,Improv_Melody,86,2,69,80,2269509512
6622,14,Improv_Melody,87,5,42,127,2269512124
6622,14,Improv_Melody,88,1,48,67,2269937140
6622,14,Improv_Melody,89,5,42,110,2270004496
6622,14,Improv_Melody,90,5,42,110,2270505620
6622,14,Improv_Melody,91,1,48,57,2270670776
6622,14,Improv_Melody,92,1,48,61,2270962720
6622,14,Improv_Melody,93,5,42,110,2271005092
6622,14,Improv_Melody,94,1,48,46,2271253408
6622,14,Improv_Melody,95,1,48,52,2271405304
6622,14,Improv_Melody,96,5,42,127,2271504680
6622,14,Improv_Melody,97,1,48,51,2271526948
6622,14,Improv_Melody,98,1,48,55,2271948236
6622,14,Improv_Melody,99,5,42,110,2272004448
6622,14,Improv_Melody,100,5,42,110,2272505352
6622,14,Improv_Melody,101,1,48,50,2272733712
6622,14,Improv_Melody,102,5,42,110,2273004904
6622,14,Improv_Melody,103,1,48,59,2273033680
6622,14,Improv_Melody,104,1,48,50,2273306316
6622,14,Improv_Melody,105,1,38,53,2273455068
6622,14,Improv_Melody,106,2,41,80,2273507360
6622,14,Improv_Melody,107,2,65,80,2273509280
6622,14,Improv_Melody,108,5,42,127,2273511744
6622,14,Improv_Melody,109,1,38,38,2273619264
6622,14,Improv_Melody,110,1,38,52,2273993580
6622,14,Improv_Melody,111,5,42,110,2274005512
6622,14,Improv_Melody,112,1,38,64,2274021856
6622,14,Improv_Melody,113,5,42,110,2274504972
6622,14,Improv_Melody,114,1,38,44,2274742232
6622,14,Improv_Melody,115,5,42,110,2275004672
6622,14,Improv_Melody,116,1,38,50,2275029632
6622,14,Improv_Melody,117,1,38,45,2275276392
6622,14,Improv_Melody,118,5,42,127,2275504428
6622,14,Improv_Melody,119,1,38,43,2275525724
6622,14,Improv_Melody,120,1,38,24,2275765672
6622,14,Improv_Melody,121,5,42,110,2276005496
6622,14,Improv_Melody,122,1,38,23,2276017840
6622,14,Improv_Melody,123,1,38,18,2276239144
6622,14,Improv_Melody,124,5,42,110,2276504804
6622,14,Improv_Melody,125,1,38,21,2276505768
6622,14,Improv_Melody,126,1,38,45,2276756924
6622,14,Improv_Melody,127,5,42,110,2277004628
6622,14,Improv_Melody,128,1,38,53,2277014856
6622,14,Improv_Melody,129,1,38,36,2277223244
6622,14,Improv_Melody,130,1,38,66,2277487060
6622,14,Improv_Melody,131,1,48,84,2277493396
6622,14,Improv_Melody,132,2,48,80,2277507756
6622,14,Improv_Melody,133,2,72,80,2277509980
6622,14,Improv_Melody,134,5,42,127,2277512596
6622,14,Improv_Melody,135,1,48,71,2278000632
6622,14,Improv_Melody,136,5,42,110,2278005236
6622,14,Improv_Melody,137,1,48,54,2278234408
6622,14,Improv_Melody,138,5,42,110,2278504920
6622,14,Improv_Melody,139,1,38,77,2278529360
6622,14,Improv_Melody,140,1,48,76,2278532636
6622,14,Improv_Melody,141,1,48,63,2278983740
6622,14,Improv_Melody,142,5,42,110,2279004420
6622,14,Improv_Melody,143,1,48,56,2279216980
6622,14,Improv_Melody,144,1,48,67,2279474516
6622,14,Improv_Melody,145,5,42,127,2279505144
6622,14,Improv_Melody,146,1,48,66,2279769016
6622,14,Improv_Melody,147,1,48,51,2279923476
6622,14,Improv_Melody,148,5,42,110,2280005120
6622,14,Improv_Melody,149,1,48,72,2280153956
6622,14,Improv_Melody,150,1,48,57,2280277204
6622,14,Improv_Melody,151,5,42,110,2280504712
6622,14,Improv_Melody,152,1,48,68,2280711152
6622,14,Improv_Melody,153,1,48,64,2280822356
6622,14,Improv_Melody,154,5,42,110,2281005288
6622,14,Improv_Melody,155,1,48,86,2281089412
6622,14,Improv_Melody,156,2,43,80,2281507560
6622,14,Improv_Melody,157,2,67,80,2281509788
6622,14,Improv_Melody,158,5,42,127,2281512476
6622,14,Improv_Melody,159,1,38,67,2281546264
6622,14,Improv_Melody,160,1,48,67,2281552904
6622,14,Improv_Melody,161,1,48,59,2281993996
6622,14,Improv_Melody,162,5,42,110,2282004880
6622,14,Improv_Melody,163,1,48,51,2282234496
6622,14,Improv_Melody,164,5,42,110,2282504416
6622,14,Improv_Melody,165,1,38,86,2282511272
6622,14,Improv_Melody,166,1,48,73,2282522928
6622,14,Improv_Melody,167,1,48,45,2282933040
6622,14,Improv_Melody,168,5,42,110,2283005260
6622,14,Improv_Melody,169,1,48,46,2283202188
6622,14,Improv_Melody,170,1,38,70,2283450292
6622,14,Improv_Melody,171,5,42,127,2283505088
6622,14,Improv_Melody,172,1,38,75,2283696184
6622,14,Improv_Melody,173,1,38,43,2283856980
6622,14,Improv_Melody,174,5,42,110,2284004676
6622,14,Improv_Melody,175,1,38,59,2284097704
6622,14,Improv_Melody,176,1,38,56,2284225684
6622,14,Improv_Melody,177,1,38,54,2284461796
6622,14,Improv_Melody,178,5,42,110,2284504496
6622,14,Improv_Melody,179,1,48,71,2284720572
6622,14,Improv_Melody,180,1,38,70,2284961928
6622,14,Improv_Melody,181,5,42,110,2285005148
6622,14,Improv_Melody,182,1,48,66,2285211252
6622,14,Improv_Melody,183,1,38,65,2285470424
6622,14,Improv_Melody,184,2,45,80,2285507480
6622,14,Improv_Melody,185,2,69,80,2285509552
6622,14,Improv_Melody,186,5,42,127,2285512316
6622,14,Improv_Melody,187,1,38,59,2285994228
6622,14,Improv_Melody,188,5,42,110,2286004540
6622,14,Improv_Melody,189,1,38,66,2286492352
6622,14,Improv_Melody,190,5,42,110,2286505184
6622,14,Improv_Melody,191,1,38,39,2286966924
6622,14,Improv_Melody,192,5,42,110,2287005032
6622,14,Improv_Melody,193,5,42,127,2287504744
6622,14,Improv_Melody,194,1,48,69,2287530080
6622,14,Improv_Melody,195,1,48,40,2287796388
6622,14,Improv_Melody,196,1,48,60,2287908932
6622,14,Improv_Melody,197,5,42,110,2288004412
6622,14,Improv_Melody,198,1,48,40,2288148908
6622,14,Improv_Melody,199,1,48,61,2288255400
6622,14,Improv_Melody,200,1,48,53,2288435592
6622,14,Improv_Melody,201,5,42,110,2288505264
6622,14,Improv_Melody,202,1,48,62,2288550108
6622,14,Improv_Melody,203,1,48,59,2288824864
6622,14,Improv_Melody,204,5,42,110,2289005004
6622,14,Improv_Melody,205,1,48,68,2289085564
6622,14,Improv_Melody,206,1,48,62,2289341296
6622,14,Improv_Melody,207,2,41,80,2289507264
6622,14,Improv_Melody,208,2,65,80,2289509492
6622,14,Improv_Melody,209,5,42,127,2289512100
6622,14,Improv_Melody,210,1,38,75,2289590864
6622,14,Improv_Melody,211,5,42,110,2290005220
6622,14,Improv_Melody,212,1,48,73,2290043492
6622,14,Improv_Melody,213,1,38,72,2290485352
6622,14,Improv_Melody,214,5,42,110,2290505060
6622,14,Improv_Melody,215,1,48,50,2290983776
6622,14,Improv_Melody,216,5,42,110,2291004908
6622,14,Improv_Melody,217,1,38,79,2291415264
6622,14,Improv_Melody,218,5,42,127,2291504384
6622,14,Improv_Melody,219,1,48,36,2291653072
6622,14,Improv_Melody,220,1,48,35,2291699424
6622,14,Improv_Melody,221,1,38,29,2291803820
6622,14,Improv_Melody,222,5,42,110,2292005296
6622,14,Improv_Melody,223,1,48,44,2292046412
6622,14,Improv_Melody,224,1,38,64,2292158016
6622,14,Improv_Melody,225,5,42,110,2292504904
6622,14,Improv_Melody,226,1,38,60,2292623060
6622,14,Improv_Melody,227,1,48,30,2292702136
6622,14,Improv_Melody,228,1,38,64,2292943856
6622,14,Improv_Melody,229,5,42,110,2293004560
6622,14,Improv_Melody,230,1,38,26,2293305832
6622,14,Improv_Melody,231,2,48,80,2293508020
6622,14,Improv_Melody,232,2,72,80,2293510092
6622,14,Improv_Melody,233,5,42,127,2293512784
6622,14,Improv_Melody,234,1,38,68,2293547096
6622,14,Improv_Melody,235,1,38,32,2293866560
6622,14,Improv_Melody,236,1,38,53,2293983396
6622,14,Improv_Melody,237,5,42,110,2294005048
6622,14,Improv_Melody,238,1,38,28,2294242216
6622,14,Improv_Melody,239,5,42,110,2294505032
6622,14,Improv_Melody,240,1,38,39,2294725460
6622,14,Improv_Melody,241,1,38,34,2294874588
6622,14,Improv_Melody,242,5,42,110,2295004412
6622,14,Improv_Melody,243,1,38,61,2295120844
6622,14,Improv_Melody,244,5,42,127,2295505232
6622,14,Improv_Melody,245,1,38,52,2295630048
6622,14,Improv_Melody,246,1,38,38,2295891096
6622,14,Improv_Melody,247,1,38,59,2295984520
6622,14,Improv_Melody,248,5,42,110,2296004828
6622,14,Improv_Melody,249,1,38,42,2296225220
6622,14,Improv_Melody,250,1,38,57,2296349680
6622,14,Improv_Melody,251,5,42,110,2296504788
6622,14,Improv_Melody,252,1,38,22,2296708144
6622,14,Improv_Melody,253,1,38,43,2296839636
6622,14,Improv_Melody,254,5,42,110,2297005412
6622,14,Improv_Melody,255,1,38,52,2297066076
6622,14,Improv_Melody,256,1,38,70,2297337296
6622,14,Improv_Melody,257,2,43,80,2297507972
6622,14,Improv_Melody,258,2,67,80,2297509900
6622,14,Improv_Melody,259,5,42,127,2297512432
6622,14,Improv_Melody,260,1,38,64,2297565320
6622,14,Improv_Melody,261,5,42,110,2298004880
6622,14,Improv_Melody,262,1,48,82,2298014880
6622,14,Improv_Melody,263,5,42,110,2298504504
6622,14,Improv_Melody,264,1,48,52,2298668836
6622,14,Improv_Melody,265,1,48,70,2298946936
6622,14,Improv_Melody,266,5,42,110,2299005168
6622,14,Improv_Melody,267,1,48,57,2299494056
6622,14,Improv_Melody,268,5,42,127,2299504944
6622,14,Improv_Melody,269,1,48,55,2299779956
6622,14,Improv_Melody,270,1,48,79,2299864780
6622,14,Improv_Melody,271,5,42,110,2300004752
6622,14,Improv_Melody,272,1,48,54,2300155548
6622,14,Improv_Melody,273,1,48,70,2300246036
6622,14,Improv_Melody,274,5,42,110,2300504356
6622,14,Improv_Melody,275,1,48,42,2300651408
6622,14,Improv_Melody,276,1,48,63,2300779744
6622,14,Improv_Melody,277,5,42,110,2301005084
6622,14,Improv_Melody,278,1,48,57,2301039768
6622,14,Improv_Melody,279,1,48,70,2301284952
6622,14,Improv_Melody,280,2,45,80,2301507332
6622,14,Improv_Melody,281,2,69,80,2301509560
6622,14,Improv_Melody,282,5,42,127,2301512028
6622,14,Improv_Melody,283,1,38,64,2301528832
6622,14,Improv_Melody,284,5,42,110,2302004768
6622,14,Improv_Melody,285,1,38,62,2302031596
6622,14,Improv_Melody,286,5,42,110,2302505440
6622,14,Improv_Melody,287,1,38,53,2302684212
6622,14,Improv_Melody,288,1,38,51,2302924240
6622,14,Improv_Melody,289,5,42,110,2303004984
6622,14,Improv_Melody,290,1,38,45,2303194660
6622,14,Improv_Melody,291,5,42,127,2303504968
6622,14,Improv_Melody,292,1,38,64,2303507336
6622,14,Improv_Melody,293,1,38,63,2303986368
6622,14,Improv_Melody,294,5,42,110,2304004736
6622,14,Improv_Melody,295,5,42,110,2304505264
6622,14,Improv_Melody,296,1,38,67,2304758832
6622,14,Improv_Melody,297,1,38,64,2305005112
6622,14,Improv_Melody,298,5,42,110,2305007728
6622,14,Improv_Melody,299,1,48,72,2305482256
6622,14,Improv_Melody,300,2,41,80,2305507240
6622,14,Improv_Melody,301,2,65,80,2305509540
6622,14,Improv_Melody,302,5,42,127,2305511928
6622,14,Improv_Melody,303,5,42,110,2306005428
6622,14,Improv_Melody,304,1,48,89,2306503720
6622,14,Improv_Melody,305,5,42,110,2306505436
6622,14,Improv_Melody,306,5,42,110,2307004920
6622,14,Improv_Melody,307,1,48,81,2307454680
6622,14,Improv_Melody,308,5,42,127,2307504784
6622,14,Improv_Melody,309,5,42,110,2308005216
6622,14,Improv_Melody,310,1,48,82,2308009160
6622,14,Improv_Melody,311,1,48,71,2308497988
6622,14,Improv_Melody,312,5,42,110,2308504912
6622,14,Improv_Melody,313,1,48,63,2308769836
6622,14,Improv_Melody,314,5,42,110,2309004820
6622,14,Improv_Melody,315,1,48,68,2309018640
6622,14,Improv_Melody,316,1,48,62,2309268236
6622,14,Improv_Melody,317,2,48,80,2309507900
6622,14,Improv_Melody,318,2,72,80,2309510204
6622,14,Improv_Melody,319,5,42,127,2309512736
6622,14,Improv_Melody,320,1,38,75,2309539640
6622,14,Improv_Melody,321,1,38,88,2309783936
6622,14,Improv_Melody,322,1,38,55,2309903540
6622,14,Improv_Melody,323,5,42,110,2310005212
6622,14,Improv_Melody,324,1,38,80,2310149204
6622,14,Improv_Melody,325,1,38,62,2310276856
6622,14,Improv_Melody,326,5,42,110,2310504740
6622,14,Improv_Melody,327,1,38,85,2310536284
6622,14,Improv_Melody,328,1,38,55,2310643848
6622,14,Improv_Melody,329,1,38,78,2310804412
6622,14,Improv_Melody,330,1,38,50,2310899860
6622,14,Improv_Melody,331,5,42,110,2311004820
6622,14,Improv_Melody,332,1,38,78,2311045936
6622,14,Improv_Melody,333,1,38,49,2311130760
6622,14,Improv_Melody,334,1,38,77,2311276072
6622,14,Improv_Melody,335,1,38,58,2311383036
6622,14,Improv_Melody,336,5,42,127,2311505280
6622,14,Improv_Melody,337,1,38,95,2311521936
6622,14,Improv_Melody,338,1,38,64,2311765408
6622,14,Improv_Melody,339,1,38,97,2311886728
6622,14,Improv_Melody,340,5,42,110,2312004936
6622,14,Improv_Melody,341,1,38,61,2312121244
6622,14,Improv_Melody,342,1,38,96,2312234172
6622,14,Improv_Melody,343,5,42,110,2312504760
6622,14,Improv_Melody,344,1,38,45,2312664308
6622,14,Improv_Melody,345,1,48,105,2312750232
6622,14,Improv_Melody,346,5,42,110,2313005536
6622,14,Improv_Melody,347,1,38,77,2313008208
6622,14,Improv_Melody,348,1,38,88,2313226092
6622,14,Improv_Melody,349,1,38,83,2313478616
6622,14,Improv_Melody,350,2,43,80,2313507712
6622,14,Improv_Melody,351,2,67,80,2313509788
6622,14,Improv_Melody,352,5,42,127,2313512624
6622,14,Improv_Melody,353,1,38,56,2313738280
6622,14,Improv_Melody,354,1,38,73,2313860996
6622,14,Improv_Melody,355,5,42,110,2314004736
6622,14,Improv_Melody,356,1,38,61,2314115788
6622,14,Improv_Melody,357,1,38,85,2314234272
6622,14,Improv_Melody,358,5,42,110,2314504860
6622,14,Improv_Melody,359,1,38,65,2314508952
6622,14,Improv_Melody,360,1,38,67,2314640576
6622,14,Improv_Melody,361,1,38,55,2314772672
6622,14,Improv_Melody,362,1,38,70,2314910876
6622,14,Improv_Melody,363,5,42,110,2315006512
6622,14,Improv_Melody,364,1,38,57,2315019432
6622,14,Improv_Melody,365,1,38,80,2315169980
6622,14,Improv_Melody,366,1,38,62,2315264152
6622,14,Improv_Melody,367,1,38,72,2315464092
6622,14,Improv_Melody,368,5,42,127,2315505044
6622,14,Improv_Melody,369,1,38,48,2315630288
6622,14,Improv_Melody,370,1,38,19,2315733144
6622,14,Improv_Melody,371,1,38,84,2315935820
6622,14,Improv_Melody,372,5,42,110,2316004772
6622,14,Improv_Melody,373,1,38,66,2316079080
6622,14,Improv_Melody,374,1,38,78,2316370348
6622,14,Improv_Melody,375,5,42,110,2316504584
6622,14,Improv_Melody,376,1,48,74,2316876776
6622,14,Improv_Melody,377,5,42,110,2317005256
6622,14,Improv_Melody,378,1,48,78,2317150716
6622,14,Improv_Melody,379,1,48,111,2317407576
6622,14,Improv_Melody,380,2,45,80,2317507440
6622,14,Improv_Melody,381,2,69,80,2317509512
6622,14,Improv_Melody,382,5,42,127,2317512052
6622,14,Improv_Melody,383,1,38,87,2317628716
6622,14,Improv_Melody,384,1,38,81,2317879516
6622,14,Improv_Melody,385,1,38,64,2317991908
6622,14,Improv_Melody,386,5,42,110,2318004468
6622,14,Improv_Melody,387,1,38,97,2318244532
6622,14,Improv_Melody,388,1,38,72,2318362040
6622,14,Improv_Melody,389,5,42,110,2318505452
6622,14,Improv_Melody,390,1,38,105,2318812972
6622,14,Improv_Melody,391,1,38,73,2318922156
6622,14,Improv_Melody,392,5,42,110,2319005068
6622,14,Improv_Melody,393,1,38,91,2319199308
6622,14,Improv_Melody,394,1,38,67,2319323400
6622,14,Improv_Melody,395,1,38,89,2319472152
6622,14,Improv_Melody,396,5,42,127,2319504728
6622,14,Improv_Melody,397,1,38,67,2319582656
6622,14,Improv_Melody,398,1,38,114,2319737092
6622,14,Improv_Melody,399,1,38,76,2319992228
6622,14,Improv_Melody,400,5,42,110,2320004384
6622,14,Improv_Melody,401,1,38,96,2320106920
6622,14,Improv_Melody,402,1,38,75,2320352636
6622,14,Improv_Melody,403,1,38,127,2320465628
6622,14,Improv_Melody,404,5,42,110,2320505312
6622,14,Improv_Melody,405,1,38,64,2320868692
6622,14,Improv_Melody,406,1,38,30,2320941748
6622,14,Improv_Melody,407,1,38,120,2321001188
6622,14,Improv_Melody,408,5,42,110,2321004896
6622,14,Improv_Melody,409,1,38,88,2321276620
6622,14,Improv_Melody,410,1,38,118,2321401756
6622,14,Improv_Melody,411,1,38,85,2321499576
6622,14,Improv_Melody,412,2,41,80,2321506976
6622,14,Improv_Melody,413,2,65,80,2321509132
6622,14,Improv_Melody,414,5,42,127,2321511820
6622,14,Improv_Melody,415,1,38,41,2321547388
6622,14,Improv_Melody,416,1,48,105,2321792576
6622,14,Improv_Melody,417,1,48,72,2321907020
6622,14,Improv_Melody,418,5,42,110,2322005476
6622,14,Improv_Melody,419,1,48,70,2322048908
6622,14,Improv_Melody,420,1,48,60,2322162456
6622,14,Improv_Melody,421,1,48,85,2322297596
6622,14,Improv_Melody,422,1,48,62,2322384440
6622,14,Improv_Melody,423,5,42,110,2322505036
6622,14,Improv_Melody,424,1,48,97,2322544508
6622,14,Improv_Melody,425,1,48,64,2322657228
6622,14,Improv_Melody,426,1,48,88,2322792748
6622,14,Improv_Melody,427,1,38,19,2322802520
6622,14,Improv_Melody,428,1,48,65,2322901976
6622,14,Improv_Melody,429,5,42,110,2323004924
6622,14,Improv_Melody,430,1,48,84,2323052172
6622,14,Improv_Melody,431,1,48,67,2323165496
6622,14,Improv_Melody,432,1,48,86,2323304600
6622,14,Improv_Melody,433,1,48,62,2323404604
6622,14,Improv_Melody,434,5,42,127,2323504484
6622,14,Improv_Melody,435,1,48,81,2323549936
6622,14,Improv_Melody,436,1,48,62,2323619104
6622,14,Improv_Melody,437,1,48,87,2323790920
6622,14,Improv_Melody,438,1,38,20,2323800020
6622,14,Improv_Melody,439,1,48,72,2323843908
6622,14,Improv_Melody,440,5,42,110,2324005344
6622,14,Improv_Melody,441,1,48,88,2324041592
6622,14,Improv_Melody,442,1,38,19,2324051152
6622,14,Improv_Melody,443,1,48,74,2324260720
6622,14,Improv_Melody,444,1,48,92,2324294436
6622,14,Improv_Melody,445,1,48,77,2324502152
6622,14,Improv_Melody,446,5,42,110,2324504808
6622,14,Improv_Melody,447,1,48,116,2324530280
6622,14,Improv_Melody,448,1,38,99,2324758412
6622,14,Improv_Melody,449,1,38,123,2324781432
6622,14,Improv_Melody,450,1,38,78,2324984732
6622,14,Improv_Melody,451,5,42,110,2325004668
6622,14,Improv_Melody,452,1,38,93,2325020188
6622,14,Improv_Melody,453,1,38,64,2325266952
6622,14,Improv_Melody,454,1,38,96,2325271940
6622,14,Improv_Melody,455,1,38,63,2325501420
6622,14,Improv_Melody,456,2,48,80,2325507776
6622,14,Improv_Melody,457,2,72,80,2325510080
6622,14,Improv_Melody,458,5,42,127,2325512620
6622,14,Improv_Melody,459,1,48,84,2325779036
6622,14,Improv_Melody,460,5,42,110,2326005196
6622,14,Improv_Melody,461,1,48,63,2326006684
6622,14,Improv_Melody,462,1,38,82,2326265100
6622,14,Improv_Melody,463,1,48,124,2326293056
6622,14,Improv_Melody,0,9999,9999,9999,2245503072
6622,14,Improv_Melody,1,9999,9999,9999,2246002756
6622,14,Improv_Melody,2,9999,9999,9999,2246502480
6622,14,Improv_Melody,3,9999,9999,9999,2247002200
6622,14,Improv_Melody,4,9999,9999,9999,2247502968
6622,14,Improv_Melody,5,9999,9999,9999,2248002616
6622,14,Improv_Melody,6,9999,9999,9999,2248502336
6622,14,Improv_Melody,7,9999,9999,9999,2249003108
6622,14,Improv_Melody,8,9999,9999,9999,2249502828
6622,14,Improv_Melody,9,9999,9999,9999,2250002492
6622,14,Improv_Melody,10,9999,9999,9999,2250502212
6622,14,Improv_Melody,11,9999,9999,9999,2251002980
6622,14,Improv_Melody,12,9999,9999,9999,2251502704
6622,14,Improv_Melody,13,9999,9999,9999,2252002424
6622,14,Improv_Melody,14,9999,9999,9999,2252502072
6622,14,Improv_Melody,15,9999,9999,9999,2253002840
6622,14,Improv_Melody,16,9999,9999,9999,2253502560
6622,14,Improv_Melody,17,9999,9999,9999,2254002296
6622,14,Improv_Melody,18,9999,9999,9999,2254502964
6622,14,Improv_Melody,19,9999,9999,9999,2255002688
6622,14,Improv_Melody,20,9999,9999,9999,2255502408
6622,14,Improv_Melody,21,9999,9999,9999,2256002128
6622,14,Improv_Melody,22,9999,9999,9999,2256502896
6622,14,Improv_Melody,23,9999,9999,9999,2257002544
6622,14,Improv_Melody,24,9999,9999,9999,2257502264
6622,14,Improv_Melody,25,9999,9999,9999,2258003048
6622,14,Improv_Melody,26,9999,9999,9999,2258502768
6622,14,Improv_Melody,27,9999,9999,9999,2259002488
6622,14,Improv_Melody,28,9999,9999,9999,2259502140
6622,14,Improv_Melody,29,9999,9999,9999,2260002908
6622,14,Improv_Melody,30,9999,9999,9999,2260502628
6622,14,Improv_Melody,31,9999,9999,9999,2261002352
6622,14,Improv_Melody,32,9999,9999,9999,2261503044
6622,14,Improv_Melody,33,9999,9999,9999,2262002764
6622,14,Improv_Melody,34,9999,9999,9999,2262502448
6622,14,Improv_Melody,35,9999,9999,9999,2263002196
6622,14,Improv_Melody,36,9999,9999,9999,2263502920
6622,14,Improv_Melody,37,9999,9999,9999,2264002624
6622,14,Improv_Melody,38,9999,9999,9999,2264502380
6622,14,Improv_Melody,39,9999,9999,9999,2265003084
6622,14,Improv_Melody,40,9999,9999,9999,2265502836
6622,14,Improv_Melody,41,9999,9999,9999,2266002548
6622,14,Improv_Melody,42,9999,9999,9999,2266502248
6622,14,Improv_Melody,43,9999,9999,9999,2267002988
6622,14,Improv_Melody,44,9999,9999,9999,2267502664
6622,14,Improv_Melody,45,9999,9999,9999,2268002364
6622,14,Improv_Melody,46,9999,9999,9999,2268502072
6622,14,Improv_Melody,47,9999,9999,9999,2269002816
6622,14,Improv_Melody,48,9999,9999,9999,2269502568
6622,14,Improv_Melody,49,9999,9999,9999,2270002280
6622,14,Improv_Melody,50,9999,9999,9999,2270503032
6622,14,Improv_Melody,51,9999,9999,9999,2271002728
6622,14,Improv_Melody,52,9999,9999,9999,2271502388
6622,14,Improv_Melody,53,9999,9999,9999,2272002156
6622,14,Improv_Melody,54,9999,9999,9999,2272502836
6622,14,Improv_Melody,55,9999,9999,9999,2273002612
6622,14,Improv_Melody,56,9999,9999,9999,2273502260
6622,14,Improv_Melody,57,9999,9999,9999,2274002996
6622,14,Improv_Melody,58,9999,9999,9999,2274502756
6622,14,Improv_Melody,59,9999,9999,9999,2275002456
6622,14,Improv_Melody,60,9999,9999,9999,2275502184
6622,14,Improv_Melody,61,9999,9999,9999,2276002908
6622,14,Improv_Melody,62,9999,9999,9999,2276502584
6622,14,Improv_Melody,63,9999,9999,9999,2277002336
6622,14,Improv_Melody,64,9999,9999,9999,2277503036
6622,14,Improv_Melody,65,9999,9999,9999,2278002796
6622,14,Improv_Melody,66,9999,9999,9999,2278502480
6622,14,Improv_Melody,67,9999,9999,9999,2279002204
6622,14,Improv_Melody,68,9999,9999,9999,2279502928
6622,14,Improv_Melody,69,9999,9999,9999,2280002680
6622,14,Improv_Melody,70,9999,9999,9999,2280502344
6622,14,Improv_Melody,71,9999,9999,9999,2281003072
6622,14,Improv_Melody,72,9999,9999,9999,2281502768
6622,14,Improv_Melody,73,9999,9999,9999,2282002516
6622,14,Improv_Melody,74,9999,9999,9999,2282502200
6622,14,Improv_Melody,75,9999,9999,9999,2283002968
6622,14,Improv_Melody,76,9999,9999,9999,2283502648
6622,14,Improv_Melody,77,9999,9999,9999,2284002384
6622,14,Improv_Melody,78,9999,9999,9999,2284502132
6622,14,Improv_Melody,79,9999,9999,9999,2285002856
6622,14,Improv_Melody,80,9999,9999,9999,2285502532
6622,14,Improv_Melody,81,9999,9999,9999,2286002248
6622,14,Improv_Melody,82,9999,9999,9999,2286502968
6622,14,Improv_Melody,83,9999,9999,9999,2287002744
6622,14,Improv_Melody,84,9999,9999,9999,2287502452
6622,14,Improv_Melody,85,9999,9999,9999,2288002120
6622,14,Improv_Melody,86,9999,9999,9999,2288502900
6622,14,Improv_Melody,87,9999,9999,9999,2289002564
6622,14,Improv_Melody,88,9999,9999,9999,2289502316
6622,14,Improv_Melody,89,9999,9999,9999,2290003000
6622,14,Improv_Melody,90,9999,9999,9999,2290502768
6622,14,Improv_Melody,91,9999,9999,9999,2291002468
6622,14,Improv_Melody,92,9999,9999,9999,2291502168
6622,14,Improv_Melody,93,9999,9999,9999,2292002932
6622,14,Improv_Melody,94,9999,9999,9999,2292502612
6622,14,Improv_Melody,95,9999,9999,9999,2293002344
6622,14,Improv_Melody,96,9999,9999,9999,2293503072
6622,14,Improv_Melody,97,9999,9999,9999,2294002756
6622,14,Improv_Melody,98,9999,9999,9999,2294502516
6622,14,Improv_Melody,99,9999,9999,9999,2295002196
6622,14,Improv_Melody,100,9999,9999,9999,2295502940
6622,14,Improv_Melody,101,9999,9999,9999,2296002612
6622,14,Improv_Melody,102,9999,9999,9999,2296502348
6622,14,Improv_Melody,103,9999,9999,9999,2297003124
6622,14,Improv_Melody,104,9999,9999,9999,2297502800
6622,14,Improv_Melody,105,9999,9999,9999,2298002512
6622,14,Improv_Melody,106,9999,9999,9999,2298502212
6622,14,Improv_Melody,107,9999,9999,9999,2299002952
6622,14,Improv_Melody,108,9999,9999,9999,2299502652
6622,14,Improv_Melody,109,9999,9999,9999,2300002388
6622,14,Improv_Melody,110,9999,9999,9999,2300502068
6622,14,Improv_Melody,111,9999,9999,9999,2301002864
6622,14,Improv_Melody,112,9999,9999,9999,2301502540
6622,14,Improv_Melody,113,9999,9999,9999,2302002256
6622,14,Improv_Melody,114,9999,9999,9999,2302503000
6622,14,Improv_Melody,115,9999,9999,9999,2303002692
6622,14,Improv_Melody,116,9999,9999,9999,2303502452
6622,14,Improv_Melody,117,9999,9999,9999,2304002144
6622,14,Improv_Melody,118,9999,9999,9999,2304502900
6622,14,Improv_Melody,119,9999,9999,9999,2305002600
6622,14,Improv_Melody,120,9999,9999,9999,2305502292
6622,14,Improv_Melody,121,9999,9999,9999,2306003060
6622,14,Improv_Melody,122,9999,9999,9999,2306502708
6622,14,Improv_Melody,123,9999,9999,9999,2307002480
6622,14,Improv_Melody,124,9999,9999,9999,2307502196
6622,14,Improv_Melody,125,9999,9999,9999,2308002924
6622,14,Improv_Melody,126,9999,9999,9999,2308502620
6622,14,Improv_Melody,127,9999,9999,9999,2309002304
6622,14,Improv_Melody,128,9999,9999,9999,2309503028
6622,14,Improv_Melody,129,9999,9999,9999,2310002772
6622,14,Improv_Melody,130,9999,9999,9999,2310502448
6622,14,Improv_Melody,131,9999,9999,9999,2311002232
6622,14,Improv_Melody,132,9999,9999,9999,2311502912
6622,14,Improv_Melody,133,9999,9999,9999,2312002644
6622,14,Improv_Melody,134,9999,9999,9999,2312502320
6622,14,Improv_Melody,135,9999,9999,9999,2313003096
6622,14,Improv_Melody,136,9999,9999,9999,2313502840
6622,14,Improv_Melody,137,9999,9999,9999,2314002516
6622,14,Improv_Melody,138,9999,9999,9999,2314502196
6622,14,Improv_Melody,139,9999,9999,9999,2315002964
6622,14,Improv_Melody,140,9999,9999,9999,2315502676
6622,14,Improv_Melody,141,9999,9999,9999,2316002404
6622,14,Improv_Melody,142,9999,9999,9999,2316502072
6622,14,Improv_Melody,143,9999,9999,9999,2317002816
6622,14,Improv_Melody,144,9999,9999,9999,2317502568
6622,14,Improv_Melody,145,9999,9999,9999,2318002252
6622,14,Improv_Melody,146,9999,9999,9999,2318503012
6622,14,Improv_Melody,147,9999,9999,9999,2319002704
6622,14,Improv_Melody,148,9999,9999,9999,2319502436
6622,14,Improv_Melody,149,9999,9999,9999,2320002168
6622,14,Improv_Melody,150,9999,9999,9999,2320502872
6622,14,Improv_Melody,151,9999,9999,9999,2321002604
6622,14,Improv_Melody,152,9999,9999,9999,2321502260
6622,14,Improv_Melody,153,9999,9999,9999,2322003036
6622,14,Improv_Melody,154,9999,9999,9999,2322502744
6622,14,Improv_Melody,155,9999,9999,9999,2323002484
6622,14,Improv_Melody,156,9999,9999,9999,2323502192
6622,14,Improv_Melody,157,9999,9999,9999,2324002900
6622,14,Improv_Melody,158,9999,9999,9999,2324502592
6622,14,Improv_Melody,159,9999,9999,9999,2325002304
6622,14,Improv_Melody,160,9999,9999,9999,2325503060
6622,14,Improv_Melody,161,9999,9999,9999,2326002756
66