pid,taskRunCount,taskID,taskName,i,channel,pitch,velocity,microseconds
69,1,0,Ticks_Pract_8,0,5,42,127,565967356
69,1,0,Ticks_Pract_8,1,1,48,26,566470248
69,1,0,Ticks_Pract_8,2,5,42,127,566767092
69,1,0,Ticks_Pract_8,3,1,48,19,567238492
69,1,0,Ticks_Pract_8,4,5,42,127,567566824
69,1,0,Ticks_Pract_8,5,1,48,14,568024164
69,1,0,Ticks_Pract_8,6,5,42,127,568366408
69,1,0,Ticks_Pract_8,7,1,48,13,568808936
69,1,0,Ticks_Pract_8,8,5,42,127,569167116
69,1,0,Ticks_Pract_8,9,5,42,127,569966820
69,1,0,Ticks_Pract_8,10,5,42,127,570766652
69,1,0,Ticks_Pract_8,11,1,48,20,571467084
69,1,0,Ticks_Pract_8,12,5,42,127,571566460
69,1,0,Ticks_Pract_8,13,5,42,127,572367184
69,1,0,Ticks_Pract_8,14,5,42,127,573166940
69,1,0,Ticks_Pract_8,15,1,48,36,573896340
69,1,0,Ticks_Pract_8,16,5,42,127,573966688
69,1,0,Ticks_Pract_8,17,1,48,35,574715376
69,1,0,Ticks_Pract_8,18,5,42,127,574766348
69,1,0,Ticks_Pract_8,19,1,48,30,575518624
69,1,0,Ticks_Pract_8,20,5,42,127,575567352
69,1,0,Ticks_Pract_8,21,1,48,24,576289336
69,1,0,Ticks_Pract_8,22,5,42,127,576366888
69,1,0,Ticks_Pract_8,23,5,42,127,577166776
69,1,0,Ticks_Pract_8,24,1,48,27,577422956
69,1,0,Ticks_Pract_8,25,5,42,127,577966436
69,1,0,Ticks_Pract_8,26,5,42,127,578767160
69,1,0,Ticks_Pract_8,27,1,48,18,579502844
69,1,0,Ticks_Pract_8,28,5,42,127,579566836
69,1,0,Ticks_Pract_8,29,1,48,36,580266528
69,1,0,Ticks_Pract_8,30,5,42,127,580366776
69,1,0,Ticks_Pract_8,31,1,48,24,581153252
69,1,0,Ticks_Pract_8,32,5,42,127,581166304
69,1,0,Ticks_Pract_8,33,5,42,127,581967240
69,1,0,Ticks_Pract_8,34,1,48,36,581977764
69,1,0,Ticks_Pract_8,35,5,42,127,582767000
69,1,0,Ticks_Pract_8,36,1,48,24,582811928
69,1,0,Ticks_Pract_8,37,5,42,127,583566656
69,1,0,Ticks_Pract_8,38,1,48,45,583603360
69,1,0,Ticks_Pract_8,39,5,42,127,584366388
69,1,0,Ticks_Pract_8,40,1,48,31,584384840
69,1,0,Ticks_Pract_8,41,5,42,127,585167096
69,1,0,Ticks_Pract_8,42,1,48,35,585198112
69,1,0,Ticks_Pract_8,43,1,48,38,585944420
69,1,0,Ticks_Pract_8,44,5,42,127,585966896
69,1,0,Ticks_Pract_8,45,1,48,29,586746844
69,1,0,Ticks_Pract_8,46,5,42,127,586766632
69,1,0,Ticks_Pract_8,47,1,48,45,587520108
69,1,0,Ticks_Pract_8,48,5,42,127,587566440
69,1,0,Ticks_Pract_8,49,1,48,43,588234344
69,1,0,Ticks_Pract_8,50,5,42,127,588367352
69,1,0,Ticks_Pract_8,51,1,48,34,589155920
69,1,0,Ticks_Pract_8,52,5,42,127,589166904
69,1,0,Ticks_Pract_8,53,1,48,41,589946776
69,1,0,Ticks_Pract_8,0,9999,9999,9999,565964916
69,1,0,Ticks_Pract_8,1,9999,9999,9999,566764652
69,1,0,Ticks_Pract_8,2,9999,9999,9999,567564384
69,1,0,Ticks_Pract_8,3,9999,9999,9999,568364116
69,1,0,Ticks_Pract_8,4,9999,9999,9999,569164896
69,1,0,Ticks_Pract_8,5,9999,9999,9999,569964604
69,1,0,Ticks_Pract_8,6,9999,9999,9999,570764360
69,1,0,Ticks_Pract_8,7,9999,9999,9999,571564092
69,1,0,Ticks_Pract_8,8,9999,9999,9999,572364892
69,1,0,Ticks_Pract_8,9,9999,9999,9999,573164648
69,1,0,Ticks_Pract_8,10,9999,9999,9999,573964396
69,1,0,Ticks_Pract_8,11,9999,9999,9999,574764132
69,1,0,Ticks_Pract_8,12,9999,9999,9999,575564912
69,1,0,Ticks_Pract_8,13,9999,9999,9999,576364596
69,1,0,Ticks_Pract_8,14,9999,9999,9999,577164336
69,1,0,Ticks_Pract_8,15,9999,9999,9999,577964144
69,1,0,Ticks_Pract_8,16,9999,9999,9999,578764868
69,1,0,Ticks_Pract_8,17,9999,9999,9999,579564620
69,1,0,Ticks_Pract_8,18,9999,9999,9999,580364336
69,1,0,Ticks_Pract_8,19,9999,9999,9999,581164088
69,1,0,Ticks_Pract_8,20,9999,9999,9999,581964872
69,1,0,Ticks_Pract_8,21,9999,9999,9999,582764632
69,1,0,Ticks_Pract_8,22,9999,9999,9999,583564364
69,1,0,Ticks_Pract_8,23,9999,9999,9999,584364096
69,1,0,Ticks_Pract_8,24,9999,9999,9999,585164876
69,1,0,Ticks_Pract_8,25,9999,9999,9999,585964604
69,1,0,Ticks_Pract_8,26,9999,9999,9999,586764340
69,1,0,Ticks_Pract_8,27,9999,9999,9999,587564148
69,1,0,Ticks_Pract_8,28,9999,9999,9999,588364912
69,1,0,Ticks_Pract_8,29,9999,9999,9999,589164612
69,2,1,Ticks_Pract_5,0,5,42,127,619599208
69,2,1,Ticks_Pract_5,1,5,42,127,620098848
69,2,1,Ticks_Pract_5,2,5,42,127,620598564
69,2,1,Ticks_Pract_5,3,5,42,127,621099476
69,2,1,Ticks_Pract_5,4,5,42,127,621599044
69,2,1,Ticks_Pract_5,5,5,42,127,622098760
69,2,1,Ticks_Pract_5,6,5,42,127,622598552
69,2,1,Ticks_Pract_5,7,1,48,29,622647672
69,2,1,Ticks_Pract_5,8,1,48,25,623057884
69,2,1,Ticks_Pract_5,9,5,42,127,623099136
69,2,1,Ticks_Pract_5,10,1,48,32,623581368
69,2,1,Ticks_Pract_5,11,5,42,127,623598904
69,2,1,Ticks_Pract_5,12,1,48,41,624073428
69,2,1,Ticks_Pract_5,13,5,42,127,624099044
69,2,1,Ticks_Pract_5,14,1,48,42,624572976
69,2,1,Ticks_Pract_5,15,5,42,127,624599264
69,2,1,Ticks_Pract_5,16,1,48,40,625053592
69,2,1,Ticks_Pract_5,17,5,42,127,625099184
69,2,1,Ticks_Pract_5,18,1,48,38,625596368
69,2,1,Ticks_Pract_5,19,5,42,127,625598876
69,2,1,Ticks_Pract_5,20,5,42,127,626098728
69,2,1,Ticks_Pract_5,21,1,48,42,626128252
69,2,1,Ticks_Pract_5,22,5,42,127,626599244
69,2,1,Ticks_Pract_5,23,1,48,37,626624728
69,2,1,Ticks_Pract_5,24,5,42,127,627098940
69,2,1,Ticks_Pract_5,25,1,48,38,627135116
69,2,1,Ticks_Pract_5,26,5,42,127,627598784
69,2,1,Ticks_Pract_5,27,1,48,41,627607140
69,2,1,Ticks_Pract_5,28,5,42,127,628098700
69,2,1,Ticks_Pract_5,29,1,48,43,628126880
69,2,1,Ticks_Pract_5,30,5,42,127,628599072
69,2,1,Ticks_Pract_5,31,1,48,45,628604804
69,2,1,Ticks_Pract_5,32,5,42,127,629098840
69,2,1,Ticks_Pract_5,33,1,48,40,629122752
69,2,1,Ticks_Pract_5,34,5,42,127,629598660
69,2,1,Ticks_Pract_5,35,1,48,37,629601480
69,2,1,Ticks_Pract_5,36,1,48,37,630088140
69,2,1,Ticks_Pract_5,37,5,42,127,630099392
69,2,1,Ticks_Pract_5,38,1,48,34,630558288
69,2,1,Ticks_Pract_5,39,5,42,127,630599012
69,2,1,Ticks_Pract_5,40,1,48,33,631094032
69,2,1,Ticks_Pract_5,41,5,42,127,631098780
69,2,1,Ticks_Pract_5,42,1,48,31,631558352
69,2,1,Ticks_Pract_5,43,5,42,127,631598624
69,2,1,Ticks_Pract_5,44,1,48,40,632096188
69,2,1,Ticks_Pract_5,45,5,42,127,632099144
69,2,1,Ticks_Pract_5,46,5,42,127,632598772
69,2,1,Ticks_Pract_5,47,1,48,37,632641156
69,2,1,Ticks_Pract_5,48,5,42,127,633098688
69,2,1,Ticks_Pract_5,49,1,48,38,633107340
69,2,1,Ticks_Pract_5,50,1,48,41,633574104
69,2,1,Ticks_Pract_5,51,5,42,127,633599424
69,2,1,Ticks_Pract_5,52,1,48,36,634097232
69,2,1,Ticks_Pract_5,53,5,42,127,634098968
69,2,1,Ticks_Pract_5,54,1,48,39,634569008
69,2,1,Ticks_Pract_5,55,5,42,127,634598888
69,2,1,Ticks_Pract_5,56,1,48,34,635087476
69,2,1,Ticks_Pract_5,57,5,42,127,635098728
69,2,1,Ticks_Pract_5,58,1,48,37,635576400
69,2,1,Ticks_Pract_5,59,5,42,127,635599324
69,2,1,Ticks_Pract_5,60,5,42,127,636098876
69,2,1,Ticks_Pract_5,61,1,48,37,636121216
69,2,1,Ticks_Pract_5,62,5,42,127,636598568
69,2,1,Ticks_Pract_5,63,1,48,35,636614028
69,2,1,Ticks_Pract_5,64,1,48,30,637022576
69,2,1,Ticks_Pract_5,65,5,42,127,637099380
69,2,1,Ticks_Pract_5,66,1,48,42,637554984
69,2,1,Ticks_Pract_5,67,5,42,127,637599220
69,2,1,Ticks_Pract_5,68,1,48,39,638045072
69,2,1,Ticks_Pract_5,69,5,42,127,638098840
69,2,1,Ticks_Pract_5,70,5,42,127,638598616
69,2,1,Ticks_Pract_5,71,5,42,127,639099304
69,2,1,Ticks_Pract_5,0,9999,9999,9999,619596920
69,2,1,Ticks_Pract_5,1,9999,9999,9999,620096636
69,2,1,Ticks_Pract_5,2,9999,9999,9999,620596280
69,2,1,Ticks_Pract_5,3,9999,9999,9999,621097040
69,2,1,Ticks_Pract_5,4,9999,9999,9999,621596756
69,2,1,Ticks_Pract_5,5,9999,9999,9999,622096476
69,2,1,Ticks_Pract_5,6,9999,9999,9999,622596188
69,2,1,Ticks_Pract_5,7,9999,9999,9999,623096924
69,2,1,Ticks_Pract_5,8,9999,9999,9999,623596620
69,2,1,Ticks_Pract_5,9,9999,9999,9999,624096312
69,2,1,Ticks_Pract_5,10,9999,9999,9999,624597052
69,2,1,Ticks_Pract_5,11,9999,9999,9999,625096824
69,2,1,Ticks_Pract_5,12,9999,9999,9999,625596516
69,2,1,Ticks_Pract_5,13,9999,9999,9999,626096220
69,2,1,Ticks_Pract_5,14,9999,9999,9999,626596960
69,2,1,Ticks_Pract_5,15,9999,9999,9999,627096656
69,2,1,Ticks_Pract_5,16,9999,9999,9999,627596348
69,2,1,Ticks_Pract_5,17,9999,9999,9999,628096116
69,2,1,Ticks_Pract_5,18,9999,9999,9999,628596860
69,2,1,Ticks_Pract_5,19,9999,9999,9999,629096556
69,2,1,Ticks_Pract_5,20,9999,9999,9999,629596224
69,2,1,Ticks_Pract_5,21,9999,9999,9999,630096960
69,2,1,Ticks_Pract_5,22,9999,9999,9999,630596728
69,2,1,Ticks_Pract_5,23,9999,9999,9999,631096420
69,2,1,Ticks_Pract_5,24,9999,9999,9999,631596116
69,2,1,Ticks_Pract_5,25,9999,9999,9999,632096856
69,2,1,Ticks_Pract_5,26,9999,9999,9999,632596560
69,2,1,Ticks_Pract_5,27,9999,9999,9999,633096252
69,2,1,Ticks_Pract_5,28,9999,9999,9999,633596988
69,2,1,Ticks_Pract_5,29,9999,9999,9999,634096708
69,2,1,Ticks_Pract_5,30,9999,9999,9999,634596452
69,2,1,Ticks_Pract_5,31,9999,9999,9999,635096148
69,2,1,Ticks_Pract_5,32,9999,9999,9999,635596888
69,2,1,Ticks_Pract_5,33,9999,9999,9999,636096588
69,2,1,Ticks_Pract_5,34,9999,9999,9999,636596284
69,2,1,Ticks_Pract_5,35,9999,9999,9999,637097016
69,2,1,Ticks_Pract_5,36,9999,9999,9999,637596788
69,2,1,Ticks_Pract_5,37,9999,9999,9999,638096480
69,2,1,Ticks_Pract_5,38,9999,9999,9999,638596180
69,2,1,Ticks_Pract_5,39,9999,9999,9999,639096944
69,3,2,T1_SMS_8,0,5,42,127,725307660
69,3,2,T1_SMS_8,1,5,42,127,726107492
69,3,2,T1_SMS_8,2,5,42,127,726908440
69,3,2,T1_SMS_8,3,5,42,127,727707972
69,3,2,T1_SMS_8,4,5,42,127,728507652
69,3,2,T1_SMS_8,5,1,48,19,728558340
69,3,2,T1_SMS_8,6,5,42,127,729307460
69,3,2,T1_SMS_8,7,1,48,29,729500288
69,3,2,T1_SMS_8,8,5,42,127,730108388
69,3,2,T1_SMS_8,9,5,42,127,730908144
69,3,2,T1_SMS_8,10,5,42,127,731707976
69,3,2,T1_SMS_8,11,1,48,27,731722236
69,3,2,T1_SMS_8,12,1,48,29,732416416
69,3,2,T1_SMS_8,13,5,42,127,732508656
69,3,2,T1_SMS_8,14,1,48,25,733215848
69,3,2,T1_SMS_8,15,5,42,127,733308356
69,3,2,T1_SMS_8,16,1,48,37,734028000
69,3,2,T1_SMS_8,17,5,42,127,734108312
69,3,2,T1_SMS_8,18,1,48,38,734846376
69,3,2,T1_SMS_8,19,5,42,127,734907672
69,3,2,T1_SMS_8,20,1,48,39,735698472
69,3,2,T1_SMS_8,21,5,42,127,735707484
69,3,2,T1_SMS_8,22,1,48,43,736478684
69,3,2,T1_SMS_8,23,5,42,127,736508408
69,3,2,T1_SMS_8,24,1,48,34,737271012
69,3,2,T1_SMS_8,25,5,42,127,737308440
69,3,2,T1_SMS_8,26,1,48,38,738086224
69,3,2,T1_SMS_8,27,5,42,127,738107952
69,3,2,T1_SMS_8,28,5,42,127,738907468
69,3,2,T1_SMS_8,29,1,48,30,738909580
69,3,2,T1_SMS_8,30,1,48,44,739681004
69,3,2,T1_SMS_8,31,5,42,127,739708192
69,3,2,T1_SMS_8,32,1,48,40,740495096
69,3,2,T1_SMS_8,33,5,42,127,740508224
69,3,2,T1_SMS_8,34,5,42,127,741307964
69,3,2,T1_SMS_8,35,1,48,36,741310484
69,3,2,T1_SMS_8,36,5,42,127,742107472
69,3,2,T1_SMS_8,37,1,48,42,742112312
69,3,2,T1_SMS_8,38,1,48,42,742826680
69,3,2,T1_SMS_8,39,5,42,127,742908172
69,3,2,T1_SMS_8,40,1,48,43,743575248
69,3,2,T1_SMS_8,41,5,42,127,743707964
69,3,2,T1_SMS_8,42,1,48,38,744372368
69,3,2,T1_SMS_8,43,5,42,127,744507920
69,3,2,T1_SMS_8,44,1,48,41,745188032
69,3,2,T1_SMS_8,45,5,42,127,745307432
69,3,2,T1_SMS_8,46,1,48,30,746064432
69,3,2,T1_SMS_8,47,5,42,127,746108324
69,3,2,T1_SMS_8,48,1,48,38,746886928
69,3,2,T1_SMS_8,49,5,42,127,746907908
69,3,2,T1_SMS_8,50,1,48,47,747638716
69,3,2,T1_SMS_8,51,5,42,127,747708012
69,3,2,T1_SMS_8,52,1,48,43,748411744
69,3,2,T1_SMS_8,53,5,42,127,748507432
69,3,2,T1_SMS_8,54,1,48,46,749207144
69,3,2,T1_SMS_8,55,5,42,127,749308212
69,3,2,T1_SMS_8,56,1,48,34,750049660
69,3,2,T1_SMS_8,57,5,42,127,750107964
69,3,2,T1_SMS_8,58,1,48,44,750884320
69,3,2,T1_SMS_8,59,5,42,127,750907844
69,3,2,T1_SMS_8,60,1,48,36,751657132
69,3,2,T1_SMS_8,61,5,42,127,751707504
69,3,2,T1_SMS_8,62,1,48,44,752453120
69,3,2,T1_SMS_8,63,5,42,127,752508156
69,3,2,T1_SMS_8,64,5,42,127,753307900
69,3,2,T1_SMS_8,65,1,48,41,753321560
69,3,2,T1_SMS_8,66,1,48,50,754080140
69,3,2,T1_SMS_8,67,5,42,127,754107700
69,3,2,T1_SMS_8,68,1,48,43,754799912
69,3,2,T1_SMS_8,69,5,42,127,754907788
69,3,2,T1_SMS_8,70,5,42,127,755708220
69,3,2,T1_SMS_8,71,1,48,42,755902244
69,3,2,T1_SMS_8,72,5,42,127,756507952
69,3,2,T1_SMS_8,73,5,42,127,757307632
69,3,2,T1_SMS_8,74,1,48,38,757422896
69,3,2,T1_SMS_8,75,5,42,127,758107592
69,3,2,T1_SMS_8,76,1,48,31,758875192
69,3,2,T1_SMS_8,77,5,42,127,758908236
69,3,2,T1_SMS_8,78,1,48,39,759572528
69,3,2,T1_SMS_8,79,5,42,127,759708028
69,3,2,T1_SMS_8,80,5,42,127,760507708
69,3,2,T1_SMS_8,81,1,48,30,760554584
69,3,2,T1_SMS_8,82,5,42,127,761307592
69,3,2,T1_SMS_8,83,1,48,21,761327768
69,3,2,T1_SMS_8,84,1,48,42,762106940
69,3,2,T1_SMS_8,85,5,42,127,762108588
69,3,2,T1_SMS_8,86,1,48,36,762884924
69,3,2,T1_SMS_8,87,5,42,127,762908000
69,3,2,T1_SMS_8,88,1,48,49,763704336
69,3,2,T1_SMS_8,89,5,42,127,763707736
69,3,2,T1_SMS_8,90,1,48,41,764483948
69,3,2,T1_SMS_8,91,5,42,127,764507468
69,3,2,T1_SMS_8,92,1,48,30,765268100
69,3,2,T1_SMS_8,93,5,42,127,765308472
69,3,2,T1_SMS_8,94,1,48,46,766108064
69,3,2,T1_SMS_8,95,5,42,127,766109400
69,3,2,T1_SMS_8,96,5,42,127,766907796
69,3,2,T1_SMS_8,97,1,48,43,766981072
69,3,2,T1_SMS_8,98,5,42,127,767707456
69,3,2,T1_SMS_8,99,5,42,127,768508480
69,3,2,T1_SMS_8,100,1,48,38,768543684
69,3,2,T1_SMS_8,101,1,48,37,769177808
69,3,2,T1_SMS_8,102,5,42,127,769307896
69,3,2,T1_SMS_8,103,5,42,127,770107800
69,3,2,T1_SMS_8,104,1,48,30,770123704
69,3,2,T1_SMS_8,105,1,48,41,770873832
69,3,2,T1_SMS_8,106,5,42,127,770907476
69,3,2,T1_SMS_8,107,1,48,38,771641252
69,3,2,T1_SMS_8,108,5,42,127,771708552
69,3,2,T1_SMS_8,109,5,42,127,772508292
69,3,2,T1_SMS_8,110,1,48,46,772522332
69,3,2,T1_SMS_8,111,1,48,43,773243284
69,3,2,T1_SMS_8,112,5,42,127,773307720
69,3,2,T1_SMS_8,113,1,48,43,774062688
69,3,2,T1_SMS_8,114,5,42,127,774107604
69,3,2,T1_SMS_8,115,5,42,127,774908388
69,3,2,T1_SMS_8,116,1,48,43,774917344
69,3,2,T1_SMS_8,117,5,42,127,775707976
69,3,2,T1_SMS_8,118,1,48,45,775714832
69,3,2,T1_SMS_8,119,5,42,127,776507708
69,3,2,T1_SMS_8,120,1,48,38,776541296
69,3,2,T1_SMS_8,121,5,42,127,777307468
69,3,2,T1_SMS_8,122,1,48,39,777337732
69,3,2,T1_SMS_8,123,5,42,127,778108248
69,3,2,T1_SMS_8,124,1,48,43,778119816
69,3,2,T1_SMS_8,125,5,42,127,778908428
69,3,2,T1_SMS_8,126,1,48,40,779033464
69,3,2,T1_SMS_8,127,5,42,127,779707792
69,3,2,T1_SMS_8,128,1,48,40,779742324
69,3,2,T1_SMS_8,129,1,48,43,780500600
69,3,2,T1_SMS_8,130,5,42,127,780507592
69,3,2,T1_SMS_8,131,1,48,43,781290160
69,3,2,T1_SMS_8,132,5,42,127,781308296
69,3,2,T1_SMS_8,133,5,42,127,782108112
69,3,2,T1_SMS_8,134,1,48,41,782114072
69,3,2,T1_SMS_8,135,1,48,44,782863672
69,3,2,T1_SMS_8,136,5,42,127,782907688
69,3,2,T1_SMS_8,137,1,48,45,783645904
69,3,2,T1_SMS_8,138,5,42,127,783707520
69,3,2,T1_SMS_8,139,1,48,45,784498172
69,3,2,T1_SMS_8,140,5,42,127,784508228
69,3,2,T1_SMS_8,141,1,48,42,785252052
69,3,2,T1_SMS_8,142,5,42,127,785308112
69,3,2,T1_SMS_8,143,1,48,35,785983392
69,3,2,T1_SMS_8,144,5,42,127,786107832
69,3,2,T1_SMS_8,145,1,48,39,786804996
69,3,2,T1_SMS_8,146,5,42,127,786907488
69,3,2,T1_SMS_8,147,1,48,43,787708364
69,3,2,T1_SMS_8,148,5,42,127,787709552
69,3,2,T1_SMS_8,149,1,48,48,788497736
69,3,2,T1_SMS_8,150,5,42,127,788507944
69,3,2,T1_SMS_8,151,1,48,51,789266504
69,3,2,T1_SMS_8,152,5,42,127,789307752
69,3,2,T1_SMS_8,153,5,42,127,790107592
69,3,2,T1_SMS_8,154,1,48,51,790110636
69,3,2,T1_SMS_8,155,1,48,43,790897412
69,3,2,T1_SMS_8,156,5,42,127,790908140
69,3,2,T1_SMS_8,157,1,48,43,791706364
69,3,2,T1_SMS_8,158,5,42,127,791707876
69,3,2,T1_SMS_8,159,5,42,127,792507688
69,3,2,T1_SMS_8,160,1,48,40,792511856
69,3,2,T1_SMS_8,161,5,42,127,793307496
69,3,2,T1_SMS_8,162,1,48,30,793368284
69,3,2,T1_SMS_8,163,1,48,48,794091032
69,3,2,T1_SMS_8,164,5,42,127,794108124
69,3,2,T1_SMS_8,165,1,48,41,794792336
69,3,2,T1_SMS_8,166,5,42,127,794907992
69,3,2,T1_SMS_8,167,1,48,43,795554968
69,3,2,T1_SMS_8,168,5,42,127,795707876
69,3,2,T1_SMS_8,169,1,48,30,796471012
69,3,2,T1_SMS_8,170,5,42,127,796507424
69,3,2,T1_SMS_8,171,5,42,127,797308212
69,3,2,T1_SMS_8,172,1,48,47,797354412
69,3,2,T1_SMS_8,173,1,48,43,798047164
69,3,2,T1_SMS_8,174,5,42,127,798107936
69,3,2,T1_SMS_8,175,1,48,43,798818252
69,3,2,T1_SMS_8,176,5,42,127,798907748
69,3,2,T1_SMS_8,177,1,48,39,799648884
69,3,2,T1_SMS_8,178,5,42,127,799707628
69,3,2,T1_SMS_8,179,5,42,127,800508264
69,3,2,T1_SMS_8,180,1,48,44,800522528
69,3,2,T1_SMS_8,181,1,48,42,801279684
69,3,2,T1_SMS_8,182,5,42,127,801307916
69,3,2,T1_SMS_8,183,1,48,34,802029452
69,3,2,T1_SMS_8,184,5,42,127,802107800
69,3,2,T1_SMS_8,185,1,48,37,802879076
69,3,2,T1_SMS_8,186,5,42,127,802907484
69,3,2,T1_SMS_8,187,1,48,50,803689904
69,3,2,T1_SMS_8,188,5,42,127,803708340
69,3,2,T1_SMS_8,189,1,48,39,804451716
69,3,2,T1_SMS_8,190,5,42,127,804507920
69,3,2,T1_SMS_8,191,1,48,46,805277400
69,3,2,T1_SMS_8,192,5,42,127,805307804
69,3,2,T1_SMS_8,193,1,48,43,806059856
69,3,2,T1_SMS_8,194,5,42,127,806107612
69,3,2,T1_SMS_8,195,5,42,127,806908176
69,3,2,T1_SMS_8,196,1,48,42,806921316
69,3,2,T1_SMS_8,197,1,48,38,807641300
69,3,2,T1_SMS_8,198,5,42,127,807707904
69,3,2,T1_SMS_8,199,1,48,36,808423824
69,3,2,T1_SMS_8,200,5,42,127,808507636
69,3,2,T1_SMS_8,201,1,48,43,809257668
69,3,2,T1_SMS_8,202,5,42,127,809307688
69,3,2,T1_SMS_8,203,1,48,43,810067572
69,3,2,T1_SMS_8,204,5,42,127,810108172
69,3,2,T1_SMS_8,205,5,42,127,810907912
69,3,2,T1_SMS_8,206,1,48,40,810958004
69,3,2,T1_SMS_8,207,1,48,45,811707040
69,3,2,T1_SMS_8,208,5,42,127,811708612
69,3,2,T1_SMS_8,209,5,42,127,812507604
69,3,2,T1_SMS_8,210,1,48,48,812542508
69,3,2,T1_SMS_8,211,5,42,127,813308456
69,3,2,T1_SMS_8,212,1,48,43,813388320
69,3,2,T1_SMS_8,213,5,42,127,814108116
69,3,2,T1_SMS_8,214,1,48,31,814131876
69,3,2,T1_SMS_8,215,1,48,40,814844524
69,3,2,T1_SMS_8,216,5,42,127,814907692
69,3,2,T1_SMS_8,217,1,48,39,815637452
69,3,2,T1_SMS_8,218,5,42,127,815707600
69,3,2,T1_SMS_8,219,1,48,45,816502888
69,3,2,T1_SMS_8,220,5,42,127,816508456
69,3,2,T1_SMS_8,221,1,48,40,817271056
69,3,2,T1_SMS_8,222,5,42,127,817308188
69,3,2,T1_SMS_8,223,1,48,45,818043188
69,3,2,T1_SMS_8,224,5,42,127,818107848
69,3,2,T1_SMS_8,225,1,48,36,818801784
69,3,2,T1_SMS_8,226,5,42,127,818907564
69,3,2,T1_SMS_8,227,1,48,39,819636748
69,3,2,T1_SMS_8,228,5,42,127,819708288
69,3,2,T1_SMS_8,229,1,48,41,820387264
69,3,2,T1_SMS_8,230,5,42,127,820508152
69,3,2,T1_SMS_8,231,1,48,35,821189988
69,3,2,T1_SMS_8,0,9999,9999,9999,725305444
69,3,2,T1_SMS_8,1,9999,9999,9999,726105200
69,3,2,T1_SMS_8,2,9999,9999,9999,726905924
69,3,2,T1_SMS_8,3,9999,9999,9999,727705680
69,3,2,T1_SMS_8,4,9999,9999,9999,728505436
69,3,2,T1_SMS_8,5,9999,9999,9999,729305168
69,3,2,T1_SMS_8,6,9999,9999,9999,730105948
69,3,2,T1_SMS_8,7,9999,9999,9999,730905704
69,3,2,T1_SMS_8,8,9999,9999,9999,731705460
69,3,2,T1_SMS_8,9,9999,9999,9999,732505184
69,3,2,T1_SMS_8,10,9999,9999,9999,733305916
69,3,2,T1_SMS_8,11,9999,9999,9999,734105648
69,3,2,T1_SMS_8,12,9999,9999,9999,734905456
69,3,2,T1_SMS_8,13,9999,9999,9999,735705192
69,3,2,T1_SMS_8,14,9999,9999,9999,736505968
69,3,2,T1_SMS_8,15,9999,9999,9999,737305704
69,3,2,T1_SMS_8,16,9999,9999,9999,738105436
69,3,2,T1_SMS_8,17,9999,9999,9999,738905176
69,3,2,T1_SMS_8,18,9999,9999,9999,739705976
69,3,2,T1_SMS_8,19,9999,9999,9999,740505708
69,3,2,T1_SMS_8,20,9999,9999,9999,741305448
69,3,2,T1_SMS_8,21,9999,9999,9999,742105180
69,3,2,T1_SMS_8,22,9999,9999,9999,742905956
69,3,2,T1_SMS_8,23,9999,9999,9999,743705672
69,3,2,T1_SMS_8,24,9999,9999,9999,744505404
69,3,2,T1_SMS_8,25,9999,9999,9999,745305140
69,3,2,T1_SMS_8,26,9999,9999,9999,746105956
69,3,2,T1_SMS_8,27,9999,9999,9999,746905692
69,3,2,T1_SMS_8,28,9999,9999,9999,747705424
69,3,2,T1_SMS_8,29,9999,9999,9999,748505144
69,3,2,T1_SMS_8,30,9999,9999,9999,749305920
69,3,2,T1_SMS_8,31,9999,9999,9999,750105672
69,3,2,T1_SMS_8,32,9999,9999,9999,750905404
69,3,2,T1_SMS_8,33,9999,9999,9999,751705136
69,3,2,T1_SMS_8,34,9999,9999,9999,752505940
69,3,2,T1_SMS_8,35,9999,9999,9999,753305680
69,3,2,T1_SMS_8,36,9999,9999,9999,754105408
69,3,2,T1_SMS_8,37,9999,9999,9999,754905200
69,3,2,T1_SMS_8,38,9999,9999,9999,755705928
69,3,2,T1_SMS_8,39,9999,9999,9999,756505660
69,3,2,T1_SMS_8,40,9999,9999,9999,757305416
69,3,2,T1_SMS_8,41,9999,9999,9999,758105148
69,3,2,T1_SMS_8,42,9999,9999,9999,758905944
69,3,2,T1_SMS_8,43,9999,9999,9999,759705664
69,3,2,T1_SMS_8,44,9999,9999,9999,760505416
69,3,2,T1_SMS_8,45,9999,9999,9999,761305152
69,3,2,T1_SMS_8,46,9999,9999,9999,762105932
69,3,2,T1_SMS_8,47,9999,9999,9999,762905708
69,3,2,T1_SMS_8,48,9999,9999,9999,763705440
69,3,2,T1_SMS_8,49,9999,9999,9999,764505176
69,3,2,T1_SMS_8,50,9999,9999,9999,765305956
69,3,2,T1_SMS_8,51,9999,9999,9999,766105696
69,3,2,T1_SMS_8,52,9999,9999,9999,766905432
69,3,2,T1_SMS_8,53,9999,9999,9999,767705164
69,3,2,T1_SMS_8,54,9999,9999,9999,768505968
69,3,2,T1_SMS_8,55,9999,9999,9999,769305680
69,3,2,T1_SMS_8,56,9999,9999,9999,770105436
69,3,2,T1_SMS_8,57,9999,9999,9999,770905160
69,3,2,T1_SMS_8,58,9999,9999,9999,771705964
69,3,2,T1_SMS_8,59,9999,9999,9999,772505704
69,3,2,T1_SMS_8,60,9999,9999,9999,773305432
69,3,2,T1_SMS_8,61,9999,9999,9999,774105164
69,3,2,T1_SMS_8,62,9999,9999,9999,774905948
69,3,2,T1_SMS_8,63,9999,9999,9999,775705684
69,3,2,T1_SMS_8,64,9999,9999,9999,776505416
69,3,2,T1_SMS_8,65,9999,9999,9999,777305148
69,3,2,T1_SMS_8,66,9999,9999,9999,778105956
69,3,2,T1_SMS_8,67,9999,9999,9999,778905688
69,3,2,T1_SMS_8,68,9999,9999,9999,779705424
69,3,2,T1_SMS_8,69,9999,9999,9999,780505152
69,3,2,T1_SMS_8,70,9999,9999,9999,781305932
69,3,2,T1_SMS_8,71,9999,9999,9999,782105672
69,3,2,T1_SMS_8,72,9999,9999,9999,782905396
69,3,2,T1_SMS_8,73,9999,9999,9999,783705204
69,3,2,T1_SMS_8,74,9999,9999,9999,784505936
69,3,2,T1_SMS_8,75,9999,9999,9999,785305672
69,3,2,T1_SMS_8,76,9999,9999,9999,786105388
69,3,2,T1_SMS_8,77,9999,9999,9999,786905196
69,3,2,T1_SMS_8,78,9999,9999,9999,787705924
69,3,2,T1_SMS_8,79,9999,9999,9999,788505652
69,3,2,T1_SMS_8,80,9999,9999,9999,789305460
69,3,2,T1_SMS_8,81,9999,9999,9999,790105200
69,3,2,T1_SMS_8,82,9999,9999,9999,790905924
69,3,2,T1_SMS_8,83,9999,9999,9999,791705672
69,3,2,T1_SMS_8,84,9999,9999,9999,792505400
69,3,2,T1_SMS_8,85,9999,9999,9999,793305204
69,3,2,T1_SMS_8,86,9999,9999,9999,794105904
69,3,2,T1_SMS_8,87,9999,9999,9999,794905700
69,3,2,T1_SMS_8,88,9999,9999,9999,795705432
69,3,2,T1_SMS_8,89,9999,9999,9999,796505208
69,3,2,T1_SMS_8,90,9999,9999,9999,797305920
69,3,2,T1_SMS_8,91,9999,9999,9999,798105648
69,3,2,T1_SMS_8,92,9999,9999,9999,798905456
69,3,2,T1_SMS_8,93,9999,9999,9999,799705188
69,3,2,T1_SMS_8,94,9999,9999,9999,800505976
69,3,2,T1_SMS_8,95,9999,9999,9999,801305700
69,3,2,T1_SMS_8,96,9999,9999,9999,802105436
69,3,2,T1_SMS_8,97,9999,9999,9999,802905192
69,3,2,T1_SMS_8,98,9999,9999,9999,803705972
69,3,2,T1_SMS_8,99,9999,9999,9999,804505704
69,3,2,T1_SMS_8,100,9999,9999,9999,805305440
69,3,2,T1_SMS_8,101,9999,9999,9999,806105172
69,3,2,T1_SMS_8,102,9999,9999,9999,806905960
69,3,2,T1_SMS_8,103,9999,9999,9999,807705684
69,3,2,T1_SMS_8,104,9999,9999,9999,808505416
69,3,2,T1_SMS_8,105,9999,9999,9999,809305176
69,3,2,T1_SMS_8,106,9999,9999,9999,810105956
69,3,2,T1_SMS_8,107,9999,9999,9999,810905692
69,3,2,T1_SMS_8,108,9999,9999,9999,811705428
69,3,2,T1_SMS_8,109,9999,9999,9999,812505164
69,3,2,T1_SMS_8,110,9999,9999,9999,813305940
69,3,2,T1_SMS_8,111,9999,9999,9999,814105676
69,3,2,T1_SMS_8,112,9999,9999,9999,814905400
69,3,2,T1_SMS_8,113,9999,9999,9999,815705160
69,3,2,T1_SMS_8,114,9999,9999,9999,816505940
69,3,2,T1_SMS_8,115,9999,9999,9999,817305672
69,3,2,T1_SMS_8,116,9999,9999,9999,818105408
69,3,2,T1_SMS_8,117,9999,9999,9999,818905200
69,3,2,T1_SMS_8,118,9999,9999,9999,819705920
69,3,2,T1_SMS_8,119,9999,9999,9999,820505712
69,4,4,T1_SMS_5,0,5,42,127,884457100
69,4,4,T1_SMS_5,1,5,42,127,884956444
69,4,4,T1_SMS_5,2,5,42,127,885457132
69,4,4,T1_SMS_5,3,5,42,127,885957000
69,4,4,T1_SMS_5,4,5,42,127,886456864
69,4,4,T1_SMS_5,5,1,48,42,886530368
69,4,4,T1_SMS_5,6,1,48,31,886926000
69,4,4,T1_SMS_5,7,5,42,127,886957600
69,4,4,T1_SMS_5,8,1,48,27,887423300
69,4,4,T1_SMS_5,9,5,42,127,887456996
69,4,4,T1_SMS_5,10,1,48,37,887955792
69,4,4,T1_SMS_5,11,5,42,127,887957288
69,4,4,T1_SMS_5,12,5,42,127,888456468
69,4,4,T1_SMS_5,13,1,48,39,888497732
69,4,4,T1_SMS_5,14,5,42,127,888957284
69,4,4,T1_SMS_5,15,1,48,40,888958324
69,4,4,T1_SMS_5,16,1,48,40,889444372
69,4,4,T1_SMS_5,17,5,42,127,889456900
69,4,4,T1_SMS_5,18,1,48,43,889957268
69,4,4,T1_SMS_5,19,5,42,127,889958384
69,4,4,T1_SMS_5,20,1,48,42,890450764
69,4,4,T1_SMS_5,21,5,42,127,890456364
69,4,4,T1_SMS_5,22,5,42,127,890957308
69,4,4,T1_SMS_5,23,1,48,39,890995904
69,4,4,T1_SMS_5,24,5,42,127,891456852
69,4,4,T1_SMS_5,25,1,48,44,891468200
69,4,4,T1_SMS_5,26,1,48,41,891939904
69,4,4,T1_SMS_5,27,5,42,127,891956692
69,4,4,T1_SMS_5,28,1,48,44,892445276
69,4,4,T1_SMS_5,29,5,42,127,892457504
69,4,4,T1_SMS_5,30,5,42,127,892956912
69,4,4,T1_SMS_5,31,1,48,40,892965632
69,4,4,T1_SMS_5,32,5,42,127,893456604
69,4,4,T1_SMS_5,33,1,48,39,893458016
69,4,4,T1_SMS_5,34,5,42,127,893956672
69,4,4,T1_SMS_5,35,1,48,43,893980356
69,4,4,T1_SMS_5,36,1,48,47,894427900
69,4,4,T1_SMS_5,37,5,42,127,894457108
69,4,4,T1_SMS_5,38,1,48,43,894949212
69,4,4,T1_SMS_5,39,5,42,127,894956880
69,4,4,T1_SMS_5,40,1,48,42,895445092
69,4,4,T1_SMS_5,41,5,42,127,895456724
69,4,4,T1_SMS_5,42,5,42,127,895957472
69,4,4,T1_SMS_5,43,1,48,43,895974876
69,4,4,T1_SMS_5,44,1,48,42,896433860
69,4,4,T1_SMS_5,45,5,42,127,896457012
69,4,4,T1_SMS_5,46,1,48,44,896956112
69,4,4,T1_SMS_5,47,5,42,127,896957604
69,4,4,T1_SMS_5,48,1,48,45,897439312
69,4,4,T1_SMS_5,49,5,42,127,897456628
69,4,4,T1_SMS_5,50,5,42,127,897957376
69,4,4,T1_SMS_5,51,1,48,40,897970140
69,4,4,T1_SMS_5,52,5,42,127,898456848
69,4,4,T1_SMS_5,53,1,48,41,898502896
69,4,4,T1_SMS_5,54,5,42,127,898956616
69,4,4,T1_SMS_5,55,1,48,42,898970952
69,4,4,T1_SMS_5,56,5,42,127,899457508
69,4,4,T1_SMS_5,57,1,48,30,899507672
69,4,4,T1_SMS_5,58,1,48,46,899954928
69,4,4,T1_SMS_5,59,5,42,127,899957048
69,4,4,T1_SMS_5,60,1,48,50,900412024
69,4,4,T1_SMS_5,61,5,42,127,900456740
69,4,4,T1_SMS_5,62,1,48,48,900956664
69,4,4,T1_SMS_5,63,5,42,127,900957928
69,4,4,T1_SMS_5,64,5,42,127,901457232
69,4,4,T1_SMS_5,65,1,48,46,901486708
69,4,4,T1_SMS_5,66,5,42,127,901956852
69,4,4,T1_SMS_5,67,1,48,48,901971044
69,4,4,T1_SMS_5,68,1,48,50,902431900
69,4,4,T1_SMS_5,69,5,42,127,902456616
69,4,4,T1_SMS_5,70,1,48,50,902883720
69,4,4,T1_SMS_5,71,5,42,127,902957656
69,4,4,T1_SMS_5,72,1,48,41,903437424
69,4,4,T1_SMS_5,73,5,42,127,903457052
69,4,4,T1_SMS_5,74,1,48,43,903932328
69,4,4,T1_SMS_5,75,5,42,127,903956896
69,4,4,T1_SMS_5,76,5,42,127,904456448
69,4,4,T1_SMS_5,77,1,48,39,904466896
69,4,4,T1_SMS_5,78,5,42,127,904957484
69,4,4,T1_SMS_5,79,1,48,48,904972348
69,4,4,T1_SMS_5,80,1,48,45,905410916
69,4,4,T1_SMS_5,81,5,42,127,905457100
69,4,4,T1_SMS_5,82,5,42,127,905956728
69,4,4,T1_SMS_5,83,1,48,33,905970016
69,4,4,T1_SMS_5,84,5,42,127,906456420
69,4,4,T1_SMS_5,85,1,48,48,906487364
69,4,4,T1_SMS_5,86,1,48,40,906937824
69,4,4,T1_SMS_5,87,5,42,127,906957528
69,4,4,T1_SMS_5,88,5,42,127,907457008
69,4,4,T1_SMS_5,89,1,48,45,907463792
69,4,4,T1_SMS_5,90,1,48,48,907949108
69,4,4,T1_SMS_5,91,5,42,127,907956620
69,4,4,T1_SMS_5,92,1,48,50,908442436
69,4,4,T1_SMS_5,93,5,42,127,908457656
69,4,4,T1_SMS_5,94,1,48,41,908943856
69,4,4,T1_SMS_5,95,5,42,127,908957128
69,4,4,T1_SMS_5,96,1,48,45,909399792
69,4,4,T1_SMS_5,97,5,42,127,909456752
69,4,4,T1_SMS_5,98,1,48,44,909913400
69,4,4,T1_SMS_5,99,5,42,127,909956444
69,4,4,T1_SMS_5,100,1,48,46,910418532
69,4,4,T1_SMS_5,101,5,42,127,910457408
69,4,4,T1_SMS_5,102,1,48,49,910937252
69,4,4,T1_SMS_5,103,5,42,127,910956880
69,4,4,T1_SMS_5,104,1,48,48,911391364
69,4,4,T1_SMS_5,105,5,42,127,911456576
69,4,4,T1_SMS_5,106,1,48,44,911954636
69,4,4,T1_SMS_5,107,5,42,127,911957440
69,4,4,T1_SMS_5,108,5,42,127,912457340
69,4,4,T1_SMS_5,109,1,48,47,912465692
69,4,4,T1_SMS_5,110,5,42,127,912956740
69,4,4,T1_SMS_5,111,1,48,49,912965840
69,4,4,T1_SMS_5,112,1,48,49,913432156
69,4,4,T1_SMS_5,113,5,42,127,913456500
69,4,4,T1_SMS_5,114,5,42,127,913957396
69,4,4,T1_SMS_5,115,1,48,43,913967992
69,4,4,T1_SMS_5,116,5,42,127,914456868
69,4,4,T1_SMS_5,117,1,48,45,914493644
69,4,4,T1_SMS_5,118,5,42,127,914956636
69,4,4,T1_SMS_5,119,1,48,49,915012336
69,4,4,T1_SMS_5,120,1,48,49,915431756
69,4,4,T1_SMS_5,121,5,42,127,915457372
69,4,4,T1_SMS_5,122,1,48,46,915943720
69,4,4,T1_SMS_5,123,5,42,127,915957364
69,4,4,T1_SMS_5,124,1,48,48,916404292
69,4,4,T1_SMS_5,125,5,42,127,916456912
69,4,4,T1_SMS_5,126,1,48,48,916893216
69,4,4,T1_SMS_5,127,5,42,127,916956532
69,4,4,T1_SMS_5,128,1,48,36,917451256
69,4,4,T1_SMS_5,129,5,42,127,917457124
69,4,4,T1_SMS_5,130,1,48,43,917915416
69,4,4,T1_SMS_5,131,5,42,127,917956968
69,4,4,T1_SMS_5,132,1,48,49,918388560
69,4,4,T1_SMS_5,133,5,42,127,918456736
69,4,4,T1_SMS_5,134,1,48,41,918901868
69,4,4,T1_SMS_5,135,5,42,127,918957480
69,4,4,T1_SMS_5,136,1,48,49,919386000
69,4,4,T1_SMS_5,137,5,42,127,919457172
69,4,4,T1_SMS_5,138,1,48,46,919901336
69,4,4,T1_SMS_5,139,5,42,127,919956720
69,4,4,T1_SMS_5,140,1,48,46,920445900
69,4,4,T1_SMS_5,141,5,42,127,920456636
69,4,4,T1_SMS_5,142,5,42,127,920957312
69,4,4,T1_SMS_5,143,1,48,45,920972168
69,4,4,T1_SMS_5,144,1,48,45,921443872
69,4,4,T1_SMS_5,145,5,42,127,921457148
69,4,4,T1_SMS_5,146,5,42,127,921956628
69,4,4,T1_SMS_5,147,1,48,45,921967148
69,4,4,T1_SMS_5,148,1,48,46,922428804
69,4,4,T1_SMS_5,149,5,42,127,922456540
69,4,4,T1_SMS_5,150,1,48,41,922952812
69,4,4,T1_SMS_5,151,5,42,127,922957036
69,4,4,T1_SMS_5,152,5,42,127,923456960
69,4,4,T1_SMS_5,153,1,48,45,923467332
69,4,4,T1_SMS_5,154,1,48,44,923916820
69,4,4,T1_SMS_5,155,5,42,127,923956720
69,4,4,T1_SMS_5,156,1,48,43,924406040
69,4,4,T1_SMS_5,157,5,42,127,924457316
69,4,4,T1_SMS_5,158,5,42,127,924956940
69,4,4,T1_SMS_5,159,1,48,40,924957908
69,4,4,T1_SMS_5,160,5,42,127,925456636
69,4,4,T1_SMS_5,161,1,48,44,925480324
69,4,4,T1_SMS_5,162,1,48,42,925898844
69,4,4,T1_SMS_5,163,5,42,127,925956400
69,4,4,T1_SMS_5,164,1,48,37,926418584
69,4,4,T1_SMS_5,165,5,42,127,926457064
69,4,4,T1_SMS_5,166,1,48,38,926922092
69,4,4,T1_SMS_5,167,5,42,127,926956984
69,4,4,T1_SMS_5,168,1,48,39,927433380
69,4,4,T1_SMS_5,169,5,42,127,927456676
69,4,4,T1_SMS_5,170,1,48,40,927936820
69,4,4,T1_SMS_5,171,5,42,127,927957496
69,4,4,T1_SMS_5,172,1,48,46,928419908
69,4,4,T1_SMS_5,173,5,42,127,928457264
69,4,4,T1_SMS_5,174,1,48,37,928942036
69,4,4,T1_SMS_5,175,5,42,127,928956888
69,4,4,T1_SMS_5,176,1,48,47,929441436
69,4,4,T1_SMS_5,177,5,42,127,929456360
69,4,4,T1_SMS_5,178,1,48,49,929885260
69,4,4,T1_SMS_5,179,5,42,127,929957172
69,4,4,T1_SMS_5,180,5,42,127,930456948
69,4,4,T1_SMS_5,181,1,48,37,930465976
69,4,4,T1_SMS_5,182,5,42,127,930956792
69,4,4,T1_SMS_5,183,1,48,44,930985712
69,4,4,T1_SMS_5,184,1,48,40,931414112
69,4,4,T1_SMS_5,185,5,42,127,931457380
69,4,4,T1_SMS_5,186,5,42,127,931957084
69,4,4,T1_SMS_5,187,1,48,33,932001116
69,4,4,T1_SMS_5,188,5,42,127,932456776
69,4,4,T1_SMS_5,189,1,48,46,932502004
69,4,4,T1_SMS_5,190,5,42,127,932956544
69,4,4,T1_SMS_5,191,1,48,42,932994144
69,4,4,T1_SMS_5,192,5,42,127,933457112
69,4,4,T1_SMS_5,193,1,48,38,933470280
69,4,4,T1_SMS_5,194,5,42,127,933956884
69,4,4,T1_SMS_5,195,1,48,36,934001608
69,4,4,T1_SMS_5,196,1,48,44,934432596
69,4,4,T1_SMS_5,197,5,42,127,934456644
69,4,4,T1_SMS_5,198,1,48,40,934903716
69,4,4,T1_SMS_5,199,5,42,127,934957460
69,4,4,T1_SMS_5,200,1,48,45,935405588
69,4,4,T1_SMS_5,201,5,42,127,935457008
69,4,4,T1_SMS_5,202,1,48,46,935907872
69,4,4,T1_SMS_5,203,5,42,127,935956752
69,4,4,T1_SMS_5,204,1,48,50,936397848
69,4,4,T1_SMS_5,205,5,42,127,936456596
69,4,4,T1_SMS_5,206,1,48,50,936889012
69,4,4,T1_SMS_5,207,5,42,127,936957188
69,4,4,T1_SMS_5,208,1,48,46,937401796
69,4,4,T1_SMS_5,209,5,42,127,937456960
69,4,4,T1_SMS_5,210,1,48,48,937892068
69,4,4,T1_SMS_5,211,5,42,127,937956800
69,4,4,T1_SMS_5,212,1,48,45,938409860
69,4,4,T1_SMS_5,213,5,42,127,938456348
69,4,4,T1_SMS_5,214,1,48,47,938899684
69,4,4,T1_SMS_5,215,5,42,127,938957164
69,4,4,T1_SMS_5,216,1,48,42,939344524
69,4,4,T1_SMS_5,217,5,42,127,939456992
69,4,4,T1_SMS_5,218,1,48,45,939931688
69,4,4,T1_SMS_5,219,5,42,127,939956704
69,4,4,T1_SMS_5,220,5,42,127,940457376
69,4,4,T1_SMS_5,221,1,48,50,940494600
69,4,4,T1_SMS_5,222,5,42,127,940957000
69,4,4,T1_SMS_5,223,1,48,47,940966024
69,4,4,T1_SMS_5,224,5,42,127,941456696
69,4,4,T1_SMS_5,225,1,48,40,941460488
69,4,4,T1_SMS_5,226,1,48,41,941912812
69,4,4,T1_SMS_5,227,5,42,127,941956756
69,4,4,T1_SMS_5,228,1,48,47,942399996
69,4,4,T1_SMS_5,229,5,42,127,942457052
69,4,4,T1_SMS_5,230,1,48,40,942934052
69,4,4,T1_SMS_5,231,5,42,127,942956824
69,4,4,T1_SMS_5,232,1,48,44,943402896
69,4,4,T1_SMS_5,233,5,42,127,943456816
69,4,4,T1_SMS_5,234,1,48,44,943933112
69,4,4,T1_SMS_5,235,5,42,127,943957260
69,4,4,T1_SMS_5,236,1,48,36,944435500
69,4,4,T1_SMS_5,237,5,42,127,944457004
69,4,4,T1_SMS_5,238,1,48,41,944925692
69,4,4,T1_SMS_5,239,5,42,127,944956848
69,4,4,T1_SMS_5,240,1,48,26,945442668
69,4,4,T1_SMS_5,241,5,42,127,945456768
69,4,4,T1_SMS_5,242,1,48,49,945906916
69,4,4,T1_SMS_5,243,5,42,127,945957136
69,4,4,T1_SMS_5,244,1,48,40,946411696
69,4,4,T1_SMS_5,245,5,42,127,946456908
69,4,4,T1_SMS_5,246,1,48,36,946932332
69,4,4,T1_SMS_5,247,5,42,127,946956752
69,4,4,T1_SMS_5,248,1,48,43,947414744
69,4,4,T1_SMS_5,249,5,42,127,947457416
69,4,4,T1_SMS_5,250,1,48,42,947905544
69,4,4,T1_SMS_5,251,5,42,127,947957112
69,4,4,T1_SMS_5,252,1,48,42,948431264
69,4,4,T1_SMS_5,253,5,42,127,948456880
69,4,4,T1_SMS_5,254,1,48,40,948910912
69,4,4,T1_SMS_5,255,5,42,127,948956724
69,4,4,T1_SMS_5,256,1,48,41,949370592
69,4,4,T1_SMS_5,0,9999,9999,9999,884454512
69,4,4,T1_SMS_5,1,9999,9999,9999,884954228
69,4,4,T1_SMS_5,2,9999,9999,9999,885454916
69,4,4,T1_SMS_5,3,9999,9999,9999,885954632
69,4,4,T1_SMS_5,4,9999,9999,9999,886454352
69,4,4,T1_SMS_5,5,9999,9999,9999,886955088
69,4,4,T1_SMS_5,6,9999,9999,9999,887454780
69,4,4,T1_SMS_5,7,9999,9999,9999,887954484
69,4,4,T1_SMS_5,8,9999,9999,9999,888454252
69,4,4,T1_SMS_5,9,9999,9999,9999,888954996
69,4,4,T1_SMS_5,10,9999,9999,9999,889454684
69,4,4,T1_SMS_5,11,9999,9999,9999,889954384
69,4,4,T1_SMS_5,12,9999,9999,9999,890454072
69,4,4,T1_SMS_5,13,9999,9999,9999,890954868
69,4,4,T1_SMS_5,14,9999,9999,9999,891454564
69,4,4,T1_SMS_5,15,9999,9999,9999,891954252
69,4,4,T1_SMS_5,16,9999,9999,9999,892454992
69,4,4,T1_SMS_5,17,9999,9999,9999,892954696
69,4,4,T1_SMS_5,18,9999,9999,9999,893454388
69,4,4,T1_SMS_5,19,9999,9999,9999,893954156
69,4,4,T1_SMS_5,20,9999,9999,9999,894454892
69,4,4,T1_SMS_5,21,9999,9999,9999,894954588
69,4,4,T1_SMS_5,22,9999,9999,9999,895454284
69,4,4,T1_SMS_5,23,9999,9999,9999,895955032
69,4,4,T1_SMS_5,24,9999,9999,9999,896454720
69,4,4,T1_SMS_5,25,9999,9999,9999,896954424
69,4,4,T1_SMS_5,26,9999,9999,9999,897454188
69,4,4,T1_SMS_5,27,9999,9999,9999,897954936
69,4,4,T1_SMS_5,28,9999,9999,9999,898454632
69,4,4,T1_SMS_5,29,9999,9999,9999,898954324
69,4,4,T1_SMS_5,30,9999,9999,9999,899455068
69,4,4,T1_SMS_5,31,9999,9999,9999,899954796
69,4,4,T1_SMS_5,32,9999,9999,9999,900454448
69,4,4,T1_SMS_5,33,9999,9999,9999,900954224
69,4,4,T1_SMS_5,34,9999,9999,9999,901454940
69,4,4,T1_SMS_5,35,9999,9999,9999,901954636
69,4,4,T1_SMS_5,36,9999,9999,9999,902454328
69,4,4,T1_SMS_5,37,9999,9999,9999,902955068
69,4,4,T1_SMS_5,38,9999,9999,9999,903454836
69,4,4,T1_SMS_5,39,9999,9999,9999,903954532
69,4,4,T1_SMS_5,40,9999,9999,9999,904454232
69,4,4,T1_SMS_5,41,9999,9999,9999,904954972
69,4,4,T1_SMS_5,42,9999,9999,9999,905454660
69,4,4,T1_SMS_5,43,9999,9999,9999,905954360
69,4,4,T1_SMS_5,44,9999,9999,9999,906454132
69,4,4,T1_SMS_5,45,9999,9999,9999,906954864
69,4,4,T1_SMS_5,46,9999,9999,9999,907454568
69,4,4,T1_SMS_5,47,9999,9999,9999,907954256
69,4,4,T1_SMS_5,48,9999,9999,9999,908454996
69,4,4,T1_SMS_5,49,9999,9999,9999,908954692
69,4,4,T1_SMS_5,50,9999,9999,9999,909454388
69,4,4,T1_SMS_5,51,9999,9999,9999,909954156
69,4,4,T1_SMS_5,52,9999,9999,9999,910454896
69,4,4,T1_SMS_5,53,9999,9999,9999,910954592
69,4,4,T1_SMS_5,54,9999,9999,9999,911454284
69,4,4,T1_SMS_5,55,9999,9999,9999,911955004
69,4,4,T1_SMS_5,56,9999,9999,9999,912454752
69,4,4,T1_SMS_5,57,9999,9999,9999,912954448
69,4,4,T1_SMS_5,58,9999,9999,9999,913454136
69,4,4,T1_SMS_5,59,9999,9999,9999,913954884
69,4,4,T1_SMS_5,60,9999,9999,9999,914454576
69,4,4,T1_SMS_5,61,9999,9999,9999,914954348
69,4,4,T1_SMS_5,62,9999,9999,9999,915455080
69,4,4,T1_SMS_5,63,9999,9999,9999,915954776
69,4,4,T1_SMS_5,64,9999,9999,9999,916454472
69,4,4,T1_SMS_5,65,9999,9999,9999,916954168
69,4,4,T1_SMS_5,66,9999,9999,9999,917454908
69,4,4,T1_SMS_5,67,9999,9999,9999,917954676
69,4,4,T1_SMS_5,68,9999,9999,9999,918454372
69,4,4,T1_SMS_5,69,9999,9999,9999,918955116
69,4,4,T1_SMS_5,70,9999,9999,9999,919454808
69,4,4,T1_SMS_5,71,9999,9999,9999,919954504
69,4,4,T1_SMS_5,72,9999,9999,9999,920454200
69,4,4,T1_SMS_5,73,9999,9999,9999,920954948
69,4,4,T1_SMS_5,74,9999,9999,9999,921454712
69,4,4,T1_SMS_5,75,9999,9999,9999,921954412
69,4,4,T1_SMS_5,76,9999,9999,9999,922454100
69,4,4,T1_SMS_5,77,9999,9999,9999,922954820
69,4,4,T1_SMS_5,78,9999,9999,9999,923454520
69,4,4,T1_SMS_5,79,9999,9999,9999,923954284
69,4,4,T1_SMS_5,80,9999,9999,9999,924455024
69,4,4,T1_SMS_5,81,9999,9999,9999,924954724
69,4,4,T1_SMS_5,82,9999,9999,9999,925454420
69,4,4,T1_SMS_5,83,9999,9999,9999,925954108
69,4,4,T1_SMS_5,84,9999,9999,9999,926454848
69,4,4,T1_SMS_5,85,9999,9999,9999,926954544
69,4,4,T1_SMS_5,86,9999,9999,9999,927454312
69,4,4,T1_SMS_5,87,9999,9999,9999,927955056
69,4,4,T1_SMS_5,88,9999,9999,9999,928454752
69,4,4,T1_SMS_5,89,9999,9999,9999,928954448
69,4,4,T1_SMS_5,90,9999,9999,9999,929454144
69,4,4,T1_SMS_5,91,9999,9999,9999,929954884
69,4,4,T1_SMS_5,92,9999,9999,9999,930454584
69,4,4,T1_SMS_5,93,9999,9999,9999,930954356
69,4,4,T1_SMS_5,94,9999,9999,9999,931455092
69,4,4,T1_SMS_5,95,9999,9999,9999,931954792
69,4,4,T1_SMS_5,96,9999,9999,9999,932454484
69,4,4,T1_SMS_5,97,9999,9999,9999,932954180
69,4,4,T1_SMS_5,98,9999,9999,9999,933454896
69,4,4,T1_SMS_5,99,9999,9999,9999,933954664
69,4,4,T1_SMS_5,100,9999,9999,9999,934454356
69,4,4,T1_SMS_5,101,9999,9999,9999,934955096
69,4,4,T1_SMS_5,102,9999,9999,9999,935454792
69,4,4,T1_SMS_5,103,9999,9999,9999,935954536
69,4,4,T1_SMS_5,104,9999,9999,9999,936454232
69,4,4,T1_SMS_5,105,9999,9999,9999,936954972
69,4,4,T1_SMS_5,106,9999,9999,9999,937454668
69,4,4,T1_SMS_5,107,9999,9999,9999,937954364
69,4,4,T1_SMS_5,108,9999,9999,9999,938454132
69,4,4,T1_SMS_5,109,9999,9999,9999,938954800
69,4,4,T1_SMS_5,110,9999,9999,9999,939454552
69,4,4,T1_SMS_5,111,9999,9999,9999,939954264
69,4,4,T1_SMS_5,112,9999,9999,9999,940455012
69,4,4,T1_SMS_5,113,9999,9999,9999,940954708
69,4,4,T1_SMS_5,114,9999,9999,9999,941454404
69,4,4,T1_SMS_5,115,9999,9999,9999,941954168
69,4,4,T1_SMS_5,116,9999,9999,9999,942454836
69,4,4,T1_SMS_5,117,9999,9999,9999,942954608
69,4,4,T1_SMS_5,118,9999,9999,9999,943454300
69,4,4,T1_SMS_5,119,9999,9999,9999,943955044
69,4,4,T1_SMS_5,120,9999,9999,9999,944454716
69,4,4,T1_SMS_5,121,9999,9999,9999,944954484
69,4,4,T1_SMS_5,122,9999,9999,9999,945454180
69,4,4,T1_SMS_5,123,9999,9999,9999,945954920
69,4,4,T1_SMS_5,124,9999,9999,9999,946454616
69,4,4,T1_SMS_5,125,9999,9999,9999,946954312
69,4,4,T1_SMS_5,126,9999,9999,9999,947455052
69,4,4,T1_SMS_5,127,9999,9999,9999,947954748
69,4,4,T1_SMS_5,128,9999,9999,9999,948454516
69,4,4,T1_SMS_5,129,9999,9999,9999,948954212
69,5,20,Ticks_Linear_8,0,5,42,127,961704172
69,5,20,Ticks_Linear_8,1,5,42,127,962523460
69,5,20,Ticks_Linear_8,2,5,42,127,963343652
69,5,20,Ticks_Linear_8,3,5,42,127,964164064
69,5,20,Ticks_Linear_8,4,1,48,31,964971808
69,5,20,Ticks_Linear_8,5,5,42,127,964984348
69,5,20,Ticks_Linear_8,6,1,48,16,965758272
69,5,20,Ticks_Linear_8,7,5,42,127,965794332
69,5,20,Ticks_Linear_8,8,1,48,27,966574696
69,5,20,Ticks_Linear_8,9,5,42,127,966604240
69,5,20,Ticks_Linear_8,10,1,48,32,967392544
69,5,20,Ticks_Linear_8,11,5,42,127,967414148
69,5,20,Ticks_Linear_8,12,1,48,30,968179908
69,5,20,Ticks_Linear_8,13,5,42,127,968224060
69,5,20,Ticks_Linear_8,14,1,48,30,969000448
69,5,20,Ticks_Linear_8,15,5,42,127,969034120
69,5,20,Ticks_Linear_8,16,5,42,127,969833724
69,5,20,Ticks_Linear_8,17,1,48,36,969837440
69,5,20,Ticks_Linear_8,18,1,48,40,970568072
69,5,20,Ticks_Linear_8,19,5,42,127,970633740
69,5,20,Ticks_Linear_8,20,1,48,29,971341208
69,5,20,Ticks_Linear_8,21,5,42,127,971434436
69,5,20,Ticks_Linear_8,22,1,48,35,972230516
69,5,20,Ticks_Linear_8,23,5,42,127,972234160
69,5,20,Ticks_Linear_8,24,5,42,127,973033968
69,5,20,Ticks_Linear_8,25,1,48,36,973765512
69,5,20,Ticks_Linear_8,26,5,42,127,973824268
69,5,20,Ticks_Linear_8,27,5,42,127,974613964
69,5,20,Ticks_Linear_8,28,1,48,32,975401672
69,5,20,Ticks_Linear_8,29,5,42,127,975404268
69,5,20,Ticks_Linear_8,30,5,42,127,976194036
69,5,20,Ticks_Linear_8,31,1,48,34,976235828
69,5,20,Ticks_Linear_8,32,1,48,31,976949380
69,5,20,Ticks_Linear_8,33,5,42,127,976984420
69,5,20,Ticks_Linear_8,34,1,48,35,977738096
69,5,20,Ticks_Linear_8,35,5,42,127,977773884
69,5,20,Ticks_Linear_8,36,1,48,31,978519344
69,5,20,Ticks_Linear_8,37,5,42,127,978554136
69,5,20,Ticks_Linear_8,38,1,48,30,979321912
69,5,20,Ticks_Linear_8,39,5,42,127,979333640
69,5,20,Ticks_Linear_8,40,1,48,31,980096924
69,5,20,Ticks_Linear_8,41,5,42,127,980113892
69,5,20,Ticks_Linear_8,42,1,48,33,980833304
69,5,20,Ticks_Linear_8,43,5,42,127,980894072
69,5,20,Ticks_Linear_8,44,1,48,27,981628300
69,5,20,Ticks_Linear_8,45,5,42,127,981664064
69,5,20,Ticks_Linear_8,46,5,42,127,982434288
69,5,20,Ticks_Linear_8,47,1,48,34,982460696
69,5,20,Ticks_Linear_8,48,1,48,27,983148964
69,5,20,Ticks_Linear_8,49,5,42,127,983204200
69,5,20,Ticks_Linear_8,50,1,48,35,983924576
69,5,20,Ticks_Linear_8,51,5,42,127,983974268
69,5,20,Ticks_Linear_8,52,1,48,35,984715912
69,5,20,Ticks_Linear_8,53,5,42,127,984744188
69,5,20,Ticks_Linear_8,54,5,42,127,985504004
69,5,20,Ticks_Linear_8,55,1,48,35,985505492
69,5,20,Ticks_Linear_8,56,5,42,127,986263888
69,5,20,Ticks_Linear_8,57,1,48,29,986279136
69,5,20,Ticks_Linear_8,58,5,42,127,987023844
69,5,20,Ticks_Linear_8,59,1,48,33,987074820
69,5,20,Ticks_Linear_8,60,1,48,35,987770492
69,5,20,Ticks_Linear_8,61,5,42,127,987783796
69,5,20,Ticks_Linear_8,62,1,48,39,988521388
69,5,20,Ticks_Linear_8,63,5,42,127,988544356
69,5,20,Ticks_Linear_8,64,1,48,36,989217828
69,5,20,Ticks_Linear_8,65,5,42,127,989294052
69,5,20,Ticks_Linear_8,66,1,48,28,989993884
69,5,20,Ticks_Linear_8,67,5,42,127,990043600
69,5,20,Ticks_Linear_8,68,1,48,35,990770160
69,5,20,Ticks_Linear_8,69,5,42,127,990794024
69,5,20,Ticks_Linear_8,70,5,42,127,991543804
69,5,20,Ticks_Linear_8,71,1,48,37,991552620
69,5,20,Ticks_Linear_8,72,1,48,27,992288812
69,5,20,Ticks_Linear_8,73,5,42,127,992294244
69,5,20,Ticks_Linear_8,74,1,48,35,992990800
69,5,20,Ticks_Linear_8,75,5,42,127,993033832
69,5,20,Ticks_Linear_8,76,1,48,32,993764548
69,5,20,Ticks_Linear_8,77,5,42,127,993774020
69,5,20,Ticks_Linear_8,78,1,48,39,994495444
69,5,20,Ticks_Linear_8,79,5,42,127,994514436
69,5,20,Ticks_Linear_8,80,1,48,27,995206508
69,5,20,Ticks_Linear_8,81,5,42,127,995253576
69,5,20,Ticks_Linear_8,82,1,48,34,995834636
69,5,20,Ticks_Linear_8,83,5,42,127,995993976
69,5,20,Ticks_Linear_8,84,1,48,27,996661852
69,5,20,Ticks_Linear_8,85,5,42,127,996723992
69,5,20,Ticks_Linear_8,86,1,48,42,997431008
69,5,20,Ticks_Linear_8,87,5,42,127,997454196
69,5,20,Ticks_Linear_8,88,1,48,44,998170724
69,5,20,Ticks_Linear_8,89,5,42,127,998184472
69,5,20,Ticks_Linear_8,90,1,48,40,998896456
69,5,20,Ticks_Linear_8,91,5,42,127,998914400
69,5,20,Ticks_Linear_8,92,1,48,43,999642940
69,5,20,Ticks_Linear_8,93,5,42,127,999653616
69,5,20,Ticks_Linear_8,94,5,42,127,1000373592
69,5,20,Ticks_Linear_8,95,1,48,42,1000396776
69,5,20,Ticks_Linear_8,96,5,42,127,1001093632
69,5,20,Ticks_Linear_8,97,1,48,36,1001132628
69,5,20,Ticks_Linear_8,98,1,48,41,1001757064
69,5,20,Ticks_Linear_8,99,5,42,127,1001814564
69,5,20,Ticks_Linear_8,100,1,48,40,1002451188
69,5,20,Ticks_Linear_8,101,5,42,127,1002534212
69,5,20,Ticks_Linear_8,102,1,48,40,1003190704
69,5,20,Ticks_Linear_8,103,5,42,127,1003254328
69,5,20,Ticks_Linear_8,104,1,48,42,1003947672
69,5,20,Ticks_Linear_8,105,5,42,127,1003963668
69,5,20,Ticks_Linear_8,106,1,48,36,1004648244
69,5,20,Ticks_Linear_8,107,5,42,127,1004674352
69,5,20,Ticks_Linear_8,108,1,48,34,1005324084
69,5,20,Ticks_Linear_8,109,5,42,127,1005394468
69,5,20,Ticks_Linear_8,110,1,48,42,1006027424
69,5,20,Ticks_Linear_8,111,5,42,127,1006103928
69,5,20,Ticks_Linear_8,112,1,48,41,1006790372
69,5,20,Ticks_Linear_8,113,5,42,127,1006813636
69,5,20,Ticks_Linear_8,114,1,48,40,1007443328
69,5,20,Ticks_Linear_8,115,5,42,127,1007514132
69,5,20,Ticks_Linear_8,116,1,48,39,1008177648
69,5,20,Ticks_Linear_8,117,5,42,127,1008214332
69,5,20,Ticks_Linear_8,118,1,48,40,1008871936
69,5,20,Ticks_Linear_8,119,5,42,127,1008913760
69,5,20,Ticks_Linear_8,120,1,48,41,1009603136
69,5,20,Ticks_Linear_8,121,5,42,127,1009614184
69,5,20,Ticks_Linear_8,122,5,42,127,1010313564
69,5,20,Ticks_Linear_8,123,1,48,38,1010325820
69,5,20,Ticks_Linear_8,124,1,48,40,1010972060
69,5,20,Ticks_Linear_8,125,5,42,127,1011003848
69,5,20,Ticks_Linear_8,126,1,48,38,1011669624
69,5,20,Ticks_Linear_8,127,5,42,127,1011694084
69,5,20,Ticks_Linear_8,128,5,42,127,1012384028
69,5,20,Ticks_Linear_8,129,1,48,40,1012421440
69,5,20,Ticks_Linear_8,130,5,42,127,1013074196
69,5,20,Ticks_Linear_8,131,1,48,43,1013094164
69,5,20,Ticks_Linear_8,132,1,48,34,1013710660
69,5,20,Ticks_Linear_8,133,5,42,127,1013763504
69,5,20,Ticks_Linear_8,134,1,48,45,1014411696
69,5,20,Ticks_Linear_8,135,5,42,127,1014444528
69,5,20,Ticks_Linear_8,136,1,48,45,1015106772
69,5,20,Ticks_Linear_8,137,5,42,127,1015124284
69,5,20,Ticks_Linear_8,138,1,48,35,1015771552
69,5,20,Ticks_Linear_8,139,5,42,127,1015804164
69,5,20,Ticks_Linear_8,140,1,48,45,1016433180
69,5,20,Ticks_Linear_8,141,5,42,127,1016484216
69,5,20,Ticks_Linear_8,142,1,48,46,1017095008
69,5,20,Ticks_Linear_8,143,5,42,127,1017164172
69,5,20,Ticks_Linear_8,144,1,48,43,1017793564
69,5,20,Ticks_Linear_8,145,5,42,127,1017833964
69,5,20,Ticks_Linear_8,146,1,48,45,1018497204
69,5,20,Ticks_Linear_8,147,5,42,127,1018503536
69,5,20,Ticks_Linear_8,148,5,42,127,1019174136
69,5,20,Ticks_Linear_8,149,1,48,38,1019232480
69,5,20,Ticks_Linear_8,150,1,48,44,1019795128
69,5,20,Ticks_Linear_8,151,5,42,127,1019844144
69,5,20,Ticks_Linear_8,152,1,48,38,1020448872
69,5,20,Ticks_Linear_8,153,5,42,127,1020513792
69,5,20,Ticks_Linear_8,154,1,48,39,1021081140
69,5,20,Ticks_Linear_8,155,5,42,127,1021174124
69,5,20,Ticks_Linear_8,156,1,48,35,1021793336
69,5,20,Ticks_Linear_8,157,5,42,127,1021833508
69,5,20,Ticks_Linear_8,158,1,48,37,1022485412
69,5,20,Ticks_Linear_8,159,5,42,127,1022494068
69,5,20,Ticks_Linear_8,160,1,48,32,1023135140
69,5,20,Ticks_Linear_8,161,5,42,127,1023153600
69,5,20,Ticks_Linear_8,162,1,48,30,1023797188
69,5,20,Ticks_Linear_8,163,5,42,127,1023813936
69,5,20,Ticks_Linear_8,164,5,42,127,1024464112
69,5,20,Ticks_Linear_8,165,1,48,30,1024511856
69,5,20,Ticks_Linear_8,166,1,48,35,1025083360
69,5,20,Ticks_Linear_8,167,5,42,127,1025113384
69,5,20,Ticks_Linear_8,168,5,42,127,1025763760
69,5,20,Ticks_Linear_8,169,1,48,40,1025766432
69,5,20,Ticks_Linear_8,170,1,48,38,1026366832
69,5,20,Ticks_Linear_8,171,5,42,127,1026414000
69,5,20,Ticks_Linear_8,172,5,42,127,1027064156
69,5,20,Ticks_Linear_8,173,1,48,32,1027124420
69,5,20,Ticks_Linear_8,174,5,42,127,1027704220
69,5,20,Ticks_Linear_8,175,1,48,45,1027741480
69,5,20,Ticks_Linear_8,176,1,48,37,1028332832
69,5,20,Ticks_Linear_8,177,5,42,127,1028344180
69,5,20,Ticks_Linear_8,178,1,48,35,1028908092
69,5,20,Ticks_Linear_8,179,5,42,127,1028984168
69,5,20,Ticks_Linear_8,180,1,48,40,1029587692
69,5,20,Ticks_Linear_8,181,5,42,127,1029624132
69,5,20,Ticks_Linear_8,182,1,48,42,1030223344
69,5,20,Ticks_Linear_8,183,5,42,127,1030264196
69,5,20,Ticks_Linear_8,184,1,48,45,1030839184
69,5,20,Ticks_Linear_8,185,5,42,127,1030893900
69,5,20,Ticks_Linear_8,186,1,48,44,1031456164
69,5,20,Ticks_Linear_8,187,5,42,127,1031523780
69,5,20,Ticks_Linear_8,188,1,48,35,1032141156
69,5,20,Ticks_Linear_8,189,5,42,127,1032153556
69,5,20,Ticks_Linear_8,190,5,42,127,1032784192
69,5,20,Ticks_Linear_8,191,1,48,40,1032816068
69,5,20,Ticks_Linear_8,192,1,48,38,1033389508
69,5,20,Ticks_Linear_8,193,5,42,127,1033413892
69,5,20,Ticks_Linear_8,194,1,48,33,1034026032
69,5,20,Ticks_Linear_8,195,5,42,127,1034033636
69,5,20,Ticks_Linear_8,196,1,48,39,1034612780
69,5,20,Ticks_Linear_8,197,5,42,127,1034654004
69,5,20,Ticks_Linear_8,198,1,48,41,1035230864
69,5,20,Ticks_Linear_8,199,5,42,127,1035273596
69,5,20,Ticks_Linear_8,200,1,48,42,1035846872
69,5,20,Ticks_Linear_8,201,5,42,127,1035894040
69,5,20,Ticks_Linear_8,202,1,48,39,1036454580
69,5,20,Ticks_Linear_8,203,5,42,127,1036513636
69,5,20,Ticks_Linear_8,204,1,48,40,1037087808
69,5,20,Ticks_Linear_8,205,5,42,127,1037124092
69,5,20,Ticks_Linear_8,206,1,48,36,1037666616
69,5,20,Ticks_Linear_8,207,5,42,127,1037734276
69,5,20,Ticks_Linear_8,208,1,48,40,1038299080
69,5,20,Ticks_Linear_8,209,5,42,127,1038343536
69,5,20,Ticks_Linear_8,210,1,48,36,1038928364
69,5,20,Ticks_Linear_8,211,5,42,127,1038953796
69,5,20,Ticks_Linear_8,212,1,48,41,1039549228
69,5,20,Ticks_Linear_8,213,5,42,127,1039564028
69,5,20,Ticks_Linear_8,214,1,48,34,1040125096
69,5,20,Ticks_Linear_8,215,5,42,127,1040164152
69,5,20,Ticks_Linear_8,216,1,48,43,1040752060
69,5,20,Ticks_Linear_8,217,5,42,127,1040764376
69,5,20,Ticks_Linear_8,218,1,48,38,1041345888
69,5,20,Ticks_Linear_8,219,5,42,127,1041364424
69,5,20,Ticks_Linear_8,220,5,42,127,1041964628
69,5,20,Ticks_Linear_8,221,1,48,22,1042016224
69,5,20,Ticks_Linear_8,222,1,48,43,1042515680
69,5,20,Ticks_Linear_8,223,5,42,127,1042563576
69,5,20,Ticks_Linear_8,224,1,48,47,1043093488
69,5,20,Ticks_Linear_8,225,5,42,127,1043154560
69,5,20,Ticks_Linear_8,226,1,48,40,1043650996
69,5,20,Ticks_Linear_8,227,5,42,127,1043745160
69,5,20,Ticks_Linear_8,228,5,42,127,1044333876
69,5,20,Ticks_Linear_8,229,1,48,35,1044336468
69,5,20,Ticks_Linear_8,230,1,48,42,1044894560
69,5,20,Ticks_Linear_8,231,5,42,127,1044923732
69,5,20,Ticks_Linear_8,232,1,48,38,1045494312
69,5,20,Ticks_Linear_8,233,5,42,127,1045513452
69,5,20,Ticks_Linear_8,234,1,48,33,1046080420
69,5,20,Ticks_Linear_8,235,5,42,127,1046094420
69,5,20,Ticks_Linear_8,236,5,42,127,1046673736
69,5,20,Ticks_Linear_8,237,1,48,39,1046691824
69,5,20,Ticks_Linear_8,238,1,48,41,1047202744
69,5,20,Ticks_Linear_8,239,5,42,127,1047254308
69,5,20,Ticks_Linear_8,240,1,48,33,1047750964
69,5,20,Ticks_Linear_8,241,5,42,127,1047833912
69,5,20,Ticks_Linear_8,242,1,48,34,1048339856
69,5,20,Ticks_Linear_8,243,5,42,127,1048413616
69,5,20,Ticks_Linear_8,244,5,42,127,1048984016
69,5,20,Ticks_Linear_8,245,1,48,38,1049023836
69,5,20,Ticks_Linear_8,246,5,42,127,1049554560
69,5,20,Ticks_Linear_8,247,1,48,41,1049555524
69,5,20,Ticks_Linear_8,248,1,48,40,1050095100
69,5,20,Ticks_Linear_8,249,5,42,127,1050123600
69,5,20,Ticks_Linear_8,250,5,42,127,1050694148
69,5,20,Ticks_Linear_8,251,1,48,38,1050734436
69,5,20,Ticks_Linear_8,252,5,42,127,1051264344
69,5,20,Ticks_Linear_8,253,1,48,38,1051591292
69,5,20,Ticks_Linear_8,254,5,42,127,1051823432
69,5,20,Ticks_Linear_8,255,1,48,29,1052300484
69,5,20,Ticks_Linear_8,256,5,42,127,1052383576
69,5,20,Ticks_Linear_8,257,1,48,28,1052917680
69,5,20,Ticks_Linear_8,258,5,42,127,1052943712
69,5,20,Ticks_Linear_8,259,1,48,39,1053494072
69,5,20,Ticks_Linear_8,260,5,42,127,1053503772
69,5,20,Ticks_Linear_8,261,1,48,39,1054001100
69,5,20,Ticks_Linear_8,262,5,42,127,1054063856
69,5,20,Ticks_Linear_8,263,1,48,38,1054573628
69,5,20,Ticks_Linear_8,264,5,42,127,1054613952
69,5,20,Ticks_Linear_8,265,1,48,37,1055131056
69,5,20,Ticks_Linear_8,266,5,42,127,1055163752
69,5,20,Ticks_Linear_8,267,1,48,35,1055661172
69,5,20,Ticks_Linear_8,268,5,42,127,1055713628
69,5,20,Ticks_Linear_8,269,1,48,40,1056253428
69,5,20,Ticks_Linear_8,270,5,42,127,1056263504
69,5,20,Ticks_Linear_8,271,5,42,127,1056813384
69,5,20,Ticks_Linear_8,272,1,48,37,1056816432
69,5,20,Ticks_Linear_8,273,1,48,30,1057351292
69,5,20,Ticks_Linear_8,274,5,42,127,1057354188
69,5,20,Ticks_Linear_8,275,1,48,36,1057863884
69,5,20,Ticks_Linear_8,276,5,42,127,1057893752
69,5,20,Ticks_Linear_8,277,1,48,40,1058394832
69,5,20,Ticks_Linear_8,278,5,42,127,1058434416
69,5,20,Ticks_Linear_8,279,1,48,38,1058921948
69,5,20,Ticks_Linear_8,280,5,42,127,1058984216
69,5,20,Ticks_Linear_8,281,1,48,35,1059469116
69,5,20,Ticks_Linear_8,282,5,42,127,1059524052
69,5,20,Ticks_Linear_8,283,1,48,36,1059975784
69,5,20,Ticks_Linear_8,284,5,42,127,1060054384
69,5,20,Ticks_Linear_8,285,1,48,38,1060509108
69,5,20,Ticks_Linear_8,286,5,42,127,1060583888
69,5,20,Ticks_Linear_8,287,1,48,39,1061049472
69,5,20,Ticks_Linear_8,288,5,42,127,1061114216
69,5,20,Ticks_Linear_8,289,1,48,36,1061593360
69,5,20,Ticks_Linear_8,290,5,42,127,1061643572
69,5,20,Ticks_Linear_8,291,1,48,38,1062129000
69,5,20,Ticks_Linear_8,292,5,42,127,1062174052
69,5,20,Ticks_Linear_8,293,1,48,39,1062671992
69,5,20,Ticks_Linear_8,294,5,42,127,1062694344
69,5,20,Ticks_Linear_8,295,5,42,127,1063213376
69,5,20,Ticks_Linear_8,296,1,48,39,1063225028
69,5,20,Ticks_Linear_8,297,5,42,127,1063733520
69,5,20,Ticks_Linear_8,298,1,48,40,1063754016
69,5,20,Ticks_Linear_8,299,1,48,38,1064208504
69,5,20,Ticks_Linear_8,300,5,42,127,1064254076
69,5,20,Ticks_Linear_8,301,1,48,35,1064697792
69,5,20,Ticks_Linear_8,302,5,42,127,1064774148
69,5,20,Ticks_Linear_8,303,1,48,40,1065228500
69,5,20,Ticks_Linear_8,304,5,42,127,1065284032
69,5,20,Ticks_Linear_8,305,1,48,40,1065729016
69,5,20,Ticks_Linear_8,306,5,42,127,1065793992
69,5,20,Ticks_Linear_8,307,1,48,41,1066224012
69,5,20,Ticks_Linear_8,308,5,42,127,1066303952
69,5,20,Ticks_Linear_8,309,1,48,35,1066721540
69,5,20,Ticks_Linear_8,310,5,42,127,1066814060
69,5,20,Ticks_Linear_8,311,1,48,45,1067317392
69,5,20,Ticks_Linear_8,312,5,42,127,1067323944
69,5,20,Ticks_Linear_8,313,1,48,39,1067810568
69,5,20,Ticks_Linear_8,314,5,42,127,1067823500
69,5,20,Ticks_Linear_8,315,1,48,40,1068315968
69,5,20,Ticks_Linear_8,316,5,42,127,1068324096
69,5,20,Ticks_Linear_8,317,1,48,43,1068813872
69,5,20,Ticks_Linear_8,318,5,42,127,1068824020
69,5,20,Ticks_Linear_8,319,1,48,39,1069311616
69,5,20,Ticks_Linear_8,320,5,42,127,1069323720
69,5,20,Ticks_Linear_8,321,1,48,23,1069801132
69,5,20,Ticks_Linear_8,322,5,42,127,1069824244
69,5,20,Ticks_Linear_8,323,1,48,28,1070301444
69,5,20,Ticks_Linear_8,324,5,42,127,1070313836
69,5,20,Ticks_Linear_8,325,1,48,29,1070798808
69,5,20,Ticks_Linear_8,326,5,42,127,1070804248
69,5,20,Ticks_Linear_8,327,1,48,27,1071260696
69,5,20,Ticks_Linear_8,328,5,42,127,1071293840
69,5,20,Ticks_Linear_8,329,5,42,127,1071784260
69,5,20,Ticks_Linear_8,330,1,48,25,1071801152
69,5,20,Ticks_Linear_8,331,1,48,32,1072246392
69,5,20,Ticks_Linear_8,332,5,42,127,1072273920
69,5,20,Ticks_Linear_8,0,9999,9999,9999,961701944
69,5,20,Ticks_Linear_8,1,9999,9999,9999,962521164
69,5,20,Ticks_Linear_8,2,9999,9999,9999,963341428
69,5,20,Ticks_Linear_8,3,9999,9999,9999,964161616
69,5,20,Ticks_Linear_8,4,9999,9999,9999,964981828
69,5,20,Ticks_Linear_8,5,9999,9999,9999,965791812
69,5,20,Ticks_Linear_8,6,9999,9999,9999,966601792
69,5,20,Ticks_Linear_8,7,9999,9999,9999,967411776
69,5,20,Ticks_Linear_8,8,9999,9999,9999,968221760
69,5,20,Ticks_Linear_8,9,9999,9999,9999,969031744
69,5,20,Ticks_Linear_8,10,9999,9999,9999,969831500
69,5,20,Ticks_Linear_8,11,9999,9999,9999,970631292
69,5,20,Ticks_Linear_8,12,9999,9999,9999,971432064
69,5,20,Ticks_Linear_8,13,9999,9999,9999,972231788
69,5,20,Ticks_Linear_8,14,9999,9999,9999,973031520
69,5,20,Ticks_Linear_8,15,9999,9999,9999,973822044
69,5,20,Ticks_Linear_8,16,9999,9999,9999,974611520
69,5,20,Ticks_Linear_8,17,9999,9999,9999,975402044
69,5,20,Ticks_Linear_8,18,9999,9999,9999,976191588
69,5,20,Ticks_Linear_8,19,9999,9999,9999,976982120
69,5,20,Ticks_Linear_8,20,9999,9999,9999,977771584
69,5,20,Ticks_Linear_8,21,9999,9999,9999,978551912
69,5,20,Ticks_Linear_8,22,9999,9999,9999,979331192
69,5,20,Ticks_Linear_8,23,9999,9999,9999,980111444
69,5,20,Ticks_Linear_8,24,9999,9999,9999,980891772
69,5,20,Ticks_Linear_8,25,9999,9999,9999,981661768
69,5,20,Ticks_Linear_8,26,9999,9999,9999,982431840
69,5,20,Ticks_Linear_8,27,9999,9999,9999,983201904
69,5,20,Ticks_Linear_8,28,9999,9999,9999,983971896
69,5,20,Ticks_Linear_8,29,9999,9999,9999,984741964
69,5,20,Ticks_Linear_8,30,9999,9999,9999,985501780
69,5,20,Ticks_Linear_8,31,9999,9999,9999,986261588
69,5,20,Ticks_Linear_8,32,9999,9999,9999,987021396
69,5,20,Ticks_Linear_8,33,9999,9999,9999,987781200
69,5,20,Ticks_Linear_8,34,9999,9999,9999,988542056
69,5,20,Ticks_Linear_8,35,9999,9999,9999,989291604
69,5,20,Ticks_Linear_8,36,9999,9999,9999,990041152
69,5,20,Ticks_Linear_8,37,9999,9999,9999,990791800
69,5,20,Ticks_Linear_8,38,9999,9999,9999,991541356
69,5,20,Ticks_Linear_8,39,9999,9999,9999,992291944
69,5,20,Ticks_Linear_8,40,9999,9999,9999,993031236
69,5,20,Ticks_Linear_8,41,9999,9999,9999,993771576
69,5,20,Ticks_Linear_8,42,9999,9999,9999,994511988
69,5,20,Ticks_Linear_8,43,9999,9999,9999,995251276
69,5,20,Ticks_Linear_8,44,9999,9999,9999,995991676
69,5,20,Ticks_Linear_8,45,9999,9999,9999,996721768
69,5,20,Ticks_Linear_8,46,9999,9999,9999,997451896
69,5,20,Ticks_Linear_8,47,9999,9999,9999,998181948
69,5,20,Ticks_Linear_8,48,9999,9999,9999,998912104
69,5,20,Ticks_Linear_8,49,9999,9999,9999,999651392
69,5,20,Ticks_Linear_8,50,9999,9999,9999,1000371292
69,5,20,Ticks_Linear_8,51,9999,9999,9999,1001091184
69,5,20,Ticks_Linear_8,52,9999,9999,9999,1001812044
69,5,20,Ticks_Linear_8,53,9999,9999,9999,1002531912
69,5,20,Ticks_Linear_8,54,9999,9999,9999,1003251808
69,5,20,Ticks_Linear_8,55,9999,9999,9999,1003961444
69,5,20,Ticks_Linear_8,56,9999,9999,9999,1004672128
69,5,20,Ticks_Linear_8,57,9999,9999,9999,1005391944
69,5,20,Ticks_Linear_8,58,9999,9999,9999,1006101628
69,5,20,Ticks_Linear_8,59,9999,9999,9999,1006811264
69,5,20,Ticks_Linear_8,60,9999,9999,9999,1007511612
69,5,20,Ticks_Linear_8,61,9999,9999,9999,1008212036
69,5,20,Ticks_Linear_8,62,9999,9999,9999,1008911460
69,5,20,Ticks_Linear_8,63,9999,9999,9999,1009611884
69,5,20,Ticks_Linear_8,64,9999,9999,9999,1010311264
69,5,20,Ticks_Linear_8,65,9999,9999,9999,1011001400
69,5,20,Ticks_Linear_8,66,9999,9999,9999,1011691636
69,5,20,Ticks_Linear_8,67,9999,9999,9999,1012381804
69,5,20,Ticks_Linear_8,68,9999,9999,9999,1013071968
69,5,20,Ticks_Linear_8,69,9999,9999,9999,1013761132
69,5,20,Ticks_Linear_8,70,9999,9999,9999,1014442080
69,5,20,Ticks_Linear_8,71,9999,9999,9999,1015121988
69,5,20,Ticks_Linear_8,72,9999,9999,9999,1015801940
69,5,20,Ticks_Linear_8,73,9999,9999,9999,1016481916
69,5,20,Ticks_Linear_8,74,9999,9999,9999,1017161800
69,5,20,Ticks_Linear_8,75,9999,9999,9999,1017831516
69,5,20,Ticks_Linear_8,76,9999,9999,9999,1018501236
69,5,20,Ticks_Linear_8,77,9999,9999,9999,1019171912
69,5,20,Ticks_Linear_8,78,9999,9999,9999,1019841624
69,5,20,Ticks_Linear_8,79,9999,9999,9999,1020511344
69,5,20,Ticks_Linear_8,80,9999,9999,9999,1021171828
69,5,20,Ticks_Linear_8,81,9999,9999,9999,1021831284
69,5,20,Ticks_Linear_8,82,9999,9999,9999,1022491768
69,5,20,Ticks_Linear_8,83,9999,9999,9999,1023151228
69,5,20,Ticks_Linear_8,84,9999,9999,9999,1023811708
69,5,20,Ticks_Linear_8,85,9999,9999,9999,1024461888
69,5,20,Ticks_Linear_8,86,9999,9999,9999,1025111160
69,5,20,Ticks_Linear_8,87,9999,9999,9999,1025761388
69,5,20,Ticks_Linear_8,88,9999,9999,9999,1026411628
69,5,20,Ticks_Linear_8,89,9999,9999,9999,1027061856
69,5,20,Ticks_Linear_8,90,9999,9999,9999,1027701844
69,5,20,Ticks_Linear_8,91,9999,9999,9999,1028341880
69,5,20,Ticks_Linear_8,92,9999,9999,9999,1028981868
69,5,20,Ticks_Linear_8,93,9999,9999,9999,1029621832
69,5,20,Ticks_Linear_8,94,9999,9999,9999,1030261824
69,5,20,Ticks_Linear_8,95,9999,9999,9999,1030891600
69,5,20,Ticks_Linear_8,96,9999,9999,9999,1031521404
69,5,20,Ticks_Linear_8,97,9999,9999,9999,1032151112
69,5,20,Ticks_Linear_8,98,9999,9999,9999,1032781892
69,5,20,Ticks_Linear_8,99,9999,9999,9999,1033411664
69,5,20,Ticks_Linear_8,100,9999,9999,9999,1034031188
69,5,20,Ticks_Linear_8,101,9999,9999,9999,1034651704
69,5,20,Ticks_Linear_8,102,9999,9999,9999,1035271224
69,5,20,Ticks_Linear_8,103,9999,9999,9999,1035891816
69,5,20,Ticks_Linear_8,104,9999,9999,9999,1036511336
69,5,20,Ticks_Linear_8,105,9999,9999,9999,1037121644
69,5,20,Ticks_Linear_8,106,9999,9999,9999,1037731904
69,5,20,Ticks_Linear_8,107,9999,9999,9999,1038341240
69,5,20,Ticks_Linear_8,108,9999,9999,9999,1038951496
69,5,20,Ticks_Linear_8,109,9999,9999,9999,1039561804
69,5,20,Ticks_Linear_8,110,9999,9999,9999,1040161852
69,5,20,Ticks_Linear_8,111,9999,9999,9999,1040761928
69,5,20,Ticks_Linear_8,112,9999,9999,9999,1041361980
69,5,20,Ticks_Linear_8,113,9999,9999,9999,1041962108
69,5,20,Ticks_Linear_8,114,9999,9999,9999,1042561128
69,5,20,Ticks_Linear_8,115,9999,9999,9999,1043151964
69,5,20,Ticks_Linear_8,116,9999,9999,9999,1043741756
69,5,20,Ticks_Linear_8,117,9999,9999,9999,1044331576
69,5,20,Ticks_Linear_8,118,9999,9999,9999,1044921436
69,5,20,Ticks_Linear_8,119,9999,9999,9999,1045511224
69,5,20,Ticks_Linear_8,120,9999,9999,9999,1046091900
69,5,20,Ticks_Linear_8,121,9999,9999,9999,1046671436
69,5,20,Ticks_Linear_8,122,9999,9999,9999,1047252080
69,5,20,Ticks_Linear_8,123,9999,9999,9999,1047831612
69,5,20,Ticks_Linear_8,124,9999,9999,9999,1048411240
69,5,20,Ticks_Linear_8,125,9999,9999,9999,1048981568
69,5,20,Ticks_Linear_8,126,9999,9999,9999,1049551960
69,5,20,Ticks_Linear_8,127,9999,9999,9999,1050121300
69,5,20,Ticks_Linear_8,128,9999,9999,9999,1050691700
69,5,20,Ticks_Linear_8,129,9999,9999,9999,1051262044
69,5,20,Ticks_Linear_8,130,9999,9999,9999,1051821132
69,5,20,Ticks_Linear_8,131,9999,9999,9999,1052381280
69,5,20,Ticks_Linear_8,132,9999,9999,9999,1052941412
69,5,20,Ticks_Linear_8,133,9999,9999,9999,1053501548
69,5,20,Ticks_Linear_8,134,9999,9999,9999,1054061632
69,5,20,Ticks_Linear_8,135,9999,9999,9999,1054611580
69,5,20,Ticks_Linear_8,136,9999,9999,9999,1055161456
69,5,20,Ticks_Linear_8,137,9999,9999,9999,1055711332
69,5,20,Ticks_Linear_8,138,9999,9999,9999,1056261204
69,5,20,Ticks_Linear_8,139,9999,9999,9999,1056811084
69,5,20,Ticks_Linear_8,140,9999,9999,9999,1057351740
69,5,20,Ticks_Linear_8,141,9999,9999,9999,1057891452
69,5,20,Ticks_Linear_8,142,9999,9999,9999,1058432116
69,5,20,Ticks_Linear_8,143,9999,9999,9999,1058981992
69,5,20,Ticks_Linear_8,144,9999,9999,9999,1059521604
69,5,20,Ticks_Linear_8,145,9999,9999,9999,1060052084
69,5,20,Ticks_Linear_8,146,9999,9999,9999,1060581440
69,5,20,Ticks_Linear_8,147,9999,9999,9999,1061111916
69,5,20,Ticks_Linear_8,148,9999,9999,9999,1061641276
69,5,20,Ticks_Linear_8,149,9999,9999,9999,1062171752
69,5,20,Ticks_Linear_8,150,9999,9999,9999,1062691896
69,5,20,Ticks_Linear_8,151,9999,9999,9999,1063211076
69,5,20,Ticks_Linear_8,152,9999,9999,9999,1063731292
69,5,20,Ticks_Linear_8,153,9999,9999,9999,1064251480
69,5,20,Ticks_Linear_8,154,9999,9999,9999,1064771700
69,5,20,Ticks_Linear_8,155,9999,9999,9999,1065281660
69,5,20,Ticks_Linear_8,156,9999,9999,9999,1065791544
69,5,20,Ticks_Linear_8,157,9999,9999,9999,1066301504
69,5,20,Ticks_Linear_8,158,9999,9999,9999,1066811464
69,5,20,Ticks_Linear_8,159,9999,9999,9999,1067321424
69,5,20,Ticks_Linear_8,160,9999,9999,9999,1067821124
69,5,20,Ticks_Linear_8,161,9999,9999,9999,1068321872
69,5,20,Ticks_Linear_8,162,9999,9999,9999,1068821572
69,5,20,Ticks_Linear_8,163,9999,9999,9999,1069321272
69,5,20,Ticks_Linear_8,164,9999,9999,9999,1069822020
69,5,20,Ticks_Linear_8,165,9999,9999,9999,1070311536
69,5,20,Ticks_Linear_8,166,9999,9999,9999,1070802024
69,5,20,Ticks_Linear_8,167,9999,9999,9999,1071291468
69,5,20,Ticks_Linear_8,168,9999,9999,9999,1071781964
69,5,20,Ticks_Linear_8,169,9999,9999,9999,1072271472
69,6,21,Ticks_Linear_5,0,5,42,127,1082483980
69,6,21,Ticks_Linear_5,1,5,42,127,1082964452
69,6,21,Ticks_Linear_5,2,5,42,127,1083443628
69,6,21,Ticks_Linear_5,3,5,42,127,1083923804
69,6,21,Ticks_Linear_5,4,1,48,38,1084384612
69,6,21,Ticks_Linear_5,5,5,42,127,1084404124
69,6,21,Ticks_Linear_5,6,1,48,35,1084805828
69,6,21,Ticks_Linear_5,7,5,42,127,1084893488
69,6,21,Ticks_Linear_5,8,1,48,38,1085325224
69,6,21,Ticks_Linear_5,9,5,42,127,1085383976
69,6,21,Ticks_Linear_5,10,1,48,39,1085821248
69,6,21,Ticks_Linear_5,11,5,42,127,1085873492
69,6,21,Ticks_Linear_5,12,1,48,37,1086305752
69,6,21,Ticks_Linear_5,13,5,42,127,1086363904
69,6,21,Ticks_Linear_5,14,1,48,38,1086794968
69,6,21,Ticks_Linear_5,15,5,42,127,1086853644
69,6,21,Ticks_Linear_5,16,1,48,37,1087284080
69,6,21,Ticks_Linear_5,17,5,42,127,1087354312
69,6,21,Ticks_Linear_5,18,1,48,36,1087788420
69,6,21,Ticks_Linear_5,19,5,42,127,1087854012
69,6,21,Ticks_Linear_5,20,1,48,37,1088280176
69,6,21,Ticks_Linear_5,21,5,42,127,1088353636
69,6,21,Ticks_Linear_5,22,1,48,34,1088782656
69,6,21,Ticks_Linear_5,23,5,42,127,1088854456
69,6,21,Ticks_Linear_5,24,1,48,36,1089274264
69,6,21,Ticks_Linear_5,25,5,42,127,1089354084
69,6,21,Ticks_Linear_5,26,1,48,38,1089777856
69,6,21,Ticks_Linear_5,27,5,42,127,1089864168
69,6,21,Ticks_Linear_5,28,1,48,34,1090315824
69,6,21,Ticks_Linear_5,29,5,42,127,1090373904
69,6,21,Ticks_Linear_5,30,1,48,31,1090830644
69,6,21,Ticks_Linear_5,31,5,42,127,1090884008
69,6,21,Ticks_Linear_5,32,1,48,30,1091335220
69,6,21,Ticks_Linear_5,33,5,42,127,1091393968
69,6,21,Ticks_Linear_5,34,1,48,38,1091894976
69,6,21,Ticks_Linear_5,35,5,42,127,1091903856
69,6,21,Ticks_Linear_5,36,1,48,40,1092418412
69,6,21,Ticks_Linear_5,37,5,42,127,1092424148
69,6,21,Ticks_Linear_5,38,1,48,30,1092880492
69,6,21,Ticks_Linear_5,39,5,42,127,1092944512
69,6,21,Ticks_Linear_5,40,1,48,39,1093409172
69,6,21,Ticks_Linear_5,41,5,42,127,1093464360
69,6,21,Ticks_Linear_5,42,1,48,40,1093906780
69,6,21,Ticks_Linear_5,43,5,42,127,1093993788
69,6,21,Ticks_Linear_5,44,1,48,40,1094469600
69,6,21,Ticks_Linear_5,45,5,42,127,1094514304
69,6,21,Ticks_Linear_5,46,1,48,44,1095016888
69,6,21,Ticks_Linear_5,47,5,42,127,1095043440
69,6,21,Ticks_Linear_5,48,1,48,43,1095543176
69,6,21,Ticks_Linear_5,49,5,42,127,1095573840
69,6,21,Ticks_Linear_5,50,1,48,46,1096080380
69,6,21,Ticks_Linear_5,51,5,42,127,1096104316
69,6,21,Ticks_Linear_5,52,1,48,45,1096611012
69,6,21,Ticks_Linear_5,53,5,42,127,1096633748
69,6,21,Ticks_Linear_5,54,1,48,43,1097152208
69,6,21,Ticks_Linear_5,55,5,42,127,1097164300
69,6,21,Ticks_Linear_5,56,1,48,42,1097669196
69,6,21,Ticks_Linear_5,57,5,42,127,1097703692
69,6,21,Ticks_Linear_5,58,1,48,41,1098220572
69,6,21,Ticks_Linear_5,59,5,42,127,1098243308
69,6,21,Ticks_Linear_5,60,5,42,127,1098784200
69,6,21,Ticks_Linear_5,61,1,48,36,1098828676
69,6,21,Ticks_Linear_5,62,1,48,43,1099248352
69,6,21,Ticks_Linear_5,63,5,42,127,1099323732
69,6,21,Ticks_Linear_5,64,1,48,46,1099823096
69,6,21,Ticks_Linear_5,65,5,42,127,1099864420
69,6,21,Ticks_Linear_5,66,1,48,48,1100365352
69,6,21,Ticks_Linear_5,67,5,42,127,1100423432
69,6,21,Ticks_Linear_5,68,1,48,48,1100894636
69,6,21,Ticks_Linear_5,69,5,42,127,1100973380
69,6,21,Ticks_Linear_5,70,1,48,50,1101468696
69,6,21,Ticks_Linear_5,71,5,42,127,1101524452
69,6,21,Ticks_Linear_5,72,1,48,51,1102017596
69,6,21,Ticks_Linear_5,73,5,42,127,1102074176
69,6,21,Ticks_Linear_5,74,1,48,51,1102572568
69,6,21,Ticks_Linear_5,75,5,42,127,1102624124
69,6,21,Ticks_Linear_5,76,1,48,52,1103143384
69,6,21,Ticks_Linear_5,77,5,42,127,1103184108
69,6,21,Ticks_Linear_5,78,1,48,48,1103698144
69,6,21,Ticks_Linear_5,79,5,42,127,1103744316
69,6,21,Ticks_Linear_5,80,1,48,49,1104296320
69,6,21,Ticks_Linear_5,81,5,42,127,1104303476
69,6,21,Ticks_Linear_5,82,1,48,54,1104823584
69,6,21,Ticks_Linear_5,83,5,42,127,1104863536
69,6,21,Ticks_Linear_5,84,1,48,50,1105365440
69,6,21,Ticks_Linear_5,85,5,42,127,1105423668
69,6,21,Ticks_Linear_5,86,1,48,51,1105930436
69,6,21,Ticks_Linear_5,87,5,42,127,1105994160
69,6,21,Ticks_Linear_5,88,1,48,49,1106503908
69,6,21,Ticks_Linear_5,89,5,42,127,1106563480
69,6,21,Ticks_Linear_5,90,1,48,51,1107059240
69,6,21,Ticks_Linear_5,91,5,42,127,1107134020
69,6,21,Ticks_Linear_5,92,1,48,51,1107637196
69,6,21,Ticks_Linear_5,93,5,42,127,1107704112
69,6,21,Ticks_Linear_5,94,1,48,50,1108221292
69,6,21,Ticks_Linear_5,95,5,42,127,1108273536
69,6,21,Ticks_Linear_5,96,1,48,45,1108783004
69,6,21,Ticks_Linear_5,97,5,42,127,1108854136
69,6,21,Ticks_Linear_5,98,1,48,48,1109328108
69,6,21,Ticks_Linear_5,99,5,42,127,1109433800
69,6,21,Ticks_Linear_5,100,1,48,50,1109920212
69,6,21,Ticks_Linear_5,101,5,42,127,1110014316
69,6,21,Ticks_Linear_5,102,1,48,49,1110563704
69,6,21,Ticks_Linear_5,103,5,42,127,1110594072
69,6,21,Ticks_Linear_5,104,1,48,50,1111132028
69,6,21,Ticks_Linear_5,105,5,42,127,1111173480
69,6,21,Ticks_Linear_5,106,1,48,44,1111752372
69,6,21,Ticks_Linear_5,107,5,42,127,1111764316
69,6,21,Ticks_Linear_5,108,1,48,44,1112271996
69,6,21,Ticks_Linear_5,109,5,42,127,1112354180
69,6,21,Ticks_Linear_5,110,1,48,46,1112872860
69,6,21,Ticks_Linear_5,111,5,42,127,1112943920
69,6,21,Ticks_Linear_5,112,1,48,40,1113419384
69,6,21,Ticks_Linear_5,113,5,42,127,1113534068
69,6,21,Ticks_Linear_5,114,1,48,48,1114093732
69,6,21,Ticks_Linear_5,115,5,42,127,1114123576
69,6,21,Ticks_Linear_5,116,5,42,127,1114723952
69,6,21,Ticks_Linear_5,117,1,48,48,1114724916
69,6,21,Ticks_Linear_5,118,1,48,38,1115299088
69,6,21,Ticks_Linear_5,119,5,42,127,1115323844
69,6,21,Ticks_Linear_5,120,1,48,46,1115898388
69,6,21,Ticks_Linear_5,121,5,42,127,1115924044
69,6,21,Ticks_Linear_5,122,5,42,127,1116523828
69,6,21,Ticks_Linear_5,123,1,48,38,1116538400
69,6,21,Ticks_Linear_5,124,5,42,127,1117123876
69,6,21,Ticks_Linear_5,125,1,48,49,1117153584
69,6,21,Ticks_Linear_5,126,1,48,44,1117643372
69,6,21,Ticks_Linear_5,127,5,42,127,1117734324
69,6,21,Ticks_Linear_5,128,5,42,127,1118343540
69,6,21,Ticks_Linear_5,129,1,48,31,1118473148
69,6,21,Ticks_Linear_5,130,5,42,127,1118953776
69,6,21,Ticks_Linear_5,131,5,42,127,1119564204
69,6,21,Ticks_Linear_5,132,1,48,41,1119569416
69,6,21,Ticks_Linear_5,133,1,48,40,1120149072
69,6,21,Ticks_Linear_5,134,5,42,127,1120173456
69,6,21,Ticks_Linear_5,135,1,48,45,1120748976
69,6,21,Ticks_Linear_5,136,5,42,127,1120794100
69,6,21,Ticks_Linear_5,137,1,48,46,1121336744
69,6,21,Ticks_Linear_5,138,5,42,127,1121413420
69,6,21,Ticks_Linear_5,139,1,48,46,1121954940
69,6,21,Ticks_Linear_5,140,5,42,127,1122033912
69,6,21,Ticks_Linear_5,141,1,48,48,1122563000
69,6,21,Ticks_Linear_5,142,5,42,127,1122653676
69,6,21,Ticks_Linear_5,143,1,48,43,1123203216
69,6,21,Ticks_Linear_5,144,5,42,127,1123274020
69,6,21,Ticks_Linear_5,145,1,48,38,1123872384
69,6,21,Ticks_Linear_5,146,5,42,127,1123903876
69,6,21,Ticks_Linear_5,147,1,48,44,1124480536
69,6,21,Ticks_Linear_5,148,5,42,127,1124533756
69,6,21,Ticks_Linear_5,149,1,48,47,1125110168
69,6,21,Ticks_Linear_5,150,5,42,127,1125164504
69,6,21,Ticks_Linear_5,151,1,48,45,1125736756
69,6,21,Ticks_Linear_5,152,5,42,127,1125794160
69,6,21,Ticks_Linear_5,153,1,48,41,1126385104
69,6,21,Ticks_Linear_5,154,5,42,127,1126423936
69,6,21,Ticks_Linear_5,155,1,48,43,1126980056
69,6,21,Ticks_Linear_5,156,5,42,127,1127063928
69,6,21,Ticks_Linear_5,157,1,48,47,1127613464
69,6,21,Ticks_Linear_5,158,5,42,127,1127703812
69,6,21,Ticks_Linear_5,159,1,48,50,1128242420
69,6,21,Ticks_Linear_5,160,5,42,127,1128344008
69,6,21,Ticks_Linear_5,161,1,48,47,1128918420
69,6,21,Ticks_Linear_5,162,5,42,127,1128983988
69,6,21,Ticks_Linear_5,163,1,48,49,1129525956
69,6,21,Ticks_Linear_5,164,5,42,127,1129624784
69,6,21,Ticks_Linear_5,165,1,48,48,1130243384
69,6,21,Ticks_Linear_5,166,5,42,127,1130274124
69,6,21,Ticks_Linear_5,167,1,48,47,1130838804
69,6,21,Ticks_Linear_5,168,5,42,127,1130924520
69,6,21,Ticks_Linear_5,169,1,48,53,1131541076
69,6,21,Ticks_Linear_5,170,5,42,127,1131573772
69,6,21,Ticks_Linear_5,171,1,48,40,1132198144
69,6,21,Ticks_Linear_5,172,5,42,127,1132223724
69,6,21,Ticks_Linear_5,173,5,42,127,1132874276
69,6,21,Ticks_Linear_5,174,1,48,43,1132900904
69,6,21,Ticks_Linear_5,175,5,42,127,1133533560
69,6,21,Ticks_Linear_5,176,1,48,47,1133557720
69,6,21,Ticks_Linear_5,177,5,42,127,1134193992
69,6,21,Ticks_Linear_5,178,1,48,47,1134215312
69,6,21,Ticks_Linear_5,179,5,42,127,1134853576
69,6,21,Ticks_Linear_5,180,1,48,50,1134866132
69,6,21,Ticks_Linear_5,181,5,42,127,1135513936
69,6,21,Ticks_Linear_5,182,1,48,52,1135523348
69,6,21,Ticks_Linear_5,183,1,48,46,1136155124
69,6,21,Ticks_Linear_5,184,5,42,127,1136173512
69,6,21,Ticks_Linear_5,185,1,48,53,1136824400
69,6,21,Ticks_Linear_5,186,5,42,127,1136844056
69,6,21,Ticks_Linear_5,187,1,48,48,1137461964
69,6,21,Ticks_Linear_5,188,5,42,127,1137513996
69,6,21,Ticks_Linear_5,189,1,48,46,1138174516
69,6,21,Ticks_Linear_5,190,5,42,127,1138183544
69,6,21,Ticks_Linear_5,191,1,48,45,1138817424
69,6,21,Ticks_Linear_5,192,5,42,127,1138854456
69,6,21,Ticks_Linear_5,193,5,42,127,1139523936
69,6,21,Ticks_Linear_5,194,1,48,47,1139533900
69,6,21,Ticks_Linear_5,195,1,48,52,1140167920
69,6,21,Ticks_Linear_5,196,5,42,127,1140203908
69,6,21,Ticks_Linear_5,197,1,48,49,1140844684
69,6,21,Ticks_Linear_5,198,5,42,127,1140883888
69,6,21,Ticks_Linear_5,199,1,48,48,1141517292
69,6,21,Ticks_Linear_5,200,5,42,127,1141563840
69,6,21,Ticks_Linear_5,201,1,48,38,1142199368
69,6,21,Ticks_Linear_5,202,5,42,127,1142243816
69,6,21,Ticks_Linear_5,203,1,48,41,1142837684
69,6,21,Ticks_Linear_5,204,5,42,127,1142923500
69,6,21,Ticks_Linear_5,205,1,48,46,1143539080
69,6,21,Ticks_Linear_5,206,5,42,127,1143613860
69,6,21,Ticks_Linear_5,207,1,48,42,1144236212
69,6,21,Ticks_Linear_5,208,5,42,127,1144303948
69,6,21,Ticks_Linear_5,209,1,48,54,1144925096
69,6,21,Ticks_Linear_5,210,5,42,127,1144994332
69,6,21,Ticks_Linear_5,211,1,48,55,1145617784
69,6,21,Ticks_Linear_5,212,5,42,127,1145684496
69,6,21,Ticks_Linear_5,213,1,48,45,1146285332
69,6,21,Ticks_Linear_5,214,5,42,127,1146373516
69,6,21,Ticks_Linear_5,215,1,48,54,1147011140
69,6,21,Ticks_Linear_5,216,5,42,127,1147073792
69,6,21,Ticks_Linear_5,217,1,48,51,1147748632
69,6,21,Ticks_Linear_5,218,5,42,127,1147774212
69,6,21,Ticks_Linear_5,219,5,42,127,1148473792
69,6,21,Ticks_Linear_5,220,1,48,48,1148502256
69,6,21,Ticks_Linear_5,221,1,48,56,1149104820
69,6,21,Ticks_Linear_5,222,5,42,127,1149174428
69,6,21,Ticks_Linear_5,223,5,42,127,1149873516
69,6,21,Ticks_Linear_5,224,5,42,127,1150584144
69,6,21,Ticks_Linear_5,225,1,48,44,1150681700
69,6,21,Ticks_Linear_5,226,5,42,127,1151293676
69,6,21,Ticks_Linear_5,227,1,48,42,1151352464
69,6,21,Ticks_Linear_5,228,1,48,38,1151928220
69,6,21,Ticks_Linear_5,229,5,42,127,1152003456
69,6,21,Ticks_Linear_5,230,1,48,42,1152628496
69,6,21,Ticks_Linear_5,231,5,42,127,1152714136
69,6,21,Ticks_Linear_5,232,1,48,46,1153399840
69,6,21,Ticks_Linear_5,233,5,42,127,1153423696
69,6,21,Ticks_Linear_5,234,1,48,48,1154064596
69,6,21,Ticks_Linear_5,235,5,42,127,1154143664
69,6,21,Ticks_Linear_5,236,1,48,44,1154789872
69,6,21,Ticks_Linear_5,237,5,42,127,1154863384
69,6,21,Ticks_Linear_5,238,1,48,44,1155505948
69,6,21,Ticks_Linear_5,239,5,42,127,1155584248
69,6,21,Ticks_Linear_5,240,1,48,40,1156209816
69,6,21,Ticks_Linear_5,241,5,42,127,1156304424
69,6,21,Ticks_Linear_5,242,1,48,38,1157005648
69,6,21,Ticks_Linear_5,243,5,42,127,1157024112
69,6,21,Ticks_Linear_5,244,1,48,45,1157661944
69,6,21,Ticks_Linear_5,245,5,42,127,1157754264
69,6,21,Ticks_Linear_5,246,5,42,127,1158484348
69,6,21,Ticks_Linear_5,247,1,48,43,1158485312
69,6,21,Ticks_Linear_5,248,1,48,43,1159195932
69,6,21,Ticks_Linear_5,249,5,42,127,1159213424
69,6,21,Ticks_Linear_5,250,1,48,40,1159901532
69,6,21,Ticks_Linear_5,251,5,42,127,1159943500
69,6,21,Ticks_Linear_5,252,1,48,43,1160621424
69,6,21,Ticks_Linear_5,253,5,42,127,1160673728
69,6,21,Ticks_Linear_5,254,1,48,43,1161334276
69,6,21,Ticks_Linear_5,255,5,42,127,1161414068
69,6,21,Ticks_Linear_5,256,1,48,44,1162093932
69,6,21,Ticks_Linear_5,257,5,42,127,1162154404
69,6,21,Ticks_Linear_5,258,5,42,127,1162893924
69,6,21,Ticks_Linear_5,259,1,48,33,1162902216
69,6,21,Ticks_Linear_5,260,1,48,41,1163608380
69,6,21,Ticks_Linear_5,261,5,42,127,1163634032
69,6,21,Ticks_Linear_5,262,1,48,46,1164296044
69,6,21,Ticks_Linear_5,263,5,42,127,1164374296
69,6,21,Ticks_Linear_5,264,1,48,44,1165039680
69,6,21,Ticks_Linear_5,265,5,42,127,1165123968
69,6,21,Ticks_Linear_5,266,1,48,38,1165828764
69,6,21,Ticks_Linear_5,267,5,42,127,1165873740
69,6,21,Ticks_Linear_5,268,1,48,26,1166562372
69,6,21,Ticks_Linear_5,269,5,42,127,1166624264
69,6,21,Ticks_Linear_5,270,5,42,127,1167373816
69,6,21,Ticks_Linear_5,271,1,48,29,1167403376
69,6,21,Ticks_Linear_5,272,1,48,36,1168086700
69,6,21,Ticks_Linear_5,273,5,42,127,1168124332
69,6,21,Ticks_Linear_5,274,1,48,40,1168818352
69,6,21,Ticks_Linear_5,275,5,42,127,1168884140
69,6,21,Ticks_Linear_5,276,1,48,46,1169551420
69,6,21,Ticks_Linear_5,277,5,42,127,1169643936
69,6,21,Ticks_Linear_5,278,1,48,40,1170338712
69,6,21,Ticks_Linear_5,279,5,42,127,1170403908
69,6,21,Ticks_Linear_5,280,1,48,40,1171089380
69,6,21,Ticks_Linear_5,281,5,42,127,1171163792
69,6,21,Ticks_Linear_5,282,1,48,31,1171850760
69,6,21,Ticks_Linear_5,283,5,42,127,1171924272
69,6,21,Ticks_Linear_5,284,1,48,38,1172628848
69,6,21,Ticks_Linear_5,285,5,42,127,1172694268
69,6,21,Ticks_Linear_5,286,1,48,27,1173394724
69,6,21,Ticks_Linear_5,287,5,42,127,1173464484
69,6,21,Ticks_Linear_5,288,1,48,35,1174177744
69,6,21,Ticks_Linear_5,289,5,42,127,1174243688
69,6,21,Ticks_Linear_5,290,1,48,44,1174947068
69,6,21,Ticks_Linear_5,291,5,42,127,1175013756
69,6,21,Ticks_Linear_5,292,1,48,39,1175760856
69,6,21,Ticks_Linear_5,293,5,42,127,1175783748
69,6,21,Ticks_Linear_5,294,1,48,38,1176524948
69,6,21,Ticks_Linear_5,295,5,42,127,1176564076
69,6,21,Ticks_Linear_5,296,5,42,127,1177344484
69,6,21,Ticks_Linear_5,297,1,48,43,1177355468
69,6,21,Ticks_Linear_5,298,5,42,127,1178123616
69,6,21,Ticks_Linear_5,299,1,48,22,1178170836
69,6,21,Ticks_Linear_5,300,1,48,46,1178717348
69,6,21,Ticks_Linear_5,301,5,42,127,1178903844
69,6,21,Ticks_Linear_5,302,1,48,40,1179576608
69,6,21,Ticks_Linear_5,303,5,42,127,1179684320
69,6,21,Ticks_Linear_5,304,1,48,39,1180425236
69,6,21,Ticks_Linear_5,305,5,42,127,1180473652
69,6,21,Ticks_Linear_5,306,1,48,44,1181204740
69,6,21,Ticks_Linear_5,307,5,42,127,1181264112
69,6,21,Ticks_Linear_5,308,1,48,41,1182015696
69,6,21,Ticks_Linear_5,309,5,42,127,1182053876
69,6,21,Ticks_Linear_5,310,1,48,41,1182826604
69,6,21,Ticks_Linear_5,311,5,42,127,1182844240
69,6,21,Ticks_Linear_5,312,5,42,127,1183633712
69,6,21,Ticks_Linear_5,313,1,48,40,1183645292
69,6,21,Ticks_Linear_5,314,1,48,49,1184373624
69,6,21,Ticks_Linear_5,315,5,42,127,1184433652
69,6,21,Ticks_Linear_5,316,1,48,47,1185157992
69,6,21,Ticks_Linear_5,317,5,42,127,1185234420
69,6,21,Ticks_Linear_5,318,1,48,48,1185967904
69,6,21,Ticks_Linear_5,319,5,42,127,1186033996
69,6,21,Ticks_Linear_5,320,1,48,43,1186791512
69,6,21,Ticks_Linear_5,321,5,42,127,1186833796
69,6,21,Ticks_Linear_5,322,1,48,45,1187528112
69,6,21,Ticks_Linear_5,323,5,42,127,1187633580
69,6,21,Ticks_Linear_5,324,1,48,38,1188409308
69,6,21,Ticks_Linear_5,325,5,42,127,1188443452
69,6,21,Ticks_Linear_5,326,1,48,48,1189236392
69,6,21,Ticks_Linear_5,327,5,42,127,1189253512
69,6,21,Ticks_Linear_5,328,5,42,127,1190063500
69,6,21,Ticks_Linear_5,329,1,48,41,1190084744
69,6,21,Ticks_Linear_5,330,1,48,47,1190776156
69,6,21,Ticks_Linear_5,331,5,42,127,1190873536
69,6,21,Ticks_Linear_5,332,1,48,34,1191636088
69,6,21,Ticks_Linear_5,333,5,42,127,1191683608
69,6,21,Ticks_Linear_5,0,9999,9999,9999,1082481756
69,6,21,Ticks_Linear_5,1,9999,9999,9999,1082962004
69,6,21,Ticks_Linear_5,2,9999,9999,9999,1083441256
69,6,21,Ticks_Linear_5,3,9999,9999,9999,1083921508
69,6,21,Ticks_Linear_5,4,9999,9999,9999,1084401748
69,6,21,Ticks_Linear_5,5,9999,9999,9999,1084891192
69,6,21,Ticks_Linear_5,6,9999,9999,9999,1085381752
69,6,21,Ticks_Linear_5,7,9999,9999,9999,1085871192
69,6,21,Ticks_Linear_5,8,9999,9999,9999,1086361680
69,6,21,Ticks_Linear_5,9,9999,9999,9999,1086851196
69,6,21,Ticks_Linear_5,10,9999,9999,9999,1087351868
69,6,21,Ticks_Linear_5,11,9999,9999,9999,1087851640
69,6,21,Ticks_Linear_5,12,9999,9999,9999,1088351340
69,6,21,Ticks_Linear_5,13,9999,9999,9999,1088852084
69,6,21,Ticks_Linear_5,14,9999,9999,9999,1089351760
69,6,21,Ticks_Linear_5,15,9999,9999,9999,1089861720
69,6,21,Ticks_Linear_5,16,9999,9999,9999,1090371680
69,6,21,Ticks_Linear_5,17,9999,9999,9999,1090881636
69,6,21,Ticks_Linear_5,18,9999,9999,9999,1091391596
69,6,21,Ticks_Linear_5,19,9999,9999,9999,1091901556
69,6,21,Ticks_Linear_5,20,9999,9999,9999,1092421700
69,6,21,Ticks_Linear_5,21,9999,9999,9999,1092941916
69,6,21,Ticks_Linear_5,22,9999,9999,9999,1093462136
69,6,21,Ticks_Linear_5,23,9999,9999,9999,1093991492
69,6,21,Ticks_Linear_5,24,9999,9999,9999,1094511708
69,6,21,Ticks_Linear_5,25,9999,9999,9999,1095041140
69,6,21,Ticks_Linear_5,26,9999,9999,9999,1095571544
69,6,21,Ticks_Linear_5,27,9999,9999,9999,1096101944
69,6,21,Ticks_Linear_5,28,9999,9999,9999,1096631376
69,6,21,Ticks_Linear_5,29,9999,9999,9999,1097161852
69,6,21,Ticks_Linear_5,30,9999,9999,9999,1097701468
69,6,21,Ticks_Linear_5,31,9999,9999,9999,1098241084
69,6,21,Ticks_Linear_5,32,9999,9999,9999,1098781752
69,6,21,Ticks_Linear_5,33,9999,9999,9999,1099321436
69,6,21,Ticks_Linear_5,34,9999,9999,9999,1099862124
69,6,21,Ticks_Linear_5,35,9999,9999,9999,1100421208
69,6,21,Ticks_Linear_5,36,9999,9999,9999,1100971084
69,6,21,Ticks_Linear_5,37,9999,9999,9999,1101522004
69,6,21,Ticks_Linear_5,38,9999,9999,9999,1102071876
69,6,21,Ticks_Linear_5,39,9999,9999,9999,1102621752
69,6,21,Ticks_Linear_5,40,9999,9999,9999,1103181884
69,6,21,Ticks_Linear_5,41,9999,9999,9999,1103742020
69,6,21,Ticks_Linear_5,42,9999,9999,9999,1104301180
69,6,21,Ticks_Linear_5,43,9999,9999,9999,1104861312
69,6,21,Ticks_Linear_5,44,9999,9999,9999,1105421372
69,6,21,Ticks_Linear_5,45,9999,9999,9999,1105991788
69,6,21,Ticks_Linear_5,46,9999,9999,9999,1106561108
69,6,21,Ticks_Linear_5,47,9999,9999,9999,1107131500
69,6,21,Ticks_Linear_5,48,9999,9999,9999,1107701816
69,6,21,Ticks_Linear_5,49,9999,9999,9999,1108271160
69,6,21,Ticks_Linear_5,50,9999,9999,9999,1108851836
69,6,21,Ticks_Linear_5,51,9999,9999,9999,1109431352
69,6,21,Ticks_Linear_5,52,9999,9999,9999,1110012020
69,6,21,Ticks_Linear_5,53,9999,9999,9999,1110591552
69,6,21,Ticks_Linear_5,54,9999,9999,9999,1111171180
69,6,21,Ticks_Linear_5,55,9999,9999,9999,1111762020
69,6,21,Ticks_Linear_5,56,9999,9999,9999,1112351808
69,6,21,Ticks_Linear_5,57,9999,9999,9999,1112941696
69,6,21,Ticks_Linear_5,58,9999,9999,9999,1113531472
69,6,21,Ticks_Linear_5,59,9999,9999,9999,1114121276
69,6,21,Ticks_Linear_5,60,9999,9999,9999,1114721356
69,6,21,Ticks_Linear_5,61,9999,9999,9999,1115321396
69,6,21,Ticks_Linear_5,62,9999,9999,9999,1115921520
69,6,21,Ticks_Linear_5,63,9999,9999,9999,1116521528
69,6,21,Ticks_Linear_5,64,9999,9999,9999,1117121648
69,6,21,Ticks_Linear_5,65,9999,9999,9999,1117731952
69,6,21,Ticks_Linear_5,66,9999,9999,9999,1118341244
69,6,21,Ticks_Linear_5,67,9999,9999,9999,1118951552
69,6,21,Ticks_Linear_5,68,9999,9999,9999,1119561832
69,6,21,Ticks_Linear_5,69,9999,9999,9999,1120171084
69,6,21,Ticks_Linear_5,70,9999,9999,9999,1120791652
69,6,21,Ticks_Linear_5,71,9999,9999,9999,1121411196
69,6,21,Ticks_Linear_5,72,9999,9999,9999,1122031688
69,6,21,Ticks_Linear_5,73,9999,9999,9999,1122651232
69,6,21,Ticks_Linear_5,74,9999,9999,9999,1123271796
69,6,21,Ticks_Linear_5,75,9999,9999,9999,1123901504
69,6,21,Ticks_Linear_5,76,9999,9999,9999,1124531308
69,6,21,Ticks_Linear_5,77,9999,9999,9999,1125162056
69,6,21,Ticks_Linear_5,78,9999,9999,9999,1125791860
69,6,21,Ticks_Linear_5,79,9999,9999,9999,1126421564
69,6,21,Ticks_Linear_5,80,9999,9999,9999,1127061628
69,6,21,Ticks_Linear_5,81,9999,9999,9999,1127701588
69,6,21,Ticks_Linear_5,82,9999,9999,9999,1128341560
69,6,21,Ticks_Linear_5,83,9999,9999,9999,1128981616
69,6,21,Ticks_Linear_5,84,9999,9999,9999,1129621604
69,6,21,Ticks_Linear_5,85,9999,9999,9999,1130271828
69,6,21,Ticks_Linear_5,86,9999,9999,9999,1130922076
69,6,21,Ticks_Linear_5,87,9999,9999,9999,1131571324
69,6,21,Ticks_Linear_5,88,9999,9999,9999,1132221500
69,6,21,Ticks_Linear_5,89,9999,9999,9999,1132871752
69,6,21,Ticks_Linear_5,90,9999,9999,9999,1133531264
69,6,21,Ticks_Linear_5,91,9999,9999,9999,1134191696
69,6,21,Ticks_Linear_5,92,9999,9999,9999,1134851128
69,6,21,Ticks_Linear_5,93,9999,9999,9999,1135511636
69,6,21,Ticks_Linear_5,94,9999,9999,9999,1136171068
69,6,21,Ticks_Linear_5,95,9999,9999,9999,1136841832
69,6,21,Ticks_Linear_5,96,9999,9999,9999,1137511552
69,6,21,Ticks_Linear_5,97,9999,9999,9999,1138181244
69,6,21,Ticks_Linear_5,98,9999,9999,9999,1138851936
69,6,21,Ticks_Linear_5,99,9999,9999,9999,1139521636
69,6,21,Ticks_Linear_5,100,9999,9999,9999,1140201536
69,6,21,Ticks_Linear_5,101,9999,9999,9999,1140881512
69,6,21,Ticks_Linear_5,102,9999,9999,9999,1141561468
69,6,21,Ticks_Linear_5,103,9999,9999,9999,1142241372
69,6,21,Ticks_Linear_5,104,9999,9999,9999,1142921276
69,6,21,Ticks_Linear_5,105,9999,9999,9999,1143611488
69,6,21,Ticks_Linear_5,106,9999,9999,9999,1144301648
69,6,21,Ticks_Linear_5,107,9999,9999,9999,1144991812
69,6,21,Ticks_Linear_5,108,9999,9999,9999,1145681976
69,6,21,Ticks_Linear_5,109,9999,9999,9999,1146371144
69,6,21,Ticks_Linear_5,110,9999,9999,9999,1147071568
69,6,21,Ticks_Linear_5,111,9999,9999,9999,1147771988
69,6,21,Ticks_Linear_5,112,9999,9999,9999,1148471420
69,6,21,Ticks_Linear_5,113,9999,9999,9999,1149171836
69,6,21,Ticks_Linear_5,114,9999,9999,9999,1149871216
69,6,21,Ticks_Linear_5,115,9999,9999,9999,1150581844
69,6,21,Ticks_Linear_5,116,9999,9999,9999,1151291452
69,6,21,Ticks_Linear_5,117,9999,9999,9999,1152001084
69,6,21,Ticks_Linear_5,118,9999,9999,9999,1152711764
69,6,21,Ticks_Linear_5,119,9999,9999,9999,1153421396
69,6,21,Ticks_Linear_5,120,9999,9999,9999,1154141292
69,6,21,Ticks_Linear_5,121,9999,9999,9999,1154861160
69,6,21,Ticks_Linear_5,122,9999,9999,9999,1155582024
69,6,21,Ticks_Linear_5,123,9999,9999,9999,1156301936
69,6,21,Ticks_Linear_5,124,9999,9999,9999,1157021812
69,6,21,Ticks_Linear_5,125,9999,9999,9999,1157751892
69,6,21,Ticks_Linear_5,126,9999,9999,9999,1158481976
69,6,21,Ticks_Linear_5,127,9999,9999,9999,1159211124
69,6,21,Ticks_Linear_5,128,9999,9999,9999,1159941204
69,6,21,Ticks_Linear_5,129,9999,9999,9999,1160671356
69,6,21,Ticks_Linear_5,130,9999,9999,9999,1161411696
69,6,21,Ticks_Linear_5,131,9999,9999,9999,1162152032
69,6,21,Ticks_Linear_5,132,9999,9999,9999,1162891328
69,6,21,Ticks_Linear_5,133,9999,9999,9999,1163631736
69,6,21,Ticks_Linear_5,134,9999,9999,9999,1164372072
69,6,21,Ticks_Linear_5,135,9999,9999,9999,1165121596
69,6,21,Ticks_Linear_5,136,9999,9999,9999,1165871220
69,6,21,Ticks_Linear_5,137,9999,9999,9999,1166621816
69,6,21,Ticks_Linear_5,138,9999,9999,9999,1167371372
69,6,21,Ticks_Linear_5,139,9999,9999,9999,1168121960
69,6,21,Ticks_Linear_5,140,9999,9999,9999,1168881768
69,6,21,Ticks_Linear_5,141,9999,9999,9999,1169641608
69,6,21,Ticks_Linear_5,142,9999,9999,9999,1170401388
69,6,21,Ticks_Linear_5,143,9999,9999,9999,1171161196
69,6,21,Ticks_Linear_5,144,9999,9999,9999,1171921976
69,6,21,Ticks_Linear_5,145,9999,9999,9999,1172692044
69,6,21,Ticks_Linear_5,146,9999,9999,9999,1173462112
69,6,21,Ticks_Linear_5,147,9999,9999,9999,1174241392
69,6,21,Ticks_Linear_5,148,9999,9999,9999,1175011384
69,6,21,Ticks_Linear_5,149,9999,9999,9999,1175781452
69,6,21,Ticks_Linear_5,150,9999,9999,9999,1176561776
69,6,21,Ticks_Linear_5,151,9999,9999,9999,1177342036
69,6,21,Ticks_Linear_5,152,9999,9999,9999,1178121316
69,6,21,Ticks_Linear_5,153,9999,9999,9999,1178901620
69,6,21,Ticks_Linear_5,154,9999,9999,9999,1179681872
69,6,21,Ticks_Linear_5,155,9999,9999,9999,1180471356
69,6,21,Ticks_Linear_5,156,9999,9999,9999,1181261892
69,6,21,Ticks_Linear_5,157,9999,9999,9999,1182051428
69,6,21,Ticks_Linear_5,158,9999,9999,9999,1182841940
69,6,21,Ticks_Linear_5,159,9999,9999,9999,1183631484
69,6,21,Ticks_Linear_5,160,9999,9999,9999,1184431204
69,6,21,Ticks_Linear_5,161,9999,9999,9999,1185231972
69,6,21,Ticks_Linear_5,162,9999,9999,9999,1186031700
69,6,21,Ticks_Linear_5,163,9999,9999,9999,1186831424
69,6,21,Ticks_Linear_5,164,9999,9999,9999,1187631208
69,6,21,Ticks_Linear_5,165,9999,9999,9999,1188441156
69,6,21,Ticks_Linear_5,166,9999,9999,9999,1189251136
69,6,21,Ticks_Linear_5,167,9999,9999,9999,1190061128
69,6,21,Ticks_Linear_5,168,9999,9999,9999,1190871164
69,6,21,Ticks_Linear_5,169,9999,9999,9999,1191681084
69,7,9,Ticks_ISO_T2_8,0,5,42,127,1202980084
69,7,9,Ticks_ISO_T2_8,1,5,42,127,1203780008
69,7,9,Ticks_ISO_T2_8,2,5,42,127,1204579616
69,7,9,Ticks_ISO_T2_8,3,5,42,127,1205379296
69,7,9,Ticks_ISO_T2_8,4,1,48,31,1206109300
69,7,9,Ticks_ISO_T2_8,5,5,42,127,1206180316
69,7,9,Ticks_ISO_T2_8,6,1,48,18,1206938428
69,7,9,Ticks_ISO_T2_8,7,5,42,127,1206980052
69,7,9,Ticks_ISO_T2_8,8,5,42,127,1207779716
69,7,9,Ticks_ISO_T2_8,9,1,48,35,1207780684
69,7,9,Ticks_ISO_T2_8,10,1,48,32,1208531240
69,7,9,Ticks_ISO_T2_8,11,5,42,127,1208579296
69,7,9,Ticks_ISO_T2_8,12,1,48,36,1209344956
69,7,9,Ticks_ISO_T2_8,13,5,42,127,1209380300
69,7,9,Ticks_ISO_T2_8,14,5,42,127,1210180064
69,7,9,Ticks_ISO_T2_8,15,1,48,36,1210201584
69,7,9,Ticks_ISO_T2_8,16,1,48,31,1210885712
69,7,9,Ticks_ISO_T2_8,17,5,42,127,1210979792
69,7,9,Ticks_ISO_T2_8,18,1,48,29,1211742616
69,7,9,Ticks_ISO_T2_8,19,5,42,127,1211779448
69,7,9,Ticks_ISO_T2_8,20,1,48,29,1212555960
69,7,9,Ticks_ISO_T2_8,21,5,42,127,1212580232
69,7,9,Ticks_ISO_T2_8,22,1,48,32,1213350012
69,7,9,Ticks_ISO_T2_8,23,5,42,127,1213379964
69,7,9,Ticks_ISO_T2_8,24,1,48,29,1214170088
69,7,9,Ticks_ISO_T2_8,25,5,42,127,1214179772
69,7,9,Ticks_ISO_T2_8,26,1,48,25,1214963840
69,7,9,Ticks_ISO_T2_8,27,5,42,127,1214979580
69,7,9,Ticks_ISO_T2_8,28,1,48,26,1215775840
69,7,9,Ticks_ISO_T2_8,29,5,42,127,1215780060
69,7,9,Ticks_ISO_T2_8,30,1,48,28,1216578536
69,7,9,Ticks_ISO_T2_8,31,5,42,127,1216580044
69,7,9,Ticks_ISO_T2_8,32,5,42,127,1217379784
69,7,9,Ticks_ISO_T2_8,33,1,48,27,1217405044
69,7,9,Ticks_ISO_T2_8,34,1,48,17,1218145816
69,7,9,Ticks_ISO_T2_8,35,5,42,127,1218179584
69,7,9,Ticks_ISO_T2_8,36,5,42,127,1218980148
69,7,9,Ticks_ISO_T2_8,37,1,48,32,1219003088
69,7,9,Ticks_ISO_T2_8,38,5,42,127,1219779808
69,7,9,Ticks_ISO_T2_8,39,1,48,29,1219798708
69,7,9,Ticks_ISO_T2_8,40,1,48,34,1220556684
69,7,9,Ticks_ISO_T2_8,41,5,42,127,1220579684
69,7,9,Ticks_ISO_T2_8,42,5,42,127,1221379424
69,7,9,Ticks_ISO_T2_8,43,1,48,33,1221385008
69,7,9,Ticks_ISO_T2_8,44,1,48,30,1222100652
69,7,9,Ticks_ISO_T2_8,45,5,42,127,1222180124
69,7,9,Ticks_ISO_T2_8,46,1,48,31,1222917064
69,7,9,Ticks_ISO_T2_8,47,5,42,127,1222979956
69,7,9,Ticks_ISO_T2_8,48,5,42,127,1223779916
69,7,9,Ticks_ISO_T2_8,49,1,48,28,1224521068
69,7,9,Ticks_ISO_T2_8,50,5,42,127,1224579444
69,7,9,Ticks_ISO_T2_8,51,1,48,30,1225338008
69,7,9,Ticks_ISO_T2_8,52,5,42,127,1225380224
69,7,9,Ticks_ISO_T2_8,53,1,48,29,1226103700
69,7,9,Ticks_ISO_T2_8,54,5,42,127,1226179956
69,7,9,Ticks_ISO_T2_8,55,1,48,28,1226929396
69,7,9,Ticks_ISO_T2_8,56,5,42,127,1226979764
69,7,9,Ticks_ISO_T2_8,57,5,42,127,1227779580
69,7,9,Ticks_ISO_T2_8,58,1,48,42,1227811720
69,7,9,Ticks_ISO_T2_8,59,1,48,23,1228573512
69,7,9,Ticks_ISO_T2_8,60,5,42,127,1228580280
69,7,9,Ticks_ISO_T2_8,61,5,42,127,1229379972
69,7,9,Ticks_ISO_T2_8,62,1,48,28,1229438216
69,7,9,Ticks_ISO_T2_8,63,1,48,33,1230149516
69,7,9,Ticks_ISO_T2_8,64,5,42,127,1230179624
69,7,9,Ticks_ISO_T2_8,65,5,42,127,1230979660
69,7,9,Ticks_ISO_T2_8,66,1,48,30,1230991684
69,7,9,Ticks_ISO_T2_8,67,5,42,127,1231780068
69,7,9,Ticks_ISO_T2_8,68,1,48,20,1231826048
69,7,9,Ticks_ISO_T2_8,69,1,48,44,1232458516
69,7,9,Ticks_ISO_T2_8,70,5,42,127,1232579856
69,7,9,Ticks_ISO_T2_8,71,1,48,21,1233330280
69,7,9,Ticks_ISO_T2_8,72,5,42,127,1233379680
69,7,9,Ticks_ISO_T2_8,73,5,42,127,1234179568
69,7,9,Ticks_ISO_T2_8,74,1,48,34,1234191740
69,7,9,Ticks_ISO_T2_8,75,1,48,29,1234956220
69,7,9,Ticks_ISO_T2_8,76,5,42,127,1234980340
69,7,9,Ticks_ISO_T2_8,77,1,48,32,1235773836
69,7,9,Ticks_ISO_T2_8,78,5,42,127,1235779876
69,7,9,Ticks_ISO_T2_8,79,1,48,37,1236517024
69,7,9,Ticks_ISO_T2_8,80,5,42,127,1236579684
69,7,9,Ticks_ISO_T2_8,81,1,48,36,1237330992
69,7,9,Ticks_ISO_T2_8,82,5,42,127,1237379568
69,7,9,Ticks_ISO_T2_8,83,5,42,127,1238180280
69,7,9,Ticks_ISO_T2_8,84,1,48,34,1238199780
69,7,9,Ticks_ISO_T2_8,85,1,48,20,1238908244
69,7,9,Ticks_ISO_T2_8,86,5,42,127,1238979932
69,7,9,Ticks_ISO_T2_8,87,5,42,127,1239779820
69,7,9,Ticks_ISO_T2_8,88,1,48,36,1239797152
69,7,9,Ticks_ISO_T2_8,89,1,48,41,1240544732
69,7,9,Ticks_ISO_T2_8,90,5,42,127,1240579472
69,7,9,Ticks_ISO_T2_8,91,1,48,38,1241342520
69,7,9,Ticks_ISO_T2_8,92,5,42,127,1241380324
69,7,9,Ticks_ISO_T2_8,93,1,48,39,1242149136
69,7,9,Ticks_ISO_T2_8,94,5,42,127,1242180084
69,7,9,Ticks_ISO_T2_8,95,1,48,42,1242944708
69,7,9,Ticks_ISO_T2_8,96,5,42,127,1242979596
69,7,9,Ticks_ISO_T2_8,97,1,48,30,1243723420
69,7,9,Ticks_ISO_T2_8,98,5,42,127,1243779552
69,7,9,Ticks_ISO_T2_8,99,1,48,41,1244575812
69,7,9,Ticks_ISO_T2_8,100,5,42,127,1244580480
69,7,9,Ticks_ISO_T2_8,101,5,42,127,1245380072
69,7,9,Ticks_ISO_T2_8,102,1,48,40,1245418120
69,7,9,Ticks_ISO_T2_8,103,1,48,28,1246097940
69,7,9,Ticks_ISO_T2_8,104,5,42,127,1246179652
69,7,9,Ticks_ISO_T2_8,105,5,42,127,1246979316
69,7,9,Ticks_ISO_T2_8,106,1,48,35,1246982288
69,7,9,Ticks_ISO_T2_8,107,5,42,127,1247780316
69,7,9,Ticks_ISO_T2_8,108,1,48,33,1247837164
69,7,9,Ticks_ISO_T2_8,109,5,42,127,1248580076
69,7,9,Ticks_ISO_T2_8,110,1,48,41,1248924668
69,7,9,Ticks_ISO_T2_8,111,5,42,127,1249379660
69,7,9,Ticks_ISO_T2_8,112,1,48,33,1249521228
69,7,9,Ticks_ISO_T2_8,113,5,42,127,1250179616
69,7,9,Ticks_ISO_T2_8,114,1,48,22,1250247508
69,7,9,Ticks_ISO_T2_8,115,5,42,127,1250980172
69,7,9,Ticks_ISO_T2_8,116,1,48,36,1251032508
69,7,9,Ticks_ISO_T2_8,117,5,42,127,1251780204
69,7,9,Ticks_ISO_T2_8,118,1,48,34,1252365524
69,7,9,Ticks_ISO_T2_8,119,5,42,127,1252579640
69,7,9,Ticks_ISO_T2_8,120,1,48,21,1253053136
69,7,9,Ticks_ISO_T2_8,121,5,42,127,1253379448
69,7,9,Ticks_ISO_T2_8,122,1,48,20,1254103912
69,7,9,Ticks_ISO_T2_8,123,5,42,127,1254180244
69,7,9,Ticks_ISO_T2_8,124,1,48,29,1254939104
69,7,9,Ticks_ISO_T2_8,125,5,42,127,1254980224
69,7,9,Ticks_ISO_T2_8,126,1,48,41,1255751572
69,7,9,Ticks_ISO_T2_8,127,5,42,127,1255779884
69,7,9,Ticks_ISO_T2_8,128,5,42,127,1256579400
69,7,9,Ticks_ISO_T2_8,129,1,48,32,1256641836
69,7,9,Ticks_ISO_T2_8,130,1,48,24,1257369748
69,7,9,Ticks_ISO_T2_8,131,5,42,127,1257380176
69,7,9,Ticks_ISO_T2_8,132,5,42,127,1258180212
69,7,9,Ticks_ISO_T2_8,133,1,48,24,1258209364
69,7,9,Ticks_ISO_T2_8,134,1,48,27,1258912816
69,7,9,Ticks_ISO_T2_8,135,5,42,127,1258979864
69,7,9,Ticks_ISO_T2_8,136,1,48,28,1259762288
69,7,9,Ticks_ISO_T2_8,137,5,42,127,1259779376
69,7,9,Ticks_ISO_T2_8,138,1,48,31,1260555440
69,7,9,Ticks_ISO_T2_8,139,5,42,127,1260580156
69,7,9,Ticks_ISO_T2_8,140,1,48,23,1261315976
69,7,9,Ticks_ISO_T2_8,141,5,42,127,1261379912
69,7,9,Ticks_ISO_T2_8,142,5,42,127,1262179876
69,7,9,Ticks_ISO_T2_8,143,1,48,27,1262418560
69,7,9,Ticks_ISO_T2_8,144,5,42,127,1262979388
69,7,9,Ticks_ISO_T2_8,145,5,42,127,1263780188
69,7,9,Ticks_ISO_T2_8,146,5,42,127,1264579872
69,7,9,Ticks_ISO_T2_8,147,1,48,32,1264656964
69,7,9,Ticks_ISO_T2_8,148,5,42,127,1265379976
69,7,9,Ticks_ISO_T2_8,149,1,48,37,1265402616
69,7,9,Ticks_ISO_T2_8,150,5,42,127,1266179484
69,7,9,Ticks_ISO_T2_8,151,1,48,36,1266208632
69,7,9,Ticks_ISO_T2_8,152,5,42,127,1266980192
69,7,9,Ticks_ISO_T2_8,153,1,48,29,1267013328
69,7,9,Ticks_ISO_T2_8,154,1,48,29,1267732236
69,7,9,Ticks_ISO_T2_8,155,5,42,127,1267779940
69,7,9,Ticks_ISO_T2_8,156,5,42,127,1268579756
69,7,9,Ticks_ISO_T2_8,157,1,48,29,1268617204
69,7,9,Ticks_ISO_T2_8,158,5,42,127,1269379416
69,7,9,Ticks_ISO_T2_8,159,1,48,32,1269952768
69,7,9,Ticks_ISO_T2_8,160,5,42,127,1270180120
69,7,9,Ticks_ISO_T2_8,161,5,42,127,1270979952
69,7,9,Ticks_ISO_T2_8,162,5,42,127,1271779632
69,7,9,Ticks_ISO_T2_8,163,1,48,23,1271811696
69,7,9,Ticks_ISO_T2_8,164,1,48,32,1272556432
69,7,9,Ticks_ISO_T2_8,165,5,42,127,1272579584
69,7,9,Ticks_ISO_T2_8,166,1,48,32,1273355192
69,7,9,Ticks_ISO_T2_8,167,5,42,127,1273380140
69,7,9,Ticks_ISO_T2_8,168,5,42,127,1274179904
69,7,9,Ticks_ISO_T2_8,169,1,48,32,1274190056
69,7,9,Ticks_ISO_T2_8,170,1,48,26,1274978664
69,7,9,Ticks_ISO_T2_8,171,5,42,127,1274980152
69,7,9,Ticks_ISO_T2_8,172,5,42,127,1275779372
69,7,9,Ticks_ISO_T2_8,173,1,48,29,1275783392
69,7,9,Ticks_ISO_T2_8,174,1,48,29,1276570240
69,7,9,Ticks_ISO_T2_8,175,5,42,127,1276580148
69,7,9,Ticks_ISO_T2_8,176,1,48,26,1277365488
69,7,9,Ticks_ISO_T2_8,177,5,42,127,1277379956
69,7,9,Ticks_ISO_T2_8,178,1,48,29,1278169856
69,7,9,Ticks_ISO_T2_8,179,5,42,127,1278179540
69,7,9,Ticks_ISO_T2_8,180,5,42,127,1278979504
69,7,9,Ticks_ISO_T2_8,181,1,48,27,1278982624
69,7,9,Ticks_ISO_T2_8,182,5,42,127,1279780132
69,7,9,Ticks_ISO_T2_8,183,1,48,27,1279816712
69,7,9,Ticks_ISO_T2_8,184,1,48,31,1280459552
69,7,9,Ticks_ISO_T2_8,185,5,42,127,1280579872
69,7,9,Ticks_ISO_T2_8,186,1,48,24,1281369712
69,7,9,Ticks_ISO_T2_8,187,5,42,127,1281379544
69,7,9,Ticks_ISO_T2_8,188,5,42,127,1282179508
69,7,9,Ticks_ISO_T2_8,189,1,48,27,1282303944
69,7,9,Ticks_ISO_T2_8,190,5,42,127,1282980140
69,7,9,Ticks_ISO_T2_8,191,1,48,24,1283186960
69,7,9,Ticks_ISO_T2_8,192,5,42,127,1283779800
69,7,9,Ticks_ISO_T2_8,193,5,42,127,1284579776
69,7,9,Ticks_ISO_T2_8,194,1,48,24,1284598232
69,7,9,Ticks_ISO_T2_8,195,5,42,127,1285379360
69,7,9,Ticks_ISO_T2_8,196,1,48,30,1285399980
69,7,9,Ticks_ISO_T2_8,197,1,48,28,1286083236
69,7,9,Ticks_ISO_T2_8,198,5,42,127,1286180416
69,7,9,Ticks_ISO_T2_8,199,1,48,34,1286972128
69,7,9,Ticks_ISO_T2_8,200,5,42,127,1286979968
69,7,9,Ticks_ISO_T2_8,201,1,48,32,1287719428
69,7,9,Ticks_ISO_T2_8,202,5,42,127,1287779700
69,7,9,Ticks_ISO_T2_8,203,5,42,127,1288579440
69,7,9,Ticks_ISO_T2_8,204,1,48,20,1288662516
69,7,9,Ticks_ISO_T2_8,205,5,42,127,1289380440
69,7,9,Ticks_ISO_T2_8,206,5,42,127,1290180048
69,7,9,Ticks_ISO_T2_8,207,1,48,20,1290977300
69,7,9,Ticks_ISO_T2_8,208,5,42,127,1290979800
69,7,9,Ticks_ISO_T2_8,209,5,42,127,1291779464
69,7,9,Ticks_ISO_T2_8,210,1,48,30,1291865928
69,7,9,Ticks_ISO_T2_8,211,5,42,127,1292580172
69,7,9,Ticks_ISO_T2_8,212,1,48,25,1292584264
69,7,9,Ticks_ISO_T2_8,213,1,48,27,1293342316
69,7,9,Ticks_ISO_T2_8,214,5,42,127,1293379848
69,7,9,Ticks_ISO_T2_8,215,1,48,20,1294129856
69,7,9,Ticks_ISO_T2_8,216,5,42,127,1294179580
69,7,9,Ticks_ISO_T2_8,217,5,42,127,1294979396
69,7,9,Ticks_ISO_T2_8,218,5,42,127,1295780124
69,7,9,Ticks_ISO_T2_8,219,5,42,127,1296580100
69,7,9,Ticks_ISO_T2_8,220,1,48,21,1297356180
69,7,9,Ticks_ISO_T2_8,221,5,42,127,1297379700
69,7,9,Ticks_ISO_T2_8,222,1,48,29,1298145592
69,7,9,Ticks_ISO_T2_8,223,5,42,127,1298179360
69,7,9,Ticks_ISO_T2_8,224,1,48,33,1298892592
69,7,9,Ticks_ISO_T2_8,0,9999,9999,9999,1202977868
69,7,9,Ticks_ISO_T2_8,1,9999,9999,9999,1203777624
69,7,9,Ticks_ISO_T2_8,2,9999,9999,9999,1204577328
69,7,9,Ticks_ISO_T2_8,3,9999,9999,9999,1205377084
69,7,9,Ticks_ISO_T2_8,4,9999,9999,9999,1206177880
69,7,9,Ticks_ISO_T2_8,5,9999,9999,9999,1206977616
69,7,9,Ticks_ISO_T2_8,6,9999,9999,9999,1207777356
69,7,9,Ticks_ISO_T2_8,7,9999,9999,9999,1208577084
69,7,9,Ticks_ISO_T2_8,8,9999,9999,9999,1209377860
69,7,9,Ticks_ISO_T2_8,9,9999,9999,9999,1210177628
69,7,9,Ticks_ISO_T2_8,10,9999,9999,9999,1210977356
69,7,9,Ticks_ISO_T2_8,11,9999,9999,9999,1211777088
69,7,9,Ticks_ISO_T2_8,12,9999,9999,9999,1212577868
69,7,9,Ticks_ISO_T2_8,13,9999,9999,9999,1213377600
69,7,9,Ticks_ISO_T2_8,14,9999,9999,9999,1214177336
69,7,9,Ticks_ISO_T2_8,15,9999,9999,9999,1214977144
69,7,9,Ticks_ISO_T2_8,16,9999,9999,9999,1215777848
69,7,9,Ticks_ISO_T2_8,17,9999,9999,9999,1216577616
69,7,9,Ticks_ISO_T2_8,18,9999,9999,9999,1217377348
69,7,9,Ticks_ISO_T2_8,19,9999,9999,9999,1218177072
69,7,9,Ticks_ISO_T2_8,20,9999,9999,9999,1218977860
69,7,9,Ticks_ISO_T2_8,21,9999,9999,9999,1219777596
69,7,9,Ticks_ISO_T2_8,22,9999,9999,9999,1220577396
69,7,9,Ticks_ISO_T2_8,23,9999,9999,9999,1221377136
69,7,9,Ticks_ISO_T2_8,24,9999,9999,9999,1222177908
69,7,9,Ticks_ISO_T2_8,25,9999,9999,9999,1222977592
69,7,9,Ticks_ISO_T2_8,26,9999,9999,9999,1223777332
69,7,9,Ticks_ISO_T2_8,27,9999,9999,9999,1224577080
69,7,9,Ticks_ISO_T2_8,28,9999,9999,9999,1225377860
69,7,9,Ticks_ISO_T2_8,29,9999,9999,9999,1226177596
69,7,9,Ticks_ISO_T2_8,30,9999,9999,9999,1226977328
69,7,9,Ticks_ISO_T2_8,31,9999,9999,9999,1227777068
69,7,9,Ticks_ISO_T2_8,32,9999,9999,9999,1228577844
69,7,9,Ticks_ISO_T2_8,33,9999,9999,9999,1229377608
69,7,9,Ticks_ISO_T2_8,34,9999,9999,9999,1230177336
69,7,9,Ticks_ISO_T2_8,35,9999,9999,9999,1230977076
69,7,9,Ticks_ISO_T2_8,36,9999,9999,9999,1231777856
69,7,9,Ticks_ISO_T2_8,37,9999,9999,9999,1232577644
69,7,9,Ticks_ISO_T2_8,38,9999,9999,9999,1233377392
69,7,9,Ticks_ISO_T2_8,39,9999,9999,9999,1234177132
69,7,9,Ticks_ISO_T2_8,40,9999,9999,9999,1234977904
69,7,9,Ticks_ISO_T2_8,41,9999,9999,9999,1235777588
69,7,9,Ticks_ISO_T2_8,42,9999,9999,9999,1236577400
69,7,9,Ticks_ISO_T2_8,43,9999,9999,9999,1237377132
69,7,9,Ticks_ISO_T2_8,44,9999,9999,9999,1238177844
69,7,9,Ticks_ISO_T2_8,45,9999,9999,9999,1238977644
69,7,9,Ticks_ISO_T2_8,46,9999,9999,9999,1239777384
69,7,9,Ticks_ISO_T2_8,47,9999,9999,9999,1240577112
69,7,9,Ticks_ISO_T2_8,48,9999,9999,9999,1241377888
69,7,9,Ticks_ISO_T2_8,49,9999,9999,9999,1242177648
69,7,9,Ticks_ISO_T2_8,50,9999,9999,9999,1242977384
69,7,9,Ticks_ISO_T2_8,51,9999,9999,9999,1243777116
69,7,9,Ticks_ISO_T2_8,52,9999,9999,9999,1244577896
69,7,9,Ticks_ISO_T2_8,53,9999,9999,9999,1245377636
69,7,9,Ticks_ISO_T2_8,54,9999,9999,9999,1246177364
69,7,9,Ticks_ISO_T2_8,55,9999,9999,9999,1246977104
69,7,9,Ticks_ISO_T2_8,56,9999,9999,9999,1247777880
69,7,9,Ticks_ISO_T2_8,57,9999,9999,9999,1248577640
69,7,9,Ticks_ISO_T2_8,58,9999,9999,9999,1249377372
69,7,9,Ticks_ISO_T2_8,59,9999,9999,9999,1250177104
69,7,9,Ticks_ISO_T2_8,60,9999,9999,9999,1250977884
69,7,9,Ticks_ISO_T2_8,61,9999,9999,9999,1251777616
69,7,9,Ticks_ISO_T2_8,62,9999,9999,9999,1252577352
69,7,9,Ticks_ISO_T2_8,63,9999,9999,9999,1253377084
69,7,9,Ticks_ISO_T2_8,64,9999,9999,9999,1254177880
69,7,9,Ticks_ISO_T2_8,65,9999,9999,9999,1254977640
69,7,9,Ticks_ISO_T2_8,66,9999,9999,9999,1255777372
69,7,9,Ticks_ISO_T2_8,67,9999,9999,9999,1256577112
69,7,9,Ticks_ISO_T2_8,68,9999,9999,9999,1257377888
69,7,9,Ticks_ISO_T2_8,69,9999,9999,9999,1258177628
69,7,9,Ticks_ISO_T2_8,70,9999,9999,9999,1258977356
69,7,9,Ticks_ISO_T2_8,71,9999,9999,9999,1259777088
69,7,9,Ticks_ISO_T2_8,72,9999,9999,9999,1260577868
69,7,9,Ticks_ISO_T2_8,73,9999,9999,9999,1261377624
69,7,9,Ticks_ISO_T2_8,74,9999,9999,9999,1262177368
69,7,9,Ticks_ISO_T2_8,75,9999,9999,9999,1262977100
69,7,9,Ticks_ISO_T2_8,76,9999,9999,9999,1263777900
69,7,9,Ticks_ISO_T2_8,77,9999,9999,9999,1264577584
69,7,9,Ticks_ISO_T2_8,78,9999,9999,9999,1265377388
69,7,9,Ticks_ISO_T2_8,79,9999,9999,9999,1266177124
69,7,9,Ticks_ISO_T2_8,80,9999,9999,9999,1266977904
69,7,9,Ticks_ISO_T2_8,81,9999,9999,9999,1267777652
69,7,9,Ticks_ISO_T2_8,82,9999,9999,9999,1268577396
69,7,9,Ticks_ISO_T2_8,83,9999,9999,9999,1269377128
69,7,9,Ticks_ISO_T2_8,84,9999,9999,9999,1270177908
69,7,9,Ticks_ISO_T2_8,85,9999,9999,9999,1270977588
69,7,9,Ticks_ISO_T2_8,86,9999,9999,9999,1271777344
69,7,9,Ticks_ISO_T2_8,87,9999,9999,9999,1272577072
69,7,9,Ticks_ISO_T2_8,88,9999,9999,9999,1273377852
69,7,9,Ticks_ISO_T2_8,89,9999,9999,9999,1274177616
69,7,9,Ticks_ISO_T2_8,90,9999,9999,9999,1274977352
69,7,9,Ticks_ISO_T2_8,91,9999,9999,9999,1275777084
69,7,9,Ticks_ISO_T2_8,92,9999,9999,9999,1276577860
69,7,9,Ticks_ISO_T2_8,93,9999,9999,9999,1277377592
69,7,9,Ticks_ISO_T2_8,94,9999,9999,9999,1278177328
69,7,9,Ticks_ISO_T2_8,95,9999,9999,9999,1278977140
69,7,9,Ticks_ISO_T2_8,96,9999,9999,9999,1279777844
69,7,9,Ticks_ISO_T2_8,97,9999,9999,9999,1280577584
69,7,9,Ticks_ISO_T2_8,98,9999,9999,9999,1281377332
69,7,9,Ticks_ISO_T2_8,99,9999,9999,9999,1282177072
69,7,9,Ticks_ISO_T2_8,100,9999,9999,9999,1282977852
69,7,9,Ticks_ISO_T2_8,101,9999,9999,9999,1283777584
69,7,9,Ticks_ISO_T2_8,102,9999,9999,9999,1284577340
69,7,9,Ticks_ISO_T2_8,103,9999,9999,9999,1285377072
69,7,9,Ticks_ISO_T2_8,104,9999,9999,9999,1286177844
69,7,9,Ticks_ISO_T2_8,105,9999,9999,9999,1286977604
69,7,9,Ticks_ISO_T2_8,106,9999,9999,9999,1287777336
69,7,9,Ticks_ISO_T2_8,107,9999,9999,9999,1288577076
69,7,9,Ticks_ISO_T2_8,108,9999,9999,9999,1289377856
69,7,9,Ticks_ISO_T2_8,109,9999,9999,9999,1290177612
69,7,9,Ticks_ISO_T2_8,110,9999,9999,9999,1290977364
69,7,9,Ticks_ISO_T2_8,111,9999,9999,9999,1291777100
69,7,9,Ticks_ISO_T2_8,112,9999,9999,9999,1292577884
69,7,9,Ticks_ISO_T2_8,113,9999,9999,9999,1293377636
69,7,9,Ticks_ISO_T2_8,114,9999,9999,9999,1294177368
69,7,9,Ticks_ISO_T2_8,115,9999,9999,9999,1294977108
69,7,9,Ticks_ISO_T2_8,116,9999,9999,9999,1295777908
69,7,9,Ticks_ISO_T2_8,117,9999,9999,9999,1296577588
69,7,9,Ticks_ISO_T2_8,118,9999,9999,9999,1297377336
69,7,9,Ticks_ISO_T2_8,119,9999,9999,9999,1298177072
69,8,10,Ticks_ISO_T2_5,0,5,42,127,1309330208
69,8,10,Ticks_ISO_T2_5,1,5,42,127,1309829556
69,8,10,Ticks_ISO_T2_5,2,5,42,127,1310330168
69,8,10,Ticks_ISO_T2_5,3,5,42,127,1310829960
69,8,10,Ticks_ISO_T2_5,4,5,42,127,1311329676
69,8,10,Ticks_ISO_T2_5,5,1,48,21,1311364660
69,8,10,Ticks_ISO_T2_5,6,5,42,127,1311830344
69,8,10,Ticks_ISO_T2_5,7,1,48,27,1311864204
69,8,10,Ticks_ISO_T2_5,8,5,42,127,1312330184
69,8,10,Ticks_ISO_T2_5,9,1,48,31,1312388880
69,8,10,Ticks_ISO_T2_5,10,5,42,127,1312829880
69,8,10,Ticks_ISO_T2_5,11,1,48,30,1312869948
69,8,10,Ticks_ISO_T2_5,12,5,42,127,1313329476
69,8,10,Ticks_ISO_T2_5,13,1,48,36,1313353188
69,8,10,Ticks_ISO_T2_5,14,5,42,127,1313830220
69,8,10,Ticks_ISO_T2_5,15,1,48,33,1313851812
69,8,10,Ticks_ISO_T2_5,16,5,42,127,1314330036
69,8,10,Ticks_ISO_T2_5,17,1,48,35,1314334204
69,8,10,Ticks_ISO_T2_5,18,1,48,37,1314829056
69,8,10,Ticks_ISO_T2_5,19,5,42,127,1314830620
69,8,10,Ticks_ISO_T2_5,20,5,42,127,1315330548
69,8,10,Ticks_ISO_T2_5,21,1,48,34,1315343240
69,8,10,Ticks_ISO_T2_5,22,5,42,127,1315830168
69,8,10,Ticks_ISO_T2_5,23,1,48,36,1315866268
69,8,10,Ticks_ISO_T2_5,24,5,42,127,1316329788
69,8,10,Ticks_ISO_T2_5,25,1,48,35,1316370456
69,8,10,Ticks_ISO_T2_5,26,5,42,127,1316829708
69,8,10,Ticks_ISO_T2_5,27,1,48,35,1316877104
69,8,10,Ticks_ISO_T2_5,28,1,48,33,1317320836
69,8,10,Ticks_ISO_T2_5,29,5,42,127,1317330216
69,8,10,Ticks_ISO_T2_5,30,5,42,127,1317829920
69,8,10,Ticks_ISO_T2_5,31,1,48,29,1317877468
69,8,10,Ticks_ISO_T2_5,32,5,42,127,1318329760
69,8,10,Ticks_ISO_T2_5,33,1,48,35,1318387936
69,8,10,Ticks_ISO_T2_5,34,5,42,127,1318829532
69,8,10,Ticks_ISO_T2_5,35,1,48,32,1318908344
69,8,10,Ticks_ISO_T2_5,36,5,42,127,1319330124
69,8,10,Ticks_ISO_T2_5,37,1,48,36,1319350744
69,8,10,Ticks_ISO_T2_5,38,5,42,127,1319829968
69,8,10,Ticks_ISO_T2_5,39,1,48,38,1319842216
69,8,10,Ticks_ISO_T2_5,40,1,48,37,1320315560
69,8,10,Ticks_ISO_T2_5,41,5,42,127,1320329656
69,8,10,Ticks_ISO_T2_5,42,5,42,127,1320830180
69,8,10,Ticks_ISO_T2_5,43,1,48,37,1320850128
69,8,10,Ticks_ISO_T2_5,44,5,42,127,1321330172
69,8,10,Ticks_ISO_T2_5,45,1,48,20,1321367248
69,8,10,Ticks_ISO_T2_5,46,5,42,127,1321829644
69,8,10,Ticks_ISO_T2_5,47,1,48,32,1321882056
69,8,10,Ticks_ISO_T2_5,48,1,48,28,1322325336
69,8,10,Ticks_ISO_T2_5,49,5,42,127,1322329556
69,8,10,Ticks_ISO_T2_5,50,5,42,127,1322830304
69,8,10,Ticks_ISO_T2_5,51,1,48,29,1322839780
69,8,10,Ticks_ISO_T2_5,52,5,42,127,1323329776
69,8,10,Ticks_ISO_T2_5,53,1,48,29,1323340672
69,8,10,Ticks_ISO_T2_5,54,1,48,32,1323786168
69,8,10,Ticks_ISO_T2_5,55,5,42,127,1323829588
69,8,10,Ticks_ISO_T2_5,56,1,48,37,1324300676
69,8,10,Ticks_ISO_T2_5,57,5,42,127,1324330552
69,8,10,Ticks_ISO_T2_5,58,5,42,127,1324829956
69,8,10,Ticks_ISO_T2_5,59,1,48,33,1324856788
69,8,10,Ticks_ISO_T2_5,60,5,42,127,1325329800
69,8,10,Ticks_ISO_T2_5,61,1,48,43,1325331812
69,8,10,Ticks_ISO_T2_5,62,5,42,127,1325829496
69,8,10,Ticks_ISO_T2_5,63,1,48,38,1325873824
69,8,10,Ticks_ISO_T2_5,64,5,42,127,1326330160
69,8,10,Ticks_ISO_T2_5,65,1,48,32,1326342184
69,8,10,Ticks_ISO_T2_5,66,5,42,127,1326829856
69,8,10,Ticks_ISO_T2_5,67,1,48,31,1326895876
69,8,10,Ticks_ISO_T2_5,68,5,42,127,1327329624
69,8,10,Ticks_ISO_T2_5,69,1,48,34,1327334912
69,8,10,Ticks_ISO_T2_5,70,1,48,39,1327821496
69,8,10,Ticks_ISO_T2_5,71,5,42,127,1327830584
69,8,10,Ticks_ISO_T2_5,72,5,42,127,1328329984
69,8,10,Ticks_ISO_T2_5,73,1,48,34,1328343128
69,8,10,Ticks_ISO_T2_5,74,1,48,34,1328810564
69,8,10,Ticks_ISO_T2_5,75,5,42,127,1328829824
69,8,10,Ticks_ISO_T2_5,76,1,48,45,1329323648
69,8,10,Ticks_ISO_T2_5,77,5,42,127,1329329444
69,8,10,Ticks_ISO_T2_5,78,1,48,48,1329802996
69,8,10,Ticks_ISO_T2_5,79,5,42,127,1329830408
69,8,10,Ticks_ISO_T2_5,80,1,48,50,1330300896
69,8,10,Ticks_ISO_T2_5,81,5,42,127,1330330028
69,8,10,Ticks_ISO_T2_5,82,5,42,127,1330829580
69,8,10,Ticks_ISO_T2_5,83,1,48,44,1330839500
69,8,10,Ticks_ISO_T2_5,84,1,48,46,1331281884
69,8,10,Ticks_ISO_T2_5,85,5,42,127,1331330536
69,8,10,Ticks_ISO_T2_5,86,1,48,43,1331823696
69,8,10,Ticks_ISO_T2_5,87,5,42,127,1331830380
69,8,10,Ticks_ISO_T2_5,88,1,48,43,1332285912
69,8,10,Ticks_ISO_T2_5,89,5,42,127,1332329852
69,8,10,Ticks_ISO_T2_5,90,1,48,44,1332814108
69,8,10,Ticks_ISO_T2_5,91,5,42,127,1332829472
69,8,10,Ticks_ISO_T2_5,92,1,48,45,1333306444
69,8,10,Ticks_ISO_T2_5,93,5,42,127,1333330436
69,8,10,Ticks_ISO_T2_5,94,1,48,46,1333786844
69,8,10,Ticks_ISO_T2_5,95,5,42,127,1333830056
69,8,10,Ticks_ISO_T2_5,96,1,48,44,1334289300
69,8,10,Ticks_ISO_T2_5,97,5,42,127,1334329580
69,8,10,Ticks_ISO_T2_5,98,1,48,43,1334753168
69,8,10,Ticks_ISO_T2_5,99,5,42,127,1334829348
69,8,10,Ticks_ISO_T2_5,100,1,48,40,1335276800
69,8,10,Ticks_ISO_T2_5,101,5,42,127,1335330312
69,8,10,Ticks_ISO_T2_5,102,1,48,45,1335817856
69,8,10,Ticks_ISO_T2_5,103,5,42,127,1335829860
69,8,10,Ticks_ISO_T2_5,104,1,48,50,1336264296
69,8,10,Ticks_ISO_T2_5,105,5,42,127,1336329776
69,8,10,Ticks_ISO_T2_5,106,5,42,127,1336830376
69,8,10,Ticks_ISO_T2_5,107,1,48,45,1336833572
69,8,10,Ticks_ISO_T2_5,108,1,48,45,1337325768
69,8,10,Ticks_ISO_T2_5,109,5,42,127,1337330140
69,8,10,Ticks_ISO_T2_5,110,1,48,42,1337807660
69,8,10,Ticks_ISO_T2_5,111,5,42,127,1337829760
69,8,10,Ticks_ISO_T2_5,112,1,48,43,1338259112
69,8,10,Ticks_ISO_T2_5,113,5,42,127,1338329456
69,8,10,Ticks_ISO_T2_5,114,1,48,43,1338781688
69,8,10,Ticks_ISO_T2_5,115,5,42,127,1338830120
69,8,10,Ticks_ISO_T2_5,116,1,48,48,1339302932
69,8,10,Ticks_ISO_T2_5,117,5,42,127,1339329964
69,8,10,Ticks_ISO_T2_5,118,1,48,48,1339770608
69,8,10,Ticks_ISO_T2_5,119,5,42,127,1339829584
69,8,10,Ticks_ISO_T2_5,120,1,48,46,1340273368
69,8,10,Ticks_ISO_T2_5,121,5,42,127,1340330328
69,8,10,Ticks_ISO_T2_5,122,1,48,46,1340767156
69,8,10,Ticks_ISO_T2_5,123,5,42,127,1340830024
69,8,10,Ticks_ISO_T2_5,124,1,48,48,1341270740
69,8,10,Ticks_ISO_T2_5,125,5,42,127,1341329792
69,8,10,Ticks_ISO_T2_5,126,1,48,51,1341770212
69,8,10,Ticks_ISO_T2_5,127,5,42,127,1341829412
69,8,10,Ticks_ISO_T2_5,128,1,48,40,1342254996
69,8,10,Ticks_ISO_T2_5,129,5,42,127,1342330304
69,8,10,Ticks_ISO_T2_5,130,1,48,41,1342773912
69,8,10,Ticks_ISO_T2_5,131,5,42,127,1342830144
69,8,10,Ticks_ISO_T2_5,132,1,48,42,1343286480
69,8,10,Ticks_ISO_T2_5,133,5,42,127,1343329620
69,8,10,Ticks_ISO_T2_5,134,1,48,41,1343777272
69,8,10,Ticks_ISO_T2_5,135,5,42,127,1343830508
69,8,10,Ticks_ISO_T2_5,136,1,48,38,1344300896
69,8,10,Ticks_ISO_T2_5,137,5,42,127,1344330204
69,8,10,Ticks_ISO_T2_5,138,1,48,47,1344757360
69,8,10,Ticks_ISO_T2_5,139,5,42,127,1344829748
69,8,10,Ticks_ISO_T2_5,140,1,48,41,1345292656
69,8,10,Ticks_ISO_T2_5,141,5,42,127,1345329640
69,8,10,Ticks_ISO_T2_5,142,1,48,42,1345779484
69,8,10,Ticks_ISO_T2_5,143,5,42,127,1345830160
69,8,10,Ticks_ISO_T2_5,144,5,42,127,1346329936
69,8,10,Ticks_ISO_T2_5,145,1,48,33,1346336872
69,8,10,Ticks_ISO_T2_5,146,5,42,127,1346829552
69,8,10,Ticks_ISO_T2_5,147,1,48,38,1346869772
69,8,10,Ticks_ISO_T2_5,148,1,48,42,1347325316
69,8,10,Ticks_ISO_T2_5,149,5,42,127,1347330436
69,8,10,Ticks_ISO_T2_5,150,5,42,127,1347830212
69,8,10,Ticks_ISO_T2_5,151,1,48,33,1347861304
69,8,10,Ticks_ISO_T2_5,152,1,48,49,1348316628
69,8,10,Ticks_ISO_T2_5,153,5,42,127,1348329972
69,8,10,Ticks_ISO_T2_5,154,5,42,127,1348829528
69,8,10,Ticks_ISO_T2_5,155,1,48,54,1348859572
69,8,10,Ticks_ISO_T2_5,156,1,48,40,1349328596
69,8,10,Ticks_ISO_T2_5,157,5,42,127,1349330260
69,8,10,Ticks_ISO_T2_5,158,5,42,127,1349829960
69,8,10,Ticks_ISO_T2_5,159,1,48,46,1349835100
69,8,10,Ticks_ISO_T2_5,160,1,48,44,1350293864
69,8,10,Ticks_ISO_T2_5,161,5,42,127,1350329800
69,8,10,Ticks_ISO_T2_5,162,1,48,43,1350823252
69,8,10,Ticks_ISO_T2_5,163,5,42,127,1350829272
69,8,10,Ticks_ISO_T2_5,164,1,48,44,1351302156
69,8,10,Ticks_ISO_T2_5,165,5,42,127,1351330236
69,8,10,Ticks_ISO_T2_5,166,1,48,44,1351763104
69,8,10,Ticks_ISO_T2_5,167,5,42,127,1351829932
69,8,10,Ticks_ISO_T2_5,168,1,48,48,1352272816
69,8,10,Ticks_ISO_T2_5,169,5,42,127,1352329552
69,8,10,Ticks_ISO_T2_5,170,1,48,51,1352793460
69,8,10,Ticks_ISO_T2_5,171,5,42,127,1352830296
69,8,10,Ticks_ISO_T2_5,172,1,48,53,1353238376
69,8,10,Ticks_ISO_T2_5,173,5,42,127,1353329988
69,8,10,Ticks_ISO_T2_5,174,1,48,50,1353729248
69,8,10,Ticks_ISO_T2_5,175,5,42,127,1353829820
69,8,10,Ticks_ISO_T2_5,176,1,48,42,1354253552
69,8,10,Ticks_ISO_T2_5,177,5,42,127,1354329452
69,8,10,Ticks_ISO_T2_5,178,1,48,41,1354813632
69,8,10,Ticks_ISO_T2_5,179,5,42,127,1354830192
69,8,10,Ticks_ISO_T2_5,180,5,42,127,1355329896
69,8,10,Ticks_ISO_T2_5,181,1,48,43,1355364432
69,8,10,Ticks_ISO_T2_5,182,1,48,44,1355826536
69,8,10,Ticks_ISO_T2_5,183,5,42,127,1355829856
69,8,10,Ticks_ISO_T2_5,184,5,42,127,1356330380
69,8,10,Ticks_ISO_T2_5,185,1,48,49,1356331348
69,8,10,Ticks_ISO_T2_5,186,1,48,49,1356802732
69,8,10,Ticks_ISO_T2_5,187,5,42,127,1356829996
69,8,10,Ticks_ISO_T2_5,188,1,48,50,1357305872
69,8,10,Ticks_ISO_T2_5,189,5,42,127,1357329836
69,8,10,Ticks_ISO_T2_5,190,1,48,51,1357777812
69,8,10,Ticks_ISO_T2_5,191,5,42,127,1357829460
69,8,10,Ticks_ISO_T2_5,192,1,48,48,1358251852
69,8,10,Ticks_ISO_T2_5,193,5,42,127,1358330124
69,8,10,Ticks_ISO_T2_5,194,1,48,50,1358776756
69,8,10,Ticks_ISO_T2_5,195,5,42,127,1358829896
69,8,10,Ticks_ISO_T2_5,196,1,48,50,1359287448
69,8,10,Ticks_ISO_T2_5,197,5,42,127,1359329516
69,8,10,Ticks_ISO_T2_5,198,1,48,50,1359751908
69,8,10,Ticks_ISO_T2_5,199,5,42,127,1359830332
69,8,10,Ticks_ISO_T2_5,200,1,48,52,1360276136
69,8,10,Ticks_ISO_T2_5,201,5,42,127,1360330024
69,8,10,Ticks_ISO_T2_5,202,1,48,49,1360746360
69,8,10,Ticks_ISO_T2_5,203,5,42,127,1360829720
69,8,10,Ticks_ISO_T2_5,204,1,48,44,1361242988
69,8,10,Ticks_ISO_T2_5,205,5,42,127,1361329564
69,8,10,Ticks_ISO_T2_5,206,1,48,48,1361744776
69,8,10,Ticks_ISO_T2_5,207,5,42,127,1361830308
69,8,10,Ticks_ISO_T2_5,208,1,48,47,1362213704
69,8,10,Ticks_ISO_T2_5,209,5,42,127,1362329912
69,8,10,Ticks_ISO_T2_5,210,1,48,45,1362755012
69,8,10,Ticks_ISO_T2_5,211,5,42,127,1362829996
69,8,10,Ticks_ISO_T2_5,212,1,48,45,1363237484
69,8,10,Ticks_ISO_T2_5,213,5,42,127,1363330500
69,8,10,Ticks_ISO_T2_5,214,1,48,41,1363773780
69,8,10,Ticks_ISO_T2_5,215,5,42,127,1363830208
69,8,10,Ticks_ISO_T2_5,216,1,48,34,1364272700
69,8,10,Ticks_ISO_T2_5,217,5,42,127,1364329976
69,8,10,Ticks_ISO_T2_5,218,1,48,45,1364827176
69,8,10,Ticks_ISO_T2_5,219,5,42,127,1364829748
69,8,10,Ticks_ISO_T2_5,220,5,42,127,1365330196
69,8,10,Ticks_ISO_T2_5,221,1,48,47,1365360768
69,8,10,Ticks_ISO_T2_5,222,1,48,40,1365779640
69,8,10,Ticks_ISO_T2_5,223,5,42,127,1365829884
69,8,10,Ticks_ISO_T2_5,224,1,48,46,1366291524
69,8,10,Ticks_ISO_T2_5,225,5,42,127,1366329876
69,8,10,Ticks_ISO_T2_5,226,1,48,43,1366824204
69,8,10,Ticks_ISO_T2_5,227,5,42,127,1366829772
69,8,10,Ticks_ISO_T2_5,228,1,48,45,1367283432
69,8,10,Ticks_ISO_T2_5,229,5,42,127,1367330292
69,8,10,Ticks_ISO_T2_5,230,1,48,51,1367767944
69,8,10,Ticks_ISO_T2_5,231,5,42,127,1367829836
69,8,10,Ticks_ISO_T2_5,232,1,48,45,1368326360
69,8,10,Ticks_ISO_T2_5,233,5,42,127,1368329976
69,8,10,Ticks_ISO_T2_5,234,1,48,50,1368747440
69,8,10,Ticks_ISO_T2_5,235,5,42,127,1368830272
69,8,10,Ticks_ISO_T2_5,236,1,48,32,1369312204
69,8,10,Ticks_ISO_T2_5,237,5,42,127,1369329964
69,8,10,Ticks_ISO_T2_5,238,5,42,127,1369829816
69,8,10,Ticks_ISO_T2_5,239,1,48,32,1369832408
69,8,10,Ticks_ISO_T2_5,240,1,48,40,1370255044
69,8,10,Ticks_ISO_T2_5,241,5,42,127,1370329652
69,8,10,Ticks_ISO_T2_5,242,1,48,39,1370806048
69,8,10,Ticks_ISO_T2_5,243,5,42,127,1370830172
69,8,10,Ticks_ISO_T2_5,244,1,48,40,1371290336
69,8,10,Ticks_ISO_T2_5,245,5,42,127,1371329868
69,8,10,Ticks_ISO_T2_5,246,5,42,127,1371829792
69,8,10,Ticks_ISO_T2_5,247,1,48,35,1371886692
69,8,10,Ticks_ISO_T2_5,248,1,48,41,1372311796
69,8,10,Ticks_ISO_T2_5,249,5,42,127,1372330376
69,8,10,Ticks_ISO_T2_5,250,1,48,39,1372777080
69,8,10,Ticks_ISO_T2_5,251,5,42,127,1372830144
69,8,10,Ticks_ISO_T2_5,252,5,42,127,1373329772
69,8,10,Ticks_ISO_T2_5,253,1,48,38,1373367220
69,8,10,Ticks_ISO_T2_5,254,5,42,127,1373829692
69,8,10,Ticks_ISO_T2_5,255,1,48,44,1373832216
69,8,10,Ticks_ISO_T2_5,0,9999,9999,9999,1309327476
69,8,10,Ticks_ISO_T2_5,1,9999,9999,9999,1309827120
69,8,10,Ticks_ISO_T2_5,2,9999,9999,9999,1310327884
69,8,10,Ticks_ISO_T2_5,3,9999,9999,9999,1310827600
69,8,10,Ticks_ISO_T2_5,4,9999,9999,9999,1311327316
69,8,10,Ticks_ISO_T2_5,5,9999,9999,9999,1311828056
69,8,10,Ticks_ISO_T2_5,6,9999,9999,9999,1312327752
69,8,10,Ticks_ISO_T2_5,7,9999,9999,9999,1312827496
69,8,10,Ticks_ISO_T2_5,8,9999,9999,9999,1313327188
69,8,10,Ticks_ISO_T2_5,9,9999,9999,9999,1313827932
69,8,10,Ticks_ISO_T2_5,10,9999,9999,9999,1314327604
69,8,10,Ticks_ISO_T2_5,11,9999,9999,9999,1314827368
69,8,10,Ticks_ISO_T2_5,12,9999,9999,9999,1315328112
69,8,10,Ticks_ISO_T2_5,13,9999,9999,9999,1315827808
69,8,10,Ticks_ISO_T2_5,14,9999,9999,9999,1316327500
69,8,10,Ticks_ISO_T2_5,15,9999,9999,9999,1316827196
69,8,10,Ticks_ISO_T2_5,16,9999,9999,9999,1317327932
69,8,10,Ticks_ISO_T2_5,17,9999,9999,9999,1317827632
69,8,10,Ticks_ISO_T2_5,18,9999,9999,9999,1318327400
69,8,10,Ticks_ISO_T2_5,19,9999,9999,9999,1318827096
69,8,10,Ticks_ISO_T2_5,20,9999,9999,9999,1319327836
69,8,10,Ticks_ISO_T2_5,21,9999,9999,9999,1319827532
69,8,10,Ticks_ISO_T2_5,22,9999,9999,9999,1320327220
69,8,10,Ticks_ISO_T2_5,23,9999,9999,9999,1320827968
69,8,10,Ticks_ISO_T2_5,24,9999,9999,9999,1321327736
69,8,10,Ticks_ISO_T2_5,25,9999,9999,9999,1321827432
69,8,10,Ticks_ISO_T2_5,26,9999,9999,9999,1322327124
69,8,10,Ticks_ISO_T2_5,27,9999,9999,9999,1322827868
69,8,10,Ticks_ISO_T2_5,28,9999,9999,9999,1323327564
69,8,10,Ticks_ISO_T2_5,29,9999,9999,9999,1323827304
69,8,10,Ticks_ISO_T2_5,30,9999,9999,9999,1324328044
69,8,10,Ticks_ISO_T2_5,31,9999,9999,9999,1324827744
69,8,10,Ticks_ISO_T2_5,32,9999,9999,9999,1325327440
69,8,10,Ticks_ISO_T2_5,33,9999,9999,9999,1325827132
69,8,10,Ticks_ISO_T2_5,34,9999,9999,9999,1326327876
69,8,10,Ticks_ISO_T2_5,35,9999,9999,9999,1326827568
69,8,10,Ticks_ISO_T2_5,36,9999,9999,9999,1327327340
69,8,10,Ticks_ISO_T2_5,37,9999,9999,9999,1327828072
69,8,10,Ticks_ISO_T2_5,38,9999,9999,9999,1328327772
69,8,10,Ticks_ISO_T2_5,39,9999,9999,9999,1328827464
69,8,10,Ticks_ISO_T2_5,40,9999,9999,9999,1329327156
69,8,10,Ticks_ISO_T2_5,41,9999,9999,9999,1329827900
69,8,10,Ticks_ISO_T2_5,42,9999,9999,9999,1330327668
69,8,10,Ticks_ISO_T2_5,43,9999,9999,9999,1330827368
69,8,10,Ticks_ISO_T2_5,44,9999,9999,9999,1331328104
69,8,10,Ticks_ISO_T2_5,45,9999,9999,9999,1331827796
69,8,10,Ticks_ISO_T2_5,46,9999,9999,9999,1332327492
69,8,10,Ticks_ISO_T2_5,47,9999,9999,9999,1332827188
69,8,10,Ticks_ISO_T2_5,48,9999,9999,9999,1333327928
69,8,10,Ticks_ISO_T2_5,49,9999,9999,9999,1333827696
69,8,10,Ticks_ISO_T2_5,50,9999,9999,9999,1334327368
69,8,10,Ticks_ISO_T2_5,51,9999,9999,9999,1334827060
69,8,10,Ticks_ISO_T2_5,52,9999,9999,9999,1335327804
69,8,10,Ticks_ISO_T2_5,53,9999,9999,9999,1335827572
69,8,10,Ticks_ISO_T2_5,54,9999,9999,9999,1336327268
69,8,10,Ticks_ISO_T2_5,55,9999,9999,9999,1336828016
69,8,10,Ticks_ISO_T2_5,56,9999,9999,9999,1337327704
69,8,10,Ticks_ISO_T2_5,57,9999,9999,9999,1337827400
69,8,10,Ticks_ISO_T2_5,58,9999,9999,9999,1338327096
69,8,10,Ticks_ISO_T2_5,59,9999,9999,9999,1338827836
69,8,10,Ticks_ISO_T2_5,60,9999,9999,9999,1339327604
69,8,10,Ticks_ISO_T2_5,61,9999,9999,9999,1339827300
69,8,10,Ticks_ISO_T2_5,62,9999,9999,9999,1340328040
69,8,10,Ticks_ISO_T2_5,63,9999,9999,9999,1340827736
69,8,10,Ticks_ISO_T2_5,64,9999,9999,9999,1341327428
69,8,10,Ticks_ISO_T2_5,65,9999,9999,9999,1341827128
69,8,10,Ticks_ISO_T2_5,66,9999,9999,9999,1342327868
69,8,10,Ticks_ISO_T2_5,67,9999,9999,9999,1342827636
69,8,10,Ticks_ISO_T2_5,68,9999,9999,9999,1343327332
69,8,10,Ticks_ISO_T2_5,69,9999,9999,9999,1343828076
69,8,10,Ticks_ISO_T2_5,70,9999,9999,9999,1344327768
69,8,10,Ticks_ISO_T2_5,71,9999,9999,9999,1344827464
69,8,10,Ticks_ISO_T2_5,72,9999,9999,9999,1345327204
69,8,10,Ticks_ISO_T2_5,73,9999,9999,9999,1345827948
69,8,10,Ticks_ISO_T2_5,74,9999,9999,9999,1346327648
69,8,10,Ticks_ISO_T2_5,75,9999,9999,9999,1346827340
69,8,10,Ticks_ISO_T2_5,76,9999,9999,9999,1347328076
69,8,10,Ticks_ISO_T2_5,77,9999,9999,9999,1347827776
69,8,10,Ticks_ISO_T2_5,78,9999,9999,9999,1348327540
69,8,10,Ticks_ISO_T2_5,79,9999,9999,9999,1348827240
69,8,10,Ticks_ISO_T2_5,80,9999,9999,9999,1349327996
69,8,10,Ticks_ISO_T2_5,81,9999,9999,9999,1349827676
69,8,10,Ticks_ISO_T2_5,82,9999,9999,9999,1350327364
69,8,10,Ticks_ISO_T2_5,83,9999,9999,9999,1350827060
69,8,10,Ticks_ISO_T2_5,84,9999,9999,9999,1351327800
69,8,10,Ticks_ISO_T2_5,85,9999,9999,9999,1351827572
69,8,10,Ticks_ISO_T2_5,86,9999,9999,9999,1352327264
69,8,10,Ticks_ISO_T2_5,87,9999,9999,9999,1352828008
69,8,10,Ticks_ISO_T2_5,88,9999,9999,9999,1353327704
69,8,10,Ticks_ISO_T2_5,89,9999,9999,9999,1353827400
69,8,10,Ticks_ISO_T2_5,90,9999,9999,9999,1354327092
69,8,10,Ticks_ISO_T2_5,91,9999,9999,9999,1354827832
69,8,10,Ticks_ISO_T2_5,92,9999,9999,9999,1355327608
69,8,10,Ticks_ISO_T2_5,93,9999,9999,9999,1355827272
69,8,10,Ticks_ISO_T2_5,94,9999,9999,9999,1356328020
69,8,10,Ticks_ISO_T2_5,95,9999,9999,9999,1356827708
69,8,10,Ticks_ISO_T2_5,96,9999,9999,9999,1357327476
69,8,10,Ticks_ISO_T2_5,97,9999,9999,9999,1357827172
69,8,10,Ticks_ISO_T2_5,98,9999,9999,9999,1358327912
69,8,10,Ticks_ISO_T2_5,99,9999,9999,9999,1358827608
69,8,10,Ticks_ISO_T2_5,100,9999,9999,9999,1359327304
69,8,10,Ticks_ISO_T2_5,101,9999,9999,9999,1359828044
69,8,10,Ticks_ISO_T2_5,102,9999,9999,9999,1360327740
69,8,10,Ticks_ISO_T2_5,103,9999,9999,9999,1360827508
69,8,10,Ticks_ISO_T2_5,104,9999,9999,9999,1361327204
69,8,10,Ticks_ISO_T2_5,105,9999,9999,9999,1361827944
69,8,10,Ticks_ISO_T2_5,106,9999,9999,9999,1362327624
69,8,10,Ticks_ISO_T2_5,107,9999,9999,9999,1362827336
69,8,10,Ticks_ISO_T2_5,108,9999,9999,9999,1363328080
69,8,10,Ticks_ISO_T2_5,109,9999,9999,9999,1363827776
69,8,10,Ticks_ISO_T2_5,110,9999,9999,9999,1364327540
69,8,10,Ticks_ISO_T2_5,111,9999,9999,9999,1364827240
69,8,10,Ticks_ISO_T2_5,112,9999,9999,9999,1365327984
69,8,10,Ticks_ISO_T2_5,113,9999,9999,9999,1365827672
69,8,10,Ticks_ISO_T2_5,114,9999,9999,9999,1366327344
69,8,10,Ticks_ISO_T2_5,115,9999,9999,9999,1366827112
69,8,10,Ticks_ISO_T2_5,116,9999,9999,9999,1367327856
69,8,10,Ticks_ISO_T2_5,117,9999,9999,9999,1367827552
69,8,10,Ticks_ISO_T2_5,118,9999,9999,9999,1368327244
69,8,10,Ticks_ISO_T2_5,119,9999,9999,9999,1368827988
69,8,10,Ticks_ISO_T2_5,120,9999,9999,9999,1369327680
69,8,10,Ticks_ISO_T2_5,121,9999,9999,9999,1369827380
69,8,10,Ticks_ISO_T2_5,122,9999,9999,9999,1370327144
69,8,10,Ticks_ISO_T2_5,123,9999,9999,9999,1370827884
69,8,10,Ticks_ISO_T2_5,124,9999,9999,9999,1371327580
69,8,10,Ticks_ISO_T2_5,125,9999,9999,9999,1371827280
69,8,10,Ticks_ISO_T2_5,126,9999,9999,9999,1372328016
69,8,10,Ticks_ISO_T2_5,127,9999,9999,9999,1372827712
69,8,10,Ticks_ISO_T2_5,128,9999,9999,9999,1373327412
69,8,10,Ticks_ISO_T2_5,129,9999,9999,9999,1373827180
69,9,22,Ticks_Phase_8,0,5,42,127,1384332516
69,9,22,Ticks_Phase_8,1,5,42,127,1385133372
69,9,22,Ticks_Phase_8,2,5,42,127,1385943440
69,9,22,Ticks_Phase_8,3,5,42,127,1386743320
69,9,22,Ticks_Phase_8,4,1,48,20,1387530668
69,9,22,Ticks_Phase_8,5,5,42,127,1387542824
69,9,22,Ticks_Phase_8,6,1,48,24,1388243952
69,9,22,Ticks_Phase_8,7,5,42,127,1388342668
69,9,22,Ticks_Phase_8,8,1,48,24,1389036396
69,9,22,Ticks_Phase_8,9,5,42,127,1389143452
69,9,22,Ticks_Phase_8,10,1,48,27,1389871760
69,9,22,Ticks_Phase_8,11,5,42,127,1389943252
69,9,22,Ticks_Phase_8,12,1,48,28,1390710500
69,9,22,Ticks_Phase_8,13,5,42,127,1390743036
69,9,22,Ticks_Phase_8,14,1,48,33,1391487452
69,9,22,Ticks_Phase_8,15,5,42,127,1391542600
69,9,22,Ticks_Phase_8,16,1,48,31,1392258256
69,9,22,Ticks_Phase_8,17,5,42,127,1392343508
69,9,22,Ticks_Phase_8,18,1,48,31,1393045540
69,9,22,Ticks_Phase_8,19,5,42,127,1393143292
69,9,22,Ticks_Phase_8,20,1,48,29,1393870332
69,9,22,Ticks_Phase_8,21,5,42,127,1393943080
69,9,22,Ticks_Phase_8,22,1,48,25,1394697904
69,9,22,Ticks_Phase_8,23,5,42,127,1394742720
69,9,22,Ticks_Phase_8,24,1,48,37,1395472464
69,9,22,Ticks_Phase_8,25,5,42,127,1395543280
69,9,22,Ticks_Phase_8,26,1,48,36,1396276436
69,9,22,Ticks_Phase_8,27,5,42,127,1396343140
69,9,22,Ticks_Phase_8,28,1,48,35,1397072956
69,9,22,Ticks_Phase_8,29,5,42,127,1397142852
69,9,22,Ticks_Phase_8,30,1,48,32,1397837684
69,9,22,Ticks_Phase_8,31,5,42,127,1397942696
69,9,22,Ticks_Phase_8,32,1,48,38,1398694760
69,9,22,Ticks_Phase_8,33,5,42,127,1398743320
69,9,22,Ticks_Phase_8,34,1,48,43,1399522636
69,9,22,Ticks_Phase_8,35,5,42,127,1399543256
69,9,22,Ticks_Phase_8,36,1,48,45,1400296056
69,9,22,Ticks_Phase_8,37,5,42,127,1400343192
69,9,22,Ticks_Phase_8,38,1,48,40,1401093376
69,9,22,Ticks_Phase_8,39,5,42,127,1401142828
69,9,22,Ticks_Phase_8,40,1,48,44,1401919016
69,9,22,Ticks_Phase_8,41,5,42,127,1401943464
69,9,22,Ticks_Phase_8,42,1,48,42,1402671756
69,9,22,Ticks_Phase_8,43,5,42,127,1402743100
69,9,22,Ticks_Phase_8,44,1,48,35,1403521368
69,9,22,Ticks_Phase_8,45,5,42,127,1403543108
69,9,22,Ticks_Phase_8,46,1,48,37,1404342004
69,9,22,Ticks_Phase_8,47,5,42,127,1404343496
69,9,22,Ticks_Phase_8,48,1,48,37,1405077576
69,9,22,Ticks_Phase_8,49,5,42,127,1405143356
69,9,22,Ticks_Phase_8,50,1,48,38,1405868892
69,9,22,Ticks_Phase_8,51,5,42,127,1405943288
69,9,22,Ticks_Phase_8,52,1,48,37,1406663516
69,9,22,Ticks_Phase_8,53,5,42,127,1406743000
69,9,22,Ticks_Phase_8,54,1,48,43,1407405712
69,9,22,Ticks_Phase_8,55,5,42,127,1407542924
69,9,22,Ticks_Phase_8,56,1,48,37,1408215364
69,9,22,Ticks_Phase_8,57,5,42,127,1408322868
69,9,22,Ticks_Phase_8,58,1,48,39,1409060152
69,9,22,Ticks_Phase_8,59,5,42,127,1409122964
69,9,22,Ticks_Phase_8,60,1,48,42,1409868276
69,9,22,Ticks_Phase_8,61,5,42,127,1409922380
69,9,22,Ticks_Phase_8,62,1,48,43,1410665744
69,9,22,Ticks_Phase_8,63,5,42,127,1410723136
69,9,22,Ticks_Phase_8,64,1,48,39,1411408168
69,9,22,Ticks_Phase_8,65,5,42,127,1411522836
69,9,22,Ticks_Phase_8,66,1,48,44,1412249812
69,9,22,Ticks_Phase_8,67,5,42,127,1412322784
69,9,22,Ticks_Phase_8,68,5,42,127,1413122356
69,9,22,Ticks_Phase_8,69,1,48,45,1413123692
69,9,22,Ticks_Phase_8,70,1,48,44,1413882268
69,9,22,Ticks_Phase_8,71,5,42,127,1413923108
69,9,22,Ticks_Phase_8,72,1,48,46,1414660488
69,9,22,Ticks_Phase_8,73,5,42,127,1414722916
69,9,22,Ticks_Phase_8,74,1,48,43,1415486952
69,9,22,Ticks_Phase_8,75,5,42,127,1415522628
69,9,22,Ticks_Phase_8,76,1,48,34,1416291308
69,9,22,Ticks_Phase_8,77,5,42,127,1416322708
69,9,22,Ticks_Phase_8,78,1,48,44,1417042048
69,9,22,Ticks_Phase_8,79,5,42,127,1417123172
69,9,22,Ticks_Phase_8,80,1,48,43,1417841084
69,9,22,Ticks_Phase_8,81,5,42,127,1417922960
69,9,22,Ticks_Phase_8,82,1,48,30,1418712536
69,9,22,Ticks_Phase_8,83,5,42,127,1418722748
69,9,22,Ticks_Phase_8,84,5,42,127,1419522540
69,9,22,Ticks_Phase_8,85,1,48,44,1419563776
69,9,22,Ticks_Phase_8,86,1,48,43,1420313228
69,9,22,Ticks_Phase_8,87,5,42,127,1420323216
69,9,22,Ticks_Phase_8,88,5,42,127,1421122884
69,9,22,Ticks_Phase_8,89,1,48,45,1421134020
69,9,22,Ticks_Phase_8,90,1,48,46,1421921160
69,9,22,Ticks_Phase_8,91,5,42,127,1421922740
69,9,22,Ticks_Phase_8,92,1,48,46,1422692844
69,9,22,Ticks_Phase_8,93,5,42,127,1422742748
69,9,22,Ticks_Phase_8,94,1,48,41,1423452716
69,9,22,Ticks_Phase_8,95,5,42,127,1423542684
69,9,22,Ticks_Phase_8,96,1,48,42,1424224496
69,9,22,Ticks_Phase_8,97,5,42,127,1424343652
69,9,22,Ticks_Phase_8,98,1,48,42,1425109124
69,9,22,Ticks_Phase_8,99,5,42,127,1425143228
69,9,22,Ticks_Phase_8,100,1,48,44,1425904696
69,9,22,Ticks_Phase_8,101,5,42,127,1425942988
69,9,22,Ticks_Phase_8,102,1,48,38,1426720124
69,9,22,Ticks_Phase_8,103,5,42,127,1426742576
69,9,22,Ticks_Phase_8,104,1,48,44,1427506956
69,9,22,Ticks_Phase_8,105,5,42,127,1427543632
69,9,22,Ticks_Phase_8,106,1,48,46,1428303404
69,9,22,Ticks_Phase_8,107,5,42,127,1428343344
69,9,22,Ticks_Phase_8,108,1,48,44,1429095996
69,9,22,Ticks_Phase_8,109,5,42,127,1429142760
69,9,22,Ticks_Phase_8,110,5,42,127,1429942700
69,9,22,Ticks_Phase_8,111,1,48,39,1429958548
69,9,22,Ticks_Phase_8,112,1,48,48,1430703588
69,9,22,Ticks_Phase_8,113,5,42,127,1430743676
69,9,22,Ticks_Phase_8,114,1,48,47,1431504196
69,9,22,Ticks_Phase_8,115,5,42,127,1431543092
69,9,22,Ticks_Phase_8,116,1,48,48,1432285412
69,9,22,Ticks_Phase_8,117,5,42,127,1432342804
69,9,22,Ticks_Phase_8,118,1,48,48,1433107960
69,9,22,Ticks_Phase_8,119,5,42,127,1433142616
69,9,22,Ticks_Phase_8,120,1,48,49,1433919676
69,9,22,Ticks_Phase_8,121,5,42,127,1433943524
69,9,22,Ticks_Phase_8,122,1,48,42,1434728528
69,9,22,Ticks_Phase_8,123,5,42,127,1434743308
69,9,22,Ticks_Phase_8,124,1,48,42,1435470568
69,9,22,Ticks_Phase_8,125,5,42,127,1435582776
69,9,22,Ticks_Phase_8,126,1,48,45,1436350580
69,9,22,Ticks_Phase_8,127,5,42,127,1436382504
69,9,22,Ticks_Phase_8,128,5,42,127,1437183488
69,9,22,Ticks_Phase_8,129,1,48,47,1437186760
69,9,22,Ticks_Phase_8,130,5,42,127,1437983276
69,9,22,Ticks_Phase_8,131,1,48,48,1437984540
69,9,22,Ticks_Phase_8,132,5,42,127,1438782788
69,9,22,Ticks_Phase_8,133,1,48,48,1438829188
69,9,22,Ticks_Phase_8,134,5,42,127,1439582500
69,9,22,Ticks_Phase_8,135,1,48,34,1439596248
69,9,22,Ticks_Phase_8,136,1,48,42,1440344360
69,9,22,Ticks_Phase_8,137,5,42,127,1440383328
69,9,22,Ticks_Phase_8,138,1,48,50,1441154252
69,9,22,Ticks_Phase_8,139,5,42,127,1441183260
69,9,22,Ticks_Phase_8,140,1,48,50,1441927076
69,9,22,Ticks_Phase_8,141,5,42,127,1441982972
69,9,22,Ticks_Phase_8,142,1,48,46,1442724244
69,9,22,Ticks_Phase_8,143,5,42,127,1442782536
69,9,22,Ticks_Phase_8,144,1,48,48,1443567988
69,9,22,Ticks_Phase_8,145,5,42,127,1443583292
69,9,22,Ticks_Phase_8,146,1,48,43,1444357364
69,9,22,Ticks_Phase_8,147,5,42,127,1444383304
69,9,22,Ticks_Phase_8,148,1,48,40,1445081148
69,9,22,Ticks_Phase_8,149,5,42,127,1445183096
69,9,22,Ticks_Phase_8,150,1,48,40,1445865576
69,9,22,Ticks_Phase_8,151,5,42,127,1445982588
69,9,22,Ticks_Phase_8,152,1,48,37,1446722604
69,9,22,Ticks_Phase_8,153,5,42,127,1446783432
69,9,22,Ticks_Phase_8,154,1,48,44,1447508004
69,9,22,Ticks_Phase_8,155,5,42,127,1447583368
69,9,22,Ticks_Phase_8,156,1,48,44,1448307040
69,9,22,Ticks_Phase_8,157,5,42,127,1448383156
69,9,22,Ticks_Phase_8,158,1,48,43,1449107508
69,9,22,Ticks_Phase_8,159,5,42,127,1449142508
69,9,22,Ticks_Phase_8,160,1,48,42,1449887224
69,9,22,Ticks_Phase_8,161,5,42,127,1449943420
69,9,22,Ticks_Phase_8,162,1,48,44,1450716136
69,9,22,Ticks_Phase_8,163,5,42,127,1450743204
69,9,22,Ticks_Phase_8,164,1,48,48,1451491072
69,9,22,Ticks_Phase_8,165,5,42,127,1451542992
69,9,22,Ticks_Phase_8,166,1,48,43,1452260372
69,9,22,Ticks_Phase_8,167,5,42,127,1452342732
69,9,22,Ticks_Phase_8,168,1,48,34,1453059704
69,9,22,Ticks_Phase_8,169,5,42,127,1453143340
69,9,22,Ticks_Phase_8,170,5,42,127,1453943208
69,9,22,Ticks_Phase_8,171,1,48,40,1453949024
69,9,22,Ticks_Phase_8,172,5,42,127,1454742992
69,9,22,Ticks_Phase_8,173,1,48,40,1454750152
69,9,22,Ticks_Phase_8,174,1,48,35,1455494444
69,9,22,Ticks_Phase_8,175,5,42,127,1455542920
69,9,22,Ticks_Phase_8,176,1,48,31,1456328668
69,9,22,Ticks_Phase_8,177,5,42,127,1456343456
69,9,22,Ticks_Phase_8,178,5,42,127,1457143248
69,9,22,Ticks_Phase_8,179,1,48,45,1457175424
69,9,22,Ticks_Phase_8,180,1,48,36,1457904208
69,9,22,Ticks_Phase_8,181,5,42,127,1457942880
69,9,22,Ticks_Phase_8,182,1,48,40,1458612340
69,9,22,Ticks_Phase_8,183,5,42,127,1458742752
69,9,22,Ticks_Phase_8,184,1,48,42,1459440884
69,9,22,Ticks_Phase_8,185,5,42,127,1459543436
69,9,22,Ticks_Phase_8,186,5,42,127,1460343096
69,9,22,Ticks_Phase_8,187,1,48,42,1460383508
69,9,22,Ticks_Phase_8,188,5,42,127,1461142880
69,9,22,Ticks_Phase_8,189,1,48,44,1461173564
69,9,22,Ticks_Phase_8,190,5,42,127,1461862916
69,9,22,Ticks_Phase_8,191,1,48,43,1461916356
69,9,22,Ticks_Phase_8,192,1,48,37,1462620288
69,9,22,Ticks_Phase_8,193,5,42,127,1462662692
69,9,22,Ticks_Phase_8,194,1,48,44,1463366516
69,9,22,Ticks_Phase_8,195,5,42,127,1463463288
69,9,22,Ticks_Phase_8,196,1,48,39,1464187124
69,9,22,Ticks_Phase_8,197,5,42,127,1464263088
69,9,22,Ticks_Phase_8,198,1,48,34,1465036332
69,9,22,Ticks_Phase_8,199,5,42,127,1465062876
69,9,22,Ticks_Phase_8,200,5,42,127,1465862672
69,9,22,Ticks_Phase_8,201,1,48,45,1465877848
69,9,22,Ticks_Phase_8,202,1,48,41,1466632840
69,9,22,Ticks_Phase_8,203,5,42,127,1466663348
69,9,22,Ticks_Phase_8,204,1,48,45,1467419744
69,9,22,Ticks_Phase_8,205,5,42,127,1467463012
69,9,22,Ticks_Phase_8,206,1,48,47,1468199456
69,9,22,Ticks_Phase_8,207,5,42,127,1468262868
69,9,22,Ticks_Phase_8,208,1,48,40,1469027052
69,9,22,Ticks_Phase_8,209,5,42,127,1469062732
69,9,22,Ticks_Phase_8,210,1,48,38,1469824668
69,9,22,Ticks_Phase_8,211,5,42,127,1469863340
69,9,22,Ticks_Phase_8,212,1,48,37,1470601172
69,9,22,Ticks_Phase_8,213,5,42,127,1470662980
69,9,22,Ticks_Phase_8,214,1,48,44,1471386876
69,9,22,Ticks_Phase_8,215,5,42,127,1471462768
69,9,22,Ticks_Phase_8,216,1,48,43,1472219236
69,9,22,Ticks_Phase_8,217,5,42,127,1472262628
69,9,22,Ticks_Phase_8,218,5,42,127,1473063320
69,9,22,Ticks_Phase_8,219,1,48,35,1473083692
69,9,22,Ticks_Phase_8,220,1,48,31,1473857928
69,9,22,Ticks_Phase_8,221,5,42,127,1473863196
69,9,22,Ticks_Phase_8,222,1,48,41,1474609904
69,9,22,Ticks_Phase_8,223,5,42,127,1474662760
69,9,22,Ticks_Phase_8,224,1,48,38,1475382768
69,9,22,Ticks_Phase_8,225,5,42,127,1475543484
69,9,22,Ticks_Phase_8,226,1,48,26,1476313308
69,9,22,Ticks_Phase_8,227,5,42,127,1476343140
69,9,22,Ticks_Phase_8,228,5,42,127,1477142932
69,9,22,Ticks_Phase_8,229,1,48,34,1477163576
69,9,22,Ticks_Phase_8,230,1,48,36,1477911084
69,9,22,Ticks_Phase_8,231,5,42,127,1477942588
69,9,22,Ticks_Phase_8,232,1,48,37,1478676564
69,9,22,Ticks_Phase_8,233,5,42,127,1478743416
69,9,22,Ticks_Phase_8,234,1,48,44,1479504680
69,9,22,Ticks_Phase_8,235,5,42,127,1479543056
69,9,22,Ticks_Phase_8,236,1,48,36,1480318692
69,9,22,Ticks_Phase_8,237,5,42,127,1480342840
69,9,22,Ticks_Phase_8,238,1,48,30,1481105676
69,9,22,Ticks_Phase_8,239,5,42,127,1481142776
69,9,22,Ticks_Phase_8,240,1,48,34,1481918416
69,9,22,Ticks_Phase_8,241,5,42,127,1481943312
69,9,22,Ticks_Phase_8,242,1,48,22,1482716484
69,9,22,Ticks_Phase_8,243,5,42,127,1482743244
69,9,22,Ticks_Phase_8,244,1,48,34,1483501220
69,9,22,Ticks_Phase_8,245,5,42,127,1483542960
69,9,22,Ticks_Phase_8,246,1,48,41,1484287520
69,9,22,Ticks_Phase_8,247,5,42,127,1484342544
69,9,22,Ticks_Phase_8,248,1,48,40,1485088128
69,9,22,Ticks_Phase_8,249,5,42,127,1485143304
69,9,22,Ticks_Phase_8,250,1,48,43,1485912512
69,9,22,Ticks_Phase_8,251,5,42,127,1485943312
69,9,22,Ticks_Phase_8,252,1,48,37,1486708616
69,9,22,Ticks_Phase_8,253,5,42,127,1486742800
69,9,22,Ticks_Phase_8,254,1,48,37,1487541840
69,9,22,Ticks_Phase_8,255,5,42,127,1487543484
69,9,22,Ticks_Phase_8,256,5,42,127,1488343428
69,9,22,Ticks_Phase_8,257,1,48,42,1488363552
69,9,22,Ticks_Phase_8,258,1,48,39,1489139352
69,9,22,Ticks_Phase_8,259,5,42,127,1489302800
69,9,22,Ticks_Phase_8,260,5,42,127,1490102612
69,9,22,Ticks_Phase_8,261,5,42,127,1490903392
69,9,22,Ticks_Phase_8,262,1,48,36,1490988140
69,9,22,Ticks_Phase_8,263,1,48,35,1491664496
69,9,22,Ticks_Phase_8,264,5,42,127,1491703096
69,9,22,Ticks_Phase_8,265,1,48,37,1492430280
69,9,22,Ticks_Phase_8,266,5,42,127,1492502808
69,9,22,Ticks_Phase_8,267,1,48,33,1493259948
69,9,22,Ticks_Phase_8,268,5,42,127,1493302620
69,9,22,Ticks_Phase_8,269,1,48,38,1494070704
69,9,22,Ticks_Phase_8,270,5,42,127,1494103380
69,9,22,Ticks_Phase_8,271,1,48,37,1494870936
69,9,22,Ticks_Phase_8,272,5,42,127,1494903092
69,9,22,Ticks_Phase_8,273,1,48,38,1495671396
69,9,22,Ticks_Phase_8,274,5,42,127,1495703024
69,9,22,Ticks_Phase_8,275,1,48,32,1496475148
69,9,22,Ticks_Phase_8,276,5,42,127,1496502512
69,9,22,Ticks_Phase_8,277,5,42,127,1497303276
69,9,22,Ticks_Phase_8,278,1,48,30,1497335524
69,9,22,Ticks_Phase_8,279,1,48,40,1497997512
69,9,22,Ticks_Phase_8,280,5,42,127,1498103264
69,9,22,Ticks_Phase_8,281,1,48,41,1498864920
69,9,22,Ticks_Phase_8,282,5,42,127,1498902992
69,9,22,Ticks_Phase_8,283,1,48,35,1499682160
69,9,22,Ticks_Phase_8,284,5,42,127,1499702652
69,9,22,Ticks_Phase_8,285,1,48,36,1500483460
69,9,22,Ticks_Phase_8,286,5,42,127,1500503336
69,9,22,Ticks_Phase_8,287,1,48,34,1501290584
69,9,22,Ticks_Phase_8,288,5,42,127,1501303124
69,9,22,Ticks_Phase_8,289,1,48,40,1502057724
69,9,22,Ticks_Phase_8,290,5,42,127,1502102984
69,9,22,Ticks_Phase_8,291,1,48,46,1502879748
69,9,22,Ticks_Phase_8,292,5,42,127,1502902624
69,9,22,Ticks_Phase_8,293,5,42,127,1503703388
69,9,22,Ticks_Phase_8,294,1,48,38,1503719536
69,9,22,Ticks_Phase_8,295,5,42,127,1504343368
69,9,22,Ticks_Phase_8,296,1,48,25,1504508616
69,9,22,Ticks_Phase_8,297,5,42,127,1505143080
69,9,22,Ticks_Phase_8,298,5,42,127,1505943184
69,9,22,Ticks_Phase_8,299,5,42,127,1506743068
69,9,22,Ticks_Phase_8,300,1,48,21,1506778012
69,9,22,Ticks_Phase_8,301,5,42,127,1507543456
69,9,22,Ticks_Phase_8,302,1,48,24,1508280928
69,9,22,Ticks_Phase_8,303,5,42,127,1508343256
69,9,22,Ticks_Phase_8,304,1,48,29,1509109460
69,9,22,Ticks_Phase_8,305,5,42,127,1509142820
69,9,22,Ticks_Phase_8,306,1,48,31,1509907604
69,9,22,Ticks_Phase_8,307,5,42,127,1509942928
69,9,22,Ticks_Phase_8,308,5,42,127,1510743396
69,9,22,Ticks_Phase_8,309,1,48,28,1510744364
69,9,22,Ticks_Phase_8,310,1,48,33,1511512896
69,9,22,Ticks_Phase_8,311,5,42,127,1511543104
69,9,22,Ticks_Phase_8,312,5,42,127,1512342896
69,9,22,Ticks_Phase_8,313,1,48,37,1512379332
69,9,22,Ticks_Phase_8,314,1,48,34,1513095764
69,9,22,Ticks_Phase_8,315,5,42,127,1513142896
69,9,22,Ticks_Phase_8,316,5,42,127,1513943516
69,9,22,Ticks_Phase_8,317,1,48,36,1513985652
69,9,22,Ticks_Phase_8,318,1,48,30,1514689264
69,9,22,Ticks_Phase_8,319,5,42,127,1514743292
69,9,22,Ticks_Phase_8,320,5,42,127,1515542864
69,9,22,Ticks_Phase_8,321,1,48,33,1515556016
69,9,22,Ticks_Phase_8,322,1,48,34,1516343048
69,9,22,Ticks_Phase_8,323,5,42,127,1516344308
69,9,22,Ticks_Phase_8,324,1,48,23,1517138304
69,9,22,Ticks_Phase_8,325,5,42,127,1517143576
69,9,22,Ticks_Phase_8,326,1,48,38,1517925660
69,9,22,Ticks_Phase_8,327,5,42,127,1517943212
69,9,22,Ticks_Phase_8,328,1,48,28,1518692652
69,9,22,Ticks_Phase_8,329,5,42,127,1518742852
69,9,22,Ticks_Phase_8,330,1,48,31,1519525084
69,9,22,Ticks_Phase_8,331,5,42,127,1519542636
69,9,22,Ticks_Phase_8,0,9999,9999,9999,1384330304
69,9,22,Ticks_Phase_8,1,9999,9999,9999,1385131084
69,9,22,Ticks_Phase_8,2,9999,9999,9999,1385941076
69,9,22,Ticks_Phase_8,3,9999,9999,9999,1386740812
69,9,22,Ticks_Phase_8,4,9999,9999,9999,1387540536
69,9,22,Ticks_Phase_8,5,9999,9999,9999,1388340308
69,9,22,Ticks_Phase_8,6,9999,9999,9999,1389141092
69,9,22,Ticks_Phase_8,7,9999,9999,9999,1389940820
69,9,22,Ticks_Phase_8,8,9999,9999,9999,1390740604
69,9,22,Ticks_Phase_8,9,9999,9999,9999,1391540316
69,9,22,Ticks_Phase_8,10,9999,9999,9999,1392341072
69,9,22,Ticks_Phase_8,11,9999,9999,9999,1393140860
69,9,22,Ticks_Phase_8,12,9999,9999,9999,1393940572
69,9,22,Ticks_Phase_8,13,9999,9999,9999,1394740284
69,9,22,Ticks_Phase_8,14,9999,9999,9999,1395541068
69,9,22,Ticks_Phase_8,15,9999,9999,9999,1396340852
69,9,22,Ticks_Phase_8,16,9999,9999,9999,1397140564
69,9,22,Ticks_Phase_8,17,9999,9999,9999,1397940336
69,9,22,Ticks_Phase_8,18,9999,9999,9999,1398741108
69,9,22,Ticks_Phase_8,19,9999,9999,9999,1399540820
69,9,22,Ticks_Phase_8,20,9999,9999,9999,1400340532
69,9,22,Ticks_Phase_8,21,9999,9999,9999,1401140320
69,9,22,Ticks_Phase_8,22,9999,9999,9999,1401941104
69,9,22,Ticks_Phase_8,23,9999,9999,9999,1402740812
69,9,22,Ticks_Phase_8,24,9999,9999,9999,1403540600
69,9,22,Ticks_Phase_8,25,9999,9999,9999,1404340316
69,9,22,Ticks_Phase_8,26,9999,9999,9999,1405141068
69,9,22,Ticks_Phase_8,27,9999,9999,9999,1405940856
69,9,22,Ticks_Phase_8,28,9999,9999,9999,1406740568
69,9,22,Ticks_Phase_8,29,9999,9999,9999,1407540340
69,9,22,Ticks_Phase_8,30,9999,9999,9999,1408320580
69,9,22,Ticks_Phase_8,31,9999,9999,9999,1409120380
69,9,22,Ticks_Phase_8,32,9999,9999,9999,1409920092
69,9,22,Ticks_Phase_8,33,9999,9999,9999,1410720852
69,9,22,Ticks_Phase_8,34,9999,9999,9999,1411520624
69,9,22,Ticks_Phase_8,35,9999,9999,9999,1412320352
69,9,22,Ticks_Phase_8,36,9999,9999,9999,1413120068
69,9,22,Ticks_Phase_8,37,9999,9999,9999,1413920896
69,9,22,Ticks_Phase_8,38,9999,9999,9999,1414720628
69,9,22,Ticks_Phase_8,39,9999,9999,9999,1415520340
69,9,22,Ticks_Phase_8,40,9999,9999,9999,1416320128
69,9,22,Ticks_Phase_8,41,9999,9999,9999,1417120884
69,9,22,Ticks_Phase_8,42,9999,9999,9999,1417920600
69,9,22,Ticks_Phase_8,43,9999,9999,9999,1418720312
69,9,22,Ticks_Phase_8,44,9999,9999,9999,1419520104
69,9,22,Ticks_Phase_8,45,9999,9999,9999,1420320856
69,9,22,Ticks_Phase_8,46,9999,9999,9999,1421120600
69,9,22,Ticks_Phase_8,47,9999,9999,9999,1421920312
69,9,22,Ticks_Phase_8,48,9999,9999,9999,1422740536
69,9,22,Ticks_Phase_8,49,9999,9999,9999,1423540324
69,9,22,Ticks_Phase_8,50,9999,9999,9999,1424341068
69,9,22,Ticks_Phase_8,51,9999,9999,9999,1425140792
69,9,22,Ticks_Phase_8,52,9999,9999,9999,1425940552
69,9,22,Ticks_Phase_8,53,9999,9999,9999,1426740340
69,9,22,Ticks_Phase_8,54,9999,9999,9999,1427541048
69,9,22,Ticks_Phase_8,55,9999,9999,9999,1428340836
69,9,22,Ticks_Phase_8,56,9999,9999,9999,1429140548
69,9,22,Ticks_Phase_8,57,9999,9999,9999,1429940340
69,9,22,Ticks_Phase_8,58,9999,9999,9999,1430741092
69,9,22,Ticks_Phase_8,59,9999,9999,9999,1431540804
69,9,22,Ticks_Phase_8,60,9999,9999,9999,1432340592
69,9,22,Ticks_Phase_8,61,9999,9999,9999,1433140304
69,9,22,Ticks_Phase_8,62,9999,9999,9999,1433941088
69,9,22,Ticks_Phase_8,63,9999,9999,9999,1434740800
69,9,22,Ticks_Phase_8,64,9999,9999,9999,1435580488
69,9,22,Ticks_Phase_8,65,9999,9999,9999,1436380216
69,9,22,Ticks_Phase_8,66,9999,9999,9999,1437181056
69,9,22,Ticks_Phase_8,67,9999,9999,9999,1437980764
69,9,22,Ticks_Phase_8,68,9999,9999,9999,1438780500
69,9,22,Ticks_Phase_8,69,9999,9999,9999,1439580216
69,9,22,Ticks_Phase_8,70,9999,9999,9999,1440381040
69,9,22,Ticks_Phase_8,71,9999,9999,9999,1441180752
69,9,22,Ticks_Phase_8,72,9999,9999,9999,1441980536
69,9,22,Ticks_Phase_8,73,9999,9999,9999,1442780248
69,9,22,Ticks_Phase_8,74,9999,9999,9999,1443581008
69,9,22,Ticks_Phase_8,75,9999,9999,9999,1444380792
69,9,22,Ticks_Phase_8,76,9999,9999,9999,1445180512
69,9,22,Ticks_Phase_8,77,9999,9999,9999,1445980224
69,9,22,Ticks_Phase_8,78,9999,9999,9999,1446781000
69,9,22,Ticks_Phase_8,79,9999,9999,9999,1447580784
69,9,22,Ticks_Phase_8,80,9999,9999,9999,1448380496
69,9,22,Ticks_Phase_8,81,9999,9999,9999,1449140296
69,9,22,Ticks_Phase_8,82,9999,9999,9999,1449941056
69,9,22,Ticks_Phase_8,83,9999,9999,9999,1450740844
69,9,22,Ticks_Phase_8,84,9999,9999,9999,1451540560
69,9,22,Ticks_Phase_8,85,9999,9999,9999,1452340296
69,9,22,Ticks_Phase_8,86,9999,9999,9999,1453141052
69,9,22,Ticks_Phase_8,87,9999,9999,9999,1453940848
69,9,22,Ticks_Phase_8,88,9999,9999,9999,1454740556
69,9,22,Ticks_Phase_8,89,9999,9999,9999,1455540336
69,9,22,Ticks_Phase_8,90,9999,9999,9999,1456341096
69,9,22,Ticks_Phase_8,91,9999,9999,9999,1457140812
69,9,22,Ticks_Phase_8,92,9999,9999,9999,1457940592
69,9,22,Ticks_Phase_8,93,9999,9999,9999,1458740316
69,9,22,Ticks_Phase_8,94,9999,9999,9999,1459541072
69,9,22,Ticks_Phase_8,95,9999,9999,9999,1460340808
69,9,22,Ticks_Phase_8,96,9999,9999,9999,1461140592
69,9,22,Ticks_Phase_8,97,9999,9999,9999,1461860480
69,9,22,Ticks_Phase_8,98,9999,9999,9999,1462660184
69,9,22,Ticks_Phase_8,99,9999,9999,9999,1463460928
69,9,22,Ticks_Phase_8,100,9999,9999,9999,1464260728
69,9,22,Ticks_Phase_8,101,9999,9999,9999,1465060440
69,9,22,Ticks_Phase_8,102,9999,9999,9999,1465860160
69,9,22,Ticks_Phase_8,103,9999,9999,9999,1466660988
69,9,22,Ticks_Phase_8,104,9999,9999,9999,1467460724
69,9,22,Ticks_Phase_8,105,9999,9999,9999,1468260436
69,9,22,Ticks_Phase_8,106,9999,9999,9999,1469060220
69,9,22,Ticks_Phase_8,107,9999,9999,9999,1469860980
69,9,22,Ticks_Phase_8,108,9999,9999,9999,1470660692
69,9,22,Ticks_Phase_8,109,9999,9999,9999,1471460408
69,9,22,Ticks_Phase_8,110,9999,9999,9999,1472260192
69,9,22,Ticks_Phase_8,111,9999,9999,9999,1473060960
69,9,22,Ticks_Phase_8,112,9999,9999,9999,1473860688
69,9,22,Ticks_Phase_8,113,9999,9999,9999,1474660472
69,9,22,Ticks_Phase_8,114,9999,9999,9999,1475541048
69,9,22,Ticks_Phase_8,115,9999,9999,9999,1476340852
69,9,22,Ticks_Phase_8,116,9999,9999,9999,1477140568
69,9,22,Ticks_Phase_8,117,9999,9999,9999,1477940300
69,9,22,Ticks_Phase_8,118,9999,9999,9999,1478741056
69,9,22,Ticks_Phase_8,119,9999,9999,9999,1479540844
69,9,22,Ticks_Phase_8,120,9999,9999,9999,1480340556
69,9,22,Ticks_Phase_8,121,9999,9999,9999,1481140340
69,9,22,Ticks_Phase_8,122,9999,9999,9999,1481941100
69,9,22,Ticks_Phase_8,123,9999,9999,9999,1482740812
69,9,22,Ticks_Phase_8,124,9999,9999,9999,1483540596
69,9,22,Ticks_Phase_8,125,9999,9999,9999,1484340332
69,9,22,Ticks_Phase_8,126,9999,9999,9999,1485141092
69,9,22,Ticks_Phase_8,127,9999,9999,9999,1485940804
69,9,22,Ticks_Phase_8,128,9999,9999,9999,1486740588
69,9,22,Ticks_Phase_8,129,9999,9999,9999,1487540308
69,9,22,Ticks_Phase_8,130,9999,9999,9999,1488341064
69,9,22,Ticks_Phase_8,131,9999,9999,9999,1489300588
69,9,22,Ticks_Phase_8,132,9999,9999,9999,1490100324
69,9,22,Ticks_Phase_8,133,9999,9999,9999,1490901104
69,9,22,Ticks_Phase_8,134,9999,9999,9999,1491700808
69,9,22,Ticks_Phase_8,135,9999,9999,9999,1492500596
69,9,22,Ticks_Phase_8,136,9999,9999,9999,1493300332
69,9,22,Ticks_Phase_8,137,9999,9999,9999,1494101092
69,9,22,Ticks_Phase_8,138,9999,9999,9999,1494900804
69,9,22,Ticks_Phase_8,139,9999,9999,9999,1495700588
69,9,22,Ticks_Phase_8,140,9999,9999,9999,1496500300
69,9,22,Ticks_Phase_8,141,9999,9999,9999,1497301064
69,9,22,Ticks_Phase_8,142,9999,9999,9999,1498100828
69,9,22,Ticks_Phase_8,143,9999,9999,9999,1498900556
69,9,22,Ticks_Phase_8,144,9999,9999,9999,1499700292
69,9,22,Ticks_Phase_8,145,9999,9999,9999,1500501052
69,9,22,Ticks_Phase_8,146,9999,9999,9999,1501300836
69,9,22,Ticks_Phase_8,147,9999,9999,9999,1502100548
69,9,22,Ticks_Phase_8,148,9999,9999,9999,1502900336
69,9,22,Ticks_Phase_8,149,9999,9999,9999,1503701100
69,9,22,Ticks_Phase_8,150,9999,9999,9999,1504341080
69,9,22,Ticks_Phase_8,151,9999,9999,9999,1505140792
69,9,22,Ticks_Phase_8,152,9999,9999,9999,1505940600
69,9,22,Ticks_Phase_8,153,9999,9999,9999,1506740336
69,9,22,Ticks_Phase_8,154,9999,9999,9999,1507541092
69,9,22,Ticks_Phase_8,155,9999,9999,9999,1508340820
69,9,22,Ticks_Phase_8,156,9999,9999,9999,1509140536
69,9,22,Ticks_Phase_8,157,9999,9999,9999,1509940348
69,9,22,Ticks_Phase_8,158,9999,9999,9999,1510741112
69,9,22,Ticks_Phase_8,159,9999,9999,9999,1511540816
69,9,22,Ticks_Phase_8,160,9999,9999,9999,1512340536
69,9,22,Ticks_Phase_8,161,9999,9999,9999,1513140312
69,9,22,Ticks_Phase_8,162,9999,9999,9999,1513941080
69,9,22,Ticks_Phase_8,163,9999,9999,9999,1514740856
69,9,22,Ticks_Phase_8,164,9999,9999,9999,1515540576
69,9,22,Ticks_Phase_8,165,9999,9999,9999,1516340312
69,9,22,Ticks_Phase_8,166,9999,9999,9999,1517141064
69,9,22,Ticks_Phase_8,167,9999,9999,9999,1517940852
69,9,22,Ticks_Phase_8,168,9999,9999,9999,1518740564
69,9,22,Ticks_Phase_8,169,9999,9999,9999,1519540352
69,10,23,Ticks_Phase_5,0,5,42,127,1530342728
69,10,23,Ticks_Phase_5,1,5,42,127,1530842584
69,10,23,Ticks_Phase_5,2,5,42,127,1531343268
69,10,23,Ticks_Phase_5,3,5,42,127,1531842828
69,10,23,Ticks_Phase_5,4,5,42,127,1532342760
69,10,23,Ticks_Phase_5,5,1,48,29,1532363480
69,10,23,Ticks_Phase_5,6,1,48,23,1532828856
69,10,23,Ticks_Phase_5,7,5,42,127,1532843488
69,10,23,Ticks_Phase_5,8,5,42,127,1533342960
69,10,23,Ticks_Phase_5,9,1,48,28,1533367720
69,10,23,Ticks_Phase_5,10,5,42,127,1533842724
69,10,23,Ticks_Phase_5,11,1,48,27,1533867484
69,10,23,Ticks_Phase_5,12,5,42,127,1534342564
69,10,23,Ticks_Phase_5,13,1,48,24,1534360128
69,10,23,Ticks_Phase_5,14,1,48,28,1534836220
69,10,23,Ticks_Phase_5,15,5,42,127,1534843216
69,10,23,Ticks_Phase_5,16,1,48,33,1535318608
69,10,23,Ticks_Phase_5,17,5,42,127,1535342832
69,10,23,Ticks_Phase_5,18,5,42,127,1535842600
69,10,23,Ticks_Phase_5,19,1,48,33,1535866384
69,10,23,Ticks_Phase_5,20,1,48,29,1536339844
69,10,23,Ticks_Phase_5,21,5,42,127,1536343476
69,10,23,Ticks_Phase_5,22,5,42,127,1536843320
69,10,23,Ticks_Phase_5,23,1,48,28,1536844288
69,10,23,Ticks_Phase_5,24,1,48,27,1537330328
69,10,23,Ticks_Phase_5,25,5,42,127,1537342780
69,10,23,Ticks_Phase_5,26,1,48,28,1537823092
69,10,23,Ticks_Phase_5,27,5,42,127,1537842540
69,10,23,Ticks_Phase_5,28,1,48,29,1538311996
69,10,23,Ticks_Phase_5,29,5,42,127,1538343252
69,10,23,Ticks_Phase_5,30,1,48,32,1538802100
69,10,23,Ticks_Phase_5,31,5,42,127,1538842864
69,10,23,Ticks_Phase_5,32,5,42,127,1539342708
69,10,23,Ticks_Phase_5,33,1,48,24,1539361332
69,10,23,Ticks_Phase_5,34,5,42,127,1539842396
69,10,23,Ticks_Phase_5,35,1,48,18,1539844912
69,10,23,Ticks_Phase_5,36,1,48,26,1540305424
69,10,23,Ticks_Phase_5,37,5,42,127,1540343272
69,10,23,Ticks_Phase_5,38,1,48,30,1540820012
69,10,23,Ticks_Phase_5,39,5,42,127,1540842736
69,10,23,Ticks_Phase_5,40,1,48,37,1541340508
69,10,23,Ticks_Phase_5,41,5,42,127,1541342476
69,10,23,Ticks_Phase_5,42,5,42,127,1541843292
69,10,23,Ticks_Phase_5,43,1,48,40,1541855620
69,10,23,Ticks_Phase_5,44,1,48,30,1542299500
69,10,23,Ticks_Phase_5,45,5,42,127,1542343120
69,10,23,Ticks_Phase_5,46,5,42,127,1542842740
69,10,23,Ticks_Phase_5,47,1,48,37,1542870280
69,10,23,Ticks_Phase_5,48,5,42,127,1543342576
69,10,23,Ticks_Phase_5,49,1,48,38,1543367488
69,10,23,Ticks_Phase_5,50,5,42,127,1543843388
69,10,23,Ticks_Phase_5,51,1,48,35,1543872652
69,10,23,Ticks_Phase_5,52,1,48,34,1544343000
69,10,23,Ticks_Phase_5,53,5,42,127,1544344264
69,10,23,Ticks_Phase_5,54,1,48,33,1544821092
69,10,23,Ticks_Phase_5,55,5,42,127,1544842536
69,10,23,Ticks_Phase_5,56,5,42,127,1545333392
69,10,23,Ticks_Phase_5,57,1,48,16,1545394924
69,10,23,Ticks_Phase_5,58,1,48,29,1545815368
69,10,23,Ticks_Phase_5,59,5,42,127,1545832700
69,10,23,Ticks_Phase_5,60,1,48,30,1546258564
69,10,23,Ticks_Phase_5,61,5,42,127,1546332464
69,10,23,Ticks_Phase_5,62,5,42,127,1546833280
69,10,23,Ticks_Phase_5,63,1,48,38,1546857740
69,10,23,Ticks_Phase_5,64,5,42,127,1547333264
69,10,23,Ticks_Phase_5,65,1,48,39,1547346196
69,10,23,Ticks_Phase_5,66,5,42,127,1547832580
69,10,23,Ticks_Phase_5,67,1,48,40,1547833548
69,10,23,Ticks_Phase_5,68,1,48,40,1548331316
69,10,23,Ticks_Phase_5,69,5,42,127,1548333356
69,10,23,Ticks_Phase_5,70,1,48,42,1548786480
69,10,23,Ticks_Phase_5,71,5,42,127,1548843356
69,10,23,Ticks_Phase_5,72,5,42,127,1549343272
69,10,23,Ticks_Phase_5,73,1,48,40,1549348784
69,10,23,Ticks_Phase_5,74,1,48,42,1549813196
69,10,23,Ticks_Phase_5,75,5,42,127,1549842732
69,10,23,Ticks_Phase_5,76,1,48,37,1550332284
69,10,23,Ticks_Phase_5,77,5,42,127,1550342568
69,10,23,Ticks_Phase_5,78,1,48,21,1550843384
69,10,23,Ticks_Phase_5,79,5,42,127,1550844796
69,10,23,Ticks_Phase_5,80,1,48,39,1551295708
69,10,23,Ticks_Phase_5,81,5,42,127,1551343216
69,10,23,Ticks_Phase_5,82,1,48,38,1551829912
69,10,23,Ticks_Phase_5,83,5,42,127,1551842608
69,10,23,Ticks_Phase_5,84,1,48,42,1552296208
69,10,23,Ticks_Phase_5,85,5,42,127,1552343268
69,10,23,Ticks_Phase_5,86,1,48,40,1552786536
69,10,23,Ticks_Phase_5,87,5,42,127,1552843104
69,10,23,Ticks_Phase_5,88,1,48,39,1553313332
69,10,23,Ticks_Phase_5,89,5,42,127,1553343016
69,10,23,Ticks_Phase_5,90,1,48,32,1553804928
69,10,23,Ticks_Phase_5,91,5,42,127,1553842704
69,10,23,Ticks_Phase_5,92,5,42,127,1554352512
69,10,23,Ticks_Phase_5,93,1,48,35,1554359292
69,10,23,Ticks_Phase_5,94,1,48,39,1554829768
69,10,23,Ticks_Phase_5,95,5,42,127,1554853240
69,10,23,Ticks_Phase_5,96,1,48,43,1555299124
69,10,23,Ticks_Phase_5,97,5,42,127,1555353228
69,10,23,Ticks_Phase_5,98,1,48,43,1555785936
69,10,23,Ticks_Phase_5,99,5,42,127,1555852692
69,10,23,Ticks_Phase_5,100,5,42,127,1556353360
69,10,23,Ticks_Phase_5,101,1,48,33,1556388004
69,10,23,Ticks_Phase_5,102,1,48,39,1556833240
69,10,23,Ticks_Phase_5,103,5,42,127,1556853116
69,10,23,Ticks_Phase_5,104,5,42,127,1557353108
69,10,23,Ticks_Phase_5,105,1,48,45,1557370004
69,10,23,Ticks_Phase_5,106,1,48,48,1557809544
69,10,23,Ticks_Phase_5,107,5,42,127,1557852492
69,10,23,Ticks_Phase_5,108,1,48,46,1558336120
69,10,23,Ticks_Phase_5,109,5,42,127,1558353224
69,10,23,Ticks_Phase_5,110,1,48,48,1558822380
69,10,23,Ticks_Phase_5,111,5,42,127,1558853060
69,10,23,Ticks_Phase_5,112,1,48,38,1559316824
69,10,23,Ticks_Phase_5,113,5,42,127,1559352972
69,10,23,Ticks_Phase_5,114,5,42,127,1559853392
69,10,23,Ticks_Phase_5,115,1,48,45,1559855048
69,10,23,Ticks_Phase_5,116,5,42,127,1560363336
69,10,23,Ticks_Phase_5,117,1,48,42,1560392620
69,10,23,Ticks_Phase_5,118,1,48,48,1560832068
69,10,23,Ticks_Phase_5,119,5,42,127,1560863020
69,10,23,Ticks_Phase_5,120,1,48,46,1561324784
69,10,23,Ticks_Phase_5,121,5,42,127,1561363076
69,10,23,Ticks_Phase_5,122,1,48,43,1561830232
69,10,23,Ticks_Phase_5,123,5,42,127,1561862548
69,10,23,Ticks_Phase_5,124,1,48,49,1562293460
69,10,23,Ticks_Phase_5,125,5,42,127,1562382904
69,10,23,Ticks_Phase_5,126,1,48,40,1562857996
69,10,23,Ticks_Phase_5,127,5,42,127,1562882368
69,10,23,Ticks_Phase_5,128,1,48,43,1563323088
69,10,23,Ticks_Phase_5,129,5,42,127,1563383100
69,10,23,Ticks_Phase_5,130,1,48,39,1563807344
69,10,23,Ticks_Phase_5,131,5,42,127,1563882788
69,10,23,Ticks_Phase_5,132,1,48,40,1564364696
69,10,23,Ticks_Phase_5,133,5,42,127,1564382700
69,10,23,Ticks_Phase_5,134,1,48,42,1564851136
69,10,23,Ticks_Phase_5,135,5,42,127,1564883288
69,10,23,Ticks_Phase_5,136,1,48,44,1565311880
69,10,23,Ticks_Phase_5,137,5,42,127,1565383052
69,10,23,Ticks_Phase_5,138,1,48,43,1565851484
69,10,23,Ticks_Phase_5,139,5,42,127,1565882740
69,10,23,Ticks_Phase_5,140,1,48,41,1566327204
69,10,23,Ticks_Phase_5,141,5,42,127,1566382428
69,10,23,Ticks_Phase_5,142,1,48,41,1566817456
69,10,23,Ticks_Phase_5,143,5,42,127,1566883164
69,10,23,Ticks_Phase_5,144,1,48,39,1567351000
69,10,23,Ticks_Phase_5,145,5,42,127,1567382924
69,10,23,Ticks_Phase_5,146,1,48,34,1567825740
69,10,23,Ticks_Phase_5,147,5,42,127,1567882688
69,10,23,Ticks_Phase_5,148,1,48,42,1568354864
69,10,23,Ticks_Phase_5,149,5,42,127,1568383200
69,10,23,Ticks_Phase_5,150,1,48,38,1568823096
69,10,23,Ticks_Phase_5,151,5,42,127,1568883112
69,10,23,Ticks_Phase_5,152,1,48,43,1569339556
69,10,23,Ticks_Phase_5,153,5,42,127,1569382876
69,10,23,Ticks_Phase_5,154,1,48,38,1569852880
69,10,23,Ticks_Phase_5,155,5,42,127,1569882712
69,10,23,Ticks_Phase_5,156,1,48,43,1570305064
69,10,23,Ticks_Phase_5,157,5,42,127,1570383152
69,10,23,Ticks_Phase_5,158,1,48,43,1570843844
69,10,23,Ticks_Phase_5,159,5,42,127,1570862840
69,10,23,Ticks_Phase_5,160,1,48,40,1571321292
69,10,23,Ticks_Phase_5,161,5,42,127,1571363252
69,10,23,Ticks_Phase_5,162,1,48,41,1571805620
69,10,23,Ticks_Phase_5,163,5,42,127,1571862868
69,10,23,Ticks_Phase_5,164,1,48,40,1572309868
69,10,23,Ticks_Phase_5,165,5,42,127,1572362556
69,10,23,Ticks_Phase_5,166,1,48,40,1572777216
69,10,23,Ticks_Phase_5,167,5,42,127,1572863216
69,10,23,Ticks_Phase_5,168,1,48,35,1573237060
69,10,23,Ticks_Phase_5,169,5,42,127,1573363036
69,10,23,Ticks_Phase_5,170,1,48,40,1573729704
69,10,23,Ticks_Phase_5,171,5,42,127,1573862652
69,10,23,Ticks_Phase_5,172,1,48,40,1574295676
69,10,23,Ticks_Phase_5,173,5,42,127,1574362580
69,10,23,Ticks_Phase_5,174,1,48,36,1574843216
69,10,23,Ticks_Phase_5,175,5,42,127,1574863164
69,10,23,Ticks_Phase_5,176,5,42,127,1575362788
69,10,23,Ticks_Phase_5,177,1,48,33,1575381784
69,10,23,Ticks_Phase_5,178,1,48,46,1575824620
69,10,23,Ticks_Phase_5,179,5,42,127,1575862764
69,10,23,Ticks_Phase_5,180,1,48,46,1576290908
69,10,23,Ticks_Phase_5,181,5,42,127,1576363500
69,10,23,Ticks_Phase_5,182,1,48,41,1576789392
69,10,23,Ticks_Phase_5,183,5,42,127,1576862964
69,10,23,Ticks_Phase_5,184,1,48,41,1577274104
69,10,23,Ticks_Phase_5,185,5,42,127,1577362728
69,10,23,Ticks_Phase_5,186,1,48,38,1577785996
69,10,23,Ticks_Phase_5,187,5,42,127,1577862640
69,10,23,Ticks_Phase_5,188,1,48,40,1578284764
69,10,23,Ticks_Phase_5,189,5,42,127,1578363152
69,10,23,Ticks_Phase_5,190,1,48,42,1578761540
69,10,23,Ticks_Phase_5,191,5,42,127,1578812664
69,10,23,Ticks_Phase_5,192,1,48,38,1579271564
69,10,23,Ticks_Phase_5,193,5,42,127,1579312652
69,10,23,Ticks_Phase_5,194,1,48,37,1579789588
69,10,23,Ticks_Phase_5,195,5,42,127,1579813212
69,10,23,Ticks_Phase_5,196,1,48,38,1580269656
69,10,23,Ticks_Phase_5,197,5,42,127,1580312900
69,10,23,Ticks_Phase_5,198,1,48,37,1580730024
69,10,23,Ticks_Phase_5,199,5,42,127,1580812588
69,10,23,Ticks_Phase_5,200,1,48,36,1581245596
69,10,23,Ticks_Phase_5,201,5,42,127,1581313472
69,10,23,Ticks_Phase_5,202,1,48,36,1581785572
69,10,23,Ticks_Phase_5,203,5,42,127,1581813012
69,10,23,Ticks_Phase_5,204,1,48,40,1582228568
69,10,23,Ticks_Phase_5,205,5,42,127,1582312772
69,10,23,Ticks_Phase_5,206,1,48,39,1582798272
69,10,23,Ticks_Phase_5,207,5,42,127,1582812388
69,10,23,Ticks_Phase_5,208,1,48,21,1583286584
69,10,23,Ticks_Phase_5,209,5,42,127,1583313344
69,10,23,Ticks_Phase_5,210,5,42,127,1583813040
69,10,23,Ticks_Phase_5,211,1,48,17,1583817656
69,10,23,Ticks_Phase_5,212,1,48,35,1584268508
69,10,23,Ticks_Phase_5,213,5,42,127,1584312724
69,10,23,Ticks_Phase_5,214,1,48,30,1584793508
69,10,23,Ticks_Phase_5,215,5,42,127,1584813384
69,10,23,Ticks_Phase_5,216,1,48,35,1585281368
69,10,23,Ticks_Phase_5,217,5,42,127,1585323328
69,10,23,Ticks_Phase_5,218,1,48,36,1585774164
69,10,23,Ticks_Phase_5,219,5,42,127,1585823020
69,10,23,Ticks_Phase_5,220,1,48,38,1586237456
69,10,23,Ticks_Phase_5,221,5,42,127,1586322708
69,10,23,Ticks_Phase_5,222,1,48,36,1586731952
69,10,23,Ticks_Phase_5,223,5,42,127,1586823576
69,10,23,Ticks_Phase_5,224,1,48,41,1587285952
69,10,23,Ticks_Phase_5,225,5,42,127,1587373532
69,10,23,Ticks_Phase_5,226,1,48,34,1587854396
69,10,23,Ticks_Phase_5,227,5,42,127,1587883404
69,10,23,Ticks_Phase_5,228,1,48,32,1588371832
69,10,23,Ticks_Phase_5,229,5,42,127,1588383164
69,10,23,Ticks_Phase_5,230,1,48,32,1588869860
69,10,23,Ticks_Phase_5,231,5,42,127,1588882780
69,10,23,Ticks_Phase_5,232,5,42,127,1589382476
69,10,23,Ticks_Phase_5,233,1,48,20,1589418320
69,10,23,Ticks_Phase_5,234,1,48,40,1589820800
69,10,23,Ticks_Phase_5,235,5,42,127,1589883204
69,10,23,Ticks_Phase_5,236,1,48,43,1590356572
69,10,23,Ticks_Phase_5,237,5,42,127,1590383116
69,10,23,Ticks_Phase_5,238,1,48,46,1590871472
69,10,23,Ticks_Phase_5,239,5,42,127,1590882656
69,10,23,Ticks_Phase_5,240,1,48,43,1591366964
69,10,23,Ticks_Phase_5,241,5,42,127,1591383392
69,10,23,Ticks_Phase_5,242,1,48,38,1591823864
69,10,23,Ticks_Phase_5,243,5,42,127,1591883304
69,10,23,Ticks_Phase_5,244,1,48,40,1592322800
69,10,23,Ticks_Phase_5,245,5,42,127,1592382764
69,10,23,Ticks_Phase_5,246,1,48,43,1592862704
69,10,23,Ticks_Phase_5,247,5,42,127,1592882528
69,10,23,Ticks_Phase_5,248,1,48,47,1593348008
69,10,23,Ticks_Phase_5,249,5,42,127,1593383240
69,10,23,Ticks_Phase_5,250,1,48,44,1593848000
69,10,23,Ticks_Phase_5,251,5,42,127,1593883076
69,10,23,Ticks_Phase_5,252,1,48,44,1594363640
69,10,23,Ticks_Phase_5,253,5,42,127,1594382688
69,10,23,Ticks_Phase_5,254,1,48,43,1594851124
69,10,23,Ticks_Phase_5,255,5,42,127,1594882528
69,10,23,Ticks_Phase_5,256,1,48,43,1595380928
69,10,23,Ticks_Phase_5,257,5,42,127,1595383412
69,10,23,Ticks_Phase_5,258,1,48,39,1595876408
69,10,23,Ticks_Phase_5,259,5,42,127,1595983164
69,10,23,Ticks_Phase_5,260,1,48,37,1596423356
69,10,23,Ticks_Phase_5,261,5,42,127,1596482864
69,10,23,Ticks_Phase_5,262,1,48,39,1596969464
69,10,23,Ticks_Phase_5,263,5,42,127,1596982628
69,10,23,Ticks_Phase_5,264,1,48,38,1597473880
69,10,23,Ticks_Phase_5,265,5,42,127,1597483416
69,10,23,Ticks_Phase_5,266,5,42,127,1597983180
69,10,23,Ticks_Phase_5,267,1,48,38,1597998004
69,10,23,Ticks_Phase_5,268,1,48,41,1598424128
69,10,23,Ticks_Phase_5,269,5,42,127,1598482864
69,10,23,Ticks_Phase_5,270,5,42,127,1598982560
69,10,23,Ticks_Phase_5,271,1,48,40,1598988448
69,10,23,Ticks_Phase_5,272,1,48,36,1599440044
69,10,23,Ticks_Phase_5,273,5,42,127,1599483288
69,10,23,Ticks_Phase_5,274,1,48,46,1599953220
69,10,23,Ticks_Phase_5,275,5,42,127,1599982976
69,10,23,Ticks_Phase_5,276,1,48,48,1600473048
69,10,23,Ticks_Phase_5,277,5,42,127,1600482664
69,10,23,Ticks_Phase_5,278,5,42,127,1600983404
69,10,23,Ticks_Phase_5,279,1,48,39,1601013560
69,10,23,Ticks_Phase_5,280,1,48,40,1601443368
69,10,23,Ticks_Phase_5,281,5,42,127,1601483308
69,10,23,Ticks_Phase_5,282,5,42,127,1601982928
69,10,23,Ticks_Phase_5,283,1,48,34,1601993460
69,10,23,Ticks_Phase_5,284,5,42,127,1602482540
69,10,23,Ticks_Phase_5,285,1,48,29,1602565416
69,10,23,Ticks_Phase_5,286,5,42,127,1602983276
69,10,23,Ticks_Phase_5,287,1,48,43,1603018296
69,10,23,Ticks_Phase_5,288,1,48,43,1603454620
69,10,23,Ticks_Phase_5,289,5,42,127,1603482956
69,10,23,Ticks_Phase_5,290,5,42,127,1603982580
69,10,23,Ticks_Phase_5,291,1,48,35,1603998348
69,10,23,Ticks_Phase_5,292,1,48,40,1604422920
69,10,23,Ticks_Phase_5,293,5,42,127,1604482408
69,10,23,Ticks_Phase_5,294,1,48,42,1604935112
69,10,23,Ticks_Phase_5,295,5,42,127,1604983144
69,10,23,Ticks_Phase_5,296,5,42,127,1605382616
69,10,23,Ticks_Phase_5,297,1,48,29,1605461404
69,10,23,Ticks_Phase_5,298,5,42,127,1605883276
69,10,23,Ticks_Phase_5,299,1,48,43,1605896580
69,10,23,Ticks_Phase_5,300,1,48,43,1606339560
69,10,23,Ticks_Phase_5,301,5,42,127,1606383256
69,10,23,Ticks_Phase_5,302,1,48,43,1606824276
69,10,23,Ticks_Phase_5,303,5,42,127,1606883092
69,10,23,Ticks_Phase_5,304,1,48,47,1607347176
69,10,23,Ticks_Phase_5,305,5,42,127,1607383380
69,10,23,Ticks_Phase_5,306,1,48,40,1607813320
69,10,23,Ticks_Phase_5,307,5,42,127,1607883068
69,10,23,Ticks_Phase_5,308,1,48,42,1608324012
69,10,23,Ticks_Phase_5,309,5,42,127,1608383128
69,10,23,Ticks_Phase_5,310,1,48,42,1608817184
69,10,23,Ticks_Phase_5,311,5,42,127,1608882520
69,10,23,Ticks_Phase_5,312,1,48,39,1609295908
69,10,23,Ticks_Phase_5,313,5,42,127,1609383328
69,10,23,Ticks_Phase_5,314,5,42,127,1609883100
69,10,23,Ticks_Phase_5,315,1,48,42,1609888016
69,10,23,Ticks_Phase_5,316,5,42,127,1610382640
69,10,23,Ticks_Phase_5,317,1,48,36,1610396768
69,10,23,Ticks_Phase_5,318,1,48,44,1610821636
69,10,23,Ticks_Phase_5,319,5,42,127,1610882396
69,10,23,Ticks_Phase_5,320,5,42,127,1611383284
69,10,23,Ticks_Phase_5,321,1,48,38,1611396292
69,10,23,Ticks_Phase_5,322,1,48,43,1611849012
69,10,23,Ticks_Phase_5,323,5,42,127,1611882968
69,10,23,Ticks_Phase_5,324,1,48,34,1612343540
69,10,23,Ticks_Phase_5,325,5,42,127,1612382656
69,10,23,Ticks_Phase_5,326,1,48,27,1612854684
69,10,23,Ticks_Phase_5,327,5,42,127,1612883244
69,10,23,Ticks_Phase_5,328,5,42,127,1613383012
69,10,23,Ticks_Phase_5,329,1,48,42,1613769128
69,10,23,Ticks_Phase_5,330,5,42,127,1613882924
69,10,23,Ticks_Phase_5,331,1,48,40,1614325356
69,10,23,Ticks_Phase_5,332,5,42,127,1614382552
69,10,23,Ticks_Phase_5,333,1,48,37,1614834108
69,10,23,Ticks_Phase_5,334,5,42,127,1614883188
69,10,23,Ticks_Phase_5,0,9999,9999,9999,1530340440
69,10,23,Ticks_Phase_5,1,9999,9999,9999,1530840148
69,10,23,Ticks_Phase_5,2,9999,9999,9999,1531340908
69,10,23,Ticks_Phase_5,3,9999,9999,9999,1531840616
69,10,23,Ticks_Phase_5,4,9999,9999,9999,1532340324
69,10,23,Ticks_Phase_5,5,9999,9999,9999,1532841052
69,10,23,Ticks_Phase_5,6,9999,9999,9999,1533340748
69,10,23,Ticks_Phase_5,7,9999,9999,9999,1533840440
69,10,23,Ticks_Phase_5,8,9999,9999,9999,1534340200
69,10,23,Ticks_Phase_5,9,9999,9999,9999,1534840928
69,10,23,Ticks_Phase_5,10,9999,9999,9999,1535340620
69,10,23,Ticks_Phase_5,11,9999,9999,9999,1535840312
69,10,23,Ticks_Phase_5,12,9999,9999,9999,1536341116
69,10,23,Ticks_Phase_5,13,9999,9999,9999,1536840812
69,10,23,Ticks_Phase_5,14,9999,9999,9999,1537340492
69,10,23,Ticks_Phase_5,15,9999,9999,9999,1537840256
69,10,23,Ticks_Phase_5,16,9999,9999,9999,1538340964
69,10,23,Ticks_Phase_5,17,9999,9999,9999,1538840652
69,10,23,Ticks_Phase_5,18,9999,9999,9999,1539340348
69,10,23,Ticks_Phase_5,19,9999,9999,9999,1539840108
69,10,23,Ticks_Phase_5,20,9999,9999,9999,1540340836
69,10,23,Ticks_Phase_5,21,9999,9999,9999,1540840524
69,10,23,Ticks_Phase_5,22,9999,9999,9999,1541340228
69,10,23,Ticks_Phase_5,23,9999,9999,9999,1541841004
69,10,23,Ticks_Phase_5,24,9999,9999,9999,1542340684
69,10,23,Ticks_Phase_5,25,9999,9999,9999,1542840380
69,10,23,Ticks_Phase_5,26,9999,9999,9999,1543340140
69,10,23,Ticks_Phase_5,27,9999,9999,9999,1543840876
69,10,23,Ticks_Phase_5,28,9999,9999,9999,1544340568
69,10,23,Ticks_Phase_5,29,9999,9999,9999,1544840248
69,10,23,Ticks_Phase_5,30,9999,9999,9999,1545330804
69,10,23,Ticks_Phase_5,31,9999,9999,9999,1545830488
69,10,23,Ticks_Phase_5,32,9999,9999,9999,1546330176
69,10,23,Ticks_Phase_5,33,9999,9999,9999,1546830916
69,10,23,Ticks_Phase_5,34,9999,9999,9999,1547330680
69,10,23,Ticks_Phase_5,35,9999,9999,9999,1547830368
69,10,23,Ticks_Phase_5,36,9999,9999,9999,1548331108
69,10,23,Ticks_Phase_5,37,9999,9999,9999,1548841068
69,10,23,Ticks_Phase_5,38,9999,9999,9999,1549340764
69,10,23,Ticks_Phase_5,39,9999,9999,9999,1549840444
69,10,23,Ticks_Phase_5,40,9999,9999,9999,1550340208
69,10,23,Ticks_Phase_5,41,9999,9999,9999,1550840948
69,10,23,Ticks_Phase_5,42,9999,9999,9999,1551340632
69,10,23,Ticks_Phase_5,43,9999,9999,9999,1551840320
69,10,23,Ticks_Phase_5,44,9999,9999,9999,1552341056
69,10,23,Ticks_Phase_5,45,9999,9999,9999,1552840820
69,10,23,Ticks_Phase_5,46,9999,9999,9999,1553340504
69,10,23,Ticks_Phase_5,47,9999,9999,9999,1553840192
69,10,23,Ticks_Phase_5,48,9999,9999,9999,1554350148
69,10,23,Ticks_Phase_5,49,9999,9999,9999,1554850880
69,10,23,Ticks_Phase_5,50,9999,9999,9999,1555350644
69,10,23,Ticks_Phase_5,51,9999,9999,9999,1555850332
69,10,23,Ticks_Phase_5,52,9999,9999,9999,1556351072
69,10,23,Ticks_Phase_5,53,9999,9999,9999,1556850752
69,10,23,Ticks_Phase_5,54,9999,9999,9999,1557350520
69,10,23,Ticks_Phase_5,55,9999,9999,9999,1557850204
69,10,23,Ticks_Phase_5,56,9999,9999,9999,1558350940
69,10,23,Ticks_Phase_5,57,9999,9999,9999,1558850624
69,10,23,Ticks_Phase_5,58,9999,9999,9999,1559350388
69,10,23,Ticks_Phase_5,59,9999,9999,9999,1559851104
69,10,23,Ticks_Phase_5,60,9999,9999,9999,1560361048
69,10,23,Ticks_Phase_5,61,9999,9999,9999,1560860732
69,10,23,Ticks_Phase_5,62,9999,9999,9999,1561360496
69,10,23,Ticks_Phase_5,63,9999,9999,9999,1561860184
69,10,23,Ticks_Phase_5,64,9999,9999,9999,1562380392
69,10,23,Ticks_Phase_5,65,9999,9999,9999,1562880080
69,10,23,Ticks_Phase_5,66,9999,9999,9999,1563380816
69,10,23,Ticks_Phase_5,67,9999,9999,9999,1563880504
69,10,23,Ticks_Phase_5,68,9999,9999,9999,1564380268
69,10,23,Ticks_Phase_5,69,9999,9999,9999,1564881000
69,10,23,Ticks_Phase_5,70,9999,9999,9999,1565380692
69,10,23,Ticks_Phase_5,71,9999,9999,9999,1565880376
69,10,23,Ticks_Phase_5,72,9999,9999,9999,1566380144
69,10,23,Ticks_Phase_5,73,9999,9999,9999,1566880876
69,10,23,Ticks_Phase_5,74,9999,9999,9999,1567380564
69,10,23,Ticks_Phase_5,75,9999,9999,9999,1567880256
69,10,23,Ticks_Phase_5,76,9999,9999,9999,1568380988
69,10,23,Ticks_Phase_5,77,9999,9999,9999,1568880752
69,10,23,Ticks_Phase_5,78,9999,9999,9999,1569380440
69,10,23,Ticks_Phase_5,79,9999,9999,9999,1569880128
69,10,23,Ticks_Phase_5,80,9999,9999,9999,1570380864
69,10,23,Ticks_Phase_5,81,9999,9999,9999,1570860156
69,10,23,Ticks_Phase_5,82,9999,9999,9999,1571360892
69,10,23,Ticks_Phase_5,83,9999,9999,9999,1571860580
69,10,23,Ticks_Phase_5,84,9999,9999,9999,1572360268
69,10,23,Ticks_Phase_5,85,9999,9999,9999,1572861004
69,10,23,Ticks_Phase_5,86,9999,9999,9999,1573360752
69,10,23,Ticks_Phase_5,87,9999,9999,9999,1573860440
69,10,23,Ticks_Phase_5,88,9999,9999,9999,1574360144
69,10,23,Ticks_Phase_5,89,9999,9999,9999,1574860880
69,10,23,Ticks_Phase_5,90,9999,9999,9999,1575360576
69,10,23,Ticks_Phase_5,91,9999,9999,9999,1575860328
69,10,23,Ticks_Phase_5,92,9999,9999,9999,1576361064
69,10,23,Ticks_Phase_5,93,9999,9999,9999,1576860752
69,10,23,Ticks_Phase_5,94,9999,9999,9999,1577360440
69,10,23,Ticks_Phase_5,95,9999,9999,9999,1577860204
69,10,23,Ticks_Phase_5,96,9999,9999,9999,1578360940
69,10,23,Ticks_Phase_5,97,9999,9999,9999,1578810452
69,10,23,Ticks_Phase_5,98,9999,9999,9999,1579310140
69,10,23,Ticks_Phase_5,99,9999,9999,9999,1579810924
69,10,23,Ticks_Phase_5,100,9999,9999,9999,1580310612
69,10,23,Ticks_Phase_5,101,9999,9999,9999,1580810304
69,10,23,Ticks_Phase_5,102,9999,9999,9999,1581311036
69,10,23,Ticks_Phase_5,103,9999,9999,9999,1581810800
69,10,23,Ticks_Phase_5,104,9999,9999,9999,1582310488
69,10,23,Ticks_Phase_5,105,9999,9999,9999,1582810176
69,10,23,Ticks_Phase_5,106,9999,9999,9999,1583310908
69,10,23,Ticks_Phase_5,107,9999,9999,9999,1583810680
69,10,23,Ticks_Phase_5,108,9999,9999,9999,1584310360
69,10,23,Ticks_Phase_5,109,9999,9999,9999,1584811096
69,10,23,Ticks_Phase_5,110,9999,9999,9999,1585321044
69,10,23,Ticks_Phase_5,111,9999,9999,9999,1585820732
69,10,23,Ticks_Phase_5,112,9999,9999,9999,1586320496
69,10,23,Ticks_Phase_5,113,9999,9999,9999,1586820180
69,10,23,Ticks_Phase_5,114,9999,9999,9999,1587371092
69,10,23,Ticks_Phase_5,115,9999,9999,9999,1587881044
69,10,23,Ticks_Phase_5,116,9999,9999,9999,1588380732
69,10,23,Ticks_Phase_5,117,9999,9999,9999,1588880492
69,10,23,Ticks_Phase_5,118,9999,9999,9999,1589380188
69,10,23,Ticks_Phase_5,119,9999,9999,9999,1589880916
69,10,23,Ticks_Phase_5,120,9999,9999,9999,1590380608
69,10,23,Ticks_Phase_5,121,9999,9999,9999,1590880368
69,10,23,Ticks_Phase_5,122,9999,9999,9999,1591381104
69,10,23,Ticks_Phase_5,123,9999,9999,9999,1591880792
69,10,23,Ticks_Phase_5,124,9999,9999,9999,1592380480
69,10,23,Ticks_Phase_5,125,9999,9999,9999,1592880244
69,10,23,Ticks_Phase_5,126,9999,9999,9999,1593380952
69,10,23,Ticks_Phase_5,127,9999,9999,9999,1593880640
69,10,23,Ticks_Phase_5,128,9999,9999,9999,1594380404
69,10,23,Ticks_Phase_5,129,9999,9999,9999,1594880092
69,10,23,Ticks_Phase_5,130,9999,9999,9999,1595380800
69,10,23,Ticks_Phase_5,131,9999,9999,9999,1595980876
69,10,23,Ticks_Phase_5,132,9999,9999,9999,1596480580
69,10,23,Ticks_Phase_5,133,9999,9999,9999,1596980340
69,10,23,Ticks_Phase_5,134,9999,9999,9999,1597481052
69,10,23,Ticks_Phase_5,135,9999,9999,9999,1597980748
69,10,23,Ticks_Phase_5,136,9999,9999,9999,1598480504
69,10,23,Ticks_Phase_5,137,9999,9999,9999,1598980196
69,10,23,Ticks_Phase_5,138,9999,9999,9999,1599480924
69,10,23,Ticks_Phase_5,139,9999,9999,9999,1599980612
69,10,23,Ticks_Phase_5,140,9999,9999,9999,1600480376
69,10,23,Ticks_Phase_5,141,9999,9999,9999,1600981116
69,10,23,Ticks_Phase_5,142,9999,9999,9999,1601480800
69,10,23,Ticks_Phase_5,143,9999,9999,9999,1601980492
69,10,23,Ticks_Phase_5,144,9999,9999,9999,1602480256
69,10,23,Ticks_Phase_5,145,9999,9999,9999,1602980988
69,10,23,Ticks_Phase_5,146,9999,9999,9999,1603480672
69,10,23,Ticks_Phase_5,147,9999,9999,9999,1603980364
69,10,23,Ticks_Phase_5,148,9999,9999,9999,1604480120
69,10,23,Ticks_Phase_5,149,9999,9999,9999,1604980856
69,10,23,Ticks_Phase_5,150,9999,9999,9999,1605380180
69,10,23,Ticks_Phase_5,151,9999,9999,9999,1605880916
69,10,23,Ticks_Phase_5,152,9999,9999,9999,1606380672
69,10,23,Ticks_Phase_5,153,9999,9999,9999,1606880360
69,10,23,Ticks_Phase_5,154,9999,9999,9999,1607381092
69,10,23,Ticks_Phase_5,155,9999,9999,9999,1607880784
69,10,23,Ticks_Phase_5,156,9999,9999,9999,1608380472
69,10,23,Ticks_Phase_5,157,9999,9999,9999,1608880232
69,10,23,Ticks_Phase_5,158,9999,9999,9999,1609380968
69,10,23,Ticks_Phase_5,159,9999,9999,9999,1609880664
69,10,23,Ticks_Phase_5,160,9999,9999,9999,1610380352
69,10,23,Ticks_Phase_5,161,9999,9999,9999,1610880108
69,10,23,Ticks_Phase_5,162,9999,9999,9999,1611380852
69,10,23,Ticks_Phase_5,163,9999,9999,9999,1611880532
69,10,23,Ticks_Phase_5,164,9999,9999,9999,1612380220
69,10,23,Ticks_Phase_5,165,9999,9999,9999,1612880956
69,10,23,Ticks_Phase_5,166,9999,9999,9999,1613380728
69,10,23,Ticks_Phase_5,167,9999,9999,9999,1613880416
69,10,23,Ticks_Phase_5,168,9999,9999,9999,1614380120
69,10,23,Ticks_Phase_5,169,9999,9999,9999,1614880828
69,11,25,Jits_Pract_5,0,5,56,103,1672723872
69,11,25,Jits_Pract_5,1,5,63,98,1672727048
69,11,25,Jits_Pract_5,2,5,80,127,1672730092
69,11,25,Jits_Pract_5,0,5,56,103,1673223748
69,11,25,Jits_Pract_5,1,5,63,98,1673226700
69,11,25,Jits_Pract_5,2,5,80,127,1673229820
69,11,25,Jits_Pract_5,0,5,56,103,1673733680
69,11,25,Jits_Pract_5,1,5,80,127,1673743580
69,11,25,Jits_Pract_5,2,5,63,98,1673764632
69,11,25,Jits_Pract_5,0,5,63,98,1674183976
69,11,25,Jits_Pract_5,1,5,80,127,1674213728
69,11,25,Jits_Pract_5,2,5,56,103,1674223848
69,11,25,Jits_Pract_5,0,5,80,127,1674744316
69,11,25,Jits_Pract_5,1,5,56,103,1674754584
69,11,25,Jits_Pract_5,2,5,63,98,1674784184
69,11,25,Jits_Pract_5,0,5,63,98,1675233724
69,11,25,Jits_Pract_5,1,5,56,103,1675264596
69,11,25,Jits_Pract_5,2,5,80,127,1675273524
69,11,25,Jits_Pract_5,0,5,56,103,1675684456
69,11,25,Jits_Pract_5,1,5,63,98,1675734584
69,11,25,Jits_Pract_5,2,5,80,127,1675753772
69,11,25,Jits_Pract_5,0,5,80,127,1676184048
69,11,25,Jits_Pract_5,1,5,63,98,1676234028
69,11,25,Jits_Pract_5,2,5,56,103,1676274040
69,11,25,Jits_Pract_5,0,5,56,103,1676683496
69,11,25,Jits_Pract_5,1,5,63,98,1676714368
69,11,25,Jits_Pract_5,2,5,80,127,1676783972
69,11,25,Jits_Pract_5,0,5,56,103,1677184436
69,11,25,Jits_Pract_5,1,5,80,127,1677243704
69,11,25,Jits_Pract_5,2,5,63,98,1677273604
69,11,25,Jits_Pract_5,0,5,56,103,1677694596
69,11,25,Jits_Pract_5,1,5,63,98,1677703448
69,11,25,Jits_Pract_5,2,5,80,127,1677743608
69,11,25,Jits_Pract_5,0,5,63,98,1678183928
69,11,25,Jits_Pract_5,1,5,80,127,1678263576
69,11,25,Jits_Pract_5,2,5,56,103,1678273844
69,11,25,Jits_Pract_5,0,5,63,98,1678733628
69,11,25,Jits_Pract_5,1,5,56,103,1678773488
69,11,25,Jits_Pract_5,2,5,80,127,1678776636
69,11,25,Jits_Pract_5,0,5,56,103,1679193492
69,11,25,Jits_Pract_5,1,5,63,98,1679203836
69,11,25,Jits_Pract_5,2,5,80,127,1679243700
69,11,25,Jits_Pract_5,0,5,56,103,1679683940
69,11,25,Jits_Pract_5,1,5,63,98,1679686932
69,11,25,Jits_Pract_5,2,5,80,127,1679704696
69,11,25,Jits_Pract_5,0,9999,9999,9999,1672971388
69,11,25,Jits_Pract_5,1,9999,9999,9999,1673472084
69,11,25,Jits_Pract_5,2,9999,9999,9999,1673982020
69,11,25,Jits_Pract_5,3,9999,9999,9999,1674481760
69,11,25,Jits_Pract_5,4,9999,9999,9999,1674981496
69,11,25,Jits_Pract_5,5,9999,9999,9999,1675481168
69,11,25,Jits_Pract_5,6,9999,9999,9999,1675981944
69,11,25,Jits_Pract_5,7,9999,9999,9999,1676481612
69,11,25,Jits_Pract_5,8,9999,9999,9999,1676981356
69,11,25,Jits_Pract_5,9,9999,9999,9999,1677482076
69,11,25,Jits_Pract_5,10,9999,9999,9999,1677981816
69,11,25,Jits_Pract_5,11,9999,9999,9999,1678481492
69,11,25,Jits_Pract_5,12,9999,9999,9999,1678981216
69,11,25,Jits_Pract_5,13,9999,9999,9999,1679481912
69,11,25,Jits_Pract_5,14,9999,9999,9999,1679981640
69,12,24,Jits_Pract_8,0,5,56,103,1721630044
69,12,24,Jits_Pract_8,1,5,63,98,1721633216
69,12,24,Jits_Pract_8,2,5,80,127,1721636484
69,12,24,Jits_Pract_8,0,5,56,103,1722429784
69,12,24,Jits_Pract_8,1,5,63,98,1722432952
69,12,24,Jits_Pract_8,2,5,80,127,1722436076
69,12,24,Jits_Pract_8,0,5,80,127,1723170144
69,12,24,Jits_Pract_8,1,5,63,98,1723260528
69,12,24,Jits_Pract_8,2,5,56,103,1723269604
69,12,24,Jits_Pract_8,0,5,56,103,1723990508
69,12,24,Jits_Pract_8,1,5,63,98,1723999584
69,12,24,Jits_Pract_8,2,5,80,127,1724089712
69,12,24,Jits_Pract_8,3,1,48,25,1724140476
69,12,24,Jits_Pract_8,0,1,48,22,1724674536
69,12,24,Jits_Pract_8,1,5,63,98,1724760600
69,12,24,Jits_Pract_8,2,5,80,127,1724790112
69,12,24,Jits_Pract_8,3,5,56,103,1724819860
69,12,24,Jits_Pract_8,0,1,48,28,1725435624
69,12,24,Jits_Pract_8,1,5,56,103,1725560040
69,12,24,Jits_Pract_8,2,5,80,127,1725659688
69,12,24,Jits_Pract_8,3,5,63,98,1725709664
69,12,24,Jits_Pract_8,0,1,48,24,1726311688
69,12,24,Jits_Pract_8,1,5,56,103,1726359888
69,12,24,Jits_Pract_8,2,5,80,127,1726411568
69,12,24,Jits_Pract_8,3,5,63,98,1726450456
69,12,24,Jits_Pract_8,0,1,48,36,1727137348
69,12,24,Jits_Pract_8,1,5,80,127,1727190580
69,12,24,Jits_Pract_8,2,5,63,98,1727219956
69,12,24,Jits_Pract_8,3,5,56,103,1727289720
69,12,24,Jits_Pract_8,0,1,48,32,1727954048
69,12,24,Jits_Pract_8,1,5,63,98,1728019708
69,12,24,Jits_Pract_8,2,5,56,103,1728049468
69,12,24,Jits_Pract_8,3,5,80,127,1728109856
69,12,24,Jits_Pract_8,0,5,56,103,1728760432
69,12,24,Jits_Pract_8,1,5,80,127,1728763424
69,12,24,Jits_Pract_8,2,1,48,37,1728807544
69,12,24,Jits_Pract_8,3,5,63,98,1728880100
69,12,24,Jits_Pract_8,0,1,48,43,1729521276
69,12,24,Jits_Pract_8,1,5,56,103,1729639688
69,12,24,Jits_Pract_8,2,5,80,127,1729679704
69,12,24,Jits_Pract_8,3,5,63,98,1729689900
69,12,24,Jits_Pract_8,0,1,48,33,1730368572
69,12,24,Jits_Pract_8,1,5,56,103,1730399536
69,12,24,Jits_Pract_8,2,5,80,127,1730420068
69,12,24,Jits_Pract_8,3,5,63,98,1730500068
69,12,24,Jits_Pract_8,0,5,80,127,1731190228
69,12,24,Jits_Pract_8,1,1,48,39,1731211484
69,12,24,Jits_Pract_8,2,5,56,103,1731289424
69,12,24,Jits_Pract_8,3,5,63,98,1731299692
69,12,24,Jits_Pract_8,0,5,63,98,1731960336
69,12,24,Jits_Pract_8,1,5,80,127,1732019532
69,12,24,Jits_Pract_8,2,5,56,103,1732029952
69,12,24,Jits_Pract_8,3,1,48,37,1732054272
69,12,24,Jits_Pract_8,0,1,48,40,1732721616
69,12,24,Jits_Pract_8,1,5,56,103,1732759784
69,12,24,Jits_Pract_8,2,5,63,98,1732829524
69,12,24,Jits_Pract_8,3,5,80,127,1732832960
69,12,24,Jits_Pract_8,0,9999,9999,9999,1722027100
69,12,24,Jits_Pract_8,1,9999,9999,9999,1722827864
69,12,24,Jits_Pract_8,2,9999,9999,9999,1723627596
69,12,24,Jits_Pract_8,3,9999,9999,9999,1724427380
69,12,24,Jits_Pract_8,4,9999,9999,9999,1725227096
69,12,24,Jits_Pract_8,5,9999,9999,9999,1726027900
69,12,24,Jits_Pract_8,6,9999,9999,9999,1726827580
69,12,24,Jits_Pract_8,7,9999,9999,9999,1727627336
69,12,24,Jits_Pract_8,8,9999,9999,9999,1728427096
69,12,24,Jits_Pract_8,9,9999,9999,9999,1729227888
69,12,24,Jits_Pract_8,10,9999,9999,9999,1730027588
69,12,24,Jits_Pract_8,11,9999,9999,9999,1730827348
69,12,24,Jits_Pract_8,12,9999,9999,9999,1731627132
69,12,24,Jits_Pract_8,13,9999,9999,9999,1732427872
69,12,24,Jits_Pract_8,14,9999,9999,9999,1733227616
69,13,25,Jits_Pract_5,0,5,56,103,1741032740
69,13,25,Jits_Pract_5,1,5,63,98,1741035988
69,13,25,Jits_Pract_5,2,5,80,127,1741039108
69,13,25,Jits_Pract_5,0,5,56,103,1741532464
69,13,25,Jits_Pract_5,1,5,63,98,1741535712
69,13,25,Jits_Pract_5,2,5,80,127,1741538980
69,13,25,Jits_Pract_5,0,1,48,13,1742022580
69,13,25,Jits_Pract_5,1,5,56,103,1742033316
69,13,25,Jits_Pract_5,2,5,80,127,1742042468
69,13,25,Jits_Pract_5,3,5,63,98,1742063148
69,13,25,Jits_Pract_5,0,1,48,22,1742440764
69,13,25,Jits_Pract_5,1,5,63,98,1742483184
69,13,25,Jits_Pract_5,2,5,80,127,1742512564
69,13,25,Jits_Pract_5,3,5,56,103,1742522908
69,13,25,Jits_Pract_5,0,1,48,29,1742925156
69,13,25,Jits_Pract_5,1,5,80,127,1743043096
69,13,25,Jits_Pract_5,2,5,56,103,1743053220
69,13,25,Jits_Pract_5,3,5,63,98,1743082892
69,13,25,Jits_Pract_5,0,1,48,27,1743522256
69,13,25,Jits_Pract_5,1,5,63,98,1743533440
69,13,25,Jits_Pract_5,2,5,56,103,1743563116
69,13,25,Jits_Pract_5,3,5,80,127,1743573460
69,13,25,Jits_Pract_5,0,5,56,103,1743983164
69,13,25,Jits_Pract_5,1,1,48,31,1744023224
69,13,25,Jits_Pract_5,2,5,63,98,1744032988
69,13,25,Jits_Pract_5,3,5,80,127,1744052624
69,13,25,Jits_Pract_5,0,1,48,33,1744465824
69,13,25,Jits_Pract_5,1,5,80,127,1744482568
69,13,25,Jits_Pract_5,2,5,63,98,1744532992
69,13,25,Jits_Pract_5,3,5,56,103,1744572916
69,13,25,Jits_Pract_5,0,5,56,103,1744983460
69,13,25,Jits_Pract_5,1,5,63,98,1745012988
69,13,25,Jits_Pract_5,2,1,48,34,1745013952
69,13,25,Jits_Pract_5,3,5,80,127,1745082736
69,13,25,Jits_Pract_5,0,5,56,103,1745483088
69,13,25,Jits_Pract_5,1,1,48,36,1745503744
69,13,25,Jits_Pract_5,2,5,80,127,1745542724
69,13,25,Jits_Pract_5,3,5,63,98,1745573148
69,13,25,Jits_Pract_5,0,5,56,103,1745993132
69,13,25,Jits_Pract_5,1,1,48,34,1745995652
69,13,25,Jits_Pract_5,2,5,63,98,1746003248
69,13,25,Jits_Pract_5,3,5,80,127,1746043184
69,13,25,Jits_Pract_5,0,1,48,39,1746468592
69,13,25,Jits_Pract_5,1,5,63,98,1746482640
69,13,25,Jits_Pract_5,2,5,80,127,1746562364
69,13,25,Jits_Pract_5,3,5,56,103,1746572840
69,13,25,Jits_Pract_5,0,1,48,38,1747004328
69,13,25,Jits_Pract_5,1,5,63,98,1747032380
69,13,25,Jits_Pract_5,2,5,56,103,1747073364
69,13,25,Jits_Pract_5,3,5,80,127,1747076580
69,13,25,Jits_Pract_5,0,5,56,103,1747493188
69,13,25,Jits_Pract_5,1,5,63,98,1747502484
69,13,25,Jits_Pract_5,2,1,48,38,1747532056
69,13,25,Jits_Pract_5,3,5,80,127,1747543388
69,13,25,Jits_Pract_5,0,1,48,39,1747964288
69,13,25,Jits_Pract_5,1,5,56,103,1747982964
69,13,25,Jits_Pract_5,2,5,63,98,1747985880
69,13,25,Jits_Pract_5,3,5,80,127,1748003124
69,13,25,Jits_Pract_5,0,9999,9999,9999,1741280324
69,13,25,Jits_Pract_5,1,9999,9999,9999,1741781096
69,13,25,Jits_Pract_5,2,9999,9999,9999,1742280820
69,13,25,Jits_Pract_5,3,9999,9999,9999,1742780508
69,13,25,Jits_Pract_5,4,9999,9999,9999,1743280200
69,13,25,Jits_Pract_5,5,9999,9999,9999,1743780940
69,13,25,Jits_Pract_5,6,9999,9999,9999,1744280628
69,13,25,Jits_Pract_5,7,9999,9999,9999,1744780412
69,13,25,Jits_Pract_5,8,9999,9999,9999,1745280100
69,13,25,Jits_Pract_5,9,9999,9999,9999,1745780852
69,13,25,Jits_Pract_5,10,9999,9999,9999,1746280556
69,13,25,Jits_Pract_5,11,9999,9999,9999,1746780260
69,13,25,Jits_Pract_5,12,9999,9999,9999,1747280996
69,13,25,Jits_Pract_5,13,9999,9999,9999,1747780684
69,13,25,Jits_Pract_5,14,9999,9999,9999,1748280376
69,14,18,Jits_Linear_8,0,5,56,103,1775455676
69,14,18,Jits_Linear_8,1,5,63,98,1775458852
69,14,18,Jits_Linear_8,2,5,80,127,1775461896
69,14,18,Jits_Linear_8,0,5,56,103,1776275912
69,14,18,Jits_Linear_8,1,5,63,98,1776278932
69,14,18,Jits_Linear_8,2,5,80,127,1776282356
69,14,18,Jits_Linear_8,0,5,80,127,1777035704
69,14,18,Jits_Linear_8,1,5,63,98,1777125768
69,14,18,Jits_Linear_8,2,5,56,103,1777136036
69,14,18,Jits_Linear_8,0,5,56,103,1777876412
69,14,18,Jits_Linear_8,1,5,63,98,1777885488
69,14,18,Jits_Linear_8,2,5,80,127,1777975648
69,14,18,Jits_Linear_8,0,5,63,98,1778665800
69,14,18,Jits_Linear_8,1,5,80,127,1778695404
69,14,18,Jits_Linear_8,2,5,56,103,1778726224
69,14,18,Jits_Linear_8,0,5,56,103,1779486184
69,14,18,Jits_Linear_8,1,5,80,127,1779586384
69,14,18,Jits_Linear_8,2,5,63,98,1779635612
69,14,18,Jits_Linear_8,0,5,56,103,1780296200
69,14,18,Jits_Linear_8,1,1,48,23,1780334316
69,14,18,Jits_Linear_8,2,5,80,127,1780346400
69,14,18,Jits_Linear_8,3,5,63,98,1780386488
69,14,18,Jits_Linear_8,0,1,48,35,1781018656
69,14,18,Jits_Linear_8,1,5,80,127,1781135728
69,14,18,Jits_Linear_8,2,5,63,98,1781165476
69,14,18,Jits_Linear_8,3,5,56,103,1781236280
69,14,18,Jits_Linear_8,0,1,48,31,1781884452
69,14,18,Jits_Linear_8,1,5,63,98,1781976480
69,14,18,Jits_Linear_8,2,5,56,103,1782006364
69,14,18,Jits_Linear_8,3,5,80,127,1782065584
69,14,18,Jits_Linear_8,0,5,56,103,1782726120
69,14,18,Jits_Linear_8,1,5,80,127,1782729184
69,14,18,Jits_Linear_8,2,1,48,38,1782744084
69,14,18,Jits_Linear_8,3,5,63,98,1782845772
69,14,18,Jits_Linear_8,0,1,48,38,1783556416
69,14,18,Jits_Linear_8,1,5,56,103,1783605688
69,14,18,Jits_Linear_8,2,5,80,127,1783645556
69,14,18,Jits_Linear_8,3,5,63,98,1783655812
69,14,18,Jits_Linear_8,0,1,48,37,1784322820
69,14,18,Jits_Linear_8,1,5,56,103,1784365440
69,14,18,Jits_Linear_8,2,5,80,127,1784386196
69,14,18,Jits_Linear_8,3,5,63,98,1784465828
69,14,18,Jits_Linear_8,0,1,48,43,1785132788
69,14,18,Jits_Linear_8,1,5,80,127,1785156124
69,14,18,Jits_Linear_8,2,5,56,103,1785256284
69,14,18,Jits_Linear_8,3,5,63,98,1785265508
69,14,18,Jits_Linear_8,0,5,63,98,1785926144
69,14,18,Jits_Linear_8,1,5,80,127,1785986388
69,14,18,Jits_Linear_8,2,5,56,103,1785995688
69,14,18,Jits_Linear_8,3,1,48,38,1786006224
69,14,18,Jits_Linear_8,0,1,48,30,1786676632
69,14,18,Jits_Linear_8,1,5,56,103,1786725880
69,14,18,Jits_Linear_8,2,5,63,98,1786796292
69,14,18,Jits_Linear_8,3,5,80,127,1786799732
69,14,18,Jits_Linear_8,0,1,48,35,1787502136
69,14,18,Jits_Linear_8,1,5,63,98,1787556192
69,14,18,Jits_Linear_8,2,5,56,103,1787606380
69,14,18,Jits_Linear_8,3,5,80,127,1787609668
69,14,18,Jits_Linear_8,0,1,48,38,1788294180
69,14,18,Jits_Linear_8,1,5,56,103,1788305656
69,14,18,Jits_Linear_8,2,5,80,127,1788308948
69,14,18,Jits_Linear_8,3,5,63,98,1788396224
69,14,18,Jits_Linear_8,0,1,48,34,1789083188
69,14,18,Jits_Linear_8,1,5,63,98,1789136120
69,14,18,Jits_Linear_8,2,5,56,103,1789226340
69,14,18,Jits_Linear_8,3,5,80,127,1789256016
69,14,18,Jits_Linear_8,0,5,56,103,1789915436
69,14,18,Jits_Linear_8,1,1,48,33,1789929188
69,14,18,Jits_Linear_8,2,5,63,98,1790015852
69,14,18,Jits_Linear_8,3,5,80,127,1790045512
69,14,18,Jits_Linear_8,0,5,63,98,1790725400
69,14,18,Jits_Linear_8,1,5,56,103,1790735744
69,14,18,Jits_Linear_8,2,1,48,29,1790756572
69,14,18,Jits_Linear_8,3,5,80,127,1790825968
69,14,18,Jits_Linear_8,0,1,48,29,1791481584
69,14,18,Jits_Linear_8,1,5,63,98,1791526372
69,14,18,Jits_Linear_8,2,5,56,103,1791606152
69,14,18,Jits_Linear_8,3,5,80,127,1791609220
69,14,18,Jits_Linear_8,0,1,48,21,1792251972
69,14,18,Jits_Linear_8,1,5,80,127,1792265640
69,14,18,Jits_Linear_8,2,5,63,98,1792286172
69,14,18,Jits_Linear_8,3,5,56,103,1792345392
69,14,18,Jits_Linear_8,0,1,48,34,1793020032
69,14,18,Jits_Linear_8,1,5,56,103,1793086020
69,14,18,Jits_Linear_8,2,5,63,98,1793106328
69,14,18,Jits_Linear_8,3,5,80,127,1793109616
69,14,18,Jits_Linear_8,0,1,48,32,1793790184
69,14,18,Jits_Linear_8,1,5,63,98,1793805724
69,14,18,Jits_Linear_8,2,5,80,127,1793885548
69,14,18,Jits_Linear_8,3,5,56,103,1793895728
69,14,18,Jits_Linear_8,0,1,48,29,1794580344
69,14,18,Jits_Linear_8,1,5,63,98,1794605352
69,14,18,Jits_Linear_8,2,5,56,103,1794625964
69,14,18,Jits_Linear_8,3,5,80,127,1794676072
69,14,18,Jits_Linear_8,0,1,48,38,1795340392
69,14,18,Jits_Linear_8,1,5,80,127,1795385848
69,14,18,Jits_Linear_8,2,5,63,98,1795425788
69,14,18,Jits_Linear_8,3,5,56,103,1795446084
69,14,18,Jits_Linear_8,0,1,48,37,1796121108
69,14,18,Jits_Linear_8,1,5,56,103,1796195788
69,14,18,Jits_Linear_8,2,5,63,98,1796206060
69,14,18,Jits_Linear_8,3,5,80,127,1796226360
69,14,18,Jits_Linear_8,0,1,48,41,1796889928
69,14,18,Jits_Linear_8,1,5,56,103,1796896248
69,14,18,Jits_Linear_8,2,5,63,98,1796987292
69,14,18,Jits_Linear_8,3,5,80,127,1797045588
69,14,18,Jits_Linear_8,0,1,48,39,1797692848
69,14,18,Jits_Linear_8,1,5,80,127,1797695952
69,14,18,Jits_Linear_8,2,5,56,103,1797706300
69,14,18,Jits_Linear_8,3,5,63,98,1797775908
69,14,18,Jits_Linear_8,0,1,48,35,1798444740
69,14,18,Jits_Linear_8,1,5,63,98,1798495488
69,14,18,Jits_Linear_8,2,5,80,127,1798585756
69,14,18,Jits_Linear_8,3,5,56,103,1798596100
69,14,18,Jits_Linear_8,0,5,63,98,1799195880
69,14,18,Jits_Linear_8,1,1,48,37,1799240300
69,14,18,Jits_Linear_8,2,5,80,127,1799246252
69,14,18,Jits_Linear_8,3,5,56,103,1799305444
69,14,18,Jits_Linear_8,0,1,48,41,1799943980
69,14,18,Jits_Linear_8,1,5,56,103,1799985460
69,14,18,Jits_Linear_8,2,5,80,127,1800035964
69,14,18,Jits_Linear_8,3,5,63,98,1800056108
69,14,18,Jits_Linear_8,0,5,56,103,1800715596
69,14,18,Jits_Linear_8,1,1,48,40,1800735500
69,14,18,Jits_Linear_8,2,5,80,127,1800776080
69,14,18,Jits_Linear_8,3,5,63,98,1800845820
69,14,18,Jits_Linear_8,0,1,48,44,1801457560
69,14,18,Jits_Linear_8,1,5,56,103,1801485984
69,14,18,Jits_Linear_8,2,5,80,127,1801516360
69,14,18,Jits_Linear_8,3,5,63,98,1801546184
69,14,18,Jits_Linear_8,0,1,48,37,1802171892
69,14,18,Jits_Linear_8,1,5,56,103,1802285372
69,14,18,Jits_Linear_8,2,5,80,127,1802306132
69,14,18,Jits_Linear_8,3,5,63,98,1802366224
69,14,18,Jits_Linear_8,0,1,48,41,1803010840
69,14,18,Jits_Linear_8,1,5,80,127,1803126112
69,14,18,Jits_Linear_8,2,5,56,103,1803136236
69,14,18,Jits_Linear_8,3,5,63,98,1803145532
69,14,18,Jits_Linear_8,0,5,56,103,1803835692
69,14,18,Jits_Linear_8,1,1,48,39,1803840832
69,14,18,Jits_Linear_8,2,5,80,127,1803875624
69,14,18,Jits_Linear_8,3,5,63,98,1803906424
69,14,18,Jits_Linear_8,0,5,56,103,1804555872
69,14,18,Jits_Linear_8,1,1,48,40,1804560564
69,14,18,Jits_Linear_8,2,5,63,98,1804586316
69,14,18,Jits_Linear_8,3,5,80,127,1804626404
69,14,18,Jits_Linear_8,0,5,80,127,1805255996
69,14,18,Jits_Linear_8,1,1,48,43,1805283624
69,14,18,Jits_Linear_8,2,5,63,98,1805306192
69,14,18,Jits_Linear_8,3,5,56,103,1805325756
69,14,18,Jits_Linear_8,0,1,48,41,1805953988
69,14,18,Jits_Linear_8,1,5,56,103,1806036500
69,14,18,Jits_Linear_8,2,5,80,127,1806105948
69,14,18,Jits_Linear_8,3,5,63,98,1806166360
69,14,18,Jits_Linear_8,0,5,80,127,1806775804
69,14,18,Jits_Linear_8,1,1,48,40,1806812336
69,14,18,Jits_Linear_8,2,5,63,98,1806865936
69,14,18,Jits_Linear_8,3,5,56,103,1806886196
69,14,18,Jits_Linear_8,0,5,63,98,1807535424
69,14,18,Jits_Linear_8,1,5,56,103,1807555884
69,14,18,Jits_Linear_8,2,1,48,40,1807567468
69,14,18,Jits_Linear_8,3,5,80,127,1807595812
69,14,18,Jits_Linear_8,0,1,48,38,1808212112
69,14,18,Jits_Linear_8,1,5,80,127,1808235820
69,14,18,Jits_Linear_8,2,5,63,98,1808256356
69,14,18,Jits_Linear_8,3,5,56,103,1808336212
69,14,18,Jits_Linear_8,0,1,48,42,1808904932
69,14,18,Jits_Linear_8,1,5,63,98,1808965968
69,14,18,Jits_Linear_8,2,5,56,103,1809075716
69,14,18,Jits_Linear_8,3,5,80,127,1809078856
69,14,18,Jits_Linear_8,0,1,48,38,1809697808
69,14,18,Jits_Linear_8,1,5,63,98,1809725780
69,14,18,Jits_Linear_8,2,5,56,103,1809735976
69,14,18,Jits_Linear_8,3,5,80,127,1809739116
69,14,18,Jits_Linear_8,0,1,48,39,1810428660
69,14,18,Jits_Linear_8,1,5,56,103,1810446000
69,14,18,Jits_Linear_8,2,5,80,127,1810565664
69,14,18,Jits_Linear_8,3,5,63,98,1810605380
69,14,18,Jits_Linear_8,0,5,56,103,1811196540
69,14,18,Jits_Linear_8,1,1,48,43,1811221984
69,14,18,Jits_Linear_8,2,5,80,127,1811276356
69,14,18,Jits_Linear_8,3,5,63,98,1811295620
69,14,18,Jits_Linear_8,0,5,56,103,1811926564
69,14,18,Jits_Linear_8,1,1,48,43,1811943704
69,14,18,Jits_Linear_8,2,5,63,98,1812036048
69,14,18,Jits_Linear_8,3,5,80,127,1812040440
69,14,18,Jits_Linear_8,0,1,48,40,1812681264
69,14,18,Jits_Linear_8,1,5,56,103,1812686088
69,14,18,Jits_Linear_8,2,5,80,127,1812715840
69,14,18,Jits_Linear_8,3,5,63,98,1812736448
69,14,18,Jits_Linear_8,0,5,63,98,1813395796
69,14,18,Jits_Linear_8,1,5,56,103,1813405992
69,14,18,Jits_Linear_8,2,1,48,37,1813410680
69,14,18,Jits_Linear_8,3,5,80,127,1813416480
69,14,18,Jits_Linear_8,0,1,48,41,1814081400
69,14,18,Jits_Linear_8,1,5,80,127,1814105560
69,14,18,Jits_Linear_8,2,5,56,103,1814155688
69,14,18,Jits_Linear_8,3,5,63,98,1814195764
69,14,18,Jits_Linear_8,0,1,48,41,1814752340
69,14,18,Jits_Linear_8,1,5,80,127,1814846712
69,14,18,Jits_Linear_8,2,5,63,98,1814866272
69,14,18,Jits_Linear_8,3,5,56,103,1814915652
69,14,18,Jits_Linear_8,0,1,48,40,1815509096
69,14,18,Jits_Linear_8,1,5,80,127,1815575880
69,14,18,Jits_Linear_8,2,5,56,103,1815605656
69,14,18,Jits_Linear_8,3,5,63,98,1815676368
69,14,18,Jits_Linear_8,0,1,48,38,1816272660
69,14,18,Jits_Linear_8,1,5,56,103,1816345900
69,14,18,Jits_Linear_8,2,5,80,127,1816356196
69,14,18,Jits_Linear_8,3,5,63,98,1816396268
69,14,18,Jits_Linear_8,0,1,48,34,1816972480
69,14,18,Jits_Linear_8,1,5,56,103,1816975660
69,14,18,Jits_Linear_8,2,5,63,98,1816996268
69,14,18,Jits_Linear_8,3,5,80,127,1817065876
69,14,18,Jits_Linear_8,0,1,48,37,1817658656
69,14,18,Jits_Linear_8,1,5,63,98,1817716076
69,14,18,Jits_Linear_8,2,5,80,127,1817775556
69,14,18,Jits_Linear_8,3,5,56,103,1817796016
69,14,18,Jits_Linear_8,0,1,48,32,1818382184
69,14,18,Jits_Linear_8,1,5,80,127,1818415440
69,14,18,Jits_Linear_8,2,5,56,103,1818446384
69,14,18,Jits_Linear_8,3,5,63,98,1818475824
69,14,18,Jits_Linear_8,0,1,48,29,1819105980
69,14,18,Jits_Linear_8,1,5,56,103,1819126084
69,14,18,Jits_Linear_8,2,5,63,98,1819185456
69,14,18,Jits_Linear_8,3,5,80,127,1819245904
69,14,18,Jits_Linear_8,0,1,48,41,1819819572
69,14,18,Jits_Linear_8,1,5,80,127,1819856168
69,14,18,Jits_Linear_8,2,5,56,103,1819875728
69,14,18,Jits_Linear_8,3,5,63,98,1819946468
69,14,18,Jits_Linear_8,0,1,48,38,1820550100
69,14,18,Jits_Linear_8,1,5,80,127,1820565792
69,14,18,Jits_Linear_8,2,5,63,98,1820586476
69,14,18,Jits_Linear_8,3,5,56,103,1820616080
69,14,18,Jits_Linear_8,0,5,80,127,1821256088
69,14,18,Jits_Linear_8,1,5,63,98,1821275652
69,14,18,Jits_Linear_8,2,1,48,35,1821279516
69,14,18,Jits_Linear_8,3,5,56,103,1821336036
69,14,18,Jits_Linear_8,0,5,80,127,1821965776
69,14,18,Jits_Linear_8,1,1,48,36,1821966744
69,14,18,Jits_Linear_8,2,5,56,103,1822066032
69,14,18,Jits_Linear_8,3,5,63,98,1822095632
69,14,18,Jits_Linear_8,0,5,63,98,1822655940
69,14,18,Jits_Linear_8,1,5,80,127,1822705924
69,14,18,Jits_Linear_8,2,1,48,29,1822721020
69,14,18,Jits_Linear_8,3,5,56,103,1822725476
69,14,18,Jits_Linear_8,0,1,48,39,1823327924
69,14,18,Jits_Linear_8,1,5,80,127,1823396280
69,14,18,Jits_Linear_8,2,5,56,103,1823425940
69,14,18,Jits_Linear_8,3,5,63,98,1823428856
69,14,18,Jits_Linear_8,0,1,48,36,1824076808
69,14,18,Jits_Linear_8,1,5,63,98,1824126428
69,14,18,Jits_Linear_8,2,5,56,103,1824166516
69,14,18,Jits_Linear_8,3,5,80,127,1824185840
69,14,18,Jits_Linear_8,0,5,80,127,1824766436
69,14,18,Jits_Linear_8,1,1,48,37,1824812432
69,14,18,Jits_Linear_8,2,5,63,98,1824846480
69,14,18,Jits_Linear_8,3,5,56,103,1824886192
69,14,18,Jits_Linear_8,0,5,63,98,1825475936
69,14,18,Jits_Linear_8,1,1,48,36,1825528280
69,14,18,Jits_Linear_8,2,5,80,127,1825555804
69,14,18,Jits_Linear_8,3,5,56,103,1825576436
69,14,18,Jits_Linear_8,0,5,56,103,1826206172
69,14,18,Jits_Linear_8,1,5,63,98,1826216520
69,14,18,Jits_Linear_8,2,1,48,38,1826223620
69,14,18,Jits_Linear_8,3,5,80,127,1826256376
69,14,18,Jits_Linear_8,0,5,56,103,1826816296
69,14,18,Jits_Linear_8,1,5,80,127,1826819508
69,14,18,Jits_Linear_8,2,1,48,45,1826877652
69,14,18,Jits_Linear_8,3,5,63,98,1826955668
69,14,18,Jits_Linear_8,0,5,56,103,1827496700
69,14,18,Jits_Linear_8,1,1,48,43,1827542300
69,14,18,Jits_Linear_8,2,5,63,98,1827586532
69,14,18,Jits_Linear_8,3,5,80,127,1827656076
69,14,18,Jits_Linear_8,0,1,48,35,1828182260
69,14,18,Jits_Linear_8,1,5,63,98,1828256240
69,14,18,Jits_Linear_8,2,5,80,127,1828259600
69,14,18,Jits_Linear_8,3,5,56,103,1828315492
69,14,18,Jits_Linear_8,0,1,48,36,1828907844
69,14,18,Jits_Linear_8,1,5,80,127,1828976128
69,14,18,Jits_Linear_8,2,5,56,103,1828995320
69,14,18,Jits_Linear_8,3,5,63,98,1829005664
69,14,18,Jits_Linear_8,0,5,56,103,1829565720
69,14,18,Jits_Linear_8,1,5,63,98,1829576216
69,14,18,Jits_Linear_8,2,1,48,38,1829594848
69,14,18,Jits_Linear_8,3,5,80,127,1829645664
69,14,18,Jits_Linear_8,0,5,80,127,1830245616
69,14,18,Jits_Linear_8,1,5,56,103,1830295896
69,14,18,Jits_Linear_8,2,1,48,30,1830300132
69,14,18,Jits_Linear_8,3,5,63,98,1830346088
69,14,18,Jits_Linear_8,0,1,48,36,1830986848
69,14,18,Jits_Linear_8,1,5,56,103,1831005604
69,14,18,Jits_Linear_8,2,5,63,98,1831015728
69,14,18,Jits_Linear_8,3,5,80,127,1831055592
69,14,18,Jits_Linear_8,0,5,56,103,1831626360
69,14,18,Jits_Linear_8,1,1,48,40,1831641092
69,14,18,Jits_Linear_8,2,5,63,98,1831666220
69,14,18,Jits_Linear_8,3,5,80,127,1831716220
69,14,18,Jits_Linear_8,0,5,80,127,1832255992
69,14,18,Jits_Linear_8,1,5,56,103,1832305972
69,14,18,Jits_Linear_8,2,5,63,98,1832325532
69,14,18,Jits_Linear_8,3,1,48,37,1832349776
69,14,18,Jits_Linear_8,0,5,80,127,1832935716
69,14,18,Jits_Linear_8,1,1,48,35,1832953064
69,14,18,Jits_Linear_8,2,5,63,98,1832996424
69,14,18,Jits_Linear_8,3,5,56,103,1833076052
69,14,18,Jits_Linear_8,0,5,80,127,1833586168
69,14,18,Jits_Linear_8,1,5,56,103,1833626332
69,14,18,Jits_Linear_8,2,5,63,98,1833645372
69,14,18,Jits_Linear_8,3,1,48,33,1833666100
69,14,18,Jits_Linear_8,0,1,48,35,1834275548
69,14,18,Jits_Linear_8,1,5,56,103,1834305992
69,14,18,Jits_Linear_8,2,5,80,127,1834316412
69,14,18,Jits_Linear_8,3,5,63,98,1834356204
69,14,18,Jits_Linear_8,0,1,48,36,1834957056
69,14,18,Jits_Linear_8,1,5,56,103,1835035980
69,14,18,Jits_Linear_8,2,5,63,98,1835076148
69,14,18,Jits_Linear_8,3,5,80,127,1835079436
69,14,18,Jits_Linear_8,0,5,63,98,1835585876
69,14,18,Jits_Linear_8,1,1,48,41,1835624148
69,14,18,Jits_Linear_8,2,5,80,127,1835625812
69,14,18,Jits_Linear_8,3,5,56,103,1835695344
69,14,18,Jits_Linear_8,0,5,63,98,1836236136
69,14,18,Jits_Linear_8,1,1,48,39,1836259412
69,14,18,Jits_Linear_8,2,5,56,103,1836316228
69,14,18,Jits_Linear_8,3,5,80,127,1836376552
69,14,18,Jits_Linear_8,0,5,80,127,1836905912
69,14,18,Jits_Linear_8,1,1,48,32,1836926416
69,14,18,Jits_Linear_8,2,5,63,98,1836956036
69,14,18,Jits_Linear_8,3,5,56,103,1836985712
69,14,18,Jits_Linear_8,0,5,56,103,1837556260
69,14,18,Jits_Linear_8,1,1,48,30,1837598792
69,14,18,Jits_Linear_8,2,5,63,98,1837606308
69,14,18,Jits_Linear_8,3,5,80,127,1837615460
69,14,18,Jits_Linear_8,0,1,48,37,1838174964
69,14,18,Jits_Linear_8,1,5,56,103,1838225712
69,14,18,Jits_Linear_8,2,5,63,98,1838336360
69,14,18,Jits_Linear_8,3,5,80,127,1838355700
69,14,18,Jits_Linear_8,0,5,63,98,1838876204
69,14,18,Jits_Linear_8,1,1,48,32,1838912084
69,14,18,Jits_Linear_8,2,5,80,127,1838926128
69,14,18,Jits_Linear_8,3,5,56,103,1839016320
69,14,18,Jits_Linear_8,0,5,63,98,1839516228
69,14,18,Jits_Linear_8,1,5,80,127,1839545684
69,14,18,Jits_Linear_8,2,1,48,33,1839564316
69,14,18,Jits_Linear_8,3,5,56,103,1839636104
69,14,18,Jits_Linear_8,0,5,63,98,1840166220
69,14,18,Jits_Linear_8,1,5,56,103,1840175444
69,14,18,Jits_Linear_8,2,1,48,34,1840179388
69,14,18,Jits_Linear_8,3,5,80,127,1840275816
69,14,18,Jits_Linear_8,0,1,48,35,1840847616
69,14,18,Jits_Linear_8,1,5,63,98,1840915972
69,14,18,Jits_Linear_8,2,5,80,127,1840945512
69,14,18,Jits_Linear_8,3,5,56,103,1840976232
69,14,18,Jits_Linear_8,0,1,48,37,1841560624
69,14,18,Jits_Linear_8,1,5,80,127,1841576236
69,14,18,Jits_Linear_8,2,5,63,98,1841585464
69,14,18,Jits_Linear_8,3,5,56,103,1841616112
69,14,18,Jits_Linear_8,0,5,80,127,1842116008
69,14,18,Jits_Linear_8,1,5,63,98,1842136468
69,14,18,Jits_Linear_8,2,5,56,103,1842185476
69,14,18,Jits_Linear_8,3,1,48,35,1842273036
69,14,18,Jits_Linear_8,0,5,63,98,1842785640
69,14,18,Jits_Linear_8,1,5,80,127,1842846036
69,14,18,Jits_Linear_8,2,5,56,103,1842865372
69,14,18,Jits_Linear_8,3,1,48,33,1843098652
69,14,18,Jits_Linear_8,0,5,63,98,1843385640
69,14,18,Jits_Linear_8,1,5,56,103,1843436064
69,14,18,Jits_Linear_8,2,5,80,127,1843446188
69,14,18,Jits_Linear_8,3,1,48,28,1843609720
69,14,18,Jits_Linear_8,0,5,56,103,1844056376
69,14,18,Jits_Linear_8,1,5,80,127,1844065524
69,14,18,Jits_Linear_8,2,5,63,98,1844165992
69,14,18,Jits_Linear_8,0,5,80,127,1844655516
69,14,18,Jits_Linear_8,1,5,63,98,1844665860
69,14,18,Jits_Linear_8,2,1,48,21,1844771560
69,14,18,Jits_Linear_8,3,5,56,103,1844816244
69,14,18,Jits_Linear_8,0,5,63,98,1845295552
69,14,18,Jits_Linear_8,1,5,80,127,1845336316
69,14,18,Jits_Linear_8,2,1,48,26,1845360480
69,14,18,Jits_Linear_8,3,5,56,103,1845416180
69,14,18,Jits_Linear_8,0,5,56,103,1845915996
69,14,18,Jits_Linear_8,1,1,48,21,1845994048
69,14,18,Jits_Linear_8,2,5,80,127,1846016316
69,14,18,Jits_Linear_8,3,5,63,98,1846035952
69,14,18,Jits_Linear_8,0,1,48,26,1846547740
69,14,18,Jits_Linear_8,1,5,80,127,1846606084
69,14,18,Jits_Linear_8,2,5,56,103,1846616652
69,14,18,Jits_Linear_8,3,5,63,98,1846705500
69,14,18,Jits_Linear_8,0,1,48,22,1847219904
69,14,18,Jits_Linear_8,1,5,56,103,1847235972
69,14,18,Jits_Linear_8,2,5,63,98,1847256360
69,14,18,Jits_Linear_8,3,5,80,127,1847336240
69,14,18,Jits_Linear_8,0,5,63,98,1847806304
69,14,18,Jits_Linear_8,1,1,48,25,1847861216
69,14,18,Jits_Linear_8,2,5,56,103,1847896536
69,14,18,Jits_Linear_8,3,5,80,127,1847899752
69,14,18,Jits_Linear_8,0,5,56,103,1848455468
69,14,18,Jits_Linear_8,1,1,48,24,1848468324
69,14,18,Jits_Linear_8,2,5,80,127,1848516076
69,14,18,Jits_Linear_8,3,5,63,98,1848526124
69,14,18,Jits_Linear_8,0,1,48,26,1849090796
69,14,18,Jits_Linear_8,1,5,80,127,1849126368
69,14,18,Jits_Linear_8,2,5,56,103,1849135440
69,14,18,Jits_Linear_8,3,5,63,98,1849138728
69,14,18,Jits_Linear_8,0,5,56,103,1849706132
69,14,18,Jits_Linear_8,1,5,80,127,1849716028
69,14,18,Jits_Linear_8,2,1,48,24,1849719224
69,14,18,Jits_Linear_8,3,5,63,98,1849735512
69,14,18,Jits_Linear_8,0,5,63,98,1850295796
69,14,18,Jits_Linear_8,1,1,48,27,1850354604
69,14,18,Jits_Linear_8,2,5,80,127,1850355960
69,14,18,Jits_Linear_8,3,5,56,103,1850406188
69,14,18,Jits_Linear_8,0,1,48,27,1850928152
69,14,18,Jits_Linear_8,1,5,63,98,1850996060
69,14,18,Jits_Linear_8,2,5,56,103,1851006180
69,14,18,Jits_Linear_8,3,5,80,127,1851055544
69,14,18,Jits_Linear_8,0,5,63,98,1851506080
69,14,18,Jits_Linear_8,1,5,80,127,1851525420
69,14,18,Jits_Linear_8,2,5,56,103,1851535764
69,14,18,Jits_Linear_8,3,1,48,29,1851568920
69,14,18,Jits_Linear_8,0,1,48,27,1852107084
69,14,18,Jits_Linear_8,1,5,63,98,1852116320
69,14,18,Jits_Linear_8,2,5,80,127,1852119836
69,14,18,Jits_Linear_8,3,5,56,103,1852156260
69,14,18,Jits_Linear_8,0,1,48,19,1852701432
69,14,18,Jits_Linear_8,1,5,63,98,1852796268
69,14,18,Jits_Linear_8,2,5,80,127,1852826004
69,14,18,Jits_Linear_8,3,5,56,103,1852836200
69,14,18,Jits_Linear_8,0,1,48,25,1853337200
69,14,18,Jits_Linear_8,1,5,56,103,1853356408
69,14,18,Jits_Linear_8,2,5,80,127,1853386008
69,14,18,Jits_Linear_8,3,5,63,98,1853415908
69,14,18,Jits_Linear_8,0,1,48,33,1853911784
69,14,18,Jits_Linear_8,1,5,63,98,1854055832
69,14,18,Jits_Linear_8,2,5,56,103,1854095920
69,14,18,Jits_Linear_8,3,5,80,127,1854098836
69,14,18,Jits_Linear_8,0,5,80,127,1854555528
69,14,18,Jits_Linear_8,1,1,48,36,1854601044
69,14,18,Jits_Linear_8,2,5,56,103,1854636368
69,14,18,Jits_Linear_8,3,5,63,98,1854685520
69,14,18,Jits_Linear_8,0,5,80,127,1855136060
69,14,18,Jits_Linear_8,1,5,56,103,1855155844
69,14,18,Jits_Linear_8,2,1,48,37,1855225948
69,14,18,Jits_Linear_8,3,5,63,98,1855245820
69,14,18,Jits_Linear_8,0,1,48,33,1855754388
69,14,18,Jits_Linear_8,1,5,80,127,1855776232
69,14,18,Jits_Linear_8,2,5,63,98,1855816248
69,14,18,Jits_Linear_8,3,5,56,103,1855856172
69,14,18,Jits_Linear_8,0,1,48,34,1856343856
69,14,18,Jits_Linear_8,1,5,63,98,1856345436
69,14,18,Jits_Linear_8,2,5,80,127,1856405976
69,14,18,Jits_Linear_8,3,5,56,103,1856435504
69,14,18,Jits_Linear_8,0,1,48,35,1856915512
69,14,18,Jits_Linear_8,1,5,56,103,1856945724
69,14,18,Jits_Linear_8,2,5,80,127,1856976224
69,14,18,Jits_Linear_8,3,5,63,98,1857066292
69,14,18,Jits_Linear_8,0,1,48,29,1857528376
69,14,18,Jits_Linear_8,1,5,56,103,1857545712
69,14,18,Jits_Linear_8,2,5,80,127,1857656236
69,14,18,Jits_Linear_8,3,5,63,98,1857685916
69,14,18,Jits_Linear_8,0,1,48,32,1858147284
69,14,18,Jits_Linear_8,1,5,56,103,1858185748
69,14,18,Jits_Linear_8,2,5,63,98,1858246052
69,14,18,Jits_Linear_8,3,5,80,127,1858275876
69,14,18,Jits_Linear_8,0,1,48,37,1858733120
69,14,18,Jits_Linear_8,1,5,56,103,1858745740
69,14,18,Jits_Linear_8,2,5,63,98,1858816324
69,14,18,Jits_Linear_8,3,5,80,127,1858835872
69,14,18,Jits_Linear_8,0,5,80,127,1859305812
69,14,18,Jits_Linear_8,1,1,48,34,1859322188
69,14,18,Jits_Linear_8,2,5,63,98,1859326268
69,14,18,Jits_Linear_8,3,5,56,103,1859375448
69,14,18,Jits_Linear_8,0,5,63,98,1859905848
69,14,18,Jits_Linear_8,1,1,48,35,1859906812
69,14,18,Jits_Linear_8,2,5,80,127,1859916184
69,14,18,Jits_Linear_8,3,5,56,103,1859966388
69,14,18,Jits_Linear_8,0,5,63,98,1860485684
69,14,18,Jits_Linear_8,1,1,48,35,1860501612
69,14,18,Jits_Linear_8,2,5,80,127,1860556256
69,14,18,Jits_Linear_8,3,5,56,103,1860575596
69,14,18,Jits_Linear_8,0,1,48,35,1861089316
69,14,18,Jits_Linear_8,1,5,63,98,1861095788
69,14,18,Jits_Linear_8,2,5,80,127,1861099076
69,14,18,Jits_Linear_8,3,5,56,103,1861165416
69,14,18,Jits_Linear_8,0,5,80,127,1861626096
69,14,18,Jits_Linear_8,1,5,56,103,1861645732
69,14,18,Jits_Linear_8,2,5,63,98,1861655856
69,14,18,Jits_Linear_8,3,1,48,26,1861670980
69,14,18,Jits_Linear_8,0,1,48,39,1862172860
69,14,18,Jits_Linear_8,1,5,56,103,1862226264
69,14,18,Jits_Linear_8,2,5,63,98,1862316684
69,14,18,Jits_Linear_8,3,5,80,127,1862319896
69,14,18,Jits_Linear_8,0,1,48,29,1862761860
69,14,18,Jits_Linear_8,1,5,80,127,1862776128
69,14,18,Jits_Linear_8,2,5,56,103,1862786548
69,14,18,Jits_Linear_8,3,5,63,98,1862805812
69,14,18,Jits_Linear_8,0,1,48,17,1863323952
69,14,18,Jits_Linear_8,1,5,63,98,1863345772
69,14,18,Jits_Linear_8,2,5,80,127,1863405868
69,14,18,Jits_Linear_8,3,5,56,103,1863416288
69,14,18,Jits_Linear_8,0,1,48,35,1863930972
69,14,18,Jits_Linear_8,1,5,63,98,1863985796
69,14,18,Jits_Linear_8,2,5,80,127,1864016296
69,14,18,Jits_Linear_8,3,5,56,103,1864056220
69,14,18,Jits_Linear_8,0,5,56,103,1864545792
69,14,18,Jits_Linear_8,1,5,80,127,1864555916
69,14,18,Jits_Linear_8,2,1,48,40,1864571688
69,14,18,Jits_Linear_8,3,5,63,98,1864595772
69,14,18,Jits_Linear_8,0,5,80,127,1865076052
69,14,18,Jits_Linear_8,1,1,48,40,1865108840
69,14,18,Jits_Linear_8,2,5,56,103,1865155920
69,14,18,Jits_Linear_8,3,5,63,98,1865166116
69,14,18,Jits_Linear_8,0,1,48,36,1865663828
69,14,18,Jits_Linear_8,1,5,80,127,1865686620
69,14,18,Jits_Linear_8,2,5,56,103,1865766356
69,14,18,Jits_Linear_8,3,5,63,98,1865775580
69,14,18,Jits_Linear_8,0,5,80,127,1866205644
69,14,18,Jits_Linear_8,1,5,56,103,1866255772
69,14,18,Jits_Linear_8,2,1,48,38,1866264292
69,14,18,Jits_Linear_8,3,5,63,98,1866305844
69,14,18,Jits_Linear_8,0,1,48,41,1866777828
69,14,18,Jits_Linear_8,1,5,56,103,1866826200
69,14,18,Jits_Linear_8,2,5,63,98,1866829120
69,14,18,Jits_Linear_8,3,5,80,127,1866876240
69,14,18,Jits_Linear_8,0,1,48,39,1867322764
69,14,18,Jits_Linear_8,1,5,56,103,1867415856
69,14,18,Jits_Linear_8,2,5,63,98,1867445668
69,14,18,Jits_Linear_8,3,5,80,127,1867455936
69,14,18,Jits_Linear_8,0,5,63,98,1867885804
69,14,18,Jits_Linear_8,1,1,48,35,1867921508
69,14,18,Jits_Linear_8,2,5,56,103,1867955704
69,14,18,Jits_Linear_8,3,5,80,127,1868005608
69,14,18,Jits_Linear_8,0,1,48,38,1868442376
69,14,18,Jits_Linear_8,1,5,63,98,1868475752
69,14,18,Jits_Linear_8,2,5,56,103,1868485948
69,14,18,Jits_Linear_8,3,5,80,127,1868488940
69,14,18,Jits_Linear_8,0,1,48,38,1868962420
69,14,18,Jits_Linear_8,1,5,80,127,1868975640
69,14,18,Jits_Linear_8,2,5,56,103,1869035808
69,14,18,Jits_Linear_8,3,5,63,98,1869125952
69,14,18,Jits_Linear_8,0,5,80,127,1869526492
69,14,18,Jits_Linear_8,1,1,48,40,1869544608
69,14,18,Jits_Linear_8,2,5,56,103,1869625564
69,14,18,Jits_Linear_8,3,5,63,98,1869665636
69,14,18,Jits_Linear_8,0,5,56,103,1870125704
69,14,18,Jits_Linear_8,1,1,48,39,1870143896
69,14,18,Jits_Linear_8,2,5,63,98,1870145860
69,14,18,Jits_Linear_8,3,5,80,127,1870185800
69,14,18,Jits_Linear_8,0,5,63,98,1870645624
69,14,18,Jits_Linear_8,1,5,56,103,1870666084
69,14,18,Jits_Linear_8,2,1,48,36,1870667348
69,14,18,Jits_Linear_8,3,5,80,127,1870765412
69,14,18,Jits_Linear_8,0,5,63,98,1871176168
69,14,18,Jits_Linear_8,1,1,48,41,1871183104
69,14,18,Jits_Linear_8,2,5,80,127,1871285616
69,14,18,Jits_Linear_8,3,5,56,103,1871316484
69,14,18,Jits_Linear_8,0,1,48,41,1871729228
69,14,18,Jits_Linear_8,1,5,56,103,1871736152
69,14,18,Jits_Linear_8,2,5,63,98,1871765756
69,14,18,Jits_Linear_8,3,5,80,127,1871816032
69,14,18,Jits_Linear_8,0,5,63,98,1872246248
69,14,18,Jits_Linear_8,1,1,48,40,1872272588
69,14,18,Jits_Linear_8,2,5,56,103,1872275768
69,14,18,Jits_Linear_8,3,5,80,127,1872326044
69,14,18,Jits_Linear_8,0,1,48,40,1872730224
69,14,18,Jits_Linear_8,1,5,56,103,1872815664
69,14,18,Jits_Linear_8,2,5,63,98,1872835964
69,14,18,Jits_Linear_8,3,5,80,127,1872915756
69,14,18,Jits_Linear_8,0,1,48,43,1873294864
69,14,18,Jits_Linear_8,1,5,63,98,1873325380
69,14,18,Jits_Linear_8,2,5,56,103,1873385984
69,14,18,Jits_Linear_8,3,5,80,127,1873415512
69,14,18,Jits_Linear_8,0,1,48,44,1873842700
69,14,18,Jits_Linear_8,1,5,56,103,1873906196
69,14,18,Jits_Linear_8,2,5,80,127,1873965404
69,14,18,Jits_Linear_8,3,5,63,98,1874006464
69,14,18,Jits_Linear_8,0,1,48,39,1874378576
69,14,18,Jits_Linear_8,1,5,63,98,1874416072
69,14,18,Jits_Linear_8,2,5,56,103,1874476488
69,14,18,Jits_Linear_8,3,5,80,127,1874546156
69,14,18,Jits_Linear_8,0,1,48,45,1874913560
69,14,18,Jits_Linear_8,1,5,56,103,1875026496
69,14,18,Jits_Linear_8,2,5,63,98,1875035572
69,14,18,Jits_Linear_8,3,5,80,127,1875038784
69,14,18,Jits_Linear_8,0,5,63,98,1875496296
69,14,18,Jits_Linear_8,1,1,48,38,1875503004
69,14,18,Jits_Linear_8,2,5,56,103,1875555784
69,14,18,Jits_Linear_8,3,5,80,127,1875558624
69,14,18,Jits_Linear_8,0,5,63,98,1876006452
69,14,18,Jits_Linear_8,1,1,48,41,1876021856
69,14,18,Jits_Linear_8,2,5,80,127,1876035900
69,14,18,Jits_Linear_8,3,5,56,103,1876056360
69,14,18,Jits_Linear_8,0,5,56,103,1876535648
69,14,18,Jits_Linear_8,1,1,48,40,1876541460
69,14,18,Jits_Linear_8,2,5,63,98,1876585696
69,14,18,Jits_Linear_8,3,5,80,127,1876665624
69,14,18,Jits_Linear_8,0,5,80,127,1877036536
69,14,18,Jits_Linear_8,1,5,63,98,1877076552
69,14,18,Jits_Linear_8,2,1,48,38,1877089036
69,14,18,Jits_Linear_8,3,5,56,103,1877095884
69,14,18,Jits_Linear_8,0,1,48,38,1877606624
69,14,18,Jits_Linear_8,1,5,56,103,1877626276
69,14,18,Jits_Linear_8,2,5,80,127,1877635576
69,14,18,Jits_Linear_8,3,5,63,98,1877655888
69,14,18,Jits_Linear_8,0,5,56,103,1878126036
69,14,18,Jits_Linear_8,1,1,48,37,1878165272
69,14,18,Jits_Linear_8,2,5,63,98,1878176232
69,14,18,Jits_Linear_8,3,5,80,127,1878205908
69,14,18,Jits_Linear_8,0,5,56,103,1878595840
69,14,18,Jits_Linear_8,1,5,63,98,1878606408
69,14,18,Jits_Linear_8,2,5,80,127,1878656684
69,14,18,Jits_Linear_8,3,1,48,35,1878666332
69,14,18,Jits_Linear_8,0,5,56,103,1879105864
69,14,18,Jits_Linear_8,1,5,80,127,1879108932
69,14,18,Jits_Linear_8,2,1,48,36,1879154692
69,14,18,Jits_Linear_8,3,5,63,98,1879265500
69,14,18,Jits_Linear_8,0,5,63,98,1879636264
69,14,18,Jits_Linear_8,1,1,48,38,1879651448
69,14,18,Jits_Linear_8,2,5,56,103,1879705868
69,14,18,Jits_Linear_8,3,5,80,127,1879745880
69,14,18,Jits_Linear_8,0,1,48,35,1880174204
69,14,18,Jits_Linear_8,1,5,63,98,1880186212
69,14,18,Jits_Linear_8,2,5,56,103,1880276556
69,14,18,Jits_Linear_8,3,5,80,127,1880279548
69,14,18,Jits_Linear_8,0,5,56,103,1880675632
69,14,18,Jits_Linear_8,1,1,48,40,1880723716
69,14,18,Jits_Linear_8,2,5,63,98,1880765764
69,14,18,Jits_Linear_8,3,5,80,127,1880776328
69,14,18,Jits_Linear_8,0,5,56,103,1881155924
69,14,18,Jits_Linear_8,1,5,63,98,1881206200
69,14,18,Jits_Linear_8,2,5,80,127,1881235804
69,14,18,Jits_Linear_8,3,1,48,35,1881263032
69,14,18,Jits_Linear_8,0,1,48,38,1881699408
69,14,18,Jits_Linear_8,1,5,63,98,1881735476
69,14,18,Jits_Linear_8,2,5,80,127,1881745896
69,14,18,Jits_Linear_8,3,5,56,103,1881806272
69,14,18,Jits_Linear_8,0,5,63,98,1882156572
69,14,18,Jits_Linear_8,1,5,80,127,1882215844
69,14,18,Jits_Linear_8,2,1,48,33,1882251476
69,14,18,Jits_Linear_8,3,5,56,103,1882255700
69,14,18,Jits_Linear_8,0,1,48,39,1882690904
69,14,18,Jits_Linear_8,1,5,56,103,1882755520
69,14,18,Jits_Linear_8,2,5,80,127,1882775904
69,14,18,Jits_Linear_8,3,5,63,98,1882796352
69,14,18,Jits_Linear_8,0,5,63,98,1883176392
69,14,18,Jits_Linear_8,1,5,56,103,1883195732
69,14,18,Jits_Linear_8,2,1,48,35,1883220348
69,14,18,Jits_Linear_8,3,5,80,127,1883235664
69,14,18,Jits_Linear_8,0,1,48,38,1883646640
69,14,18,Jits_Linear_8,1,5,63,98,1883686252
69,14,18,Jits_Linear_8,2,5,80,127,1883715928
69,14,18,Jits_Linear_8,3,5,56,103,1883736312
69,14,18,Jits_Linear_8,0,1,48,36,1884128340
69,14,18,Jits_Linear_8,1,5,80,127,1884156460
69,14,18,Jits_Linear_8,2,5,56,103,1884205492
69,14,18,Jits_Linear_8,3,5,63,98,1884265720
69,14,18,Jits_Linear_8,0,1,48,36,1884631832
69,14,18,Jits_Linear_8,1,5,63,98,1884635540
69,14,18,Jits_Linear_8,2,5,56,103,1884756252
69,14,18,Jits_Linear_8,3,5,80,127,1884786224
69,14,18,Jits_Linear_8,0,5,80,127,1885166236
69,14,18,Jits_Linear_8,1,1,48,30,1885183360
69,14,18,Jits_Linear_8,2,5,63,98,1885186468
69,14,18,Jits_Linear_8,3,5,56,103,1885256248
69,14,18,Jits_Linear_8,0,5,63,98,1885675972
69,14,18,Jits_Linear_8,1,1,48,33,1885680816
69,14,18,Jits_Linear_8,2,5,56,103,1885686236
69,14,18,Jits_Linear_8,3,5,80,127,1885766204
69,14,18,Jits_Linear_8,0,1,48,33,1886156668
69,14,18,Jits_Linear_8,1,5,56,103,1886225776
69,14,18,Jits_Linear_8,2,5,80,127,1886255464
69,14,18,Jits_Linear_8,3,5,63,98,1886265808
69,14,18,Jits_Linear_8,0,9999,9999,9999,1775863888
69,14,18,Jits_Linear_8,1,9999,9999,9999,1776683100
69,14,18,Jits_Linear_8,2,9999,9999,9999,1777503356
69,14,18,Jits_Linear_8,3,9999,9999,9999,1778323536
69,14,18,Jits_Linear_8,4,9999,9999,9999,1779143784
69,14,18,Jits_Linear_8,5,9999,9999,9999,1779953764
69,14,18,Jits_Linear_8,6,9999,9999,9999,1780763732
69,14,18,Jits_Linear_8,7,9999,9999,9999,1781573712
69,14,18,Jits_Linear_8,8,9999,9999,9999,1782383732
69,14,18,Jits_Linear_8,9,9999,9999,9999,1783193664
69,14,18,Jits_Linear_8,10,9999,9999,9999,1783993440
69,14,18,Jits_Linear_8,11,9999,9999,9999,1784793192
69,14,18,Jits_Linear_8,12,9999,9999,9999,1785593920
69,14,18,Jits_Linear_8,13,9999,9999,9999,1786393676
69,14,18,Jits_Linear_8,14,9999,9999,9999,1787193432
69,14,18,Jits_Linear_8,15,9999,9999,9999,1787983960
69,14,18,Jits_Linear_8,16,9999,9999,9999,1788773436
69,14,18,Jits_Linear_8,17,9999,9999,9999,1789563980
69,14,18,Jits_Linear_8,18,9999,9999,9999,1790353476
69,14,18,Jits_Linear_8,19,9999,9999,9999,1791144032
69,14,18,Jits_Linear_8,20,9999,9999,9999,1791923256
69,14,18,Jits_Linear_8,21,9999,9999,9999,1792703604
69,14,18,Jits_Linear_8,22,9999,9999,9999,1793483872
69,14,18,Jits_Linear_8,23,9999,9999,9999,1794263096
69,14,18,Jits_Linear_8,24,9999,9999,9999,1795043444
69,14,18,Jits_Linear_8,25,9999,9999,9999,1795813452
69,14,18,Jits_Linear_8,26,9999,9999,9999,1796583540
69,14,18,Jits_Linear_8,27,9999,9999,9999,1797353552
69,14,18,Jits_Linear_8,28,9999,9999,9999,1798123632
69,14,18,Jits_Linear_8,29,9999,9999,9999,1798893652
69,14,18,Jits_Linear_8,30,9999,9999,9999,1799653468
69,14,18,Jits_Linear_8,31,9999,9999,9999,1800413292
69,14,18,Jits_Linear_8,32,9999,9999,9999,1801174084
69,14,18,Jits_Linear_8,33,9999,9999,9999,1801943132
69,14,18,Jits_Linear_8,34,9999,9999,9999,1802704000
69,14,18,Jits_Linear_8,35,9999,9999,9999,1803453496
69,14,18,Jits_Linear_8,36,9999,9999,9999,1804203132
69,14,18,Jits_Linear_8,37,9999,9999,9999,1804953680
69,14,18,Jits_Linear_8,38,9999,9999,9999,1805703248
69,14,18,Jits_Linear_8,39,9999,9999,9999,1806453872
69,14,18,Jits_Linear_8,40,9999,9999,9999,1807193172
69,14,18,Jits_Linear_8,41,9999,9999,9999,1807933528
69,14,18,Jits_Linear_8,42,9999,9999,9999,1808673864
69,14,18,Jits_Linear_8,43,9999,9999,9999,1809413196
69,14,18,Jits_Linear_8,44,9999,9999,9999,1810153592
69,14,18,Jits_Linear_8,45,9999,9999,9999,1810883676
69,14,18,Jits_Linear_8,46,9999,9999,9999,1811613756
69,14,18,Jits_Linear_8,47,9999,9999,9999,1812343920
69,14,18,Jits_Linear_8,48,9999,9999,9999,1813074012
69,14,18,Jits_Linear_8,49,9999,9999,9999,1813803112
69,14,18,Jits_Linear_8,50,9999,9999,9999,1814524028
69,14,18,Jits_Linear_8,51,9999,9999,9999,1815243840
69,14,18,Jits_Linear_8,52,9999,9999,9999,1815963732
69,14,18,Jits_Linear_8,53,9999,9999,9999,1816683628
69,14,18,Jits_Linear_8,54,9999,9999,9999,1817403516
69,14,18,Jits_Linear_8,55,9999,9999,9999,1818113116
69,14,18,Jits_Linear_8,56,9999,9999,9999,1818823788
69,14,18,Jits_Linear_8,57,9999,9999,9999,1819533416
69,14,18,Jits_Linear_8,58,9999,9999,9999,1820244088
69,14,18,Jits_Linear_8,59,9999,9999,9999,1820953692
69,14,18,Jits_Linear_8,60,9999,9999,9999,1821654096
69,14,18,Jits_Linear_8,61,9999,9999,9999,1822363740
69,14,18,Jits_Linear_8,62,9999,9999,9999,1823063116
69,14,18,Jits_Linear_8,63,9999,9999,9999,1823763564
69,14,18,Jits_Linear_8,64,9999,9999,9999,1824463988
69,14,18,Jits_Linear_8,65,9999,9999,9999,1825153088
69,14,18,Jits_Linear_8,66,9999,9999,9999,1825843260
69,14,18,Jits_Linear_8,67,9999,9999,9999,1826533460
69,14,18,Jits_Linear_8,68,9999,9999,9999,1827223612
69,14,18,Jits_Linear_8,69,9999,9999,9999,1827913844
69,14,18,Jits_Linear_8,70,9999,9999,9999,1828593788
69,14,18,Jits_Linear_8,71,9999,9999,9999,1829273680
69,14,18,Jits_Linear_8,72,9999,9999,9999,1829953636
69,14,18,Jits_Linear_8,73,9999,9999,9999,1830633584
69,14,18,Jits_Linear_8,74,9999,9999,9999,1831313492
69,14,18,Jits_Linear_8,75,9999,9999,9999,1831983192
69,14,18,Jits_Linear_8,76,9999,9999,9999,1832653924
69,14,18,Jits_Linear_8,77,9999,9999,9999,1833323632
69,14,18,Jits_Linear_8,78,9999,9999,9999,1833993316
69,14,18,Jits_Linear_8,79,9999,9999,9999,1834664000
69,14,18,Jits_Linear_8,80,9999,9999,9999,1835323508
69,14,18,Jits_Linear_8,81,9999,9999,9999,1835983960
69,14,18,Jits_Linear_8,82,9999,9999,9999,1836643392
69,14,18,Jits_Linear_8,83,9999,9999,9999,1837303916
69,14,18,Jits_Linear_8,84,9999,9999,9999,1837963336
69,14,18,Jits_Linear_8,85,9999,9999,9999,1838613616
69,14,18,Jits_Linear_8,86,9999,9999,9999,1839263828
69,14,18,Jits_Linear_8,87,9999,9999,9999,1839914040
69,14,18,Jits_Linear_8,88,9999,9999,9999,1840563252
69,14,18,Jits_Linear_8,89,9999,9999,9999,1841213552
69,14,18,Jits_Linear_8,90,9999,9999,9999,1841853564
69,14,18,Jits_Linear_8,91,9999,9999,9999,1842493516
69,14,18,Jits_Linear_8,92,9999,9999,9999,1843133548
69,14,18,Jits_Linear_8,93,9999,9999,9999,1843773552
69,14,18,Jits_Linear_8,94,9999,9999,9999,1844413500
69,14,18,Jits_Linear_8,95,9999,9999,9999,1845043284
69,14,18,Jits_Linear_8,96,9999,9999,9999,1845674084
69,14,18,Jits_Linear_8,97,9999,9999,9999,1846303848
69,14,18,Jits_Linear_8,98,9999,9999,9999,1846933600
69,14,18,Jits_Linear_8,99,9999,9999,9999,1847563344
69,14,18,Jits_Linear_8,100,9999,9999,9999,1848183880
69,14,18,Jits_Linear_8,101,9999,9999,9999,1848803432
69,14,18,Jits_Linear_8,102,9999,9999,9999,1849423984
69,14,18,Jits_Linear_8,103,9999,9999,9999,1850043456
69,14,18,Jits_Linear_8,104,9999,9999,9999,1850664016
69,14,18,Jits_Linear_8,105,9999,9999,9999,1851273308
69,14,18,Jits_Linear_8,106,9999,9999,9999,1851883636
69,14,18,Jits_Linear_8,107,9999,9999,9999,1852493900
69,14,18,Jits_Linear_8,108,9999,9999,9999,1853103184
69,14,18,Jits_Linear_8,109,9999,9999,9999,1853713516
69,14,18,Jits_Linear_8,110,9999,9999,9999,1854313536
69,14,18,Jits_Linear_8,111,9999,9999,9999,1854913612
69,14,18,Jits_Linear_8,112,9999,9999,9999,1855513688
69,14,18,Jits_Linear_8,113,9999,9999,9999,1856113792
69,14,18,Jits_Linear_8,114,9999,9999,9999,1856713784
69,14,18,Jits_Linear_8,115,9999,9999,9999,1857303660
69,14,18,Jits_Linear_8,116,9999,9999,9999,1857893492
69,14,18,Jits_Linear_8,117,9999,9999,9999,1858483308
69,14,18,Jits_Linear_8,118,9999,9999,9999,1859073116
69,14,18,Jits_Linear_8,119,9999,9999,9999,1859663992
69,14,18,Jits_Linear_8,120,9999,9999,9999,1860243544
69,14,18,Jits_Linear_8,121,9999,9999,9999,1860823164
69,14,18,Jits_Linear_8,122,9999,9999,9999,1861403744
69,14,18,Jits_Linear_8,123,9999,9999,9999,1861983296
69,14,18,Jits_Linear_8,124,9999,9999,9999,1862563968
69,14,18,Jits_Linear_8,125,9999,9999,9999,1863133240
69,14,18,Jits_Linear_8,126,9999,9999,9999,1863703632
69,14,18,Jits_Linear_8,127,9999,9999,9999,1864273984
69,14,18,Jits_Linear_8,128,9999,9999,9999,1864843340
69,14,18,Jits_Linear_8,129,9999,9999,9999,1865413756
69,14,18,Jits_Linear_8,130,9999,9999,9999,1865973844
69,14,18,Jits_Linear_8,131,9999,9999,9999,1866534008
69,14,18,Jits_Linear_8,132,9999,9999,9999,1867094080
69,14,18,Jits_Linear_8,133,9999,9999,9999,1867663440
69,14,18,Jits_Linear_8,134,9999,9999,9999,1868223580
69,14,18,Jits_Linear_8,135,9999,9999,9999,1868773444
69,14,18,Jits_Linear_8,136,9999,9999,9999,1869323392
69,14,18,Jits_Linear_8,137,9999,9999,9999,1869873216
69,14,18,Jits_Linear_8,138,9999,9999,9999,1870423104
69,14,18,Jits_Linear_8,139,9999,9999,9999,1870974036
69,14,18,Jits_Linear_8,140,9999,9999,9999,1871513728
69,14,18,Jits_Linear_8,141,9999,9999,9999,1872053336
69,14,18,Jits_Linear_8,142,9999,9999,9999,1872593988
69,14,18,Jits_Linear_8,143,9999,9999,9999,1873133672
69,14,18,Jits_Linear_8,144,9999,9999,9999,1873673280
69,14,18,Jits_Linear_8,145,9999,9999,9999,1874203756
69,14,18,Jits_Linear_8,146,9999,9999,9999,1874733136
69,14,18,Jits_Linear_8,147,9999,9999,9999,1875263596
69,14,18,Jits_Linear_8,148,9999,9999,9999,1875793984
69,14,18,Jits_Linear_8,149,9999,9999,9999,1876323404
69,14,18,Jits_Linear_8,150,9999,9999,9999,1876843612
69,14,18,Jits_Linear_8,151,9999,9999,9999,1877363824
69,14,18,Jits_Linear_8,152,9999,9999,9999,1877883976
69,14,18,Jits_Linear_8,153,9999,9999,9999,1878403136
69,14,18,Jits_Linear_8,154,9999,9999,9999,1878923352
69,14,18,Jits_Linear_8,155,9999,9999,9999,1879433300
69,14,18,Jits_Linear_8,156,9999,9999,9999,1879943256
69,14,18,Jits_Linear_8,157,9999,9999,9999,1880453200
69,14,18,Jits_Linear_8,158,9999,9999,9999,1880963148
69,14,18,Jits_Linear_8,159,9999,9999,9999,1881473100
69,14,18,Jits_Linear_8,160,9999,9999,9999,1881973848
69,14,18,Jits_Linear_8,161,9999,9999,9999,1882473528
69,14,18,Jits_Linear_8,162,9999,9999,9999,1882973292
69,14,18,Jits_Linear_8,163,9999,9999,9999,1883474012
69,14,18,Jits_Linear_8,164,9999,9999,9999,1883973692
69,14,18,Jits_Linear_8,165,9999,9999,9999,1884463184
69,14,18,Jits_Linear_8,166,9999,9999,9999,1884953704
69,14,18,Jits_Linear_8,167,9999,9999,9999,1885443188
69,14,18,Jits_Linear_8,168,9999,9999,9999,1885933668
69,14,18,Jits_Linear_8,169,9999,9999,9999,1886423096
69,15,19,Jits_Linear_5,0,5,56,103,1894705468
69,15,19,Jits_Linear_5,1,5,63,98,1894708564
69,15,19,Jits_Linear_5,2,5,80,127,1894711540
69,15,19,Jits_Linear_5,0,5,56,103,1895185976
69,15,19,Jits_Linear_5,1,5,63,98,1895188924
69,15,19,Jits_Linear_5,2,5,80,127,1895192124
69,15,19,Jits_Linear_5,0,5,56,103,1895676344
69,15,19,Jits_Linear_5,1,5,80,127,1895685496
69,15,19,Jits_Linear_5,2,5,63,98,1895705956
69,15,19,Jits_Linear_5,0,5,63,98,1896106324
69,15,19,Jits_Linear_5,1,5,80,127,1896136000
69,15,19,Jits_Linear_5,2,5,56,103,1896146272
69,15,19,Jits_Linear_5,0,5,80,127,1896646052
69,15,19,Jits_Linear_5,1,5,56,103,1896656324
69,15,19,Jits_Linear_5,2,5,63,98,1896686220
69,15,19,Jits_Linear_5,0,1,48,26,1897094372
69,15,19,Jits_Linear_5,1,5,63,98,1897126232
69,15,19,Jits_Linear_5,2,5,56,103,1897155984
69,15,19,Jits_Linear_5,3,5,80,127,1897166404
69,15,19,Jits_Linear_5,0,1,48,27,1897546332
69,15,19,Jits_Linear_5,1,5,56,103,1897565612
69,15,19,Jits_Linear_5,2,5,63,98,1897615968
69,15,19,Jits_Linear_5,3,5,80,127,1897636204
69,15,19,Jits_Linear_5,0,1,48,30,1898005760
69,15,19,Jits_Linear_5,1,5,80,127,1898056156
69,15,19,Jits_Linear_5,2,5,63,98,1898106124
69,15,19,Jits_Linear_5,3,5,56,103,1898146064
69,15,19,Jits_Linear_5,0,1,48,30,1898515040
69,15,19,Jits_Linear_5,1,5,56,103,1898545508
69,15,19,Jits_Linear_5,2,5,63,98,1898576232
69,15,19,Jits_Linear_5,3,5,80,127,1898645972
69,15,19,Jits_Linear_5,0,1,48,30,1899000256
69,15,19,Jits_Linear_5,1,5,56,103,1899036128
69,15,19,Jits_Linear_5,2,5,80,127,1899096432
69,15,19,Jits_Linear_5,3,5,63,98,1899126032
69,15,19,Jits_Linear_5,0,1,48,29,1899476948
69,15,19,Jits_Linear_5,1,5,56,103,1899535868
69,15,19,Jits_Linear_5,2,5,63,98,1899545992
69,15,19,Jits_Linear_5,3,5,80,127,1899585864
69,15,19,Jits_Linear_5,0,1,48,31,1899923204
69,15,19,Jits_Linear_5,1,5,63,98,1900026248
69,15,19,Jits_Linear_5,2,5,80,127,1900106000
69,15,19,Jits_Linear_5,3,5,56,103,1900116268
69,15,19,Jits_Linear_5,0,1,48,28,1900476480
69,15,19,Jits_Linear_5,1,5,63,98,1900576088
69,15,19,Jits_Linear_5,2,5,56,103,1900616028
69,15,19,Jits_Linear_5,3,5,80,127,1900619092
69,15,19,Jits_Linear_5,0,1,48,36,1900995340
69,15,19,Jits_Linear_5,1,5,56,103,1901036044
69,15,19,Jits_Linear_5,2,5,63,98,1901046092
69,15,19,Jits_Linear_5,3,5,80,127,1901087164
69,15,19,Jits_Linear_5,0,1,48,36,1901449832
69,15,19,Jits_Linear_5,1,5,56,103,1901526364
69,15,19,Jits_Linear_5,2,5,63,98,1901529428
69,15,19,Jits_Linear_5,3,5,80,127,1901545924
69,15,19,Jits_Linear_5,0,1,48,31,1901942384
69,15,19,Jits_Linear_5,1,5,80,127,1902045652
69,15,19,Jits_Linear_5,2,5,56,103,1902056072
69,15,19,Jits_Linear_5,3,5,63,98,1902125480
69,15,19,Jits_Linear_5,0,1,48,31,1902435716
69,15,19,Jits_Linear_5,1,5,63,98,1902555456
69,15,19,Jits_Linear_5,2,5,56,103,1902575916
69,15,19,Jits_Linear_5,3,5,80,127,1902655884
69,15,19,Jits_Linear_5,0,1,48,25,1902976460
69,15,19,Jits_Linear_5,1,5,56,103,1903076044
69,15,19,Jits_Linear_5,2,5,80,127,1903115984
69,15,19,Jits_Linear_5,3,5,63,98,1903126032
69,15,19,Jits_Linear_5,0,1,48,25,1903542372
69,15,19,Jits_Linear_5,1,5,80,127,1903576496
69,15,19,Jits_Linear_5,2,5,63,98,1903606024
69,15,19,Jits_Linear_5,3,5,56,103,1903646048
69,15,19,Jits_Linear_5,0,5,56,103,1904105936
69,15,19,Jits_Linear_5,1,5,63,98,1904135388
69,15,19,Jits_Linear_5,2,1,48,14,1904142696
69,15,19,Jits_Linear_5,3,5,80,127,1904185980
69,15,19,Jits_Linear_5,0,1,48,29,1904524168
69,15,19,Jits_Linear_5,1,5,80,127,1904626000
69,15,19,Jits_Linear_5,2,5,56,103,1904665864
69,15,19,Jits_Linear_5,3,5,63,98,1904676060
69,15,19,Jits_Linear_5,0,1,48,38,1905101136
69,15,19,Jits_Linear_5,1,5,80,127,1905126040
69,15,19,Jits_Linear_5,2,5,63,98,1905165832
69,15,19,Jits_Linear_5,3,5,56,103,1905226084
69,15,19,Jits_Linear_5,0,5,56,103,1905645892
69,15,19,Jits_Linear_5,1,1,48,43,1905652076
69,15,19,Jits_Linear_5,2,5,80,127,1905656304
69,15,19,Jits_Linear_5,3,5,63,98,1905736052
69,15,19,Jits_Linear_5,0,1,48,46,1906146460
69,15,19,Jits_Linear_5,1,5,80,127,1906166260
69,15,19,Jits_Linear_5,2,5,63,98,1906225560
69,15,19,Jits_Linear_5,3,5,56,103,1906256196
69,15,19,Jits_Linear_5,0,1,48,41,1906668244
69,15,19,Jits_Linear_5,1,5,56,103,1906686256
69,15,19,Jits_Linear_5,2,5,80,127,1906745924
69,15,19,Jits_Linear_5,3,5,63,98,1906785776
69,15,19,Jits_Linear_5,0,1,48,42,1907123368
69,15,19,Jits_Linear_5,1,5,56,103,1907265904
69,15,19,Jits_Linear_5,2,5,63,98,1907276172
69,15,19,Jits_Linear_5,3,5,80,127,1907279760
69,15,19,Jits_Linear_5,0,5,80,127,1907746196
69,15,19,Jits_Linear_5,1,1,48,35,1907765284
69,15,19,Jits_Linear_5,2,5,63,98,1907836332
69,15,19,Jits_Linear_5,3,5,56,103,1907845628
69,15,19,Jits_Linear_5,0,5,56,103,1908275476
69,15,19,Jits_Linear_5,1,5,63,98,1908278504
69,15,19,Jits_Linear_5,2,5,80,127,1908281924
69,15,19,Jits_Linear_5,3,1,48,42,1908297120
69,15,19,Jits_Linear_5,0,1,48,43,1908795672
69,15,19,Jits_Linear_5,1,5,80,127,1908835632
69,15,19,Jits_Linear_5,2,5,63,98,1908885840
69,15,19,Jits_Linear_5,3,5,56,103,1908915648
69,15,19,Jits_Linear_5,0,5,56,103,1909345668
69,15,19,Jits_Linear_5,1,5,80,127,1909356012
69,15,19,Jits_Linear_5,2,1,48,41,1909368872
69,15,19,Jits_Linear_5,3,5,63,98,1909425616
69,15,19,Jits_Linear_5,0,1,48,41,1909877852
69,15,19,Jits_Linear_5,1,5,56,103,1909886268
69,15,19,Jits_Linear_5,2,5,63,98,1909905684
69,15,19,Jits_Linear_5,3,5,80,127,1909966220
69,15,19,Jits_Linear_5,0,1,48,47,1910394696
69,15,19,Jits_Linear_5,1,5,80,127,1910415848
69,15,19,Jits_Linear_5,2,5,63,98,1910486356
69,15,19,Jits_Linear_5,3,5,56,103,1910505832
69,15,19,Jits_Linear_5,0,1,48,45,1910938436
69,15,19,Jits_Linear_5,1,5,80,127,1910975852
69,15,19,Jits_Linear_5,2,5,56,103,1910986124
69,15,19,Jits_Linear_5,3,5,63,98,1910996248
69,15,19,Jits_Linear_5,0,1,48,44,1911445992
69,15,19,Jits_Linear_5,1,5,80,127,1911506332
69,15,19,Jits_Linear_5,2,5,56,103,1911525892
69,15,19,Jits_Linear_5,3,5,63,98,1911596632
69,15,19,Jits_Linear_5,0,1,48,43,1912007192
69,15,19,Jits_Linear_5,1,5,56,103,1912056068
69,15,19,Jits_Linear_5,2,5,80,127,1912085820
69,15,19,Jits_Linear_5,3,5,63,98,1912106216
69,15,19,Jits_Linear_5,0,5,63,98,1912595848
69,15,19,Jits_Linear_5,1,1,48,32,1912606040
69,15,19,Jits_Linear_5,2,5,56,103,1912656188
69,15,19,Jits_Linear_5,3,5,80,127,1912686012
69,15,19,Jits_Linear_5,0,5,63,98,1913135720
69,15,19,Jits_Linear_5,1,5,80,127,1913139008
69,15,19,Jits_Linear_5,2,1,48,44,1913177424
69,15,19,Jits_Linear_5,3,5,56,103,1913225696
69,15,19,Jits_Linear_5,0,1,48,45,1913638512
69,15,19,Jits_Linear_5,1,5,56,103,1913705896
69,15,19,Jits_Linear_5,2,5,63,98,1913735636
69,15,19,Jits_Linear_5,3,5,80,127,1913775648
69,15,19,Jits_Linear_5,0,1,48,40,1914217772
69,15,19,Jits_Linear_5,1,5,63,98,1914255712
69,15,19,Jits_Linear_5,2,5,56,103,1914295652
69,15,19,Jits_Linear_5,3,5,80,127,1914316320
69,15,19,Jits_Linear_5,0,1,48,43,1914777628
69,15,19,Jits_Linear_5,1,5,63,98,1914815716
69,15,19,Jits_Linear_5,2,5,56,103,1914855808
69,15,19,Jits_Linear_5,3,5,80,127,1914866004
69,15,19,Jits_Linear_5,0,5,80,127,1915346204
69,15,19,Jits_Linear_5,1,1,48,44,1915374804
69,15,19,Jits_Linear_5,2,5,63,98,1915415884
69,15,19,Jits_Linear_5,3,5,56,103,1915436516
69,15,19,Jits_Linear_5,0,5,56,103,1915896104
69,15,19,Jits_Linear_5,1,1,48,37,1915897592
69,15,19,Jits_Linear_5,2,5,80,127,1915915660
69,15,19,Jits_Linear_5,3,5,63,98,1915955848
69,15,19,Jits_Linear_5,0,1,48,51,1916393432
69,15,19,Jits_Linear_5,1,5,63,98,1916465948
69,15,19,Jits_Linear_5,2,5,80,127,1916485960
69,15,19,Jits_Linear_5,3,5,56,103,1916525960
69,15,19,Jits_Linear_5,0,1,48,47,1916965832
69,15,19,Jits_Linear_5,1,5,63,98,1917025724
69,15,19,Jits_Linear_5,2,5,56,103,1917046256
69,15,19,Jits_Linear_5,3,5,80,127,1917056600
69,15,19,Jits_Linear_5,0,1,48,43,1917530764
69,15,19,Jits_Linear_5,1,5,80,127,1917585792
69,15,19,Jits_Linear_5,2,5,56,103,1917606548
69,15,19,Jits_Linear_5,3,5,63,98,1917635988
69,15,19,Jits_Linear_5,0,1,48,41,1918094744
69,15,19,Jits_Linear_5,1,5,56,103,1918225868
69,15,19,Jits_Linear_5,2,5,80,127,1918229008
69,15,19,Jits_Linear_5,3,5,63,98,1918246352
69,15,19,Jits_Linear_5,0,5,63,98,1918716136
69,15,19,Jits_Linear_5,1,5,56,103,1918745960
69,15,19,Jits_Linear_5,2,1,48,35,1918761984
69,15,19,Jits_Linear_5,3,5,80,127,1918806744
69,15,19,Jits_Linear_5,0,1,48,33,1919260988
69,15,19,Jits_Linear_5,1,5,63,98,1919365456
69,15,19,Jits_Linear_5,2,5,56,103,1919375652
69,15,19,Jits_Linear_5,3,5,80,127,1919385848
69,15,19,Jits_Linear_5,0,1,48,42,1919880036
69,15,19,Jits_Linear_5,1,5,56,103,1919885688
69,15,19,Jits_Linear_5,2,5,80,127,1919916560
69,15,19,Jits_Linear_5,3,5,63,98,1919925636
69,15,19,Jits_Linear_5,0,1,48,42,1920451348
69,15,19,Jits_Linear_5,1,5,63,98,1920495964
69,15,19,Jits_Linear_5,2,5,56,103,1920506236
69,15,19,Jits_Linear_5,3,5,80,127,1920525724
69,15,19,Jits_Linear_5,0,5,56,103,1920995664
69,15,19,Jits_Linear_5,1,5,63,98,1921056080
69,15,19,Jits_Linear_5,2,5,80,127,1921059444
69,15,19,Jits_Linear_5,3,1,48,45,1921096436
69,15,19,Jits_Linear_5,0,1,48,41,1921588324
69,15,19,Jits_Linear_5,1,5,80,127,1921595696
69,15,19,Jits_Linear_5,2,5,56,103,1921606112
69,15,19,Jits_Linear_5,3,5,63,98,1921675572
69,15,19,Jits_Linear_5,0,1,48,29,1922151384
69,15,19,Jits_Linear_5,1,5,80,127,1922166104
69,15,19,Jits_Linear_5,2,5,56,103,1922235640
69,15,19,Jits_Linear_5,3,5,63,98,1922246044
69,15,19,Jits_Linear_5,0,1,48,40,1922759560
69,15,19,Jits_Linear_5,1,5,63,98,1922785592
69,15,19,Jits_Linear_5,2,5,56,103,1922795936
69,15,19,Jits_Linear_5,3,5,80,127,1922816544
69,15,19,Jits_Linear_5,0,1,48,39,1923293104
69,15,19,Jits_Linear_5,1,5,80,127,1923316072
69,15,19,Jits_Linear_5,2,5,63,98,1923375372
69,15,19,Jits_Linear_5,3,5,56,103,1923416564
69,15,19,Jits_Linear_5,0,1,48,43,1923887612
69,15,19,Jits_Linear_5,1,5,56,103,1923945780
69,15,19,Jits_Linear_5,2,5,63,98,1923955976
69,15,19,Jits_Linear_5,3,5,80,127,1923995976
69,15,19,Jits_Linear_5,0,1,48,40,1924443104
69,15,19,Jits_Linear_5,1,5,56,103,1924495664
69,15,19,Jits_Linear_5,2,5,80,127,1924525564
69,15,19,Jits_Linear_5,3,5,63,98,1924575604
69,15,19,Jits_Linear_5,0,1,48,40,1925024248
69,15,19,Jits_Linear_5,1,5,56,103,1925125480
69,15,19,Jits_Linear_5,2,5,63,98,1925165592
69,15,19,Jits_Linear_5,3,5,80,127,1925168804
69,15,19,Jits_Linear_5,0,1,48,47,1925617572
69,15,19,Jits_Linear_5,1,5,56,103,1925716436
69,15,19,Jits_Linear_5,2,5,63,98,1925725512
69,15,19,Jits_Linear_5,3,5,80,127,1925746044
69,15,19,Jits_Linear_5,0,1,48,45,1926227052
69,15,19,Jits_Linear_5,1,5,56,103,1926266404
69,15,19,Jits_Linear_5,2,5,80,127,1926269544
69,15,19,Jits_Linear_5,3,5,63,98,1926306492
69,15,19,Jits_Linear_5,0,1,48,44,1926708128
69,15,19,Jits_Linear_5,1,5,63,98,1926896060
69,15,19,Jits_Linear_5,2,5,56,103,1926925812
69,15,19,Jits_Linear_5,3,5,80,127,1926946520
69,15,19,Jits_Linear_5,0,1,48,38,1927438064
69,15,19,Jits_Linear_5,1,5,80,127,1927466440
69,15,19,Jits_Linear_5,2,5,56,103,1927475664
69,15,19,Jits_Linear_5,3,5,63,98,1927485784
69,15,19,Jits_Linear_5,0,5,56,103,1928066524
69,15,19,Jits_Linear_5,1,5,80,127,1928106388
69,15,19,Jits_Linear_5,2,1,48,41,1928110928
69,15,19,Jits_Linear_5,3,5,63,98,1928135912
69,15,19,Jits_Linear_5,0,1,48,25,1928672048
69,15,19,Jits_Linear_5,1,5,63,98,1928675680
69,15,19,Jits_Linear_5,2,5,80,127,1928685880
69,15,19,Jits_Linear_5,3,5,56,103,1928696448
69,15,19,Jits_Linear_5,0,1,48,41,1929239388
69,15,19,Jits_Linear_5,1,5,56,103,1929256600
69,15,19,Jits_Linear_5,2,5,63,98,1929325840
69,15,19,Jits_Linear_5,3,5,80,127,1929336332
69,15,19,Jits_Linear_5,0,1,48,45,1929795824
69,15,19,Jits_Linear_5,1,5,80,127,1929865528
69,15,19,Jits_Linear_5,2,5,56,103,1929875800
69,15,19,Jits_Linear_5,3,5,63,98,1929926060
69,15,19,Jits_Linear_5,0,1,48,44,1930397096
69,15,19,Jits_Linear_5,1,5,80,127,1930486060
69,15,19,Jits_Linear_5,2,5,56,103,1930545492
69,15,19,Jits_Linear_5,3,5,63,98,1930576436
69,15,19,Jits_Linear_5,0,1,48,40,1931023168
69,15,19,Jits_Linear_5,1,5,56,103,1931096508
69,15,19,Jits_Linear_5,2,5,80,127,1931099496
69,15,19,Jits_Linear_5,3,5,63,98,1931136504
69,15,19,Jits_Linear_5,0,1,48,44,1931585816
69,15,19,Jits_Linear_5,1,5,56,103,1931736420
69,15,19,Jits_Linear_5,2,5,63,98,1931766324
69,15,19,Jits_Linear_5,3,5,80,127,1931776372
69,15,19,Jits_Linear_5,0,1,48,37,1932284500
69,15,19,Jits_Linear_5,1,5,63,98,1932355880
69,15,19,Jits_Linear_5,2,5,80,127,1932366148
69,15,19,Jits_Linear_5,3,5,56,103,1932376628
69,15,19,Jits_Linear_5,0,5,80,127,1932916332
69,15,19,Jits_Linear_5,1,1,48,41,1932927248
69,15,19,Jits_Linear_5,2,5,56,103,1932966304
69,15,19,Jits_Linear_5,3,5,63,98,1932969444
69,15,19,Jits_Linear_5,0,5,56,103,1933566392
69,15,19,Jits_Linear_5,1,1,48,36,1933577904
69,15,19,Jits_Linear_5,2,5,80,127,1933585800
69,15,19,Jits_Linear_5,3,5,63,98,1933595948
69,15,19,Jits_Linear_5,0,5,63,98,1934166364
69,15,19,Jits_Linear_5,1,1,48,36,1934171124
69,15,19,Jits_Linear_5,2,5,56,103,1934196332
69,15,19,Jits_Linear_5,3,5,80,127,1934215448
69,15,19,Jits_Linear_5,0,1,48,33,1934739732
69,15,19,Jits_Linear_5,1,5,56,103,1934796256
69,15,19,Jits_Linear_5,2,5,80,127,1934806452
69,15,19,Jits_Linear_5,3,5,63,98,1934876296
69,15,19,Jits_Linear_5,0,1,48,33,1935380728
69,15,19,Jits_Linear_5,1,5,63,98,1935405360
69,15,19,Jits_Linear_5,2,5,80,127,1935446348
69,15,19,Jits_Linear_5,3,5,56,103,1935486268
69,15,19,Jits_Linear_5,0,5,56,103,1936045456
69,15,19,Jits_Linear_5,1,5,63,98,1936055652
69,15,19,Jits_Linear_5,2,5,80,127,1936076332
69,15,19,Jits_Linear_5,3,1,48,41,1936080424
69,15,19,Jits_Linear_5,0,5,63,98,1936716296
69,15,19,Jits_Linear_5,1,5,80,127,1936735636
69,15,19,Jits_Linear_5,2,1,48,44,1936741972
69,15,19,Jits_Linear_5,3,5,56,103,1936756312
69,15,19,Jits_Linear_5,0,5,56,103,1937295700
69,15,19,Jits_Linear_5,1,1,48,42,1937354124
69,15,19,Jits_Linear_5,2,5,80,127,1937375720
69,15,19,Jits_Linear_5,3,5,63,98,1937385916
69,15,19,Jits_Linear_5,0,1,48,48,1937914128
69,15,19,Jits_Linear_5,1,5,80,127,1937975612
69,15,19,Jits_Linear_5,2,5,63,98,1937986108
69,15,19,Jits_Linear_5,3,5,56,103,1938015544
69,15,19,Jits_Linear_5,0,1,48,45,1938539772
69,15,19,Jits_Linear_5,1,5,63,98,1938575844
69,15,19,Jits_Linear_5,2,5,80,127,1938615708
69,15,19,Jits_Linear_5,3,5,56,103,1938676160
69,15,19,Jits_Linear_5,0,5,63,98,1939236268
69,15,19,Jits_Linear_5,1,1,48,35,1939243148
69,15,19,Jits_Linear_5,2,5,56,103,1939286392
69,15,19,Jits_Linear_5,3,5,80,127,1939316216
69,15,19,Jits_Linear_5,0,1,48,40,1939858268
69,15,19,Jits_Linear_5,1,5,80,127,1939885348
69,15,19,Jits_Linear_5,2,5,63,98,1939895768
69,15,19,Jits_Linear_5,3,5,56,103,1939966260
69,15,19,Jits_Linear_5,0,1,48,21,1940590620
69,15,19,Jits_Linear_5,1,5,80,127,1940596192
69,15,19,Jits_Linear_5,2,5,56,103,1940606236
69,15,19,Jits_Linear_5,3,5,63,98,1940609456
69,15,19,Jits_Linear_5,0,5,56,103,1941175600
69,15,19,Jits_Linear_5,1,5,80,127,1941196208
69,15,19,Jits_Linear_5,2,5,63,98,1941206332
69,15,19,Jits_Linear_5,3,1,48,43,1941219416
69,15,19,Jits_Linear_5,0,1,48,40,1941747792
69,15,19,Jits_Linear_5,1,5,63,98,1941826136
69,15,19,Jits_Linear_5,2,5,56,103,1941865764
69,15,19,Jits_Linear_5,3,5,80,127,1941886448
69,15,19,Jits_Linear_5,0,1,48,41,1942396380
69,15,19,Jits_Linear_5,1,5,63,98,1942466156
69,15,19,Jits_Linear_5,2,5,56,103,1942526308
69,15,19,Jits_Linear_5,3,5,80,127,1942529448
69,15,19,Jits_Linear_5,0,5,56,103,1943085368
69,15,19,Jits_Linear_5,1,1,48,38,1943091924
69,15,19,Jits_Linear_5,2,5,80,127,1943106044
69,15,19,Jits_Linear_5,3,5,63,98,1943146056
69,15,19,Jits_Linear_5,0,1,48,39,1943730144
69,15,19,Jits_Linear_5,1,5,56,103,1943766368
69,15,19,Jits_Linear_5,2,5,63,98,1943785784
69,15,19,Jits_Linear_5,3,5,80,127,1943796052
69,15,19,Jits_Linear_5,0,1,48,39,1944345624
69,15,19,Jits_Linear_5,1,5,80,127,1944386028
69,15,19,Jits_Linear_5,2,5,56,103,1944415480
69,15,19,Jits_Linear_5,3,5,63,98,1944455552
69,15,19,Jits_Linear_5,0,1,48,42,1945028636
69,15,19,Jits_Linear_5,1,5,80,127,1945046268
69,15,19,Jits_Linear_5,2,5,56,103,1945066276
69,15,19,Jits_Linear_5,3,5,63,98,1945126308
69,15,19,Jits_Linear_5,0,1,48,40,1945663892
69,15,19,Jits_Linear_5,1,5,56,103,1945706088
69,15,19,Jits_Linear_5,2,5,80,127,1945726328
69,15,19,Jits_Linear_5,3,5,63,98,1945785732
69,15,19,Jits_Linear_5,0,5,80,127,1946346108
69,15,19,Jits_Linear_5,1,5,56,103,1946356008
69,15,19,Jits_Linear_5,2,1,48,41,1946374568
69,15,19,Jits_Linear_5,3,5,63,98,1946396264
69,15,19,Jits_Linear_5,0,1,48,35,1946960944
69,15,19,Jits_Linear_5,1,5,63,98,1947006456
69,15,19,Jits_Linear_5,2,5,56,103,1947046392
69,15,19,Jits_Linear_5,3,5,80,127,1947049608
69,15,19,Jits_Linear_5,0,1,48,37,1947650396
69,15,19,Jits_Linear_5,1,5,63,98,1947686192
69,15,19,Jits_Linear_5,2,5,80,127,1947726132
69,15,19,Jits_Linear_5,3,5,56,103,1947756016
69,15,19,Jits_Linear_5,0,1,48,35,1948219928
69,15,19,Jits_Linear_5,1,5,56,103,1948335480
69,15,19,Jits_Linear_5,2,5,63,98,1948346124
69,15,19,Jits_Linear_5,3,5,80,127,1948376476
69,15,19,Jits_Linear_5,0,1,48,32,1948955580
69,15,19,Jits_Linear_5,1,5,80,127,1948995916
69,15,19,Jits_Linear_5,2,5,63,98,1949065584
69,15,19,Jits_Linear_5,3,5,56,103,1949075928
69,15,19,Jits_Linear_5,0,1,48,35,1949663164
69,15,19,Jits_Linear_5,1,5,63,98,1949665676
69,15,19,Jits_Linear_5,2,5,56,103,1949736432
69,15,19,Jits_Linear_5,3,5,80,127,1949745508
69,15,19,Jits_Linear_5,0,5,63,98,1950336368
69,15,19,Jits_Linear_5,1,5,56,103,1950356080
69,15,19,Jits_Linear_5,2,5,80,127,1950395868
69,15,19,Jits_Linear_5,3,1,48,23,1950457948
69,15,19,Jits_Linear_5,0,1,48,33,1950976124
69,15,19,Jits_Linear_5,1,5,56,103,1951016332
69,15,19,Jits_Linear_5,2,5,63,98,1951025480
69,15,19,Jits_Linear_5,3,5,80,127,1951106604
69,15,19,Jits_Linear_5,0,1,48,43,1951617876
69,15,19,Jits_Linear_5,1,5,63,98,1951675972
69,15,19,Jits_Linear_5,2,5,56,103,1951705500
69,15,19,Jits_Linear_5,3,5,80,127,1951746472
69,15,19,Jits_Linear_5,0,5,56,103,1952345392
69,15,19,Jits_Linear_5,1,1,48,40,1952369332
69,15,19,Jits_Linear_5,2,5,63,98,1952386296
69,15,19,Jits_Linear_5,3,5,80,127,1952426312
69,15,19,Jits_Linear_5,0,5,80,127,1953026396
69,15,19,Jits_Linear_5,1,1,48,38,1953066780
69,15,19,Jits_Linear_5,2,5,56,103,1953106216
69,15,19,Jits_Linear_5,3,5,63,98,1953115512
69,15,19,Jits_Linear_5,0,5,56,103,1953746392
69,15,19,Jits_Linear_5,1,5,63,98,1953749608
69,15,19,Jits_Linear_5,2,5,80,127,1953755468
69,15,19,Jits_Linear_5,3,1,48,42,1953784964
69,15,19,Jits_Linear_5,0,1,48,40,1954372612
69,15,19,Jits_Linear_5,1,5,56,103,1954445700
69,15,19,Jits_Linear_5,2,5,63,98,1954466144
69,15,19,Jits_Linear_5,3,5,80,127,1954476488
69,15,19,Jits_Linear_5,0,1,48,33,1955073560
69,15,19,Jits_Linear_5,1,5,63,98,1955095980
69,15,19,Jits_Linear_5,2,5,80,127,1955106128
69,15,19,Jits_Linear_5,3,5,56,103,1955125612
69,15,19,Jits_Linear_5,0,1,48,36,1955713816
69,15,19,Jits_Linear_5,1,5,63,98,1955786064
69,15,19,Jits_Linear_5,2,5,56,103,1955865948
69,15,19,Jits_Linear_5,3,5,80,127,1955869088
69,15,19,Jits_Linear_5,0,1,48,32,1956419996
69,15,19,Jits_Linear_5,1,5,63,98,1956476368
69,15,19,Jits_Linear_5,2,5,56,103,1956495856
69,15,19,Jits_Linear_5,3,5,80,127,1956525520
69,15,19,Jits_Linear_5,0,1,48,35,1957156688
69,15,19,Jits_Linear_5,1,5,56,103,1957165408
69,15,19,Jits_Linear_5,2,5,63,98,1957185868
69,15,19,Jits_Linear_5,3,5,80,127,1957196216
69,15,19,Jits_Linear_5,0,1,48,35,1957864288
69,15,19,Jits_Linear_5,1,5,56,103,1957886264
69,15,19,Jits_Linear_5,2,5,63,98,1957915964
69,15,19,Jits_Linear_5,3,5,80,127,1957919252
69,15,19,Jits_Linear_5,0,5,56,103,1958526304
69,15,19,Jits_Linear_5,1,1,48,29,1958565112
69,15,19,Jits_Linear_5,2,5,63,98,1958566756
69,15,19,Jits_Linear_5,3,5,80,127,1958625728
69,15,19,Jits_Linear_5,0,1,48,33,1959186604
69,15,19,Jits_Linear_5,1,5,56,103,1959236028
69,15,19,Jits_Linear_5,2,5,63,98,1959246152
69,15,19,Jits_Linear_5,3,5,80,127,1959305852
69,15,19,Jits_Linear_5,0,1,48,26,1959856984
69,15,19,Jits_Linear_5,1,5,56,103,1959936280
69,15,19,Jits_Linear_5,2,5,80,127,1959957024
69,15,19,Jits_Linear_5,3,5,63,98,1959985680
69,15,19,Jits_Linear_5,0,1,48,35,1960587528
69,15,19,Jits_Linear_5,1,5,80,127,1960635808
69,15,19,Jits_Linear_5,2,5,56,103,1960646076
69,15,19,Jits_Linear_5,3,5,63,98,1960665712
69,15,19,Jits_Linear_5,0,1,48,34,1961314408
69,15,19,Jits_Linear_5,1,5,63,98,1961325964
69,15,19,Jits_Linear_5,2,5,80,127,1961405764
69,15,19,Jits_Linear_5,3,5,56,103,1961416020
69,15,19,Jits_Linear_5,0,1,48,39,1962030408
69,15,19,Jits_Linear_5,1,5,80,127,1962085808
69,15,19,Jits_Linear_5,2,5,56,103,1962106192
69,15,19,Jits_Linear_5,3,5,63,98,1962109332
69,15,19,Jits_Linear_5,0,5,63,98,1962765756
69,15,19,Jits_Linear_5,1,5,80,127,1962768896
69,15,19,Jits_Linear_5,2,1,48,28,1962794900
69,15,19,Jits_Linear_5,3,5,56,103,1962826088
69,15,19,Jits_Linear_5,0,5,56,103,1963455836
69,15,19,Jits_Linear_5,1,5,80,127,1963466108
69,15,19,Jits_Linear_5,2,1,48,28,1963474556
69,15,19,Jits_Linear_5,3,5,63,98,1963506040
69,15,19,Jits_Linear_5,0,1,48,30,1964135500
69,15,19,Jits_Linear_5,1,5,56,103,1964146156
69,15,19,Jits_Linear_5,2,5,63,98,1964205504
69,15,19,Jits_Linear_5,3,5,80,127,1964215776
69,15,19,Jits_Linear_5,0,1,48,29,1964827524
69,15,19,Jits_Linear_5,1,5,63,98,1964865840
69,15,19,Jits_Linear_5,2,5,80,127,1964905784
69,15,19,Jits_Linear_5,3,5,56,103,1964945632
69,15,19,Jits_Linear_5,0,1,48,32,1965558568
69,15,19,Jits_Linear_5,1,5,56,103,1965585724
69,15,19,Jits_Linear_5,2,5,63,98,1965665680
69,15,19,Jits_Linear_5,3,5,80,127,1965669044
69,15,19,Jits_Linear_5,0,1,48,35,1966260340
69,15,19,Jits_Linear_5,1,5,80,127,1966355752
69,15,19,Jits_Linear_5,2,5,56,103,1966385736
69,15,19,Jits_Linear_5,3,5,63,98,1966388800
69,15,19,Jits_Linear_5,0,1,48,38,1967029988
69,15,19,Jits_Linear_5,1,5,56,103,1967035788
69,15,19,Jits_Linear_5,2,5,80,127,1967056176
69,15,19,Jits_Linear_5,3,5,63,98,1967096116
69,15,19,Jits_Linear_5,0,5,80,127,1967736220
69,15,19,Jits_Linear_5,1,5,63,98,1967755780
69,15,19,Jits_Linear_5,2,1,48,40,1967775164
69,15,19,Jits_Linear_5,3,5,56,103,1967816016
69,15,19,Jits_Linear_5,0,5,63,98,1968466476
69,15,19,Jits_Linear_5,1,5,56,103,1968475624
69,15,19,Jits_Linear_5,2,1,48,38,1968488560
69,15,19,Jits_Linear_5,3,5,80,127,1968525596
69,15,19,Jits_Linear_5,0,5,56,103,1969186452
69,15,19,Jits_Linear_5,1,5,63,98,1969205568
69,15,19,Jits_Linear_5,2,5,80,127,1969215984
69,15,19,Jits_Linear_5,3,1,48,37,1969219632
69,15,19,Jits_Linear_5,0,5,56,103,1969905968
69,15,19,Jits_Linear_5,1,5,63,98,1969909032
69,15,19,Jits_Linear_5,2,5,80,127,1969925604
69,15,19,Jits_Linear_5,3,1,48,24,1969938688
69,15,19,Jits_Linear_5,0,1,48,40,1970648836
69,15,19,Jits_Linear_5,1,5,63,98,1970676064
69,15,19,Jits_Linear_5,2,5,56,103,1970705816
69,15,19,Jits_Linear_5,3,5,80,127,1970735520
69,15,19,Jits_Linear_5,0,1,48,46,1971263640
69,15,19,Jits_Linear_5,1,5,80,127,1971366216
69,15,19,Jits_Linear_5,2,5,56,103,1971456648
69,15,19,Jits_Linear_5,3,5,63,98,1971459712
69,15,19,Jits_Linear_5,0,1,48,36,1972022776
69,15,19,Jits_Linear_5,1,5,56,103,1972096688
69,15,19,Jits_Linear_5,2,5,80,127,1972099600
69,15,19,Jits_Linear_5,3,5,63,98,1972176388
69,15,19,Jits_Linear_5,0,5,80,127,1972825648
69,15,19,Jits_Linear_5,1,1,48,34,1972856716
69,15,19,Jits_Linear_5,2,5,63,98,1972885816
69,15,19,Jits_Linear_5,3,5,56,103,1972915492
69,15,19,Jits_Linear_5,0,5,63,98,1973555536
69,15,19,Jits_Linear_5,1,5,80,127,1973566028
69,15,19,Jits_Linear_5,2,1,48,30,1973600392
69,15,19,Jits_Linear_5,3,5,56,103,1973635632
69,15,19,Jits_Linear_5,0,1,48,32,1974287812
69,15,19,Jits_Linear_5,1,5,56,103,1974316484
69,15,19,Jits_Linear_5,2,5,80,127,1974346088
69,15,19,Jits_Linear_5,3,5,63,98,1974396200
69,15,19,Jits_Linear_5,0,1,48,30,1975000296
69,15,19,Jits_Linear_5,1,5,63,98,1975095656
69,15,19,Jits_Linear_5,2,5,56,103,1975126584
69,15,19,Jits_Linear_5,3,5,80,127,1975129576
69,15,19,Jits_Linear_5,0,1,48,38,1975775344
69,15,19,Jits_Linear_5,1,5,63,98,1975836004
69,15,19,Jits_Linear_5,2,5,80,127,1975855568
69,15,19,Jits_Linear_5,3,5,56,103,1975865764
69,15,19,Jits_Linear_5,0,1,48,35,1976450360
69,15,19,Jits_Linear_5,1,5,56,103,1976585540
69,15,19,Jits_Linear_5,2,5,63,98,1976588680
69,15,19,Jits_Linear_5,3,5,80,127,1976606024
69,15,19,Jits_Linear_5,0,1,48,32,1977235672
69,15,19,Jits_Linear_5,1,5,56,103,1977285896
69,15,19,Jits_Linear_5,2,5,63,98,1977296464
69,15,19,Jits_Linear_5,3,5,80,127,1977325844
69,15,19,Jits_Linear_5,0,1,48,31,1977949120
69,15,19,Jits_Linear_5,1,5,63,98,1978055980
69,15,19,Jits_Linear_5,2,5,80,127,1978075544
69,15,19,Jits_Linear_5,3,5,56,103,1978115408
69,15,19,Jits_Linear_5,0,1,48,29,1978745232
69,15,19,Jits_Linear_5,1,5,56,103,1978836512
69,15,19,Jits_Linear_5,2,5,63,98,1978876436
69,15,19,Jits_Linear_5,3,5,80,127,1978879652
69,15,19,Jits_Linear_5,0,5,80,127,1979525476
69,15,19,Jits_Linear_5,1,1,48,33,1979558416
69,15,19,Jits_Linear_5,2,5,56,103,1979565336
69,15,19,Jits_Linear_5,3,5,63,98,1979615464
69,15,19,Jits_Linear_5,0,1,48,37,1980244836
69,15,19,Jits_Linear_5,1,5,56,103,1980335448
69,15,19,Jits_Linear_5,2,5,80,127,1980345852
69,15,19,Jits_Linear_5,3,5,63,98,1980376428
69,15,19,Jits_Linear_5,0,5,56,103,1981035880
69,15,19,Jits_Linear_5,1,1,48,29,1981060204
69,15,19,Jits_Linear_5,2,5,80,127,1981075816
69,15,19,Jits_Linear_5,3,5,63,98,1981126092
69,15,19,Jits_Linear_5,0,5,56,103,1981795580
69,15,19,Jits_Linear_5,1,1,48,35,1981825676
69,15,19,Jits_Linear_5,2,5,80,127,1981835516
69,15,19,Jits_Linear_5,3,5,63,98,1981885868
69,15,19,Jits_Linear_5,0,5,80,127,1982546440
69,15,19,Jits_Linear_5,1,1,48,32,1982550236
69,15,19,Jits_Linear_5,2,5,63,98,1982626088
69,15,19,Jits_Linear_5,3,5,56,103,1982636356
69,15,19,Jits_Linear_5,0,5,80,127,1983356420
69,15,19,Jits_Linear_5,1,1,48,27,1983359092
69,15,19,Jits_Linear_5,2,5,56,103,1983365340
69,15,19,Jits_Linear_5,3,5,63,98,1983385872
69,15,19,Jits_Linear_5,0,5,63,98,1984086380
69,15,19,Jits_Linear_5,1,1,48,29,1984112120
69,15,19,Jits_Linear_5,2,5,56,103,1984156056
69,15,19,Jits_Linear_5,3,5,80,127,1984158972
69,15,19,Jits_Linear_5,0,1,48,38,1984783352
69,15,19,Jits_Linear_5,1,5,80,127,1984846280
69,15,19,Jits_Linear_5,2,5,63,98,1984896396
69,15,19,Jits_Linear_5,3,5,56,103,1984936408
69,15,19,Jits_Linear_5,0,1,48,37,1985588332
69,15,19,Jits_Linear_5,1,5,63,98,1985656168
69,15,19,Jits_Linear_5,2,5,56,103,1985696168
69,15,19,Jits_Linear_5,3,5,80,127,1985706292
69,15,19,Jits_Linear_5,0,1,48,34,1986414200
69,15,19,Jits_Linear_5,1,5,63,98,1986415936
69,15,19,Jits_Linear_5,2,5,56,103,1986435424
69,15,19,Jits_Linear_5,3,5,80,127,1986455808
69,15,19,Jits_Linear_5,0,5,80,127,1987146260
69,15,19,Jits_Linear_5,1,1,48,36,1987154112
69,15,19,Jits_Linear_5,2,5,56,103,1987156224
69,15,19,Jits_Linear_5,3,5,63,98,1987175864
69,15,19,Jits_Linear_5,0,1,48,36,1987908996
69,15,19,Jits_Linear_5,1,5,63,98,1987945812
69,15,19,Jits_Linear_5,2,5,56,103,1987985752
69,15,19,Jits_Linear_5,3,5,80,127,1988015340
69,15,19,Jits_Linear_5,0,1,48,27,1988723076
69,15,19,Jits_Linear_5,1,5,56,103,1988726256
69,15,19,Jits_Linear_5,2,5,63,98,1988755712
69,15,19,Jits_Linear_5,3,5,80,127,1988785460
69,15,19,Jits_Linear_5,0,1,48,32,1989419456
69,15,19,Jits_Linear_5,1,5,80,127,1989475608
69,15,19,Jits_Linear_5,2,5,56,103,1989546396
69,15,19,Jits_Linear_5,3,5,63,98,1989549540
69,15,19,Jits_Linear_5,0,1,48,28,1990150928
69,15,19,Jits_Linear_5,1,5,56,103,1990266356
69,15,19,Jits_Linear_5,2,5,63,98,1990316416
69,15,19,Jits_Linear_5,3,5,80,127,1990346240
69,15,19,Jits_Linear_5,0,1,48,22,1991016224
69,15,19,Jits_Linear_5,1,5,63,98,1991026060
69,15,19,Jits_Linear_5,2,5,80,127,1991029424
69,15,19,Jits_Linear_5,3,5,56,103,1991085408
69,15,19,Jits_Linear_5,0,1,48,33,1991721344
69,15,19,Jits_Linear_5,1,5,56,103,1991836072
69,15,19,Jits_Linear_5,2,5,80,127,1991846196
69,15,19,Jits_Linear_5,3,5,63,98,1991896396
69,15,19,Jits_Linear_5,0,5,63,98,1992595784
69,15,19,Jits_Linear_5,1,1,48,29,1992600020
69,15,19,Jits_Linear_5,2,5,56,103,1992606196
69,15,19,Jits_Linear_5,3,5,80,127,1992635720
69,15,19,Jits_Linear_5,0,1,48,27,1993339388
69,15,19,Jits_Linear_5,1,5,63,98,1993416144
69,15,19,Jits_Linear_5,2,5,80,127,1993419432
69,15,19,Jits_Linear_5,3,5,56,103,1993445728
69,15,19,Jits_Linear_5,0,5,63,98,1994226100
69,15,19,Jits_Linear_5,1,5,56,103,1994245436
69,15,19,Jits_Linear_5,2,5,80,127,1994248652
69,15,19,Jits_Linear_5,0,1,48,28,1994965552
69,15,19,Jits_Linear_5,1,5,63,98,1994975616
69,15,19,Jits_Linear_5,2,5,56,103,1995046376
69,15,19,Jits_Linear_5,3,5,80,127,1995065700
69,15,19,Jits_Linear_5,0,5,56,103,1995756216
69,15,19,Jits_Linear_5,1,5,63,98,1995766412
69,15,19,Jits_Linear_5,2,1,48,24,1995845984
69,15,19,Jits_Linear_5,3,5,80,127,1995856268
69,15,19,Jits_Linear_5,0,1,48,33,1996494236
69,15,19,Jits_Linear_5,1,5,56,103,1996566108
69,15,19,Jits_Linear_5,2,5,80,127,1996605888
69,15,19,Jits_Linear_5,3,5,63,98,1996616232
69,15,19,Jits_Linear_5,0,1,48,38,1997236284
69,15,19,Jits_Linear_5,1,5,56,103,1997386244
69,15,19,Jits_Linear_5,2,5,63,98,1997415920
69,15,19,Jits_Linear_5,3,5,80,127,1997445376
69,15,19,Jits_Linear_5,0,1,48,31,1998063784
69,15,19,Jits_Linear_5,1,5,80,127,1998146092
69,15,19,Jits_Linear_5,2,5,63,98,1998186096
69,15,19,Jits_Linear_5,3,5,56,103,1998206408
69,15,19,Jits_Linear_5,0,1,48,27,1998868040
69,15,19,Jits_Linear_5,1,5,56,103,1998985488
69,15,19,Jits_Linear_5,2,5,80,127,1999006172
69,15,19,Jits_Linear_5,3,5,63,98,1999025436
69,15,19,Jits_Linear_5,0,1,48,31,1999632660
69,15,19,Jits_Linear_5,1,5,63,98,1999755732
69,15,19,Jits_Linear_5,2,5,56,103,1999766300
69,15,19,Jits_Linear_5,3,5,80,127,1999826248
69,15,19,Jits_Linear_5,0,1,48,36,2000449840
69,15,19,Jits_Linear_5,1,5,56,103,2000565916
69,15,19,Jits_Linear_5,2,5,63,98,2000636200
69,15,19,Jits_Linear_5,3,5,80,127,2000655912
69,15,19,Jits_Linear_5,0,1,48,30,2001330608
69,15,19,Jits_Linear_5,1,5,56,103,2001375520
69,15,19,Jits_Linear_5,2,5,63,98,2001406244
69,15,19,Jits_Linear_5,3,5,80,127,2001446196
69,15,19,Jits_Linear_5,0,1,48,31,2002130300
69,15,19,Jits_Linear_5,1,5,63,98,2002176336
69,15,19,Jits_Linear_5,2,5,56,103,2002225448
69,15,19,Jits_Linear_5,3,5,80,127,2002235924
69,15,19,Jits_Linear_5,0,1,48,29,2002897108
69,15,19,Jits_Linear_5,1,5,56,103,2003026240
69,15,19,Jits_Linear_5,2,5,63,98,2003075324
69,15,19,Jits_Linear_5,3,5,80,127,2003085964
69,15,19,Jits_Linear_5,0,1,48,29,2003711632
69,15,19,Jits_Linear_5,1,5,56,103,2003805632
69,15,19,Jits_Linear_5,2,5,63,98,2003816052
69,15,19,Jits_Linear_5,3,5,80,127,2003895996
69,15,19,Jits_Linear_5,0,9999,9999,9999,1894943848
69,15,19,Jits_Linear_5,1,9999,9999,9999,1895424064
69,15,19,Jits_Linear_5,2,9999,9999,9999,1895913532
69,15,19,Jits_Linear_5,3,9999,9999,9999,1896393784
69,15,19,Jits_Linear_5,4,9999,9999,9999,1896874104
69,15,19,Jits_Linear_5,5,9999,9999,9999,1897363560
69,15,19,Jits_Linear_5,6,9999,9999,9999,1897854032
69,15,19,Jits_Linear_5,7,9999,9999,9999,1898343532
69,15,19,Jits_Linear_5,8,9999,9999,9999,1898834000
69,15,19,Jits_Linear_5,9,9999,9999,9999,1899323500
69,15,19,Jits_Linear_5,10,9999,9999,9999,1899823188
69,15,19,Jits_Linear_5,11,9999,9999,9999,1900323924
69,15,19,Jits_Linear_5,12,9999,9999,9999,1900823660
69,15,19,Jits_Linear_5,13,9999,9999,9999,1901323340
69,15,19,Jits_Linear_5,14,9999,9999,9999,1901824060
69,15,19,Jits_Linear_5,15,9999,9999,9999,1902343228
69,15,19,Jits_Linear_5,16,9999,9999,9999,1902853180
69,15,19,Jits_Linear_5,17,9999,9999,9999,1903363132
69,15,19,Jits_Linear_5,18,9999,9999,9999,1903873084
69,15,19,Jits_Linear_5,19,9999,9999,9999,1904384084
69,15,19,Jits_Linear_5,20,9999,9999,9999,1904913508
69,15,19,Jits_Linear_5,21,9999,9999,9999,1905433720
69,15,19,Jits_Linear_5,22,9999,9999,9999,1905953880
69,15,19,Jits_Linear_5,23,9999,9999,9999,1906474040
69,15,19,Jits_Linear_5,24,9999,9999,9999,1906993212
69,15,19,Jits_Linear_5,25,9999,9999,9999,1907523684
69,15,19,Jits_Linear_5,26,9999,9999,9999,1908054092
69,15,19,Jits_Linear_5,27,9999,9999,9999,1908593780
69,15,19,Jits_Linear_5,28,9999,9999,9999,1909123156
69,15,19,Jits_Linear_5,29,9999,9999,9999,1909653632
69,15,19,Jits_Linear_5,30,9999,9999,9999,1910193268
69,15,19,Jits_Linear_5,31,9999,9999,9999,1910733936
69,15,19,Jits_Linear_5,32,9999,9999,9999,1911273560
69,15,19,Jits_Linear_5,33,9999,9999,9999,1911813184
69,15,19,Jits_Linear_5,34,9999,9999,9999,1912353876
69,15,19,Jits_Linear_5,35,9999,9999,9999,1912903768
69,15,19,Jits_Linear_5,36,9999,9999,9999,1913453644
69,15,19,Jits_Linear_5,37,9999,9999,9999,1914003532
69,15,19,Jits_Linear_5,38,9999,9999,9999,1914553424
69,15,19,Jits_Linear_5,39,9999,9999,9999,1915103312
69,15,19,Jits_Linear_5,40,9999,9999,9999,1915663460
69,15,19,Jits_Linear_5,41,9999,9999,9999,1916223572
69,15,19,Jits_Linear_5,42,9999,9999,9999,1916783732
69,15,19,Jits_Linear_5,43,9999,9999,9999,1917343804
69,15,19,Jits_Linear_5,44,9999,9999,9999,1917903952
69,15,19,Jits_Linear_5,45,9999,9999,9999,1918473316
69,15,19,Jits_Linear_5,46,9999,9999,9999,1919043680
69,15,19,Jits_Linear_5,47,9999,9999,9999,1919614028
69,15,19,Jits_Linear_5,48,9999,9999,9999,1920183396
69,15,19,Jits_Linear_5,49,9999,9999,9999,1920753744
69,15,19,Jits_Linear_5,50,9999,9999,9999,1921333312
69,15,19,Jits_Linear_5,51,9999,9999,9999,1921913928
69,15,19,Jits_Linear_5,52,9999,9999,9999,1922493556
69,15,19,Jits_Linear_5,53,9999,9999,9999,1923073112
69,15,19,Jits_Linear_5,54,9999,9999,9999,1923653740
69,15,19,Jits_Linear_5,55,9999,9999,9999,1924243560
69,15,19,Jits_Linear_5,56,9999,9999,9999,1924833380
69,15,19,Jits_Linear_5,57,9999,9999,9999,1925423216
69,15,19,Jits_Linear_5,58,9999,9999,9999,1926014008
69,15,19,Jits_Linear_5,59,9999,9999,9999,1926603888
69,15,19,Jits_Linear_5,60,9999,9999,9999,1927203924
69,15,19,Jits_Linear_5,61,9999,9999,9999,1927804000
69,15,19,Jits_Linear_5,62,9999,9999,9999,1928404080
69,15,19,Jits_Linear_5,63,9999,9999,9999,1929003080
69,15,19,Jits_Linear_5,64,9999,9999,9999,1929603160
69,15,19,Jits_Linear_5,65,9999,9999,9999,1930213500
69,15,19,Jits_Linear_5,66,9999,9999,9999,1930823800
69,15,19,Jits_Linear_5,67,9999,9999,9999,1931434060
69,15,19,Jits_Linear_5,68,9999,9999,9999,1932043360
69,15,19,Jits_Linear_5,69,9999,9999,9999,1932653660
69,15,19,Jits_Linear_5,70,9999,9999,9999,1933273212
69,15,19,Jits_Linear_5,71,9999,9999,9999,1933893712
69,15,19,Jits_Linear_5,72,9999,9999,9999,1934513212
69,15,19,Jits_Linear_5,73,9999,9999,9999,1935133772
69,15,19,Jits_Linear_5,74,9999,9999,9999,1935753332
69,15,19,Jits_Linear_5,75,9999,9999,9999,1936384056
69,15,19,Jits_Linear_5,76,9999,9999,9999,1937024112
69,15,19,Jits_Linear_5,77,9999,9999,9999,1937664128
69,15,19,Jits_Linear_5,78,9999,9999,9999,1938304108
69,15,19,Jits_Linear_5,79,9999,9999,9999,1938944120
69,15,19,Jits_Linear_5,80,9999,9999,9999,1939584092
69,15,19,Jits_Linear_5,81,9999,9999,9999,1940224108
69,15,19,Jits_Linear_5,82,9999,9999,9999,1940864072
69,15,19,Jits_Linear_5,83,9999,9999,9999,1941504088
69,15,19,Jits_Linear_5,84,9999,9999,9999,1942144072
69,15,19,Jits_Linear_5,85,9999,9999,9999,1942803564
69,15,19,Jits_Linear_5,86,9999,9999,9999,1943453784
69,15,19,Jits_Linear_5,87,9999,9999,9999,1944104028
69,15,19,Jits_Linear_5,88,9999,9999,9999,1944753260
69,15,19,Jits_Linear_5,89,9999,9999,9999,1945403488
69,15,19,Jits_Linear_5,90,9999,9999,9999,1946063956
69,15,19,Jits_Linear_5,91,9999,9999,9999,1946723396
69,15,19,Jits_Linear_5,92,9999,9999,9999,1947383864
69,15,19,Jits_Linear_5,93,9999,9999,9999,1948043384
69,15,19,Jits_Linear_5,94,9999,9999,9999,1948703800
69,15,19,Jits_Linear_5,95,9999,9999,9999,1949373560
69,15,19,Jits_Linear_5,96,9999,9999,9999,1950043196
69,15,19,Jits_Linear_5,97,9999,9999,9999,1950713928
69,15,19,Jits_Linear_5,98,9999,9999,9999,1951383636
69,15,19,Jits_Linear_5,99,9999,9999,9999,1952053344
69,15,19,Jits_Linear_5,100,9999,9999,9999,1952733292
69,15,19,Jits_Linear_5,101,9999,9999,9999,1953413204
69,15,19,Jits_Linear_5,102,9999,9999,9999,1954093180
69,15,19,Jits_Linear_5,103,9999,9999,9999,1954774120
69,15,19,Jits_Linear_5,104,9999,9999,9999,1955463232
69,15,19,Jits_Linear_5,105,9999,9999,9999,1956153464
69,15,19,Jits_Linear_5,106,9999,9999,9999,1956843600
69,15,19,Jits_Linear_5,107,9999,9999,9999,1957533760
69,15,19,Jits_Linear_5,108,9999,9999,9999,1958223992
69,15,19,Jits_Linear_5,109,9999,9999,9999,1958913080
69,15,19,Jits_Linear_5,110,9999,9999,9999,1959613520
69,15,19,Jits_Linear_5,111,9999,9999,9999,1960313944
69,15,19,Jits_Linear_5,112,9999,9999,9999,1961013324
69,15,19,Jits_Linear_5,113,9999,9999,9999,1961713724
69,15,19,Jits_Linear_5,114,9999,9999,9999,1962413176
69,15,19,Jits_Linear_5,115,9999,9999,9999,1963123780
69,15,19,Jits_Linear_5,116,9999,9999,9999,1963833424
69,15,19,Jits_Linear_5,117,9999,9999,9999,1964544104
69,15,19,Jits_Linear_5,118,9999,9999,9999,1965263936
69,15,19,Jits_Linear_5,119,9999,9999,9999,1965973572
69,15,19,Jits_Linear_5,120,9999,9999,9999,1966693476
69,15,19,Jits_Linear_5,121,9999,9999,9999,1967413308
69,15,19,Jits_Linear_5,122,9999,9999,9999,1968133184
69,15,19,Jits_Linear_5,123,9999,9999,9999,1968854076
69,15,19,Jits_Linear_5,124,9999,9999,9999,1969583192
69,15,19,Jits_Linear_5,125,9999,9999,9999,1970313284
69,15,19,Jits_Linear_5,126,9999,9999,9999,1971043400
69,15,19,Jits_Linear_5,127,9999,9999,9999,1971773556
69,15,19,Jits_Linear_5,128,9999,9999,9999,1972503636
69,15,19,Jits_Linear_5,129,9999,9999,9999,1973233780
69,15,19,Jits_Linear_5,130,9999,9999,9999,1973974072
69,15,19,Jits_Linear_5,131,9999,9999,9999,1974723644
69,15,19,Jits_Linear_5,132,9999,9999,9999,1975463996
69,15,19,Jits_Linear_5,133,9999,9999,9999,1976203380
69,15,19,Jits_Linear_5,134,9999,9999,9999,1976943732
69,15,19,Jits_Linear_5,135,9999,9999,9999,1977693304
69,15,19,Jits_Linear_5,136,9999,9999,9999,1978443852
69,15,19,Jits_Linear_5,137,9999,9999,9999,1979193420
69,15,19,Jits_Linear_5,138,9999,9999,9999,1979944044
69,15,19,Jits_Linear_5,139,9999,9999,9999,1980693612
69,15,19,Jits_Linear_5,140,9999,9999,9999,1981453376
69,15,19,Jits_Linear_5,141,9999,9999,9999,1982213224
69,15,19,Jits_Linear_5,142,9999,9999,9999,1982974048
69,15,19,Jits_Linear_5,143,9999,9999,9999,1983733828
69,15,19,Jits_Linear_5,144,9999,9999,9999,1984493676
69,15,19,Jits_Linear_5,145,9999,9999,9999,1985263704
69,15,19,Jits_Linear_5,146,9999,9999,9999,1986033736
69,15,19,Jits_Linear_5,147,9999,9999,9999,1986803840
69,15,19,Jits_Linear_5,148,9999,9999,9999,1987573860
69,15,19,Jits_Linear_5,149,9999,9999,9999,1988343908
69,15,19,Jits_Linear_5,150,9999,9999,9999,1989123152
69,15,19,Jits_Linear_5,151,9999,9999,9999,1989903436
69,15,19,Jits_Linear_5,152,9999,9999,9999,1990683748
69,15,19,Jits_Linear_5,153,9999,9999,9999,1991464028
69,15,19,Jits_Linear_5,154,9999,9999,9999,1992243272
69,15,19,Jits_Linear_5,155,9999,9999,9999,1993033820
69,15,19,Jits_Linear_5,156,9999,9999,9999,1993823316
69,15,19,Jits_Linear_5,157,9999,9999,9999,1994613884
69,15,19,Jits_Linear_5,158,9999,9999,9999,1995403332
69,15,19,Jits_Linear_5,159,9999,9999,9999,1996193884
69,15,19,Jits_Linear_5,160,9999,9999,9999,1996993648
69,15,19,Jits_Linear_5,161,9999,9999,9999,1997793344
69,15,19,Jits_Linear_5,162,9999,9999,9999,1998593112
69,15,19,Jits_Linear_5,163,9999,9999,9999,1999393884
69,15,19,Jits_Linear_5,164,9999,9999,9999,2000193648
69,15,19,Jits_Linear_5,165,9999,9999,9999,2001003608
69,15,19,Jits_Linear_5,166,9999,9999,9999,2001813568
69,15,19,Jits_Linear_5,167,9999,9999,9999,2002623604
69,15,19,Jits_Linear_5,168,9999,9999,9999,2003433564
69,15,19,Jits_Linear_5,169,9999,9999,9999,2004243520
69,16,7,Jits_ISO_8,0,5,56,103,2014233016
69,16,7,Jits_ISO_8,1,5,63,98,2014235964
69,16,7,Jits_ISO_8,2,5,80,127,2014239236
69,16,7,Jits_ISO_8,0,5,56,103,2015032940
69,16,7,Jits_ISO_8,1,5,63,98,2015035892
69,16,7,Jits_ISO_8,2,5,80,127,2015038936
69,16,7,Jits_ISO_8,0,5,80,127,2015772944
69,16,7,Jits_ISO_8,1,5,63,98,2015863084
69,16,7,Jits_ISO_8,2,5,56,103,2015873352
69,16,7,Jits_ISO_8,0,5,56,103,2016593268
69,16,7,Jits_ISO_8,1,5,63,98,2016602568
69,16,7,Jits_ISO_8,2,1,48,21,2016674912
69,16,7,Jits_ISO_8,3,5,80,127,2016692692
69,16,7,Jits_ISO_8,0,1,48,31,2017298524
69,16,7,Jits_ISO_8,1,5,63,98,2017363240
69,16,7,Jits_ISO_8,2,5,80,127,2017393800
69,16,7,Jits_ISO_8,3,5,56,103,2017422872
69,16,7,Jits_ISO_8,0,1,48,40,2018081772
69,16,7,Jits_ISO_8,1,5,56,103,2018163016
69,16,7,Jits_ISO_8,2,5,80,127,2018263548
69,16,7,Jits_ISO_8,3,5,63,98,2018312556
69,16,7,Jits_ISO_8,0,1,48,38,2018951616
69,16,7,Jits_ISO_8,1,5,56,103,2018962948
69,16,7,Jits_ISO_8,2,5,80,127,2019013004
69,16,7,Jits_ISO_8,3,5,63,98,2019052856
69,16,7,Jits_ISO_8,0,1,48,41,2019735804
69,16,7,Jits_ISO_8,1,5,80,127,2019793148
69,16,7,Jits_ISO_8,2,5,63,98,2019822976
69,16,7,Jits_ISO_8,3,5,56,103,2019892668
69,16,7,Jits_ISO_8,0,1,48,43,2020573212
69,16,7,Jits_ISO_8,1,5,63,98,2020622608
69,16,7,Jits_ISO_8,2,5,56,103,2020653584
69,16,7,Jits_ISO_8,3,5,80,127,2020712908
69,16,7,Jits_ISO_8,0,5,56,103,2021362984
69,16,7,Jits_ISO_8,1,5,80,127,2021366128
69,16,7,Jits_ISO_8,2,1,48,44,2021384012
69,16,7,Jits_ISO_8,3,5,63,98,2021482788
69,16,7,Jits_ISO_8,0,1,48,48,2022155168
69,16,7,Jits_ISO_8,1,5,56,103,2022242588
69,16,7,Jits_ISO_8,2,5,80,127,2022282736
69,16,7,Jits_ISO_8,3,5,63,98,2022292860
69,16,7,Jits_ISO_8,0,1,48,43,2023002076
69,16,7,Jits_ISO_8,1,5,56,103,2023003644
69,16,7,Jits_ISO_8,2,5,80,127,2023022980
69,16,7,Jits_ISO_8,3,5,63,98,2023102908
69,16,7,Jits_ISO_8,0,5,80,127,2023792872
69,16,7,Jits_ISO_8,1,1,48,46,2023831436
69,16,7,Jits_ISO_8,2,5,56,103,2023893564
69,16,7,Jits_ISO_8,3,5,63,98,2023902644
69,16,7,Jits_ISO_8,0,5,63,98,2024563004
69,16,7,Jits_ISO_8,1,5,80,127,2024622428
69,16,7,Jits_ISO_8,2,5,56,103,2024632548
69,16,7,Jits_ISO_8,3,1,48,40,2024648544
69,16,7,Jits_ISO_8,0,1,48,38,2025340564
69,16,7,Jits_ISO_8,1,5,56,103,2025362780
69,16,7,Jits_ISO_8,2,5,63,98,2025432464
69,16,7,Jits_ISO_8,3,5,80,127,2025435828
69,16,7,Jits_ISO_8,0,1,48,38,2026140956
69,16,7,Jits_ISO_8,1,5,63,98,2026193492
69,16,7,Jits_ISO_8,2,5,56,103,2026242484
69,16,7,Jits_ISO_8,3,5,80,127,2026245700
69,16,7,Jits_ISO_8,0,5,56,103,2026952960
69,16,7,Jits_ISO_8,1,5,80,127,2026956328
69,16,7,Jits_ISO_8,2,1,48,40,2026978852
69,16,7,Jits_ISO_8,3,5,63,98,2027043264
69,16,7,Jits_ISO_8,0,1,48,37,2027677484
69,16,7,Jits_ISO_8,1,5,63,98,2027792736
69,16,7,Jits_ISO_8,2,5,56,103,2027882752
69,16,7,Jits_ISO_8,3,5,80,127,2027912572
69,16,7,Jits_ISO_8,0,1,48,42,2028569976
69,16,7,Jits_ISO_8,1,5,56,103,2028583424
69,16,7,Jits_ISO_8,2,5,63,98,2028682536
69,16,7,Jits_ISO_8,3,5,80,127,2028713408
69,16,7,Jits_ISO_8,0,5,63,98,2029402400
69,16,7,Jits_ISO_8,1,5,56,103,2029412672
69,16,7,Jits_ISO_8,2,1,48,40,2029428372
69,16,7,Jits_ISO_8,3,5,80,127,2029502944
69,16,7,Jits_ISO_8,0,1,48,34,2030156664
69,16,7,Jits_ISO_8,1,5,63,98,2030222632
69,16,7,Jits_ISO_8,2,5,56,103,2030302640
69,16,7,Jits_ISO_8,3,5,80,127,2030305708
69,16,7,Jits_ISO_8,0,5,80,127,2030982640
69,16,7,Jits_ISO_8,1,1,48,39,2030997520
69,16,7,Jits_ISO_8,2,5,63,98,2031002868
69,16,7,Jits_ISO_8,3,5,56,103,2031063484
69,16,7,Jits_ISO_8,0,1,48,31,2031797904
69,16,7,Jits_ISO_8,1,5,56,103,2031823412
69,16,7,Jits_ISO_8,2,5,63,98,2031842520
69,16,7,Jits_ISO_8,3,5,80,127,2031845888
69,16,7,Jits_ISO_8,0,1,48,46,2032559692
69,16,7,Jits_ISO_8,1,5,63,98,2032562428
69,16,7,Jits_ISO_8,2,5,80,127,2032642452
69,16,7,Jits_ISO_8,3,5,56,103,2032652796
69,16,7,Jits_ISO_8,0,1,48,43,2033382296
69,16,7,Jits_ISO_8,1,5,63,98,2033383712
69,16,7,Jits_ISO_8,2,5,56,103,2033403424
69,16,7,Jits_ISO_8,3,5,80,127,2033453428
69,16,7,Jits_ISO_8,0,1,48,38,2034137008
69,16,7,Jits_ISO_8,1,5,80,127,2034182448
69,16,7,Jits_ISO_8,2,5,63,98,2034222488
69,16,7,Jits_ISO_8,3,5,56,103,2034242856
69,16,7,Jits_ISO_8,0,1,48,40,2034961304
69,16,7,Jits_ISO_8,1,5,56,103,2035023460
69,16,7,Jits_ISO_8,2,5,63,98,2035032536
69,16,7,Jits_ISO_8,3,5,80,127,2035052832
69,16,7,Jits_ISO_8,0,5,56,103,2035753496
69,16,7,Jits_ISO_8,1,1,48,36,2035779312
69,16,7,Jits_ISO_8,2,5,63,98,2035842360
69,16,7,Jits_ISO_8,3,5,80,127,2035902956
69,16,7,Jits_ISO_8,0,1,48,34,2036572224
69,16,7,Jits_ISO_8,1,5,80,127,2036582960
69,16,7,Jits_ISO_8,2,5,56,103,2036593232
69,16,7,Jits_ISO_8,3,5,63,98,2036662688
69,16,7,Jits_ISO_8,0,1,48,32,2037316324
69,16,7,Jits_ISO_8,1,5,63,98,2037413296
69,16,7,Jits_ISO_8,2,5,80,127,2037503356
69,16,7,Jits_ISO_8,3,5,56,103,2037512508
69,16,7,Jits_ISO_8,0,5,63,98,2038152496
69,16,7,Jits_ISO_8,1,5,80,127,2038202700
69,16,7,Jits_ISO_8,2,1,48,35,2038257208
69,16,7,Jits_ISO_8,3,5,56,103,2038263452
69,16,7,Jits_ISO_8,0,1,48,39,2038916352
69,16,7,Jits_ISO_8,1,5,56,103,2038983136
69,16,7,Jits_ISO_8,2,5,80,127,2039033252
69,16,7,Jits_ISO_8,3,5,63,98,2039052588
69,16,7,Jits_ISO_8,0,1,48,44,2039741988
69,16,7,Jits_ISO_8,1,5,56,103,2039753100
69,16,7,Jits_ISO_8,2,5,80,127,2039812448
69,16,7,Jits_ISO_8,3,5,63,98,2039883260
69,16,7,Jits_ISO_8,0,1,48,45,2040510212
69,16,7,Jits_ISO_8,1,5,56,103,2040552808
69,16,7,Jits_ISO_8,2,5,80,127,2040582560
69,16,7,Jits_ISO_8,3,5,63,98,2040613220
69,16,7,Jits_ISO_8,0,1,48,35,2041301244
69,16,7,Jits_ISO_8,1,5,56,103,2041392472
69,16,7,Jits_ISO_8,2,5,80,127,2041413068
69,16,7,Jits_ISO_8,3,5,63,98,2041473384
69,16,7,Jits_ISO_8,0,1,48,41,2042160396
69,16,7,Jits_ISO_8,1,5,80,127,2042273308
69,16,7,Jits_ISO_8,2,5,56,103,2042283504
69,16,7,Jits_ISO_8,3,5,63,98,2042292504
69,16,7,Jits_ISO_8,0,5,56,103,2043033112
69,16,7,Jits_ISO_8,1,1,48,36,2043057056
69,16,7,Jits_ISO_8,2,5,80,127,2043072824
69,16,7,Jits_ISO_8,3,5,63,98,2043102572
69,16,7,Jits_ISO_8,0,1,48,37,2043794376
69,16,7,Jits_ISO_8,1,5,56,103,2043803020
69,16,7,Jits_ISO_8,2,5,63,98,2043832696
69,16,7,Jits_ISO_8,3,5,80,127,2043872560
69,16,7,Jits_ISO_8,0,5,80,127,2044552540
69,16,7,Jits_ISO_8,1,1,48,32,2044553952
69,16,7,Jits_ISO_8,2,5,63,98,2044602664
69,16,7,Jits_ISO_8,3,5,56,103,2044623344
69,16,7,Jits_ISO_8,0,1,48,30,2045295056
69,16,7,Jits_ISO_8,1,5,56,103,2045382972
69,16,7,Jits_ISO_8,2,5,80,127,2045452792
69,16,7,Jits_ISO_8,3,5,63,98,2045513056
69,16,7,Jits_ISO_8,0,5,80,127,2046182916
69,16,7,Jits_ISO_8,1,1,48,38,2046229512
69,16,7,Jits_ISO_8,2,5,63,98,2046273144
69,16,7,Jits_ISO_8,3,5,56,103,2046293456
69,16,7,Jits_ISO_8,0,5,63,98,2047003048
69,16,7,Jits_ISO_8,1,1,48,41,2047008860
69,16,7,Jits_ISO_8,2,5,56,103,2047022380
69,16,7,Jits_ISO_8,3,5,80,127,2047063440
69,16,7,Jits_ISO_8,0,5,80,127,2047762944
69,16,7,Jits_ISO_8,1,5,63,98,2047783208
69,16,7,Jits_ISO_8,2,1,48,19,2047821320
69,16,7,Jits_ISO_8,3,5,56,103,2047863144
69,16,7,Jits_ISO_8,0,1,48,34,2048508608
69,16,7,Jits_ISO_8,1,5,63,98,2048553468
69,16,7,Jits_ISO_8,2,5,56,103,2048663144
69,16,7,Jits_ISO_8,3,5,80,127,2048666136
69,16,7,Jits_ISO_8,0,1,48,36,2049344448
69,16,7,Jits_ISO_8,1,5,63,98,2049372424
69,16,7,Jits_ISO_8,2,5,56,103,2049382696
69,16,7,Jits_ISO_8,3,5,80,127,2049385908
69,16,7,Jits_ISO_8,0,1,48,35,2050122040
69,16,7,Jits_ISO_8,1,5,56,103,2050153004
69,16,7,Jits_ISO_8,2,5,80,127,2050272496
69,16,7,Jits_ISO_8,3,5,63,98,2050312508
69,16,7,Jits_ISO_8,0,1,48,36,2050968040
69,16,7,Jits_ISO_8,1,5,56,103,2050973240
69,16,7,Jits_ISO_8,2,5,80,127,2051053112
69,16,7,Jits_ISO_8,3,5,63,98,2051073264
69,16,7,Jits_ISO_8,0,1,48,34,2051758004
69,16,7,Jits_ISO_8,1,5,56,103,2051772872
69,16,7,Jits_ISO_8,2,5,63,98,2051883324
69,16,7,Jits_ISO_8,3,5,80,127,2051886912
69,16,7,Jits_ISO_8,0,1,48,29,2052574352
69,16,7,Jits_ISO_8,1,5,56,103,2052603296
69,16,7,Jits_ISO_8,2,5,80,127,2052633072
69,16,7,Jits_ISO_8,3,5,63,98,2052653456
69,16,7,Jits_ISO_8,0,5,63,98,2053382484
69,16,7,Jits_ISO_8,1,5,56,103,2053392828
69,16,7,Jits_ISO_8,2,5,80,127,2053403124
69,16,7,Jits_ISO_8,3,1,48,27,2053441612
69,16,7,Jits_ISO_8,0,1,48,38,2054118532
69,16,7,Jits_ISO_8,1,5,80,127,2054173060
69,16,7,Jits_ISO_8,2,5,56,103,2054223176
69,16,7,Jits_ISO_8,3,5,63,98,2054263188
69,16,7,Jits_ISO_8,0,1,48,35,2054928952
69,16,7,Jits_ISO_8,1,5,80,127,2054993220
69,16,7,Jits_ISO_8,2,5,63,98,2055012856
69,16,7,Jits_ISO_8,3,5,56,103,2055062892
69,16,7,Jits_ISO_8,0,1,48,36,2055767348
69,16,7,Jits_ISO_8,1,5,80,127,2055803192
69,16,7,Jits_ISO_8,2,5,56,103,2055832944
69,16,7,Jits_ISO_8,3,5,63,98,2055902536
69,16,7,Jits_ISO_8,0,1,48,43,2056630532
69,16,7,Jits_ISO_8,1,5,56,103,2056653028
69,16,7,Jits_ISO_8,2,5,80,127,2056663524
69,16,7,Jits_ISO_8,3,5,63,98,2056703312
69,16,7,Jits_ISO_8,0,5,56,103,2057362988
69,16,7,Jits_ISO_8,1,5,63,98,2057383224
69,16,7,Jits_ISO_8,2,1,48,43,2057411600
69,16,7,Jits_ISO_8,3,5,80,127,2057452972
69,16,7,Jits_ISO_8,0,1,48,37,2058132484
69,16,7,Jits_ISO_8,1,5,63,98,2058183080
69,16,7,Jits_ISO_8,2,5,80,127,2058242336
69,16,7,Jits_ISO_8,3,5,56,103,2058262892
69,16,7,Jits_ISO_8,0,1,48,36,2058947092
69,16,7,Jits_ISO_8,1,5,80,127,2058972524
69,16,7,Jits_ISO_8,2,5,56,103,2059003172
69,16,7,Jits_ISO_8,3,5,63,98,2059032948
69,16,7,Jits_ISO_8,0,5,56,103,2059773280
69,16,7,Jits_ISO_8,1,1,48,33,2059775872
69,16,7,Jits_ISO_8,2,5,63,98,2059832796
69,16,7,Jits_ISO_8,3,5,80,127,2059893096
69,16,7,Jits_ISO_8,0,1,48,30,2060582668
69,16,7,Jits_ISO_8,1,5,80,127,2060592356
69,16,7,Jits_ISO_8,2,5,56,103,2060613040
69,16,7,Jits_ISO_8,3,5,63,98,2060682780
69,16,7,Jits_ISO_8,0,5,80,127,2061393344
69,16,7,Jits_ISO_8,1,5,63,98,2061412832
69,16,7,Jits_ISO_8,2,1,48,37,2061417148
69,16,7,Jits_ISO_8,3,5,56,103,2061442276
69,16,7,Jits_ISO_8,0,5,80,127,2062182876
69,16,7,Jits_ISO_8,1,5,63,98,2062203112
69,16,7,Jits_ISO_8,2,1,48,35,2062232980
69,16,7,Jits_ISO_8,3,5,56,103,2062262744
69,16,7,Jits_ISO_8,0,5,80,127,2062982672
69,16,7,Jits_ISO_8,1,1,48,32,2063063412
69,16,7,Jits_ISO_8,2,5,56,103,2063082840
69,16,7,Jits_ISO_8,3,5,63,98,2063112816
69,16,7,Jits_ISO_8,0,5,63,98,2063773032
69,16,7,Jits_ISO_8,1,5,80,127,2063823312
69,16,7,Jits_ISO_8,2,1,48,34,2063830712
69,16,7,Jits_ISO_8,3,5,56,103,2063842716
69,16,7,Jits_ISO_8,0,5,80,127,2064612824
69,16,7,Jits_ISO_8,1,1,48,36,2064641888
69,16,7,Jits_ISO_8,2,5,56,103,2064643252
69,16,7,Jits_ISO_8,3,5,63,98,2064646160
69,16,7,Jits_ISO_8,0,5,63,98,2065443132
69,16,7,Jits_ISO_8,1,1,48,24,2065478236
69,16,7,Jits_ISO_8,2,5,56,103,2065482992
69,16,7,Jits_ISO_8,3,5,80,127,2065502776
69,16,7,Jits_ISO_8,0,5,80,127,2066182808
69,16,7,Jits_ISO_8,1,1,48,31,2066235100
69,16,7,Jits_ISO_8,2,5,63,98,2066263672
69,16,7,Jits_ISO_8,3,5,56,103,2066303308
69,16,7,Jits_ISO_8,0,5,63,98,2067002788
69,16,7,Jits_ISO_8,1,1,48,30,2067051316
69,16,7,Jits_ISO_8,2,5,80,127,2067082656
69,16,7,Jits_ISO_8,3,5,56,103,2067103112
69,16,7,Jits_ISO_8,0,1,48,36,2067823376
69,16,7,Jits_ISO_8,1,5,56,103,2067842508
69,16,7,Jits_ISO_8,2,5,63,98,2067852556
69,16,7,Jits_ISO_8,3,5,80,127,2067892716
69,16,7,Jits_ISO_8,0,5,56,103,2068563400
69,16,7,Jits_ISO_8,1,5,80,127,2068566468
69,16,7,Jits_ISO_8,2,1,48,36,2068624664
69,16,7,Jits_ISO_8,3,5,63,98,2068702604
69,16,7,Jits_ISO_8,0,5,56,103,2069352704
69,16,7,Jits_ISO_8,1,1,48,38,2069379488
69,16,7,Jits_ISO_8,2,5,63,98,2069442908
69,16,7,Jits_ISO_8,3,5,80,127,2069512872
69,16,7,Jits_ISO_8,0,1,48,38,2070094328
69,16,7,Jits_ISO_8,1,5,63,98,2070232572
69,16,7,Jits_ISO_8,2,5,80,127,2070235788
69,16,7,Jits_ISO_8,3,5,56,103,2070292764
69,16,7,Jits_ISO_8,0,1,48,34,2070905044
69,16,7,Jits_ISO_8,1,5,80,127,2071073136
69,16,7,Jits_ISO_8,2,5,56,103,2071092548
69,16,7,Jits_ISO_8,3,5,63,98,2071102896
69,16,7,Jits_ISO_8,0,5,56,103,2071782720
69,16,7,Jits_ISO_8,1,5,63,98,2071792916
69,16,7,Jits_ISO_8,2,5,80,127,2071862620
69,16,7,Jits_ISO_8,3,1,48,42,2071899892
69,16,7,Jits_ISO_8,0,1,48,32,2072450692
69,16,7,Jits_ISO_8,1,5,80,127,2072582716
69,16,7,Jits_ISO_8,2,5,56,103,2072632796
69,16,7,Jits_ISO_8,3,5,63,98,2072682848
69,16,7,Jits_ISO_8,0,1,48,32,2073347124
69,16,7,Jits_ISO_8,1,5,56,103,2073463068
69,16,7,Jits_ISO_8,2,5,63,98,2073473636
69,16,7,Jits_ISO_8,3,5,80,127,2073513424
69,16,7,Jits_ISO_8,0,5,56,103,2074202640
69,16,7,Jits_ISO_8,1,5,63,98,2074242508
69,16,7,Jits_ISO_8,2,1,48,39,2074276860
69,16,7,Jits_ISO_8,3,5,80,127,2074292480
69,16,7,Jits_ISO_8,0,5,80,127,2074963480
69,16,7,Jits_ISO_8,1,5,56,103,2075012712
69,16,7,Jits_ISO_8,2,1,48,39,2075022280
69,16,7,Jits_ISO_8,3,5,63,98,2075033016
69,16,7,Jits_ISO_8,0,1,48,39,2075755676
69,16,7,Jits_ISO_8,1,5,80,127,2075773380
69,16,7,Jits_ISO_8,2,5,63,98,2075832804
69,16,7,Jits_ISO_8,3,5,56,103,2075912508
69,16,7,Jits_ISO_8,0,1,48,35,2076536724
69,16,7,Jits_ISO_8,1,5,80,127,2076552416
69,16,7,Jits_ISO_8,2,5,56,103,2076592432
69,16,7,Jits_ISO_8,3,5,63,98,2076613112
69,16,7,Jits_ISO_8,0,1,48,42,2077291108
69,16,7,Jits_ISO_8,1,5,56,103,2077402604
69,16,7,Jits_ISO_8,2,5,80,127,2077412876
69,16,7,Jits_ISO_8,3,5,63,98,2077452736
69,16,7,Jits_ISO_8,0,1,48,42,2078139052
69,16,7,Jits_ISO_8,1,5,56,103,2078272840
69,16,7,Jits_ISO_8,2,5,63,98,2078312776
69,16,7,Jits_ISO_8,3,5,80,127,2078316068
69,16,7,Jits_ISO_8,0,5,63,98,2078963228
69,16,7,Jits_ISO_8,1,1,48,39,2078972720
69,16,7,Jits_ISO_8,2,5,80,127,2079003116
69,16,7,Jits_ISO_8,3,5,56,103,2079072632
69,16,7,Jits_ISO_8,0,1,48,41,2079741628
69,16,7,Jits_ISO_8,1,5,63,98,2079752516
69,16,7,Jits_ISO_8,2,5,56,103,2079832564
69,16,7,Jits_ISO_8,3,5,80,127,2079892792
69,16,7,Jits_ISO_8,0,5,80,127,2080562524
69,16,7,Jits_ISO_8,1,1,48,39,2080583624
69,16,7,Jits_ISO_8,2,5,63,98,2080612796
69,16,7,Jits_ISO_8,3,5,56,103,2080642548
69,16,7,Jits_ISO_8,0,1,48,42,2081351360
69,16,7,Jits_ISO_8,1,5,56,103,2081352948
69,16,7,Jits_ISO_8,2,5,63,98,2081403376
69,16,7,Jits_ISO_8,3,5,80,127,2081412376
69,16,7,Jits_ISO_8,0,1,48,32,2082135164
69,16,7,Jits_ISO_8,1,5,56,103,2082163284
69,16,7,Jits_ISO_8,2,5,63,98,2082272592
69,16,7,Jits_ISO_8,3,5,80,127,2082293348
69,16,7,Jits_ISO_8,0,5,63,98,2082962780
69,16,7,Jits_ISO_8,1,5,80,127,2083012984
69,16,7,Jits_ISO_8,2,1,48,36,2083041208
69,16,7,Jits_ISO_8,3,5,56,103,2083103060
69,16,7,Jits_ISO_8,0,5,63,98,2083753344
69,16,7,Jits_ISO_8,1,5,80,127,2083783024
69,16,7,Jits_ISO_8,2,1,48,23,2083789652
69,16,7,Jits_ISO_8,3,5,56,103,2083873396
69,16,7,Jits_ISO_8,0,5,63,98,2084553272
69,16,7,Jits_ISO_8,1,5,56,103,2084563472
69,16,7,Jits_ISO_8,2,1,48,29,2084598056
69,16,7,Jits_ISO_8,3,5,80,127,2084662688
69,16,7,Jits_ISO_8,0,1,48,30,2085364112
69,16,7,Jits_ISO_8,1,5,63,98,2085453172
69,16,7,Jits_ISO_8,2,5,80,127,2085482980
69,16,7,Jits_ISO_8,3,5,56,103,2085512436
69,16,7,Jits_ISO_8,0,1,48,29,2086266868
69,16,7,Jits_ISO_8,1,5,80,127,2086273344
69,16,7,Jits_ISO_8,2,5,63,98,2086282640
69,16,7,Jits_ISO_8,3,5,56,103,2086313436
69,16,7,Jits_ISO_8,0,5,80,127,2086972820
69,16,7,Jits_ISO_8,1,5,63,98,2086993504
69,16,7,Jits_ISO_8,2,5,56,103,2087042360
69,16,7,Jits_ISO_8,3,1,48,32,2087064284
69,16,7,Jits_ISO_8,0,1,48,41,2087772436
69,16,7,Jits_ISO_8,1,5,63,98,2087803400
69,16,7,Jits_ISO_8,2,5,80,127,2087862748
69,16,7,Jits_ISO_8,3,5,56,103,2087883116
69,16,7,Jits_ISO_8,0,1,48,36,2088552740
69,16,7,Jits_ISO_8,1,5,63,98,2088563400
69,16,7,Jits_ISO_8,2,5,56,103,2088613308
69,16,7,Jits_ISO_8,3,5,80,127,2088622308
69,16,7,Jits_ISO_8,0,1,48,30,2089354016
69,16,7,Jits_ISO_8,1,5,56,103,2089392480
69,16,7,Jits_ISO_8,2,5,80,127,2089402676
69,16,7,Jits_ISO_8,3,5,63,98,2089503304
69,16,7,Jits_ISO_8,0,1,48,39,2090150416
69,16,7,Jits_ISO_8,1,5,80,127,2090153524
69,16,7,Jits_ISO_8,2,5,63,98,2090162524
69,16,7,Jits_ISO_8,3,5,56,103,2090313348
69,16,7,Jits_ISO_8,0,5,63,98,2090963428
69,16,7,Jits_ISO_8,1,5,80,127,2091003368
69,16,7,Jits_ISO_8,2,1,48,42,2091017500
69,16,7,Jits_ISO_8,3,5,56,103,2091083332
69,16,7,Jits_ISO_8,0,5,56,103,2091752796
69,16,7,Jits_ISO_8,1,1,48,38,2091790072
69,16,7,Jits_ISO_8,2,5,80,127,2091853144
69,16,7,Jits_ISO_8,3,5,63,98,2091872556
69,16,7,Jits_ISO_8,0,1,48,37,2092530372
69,16,7,Jits_ISO_8,1,5,80,127,2092613076
69,16,7,Jits_ISO_8,2,5,56,103,2092623348
69,16,7,Jits_ISO_8,3,5,63,98,2092713464
69,16,7,Jits_ISO_8,0,1,48,39,2093389832
69,16,7,Jits_ISO_8,1,5,56,103,2093412868
69,16,7,Jits_ISO_8,2,5,63,98,2093433328
69,16,7,Jits_ISO_8,3,5,80,127,2093513328
69,16,7,Jits_ISO_8,0,5,63,98,2094163432
69,16,7,Jits_ISO_8,1,1,48,38,2094197268
69,16,7,Jits_ISO_8,2,5,56,103,2094253416
69,16,7,Jits_ISO_8,3,5,80,127,2094256480
69,16,7,Jits_ISO_8,0,1,48,33,2094991752
69,16,7,Jits_ISO_8,1,5,56,103,2094993316
69,16,7,Jits_ISO_8,2,5,80,127,2095053116
69,16,7,Jits_ISO_8,3,5,63,98,2095063388
69,16,7,Jits_ISO_8,0,1,48,29,2095812716
69,16,7,Jits_ISO_8,1,5,80,127,2095842784
69,16,7,Jits_ISO_8,2,5,56,103,2095853124
69,16,7,Jits_ISO_8,3,5,63,98,2095856116
69,16,7,Jits_ISO_8,0,5,56,103,2096602336
69,16,7,Jits_ISO_8,1,5,80,127,2096612908
69,16,7,Jits_ISO_8,2,5,63,98,2096633216
69,16,7,Jits_ISO_8,3,1,48,37,2096637828
69,16,7,Jits_ISO_8,0,1,48,32,2097360132
69,16,7,Jits_ISO_8,1,5,63,98,2097372532
69,16,7,Jits_ISO_8,2,5,80,127,2097433024
69,16,7,Jits_ISO_8,3,5,56,103,2097483064
69,16,7,Jits_ISO_8,0,1,48,28,2098204304
69,16,7,Jits_ISO_8,1,5,63,98,2098253252
69,16,7,Jits_ISO_8,2,5,56,103,2098263304
69,16,7,Jits_ISO_8,3,5,80,127,2098312440
69,16,7,Jits_ISO_8,0,5,63,98,2098952996
69,16,7,Jits_ISO_8,1,5,80,127,2098972960
69,16,7,Jits_ISO_8,2,5,56,103,2098983156
69,16,7,Jits_ISO_8,3,1,48,27,2099031828
69,16,7,Jits_ISO_8,0,1,48,32,2099680596
69,16,7,Jits_ISO_8,1,5,63,98,2099753312
69,16,7,Jits_ISO_8,2,5,80,127,2099756824
69,16,7,Jits_ISO_8,3,5,56,103,2099793164
69,16,7,Jits_ISO_8,0,1,48,33,2100446632
69,16,7,Jits_ISO_8,1,5,63,98,2100622596
69,16,7,Jits_ISO_8,2,5,80,127,2100653396
69,16,7,Jits_ISO_8,3,5,56,103,2100662540
69,16,7,Jits_ISO_8,0,5,56,103,2101373248
69,16,7,Jits_ISO_8,1,5,80,127,2101403000
69,16,7,Jits_ISO_8,2,5,63,98,2101432676
69,16,7,Jits_ISO_8,3,1,48,30,2101447252
69,16,7,Jits_ISO_8,0,1,48,32,2102105204
69,16,7,Jits_ISO_8,1,5,63,98,2102273272
69,16,7,Jits_ISO_8,2,5,56,103,2102313228
69,16,7,Jits_ISO_8,3,5,80,127,2102316372
69,16,7,Jits_ISO_8,0,5,80,127,2102972900
69,16,7,Jits_ISO_8,1,1,48,33,2103041064
69,16,7,Jits_ISO_8,2,5,56,103,2103052548
69,16,7,Jits_ISO_8,3,5,63,98,2103102920
69,16,7,Jits_ISO_8,0,5,80,127,2103752996
69,16,7,Jits_ISO_8,1,5,56,103,2103772484
69,16,7,Jits_ISO_8,2,1,48,32,2103797852
69,16,7,Jits_ISO_8,3,5,63,98,2103862636
69,16,7,Jits_ISO_8,0,1,48,37,2104540004
69,16,7,Jits_ISO_8,1,5,80,127,2104593036
69,16,7,Jits_ISO_8,2,5,63,98,2104632904
69,16,7,Jits_ISO_8,3,5,56,103,2104672604
69,16,7,Jits_ISO_8,0,5,63,98,2105362932
69,16,7,Jits_ISO_8,1,1,48,30,2105404264
69,16,7,Jits_ISO_8,2,5,80,127,2105423244
69,16,7,Jits_ISO_8,3,5,56,103,2105453068
69,16,7,Jits_ISO_8,0,5,56,103,2106162488
69,16,7,Jits_ISO_8,1,5,80,127,2106193212
69,16,7,Jits_ISO_8,2,1,48,35,2106202104
69,16,7,Jits_ISO_8,3,5,63,98,2106283264
69,16,7,Jits_ISO_8,0,5,56,103,2106972396
69,16,7,Jits_ISO_8,1,1,48,35,2107004660
69,16,7,Jits_ISO_8,2,5,80,127,2107083056
69,16,7,Jits_ISO_8,3,5,63,98,2107112788
69,16,7,Jits_ISO_8,0,1,48,42,2107786996
69,16,7,Jits_ISO_8,1,5,56,103,2107822616
69,16,7,Jits_ISO_8,2,5,63,98,2107883516
69,16,7,Jits_ISO_8,3,5,80,127,2107912668
69,16,7,Jits_ISO_8,0,5,56,103,2108592444
69,16,7,Jits_ISO_8,1,1,48,27,2108602160
69,16,7,Jits_ISO_8,2,5,63,98,2108663168
69,16,7,Jits_ISO_8,3,5,80,127,2108682504
69,16,7,Jits_ISO_8,0,5,80,127,2109362500
69,16,7,Jits_ISO_8,1,5,63,98,2109383036
69,16,7,Jits_ISO_8,2,1,48,46,2109424588
69,16,7,Jits_ISO_8,3,5,56,103,2109433304
69,16,7,Jits_ISO_8,0,9999,9999,9999,2014631032
69,16,7,Jits_ISO_8,1,9999,9999,9999,2015430732
69,16,7,Jits_ISO_8,2,9999,9999,9999,2016230452
69,16,7,Jits_ISO_8,3,9999,9999,9999,2017030228
69,16,7,Jits_ISO_8,4,9999,9999,9999,2017831016
69,16,7,Jits_ISO_8,5,9999,9999,9999,2018630724
69,16,7,Jits_ISO_8,6,9999,9999,9999,2019430508
69,16,7,Jits_ISO_8,7,9999,9999,9999,2020230216
69,16,7,Jits_ISO_8,8,9999,9999,9999,2021030980
69,16,7,Jits_ISO_8,9,9999,9999,9999,2021830752
69,16,7,Jits_ISO_8,10,9999,9999,9999,2022630484
69,16,7,Jits_ISO_8,11,9999,9999,9999,2023430196
69,16,7,Jits_ISO_8,12,9999,9999,9999,2024230984
69,16,7,Jits_ISO_8,13,9999,9999,9999,2025030780
69,16,7,Jits_ISO_8,14,9999,9999,9999,2025830476
69,16,7,Jits_ISO_8,15,9999,9999,9999,2026630252
69,16,7,Jits_ISO_8,16,9999,9999,9999,2027430992
69,16,7,Jits_ISO_8,17,9999,9999,9999,2028230720
69,16,7,Jits_ISO_8,18,9999,9999,9999,2029030508
69,16,7,Jits_ISO_8,19,9999,9999,9999,2029830220
69,16,7,Jits_ISO_8,20,9999,9999,9999,2030631000
69,16,7,Jits_ISO_8,21,9999,9999,9999,2031430708
69,16,7,Jits_ISO_8,22,9999,9999,9999,2032230500
69,16,7,Jits_ISO_8,23,9999,9999,9999,2033030208
69,16,7,Jits_ISO_8,24,9999,9999,9999,2033830964
69,16,7,Jits_ISO_8,25,9999,9999,9999,2034630748
69,16,7,Jits_ISO_8,26,9999,9999,9999,2035430460
69,16,7,Jits_ISO_8,27,9999,9999,9999,2036230240
69,16,7,Jits_ISO_8,28,9999,9999,9999,2037031036
69,16,7,Jits_ISO_8,29,9999,9999,9999,2037830752
69,16,7,Jits_ISO_8,30,9999,9999,9999,2038630456
69,16,7,Jits_ISO_8,31,9999,9999,9999,2039430240
69,16,7,Jits_ISO_8,32,9999,9999,9999,2040230996
69,16,7,Jits_ISO_8,33,9999,9999,9999,2041030776
69,16,7,Jits_ISO_8,34,9999,9999,9999,2041830484
69,16,7,Jits_ISO_8,35,9999,9999,9999,2042630200
69,16,7,Jits_ISO_8,36,9999,9999,9999,2043430992
69,16,7,Jits_ISO_8,37,9999,9999,9999,2044230720
69,16,7,Jits_ISO_8,38,9999,9999,9999,2045030500
69,16,7,Jits_ISO_8,39,9999,9999,9999,2045830232
69,16,7,Jits_ISO_8,40,9999,9999,9999,2046630992
69,16,7,Jits_ISO_8,41,9999,9999,9999,2047430716
69,16,7,Jits_ISO_8,42,9999,9999,9999,2048230496
69,16,7,Jits_ISO_8,43,9999,9999,9999,2049030212
69,16,7,Jits_ISO_8,44,9999,9999,9999,2049830972
69,16,7,Jits_ISO_8,45,9999,9999,9999,2050630756
69,16,7,Jits_ISO_8,46,9999,9999,9999,2051430464
69,16,7,Jits_ISO_8,47,9999,9999,9999,2052230236
69,16,7,Jits_ISO_8,48,9999,9999,9999,2053030992
69,16,7,Jits_ISO_8,49,9999,9999,9999,2053830772
69,16,7,Jits_ISO_8,50,9999,9999,9999,2054630476
69,16,7,Jits_ISO_8,51,9999,9999,9999,2055430260
69,16,7,Jits_ISO_8,52,9999,9999,9999,2056230968
69,16,7,Jits_ISO_8,53,9999,9999,9999,2057030756
69,16,7,Jits_ISO_8,54,9999,9999,9999,2057830460
69,16,7,Jits_ISO_8,55,9999,9999,9999,2058630260
69,16,7,Jits_ISO_8,56,9999,9999,9999,2059431008
69,16,7,Jits_ISO_8,57,9999,9999,9999,2060230720
69,16,7,Jits_ISO_8,58,9999,9999,9999,2061030520
69,16,7,Jits_ISO_8,59,9999,9999,9999,2061830228
69,16,7,Jits_ISO_8,60,9999,9999,9999,2062631016
69,16,7,Jits_ISO_8,61,9999,9999,9999,2063430748
69,16,7,Jits_ISO_8,62,9999,9999,9999,2064230468
69,16,7,Jits_ISO_8,63,9999,9999,9999,2065030244
69,16,7,Jits_ISO_8,64,9999,9999,9999,2065831020
69,16,7,Jits_ISO_8,65,9999,9999,9999,2066630732
69,16,7,Jits_ISO_8,66,9999,9999,9999,2067430460
69,16,7,Jits_ISO_8,67,9999,9999,9999,2068230252
69,16,7,Jits_ISO_8,68,9999,9999,9999,2069031020
69,16,7,Jits_ISO_8,69,9999,9999,9999,2069830744
69,16,7,Jits_ISO_8,70,9999,9999,9999,2070630460
69,16,7,Jits_ISO_8,71,9999,9999,9999,2071430256
69,16,7,Jits_ISO_8,72,9999,9999,9999,2072231012
69,16,7,Jits_ISO_8,73,9999,9999,9999,2073030732
69,16,7,Jits_ISO_8,74,9999,9999,9999,2073830524
69,16,7,Jits_ISO_8,75,9999,9999,9999,2074630236
69,16,7,Jits_ISO_8,76,9999,9999,9999,2075431028
69,16,7,Jits_ISO_8,77,9999,9999,9999,2076230752
69,16,7,Jits_ISO_8,78,9999,9999,9999,2077030456
69,16,7,Jits_ISO_8,79,9999,9999,9999,2077830240
69,16,7,Jits_ISO_8,80,9999,9999,9999,2078631000
69,16,7,Jits_ISO_8,81,9999,9999,9999,2079430780
69,16,7,Jits_ISO_8,82,9999,9999,9999,2080230488
69,16,7,Jits_ISO_8,83,9999,9999,9999,2081030196
69,16,7,Jits_ISO_8,84,9999,9999,9999,2081830988
69,16,7,Jits_ISO_8,85,9999,9999,9999,2082630772
69,16,7,Jits_ISO_8,86,9999,9999,9999,2083430480
69,16,7,Jits_ISO_8,87,9999,9999,9999,2084230260
69,16,7,Jits_ISO_8,88,9999,9999,9999,2085031012
69,16,7,Jits_ISO_8,89,9999,9999,9999,2085830732
69,16,7,Jits_ISO_8,90,9999,9999,9999,2086630520
69,16,7,Jits_ISO_8,91,9999,9999,9999,2087430228
69,16,7,Jits_ISO_8,92,9999,9999,9999,2088231028
69,16,7,Jits_ISO_8,93,9999,9999,9999,2089030736
69,16,7,Jits_ISO_8,94,9999,9999,9999,2089830520
69,16,7,Jits_ISO_8,95,9999,9999,9999,2090630228
69,16,7,Jits_ISO_8,96,9999,9999,9999,2091430980
69,16,7,Jits_ISO_8,97,9999,9999,9999,2092230760
69,16,7,Jits_ISO_8,98,9999,9999,9999,2093030492
69,16,7,Jits_ISO_8,99,9999,9999,9999,2093830204
69,16,7,Jits_ISO_8,100,9999,9999,9999,2094630976
69,16,7,Jits_ISO_8,101,9999,9999,9999,2095430760
69,16,7,Jits_ISO_8,102,9999,9999,9999,2096230464
69,16,7,Jits_ISO_8,103,9999,9999,9999,2097030252
69,16,7,Jits_ISO_8,104,9999,9999,9999,2097831024
69,16,7,Jits_ISO_8,105,9999,9999,9999,2098630736
69,16,7,Jits_ISO_8,106,9999,9999,9999,2099430508
69,16,7,Jits_ISO_8,107,9999,9999,9999,2100230196
69,16,7,Jits_ISO_8,108,9999,9999,9999,2101030980
69,16,7,Jits_ISO_8,109,9999,9999,9999,2101830756
69,16,7,Jits_ISO_8,110,9999,9999,9999,2102630484
69,16,7,Jits_ISO_8,111,9999,9999,9999,2103430268
69,16,7,Jits_ISO_8,112,9999,9999,9999,2104231028
69,16,7,Jits_ISO_8,113,9999,9999,9999,2105030752
69,16,7,Jits_ISO_8,114,9999,9999,9999,2105830460
69,16,7,Jits_ISO_8,115,9999,9999,9999,2106630236
69,16,7,Jits_ISO_8,116,9999,9999,9999,2107431036
69,16,7,Jits_ISO_8,117,9999,9999,9999,2108230764
69,16,7,Jits_ISO_8,118,9999,9999,9999,2109030476
69,16,7,Jits_ISO_8,119,9999,9999,9999,2109830196
69,17,16,Jits_ISO_5,0,5,56,103,2118275664
69,17,16,Jits_ISO_5,1,5,63,98,2118278536
69,17,16,Jits_ISO_5,2,5,80,127,2118281584
69,17,16,Jits_ISO_5,0,5,56,103,2118776132
69,17,16,Jits_ISO_5,1,5,63,98,2118779300
69,17,16,Jits_ISO_5,2,5,80,127,2118782572
69,17,16,Jits_ISO_5,0,5,56,103,2119275868
69,17,16,Jits_ISO_5,1,5,80,127,2119286140
69,17,16,Jits_ISO_5,2,5,63,98,2119305772
69,17,16,Jits_ISO_5,0,5,63,98,2119725560
69,17,16,Jits_ISO_5,1,5,80,127,2119756132
69,17,16,Jits_ISO_5,2,5,56,103,2119766624
69,17,16,Jits_ISO_5,0,1,48,32,2120239776
69,17,16,Jits_ISO_5,1,5,80,127,2120285660
69,17,16,Jits_ISO_5,2,5,56,103,2120295856
69,17,16,Jits_ISO_5,3,5,63,98,2120325600
69,17,16,Jits_ISO_5,0,1,48,33,2120760496
69,17,16,Jits_ISO_5,1,5,63,98,2120776032
69,17,16,Jits_ISO_5,2,5,56,103,2120805784
69,17,16,Jits_ISO_5,3,5,80,127,2120816128
69,17,16,Jits_ISO_5,0,5,56,103,2121225552
69,17,16,Jits_ISO_5,1,1,48,36,2121251836
69,17,16,Jits_ISO_5,2,5,63,98,2121275624
69,17,16,Jits_ISO_5,3,5,80,127,2121296376
69,17,16,Jits_ISO_5,0,1,48,36,2121709604
69,17,16,Jits_ISO_5,1,5,80,127,2121726340
69,17,16,Jits_ISO_5,2,5,63,98,2121775444
69,17,16,Jits_ISO_5,3,5,56,103,2121816560
69,17,16,Jits_ISO_5,0,5,56,103,2122225932
69,17,16,Jits_ISO_5,1,5,63,98,2122255780
69,17,16,Jits_ISO_5,2,1,48,36,2122260772
69,17,16,Jits_ISO_5,3,5,80,127,2122326572
69,17,16,Jits_ISO_5,0,1,48,37,2122715460
69,17,16,Jits_ISO_5,1,5,56,103,2122725820
69,17,16,Jits_ISO_5,2,5,80,127,2122786088
69,17,16,Jits_ISO_5,3,5,63,98,2122816644
69,17,16,Jits_ISO_5,0,5,56,103,2123235676
69,17,16,Jits_ISO_5,1,1,48,35,2123241564
69,17,16,Jits_ISO_5,2,5,63,98,2123245864
69,17,16,Jits_ISO_5,3,5,80,127,2123285752
69,17,16,Jits_ISO_5,0,5,63,98,2123726056
69,17,16,Jits_ISO_5,1,1,48,41,2123744016
69,17,16,Jits_ISO_5,2,5,80,127,2123805944
69,17,16,Jits_ISO_5,3,5,56,103,2123816436
69,17,16,Jits_ISO_5,0,1,48,39,2124225912
69,17,16,Jits_ISO_5,1,5,63,98,2124276204
69,17,16,Jits_ISO_5,2,5,56,103,2124315860
69,17,16,Jits_ISO_5,3,5,80,127,2124319816
69,17,16,Jits_ISO_5,0,5,56,103,2124735708
69,17,16,Jits_ISO_5,1,1,48,36,2124739872
69,17,16,Jits_ISO_5,2,5,63,98,2124746268
69,17,16,Jits_ISO_5,3,5,80,127,2124785908
69,17,16,Jits_ISO_5,0,1,48,39,2125217212
69,17,16,Jits_ISO_5,1,5,56,103,2125226376
69,17,16,Jits_ISO_5,2,5,63,98,2125229516
69,17,16,Jits_ISO_5,3,5,80,127,2125245788
69,17,16,Jits_ISO_5,0,1,48,40,2125712272
69,17,16,Jits_ISO_5,1,5,80,127,2125736508
69,17,16,Jits_ISO_5,2,5,56,103,2125745656
69,17,16,Jits_ISO_5,3,5,63,98,2125816068
69,17,16,Jits_ISO_5,0,1,48,37,2126208344
69,17,16,Jits_ISO_5,1,5,63,98,2126225752
69,17,16,Jits_ISO_5,2,5,56,103,2126246436
69,17,16,Jits_ISO_5,3,5,80,127,2126326060
69,17,16,Jits_ISO_5,0,1,48,38,2126732788
69,17,16,Jits_ISO_5,1,5,56,103,2126735672
69,17,16,Jits_ISO_5,2,5,80,127,2126775684
69,17,16,Jits_ISO_5,3,5,63,98,2126785876
69,17,16,Jits_ISO_5,0,5,80,127,2127226488
69,17,16,Jits_ISO_5,1,1,48,39,2127238528
69,17,16,Jits_ISO_5,2,5,63,98,2127255860
69,17,16,Jits_ISO_5,3,5,56,103,2127295724
69,17,16,Jits_ISO_5,0,5,56,103,2127746612
69,17,16,Jits_ISO_5,1,1,48,38,2127751304
69,17,16,Jits_ISO_5,2,5,63,98,2127776060
69,17,16,Jits_ISO_5,3,5,80,127,2127826556
69,17,16,Jits_ISO_5,0,1,48,32,2128228648
69,17,16,Jits_ISO_5,1,5,80,127,2128246060
69,17,16,Jits_ISO_5,2,5,56,103,2128285924
69,17,16,Jits_ISO_5,3,5,63,98,2128296416
69,17,16,Jits_ISO_5,0,5,80,127,2128726620
69,17,16,Jits_ISO_5,1,1,48,32,2128762924
69,17,16,Jits_ISO_5,2,5,63,98,2128766476
69,17,16,Jits_ISO_5,3,5,56,103,2128825668
69,17,16,Jits_ISO_5,0,5,56,103,2129236480
69,17,16,Jits_ISO_5,1,5,80,127,2129245556
69,17,16,Jits_ISO_5,2,1,48,36,2129288452
69,17,16,Jits_ISO_5,3,5,63,98,2129325636
69,17,16,Jits_ISO_5,0,5,80,127,2129736076
69,17,16,Jits_ISO_5,1,1,48,35,2129788268
69,17,16,Jits_ISO_5,2,5,63,98,2129795340
69,17,16,Jits_ISO_5,3,5,56,103,2129826356
69,17,16,Jits_ISO_5,0,5,56,103,2130235752
69,17,16,Jits_ISO_5,1,1,48,39,2130284728
69,17,16,Jits_ISO_5,2,5,80,127,2130296208
69,17,16,Jits_ISO_5,3,5,63,98,2130336292
69,17,16,Jits_ISO_5,0,1,48,38,2130771864
69,17,16,Jits_ISO_5,1,5,56,103,2130785540
69,17,16,Jits_ISO_5,2,5,63,98,2130795956
69,17,16,Jits_ISO_5,3,5,80,127,2130799540
69,17,16,Jits_ISO_5,0,5,80,127,2131236344
69,17,16,Jits_ISO_5,1,1,48,33,2131296776
69,17,16,Jits_ISO_5,2,5,63,98,2131326320
69,17,16,Jits_ISO_5,3,5,56,103,2131335396
69,17,16,Jits_ISO_5,0,5,56,103,2131735924
69,17,16,Jits_ISO_5,1,5,63,98,2131739320
69,17,16,Jits_ISO_5,2,5,80,127,2131742368
69,17,16,Jits_ISO_5,3,1,48,28,2131779280
69,17,16,Jits_ISO_5,0,5,80,127,2132256040
69,17,16,Jits_ISO_5,1,1,48,35,2132269868
69,17,16,Jits_ISO_5,2,5,63,98,2132306460
69,17,16,Jits_ISO_5,3,5,56,103,2132335836
69,17,16,Jits_ISO_5,0,5,56,103,2132736508
69,17,16,Jits_ISO_5,1,5,80,127,2132745580
69,17,16,Jits_ISO_5,2,1,48,36,2132809476
69,17,16,Jits_ISO_5,3,5,63,98,2132816324
69,17,16,Jits_ISO_5,0,5,56,103,2133246364
69,17,16,Jits_ISO_5,1,5,63,98,2133265728
69,17,16,Jits_ISO_5,2,1,48,34,2133274396
69,17,16,Jits_ISO_5,3,5,80,127,2133326328
69,17,16,Jits_ISO_5,0,5,80,127,2133735776
69,17,16,Jits_ISO_5,1,1,48,32,2133773888
69,17,16,Jits_ISO_5,2,5,63,98,2133805396
69,17,16,Jits_ISO_5,3,5,56,103,2133825928
69,17,16,Jits_ISO_5,0,5,80,127,2134255900
69,17,16,Jits_ISO_5,1,5,56,103,2134266320
69,17,16,Jits_ISO_5,2,1,48,34,2134269736
69,17,16,Jits_ISO_5,3,5,63,98,2134275536
69,17,16,Jits_ISO_5,0,5,80,127,2134745452
69,17,16,Jits_ISO_5,1,5,56,103,2134765836
69,17,16,Jits_ISO_5,2,1,48,36,2134799312
69,17,16,Jits_ISO_5,3,5,63,98,2134835532
69,17,16,Jits_ISO_5,0,5,56,103,2135256436
69,17,16,Jits_ISO_5,1,1,48,41,2135278808
69,17,16,Jits_ISO_5,2,5,80,127,2135286328
69,17,16,Jits_ISO_5,3,5,63,98,2135305516
69,17,16,Jits_ISO_5,0,5,63,98,2135745844
69,17,16,Jits_ISO_5,1,1,48,37,2135767692
69,17,16,Jits_ISO_5,2,5,56,103,2135806300
69,17,16,Jits_ISO_5,3,5,80,127,2135836000
69,17,16,Jits_ISO_5,0,5,63,98,2136236364
69,17,16,Jits_ISO_5,1,5,80,127,2136239652
69,17,16,Jits_ISO_5,2,1,48,40,2136264360
69,17,16,Jits_ISO_5,3,5,56,103,2136325508
69,17,16,Jits_ISO_5,0,1,48,32,2136737624
69,17,16,Jits_ISO_5,1,5,56,103,2136765896
69,17,16,Jits_ISO_5,2,5,63,98,2136795496
69,17,16,Jits_ISO_5,3,5,80,127,2136835432
69,17,16,Jits_ISO_5,0,5,63,98,2137265484
69,17,16,Jits_ISO_5,1,1,48,14,2137270476
69,17,16,Jits_ISO_5,2,5,56,103,2137305344
69,17,16,Jits_ISO_5,3,5,80,127,2137326024
69,17,16,Jits_ISO_5,0,1,48,25,2137749528
69,17,16,Jits_ISO_5,1,5,63,98,2137775404
69,17,16,Jits_ISO_5,2,5,56,103,2137816312
69,17,16,Jits_ISO_5,3,5,80,127,2137825608
69,17,16,Jits_ISO_5,0,5,80,127,2138255588
69,17,16,Jits_ISO_5,1,1,48,30,2138267700
69,17,16,Jits_ISO_5,2,5,63,98,2138326384
69,17,16,Jits_ISO_5,3,5,56,103,2138345796
69,17,16,Jits_ISO_5,0,5,56,103,2138746268
69,17,16,Jits_ISO_5,1,5,80,127,2138765680
69,17,16,Jits_ISO_5,2,5,63,98,2138805544
69,17,16,Jits_ISO_5,3,1,48,38,2138824548
69,17,16,Jits_ISO_5,0,5,63,98,2139256276
69,17,16,Jits_ISO_5,1,5,80,127,2139275540
69,17,16,Jits_ISO_5,2,1,48,39,2139288248
69,17,16,Jits_ISO_5,3,5,56,103,2139315544
69,17,16,Jits_ISO_5,0,5,63,98,2139755936
69,17,16,Jits_ISO_5,1,5,56,103,2139776320
69,17,16,Jits_ISO_5,2,5,80,127,2139785544
69,17,16,Jits_ISO_5,3,1,48,39,2139816308
69,17,16,Jits_ISO_5,0,5,80,127,2140255592
69,17,16,Jits_ISO_5,1,1,48,36,2140269492
69,17,16,Jits_ISO_5,2,5,56,103,2140276192
69,17,16,Jits_ISO_5,3,5,63,98,2140305716
69,17,16,Jits_ISO_5,0,1,48,38,2140790808
69,17,16,Jits_ISO_5,1,5,56,103,2140836164
69,17,16,Jits_ISO_5,2,5,80,127,2140839232
69,17,16,Jits_ISO_5,3,5,63,98,2140855652
69,17,16,Jits_ISO_5,0,5,63,98,2141256184
69,17,16,Jits_ISO_5,1,5,56,103,2141285712
69,17,16,Jits_ISO_5,2,1,48,39,2141340744
69,17,16,Jits_ISO_5,3,5,80,127,2141346392
69,17,16,Jits_ISO_5,0,1,48,40,2141798064
69,17,16,Jits_ISO_5,1,5,63,98,2141835556
69,17,16,Jits_ISO_5,2,5,56,103,2141845748
69,17,16,Jits_ISO_5,3,5,80,127,2141856392
69,17,16,Jits_ISO_5,0,5,56,103,2142286224
69,17,16,Jits_ISO_5,1,5,80,127,2142315900
69,17,16,Jits_ISO_5,2,5,63,98,2142326168
69,17,16,Jits_ISO_5,3,1,48,43,2142413256
69,17,16,Jits_ISO_5,0,5,63,98,2142825980
69,17,16,Jits_ISO_5,1,5,56,103,2142836252
69,17,16,Jits_ISO_5,2,1,48,37,2142855736
69,17,16,Jits_ISO_5,3,5,80,127,2142857148
69,17,16,Jits_ISO_5,0,5,56,103,2143255964
69,17,16,Jits_ISO_5,1,5,63,98,2143316200
69,17,16,Jits_ISO_5,2,5,80,127,2143319568
69,17,16,Jits_ISO_5,3,1,48,43,2143370180
69,17,16,Jits_ISO_5,0,5,80,127,2143776156
69,17,16,Jits_ISO_5,1,5,56,103,2143786276
69,17,16,Jits_ISO_5,2,1,48,44,2143815772
69,17,16,Jits_ISO_5,3,5,63,98,2143856172
69,17,16,Jits_ISO_5,0,5,80,127,2144265540
69,17,16,Jits_ISO_5,1,1,48,38,2144298500
69,17,16,Jits_ISO_5,2,5,56,103,2144336360
69,17,16,Jits_ISO_5,3,5,63,98,2144345508
69,17,16,Jits_ISO_5,0,1,48,37,2144780156
69,17,16,Jits_ISO_5,1,5,63,98,2144806284
69,17,16,Jits_ISO_5,2,5,56,103,2144815436
69,17,16,Jits_ISO_5,3,5,80,127,2144836044
69,17,16,Jits_ISO_5,0,5,80,127,2145255956
69,17,16,Jits_ISO_5,1,1,48,31,2145308392
69,17,16,Jits_ISO_5,2,5,63,98,2145316140
69,17,16,Jits_ISO_5,3,5,56,103,2145356152
69,17,16,Jits_ISO_5,0,5,56,103,2145795416
69,17,16,Jits_ISO_5,1,5,63,98,2145805612
69,17,16,Jits_ISO_5,2,1,48,41,2145814204
69,17,16,Jits_ISO_5,3,5,80,127,2145845692
69,17,16,Jits_ISO_5,0,5,56,103,2146256400
69,17,16,Jits_ISO_5,1,5,80,127,2146286072
69,17,16,Jits_ISO_5,2,1,48,38,2146310392
69,17,16,Jits_ISO_5,3,5,63,98,2146336216
69,17,16,Jits_ISO_5,0,1,48,36,2146744876
69,17,16,Jits_ISO_5,1,5,56,103,2146795992
69,17,16,Jits_ISO_5,2,5,63,98,2146835956
69,17,16,Jits_ISO_5,3,5,80,127,2146840200
69,17,16,Jits_ISO_5,0,1,48,35,2147240400
69,17,16,Jits_ISO_5,1,5,56,103,2147295572
69,17,16,Jits_ISO_5,2,5,63,98,2147305916
69,17,16,Jits_ISO_5,3,5,80,127,2147326224
69,17,16,Jits_ISO_5,0,5,56,103,2147756348
69,17,16,Jits_ISO_5,1,5,80,127,2147759340
69,17,16,Jits_ISO_5,2,1,48,37,2147762008
69,17,16,Jits_ISO_5,3,5,63,98,2147796352
69,17,16,Jits_ISO_5,0,1,48,38,2148273964
69,17,16,Jits_ISO_5,1,5,63,98,2148306276
69,17,16,Jits_ISO_5,2,5,56,103,2148336100
69,17,16,Jits_ISO_5,3,5,80,127,2148355436
69,17,16,Jits_ISO_5,0,5,80,127,2148776424
69,17,16,Jits_ISO_5,1,5,56,103,2148785572
69,17,16,Jits_ISO_5,2,5,63,98,2148795844
69,17,16,Jits_ISO_5,3,1,48,37,2148813560
69,17,16,Jits_ISO_5,0,5,56,103,2149276092
69,17,16,Jits_ISO_5,1,1,48,44,2149301756
69,17,16,Jits_ISO_5,2,5,80,127,2149316248
69,17,16,Jits_ISO_5,3,5,63,98,2149345624
69,17,16,Jits_ISO_5,0,1,48,37,2149776184
69,17,16,Jits_ISO_5,1,5,63,98,2149785948
69,17,16,Jits_ISO_5,2,5,80,127,2149796072
69,17,16,Jits_ISO_5,3,5,56,103,2149805296
69,17,16,Jits_ISO_5,0,1,48,39,2150266356
69,17,16,Jits_ISO_5,1,5,56,103,2150267692
69,17,16,Jits_ISO_5,2,5,63,98,2150336104
69,17,16,Jits_ISO_5,3,5,80,127,2150346224
69,17,16,Jits_ISO_5,0,5,80,127,2150766016
69,17,16,Jits_ISO_5,1,5,56,103,2150776284
69,17,16,Jits_ISO_5,2,1,48,39,2150785480
69,17,16,Jits_ISO_5,3,5,63,98,2150826328
69,17,16,Jits_ISO_5,0,1,48,33,2151239124
69,17,16,Jits_ISO_5,1,5,80,127,2151276016
69,17,16,Jits_ISO_5,2,5,56,103,2151336256
69,17,16,Jits_ISO_5,3,5,63,98,2151366064
69,17,16,Jits_ISO_5,0,5,56,103,2151775532
69,17,16,Jits_ISO_5,1,5,80,127,2151778672
69,17,16,Jits_ISO_5,2,1,48,37,2151780156
69,17,16,Jits_ISO_5,3,5,63,98,2151815460
69,17,16,Jits_ISO_5,0,1,48,31,2152259272
69,17,16,Jits_ISO_5,1,5,56,103,2152316240
69,17,16,Jits_ISO_5,2,5,63,98,2152345916
69,17,16,Jits_ISO_5,3,5,80,127,2152356248
69,17,16,Jits_ISO_5,0,5,63,98,2152826172
69,17,16,Jits_ISO_5,1,1,48,25,2152827136
69,17,16,Jits_ISO_5,2,5,80,127,2152835464
69,17,16,Jits_ISO_5,3,5,56,103,2152845808
69,17,16,Jits_ISO_5,0,5,80,127,2153275860
69,17,16,Jits_ISO_5,1,5,56,103,2153326132
69,17,16,Jits_ISO_5,2,5,63,98,2153329196
69,17,16,Jits_ISO_5,3,1,48,29,2153339736
69,17,16,Jits_ISO_5,0,5,56,103,2153806088
69,17,16,Jits_ISO_5,1,5,80,127,2153825944
69,17,16,Jits_ISO_5,2,5,63,98,2153835992
69,17,16,Jits_ISO_5,3,1,48,28,2153859784
69,17,16,Jits_ISO_5,0,5,63,98,2154285380
69,17,16,Jits_ISO_5,1,5,56,103,2154316104
69,17,16,Jits_ISO_5,2,5,80,127,2154335516
69,17,16,Jits_ISO_5,3,1,48,37,2154338560
69,17,16,Jits_ISO_5,0,5,56,103,2154796424
69,17,16,Jits_ISO_5,1,5,80,127,2154805496
69,17,16,Jits_ISO_5,2,1,48,28,2154823436
69,17,16,Jits_ISO_5,3,5,63,98,2154876364
69,17,16,Jits_ISO_5,0,5,63,98,2155285984
69,17,16,Jits_ISO_5,1,1,48,31,2155288876
69,17,16,Jits_ISO_5,2,5,80,127,2155326064
69,17,16,Jits_ISO_5,3,5,56,103,2155365852
69,17,16,Jits_ISO_5,0,5,56,103,2155795832
69,17,16,Jits_ISO_5,1,5,63,98,2155806180
69,17,16,Jits_ISO_5,2,1,48,24,2155814772
69,17,16,Jits_ISO_5,3,5,80,127,2155825660
69,17,16,Jits_ISO_5,0,1,48,36,2156257912
69,17,16,Jits_ISO_5,1,5,63,98,2156335508
69,17,16,Jits_ISO_5,2,5,80,127,2156355876
69,17,16,Jits_ISO_5,3,5,56,103,2156376408
69,17,16,Jits_ISO_5,0,5,56,103,2156775888
69,17,16,Jits_ISO_5,1,5,80,127,2156855856
69,17,16,Jits_ISO_5,2,5,63,98,2156865976
69,17,16,Jits_ISO_5,3,1,48,22,2156904908
69,17,16,Jits_ISO_5,0,5,80,127,2157315420
69,17,16,Jits_ISO_5,1,5,63,98,2157325940
69,17,16,Jits_ISO_5,2,5,56,103,2157356288
69,17,16,Jits_ISO_5,3,1,48,40,2157388848
69,17,16,Jits_ISO_5,0,5,63,98,2157776128
69,17,16,Jits_ISO_5,1,5,80,127,2157816140
69,17,16,Jits_ISO_5,2,1,48,45,2157828024
69,17,16,Jits_ISO_5,3,5,56,103,2157875428
69,17,16,Jits_ISO_5,0,5,63,98,2158286052
69,17,16,Jits_ISO_5,1,1,48,40,2158301972
69,17,16,Jits_ISO_5,2,5,56,103,2158336320
69,17,16,Jits_ISO_5,3,5,80,127,2158366020
69,17,16,Jits_ISO_5,0,5,80,127,2158796048
69,17,16,Jits_ISO_5,1,5,63,98,2158806392
69,17,16,Jits_ISO_5,2,1,48,35,2158818728
69,17,16,Jits_ISO_5,3,5,56,103,2158875940
69,17,16,Jits_ISO_5,0,1,48,32,2159302348
69,17,16,Jits_ISO_5,1,5,80,127,2159365468
69,17,16,Jits_ISO_5,2,5,56,103,2159375836
69,17,16,Jits_ISO_5,3,5,63,98,2159379052
69,17,16,Jits_ISO_5,0,5,56,103,2159815984
69,17,16,Jits_ISO_5,1,1,48,32,2159817772
69,17,16,Jits_ISO_5,2,5,80,127,2159835464
69,17,16,Jits_ISO_5,3,5,63,98,2159845736
69,17,16,Jits_ISO_5,0,1,48,35,2160289852
69,17,16,Jits_ISO_5,1,5,63,98,2160325992
69,17,16,Jits_ISO_5,2,5,56,103,2160365928
69,17,16,Jits_ISO_5,3,5,80,127,2160386388
69,17,16,Jits_ISO_5,0,1,48,38,2160814244
69,17,16,Jits_ISO_5,1,5,63,98,2160825876
69,17,16,Jits_ISO_5,2,5,56,103,2160886036
69,17,16,Jits_ISO_5,3,5,80,127,2160889252
69,17,16,Jits_ISO_5,0,5,56,103,2161285528
69,17,16,Jits_ISO_5,1,5,80,127,2161305836
69,17,16,Jits_ISO_5,2,1,48,35,2161334956
69,17,16,Jits_ISO_5,3,5,63,98,2161345840
69,17,16,Jits_ISO_5,0,1,48,39,2161763272
69,17,16,Jits_ISO_5,1,5,56,103,2161815904
69,17,16,Jits_ISO_5,2,5,63,98,2161836364
69,17,16,Jits_ISO_5,3,5,80,127,2161845664
69,17,16,Jits_ISO_5,0,1,48,34,2162283084
69,17,16,Jits_ISO_5,1,5,80,127,2162285820
69,17,16,Jits_ISO_5,2,5,56,103,2162315720
69,17,16,Jits_ISO_5,3,5,63,98,2162355656
69,17,16,Jits_ISO_5,0,1,48,35,2162777436
69,17,16,Jits_ISO_5,1,5,80,127,2162795740
69,17,16,Jits_ISO_5,2,5,56,103,2162816348
69,17,16,Jits_ISO_5,3,5,63,98,2162875748
69,17,16,Jits_ISO_5,0,1,48,35,2163283224
69,17,16,Jits_ISO_5,1,5,56,103,2163305736
69,17,16,Jits_ISO_5,2,5,80,127,2163326420
69,17,16,Jits_ISO_5,3,5,63,98,2163385896
69,17,16,Jits_ISO_5,0,1,48,28,2163784468
69,17,16,Jits_ISO_5,1,5,80,127,2163796404
69,17,16,Jits_ISO_5,2,5,56,103,2163805848
69,17,16,Jits_ISO_5,3,5,63,98,2163845640
69,17,16,Jits_ISO_5,0,1,48,27,2164286596
69,17,16,Jits_ISO_5,1,5,63,98,2164295908
69,17,16,Jits_ISO_5,2,5,56,103,2164335996
69,17,16,Jits_ISO_5,3,5,80,127,2164338984
69,17,16,Jits_ISO_5,0,1,48,27,2164806612
69,17,16,Jits_ISO_5,1,5,63,98,2164816228
69,17,16,Jits_ISO_5,2,5,80,127,2164856244
69,17,16,Jits_ISO_5,3,5,56,103,2164885768
69,17,16,Jits_ISO_5,0,5,56,103,2165305780
69,17,16,Jits_ISO_5,1,5,63,98,2165316048
69,17,16,Jits_ISO_5,2,5,80,127,2165345872
69,17,16,Jits_ISO_5,3,1,48,21,2165367716
69,17,16,Jits_ISO_5,0,1,48,40,2165780688
69,17,16,Jits_ISO_5,1,5,80,127,2165796224
69,17,16,Jits_ISO_5,2,5,63,98,2165865832
69,17,16,Jits_ISO_5,3,5,56,103,2165875952
69,17,16,Jits_ISO_5,0,1,48,35,2166268484
69,17,16,Jits_ISO_5,1,5,63,98,2166295808
69,17,16,Jits_ISO_5,2,5,56,103,2166365696
69,17,16,Jits_ISO_5,3,5,80,127,2166375816
69,17,16,Jits_ISO_5,0,1,48,33,2166779228
69,17,16,Jits_ISO_5,1,5,63,98,2166795740
69,17,16,Jits_ISO_5,2,5,56,103,2166816148
69,17,16,Jits_ISO_5,3,5,80,127,2166856160
69,17,16,Jits_ISO_5,0,1,48,28,2167274024
69,17,16,Jits_ISO_5,1,5,56,103,2167305584
69,17,16,Jits_ISO_5,2,5,63,98,2167315732
69,17,16,Jits_ISO_5,3,5,80,127,2167395880
69,17,16,Jits_ISO_5,0,1,48,27,2167757340
69,17,16,Jits_ISO_5,1,5,63,98,2167796028
69,17,16,Jits_ISO_5,2,5,56,103,2167825652
69,17,16,Jits_ISO_5,3,5,80,127,2167865724
69,17,16,Jits_ISO_5,0,1,48,32,2168279840
69,17,16,Jits_ISO_5,1,5,56,103,2168295904
69,17,16,Jits_ISO_5,2,5,63,98,2168335868
69,17,16,Jits_ISO_5,3,5,80,127,2168375728
69,17,16,Jits_ISO_5,0,1,48,24,2168785500
69,17,16,Jits_ISO_5,1,5,80,127,2168795636
69,17,16,Jits_ISO_5,2,5,56,103,2168876652
69,17,16,Jits_ISO_5,3,5,63,98,2168885716
69,17,16,Jits_ISO_5,0,5,56,103,2169336128
69,17,16,Jits_ISO_5,1,5,63,98,2169339344
69,17,16,Jits_ISO_5,2,5,80,127,2169346476
69,17,16,Jits_ISO_5,3,1,48,22,2169407680
69,17,16,Jits_ISO_5,0,1,48,31,2169836888
69,17,16,Jits_ISO_5,1,5,56,103,2169856244
69,17,16,Jits_ISO_5,2,5,63,98,2169875900
69,17,16,Jits_ISO_5,3,5,80,127,2169885948
69,17,16,Jits_ISO_5,0,5,63,98,2170316204
69,17,16,Jits_ISO_5,1,5,80,127,2170326324
69,17,16,Jits_ISO_5,2,5,56,103,2170345884
69,17,16,Jits_ISO_5,3,1,48,33,2170360312
69,17,16,Jits_ISO_5,0,1,48,35,2170806840
69,17,16,Jits_ISO_5,1,5,63,98,2170815928
69,17,16,Jits_ISO_5,2,5,56,103,2170895672
69,17,16,Jits_ISO_5,3,5,80,127,2170898736
69,17,16,Jits_ISO_5,0,1,48,33,2171297052
69,17,16,Jits_ISO_5,1,5,63,98,2171325844
69,17,16,Jits_ISO_5,2,5,56,103,2171346232
69,17,16,Jits_ISO_5,3,5,80,127,2171375980
69,17,16,Jits_ISO_5,0,1,48,29,2171787420
69,17,16,Jits_ISO_5,1,5,56,103,2171825504
69,17,16,Jits_ISO_5,2,5,63,98,2171845888
69,17,16,Jits_ISO_5,3,5,80,127,2171856380
69,17,16,Jits_ISO_5,0,1,48,27,2172306704
69,17,16,Jits_ISO_5,1,5,56,103,2172355952
69,17,16,Jits_ISO_5,2,5,63,98,2172385696
69,17,16,Jits_ISO_5,3,5,80,127,2172388988
69,17,16,Jits_ISO_5,0,1,48,25,2172805036
69,17,16,Jits_ISO_5,1,5,56,103,2172806676
69,17,16,Jits_ISO_5,2,5,63,98,2172845868
69,17,16,Jits_ISO_5,3,5,80,127,2172905720
69,17,16,Jits_ISO_5,0,5,56,103,2173325672
69,17,16,Jits_ISO_5,1,5,63,98,2173335796
69,17,16,Jits_ISO_5,2,5,80,127,2173396260
69,17,16,Jits_ISO_5,0,1,48,25,2173773004
69,17,16,Jits_ISO_5,1,5,56,103,2173826528
69,17,16,Jits_ISO_5,2,5,80,127,2173845868
69,17,16,Jits_ISO_5,3,5,63,98,2173875600
69,17,16,Jits_ISO_5,0,1,48,28,2174256488
69,17,16,Jits_ISO_5,1,5,80,127,2174326188
69,17,16,Jits_ISO_5,2,5,56,103,2174336532
69,17,16,Jits_ISO_5,3,5,63,98,2174355704
69,17,16,Jits_ISO_5,0,1,48,30,2174797048
69,17,16,Jits_ISO_5,1,5,63,98,2174815580
69,17,16,Jits_ISO_5,2,5,80,127,2174895580
69,17,16,Jits_ISO_5,3,5,56,103,2174905704
69,17,16,Jits_ISO_5,0,1,48,29,2175314692
69,17,16,Jits_ISO_5,1,5,80,127,2175385964
69,17,16,Jits_ISO_5,2,5,56,103,2175405672
69,17,16,Jits_ISO_5,3,5,63,98,2175408736
69,17,16,Jits_ISO_5,0,1,48,34,2175846260
69,17,16,Jits_ISO_5,1,5,63,98,2175855872
69,17,16,Jits_ISO_5,2,5,80,127,2175859164
69,17,16,Jits_ISO_5,3,5,56,103,2175916484
69,17,16,Jits_ISO_5,0,1,48,38,2176324936
69,17,16,Jits_ISO_5,1,5,56,103,2176336420
69,17,16,Jits_ISO_5,2,5,80,127,2176345644
69,17,16,Jits_ISO_5,3,5,63,98,2176386628
69,17,16,Jits_ISO_5,0,1,48,36,2176809004
69,17,16,Jits_ISO_5,1,5,56,103,2176815400
69,17,16,Jits_ISO_5,2,5,63,98,2176875792
69,17,16,Jits_ISO_5,3,5,80,127,2176886136
69,17,16,Jits_ISO_5,0,1,48,35,2177303724
69,17,16,Jits_ISO_5,1,5,63,98,2177325544
69,17,16,Jits_ISO_5,2,5,80,127,2177366528
69,17,16,Jits_ISO_5,3,5,56,103,2177406452
69,17,16,Jits_ISO_5,0,1,48,30,2177792996
69,17,16,Jits_ISO_5,1,5,56,103,2177826172
69,17,16,Jits_ISO_5,2,5,63,98,2177906176
69,17,16,Jits_ISO_5,3,5,80,127,2177909536
69,17,16,Jits_ISO_5,0,9999,9999,9999,2118523988
69,17,16,Jits_ISO_5,1,9999,9999,9999,2119023708
69,17,16,Jits_ISO_5,2,9999,9999,9999,2119523448
69,17,16,Jits_ISO_5,3,9999,9999,9999,2120023108
69,17,16,Jits_ISO_5,4,9999,9999,9999,2120523864
69,17,16,Jits_ISO_5,5,9999,9999,9999,2121023600
69,17,16,Jits_ISO_5,6,9999,9999,9999,2121523256
69,17,16,Jits_ISO_5,7,9999,9999,9999,2122024052
69,17,16,Jits_ISO_5,8,9999,9999,9999,2122523712
69,17,16,Jits_ISO_5,9,9999,9999,9999,2123023460
69,17,16,Jits_ISO_5,10,9999,9999,9999,2123523164
69,17,16,Jits_ISO_5,11,9999,9999,9999,2124023888
69,17,16,Jits_ISO_5,12,9999,9999,9999,2124523612
69,17,16,Jits_ISO_5,13,9999,9999,9999,2125023344
69,17,16,Jits_ISO_5,14,9999,9999,9999,2125524052
69,17,16,Jits_ISO_5,15,9999,9999,9999,2126023780
69,17,16,Jits_ISO_5,16,9999,9999,9999,2126523512
69,17,16,Jits_ISO_5,17,9999,9999,9999,2127023168
69,17,16,Jits_ISO_5,18,9999,9999,9999,2127523944
69,17,16,Jits_ISO_5,19,9999,9999,9999,2128023620
69,17,16,Jits_ISO_5,20,9999,9999,9999,2128523368
69,17,16,Jits_ISO_5,21,9999,9999,9999,2129024076
69,17,16,Jits_ISO_5,22,9999,9999,9999,2129534008
69,17,16,Jits_ISO_5,23,9999,9999,9999,2130033756
69,17,16,Jits_ISO_5,24,9999,9999,9999,2130533432
69,17,16,Jits_ISO_5,25,9999,9999,9999,2131033168
69,17,16,Jits_ISO_5,26,9999,9999,9999,2131533876
69,17,16,Jits_ISO_5,27,9999,9999,9999,2132033596
69,17,16,Jits_ISO_5,28,9999,9999,9999,2132533344
69,17,16,Jits_ISO_5,29,9999,9999,9999,2133034060
69,17,16,Jits_ISO_5,30,9999,9999,9999,2133533804
69,17,16,Jits_ISO_5,31,9999,9999,9999,2134033480
69,17,16,Jits_ISO_5,32,9999,9999,9999,2134533200
69,17,16,Jits_ISO_5,33,9999,9999,9999,2135033916
69,17,16,Jits_ISO_5,34,9999,9999,9999,2135533664
69,17,16,Jits_ISO_5,35,9999,9999,9999,2136033340
69,17,16,Jits_ISO_5,36,9999,9999,9999,2136534104
69,17,16,Jits_ISO_5,37,9999,9999,9999,2137044028
69,17,16,Jits_ISO_5,38,9999,9999,9999,2137543760
69,17,16,Jits_ISO_5,39,9999,9999,9999,2138043496
69,17,16,Jits_ISO_5,40,9999,9999,9999,2138543156
69,17,16,Jits_ISO_5,41,9999,9999,9999,2139043944
69,17,16,Jits_ISO_5,42,9999,9999,9999,2139543616
69,17,16,Jits_ISO_5,43,9999,9999,9999,2140043348
69,17,16,Jits_ISO_5,44,9999,9999,9999,2140544124
69,17,16,Jits_ISO_5,45,9999,9999,9999,2141054056
69,17,16,Jits_ISO_5,46,9999,9999,9999,2141553716
69,17,16,Jits_ISO_5,47,9999,9999,9999,2142053452
69,17,16,Jits_ISO_5,48,9999,9999,9999,2142553188
69,17,16,Jits_ISO_5,49,9999,9999,9999,2143053912
69,17,16,Jits_ISO_5,50,9999,9999,9999,2143553636
69,17,16,Jits_ISO_5,51,9999,9999,9999,2144053308
69,17,16,Jits_ISO_5,52,9999,9999,9999,2144554104
69,17,16,Jits_ISO_5,53,9999,9999,9999,2145053780
69,17,16,Jits_ISO_5,54,9999,9999,9999,2145553512
69,17,16,Jits_ISO_5,55,9999,9999,9999,2146053216
69,17,16,Jits_ISO_5,56,9999,9999,9999,2146553928
69,17,16,Jits_ISO_5,57,9999,9999,9999,2147053668
69,17,16,Jits_ISO_5,58,9999,9999,9999,2147553400
69,17,16,Jits_ISO_5,59,9999,9999,9999,2148054092
69,17,16,Jits_ISO_5,60,9999,9999,9999,2148564032
69,17,16,Jits_ISO_5,61,9999,9999,9999,2149063760
69,17,16,Jits_ISO_5,62,9999,9999,9999,2149563508
69,17,16,Jits_ISO_5,63,9999,9999,9999,2150063180
69,17,16,Jits_ISO_5,64,9999,9999,9999,2150563960
69,17,16,Jits_ISO_5,65,9999,9999,9999,2151063616
69,17,16,Jits_ISO_5,66,9999,9999,9999,2151563368
69,17,16,Jits_ISO_5,67,9999,9999,9999,2152064056
69,17,16,Jits_ISO_5,68,9999,9999,9999,2152574072
69,17,16,Jits_ISO_5,69,9999,9999,9999,2153073732
69,17,16,Jits_ISO_5,70,9999,9999,9999,2153573452
69,17,16,Jits_ISO_5,71,9999,9999,9999,2154073200
69,17,16,Jits_ISO_5,72,9999,9999,9999,2154573916
69,17,16,Jits_ISO_5,73,9999,9999,9999,2155073652
69,17,16,Jits_ISO_5,74,9999,9999,9999,2155573324
69,17,16,Jits_ISO_5,75,9999,9999,9999,2156074108
69,17,16,Jits_ISO_5,76,9999,9999,9999,2156573784
69,17,16,Jits_ISO_5,77,9999,9999,9999,2157073520
69,17,16,Jits_ISO_5,78,9999,9999,9999,2157573244
69,17,16,Jits_ISO_5,79,9999,9999,9999,2158073956
69,17,16,Jits_ISO_5,80,9999,9999,9999,2158573692
69,17,16,Jits_ISO_5,81,9999,9999,9999,2159073352
69,17,16,Jits_ISO_5,82,9999,9999,9999,2159574068
69,17,16,Jits_ISO_5,83,9999,9999,9999,2160084068
69,17,16,Jits_ISO_5,84,9999,9999,9999,2160583748
69,17,16,Jits_ISO_5,85,9999,9999,9999,2161083476
69,17,16,Jits_ISO_5,86,9999,9999,9999,2161583204
69,17,16,Jits_ISO_5,87,9999,9999,9999,2162083920
69,17,16,Jits_ISO_5,88,9999,9999,9999,2162583652
69,17,16,Jits_ISO_5,89,9999,9999,9999,2163083388
69,17,16,Jits_ISO_5,90,9999,9999,9999,2163584092
69,17,16,Jits_ISO_5,91,9999,9999,9999,2164094012
69,17,16,Jits_ISO_5,92,9999,9999,9999,2164593732
69,17,16,Jits_ISO_5,93,9999,9999,9999,2165093464
69,17,16,Jits_ISO_5,94,9999,9999,9999,2165593192
69,17,16,Jits_ISO_5,95,9999,9999,9999,2166093912
69,17,16,Jits_ISO_5,96,9999,9999,9999,2166593644
69,17,16,Jits_ISO_5,97,9999,9999,9999,2167093372
69,17,16,Jits_ISO_5,98,9999,9999,9999,2167594076
69,17,16,Jits_ISO_5,99,9999,9999,9999,2168093808
69,17,16,Jits_ISO_5,100,9999,9999,9999,2168593468
69,17,16,Jits_ISO_5,101,9999,9999,9999,2169093176
69,17,16,Jits_ISO_5,102,9999,9999,9999,2169593944
69,17,16,Jits_ISO_5,103,9999,9999,9999,2170093620
69,17,16,Jits_ISO_5,104,9999,9999,9999,2170593352
69,17,16,Jits_ISO_5,105,9999,9999,9999,2171094128
69,17,16,Jits_ISO_5,106,9999,9999,9999,2171604052
69,17,16,Jits_ISO_5,107,9999,9999,9999,2172103780
69,17,16,Jits_ISO_5,108,9999,9999,9999,2172603508
69,17,16,Jits_ISO_5,109,9999,9999,9999,2173103168
69,17,16,Jits_ISO_5,110,9999,9999,9999,2173603896
69,17,16,Jits_ISO_5,111,9999,9999,9999,2174103612
69,17,16,Jits_ISO_5,112,9999,9999,9999,2174603344
69,17,16,Jits_ISO_5,113,9999,9999,9999,2175104052
69,17,16,Jits_ISO_5,114,9999,9999,9999,2175614044
69,17,16,Jits_ISO_5,115,9999,9999,9999,2176113772
69,17,16,Jits_ISO_5,116,9999,9999,9999,2176613428
69,17,16,Jits_ISO_5,117,9999,9999,9999,2177113160
69,17,16,Jits_ISO_5,118,9999,9999,9999,2177613940
69,17,16,Jits_ISO_5,119,9999,9999,9999,2178113588
69,18,15,Jits_Phase_8,0,5,56,103,2188194340
69,18,15,Jits_Phase_8,1,5,63,98,2188197440
69,18,15,Jits_Phase_8,2,5,80,127,2188200632
69,18,15,Jits_Phase_8,0,5,56,103,2188993836
69,18,15,Jits_Phase_8,1,5,63,98,2188996932
69,18,15,Jits_Phase_8,2,5,80,127,2188999904
69,18,15,Jits_Phase_8,0,5,80,127,2189734452
69,18,15,Jits_Phase_8,1,5,63,98,2189824364
69,18,15,Jits_Phase_8,2,5,56,103,2189833512
69,18,15,Jits_Phase_8,0,5,56,103,2190553568
69,18,15,Jits_Phase_8,1,5,63,98,2190563692
69,18,15,Jits_Phase_8,2,1,48,27,2190573708
69,18,15,Jits_Phase_8,3,5,80,127,2190653764
69,18,15,Jits_Phase_8,0,1,48,21,2191235528
69,18,15,Jits_Phase_8,1,5,63,98,2191323512
69,18,15,Jits_Phase_8,2,5,80,127,2191354372
69,18,15,Jits_Phase_8,3,5,56,103,2191383772
69,18,15,Jits_Phase_8,0,1,48,31,2192066896
69,18,15,Jits_Phase_8,1,5,56,103,2192124388
69,18,15,Jits_Phase_8,2,5,80,127,2192223600
69,18,15,Jits_Phase_8,3,5,63,98,2192273724
69,18,15,Jits_Phase_8,0,1,48,40,2192892064
69,18,15,Jits_Phase_8,1,5,56,103,2192924244
69,18,15,Jits_Phase_8,2,5,80,127,2192974372
69,18,15,Jits_Phase_8,3,5,63,98,2193014072
69,18,15,Jits_Phase_8,0,1,48,40,2193718196
69,18,15,Jits_Phase_8,1,5,80,127,2193753444
69,18,15,Jits_Phase_8,2,5,63,98,2193784316
69,18,15,Jits_Phase_8,3,5,56,103,2193853908
69,18,15,Jits_Phase_8,0,1,48,38,2194511136
69,18,15,Jits_Phase_8,1,5,63,98,2194583848
69,18,15,Jits_Phase_8,2,5,56,103,2194613656
69,18,15,Jits_Phase_8,3,5,80,127,2194674344
69,18,15,Jits_Phase_8,0,5,56,103,2195324120
69,18,15,Jits_Phase_8,1,5,80,127,2195327268
69,18,15,Jits_Phase_8,2,1,48,35,2195331900
69,18,15,Jits_Phase_8,3,5,63,98,2195444280
69,18,15,Jits_Phase_8,0,1,48,42,2196117260
69,18,15,Jits_Phase_8,1,5,56,103,2196203976
69,18,15,Jits_Phase_8,2,5,80,127,2196243852
69,18,15,Jits_Phase_8,3,5,63,98,2196254196
69,18,15,Jits_Phase_8,0,1,48,42,2196937404
69,18,15,Jits_Phase_8,1,5,56,103,2196963660
69,18,15,Jits_Phase_8,2,5,80,127,2196984268
69,18,15,Jits_Phase_8,3,5,63,98,2197064144
69,18,15,Jits_Phase_8,0,1,48,46,2197751244
69,18,15,Jits_Phase_8,1,5,80,127,2197754276
69,18,15,Jits_Phase_8,2,1,48,27,2197807452
69,18,15,Jits_Phase_8,3,5,56,103,2197853412
69,18,15,Jits_Phase_8,4,5,63,98,2197863976
69,18,15,Jits_Phase_8,0,5,63,98,2198524408
69,18,15,Jits_Phase_8,1,1,48,47,2198550772
69,18,15,Jits_Phase_8,2,5,80,127,2198583772
69,18,15,Jits_Phase_8,3,5,56,103,2198594116
69,18,15,Jits_Phase_8,4,1,48,27,2198603144
69,18,15,Jits_Phase_8,0,1,48,45,2199314148
69,18,15,Jits_Phase_8,1,5,56,103,2199324064
69,18,15,Jits_Phase_8,2,5,63,98,2199393748
69,18,15,Jits_Phase_8,3,5,80,127,2199397108
69,18,15,Jits_Phase_8,0,1,48,46,2200030400
69,18,15,Jits_Phase_8,1,5,63,98,2200153540
69,18,15,Jits_Phase_8,2,5,56,103,2200203744
69,18,15,Jits_Phase_8,3,5,80,127,2200207032
69,18,15,Jits_Phase_8,0,1,48,47,2200839220
69,18,15,Jits_Phase_8,1,5,56,103,2200914344
69,18,15,Jits_Phase_8,2,5,80,127,2200917260
69,18,15,Jits_Phase_8,3,5,63,98,2201004384
69,18,15,Jits_Phase_8,0,1,48,47,2201651956
69,18,15,Jits_Phase_8,1,5,63,98,2201753932
69,18,15,Jits_Phase_8,2,5,56,103,2201844068
69,18,15,Jits_Phase_8,3,5,80,127,2201873988
69,18,15,Jits_Phase_8,0,5,56,103,2202543452
69,18,15,Jits_Phase_8,1,1,48,40,2202560268
69,18,15,Jits_Phase_8,2,5,63,98,2202643940
69,18,15,Jits_Phase_8,3,5,80,127,2202673376
69,18,15,Jits_Phase_8,0,5,63,98,2203363904
69,18,15,Jits_Phase_8,1,5,56,103,2203374100
69,18,15,Jits_Phase_8,2,1,48,46,2203380208
69,18,15,Jits_Phase_8,3,5,80,127,2203464024
69,18,15,Jits_Phase_8,0,1,48,45,2204124372
69,18,15,Jits_Phase_8,1,5,63,98,2204184060
69,18,15,Jits_Phase_8,2,5,56,103,2204263836
69,18,15,Jits_Phase_8,3,5,80,127,2204267052
69,18,15,Jits_Phase_8,0,5,80,127,2204943664
69,18,15,Jits_Phase_8,1,1,48,40,2204946332
69,18,15,Jits_Phase_8,2,5,63,98,2204964192
69,18,15,Jits_Phase_8,3,5,56,103,2205023460
69,18,15,Jits_Phase_8,0,1,48,48,2205703524
69,18,15,Jits_Phase_8,1,5,56,103,2205784412
69,18,15,Jits_Phase_8,2,5,63,98,2205804176
69,18,15,Jits_Phase_8,3,5,80,127,2205807468
69,18,15,Jits_Phase_8,0,1,48,49,2206503520
69,18,15,Jits_Phase_8,1,5,63,98,2206523772
69,18,15,Jits_Phase_8,2,5,80,127,2206603780
69,18,15,Jits_Phase_8,3,5,56,103,2206614124
69,18,15,Jits_Phase_8,0,1,48,52,2207284324
69,18,15,Jits_Phase_8,1,5,63,98,2207343912
69,18,15,Jits_Phase_8,2,5,56,103,2207363400
69,18,15,Jits_Phase_8,3,5,80,127,2207413508
69,18,15,Jits_Phase_8,0,5,80,127,2208143820
69,18,15,Jits_Phase_8,1,1,48,49,2208175932
69,18,15,Jits_Phase_8,2,5,63,98,2208183604
69,18,15,Jits_Phase_8,3,5,56,103,2208204060
69,18,15,Jits_Phase_8,0,1,48,49,2208980560
69,18,15,Jits_Phase_8,1,5,56,103,2208984492
69,18,15,Jits_Phase_8,2,5,63,98,2208994012
69,18,15,Jits_Phase_8,3,5,80,127,2209014100
69,18,15,Jits_Phase_8,0,5,56,103,2209713456
69,18,15,Jits_Phase_8,1,1,48,49,2209800252
69,18,15,Jits_Phase_8,2,5,63,98,2209803608
69,18,15,Jits_Phase_8,3,5,80,127,2209863996
69,18,15,Jits_Phase_8,0,1,48,56,2210515740
69,18,15,Jits_Phase_8,1,5,80,127,2210543936
69,18,15,Jits_Phase_8,2,5,56,103,2210554136
69,18,15,Jits_Phase_8,3,5,63,98,2210624048
69,18,15,Jits_Phase_8,0,1,48,59,2211268584
69,18,15,Jits_Phase_8,1,5,63,98,2211373300
69,18,15,Jits_Phase_8,2,5,80,127,2211463508
69,18,15,Jits_Phase_8,3,5,56,103,2211474004
69,18,15,Jits_Phase_8,0,5,63,98,2212103684
69,18,15,Jits_Phase_8,1,1,48,46,2212129744
69,18,15,Jits_Phase_8,2,5,80,127,2212153832
69,18,15,Jits_Phase_8,3,5,56,103,2212214220
69,18,15,Jits_Phase_8,0,5,56,103,2212923844
69,18,15,Jits_Phase_8,1,1,48,52,2212947268
69,18,15,Jits_Phase_8,2,5,80,127,2212973816
69,18,15,Jits_Phase_8,3,5,63,98,2212994572
69,18,15,Jits_Phase_8,0,5,56,103,2213694016
69,18,15,Jits_Phase_8,1,1,48,54,2213743668
69,18,15,Jits_Phase_8,2,5,80,127,2213754252
69,18,15,Jits_Phase_8,3,5,63,98,2213823932
69,18,15,Jits_Phase_8,0,5,56,103,2214493640
69,18,15,Jits_Phase_8,1,1,48,53,2214500724
69,18,15,Jits_Phase_8,2,5,80,127,2214524208
69,18,15,Jits_Phase_8,3,5,63,98,2214553956
69,18,15,Jits_Phase_8,0,1,48,47,2215248188
69,18,15,Jits_Phase_8,1,5,56,103,2215334156
69,18,15,Jits_Phase_8,2,5,80,127,2215353852
69,18,15,Jits_Phase_8,3,5,63,98,2215414164
69,18,15,Jits_Phase_8,0,1,48,48,2216011992
69,18,15,Jits_Phase_8,1,5,80,127,2216213860
69,18,15,Jits_Phase_8,2,5,56,103,2216224056
69,18,15,Jits_Phase_8,3,5,63,98,2216234328
69,18,15,Jits_Phase_8,0,5,56,103,2216973792
69,18,15,Jits_Phase_8,1,1,48,47,2217004556
69,18,15,Jits_Phase_8,2,5,80,127,2217013872
69,18,15,Jits_Phase_8,3,5,63,98,2217044368
69,18,15,Jits_Phase_8,0,5,56,103,2217743676
69,18,15,Jits_Phase_8,1,5,63,98,2217773724
69,18,15,Jits_Phase_8,2,5,80,127,2217814260
69,18,15,Jits_Phase_8,3,1,48,38,2217817824
69,18,15,Jits_Phase_8,0,1,48,43,2218464348
69,18,15,Jits_Phase_8,1,5,80,127,2218494264
69,18,15,Jits_Phase_8,2,5,63,98,2218543520
69,18,15,Jits_Phase_8,3,5,56,103,2218563964
69,18,15,Jits_Phase_8,0,1,48,34,2219264396
69,18,15,Jits_Phase_8,1,5,56,103,2219323860
69,18,15,Jits_Phase_8,2,5,80,127,2219394500
69,18,15,Jits_Phase_8,3,5,63,98,2219453916
69,18,15,Jits_Phase_8,0,5,80,127,2220123624
69,18,15,Jits_Phase_8,1,1,48,44,2220204292
69,18,15,Jits_Phase_8,2,5,63,98,2220213900
69,18,15,Jits_Phase_8,3,5,56,103,2220234064
69,18,15,Jits_Phase_8,0,5,63,98,2220943708
69,18,15,Jits_Phase_8,1,5,56,103,2220964168
69,18,15,Jits_Phase_8,2,5,80,127,2221004176
69,18,15,Jits_Phase_8,3,1,48,44,2221023708
69,18,15,Jits_Phase_8,0,1,48,47,2221669996
69,18,15,Jits_Phase_8,1,5,80,127,2221703820
69,18,15,Jits_Phase_8,2,5,63,98,2221723984
69,18,15,Jits_Phase_8,3,5,56,103,2221804056
69,18,15,Jits_Phase_8,0,1,48,46,2222489308
69,18,15,Jits_Phase_8,1,5,63,98,2222494064
69,18,15,Jits_Phase_8,2,5,56,103,2222603608
69,18,15,Jits_Phase_8,3,5,80,127,2222606824
69,18,15,Jits_Phase_8,0,5,63,98,2223314272
69,18,15,Jits_Phase_8,1,5,56,103,2223323640
69,18,15,Jits_Phase_8,2,5,80,127,2223326632
69,18,15,Jits_Phase_8,3,1,48,39,2223357548
69,18,15,Jits_Phase_8,0,1,48,48,2224040996
69,18,15,Jits_Phase_8,1,5,56,103,2224093772
69,18,15,Jits_Phase_8,2,5,80,127,2224214260
69,18,15,Jits_Phase_8,3,5,63,98,2224254420
69,18,15,Jits_Phase_8,0,5,56,103,2224913720
69,18,15,Jits_Phase_8,1,1,48,39,2224935792
69,18,15,Jits_Phase_8,2,5,80,127,2224993584
69,18,15,Jits_Phase_8,3,5,63,98,2225014116
69,18,15,Jits_Phase_8,0,5,56,103,2225713716
69,18,15,Jits_Phase_8,1,1,48,43,2225717360
69,18,15,Jits_Phase_8,2,5,63,98,2225824204
69,18,15,Jits_Phase_8,3,5,80,127,2225827716
69,18,15,Jits_Phase_8,0,1,48,42,2226529028
69,18,15,Jits_Phase_8,1,5,56,103,2226554088
69,18,15,Jits_Phase_8,2,5,80,127,2226584060
69,18,15,Jits_Phase_8,3,5,63,98,2226604520
69,18,15,Jits_Phase_8,0,5,63,98,2227343664
69,18,15,Jits_Phase_8,1,1,48,45,2227348580
69,18,15,Jits_Phase_8,2,5,56,103,2227353852
69,18,15,Jits_Phase_8,3,5,80,127,2227364272
69,18,15,Jits_Phase_8,0,5,80,127,2228134348
69,18,15,Jits_Phase_8,1,1,48,45,2228143088
69,18,15,Jits_Phase_8,2,5,56,103,2228184616
69,18,15,Jits_Phase_8,3,5,63,98,2228224480
69,18,15,Jits_Phase_8,0,5,80,127,2228953600
69,18,15,Jits_Phase_8,1,5,63,98,2228973840
69,18,15,Jits_Phase_8,2,1,48,47,2228976660
69,18,15,Jits_Phase_8,3,5,56,103,2229023980
69,18,15,Jits_Phase_8,0,5,80,127,2229763488
69,18,15,Jits_Phase_8,1,5,56,103,2229794232
69,18,15,Jits_Phase_8,2,1,48,47,2229808884
69,18,15,Jits_Phase_8,3,5,63,98,2229863756
69,18,15,Jits_Phase_8,0,1,48,45,2230601752
69,18,15,Jits_Phase_8,1,5,56,103,2230614820
69,18,15,Jits_Phase_8,2,5,80,127,2230623524
69,18,15,Jits_Phase_8,3,5,63,98,2230663684
69,18,15,Jits_Phase_8,0,5,56,103,2231323940
69,18,15,Jits_Phase_8,1,5,63,98,2231343652
69,18,15,Jits_Phase_8,2,1,48,48,2231413780
69,18,15,Jits_Phase_8,3,5,80,127,2231415416
69,18,15,Jits_Phase_8,0,1,48,46,2232071196
69,18,15,Jits_Phase_8,1,5,63,98,2232144304
69,18,15,Jits_Phase_8,2,5,80,127,2232203560
69,18,15,Jits_Phase_8,3,5,56,103,2232224240
69,18,15,Jits_Phase_8,0,5,80,127,2232933660
69,18,15,Jits_Phase_8,1,1,48,42,2232940512
69,18,15,Jits_Phase_8,2,5,56,103,2232963400
69,18,15,Jits_Phase_8,3,5,63,98,2232994420
69,18,15,Jits_Phase_8,0,1,48,41,2233732748
69,18,15,Jits_Phase_8,1,5,56,103,2233734392
69,18,15,Jits_Phase_8,2,5,63,98,2233793888
69,18,15,Jits_Phase_8,3,5,80,127,2233854260
69,18,15,Jits_Phase_8,0,1,48,45,2234497484
69,18,15,Jits_Phase_8,1,5,80,127,2234553708
69,18,15,Jits_Phase_8,2,5,56,103,2234574464
69,18,15,Jits_Phase_8,3,5,63,98,2234643780
69,18,15,Jits_Phase_8,0,1,48,46,2235300604
69,18,15,Jits_Phase_8,1,5,80,127,2235353540
69,18,15,Jits_Phase_8,2,5,63,98,2235374000
69,18,15,Jits_Phase_8,3,5,56,103,2235403608
69,18,15,Jits_Phase_8,0,1,48,47,2236093328
69,18,15,Jits_Phase_8,1,5,80,127,2236143856
69,18,15,Jits_Phase_8,2,5,63,98,2236163488
69,18,15,Jits_Phase_8,3,5,56,103,2236223812
69,18,15,Jits_Phase_8,0,5,80,127,2236943864
69,18,15,Jits_Phase_8,1,1,48,44,2236945432
69,18,15,Jits_Phase_8,2,5,56,103,2237043944
69,18,15,Jits_Phase_8,3,5,63,98,2237073692
69,18,15,Jits_Phase_8,0,5,63,98,2237734348
69,18,15,Jits_Phase_8,1,5,80,127,2237784552
69,18,15,Jits_Phase_8,2,5,56,103,2237803816
69,18,15,Jits_Phase_8,3,1,48,43,2237854432
69,18,15,Jits_Phase_8,0,1,48,46,2238482464
69,18,15,Jits_Phase_8,1,5,80,127,2238574036
69,18,15,Jits_Phase_8,2,5,56,103,2238603696
69,18,15,Jits_Phase_8,3,5,63,98,2238606612
69,18,15,Jits_Phase_8,0,1,48,42,2239292324
69,18,15,Jits_Phase_8,1,5,63,98,2239423748
69,18,15,Jits_Phase_8,2,5,56,103,2239463760
69,18,15,Jits_Phase_8,3,5,80,127,2239484292
69,18,15,Jits_Phase_8,0,1,48,35,2240174352
69,18,15,Jits_Phase_8,1,5,80,127,2240183592
69,18,15,Jits_Phase_8,2,5,63,98,2240263536
69,18,15,Jits_Phase_8,3,5,56,103,2240303384
69,18,15,Jits_Phase_8,0,5,63,98,2241003788
69,18,15,Jits_Phase_8,1,1,48,46,2241059444
69,18,15,Jits_Phase_8,2,5,80,127,2241083752
69,18,15,Jits_Phase_8,3,5,56,103,2241104212
69,18,15,Jits_Phase_8,0,5,56,103,2241843584
69,18,15,Jits_Phase_8,1,1,48,48,2241849916
69,18,15,Jits_Phase_8,2,5,63,98,2241853700
69,18,15,Jits_Phase_8,3,5,80,127,2241893712
69,18,15,Jits_Phase_8,0,5,56,103,2242563392
69,18,15,Jits_Phase_8,1,5,80,127,2242566460
69,18,15,Jits_Phase_8,2,1,48,36,2242618820
69,18,15,Jits_Phase_8,3,5,63,98,2242703732
69,18,15,Jits_Phase_8,0,1,48,41,2243352144
69,18,15,Jits_Phase_8,1,5,56,103,2243353880
69,18,15,Jits_Phase_8,2,5,63,98,2243444236
69,18,15,Jits_Phase_8,3,5,80,127,2243513756
69,18,15,Jits_Phase_8,0,1,48,44,2244121612
69,18,15,Jits_Phase_8,1,5,63,98,2244233716
69,18,15,Jits_Phase_8,2,5,80,127,2244237004
69,18,15,Jits_Phase_8,3,5,56,103,2244294104
69,18,15,Jits_Phase_8,0,1,48,40,2244943700
69,18,15,Jits_Phase_8,1,5,80,127,2245074448
69,18,15,Jits_Phase_8,2,5,56,103,2245093712
69,18,15,Jits_Phase_8,3,5,63,98,2245104132
69,18,15,Jits_Phase_8,0,1,48,40,2245763772
69,18,15,Jits_Phase_8,1,5,56,103,2245783876
69,18,15,Jits_Phase_8,2,5,63,98,2245794144
69,18,15,Jits_Phase_8,3,5,80,127,2245863736
69,18,15,Jits_Phase_8,0,1,48,44,2246490016
69,18,15,Jits_Phase_8,1,5,80,127,2246583556
69,18,15,Jits_Phase_8,2,5,56,103,2246633968
69,18,15,Jits_Phase_8,3,5,63,98,2246684116
69,18,15,Jits_Phase_8,0,1,48,34,2247330008
69,18,15,Jits_Phase_8,1,5,56,103,2247464240
69,18,15,Jits_Phase_8,2,5,63,98,2247473540
69,18,15,Jits_Phase_8,3,5,80,127,2247513624
69,18,15,Jits_Phase_8,0,5,56,103,2248203640
69,18,15,Jits_Phase_8,1,1,48,32,2248231696
69,18,15,Jits_Phase_8,2,5,63,98,2248243572
69,18,15,Jits_Phase_8,3,5,80,127,2248293624
69,18,15,Jits_Phase_8,0,5,80,127,2248963384
69,18,15,Jits_Phase_8,1,1,48,37,2248971408
69,18,15,Jits_Phase_8,2,5,56,103,2249013604
69,18,15,Jits_Phase_8,3,5,63,98,2249034436
69,18,15,Jits_Phase_8,0,1,48,40,2249768604
69,18,15,Jits_Phase_8,1,5,80,127,2249773360
69,18,15,Jits_Phase_8,2,5,63,98,2249834124
69,18,15,Jits_Phase_8,3,5,56,103,2249914048
69,18,15,Jits_Phase_8,0,5,80,127,2250553572
69,18,15,Jits_Phase_8,1,5,56,103,2250593584
69,18,15,Jits_Phase_8,2,5,63,98,2250614116
69,18,15,Jits_Phase_8,3,1,48,38,2250617160
69,18,15,Jits_Phase_8,0,1,48,35,2251372488
69,18,15,Jits_Phase_8,1,5,56,103,2251403604
69,18,15,Jits_Phase_8,2,5,80,127,2251414172
69,18,15,Jits_Phase_8,3,5,63,98,2251453664
69,18,15,Jits_Phase_8,0,1,48,39,2252198308
69,18,15,Jits_Phase_8,1,5,56,103,2252274236
69,18,15,Jits_Phase_8,2,5,63,98,2252313960
69,18,15,Jits_Phase_8,3,5,80,127,2252317172
69,18,15,Jits_Phase_8,0,5,63,98,2252943868
69,18,15,Jits_Phase_8,1,5,80,127,2252983880
69,18,15,Jits_Phase_8,2,1,48,40,2253020852
69,18,15,Jits_Phase_8,3,5,56,103,2253054376
69,18,15,Jits_Phase_8,0,5,63,98,2253713732
69,18,15,Jits_Phase_8,1,1,48,39,2253727940
69,18,15,Jits_Phase_8,2,5,56,103,2253794044
69,18,15,Jits_Phase_8,3,5,80,127,2253854220
69,18,15,Jits_Phase_8,0,1,48,38,2254486860
69,18,15,Jits_Phase_8,1,5,80,127,2254524044
69,18,15,Jits_Phase_8,2,5,63,98,2254574024
69,18,15,Jits_Phase_8,3,5,56,103,2254603560
69,18,15,Jits_Phase_8,0,1,48,36,2255307960
69,18,15,Jits_Phase_8,1,5,56,103,2255314432
69,18,15,Jits_Phase_8,2,5,63,98,2255363368
69,18,15,Jits_Phase_8,3,5,80,127,2255373736
69,18,15,Jits_Phase_8,0,1,48,35,2256084420
69,18,15,Jits_Phase_8,1,5,56,103,2256124228
69,18,15,Jits_Phase_8,2,5,63,98,2256234000
69,18,15,Jits_Phase_8,3,5,80,127,2256254384
69,18,15,Jits_Phase_8,0,1,48,38,2256872044
69,18,15,Jits_Phase_8,1,5,63,98,2256924012
69,18,15,Jits_Phase_8,2,5,80,127,2256974200
69,18,15,Jits_Phase_8,3,5,56,103,2257064256
69,18,15,Jits_Phase_8,0,5,63,98,2257713512
69,18,15,Jits_Phase_8,1,1,48,38,2257719920
69,18,15,Jits_Phase_8,2,5,80,127,2257744304
69,18,15,Jits_Phase_8,3,5,56,103,2257834272
69,18,15,Jits_Phase_8,0,5,63,98,2258514320
69,18,15,Jits_Phase_8,1,5,56,103,2258523468
69,18,15,Jits_Phase_8,2,1,48,29,2258531376
69,18,15,Jits_Phase_8,3,5,80,127,2258624004
69,18,15,Jits_Phase_8,0,1,48,40,2259313968
69,18,15,Jits_Phase_8,1,5,63,98,2259414520
69,18,15,Jits_Phase_8,2,5,80,127,2259444196
69,18,15,Jits_Phase_8,3,5,56,103,2259474044
69,18,15,Jits_Phase_8,0,1,48,33,2260169088
69,18,15,Jits_Phase_8,1,5,80,127,2260233656
69,18,15,Jits_Phase_8,2,5,63,98,2260243852
69,18,15,Jits_Phase_8,3,5,56,103,2260273512
69,18,15,Jits_Phase_8,0,5,80,127,2260933984
69,18,15,Jits_Phase_8,1,5,63,98,2260953396
69,18,15,Jits_Phase_8,2,5,56,103,2261003844
69,18,15,Jits_Phase_8,3,1,48,37,2261054540
69,18,15,Jits_Phase_8,0,1,48,38,2261645984
69,18,15,Jits_Phase_8,1,5,63,98,2261763624
69,18,15,Jits_Phase_8,2,5,80,127,2261823892
69,18,15,Jits_Phase_8,3,5,56,103,2261844280
69,18,15,Jits_Phase_8,0,1,48,35,2262505984
69,18,15,Jits_Phase_8,1,5,63,98,2262524216
69,18,15,Jits_Phase_8,2,5,56,103,2262573400
69,18,15,Jits_Phase_8,3,5,80,127,2262583892
69,18,15,Jits_Phase_8,0,1,48,34,2263283560
69,18,15,Jits_Phase_8,1,5,56,103,2263353964
69,18,15,Jits_Phase_8,2,5,80,127,2263364160
69,18,15,Jits_Phase_8,3,5,63,98,2263464244
69,18,15,Jits_Phase_8,0,5,80,127,2264113424
69,18,15,Jits_Phase_8,1,5,63,98,2264123696
69,18,15,Jits_Phase_8,2,1,48,38,2264154084
69,18,15,Jits_Phase_8,3,5,56,103,2264274260
69,18,15,Jits_Phase_8,0,5,63,98,2264923384
69,18,15,Jits_Phase_8,1,5,80,127,2264963400
69,18,15,Jits_Phase_8,2,1,48,36,2264973184
69,18,15,Jits_Phase_8,3,5,56,103,2265044380
69,18,15,Jits_Phase_8,0,1,48,34,2265653808
69,18,15,Jits_Phase_8,1,5,56,103,2265674208
69,18,15,Jits_Phase_8,2,5,80,127,2265773616
69,18,15,Jits_Phase_8,3,5,63,98,2265794000
69,18,15,Jits_Phase_8,0,1,48,29,2266410620
69,18,15,Jits_Phase_8,1,5,80,127,2266503916
69,18,15,Jits_Phase_8,2,5,56,103,2266513740
69,18,15,Jits_Phase_8,3,5,63,98,2266603944
69,18,15,Jits_Phase_8,0,1,48,32,2267221612
69,18,15,Jits_Phase_8,1,5,56,103,2267304440
69,18,15,Jits_Phase_8,2,5,63,98,2267323692
69,18,15,Jits_Phase_8,3,5,80,127,2267403656
69,18,15,Jits_Phase_8,0,1,48,39,2268005128
69,18,15,Jits_Phase_8,1,5,63,98,2268053932
69,18,15,Jits_Phase_8,2,5,56,103,2268144120
69,18,15,Jits_Phase_8,3,5,80,127,2268147112
69,18,15,Jits_Phase_8,0,1,48,27,2268817304
69,18,15,Jits_Phase_8,1,5,56,103,2268884392
69,18,15,Jits_Phase_8,2,5,80,127,2268943676
69,18,15,Jits_Phase_8,3,5,63,98,2268954092
69,18,15,Jits_Phase_8,0,1,48,26,2269602388
69,18,15,Jits_Phase_8,1,5,80,127,2269734208
69,18,15,Jits_Phase_8,2,5,56,103,2269743808
69,18,15,Jits_Phase_8,3,5,63,98,2269746720
69,18,15,Jits_Phase_8,0,1,48,30,2270404384
69,18,15,Jits_Phase_8,1,5,56,103,2270494040
69,18,15,Jits_Phase_8,2,5,80,127,2270504372
69,18,15,Jits_Phase_8,3,5,63,98,2270523636
69,18,15,Jits_Phase_8,0,1,48,35,2271199708
69,18,15,Jits_Phase_8,1,5,63,98,2271264052
69,18,15,Jits_Phase_8,2,5,80,127,2271323608
69,18,15,Jits_Phase_8,3,5,56,103,2271373808
69,18,15,Jits_Phase_8,0,1,48,35,2271940732
69,18,15,Jits_Phase_8,1,5,63,98,2272143668
69,18,15,Jits_Phase_8,2,5,56,103,2272153936
69,18,15,Jits_Phase_8,3,5,80,127,2272204284
69,18,15,Jits_Phase_8,0,5,63,98,2272844184
69,18,15,Jits_Phase_8,1,5,80,127,2272863816
69,18,15,Jits_Phase_8,2,5,56,103,2272873792
69,18,15,Jits_Phase_8,3,1,48,29,2272942688
69,18,15,Jits_Phase_8,0,1,48,37,2273568444
69,18,15,Jits_Phase_8,1,5,63,98,2273643848
69,18,15,Jits_Phase_8,2,5,80,127,2273647284
69,18,15,Jits_Phase_8,3,5,56,103,2273683772
69,18,15,Jits_Phase_8,0,1,48,36,2274353808
69,18,15,Jits_Phase_8,1,5,63,98,2274514376
69,18,15,Jits_Phase_8,2,5,80,127,2274543976
69,18,15,Jits_Phase_8,3,5,56,103,2274554320
69,18,15,Jits_Phase_8,0,1,48,35,2275245496
69,18,15,Jits_Phase_8,1,5,56,103,2275263804
69,18,15,Jits_Phase_8,2,5,80,127,2275293628
69,18,15,Jits_Phase_8,3,5,63,98,2275324128
69,18,15,Jits_Phase_8,0,1,48,37,2276050040
69,18,15,Jits_Phase_8,1,5,63,98,2276163964
69,18,15,Jits_Phase_8,2,5,56,103,2276203824
69,18,15,Jits_Phase_8,3,5,80,127,2276206964
69,18,15,Jits_Phase_8,0,5,80,127,2276864372
69,18,15,Jits_Phase_8,1,1,48,35,2276882508
69,18,15,Jits_Phase_8,2,5,56,103,2276944336
69,18,15,Jits_Phase_8,3,5,63,98,2276994520
69,18,15,Jits_Phase_8,0,5,80,127,2277643716
69,18,15,Jits_Phase_8,1,5,56,103,2277664100
69,18,15,Jits_Phase_8,2,5,63,98,2277754084
69,18,15,Jits_Phase_8,3,1,48,38,2277782828
69,18,15,Jits_Phase_8,0,1,48,34,2278402672
69,18,15,Jits_Phase_8,1,5,80,127,2278484384
69,18,15,Jits_Phase_8,2,5,63,98,2278524528
69,18,15,Jits_Phase_8,3,5,56,103,2278564096
69,18,15,Jits_Phase_8,0,5,63,98,2279294260
69,18,15,Jits_Phase_8,1,1,48,35,2279303680
69,18,15,Jits_Phase_8,2,5,80,127,2279353824
69,18,15,Jits_Phase_8,3,5,56,103,2279384396
69,18,15,Jits_Phase_8,0,5,56,103,2280133872
69,18,15,Jits_Phase_8,1,1,48,37,2280156020
69,18,15,Jits_Phase_8,2,5,80,127,2280163692
69,18,15,Jits_Phase_8,3,5,63,98,2280254128
69,18,15,Jits_Phase_8,0,5,56,103,2280944056
69,18,15,Jits_Phase_8,1,1,48,40,2281000240
69,18,15,Jits_Phase_8,2,5,80,127,2281053540
69,18,15,Jits_Phase_8,3,1,48,19,2281076496
69,18,15,Jits_Phase_8,4,5,63,98,2281084388
69,18,15,Jits_Phase_8,0,1,48,40,2281761304
69,18,15,Jits_Phase_8,1,5,56,103,2281793856
69,18,15,Jits_Phase_8,2,1,48,24,2281818080
69,18,15,Jits_Phase_8,3,5,63,98,2281854748
69,18,15,Jits_Phase_8,4,5,80,127,2281883976
69,18,15,Jits_Phase_8,0,5,56,103,2282563988
69,18,15,Jits_Phase_8,1,1,48,35,2282580508
69,18,15,Jits_Phase_8,2,5,63,98,2282633740
69,18,15,Jits_Phase_8,3,5,80,127,2282654048
69,18,15,Jits_Phase_8,0,5,80,127,2283334020
69,18,15,Jits_Phase_8,1,1,48,38,2283347032
69,18,15,Jits_Phase_8,2,5,63,98,2283353576
69,18,15,Jits_Phase_8,3,5,56,103,2283403776
69,18,15,Jits_Phase_8,4,1,48,19,2283438860
69,18,15,Jits_Phase_8,0,1,48,25,2284135660
69,18,15,Jits_Phase_8,1,5,63,98,2284154340
69,18,15,Jits_Phase_8,2,5,80,127,2284163488
69,18,15,Jits_Phase_8,3,5,56,103,2284213616
69,18,15,Jits_Phase_8,0,1,48,33,2284931752
69,18,15,Jits_Phase_8,1,5,63,98,2284954024
69,18,15,Jits_Phase_8,2,5,80,127,2285024588
69,18,15,Jits_Phase_8,3,5,56,103,2285044148
69,18,15,Jits_Phase_8,0,1,48,38,2285778324
69,18,15,Jits_Phase_8,1,5,63,98,2285784424
69,18,15,Jits_Phase_8,2,5,80,127,2285787788
69,18,15,Jits_Phase_8,3,5,56,103,2285853980
69,18,15,Jits_Phase_8,0,5,80,127,2286533984
69,18,15,Jits_Phase_8,1,5,56,103,2286553396
69,18,15,Jits_Phase_8,2,5,63,98,2286563816
69,18,15,Jits_Phase_8,3,1,48,37,2286614536
69,18,15,Jits_Phase_8,0,1,48,40,2287268980
69,18,15,Jits_Phase_8,1,5,56,103,2287354496
69,18,15,Jits_Phase_8,2,5,63,98,2287444488
69,18,15,Jits_Phase_8,3,5,80,127,2287447628
69,18,15,Jits_Phase_8,0,1,48,28,2288117208
69,18,15,Jits_Phase_8,1,5,80,127,2288124280
69,18,15,Jits_Phase_8,2,5,56,103,2288133504
69,18,15,Jits_Phase_8,3,5,63,98,2288153912
69,18,15,Jits_Phase_8,0,1,48,31,2288900768
69,18,15,Jits_Phase_8,1,5,63,98,2288924056
69,18,15,Jits_Phase_8,2,5,80,127,2288984520
69,18,15,Jits_Phase_8,3,5,56,103,2288993652
69,18,15,Jits_Phase_8,0,1,48,34,2289650024
69,18,15,Jits_Phase_8,1,5,63,98,2289794516
69,18,15,Jits_Phase_8,2,5,80,127,2289824264
69,18,15,Jits_Phase_8,3,5,56,103,2289864428
69,18,15,Jits_Phase_8,0,5,56,103,2290583816
69,18,15,Jits_Phase_8,1,1,48,33,2290587380
69,18,15,Jits_Phase_8,2,5,80,127,2290594376
69,18,15,Jits_Phase_8,3,5,63,98,2290634312
69,18,15,Jits_Phase_8,0,5,80,127,2291343804
69,18,15,Jits_Phase_8,1,1,48,42,2291399212
69,18,15,Jits_Phase_8,2,5,56,103,2291423596
69,18,15,Jits_Phase_8,3,5,63,98,2291433792
69,18,15,Jits_Phase_8,0,5,80,127,2292193628
69,18,15,Jits_Phase_8,1,1,48,49,2292218992
69,18,15,Jits_Phase_8,2,5,56,103,2292273740
69,18,15,Jits_Phase_8,3,5,63,98,2292283784
69,18,15,Jits_Phase_8,0,1,48,46,2293009804
69,18,15,Jits_Phase_8,1,5,80,127,2293034260
69,18,15,Jits_Phase_8,2,5,56,103,2293083492
69,18,15,Jits_Phase_8,3,5,63,98,2293133676
69,18,15,Jits_Phase_8,0,1,48,48,2293798092
69,18,15,Jits_Phase_8,1,5,56,103,2293974324
69,18,15,Jits_Phase_8,2,5,63,98,2293977392
69,18,15,Jits_Phase_8,3,5,80,127,2294023652
69,18,15,Jits_Phase_8,0,1,48,42,2294734284
69,18,15,Jits_Phase_8,1,5,56,103,2294793524
69,18,15,Jits_Phase_8,2,5,63,98,2294824320
69,18,15,Jits_Phase_8,3,5,80,127,2294833456
69,18,15,Jits_Phase_8,0,5,63,98,2295504408
69,18,15,Jits_Phase_8,1,1,48,46,2295539364
69,18,15,Jits_Phase_8,2,5,56,103,2295573812
69,18,15,Jits_Phase_8,3,5,80,127,2295624308
69,18,15,Jits_Phase_8,0,5,63,98,2296333640
69,18,15,Jits_Phase_8,1,1,48,40,2296340576
69,18,15,Jits_Phase_8,2,5,56,103,2296343904
69,18,15,Jits_Phase_8,3,5,80,127,2296346892
69,18,15,Jits_Phase_8,0,5,80,127,2297084208
69,18,15,Jits_Phase_8,1,1,48,40,2297116344
69,18,15,Jits_Phase_8,2,5,56,103,2297143796
69,18,15,Jits_Phase_8,3,5,63,98,2297233688
69,18,15,Jits_Phase_8,0,5,80,127,2297884232
69,18,15,Jits_Phase_8,1,1,48,28,2297901596
69,18,15,Jits_Phase_8,2,5,56,103,2297984324
69,18,15,Jits_Phase_8,3,5,63,98,2298024248
69,18,15,Jits_Phase_8,0,5,56,103,2298734052
69,18,15,Jits_Phase_8,1,1,48,41,2298747508
69,18,15,Jits_Phase_8,2,5,63,98,2298754356
69,18,15,Jits_Phase_8,3,5,80,127,2298794292
69,18,15,Jits_Phase_8,0,1,48,41,2299496032
69,18,15,Jits_Phase_8,1,5,63,98,2299504152
69,18,15,Jits_Phase_8,2,5,56,103,2299523488
69,18,15,Jits_Phase_8,3,5,80,127,2299623720
69,18,15,Jits_Phase_8,0,1,48,49,2300238244
69,18,15,Jits_Phase_8,1,5,63,98,2300293420
69,18,15,Jits_Phase_8,2,1,48,31,2300300416
69,18,15,Jits_Phase_8,3,5,80,127,2300404192
69,18,15,Jits_Phase_8,4,5,56,103,2300433672
69,18,15,Jits_Phase_8,0,5,56,103,2301113672
69,18,15,Jits_Phase_8,1,5,63,98,2301144396
69,18,15,Jits_Phase_8,2,1,48,44,2301149904
69,18,15,Jits_Phase_8,3,5,80,127,2301193568
69,18,15,Jits_Phase_8,0,5,63,98,2301884000
69,18,15,Jits_Phase_8,1,1,48,56,2301886748
69,18,15,Jits_Phase_8,2,5,56,103,2301913448
69,18,15,Jits_Phase_8,3,5,80,127,2301963672
69,18,15,Jits_Phase_8,0,1,48,46,2302655176
69,18,15,Jits_Phase_8,1,5,56,103,2302714240
69,18,15,Jits_Phase_8,2,5,63,98,2302733604
69,18,15,Jits_Phase_8,3,5,80,127,2302813604
69,18,15,Jits_Phase_8,0,1,48,45,2303448264
69,18,15,Jits_Phase_8,1,5,63,98,2303484404
69,18,15,Jits_Phase_8,2,5,56,103,2303543624
69,18,15,Jits_Phase_8,3,5,80,127,2303574556
69,18,15,Jits_Phase_8,0,1,48,40,2304244132
69,18,15,Jits_Phase_8,1,5,56,103,2304324120
69,18,15,Jits_Phase_8,2,5,80,127,2304384424
69,18,15,Jits_Phase_8,3,5,63,98,2304424360
69,18,15,Jits_Phase_8,0,5,63,98,2305104112
69,18,15,Jits_Phase_8,1,1,48,38,2305112112
69,18,15,Jits_Phase_8,2,5,56,103,2305163524
69,18,15,Jits_Phase_8,3,5,80,127,2305234232
69,18,15,Jits_Phase_8,0,1,48,33,2305946992
69,18,15,Jits_Phase_8,1,5,56,103,2305983956
69,18,15,Jits_Phase_8,2,5,63,98,2305994076
69,18,15,Jits_Phase_8,3,5,80,127,2305997436
69,18,15,Jits_Phase_8,0,1,48,37,2306700280
69,18,15,Jits_Phase_8,1,5,63,98,2306724220
69,18,15,Jits_Phase_8,2,5,56,103,2306783484
69,18,15,Jits_Phase_8,3,5,80,127,2306786704
69,18,15,Jits_Phase_8,0,1,48,41,2307500188
69,18,15,Jits_Phase_8,1,5,63,98,2307503592
69,18,15,Jits_Phase_8,2,5,80,127,2307534168
69,18,15,Jits_Phase_8,3,5,56,103,2307553580
69,18,15,Jits_Phase_8,4,1,48,20,2307573316
69,18,15,Jits_Phase_8,0,5,56,103,2308233556
69,18,15,Jits_Phase_8,1,1,48,27,2308269032
69,18,15,Jits_Phase_8,2,5,63,98,2308283828
69,18,15,Jits_Phase_8,3,5,80,127,2308363644
69,18,15,Jits_Phase_8,0,5,80,127,2308934144
69,18,15,Jits_Phase_8,1,1,48,36,2308948348
69,18,15,Jits_Phase_8,2,5,63,98,2308974076
69,18,15,Jits_Phase_8,3,5,56,103,2308994312
69,18,15,Jits_Phase_8,0,1,48,31,2309702940
69,18,15,Jits_Phase_8,1,5,56,103,2309804316
69,18,15,Jits_Phase_8,2,5,80,127,2309813540
69,18,15,Jits_Phase_8,3,5,63,98,2309834148
69,18,15,Jits_Phase_8,0,1,48,29,2310508832
69,18,15,Jits_Phase_8,1,5,56,103,2310583640
69,18,15,Jits_Phase_8,2,5,63,98,2310634048
69,18,15,Jits_Phase_8,3,5,80,127,2310663524
69,18,15,Jits_Phase_8,0,1,48,29,2311251048
69,18,15,Jits_Phase_8,1,5,56,103,2311334248
69,18,15,Jits_Phase_8,2,5,63,98,2311343532
69,18,15,Jits_Phase_8,3,5,80,127,2311393804
69,18,15,Jits_Phase_8,0,1,48,27,2312019036
69,18,15,Jits_Phase_8,1,5,56,103,2312123716
69,18,15,Jits_Phase_8,2,5,80,127,2312126708
69,18,15,Jits_Phase_8,3,5,63,98,2312283912
69,18,15,Jits_Phase_8,0,1,48,23,2312823884
69,18,15,Jits_Phase_8,1,5,63,98,2312943916
69,18,15,Jits_Phase_8,2,5,56,103,2313013476
69,18,15,Jits_Phase_8,3,5,80,127,2313053488
69,18,15,Jits_Phase_8,0,1,48,25,2313713852
69,18,15,Jits_Phase_8,1,5,63,98,2313783948
69,18,15,Jits_Phase_8,2,5,56,103,2313873844
69,18,15,Jits_Phase_8,3,5,80,127,2313876836
69,18,15,Jits_Phase_8,0,1,48,19,2314542024
69,18,15,Jits_Phase_8,1,5,56,103,2314563924
69,18,15,Jits_Phase_8,2,5,63,98,2314654044
69,18,15,Jits_Phase_8,3,5,80,127,2314664168
69,18,15,Jits_Phase_8,0,5,56,103,2315334028
69,18,15,Jits_Phase_8,1,5,63,98,2315384080
69,18,15,Jits_Phase_8,2,1,48,28,2315390340
69,18,15,Jits_Phase_8,3,5,80,127,2315413972
69,18,15,Jits_Phase_8,0,1,48,26,2316172952
69,18,15,Jits_Phase_8,1,5,63,98,2316213884
69,18,15,Jits_Phase_8,2,5,80,127,2316223928
69,18,15,Jits_Phase_8,3,5,56,103,2316284376
69,18,15,Jits_Phase_8,0,5,63,98,2316933636
69,18,15,Jits_Phase_8,1,5,80,127,2316993952
69,18,15,Jits_Phase_8,2,5,56,103,2317033892
69,18,15,Jits_Phase_8,3,1,48,27,2317086180
69,18,15,Jits_Phase_8,0,1,48,29,2317755236
69,18,15,Jits_Phase_8,1,5,56,103,2317833880
69,18,15,Jits_Phase_8,2,5,80,127,2317853952
69,18,15,Jits_Phase_8,3,5,63,98,2317873664
69,18,15,Jits_Phase_8,0,5,63,98,2318553612
69,18,15,Jits_Phase_8,1,5,56,103,2318573924
69,18,15,Jits_Phase_8,2,5,80,127,2318613808
69,18,15,Jits_Phase_8,3,1,48,41,2318631896
69,18,15,Jits_Phase_8,0,5,63,98,2319363332
69,18,15,Jits_Phase_8,1,1,48,26,2319368864
69,18,15,Jits_Phase_8,2,5,80,127,2319394144
69,18,15,Jits_Phase_8,3,5,56,103,2319413856
69,18,15,Jits_Phase_8,0,1,48,40,2320108200
69,18,15,Jits_Phase_8,1,5,80,127,2320133580
69,18,15,Jits_Phase_8,2,5,56,103,2320183708
69,18,15,Jits_Phase_8,3,5,63,98,2320244008
69,18,15,Jits_Phase_8,0,1,48,29,2320897988
69,18,15,Jits_Phase_8,1,5,63,98,2320924044
69,18,15,Jits_Phase_8,2,5,56,103,2321043832
69,18,15,Jits_Phase_8,3,5,80,127,2321073508
69,18,15,Jits_Phase_8,0,5,80,127,2321763664
69,18,15,Jits_Phase_8,1,1,48,43,2321780556
69,18,15,Jits_Phase_8,2,5,63,98,2321784264
69,18,15,Jits_Phase_8,3,5,56,103,2321853868
69,18,15,Jits_Phase_8,0,1,48,32,2322576136
69,18,15,Jits_Phase_8,1,5,63,98,2322584104
69,18,15,Jits_Phase_8,2,5,56,103,2322594152
69,18,15,Jits_Phase_8,3,5,80,127,2322674004
69,18,15,Jits_Phase_8,0,1,48,40,2323331624
69,18,15,Jits_Phase_8,1,5,56,103,2323444016
69,18,15,Jits_Phase_8,2,5,80,127,2323473716
69,18,15,Jits_Phase_8,3,5,63,98,2323484132
69,18,15,Jits_Phase_8,0,9999,9999,9999,2188591180
69,18,15,Jits_Phase_8,1,9999,9999,9999,2189391944
69,18,15,Jits_Phase_8,2,9999,9999,9999,2190191728
69,18,15,Jits_Phase_8,3,9999,9999,9999,2190991440
69,18,15,Jits_Phase_8,4,9999,9999,9999,2191791208
69,18,15,Jits_Phase_8,5,9999,9999,9999,2192591940
69,18,15,Jits_Phase_8,6,9999,9999,9999,2193391692
69,18,15,Jits_Phase_8,7,9999,9999,9999,2194191476
69,18,15,Jits_Phase_8,8,9999,9999,9999,2194991164
69,18,15,Jits_Phase_8,9,9999,9999,9999,2195791960
69,18,15,Jits_Phase_8,10,9999,9999,9999,2196591740
69,18,15,Jits_Phase_8,11,9999,9999,9999,2197391428
69,18,15,Jits_Phase_8,12,9999,9999,9999,2198191168
69,18,15,Jits_Phase_8,13,9999,9999,9999,2198991928
69,18,15,Jits_Phase_8,14,9999,9999,9999,2199791728
69,18,15,Jits_Phase_8,15,9999,9999,9999,2200591428
69,18,15,Jits_Phase_8,16,9999,9999,9999,2201391172
69,18,15,Jits_Phase_8,17,9999,9999,9999,2202191980
69,18,15,Jits_Phase_8,18,9999,9999,9999,2202991740
69,18,15,Jits_Phase_8,19,9999,9999,9999,2203791440
69,18,15,Jits_Phase_8,20,9999,9999,9999,2204591196
69,18,15,Jits_Phase_8,21,9999,9999,9999,2205391928
69,18,15,Jits_Phase_8,22,9999,9999,9999,2206191692
69,18,15,Jits_Phase_8,23,9999,9999,9999,2206991472
69,18,15,Jits_Phase_8,24,9999,9999,9999,2207791228
69,18,15,Jits_Phase_8,25,9999,9999,9999,2208591956
69,18,15,Jits_Phase_8,26,9999,9999,9999,2209391732
69,18,15,Jits_Phase_8,27,9999,9999,9999,2210191488
69,18,15,Jits_Phase_8,28,9999,9999,9999,2210991184
69,18,15,Jits_Phase_8,29,9999,9999,9999,2211791996
69,18,15,Jits_Phase_8,30,9999,9999,9999,2212571224
69,18,15,Jits_Phase_8,31,9999,9999,9999,2213372028
69,18,15,Jits_Phase_8,32,9999,9999,9999,2214171748
69,18,15,Jits_Phase_8,33,9999,9999,9999,2214971516
69,18,15,Jits_Phase_8,34,9999,9999,9999,2215771208
69,18,15,Jits_Phase_8,35,9999,9999,9999,2216572020
69,18,15,Jits_Phase_8,36,9999,9999,9999,2217371712
69,18,15,Jits_Phase_8,37,9999,9999,9999,2218171484
69,18,15,Jits_Phase_8,38,9999,9999,9999,2218971248
69,18,15,Jits_Phase_8,39,9999,9999,9999,2219771980
69,18,15,Jits_Phase_8,40,9999,9999,9999,2220571764
69,18,15,Jits_Phase_8,41,9999,9999,9999,2221371464
69,18,15,Jits_Phase_8,42,9999,9999,9999,2222171216
69,18,15,Jits_Phase_8,43,9999,9999,9999,2222972012
69,18,15,Jits_Phase_8,44,9999,9999,9999,2223771756
69,18,15,Jits_Phase_8,45,9999,9999,9999,2224571516
69,18,15,Jits_Phase_8,46,9999,9999,9999,2225371200
69,18,15,Jits_Phase_8,47,9999,9999,9999,2226172012
69,18,15,Jits_Phase_8,48,9999,9999,9999,2226991216
69,18,15,Jits_Phase_8,49,9999,9999,9999,2227791944
69,18,15,Jits_Phase_8,50,9999,9999,9999,2228591700
69,18,15,Jits_Phase_8,51,9999,9999,9999,2229391472
69,18,15,Jits_Phase_8,52,9999,9999,9999,2230191172
69,18,15,Jits_Phase_8,53,9999,9999,9999,2230991924
69,18,15,Jits_Phase_8,54,9999,9999,9999,2231791680
69,18,15,Jits_Phase_8,55,9999,9999,9999,2232591476
69,18,15,Jits_Phase_8,56,9999,9999,9999,2233391160
69,18,15,Jits_Phase_8,57,9999,9999,9999,2234191980
69,18,15,Jits_Phase_8,58,9999,9999,9999,2234991736
69,18,15,Jits_Phase_8,59,9999,9999,9999,2235791416
69,18,15,Jits_Phase_8,60,9999,9999,9999,2236591172
69,18,15,Jits_Phase_8,61,9999,9999,9999,2237391980
69,18,15,Jits_Phase_8,62,9999,9999,9999,2238191680
69,18,15,Jits_Phase_8,63,9999,9999,9999,2238991456
69,18,15,Jits_Phase_8,64,9999,9999,9999,2239831152
69,18,15,Jits_Phase_8,65,9999,9999,9999,2240631864
69,18,15,Jits_Phase_8,66,9999,9999,9999,2241431628
69,18,15,Jits_Phase_8,67,9999,9999,9999,2242231392
69,18,15,Jits_Phase_8,68,9999,9999,9999,2243031148
69,18,15,Jits_Phase_8,69,9999,9999,9999,2243831896
69,18,15,Jits_Phase_8,70,9999,9999,9999,2244631672
69,18,15,Jits_Phase_8,71,9999,9999,9999,2245431364
69,18,15,Jits_Phase_8,72,9999,9999,9999,2246231120
69,18,15,Jits_Phase_8,73,9999,9999,9999,2247031924
69,18,15,Jits_Phase_8,74,9999,9999,9999,2247831616
69,18,15,Jits_Phase_8,75,9999,9999,9999,2248631376
69,18,15,Jits_Phase_8,76,9999,9999,9999,2249431148
69,18,15,Jits_Phase_8,77,9999,9999,9999,2250231892
69,18,15,Jits_Phase_8,78,9999,9999,9999,2251031668
69,18,15,Jits_Phase_8,79,9999,9999,9999,2251831368
69,18,15,Jits_Phase_8,80,9999,9999,9999,2252631132
69,18,15,Jits_Phase_8,81,9999,9999,9999,2253391932
69,18,15,Jits_Phase_8,82,9999,9999,9999,2254191688
69,18,15,Jits_Phase_8,83,9999,9999,9999,2254991444
69,18,15,Jits_Phase_8,84,9999,9999,9999,2255791196
69,18,15,Jits_Phase_8,85,9999,9999,9999,2256591932
69,18,15,Jits_Phase_8,86,9999,9999,9999,2257391688
69,18,15,Jits_Phase_8,87,9999,9999,9999,2258191468
69,18,15,Jits_Phase_8,88,9999,9999,9999,2258991224
69,18,15,Jits_Phase_8,89,9999,9999,9999,2259791960
69,18,15,Jits_Phase_8,90,9999,9999,9999,2260591728
69,18,15,Jits_Phase_8,91,9999,9999,9999,2261391484
69,18,15,Jits_Phase_8,92,9999,9999,9999,2262191188
69,18,15,Jits_Phase_8,93,9999,9999,9999,2262991988
69,18,15,Jits_Phase_8,94,9999,9999,9999,2263791672
69,18,15,Jits_Phase_8,95,9999,9999,9999,2264591452
69,18,15,Jits_Phase_8,96,9999,9999,9999,2265391224
69,18,15,Jits_Phase_8,97,9999,9999,9999,2266112068
69,18,15,Jits_Phase_8,98,9999,9999,9999,2266922108
69,18,15,Jits_Phase_8,99,9999,9999,9999,2267721796
69,18,15,Jits_Phase_8,100,9999,9999,9999,2268521544
69,18,15,Jits_Phase_8,101,9999,9999,9999,2269321300
69,18,15,Jits_Phase_8,102,9999,9999,9999,2270122096
69,18,15,Jits_Phase_8,103,9999,9999,9999,2270921852
69,18,15,Jits_Phase_8,104,9999,9999,9999,2271721540
69,18,15,Jits_Phase_8,105,9999,9999,9999,2272521328
69,18,15,Jits_Phase_8,106,9999,9999,9999,2273322052
69,18,15,Jits_Phase_8,107,9999,9999,9999,2274121792
69,18,15,Jits_Phase_8,108,9999,9999,9999,2274921556
69,18,15,Jits_Phase_8,109,9999,9999,9999,2275721308
69,18,15,Jits_Phase_8,110,9999,9999,9999,2276522040
69,18,15,Jits_Phase_8,111,9999,9999,9999,2277321800
69,18,15,Jits_Phase_8,112,9999,9999,9999,2278121568
69,18,15,Jits_Phase_8,113,9999,9999,9999,2278921288
69,18,15,Jits_Phase_8,114,9999,9999,9999,2279801952
69,18,15,Jits_Phase_8,115,9999,9999,9999,2280601712
69,18,15,Jits_Phase_8,116,9999,9999,9999,2281401468
69,18,15,Jits_Phase_8,117,9999,9999,9999,2282201204
69,18,15,Jits_Phase_8,118,9999,9999,9999,2283001916
69,18,15,Jits_Phase_8,119,9999,9999,9999,2283801684
69,18,15,Jits_Phase_8,120,9999,9999,9999,2284601436
69,18,15,Jits_Phase_8,121,9999,9999,9999,2285401196
69,18,15,Jits_Phase_8,122,9999,9999,9999,2286201920
69,18,15,Jits_Phase_8,123,9999,9999,9999,2287001668
69,18,15,Jits_Phase_8,124,9999,9999,9999,2287801436
69,18,15,Jits_Phase_8,125,9999,9999,9999,2288601188
69,18,15,Jits_Phase_8,126,9999,9999,9999,2289401912
69,18,15,Jits_Phase_8,127,9999,9999,9999,2290201700
69,18,15,Jits_Phase_8,128,9999,9999,9999,2291001460
69,18,15,Jits_Phase_8,129,9999,9999,9999,2291801160
69,18,15,Jits_Phase_8,130,9999,9999,9999,2292601912
69,18,15,Jits_Phase_8,131,9999,9999,9999,2293561440
69,18,15,Jits_Phase_8,132,9999,9999,9999,2294361196
69,18,15,Jits_Phase_8,133,9999,9999,9999,2295161932
69,18,15,Jits_Phase_8,134,9999,9999,9999,2295961692
69,18,15,Jits_Phase_8,135,9999,9999,9999,2296761436
69,18,15,Jits_Phase_8,136,9999,9999,9999,2297561192
69,18,15,Jits_Phase_8,137,9999,9999,9999,2298361940
69,18,15,Jits_Phase_8,138,9999,9999,9999,2299161664
69,18,15,Jits_Phase_8,139,9999,9999,9999,2299961436
69,18,15,Jits_Phase_8,140,9999,9999,9999,2300761176
69,18,15,Jits_Phase_8,141,9999,9999,9999,2301561960
69,18,15,Jits_Phase_8,142,9999,9999,9999,2302361728
69,18,15,Jits_Phase_8,143,9999,9999,9999,2303161412
69,18,15,Jits_Phase_8,144,9999,9999,9999,2303961168
69,18,15,Jits_Phase_8,145,9999,9999,9999,2304761980
69,18,15,Jits_Phase_8,146,9999,9999,9999,2305561692
69,18,15,Jits_Phase_8,147,9999,9999,9999,2306361444
69,18,15,Jits_Phase_8,148,9999,9999,9999,2307161196
69,18,15,Jits_Phase_8,149,9999,9999,9999,2307961976
69,18,15,Jits_Phase_8,150,9999,9999,9999,2308601964
69,18,15,Jits_Phase_8,151,9999,9999,9999,2309401684
69,18,15,Jits_Phase_8,152,9999,9999,9999,2310201456
69,18,15,Jits_Phase_8,153,9999,9999,9999,2311001144
69,18,15,Jits_Phase_8,154,9999,9999,9999,2311801940
69,18,15,Jits_Phase_8,155,9999,9999,9999,2312601684
69,18,15,Jits_Phase_8,156,9999,9999,9999,2313401444
69,18,15,Jits_Phase_8,157,9999,9999,9999,2314201200
69,18,15,Jits_Phase_8,158,9999,9999,9999,2315001932
69,18,15,Jits_Phase_8,159,9999,9999,9999,2315801716
69,18,15,Jits_Phase_8,160,9999,9999,9999,2316601420
69,18,15,Jits_Phase_8,161,9999,9999,9999,2317401180
69,18,15,Jits_Phase_8,162,9999,9999,9999,2318201916
69,18,15,Jits_Phase_8,163,9999,9999,9999,2319001672
69,18,15,Jits_Phase_8,164,9999,9999,9999,2319801424
69,18,15,Jits_Phase_8,165,9999,9999,9999,2320601180
69,18,15,Jits_Phase_8,166,9999,9999,9999,2321401912
69,18,15,Jits_Phase_8,167,9999,9999,9999,2322201684
69,18,15,Jits_Phase_8,168,9999,9999,9999,2323001460
69,18,15,Jits_Phase_8,169,9999,9999,9999,2323801156
69,19,17,Jits_Phase_5,0,5,56,103,2332553644
69,19,17,Jits_Phase_5,1,5,63,98,2332556664
69,19,17,Jits_Phase_5,2,5,80,127,2332559712
69,19,17,Jits_Phase_5,0,5,56,103,2333054476
69,19,17,Jits_Phase_5,1,5,63,98,2333057500
69,19,17,Jits_Phase_5,2,5,80,127,2333060544
69,19,17,Jits_Phase_5,0,5,56,103,2333553980
69,19,17,Jits_Phase_5,1,5,80,127,2333564396
69,19,17,Jits_Phase_5,2,5,63,98,2333583660
69,19,17,Jits_Phase_5,0,5,63,98,2334003588
69,19,17,Jits_Phase_5,1,5,80,127,2334034384
69,19,17,Jits_Phase_5,2,5,56,103,2334043604
69,19,17,Jits_Phase_5,0,1,48,40,2334472252
69,19,17,Jits_Phase_5,1,5,80,127,2334564028
69,19,17,Jits_Phase_5,2,5,56,103,2334574004
69,19,17,Jits_Phase_5,3,5,63,98,2334603528
69,19,17,Jits_Phase_5,0,5,63,98,2335054220
69,19,17,Jits_Phase_5,1,1,48,30,2335060476
69,19,17,Jits_Phase_5,2,5,56,103,2335084036
69,19,17,Jits_Phase_5,3,5,80,127,2335094232
69,19,17,Jits_Phase_5,0,5,56,103,2335503624
69,19,17,Jits_Phase_5,1,1,48,42,2335545552
69,19,17,Jits_Phase_5,2,5,63,98,2335553820
69,19,17,Jits_Phase_5,3,5,80,127,2335574576
69,19,17,Jits_Phase_5,0,1,48,42,2335983632
69,19,17,Jits_Phase_5,1,5,80,127,2336003580
69,19,17,Jits_Phase_5,2,5,63,98,2336053484
69,19,17,Jits_Phase_5,3,5,56,103,2336093480
69,19,17,Jits_Phase_5,0,1,48,40,2336502244
69,19,17,Jits_Phase_5,1,5,56,103,2336504280
69,19,17,Jits_Phase_5,2,5,63,98,2336533756
69,19,17,Jits_Phase_5,3,5,80,127,2336603420
69,19,17,Jits_Phase_5,0,1,48,43,2336981664
69,19,17,Jits_Phase_5,1,5,56,103,2337003880
69,19,17,Jits_Phase_5,2,5,80,127,2337064292
69,19,17,Jits_Phase_5,3,5,63,98,2337094100
69,19,17,Jits_Phase_5,0,1,48,39,2337467860
69,19,17,Jits_Phase_5,1,5,56,103,2337513820
69,19,17,Jits_Phase_5,2,5,63,98,2337524088
69,19,17,Jits_Phase_5,3,5,80,127,2337563960
69,19,17,Jits_Phase_5,0,1,48,43,2337974284
69,19,17,Jits_Phase_5,1,5,63,98,2338004424
69,19,17,Jits_Phase_5,2,5,80,127,2338084376
69,19,17,Jits_Phase_5,3,5,56,103,2338093452
69,19,17,Jits_Phase_5,0,1,48,41,2338510204
69,19,17,Jits_Phase_5,1,5,63,98,2338554292
69,19,17,Jits_Phase_5,2,5,56,103,2338594328
69,19,17,Jits_Phase_5,3,5,80,127,2338597392
69,19,17,Jits_Phase_5,0,5,56,103,2339013964
69,19,17,Jits_Phase_5,1,5,63,98,2339024532
69,19,17,Jits_Phase_5,2,1,48,32,2339025868
69,19,17,Jits_Phase_5,3,5,80,127,2339064312
69,19,17,Jits_Phase_5,0,1,48,41,2339483056
69,19,17,Jits_Phase_5,1,5,56,103,2339503676
69,19,17,Jits_Phase_5,2,5,63,98,2339506668
69,19,17,Jits_Phase_5,3,5,80,127,2339523912
69,19,17,Jits_Phase_5,0,1,48,41,2339921340
69,19,17,Jits_Phase_5,1,5,80,127,2340013452
69,19,17,Jits_Phase_5,2,5,56,103,2340023784
69,19,17,Jits_Phase_5,3,5,63,98,2340094508
69,19,17,Jits_Phase_5,0,5,63,98,2340503992
69,19,17,Jits_Phase_5,1,5,56,103,2340524452
69,19,17,Jits_Phase_5,2,1,48,38,2340548540
69,19,17,Jits_Phase_5,3,5,80,127,2340604384
69,19,17,Jits_Phase_5,0,1,48,45,2340993376
69,19,17,Jits_Phase_5,1,5,56,103,2341013928
69,19,17,Jits_Phase_5,2,5,80,127,2341053864
69,19,17,Jits_Phase_5,3,5,63,98,2341063984
69,19,17,Jits_Phase_5,0,1,48,45,2341441188
69,19,17,Jits_Phase_5,1,5,80,127,2341504308
69,19,17,Jits_Phase_5,2,5,63,98,2341534280
69,19,17,Jits_Phase_5,3,5,56,103,2341573904
69,19,17,Jits_Phase_5,0,1,48,43,2341973688
69,19,17,Jits_Phase_5,1,5,56,103,2342023464
69,19,17,Jits_Phase_5,2,5,63,98,2342054332
69,19,17,Jits_Phase_5,3,5,80,127,2342104444
69,19,17,Jits_Phase_5,0,1,48,38,2342420460
69,19,17,Jits_Phase_5,1,5,80,127,2342524468
69,19,17,Jits_Phase_5,2,5,56,103,2342564184
69,19,17,Jits_Phase_5,3,5,63,98,2342573408
69,19,17,Jits_Phase_5,0,5,80,127,2343003492
69,19,17,Jits_Phase_5,1,1,48,42,2343019864
69,19,17,Jits_Phase_5,2,5,63,98,2343043424
69,19,17,Jits_Phase_5,3,5,56,103,2343103808
69,19,17,Jits_Phase_5,0,5,56,103,2343504228
69,19,17,Jits_Phase_5,1,5,80,127,2343513452
69,19,17,Jits_Phase_5,2,1,48,43,2343516044
69,19,17,Jits_Phase_5,3,5,63,98,2343594356
69,19,17,Jits_Phase_5,0,1,48,42,2344000952
69,19,17,Jits_Phase_5,1,5,80,127,2344004208
69,19,17,Jits_Phase_5,2,5,63,98,2344064300
69,19,17,Jits_Phase_5,3,5,56,103,2344095076
69,19,17,Jits_Phase_5,0,5,56,103,2344503664
69,19,17,Jits_Phase_5,1,1,48,40,2344509396
69,19,17,Jits_Phase_5,2,5,80,127,2344564268
69,19,17,Jits_Phase_5,3,5,63,98,2344604280
69,19,17,Jits_Phase_5,0,1,48,26,2345018824
69,19,17,Jits_Phase_5,1,5,56,103,2345053692
69,19,17,Jits_Phase_5,2,5,63,98,2345063740
69,19,17,Jits_Phase_5,3,5,80,127,2345067252
69,19,17,Jits_Phase_5,0,5,80,127,2345514260
69,19,17,Jits_Phase_5,1,1,48,38,2345566524
69,19,17,Jits_Phase_5,2,5,63,98,2345603560
69,19,17,Jits_Phase_5,3,5,56,103,2345613608
69,19,17,Jits_Phase_5,0,5,56,103,2346014156
69,19,17,Jits_Phase_5,1,5,63,98,2346017256
69,19,17,Jits_Phase_5,2,5,80,127,2346020228
69,19,17,Jits_Phase_5,3,1,48,28,2346150096
69,19,17,Jits_Phase_5,0,5,80,127,2346534364
69,19,17,Jits_Phase_5,1,5,63,98,2346584492
69,19,17,Jits_Phase_5,2,1,48,48,2346599364
69,19,17,Jits_Phase_5,3,5,56,103,2346614232
69,19,17,Jits_Phase_5,0,5,56,103,2347013384
69,19,17,Jits_Phase_5,1,5,80,127,2347023656
69,19,17,Jits_Phase_5,2,1,48,49,2347075168
69,19,17,Jits_Phase_5,3,5,63,98,2347094372
69,19,17,Jits_Phase_5,0,5,56,103,2347523480
69,19,17,Jits_Phase_5,1,1,48,45,2347543644
69,19,17,Jits_Phase_5,2,5,63,98,2347545128
69,19,17,Jits_Phase_5,3,5,80,127,2347604320
69,19,17,Jits_Phase_5,0,5,80,127,2348003816
69,19,17,Jits_Phase_5,1,1,48,39,2348023272
69,19,17,Jits_Phase_5,2,5,63,98,2348074340
69,19,17,Jits_Phase_5,3,5,56,103,2348093676
69,19,17,Jits_Phase_5,0,5,80,127,2348524036
69,19,17,Jits_Phase_5,1,5,56,103,2348534380
69,19,17,Jits_Phase_5,2,5,63,98,2348544352
69,19,17,Jits_Phase_5,3,1,48,40,2348585032
69,19,17,Jits_Phase_5,0,1,48,40,2348979552
69,19,17,Jits_Phase_5,1,5,80,127,2349014272
69,19,17,Jits_Phase_5,2,5,56,103,2349034280
69,19,17,Jits_Phase_5,3,5,63,98,2349103444
69,19,17,Jits_Phase_5,0,1,48,39,2349513852
69,19,17,Jits_Phase_5,1,5,56,103,2349524360
69,19,17,Jits_Phase_5,2,5,80,127,2349554108
69,19,17,Jits_Phase_5,3,5,63,98,2349573472
69,19,17,Jits_Phase_5,0,1,48,46,2349961212
69,19,17,Jits_Phase_5,1,5,63,98,2350013696
69,19,17,Jits_Phase_5,2,5,56,103,2350074144
69,19,17,Jits_Phase_5,3,5,80,127,2350104216
69,19,17,Jits_Phase_5,0,1,48,46,2350493872
69,19,17,Jits_Phase_5,1,5,63,98,2350504304
69,19,17,Jits_Phase_5,2,5,80,127,2350507592
69,19,17,Jits_Phase_5,3,5,56,103,2350594344
69,19,17,Jits_Phase_5,0,1,48,45,2350998768
69,19,17,Jits_Phase_5,1,5,56,103,2351023600
69,19,17,Jits_Phase_5,2,5,63,98,2351054172
69,19,17,Jits_Phase_5,3,5,80,127,2351094240
69,19,17,Jits_Phase_5,0,1,48,43,2351474928
69,19,17,Jits_Phase_5,1,5,63,98,2351524324
69,19,17,Jits_Phase_5,2,5,56,103,2351564260
69,19,17,Jits_Phase_5,3,5,80,127,2351583584
69,19,17,Jits_Phase_5,0,1,48,48,2351955572
69,19,17,Jits_Phase_5,1,5,63,98,2352034264
69,19,17,Jits_Phase_5,2,5,56,103,2352074040
69,19,17,Jits_Phase_5,3,5,80,127,2352084456
69,19,17,Jits_Phase_5,0,1,48,34,2352509112
69,19,17,Jits_Phase_5,1,5,80,127,2352514460
69,19,17,Jits_Phase_5,2,5,63,98,2352583996
69,19,17,Jits_Phase_5,3,5,56,103,2352604060
69,19,17,Jits_Phase_5,0,5,56,103,2353003884
69,19,17,Jits_Phase_5,1,5,80,127,2353024492
69,19,17,Jits_Phase_5,2,5,63,98,2353064280
69,19,17,Jits_Phase_5,3,1,48,27,2353095868
69,19,17,Jits_Phase_5,0,5,63,98,2353513984
69,19,17,Jits_Phase_5,1,5,80,127,2353534292
69,19,17,Jits_Phase_5,2,1,48,49,2353539132
69,19,17,Jits_Phase_5,3,5,56,103,2353574148
69,19,17,Jits_Phase_5,0,1,48,55,2353974744
69,19,17,Jits_Phase_5,1,5,63,98,2354013500
69,19,17,Jits_Phase_5,2,5,56,103,2354033960
69,19,17,Jits_Phase_5,3,1,48,23,2354041104
69,19,17,Jits_Phase_5,4,5,80,127,2354044356
69,19,17,Jits_Phase_5,0,1,48,51,2354502096
69,19,17,Jits_Phase_5,1,5,80,127,2354514324
69,19,17,Jits_Phase_5,2,5,56,103,2354533888
69,19,17,Jits_Phase_5,3,5,63,98,2354563412
69,19,17,Jits_Phase_5,0,1,48,49,2354965500
69,19,17,Jits_Phase_5,1,5,56,103,2355083588
69,19,17,Jits_Phase_5,2,5,80,127,2355086728
69,19,17,Jits_Phase_5,3,5,63,98,2355104268
69,19,17,Jits_Phase_5,0,5,63,98,2355503416
69,19,17,Jits_Phase_5,1,1,48,34,2355521588
69,19,17,Jits_Phase_5,2,5,56,103,2355534132
69,19,17,Jits_Phase_5,3,5,80,127,2355593544
69,19,17,Jits_Phase_5,0,1,48,51,2355964004
69,19,17,Jits_Phase_5,1,5,63,98,2356084056
69,19,17,Jits_Phase_5,2,5,56,103,2356094328
69,19,17,Jits_Phase_5,3,5,80,127,2356103400
69,19,17,Jits_Phase_5,0,1,48,43,2356516972
69,19,17,Jits_Phase_5,1,5,56,103,2356544120
69,19,17,Jits_Phase_5,2,5,80,127,2356573496
69,19,17,Jits_Phase_5,3,5,63,98,2356583992
69,19,17,Jits_Phase_5,0,1,48,46,2356990992
69,19,17,Jits_Phase_5,1,5,63,98,2357083936
69,19,17,Jits_Phase_5,2,5,56,103,2357093836
69,19,17,Jits_Phase_5,3,5,80,127,2357114216
69,19,17,Jits_Phase_5,0,5,56,103,2357513668
69,19,17,Jits_Phase_5,1,1,48,47,2357530188
69,19,17,Jits_Phase_5,2,5,63,98,2357573892
69,19,17,Jits_Phase_5,3,5,80,127,2357577484
69,19,17,Jits_Phase_5,0,1,48,48,2358006844
69,19,17,Jits_Phase_5,1,5,80,127,2358033868
69,19,17,Jits_Phase_5,2,5,56,103,2358044212
69,19,17,Jits_Phase_5,3,5,63,98,2358113576
69,19,17,Jits_Phase_5,0,1,48,47,2358513636
69,19,17,Jits_Phase_5,1,5,80,127,2358524228
69,19,17,Jits_Phase_5,2,5,56,103,2358593932
69,19,17,Jits_Phase_5,3,5,63,98,2358604276
69,19,17,Jits_Phase_5,0,1,48,47,2359022088
69,19,17,Jits_Phase_5,1,5,63,98,2359064164
69,19,17,Jits_Phase_5,2,5,56,103,2359074212
69,19,17,Jits_Phase_5,3,5,80,127,2359093548
69,19,17,Jits_Phase_5,0,5,80,127,2359513332
69,19,17,Jits_Phase_5,1,1,48,36,2359555504
69,19,17,Jits_Phase_5,2,5,63,98,2359574036
69,19,17,Jits_Phase_5,3,5,56,103,2359614196
69,19,17,Jits_Phase_5,0,5,56,103,2360054224
69,19,17,Jits_Phase_5,1,5,63,98,2360064420
69,19,17,Jits_Phase_5,2,5,80,127,2360104280
69,19,17,Jits_Phase_5,3,1,48,34,2360114744
69,19,17,Jits_Phase_5,0,5,56,103,2360513800
69,19,17,Jits_Phase_5,1,5,80,127,2360543552
69,19,17,Jits_Phase_5,2,1,48,46,2360550408
69,19,17,Jits_Phase_5,3,5,63,98,2360593916
69,19,17,Jits_Phase_5,0,1,48,55,2360993828
69,19,17,Jits_Phase_5,1,5,56,103,2361053416
69,19,17,Jits_Phase_5,2,5,63,98,2361093508
69,19,17,Jits_Phase_5,3,5,80,127,2361096872
69,19,17,Jits_Phase_5,0,1,48,46,2361507948
69,19,17,Jits_Phase_5,1,5,56,103,2361554200
69,19,17,Jits_Phase_5,2,5,63,98,2361563648
69,19,17,Jits_Phase_5,3,5,80,127,2361583960
69,19,17,Jits_Phase_5,0,1,48,45,2361948508
69,19,17,Jits_Phase_5,1,5,56,103,2362014092
69,19,17,Jits_Phase_5,2,5,80,127,2362017304
69,19,17,Jits_Phase_5,3,5,63,98,2362054088
69,19,17,Jits_Phase_5,0,1,48,34,2362532016
69,19,17,Jits_Phase_5,1,5,63,98,2362553908
69,19,17,Jits_Phase_5,2,5,56,103,2362584408
69,19,17,Jits_Phase_5,3,5,80,127,2362603820
69,19,17,Jits_Phase_5,0,5,80,127,2363023848
69,19,17,Jits_Phase_5,1,1,48,48,2363029060
69,19,17,Jits_Phase_5,2,5,56,103,2363033888
69,19,17,Jits_Phase_5,3,5,63,98,2363044160
69,19,17,Jits_Phase_5,0,5,56,103,2363523312
69,19,17,Jits_Phase_5,1,1,48,43,2363524276
69,19,17,Jits_Phase_5,2,5,80,127,2363564288
69,19,17,Jits_Phase_5,3,5,63,98,2363594036
69,19,17,Jits_Phase_5,0,5,63,98,2364034456
69,19,17,Jits_Phase_5,1,1,48,39,2364043980
69,19,17,Jits_Phase_5,2,5,80,127,2364045168
69,19,17,Jits_Phase_5,3,5,56,103,2364054020
69,19,17,Jits_Phase_5,0,1,48,46,2364465096
69,19,17,Jits_Phase_5,1,5,56,103,2364523936
69,19,17,Jits_Phase_5,2,5,63,98,2364593452
69,19,17,Jits_Phase_5,3,5,80,127,2364603724
69,19,17,Jits_Phase_5,0,1,48,27,2365028376
69,19,17,Jits_Phase_5,1,5,80,127,2365033800
69,19,17,Jits_Phase_5,2,5,56,103,2365044144
69,19,17,Jits_Phase_5,3,5,63,98,2365094268
69,19,17,Jits_Phase_5,0,5,80,127,2365543892
69,19,17,Jits_Phase_5,1,1,48,35,2365548504
69,19,17,Jits_Phase_5,2,5,56,103,2365604124
69,19,17,Jits_Phase_5,3,5,63,98,2365633872
69,19,17,Jits_Phase_5,0,5,56,103,2366043352
69,19,17,Jits_Phase_5,1,5,80,127,2366046572
69,19,17,Jits_Phase_5,2,1,48,43,2366056588
69,19,17,Jits_Phase_5,3,5,63,98,2366083584
69,19,17,Jits_Phase_5,0,1,48,49,2366516176
69,19,17,Jits_Phase_5,1,5,56,103,2366573968
69,19,17,Jits_Phase_5,2,5,63,98,2366603792
69,19,17,Jits_Phase_5,3,5,80,127,2366614796
69,19,17,Jits_Phase_5,0,5,63,98,2367083916
69,19,17,Jits_Phase_5,1,5,80,127,2367094112
69,19,17,Jits_Phase_5,2,5,56,103,2367104308
69,19,17,Jits_Phase_5,3,1,48,41,2367113196
69,19,17,Jits_Phase_5,0,5,80,127,2367533472
69,19,17,Jits_Phase_5,1,1,48,38,2367549316
69,19,17,Jits_Phase_5,2,5,56,103,2367583736
69,19,17,Jits_Phase_5,3,5,63,98,2367586876
69,19,17,Jits_Phase_5,0,5,56,103,2368063864
69,19,17,Jits_Phase_5,1,1,48,35,2368071096
69,19,17,Jits_Phase_5,2,5,80,127,2368084316
69,19,17,Jits_Phase_5,3,5,63,98,2368093688
69,19,17,Jits_Phase_5,0,5,63,98,2368544144
69,19,17,Jits_Phase_5,1,5,56,103,2368573896
69,19,17,Jits_Phase_5,2,1,48,31,2368576412
69,19,17,Jits_Phase_5,3,5,80,127,2368594272
69,19,17,Jits_Phase_5,0,5,56,103,2369054080
69,19,17,Jits_Phase_5,1,5,80,127,2369064276
69,19,17,Jits_Phase_5,2,5,63,98,2369133952
69,19,17,Jits_Phase_5,0,1,48,39,2369530216
69,19,17,Jits_Phase_5,1,5,63,98,2369543612
69,19,17,Jits_Phase_5,2,5,80,127,2369583400
69,19,17,Jits_Phase_5,3,5,56,103,2369624372
69,19,17,Jits_Phase_5,0,1,48,43,2370020680
69,19,17,Jits_Phase_5,1,5,56,103,2370053628
69,19,17,Jits_Phase_5,2,5,63,98,2370063896
69,19,17,Jits_Phase_5,3,5,80,127,2370084208
69,19,17,Jits_Phase_5,0,1,48,45,2370522312
69,19,17,Jits_Phase_5,1,5,63,98,2370594132
69,19,17,Jits_Phase_5,2,5,80,127,2370613752
69,19,17,Jits_Phase_5,3,5,56,103,2370634208
69,19,17,Jits_Phase_5,0,1,48,44,2371032200
69,19,17,Jits_Phase_5,1,5,56,103,2371033624
69,19,17,Jits_Phase_5,2,5,80,127,2371114488
69,19,17,Jits_Phase_5,3,5,63,98,2371124672
69,19,17,Jits_Phase_5,0,1,48,43,2371542568
69,19,17,Jits_Phase_5,1,5,80,127,2371574056
69,19,17,Jits_Phase_5,2,5,63,98,2371584252
69,19,17,Jits_Phase_5,3,5,56,103,2371614024
69,19,17,Jits_Phase_5,0,5,63,98,2372033804
69,19,17,Jits_Phase_5,1,1,48,39,2372053260
69,19,17,Jits_Phase_5,2,5,80,127,2372073808
69,19,17,Jits_Phase_5,3,5,56,103,2372134144
69,19,17,Jits_Phase_5,0,5,63,98,2372543888
69,19,17,Jits_Phase_5,1,1,48,42,2372563420
69,19,17,Jits_Phase_5,2,5,56,103,2372594160
69,19,17,Jits_Phase_5,3,5,80,127,2372623636
69,19,17,Jits_Phase_5,0,1,48,38,2373029292
69,19,17,Jits_Phase_5,1,5,80,127,2373043636
69,19,17,Jits_Phase_5,2,5,63,98,2373053684
69,19,17,Jits_Phase_5,3,5,56,103,2373123532
69,19,17,Jits_Phase_5,0,1,48,37,2373511132
69,19,17,Jits_Phase_5,1,5,80,127,2373603700
69,19,17,Jits_Phase_5,2,5,56,103,2373614028
69,19,17,Jits_Phase_5,3,5,63,98,2373617020
69,19,17,Jits_Phase_5,0,5,56,103,2374043968
69,19,17,Jits_Phase_5,1,1,48,36,2374048428
69,19,17,Jits_Phase_5,2,5,80,127,2374063596
69,19,17,Jits_Phase_5,3,5,63,98,2374073864
69,19,17,Jits_Phase_5,0,1,48,38,2374514256
69,19,17,Jits_Phase_5,1,5,63,98,2374553840
69,19,17,Jits_Phase_5,2,5,56,103,2374593852
69,19,17,Jits_Phase_5,3,5,80,127,2374614592
69,19,17,Jits_Phase_5,0,1,48,41,2375010924
69,19,17,Jits_Phase_5,1,5,63,98,2375053592
69,19,17,Jits_Phase_5,2,5,56,103,2375113960
69,19,17,Jits_Phase_5,3,5,80,127,2375117104
69,19,17,Jits_Phase_5,0,1,48,36,2375506036
69,19,17,Jits_Phase_5,1,5,56,103,2375513628
69,19,17,Jits_Phase_5,2,5,80,127,2375533940
69,19,17,Jits_Phase_5,3,5,63,98,2375573952
69,19,17,Jits_Phase_5,0,1,48,28,2376010872
69,19,17,Jits_Phase_5,1,5,56,103,2376043944
69,19,17,Jits_Phase_5,2,5,63,98,2376064552
69,19,17,Jits_Phase_5,3,5,80,127,2376073700
69,19,17,Jits_Phase_5,0,1,48,42,2376511436
69,19,17,Jits_Phase_5,1,5,80,127,2376513948
69,19,17,Jits_Phase_5,2,5,56,103,2376543476
69,19,17,Jits_Phase_5,3,5,63,98,2376583784
69,19,17,Jits_Phase_5,0,1,48,48,2376972620
69,19,17,Jits_Phase_5,1,5,80,127,2377023812
69,19,17,Jits_Phase_5,2,5,56,103,2377044568
69,19,17,Jits_Phase_5,3,5,63,98,2377103744
69,19,17,Jits_Phase_5,0,1,48,44,2377498732
69,19,17,Jits_Phase_5,1,5,56,103,2377533752
69,19,17,Jits_Phase_5,2,5,80,127,2377554284
69,19,17,Jits_Phase_5,3,5,63,98,2377613612
69,19,17,Jits_Phase_5,0,1,48,38,2378012972
69,19,17,Jits_Phase_5,1,5,80,127,2378014544
69,19,17,Jits_Phase_5,2,5,56,103,2378024440
69,19,17,Jits_Phase_5,3,5,63,98,2378064156
69,19,17,Jits_Phase_5,0,1,48,32,2378503856
69,19,17,Jits_Phase_5,1,5,63,98,2378513768
69,19,17,Jits_Phase_5,2,5,56,103,2378553704
69,19,17,Jits_Phase_5,3,5,80,127,2378556696
69,19,17,Jits_Phase_5,0,1,48,41,2379025020
69,19,17,Jits_Phase_5,1,5,63,98,2379033884
69,19,17,Jits_Phase_5,2,5,80,127,2379073972
69,19,17,Jits_Phase_5,3,5,56,103,2379103500
69,19,17,Jits_Phase_5,0,1,48,43,2379474624
69,19,17,Jits_Phase_5,1,5,56,103,2379523600
69,19,17,Jits_Phase_5,2,5,63,98,2379533796
69,19,17,Jits_Phase_5,3,5,80,127,2379564516
69,19,17,Jits_Phase_5,0,1,48,35,2379982544
69,19,17,Jits_Phase_5,1,5,80,127,2380013808
69,19,17,Jits_Phase_5,2,5,63,98,2380083648
69,19,17,Jits_Phase_5,3,5,56,103,2380093768
69,19,17,Jits_Phase_5,0,1,48,42,2380480932
69,19,17,Jits_Phase_5,1,5,63,98,2380513780
69,19,17,Jits_Phase_5,2,5,56,103,2380584520
69,19,17,Jits_Phase_5,3,5,80,127,2380593816
69,19,17,Jits_Phase_5,0,1,48,49,2380983692
69,19,17,Jits_Phase_5,1,5,63,98,2380993828
69,19,17,Jits_Phase_5,2,5,56,103,2381014512
69,19,17,Jits_Phase_5,3,5,80,127,2381054520
69,19,17,Jits_Phase_5,0,1,48,53,2381458708
69,19,17,Jits_Phase_5,1,5,56,103,2381474024
69,19,17,Jits_Phase_5,2,5,63,98,2381484668
69,19,17,Jits_Phase_5,3,5,80,127,2381564368
69,19,17,Jits_Phase_5,0,1,48,47,2381957484
69,19,17,Jits_Phase_5,1,5,63,98,2381963584
69,19,17,Jits_Phase_5,2,5,56,103,2381994752
69,19,17,Jits_Phase_5,3,5,80,127,2382034388
69,19,17,Jits_Phase_5,0,1,48,47,2382444876
69,19,17,Jits_Phase_5,1,5,56,103,2382464452
69,19,17,Jits_Phase_5,2,5,63,98,2382504392
69,19,17,Jits_Phase_5,3,5,80,127,2382544460
69,19,17,Jits_Phase_5,0,1,48,38,2382923124
69,19,17,Jits_Phase_5,1,5,80,127,2382964052
69,19,17,Jits_Phase_5,2,5,56,103,2383043980
69,19,17,Jits_Phase_5,3,5,63,98,2383054548
69,19,17,Jits_Phase_5,0,1,48,41,2383458380
69,19,17,Jits_Phase_5,1,5,56,103,2383503732
69,19,17,Jits_Phase_5,2,5,63,98,2383506800
69,19,17,Jits_Phase_5,3,5,80,127,2383514004
69,19,17,Jits_Phase_5,0,1,48,39,2383976556
69,19,17,Jits_Phase_5,1,5,56,103,2384023784
69,19,17,Jits_Phase_5,2,5,63,98,2384044688
69,19,17,Jits_Phase_5,3,5,80,127,2384053612
69,19,17,Jits_Phase_5,0,1,48,50,2384421456
69,19,17,Jits_Phase_5,1,5,63,98,2384483680
69,19,17,Jits_Phase_5,2,5,80,127,2384494024
69,19,17,Jits_Phase_5,3,5,56,103,2384514392
69,19,17,Jits_Phase_5,0,1,48,43,2384917388
69,19,17,Jits_Phase_5,1,5,63,98,2384984548
69,19,17,Jits_Phase_5,2,5,56,103,2385064628
69,19,17,Jits_Phase_5,3,5,80,127,2385067616
69,19,17,Jits_Phase_5,0,1,48,46,2385414296
69,19,17,Jits_Phase_5,1,5,63,98,2385484368
69,19,17,Jits_Phase_5,2,5,56,103,2385503484
69,19,17,Jits_Phase_5,3,5,80,127,2385534412
69,19,17,Jits_Phase_5,0,1,48,29,2385912820
69,19,17,Jits_Phase_5,1,5,56,103,2385983896
69,19,17,Jits_Phase_5,2,5,63,98,2386004576
69,19,17,Jits_Phase_5,3,5,80,127,2386013412
69,19,17,Jits_Phase_5,0,1,48,44,2386404852
69,19,17,Jits_Phase_5,1,5,56,103,2386523636
69,19,17,Jits_Phase_5,2,5,63,98,2386554504
69,19,17,Jits_Phase_5,3,5,80,127,2386557940
69,19,17,Jits_Phase_5,0,5,56,103,2386973956
69,19,17,Jits_Phase_5,1,1,48,36,2386975364
69,19,17,Jits_Phase_5,2,5,63,98,2387013960
69,19,17,Jits_Phase_5,3,5,80,127,2387074480
69,19,17,Jits_Phase_5,0,1,48,35,2387481388
69,19,17,Jits_Phase_5,1,5,56,103,2387494460
69,19,17,Jits_Phase_5,2,5,63,98,2387503536
69,19,17,Jits_Phase_5,3,5,80,127,2387563848
69,19,17,Jits_Phase_5,0,5,56,103,2387993844
69,19,17,Jits_Phase_5,1,5,80,127,2388013556
69,19,17,Jits_Phase_5,2,5,63,98,2388044276
69,19,17,Jits_Phase_5,0,1,48,38,2388436420
69,19,17,Jits_Phase_5,1,5,80,127,2388493564
69,19,17,Jits_Phase_5,2,5,56,103,2388503908
69,19,17,Jits_Phase_5,3,5,63,98,2388524440
69,19,17,Jits_Phase_5,0,1,48,24,2388966588
69,19,17,Jits_Phase_5,1,5,63,98,2388984292
69,19,17,Jits_Phase_5,2,5,80,127,2389064544
69,19,17,Jits_Phase_5,3,5,56,103,2389074588
69,19,17,Jits_Phase_5,0,1,48,37,2389446784
69,19,17,Jits_Phase_5,1,5,80,127,2389574108
69,19,17,Jits_Phase_5,2,5,56,103,2389593444
69,19,17,Jits_Phase_5,3,5,63,98,2389596660
69,19,17,Jits_Phase_5,0,5,63,98,2390063464
69,19,17,Jits_Phase_5,1,1,48,40,2390066528
69,19,17,Jits_Phase_5,2,5,80,127,2390068012
69,19,17,Jits_Phase_5,3,5,56,103,2390123844
69,19,17,Jits_Phase_5,0,1,48,37,2390524716
69,19,17,Jits_Phase_5,1,5,56,103,2390543648
69,19,17,Jits_Phase_5,2,5,80,127,2390553844
69,19,17,Jits_Phase_5,3,5,63,98,2390593856
69,19,17,Jits_Phase_5,0,5,56,103,2391023976
69,19,17,Jits_Phase_5,1,1,48,36,2391035560
69,19,17,Jits_Phase_5,2,5,63,98,2391084308
69,19,17,Jits_Phase_5,3,5,80,127,2391093604
69,19,17,Jits_Phase_5,0,1,48,43,2391524008
69,19,17,Jits_Phase_5,1,5,63,98,2391534144
69,19,17,Jits_Phase_5,2,5,80,127,2391573812
69,19,17,Jits_Phase_5,3,5,56,103,2391613672
69,19,17,Jits_Phase_5,0,5,56,103,2392033604
69,19,17,Jits_Phase_5,1,1,48,34,2392046312
69,19,17,Jits_Phase_5,2,5,63,98,2392113564
69,19,17,Jits_Phase_5,3,5,80,127,2392116852
69,19,17,Jits_Phase_5,0,1,48,38,2392574236
69,19,17,Jits_Phase_5,1,5,80,127,2392593912
69,19,17,Jits_Phase_5,2,5,56,103,2392623588
69,19,17,Jits_Phase_5,3,5,63,98,2392626728
69,19,17,Jits_Phase_5,0,5,56,103,2393053412
69,19,17,Jits_Phase_5,1,5,80,127,2393074464
69,19,17,Jits_Phase_5,2,5,63,98,2393113832
69,19,17,Jits_Phase_5,3,1,48,40,2393116952
69,19,17,Jits_Phase_5,0,5,80,127,2393533700
69,19,17,Jits_Phase_5,1,1,48,32,2393549400
69,19,17,Jits_Phase_5,2,5,63,98,2393554304
69,19,17,Jits_Phase_5,3,5,56,103,2393613592
69,19,17,Jits_Phase_5,0,5,63,98,2394043728
69,19,17,Jits_Phase_5,1,5,56,103,2394054072
69,19,17,Jits_Phase_5,2,1,48,23,2394055040
69,19,17,Jits_Phase_5,3,5,80,127,2394104264
69,19,17,Jits_Phase_5,0,1,48,36,2394494896
69,19,17,Jits_Phase_5,1,5,56,103,2394534328
69,19,17,Jits_Phase_5,2,5,63,98,2394553592
69,19,17,Jits_Phase_5,3,5,80,127,2394563936
69,19,17,Jits_Phase_5,0,1,48,28,2395012704
69,19,17,Jits_Phase_5,1,5,56,103,2395023664
69,19,17,Jits_Phase_5,2,5,63,98,2395026804
69,19,17,Jits_Phase_5,3,5,80,127,2395044344
69,19,17,Jits_Phase_5,0,1,48,27,2395516032
69,19,17,Jits_Phase_5,1,5,63,98,2395564532
69,19,17,Jits_Phase_5,2,5,56,103,2395594208
69,19,17,Jits_Phase_5,3,5,80,127,2395623792
69,19,17,Jits_Phase_5,0,5,80,127,2396024284
69,19,17,Jits_Phase_5,1,1,48,34,2396036020
69,19,17,Jits_Phase_5,2,5,56,103,2396114336
69,19,17,Jits_Phase_5,3,5,63,98,2396117252
69,19,17,Jits_Phase_5,0,5,56,103,2396523736
69,19,17,Jits_Phase_5,1,5,80,127,2396526956
69,19,17,Jits_Phase_5,2,1,48,32,2396584176
69,19,17,Jits_Phase_5,3,5,63,98,2396603752
69,19,17,Jits_Phase_5,0,5,80,127,2397023648
69,19,17,Jits_Phase_5,1,1,48,38,2397077032
69,19,17,Jits_Phase_5,2,5,63,98,2397084252
69,19,17,Jits_Phase_5,3,5,56,103,2397113704
69,19,17,Jits_Phase_5,0,5,63,98,2397524312
69,19,17,Jits_Phase_5,1,5,80,127,2397533536
69,19,17,Jits_Phase_5,2,1,48,40,2397555088
69,19,17,Jits_Phase_5,3,5,56,103,2397604180
69,19,17,Jits_Phase_5,0,1,48,26,2398072580
69,19,17,Jits_Phase_5,1,5,56,103,2398083392
69,19,17,Jits_Phase_5,2,5,80,127,2398114264
69,19,17,Jits_Phase_5,3,5,63,98,2398164296
69,19,17,Jits_Phase_5,0,1,48,38,2398527364
69,19,17,Jits_Phase_5,1,5,63,98,2398683588
69,19,17,Jits_Phase_5,2,5,56,103,2398714384
69,19,17,Jits_Phase_5,3,5,80,127,2398717448
69,19,17,Jits_Phase_5,0,1,48,38,2399170128
69,19,17,Jits_Phase_5,1,5,63,98,2399184248
69,19,17,Jits_Phase_5,2,5,80,127,2399203732
69,19,17,Jits_Phase_5,3,5,56,103,2399214376
69,19,17,Jits_Phase_5,0,5,56,103,2399694268
69,19,17,Jits_Phase_5,1,5,63,98,2399697260
69,19,17,Jits_Phase_5,2,1,48,43,2399698224
69,19,17,Jits_Phase_5,3,5,80,127,2399713596
69,19,17,Jits_Phase_5,0,5,56,103,2400143608
69,19,17,Jits_Phase_5,1,5,63,98,2400154328
69,19,17,Jits_Phase_5,2,5,80,127,2400183628
69,19,17,Jits_Phase_5,3,1,48,34,2400232296
69,19,17,Jits_Phase_5,0,1,48,40,2400664272
69,19,17,Jits_Phase_5,1,5,63,98,2400665532
69,19,17,Jits_Phase_5,2,5,80,127,2400684276
69,19,17,Jits_Phase_5,3,5,56,103,2400724360
69,19,17,Jits_Phase_5,0,1,48,44,2401166908
69,19,17,Jits_Phase_5,1,5,56,103,2401194360
69,19,17,Jits_Phase_5,2,5,63,98,2401234296
69,19,17,Jits_Phase_5,3,5,80,127,2401237436
69,19,17,Jits_Phase_5,0,5,80,127,2401633504
69,19,17,Jits_Phase_5,1,1,48,43,2401661484
69,19,17,Jits_Phase_5,2,5,56,103,2401673584
69,19,17,Jits_Phase_5,3,5,63,98,2401723856
69,19,17,Jits_Phase_5,0,1,48,44,2402124468
69,19,17,Jits_Phase_5,1,5,56,103,2402193720
69,19,17,Jits_Phase_5,2,5,80,127,2402204288
69,19,17,Jits_Phase_5,3,5,63,98,2402233648
69,19,17,Jits_Phase_5,0,1,48,38,2402635308
69,19,17,Jits_Phase_5,1,5,56,103,2402653540
69,19,17,Jits_Phase_5,2,5,80,127,2402693480
69,19,17,Jits_Phase_5,3,5,63,98,2402743664
69,19,17,Jits_Phase_5,0,1,48,32,2403140368
69,19,17,Jits_Phase_5,1,5,56,103,2403154412
69,19,17,Jits_Phase_5,2,5,80,127,2403194352
69,19,17,Jits_Phase_5,3,5,63,98,2403244536
69,19,17,Jits_Phase_5,0,5,80,127,2403644056
69,19,17,Jits_Phase_5,1,1,48,17,2403659232
69,19,17,Jits_Phase_5,2,5,63,98,2403723844
69,19,17,Jits_Phase_5,3,5,56,103,2403733964
69,19,17,Jits_Phase_5,0,1,48,38,2404155852
69,19,17,Jits_Phase_5,1,5,80,127,2404193564
69,19,17,Jits_Phase_5,2,5,56,103,2404204132
69,19,17,Jits_Phase_5,3,5,63,98,2404224292
69,19,17,Jits_Phase_5,0,5,63,98,2404663656
69,19,17,Jits_Phase_5,1,1,48,33,2404672472
69,19,17,Jits_Phase_5,2,5,56,103,2404734300
69,19,17,Jits_Phase_5,3,5,80,127,2404737364
69,19,17,Jits_Phase_5,0,5,80,127,2405154180
69,19,17,Jits_Phase_5,1,1,48,31,2405190784
69,19,17,Jits_Phase_5,2,5,63,98,2405204304
69,19,17,Jits_Phase_5,3,5,56,103,2405244164
69,19,17,Jits_Phase_5,0,1,48,21,2405654892
69,19,17,Jits_Phase_5,1,5,63,98,2405694024
69,19,17,Jits_Phase_5,2,5,56,103,2405733964
69,19,17,Jits_Phase_5,3,5,80,127,2405744084
69,19,17,Jits_Phase_5,0,5,63,98,2406184272
69,19,17,Jits_Phase_5,1,5,56,103,2406204056
69,19,17,Jits_Phase_5,2,5,80,127,2406224216
69,19,17,Jits_Phase_5,3,1,48,21,2406241260
69,19,17,Jits_Phase_5,0,5,80,127,2406644068
69,19,17,Jits_Phase_5,1,5,56,103,2406654264
69,19,17,Jits_Phase_5,2,1,48,45,2406672028
69,19,17,Jits_Phase_5,3,5,63,98,2406673840
69,19,17,Jits_Phase_5,0,1,48,39,2407147012
69,19,17,Jits_Phase_5,1,5,63,98,2407173588
69,19,17,Jits_Phase_5,2,5,56,103,2407213380
69,19,17,Jits_Phase_5,3,5,80,127,2407244528
69,19,17,Jits_Phase_5,0,5,56,103,2407634216
69,19,17,Jits_Phase_5,1,1,48,39,2407650440
69,19,17,Jits_Phase_5,2,5,63,98,2407664180
69,19,17,Jits_Phase_5,3,5,80,127,2407693804
69,19,17,Jits_Phase_5,0,5,80,127,2408054052
69,19,17,Jits_Phase_5,1,5,56,103,2408123876
69,19,17,Jits_Phase_5,2,5,63,98,2408126868
69,19,17,Jits_Phase_5,3,1,48,35,2408139352
69,19,17,Jits_Phase_5,0,5,56,103,2408563996
69,19,17,Jits_Phase_5,1,1,48,39,2408605776
69,19,17,Jits_Phase_5,2,5,63,98,2408614264
69,19,17,Jits_Phase_5,3,5,80,127,2408644160
69,19,17,Jits_Phase_5,0,1,48,40,2409037128
69,19,17,Jits_Phase_5,1,5,63,98,2409044348
69,19,17,Jits_Phase_5,2,5,80,127,2409047860
69,19,17,Jits_Phase_5,3,5,56,103,2409103912
69,19,17,Jits_Phase_5,0,1,48,39,2409474760
69,19,17,Jits_Phase_5,1,5,56,103,2409573892
69,19,17,Jits_Phase_5,2,5,80,127,2409584160
69,19,17,Jits_Phase_5,3,5,63,98,2409634212
69,19,17,Jits_Phase_5,0,5,63,98,2410043992
69,19,17,Jits_Phase_5,1,1,48,27,2410048452
69,19,17,Jits_Phase_5,2,5,56,103,2410053956
69,19,17,Jits_Phase_5,3,5,80,127,2410083856
69,19,17,Jits_Phase_5,0,1,48,28,2410541840
69,19,17,Jits_Phase_5,1,5,63,98,2410574148
69,19,17,Jits_Phase_5,2,5,80,127,2410577436
69,19,17,Jits_Phase_5,3,5,56,103,2410604120
69,19,17,Jits_Phase_5,0,1,48,26,2411048312
69,19,17,Jits_Phase_5,1,5,63,98,2411094272
69,19,17,Jits_Phase_5,2,5,56,103,2411113904
69,19,17,Jits_Phase_5,3,5,80,127,2411117116
69,19,17,Jits_Phase_5,0,5,63,98,2411554160
69,19,17,Jits_Phase_5,1,1,48,38,2411569036
69,19,17,Jits_Phase_5,2,5,56,103,2411623912
69,19,17,Jits_Phase_5,3,5,80,127,2411644292
69,19,17,Jits_Phase_5,0,5,56,103,2412043504
69,19,17,Jits_Phase_5,1,5,63,98,2412053996
69,19,17,Jits_Phase_5,2,1,48,34,2412099736
69,19,17,Jits_Phase_5,3,5,80,127,2412144044
69,19,17,Jits_Phase_5,0,1,48,38,2412563036
69,19,17,Jits_Phase_5,1,5,56,103,2412564684
69,19,17,Jits_Phase_5,2,5,80,127,2412603948
69,19,17,Jits_Phase_5,3,5,63,98,2412613996
69,19,17,Jits_Phase_5,0,1,48,32,2413057512
69,19,17,Jits_Phase_5,1,5,56,103,2413083988
69,19,17,Jits_Phase_5,2,5,63,98,2413113740
69,19,17,Jits_Phase_5,3,5,80,127,2413144460
69,19,17,Jits_Phase_5,0,5,80,127,2413544016
69,19,17,Jits_Phase_5,1,1,48,20,2413549076
69,19,17,Jits_Phase_5,2,5,63,98,2413583820
69,19,17,Jits_Phase_5,3,5,56,103,2413604204
69,19,17,Jits_Phase_5,0,1,48,39,2414041800
69,19,17,Jits_Phase_5,1,5,56,103,2414083576
69,19,17,Jits_Phase_5,2,5,80,127,2414103960
69,19,17,Jits_Phase_5,3,5,63,98,2414124272
69,19,17,Jits_Phase_5,0,5,63,98,2414553568
69,19,17,Jits_Phase_5,1,5,56,103,2414563688
69,19,17,Jits_Phase_5,2,1,48,39,2414568300
69,19,17,Jits_Phase_5,3,5,80,127,2414624016
69,19,17,Jits_Phase_5,0,1,48,33,2415036044
69,19,17,Jits_Phase_5,1,5,56,103,2415054276
69,19,17,Jits_Phase_5,2,5,63,98,2415123908
69,19,17,Jits_Phase_5,3,5,80,127,2415144276
69,19,17,Jits_Phase_5,0,1,48,38,2415520352
69,19,17,Jits_Phase_5,1,5,56,103,2415553880
69,19,17,Jits_Phase_5,2,5,63,98,2415583628
69,19,17,Jits_Phase_5,3,5,80,127,2415623500
69,19,17,Jits_Phase_5,0,1,48,41,2416018232
69,19,17,Jits_Phase_5,1,5,63,98,2416044412
69,19,17,Jits_Phase_5,2,5,56,103,2416093792
69,19,17,Jits_Phase_5,3,5,80,127,2416104060
69,19,17,Jits_Phase_5,0,1,48,41,2416510856
69,19,17,Jits_Phase_5,1,5,56,103,2416594284
69,19,17,Jits_Phase_5,2,5,63,98,2416643372
69,19,17,Jits_Phase_5,3,5,80,127,2416653720
69,19,17,Jits_Phase_5,0,1,48,39,2417014524
69,19,17,Jits_Phase_5,1,5,56,103,2417064220
69,19,17,Jits_Phase_5,2,5,63,98,2417073744
69,19,17,Jits_Phase_5,3,5,80,127,2417154292
69,19,17,Jits_Phase_5,0,9999,9999,9999,2332801148
69,19,17,Jits_Phase_5,1,9999,9999,9999,2333301828
69,19,17,Jits_Phase_5,2,9999,9999,9999,2333801560
69,19,17,Jits_Phase_5,3,9999,9999,9999,2334301284
69,19,17,Jits_Phase_5,4,9999,9999,9999,2334802028
69,19,17,Jits_Phase_5,5,9999,9999,9999,2335301708
69,19,17,Jits_Phase_5,6,9999,9999,9999,2335801456
69,19,17,Jits_Phase_5,7,9999,9999,9999,2336301120
69,19,17,Jits_Phase_5,8,9999,9999,9999,2336801916
69,19,17,Jits_Phase_5,9,9999,9999,9999,2337301592
69,19,17,Jits_Phase_5,10,9999,9999,9999,2337801340
69,19,17,Jits_Phase_5,11,9999,9999,9999,2338302040
69,19,17,Jits_Phase_5,12,9999,9999,9999,2338801780
69,19,17,Jits_Phase_5,13,9999,9999,9999,2339301452
69,19,17,Jits_Phase_5,14,9999,9999,9999,2339801204
69,19,17,Jits_Phase_5,15,9999,9999,9999,2340301924
69,19,17,Jits_Phase_5,16,9999,9999,9999,2340801600
69,19,17,Jits_Phase_5,17,9999,9999,9999,2341301348
69,19,17,Jits_Phase_5,18,9999,9999,9999,2341802068
69,19,17,Jits_Phase_5,19,9999,9999,9999,2342301820
69,19,17,Jits_Phase_5,20,9999,9999,9999,2342801496
69,19,17,Jits_Phase_5,21,9999,9999,9999,2343301248
69,19,17,Jits_Phase_5,22,9999,9999,9999,2343801980
69,19,17,Jits_Phase_5,23,9999,9999,9999,2344301668
69,19,17,Jits_Phase_5,24,9999,9999,9999,2344801344
69,19,17,Jits_Phase_5,25,9999,9999,9999,2345302076
69,19,17,Jits_Phase_5,26,9999,9999,9999,2345812092
69,19,17,Jits_Phase_5,27,9999,9999,9999,2346311756
69,19,17,Jits_Phase_5,28,9999,9999,9999,2346811448
69,19,17,Jits_Phase_5,29,9999,9999,9999,2347311208
69,19,17,Jits_Phase_5,30,9999,9999,9999,2347801684
69,19,17,Jits_Phase_5,31,9999,9999,9999,2348301376
69,19,17,Jits_Phase_5,32,9999,9999,9999,2348801116
69,19,17,Jits_Phase_5,33,9999,9999,9999,2349301844
69,19,17,Jits_Phase_5,34,9999,9999,9999,2349801592
69,19,17,Jits_Phase_5,35,9999,9999,9999,2350301272
69,19,17,Jits_Phase_5,36,9999,9999,9999,2350801980
69,19,17,Jits_Phase_5,37,9999,9999,9999,2351301732
69,19,17,Jits_Phase_5,38,9999,9999,9999,2351801412
69,19,17,Jits_Phase_5,39,9999,9999,9999,2352301164
69,19,17,Jits_Phase_5,40,9999,9999,9999,2352801888
69,19,17,Jits_Phase_5,41,9999,9999,9999,2353301560
69,19,17,Jits_Phase_5,42,9999,9999,9999,2353801324
69,19,17,Jits_Phase_5,43,9999,9999,9999,2354302024
69,19,17,Jits_Phase_5,44,9999,9999,9999,2354801748
69,19,17,Jits_Phase_5,45,9999,9999,9999,2355301496
69,19,17,Jits_Phase_5,46,9999,9999,9999,2355801172
69,19,17,Jits_Phase_5,47,9999,9999,9999,2356301900
69,19,17,Jits_Phase_5,48,9999,9999,9999,2356811840
69,19,17,Jits_Phase_5,49,9999,9999,9999,2357311596
69,19,17,Jits_Phase_5,50,9999,9999,9999,2357811264
69,19,17,Jits_Phase_5,51,9999,9999,9999,2358312000
69,19,17,Jits_Phase_5,52,9999,9999,9999,2358811756
69,19,17,Jits_Phase_5,53,9999,9999,9999,2359311432
69,19,17,Jits_Phase_5,54,9999,9999,9999,2359811188
69,19,17,Jits_Phase_5,55,9999,9999,9999,2360311872
69,19,17,Jits_Phase_5,56,9999,9999,9999,2360811628
69,19,17,Jits_Phase_5,57,9999,9999,9999,2361311312
69,19,17,Jits_Phase_5,58,9999,9999,9999,2361812032
69,19,17,Jits_Phase_5,59,9999,9999,9999,2362311768
69,19,17,Jits_Phase_5,60,9999,9999,9999,2362811516
69,19,17,Jits_Phase_5,61,9999,9999,9999,2363311188
69,19,17,Jits_Phase_5,62,9999,9999,9999,2363811924
69,19,17,Jits_Phase_5,63,9999,9999,9999,2364311608
69,19,17,Jits_Phase_5,64,9999,9999,9999,2364831812
69,19,17,Jits_Phase_5,65,9999,9999,9999,2365331560
69,19,17,Jits_Phase_5,66,9999,9999,9999,2365831236
69,19,17,Jits_Phase_5,67,9999,9999,9999,2366331960
69,19,17,Jits_Phase_5,68,9999,9999,9999,2366831728
69,19,17,Jits_Phase_5,69,9999,9999,9999,2367331404
69,19,17,Jits_Phase_5,70,9999,9999,9999,2367831140
69,19,17,Jits_Phase_5,71,9999,9999,9999,2368331876
69,19,17,Jits_Phase_5,72,9999,9999,9999,2368831564
69,19,17,Jits_Phase_5,73,9999,9999,9999,2369331256
69,19,17,Jits_Phase_5,74,9999,9999,9999,2369832012
69,19,17,Jits_Phase_5,75,9999,9999,9999,2370331760
69,19,17,Jits_Phase_5,76,9999,9999,9999,2370831436
69,19,17,Jits_Phase_5,77,9999,9999,9999,2371331192
69,19,17,Jits_Phase_5,78,9999,9999,9999,2371831888
69,19,17,Jits_Phase_5,79,9999,9999,9999,2372331632
69,19,17,Jits_Phase_5,80,9999,9999,9999,2372831308
69,19,17,Jits_Phase_5,81,9999,9999,9999,2373311580
69,19,17,Jits_Phase_5,82,9999,9999,9999,2373811256
69,19,17,Jits_Phase_5,83,9999,9999,9999,2374312056
69,19,17,Jits_Phase_5,84,9999,9999,9999,2374811744
69,19,17,Jits_Phase_5,85,9999,9999,9999,2375311416
69,19,17,Jits_Phase_5,86,9999,9999,9999,2375811168
69,19,17,Jits_Phase_5,87,9999,9999,9999,2376311888
69,19,17,Jits_Phase_5,88,9999,9999,9999,2376811636
69,19,17,Jits_Phase_5,89,9999,9999,9999,2377311308
69,19,17,Jits_Phase_5,90,9999,9999,9999,2377812036
69,19,17,Jits_Phase_5,91,9999,9999,9999,2378311780
69,19,17,Jits_Phase_5,92,9999,9999,9999,2378811520
69,19,17,Jits_Phase_5,93,9999,9999,9999,2379311200
69,19,17,Jits_Phase_5,94,9999,9999,9999,2379811920
69,19,17,Jits_Phase_5,95,9999,9999,9999,2380311668
69,19,17,Jits_Phase_5,96,9999,9999,9999,2380811344
69,19,17,Jits_Phase_5,97,9999,9999,9999,2381261920
69,19,17,Jits_Phase_5,98,9999,9999,9999,2381761596
69,19,17,Jits_Phase_5,99,9999,9999,9999,2382261344
69,19,17,Jits_Phase_5,100,9999,9999,9999,2382762064
69,19,17,Jits_Phase_5,101,9999,9999,9999,2383261816
69,19,17,Jits_Phase_5,102,9999,9999,9999,2383761480
69,19,17,Jits_Phase_5,103,9999,9999,9999,2384261236
69,19,17,Jits_Phase_5,104,9999,9999,9999,2384761960
69,19,17,Jits_Phase_5,105,9999,9999,9999,2385261628
69,19,17,Jits_Phase_5,106,9999,9999,9999,2385761380
69,19,17,Jits_Phase_5,107,9999,9999,9999,2386262100
69,19,17,Jits_Phase_5,108,9999,9999,9999,2386772036
69,19,17,Jits_Phase_5,109,9999,9999,9999,2387271784
69,19,17,Jits_Phase_5,110,9999,9999,9999,2387771472
69,19,17,Jits_Phase_5,111,9999,9999,9999,2388271168
69,19,17,Jits_Phase_5,112,9999,9999,9999,2388771916
69,19,17,Jits_Phase_5,113,9999,9999,9999,2389271668
69,19,17,Jits_Phase_5,114,9999,9999,9999,2389821536
69,19,17,Jits_Phase_5,115,9999,9999,9999,2390321208
69,19,17,Jits_Phase_5,116,9999,9999,9999,2390822000
69,19,17,Jits_Phase_5,117,9999,9999,9999,2391321680
69,19,17,Jits_Phase_5,118,9999,9999,9999,2391821372
69,19,17,Jits_Phase_5,119,9999,9999,9999,2392321112
69,19,17,Jits_Phase_5,120,9999,9999,9999,2392821820
69,19,17,Jits_Phase_5,121,9999,9999,9999,2393321576
69,19,17,Jits_Phase_5,122,9999,9999,9999,2393821268
69,19,17,Jits_Phase_5,123,9999,9999,9999,2394322004
69,19,17,Jits_Phase_5,124,9999,9999,9999,2394821748
69,19,17,Jits_Phase_5,125,9999,9999,9999,2395321412
69,19,17,Jits_Phase_5,126,9999,9999,9999,2395821168
69,19,17,Jits_Phase_5,127,9999,9999,9999,2396321884
69,19,17,Jits_Phase_5,128,9999,9999,9999,2396821564
69,19,17,Jits_Phase_5,129,9999,9999,9999,2397321328
69,19,17,Jits_Phase_5,130,9999,9999,9999,2397822064
69,19,17,Jits_Phase_5,131,9999,9999,9999,2398422128
69,19,17,Jits_Phase_5,132,9999,9999,9999,2398932060
69,19,17,Jits_Phase_5,133,9999,9999,9999,2399431740
69,19,17,Jits_Phase_5,134,9999,9999,9999,2399931484
69,19,17,Jits_Phase_5,135,9999,9999,9999,2400431176
69,19,17,Jits_Phase_5,136,9999,9999,9999,2400931912
69,19,17,Jits_Phase_5,137,9999,9999,9999,2401431660
69,19,17,Jits_Phase_5,138,9999,9999,9999,2401931336
69,19,17,Jits_Phase_5,139,9999,9999,9999,2402432076
69,19,17,Jits_Phase_5,140,9999,9999,9999,2402942012
69,19,17,Jits_Phase_5,141,9999,9999,9999,2403441764
69,19,17,Jits_Phase_5,142,9999,9999,9999,2403941444
69,19,17,Jits_Phase_5,143,9999,9999,9999,2404441208
69,19,17,Jits_Phase_5,144,9999,9999,9999,2404941924
69,19,17,Jits_Phase_5,145,9999,9999,9999,2405441604
69,19,17,Jits_Phase_5,146,9999,9999,9999,2405941372
69,19,17,Jits_Phase_5,147,9999,9999,9999,2406442100
69,19,17,Jits_Phase_5,148,9999,9999,9999,2406941768
69,19,17,Jits_Phase_5,149,9999,9999,9999,2407441460
69,19,17,Jits_Phase_5,150,9999,9999,9999,2407841852
69,19,17,Jits_Phase_5,151,9999,9999,9999,2408341608
69,19,17,Jits_Phase_5,152,9999,9999,9999,2408841300
69,19,17,Jits_Phase_5,153,9999,9999,9999,2409342024
69,19,17,Jits_Phase_5,154,9999,9999,9999,2409841776
69,19,17,Jits_Phase_5,155,9999,9999,9999,2410341448
69,19,17,Jits_Phase_5,156,9999,9999,9999,2410841188
69,19,17,Jits_Phase_5,157,9999,9999,9999,2411341904
69,19,17,Jits_Phase_5,158,9999,9999,9999,2411841656
69,19,17,Jits_Phase_5,159,9999,9999,9999,2412341332
69,19,17,Jits_Phase_5,160,9999,9999,9999,2412842068
69,19,17,Jits_Phase_5,161,9999,9999,9999,2413341748
69,19,17,Jits_Phase_5,162,9999,9999,9999,2413841496
69,19,17,Jits_Phase_5,163,9999,9999,9999,2414341188
69,19,17,Jits_Phase_5,164,9999,9999,9999,2414841952
69,19,17,Jits_Phase_5,165,9999,9999,9999,2415341628
69,19,17,Jits_Phase_5,166,9999,9999,9999,2415841380
69,19,17,Jits_Phase_5,167,9999,9999,9999,2416342100
69,19,17,Jits_Phase_5,168,9999,9999,9999,2416852044
69,19,17,Jits_Phase_5,169,9999,9999,9999,2417351796
69,20,3,ISIP_8,0,5,42,127,2485529076
69,20,3,ISIP_8,1,5,42,127,2486328608
69,20,3,ISIP_8,2,5,42,127,2487128364
69,20,3,ISIP_8,3,1,48,36,2487894496
69,20,3,ISIP_8,4,5,42,127,2487929232
69,20,3,ISIP_8,5,1,48,40,2488589132
69,20,3,ISIP_8,6,5,42,127,2488729024
69,20,3,ISIP_8,7,1,48,42,2489348704
69,20,3,ISIP_8,8,5,42,127,2489528536
69,20,3,ISIP_8,9,1,48,45,2490190692
69,20,3,ISIP_8,10,5,42,127,2490328420
69,20,3,ISIP_8,11,1,48,45,2491015192
69,20,3,ISIP_8,12,5,42,127,2491129272
69,20,3,ISIP_8,13,1,48,45,2491788044
69,20,3,ISIP_8,14,5,42,127,2491929080
69,20,3,ISIP_8,15,1,48,43,2492624504
69,20,3,ISIP_8,16,5,42,127,2492728736
69,20,3,ISIP_8,17,1,48,46,2493443708
69,20,3,ISIP_8,18,5,42,127,2493528412
69,20,3,ISIP_8,19,1,48,43,2494222272
69,20,3,ISIP_8,20,5,42,127,2494329180
69,20,3,ISIP_8,21,1,48,44,2494983564
69,20,3,ISIP_8,22,5,42,127,2495129060
69,20,3,ISIP_8,23,1,48,36,2495812840
69,20,3,ISIP_8,24,5,42,127,2495928644
69,20,3,ISIP_8,25,1,48,44,2496636880
69,20,3,ISIP_8,26,5,42,127,2496728544
69,20,3,ISIP_8,27,1,48,47,2497469152
69,20,3,ISIP_8,28,5,42,127,2497529172
69,20,3,ISIP_8,29,1,48,42,2498238520
69,20,3,ISIP_8,30,5,42,127,2498329008
69,20,3,ISIP_8,31,1,48,39,2499064884
69,20,3,ISIP_8,32,5,42,127,2499128812
69,20,3,ISIP_8,33,1,48,45,2499853500
69,20,3,ISIP_8,34,5,42,127,2499928476
69,20,3,ISIP_8,35,1,48,39,2500604536
69,20,3,ISIP_8,36,5,42,127,2500729164
69,20,3,ISIP_8,37,1,48,43,2501470012
69,20,3,ISIP_8,38,5,42,127,2501529136
69,20,3,ISIP_8,39,1,48,43,2502270196
69,20,3,ISIP_8,40,5,42,127,2502328796
69,20,3,ISIP_8,41,1,48,42,2503054296
69,20,3,ISIP_8,42,5,42,127,2503128308
69,20,3,ISIP_8,43,1,48,48,2503872432
69,20,3,ISIP_8,44,5,42,127,2503929088
69,20,3,ISIP_8,45,1,48,48,2504634992
69,20,3,ISIP_8,46,5,42,127,2504729424
69,20,3,ISIP_8,47,1,48,46,2505468108
69,20,3,ISIP_8,48,5,42,127,2505528876
69,20,3,ISIP_8,49,1,48,47,2506289828
69,20,3,ISIP_8,50,5,42,127,2506328460
69,20,3,ISIP_8,51,1,48,46,2507060916
69,20,3,ISIP_8,52,5,42,127,2507129164
69,20,3,ISIP_8,53,1,48,41,2507816220
69,20,3,ISIP_8,54,5,42,127,2507929032
69,20,3,ISIP_8,55,1,48,44,2508618800
69,20,3,ISIP_8,56,5,42,127,2508728840
69,20,3,ISIP_8,57,1,48,43,2509484132
69,20,3,ISIP_8,58,1,48,40,2510464608
69,20,3,ISIP_8,59,1,48,37,2511309140
69,20,3,ISIP_8,60,1,48,34,2512111936
69,20,3,ISIP_8,61,1,48,31,2512949684
69,20,3,ISIP_8,62,1,48,43,2513738640
69,20,3,ISIP_8,63,1,48,47,2514543836
69,20,3,ISIP_8,64,1,48,37,2515370416
69,20,3,ISIP_8,65,1,48,38,2516243096
69,20,3,ISIP_8,66,1,48,33,2517069084
69,20,3,ISIP_8,67,1,48,35,2517906060
69,20,3,ISIP_8,68,1,48,38,2518834164
69,20,3,ISIP_8,69,1,48,31,2519756564
69,20,3,ISIP_8,70,1,48,41,2520604716
69,20,3,ISIP_8,71,1,48,37,2521396368
69,20,3,ISIP_8,72,1,48,31,2522123692
69,20,3,ISIP_8,73,1,48,35,2522966948
69,20,3,ISIP_8,74,1,48,36,2523741472
69,20,3,ISIP_8,75,1,48,44,2524536864
69,20,3,ISIP_8,76,1,48,48,2525334576
69,20,3,ISIP_8,77,1,48,46,2526156892
69,20,3,ISIP_8,78,1,48,51,2526915928
69,20,3,ISIP_8,79,1,48,48,2527680348
69,20,3,ISIP_8,80,1,48,51,2528428544
69,20,3,ISIP_8,81,1,48,37,2529236280
69,20,3,ISIP_8,82,1,48,38,2529999132
69,20,3,ISIP_8,83,1,48,37,2530733416
69,20,3,ISIP_8,84,1,48,42,2531503820
69,20,3,ISIP_8,85,1,48,38,2532258972
69,20,3,ISIP_8,86,1,48,42,2532963256
69,20,3,ISIP_8,87,1,48,41,2533822600
69,20,3,ISIP_8,88,1,48,38,2534598240
69,20,3,ISIP_8,89,1,48,43,2535366256
69,20,3,ISIP_8,90,1,48,45,2536219268
69,20,3,ISIP_8,91,1,48,45,2536966492
69,20,3,ISIP_8,92,1,48,38,2537763748
69,20,3,ISIP_8,93,1,48,34,2538593624
69,20,3,ISIP_8,94,1,48,34,2539425216
69,20,3,ISIP_8,95,1,48,39,2540208416
69,20,3,ISIP_8,96,1,48,41,2540991840
69,20,3,ISIP_8,97,1,48,46,2541770320
69,20,3,ISIP_8,98,1,48,35,2542620412
69,20,3,ISIP_8,99,1,48,38,2543338592
69,20,3,ISIP_8,100,1,48,36,2544229968
69,20,3,ISIP_8,101,1,48,41,2544932016
69,20,3,ISIP_8,102,1,48,34,2545731748
69,20,3,ISIP_8,103,1,48,40,2546512028
69,20,3,ISIP_8,104,1,48,38,2547239424
69,20,3,ISIP_8,105,1,48,40,2548087852
69,20,3,ISIP_8,106,1,48,43,2548886756
69,20,3,ISIP_8,107,1,48,38,2549657012
69,20,3,ISIP_8,108,1,48,38,2550443208
69,20,3,ISIP_8,109,1,48,27,2551272704
69,20,3,ISIP_8,110,1,48,38,2552040336
69,20,3,ISIP_8,111,1,48,40,2552818524
69,20,3,ISIP_8,112,1,48,39,2553579360
69,20,3,ISIP_8,113,1,48,31,2554466704
69,20,3,ISIP_8,114,1,48,37,2555193360
69,20,3,ISIP_8,115,1,48,39,2555936240
69,20,3,ISIP_8,116,1,48,40,2556726916
69,20,3,ISIP_8,117,1,48,41,2557451236
69,20,3,ISIP_8,118,1,48,37,2558250516
69,20,3,ISIP_8,119,1,48,32,2559114948
69,20,3,ISIP_8,120,1,48,41,2559880192
69,20,3,ISIP_8,121,1,48,42,2560644320
69,20,3,ISIP_8,122,1,48,38,2561452132
69,20,3,ISIP_8,123,1,48,38,2562218944
69,20,3,ISIP_8,124,1,48,35,2562973948
69,20,3,ISIP_8,125,1,48,40,2563717048
69,20,3,ISIP_8,126,1,48,29,2564557468
69,20,3,ISIP_8,127,1,48,31,2565387444
69,20,3,ISIP_8,128,1,48,40,2566127232
69,20,3,ISIP_8,129,1,48,38,2566970068
69,20,3,ISIP_8,130,1,48,33,2567825972
69,20,3,ISIP_8,131,1,48,31,2568687188
69,20,3,ISIP_8,132,1,48,34,2569403144
69,20,3,ISIP_8,133,1,48,34,2570271936
69,20,3,ISIP_8,134,1,48,35,2571024620
69,20,3,ISIP_8,135,1,48,32,2571822328
69,20,3,ISIP_8,136,1,48,39,2572659828
69,20,3,ISIP_8,137,1,48,28,2573458208
69,20,3,ISIP_8,138,1,48,32,2574260632
69,20,3,ISIP_8,139,1,48,34,2575029396
69,20,3,ISIP_8,140,1,48,32,2575863856
69,20,3,ISIP_8,141,1,48,45,2576573800
69,20,3,ISIP_8,142,1,48,38,2577461816
69,20,3,ISIP_8,143,1,48,29,2578296852
69,20,3,ISIP_8,144,1,48,38,2579129876
69,20,3,ISIP_8,145,1,48,32,2579975856
69,20,3,ISIP_8,146,1,48,30,2580765336
69,20,3,ISIP_8,147,1,48,34,2581640388
69,20,3,ISIP_8,148,1,48,25,2582452236
69,20,3,ISIP_8,149,1,48,33,2583300976
69,20,3,ISIP_8,150,1,48,36,2584143344
69,20,3,ISIP_8,151,1,48,34,2584934396
69,20,3,ISIP_8,152,1,48,38,2585762400
69,20,3,ISIP_8,153,1,48,36,2586558016
69,20,3,ISIP_8,154,1,48,40,2587334932
69,20,3,ISIP_8,155,1,48,35,2588174404
69,20,3,ISIP_8,156,1,48,39,2588930228
69,20,3,ISIP_8,157,1,48,37,2589725244
69,20,3,ISIP_8,158,1,48,29,2590416860
69,20,3,ISIP_8,159,1,48,30,2591272492
69,20,3,ISIP_8,160,1,48,37,2591986404
69,20,3,ISIP_8,161,1,48,35,2592703620
69,20,3,ISIP_8,162,1,48,35,2593475824
69,20,3,ISIP_8,163,1,48,35,2594252964
69,20,3,ISIP_8,164,1,48,40,2595023444
69,20,3,ISIP_8,165,1,48,37,2595824896
69,20,3,ISIP_8,166,1,48,31,2596652100
69,20,3,ISIP_8,167,1,48,37,2597506580
69,20,3,ISIP_8,168,1,48,38,2598349108
69,20,3,ISIP_8,169,1,48,34,2599132604
69,20,3,ISIP_8,170,1,48,37,2599948288
69,20,3,ISIP_8,171,1,48,42,2600799332
69,20,3,ISIP_8,172,1,48,32,2601608932
69,20,3,ISIP_8,173,1,48,37,2602420484
69,20,3,ISIP_8,174,1,48,42,2603193280
69,20,3,ISIP_8,175,1,48,36,2603953744
69,20,3,ISIP_8,176,1,48,34,2604765512
69,20,3,ISIP_8,0,9999,9999,9999,2485526640
69,20,3,ISIP_8,1,9999,9999,9999,2486326320
69,20,3,ISIP_8,2,9999,9999,9999,2487126076
69,20,3,ISIP_8,3,9999,9999,9999,2487926872
69,20,3,ISIP_8,4,9999,9999,9999,2488726588
69,20,3,ISIP_8,5,9999,9999,9999,2489526324
69,20,3,ISIP_8,6,9999,9999,9999,2490326128
69,20,3,ISIP_8,7,9999,9999,9999,2491126836
69,20,3,ISIP_8,8,9999,9999,9999,2491926644
69,20,3,ISIP_8,9,9999,9999,9999,2492726376
69,20,3,ISIP_8,10,9999,9999,9999,2493526124
69,20,3,ISIP_8,11,9999,9999,9999,2494326888
69,20,3,ISIP_8,12,9999,9999,9999,2495126624
69,20,3,ISIP_8,13,9999,9999,9999,2495926356
69,20,3,ISIP_8,14,9999,9999,9999,2496726104
69,20,3,ISIP_8,15,9999,9999,9999,2497526884
69,20,3,ISIP_8,16,9999,9999,9999,2498326644
69,20,3,ISIP_8,17,9999,9999,9999,2499126376
69,20,3,ISIP_8,18,9999,9999,9999,2499926112
69,20,3,ISIP_8,19,9999,9999,9999,2500726876
69,20,3,ISIP_8,20,9999,9999,9999,2501526628
69,20,3,ISIP_8,21,9999,9999,9999,2502326360
69,20,3,ISIP_8,22,9999,9999,9999,2503126092
69,20,3,ISIP_8,23,9999,9999,9999,2503926876
69,20,3,ISIP_8,24,9999,9999,9999,2504726632
69,20,3,ISIP_8,25,9999,9999,9999,2505526364
69,20,3,ISIP_8,26,9999,9999,9999,2506326096
69,20,3,ISIP_8,27,9999,9999,9999,2507126876
69,20,3,ISIP_8,28,9999,9999,9999,2507926596
69,20,3,ISIP_8,29,9999,9999,9999,2508726328
69,20,3,ISIP_8,30,9999,9999,9999,2509526080
69,20,3,ISIP_8,31,9999,9999,9999,2510326860
69,20,3,ISIP_8,32,9999,9999,9999,2511126616
69,20,3,ISIP_8,33,9999,9999,9999,2511926344
69,20,3,ISIP_8,34,9999,9999,9999,2512726072
69,20,3,ISIP_8,35,9999,9999,9999,2513526848
69,20,3,ISIP_8,36,9999,9999,9999,2514326580
69,20,3,ISIP_8,37,9999,9999,9999,2515126384
69,20,3,ISIP_8,38,9999,9999,9999,2515926112
69,20,3,ISIP_8,39,9999,9999,9999,2516726888
69,20,3,ISIP_8,40,9999,9999,9999,2517526644
69,20,3,ISIP_8,41,9999,9999,9999,2518326372
69,20,3,ISIP_8,42,9999,9999,9999,2519126100
69,20,3,ISIP_8,43,9999,9999,9999,2519926880
69,20,3,ISIP_8,44,9999,9999,9999,2520726608
69,20,3,ISIP_8,45,9999,9999,9999,2521526336
69,20,3,ISIP_8,46,9999,9999,9999,2522326064
69,20,3,ISIP_8,47,9999,9999,9999,2523126840
69,20,3,ISIP_8,48,9999,9999,9999,2523926596
69,20,3,ISIP_8,49,9999,9999,9999,2524726324
69,20,3,ISIP_8,50,9999,9999,9999,2525526128
69,20,3,ISIP_8,51,9999,9999,9999,2526326900
69,20,3,ISIP_8,52,9999,9999,9999,2527126632
69,20,3,ISIP_8,53,9999,9999,9999,2527926360
69,20,3,ISIP_8,54,9999,9999,9999,2528726088
69,20,3,ISIP_8,55,9999,9999,9999,2529526864
69,20,3,ISIP_8,56,9999,9999,9999,2530326620
69,20,3,ISIP_8,57,9999,9999,9999,2531126348
69,20,3,ISIP_8,58,9999,9999,9999,2531926076
69,20,3,ISIP_8,59,9999,9999,9999,2532726852
69,20,3,ISIP_8,60,9999,9999,9999,2533526584
69,20,3,ISIP_8,61,9999,9999,9999,2534326384
69,20,3,ISIP_8,62,9999,9999,9999,2535126116
69,20,3,ISIP_8,63,9999,9999,9999,2535926892
69,20,3,ISIP_8,64,9999,9999,9999,2536726644
69,20,3,ISIP_8,65,9999,9999,9999,2537526376
69,20,3,ISIP_8,66,9999,9999,9999,2538326104
69,20,3,ISIP_8,67,9999,9999,9999,2539126880
69,20,3,ISIP_8,68,9999,9999,9999,2539926608
69,20,3,ISIP_8,69,9999,9999,9999,2540726336
69,20,3,ISIP_8,70,9999,9999,9999,2541526068
69,20,3,ISIP_8,71,9999,9999,9999,2542326840
69,20,3,ISIP_8,72,9999,9999,9999,2543126596
69,20,3,ISIP_8,73,9999,9999,9999,2543926324
69,20,3,ISIP_8,74,9999,9999,9999,2544726128
69,20,3,ISIP_8,75,9999,9999,9999,2545526832
69,20,3,ISIP_8,76,9999,9999,9999,2546326636
69,20,3,ISIP_8,77,9999,9999,9999,2547126364
69,20,3,ISIP_8,78,9999,9999,9999,2547926092
69,20,3,ISIP_8,79,9999,9999,9999,2548726868
69,20,3,ISIP_8,80,9999,9999,9999,2549526624
69,20,3,ISIP_8,81,9999,9999,9999,2550326352
69,20,3,ISIP_8,82,9999,9999,9999,2551126080
69,20,3,ISIP_8,83,9999,9999,9999,2551926856
69,20,3,ISIP_8,84,9999,9999,9999,2552726584
69,20,3,ISIP_8,85,9999,9999,9999,2553526388
69,20,3,ISIP_8,86,9999,9999,9999,2554326116
69,20,3,ISIP_8,87,9999,9999,9999,2555126916
69,20,3,ISIP_8,88,9999,9999,9999,2555926648
69,20,3,ISIP_8,89,9999,9999,9999,2556726320
69,20,3,ISIP_8,90,9999,9999,9999,2557526100
69,20,3,ISIP_8,91,9999,9999,9999,2558326872
69,20,3,ISIP_8,92,9999,9999,9999,2559126604
69,20,3,ISIP_8,93,9999,9999,9999,2559926336
69,20,3,ISIP_8,94,9999,9999,9999,2560726064
69,20,3,ISIP_8,95,9999,9999,9999,2561526864
69,20,3,ISIP_8,96,9999,9999,9999,2562326576
69,20,3,ISIP_8,97,9999,9999,9999,2563126380
69,20,3,ISIP_8,98,9999,9999,9999,2563926112
69,20,3,ISIP_8,99,9999,9999,9999,2564726884
69,20,3,ISIP_8,100,9999,9999,9999,2565526616
69,20,3,ISIP_8,101,9999,9999,9999,2566326344
69,20,3,ISIP_8,102,9999,9999,9999,2567126072
69,20,3,ISIP_8,103,9999,9999,9999,2567926876
69,20,3,ISIP_8,104,9999,9999,9999,2568726620
69,20,3,ISIP_8,105,9999,9999,9999,2569526332
69,20,3,ISIP_8,106,9999,9999,9999,2570326076
69,20,3,ISIP_8,107,9999,9999,9999,2571126840
69,20,3,ISIP_8,108,9999,9999,9999,2571926644
69,20,3,ISIP_8,109,9999,9999,9999,2572726384
69,20,3,ISIP_8,110,9999,9999,9999,2573526116
69,20,3,ISIP_8,111,9999,9999,9999,2574326840
69,20,3,ISIP_8,112,9999,9999,9999,2575126628
69,20,3,ISIP_8,113,9999,9999,9999,2575926372
69,20,3,ISIP_8,114,9999,9999,9999,2576726088
69,20,3,ISIP_8,115,9999,9999,9999,2577526880
69,20,3,ISIP_8,116,9999,9999,9999,2578326608
69,20,3,ISIP_8,117,9999,9999,9999,2579126344
69,20,3,ISIP_8,118,9999,9999,9999,2579926072
69,20,3,ISIP_8,119,9999,9999,9999,2580726872
69,20,3,ISIP_8,120,9999,9999,9999,2581526600
69,20,3,ISIP_8,121,9999,9999,9999,2582326328
69,20,3,ISIP_8,122,9999,9999,9999,2583126136
69,20,3,ISIP_8,123,9999,9999,9999,2583926836
69,20,3,ISIP_8,124,9999,9999,9999,2584726640
69,20,3,ISIP_8,125,9999,9999,9999,2585526372
69,20,3,ISIP_8,126,9999,9999,9999,2586326100
69,20,3,ISIP_8,127,9999,9999,9999,2587126900
69,20,3,ISIP_8,128,9999,9999,9999,2587926628
69,20,3,ISIP_8,129,9999,9999,9999,2588726356
69,20,3,ISIP_8,130,9999,9999,9999,2589526088
69,20,3,ISIP_8,131,9999,9999,9999,2590326864
69,20,3,ISIP_8,132,9999,9999,9999,2591126592
69,20,3,ISIP_8,133,9999,9999,9999,2591926324
69,20,3,ISIP_8,134,9999,9999,9999,2592726120
69,20,3,ISIP_8,135,9999,9999,9999,2593526848
69,20,3,ISIP_8,136,9999,9999,9999,2594326576
69,20,3,ISIP_8,137,9999,9999,9999,2595126364
69,20,3,ISIP_8,138,9999,9999,9999,2595926092
69,20,3,ISIP_8,139,9999,9999,9999,2596726884
69,20,3,ISIP_8,140,9999,9999,9999,2597526612
69,20,3,ISIP_8,141,9999,9999,9999,2598326348
69,20,3,ISIP_8,142,9999,9999,9999,2599126080
69,20,3,ISIP_8,143,9999,9999,9999,2599926880
69,20,3,ISIP_8,144,9999,9999,9999,2600726612
69,20,3,ISIP_8,145,9999,9999,9999,2601526340
69,20,3,ISIP_8,146,9999,9999,9999,2602326068
69,20,3,ISIP_8,147,9999,9999,9999,2603126844
69,20,3,ISIP_8,148,9999,9999,9999,2603926648
69,20,3,ISIP_8,149,9999,9999,9999,2604726376
69,21,5,ISIP_5,0,5,42,127,2629953796
69,21,5,ISIP_5,1,5,42,127,2630453584
69,21,5,ISIP_5,2,5,42,127,2630954348
69,21,5,ISIP_5,3,1,48,31,2631444976
69,21,5,ISIP_5,4,5,42,127,2631454060
69,21,5,ISIP_5,5,5,42,127,2631953760
69,21,5,ISIP_5,6,1,48,32,2631971916
69,21,5,ISIP_5,7,5,42,127,2632453380
69,21,5,ISIP_5,8,1,48,36,2632490900
69,21,5,ISIP_5,9,5,42,127,2632954344
69,21,5,ISIP_5,10,1,48,35,2633008252
69,21,5,ISIP_5,11,5,42,127,2633453792
69,21,5,ISIP_5,12,1,48,30,2633494784
69,21,5,ISIP_5,13,5,42,127,2633953636
69,21,5,ISIP_5,14,1,48,31,2633963260
69,21,5,ISIP_5,15,5,42,127,2634454452
69,21,5,ISIP_5,16,1,48,34,2634460188
69,21,5,ISIP_5,17,1,48,33,2634926428
69,21,5,ISIP_5,18,5,42,127,2634954212
69,21,5,ISIP_5,19,1,48,32,2635417592
69,21,5,ISIP_5,20,5,42,127,2635453760
69,21,5,ISIP_5,21,1,48,38,2635887592
69,21,5,ISIP_5,22,5,42,127,2635953380
69,21,5,ISIP_5,23,1,48,31,2636390508
69,21,5,ISIP_5,24,5,42,127,2636454196
69,21,5,ISIP_5,25,1,48,31,2636888332
69,21,5,ISIP_5,26,5,42,127,2636954040
69,21,5,ISIP_5,27,1,48,44,2637402084
69,21,5,ISIP_5,28,5,42,127,2637453736
69,21,5,ISIP_5,29,1,48,44,2637916744
69,21,5,ISIP_5,30,5,42,127,2637954404
69,21,5,ISIP_5,31,1,48,43,2638379120
69,21,5,ISIP_5,32,5,42,127,2638454100
69,21,5,ISIP_5,33,5,42,127,2638953724
69,21,5,ISIP_5,34,1,48,36,2639385932
69,21,5,ISIP_5,35,5,42,127,2639453584
69,21,5,ISIP_5,36,1,48,41,2639905596
69,21,5,ISIP_5,37,5,42,127,2639954252
69,21,5,ISIP_5,38,1,48,45,2640412472
69,21,5,ISIP_5,39,5,42,127,2640454168
69,21,5,ISIP_5,40,1,48,44,2640878932
69,21,5,ISIP_5,41,5,42,127,2640953788
69,21,5,ISIP_5,42,1,48,40,2641355964
69,21,5,ISIP_5,43,5,42,127,2641453468
69,21,5,ISIP_5,44,1,48,39,2641899112
69,21,5,ISIP_5,45,5,42,127,2641954224
69,21,5,ISIP_5,46,5,42,127,2642454148
69,21,5,ISIP_5,47,1,48,41,2642478660
69,21,5,ISIP_5,48,5,42,127,2642953472
69,21,5,ISIP_5,49,1,48,40,2642966460
69,21,5,ISIP_5,50,5,42,127,2643454288
69,21,5,ISIP_5,51,1,48,27,2643467432
69,21,5,ISIP_5,52,1,48,39,2643953884
69,21,5,ISIP_5,53,5,42,127,2643955248
69,21,5,ISIP_5,54,5,42,127,2644453728
69,21,5,ISIP_5,55,1,48,31,2644481032
69,21,5,ISIP_5,56,1,48,37,2644953796
69,21,5,ISIP_5,57,5,42,127,2644955132
69,21,5,ISIP_5,58,5,42,127,2645454164
69,21,5,ISIP_5,59,1,48,40,2645500836
69,21,5,ISIP_5,60,5,42,127,2645954084
69,21,5,ISIP_5,61,1,48,37,2645962964
69,21,5,ISIP_5,62,5,42,127,2646453704
69,21,5,ISIP_5,63,1,48,25,2646508284
69,21,5,ISIP_5,64,1,48,44,2646922016
69,21,5,ISIP_5,65,5,42,127,2646954292
69,21,5,ISIP_5,66,5,42,127,2647454140
69,21,5,ISIP_5,67,1,48,40,2647485980
69,21,5,ISIP_5,68,5,42,127,2647953984
69,21,5,ISIP_5,69,1,48,44,2647958600
69,21,5,ISIP_5,70,5,42,127,2648453380
69,21,5,ISIP_5,71,1,48,45,2648455320
69,21,5,ISIP_5,72,1,48,40,2648924240
69,21,5,ISIP_5,73,5,42,127,2648954116
69,21,5,ISIP_5,74,5,42,127,2649454112
69,21,5,ISIP_5,75,1,48,42,2649458204
69,21,5,ISIP_5,76,1,48,41,2649970384
69,21,5,ISIP_5,77,1,48,43,2650503368
69,21,5,ISIP_5,78,1,48,37,2651017344
69,21,5,ISIP_5,79,1,48,36,2651514784
69,21,5,ISIP_5,80,1,48,28,2652026896
69,21,5,ISIP_5,81,1,48,43,2652547000
69,21,5,ISIP_5,82,1,48,42,2653034428
69,21,5,ISIP_5,83,1,48,43,2653592912
69,21,5,ISIP_5,84,1,48,37,2654059460
69,21,5,ISIP_5,85,1,48,40,2654560048
69,21,5,ISIP_5,86,1,48,35,2655081208
69,21,5,ISIP_5,87,1,48,43,2655557936
69,21,5,ISIP_5,88,1,48,39,2656047604
69,21,5,ISIP_5,89,1,48,38,2656587912
69,21,5,ISIP_5,90,1,48,39,2657104280
69,21,5,ISIP_5,91,1,48,42,2657583924
69,21,5,ISIP_5,92,1,48,39,2658100296
69,21,5,ISIP_5,93,1,48,37,2658606124
69,21,5,ISIP_5,94,1,48,40,2659095640
69,21,5,ISIP_5,95,1,48,40,2659598168
69,21,5,ISIP_5,96,1,48,39,2660064852
69,21,5,ISIP_5,97,1,48,16,2660613632
69,21,5,ISIP_5,98,1,48,30,2661064908
69,21,5,ISIP_5,99,1,48,40,2661543648
69,21,5,ISIP_5,100,1,48,38,2662040272
69,21,5,ISIP_5,101,1,48,44,2662487680
69,21,5,ISIP_5,102,1,48,39,2662975104
69,21,5,ISIP_5,103,1,48,48,2663476592
69,21,5,ISIP_5,104,1,48,39,2663946196
69,21,5,ISIP_5,105,1,48,37,2664398292
69,21,5,ISIP_5,106,1,48,38,2664878312
69,21,5,ISIP_5,107,1,48,43,2665384136
69,21,5,ISIP_5,108,1,48,38,2665854356
69,21,5,ISIP_5,109,1,48,40,2666365344
69,21,5,ISIP_5,110,1,48,44,2666830248
69,21,5,ISIP_5,111,1,48,48,2667276536
69,21,5,ISIP_5,112,1,48,38,2667769492
69,21,5,ISIP_5,113,1,48,41,2668238196
69,21,5,ISIP_5,114,1,48,37,2668673036
69,21,5,ISIP_5,115,1,48,42,2669121484
69,21,5,ISIP_5,116,1,48,35,2669592308
69,21,5,ISIP_5,117,1,48,43,2670049036
69,21,5,ISIP_5,118,1,48,32,2670535416
69,21,5,ISIP_5,119,1,48,42,2670961352
69,21,5,ISIP_5,120,1,48,41,2671503460
69,21,5,ISIP_5,121,1,48,38,2671976968
69,21,5,ISIP_5,122,1,48,41,2672467460
69,21,5,ISIP_5,123,1,48,35,2672963336
69,21,5,ISIP_5,124,1,48,15,2673529972
69,21,5,ISIP_5,125,1,48,44,2673974684
69,21,5,ISIP_5,126,1,48,42,2674469808
69,21,5,ISIP_5,127,1,48,44,2674982664
69,21,5,ISIP_5,128,1,48,44,2675401684
69,21,5,ISIP_5,129,1,48,40,2675911172
69,21,5,ISIP_5,130,1,48,36,2676424552
69,21,5,ISIP_5,131,1,48,43,2676865380
69,21,5,ISIP_5,132,1,48,45,2677349508
69,21,5,ISIP_5,133,1,48,45,2677839476
69,21,5,ISIP_5,134,1,48,42,2678306856
69,21,5,ISIP_5,135,1,48,43,2678778496
69,21,5,ISIP_5,136,1,48,47,2679210024
69,21,5,ISIP_5,137,1,48,38,2679724892
69,21,5,ISIP_5,138,1,48,41,2680227056
69,21,5,ISIP_5,139,1,48,44,2680733548
69,21,5,ISIP_5,140,1,48,45,2681137648
69,21,5,ISIP_5,141,1,48,41,2681578224
69,21,5,ISIP_5,142,1,48,40,2682063404
69,21,5,ISIP_5,143,1,48,42,2682596900
69,21,5,ISIP_5,144,1,48,46,2683063080
69,21,5,ISIP_5,145,1,48,41,2683509964
69,21,5,ISIP_5,146,1,48,42,2684033220
69,21,5,ISIP_5,147,1,48,50,2684530212
69,21,5,ISIP_5,148,1,48,51,2684991380
69,21,5,ISIP_5,149,1,48,47,2685434364
69,21,5,ISIP_5,150,1,48,49,2685895064
69,21,5,ISIP_5,151,1,48,38,2686371044
69,21,5,ISIP_5,152,1,48,49,2686832960
69,21,5,ISIP_5,153,1,48,44,2687310508
69,21,5,ISIP_5,154,1,48,41,2687781328
69,21,5,ISIP_5,155,1,48,41,2688240404
69,21,5,ISIP_5,156,1,48,44,2688693324
69,21,5,ISIP_5,157,1,48,47,2689139832
69,21,5,ISIP_5,158,1,48,48,2689609828
69,21,5,ISIP_5,159,1,48,43,2690095680
69,21,5,ISIP_5,160,1,48,42,2690535808
69,21,5,ISIP_5,161,1,48,47,2690989644
69,21,5,ISIP_5,162,1,48,36,2691456724
69,21,5,ISIP_5,163,1,48,29,2691973020
69,21,5,ISIP_5,164,1,48,36,2692416004
69,21,5,ISIP_5,165,1,48,45,2692901556
69,21,5,ISIP_5,166,1,48,40,2693340712
69,21,5,ISIP_5,167,1,48,46,2693783180
69,21,5,ISIP_5,168,1,48,43,2694204784
69,21,5,ISIP_5,169,1,48,31,2694701480
69,21,5,ISIP_5,170,1,48,50,2695145048
69,21,5,ISIP_5,171,1,48,44,2695604572
69,21,5,ISIP_5,172,1,48,43,2696024604
69,21,5,ISIP_5,173,1,48,45,2696459740
69,21,5,ISIP_5,174,1,48,46,2696879884
69,21,5,ISIP_5,175,1,48,43,2697297520
69,21,5,ISIP_5,176,1,48,44,2697709296
69,21,5,ISIP_5,177,1,48,45,2698143992
69,21,5,ISIP_5,178,1,48,38,2698605760
69,21,5,ISIP_5,179,1,48,39,2699066104
69,21,5,ISIP_5,180,1,48,38,2699531164
69,21,5,ISIP_5,181,1,48,40,2699983408
69,21,5,ISIP_5,182,1,48,41,2700442696
69,21,5,ISIP_5,183,1,48,41,2700897804
69,21,5,ISIP_5,184,1,48,41,2701302576
69,21,5,ISIP_5,185,1,48,39,2701799248
69,21,5,ISIP_5,186,1,48,39,2702243144
69,21,5,ISIP_5,187,1,48,43,2702701172
69,21,5,ISIP_5,188,1,48,39,2703152396
69,21,5,ISIP_5,189,1,48,30,2703647368
69,21,5,ISIP_5,190,1,48,44,2704107992
69,21,5,ISIP_5,191,1,48,40,2704547616
69,21,5,ISIP_5,192,1,48,42,2704990540
69,21,5,ISIP_5,193,1,48,35,2705437260
69,21,5,ISIP_5,194,1,48,38,2705891824
69,21,5,ISIP_5,195,1,48,40,2706315520
69,21,5,ISIP_5,196,1,48,36,2706796736
69,21,5,ISIP_5,197,1,48,24,2707288424
69,21,5,ISIP_5,198,1,48,42,2707737028
69,21,5,ISIP_5,199,1,48,46,2708203108
69,21,5,ISIP_5,200,1,48,33,2708645132
69,21,5,ISIP_5,201,1,48,45,2709104660
69,21,5,ISIP_5,202,1,48,39,2709572032
69,21,5,ISIP_5,0,9999,9999,9999,2629951580
69,21,5,ISIP_5,1,9999,9999,9999,2630451296
69,21,5,ISIP_5,2,9999,9999,9999,2630951988
69,21,5,ISIP_5,3,9999,9999,9999,2631451696
69,21,5,ISIP_5,4,9999,9999,9999,2631951472
69,21,5,ISIP_5,5,9999,9999,9999,2632451168
69,21,5,ISIP_5,6,9999,9999,9999,2632951908
69,21,5,ISIP_5,7,9999,9999,9999,2633451576
69,21,5,ISIP_5,8,9999,9999,9999,2633951348
69,21,5,ISIP_5,9,9999,9999,9999,2634452088
69,21,5,ISIP_5,10,9999,9999,9999,2634951776
69,21,5,ISIP_5,11,9999,9999,9999,2635451472
69,21,5,ISIP_5,12,9999,9999,9999,2635951168
69,21,5,ISIP_5,13,9999,9999,9999,2636451908
69,21,5,ISIP_5,14,9999,9999,9999,2636951600
69,21,5,ISIP_5,15,9999,9999,9999,2637451372
69,21,5,ISIP_5,16,9999,9999,9999,2637952116
69,21,5,ISIP_5,17,9999,9999,9999,2638451812
69,21,5,ISIP_5,18,9999,9999,9999,2638951512
69,21,5,ISIP_5,19,9999,9999,9999,2639451224
69,21,5,ISIP_5,20,9999,9999,9999,2639951964
69,21,5,ISIP_5,21,9999,9999,9999,2640451656
69,21,5,ISIP_5,22,9999,9999,9999,2640951352
69,21,5,ISIP_5,23,9999,9999,9999,2641451108
69,21,5,ISIP_5,24,9999,9999,9999,2641951864
69,21,5,ISIP_5,25,9999,9999,9999,2642451564
69,21,5,ISIP_5,26,9999,9999,9999,2642951260
69,21,5,ISIP_5,27,9999,9999,9999,2643452000
69,21,5,ISIP_5,28,9999,9999,9999,2643951672
69,21,5,ISIP_5,29,9999,9999,9999,2644451440
69,21,5,ISIP_5,30,9999,9999,9999,2644951136
69,21,5,ISIP_5,31,9999,9999,9999,2645451876
69,21,5,ISIP_5,32,9999,9999,9999,2645951572
69,21,5,ISIP_5,33,9999,9999,9999,2646451268
69,21,5,ISIP_5,34,9999,9999,9999,2646952004
69,21,5,ISIP_5,35,9999,9999,9999,2647451704
69,21,5,ISIP_5,36,9999,9999,9999,2647951472
69,21,5,ISIP_5,37,9999,9999,9999,2648451168
69,21,5,ISIP_5,38,9999,9999,9999,2648951900
69,21,5,ISIP_5,39,9999,9999,9999,2649451604
69,21,5,ISIP_5,40,9999,9999,9999,2649951300
69,21,5,ISIP_5,41,9999,9999,9999,2650452036
69,21,5,ISIP_5,42,9999,9999,9999,2650951800
69,21,5,ISIP_5,43,9999,9999,9999,2651451492
69,21,5,ISIP_5,44,9999,9999,9999,2651951184
69,21,5,ISIP_5,45,9999,9999,9999,2652451920
69,21,5,ISIP_5,46,9999,9999,9999,2652951612
69,21,5,ISIP_5,47,9999,9999,9999,2653451376
69,21,5,ISIP_5,48,9999,9999,9999,2653952112
69,21,5,ISIP_5,49,9999,9999,9999,2654451804
69,21,5,ISIP_5,50,9999,9999,9999,2654951544
69,21,5,ISIP_5,51,9999,9999,9999,2655451236
69,21,5,ISIP_5,52,9999,9999,9999,2655951972
69,21,5,ISIP_5,53,9999,9999,9999,2656451660
69,21,5,ISIP_5,54,9999,9999,9999,2656951352
69,21,5,ISIP_5,55,9999,9999,9999,2657451116
69,21,5,ISIP_5,56,9999,9999,9999,2657951856
69,21,5,ISIP_5,57,9999,9999,9999,2658451548
69,21,5,ISIP_5,58,9999,9999,9999,2658951236
69,21,5,ISIP_5,59,9999,9999,9999,2659451976
69,21,5,ISIP_5,60,9999,9999,9999,2659951668
69,21,5,ISIP_5,61,9999,9999,9999,2660451432
69,21,5,ISIP_5,62,9999,9999,9999,2660951120
69,21,5,ISIP_5,63,9999,9999,9999,2661451856
69,21,5,ISIP_5,64,9999,9999,9999,2661951548
69,21,5,ISIP_5,65,9999,9999,9999,2662451312
69,21,5,ISIP_5,66,9999,9999,9999,2662952052
69,21,5,ISIP_5,67,9999,9999,9999,2663451740
69,21,5,ISIP_5,68,9999,9999,9999,2663951428
69,21,5,ISIP_5,69,9999,9999,9999,2664451192
69,21,5,ISIP_5,70,9999,9999,9999,2664951928
69,21,5,ISIP_5,71,9999,9999,9999,2665451596
69,21,5,ISIP_5,72,9999,9999,9999,2665951284
69,21,5,ISIP_5,73,9999,9999,9999,2666452024
69,21,5,ISIP_5,74,9999,9999,9999,2666951772
69,21,5,ISIP_5,75,9999,9999,9999,2667451464
69,21,5,ISIP_5,76,9999,9999,9999,2667951156
69,21,5,ISIP_5,77,9999,9999,9999,2668451892
69,21,5,ISIP_5,78,9999,9999,9999,2668951656
69,21,5,ISIP_5,79,9999,9999,9999,2669451348
69,21,5,ISIP_5,80,9999,9999,9999,2669952084
69,21,5,ISIP_5,81,9999,9999,9999,2670451776
69,21,5,ISIP_5,82,9999,9999,9999,2670951540
69,21,5,ISIP_5,83,9999,9999,9999,2671451232
69,21,5,ISIP_5,84,9999,9999,9999,2671951972
69,21,5,ISIP_5,85,9999,9999,9999,2672451660
69,21,5,ISIP_5,86,9999,9999,9999,2672951352
69,21,5,ISIP_5,87,9999,9999,9999,2673451116
69,21,5,ISIP_5,88,9999,9999,9999,2673951856
69,21,5,ISIP_5,89,9999,9999,9999,2674451548
69,21,5,ISIP_5,90,9999,9999,9999,2674951236
69,21,5,ISIP_5,91,9999,9999,9999,2675451968
69,21,5,ISIP_5,92,9999,9999,9999,2675951708
69,21,5,ISIP_5,93,9999,9999,9999,2676451396
69,21,5,ISIP_5,94,9999,9999,9999,2676951160
69,21,5,ISIP_5,95,9999,9999,9999,2677451884
69,21,5,ISIP_5,96,9999,9999,9999,2677951576
69,21,5,ISIP_5,97,9999,9999,9999,2678451268
69,21,5,ISIP_5,98,9999,9999,9999,2678952004
69,21,5,ISIP_5,99,9999,9999,9999,2679451768
69,21,5,ISIP_5,100,9999,9999,9999,2679951460
69,21,5,ISIP_5,101,9999,9999,9999,2680451148
69,21,5,ISIP_5,102,9999,9999,9999,2680951888
69,21,5,ISIP_5,103,9999,9999,9999,2681451576
69,21,5,ISIP_5,104,9999,9999,9999,2681951340
69,21,5,ISIP_5,105,9999,9999,9999,2682452076
69,21,5,ISIP_5,106,9999,9999,9999,2682951768
69,21,5,ISIP_5,107,9999,9999,9999,2683451460
69,21,5,ISIP_5,108,9999,9999,9999,2683951224
69,21,5,ISIP_5,109,9999,9999,9999,2684451960
69,21,5,ISIP_5,110,9999,9999,9999,2684951652
69,21,5,ISIP_5,111,9999,9999,9999,2685451336
69,21,5,ISIP_5,112,9999,9999,9999,2685952076
69,21,5,ISIP_5,113,9999,9999,9999,2686451764
69,21,5,ISIP_5,114,9999,9999,9999,2686951488
69,21,5,ISIP_5,115,9999,9999,9999,2687451256
69,21,5,ISIP_5,116,9999,9999,9999,2687951996
69,21,5,ISIP_5,117,9999,9999,9999,2688451684
69,21,5,ISIP_5,118,9999,9999,9999,2688951376
69,21,5,ISIP_5,119,9999,9999,9999,2689451064
69,21,5,ISIP_5,120,9999,9999,9999,2689951804
69,21,5,ISIP_5,121,9999,9999,9999,2690451568
69,21,5,ISIP_5,122,9999,9999,9999,2690951260
69,21,5,ISIP_5,123,9999,9999,9999,2691451996
69,21,5,ISIP_5,124,9999,9999,9999,2691951688
69,21,5,ISIP_5,125,9999,9999,9999,2692451448
69,21,5,ISIP_5,126,9999,9999,9999,2692951140
69,21,5,ISIP_5,127,9999,9999,9999,2693451860
69,21,5,ISIP_5,128,9999,9999,9999,2693951552
69,21,5,ISIP_5,129,9999,9999,9999,2694451316
69,21,5,ISIP_5,130,9999,9999,9999,2694952052
69,21,5,ISIP_5,131,9999,9999,9999,2695451744
69,21,5,ISIP_5,132,9999,9999,9999,2695951436
69,21,5,ISIP_5,133,9999,9999,9999,2696451124
69,21,5,ISIP_5,134,9999,9999,9999,2696951932
69,21,5,ISIP_5,135,9999,9999,9999,2697451580
69,21,5,ISIP_5,136,9999,9999,9999,2697951344
69,21,5,ISIP_5,137,9999,9999,9999,2698452084
69,21,5,ISIP_5,138,9999,9999,9999,2698951776
69,21,5,ISIP_5,139,9999,9999,9999,2699451464
69,21,5,ISIP_5,140,9999,9999,9999,2699951156
69,21,5,ISIP_5,141,9999,9999,9999,2700451960
69,21,5,ISIP_5,142,9999,9999,9999,2700951652
69,21,5,ISIP_5,143,9999,9999,9999,2701451328
69,21,5,ISIP_5,144,9999,9999,9999,2701952064
69,21,5,ISIP_5,145,9999,9999,9999,2702451828
69,21,5,ISIP_5,146,9999,9999,9999,2702951520
69,21,5,ISIP_5,147,9999,9999,9999,2703451212
69,21,5,ISIP_5,148,9999,9999,9999,2703951948
69,21,5,ISIP_5,149,9999,9999,9999,2704451640
69,21,5,ISIP_5,150,9999,9999,9999,2704951404
69,21,5,ISIP_5,151,9999,9999,9999,2705451088
69,21,5,ISIP_5,152,9999,9999,9999,2705951828
69,21,5,ISIP_5,153,9999,9999,9999,2706451576
69,21,5,ISIP_5,154,9999,9999,9999,2706951268
69,21,5,ISIP_5,155,9999,9999,9999,2707452008
69,21,5,ISIP_5,156,9999,9999,9999,2707951700
69,21,5,ISIP_5,157,9999,9999,9999,2708451436
69,21,5,ISIP_5,158,9999,9999,9999,2708951128
69,21,5,ISIP_5,159,9999,9999,9999,2709451864
69,22,11,Pattern_Practice,0,5,42,127,2825594160
69,22,11,Pattern_Practice,1,5,42,127,2826094028
69,22,11,Pattern_Practice,2,5,42,127,2826593596
69,22,11,Pattern_Practice,3,5,42,127,2827094356
69,22,11,Pattern_Practice,4,1,38,25,2827578024
69,22,11,Pattern_Practice,5,5,42,127,2827594216
69,22,11,Pattern_Practice,6,1,38,36,2828091948
69,22,11,Pattern_Practice,7,5,42,127,2828094208
69,22,11,Pattern_Practice,8,5,42,127,2828593464
69,22,11,Pattern_Practice,9,1,48,47,2828624628
69,22,11,Pattern_Practice,10,5,42,127,2829094204
69,22,11,Pattern_Practice,11,1,48,42,2829101588
69,22,11,Pattern_Practice,12,1,48,42,2829582040
69,22,11,Pattern_Practice,13,1,38,30,2829588448
69,22,11,Pattern_Practice,14,5,42,127,2829594096
69,22,11,Pattern_Practice,15,1,48,40,2830065684
69,22,11,Pattern_Practice,16,1,38,32,2830066256
69,22,11,Pattern_Practice,17,5,42,127,2830093668
69,22,11,Pattern_Practice,18,1,38,38,2830521548
69,22,11,Pattern_Practice,19,1,48,44,2830568536
69,22,11,Pattern_Practice,20,5,42,127,2830594452
69,22,11,Pattern_Practice,21,1,38,46,2830993828
69,22,11,Pattern_Practice,22,5,42,127,2831094248
69,22,11,Pattern_Practice,23,1,38,45,2831528896
69,22,11,Pattern_Practice,24,5,42,127,2831594108
69,22,11,Pattern_Practice,25,1,48,42,2831988132
69,22,11,Pattern_Practice,26,5,42,127,2832093540
69,22,11,Pattern_Practice,27,1,48,50,2832538764
69,22,11,Pattern_Practice,28,5,42,127,2832594148
69,22,11,Pattern_Practice,29,1,48,45,2833036812
69,22,11,Pattern_Practice,30,5,42,127,2833094288
69,22,11,Pattern_Practice,31,1,48,52,2833519448
69,22,11,Pattern_Practice,32,1,48,38,2833558100
69,22,11,Pattern_Practice,33,5,42,127,2833593740
69,22,11,Pattern_Practice,34,1,38,36,2834042164
69,22,11,Pattern_Practice,35,5,42,127,2834093360
69,22,11,Pattern_Practice,36,1,38,35,2834496904
69,22,11,Pattern_Practice,37,1,48,43,2834527328
69,22,11,Pattern_Practice,38,5,42,127,2834594232
69,22,11,Pattern_Practice,39,1,38,39,2835015472
69,22,11,Pattern_Practice,40,1,48,48,2835021964
69,22,11,Pattern_Practice,41,5,42,127,2835094024
69,22,11,Pattern_Practice,42,1,48,49,2835559480
69,22,11,Pattern_Practice,43,1,38,42,2835561924
69,22,11,Pattern_Practice,44,5,42,127,2835593600
69,22,11,Pattern_Practice,45,1,38,46,2836034816
69,22,11,Pattern_Practice,46,1,48,55,2836051920
69,22,11,Pattern_Practice,47,5,42,127,2836094292
69,22,11,Pattern_Practice,48,1,48,54,2836580160
69,22,11,Pattern_Practice,49,5,42,127,2836594108
69,22,11,Pattern_Practice,50,1,48,34,2836625636
69,22,11,Pattern_Practice,51,1,38,50,2837034508
69,22,11,Pattern_Practice,52,5,42,127,2837093932
69,22,11,Pattern_Practice,53,1,38,53,2837524104
69,22,11,Pattern_Practice,54,5,42,127,2837593476
69,22,11,Pattern_Practice,55,1,48,50,2837650808
69,22,11,Pattern_Practice,56,1,38,46,2837984336
69,22,11,Pattern_Practice,57,1,48,55,2838077924
69,22,11,Pattern_Practice,58,5,42,127,2838094176
69,22,11,Pattern_Practice,59,1,48,51,2838508340
69,22,11,Pattern_Practice,60,1,38,35,2838528068
69,22,11,Pattern_Practice,61,5,42,127,2838594148
69,22,11,Pattern_Practice,62,1,38,45,2838950888
69,22,11,Pattern_Practice,63,1,48,48,2839078424
69,22,11,Pattern_Practice,64,5,42,127,2839093568
69,22,11,Pattern_Practice,65,1,38,45,2839453332
69,22,11,Pattern_Practice,66,1,48,50,2839513452
69,22,11,Pattern_Practice,67,5,42,127,2839594276
69,22,11,Pattern_Practice,68,1,48,54,2839944988
69,22,11,Pattern_Practice,69,5,42,127,2840094032
69,22,11,Pattern_Practice,70,1,48,49,2840470716
69,22,11,Pattern_Practice,71,5,42,127,2840593948
69,22,11,Pattern_Practice,72,1,48,46,2840955376
69,22,11,Pattern_Practice,73,5,42,127,2841093568
69,22,11,Pattern_Practice,74,1,48,54,2841363068
69,22,11,Pattern_Practice,75,1,48,35,2841418616
69,22,11,Pattern_Practice,76,5,42,127,2841594292
69,22,11,Pattern_Practice,77,1,38,54,2841851972
69,22,11,Pattern_Practice,78,5,42,127,2842093984
69,22,11,Pattern_Practice,79,1,38,49,2842344332
69,22,11,Pattern_Practice,80,5,42,127,2842593580
69,22,11,Pattern_Practice,81,1,38,48,2842833904
69,22,11,Pattern_Practice,82,1,38,39,2843066384
69,22,11,Pattern_Practice,83,5,42,127,2843094240
69,22,11,Pattern_Practice,84,1,38,52,2843319816
69,22,11,Pattern_Practice,85,5,42,127,2843593996
69,22,11,Pattern_Practice,86,1,38,55,2843767900
69,22,11,Pattern_Practice,87,5,42,127,2844093988
69,22,11,Pattern_Practice,88,1,38,57,2844252340
69,22,11,Pattern_Practice,89,5,42,127,2844593460
69,22,11,Pattern_Practice,90,1,38,57,2844687556
69,22,11,Pattern_Practice,91,1,38,50,2844926240
69,22,11,Pattern_Practice,92,5,42,127,2845094176
69,22,11,Pattern_Practice,93,1,38,50,2845179076
69,22,11,Pattern_Practice,94,1,48,46,2845320792
69,22,11,Pattern_Practice,95,5,42,127,2845594076
69,22,11,Pattern_Practice,96,1,48,46,2845705148
69,22,11,Pattern_Practice,97,5,42,127,2846093696
69,22,11,Pattern_Practice,98,1,48,50,2846096136
69,22,11,Pattern_Practice,99,1,48,47,2846430860
69,22,11,Pattern_Practice,100,5,42,127,2846594564
69,22,11,Pattern_Practice,101,1,48,43,2846670088
69,22,11,Pattern_Practice,102,1,48,53,2846889100
69,22,11,Pattern_Practice,103,5,42,127,2847094012
69,22,11,Pattern_Practice,104,1,38,48,2847263956
69,22,11,Pattern_Practice,105,5,42,127,2847593932
69,22,11,Pattern_Practice,106,1,38,50,2847673868
69,22,11,Pattern_Practice,107,1,38,55,2848022228
69,22,11,Pattern_Practice,108,1,38,37,2848065364
69,22,11,Pattern_Practice,109,5,42,127,2848093748
69,22,11,Pattern_Practice,110,1,38,37,2848300996
69,22,11,Pattern_Practice,111,1,38,50,2848525620
69,22,11,Pattern_Practice,112,5,42,127,2848594468
69,22,11,Pattern_Practice,113,1,48,48,2848946976
69,22,11,Pattern_Practice,114,1,48,24,2849009808
69,22,11,Pattern_Practice,115,5,42,127,2849093992
69,22,11,Pattern_Practice,116,1,48,51,2849351204
69,22,11,Pattern_Practice,117,5,42,127,2849593672
69,22,11,Pattern_Practice,118,1,48,45,2849737556
69,22,11,Pattern_Practice,119,1,48,46,2850061688
69,22,11,Pattern_Practice,120,5,42,127,2850093508
69,22,11,Pattern_Practice,121,1,48,59,2850357832
69,22,11,Pattern_Practice,122,5,42,127,2850594012
69,22,11,Pattern_Practice,123,1,38,50,2850906816
69,22,11,Pattern_Practice,124,5,42,127,2851093856
69,22,11,Pattern_Practice,125,1,38,50,2851327748
69,22,11,Pattern_Practice,126,5,42,127,2851593772
69,22,11,Pattern_Practice,127,1,38,54,2851667424
69,22,11,Pattern_Practice,128,1,38,34,2851903492
69,22,11,Pattern_Practice,129,5,42,127,2852094268
69,22,11,Pattern_Practice,130,1,38,51,2852100676
69,22,11,Pattern_Practice,131,1,48,50,2852538024
69,22,11,Pattern_Practice,132,5,42,127,2852593956
69,22,11,Pattern_Practice,133,1,48,57,2852909516
69,22,11,Pattern_Practice,134,5,42,127,2853093612
69,22,11,Pattern_Practice,135,1,48,52,2853312244
69,22,11,Pattern_Practice,136,1,48,32,2853545692
69,22,11,Pattern_Practice,137,5,42,127,2853593524
69,22,11,Pattern_Practice,138,1,48,55,2853748412
69,22,11,Pattern_Practice,139,5,42,127,2854094172
69,22,11,Pattern_Practice,140,1,38,48,2854178172
69,22,11,Pattern_Practice,141,1,38,49,2854572808
69,22,11,Pattern_Practice,142,5,42,127,2854593860
69,22,11,Pattern_Practice,143,1,38,50,2854940480
69,22,11,Pattern_Practice,144,5,42,127,2855093692
69,22,11,Pattern_Practice,145,1,38,38,2855197812
69,22,11,Pattern_Practice,146,1,38,52,2855397196
69,22,11,Pattern_Practice,147,5,42,127,2855594264
69,22,11,Pattern_Practice,148,1,48,53,2855791276
69,22,11,Pattern_Practice,149,5,42,127,2856094032
69,22,11,Pattern_Practice,150,1,38,53,2856124828
69,22,11,Pattern_Practice,151,1,48,58,2856506920
69,22,11,Pattern_Practice,152,5,42,127,2856593792
69,22,11,Pattern_Practice,153,1,38,47,2856768584
69,22,11,Pattern_Practice,154,1,48,54,2856946832
69,22,11,Pattern_Practice,155,5,42,127,2857093452
69,22,11,Pattern_Practice,156,1,38,49,2857268256
69,22,11,Pattern_Practice,157,1,48,51,2857293516
69,22,11,Pattern_Practice,158,5,42,127,2857594148
69,22,11,Pattern_Practice,159,1,38,47,2857647076
69,22,11,Pattern_Practice,160,1,48,53,2857654236
69,22,11,Pattern_Practice,161,1,38,47,2857987312
69,22,11,Pattern_Practice,162,1,48,54,2857999708
69,22,11,Pattern_Practice,163,5,42,127,2858093900
69,22,11,Pattern_Practice,164,1,38,44,2858230240
69,22,11,Pattern_Practice,165,1,48,50,2858263884
69,22,11,Pattern_Practice,166,1,38,48,2858453816
69,22,11,Pattern_Practice,167,1,48,60,2858492728
69,22,11,Pattern_Practice,168,5,42,127,2858593624
69,22,11,Pattern_Practice,169,1,38,46,2858910464
69,22,11,Pattern_Practice,170,1,48,51,2858917776
69,22,11,Pattern_Practice,171,5,42,127,2859094616
69,22,11,Pattern_Practice,172,1,38,48,2859369048
69,22,11,Pattern_Practice,173,1,48,47,2859372320
69,22,11,Pattern_Practice,174,5,42,127,2859594040
69,22,11,Pattern_Practice,175,1,48,52,2859771012
69,22,11,Pattern_Practice,176,1,38,24,2859779368
69,22,11,Pattern_Practice,177,1,38,51,2859993544
69,22,11,Pattern_Practice,178,1,48,32,2860047336
69,22,11,Pattern_Practice,179,5,42,127,2860093732
69,22,11,Pattern_Practice,180,1,38,45,2860247552
69,22,11,Pattern_Practice,181,1,48,50,2860293044
69,22,11,Pattern_Practice,182,5,42,127,2860593600
69,22,11,Pattern_Practice,183,1,48,57,2860681160
69,22,11,Pattern_Practice,184,5,42,127,2861094688
69,22,11,Pattern_Practice,185,1,48,55,2861096328
69,22,11,Pattern_Practice,186,1,48,58,2861487584
69,22,11,Pattern_Practice,187,5,42,127,2861593844
69,22,11,Pattern_Practice,188,1,48,50,2862013908
69,22,11,Pattern_Practice,189,5,42,127,2862093700
69,22,11,Pattern_Practice,190,1,48,58,2862438432
69,22,11,Pattern_Practice,191,1,48,36,2862494504
69,22,11,Pattern_Practice,192,5,42,127,2862594628
69,22,11,Pattern_Practice,193,1,48,58,2862857916
69,22,11,Pattern_Practice,194,5,42,127,2863094100
69,22,11,Pattern_Practice,195,1,48,46,2863285636
69,22,11,Pattern_Practice,196,1,48,54,2863485572
69,22,11,Pattern_Practice,197,5,42,127,2863593924
69,22,11,Pattern_Practice,198,1,48,59,2863706692
69,22,11,Pattern_Practice,199,5,42,127,2864093520
69,22,11,Pattern_Practice,200,1,38,45,2864114312
69,22,11,Pattern_Practice,201,1,38,50,2864493388
69,22,11,Pattern_Practice,202,5,42,127,2864594608
69,22,11,Pattern_Practice,203,1,38,50,2864897644
69,22,11,Pattern_Practice,204,5,42,127,2865093856
69,22,11,Pattern_Practice,205,1,38,28,2865157364
69,22,11,Pattern_Practice,206,1,38,50,2865396944
69,22,11,Pattern_Practice,0,9999,9999,9999,2825591872
69,22,11,Pattern_Practice,1,9999,9999,9999,2826091588
69,22,11,Pattern_Practice,2,9999,9999,9999,2826591308
69,22,11,Pattern_Practice,3,9999,9999,9999,2827092068
69,22,11,Pattern_Practice,4,9999,9999,9999,2827591780
69,22,11,Pattern_Practice,5,9999,9999,9999,2828091500
69,22,11,Pattern_Practice,6,9999,9999,9999,2828591176
69,22,11,Pattern_Practice,7,9999,9999,9999,2829091916
69,22,11,Pattern_Practice,8,9999,9999,9999,2829591660
69,22,11,Pattern_Practice,9,9999,9999,9999,2830091380
69,22,11,Pattern_Practice,10,9999,9999,9999,2830592088
69,22,11,Pattern_Practice,11,9999,9999,9999,2831091812
69,22,11,Pattern_Practice,12,9999,9999,9999,2831591524
69,22,11,Pattern_Practice,13,9999,9999,9999,2832091252
69,22,11,Pattern_Practice,14,9999,9999,9999,2832591932
69,22,11,Pattern_Practice,15,9999,9999,9999,2833091704
69,22,11,Pattern_Practice,16,9999,9999,9999,2833591376
69,22,11,Pattern_Practice,17,9999,9999,9999,2834091072
69,22,11,Pattern_Practice,18,9999,9999,9999,2834591792
69,22,11,Pattern_Practice,19,9999,9999,9999,2835091516
69,22,11,Pattern_Practice,20,9999,9999,9999,2835591236
69,22,11,Pattern_Practice,21,9999,9999,9999,2836092008
69,22,11,Pattern_Practice,22,9999,9999,9999,2836591672
69,22,11,Pattern_Practice,23,9999,9999,9999,2837091420
69,22,11,Pattern_Practice,24,9999,9999,9999,2837591116
69,22,11,Pattern_Practice,25,9999,9999,9999,2838091888
69,22,11,Pattern_Practice,26,9999,9999,9999,2838591564
69,22,11,Pattern_Practice,27,9999,9999,9999,2839091284
69,22,11,Pattern_Practice,28,9999,9999,9999,2839591988
69,22,11,Pattern_Practice,29,9999,9999,9999,2840091744
69,22,11,Pattern_Practice,30,9999,9999,9999,2840591436
69,22,11,Pattern_Practice,31,9999,9999,9999,2841091132
69,22,11,Pattern_Practice,32,9999,9999,9999,2841591928
69,22,11,Pattern_Practice,33,9999,9999,9999,2842091624
69,22,11,Pattern_Practice,34,9999,9999,9999,2842591292
69,22,11,Pattern_Practice,35,9999,9999,9999,2843092028
69,22,11,Pattern_Practice,36,9999,9999,9999,2843591780
69,22,11,Pattern_Practice,37,9999,9999,9999,2844091476
69,22,11,Pattern_Practice,38,9999,9999,9999,2844591172
69,22,11,Pattern_Practice,39,9999,9999,9999,2845091888
69,22,11,Pattern_Practice,40,9999,9999,9999,2845591636
69,22,11,Pattern_Practice,41,9999,9999,9999,2846091332
69,22,11,Pattern_Practice,42,9999,9999,9999,2846592052
69,22,11,Pattern_Practice,43,9999,9999,9999,2847091800
69,22,11,Pattern_Practice,44,9999,9999,9999,2847591496
69,22,11,Pattern_Practice,45,9999,9999,9999,2848091236
69,22,11,Pattern_Practice,46,9999,9999,9999,2848591956
69,22,11,Pattern_Practice,47,9999,9999,9999,2849091704
69,22,11,Pattern_Practice,48,9999,9999,9999,2849591384
69,22,11,Pattern_Practice,49,9999,9999,9999,2850091072
69,22,11,Pattern_Practice,50,9999,9999,9999,2850591800
69,22,11,Pattern_Practice,51,9999,9999,9999,2851091568
69,22,11,Pattern_Practice,52,9999,9999,9999,2851591264
69,22,11,Pattern_Practice,53,9999,9999,9999,2852091984
69,22,11,Pattern_Practice,54,9999,9999,9999,2852591668
69,22,11,Pattern_Practice,55,9999,9999,9999,2853091400
69,22,11,Pattern_Practice,56,9999,9999,9999,2853591160
69,22,11,Pattern_Practice,57,9999,9999,9999,2854091884
69,22,11,Pattern_Practice,58,9999,9999,9999,2854591576
69,22,11,Pattern_Practice,59,9999,9999,9999,2855091252
69,22,11,Pattern_Practice,60,9999,9999,9999,2855592048
69,22,11,Pattern_Practice,61,9999,9999,9999,2856091744
69,22,11,Pattern_Practice,62,9999,9999,9999,2856591432
69,22,11,Pattern_Practice,63,9999,9999,9999,2857091164
69,22,11,Pattern_Practice,64,9999,9999,9999,2857591856
69,22,11,Pattern_Practice,65,9999,9999,9999,2858091612
69,22,11,Pattern_Practice,66,9999,9999,9999,2858591336
69,22,11,Pattern_Practice,67,9999,9999,9999,2859092028
69,22,11,Pattern_Practice,68,9999,9999,9999,2859591752
69,22,11,Pattern_Practice,69,9999,9999,9999,2860091460
69,22,11,Pattern_Practice,70,9999,9999,9999,2860591164
69,22,11,Pattern_Practice,71,9999,9999,9999,2861091956
69,22,11,Pattern_Practice,72,9999,9999,9999,2861591628
69,22,11,Pattern_Practice,73,9999,9999,9999,2862091340
69,22,11,Pattern_Practice,74,9999,9999,9999,2862592120
69,22,11,Pattern_Practice,75,9999,9999,9999,2863091812
69,22,11,Pattern_Practice,76,9999,9999,9999,2863591484
69,22,11,Pattern_Practice,77,9999,9999,9999,2864091232
69,22,11,Pattern_Practice,78,9999,9999,9999,2864591984
69,22,11,Pattern_Practice,79,9999,9999,9999,2865091644
69,23,13,Improv_Metronome,0,5,42,127,2908827072
69,23,13,Improv_Metronome,1,5,42,127,2909326636
69,23,13,Improv_Metronome,2,5,42,127,2909826504
69,23,13,Improv_Metronome,3,5,42,127,2910327564
69,23,13,Improv_Metronome,4,1,38,54,2910759476
69,23,13,Improv_Metronome,5,1,48,42,2910792144
69,23,13,Improv_Metronome,6,5,42,127,2910826960
69,23,13,Improv_Metronome,7,1,38,53,2911257856
69,23,13,Improv_Metronome,8,1,48,53,2911292468
69,23,13,Improv_Metronome,9,5,42,127,2911326684
69,23,13,Improv_Metronome,10,1,48,53,2911784948
69,23,13,Improv_Metronome,11,1,38,57,2911798324
69,23,13,Improv_Metronome,12,5,42,127,2911827524
69,23,13,Improv_Metronome,13,5,42,127,2912326976
69,23,13,Improv_Metronome,14,1,38,61,2912330468
69,23,13,Improv_Metronome,15,1,48,54,2912340248
69,23,13,Improv_Metronome,16,5,42,127,2912826700
69,23,13,Improv_Metronome,17,1,38,45,2912860932
69,23,13,Improv_Metronome,18,1,48,55,2912877368
69,23,13,Improv_Metronome,19,5,42,127,2913326348
69,23,13,Improv_Metronome,20,1,38,52,2913380172
69,23,13,Improv_Metronome,21,1,48,55,2913404096
69,23,13,Improv_Metronome,22,5,42,127,2913827116
69,23,13,Improv_Metronome,23,1,48,57,2913917972
69,23,13,Improv_Metronome,24,5,42,127,2914326884
69,23,13,Improv_Metronome,25,1,48,68,2914382888
69,23,13,Improv_Metronome,26,5,42,127,2914826580
69,23,13,Improv_Metronome,27,1,38,58,2914843532
69,23,13,Improv_Metronome,28,1,38,64,2915317108
69,23,13,Improv_Metronome,29,5,42,127,2915327536
69,23,13,Improv_Metronome,30,1,38,63,2915803688
69,23,13,Improv_Metronome,31,5,42,127,2915827452
69,23,13,Improv_Metronome,32,1,38,59,2916323456
69,23,13,Improv_Metronome,33,5,42,127,2916326704
69,23,13,Improv_Metronome,34,5,42,127,2916826456
69,23,13,Improv_Metronome,35,1,48,66,2916857276
69,23,13,Improv_Metronome,36,1,48,68,2917284076
69,23,13,Improv_Metronome,37,5,42,127,2917327488
69,23,13,Improv_Metronome,38,1,48,67,2917766268
69,23,13,Improv_Metronome,39,5,42,127,2917826888
69,23,13,Improv_Metronome,40,1,48,69,2918276212
69,23,13,Improv_Metronome,41,5,42,127,2918326656
69,23,13,Improv_Metronome,42,1,38,56,2918753236
69,23,13,Improv_Metronome,43,5,42,127,2918827324
69,23,13,Improv_Metronome,44,1,38,64,2919221144
69,23,13,Improv_Metronome,45,5,42,127,2919327228
69,23,13,Improv_Metronome,46,1,38,60,2919681200
69,23,13,Improv_Metronome,47,5,42,127,2919826700
69,23,13,Improv_Metronome,48,1,38,67,2920136816
69,23,13,Improv_Metronome,49,1,38,40,2920204208
69,23,13,Improv_Metronome,50,1,48,41,2920254152
69,23,13,Improv_Metronome,51,5,42,127,2920326504
69,23,13,Improv_Metronome,52,1,38,64,2920637872
69,23,13,Improv_Metronome,53,1,48,59,2920651688
69,23,13,Improv_Metronome,54,5,42,127,2920827256
69,23,13,Improv_Metronome,55,1,48,84,2921102064
69,23,13,Improv_Metronome,56,1,38,68,2921105260
69,23,13,Improv_Metronome,57,5,42,127,2921326976
69,23,13,Improv_Metronome,58,1,38,67,2921520632
69,23,13,Improv_Metronome,59,1,48,80,2921530488
69,23,13,Improv_Metronome,60,1,38,54,2921777296
69,23,13,Improv_Metronome,61,1,38,40,2921814300
69,23,13,Improv_Metronome,62,5,42,127,2921826744
69,23,13,Improv_Metronome,63,1,48,63,2921855076
69,23,13,Improv_Metronome,64,1,38,59,2922203828
69,23,13,Improv_Metronome,65,1,48,79,2922218428
69,23,13,Improv_Metronome,66,5,42,127,2922327256
69,23,13,Improv_Metronome,67,1,38,62,2922668260
69,23,13,Improv_Metronome,68,1,48,64,2922727816
69,23,13,Improv_Metronome,69,5,42,127,2922827212
69,23,13,Improv_Metronome,70,1,38,72,2923107780
69,23,13,Improv_Metronome,71,5,42,127,2923326756
69,23,13,Improv_Metronome,72,1,38,66,2923538060
69,23,13,Improv_Metronome,73,5,42,127,2923826528
69,23,13,Improv_Metronome,74,1,38,69,2924028036
69,23,13,Improv_Metronome,75,1,38,63,2924260956
69,23,13,Improv_Metronome,76,5,42,127,2924327336
69,23,13,Improv_Metronome,77,1,38,49,2924519324
69,23,13,Improv_Metronome,78,5,42,127,2924826944
69,23,13,Improv_Metronome,79,1,38,69,2924921760
69,23,13,Improv_Metronome,80,5,42,127,2925326636
69,23,13,Improv_Metronome,81,1,38,75,2925380916
69,23,13,Improv_Metronome,82,1,48,74,2925751548
69,23,13,Improv_Metronome,83,5,42,127,2925826400
69,23,13,Improv_Metronome,84,1,48,63,2926218476
69,23,13,Improv_Metronome,85,5,42,127,2926327052
69,23,13,Improv_Metronome,86,1,48,51,2926623476
69,23,13,Improv_Metronome,87,5,42,127,2926826820
69,23,13,Improv_Metronome,88,1,48,60,2926841160
69,23,13,Improv_Metronome,89,1,48,81,2927086424
69,23,13,Improv_Metronome,90,1,48,36,2927137264
69,23,13,Improv_Metronome,91,5,42,127,2927326448
69,23,13,Improv_Metronome,92,1,38,65,2927501552
69,23,13,Improv_Metronome,93,1,38,41,2927537584
69,23,13,Improv_Metronome,94,5,42,127,2927827168
69,23,13,Improv_Metronome,95,1,48,58,2927917152
69,23,13,Improv_Metronome,96,1,38,61,2927925732
69,23,13,Improv_Metronome,97,1,48,65,2928310092
69,23,13,Improv_Metronome,98,5,42,127,2928327104
69,23,13,Improv_Metronome,99,1,38,66,2928331872
69,23,13,Improv_Metronome,100,1,38,57,2928519288
69,23,13,Improv_Metronome,101,1,48,65,2928523608
69,23,13,Improv_Metronome,102,1,38,59,2928737204
69,23,13,Improv_Metronome,103,1,48,69,2928742572
69,23,13,Improv_Metronome,104,1,38,38,2928776288
69,23,13,Improv_Metronome,105,5,42,127,2928826584
69,23,13,Improv_Metronome,106,1,48,51,2929128236
69,23,13,Improv_Metronome,107,1,38,67,2929134204
69,23,13,Improv_Metronome,108,1,38,33,2929195440
69,23,13,Improv_Metronome,109,5,42,127,2929326476
69,23,13,Improv_Metronome,110,1,48,46,2929514296
69,23,13,Improv_Metronome,111,1,38,58,2929532600
69,23,13,Improv_Metronome,112,1,38,32,2929584116
69,23,13,Improv_Metronome,113,5,42,127,2929827164
69,23,13,Improv_Metronome,114,1,48,64,2929918640
69,23,13,Improv_Metronome,115,1,38,54,2929927524
69,23,13,Improv_Metronome,116,1,38,47,2930157652
69,23,13,Improv_Metronome,117,1,48,51,2930170792
69,23,13,Improv_Metronome,118,5,42,127,2930326964
69,23,13,Improv_Metronome,119,1,38,54,2930370024
69,23,13,Improv_Metronome,120,1,48,56,2930397976
69,23,13,Improv_Metronome,121,1,38,68,2930782136
69,23,13,Improv_Metronome,122,1,48,57,2930785340
69,23,13,Improv_Metronome,123,1,38,52,2930818080
69,23,13,Improv_Metronome,124,5,42,127,2930826564
69,23,13,Improv_Metronome,125,1,38,67,2931208164
69,23,13,Improv_Metronome,126,1,38,39,2931252048
69,23,13,Improv_Metronome,127,5,42,127,2931327404
69,23,13,Improv_Metronome,128,1,38,71,2931611620
69,23,13,Improv_Metronome,129,5,42,127,2931827160
69,23,13,Improv_Metronome,130,1,38,46,2931844716
69,23,13,Improv_Metronome,131,1,38,72,2932008820
69,23,13,Improv_Metronome,132,5,42,127,2932326904
69,23,13,Improv_Metronome,133,1,38,70,2932396892
69,23,13,Improv_Metronome,134,1,38,70,2932749372
69,23,13,Improv_Metronome,135,1,38,53,2932786820
69,23,13,Improv_Metronome,136,5,42,127,2932826424
69,23,13,Improv_Metronome,137,1,48,51,2933123880
69,23,13,Improv_Metronome,138,5,42,127,2933327076
69,23,13,Improv_Metronome,139,1,48,48,2933339248
69,23,13,Improv_Metronome,140,1,48,55,2933531856
69,23,13,Improv_Metronome,141,5,42,127,2933827048
69,23,13,Improv_Metronome,142,1,48,43,2933924336
69,23,13,Improv_Metronome,143,1,48,69,2934223156
69,23,13,Improv_Metronome,144,5,42,127,2934326568
69,23,13,Improv_Metronome,145,1,38,46,2934624864
69,23,13,Improv_Metronome,146,1,38,59,2934806400
69,23,13,Improv_Metronome,147,5,42,127,2934827380
69,23,13,Improv_Metronome,148,1,38,65,2934997132
69,23,13,Improv_Metronome,149,1,38,42,2935032140
69,23,13,Improv_Metronome,150,5,42,127,2935327036
69,23,13,Improv_Metronome,151,1,38,63,2935403980
69,23,13,Improv_Metronome,152,1,48,61,2935440836
69,23,13,Improv_Metronome,153,1,38,63,2935733656
69,23,13,Improv_Metronome,154,1,48,70,2935762508
69,23,13,Improv_Metronome,155,1,38,47,2935778568
69,23,13,Improv_Metronome,156,5,42,127,2935826844
69,23,13,Improv_Metronome,157,1,48,68,2936116572
69,23,13,Improv_Metronome,158,1,38,70,2936138992
69,23,13,Improv_Metronome,159,1,38,48,2936182880
69,23,13,Improv_Metronome,160,5,42,127,2936326576
69,23,13,Improv_Metronome,161,1,48,59,2936489984
69,23,13,Improv_Metronome,162,1,48,58,2936695012
69,23,13,Improv_Metronome,163,5,42,127,2936827148
69,23,13,Improv_Metronome,164,1,48,54,2936885916
69,23,13,Improv_Metronome,165,1,48,59,2937085552
69,23,13,Improv_Metronome,166,5,42,127,2937326896
69,23,13,Improv_Metronome,167,1,38,55,2937516632
69,23,13,Improv_Metronome,168,5,42,127,2937826588
69,23,13,Improv_Metronome,169,1,38,76,2937887976
69,23,13,Improv_Metronome,170,1,38,40,2937942928
69,23,13,Improv_Metronome,171,1,38,66,2938295828
69,23,13,Improv_Metronome,172,1,48,47,2938298348
69,23,13,Improv_Metronome,173,5,42,127,2938327408
69,23,13,Improv_Metronome,174,1,38,73,2938570012
69,23,13,Improv_Metronome,175,1,48,55,2938574856
69,23,13,Improv_Metronome,176,1,38,67,2938787028
69,23,13,Improv_Metronome,177,1,48,63,2938802420
69,23,13,Improv_Metronome,178,5,42,127,2938827132
69,23,13,Improv_Metronome,179,1,38,38,2938829652
69,23,13,Improv_Metronome,180,1,38,57,2939268024
69,23,13,Improv_Metronome,181,1,48,50,2939271228
69,23,13,Improv_Metronome,182,5,42,127,2939326760
69,23,13,Improv_Metronome,183,1,48,48,2939694896
69,23,13,Improv_Metronome,184,1,38,62,2939738104
69,23,13,Improv_Metronome,185,1,38,38,2939778104
69,23,13,Improv_Metronome,186,5,42,127,2939826444
69,23,13,Improv_Metronome,187,1,38,59,2940195284
69,23,13,Improv_Metronome,188,1,48,46,2940204464
69,23,13,Improv_Metronome,189,1,38,38,2940234584
69,23,13,Improv_Metronome,190,5,42,127,2940327204
69,23,13,Improv_Metronome,191,1,48,48,2940453972
69,23,13,Improv_Metronome,192,1,38,51,2940474600
69,23,13,Improv_Metronome,193,1,48,50,2940671436
69,23,13,Improv_Metronome,194,1,38,53,2940674712
69,23,13,Improv_Metronome,195,1,38,38,2940710068
69,23,13,Improv_Metronome,196,5,42,127,2940826972
69,23,13,Improv_Metronome,197,1,48,38,2941084648
69,23,13,Improv_Metronome,198,1,38,52,2941100636
69,23,13,Improv_Metronome,199,1,38,38,2941133980
69,23,13,Improv_Metronome,200,5,42,127,2941326668
69,23,13,Improv_Metronome,201,1,48,53,2941511272
69,23,13,Improv_Metronome,202,1,38,56,2941526736
69,23,13,Improv_Metronome,203,1,38,42,2941565388
69,23,13,Improv_Metronome,204,5,42,127,2941826520
69,23,13,Improv_Metronome,205,1,48,58,2941911992
69,23,13,Improv_Metronome,206,1,38,54,2941936024
69,23,13,Improv_Metronome,207,1,38,31,2941989932
69,23,13,Improv_Metronome,208,1,38,49,2942150468
69,23,13,Improv_Metronome,209,1,48,60,2942166308
69,23,13,Improv_Metronome,210,5,42,127,2942327288
69,23,13,Improv_Metronome,211,1,38,44,2942375660
69,23,13,Improv_Metronome,212,1,48,55,2942396132
69,23,13,Improv_Metronome,213,1,38,59,2942753592
69,23,13,Improv_Metronome,214,1,38,46,2942789544
69,23,13,Improv_Metronome,215,5,42,127,2942826980
69,23,13,Improv_Metronome,216,1,38,60,2943228728
69,23,13,Improv_Metronome,217,5,42,127,2943327484
69,23,13,Improv_Metronome,218,1,38,69,2943641936
69,23,13,Improv_Metronome,219,5,42,127,2943827328
69,23,13,Improv_Metronome,220,1,38,70,2944117692
69,23,13,Improv_Metronome,221,5,42,127,2944326948
69,23,13,Improv_Metronome,222,1,48,72,2944665860
69,23,13,Improv_Metronome,223,5,42,127,2944826940
69,23,13,Improv_Metronome,224,1,38,77,2945218588
69,23,13,Improv_Metronome,225,5,42,127,2945326708
69,23,13,Improv_Metronome,226,1,38,84,2945720600
69,23,13,Improv_Metronome,227,5,42,127,2945827076
69,23,13,Improv_Metronome,228,1,48,64,2946214828
69,23,13,Improv_Metronome,229,5,42,127,2946326920
69,23,13,Improv_Metronome,230,1,38,89,2946669420
69,23,13,Improv_Metronome,231,1,38,43,2946725348
69,23,13,Improv_Metronome,232,5,42,127,2946826888
69,23,13,Improv_Metronome,233,1,48,65,2947151812
69,23,13,Improv_Metronome,234,5,42,127,2947327264
69,23,13,Improv_Metronome,235,1,38,66,2947622640
69,23,13,Improv_Metronome,236,1,48,65,2947647604
69,23,13,Improv_Metronome,237,5,42,127,2947827056
69,23,13,Improv_Metronome,238,1,48,69,2948039460
69,23,13,Improv_Metronome,239,1,38,62,2948068124
69,23,13,Improv_Metronome,240,1,38,73,2948311916
69,23,13,Improv_Metronome,241,1,48,64,2948326564
69,23,13,Improv_Metronome,242,5,42,127,2948328048
69,23,13,Improv_Metronome,243,1,38,43,2948347680
69,23,13,Improv_Metronome,244,1,38,51,2948517868
69,23,13,Improv_Metronome,245,1,48,52,2948520996
69,23,13,Improv_Metronome,246,5,42,127,2948826708
69,23,13,Improv_Metronome,247,1,38,57,2948885056
69,23,13,Improv_Metronome,248,1,48,51,2948888324
69,23,13,Improv_Metronome,249,1,48,75,2949236560
69,23,13,Improv_Metronome,250,1,38,64,2949267584
69,23,13,Improv_Metronome,251,5,42,127,2949327304
69,23,13,Improv_Metronome,252,1,38,27,2949337412
69,23,13,Improv_Metronome,253,1,48,64,2949695500
69,23,13,Improv_Metronome,254,5,42,127,2949826936
69,23,13,Improv_Metronome,255,1,38,57,2950126976
69,23,13,Improv_Metronome,256,5,42,127,2950326780
69,23,13,Improv_Metronome,257,1,38,69,2950540852
69,23,13,Improv_Metronome,258,5,42,127,2950827224
69,23,13,Improv_Metronome,259,1,38,77,2950961488
69,23,13,Improv_Metronome,260,5,42,127,2951327140
69,23,13,Improv_Metronome,261,1,48,63,2951403888
69,23,13,Improv_Metronome,262,1,48,46,2951779748
69,23,13,Improv_Metronome,263,5,42,127,2951826828
69,23,13,Improv_Metronome,264,1,48,71,2952155556
69,23,13,Improv_Metronome,265,5,42,127,2952326656
69,23,13,Improv_Metronome,266,1,48,71,2952533252
69,23,13,Improv_Metronome,267,5,42,127,2952827176
69,23,13,Improv_Metronome,268,1,38,64,2952952536
69,23,13,Improv_Metronome,269,1,38,72,2953325664
69,23,13,Improv_Metronome,270,5,42,127,2953328280
69,23,13,Improv_Metronome,271,1,38,77,2953674812
69,23,13,Improv_Metronome,272,5,42,127,2953826768
69,23,13,Improv_Metronome,273,1,38,75,2953874916
69,23,13,Improv_Metronome,274,1,38,70,2954069464
69,23,13,Improv_Metronome,275,1,38,38,2954121504
69,23,13,Improv_Metronome,276,5,42,127,2954327540
69,23,13,Improv_Metronome,277,1,48,64,2954533832
69,23,13,Improv_Metronome,278,5,42,127,2954827008
69,23,13,Improv_Metronome,279,1,48,75,2954879568
69,23,13,Improv_Metronome,280,1,48,74,2955224836
69,23,13,Improv_Metronome,281,5,42,127,2955326756
69,23,13,Improv_Metronome,282,1,48,67,2955432792
69,23,13,Improv_Metronome,283,1,48,67,2955630864
69,23,13,Improv_Metronome,284,1,48,49,2955655600
69,23,13,Improv_Metronome,285,5,42,127,2955826780
69,23,13,Improv_Metronome,286,1,48,69,2956010560
69,23,13,Improv_Metronome,287,1,38,52,2956046216
69,23,13,Improv_Metronome,288,5,42,127,2956327248
69,23,13,Improv_Metronome,289,1,38,72,2956389832
69,23,13,Improv_Metronome,290,1,48,74,2956415544
69,23,13,Improv_Metronome,291,1,48,59,2956769724
69,23,13,Improv_Metronome,292,1,38,67,2956772244
69,23,13,Improv_Metronome,293,5,42,127,2956826884
69,23,13,Improv_Metronome,294,1,38,57,2956935872
69,23,13,Improv_Metronome,295,1,48,60,2956952684
69,23,13,Improv_Metronome,296,1,48,68,2957161644
69,23,13,Improv_Metronome,297,1,38,51,2957164168
69,23,13,Improv_Metronome,298,1,38,34,2957202216
69,23,13,Improv_Metronome,299,5,42,127,2957326632
69,23,13,Improv_Metronome,300,1,38,74,2957553200
69,23,13,Improv_Metronome,301,1,48,55,2957570384
69,23,13,Improv_Metronome,302,1,38,48,2957590180
69,23,13,Improv_Metronome,303,5,42,127,2957826632
69,23,13,Improv_Metronome,304,1,48,67,2957960872
69,23,13,Improv_Metronome,305,1,38,75,2957964892
69,23,13,Improv_Metronome,306,1,38,51,2958001820
69,23,13,Improv_Metronome,307,5,42,127,2958327228
69,23,13,Improv_Metronome,308,1,48,64,2958333492
69,23,13,Improv_Metronome,309,1,38,78,2958337360
69,23,13,Improv_Metronome,310,1,38,36,2958391264
69,23,13,Improv_Metronome,311,1,48,65,2958558764
69,23,13,Improv_Metronome,312,1,38,60,2958562296
69,23,13,Improv_Metronome,313,1,38,37,2958600044
69,23,13,Improv_Metronome,314,1,38,57,2958775404
69,23,13,Improv_Metronome,315,1,48,66,2958780312
69,23,13,Improv_Metronome,316,1,38,45,2958800340
69,23,13,Improv_Metronome,317,5,42,127,2958826804
69,23,13,Improv_Metronome,318,1,38,65,2959234336
69,23,13,Improv_Metronome,319,1,38,47,2959265504
69,23,13,Improv_Metronome,320,1,48,58,2959267428
69,23,13,Improv_Metronome,321,5,42,127,2959326704
69,23,13,Improv_Metronome,322,1,38,73,2959801128
69,23,13,Improv_Metronome,323,1,48,71,2959807016
69,23,13,Improv_Metronome,324,5,42,127,2959827396
69,23,13,Improv_Metronome,325,1,38,36,2959850944
69,23,13,Improv_Metronome,326,1,38,69,2960316012
69,23,13,Improv_Metronome,327,5,42,127,2960326892
69,23,13,Improv_Metronome,328,1,38,58,2960516420
69,23,13,Improv_Metronome,329,1,38,72,2960748144
69,23,13,Improv_Metronome,330,1,38,44,2960783952
69,23,13,Improv_Metronome,331,5,42,127,2960826620
69,23,13,Improv_Metronome,332,1,38,74,2961240032
69,23,13,Improv_Metronome,333,5,42,127,2961326464
69,23,13,Improv_Metronome,334,1,38,69,2961679144
69,23,13,Improv_Metronome,335,1,38,34,2961729460
69,23,13,Improv_Metronome,336,5,42,127,2961828216
69,23,13,Improv_Metronome,337,1,38,69,2962100260
69,23,13,Improv_Metronome,338,5,42,127,2962326864
69,23,13,Improv_Metronome,339,1,38,61,2962327976
69,23,13,Improv_Metronome,340,1,38,62,2962510396
69,23,13,Improv_Metronome,341,1,38,48,2962548076
69,23,13,Improv_Metronome,342,5,42,127,2962826516
69,23,13,Improv_Metronome,343,1,48,57,2962916576
69,23,13,Improv_Metronome,344,1,48,78,2963294828
69,23,13,Improv_Metronome,345,5,42,127,2963327472
69,23,13,Improv_Metronome,346,1,48,70,2963667048
69,23,13,Improv_Metronome,347,5,42,127,2963827156
69,23,13,Improv_Metronome,348,1,48,68,2963863560
69,23,13,Improv_Metronome,349,1,48,68,2964072848
69,23,13,Improv_Metronome,350,5,42,127,2964326680
69,23,13,Improv_Metronome,351,1,48,73,2964478516
69,23,13,Improv_Metronome,352,5,42,127,2964826448
69,23,13,Improv_Metronome,353,1,48,73,2964831884
69,23,13,Improv_Metronome,354,1,38,49,2964904568
69,23,13,Improv_Metronome,355,1,38,76,2965213772
69,23,13,Improv_Metronome,356,1,48,68,2965233608
69,23,13,Improv_Metronome,357,5,42,127,2965327172
69,23,13,Improv_Metronome,358,1,48,69,2965425056
69,23,13,Improv_Metronome,359,1,38,61,2965435284
69,23,13,Improv_Metronome,360,1,48,64,2965635044
69,23,13,Improv_Metronome,361,1,38,64,2965638988
69,23,13,Improv_Metronome,362,1,38,44,2965671136
69,23,13,Improv_Metronome,363,5,42,127,2965827040
69,23,13,Improv_Metronome,364,1,38,64,2965994744
69,23,13,Improv_Metronome,365,1,48,64,2966032720
69,23,13,Improv_Metronome,366,1,38,40,2966049376
69,23,13,Improv_Metronome,367,5,42,127,2966326520
69,23,13,Improv_Metronome,368,1,38,66,2966370704
69,23,13,Improv_Metronome,369,1,48,62,2966393048
69,23,13,Improv_Metronome,370,1,38,61,2966746960
69,23,13,Improv_Metronome,371,1,48,68,2966782808
69,23,13,Improv_Metronome,372,1,38,36,2966793708
69,23,13,Improv_Metronome,373,5,42,127,2966827400
69,23,13,Improv_Metronome,374,1,38,55,2966965860
69,23,13,Improv_Metronome,375,1,48,57,2967028860
69,23,13,Improv_Metronome,376,1,38,51,2967192240
69,23,13,Improv_Metronome,377,5,42,127,2967327292
69,23,13,Improv_Metronome,378,1,38,65,2967589536
69,23,13,Improv_Metronome,379,1,38,44,2967624000
69,23,13,Improv_Metronome,380,1,48,61,2967668032
69,23,13,Improv_Metronome,381,5,42,127,2967826696
69,23,13,Improv_Metronome,382,1,38,65,2968007604
69,23,13,Improv_Metronome,383,1,38,44,2968044412
69,23,13,Improv_Metronome,384,1,48,62,2968048204
69,23,13,Improv_Metronome,385,5,42,127,2968326396
69,23,13,Improv_Metronome,386,1,38,66,2968380600
69,23,13,Improv_Metronome,387,1,48,43,2968411472
69,23,13,Improv_Metronome,388,1,38,50,2968422368
69,23,13,Improv_Metronome,389,1,48,46,2968656684
69,23,13,Improv_Metronome,390,1,38,46,2968659136
69,23,13,Improv_Metronome,391,5,42,127,2968827520
69,23,13,Improv_Metronome,392,1,48,57,2968886064
69,23,13,Improv_Metronome,393,1,38,56,2968916936
69,23,13,Improv_Metronome,394,1,48,70,2969302124
69,23,13,Improv_Metronome,395,5,42,127,2969326936
69,23,13,Improv_Metronome,396,1,48,43,2969338120
69,23,13,Improv_Metronome,397,1,38,54,2969411176
69,23,13,Improv_Metronome,398,1,48,75,2969781776
69,23,13,Improv_Metronome,399,1,38,57,2969784296
69,23,13,Improv_Metronome,400,1,48,44,2969817116
69,23,13,Improv_Metronome,401,1,38,51,2969819032
69,23,13,Improv_Metronome,402,5,42,127,2969826648
69,23,13,Improv_Metronome,403,1,38,61,2970182720
69,23,13,Improv_Metronome,404,1,48,66,2970205060
69,23,13,Improv_Metronome,405,1,38,44,2970220148
69,23,13,Improv_Metronome,406,5,42,127,2970327476
69,23,13,Improv_Metronome,407,1,48,57,2970429276
69,23,13,Improv_Metronome,408,1,38,49,2970432472
69,23,13,Improv_Metronome,409,1,38,56,2970657664
69,23,13,Improv_Metronome,410,1,48,48,2970660856
69,23,13,Improv_Metronome,411,1,38,40,2970690836
69,23,13,Improv_Metronome,412,5,42,127,2970827404
69,23,13,Improv_Metronome,413,1,38,69,2971023152
69,23,13,Improv_Metronome,414,1,38,46,2971060828
69,23,13,Improv_Metronome,415,5,42,127,2971326780
69,23,13,Improv_Metronome,416,1,38,74,2971449896
69,23,13,Improv_Metronome,417,1,38,54,2971491160
69,23,13,Improv_Metronome,418,5,42,127,2971826524
69,23,13,Improv_Metronome,419,1,38,70,2971877540
69,23,13,Improv_Metronome,420,1,38,25,2971944316
69,23,13,Improv_Metronome,421,5,42,127,2972327392
69,23,13,Improv_Metronome,422,1,38,66,2972498308
69,23,13,Improv_Metronome,423,5,42,127,2972827088
69,23,13,Improv_Metronome,424,1,48,63,2972971304
69,23,13,Improv_Metronome,425,5,42,127,2973326632
69,23,13,Improv_Metronome,426,1,48,57,2973381284
69,23,13,Improv_Metronome,427,1,48,62,2973756728
69,23,13,Improv_Metronome,428,5,42,127,2973826396
69,23,13,Improv_Metronome,429,1,48,67,2974168728
69,23,13,Improv_Metronome,430,5,42,127,2974327420
69,23,13,Improv_Metronome,431,1,38,76,2974573660
69,23,13,Improv_Metronome,432,1,48,75,2974627492
69,23,13,Improv_Metronome,433,5,42,127,2974826780
69,23,13,Improv_Metronome,434,1,38,68,2974890408
69,23,13,Improv_Metronome,435,1,48,74,2974928988
69,23,13,Improv_Metronome,436,1,38,60,2975103612
69,23,13,Improv_Metronome,437,1,48,58,2975129024
69,23,13,Improv_Metronome,438,1,38,43,2975292600
69,23,13,Improv_Metronome,439,1,48,53,2975318456
69,23,13,Improv_Metronome,440,5,42,127,2975326792
69,23,13,Improv_Metronome,441,1,38,66,2975653764
69,23,13,Improv_Metronome,442,1,48,62,2975657044
69,23,13,Improv_Metronome,443,1,38,41,2975696212
69,23,13,Improv_Metronome,444,5,42,127,2975827424
69,23,13,Improv_Metronome,445,1,38,67,2976010228
69,23,13,Improv_Metronome,446,1,48,67,2976025172
69,23,13,Improv_Metronome,447,1,38,46,2976062700
69,23,13,Improv_Metronome,448,5,42,127,2976327196
69,23,13,Improv_Metronome,449,1,48,86,2976396368
69,23,13,Improv_Metronome,450,1,38,73,2976399712
69,23,13,Improv_Metronome,451,1,38,50,2976448156
69,23,13,Improv_Metronome,452,5,42,127,2976826900
69,23,13,Improv_Metronome,453,1,48,65,2976870032
69,23,13,Improv_Metronome,454,1,38,68,2976886172
69,23,13,Improv_Metronome,455,1,38,68,2977249236
69,23,13,Improv_Metronome,456,1,48,59,2977273304
69,23,13,Improv_Metronome,457,1,38,40,2977304396
69,23,13,Improv_Metronome,458,5,42,127,2977326348
69,23,13,Improv_Metronome,459,1,48,64,2977667908
69,23,13,Improv_Metronome,460,1,38,60,2977690928
69,23,13,Improv_Metronome,461,5,42,127,2977827372
69,23,13,Improv_Metronome,462,1,48,59,2978044964
69,23,13,Improv_Metronome,463,1,48,52,2978250784
69,23,13,Improv_Metronome,464,5,42,127,2978326764
69,23,13,Improv_Metronome,465,1,48,51,2978453512
69,23,13,Improv_Metronome,466,1,48,65,2978796636
69,23,13,Improv_Metronome,0,9999,9999,9999,2908824636
69,23,13,Improv_Metronome,1,9999,9999,9999,2909324352
69,23,13,Improv_Metronome,2,9999,9999,9999,2909824068
69,23,13,Improv_Metronome,3,9999,9999,9999,2910324832
69,23,13,Improv_Metronome,4,9999,9999,9999,2910824524
69,23,13,Improv_Metronome,5,9999,9999,9999,2911324248
69,23,13,Improv_Metronome,6,9999,9999,9999,2911825016
69,23,13,Improv_Metronome,7,9999,9999,9999,2912324688
69,23,13,Improv_Metronome,8,9999,9999,9999,2912824412
69,23,13,Improv_Metronome,9,9999,9999,9999,2913324132
69,23,13,Improv_Metronome,10,9999,9999,9999,2913824828
69,23,13,Improv_Metronome,11,9999,9999,9999,2914324596
69,23,13,Improv_Metronome,12,9999,9999,9999,2914824292
69,23,13,Improv_Metronome,13,9999,9999,9999,2915325028
69,23,13,Improv_Metronome,14,9999,9999,9999,2915824720
69,23,13,Improv_Metronome,15,9999,9999,9999,2916324416
69,23,13,Improv_Metronome,16,9999,9999,9999,2916824172
69,23,13,Improv_Metronome,17,9999,9999,9999,2917324908
69,23,13,Improv_Metronome,18,9999,9999,9999,2917824600
69,23,13,Improv_Metronome,19,9999,9999,9999,2918324296
69,23,13,Improv_Metronome,20,9999,9999,9999,2918825040
69,23,13,Improv_Metronome,21,9999,9999,9999,2919324792
69,23,13,Improv_Metronome,22,9999,9999,9999,2919824488
69,23,13,Improv_Metronome,23,9999,9999,9999,2920324216
69,23,13,Improv_Metronome,24,9999,9999,9999,2920824896
69,23,13,Improv_Metronome,25,9999,9999,9999,2921324616
69,23,13,Improv_Metronome,26,9999,9999,9999,2921824312
69,23,13,Improv_Metronome,27,9999,9999,9999,2922325040
69,23,13,Improv_Metronome,28,9999,9999,9999,2922824776
69,23,13,Improv_Metronome,29,9999,9999,9999,2923324472
69,23,13,Improv_Metronome,30,9999,9999,9999,2923824240
69,23,13,Improv_Metronome,31,9999,9999,9999,2924324976
69,23,13,Improv_Metronome,32,9999,9999,9999,2924824656
69,23,13,Improv_Metronome,33,9999,9999,9999,2925324352
69,23,13,Improv_Metronome,34,9999,9999,9999,2925824116
69,23,13,Improv_Metronome,35,9999,9999,9999,2926324840
69,23,13,Improv_Metronome,36,9999,9999,9999,2926824532
69,23,13,Improv_Metronome,37,9999,9999,9999,2927324236
69,23,13,Improv_Metronome,38,9999,9999,9999,2927824956
69,23,13,Improv_Metronome,39,9999,9999,9999,2928324672
69,23,13,Improv_Metronome,40,9999,9999,9999,2928824372
69,23,13,Improv_Metronome,41,9999,9999,9999,2929324116
69,23,13,Improv_Metronome,42,9999,9999,9999,2929824876
69,23,13,Improv_Metronome,43,9999,9999,9999,2930324600
69,23,13,Improv_Metronome,44,9999,9999,9999,2930824276
69,23,13,Improv_Metronome,45,9999,9999,9999,2931325044
69,23,13,Improv_Metronome,46,9999,9999,9999,2931824724
69,23,13,Improv_Metronome,47,9999,9999,9999,2932324472
69,23,13,Improv_Metronome,48,9999,9999,9999,2932824140
69,23,13,Improv_Metronome,49,9999,9999,9999,2933324864
69,23,13,Improv_Metronome,50,9999,9999,9999,2933824612
69,23,13,Improv_Metronome,51,9999,9999,9999,2934324284
69,23,13,Improv_Metronome,52,9999,9999,9999,2934825016
69,23,13,Improv_Metronome,53,9999,9999,9999,2935324748
69,23,13,Improv_Metronome,54,9999,9999,9999,2935824484
69,23,13,Improv_Metronome,55,9999,9999,9999,2936324216
69,23,13,Improv_Metronome,56,9999,9999,9999,2936824936
69,23,13,Improv_Metronome,57,9999,9999,9999,2937324608
69,23,13,Improv_Metronome,58,9999,9999,9999,2937824352
69,23,13,Improv_Metronome,59,9999,9999,9999,2938325044
69,23,13,Improv_Metronome,60,9999,9999,9999,2938824772
69,23,13,Improv_Metronome,61,9999,9999,9999,2939324472
69,23,13,Improv_Metronome,62,9999,9999,9999,2939824232
69,23,13,Improv_Metronome,63,9999,9999,9999,2940324916
69,23,13,Improv_Metronome,64,9999,9999,9999,2940824684
69,23,13,Improv_Metronome,65,9999,9999,9999,2941324384
69,23,13,Improv_Metronome,66,9999,9999,9999,2941824088
69,23,13,Improv_Metronome,67,9999,9999,9999,2942324852
69,23,13,Improv_Metronome,68,9999,9999,9999,2942824544
69,23,13,Improv_Metronome,69,9999,9999,9999,2943324240
69,23,13,Improv_Metronome,70,9999,9999,9999,2943824964
69,23,13,Improv_Metronome,71,9999,9999,9999,2944324660
69,23,13,Improv_Metronome,72,9999,9999,9999,2944824428
69,23,13,Improv_Metronome,73,9999,9999,9999,2945324124
69,23,13,Improv_Metronome,74,9999,9999,9999,2945824864
69,23,13,Improv_Metronome,75,9999,9999,9999,2946324560
69,23,13,Improv_Metronome,76,9999,9999,9999,2946824308
69,23,13,Improv_Metronome,77,9999,9999,9999,2947324976
69,23,13,Improv_Metronome,78,9999,9999,9999,2947824696
69,23,13,Improv_Metronome,79,9999,9999,9999,2948324424
69,23,13,Improv_Metronome,80,9999,9999,9999,2948824124
69,23,13,Improv_Metronome,81,9999,9999,9999,2949324868
69,23,13,Improv_Metronome,82,9999,9999,9999,2949824572
69,23,13,Improv_Metronome,83,9999,9999,9999,2950324344
69,23,13,Improv_Metronome,84,9999,9999,9999,2950825012
69,23,13,Improv_Metronome,85,9999,9999,9999,2951324780
69,23,13,Improv_Metronome,86,9999,9999,9999,2951824468
69,23,13,Improv_Metronome,87,9999,9999,9999,2952324148
69,23,13,Improv_Metronome,88,9999,9999,9999,2952824888
69,23,13,Improv_Metronome,89,9999,9999,9999,2953324656
69,23,13,Improv_Metronome,90,9999,9999,9999,2953824332
69,23,13,Improv_Metronome,91,9999,9999,9999,2954325104
69,23,13,Improv_Metronome,92,9999,9999,9999,2954824796
69,23,13,Improv_Metronome,93,9999,9999,9999,2955324468
69,23,13,Improv_Metronome,94,9999,9999,9999,2955824196
69,23,13,Improv_Metronome,95,9999,9999,9999,2956324964
69,23,13,Improv_Metronome,96,9999,9999,9999,2956824672
69,23,13,Improv_Metronome,97,9999,9999,9999,2957324348
69,23,13,Improv_Metronome,98,9999,9999,9999,2957824124
69,23,13,Improv_Metronome,99,9999,9999,9999,2958324792
69,23,13,Improv_Metronome,100,9999,9999,9999,2958824516
69,23,13,Improv_Metronome,101,9999,9999,9999,2959324268
69,23,13,Improv_Metronome,102,9999,9999,9999,2959824960
69,23,13,Improv_Metronome,103,9999,9999,9999,2960324680
69,23,13,Improv_Metronome,104,9999,9999,9999,2960824408
69,23,13,Improv_Metronome,105,9999,9999,9999,2961324100
69,23,13,Improv_Metronome,106,9999,9999,9999,2961824824
69,23,13,Improv_Metronome,107,9999,9999,9999,2962324576
69,23,13,Improv_Metronome,108,9999,9999,9999,2962824304
69,23,13,Improv_Metronome,109,9999,9999,9999,2963325040
69,23,13,Improv_Metronome,110,9999,9999,9999,2963824716
69,23,13,Improv_Metronome,111,9999,9999,9999,2964324468
69,23,13,Improv_Metronome,112,9999,9999,9999,2964824160
69,23,13,Improv_Metronome,113,9999,9999,9999,2965324884
69,23,13,Improv_Metronome,114,9999,9999,9999,2965824604
69,23,13,Improv_Metronome,115,9999,9999,9999,2966324304
69,23,13,Improv_Metronome,116,9999,9999,9999,2966825040
69,23,13,Improv_Metronome,117,9999,9999,9999,2967324784
69,23,13,Improv_Metronome,118,9999,9999,9999,2967824484
69,23,13,Improv_Metronome,119,9999,9999,9999,2968324184
69,23,13,Improv_Metronome,120,9999,9999,9999,2968824936
69,23,13,Improv_Metronome,121,9999,9999,9999,2969324652
69,23,13,Improv_Metronome,122,9999,9999,9999,2969824364
69,23,13,Improv_Metronome,123,9999,9999,9999,2970325040
69,23,13,Improv_Metronome,124,9999,9999,9999,2970824820
69,23,13,Improv_Metronome,125,9999,9999,9999,2971324492
69,23,13,Improv_Metronome,126,9999,9999,9999,2971824240
69,23,13,Improv_Metronome,127,9999,9999,9999,2972324960
69,23,13,Improv_Metronome,128,9999,9999,9999,2972824652
69,23,13,Improv_Metronome,129,9999,9999,9999,2973324348
69,23,13,Improv_Metronome,130,9999,9999,9999,2973824112
69,23,13,Improv_Metronome,131,9999,9999,9999,2974324836
69,23,13,Improv_Metronome,132,9999,9999,9999,2974824568
69,23,13,Improv_Metronome,133,9999,9999,9999,2975324208
69,23,13,Improv_Metronome,134,9999,9999,9999,2975824988
69,23,13,Improv_Metronome,135,9999,9999,9999,2976324688
69,23,13,Improv_Metronome,136,9999,9999,9999,2976824388
69,23,13,Improv_Metronome,137,9999,9999,9999,2977324136
69,23,13,Improv_Metronome,138,9999,9999,9999,2977824864
69,23,13,Improv_Metronome,139,9999,9999,9999,2978324552
69,24,14,Improv_Melody,0,2,48,80,3031197016
69,24,14,Improv_Melody,1,2,72,80,3031199764
69,24,14,Improv_Melody,2,5,42,127,3031201400
69,24,14,Improv_Melody,3,5,42,110,3031693572
69,24,14,Improv_Melody,4,5,42,110,3032194416
69,24,14,Improv_Melody,5,5,42,110,3032694212
69,24,14,Improv_Melody,6,5,42,127,3033193932
69,24,14,Improv_Melody,7,5,42,110,3033693580
69,24,14,Improv_Melody,8,5,42,110,3034194276
69,24,14,Improv_Melody,9,5,42,110,3034694144
69,24,14,Improv_Melody,10,2,43,80,3035196144
69,24,14,Improv_Melody,11,2,67,80,3035198528
69,24,14,Improv_Melody,12,5,42,127,3035201060
69,24,14,Improv_Melody,13,5,42,110,3035693380
69,24,14,Improv_Melody,14,5,42,110,3036194148
69,24,14,Improv_Melody,15,5,42,110,3036694016
69,24,14,Improv_Melody,16,1,38,49,3037122308
69,24,14,Improv_Melody,17,1,48,44,3037144728
69,24,14,Improv_Melody,18,5,42,127,3037193860
69,24,14,Improv_Melody,19,1,38,58,3037592268
69,24,14,Improv_Melody,20,1,48,59,3037621348
69,24,14,Improv_Melody,21,5,42,110,3037694248
69,24,14,Improv_Melody,22,1,38,58,3038086096
69,24,14,Improv_Melody,23,1,48,52,3038089296
69,24,14,Improv_Melody,24,5,42,110,3038194036
69,24,14,Improv_Melody,25,1,38,53,3038596896
69,24,14,Improv_Melody,26,1,48,38,3038625600
69,24,14,Improv_Melody,27,5,42,110,3038693952
69,24,14,Improv_Melody,28,1,38,63,3039072764
69,24,14,Improv_Melody,29,1,48,33,3039079996
69,24,14,Improv_Melody,30,1,38,34,3039119472
69,24,14,Improv_Melody,31,2,45,80,3039196596
69,24,14,Improv_Melody,32,2,69,80,3039198756
69,24,14,Improv_Melody,33,5,42,127,3039201140
69,24,14,Improv_Melody,34,1,48,59,3039342700
69,24,14,Improv_Melody,35,1,38,51,3039369604
69,24,14,Improv_Melody,36,1,38,56,3039618072
69,24,14,Improv_Melody,37,1,48,58,3039632860
69,24,14,Improv_Melody,38,5,42,110,3039694160
69,24,14,Improv_Melody,39,1,48,49,3040088480
69,24,14,Improv_Melody,40,1,38,51,3040098032
69,24,14,Improv_Melody,41,1,38,33,3040139524
69,24,14,Improv_Melody,42,5,42,110,3040194004
69,24,14,Improv_Melody,43,1,38,57,3040602708
69,24,14,Improv_Melody,44,1,48,57,3040614956
69,24,14,Improv_Melody,45,5,42,110,3040693908
69,24,14,Improv_Melody,46,1,38,57,3041084936
69,24,14,Improv_Melody,47,1,48,51,3041092696
69,24,14,Improv_Melody,48,5,42,127,3041194264
69,24,14,Improv_Melody,49,1,38,48,3041380516
69,24,14,Improv_Melody,50,1,48,46,3041383712
69,24,14,Improv_Melody,51,1,38,47,3041602624
69,24,14,Improv_Melody,52,1,48,48,3041611352
69,24,14,Improv_Melody,53,5,42,110,3041694548
69,24,14,Improv_Melody,54,1,38,54,3042074836
69,24,14,Improv_Melody,55,1,48,65,3042100548
69,24,14,Improv_Melody,56,5,42,110,3042195012
69,24,14,Improv_Melody,57,1,38,58,3042566932
69,24,14,Improv_Melody,58,1,48,54,3042586208
69,24,14,Improv_Melody,59,5,42,110,3042693692
69,24,14,Improv_Melody,60,1,38,56,3043042576
69,24,14,Improv_Melody,61,1,48,43,3043062976
69,24,14,Improv_Melody,62,2,41,80,3043196744
69,24,14,Improv_Melody,63,2,65,80,3043198820
69,24,14,Improv_Melody,64,5,42,127,3043201212
69,24,14,Improv_Melody,65,1,38,43,3043284440
69,24,14,Improv_Melody,66,1,48,50,3043309136
69,24,14,Improv_Melody,67,1,38,55,3043579280
69,24,14,Improv_Melody,68,1,48,56,3043582480
69,24,14,Improv_Melody,69,5,42,110,3043693924
69,24,14,Improv_Melody,70,1,38,62,3044094196
69,24,14,Improv_Melody,71,1,48,48,3044107112
69,24,14,Improv_Melody,72,5,42,110,3044193828
69,24,14,Improv_Melody,73,1,48,47,3044570420
69,24,14,Improv_Melody,74,1,38,39,3044573952
69,24,14,Improv_Melody,75,5,42,110,3044694448
69,24,14,Improv_Melody,76,1,48,51,3045052132
69,24,14,Improv_Melody,77,1,38,37,3045060488
69,24,14,Improv_Melody,78,5,42,127,3045193956
69,24,14,Improv_Melody,79,1,38,53,3045249504
69,24,14,Improv_Melody,80,1,48,46,3045296608
69,24,14,Improv_Melody,81,1,38,55,3045503400
69,24,14,Improv_Melody,82,1,48,51,3045536216
69,24,14,Improv_Melody,83,5,42,110,3045693912
69,24,14,Improv_Melody,84,1,38,70,3045961016
69,24,14,Improv_Melody,85,1,48,57,3045991212
69,24,14,Improv_Melody,86,5,42,110,3046193712
69,24,14,Improv_Melody,87,1,48,81,3046458500
69,24,14,Improv_Melody,88,1,38,58,3046492888
69,24,14,Improv_Melody,89,5,42,110,3046694264
69,24,14,Improv_Melody,90,1,38,55,3046961140
69,24,14,Improv_Melody,91,1,48,71,3046981316
69,24,14,Improv_Melody,92,2,48,80,3047196644
69,24,14,Improv_Melody,93,2,72,80,3047198644
69,24,14,Improv_Melody,94,5,42,127,3047201108
69,24,14,Improv_Melody,95,1,38,58,3047421992
69,24,14,Improv_Melody,96,1,48,64,3047478740
69,24,14,Improv_Melody,97,5,42,110,3047693880
69,24,14,Improv_Melody,98,1,38,59,3047893564
69,24,14,Improv_Melody,99,1,48,66,3047896836
69,24,14,Improv_Melody,100,5,42,110,3048194504
69,24,14,Improv_Melody,101,1,38,59,3048373552
69,24,14,Improv_Melody,102,1,48,76,3048377792
69,24,14,Improv_Melody,103,5,42,110,3048694232
69,24,14,Improv_Melody,104,1,38,62,3048848520
69,24,14,Improv_Melody,105,1,48,49,3048902200
69,24,14,Improv_Melody,106,5,42,127,3049193884
69,24,14,Improv_Melody,107,1,48,61,3049325132
69,24,14,Improv_Melody,108,1,38,57,3049328324
69,24,14,Improv_Melody,109,5,42,110,3049693760
69,24,14,Improv_Melody,110,1,38,62,3049812516
69,24,14,Improv_Melody,111,1,48,76,3049831120
69,24,14,Improv_Melody,112,5,42,110,3050194436
69,24,14,Improv_Melody,113,1,48,66,3050307380
69,24,14,Improv_Melody,114,1,38,36,3050313420
69,24,14,Improv_Melody,115,1,38,57,3050318260
69,24,14,Improv_Melody,116,5,42,110,3050693916
69,24,14,Improv_Melody,117,1,38,62,3050732436
69,24,14,Improv_Melody,118,1,48,19,3050742144
69,24,14,Improv_Melody,119,1,48,54,3050746912
69,24,14,Improv_Melody,120,1,38,53,3050971328
69,24,14,Improv_Melody,121,1,48,65,3051004680
69,24,14,Improv_Melody,122,2,43,80,3051196428
69,24,14,Improv_Melody,123,2,67,80,3051198500
69,24,14,Improv_Melody,124,5,42,127,3051201184
69,24,14,Improv_Melody,125,1,38,56,3051223456
69,24,14,Improv_Melody,126,1,48,64,3051249424
69,24,14,Improv_Melody,127,5,42,110,3051693744
69,24,14,Improv_Melody,128,1,48,81,3051698056
69,24,14,Improv_Melody,129,1,38,46,3051704096
69,24,14,Improv_Melody,130,1,38,67,3052168368
69,24,14,Improv_Melody,131,1,48,89,3052184280
69,24,14,Improv_Melody,132,5,42,110,3052194120
69,24,14,Improv_Melody,133,1,38,57,3052636976
69,24,14,Improv_Melody,134,1,48,72,3052665828
69,24,14,Improv_Melody,135,5,42,110,3052693772
69,24,14,Improv_Melody,136,1,38,58,3052888356
69,24,14,Improv_Melody,137,1,48,74,3052901048
69,24,14,Improv_Melody,138,1,38,54,3053184508
69,24,14,Improv_Melody,139,1,48,75,3053190920
69,24,14,Improv_Melody,140,5,42,127,3053193508
69,24,14,Improv_Melody,141,5,42,110,3053694456
69,24,14,Improv_Melody,142,1,48,87,3053707820
69,24,14,Improv_Melody,143,1,38,66,3053716776
69,24,14,Improv_Melody,144,1,38,56,3054149252
69,24,14,Improv_Melody,145,1,48,62,3054176236
69,24,14,Improv_Melody,146,5,42,110,3054193932
69,24,14,Improv_Melody,147,1,38,30,3054206904
69,24,14,Improv_Melody,148,1,48,54,3054577844
69,24,14,Improv_Melody,149,1,38,51,3054586276
69,24,14,Improv_Melody,150,5,42,110,3054693756
69,24,14,Improv_Melody,151,1,38,47,3054819640
69,24,14,Improv_Melody,152,1,48,48,3054824488
69,24,14,Improv_Melody,153,1,48,58,3055091936
69,24,14,Improv_Melody,154,1,38,50,3055097300
69,24,14,Improv_Melody,155,2,45,80,3055196592
69,24,14,Improv_Melody,156,2,69,80,3055198592
69,24,14,Improv_Melody,157,5,42,127,3055201200
69,24,14,Improv_Melody,158,1,48,60,3055487308
69,24,14,Improv_Melody,159,1,38,59,3055506736
69,24,14,Improv_Melody,160,1,48,33,3055530420
69,24,14,Improv_Melody,161,5,42,110,3055694252
69,24,14,Improv_Melody,162,1,38,54,3055888652
69,24,14,Improv_Melody,163,1,38,31,3055938516
69,24,14,Improv_Melody,164,1,48,53,3055949872
69,24,14,Improv_Melody,165,5,42,110,3056193956
69,24,14,Improv_Melody,166,1,48,56,3056341212
69,24,14,Improv_Melody,167,1,38,53,3056346800
69,24,14,Improv_Melody,168,1,38,58,3056642376
69,24,14,Improv_Melody,169,1,48,55,3056646176
69,24,14,Improv_Melody,170,5,42,110,3056693560
69,24,14,Improv_Melody,171,1,48,57,3056855432
69,24,14,Improv_Melody,172,1,38,54,3056870632
69,24,14,Improv_Melody,173,5,42,127,3057194304
69,24,14,Improv_Melody,174,1,48,50,3057358164
69,24,14,Improv_Melody,175,1,38,61,3057388624
69,24,14,Improv_Melody,176,5,42,110,3057694044
69,24,14,Improv_Melody,177,1,48,77,3057815488
69,24,14,Improv_Melody,178,1,38,65,3057839184
69,24,14,Improv_Melody,179,5,42,110,3058193844
69,24,14,Improv_Melody,180,1,38,62,3058312972
69,24,14,Improv_Melody,181,1,48,63,3058333372
69,24,14,Improv_Melody,182,5,42,110,3058693420
69,24,14,Improv_Melody,183,1,38,52,3058900212
69,24,14,Improv_Melody,184,1,48,51,3058943092
69,24,14,Improv_Melody,185,2,41,80,3059196864
69,24,14,Improv_Melody,186,2,65,80,3059199016
69,24,14,Improv_Melody,187,5,42,127,3059201628
69,24,14,Improv_Melody,188,1,38,52,3059515328
69,24,14,Improv_Melody,189,5,42,110,3059693848
69,24,14,Improv_Melody,190,1,38,44,3059759868
69,24,14,Improv_Melody,191,1,38,56,3059987636
69,24,14,Improv_Melody,192,1,38,38,3060022240
69,24,14,Improv_Melody,193,5,42,110,3060193652
69,24,14,Improv_Melody,194,1,38,67,3060449760
69,24,14,Improv_Melody,195,5,42,110,3060694376
69,24,14,Improv_Melody,196,1,38,62,3060875912
69,24,14,Improv_Melody,197,5,42,127,3061194076
69,24,14,Improv_Melody,198,1,38,63,3061338508
69,24,14,Improv_Melody,199,1,38,61,3061554904
69,24,14,Improv_Melody,200,5,42,110,3061693752
69,24,14,Improv_Melody,201,1,38,56,3061803560
69,24,14,Improv_Melody,202,1,38,25,3061865392
69,24,14,Improv_Melody,203,5,42,110,3062193504
69,24,14,Improv_Melody,204,1,48,57,3062319244
69,24,14,Improv_Melody,205,5,42,110,3062694548
69,24,14,Improv_Melody,206,1,48,79,3062730056
69,24,14,Improv_Melody,207,1,48,60,3063170420
69,24,14,Improv_Melody,208,2,48,80,3063196600
69,24,14,Improv_Melody,209,2,72,80,3063198828
69,24,14,Improv_Melody,210,5,42,127,3063201360
69,24,14,Improv_Melody,211,1,48,51,3063407416
69,24,14,Improv_Melody,212,1,48,67,3063647372
69,24,14,Improv_Melody,213,5,42,110,3063693636
69,24,14,Improv_Melody,214,1,48,73,3064103760
69,24,14,Improv_Melody,215,5,42,110,3064194532
69,24,14,Improv_Melody,216,1,48,75,3064559476
69,24,14,Improv_Melody,217,5,42,110,3064694364
69,24,14,Improv_Melody,218,1,48,63,3065092244
69,24,14,Improv_Melody,219,1,38,57,3065125960
69,24,14,Improv_Melody,220,5,42,127,3065193748
69,24,14,Improv_Melody,221,1,38,55,3065355896
69,24,14,Improv_Melody,222,1,48,54,3065359164
69,24,14,Improv_Melody,223,1,38,62,3065593560
69,24,14,Improv_Melody,224,1,38,42,3065630188
69,24,14,Improv_Melody,225,1,48,65,3065641464
69,24,14,Improv_Melody,226,5,42,110,3065693488
69,24,14,Improv_Melody,227,1,38,60,3066046492
69,24,14,Improv_Melody,228,1,38,32,3066110072
69,24,14,Improv_Melody,229,5,42,110,3066194484
69,24,14,Improv_Melody,230,1,38,70,3066545572
69,24,14,Improv_Melody,231,5,42,110,3066694316
69,24,14,Improv_Melody,232,1,48,66,3067055668
69,24,14,Improv_Melody,233,2,43,80,3067196148
69,24,14,Improv_Melody,234,2,67,80,3067198372
69,24,14,Improv_Melody,235,5,42,127,3067200912
69,24,14,Improv_Melody,236,1,38,61,3067522768
69,24,14,Improv_Melody,237,5,42,110,3067693432
69,24,14,Improv_Melody,238,1,48,74,3067995616
69,24,14,Improv_Melody,239,5,42,110,3068194328
69,24,14,Improv_Melody,240,1,38,70,3068522096
69,24,14,Improv_Melody,241,1,48,51,3068525892
69,24,14,Improv_Melody,242,5,42,110,3068693760
69,24,14,Improv_Melody,243,1,38,67,3068971112
69,24,14,Improv_Melody,244,1,48,69,3068984852
69,24,14,Improv_Melody,245,1,38,60,3069191668
69,24,14,Improv_Melody,246,5,42,127,3069194452
69,24,14,Improv_Melody,247,1,48,67,3069220380
69,24,14,Improv_Melody,248,1,38,40,3069231208
69,24,14,Improv_Melody,249,1,38,51,3069492748
69,24,14,Improv_Melody,250,1,48,62,3069497592
69,24,14,Improv_Melody,251,5,42,110,3069694328
69,24,14,Improv_Melody,252,1,48,74,3069947296
69,24,14,Improv_Melody,253,5,42,110,3070194324
69,24,14,Improv_Melody,254,1,38,69,3070440492
69,24,14,Improv_Melody,255,5,42,110,3070693656
69,24,14,Improv_Melody,256,1,48,84,3070951560
69,24,14,Improv_Melody,257,2,45,80,3071196176
69,24,14,Improv_Melody,258,2,69,80,3071198096
69,24,14,Improv_Melody,259,5,42,127,3071200636
69,24,14,Improv_Melody,260,1,48,84,3071445576
69,24,14,Improv_Melody,261,5,42,110,3071694328
69,24,14,Improv_Melody,262,1,48,69,3071901072
69,24,14,Improv_Melody,263,1,48,61,3072164364
69,24,14,Improv_Melody,264,5,42,110,3072194096
69,24,14,Improv_Melody,265,1,48,59,3072411444
69,24,14,Improv_Melody,266,5,42,110,3072693484
69,24,14,Improv_Melody,267,1,48,74,3072901276
69,24,14,Improv_Melody,268,5,42,127,3073194228
69,24,14,Improv_Melody,269,1,48,75,3073380248
69,24,14,Improv_Melody,270,5,42,110,3073694304
69,24,14,Improv_Melody,271,1,38,64,3073857360
69,24,14,Improv_Melody,272,1,38,52,3074124848
69,24,14,Improv_Melody,273,5,42,110,3074194068
69,24,14,Improv_Melody,274,1,38,65,3074435656
69,24,14,Improv_Melody,275,1,38,41,3074481108
69,24,14,Improv_Melody,276,5,42,110,3074693512
69,24,14,Improv_Melody,277,1,38,72,3074939668
69,24,14,Improv_Melody,278,1,38,38,3074992384
69,24,14,Improv_Melody,279,1,48,73,3075003808
69,24,14,Improv_Melody,280,2,41,80,3075196692
69,24,14,Improv_Melody,281,2,65,80,3075198844
69,24,14,Improv_Melody,282,5,42,127,3075201536
69,24,14,Improv_Melody,283,1,38,65,3075497808
69,24,14,Improv_Melody,284,1,48,59,3075505940
69,24,14,Improv_Melody,285,5,42,110,3075694228
69,24,14,Improv_Melody,286,1,38,63,3075986544
69,24,14,Improv_Melody,287,1,48,72,3076003056
69,24,14,Improv_Melody,288,5,42,110,3076193732
69,24,14,Improv_Melody,289,1,38,55,3076222952
69,24,14,Improv_Melody,290,1,48,59,3076254572
69,24,14,Improv_Melody,291,1,38,38,3076266296
69,24,14,Improv_Melody,292,1,38,62,3076539056
69,24,14,Improv_Melody,293,1,48,67,3076548164
69,24,14,Improv_Melody,294,1,38,48,3076565944
69,24,14,Improv_Melody,295,1,48,47,3076577016
69,24,14,Improv_Melody,296,5,42,110,3076694448
69,24,14,Improv_Melody,297,1,38,54,3077089252
69,24,14,Improv_Melody,298,1,48,53,3077119084
69,24,14,Improv_Melody,299,5,42,127,3077194132
69,24,14,Improv_Melody,300,5,42,110,3077693912
69,24,14,Improv_Melody,301,1,38,46,3077695704
69,24,14,Improv_Melody,302,1,48,51,3077753124
69,24,14,Improv_Melody,303,5,42,110,3078193664
69,24,14,Improv_Melody,304,1,38,71,3078339568
69,24,14,Improv_Melody,305,1,48,83,3078364500
69,24,14,Improv_Melody,306,1,38,44,3078391624
69,24,14,Improv_Melody,307,1,48,32,3078427736
69,24,14,Improv_Melody,308,5,42,110,3078694184
69,24,14,Improv_Melody,309,1,38,69,3079130508
69,24,14,Improv_Melody,310,2,48,80,3079196480
69,24,14,Improv_Melody,311,2,72,80,3079198856
69,24,14,Improv_Melody,312,5,42,127,3079201316
69,24,14,Improv_Melody,313,1,48,75,3079295156
69,24,14,Improv_Melody,314,1,38,40,3079391272
69,24,14,Improv_Melody,315,1,38,41,3079540612
69,24,14,Improv_Melody,316,1,48,66,3079608064
69,24,14,Improv_Melody,317,5,42,110,3079693536
69,24,14,Improv_Melody,318,1,48,72,3080108280
69,24,14,Improv_Melody,319,1,38,58,3080111624
69,24,14,Improv_Melody,320,5,42,110,3080194340
69,24,14,Improv_Melody,321,1,38,61,3080564248
69,24,14,Improv_Melody,322,1,38,48,3080593244
69,24,14,Improv_Melody,323,5,42,110,3080694048
69,24,14,Improv_Melody,324,1,38,78,3081040884
69,24,14,Improv_Melody,325,5,42,127,3081193972
69,24,14,Improv_Melody,326,1,48,66,3081308984
69,24,14,Improv_Melody,327,1,48,69,3081568016
69,24,14,Improv_Melody,328,5,42,110,3081693504
69,24,14,Improv_Melody,329,1,38,65,3081992696
69,24,14,Improv_Melody,330,5,42,110,3082194300
69,24,14,Improv_Melody,331,1,48,45,3082514012
69,24,14,Improv_Melody,332,5,42,110,3082693924
69,24,14,Improv_Melody,333,1,48,56,3082891988
69,24,14,Improv_Melody,334,1,48,57,3083155204
69,24,14,Improv_Melody,335,2,43,80,3083196344
69,24,14,Improv_Melody,336,2,67,80,3083198500
69,24,14,Improv_Melody,337,5,42,127,3083201108
69,24,14,Improv_Melody,338,1,48,56,3083352636
69,24,14,Improv_Melody,339,5,42,110,3083693464
69,24,14,Improv_Melody,340,1,38,34,3083799976
69,24,14,Improv_Melody,341,1,38,65,3084010912
69,24,14,Improv_Melody,342,1,38,41,3084042900
69,24,14,Improv_Melody,343,5,42,110,3084194168
69,24,14,Improv_Melody,344,1,38,64,3084243508
69,24,14,Improv_Melody,345,5,42,110,3084693864
69,24,14,Improv_Melody,346,1,48,49,3084702368
69,24,14,Improv_Melody,347,1,48,58,3084925048
69,24,14,Improv_Melody,348,1,48,67,3085187364
69,24,14,Improv_Melody,349,5,42,127,3085193536
69,24,14,Improv_Melody,350,1,38,61,3085615184
69,24,14,Improv_Melody,351,5,42,110,3085694208
69,24,14,Improv_Melody,352,1,48,76,3086075016
69,24,14,Improv_Melody,353,1,48,35,3086120764
69,24,14,Improv_Melody,354,5,42,110,3086193960
69,24,14,Improv_Melody,355,1,38,71,3086538540
69,24,14,Improv_Melody,356,5,42,110,3086693868
69,24,14,Improv_Melody,357,1,38,73,3086955064
69,24,14,Improv_Melody,358,1,48,65,3086961028
69,24,14,Improv_Melody,359,2,45,80,3087196180
69,24,14,Improv_Melody,360,2,69,80,3087198328
69,24,14,Improv_Melody,361,5,42,127,3087201012
69,24,14,Improv_Melody,362,1,38,67,3087378588
69,24,14,Improv_Melody,363,1,48,80,3087401900
69,24,14,Improv_Melody,364,5,42,110,3087694160
69,24,14,Improv_Melody,365,1,48,53,3087843232
69,24,14,Improv_Melody,366,1,38,55,3087865504
69,24,14,Improv_Melody,367,5,42,110,3088194112
69,24,14,Improv_Melody,368,1,48,71,3088288112
69,24,14,Improv_Melody,369,1,38,58,3088305892
69,24,14,Improv_Melody,370,5,42,110,3088693688
69,24,14,Improv_Melody,371,1,38,59,3088715884
69,24,14,Improv_Melody,372,1,48,65,3088722292
69,24,14,Improv_Melody,373,1,48,51,3089166968
69,24,14,Improv_Melody,374,5,42,127,3089194308
69,24,14,Improv_Melody,375,1,48,36,3089562824
69,24,14,Improv_Melody,376,5,42,110,3089693996
69,24,14,Improv_Melody,377,1,48,55,3089809304
69,24,14,Improv_Melody,378,5,42,110,3090193768
69,24,14,Improv_Melody,379,1,38,61,3090255600
69,24,14,Improv_Melody,380,1,38,56,3090477752
69,24,14,Improv_Melody,381,5,42,110,3090693596
69,24,14,Improv_Melody,382,1,38,60,3090714816
69,24,14,Improv_Melody,383,1,48,57,3091135180
69,24,14,Improv_Melody,384,2,41,80,3091196764
69,24,14,Improv_Melody,385,2,65,80,3091198764
69,24,14,Improv_Melody,386,5,42,127,3091201452
69,24,14,Improv_Melody,387,1,48,75,3091429724
69,24,14,Improv_Melody,388,5,42,110,3091693808
69,24,14,Improv_Melody,389,1,48,83,3091697448
69,24,14,Improv_Melody,390,1,38,62,3092150356
69,24,14,Improv_Melody,391,5,42,110,3092193652
69,24,14,Improv_Melody,392,1,38,60,3092374024
69,24,14,Improv_Melody,393,1,38,34,3092415888
69,24,14,Improv_Melody,394,1,38,71,3092666088
69,24,14,Improv_Melody,395,5,42,110,3092694552
69,24,14,Improv_Melody,396,1,38,44,3092710472
69,24,14,Improv_Melody,397,1,38,60,3093121340
69,24,14,Improv_Melody,398,1,48,59,3093132616
69,24,14,Improv_Melody,399,5,42,127,3093194064
69,24,14,Improv_Melody,400,1,38,61,3093570052
69,24,14,Improv_Melody,401,1,48,62,3093591576
69,24,14,Improv_Melody,402,5,42,110,3093693748
69,24,14,Improv_Melody,403,1,48,78,3094018096
69,24,14,Improv_Melody,404,1,38,60,3094048592
69,24,14,Improv_Melody,405,5,42,110,3094193624
69,24,14,Improv_Melody,406,1,38,56,3094373360
69,24,14,Improv_Melody,407,1,48,78,3094382244
69,24,14,Improv_Melody,408,5,42,110,3094694172
69,24,14,Improv_Melody,409,1,38,69,3094890672
69,24,14,Improv_Melody,410,1,48,61,3094900072
69,24,14,Improv_Melody,411,1,38,53,3095106644
69,24,14,Improv_Melody,412,1,48,49,3095145068
69,24,14,Improv_Melody,413,2,48,80,3095196684
69,24,14,Improv_Melody,414,2,72,80,3095198680
69,24,14,Improv_Melody,415,5,42,127,3095202176
69,24,14,Improv_Melody,416,1,38,53,3095351464
69,24,14,Improv_Melody,417,1,48,63,3095382332
69,24,14,Improv_Melody,418,1,38,35,3095389940
69,24,14,Improv_Melody,419,5,42,110,3095693640
69,24,14,Improv_Melody,420,1,38,66,3095795592
69,24,14,Improv_Melody,421,1,48,67,3095811656
69,24,14,Improv_Melody,422,5,42,110,3096194492
69,24,14,Improv_Melody,423,1,48,73,3096266572
69,24,14,Improv_Melody,424,1,38,62,3096281624
69,24,14,Improv_Melody,425,5,42,110,3096694080
69,24,14,Improv_Melody,426,1,48,68,3096741480
69,24,14,Improv_Melody,427,5,42,127,3097193780
69,24,14,Improv_Melody,428,1,48,70,3097200560
69,24,14,Improv_Melody,429,1,48,41,3097650724
69,24,14,Improv_Melody,430,5,42,110,3097693548
69,24,14,Improv_Melody,431,1,48,61,3097914936
69,24,14,Improv_Melody,432,1,48,63,3098174640
69,24,14,Improv_Melody,433,5,42,110,3098194572
69,24,14,Improv_Melody,434,1,38,58,3098570340
69,24,14,Improv_Melody,435,5,42,110,3098693960
69,24,14,Improv_Melody,436,1,38,58,3099002200
69,24,14,Improv_Melody,437,2,43,80,3099196540
69,24,14,Improv_Melody,438,2,67,80,3099198460
69,24,14,Improv_Melody,439,5,42,127,3099201000
69,24,14,Improv_Melody,440,1,38,67,3099388220
69,24,14,Improv_Melody,441,1,38,57,3099634084
69,24,14,Improv_Melody,442,5,42,110,3099693440
69,24,14,Improv_Melody,443,1,38,57,3099901964
69,24,14,Improv_Melody,444,5,42,110,3100194244
69,24,14,Improv_Melody,445,1,38,64,3100364312
69,24,14,Improv_Melody,446,1,48,60,3100370352
69,24,14,Improv_Melody,447,5,42,110,3100693824
69,24,14,Improv_Melody,448,1,48,69,3100836660
69,24,14,Improv_Melody,449,1,38,56,3100854376
69,24,14,Improv_Melody,450,5,42,127,3101193476
69,24,14,Improv_Melody,451,1,38,70,3101252020
69,24,14,Improv_Melody,452,1,48,58,3101255288
69,24,14,Improv_Melody,453,1,38,54,3101509948
69,24,14,Improv_Melody,454,1,48,65,3101539172
69,24,14,Improv_Melody,455,5,42,110,3101694552
69,24,14,Improv_Melody,456,1,48,67,3101851156
69,24,14,Improv_Melody,457,1,38,59,3101857120
69,24,14,Improv_Melody,458,1,48,37,3101890452
69,24,14,Improv_Melody,459,5,42,110,3102193960
69,24,14,Improv_Melody,460,1,48,68,3102417504
69,24,14,Improv_Melody,461,5,42,110,3102693880
69,24,14,Improv_Melody,462,1,38,75,3102866340
69,24,14,Improv_Melody,463,2,45,80,3103196012
69,24,14,Improv_Melody,464,2,69,80,3103198084
69,24,14,Improv_Melody,465,5,42,127,3103200772
69,24,14,Improv_Melody,466,1,48,74,3103383256
69,24,14,Improv_Melody,467,5,42,110,3103694164
69,24,14,Improv_Melody,468,1,38,65,3103785420
69,24,14,Improv_Melody,469,5,42,110,3104193864
69,24,14,Improv_Melody,470,1,38,70,3104205064
69,24,14,Improv_Melody,471,1,48,70,3104243828
69,24,14,Improv_Melody,472,1,38,38,3104265348
69,24,14,Improv_Melody,473,1,38,71,3104594724
69,24,14,Improv_Melody,474,1,48,67,3104618792
69,24,14,Improv_Melody,475,5,42,110,3104693616
69,24,14,Improv_Melody,476,1,38,71,3105010844
69,24,14,Improv_Melody,477,1,48,69,3105018080
69,24,14,Improv_Melody,478,1,38,22,3105093156
69,24,14,Improv_Melody,479,5,42,127,3105194428
69,24,14,Improv_Melody,480,1,38,57,3105411792
69,24,14,Improv_Melody,481,1,48,54,3105447376
69,24,14,Improv_Melody,482,1,38,41,3105454832
69,24,14,Improv_Melody,483,5,42,110,3105694208
69,24,14,Improv_Melody,484,1,38,69,3105852404
69,24,14,Improv_Melody,485,1,48,73,3105855604
69,24,14,Improv_Melody,486,1,38,46,3105897840
69,24,14,Improv_Melody,487,1,48,21,3105941424
69,24,14,Improv_Melody,488,1,48,16,3106048896
69,24,14,Improv_Melody,489,5,42,110,3106193804
69,24,14,Improv_Melody,490,5,42,110,3106693600
69,24,14,Improv_Melody,491,1,48,60,3106728284
69,24,14,Improv_Melody,492,1,48,43,3106764992
69,24,14,Improv_Melody,493,2,41,80,3107196904
69,24,14,Improv_Melody,494,2,65,80,3107199136
69,24,14,Improv_Melody,495,5,42,127,3107201668
69,24,14,Improv_Melody,496,1,48,63,3107282800
69,24,14,Improv_Melody,497,5,42,110,3107693888
69,24,14,Improv_Melody,498,5,42,110,3108193684
69,24,14,Improv_Melody,499,1,48,45,3108346424
69,24,14,Improv_Melody,500,5,42,110,3108694432
69,24,14,Improv_Melody,501,1,48,56,3108819768
69,24,14,Improv_Melody,502,1,38,47,3108823716
69,24,14,Improv_Melody,503,5,42,127,3109194208
69,24,14,Improv_Melody,504,1,38,60,3109206156
69,24,14,Improv_Melody,505,1,48,54,3109271284
69,24,14,Improv_Melody,506,1,38,60,3109619108
69,24,14,Improv_Melody,507,5,42,110,3109693796
69,24,14,Improv_Melody,508,1,38,60,3110044504
69,24,14,Improv_Melody,509,5,42,110,3110193404
69,24,14,Improv_Melody,510,1,38,67,3110452056
69,24,14,Improv_Melody,511,5,42,110,3110694300
69,24,14,Improv_Melody,512,1,48,57,3110878604
69,24,14,Improv_Melody,513,2,48,80,3111196652
69,24,14,Improv_Melody,514,2,72,80,3111198880
69,24,14,Improv_Melody,515,5,42,127,3111201416
69,24,14,Improv_Melody,516,1,48,58,3111345004
69,24,14,Improv_Melody,517,5,42,110,3111693564
69,24,14,Improv_Melody,518,1,48,75,3111717696
69,24,14,Improv_Melody,519,1,48,68,3112148388
69,24,14,Improv_Melody,0,9999,9999,9999,3031191664
69,24,14,Improv_Melody,1,9999,9999,9999,3031691352
69,24,14,Improv_Melody,2,9999,9999,9999,3032192120
69,24,14,Improv_Melody,3,9999,9999,9999,3032691768
69,24,14,Improv_Melody,4,9999,9999,9999,3033191492
69,24,14,Improv_Melody,5,9999,9999,9999,3033691212
69,24,14,Improv_Melody,6,9999,9999,9999,3034191980
69,24,14,Improv_Melody,7,9999,9999,9999,3034691704
69,24,14,Improv_Melody,8,9999,9999,9999,3035191352
69,24,14,Improv_Melody,9,9999,9999,9999,3035691084
69,24,14,Improv_Melody,10,9999,9999,9999,3036191852
69,24,14,Improv_Melody,11,9999,9999,9999,3036691576
69,24,14,Improv_Melody,12,9999,9999,9999,3037191272
69,24,14,Improv_Melody,13,9999,9999,9999,3037691956
69,24,14,Improv_Melody,14,9999,9999,9999,3038191668
69,24,14,Improv_Melody,15,9999,9999,9999,3038691436
69,24,14,Improv_Melody,16,9999,9999,9999,3039191104
69,24,14,Improv_Melody,17,9999,9999,9999,3039691868
69,24,14,Improv_Melody,18,9999,9999,9999,3040191560
69,24,14,Improv_Melody,19,9999,9999,9999,3040691316
69,24,14,Improv_Melody,20,9999,9999,9999,3041192048
69,24,14,Improv_Melody,21,9999,9999,9999,3041691752
69,24,14,Improv_Melody,22,9999,9999,9999,3042191476
69,24,14,Improv_Melody,23,9999,9999,9999,3042691176
69,24,14,Improv_Melody,24,9999,9999,9999,3043191876
69,24,14,Improv_Melody,25,9999,9999,9999,3043691632
69,24,14,Improv_Melody,26,9999,9999,9999,3044191312
69,24,14,Improv_Melody,27,9999,9999,9999,3044692084
69,24,14,Improv_Melody,28,9999,9999,9999,3045191736
69,24,14,Improv_Melody,29,9999,9999,9999,3045691468
69,24,14,Improv_Melody,30,9999,9999,9999,3046191196
69,24,14,Improv_Melody,31,9999,9999,9999,3046691896
69,24,14,Improv_Melody,32,9999,9999,9999,3047191624
69,24,14,Improv_Melody,33,9999,9999,9999,3047691364
69,24,14,Improv_Melody,34,9999,9999,9999,3048192064
69,24,14,Improv_Melody,35,9999,9999,9999,3048691788
69,24,14,Improv_Melody,36,9999,9999,9999,3049191516
69,24,14,Improv_Melody,37,9999,9999,9999,3049691244
69,24,14,Improv_Melody,38,9999,9999,9999,3050191992
69,24,14,Improv_Melody,39,9999,9999,9999,3050691700
69,24,14,Improv_Melody,40,9999,9999,9999,3051191400
69,24,14,Improv_Melody,41,9999,9999,9999,3051691080
69,24,14,Improv_Melody,42,9999,9999,9999,3052191824
69,24,14,Improv_Melody,43,9999,9999,9999,3052691552
69,24,14,Improv_Melody,44,9999,9999,9999,3053191288
69,24,14,Improv_Melody,45,9999,9999,9999,3053692012
69,24,14,Improv_Melody,46,9999,9999,9999,3054191712
69,24,14,Improv_Melody,47,9999,9999,9999,3054691388
69,24,14,Improv_Melody,48,9999,9999,9999,3055191148
69,24,14,Improv_Melody,49,9999,9999,9999,3055691884
69,24,14,Improv_Melody,50,9999,9999,9999,3056191588
69,24,14,Improv_Melody,51,9999,9999,9999,3056691264
69,24,14,Improv_Melody,52,9999,9999,9999,3057192008
69,24,14,Improv_Melody,53,9999,9999,9999,3057691752
69,24,14,Improv_Melody,54,9999,9999,9999,3058191476
69,24,14,Improv_Melody,55,9999,9999,9999,3058691128
69,24,14,Improv_Melody,56,9999,9999,9999,3059191916
69,24,14,Improv_Melody,57,9999,9999,9999,3059691628
69,24,14,Improv_Melody,58,9999,9999,9999,3060191284
69,24,14,Improv_Melody,59,9999,9999,9999,3060692080
69,24,14,Improv_Melody,60,9999,9999,9999,3061191780
69,24,14,Improv_Melody,61,9999,9999,9999,3061691460
69,24,14,Improv_Melody,62,9999,9999,9999,3062191212
69,24,14,Improv_Melody,63,9999,9999,9999,3062691960
69,24,14,Improv_Melody,64,9999,9999,9999,3063191652
69,24,14,Improv_Melody,65,9999,9999,9999,3063691344
69,24,14,Improv_Melody,66,9999,9999,9999,3064192088
69,24,14,Improv_Melody,67,9999,9999,9999,3064691776
69,24,14,Improv_Melody,68,9999,9999,9999,3065191532
69,24,14,Improv_Melody,69,9999,9999,9999,3065691196
69,24,14,Improv_Melody,70,9999,9999,9999,3066191968
69,24,14,Improv_Melody,71,9999,9999,9999,3066691652
69,24,14,Improv_Melody,72,9999,9999,9999,3067191352
69,24,14,Improv_Melody,73,9999,9999,9999,3067691064
69,24,14,Improv_Melody,74,9999,9999,9999,3068191812
69,24,14,Improv_Melody,75,9999,9999,9999,3068691540
69,24,14,Improv_Melody,76,9999,9999,9999,3069191292
69,24,14,Improv_Melody,77,9999,9999,9999,3069691964
69,24,14,Improv_Melody,78,9999,9999,9999,3070191736
69,24,14,Improv_Melody,79,9999,9999,9999,3070691436
69,24,14,Improv_Melody,80,9999,9999,9999,3071191112
69,24,14,Improv_Melody,81,9999,9999,9999,3071691884
69,24,14,Improv_Melody,82,9999,9999,9999,3072191580
69,24,14,Improv_Melody,83,9999,9999,9999,3072691264
69,24,14,Improv_Melody,84,9999,9999,9999,3073192012
69,24,14,Improv_Melody,85,9999,9999,9999,3073691712
69,24,14,Improv_Melody,86,9999,9999,9999,3074191480
69,24,14,Improv_Melody,87,9999,9999,9999,3074691144
69,24,14,Improv_Melody,88,9999,9999,9999,3075191896
69,24,14,Improv_Melody,89,9999,9999,9999,3075691636
69,24,14,Improv_Melody,90,9999,9999,9999,3076191292
69,24,14,Improv_Melody,91,9999,9999,9999,3076692080
69,24,14,Improv_Melody,92,9999,9999,9999,3077191764
69,24,14,Improv_Melody,93,9999,9999,9999,3077691472
69,24,14,Improv_Melody,94,9999,9999,9999,3078191224
69,24,14,Improv_Melody,95,9999,9999,9999,3078691892
69,24,14,Improv_Melody,96,9999,9999,9999,3079191608
69,24,14,Improv_Melody,97,9999,9999,9999,3079691316
69,24,14,Improv_Melody,98,9999,9999,9999,3080192124
69,24,14,Improv_Melody,99,9999,9999,9999,3080691832
69,24,14,Improv_Melody,100,9999,9999,9999,3081191532
69,24,14,Improv_Melody,101,9999,9999,9999,3081691212
69,24,14,Improv_Melody,102,9999,9999,9999,3082191932
69,24,14,Improv_Melody,103,9999,9999,9999,3082691704
69,24,14,Improv_Melody,104,9999,9999,9999,3083191400
69,24,14,Improv_Melody,105,9999,9999,9999,3083691096
69,24,14,Improv_Melody,106,9999,9999,9999,3084191800
69,24,14,Improv_Melody,107,9999,9999,9999,3084691572
69,24,14,Improv_Melody,108,9999,9999,9999,3085191244
69,24,14,Improv_Melody,109,9999,9999,9999,3085691992
69,24,14,Improv_Melody,110,9999,9999,9999,3086191668
69,24,14,Improv_Melody,111,9999,9999,9999,3086691428
69,24,14,Improv_Melody,112,9999,9999,9999,3087191156
69,24,14,Improv_Melody,113,9999,9999,9999,3087691868
69,24,14,Improv_Melody,114,9999,9999,9999,3088191596
69,24,14,Improv_Melody,115,9999,9999,9999,3088691320
69,24,14,Improv_Melody,116,9999,9999,9999,3089192016
69,24,14,Improv_Melody,117,9999,9999,9999,3089691700
69,24,14,Improv_Melody,118,9999,9999,9999,3090191476
69,24,14,Improv_Melody,119,9999,9999,9999,3090691152
69,24,14,Improv_Melody,120,9999,9999,9999,3091191892
69,24,14,Improv_Melody,121,9999,9999,9999,3091691592
69,24,14,Improv_Melody,122,9999,9999,9999,3092191284
69,24,14,Improv_Melody,123,9999,9999,9999,3092692036
69,24,14,Improv_Melody,124,9999,9999,9999,3093191768
69,24,14,Improv_Melody,125,9999,9999,9999,3093691456
69,24,14,Improv_Melody,126,9999,9999,9999,3094191180
69,24,14,Improv_Melody,127,9999,9999,9999,3094691956
69,24,14,Improv_Melody,128,9999,9999,9999,3095191660
69,24,14,Improv_Melody,129,9999,9999,9999,3095691348
69,24,14,Improv_Melody,130,9999,9999,9999,3096192048
69,24,14,Improv_Melody,131,9999,9999,9999,3096691788
69,24,14,Improv_Melody,132,9999,9999,9999,3097191488
69,24,14,Improv_Melody,133,9999,9999,9999,3097691256
69,24,14,Improv_Melody,134,9999,9999,9999,3098191980
69,24,14,Improv_Melody,135,9999,9999,9999,3098691664
69,24,14,Improv_Melody,136,9999,9999,9999,3099191364
69,24,14,Improv_Melody,137,9999,9999,9999,3099691072
69,24,14,Improv_Melody,138,9999,9999,9999,3100191804
69,24,14,Improv_Melody,139,9999,9999,9999,3100691532
69,24,14,Improv_Melody,140,9999,9999,9999,3101191256
69,24,14,Improv_Melody,141,9999,9999,9999,3101691960
69,24,14,Improv_Melody,142,9999,9999,9999,3102191664
69,24,14,Improv_Melody,143,9999,9999,9999,3102691440
69,24,14,Improv_Melody,144,9999,9999,9999,3103191116
69,24,14,Improv_Melody,145,9999,9999,9999,3103691872
69,24,14,Improv_Melody,146,9999,9999,9999,3104191572
69,24,14,Improv_Melody,147,9999,9999,9999,3104691264
69,24,14,Improv_Melody,148,9999,9999,9999,3105191984
69,24,14,Improv_Melody,149,9999,9999,9999,3105691764
69,24,14,Improv_Melody,150,9999,9999,9999,3106191436
69,24,14,Improv_Melody,151,9999,9999,9999,3106691160
69,24,14,Improv_Melody,152,9999,9999,9999,3107191884
69,24,14,Improv_Melody,153,9999,9999,9999,3107691596
69,24,14,Improv_Melody,154,9999,9999,9999,3108191320
69,24,14,Improv_Melody,155,9999,9999,9999,3108692064
69,24,14,Improv_Melody,156,9999,9999,9999,3109191768
69,24,14,Improv_Melody,157,9999,9999,9999,3109691504
69,24,14,Improv_Melody,158,9999,9999,9999,3110191184
69,24,14,Improv_Melody,159,9999,9999,9999,3110691932
69,24,14,Improv_Melody,160,9999,9999,9999,3111191632
69,24,14,Improv_Melody,161,9999,9999,9999,3111691344
