pid,taskRunCount,taskID,taskName,i,channel,pitch,velocity,microseconds
61,1,1,Ticks_Pract_5,0,5,42,127,1629228384
61,1,1,Ticks_Pract_5,1,5,42,127,1629728004
61,1,1,Ticks_Pract_5,2,5,42,127,1630227868
61,1,1,Ticks_Pract_5,3,5,42,127,1630727660
61,1,1,Ticks_Pract_5,4,1,38,25,1631228644
61,1,1,Ticks_Pract_5,5,5,42,127,1631230584
61,1,1,Ticks_Pract_5,6,1,38,40,1631726604
61,1,1,Ticks_Pract_5,7,5,42,127,1631728860
61,1,1,Ticks_Pract_5,8,1,38,38,1632223656
61,1,1,Ticks_Pract_5,9,5,42,127,1632227804
61,1,1,Ticks_Pract_5,10,5,42,127,1632728328
61,1,1,Ticks_Pract_5,11,1,38,25,1632766968
61,1,1,Ticks_Pract_5,12,1,38,48,1633222220
61,1,1,Ticks_Pract_5,13,5,42,127,1633228092
61,1,1,Ticks_Pract_5,14,1,38,42,1633697432
61,1,1,Ticks_Pract_5,15,5,42,127,1633727836
61,1,1,Ticks_Pract_5,16,1,38,47,1634217104
61,1,1,Ticks_Pract_5,17,5,42,127,1634227456
61,1,1,Ticks_Pract_5,18,1,38,54,1634702880
61,1,1,Ticks_Pract_5,19,5,42,127,1634728348
61,1,1,Ticks_Pract_5,20,1,38,53,1635224264
61,1,1,Ticks_Pract_5,21,5,42,127,1635227964
61,1,1,Ticks_Pract_5,22,1,38,54,1635714460
61,1,1,Ticks_Pract_5,23,5,42,127,1635727588
61,1,1,Ticks_Pract_5,24,5,42,127,1636227364
61,1,1,Ticks_Pract_5,25,1,38,49,1636239608
61,1,1,Ticks_Pract_5,26,1,38,45,1636703000
61,1,1,Ticks_Pract_5,27,5,42,127,1636728320
61,1,1,Ticks_Pract_5,28,1,38,49,1637203592
61,1,1,Ticks_Pract_5,29,5,42,127,1637227868
61,1,1,Ticks_Pract_5,30,1,38,50,1637693644
61,1,1,Ticks_Pract_5,31,5,42,127,1637727488
61,1,1,Ticks_Pract_5,32,1,38,49,1638198272
61,1,1,Ticks_Pract_5,33,5,42,127,1638228376
61,1,1,Ticks_Pract_5,34,1,38,41,1638676852
61,1,1,Ticks_Pract_5,35,5,42,127,1638727996
61,1,1,Ticks_Pract_5,36,1,38,49,1639179536
61,1,1,Ticks_Pract_5,37,5,42,127,1639227840
61,1,1,Ticks_Pract_5,38,1,38,62,1639673920
61,1,1,Ticks_Pract_5,39,5,42,127,1639727532
61,1,1,Ticks_Pract_5,40,1,38,56,1640174508
61,1,1,Ticks_Pract_5,41,5,42,127,1640228644
61,1,1,Ticks_Pract_5,42,5,42,127,1640727800
61,1,1,Ticks_Pract_5,43,1,38,28,1640764900
61,1,1,Ticks_Pract_5,44,5,42,127,1641227644
61,1,1,Ticks_Pract_5,45,5,42,127,1641728408
61,1,1,Ticks_Pract_5,46,5,42,127,1642228272
61,1,1,Ticks_Pract_5,47,5,42,127,1642727764
61,1,1,Ticks_Pract_5,48,5,42,127,1643227480
61,1,1,Ticks_Pract_5,49,5,42,127,1643728320
61,1,1,Ticks_Pract_5,50,5,42,127,1644227888
61,1,1,Ticks_Pract_5,51,5,42,127,1644727528
61,1,1,Ticks_Pract_5,52,1,48,46,1645220096
61,1,1,Ticks_Pract_5,53,5,42,127,1645228508
61,1,1,Ticks_Pract_5,54,1,48,49,1645717320
61,1,1,Ticks_Pract_5,55,5,42,127,1645728348
61,1,1,Ticks_Pract_5,56,5,42,127,1646227680
61,1,1,Ticks_Pract_5,57,1,48,55,1646247700
61,1,1,Ticks_Pract_5,58,5,42,127,1646727452
61,1,1,Ticks_Pract_5,59,1,48,50,1646739992
61,1,1,Ticks_Pract_5,60,5,42,127,1647228340
61,1,1,Ticks_Pract_5,61,1,48,51,1647235200
61,1,1,Ticks_Pract_5,62,5,42,127,1647728260
61,1,1,Ticks_Pract_5,63,1,48,44,1647735564
61,1,1,Ticks_Pract_5,64,5,42,127,1648227584
61,1,1,Ticks_Pract_5,65,1,48,48,1648232868
61,1,1,Ticks_Pract_5,66,5,42,127,1648728472
61,1,1,Ticks_Pract_5,67,1,48,48,1648731592
61,1,1,Ticks_Pract_5,0,9999,9999,9999,1629226096
61,1,1,Ticks_Pract_5,1,9999,9999,9999,1629725784
61,1,1,Ticks_Pract_5,2,9999,9999,9999,1630225500
61,1,1,Ticks_Pract_5,3,9999,9999,9999,1630725220
61,1,1,Ticks_Pract_5,4,9999,9999,9999,1631225908
61,1,1,Ticks_Pract_5,5,9999,9999,9999,1631725680
61,1,1,Ticks_Pract_5,6,9999,9999,9999,1632225368
61,1,1,Ticks_Pract_5,7,9999,9999,9999,1632726116
61,1,1,Ticks_Pract_5,8,9999,9999,9999,1633225804
61,1,1,Ticks_Pract_5,9,9999,9999,9999,1633725544
61,1,1,Ticks_Pract_5,10,9999,9999,9999,1634225240
61,1,1,Ticks_Pract_5,11,9999,9999,9999,1634725984
61,1,1,Ticks_Pract_5,12,9999,9999,9999,1635225676
61,1,1,Ticks_Pract_5,13,9999,9999,9999,1635725372
61,1,1,Ticks_Pract_5,14,9999,9999,9999,1636225072
61,1,1,Ticks_Pract_5,15,9999,9999,9999,1636725880
61,1,1,Ticks_Pract_5,16,9999,9999,9999,1637225576
61,1,1,Ticks_Pract_5,17,9999,9999,9999,1637725272
61,1,1,Ticks_Pract_5,18,9999,9999,9999,1638226012
61,1,1,Ticks_Pract_5,19,9999,9999,9999,1638725708
61,1,1,Ticks_Pract_5,20,9999,9999,9999,1639225400
61,1,1,Ticks_Pract_5,21,9999,9999,9999,1639725168
61,1,1,Ticks_Pract_5,22,9999,9999,9999,1640225908
61,1,1,Ticks_Pract_5,23,9999,9999,9999,1640725584
61,1,1,Ticks_Pract_5,24,9999,9999,9999,1641225280
61,1,1,Ticks_Pract_5,25,9999,9999,9999,1641726040
61,1,1,Ticks_Pract_5,26,9999,9999,9999,1642225760
61,1,1,Ticks_Pract_5,27,9999,9999,9999,1642725476
61,1,1,Ticks_Pract_5,28,9999,9999,9999,1643225192
61,1,1,Ticks_Pract_5,29,9999,9999,9999,1643725880
61,1,1,Ticks_Pract_5,30,9999,9999,9999,1644225596
61,1,1,Ticks_Pract_5,31,9999,9999,9999,1644725312
61,1,1,Ticks_Pract_5,32,9999,9999,9999,1645226068
61,1,1,Ticks_Pract_5,33,9999,9999,9999,1645725760
61,1,1,Ticks_Pract_5,34,9999,9999,9999,1646225464
61,1,1,Ticks_Pract_5,35,9999,9999,9999,1646725236
61,1,1,Ticks_Pract_5,36,9999,9999,9999,1647225976
61,1,1,Ticks_Pract_5,37,9999,9999,9999,1647725672
61,1,1,Ticks_Pract_5,38,9999,9999,9999,1648225368
61,1,1,Ticks_Pract_5,39,9999,9999,9999,1648726112
61,2,1,Ticks_Pract_5,0,5,42,127,1662685648
61,2,1,Ticks_Pract_5,1,5,42,127,1663186260
61,2,1,Ticks_Pract_5,2,5,42,127,1663685976
61,2,1,Ticks_Pract_5,3,5,42,127,1664185692
61,2,1,Ticks_Pract_5,4,5,42,127,1664685556
61,2,1,Ticks_Pract_5,5,1,48,51,1664688004
61,2,1,Ticks_Pract_5,6,1,48,54,1665159032
61,2,1,Ticks_Pract_5,7,5,42,127,1665186144
61,2,1,Ticks_Pract_5,8,1,48,53,1665685164
61,2,1,Ticks_Pract_5,9,5,42,127,1665686664
61,2,1,Ticks_Pract_5,10,5,42,127,1666185836
61,2,1,Ticks_Pract_5,11,1,48,46,1666191200
61,2,1,Ticks_Pract_5,12,1,48,54,1666680932
61,2,1,Ticks_Pract_5,13,5,42,127,1666686272
61,2,1,Ticks_Pract_5,14,1,48,56,1667169928
61,2,1,Ticks_Pract_5,15,5,42,127,1667185896
61,2,1,Ticks_Pract_5,16,5,42,127,1667685748
61,2,1,Ticks_Pract_5,17,1,48,51,1667710856
61,2,1,Ticks_Pract_5,18,5,42,127,1668185664
61,2,1,Ticks_Pract_5,19,1,48,51,1668194548
61,2,1,Ticks_Pract_5,20,1,48,48,1668683988
61,2,1,Ticks_Pract_5,21,5,42,127,1668686100
61,2,1,Ticks_Pract_5,22,5,42,127,1669185876
61,2,1,Ticks_Pract_5,23,1,48,52,1669208744
61,2,1,Ticks_Pract_5,24,1,48,49,1669685496
61,2,1,Ticks_Pract_5,25,5,42,127,1669686688
61,2,1,Ticks_Pract_5,26,5,42,127,1670186236
61,2,1,Ticks_Pract_5,27,1,48,48,1670189288
61,2,1,Ticks_Pract_5,28,1,48,51,1670658044
61,2,1,Ticks_Pract_5,29,5,42,127,1670686052
61,2,1,Ticks_Pract_5,30,1,48,50,1671173596
61,2,1,Ticks_Pract_5,31,5,42,127,1671185744
61,2,1,Ticks_Pract_5,32,5,42,127,1671685596
61,2,1,Ticks_Pract_5,33,1,48,48,1671715072
61,2,1,Ticks_Pract_5,34,5,42,127,1672186112
61,2,1,Ticks_Pract_5,35,1,48,52,1672195588
61,2,1,Ticks_Pract_5,36,5,42,127,1672685880
61,2,1,Ticks_Pract_5,37,1,48,47,1672704484
61,2,1,Ticks_Pract_5,38,5,42,127,1673185500
61,2,1,Ticks_Pract_5,39,1,48,46,1673208812
61,2,1,Ticks_Pract_5,40,5,42,127,1673686540
61,2,1,Ticks_Pract_5,41,1,48,49,1673710828
61,2,1,Ticks_Pract_5,42,5,42,127,1674186084
61,2,1,Ticks_Pract_5,43,1,48,53,1674220020
61,2,1,Ticks_Pract_5,44,5,42,127,1674685704
61,2,1,Ticks_Pract_5,45,1,48,49,1674704456
61,2,1,Ticks_Pract_5,46,5,42,127,1675185620
61,2,1,Ticks_Pract_5,47,1,48,50,1675195548
61,2,1,Ticks_Pract_5,48,5,42,127,1675686512
61,2,1,Ticks_Pract_5,49,1,48,51,1675691132
61,2,1,Ticks_Pract_5,50,5,42,127,1676186056
61,2,1,Ticks_Pract_5,51,1,48,48,1676204660
61,2,1,Ticks_Pract_5,52,1,48,48,1676662976
61,2,1,Ticks_Pract_5,53,5,42,127,1676685668
61,2,1,Ticks_Pract_5,54,1,48,44,1677170896
61,2,1,Ticks_Pract_5,55,5,42,127,1677186564
61,2,1,Ticks_Pract_5,56,5,42,127,1677686112
61,2,1,Ticks_Pract_5,57,1,48,48,1677698656
61,2,1,Ticks_Pract_5,58,5,42,127,1678185732
61,2,1,Ticks_Pract_5,59,1,48,47,1678186704
61,2,1,Ticks_Pract_5,60,1,48,51,1678681872
61,2,1,Ticks_Pract_5,61,5,42,127,1678685572
61,2,1,Ticks_Pract_5,62,1,48,53,1679183584
61,2,1,Ticks_Pract_5,63,5,42,127,1679186536
61,2,1,Ticks_Pract_5,64,1,48,52,1679678796
61,2,1,Ticks_Pract_5,65,5,42,127,1679685932
61,2,1,Ticks_Pract_5,66,5,42,127,1680185636
61,2,1,Ticks_Pract_5,67,1,48,45,1680196232
61,2,1,Ticks_Pract_5,68,5,42,127,1680685328
61,2,1,Ticks_Pract_5,69,1,48,52,1680693756
61,2,1,Ticks_Pract_5,70,5,42,127,1681186368
61,2,1,Ticks_Pract_5,71,1,48,41,1681187264
61,2,1,Ticks_Pract_5,72,5,42,127,1681685812
61,2,1,Ticks_Pract_5,73,1,48,55,1681691028
61,2,1,Ticks_Pract_5,74,5,42,127,1682185508
61,2,1,Ticks_Pract_5,75,1,48,58,1682196252
61,2,1,Ticks_Pract_5,76,1,48,54,1682676332
61,2,1,Ticks_Pract_5,0,9999,9999,9999,1662683212
61,2,1,Ticks_Pract_5,1,9999,9999,9999,1663183972
61,2,1,Ticks_Pract_5,2,9999,9999,9999,1663683692
61,2,1,Ticks_Pract_5,3,9999,9999,9999,1664183408
61,2,1,Ticks_Pract_5,4,9999,9999,9999,1664683124
61,2,1,Ticks_Pract_5,5,9999,9999,9999,1665183856
61,2,1,Ticks_Pract_5,6,9999,9999,9999,1665683556
61,2,1,Ticks_Pract_5,7,9999,9999,9999,1666183252
61,2,1,Ticks_Pract_5,8,9999,9999,9999,1666683988
61,2,1,Ticks_Pract_5,9,9999,9999,9999,1667183684
61,2,1,Ticks_Pract_5,10,9999,9999,9999,1667683384
61,2,1,Ticks_Pract_5,11,9999,9999,9999,1668183156
61,2,1,Ticks_Pract_5,12,9999,9999,9999,1668683860
61,2,1,Ticks_Pract_5,13,9999,9999,9999,1669183592
61,2,1,Ticks_Pract_5,14,9999,9999,9999,1669683284
61,2,1,Ticks_Pract_5,15,9999,9999,9999,1670184024
61,2,1,Ticks_Pract_5,16,9999,9999,9999,1670683764
61,2,1,Ticks_Pract_5,17,9999,9999,9999,1671183460
61,2,1,Ticks_Pract_5,18,9999,9999,9999,1671683160
61,2,1,Ticks_Pract_5,19,9999,9999,9999,1672183900
61,2,1,Ticks_Pract_5,20,9999,9999,9999,1672683596
61,2,1,Ticks_Pract_5,21,9999,9999,9999,1673183288
61,2,1,Ticks_Pract_5,22,9999,9999,9999,1673684028
61,2,1,Ticks_Pract_5,23,9999,9999,9999,1674183796
61,2,1,Ticks_Pract_5,24,9999,9999,9999,1674683492
61,2,1,Ticks_Pract_5,25,9999,9999,9999,1675183188
61,2,1,Ticks_Pract_5,26,9999,9999,9999,1675683928
61,2,1,Ticks_Pract_5,27,9999,9999,9999,1676183624
61,2,1,Ticks_Pract_5,28,9999,9999,9999,1676683384
61,2,1,Ticks_Pract_5,29,9999,9999,9999,1677184052
61,2,1,Ticks_Pract_5,30,9999,9999,9999,1677683824
61,2,1,Ticks_Pract_5,31,9999,9999,9999,1678183520
61,2,1,Ticks_Pract_5,32,9999,9999,9999,1678683212
61,2,1,Ticks_Pract_5,33,9999,9999,9999,1679183952
61,2,1,Ticks_Pract_5,34,9999,9999,9999,1679683648
61,2,1,Ticks_Pract_5,35,9999,9999,9999,1680183348
61,2,1,Ticks_Pract_5,36,9999,9999,9999,1680683116
61,2,1,Ticks_Pract_5,37,9999,9999,9999,1681183860
61,2,1,Ticks_Pract_5,38,9999,9999,9999,1681683528
61,2,1,Ticks_Pract_5,39,9999,9999,9999,1682183220
61,3,0,Ticks_Pract_8,0,5,42,127,1715288616
61,3,0,Ticks_Pract_8,1,5,42,127,1716089416
61,3,0,Ticks_Pract_8,2,5,42,127,1716888800
61,3,0,Ticks_Pract_8,3,5,42,127,1717688632
61,3,0,Ticks_Pract_8,4,5,42,127,1718488460
61,3,0,Ticks_Pract_8,5,1,48,47,1718532940
61,3,0,Ticks_Pract_8,6,5,42,127,1719289464
61,3,0,Ticks_Pract_8,7,1,48,47,1719349828
61,3,0,Ticks_Pract_8,8,5,42,127,1720088900
61,3,0,Ticks_Pract_8,9,1,48,44,1720114704
61,3,0,Ticks_Pract_8,10,5,42,127,1720888660
61,3,0,Ticks_Pract_8,11,1,48,50,1720891324
61,3,0,Ticks_Pract_8,12,5,42,127,1721688392
61,3,0,Ticks_Pract_8,13,1,48,41,1721702804
61,3,0,Ticks_Pract_8,14,5,42,127,1722489544
61,3,0,Ticks_Pract_8,15,1,48,41,1722494828
61,3,0,Ticks_Pract_8,16,5,42,127,1723288904
61,3,0,Ticks_Pract_8,17,1,48,44,1723297860
61,3,0,Ticks_Pract_8,18,1,48,43,1724066008
61,3,0,Ticks_Pract_8,19,5,42,127,1724088556
61,3,0,Ticks_Pract_8,20,5,42,127,1724888448
61,3,0,Ticks_Pract_8,21,1,48,41,1724926272
61,3,0,Ticks_Pract_8,22,5,42,127,1725689300
61,3,0,Ticks_Pract_8,23,1,48,43,1725715684
61,3,0,Ticks_Pract_8,24,5,42,127,1726488884
61,3,0,Ticks_Pract_8,25,1,48,43,1726546628
61,3,0,Ticks_Pract_8,26,5,42,127,1727288568
61,3,0,Ticks_Pract_8,27,1,48,40,1727301184
61,3,0,Ticks_Pract_8,28,1,48,38,1728080852
61,3,0,Ticks_Pract_8,29,5,42,127,1728088372
61,3,0,Ticks_Pract_8,30,1,48,39,1728887340
61,3,0,Ticks_Pract_8,31,5,42,127,1728889152
61,3,0,Ticks_Pract_8,32,1,48,34,1729674340
61,3,0,Ticks_Pract_8,33,5,42,127,1729688808
61,3,0,Ticks_Pract_8,34,1,48,46,1730468164
61,3,0,Ticks_Pract_8,35,5,42,127,1730488616
61,3,0,Ticks_Pract_8,36,1,48,39,1731284352
61,3,0,Ticks_Pract_8,37,5,42,127,1731288500
61,3,0,Ticks_Pract_8,38,5,42,127,1732089212
61,3,0,Ticks_Pract_8,39,1,48,38,1732099732
61,3,0,Ticks_Pract_8,40,5,42,127,1732889092
61,3,0,Ticks_Pract_8,41,1,48,43,1732945712
61,3,0,Ticks_Pract_8,42,5,42,127,1733688704
61,3,0,Ticks_Pract_8,43,1,48,43,1733702668
61,3,0,Ticks_Pract_8,44,5,42,127,1734488360
61,3,0,Ticks_Pract_8,45,1,48,45,1734491184
61,3,0,Ticks_Pract_8,46,1,48,45,1735275936
61,3,0,Ticks_Pract_8,47,5,42,127,1735289284
61,3,0,Ticks_Pract_8,48,5,42,127,1736089024
61,3,0,Ticks_Pract_8,49,1,48,40,1736112192
61,3,0,Ticks_Pract_8,50,5,42,127,1736888756
61,3,0,Ticks_Pract_8,51,1,48,46,1736892024
61,3,0,Ticks_Pract_8,52,1,48,41,1737680520
61,3,0,Ticks_Pract_8,53,5,42,127,1737688488
61,3,0,Ticks_Pract_8,54,1,48,48,1738481680
61,3,0,Ticks_Pract_8,55,5,42,127,1738489116
61,3,0,Ticks_Pract_8,0,9999,9999,9999,1715286104
61,3,0,Ticks_Pract_8,1,9999,9999,9999,1716086904
61,3,0,Ticks_Pract_8,2,9999,9999,9999,1716886588
61,3,0,Ticks_Pract_8,3,9999,9999,9999,1717686344
61,3,0,Ticks_Pract_8,4,9999,9999,9999,1718486100
61,3,0,Ticks_Pract_8,5,9999,9999,9999,1719286880
61,3,0,Ticks_Pract_8,6,9999,9999,9999,1720086612
61,3,0,Ticks_Pract_8,7,9999,9999,9999,1720886372
61,3,0,Ticks_Pract_8,8,9999,9999,9999,1721686104
61,3,0,Ticks_Pract_8,9,9999,9999,9999,1722486884
61,3,0,Ticks_Pract_8,10,9999,9999,9999,1723286616
61,3,0,Ticks_Pract_8,11,9999,9999,9999,1724086344
61,3,0,Ticks_Pract_8,12,9999,9999,9999,1724886084
61,3,0,Ticks_Pract_8,13,9999,9999,9999,1725686864
61,3,0,Ticks_Pract_8,14,9999,9999,9999,1726486596
61,3,0,Ticks_Pract_8,15,9999,9999,9999,1727286356
61,3,0,Ticks_Pract_8,16,9999,9999,9999,1728086084
61,3,0,Ticks_Pract_8,17,9999,9999,9999,1728886888
61,3,0,Ticks_Pract_8,18,9999,9999,9999,1729686596
61,3,0,Ticks_Pract_8,19,9999,9999,9999,1730486328
61,3,0,Ticks_Pract_8,20,9999,9999,9999,1731286136
61,3,0,Ticks_Pract_8,21,9999,9999,9999,1732086848
61,3,0,Ticks_Pract_8,22,9999,9999,9999,1732886580
61,3,0,Ticks_Pract_8,23,9999,9999,9999,1733686340
61,3,0,Ticks_Pract_8,24,9999,9999,9999,1734486072
61,3,0,Ticks_Pract_8,25,9999,9999,9999,1735286848
61,3,0,Ticks_Pract_8,26,9999,9999,9999,1736086588
61,3,0,Ticks_Pract_8,27,9999,9999,9999,1736886396
61,3,0,Ticks_Pract_8,28,9999,9999,9999,1737686124
61,3,0,Ticks_Pract_8,29,9999,9999,9999,1738486904
61,4,4,T1_SMS_5,0,5,42,127,1840739780
61,4,4,T1_SMS_5,1,5,42,127,1841240544
61,4,4,T1_SMS_5,2,5,42,127,1841740040
61,4,4,T1_SMS_5,3,5,42,127,1842239832
61,4,4,T1_SMS_5,4,1,48,50,1842732548
61,4,4,T1_SMS_5,5,5,42,127,1842739836
61,4,4,T1_SMS_5,6,1,48,51,1843211352
61,4,4,T1_SMS_5,7,5,42,127,1843240432
61,4,4,T1_SMS_5,8,1,48,54,1843711568
61,4,4,T1_SMS_5,9,5,42,127,1843739976
61,4,4,T1_SMS_5,10,1,48,50,1844235944
61,4,4,T1_SMS_5,11,5,42,127,1844239648
61,4,4,T1_SMS_5,12,1,48,52,1844722624
61,4,4,T1_SMS_5,13,5,42,127,1844739712
61,4,4,T1_SMS_5,14,1,48,47,1845206392
61,4,4,T1_SMS_5,15,5,42,127,1845240156
61,4,4,T1_SMS_5,16,1,48,54,1845727480
61,4,4,T1_SMS_5,17,5,42,127,1845739852
61,4,4,T1_SMS_5,18,1,48,52,1846233232
61,4,4,T1_SMS_5,19,5,42,127,1846239768
61,4,4,T1_SMS_5,20,5,42,127,1846740296
61,4,4,T1_SMS_5,21,1,48,49,1846754412
61,4,4,T1_SMS_5,22,5,42,127,1847239916
61,4,4,T1_SMS_5,23,1,48,43,1847246620
61,4,4,T1_SMS_5,24,5,42,127,1847739760
61,4,4,T1_SMS_5,25,1,48,52,1847759780
61,4,4,T1_SMS_5,26,5,42,127,1848239604
61,4,4,T1_SMS_5,27,1,48,46,1848272268
61,4,4,T1_SMS_5,28,5,42,127,1848740344
61,4,4,T1_SMS_5,29,1,48,59,1848794624
61,4,4,T1_SMS_5,30,5,42,127,1849239892
61,4,4,T1_SMS_5,31,1,48,42,1849256320
61,4,4,T1_SMS_5,32,5,42,127,1849739588
61,4,4,T1_SMS_5,33,1,48,52,1849798500
61,4,4,T1_SMS_5,34,5,42,127,1850240476
61,4,4,T1_SMS_5,35,1,48,40,1850244564
61,4,4,T1_SMS_5,36,1,48,44,1850737976
61,4,4,T1_SMS_5,37,5,42,127,1850740016
61,4,4,T1_SMS_5,38,5,42,127,1851239716
61,4,4,T1_SMS_5,39,1,48,48,1851242836
61,4,4,T1_SMS_5,40,5,42,127,1851739560
61,4,4,T1_SMS_5,41,1,48,40,1851754268
61,4,4,T1_SMS_5,42,1,48,45,1852238948
61,4,4,T1_SMS_5,43,5,42,127,1852240520
61,4,4,T1_SMS_5,44,5,42,127,1852739924
61,4,4,T1_SMS_5,45,1,48,46,1852743940
61,4,4,T1_SMS_5,46,1,48,42,1853227312
61,4,4,T1_SMS_5,47,5,42,127,1853239612
61,4,4,T1_SMS_5,48,1,48,47,1853733660
61,4,4,T1_SMS_5,49,5,42,127,1853740356
61,4,4,T1_SMS_5,50,1,48,46,1854227272
61,4,4,T1_SMS_5,51,5,42,127,1854240272
61,4,4,T1_SMS_5,52,5,42,127,1854739800
61,4,4,T1_SMS_5,53,1,48,51,1854743016
61,4,4,T1_SMS_5,54,1,48,47,1855195172
61,4,4,T1_SMS_5,55,5,42,127,1855239412
61,4,4,T1_SMS_5,56,1,48,45,1855712596
61,4,4,T1_SMS_5,57,5,42,127,1855740376
61,4,4,T1_SMS_5,58,1,48,41,1856228376
61,4,4,T1_SMS_5,59,5,42,127,1856239852
61,4,4,T1_SMS_5,60,1,48,43,1856737508
61,4,4,T1_SMS_5,61,5,42,127,1856739620
61,4,4,T1_SMS_5,62,5,42,127,1857240296
61,4,4,T1_SMS_5,63,1,48,47,1857254332
61,4,4,T1_SMS_5,64,1,48,44,1857738936
61,4,4,T1_SMS_5,65,5,42,127,1857740356
61,4,4,T1_SMS_5,66,5,42,127,1858240060
61,4,4,T1_SMS_5,67,1,48,49,1858256864
61,4,4,T1_SMS_5,68,5,42,127,1858739456
61,4,4,T1_SMS_5,69,1,48,47,1858754620
61,4,4,T1_SMS_5,70,1,48,43,1859240344
61,4,4,T1_SMS_5,71,5,42,127,1859241756
61,4,4,T1_SMS_5,72,5,42,127,1859739968
61,4,4,T1_SMS_5,73,1,48,51,1859758792
61,4,4,T1_SMS_5,74,1,48,47,1860221520
61,4,4,T1_SMS_5,75,5,42,127,1860239804
61,4,4,T1_SMS_5,76,5,42,127,1860739356
61,4,4,T1_SMS_5,77,1,48,50,1860757136
61,4,4,T1_SMS_5,78,5,42,127,1861240172
61,4,4,T1_SMS_5,79,1,48,44,1861258172
61,4,4,T1_SMS_5,80,5,42,127,1861740016
61,4,4,T1_SMS_5,81,1,48,48,1861765796
61,4,4,T1_SMS_5,82,5,42,127,1862239560
61,4,4,T1_SMS_5,83,1,48,44,1862258016
61,4,4,T1_SMS_5,84,5,42,127,1862740304
61,4,4,T1_SMS_5,85,1,48,46,1862744544
61,4,4,T1_SMS_5,86,5,42,127,1863240296
61,4,4,T1_SMS_5,87,1,48,44,1863252836
61,4,4,T1_SMS_5,88,5,42,127,1863739620
61,4,4,T1_SMS_5,89,1,48,47,1863769064
61,4,4,T1_SMS_5,90,1,48,42,1864237028
61,4,4,T1_SMS_5,91,5,42,127,1864239532
61,4,4,T1_SMS_5,92,5,42,127,1864740276
61,4,4,T1_SMS_5,93,1,48,48,1864746612
61,4,4,T1_SMS_5,94,5,42,127,1865240196
61,4,4,T1_SMS_5,95,1,48,39,1865256032
61,4,4,T1_SMS_5,96,1,48,43,1865719484
61,4,4,T1_SMS_5,97,5,42,127,1865739564
61,4,4,T1_SMS_5,98,1,48,50,1866235632
61,4,4,T1_SMS_5,99,5,42,127,1866240380
61,4,4,T1_SMS_5,100,5,42,127,1866740232
61,4,4,T1_SMS_5,101,1,48,46,1866760104
61,4,4,T1_SMS_5,102,5,42,127,1867240148
61,4,4,T1_SMS_5,103,1,48,45,1867261520
61,4,4,T1_SMS_5,104,1,48,42,1867737352
61,4,4,T1_SMS_5,105,5,42,127,1867739392
61,4,4,T1_SMS_5,106,5,42,127,1868240140
61,4,4,T1_SMS_5,107,1,48,46,1868241104
61,4,4,T1_SMS_5,108,1,48,50,1868729920
61,4,4,T1_SMS_5,109,5,42,127,1868740200
61,4,4,T1_SMS_5,110,5,42,127,1869239528
61,4,4,T1_SMS_5,111,1,48,49,1869251024
61,4,4,T1_SMS_5,112,1,48,51,1869735068
61,4,4,T1_SMS_5,113,5,42,127,1869740340
61,4,4,T1_SMS_5,114,5,42,127,1870240188
61,4,4,T1_SMS_5,115,1,48,48,1870242556
61,4,4,T1_SMS_5,116,1,48,50,1870726456
61,4,4,T1_SMS_5,117,5,42,127,1870740024
61,4,4,T1_SMS_5,118,5,42,127,1871239576
61,4,4,T1_SMS_5,119,1,48,44,1871240692
61,4,4,T1_SMS_5,120,1,48,47,1871734896
61,4,4,T1_SMS_5,121,5,42,127,1871740312
61,4,4,T1_SMS_5,122,1,48,50,1872223968
61,4,4,T1_SMS_5,123,5,42,127,1872240308
61,4,4,T1_SMS_5,124,5,42,127,1872740084
61,4,4,T1_SMS_5,125,1,48,55,1872753524
61,4,4,T1_SMS_5,126,1,48,48,1873214980
61,4,4,T1_SMS_5,127,5,42,127,1873240300
61,4,4,T1_SMS_5,128,1,48,50,1873739396
61,4,4,T1_SMS_5,129,5,42,127,1873741040
61,4,4,T1_SMS_5,130,5,42,127,1874240140
61,4,4,T1_SMS_5,131,1,48,49,1874241404
61,4,4,T1_SMS_5,132,1,48,51,1874730820
61,4,4,T1_SMS_5,133,5,42,127,1874739532
61,4,4,T1_SMS_5,134,1,48,48,1875224980
61,4,4,T1_SMS_5,135,5,42,127,1875240276
61,4,4,T1_SMS_5,136,5,42,127,1875740052
61,4,4,T1_SMS_5,137,1,48,46,1875761572
61,4,4,T1_SMS_5,138,5,42,127,1876239868
61,4,4,T1_SMS_5,139,1,48,47,1876247580
61,4,4,T1_SMS_5,140,1,48,43,1876739860
61,4,4,T1_SMS_5,141,5,42,127,1876741048
61,4,4,T1_SMS_5,142,5,42,127,1877240084
61,4,4,T1_SMS_5,143,1,48,49,1877255912
61,4,4,T1_SMS_5,144,1,48,50,1877739776
61,4,4,T1_SMS_5,145,5,42,127,1877741116
61,4,4,T1_SMS_5,146,5,42,127,1878239548
61,4,4,T1_SMS_5,147,1,48,46,1878256728
61,4,4,T1_SMS_5,148,5,42,127,1878740364
61,4,4,T1_SMS_5,149,1,48,49,1878744604
61,4,4,T1_SMS_5,150,1,48,46,1879234704
61,4,4,T1_SMS_5,151,5,42,127,1879239900
61,4,4,T1_SMS_5,152,5,42,127,1879739828
61,4,4,T1_SMS_5,153,1,48,51,1879761716
61,4,4,T1_SMS_5,154,5,42,127,1880239372
61,4,4,T1_SMS_5,155,1,48,48,1880265228
61,4,4,T1_SMS_5,156,1,48,46,1880739432
61,4,4,T1_SMS_5,157,5,42,127,1880740848
61,4,4,T1_SMS_5,158,5,42,127,1881240032
61,4,4,T1_SMS_5,159,1,48,47,1881259832
61,4,4,T1_SMS_5,160,5,42,127,1881739584
61,4,4,T1_SMS_5,161,1,48,36,1881765512
61,4,4,T1_SMS_5,162,1,48,41,1882236836
61,4,4,T1_SMS_5,163,5,42,127,1882240616
61,4,4,T1_SMS_5,164,1,48,54,1882728232
61,4,4,T1_SMS_5,165,5,42,127,1882740012
61,4,4,T1_SMS_5,166,1,48,47,1883235108
61,4,4,T1_SMS_5,167,5,42,127,1883239780
61,4,4,T1_SMS_5,168,5,42,127,1883739556
61,4,4,T1_SMS_5,169,1,48,49,1883756360
61,4,4,T1_SMS_5,170,1,48,44,1884214304
61,4,4,T1_SMS_5,171,5,42,127,1884240144
61,4,4,T1_SMS_5,172,5,42,127,1884739844
61,4,4,T1_SMS_5,173,1,48,52,1884764124
61,4,4,T1_SMS_5,174,5,42,127,1885239612
61,4,4,T1_SMS_5,175,1,48,41,1885247744
61,4,4,T1_SMS_5,176,1,48,44,1885707904
61,4,4,T1_SMS_5,177,5,42,127,1885740348
61,4,4,T1_SMS_5,178,1,48,50,1886227744
61,4,4,T1_SMS_5,179,5,42,127,1886239968
61,4,4,T1_SMS_5,180,1,48,54,1886739672
61,4,4,T1_SMS_5,181,5,42,127,1886740932
61,4,4,T1_SMS_5,182,1,48,49,1887229200
61,4,4,T1_SMS_5,183,5,42,127,1887239628
61,4,4,T1_SMS_5,184,5,42,127,1887740304
61,4,4,T1_SMS_5,185,1,48,55,1887741644
61,4,4,T1_SMS_5,186,1,48,52,1888224996
61,4,4,T1_SMS_5,187,5,42,127,1888239844
61,4,4,T1_SMS_5,188,5,42,127,1888739548
61,4,4,T1_SMS_5,189,1,48,54,1888779540
61,4,4,T1_SMS_5,190,5,42,127,1889240660
61,4,4,T1_SMS_5,191,1,48,45,1889242956
61,4,4,T1_SMS_5,192,1,48,42,1889731716
61,4,4,T1_SMS_5,193,5,42,127,1889740276
61,4,4,T1_SMS_5,194,1,48,47,1890239528
61,4,4,T1_SMS_5,195,5,42,127,1890241016
61,4,4,T1_SMS_5,196,5,42,127,1890739672
61,4,4,T1_SMS_5,197,1,48,48,1890755500
61,4,4,T1_SMS_5,198,1,48,48,1891239884
61,4,4,T1_SMS_5,199,5,42,127,1891241452
61,4,4,T1_SMS_5,200,5,42,127,1891739884
61,4,4,T1_SMS_5,201,1,48,51,1891756764
61,4,4,T1_SMS_5,202,1,48,47,1892238900
61,4,4,T1_SMS_5,203,5,42,127,1892240544
61,4,4,T1_SMS_5,204,1,48,48,1892735640
61,4,4,T1_SMS_5,205,5,42,127,1892739416
61,4,4,T1_SMS_5,206,1,48,50,1893225912
61,4,4,T1_SMS_5,207,5,42,127,1893240084
61,4,4,T1_SMS_5,208,5,42,127,1893739864
61,4,4,T1_SMS_5,209,1,48,48,1893768564
61,4,4,T1_SMS_5,210,5,42,127,1894239556
61,4,4,T1_SMS_5,211,1,48,51,1894249632
61,4,4,T1_SMS_5,212,5,42,127,1894740520
61,4,4,T1_SMS_5,213,1,48,52,1894745056
61,4,4,T1_SMS_5,214,5,42,127,1895239916
61,4,4,T1_SMS_5,215,1,48,46,1895245056
61,4,4,T1_SMS_5,216,1,48,51,1895735828
61,4,4,T1_SMS_5,217,5,42,127,1895739756
61,4,4,T1_SMS_5,218,1,48,51,1896227524
61,4,4,T1_SMS_5,219,5,42,127,1896239528
61,4,4,T1_SMS_5,220,1,48,50,1896733500
61,4,4,T1_SMS_5,221,5,42,127,1896740192
61,4,4,T1_SMS_5,222,5,42,127,1897239896
61,4,4,T1_SMS_5,223,1,48,49,1897262536
61,4,4,T1_SMS_5,224,5,42,127,1897739564
61,4,4,T1_SMS_5,225,1,48,47,1897742308
61,4,4,T1_SMS_5,226,5,42,127,1898240604
61,4,4,T1_SMS_5,227,1,48,48,1898254192
61,4,4,T1_SMS_5,228,5,42,127,1898740004
61,4,4,T1_SMS_5,229,1,48,50,1898746632
61,4,4,T1_SMS_5,230,5,42,127,1899239696
61,4,4,T1_SMS_5,231,1,48,45,1899241032
61,4,4,T1_SMS_5,232,1,48,47,1899730976
61,4,4,T1_SMS_5,233,5,42,127,1899739388
61,4,4,T1_SMS_5,234,5,42,127,1900240504
61,4,4,T1_SMS_5,235,1,48,48,1900247144
61,4,4,T1_SMS_5,236,5,42,127,1900739976
61,4,4,T1_SMS_5,237,1,48,47,1900752740
61,4,4,T1_SMS_5,238,5,42,127,1901239600
61,4,4,T1_SMS_5,239,1,48,43,1901251464
61,4,4,T1_SMS_5,240,1,48,49,1901732444
61,4,4,T1_SMS_5,241,5,42,127,1901740480
61,4,4,T1_SMS_5,242,1,48,52,1902214336
61,4,4,T1_SMS_5,243,5,42,127,1902240400
61,4,4,T1_SMS_5,244,1,48,52,1902724428
61,4,4,T1_SMS_5,245,5,42,127,1902739796
61,4,4,T1_SMS_5,246,1,48,51,1903225244
61,4,4,T1_SMS_5,247,5,42,127,1903239492
61,4,4,T1_SMS_5,248,5,42,127,1903740388
61,4,4,T1_SMS_5,249,1,48,51,1903742832
61,4,4,T1_SMS_5,250,1,48,47,1904230472
61,4,4,T1_SMS_5,251,5,42,127,1904240076
61,4,4,T1_SMS_5,252,1,48,51,1904730612
61,4,4,T1_SMS_5,253,5,42,127,1904739772
61,4,4,T1_SMS_5,254,1,48,55,1905239544
61,4,4,T1_SMS_5,255,5,42,127,1905241036
61,4,4,T1_SMS_5,0,9999,9999,9999,1840737344
61,4,4,T1_SMS_5,1,9999,9999,9999,1841238108
61,4,4,T1_SMS_5,2,9999,9999,9999,1841737828
61,4,4,T1_SMS_5,3,9999,9999,9999,1842237544
61,4,4,T1_SMS_5,4,9999,9999,9999,1842737256
61,4,4,T1_SMS_5,5,9999,9999,9999,1843237996
61,4,4,T1_SMS_5,6,9999,9999,9999,1843737692
61,4,4,T1_SMS_5,7,9999,9999,9999,1844237360
61,4,4,T1_SMS_5,8,9999,9999,9999,1844737128
61,4,4,T1_SMS_5,9,9999,9999,9999,1845237872
61,4,4,T1_SMS_5,10,9999,9999,9999,1845737568
61,4,4,T1_SMS_5,11,9999,9999,9999,1846237260
61,4,4,T1_SMS_5,12,9999,9999,9999,1846738008
61,4,4,T1_SMS_5,13,9999,9999,9999,1847237704
61,4,4,T1_SMS_5,14,9999,9999,9999,1847737400
61,4,4,T1_SMS_5,15,9999,9999,9999,1848237168
61,4,4,T1_SMS_5,16,9999,9999,9999,1848737908
61,4,4,T1_SMS_5,17,9999,9999,9999,1849237604
61,4,4,T1_SMS_5,18,9999,9999,9999,1849737300
61,4,4,T1_SMS_5,19,9999,9999,9999,1850238040
61,4,4,T1_SMS_5,20,9999,9999,9999,1850737768
61,4,4,T1_SMS_5,21,9999,9999,9999,1851237428
61,4,4,T1_SMS_5,22,9999,9999,9999,1851737200
61,4,4,T1_SMS_5,23,9999,9999,9999,1852237940
61,4,4,T1_SMS_5,24,9999,9999,9999,1852737636
61,4,4,T1_SMS_5,25,9999,9999,9999,1853237324
61,4,4,T1_SMS_5,26,9999,9999,9999,1853738068
61,4,4,T1_SMS_5,27,9999,9999,9999,1854237764
61,4,4,T1_SMS_5,28,9999,9999,9999,1854737516
61,4,4,T1_SMS_5,29,9999,9999,9999,1855237200
61,4,4,T1_SMS_5,30,9999,9999,9999,1855737944
61,4,4,T1_SMS_5,31,9999,9999,9999,1856237640
61,4,4,T1_SMS_5,32,9999,9999,9999,1856737372
61,4,4,T1_SMS_5,33,9999,9999,9999,1857238084
61,4,4,T1_SMS_5,34,9999,9999,9999,1857737780
61,4,4,T1_SMS_5,35,9999,9999,9999,1858237552
61,4,4,T1_SMS_5,36,9999,9999,9999,1858737244
61,4,4,T1_SMS_5,37,9999,9999,9999,1859237984
61,4,4,T1_SMS_5,38,9999,9999,9999,1859737680
61,4,4,T1_SMS_5,39,9999,9999,9999,1860237368
61,4,4,T1_SMS_5,40,9999,9999,9999,1860737144
61,4,4,T1_SMS_5,41,9999,9999,9999,1861237812
61,4,4,T1_SMS_5,42,9999,9999,9999,1861737580
61,4,4,T1_SMS_5,43,9999,9999,9999,1862237276
61,4,4,T1_SMS_5,44,9999,9999,9999,1862738016
61,4,4,T1_SMS_5,45,9999,9999,9999,1863237712
61,4,4,T1_SMS_5,46,9999,9999,9999,1863737408
61,4,4,T1_SMS_5,47,9999,9999,9999,1864237168
61,4,4,T1_SMS_5,48,9999,9999,9999,1864737840
61,4,4,T1_SMS_5,49,9999,9999,9999,1865237612
61,4,4,T1_SMS_5,50,9999,9999,9999,1865737280
61,4,4,T1_SMS_5,51,9999,9999,9999,1866238020
61,4,4,T1_SMS_5,52,9999,9999,9999,1866737724
61,4,4,T1_SMS_5,53,9999,9999,9999,1867237492
61,4,4,T1_SMS_5,54,9999,9999,9999,1867737144
61,4,4,T1_SMS_5,55,9999,9999,9999,1868237928
61,4,4,T1_SMS_5,56,9999,9999,9999,1868737616
61,4,4,T1_SMS_5,57,9999,9999,9999,1869237316
61,4,4,T1_SMS_5,58,9999,9999,9999,1869738052
61,4,4,T1_SMS_5,59,9999,9999,9999,1870237752
61,4,4,T1_SMS_5,60,9999,9999,9999,1870737516
61,4,4,T1_SMS_5,61,9999,9999,9999,1871237216
61,4,4,T1_SMS_5,62,9999,9999,9999,1871737952
61,4,4,T1_SMS_5,63,9999,9999,9999,1872237648
61,4,4,T1_SMS_5,64,9999,9999,9999,1872737352
61,4,4,T1_SMS_5,65,9999,9999,9999,1873238088
61,4,4,T1_SMS_5,66,9999,9999,9999,1873737788
61,4,4,T1_SMS_5,67,9999,9999,9999,1874237556
61,4,4,T1_SMS_5,68,9999,9999,9999,1874737248
61,4,4,T1_SMS_5,69,9999,9999,9999,1875237988
61,4,4,T1_SMS_5,70,9999,9999,9999,1875737692
61,4,4,T1_SMS_5,71,9999,9999,9999,1876237360
61,4,4,T1_SMS_5,72,9999,9999,9999,1876737128
61,4,4,T1_SMS_5,73,9999,9999,9999,1877237868
61,4,4,T1_SMS_5,74,9999,9999,9999,1877737564
61,4,4,T1_SMS_5,75,9999,9999,9999,1878237260
61,4,4,T1_SMS_5,76,9999,9999,9999,1878738004
61,4,4,T1_SMS_5,77,9999,9999,9999,1879237688
61,4,4,T1_SMS_5,78,9999,9999,9999,1879737464
61,4,4,T1_SMS_5,79,9999,9999,9999,1880237160
61,4,4,T1_SMS_5,80,9999,9999,9999,1880737900
61,4,4,T1_SMS_5,81,9999,9999,9999,1881237596
61,4,4,T1_SMS_5,82,9999,9999,9999,1881737296
61,4,4,T1_SMS_5,83,9999,9999,9999,1882238028
61,4,4,T1_SMS_5,84,9999,9999,9999,1882737724
61,4,4,T1_SMS_5,85,9999,9999,9999,1883237496
61,4,4,T1_SMS_5,86,9999,9999,9999,1883737196
61,4,4,T1_SMS_5,87,9999,9999,9999,1884237932
61,4,4,T1_SMS_5,88,9999,9999,9999,1884737632
61,4,4,T1_SMS_5,89,9999,9999,9999,1885237328
61,4,4,T1_SMS_5,90,9999,9999,9999,1885738064
61,4,4,T1_SMS_5,91,9999,9999,9999,1886237756
61,4,4,T1_SMS_5,92,9999,9999,9999,1886737508
61,4,4,T1_SMS_5,93,9999,9999,9999,1887237196
61,4,4,T1_SMS_5,94,9999,9999,9999,1887737944
61,4,4,T1_SMS_5,95,9999,9999,9999,1888237632
61,4,4,T1_SMS_5,96,9999,9999,9999,1888737332
61,4,4,T1_SMS_5,97,9999,9999,9999,1889238076
61,4,4,T1_SMS_5,98,9999,9999,9999,1889737840
61,4,4,T1_SMS_5,99,9999,9999,9999,1890237540
61,4,4,T1_SMS_5,100,9999,9999,9999,1890737236
61,4,4,T1_SMS_5,101,9999,9999,9999,1891237976
61,4,4,T1_SMS_5,102,9999,9999,9999,1891737672
61,4,4,T1_SMS_5,103,9999,9999,9999,1892237368
61,4,4,T1_SMS_5,104,9999,9999,9999,1892737132
61,4,4,T1_SMS_5,105,9999,9999,9999,1893237872
61,4,4,T1_SMS_5,106,9999,9999,9999,1893737576
61,4,4,T1_SMS_5,107,9999,9999,9999,1894237268
61,4,4,T1_SMS_5,108,9999,9999,9999,1894738012
61,4,4,T1_SMS_5,109,9999,9999,9999,1895237704
61,4,4,T1_SMS_5,110,9999,9999,9999,1895737396
61,4,4,T1_SMS_5,111,9999,9999,9999,1896237168
61,4,4,T1_SMS_5,112,9999,9999,9999,1896737908
61,4,4,T1_SMS_5,113,9999,9999,9999,1897237608
61,4,4,T1_SMS_5,114,9999,9999,9999,1897737280
61,4,4,T1_SMS_5,115,9999,9999,9999,1898238020
61,4,4,T1_SMS_5,116,9999,9999,9999,1898737716
61,4,4,T1_SMS_5,117,9999,9999,9999,1899237484
61,4,4,T1_SMS_5,118,9999,9999,9999,1899737176
61,4,4,T1_SMS_5,119,9999,9999,9999,1900237924
61,4,4,T1_SMS_5,120,9999,9999,9999,1900737616
61,4,4,T1_SMS_5,121,9999,9999,9999,1901237312
61,4,4,T1_SMS_5,122,9999,9999,9999,1901738048
61,4,4,T1_SMS_5,123,9999,9999,9999,1902237816
61,4,4,T1_SMS_5,124,9999,9999,9999,1902737508
61,4,4,T1_SMS_5,125,9999,9999,9999,1903237204
61,4,4,T1_SMS_5,126,9999,9999,9999,1903737952
61,4,4,T1_SMS_5,127,9999,9999,9999,1904237640
61,4,4,T1_SMS_5,128,9999,9999,9999,1904737336
61,4,4,T1_SMS_5,129,9999,9999,9999,1905238084
61,5,2,T1_SMS_8,0,5,42,127,1962582360
61,5,2,T1_SMS_8,1,5,42,127,1963382116
61,5,2,T1_SMS_8,2,5,42,127,1964182020
61,5,2,T1_SMS_8,3,1,48,36,1964255072
61,5,2,T1_SMS_8,4,5,42,127,1964981604
61,5,2,T1_SMS_8,5,1,48,44,1965011872
61,5,2,T1_SMS_8,6,5,42,127,1965782236
61,5,2,T1_SMS_8,7,1,48,45,1965792608
61,5,2,T1_SMS_8,8,1,48,43,1966571608
61,5,2,T1_SMS_8,9,5,42,127,1966582108
61,5,2,T1_SMS_8,10,1,48,45,1967349200
61,5,2,T1_SMS_8,11,5,42,127,1967382016
61,5,2,T1_SMS_8,12,1,48,43,1968165408
61,5,2,T1_SMS_8,13,5,42,127,1968182048
61,5,2,T1_SMS_8,14,1,48,46,1968967988
61,5,2,T1_SMS_8,15,5,42,127,1968982308
61,5,2,T1_SMS_8,16,5,42,127,1969782120
61,5,2,T1_SMS_8,17,1,48,50,1969799232
61,5,2,T1_SMS_8,18,5,42,127,1970581780
61,5,2,T1_SMS_8,19,1,48,43,1970596488
61,5,2,T1_SMS_8,20,5,42,127,1971381736
61,5,2,T1_SMS_8,21,1,48,50,1971385080
61,5,2,T1_SMS_8,22,1,48,46,1972175668
61,5,2,T1_SMS_8,23,5,42,127,1972182512
61,5,2,T1_SMS_8,24,1,48,48,1972955360
61,5,2,T1_SMS_8,25,5,42,127,1972982244
61,5,2,T1_SMS_8,26,5,42,127,1973781936
61,5,2,T1_SMS_8,27,1,48,49,1973811756
61,5,2,T1_SMS_8,28,5,42,127,1974581668
61,5,2,T1_SMS_8,29,1,48,44,1974608796
61,5,2,T1_SMS_8,30,1,48,42,1975373884
61,5,2,T1_SMS_8,31,5,42,127,1975382516
61,5,2,T1_SMS_8,32,1,48,48,1976155664
61,5,2,T1_SMS_8,33,5,42,127,1976182028
61,5,2,T1_SMS_8,34,5,42,127,1976981988
61,5,2,T1_SMS_8,35,1,48,46,1977005900
61,5,2,T1_SMS_8,36,1,48,44,1977765724
61,5,2,T1_SMS_8,37,5,42,127,1977781692
61,5,2,T1_SMS_8,38,1,48,45,1978579152
61,5,2,T1_SMS_8,39,5,42,127,1978582772
61,5,2,T1_SMS_8,40,5,42,127,1979382216
61,5,2,T1_SMS_8,41,1,48,47,1979406532
61,5,2,T1_SMS_8,42,5,42,127,1980181824
61,5,2,T1_SMS_8,43,1,48,49,1980209848
61,5,2,T1_SMS_8,44,5,42,127,1980981632
61,5,2,T1_SMS_8,45,1,48,42,1980999036
61,5,2,T1_SMS_8,46,1,48,47,1981782636
61,5,2,T1_SMS_8,47,5,42,127,1981783896
61,5,2,T1_SMS_8,48,5,42,127,1982582068
61,5,2,T1_SMS_8,49,1,48,38,1982592144
61,5,2,T1_SMS_8,50,5,42,127,1983381876
61,5,2,T1_SMS_8,51,1,48,43,1983392400
61,5,2,T1_SMS_8,52,1,48,46,1984142600
61,5,2,T1_SMS_8,53,5,42,127,1984181676
61,5,2,T1_SMS_8,54,1,48,43,1984973448
61,5,2,T1_SMS_8,55,5,42,127,1984982608
61,5,2,T1_SMS_8,56,5,42,127,1985781976
61,5,2,T1_SMS_8,57,1,48,29,1985809432
61,5,2,T1_SMS_8,58,1,48,44,1986577508
61,5,2,T1_SMS_8,59,5,42,127,1986581800
61,5,2,T1_SMS_8,60,1,48,53,1987373644
61,5,2,T1_SMS_8,61,5,42,127,1987381608
61,5,2,T1_SMS_8,62,5,42,127,1988182472
61,5,2,T1_SMS_8,63,1,48,45,1988205184
61,5,2,T1_SMS_8,64,5,42,127,1988982204
61,5,2,T1_SMS_8,65,1,48,47,1989045012
61,5,2,T1_SMS_8,66,5,42,127,1989781788
61,5,2,T1_SMS_8,67,1,48,43,1989828516
61,5,2,T1_SMS_8,68,5,42,127,1990581672
61,5,2,T1_SMS_8,69,1,48,44,1990601320
61,5,2,T1_SMS_8,70,5,42,127,1991382380
61,5,2,T1_SMS_8,71,1,48,39,1991402400
61,5,2,T1_SMS_8,72,1,48,50,1992178552
61,5,2,T1_SMS_8,73,5,42,127,1992182400
61,5,2,T1_SMS_8,74,1,48,46,1992979212
61,5,2,T1_SMS_8,75,5,42,127,1992981936
61,5,2,T1_SMS_8,76,5,42,127,1993781604
61,5,2,T1_SMS_8,77,1,48,47,1993797140
61,5,2,T1_SMS_8,78,5,42,127,1994582236
61,5,2,T1_SMS_8,79,1,48,46,1994617072
61,5,2,T1_SMS_8,80,5,42,127,1995382192
61,5,2,T1_SMS_8,81,1,48,43,1995401988
61,5,2,T1_SMS_8,82,5,42,127,1996182000
61,5,2,T1_SMS_8,83,1,48,38,1996203816
61,5,2,T1_SMS_8,84,1,48,39,1996972644
61,5,2,T1_SMS_8,85,5,42,127,1996981652
61,5,2,T1_SMS_8,86,5,42,127,1997782292
61,5,2,T1_SMS_8,87,1,48,45,1997803284
61,5,2,T1_SMS_8,88,5,42,127,1998582320
61,5,2,T1_SMS_8,89,1,48,43,1998633336
61,5,2,T1_SMS_8,90,5,42,127,1999381856
61,5,2,T1_SMS_8,91,1,48,38,1999417960
61,5,2,T1_SMS_8,92,5,42,127,2000181516
61,5,2,T1_SMS_8,93,1,48,43,2000189268
61,5,2,T1_SMS_8,94,5,42,127,2000982368
61,5,2,T1_SMS_8,95,1,48,44,2000992668
61,5,2,T1_SMS_8,96,1,48,41,2001775476
61,5,2,T1_SMS_8,97,5,42,127,2001782244
61,5,2,T1_SMS_8,98,5,42,127,2002581984
61,5,2,T1_SMS_8,99,1,48,46,2002594080
61,5,2,T1_SMS_8,100,5,42,127,2003381720
61,5,2,T1_SMS_8,101,1,48,40,2003391048
61,5,2,T1_SMS_8,102,5,42,127,2004182276
61,5,2,T1_SMS_8,103,1,48,44,2004189508
61,5,2,T1_SMS_8,104,1,48,46,2004951824
61,5,2,T1_SMS_8,105,5,42,127,2004982076
61,5,2,T1_SMS_8,106,1,48,43,2005749464
61,5,2,T1_SMS_8,107,5,42,127,2005781984
61,5,2,T1_SMS_8,108,1,48,47,2006555352
61,5,2,T1_SMS_8,109,5,42,127,2006581568
61,5,2,T1_SMS_8,110,5,42,127,2007382280
61,5,2,T1_SMS_8,111,1,48,46,2007396548
61,5,2,T1_SMS_8,112,5,42,127,2008182088
61,5,2,T1_SMS_8,113,1,48,46,2008184908
61,5,2,T1_SMS_8,114,1,48,44,2008967120
61,5,2,T1_SMS_8,115,5,42,127,2008981964
61,5,2,T1_SMS_8,116,1,48,48,2009740824
61,5,2,T1_SMS_8,117,5,42,127,2009781476
61,5,2,T1_SMS_8,118,5,42,127,2010582336
61,5,2,T1_SMS_8,119,1,48,34,2010605800
61,5,2,T1_SMS_8,120,5,42,127,2011382144
61,5,2,T1_SMS_8,121,1,48,38,2011396932
61,5,2,T1_SMS_8,122,1,48,42,2012181376
61,5,2,T1_SMS_8,123,5,42,127,2012182868
61,5,2,T1_SMS_8,124,1,48,44,2012969108
61,5,2,T1_SMS_8,125,5,42,127,2012981552
61,5,2,T1_SMS_8,126,1,48,45,2013768464
61,5,2,T1_SMS_8,127,5,42,127,2013782408
61,5,2,T1_SMS_8,128,5,42,127,2014582072
61,5,2,T1_SMS_8,129,1,48,43,2014603664
61,5,2,T1_SMS_8,130,5,42,127,2015381956
61,5,2,T1_SMS_8,131,1,48,44,2015399288
61,5,2,T1_SMS_8,132,1,48,44,2016166388
61,5,2,T1_SMS_8,133,5,42,127,2016181680
61,5,2,T1_SMS_8,134,5,42,127,2016982244
61,5,2,T1_SMS_8,135,1,48,42,2017032932
61,5,2,T1_SMS_8,136,5,42,127,2017782128
61,5,2,T1_SMS_8,137,1,48,30,2017805620
61,5,2,T1_SMS_8,138,5,42,127,2018582036
61,5,2,T1_SMS_8,139,1,48,40,2018588372
61,5,2,T1_SMS_8,140,5,42,127,2019381768
61,5,2,T1_SMS_8,141,1,48,39,2019391096
61,5,2,T1_SMS_8,142,5,42,127,2020182252
61,5,2,T1_SMS_8,143,1,48,35,2020217828
61,5,2,T1_SMS_8,144,5,42,127,2020982060
61,5,2,T1_SMS_8,145,1,48,39,2021013976
61,5,2,T1_SMS_8,146,5,42,127,2021782016
61,5,2,T1_SMS_8,147,1,48,40,2021785212
61,5,2,T1_SMS_8,148,5,42,127,2022581752
61,5,2,T1_SMS_8,149,1,48,43,2022586668
61,5,2,T1_SMS_8,150,5,42,127,2023382456
61,5,2,T1_SMS_8,151,1,48,46,2023408764
61,5,2,T1_SMS_8,152,1,48,39,2024176012
61,5,2,T1_SMS_8,153,5,42,127,2024182108
61,5,2,T1_SMS_8,154,5,42,127,2024981872
61,5,2,T1_SMS_8,155,1,48,44,2025018348
61,5,2,T1_SMS_8,156,5,42,127,2025781828
61,5,2,T1_SMS_8,157,1,48,41,2025805812
61,5,2,T1_SMS_8,158,5,42,127,2026582460
61,5,2,T1_SMS_8,159,1,48,42,2026597848
61,5,2,T1_SMS_8,160,5,42,127,2027382344
61,5,2,T1_SMS_8,161,1,48,38,2027404760
61,5,2,T1_SMS_8,162,1,48,39,2028156380
61,5,2,T1_SMS_8,163,5,42,127,2028181920
61,5,2,T1_SMS_8,164,5,42,127,2028981588
61,5,2,T1_SMS_8,165,1,48,45,2028982552
61,5,2,T1_SMS_8,166,1,48,36,2029778884
61,5,2,T1_SMS_8,167,5,42,127,2029782656
61,5,2,T1_SMS_8,168,1,48,46,2030578772
61,5,2,T1_SMS_8,169,5,42,127,2030582316
61,5,2,T1_SMS_8,170,1,48,42,2031363172
61,5,2,T1_SMS_8,171,5,42,127,2031381776
61,5,2,T1_SMS_8,172,1,48,42,2032155148
61,5,2,T1_SMS_8,173,5,42,127,2032181812
61,5,2,T1_SMS_8,174,1,48,47,2032936928
61,5,2,T1_SMS_8,175,5,42,127,2032982444
61,5,2,T1_SMS_8,176,5,42,127,2033782112
61,5,2,T1_SMS_8,177,1,48,35,2033836616
61,5,2,T1_SMS_8,178,5,42,127,2034581844
61,5,2,T1_SMS_8,179,1,48,42,2034624752
61,5,2,T1_SMS_8,180,5,42,127,2035381576
61,5,2,T1_SMS_8,181,1,48,47,2035389032
61,5,2,T1_SMS_8,182,5,42,127,2036182356
61,5,2,T1_SMS_8,183,1,48,43,2036185772
61,5,2,T1_SMS_8,184,5,42,127,2036982312
61,5,2,T1_SMS_8,185,1,48,44,2037008196
61,5,2,T1_SMS_8,186,5,42,127,2037781848
61,5,2,T1_SMS_8,187,1,48,39,2037786012
61,5,2,T1_SMS_8,188,5,42,127,2038581580
61,5,2,T1_SMS_8,189,1,48,45,2038636912
61,5,2,T1_SMS_8,190,5,42,127,2039382360
61,5,2,T1_SMS_8,191,1,48,45,2039401408
61,5,2,T1_SMS_8,192,5,42,127,2040182244
61,5,2,T1_SMS_8,193,1,48,46,2040208176
61,5,2,T1_SMS_8,194,5,42,127,2040981828
61,5,2,T1_SMS_8,195,1,48,45,2041011652
61,5,2,T1_SMS_8,196,1,48,43,2041754444
61,5,2,T1_SMS_8,197,5,42,127,2041781704
61,5,2,T1_SMS_8,198,1,48,43,2042528448
61,5,2,T1_SMS_8,199,5,42,127,2042582408
61,5,2,T1_SMS_8,200,1,48,41,2043301476
61,5,2,T1_SMS_8,201,5,42,127,2043382216
61,5,2,T1_SMS_8,202,1,48,45,2044144668
61,5,2,T1_SMS_8,203,5,42,127,2044181976
61,5,2,T1_SMS_8,204,1,48,52,2044941280
61,5,2,T1_SMS_8,205,5,42,127,2044981560
61,5,2,T1_SMS_8,206,5,42,127,2045782644
61,5,2,T1_SMS_8,207,1,48,49,2045835432
61,5,2,T1_SMS_8,208,5,42,127,2046582304
61,5,2,T1_SMS_8,209,1,48,28,2046680268
61,5,2,T1_SMS_8,210,5,42,127,2047381740
61,5,2,T1_SMS_8,211,1,48,40,2047413432
61,5,2,T1_SMS_8,212,5,42,127,2048181544
61,5,2,T1_SMS_8,213,1,48,45,2048250412
61,5,2,T1_SMS_8,214,5,42,127,2048982328
61,5,2,T1_SMS_8,215,1,48,45,2049002272
61,5,2,T1_SMS_8,216,1,48,54,2049736316
61,5,2,T1_SMS_8,217,5,42,127,2049782352
61,5,2,T1_SMS_8,218,1,48,51,2050538368
61,5,2,T1_SMS_8,219,5,42,127,2050581736
61,5,2,T1_SMS_8,220,5,42,127,2051381552
61,5,2,T1_SMS_8,221,1,48,35,2051415112
61,5,2,T1_SMS_8,222,5,42,127,2052182332
61,5,2,T1_SMS_8,223,1,48,32,2052357192
61,5,2,T1_SMS_8,224,5,42,127,2052982364
61,5,2,T1_SMS_8,225,5,42,127,2053782048
61,5,2,T1_SMS_8,226,1,48,49,2053942492
61,5,2,T1_SMS_8,227,1,48,35,2054552416
61,5,2,T1_SMS_8,228,5,42,127,2054581476
61,5,2,T1_SMS_8,229,5,42,127,2055382412
61,5,2,T1_SMS_8,230,1,48,40,2055675100
61,5,2,T1_SMS_8,231,5,42,127,2056182148
61,5,2,T1_SMS_8,232,1,48,25,2056279316
61,5,2,T1_SMS_8,233,1,48,52,2056953192
61,5,2,T1_SMS_8,234,5,42,127,2056982120
61,5,2,T1_SMS_8,235,1,48,47,2057707680
61,5,2,T1_SMS_8,236,5,42,127,2057781484
61,5,2,T1_SMS_8,237,1,48,47,2058515208
61,5,2,T1_SMS_8,0,9999,9999,9999,1962580072
61,5,2,T1_SMS_8,1,9999,9999,9999,1963379828
61,5,2,T1_SMS_8,2,9999,9999,9999,1964179508
61,5,2,T1_SMS_8,3,9999,9999,9999,1964979316
61,5,2,T1_SMS_8,4,9999,9999,9999,1965780020
61,5,2,T1_SMS_8,5,9999,9999,9999,1966579820
61,5,2,T1_SMS_8,6,9999,9999,9999,1967379508
61,5,2,T1_SMS_8,7,9999,9999,9999,1968179312
61,5,2,T1_SMS_8,8,9999,9999,9999,1968980020
61,5,2,T1_SMS_8,9,9999,9999,9999,1969779760
61,5,2,T1_SMS_8,10,9999,9999,9999,1970579564
61,5,2,T1_SMS_8,11,9999,9999,9999,1971379300
61,5,2,T1_SMS_8,12,9999,9999,9999,1972180072
61,5,2,T1_SMS_8,13,9999,9999,9999,1972979808
61,5,2,T1_SMS_8,14,9999,9999,9999,1973779572
61,5,2,T1_SMS_8,15,9999,9999,9999,1974579304
61,5,2,T1_SMS_8,16,9999,9999,9999,1975380080
61,5,2,T1_SMS_8,17,9999,9999,9999,1976179812
61,5,2,T1_SMS_8,18,9999,9999,9999,1976979552
61,5,2,T1_SMS_8,19,9999,9999,9999,1977779256
61,5,2,T1_SMS_8,20,9999,9999,9999,1978580036
61,5,2,T1_SMS_8,21,9999,9999,9999,1979379776
61,5,2,T1_SMS_8,22,9999,9999,9999,1980179536
61,5,2,T1_SMS_8,23,9999,9999,9999,1980979268
61,5,2,T1_SMS_8,24,9999,9999,9999,1981780048
61,5,2,T1_SMS_8,25,9999,9999,9999,1982579780
61,5,2,T1_SMS_8,26,9999,9999,9999,1983379516
61,5,2,T1_SMS_8,27,9999,9999,9999,1984179316
61,5,2,T1_SMS_8,28,9999,9999,9999,1984980024
61,5,2,T1_SMS_8,29,9999,9999,9999,1985779764
61,5,2,T1_SMS_8,30,9999,9999,9999,1986579512
61,5,2,T1_SMS_8,31,9999,9999,9999,1987379248
61,5,2,T1_SMS_8,32,9999,9999,9999,1988180032
61,5,2,T1_SMS_8,33,9999,9999,9999,1988979768
61,5,2,T1_SMS_8,34,9999,9999,9999,1989779500
61,5,2,T1_SMS_8,35,9999,9999,9999,1990579308
61,5,2,T1_SMS_8,36,9999,9999,9999,1991380016
61,5,2,T1_SMS_8,37,9999,9999,9999,1992179816
61,5,2,T1_SMS_8,38,9999,9999,9999,1992979576
61,5,2,T1_SMS_8,39,9999,9999,9999,1993779316
61,5,2,T1_SMS_8,40,9999,9999,9999,1994580020
61,5,2,T1_SMS_8,41,9999,9999,9999,1995379828
61,5,2,T1_SMS_8,42,9999,9999,9999,1996179564
61,5,2,T1_SMS_8,43,9999,9999,9999,1996979292
61,5,2,T1_SMS_8,44,9999,9999,9999,1997780076
61,5,2,T1_SMS_8,45,9999,9999,9999,1998579808
61,5,2,T1_SMS_8,46,9999,9999,9999,1999379568
61,5,2,T1_SMS_8,47,9999,9999,9999,2000179300
61,5,2,T1_SMS_8,48,9999,9999,9999,2000980080
61,5,2,T1_SMS_8,49,9999,9999,9999,2001779808
61,5,2,T1_SMS_8,50,9999,9999,9999,2002579548
61,5,2,T1_SMS_8,51,9999,9999,9999,2003379284
61,5,2,T1_SMS_8,52,9999,9999,9999,2004180060
61,5,2,T1_SMS_8,53,9999,9999,9999,2004979788
61,5,2,T1_SMS_8,54,9999,9999,9999,2005779548
61,5,2,T1_SMS_8,55,9999,9999,9999,2006579280
61,5,2,T1_SMS_8,56,9999,9999,9999,2007380064
61,5,2,T1_SMS_8,57,9999,9999,9999,2008179800
61,5,2,T1_SMS_8,58,9999,9999,9999,2008979528
61,5,2,T1_SMS_8,59,9999,9999,9999,2009779260
61,5,2,T1_SMS_8,60,9999,9999,9999,2010580048
61,5,2,T1_SMS_8,61,9999,9999,9999,2011379780
61,5,2,T1_SMS_8,62,9999,9999,9999,2012179540
61,5,2,T1_SMS_8,63,9999,9999,9999,2012979264
61,5,2,T1_SMS_8,64,9999,9999,9999,2013780044
61,5,2,T1_SMS_8,65,9999,9999,9999,2014579784
61,5,2,T1_SMS_8,66,9999,9999,9999,2015379516
61,5,2,T1_SMS_8,67,9999,9999,9999,2016179320
61,5,2,T1_SMS_8,68,9999,9999,9999,2016980032
61,5,2,T1_SMS_8,69,9999,9999,9999,2017779764
61,5,2,T1_SMS_8,70,9999,9999,9999,2018579524
61,5,2,T1_SMS_8,71,9999,9999,9999,2019379260
61,5,2,T1_SMS_8,72,9999,9999,9999,2020180036
61,5,2,T1_SMS_8,73,9999,9999,9999,2020979772
61,5,2,T1_SMS_8,74,9999,9999,9999,2021779508
61,5,2,T1_SMS_8,75,9999,9999,9999,2022579312
61,5,2,T1_SMS_8,76,9999,9999,9999,2023380020
61,5,2,T1_SMS_8,77,9999,9999,9999,2024179820
61,5,2,T1_SMS_8,78,9999,9999,9999,2024979508
61,5,2,T1_SMS_8,79,9999,9999,9999,2025779316
61,5,2,T1_SMS_8,80,9999,9999,9999,2026580020
61,5,2,T1_SMS_8,81,9999,9999,9999,2027379832
61,5,2,T1_SMS_8,82,9999,9999,9999,2028179560
61,5,2,T1_SMS_8,83,9999,9999,9999,2028979300
61,5,2,T1_SMS_8,84,9999,9999,9999,2029780072
61,5,2,T1_SMS_8,85,9999,9999,9999,2030579804
61,5,2,T1_SMS_8,86,9999,9999,9999,2031379564
61,5,2,T1_SMS_8,87,9999,9999,9999,2032179300
61,5,2,T1_SMS_8,88,9999,9999,9999,2032980080
61,5,2,T1_SMS_8,89,9999,9999,9999,2033779820
61,5,2,T1_SMS_8,90,9999,9999,9999,2034579556
61,5,2,T1_SMS_8,91,9999,9999,9999,2035379288
61,5,2,T1_SMS_8,92,9999,9999,9999,2036180068
61,5,2,T1_SMS_8,93,9999,9999,9999,2036979800
61,5,2,T1_SMS_8,94,9999,9999,9999,2037779560
61,5,2,T1_SMS_8,95,9999,9999,9999,2038579292
61,5,2,T1_SMS_8,96,9999,9999,9999,2039380072
61,5,2,T1_SMS_8,97,9999,9999,9999,2040179808
61,5,2,T1_SMS_8,98,9999,9999,9999,2040979540
61,5,2,T1_SMS_8,99,9999,9999,9999,2041779268
61,5,2,T1_SMS_8,100,9999,9999,9999,2042580048
61,5,2,T1_SMS_8,101,9999,9999,9999,2043379780
61,5,2,T1_SMS_8,102,9999,9999,9999,2044179536
61,5,2,T1_SMS_8,103,9999,9999,9999,2044979272
61,5,2,T1_SMS_8,104,9999,9999,9999,2045780056
61,5,2,T1_SMS_8,105,9999,9999,9999,2046579792
61,5,2,T1_SMS_8,106,9999,9999,9999,2047379524
61,5,2,T1_SMS_8,107,9999,9999,9999,2048179256
61,5,2,T1_SMS_8,108,9999,9999,9999,2048980040
61,5,2,T1_SMS_8,109,9999,9999,9999,2049779764
61,5,2,T1_SMS_8,110,9999,9999,9999,2050579524
61,5,2,T1_SMS_8,111,9999,9999,9999,2051379264
61,5,2,T1_SMS_8,112,9999,9999,9999,2052180044
61,5,2,T1_SMS_8,113,9999,9999,9999,2052979776
61,5,2,T1_SMS_8,114,9999,9999,9999,2053779536
61,5,2,T1_SMS_8,115,9999,9999,9999,2054579260
61,5,2,T1_SMS_8,116,9999,9999,9999,2055380048
61,5,2,T1_SMS_8,117,9999,9999,9999,2056179784
61,5,2,T1_SMS_8,118,9999,9999,9999,2056979536
61,5,2,T1_SMS_8,119,9999,9999,9999,2057779272
61,6,21,Ticks_Linear_5,0,5,42,127,2069312900
61,6,21,Ticks_Linear_5,1,5,42,127,2069793000
61,6,21,Ticks_Linear_5,2,5,42,127,2070273376
61,6,21,Ticks_Linear_5,3,5,42,127,2070752800
61,6,21,Ticks_Linear_5,4,1,48,50,2071232604
61,6,21,Ticks_Linear_5,5,5,42,127,2071234016
61,6,21,Ticks_Linear_5,6,1,48,54,2071722560
61,6,21,Ticks_Linear_5,7,5,42,127,2071724132
61,6,21,Ticks_Linear_5,8,1,48,53,2072204324
61,6,21,Ticks_Linear_5,9,5,42,127,2072212824
61,6,21,Ticks_Linear_5,10,1,48,58,2072701196
61,6,21,Ticks_Linear_5,11,5,42,127,2072703384
61,6,21,Ticks_Linear_5,12,1,48,54,2073182676
61,6,21,Ticks_Linear_5,13,5,42,127,2073192752
61,6,21,Ticks_Linear_5,14,1,48,56,2073663128
61,6,21,Ticks_Linear_5,15,5,42,127,2073683312
61,6,21,Ticks_Linear_5,16,1,48,54,2074161780
61,6,21,Ticks_Linear_5,17,5,42,127,2074183088
61,6,21,Ticks_Linear_5,18,1,48,55,2074633020
61,6,21,Ticks_Linear_5,19,5,42,127,2074682636
61,6,21,Ticks_Linear_5,20,1,48,57,2075132844
61,6,21,Ticks_Linear_5,21,5,42,127,2075182560
61,6,21,Ticks_Linear_5,22,1,48,50,2075655236
61,6,21,Ticks_Linear_5,23,5,42,127,2075683156
61,6,21,Ticks_Linear_5,24,1,48,52,2076138976
61,6,21,Ticks_Linear_5,25,5,42,127,2076182936
61,6,21,Ticks_Linear_5,26,1,48,54,2076653508
61,6,21,Ticks_Linear_5,27,5,42,127,2076692816
61,6,21,Ticks_Linear_5,28,1,48,51,2077135608
61,6,21,Ticks_Linear_5,29,5,42,127,2077202700
61,6,21,Ticks_Linear_5,30,1,48,51,2077647068
61,6,21,Ticks_Linear_5,31,5,42,127,2077712732
61,6,21,Ticks_Linear_5,32,1,48,54,2078149684
61,6,21,Ticks_Linear_5,33,5,42,127,2078222768
61,6,21,Ticks_Linear_5,34,1,48,56,2078673424
61,6,21,Ticks_Linear_5,35,5,42,127,2078732724
61,6,21,Ticks_Linear_5,36,1,48,52,2079178212
61,6,21,Ticks_Linear_5,37,5,42,127,2079252720
61,6,21,Ticks_Linear_5,38,1,48,57,2079665032
61,6,21,Ticks_Linear_5,39,5,42,127,2079773072
61,6,21,Ticks_Linear_5,40,1,48,53,2080267876
61,6,21,Ticks_Linear_5,41,5,42,127,2080293380
61,6,21,Ticks_Linear_5,42,1,48,51,2080783456
61,6,21,Ticks_Linear_5,43,5,42,127,2080813596
61,6,21,Ticks_Linear_5,44,1,48,51,2081302476
61,6,21,Ticks_Linear_5,45,5,42,127,2081342804
61,6,21,Ticks_Linear_5,46,1,48,51,2081829428
61,6,21,Ticks_Linear_5,47,5,42,127,2081873356
61,6,21,Ticks_Linear_5,48,1,48,51,2082361564
61,6,21,Ticks_Linear_5,49,5,42,127,2082402712
61,6,21,Ticks_Linear_5,50,1,48,52,2082913532
61,6,21,Ticks_Linear_5,51,5,42,127,2082933040
61,6,21,Ticks_Linear_5,52,5,42,127,2083462628
61,6,21,Ticks_Linear_5,53,1,48,51,2083484696
61,6,21,Ticks_Linear_5,54,5,42,127,2083992808
61,6,21,Ticks_Linear_5,55,1,48,50,2084004240
61,6,21,Ticks_Linear_5,56,1,48,50,2084524140
61,6,21,Ticks_Linear_5,57,5,42,127,2084532488
61,6,21,Ticks_Linear_5,58,5,42,127,2085073528
61,6,21,Ticks_Linear_5,59,1,48,47,2085081896
61,6,21,Ticks_Linear_5,60,1,48,57,2085605080
61,6,21,Ticks_Linear_5,61,5,42,127,2085612840
61,6,21,Ticks_Linear_5,62,5,42,127,2086152484
61,6,21,Ticks_Linear_5,63,1,48,55,2086165716
61,6,21,Ticks_Linear_5,64,5,42,127,2086693444
61,6,21,Ticks_Linear_5,65,1,48,48,2086706604
61,6,21,Ticks_Linear_5,66,1,48,48,2087220280
61,6,21,Ticks_Linear_5,67,5,42,127,2087243240
61,6,21,Ticks_Linear_5,68,1,48,50,2087735856
61,6,21,Ticks_Linear_5,69,5,42,127,2087792964
61,6,21,Ticks_Linear_5,70,1,48,47,2088302664
61,6,21,Ticks_Linear_5,71,5,42,127,2088342840
61,6,21,Ticks_Linear_5,72,1,48,55,2088843096
61,6,21,Ticks_Linear_5,73,5,42,127,2088892860
61,6,21,Ticks_Linear_5,74,1,48,52,2089382116
61,6,21,Ticks_Linear_5,75,5,42,127,2089442588
61,6,21,Ticks_Linear_5,76,1,48,53,2089937896
61,6,21,Ticks_Linear_5,77,5,42,127,2090002748
61,6,21,Ticks_Linear_5,78,1,48,49,2090455348
61,6,21,Ticks_Linear_5,79,5,42,127,2090562936
61,6,21,Ticks_Linear_5,80,1,48,53,2091048452
61,6,21,Ticks_Linear_5,81,5,42,127,2091122936
61,6,21,Ticks_Linear_5,82,1,48,49,2091619140
61,6,21,Ticks_Linear_5,83,5,42,127,2091683216
61,6,21,Ticks_Linear_5,84,1,48,52,2092184076
61,6,21,Ticks_Linear_5,85,5,42,127,2092243204
61,6,21,Ticks_Linear_5,86,1,48,55,2092755144
61,6,21,Ticks_Linear_5,87,5,42,127,2092812648
61,6,21,Ticks_Linear_5,88,1,48,52,2093323016
61,6,21,Ticks_Linear_5,89,5,42,127,2093383040
61,6,21,Ticks_Linear_5,90,1,48,52,2093882324
61,6,21,Ticks_Linear_5,91,5,42,127,2093953432
61,6,21,Ticks_Linear_5,92,1,48,52,2094457800
61,6,21,Ticks_Linear_5,93,5,42,127,2094522700
61,6,21,Ticks_Linear_5,94,1,48,49,2094986640
61,6,21,Ticks_Linear_5,95,5,42,127,2095093376
61,6,21,Ticks_Linear_5,96,1,48,54,2095616792
61,6,21,Ticks_Linear_5,97,5,42,127,2095672652
61,6,21,Ticks_Linear_5,98,1,48,48,2096197020
61,6,21,Ticks_Linear_5,99,5,42,127,2096253304
61,6,21,Ticks_Linear_5,100,1,48,52,2096783592
61,6,21,Ticks_Linear_5,101,5,42,127,2096832980
61,6,21,Ticks_Linear_5,102,1,48,43,2097312200
61,6,21,Ticks_Linear_5,103,5,42,127,2097412420
61,6,21,Ticks_Linear_5,104,1,48,49,2097901216
61,6,21,Ticks_Linear_5,105,5,42,127,2097993012
61,6,21,Ticks_Linear_5,106,1,48,49,2098470796
61,6,21,Ticks_Linear_5,107,5,42,127,2098582936
61,6,21,Ticks_Linear_5,108,1,48,50,2099063516
61,6,21,Ticks_Linear_5,109,5,42,127,2099172728
61,6,21,Ticks_Linear_5,110,1,48,48,2099633832
61,6,21,Ticks_Linear_5,111,5,42,127,2099762692
61,6,21,Ticks_Linear_5,112,1,48,51,2100234432
61,6,21,Ticks_Linear_5,113,5,42,127,2100353304
61,6,21,Ticks_Linear_5,114,1,48,53,2100845936
61,6,21,Ticks_Linear_5,115,5,42,127,2100943256
61,6,21,Ticks_Linear_5,116,1,48,46,2101460432
61,6,21,Ticks_Linear_5,117,5,42,127,2101543252
61,6,21,Ticks_Linear_5,118,5,42,127,2102143384
61,6,21,Ticks_Linear_5,119,1,48,38,2102195852
61,6,21,Ticks_Linear_5,120,5,42,127,2102743360
61,6,21,Ticks_Linear_5,121,1,48,44,2102765952
61,6,21,Ticks_Linear_5,122,5,42,127,2103342312
61,6,21,Ticks_Linear_5,123,1,48,46,2103363632
61,6,21,Ticks_Linear_5,124,1,48,46,2103934224
61,6,21,Ticks_Linear_5,125,5,42,127,2103942576
61,6,21,Ticks_Linear_5,126,5,42,127,2104553040
61,6,21,Ticks_Linear_5,127,1,48,47,2104555636
61,6,21,Ticks_Linear_5,128,5,42,127,2105163148
61,6,21,Ticks_Linear_5,129,1,48,50,2105216740
61,6,21,Ticks_Linear_5,130,5,42,127,2105773308
61,6,21,Ticks_Linear_5,131,1,48,47,2105821368
61,6,21,Ticks_Linear_5,132,5,42,127,2106392924
61,6,21,Ticks_Linear_5,133,1,48,50,2106400920
61,6,21,Ticks_Linear_5,134,1,48,42,2106994124
61,6,21,Ticks_Linear_5,135,5,42,127,2107003300
61,6,21,Ticks_Linear_5,136,1,48,51,2107613120
61,6,21,Ticks_Linear_5,137,5,42,127,2107623044
61,6,21,Ticks_Linear_5,138,1,48,51,2108229140
61,6,21,Ticks_Linear_5,139,5,42,127,2108243416
61,6,21,Ticks_Linear_5,140,1,48,53,2108854360
61,6,21,Ticks_Linear_5,141,5,42,127,2108863008
61,6,21,Ticks_Linear_5,142,1,48,49,2109438076
61,6,21,Ticks_Linear_5,143,5,42,127,2109483376
61,6,21,Ticks_Linear_5,144,1,48,54,2110044520
61,6,21,Ticks_Linear_5,145,5,42,127,2110102972
61,6,21,Ticks_Linear_5,146,1,48,28,2110714732
61,6,21,Ticks_Linear_5,147,5,42,127,2110732924
61,6,21,Ticks_Linear_5,148,1,48,38,2111293916
61,6,21,Ticks_Linear_5,149,5,42,127,2111362332
61,6,21,Ticks_Linear_5,150,5,42,127,2111993236
61,6,21,Ticks_Linear_5,151,1,48,37,2112016000
61,6,21,Ticks_Linear_5,152,5,42,127,2112622964
61,6,21,Ticks_Linear_5,153,1,48,43,2112648252
61,6,21,Ticks_Linear_5,154,5,42,127,2113252892
61,6,21,Ticks_Linear_5,155,1,48,44,2113277280
61,6,21,Ticks_Linear_5,156,5,42,127,2113892880
61,6,21,Ticks_Linear_5,157,1,48,45,2113899596
61,6,21,Ticks_Linear_5,158,1,48,40,2114512428
61,6,21,Ticks_Linear_5,159,5,42,127,2114532688
61,6,21,Ticks_Linear_5,160,1,48,41,2115157280
61,6,21,Ticks_Linear_5,161,5,42,127,2115172824
61,6,21,Ticks_Linear_5,162,1,48,48,2115775904
61,6,21,Ticks_Linear_5,163,5,42,127,2115812940
61,6,21,Ticks_Linear_5,164,1,48,48,2116424356
61,6,21,Ticks_Linear_5,165,5,42,127,2116452632
61,6,21,Ticks_Linear_5,166,1,48,47,2117046424
61,6,21,Ticks_Linear_5,167,5,42,127,2117103076
61,6,21,Ticks_Linear_5,168,1,48,48,2117673680
61,6,21,Ticks_Linear_5,169,5,42,127,2117753180
61,6,21,Ticks_Linear_5,170,1,48,42,2118328096
61,6,21,Ticks_Linear_5,171,5,42,127,2118402356
61,6,21,Ticks_Linear_5,172,1,48,47,2118980064
61,6,21,Ticks_Linear_5,173,5,42,127,2119052748
61,6,21,Ticks_Linear_5,174,1,48,44,2119580408
61,6,21,Ticks_Linear_5,175,5,42,127,2119702832
61,6,21,Ticks_Linear_5,176,1,48,40,2120270052
61,6,21,Ticks_Linear_5,177,5,42,127,2120363480
61,6,21,Ticks_Linear_5,178,1,48,36,2120990688
61,6,21,Ticks_Linear_5,179,5,42,127,2121022792
61,6,21,Ticks_Linear_5,180,1,48,48,2121622652
61,6,21,Ticks_Linear_5,181,5,42,127,2121683420
61,6,21,Ticks_Linear_5,182,1,48,44,2122223000
61,6,21,Ticks_Linear_5,183,5,42,127,2122342792
61,6,21,Ticks_Linear_5,184,1,48,41,2122890404
61,6,21,Ticks_Linear_5,185,5,42,127,2123003128
61,6,21,Ticks_Linear_5,186,1,48,48,2123569472
61,6,21,Ticks_Linear_5,187,5,42,127,2123672996
61,6,21,Ticks_Linear_5,188,1,48,46,2124192144
61,6,21,Ticks_Linear_5,189,5,42,127,2124342716
61,6,21,Ticks_Linear_5,190,1,48,45,2124841036
61,6,21,Ticks_Linear_5,191,5,42,127,2125013308
61,6,21,Ticks_Linear_5,192,1,48,29,2125557312
61,6,21,Ticks_Linear_5,193,5,42,127,2125682952
61,6,21,Ticks_Linear_5,194,1,48,30,2126302896
61,6,21,Ticks_Linear_5,195,5,42,127,2126352764
61,6,21,Ticks_Linear_5,196,1,48,25,2126387468
61,6,21,Ticks_Linear_5,197,5,42,127,2127032700
61,6,21,Ticks_Linear_5,198,1,48,50,2127061732
61,6,21,Ticks_Linear_5,199,1,48,46,2127688584
61,6,21,Ticks_Linear_5,200,5,42,127,2127712596
61,6,21,Ticks_Linear_5,201,1,48,43,2128346528
61,6,21,Ticks_Linear_5,202,5,42,127,2128392648
61,6,21,Ticks_Linear_5,203,1,48,43,2129020208
61,6,21,Ticks_Linear_5,204,5,42,127,2129072604
61,6,21,Ticks_Linear_5,205,1,48,43,2129686036
61,6,21,Ticks_Linear_5,206,1,48,27,2129746448
61,6,21,Ticks_Linear_5,207,5,42,127,2129752408
61,6,21,Ticks_Linear_5,208,1,48,48,2130391956
61,6,21,Ticks_Linear_5,209,5,42,127,2130442644
61,6,21,Ticks_Linear_5,210,1,48,48,2131087956
61,6,21,Ticks_Linear_5,211,5,42,127,2131132784
61,6,21,Ticks_Linear_5,212,1,48,46,2131755876
61,6,21,Ticks_Linear_5,213,5,42,127,2131822944
61,6,21,Ticks_Linear_5,214,1,48,52,2132474252
61,6,21,Ticks_Linear_5,215,5,42,127,2132513256
61,6,21,Ticks_Linear_5,216,1,48,47,2133187400
61,6,21,Ticks_Linear_5,217,5,42,127,2133203320
61,6,21,Ticks_Linear_5,218,5,42,127,2133902628
61,6,21,Ticks_Linear_5,219,1,48,48,2133903596
61,6,21,Ticks_Linear_5,220,5,42,127,2134603348
61,6,21,Ticks_Linear_5,221,1,48,43,2134627060
61,6,21,Ticks_Linear_5,222,5,42,127,2135302500
61,6,21,Ticks_Linear_5,223,1,48,43,2135310032
61,6,21,Ticks_Linear_5,224,5,42,127,2136002896
61,6,21,Ticks_Linear_5,225,1,48,39,2136008712
61,6,21,Ticks_Linear_5,226,5,42,127,2136703392
61,6,21,Ticks_Linear_5,227,1,48,46,2136723436
61,6,21,Ticks_Linear_5,228,5,42,127,2137412880
61,6,21,Ticks_Linear_5,229,1,48,35,2137445728
61,6,21,Ticks_Linear_5,230,5,42,127,2138122588
61,6,21,Ticks_Linear_5,231,1,48,40,2138172596
61,6,21,Ticks_Linear_5,232,1,48,37,2138777784
61,6,21,Ticks_Linear_5,233,5,42,127,2138833240
61,6,21,Ticks_Linear_5,234,1,48,38,2139429076
61,6,21,Ticks_Linear_5,235,5,42,127,2139542932
61,6,21,Ticks_Linear_5,236,1,48,44,2140150436
61,6,21,Ticks_Linear_5,237,5,42,127,2140252420
61,6,21,Ticks_Linear_5,238,1,48,44,2140922016
61,6,21,Ticks_Linear_5,239,5,42,127,2140973300
61,6,21,Ticks_Linear_5,240,1,48,46,2141585960
61,6,21,Ticks_Linear_5,241,5,42,127,2141702388
61,6,21,Ticks_Linear_5,242,1,48,43,2142312896
61,6,21,Ticks_Linear_5,243,5,42,127,2142423380
61,6,21,Ticks_Linear_5,244,1,48,44,2143030920
61,6,21,Ticks_Linear_5,245,5,42,127,2143143272
61,6,21,Ticks_Linear_5,246,1,48,39,2143730408
61,6,21,Ticks_Linear_5,247,5,42,127,2143863092
61,6,21,Ticks_Linear_5,248,1,48,46,2144440432
61,6,21,Ticks_Linear_5,249,5,42,127,2144593320
61,6,21,Ticks_Linear_5,250,1,48,44,2145177916
61,6,21,Ticks_Linear_5,251,5,42,127,2145323324
61,6,21,Ticks_Linear_5,252,1,48,45,2145975240
61,6,21,Ticks_Linear_5,253,5,42,127,2146052444
61,6,21,Ticks_Linear_5,254,1,48,43,2146712140
61,6,21,Ticks_Linear_5,255,5,42,127,2146782572
61,6,21,Ticks_Linear_5,256,5,42,127,2147512584
61,6,21,Ticks_Linear_5,257,1,48,39,2147513548
61,6,21,Ticks_Linear_5,258,1,48,40,2148213108
61,6,21,Ticks_Linear_5,259,5,42,127,2148253212
61,6,21,Ticks_Linear_5,260,1,48,46,2148957488
61,6,21,Ticks_Linear_5,261,5,42,127,2148993476
61,6,21,Ticks_Linear_5,262,1,48,40,2149677528
61,6,21,Ticks_Linear_5,263,5,42,127,2149732912
61,6,21,Ticks_Linear_5,264,1,48,41,2150367964
61,6,21,Ticks_Linear_5,265,5,42,127,2150473012
61,6,21,Ticks_Linear_5,266,1,48,40,2151094972
61,6,21,Ticks_Linear_5,267,5,42,127,2151213348
61,6,21,Ticks_Linear_5,268,1,48,41,2151825804
61,6,21,Ticks_Linear_5,269,5,42,127,2151973156
61,6,21,Ticks_Linear_5,270,1,48,37,2152591460
61,6,21,Ticks_Linear_5,271,5,42,127,2152722928
61,6,21,Ticks_Linear_5,272,1,48,41,2153319432
61,6,21,Ticks_Linear_5,273,5,42,127,2153473428
61,6,21,Ticks_Linear_5,274,1,48,45,2154125940
61,6,21,Ticks_Linear_5,275,5,42,127,2154223100
61,6,21,Ticks_Linear_5,276,1,48,36,2154883956
61,6,21,Ticks_Linear_5,277,5,42,127,2154972516
61,6,21,Ticks_Linear_5,278,1,48,32,2155642272
61,6,21,Ticks_Linear_5,279,5,42,127,2155733220
61,6,21,Ticks_Linear_5,280,1,48,27,2156416676
61,6,21,Ticks_Linear_5,281,5,42,127,2156493032
61,6,21,Ticks_Linear_5,282,1,48,37,2157172296
61,6,21,Ticks_Linear_5,283,5,42,127,2157252912
61,6,21,Ticks_Linear_5,284,1,48,40,2157909036
61,6,21,Ticks_Linear_5,285,5,42,127,2158012780
61,6,21,Ticks_Linear_5,286,1,48,29,2158670408
61,6,21,Ticks_Linear_5,287,5,42,127,2158772816
61,6,21,Ticks_Linear_5,288,1,48,41,2159427080
61,6,21,Ticks_Linear_5,289,5,42,127,2159542736
61,6,21,Ticks_Linear_5,290,1,48,44,2160187712
61,6,21,Ticks_Linear_5,291,5,42,127,2160312652
61,6,21,Ticks_Linear_5,292,1,48,41,2161008928
61,6,21,Ticks_Linear_5,293,5,42,127,2161082884
61,6,21,Ticks_Linear_5,294,1,48,42,2161795844
61,6,21,Ticks_Linear_5,295,5,42,127,2161852876
61,6,21,Ticks_Linear_5,296,1,48,45,2162589348
61,6,21,Ticks_Linear_5,297,5,42,127,2162622720
61,6,21,Ticks_Linear_5,298,1,48,42,2163345496
61,6,21,Ticks_Linear_5,299,5,42,127,2163403200
61,6,21,Ticks_Linear_5,300,1,48,45,2164101192
61,6,21,Ticks_Linear_5,301,5,42,127,2164183300
61,6,21,Ticks_Linear_5,302,1,48,42,2164904204
61,6,21,Ticks_Linear_5,303,5,42,127,2164962804
61,6,21,Ticks_Linear_5,304,1,48,38,2165688192
61,6,21,Ticks_Linear_5,305,5,42,127,2165742908
61,6,21,Ticks_Linear_5,306,1,48,41,2166428756
61,6,21,Ticks_Linear_5,307,5,42,127,2166523216
61,6,21,Ticks_Linear_5,308,1,48,39,2167179124
61,6,21,Ticks_Linear_5,309,5,42,127,2167312632
61,6,21,Ticks_Linear_5,310,1,48,36,2167963428
61,6,21,Ticks_Linear_5,311,5,42,127,2168103144
61,6,21,Ticks_Linear_5,312,1,48,45,2168760984
61,6,21,Ticks_Linear_5,313,5,42,127,2168892756
61,6,21,Ticks_Linear_5,314,1,48,40,2169647224
61,6,21,Ticks_Linear_5,315,5,42,127,2169683208
61,6,21,Ticks_Linear_5,316,1,48,43,2170344396
61,6,21,Ticks_Linear_5,317,5,42,127,2170472884
61,6,21,Ticks_Linear_5,318,1,48,40,2171046540
61,6,21,Ticks_Linear_5,319,5,42,127,2171272532
61,6,21,Ticks_Linear_5,320,1,48,31,2171940344
61,6,21,Ticks_Linear_5,321,5,42,127,2172073600
61,6,21,Ticks_Linear_5,322,1,48,21,2172735728
61,6,21,Ticks_Linear_5,323,5,42,127,2172873172
61,6,21,Ticks_Linear_5,324,1,48,33,2173458764
61,6,21,Ticks_Linear_5,325,5,42,127,2173672896
61,6,21,Ticks_Linear_5,326,1,48,48,2174429528
61,6,21,Ticks_Linear_5,327,5,42,127,2174472660
61,6,21,Ticks_Linear_5,328,1,48,49,2175164328
61,6,21,Ticks_Linear_5,329,5,42,127,2175282480
61,6,21,Ticks_Linear_5,330,1,48,41,2175929296
61,6,21,Ticks_Linear_5,331,5,42,127,2176092460
61,6,21,Ticks_Linear_5,332,1,48,44,2176805436
61,6,21,Ticks_Linear_5,333,5,42,127,2176903036
61,6,21,Ticks_Linear_5,334,1,48,40,2177682220
61,6,21,Ticks_Linear_5,335,5,42,127,2177712364
61,6,21,Ticks_Linear_5,336,1,48,44,2178483664
61,6,21,Ticks_Linear_5,337,5,42,127,2178522424
61,6,21,Ticks_Linear_5,0,9999,9999,9999,2069310528
61,6,21,Ticks_Linear_5,1,9999,9999,9999,2069790776
61,6,21,Ticks_Linear_5,2,9999,9999,9999,2070271076
61,6,21,Ticks_Linear_5,3,9999,9999,9999,2070750280
61,6,21,Ticks_Linear_5,4,9999,9999,9999,2071230528
61,6,21,Ticks_Linear_5,5,9999,9999,9999,2071721016
61,6,21,Ticks_Linear_5,6,9999,9999,9999,2072210524
61,6,21,Ticks_Linear_5,7,9999,9999,9999,2072701056
61,6,21,Ticks_Linear_5,8,9999,9999,9999,2073190452
61,6,21,Ticks_Linear_5,9,9999,9999,9999,2073681012
61,6,21,Ticks_Linear_5,10,9999,9999,9999,2074180716
61,6,21,Ticks_Linear_5,11,9999,9999,9999,2074680416
61,6,21,Ticks_Linear_5,12,9999,9999,9999,2075180112
61,6,21,Ticks_Linear_5,13,9999,9999,9999,2075680860
61,6,21,Ticks_Linear_5,14,9999,9999,9999,2076180560
61,6,21,Ticks_Linear_5,15,9999,9999,9999,2076690520
61,6,21,Ticks_Linear_5,16,9999,9999,9999,2077200476
61,6,21,Ticks_Linear_5,17,9999,9999,9999,2077710436
61,6,21,Ticks_Linear_5,18,9999,9999,9999,2078220392
61,6,21,Ticks_Linear_5,19,9999,9999,9999,2078730352
61,6,21,Ticks_Linear_5,20,9999,9999,9999,2079250496
61,6,21,Ticks_Linear_5,21,9999,9999,9999,2079770700
61,6,21,Ticks_Linear_5,22,9999,9999,9999,2080290932
61,6,21,Ticks_Linear_5,23,9999,9999,9999,2080811076
61,6,21,Ticks_Linear_5,24,9999,9999,9999,2081340508
61,6,21,Ticks_Linear_5,25,9999,9999,9999,2081870912
61,6,21,Ticks_Linear_5,26,9999,9999,9999,2082400340
61,6,21,Ticks_Linear_5,27,9999,9999,9999,2082930744
61,6,21,Ticks_Linear_5,28,9999,9999,9999,2083460180
61,6,21,Ticks_Linear_5,29,9999,9999,9999,2083990584
61,6,21,Ticks_Linear_5,30,9999,9999,9999,2084530264
61,6,21,Ticks_Linear_5,31,9999,9999,9999,2085070932
61,6,21,Ticks_Linear_5,32,9999,9999,9999,2085610616
61,6,21,Ticks_Linear_5,33,9999,9999,9999,2086150236
61,6,21,Ticks_Linear_5,34,9999,9999,9999,2086690924
61,6,21,Ticks_Linear_5,35,9999,9999,9999,2087240792
61,6,21,Ticks_Linear_5,36,9999,9999,9999,2087790668
61,6,21,Ticks_Linear_5,37,9999,9999,9999,2088340540
61,6,21,Ticks_Linear_5,38,9999,9999,9999,2088890488
61,6,21,Ticks_Linear_5,39,9999,9999,9999,2089440364
61,6,21,Ticks_Linear_5,40,9999,9999,9999,2090000448
61,6,21,Ticks_Linear_5,41,9999,9999,9999,2090560640
61,6,21,Ticks_Linear_5,42,9999,9999,9999,2091120712
61,6,21,Ticks_Linear_5,43,9999,9999,9999,2091680844
61,6,21,Ticks_Linear_5,44,9999,9999,9999,2092240980
61,6,21,Ticks_Linear_5,45,9999,9999,9999,2092810348
61,6,21,Ticks_Linear_5,46,9999,9999,9999,2093380668
61,6,21,Ticks_Linear_5,47,9999,9999,9999,2093951060
61,6,21,Ticks_Linear_5,48,9999,9999,9999,2094520404
61,6,21,Ticks_Linear_5,49,9999,9999,9999,2095090780
61,6,21,Ticks_Linear_5,50,9999,9999,9999,2095670352
61,6,21,Ticks_Linear_5,51,9999,9999,9999,2096251004
61,6,21,Ticks_Linear_5,52,9999,9999,9999,2096830532
61,6,21,Ticks_Linear_5,53,9999,9999,9999,2097410124
61,6,21,Ticks_Linear_5,54,9999,9999,9999,2097990716
61,6,21,Ticks_Linear_5,55,9999,9999,9999,2098580564
61,6,21,Ticks_Linear_5,56,9999,9999,9999,2099170428
61,6,21,Ticks_Linear_5,57,9999,9999,9999,2099760244
61,6,21,Ticks_Linear_5,58,9999,9999,9999,2100351080
61,6,21,Ticks_Linear_5,59,9999,9999,9999,2100940880
61,6,21,Ticks_Linear_5,60,9999,9999,9999,2101540956
61,6,21,Ticks_Linear_5,61,9999,9999,9999,2102141012
61,6,21,Ticks_Linear_5,62,9999,9999,9999,2102741060
61,6,21,Ticks_Linear_5,63,9999,9999,9999,2103340088
61,6,21,Ticks_Linear_5,64,9999,9999,9999,2103940204
61,6,21,Ticks_Linear_5,65,9999,9999,9999,2104550516
61,6,21,Ticks_Linear_5,66,9999,9999,9999,2105160776
61,6,21,Ticks_Linear_5,67,9999,9999,9999,2105771084
61,6,21,Ticks_Linear_5,68,9999,9999,9999,2106390628
61,6,21,Ticks_Linear_5,69,9999,9999,9999,2107000928
61,6,21,Ticks_Linear_5,70,9999,9999,9999,2107620452
61,6,21,Ticks_Linear_5,71,9999,9999,9999,2108240968
61,6,21,Ticks_Linear_5,72,9999,9999,9999,2108860488
61,6,21,Ticks_Linear_5,73,9999,9999,9999,2109481076
61,6,21,Ticks_Linear_5,74,9999,9999,9999,2110100596
61,6,21,Ticks_Linear_5,75,9999,9999,9999,2110730328
61,6,21,Ticks_Linear_5,76,9999,9999,9999,2111360108
61,6,21,Ticks_Linear_5,77,9999,9999,9999,2111990864
61,6,21,Ticks_Linear_5,78,9999,9999,9999,2112620668
61,6,21,Ticks_Linear_5,79,9999,9999,9999,2113250372
61,6,21,Ticks_Linear_5,80,9999,9999,9999,2113890360
61,6,21,Ticks_Linear_5,81,9999,9999,9999,2114530388
61,6,21,Ticks_Linear_5,82,9999,9999,9999,2115170380
61,6,21,Ticks_Linear_5,83,9999,9999,9999,2115810420
61,6,21,Ticks_Linear_5,84,9999,9999,9999,2116450408
61,6,21,Ticks_Linear_5,85,9999,9999,9999,2117100632
61,6,21,Ticks_Linear_5,86,9999,9999,9999,2117750880
61,6,21,Ticks_Linear_5,87,9999,9999,9999,2118400056
61,6,21,Ticks_Linear_5,88,9999,9999,9999,2119050304
61,6,21,Ticks_Linear_5,89,9999,9999,9999,2119700536
61,6,21,Ticks_Linear_5,90,9999,9999,9999,2120361032
61,6,21,Ticks_Linear_5,91,9999,9999,9999,2121020492
61,6,21,Ticks_Linear_5,92,9999,9999,9999,2121680976
61,6,21,Ticks_Linear_5,93,9999,9999,9999,2122340420
61,6,21,Ticks_Linear_5,94,9999,9999,9999,2123000904
61,6,21,Ticks_Linear_5,95,9999,9999,9999,2123670624
61,6,21,Ticks_Linear_5,96,9999,9999,9999,2124340344
61,6,21,Ticks_Linear_5,97,9999,9999,9999,2125011008
61,6,21,Ticks_Linear_5,98,9999,9999,9999,2125680728
61,6,21,Ticks_Linear_5,99,9999,9999,9999,2126350460
61,6,21,Ticks_Linear_5,100,9999,9999,9999,2127030328
61,6,21,Ticks_Linear_5,101,9999,9999,9999,2127710300
61,6,21,Ticks_Linear_5,102,9999,9999,9999,2128390204
61,6,21,Ticks_Linear_5,103,9999,9999,9999,2129070156
61,6,21,Ticks_Linear_5,104,9999,9999,9999,2129750112
61,6,21,Ticks_Linear_5,105,9999,9999,9999,2130440272
61,6,21,Ticks_Linear_5,106,9999,9999,9999,2131130484
61,6,21,Ticks_Linear_5,107,9999,9999,9999,2131820648
61,6,21,Ticks_Linear_5,108,9999,9999,9999,2132510812
61,6,21,Ticks_Linear_5,109,9999,9999,9999,2133201024
61,6,21,Ticks_Linear_5,110,9999,9999,9999,2133900404
61,6,21,Ticks_Linear_5,111,9999,9999,9999,2134600824
61,6,21,Ticks_Linear_5,112,9999,9999,9999,2135300200
61,6,21,Ticks_Linear_5,113,9999,9999,9999,2136000600
61,6,21,Ticks_Linear_5,114,9999,9999,9999,2136701020
61,6,21,Ticks_Linear_5,115,9999,9999,9999,2137410656
61,6,21,Ticks_Linear_5,116,9999,9999,9999,2138120288
61,6,21,Ticks_Linear_5,117,9999,9999,9999,2138830944
61,6,21,Ticks_Linear_5,118,9999,9999,9999,2139540560
61,6,21,Ticks_Linear_5,119,9999,9999,9999,2140250196
61,6,21,Ticks_Linear_5,120,9999,9999,9999,2140971076
61,6,21,Ticks_Linear_5,121,9999,9999,9999,2141700164
61,6,21,Ticks_Linear_5,122,9999,9999,9999,2142421080
61,6,21,Ticks_Linear_5,123,9999,9999,9999,2143140976
61,6,21,Ticks_Linear_5,124,9999,9999,9999,2143860796
61,6,21,Ticks_Linear_5,125,9999,9999,9999,2144590948
61,6,21,Ticks_Linear_5,126,9999,9999,9999,2145321024
61,6,21,Ticks_Linear_5,127,9999,9999,9999,2146050120
61,6,21,Ticks_Linear_5,128,9999,9999,9999,2146780272
61,6,21,Ticks_Linear_5,129,9999,9999,9999,2147510356
61,6,21,Ticks_Linear_5,130,9999,9999,9999,2148250692
61,6,21,Ticks_Linear_5,131,9999,9999,9999,2148991104
61,6,21,Ticks_Linear_5,132,9999,9999,9999,2149730392
61,6,21,Ticks_Linear_5,133,9999,9999,9999,2150470712
61,6,21,Ticks_Linear_5,134,9999,9999,9999,2151211124
61,6,21,Ticks_Linear_5,135,9999,9999,9999,2151970932
61,6,21,Ticks_Linear_5,136,9999,9999,9999,2152720480
61,6,21,Ticks_Linear_5,137,9999,9999,9999,2153471052
61,6,21,Ticks_Linear_5,138,9999,9999,9999,2154220668
61,6,21,Ticks_Linear_5,139,9999,9999,9999,2154970216
61,6,21,Ticks_Linear_5,140,9999,9999,9999,2155730996
61,6,21,Ticks_Linear_5,141,9999,9999,9999,2156490808
61,6,21,Ticks_Linear_5,142,9999,9999,9999,2157250616
61,6,21,Ticks_Linear_5,143,9999,9999,9999,2158010484
61,6,21,Ticks_Linear_5,144,9999,9999,9999,2158770292
61,6,21,Ticks_Linear_5,145,9999,9999,9999,2159540288
61,6,21,Ticks_Linear_5,146,9999,9999,9999,2160310356
61,6,21,Ticks_Linear_5,147,9999,9999,9999,2161080436
61,6,21,Ticks_Linear_5,148,9999,9999,9999,2161850432
61,6,21,Ticks_Linear_5,149,9999,9999,9999,2162620496
61,6,21,Ticks_Linear_5,150,9999,9999,9999,2163400824
61,6,21,Ticks_Linear_5,151,9999,9999,9999,2164181076
61,6,21,Ticks_Linear_5,152,9999,9999,9999,2164960356
61,6,21,Ticks_Linear_5,153,9999,9999,9999,2165740608
61,6,21,Ticks_Linear_5,154,9999,9999,9999,2166520916
61,6,21,Ticks_Linear_5,155,9999,9999,9999,2167310408
61,6,21,Ticks_Linear_5,156,9999,9999,9999,2168100920
61,6,21,Ticks_Linear_5,157,9999,9999,9999,2168890460
61,6,21,Ticks_Linear_5,158,9999,9999,9999,2169680984
61,6,21,Ticks_Linear_5,159,9999,9999,9999,2170470508
61,6,21,Ticks_Linear_5,160,9999,9999,9999,2171270232
61,6,21,Ticks_Linear_5,161,9999,9999,9999,2172071004
61,6,21,Ticks_Linear_5,162,9999,9999,9999,2172870728
61,6,21,Ticks_Linear_5,163,9999,9999,9999,2173670524
61,6,21,Ticks_Linear_5,164,9999,9999,9999,2174470212
61,6,21,Ticks_Linear_5,165,9999,9999,9999,2175280256
61,6,21,Ticks_Linear_5,166,9999,9999,9999,2176090236
61,6,21,Ticks_Linear_5,167,9999,9999,9999,2176900160
61,6,21,Ticks_Linear_5,168,9999,9999,9999,2177710140
61,6,21,Ticks_Linear_5,169,9999,9999,9999,2178520124
61,7,20,Ticks_Linear_8,0,5,42,127,2190210352
61,7,20,Ticks_Linear_8,1,1,48,27,2190874872
61,7,20,Ticks_Linear_8,2,5,42,127,2191040028
61,7,20,Ticks_Linear_8,3,5,42,127,2191860216
61,7,20,Ticks_Linear_8,4,1,48,24,2191933756
61,7,20,Ticks_Linear_8,5,5,42,127,2192680260
61,7,20,Ticks_Linear_8,6,1,48,41,2192712136
61,7,20,Ticks_Linear_8,7,5,42,127,2193499384
61,7,20,Ticks_Linear_8,8,1,48,47,2193515076
61,7,20,Ticks_Linear_8,9,1,48,40,2194296800
61,7,20,Ticks_Linear_8,10,5,42,127,2194309360
61,7,20,Ticks_Linear_8,11,1,48,43,2195067840
61,7,20,Ticks_Linear_8,12,5,42,127,2195119416
61,7,20,Ticks_Linear_8,13,1,48,43,2195881208
61,7,20,Ticks_Linear_8,14,5,42,127,2195929324
61,7,20,Ticks_Linear_8,15,1,48,44,2196681976
61,7,20,Ticks_Linear_8,16,5,42,127,2196739332
61,7,20,Ticks_Linear_8,17,1,48,43,2197488068
61,7,20,Ticks_Linear_8,18,5,42,127,2197549388
61,7,20,Ticks_Linear_8,19,5,42,127,2198350168
61,7,20,Ticks_Linear_8,20,1,48,38,2198359060
61,7,20,Ticks_Linear_8,21,5,42,127,2199149964
61,7,20,Ticks_Linear_8,22,1,48,50,2199192324
61,7,20,Ticks_Linear_8,23,5,42,127,2199949764
61,7,20,Ticks_Linear_8,24,1,48,39,2199974000
61,7,20,Ticks_Linear_8,25,5,42,127,2200749416
61,7,20,Ticks_Linear_8,26,1,48,40,2200753284
61,7,20,Ticks_Linear_8,27,1,48,41,2201537024
61,7,20,Ticks_Linear_8,28,5,42,127,2201550104
61,7,20,Ticks_Linear_8,29,5,42,127,2202339800
61,7,20,Ticks_Linear_8,30,1,48,43,2202354596
61,7,20,Ticks_Linear_8,31,1,48,40,2203128416
61,7,20,Ticks_Linear_8,32,5,42,127,2203130080
61,7,20,Ticks_Linear_8,33,1,48,49,2203907628
61,7,20,Ticks_Linear_8,34,5,42,127,2203919940
61,7,20,Ticks_Linear_8,35,1,48,55,2204670772
61,7,20,Ticks_Linear_8,36,5,42,127,2204710228
61,7,20,Ticks_Linear_8,37,1,48,48,2205487900
61,7,20,Ticks_Linear_8,38,5,42,127,2205499696
61,7,20,Ticks_Linear_8,39,5,42,127,2206280104
61,7,20,Ticks_Linear_8,40,1,48,40,2206312280
61,7,20,Ticks_Linear_8,41,1,48,45,2207049080
61,7,20,Ticks_Linear_8,42,5,42,127,2207060424
61,7,20,Ticks_Linear_8,43,5,42,127,2207839712
61,7,20,Ticks_Linear_8,44,1,48,47,2207842684
61,7,20,Ticks_Linear_8,45,5,42,127,2208619964
61,7,20,Ticks_Linear_8,46,1,48,48,2208623084
61,7,20,Ticks_Linear_8,47,5,42,127,2209400068
61,7,20,Ticks_Linear_8,48,1,48,50,2209412696
61,7,20,Ticks_Linear_8,49,5,42,127,2210170360
61,7,20,Ticks_Linear_8,50,1,48,45,2210202532
61,7,20,Ticks_Linear_8,51,1,48,46,2210904208
61,7,20,Ticks_Linear_8,52,5,42,127,2210940196
61,7,20,Ticks_Linear_8,53,5,42,127,2211710272
61,7,20,Ticks_Linear_8,54,1,48,28,2211752704
61,7,20,Ticks_Linear_8,55,5,42,127,2212480488
61,7,20,Ticks_Linear_8,56,1,48,51,2212504200
61,7,20,Ticks_Linear_8,57,5,42,127,2213250484
61,7,20,Ticks_Linear_8,58,1,48,48,2213257804
61,7,20,Ticks_Linear_8,59,5,42,127,2214019580
61,7,20,Ticks_Linear_8,60,1,48,51,2214042844
61,7,20,Ticks_Linear_8,61,5,42,127,2214780212
61,7,20,Ticks_Linear_8,62,1,48,45,2214807756
61,7,20,Ticks_Linear_8,63,5,42,127,2215540096
61,7,20,Ticks_Linear_8,64,1,48,42,2215603572
61,7,20,Ticks_Linear_8,65,5,42,127,2216299828
61,7,20,Ticks_Linear_8,66,1,48,45,2216335744
61,7,20,Ticks_Linear_8,67,1,48,28,2217059936
61,7,20,Ticks_Linear_8,68,5,42,127,2217061200
61,7,20,Ticks_Linear_8,69,5,42,127,2217810384
61,7,20,Ticks_Linear_8,70,1,48,50,2217833272
61,7,20,Ticks_Linear_8,71,5,42,127,2218559856
61,7,20,Ticks_Linear_8,72,1,48,54,2218616736
61,7,20,Ticks_Linear_8,73,5,42,127,2219309704
61,7,20,Ticks_Linear_8,74,1,48,40,2219348328
61,7,20,Ticks_Linear_8,75,5,42,127,2220059928
61,7,20,Ticks_Linear_8,76,1,48,48,2220085208
61,7,20,Ticks_Linear_8,77,5,42,127,2220809556
61,7,20,Ticks_Linear_8,78,1,48,46,2220845692
61,7,20,Ticks_Linear_8,79,5,42,127,2221549940
61,7,20,Ticks_Linear_8,80,1,48,51,2221556952
61,7,20,Ticks_Linear_8,81,5,42,127,2222290500
61,7,20,Ticks_Linear_8,82,1,48,43,2222294592
61,7,20,Ticks_Linear_8,83,5,42,127,2223029640
61,7,20,Ticks_Linear_8,84,1,48,43,2223037712
61,7,20,Ticks_Linear_8,85,5,42,127,2223770052
61,7,20,Ticks_Linear_8,86,1,48,50,2223781116
61,7,20,Ticks_Linear_8,87,5,42,127,2224510468
61,7,20,Ticks_Linear_8,88,1,48,47,2224540400
61,7,20,Ticks_Linear_8,89,1,48,21,2224614208
61,7,20,Ticks_Linear_8,90,1,48,38,2225231784
61,7,20,Ticks_Linear_8,91,5,42,127,2225240368
61,7,20,Ticks_Linear_8,92,1,48,35,2225952280
61,7,20,Ticks_Linear_8,93,5,42,127,2225979660
61,7,20,Ticks_Linear_8,94,5,42,127,2226709816
61,7,20,Ticks_Linear_8,95,1,48,41,2226730388
61,7,20,Ticks_Linear_8,96,5,42,127,2227440168
61,7,20,Ticks_Linear_8,97,1,48,51,2227478140
61,7,20,Ticks_Linear_8,98,5,42,127,2228170320
61,7,20,Ticks_Linear_8,99,1,48,33,2228206532
61,7,20,Ticks_Linear_8,100,5,42,127,2228889916
61,7,20,Ticks_Linear_8,101,1,48,35,2228900524
61,7,20,Ticks_Linear_8,102,5,42,127,2229609808
61,7,20,Ticks_Linear_8,103,1,48,41,2229634640
61,7,20,Ticks_Linear_8,104,1,48,47,2230290340
61,7,20,Ticks_Linear_8,105,5,42,127,2230329920
61,7,20,Ticks_Linear_8,106,1,48,39,2231014320
61,7,20,Ticks_Linear_8,107,5,42,127,2231049592
61,7,20,Ticks_Linear_8,108,1,48,47,2231742608
61,7,20,Ticks_Linear_8,109,5,42,127,2231769388
61,7,20,Ticks_Linear_8,110,5,42,127,2232480372
61,7,20,Ticks_Linear_8,111,1,48,54,2232490980
61,7,20,Ticks_Linear_8,112,5,42,127,2233189708
61,7,20,Ticks_Linear_8,113,1,48,55,2233263668
61,7,20,Ticks_Linear_8,114,5,42,127,2233900388
61,7,20,Ticks_Linear_8,115,1,48,39,2233919764
61,7,20,Ticks_Linear_8,116,1,48,41,2234606420
61,7,20,Ticks_Linear_8,117,5,42,127,2234610216
61,7,20,Ticks_Linear_8,118,5,42,127,2235319784
61,7,20,Ticks_Linear_8,119,1,48,40,2235327628
61,7,20,Ticks_Linear_8,120,5,42,127,2236020056
61,7,20,Ticks_Linear_8,121,1,48,48,2236061144
61,7,20,Ticks_Linear_8,122,1,48,26,2236119388
61,7,20,Ticks_Linear_8,123,5,42,127,2236719408
61,7,20,Ticks_Linear_8,124,1,48,38,2236721200
61,7,20,Ticks_Linear_8,125,5,42,127,2237420104
61,7,20,Ticks_Linear_8,126,1,48,39,2237425696
61,7,20,Ticks_Linear_8,127,5,42,127,2238120228
61,7,20,Ticks_Linear_8,128,1,48,40,2238136972
61,7,20,Ticks_Linear_8,129,5,42,127,2238819756
61,7,20,Ticks_Linear_8,130,1,48,50,2238840624
61,7,20,Ticks_Linear_8,131,1,48,37,2239506416
61,7,20,Ticks_Linear_8,132,5,42,127,2239510208
61,7,20,Ticks_Linear_8,133,1,48,37,2240191996
61,7,20,Ticks_Linear_8,134,5,42,127,2240200200
61,7,20,Ticks_Linear_8,135,1,48,39,2240872872
61,7,20,Ticks_Linear_8,136,5,42,127,2240890288
61,7,20,Ticks_Linear_8,137,5,42,127,2241580308
61,7,20,Ticks_Linear_8,138,1,48,47,2241592416
61,7,20,Ticks_Linear_8,139,5,42,127,2242269476
61,7,20,Ticks_Linear_8,140,1,48,25,2242279936
61,7,20,Ticks_Linear_8,141,1,48,44,2242914652
61,7,20,Ticks_Linear_8,142,5,42,127,2242949372
61,7,20,Ticks_Linear_8,143,1,48,38,2243596196
61,7,20,Ticks_Linear_8,144,5,42,127,2243629500
61,7,20,Ticks_Linear_8,145,5,42,127,2244310284
61,7,20,Ticks_Linear_8,146,1,48,54,2244351992
61,7,20,Ticks_Linear_8,147,5,42,127,2244990188
61,7,20,Ticks_Linear_8,148,1,48,32,2245011880
61,7,20,Ticks_Linear_8,149,1,48,35,2245641884
61,7,20,Ticks_Linear_8,150,5,42,127,2245670232
61,7,20,Ticks_Linear_8,151,1,48,43,2246333968
61,7,20,Ticks_Linear_8,152,5,42,127,2246339856
61,7,20,Ticks_Linear_8,153,5,42,127,2247010100
61,7,20,Ticks_Linear_8,154,1,48,61,2247033968
61,7,20,Ticks_Linear_8,155,1,48,46,2247674652
61,7,20,Ticks_Linear_8,156,5,42,127,2247680416
61,7,20,Ticks_Linear_8,157,5,42,127,2248349968
61,7,20,Ticks_Linear_8,158,1,48,46,2248351304
61,7,20,Ticks_Linear_8,159,5,42,127,2249019912
61,7,20,Ticks_Linear_8,160,1,48,48,2249020876
61,7,20,Ticks_Linear_8,161,5,42,127,2249680244
61,7,20,Ticks_Linear_8,162,1,48,64,2249734384
61,7,20,Ticks_Linear_8,163,1,48,44,2250297652
61,7,20,Ticks_Linear_8,164,5,42,127,2250339920
61,7,20,Ticks_Linear_8,165,1,48,51,2250878972
61,7,20,Ticks_Linear_8,166,5,42,127,2251000240
61,7,20,Ticks_Linear_8,167,5,42,127,2251659724
61,7,20,Ticks_Linear_8,168,5,42,127,2252320104
61,7,20,Ticks_Linear_8,169,1,48,46,2252377228
61,7,20,Ticks_Linear_8,170,1,48,38,2252930512
61,7,20,Ticks_Linear_8,171,5,42,127,2252970244
61,7,20,Ticks_Linear_8,172,1,48,15,2253585996
61,7,20,Ticks_Linear_8,173,5,42,127,2253619668
61,7,20,Ticks_Linear_8,174,1,48,34,2254211440
61,7,20,Ticks_Linear_8,175,5,42,127,2254269892
61,7,20,Ticks_Linear_8,176,1,48,60,2254906012
61,7,20,Ticks_Linear_8,177,5,42,127,2254919916
61,7,20,Ticks_Linear_8,178,1,48,43,2255564928
61,7,20,Ticks_Linear_8,179,5,42,127,2255570292
61,7,20,Ticks_Linear_8,180,1,48,51,2256200056
61,7,20,Ticks_Linear_8,181,5,42,127,2256210204
61,7,20,Ticks_Linear_8,182,5,42,127,2256850252
61,7,20,Ticks_Linear_8,183,1,48,51,2256864076
61,7,20,Ticks_Linear_8,184,1,48,34,2256914852
61,7,20,Ticks_Linear_8,185,5,42,127,2257490368
61,7,20,Ticks_Linear_8,186,1,48,58,2257550328
61,7,20,Ticks_Linear_8,187,5,42,127,2258130184
61,7,20,Ticks_Linear_8,188,1,48,46,2258166096
61,7,20,Ticks_Linear_8,189,1,48,48,2258760916
61,7,20,Ticks_Linear_8,190,5,42,127,2258770388
61,7,20,Ticks_Linear_8,191,5,42,127,2259400028
61,7,20,Ticks_Linear_8,192,1,48,51,2259416992
61,7,20,Ticks_Linear_8,193,5,42,127,2260029832
61,7,20,Ticks_Linear_8,194,1,48,59,2260084392
61,7,20,Ticks_Linear_8,195,1,48,40,2260649528
61,7,20,Ticks_Linear_8,196,5,42,127,2260659752
61,7,20,Ticks_Linear_8,197,1,48,56,2261276476
61,7,20,Ticks_Linear_8,198,5,42,127,2261290308
61,7,20,Ticks_Linear_8,199,5,42,127,2261920244
61,7,20,Ticks_Linear_8,200,1,48,55,2261940740
61,7,20,Ticks_Linear_8,201,5,42,127,2262539640
61,7,20,Ticks_Linear_8,202,1,48,67,2262610984
61,7,20,Ticks_Linear_8,203,5,42,127,2263160204
61,7,20,Ticks_Linear_8,204,1,48,40,2263234912
61,7,20,Ticks_Linear_8,205,5,42,127,2263779652
61,7,20,Ticks_Linear_8,206,1,48,48,2263797216
61,7,20,Ticks_Linear_8,207,5,42,127,2264400316
61,7,20,Ticks_Linear_8,208,1,48,44,2264419312
61,7,20,Ticks_Linear_8,209,5,42,127,2265019764
61,7,20,Ticks_Linear_8,210,1,48,54,2265050888
61,7,20,Ticks_Linear_8,211,5,42,127,2265630168
61,7,20,Ticks_Linear_8,212,1,48,36,2265631656
61,7,20,Ticks_Linear_8,213,5,42,127,2266240328
61,7,20,Ticks_Linear_8,214,1,48,51,2266248020
61,7,20,Ticks_Linear_8,215,1,48,58,2266837328
61,7,20,Ticks_Linear_8,216,5,42,127,2266849512
61,7,20,Ticks_Linear_8,217,5,42,127,2267459848
61,7,20,Ticks_Linear_8,218,1,48,64,2267486776
61,7,20,Ticks_Linear_8,219,1,48,51,2268066056
61,7,20,Ticks_Linear_8,220,5,42,127,2268070520
61,7,20,Ticks_Linear_8,221,1,48,49,2268661468
61,7,20,Ticks_Linear_8,222,5,42,127,2268670444
61,7,20,Ticks_Linear_8,223,5,42,127,2269270352
61,7,20,Ticks_Linear_8,224,1,48,55,2269286800
61,7,20,Ticks_Linear_8,225,5,42,127,2269869432
61,7,20,Ticks_Linear_8,226,1,48,64,2269919204
61,7,20,Ticks_Linear_8,227,1,48,54,2270438656
61,7,20,Ticks_Linear_8,228,5,42,127,2270469420
61,7,20,Ticks_Linear_8,229,1,48,55,2271041644
61,7,20,Ticks_Linear_8,230,5,42,127,2271069768
61,7,20,Ticks_Linear_8,231,1,48,60,2271660312
61,7,20,Ticks_Linear_8,232,5,42,127,2271661872
61,7,20,Ticks_Linear_8,233,5,42,127,2272250476
61,7,20,Ticks_Linear_8,234,1,48,62,2272290320
61,7,20,Ticks_Linear_8,235,1,48,52,2272821452
61,7,20,Ticks_Linear_8,236,5,42,127,2272840060
61,7,20,Ticks_Linear_8,237,1,48,59,2273400456
61,7,20,Ticks_Linear_8,238,5,42,127,2273429776
61,7,20,Ticks_Linear_8,239,1,48,26,2273461564
61,7,20,Ticks_Linear_8,240,5,42,127,2274019628
61,7,20,Ticks_Linear_8,241,1,48,59,2274031208
61,7,20,Ticks_Linear_8,242,5,42,127,2274600304
61,7,20,Ticks_Linear_8,243,1,48,58,2274637268
61,7,20,Ticks_Linear_8,244,1,48,49,2275135748
61,7,20,Ticks_Linear_8,245,5,42,127,2275179828
61,7,20,Ticks_Linear_8,246,1,48,48,2275720972
61,7,20,Ticks_Linear_8,247,5,42,127,2275759432
61,7,20,Ticks_Linear_8,248,1,48,62,2276328364
61,7,20,Ticks_Linear_8,249,5,42,127,2276340384
61,7,20,Ticks_Linear_8,250,5,42,127,2276919648
61,7,20,Ticks_Linear_8,251,1,48,65,2276930256
61,7,20,Ticks_Linear_8,252,5,42,127,2277490188
61,7,20,Ticks_Linear_8,253,1,48,56,2277497872
61,7,20,Ticks_Linear_8,254,1,48,54,2278048704
61,7,20,Ticks_Linear_8,255,5,42,127,2278060352
61,7,20,Ticks_Linear_8,256,5,42,127,2278629704
61,7,20,Ticks_Linear_8,257,1,48,58,2278670292
61,7,20,Ticks_Linear_8,258,5,42,127,2279200344
61,7,20,Ticks_Linear_8,259,1,48,56,2279271088
61,7,20,Ticks_Linear_8,260,5,42,127,2279769392
61,7,20,Ticks_Linear_8,261,1,48,53,2279833920
61,7,20,Ticks_Linear_8,262,1,48,56,2280326260
61,7,20,Ticks_Linear_8,263,5,42,127,2280329524
61,7,20,Ticks_Linear_8,264,5,42,127,2280889588
61,7,20,Ticks_Linear_8,265,1,48,62,2280897340
61,7,20,Ticks_Linear_8,266,5,42,127,2281449944
61,7,20,Ticks_Linear_8,267,1,48,66,2281489712
61,7,20,Ticks_Linear_8,268,1,48,51,2282009804
61,7,20,Ticks_Linear_8,269,5,42,127,2282011144
61,7,20,Ticks_Linear_8,270,1,48,58,2282556708
61,7,20,Ticks_Linear_8,271,5,42,127,2282570008
61,7,20,Ticks_Linear_8,272,1,48,57,2283087408
61,7,20,Ticks_Linear_8,273,5,42,127,2283120108
61,7,20,Ticks_Linear_8,274,1,48,64,2283668096
61,7,20,Ticks_Linear_8,275,5,42,127,2283669908
61,7,20,Ticks_Linear_8,276,5,42,127,2284219792
61,7,20,Ticks_Linear_8,277,1,48,51,2284227172
61,7,20,Ticks_Linear_8,278,1,48,48,2284767544
61,7,20,Ticks_Linear_8,279,5,42,127,2284769732
61,7,20,Ticks_Linear_8,280,5,42,127,2285319712
61,7,20,Ticks_Linear_8,281,1,48,51,2285329056
61,7,20,Ticks_Linear_8,282,5,42,127,2285860228
61,7,20,Ticks_Linear_8,283,1,48,67,2285886256
61,7,20,Ticks_Linear_8,284,1,48,51,2286349548
61,7,20,Ticks_Linear_8,285,5,42,127,2286400132
61,7,20,Ticks_Linear_8,286,1,48,45,2286920168
61,7,20,Ticks_Linear_8,287,5,42,127,2286939380
61,7,20,Ticks_Linear_8,288,1,48,43,2287446148
61,7,20,Ticks_Linear_8,289,5,42,127,2287480116
61,7,20,Ticks_Linear_8,290,5,42,127,2288020036
61,7,20,Ticks_Linear_8,291,1,48,72,2288023752
61,7,20,Ticks_Linear_8,292,5,42,127,2288550216
61,7,20,Ticks_Linear_8,293,1,48,44,2288600440
61,7,20,Ticks_Linear_8,294,5,42,127,2289079792
61,7,20,Ticks_Linear_8,295,1,48,53,2289097736
61,7,20,Ticks_Linear_8,296,5,42,127,2289610120
61,7,20,Ticks_Linear_8,297,1,48,62,2289618636
61,7,20,Ticks_Linear_8,298,5,42,127,2290139628
61,7,20,Ticks_Linear_8,299,1,48,64,2290168288
61,7,20,Ticks_Linear_8,300,1,48,47,2290622876
61,7,20,Ticks_Linear_8,301,5,42,127,2290670096
61,7,20,Ticks_Linear_8,302,1,48,56,2291188428
61,7,20,Ticks_Linear_8,303,5,42,127,2291190016
61,7,20,Ticks_Linear_8,304,5,42,127,2291710268
61,7,20,Ticks_Linear_8,305,1,48,58,2291753080
61,7,20,Ticks_Linear_8,306,5,42,127,2292229512
61,7,20,Ticks_Linear_8,307,1,48,57,2292265504
61,7,20,Ticks_Linear_8,308,5,42,127,2292749880
61,7,20,Ticks_Linear_8,309,1,48,50,2292754496
61,7,20,Ticks_Linear_8,310,1,48,55,2293265928
61,7,20,Ticks_Linear_8,311,5,42,127,2293270020
61,7,20,Ticks_Linear_8,312,5,42,127,2293779760
61,7,20,Ticks_Linear_8,313,1,48,59,2293797624
61,7,20,Ticks_Linear_8,314,5,42,127,2294289944
61,7,20,Ticks_Linear_8,315,1,48,70,2294347200
61,7,20,Ticks_Linear_8,316,5,42,127,2294799904
61,7,20,Ticks_Linear_8,317,1,48,41,2294825932
61,7,20,Ticks_Linear_8,318,5,42,127,2295309640
61,7,20,Ticks_Linear_8,319,1,48,53,2295335444
61,7,20,Ticks_Linear_8,320,5,42,127,2295819748
61,7,20,Ticks_Linear_8,321,1,48,53,2295822792
61,7,20,Ticks_Linear_8,322,5,42,127,2296320420
61,7,20,Ticks_Linear_8,323,1,48,73,2296354992
61,7,20,Ticks_Linear_8,324,5,42,127,2296820020
61,7,20,Ticks_Linear_8,325,1,48,48,2296837256
61,7,20,Ticks_Linear_8,326,5,42,127,2297319872
61,7,20,Ticks_Linear_8,327,1,48,56,2297329736
61,7,20,Ticks_Linear_8,328,5,42,127,2297819644
61,7,20,Ticks_Linear_8,329,1,48,59,2297845596
61,7,20,Ticks_Linear_8,330,5,42,127,2298320244
61,7,20,Ticks_Linear_8,331,1,48,71,2298337672
61,7,20,Ticks_Linear_8,332,5,42,127,2298809832
61,7,20,Ticks_Linear_8,333,1,48,42,2298820144
61,7,20,Ticks_Linear_8,334,5,42,127,2299300244
61,7,20,Ticks_Linear_8,335,1,48,55,2299305008
61,7,20,Ticks_Linear_8,336,1,48,57,2299753312
61,7,20,Ticks_Linear_8,337,5,42,127,2299789752
61,7,20,Ticks_Linear_8,338,5,42,127,2300280176
61,7,20,Ticks_Linear_8,339,1,48,65,2300286880
61,7,20,Ticks_Linear_8,340,1,48,48,2300759464
61,7,20,Ticks_Linear_8,341,5,42,127,2300769536
61,7,20,Ticks_Linear_8,0,9999,9999,9999,2190208128
61,7,20,Ticks_Linear_8,1,9999,9999,9999,2191037504
61,7,20,Ticks_Linear_8,2,9999,9999,9999,2191857772
61,7,20,Ticks_Linear_8,3,9999,9999,9999,2192677960
61,7,20,Ticks_Linear_8,4,9999,9999,9999,2193497160
61,7,20,Ticks_Linear_8,5,9999,9999,9999,2194307136
61,7,20,Ticks_Linear_8,6,9999,9999,9999,2195117116
61,7,20,Ticks_Linear_8,7,9999,9999,9999,2195927100
61,7,20,Ticks_Linear_8,8,9999,9999,9999,2196737108
61,7,20,Ticks_Linear_8,9,9999,9999,9999,2197547092
61,7,20,Ticks_Linear_8,10,9999,9999,9999,2198347868
61,7,20,Ticks_Linear_8,11,9999,9999,9999,2199147592
61,7,20,Ticks_Linear_8,12,9999,9999,9999,2199947392
61,7,20,Ticks_Linear_8,13,9999,9999,9999,2200747116
61,7,20,Ticks_Linear_8,14,9999,9999,9999,2201547880
61,7,20,Ticks_Linear_8,15,9999,9999,9999,2202337352
61,7,20,Ticks_Linear_8,16,9999,9999,9999,2203127880
61,7,20,Ticks_Linear_8,17,9999,9999,9999,2203917420
61,7,20,Ticks_Linear_8,18,9999,9999,9999,2204707932
61,7,20,Ticks_Linear_8,19,9999,9999,9999,2205497396
61,7,20,Ticks_Linear_8,20,9999,9999,9999,2206277732
61,7,20,Ticks_Linear_8,21,9999,9999,9999,2207057976
61,7,20,Ticks_Linear_8,22,9999,9999,9999,2207837264
61,7,20,Ticks_Linear_8,23,9999,9999,9999,2208617592
61,7,20,Ticks_Linear_8,24,9999,9999,9999,2209397844
61,7,20,Ticks_Linear_8,25,9999,9999,9999,2210167912
61,7,20,Ticks_Linear_8,26,9999,9999,9999,2210937972
61,7,20,Ticks_Linear_8,27,9999,9999,9999,2211707972
61,7,20,Ticks_Linear_8,28,9999,9999,9999,2212478040
61,7,20,Ticks_Linear_8,29,9999,9999,9999,2213248112
61,7,20,Ticks_Linear_8,30,9999,9999,9999,2214017132
61,7,20,Ticks_Linear_8,31,9999,9999,9999,2214777916
61,7,20,Ticks_Linear_8,32,9999,9999,9999,2215537724
61,7,20,Ticks_Linear_8,33,9999,9999,9999,2216297532
61,7,20,Ticks_Linear_8,34,9999,9999,9999,2217057340
61,7,20,Ticks_Linear_8,35,9999,9999,9999,2217807936
61,7,20,Ticks_Linear_8,36,9999,9999,9999,2218557560
61,7,20,Ticks_Linear_8,37,9999,9999,9999,2219307108
61,7,20,Ticks_Linear_8,38,9999,9999,9999,2220057704
61,7,20,Ticks_Linear_8,39,9999,9999,9999,2220807256
61,7,20,Ticks_Linear_8,40,9999,9999,9999,2221547644
61,7,20,Ticks_Linear_8,41,9999,9999,9999,2222287980
61,7,20,Ticks_Linear_8,42,9999,9999,9999,2223027268
61,7,20,Ticks_Linear_8,43,9999,9999,9999,2223767608
61,7,20,Ticks_Linear_8,44,9999,9999,9999,2224508016
61,7,20,Ticks_Linear_8,45,9999,9999,9999,2225238144
61,7,20,Ticks_Linear_8,46,9999,9999,9999,2225977436
61,7,20,Ticks_Linear_8,47,9999,9999,9999,2226707520
61,7,20,Ticks_Linear_8,48,9999,9999,9999,2227437648
61,7,20,Ticks_Linear_8,49,9999,9999,9999,2228167796
61,7,20,Ticks_Linear_8,50,9999,9999,9999,2228887616
61,7,20,Ticks_Linear_8,51,9999,9999,9999,2229607512
61,7,20,Ticks_Linear_8,52,9999,9999,9999,2230327400
61,7,20,Ticks_Linear_8,53,9999,9999,9999,2231047292
61,7,20,Ticks_Linear_8,54,9999,9999,9999,2231767164
61,7,20,Ticks_Linear_8,55,9999,9999,9999,2232477776
61,7,20,Ticks_Linear_8,56,9999,9999,9999,2233187408
61,7,20,Ticks_Linear_8,57,9999,9999,9999,2233898092
61,7,20,Ticks_Linear_8,58,9999,9999,9999,2234607696
61,7,20,Ticks_Linear_8,59,9999,9999,9999,2235317336
61,7,20,Ticks_Linear_8,60,9999,9999,9999,2236017756
61,7,20,Ticks_Linear_8,61,9999,9999,9999,2236717112
61,7,20,Ticks_Linear_8,62,9999,9999,9999,2237417584
61,7,20,Ticks_Linear_8,63,9999,9999,9999,2238118004
61,7,20,Ticks_Linear_8,64,9999,9999,9999,2238817380
61,7,20,Ticks_Linear_8,65,9999,9999,9999,2239507540
61,7,20,Ticks_Linear_8,66,9999,9999,9999,2240197752
61,7,20,Ticks_Linear_8,67,9999,9999,9999,2240887916
61,7,20,Ticks_Linear_8,68,9999,9999,9999,2241578084
61,7,20,Ticks_Linear_8,69,9999,9999,9999,2242267252
61,7,20,Ticks_Linear_8,70,9999,9999,9999,2242947148
61,7,20,Ticks_Linear_8,71,9999,9999,9999,2243627128
61,7,20,Ticks_Linear_8,72,9999,9999,9999,2244308060
61,7,20,Ticks_Linear_8,73,9999,9999,9999,2244987964
61,7,20,Ticks_Linear_8,74,9999,9999,9999,2245667936
61,7,20,Ticks_Linear_8,75,9999,9999,9999,2246337632
61,7,20,Ticks_Linear_8,76,9999,9999,9999,2247007356
61,7,20,Ticks_Linear_8,77,9999,9999,9999,2247678040
61,7,20,Ticks_Linear_8,78,9999,9999,9999,2248347744
61,7,20,Ticks_Linear_8,79,9999,9999,9999,2249017464
61,7,20,Ticks_Linear_8,80,9999,9999,9999,2249677944
61,7,20,Ticks_Linear_8,81,9999,9999,9999,2250337396
61,7,20,Ticks_Linear_8,82,9999,9999,9999,2250997868
61,7,20,Ticks_Linear_8,83,9999,9999,9999,2251657276
61,7,20,Ticks_Linear_8,84,9999,9999,9999,2252317804
61,7,20,Ticks_Linear_8,85,9999,9999,9999,2252968020
61,7,20,Ticks_Linear_8,86,9999,9999,9999,2253617220
61,7,20,Ticks_Linear_8,87,9999,9999,9999,2254267444
61,7,20,Ticks_Linear_8,88,9999,9999,9999,2254917692
61,7,20,Ticks_Linear_8,89,9999,9999,9999,2255567992
61,7,20,Ticks_Linear_8,90,9999,9999,9999,2256207980
61,7,20,Ticks_Linear_8,91,9999,9999,9999,2256847952
61,7,20,Ticks_Linear_8,92,9999,9999,9999,2257487996
61,7,20,Ticks_Linear_8,93,9999,9999,9999,2258127960
61,7,20,Ticks_Linear_8,94,9999,9999,9999,2258767940
61,7,20,Ticks_Linear_8,95,9999,9999,9999,2259397728
61,7,20,Ticks_Linear_8,96,9999,9999,9999,2260027456
61,7,20,Ticks_Linear_8,97,9999,9999,9999,2260657232
61,7,20,Ticks_Linear_8,98,9999,9999,9999,2261288008
61,7,20,Ticks_Linear_8,99,9999,9999,9999,2261917796
61,7,20,Ticks_Linear_8,100,9999,9999,9999,2262537340
61,7,20,Ticks_Linear_8,101,9999,9999,9999,2263157832
61,7,20,Ticks_Linear_8,102,9999,9999,9999,2263777352
61,7,20,Ticks_Linear_8,103,9999,9999,9999,2264397944
61,7,20,Ticks_Linear_8,104,9999,9999,9999,2265017464
61,7,20,Ticks_Linear_8,105,9999,9999,9999,2265627720
61,7,20,Ticks_Linear_8,106,9999,9999,9999,2266238028
61,7,20,Ticks_Linear_8,107,9999,9999,9999,2266847284
61,7,20,Ticks_Linear_8,108,9999,9999,9999,2267457624
61,7,20,Ticks_Linear_8,109,9999,9999,9999,2268067924
61,7,20,Ticks_Linear_8,110,9999,9999,9999,2268667972
61,7,20,Ticks_Linear_8,111,9999,9999,9999,2269268056
61,7,20,Ticks_Linear_8,112,9999,9999,9999,2269867132
61,7,20,Ticks_Linear_8,113,9999,9999,9999,2270467196
61,7,20,Ticks_Linear_8,114,9999,9999,9999,2271067244
61,7,20,Ticks_Linear_8,115,9999,9999,9999,2271658088
61,7,20,Ticks_Linear_8,116,9999,9999,9999,2272247880
61,7,20,Ticks_Linear_8,117,9999,9999,9999,2272837688
61,7,20,Ticks_Linear_8,118,9999,9999,9999,2273427552
61,7,20,Ticks_Linear_8,119,9999,9999,9999,2274017404
61,7,20,Ticks_Linear_8,120,9999,9999,9999,2274598004
61,7,20,Ticks_Linear_8,121,9999,9999,9999,2275177528
61,7,20,Ticks_Linear_8,122,9999,9999,9999,2275757136
61,7,20,Ticks_Linear_8,123,9999,9999,9999,2276337788
61,7,20,Ticks_Linear_8,124,9999,9999,9999,2276917348
61,7,20,Ticks_Linear_8,125,9999,9999,9999,2277487740
61,7,20,Ticks_Linear_8,126,9999,9999,9999,2278058052
61,7,20,Ticks_Linear_8,127,9999,9999,9999,2278627404
61,7,20,Ticks_Linear_8,128,9999,9999,9999,2279197820
61,7,20,Ticks_Linear_8,129,9999,9999,9999,2279767096
61,7,20,Ticks_Linear_8,130,9999,9999,9999,2280327224
61,7,20,Ticks_Linear_8,131,9999,9999,9999,2280887364
61,7,20,Ticks_Linear_8,132,9999,9999,9999,2281447496
61,7,20,Ticks_Linear_8,133,9999,9999,9999,2282007656
61,7,20,Ticks_Linear_8,134,9999,9999,9999,2282567784
61,7,20,Ticks_Linear_8,135,9999,9999,9999,2283117660
61,7,20,Ticks_Linear_8,136,9999,9999,9999,2283667560
61,7,20,Ticks_Linear_8,137,9999,9999,9999,2284217416
61,7,20,Ticks_Linear_8,138,9999,9999,9999,2284767324
61,7,20,Ticks_Linear_8,139,9999,9999,9999,2285317192
61,7,20,Ticks_Linear_8,140,9999,9999,9999,2285857856
61,7,20,Ticks_Linear_8,141,9999,9999,9999,2286397536
61,7,20,Ticks_Linear_8,142,9999,9999,9999,2286937156
61,7,20,Ticks_Linear_8,143,9999,9999,9999,2287477816
61,7,20,Ticks_Linear_8,144,9999,9999,9999,2288017512
61,7,20,Ticks_Linear_8,145,9999,9999,9999,2288547916
61,7,20,Ticks_Linear_8,146,9999,9999,9999,2289077344
61,7,20,Ticks_Linear_8,147,9999,9999,9999,2289607748
61,7,20,Ticks_Linear_8,148,9999,9999,9999,2290137180
61,7,20,Ticks_Linear_8,149,9999,9999,9999,2290667576
61,7,20,Ticks_Linear_8,150,9999,9999,9999,2291187804
61,7,20,Ticks_Linear_8,151,9999,9999,9999,2291707968
61,7,20,Ticks_Linear_8,152,9999,9999,9999,2292227140
61,7,20,Ticks_Linear_8,153,9999,9999,9999,2292747360
61,7,20,Ticks_Linear_8,154,9999,9999,9999,2293267572
61,7,20,Ticks_Linear_8,155,9999,9999,9999,2293777460
61,7,20,Ticks_Linear_8,156,9999,9999,9999,2294287420
61,7,20,Ticks_Linear_8,157,9999,9999,9999,2294797380
61,7,20,Ticks_Linear_8,158,9999,9999,9999,2295307340
61,7,20,Ticks_Linear_8,159,9999,9999,9999,2295817300
61,7,20,Ticks_Linear_8,160,9999,9999,9999,2296318048
61,7,20,Ticks_Linear_8,161,9999,9999,9999,2296817724
61,7,20,Ticks_Linear_8,162,9999,9999,9999,2297317496
61,7,20,Ticks_Linear_8,163,9999,9999,9999,2297817196
61,7,20,Ticks_Linear_8,164,9999,9999,9999,2298317944
61,7,20,Ticks_Linear_8,165,9999,9999,9999,2298807384
61,7,20,Ticks_Linear_8,166,9999,9999,9999,2299297872
61,7,20,Ticks_Linear_8,167,9999,9999,9999,2299787380
61,7,20,Ticks_Linear_8,168,9999,9999,9999,2300277876
61,7,20,Ticks_Linear_8,169,9999,9999,9999,2300767312
61,8,10,Ticks_ISO_T2_5,0,5,42,127,2312196456
61,8,10,Ticks_ISO_T2_5,1,5,42,127,2312697268
61,8,10,Ticks_ISO_T2_5,2,5,42,127,2313196832
61,8,10,Ticks_ISO_T2_5,3,5,42,127,2313696700
61,8,10,Ticks_ISO_T2_5,4,1,48,50,2314188300
61,8,10,Ticks_ISO_T2_5,5,5,42,127,2314197308
61,8,10,Ticks_ISO_T2_5,6,1,48,50,2314696328
61,8,10,Ticks_ISO_T2_5,7,5,42,127,2314697900
61,8,10,Ticks_ISO_T2_5,8,1,48,49,2315173548
61,8,10,Ticks_ISO_T2_5,9,5,42,127,2315196772
61,8,10,Ticks_ISO_T2_5,10,1,48,53,2315657836
61,8,10,Ticks_ISO_T2_5,11,5,42,127,2315696468
61,8,10,Ticks_ISO_T2_5,12,1,48,52,2316188200
61,8,10,Ticks_ISO_T2_5,13,5,42,127,2316197432
61,8,10,Ticks_ISO_T2_5,14,1,48,48,2316684676
61,8,10,Ticks_ISO_T2_5,15,5,42,127,2316696828
61,8,10,Ticks_ISO_T2_5,16,1,48,54,2317167020
61,8,10,Ticks_ISO_T2_5,17,5,42,127,2317196672
61,8,10,Ticks_ISO_T2_5,18,1,48,55,2317657292
61,8,10,Ticks_ISO_T2_5,19,5,42,127,2317697268
61,8,10,Ticks_ISO_T2_5,20,1,48,55,2318159304
61,8,10,Ticks_ISO_T2_5,21,5,42,127,2318197112
61,8,10,Ticks_ISO_T2_5,22,1,48,49,2318678448
61,8,10,Ticks_ISO_T2_5,23,5,42,127,2318696956
61,8,10,Ticks_ISO_T2_5,24,1,48,55,2319160864
61,8,10,Ticks_ISO_T2_5,25,5,42,127,2319196500
61,8,10,Ticks_ISO_T2_5,26,1,48,59,2319666244
61,8,10,Ticks_ISO_T2_5,27,5,42,127,2319697244
61,8,10,Ticks_ISO_T2_5,28,1,48,51,2320171252
61,8,10,Ticks_ISO_T2_5,29,5,42,127,2320197092
61,8,10,Ticks_ISO_T2_5,30,1,48,51,2320655160
61,8,10,Ticks_ISO_T2_5,31,5,42,127,2320696636
61,8,10,Ticks_ISO_T2_5,32,1,48,51,2321189940
61,8,10,Ticks_ISO_T2_5,33,5,42,127,2321197452
61,8,10,Ticks_ISO_T2_5,34,5,42,127,2321697228
61,8,10,Ticks_ISO_T2_5,35,1,48,46,2321705356
61,8,10,Ticks_ISO_T2_5,36,1,48,51,2322191424
61,8,10,Ticks_ISO_T2_5,37,5,42,127,2322196768
61,8,10,Ticks_ISO_T2_5,38,1,48,57,2322688648
61,8,10,Ticks_ISO_T2_5,39,5,42,127,2322696540
61,8,10,Ticks_ISO_T2_5,40,1,48,57,2323194696
61,8,10,Ticks_ISO_T2_5,41,5,42,127,2323197352
61,8,10,Ticks_ISO_T2_5,42,1,48,56,2323696808
61,8,10,Ticks_ISO_T2_5,43,5,42,127,2323698296
61,8,10,Ticks_ISO_T2_5,44,5,42,127,2324196652
61,8,10,Ticks_ISO_T2_5,45,1,48,49,2324199696
61,8,10,Ticks_ISO_T2_5,46,5,42,127,2324696344
61,8,10,Ticks_ISO_T2_5,47,1,48,50,2324700512
61,8,10,Ticks_ISO_T2_5,48,1,48,53,2325190016
61,8,10,Ticks_ISO_T2_5,49,5,42,127,2325197156
61,8,10,Ticks_ISO_T2_5,50,1,48,55,2325696932
61,8,10,Ticks_ISO_T2_5,51,5,42,127,2325698268
61,8,10,Ticks_ISO_T2_5,52,5,42,127,2326196700
61,8,10,Ticks_ISO_T2_5,53,1,48,48,2326205652
61,8,10,Ticks_ISO_T2_5,54,1,48,51,2326669128
61,8,10,Ticks_ISO_T2_5,55,5,42,127,2326697284
61,8,10,Ticks_ISO_T2_5,56,1,48,53,2327190664
61,8,10,Ticks_ISO_T2_5,57,5,42,127,2327197128
61,8,10,Ticks_ISO_T2_5,58,1,48,48,2327682428
61,8,10,Ticks_ISO_T2_5,59,5,42,127,2327696676
61,8,10,Ticks_ISO_T2_5,60,5,42,127,2328196376
61,8,10,Ticks_ISO_T2_5,61,1,48,52,2328210640
61,8,10,Ticks_ISO_T2_5,62,5,42,127,2328697192
61,8,10,Ticks_ISO_T2_5,63,1,48,45,2328716692
61,8,10,Ticks_ISO_T2_5,64,5,42,127,2329197036
61,8,10,Ticks_ISO_T2_5,65,1,48,37,2329211976
61,8,10,Ticks_ISO_T2_5,66,5,42,127,2329696580
61,8,10,Ticks_ISO_T2_5,67,1,48,46,2329703516
61,8,10,Ticks_ISO_T2_5,68,5,42,127,2330197248
61,8,10,Ticks_ISO_T2_5,69,1,48,57,2330205076
61,8,10,Ticks_ISO_T2_5,70,5,42,127,2330697092
61,8,10,Ticks_ISO_T2_5,71,1,48,46,2330701860
61,8,10,Ticks_ISO_T2_5,72,1,48,52,2331177524
61,8,10,Ticks_ISO_T2_5,73,5,42,127,2331196856
61,8,10,Ticks_ISO_T2_5,74,1,48,53,2331690012
61,8,10,Ticks_ISO_T2_5,75,5,42,127,2331696476
61,8,10,Ticks_ISO_T2_5,76,5,42,127,2332197376
61,8,10,Ticks_ISO_T2_5,77,1,48,60,2332223756
61,8,10,Ticks_ISO_T2_5,78,5,42,127,2332696848
61,8,10,Ticks_ISO_T2_5,79,1,48,59,2332697816
61,8,10,Ticks_ISO_T2_5,80,1,48,55,2333192388
61,8,10,Ticks_ISO_T2_5,81,5,42,127,2333196760
61,8,10,Ticks_ISO_T2_5,82,1,48,54,2333697580
61,8,10,Ticks_ISO_T2_5,83,5,42,127,2333698992
61,8,10,Ticks_ISO_T2_5,84,5,42,127,2334196952
61,8,10,Ticks_ISO_T2_5,85,1,48,62,2334221260
61,8,10,Ticks_ISO_T2_5,86,5,42,127,2334696948
61,8,10,Ticks_ISO_T2_5,87,1,48,54,2334700364
61,8,10,Ticks_ISO_T2_5,88,5,42,127,2335196416
61,8,10,Ticks_ISO_T2_5,89,1,48,56,2335210008
61,8,10,Ticks_ISO_T2_5,90,5,42,127,2335697308
61,8,10,Ticks_ISO_T2_5,91,1,48,54,2335715908
61,8,10,Ticks_ISO_T2_5,92,5,42,127,2336196856
61,8,10,Ticks_ISO_T2_5,93,1,48,65,2336218072
61,8,10,Ticks_ISO_T2_5,94,5,42,127,2336696696
61,8,10,Ticks_ISO_T2_5,95,1,48,44,2336701688
61,8,10,Ticks_ISO_T2_5,96,1,48,54,2337184604
61,8,10,Ticks_ISO_T2_5,97,5,42,127,2337197284
61,8,10,Ticks_ISO_T2_5,98,1,48,58,2337683924
61,8,10,Ticks_ISO_T2_5,99,5,42,127,2337697272
61,8,10,Ticks_ISO_T2_5,100,5,42,127,2338196900
61,8,10,Ticks_ISO_T2_5,101,1,48,66,2338202788
61,8,10,Ticks_ISO_T2_5,102,1,48,46,2338685112
61,8,10,Ticks_ISO_T2_5,103,5,42,127,2338696812
61,8,10,Ticks_ISO_T2_5,104,1,48,61,2339165360
61,8,10,Ticks_ISO_T2_5,105,5,42,127,2339197256
61,8,10,Ticks_ISO_T2_5,106,1,48,59,2339671192
61,8,10,Ticks_ISO_T2_5,107,5,42,127,2339697100
61,8,10,Ticks_ISO_T2_5,108,1,48,72,2340177168
61,8,10,Ticks_ISO_T2_5,109,5,42,127,2340196872
61,8,10,Ticks_ISO_T2_5,110,1,48,55,2340661976
61,8,10,Ticks_ISO_T2_5,111,5,42,127,2340696792
61,8,10,Ticks_ISO_T2_5,112,1,48,60,2341169304
61,8,10,Ticks_ISO_T2_5,113,5,42,127,2341197084
61,8,10,Ticks_ISO_T2_5,114,1,48,62,2341689192
61,8,10,Ticks_ISO_T2_5,115,5,42,127,2341696932
61,8,10,Ticks_ISO_T2_5,116,5,42,127,2342196856
61,8,10,Ticks_ISO_T2_5,117,1,48,74,2342220848
61,8,10,Ticks_ISO_T2_5,118,1,48,48,2342691724
61,8,10,Ticks_ISO_T2_5,119,5,42,127,2342697444
61,8,10,Ticks_ISO_T2_5,120,1,48,57,2343168236
61,8,10,Ticks_ISO_T2_5,121,5,42,127,2343196992
61,8,10,Ticks_ISO_T2_5,122,5,42,127,2343696916
61,8,10,Ticks_ISO_T2_5,123,1,48,59,2343699212
61,8,10,Ticks_ISO_T2_5,124,5,42,127,2344196684
61,8,10,Ticks_ISO_T2_5,125,1,48,69,2344201748
61,8,10,Ticks_ISO_T2_5,126,5,42,127,2344697200
61,8,10,Ticks_ISO_T2_5,127,1,48,51,2344720520
61,8,10,Ticks_ISO_T2_5,128,1,48,57,2345186732
61,8,10,Ticks_ISO_T2_5,129,5,42,127,2345196864
61,8,10,Ticks_ISO_T2_5,130,5,42,127,2345696788
61,8,10,Ticks_ISO_T2_5,131,1,48,61,2345702976
61,8,10,Ticks_ISO_T2_5,132,5,42,127,2346197232
61,8,10,Ticks_ISO_T2_5,133,1,48,65,2346240244
61,8,10,Ticks_ISO_T2_5,134,1,48,45,2346681924
61,8,10,Ticks_ISO_T2_5,135,5,42,127,2346696996
61,8,10,Ticks_ISO_T2_5,136,1,48,59,2347192468
61,8,10,Ticks_ISO_T2_5,137,5,42,127,2347196764
61,8,10,Ticks_ISO_T2_5,138,1,48,59,2347662768
61,8,10,Ticks_ISO_T2_5,139,5,42,127,2347696684
61,8,10,Ticks_ISO_T2_5,140,1,48,69,2348195764
61,8,10,Ticks_ISO_T2_5,141,5,42,127,2348197276
61,8,10,Ticks_ISO_T2_5,142,5,42,127,2348697052
61,8,10,Ticks_ISO_T2_5,143,1,48,61,2348700616
61,8,10,Ticks_ISO_T2_5,144,1,48,51,2349176804
61,8,10,Ticks_ISO_T2_5,145,5,42,127,2349196740
61,8,10,Ticks_ISO_T2_5,146,5,42,127,2349697412
61,8,10,Ticks_ISO_T2_5,147,1,48,63,2349700752
61,8,10,Ticks_ISO_T2_5,148,5,42,127,2350197032
61,8,10,Ticks_ISO_T2_5,149,1,48,63,2350204708
61,8,10,Ticks_ISO_T2_5,150,5,42,127,2350696728
61,8,10,Ticks_ISO_T2_5,151,1,48,53,2350725796
61,8,10,Ticks_ISO_T2_5,152,5,42,127,2351196644
61,8,10,Ticks_ISO_T2_5,153,1,48,44,2351197612
61,8,10,Ticks_ISO_T2_5,154,5,42,127,2351697460
61,8,10,Ticks_ISO_T2_5,155,1,48,52,2351703272
61,8,10,Ticks_ISO_T2_5,156,1,48,54,2352181632
61,8,10,Ticks_ISO_T2_5,157,5,42,127,2352196924
61,8,10,Ticks_ISO_T2_5,158,1,48,43,2352683716
61,8,10,Ticks_ISO_T2_5,159,5,42,127,2352696548
61,8,10,Ticks_ISO_T2_5,160,1,48,53,2353169952
61,8,10,Ticks_ISO_T2_5,161,5,42,127,2353197436
61,8,10,Ticks_ISO_T2_5,162,1,48,58,2353662168
61,8,10,Ticks_ISO_T2_5,163,5,42,127,2353697280
61,8,10,Ticks_ISO_T2_5,164,5,42,127,2354196904
61,8,10,Ticks_ISO_T2_5,165,1,48,64,2354202720
61,8,10,Ticks_ISO_T2_5,166,1,48,59,2354689604
61,8,10,Ticks_ISO_T2_5,167,5,42,127,2354696592
61,8,10,Ticks_ISO_T2_5,168,1,48,54,2355174984
61,8,10,Ticks_ISO_T2_5,169,5,42,127,2355197336
61,8,10,Ticks_ISO_T2_5,170,1,48,71,2355672512
61,8,10,Ticks_ISO_T2_5,171,5,42,127,2355696932
61,8,10,Ticks_ISO_T2_5,172,5,42,127,2356196708
61,8,10,Ticks_ISO_T2_5,173,1,48,62,2356223712
61,8,10,Ticks_ISO_T2_5,174,1,48,61,2356688804
61,8,10,Ticks_ISO_T2_5,175,5,42,127,2356696472
61,8,10,Ticks_ISO_T2_5,176,1,48,59,2357157460
61,8,10,Ticks_ISO_T2_5,177,5,42,127,2357197212
61,8,10,Ticks_ISO_T2_5,178,1,48,58,2357662388
61,8,10,Ticks_ISO_T2_5,179,5,42,127,2357696832
61,8,10,Ticks_ISO_T2_5,180,5,42,127,2358196608
61,8,10,Ticks_ISO_T2_5,181,1,48,56,2358239744
61,8,10,Ticks_ISO_T2_5,182,5,42,127,2358697348
61,8,10,Ticks_ISO_T2_5,183,1,48,66,2358709448
61,8,10,Ticks_ISO_T2_5,184,1,48,64,2359172396
61,8,10,Ticks_ISO_T2_5,185,5,42,127,2359196964
61,8,10,Ticks_ISO_T2_5,186,1,48,66,2359670664
61,8,10,Ticks_ISO_T2_5,187,5,42,127,2359696732
61,8,10,Ticks_ISO_T2_5,188,5,42,127,2360196360
61,8,10,Ticks_ISO_T2_5,189,1,48,64,2360197696
61,8,10,Ticks_ISO_T2_5,190,1,48,57,2360686284
61,8,10,Ticks_ISO_T2_5,191,5,42,127,2360697316
61,8,10,Ticks_ISO_T2_5,192,1,48,57,2361185384
61,8,10,Ticks_ISO_T2_5,193,5,42,127,2361196864
61,8,10,Ticks_ISO_T2_5,194,1,48,63,2361682384
61,8,10,Ticks_ISO_T2_5,195,5,42,127,2361696704
61,8,10,Ticks_ISO_T2_5,196,1,48,69,2362187840
61,8,10,Ticks_ISO_T2_5,197,5,42,127,2362197372
61,8,10,Ticks_ISO_T2_5,198,1,48,46,2362686864
61,8,10,Ticks_ISO_T2_5,199,5,42,127,2362697216
61,8,10,Ticks_ISO_T2_5,200,1,48,62,2363183116
61,8,10,Ticks_ISO_T2_5,201,5,42,127,2363196764
61,8,10,Ticks_ISO_T2_5,202,1,48,67,2363677200
61,8,10,Ticks_ISO_T2_5,203,5,42,127,2363696384
61,8,10,Ticks_ISO_T2_5,204,1,48,66,2364196676
61,8,10,Ticks_ISO_T2_5,205,5,42,127,2364198248
61,8,10,Ticks_ISO_T2_5,206,5,42,127,2364697348
61,8,10,Ticks_ISO_T2_5,207,1,48,45,2364717524
61,8,10,Ticks_ISO_T2_5,208,1,48,63,2365170276
61,8,10,Ticks_ISO_T2_5,209,5,42,127,2365196512
61,8,10,Ticks_ISO_T2_5,210,1,48,61,2365666000
61,8,10,Ticks_ISO_T2_5,211,5,42,127,2365697328
61,8,10,Ticks_ISO_T2_5,212,1,48,67,2366193076
61,8,10,Ticks_ISO_T2_5,213,5,42,127,2366197296
61,8,10,Ticks_ISO_T2_5,214,1,48,45,2366669408
61,8,10,Ticks_ISO_T2_5,215,5,42,127,2366696820
61,8,10,Ticks_ISO_T2_5,216,5,42,127,2367196444
61,8,10,Ticks_ISO_T2_5,217,1,48,51,2367201204
61,8,10,Ticks_ISO_T2_5,218,1,48,65,2367677172
61,8,10,Ticks_ISO_T2_5,219,5,42,127,2367697252
61,8,10,Ticks_ISO_T2_5,220,1,48,54,2368188836
61,8,10,Ticks_ISO_T2_5,221,5,42,127,2368197172
61,8,10,Ticks_ISO_T2_5,222,1,48,52,2368686956
61,8,10,Ticks_ISO_T2_5,223,5,42,127,2368696568
61,8,10,Ticks_ISO_T2_5,224,1,48,54,2369170872
61,8,10,Ticks_ISO_T2_5,225,5,42,127,2369197384
61,8,10,Ticks_ISO_T2_5,226,1,48,63,2369674076
61,8,10,Ticks_ISO_T2_5,227,5,42,127,2369697300
61,8,10,Ticks_ISO_T2_5,228,1,48,73,2370190756
61,8,10,Ticks_ISO_T2_5,229,5,42,127,2370197068
61,8,10,Ticks_ISO_T2_5,230,1,48,52,2370677732
61,8,10,Ticks_ISO_T2_5,231,5,42,127,2370696468
61,8,10,Ticks_ISO_T2_5,232,1,48,54,2371191340
61,8,10,Ticks_ISO_T2_5,233,5,42,127,2371197360
61,8,10,Ticks_ISO_T2_5,234,1,48,54,2371675404
61,8,10,Ticks_ISO_T2_5,235,5,42,127,2371697280
61,8,10,Ticks_ISO_T2_5,236,5,42,127,2372196684
61,8,10,Ticks_ISO_T2_5,237,1,48,57,2372203916
61,8,10,Ticks_ISO_T2_5,238,1,48,62,2372692072
61,8,10,Ticks_ISO_T2_5,239,5,42,127,2372696368
61,8,10,Ticks_ISO_T2_5,240,1,48,48,2373190420
61,8,10,Ticks_ISO_T2_5,241,5,42,127,2373197112
61,8,10,Ticks_ISO_T2_5,242,1,48,55,2373672016
61,8,10,Ticks_ISO_T2_5,243,5,42,127,2373697180
61,8,10,Ticks_ISO_T2_5,244,5,42,127,2374196508
61,8,10,Ticks_ISO_T2_5,245,1,48,70,2374205232
61,8,10,Ticks_ISO_T2_5,246,5,42,127,2374697324
61,8,10,Ticks_ISO_T2_5,247,1,48,56,2374722736
61,8,10,Ticks_ISO_T2_5,248,1,48,47,2375183664
61,8,10,Ticks_ISO_T2_5,249,5,42,127,2375197236
61,8,10,Ticks_ISO_T2_5,250,1,48,51,2375686948
61,8,10,Ticks_ISO_T2_5,251,5,42,127,2375697004
61,8,10,Ticks_ISO_T2_5,252,1,48,56,2376186420
61,8,10,Ticks_ISO_T2_5,253,5,42,127,2376196404
61,8,10,Ticks_ISO_T2_5,254,1,48,48,2376678688
61,8,10,Ticks_ISO_T2_5,255,5,42,127,2376697292
61,8,10,Ticks_ISO_T2_5,256,1,48,51,2377181448
61,8,10,Ticks_ISO_T2_5,0,9999,9999,9999,2312194164
61,8,10,Ticks_ISO_T2_5,1,9999,9999,9999,2312694904
61,8,10,Ticks_ISO_T2_5,2,9999,9999,9999,2313194544
61,8,10,Ticks_ISO_T2_5,3,9999,9999,9999,2313694260
61,8,10,Ticks_ISO_T2_5,4,9999,9999,9999,2314195020
61,8,10,Ticks_ISO_T2_5,5,9999,9999,9999,2314694720
61,8,10,Ticks_ISO_T2_5,6,9999,9999,9999,2315194480
61,8,10,Ticks_ISO_T2_5,7,9999,9999,9999,2315694176
61,8,10,Ticks_ISO_T2_5,8,9999,9999,9999,2316194920
61,8,10,Ticks_ISO_T2_5,9,9999,9999,9999,2316694612
61,8,10,Ticks_ISO_T2_5,10,9999,9999,9999,2317194308
61,8,10,Ticks_ISO_T2_5,11,9999,9999,9999,2317695052
61,8,10,Ticks_ISO_T2_5,12,9999,9999,9999,2318194748
61,8,10,Ticks_ISO_T2_5,13,9999,9999,9999,2318694516
61,8,10,Ticks_ISO_T2_5,14,9999,9999,9999,2319194212
61,8,10,Ticks_ISO_T2_5,15,9999,9999,9999,2319694956
61,8,10,Ticks_ISO_T2_5,16,9999,9999,9999,2320194652
61,8,10,Ticks_ISO_T2_5,17,9999,9999,9999,2320694348
61,8,10,Ticks_ISO_T2_5,18,9999,9999,9999,2321195088
61,8,10,Ticks_ISO_T2_5,19,9999,9999,9999,2321694788
61,8,10,Ticks_ISO_T2_5,20,9999,9999,9999,2322194552
61,8,10,Ticks_ISO_T2_5,21,9999,9999,9999,2322694248
61,8,10,Ticks_ISO_T2_5,22,9999,9999,9999,2323194988
61,8,10,Ticks_ISO_T2_5,23,9999,9999,9999,2323694668
61,8,10,Ticks_ISO_T2_5,24,9999,9999,9999,2324194364
61,8,10,Ticks_ISO_T2_5,25,9999,9999,9999,2324694128
61,8,10,Ticks_ISO_T2_5,26,9999,9999,9999,2325194868
61,8,10,Ticks_ISO_T2_5,27,9999,9999,9999,2325694568
61,8,10,Ticks_ISO_T2_5,28,9999,9999,9999,2326194264
61,8,10,Ticks_ISO_T2_5,29,9999,9999,9999,2326694996
61,8,10,Ticks_ISO_T2_5,30,9999,9999,9999,2327194692
61,8,10,Ticks_ISO_T2_5,31,9999,9999,9999,2327694384
61,8,10,Ticks_ISO_T2_5,32,9999,9999,9999,2328194164
61,8,10,Ticks_ISO_T2_5,33,9999,9999,9999,2328694904
61,8,10,Ticks_ISO_T2_5,34,9999,9999,9999,2329194596
61,8,10,Ticks_ISO_T2_5,35,9999,9999,9999,2329694292
61,8,10,Ticks_ISO_T2_5,36,9999,9999,9999,2330195036
61,8,10,Ticks_ISO_T2_5,37,9999,9999,9999,2330694728
61,8,10,Ticks_ISO_T2_5,38,9999,9999,9999,2331194420
61,8,10,Ticks_ISO_T2_5,39,9999,9999,9999,2331694188
61,8,10,Ticks_ISO_T2_5,40,9999,9999,9999,2332194936
61,8,10,Ticks_ISO_T2_5,41,9999,9999,9999,2332694632
61,8,10,Ticks_ISO_T2_5,42,9999,9999,9999,2333194320
61,8,10,Ticks_ISO_T2_5,43,9999,9999,9999,2333695068
61,8,10,Ticks_ISO_T2_5,44,9999,9999,9999,2334194740
61,8,10,Ticks_ISO_T2_5,45,9999,9999,9999,2334694508
61,8,10,Ticks_ISO_T2_5,46,9999,9999,9999,2335194204
61,8,10,Ticks_ISO_T2_5,47,9999,9999,9999,2335694944
61,8,10,Ticks_ISO_T2_5,48,9999,9999,9999,2336194640
61,8,10,Ticks_ISO_T2_5,49,9999,9999,9999,2336694332
61,8,10,Ticks_ISO_T2_5,50,9999,9999,9999,2337195068
61,8,10,Ticks_ISO_T2_5,51,9999,9999,9999,2337694836
61,8,10,Ticks_ISO_T2_5,52,9999,9999,9999,2338194540
61,8,10,Ticks_ISO_T2_5,53,9999,9999,9999,2338694228
61,8,10,Ticks_ISO_T2_5,54,9999,9999,9999,2339194968
61,8,10,Ticks_ISO_T2_5,55,9999,9999,9999,2339694664
61,8,10,Ticks_ISO_T2_5,56,9999,9999,9999,2340194360
61,8,10,Ticks_ISO_T2_5,57,9999,9999,9999,2340694128
61,8,10,Ticks_ISO_T2_5,58,9999,9999,9999,2341194872
61,8,10,Ticks_ISO_T2_5,59,9999,9999,9999,2341694568
61,8,10,Ticks_ISO_T2_5,60,9999,9999,9999,2342194272
61,8,10,Ticks_ISO_T2_5,61,9999,9999,9999,2342695008
61,8,10,Ticks_ISO_T2_5,62,9999,9999,9999,2343194700
61,8,10,Ticks_ISO_T2_5,63,9999,9999,9999,2343694404
61,8,10,Ticks_ISO_T2_5,64,9999,9999,9999,2344194096
61,8,10,Ticks_ISO_T2_5,65,9999,9999,9999,2344694888
61,8,10,Ticks_ISO_T2_5,66,9999,9999,9999,2345194576
61,8,10,Ticks_ISO_T2_5,67,9999,9999,9999,2345694276
61,8,10,Ticks_ISO_T2_5,68,9999,9999,9999,2346195020
61,8,10,Ticks_ISO_T2_5,69,9999,9999,9999,2346694708
61,8,10,Ticks_ISO_T2_5,70,9999,9999,9999,2347194476
61,8,10,Ticks_ISO_T2_5,71,9999,9999,9999,2347694172
61,8,10,Ticks_ISO_T2_5,72,9999,9999,9999,2348194920
61,8,10,Ticks_ISO_T2_5,73,9999,9999,9999,2348694612
61,8,10,Ticks_ISO_T2_5,74,9999,9999,9999,2349194300
61,8,10,Ticks_ISO_T2_5,75,9999,9999,9999,2349695048
61,8,10,Ticks_ISO_T2_5,76,9999,9999,9999,2350194744
61,8,10,Ticks_ISO_T2_5,77,9999,9999,9999,2350694512
61,8,10,Ticks_ISO_T2_5,78,9999,9999,9999,2351194208
61,8,10,Ticks_ISO_T2_5,79,9999,9999,9999,2351694948
61,8,10,Ticks_ISO_T2_5,80,9999,9999,9999,2352194636
61,8,10,Ticks_ISO_T2_5,81,9999,9999,9999,2352694332
61,8,10,Ticks_ISO_T2_5,82,9999,9999,9999,2353195072
61,8,10,Ticks_ISO_T2_5,83,9999,9999,9999,2353694840
61,8,10,Ticks_ISO_T2_5,84,9999,9999,9999,2354194544
61,8,10,Ticks_ISO_T2_5,85,9999,9999,9999,2354694232
61,8,10,Ticks_ISO_T2_5,86,9999,9999,9999,2355194972
61,8,10,Ticks_ISO_T2_5,87,9999,9999,9999,2355694644
61,8,10,Ticks_ISO_T2_5,88,9999,9999,9999,2356194420
61,8,10,Ticks_ISO_T2_5,89,9999,9999,9999,2356694108
61,8,10,Ticks_ISO_T2_5,90,9999,9999,9999,2357194848
61,8,10,Ticks_ISO_T2_5,91,9999,9999,9999,2357694544
61,8,10,Ticks_ISO_T2_5,92,9999,9999,9999,2358194244
61,8,10,Ticks_ISO_T2_5,93,9999,9999,9999,2358694988
61,8,10,Ticks_ISO_T2_5,94,9999,9999,9999,2359194672
61,8,10,Ticks_ISO_T2_5,95,9999,9999,9999,2359694444
61,8,10,Ticks_ISO_T2_5,96,9999,9999,9999,2360194144
61,8,10,Ticks_ISO_T2_5,97,9999,9999,9999,2360694880
61,8,10,Ticks_ISO_T2_5,98,9999,9999,9999,2361194572
61,8,10,Ticks_ISO_T2_5,99,9999,9999,9999,2361694268
61,8,10,Ticks_ISO_T2_5,100,9999,9999,9999,2362195008
61,8,10,Ticks_ISO_T2_5,101,9999,9999,9999,2362694704
61,8,10,Ticks_ISO_T2_5,102,9999,9999,9999,2363194472
61,8,10,Ticks_ISO_T2_5,103,9999,9999,9999,2363694168
61,8,10,Ticks_ISO_T2_5,104,9999,9999,9999,2364194916
61,8,10,Ticks_ISO_T2_5,105,9999,9999,9999,2364694612
61,8,10,Ticks_ISO_T2_5,106,9999,9999,9999,2365194300
61,8,10,Ticks_ISO_T2_5,107,9999,9999,9999,2365695040
61,8,10,Ticks_ISO_T2_5,108,9999,9999,9999,2366194784
61,8,10,Ticks_ISO_T2_5,109,9999,9999,9999,2366694456
61,8,10,Ticks_ISO_T2_5,110,9999,9999,9999,2367194228
61,8,10,Ticks_ISO_T2_5,111,9999,9999,9999,2367694964
61,8,10,Ticks_ISO_T2_5,112,9999,9999,9999,2368194660
61,8,10,Ticks_ISO_T2_5,113,9999,9999,9999,2368694352
61,8,10,Ticks_ISO_T2_5,114,9999,9999,9999,2369195096
61,8,10,Ticks_ISO_T2_5,115,9999,9999,9999,2369694788
61,8,10,Ticks_ISO_T2_5,116,9999,9999,9999,2370194484
61,8,10,Ticks_ISO_T2_5,117,9999,9999,9999,2370694256
61,8,10,Ticks_ISO_T2_5,118,9999,9999,9999,2371194996
61,8,10,Ticks_ISO_T2_5,119,9999,9999,9999,2371694692
61,8,10,Ticks_ISO_T2_5,120,9999,9999,9999,2372194392
61,8,10,Ticks_ISO_T2_5,121,9999,9999,9999,2372694080
61,8,10,Ticks_ISO_T2_5,122,9999,9999,9999,2373194824
61,8,10,Ticks_ISO_T2_5,123,9999,9999,9999,2373694516
61,8,10,Ticks_ISO_T2_5,124,9999,9999,9999,2374194292
61,8,10,Ticks_ISO_T2_5,125,9999,9999,9999,2374694960
61,8,10,Ticks_ISO_T2_5,126,9999,9999,9999,2375194724
61,8,10,Ticks_ISO_T2_5,127,9999,9999,9999,2375694420
61,8,10,Ticks_ISO_T2_5,128,9999,9999,9999,2376194116
61,8,10,Ticks_ISO_T2_5,129,9999,9999,9999,2376694856
61,9,9,Ticks_ISO_T2_8,0,5,42,127,2388832736
61,9,9,Ticks_ISO_T2_8,1,5,42,127,2389633236
61,9,9,Ticks_ISO_T2_8,2,5,42,127,2390433216
61,9,9,Ticks_ISO_T2_8,3,5,42,127,2391232824
61,9,9,Ticks_ISO_T2_8,4,1,48,52,2391985936
61,9,9,Ticks_ISO_T2_8,5,5,42,127,2392032720
61,9,9,Ticks_ISO_T2_8,6,1,48,57,2392764580
61,9,9,Ticks_ISO_T2_8,7,5,42,127,2392833672
61,9,9,Ticks_ISO_T2_8,8,1,48,58,2393587804
61,9,9,Ticks_ISO_T2_8,9,5,42,127,2393633112
61,9,9,Ticks_ISO_T2_8,10,5,42,127,2394432776
61,9,9,Ticks_ISO_T2_8,11,1,48,52,2394462072
61,9,9,Ticks_ISO_T2_8,12,5,42,127,2395232660
61,9,9,Ticks_ISO_T2_8,13,1,48,57,2395277596
61,9,9,Ticks_ISO_T2_8,14,5,42,127,2396033588
61,9,9,Ticks_ISO_T2_8,15,1,48,49,2396059976
61,9,9,Ticks_ISO_T2_8,16,5,42,127,2396833324
61,9,9,Ticks_ISO_T2_8,17,1,48,52,2396855888
61,9,9,Ticks_ISO_T2_8,18,5,42,127,2397632832
61,9,9,Ticks_ISO_T2_8,19,1,48,50,2397635500
61,9,9,Ticks_ISO_T2_8,20,5,42,127,2398432564
61,9,9,Ticks_ISO_T2_8,21,1,48,48,2398460020
61,9,9,Ticks_ISO_T2_8,22,5,42,127,2399233596
61,9,9,Ticks_ISO_T2_8,23,1,48,49,2399246592
61,9,9,Ticks_ISO_T2_8,24,1,48,51,2400026552
61,9,9,Ticks_ISO_T2_8,25,5,42,127,2400033100
61,9,9,Ticks_ISO_T2_8,26,1,48,46,2400815372
61,9,9,Ticks_ISO_T2_8,27,5,42,127,2400832908
61,9,9,Ticks_ISO_T2_8,28,1,48,52,2401604108
61,9,9,Ticks_ISO_T2_8,29,5,42,127,2401632640
61,9,9,Ticks_ISO_T2_8,30,5,42,127,2402433576
61,9,9,Ticks_ISO_T2_8,31,1,48,40,2402461676
61,9,9,Ticks_ISO_T2_8,32,1,48,41,2403219208
61,9,9,Ticks_ISO_T2_8,33,5,42,127,2403233300
61,9,9,Ticks_ISO_T2_8,34,1,48,42,2404027240
61,9,9,Ticks_ISO_T2_8,35,5,42,127,2404032736
61,9,9,Ticks_ISO_T2_8,36,5,42,127,2404832552
61,9,9,Ticks_ISO_T2_8,37,1,48,50,2404842556
61,9,9,Ticks_ISO_T2_8,38,5,42,127,2405633284
61,9,9,Ticks_ISO_T2_8,39,1,48,46,2405645296
61,9,9,Ticks_ISO_T2_8,40,1,48,45,2406389292
61,9,9,Ticks_ISO_T2_8,41,5,42,127,2406433456
61,9,9,Ticks_ISO_T2_8,42,1,48,38,2407189776
61,9,9,Ticks_ISO_T2_8,43,5,42,127,2407232744
61,9,9,Ticks_ISO_T2_8,44,1,48,53,2407997736
61,9,9,Ticks_ISO_T2_8,45,5,42,127,2408032624
61,9,9,Ticks_ISO_T2_8,46,1,48,35,2408823496
61,9,9,Ticks_ISO_T2_8,47,5,42,127,2408833332
61,9,9,Ticks_ISO_T2_8,48,5,42,127,2409633220
61,9,9,Ticks_ISO_T2_8,49,1,48,41,2409662596
61,9,9,Ticks_ISO_T2_8,50,5,42,127,2410432880
61,9,9,Ticks_ISO_T2_8,51,1,48,46,2410477740
61,9,9,Ticks_ISO_T2_8,52,1,48,47,2411215148
61,9,9,Ticks_ISO_T2_8,53,5,42,127,2411232608
61,9,9,Ticks_ISO_T2_8,54,1,48,27,2411302680
61,9,9,Ticks_ISO_T2_8,55,1,48,41,2412028796
61,9,9,Ticks_ISO_T2_8,56,5,42,127,2412033244
61,9,9,Ticks_ISO_T2_8,57,1,48,39,2412813348
61,9,9,Ticks_ISO_T2_8,58,5,42,127,2412833124
61,9,9,Ticks_ISO_T2_8,59,5,42,127,2413633088
61,9,9,Ticks_ISO_T2_8,60,1,48,38,2413639276
61,9,9,Ticks_ISO_T2_8,61,1,48,25,2413692804
61,9,9,Ticks_ISO_T2_8,62,5,42,127,2414432580
61,9,9,Ticks_ISO_T2_8,63,1,48,51,2414467340
61,9,9,Ticks_ISO_T2_8,64,5,42,127,2415233284
61,9,9,Ticks_ISO_T2_8,65,1,48,39,2415245380
61,9,9,Ticks_ISO_T2_8,66,1,48,49,2416026020
61,9,9,Ticks_ISO_T2_8,67,5,42,127,2416033084
61,9,9,Ticks_ISO_T2_8,68,5,42,127,2416832976
61,9,9,Ticks_ISO_T2_8,69,1,48,46,2416852772
61,9,9,Ticks_ISO_T2_8,70,5,42,127,2417632708
61,9,9,Ticks_ISO_T2_8,71,1,48,53,2417655900
61,9,9,Ticks_ISO_T2_8,72,1,48,44,2418426368
61,9,9,Ticks_ISO_T2_8,73,5,42,127,2418433284
61,9,9,Ticks_ISO_T2_8,74,1,48,57,2419226856
61,9,9,Ticks_ISO_T2_8,75,5,42,127,2419233168
61,9,9,Ticks_ISO_T2_8,76,1,48,33,2420025088
61,9,9,Ticks_ISO_T2_8,77,5,42,127,2420032976
61,9,9,Ticks_ISO_T2_8,78,5,42,127,2420832716
61,9,9,Ticks_ISO_T2_8,79,1,48,59,2420878996
61,9,9,Ticks_ISO_T2_8,80,5,42,127,2421633348
61,9,9,Ticks_ISO_T2_8,81,1,48,41,2421651576
61,9,9,Ticks_ISO_T2_8,82,1,48,42,2422391228
61,9,9,Ticks_ISO_T2_8,83,5,42,127,2422433072
61,9,9,Ticks_ISO_T2_8,84,1,48,51,2423186476
61,9,9,Ticks_ISO_T2_8,85,5,42,127,2423232808
61,9,9,Ticks_ISO_T2_8,86,1,48,59,2423938488
61,9,9,Ticks_ISO_T2_8,87,5,42,127,2424032764
61,9,9,Ticks_ISO_T2_8,88,1,48,47,2424781452
61,9,9,Ticks_ISO_T2_8,89,5,42,127,2424833272
61,9,9,Ticks_ISO_T2_8,90,1,48,43,2425599688
61,9,9,Ticks_ISO_T2_8,91,5,42,127,2425633080
61,9,9,Ticks_ISO_T2_8,92,5,42,127,2426432748
61,9,9,Ticks_ISO_T2_8,93,1,48,49,2426433712
61,9,9,Ticks_ISO_T2_8,94,1,48,48,2427186516
61,9,9,Ticks_ISO_T2_8,95,5,42,127,2427232696
61,9,9,Ticks_ISO_T2_8,96,1,48,40,2427971812
61,9,9,Ticks_ISO_T2_8,97,5,42,127,2428033328
61,9,9,Ticks_ISO_T2_8,98,1,48,50,2428816120
61,9,9,Ticks_ISO_T2_8,99,5,42,127,2428833060
61,9,9,Ticks_ISO_T2_8,100,5,42,127,2429632800
61,9,9,Ticks_ISO_T2_8,101,1,48,53,2429654024
61,9,9,Ticks_ISO_T2_8,102,5,42,127,2430432760
61,9,9,Ticks_ISO_T2_8,103,1,48,56,2430444856
61,9,9,Ticks_ISO_T2_8,104,5,42,127,2431233340
61,9,9,Ticks_ISO_T2_8,105,1,48,46,2431239380
61,9,9,Ticks_ISO_T2_8,106,1,48,48,2431986556
61,9,9,Ticks_ISO_T2_8,107,5,42,127,2432033140
61,9,9,Ticks_ISO_T2_8,108,5,42,127,2432832808
61,9,9,Ticks_ISO_T2_8,109,1,48,51,2432905264
61,9,9,Ticks_ISO_T2_8,110,5,42,127,2433632616
61,9,9,Ticks_ISO_T2_8,111,1,48,61,2433721076
61,9,9,Ticks_ISO_T2_8,112,5,42,127,2434433468
61,9,9,Ticks_ISO_T2_8,113,1,48,40,2434435988
61,9,9,Ticks_ISO_T2_8,114,5,42,127,2435233052
61,9,9,Ticks_ISO_T2_8,115,1,48,46,2435237816
61,9,9,Ticks_ISO_T2_8,116,1,48,48,2436031192
61,9,9,Ticks_ISO_T2_8,117,5,42,127,2436032780
61,9,9,Ticks_ISO_T2_8,118,1,48,66,2436801512
61,9,9,Ticks_ISO_T2_8,119,5,42,127,2436832588
61,9,9,Ticks_ISO_T2_8,120,1,48,46,2437608800
61,9,9,Ticks_ISO_T2_8,121,5,42,127,2437633540
61,9,9,Ticks_ISO_T2_8,122,1,48,49,2438415516
61,9,9,Ticks_ISO_T2_8,123,5,42,127,2438433124
61,9,9,Ticks_ISO_T2_8,124,1,48,47,2439206644
61,9,9,Ticks_ISO_T2_8,125,5,42,127,2439232860
61,9,9,Ticks_ISO_T2_8,126,1,48,57,2440017228
61,9,9,Ticks_ISO_T2_8,127,5,42,127,2440032592
61,9,9,Ticks_ISO_T2_8,128,1,48,45,2440774544
61,9,9,Ticks_ISO_T2_8,129,5,42,127,2440833520
61,9,9,Ticks_ISO_T2_8,130,1,48,55,2441602556
61,9,9,Ticks_ISO_T2_8,131,5,42,127,2441633252
61,9,9,Ticks_ISO_T2_8,132,5,42,127,2442432844
61,9,9,Ticks_ISO_T2_8,133,1,48,52,2442441200
61,9,9,Ticks_ISO_T2_8,134,5,42,127,2443232580
61,9,9,Ticks_ISO_T2_8,135,1,48,63,2443241832
61,9,9,Ticks_ISO_T2_8,136,1,48,42,2443999136
61,9,9,Ticks_ISO_T2_8,137,5,42,127,2444033452
61,9,9,Ticks_ISO_T2_8,138,1,48,50,2444820884
61,9,9,Ticks_ISO_T2_8,139,5,42,127,2444833332
61,9,9,Ticks_ISO_T2_8,140,1,48,53,2445599596
61,9,9,Ticks_ISO_T2_8,141,5,42,127,2445632840
61,9,9,Ticks_ISO_T2_8,142,1,48,63,2446426636
61,9,9,Ticks_ISO_T2_8,143,5,42,127,2446432652
61,9,9,Ticks_ISO_T2_8,144,1,48,51,2447207672
61,9,9,Ticks_ISO_T2_8,145,5,42,127,2447233360
61,9,9,Ticks_ISO_T2_8,146,5,42,127,2448033244
61,9,9,Ticks_ISO_T2_8,147,1,48,28,2448035916
61,9,9,Ticks_ISO_T2_8,148,1,48,55,2448755224
61,9,9,Ticks_ISO_T2_8,149,5,42,127,2448832748
61,9,9,Ticks_ISO_T2_8,150,1,48,67,2449630516
61,9,9,Ticks_ISO_T2_8,151,5,42,127,2449632484
61,9,9,Ticks_ISO_T2_8,152,1,48,43,2450428996
61,9,9,Ticks_ISO_T2_8,153,5,42,127,2450433288
61,9,9,Ticks_ISO_T2_8,154,1,48,48,2451210996
61,9,9,Ticks_ISO_T2_8,155,5,42,127,2451233244
61,9,9,Ticks_ISO_T2_8,156,1,48,55,2452008636
61,9,9,Ticks_ISO_T2_8,157,5,42,127,2452032976
61,9,9,Ticks_ISO_T2_8,158,5,42,127,2452832568
61,9,9,Ticks_ISO_T2_8,159,1,48,56,2452853188
61,9,9,Ticks_ISO_T2_8,160,1,48,54,2453582816
61,9,9,Ticks_ISO_T2_8,161,5,42,127,2453633492
61,9,9,Ticks_ISO_T2_8,162,1,48,50,2454394152
61,9,9,Ticks_ISO_T2_8,163,5,42,127,2454433080
61,9,9,Ticks_ISO_T2_8,164,5,42,127,2455232744
61,9,9,Ticks_ISO_T2_8,165,1,48,51,2455255828
61,9,9,Ticks_ISO_T2_8,166,5,42,127,2456032552
61,9,9,Ticks_ISO_T2_8,167,1,48,39,2456077060
61,9,9,Ticks_ISO_T2_8,168,1,48,50,2456815412
61,9,9,Ticks_ISO_T2_8,169,5,42,127,2456833424
61,9,9,Ticks_ISO_T2_8,170,5,42,127,2457633240
61,9,9,Ticks_ISO_T2_8,171,1,48,56,2457649524
61,9,9,Ticks_ISO_T2_8,172,5,42,127,2458432824
61,9,9,Ticks_ISO_T2_8,173,1,48,48,2458477760
61,9,9,Ticks_ISO_T2_8,174,5,42,127,2459232556
61,9,9,Ticks_ISO_T2_8,175,1,48,55,2459247796
61,9,9,Ticks_ISO_T2_8,176,5,42,127,2460033484
61,9,9,Ticks_ISO_T2_8,177,1,48,42,2460036004
61,9,9,Ticks_ISO_T2_8,178,1,48,52,2460788304
61,9,9,Ticks_ISO_T2_8,179,5,42,127,2460833064
61,9,9,Ticks_ISO_T2_8,180,5,42,127,2461633028
61,9,9,Ticks_ISO_T2_8,181,1,48,60,2461645720
61,9,9,Ticks_ISO_T2_8,182,5,42,127,2462432540
61,9,9,Ticks_ISO_T2_8,183,1,48,55,2462437680
61,9,9,Ticks_ISO_T2_8,184,5,42,127,2463233344
61,9,9,Ticks_ISO_T2_8,185,1,48,18,2463275284
61,9,9,Ticks_ISO_T2_8,186,1,48,59,2464019576
61,9,9,Ticks_ISO_T2_8,187,5,42,127,2464033072
61,9,9,Ticks_ISO_T2_8,188,5,42,127,2464832960
61,9,9,Ticks_ISO_T2_8,189,1,48,49,2464851416
61,9,9,Ticks_ISO_T2_8,190,5,42,127,2465632472
61,9,9,Ticks_ISO_T2_8,191,1,48,65,2465692212
61,9,9,Ticks_ISO_T2_8,192,5,42,127,2466433324
61,9,9,Ticks_ISO_T2_8,193,1,48,46,2466481476
61,9,9,Ticks_ISO_T2_8,194,5,42,127,2467233060
61,9,9,Ticks_ISO_T2_8,195,1,48,54,2467255624
61,9,9,Ticks_ISO_T2_8,196,5,42,127,2468032792
61,9,9,Ticks_ISO_T2_8,197,1,48,57,2468067704
61,9,9,Ticks_ISO_T2_8,198,5,42,127,2468832824
61,9,9,Ticks_ISO_T2_8,199,1,48,59,2468872992
61,9,9,Ticks_ISO_T2_8,200,1,48,39,2469630224
61,9,9,Ticks_ISO_T2_8,201,5,42,127,2469633324
61,9,9,Ticks_ISO_T2_8,202,1,48,38,2470424496
61,9,9,Ticks_ISO_T2_8,203,5,42,127,2470433060
61,9,9,Ticks_ISO_T2_8,204,1,48,53,2471214580
61,9,9,Ticks_ISO_T2_8,205,5,42,127,2471232940
61,9,9,Ticks_ISO_T2_8,206,1,48,61,2472011320
61,9,9,Ticks_ISO_T2_8,207,5,42,127,2472032748
61,9,9,Ticks_ISO_T2_8,208,5,42,127,2472833312
61,9,9,Ticks_ISO_T2_8,209,1,48,57,2472849220
61,9,9,Ticks_ISO_T2_8,210,5,42,127,2473633092
61,9,9,Ticks_ISO_T2_8,211,1,48,66,2473655584
61,9,9,Ticks_ISO_T2_8,212,1,48,43,2474401592
61,9,9,Ticks_ISO_T2_8,213,5,42,127,2474432896
61,9,9,Ticks_ISO_T2_8,214,1,48,50,2475227956
61,9,9,Ticks_ISO_T2_8,215,5,42,127,2475233000
61,9,9,Ticks_ISO_T2_8,216,1,48,51,2475998068
61,9,9,Ticks_ISO_T2_8,217,5,42,127,2476033284
61,9,9,Ticks_ISO_T2_8,218,1,48,47,2476811520
61,9,9,Ticks_ISO_T2_8,219,5,42,127,2476833240
61,9,9,Ticks_ISO_T2_8,220,5,42,127,2477632832
61,9,9,Ticks_ISO_T2_8,221,1,48,41,2477650164
61,9,9,Ticks_ISO_T2_8,222,5,42,127,2478432788
61,9,9,Ticks_ISO_T2_8,223,1,48,66,2478434652
61,9,9,Ticks_ISO_T2_8,224,5,42,127,2479233272
61,9,9,Ticks_ISO_T2_8,225,1,48,55,2479234240
61,9,9,Ticks_ISO_T2_8,226,5,42,127,2480033080
61,9,9,Ticks_ISO_T2_8,227,1,48,60,2480081672
61,9,9,Ticks_ISO_T2_8,228,1,48,56,2480827384
61,9,9,Ticks_ISO_T2_8,229,5,42,127,2480832880
61,9,9,Ticks_ISO_T2_8,230,1,48,62,2481616572
61,9,9,Ticks_ISO_T2_8,231,5,42,127,2481632688
61,9,9,Ticks_ISO_T2_8,232,1,48,52,2482411672
61,9,9,Ticks_ISO_T2_8,233,5,42,127,2482433568
61,9,9,Ticks_ISO_T2_8,234,1,48,51,2483230964
61,9,9,Ticks_ISO_T2_8,235,5,42,127,2483233076
61,9,9,Ticks_ISO_T2_8,236,1,48,52,2484007572
61,9,9,Ticks_ISO_T2_8,237,5,42,127,2484032884
61,9,9,Ticks_ISO_T2_8,238,1,48,60,2484826604
61,9,9,Ticks_ISO_T2_8,0,9999,9999,9999,2388830296
61,9,9,Ticks_ISO_T2_8,1,9999,9999,9999,2389631024
61,9,9,Ticks_ISO_T2_8,2,9999,9999,9999,2390430780
61,9,9,Ticks_ISO_T2_8,3,9999,9999,9999,2391230536
61,9,9,Ticks_ISO_T2_8,4,9999,9999,9999,2392030284
61,9,9,Ticks_ISO_T2_8,5,9999,9999,9999,2392831088
61,9,9,Ticks_ISO_T2_8,6,9999,9999,9999,2393630824
61,9,9,Ticks_ISO_T2_8,7,9999,9999,9999,2394430564
61,9,9,Ticks_ISO_T2_8,8,9999,9999,9999,2395230296
61,9,9,Ticks_ISO_T2_8,9,9999,9999,9999,2396031076
61,9,9,Ticks_ISO_T2_8,10,9999,9999,9999,2396830812
61,9,9,Ticks_ISO_T2_8,11,9999,9999,9999,2397630544
61,9,9,Ticks_ISO_T2_8,12,9999,9999,9999,2398430276
61,9,9,Ticks_ISO_T2_8,13,9999,9999,9999,2399231084
61,9,9,Ticks_ISO_T2_8,14,9999,9999,9999,2400030812
61,9,9,Ticks_ISO_T2_8,15,9999,9999,9999,2400830544
61,9,9,Ticks_ISO_T2_8,16,9999,9999,9999,2401630280
61,9,9,Ticks_ISO_T2_8,17,9999,9999,9999,2402431064
61,9,9,Ticks_ISO_T2_8,18,9999,9999,9999,2403230792
61,9,9,Ticks_ISO_T2_8,19,9999,9999,9999,2404030524
61,9,9,Ticks_ISO_T2_8,20,9999,9999,9999,2404830264
61,9,9,Ticks_ISO_T2_8,21,9999,9999,9999,2405631068
61,9,9,Ticks_ISO_T2_8,22,9999,9999,9999,2406430796
61,9,9,Ticks_ISO_T2_8,23,9999,9999,9999,2407230528
61,9,9,Ticks_ISO_T2_8,24,9999,9999,9999,2408030260
61,9,9,Ticks_ISO_T2_8,25,9999,9999,9999,2408831040
61,9,9,Ticks_ISO_T2_8,26,9999,9999,9999,2409630784
61,9,9,Ticks_ISO_T2_8,27,9999,9999,9999,2410430516
61,9,9,Ticks_ISO_T2_8,28,9999,9999,9999,2411230320
61,9,9,Ticks_ISO_T2_8,29,9999,9999,9999,2412031028
61,9,9,Ticks_ISO_T2_8,30,9999,9999,9999,2412830836
61,9,9,Ticks_ISO_T2_8,31,9999,9999,9999,2413630576
61,9,9,Ticks_ISO_T2_8,32,9999,9999,9999,2414430292
61,9,9,Ticks_ISO_T2_8,33,9999,9999,9999,2415231068
61,9,9,Ticks_ISO_T2_8,34,9999,9999,9999,2416030796
61,9,9,Ticks_ISO_T2_8,35,9999,9999,9999,2416830536
61,9,9,Ticks_ISO_T2_8,36,9999,9999,9999,2417630272
61,9,9,Ticks_ISO_T2_8,37,9999,9999,9999,2418431072
61,9,9,Ticks_ISO_T2_8,38,9999,9999,9999,2419230808
61,9,9,Ticks_ISO_T2_8,39,9999,9999,9999,2420030540
61,9,9,Ticks_ISO_T2_8,40,9999,9999,9999,2420830280
61,9,9,Ticks_ISO_T2_8,41,9999,9999,9999,2421631060
61,9,9,Ticks_ISO_T2_8,42,9999,9999,9999,2422430788
61,9,9,Ticks_ISO_T2_8,43,9999,9999,9999,2423230520
61,9,9,Ticks_ISO_T2_8,44,9999,9999,9999,2424030252
61,9,9,Ticks_ISO_T2_8,45,9999,9999,9999,2424831060
61,9,9,Ticks_ISO_T2_8,46,9999,9999,9999,2425630792
61,9,9,Ticks_ISO_T2_8,47,9999,9999,9999,2426430532
61,9,9,Ticks_ISO_T2_8,48,9999,9999,9999,2427230260
61,9,9,Ticks_ISO_T2_8,49,9999,9999,9999,2428031040
61,9,9,Ticks_ISO_T2_8,50,9999,9999,9999,2428830776
61,9,9,Ticks_ISO_T2_8,51,9999,9999,9999,2429630512
61,9,9,Ticks_ISO_T2_8,52,9999,9999,9999,2430430324
61,9,9,Ticks_ISO_T2_8,53,9999,9999,9999,2431231052
61,9,9,Ticks_ISO_T2_8,54,9999,9999,9999,2432030780
61,9,9,Ticks_ISO_T2_8,55,9999,9999,9999,2432830520
61,9,9,Ticks_ISO_T2_8,56,9999,9999,9999,2433630328
61,9,9,Ticks_ISO_T2_8,57,9999,9999,9999,2434431032
61,9,9,Ticks_ISO_T2_8,58,9999,9999,9999,2435230764
61,9,9,Ticks_ISO_T2_8,59,9999,9999,9999,2436030588
61,9,9,Ticks_ISO_T2_8,60,9999,9999,9999,2436830300
61,9,9,Ticks_ISO_T2_8,61,9999,9999,9999,2437631028
61,9,9,Ticks_ISO_T2_8,62,9999,9999,9999,2438430836
61,9,9,Ticks_ISO_T2_8,63,9999,9999,9999,2439230572
61,9,9,Ticks_ISO_T2_8,64,9999,9999,9999,2440030304
61,9,9,Ticks_ISO_T2_8,65,9999,9999,9999,2440831084
61,9,9,Ticks_ISO_T2_8,66,9999,9999,9999,2441630816
61,9,9,Ticks_ISO_T2_8,67,9999,9999,9999,2442430556
61,9,9,Ticks_ISO_T2_8,68,9999,9999,9999,2443230292
61,9,9,Ticks_ISO_T2_8,69,9999,9999,9999,2444031088
61,9,9,Ticks_ISO_T2_8,70,9999,9999,9999,2444830820
61,9,9,Ticks_ISO_T2_8,71,9999,9999,9999,2445630556
61,9,9,Ticks_ISO_T2_8,72,9999,9999,9999,2446430288
61,9,9,Ticks_ISO_T2_8,73,9999,9999,9999,2447231068
61,9,9,Ticks_ISO_T2_8,74,9999,9999,9999,2448030808
61,9,9,Ticks_ISO_T2_8,75,9999,9999,9999,2448830536
61,9,9,Ticks_ISO_T2_8,76,9999,9999,9999,2449630308
61,9,9,Ticks_ISO_T2_8,77,9999,9999,9999,2450431072
61,9,9,Ticks_ISO_T2_8,78,9999,9999,9999,2451230808
61,9,9,Ticks_ISO_T2_8,79,9999,9999,9999,2452030540
61,9,9,Ticks_ISO_T2_8,80,9999,9999,9999,2452830280
61,9,9,Ticks_ISO_T2_8,81,9999,9999,9999,2453631052
61,9,9,Ticks_ISO_T2_8,82,9999,9999,9999,2454430792
61,9,9,Ticks_ISO_T2_8,83,9999,9999,9999,2455230532
61,9,9,Ticks_ISO_T2_8,84,9999,9999,9999,2456030264
61,9,9,Ticks_ISO_T2_8,85,9999,9999,9999,2456831064
61,9,9,Ticks_ISO_T2_8,86,9999,9999,9999,2457630800
61,9,9,Ticks_ISO_T2_8,87,9999,9999,9999,2458430536
61,9,9,Ticks_ISO_T2_8,88,9999,9999,9999,2459230268
61,9,9,Ticks_ISO_T2_8,89,9999,9999,9999,2460031048
61,9,9,Ticks_ISO_T2_8,90,9999,9999,9999,2460830776
61,9,9,Ticks_ISO_T2_8,91,9999,9999,9999,2461630516
61,9,9,Ticks_ISO_T2_8,92,9999,9999,9999,2462430324
61,9,9,Ticks_ISO_T2_8,93,9999,9999,9999,2463231056
61,9,9,Ticks_ISO_T2_8,94,9999,9999,9999,2464030784
61,9,9,Ticks_ISO_T2_8,95,9999,9999,9999,2464830524
61,9,9,Ticks_ISO_T2_8,96,9999,9999,9999,2465630256
61,9,9,Ticks_ISO_T2_8,97,9999,9999,9999,2466431036
61,9,9,Ticks_ISO_T2_8,98,9999,9999,9999,2467230772
61,9,9,Ticks_ISO_T2_8,99,9999,9999,9999,2468030576
61,9,9,Ticks_ISO_T2_8,100,9999,9999,9999,2468830312
61,9,9,Ticks_ISO_T2_8,101,9999,9999,9999,2469631036
61,9,9,Ticks_ISO_T2_8,102,9999,9999,9999,2470430772
61,9,9,Ticks_ISO_T2_8,103,9999,9999,9999,2471230580
61,9,9,Ticks_ISO_T2_8,104,9999,9999,9999,2472030312
61,9,9,Ticks_ISO_T2_8,105,9999,9999,9999,2472831024
61,9,9,Ticks_ISO_T2_8,106,9999,9999,9999,2473630804
61,9,9,Ticks_ISO_T2_8,107,9999,9999,9999,2474430532
61,9,9,Ticks_ISO_T2_8,108,9999,9999,9999,2475230268
61,9,9,Ticks_ISO_T2_8,109,9999,9999,9999,2476031068
61,9,9,Ticks_ISO_T2_8,110,9999,9999,9999,2476830804
61,9,9,Ticks_ISO_T2_8,111,9999,9999,9999,2477630544
61,9,9,Ticks_ISO_T2_8,112,9999,9999,9999,2478430276
61,9,9,Ticks_ISO_T2_8,113,9999,9999,9999,2479231056
61,9,9,Ticks_ISO_T2_8,114,9999,9999,9999,2480030792
61,9,9,Ticks_ISO_T2_8,115,9999,9999,9999,2480830516
61,9,9,Ticks_ISO_T2_8,116,9999,9999,9999,2481630324
61,9,9,Ticks_ISO_T2_8,117,9999,9999,9999,2482431056
61,9,9,Ticks_ISO_T2_8,118,9999,9999,9999,2483230828
61,9,9,Ticks_ISO_T2_8,119,9999,9999,9999,2484030524
61,10,23,Ticks_Phase_5,0,5,42,127,2495493596
61,10,23,Ticks_Phase_5,1,5,42,127,2495994276
61,10,23,Ticks_Phase_5,2,5,42,127,2496493888
61,10,23,Ticks_Phase_5,3,5,42,127,2496993644
61,10,23,Ticks_Phase_5,4,5,42,127,2497494252
61,10,23,Ticks_Phase_5,5,1,48,51,2497510996
61,10,23,Ticks_Phase_5,6,5,42,127,2497994236
61,10,23,Ticks_Phase_5,7,1,48,52,2497995352
61,10,23,Ticks_Phase_5,8,5,42,127,2498493928
61,10,23,Ticks_Phase_5,9,1,48,57,2498509180
61,10,23,Ticks_Phase_5,10,5,42,127,2498993468
61,10,23,Ticks_Phase_5,11,1,48,58,2499008044
61,10,23,Ticks_Phase_5,12,5,42,127,2499494204
61,10,23,Ticks_Phase_5,13,1,48,58,2499522188
61,10,23,Ticks_Phase_5,14,1,48,57,2499991600
61,10,23,Ticks_Phase_5,15,5,42,127,2499994252
61,10,23,Ticks_Phase_5,16,1,48,63,2500485000
61,10,23,Ticks_Phase_5,17,5,42,127,2500493644
61,10,23,Ticks_Phase_5,18,5,42,127,2500994388
61,10,23,Ticks_Phase_5,19,1,48,63,2501000796
61,10,23,Ticks_Phase_5,20,1,48,67,2501500176
61,10,23,Ticks_Phase_5,21,5,42,127,2501504400
61,10,23,Ticks_Phase_5,22,1,48,60,2502001976
61,10,23,Ticks_Phase_5,23,5,42,127,2502004016
61,10,23,Ticks_Phase_5,24,5,42,127,2502503932
61,10,23,Ticks_Phase_5,25,1,48,55,2502516412
61,10,23,Ticks_Phase_5,26,5,42,127,2503003472
61,10,23,Ticks_Phase_5,27,1,48,54,2503008832
61,10,23,Ticks_Phase_5,28,5,42,127,2503504356
61,10,23,Ticks_Phase_5,29,1,48,67,2503523432
61,10,23,Ticks_Phase_5,30,5,42,127,2504004116
61,10,23,Ticks_Phase_5,31,1,48,47,2504021756
61,10,23,Ticks_Phase_5,32,1,48,52,2504503280
61,10,23,Ticks_Phase_5,33,5,42,127,2504504844
61,10,23,Ticks_Phase_5,34,5,42,127,2505004316
61,10,23,Ticks_Phase_5,35,1,48,65,2505010052
61,10,23,Ticks_Phase_5,36,5,42,127,2505504080
61,10,23,Ticks_Phase_5,37,1,48,60,2505535956
61,10,23,Ticks_Phase_5,38,5,42,127,2506003768
61,10,23,Ticks_Phase_5,39,1,48,45,2506021556
61,10,23,Ticks_Phase_5,40,1,48,49,2506498696
61,10,23,Ticks_Phase_5,41,5,42,127,2506503448
61,10,23,Ticks_Phase_5,42,1,48,53,2506996584
61,10,23,Ticks_Phase_5,43,5,42,127,2507004256
61,10,23,Ticks_Phase_5,44,5,42,127,2507503952
61,10,23,Ticks_Phase_5,45,1,48,63,2507509164
61,10,23,Ticks_Phase_5,46,5,42,127,2508003688
61,10,23,Ticks_Phase_5,47,1,48,51,2508009800
61,10,23,Ticks_Phase_5,48,5,42,127,2508504348
61,10,23,Ticks_Phase_5,49,1,48,54,2508507092
61,10,23,Ticks_Phase_5,50,1,48,54,2508981392
61,10,23,Ticks_Phase_5,51,5,42,127,2509014440
61,10,23,Ticks_Phase_5,52,5,42,127,2509513984
61,10,23,Ticks_Phase_5,53,1,48,73,2509529904
61,10,23,Ticks_Phase_5,54,1,48,40,2510005696
61,10,23,Ticks_Phase_5,55,5,42,127,2510013888
61,10,23,Ticks_Phase_5,56,1,48,54,2510497300
61,10,23,Ticks_Phase_5,57,5,42,127,2510504368
61,10,23,Ticks_Phase_5,58,5,42,127,2511003988
61,10,23,Ticks_Phase_5,59,1,48,56,2511012800
61,10,23,Ticks_Phase_5,60,5,42,127,2511503824
61,10,23,Ticks_Phase_5,61,1,48,70,2511560632
61,10,23,Ticks_Phase_5,62,5,42,127,2512003588
61,10,23,Ticks_Phase_5,63,1,48,44,2512030512
61,10,23,Ticks_Phase_5,64,5,42,127,2512504172
61,10,23,Ticks_Phase_5,65,1,48,45,2512507516
61,10,23,Ticks_Phase_5,66,1,48,49,2512982340
61,10,23,Ticks_Phase_5,67,5,42,127,2513003780
61,10,23,Ticks_Phase_5,68,1,48,63,2513492212
61,10,23,Ticks_Phase_5,69,5,42,127,2513503468
61,10,23,Ticks_Phase_5,70,1,48,50,2513980132
61,10,23,Ticks_Phase_5,71,5,42,127,2514004280
61,10,23,Ticks_Phase_5,72,1,48,41,2514474212
61,10,23,Ticks_Phase_5,73,5,42,127,2514503968
61,10,23,Ticks_Phase_5,74,1,48,51,2514954576
61,10,23,Ticks_Phase_5,75,5,42,127,2515003804
61,10,23,Ticks_Phase_5,76,1,48,74,2515484744
61,10,23,Ticks_Phase_5,77,5,42,127,2515503416
61,10,23,Ticks_Phase_5,78,1,48,70,2515972600
61,10,23,Ticks_Phase_5,79,5,42,127,2516004080
61,10,23,Ticks_Phase_5,80,1,48,65,2516469064
61,10,23,Ticks_Phase_5,81,5,42,127,2516503916
61,10,23,Ticks_Phase_5,82,1,48,65,2516972472
61,10,23,Ticks_Phase_5,83,5,42,127,2517003752
61,10,23,Ticks_Phase_5,84,1,48,91,2517502148
61,10,23,Ticks_Phase_5,85,5,42,127,2517504264
61,10,23,Ticks_Phase_5,86,5,42,127,2518003960
61,10,23,Ticks_Phase_5,87,1,48,62,2518004924
61,10,23,Ticks_Phase_5,88,5,42,127,2518503844
61,10,23,Ticks_Phase_5,89,1,48,56,2518515524
61,10,23,Ticks_Phase_5,90,1,48,63,2518980200
61,10,23,Ticks_Phase_5,91,5,42,127,2519003600
61,10,23,Ticks_Phase_5,92,1,48,78,2519476600
61,10,23,Ticks_Phase_5,93,5,42,127,2519513548
61,10,23,Ticks_Phase_5,94,1,48,63,2520006164
61,10,23,Ticks_Phase_5,95,5,42,127,2520014208
61,10,23,Ticks_Phase_5,96,5,42,127,2520513832
61,10,23,Ticks_Phase_5,97,1,48,64,2520524440
61,10,23,Ticks_Phase_5,98,5,42,127,2521013744
61,10,23,Ticks_Phase_5,99,1,48,63,2521022560
61,10,23,Ticks_Phase_5,100,1,48,84,2521507548
61,10,23,Ticks_Phase_5,101,5,42,127,2521514248
61,10,23,Ticks_Phase_5,102,1,48,56,2522013188
61,10,23,Ticks_Phase_5,103,5,42,127,2522014680
61,10,23,Ticks_Phase_5,104,5,42,127,2522513780
61,10,23,Ticks_Phase_5,105,1,48,54,2522527380
61,10,23,Ticks_Phase_5,106,5,42,127,2523013616
61,10,23,Ticks_Phase_5,107,1,48,70,2523019356
61,10,23,Ticks_Phase_5,108,1,48,80,2523503760
61,10,23,Ticks_Phase_5,109,5,42,127,2523514196
61,10,23,Ticks_Phase_5,110,5,42,127,2524013888
61,10,23,Ticks_Phase_5,111,1,48,57,2524027640
61,10,23,Ticks_Phase_5,112,5,42,127,2524513576
61,10,23,Ticks_Phase_5,113,1,48,72,2524546128
61,10,23,Ticks_Phase_5,114,1,48,45,2525012496
61,10,23,Ticks_Phase_5,115,5,42,127,2525014532
61,10,23,Ticks_Phase_5,116,5,42,127,2525514152
61,10,23,Ticks_Phase_5,117,1,48,71,2525529180
61,10,23,Ticks_Phase_5,118,5,42,127,2526013768
61,10,23,Ticks_Phase_5,119,1,48,67,2526024524
61,10,23,Ticks_Phase_5,120,1,48,47,2526512324
61,10,23,Ticks_Phase_5,121,5,42,127,2526513820
61,10,23,Ticks_Phase_5,122,5,42,127,2527014188
61,10,23,Ticks_Phase_5,123,1,48,58,2527021512
61,10,23,Ticks_Phase_5,124,1,48,72,2527483968
61,10,23,Ticks_Phase_5,125,5,42,127,2527533492
61,10,23,Ticks_Phase_5,126,1,48,64,2528025432
61,10,23,Ticks_Phase_5,127,5,42,127,2528034152
61,10,23,Ticks_Phase_5,128,1,48,66,2528489524
61,10,23,Ticks_Phase_5,129,5,42,127,2528533988
61,10,23,Ticks_Phase_5,130,1,48,57,2529015828
61,10,23,Ticks_Phase_5,131,5,42,127,2529033528
61,10,23,Ticks_Phase_5,132,1,48,78,2529519704
61,10,23,Ticks_Phase_5,133,5,42,127,2529534484
61,10,23,Ticks_Phase_5,134,1,48,53,2530013532
61,10,23,Ticks_Phase_5,135,5,42,127,2530033948
61,10,23,Ticks_Phase_5,136,1,48,58,2530503552
61,10,23,Ticks_Phase_5,137,5,42,127,2530533836
61,10,23,Ticks_Phase_5,138,1,48,52,2531017688
61,10,23,Ticks_Phase_5,139,5,42,127,2531033448
61,10,23,Ticks_Phase_5,140,1,48,69,2531503004
61,10,23,Ticks_Phase_5,141,5,42,127,2531534408
61,10,23,Ticks_Phase_5,142,1,48,53,2532015272
61,10,23,Ticks_Phase_5,143,5,42,127,2532033872
61,10,23,Ticks_Phase_5,144,1,48,65,2532509788
61,10,23,Ticks_Phase_5,145,5,42,127,2532533560
61,10,23,Ticks_Phase_5,146,1,48,57,2533002892
61,10,23,Ticks_Phase_5,147,5,42,127,2533034520
61,10,23,Ticks_Phase_5,148,1,48,67,2533527592
61,10,23,Ticks_Phase_5,149,5,42,127,2533534356
61,10,23,Ticks_Phase_5,150,5,42,127,2534033756
61,10,23,Ticks_Phase_5,151,1,48,59,2534036424
61,10,23,Ticks_Phase_5,152,1,48,56,2534513192
61,10,23,Ticks_Phase_5,153,5,42,127,2534533364
61,10,23,Ticks_Phase_5,154,1,48,54,2535030844
61,10,23,Ticks_Phase_5,155,5,42,127,2535034468
61,10,23,Ticks_Phase_5,156,5,42,127,2535533944
61,10,23,Ticks_Phase_5,157,1,48,72,2535536608
61,10,23,Ticks_Phase_5,158,5,42,127,2536014160
61,10,23,Ticks_Phase_5,159,1,48,51,2536018848
61,10,23,Ticks_Phase_5,160,5,42,127,2536513776
61,10,23,Ticks_Phase_5,161,1,48,54,2536527904
61,10,23,Ticks_Phase_5,162,5,42,127,2537013612
61,10,23,Ticks_Phase_5,163,1,48,60,2537027364
61,10,23,Ticks_Phase_5,164,5,42,127,2537514348
61,10,23,Ticks_Phase_5,165,1,48,74,2537529220
61,10,23,Ticks_Phase_5,166,5,42,127,2538014260
61,10,23,Ticks_Phase_5,167,1,48,61,2538043368
61,10,23,Ticks_Phase_5,168,5,42,127,2538513652
61,10,23,Ticks_Phase_5,169,1,48,48,2538526132
61,10,23,Ticks_Phase_5,170,1,48,60,2539008508
61,10,23,Ticks_Phase_5,171,5,42,127,2539013632
61,10,23,Ticks_Phase_5,172,5,42,127,2539514152
61,10,23,Ticks_Phase_5,173,1,48,79,2539535692
61,10,23,Ticks_Phase_5,174,5,42,127,2540014136
61,10,23,Ticks_Phase_5,175,1,48,52,2540015100
61,10,23,Ticks_Phase_5,176,1,48,57,2540509420
61,10,23,Ticks_Phase_5,177,5,42,127,2540513720
61,10,23,Ticks_Phase_5,178,1,48,57,2540996228
61,10,23,Ticks_Phase_5,179,5,42,127,2541014308
61,10,23,Ticks_Phase_5,180,5,42,127,2541514224
61,10,23,Ticks_Phase_5,181,1,48,67,2541530596
61,10,23,Ticks_Phase_5,182,1,48,50,2542008488
61,10,23,Ticks_Phase_5,183,5,42,127,2542013908
61,10,23,Ticks_Phase_5,184,5,42,127,2542513452
61,10,23,Ticks_Phase_5,185,1,48,49,2542525708
61,10,23,Ticks_Phase_5,186,1,48,48,2543010696
61,10,23,Ticks_Phase_5,187,5,42,127,2543014256
61,10,23,Ticks_Phase_5,188,5,42,127,2543514100
61,10,23,Ticks_Phase_5,189,1,48,58,2543551436
61,10,23,Ticks_Phase_5,190,5,42,127,2543963464
61,10,23,Ticks_Phase_5,191,1,48,47,2544023876
61,10,23,Ticks_Phase_5,192,5,42,127,2544464348
61,10,23,Ticks_Phase_5,193,1,48,42,2544526328
61,10,23,Ticks_Phase_5,194,5,42,127,2544963964
61,10,23,Ticks_Phase_5,195,1,48,47,2544973904
61,10,23,Ticks_Phase_5,196,5,42,127,2545463576
61,10,23,Ticks_Phase_5,197,1,48,71,2545483100
61,10,23,Ticks_Phase_5,198,1,48,46,2545964008
61,10,23,Ticks_Phase_5,199,5,42,127,2545965424
61,10,23,Ticks_Phase_5,200,1,48,51,2546438944
61,10,23,Ticks_Phase_5,201,5,42,127,2546464068
61,10,23,Ticks_Phase_5,202,1,48,54,2546916292
61,10,23,Ticks_Phase_5,203,5,42,127,2546963752
61,10,23,Ticks_Phase_5,204,1,48,73,2547438096
61,10,23,Ticks_Phase_5,205,5,42,127,2547463664
61,10,23,Ticks_Phase_5,206,1,48,55,2547930268
61,10,23,Ticks_Phase_5,207,5,42,127,2547964324
61,10,23,Ticks_Phase_5,208,1,48,57,2548431080
61,10,23,Ticks_Phase_5,209,5,42,127,2548464160
61,10,23,Ticks_Phase_5,210,1,48,52,2548919084
61,10,23,Ticks_Phase_5,211,5,42,127,2548963676
61,10,23,Ticks_Phase_5,212,1,48,91,2549408816
61,10,23,Ticks_Phase_5,213,5,42,127,2549464560
61,10,23,Ticks_Phase_5,214,1,48,43,2549927824
61,10,23,Ticks_Phase_5,215,5,42,127,2549974584
61,10,23,Ticks_Phase_5,216,1,48,43,2550381912
61,10,23,Ticks_Phase_5,217,5,42,127,2550474048
61,10,23,Ticks_Phase_5,218,1,48,35,2550909672
61,10,23,Ticks_Phase_5,219,5,42,127,2550973736
61,10,23,Ticks_Phase_5,220,1,48,87,2551409888
61,10,23,Ticks_Phase_5,221,5,42,127,2551473500
61,10,23,Ticks_Phase_5,222,1,48,44,2551894156
61,10,23,Ticks_Phase_5,223,5,42,127,2551974232
61,10,23,Ticks_Phase_5,224,1,48,29,2552383356
61,10,23,Ticks_Phase_5,225,5,42,127,2552524008
61,10,23,Ticks_Phase_5,226,1,48,49,2552859300
61,10,23,Ticks_Phase_5,227,5,42,127,2553023996
61,10,23,Ticks_Phase_5,228,1,48,81,2553354124
61,10,23,Ticks_Phase_5,229,5,42,127,2553523608
61,10,23,Ticks_Phase_5,230,1,48,60,2553839656
61,10,23,Ticks_Phase_5,231,5,42,127,2554024268
61,10,23,Ticks_Phase_5,232,1,48,48,2554323668
61,10,23,Ticks_Phase_5,233,5,42,127,2554524032
61,10,23,Ticks_Phase_5,234,1,48,52,2554797448
61,10,23,Ticks_Phase_5,235,5,42,127,2555023944
61,10,23,Ticks_Phase_5,236,1,48,67,2555351124
61,10,23,Ticks_Phase_5,237,5,42,127,2555523484
61,10,23,Ticks_Phase_5,238,1,48,59,2555976876
61,10,23,Ticks_Phase_5,239,5,42,127,2556024160
61,10,23,Ticks_Phase_5,240,1,48,57,2556515056
61,10,23,Ticks_Phase_5,241,5,42,127,2556523924
61,10,23,Ticks_Phase_5,242,5,42,127,2557023692
61,10,23,Ticks_Phase_5,243,1,48,66,2557033328
61,10,23,Ticks_Phase_5,244,5,42,127,2557524280
61,10,23,Ticks_Phase_5,245,1,48,63,2557555256
61,10,23,Ticks_Phase_5,246,5,42,127,2558024044
61,10,23,Ticks_Phase_5,247,1,48,66,2558032336
61,10,23,Ticks_Phase_5,248,5,42,127,2558523808
61,10,23,Ticks_Phase_5,249,1,48,65,2558540624
61,10,23,Ticks_Phase_5,250,5,42,127,2559023420
61,10,23,Ticks_Phase_5,251,1,48,59,2559042868
61,10,23,Ticks_Phase_5,252,1,48,58,2559497608
61,10,23,Ticks_Phase_5,253,5,42,127,2559524148
61,10,23,Ticks_Phase_5,254,1,48,63,2559985612
61,10,23,Ticks_Phase_5,255,5,42,127,2560023912
61,10,23,Ticks_Phase_5,256,1,48,59,2560487672
61,10,23,Ticks_Phase_5,257,5,42,127,2560523748
61,10,23,Ticks_Phase_5,258,1,48,63,2561012552
61,10,23,Ticks_Phase_5,259,5,42,127,2561123844
61,10,23,Ticks_Phase_5,260,1,48,63,2561537696
61,10,23,Ticks_Phase_5,261,5,42,127,2561624296
61,10,23,Ticks_Phase_5,262,1,48,54,2562065020
61,10,23,Ticks_Phase_5,263,5,42,127,2562134244
61,10,23,Ticks_Phase_5,264,1,48,66,2562575336
61,10,23,Ticks_Phase_5,265,5,42,127,2562634080
61,10,23,Ticks_Phase_5,266,1,48,69,2563102664
61,10,23,Ticks_Phase_5,267,5,42,127,2563133992
61,10,23,Ticks_Phase_5,268,1,48,67,2563598380
61,10,23,Ticks_Phase_5,269,5,42,127,2563633756
61,10,23,Ticks_Phase_5,270,1,48,59,2564126828
61,10,23,Ticks_Phase_5,271,5,42,127,2564134120
61,10,23,Ticks_Phase_5,272,5,42,127,2564633960
61,10,23,Ticks_Phase_5,273,1,48,65,2564635676
61,10,23,Ticks_Phase_5,274,5,42,127,2565134024
61,10,23,Ticks_Phase_5,275,1,48,50,2565143140
61,10,23,Ticks_Phase_5,276,5,42,127,2565634536
61,10,23,Ticks_Phase_5,277,1,48,65,2565639232
61,10,23,Ticks_Phase_5,278,1,48,57,2566113948
61,10,23,Ticks_Phase_5,279,5,42,127,2566144256
61,10,23,Ticks_Phase_5,280,5,42,127,2566643952
61,10,23,Ticks_Phase_5,281,1,48,70,2566658600
61,10,23,Ticks_Phase_5,282,1,48,58,2567123880
61,10,23,Ticks_Phase_5,283,5,42,127,2567143756
61,10,23,Ticks_Phase_5,284,1,48,79,2567634208
61,10,23,Ticks_Phase_5,285,5,42,127,2567643744
61,10,23,Ticks_Phase_5,286,1,48,46,2568137632
61,10,23,Ticks_Phase_5,287,5,42,127,2568144180
61,10,23,Ticks_Phase_5,288,1,48,57,2568628264
61,10,23,Ticks_Phase_5,289,5,42,127,2568644016
61,10,23,Ticks_Phase_5,290,5,42,127,2569143860
61,10,23,Ticks_Phase_5,291,1,48,60,2569150796
61,10,23,Ticks_Phase_5,292,5,42,127,2569644448
61,10,23,Ticks_Phase_5,293,1,48,69,2569648464
61,10,23,Ticks_Phase_5,294,5,42,127,2570144060
61,10,23,Ticks_Phase_5,295,1,48,53,2570152500
61,10,23,Ticks_Phase_5,296,5,42,127,2570543624
61,10,23,Ticks_Phase_5,297,1,48,46,2570646268
61,10,23,Ticks_Phase_5,298,5,42,127,2571044136
61,10,23,Ticks_Phase_5,299,1,48,58,2571097280
61,10,23,Ticks_Phase_5,300,1,48,64,2571535624
61,10,23,Ticks_Phase_5,301,5,42,127,2571543892
61,10,23,Ticks_Phase_5,302,5,42,127,2572043736
61,10,23,Ticks_Phase_5,303,1,48,58,2572049024
61,10,23,Ticks_Phase_5,304,5,42,127,2572544544
61,10,23,Ticks_Phase_5,305,1,48,54,2572547064
61,10,23,Ticks_Phase_5,306,1,48,46,2573041640
61,10,23,Ticks_Phase_5,307,5,42,127,2573044372
61,10,23,Ticks_Phase_5,308,1,48,81,2573535844
61,10,23,Ticks_Phase_5,309,5,42,127,2573543740
61,10,23,Ticks_Phase_5,310,1,48,54,2574035608
61,10,23,Ticks_Phase_5,311,5,42,127,2574043652
61,10,23,Ticks_Phase_5,312,1,48,41,2574523916
61,10,23,Ticks_Phase_5,313,5,42,127,2574544088
61,10,23,Ticks_Phase_5,314,1,48,48,2575000832
61,10,23,Ticks_Phase_5,315,5,42,127,2575044000
61,10,23,Ticks_Phase_5,316,1,48,72,2575520292
61,10,23,Ticks_Phase_5,317,5,42,127,2575543764
61,10,23,Ticks_Phase_5,318,1,48,47,2576020276
61,10,23,Ticks_Phase_5,319,5,42,127,2576044500
61,10,23,Ticks_Phase_5,320,1,48,54,2576513308
61,10,23,Ticks_Phase_5,321,5,42,127,2576544040
61,10,23,Ticks_Phase_5,322,1,48,52,2577007004
61,10,23,Ticks_Phase_5,323,5,42,127,2577043728
61,10,23,Ticks_Phase_5,324,1,48,76,2577517096
61,10,23,Ticks_Phase_5,325,5,42,127,2577543636
61,10,23,Ticks_Phase_5,326,1,48,53,2578009520
61,10,23,Ticks_Phase_5,327,5,42,127,2578044448
61,10,23,Ticks_Phase_5,328,1,48,52,2578532056
61,10,23,Ticks_Phase_5,329,5,42,127,2578543836
61,10,23,Ticks_Phase_5,330,1,48,42,2578999232
61,10,23,Ticks_Phase_5,331,5,42,127,2579043676
61,10,23,Ticks_Phase_5,332,1,48,74,2579498176
61,10,23,Ticks_Phase_5,333,5,42,127,2579544484
61,10,23,Ticks_Phase_5,334,1,48,55,2579994648
61,10,23,Ticks_Phase_5,335,5,42,127,2580054580
61,10,23,Ticks_Phase_5,0,9999,9999,9999,2495491156
61,10,23,Ticks_Phase_5,1,9999,9999,9999,2495991912
61,10,23,Ticks_Phase_5,2,9999,9999,9999,2496491600
61,10,23,Ticks_Phase_5,3,9999,9999,9999,2496991360
61,10,23,Ticks_Phase_5,4,9999,9999,9999,2497492040
61,10,23,Ticks_Phase_5,5,9999,9999,9999,2497991804
61,10,23,Ticks_Phase_5,6,9999,9999,9999,2498491492
61,10,23,Ticks_Phase_5,7,9999,9999,9999,2498991180
61,10,23,Ticks_Phase_5,8,9999,9999,9999,2499491916
61,10,23,Ticks_Phase_5,9,9999,9999,9999,2499991672
61,10,23,Ticks_Phase_5,10,9999,9999,9999,2500491360
61,10,23,Ticks_Phase_5,11,9999,9999,9999,2500992100
61,10,23,Ticks_Phase_5,12,9999,9999,9999,2501502040
61,10,23,Ticks_Phase_5,13,9999,9999,9999,2502001764
61,10,23,Ticks_Phase_5,14,9999,9999,9999,2502501496
61,10,23,Ticks_Phase_5,15,9999,9999,9999,2503001184
61,10,23,Ticks_Phase_5,16,9999,9999,9999,2503501920
61,10,23,Ticks_Phase_5,17,9999,9999,9999,2504001604
61,10,23,Ticks_Phase_5,18,9999,9999,9999,2504501368
61,10,23,Ticks_Phase_5,19,9999,9999,9999,2505002104
61,10,23,Ticks_Phase_5,20,9999,9999,9999,2505501792
61,10,23,Ticks_Phase_5,21,9999,9999,9999,2506001480
61,10,23,Ticks_Phase_5,22,9999,9999,9999,2506501236
61,10,23,Ticks_Phase_5,23,9999,9999,9999,2507001972
61,10,23,Ticks_Phase_5,24,9999,9999,9999,2507501640
61,10,23,Ticks_Phase_5,25,9999,9999,9999,2508001400
61,10,23,Ticks_Phase_5,26,9999,9999,9999,2508502136
61,10,23,Ticks_Phase_5,27,9999,9999,9999,2509012076
61,10,23,Ticks_Phase_5,28,9999,9999,9999,2509511772
61,10,23,Ticks_Phase_5,29,9999,9999,9999,2510011452
61,10,23,Ticks_Phase_5,30,9999,9999,9999,2510502004
61,10,23,Ticks_Phase_5,31,9999,9999,9999,2511001700
61,10,23,Ticks_Phase_5,32,9999,9999,9999,2511501388
61,10,23,Ticks_Phase_5,33,9999,9999,9999,2512001152
61,10,23,Ticks_Phase_5,34,9999,9999,9999,2512501884
61,10,23,Ticks_Phase_5,35,9999,9999,9999,2513001568
61,10,23,Ticks_Phase_5,36,9999,9999,9999,2513501256
61,10,23,Ticks_Phase_5,37,9999,9999,9999,2514001992
61,10,23,Ticks_Phase_5,38,9999,9999,9999,2514501756
61,10,23,Ticks_Phase_5,39,9999,9999,9999,2515001444
61,10,23,Ticks_Phase_5,40,9999,9999,9999,2515501132
61,10,23,Ticks_Phase_5,41,9999,9999,9999,2516001864
61,10,23,Ticks_Phase_5,42,9999,9999,9999,2516501628
61,10,23,Ticks_Phase_5,43,9999,9999,9999,2517001316
61,10,23,Ticks_Phase_5,44,9999,9999,9999,2517502016
61,10,23,Ticks_Phase_5,45,9999,9999,9999,2518001744
61,10,23,Ticks_Phase_5,46,9999,9999,9999,2518501484
61,10,23,Ticks_Phase_5,47,9999,9999,9999,2519001164
61,10,23,Ticks_Phase_5,48,9999,9999,9999,2519511112
61,10,23,Ticks_Phase_5,49,9999,9999,9999,2520011848
61,10,23,Ticks_Phase_5,50,9999,9999,9999,2520511544
61,10,23,Ticks_Phase_5,51,9999,9999,9999,2521011308
61,10,23,Ticks_Phase_5,52,9999,9999,9999,2521512036
61,10,23,Ticks_Phase_5,53,9999,9999,9999,2522011728
61,10,23,Ticks_Phase_5,54,9999,9999,9999,2522511420
61,10,23,Ticks_Phase_5,55,9999,9999,9999,2523011180
61,10,23,Ticks_Phase_5,56,9999,9999,9999,2523511908
61,10,23,Ticks_Phase_5,57,9999,9999,9999,2524011600
61,10,23,Ticks_Phase_5,58,9999,9999,9999,2524511292
61,10,23,Ticks_Phase_5,59,9999,9999,9999,2525012044
61,10,23,Ticks_Phase_5,60,9999,9999,9999,2525511788
61,10,23,Ticks_Phase_5,61,9999,9999,9999,2526011480
61,10,23,Ticks_Phase_5,62,9999,9999,9999,2526511168
61,10,23,Ticks_Phase_5,63,9999,9999,9999,2527011900
61,10,23,Ticks_Phase_5,64,9999,9999,9999,2527531132
61,10,23,Ticks_Phase_5,65,9999,9999,9999,2528031868
61,10,23,Ticks_Phase_5,66,9999,9999,9999,2528531552
61,10,23,Ticks_Phase_5,67,9999,9999,9999,2529031240
61,10,23,Ticks_Phase_5,68,9999,9999,9999,2529531976
61,10,23,Ticks_Phase_5,69,9999,9999,9999,2530031736
61,10,23,Ticks_Phase_5,70,9999,9999,9999,2530531400
61,10,23,Ticks_Phase_5,71,9999,9999,9999,2531031164
61,10,23,Ticks_Phase_5,72,9999,9999,9999,2531531896
61,10,23,Ticks_Phase_5,73,9999,9999,9999,2532031588
61,10,23,Ticks_Phase_5,74,9999,9999,9999,2532531276
61,10,23,Ticks_Phase_5,75,9999,9999,9999,2533032012
61,10,23,Ticks_Phase_5,76,9999,9999,9999,2533531772
61,10,23,Ticks_Phase_5,77,9999,9999,9999,2534031468
61,10,23,Ticks_Phase_5,78,9999,9999,9999,2534531152
61,10,23,Ticks_Phase_5,79,9999,9999,9999,2535031884
61,10,23,Ticks_Phase_5,80,9999,9999,9999,2535531580
61,10,23,Ticks_Phase_5,81,9999,9999,9999,2536011872
61,10,23,Ticks_Phase_5,82,9999,9999,9999,2536511560
61,10,23,Ticks_Phase_5,83,9999,9999,9999,2537011324
61,10,23,Ticks_Phase_5,84,9999,9999,9999,2537512060
61,10,23,Ticks_Phase_5,85,9999,9999,9999,2538011748
61,10,23,Ticks_Phase_5,86,9999,9999,9999,2538511440
61,10,23,Ticks_Phase_5,87,9999,9999,9999,2539011196
61,10,23,Ticks_Phase_5,88,9999,9999,9999,2539511864
61,10,23,Ticks_Phase_5,89,9999,9999,9999,2540011600
61,10,23,Ticks_Phase_5,90,9999,9999,9999,2540511360
61,10,23,Ticks_Phase_5,91,9999,9999,9999,2541012096
61,10,23,Ticks_Phase_5,92,9999,9999,9999,2541511788
61,10,23,Ticks_Phase_5,93,9999,9999,9999,2542011472
61,10,23,Ticks_Phase_5,94,9999,9999,9999,2542511168
61,10,23,Ticks_Phase_5,95,9999,9999,9999,2543011892
61,10,23,Ticks_Phase_5,96,9999,9999,9999,2543511664
61,10,23,Ticks_Phase_5,97,9999,9999,9999,2543961176
61,10,23,Ticks_Phase_5,98,9999,9999,9999,2544461912
61,10,23,Ticks_Phase_5,99,9999,9999,9999,2544961600
61,10,23,Ticks_Phase_5,100,9999,9999,9999,2545461364
61,10,23,Ticks_Phase_5,101,9999,9999,9999,2545962096
61,10,23,Ticks_Phase_5,102,9999,9999,9999,2546461780
61,10,23,Ticks_Phase_5,103,9999,9999,9999,2546961468
61,10,23,Ticks_Phase_5,104,9999,9999,9999,2547461228
61,10,23,Ticks_Phase_5,105,9999,9999,9999,2547961964
61,10,23,Ticks_Phase_5,106,9999,9999,9999,2548461652
61,10,23,Ticks_Phase_5,107,9999,9999,9999,2548961392
61,10,23,Ticks_Phase_5,108,9999,9999,9999,2549462124
61,10,23,Ticks_Phase_5,109,9999,9999,9999,2549972072
61,10,23,Ticks_Phase_5,110,9999,9999,9999,2550471760
61,10,23,Ticks_Phase_5,111,9999,9999,9999,2550971448
61,10,23,Ticks_Phase_5,112,9999,9999,9999,2551471212
61,10,23,Ticks_Phase_5,113,9999,9999,9999,2551971948
61,10,23,Ticks_Phase_5,114,9999,9999,9999,2552521796
61,10,23,Ticks_Phase_5,115,9999,9999,9999,2553021560
61,10,23,Ticks_Phase_5,116,9999,9999,9999,2553521248
61,10,23,Ticks_Phase_5,117,9999,9999,9999,2554021980
61,10,23,Ticks_Phase_5,118,9999,9999,9999,2554521668
61,10,23,Ticks_Phase_5,119,9999,9999,9999,2555021432
61,10,23,Ticks_Phase_5,120,9999,9999,9999,2555521124
61,10,23,Ticks_Phase_5,121,9999,9999,9999,2556021872
61,10,23,Ticks_Phase_5,122,9999,9999,9999,2556521560
61,10,23,Ticks_Phase_5,123,9999,9999,9999,2557021256
61,10,23,Ticks_Phase_5,124,9999,9999,9999,2557521992
61,10,23,Ticks_Phase_5,125,9999,9999,9999,2558021756
61,10,23,Ticks_Phase_5,126,9999,9999,9999,2558521444
61,10,23,Ticks_Phase_5,127,9999,9999,9999,2559021132
61,10,23,Ticks_Phase_5,128,9999,9999,9999,2559521860
61,10,23,Ticks_Phase_5,129,9999,9999,9999,2560021624
61,10,23,Ticks_Phase_5,130,9999,9999,9999,2560521312
61,10,23,Ticks_Phase_5,131,9999,9999,9999,2561121336
61,10,23,Ticks_Phase_5,132,9999,9999,9999,2561622084
61,10,23,Ticks_Phase_5,133,9999,9999,9999,2562132032
61,10,23,Ticks_Phase_5,134,9999,9999,9999,2562631792
61,10,23,Ticks_Phase_5,135,9999,9999,9999,2563131484
61,10,23,Ticks_Phase_5,136,9999,9999,9999,2563631172
61,10,23,Ticks_Phase_5,137,9999,9999,9999,2564131908
61,10,23,Ticks_Phase_5,138,9999,9999,9999,2564631676
61,10,23,Ticks_Phase_5,139,9999,9999,9999,2565131364
61,10,23,Ticks_Phase_5,140,9999,9999,9999,2565632100
61,10,23,Ticks_Phase_5,141,9999,9999,9999,2566142044
61,10,23,Ticks_Phase_5,142,9999,9999,9999,2566641736
61,10,23,Ticks_Phase_5,143,9999,9999,9999,2567141468
61,10,23,Ticks_Phase_5,144,9999,9999,9999,2567641160
61,10,23,Ticks_Phase_5,145,9999,9999,9999,2568141892
61,10,23,Ticks_Phase_5,146,9999,9999,9999,2568641656
61,10,23,Ticks_Phase_5,147,9999,9999,9999,2569141352
61,10,23,Ticks_Phase_5,148,9999,9999,9999,2569642084
61,10,23,Ticks_Phase_5,149,9999,9999,9999,2570141772
61,10,23,Ticks_Phase_5,150,9999,9999,9999,2570541112
61,10,23,Ticks_Phase_5,151,9999,9999,9999,2571041848
61,10,23,Ticks_Phase_5,152,9999,9999,9999,2571541604
61,10,23,Ticks_Phase_5,153,9999,9999,9999,2572041300
61,10,23,Ticks_Phase_5,154,9999,9999,9999,2572542032
61,10,23,Ticks_Phase_5,155,9999,9999,9999,2573041792
61,10,23,Ticks_Phase_5,156,9999,9999,9999,2573541452
61,10,23,Ticks_Phase_5,157,9999,9999,9999,2574041144
61,10,23,Ticks_Phase_5,158,9999,9999,9999,2574541876
61,10,23,Ticks_Phase_5,159,9999,9999,9999,2575041640
61,10,23,Ticks_Phase_5,160,9999,9999,9999,2575541328
61,10,23,Ticks_Phase_5,161,9999,9999,9999,2576042064
61,10,23,Ticks_Phase_5,162,9999,9999,9999,2576541752
61,10,23,Ticks_Phase_5,163,9999,9999,9999,2577041516
61,10,23,Ticks_Phase_5,164,9999,9999,9999,2577541200
61,10,23,Ticks_Phase_5,165,9999,9999,9999,2578041936
61,10,23,Ticks_Phase_5,166,9999,9999,9999,2578541624
61,10,23,Ticks_Phase_5,167,9999,9999,9999,2579041388
61,10,23,Ticks_Phase_5,168,9999,9999,9999,2579542124
61,10,23,Ticks_Phase_5,169,9999,9999,9999,2580052072
61,11,22,Ticks_Phase_8,0,5,42,127,2591512116
61,11,22,Ticks_Phase_8,1,5,42,127,2592311848
61,11,22,Ticks_Phase_8,2,5,42,127,2593112404
61,11,22,Ticks_Phase_8,3,5,42,127,2593922324
61,11,22,Ticks_Phase_8,4,1,48,53,2594728532
61,11,22,Ticks_Phase_8,5,5,42,127,2594732312
61,11,22,Ticks_Phase_8,6,1,48,51,2595527872
61,11,22,Ticks_Phase_8,7,5,42,127,2595532172
61,11,22,Ticks_Phase_8,8,5,42,127,2596331988
61,11,22,Ticks_Phase_8,9,1,48,44,2596369396
61,11,22,Ticks_Phase_8,10,5,42,127,2597131628
61,11,22,Ticks_Phase_8,11,1,48,60,2597135116
61,11,22,Ticks_Phase_8,12,5,42,127,2597932384
61,11,22,Ticks_Phase_8,13,1,48,52,2597957820
61,11,22,Ticks_Phase_8,14,1,48,46,2598727864
61,11,22,Ticks_Phase_8,15,5,42,127,2598732164
61,11,22,Ticks_Phase_8,16,1,48,57,2599490436
61,11,22,Ticks_Phase_8,17,5,42,127,2599531948
61,11,22,Ticks_Phase_8,18,1,48,50,2600285048
61,11,22,Ticks_Phase_8,19,5,42,127,2600331736
61,11,22,Ticks_Phase_8,20,1,48,50,2601107752
61,11,22,Ticks_Phase_8,21,5,42,127,2601132272
61,11,22,Ticks_Phase_8,22,1,48,57,2601922144
61,11,22,Ticks_Phase_8,23,5,42,127,2601932280
61,11,22,Ticks_Phase_8,24,5,42,127,2602732100
61,11,22,Ticks_Phase_8,25,1,48,55,2602735144
61,11,22,Ticks_Phase_8,26,1,48,53,2603529696
61,11,22,Ticks_Phase_8,27,5,42,127,2603531656
61,11,22,Ticks_Phase_8,28,5,42,127,2604332420
61,11,22,Ticks_Phase_8,29,1,48,46,2604352544
61,11,22,Ticks_Phase_8,30,1,48,42,2605126400
61,11,22,Ticks_Phase_8,31,5,42,127,2605132128
61,11,22,Ticks_Phase_8,32,1,48,46,2605896084
61,11,22,Ticks_Phase_8,33,5,42,127,2605931988
61,11,22,Ticks_Phase_8,34,1,48,59,2606714072
61,11,22,Ticks_Phase_8,35,5,42,127,2606731996
61,11,22,Ticks_Phase_8,36,5,42,127,2607532388
61,11,22,Ticks_Phase_8,37,1,48,57,2607546816
61,11,22,Ticks_Phase_8,38,5,42,127,2608332100
61,11,22,Ticks_Phase_8,39,1,48,47,2608346824
61,11,22,Ticks_Phase_8,40,1,48,52,2609087064
61,11,22,Ticks_Phase_8,41,5,42,127,2609131904
61,11,22,Ticks_Phase_8,42,1,48,58,2609929428
61,11,22,Ticks_Phase_8,43,5,42,127,2609931840
61,11,22,Ticks_Phase_8,44,5,42,127,2610732532
61,11,22,Ticks_Phase_8,45,1,48,52,2610756996
61,11,22,Ticks_Phase_8,46,5,42,127,2611532168
61,11,22,Ticks_Phase_8,47,1,48,57,2611536856
61,11,22,Ticks_Phase_8,48,1,48,46,2612324656
61,11,22,Ticks_Phase_8,49,5,42,127,2612331876
61,11,22,Ticks_Phase_8,50,5,42,127,2613131816
61,11,22,Ticks_Phase_8,51,1,48,48,2613189448
61,11,22,Ticks_Phase_8,52,5,42,127,2613932504
61,11,22,Ticks_Phase_8,53,1,48,60,2613971052
61,11,22,Ticks_Phase_8,54,1,48,55,2614682684
61,11,22,Ticks_Phase_8,55,5,42,127,2614732136
61,11,22,Ticks_Phase_8,56,5,42,127,2615512384
61,11,22,Ticks_Phase_8,57,1,48,57,2615515872
61,11,22,Ticks_Phase_8,58,1,48,60,2616322156
61,11,22,Ticks_Phase_8,59,5,42,127,2616323568
61,11,22,Ticks_Phase_8,60,1,48,61,2617090008
61,11,22,Ticks_Phase_8,61,5,42,127,2617132568
61,11,22,Ticks_Phase_8,62,1,48,56,2617898620
61,11,22,Ticks_Phase_8,63,5,42,127,2617932056
61,11,22,Ticks_Phase_8,64,1,48,59,2618710700
61,11,22,Ticks_Phase_8,65,5,42,127,2618731844
61,11,22,Ticks_Phase_8,66,5,42,127,2619531488
61,11,22,Ticks_Phase_8,67,1,48,44,2619539388
61,11,22,Ticks_Phase_8,68,5,42,127,2620332544
61,11,22,Ticks_Phase_8,69,1,48,64,2620350872
61,11,22,Ticks_Phase_8,70,1,48,51,2621125104
61,11,22,Ticks_Phase_8,71,5,42,127,2621132320
61,11,22,Ticks_Phase_8,72,5,42,127,2621931844
61,11,22,Ticks_Phase_8,73,1,48,49,2621974500
61,11,22,Ticks_Phase_8,74,5,42,127,2622731704
61,11,22,Ticks_Phase_8,75,1,48,53,2622751300
61,11,22,Ticks_Phase_8,76,5,42,127,2623532536
61,11,22,Ticks_Phase_8,77,1,48,62,2623585752
61,11,22,Ticks_Phase_8,78,5,42,127,2624332024
61,11,22,Ticks_Phase_8,79,1,48,49,2624346072
61,11,22,Ticks_Phase_8,80,1,48,57,2625089228
61,11,22,Ticks_Phase_8,81,5,42,127,2625131952
61,11,22,Ticks_Phase_8,82,1,48,58,2625906168
61,11,22,Ticks_Phase_8,83,5,42,127,2625931592
61,11,22,Ticks_Phase_8,84,1,48,72,2626727672
61,11,22,Ticks_Phase_8,85,5,42,127,2626732500
61,11,22,Ticks_Phase_8,86,5,42,127,2627532140
61,11,22,Ticks_Phase_8,87,1,48,51,2627534660
61,11,22,Ticks_Phase_8,88,1,48,40,2628329832
61,11,22,Ticks_Phase_8,89,5,42,127,2628331796
61,11,22,Ticks_Phase_8,90,1,48,43,2629080388
61,11,22,Ticks_Phase_8,91,5,42,127,2629131656
61,11,22,Ticks_Phase_8,92,1,48,60,2629858144
61,11,22,Ticks_Phase_8,93,5,42,127,2629951800
61,11,22,Ticks_Phase_8,94,1,48,46,2630633848
61,11,22,Ticks_Phase_8,95,5,42,127,2630751588
61,11,22,Ticks_Phase_8,96,1,48,35,2631456396
61,11,22,Ticks_Phase_8,97,5,42,127,2631552360
61,11,22,Ticks_Phase_8,98,1,48,38,2632256480
61,11,22,Ticks_Phase_8,99,1,48,23,2632323196
61,11,22,Ticks_Phase_8,100,5,42,127,2632352200
61,11,22,Ticks_Phase_8,101,1,48,63,2633101416
61,11,22,Ticks_Phase_8,102,5,42,127,2633152060
61,11,22,Ticks_Phase_8,103,1,48,47,2633840168
61,11,22,Ticks_Phase_8,104,5,42,127,2633951536
61,11,22,Ticks_Phase_8,105,1,48,56,2634609460
61,11,22,Ticks_Phase_8,106,5,42,127,2634752320
61,11,22,Ticks_Phase_8,107,1,48,59,2635428124
61,11,22,Ticks_Phase_8,108,5,42,127,2635552252
61,11,22,Ticks_Phase_8,109,5,42,127,2636351840
61,11,22,Ticks_Phase_8,110,1,48,66,2636435308
61,11,22,Ticks_Phase_8,111,5,42,127,2637151548
61,11,22,Ticks_Phase_8,112,1,48,61,2637190172
61,11,22,Ticks_Phase_8,113,1,48,51,2637926636
61,11,22,Ticks_Phase_8,114,5,42,127,2637952352
61,11,22,Ticks_Phase_8,115,1,48,48,2638707320
61,11,22,Ticks_Phase_8,116,5,42,127,2638752212
61,11,22,Ticks_Phase_8,117,1,48,68,2639489148
61,11,22,Ticks_Phase_8,118,5,42,127,2639552072
61,11,22,Ticks_Phase_8,119,1,48,50,2640299568
61,11,22,Ticks_Phase_8,120,5,42,127,2640351712
61,11,22,Ticks_Phase_8,121,1,48,70,2641046996
61,11,22,Ticks_Phase_8,122,5,42,127,2641152328
61,11,22,Ticks_Phase_8,123,1,48,59,2641834352
61,11,22,Ticks_Phase_8,124,5,42,127,2641952192
61,11,22,Ticks_Phase_8,125,1,48,59,2642703060
61,11,22,Ticks_Phase_8,126,5,42,127,2642791908
61,11,22,Ticks_Phase_8,127,5,42,127,2643591552
61,11,22,Ticks_Phase_8,128,1,48,66,2643634512
61,11,22,Ticks_Phase_8,129,5,42,127,2644392308
61,11,22,Ticks_Phase_8,130,1,48,58,2644467268
61,11,22,Ticks_Phase_8,131,5,42,127,2645192096
61,11,22,Ticks_Phase_8,132,1,48,58,2645216028
61,11,22,Ticks_Phase_8,133,1,48,53,2645988472
61,11,22,Ticks_Phase_8,134,5,42,127,2645991824
61,11,22,Ticks_Phase_8,135,1,48,60,2646751572
61,11,22,Ticks_Phase_8,136,5,42,127,2646791464
61,11,22,Ticks_Phase_8,137,1,48,58,2647527332
61,11,22,Ticks_Phase_8,138,5,42,127,2647592220
61,11,22,Ticks_Phase_8,139,1,48,59,2648306980
61,11,22,Ticks_Phase_8,140,5,42,127,2648392008
61,11,22,Ticks_Phase_8,141,1,48,49,2649096124
61,11,22,Ticks_Phase_8,142,5,42,127,2649191792
61,11,22,Ticks_Phase_8,143,1,48,63,2649930148
61,11,22,Ticks_Phase_8,144,5,42,127,2649991504
61,11,22,Ticks_Phase_8,145,1,48,57,2650764376
61,11,22,Ticks_Phase_8,146,5,42,127,2650792260
61,11,22,Ticks_Phase_8,147,5,42,127,2651591980
61,11,22,Ticks_Phase_8,148,1,48,61,2651593092
61,11,22,Ticks_Phase_8,149,5,42,127,2652391940
61,11,22,Ticks_Phase_8,150,1,48,67,2652397976
61,11,22,Ticks_Phase_8,151,1,48,74,2653153996
61,11,22,Ticks_Phase_8,152,5,42,127,2653191644
61,11,22,Ticks_Phase_8,153,1,48,66,2653972608
61,11,22,Ticks_Phase_8,154,5,42,127,2653992252
61,11,22,Ticks_Phase_8,155,5,42,127,2654791900
61,11,22,Ticks_Phase_8,156,1,48,60,2654806548
61,11,22,Ticks_Phase_8,157,1,48,63,2655572180
61,11,22,Ticks_Phase_8,158,5,42,127,2655591752
61,11,22,Ticks_Phase_8,159,5,42,127,2656351856
61,11,22,Ticks_Phase_8,160,1,48,66,2656369200
61,11,22,Ticks_Phase_8,161,1,48,32,2657080844
61,11,22,Ticks_Phase_8,162,5,42,127,2657152236
61,11,22,Ticks_Phase_8,163,1,48,58,2657872836
61,11,22,Ticks_Phase_8,164,5,42,127,2657952244
61,11,22,Ticks_Phase_8,165,1,48,66,2658667828
61,11,22,Ticks_Phase_8,166,5,42,127,2658751884
61,11,22,Ticks_Phase_8,167,1,48,74,2659508872
61,11,22,Ticks_Phase_8,168,5,42,127,2659551668
61,11,22,Ticks_Phase_8,169,1,48,57,2660294664
61,11,22,Ticks_Phase_8,170,5,42,127,2660352528
61,11,22,Ticks_Phase_8,171,1,48,64,2661064488
61,11,22,Ticks_Phase_8,172,5,42,127,2661152016
61,11,22,Ticks_Phase_8,173,1,48,59,2661860468
61,11,22,Ticks_Phase_8,174,5,42,127,2661952456
61,11,22,Ticks_Phase_8,175,1,48,51,2662722804
61,11,22,Ticks_Phase_8,176,5,42,127,2662751512
61,11,22,Ticks_Phase_8,177,1,48,51,2663531272
61,11,22,Ticks_Phase_8,178,5,42,127,2663552568
61,11,22,Ticks_Phase_8,179,1,48,48,2664299372
61,11,22,Ticks_Phase_8,180,5,42,127,2664352056
61,11,22,Ticks_Phase_8,181,1,48,64,2665110476
61,11,22,Ticks_Phase_8,182,5,42,127,2665151840
61,11,22,Ticks_Phase_8,183,5,42,127,2665951560
61,11,22,Ticks_Phase_8,184,1,48,70,2665965788
61,11,22,Ticks_Phase_8,185,5,42,127,2666752640
61,11,22,Ticks_Phase_8,186,1,48,65,2666753608
61,11,22,Ticks_Phase_8,187,5,42,127,2667552204
61,11,22,Ticks_Phase_8,188,1,48,63,2667593516
61,11,22,Ticks_Phase_8,189,5,42,127,2668351772
61,11,22,Ticks_Phase_8,190,1,48,43,2668389408
61,11,22,Ticks_Phase_8,191,5,42,127,2669071652
61,11,22,Ticks_Phase_8,192,1,48,65,2669151908
61,11,22,Ticks_Phase_8,193,5,42,127,2669871440
61,11,22,Ticks_Phase_8,194,1,48,57,2669893056
61,11,22,Ticks_Phase_8,195,5,42,127,2670672344
61,11,22,Ticks_Phase_8,196,1,48,55,2670677488
61,11,22,Ticks_Phase_8,197,1,48,48,2671448356
61,11,22,Ticks_Phase_8,198,5,42,127,2671471980
61,11,22,Ticks_Phase_8,199,1,48,56,2672249192
61,11,22,Ticks_Phase_8,200,5,42,127,2672271616
61,11,22,Ticks_Phase_8,201,1,48,86,2673059384
61,11,22,Ticks_Phase_8,202,5,42,127,2673071552
61,11,22,Ticks_Phase_8,203,1,48,57,2673828168
61,11,22,Ticks_Phase_8,204,5,42,127,2673872308
61,11,22,Ticks_Phase_8,205,1,48,57,2674592240
61,11,22,Ticks_Phase_8,206,5,42,127,2674672120
61,11,22,Ticks_Phase_8,207,1,48,63,2675384084
61,11,22,Ticks_Phase_8,208,5,42,127,2675471684
61,11,22,Ticks_Phase_8,209,1,48,67,2676171892
61,11,22,Ticks_Phase_8,210,5,42,127,2676271456
61,11,22,Ticks_Phase_8,211,5,42,127,2677072308
61,11,22,Ticks_Phase_8,212,1,48,74,2677093480
61,11,22,Ticks_Phase_8,213,1,48,50,2677839028
61,11,22,Ticks_Phase_8,214,5,42,127,2677872088
61,11,22,Ticks_Phase_8,215,1,48,59,2678590220
61,11,22,Ticks_Phase_8,216,5,42,127,2678671872
61,11,22,Ticks_Phase_8,217,1,48,59,2679386260
61,11,22,Ticks_Phase_8,218,5,42,127,2679471360
61,11,22,Ticks_Phase_8,219,1,48,68,2680134220
61,11,22,Ticks_Phase_8,220,5,42,127,2680272328
61,11,22,Ticks_Phase_8,221,1,48,56,2680930044
61,11,22,Ticks_Phase_8,222,5,42,127,2681072064
61,11,22,Ticks_Phase_8,223,1,48,65,2681778572
61,11,22,Ticks_Phase_8,224,5,42,127,2681871940
61,11,22,Ticks_Phase_8,225,1,48,67,2682634852
61,11,22,Ticks_Phase_8,226,5,42,127,2682752516
61,11,22,Ticks_Phase_8,227,1,48,70,2683489148
61,11,22,Ticks_Phase_8,228,5,42,127,2683552020
61,11,22,Ticks_Phase_8,229,1,48,68,2684339112
61,11,22,Ticks_Phase_8,230,5,42,127,2684352104
61,11,22,Ticks_Phase_8,231,5,42,127,2685151596
61,11,22,Ticks_Phase_8,232,1,48,51,2685190768
61,11,22,Ticks_Phase_8,233,5,42,127,2685952308
61,11,22,Ticks_Phase_8,234,1,48,62,2685953196
61,11,22,Ticks_Phase_8,235,1,48,67,2686732664
61,11,22,Ticks_Phase_8,236,5,42,127,2686752236
61,11,22,Ticks_Phase_8,237,1,48,59,2687492312
61,11,22,Ticks_Phase_8,238,5,42,127,2687552020
61,11,22,Ticks_Phase_8,239,1,48,65,2688243720
61,11,22,Ticks_Phase_8,240,5,42,127,2688351940
61,11,22,Ticks_Phase_8,241,1,48,60,2688990388
61,11,22,Ticks_Phase_8,242,5,42,127,2689152324
61,11,22,Ticks_Phase_8,243,1,48,54,2689891892
61,11,22,Ticks_Phase_8,244,5,42,127,2689952128
61,11,22,Ticks_Phase_8,245,1,48,19,2689996868
61,11,22,Ticks_Phase_8,246,5,42,127,2690751972
61,11,22,Ticks_Phase_8,247,1,48,65,2690788416
61,11,22,Ticks_Phase_8,248,5,42,127,2691551584
61,11,22,Ticks_Phase_8,249,1,48,54,2691572476
61,11,22,Ticks_Phase_8,250,1,48,50,2692330624
61,11,22,Ticks_Phase_8,251,5,42,127,2692352360
61,11,22,Ticks_Phase_8,252,1,48,67,2693098720
61,11,22,Ticks_Phase_8,253,5,42,127,2693152000
61,11,22,Ticks_Phase_8,254,1,48,69,2693904348
61,11,22,Ticks_Phase_8,255,5,42,127,2693952012
61,11,22,Ticks_Phase_8,256,5,42,127,2694751728
61,11,22,Ticks_Phase_8,257,1,48,53,2694754248
61,11,22,Ticks_Phase_8,258,1,48,66,2695521308
61,11,22,Ticks_Phase_8,259,5,42,127,2695552260
61,11,22,Ticks_Phase_8,260,1,48,62,2696343552
61,11,22,Ticks_Phase_8,261,5,42,127,2696511864
61,11,22,Ticks_Phase_8,262,1,48,60,2697275616
61,11,22,Ticks_Phase_8,263,5,42,127,2697311888
61,11,22,Ticks_Phase_8,264,1,48,62,2698046868
61,11,22,Ticks_Phase_8,265,5,42,127,2698112348
61,11,22,Ticks_Phase_8,266,1,48,60,2698831084
61,11,22,Ticks_Phase_8,267,5,42,127,2698911988
61,11,22,Ticks_Phase_8,268,1,48,42,2699682460
61,11,22,Ticks_Phase_8,269,5,42,127,2699711848
61,11,22,Ticks_Phase_8,270,1,48,61,2700454684
61,11,22,Ticks_Phase_8,271,5,42,127,2700511708
61,11,22,Ticks_Phase_8,272,1,48,55,2701280240
61,11,22,Ticks_Phase_8,273,5,42,127,2701312340
61,11,22,Ticks_Phase_8,274,5,42,127,2702112136
61,11,22,Ticks_Phase_8,275,1,48,62,2702138016
61,11,22,Ticks_Phase_8,276,5,42,127,2702911772
61,11,22,Ticks_Phase_8,277,1,48,48,2702940288
61,11,22,Ticks_Phase_8,278,5,42,127,2703711560
61,11,22,Ticks_Phase_8,279,1,48,73,2703717220
61,11,22,Ticks_Phase_8,280,1,48,67,2704502696
61,11,22,Ticks_Phase_8,281,5,42,127,2704512312
61,11,22,Ticks_Phase_8,282,1,48,60,2705276492
61,11,22,Ticks_Phase_8,283,5,42,127,2705312024
61,11,22,Ticks_Phase_8,284,1,48,75,2706103916
61,11,22,Ticks_Phase_8,285,5,42,127,2706111812
61,11,22,Ticks_Phase_8,286,5,42,127,2706911528
61,11,22,Ticks_Phase_8,287,1,48,70,2706948592
61,11,22,Ticks_Phase_8,288,1,48,65,2707708748
61,11,22,Ticks_Phase_8,289,5,42,127,2707712604
61,11,22,Ticks_Phase_8,290,1,48,62,2708497460
61,11,22,Ticks_Phase_8,291,5,42,127,2708512244
61,11,22,Ticks_Phase_8,292,1,48,63,2709290736
61,11,22,Ticks_Phase_8,293,5,42,127,2709311880
61,11,22,Ticks_Phase_8,294,5,42,127,2710111672
61,11,22,Ticks_Phase_8,295,1,48,53,2710114192
61,11,22,Ticks_Phase_8,296,1,48,77,2710891880
61,11,22,Ticks_Phase_8,297,5,42,127,2710912576
61,11,22,Ticks_Phase_8,298,5,42,127,2711552484
61,11,22,Ticks_Phase_8,299,1,48,75,2711698936
61,11,22,Ticks_Phase_8,300,1,48,62,2712285180
61,11,22,Ticks_Phase_8,301,5,42,127,2712352488
61,11,22,Ticks_Phase_8,302,1,48,64,2713014200
61,11,22,Ticks_Phase_8,303,5,42,127,2713151808
61,11,22,Ticks_Phase_8,304,1,48,59,2713831468
61,11,22,Ticks_Phase_8,305,5,42,127,2713951524
61,11,22,Ticks_Phase_8,306,1,48,70,2714722912
61,11,22,Ticks_Phase_8,307,5,42,127,2714752296
61,11,22,Ticks_Phase_8,308,1,48,65,2715526216
61,11,22,Ticks_Phase_8,309,5,42,127,2715552376
61,11,22,Ticks_Phase_8,310,1,48,52,2716287356
61,11,22,Ticks_Phase_8,311,5,42,127,2716351792
61,11,22,Ticks_Phase_8,312,1,48,79,2717079348
61,11,22,Ticks_Phase_8,313,5,42,127,2717151580
61,11,22,Ticks_Phase_8,314,1,48,69,2717868652
61,11,22,Ticks_Phase_8,315,5,42,127,2717952360
61,11,22,Ticks_Phase_8,316,1,48,61,2718679832
61,11,22,Ticks_Phase_8,317,5,42,127,2718752220
61,11,22,Ticks_Phase_8,318,1,48,60,2719532880
61,11,22,Ticks_Phase_8,319,5,42,127,2719551860
61,11,22,Ticks_Phase_8,320,1,48,64,2720312380
61,11,22,Ticks_Phase_8,321,5,42,127,2720351568
61,11,22,Ticks_Phase_8,322,1,48,73,2721071204
61,11,22,Ticks_Phase_8,323,5,42,127,2721152252
61,11,22,Ticks_Phase_8,324,1,48,62,2721890232
61,11,22,Ticks_Phase_8,325,5,42,127,2721952188
61,11,22,Ticks_Phase_8,326,1,48,62,2722637964
61,11,22,Ticks_Phase_8,327,5,42,127,2722751884
61,11,22,Ticks_Phase_8,328,1,48,55,2723459848
61,11,22,Ticks_Phase_8,329,5,42,127,2723551612
61,11,22,Ticks_Phase_8,330,1,48,63,2724271092
61,11,22,Ticks_Phase_8,331,5,42,127,2724352320
61,11,22,Ticks_Phase_8,332,1,48,43,2725126392
61,11,22,Ticks_Phase_8,333,5,42,127,2725152108
61,11,22,Ticks_Phase_8,334,1,48,67,2725876824
61,11,22,Ticks_Phase_8,335,5,42,127,2725951892
61,11,22,Ticks_Phase_8,336,1,48,58,2726684472
61,11,22,Ticks_Phase_8,337,5,42,127,2726751532
61,11,22,Ticks_Phase_8,0,9999,9999,9999,2591509604
61,11,22,Ticks_Phase_8,1,9999,9999,9999,2592309340
61,11,22,Ticks_Phase_8,2,9999,9999,9999,2593110120
61,11,22,Ticks_Phase_8,3,9999,9999,9999,2593920112
61,11,22,Ticks_Phase_8,4,9999,9999,9999,2594730100
61,11,22,Ticks_Phase_8,5,9999,9999,9999,2595529812
61,11,22,Ticks_Phase_8,6,9999,9999,9999,2596329552
61,11,22,Ticks_Phase_8,7,9999,9999,9999,2597129340
61,11,22,Ticks_Phase_8,8,9999,9999,9999,2597930096
61,11,22,Ticks_Phase_8,9,9999,9999,9999,2598729804
61,11,22,Ticks_Phase_8,10,9999,9999,9999,2599529588
61,11,22,Ticks_Phase_8,11,9999,9999,9999,2600329300
61,11,22,Ticks_Phase_8,12,9999,9999,9999,2601130060
61,11,22,Ticks_Phase_8,13,9999,9999,9999,2601929844
61,11,22,Ticks_Phase_8,14,9999,9999,9999,2602729588
61,11,22,Ticks_Phase_8,15,9999,9999,9999,2603529324
61,11,22,Ticks_Phase_8,16,9999,9999,9999,2604330060
61,11,22,Ticks_Phase_8,17,9999,9999,9999,2605129840
61,11,22,Ticks_Phase_8,18,9999,9999,9999,2605929552
61,11,22,Ticks_Phase_8,19,9999,9999,9999,2606729340
61,11,22,Ticks_Phase_8,20,9999,9999,9999,2607530104
61,11,22,Ticks_Phase_8,21,9999,9999,9999,2608329816
61,11,22,Ticks_Phase_8,22,9999,9999,9999,2609129544
61,11,22,Ticks_Phase_8,23,9999,9999,9999,2609929300
61,11,22,Ticks_Phase_8,24,9999,9999,9999,2610730096
61,11,22,Ticks_Phase_8,25,9999,9999,9999,2611529808
61,11,22,Ticks_Phase_8,26,9999,9999,9999,2612329588
61,11,22,Ticks_Phase_8,27,9999,9999,9999,2613129308
61,11,22,Ticks_Phase_8,28,9999,9999,9999,2613930068
61,11,22,Ticks_Phase_8,29,9999,9999,9999,2614729848
61,11,22,Ticks_Phase_8,30,9999,9999,9999,2615510096
61,11,22,Ticks_Phase_8,31,9999,9999,9999,2616320092
61,11,22,Ticks_Phase_8,32,9999,9999,9999,2617130056
61,11,22,Ticks_Phase_8,33,9999,9999,9999,2617929844
61,11,22,Ticks_Phase_8,34,9999,9999,9999,2618729560
61,11,22,Ticks_Phase_8,35,9999,9999,9999,2619529276
61,11,22,Ticks_Phase_8,36,9999,9999,9999,2620330108
61,11,22,Ticks_Phase_8,37,9999,9999,9999,2621129812
61,11,22,Ticks_Phase_8,38,9999,9999,9999,2621929556
61,11,22,Ticks_Phase_8,39,9999,9999,9999,2622729344
61,11,22,Ticks_Phase_8,40,9999,9999,9999,2623530100
61,11,22,Ticks_Phase_8,41,9999,9999,9999,2624329812
61,11,22,Ticks_Phase_8,42,9999,9999,9999,2625129592
61,11,22,Ticks_Phase_8,43,9999,9999,9999,2625929304
61,11,22,Ticks_Phase_8,44,9999,9999,9999,2626730064
61,11,22,Ticks_Phase_8,45,9999,9999,9999,2627529856
61,11,22,Ticks_Phase_8,46,9999,9999,9999,2628329548
61,11,22,Ticks_Phase_8,47,9999,9999,9999,2629129296
61,11,22,Ticks_Phase_8,48,9999,9999,9999,2629949528
61,11,22,Ticks_Phase_8,49,9999,9999,9999,2630749300
61,11,22,Ticks_Phase_8,50,9999,9999,9999,2631550072
61,11,22,Ticks_Phase_8,51,9999,9999,9999,2632349764
61,11,22,Ticks_Phase_8,52,9999,9999,9999,2633149552
61,11,22,Ticks_Phase_8,53,9999,9999,9999,2633949248
61,11,22,Ticks_Phase_8,54,9999,9999,9999,2634750032
61,11,22,Ticks_Phase_8,55,9999,9999,9999,2635549816
61,11,22,Ticks_Phase_8,56,9999,9999,9999,2636349552
61,11,22,Ticks_Phase_8,57,9999,9999,9999,2637149260
61,11,22,Ticks_Phase_8,58,9999,9999,9999,2637950064
61,11,22,Ticks_Phase_8,59,9999,9999,9999,2638749776
61,11,22,Ticks_Phase_8,60,9999,9999,9999,2639549564
61,11,22,Ticks_Phase_8,61,9999,9999,9999,2640349276
61,11,22,Ticks_Phase_8,62,9999,9999,9999,2641150040
61,11,22,Ticks_Phase_8,63,9999,9999,9999,2641949752
61,11,22,Ticks_Phase_8,64,9999,9999,9999,2642789472
61,11,22,Ticks_Phase_8,65,9999,9999,9999,2643589192
61,11,22,Ticks_Phase_8,66,9999,9999,9999,2644389948
61,11,22,Ticks_Phase_8,67,9999,9999,9999,2645189732
61,11,22,Ticks_Phase_8,68,9999,9999,9999,2645989440
61,11,22,Ticks_Phase_8,69,9999,9999,9999,2646789176
61,11,22,Ticks_Phase_8,70,9999,9999,9999,2647590008
61,11,22,Ticks_Phase_8,71,9999,9999,9999,2648389720
61,11,22,Ticks_Phase_8,72,9999,9999,9999,2649189432
61,11,22,Ticks_Phase_8,73,9999,9999,9999,2649989216
61,11,22,Ticks_Phase_8,74,9999,9999,9999,2650789976
61,11,22,Ticks_Phase_8,75,9999,9999,9999,2651589692
61,11,22,Ticks_Phase_8,76,9999,9999,9999,2652389480
61,11,22,Ticks_Phase_8,77,9999,9999,9999,2653189208
61,11,22,Ticks_Phase_8,78,9999,9999,9999,2653989968
61,11,22,Ticks_Phase_8,79,9999,9999,9999,2654789688
61,11,22,Ticks_Phase_8,80,9999,9999,9999,2655589464
61,11,22,Ticks_Phase_8,81,9999,9999,9999,2656349272
61,11,22,Ticks_Phase_8,82,9999,9999,9999,2657150024
61,11,22,Ticks_Phase_8,83,9999,9999,9999,2657949808
61,11,22,Ticks_Phase_8,84,9999,9999,9999,2658749524
61,11,22,Ticks_Phase_8,85,9999,9999,9999,2659549308
61,11,22,Ticks_Phase_8,86,9999,9999,9999,2660350016
61,11,22,Ticks_Phase_8,87,9999,9999,9999,2661149804
61,11,22,Ticks_Phase_8,88,9999,9999,9999,2661949516
61,11,22,Ticks_Phase_8,89,9999,9999,9999,2662749300
61,11,22,Ticks_Phase_8,90,9999,9999,9999,2663550056
61,11,22,Ticks_Phase_8,91,9999,9999,9999,2664349768
61,11,22,Ticks_Phase_8,92,9999,9999,9999,2665149556
61,11,22,Ticks_Phase_8,93,9999,9999,9999,2665949272
61,11,22,Ticks_Phase_8,94,9999,9999,9999,2666750056
61,11,22,Ticks_Phase_8,95,9999,9999,9999,2667549768
61,11,22,Ticks_Phase_8,96,9999,9999,9999,2668349556
61,11,22,Ticks_Phase_8,97,9999,9999,9999,2669069440
61,11,22,Ticks_Phase_8,98,9999,9999,9999,2669869152
61,11,22,Ticks_Phase_8,99,9999,9999,9999,2670669908
61,11,22,Ticks_Phase_8,100,9999,9999,9999,2671469692
61,11,22,Ticks_Phase_8,101,9999,9999,9999,2672269404
61,11,22,Ticks_Phase_8,102,9999,9999,9999,2673069116
61,11,22,Ticks_Phase_8,103,9999,9999,9999,2673869948
61,11,22,Ticks_Phase_8,104,9999,9999,9999,2674669684
61,11,22,Ticks_Phase_8,105,9999,9999,9999,2675469396
61,11,22,Ticks_Phase_8,106,9999,9999,9999,2676269168
61,11,22,Ticks_Phase_8,107,9999,9999,9999,2677069948
61,11,22,Ticks_Phase_8,108,9999,9999,9999,2677869652
61,11,22,Ticks_Phase_8,109,9999,9999,9999,2678669436
61,11,22,Ticks_Phase_8,110,9999,9999,9999,2679469148
61,11,22,Ticks_Phase_8,111,9999,9999,9999,2680269892
61,11,22,Ticks_Phase_8,112,9999,9999,9999,2681069628
61,11,22,Ticks_Phase_8,113,9999,9999,9999,2681869432
61,11,22,Ticks_Phase_8,114,9999,9999,9999,2682750080
61,11,22,Ticks_Phase_8,115,9999,9999,9999,2683549808
61,11,22,Ticks_Phase_8,116,9999,9999,9999,2684349520
61,11,22,Ticks_Phase_8,117,9999,9999,9999,2685149312
61,11,22,Ticks_Phase_8,118,9999,9999,9999,2685950020
61,11,22,Ticks_Phase_8,119,9999,9999,9999,2686749800
61,11,22,Ticks_Phase_8,120,9999,9999,9999,2687549512
61,11,22,Ticks_Phase_8,121,9999,9999,9999,2688349280
61,11,22,Ticks_Phase_8,122,9999,9999,9999,2689150040
61,11,22,Ticks_Phase_8,123,9999,9999,9999,2689949768
61,11,22,Ticks_Phase_8,124,9999,9999,9999,2690749536
61,11,22,Ticks_Phase_8,125,9999,9999,9999,2691549296
61,11,22,Ticks_Phase_8,126,9999,9999,9999,2692350076
61,11,22,Ticks_Phase_8,127,9999,9999,9999,2693149788
61,11,22,Ticks_Phase_8,128,9999,9999,9999,2693949500
61,11,22,Ticks_Phase_8,129,9999,9999,9999,2694749292
61,11,22,Ticks_Phase_8,130,9999,9999,9999,2695550044
61,11,22,Ticks_Phase_8,131,9999,9999,9999,2696509504
61,11,22,Ticks_Phase_8,132,9999,9999,9999,2697309304
61,11,22,Ticks_Phase_8,133,9999,9999,9999,2698110064
61,11,22,Ticks_Phase_8,134,9999,9999,9999,2698909776
61,11,22,Ticks_Phase_8,135,9999,9999,9999,2699709560
61,11,22,Ticks_Phase_8,136,9999,9999,9999,2700509272
61,11,22,Ticks_Phase_8,137,9999,9999,9999,2701310056
61,11,22,Ticks_Phase_8,138,9999,9999,9999,2702109772
61,11,22,Ticks_Phase_8,139,9999,9999,9999,2702909560
61,11,22,Ticks_Phase_8,140,9999,9999,9999,2703709272
61,11,22,Ticks_Phase_8,141,9999,9999,9999,2704510024
61,11,22,Ticks_Phase_8,142,9999,9999,9999,2705309812
61,11,22,Ticks_Phase_8,143,9999,9999,9999,2706109524
61,11,22,Ticks_Phase_8,144,9999,9999,9999,2706909244
61,11,22,Ticks_Phase_8,145,9999,9999,9999,2707710020
61,11,22,Ticks_Phase_8,146,9999,9999,9999,2708509808
61,11,22,Ticks_Phase_8,147,9999,9999,9999,2709309520
61,11,22,Ticks_Phase_8,148,9999,9999,9999,2710109236
61,11,22,Ticks_Phase_8,149,9999,9999,9999,2710910064
61,11,22,Ticks_Phase_8,150,9999,9999,9999,2711550048
61,11,22,Ticks_Phase_8,151,9999,9999,9999,2712349752
61,11,22,Ticks_Phase_8,152,9999,9999,9999,2713149524
61,11,22,Ticks_Phase_8,153,9999,9999,9999,2713949312
61,11,22,Ticks_Phase_8,154,9999,9999,9999,2714750008
61,11,22,Ticks_Phase_8,155,9999,9999,9999,2715549796
61,11,22,Ticks_Phase_8,156,9999,9999,9999,2716349508
61,11,22,Ticks_Phase_8,157,9999,9999,9999,2717149292
61,11,22,Ticks_Phase_8,158,9999,9999,9999,2717950076
61,11,22,Ticks_Phase_8,159,9999,9999,9999,2718749784
61,11,22,Ticks_Phase_8,160,9999,9999,9999,2719549496
61,11,22,Ticks_Phase_8,161,9999,9999,9999,2720349284
61,11,22,Ticks_Phase_8,162,9999,9999,9999,2721150040
61,11,22,Ticks_Phase_8,163,9999,9999,9999,2721949752
61,11,22,Ticks_Phase_8,164,9999,9999,9999,2722749524
61,11,22,Ticks_Phase_8,165,9999,9999,9999,2723549252
61,11,22,Ticks_Phase_8,166,9999,9999,9999,2724350036
61,11,22,Ticks_Phase_8,167,9999,9999,9999,2725149820
61,11,22,Ticks_Phase_8,168,9999,9999,9999,2725949532
61,11,22,Ticks_Phase_8,169,9999,9999,9999,2726749244
61,12,25,Jits_Pract_5,0,5,56,103,2779391388
61,12,25,Jits_Pract_5,1,5,63,98,2779394636
61,12,25,Jits_Pract_5,2,5,80,127,2779397608
61,12,25,Jits_Pract_5,0,5,56,103,2779891188
61,12,25,Jits_Pract_5,1,5,63,98,2779894288
61,12,25,Jits_Pract_5,2,5,80,127,2779897256
61,12,25,Jits_Pract_5,0,5,56,103,2780390932
61,12,25,Jits_Pract_5,1,5,80,127,2780400980
61,12,25,Jits_Pract_5,2,5,63,98,2780420392
61,12,25,Jits_Pract_5,0,5,63,98,2780841204
61,12,25,Jits_Pract_5,1,5,80,127,2780870880
61,12,25,Jits_Pract_5,2,5,56,103,2780881372
61,12,25,Jits_Pract_5,0,5,80,127,2781400864
61,12,25,Jits_Pract_5,1,5,56,103,2781410784
61,12,25,Jits_Pract_5,2,5,63,98,2781441360
61,12,25,Jits_Pract_5,0,5,63,98,2781890872
61,12,25,Jits_Pract_5,1,5,56,103,2781920648
61,12,25,Jits_Pract_5,2,5,80,127,2781930992
61,12,25,Jits_Pract_5,0,5,56,103,2782340480
61,12,25,Jits_Pract_5,1,5,63,98,2782390908
61,12,25,Jits_Pract_5,2,5,80,127,2782411216
61,12,25,Jits_Pract_5,0,5,80,127,2782841268
61,12,25,Jits_Pract_5,1,5,63,98,2782891324
61,12,25,Jits_Pract_5,2,5,56,103,2782931260
61,12,25,Jits_Pract_5,0,5,56,103,2783340940
61,12,25,Jits_Pract_5,1,5,63,98,2783370764
61,12,25,Jits_Pract_5,2,5,80,127,2783441120
61,12,25,Jits_Pract_5,0,5,56,103,2783840904
61,12,25,Jits_Pract_5,1,5,80,127,2783901000
61,12,25,Jits_Pract_5,2,5,63,98,2783930672
61,12,25,Jits_Pract_5,0,5,56,103,2784350692
61,12,25,Jits_Pract_5,1,5,63,98,2784360964
61,12,25,Jits_Pract_5,2,5,80,127,2784400824
61,12,25,Jits_Pract_5,0,5,63,98,2784841144
61,12,25,Jits_Pract_5,1,5,80,127,2784921088
61,12,25,Jits_Pract_5,2,5,56,103,2784931136
61,12,25,Jits_Pract_5,0,5,63,98,2785390924
61,12,25,Jits_Pract_5,1,5,56,103,2785430936
61,12,25,Jits_Pract_5,2,5,80,127,2785433852
61,12,25,Jits_Pract_5,0,5,56,103,2785850860
61,12,25,Jits_Pract_5,1,5,63,98,2785860832
61,12,25,Jits_Pract_5,2,5,80,127,2785900920
61,12,25,Jits_Pract_5,0,5,56,103,2786341156
61,12,25,Jits_Pract_5,1,5,63,98,2786344296
61,12,25,Jits_Pract_5,2,5,80,127,2786360792
61,12,25,Jits_Pract_5,0,9999,9999,9999,2779638896
61,12,25,Jits_Pract_5,1,9999,9999,9999,2780138548
61,12,25,Jits_Pract_5,2,9999,9999,9999,2780638272
61,12,25,Jits_Pract_5,3,9999,9999,9999,2781139056
61,12,25,Jits_Pract_5,4,9999,9999,9999,2781638716
61,12,25,Jits_Pract_5,5,9999,9999,9999,2782138460
61,12,25,Jits_Pract_5,6,9999,9999,9999,2782638188
61,12,25,Jits_Pract_5,7,9999,9999,9999,2783138904
61,12,25,Jits_Pract_5,8,9999,9999,9999,2783638648
61,12,25,Jits_Pract_5,9,9999,9999,9999,2784138320
61,12,25,Jits_Pract_5,10,9999,9999,9999,2784639032
61,12,25,Jits_Pract_5,11,9999,9999,9999,2785138780
61,12,25,Jits_Pract_5,12,9999,9999,9999,2785638504
61,12,25,Jits_Pract_5,13,9999,9999,9999,2786138228
61,12,25,Jits_Pract_5,14,9999,9999,9999,2786638928
61,13,25,Jits_Pract_5,0,5,56,103,2833084716
61,13,25,Jits_Pract_5,1,5,63,98,2833087812
61,13,25,Jits_Pract_5,2,5,80,127,2833090936
61,13,25,Jits_Pract_5,0,5,56,103,2833584444
61,13,25,Jits_Pract_5,1,5,63,98,2833587540
61,13,25,Jits_Pract_5,2,5,80,127,2833590664
61,13,25,Jits_Pract_5,0,5,56,103,2834085304
61,13,25,Jits_Pract_5,1,5,80,127,2834094680
61,13,25,Jits_Pract_5,2,5,63,98,2834114916
61,13,25,Jits_Pract_5,0,5,63,98,2834534632
61,13,25,Jits_Pract_5,1,5,80,127,2834564604
61,13,25,Jits_Pract_5,2,5,56,103,2834574800
61,13,25,Jits_Pract_5,0,1,48,51,2835057244
61,13,25,Jits_Pract_5,1,5,80,127,2835095108
61,13,25,Jits_Pract_5,2,5,56,103,2835105228
61,13,25,Jits_Pract_5,3,5,63,98,2835134976
61,13,25,Jits_Pract_5,0,5,63,98,2835585372
61,13,25,Jits_Pract_5,1,5,56,103,2835615048
61,13,25,Jits_Pract_5,2,1,48,52,2835616836
61,13,25,Jits_Pract_5,3,5,80,127,2835625684
61,13,25,Jits_Pract_5,0,5,56,103,2836035016
61,13,25,Jits_Pract_5,1,5,63,98,2836085072
61,13,25,Jits_Pract_5,2,5,80,127,2836104560
61,13,25,Jits_Pract_5,3,1,48,56,2836115244
61,13,25,Jits_Pract_5,0,5,80,127,2836534724
61,13,25,Jits_Pract_5,1,1,48,61,2836583948
61,13,25,Jits_Pract_5,2,5,63,98,2836585364
61,13,25,Jits_Pract_5,3,5,56,103,2836624632
61,13,25,Jits_Pract_5,0,5,56,103,2837035324
61,13,25,Jits_Pract_5,1,5,63,98,2837065076
61,13,25,Jits_Pract_5,2,1,48,59,2837079356
61,13,25,Jits_Pract_5,3,5,80,127,2837134600
61,13,25,Jits_Pract_5,0,5,56,103,2837535032
61,13,25,Jits_Pract_5,1,1,48,57,2837557332
61,13,25,Jits_Pract_5,2,5,80,127,2837594592
61,13,25,Jits_Pract_5,3,5,63,98,2837625460
61,13,25,Jits_Pract_5,0,5,56,103,2838044928
61,13,25,Jits_Pract_5,1,5,63,98,2838055496
61,13,25,Jits_Pract_5,2,1,48,63,2838092172
61,13,25,Jits_Pract_5,3,5,80,127,2838095428
61,13,25,Jits_Pract_5,0,5,63,98,2838534444
61,13,25,Jits_Pract_5,1,1,48,57,2838571792
61,13,25,Jits_Pract_5,2,5,80,127,2838615428
61,13,25,Jits_Pract_5,3,5,56,103,2838624580
61,13,25,Jits_Pract_5,0,1,48,62,2839054032
61,13,25,Jits_Pract_5,1,5,63,98,2839085372
61,13,25,Jits_Pract_5,2,5,56,103,2839125456
61,13,25,Jits_Pract_5,3,5,80,127,2839128600
61,13,25,Jits_Pract_5,0,5,56,103,2839545132
61,13,25,Jits_Pract_5,1,1,48,61,2839552384
61,13,25,Jits_Pract_5,2,5,63,98,2839554348
61,13,25,Jits_Pract_5,3,5,80,127,2839595480
61,13,25,Jits_Pract_5,0,5,56,103,2840034644
61,13,25,Jits_Pract_5,1,5,63,98,2840037788
61,13,25,Jits_Pract_5,2,5,80,127,2840055180
61,13,25,Jits_Pract_5,3,1,48,61,2840061884
61,13,25,Jits_Pract_5,0,9999,9999,9999,2833332304
61,13,25,Jits_Pract_5,1,9999,9999,9999,2833833076
61,13,25,Jits_Pract_5,2,9999,9999,9999,2834332748
61,13,25,Jits_Pract_5,3,9999,9999,9999,2834832488
61,13,25,Jits_Pract_5,4,9999,9999,9999,2835332200
61,13,25,Jits_Pract_5,5,9999,9999,9999,2835832940
61,13,25,Jits_Pract_5,6,9999,9999,9999,2836332632
61,13,25,Jits_Pract_5,7,9999,9999,9999,2836832340
61,13,25,Jits_Pract_5,8,9999,9999,9999,2837333088
61,13,25,Jits_Pract_5,9,9999,9999,9999,2837832796
61,13,25,Jits_Pract_5,10,9999,9999,9999,2838332500
61,13,25,Jits_Pract_5,11,9999,9999,9999,2838832208
61,13,25,Jits_Pract_5,12,9999,9999,9999,2839332940
61,13,25,Jits_Pract_5,13,9999,9999,9999,2839832628
61,13,25,Jits_Pract_5,14,9999,9999,9999,2840332396
61,14,24,Jits_Pract_8,0,5,56,103,2847208876
61,14,24,Jits_Pract_8,1,5,63,98,2847211824
61,14,24,Jits_Pract_8,2,5,80,127,2847215168
61,14,24,Jits_Pract_8,0,5,56,103,2848008668
61,14,24,Jits_Pract_8,1,5,63,98,2848011688
61,14,24,Jits_Pract_8,2,5,80,127,2848014884
61,14,24,Jits_Pract_8,0,5,80,127,2848749280
61,14,24,Jits_Pract_8,1,5,63,98,2848839044
61,14,24,Jits_Pract_8,2,5,56,103,2848849168
61,14,24,Jits_Pract_8,0,5,56,103,2849569172
61,14,24,Jits_Pract_8,1,5,63,98,2849579368
61,14,24,Jits_Pract_8,2,5,80,127,2849668380
61,14,24,Jits_Pract_8,3,1,48,29,2849672992
61,14,24,Jits_Pract_8,0,5,63,98,2850339192
61,14,24,Jits_Pract_8,1,1,48,40,2850360896
61,14,24,Jits_Pract_8,2,5,80,127,2850369160
61,14,24,Jits_Pract_8,3,5,56,103,2850398464
61,14,24,Jits_Pract_8,0,1,48,53,2851085560
61,14,24,Jits_Pract_8,1,5,56,103,2851139016
61,14,24,Jits_Pract_8,2,5,80,127,2851239252
61,14,24,Jits_Pract_8,3,5,63,98,2851288404
61,14,24,Jits_Pract_8,0,1,48,51,2851834204
61,14,24,Jits_Pract_8,1,5,56,103,2851938736
61,14,24,Jits_Pract_8,2,5,80,127,2851989012
61,14,24,Jits_Pract_8,3,5,63,98,2852028948
61,14,24,Jits_Pract_8,0,1,48,52,2852621896
61,14,24,Jits_Pract_8,1,5,80,127,2852769060
61,14,24,Jits_Pract_8,2,5,63,98,2852798960
61,14,24,Jits_Pract_8,3,5,56,103,2852868516
61,14,24,Jits_Pract_8,0,5,63,98,2853598460
61,14,24,Jits_Pract_8,1,5,56,103,2853629184
61,14,24,Jits_Pract_8,2,5,80,127,2853688672
61,14,24,Jits_Pract_8,3,1,48,33,2853742060
61,14,24,Jits_Pract_8,0,5,56,103,2854338856
61,14,24,Jits_Pract_8,1,5,80,127,2854341996
61,14,24,Jits_Pract_8,2,1,48,47,2854402304
61,14,24,Jits_Pract_8,3,5,63,98,2854458820
61,14,24,Jits_Pract_8,0,1,48,46,2855174708
61,14,24,Jits_Pract_8,1,5,56,103,2855218724
61,14,24,Jits_Pract_8,2,5,80,127,2855258440
61,14,24,Jits_Pract_8,3,5,63,98,2855268844
61,14,24,Jits_Pract_8,0,5,56,103,2855979236
61,14,24,Jits_Pract_8,1,5,80,127,2855999092
61,14,24,Jits_Pract_8,2,1,48,46,2856046948
61,14,24,Jits_Pract_8,3,5,63,98,2856079104
61,14,24,Jits_Pract_8,0,5,80,127,2856769036
61,14,24,Jits_Pract_8,1,1,48,57,2856841904
61,14,24,Jits_Pract_8,2,5,56,103,2856869204
61,14,24,Jits_Pract_8,3,5,63,98,2856878800
61,14,24,Jits_Pract_8,0,5,63,98,2857538992
61,14,24,Jits_Pract_8,1,5,80,127,2857599384
61,14,24,Jits_Pract_8,2,5,56,103,2857608532
61,14,24,Jits_Pract_8,3,1,48,54,2857670608
61,14,24,Jits_Pract_8,0,1,48,53,2858326956
61,14,24,Jits_Pract_8,1,5,56,103,2858338664
61,14,24,Jits_Pract_8,2,5,63,98,2858409468
61,14,24,Jits_Pract_8,3,5,80,127,2858412904
61,14,24,Jits_Pract_8,0,9999,9999,9999,2847606884
61,14,24,Jits_Pract_8,1,9999,9999,9999,2848406600
61,14,24,Jits_Pract_8,2,9999,9999,9999,2849206336
61,14,24,Jits_Pract_8,3,9999,9999,9999,2850006120
61,14,24,Jits_Pract_8,4,9999,9999,9999,2850806880
61,14,24,Jits_Pract_8,5,9999,9999,9999,2851606616
61,14,24,Jits_Pract_8,6,9999,9999,9999,2852406372
61,14,24,Jits_Pract_8,7,9999,9999,9999,2853206132
61,14,24,Jits_Pract_8,8,9999,9999,9999,2854006864
61,14,24,Jits_Pract_8,9,9999,9999,9999,2854806608
61,14,24,Jits_Pract_8,10,9999,9999,9999,2855606384
61,14,24,Jits_Pract_8,11,9999,9999,9999,2856406072
61,14,24,Jits_Pract_8,12,9999,9999,9999,2857206840
61,14,24,Jits_Pract_8,13,9999,9999,9999,2858006604
61,14,24,Jits_Pract_8,14,9999,9999,9999,2858806348
61,15,19,Jits_Linear_5,0,5,56,103,2894356012
61,15,19,Jits_Linear_5,1,5,63,98,2894358960
61,15,19,Jits_Linear_5,2,5,80,127,2894362156
61,15,19,Jits_Linear_5,0,5,56,103,2894836028
61,15,19,Jits_Linear_5,1,5,63,98,2894839200
61,15,19,Jits_Linear_5,2,5,80,127,2894842100
61,15,19,Jits_Linear_5,0,5,56,103,2895316256
61,15,19,Jits_Linear_5,1,5,80,127,2895325508
61,15,19,Jits_Linear_5,2,5,63,98,2895346040
61,15,19,Jits_Linear_5,0,5,63,98,2895746392
61,15,19,Jits_Linear_5,1,5,80,127,2895776140
61,15,19,Jits_Linear_5,2,5,56,103,2895786856
61,15,19,Jits_Linear_5,0,1,48,64,2896255744
61,15,19,Jits_Linear_5,1,5,80,127,2896286040
61,15,19,Jits_Linear_5,2,5,56,103,2896296160
61,15,19,Jits_Linear_5,3,5,63,98,2896325984
61,15,19,Jits_Linear_5,0,1,48,63,2896747120
61,15,19,Jits_Linear_5,1,5,63,98,2896766252
61,15,19,Jits_Linear_5,2,5,56,103,2896796004
61,15,19,Jits_Linear_5,3,5,80,127,2896806128
61,15,19,Jits_Linear_5,0,5,56,103,2897205564
61,15,19,Jits_Linear_5,1,1,48,71,2897241868
61,15,19,Jits_Linear_5,2,5,63,98,2897255764
61,15,19,Jits_Linear_5,3,5,80,127,2897276296
61,15,19,Jits_Linear_5,0,1,48,61,2897684784
61,15,19,Jits_Linear_5,1,5,80,127,2897695968
61,15,19,Jits_Linear_5,2,5,63,98,2897746324
61,15,19,Jits_Linear_5,3,5,56,103,2897786244
61,15,19,Jits_Linear_5,0,1,48,68,2898192772
61,15,19,Jits_Linear_5,1,5,56,103,2898196028
61,15,19,Jits_Linear_5,2,5,63,98,2898225632
61,15,19,Jits_Linear_5,3,5,80,127,2898296120
61,15,19,Jits_Linear_5,0,1,48,64,2898686504
61,15,19,Jits_Linear_5,1,5,56,103,2898687844
61,15,19,Jits_Linear_5,2,5,80,127,2898745848
61,15,19,Jits_Linear_5,3,5,63,98,2898776572
61,15,19,Jits_Linear_5,0,5,56,103,2899186048
61,15,19,Jits_Linear_5,1,1,48,71,2899195720
61,15,19,Jits_Linear_5,2,5,63,98,2899197064
61,15,19,Jits_Linear_5,3,5,80,127,2899236252
61,15,19,Jits_Linear_5,0,1,48,63,2899675264
61,15,19,Jits_Linear_5,1,5,63,98,2899676748
61,15,19,Jits_Linear_5,2,5,80,127,2899756400
61,15,19,Jits_Linear_5,3,5,56,103,2899766284
61,15,19,Jits_Linear_5,0,1,48,76,2900192516
61,15,19,Jits_Linear_5,1,5,63,98,2900226420
61,15,19,Jits_Linear_5,2,5,56,103,2900266432
61,15,19,Jits_Linear_5,3,5,80,127,2900269424
61,15,19,Jits_Linear_5,0,5,56,103,2900686220
61,15,19,Jits_Linear_5,1,1,48,64,2900694672
61,15,19,Jits_Linear_5,2,5,63,98,2900696288
61,15,19,Jits_Linear_5,3,5,80,127,2900736376
61,15,19,Jits_Linear_5,0,5,56,103,2901175652
61,15,19,Jits_Linear_5,1,5,63,98,2901178720
61,15,19,Jits_Linear_5,2,1,48,77,2901182960
61,15,19,Jits_Linear_5,3,5,80,127,2901196180
61,15,19,Jits_Linear_5,0,1,48,59,2901675536
61,15,19,Jits_Linear_5,1,5,80,127,2901695792
61,15,19,Jits_Linear_5,2,5,56,103,2901705988
61,15,19,Jits_Linear_5,3,5,63,98,2901775976
61,15,19,Jits_Linear_5,0,1,48,69,2902168700
61,15,19,Jits_Linear_5,1,5,63,98,2902195700
61,15,19,Jits_Linear_5,2,5,56,103,2902216012
61,15,19,Jits_Linear_5,3,5,80,127,2902295968
61,15,19,Jits_Linear_5,0,1,48,62,2902671756
61,15,19,Jits_Linear_5,1,5,56,103,2902715920
61,15,19,Jits_Linear_5,2,5,80,127,2902755736
61,15,19,Jits_Linear_5,3,5,63,98,2902765916
61,15,19,Jits_Linear_5,0,1,48,70,2903177444
61,15,19,Jits_Linear_5,1,5,80,127,2903215384
61,15,19,Jits_Linear_5,2,5,63,98,2903246256
61,15,19,Jits_Linear_5,3,5,56,103,2903285984
61,15,19,Jits_Linear_5,0,1,48,63,2903660340
61,15,19,Jits_Linear_5,1,5,56,103,2903745864
61,15,19,Jits_Linear_5,2,5,63,98,2903775848
61,15,19,Jits_Linear_5,3,5,80,127,2903825900
61,15,19,Jits_Linear_5,0,1,48,63,2904177944
61,15,19,Jits_Linear_5,1,5,80,127,2904255744
61,15,19,Jits_Linear_5,2,5,56,103,2904295768
61,15,19,Jits_Linear_5,3,5,63,98,2904306040
61,15,19,Jits_Linear_5,0,1,48,65,2904707452
61,15,19,Jits_Linear_5,1,5,80,127,2904755652
61,15,19,Jits_Linear_5,2,5,63,98,2904795620
61,15,19,Jits_Linear_5,3,5,56,103,2904855848
61,15,19,Jits_Linear_5,0,1,48,67,2905224452
61,15,19,Jits_Linear_5,1,5,56,103,2905275868
61,15,19,Jits_Linear_5,2,5,80,127,2905285992
61,15,19,Jits_Linear_5,3,5,63,98,2905365796
61,15,19,Jits_Linear_5,0,1,48,63,2905736940
61,15,19,Jits_Linear_5,1,5,80,127,2905795932
61,15,19,Jits_Linear_5,2,5,63,98,2905856340
61,15,19,Jits_Linear_5,3,5,56,103,2905886012
61,15,19,Jits_Linear_5,0,1,48,62,2906253940
61,15,19,Jits_Linear_5,1,5,56,103,2906316072
61,15,19,Jits_Linear_5,2,5,80,127,2906375656
61,15,19,Jits_Linear_5,3,5,63,98,2906415744
61,15,19,Jits_Linear_5,0,1,48,59,2906776252
61,15,19,Jits_Linear_5,1,5,56,103,2906895792
61,15,19,Jits_Linear_5,2,5,63,98,2906905912
61,15,19,Jits_Linear_5,3,5,80,127,2906909428
61,15,19,Jits_Linear_5,0,1,48,72,2907312784
61,15,19,Jits_Linear_5,1,5,80,127,2907386196
61,15,19,Jits_Linear_5,2,5,63,98,2907476320
61,15,19,Jits_Linear_5,3,5,56,103,2907485692
61,15,19,Jits_Linear_5,0,1,48,63,2907842368
61,15,19,Jits_Linear_5,1,5,56,103,2907915836
61,15,19,Jits_Linear_5,2,5,63,98,2907918864
61,15,19,Jits_Linear_5,3,5,80,127,2907921908
61,15,19,Jits_Linear_5,0,1,48,50,2908406720
61,15,19,Jits_Linear_5,1,5,80,127,2908465940
61,15,19,Jits_Linear_5,2,5,63,98,2908515684
61,15,19,Jits_Linear_5,3,5,56,103,2908546556
61,15,19,Jits_Linear_5,0,1,48,56,2908947924
61,15,19,Jits_Linear_5,1,5,56,103,2908975820
61,15,19,Jits_Linear_5,2,5,80,127,2908986016
61,15,19,Jits_Linear_5,3,5,63,98,2909056656
61,15,19,Jits_Linear_5,0,1,48,59,2909467464
61,15,19,Jits_Linear_5,1,5,56,103,2909516116
61,15,19,Jits_Linear_5,2,5,63,98,2909535752
61,15,19,Jits_Linear_5,3,5,80,127,2909596052
61,15,19,Jits_Linear_5,0,1,48,54,2909992244
61,15,19,Jits_Linear_5,1,5,80,127,2910055664
61,15,19,Jits_Linear_5,2,5,63,98,2910125632
61,15,19,Jits_Linear_5,3,5,56,103,2910145944
61,15,19,Jits_Linear_5,0,1,48,57,2910588292
61,15,19,Jits_Linear_5,1,5,80,127,2910615888
61,15,19,Jits_Linear_5,2,5,56,103,2910626084
61,15,19,Jits_Linear_5,3,5,63,98,2910636580
61,15,19,Jits_Linear_5,0,1,48,63,2911080020
61,15,19,Jits_Linear_5,1,5,80,127,2911146432
61,15,19,Jits_Linear_5,2,5,56,103,2911165700
61,15,19,Jits_Linear_5,3,5,63,98,2911235616
61,15,19,Jits_Linear_5,0,1,48,57,2911631480
61,15,19,Jits_Linear_5,1,5,56,103,2911696172
61,15,19,Jits_Linear_5,2,5,80,127,2911725860
61,15,19,Jits_Linear_5,3,5,63,98,2911746692
61,15,19,Jits_Linear_5,0,1,48,61,2912178376
61,15,19,Jits_Linear_5,1,5,63,98,2912235820
61,15,19,Jits_Linear_5,2,5,56,103,2912296420
61,15,19,Jits_Linear_5,3,5,80,127,2912325948
61,15,19,Jits_Linear_5,0,1,48,52,2912709680
61,15,19,Jits_Linear_5,1,5,63,98,2912775588
61,15,19,Jits_Linear_5,2,5,80,127,2912778952
61,15,19,Jits_Linear_5,3,5,56,103,2912865784
61,15,19,Jits_Linear_5,0,1,48,60,2913293364
61,15,19,Jits_Linear_5,1,5,56,103,2913345920
61,15,19,Jits_Linear_5,2,5,63,98,2913375596
61,15,19,Jits_Linear_5,3,5,80,127,2913415668
61,15,19,Jits_Linear_5,0,1,48,54,2913826472
61,15,19,Jits_Linear_5,1,5,63,98,2913895732
61,15,19,Jits_Linear_5,2,5,56,103,2913935732
61,15,19,Jits_Linear_5,3,5,80,127,2913956116
61,15,19,Jits_Linear_5,0,1,48,64,2914376208
61,15,19,Jits_Linear_5,1,5,63,98,2914455956
61,15,19,Jits_Linear_5,2,5,56,103,2914495732
61,15,19,Jits_Linear_5,3,5,80,127,2914506076
61,15,19,Jits_Linear_5,0,1,48,65,2914939132
61,15,19,Jits_Linear_5,1,5,80,127,2914986436
61,15,19,Jits_Linear_5,2,5,63,98,2915056056
61,15,19,Jits_Linear_5,3,5,56,103,2915075396
61,15,19,Jits_Linear_5,0,5,56,103,2915536404
61,15,19,Jits_Linear_5,1,5,80,127,2915555620
61,15,19,Jits_Linear_5,2,1,48,63,2915595860
61,15,19,Jits_Linear_5,3,5,63,98,2915596972
61,15,19,Jits_Linear_5,0,1,48,57,2916085776
61,15,19,Jits_Linear_5,1,5,63,98,2916105580
61,15,19,Jits_Linear_5,2,5,80,127,2916126188
61,15,19,Jits_Linear_5,3,5,56,103,2916166052
61,15,19,Jits_Linear_5,0,1,48,61,2916627408
61,15,19,Jits_Linear_5,1,5,63,98,2916665652
61,15,19,Jits_Linear_5,2,5,56,103,2916686188
61,15,19,Jits_Linear_5,3,5,80,127,2916696684
61,15,19,Jits_Linear_5,0,1,48,57,2917166804
61,15,19,Jits_Linear_5,1,5,80,127,2917225796
61,15,19,Jits_Linear_5,2,5,56,103,2917246256
61,15,19,Jits_Linear_5,3,5,63,98,2917275920
61,15,19,Jits_Linear_5,0,1,48,51,2917747036
61,15,19,Jits_Linear_5,1,5,56,103,2917865824
61,15,19,Jits_Linear_5,2,5,80,127,2917868816
61,15,19,Jits_Linear_5,3,5,63,98,2917886504
61,15,19,Jits_Linear_5,0,1,48,54,2918349356
61,15,19,Jits_Linear_5,1,5,63,98,2918356504
61,15,19,Jits_Linear_5,2,5,56,103,2918386032
61,15,19,Jits_Linear_5,3,5,80,127,2918445452
61,15,19,Jits_Linear_5,0,1,48,50,2918871516
61,15,19,Jits_Linear_5,1,5,63,98,2919005504
61,15,19,Jits_Linear_5,2,5,56,103,2919015776
61,15,19,Jits_Linear_5,3,5,80,127,2919025972
61,15,19,Jits_Linear_5,0,1,48,44,2919447792
61,15,19,Jits_Linear_5,1,5,56,103,2919525740
61,15,19,Jits_Linear_5,2,5,80,127,2919555552
61,15,19,Jits_Linear_5,3,5,63,98,2919565820
61,15,19,Jits_Linear_5,0,1,48,47,2920021048
61,15,19,Jits_Linear_5,1,5,63,98,2920146560
61,15,19,Jits_Linear_5,2,5,56,103,2920155364
61,15,19,Jits_Linear_5,3,5,80,127,2920176044
61,15,19,Jits_Linear_5,0,1,48,43,2920562232
61,15,19,Jits_Linear_5,1,5,56,103,2920645884
61,15,19,Jits_Linear_5,2,5,63,98,2920706588
61,15,19,Jits_Linear_5,3,5,80,127,2920709728
61,15,19,Jits_Linear_5,0,1,48,59,2921202044
61,15,19,Jits_Linear_5,1,5,80,127,2921246056
61,15,19,Jits_Linear_5,2,5,56,103,2921256252
61,15,19,Jits_Linear_5,3,5,63,98,2921325996
61,15,19,Jits_Linear_5,0,1,48,61,2921765276
61,15,19,Jits_Linear_5,1,5,80,127,2921816396
61,15,19,Jits_Linear_5,2,5,56,103,2921885916
61,15,19,Jits_Linear_5,3,5,63,98,2921896560
61,15,19,Jits_Linear_5,0,1,48,49,2922349844
61,15,19,Jits_Linear_5,1,5,63,98,2922435888
61,15,19,Jits_Linear_5,2,5,56,103,2922446516
61,15,19,Jits_Linear_5,3,5,80,127,2922465508
61,15,19,Jits_Linear_5,0,1,48,56,2922901148
61,15,19,Jits_Linear_5,1,5,80,127,2922966516
61,15,19,Jits_Linear_5,2,5,63,98,2923025772
61,15,19,Jits_Linear_5,3,5,56,103,2923065784
61,15,19,Jits_Linear_5,0,1,48,53,2923543260
61,15,19,Jits_Linear_5,1,5,56,103,2923596420
61,15,19,Jits_Linear_5,2,5,63,98,2923606320
61,15,19,Jits_Linear_5,3,5,80,127,2923646388
61,15,19,Jits_Linear_5,0,1,48,54,2924117508
61,15,19,Jits_Linear_5,1,5,56,103,2924146524
61,15,19,Jits_Linear_5,2,5,80,127,2924175832
61,15,19,Jits_Linear_5,3,5,63,98,2924226168
61,15,19,Jits_Linear_5,0,1,48,60,2924691284
61,15,19,Jits_Linear_5,1,5,56,103,2924775784
61,15,19,Jits_Linear_5,2,5,63,98,2924815784
61,15,19,Jits_Linear_5,3,5,80,127,2924819148
61,15,19,Jits_Linear_5,0,1,48,47,2925297916
61,15,19,Jits_Linear_5,1,5,56,103,2925365672
61,15,19,Jits_Linear_5,2,5,63,98,2925375944
61,15,19,Jits_Linear_5,3,5,80,127,2925396464
61,15,19,Jits_Linear_5,0,5,56,103,2925915408
61,15,19,Jits_Linear_5,1,5,80,127,2925918556
61,15,19,Jits_Linear_5,2,1,48,57,2925934048
61,15,19,Jits_Linear_5,3,5,63,98,2925955348
61,15,19,Jits_Linear_5,0,1,48,57,2926516140
61,15,19,Jits_Linear_5,1,5,63,98,2926546436
61,15,19,Jits_Linear_5,2,5,56,103,2926575840
61,15,19,Jits_Linear_5,3,5,80,127,2926595400
61,15,19,Jits_Linear_5,0,5,80,127,2927115608
61,15,19,Jits_Linear_5,1,1,48,59,2927121720
61,15,19,Jits_Linear_5,2,5,56,103,2927126020
61,15,19,Jits_Linear_5,3,5,63,98,2927136068
61,15,19,Jits_Linear_5,0,1,48,54,2927702028
61,15,19,Jits_Linear_5,1,5,56,103,2927715696
61,15,19,Jits_Linear_5,2,5,80,127,2927755560
61,15,19,Jits_Linear_5,3,5,63,98,2927786508
61,15,19,Jits_Linear_5,0,1,48,63,2928306760
61,15,19,Jits_Linear_5,1,5,63,98,2928326116
61,15,19,Jits_Linear_5,2,5,80,127,2928336388
61,15,19,Jits_Linear_5,3,5,56,103,2928345488
61,15,19,Jits_Linear_5,0,1,48,66,2928860636
61,15,19,Jits_Linear_5,1,5,56,103,2928905548
61,15,19,Jits_Linear_5,2,5,63,98,2928976488
61,15,19,Jits_Linear_5,3,5,80,127,2928985488
61,15,19,Jits_Linear_5,0,1,48,71,2929465216
61,15,19,Jits_Linear_5,1,5,80,127,2929515744
61,15,19,Jits_Linear_5,2,5,56,103,2929526384
61,15,19,Jits_Linear_5,3,5,63,98,2929576200
61,15,19,Jits_Linear_5,0,1,48,64,2930089268
61,15,19,Jits_Linear_5,1,5,80,127,2930136448
61,15,19,Jits_Linear_5,2,5,56,103,2930195780
61,15,19,Jits_Linear_5,3,5,63,98,2930225380
61,15,19,Jits_Linear_5,0,1,48,66,2930691544
61,15,19,Jits_Linear_5,1,5,56,103,2930745824
61,15,19,Jits_Linear_5,2,5,80,127,2930748664
61,15,19,Jits_Linear_5,3,5,63,98,2930785744
61,15,19,Jits_Linear_5,0,1,48,62,2931282692
61,15,19,Jits_Linear_5,1,5,56,103,2931385588
61,15,19,Jits_Linear_5,2,5,63,98,2931416488
61,15,19,Jits_Linear_5,3,5,80,127,2931425788
61,15,19,Jits_Linear_5,0,1,48,62,2931886012
61,15,19,Jits_Linear_5,1,5,63,98,2932006376
61,15,19,Jits_Linear_5,2,5,80,127,2932015452
61,15,19,Jits_Linear_5,3,5,56,103,2932025720
61,15,19,Jits_Linear_5,0,1,48,57,2932487248
61,15,19,Jits_Linear_5,1,5,80,127,2932566316
61,15,19,Jits_Linear_5,2,5,56,103,2932615604
61,15,19,Jits_Linear_5,3,5,63,98,2932618672
61,15,19,Jits_Linear_5,0,1,48,61,2933128892
61,15,19,Jits_Linear_5,1,5,56,103,2933215564
61,15,19,Jits_Linear_5,2,5,80,127,2933236232
61,15,19,Jits_Linear_5,3,5,63,98,2933246352
61,15,19,Jits_Linear_5,0,1,48,59,2933789240
61,15,19,Jits_Linear_5,1,5,63,98,2933815644
61,15,19,Jits_Linear_5,2,5,56,103,2933846444
61,15,19,Jits_Linear_5,3,5,80,127,2933865932
61,15,19,Jits_Linear_5,0,1,48,57,2934399060
61,15,19,Jits_Linear_5,1,5,56,103,2934445392
61,15,19,Jits_Linear_5,2,5,80,127,2934455592
61,15,19,Jits_Linear_5,3,5,63,98,2934526180
61,15,19,Jits_Linear_5,0,1,48,62,2935018052
61,15,19,Jits_Linear_5,1,5,63,98,2935066104
61,15,19,Jits_Linear_5,2,5,80,127,2935106120
61,15,19,Jits_Linear_5,3,5,56,103,2935145972
61,15,19,Jits_Linear_5,0,1,48,67,2935637392
61,15,19,Jits_Linear_5,1,5,56,103,2935706052
61,15,19,Jits_Linear_5,2,5,63,98,2935716320
61,15,19,Jits_Linear_5,3,5,80,127,2935735644
61,15,19,Jits_Linear_5,0,1,48,58,2936275912
61,15,19,Jits_Linear_5,1,5,63,98,2936375600
61,15,19,Jits_Linear_5,2,5,80,127,2936396208
61,15,19,Jits_Linear_5,3,5,56,103,2936415548
61,15,19,Jits_Linear_5,0,1,48,58,2936903508
61,15,19,Jits_Linear_5,1,5,56,103,2936946028
61,15,19,Jits_Linear_5,2,5,80,127,2937025888
61,15,19,Jits_Linear_5,3,5,63,98,2937036380
61,15,19,Jits_Linear_5,0,1,48,66,2937509736
61,15,19,Jits_Linear_5,1,5,80,127,2937616020
61,15,19,Jits_Linear_5,2,5,63,98,2937626072
61,15,19,Jits_Linear_5,3,5,56,103,2937655524
61,15,19,Jits_Linear_5,0,1,48,62,2938120936
61,15,19,Jits_Linear_5,1,5,63,98,2938205636
61,15,19,Jits_Linear_5,2,5,80,127,2938245560
61,15,19,Jits_Linear_5,3,5,56,103,2938306100
61,15,19,Jits_Linear_5,0,1,48,67,2938759236
61,15,19,Jits_Linear_5,1,5,63,98,2938845528
61,15,19,Jits_Linear_5,2,5,56,103,2938895864
61,15,19,Jits_Linear_5,3,5,80,127,2938925316
61,15,19,Jits_Linear_5,0,1,48,62,2939368252
61,15,19,Jits_Linear_5,1,5,80,127,2939496088
61,15,19,Jits_Linear_5,2,5,63,98,2939505988
61,15,19,Jits_Linear_5,3,5,56,103,2939575520
61,15,19,Jits_Linear_5,0,1,48,53,2940012980
61,15,19,Jits_Linear_5,1,5,80,127,2940205364
61,15,19,Jits_Linear_5,2,5,56,103,2940215856
61,15,19,Jits_Linear_5,3,5,63,98,2940218848
61,15,19,Jits_Linear_5,0,1,48,49,2940597104
61,15,19,Jits_Linear_5,1,5,56,103,2940786028
61,15,19,Jits_Linear_5,2,5,80,127,2940805444
61,15,19,Jits_Linear_5,3,5,63,98,2940815864
61,15,19,Jits_Linear_5,0,1,48,62,2941217292
61,15,19,Jits_Linear_5,1,5,63,98,2941436260
61,15,19,Jits_Linear_5,2,5,56,103,2941476200
61,15,19,Jits_Linear_5,3,5,80,127,2941495836
61,15,19,Jits_Linear_5,0,1,48,53,2941825692
61,15,19,Jits_Linear_5,1,5,63,98,2942085420
61,15,19,Jits_Linear_5,2,5,56,103,2942145888
61,15,19,Jits_Linear_5,3,5,80,127,2942149028
61,15,19,Jits_Linear_5,0,1,48,54,2942444296
61,15,19,Jits_Linear_5,1,5,56,103,2942695780
61,15,19,Jits_Linear_5,2,5,80,127,2942716388
61,15,19,Jits_Linear_5,3,5,63,98,2942756328
61,15,19,Jits_Linear_5,4,1,48,59,2943052680
61,15,19,Jits_Linear_5,0,5,56,103,2943376092
61,15,19,Jits_Linear_5,1,5,63,98,2943396108
61,15,19,Jits_Linear_5,2,5,80,127,2943405480
61,15,19,Jits_Linear_5,0,5,80,127,2943996252
61,15,19,Jits_Linear_5,1,5,56,103,2944025928
61,15,19,Jits_Linear_5,2,5,63,98,2944065796
61,15,19,Jits_Linear_5,3,1,48,54,2944152812
61,15,19,Jits_Linear_5,0,1,48,48,2944633916
61,15,19,Jits_Linear_5,1,5,80,127,2944655832
61,15,19,Jits_Linear_5,2,5,56,103,2944676216
61,15,19,Jits_Linear_5,3,5,63,98,2944735796
61,15,19,Jits_Linear_5,0,1,48,62,2945243928
61,15,19,Jits_Linear_5,1,5,56,103,2945316176
61,15,19,Jits_Linear_5,2,5,80,127,2945336920
61,15,19,Jits_Linear_5,3,5,63,98,2945396116
61,15,19,Jits_Linear_5,0,1,48,61,2945868572
61,15,19,Jits_Linear_5,1,5,80,127,2945956188
61,15,19,Jits_Linear_5,2,5,56,103,2945965412
61,15,19,Jits_Linear_5,3,5,63,98,2946006412
61,15,19,Jits_Linear_5,0,1,48,55,2946500936
61,15,19,Jits_Linear_5,1,5,63,98,2946615836
61,15,19,Jits_Linear_5,2,5,56,103,2946655628
61,15,19,Jits_Linear_5,3,5,80,127,2946658696
61,15,19,Jits_Linear_5,0,1,48,54,2947134372
61,15,19,Jits_Linear_5,1,5,63,98,2947295800
61,15,19,Jits_Linear_5,2,5,80,127,2947335740
61,15,19,Jits_Linear_5,3,5,56,103,2947366240
61,15,19,Jits_Linear_5,0,1,48,52,2947783292
61,15,19,Jits_Linear_5,1,5,56,103,2947945928
61,15,19,Jits_Linear_5,2,5,63,98,2947955976
61,15,19,Jits_Linear_5,3,5,80,127,2947985948
61,15,19,Jits_Linear_5,0,1,48,51,2948443108
61,15,19,Jits_Linear_5,1,5,80,127,2948606420
61,15,19,Jits_Linear_5,2,5,63,98,2948676104
61,15,19,Jits_Linear_5,3,5,56,103,2948686152
61,15,19,Jits_Linear_5,0,1,48,66,2949100912
61,15,19,Jits_Linear_5,1,5,63,98,2949275880
61,15,19,Jits_Linear_5,2,5,56,103,2949345740
61,15,19,Jits_Linear_5,3,5,80,127,2949355860
61,15,19,Jits_Linear_5,0,1,48,53,2949766636
61,15,19,Jits_Linear_5,1,5,63,98,2949946112
61,15,19,Jits_Linear_5,2,5,56,103,2949966128
61,15,19,Jits_Linear_5,3,5,80,127,2950006216
61,15,19,Jits_Linear_5,0,1,48,62,2950359828
61,15,19,Jits_Linear_5,1,5,56,103,2950625856
61,15,19,Jits_Linear_5,2,5,63,98,2950635904
61,15,19,Jits_Linear_5,3,5,80,127,2950715704
61,15,19,Jits_Linear_5,4,1,48,59,2950987796
61,15,19,Jits_Linear_5,0,5,63,98,2951286096
61,15,19,Jits_Linear_5,1,5,56,103,2951315996
61,15,19,Jits_Linear_5,2,5,80,127,2951355860
61,15,19,Jits_Linear_5,3,1,48,62,2951630944
61,15,19,Jits_Linear_5,0,5,56,103,2951955800
61,15,19,Jits_Linear_5,1,5,63,98,2951995740
61,15,19,Jits_Linear_5,2,5,80,127,2952035680
61,15,19,Jits_Linear_5,3,1,48,57,2952294288
61,15,19,Jits_Linear_5,0,5,80,127,2952635836
61,15,19,Jits_Linear_5,1,5,56,103,2952715736
61,15,19,Jits_Linear_5,2,5,63,98,2952725932
61,15,19,Jits_Linear_5,3,1,48,59,2952916788
61,15,19,Jits_Linear_5,0,5,56,103,2953355656
61,15,19,Jits_Linear_5,1,5,63,98,2953358724
61,15,19,Jits_Linear_5,2,5,80,127,2953365852
61,15,19,Jits_Linear_5,3,1,48,57,2953538228
61,15,19,Jits_Linear_5,0,5,56,103,2954056088
61,15,19,Jits_Linear_5,1,1,48,60,2954068720
61,15,19,Jits_Linear_5,2,5,63,98,2954075792
61,15,19,Jits_Linear_5,3,5,80,127,2954085692
61,15,19,Jits_Linear_5,0,5,63,98,2954696044
61,15,19,Jits_Linear_5,1,5,80,127,2954706240
61,15,19,Jits_Linear_5,2,5,56,103,2954725676
61,15,19,Jits_Linear_5,3,1,48,64,2954739060
61,15,19,Jits_Linear_5,0,5,63,98,2955386128
61,15,19,Jits_Linear_5,1,1,48,62,2955388144
61,15,19,Jits_Linear_5,2,5,56,103,2955466144
61,15,19,Jits_Linear_5,3,5,80,127,2955469432
61,15,19,Jits_Linear_5,0,1,48,65,2956049428
61,15,19,Jits_Linear_5,1,5,63,98,2956076504
61,15,19,Jits_Linear_5,2,5,56,103,2956095764
61,15,19,Jits_Linear_5,3,5,80,127,2956125740
61,15,19,Jits_Linear_5,0,1,48,61,2956709664
61,15,19,Jits_Linear_5,1,5,56,103,2956765988
61,15,19,Jits_Linear_5,2,5,63,98,2956786076
61,15,19,Jits_Linear_5,3,5,80,127,2956796272
61,15,19,Jits_Linear_5,0,1,48,63,2957412932
61,15,19,Jits_Linear_5,1,5,56,103,2957485572
61,15,19,Jits_Linear_5,2,5,63,98,2957516276
61,15,19,Jits_Linear_5,3,5,80,127,2957519568
61,15,19,Jits_Linear_5,0,1,48,63,2958114868
61,15,19,Jits_Linear_5,1,5,56,103,2958125600
61,15,19,Jits_Linear_5,2,5,63,98,2958166736
61,15,19,Jits_Linear_5,3,5,80,127,2958225844
61,15,19,Jits_Linear_5,0,1,48,66,2958786488
61,15,19,Jits_Linear_5,1,5,56,103,2958846480
61,15,19,Jits_Linear_5,2,5,63,98,2958855628
61,15,19,Jits_Linear_5,3,5,80,127,2958915932
61,15,19,Jits_Linear_5,0,1,48,59,2959464216
61,15,19,Jits_Linear_5,1,5,56,103,2959545680
61,15,19,Jits_Linear_5,2,5,80,127,2959566128
61,15,19,Jits_Linear_5,3,5,63,98,2959595756
61,15,19,Jits_Linear_5,0,1,48,52,2960151892
61,15,19,Jits_Linear_5,1,5,80,127,2960246108
61,15,19,Jits_Linear_5,2,5,56,103,2960256588
61,15,19,Jits_Linear_5,3,5,63,98,2960275776
61,15,19,Jits_Linear_5,0,1,48,64,2960828316
61,15,19,Jits_Linear_5,1,5,63,98,2960936176
61,15,19,Jits_Linear_5,2,5,80,127,2961016200
61,15,19,Jits_Linear_5,3,5,56,103,2961026544
61,15,19,Jits_Linear_5,0,1,48,70,2961556776
61,15,19,Jits_Linear_5,1,5,80,127,2961696244
61,15,19,Jits_Linear_5,2,5,56,103,2961715656
61,15,19,Jits_Linear_5,3,5,63,98,2961718572
61,15,19,Jits_Linear_5,0,1,48,66,2962290452
61,15,19,Jits_Linear_5,1,5,63,98,2962376196
61,15,19,Jits_Linear_5,2,5,80,127,2962379560
61,15,19,Jits_Linear_5,3,5,56,103,2962435552
61,15,19,Jits_Linear_5,0,5,56,103,2963066356
61,15,19,Jits_Linear_5,1,5,80,127,2963075580
61,15,19,Jits_Linear_5,2,1,48,65,2963090536
61,15,19,Jits_Linear_5,3,5,63,98,2963116560
61,15,19,Jits_Linear_5,0,1,48,58,2963703736
61,15,19,Jits_Linear_5,1,5,56,103,2963756524
61,15,19,Jits_Linear_5,2,5,63,98,2963815856
61,15,19,Jits_Linear_5,3,5,80,127,2963826052
61,15,19,Jits_Linear_5,0,1,48,66,2964388712
61,15,19,Jits_Linear_5,1,5,63,98,2964476428
61,15,19,Jits_Linear_5,2,5,80,127,2964516352
61,15,19,Jits_Linear_5,3,5,56,103,2964556364
61,15,19,Jits_Linear_5,0,1,48,56,2965076480
61,15,19,Jits_Linear_5,1,5,56,103,2965185952
61,15,19,Jits_Linear_5,2,5,63,98,2965265704
61,15,19,Jits_Linear_5,3,5,80,127,2965268992
61,15,19,Jits_Linear_5,0,1,48,55,2965800788
61,15,19,Jits_Linear_5,1,5,80,127,2965966312
61,15,19,Jits_Linear_5,2,5,56,103,2965995940
61,15,19,Jits_Linear_5,3,5,63,98,2965998932
61,15,19,Jits_Linear_5,0,1,48,54,2966527664
61,15,19,Jits_Linear_5,1,5,56,103,2966646280
61,15,19,Jits_Linear_5,2,5,80,127,2966665472
61,15,19,Jits_Linear_5,3,5,63,98,2966705484
61,15,19,Jits_Linear_5,0,1,48,57,2967290276
61,15,19,Jits_Linear_5,1,5,80,127,2967345600
61,15,19,Jits_Linear_5,2,5,63,98,2967365984
61,15,19,Jits_Linear_5,3,5,56,103,2967426436
61,15,19,Jits_Linear_5,0,5,63,98,2968075552
61,15,19,Jits_Linear_5,1,5,56,103,2968085896
61,15,19,Jits_Linear_5,2,1,48,58,2968099428
61,15,19,Jits_Linear_5,3,5,80,127,2968136164
61,15,19,Jits_Linear_5,0,5,56,103,2968786284
61,15,19,Jits_Linear_5,1,1,48,55,2968804032
61,15,19,Jits_Linear_5,2,5,63,98,2968805692
61,15,19,Jits_Linear_5,3,5,80,127,2968815964
61,15,19,Jits_Linear_5,0,1,48,54,2969470696
61,15,19,Jits_Linear_5,1,5,56,103,2969506240
61,15,19,Jits_Linear_5,2,5,63,98,2969509456
61,15,19,Jits_Linear_5,3,5,80,127,2969525580
61,15,19,Jits_Linear_5,0,1,48,53,2970164304
61,15,19,Jits_Linear_5,1,5,63,98,2970276244
61,15,19,Jits_Linear_5,2,5,56,103,2970305924
61,15,19,Jits_Linear_5,3,5,80,127,2970335548
61,15,19,Jits_Linear_5,0,1,48,54,2970892736
61,15,19,Jits_Linear_5,1,5,80,127,2970966496
61,15,19,Jits_Linear_5,2,5,56,103,2971055424
61,15,19,Jits_Linear_5,3,5,63,98,2971058416
61,15,19,Jits_Linear_5,0,5,56,103,2971695468
61,15,19,Jits_Linear_5,1,5,80,127,2971698608
61,15,19,Jits_Linear_5,2,1,48,48,2971711840
61,15,19,Jits_Linear_5,3,5,63,98,2971776380
61,15,19,Jits_Linear_5,0,1,48,54,2972421776
61,15,19,Jits_Linear_5,1,5,80,127,2972425708
61,15,19,Jits_Linear_5,2,5,63,98,2972485956
61,15,19,Jits_Linear_5,3,5,56,103,2972516736
61,15,19,Jits_Linear_5,0,5,63,98,2973155808
61,15,19,Jits_Linear_5,1,1,48,49,2973157296
61,15,19,Jits_Linear_5,2,5,80,127,2973166148
61,15,19,Jits_Linear_5,3,5,56,103,2973235460
61,15,19,Jits_Linear_5,0,1,48,61,2973894016
61,15,19,Jits_Linear_5,1,5,56,103,2973906176
61,15,19,Jits_Linear_5,2,5,80,127,2973936324
61,15,19,Jits_Linear_5,3,5,63,98,2973986152
61,15,19,Jits_Linear_5,0,1,48,55,2974668308
61,15,19,Jits_Linear_5,1,5,63,98,2974685444
61,15,19,Jits_Linear_5,2,5,56,103,2974716240
61,15,19,Jits_Linear_5,3,5,80,127,2974719308
61,15,19,Jits_Linear_5,0,1,48,47,2975403576
61,15,19,Jits_Linear_5,1,5,63,98,2975425848
61,15,19,Jits_Linear_5,2,5,80,127,2975446332
61,15,19,Jits_Linear_5,3,5,56,103,2975455556
61,15,19,Jits_Linear_5,0,1,48,48,2976150068
61,15,19,Jits_Linear_5,1,5,56,103,2976175496
61,15,19,Jits_Linear_5,2,5,63,98,2976178416
61,15,19,Jits_Linear_5,3,5,80,127,2976196328
61,15,19,Jits_Linear_5,0,1,48,58,2976864204
61,15,19,Jits_Linear_5,1,5,56,103,2976875840
61,15,19,Jits_Linear_5,2,5,63,98,2976886336
61,15,19,Jits_Linear_5,3,5,80,127,2976915788
61,15,19,Jits_Linear_5,0,1,48,47,2977581692
61,15,19,Jits_Linear_5,1,5,63,98,2977646088
61,15,19,Jits_Linear_5,2,5,80,127,2977666476
61,15,19,Jits_Linear_5,3,5,56,103,2977706400
61,15,19,Jits_Linear_5,0,1,48,56,2978307228
61,15,19,Jits_Linear_5,1,5,56,103,2978426216
61,15,19,Jits_Linear_5,2,5,63,98,2978466160
61,15,19,Jits_Linear_5,3,5,80,127,2978469524
61,15,19,Jits_Linear_5,0,1,48,51,2979075160
61,15,19,Jits_Linear_5,1,5,80,127,2979116312
61,15,19,Jits_Linear_5,2,5,56,103,2979156400
61,15,19,Jits_Linear_5,3,5,63,98,2979205544
61,15,19,Jits_Linear_5,0,1,48,61,2979863916
61,15,19,Jits_Linear_5,1,5,56,103,2979926348
61,15,19,Jits_Linear_5,2,5,80,127,2979935496
61,15,19,Jits_Linear_5,3,5,63,98,2979966424
61,15,19,Jits_Linear_5,0,5,56,103,2980625656
61,15,19,Jits_Linear_5,1,5,80,127,2980665672
61,15,19,Jits_Linear_5,2,1,48,61,2980668568
61,15,19,Jits_Linear_5,3,5,63,98,2980716016
61,15,19,Jits_Linear_5,0,1,48,51,2981364128
61,15,19,Jits_Linear_5,1,5,56,103,2981385652
61,15,19,Jits_Linear_5,2,5,80,127,2981425668
61,15,19,Jits_Linear_5,3,5,63,98,2981475632
61,15,19,Jits_Linear_5,0,5,80,127,2982136132
61,15,19,Jits_Linear_5,1,1,48,57,2982161500
61,15,19,Jits_Linear_5,2,5,63,98,2982216000
61,15,19,Jits_Linear_5,3,5,56,103,2982226344
61,15,19,Jits_Linear_5,0,1,48,57,2982924656
61,15,19,Jits_Linear_5,1,5,80,127,2982946180
61,15,19,Jits_Linear_5,2,5,56,103,2982956376
61,15,19,Jits_Linear_5,3,5,63,98,2982975936
61,15,19,Jits_Linear_5,0,1,48,58,2983654148
61,15,19,Jits_Linear_5,1,5,63,98,2983676272
61,15,19,Jits_Linear_5,2,5,56,103,2983746028
61,15,19,Jits_Linear_5,3,5,80,127,2983749020
61,15,19,Jits_Linear_5,0,1,48,56,2984425216
61,15,19,Jits_Linear_5,1,5,80,127,2984436028
61,15,19,Jits_Linear_5,2,5,63,98,2984486308
61,15,19,Jits_Linear_5,3,5,56,103,2984526232
61,15,19,Jits_Linear_5,0,1,48,51,2985206780
61,15,19,Jits_Linear_5,1,5,63,98,2985246068
61,15,19,Jits_Linear_5,2,5,56,103,2985285936
61,15,19,Jits_Linear_5,3,5,80,127,2985296428
61,15,19,Jits_Linear_5,0,1,48,57,2985983096
61,15,19,Jits_Linear_5,1,5,63,98,2986006132
61,15,19,Jits_Linear_5,2,5,56,103,2986026296
61,15,19,Jits_Linear_5,3,5,80,127,2986045780
61,15,19,Jits_Linear_5,0,1,48,59,2986728036
61,15,19,Jits_Linear_5,1,5,80,127,2986736080
61,15,19,Jits_Linear_5,2,5,56,103,2986746128
61,15,19,Jits_Linear_5,3,5,63,98,2986765540
61,15,19,Jits_Linear_5,0,1,48,52,2987464472
61,15,19,Jits_Linear_5,1,5,63,98,2987535772
61,15,19,Jits_Linear_5,2,5,56,103,2987575700
61,15,19,Jits_Linear_5,3,5,80,127,2987606348
61,15,19,Jits_Linear_5,0,1,48,50,2988254312
61,15,19,Jits_Linear_5,1,5,56,103,2988316140
61,15,19,Jits_Linear_5,2,5,63,98,2988345820
61,15,19,Jits_Linear_5,3,5,80,127,2988376452
61,15,19,Jits_Linear_5,0,1,48,45,2989034152
61,15,19,Jits_Linear_5,1,5,80,127,2989065496
61,15,19,Jits_Linear_5,2,5,56,103,2989136208
61,15,19,Jits_Linear_5,3,5,63,98,2989139276
61,15,19,Jits_Linear_5,0,1,48,66,2989826944
61,15,19,Jits_Linear_5,1,5,56,103,2989856040
61,15,19,Jits_Linear_5,2,5,63,98,2989906172
61,15,19,Jits_Linear_5,3,5,80,127,2989935980
61,15,19,Jits_Linear_5,0,1,48,55,2990601984
61,15,19,Jits_Linear_5,1,5,63,98,2990615952
61,15,19,Jits_Linear_5,2,5,80,127,2990619168
61,15,19,Jits_Linear_5,3,5,56,103,2990676192
61,15,19,Jits_Linear_5,0,1,48,53,2991374924
61,15,19,Jits_Linear_5,1,5,56,103,2991425820
61,15,19,Jits_Linear_5,2,5,80,127,2991436016
61,15,19,Jits_Linear_5,3,5,63,98,2991486276
61,15,19,Jits_Linear_5,0,1,48,55,2992177392
61,15,19,Jits_Linear_5,1,5,63,98,2992185732
61,15,19,Jits_Linear_5,2,5,56,103,2992196004
61,15,19,Jits_Linear_5,3,5,80,127,2992225828
61,15,19,Jits_Linear_5,0,1,48,54,2992914372
61,15,19,Jits_Linear_5,1,5,63,98,2993006024
61,15,19,Jits_Linear_5,2,5,80,127,2993009316
61,15,19,Jits_Linear_5,3,5,56,103,2993035908
61,15,19,Jits_Linear_5,0,1,48,60,2993688952
61,15,19,Jits_Linear_5,1,5,63,98,2993815892
61,15,19,Jits_Linear_5,2,5,56,103,2993836268
61,15,19,Jits_Linear_5,3,5,80,127,2993839492
61,15,19,Jits_Linear_5,0,1,48,57,2994429744
61,15,19,Jits_Linear_5,1,5,63,98,2994565676
61,15,19,Jits_Linear_5,2,5,56,103,2994636260
61,15,19,Jits_Linear_5,3,5,80,127,2994655772
61,15,19,Jits_Linear_5,0,5,56,103,2995345992
61,15,19,Jits_Linear_5,1,1,48,60,2995346960
61,15,19,Jits_Linear_5,2,5,63,98,2995356108
61,15,19,Jits_Linear_5,3,5,80,127,2995447300
61,15,19,Jits_Linear_5,0,1,48,62,2996141248
61,15,19,Jits_Linear_5,1,5,56,103,2996155888
61,15,19,Jits_Linear_5,2,5,80,127,2996195708
61,15,19,Jits_Linear_5,3,5,63,98,2996206052
61,15,19,Jits_Linear_5,0,1,48,59,2996924096
61,15,19,Jits_Linear_5,1,5,56,103,2996975916
61,15,19,Jits_Linear_5,2,5,63,98,2997005668
61,15,19,Jits_Linear_5,3,5,80,127,2997036380
61,15,19,Jits_Linear_5,0,5,80,127,2997735836
61,15,19,Jits_Linear_5,1,1,48,73,2997768628
61,15,19,Jits_Linear_5,2,5,63,98,2997775848
61,15,19,Jits_Linear_5,3,5,56,103,2997796308
61,15,19,Jits_Linear_5,0,5,56,103,2998575556
61,15,19,Jits_Linear_5,1,5,80,127,2998595944
61,15,19,Jits_Linear_5,2,5,63,98,2998616700
61,15,19,Jits_Linear_5,3,1,48,63,2998618640
61,15,19,Jits_Linear_5,0,5,63,98,2999345816
61,15,19,Jits_Linear_5,1,5,56,103,2999355864
61,15,19,Jits_Linear_5,2,5,80,127,2999416032
61,15,19,Jits_Linear_5,3,1,48,56,2999422292
61,15,19,Jits_Linear_5,0,5,56,103,3000155700
61,15,19,Jits_Linear_5,1,1,48,50,3000201972
61,15,19,Jits_Linear_5,2,5,63,98,3000226276
61,15,19,Jits_Linear_5,3,5,80,127,3000245616
61,15,19,Jits_Linear_5,0,1,48,43,3000937400
61,15,19,Jits_Linear_5,1,5,56,103,3000965748
61,15,19,Jits_Linear_5,2,5,63,98,3000996172
61,15,19,Jits_Linear_5,3,5,80,127,3001036100
61,15,19,Jits_Linear_5,0,5,63,98,3001766348
61,15,19,Jits_Linear_5,1,1,48,56,3001779584
61,15,19,Jits_Linear_5,2,5,56,103,3001816720
61,15,19,Jits_Linear_5,3,5,80,127,3001825644
61,15,19,Jits_Linear_5,0,1,48,50,3002571696
61,15,19,Jits_Linear_5,1,5,56,103,3002616036
61,15,19,Jits_Linear_5,2,5,63,98,3002666448
61,15,19,Jits_Linear_5,3,5,80,127,3002675748
61,15,19,Jits_Linear_5,0,5,56,103,3003395516
61,15,19,Jits_Linear_5,1,5,63,98,3003405784
61,15,19,Jits_Linear_5,2,1,48,61,3003417444
61,15,19,Jits_Linear_5,3,5,80,127,3003485724
61,15,19,Jits_Linear_5,0,9999,9999,9999,2894593128
61,15,19,Jits_Linear_5,1,9999,9999,9999,2895073364
61,15,19,Jits_Linear_5,2,9999,9999,9999,2895553596
61,15,19,Jits_Linear_5,3,9999,9999,9999,2896033848
61,15,19,Jits_Linear_5,4,9999,9999,9999,2896513100
61,15,19,Jits_Linear_5,5,9999,9999,9999,2897003580
61,15,19,Jits_Linear_5,6,9999,9999,9999,2897494124
61,15,19,Jits_Linear_5,7,9999,9999,9999,2897993828
61,15,19,Jits_Linear_5,8,9999,9999,9999,2898483328
61,15,19,Jits_Linear_5,9,9999,9999,9999,2898973800
61,15,19,Jits_Linear_5,10,9999,9999,9999,2899473488
61,15,19,Jits_Linear_5,11,9999,9999,9999,2899973192
61,15,19,Jits_Linear_5,12,9999,9999,9999,2900473924
61,15,19,Jits_Linear_5,13,9999,9999,9999,2900973684
61,15,19,Jits_Linear_5,14,9999,9999,9999,2901473368
61,15,19,Jits_Linear_5,15,9999,9999,9999,2901983336
61,15,19,Jits_Linear_5,16,9999,9999,9999,2902493288
61,15,19,Jits_Linear_5,17,9999,9999,9999,2903003240
61,15,19,Jits_Linear_5,18,9999,9999,9999,2903513192
61,15,19,Jits_Linear_5,19,9999,9999,9999,2904023128
61,15,19,Jits_Linear_5,20,9999,9999,9999,2904543288
61,15,19,Jits_Linear_5,21,9999,9999,9999,2905063504
61,15,19,Jits_Linear_5,22,9999,9999,9999,2905583716
61,15,19,Jits_Linear_5,23,9999,9999,9999,2906103932
61,15,19,Jits_Linear_5,24,9999,9999,9999,2906624076
61,15,19,Jits_Linear_5,25,9999,9999,9999,2907163764
61,15,19,Jits_Linear_5,26,9999,9999,9999,2907693124
61,15,19,Jits_Linear_5,27,9999,9999,9999,2908223580
61,15,19,Jits_Linear_5,28,9999,9999,9999,2908753988
61,15,19,Jits_Linear_5,29,9999,9999,9999,2909283420
61,15,19,Jits_Linear_5,30,9999,9999,9999,2909824088
61,15,19,Jits_Linear_5,31,9999,9999,9999,2910373976
61,15,19,Jits_Linear_5,32,9999,9999,9999,2910913664
61,15,19,Jits_Linear_5,33,9999,9999,9999,2911453236
61,15,19,Jits_Linear_5,34,9999,9999,9999,2911993980
61,15,19,Jits_Linear_5,35,9999,9999,9999,2912543868
61,15,19,Jits_Linear_5,36,9999,9999,9999,2913093740
61,15,19,Jits_Linear_5,37,9999,9999,9999,2913643628
61,15,19,Jits_Linear_5,38,9999,9999,9999,2914193512
61,15,19,Jits_Linear_5,39,9999,9999,9999,2914743400
61,15,19,Jits_Linear_5,40,9999,9999,9999,2915303504
61,15,19,Jits_Linear_5,41,9999,9999,9999,2915863652
61,15,19,Jits_Linear_5,42,9999,9999,9999,2916423740
61,15,19,Jits_Linear_5,43,9999,9999,9999,2916983884
61,15,19,Jits_Linear_5,44,9999,9999,9999,2917544028
61,15,19,Jits_Linear_5,45,9999,9999,9999,2918113340
61,15,19,Jits_Linear_5,46,9999,9999,9999,2918683732
61,15,19,Jits_Linear_5,47,9999,9999,9999,2919254080
61,15,19,Jits_Linear_5,48,9999,9999,9999,2919833708
61,15,19,Jits_Linear_5,49,9999,9999,9999,2920404052
61,15,19,Jits_Linear_5,50,9999,9999,9999,2920983616
61,15,19,Jits_Linear_5,51,9999,9999,9999,2921563244
61,15,19,Jits_Linear_5,52,9999,9999,9999,2922143848
61,15,19,Jits_Linear_5,53,9999,9999,9999,2922723428
61,15,19,Jits_Linear_5,54,9999,9999,9999,2923304008
61,15,19,Jits_Linear_5,55,9999,9999,9999,2923893828
61,15,19,Jits_Linear_5,56,9999,9999,9999,2924483644
61,15,19,Jits_Linear_5,57,9999,9999,9999,2925073484
61,15,19,Jits_Linear_5,58,9999,9999,9999,2925663304
61,15,19,Jits_Linear_5,59,9999,9999,9999,2926253108
61,15,19,Jits_Linear_5,60,9999,9999,9999,2926853236
61,15,19,Jits_Linear_5,61,9999,9999,9999,2927453236
61,15,19,Jits_Linear_5,62,9999,9999,9999,2928053332
61,15,19,Jits_Linear_5,63,9999,9999,9999,2928653440
61,15,19,Jits_Linear_5,64,9999,9999,9999,2929253452
61,15,19,Jits_Linear_5,65,9999,9999,9999,2929863792
61,15,19,Jits_Linear_5,66,9999,9999,9999,2930474088
61,15,19,Jits_Linear_5,67,9999,9999,9999,2931083376
61,15,19,Jits_Linear_5,68,9999,9999,9999,2931693672
61,15,19,Jits_Linear_5,69,9999,9999,9999,2932303948
61,15,19,Jits_Linear_5,70,9999,9999,9999,2932923500
61,15,19,Jits_Linear_5,71,9999,9999,9999,2933544056
61,15,19,Jits_Linear_5,72,9999,9999,9999,2934163544
61,15,19,Jits_Linear_5,73,9999,9999,9999,2934784104
61,15,19,Jits_Linear_5,74,9999,9999,9999,2935413860
61,15,19,Jits_Linear_5,75,9999,9999,9999,2936043636
61,15,19,Jits_Linear_5,76,9999,9999,9999,2936673396
61,15,19,Jits_Linear_5,77,9999,9999,9999,2937303100
61,15,19,Jits_Linear_5,78,9999,9999,9999,2937933900
61,15,19,Jits_Linear_5,79,9999,9999,9999,2938563652
61,15,19,Jits_Linear_5,80,9999,9999,9999,2939203692
61,15,19,Jits_Linear_5,81,9999,9999,9999,2939843708
61,15,19,Jits_Linear_5,82,9999,9999,9999,2940483668
61,15,19,Jits_Linear_5,83,9999,9999,9999,2941123680
61,15,19,Jits_Linear_5,84,9999,9999,9999,2941763652
61,15,19,Jits_Linear_5,85,9999,9999,9999,2942413924
61,15,19,Jits_Linear_5,86,9999,9999,9999,2943063164
61,15,19,Jits_Linear_5,87,9999,9999,9999,2943713400
61,15,19,Jits_Linear_5,88,9999,9999,9999,2944363628
61,15,19,Jits_Linear_5,89,9999,9999,9999,2945013872
61,15,19,Jits_Linear_5,90,9999,9999,9999,2945673292
61,15,19,Jits_Linear_5,91,9999,9999,9999,2946333780
61,15,19,Jits_Linear_5,92,9999,9999,9999,2946993260
61,15,19,Jits_Linear_5,93,9999,9999,9999,2947653756
61,15,19,Jits_Linear_5,94,9999,9999,9999,2948313196
61,15,19,Jits_Linear_5,95,9999,9999,9999,2948983932
61,15,19,Jits_Linear_5,96,9999,9999,9999,2949653564
61,15,19,Jits_Linear_5,97,9999,9999,9999,2950323324
61,15,19,Jits_Linear_5,98,9999,9999,9999,2950993996
61,15,19,Jits_Linear_5,99,9999,9999,9999,2951663696
61,15,19,Jits_Linear_5,100,9999,9999,9999,2952343644
61,15,19,Jits_Linear_5,101,9999,9999,9999,2953023588
61,15,19,Jits_Linear_5,102,9999,9999,9999,2953703492
61,15,19,Jits_Linear_5,103,9999,9999,9999,2954383456
61,15,19,Jits_Linear_5,104,9999,9999,9999,2955063364
61,15,19,Jits_Linear_5,105,9999,9999,9999,2955753596
61,15,19,Jits_Linear_5,106,9999,9999,9999,2956443732
61,15,19,Jits_Linear_5,107,9999,9999,9999,2957133888
61,15,19,Jits_Linear_5,108,9999,9999,9999,2957824120
61,15,19,Jits_Linear_5,109,9999,9999,9999,2958523472
61,15,19,Jits_Linear_5,110,9999,9999,9999,2959223896
61,15,19,Jits_Linear_5,111,9999,9999,9999,2959923276
61,15,19,Jits_Linear_5,112,9999,9999,9999,2960623696
61,15,19,Jits_Linear_5,113,9999,9999,9999,2961323128
61,15,19,Jits_Linear_5,114,9999,9999,9999,2962023548
61,15,19,Jits_Linear_5,115,9999,9999,9999,2962733184
61,15,19,Jits_Linear_5,116,9999,9999,9999,2963443792
61,15,19,Jits_Linear_5,117,9999,9999,9999,2964153424
61,15,19,Jits_Linear_5,118,9999,9999,9999,2964864112
61,15,19,Jits_Linear_5,119,9999,9999,9999,2965583932
61,15,19,Jits_Linear_5,120,9999,9999,9999,2966303832
61,15,19,Jits_Linear_5,121,9999,9999,9999,2967023740
61,15,19,Jits_Linear_5,122,9999,9999,9999,2967743544
61,15,19,Jits_Linear_5,123,9999,9999,9999,2968463448
61,15,19,Jits_Linear_5,124,9999,9999,9999,2969183324
61,15,19,Jits_Linear_5,125,9999,9999,9999,2969913416
61,15,19,Jits_Linear_5,126,9999,9999,9999,2970643516
61,15,19,Jits_Linear_5,127,9999,9999,9999,2971373676
61,15,19,Jits_Linear_5,128,9999,9999,9999,2972103736
61,15,19,Jits_Linear_5,129,9999,9999,9999,2972833844
61,15,19,Jits_Linear_5,130,9999,9999,9999,2973573224
61,15,19,Jits_Linear_5,131,9999,9999,9999,2974313584
61,15,19,Jits_Linear_5,132,9999,9999,9999,2975053932
61,15,19,Jits_Linear_5,133,9999,9999,9999,2975793248
61,15,19,Jits_Linear_5,134,9999,9999,9999,2976533600
61,15,19,Jits_Linear_5,135,9999,9999,9999,2977283172
61,15,19,Jits_Linear_5,136,9999,9999,9999,2978033720
61,15,19,Jits_Linear_5,137,9999,9999,9999,2978783292
61,15,19,Jits_Linear_5,138,9999,9999,9999,2979533888
61,15,19,Jits_Linear_5,139,9999,9999,9999,2980283460
61,15,19,Jits_Linear_5,140,9999,9999,9999,2981043300
61,15,19,Jits_Linear_5,141,9999,9999,9999,2981803080
61,15,19,Jits_Linear_5,142,9999,9999,9999,2982563964
61,15,19,Jits_Linear_5,143,9999,9999,9999,2983323744
61,15,19,Jits_Linear_5,144,9999,9999,9999,2984083572
61,15,19,Jits_Linear_5,145,9999,9999,9999,2984853604
61,15,19,Jits_Linear_5,146,9999,9999,9999,2985623632
61,15,19,Jits_Linear_5,147,9999,9999,9999,2986393664
61,15,19,Jits_Linear_5,148,9999,9999,9999,2987163764
61,15,19,Jits_Linear_5,149,9999,9999,9999,2987933792
61,15,19,Jits_Linear_5,150,9999,9999,9999,2988714084
61,15,19,Jits_Linear_5,151,9999,9999,9999,2989493324
61,15,19,Jits_Linear_5,152,9999,9999,9999,2990273616
61,15,19,Jits_Linear_5,153,9999,9999,9999,2991053892
61,15,19,Jits_Linear_5,154,9999,9999,9999,2991833152
61,15,19,Jits_Linear_5,155,9999,9999,9999,2992623700
61,15,19,Jits_Linear_5,156,9999,9999,9999,2993413200
61,15,19,Jits_Linear_5,157,9999,9999,9999,2994203748
61,15,19,Jits_Linear_5,158,9999,9999,9999,2994993260
61,15,19,Jits_Linear_5,159,9999,9999,9999,2995783740
61,15,19,Jits_Linear_5,160,9999,9999,9999,2996583524
61,15,19,Jits_Linear_5,161,9999,9999,9999,2997383228
61,15,19,Jits_Linear_5,162,9999,9999,9999,2998184040
61,15,19,Jits_Linear_5,163,9999,9999,9999,2998983756
61,15,19,Jits_Linear_5,164,9999,9999,9999,2999783484
61,15,19,Jits_Linear_5,165,9999,9999,9999,3000593524
61,15,19,Jits_Linear_5,166,9999,9999,9999,3001403500
61,15,19,Jits_Linear_5,167,9999,9999,9999,3002213460
61,15,19,Jits_Linear_5,168,9999,9999,9999,3003023420
61,15,19,Jits_Linear_5,169,9999,9999,9999,3003833456
61,16,18,Jits_Linear_8,0,5,56,103,3014493508
61,16,18,Jits_Linear_8,1,5,63,98,3014496464
61,16,18,Jits_Linear_8,2,5,80,127,3014499660
61,16,18,Jits_Linear_8,0,5,56,103,3015313904
61,16,18,Jits_Linear_8,1,5,63,98,3015316924
61,16,18,Jits_Linear_8,2,5,80,127,3015320344
61,16,18,Jits_Linear_8,0,5,80,127,3016073544
61,16,18,Jits_Linear_8,1,1,48,57,3016132860
61,16,18,Jits_Linear_8,2,5,63,98,3016163548
61,16,18,Jits_Linear_8,3,5,56,103,3016173892
61,16,18,Jits_Linear_8,0,5,56,103,3016914468
61,16,18,Jits_Linear_8,1,5,63,98,3016923468
61,16,18,Jits_Linear_8,2,1,48,55,3016968316
61,16,18,Jits_Linear_8,3,5,80,127,3017013744
61,16,18,Jits_Linear_8,0,5,63,98,3017703824
61,16,18,Jits_Linear_8,1,5,80,127,3017733504
61,16,18,Jits_Linear_8,2,1,48,54,3017754228
61,16,18,Jits_Linear_8,3,5,56,103,3017764368
61,16,18,Jits_Linear_8,0,5,56,103,3018524176
61,16,18,Jits_Linear_8,1,1,48,60,3018535764
61,16,18,Jits_Linear_8,2,5,80,127,3018624348
61,16,18,Jits_Linear_8,3,5,63,98,3018673488
61,16,18,Jits_Linear_8,0,5,56,103,3019334212
61,16,18,Jits_Linear_8,1,1,48,59,3019368048
61,16,18,Jits_Linear_8,2,5,80,127,3019384260
61,16,18,Jits_Linear_8,3,5,63,98,3019424348
61,16,18,Jits_Linear_8,0,5,80,127,3020173616
61,16,18,Jits_Linear_8,1,1,48,63,3020180400
61,16,18,Jits_Linear_8,2,5,63,98,3020204336
61,16,18,Jits_Linear_8,3,5,56,103,3020274176
61,16,18,Jits_Linear_8,0,5,63,98,3021014396
61,16,18,Jits_Linear_8,1,1,48,62,3021022320
61,16,18,Jits_Linear_8,2,5,56,103,3021044288
61,16,18,Jits_Linear_8,3,5,80,127,3021103408
61,16,18,Jits_Linear_8,0,5,56,103,3021764080
61,16,18,Jits_Linear_8,1,5,80,127,3021767148
61,16,18,Jits_Linear_8,2,1,48,57,3021838396
61,16,18,Jits_Linear_8,3,5,63,98,3021883752
61,16,18,Jits_Linear_8,0,1,48,51,3022583988
61,16,18,Jits_Linear_8,1,5,56,103,3022643576
61,16,18,Jits_Linear_8,2,5,80,127,3022683500
61,16,18,Jits_Linear_8,3,5,63,98,3022693696
61,16,18,Jits_Linear_8,0,1,48,62,3023398796
61,16,18,Jits_Linear_8,1,5,56,103,3023404300
61,16,18,Jits_Linear_8,2,5,80,127,3023423788
61,16,18,Jits_Linear_8,3,5,63,98,3023503716
61,16,18,Jits_Linear_8,0,5,80,127,3024193872
61,16,18,Jits_Linear_8,1,1,48,65,3024245688
61,16,18,Jits_Linear_8,2,5,56,103,3024294340
61,16,18,Jits_Linear_8,3,5,63,98,3024303416
61,16,18,Jits_Linear_8,0,5,63,98,3024964124
61,16,18,Jits_Linear_8,1,5,80,127,3025024444
61,16,18,Jits_Linear_8,2,5,56,103,3025033668
61,16,18,Jits_Linear_8,3,1,48,65,3025062488
61,16,18,Jits_Linear_8,0,5,56,103,3025763652
61,16,18,Jits_Linear_8,1,1,48,60,3025821304
61,16,18,Jits_Linear_8,2,5,63,98,3025834220
61,16,18,Jits_Linear_8,3,5,80,127,3025837516
61,16,18,Jits_Linear_8,0,5,63,98,3026594204
61,16,18,Jits_Linear_8,1,1,48,55,3026633220
61,16,18,Jits_Linear_8,2,5,56,103,3026644276
61,16,18,Jits_Linear_8,3,5,80,127,3026647492
61,16,18,Jits_Linear_8,0,5,56,103,3027343596
61,16,18,Jits_Linear_8,1,5,80,127,3027346892
61,16,18,Jits_Linear_8,2,1,48,49,3027417012
61,16,18,Jits_Linear_8,3,5,63,98,3027434124
61,16,18,Jits_Linear_8,0,5,63,98,3028174152
61,16,18,Jits_Linear_8,1,1,48,55,3028178020
61,16,18,Jits_Linear_8,2,5,56,103,3028264284
61,16,18,Jits_Linear_8,3,5,80,127,3028294168
61,16,18,Jits_Linear_8,0,5,56,103,3028953460
61,16,18,Jits_Linear_8,1,1,48,57,3029031860
61,16,18,Jits_Linear_8,2,5,63,98,3029054076
61,16,18,Jits_Linear_8,3,5,80,127,3029083376
61,16,18,Jits_Linear_8,0,5,63,98,3029763572
61,16,18,Jits_Linear_8,1,5,56,103,3029773696
61,16,18,Jits_Linear_8,2,1,48,59,3029840708
61,16,18,Jits_Linear_8,3,5,80,127,3029863968
61,16,18,Jits_Linear_8,0,1,48,60,3030545840
61,16,18,Jits_Linear_8,1,5,63,98,3030564296
61,16,18,Jits_Linear_8,2,5,56,103,3030645068
61,16,18,Jits_Linear_8,3,5,80,127,3030647820
61,16,18,Jits_Linear_8,0,5,80,127,3031303520
61,16,18,Jits_Linear_8,1,5,63,98,3031324056
61,16,18,Jits_Linear_8,2,1,48,60,3031338040
61,16,18,Jits_Linear_8,3,5,56,103,3031384364
61,16,18,Jits_Linear_8,0,1,48,56,3032095236
61,16,18,Jits_Linear_8,1,5,56,103,3032124032
61,16,18,Jits_Linear_8,2,5,63,98,3032144340
61,16,18,Jits_Linear_8,3,5,80,127,3032147852
61,16,18,Jits_Linear_8,0,5,63,98,3032843760
61,16,18,Jits_Linear_8,1,1,48,74,3032884420
61,16,18,Jits_Linear_8,2,5,80,127,3032923552
61,16,18,Jits_Linear_8,3,5,56,103,3032933972
61,16,18,Jits_Linear_8,0,5,63,98,3033653704
61,16,18,Jits_Linear_8,1,5,56,103,3033674164
61,16,18,Jits_Linear_8,2,1,48,58,3033698108
61,16,18,Jits_Linear_8,3,5,80,127,3033724136
61,16,18,Jits_Linear_8,0,5,80,127,3034434052
61,16,18,Jits_Linear_8,1,1,48,69,3034454556
61,16,18,Jits_Linear_8,2,5,63,98,3034473836
61,16,18,Jits_Linear_8,3,5,56,103,3034494372
61,16,18,Jits_Linear_8,0,1,48,69,3035233792
61,16,18,Jits_Linear_8,1,5,56,103,3035244152
61,16,18,Jits_Linear_8,2,5,63,98,3035254200
61,16,18,Jits_Linear_8,3,5,80,127,3035273688
61,16,18,Jits_Linear_8,0,5,56,103,3035944416
61,16,18,Jits_Linear_8,1,5,63,98,3036034332
61,16,18,Jits_Linear_8,2,1,48,58,3036035296
61,16,18,Jits_Linear_8,3,5,80,127,3036093964
61,16,18,Jits_Linear_8,0,5,80,127,3036744192
61,16,18,Jits_Linear_8,1,1,48,60,3036748960
61,16,18,Jits_Linear_8,2,5,56,103,3036754232
61,16,18,Jits_Linear_8,3,5,63,98,3036824064
61,16,18,Jits_Linear_8,0,5,63,98,3037543888
61,16,18,Jits_Linear_8,1,1,48,63,3037558616
61,16,18,Jits_Linear_8,2,5,80,127,3037633868
61,16,18,Jits_Linear_8,3,5,56,103,3037644064
61,16,18,Jits_Linear_8,0,5,63,98,3038244156
61,16,18,Jits_Linear_8,1,5,80,127,3038294356
61,16,18,Jits_Linear_8,2,1,48,70,3038338528
61,16,18,Jits_Linear_8,3,5,56,103,3038353844
61,16,18,Jits_Linear_8,0,5,56,103,3039033792
61,16,18,Jits_Linear_8,1,5,80,127,3039083996
61,16,18,Jits_Linear_8,2,1,48,51,3039089736
61,16,18,Jits_Linear_8,3,5,63,98,3039104376
61,16,18,Jits_Linear_8,0,5,56,103,3039764036
61,16,18,Jits_Linear_8,1,5,80,127,3039824132
61,16,18,Jits_Linear_8,2,1,48,63,3039835120
61,16,18,Jits_Linear_8,3,5,63,98,3039893884
61,16,18,Jits_Linear_8,0,5,56,103,3040523876
61,16,18,Jits_Linear_8,1,5,80,127,3040554224
61,16,18,Jits_Linear_8,2,5,63,98,3040583900
61,16,18,Jits_Linear_8,3,1,48,67,3040616536
61,16,18,Jits_Linear_8,0,5,56,103,3041333828
61,16,18,Jits_Linear_8,1,1,48,63,3041338448
61,16,18,Jits_Linear_8,2,5,80,127,3041354060
61,16,18,Jits_Linear_8,3,5,63,98,3041413552
61,16,18,Jits_Linear_8,0,1,48,45,3042133568
61,16,18,Jits_Linear_8,1,5,80,127,3042174424
61,16,18,Jits_Linear_8,2,5,56,103,3042183652
61,16,18,Jits_Linear_8,3,5,63,98,3042193920
61,16,18,Jits_Linear_8,0,5,56,103,3042883912
61,16,18,Jits_Linear_8,1,5,80,127,3042923924
61,16,18,Jits_Linear_8,2,1,48,49,3042924892
61,16,18,Jits_Linear_8,3,5,63,98,3042953892
61,16,18,Jits_Linear_8,0,5,56,103,3043603820
61,16,18,Jits_Linear_8,1,5,63,98,3043633796
61,16,18,Jits_Linear_8,2,5,80,127,3043673436
61,16,18,Jits_Linear_8,3,1,48,49,3043714244
61,16,18,Jits_Linear_8,0,5,80,127,3044304392
61,16,18,Jits_Linear_8,1,5,63,98,3044354376
61,16,18,Jits_Linear_8,2,5,56,103,3044373784
61,16,18,Jits_Linear_8,3,1,48,54,3044435712
61,16,18,Jits_Linear_8,0,5,56,103,3045083856
61,16,18,Jits_Linear_8,1,5,80,127,3045154064
61,16,18,Jits_Linear_8,2,1,48,57,3045157108
61,16,18,Jits_Linear_8,3,5,63,98,3045213920
61,16,18,Jits_Linear_8,0,5,80,127,3045823820
61,16,18,Jits_Linear_8,1,1,48,59,3045905856
61,16,18,Jits_Linear_8,2,5,63,98,3045913976
61,16,18,Jits_Linear_8,3,5,56,103,3045933536
61,16,18,Jits_Linear_8,0,5,63,98,3046583812
61,16,18,Jits_Linear_8,1,1,48,62,3046585072
61,16,18,Jits_Linear_8,2,5,56,103,3046604188
61,16,18,Jits_Linear_8,3,5,80,127,3046644152
61,16,18,Jits_Linear_8,0,5,80,127,3047283996
61,16,18,Jits_Linear_8,1,5,63,98,3047303484
61,16,18,Jits_Linear_8,2,1,48,57,3047371940
61,16,18,Jits_Linear_8,3,5,56,103,3047384640
61,16,18,Jits_Linear_8,0,5,63,98,3048014232
61,16,18,Jits_Linear_8,1,1,48,51,3048077368
61,16,18,Jits_Linear_8,2,5,56,103,3048123696
61,16,18,Jits_Linear_8,3,5,80,127,3048126688
61,16,18,Jits_Linear_8,0,5,63,98,3048773900
61,16,18,Jits_Linear_8,1,5,56,103,3048784320
61,16,18,Jits_Linear_8,2,5,80,127,3048787312
61,16,18,Jits_Linear_8,3,1,48,57,3048814408
61,16,18,Jits_Linear_8,0,5,56,103,3049493848
61,16,18,Jits_Linear_8,1,1,48,55,3049508648
61,16,18,Jits_Linear_8,2,5,80,127,3049613632
61,16,18,Jits_Linear_8,3,5,63,98,3049653720
61,16,18,Jits_Linear_8,0,5,56,103,3050243572
61,16,18,Jits_Linear_8,1,1,48,64,3050271480
61,16,18,Jits_Linear_8,2,5,80,127,3050324556
61,16,18,Jits_Linear_8,3,5,63,98,3050343820
61,16,18,Jits_Linear_8,0,5,56,103,3050973664
61,16,18,Jits_Linear_8,1,1,48,65,3050985328
61,16,18,Jits_Linear_8,2,5,63,98,3051084004
61,16,18,Jits_Linear_8,3,5,80,127,3051087296
61,16,18,Jits_Linear_8,0,5,56,103,3051734624
61,16,18,Jits_Linear_8,1,5,80,127,3051764076
61,16,18,Jits_Linear_8,2,1,48,56,3051772224
61,16,18,Jits_Linear_8,3,5,63,98,3051783708
61,16,18,Jits_Linear_8,0,5,63,98,3052454352
61,16,18,Jits_Linear_8,1,5,56,103,3052463652
61,16,18,Jits_Linear_8,2,5,80,127,3052473624
61,16,18,Jits_Linear_8,3,1,48,48,3052520664
61,16,18,Jits_Linear_8,0,5,80,127,3053163900
61,16,18,Jits_Linear_8,1,1,48,46,3053187624
61,16,18,Jits_Linear_8,2,5,56,103,3053214024
61,16,18,Jits_Linear_8,3,5,63,98,3053253888
61,16,18,Jits_Linear_8,0,5,80,127,3053904332
61,16,18,Jits_Linear_8,1,5,63,98,3053923600
61,16,18,Jits_Linear_8,2,1,48,52,3053937204
61,16,18,Jits_Linear_8,3,5,56,103,3053973868
61,16,18,Jits_Linear_8,0,5,80,127,3054634504
61,16,18,Jits_Linear_8,1,1,48,54,3054664256
61,16,18,Jits_Linear_8,2,5,56,103,3054665444
61,16,18,Jits_Linear_8,3,5,63,98,3054733632
61,16,18,Jits_Linear_8,0,5,56,103,3055404388
61,16,18,Jits_Linear_8,1,5,80,127,3055413612
61,16,18,Jits_Linear_8,2,1,48,56,3055442584
61,16,18,Jits_Linear_8,3,5,63,98,3055453620
61,16,18,Jits_Linear_8,0,5,56,103,3056034292
61,16,18,Jits_Linear_8,1,5,63,98,3056053556
61,16,18,Jits_Linear_8,2,5,80,127,3056124532
61,16,18,Jits_Linear_8,3,1,48,60,3056148628
61,16,18,Jits_Linear_8,0,5,63,98,3056773380
61,16,18,Jits_Linear_8,1,1,48,44,3056788476
61,16,18,Jits_Linear_8,2,5,80,127,3056833988
61,16,18,Jits_Linear_8,3,5,56,103,3056854472
61,16,18,Jits_Linear_8,0,5,80,127,3057473860
61,16,18,Jits_Linear_8,1,5,56,103,3057503464
61,16,18,Jits_Linear_8,2,1,48,56,3057515948
61,16,18,Jits_Linear_8,3,5,63,98,3057534404
61,16,18,Jits_Linear_8,0,5,56,103,3058183500
61,16,18,Jits_Linear_8,1,1,48,57,3058199424
61,16,18,Jits_Linear_8,2,5,63,98,3058243964
61,16,18,Jits_Linear_8,3,5,80,127,3058304488
61,16,18,Jits_Linear_8,0,5,80,127,3058913752
61,16,18,Jits_Linear_8,1,1,48,57,3058932392
61,16,18,Jits_Linear_8,2,5,56,103,3058934280
61,16,18,Jits_Linear_8,3,5,63,98,3059003660
61,16,18,Jits_Linear_8,0,5,80,127,3059624492
61,16,18,Jits_Linear_8,1,5,63,98,3059643828
61,16,18,Jits_Linear_8,2,1,48,62,3059670716
61,16,18,Jits_Linear_8,3,5,56,103,3059673448
61,16,18,Jits_Linear_8,0,5,80,127,3060313384
61,16,18,Jits_Linear_8,1,5,63,98,3060333916
61,16,18,Jits_Linear_8,2,1,48,51,3060365952
61,16,18,Jits_Linear_8,3,5,56,103,3060394448
61,16,18,Jits_Linear_8,0,5,80,127,3061013808
61,16,18,Jits_Linear_8,1,1,48,54,3061102340
61,16,18,Jits_Linear_8,2,5,56,103,3061114496
61,16,18,Jits_Linear_8,3,5,63,98,3061144096
61,16,18,Jits_Linear_8,0,5,63,98,3061704320
61,16,18,Jits_Linear_8,1,5,80,127,3061754476
61,16,18,Jits_Linear_8,2,5,56,103,3061773664
61,16,18,Jits_Linear_8,3,1,48,53,3061846080
61,16,18,Jits_Linear_8,0,5,80,127,3062444368
61,16,18,Jits_Linear_8,1,5,56,103,3062474264
61,16,18,Jits_Linear_8,2,5,63,98,3062477256
61,16,18,Jits_Linear_8,3,1,48,54,3062521080
61,16,18,Jits_Linear_8,0,5,63,98,3063173556
61,16,18,Jits_Linear_8,1,5,56,103,3063213572
61,16,18,Jits_Linear_8,2,1,48,57,3063216088
61,16,18,Jits_Linear_8,3,5,80,127,3063233800
61,16,18,Jits_Linear_8,0,5,80,127,3063813364
61,16,18,Jits_Linear_8,1,5,63,98,3063894432
61,16,18,Jits_Linear_8,2,1,48,52,3063922356
61,16,18,Jits_Linear_8,3,5,56,103,3063934436
61,16,18,Jits_Linear_8,0,5,63,98,3064524252
61,16,18,Jits_Linear_8,1,5,80,127,3064603976
61,16,18,Jits_Linear_8,2,5,56,103,3064623464
61,16,18,Jits_Linear_8,3,1,48,59,3064624948
61,16,18,Jits_Linear_8,0,5,56,103,3065254464
61,16,18,Jits_Linear_8,1,5,63,98,3065263468
61,16,18,Jits_Linear_8,2,5,80,127,3065304404
61,16,18,Jits_Linear_8,3,1,48,44,3065316740
61,16,18,Jits_Linear_8,0,5,56,103,3065863568
61,16,18,Jits_Linear_8,1,5,80,127,3065866636
61,16,18,Jits_Linear_8,2,5,63,98,3066003820
61,16,18,Jits_Linear_8,3,1,48,56,3066027316
61,16,18,Jits_Linear_8,0,5,56,103,3066543432
61,16,18,Jits_Linear_8,1,5,63,98,3066633592
61,16,18,Jits_Linear_8,2,5,80,127,3066704324
61,16,18,Jits_Linear_8,3,1,48,46,3066731180
61,16,18,Jits_Linear_8,0,5,63,98,3067304252
61,16,18,Jits_Linear_8,1,5,80,127,3067307688
61,16,18,Jits_Linear_8,2,5,56,103,3067363840
61,16,18,Jits_Linear_8,3,1,48,55,3067423752
61,16,18,Jits_Linear_8,0,5,80,127,3068024288
61,16,18,Jits_Linear_8,1,5,56,103,3068043556
61,16,18,Jits_Linear_8,2,5,63,98,3068053972
61,16,18,Jits_Linear_8,3,1,48,46,3068055236
61,16,18,Jits_Linear_8,0,5,56,103,3068614112
61,16,18,Jits_Linear_8,1,5,63,98,3068624184
61,16,18,Jits_Linear_8,2,5,80,127,3068694088
61,16,18,Jits_Linear_8,3,1,48,55,3068730840
61,16,18,Jits_Linear_8,0,5,80,127,3069294088
61,16,18,Jits_Linear_8,1,5,56,103,3069344068
61,16,18,Jits_Linear_8,2,1,48,51,3069363452
61,16,18,Jits_Linear_8,3,5,63,98,3069394212
61,16,18,Jits_Linear_8,0,5,56,103,3070053708
61,16,18,Jits_Linear_8,1,1,48,48,3070059440
61,16,18,Jits_Linear_8,2,5,63,98,3070064196
61,16,18,Jits_Linear_8,3,5,80,127,3070104060
61,16,18,Jits_Linear_8,0,5,56,103,3070674276
61,16,18,Jits_Linear_8,1,5,63,98,3070714216
61,16,18,Jits_Linear_8,2,1,48,49,3070746476
61,16,18,Jits_Linear_8,3,5,80,127,3070764264
61,16,18,Jits_Linear_8,0,5,80,127,3071304108
61,16,18,Jits_Linear_8,1,5,56,103,3071354160
61,16,18,Jits_Linear_8,2,5,63,98,3071373872
61,16,18,Jits_Linear_8,3,1,48,52,3071421256
61,16,18,Jits_Linear_8,0,5,80,127,3071983928
61,16,18,Jits_Linear_8,1,5,63,98,3072044396
61,16,18,Jits_Linear_8,2,1,48,36,3072055012
61,16,18,Jits_Linear_8,3,5,56,103,3072124260
61,16,18,Jits_Linear_8,0,5,80,127,3072643508
61,16,18,Jits_Linear_8,1,5,56,103,3072684496
61,16,18,Jits_Linear_8,2,5,63,98,3072704056
61,16,18,Jits_Linear_8,3,1,48,56,3072717736
61,16,18,Jits_Linear_8,0,1,48,50,3073355260
61,16,18,Jits_Linear_8,1,5,56,103,3073364276
61,16,18,Jits_Linear_8,2,5,80,127,3073373424
61,16,18,Jits_Linear_8,3,5,63,98,3073413512
61,16,18,Jits_Linear_8,0,1,48,48,3074043092
61,16,18,Jits_Linear_8,1,5,56,103,3074093464
61,16,18,Jits_Linear_8,2,5,63,98,3074134448
61,16,18,Jits_Linear_8,3,5,80,127,3074137812
61,16,18,Jits_Linear_8,0,5,63,98,3074644312
61,16,18,Jits_Linear_8,1,5,80,127,3074684252
61,16,18,Jits_Linear_8,2,1,48,47,3074734868
61,16,18,Jits_Linear_8,3,5,56,103,3074754000
61,16,18,Jits_Linear_8,0,5,63,98,3075293700
61,16,18,Jits_Linear_8,1,1,48,53,3075356908
61,16,18,Jits_Linear_8,2,5,56,103,3075373420
61,16,18,Jits_Linear_8,3,5,80,127,3075433956
61,16,18,Jits_Linear_8,0,5,80,127,3075964192
61,16,18,Jits_Linear_8,1,1,48,59,3075992868
61,16,18,Jits_Linear_8,2,5,63,98,3076013492
61,16,18,Jits_Linear_8,3,5,56,103,3076044064
61,16,18,Jits_Linear_8,0,5,56,103,3076613348
61,16,18,Jits_Linear_8,1,1,48,68,3076656176
61,16,18,Jits_Linear_8,2,5,63,98,3076663916
61,16,18,Jits_Linear_8,3,5,80,127,3076673888
61,16,18,Jits_Linear_8,0,5,56,103,3077284148
61,16,18,Jits_Linear_8,1,1,48,63,3077322264
61,16,18,Jits_Linear_8,2,5,63,98,3077393932
61,16,18,Jits_Linear_8,3,5,80,127,3077414168
61,16,18,Jits_Linear_8,0,5,63,98,3077933408
61,16,18,Jits_Linear_8,1,5,80,127,3077983536
61,16,18,Jits_Linear_8,2,1,48,62,3078040668
61,16,18,Jits_Linear_8,3,5,56,103,3078073812
61,16,18,Jits_Linear_8,0,5,63,98,3078573412
61,16,18,Jits_Linear_8,1,5,80,127,3078604060
61,16,18,Jits_Linear_8,2,1,48,53,3078675896
61,16,18,Jits_Linear_8,3,5,56,103,3078694204
61,16,18,Jits_Linear_8,0,5,63,98,3079223992
61,16,18,Jits_Linear_8,1,5,56,103,3079233892
61,16,18,Jits_Linear_8,2,5,80,127,3079334140
61,16,18,Jits_Linear_8,3,1,48,57,3079335104
61,16,18,Jits_Linear_8,0,1,48,57,3079946396
61,16,18,Jits_Linear_8,1,5,63,98,3079974144
61,16,18,Jits_Linear_8,2,5,80,127,3080003896
61,16,18,Jits_Linear_8,3,5,56,103,3080034016
61,16,18,Jits_Linear_8,0,5,80,127,3080633792
61,16,18,Jits_Linear_8,1,5,63,98,3080644064
61,16,18,Jits_Linear_8,2,1,48,62,3080662872
61,16,18,Jits_Linear_8,3,5,56,103,3080673684
61,16,18,Jits_Linear_8,0,5,80,127,3081174340
61,16,18,Jits_Linear_8,1,5,63,98,3081193828
61,16,18,Jits_Linear_8,2,5,56,103,3081243884
61,16,18,Jits_Linear_8,3,1,48,60,3081331196
61,16,18,Jits_Linear_8,0,5,63,98,3081844024
61,16,18,Jits_Linear_8,1,5,80,127,3081903744
61,16,18,Jits_Linear_8,2,1,48,57,3081919968
61,16,18,Jits_Linear_8,3,5,56,103,3081924120
61,16,18,Jits_Linear_8,0,5,63,98,3082444092
61,16,18,Jits_Linear_8,1,5,56,103,3082494320
61,16,18,Jits_Linear_8,2,5,80,127,3082503692
61,16,18,Jits_Linear_8,3,1,48,56,3082541120
61,16,18,Jits_Linear_8,0,5,56,103,3083113784
61,16,18,Jits_Linear_8,1,5,80,127,3083124052
61,16,18,Jits_Linear_8,2,1,48,55,3083170468
61,16,18,Jits_Linear_8,3,5,63,98,3083224396
61,16,18,Jits_Linear_8,0,5,80,127,3083713868
61,16,18,Jits_Linear_8,1,5,63,98,3083724288
61,16,18,Jits_Linear_8,2,1,48,55,3083863560
61,16,18,Jits_Linear_8,3,5,56,103,3083873772
61,16,18,Jits_Linear_8,0,5,63,98,3084353980
61,16,18,Jits_Linear_8,1,5,80,127,3084393848
61,16,18,Jits_Linear_8,2,5,56,103,3084474012
61,16,18,Jits_Linear_8,3,1,48,61,3084593876
61,16,18,Jits_Linear_8,0,5,56,103,3084973380
61,16,18,Jits_Linear_8,1,5,80,127,3085073876
61,16,18,Jits_Linear_8,2,5,63,98,3085094188
61,16,18,Jits_Linear_8,3,1,48,63,3085289256
61,16,18,Jits_Linear_8,0,5,80,127,3085663768
61,16,18,Jits_Linear_8,1,5,56,103,3085673888
61,16,18,Jits_Linear_8,2,5,63,98,3085763876
61,16,18,Jits_Linear_8,0,1,48,54,3086030008
61,16,18,Jits_Linear_8,1,5,56,103,3086294312
61,16,18,Jits_Linear_8,2,5,63,98,3086313948
61,16,18,Jits_Linear_8,3,5,80,127,3086393816
61,16,18,Jits_Linear_8,0,1,48,61,3086727036
61,16,18,Jits_Linear_8,1,5,63,98,3086863960
61,16,18,Jits_Linear_8,2,5,56,103,3086953872
61,16,18,Jits_Linear_8,3,5,80,127,3086956792
61,16,18,Jits_Linear_8,0,1,48,51,3087511428
61,16,18,Jits_Linear_8,1,5,56,103,3087513936
61,16,18,Jits_Linear_8,2,5,80,127,3087574652
61,16,18,Jits_Linear_8,3,5,63,98,3087583580
61,16,18,Jits_Linear_8,0,5,80,127,3088183644
61,16,18,Jits_Linear_8,1,5,56,103,3088193840
61,16,18,Jits_Linear_8,2,5,63,98,3088196908
61,16,18,Jits_Linear_8,3,1,48,43,3088272704
61,16,18,Jits_Linear_8,0,5,56,103,3088764388
61,16,18,Jits_Linear_8,1,5,80,127,3088773612
61,16,18,Jits_Linear_8,2,5,63,98,3088793996
61,16,18,Jits_Linear_8,3,1,48,50,3088938576
61,16,18,Jits_Linear_8,0,5,63,98,3089354056
61,16,18,Jits_Linear_8,1,5,80,127,3089413800
61,16,18,Jits_Linear_8,2,5,56,103,3089463776
61,16,18,Jits_Linear_8,3,1,48,60,3089563768
61,16,18,Jits_Linear_8,0,5,63,98,3090053728
61,16,18,Jits_Linear_8,1,5,56,103,3090063700
61,16,18,Jits_Linear_8,2,5,80,127,3090113904
61,16,18,Jits_Linear_8,0,1,48,51,3090357604
61,16,18,Jits_Linear_8,1,5,63,98,3090563608
61,16,18,Jits_Linear_8,2,5,80,127,3090583844
61,16,18,Jits_Linear_8,3,5,56,103,3090594188
61,16,18,Jits_Linear_8,0,1,48,50,3091063112
61,16,18,Jits_Linear_8,1,5,63,98,3091173804
61,16,18,Jits_Linear_8,2,5,80,127,3091177020
61,16,18,Jits_Linear_8,3,5,56,103,3091213668
61,16,18,Jits_Linear_8,0,1,48,55,3091807860
61,16,18,Jits_Linear_8,1,5,63,98,3091853672
61,16,18,Jits_Linear_8,2,5,80,127,3091884764
61,16,18,Jits_Linear_8,3,5,56,103,3091893616
61,16,18,Jits_Linear_8,0,5,56,103,3092413744
61,16,18,Jits_Linear_8,1,5,80,127,3092443592
61,16,18,Jits_Linear_8,2,5,63,98,3092474388
61,16,18,Jits_Linear_8,3,1,48,68,3092479452
61,16,18,Jits_Linear_8,0,5,63,98,3093114248
61,16,18,Jits_Linear_8,1,1,48,67,3093144644
61,16,18,Jits_Linear_8,2,5,56,103,3093154180
61,16,18,Jits_Linear_8,3,5,80,127,3093157248
61,16,18,Jits_Linear_8,0,5,80,127,3093613848
61,16,18,Jits_Linear_8,1,5,56,103,3093693796
61,16,18,Jits_Linear_8,2,5,63,98,3093743948
61,16,18,Jits_Linear_8,3,1,48,60,3093842440
61,16,18,Jits_Linear_8,0,5,80,127,3094193480
61,16,18,Jits_Linear_8,1,5,56,103,3094214088
61,16,18,Jits_Linear_8,2,5,63,98,3094304320
61,16,18,Jits_Linear_8,3,1,48,44,3094428724
61,16,18,Jits_Linear_8,0,5,80,127,3094833444
61,16,18,Jits_Linear_8,1,5,63,98,3094873684
61,16,18,Jits_Linear_8,2,5,56,103,3094914520
61,16,18,Jits_Linear_8,3,1,48,55,3095035504
61,16,18,Jits_Linear_8,0,5,63,98,3095404008
61,16,18,Jits_Linear_8,1,5,80,127,3095464700
61,16,18,Jits_Linear_8,2,5,56,103,3095494004
61,16,18,Jits_Linear_8,3,1,48,52,3095726832
61,16,18,Jits_Linear_8,0,5,56,103,3096004000
61,16,18,Jits_Linear_8,1,5,80,127,3096033632
61,16,18,Jits_Linear_8,2,5,63,98,3096123764
61,16,18,Jits_Linear_8,0,1,48,70,3096590768
61,16,18,Jits_Linear_8,1,5,56,103,3096603988
61,16,18,Jits_Linear_8,2,5,80,127,3096713516
61,16,18,Jits_Linear_8,3,5,63,98,3096744388
61,16,18,Jits_Linear_8,0,5,56,103,3097243928
61,16,18,Jits_Linear_8,1,5,63,98,3097304496
61,16,18,Jits_Linear_8,2,1,48,66,3097313164
61,16,18,Jits_Linear_8,3,5,80,127,3097334240
61,16,18,Jits_Linear_8,0,5,56,103,3097804080
61,16,18,Jits_Linear_8,1,5,63,98,3097873692
61,16,18,Jits_Linear_8,2,5,80,127,3097894520
61,16,18,Jits_Linear_8,3,1,48,56,3097931888
61,16,18,Jits_Linear_8,0,5,80,127,3098364308
61,16,18,Jits_Linear_8,1,5,63,98,3098383796
61,16,18,Jits_Linear_8,2,5,56,103,3098433776
61,16,18,Jits_Linear_8,3,1,48,51,3098542900
61,16,18,Jits_Linear_8,0,5,63,98,3098964760
61,16,18,Jits_Linear_8,1,5,80,127,3098973540
61,16,18,Jits_Linear_8,2,5,56,103,3099023664
61,16,18,Jits_Linear_8,3,1,48,55,3099114836
61,16,18,Jits_Linear_8,0,5,63,98,3099543852
61,16,18,Jits_Linear_8,1,5,80,127,3099613412
61,16,18,Jits_Linear_8,2,5,56,103,3099634020
61,16,18,Jits_Linear_8,3,1,48,57,3099699320
61,16,18,Jits_Linear_8,0,5,63,98,3100154592
61,16,18,Jits_Linear_8,1,5,80,127,3100157800
61,16,18,Jits_Linear_8,2,5,56,103,3100223820
61,16,18,Jits_Linear_8,3,1,48,57,3100300124
61,16,18,Jits_Linear_8,0,5,80,127,3100683628
61,16,18,Jits_Linear_8,1,5,56,103,3100704236
61,16,18,Jits_Linear_8,2,5,63,98,3100714584
61,16,18,Jits_Linear_8,3,1,48,58,3100961784
61,16,18,Jits_Linear_8,0,5,56,103,3101283632
61,16,18,Jits_Linear_8,1,5,63,98,3101373840
61,16,18,Jits_Linear_8,2,5,80,127,3101377204
61,16,18,Jits_Linear_8,3,1,48,59,3101613716
61,16,18,Jits_Linear_8,0,5,80,127,3101833440
61,16,18,Jits_Linear_8,1,5,56,103,3101843784
61,16,18,Jits_Linear_8,2,5,63,98,3101864244
61,16,18,Jits_Linear_8,0,1,48,59,3102269424
61,16,18,Jits_Linear_8,1,5,63,98,3102404008
61,16,18,Jits_Linear_8,2,5,80,127,3102464576
61,16,18,Jits_Linear_8,3,5,56,103,3102473652
61,16,18,Jits_Linear_8,0,1,48,61,3102897228
61,16,18,Jits_Linear_8,1,5,63,98,3103043892
61,16,18,Jits_Linear_8,2,5,80,127,3103073716
61,16,18,Jits_Linear_8,3,5,56,103,3103113652
61,16,18,Jits_Linear_8,0,1,48,50,3103593912
61,16,18,Jits_Linear_8,1,5,56,103,3103604048
61,16,18,Jits_Linear_8,2,5,80,127,3103614320
61,16,18,Jits_Linear_8,3,5,63,98,3103654480
61,16,18,Jits_Linear_8,0,5,80,127,3104133480
61,16,18,Jits_Linear_8,1,1,48,48,3104213144
61,16,18,Jits_Linear_8,2,5,56,103,3104214788
61,16,18,Jits_Linear_8,3,5,63,98,3104223568
61,16,18,Jits_Linear_8,0,5,80,127,3104744004
61,16,18,Jits_Linear_8,1,1,48,40,3104813436
61,16,18,Jits_Linear_8,2,5,56,103,3104823572
61,16,18,Jits_Linear_8,3,5,63,98,3104833768
61,16,18,Jits_Linear_8,0,5,80,127,3105264008
61,16,18,Jits_Linear_8,1,5,56,103,3105314360
61,16,18,Jits_Linear_8,2,5,63,98,3105364412
61,16,18,Jits_Linear_8,3,1,48,47,3105432792
61,16,18,Jits_Linear_8,0,5,56,103,3105883500
61,16,18,Jits_Linear_8,1,5,63,98,3105886640
61,16,18,Jits_Linear_8,2,5,80,127,3105933700
61,16,18,Jits_Linear_8,3,1,48,50,3105962744
61,16,18,Jits_Linear_8,0,5,56,103,3106464328
61,16,18,Jits_Linear_8,1,5,63,98,3106493708
61,16,18,Jits_Linear_8,2,5,80,127,3106503976
61,16,18,Jits_Linear_8,3,1,48,53,3106597464
61,16,18,Jits_Linear_8,0,5,63,98,3106934276
61,16,18,Jits_Linear_8,1,5,56,103,3107003736
61,16,18,Jits_Linear_8,2,5,80,127,3107053816
61,16,18,Jits_Linear_8,3,1,48,51,3107195976
61,16,18,Jits_Linear_8,0,5,63,98,3107524156
61,16,18,Jits_Linear_8,1,5,56,103,3107534376
61,16,18,Jits_Linear_8,2,5,80,127,3107537516
61,16,18,Jits_Linear_8,3,1,48,49,3107717660
61,16,18,Jits_Linear_8,0,5,80,127,3108023744
61,16,18,Jits_Linear_8,1,5,56,103,3108084164
61,16,18,Jits_Linear_8,2,5,63,98,3108174372
61,16,18,Jits_Linear_8,3,1,48,48,3108222448
61,16,18,Jits_Linear_8,0,5,80,127,3108573512
61,16,18,Jits_Linear_8,1,5,56,103,3108673988
61,16,18,Jits_Linear_8,2,5,63,98,3108713928
61,16,18,Jits_Linear_8,3,1,48,52,3108764696
61,16,18,Jits_Linear_8,0,5,56,103,3109173752
61,16,18,Jits_Linear_8,1,5,63,98,3109194212
61,16,18,Jits_Linear_8,2,5,80,127,3109234300
61,16,18,Jits_Linear_8,3,1,48,40,3109256452
61,16,18,Jits_Linear_8,0,5,63,98,3109693972
61,16,18,Jits_Linear_8,1,5,56,103,3109714212
61,16,18,Jits_Linear_8,2,1,48,41,3109765652
61,16,18,Jits_Linear_8,3,5,80,127,3109813476
61,16,18,Jits_Linear_8,0,5,63,98,3110224368
61,16,18,Jits_Linear_8,1,1,48,45,3110322272
61,16,18,Jits_Linear_8,2,5,80,127,3110333976
61,16,18,Jits_Linear_8,3,5,56,103,3110363604
61,16,18,Jits_Linear_8,0,5,56,103,3110784512
61,16,18,Jits_Linear_8,1,5,63,98,3110814188
61,16,18,Jits_Linear_8,2,5,80,127,3110864416
61,16,18,Jits_Linear_8,3,1,48,54,3110892116
61,16,18,Jits_Linear_8,0,5,63,98,3111294316
61,16,18,Jits_Linear_8,1,5,56,103,3111324144
61,16,18,Jits_Linear_8,2,5,80,127,3111374220
61,16,18,Jits_Linear_8,3,1,48,32,3111434356
61,16,18,Jits_Linear_8,0,5,56,103,3111863520
61,16,18,Jits_Linear_8,1,5,63,98,3111884304
61,16,18,Jits_Linear_8,2,5,80,127,3111964172
61,16,18,Jits_Linear_8,3,1,48,35,3111985648
61,16,18,Jits_Linear_8,0,5,63,98,3112373476
61,16,18,Jits_Linear_8,1,5,56,103,3112434192
61,16,18,Jits_Linear_8,2,5,80,127,3112463720
61,16,18,Jits_Linear_8,3,1,48,45,3112558756
61,16,18,Jits_Linear_8,0,5,56,103,3112954244
61,16,18,Jits_Linear_8,1,5,80,127,3113013736
61,16,18,Jits_Linear_8,2,5,63,98,3113053676
61,16,18,Jits_Linear_8,3,1,48,35,3113190160
61,16,18,Jits_Linear_8,0,5,63,98,3113464056
61,16,18,Jits_Linear_8,1,5,56,103,3113523476
61,16,18,Jits_Linear_8,2,5,80,127,3113594276
61,16,18,Jits_Linear_8,3,1,48,50,3113745376
61,16,18,Jits_Linear_8,0,5,56,103,3114073424
61,16,18,Jits_Linear_8,1,5,63,98,3114083692
61,16,18,Jits_Linear_8,2,5,80,127,3114087132
61,16,18,Jits_Linear_8,0,1,48,55,3114342624
61,16,18,Jits_Linear_8,1,5,63,98,3114543380
61,16,18,Jits_Linear_8,2,5,56,103,3114604140
61,16,18,Jits_Linear_8,3,5,80,127,3114606984
61,16,18,Jits_Linear_8,0,1,48,49,3114944784
61,16,18,Jits_Linear_8,1,5,63,98,3115053384
61,16,18,Jits_Linear_8,2,5,80,127,3115084108
61,16,18,Jits_Linear_8,3,5,56,103,3115103520
61,16,18,Jits_Linear_8,0,5,56,103,3115583796
61,16,18,Jits_Linear_8,1,1,48,45,3115616736
61,16,18,Jits_Linear_8,2,5,63,98,3115634144
61,16,18,Jits_Linear_8,3,5,80,127,3115713996
61,16,18,Jits_Linear_8,0,5,80,127,3116083568
61,16,18,Jits_Linear_8,1,1,48,32,3116099488
61,16,18,Jits_Linear_8,2,5,63,98,3116123500
61,16,18,Jits_Linear_8,3,5,56,103,3116144032
61,16,18,Jits_Linear_8,0,1,48,46,3116671692
61,16,18,Jits_Linear_8,1,5,56,103,3116674352
61,16,18,Jits_Linear_8,2,5,80,127,3116683576
61,16,18,Jits_Linear_8,3,5,63,98,3116704036
61,16,18,Jits_Linear_8,0,1,48,39,3117173288
61,16,18,Jits_Linear_8,1,5,56,103,3117175008
61,16,18,Jits_Linear_8,2,5,63,98,3117224240
61,16,18,Jits_Linear_8,3,5,80,127,3117254064
61,16,18,Jits_Linear_8,0,5,56,103,3117644204
61,16,18,Jits_Linear_8,1,5,63,98,3117654400
61,16,18,Jits_Linear_8,2,5,80,127,3117703484
61,16,18,Jits_Linear_8,3,1,48,47,3117728776
61,16,18,Jits_Linear_8,0,5,56,103,3118154080
61,16,18,Jits_Linear_8,1,5,80,127,3118157220
61,16,18,Jits_Linear_8,2,1,48,39,3118188436
61,16,18,Jits_Linear_8,3,5,63,98,3118314112
61,16,18,Jits_Linear_8,0,1,48,39,3118661140
61,16,18,Jits_Linear_8,1,5,63,98,3118683428
61,16,18,Jits_Linear_8,2,5,56,103,3118754088
61,16,18,Jits_Linear_8,3,5,80,127,3118794084
61,16,18,Jits_Linear_8,0,1,48,54,3119220532
61,16,18,Jits_Linear_8,1,5,63,98,3119234504
61,16,18,Jits_Linear_8,2,5,56,103,3119323456
61,16,18,Jits_Linear_8,3,5,80,127,3119326448
61,16,18,Jits_Linear_8,0,5,56,103,3119724004
61,16,18,Jits_Linear_8,1,1,48,43,3119756188
61,16,18,Jits_Linear_8,2,5,63,98,3119814132
61,16,18,Jits_Linear_8,3,5,80,127,3119824280
61,16,18,Jits_Linear_8,0,5,56,103,3120204220
61,16,18,Jits_Linear_8,1,1,48,44,3120252532
61,16,18,Jits_Linear_8,2,5,63,98,3120254344
61,16,18,Jits_Linear_8,3,5,80,127,3120283868
61,16,18,Jits_Linear_8,0,1,48,43,3120761408
61,16,18,Jits_Linear_8,1,5,63,98,3120783772
61,16,18,Jits_Linear_8,2,5,80,127,3120793972
61,16,18,Jits_Linear_8,3,5,56,103,3120854296
61,16,18,Jits_Linear_8,0,5,63,98,3121203672
61,16,18,Jits_Linear_8,1,5,80,127,3121263920
61,16,18,Jits_Linear_8,2,1,48,46,3121297228
61,16,18,Jits_Linear_8,3,5,56,103,3121304148
61,16,18,Jits_Linear_8,0,1,48,46,3121762740
61,16,18,Jits_Linear_8,1,5,56,103,3121803592
61,16,18,Jits_Linear_8,2,5,80,127,3121823980
61,16,18,Jits_Linear_8,3,5,63,98,3121843688
61,16,18,Jits_Linear_8,0,5,63,98,3122223420
61,16,18,Jits_Linear_8,1,5,56,103,3122244100
61,16,18,Jits_Linear_8,2,5,80,127,3122283892
61,16,18,Jits_Linear_8,3,1,48,54,3122329476
61,16,18,Jits_Linear_8,0,5,63,98,3122733360
61,16,18,Jits_Linear_8,1,5,80,127,3122764228
61,16,18,Jits_Linear_8,2,5,56,103,3122783568
61,16,18,Jits_Linear_8,3,1,48,48,3122845868
61,16,18,Jits_Linear_8,0,5,80,127,3123203292
61,16,18,Jits_Linear_8,1,5,56,103,3123253572
61,16,18,Jits_Linear_8,2,5,63,98,3123314108
61,16,18,Jits_Linear_8,3,1,48,64,3123361964
61,16,18,Jits_Linear_8,0,5,63,98,3123683872
61,16,18,Jits_Linear_8,1,5,56,103,3123803456
61,16,18,Jits_Linear_8,2,1,48,57,3123819832
61,16,18,Jits_Linear_8,3,5,80,127,3123834096
61,16,18,Jits_Linear_8,0,5,80,127,3124214128
61,16,18,Jits_Linear_8,1,5,63,98,3124233764
61,16,18,Jits_Linear_8,2,5,56,103,3124304192
61,16,18,Jits_Linear_8,3,1,48,51,3124331744
61,16,18,Jits_Linear_8,0,5,63,98,3124724012
61,16,18,Jits_Linear_8,1,5,56,103,3124734280
61,16,18,Jits_Linear_8,2,1,48,53,3124802888
61,16,18,Jits_Linear_8,3,5,80,127,3124814144
61,16,18,Jits_Linear_8,0,5,56,103,3125273820
61,16,18,Jits_Linear_8,1,5,80,127,3125303940
61,16,18,Jits_Linear_8,2,5,63,98,3125313988
61,16,18,Jits_Linear_8,3,1,48,55,3125325352
61,16,18,Jits_Linear_8,0,9999,9999,9999,3014901824
61,16,18,Jits_Linear_8,1,9999,9999,9999,3015722060
61,16,18,Jits_Linear_8,2,9999,9999,9999,3016541248
61,16,18,Jits_Linear_8,3,9999,9999,9999,3017361472
61,16,18,Jits_Linear_8,4,9999,9999,9999,3018181688
61,16,18,Jits_Linear_8,5,9999,9999,9999,3018991736
61,16,18,Jits_Linear_8,6,9999,9999,9999,3019801692
61,16,18,Jits_Linear_8,7,9999,9999,9999,3020611652
61,16,18,Jits_Linear_8,8,9999,9999,9999,3021421692
61,16,18,Jits_Linear_8,9,9999,9999,9999,3022231624
61,16,18,Jits_Linear_8,10,9999,9999,9999,3023031400
61,16,18,Jits_Linear_8,11,9999,9999,9999,3023831108
61,16,18,Jits_Linear_8,12,9999,9999,9999,3024631912
61,16,18,Jits_Linear_8,13,9999,9999,9999,3025431676
61,16,18,Jits_Linear_8,14,9999,9999,9999,3026231420
61,16,18,Jits_Linear_8,15,9999,9999,9999,3027021892
61,16,18,Jits_Linear_8,16,9999,9999,9999,3027811444
61,16,18,Jits_Linear_8,17,9999,9999,9999,3028601976
61,16,18,Jits_Linear_8,18,9999,9999,9999,3029391472
61,16,18,Jits_Linear_8,19,9999,9999,9999,3030181952
61,16,18,Jits_Linear_8,20,9999,9999,9999,3030961256
61,16,18,Jits_Linear_8,21,9999,9999,9999,3031741528
61,16,18,Jits_Linear_8,22,9999,9999,9999,3032521808
61,16,18,Jits_Linear_8,23,9999,9999,9999,3033302100
61,16,18,Jits_Linear_8,24,9999,9999,9999,3034091588
61,16,18,Jits_Linear_8,25,9999,9999,9999,3034861676
61,16,18,Jits_Linear_8,26,9999,9999,9999,3035631700
61,16,18,Jits_Linear_8,27,9999,9999,9999,3036401788
61,16,18,Jits_Linear_8,28,9999,9999,9999,3037171812
61,16,18,Jits_Linear_8,29,9999,9999,9999,3037941848
61,16,18,Jits_Linear_8,30,9999,9999,9999,3038701668
61,16,18,Jits_Linear_8,31,9999,9999,9999,3039461492
61,16,18,Jits_Linear_8,32,9999,9999,9999,3040221260
61,16,18,Jits_Linear_8,33,9999,9999,9999,3040982136
61,16,18,Jits_Linear_8,34,9999,9999,9999,3041751116
61,16,18,Jits_Linear_8,35,9999,9999,9999,3042501720
61,16,18,Jits_Linear_8,36,9999,9999,9999,3043251280
61,16,18,Jits_Linear_8,37,9999,9999,9999,3044001900
61,16,18,Jits_Linear_8,38,9999,9999,9999,3044751468
61,16,18,Jits_Linear_8,39,9999,9999,9999,3045502016
61,16,18,Jits_Linear_8,40,9999,9999,9999,3046241408
61,16,18,Jits_Linear_8,41,9999,9999,9999,3046981692
61,16,18,Jits_Linear_8,42,9999,9999,9999,3047722104
61,16,18,Jits_Linear_8,43,9999,9999,9999,3048461408
61,16,18,Jits_Linear_8,44,9999,9999,9999,3049201732
61,16,18,Jits_Linear_8,45,9999,9999,9999,3049931868
61,16,18,Jits_Linear_8,46,9999,9999,9999,3050661956
61,16,18,Jits_Linear_8,47,9999,9999,9999,3051392120
61,16,18,Jits_Linear_8,48,9999,9999,9999,3052131432
61,16,18,Jits_Linear_8,49,9999,9999,9999,3052861524
61,16,18,Jits_Linear_8,50,9999,9999,9999,3053581412
61,16,18,Jits_Linear_8,51,9999,9999,9999,3054301244
61,16,18,Jits_Linear_8,52,9999,9999,9999,3055021128
61,16,18,Jits_Linear_8,53,9999,9999,9999,3055742012
61,16,18,Jits_Linear_8,54,9999,9999,9999,3056461916
61,16,18,Jits_Linear_8,55,9999,9999,9999,3057171556
61,16,18,Jits_Linear_8,56,9999,9999,9999,3057881184
61,16,18,Jits_Linear_8,57,9999,9999,9999,3058591852
61,16,18,Jits_Linear_8,58,9999,9999,9999,3059301496
61,16,18,Jits_Linear_8,59,9999,9999,9999,3060011136
61,16,18,Jits_Linear_8,60,9999,9999,9999,3060711488
61,16,18,Jits_Linear_8,61,9999,9999,9999,3061411968
61,16,18,Jits_Linear_8,62,9999,9999,9999,3062111344
61,16,18,Jits_Linear_8,63,9999,9999,9999,3062811748
61,16,18,Jits_Linear_8,64,9999,9999,9999,3063511132
61,16,18,Jits_Linear_8,65,9999,9999,9999,3064201336
61,16,18,Jits_Linear_8,66,9999,9999,9999,3064891476
61,16,18,Jits_Linear_8,67,9999,9999,9999,3065581628
61,16,18,Jits_Linear_8,68,9999,9999,9999,3066271832
61,16,18,Jits_Linear_8,69,9999,9999,9999,3066961996
61,16,18,Jits_Linear_8,70,9999,9999,9999,3067641964
61,16,18,Jits_Linear_8,71,9999,9999,9999,3068321912
61,16,18,Jits_Linear_8,72,9999,9999,9999,3069001808
61,16,18,Jits_Linear_8,73,9999,9999,9999,3069681784
61,16,18,Jits_Linear_8,74,9999,9999,9999,3070361664
61,16,18,Jits_Linear_8,75,9999,9999,9999,3071031384
61,16,18,Jits_Linear_8,76,9999,9999,9999,3071702136
61,16,18,Jits_Linear_8,77,9999,9999,9999,3072382016
61,16,18,Jits_Linear_8,78,9999,9999,9999,3073051700
61,16,18,Jits_Linear_8,79,9999,9999,9999,3073721460
61,16,18,Jits_Linear_8,80,9999,9999,9999,3074381940
61,16,18,Jits_Linear_8,81,9999,9999,9999,3075041372
61,16,18,Jits_Linear_8,82,9999,9999,9999,3075701828
61,16,18,Jits_Linear_8,83,9999,9999,9999,3076361304
61,16,18,Jits_Linear_8,84,9999,9999,9999,3077021764
61,16,18,Jits_Linear_8,85,9999,9999,9999,3077672000
61,16,18,Jits_Linear_8,86,9999,9999,9999,3078321232
61,16,18,Jits_Linear_8,87,9999,9999,9999,3078971512
61,16,18,Jits_Linear_8,88,9999,9999,9999,3079621700
61,16,18,Jits_Linear_8,89,9999,9999,9999,3080271996
61,16,18,Jits_Linear_8,90,9999,9999,9999,3080911960
61,16,18,Jits_Linear_8,91,9999,9999,9999,3081551968
61,16,18,Jits_Linear_8,92,9999,9999,9999,3082191940
61,16,18,Jits_Linear_8,93,9999,9999,9999,3082831936
61,16,18,Jits_Linear_8,94,9999,9999,9999,3083471960
61,16,18,Jits_Linear_8,95,9999,9999,9999,3084101712
61,16,18,Jits_Linear_8,96,9999,9999,9999,3084731464
61,16,18,Jits_Linear_8,97,9999,9999,9999,3085361240
61,16,18,Jits_Linear_8,98,9999,9999,9999,3085992052
61,16,18,Jits_Linear_8,99,9999,9999,9999,3086621772
61,16,18,Jits_Linear_8,100,9999,9999,9999,3087241312
61,16,18,Jits_Linear_8,101,9999,9999,9999,3087861860
61,16,18,Jits_Linear_8,102,9999,9999,9999,3088481404
61,16,18,Jits_Linear_8,103,9999,9999,9999,3089101888
61,16,18,Jits_Linear_8,104,9999,9999,9999,3089721452
61,16,18,Jits_Linear_8,105,9999,9999,9999,3090331744
61,16,18,Jits_Linear_8,106,9999,9999,9999,3090942028
61,16,18,Jits_Linear_8,107,9999,9999,9999,3091551296
61,16,18,Jits_Linear_8,108,9999,9999,9999,3092161636
61,16,18,Jits_Linear_8,109,9999,9999,9999,3092771916
61,16,18,Jits_Linear_8,110,9999,9999,9999,3093372004
61,16,18,Jits_Linear_8,111,9999,9999,9999,3093972028
61,16,18,Jits_Linear_8,112,9999,9999,9999,3094571136
61,16,18,Jits_Linear_8,113,9999,9999,9999,3095171144
61,16,18,Jits_Linear_8,114,9999,9999,9999,3095771196
61,16,18,Jits_Linear_8,115,9999,9999,9999,3096362056
61,16,18,Jits_Linear_8,116,9999,9999,9999,3096951892
61,16,18,Jits_Linear_8,117,9999,9999,9999,3097541700
61,16,18,Jits_Linear_8,118,9999,9999,9999,3098131520
61,16,18,Jits_Linear_8,119,9999,9999,9999,3098721340
61,16,18,Jits_Linear_8,120,9999,9999,9999,3099302012
61,16,18,Jits_Linear_8,121,9999,9999,9999,3099881580
61,16,18,Jits_Linear_8,122,9999,9999,9999,3100461116
61,16,18,Jits_Linear_8,123,9999,9999,9999,3101041720
61,16,18,Jits_Linear_8,124,9999,9999,9999,3101621344
61,16,18,Jits_Linear_8,125,9999,9999,9999,3102191708
61,16,18,Jits_Linear_8,126,9999,9999,9999,3102762060
61,16,18,Jits_Linear_8,127,9999,9999,9999,3103331420
61,16,18,Jits_Linear_8,128,9999,9999,9999,3103901748
61,16,18,Jits_Linear_8,129,9999,9999,9999,3104471132
61,16,18,Jits_Linear_8,130,9999,9999,9999,3105031292
61,16,18,Jits_Linear_8,131,9999,9999,9999,3105591372
61,16,18,Jits_Linear_8,132,9999,9999,9999,3106151520
61,16,18,Jits_Linear_8,133,9999,9999,9999,3106711608
61,16,18,Jits_Linear_8,134,9999,9999,9999,3107271776
61,16,18,Jits_Linear_8,135,9999,9999,9999,3107821640
61,16,18,Jits_Linear_8,136,9999,9999,9999,3108371516
61,16,18,Jits_Linear_8,137,9999,9999,9999,3108921408
61,16,18,Jits_Linear_8,138,9999,9999,9999,3109471300
61,16,18,Jits_Linear_8,139,9999,9999,9999,3110021192
61,16,18,Jits_Linear_8,140,9999,9999,9999,3110561852
61,16,18,Jits_Linear_8,141,9999,9999,9999,3111101536
61,16,18,Jits_Linear_8,142,9999,9999,9999,3111641184
61,16,18,Jits_Linear_8,143,9999,9999,9999,3112181844
61,16,18,Jits_Linear_8,144,9999,9999,9999,3112721468
61,16,18,Jits_Linear_8,145,9999,9999,9999,3113251956
61,16,18,Jits_Linear_8,146,9999,9999,9999,3113781328
61,16,18,Jits_Linear_8,147,9999,9999,9999,3114311796
61,16,18,Jits_Linear_8,148,9999,9999,9999,3114841164
61,16,18,Jits_Linear_8,149,9999,9999,9999,3115371628
61,16,18,Jits_Linear_8,150,9999,9999,9999,3115891836
61,16,18,Jits_Linear_8,151,9999,9999,9999,3116411976
61,16,18,Jits_Linear_8,152,9999,9999,9999,3116931152
61,16,18,Jits_Linear_8,153,9999,9999,9999,3117451364
61,16,18,Jits_Linear_8,154,9999,9999,9999,3117971568
61,16,18,Jits_Linear_8,155,9999,9999,9999,3118481516
61,16,18,Jits_Linear_8,156,9999,9999,9999,3118991472
61,16,18,Jits_Linear_8,157,9999,9999,9999,3119501416
61,16,18,Jits_Linear_8,158,9999,9999,9999,3120011368
61,16,18,Jits_Linear_8,159,9999,9999,9999,3120521320
61,16,18,Jits_Linear_8,160,9999,9999,9999,3121022072
61,16,18,Jits_Linear_8,161,9999,9999,9999,3121521748
61,16,18,Jits_Linear_8,162,9999,9999,9999,3122021436
61,16,18,Jits_Linear_8,163,9999,9999,9999,3122521188
61,16,18,Jits_Linear_8,164,9999,9999,9999,3123021912
61,16,18,Jits_Linear_8,165,9999,9999,9999,3123511404
61,16,18,Jits_Linear_8,166,9999,9999,9999,3124001880
61,16,18,Jits_Linear_8,167,9999,9999,9999,3124491372
61,16,18,Jits_Linear_8,168,9999,9999,9999,3124981852
61,16,18,Jits_Linear_8,169,9999,9999,9999,3125471356
61,17,16,Jits_ISO_5,0,5,56,103,3136059844
61,17,16,Jits_ISO_5,1,5,63,98,3136063092
61,17,16,Jits_ISO_5,2,5,80,127,3136066284
61,17,16,Jits_ISO_5,0,5,56,103,3136559488
61,17,16,Jits_ISO_5,1,5,63,98,3136562736
61,17,16,Jits_ISO_5,2,5,80,127,3136565708
61,17,16,Jits_ISO_5,0,5,56,103,3137060124
61,17,16,Jits_ISO_5,1,5,80,127,3137069496
61,17,16,Jits_ISO_5,2,5,63,98,3137089880
61,17,16,Jits_ISO_5,0,5,63,98,3137509744
61,17,16,Jits_ISO_5,1,5,80,127,3137539716
61,17,16,Jits_ISO_5,2,5,56,103,3137549912
61,17,16,Jits_ISO_5,0,1,48,64,3138021872
61,17,16,Jits_ISO_5,1,5,80,127,3138069848
61,17,16,Jits_ISO_5,2,5,56,103,3138079972
61,17,16,Jits_ISO_5,3,5,63,98,3138109868
61,17,16,Jits_ISO_5,0,1,48,59,3138554424
61,17,16,Jits_ISO_5,1,5,63,98,3138560300
61,17,16,Jits_ISO_5,2,5,56,103,3138590048
61,17,16,Jits_ISO_5,3,5,80,127,3138600244
61,17,16,Jits_ISO_5,0,5,56,103,3139009976
61,17,16,Jits_ISO_5,1,5,63,98,3139060200
61,17,16,Jits_ISO_5,2,1,48,61,3139064736
61,17,16,Jits_ISO_5,3,5,80,127,3139079528
61,17,16,Jits_ISO_5,0,5,80,127,3139509724
61,17,16,Jits_ISO_5,1,1,48,62,3139513372
61,17,16,Jits_ISO_5,2,5,63,98,3139559720
61,17,16,Jits_ISO_5,3,5,56,103,3139599580
61,17,16,Jits_ISO_5,0,5,56,103,3140010520
61,17,16,Jits_ISO_5,1,1,48,61,3140033416
61,17,16,Jits_ISO_5,2,5,63,98,3140040040
61,17,16,Jits_ISO_5,3,5,80,127,3140109644
61,17,16,Jits_ISO_5,0,1,48,43,3140509040
61,17,16,Jits_ISO_5,1,5,56,103,3140510608
61,17,16,Jits_ISO_5,2,5,80,127,3140569456
61,17,16,Jits_ISO_5,3,5,63,98,3140600100
61,17,16,Jits_ISO_5,0,5,56,103,3141020236
61,17,16,Jits_ISO_5,1,1,48,56,3141030804
61,17,16,Jits_ISO_5,2,5,63,98,3141032000
61,17,16,Jits_ISO_5,3,5,80,127,3141070164
61,17,16,Jits_ISO_5,0,5,63,98,3141509424
61,17,16,Jits_ISO_5,1,1,48,51,3141512988
61,17,16,Jits_ISO_5,2,5,80,127,3141590428
61,17,16,Jits_ISO_5,3,5,56,103,3141599504
61,17,16,Jits_ISO_5,0,1,48,49,3142051824
61,17,16,Jits_ISO_5,1,5,63,98,3142060616
61,17,16,Jits_ISO_5,2,5,56,103,3142100428
61,17,16,Jits_ISO_5,3,5,80,127,3142103496
61,17,16,Jits_ISO_5,0,5,56,103,3142520572
61,17,16,Jits_ISO_5,1,5,63,98,3142530692
61,17,16,Jits_ISO_5,2,1,48,53,3142554188
61,17,16,Jits_ISO_5,3,5,80,127,3142570696
61,17,16,Jits_ISO_5,0,5,56,103,3143009680
61,17,16,Jits_ISO_5,1,5,63,98,3143012896
61,17,16,Jits_ISO_5,2,5,80,127,3143029988
61,17,16,Jits_ISO_5,3,1,48,49,3143056476
61,17,16,Jits_ISO_5,0,5,80,127,3143519608
61,17,16,Jits_ISO_5,1,5,56,103,3143529804
61,17,16,Jits_ISO_5,2,1,48,50,3143532920
61,17,16,Jits_ISO_5,3,5,63,98,3143599324
61,17,16,Jits_ISO_5,0,5,63,98,3144020552
61,17,16,Jits_ISO_5,1,5,56,103,3144039892
61,17,16,Jits_ISO_5,2,1,48,46,3144060468
61,17,16,Jits_ISO_5,3,5,80,127,3144119524
61,17,16,Jits_ISO_5,0,1,48,46,3144520036
61,17,16,Jits_ISO_5,1,5,56,103,3144530544
61,17,16,Jits_ISO_5,2,5,80,127,3144570480
61,17,16,Jits_ISO_5,3,5,63,98,3144579480
61,17,16,Jits_ISO_5,0,5,80,127,3145019724
61,17,16,Jits_ISO_5,1,1,48,47,3145035948
61,17,16,Jits_ISO_5,2,5,63,98,3145049540
61,17,16,Jits_ISO_5,3,5,56,103,3145090524
61,17,16,Jits_ISO_5,0,1,48,57,3145506020
61,17,16,Jits_ISO_5,1,5,56,103,3145540068
61,17,16,Jits_ISO_5,2,5,63,98,3145569744
61,17,16,Jits_ISO_5,3,5,80,127,3145619704
61,17,16,Jits_ISO_5,0,5,80,127,3146039664
61,17,16,Jits_ISO_5,1,1,48,86,3146053416
61,17,16,Jits_ISO_5,2,5,56,103,3146079596
61,17,16,Jits_ISO_5,3,5,63,98,3146089792
61,17,16,Jits_ISO_5,0,5,80,127,3146519784
61,17,16,Jits_ISO_5,1,1,48,54,3146529124
61,17,16,Jits_ISO_5,2,5,63,98,3146559864
61,17,16,Jits_ISO_5,3,5,56,103,3146620756
61,17,16,Jits_ISO_5,0,5,56,103,3147019680
61,17,16,Jits_ISO_5,1,5,80,127,3147029876
61,17,16,Jits_ISO_5,2,1,48,49,3147057576
61,17,16,Jits_ISO_5,3,5,63,98,3147109736
61,17,16,Jits_ISO_5,0,5,80,127,3147520472
61,17,16,Jits_ISO_5,1,1,48,51,3147551388
61,17,16,Jits_ISO_5,2,5,63,98,3147579736
61,17,16,Jits_ISO_5,3,5,56,103,3147609332
61,17,16,Jits_ISO_5,0,5,56,103,3148020296
61,17,16,Jits_ISO_5,1,1,48,53,3148076676
61,17,16,Jits_ISO_5,2,5,80,127,3148079336
61,17,16,Jits_ISO_5,3,5,63,98,3148120540
61,17,16,Jits_ISO_5,0,5,56,103,3148569872
61,17,16,Jits_ISO_5,1,5,63,98,3148580516
61,17,16,Jits_ISO_5,2,5,80,127,3148583876
61,17,16,Jits_ISO_5,3,1,48,54,3148587908
61,17,16,Jits_ISO_5,0,5,80,127,3149019488
61,17,16,Jits_ISO_5,1,1,48,54,3149090860
61,17,16,Jits_ISO_5,2,5,63,98,3149109612
61,17,16,Jits_ISO_5,3,5,56,103,3149120032
61,17,16,Jits_ISO_5,0,5,56,103,3149520416
61,17,16,Jits_ISO_5,1,5,63,98,3149523592
61,17,16,Jits_ISO_5,2,5,80,127,3149526636
61,17,16,Jits_ISO_5,3,1,48,64,3149572088
61,17,16,Jits_ISO_5,0,5,80,127,3150040460
61,17,16,Jits_ISO_5,1,1,48,45,3150041500
61,17,16,Jits_ISO_5,2,5,63,98,3150089532
61,17,16,Jits_ISO_5,3,5,56,103,3150120252
61,17,16,Jits_ISO_5,0,5,56,103,3150519656
61,17,16,Jits_ISO_5,1,5,80,127,3150529852
61,17,16,Jits_ISO_5,2,1,48,64,3150562664
61,17,16,Jits_ISO_5,3,5,63,98,3150599548
61,17,16,Jits_ISO_5,0,5,56,103,3151029516
61,17,16,Jits_ISO_5,1,1,48,54,3151047012
61,17,16,Jits_ISO_5,2,5,63,98,3151050216
61,17,16,Jits_ISO_5,3,5,80,127,3151109632
61,17,16,Jits_ISO_5,0,5,80,127,3151530460
61,17,16,Jits_ISO_5,1,1,48,61,3151537560
61,17,16,Jits_ISO_5,2,5,63,98,3151599860
61,17,16,Jits_ISO_5,3,5,56,103,3151619568
61,17,16,Jits_ISO_5,0,5,80,127,3152049616
61,17,16,Jits_ISO_5,1,1,48,61,3152055948
61,17,16,Jits_ISO_5,2,5,56,103,3152059656
61,17,16,Jits_ISO_5,3,5,63,98,3152070148
61,17,16,Jits_ISO_5,0,5,80,127,3152540216
61,17,16,Jits_ISO_5,1,1,48,57,3152555468
61,17,16,Jits_ISO_5,2,5,56,103,3152559548
61,17,16,Jits_ISO_5,3,5,63,98,3152630220
61,17,16,Jits_ISO_5,0,5,56,103,3153050004
61,17,16,Jits_ISO_5,1,1,48,51,3153060020
61,17,16,Jits_ISO_5,2,5,80,127,3153079596
61,17,16,Jits_ISO_5,3,5,63,98,3153100376
61,17,16,Jits_ISO_5,0,5,63,98,3153539336
61,17,16,Jits_ISO_5,1,1,48,41,3153555712
61,17,16,Jits_ISO_5,2,5,56,103,3153599944
61,17,16,Jits_ISO_5,3,5,80,127,3153629492
61,17,16,Jits_ISO_5,0,5,63,98,3154029932
61,17,16,Jits_ISO_5,1,5,80,127,3154033368
61,17,16,Jits_ISO_5,2,1,48,83,3154049760
61,17,16,Jits_ISO_5,3,5,56,103,3154119976
61,17,16,Jits_ISO_5,0,1,48,39,3154535460
61,17,16,Jits_ISO_5,1,5,56,103,3154550248
61,17,16,Jits_ISO_5,2,5,63,98,3154579700
61,17,16,Jits_ISO_5,3,5,80,127,3154619708
61,17,16,Jits_ISO_5,0,1,48,58,3155008228
61,17,16,Jits_ISO_5,1,5,63,98,3155049756
61,17,16,Jits_ISO_5,2,5,56,103,3155089768
61,17,16,Jits_ISO_5,3,5,80,127,3155110212
61,17,16,Jits_ISO_5,0,1,48,64,3155512976
61,17,16,Jits_ISO_5,1,5,63,98,3155570168
61,17,16,Jits_ISO_5,2,5,56,103,3155610460
61,17,16,Jits_ISO_5,3,5,80,127,3155620060
61,17,16,Jits_ISO_5,0,5,80,127,3156050356
61,17,16,Jits_ISO_5,1,1,48,80,3156068692
61,17,16,Jits_ISO_5,2,5,63,98,3156120028
61,17,16,Jits_ISO_5,3,5,56,103,3156140264
61,17,16,Jits_ISO_5,0,5,56,103,3156539620
61,17,16,Jits_ISO_5,1,5,80,127,3156560228
61,17,16,Jits_ISO_5,2,1,48,52,3156585440
61,17,16,Jits_ISO_5,3,5,63,98,3156600380
61,17,16,Jits_ISO_5,0,5,63,98,3157049852
61,17,16,Jits_ISO_5,1,5,80,127,3157070088
61,17,16,Jits_ISO_5,2,1,48,49,3157071052
61,17,16,Jits_ISO_5,3,5,56,103,3157110240
61,17,16,Jits_ISO_5,0,1,48,53,3157548300
61,17,16,Jits_ISO_5,1,5,63,98,3157549800
61,17,16,Jits_ISO_5,2,5,56,103,3157570036
61,17,16,Jits_ISO_5,3,5,80,127,3157580080
61,17,16,Jits_ISO_5,0,5,80,127,3158050212
61,17,16,Jits_ISO_5,1,5,56,103,3158069552
61,17,16,Jits_ISO_5,2,1,48,67,3158081960
61,17,16,Jits_ISO_5,3,5,63,98,3158100340
61,17,16,Jits_ISO_5,0,1,48,47,3158560944
61,17,16,Jits_ISO_5,1,5,56,103,3158619556
61,17,16,Jits_ISO_5,2,5,80,127,3158622472
61,17,16,Jits_ISO_5,3,5,63,98,3158640088
61,17,16,Jits_ISO_5,0,5,63,98,3159040252
61,17,16,Jits_ISO_5,1,1,48,51,3159067484
61,17,16,Jits_ISO_5,2,5,56,103,3159070144
61,17,16,Jits_ISO_5,3,5,80,127,3159129336
61,17,16,Jits_ISO_5,0,1,48,54,3159552388
61,17,16,Jits_ISO_5,1,5,63,98,3159620064
61,17,16,Jits_ISO_5,2,5,56,103,3159630260
61,17,16,Jits_ISO_5,3,5,80,127,3159640380
61,17,16,Jits_ISO_5,0,1,48,72,3160058128
61,17,16,Jits_ISO_5,1,5,56,103,3160069384
61,17,16,Jits_ISO_5,2,5,80,127,3160100256
61,17,16,Jits_ISO_5,3,5,63,98,3160109480
61,17,16,Jits_ISO_5,0,1,48,55,3160560928
61,17,16,Jits_ISO_5,1,5,63,98,3160610324
61,17,16,Jits_ISO_5,2,5,56,103,3160620592
61,17,16,Jits_ISO_5,3,5,80,127,3160639856
61,17,16,Jits_ISO_5,0,5,56,103,3161040244
61,17,16,Jits_ISO_5,1,1,48,70,3161065760
61,17,16,Jits_ISO_5,2,5,63,98,3161099500
61,17,16,Jits_ISO_5,3,5,80,127,3161103164
61,17,16,Jits_ISO_5,0,5,80,127,3161560360
61,17,16,Jits_ISO_5,1,1,48,48,3161565944
61,17,16,Jits_ISO_5,2,5,56,103,3161569652
61,17,16,Jits_ISO_5,3,5,63,98,3161640376
61,17,16,Jits_ISO_5,0,5,80,127,3162050120
61,17,16,Jits_ISO_5,1,1,48,64,3162079568
61,17,16,Jits_ISO_5,2,5,56,103,3162119520
61,17,16,Jits_ISO_5,3,5,63,98,3162130016
61,17,16,Jits_ISO_5,0,1,48,49,3162536276
61,17,16,Jits_ISO_5,1,5,63,98,3162589604
61,17,16,Jits_ISO_5,2,5,56,103,3162600020
61,17,16,Jits_ISO_5,3,5,80,127,3162620256
61,17,16,Jits_ISO_5,0,5,80,127,3163050288
61,17,16,Jits_ISO_5,1,1,48,59,3163062020
61,17,16,Jits_ISO_5,2,5,63,98,3163110020
61,17,16,Jits_ISO_5,3,5,56,103,3163149584
61,17,16,Jits_ISO_5,0,1,48,50,3163533816
61,17,16,Jits_ISO_5,1,5,56,103,3163589964
61,17,16,Jits_ISO_5,2,5,63,98,3163600332
61,17,16,Jits_ISO_5,3,5,80,127,3163640252
61,17,16,Jits_ISO_5,0,5,56,103,3164050072
61,17,16,Jits_ISO_5,1,5,80,127,3164079448
61,17,16,Jits_ISO_5,2,1,48,66,3164083688
61,17,16,Jits_ISO_5,3,5,63,98,3164129592
61,17,16,Jits_ISO_5,0,1,48,48,3164526032
61,17,16,Jits_ISO_5,1,5,56,103,3164589448
61,17,16,Jits_ISO_5,2,5,63,98,3164630440
61,17,16,Jits_ISO_5,3,5,80,127,3164633804
61,17,16,Jits_ISO_5,0,1,48,48,3165032736
61,17,16,Jits_ISO_5,1,5,56,103,3165090296
61,17,16,Jits_ISO_5,2,5,63,98,3165100492
61,17,16,Jits_ISO_5,3,5,80,127,3165120052
61,17,16,Jits_ISO_5,0,5,56,103,3165550180
61,17,16,Jits_ISO_5,1,1,48,46,3165552140
61,17,16,Jits_ISO_5,2,5,80,127,3165554288
61,17,16,Jits_ISO_5,3,5,63,98,3165589960
61,17,16,Jits_ISO_5,0,1,48,59,3166068772
61,17,16,Jits_ISO_5,1,5,63,98,3166089544
61,17,16,Jits_ISO_5,2,5,56,103,3166120192
61,17,16,Jits_ISO_5,3,5,80,127,3166139976
61,17,16,Jits_ISO_5,0,5,80,127,3166559920
61,17,16,Jits_ISO_5,1,5,56,103,3166569816
61,17,16,Jits_ISO_5,2,5,63,98,3166580012
61,17,16,Jits_ISO_5,3,1,48,49,3166582024
61,17,16,Jits_ISO_5,0,5,56,103,3167069484
61,17,16,Jits_ISO_5,1,1,48,44,3167094620
61,17,16,Jits_ISO_5,2,5,80,127,3167109412
61,17,16,Jits_ISO_5,3,5,63,98,3167140132
61,17,16,Jits_ISO_5,0,1,48,47,3167555780
61,17,16,Jits_ISO_5,1,5,63,98,3167579636
61,17,16,Jits_ISO_5,2,5,80,127,3167589760
61,17,16,Jits_ISO_5,3,5,56,103,3167599880
61,17,16,Jits_ISO_5,0,1,48,78,3168054392
61,17,16,Jits_ISO_5,1,5,56,103,3168059964
61,17,16,Jits_ISO_5,2,5,63,98,3168130396
61,17,16,Jits_ISO_5,3,5,80,127,3168139764
61,17,16,Jits_ISO_5,0,5,80,127,3168559332
61,17,16,Jits_ISO_5,1,5,56,103,3168569900
61,17,16,Jits_ISO_5,2,1,48,54,3168585752
61,17,16,Jits_ISO_5,3,5,63,98,3168620016
61,17,16,Jits_ISO_5,0,1,48,50,3169069196
61,17,16,Jits_ISO_5,1,5,80,127,3169070756
61,17,16,Jits_ISO_5,2,5,56,103,3169130024
61,17,16,Jits_ISO_5,3,5,63,98,3169160356
61,17,16,Jits_ISO_5,0,5,56,103,3169570348
61,17,16,Jits_ISO_5,1,5,80,127,3169573492
61,17,16,Jits_ISO_5,2,1,48,56,3169598872
61,17,16,Jits_ISO_5,3,5,63,98,3169610204
61,17,16,Jits_ISO_5,0,1,48,65,3170093504
61,17,16,Jits_ISO_5,1,5,56,103,3170099676
61,17,16,Jits_ISO_5,2,5,63,98,3170130252
61,17,16,Jits_ISO_5,3,5,80,127,3170139400
61,17,16,Jits_ISO_5,0,5,63,98,3170609392
61,17,16,Jits_ISO_5,1,5,80,127,3170620032
61,17,16,Jits_ISO_5,2,5,56,103,3170629932
61,17,16,Jits_ISO_5,3,1,48,37,3170636416
61,17,16,Jits_ISO_5,0,5,80,127,3171060128
61,17,16,Jits_ISO_5,1,1,48,54,3171099888
61,17,16,Jits_ISO_5,2,5,56,103,3171110320
61,17,16,Jits_ISO_5,3,5,63,98,3171113388
61,17,16,Jits_ISO_5,0,1,48,55,3171566868
61,17,16,Jits_ISO_5,1,5,56,103,3171589532
61,17,16,Jits_ISO_5,2,5,80,127,3171609916
61,17,16,Jits_ISO_5,3,5,63,98,3171620184
61,17,16,Jits_ISO_5,0,5,63,98,3172069940
61,17,16,Jits_ISO_5,1,1,48,72,3172082648
61,17,16,Jits_ISO_5,2,5,56,103,3172099460
61,17,16,Jits_ISO_5,3,5,80,127,3172119920
61,17,16,Jits_ISO_5,0,5,56,103,3172579864
61,17,16,Jits_ISO_5,1,1,48,45,3172584328
61,17,16,Jits_ISO_5,2,5,80,127,3172589904
61,17,16,Jits_ISO_5,3,5,63,98,3172659508
61,17,16,Jits_ISO_5,0,1,48,48,3173061732
61,17,16,Jits_ISO_5,1,5,63,98,3173070096
61,17,16,Jits_ISO_5,2,5,80,127,3173110108
61,17,16,Jits_ISO_5,3,5,56,103,3173150044
61,17,16,Jits_ISO_5,0,1,48,52,3173547608
61,17,16,Jits_ISO_5,1,5,56,103,3173580092
61,17,16,Jits_ISO_5,2,5,63,98,3173590288
61,17,16,Jits_ISO_5,3,5,80,127,3173609920
61,17,16,Jits_ISO_5,0,1,48,90,3174090660
61,17,16,Jits_ISO_5,1,5,63,98,3174119908
61,17,16,Jits_ISO_5,2,5,80,127,3174140216
61,17,16,Jits_ISO_5,3,5,56,103,3174159776
61,17,16,Jits_ISO_5,0,5,56,103,3174570332
61,17,16,Jits_ISO_5,1,1,48,59,3174607480
61,17,16,Jits_ISO_5,2,5,80,127,3174650144
61,17,16,Jits_ISO_5,3,5,63,98,3174659368
61,17,16,Jits_ISO_5,0,1,48,54,3175092376
61,17,16,Jits_ISO_5,1,5,80,127,3175109932
61,17,16,Jits_ISO_5,2,5,63,98,3175120352
61,17,16,Jits_ISO_5,3,5,56,103,3175150024
61,17,16,Jits_ISO_5,0,5,63,98,3175569864
61,17,16,Jits_ISO_5,1,1,48,51,3175599288
61,17,16,Jits_ISO_5,2,5,80,127,3175609796
61,17,16,Jits_ISO_5,3,5,56,103,3175670136
61,17,16,Jits_ISO_5,0,5,63,98,3176079644
61,17,16,Jits_ISO_5,1,1,48,67,3176123140
61,17,16,Jits_ISO_5,2,5,56,103,3176129836
61,17,16,Jits_ISO_5,3,5,80,127,3176159684
61,17,16,Jits_ISO_5,0,5,80,127,3176589640
61,17,16,Jits_ISO_5,1,5,63,98,3176599912
61,17,16,Jits_ISO_5,2,1,48,55,3176606616
61,17,16,Jits_ISO_5,3,5,56,103,3176669680
61,17,16,Jits_ISO_5,0,1,48,64,3177104784
61,17,16,Jits_ISO_5,1,5,80,127,3177160352
61,17,16,Jits_ISO_5,2,5,56,103,3177170324
61,17,16,Jits_ISO_5,3,5,63,98,3177173392
61,17,16,Jits_ISO_5,0,5,56,103,3177600580
61,17,16,Jits_ISO_5,1,5,80,127,3177619696
61,17,16,Jits_ISO_5,2,1,48,43,3177622140
61,17,16,Jits_ISO_5,3,5,63,98,3177630032
61,17,16,Jits_ISO_5,0,5,63,98,3178110296
61,17,16,Jits_ISO_5,1,1,48,87,3178144276
61,17,16,Jits_ISO_5,2,5,56,103,3178150228
61,17,16,Jits_ISO_5,3,5,80,127,3178169788
61,17,16,Jits_ISO_5,0,5,63,98,3178620152
61,17,16,Jits_ISO_5,1,1,48,60,3178621116
61,17,16,Jits_ISO_5,2,5,56,103,3178679708
61,17,16,Jits_ISO_5,3,5,80,127,3178682700
61,17,16,Jits_ISO_5,0,5,56,103,3179079948
61,17,16,Jits_ISO_5,1,5,80,127,3179099512
61,17,16,Jits_ISO_5,2,5,63,98,3179139744
61,17,16,Jits_ISO_5,3,1,48,51,3179145104
61,17,16,Jits_ISO_5,0,5,56,103,3179609588
61,17,16,Jits_ISO_5,1,5,63,98,3179629896
61,17,16,Jits_ISO_5,2,1,48,44,3179630788
61,17,16,Jits_ISO_5,3,5,80,127,3179640160
61,17,16,Jits_ISO_5,0,5,80,127,3180079744
61,17,16,Jits_ISO_5,1,5,56,103,3180110168
61,17,16,Jits_ISO_5,2,5,63,98,3180150100
61,17,16,Jits_ISO_5,3,1,48,62,3180157856
61,17,16,Jits_ISO_5,0,5,80,127,3180589532
61,17,16,Jits_ISO_5,1,5,56,103,3180609916
61,17,16,Jits_ISO_5,2,1,48,48,3180665544
61,17,16,Jits_ISO_5,3,5,63,98,3180670296
61,17,16,Jits_ISO_5,0,5,56,103,3181100664
61,17,16,Jits_ISO_5,1,1,48,57,3181107000
61,17,16,Jits_ISO_5,2,5,80,127,3181119772
61,17,16,Jits_ISO_5,3,5,63,98,3181180160
61,17,16,Jits_ISO_5,0,5,80,127,3181579816
61,17,16,Jits_ISO_5,1,5,56,103,3181589936
61,17,16,Jits_ISO_5,2,1,48,61,3181621824
61,17,16,Jits_ISO_5,3,5,63,98,3181629792
61,17,16,Jits_ISO_5,0,5,63,98,3182080312
61,17,16,Jits_ISO_5,1,5,56,103,3182120168
61,17,16,Jits_ISO_5,2,5,80,127,3182123240
61,17,16,Jits_ISO_5,3,1,48,69,3182129296
61,17,16,Jits_ISO_5,0,5,63,98,3182599664
61,17,16,Jits_ISO_5,1,1,48,43,3182605404
61,17,16,Jits_ISO_5,2,5,80,127,3182639820
61,17,16,Jits_ISO_5,3,5,56,103,3182670092
61,17,16,Jits_ISO_5,0,5,56,103,3183090108
61,17,16,Jits_ISO_5,1,1,48,50,3183099172
61,17,16,Jits_ISO_5,2,5,63,98,3183100816
61,17,16,Jits_ISO_5,3,5,80,127,3183129972
61,17,16,Jits_ISO_5,0,5,80,127,3183579668
61,17,16,Jits_ISO_5,1,1,48,60,3183618676
61,17,16,Jits_ISO_5,2,5,63,98,3183650016
61,17,16,Jits_ISO_5,3,5,56,103,3183660580
61,17,16,Jits_ISO_5,0,5,63,98,3184080168
61,17,16,Jits_ISO_5,1,1,48,72,3184128244
61,17,16,Jits_ISO_5,2,5,56,103,3184149912
61,17,16,Jits_ISO_5,3,5,80,127,3184160556
61,17,16,Jits_ISO_5,0,5,63,98,3184579872
61,17,16,Jits_ISO_5,1,5,56,103,3184600652
61,17,16,Jits_ISO_5,2,1,48,58,3184604072
61,17,16,Jits_ISO_5,3,5,80,127,3184640508
61,17,16,Jits_ISO_5,0,1,48,60,3185089268
61,17,16,Jits_ISO_5,1,5,56,103,3185090836
61,17,16,Jits_ISO_5,2,5,63,98,3185100084
61,17,16,Jits_ISO_5,3,5,80,127,3185180096
61,17,16,Jits_ISO_5,0,5,63,98,3185580388
61,17,16,Jits_ISO_5,1,1,48,49,3185581352
61,17,16,Jits_ISO_5,2,5,56,103,3185610080
61,17,16,Jits_ISO_5,3,5,80,127,3185650016
61,17,16,Jits_ISO_5,0,1,48,87,3186082860
61,17,16,Jits_ISO_5,1,5,56,103,3186090452
61,17,16,Jits_ISO_5,2,5,63,98,3186130340
61,17,16,Jits_ISO_5,3,5,80,127,3186170496
61,17,16,Jits_ISO_5,0,5,80,127,3186589968
61,17,16,Jits_ISO_5,1,1,48,53,3186595700
61,17,16,Jits_ISO_5,2,5,56,103,3186669928
61,17,16,Jits_ISO_5,3,5,63,98,3186680124
61,17,16,Jits_ISO_5,0,1,48,50,3187118008
61,17,16,Jits_ISO_5,1,5,56,103,3187129640
61,17,16,Jits_ISO_5,2,5,63,98,3187132784
61,17,16,Jits_ISO_5,3,5,80,127,3187139836
61,17,16,Jits_ISO_5,0,1,48,54,3187597116
61,17,16,Jits_ISO_5,1,5,56,103,3187649972
61,17,16,Jits_ISO_5,2,5,63,98,3187670680
61,17,16,Jits_ISO_5,3,5,80,127,3187679604
61,17,16,Jits_ISO_5,0,5,63,98,3188109640
61,17,16,Jits_ISO_5,1,1,48,91,3188112536
61,17,16,Jits_ISO_5,2,5,80,127,3188119976
61,17,16,Jits_ISO_5,3,5,56,103,3188140360
61,17,16,Jits_ISO_5,0,1,48,57,3188592704
61,17,16,Jits_ISO_5,1,5,63,98,3188610556
61,17,16,Jits_ISO_5,2,5,56,103,3188690372
61,17,16,Jits_ISO_5,3,5,80,127,3188694324
61,17,16,Jits_ISO_5,0,5,63,98,3189110072
61,17,16,Jits_ISO_5,1,1,48,55,3189123676
61,17,16,Jits_ISO_5,2,5,56,103,3189129700
61,17,16,Jits_ISO_5,3,5,80,127,3189160420
61,17,16,Jits_ISO_5,0,1,48,54,3189605344
61,17,16,Jits_ISO_5,1,5,56,103,3189609728
61,17,16,Jits_ISO_5,2,5,63,98,3189630408
61,17,16,Jits_ISO_5,3,5,80,127,3189639708
61,17,16,Jits_ISO_5,0,1,48,68,3190102984
61,17,16,Jits_ISO_5,1,5,56,103,3190149544
61,17,16,Jits_ISO_5,2,5,63,98,3190180484
61,17,16,Jits_ISO_5,3,5,80,127,3190183700
61,17,16,Jits_ISO_5,0,5,56,103,3190599980
61,17,16,Jits_ISO_5,1,5,63,98,3190639920
61,17,16,Jits_ISO_5,2,1,48,51,3190648212
61,17,16,Jits_ISO_5,3,5,80,127,3190700372
61,17,16,Jits_ISO_5,0,1,48,62,3191100524
61,17,16,Jits_ISO_5,1,5,56,103,3191120400
61,17,16,Jits_ISO_5,2,5,63,98,3191129324
61,17,16,Jits_ISO_5,3,5,80,127,3191189860
61,17,16,Jits_ISO_5,0,5,56,103,3191619920
61,17,16,Jits_ISO_5,1,1,48,57,3191622888
61,17,16,Jits_ISO_5,2,5,80,127,3191640368
61,17,16,Jits_ISO_5,3,5,63,98,3191670416
61,17,16,Jits_ISO_5,0,5,80,127,3192119592
61,17,16,Jits_ISO_5,1,5,56,103,3192129864
61,17,16,Jits_ISO_5,2,5,63,98,3192150320
61,17,16,Jits_ISO_5,3,1,48,95,3192151288
61,17,16,Jits_ISO_5,0,5,63,98,3192610348
61,17,16,Jits_ISO_5,1,1,48,44,3192635416
61,17,16,Jits_ISO_5,2,5,80,127,3192690284
61,17,16,Jits_ISO_5,3,5,56,103,3192700404
61,17,16,Jits_ISO_5,0,1,48,48,3193161448
61,17,16,Jits_ISO_5,1,5,80,127,3193170464
61,17,16,Jits_ISO_5,2,5,56,103,3193189724
61,17,16,Jits_ISO_5,3,5,63,98,3193192792
61,17,16,Jits_ISO_5,0,1,48,49,3193620652
61,17,16,Jits_ISO_5,1,5,63,98,3193640452
61,17,16,Jits_ISO_5,2,5,80,127,3193643668
61,17,16,Jits_ISO_5,3,5,56,103,3193699572
61,17,16,Jits_ISO_5,0,5,56,103,3194119512
61,17,16,Jits_ISO_5,1,5,80,127,3194129708
61,17,16,Jits_ISO_5,2,5,63,98,3194169568
61,17,16,Jits_ISO_5,3,1,48,73,3194174108
61,17,16,Jits_ISO_5,0,5,56,103,3194599780
61,17,16,Jits_ISO_5,1,5,63,98,3194660172
61,17,16,Jits_ISO_5,2,5,80,127,3194669392
61,17,16,Jits_ISO_5,3,1,48,49,3194680828
61,17,16,Jits_ISO_5,0,5,63,98,3195109720
61,17,16,Jits_ISO_5,1,5,80,127,3195149660
61,17,16,Jits_ISO_5,2,1,48,47,3195183492
61,17,16,Jits_ISO_5,3,5,56,103,3195189588
61,17,16,Jits_ISO_5,0,5,56,103,3195609456
61,17,16,Jits_ISO_5,1,1,48,37,3195639772
61,17,16,Jits_ISO_5,2,5,63,98,3195690512
61,17,16,Jits_ISO_5,3,5,80,127,3195693728
61,17,16,Jits_ISO_5,0,9999,9999,9999,3136307272
61,17,16,Jits_ISO_5,1,9999,9999,9999,3136808036
61,17,16,Jits_ISO_5,2,9999,9999,9999,3137307704
61,17,16,Jits_ISO_5,3,9999,9999,9999,3137807444
61,17,16,Jits_ISO_5,4,9999,9999,9999,3138307152
61,17,16,Jits_ISO_5,5,9999,9999,9999,3138807868
61,17,16,Jits_ISO_5,6,9999,9999,9999,3139307604
61,17,16,Jits_ISO_5,7,9999,9999,9999,3139807352
61,17,16,Jits_ISO_5,8,9999,9999,9999,3140308048
61,17,16,Jits_ISO_5,9,9999,9999,9999,3140807772
61,17,16,Jits_ISO_5,10,9999,9999,9999,3141307500
61,17,16,Jits_ISO_5,11,9999,9999,9999,3141807176
61,17,16,Jits_ISO_5,12,9999,9999,9999,3142307952
61,17,16,Jits_ISO_5,13,9999,9999,9999,3142807612
61,17,16,Jits_ISO_5,14,9999,9999,9999,3143307344
61,17,16,Jits_ISO_5,15,9999,9999,9999,3143808064
61,17,16,Jits_ISO_5,16,9999,9999,9999,3144318008
61,17,16,Jits_ISO_5,17,9999,9999,9999,3144817740
61,17,16,Jits_ISO_5,18,9999,9999,9999,3145317472
61,17,16,Jits_ISO_5,19,9999,9999,9999,3145817152
61,17,16,Jits_ISO_5,20,9999,9999,9999,3146317936
61,17,16,Jits_ISO_5,21,9999,9999,9999,3146817612
61,17,16,Jits_ISO_5,22,9999,9999,9999,3147317356
61,17,16,Jits_ISO_5,23,9999,9999,9999,3147818076
61,17,16,Jits_ISO_5,24,9999,9999,9999,3148317752
61,17,16,Jits_ISO_5,25,9999,9999,9999,3148817492
61,17,16,Jits_ISO_5,26,9999,9999,9999,3149317172
61,17,16,Jits_ISO_5,27,9999,9999,9999,3149817936
61,17,16,Jits_ISO_5,28,9999,9999,9999,3150317688
61,17,16,Jits_ISO_5,29,9999,9999,9999,3150817356
61,17,16,Jits_ISO_5,30,9999,9999,9999,3151318076
61,17,16,Jits_ISO_5,31,9999,9999,9999,3151828088
61,17,16,Jits_ISO_5,32,9999,9999,9999,3152327736
61,17,16,Jits_ISO_5,33,9999,9999,9999,3152827480
61,17,16,Jits_ISO_5,34,9999,9999,9999,3153327228
61,17,16,Jits_ISO_5,35,9999,9999,9999,3153827952
61,17,16,Jits_ISO_5,36,9999,9999,9999,3154327672
61,17,16,Jits_ISO_5,37,9999,9999,9999,3154827332
61,17,16,Jits_ISO_5,38,9999,9999,9999,3155328112
61,17,16,Jits_ISO_5,39,9999,9999,9999,3155838036
61,17,16,Jits_ISO_5,40,9999,9999,9999,3156337772
61,17,16,Jits_ISO_5,41,9999,9999,9999,3156837444
61,17,16,Jits_ISO_5,42,9999,9999,9999,3157337192
61,17,16,Jits_ISO_5,43,9999,9999,9999,3157837892
61,17,16,Jits_ISO_5,44,9999,9999,9999,3158337628
61,17,16,Jits_ISO_5,45,9999,9999,9999,3158837300
61,17,16,Jits_ISO_5,46,9999,9999,9999,3159338080
61,17,16,Jits_ISO_5,47,9999,9999,9999,3159837816
61,17,16,Jits_ISO_5,48,9999,9999,9999,3160337476
61,17,16,Jits_ISO_5,49,9999,9999,9999,3160837216
61,17,16,Jits_ISO_5,50,9999,9999,9999,3161337912
61,17,16,Jits_ISO_5,51,9999,9999,9999,3161837664
61,17,16,Jits_ISO_5,52,9999,9999,9999,3162337340
61,17,16,Jits_ISO_5,53,9999,9999,9999,3162838068
61,17,16,Jits_ISO_5,54,9999,9999,9999,3163348068
61,17,16,Jits_ISO_5,55,9999,9999,9999,3163847792
61,17,16,Jits_ISO_5,56,9999,9999,9999,3164347452
61,17,16,Jits_ISO_5,57,9999,9999,9999,3164847196
61,17,16,Jits_ISO_5,58,9999,9999,9999,3165347904
61,17,16,Jits_ISO_5,59,9999,9999,9999,3165847624
61,17,16,Jits_ISO_5,60,9999,9999,9999,3166347376
61,17,16,Jits_ISO_5,61,9999,9999,9999,3166848080
61,17,16,Jits_ISO_5,62,9999,9999,9999,3167358020
61,17,16,Jits_ISO_5,63,9999,9999,9999,3167857764
61,17,16,Jits_ISO_5,64,9999,9999,9999,3168357428
61,17,16,Jits_ISO_5,65,9999,9999,9999,3168857156
61,17,16,Jits_ISO_5,66,9999,9999,9999,3169357880
61,17,16,Jits_ISO_5,67,9999,9999,9999,3169857604
61,17,16,Jits_ISO_5,68,9999,9999,9999,3170357360
61,17,16,Jits_ISO_5,69,9999,9999,9999,3170858072
61,17,16,Jits_ISO_5,70,9999,9999,9999,3171357796
61,17,16,Jits_ISO_5,71,9999,9999,9999,3171857472
61,17,16,Jits_ISO_5,72,9999,9999,9999,3172357208
61,17,16,Jits_ISO_5,73,9999,9999,9999,3172857916
61,17,16,Jits_ISO_5,74,9999,9999,9999,3173357664
61,17,16,Jits_ISO_5,75,9999,9999,9999,3173857396
61,17,16,Jits_ISO_5,76,9999,9999,9999,3174358108
61,17,16,Jits_ISO_5,77,9999,9999,9999,3174868036
61,17,16,Jits_ISO_5,78,9999,9999,9999,3175367760
61,17,16,Jits_ISO_5,79,9999,9999,9999,3175867468
61,17,16,Jits_ISO_5,80,9999,9999,9999,3176367208
61,17,16,Jits_ISO_5,81,9999,9999,9999,3176867912
61,17,16,Jits_ISO_5,82,9999,9999,9999,3177367660
61,17,16,Jits_ISO_5,83,9999,9999,9999,3177867320
61,17,16,Jits_ISO_5,84,9999,9999,9999,3178368120
61,17,16,Jits_ISO_5,85,9999,9999,9999,3178878040
61,17,16,Jits_ISO_5,86,9999,9999,9999,3179377772
61,17,16,Jits_ISO_5,87,9999,9999,9999,3179877448
61,17,16,Jits_ISO_5,88,9999,9999,9999,3180377196
61,17,16,Jits_ISO_5,89,9999,9999,9999,3180877920
61,17,16,Jits_ISO_5,90,9999,9999,9999,3181377596
61,17,16,Jits_ISO_5,91,9999,9999,9999,3181877344
61,17,16,Jits_ISO_5,92,9999,9999,9999,3182378052
61,17,16,Jits_ISO_5,93,9999,9999,9999,3182877788
61,17,16,Jits_ISO_5,94,9999,9999,9999,3183377520
61,17,16,Jits_ISO_5,95,9999,9999,9999,3183877196
61,17,16,Jits_ISO_5,96,9999,9999,9999,3184377916
61,17,16,Jits_ISO_5,97,9999,9999,9999,3184877648
61,17,16,Jits_ISO_5,98,9999,9999,9999,3185377384
61,17,16,Jits_ISO_5,99,9999,9999,9999,3185878088
61,17,16,Jits_ISO_5,100,9999,9999,9999,3186388084
61,17,16,Jits_ISO_5,101,9999,9999,9999,3186887748
61,17,16,Jits_ISO_5,102,9999,9999,9999,3187387460
61,17,16,Jits_ISO_5,103,9999,9999,9999,3187887200
61,17,16,Jits_ISO_5,104,9999,9999,9999,3188387908
61,17,16,Jits_ISO_5,105,9999,9999,9999,3188887636
61,17,16,Jits_ISO_5,106,9999,9999,9999,3189387372
61,17,16,Jits_ISO_5,107,9999,9999,9999,3189888080
61,17,16,Jits_ISO_5,108,9999,9999,9999,3190398072
61,17,16,Jits_ISO_5,109,9999,9999,9999,3190897732
61,17,16,Jits_ISO_5,110,9999,9999,9999,3191397484
61,17,16,Jits_ISO_5,111,9999,9999,9999,3191897144
61,17,16,Jits_ISO_5,112,9999,9999,9999,3192397936
61,17,16,Jits_ISO_5,113,9999,9999,9999,3192897616
61,17,16,Jits_ISO_5,114,9999,9999,9999,3193397348
61,17,16,Jits_ISO_5,115,9999,9999,9999,3193898052
61,17,16,Jits_ISO_5,116,9999,9999,9999,3194397780
61,17,16,Jits_ISO_5,117,9999,9999,9999,3194897456
61,17,16,Jits_ISO_5,118,9999,9999,9999,3195397212
61,17,16,Jits_ISO_5,119,9999,9999,9999,3195897912
61,18,7,Jits_ISO_8,0,5,56,103,3207908688
61,18,7,Jits_ISO_8,1,5,63,98,3207911708
61,18,7,Jits_ISO_8,2,5,80,127,3207914980
61,18,7,Jits_ISO_8,0,5,56,103,3208708464
61,18,7,Jits_ISO_8,1,5,63,98,3208711488
61,18,7,Jits_ISO_8,2,5,80,127,3208714536
61,18,7,Jits_ISO_8,0,5,80,127,3209448912
61,18,7,Jits_ISO_8,1,5,63,98,3209539048
61,18,7,Jits_ISO_8,2,5,56,103,3209549096
61,18,7,Jits_ISO_8,0,5,56,103,3210269012
61,18,7,Jits_ISO_8,1,5,63,98,3210279356
61,18,7,Jits_ISO_8,2,5,80,127,3210369416
61,18,7,Jits_ISO_8,0,5,63,98,3211038984
61,18,7,Jits_ISO_8,1,5,80,127,3211069032
61,18,7,Jits_ISO_8,2,1,48,66,3211096896
61,18,7,Jits_ISO_8,3,5,56,103,3211098332
61,18,7,Jits_ISO_8,0,5,56,103,3211838840
61,18,7,Jits_ISO_8,1,1,48,59,3211841432
61,18,7,Jits_ISO_8,2,5,80,127,3211939068
61,18,7,Jits_ISO_8,3,5,63,98,3211989296
61,18,7,Jits_ISO_8,0,1,48,53,3212636048
61,18,7,Jits_ISO_8,1,5,56,103,3212638708
61,18,7,Jits_ISO_8,2,5,80,127,3212688908
61,18,7,Jits_ISO_8,3,5,63,98,3212728776
61,18,7,Jits_ISO_8,0,1,48,56,3213442356
61,18,7,Jits_ISO_8,1,5,80,127,3213468908
61,18,7,Jits_ISO_8,2,5,63,98,3213498956
61,18,7,Jits_ISO_8,3,5,56,103,3213569248
61,18,7,Jits_ISO_8,0,1,48,58,3214250980
61,18,7,Jits_ISO_8,1,5,63,98,3214298612
61,18,7,Jits_ISO_8,2,5,56,103,3214329184
61,18,7,Jits_ISO_8,3,5,80,127,3214388812
61,18,7,Jits_ISO_8,0,5,56,103,3215038816
61,18,7,Jits_ISO_8,1,5,80,127,3215042032
61,18,7,Jits_ISO_8,2,1,48,57,3215050352
61,18,7,Jits_ISO_8,3,5,63,98,3215158840
61,18,7,Jits_ISO_8,0,1,48,55,3215871860
61,18,7,Jits_ISO_8,1,5,56,103,3215918416
61,18,7,Jits_ISO_8,2,5,80,127,3215959404
61,18,7,Jits_ISO_8,3,5,63,98,3215968612
61,18,7,Jits_ISO_8,0,5,56,103,3216679252
61,18,7,Jits_ISO_8,1,1,48,61,3216696924
61,18,7,Jits_ISO_8,2,5,80,127,3216698884
61,18,7,Jits_ISO_8,3,5,63,98,3216778828
61,18,7,Jits_ISO_8,0,5,80,127,3217468788
61,18,7,Jits_ISO_8,1,1,48,63,3217518436
61,18,7,Jits_ISO_8,2,5,56,103,3217569256
61,18,7,Jits_ISO_8,3,5,63,98,3217579304
61,18,7,Jits_ISO_8,0,5,63,98,3218238848
61,18,7,Jits_ISO_8,1,5,80,127,3218299168
61,18,7,Jits_ISO_8,2,5,56,103,3218308316
61,18,7,Jits_ISO_8,3,1,48,68,3218337888
61,18,7,Jits_ISO_8,0,5,56,103,3219038552
61,18,7,Jits_ISO_8,1,1,48,66,3219102956
61,18,7,Jits_ISO_8,2,5,63,98,3219109276
61,18,7,Jits_ISO_8,3,5,80,127,3219112788
61,18,7,Jits_ISO_8,0,5,63,98,3219868912
61,18,7,Jits_ISO_8,1,1,48,66,3219873004
61,18,7,Jits_ISO_8,2,5,56,103,3219919204
61,18,7,Jits_ISO_8,3,5,80,127,3219922420
61,18,7,Jits_ISO_8,0,5,56,103,3220628892
61,18,7,Jits_ISO_8,1,5,80,127,3220631812
61,18,7,Jits_ISO_8,2,1,48,67,3220662284
61,18,7,Jits_ISO_8,3,5,63,98,3220719044
61,18,7,Jits_ISO_8,0,1,48,60,3221415976
61,18,7,Jits_ISO_8,1,5,63,98,3221468480
61,18,7,Jits_ISO_8,2,5,56,103,3221558752
61,18,7,Jits_ISO_8,3,5,80,127,3221589472
61,18,7,Jits_ISO_8,0,1,48,62,3222204904
61,18,7,Jits_ISO_8,1,5,56,103,3222259128
61,18,7,Jits_ISO_8,2,5,63,98,3222359664
61,18,7,Jits_ISO_8,3,5,80,127,3222389116
61,18,7,Jits_ISO_8,0,1,48,68,3222984716
61,18,7,Jits_ISO_8,1,5,63,98,3223079432
61,18,7,Jits_ISO_8,2,5,56,103,3223088580
61,18,7,Jits_ISO_8,3,5,80,127,3223178712
61,18,7,Jits_ISO_8,0,1,48,72,3223786688
61,18,7,Jits_ISO_8,1,5,63,98,3223898776
61,18,7,Jits_ISO_8,2,5,56,103,3223979324
61,18,7,Jits_ISO_8,3,5,80,127,3223982688
61,18,7,Jits_ISO_8,0,1,48,59,3224585704
61,18,7,Jits_ISO_8,1,5,80,127,3224659164
61,18,7,Jits_ISO_8,2,5,63,98,3224678724
61,18,7,Jits_ISO_8,3,5,56,103,3224739100
61,18,7,Jits_ISO_8,0,1,48,70,3225377032
61,18,7,Jits_ISO_8,1,5,56,103,3225499088
61,18,7,Jits_ISO_8,2,5,63,98,3225518728
61,18,7,Jits_ISO_8,3,5,80,127,3225522012
61,18,7,Jits_ISO_8,0,1,48,51,3226222500
61,18,7,Jits_ISO_8,1,5,63,98,3226239688
61,18,7,Jits_ISO_8,2,5,80,127,3226319420
61,18,7,Jits_ISO_8,3,5,56,103,3226328720
61,18,7,Jits_ISO_8,0,1,48,56,3227034568
61,18,7,Jits_ISO_8,1,5,63,98,3227058580
61,18,7,Jits_ISO_8,2,5,56,103,3227079064
61,18,7,Jits_ISO_8,3,5,80,127,3227129176
61,18,7,Jits_ISO_8,0,1,48,58,3227828816
61,18,7,Jits_ISO_8,1,5,80,127,3227859580
61,18,7,Jits_ISO_8,2,5,63,98,3227899372
61,18,7,Jits_ISO_8,3,5,56,103,3227918636
61,18,7,Jits_ISO_8,0,1,48,57,3228663752
61,18,7,Jits_ISO_8,1,5,56,103,3228698924
61,18,7,Jits_ISO_8,2,5,63,98,3228709120
61,18,7,Jits_ISO_8,3,5,80,127,3228728684
61,18,7,Jits_ISO_8,0,5,56,103,3229429484
61,18,7,Jits_ISO_8,1,1,48,61,3229488504
61,18,7,Jits_ISO_8,2,5,63,98,3229519316
61,18,7,Jits_ISO_8,3,5,80,127,3229578584
61,18,7,Jits_ISO_8,0,5,80,127,3230258584
61,18,7,Jits_ISO_8,1,5,56,103,3230268856
61,18,7,Jits_ISO_8,2,1,48,72,3230318952
61,18,7,Jits_ISO_8,3,5,63,98,3230338676
61,18,7,Jits_ISO_8,0,1,48,42,3231087360
61,18,7,Jits_ISO_8,1,5,63,98,3231088944
61,18,7,Jits_ISO_8,2,5,80,127,3231179400
61,18,7,Jits_ISO_8,3,5,56,103,3231189436
61,18,7,Jits_ISO_8,0,5,63,98,3231829472
61,18,7,Jits_ISO_8,1,1,48,65,3231871404
61,18,7,Jits_ISO_8,2,5,80,127,3231878476
61,18,7,Jits_ISO_8,3,5,56,103,3231938940
61,18,7,Jits_ISO_8,0,1,48,61,3232622828
61,18,7,Jits_ISO_8,1,5,56,103,3232658892
61,18,7,Jits_ISO_8,2,5,80,127,3232709124
61,18,7,Jits_ISO_8,3,5,63,98,3232728524
61,18,7,Jits_ISO_8,0,1,48,90,3233402012
61,18,7,Jits_ISO_8,1,5,56,103,3233428712
61,18,7,Jits_ISO_8,2,5,80,127,3233489500
61,18,7,Jits_ISO_8,3,5,63,98,3233559016
61,18,7,Jits_ISO_8,0,1,48,67,3234203960
61,18,7,Jits_ISO_8,1,5,56,103,3234228716
61,18,7,Jits_ISO_8,2,5,80,127,3234259316
61,18,7,Jits_ISO_8,3,5,63,98,3234288992
61,18,7,Jits_ISO_8,0,1,48,61,3235003888
61,18,7,Jits_ISO_8,1,5,56,103,3235069352
61,18,7,Jits_ISO_8,2,5,80,127,3235088764
61,18,7,Jits_ISO_8,3,5,63,98,3235149364
61,18,7,Jits_ISO_8,0,1,48,54,3235831876
61,18,7,Jits_ISO_8,1,5,80,127,3235948920
61,18,7,Jits_ISO_8,2,5,56,103,3235959340
61,18,7,Jits_ISO_8,3,5,63,98,3235969388
61,18,7,Jits_ISO_8,0,1,48,81,3236695428
61,18,7,Jits_ISO_8,1,5,56,103,3236708724
61,18,7,Jits_ISO_8,2,5,80,127,3236748736
61,18,7,Jits_ISO_8,3,5,63,98,3236779312
61,18,7,Jits_ISO_8,0,1,48,65,3237434680
61,18,7,Jits_ISO_8,1,5,56,103,3237478620
61,18,7,Jits_ISO_8,2,5,63,98,3237508448
61,18,7,Jits_ISO_8,3,5,80,127,3237549492
61,18,7,Jits_ISO_8,0,1,48,53,3238225032
61,18,7,Jits_ISO_8,1,5,80,127,3238229260
61,18,7,Jits_ISO_8,2,5,63,98,3238278416
61,18,7,Jits_ISO_8,3,5,56,103,3238298876
61,18,7,Jits_ISO_8,0,1,48,66,3239022340
61,18,7,Jits_ISO_8,1,5,56,103,3239058860
61,18,7,Jits_ISO_8,2,5,80,127,3239128404
61,18,7,Jits_ISO_8,3,5,63,98,3239188868
61,18,7,Jits_ISO_8,0,5,80,127,3239858432
61,18,7,Jits_ISO_8,1,1,48,74,3239878960
61,18,7,Jits_ISO_8,2,5,63,98,3239948584
61,18,7,Jits_ISO_8,3,5,56,103,3239969340
61,18,7,Jits_ISO_8,0,1,48,62,3240666844
61,18,7,Jits_ISO_8,1,5,63,98,3240678628
61,18,7,Jits_ISO_8,2,5,56,103,3240699388
61,18,7,Jits_ISO_8,3,5,80,127,3240739324
61,18,7,Jits_ISO_8,0,1,48,49,3241437576
61,18,7,Jits_ISO_8,1,5,80,127,3241439220
61,18,7,Jits_ISO_8,2,5,63,98,3241459236
61,18,7,Jits_ISO_8,3,5,56,103,3241539088
61,18,7,Jits_ISO_8,0,1,48,55,3242212008
61,18,7,Jits_ISO_8,1,5,63,98,3242229116
61,18,7,Jits_ISO_8,2,5,56,103,3242338644
61,18,7,Jits_ISO_8,3,5,80,127,3242341712
61,18,7,Jits_ISO_8,0,5,63,98,3243049276
61,18,7,Jits_ISO_8,1,5,56,103,3243058500
61,18,7,Jits_ISO_8,2,5,80,127,3243061788
61,18,7,Jits_ISO_8,3,1,48,82,3243064760
61,18,7,Jits_ISO_8,0,5,56,103,3243828592
61,18,7,Jits_ISO_8,1,1,48,57,3243837564
61,18,7,Jits_ISO_8,2,5,80,127,3243949348
61,18,7,Jits_ISO_8,3,5,63,98,3243989384
61,18,7,Jits_ISO_8,0,1,48,53,3244608884
61,18,7,Jits_ISO_8,1,5,56,103,3244648764
61,18,7,Jits_ISO_8,2,5,80,127,3244728624
61,18,7,Jits_ISO_8,3,5,63,98,3244749480
61,18,7,Jits_ISO_8,0,1,48,57,3245442080
61,18,7,Jits_ISO_8,1,5,56,103,3245448552
61,18,7,Jits_ISO_8,2,5,63,98,3245559220
61,18,7,Jits_ISO_8,3,5,80,127,3245562512
61,18,7,Jits_ISO_8,0,5,56,103,3246279224
61,18,7,Jits_ISO_8,1,1,48,88,3246284364
61,18,7,Jits_ISO_8,2,5,80,127,3246308820
61,18,7,Jits_ISO_8,3,5,63,98,3246329352
61,18,7,Jits_ISO_8,0,5,63,98,3247059172
61,18,7,Jits_ISO_8,1,5,56,103,3247068468
61,18,7,Jits_ISO_8,2,5,80,127,3247078664
61,18,7,Jits_ISO_8,3,1,48,57,3247097596
61,18,7,Jits_ISO_8,0,1,48,42,3247836600
61,18,7,Jits_ISO_8,1,5,80,127,3247848904
61,18,7,Jits_ISO_8,2,5,56,103,3247899184
61,18,7,Jits_ISO_8,3,5,63,98,3247939104
61,18,7,Jits_ISO_8,0,1,48,49,3248590296
61,18,7,Jits_ISO_8,1,5,80,127,3248668992
61,18,7,Jits_ISO_8,2,5,63,98,3248688540
61,18,7,Jits_ISO_8,3,5,56,103,3248738816
61,18,7,Jits_ISO_8,0,1,48,79,3249401244
61,18,7,Jits_ISO_8,1,5,80,127,3249479116
61,18,7,Jits_ISO_8,2,5,56,103,3249508776
61,18,7,Jits_ISO_8,3,5,63,98,3249579504
61,18,7,Jits_ISO_8,0,1,48,40,3250151956
61,18,7,Jits_ISO_8,1,5,56,103,3250329160
61,18,7,Jits_ISO_8,2,5,80,127,3250339208
61,18,7,Jits_ISO_8,3,5,63,98,3250379172
61,18,7,Jits_ISO_8,0,1,48,48,3250950404
61,18,7,Jits_ISO_8,1,5,56,103,3251038464
61,18,7,Jits_ISO_8,2,5,63,98,3251058908
61,18,7,Jits_ISO_8,3,5,80,127,3251128588
61,18,7,Jits_ISO_8,0,1,48,56,3251745300
61,18,7,Jits_ISO_8,1,5,63,98,3251858756
61,18,7,Jits_ISO_8,2,5,80,127,3251919324
61,18,7,Jits_ISO_8,3,5,56,103,3251938584
61,18,7,Jits_ISO_8,0,1,48,75,3252623084
61,18,7,Jits_ISO_8,1,5,80,127,3252649264
61,18,7,Jits_ISO_8,2,5,56,103,3252679112
61,18,7,Jits_ISO_8,3,5,63,98,3252708936
61,18,7,Jits_ISO_8,0,1,48,50,3253384280
61,18,7,Jits_ISO_8,1,5,56,103,3253449216
61,18,7,Jits_ISO_8,2,5,63,98,3253508476
61,18,7,Jits_ISO_8,3,5,80,127,3253569012
61,18,7,Jits_ISO_8,0,1,48,59,3254146684
61,18,7,Jits_ISO_8,1,5,80,127,3254269216
61,18,7,Jits_ISO_8,2,5,56,103,3254288928
61,18,7,Jits_ISO_8,3,5,63,98,3254359360
61,18,7,Jits_ISO_8,0,1,48,50,3255029580
61,18,7,Jits_ISO_8,1,5,80,127,3255069016
61,18,7,Jits_ISO_8,2,5,63,98,3255088428
61,18,7,Jits_ISO_8,3,5,56,103,3255119148
61,18,7,Jits_ISO_8,0,5,80,127,3255858468
61,18,7,Jits_ISO_8,1,5,63,98,3255879152
61,18,7,Jits_ISO_8,2,1,48,81,3255883168
61,18,7,Jits_ISO_8,3,5,56,103,3255938412
61,18,7,Jits_ISO_8,0,1,48,49,3256633356
61,18,7,Jits_ISO_8,1,5,80,127,3256659304
61,18,7,Jits_ISO_8,2,5,56,103,3256758720
61,18,7,Jits_ISO_8,3,5,63,98,3256789316
61,18,7,Jits_ISO_8,0,5,63,98,3257448912
61,18,7,Jits_ISO_8,1,1,48,53,3257456144
61,18,7,Jits_ISO_8,2,5,80,127,3257498960
61,18,7,Jits_ISO_8,3,5,56,103,3257518448
61,18,7,Jits_ISO_8,0,1,48,51,3258280728
61,18,7,Jits_ISO_8,1,5,80,127,3258288472
61,18,7,Jits_ISO_8,2,5,56,103,3258319148
61,18,7,Jits_ISO_8,3,5,63,98,3258322212
61,18,7,Jits_ISO_8,0,1,48,78,3259052332
61,18,7,Jits_ISO_8,1,5,63,98,3259118916
61,18,7,Jits_ISO_8,2,5,56,103,3259158992
61,18,7,Jits_ISO_8,3,5,80,127,3259179300
61,18,7,Jits_ISO_8,0,5,80,127,3259859300
61,18,7,Jits_ISO_8,1,1,48,49,3259872312
61,18,7,Jits_ISO_8,2,5,63,98,3259939240
61,18,7,Jits_ISO_8,3,5,56,103,3259979092
61,18,7,Jits_ISO_8,0,1,48,57,3260675920
61,18,7,Jits_ISO_8,1,5,63,98,3260678656
61,18,7,Jits_ISO_8,2,5,80,127,3260759280
61,18,7,Jits_ISO_8,3,5,56,103,3260779048
61,18,7,Jits_ISO_8,0,1,48,57,3261510632
61,18,7,Jits_ISO_8,1,5,56,103,3261519128
61,18,7,Jits_ISO_8,2,5,63,98,3261528352
61,18,7,Jits_ISO_8,3,5,80,127,3261569264
61,18,7,Jits_ISO_8,0,5,56,103,3262239052
61,18,7,Jits_ISO_8,1,5,80,127,3262242196
61,18,7,Jits_ISO_8,2,1,48,73,3262349008
61,18,7,Jits_ISO_8,3,5,63,98,3262379300
61,18,7,Jits_ISO_8,0,5,56,103,3263028876
61,18,7,Jits_ISO_8,1,1,48,46,3263075968
61,18,7,Jits_ISO_8,2,5,63,98,3263118856
61,18,7,Jits_ISO_8,3,5,80,127,3263189296
61,18,7,Jits_ISO_8,0,1,48,46,3263856976
61,18,7,Jits_ISO_8,1,5,63,98,3263909132
61,18,7,Jits_ISO_8,2,5,80,127,3263912504
61,18,7,Jits_ISO_8,3,5,56,103,3263968936
61,18,7,Jits_ISO_8,0,1,48,51,3264686276
61,18,7,Jits_ISO_8,1,5,80,127,3264748880
61,18,7,Jits_ISO_8,2,5,56,103,3264769344
61,18,7,Jits_ISO_8,3,5,63,98,3264778864
61,18,7,Jits_ISO_8,0,5,56,103,3265458744
61,18,7,Jits_ISO_8,1,5,63,98,3265468868
61,18,7,Jits_ISO_8,2,1,48,87,3265536060
61,18,7,Jits_ISO_8,3,5,80,127,3265538640
61,18,7,Jits_ISO_8,0,1,48,50,3266251488
61,18,7,Jits_ISO_8,1,5,80,127,3266259236
61,18,7,Jits_ISO_8,2,5,56,103,3266308540
61,18,7,Jits_ISO_8,3,5,63,98,3266358800
61,18,7,Jits_ISO_8,0,1,48,53,3267063936
61,18,7,Jits_ISO_8,1,5,56,103,3267138888
61,18,7,Jits_ISO_8,2,5,63,98,3267149160
61,18,7,Jits_ISO_8,3,5,80,127,3267189084
61,18,7,Jits_ISO_8,0,1,48,52,3267852792
61,18,7,Jits_ISO_8,1,5,56,103,3267879416
61,18,7,Jits_ISO_8,2,5,63,98,3267919208
61,18,7,Jits_ISO_8,3,5,80,127,3267969324
61,18,7,Jits_ISO_8,0,5,80,127,3268639056
61,18,7,Jits_ISO_8,1,1,48,76,3268680836
61,18,7,Jits_ISO_8,2,5,56,103,3268689176
61,18,7,Jits_ISO_8,3,5,63,98,3268708740
61,18,7,Jits_ISO_8,0,5,80,127,3269449040
61,18,7,Jits_ISO_8,1,1,48,43,3269486616
61,18,7,Jits_ISO_8,2,5,63,98,3269508528
61,18,7,Jits_ISO_8,3,5,56,103,3269589452
61,18,7,Jits_ISO_8,0,5,80,127,3270229508
61,18,7,Jits_ISO_8,1,5,56,103,3270269596
61,18,7,Jits_ISO_8,2,1,48,43,3270270636
61,18,7,Jits_ISO_8,3,5,63,98,3270288704
61,18,7,Jits_ISO_8,0,1,48,53,3271028080
61,18,7,Jits_ISO_8,1,5,56,103,3271079568
61,18,7,Jits_ISO_8,2,5,80,127,3271088568
61,18,7,Jits_ISO_8,3,5,63,98,3271128516
61,18,7,Jits_ISO_8,0,1,48,73,3271816480
61,18,7,Jits_ISO_8,1,5,56,103,3271948672
61,18,7,Jits_ISO_8,2,5,63,98,3271988684
61,18,7,Jits_ISO_8,3,5,80,127,3271992048
61,18,7,Jits_ISO_8,0,1,48,53,3272638084
61,18,7,Jits_ISO_8,1,5,63,98,3272639728
61,18,7,Jits_ISO_8,2,5,80,127,3272678720
61,18,7,Jits_ISO_8,3,5,56,103,3272749508
61,18,7,Jits_ISO_8,0,5,63,98,3273429428
61,18,7,Jits_ISO_8,1,1,48,49,3273463788
61,18,7,Jits_ISO_8,2,5,56,103,3273509592
61,18,7,Jits_ISO_8,3,5,80,127,3273568548
61,18,7,Jits_ISO_8,0,1,48,48,3274227244
61,18,7,Jits_ISO_8,1,5,80,127,3274239472
61,18,7,Jits_ISO_8,2,5,63,98,3274288632
61,18,7,Jits_ISO_8,3,5,56,103,3274319204
61,18,7,Jits_ISO_8,0,1,48,63,3275018704
61,18,7,Jits_ISO_8,1,5,56,103,3275028844
61,18,7,Jits_ISO_8,2,5,63,98,3275078972
61,18,7,Jits_ISO_8,3,5,80,127,3275089540
61,18,7,Jits_ISO_8,0,5,56,103,3275838744
61,18,7,Jits_ISO_8,1,1,48,43,3275842836
61,18,7,Jits_ISO_8,2,5,63,98,3275949684
61,18,7,Jits_ISO_8,3,5,80,127,3275968796
61,18,7,Jits_ISO_8,0,1,48,49,3276562236
61,18,7,Jits_ISO_8,1,5,63,98,3276638464
61,18,7,Jits_ISO_8,2,5,80,127,3276688800
61,18,7,Jits_ISO_8,3,5,56,103,3276778736
61,18,7,Jits_ISO_8,0,1,48,59,3277344264
61,18,7,Jits_ISO_8,1,5,63,98,3277428960
61,18,7,Jits_ISO_8,2,5,80,127,3277458920
61,18,7,Jits_ISO_8,3,5,56,103,3277548852
61,18,7,Jits_ISO_8,0,1,48,87,3278198296
61,18,7,Jits_ISO_8,1,5,63,98,3278228960
61,18,7,Jits_ISO_8,2,5,56,103,3278239080
61,18,7,Jits_ISO_8,3,5,80,127,3278338364
61,18,7,Jits_ISO_8,0,1,48,48,3279035744
61,18,7,Jits_ISO_8,1,5,63,98,3279128860
61,18,7,Jits_ISO_8,2,5,80,127,3279158596
61,18,7,Jits_ISO_8,3,5,56,103,3279189392
61,18,7,Jits_ISO_8,0,1,48,53,3279820288
61,18,7,Jits_ISO_8,1,5,80,127,3279949388
61,18,7,Jits_ISO_8,2,5,63,98,3279959512
61,18,7,Jits_ISO_8,3,5,56,103,3279989040
61,18,7,Jits_ISO_8,0,5,80,127,3280648436
61,18,7,Jits_ISO_8,1,5,63,98,3280669120
61,18,7,Jits_ISO_8,2,1,48,56,3280670088
61,18,7,Jits_ISO_8,3,5,56,103,3280719464
61,18,7,Jits_ISO_8,0,5,63,98,3281479172
61,18,7,Jits_ISO_8,1,1,48,84,3281484236
61,18,7,Jits_ISO_8,2,5,80,127,3281538360
61,18,7,Jits_ISO_8,3,5,56,103,3281558892
61,18,7,Jits_ISO_8,0,5,63,98,3282238800
61,18,7,Jits_ISO_8,1,5,56,103,3282289224
61,18,7,Jits_ISO_8,2,5,80,127,3282299348
61,18,7,Jits_ISO_8,3,1,48,47,3282321120
61,18,7,Jits_ISO_8,0,5,56,103,3283069368
61,18,7,Jits_ISO_8,1,5,80,127,3283078444
61,18,7,Jits_ISO_8,2,1,48,43,3283095792
61,18,7,Jits_ISO_8,3,5,63,98,3283178856
61,18,7,Jits_ISO_8,0,5,80,127,3283829228
61,18,7,Jits_ISO_8,1,5,63,98,3283839576
61,18,7,Jits_ISO_8,2,1,48,44,3283866212
61,18,7,Jits_ISO_8,3,5,56,103,3283988972
61,18,7,Jits_ISO_8,0,1,48,76,3284620676
61,18,7,Jits_ISO_8,1,5,63,98,3284639284
61,18,7,Jits_ISO_8,2,5,80,127,3284679176
61,18,7,Jits_ISO_8,3,5,56,103,3284758808
61,18,7,Jits_ISO_8,0,5,56,103,3285428660
61,18,7,Jits_ISO_8,1,1,48,35,3285449488
61,18,7,Jits_ISO_8,2,5,80,127,3285528856
61,18,7,Jits_ISO_8,3,5,63,98,3285549376
61,18,7,Jits_ISO_8,0,1,48,44,3286178904
61,18,7,Jits_ISO_8,1,5,80,127,3286288700
61,18,7,Jits_ISO_8,2,5,56,103,3286299120
61,18,7,Jits_ISO_8,3,5,63,98,3286389176
61,18,7,Jits_ISO_8,0,1,48,50,3286996160
61,18,7,Jits_ISO_8,1,5,56,103,3287088352
61,18,7,Jits_ISO_8,2,5,63,98,3287109464
61,18,7,Jits_ISO_8,3,5,80,127,3287188816
61,18,7,Jits_ISO_8,0,5,63,98,3287839292
61,18,7,Jits_ISO_8,1,1,48,84,3287869540
61,18,7,Jits_ISO_8,2,5,56,103,3287929196
61,18,7,Jits_ISO_8,3,5,80,127,3287932488
61,18,7,Jits_ISO_8,0,5,56,103,3288668588
61,18,7,Jits_ISO_8,1,1,48,49,3288695080
61,18,7,Jits_ISO_8,2,5,80,127,3288728900
61,18,7,Jits_ISO_8,3,5,63,98,3288739168
61,18,7,Jits_ISO_8,0,1,48,50,3289461608
61,18,7,Jits_ISO_8,1,5,80,127,3289518504
61,18,7,Jits_ISO_8,2,5,56,103,3289528548
61,18,7,Jits_ISO_8,3,5,63,98,3289531916
61,18,7,Jits_ISO_8,0,5,56,103,3290279328
61,18,7,Jits_ISO_8,1,1,48,49,3290283052
61,18,7,Jits_ISO_8,2,5,80,127,3290288472
61,18,7,Jits_ISO_8,3,5,63,98,3290309032
61,18,7,Jits_ISO_8,0,5,63,98,3291049304
61,18,7,Jits_ISO_8,1,1,48,77,3291057000
61,18,7,Jits_ISO_8,2,5,80,127,3291108668
61,18,7,Jits_ISO_8,3,5,56,103,3291158856
61,18,7,Jits_ISO_8,0,1,48,48,3291868268
61,18,7,Jits_ISO_8,1,5,63,98,3291929200
61,18,7,Jits_ISO_8,2,5,56,103,3291939248
61,18,7,Jits_ISO_8,3,5,80,127,3291989432
61,18,7,Jits_ISO_8,0,5,63,98,3292629348
61,18,7,Jits_ISO_8,1,1,48,48,3292648984
61,18,7,Jits_ISO_8,2,5,80,127,3292650248
61,18,7,Jits_ISO_8,3,5,56,103,3292659248
61,18,7,Jits_ISO_8,0,1,48,47,3293411184
61,18,7,Jits_ISO_8,1,5,63,98,3293429264
61,18,7,Jits_ISO_8,2,5,80,127,3293432408
61,18,7,Jits_ISO_8,3,5,56,103,3293469128
61,18,7,Jits_ISO_8,0,1,48,67,3294203824
61,18,7,Jits_ISO_8,1,5,63,98,3294298400
61,18,7,Jits_ISO_8,2,5,80,127,3294329272
61,18,7,Jits_ISO_8,3,5,56,103,3294338348
61,18,7,Jits_ISO_8,0,1,48,49,3295008120
61,18,7,Jits_ISO_8,1,5,56,103,3295049196
61,18,7,Jits_ISO_8,2,5,80,127,3295078724
61,18,7,Jits_ISO_8,3,5,63,98,3295108536
61,18,7,Jits_ISO_8,0,1,48,39,3295846168
61,18,7,Jits_ISO_8,1,5,63,98,3295949160
61,18,7,Jits_ISO_8,2,5,56,103,3295989248
61,18,7,Jits_ISO_8,3,5,80,127,3295992316
61,18,7,Jits_ISO_8,0,5,80,127,3296648620
61,18,7,Jits_ISO_8,1,1,48,50,3296708712
61,18,7,Jits_ISO_8,2,5,56,103,3296728364
61,18,7,Jits_ISO_8,3,5,63,98,3296778564
61,18,7,Jits_ISO_8,0,5,80,127,3297429016
61,18,7,Jits_ISO_8,1,5,56,103,3297449252
61,18,7,Jits_ISO_8,2,1,48,69,3297532480
61,18,7,Jits_ISO_8,3,5,63,98,3297538428
61,18,7,Jits_ISO_8,0,5,80,127,3298268472
61,18,7,Jits_ISO_8,1,1,48,55,3298300584
61,18,7,Jits_ISO_8,2,5,63,98,3298308332
61,18,7,Jits_ISO_8,3,5,56,103,3298349464
61,18,7,Jits_ISO_8,0,5,63,98,3299038524
61,18,7,Jits_ISO_8,1,1,48,52,3299096324
61,18,7,Jits_ISO_8,2,5,80,127,3299099056
61,18,7,Jits_ISO_8,3,5,56,103,3299128808
61,18,7,Jits_ISO_8,0,5,56,103,3299839276
61,18,7,Jits_ISO_8,1,5,80,127,3299869028
61,18,7,Jits_ISO_8,2,1,48,54,3299893944
61,18,7,Jits_ISO_8,3,5,63,98,3299959156
61,18,7,Jits_ISO_8,0,5,56,103,3300649340
61,18,7,Jits_ISO_8,1,1,48,76,3300671040
61,18,7,Jits_ISO_8,2,5,80,127,3300759024
61,18,7,Jits_ISO_8,3,5,63,98,3300788536
61,18,7,Jits_ISO_8,0,1,48,50,3301474952
61,18,7,Jits_ISO_8,1,5,56,103,3301499188
61,18,7,Jits_ISO_8,2,5,63,98,3301558904
61,18,7,Jits_ISO_8,3,5,80,127,3301589264
61,18,7,Jits_ISO_8,0,5,56,103,3302269240
61,18,7,Jits_ISO_8,1,1,48,49,3302315212
61,18,7,Jits_ISO_8,2,5,63,98,3302338944
61,18,7,Jits_ISO_8,3,5,80,127,3302359328
61,18,7,Jits_ISO_8,0,5,80,127,3303039296
61,18,7,Jits_ISO_8,1,5,63,98,3303059156
61,18,7,Jits_ISO_8,2,1,48,45,3303085124
61,18,7,Jits_ISO_8,3,5,56,103,3303108928
61,18,7,Jits_ISO_8,0,9999,9999,9999,3208306776
61,18,7,Jits_ISO_8,1,9999,9999,9999,3209106552
61,18,7,Jits_ISO_8,2,9999,9999,9999,3209906272
61,18,7,Jits_ISO_8,3,9999,9999,9999,3210707064
61,18,7,Jits_ISO_8,4,9999,9999,9999,3211506756
61,18,7,Jits_ISO_8,5,9999,9999,9999,3212306544
61,18,7,Jits_ISO_8,6,9999,9999,9999,3213106264
61,18,7,Jits_ISO_8,7,9999,9999,9999,3213907020
61,18,7,Jits_ISO_8,8,9999,9999,9999,3214706812
61,18,7,Jits_ISO_8,9,9999,9999,9999,3215506508
61,18,7,Jits_ISO_8,10,9999,9999,9999,3216306240
61,18,7,Jits_ISO_8,11,9999,9999,9999,3217107024
61,18,7,Jits_ISO_8,12,9999,9999,9999,3217906748
61,18,7,Jits_ISO_8,13,9999,9999,9999,3218706548
61,18,7,Jits_ISO_8,14,9999,9999,9999,3219506244
61,18,7,Jits_ISO_8,15,9999,9999,9999,3220307008
61,18,7,Jits_ISO_8,16,9999,9999,9999,3221106772
61,18,7,Jits_ISO_8,17,9999,9999,9999,3221906500
61,18,7,Jits_ISO_8,18,9999,9999,9999,3222706292
61,18,7,Jits_ISO_8,19,9999,9999,9999,3223507000
61,18,7,Jits_ISO_8,20,9999,9999,9999,3224306784
61,18,7,Jits_ISO_8,21,9999,9999,9999,3225106492
61,18,7,Jits_ISO_8,22,9999,9999,9999,3225906264
61,18,7,Jits_ISO_8,23,9999,9999,9999,3226707024
61,18,7,Jits_ISO_8,24,9999,9999,9999,3227506804
61,18,7,Jits_ISO_8,25,9999,9999,9999,3228306512
61,18,7,Jits_ISO_8,26,9999,9999,9999,3229106296
61,18,7,Jits_ISO_8,27,9999,9999,9999,3229907004
61,18,7,Jits_ISO_8,28,9999,9999,9999,3230706804
61,18,7,Jits_ISO_8,29,9999,9999,9999,3231506536
61,18,7,Jits_ISO_8,30,9999,9999,9999,3232306292
61,18,7,Jits_ISO_8,31,9999,9999,9999,3233107048
61,18,7,Jits_ISO_8,32,9999,9999,9999,3233906756
61,18,7,Jits_ISO_8,33,9999,9999,9999,3234706532
61,18,7,Jits_ISO_8,34,9999,9999,9999,3235506244
61,18,7,Jits_ISO_8,35,9999,9999,9999,3236307040
61,18,7,Jits_ISO_8,36,9999,9999,9999,3237106760
61,18,7,Jits_ISO_8,37,9999,9999,9999,3237906544
61,18,7,Jits_ISO_8,38,9999,9999,9999,3238706256
61,18,7,Jits_ISO_8,39,9999,9999,9999,3239507012
61,18,7,Jits_ISO_8,40,9999,9999,9999,3240306804
61,18,7,Jits_ISO_8,41,9999,9999,9999,3241106524
61,18,7,Jits_ISO_8,42,9999,9999,9999,3241906232
61,18,7,Jits_ISO_8,43,9999,9999,9999,3242707008
61,18,7,Jits_ISO_8,44,9999,9999,9999,3243506772
61,18,7,Jits_ISO_8,45,9999,9999,9999,3244306484
61,18,7,Jits_ISO_8,46,9999,9999,9999,3245106284
61,18,7,Jits_ISO_8,47,9999,9999,9999,3245907036
61,18,7,Jits_ISO_8,48,9999,9999,9999,3246706744
61,18,7,Jits_ISO_8,49,9999,9999,9999,3247506536
61,18,7,Jits_ISO_8,50,9999,9999,9999,3248306248
61,18,7,Jits_ISO_8,51,9999,9999,9999,3249107028
61,18,7,Jits_ISO_8,52,9999,9999,9999,3249906744
61,18,7,Jits_ISO_8,53,9999,9999,9999,3250706536
61,18,7,Jits_ISO_8,54,9999,9999,9999,3251506244
61,18,7,Jits_ISO_8,55,9999,9999,9999,3252307000
61,18,7,Jits_ISO_8,56,9999,9999,9999,3253106776
61,18,7,Jits_ISO_8,57,9999,9999,9999,3253906488
61,18,7,Jits_ISO_8,58,9999,9999,9999,3254706272
61,18,7,Jits_ISO_8,59,9999,9999,9999,3255507052
61,18,7,Jits_ISO_8,60,9999,9999,9999,3256306760
61,18,7,Jits_ISO_8,61,9999,9999,9999,3257106488
61,18,7,Jits_ISO_8,62,9999,9999,9999,3257906272
61,18,7,Jits_ISO_8,63,9999,9999,9999,3258707020
61,18,7,Jits_ISO_8,64,9999,9999,9999,3259506740
61,18,7,Jits_ISO_8,65,9999,9999,9999,3260306528
61,18,7,Jits_ISO_8,66,9999,9999,9999,3261106260
61,18,7,Jits_ISO_8,67,9999,9999,9999,3261907048
61,18,7,Jits_ISO_8,68,9999,9999,9999,3262706744
61,18,7,Jits_ISO_8,69,9999,9999,9999,3263506544
61,18,7,Jits_ISO_8,70,9999,9999,9999,3264306264
61,18,7,Jits_ISO_8,71,9999,9999,9999,3265107032
61,18,7,Jits_ISO_8,72,9999,9999,9999,3265906740
61,18,7,Jits_ISO_8,73,9999,9999,9999,3266706540
61,18,7,Jits_ISO_8,74,9999,9999,9999,3267506256
61,18,7,Jits_ISO_8,75,9999,9999,9999,3268307044
61,18,7,Jits_ISO_8,76,9999,9999,9999,3269106752
61,18,7,Jits_ISO_8,77,9999,9999,9999,3269906552
61,18,7,Jits_ISO_8,78,9999,9999,9999,3270706272
61,18,7,Jits_ISO_8,79,9999,9999,9999,3271507044
61,18,7,Jits_ISO_8,80,9999,9999,9999,3272306756
61,18,7,Jits_ISO_8,81,9999,9999,9999,3273106536
61,18,7,Jits_ISO_8,82,9999,9999,9999,3273906248
61,18,7,Jits_ISO_8,83,9999,9999,9999,3274707032
61,18,7,Jits_ISO_8,84,9999,9999,9999,3275506808
61,18,7,Jits_ISO_8,85,9999,9999,9999,3276306524
61,18,7,Jits_ISO_8,86,9999,9999,9999,3277106248
61,18,7,Jits_ISO_8,87,9999,9999,9999,3277907004
61,18,7,Jits_ISO_8,88,9999,9999,9999,3278706776
61,18,7,Jits_ISO_8,89,9999,9999,9999,3279506492
61,18,7,Jits_ISO_8,90,9999,9999,9999,3280306288
61,18,7,Jits_ISO_8,91,9999,9999,9999,3281107068
61,18,7,Jits_ISO_8,92,9999,9999,9999,3281906792
61,18,7,Jits_ISO_8,93,9999,9999,9999,3282706496
61,18,7,Jits_ISO_8,94,9999,9999,9999,3283506276
61,18,7,Jits_ISO_8,95,9999,9999,9999,3284307044
61,18,7,Jits_ISO_8,96,9999,9999,9999,3285106768
61,18,7,Jits_ISO_8,97,9999,9999,9999,3285906552
61,18,7,Jits_ISO_8,98,9999,9999,9999,3286706276
61,18,7,Jits_ISO_8,99,9999,9999,9999,3287507060
61,18,7,Jits_ISO_8,100,9999,9999,9999,3288306760
61,18,7,Jits_ISO_8,101,9999,9999,9999,3289106544
61,18,7,Jits_ISO_8,102,9999,9999,9999,3289906264
61,18,7,Jits_ISO_8,103,9999,9999,9999,3290707020
61,18,7,Jits_ISO_8,104,9999,9999,9999,3291506740
61,18,7,Jits_ISO_8,105,9999,9999,9999,3292306532
61,18,7,Jits_ISO_8,106,9999,9999,9999,3293106236
61,18,7,Jits_ISO_8,107,9999,9999,9999,3293906996
61,18,7,Jits_ISO_8,108,9999,9999,9999,3294706784
61,18,7,Jits_ISO_8,109,9999,9999,9999,3295506488
61,18,7,Jits_ISO_8,110,9999,9999,9999,3296306272
61,18,7,Jits_ISO_8,111,9999,9999,9999,3297107036
61,18,7,Jits_ISO_8,112,9999,9999,9999,3297906752
61,18,7,Jits_ISO_8,113,9999,9999,9999,3298706552
61,18,7,Jits_ISO_8,114,9999,9999,9999,3299506272
61,18,7,Jits_ISO_8,115,9999,9999,9999,3300307052
61,18,7,Jits_ISO_8,116,9999,9999,9999,3301106784
61,18,7,Jits_ISO_8,117,9999,9999,9999,3301906516
61,18,7,Jits_ISO_8,118,9999,9999,9999,3302706228
61,18,7,Jits_ISO_8,119,9999,9999,9999,3303507068
61,19,17,Jits_Phase_5,0,5,56,103,3313483024
61,19,17,Jits_Phase_5,1,5,63,98,3313486200
61,19,17,Jits_Phase_5,2,5,80,127,3313489324
61,19,17,Jits_Phase_5,0,5,56,103,3313982740
61,19,17,Jits_Phase_5,1,5,63,98,3313985688
61,19,17,Jits_Phase_5,2,5,80,127,3313988812
61,19,17,Jits_Phase_5,0,5,56,103,3314482836
61,19,17,Jits_Phase_5,1,5,80,127,3314492736
61,19,17,Jits_Phase_5,2,5,63,98,3314513192
61,19,17,Jits_Phase_5,0,5,63,98,3314943312
61,19,17,Jits_Phase_5,1,5,80,127,3314972984
61,19,17,Jits_Phase_5,2,5,56,103,3314983256
61,19,17,Jits_Phase_5,0,1,48,55,3315464864
61,19,17,Jits_Phase_5,1,5,80,127,3315502724
61,19,17,Jits_Phase_5,2,5,56,103,3315512624
61,19,17,Jits_Phase_5,3,5,63,98,3315543492
61,19,17,Jits_Phase_5,0,5,63,98,3315993048
61,19,17,Jits_Phase_5,1,5,56,103,3316022572
61,19,17,Jits_Phase_5,2,1,48,51,3316027636
61,19,17,Jits_Phase_5,3,5,80,127,3316032984
61,19,17,Jits_Phase_5,0,5,56,103,3316442532
61,19,17,Jits_Phase_5,1,5,63,98,3316492880
61,19,17,Jits_Phase_5,2,1,48,54,3316506560
61,19,17,Jits_Phase_5,3,5,80,127,3316513256
61,19,17,Jits_Phase_5,0,5,80,127,3316943268
61,19,17,Jits_Phase_5,1,1,48,50,3316980168
61,19,17,Jits_Phase_5,2,5,63,98,3316993612
61,19,17,Jits_Phase_5,3,5,56,103,3317033548
61,19,17,Jits_Phase_5,0,5,56,103,3317442884
61,19,17,Jits_Phase_5,1,5,63,98,3317472636
61,19,17,Jits_Phase_5,2,5,80,127,3317543208
61,19,17,Jits_Phase_5,3,1,48,62,3317545072
61,19,17,Jits_Phase_5,0,5,56,103,3317942696
61,19,17,Jits_Phase_5,1,5,80,127,3318003112
61,19,17,Jits_Phase_5,2,5,63,98,3318032712
61,19,17,Jits_Phase_5,3,1,48,55,3318038220
61,19,17,Jits_Phase_5,0,5,56,103,3318452504
61,19,17,Jits_Phase_5,1,5,63,98,3318462700
61,19,17,Jits_Phase_5,2,5,80,127,3318502660
61,19,17,Jits_Phase_5,3,1,48,46,3318521144
61,19,17,Jits_Phase_5,0,5,63,98,3318943272
61,19,17,Jits_Phase_5,1,1,48,51,3319011972
61,19,17,Jits_Phase_5,2,5,80,127,3319023084
61,19,17,Jits_Phase_5,3,5,56,103,3319033128
61,19,17,Jits_Phase_5,0,5,63,98,3319493020
61,19,17,Jits_Phase_5,1,5,56,103,3319532880
61,19,17,Jits_Phase_5,2,5,80,127,3319535796
61,19,17,Jits_Phase_5,3,1,48,72,3319549848
61,19,17,Jits_Phase_5,0,5,56,103,3319952648
61,19,17,Jits_Phase_5,1,5,63,98,3319962920
61,19,17,Jits_Phase_5,2,5,80,127,3320002808
61,19,17,Jits_Phase_5,3,1,48,38,3320061292
61,19,17,Jits_Phase_5,0,5,56,103,3320443416
61,19,17,Jits_Phase_5,1,5,63,98,3320446408
61,19,17,Jits_Phase_5,2,5,80,127,3320462680
61,19,17,Jits_Phase_5,3,1,48,53,3320529488
61,19,17,Jits_Phase_5,0,5,80,127,3320953356
61,19,17,Jits_Phase_5,1,5,56,103,3320962432
61,19,17,Jits_Phase_5,2,1,48,56,3321023688
61,19,17,Jits_Phase_5,3,5,63,98,3321033148
61,19,17,Jits_Phase_5,0,5,63,98,3321442760
61,19,17,Jits_Phase_5,1,5,56,103,3321463368
61,19,17,Jits_Phase_5,2,1,48,80,3321509256
61,19,17,Jits_Phase_5,3,5,80,127,3321542952
61,19,17,Jits_Phase_5,0,5,56,103,3321952548
61,19,17,Jits_Phase_5,1,1,48,54,3321975444
61,19,17,Jits_Phase_5,2,5,80,127,3321992556
61,19,17,Jits_Phase_5,3,5,63,98,3322002752
61,19,17,Jits_Phase_5,0,5,80,127,3322443248
61,19,17,Jits_Phase_5,1,1,48,52,3322463824
61,19,17,Jits_Phase_5,2,5,63,98,3322472692
61,19,17,Jits_Phase_5,3,5,56,103,3322512704
61,19,17,Jits_Phase_5,0,1,48,61,3322962936
61,19,17,Jits_Phase_5,1,5,56,103,3322964500
61,19,17,Jits_Phase_5,2,5,63,98,3322992980
61,19,17,Jits_Phase_5,3,5,80,127,3323043328
61,19,17,Jits_Phase_5,0,1,48,89,3323447592
61,19,17,Jits_Phase_5,1,5,80,127,3323462980
61,19,17,Jits_Phase_5,2,5,56,103,3323502844
61,19,17,Jits_Phase_5,3,5,63,98,3323513412
61,19,17,Jits_Phase_5,0,5,80,127,3323943332
61,19,17,Jits_Phase_5,1,5,63,98,3323983420
61,19,17,Jits_Phase_5,2,1,48,51,3323994484
61,19,17,Jits_Phase_5,3,5,56,103,3324042604
61,19,17,Jits_Phase_5,0,5,56,103,3324442876
61,19,17,Jits_Phase_5,1,5,80,127,3324453368
61,19,17,Jits_Phase_5,2,1,48,55,3324459852
61,19,17,Jits_Phase_5,3,5,63,98,3324533080
61,19,17,Jits_Phase_5,0,5,80,127,3324942788
61,19,17,Jits_Phase_5,1,1,48,50,3324946424
61,19,17,Jits_Phase_5,2,5,63,98,3325003244
61,19,17,Jits_Phase_5,3,5,56,103,3325032992
61,19,17,Jits_Phase_5,0,5,56,103,3325442552
61,19,17,Jits_Phase_5,1,1,48,87,3325462832
61,19,17,Jits_Phase_5,2,5,80,127,3325502936
61,19,17,Jits_Phase_5,3,5,63,98,3325542796
61,19,17,Jits_Phase_5,0,1,48,55,3325979812
61,19,17,Jits_Phase_5,1,5,56,103,3325993256
61,19,17,Jits_Phase_5,2,5,63,98,3326002552
61,19,17,Jits_Phase_5,3,5,80,127,3326005916
61,19,17,Jits_Phase_5,0,5,80,127,3326442736
61,19,17,Jits_Phase_5,1,1,48,56,3326470660
61,19,17,Jits_Phase_5,2,5,63,98,3326532860
61,19,17,Jits_Phase_5,3,5,56,103,3326543428
61,19,17,Jits_Phase_5,0,5,56,103,3326942632
61,19,17,Jits_Phase_5,1,5,63,98,3326945580
61,19,17,Jits_Phase_5,2,5,80,127,3326948780
61,19,17,Jits_Phase_5,3,1,48,43,3326977900
61,19,17,Jits_Phase_5,0,5,80,127,3327462696
61,19,17,Jits_Phase_5,1,1,48,59,3327485968
61,19,17,Jits_Phase_5,2,5,63,98,3327513040
61,19,17,Jits_Phase_5,3,5,56,103,3327542564
61,19,17,Jits_Phase_5,0,5,56,103,3327943132
61,19,17,Jits_Phase_5,1,5,80,127,3327953328
61,19,17,Jits_Phase_5,2,1,48,48,3327998620
61,19,17,Jits_Phase_5,3,5,63,98,3328022852
61,19,17,Jits_Phase_5,0,5,56,103,3328453088
61,19,17,Jits_Phase_5,1,1,48,65,3328457404
61,19,17,Jits_Phase_5,2,5,63,98,3328472420
61,19,17,Jits_Phase_5,3,5,80,127,3328532956
61,19,17,Jits_Phase_5,0,1,48,65,3328926124
61,19,17,Jits_Phase_5,1,5,80,127,3328933344
61,19,17,Jits_Phase_5,2,5,63,98,3329002828
61,19,17,Jits_Phase_5,3,5,56,103,3329023268
61,19,17,Jits_Phase_5,0,1,48,96,3329439880
61,19,17,Jits_Phase_5,1,5,80,127,3329453396
61,19,17,Jits_Phase_5,2,5,56,103,3329462768
61,19,17,Jits_Phase_5,3,5,63,98,3329472840
61,19,17,Jits_Phase_5,0,5,80,127,3329942812
61,19,17,Jits_Phase_5,1,1,48,67,3329958584
61,19,17,Jits_Phase_5,2,5,56,103,3329963336
61,19,17,Jits_Phase_5,3,5,63,98,3330032964
61,19,17,Jits_Phase_5,0,1,48,68,3330428968
61,19,17,Jits_Phase_5,1,5,56,103,3330452824
61,19,17,Jits_Phase_5,2,5,80,127,3330482500
61,19,17,Jits_Phase_5,3,5,63,98,3330503132
61,19,17,Jits_Phase_5,0,5,63,98,3330952580
61,19,17,Jits_Phase_5,1,1,48,64,3330957796
61,19,17,Jits_Phase_5,2,5,56,103,3331013064
61,19,17,Jits_Phase_5,3,5,80,127,3331042588
61,19,17,Jits_Phase_5,0,5,63,98,3331443188
61,19,17,Jits_Phase_5,1,5,80,127,3331446400
61,19,17,Jits_Phase_5,2,1,48,81,3331447664
61,19,17,Jits_Phase_5,3,5,56,103,3331533332
61,19,17,Jits_Phase_5,0,5,56,103,3331963232
61,19,17,Jits_Phase_5,1,5,63,98,3331993056
61,19,17,Jits_Phase_5,2,1,48,67,3331995948
61,19,17,Jits_Phase_5,3,5,80,127,3332033008
61,19,17,Jits_Phase_5,0,1,48,53,3332442960
61,19,17,Jits_Phase_5,1,5,63,98,3332463064
61,19,17,Jits_Phase_5,2,5,56,103,3332502852
61,19,17,Jits_Phase_5,3,5,80,127,3332523456
61,19,17,Jits_Phase_5,0,1,48,62,3332927648
61,19,17,Jits_Phase_5,1,5,63,98,3332972852
61,19,17,Jits_Phase_5,2,5,56,103,3333012792
61,19,17,Jits_Phase_5,3,5,80,127,3333023048
61,19,17,Jits_Phase_5,0,1,48,108,3333432872
61,19,17,Jits_Phase_5,1,5,80,127,3333453200
61,19,17,Jits_Phase_5,2,5,63,98,3333522656
61,19,17,Jits_Phase_5,3,5,56,103,3333543320
61,19,17,Jits_Phase_5,0,5,56,103,3333942720
61,19,17,Jits_Phase_5,1,5,80,127,3333963104
61,19,17,Jits_Phase_5,2,1,48,67,3333975588
61,19,17,Jits_Phase_5,3,5,63,98,3334003108
61,19,17,Jits_Phase_5,0,1,48,70,3334438024
61,19,17,Jits_Phase_5,1,5,63,98,3334452664
61,19,17,Jits_Phase_5,2,5,80,127,3334473348
61,19,17,Jits_Phase_5,3,5,56,103,3334513132
61,19,17,Jits_Phase_5,0,5,63,98,3334953316
61,19,17,Jits_Phase_5,1,1,48,63,3334969312
61,19,17,Jits_Phase_5,2,5,56,103,3334972796
61,19,17,Jits_Phase_5,3,5,80,127,3334983216
61,19,17,Jits_Phase_5,0,5,80,127,3335453064
61,19,17,Jits_Phase_5,1,1,48,102,3335463008
61,19,17,Jits_Phase_5,2,5,56,103,3335472620
61,19,17,Jits_Phase_5,3,5,63,98,3335503188
61,19,17,Jits_Phase_5,0,1,48,47,3335953328
61,19,17,Jits_Phase_5,1,5,56,103,3336023320
61,19,17,Jits_Phase_5,2,5,80,127,3336026468
61,19,17,Jits_Phase_5,3,5,63,98,3336042888
61,19,17,Jits_Phase_5,0,5,63,98,3336443292
61,19,17,Jits_Phase_5,1,5,56,103,3336473116
61,19,17,Jits_Phase_5,2,1,48,59,3336482164
61,19,17,Jits_Phase_5,3,5,80,127,3336533348
61,19,17,Jits_Phase_5,0,1,48,55,3336948096
61,19,17,Jits_Phase_5,1,5,63,98,3337022824
61,19,17,Jits_Phase_5,2,5,56,103,3337033168
61,19,17,Jits_Phase_5,3,5,80,127,3337043424
61,19,17,Jits_Phase_5,0,1,48,94,3337473336
61,19,17,Jits_Phase_5,1,5,56,103,3337482576
61,19,17,Jits_Phase_5,2,5,80,127,3337513296
61,19,17,Jits_Phase_5,3,5,63,98,3337522444
61,19,17,Jits_Phase_5,0,1,48,43,3337970076
61,19,17,Jits_Phase_5,1,5,63,98,3338023232
61,19,17,Jits_Phase_5,2,5,56,103,3338032452
61,19,17,Jits_Phase_5,3,5,80,127,3338053208
61,19,17,Jits_Phase_5,0,5,56,103,3338453392
61,19,17,Jits_Phase_5,1,1,48,57,3338486476
61,19,17,Jits_Phase_5,2,5,63,98,3338512724
61,19,17,Jits_Phase_5,3,5,80,127,3338516088
61,19,17,Jits_Phase_5,0,1,48,58,3338965992
61,19,17,Jits_Phase_5,1,5,80,127,3338972548
61,19,17,Jits_Phase_5,2,5,56,103,3338983040
61,19,17,Jits_Phase_5,3,5,63,98,3339053392
61,19,17,Jits_Phase_5,0,5,80,127,3339463016
61,19,17,Jits_Phase_5,1,1,48,91,3339501276
61,19,17,Jits_Phase_5,2,5,56,103,3339532540
61,19,17,Jits_Phase_5,3,5,63,98,3339543180
61,19,17,Jits_Phase_5,0,1,48,47,3339973692
61,19,17,Jits_Phase_5,1,5,63,98,3340002708
61,19,17,Jits_Phase_5,2,5,56,103,3340013052
61,19,17,Jits_Phase_5,3,5,80,127,3340033288
61,19,17,Jits_Phase_5,0,5,80,127,3340453220
61,19,17,Jits_Phase_5,1,5,63,98,3340512588
61,19,17,Jits_Phase_5,2,1,48,58,3340523728
61,19,17,Jits_Phase_5,3,5,56,103,3340552668
61,19,17,Jits_Phase_5,0,5,56,103,3340993092
61,19,17,Jits_Phase_5,1,5,63,98,3341003212
61,19,17,Jits_Phase_5,2,1,48,58,3341020032
61,19,17,Jits_Phase_5,3,5,80,127,3341043140
61,19,17,Jits_Phase_5,0,5,56,103,3341452676
61,19,17,Jits_Phase_5,1,5,80,127,3341483252
61,19,17,Jits_Phase_5,2,1,48,101,3341517404
61,19,17,Jits_Phase_5,3,5,63,98,3341532572
61,19,17,Jits_Phase_5,0,5,56,103,3341993276
61,19,17,Jits_Phase_5,1,1,48,57,3342010172
61,19,17,Jits_Phase_5,2,5,63,98,3342033232
61,19,17,Jits_Phase_5,3,5,80,127,3342036520
61,19,17,Jits_Phase_5,0,5,56,103,3342503224
61,19,17,Jits_Phase_5,1,5,63,98,3342512448
61,19,17,Jits_Phase_5,2,1,48,55,3342521716
61,19,17,Jits_Phase_5,3,5,80,127,3342532848
61,19,17,Jits_Phase_5,0,5,56,103,3342963052
61,19,17,Jits_Phase_5,1,5,80,127,3342965968
61,19,17,Jits_Phase_5,2,5,63,98,3343003140
61,19,17,Jits_Phase_5,3,1,48,43,3343012332
61,19,17,Jits_Phase_5,0,1,48,81,3343466436
61,19,17,Jits_Phase_5,1,5,63,98,3343502808
61,19,17,Jits_Phase_5,2,5,56,103,3343533380
61,19,17,Jits_Phase_5,3,5,80,127,3343553040
61,19,17,Jits_Phase_5,0,5,80,127,3343972896
61,19,17,Jits_Phase_5,1,5,56,103,3343982944
61,19,17,Jits_Phase_5,2,5,63,98,3343993140
61,19,17,Jits_Phase_5,3,1,48,57,3344000984
61,19,17,Jits_Phase_5,0,5,56,103,3344472288
61,19,17,Jits_Phase_5,1,5,80,127,3344513344
61,19,17,Jits_Phase_5,2,1,48,51,3344535868
61,19,17,Jits_Phase_5,3,5,63,98,3344543084
61,19,17,Jits_Phase_5,0,5,63,98,3344983432
61,19,17,Jits_Phase_5,1,5,80,127,3344992880
61,19,17,Jits_Phase_5,2,1,48,41,3345003372
61,19,17,Jits_Phase_5,3,5,56,103,3345004484
61,19,17,Jits_Phase_5,0,5,56,103,3345472844
61,19,17,Jits_Phase_5,1,1,48,79,3345485476
61,19,17,Jits_Phase_5,2,5,63,98,3345542368
61,19,17,Jits_Phase_5,3,5,80,127,3345552932
61,19,17,Jits_Phase_5,0,5,80,127,3345982944
61,19,17,Jits_Phase_5,1,5,56,103,3345993216
61,19,17,Jits_Phase_5,2,1,48,36,3346007420
61,19,17,Jits_Phase_5,3,5,63,98,3346043184
61,19,17,Jits_Phase_5,0,1,48,46,3346486116
61,19,17,Jits_Phase_5,1,5,80,127,3346493188
61,19,17,Jits_Phase_5,2,5,56,103,3346553204
61,19,17,Jits_Phase_5,3,5,63,98,3346582788
61,19,17,Jits_Phase_5,0,1,48,56,3346988932
61,19,17,Jits_Phase_5,1,5,56,103,3346992564
61,19,17,Jits_Phase_5,2,5,80,127,3346995776
61,19,17,Jits_Phase_5,3,5,63,98,3347032424
61,19,17,Jits_Phase_5,0,1,48,92,3347499984
61,19,17,Jits_Phase_5,1,5,56,103,3347522872
61,19,17,Jits_Phase_5,2,5,63,98,3347552920
61,19,17,Jits_Phase_5,3,5,80,127,3347563040
61,19,17,Jits_Phase_5,0,1,48,55,3348015184
61,19,17,Jits_Phase_5,1,5,63,98,3348032816
61,19,17,Jits_Phase_5,2,5,80,127,3348043164
61,19,17,Jits_Phase_5,3,5,56,103,3348053284
61,19,17,Jits_Phase_5,0,5,80,127,3348482308
61,19,17,Jits_Phase_5,1,1,48,51,3348515392
61,19,17,Jits_Phase_5,2,5,56,103,3348532576
61,19,17,Jits_Phase_5,3,5,63,98,3348535640
61,19,17,Jits_Phase_5,0,1,48,56,3348997456
61,19,17,Jits_Phase_5,1,5,56,103,3349012992
61,19,17,Jits_Phase_5,2,5,80,127,3349033304
61,19,17,Jits_Phase_5,3,5,63,98,3349042452
61,19,17,Jits_Phase_5,0,5,63,98,3349493120
61,19,17,Jits_Phase_5,1,1,48,81,3349512352
61,19,17,Jits_Phase_5,2,5,56,103,3349522860
61,19,17,Jits_Phase_5,3,5,80,127,3349543244
61,19,17,Jits_Phase_5,0,1,48,44,3350001468
61,19,17,Jits_Phase_5,1,5,56,103,3350002904
61,19,17,Jits_Phase_5,2,5,80,127,3350013248
61,19,17,Jits_Phase_5,3,5,63,98,3350083000
61,19,17,Jits_Phase_5,0,5,63,98,3350492548
61,19,17,Jits_Phase_5,1,1,48,58,3350526080
61,19,17,Jits_Phase_5,2,5,80,127,3350532404
61,19,17,Jits_Phase_5,3,5,56,103,3350573388
61,19,17,Jits_Phase_5,0,1,48,51,3350982228
61,19,17,Jits_Phase_5,1,5,56,103,3351002404
61,19,17,Jits_Phase_5,2,5,63,98,3351013048
61,19,17,Jits_Phase_5,3,5,80,127,3351033136
61,19,17,Jits_Phase_5,0,1,48,92,3351465388
61,19,17,Jits_Phase_5,1,5,63,98,3351543132
61,19,17,Jits_Phase_5,2,5,80,127,3351562828
61,19,17,Jits_Phase_5,3,5,56,103,3351583064
61,19,17,Jits_Phase_5,0,5,56,103,3351982336
61,19,17,Jits_Phase_5,1,1,48,56,3352006156
61,19,17,Jits_Phase_5,2,5,80,127,3352063348
61,19,17,Jits_Phase_5,3,5,63,98,3352073092
61,19,17,Jits_Phase_5,0,1,48,43,3352505068
61,19,17,Jits_Phase_5,1,5,80,127,3352523104
61,19,17,Jits_Phase_5,2,5,63,98,3352533300
61,19,17,Jits_Phase_5,3,5,56,103,3352563048
61,19,17,Jits_Phase_5,0,5,63,98,3352982832
61,19,17,Jits_Phase_5,1,1,48,52,3352995612
61,19,17,Jits_Phase_5,2,5,80,127,3353022712
61,19,17,Jits_Phase_5,3,5,56,103,3353083096
61,19,17,Jits_Phase_5,0,5,63,98,3353492992
61,19,17,Jits_Phase_5,1,1,48,105,3353521740
61,19,17,Jits_Phase_5,2,5,56,103,3353542916
61,19,17,Jits_Phase_5,3,5,80,127,3353572960
61,19,17,Jits_Phase_5,0,5,80,127,3353992604
61,19,17,Jits_Phase_5,1,5,63,98,3354002948
61,19,17,Jits_Phase_5,2,1,48,53,3354036412
61,19,17,Jits_Phase_5,3,5,56,103,3354072644
61,19,17,Jits_Phase_5,0,1,48,43,3354550092
61,19,17,Jits_Phase_5,1,5,80,127,3354552676
61,19,17,Jits_Phase_5,2,5,56,103,3354562968
61,19,17,Jits_Phase_5,3,5,63,98,3354565960
61,19,17,Jits_Phase_5,0,5,56,103,3354992868
61,19,17,Jits_Phase_5,1,5,80,127,3355012728
61,19,17,Jits_Phase_5,2,5,63,98,3355022848
61,19,17,Jits_Phase_5,3,1,48,54,3355025816
61,19,17,Jits_Phase_5,0,1,48,92,3355502068
61,19,17,Jits_Phase_5,1,5,63,98,3355503788
61,19,17,Jits_Phase_5,2,5,56,103,3355542976
61,19,17,Jits_Phase_5,3,5,80,127,3355563284
61,19,17,Jits_Phase_5,0,5,63,98,3356002796
61,19,17,Jits_Phase_5,1,1,48,47,3356019692
61,19,17,Jits_Phase_5,2,5,56,103,3356063028
61,19,17,Jits_Phase_5,3,5,80,127,3356066096
61,19,17,Jits_Phase_5,0,5,56,103,3356462684
61,19,17,Jits_Phase_5,1,5,80,127,3356482992
61,19,17,Jits_Phase_5,2,1,48,54,3356511444
61,19,17,Jits_Phase_5,3,5,63,98,3356522848
61,19,17,Jits_Phase_5,0,1,48,63,3356990972
61,19,17,Jits_Phase_5,1,5,56,103,3356992708
61,19,17,Jits_Phase_5,2,5,63,98,3357013464
61,19,17,Jits_Phase_5,3,5,80,127,3357022760
61,19,17,Jits_Phase_5,0,5,80,127,3357462940
61,19,17,Jits_Phase_5,1,1,48,97,3357466432
61,19,17,Jits_Phase_5,2,5,56,103,3357492684
61,19,17,Jits_Phase_5,3,5,63,98,3357532696
61,19,17,Jits_Phase_5,0,5,80,127,3357972816
61,19,17,Jits_Phase_5,1,1,48,52,3357988592
61,19,17,Jits_Phase_5,2,5,56,103,3357993420
61,19,17,Jits_Phase_5,3,5,63,98,3358052688
61,19,17,Jits_Phase_5,0,5,56,103,3358482848
61,19,17,Jits_Phase_5,1,1,48,51,3358489708
61,19,17,Jits_Phase_5,2,5,80,127,3358503372
61,19,17,Jits_Phase_5,3,5,63,98,3358562640
61,19,17,Jits_Phase_5,0,5,80,127,3358962980
61,19,17,Jits_Phase_5,1,5,56,103,3358973248
61,19,17,Jits_Phase_5,2,1,48,45,3358985808
61,19,17,Jits_Phase_5,3,5,63,98,3359013180
61,19,17,Jits_Phase_5,0,5,63,98,3359462812
61,19,17,Jits_Phase_5,1,1,48,107,3359480836
61,19,17,Jits_Phase_5,2,5,56,103,3359502668
61,19,17,Jits_Phase_5,3,5,80,127,3359505736
61,19,17,Jits_Phase_5,0,5,63,98,3359982940
61,19,17,Jits_Phase_5,1,1,48,55,3359993852
61,19,17,Jits_Phase_5,2,5,80,127,3360022944
61,19,17,Jits_Phase_5,3,5,56,103,3360052472
61,19,17,Jits_Phase_5,0,5,56,103,3360472576
61,19,17,Jits_Phase_5,1,5,63,98,3360482700
61,19,17,Jits_Phase_5,2,1,48,39,3360511676
61,19,17,Jits_Phase_5,3,5,80,127,3360513412
61,19,17,Jits_Phase_5,0,5,80,127,3360962896
61,19,17,Jits_Phase_5,1,1,48,56,3360972916
61,19,17,Jits_Phase_5,2,5,63,98,3361032716
61,19,17,Jits_Phase_5,3,5,56,103,3361042692
61,19,17,Jits_Phase_5,0,5,63,98,3361462704
61,19,17,Jits_Phase_5,1,1,48,77,3361503012
61,19,17,Jits_Phase_5,2,5,56,103,3361533524
61,19,17,Jits_Phase_5,3,5,80,127,3361542452
61,19,17,Jits_Phase_5,0,5,63,98,3361942828
61,19,17,Jits_Phase_5,1,5,56,103,3361963436
61,19,17,Jits_Phase_5,2,1,48,60,3361976816
61,19,17,Jits_Phase_5,3,5,80,127,3362003312
61,19,17,Jits_Phase_5,0,5,56,103,3362423020
61,19,17,Jits_Phase_5,1,5,63,98,3362433664
61,19,17,Jits_Phase_5,2,1,48,41,3362457836
61,19,17,Jits_Phase_5,3,5,80,127,3362513252
61,19,17,Jits_Phase_5,0,5,63,98,3362912668
61,19,17,Jits_Phase_5,1,1,48,44,3362926496
61,19,17,Jits_Phase_5,2,5,56,103,3362943384
61,19,17,Jits_Phase_5,3,5,80,127,3362983468
61,19,17,Jits_Phase_5,0,5,56,103,3363413464
61,19,17,Jits_Phase_5,1,1,48,94,3363422360
61,19,17,Jits_Phase_5,2,5,63,98,3363453396
61,19,17,Jits_Phase_5,3,5,80,127,3363493256
61,19,17,Jits_Phase_5,0,5,80,127,3363913076
61,19,17,Jits_Phase_5,1,1,48,44,3363924212
61,19,17,Jits_Phase_5,2,5,56,103,3363992936
61,19,17,Jits_Phase_5,3,5,63,98,3364003132
61,19,17,Jits_Phase_5,0,1,48,54,3364410644
61,19,17,Jits_Phase_5,1,5,56,103,3364452836
61,19,17,Jits_Phase_5,2,5,63,98,3364455828
61,19,17,Jits_Phase_5,3,5,80,127,3364462960
61,19,17,Jits_Phase_5,0,1,48,53,3364904824
61,19,17,Jits_Phase_5,1,5,56,103,3364972884
61,19,17,Jits_Phase_5,2,5,63,98,3364993640
61,19,17,Jits_Phase_5,3,5,80,127,3365002476
61,19,17,Jits_Phase_5,0,1,48,83,3365424512
61,19,17,Jits_Phase_5,1,5,63,98,3365432776
61,19,17,Jits_Phase_5,2,5,80,127,3365442972
61,19,17,Jits_Phase_5,3,5,56,103,3365463356
61,19,17,Jits_Phase_5,0,5,63,98,3365933576
61,19,17,Jits_Phase_5,1,1,48,51,3365947856
61,19,17,Jits_Phase_5,2,5,56,103,3366013436
61,19,17,Jits_Phase_5,3,5,80,127,3366016580
61,19,17,Jits_Phase_5,0,1,48,51,3366432040
61,19,17,Jits_Phase_5,1,5,63,98,3366433612
61,19,17,Jits_Phase_5,2,5,56,103,3366452576
61,19,17,Jits_Phase_5,3,5,80,127,3366483520
61,19,17,Jits_Phase_5,0,5,56,103,3366932840
61,19,17,Jits_Phase_5,1,1,48,53,3366942860
61,19,17,Jits_Phase_5,2,5,63,98,3366953444
61,19,17,Jits_Phase_5,3,5,80,127,3366962516
61,19,17,Jits_Phase_5,0,1,48,97,3367466576
61,19,17,Jits_Phase_5,1,5,56,103,3367472600
61,19,17,Jits_Phase_5,2,5,63,98,3367503468
61,19,17,Jits_Phase_5,3,5,80,127,3367506908
61,19,17,Jits_Phase_5,0,5,56,103,3367922976
61,19,17,Jits_Phase_5,1,5,63,98,3367962988
61,19,17,Jits_Phase_5,2,1,48,52,3367995248
61,19,17,Jits_Phase_5,3,5,80,127,3368023368
61,19,17,Jits_Phase_5,0,5,56,103,3368443416
61,19,17,Jits_Phase_5,1,5,63,98,3368452420
61,19,17,Jits_Phase_5,2,1,48,39,3368456056
61,19,17,Jits_Phase_5,3,5,80,127,3368512872
61,19,17,Jits_Phase_5,0,5,56,103,3368942884
61,19,17,Jits_Phase_5,1,1,48,39,3368948692
61,19,17,Jits_Phase_5,2,5,80,127,3368962660
61,19,17,Jits_Phase_5,3,5,63,98,3368993232
61,19,17,Jits_Phase_5,0,5,80,127,3369442648
61,19,17,Jits_Phase_5,1,1,48,102,3369449956
61,19,17,Jits_Phase_5,2,5,56,103,3369452984
61,19,17,Jits_Phase_5,3,5,63,98,3369473372
61,19,17,Jits_Phase_5,0,1,48,45,3369927024
61,19,17,Jits_Phase_5,1,5,63,98,3369933344
61,19,17,Jits_Phase_5,2,5,80,127,3370012992
61,19,17,Jits_Phase_5,3,5,56,103,3370023468
61,19,17,Jits_Phase_5,0,1,48,56,3370454500
61,19,17,Jits_Phase_5,1,5,80,127,3370522856
61,19,17,Jits_Phase_5,2,5,56,103,3370542564
61,19,17,Jits_Phase_5,3,5,63,98,3370545552
61,19,17,Jits_Phase_5,0,1,48,58,3370947272
61,19,17,Jits_Phase_5,1,5,63,98,3371012480
61,19,17,Jits_Phase_5,2,5,80,127,3371015844
61,19,17,Jits_Phase_5,3,5,56,103,3371072852
61,19,17,Jits_Phase_5,0,1,48,99,3371461332
61,19,17,Jits_Phase_5,1,5,56,103,3371492672
61,19,17,Jits_Phase_5,2,5,80,127,3371502868
61,19,17,Jits_Phase_5,3,5,63,98,3371542952
61,19,17,Jits_Phase_5,0,5,56,103,3371972944
61,19,17,Jits_Phase_5,1,1,48,60,3372002664
61,19,17,Jits_Phase_5,2,5,63,98,3372033328
61,19,17,Jits_Phase_5,3,5,80,127,3372042552
61,19,17,Jits_Phase_5,0,1,48,51,3372474296
61,19,17,Jits_Phase_5,1,5,63,98,3372482964
61,19,17,Jits_Phase_5,2,5,80,127,3372523052
61,19,17,Jits_Phase_5,3,5,56,103,3372562764
61,19,17,Jits_Phase_5,0,1,48,39,3372955164
61,19,17,Jits_Phase_5,1,5,56,103,3372982688
61,19,17,Jits_Phase_5,2,5,63,98,3373062564
61,19,17,Jits_Phase_5,3,5,80,127,3373065704
61,19,17,Jits_Phase_5,0,1,48,92,3373471244
61,19,17,Jits_Phase_5,1,5,80,127,3373542764
61,19,17,Jits_Phase_5,2,5,56,103,3373572420
61,19,17,Jits_Phase_5,3,5,63,98,3373575412
61,19,17,Jits_Phase_5,0,1,48,53,3374001356
61,19,17,Jits_Phase_5,1,5,56,103,3374002776
61,19,17,Jits_Phase_5,2,5,80,127,3374023112
61,19,17,Jits_Phase_5,3,5,63,98,3374062976
61,19,17,Jits_Phase_5,0,1,48,50,3374481168
61,19,17,Jits_Phase_5,1,5,80,127,3374482752
61,19,17,Jits_Phase_5,2,5,63,98,3374503432
61,19,17,Jits_Phase_5,3,5,56,103,3374562800
61,19,17,Jits_Phase_5,0,1,48,48,3374962092
61,19,17,Jits_Phase_5,1,5,63,98,3374992832
61,19,17,Jits_Phase_5,2,5,56,103,3375003400
61,19,17,Jits_Phase_5,3,5,80,127,3375054280
61,19,17,Jits_Phase_5,0,5,56,103,3375483148
61,19,17,Jits_Phase_5,1,1,48,86,3375497352
61,19,17,Jits_Phase_5,2,5,63,98,3375502776
61,19,17,Jits_Phase_5,3,5,80,127,3375512896
61,19,17,Jits_Phase_5,0,5,56,103,3375972864
61,19,17,Jits_Phase_5,1,5,63,98,3375975932
61,19,17,Jits_Phase_5,2,1,48,45,3375981688
61,19,17,Jits_Phase_5,3,5,80,127,3375993240
61,19,17,Jits_Phase_5,0,1,48,40,3376476776
61,19,17,Jits_Phase_5,1,5,63,98,3376513364
61,19,17,Jits_Phase_5,2,5,56,103,3376543188
61,19,17,Jits_Phase_5,3,5,80,127,3376572888
61,19,17,Jits_Phase_5,0,1,48,44,3376958768
61,19,17,Jits_Phase_5,1,5,80,127,3376973336
61,19,17,Jits_Phase_5,2,5,56,103,3377063448
61,19,17,Jits_Phase_5,3,5,63,98,3377066440
61,19,17,Jits_Phase_5,0,1,48,90,3377470044
61,19,17,Jits_Phase_5,1,5,56,103,3377472848
61,19,17,Jits_Phase_5,2,5,80,127,3377475840
61,19,17,Jits_Phase_5,3,5,63,98,3377552712
61,19,17,Jits_Phase_5,0,5,80,127,3377972520
61,19,17,Jits_Phase_5,1,1,48,57,3377993772
61,19,17,Jits_Phase_5,2,5,63,98,3378033128
61,19,17,Jits_Phase_5,3,5,56,103,3378062652
61,19,17,Jits_Phase_5,0,5,63,98,3378473180
61,19,17,Jits_Phase_5,1,5,80,127,3378482480
61,19,17,Jits_Phase_5,2,1,48,48,3378485300
61,19,17,Jits_Phase_5,3,5,56,103,3378553196
61,19,17,Jits_Phase_5,0,1,48,46,3378978356
61,19,17,Jits_Phase_5,1,5,56,103,3379032408
61,19,17,Jits_Phase_5,2,5,80,127,3379063352
61,19,17,Jits_Phase_5,3,5,63,98,3379113388
61,19,17,Jits_Phase_5,0,1,48,90,3379563596
61,19,17,Jits_Phase_5,1,5,63,98,3379632396
61,19,17,Jits_Phase_5,2,5,56,103,3379664416
61,19,17,Jits_Phase_5,3,5,80,127,3379667240
61,19,17,Jits_Phase_5,0,5,63,98,3380133340
61,19,17,Jits_Phase_5,1,1,48,46,3380142164
61,19,17,Jits_Phase_5,2,5,80,127,3380152672
61,19,17,Jits_Phase_5,3,5,56,103,3380162892
61,19,17,Jits_Phase_5,0,1,48,52,3380641068
61,19,17,Jits_Phase_5,1,5,56,103,3380643196
61,19,17,Jits_Phase_5,2,5,63,98,3380646408
61,19,17,Jits_Phase_5,3,5,80,127,3380662756
61,19,17,Jits_Phase_5,0,5,56,103,3381092604
61,19,17,Jits_Phase_5,1,5,63,98,3381103168
61,19,17,Jits_Phase_5,2,5,80,127,3381132696
61,19,17,Jits_Phase_5,3,1,48,47,3381163088
61,19,17,Jits_Phase_5,0,5,63,98,3381612964
61,19,17,Jits_Phase_5,1,5,80,127,3381633348
61,19,17,Jits_Phase_5,2,1,48,89,3381664040
61,19,17,Jits_Phase_5,3,5,56,103,3381673424
61,19,17,Jits_Phase_5,0,1,48,46,3382126688
61,19,17,Jits_Phase_5,1,5,56,103,3382143272
61,19,17,Jits_Phase_5,2,5,63,98,3382183208
61,19,17,Jits_Phase_5,3,5,80,127,3382186424
61,19,17,Jits_Phase_5,0,5,80,127,3382582640
61,19,17,Jits_Phase_5,1,5,56,103,3382622504
61,19,17,Jits_Phase_5,2,1,48,42,3382667044
61,19,17,Jits_Phase_5,3,5,63,98,3382672620
61,19,17,Jits_Phase_5,0,1,48,43,3383140964
61,19,17,Jits_Phase_5,1,5,56,103,3383142704
61,19,17,Jits_Phase_5,2,5,80,127,3383153268
61,19,17,Jits_Phase_5,3,5,63,98,3383182648
61,19,17,Jits_Phase_5,0,5,56,103,3383593240
61,19,17,Jits_Phase_5,1,5,80,127,3383633252
61,19,17,Jits_Phase_5,2,1,48,87,3383667160
61,19,17,Jits_Phase_5,3,5,63,98,3383682472
61,19,17,Jits_Phase_5,0,5,56,103,3384093300
61,19,17,Jits_Phase_5,1,5,80,127,3384133240
61,19,17,Jits_Phase_5,2,1,48,43,3384163856
61,19,17,Jits_Phase_5,3,5,63,98,3384183132
61,19,17,Jits_Phase_5,0,5,80,127,3384582504
61,19,17,Jits_Phase_5,1,1,48,51,3384648100
61,19,17,Jits_Phase_5,2,5,63,98,3384663416
61,19,17,Jits_Phase_5,3,5,56,103,3384672488
61,19,17,Jits_Phase_5,0,5,80,127,3385133364
61,19,17,Jits_Phase_5,1,5,56,103,3385142588
61,19,17,Jits_Phase_5,2,1,48,52,3385146756
61,19,17,Jits_Phase_5,3,5,63,98,3385163188
61,19,17,Jits_Phase_5,0,5,63,98,3385602412
61,19,17,Jits_Phase_5,1,5,56,103,3385673140
61,19,17,Jits_Phase_5,2,1,48,84,3385674120
61,19,17,Jits_Phase_5,3,5,80,127,3385677544
61,19,17,Jits_Phase_5,0,5,80,127,3386093088
61,19,17,Jits_Phase_5,1,5,63,98,3386143140
61,19,17,Jits_Phase_5,2,5,56,103,3386183000
61,19,17,Jits_Phase_5,3,1,48,50,3386185668
61,19,17,Jits_Phase_5,0,5,63,98,3386632416
61,19,17,Jits_Phase_5,1,5,56,103,3386672428
61,19,17,Jits_Phase_5,2,5,80,127,3386682920
61,19,17,Jits_Phase_5,3,1,48,50,3386693532
61,19,17,Jits_Phase_5,0,5,63,98,3387123172
61,19,17,Jits_Phase_5,1,5,56,103,3387142360
61,19,17,Jits_Phase_5,2,5,80,127,3387163412
61,19,17,Jits_Phase_5,3,1,48,49,3387183396
61,19,17,Jits_Phase_5,0,5,80,127,3387582992
61,19,17,Jits_Phase_5,1,5,56,103,3387593188
61,19,17,Jits_Phase_5,2,5,63,98,3387612600
61,19,17,Jits_Phase_5,3,1,48,95,3387682096
61,19,17,Jits_Phase_5,0,5,63,98,3388113172
61,19,17,Jits_Phase_5,1,5,56,103,3388153260
61,19,17,Jits_Phase_5,2,1,48,50,3388155932
61,19,17,Jits_Phase_5,3,5,80,127,3388182924
61,19,17,Jits_Phase_5,0,5,56,103,3388573116
61,19,17,Jits_Phase_5,1,5,63,98,3388602792
61,19,17,Jits_Phase_5,2,5,80,127,3388632340
61,19,17,Jits_Phase_5,3,1,48,49,3388637924
61,19,17,Jits_Phase_5,0,5,80,127,3388993028
61,19,17,Jits_Phase_5,1,5,56,103,3389062632
61,19,17,Jits_Phase_5,2,5,63,98,3389065772
61,19,17,Jits_Phase_5,3,1,48,51,3389089040
61,19,17,Jits_Phase_5,0,5,56,103,3389502972
61,19,17,Jits_Phase_5,1,5,63,98,3389552876
61,19,17,Jits_Phase_5,2,1,48,77,3389572704
61,19,17,Jits_Phase_5,3,5,80,127,3389582988
61,19,17,Jits_Phase_5,0,5,63,98,3389983032
61,19,17,Jits_Phase_5,1,5,80,127,3389986468
61,19,17,Jits_Phase_5,2,5,56,103,3390042448
61,19,17,Jits_Phase_5,3,1,48,54,3390051344
61,19,17,Jits_Phase_5,0,5,56,103,3390512364
61,19,17,Jits_Phase_5,1,5,80,127,3390523008
61,19,17,Jits_Phase_5,2,1,48,36,3390555868
61,19,17,Jits_Phase_5,3,5,63,98,3390572904
61,19,17,Jits_Phase_5,0,5,63,98,3390982464
61,19,17,Jits_Phase_5,1,5,56,103,3390992732
61,19,17,Jits_Phase_5,2,1,48,50,3391006336
61,19,17,Jits_Phase_5,3,5,80,127,3391022324
61,19,17,Jits_Phase_5,0,5,63,98,3391513068
61,19,17,Jits_Phase_5,1,5,80,127,3391516284
61,19,17,Jits_Phase_5,2,1,48,81,3391518880
61,19,17,Jits_Phase_5,3,5,56,103,3391542584
61,19,17,Jits_Phase_5,0,1,48,50,3392022672
61,19,17,Jits_Phase_5,1,5,63,98,3392033180
61,19,17,Jits_Phase_5,2,5,56,103,3392052516
61,19,17,Jits_Phase_5,3,5,80,127,3392055580
61,19,17,Jits_Phase_5,0,5,63,98,3392492844
61,19,17,Jits_Phase_5,1,1,48,43,3392505700
61,19,17,Jits_Phase_5,2,5,56,103,3392562444
61,19,17,Jits_Phase_5,3,5,80,127,3392583052
61,19,17,Jits_Phase_5,0,5,56,103,3392983380
61,19,17,Jits_Phase_5,1,5,63,98,3392992900
61,19,17,Jits_Phase_5,2,1,48,51,3393016920
61,19,17,Jits_Phase_5,3,5,80,127,3393082944
61,19,17,Jits_Phase_5,0,5,56,103,3393502696
61,19,17,Jits_Phase_5,1,1,48,89,3393506184
61,19,17,Jits_Phase_5,2,5,80,127,3393542476
61,19,17,Jits_Phase_5,3,5,63,98,3393552896
61,19,17,Jits_Phase_5,0,5,56,103,3394023060
61,19,17,Jits_Phase_5,1,1,48,53,3394034052
61,19,17,Jits_Phase_5,2,5,63,98,3394052432
61,19,17,Jits_Phase_5,3,5,80,127,3394083152
61,19,17,Jits_Phase_5,0,5,80,127,3394482948
61,19,17,Jits_Phase_5,1,1,48,54,3394515904
61,19,17,Jits_Phase_5,2,5,63,98,3394522680
61,19,17,Jits_Phase_5,3,5,56,103,3394543064
61,19,17,Jits_Phase_5,0,5,56,103,3395023192
61,19,17,Jits_Phase_5,1,1,48,45,3395031488
61,19,17,Jits_Phase_5,2,5,80,127,3395042896
61,19,17,Jits_Phase_5,3,5,63,98,3395063056
61,19,17,Jits_Phase_5,0,5,63,98,3395493116
61,19,17,Jits_Phase_5,1,5,56,103,3395502636
61,19,17,Jits_Phase_5,2,5,80,127,3395562752
61,19,17,Jits_Phase_5,3,1,48,84,3395572688
61,19,17,Jits_Phase_5,0,5,56,103,3395993012
61,19,17,Jits_Phase_5,1,1,48,45,3396023780
61,19,17,Jits_Phase_5,2,5,63,98,3396062712
61,19,17,Jits_Phase_5,3,5,80,127,3396083020
61,19,17,Jits_Phase_5,0,5,56,103,3396492700
61,19,17,Jits_Phase_5,1,1,48,45,3396517316
61,19,17,Jits_Phase_5,2,5,63,98,3396523340
61,19,17,Jits_Phase_5,3,5,80,127,3396563376
61,19,17,Jits_Phase_5,0,5,63,98,3396983100
61,19,17,Jits_Phase_5,1,1,48,43,3397010184
61,19,17,Jits_Phase_5,2,5,56,103,3397033368
61,19,17,Jits_Phase_5,3,5,80,127,3397042888
61,19,17,Jits_Phase_5,0,1,48,80,3397496592
61,19,17,Jits_Phase_5,1,5,56,103,3397522920
61,19,17,Jits_Phase_5,2,5,63,98,3397573000
61,19,17,Jits_Phase_5,3,5,80,127,3397583120
61,19,17,Jits_Phase_5,0,5,56,103,3397992940
61,19,17,Jits_Phase_5,1,5,63,98,3398003136
61,19,17,Jits_Phase_5,2,1,48,42,3398044988
61,19,17,Jits_Phase_5,3,5,80,127,3398082796
61,19,17,Jits_Phase_5,0,9999,9999,9999,3313730684
61,19,17,Jits_Phase_5,1,9999,9999,9999,3314230396
61,19,17,Jits_Phase_5,2,9999,9999,9999,3314731096
61,19,17,Jits_Phase_5,3,9999,9999,9999,3315241088
61,19,17,Jits_Phase_5,4,9999,9999,9999,3315740784
61,19,17,Jits_Phase_5,5,9999,9999,9999,3316240464
61,19,17,Jits_Phase_5,6,9999,9999,9999,3316740212
61,19,17,Jits_Phase_5,7,9999,9999,9999,3317240952
61,19,17,Jits_Phase_5,8,9999,9999,9999,3317740644
61,19,17,Jits_Phase_5,9,9999,9999,9999,3318240332
61,19,17,Jits_Phase_5,10,9999,9999,9999,3318741068
61,19,17,Jits_Phase_5,11,9999,9999,9999,3319240832
61,19,17,Jits_Phase_5,12,9999,9999,9999,3319740476
61,19,17,Jits_Phase_5,13,9999,9999,9999,3320240216
61,19,17,Jits_Phase_5,14,9999,9999,9999,3320740940
61,19,17,Jits_Phase_5,15,9999,9999,9999,3321240676
61,19,17,Jits_Phase_5,16,9999,9999,9999,3321740368
61,19,17,Jits_Phase_5,17,9999,9999,9999,3322240120
61,19,17,Jits_Phase_5,18,9999,9999,9999,3322740852
61,19,17,Jits_Phase_5,19,9999,9999,9999,3323240544
61,19,17,Jits_Phase_5,20,9999,9999,9999,3323740220
61,19,17,Jits_Phase_5,21,9999,9999,9999,3324241016
61,19,17,Jits_Phase_5,22,9999,9999,9999,3324740704
61,19,17,Jits_Phase_5,23,9999,9999,9999,3325240396
61,19,17,Jits_Phase_5,24,9999,9999,9999,3325740088
61,19,17,Jits_Phase_5,25,9999,9999,9999,3326240892
61,19,17,Jits_Phase_5,26,9999,9999,9999,3326740568
61,19,17,Jits_Phase_5,27,9999,9999,9999,3327240312
61,19,17,Jits_Phase_5,28,9999,9999,9999,3327741052
61,19,17,Jits_Phase_5,29,9999,9999,9999,3328240740
61,19,17,Jits_Phase_5,30,9999,9999,9999,3328730172
61,19,17,Jits_Phase_5,31,9999,9999,9999,3329230912
61,19,17,Jits_Phase_5,32,9999,9999,9999,3329730656
61,19,17,Jits_Phase_5,33,9999,9999,9999,3330230380
61,19,17,Jits_Phase_5,34,9999,9999,9999,3330731108
61,19,17,Jits_Phase_5,35,9999,9999,9999,3331241048
61,19,17,Jits_Phase_5,36,9999,9999,9999,3331740784
61,19,17,Jits_Phase_5,37,9999,9999,9999,3332240460
61,19,17,Jits_Phase_5,38,9999,9999,9999,3332740152
61,19,17,Jits_Phase_5,39,9999,9999,9999,3333240952
61,19,17,Jits_Phase_5,40,9999,9999,9999,3333740628
61,19,17,Jits_Phase_5,41,9999,9999,9999,3334240324
61,19,17,Jits_Phase_5,42,9999,9999,9999,3334741060
61,19,17,Jits_Phase_5,43,9999,9999,9999,3335240808
61,19,17,Jits_Phase_5,44,9999,9999,9999,3335740480
61,19,17,Jits_Phase_5,45,9999,9999,9999,3336240252
61,19,17,Jits_Phase_5,46,9999,9999,9999,3336740976
61,19,17,Jits_Phase_5,47,9999,9999,9999,3337240656
61,19,17,Jits_Phase_5,48,9999,9999,9999,3337750596
61,19,17,Jits_Phase_5,49,9999,9999,9999,3338250352
61,19,17,Jits_Phase_5,50,9999,9999,9999,3338751064
61,19,17,Jits_Phase_5,51,9999,9999,9999,3339250760
61,19,17,Jits_Phase_5,52,9999,9999,9999,3339750512
61,19,17,Jits_Phase_5,53,9999,9999,9999,3340250204
61,19,17,Jits_Phase_5,54,9999,9999,9999,3340750928
61,19,17,Jits_Phase_5,55,9999,9999,9999,3341250620
61,19,17,Jits_Phase_5,56,9999,9999,9999,3341750360
61,19,17,Jits_Phase_5,57,9999,9999,9999,3342251096
61,19,17,Jits_Phase_5,58,9999,9999,9999,3342761052
61,19,17,Jits_Phase_5,59,9999,9999,9999,3343260800
61,19,17,Jits_Phase_5,60,9999,9999,9999,3343760492
61,19,17,Jits_Phase_5,61,9999,9999,9999,3344260164
61,19,17,Jits_Phase_5,62,9999,9999,9999,3344760900
61,19,17,Jits_Phase_5,63,9999,9999,9999,3345260660
61,19,17,Jits_Phase_5,64,9999,9999,9999,3345780864
61,19,17,Jits_Phase_5,65,9999,9999,9999,3346280552
61,19,17,Jits_Phase_5,66,9999,9999,9999,3346780244
61,19,17,Jits_Phase_5,67,9999,9999,9999,3347280952
61,19,17,Jits_Phase_5,68,9999,9999,9999,3347780708
61,19,17,Jits_Phase_5,69,9999,9999,9999,3348280388
61,19,17,Jits_Phase_5,70,9999,9999,9999,3348780128
61,19,17,Jits_Phase_5,71,9999,9999,9999,3349280864
61,19,17,Jits_Phase_5,72,9999,9999,9999,3349780536
61,19,17,Jits_Phase_5,73,9999,9999,9999,3350280288
61,19,17,Jits_Phase_5,74,9999,9999,9999,3350781012
61,19,17,Jits_Phase_5,75,9999,9999,9999,3351280764
61,19,17,Jits_Phase_5,76,9999,9999,9999,3351780444
61,19,17,Jits_Phase_5,77,9999,9999,9999,3352280124
61,19,17,Jits_Phase_5,78,9999,9999,9999,3352780860
61,19,17,Jits_Phase_5,79,9999,9999,9999,3353280612
61,19,17,Jits_Phase_5,80,9999,9999,9999,3353780340
61,19,17,Jits_Phase_5,81,9999,9999,9999,3354260544
61,19,17,Jits_Phase_5,82,9999,9999,9999,3354760308
61,19,17,Jits_Phase_5,83,9999,9999,9999,3355261032
61,19,17,Jits_Phase_5,84,9999,9999,9999,3355760724
61,19,17,Jits_Phase_5,85,9999,9999,9999,3356260468
61,19,17,Jits_Phase_5,86,9999,9999,9999,3356760140
61,19,17,Jits_Phase_5,87,9999,9999,9999,3357260876
61,19,17,Jits_Phase_5,88,9999,9999,9999,3357760624
61,19,17,Jits_Phase_5,89,9999,9999,9999,3358260312
61,19,17,Jits_Phase_5,90,9999,9999,9999,3358761048
61,19,17,Jits_Phase_5,91,9999,9999,9999,3359260732
61,19,17,Jits_Phase_5,92,9999,9999,9999,3359760488
61,19,17,Jits_Phase_5,93,9999,9999,9999,3360260172
61,19,17,Jits_Phase_5,94,9999,9999,9999,3360760892
61,19,17,Jits_Phase_5,95,9999,9999,9999,3361260652
61,19,17,Jits_Phase_5,96,9999,9999,9999,3361760340
61,19,17,Jits_Phase_5,97,9999,9999,9999,3362210916
61,19,17,Jits_Phase_5,98,9999,9999,9999,3362710588
61,19,17,Jits_Phase_5,99,9999,9999,9999,3363210352
61,19,17,Jits_Phase_5,100,9999,9999,9999,3363711068
61,19,17,Jits_Phase_5,101,9999,9999,9999,3364210760
61,19,17,Jits_Phase_5,102,9999,9999,9999,3364710512
61,19,17,Jits_Phase_5,103,9999,9999,9999,3365210192
61,19,17,Jits_Phase_5,104,9999,9999,9999,3365710912
61,19,17,Jits_Phase_5,105,9999,9999,9999,3366210652
61,19,17,Jits_Phase_5,106,9999,9999,9999,3366710328
61,19,17,Jits_Phase_5,107,9999,9999,9999,3367211116
61,19,17,Jits_Phase_5,108,9999,9999,9999,3367721060
61,19,17,Jits_Phase_5,109,9999,9999,9999,3368220736
61,19,17,Jits_Phase_5,110,9999,9999,9999,3368720500
61,19,17,Jits_Phase_5,111,9999,9999,9999,3369220188
61,19,17,Jits_Phase_5,112,9999,9999,9999,3369720924
61,19,17,Jits_Phase_5,113,9999,9999,9999,3370220624
61,19,17,Jits_Phase_5,114,9999,9999,9999,3370770492
61,19,17,Jits_Phase_5,115,9999,9999,9999,3371270236
61,19,17,Jits_Phase_5,116,9999,9999,9999,3371770956
61,19,17,Jits_Phase_5,117,9999,9999,9999,3372270704
61,19,17,Jits_Phase_5,118,9999,9999,9999,3372770392
61,19,17,Jits_Phase_5,119,9999,9999,9999,3373270132
61,19,17,Jits_Phase_5,120,9999,9999,9999,3373770852
61,19,17,Jits_Phase_5,121,9999,9999,9999,3374270528
61,19,17,Jits_Phase_5,122,9999,9999,9999,3374770252
61,19,17,Jits_Phase_5,123,9999,9999,9999,3375270968
61,19,17,Jits_Phase_5,124,9999,9999,9999,3375770712
61,19,17,Jits_Phase_5,125,9999,9999,9999,3376270460
61,19,17,Jits_Phase_5,126,9999,9999,9999,3376770152
61,19,17,Jits_Phase_5,127,9999,9999,9999,3377270868
61,19,17,Jits_Phase_5,128,9999,9999,9999,3377770604
61,19,17,Jits_Phase_5,129,9999,9999,9999,3378270276
61,19,17,Jits_Phase_5,130,9999,9999,9999,3378771008
61,19,17,Jits_Phase_5,131,9999,9999,9999,3379371072
61,19,17,Jits_Phase_5,132,9999,9999,9999,3379881076
61,19,17,Jits_Phase_5,133,9999,9999,9999,3380380756
61,19,17,Jits_Phase_5,134,9999,9999,9999,3380880496
61,19,17,Jits_Phase_5,135,9999,9999,9999,3381380168
61,19,17,Jits_Phase_5,136,9999,9999,9999,3381880904
61,19,17,Jits_Phase_5,137,9999,9999,9999,3382380648
61,19,17,Jits_Phase_5,138,9999,9999,9999,3382880320
61,19,17,Jits_Phase_5,139,9999,9999,9999,3383381060
61,19,17,Jits_Phase_5,140,9999,9999,9999,3383880808
61,19,17,Jits_Phase_5,141,9999,9999,9999,3384380500
61,19,17,Jits_Phase_5,142,9999,9999,9999,3384880192
61,19,17,Jits_Phase_5,143,9999,9999,9999,3385380928
61,19,17,Jits_Phase_5,144,9999,9999,9999,3385880684
61,19,17,Jits_Phase_5,145,9999,9999,9999,3386380360
61,19,17,Jits_Phase_5,146,9999,9999,9999,3386880128
61,19,17,Jits_Phase_5,147,9999,9999,9999,3387380852
61,19,17,Jits_Phase_5,148,9999,9999,9999,3387880524
61,19,17,Jits_Phase_5,149,9999,9999,9999,3388380216
61,19,17,Jits_Phase_5,150,9999,9999,9999,3388780608
61,19,17,Jits_Phase_5,151,9999,9999,9999,3389280364
61,19,17,Jits_Phase_5,152,9999,9999,9999,3389781104
61,19,17,Jits_Phase_5,153,9999,9999,9999,3390280776
61,19,17,Jits_Phase_5,154,9999,9999,9999,3390780532
61,19,17,Jits_Phase_5,155,9999,9999,9999,3391280216
61,19,17,Jits_Phase_5,156,9999,9999,9999,3391780924
61,19,17,Jits_Phase_5,157,9999,9999,9999,3392280668
61,19,17,Jits_Phase_5,158,9999,9999,9999,3392780340
61,19,17,Jits_Phase_5,159,9999,9999,9999,3393280088
61,19,17,Jits_Phase_5,160,9999,9999,9999,3393780824
61,19,17,Jits_Phase_5,161,9999,9999,9999,3394280520
61,19,17,Jits_Phase_5,162,9999,9999,9999,3394780280
61,19,17,Jits_Phase_5,163,9999,9999,9999,3395281020
61,19,17,Jits_Phase_5,164,9999,9999,9999,3395780708
61,19,17,Jits_Phase_5,165,9999,9999,9999,3396280436
61,19,17,Jits_Phase_5,166,9999,9999,9999,3396780120
61,19,17,Jits_Phase_5,167,9999,9999,9999,3397280856
61,19,17,Jits_Phase_5,168,9999,9999,9999,3397780536
61,19,17,Jits_Phase_5,169,9999,9999,9999,3398280284
61,20,15,Jits_Phase_8,0,5,56,103,3408274808
61,20,15,Jits_Phase_8,1,5,63,98,3408277904
61,20,15,Jits_Phase_8,2,5,80,127,3408280956
61,20,15,Jits_Phase_8,0,5,56,103,3409074672
61,20,15,Jits_Phase_8,1,5,63,98,3409077620
61,20,15,Jits_Phase_8,2,5,80,127,3409080668
61,20,15,Jits_Phase_8,0,5,80,127,3409814916
61,20,15,Jits_Phase_8,1,5,63,98,3409905004
61,20,15,Jits_Phase_8,2,5,56,103,3409915348
61,20,15,Jits_Phase_8,0,5,56,103,3410634984
61,20,15,Jits_Phase_8,1,5,63,98,3410645624
61,20,15,Jits_Phase_8,2,5,80,127,3410734560
61,20,15,Jits_Phase_8,0,5,63,98,3411405048
61,20,15,Jits_Phase_8,1,1,48,71,3411423536
61,20,15,Jits_Phase_8,2,5,80,127,3411434792
61,20,15,Jits_Phase_8,3,5,56,103,3411464468
61,20,15,Jits_Phase_8,0,1,48,70,3412182296
61,20,15,Jits_Phase_8,1,5,56,103,3412205016
61,20,15,Jits_Phase_8,2,5,80,127,3412305548
61,20,15,Jits_Phase_8,3,5,63,98,3412354628
61,20,15,Jits_Phase_8,0,1,48,80,3412986024
61,20,15,Jits_Phase_8,1,5,56,103,3413004776
61,20,15,Jits_Phase_8,2,5,80,127,3413054832
61,20,15,Jits_Phase_8,3,5,63,98,3413094828
61,20,15,Jits_Phase_8,0,5,80,127,3413835404
61,20,15,Jits_Phase_8,1,1,48,71,3413839796
61,20,15,Jits_Phase_8,2,5,63,98,3413864776
61,20,15,Jits_Phase_8,3,5,56,103,3413934528
61,20,15,Jits_Phase_8,0,5,63,98,3414664700
61,20,15,Jits_Phase_8,1,1,48,73,3414677408
61,20,15,Jits_Phase_8,2,5,56,103,3414695492
61,20,15,Jits_Phase_8,3,5,80,127,3414754560
61,20,15,Jits_Phase_8,0,5,56,103,3415404896
61,20,15,Jits_Phase_8,1,5,80,127,3415407964
61,20,15,Jits_Phase_8,2,1,48,62,3415493900
61,20,15,Jits_Phase_8,3,5,63,98,3415524712
61,20,15,Jits_Phase_8,0,1,48,71,3416251620
61,20,15,Jits_Phase_8,1,5,56,103,3416284468
61,20,15,Jits_Phase_8,2,5,80,127,3416324484
61,20,15,Jits_Phase_8,3,5,63,98,3416334752
61,20,15,Jits_Phase_8,0,5,56,103,3417045352
61,20,15,Jits_Phase_8,1,5,80,127,3417064764
61,20,15,Jits_Phase_8,2,1,48,74,3417089976
61,20,15,Jits_Phase_8,3,5,63,98,3417144624
61,20,15,Jits_Phase_8,0,5,80,127,3417834864
61,20,15,Jits_Phase_8,1,1,48,84,3417885260
61,20,15,Jits_Phase_8,2,5,56,103,3417935256
61,20,15,Jits_Phase_8,3,5,63,98,3417944404
61,20,15,Jits_Phase_8,0,5,63,98,3418605120
61,20,15,Jits_Phase_8,1,1,48,62,3418658888
61,20,15,Jits_Phase_8,2,5,80,127,3418665356
61,20,15,Jits_Phase_8,3,5,56,103,3418674656
61,20,15,Jits_Phase_8,0,1,48,63,3419396600
61,20,15,Jits_Phase_8,1,5,56,103,3419404720
61,20,15,Jits_Phase_8,2,5,63,98,3419475296
61,20,15,Jits_Phase_8,3,5,80,127,3419478736
61,20,15,Jits_Phase_8,0,1,48,70,3420180304
61,20,15,Jits_Phase_8,1,5,63,98,3420235180
61,20,15,Jits_Phase_8,2,5,56,103,3420285588
61,20,15,Jits_Phase_8,3,5,80,127,3420288508
61,20,15,Jits_Phase_8,0,1,48,85,3420985152
61,20,15,Jits_Phase_8,1,5,56,103,3420995064
61,20,15,Jits_Phase_8,2,5,80,127,3420998056
61,20,15,Jits_Phase_8,3,5,63,98,3421085856
61,20,15,Jits_Phase_8,0,1,48,80,3421772740
61,20,15,Jits_Phase_8,1,5,63,98,3421834520
61,20,15,Jits_Phase_8,2,5,56,103,3421924664
61,20,15,Jits_Phase_8,3,5,80,127,3421954412
61,20,15,Jits_Phase_8,0,1,48,77,3422570260
61,20,15,Jits_Phase_8,1,5,56,103,3422625212
61,20,15,Jits_Phase_8,2,5,63,98,3422724352
61,20,15,Jits_Phase_8,3,5,80,127,3422755296
61,20,15,Jits_Phase_8,0,5,63,98,3423445388
61,20,15,Jits_Phase_8,1,1,48,74,3423454084
61,20,15,Jits_Phase_8,2,5,56,103,3423455576
61,20,15,Jits_Phase_8,3,5,80,127,3423544660
61,20,15,Jits_Phase_8,0,5,63,98,3424264704
61,20,15,Jits_Phase_8,1,1,48,60,3424283264
61,20,15,Jits_Phase_8,2,5,56,103,3424344420
61,20,15,Jits_Phase_8,3,5,80,127,3424347636
61,20,15,Jits_Phase_8,0,1,48,53,3425001328
61,20,15,Jits_Phase_8,1,5,80,127,3425025340
61,20,15,Jits_Phase_8,2,5,63,98,3425044976
61,20,15,Jits_Phase_8,3,5,56,103,3425105200
61,20,15,Jits_Phase_8,0,1,48,51,3425784992
61,20,15,Jits_Phase_8,1,5,56,103,3425865252
61,20,15,Jits_Phase_8,2,5,63,98,3425884420
61,20,15,Jits_Phase_8,3,5,80,127,3425887716
61,20,15,Jits_Phase_8,0,1,48,74,3426566980
61,20,15,Jits_Phase_8,1,5,63,98,3426605368
61,20,15,Jits_Phase_8,2,5,80,127,3426685224
61,20,15,Jits_Phase_8,3,5,56,103,3426694596
61,20,15,Jits_Phase_8,0,1,48,78,3427391680
61,20,15,Jits_Phase_8,1,5,63,98,3427424752
61,20,15,Jits_Phase_8,2,5,56,103,3427445064
61,20,15,Jits_Phase_8,3,5,80,127,3427495248
61,20,15,Jits_Phase_8,0,1,48,51,3428196160
61,20,15,Jits_Phase_8,1,5,80,127,3428225480
61,20,15,Jits_Phase_8,2,5,63,98,3428265420
61,20,15,Jits_Phase_8,3,5,56,103,3428284784
61,20,15,Jits_Phase_8,0,1,48,75,3428974792
61,20,15,Jits_Phase_8,1,5,56,103,3429065192
61,20,15,Jits_Phase_8,2,5,63,98,3429075448
61,20,15,Jits_Phase_8,3,5,80,127,3429094640
61,20,15,Jits_Phase_8,0,5,56,103,3429795260
61,20,15,Jits_Phase_8,1,1,48,58,3429796900
61,20,15,Jits_Phase_8,2,5,63,98,3429885264
61,20,15,Jits_Phase_8,3,5,80,127,3429944664
61,20,15,Jits_Phase_8,0,5,80,127,3430624580
61,20,15,Jits_Phase_8,1,5,56,103,3430634996
61,20,15,Jits_Phase_8,2,1,48,118,3430641184
61,20,15,Jits_Phase_8,3,5,63,98,3430704448
61,20,15,Jits_Phase_8,0,1,48,46,3431406720
61,20,15,Jits_Phase_8,1,5,63,98,3431455144
61,20,15,Jits_Phase_8,2,5,80,127,3431545264
61,20,15,Jits_Phase_8,3,5,56,103,3431554416
61,20,15,Jits_Phase_8,0,5,63,98,3432185168
61,20,15,Jits_Phase_8,1,1,48,57,3432215260
61,20,15,Jits_Phase_8,2,5,80,127,3432235512
61,20,15,Jits_Phase_8,3,5,56,103,3432294704
61,20,15,Jits_Phase_8,0,1,48,42,3432952984
61,20,15,Jits_Phase_8,1,5,56,103,3433005444
61,20,15,Jits_Phase_8,2,5,80,127,3433054512
61,20,15,Jits_Phase_8,3,5,63,98,3433075044
61,20,15,Jits_Phase_8,0,1,48,112,3433748760
61,20,15,Jits_Phase_8,1,5,56,103,3433774340
61,20,15,Jits_Phase_8,2,5,80,127,3433835028
61,20,15,Jits_Phase_8,3,5,63,98,3433904468
61,20,15,Jits_Phase_8,0,1,48,49,3434563012
61,20,15,Jits_Phase_8,1,5,56,103,3434575168
61,20,15,Jits_Phase_8,2,5,80,127,3434605140
61,20,15,Jits_Phase_8,3,5,63,98,3434634812
61,20,15,Jits_Phase_8,0,1,48,57,3435335336
61,20,15,Jits_Phase_8,1,5,56,103,3435415148
61,20,15,Jits_Phase_8,2,5,80,127,3435435372
61,20,15,Jits_Phase_8,3,5,63,98,3435495036
61,20,15,Jits_Phase_8,0,1,48,57,3436163644
61,20,15,Jits_Phase_8,1,5,80,127,3436294640
61,20,15,Jits_Phase_8,2,5,56,103,3436305132
61,20,15,Jits_Phase_8,3,5,63,98,3436314884
61,20,15,Jits_Phase_8,0,5,56,103,3437055392
61,20,15,Jits_Phase_8,1,5,80,127,3437095180
61,20,15,Jits_Phase_8,2,1,48,69,3437110436
61,20,15,Jits_Phase_8,3,5,63,98,3437124848
61,20,15,Jits_Phase_8,0,5,56,103,3437825428
61,20,15,Jits_Phase_8,1,5,63,98,3437855104
61,20,15,Jits_Phase_8,2,1,48,67,3437883628
61,20,15,Jits_Phase_8,3,5,80,127,3437894884
61,20,15,Jits_Phase_8,0,5,80,127,3438574928
61,20,15,Jits_Phase_8,1,5,63,98,3438625132
61,20,15,Jits_Phase_8,2,5,56,103,3438644544
61,20,15,Jits_Phase_8,3,1,48,58,3438645508
61,20,15,Jits_Phase_8,0,1,48,60,3439392632
61,20,15,Jits_Phase_8,1,5,56,103,3439405332
61,20,15,Jits_Phase_8,2,5,80,127,3439474940
61,20,15,Jits_Phase_8,3,5,63,98,3439534340
61,20,15,Jits_Phase_8,0,1,48,78,3440198620
61,20,15,Jits_Phase_8,1,5,80,127,3440205096
61,20,15,Jits_Phase_8,2,5,63,98,3440295156
61,20,15,Jits_Phase_8,3,5,56,103,3440315024
61,20,15,Jits_Phase_8,0,1,48,59,3441000480
61,20,15,Jits_Phase_8,1,5,63,98,3441025460
61,20,15,Jits_Phase_8,2,5,56,103,3441044944
61,20,15,Jits_Phase_8,3,5,80,127,3441084684
61,20,15,Jits_Phase_8,0,5,80,127,3441785140
61,20,15,Jits_Phase_8,1,1,48,51,3441800988
61,20,15,Jits_Phase_8,2,5,63,98,3441805064
61,20,15,Jits_Phase_8,3,5,56,103,3441884732
61,20,15,Jits_Phase_8,0,5,63,98,3442574792
61,20,15,Jits_Phase_8,1,1,48,48,3442583088
61,20,15,Jits_Phase_8,2,5,56,103,3442685304
61,20,15,Jits_Phase_8,3,5,80,127,3442688296
61,20,15,Jits_Phase_8,0,1,48,71,3443373168
61,20,15,Jits_Phase_8,1,5,63,98,3443395012
61,20,15,Jits_Phase_8,2,5,56,103,3443405132
61,20,15,Jits_Phase_8,3,5,80,127,3443408272
61,20,15,Jits_Phase_8,0,1,48,62,3444168800
61,20,15,Jits_Phase_8,1,5,56,103,3444175344
61,20,15,Jits_Phase_8,2,5,80,127,3444295132
61,20,15,Jits_Phase_8,3,5,63,98,3444334848
61,20,15,Jits_Phase_8,0,1,48,56,3444961960
61,20,15,Jits_Phase_8,1,5,56,103,3444994660
61,20,15,Jits_Phase_8,2,5,80,127,3445075340
61,20,15,Jits_Phase_8,3,5,63,98,3445094676
61,20,15,Jits_Phase_8,0,1,48,57,3445769736
61,20,15,Jits_Phase_8,1,5,56,103,3445795164
61,20,15,Jits_Phase_8,2,5,63,98,3445904608
61,20,15,Jits_Phase_8,3,5,80,127,3445907904
61,20,15,Jits_Phase_8,0,1,48,94,3446595120
61,20,15,Jits_Phase_8,1,5,56,103,3446635000
61,20,15,Jits_Phase_8,2,5,80,127,3446664604
61,20,15,Jits_Phase_8,3,5,63,98,3446684988
61,20,15,Jits_Phase_8,0,1,48,56,3447413236
61,20,15,Jits_Phase_8,1,5,63,98,3447425468
61,20,15,Jits_Phase_8,2,5,56,103,3447434840
61,20,15,Jits_Phase_8,3,5,80,127,3447444888
61,20,15,Jits_Phase_8,0,1,48,51,3448204520
61,20,15,Jits_Phase_8,1,5,80,127,3448214880
61,20,15,Jits_Phase_8,2,5,56,103,3448265108
61,20,15,Jits_Phase_8,3,5,63,98,3448304956
61,20,15,Jits_Phase_8,0,1,48,57,3449005920
61,20,15,Jits_Phase_8,1,5,80,127,3449035116
61,20,15,Jits_Phase_8,2,5,63,98,3449054680
61,20,15,Jits_Phase_8,3,5,56,103,3449104788
61,20,15,Jits_Phase_8,0,1,48,78,3449826608
61,20,15,Jits_Phase_8,1,5,80,127,3449845212
61,20,15,Jits_Phase_8,2,5,56,103,3449874816
61,20,15,Jits_Phase_8,3,5,63,98,3449944700
61,20,15,Jits_Phase_8,0,1,48,54,3450650336
61,20,15,Jits_Phase_8,1,5,56,103,3450695024
61,20,15,Jits_Phase_8,2,5,80,127,3450705144
61,20,15,Jits_Phase_8,3,5,63,98,3450745156
61,20,15,Jits_Phase_8,0,5,56,103,3451404736
61,20,15,Jits_Phase_8,1,5,63,98,3451425272
61,20,15,Jits_Phase_8,2,1,48,50,3451462788
61,20,15,Jits_Phase_8,3,5,80,127,3451494648
61,20,15,Jits_Phase_8,0,5,63,98,3452224736
61,20,15,Jits_Phase_8,1,1,48,51,3452241112
61,20,15,Jits_Phase_8,2,5,80,127,3452285196
61,20,15,Jits_Phase_8,3,5,56,103,3452304828
61,20,15,Jits_Phase_8,0,5,80,127,3453015500
61,20,15,Jits_Phase_8,1,1,48,102,3453038024
61,20,15,Jits_Phase_8,2,5,56,103,3453045244
61,20,15,Jits_Phase_8,3,5,63,98,3453074696
61,20,15,Jits_Phase_8,0,5,56,103,3453815056
61,20,15,Jits_Phase_8,1,5,63,98,3453874548
61,20,15,Jits_Phase_8,2,1,48,54,3453896348
61,20,15,Jits_Phase_8,3,5,80,127,3453935032
61,20,15,Jits_Phase_8,0,1,48,56,3454621676
61,20,15,Jits_Phase_8,1,5,80,127,3454635496
61,20,15,Jits_Phase_8,2,5,56,103,3454654788
61,20,15,Jits_Phase_8,3,5,63,98,3454724376
61,20,15,Jits_Phase_8,0,5,80,127,3455435064
61,20,15,Jits_Phase_8,1,5,63,98,3455454628
61,20,15,Jits_Phase_8,2,1,48,59,3455455592
61,20,15,Jits_Phase_8,3,5,56,103,3455485636
61,20,15,Jits_Phase_8,0,5,80,127,3456224648
61,20,15,Jits_Phase_8,1,5,63,98,3456245032
61,20,15,Jits_Phase_8,2,1,48,91,3456263064
61,20,15,Jits_Phase_8,3,5,56,103,3456304440
61,20,15,Jits_Phase_8,0,5,80,127,3457025388
61,20,15,Jits_Phase_8,1,1,48,56,3457057276
61,20,15,Jits_Phase_8,2,5,56,103,3457124732
61,20,15,Jits_Phase_8,3,5,63,98,3457155364
61,20,15,Jits_Phase_8,0,5,63,98,3457814752
61,20,15,Jits_Phase_8,1,1,48,61,3457851200
61,20,15,Jits_Phase_8,2,5,80,127,3457865024
61,20,15,Jits_Phase_8,3,5,56,103,3457884584
61,20,15,Jits_Phase_8,0,1,48,47,3458618740
61,20,15,Jits_Phase_8,1,5,80,127,3458654584
61,20,15,Jits_Phase_8,2,5,56,103,3458685376
61,20,15,Jits_Phase_8,3,5,63,98,3458688668
61,20,15,Jits_Phase_8,0,1,48,93,3459456260
61,20,15,Jits_Phase_8,1,5,63,98,3459504532
61,20,15,Jits_Phase_8,2,5,56,103,3459544424
61,20,15,Jits_Phase_8,3,5,80,127,3459564868
61,20,15,Jits_Phase_8,0,1,48,59,3460264064
61,20,15,Jits_Phase_8,1,5,80,127,3460265560
61,20,15,Jits_Phase_8,2,1,48,29,3460332592
61,20,15,Jits_Phase_8,3,5,63,98,3460345284
61,20,15,Jits_Phase_8,4,5,56,103,3460385072
61,20,15,Jits_Phase_8,0,5,63,98,3461084492
61,20,15,Jits_Phase_8,1,1,48,54,3461092400
61,20,15,Jits_Phase_8,2,5,80,127,3461165476
61,20,15,Jits_Phase_8,3,5,56,103,3461184796
61,20,15,Jits_Phase_8,0,5,56,103,3461925384
61,20,15,Jits_Phase_8,1,1,48,59,3461933704
61,20,15,Jits_Phase_8,2,5,63,98,3461935424
61,20,15,Jits_Phase_8,3,5,80,127,3461975288
61,20,15,Jits_Phase_8,0,5,56,103,3462645216
61,20,15,Jits_Phase_8,1,5,80,127,3462648208
61,20,15,Jits_Phase_8,2,1,48,97,3462728948
61,20,15,Jits_Phase_8,3,5,63,98,3462785384
61,20,15,Jits_Phase_8,0,5,56,103,3463434640
61,20,15,Jits_Phase_8,1,1,48,49,3463498144
61,20,15,Jits_Phase_8,2,5,63,98,3463524692
61,20,15,Jits_Phase_8,3,5,80,127,3463595332
61,20,15,Jits_Phase_8,0,1,48,47,3464252052
61,20,15,Jits_Phase_8,1,5,63,98,3464315392
61,20,15,Jits_Phase_8,2,5,80,127,3464318608
61,20,15,Jits_Phase_8,3,5,56,103,3464374572
61,20,15,Jits_Phase_8,0,1,48,45,3465056156
61,20,15,Jits_Phase_8,1,5,80,127,3465154868
61,20,15,Jits_Phase_8,2,5,56,103,3465175476
61,20,15,Jits_Phase_8,3,5,63,98,3465184624
61,20,15,Jits_Phase_8,0,5,56,103,3465864500
61,20,15,Jits_Phase_8,1,5,63,98,3465874696
61,20,15,Jits_Phase_8,2,1,48,97,3465892488
61,20,15,Jits_Phase_8,3,5,80,127,3465944392
61,20,15,Jits_Phase_8,0,5,80,127,3466665240
61,20,15,Jits_Phase_8,1,1,48,50,3466676680
61,20,15,Jits_Phase_8,2,5,56,103,3466714416
61,20,15,Jits_Phase_8,3,5,63,98,3466764540
61,20,15,Jits_Phase_8,0,1,48,54,3467415084
61,20,15,Jits_Phase_8,1,5,56,103,3467545032
61,20,15,Jits_Phase_8,2,5,63,98,3467555376
61,20,15,Jits_Phase_8,3,5,80,127,3467595088
61,20,15,Jits_Phase_8,0,1,48,47,3468185776
61,20,15,Jits_Phase_8,1,5,56,103,3468285308
61,20,15,Jits_Phase_8,2,5,63,98,3468325172
61,20,15,Jits_Phase_8,3,5,80,127,3468375372
61,20,15,Jits_Phase_8,0,5,80,127,3469045152
61,20,15,Jits_Phase_8,1,1,48,96,3469047672
61,20,15,Jits_Phase_8,2,5,56,103,3469095348
61,20,15,Jits_Phase_8,3,5,63,98,3469114912
61,20,15,Jits_Phase_8,0,1,48,52,3469840168
61,20,15,Jits_Phase_8,1,5,80,127,3469855108
61,20,15,Jits_Phase_8,2,5,63,98,3469914380
61,20,15,Jits_Phase_8,3,5,56,103,3469995428
61,20,15,Jits_Phase_8,0,5,80,127,3470635392
61,20,15,Jits_Phase_8,1,5,56,103,3470675184
61,20,15,Jits_Phase_8,2,5,63,98,3470694892
61,20,15,Jits_Phase_8,3,1,48,43,3470701156
61,20,15,Jits_Phase_8,0,1,48,56,3471442016
61,20,15,Jits_Phase_8,1,5,56,103,3471485204
61,20,15,Jits_Phase_8,2,5,80,127,3471494428
61,20,15,Jits_Phase_8,3,5,63,98,3471534364
61,20,15,Jits_Phase_8,0,1,48,77,3472249712
61,20,15,Jits_Phase_8,1,5,56,103,3472354796
61,20,15,Jits_Phase_8,2,5,63,98,3472394808
61,20,15,Jits_Phase_8,3,5,80,127,3472398172
61,20,15,Jits_Phase_8,0,5,63,98,3473025384
61,20,15,Jits_Phase_8,1,1,48,51,3473059072
61,20,15,Jits_Phase_8,2,5,80,127,3473065464
61,20,15,Jits_Phase_8,3,5,56,103,3473135244
61,20,15,Jits_Phase_8,0,5,63,98,3473794280
61,20,15,Jits_Phase_8,1,1,48,58,3473862744
61,20,15,Jits_Phase_8,2,5,56,103,3473875436
61,20,15,Jits_Phase_8,3,5,80,127,3473934632
61,20,15,Jits_Phase_8,0,5,80,127,3474605568
61,20,15,Jits_Phase_8,1,1,48,54,3474637336
61,20,15,Jits_Phase_8,2,5,63,98,3474654520
61,20,15,Jits_Phase_8,3,5,56,103,3474685240
61,20,15,Jits_Phase_8,0,5,56,103,3475395028
61,20,15,Jits_Phase_8,1,1,48,92,3475408632
61,20,15,Jits_Phase_8,2,5,63,98,3475445220
61,20,15,Jits_Phase_8,3,5,80,127,3475455344
61,20,15,Jits_Phase_8,0,1,48,47,3476186668
61,20,15,Jits_Phase_8,1,5,56,103,3476205200
61,20,15,Jits_Phase_8,2,5,63,98,3476314500
61,20,15,Jits_Phase_8,3,5,80,127,3476335032
61,20,15,Jits_Phase_8,0,1,48,57,3476935408
61,20,15,Jits_Phase_8,1,5,63,98,3477004736
61,20,15,Jits_Phase_8,2,5,80,127,3477054772
61,20,15,Jits_Phase_8,3,5,56,103,3477145128
61,20,15,Jits_Phase_8,0,1,48,55,3477760852
61,20,15,Jits_Phase_8,1,5,63,98,3477795128
61,20,15,Jits_Phase_8,2,5,80,127,3477825176
61,20,15,Jits_Phase_8,3,5,56,103,3477915064
61,20,15,Jits_Phase_8,0,5,63,98,3478594884
61,20,15,Jits_Phase_8,1,5,56,103,3478605156
61,20,15,Jits_Phase_8,2,1,48,92,3478610892
61,20,15,Jits_Phase_8,3,5,80,127,3478704408
61,20,15,Jits_Phase_8,0,1,48,48,3479368304
61,20,15,Jits_Phase_8,1,5,63,98,3479494964
61,20,15,Jits_Phase_8,2,5,80,127,3479525012
61,20,15,Jits_Phase_8,3,5,56,103,3479554388
61,20,15,Jits_Phase_8,0,1,48,42,3480148068
61,20,15,Jits_Phase_8,1,5,80,127,3480315332
61,20,15,Jits_Phase_8,2,5,63,98,3480324408
61,20,15,Jits_Phase_8,3,5,56,103,3480355128
61,20,15,Jits_Phase_8,0,1,48,59,3480960420
61,20,15,Jits_Phase_8,1,5,80,127,3481014940
61,20,15,Jits_Phase_8,2,5,63,98,3481035028
61,20,15,Jits_Phase_8,3,5,56,103,3481085288
61,20,15,Jits_Phase_8,0,1,48,93,3481807928
61,20,15,Jits_Phase_8,1,5,63,98,3481845040
61,20,15,Jits_Phase_8,2,5,80,127,3481904372
61,20,15,Jits_Phase_8,3,5,56,103,3481925052
61,20,15,Jits_Phase_8,0,5,63,98,3482604876
61,20,15,Jits_Phase_8,1,1,48,54,3482627920
61,20,15,Jits_Phase_8,2,5,56,103,3482655220
61,20,15,Jits_Phase_8,3,5,80,127,3482665268
61,20,15,Jits_Phase_8,0,1,48,43,3483372908
61,20,15,Jits_Phase_8,1,5,56,103,3483435336
61,20,15,Jits_Phase_8,2,5,80,127,3483444488
61,20,15,Jits_Phase_8,3,5,63,98,3483544936
61,20,15,Jits_Phase_8,0,1,48,54,3484168388
61,20,15,Jits_Phase_8,1,5,80,127,3484195160
61,20,15,Jits_Phase_8,2,5,63,98,3484205508
61,20,15,Jits_Phase_8,3,5,56,103,3484355056
61,20,15,Jits_Phase_8,0,1,48,93,3484994140
61,20,15,Jits_Phase_8,1,5,63,98,3485005252
61,20,15,Jits_Phase_8,2,5,80,127,3485044968
61,20,15,Jits_Phase_8,3,5,56,103,3485124920
61,20,15,Jits_Phase_8,0,5,56,103,3485754816
61,20,15,Jits_Phase_8,1,1,48,52,3485828288
61,20,15,Jits_Phase_8,2,5,80,127,3485855060
61,20,15,Jits_Phase_8,3,5,63,98,3485874472
61,20,15,Jits_Phase_8,0,5,80,127,3486574976
61,20,15,Jits_Phase_8,1,5,56,103,3486585172
61,20,15,Jits_Phase_8,2,1,48,52,3486625828
61,20,15,Jits_Phase_8,3,5,63,98,3486675244
61,20,15,Jits_Phase_8,0,5,56,103,3487374676
61,20,15,Jits_Phase_8,1,5,63,98,3487395136
61,20,15,Jits_Phase_8,2,1,48,51,3487426444
61,20,15,Jits_Phase_8,3,5,80,127,3487475092
61,20,15,Jits_Phase_8,0,5,63,98,3488125372
61,20,15,Jits_Phase_8,1,5,56,103,3488215384
61,20,15,Jits_Phase_8,2,1,48,99,3488216288
61,20,15,Jits_Phase_8,3,5,80,127,3488220012
61,20,15,Jits_Phase_8,0,5,56,103,3488954892
61,20,15,Jits_Phase_8,1,5,80,127,3489015284
61,20,15,Jits_Phase_8,2,5,63,98,3489025332
61,20,15,Jits_Phase_8,3,1,48,43,3489051668
61,20,15,Jits_Phase_8,0,1,48,39,3489753816
61,20,15,Jits_Phase_8,1,5,80,127,3489804784
61,20,15,Jits_Phase_8,2,5,56,103,3489814976
61,20,15,Jits_Phase_8,3,5,63,98,3489817820
61,20,15,Jits_Phase_8,0,1,48,48,3490551528
61,20,15,Jits_Phase_8,1,5,56,103,3490564452
61,20,15,Jits_Phase_8,2,5,80,127,3490574872
61,20,15,Jits_Phase_8,3,5,63,98,3490595180
61,20,15,Jits_Phase_8,0,5,63,98,3491334764
61,20,15,Jits_Phase_8,1,1,48,76,3491337584
61,20,15,Jits_Phase_8,2,5,80,127,3491394848
61,20,15,Jits_Phase_8,3,5,56,103,3491445032
61,20,15,Jits_Phase_8,0,1,48,50,3492141744
61,20,15,Jits_Phase_8,1,5,63,98,3492215280
61,20,15,Jits_Phase_8,2,5,56,103,3492225548
61,20,15,Jits_Phase_8,3,5,80,127,3492274836
61,20,15,Jits_Phase_8,0,5,63,98,3492914876
61,20,15,Jits_Phase_8,1,5,80,127,3492934892
61,20,15,Jits_Phase_8,2,5,56,103,3492945236
61,20,15,Jits_Phase_8,3,1,48,56,3493025740
61,20,15,Jits_Phase_8,0,5,63,98,3493715376
61,20,15,Jits_Phase_8,1,5,80,127,3493718592
61,20,15,Jits_Phase_8,2,1,48,49,3493748012
61,20,15,Jits_Phase_8,3,5,56,103,3493755156
61,20,15,Jits_Phase_8,0,1,48,74,3494518228
61,20,15,Jits_Phase_8,1,5,63,98,3494584740
61,20,15,Jits_Phase_8,2,5,80,127,3494615612
61,20,15,Jits_Phase_8,3,5,56,103,3494624596
61,20,15,Jits_Phase_8,0,1,48,55,3495300156
61,20,15,Jits_Phase_8,1,5,56,103,3495335324
61,20,15,Jits_Phase_8,2,5,80,127,3495365024
61,20,15,Jits_Phase_8,3,5,63,98,3495394624
61,20,15,Jits_Phase_8,0,1,48,51,3496081848
61,20,15,Jits_Phase_8,1,5,63,98,3496235484
61,20,15,Jits_Phase_8,2,5,56,103,3496275420
61,20,15,Jits_Phase_8,3,5,80,127,3496278488
61,20,15,Jits_Phase_8,0,1,48,62,3496914684
61,20,15,Jits_Phase_8,1,5,80,127,3496934716
61,20,15,Jits_Phase_8,2,5,56,103,3497014644
61,20,15,Jits_Phase_8,3,5,63,98,3497064768
61,20,15,Jits_Phase_8,0,5,80,127,3497714996
61,20,15,Jits_Phase_8,1,5,56,103,3497734704
61,20,15,Jits_Phase_8,2,1,48,87,3497814396
61,20,15,Jits_Phase_8,3,5,63,98,3497824604
61,20,15,Jits_Phase_8,0,1,48,50,3498545896
61,20,15,Jits_Phase_8,1,5,80,127,3498554692
61,20,15,Jits_Phase_8,2,5,63,98,3498594704
61,20,15,Jits_Phase_8,3,5,56,103,3498634492
61,20,15,Jits_Phase_8,0,1,48,57,3499336968
61,20,15,Jits_Phase_8,1,5,63,98,3499364716
61,20,15,Jits_Phase_8,2,5,80,127,3499425256
61,20,15,Jits_Phase_8,3,5,56,103,3499454792
61,20,15,Jits_Phase_8,0,1,48,68,3500151688
61,20,15,Jits_Phase_8,1,5,56,103,3500205596
61,20,15,Jits_Phase_8,2,5,80,127,3500235220
61,20,15,Jits_Phase_8,3,5,63,98,3500325188
61,20,15,Jits_Phase_8,0,5,56,103,3501015572
61,20,15,Jits_Phase_8,1,1,48,74,3501020712
61,20,15,Jits_Phase_8,2,5,80,127,3501124940
61,20,15,Jits_Phase_8,3,5,63,98,3501154540
61,20,15,Jits_Phase_8,0,5,56,103,3501865472
61,20,15,Jits_Phase_8,1,1,48,50,3501877512
61,20,15,Jits_Phase_8,2,5,63,98,3501924664
61,20,15,Jits_Phase_8,3,5,80,127,3501954412
61,20,15,Jits_Phase_8,0,5,56,103,3502635732
61,20,15,Jits_Phase_8,1,1,48,53,3502674076
61,20,15,Jits_Phase_8,2,5,63,98,3502704964
61,20,15,Jits_Phase_8,3,5,80,127,3502724452
61,20,15,Jits_Phase_8,0,5,80,127,3503405544
61,20,15,Jits_Phase_8,1,5,63,98,3503424808
61,20,15,Jits_Phase_8,2,1,48,48,3503441184
61,20,15,Jits_Phase_8,3,5,56,103,3503475224
61,20,15,Jits_Phase_8,0,5,63,98,3504224496
61,20,15,Jits_Phase_8,1,1,48,81,3504229032
61,20,15,Jits_Phase_8,2,5,80,127,3504234832
61,20,15,Jits_Phase_8,3,5,56,103,3504285032
61,20,15,Jits_Phase_8,0,5,63,98,3505025592
61,20,15,Jits_Phase_8,1,1,48,51,3505036660
61,20,15,Jits_Phase_8,2,5,80,127,3505094996
61,20,15,Jits_Phase_8,3,5,56,103,3505114628
61,20,15,Jits_Phase_8,0,1,48,48,3505851936
61,20,15,Jits_Phase_8,1,5,63,98,3505854816
61,20,15,Jits_Phase_8,2,5,80,127,3505858180
61,20,15,Jits_Phase_8,3,5,56,103,3505924644
61,20,15,Jits_Phase_8,0,5,80,127,3506605400
61,20,15,Jits_Phase_8,1,5,56,103,3506624764
61,20,15,Jits_Phase_8,2,5,63,98,3506635404
61,20,15,Jits_Phase_8,3,1,48,51,3506670664
61,20,15,Jits_Phase_8,0,5,56,103,3507424600
61,20,15,Jits_Phase_8,1,1,48,93,3507435588
61,20,15,Jits_Phase_8,2,5,63,98,3507514724
61,20,15,Jits_Phase_8,3,5,80,127,3507518240
61,20,15,Jits_Phase_8,0,5,80,127,3508194620
61,20,15,Jits_Phase_8,1,5,56,103,3508205040
61,20,15,Jits_Phase_8,2,5,63,98,3508225352
61,20,15,Jits_Phase_8,3,1,48,57,3508240456
61,20,15,Jits_Phase_8,0,1,48,36,3508974276
61,20,15,Jits_Phase_8,1,5,63,98,3508994380
61,20,15,Jits_Phase_8,2,5,80,127,3509054696
61,20,15,Jits_Phase_8,3,5,56,103,3509065040
61,20,15,Jits_Phase_8,0,1,48,45,3509754844
61,20,15,Jits_Phase_8,1,5,63,98,3509864768
61,20,15,Jits_Phase_8,2,5,80,127,3509894372
61,20,15,Jits_Phase_8,3,5,56,103,3509934456
61,20,15,Jits_Phase_8,0,1,48,81,3510558276
61,20,15,Jits_Phase_8,1,5,56,103,3510655464
61,20,15,Jits_Phase_8,2,5,80,127,3510664540
61,20,15,Jits_Phase_8,3,5,63,98,3510704552
61,20,15,Jits_Phase_8,0,1,48,46,3511343808
61,20,15,Jits_Phase_8,1,5,80,127,3511415232
61,20,15,Jits_Phase_8,2,5,56,103,3511495112
61,20,15,Jits_Phase_8,3,5,63,98,3511505236
61,20,15,Jits_Phase_8,0,1,48,46,3512223512
61,20,15,Jits_Phase_8,1,5,80,127,3512265288
61,20,15,Jits_Phase_8,2,5,56,103,3512345220
61,20,15,Jits_Phase_8,3,5,63,98,3512355268
61,20,15,Jits_Phase_8,0,1,48,42,3513076052
61,20,15,Jits_Phase_8,1,5,80,127,3513104772
61,20,15,Jits_Phase_8,2,5,56,103,3513155124
61,20,15,Jits_Phase_8,3,5,63,98,3513205308
61,20,15,Jits_Phase_8,0,1,48,70,3513923756
61,20,15,Jits_Phase_8,1,5,56,103,3514044932
61,20,15,Jits_Phase_8,2,5,63,98,3514047776
61,20,15,Jits_Phase_8,3,5,80,127,3514094980
61,20,15,Jits_Phase_8,0,1,48,47,3514782528
61,20,15,Jits_Phase_8,1,5,56,103,3514865004
61,20,15,Jits_Phase_8,2,5,63,98,3514894816
61,20,15,Jits_Phase_8,3,5,80,127,3514905236
61,20,15,Jits_Phase_8,0,5,63,98,3515574500
61,20,15,Jits_Phase_8,1,1,48,46,3515603172
61,20,15,Jits_Phase_8,2,5,56,103,3515645444
61,20,15,Jits_Phase_8,3,5,80,127,3515694656
61,20,15,Jits_Phase_8,0,1,48,38,3516405200
61,20,15,Jits_Phase_8,1,5,63,98,3516406464
61,20,15,Jits_Phase_8,2,5,56,103,3516415460
61,20,15,Jits_Phase_8,3,5,80,127,3516418452
61,20,15,Jits_Phase_8,0,1,48,59,3517151264
61,20,15,Jits_Phase_8,1,5,80,127,3517154668
61,20,15,Jits_Phase_8,2,5,56,103,3517215284
61,20,15,Jits_Phase_8,3,5,63,98,3517305172
61,20,15,Jits_Phase_8,0,5,80,127,3517954360
61,20,15,Jits_Phase_8,1,5,56,103,3518054832
61,20,15,Jits_Phase_8,2,1,48,32,3518071280
61,20,15,Jits_Phase_8,3,5,63,98,3518094612
61,20,15,Jits_Phase_8,0,1,48,47,3518804476
61,20,15,Jits_Phase_8,1,5,56,103,3518806048
61,20,15,Jits_Phase_8,2,5,63,98,3518824712
61,20,15,Jits_Phase_8,3,5,80,127,3518864724
61,20,15,Jits_Phase_8,0,1,48,43,3519537304
61,20,15,Jits_Phase_8,1,5,63,98,3519575388
61,20,15,Jits_Phase_8,2,5,56,103,3519595172
61,20,15,Jits_Phase_8,3,5,80,127,3519695204
61,20,15,Jits_Phase_8,0,1,48,94,3520335412
61,20,15,Jits_Phase_8,1,5,63,98,3520364884
61,20,15,Jits_Phase_8,2,5,80,127,3520474508
61,20,15,Jits_Phase_8,3,5,56,103,3520505080
61,20,15,Jits_Phase_8,0,1,48,45,3521143048
61,20,15,Jits_Phase_8,1,5,56,103,3521185096
61,20,15,Jits_Phase_8,2,5,63,98,3521214948
61,20,15,Jits_Phase_8,3,5,80,127,3521264984
61,20,15,Jits_Phase_8,0,1,48,55,3521938072
61,20,15,Jits_Phase_8,1,5,63,98,3521955036
61,20,15,Jits_Phase_8,2,5,56,103,3521985108
61,20,15,Jits_Phase_8,3,5,80,127,3522035160
61,20,15,Jits_Phase_8,0,1,48,55,3522728312
61,20,15,Jits_Phase_8,1,5,56,103,3522784484
61,20,15,Jits_Phase_8,2,5,63,98,3522805016
61,20,15,Jits_Phase_8,3,5,80,127,3522884944
61,20,15,Jits_Phase_8,0,1,48,78,3523502828
61,20,15,Jits_Phase_8,1,5,63,98,3523554568
61,20,15,Jits_Phase_8,2,5,56,103,3523615244
61,20,15,Jits_Phase_8,3,5,80,127,3523644916
61,20,15,Jits_Phase_8,0,1,48,48,3524361028
61,20,15,Jits_Phase_8,1,5,56,103,3524395228
61,20,15,Jits_Phase_8,2,5,80,127,3524454856
61,20,15,Jits_Phase_8,3,5,63,98,3524494792
61,20,15,Jits_Phase_8,0,1,48,48,3525148652
61,20,15,Jits_Phase_8,1,5,63,98,3525174684
61,20,15,Jits_Phase_8,2,5,56,103,3525235148
61,20,15,Jits_Phase_8,3,5,80,127,3525304764
61,20,15,Jits_Phase_8,0,1,48,56,3525943852
61,20,15,Jits_Phase_8,1,5,56,103,3526055264
61,20,15,Jits_Phase_8,2,5,63,98,3526064488
61,20,15,Jits_Phase_8,3,5,80,127,3526068328
61,20,15,Jits_Phase_8,0,5,63,98,3526794504
61,20,15,Jits_Phase_8,1,1,48,83,3526818672
61,20,15,Jits_Phase_8,2,5,56,103,3526855136
61,20,15,Jits_Phase_8,3,5,80,127,3526858200
61,20,15,Jits_Phase_8,0,1,48,48,3527571060
61,20,15,Jits_Phase_8,1,5,63,98,3527574840
61,20,15,Jits_Phase_8,2,5,80,127,3527604540
61,20,15,Jits_Phase_8,3,5,56,103,3527625148
61,20,15,Jits_Phase_8,0,5,56,103,3528305000
61,20,15,Jits_Phase_8,1,5,63,98,3528355276
61,20,15,Jits_Phase_8,2,1,48,48,3528369408
61,20,15,Jits_Phase_8,3,5,80,127,3528435160
61,20,15,Jits_Phase_8,0,5,80,127,3529005288
61,20,15,Jits_Phase_8,1,5,63,98,3529045300
61,20,15,Jits_Phase_8,2,5,56,103,3529064784
61,20,15,Jits_Phase_8,3,1,48,51,3529070444
61,20,15,Jits_Phase_8,0,1,48,87,3529787416
61,20,15,Jits_Phase_8,1,5,56,103,3529875096
61,20,15,Jits_Phase_8,2,5,80,127,3529885952
61,20,15,Jits_Phase_8,3,5,63,98,3529904688
61,20,15,Jits_Phase_8,0,1,48,52,3530588820
61,20,15,Jits_Phase_8,1,5,56,103,3530655080
61,20,15,Jits_Phase_8,2,5,63,98,3530705220
61,20,15,Jits_Phase_8,3,5,80,127,3530735040
61,20,15,Jits_Phase_8,0,1,48,50,3531327524
61,20,15,Jits_Phase_8,1,5,56,103,3531404868
61,20,15,Jits_Phase_8,2,5,63,98,3531414840
61,20,15,Jits_Phase_8,3,5,80,127,3531465052
61,20,15,Jits_Phase_8,0,1,48,53,3532087112
61,20,15,Jits_Phase_8,1,5,56,103,3532195164
61,20,15,Jits_Phase_8,2,5,80,127,3532198304
61,20,15,Jits_Phase_8,3,5,63,98,3532354988
61,20,15,Jits_Phase_8,0,1,48,97,3532983764
61,20,15,Jits_Phase_8,1,5,63,98,3533015328
61,20,15,Jits_Phase_8,2,5,56,103,3533084996
61,20,15,Jits_Phase_8,3,5,80,127,3533125080
61,20,15,Jits_Phase_8,0,1,48,57,3533744316
61,20,15,Jits_Phase_8,1,5,63,98,3533855152
61,20,15,Jits_Phase_8,2,5,56,103,3533945136
61,20,15,Jits_Phase_8,3,5,80,127,3533948276
61,20,15,Jits_Phase_8,0,1,48,59,3534579072
61,20,15,Jits_Phase_8,1,5,56,103,3534635368
61,20,15,Jits_Phase_8,2,5,63,98,3534724588
61,20,15,Jits_Phase_8,3,5,80,127,3534734784
61,20,15,Jits_Phase_8,0,1,48,56,3535391712
61,20,15,Jits_Phase_8,1,5,56,103,3535405532
61,20,15,Jits_Phase_8,2,5,63,98,3535454688
61,20,15,Jits_Phase_8,3,5,80,127,3535485260
61,20,15,Jits_Phase_8,0,1,48,82,3536210280
61,20,15,Jits_Phase_8,1,5,63,98,3536285008
61,20,15,Jits_Phase_8,2,5,80,127,3536295280
61,20,15,Jits_Phase_8,3,5,56,103,3536354780
61,20,15,Jits_Phase_8,0,5,63,98,3537004912
61,20,15,Jits_Phase_8,1,5,80,127,3537065300
61,20,15,Jits_Phase_8,2,1,48,49,3537084184
61,20,15,Jits_Phase_8,3,5,56,103,3537105404
61,20,15,Jits_Phase_8,0,1,48,50,3537883856
61,20,15,Jits_Phase_8,1,5,56,103,3537905156
61,20,15,Jits_Phase_8,2,5,80,127,3537924568
61,20,15,Jits_Phase_8,3,5,63,98,3537945024
61,20,15,Jits_Phase_8,0,5,63,98,3538624836
61,20,15,Jits_Phase_8,1,5,56,103,3538645372
61,20,15,Jits_Phase_8,2,5,80,127,3538685236
61,20,15,Jits_Phase_8,3,1,48,44,3538696672
61,20,15,Jits_Phase_8,0,5,63,98,3539434856
61,20,15,Jits_Phase_8,1,1,48,78,3539443672
61,20,15,Jits_Phase_8,2,5,80,127,3539464676
61,20,15,Jits_Phase_8,3,5,56,103,3539485060
61,20,15,Jits_Phase_8,0,5,80,127,3540205020
61,20,15,Jits_Phase_8,1,1,48,57,3540245228
61,20,15,Jits_Phase_8,2,5,56,103,3540255216
61,20,15,Jits_Phase_8,3,5,63,98,3540314632
61,20,15,Jits_Phase_8,0,5,63,98,3540994528
61,20,15,Jits_Phase_8,1,1,48,50,3541040044
61,20,15,Jits_Phase_8,2,5,56,103,3541115220
61,20,15,Jits_Phase_8,3,5,80,127,3541145032
61,20,15,Jits_Phase_8,0,5,80,127,3541835120
61,20,15,Jits_Phase_8,1,1,48,54,3541837940
61,20,15,Jits_Phase_8,2,5,63,98,3541854748
61,20,15,Jits_Phase_8,3,5,56,103,3541925176
61,20,15,Jits_Phase_8,0,5,63,98,3542655492
61,20,15,Jits_Phase_8,1,5,56,103,3542664644
61,20,15,Jits_Phase_8,2,1,48,97,3542687092
61,20,15,Jits_Phase_8,3,5,80,127,3542744528
61,20,15,Jits_Phase_8,0,1,48,55,3543503956
61,20,15,Jits_Phase_8,1,5,56,103,3543514840
61,20,15,Jits_Phase_8,2,5,80,127,3543545188
61,20,15,Jits_Phase_8,3,5,63,98,3543554560
61,20,15,Jits_Phase_8,0,9999,9999,9999,3408672844
61,20,15,Jits_Phase_8,1,9999,9999,9999,3409472632
61,20,15,Jits_Phase_8,2,9999,9999,9999,3410272368
61,20,15,Jits_Phase_8,3,9999,9999,9999,3411072104
61,20,15,Jits_Phase_8,4,9999,9999,9999,3411872860
61,20,15,Jits_Phase_8,5,9999,9999,9999,3412672568
61,20,15,Jits_Phase_8,6,9999,9999,9999,3413472324
61,20,15,Jits_Phase_8,7,9999,9999,9999,3414272084
61,20,15,Jits_Phase_8,8,9999,9999,9999,3415072832
61,20,15,Jits_Phase_8,9,9999,9999,9999,3415872576
61,20,15,Jits_Phase_8,10,9999,9999,9999,3416672356
61,20,15,Jits_Phase_8,11,9999,9999,9999,3417472116
61,20,15,Jits_Phase_8,12,9999,9999,9999,3418272868
61,20,15,Jits_Phase_8,13,9999,9999,9999,3419072588
61,20,15,Jits_Phase_8,14,9999,9999,9999,3419872332
61,20,15,Jits_Phase_8,15,9999,9999,9999,3420672076
61,20,15,Jits_Phase_8,16,9999,9999,9999,3421472864
61,20,15,Jits_Phase_8,17,9999,9999,9999,3422272628
61,20,15,Jits_Phase_8,18,9999,9999,9999,3423072316
61,20,15,Jits_Phase_8,19,9999,9999,9999,3423872076
61,20,15,Jits_Phase_8,20,9999,9999,9999,3424672880
61,20,15,Jits_Phase_8,21,9999,9999,9999,3425472584
61,20,15,Jits_Phase_8,22,9999,9999,9999,3426272336
61,20,15,Jits_Phase_8,23,9999,9999,9999,3427072092
61,20,15,Jits_Phase_8,24,9999,9999,9999,3427872892
61,20,15,Jits_Phase_8,25,9999,9999,9999,3428672576
61,20,15,Jits_Phase_8,26,9999,9999,9999,3429472336
61,20,15,Jits_Phase_8,27,9999,9999,9999,3430272096
61,20,15,Jits_Phase_8,28,9999,9999,9999,3431072836
61,20,15,Jits_Phase_8,29,9999,9999,9999,3431872580
61,20,15,Jits_Phase_8,30,9999,9999,9999,3432652856
61,20,15,Jits_Phase_8,31,9999,9999,9999,3433452616
61,20,15,Jits_Phase_8,32,9999,9999,9999,3434252376
61,20,15,Jits_Phase_8,33,9999,9999,9999,3435052152
61,20,15,Jits_Phase_8,34,9999,9999,9999,3435852884
61,20,15,Jits_Phase_8,35,9999,9999,9999,3436652648
61,20,15,Jits_Phase_8,36,9999,9999,9999,3437452412
61,20,15,Jits_Phase_8,37,9999,9999,9999,3438252116
61,20,15,Jits_Phase_8,38,9999,9999,9999,3439052880
61,20,15,Jits_Phase_8,39,9999,9999,9999,3439852656
61,20,15,Jits_Phase_8,40,9999,9999,9999,3440652344
61,20,15,Jits_Phase_8,41,9999,9999,9999,3441452104
61,20,15,Jits_Phase_8,42,9999,9999,9999,3442252900
61,20,15,Jits_Phase_8,43,9999,9999,9999,3443052664
61,20,15,Jits_Phase_8,44,9999,9999,9999,3443852404
61,20,15,Jits_Phase_8,45,9999,9999,9999,3444652092
61,20,15,Jits_Phase_8,46,9999,9999,9999,3445452920
61,20,15,Jits_Phase_8,47,9999,9999,9999,3446252596
61,20,15,Jits_Phase_8,48,9999,9999,9999,3447072880
61,20,15,Jits_Phase_8,49,9999,9999,9999,3447872632
61,20,15,Jits_Phase_8,50,9999,9999,9999,3448672316
61,20,15,Jits_Phase_8,51,9999,9999,9999,3449472072
61,20,15,Jits_Phase_8,52,9999,9999,9999,3450272884
61,20,15,Jits_Phase_8,53,9999,9999,9999,3451072596
61,20,15,Jits_Phase_8,54,9999,9999,9999,3451872352
61,20,15,Jits_Phase_8,55,9999,9999,9999,3452672124
61,20,15,Jits_Phase_8,56,9999,9999,9999,3453472848
61,20,15,Jits_Phase_8,57,9999,9999,9999,3454272632
61,20,15,Jits_Phase_8,58,9999,9999,9999,3455072332
61,20,15,Jits_Phase_8,59,9999,9999,9999,3455872088
61,20,15,Jits_Phase_8,60,9999,9999,9999,3456672832
61,20,15,Jits_Phase_8,61,9999,9999,9999,3457472632
61,20,15,Jits_Phase_8,62,9999,9999,9999,3458272328
61,20,15,Jits_Phase_8,63,9999,9999,9999,3459072076
61,20,15,Jits_Phase_8,64,9999,9999,9999,3459912824
61,20,15,Jits_Phase_8,65,9999,9999,9999,3460712564
61,20,15,Jits_Phase_8,66,9999,9999,9999,3461512304
61,20,15,Jits_Phase_8,67,9999,9999,9999,3462313040
61,20,15,Jits_Phase_8,68,9999,9999,9999,3463112824
61,20,15,Jits_Phase_8,69,9999,9999,9999,3463912524
61,20,15,Jits_Phase_8,70,9999,9999,9999,3464712292
61,20,15,Jits_Phase_8,71,9999,9999,9999,3465513028
61,20,15,Jits_Phase_8,72,9999,9999,9999,3466312784
61,20,15,Jits_Phase_8,73,9999,9999,9999,3467112556
61,20,15,Jits_Phase_8,74,9999,9999,9999,3467912260
61,20,15,Jits_Phase_8,75,9999,9999,9999,3468713068
61,20,15,Jits_Phase_8,76,9999,9999,9999,3469512768
61,20,15,Jits_Phase_8,77,9999,9999,9999,3470312548
61,20,15,Jits_Phase_8,78,9999,9999,9999,3471112296
61,20,15,Jits_Phase_8,79,9999,9999,9999,3471913040
61,20,15,Jits_Phase_8,80,9999,9999,9999,3472712800
61,20,15,Jits_Phase_8,81,9999,9999,9999,3473472624
61,20,15,Jits_Phase_8,82,9999,9999,9999,3474272308
61,20,15,Jits_Phase_8,83,9999,9999,9999,3475072064
61,20,15,Jits_Phase_8,84,9999,9999,9999,3475872876
61,20,15,Jits_Phase_8,85,9999,9999,9999,3476672600
61,20,15,Jits_Phase_8,86,9999,9999,9999,3477472360
61,20,15,Jits_Phase_8,87,9999,9999,9999,3478272112
61,20,15,Jits_Phase_8,88,9999,9999,9999,3479072836
61,20,15,Jits_Phase_8,89,9999,9999,9999,3479872604
61,20,15,Jits_Phase_8,90,9999,9999,9999,3480672372
61,20,15,Jits_Phase_8,91,9999,9999,9999,3481472124
61,20,15,Jits_Phase_8,92,9999,9999,9999,3482272860
61,20,15,Jits_Phase_8,93,9999,9999,9999,3483072636
61,20,15,Jits_Phase_8,94,9999,9999,9999,3483872320
61,20,15,Jits_Phase_8,95,9999,9999,9999,3484672072
61,20,15,Jits_Phase_8,96,9999,9999,9999,3485472876
61,20,15,Jits_Phase_8,97,9999,9999,9999,3486192696
61,20,15,Jits_Phase_8,98,9999,9999,9999,3486992472
61,20,15,Jits_Phase_8,99,9999,9999,9999,3487792248
61,20,15,Jits_Phase_8,100,9999,9999,9999,3488592984
61,20,15,Jits_Phase_8,101,9999,9999,9999,3489392744
61,20,15,Jits_Phase_8,102,9999,9999,9999,3490192508
61,20,15,Jits_Phase_8,103,9999,9999,9999,3490992192
61,20,15,Jits_Phase_8,104,9999,9999,9999,3491793012
61,20,15,Jits_Phase_8,105,9999,9999,9999,3492592704
61,20,15,Jits_Phase_8,106,9999,9999,9999,3493392452
61,20,15,Jits_Phase_8,107,9999,9999,9999,3494192192
61,20,15,Jits_Phase_8,108,9999,9999,9999,3494993000
61,20,15,Jits_Phase_8,109,9999,9999,9999,3495792756
61,20,15,Jits_Phase_8,110,9999,9999,9999,3496592440
61,20,15,Jits_Phase_8,111,9999,9999,9999,3497392200
61,20,15,Jits_Phase_8,112,9999,9999,9999,3498193020
61,20,15,Jits_Phase_8,113,9999,9999,9999,3498992720
61,20,15,Jits_Phase_8,114,9999,9999,9999,3499872340
61,20,15,Jits_Phase_8,115,9999,9999,9999,3500672096
61,20,15,Jits_Phase_8,116,9999,9999,9999,3501472832
61,20,15,Jits_Phase_8,117,9999,9999,9999,3502272636
61,20,15,Jits_Phase_8,118,9999,9999,9999,3503072344
61,20,15,Jits_Phase_8,119,9999,9999,9999,3503872112
61,20,15,Jits_Phase_8,120,9999,9999,9999,3504672852
61,20,15,Jits_Phase_8,121,9999,9999,9999,3505472608
61,20,15,Jits_Phase_8,122,9999,9999,9999,3506272360
61,20,15,Jits_Phase_8,123,9999,9999,9999,3507072112
61,20,15,Jits_Phase_8,124,9999,9999,9999,3507872852
61,20,15,Jits_Phase_8,125,9999,9999,9999,3508672568
61,20,15,Jits_Phase_8,126,9999,9999,9999,3509472336
61,20,15,Jits_Phase_8,127,9999,9999,9999,3510272100
61,20,15,Jits_Phase_8,128,9999,9999,9999,3511072832
61,20,15,Jits_Phase_8,129,9999,9999,9999,3511872592
61,20,15,Jits_Phase_8,130,9999,9999,9999,3512672360
61,20,15,Jits_Phase_8,131,9999,9999,9999,3513632848
61,20,15,Jits_Phase_8,132,9999,9999,9999,3514432600
61,20,15,Jits_Phase_8,133,9999,9999,9999,3515232372
61,20,15,Jits_Phase_8,134,9999,9999,9999,3516032052
61,20,15,Jits_Phase_8,135,9999,9999,9999,3516832848
61,20,15,Jits_Phase_8,136,9999,9999,9999,3517632628
61,20,15,Jits_Phase_8,137,9999,9999,9999,3518432316
61,20,15,Jits_Phase_8,138,9999,9999,9999,3519232092
61,20,15,Jits_Phase_8,139,9999,9999,9999,3520032824
61,20,15,Jits_Phase_8,140,9999,9999,9999,3520832588
61,20,15,Jits_Phase_8,141,9999,9999,9999,3521632344
61,20,15,Jits_Phase_8,142,9999,9999,9999,3522432096
61,20,15,Jits_Phase_8,143,9999,9999,9999,3523232824
61,20,15,Jits_Phase_8,144,9999,9999,9999,3524032604
61,20,15,Jits_Phase_8,145,9999,9999,9999,3524832364
61,20,15,Jits_Phase_8,146,9999,9999,9999,3525632120
61,20,15,Jits_Phase_8,147,9999,9999,9999,3526432844
61,20,15,Jits_Phase_8,148,9999,9999,9999,3527232596
61,20,15,Jits_Phase_8,149,9999,9999,9999,3528032348
61,20,15,Jits_Phase_8,150,9999,9999,9999,3528672384
61,20,15,Jits_Phase_8,151,9999,9999,9999,3529472076
61,20,15,Jits_Phase_8,152,9999,9999,9999,3530272824
61,20,15,Jits_Phase_8,153,9999,9999,9999,3531072584
61,20,15,Jits_Phase_8,154,9999,9999,9999,3531872336
61,20,15,Jits_Phase_8,155,9999,9999,9999,3532672080
61,20,15,Jits_Phase_8,156,9999,9999,9999,3533472888
61,20,15,Jits_Phase_8,157,9999,9999,9999,3534272592
61,20,15,Jits_Phase_8,158,9999,9999,9999,3535072352
61,20,15,Jits_Phase_8,159,9999,9999,9999,3535872108
61,20,15,Jits_Phase_8,160,9999,9999,9999,3536672844
61,20,15,Jits_Phase_8,161,9999,9999,9999,3537472600
61,20,15,Jits_Phase_8,162,9999,9999,9999,3538272368
61,20,15,Jits_Phase_8,163,9999,9999,9999,3539072124
61,20,15,Jits_Phase_8,164,9999,9999,9999,3539872852
61,20,15,Jits_Phase_8,165,9999,9999,9999,3540672636
61,20,15,Jits_Phase_8,166,9999,9999,9999,3541472336
61,20,15,Jits_Phase_8,167,9999,9999,9999,3542272096
61,20,15,Jits_Phase_8,168,9999,9999,9999,3543072844
61,20,15,Jits_Phase_8,169,9999,9999,9999,3543872612
61,21,5,ISIP_5,0,5,42,127,3602877724
61,21,5,ISIP_5,1,5,42,127,3603377592
61,21,5,ISIP_5,2,5,42,127,3603878104
61,21,5,ISIP_5,3,5,42,127,3604378048
61,21,5,ISIP_5,4,5,42,127,3604877688
61,21,5,ISIP_5,5,1,48,70,3604915316
61,21,5,ISIP_5,6,1,48,49,3605370984
61,21,5,ISIP_5,7,5,42,127,3605378348
61,21,5,ISIP_5,8,1,48,57,3605851308
61,21,5,ISIP_5,9,5,42,127,3605878192
61,21,5,ISIP_5,10,1,48,50,3606345536
61,21,5,ISIP_5,11,5,42,127,3606377960
61,21,5,ISIP_5,12,5,42,127,3606877516
61,21,5,ISIP_5,13,1,48,88,3606902924
61,21,5,ISIP_5,14,5,42,127,3607378184
61,21,5,ISIP_5,15,1,48,58,3607392376
61,21,5,ISIP_5,16,5,42,127,3607878100
61,21,5,ISIP_5,17,1,48,53,3607887208
61,21,5,ISIP_5,18,1,48,56,3608373044
61,21,5,ISIP_5,19,5,42,127,3608377792
61,21,5,ISIP_5,20,5,42,127,3608877492
61,21,5,ISIP_5,21,1,48,70,3608901404
61,21,5,ISIP_5,22,5,42,127,3609378084
61,21,5,ISIP_5,23,1,48,61,3609412168
61,21,5,ISIP_5,24,5,42,127,3609878004
61,21,5,ISIP_5,25,1,48,58,3609883820
61,21,5,ISIP_5,26,1,48,54,3610369952
61,21,5,ISIP_5,27,5,42,127,3610377544
61,21,5,ISIP_5,28,5,42,127,3610878440
61,21,5,ISIP_5,29,1,48,89,3610891512
61,21,5,ISIP_5,30,1,48,55,3611370464
61,21,5,ISIP_5,31,5,42,127,3611378132
61,21,5,ISIP_5,32,1,48,57,3611877756
61,21,5,ISIP_5,33,5,42,127,3611879096
61,21,5,ISIP_5,34,1,48,49,3612371500
61,21,5,ISIP_5,35,5,42,127,3612377520
61,21,5,ISIP_5,36,5,42,127,3612878268
61,21,5,ISIP_5,37,1,48,73,3612879752
61,21,5,ISIP_5,38,5,42,127,3613378184
61,21,5,ISIP_5,39,1,48,43,3613392672
61,21,5,ISIP_5,40,1,48,47,3613862332
61,21,5,ISIP_5,41,5,42,127,3613877724
61,21,5,ISIP_5,42,1,48,51,3614349388
61,21,5,ISIP_5,43,5,42,127,3614378368
61,21,5,ISIP_5,44,5,42,127,3614878068
61,21,5,ISIP_5,45,1,48,69,3614880892
61,21,5,ISIP_5,46,1,48,39,3615365680
61,21,5,ISIP_5,47,5,42,127,3615377980
61,21,5,ISIP_5,48,5,42,127,3615877456
61,21,5,ISIP_5,49,1,48,51,3615881696
61,21,5,ISIP_5,50,5,42,127,3616378200
61,21,5,ISIP_5,51,1,48,45,3616380136
61,21,5,ISIP_5,52,5,42,127,3616878044
61,21,5,ISIP_5,53,1,48,68,3616883784
61,21,5,ISIP_5,54,1,48,38,3617373808
61,21,5,ISIP_5,55,5,42,127,3617378028
61,21,5,ISIP_5,56,5,42,127,3617878404
61,21,5,ISIP_5,57,1,48,43,3617882200
61,21,5,ISIP_5,58,1,48,48,3618362272
61,21,5,ISIP_5,59,5,42,127,3618378092
61,21,5,ISIP_5,60,1,48,77,3618873788
61,21,5,ISIP_5,61,5,42,127,3618878008
61,21,5,ISIP_5,62,5,42,127,3619377564
61,21,5,ISIP_5,63,1,48,47,3619388384
61,21,5,ISIP_5,64,5,42,127,3619878228
61,21,5,ISIP_5,65,1,48,43,3619886136
61,21,5,ISIP_5,66,5,42,127,3620377924
61,21,5,ISIP_5,67,1,48,42,3620383512
61,21,5,ISIP_5,68,5,42,127,3620877844
61,21,5,ISIP_5,69,1,48,77,3620904228
61,21,5,ISIP_5,70,1,48,42,3621377984
61,21,5,ISIP_5,71,5,42,127,3621379552
61,21,5,ISIP_5,72,5,42,127,3621878132
61,21,5,ISIP_5,73,1,48,50,3621895084
61,21,5,ISIP_5,74,1,48,42,3622378124
61,21,5,ISIP_5,75,5,42,127,3622379460
61,21,5,ISIP_5,76,1,48,75,3622886020
61,21,5,ISIP_5,77,1,48,42,3623382496
61,21,5,ISIP_5,78,1,48,49,3623888020
61,21,5,ISIP_5,79,1,48,39,3624380904
61,21,5,ISIP_5,80,1,48,81,3624878800
61,21,5,ISIP_5,81,1,48,41,3625373892
61,21,5,ISIP_5,82,1,48,42,3625876660
61,21,5,ISIP_5,83,1,48,35,3626378068
61,21,5,ISIP_5,84,1,48,70,3626918524
61,21,5,ISIP_5,85,1,48,46,3627440604
61,21,5,ISIP_5,86,1,48,33,3627943040
61,21,5,ISIP_5,87,1,48,40,3628447888
61,21,5,ISIP_5,88,1,48,84,3628971068
61,21,5,ISIP_5,89,1,48,41,3629504664
61,21,5,ISIP_5,90,1,48,41,3630028736
61,21,5,ISIP_5,91,1,48,40,3630515492
61,21,5,ISIP_5,92,1,48,81,3631042552
61,21,5,ISIP_5,93,1,48,47,3631561692
61,21,5,ISIP_5,94,1,48,34,3632072228
61,21,5,ISIP_5,95,1,48,39,3632580520
61,21,5,ISIP_5,96,1,48,81,3633080368
61,21,5,ISIP_5,97,1,48,45,3633607804
61,21,5,ISIP_5,98,1,48,47,3634121332
61,21,5,ISIP_5,99,1,48,38,3634615260
61,21,5,ISIP_5,100,1,48,79,3635157884
61,21,5,ISIP_5,101,1,48,41,3635672392
61,21,5,ISIP_5,102,1,48,43,3636196088
61,21,5,ISIP_5,103,1,48,41,3636720536
61,21,5,ISIP_5,104,1,48,84,3637224192
61,21,5,ISIP_5,105,1,48,36,3637738172
61,21,5,ISIP_5,106,1,48,43,3638253720
61,21,5,ISIP_5,107,1,48,30,3638769796
61,21,5,ISIP_5,108,1,48,84,3639287804
61,21,5,ISIP_5,109,1,48,41,3639815252
61,21,5,ISIP_5,110,1,48,39,3640340444
61,21,5,ISIP_5,111,1,48,39,3640841180
61,21,5,ISIP_5,112,1,48,88,3641369824
61,21,5,ISIP_5,113,1,48,47,3641906476
61,21,5,ISIP_5,114,1,48,45,3642427108
61,21,5,ISIP_5,115,1,48,38,3642901292
61,21,5,ISIP_5,116,1,48,80,3643413248
61,21,5,ISIP_5,117,1,48,35,3643945624
61,21,5,ISIP_5,118,1,48,42,3644476660
61,21,5,ISIP_5,119,1,48,46,3644981884
61,21,5,ISIP_5,120,1,48,86,3645491524
61,21,5,ISIP_5,121,1,48,40,3646017020
61,21,5,ISIP_5,122,1,48,41,3646541316
61,21,5,ISIP_5,123,1,48,45,3647057164
61,21,5,ISIP_5,124,1,48,81,3647573088
61,21,5,ISIP_5,125,1,48,38,3648082572
61,21,5,ISIP_5,126,1,48,42,3648613680
61,21,5,ISIP_5,127,1,48,37,3649118232
61,21,5,ISIP_5,128,1,48,87,3649630712
61,21,5,ISIP_5,129,1,48,36,3650118808
61,21,5,ISIP_5,130,1,48,39,3650648716
61,21,5,ISIP_5,131,1,48,38,3651158208
61,21,5,ISIP_5,132,1,48,80,3651669192
61,21,5,ISIP_5,133,1,48,38,3652189228
61,21,5,ISIP_5,134,1,48,40,3652712100
61,21,5,ISIP_5,135,1,48,40,3653230792
61,21,5,ISIP_5,136,1,48,82,3653755244
61,21,5,ISIP_5,137,1,48,45,3654285452
61,21,5,ISIP_5,138,1,48,42,3654803764
61,21,5,ISIP_5,139,1,48,47,3655303308
61,21,5,ISIP_5,140,1,48,81,3655809204
61,21,5,ISIP_5,141,1,48,46,3656319588
61,21,5,ISIP_5,142,1,48,45,3656847924
61,21,5,ISIP_5,143,1,48,46,3657363172
61,21,5,ISIP_5,144,1,48,80,3657888836
61,21,5,ISIP_5,145,1,48,47,3658395028
61,21,5,ISIP_5,146,1,48,48,3658901076
61,21,5,ISIP_5,147,1,48,35,3659418872
61,21,5,ISIP_5,148,1,48,73,3659961288
61,21,5,ISIP_5,149,1,48,49,3660526056
61,21,5,ISIP_5,150,1,48,43,3661010860
61,21,5,ISIP_5,151,1,48,39,3661514068
61,21,5,ISIP_5,152,1,48,73,3662024304
61,21,5,ISIP_5,153,1,48,51,3662576956
61,21,5,ISIP_5,154,1,48,48,3663095492
61,21,5,ISIP_5,155,1,48,46,3663571252
61,21,5,ISIP_5,156,1,48,76,3664112980
61,21,5,ISIP_5,157,1,48,51,3664636980
61,21,5,ISIP_5,158,1,48,45,3665161576
61,21,5,ISIP_5,159,1,48,37,3665683780
61,21,5,ISIP_5,160,1,48,82,3666223932
61,21,5,ISIP_5,161,1,48,43,3666768132
61,21,5,ISIP_5,162,1,48,41,3667304848
61,21,5,ISIP_5,163,1,48,45,3667819492
61,21,5,ISIP_5,164,1,48,78,3668360024
61,21,5,ISIP_5,165,1,48,47,3668901316
61,21,5,ISIP_5,166,1,48,41,3669432376
61,21,5,ISIP_5,167,1,48,39,3669976644
61,21,5,ISIP_5,168,1,48,73,3670501988
61,21,5,ISIP_5,169,1,48,42,3671048952
61,21,5,ISIP_5,170,1,48,41,3671561808
61,21,5,ISIP_5,171,1,48,48,3672091192
61,21,5,ISIP_5,172,1,48,74,3672630676
61,21,5,ISIP_5,173,1,48,47,3673160508
61,21,5,ISIP_5,174,1,48,40,3673704404
61,21,5,ISIP_5,175,1,48,42,3674256904
61,21,5,ISIP_5,176,1,48,78,3674763700
61,21,5,ISIP_5,177,1,48,54,3675295700
61,21,5,ISIP_5,178,1,48,48,3675825560
61,21,5,ISIP_5,179,1,48,41,3676345896
61,21,5,ISIP_5,180,1,48,85,3676877612
61,21,5,ISIP_5,181,1,48,32,3677403032
61,21,5,ISIP_5,182,1,48,46,3677941616
61,21,5,ISIP_5,183,1,48,51,3678453128
61,21,5,ISIP_5,184,1,48,74,3679015796
61,21,5,ISIP_5,185,1,48,40,3679554760
61,21,5,ISIP_5,186,1,48,42,3680073824
61,21,5,ISIP_5,187,1,48,38,3680622428
61,21,5,ISIP_5,188,1,48,83,3681164312
61,21,5,ISIP_5,189,1,48,38,3681667144
61,21,5,ISIP_5,190,1,48,36,3682199436
61,21,5,ISIP_5,191,1,48,38,3682734984
61,21,5,ISIP_5,0,9999,9999,9999,3602875512
61,21,5,ISIP_5,1,9999,9999,9999,3603375156
61,21,5,ISIP_5,2,9999,9999,9999,3603875892
61,21,5,ISIP_5,3,9999,9999,9999,3604375608
61,21,5,ISIP_5,4,9999,9999,9999,3604875328
61,21,5,ISIP_5,5,9999,9999,9999,3605376060
61,21,5,ISIP_5,6,9999,9999,9999,3605875828
61,21,5,ISIP_5,7,9999,9999,9999,3606375524
61,21,5,ISIP_5,8,9999,9999,9999,3606875228
61,21,5,ISIP_5,9,9999,9999,9999,3607375968
61,21,5,ISIP_5,10,9999,9999,9999,3607875664
61,21,5,ISIP_5,11,9999,9999,9999,3608375356
61,21,5,ISIP_5,12,9999,9999,9999,3608875056
61,21,5,ISIP_5,13,9999,9999,9999,3609375796
61,21,5,ISIP_5,14,9999,9999,9999,3609875568
61,21,5,ISIP_5,15,9999,9999,9999,3610375256
61,21,5,ISIP_5,16,9999,9999,9999,3610876004
61,21,5,ISIP_5,17,9999,9999,9999,3611375696
61,21,5,ISIP_5,18,9999,9999,9999,3611875396
61,21,5,ISIP_5,19,9999,9999,9999,3612375160
61,21,5,ISIP_5,20,9999,9999,9999,3612875832
61,21,5,ISIP_5,21,9999,9999,9999,3613375600
61,21,5,ISIP_5,22,9999,9999,9999,3613875288
61,21,5,ISIP_5,23,9999,9999,9999,3614376004
61,21,5,ISIP_5,24,9999,9999,9999,3614875704
61,21,5,ISIP_5,25,9999,9999,9999,3615375468
61,21,5,ISIP_5,26,9999,9999,9999,3615875168
61,21,5,ISIP_5,27,9999,9999,9999,3616375912
61,21,5,ISIP_5,28,9999,9999,9999,3616875608
61,21,5,ISIP_5,29,9999,9999,9999,3617375292
61,21,5,ISIP_5,30,9999,9999,9999,3617876040
61,21,5,ISIP_5,31,9999,9999,9999,3618375728
61,21,5,ISIP_5,32,9999,9999,9999,3618875500
61,21,5,ISIP_5,33,9999,9999,9999,3619375200
61,21,5,ISIP_5,34,9999,9999,9999,3619875940
61,21,5,ISIP_5,35,9999,9999,9999,3620375640
61,21,5,ISIP_5,36,9999,9999,9999,3620875332
61,21,5,ISIP_5,37,9999,9999,9999,3621376076
61,21,5,ISIP_5,38,9999,9999,9999,3621875768
61,21,5,ISIP_5,39,9999,9999,9999,3622375536
61,21,5,ISIP_5,40,9999,9999,9999,3622875232
61,21,5,ISIP_5,41,9999,9999,9999,3623375972
61,21,5,ISIP_5,42,9999,9999,9999,3623875660
61,21,5,ISIP_5,43,9999,9999,9999,3624375352
61,21,5,ISIP_5,44,9999,9999,9999,3624875092
61,21,5,ISIP_5,45,9999,9999,9999,3625375824
61,21,5,ISIP_5,46,9999,9999,9999,3625875520
61,21,5,ISIP_5,47,9999,9999,9999,3626375284
61,21,5,ISIP_5,48,9999,9999,9999,3626876020
61,21,5,ISIP_5,49,9999,9999,9999,3627375712
61,21,5,ISIP_5,50,9999,9999,9999,3627875400
61,21,5,ISIP_5,51,9999,9999,9999,3628375092
61,21,5,ISIP_5,52,9999,9999,9999,3628875832
61,21,5,ISIP_5,53,9999,9999,9999,3629375592
61,21,5,ISIP_5,54,9999,9999,9999,3629875288
61,21,5,ISIP_5,55,9999,9999,9999,3630376024
61,21,5,ISIP_5,56,9999,9999,9999,3630875716
61,21,5,ISIP_5,57,9999,9999,9999,3631375480
61,21,5,ISIP_5,58,9999,9999,9999,3631875172
61,21,5,ISIP_5,59,9999,9999,9999,3632375908
61,21,5,ISIP_5,60,9999,9999,9999,3632875600
61,21,5,ISIP_5,61,9999,9999,9999,3633375292
61,21,5,ISIP_5,62,9999,9999,9999,3633876028
61,21,5,ISIP_5,63,9999,9999,9999,3634375792
61,21,5,ISIP_5,64,9999,9999,9999,3634875484
61,21,5,ISIP_5,65,9999,9999,9999,3635375176
61,21,5,ISIP_5,66,9999,9999,9999,3635875888
61,21,5,ISIP_5,67,9999,9999,9999,3636375652
61,21,5,ISIP_5,68,9999,9999,9999,3636875348
61,21,5,ISIP_5,69,9999,9999,9999,3637376084
61,21,5,ISIP_5,70,9999,9999,9999,3637875776
61,21,5,ISIP_5,71,9999,9999,9999,3638375540
61,21,5,ISIP_5,72,9999,9999,9999,3638875232
61,21,5,ISIP_5,73,9999,9999,9999,3639375984
61,21,5,ISIP_5,74,9999,9999,9999,3639875676
61,21,5,ISIP_5,75,9999,9999,9999,3640375368
61,21,5,ISIP_5,76,9999,9999,9999,3640875060
61,21,5,ISIP_5,77,9999,9999,9999,3641375796
61,21,5,ISIP_5,78,9999,9999,9999,3641875568
61,21,5,ISIP_5,79,9999,9999,9999,3642375256
61,21,5,ISIP_5,80,9999,9999,9999,3642875992
61,21,5,ISIP_5,81,9999,9999,9999,3643375684
61,21,5,ISIP_5,82,9999,9999,9999,3643875376
61,21,5,ISIP_5,83,9999,9999,9999,3644375140
61,21,5,ISIP_5,84,9999,9999,9999,3644875880
61,21,5,ISIP_5,85,9999,9999,9999,3645375568
61,21,5,ISIP_5,86,9999,9999,9999,3645875260
61,21,5,ISIP_5,87,9999,9999,9999,3646376048
61,21,5,ISIP_5,88,9999,9999,9999,3646875736
61,21,5,ISIP_5,89,9999,9999,9999,3647375428
61,21,5,ISIP_5,90,9999,9999,9999,3647875192
61,21,5,ISIP_5,91,9999,9999,9999,3648375928
61,21,5,ISIP_5,92,9999,9999,9999,3648875620
61,21,5,ISIP_5,93,9999,9999,9999,3649375308
61,21,5,ISIP_5,94,9999,9999,9999,3649876048
61,21,5,ISIP_5,95,9999,9999,9999,3650375736
61,21,5,ISIP_5,96,9999,9999,9999,3650875500
61,21,5,ISIP_5,97,9999,9999,9999,3651375192
61,21,5,ISIP_5,98,9999,9999,9999,3651875928
61,21,5,ISIP_5,99,9999,9999,9999,3652375620
61,21,5,ISIP_5,100,9999,9999,9999,3652875312
61,21,5,ISIP_5,101,9999,9999,9999,3653376052
61,21,5,ISIP_5,102,9999,9999,9999,3653875816
61,21,5,ISIP_5,103,9999,9999,9999,3654375520
61,21,5,ISIP_5,104,9999,9999,9999,3654875212
61,21,5,ISIP_5,105,9999,9999,9999,3655375948
61,21,5,ISIP_5,106,9999,9999,9999,3655875636
61,21,5,ISIP_5,107,9999,9999,9999,3656375404
61,21,5,ISIP_5,108,9999,9999,9999,3656875068
61,21,5,ISIP_5,109,9999,9999,9999,3657375804
61,21,5,ISIP_5,110,9999,9999,9999,3657875576
61,21,5,ISIP_5,111,9999,9999,9999,3658375264
61,21,5,ISIP_5,112,9999,9999,9999,3658876004
61,21,5,ISIP_5,113,9999,9999,9999,3659375692
61,21,5,ISIP_5,114,9999,9999,9999,3659875384
61,21,5,ISIP_5,115,9999,9999,9999,3660375148
61,21,5,ISIP_5,116,9999,9999,9999,3660875888
61,21,5,ISIP_5,117,9999,9999,9999,3661375576
61,21,5,ISIP_5,118,9999,9999,9999,3661875268
61,21,5,ISIP_5,119,9999,9999,9999,3662376004
61,21,5,ISIP_5,120,9999,9999,9999,3662875696
61,21,5,ISIP_5,121,9999,9999,9999,3663375464
61,21,5,ISIP_5,122,9999,9999,9999,3663875152
61,21,5,ISIP_5,123,9999,9999,9999,3664375892
61,21,5,ISIP_5,124,9999,9999,9999,3664875584
61,21,5,ISIP_5,125,9999,9999,9999,3665375348
61,21,5,ISIP_5,126,9999,9999,9999,3665876084
61,21,5,ISIP_5,127,9999,9999,9999,3666375772
61,21,5,ISIP_5,128,9999,9999,9999,3666875464
61,21,5,ISIP_5,129,9999,9999,9999,3667375172
61,21,5,ISIP_5,130,9999,9999,9999,3667875956
61,21,5,ISIP_5,131,9999,9999,9999,3668375648
61,21,5,ISIP_5,132,9999,9999,9999,3668875348
61,21,5,ISIP_5,133,9999,9999,9999,3669376084
61,21,5,ISIP_5,134,9999,9999,9999,3669875776
61,21,5,ISIP_5,135,9999,9999,9999,3670375540
61,21,5,ISIP_5,136,9999,9999,9999,3670875232
61,21,5,ISIP_5,137,9999,9999,9999,3671375968
61,21,5,ISIP_5,138,9999,9999,9999,3671875656
61,21,5,ISIP_5,139,9999,9999,9999,3672375348
61,21,5,ISIP_5,140,9999,9999,9999,3672875116
61,21,5,ISIP_5,141,9999,9999,9999,3673375852
61,21,5,ISIP_5,142,9999,9999,9999,3673875544
61,21,5,ISIP_5,143,9999,9999,9999,3674375232
61,21,5,ISIP_5,144,9999,9999,9999,3674875968
61,21,5,ISIP_5,145,9999,9999,9999,3675375676
61,21,5,ISIP_5,146,9999,9999,9999,3675875440
61,21,5,ISIP_5,147,9999,9999,9999,3676375132
61,21,5,ISIP_5,148,9999,9999,9999,3676875876
61,21,5,ISIP_5,149,9999,9999,9999,3677375568
61,21,5,ISIP_5,150,9999,9999,9999,3677875256
61,21,5,ISIP_5,151,9999,9999,9999,3678376044
61,21,5,ISIP_5,152,9999,9999,9999,3678875736
61,21,5,ISIP_5,153,9999,9999,9999,3679375428
61,21,5,ISIP_5,154,9999,9999,9999,3679875192
61,21,5,ISIP_5,155,9999,9999,9999,3680375856
61,21,5,ISIP_5,156,9999,9999,9999,3680875620
61,21,5,ISIP_5,157,9999,9999,9999,3681375312
61,21,5,ISIP_5,158,9999,9999,9999,3681876048
61,21,5,ISIP_5,159,9999,9999,9999,3682375740
61,22,3,ISIP_8,0,5,42,127,3708624168
61,22,3,ISIP_8,1,5,42,127,3709423924
61,22,3,ISIP_8,2,5,42,127,3710223972
61,22,3,ISIP_8,3,5,42,127,3711023508
61,22,3,ISIP_8,4,5,42,127,3711824236
61,22,3,ISIP_8,5,1,48,51,3711832144
61,22,3,ISIP_8,6,5,42,127,3712623896
61,22,3,ISIP_8,7,1,48,65,3712633220
61,22,3,ISIP_8,8,5,42,127,3713423776
61,22,3,ISIP_8,9,1,48,68,3713442676
61,22,3,ISIP_8,10,5,42,127,3714223460
61,22,3,ISIP_8,11,1,48,61,3714261880
61,22,3,ISIP_8,12,5,42,127,3715024164
61,22,3,ISIP_8,13,1,48,62,3715038952
61,22,3,ISIP_8,14,5,42,127,3715823972
61,22,3,ISIP_8,15,1,48,70,3715832328
61,22,3,ISIP_8,16,1,48,67,3716601228
61,22,3,ISIP_8,17,5,42,127,3716623700
61,22,3,ISIP_8,18,1,48,74,3717368052
61,22,3,ISIP_8,19,5,42,127,3717423732
61,22,3,ISIP_8,20,1,48,64,3718201744
61,22,3,ISIP_8,21,5,42,127,3718224216
61,22,3,ISIP_8,22,1,48,73,3719007460
61,22,3,ISIP_8,23,5,42,127,3719023876
61,22,3,ISIP_8,24,5,42,127,3719823688
61,22,3,ISIP_8,25,1,48,77,3719828976
61,22,3,ISIP_8,26,1,48,73,3720619444
61,22,3,ISIP_8,27,5,42,127,3720623664
61,22,3,ISIP_8,28,1,48,57,3721388136
61,22,3,ISIP_8,29,5,42,127,3721424220
61,22,3,ISIP_8,30,1,48,73,3722172984
61,22,3,ISIP_8,31,5,42,127,3722223956
61,22,3,ISIP_8,32,1,48,66,3722957756
61,22,3,ISIP_8,33,5,42,127,3723023688
61,22,3,ISIP_8,34,1,48,65,3723757644
61,22,3,ISIP_8,35,5,42,127,3723823572
61,22,3,ISIP_8,36,1,48,75,3724588196
61,22,3,ISIP_8,37,5,42,127,3724624352
61,22,3,ISIP_8,38,5,42,127,3725424096
61,22,3,ISIP_8,39,1,48,73,3725440380
61,22,3,ISIP_8,40,1,48,62,3726223752
61,22,3,ISIP_8,41,5,42,127,3726225016
61,22,3,ISIP_8,42,1,48,65,3727010956
61,22,3,ISIP_8,43,5,42,127,3727023504
61,22,3,ISIP_8,44,1,48,71,3727783164
61,22,3,ISIP_8,45,5,42,127,3727824432
61,22,3,ISIP_8,46,1,48,67,3728564300
61,22,3,ISIP_8,47,5,42,127,3728623944
61,22,3,ISIP_8,48,1,48,64,3729331716
61,22,3,ISIP_8,49,5,42,127,3729423828
61,22,3,ISIP_8,50,1,48,65,3730147156
61,22,3,ISIP_8,51,5,42,127,3730223488
61,22,3,ISIP_8,52,1,48,76,3730889372
61,22,3,ISIP_8,53,5,42,127,3731024400
61,22,3,ISIP_8,54,1,48,55,3731623856
61,22,3,ISIP_8,55,5,42,127,3731823884
61,22,3,ISIP_8,56,1,48,61,3732454560
61,22,3,ISIP_8,57,1,48,63,3733347856
61,22,3,ISIP_8,58,1,48,74,3734147660
61,22,3,ISIP_8,59,1,48,65,3734931760
61,22,3,ISIP_8,60,1,48,68,3735733608
61,22,3,ISIP_8,61,1,48,62,3736520848
61,22,3,ISIP_8,62,1,48,73,3737334556
61,22,3,ISIP_8,63,1,48,55,3738131072
61,22,3,ISIP_8,64,1,48,59,3738903800
61,22,3,ISIP_8,65,1,48,58,3739672864
61,22,3,ISIP_8,66,1,48,71,3740424796
61,22,3,ISIP_8,67,1,48,62,3741163264
61,22,3,ISIP_8,68,1,48,58,3741900388
61,22,3,ISIP_8,69,1,48,65,3742680372
61,22,3,ISIP_8,70,1,48,66,3743470080
61,22,3,ISIP_8,71,1,48,63,3744260904
61,22,3,ISIP_8,72,1,48,61,3745016208
61,22,3,ISIP_8,73,1,48,57,3745814592
61,22,3,ISIP_8,74,1,48,71,3746622700
61,22,3,ISIP_8,75,1,48,53,3747427888
61,22,3,ISIP_8,76,1,48,57,3748233600
61,22,3,ISIP_8,77,1,48,63,3749009992
61,22,3,ISIP_8,78,1,48,73,3749799420
61,22,3,ISIP_8,79,1,48,51,3750588004
61,22,3,ISIP_8,80,1,48,16,3750704744
61,22,3,ISIP_8,81,1,48,52,3751391076
61,22,3,ISIP_8,82,1,48,57,3752200756
61,22,3,ISIP_8,83,1,48,82,3753040956
61,22,3,ISIP_8,84,1,48,56,3753876660
61,22,3,ISIP_8,85,1,48,48,3754677536
61,22,3,ISIP_8,86,1,48,50,3755491700
61,22,3,ISIP_8,87,1,48,64,3756308780
61,22,3,ISIP_8,88,1,48,49,3757111428
61,22,3,ISIP_8,89,1,48,44,3757893732
61,22,3,ISIP_8,90,1,48,41,3758702956
61,22,3,ISIP_8,91,1,48,87,3759474040
61,22,3,ISIP_8,92,1,48,48,3760243620
61,22,3,ISIP_8,93,1,48,47,3761015904
61,22,3,ISIP_8,94,1,48,40,3761830688
61,22,3,ISIP_8,95,1,48,76,3762586864
61,22,3,ISIP_8,96,1,48,48,3763320244
61,22,3,ISIP_8,97,1,48,47,3764116980
61,22,3,ISIP_8,98,1,48,53,3764891128
61,22,3,ISIP_8,99,1,48,76,3765690732
61,22,3,ISIP_8,100,1,48,54,3766517316
61,22,3,ISIP_8,101,1,48,48,3767305148
61,22,3,ISIP_8,102,1,48,56,3768111388
61,22,3,ISIP_8,103,1,48,91,3768887484
61,22,3,ISIP_8,104,1,48,54,3769716984
61,22,3,ISIP_8,105,1,48,44,3770499508
61,22,3,ISIP_8,106,1,48,51,3771281732
61,22,3,ISIP_8,107,1,48,92,3772088064
61,22,3,ISIP_8,108,1,48,48,3772903804
61,22,3,ISIP_8,109,1,48,43,3773691044
61,22,3,ISIP_8,110,1,48,46,3774494360
61,22,3,ISIP_8,111,1,48,86,3775308828
61,22,3,ISIP_8,112,1,48,54,3776132492
61,22,3,ISIP_8,113,1,48,52,3776950044
61,22,3,ISIP_8,114,1,48,53,3777762492
61,22,3,ISIP_8,115,1,48,94,3778629912
61,22,3,ISIP_8,116,1,48,50,3779437792
61,22,3,ISIP_8,117,1,48,52,3780234752
61,22,3,ISIP_8,118,1,48,51,3781055600
61,22,3,ISIP_8,119,1,48,87,3781882628
61,22,3,ISIP_8,120,1,48,43,3782703900
61,22,3,ISIP_8,121,1,48,48,3783531228
61,22,3,ISIP_8,122,1,48,58,3784372720
61,22,3,ISIP_8,123,1,48,85,3785227356
61,22,3,ISIP_8,124,1,48,56,3786038304
61,22,3,ISIP_8,125,1,48,44,3786850376
61,22,3,ISIP_8,126,1,48,50,3787633272
61,22,3,ISIP_8,127,1,48,93,3788477008
61,22,3,ISIP_8,128,1,48,51,3789295508
61,22,3,ISIP_8,129,1,48,50,3790102416
61,22,3,ISIP_8,130,1,48,49,3790909028
61,22,3,ISIP_8,131,1,48,81,3791662008
61,22,3,ISIP_8,132,1,48,48,3792454260
61,22,3,ISIP_8,133,1,48,38,3793233420
61,22,3,ISIP_8,134,1,48,48,3794062396
61,22,3,ISIP_8,135,1,48,82,3794897748
61,22,3,ISIP_8,136,1,48,53,3795741236
61,22,3,ISIP_8,137,1,48,51,3796576272
61,22,3,ISIP_8,138,1,48,46,3797397016
61,22,3,ISIP_8,139,1,48,84,3798255800
61,22,3,ISIP_8,140,1,48,52,3799086040
61,22,3,ISIP_8,141,1,48,53,3799904772
61,22,3,ISIP_8,142,1,48,45,3800725296
61,22,3,ISIP_8,143,1,48,82,3801570076
61,22,3,ISIP_8,144,1,48,52,3802405412
61,22,3,ISIP_8,145,1,48,47,3803209548
61,22,3,ISIP_8,146,1,48,51,3804004644
61,22,3,ISIP_8,147,1,48,96,3804842988
61,22,3,ISIP_8,148,1,48,46,3805674664
61,22,3,ISIP_8,149,1,48,48,3806524580
61,22,3,ISIP_8,150,1,48,48,3807370608
61,22,3,ISIP_8,151,1,48,67,3808187264
61,22,3,ISIP_8,152,1,48,29,3809006068
61,22,3,ISIP_8,153,1,48,16,3809113160
61,22,3,ISIP_8,154,1,48,46,3809774508
61,22,3,ISIP_8,155,1,48,52,3810617024
61,22,3,ISIP_8,156,1,48,84,3811424904
61,22,3,ISIP_8,157,1,48,62,3812192168
61,22,3,ISIP_8,158,1,48,52,3813004544
61,22,3,ISIP_8,159,1,48,54,3813794100
61,22,3,ISIP_8,160,1,48,88,3814539676
61,22,3,ISIP_8,161,1,48,52,3815325412
61,22,3,ISIP_8,162,1,48,51,3816152100
61,22,3,ISIP_8,163,1,48,49,3816950932
61,22,3,ISIP_8,164,1,48,69,3817802796
61,22,3,ISIP_8,165,1,48,70,3818622268
61,22,3,ISIP_8,166,1,48,44,3819455080
61,22,3,ISIP_8,167,1,48,51,3820289224
61,22,3,ISIP_8,168,1,48,75,3821083340
61,22,3,ISIP_8,169,1,48,49,3821885764
61,22,3,ISIP_8,170,1,48,51,3822728796
61,22,3,ISIP_8,171,1,48,52,3823548372
61,22,3,ISIP_8,172,1,48,95,3824305620
61,22,3,ISIP_8,173,1,48,52,3825094132
61,22,3,ISIP_8,174,1,48,51,3825899624
61,22,3,ISIP_8,175,1,48,52,3826728220
61,22,3,ISIP_8,176,1,48,92,3827535204
61,22,3,ISIP_8,177,1,48,60,3828328124
61,22,3,ISIP_8,0,9999,9999,9999,3708621876
61,22,3,ISIP_8,1,9999,9999,9999,3709421632
61,22,3,ISIP_8,2,9999,9999,9999,3710221388
61,22,3,ISIP_8,3,9999,9999,9999,3711021144
61,22,3,ISIP_8,4,9999,9999,9999,3711821872
61,22,3,ISIP_8,5,9999,9999,9999,3712621680
61,22,3,ISIP_8,6,9999,9999,9999,3713421412
61,22,3,ISIP_8,7,9999,9999,9999,3714221172
61,22,3,ISIP_8,8,9999,9999,9999,3715021876
61,22,3,ISIP_8,9,9999,9999,9999,3715821684
61,22,3,ISIP_8,10,9999,9999,9999,3716621412
61,22,3,ISIP_8,11,9999,9999,9999,3717421144
61,22,3,ISIP_8,12,9999,9999,9999,3718221928
61,22,3,ISIP_8,13,9999,9999,9999,3719021660
61,22,3,ISIP_8,14,9999,9999,9999,3719821400
61,22,3,ISIP_8,15,9999,9999,9999,3720621152
61,22,3,ISIP_8,16,9999,9999,9999,3721421932
61,22,3,ISIP_8,17,9999,9999,9999,3722221668
61,22,3,ISIP_8,18,9999,9999,9999,3723021400
61,22,3,ISIP_8,19,9999,9999,9999,3723821132
61,22,3,ISIP_8,20,9999,9999,9999,3724621916
61,22,3,ISIP_8,21,9999,9999,9999,3725421656
61,22,3,ISIP_8,22,9999,9999,9999,3726221388
61,22,3,ISIP_8,23,9999,9999,9999,3727021140
61,22,3,ISIP_8,24,9999,9999,9999,3727821920
61,22,3,ISIP_8,25,9999,9999,9999,3728621656
61,22,3,ISIP_8,26,9999,9999,9999,3729421388
61,22,3,ISIP_8,27,9999,9999,9999,3730221124
61,22,3,ISIP_8,28,9999,9999,9999,3731021888
61,22,3,ISIP_8,29,9999,9999,9999,3731821672
61,22,3,ISIP_8,30,9999,9999,9999,3732621404
61,22,3,ISIP_8,31,9999,9999,9999,3733421172
61,22,3,ISIP_8,32,9999,9999,9999,3734221876
61,22,3,ISIP_8,33,9999,9999,9999,3735021680
61,22,3,ISIP_8,34,9999,9999,9999,3735821408
61,22,3,ISIP_8,35,9999,9999,9999,3736621120
61,22,3,ISIP_8,36,9999,9999,9999,3737421912
61,22,3,ISIP_8,37,9999,9999,9999,3738221640
61,22,3,ISIP_8,38,9999,9999,9999,3739021428
61,22,3,ISIP_8,39,9999,9999,9999,3739821108
61,22,3,ISIP_8,40,9999,9999,9999,3740621884
61,22,3,ISIP_8,41,9999,9999,9999,3741421616
61,22,3,ISIP_8,42,9999,9999,9999,3742221416
61,22,3,ISIP_8,43,9999,9999,9999,3743021148
61,22,3,ISIP_8,44,9999,9999,9999,3743821924
61,22,3,ISIP_8,45,9999,9999,9999,3744621656
61,22,3,ISIP_8,46,9999,9999,9999,3745421384
61,22,3,ISIP_8,47,9999,9999,9999,3746221140
61,22,3,ISIP_8,48,9999,9999,9999,3747021916
61,22,3,ISIP_8,49,9999,9999,9999,3747821644
61,22,3,ISIP_8,50,9999,9999,9999,3748621372
61,22,3,ISIP_8,51,9999,9999,9999,3749421104
61,22,3,ISIP_8,52,9999,9999,9999,3750221876
61,22,3,ISIP_8,53,9999,9999,9999,3751021660
61,22,3,ISIP_8,54,9999,9999,9999,3751821388
61,22,3,ISIP_8,55,9999,9999,9999,3752621144
61,22,3,ISIP_8,56,9999,9999,9999,3753421920
61,22,3,ISIP_8,57,9999,9999,9999,3754221648
61,22,3,ISIP_8,58,9999,9999,9999,3755021376
61,22,3,ISIP_8,59,9999,9999,9999,3755821108
61,22,3,ISIP_8,60,9999,9999,9999,3756621884
61,22,3,ISIP_8,61,9999,9999,9999,3757421688
61,22,3,ISIP_8,62,9999,9999,9999,3758221416
61,22,3,ISIP_8,63,9999,9999,9999,3759021168
61,22,3,ISIP_8,64,9999,9999,9999,3759821944
61,22,3,ISIP_8,65,9999,9999,9999,3760621672
61,22,3,ISIP_8,66,9999,9999,9999,3761421404
61,22,3,ISIP_8,67,9999,9999,9999,3762221132
61,22,3,ISIP_8,68,9999,9999,9999,3763021908
61,22,3,ISIP_8,69,9999,9999,9999,3763821636
61,22,3,ISIP_8,70,9999,9999,9999,3764621364
61,22,3,ISIP_8,71,9999,9999,9999,3765421120
61,22,3,ISIP_8,72,9999,9999,9999,3766221896
61,22,3,ISIP_8,73,9999,9999,9999,3767021624
61,22,3,ISIP_8,74,9999,9999,9999,3767821428
61,22,3,ISIP_8,75,9999,9999,9999,3768621160
61,22,3,ISIP_8,76,9999,9999,9999,3769421936
61,22,3,ISIP_8,77,9999,9999,9999,3770221664
61,22,3,ISIP_8,78,9999,9999,9999,3771021392
61,22,3,ISIP_8,79,9999,9999,9999,3771821144
61,22,3,ISIP_8,80,9999,9999,9999,3772621920
61,22,3,ISIP_8,81,9999,9999,9999,3773421652
61,22,3,ISIP_8,82,9999,9999,9999,3774221380
61,22,3,ISIP_8,83,9999,9999,9999,3775021112
61,22,3,ISIP_8,84,9999,9999,9999,3775821884
61,22,3,ISIP_8,85,9999,9999,9999,3776621616
61,22,3,ISIP_8,86,9999,9999,9999,3777421420
61,22,3,ISIP_8,87,9999,9999,9999,3778221172
61,22,3,ISIP_8,88,9999,9999,9999,3779021872
61,22,3,ISIP_8,89,9999,9999,9999,3779821676
61,22,3,ISIP_8,90,9999,9999,9999,3780621404
61,22,3,ISIP_8,91,9999,9999,9999,3781421136
61,22,3,ISIP_8,92,9999,9999,9999,3782221912
61,22,3,ISIP_8,93,9999,9999,9999,3783021640
61,22,3,ISIP_8,94,9999,9999,9999,3783821368
61,22,3,ISIP_8,95,9999,9999,9999,3784621124
61,22,3,ISIP_8,96,9999,9999,9999,3785421900
61,22,3,ISIP_8,97,9999,9999,9999,3786221628
61,22,3,ISIP_8,98,9999,9999,9999,3787021360
61,22,3,ISIP_8,99,9999,9999,9999,3787821160
61,22,3,ISIP_8,100,9999,9999,9999,3788621936
61,22,3,ISIP_8,101,9999,9999,9999,3789421668
61,22,3,ISIP_8,102,9999,9999,9999,3790221396
61,22,3,ISIP_8,103,9999,9999,9999,3791021152
61,22,3,ISIP_8,104,9999,9999,9999,3791821924
61,22,3,ISIP_8,105,9999,9999,9999,3792621656
61,22,3,ISIP_8,106,9999,9999,9999,3793421384
61,22,3,ISIP_8,107,9999,9999,9999,3794221112
61,22,3,ISIP_8,108,9999,9999,9999,3795021888
61,22,3,ISIP_8,109,9999,9999,9999,3795821632
61,22,3,ISIP_8,110,9999,9999,9999,3796621364
61,22,3,ISIP_8,111,9999,9999,9999,3797421116
61,22,3,ISIP_8,112,9999,9999,9999,3798221896
61,22,3,ISIP_8,113,9999,9999,9999,3799021628
61,22,3,ISIP_8,114,9999,9999,9999,3799821428
61,22,3,ISIP_8,115,9999,9999,9999,3800621160
61,22,3,ISIP_8,116,9999,9999,9999,3801421936
61,22,3,ISIP_8,117,9999,9999,9999,3802221664
61,22,3,ISIP_8,118,9999,9999,9999,3803021392
61,22,3,ISIP_8,119,9999,9999,9999,3803821148
61,22,3,ISIP_8,120,9999,9999,9999,3804621924
61,22,3,ISIP_8,121,9999,9999,9999,3805421652
61,22,3,ISIP_8,122,9999,9999,9999,3806221380
61,22,3,ISIP_8,123,9999,9999,9999,3807021112
61,22,3,ISIP_8,124,9999,9999,9999,3807821884
61,22,3,ISIP_8,125,9999,9999,9999,3808621616
61,22,3,ISIP_8,126,9999,9999,9999,3809421396
61,22,3,ISIP_8,127,9999,9999,9999,3810221152
61,22,3,ISIP_8,128,9999,9999,9999,3811021928
61,22,3,ISIP_8,129,9999,9999,9999,3811821656
61,22,3,ISIP_8,130,9999,9999,9999,3812621384
61,22,3,ISIP_8,131,9999,9999,9999,3813421112
61,22,3,ISIP_8,132,9999,9999,9999,3814221888
61,22,3,ISIP_8,133,9999,9999,9999,3815021620
61,22,3,ISIP_8,134,9999,9999,9999,3815821420
61,22,3,ISIP_8,135,9999,9999,9999,3816621104
61,22,3,ISIP_8,136,9999,9999,9999,3817421880
61,22,3,ISIP_8,137,9999,9999,9999,3818221684
61,22,3,ISIP_8,138,9999,9999,9999,3819021412
61,22,3,ISIP_8,139,9999,9999,9999,3819821140
61,22,3,ISIP_8,140,9999,9999,9999,3820621920
61,22,3,ISIP_8,141,9999,9999,9999,3821421648
61,22,3,ISIP_8,142,9999,9999,9999,3822221376
61,22,3,ISIP_8,143,9999,9999,9999,3823021132
61,22,3,ISIP_8,144,9999,9999,9999,3823821908
61,22,3,ISIP_8,145,9999,9999,9999,3824621640
61,22,3,ISIP_8,146,9999,9999,9999,3825421372
61,22,3,ISIP_8,147,9999,9999,9999,3826221172
61,22,3,ISIP_8,148,9999,9999,9999,3827021876
61,22,3,ISIP_8,149,9999,9999,9999,3827821676
61,23,11,Pattern_Practice,0,5,42,127,3944744348
61,23,11,Pattern_Practice,1,5,42,127,3945243912
61,23,11,Pattern_Practice,2,5,42,127,3945743632
61,23,11,Pattern_Practice,3,5,42,127,3946243496
61,23,11,Pattern_Practice,4,5,42,127,3946744036
61,23,11,Pattern_Practice,5,1,48,65,3946751788
61,23,11,Pattern_Practice,6,1,48,62,3947230000
61,23,11,Pattern_Practice,7,5,42,127,3947243948
61,23,11,Pattern_Practice,8,1,48,69,3947705908
61,23,11,Pattern_Practice,9,5,42,127,3947743716
61,23,11,Pattern_Practice,10,1,38,56,3948224452
61,23,11,Pattern_Practice,11,5,42,127,3948244384
61,23,11,Pattern_Practice,12,1,48,70,3948721380
61,23,11,Pattern_Practice,13,5,42,127,3948744152
61,23,11,Pattern_Practice,14,1,48,74,3949233564
61,23,11,Pattern_Practice,15,5,42,127,3949243696
61,23,11,Pattern_Practice,16,1,48,75,3949728248
61,23,11,Pattern_Practice,17,5,42,127,3949743464
61,23,11,Pattern_Practice,18,5,42,127,3950244288
61,23,11,Pattern_Practice,19,1,38,59,3950254736
61,23,11,Pattern_Practice,20,5,42,127,3950744032
61,23,11,Pattern_Practice,21,1,48,75,3950779264
61,23,11,Pattern_Practice,22,5,42,127,3951243656
61,23,11,Pattern_Practice,23,1,48,68,3951259584
61,23,11,Pattern_Practice,24,5,42,127,3951744320
61,23,11,Pattern_Practice,25,1,48,70,3951749536
61,23,11,Pattern_Practice,26,5,42,127,3952244164
61,23,11,Pattern_Practice,27,1,38,60,3952288224
61,23,11,Pattern_Practice,28,5,42,127,3952743712
61,23,11,Pattern_Practice,29,1,48,76,3952809236
61,23,11,Pattern_Practice,30,5,42,127,3953243404
61,23,11,Pattern_Practice,31,1,48,67,3953291404
61,23,11,Pattern_Practice,32,5,42,127,3953744296
61,23,11,Pattern_Practice,33,1,48,78,3953773444
61,23,11,Pattern_Practice,34,5,42,127,3954244140
61,23,11,Pattern_Practice,35,1,38,62,3954270672
61,23,11,Pattern_Practice,36,5,42,127,3954743612
61,23,11,Pattern_Practice,37,1,48,73,3954808140
61,23,11,Pattern_Practice,38,5,42,127,3955244504
61,23,11,Pattern_Practice,39,1,48,70,3955300052
61,23,11,Pattern_Practice,40,5,42,127,3955744268
61,23,11,Pattern_Practice,41,1,48,68,3955783440
61,23,11,Pattern_Practice,42,5,42,127,3956243964
61,23,11,Pattern_Practice,43,1,38,58,3956280068
61,23,11,Pattern_Practice,44,5,42,127,3956743512
61,23,11,Pattern_Practice,45,1,48,71,3956791880
61,23,11,Pattern_Practice,46,5,42,127,3957244252
61,23,11,Pattern_Practice,47,1,48,63,3957258664
61,23,11,Pattern_Practice,48,5,42,127,3957744172
61,23,11,Pattern_Practice,49,1,48,69,3957754100
61,23,11,Pattern_Practice,50,5,42,127,3958243568
61,23,11,Pattern_Practice,51,1,38,59,3958265912
61,23,11,Pattern_Practice,52,5,42,127,3958744308
61,23,11,Pattern_Practice,53,1,48,83,3958763284
61,23,11,Pattern_Practice,54,1,48,64,3959241344
61,23,11,Pattern_Practice,55,5,42,127,3959244368
61,23,11,Pattern_Practice,56,5,42,127,3959744072
61,23,11,Pattern_Practice,57,1,38,55,3959779580
61,23,11,Pattern_Practice,58,5,42,127,3960243544
61,23,11,Pattern_Practice,59,1,48,60,3960252576
61,23,11,Pattern_Practice,60,5,42,127,3960744436
61,23,11,Pattern_Practice,61,1,48,73,3960786152
61,23,11,Pattern_Practice,62,5,42,127,3961244204
61,23,11,Pattern_Practice,63,1,38,65,3961251964
61,23,11,Pattern_Practice,64,5,42,127,3961743580
61,23,11,Pattern_Practice,65,1,48,76,3961747748
61,23,11,Pattern_Practice,66,1,48,72,3962233212
61,23,11,Pattern_Practice,67,5,42,127,3962243344
61,23,11,Pattern_Practice,68,5,42,127,3962744164
61,23,11,Pattern_Practice,69,1,38,56,3962755884
61,23,11,Pattern_Practice,70,5,42,127,3963244156
61,23,11,Pattern_Practice,71,1,48,79,3963269348
61,23,11,Pattern_Practice,72,1,48,72,3963732220
61,23,11,Pattern_Practice,73,5,42,127,3963743472
61,23,11,Pattern_Practice,74,1,38,54,3964233184
61,23,11,Pattern_Practice,75,5,42,127,3964244216
61,23,11,Pattern_Practice,76,5,42,127,3964744140
61,23,11,Pattern_Practice,77,1,48,75,3964758480
61,23,11,Pattern_Practice,78,1,48,83,3965240504
61,23,11,Pattern_Practice,79,5,42,127,3965244048
61,23,11,Pattern_Practice,80,1,38,70,3965723068
61,23,11,Pattern_Practice,81,5,42,127,3965743448
61,23,11,Pattern_Practice,82,1,48,78,3966234732
61,23,11,Pattern_Practice,83,5,42,127,3966244192
61,23,11,Pattern_Practice,84,1,48,77,3966744484
61,23,11,Pattern_Practice,85,5,42,127,3966745608
61,23,11,Pattern_Practice,86,5,42,127,3967243660
61,23,11,Pattern_Practice,87,1,38,72,3967254860
61,23,11,Pattern_Practice,88,5,42,127,3967744328
61,23,11,Pattern_Practice,89,1,48,87,3967752236
61,23,11,Pattern_Practice,90,1,48,78,3968243644
61,23,11,Pattern_Practice,91,5,42,127,3968245212
61,23,11,Pattern_Practice,92,5,42,127,3968744016
61,23,11,Pattern_Practice,93,1,38,78,3968754992
61,23,11,Pattern_Practice,94,5,42,127,3969243488
61,23,11,Pattern_Practice,95,1,48,69,3969285796
61,23,11,Pattern_Practice,96,5,42,127,3969744376
61,23,11,Pattern_Practice,97,1,48,67,3969754976
61,23,11,Pattern_Practice,98,5,42,127,3970244072
61,23,11,Pattern_Practice,99,1,38,65,3970250556
61,23,11,Pattern_Practice,100,5,42,127,3970743620
61,23,11,Pattern_Practice,101,1,48,74,3970767232
61,23,11,Pattern_Practice,102,1,48,62,3971230108
61,23,11,Pattern_Practice,103,5,42,127,3971244352
61,23,11,Pattern_Practice,104,1,38,74,3971712944
61,23,11,Pattern_Practice,105,5,42,127,3971744120
61,23,11,Pattern_Practice,106,5,42,127,3972243872
61,23,11,Pattern_Practice,107,1,48,62,3972246392
61,23,11,Pattern_Practice,108,1,48,66,3972739788
61,23,11,Pattern_Practice,109,5,42,127,3972743488
61,23,11,Pattern_Practice,110,1,38,83,3973228636
61,23,11,Pattern_Practice,111,5,42,127,3973244228
61,23,11,Pattern_Practice,112,5,42,127,3973743928
61,23,11,Pattern_Practice,113,1,48,79,3973759092
61,23,11,Pattern_Practice,114,5,42,127,3974243700
61,23,11,Pattern_Practice,115,1,48,61,3974265968
61,23,11,Pattern_Practice,116,5,42,127,3974744364
61,23,11,Pattern_Practice,117,1,38,87,3974747780
61,23,11,Pattern_Practice,118,5,42,127,3975244060
61,23,11,Pattern_Practice,119,1,48,66,3975287568
61,23,11,Pattern_Practice,120,5,42,127,3975743828
61,23,11,Pattern_Practice,121,1,48,68,3975752404
61,23,11,Pattern_Practice,122,5,42,127,3976243744
61,23,11,Pattern_Practice,123,1,38,84,3976244712
61,23,11,Pattern_Practice,124,5,42,127,3976744264
61,23,11,Pattern_Practice,125,1,48,74,3976761816
61,23,11,Pattern_Practice,126,1,48,67,3977241076
61,23,11,Pattern_Practice,127,5,42,127,3977244100
61,23,11,Pattern_Practice,128,1,38,79,3977737780
61,23,11,Pattern_Practice,129,5,42,127,3977743796
61,23,11,Pattern_Practice,130,5,42,127,3978243576
61,23,11,Pattern_Practice,131,1,48,67,3978284540
61,23,11,Pattern_Practice,132,5,42,127,3978744316
61,23,11,Pattern_Practice,133,1,48,65,3978754392
61,23,11,Pattern_Practice,134,1,38,75,3979217716
61,23,11,Pattern_Practice,135,5,42,127,3979243856
61,23,11,Pattern_Practice,136,1,48,75,3979725868
61,23,11,Pattern_Practice,137,5,42,127,3979743700
61,23,11,Pattern_Practice,138,1,48,72,3980230048
61,23,11,Pattern_Practice,139,5,42,127,3980244736
61,23,11,Pattern_Practice,140,1,38,64,3980713064
61,23,11,Pattern_Practice,141,5,42,127,3980743988
61,23,11,Pattern_Practice,142,1,48,72,3981239612
61,23,11,Pattern_Practice,143,5,42,127,3981243756
61,23,11,Pattern_Practice,144,5,42,127,3981743608
61,23,11,Pattern_Practice,145,1,48,60,3981746728
61,23,11,Pattern_Practice,146,5,42,127,3982244200
61,23,11,Pattern_Practice,147,1,38,65,3982254352
61,23,11,Pattern_Practice,148,5,42,127,3982743796
61,23,11,Pattern_Practice,149,1,48,60,3982747312
61,23,11,Pattern_Practice,150,1,48,55,3983222576
61,23,11,Pattern_Practice,151,5,42,127,3983243560
61,23,11,Pattern_Practice,152,5,42,127,3983744604
61,23,11,Pattern_Practice,153,1,38,84,3983748696
61,23,11,Pattern_Practice,154,5,42,127,3984244000
61,23,11,Pattern_Practice,155,1,48,68,3984270756
61,23,11,Pattern_Practice,0,9999,9999,9999,3944741984
61,23,11,Pattern_Practice,1,9999,9999,9999,3945241700
61,23,11,Pattern_Practice,2,9999,9999,9999,3945741416
61,23,11,Pattern_Practice,3,9999,9999,9999,3946241132
61,23,11,Pattern_Practice,4,9999,9999,9999,3946741820
61,23,11,Pattern_Practice,5,9999,9999,9999,3947241584
61,23,11,Pattern_Practice,6,9999,9999,9999,3947741280
61,23,11,Pattern_Practice,7,9999,9999,9999,3948242020
61,23,11,Pattern_Practice,8,9999,9999,9999,3948741716
61,23,11,Pattern_Practice,9,9999,9999,9999,3949241408
61,23,11,Pattern_Practice,10,9999,9999,9999,3949741104
61,23,11,Pattern_Practice,11,9999,9999,9999,3950241852
61,23,11,Pattern_Practice,12,9999,9999,9999,3950741596
61,23,11,Pattern_Practice,13,9999,9999,9999,3951241292
61,23,11,Pattern_Practice,14,9999,9999,9999,3951742032
61,23,11,Pattern_Practice,15,9999,9999,9999,3952241728
61,23,11,Pattern_Practice,16,9999,9999,9999,3952741496
61,23,11,Pattern_Practice,17,9999,9999,9999,3953241192
61,23,11,Pattern_Practice,18,9999,9999,9999,3953741932
61,23,11,Pattern_Practice,19,9999,9999,9999,3954241628
61,23,11,Pattern_Practice,20,9999,9999,9999,3954741324
61,23,11,Pattern_Practice,21,9999,9999,9999,3955242064
61,23,11,Pattern_Practice,22,9999,9999,9999,3955741760
61,23,11,Pattern_Practice,23,9999,9999,9999,3956241528
61,23,11,Pattern_Practice,24,9999,9999,9999,3956741224
61,23,11,Pattern_Practice,25,9999,9999,9999,3957241964
61,23,11,Pattern_Practice,26,9999,9999,9999,3957741660
61,23,11,Pattern_Practice,27,9999,9999,9999,3958241356
61,23,11,Pattern_Practice,28,9999,9999,9999,3958742096
61,23,11,Pattern_Practice,29,9999,9999,9999,3959241784
61,23,11,Pattern_Practice,30,9999,9999,9999,3959741560
61,23,11,Pattern_Practice,31,9999,9999,9999,3960241256
61,23,11,Pattern_Practice,32,9999,9999,9999,3960742000
61,23,11,Pattern_Practice,33,9999,9999,9999,3961241668
61,23,11,Pattern_Practice,34,9999,9999,9999,3961741364
61,23,11,Pattern_Practice,35,9999,9999,9999,3962241132
61,23,11,Pattern_Practice,36,9999,9999,9999,3962741876
61,23,11,Pattern_Practice,37,9999,9999,9999,3963241572
61,23,11,Pattern_Practice,38,9999,9999,9999,3963741260
61,23,11,Pattern_Practice,39,9999,9999,9999,3964242000
61,23,11,Pattern_Practice,40,9999,9999,9999,3964741704
61,23,11,Pattern_Practice,41,9999,9999,9999,3965241464
61,23,11,Pattern_Practice,42,9999,9999,9999,3965741160
61,23,11,Pattern_Practice,43,9999,9999,9999,3966241904
61,23,11,Pattern_Practice,44,9999,9999,9999,3966741604
61,23,11,Pattern_Practice,45,9999,9999,9999,3967241300
61,23,11,Pattern_Practice,46,9999,9999,9999,3967742040
61,23,11,Pattern_Practice,47,9999,9999,9999,3968241736
61,23,11,Pattern_Practice,48,9999,9999,9999,3968741432
61,23,11,Pattern_Practice,49,9999,9999,9999,3969241200
61,23,11,Pattern_Practice,50,9999,9999,9999,3969741940
61,23,11,Pattern_Practice,51,9999,9999,9999,3970241636
61,23,11,Pattern_Practice,52,9999,9999,9999,3970741332
61,23,11,Pattern_Practice,53,9999,9999,9999,3971242064
61,23,11,Pattern_Practice,54,9999,9999,9999,3971741760
61,23,11,Pattern_Practice,55,9999,9999,9999,3972241512
61,23,11,Pattern_Practice,56,9999,9999,9999,3972741200
61,23,11,Pattern_Practice,57,9999,9999,9999,3973241940
61,23,11,Pattern_Practice,58,9999,9999,9999,3973741640
61,23,11,Pattern_Practice,59,9999,9999,9999,3974241336
61,23,11,Pattern_Practice,60,9999,9999,9999,3974742080
61,23,11,Pattern_Practice,61,9999,9999,9999,3975241844
61,23,11,Pattern_Practice,62,9999,9999,9999,3975741540
61,23,11,Pattern_Practice,63,9999,9999,9999,3976241232
61,23,11,Pattern_Practice,64,9999,9999,9999,3976741976
61,23,11,Pattern_Practice,65,9999,9999,9999,3977241664
61,23,11,Pattern_Practice,66,9999,9999,9999,3977741360
61,23,11,Pattern_Practice,67,9999,9999,9999,3978241140
61,23,11,Pattern_Practice,68,9999,9999,9999,3978741880
61,23,11,Pattern_Practice,69,9999,9999,9999,3979241568
61,23,11,Pattern_Practice,70,9999,9999,9999,3979741264
61,23,11,Pattern_Practice,71,9999,9999,9999,3980242004
61,23,11,Pattern_Practice,72,9999,9999,9999,3980741700
61,23,11,Pattern_Practice,73,9999,9999,9999,3981241396
61,23,11,Pattern_Practice,74,9999,9999,9999,3981741172
61,23,11,Pattern_Practice,75,9999,9999,9999,3982241912
61,23,11,Pattern_Practice,76,9999,9999,9999,3982741584
61,23,11,Pattern_Practice,77,9999,9999,9999,3983241272
61,23,11,Pattern_Practice,78,9999,9999,9999,3983742016
61,23,11,Pattern_Practice,79,9999,9999,9999,3984241712
61,24,13,Improv_Metronome,0,5,42,127,4012599612
61,24,13,Improv_Metronome,1,5,42,127,4013100300
61,24,13,Improv_Metronome,2,5,42,127,4013600240
61,24,13,Improv_Metronome,3,5,42,127,4014099808
61,24,13,Improv_Metronome,4,5,42,127,4014599524
61,24,13,Improv_Metronome,5,1,48,48,4014638696
61,24,13,Improv_Metronome,6,5,42,127,4015100340
61,24,13,Improv_Metronome,7,1,48,61,4015108020
61,24,13,Improv_Metronome,8,1,48,66,4015588028
61,24,13,Improv_Metronome,9,5,42,127,4015599880
61,24,13,Improv_Metronome,10,5,42,127,4016099732
61,24,13,Improv_Metronome,11,1,38,85,4016113920
61,24,13,Improv_Metronome,12,5,42,127,4016600396
61,24,13,Improv_Metronome,13,1,48,69,4016625280
61,24,13,Improv_Metronome,14,5,42,127,4017100168
61,24,13,Improv_Metronome,15,1,48,69,4017115404
61,24,13,Improv_Metronome,16,5,42,127,4017599936
61,24,13,Improv_Metronome,17,1,48,78,4017611060
61,24,13,Improv_Metronome,18,5,42,127,4018099628
61,24,13,Improv_Metronome,19,1,38,90,4018142016
61,24,13,Improv_Metronome,20,5,42,127,4018600372
61,24,13,Improv_Metronome,21,1,48,59,4018640216
61,24,13,Improv_Metronome,22,5,42,127,4019099992
61,24,13,Improv_Metronome,23,1,48,66,4019122932
61,24,13,Improv_Metronome,24,1,48,64,4019599808
61,24,13,Improv_Metronome,25,5,42,127,4019601148
61,24,13,Improv_Metronome,26,5,42,127,4020099508
61,24,13,Improv_Metronome,27,1,38,79,4020138328
61,24,13,Improv_Metronome,28,5,42,127,4020600096
61,24,13,Improv_Metronome,29,1,48,61,4020630144
61,24,13,Improv_Metronome,30,5,42,127,4021099868
61,24,13,Improv_Metronome,31,1,48,62,4021128640
61,24,13,Improv_Metronome,32,5,42,127,4021599788
61,24,13,Improv_Metronome,33,1,48,67,4021600752
61,24,13,Improv_Metronome,34,1,38,72,4022075508
61,24,13,Improv_Metronome,35,5,42,127,4022100444
61,24,13,Improv_Metronome,36,5,42,127,4022599924
61,24,13,Improv_Metronome,37,1,48,75,4022604536
61,24,13,Improv_Metronome,38,1,48,66,4023089856
61,24,13,Improv_Metronome,39,5,42,127,4023099688
61,24,13,Improv_Metronome,40,1,48,67,4023599464
61,24,13,Improv_Metronome,41,5,42,127,4023600800
61,24,13,Improv_Metronome,42,5,42,127,4024100208
61,24,13,Improv_Metronome,43,1,38,78,4024104596
61,24,13,Improv_Metronome,44,5,42,127,4024599824
61,24,13,Improv_Metronome,45,1,48,68,4024629648
61,24,13,Improv_Metronome,46,5,42,127,4025099820
61,24,13,Improv_Metronome,47,1,48,69,4025125748
61,24,13,Improv_Metronome,48,5,42,127,4025600636
61,24,13,Improv_Metronome,49,1,48,75,4025611232
61,24,13,Improv_Metronome,50,1,38,70,4026089892
61,24,13,Improv_Metronome,51,5,42,127,4026099952
61,24,13,Improv_Metronome,52,5,42,127,4026599728
61,24,13,Improv_Metronome,53,1,48,76,4026617208
61,24,13,Improv_Metronome,54,5,42,127,4027099424
61,24,13,Improv_Metronome,55,1,48,73,4027108752
61,24,13,Improv_Metronome,56,1,48,67,4027589732
61,24,13,Improv_Metronome,57,5,42,127,4027600232
61,24,13,Improv_Metronome,58,5,42,127,4028099936
61,24,13,Improv_Metronome,59,1,38,76,4028110088
61,24,13,Improv_Metronome,60,1,48,67,4028590836
61,24,13,Improv_Metronome,61,5,42,127,4028599548
61,24,13,Improv_Metronome,62,5,42,127,4029100668
61,24,13,Improv_Metronome,63,1,48,77,4029118600
61,24,13,Improv_Metronome,64,5,42,127,4029600140
61,24,13,Improv_Metronome,65,1,48,79,4029620760
61,24,13,Improv_Metronome,66,5,42,127,4030099736
61,24,13,Improv_Metronome,67,1,38,75,4030131000
61,24,13,Improv_Metronome,68,5,42,127,4030599652
61,24,13,Improv_Metronome,69,1,48,79,4030639600
61,24,13,Improv_Metronome,70,5,42,127,4031100244
61,24,13,Improv_Metronome,71,1,48,76,4031141388
61,24,13,Improv_Metronome,72,1,38,80,4031592720
61,24,13,Improv_Metronome,73,5,42,127,4031599860
61,24,13,Improv_Metronome,74,5,42,127,4032099636
61,24,13,Improv_Metronome,75,1,48,70,4032100824
61,24,13,Improv_Metronome,76,5,42,127,4032600448
61,24,13,Improv_Metronome,77,1,48,66,4032615612
61,24,13,Improv_Metronome,78,5,42,127,4033099996
61,24,13,Improv_Metronome,79,1,38,73,4033105208
61,24,13,Improv_Metronome,80,5,42,127,4033599764
61,24,13,Improv_Metronome,81,1,48,73,4033633776
61,24,13,Improv_Metronome,82,5,42,127,4034099532
61,24,13,Improv_Metronome,83,1,48,70,4034121276
61,24,13,Improv_Metronome,84,1,38,73,4034595816
61,24,13,Improv_Metronome,85,5,42,127,4034600564
61,24,13,Improv_Metronome,86,5,42,127,4035100044
61,24,13,Improv_Metronome,87,1,48,74,4035105932
61,24,13,Improv_Metronome,88,5,42,127,4035599740
61,24,13,Improv_Metronome,89,1,48,71,4035606672
61,24,13,Improv_Metronome,90,1,38,78,4036098152
61,24,13,Improv_Metronome,91,5,42,127,4036100696
61,24,13,Improv_Metronome,92,1,48,72,4036600396
61,24,13,Improv_Metronome,93,5,42,127,4036601660
61,24,13,Improv_Metronome,94,5,42,127,4037099944
61,24,13,Improv_Metronome,95,1,48,78,4037111588
61,24,13,Improv_Metronome,96,5,42,127,4037599640
61,24,13,Improv_Metronome,97,1,38,65,4037628340
61,24,13,Improv_Metronome,98,5,42,127,4038100308
61,24,13,Improv_Metronome,99,1,48,81,4038141052
61,24,13,Improv_Metronome,100,5,42,127,4038600152
61,24,13,Improv_Metronome,101,1,48,78,4038624136
61,24,13,Improv_Metronome,102,5,42,127,4039099624
61,24,13,Improv_Metronome,103,1,38,85,4039120392
61,24,13,Improv_Metronome,104,5,42,127,4039599468
61,24,13,Improv_Metronome,105,1,48,72,4039615372
61,24,13,Improv_Metronome,106,5,42,127,4040100208
61,24,13,Improv_Metronome,107,1,48,72,4040129732
61,24,13,Improv_Metronome,108,5,42,127,4040599904
61,24,13,Improv_Metronome,109,1,38,77,4040605192
61,24,13,Improv_Metronome,110,5,42,127,4041099576
61,24,13,Improv_Metronome,111,1,48,72,4041159340
61,24,13,Improv_Metronome,112,1,48,77,4041599036
61,24,13,Improv_Metronome,113,5,42,127,4041600460
61,24,13,Improv_Metronome,114,1,38,73,4042037740
61,24,13,Improv_Metronome,115,5,42,127,4042100080
61,24,13,Improv_Metronome,116,1,48,70,4042539232
61,24,13,Improv_Metronome,117,5,42,127,4042599776
61,24,13,Improv_Metronome,118,1,48,82,4043057552
61,24,13,Improv_Metronome,119,5,42,127,4043099472
61,24,13,Improv_Metronome,120,1,38,83,4043521416
61,24,13,Improv_Metronome,121,5,42,127,4043600284
61,24,13,Improv_Metronome,122,1,48,64,4044048712
61,24,13,Improv_Metronome,123,5,42,127,4044100128
61,24,13,Improv_Metronome,124,1,48,77,4044536732
61,24,13,Improv_Metronome,125,5,42,127,4044599528
61,24,13,Improv_Metronome,126,1,38,64,4045033892
61,24,13,Improv_Metronome,127,5,42,127,4045100420
61,24,13,Improv_Metronome,128,1,48,81,4045557148
61,24,13,Improv_Metronome,129,5,42,127,4045600116
61,24,13,Improv_Metronome,130,1,48,77,4046061928
61,24,13,Improv_Metronome,131,5,42,127,4046099808
61,24,13,Improv_Metronome,132,1,38,80,4046549800
61,24,13,Improv_Metronome,133,5,42,127,4046599504
61,24,13,Improv_Metronome,134,1,48,66,4047053388
61,24,13,Improv_Metronome,135,5,42,127,4047100392
61,24,13,Improv_Metronome,136,1,48,73,4047560556
61,24,13,Improv_Metronome,137,5,42,127,4047600012
61,24,13,Improv_Metronome,138,1,38,78,4048094664
61,24,13,Improv_Metronome,139,5,42,127,4048099560
61,24,13,Improv_Metronome,140,5,42,127,4048600308
61,24,13,Improv_Metronome,141,1,48,75,4048604248
61,24,13,Improv_Metronome,142,5,42,127,4049100076
61,24,13,Improv_Metronome,143,1,38,63,4049111200
61,24,13,Improv_Metronome,144,1,48,58,4049583424
61,24,13,Improv_Metronome,145,5,42,127,4049599988
61,24,13,Improv_Metronome,146,1,38,78,4050094264
61,24,13,Improv_Metronome,147,5,42,127,4050099680
61,24,13,Improv_Metronome,148,5,42,127,4050600280
61,24,13,Improv_Metronome,149,1,48,72,4050608784
61,24,13,Improv_Metronome,150,1,38,89,4051093804
61,24,13,Improv_Metronome,151,5,42,127,4051100268
61,24,13,Improv_Metronome,152,1,48,65,4051585912
61,24,13,Improv_Metronome,153,5,42,127,4051599640
61,24,13,Improv_Metronome,154,1,38,75,4052091296
61,24,13,Improv_Metronome,155,5,42,127,4052099408
61,24,13,Improv_Metronome,156,5,42,127,4052600304
61,24,13,Improv_Metronome,157,1,48,72,4052601196
61,24,13,Improv_Metronome,158,1,38,76,4053069588
61,24,13,Improv_Metronome,159,5,42,127,4053099992
61,24,13,Improv_Metronome,160,1,48,67,4053559112
61,24,13,Improv_Metronome,161,5,42,127,4053599540
61,24,13,Improv_Metronome,162,1,38,77,4054062100
61,24,13,Improv_Metronome,163,5,42,127,4054100504
61,24,13,Improv_Metronome,164,1,48,71,4054562316
61,24,13,Improv_Metronome,165,5,42,127,4054600124
61,24,13,Improv_Metronome,166,1,38,79,4055013768
61,24,13,Improv_Metronome,167,5,42,127,4055099968
61,24,13,Improv_Metronome,168,1,48,64,4055552432
61,24,13,Improv_Metronome,169,5,42,127,4055599516
61,24,13,Improv_Metronome,170,1,38,70,4056027224
61,24,13,Improv_Metronome,171,5,42,127,4056100108
61,24,13,Improv_Metronome,172,1,48,70,4056566552
61,24,13,Improv_Metronome,173,5,42,127,4056600024
61,24,13,Improv_Metronome,174,1,38,82,4057073580
61,24,13,Improv_Metronome,175,5,42,127,4057099572
61,24,13,Improv_Metronome,176,1,48,63,4057584196
61,24,13,Improv_Metronome,177,5,42,127,4057600312
61,24,13,Improv_Metronome,178,1,38,83,4058085388
61,24,13,Improv_Metronome,179,5,42,127,4058100080
61,24,13,Improv_Metronome,180,1,48,73,4058567652
61,24,13,Improv_Metronome,181,5,42,127,4058600224
61,24,13,Improv_Metronome,182,1,38,75,4059072588
61,24,13,Improv_Metronome,183,5,42,127,4059099472
61,24,13,Improv_Metronome,184,1,48,76,4059570336
61,24,13,Improv_Metronome,185,5,42,127,4059600288
61,24,13,Improv_Metronome,186,1,38,80,4060033280
61,24,13,Improv_Metronome,187,5,42,127,4060100056
61,24,13,Improv_Metronome,188,1,48,73,4060559452
61,24,13,Improv_Metronome,189,5,42,127,4060599824
61,24,13,Improv_Metronome,190,1,38,64,4061098760
61,24,13,Improv_Metronome,191,5,42,127,4061101388
61,24,13,Improv_Metronome,192,5,42,127,4061600044
61,24,13,Improv_Metronome,193,1,48,66,4061607056
61,24,13,Improv_Metronome,194,1,38,75,4062078280
61,24,13,Improv_Metronome,195,5,42,127,4062100004
61,24,13,Improv_Metronome,196,1,48,78,4062579020
61,24,13,Improv_Metronome,197,5,42,127,4062599476
61,24,13,Improv_Metronome,198,1,38,59,4063087388
61,24,13,Improv_Metronome,199,5,42,127,4063100216
61,24,13,Improv_Metronome,200,1,48,71,4063569880
61,24,13,Improv_Metronome,201,5,42,127,4063600060
61,24,13,Improv_Metronome,202,1,38,74,4064064192
61,24,13,Improv_Metronome,203,5,42,127,4064099904
61,24,13,Improv_Metronome,204,1,48,72,4064569576
61,24,13,Improv_Metronome,205,5,42,127,4064600496
61,24,13,Improv_Metronome,206,1,38,74,4065086992
61,24,13,Improv_Metronome,207,5,42,127,4065100192
61,24,13,Improv_Metronome,208,1,48,73,4065572252
61,24,13,Improv_Metronome,209,5,42,127,4065599960
61,24,13,Improv_Metronome,210,1,38,75,4066077256
61,24,13,Improv_Metronome,211,5,42,127,4066099804
61,24,13,Improv_Metronome,212,1,48,78,4066573284
61,24,13,Improv_Metronome,213,5,42,127,4066600248
61,24,13,Improv_Metronome,214,1,38,78,4067080540
61,24,13,Improv_Metronome,215,5,42,127,4067100020
61,24,13,Improv_Metronome,216,1,48,75,4067589136
61,24,13,Improv_Metronome,217,5,42,127,4067599864
61,24,13,Improv_Metronome,218,1,48,72,4068090548
61,24,13,Improv_Metronome,219,5,42,127,4068099336
61,24,13,Improv_Metronome,220,1,38,75,4068589796
61,24,13,Improv_Metronome,221,5,42,127,4068600224
61,24,13,Improv_Metronome,222,5,42,127,4069099852
61,24,13,Improv_Metronome,223,1,48,73,4069101560
61,24,13,Improv_Metronome,224,5,42,127,4069599992
61,24,13,Improv_Metronome,225,1,48,73,4069605804
61,24,13,Improv_Metronome,226,5,42,127,4070100360
61,24,13,Improv_Metronome,227,1,38,72,4070139084
61,24,13,Improv_Metronome,228,5,42,127,4070600056
61,24,13,Improv_Metronome,229,1,48,65,4070631224
61,24,13,Improv_Metronome,230,5,42,127,4071099752
61,24,13,Improv_Metronome,231,1,48,77,4071110728
61,24,13,Improv_Metronome,232,1,38,77,4071596564
61,24,13,Improv_Metronome,233,5,42,127,4071599664
61,24,13,Improv_Metronome,234,5,42,127,4072100188
61,24,13,Improv_Metronome,235,1,48,76,4072116168
61,24,13,Improv_Metronome,236,5,42,127,4072599956
61,24,13,Improv_Metronome,237,1,48,74,4072602704
61,24,13,Improv_Metronome,238,1,38,54,4073096744
61,24,13,Improv_Metronome,239,5,42,127,4073099620
61,24,13,Improv_Metronome,240,5,42,127,4073600220
61,24,13,Improv_Metronome,241,1,48,65,4073601184
61,24,13,Improv_Metronome,242,1,48,73,4074093740
61,24,13,Improv_Metronome,243,5,42,127,4074100204
61,24,13,Improv_Metronome,244,1,38,77,4074598240
61,24,13,Improv_Metronome,245,5,42,127,4074600796
61,24,13,Improv_Metronome,246,5,42,127,4075099452
61,24,13,Improv_Metronome,247,1,48,77,4075134360
61,24,13,Improv_Metronome,248,5,42,127,4075600340
61,24,13,Improv_Metronome,249,1,48,67,4075626872
61,24,13,Improv_Metronome,250,5,42,127,4076099888
61,24,13,Improv_Metronome,251,1,38,73,4076113032
61,24,13,Improv_Metronome,252,5,42,127,4076599804
61,24,13,Improv_Metronome,253,1,48,67,4076622740
61,24,13,Improv_Metronome,254,5,42,127,4077100472
61,24,13,Improv_Metronome,255,1,48,62,4077113688
61,24,13,Improv_Metronome,256,5,42,127,4077600240
61,24,13,Improv_Metronome,257,1,38,81,4077619812
61,24,13,Improv_Metronome,258,1,48,64,4078077600
61,24,13,Improv_Metronome,259,5,42,127,4078099776
61,24,13,Improv_Metronome,260,1,48,70,4078580512
61,24,13,Improv_Metronome,261,5,42,127,4078599472
61,24,13,Improv_Metronome,262,5,42,127,4079100368
61,24,13,Improv_Metronome,263,1,38,85,4079106704
61,24,13,Improv_Metronome,264,5,42,127,4079599988
61,24,13,Improv_Metronome,265,1,48,76,4079613580
61,24,13,Improv_Metronome,266,5,42,127,4080099684
61,24,13,Improv_Metronome,267,1,48,60,4080120904
61,24,13,Improv_Metronome,268,5,42,127,4080600352
61,24,13,Improv_Metronome,269,1,48,73,4080614836
61,24,13,Improv_Metronome,270,5,42,127,4081100044
61,24,13,Improv_Metronome,271,1,38,76,4081114680
61,24,13,Improv_Metronome,272,5,42,127,4081599964
61,24,13,Improv_Metronome,273,1,48,65,4081606748
61,24,13,Improv_Metronome,274,1,48,70,4082083684
61,24,13,Improv_Metronome,275,5,42,127,4082099576
61,24,13,Improv_Metronome,276,1,48,79,4082578192
61,24,13,Improv_Metronome,0,9999,9999,9999,4012597324
61,24,13,Improv_Metronome,1,9999,9999,9999,4013098088
61,24,13,Improv_Metronome,2,9999,9999,9999,4013597804
61,24,13,Improv_Metronome,3,9999,9999,9999,4014097520
61,24,13,Improv_Metronome,4,9999,9999,9999,4014597240
61,24,13,Improv_Metronome,5,9999,9999,9999,4015097904
61,24,13,Improv_Metronome,6,9999,9999,9999,4015597668
61,24,13,Improv_Metronome,7,9999,9999,9999,4016097368
61,24,13,Improv_Metronome,8,9999,9999,9999,4016598112
61,24,13,Improv_Metronome,9,9999,9999,9999,4017097804
61,24,13,Improv_Metronome,10,9999,9999,9999,4017597500
61,24,13,Improv_Metronome,11,9999,9999,9999,4018097268
61,24,13,Improv_Metronome,12,9999,9999,9999,4018598008
61,24,13,Improv_Metronome,13,9999,9999,9999,4019097704
61,24,13,Improv_Metronome,14,9999,9999,9999,4019597372
61,24,13,Improv_Metronome,15,9999,9999,9999,4020097144
61,24,13,Improv_Metronome,16,9999,9999,9999,4020597812
61,24,13,Improv_Metronome,17,9999,9999,9999,4021097580
61,24,13,Improv_Metronome,18,9999,9999,9999,4021597276
61,24,13,Improv_Metronome,19,9999,9999,9999,4022098008
61,24,13,Improv_Metronome,20,9999,9999,9999,4022597712
61,24,13,Improv_Metronome,21,9999,9999,9999,4023097400
61,24,13,Improv_Metronome,22,9999,9999,9999,4023597176
61,24,13,Improv_Metronome,23,9999,9999,9999,4024097844
61,24,13,Improv_Metronome,24,9999,9999,9999,4024597612
61,24,13,Improv_Metronome,25,9999,9999,9999,4025097308
61,24,13,Improv_Metronome,26,9999,9999,9999,4025598048
61,24,13,Improv_Metronome,27,9999,9999,9999,4026097736
61,24,13,Improv_Metronome,28,9999,9999,9999,4026597440
61,24,13,Improv_Metronome,29,9999,9999,9999,4027097136
61,24,13,Improv_Metronome,30,9999,9999,9999,4027597872
61,24,13,Improv_Metronome,31,9999,9999,9999,4028097648
61,24,13,Improv_Metronome,32,9999,9999,9999,4028597336
61,24,13,Improv_Metronome,33,9999,9999,9999,4029098084
61,24,13,Improv_Metronome,34,9999,9999,9999,4029597776
61,24,13,Improv_Metronome,35,9999,9999,9999,4030097520
61,24,13,Improv_Metronome,36,9999,9999,9999,4030597216
61,24,13,Improv_Metronome,37,9999,9999,9999,4031097960
61,24,13,Improv_Metronome,38,9999,9999,9999,4031597644
61,24,13,Improv_Metronome,39,9999,9999,9999,4032097348
61,24,13,Improv_Metronome,40,9999,9999,9999,4032598088
61,24,13,Improv_Metronome,41,9999,9999,9999,4033097784
61,24,13,Improv_Metronome,42,9999,9999,9999,4033597552
61,24,13,Improv_Metronome,43,9999,9999,9999,4034097244
61,24,13,Improv_Metronome,44,9999,9999,9999,4034597980
61,24,13,Improv_Metronome,45,9999,9999,9999,4035097680
61,24,13,Improv_Metronome,46,9999,9999,9999,4035597376
61,24,13,Improv_Metronome,47,9999,9999,9999,4036097072
61,24,13,Improv_Metronome,48,9999,9999,9999,4036597812
61,24,13,Improv_Metronome,49,9999,9999,9999,4037097584
61,24,13,Improv_Metronome,50,9999,9999,9999,4037597280
61,24,13,Improv_Metronome,51,9999,9999,9999,4038098020
61,24,13,Improv_Metronome,52,9999,9999,9999,4038597716
61,24,13,Improv_Metronome,53,9999,9999,9999,4039097412
61,24,13,Improv_Metronome,54,9999,9999,9999,4039597104
61,24,13,Improv_Metronome,55,9999,9999,9999,4040097848
61,24,13,Improv_Metronome,56,9999,9999,9999,4040597616
61,24,13,Improv_Metronome,57,9999,9999,9999,4041097288
61,24,13,Improv_Metronome,58,9999,9999,9999,4041598032
61,24,13,Improv_Metronome,59,9999,9999,9999,4042097716
61,24,13,Improv_Metronome,60,9999,9999,9999,4042597488
61,24,13,Improv_Metronome,61,9999,9999,9999,4043097184
61,24,13,Improv_Metronome,62,9999,9999,9999,4043597924
61,24,13,Improv_Metronome,63,9999,9999,9999,4044097620
61,24,13,Improv_Metronome,64,9999,9999,9999,4044597312
61,24,13,Improv_Metronome,65,9999,9999,9999,4045098056
61,24,13,Improv_Metronome,66,9999,9999,9999,4045597752
61,24,13,Improv_Metronome,67,9999,9999,9999,4046097520
61,24,13,Improv_Metronome,68,9999,9999,9999,4046597216
61,24,13,Improv_Metronome,69,9999,9999,9999,4047097956
61,24,13,Improv_Metronome,70,9999,9999,9999,4047597652
61,24,13,Improv_Metronome,71,9999,9999,9999,4048097348
61,24,13,Improv_Metronome,72,9999,9999,9999,4048598092
61,24,13,Improv_Metronome,73,9999,9999,9999,4049097788
61,24,13,Improv_Metronome,74,9999,9999,9999,4049597552
61,24,13,Improv_Metronome,75,9999,9999,9999,4050097244
61,24,13,Improv_Metronome,76,9999,9999,9999,4050597992
61,24,13,Improv_Metronome,77,9999,9999,9999,4051097680
61,24,13,Improv_Metronome,78,9999,9999,9999,4051597424
61,24,13,Improv_Metronome,79,9999,9999,9999,4052097120
61,24,13,Improv_Metronome,80,9999,9999,9999,4052597868
61,24,13,Improv_Metronome,81,9999,9999,9999,4053097556
61,24,13,Improv_Metronome,82,9999,9999,9999,4053597252
61,24,13,Improv_Metronome,83,9999,9999,9999,4054097992
61,24,13,Improv_Metronome,84,9999,9999,9999,4054597688
61,24,13,Improv_Metronome,85,9999,9999,9999,4055097460
61,24,13,Improv_Metronome,86,9999,9999,9999,4055597152
61,24,13,Improv_Metronome,87,9999,9999,9999,4056097896
61,24,13,Improv_Metronome,88,9999,9999,9999,4056597588
61,24,13,Improv_Metronome,89,9999,9999,9999,4057097284
61,24,13,Improv_Metronome,90,9999,9999,9999,4057598024
61,24,13,Improv_Metronome,91,9999,9999,9999,4058097720
61,24,13,Improv_Metronome,92,9999,9999,9999,4058597488
61,24,13,Improv_Metronome,93,9999,9999,9999,4059097184
61,24,13,Improv_Metronome,94,9999,9999,9999,4059597924
61,24,13,Improv_Metronome,95,9999,9999,9999,4060097620
61,24,13,Improv_Metronome,96,9999,9999,9999,4060597312
61,24,13,Improv_Metronome,97,9999,9999,9999,4061098068
61,24,13,Improv_Metronome,98,9999,9999,9999,4061597756
61,24,13,Improv_Metronome,99,9999,9999,9999,4062097492
61,24,13,Improv_Metronome,100,9999,9999,9999,4062597188
61,24,13,Improv_Metronome,101,9999,9999,9999,4063097928
61,24,13,Improv_Metronome,102,9999,9999,9999,4063597624
61,24,13,Improv_Metronome,103,9999,9999,9999,4064097396
61,24,13,Improv_Metronome,104,9999,9999,9999,4064598136
61,24,13,Improv_Metronome,105,9999,9999,9999,4065097832
61,24,13,Improv_Metronome,106,9999,9999,9999,4065597524
61,24,13,Improv_Metronome,107,9999,9999,9999,4066097220
61,24,13,Improv_Metronome,108,9999,9999,9999,4066597960
61,24,13,Improv_Metronome,109,9999,9999,9999,4067097656
61,24,13,Improv_Metronome,110,9999,9999,9999,4067597428
61,24,13,Improv_Metronome,111,9999,9999,9999,4068097120
61,24,13,Improv_Metronome,112,9999,9999,9999,4068597860
61,24,13,Improv_Metronome,113,9999,9999,9999,4069097564
61,24,13,Improv_Metronome,114,9999,9999,9999,4069597256
61,24,13,Improv_Metronome,115,9999,9999,9999,4070097996
61,24,13,Improv_Metronome,116,9999,9999,9999,4070597696
61,24,13,Improv_Metronome,117,9999,9999,9999,4071097464
61,24,13,Improv_Metronome,118,9999,9999,9999,4071597152
61,24,13,Improv_Metronome,119,9999,9999,9999,4072097900
61,24,13,Improv_Metronome,120,9999,9999,9999,4072597596
61,24,13,Improv_Metronome,121,9999,9999,9999,4073097332
61,24,13,Improv_Metronome,122,9999,9999,9999,4073598008
61,24,13,Improv_Metronome,123,9999,9999,9999,4074097768
61,24,13,Improv_Metronome,124,9999,9999,9999,4074597468
61,24,13,Improv_Metronome,125,9999,9999,9999,4075097164
61,24,13,Improv_Metronome,126,9999,9999,9999,4075597904
61,24,13,Improv_Metronome,127,9999,9999,9999,4076097600
61,24,13,Improv_Metronome,128,9999,9999,9999,4076597368
61,24,13,Improv_Metronome,129,9999,9999,9999,4077098032
61,24,13,Improv_Metronome,130,9999,9999,9999,4077597804
61,24,13,Improv_Metronome,131,9999,9999,9999,4078097492
61,24,13,Improv_Metronome,132,9999,9999,9999,4078597184
61,24,13,Improv_Metronome,133,9999,9999,9999,4079097932
61,24,13,Improv_Metronome,134,9999,9999,9999,4079597628
61,24,13,Improv_Metronome,135,9999,9999,9999,4080097396
61,24,13,Improv_Metronome,136,9999,9999,9999,4080598136
61,24,13,Improv_Metronome,137,9999,9999,9999,4081097832
61,24,13,Improv_Metronome,138,9999,9999,9999,4081597528
61,24,13,Improv_Metronome,139,9999,9999,9999,4082097216
61,25,14,Improv_Melody,0,2,48,80,4139344212
61,25,14,Improv_Melody,1,2,72,80,4139347036
61,25,14,Improv_Melody,2,5,42,127,4139348520
61,25,14,Improv_Melody,3,5,42,110,4139841136
61,25,14,Improv_Melody,4,5,42,110,4140340488
61,25,14,Improv_Melody,5,5,42,110,4140841404
61,25,14,Improv_Melody,6,5,42,127,4141340976
61,25,14,Improv_Melody,7,5,42,110,4141840700
61,25,14,Improv_Melody,8,5,42,110,4142340420
61,25,14,Improv_Melody,9,5,42,110,4142841264
61,25,14,Improv_Melody,10,2,43,80,4143343492
61,25,14,Improv_Melody,11,2,67,80,4143345640
61,25,14,Improv_Melody,12,5,42,127,4143348252
61,25,14,Improv_Melody,13,5,42,110,4143840720
61,25,14,Improv_Melody,14,5,42,110,4144341340
61,25,14,Improv_Melody,15,5,42,110,4144840988
61,25,14,Improv_Melody,16,5,42,127,4145340932
61,25,14,Improv_Melody,17,5,42,110,4145840508
61,25,14,Improv_Melody,18,5,42,110,4146341348
61,25,14,Improv_Melody,19,5,42,110,4146840996
61,25,14,Improv_Melody,20,2,45,80,4147343120
61,25,14,Improv_Melody,21,2,69,80,4147345764
61,25,14,Improv_Melody,22,5,42,127,4147348072
61,25,14,Improv_Melody,23,5,42,110,4147841416
61,25,14,Improv_Melody,24,5,42,110,4148341060
61,25,14,Improv_Melody,25,5,42,110,4148840784
61,25,14,Improv_Melody,26,5,42,127,4149340652
61,25,14,Improv_Melody,27,5,42,110,4149841272
61,25,14,Improv_Melody,28,5,42,110,4150340848
61,25,14,Improv_Melody,29,5,42,110,4150840716
61,25,14,Improv_Melody,30,2,41,80,4151343912
61,25,14,Improv_Melody,31,2,65,80,4151346296
61,25,14,Improv_Melody,32,5,42,127,4151348828
61,25,14,Improv_Melody,33,5,42,110,4151841072
61,25,14,Improv_Melody,34,5,42,110,4152340868
61,25,14,Improv_Melody,35,5,42,110,4152840664
61,25,14,Improv_Melody,36,5,42,127,4153341728
61,25,14,Improv_Melody,37,5,42,110,4153841080
61,25,14,Improv_Melody,38,5,42,110,4154340800
61,25,14,Improv_Melody,39,5,42,110,4154840372
61,25,14,Improv_Melody,40,1,48,55,4155280284
61,25,14,Improv_Melody,41,2,48,80,4155343788
61,25,14,Improv_Melody,42,2,72,80,4155345864
61,25,14,Improv_Melody,43,5,42,127,4155348476
61,25,14,Improv_Melody,44,1,38,24,4155761200
61,25,14,Improv_Melody,45,5,42,110,4155840924
61,25,14,Improv_Melody,46,1,48,63,4156319868
61,25,14,Improv_Melody,47,5,42,110,4156340696
61,25,14,Improv_Melody,48,1,38,64,4156821732
61,25,14,Improv_Melody,49,5,42,110,4156841592
61,25,14,Improv_Melody,50,1,48,65,4157339028
61,25,14,Improv_Melody,51,5,42,127,4157340992
61,25,14,Improv_Melody,52,5,42,110,4157840700
61,25,14,Improv_Melody,53,1,38,90,4157861696
61,25,14,Improv_Melody,54,5,42,110,4158340452
61,25,14,Improv_Melody,55,1,48,50,4158381516
61,25,14,Improv_Melody,56,5,42,110,4158841644
61,25,14,Improv_Melody,57,1,38,79,4158866484
61,25,14,Improv_Melody,58,1,48,58,4159327392
61,25,14,Improv_Melody,59,2,43,80,4159343628
61,25,14,Improv_Melody,60,2,67,80,4159345700
61,25,14,Improv_Melody,61,5,42,127,4159348456
61,25,14,Improv_Melody,62,1,38,79,4159840908
61,25,14,Improv_Melody,63,5,42,110,4159843144
61,25,14,Improv_Melody,64,5,42,110,4160341656
61,25,14,Improv_Melody,65,1,48,75,4160370432
61,25,14,Improv_Melody,66,1,38,73,4160841576
61,25,14,Improv_Melody,67,5,42,110,4160843820
61,25,14,Improv_Melody,68,5,42,127,4161340756
61,25,14,Improv_Melody,69,1,48,76,4161349636
61,25,14,Improv_Melody,70,5,42,110,4161840532
61,25,14,Improv_Melody,71,1,38,83,4161842020
61,25,14,Improv_Melody,72,5,42,110,4162341280
61,25,14,Improv_Melody,73,1,48,66,4162369228
61,25,14,Improv_Melody,74,5,42,110,4162840904
61,25,14,Improv_Melody,75,1,38,78,4162857856
61,25,14,Improv_Melody,76,2,45,80,4163343260
61,25,14,Improv_Melody,77,2,69,80,4163345332
61,25,14,Improv_Melody,78,5,42,127,4163347876
61,25,14,Improv_Melody,79,1,48,68,4163364908
61,25,14,Improv_Melody,80,5,42,110,4163841592
61,25,14,Improv_Melody,81,1,38,85,4163852640
61,25,14,Improv_Melody,82,5,42,110,4164341140
61,25,14,Improv_Melody,83,1,48,75,4164381656
61,25,14,Improv_Melody,84,5,42,110,4164840692
61,25,14,Improv_Melody,85,1,38,84,4164865500
61,25,14,Improv_Melody,86,5,42,127,4165340464
61,25,14,Improv_Melody,87,1,48,55,4165349644
61,25,14,Improv_Melody,88,5,42,110,4165841508
61,25,14,Improv_Melody,89,1,38,85,4165842624
61,25,14,Improv_Melody,90,5,42,110,4166340840
61,25,14,Improv_Melody,91,1,48,59,4166382476
61,25,14,Improv_Melody,92,5,42,110,4166840688
61,25,14,Improv_Melody,93,1,38,83,4166842400
61,25,14,Improv_Melody,94,1,48,74,4167326648
61,25,14,Improv_Melody,95,2,41,80,4167343932
61,25,14,Improv_Melody,96,2,65,80,4167346080
61,25,14,Improv_Melody,97,5,42,127,4167348620
61,25,14,Improv_Melody,98,1,38,90,4167835044
61,25,14,Improv_Melody,99,5,42,110,4167841288
61,25,14,Improv_Melody,100,5,42,110,4168340700
61,25,14,Improv_Melody,101,1,48,65,4168356232
61,25,14,Improv_Melody,102,1,38,97,4168821928
61,25,14,Improv_Melody,103,5,42,110,4168840588
61,25,14,Improv_Melody,104,5,42,127,4169341416
61,25,14,Improv_Melody,105,1,48,61,4169351492
61,25,14,Improv_Melody,106,5,42,110,4169841044
61,25,14,Improv_Melody,107,1,38,89,4169846404
61,25,14,Improv_Melody,108,5,42,110,4170340668
61,25,14,Improv_Melody,109,1,48,71,4170353508
61,25,14,Improv_Melody,110,1,38,82,4170828352
61,25,14,Improv_Melody,111,5,42,110,4170840508
61,25,14,Improv_Melody,112,2,48,80,4171343692
61,25,14,Improv_Melody,113,2,72,80,4171345916
61,25,14,Improv_Melody,114,5,42,127,4171348532
61,25,14,Improv_Melody,115,1,48,87,4171349424
61,25,14,Improv_Melody,116,1,38,70,4171840904
61,25,14,Improv_Melody,117,5,42,110,4171843512
61,25,14,Improv_Melody,118,1,48,70,4172339928
61,25,14,Improv_Melody,119,5,42,110,4172341496
61,25,14,Improv_Melody,120,1,38,84,4172828816
61,25,14,Improv_Melody,121,5,42,110,4172841268
61,25,14,Improv_Melody,122,5,42,127,4173341196
61,25,14,Improv_Melody,123,1,48,65,4173367432
61,25,14,Improv_Melody,124,1,38,89,4173833744
61,25,14,Improv_Melody,125,5,42,110,4173840816
61,25,14,Improv_Melody,126,1,48,69,4174320504
61,25,14,Improv_Melody,127,5,42,110,4174340440
61,25,14,Improv_Melody,128,5,42,110,4174841192
61,25,14,Improv_Melody,129,1,38,76,4174848352
61,25,14,Improv_Melody,130,2,43,80,4175343548
61,25,14,Improv_Melody,131,2,67,80,4175345852
61,25,14,Improv_Melody,132,5,42,127,4175348384
61,25,14,Improv_Melody,133,1,48,75,4175362204
61,25,14,Improv_Melody,134,1,38,82,4175837348
61,25,14,Improv_Melody,135,5,42,110,4175840528
61,25,14,Improv_Melody,136,1,48,83,4176331064
61,25,14,Improv_Melody,137,5,42,110,4176341276
61,25,14,Improv_Melody,138,1,38,79,4176822536
61,25,14,Improv_Melody,139,5,42,110,4176841272
61,25,14,Improv_Melody,140,1,48,81,4177337568
61,25,14,Improv_Melody,141,5,42,127,4177340748
61,25,14,Improv_Melody,142,1,38,80,4177822532
61,25,14,Improv_Melody,143,5,42,110,4177840524
61,25,14,Improv_Melody,144,1,48,70,4178340376
61,25,14,Improv_Melody,145,5,42,110,4178341864
61,25,14,Improv_Melody,146,5,42,110,4178841052
61,25,14,Improv_Melody,147,1,38,76,4178881416
61,25,14,Improv_Melody,148,1,48,76,4179331556
61,25,14,Improv_Melody,149,2,45,80,4179343336
61,25,14,Improv_Melody,150,2,69,80,4179345492
61,25,14,Improv_Melody,151,5,42,127,4179348172
61,25,14,Improv_Melody,152,1,38,85,4179836888
61,25,14,Improv_Melody,153,5,42,110,4179841268
61,25,14,Improv_Melody,154,5,42,110,4180341052
61,25,14,Improv_Melody,155,1,48,81,4180359208
61,25,14,Improv_Melody,156,1,38,83,4180835620
61,25,14,Improv_Melody,157,5,42,110,4180840892
61,25,14,Improv_Melody,158,5,42,127,4181340676
61,25,14,Improv_Melody,159,1,48,57,4181352996
61,25,14,Improv_Melody,160,1,38,78,4181817288
61,25,14,Improv_Melody,161,5,42,110,4181841340
61,25,14,Improv_Melody,162,1,48,69,4182332324
61,25,14,Improv_Melody,163,5,42,110,4182341116
61,25,14,Improv_Melody,164,5,42,110,4182840824
61,25,14,Improv_Melody,165,1,38,91,4182852996
61,25,14,Improv_Melody,166,2,41,80,4183344000
61,25,14,Improv_Melody,167,2,65,80,4183346000
61,25,14,Improv_Melody,168,5,42,127,4183348540
61,25,14,Improv_Melody,169,1,48,68,4183351364
61,25,14,Improv_Melody,170,1,38,72,4183834504
61,25,14,Improv_Melody,171,5,42,110,4183841128
61,25,14,Improv_Melody,172,1,48,84,4184339392
61,25,14,Improv_Melody,173,5,42,110,4184340976
61,25,14,Improv_Melody,174,5,42,110,4184840460
61,25,14,Improv_Melody,175,1,38,89,4184853300
61,25,14,Improv_Melody,176,1,48,79,4185324400
61,25,14,Improv_Melody,177,5,42,127,4185341272
61,25,14,Improv_Melody,178,1,38,80,4185833680
61,25,14,Improv_Melody,179,5,42,110,4185840900
61,25,14,Improv_Melody,180,1,48,68,4186330984
61,25,14,Improv_Melody,181,5,42,110,4186340676
61,25,14,Improv_Melody,182,5,42,110,4186840380
61,25,14,Improv_Melody,183,1,38,84,4186850976
61,25,14,Improv_Melody,184,1,48,84,4187332856
61,25,14,Improv_Melody,185,2,48,80,4187344076
61,25,14,Improv_Melody,186,2,72,80,4187346004
61,25,14,Improv_Melody,187,5,42,127,4187348684
61,25,14,Improv_Melody,188,5,42,110,4187840988
61,25,14,Improv_Melody,189,1,48,86,4187850844
61,25,14,Improv_Melody,190,1,48,89,4188333984
61,25,14,Improv_Melody,191,5,42,110,4188340608
61,25,14,Improv_Melody,192,1,38,89,4188821120
61,25,14,Improv_Melody,193,5,42,110,4188841280
61,25,14,Improv_Melody,194,1,48,84,4189335780
61,25,14,Improv_Melody,195,5,42,127,4189340904
61,25,14,Improv_Melody,196,5,42,110,4189840836
61,25,14,Improv_Melody,197,1,48,68,4189858612
61,25,14,Improv_Melody,198,1,48,82,4190337696
61,25,14,Improv_Melody,199,5,42,110,4190340580
61,25,14,Improv_Melody,200,1,38,87,4190835672
61,25,14,Improv_Melody,201,5,42,110,4190841104
61,25,14,Improv_Melody,202,2,43,80,4191343464
61,25,14,Improv_Melody,203,2,67,80,4191345612
61,25,14,Improv_Melody,204,5,42,127,4191348152
61,25,14,Improv_Melody,205,1,48,76,4191352468
61,25,14,Improv_Melody,206,5,42,110,4191840892
61,25,14,Improv_Melody,207,1,48,70,4191877300
61,25,14,Improv_Melody,208,1,48,86,4192328208
61,25,14,Improv_Melody,209,5,42,110,4192341408
61,25,14,Improv_Melody,210,1,38,95,4192824988
61,25,14,Improv_Melody,211,5,42,110,4192841036
61,25,14,Improv_Melody,212,5,42,127,4193340964
61,25,14,Improv_Melody,213,1,48,76,4193351716
61,25,14,Improv_Melody,214,5,42,110,4193840368
61,25,14,Improv_Melody,215,1,48,84,4193847748
61,25,14,Improv_Melody,216,5,42,110,4194341260
61,25,14,Improv_Melody,217,1,48,81,4194353728
61,25,14,Improv_Melody,218,5,42,110,4194840884
61,25,14,Improv_Melody,219,1,38,91,4194841776
61,25,14,Improv_Melody,220,2,45,80,4195343468
61,25,14,Improv_Melody,221,2,69,80,4195345616
61,25,14,Improv_Melody,222,5,42,127,4195348004
61,25,14,Improv_Melody,223,1,48,77,4195350604
61,25,14,Improv_Melody,224,5,42,110,4195841272
61,25,14,Improv_Melody,225,1,48,83,4195870568
61,25,14,Improv_Melody,226,1,48,81,4196340520
61,25,14,Improv_Melody,227,5,42,110,4196342012
61,25,14,Improv_Melody,228,1,38,89,4196832172
61,25,14,Improv_Melody,229,5,42,110,4196840892
61,25,14,Improv_Melody,230,1,48,81,4197321928
61,25,14,Improv_Melody,231,5,42,127,4197340816
61,25,14,Improv_Melody,232,1,48,74,4197811008
61,25,14,Improv_Melody,233,5,42,110,4197841192
61,25,14,Improv_Melody,234,5,42,110,4198340976
61,25,14,Improv_Melody,235,1,48,89,4198351052
61,25,14,Improv_Melody,236,1,38,88,4198805924
61,25,14,Improv_Melody,237,5,42,110,4198840740
61,25,14,Improv_Melody,238,1,48,81,4199301408
61,25,14,Improv_Melody,239,2,41,80,4199344068
61,25,14,Improv_Melody,240,2,65,80,4199346372
61,25,14,Improv_Melody,241,5,42,127,4199348904
61,25,14,Improv_Melody,242,1,48,72,4199836076
61,25,14,Improv_Melody,243,5,42,110,4199841128
61,25,14,Improv_Melody,244,1,48,81,4200314060
61,25,14,Improv_Melody,245,5,42,110,4200340752
61,25,14,Improv_Melody,246,1,38,83,4200827524
61,25,14,Improv_Melody,247,5,42,110,4200840728
61,25,14,Improv_Melody,248,1,48,77,4201320496
61,25,14,Improv_Melody,249,5,42,127,4201341400
61,25,14,Improv_Melody,250,1,48,79,4201825876
61,25,14,Improv_Melody,251,5,42,110,4201840876
61,25,14,Improv_Melody,252,5,42,110,4202340732
61,25,14,Improv_Melody,253,1,48,66,4202346992
61,25,14,Improv_Melody,254,5,42,110,4202840580
61,25,14,Improv_Melody,255,1,38,80,4202841472
61,25,14,Improv_Melody,256,1,48,85,4203332008
61,25,14,Improv_Melody,257,2,48,80,4203343680
61,25,14,Improv_Melody,258,2,72,80,4203345752
61,25,14,Improv_Melody,259,5,42,127,4203348296
61,25,14,Improv_Melody,260,1,38,84,4203838228
61,25,14,Improv_Melody,261,5,42,110,4203840816
61,25,14,Improv_Melody,262,1,48,70,4204339920
61,25,14,Improv_Melody,263,5,42,110,4204341560
61,25,14,Improv_Melody,264,1,38,77,4204836960
61,25,14,Improv_Melody,265,5,42,110,4204841260
61,25,14,Improv_Melody,266,5,42,127,4205340892
61,25,14,Improv_Melody,267,1,48,70,4205342376
61,25,14,Improv_Melody,268,5,42,110,4205840668
61,25,14,Improv_Melody,269,1,38,97,4205864724
61,25,14,Improv_Melody,270,1,48,64,4206327452
61,25,14,Improv_Melody,271,5,42,110,4206340656
61,25,14,Improv_Melody,272,1,38,85,4206840892
61,25,14,Improv_Melody,273,5,42,110,4206843352
61,25,14,Improv_Melody,274,1,48,68,4207330672
61,25,14,Improv_Melody,275,2,43,80,4207343384
61,25,14,Improv_Melody,276,2,67,80,4207345388
61,25,14,Improv_Melody,277,5,42,127,4207348152
61,25,14,Improv_Melody,278,1,38,55,4207816544
61,25,14,Improv_Melody,279,5,42,110,4207840596
61,25,14,Improv_Melody,280,1,48,83,4208332624
61,25,14,Improv_Melody,281,5,42,110,4208341340
61,25,14,Improv_Melody,282,1,38,69,4208829332
61,25,14,Improv_Melody,283,5,42,110,4208841116
61,25,14,Improv_Melody,284,1,48,86,4209323724
61,25,14,Improv_Melody,285,5,42,127,4209340668
61,25,14,Improv_Melody,286,5,42,110,4209840448
61,25,14,Improv_Melody,287,1,38,97,4209849628
61,25,14,Improv_Melody,288,1,48,63,4210340444
61,25,14,Improv_Melody,289,5,42,110,4210341788
61,25,14,Improv_Melody,290,5,42,110,4210840896
61,25,14,Improv_Melody,291,1,38,78,4210847084
61,25,14,Improv_Melody,292,2,45,80,4211343252
61,25,14,Improv_Melody,293,2,69,80,4211345328
61,25,14,Improv_Melody,294,5,42,127,4211348088
61,25,14,Improv_Melody,295,1,48,70,4211366920
61,25,14,Improv_Melody,296,1,38,92,4211841332
61,25,14,Improv_Melody,297,5,42,110,4211844016
61,25,14,Improv_Melody,298,1,48,75,4212324004
61,25,14,Improv_Melody,299,5,42,110,4212341248
61,25,14,Improv_Melody,300,1,38,79,4212837400
61,25,14,Improv_Melody,301,5,42,110,4212840800
61,25,14,Improv_Melody,302,5,42,127,4213340580
61,25,14,Improv_Melody,303,1,48,76,4213349008
61,25,14,Improv_Melody,304,1,38,101,4213819288
61,25,14,Improv_Melody,305,5,42,110,4213841244
61,25,14,Improv_Melody,306,1,48,68,4214336416
61,25,14,Improv_Melody,307,5,42,110,4214341172
61,25,14,Improv_Melody,308,5,42,110,4214840652
61,25,14,Improv_Melody,309,1,38,78,4214855440
61,25,14,Improv_Melody,310,2,41,80,4215343980
61,25,14,Improv_Melody,311,2,65,80,4215346128
61,25,14,Improv_Melody,312,5,42,127,4215348816
61,25,14,Improv_Melody,313,1,48,70,4215363452
61,25,14,Improv_Melody,314,1,38,92,4215832768
61,25,14,Improv_Melody,315,5,42,110,4215841256
61,25,14,Improv_Melody,316,1,48,66,4216332088
61,25,14,Improv_Melody,317,5,42,110,4216340804
61,25,14,Improv_Melody,318,1,38,88,4216822140
61,25,14,Improv_Melody,319,5,42,110,4216840432
61,25,14,Improv_Melody,320,5,42,127,4217341408
61,25,14,Improv_Melody,321,1,48,77,4217355596
61,25,14,Improv_Melody,322,1,38,66,4217824680
61,25,14,Improv_Melody,323,5,42,110,4217841248
61,25,14,Improv_Melody,324,1,48,76,4218331036
61,25,14,Improv_Melody,325,5,42,110,4218340580
61,25,14,Improv_Melody,326,1,38,72,4218840804
61,25,14,Improv_Melody,327,5,42,110,4218842968
61,25,14,Improv_Melody,328,2,48,80,4219343684
61,25,14,Improv_Melody,329,2,72,80,4219345988
61,25,14,Improv_Melody,330,5,42,127,4219348520
61,25,14,Improv_Melody,331,1,48,60,4219371164
61,25,14,Improv_Melody,332,5,42,110,4219840744
61,25,14,Improv_Melody,333,1,38,90,4219842760
61,25,14,Improv_Melody,0,9999,9999,9999,4139338860
61,25,14,Improv_Melody,1,9999,9999,9999,4139838548
61,25,14,Improv_Melody,2,9999,9999,9999,4140338268
61,25,14,Improv_Melody,3,9999,9999,9999,4140838964
61,25,14,Improv_Melody,4,9999,9999,9999,4141338684
61,25,14,Improv_Melody,5,9999,9999,9999,4141838404
61,25,14,Improv_Melody,6,9999,9999,9999,4142338128
61,25,14,Improv_Melody,7,9999,9999,9999,4142838896
61,25,14,Improv_Melody,8,9999,9999,9999,4143338616
61,25,14,Improv_Melody,9,9999,9999,9999,4143838280
61,25,14,Improv_Melody,10,9999,9999,9999,4144339048
61,25,14,Improv_Melody,11,9999,9999,9999,4144838768
61,25,14,Improv_Melody,12,9999,9999,9999,4145338416
61,25,14,Improv_Melody,13,9999,9999,9999,4145838136
61,25,14,Improv_Melody,14,9999,9999,9999,4146338908
61,25,14,Improv_Melody,15,9999,9999,9999,4146838628
61,25,14,Improv_Melody,16,9999,9999,9999,4147338324
61,25,14,Improv_Melody,17,9999,9999,9999,4147839048
61,25,14,Improv_Melody,18,9999,9999,9999,4148338768
61,25,14,Improv_Melody,19,9999,9999,9999,4148838492
61,25,14,Improv_Melody,20,9999,9999,9999,4149338212
61,25,14,Improv_Melody,21,9999,9999,9999,4149838908
61,25,14,Improv_Melody,22,9999,9999,9999,4150338628
61,25,14,Improv_Melody,23,9999,9999,9999,4150838348
61,25,14,Improv_Melody,24,9999,9999,9999,4151339120
61,25,14,Improv_Melody,25,9999,9999,9999,4151838780
61,25,14,Improv_Melody,26,9999,9999,9999,4152338500
61,25,14,Improv_Melody,27,9999,9999,9999,4152838224
61,25,14,Improv_Melody,28,9999,9999,9999,4153338988
61,25,14,Improv_Melody,29,9999,9999,9999,4153838712
61,25,14,Improv_Melody,30,9999,9999,9999,4154338360
61,25,14,Improv_Melody,31,9999,9999,9999,4154838080
61,25,14,Improv_Melody,32,9999,9999,9999,4155338844
61,25,14,Improv_Melody,33,9999,9999,9999,4155838556
61,25,14,Improv_Melody,34,9999,9999,9999,4156338256
61,25,14,Improv_Melody,35,9999,9999,9999,4156839000
61,25,14,Improv_Melody,36,9999,9999,9999,4157338732
61,25,14,Improv_Melody,37,9999,9999,9999,4157838384
61,25,14,Improv_Melody,38,9999,9999,9999,4158338160
61,25,14,Improv_Melody,39,9999,9999,9999,4158838904
61,25,14,Improv_Melody,40,9999,9999,9999,4159338600
61,25,14,Improv_Melody,41,9999,9999,9999,4159838320
61,25,14,Improv_Melody,42,9999,9999,9999,4160339064
61,25,14,Improv_Melody,43,9999,9999,9999,4160838764
61,25,14,Improv_Melody,44,9999,9999,9999,4161338464
61,25,14,Improv_Melody,45,9999,9999,9999,4161838164
61,25,14,Improv_Melody,46,9999,9999,9999,4162338912
61,25,14,Improv_Melody,47,9999,9999,9999,4162838612
61,25,14,Improv_Melody,48,9999,9999,9999,4163338312
61,25,14,Improv_Melody,49,9999,9999,9999,4163839076
61,25,14,Improv_Melody,50,9999,9999,9999,4164338772
61,25,14,Improv_Melody,51,9999,9999,9999,4164838472
61,25,14,Improv_Melody,52,9999,9999,9999,4165338172
61,25,14,Improv_Melody,53,9999,9999,9999,4165838920
61,25,14,Improv_Melody,54,9999,9999,9999,4166338620
61,25,14,Improv_Melody,55,9999,9999,9999,4166838320
61,25,14,Improv_Melody,56,9999,9999,9999,4167339060
61,25,14,Improv_Melody,57,9999,9999,9999,4167838772
61,25,14,Improv_Melody,58,9999,9999,9999,4168338480
61,25,14,Improv_Melody,59,9999,9999,9999,4168838224
61,25,14,Improv_Melody,60,9999,9999,9999,4169338976
61,25,14,Improv_Melody,61,9999,9999,9999,4169838676
61,25,14,Improv_Melody,62,9999,9999,9999,4170338376
61,25,14,Improv_Melody,63,9999,9999,9999,4170838068
61,25,14,Improv_Melody,64,9999,9999,9999,4171338820
61,25,14,Improv_Melody,65,9999,9999,9999,4171838536
61,25,14,Improv_Melody,66,9999,9999,9999,4172338236
61,25,14,Improv_Melody,67,9999,9999,9999,4172838976
61,25,14,Improv_Melody,68,9999,9999,9999,4173338680
61,25,14,Improv_Melody,69,9999,9999,9999,4173838448
61,25,14,Improv_Melody,70,9999,9999,9999,4174338148
61,25,14,Improv_Melody,71,9999,9999,9999,4174838900
61,25,14,Improv_Melody,72,9999,9999,9999,4175338600
61,25,14,Improv_Melody,73,9999,9999,9999,4175838312
61,25,14,Improv_Melody,74,9999,9999,9999,4176339056
61,25,14,Improv_Melody,75,9999,9999,9999,4176838756
61,25,14,Improv_Melody,76,9999,9999,9999,4177338456
61,25,14,Improv_Melody,77,9999,9999,9999,4177838156
61,25,14,Improv_Melody,78,9999,9999,9999,4178338912
61,25,14,Improv_Melody,79,9999,9999,9999,4178838608
61,25,14,Improv_Melody,80,9999,9999,9999,4179338352
61,25,14,Improv_Melody,81,9999,9999,9999,4179839052
61,25,14,Improv_Melody,82,9999,9999,9999,4180338756
61,25,14,Improv_Melody,83,9999,9999,9999,4180838452
61,25,14,Improv_Melody,84,9999,9999,9999,4181338232
61,25,14,Improv_Melody,85,9999,9999,9999,4181838900
61,25,14,Improv_Melody,86,9999,9999,9999,4182338676
61,25,14,Improv_Melody,87,9999,9999,9999,4182838384
61,25,14,Improv_Melody,88,9999,9999,9999,4183339128
61,25,14,Improv_Melody,89,9999,9999,9999,4183838836
61,25,14,Improv_Melody,90,9999,9999,9999,4184338540
61,25,14,Improv_Melody,91,9999,9999,9999,4184838240
61,25,14,Improv_Melody,92,9999,9999,9999,4185338980
61,25,14,Improv_Melody,93,9999,9999,9999,4185838680
61,25,14,Improv_Melody,94,9999,9999,9999,4186338380
61,25,14,Improv_Melody,95,9999,9999,9999,4186838088
61,25,14,Improv_Melody,96,9999,9999,9999,4187338828
61,25,14,Improv_Melody,97,9999,9999,9999,4187838548
61,25,14,Improv_Melody,98,9999,9999,9999,4188338240
61,25,14,Improv_Melody,99,9999,9999,9999,4188838988
61,25,14,Improv_Melody,100,9999,9999,9999,4189338688
61,25,14,Improv_Melody,101,9999,9999,9999,4189838396
61,25,14,Improv_Melody,102,9999,9999,9999,4190338140
61,25,14,Improv_Melody,103,9999,9999,9999,4190838884
61,25,14,Improv_Melody,104,9999,9999,9999,4191338592
61,25,14,Improv_Melody,105,9999,9999,9999,4191838304
61,25,14,Improv_Melody,106,9999,9999,9999,4192339044
61,25,14,Improv_Melody,107,9999,9999,9999,4192838744
61,25,14,Improv_Melody,108,9999,9999,9999,4193338448
61,25,14,Improv_Melody,109,9999,9999,9999,4193838148
61,25,14,Improv_Melody,110,9999,9999,9999,4194338892
61,25,14,Improv_Melody,111,9999,9999,9999,4194838592
61,25,14,Improv_Melody,112,9999,9999,9999,4195338292
61,25,14,Improv_Melody,113,9999,9999,9999,4195839056
61,25,14,Improv_Melody,114,9999,9999,9999,4196338752
61,25,14,Improv_Melody,115,9999,9999,9999,4196838448
61,25,14,Improv_Melody,116,9999,9999,9999,4197338224
61,25,14,Improv_Melody,117,9999,9999,9999,4197838900
61,25,14,Improv_Melody,118,9999,9999,9999,4198338680
61,25,14,Improv_Melody,119,9999,9999,9999,4198838376
61,25,14,Improv_Melody,120,9999,9999,9999,4199339124
61,25,14,Improv_Melody,121,9999,9999,9999,4199838836
61,25,14,Improv_Melody,122,9999,9999,9999,4200338536
61,25,14,Improv_Melody,123,9999,9999,9999,4200838212
61,25,14,Improv_Melody,124,9999,9999,9999,4201338956
61,25,14,Improv_Melody,125,9999,9999,9999,4201838660
61,25,14,Improv_Melody,126,9999,9999,9999,4202338364
61,25,14,Improv_Melody,127,9999,9999,9999,4202838064
61,25,14,Improv_Melody,128,9999,9999,9999,4203338808
61,25,14,Improv_Melody,129,9999,9999,9999,4203838520
61,25,14,Improv_Melody,130,9999,9999,9999,4204338228
61,25,14,Improv_Melody,131,9999,9999,9999,4204838968
61,25,14,Improv_Melody,132,9999,9999,9999,4205338672
61,25,14,Improv_Melody,133,9999,9999,9999,4205838448
61,25,14,Improv_Melody,134,9999,9999,9999,4206338140
61,25,14,Improv_Melody,135,9999,9999,9999,4206838896
61,25,14,Improv_Melody,136,9999,9999,9999,4207338592
61,25,14,Improv_Melody,137,9999,9999,9999,4207838304
61,25,14,Improv_Melody,138,9999,9999,9999,4208339048
61,25,14,Improv_Melody,139,9999,9999,9999,4208838748
61,25,14,Improv_Melody,140,9999,9999,9999,4209338448
61,25,14,Improv_Melody,141,9999,9999,9999,4209838156
61,25,14,Improv_Melody,142,9999,9999,9999,4210338904
61,25,14,Improv_Melody,143,9999,9999,9999,4210838604
61,25,14,Improv_Melody,144,9999,9999,9999,4211338352
61,25,14,Improv_Melody,145,9999,9999,9999,4211839040
61,25,14,Improv_Melody,146,9999,9999,9999,4212338808
61,25,14,Improv_Melody,147,9999,9999,9999,4212838508
61,25,14,Improv_Melody,148,9999,9999,9999,4213338212
61,25,14,Improv_Melody,149,9999,9999,9999,4213838952
61,25,14,Improv_Melody,150,9999,9999,9999,4214338656
61,25,14,Improv_Melody,151,9999,9999,9999,4214838360
61,25,14,Improv_Melody,152,9999,9999,9999,4215339108
61,25,14,Improv_Melody,153,9999,9999,9999,4215838812
61,25,14,Improv_Melody,154,9999,9999,9999,4216338512
61,25,14,Improv_Melody,155,9999,9999,9999,4216838212
61,25,14,Improv_Melody,156,9999,9999,9999,4217338964
61,25,14,Improv_Melody,157,9999,9999,9999,4217838660
61,25,14,Improv_Melody,158,9999,9999,9999,4218338360
61,25,14,Improv_Melody,159,9999,9999,9999,4218838064
61,25,14,Improv_Melody,160,9999,9999,9999,4219338812
61,25,14,Improv_Melody,161,9999,9999,9999,4219838524
