pid,taskRunCount,taskID,taskName,i,channel,pitch,velocity,microseconds
1,0,Ticks_Pract_8,0,5,42,127,714073468
671,0,Ticks_Pract_8,1,5,42,127,714874740
671,0,Ticks_Pract_8,2,5,42,127,715673900
671,0,Ticks_Pract_8,3,1,48,53,715765132
671,0,Ticks_Pract_8,4,1,48,57,716457812
671,0,Ticks_Pract_8,5,5,42,127,716473704
671,0,Ticks_Pract_8,6,1,48,58,717266892
671,0,Ticks_Pract_8,7,5,42,127,717273436
671,0,Ticks_Pract_8,8,1,48,51,718058252
671,0,Ticks_Pract_8,9,5,42,127,718074364
671,0,Ticks_Pract_8,10,5,42,127,718874256
671,0,Ticks_Pract_8,11,1,48,53,718944992
671,0,Ticks_Pract_8,12,1,48,53,719610076
671,0,Ticks_Pract_8,13,5,42,127,719673684
671,0,Ticks_Pract_8,14,1,48,44,720471228
671,0,Ticks_Pract_8,15,5,42,127,720473344
671,0,Ticks_Pract_8,16,5,42,127,721274452
671,0,Ticks_Pract_8,17,1,48,41,721309888
671,0,Ticks_Pract_8,18,5,42,127,722074112
671,0,Ticks_Pract_8,19,1,48,31,722146796
671,0,Ticks_Pract_8,20,1,48,49,722853832
671,0,Ticks_Pract_8,21,5,42,127,722873688
671,0,Ticks_Pract_8,22,1,48,55,723628288
671,0,Ticks_Pract_8,23,5,42,127,723673572
671,0,Ticks_Pract_8,24,1,48,54,724436172
671,0,Ticks_Pract_8,25,5,42,127,724474352
671,0,Ticks_Pract_8,26,1,48,53,725247052
671,0,Ticks_Pract_8,27,5,42,127,725274236
671,0,Ticks_Pract_8,28,1,48,49,726063688
671,0,Ticks_Pract_8,29,5,42,127,726073596
671,0,Ticks_Pract_8,30,1,48,46,726848764
671,0,Ticks_Pract_8,31,5,42,127,726873552
671,0,Ticks_Pract_8,32,1,48,48,727663304
671,0,Ticks_Pract_8,33,5,42,127,727674208
671,0,Ticks_Pract_8,34,5,42,127,728474100
671,0,Ticks_Pract_8,35,1,48,49,728491652
671,0,Ticks_Pract_8,36,5,42,127,729273680
671,0,Ticks_Pract_8,37,1,48,51,729280992
671,0,Ticks_Pract_8,38,1,48,54,730037624
671,0,Ticks_Pract_8,39,5,42,127,730073484
671,0,Ticks_Pract_8,40,1,48,61,730844684
671,0,Ticks_Pract_8,41,5,42,127,730874336
671,0,Ticks_Pract_8,42,1,48,53,731663940
671,0,Ticks_Pract_8,43,5,42,127,731674144
671,0,Ticks_Pract_8,44,5,42,127,732473664
671,0,Ticks_Pract_8,45,5,42,127,733273420
671,0,Ticks_Pract_8,46,1,48,52,733942460
671,0,Ticks_Pract_8,47,5,42,127,734074224
671,0,Ticks_Pract_8,48,1,48,50,734758056
671,0,Ticks_Pract_8,49,5,42,127,734874104
671,0,Ticks_Pract_8,50,1,48,51,735638220
671,0,Ticks_Pract_8,51,5,42,127,735673780
671,0,Ticks_Pract_8,52,5,42,127,736473520
671,0,Ticks_Pract_8,53,1,48,50,736492800
671,0,Ticks_Pract_8,54,5,42,127,737274228
671,0,Ticks_Pract_8,55,1,48,47,737342120
671,0,Ticks_Pract_8,0,9999,9999,9999,714071104
671,0,Ticks_Pract_8,1,9999,9999,9999,714871904
671,0,Ticks_Pract_8,2,9999,9999,9999,715671612
671,0,Ticks_Pract_8,3,9999,9999,9999,716471416
671,0,Ticks_Pract_8,4,9999,9999,9999,717271148
671,0,Ticks_Pract_8,5,9999,9999,9999,718071856
671,0,Ticks_Pract_8,6,9999,9999,9999,718871668
671,0,Ticks_Pract_8,7,9999,9999,9999,719671396
671,0,Ticks_Pract_8,8,9999,9999,9999,720471092
671,0,Ticks_Pract_8,9,9999,9999,9999,721271916
671,0,Ticks_Pract_8,10,9999,9999,9999,722071600
671,0,Ticks_Pract_8,11,9999,9999,9999,722871400
671,0,Ticks_Pract_8,12,9999,9999,9999,723671136
671,0,Ticks_Pract_8,13,9999,9999,9999,724471916
671,0,Ticks_Pract_8,14,9999,9999,9999,725271648
671,0,Ticks_Pract_8,15,9999,9999,9999,726071384
671,0,Ticks_Pract_8,16,9999,9999,9999,726871116
671,0,Ticks_Pract_8,17,9999,9999,9999,727671896
671,0,Ticks_Pract_8,18,9999,9999,9999,728471660
671,0,Ticks_Pract_8,19,9999,9999,9999,729271392
671,0,Ticks_Pract_8,20,9999,9999,9999,730071120
671,0,Ticks_Pract_8,21,9999,9999,9999,730871900
671,0,Ticks_Pract_8,22,9999,9999,9999,731671636
671,0,Ticks_Pract_8,23,9999,9999,9999,732471376
671,0,Ticks_Pract_8,24,9999,9999,9999,733271128
671,0,Ticks_Pract_8,25,9999,9999,9999,734071912
671,0,Ticks_Pract_8,26,9999,9999,9999,734871668
671,0,Ticks_Pract_8,27,9999,9999,9999,735671344
671,0,Ticks_Pract_8,28,9999,9999,9999,736471160
671,0,Ticks_Pract_8,29,9999,9999,9999,737271864
672,1,Ticks_Pract_5,0,5,42,127,764966356
672,1,Ticks_Pract_5,1,5,42,127,765465924
672,1,Ticks_Pract_5,2,1,48,46,765910772
672,1,Ticks_Pract_5,3,5,42,127,765965780
672,1,Ticks_Pract_5,4,1,48,51,766448844
672,1,Ticks_Pract_5,5,5,42,127,766466304
672,1,Ticks_Pract_5,6,1,48,39,766966004
672,1,Ticks_Pract_5,7,5,42,127,766967568
672,1,Ticks_Pract_5,8,5,42,127,767465848
672,1,Ticks_Pract_5,9,1,48,37,767469940
672,1,Ticks_Pract_5,10,5,42,127,767965764
672,1,Ticks_Pract_5,11,1,48,42,767982128
672,1,Ticks_Pract_5,12,1,48,42,768464088
672,1,Ticks_Pract_5,13,5,42,127,768466276
672,1,Ticks_Pract_5,14,1,48,41,768954496
672,1,Ticks_Pract_5,15,5,42,127,768965900
672,1,Ticks_Pract_5,16,1,48,38,769430780
672,1,Ticks_Pract_5,17,5,42,127,769465668
672,1,Ticks_Pract_5,18,1,48,38,769961736
672,1,Ticks_Pract_5,19,5,42,127,769965512
672,1,Ticks_Pract_5,20,1,48,39,770451488
672,1,Ticks_Pract_5,21,5,42,127,770466104
672,1,Ticks_Pract_5,22,1,48,41,770950580
672,1,Ticks_Pract_5,23,5,42,127,770965872
672,1,Ticks_Pract_5,24,1,48,38,771435212
672,1,Ticks_Pract_5,25,5,42,127,771465788
672,1,Ticks_Pract_5,26,1,48,41,771936408
672,1,Ticks_Pract_5,27,5,42,127,771966752
672,1,Ticks_Pract_5,28,1,48,35,772437968
672,1,Ticks_Pract_5,29,5,42,127,772466048
672,1,Ticks_Pract_5,30,1,48,36,772942376
672,1,Ticks_Pract_5,31,5,42,127,772965668
672,1,Ticks_Pract_5,32,1,48,41,773412900
672,1,Ticks_Pract_5,33,5,42,127,773465588
672,1,Ticks_Pract_5,34,1,48,38,773935028
672,1,Ticks_Pract_5,35,5,42,127,773966104
672,1,Ticks_Pract_5,36,1,48,28,774447372
672,1,Ticks_Pract_5,37,5,42,127,774465800
672,1,Ticks_Pract_5,38,1,48,39,774945940
672,1,Ticks_Pract_5,39,5,42,127,774965644
672,1,Ticks_Pract_5,40,1,48,29,775431944
672,1,Ticks_Pract_5,41,5,42,127,775466236
672,1,Ticks_Pract_5,42,1,48,25,775933732
672,1,Ticks_Pract_5,43,5,42,127,775966080
672,1,Ticks_Pract_5,44,1,48,37,776403808
672,1,Ticks_Pract_5,45,5,42,127,776465848
672,1,Ticks_Pract_5,46,1,48,46,776910988
672,1,Ticks_Pract_5,47,5,42,127,776965692
672,1,Ticks_Pract_5,48,1,48,44,777430800
672,1,Ticks_Pract_5,49,5,42,127,777466140
672,1,Ticks_Pract_5,50,1,48,44,777942688
672,1,Ticks_Pract_5,51,5,42,127,777965836
672,1,Ticks_Pract_5,52,1,48,45,778438724
672,1,Ticks_Pract_5,53,5,42,127,778465752
672,1,Ticks_Pract_5,54,1,48,44,778939468
672,1,Ticks_Pract_5,55,5,42,127,778966500
672,1,Ticks_Pract_5,56,1,48,39,779447760
672,1,Ticks_Pract_5,57,5,42,127,779466116
672,1,Ticks_Pract_5,58,1,48,40,779921724
672,1,Ticks_Pract_5,59,5,42,127,779965736
672,1,Ticks_Pract_5,60,1,48,43,780439144
672,1,Ticks_Pract_5,61,5,42,127,780465800
672,1,Ticks_Pract_5,62,1,48,46,780934352
672,1,Ticks_Pract_5,63,5,42,127,780966172
672,1,Ticks_Pract_5,64,1,48,55,781432324
672,1,Ticks_Pract_5,65,5,42,127,781465868
672,1,Ticks_Pract_5,66,5,42,127,781965640
672,1,Ticks_Pract_5,67,1,48,45,781974368
672,1,Ticks_Pract_5,68,5,42,127,782466536
672,1,Ticks_Pract_5,69,1,48,49,782474516
672,1,Ticks_Pract_5,70,5,42,127,782965980
672,1,Ticks_Pract_5,71,1,48,45,782992460
672,1,Ticks_Pract_5,72,5,42,127,783465820
672,1,Ticks_Pract_5,73,1,48,47,783489092
672,1,Ticks_Pract_5,74,5,42,127,783965740
672,1,Ticks_Pract_5,75,1,48,44,783979332
672,1,Ticks_Pract_5,76,5,42,127,784466256
672,1,Ticks_Pract_5,77,1,48,44,784473120
672,1,Ticks_Pract_5,0,9999,9999,9999,764963920
672,1,Ticks_Pract_5,1,9999,9999,9999,765463636
672,1,Ticks_Pract_5,2,9999,9999,9999,765963348
672,1,Ticks_Pract_5,3,9999,9999,9999,766464088
672,1,Ticks_Pract_5,4,9999,9999,9999,766963792
672,1,Ticks_Pract_5,5,9999,9999,9999,767463484
672,1,Ticks_Pract_5,6,9999,9999,9999,767963256
672,1,Ticks_Pract_5,7,9999,9999,9999,768463956
672,1,Ticks_Pract_5,8,9999,9999,9999,768963688
672,1,Ticks_Pract_5,9,9999,9999,9999,769463384
672,1,Ticks_Pract_5,10,9999,9999,9999,769963076
672,1,Ticks_Pract_5,11,9999,9999,9999,770463816
672,1,Ticks_Pract_5,12,9999,9999,9999,770963512
672,1,Ticks_Pract_5,13,9999,9999,9999,771463280
672,1,Ticks_Pract_5,14,9999,9999,9999,771964020
672,1,Ticks_Pract_5,15,9999,9999,9999,772463688
672,1,Ticks_Pract_5,16,9999,9999,9999,772963384
672,1,Ticks_Pract_5,17,9999,9999,9999,773463152
672,1,Ticks_Pract_5,18,9999,9999,9999,773963892
672,1,Ticks_Pract_5,19,9999,9999,9999,774463588
672,1,Ticks_Pract_5,20,9999,9999,9999,774963284
672,1,Ticks_Pract_5,21,9999,9999,9999,775464024
672,1,Ticks_Pract_5,22,9999,9999,9999,775963720
672,1,Ticks_Pract_5,23,9999,9999,9999,776463416
672,1,Ticks_Pract_5,24,9999,9999,9999,776963184
672,1,Ticks_Pract_5,25,9999,9999,9999,777463928
672,1,Ticks_Pract_5,26,9999,9999,9999,777963624
672,1,Ticks_Pract_5,27,9999,9999,9999,778463320
672,1,Ticks_Pract_5,28,9999,9999,9999,778964060
672,1,Ticks_Pract_5,29,9999,9999,9999,779463756
672,1,Ticks_Pract_5,30,9999,9999,9999,779963452
672,1,Ticks_Pract_5,31,9999,9999,9999,780463216
672,1,Ticks_Pract_5,32,9999,9999,9999,780963960
672,1,Ticks_Pract_5,33,9999,9999,9999,781463656
672,1,Ticks_Pract_5,34,9999,9999,9999,781963356
672,1,Ticks_Pract_5,35,9999,9999,9999,782464096
672,1,Ticks_Pract_5,36,9999,9999,9999,782963768
672,1,Ticks_Pract_5,37,9999,9999,9999,783463532
672,1,Ticks_Pract_5,38,9999,9999,9999,783963232
672,1,Ticks_Pract_5,39,9999,9999,9999,784463968
673,2,T1_SMS_8,0,5,42,127,886228228
673,2,T1_SMS_8,1,1,48,33,886808984
673,2,T1_SMS_8,2,5,42,127,887028036
673,2,T1_SMS_8,3,5,42,127,887827864
673,2,T1_SMS_8,4,1,48,31,887881392
673,2,T1_SMS_8,5,5,42,127,888627820
673,2,T1_SMS_8,6,1,48,18,888736804
673,2,T1_SMS_8,7,5,42,127,889428300
673,2,T1_SMS_8,8,1,48,33,889436656
673,2,T1_SMS_8,9,1,48,23,890206676
673,2,T1_SMS_8,10,5,42,127,890228128
673,2,T1_SMS_8,11,1,48,29,891001796
673,2,T1_SMS_8,12,5,42,127,891027788
673,2,T1_SMS_8,13,1,48,28,891803924
673,2,T1_SMS_8,14,5,42,127,891827744
673,2,T1_SMS_8,15,5,42,127,892628456
673,2,T1_SMS_8,16,1,48,33,892649752
673,2,T1_SMS_8,17,5,42,127,893428040
673,2,T1_SMS_8,18,1,48,30,893440732
673,2,T1_SMS_8,19,5,42,127,894227776
673,2,T1_SMS_8,20,1,48,25,894272252
673,2,T1_SMS_8,21,5,42,127,895027656
673,2,T1_SMS_8,22,1,48,36,895029068
673,2,T1_SMS_8,23,5,42,127,895828512
673,2,T1_SMS_8,24,1,48,26,895851676
673,2,T1_SMS_8,25,1,48,27,896605012
673,2,T1_SMS_8,26,5,42,127,896628040
673,2,T1_SMS_8,27,1,48,33,897388068
673,2,T1_SMS_8,28,5,42,127,897427772
673,2,T1_SMS_8,29,1,48,18,898222980
673,2,T1_SMS_8,30,5,42,127,898227580
673,2,T1_SMS_8,31,1,48,39,899006712
673,2,T1_SMS_8,32,5,42,127,899028432
673,2,T1_SMS_8,33,1,48,28,899777196
673,2,T1_SMS_8,34,5,42,127,899828016
673,2,T1_SMS_8,35,1,48,32,900581792
673,2,T1_SMS_8,36,5,42,127,900627752
673,2,T1_SMS_8,37,1,48,38,901396708
673,2,T1_SMS_8,38,5,42,127,901427632
673,2,T1_SMS_8,39,1,48,38,902199436
673,2,T1_SMS_8,40,5,42,127,902228336
673,2,T1_SMS_8,41,1,48,45,902962216
673,2,T1_SMS_8,42,5,42,127,903028096
673,2,T1_SMS_8,43,1,48,28,903818820
673,2,T1_SMS_8,44,5,42,127,903827756
673,2,T1_SMS_8,45,1,48,29,904595816
673,2,T1_SMS_8,46,5,42,127,904627416
673,2,T1_SMS_8,47,1,48,30,905372960
673,2,T1_SMS_8,48,5,42,127,905428492
673,2,T1_SMS_8,49,1,48,36,906152420
673,2,T1_SMS_8,50,5,42,127,906228152
673,2,T1_SMS_8,51,1,48,32,906950580
673,2,T1_SMS_8,52,5,42,127,907027812
673,2,T1_SMS_8,53,1,48,35,907740596
673,2,T1_SMS_8,54,5,42,127,907827616
673,2,T1_SMS_8,55,1,48,35,908563516
673,2,T1_SMS_8,56,5,42,127,908628548
673,2,T1_SMS_8,57,1,48,34,909358464
673,2,T1_SMS_8,58,5,42,127,909428008
673,2,T1_SMS_8,59,1,48,37,910198312
673,2,T1_SMS_8,60,5,42,127,910227816
673,2,T1_SMS_8,61,5,42,127,911027556
673,2,T1_SMS_8,62,1,48,32,911085872
673,2,T1_SMS_8,63,5,42,127,911828484
673,2,T1_SMS_8,64,1,48,25,911894428
673,2,T1_SMS_8,65,5,42,127,912628292
673,2,T1_SMS_8,66,1,48,24,912645620
673,2,T1_SMS_8,67,5,42,127,913427876
673,2,T1_SMS_8,68,1,48,29,913464504
673,2,T1_SMS_8,69,5,42,127,914227460
673,2,T1_SMS_8,70,1,48,28,914257956
673,2,T1_SMS_8,71,5,42,127,915028464
673,2,T1_SMS_8,72,1,48,27,915050208
673,2,T1_SMS_8,73,1,48,21,915816568
673,2,T1_SMS_8,74,5,42,127,915827992
673,2,T1_SMS_8,75,1,48,32,916607720
673,2,T1_SMS_8,76,5,42,127,916627724
673,2,T1_SMS_8,77,1,48,32,917401468
673,2,T1_SMS_8,78,5,42,127,917427684
673,2,T1_SMS_8,79,5,42,127,918228320
673,2,T1_SMS_8,80,1,48,20,918249616
673,2,T1_SMS_8,81,5,42,127,919028352
673,2,T1_SMS_8,82,1,48,24,919046128
673,2,T1_SMS_8,83,1,48,22,919819896
673,2,T1_SMS_8,84,5,42,127,919827784
673,2,T1_SMS_8,85,5,42,127,920627600
673,2,T1_SMS_8,86,1,48,21,920699404
673,2,T1_SMS_8,87,1,48,23,921425864
673,2,T1_SMS_8,88,5,42,127,921428372
673,2,T1_SMS_8,89,5,42,127,922228212
673,2,T1_SMS_8,90,1,48,28,922230884
673,2,T1_SMS_8,91,1,48,26,923009504
673,2,T1_SMS_8,92,5,42,127,923027864
673,2,T1_SMS_8,93,1,48,20,923810884
673,2,T1_SMS_8,94,5,42,127,923827520
673,2,T1_SMS_8,95,1,48,30,924621912
673,2,T1_SMS_8,96,5,42,127,924628304
673,2,T1_SMS_8,97,5,42,127,925428192
673,2,T1_SMS_8,98,1,48,29,925450904
673,2,T1_SMS_8,99,5,42,127,926227848
673,2,T1_SMS_8,100,1,48,32,926236804
673,2,T1_SMS_8,101,5,42,127,927027436
673,2,T1_SMS_8,102,1,48,28,927064432
673,2,T1_SMS_8,103,5,42,127,927828212
673,2,T1_SMS_8,104,1,48,20,927858356
673,2,T1_SMS_8,105,5,42,127,928628196
673,2,T1_SMS_8,106,1,48,24,928629160
673,2,T1_SMS_8,107,5,42,127,929427852
673,2,T1_SMS_8,108,1,48,24,929428892
673,2,T1_SMS_8,109,1,48,32,930207276
673,2,T1_SMS_8,110,5,42,127,930227656
673,2,T1_SMS_8,111,5,42,127,931028292
673,2,T1_SMS_8,112,1,48,30,931071948
673,2,T1_SMS_8,113,5,42,127,931828100
673,2,T1_SMS_8,114,1,48,36,931849168
673,2,T1_SMS_8,115,5,42,127,932627684
673,2,T1_SMS_8,116,1,48,15,932811536
673,2,T1_SMS_8,117,5,42,127,933427492
673,2,T1_SMS_8,118,1,48,25,933468608
673,2,T1_SMS_8,119,1,48,29,934194496
673,2,T1_SMS_8,120,5,42,127,934228488
673,2,T1_SMS_8,121,1,48,28,934966632
673,2,T1_SMS_8,122,5,42,127,935028244
673,2,T1_SMS_8,123,1,48,37,935775784
673,2,T1_SMS_8,124,5,42,127,935827680
673,2,T1_SMS_8,125,1,48,32,936601272
673,2,T1_SMS_8,126,5,42,127,936627564
673,2,T1_SMS_8,127,5,42,127,937428348
673,2,T1_SMS_8,128,1,48,30,937434160
673,2,T1_SMS_8,129,5,42,127,938228304
673,2,T1_SMS_8,130,1,48,31,938243016
673,2,T1_SMS_8,131,5,42,127,939028040
673,2,T1_SMS_8,132,5,42,127,939827572
673,2,T1_SMS_8,133,1,48,25,939907088
673,2,T1_SMS_8,134,1,48,36,940572436
673,2,T1_SMS_8,135,5,42,127,940628420
673,2,T1_SMS_8,136,1,48,35,941329536
673,2,T1_SMS_8,137,5,42,127,941428308
673,2,T1_SMS_8,138,1,48,35,942193096
673,2,T1_SMS_8,139,5,42,127,942227912
673,2,T1_SMS_8,140,1,48,30,942998364
673,2,T1_SMS_8,141,5,42,127,943027420
673,2,T1_SMS_8,142,1,48,37,943800188
673,2,T1_SMS_8,143,5,42,127,943828276
673,2,T1_SMS_8,144,5,42,127,944628240
673,2,T1_SMS_8,145,1,48,35,944631728
673,2,T1_SMS_8,146,5,42,127,945427900
673,2,T1_SMS_8,147,1,48,32,945434156
673,2,T1_SMS_8,148,5,42,127,946227632
673,2,T1_SMS_8,149,1,48,35,946267552
673,2,T1_SMS_8,150,5,42,127,947028412
673,2,T1_SMS_8,151,1,48,34,947045364
673,2,T1_SMS_8,152,1,48,29,947823540
673,2,T1_SMS_8,153,5,42,127,947828288
673,2,T1_SMS_8,154,1,48,32,948585556
673,2,T1_SMS_8,155,5,42,127,948627724
673,2,T1_SMS_8,156,1,48,32,949379480
673,2,T1_SMS_8,157,5,42,127,949427608
673,2,T1_SMS_8,158,5,42,127,950228392
673,2,T1_SMS_8,159,1,48,35,950272576
673,2,T1_SMS_8,160,5,42,127,951028128
673,2,T1_SMS_8,161,1,48,30,951062812
673,2,T1_SMS_8,162,1,48,28,951827408
673,2,T1_SMS_8,163,5,42,127,951829048
673,2,T1_SMS_8,164,5,42,127,952627596
673,2,T1_SMS_8,165,1,48,29,952699928
673,2,T1_SMS_8,166,5,42,127,953428300
673,2,T1_SMS_8,167,1,48,28,953483876
673,2,T1_SMS_8,168,1,48,37,954215948
673,2,T1_SMS_8,169,5,42,127,954227976
673,2,T1_SMS_8,170,1,48,38,954987564
673,2,T1_SMS_8,171,5,42,127,955027712
673,2,T1_SMS_8,172,1,48,35,955799432
673,2,T1_SMS_8,173,5,42,127,955827520
673,2,T1_SMS_8,174,1,48,39,956564612
673,2,T1_SMS_8,175,5,42,127,956628224
673,2,T1_SMS_8,176,1,48,38,957355144
673,2,T1_SMS_8,177,5,42,127,957427956
673,2,T1_SMS_8,178,1,48,36,958199308
673,2,T1_SMS_8,179,5,42,127,958227840
673,2,T1_SMS_8,180,5,42,127,959027508
673,2,T1_SMS_8,181,1,48,27,959041468
673,2,T1_SMS_8,182,5,42,127,959828284
673,2,T1_SMS_8,183,1,48,24,959879672
673,2,T1_SMS_8,184,5,42,127,960628044
673,2,T1_SMS_8,185,1,48,31,960638568
673,2,T1_SMS_8,186,1,48,21,961418316
673,2,T1_SMS_8,187,5,42,127,961427920
673,2,T1_SMS_8,188,5,42,127,962227436
673,2,T1_SMS_8,189,1,48,25,962236764
673,2,T1_SMS_8,190,1,48,33,963023464
673,2,T1_SMS_8,191,5,42,127,963028212
673,2,T1_SMS_8,192,1,48,29,963823420
673,2,T1_SMS_8,193,5,42,127,963828096
673,2,T1_SMS_8,194,1,48,29,964622184
673,2,T1_SMS_8,195,5,42,127,964627904
673,2,T1_SMS_8,196,5,42,127,965427420
673,2,T1_SMS_8,197,1,48,26,965490476
673,2,T1_SMS_8,198,5,42,127,966228276
673,2,T1_SMS_8,199,1,48,29,966243060
673,2,T1_SMS_8,200,1,48,32,967002084
673,2,T1_SMS_8,201,5,42,127,967028176
673,2,T1_SMS_8,202,1,48,25,967815384
673,2,T1_SMS_8,203,5,42,127,967827912
673,2,T1_SMS_8,204,1,48,25,968605320
673,2,T1_SMS_8,205,5,42,127,968627424
673,2,T1_SMS_8,206,5,42,127,969428208
673,2,T1_SMS_8,207,1,48,28,969438804
673,2,T1_SMS_8,208,5,42,127,970228164
673,2,T1_SMS_8,209,1,48,16,970252748
673,2,T1_SMS_8,210,1,48,19,971014544
673,2,T1_SMS_8,211,5,42,127,971027968
673,2,T1_SMS_8,212,1,48,24,971815620
673,2,T1_SMS_8,213,5,42,127,971827552
673,2,T1_SMS_8,214,1,48,31,972612668
673,2,T1_SMS_8,215,5,42,127,972628260
673,2,T1_SMS_8,216,5,42,127,973428172
673,2,T1_SMS_8,217,1,48,32,973451560
673,2,T1_SMS_8,218,1,48,35,974228056
673,2,T1_SMS_8,219,5,42,127,974229392
673,2,T1_SMS_8,220,1,48,37,975009876
673,2,T1_SMS_8,221,5,42,127,975027856
673,2,T1_SMS_8,222,1,48,37,975816632
673,2,T1_SMS_8,223,5,42,127,975828264
673,2,T1_SMS_8,224,1,48,40,976603652
673,2,T1_SMS_8,225,5,42,127,976628072
673,2,T1_SMS_8,226,1,48,34,977421340
673,2,T1_SMS_8,227,5,42,127,977428104
673,2,T1_SMS_8,228,1,48,35,978177988
673,2,T1_SMS_8,229,5,42,127,978227836
673,2,T1_SMS_8,230,1,48,32,979022976
673,2,T1_SMS_8,231,5,42,127,979028244
673,2,T1_SMS_8,232,5,42,127,979827936
673,2,T1_SMS_8,233,1,48,36,979841080
673,2,T1_SMS_8,234,5,42,127,980627968
673,2,T1_SMS_8,235,1,48,42,980679480
673,2,T1_SMS_8,236,5,42,127,981427476
673,2,T1_SMS_8,237,1,48,35,981434332
673,2,T1_SMS_8,238,1,48,28,982217596
673,2,T1_SMS_8,0,9999,9999,9999,886226008
673,2,T1_SMS_8,1,9999,9999,9999,887025744
673,2,T1_SMS_8,2,9999,9999,9999,887825496
673,2,T1_SMS_8,3,9999,9999,9999,888625232
673,2,T1_SMS_8,4,9999,9999,9999,889426008
673,2,T1_SMS_8,5,9999,9999,9999,890225736
673,2,T1_SMS_8,6,9999,9999,9999,891025496
673,2,T1_SMS_8,7,9999,9999,9999,891825232
673,2,T1_SMS_8,8,9999,9999,9999,892626016
673,2,T1_SMS_8,9,9999,9999,9999,893425748
673,2,T1_SMS_8,10,9999,9999,9999,894225484
673,2,T1_SMS_8,11,9999,9999,9999,895025216
673,2,T1_SMS_8,12,9999,9999,9999,895825996
673,2,T1_SMS_8,13,9999,9999,9999,896625748
673,2,T1_SMS_8,14,9999,9999,9999,897425480
673,2,T1_SMS_8,15,9999,9999,9999,898225212
673,2,T1_SMS_8,16,9999,9999,9999,899025992
673,2,T1_SMS_8,17,9999,9999,9999,899825724
673,2,T1_SMS_8,18,9999,9999,9999,900625460
673,2,T1_SMS_8,19,9999,9999,9999,901425268
673,2,T1_SMS_8,20,9999,9999,9999,902225972
673,2,T1_SMS_8,21,9999,9999,9999,903025732
673,2,T1_SMS_8,22,9999,9999,9999,903825464
673,2,T1_SMS_8,23,9999,9999,9999,904625200
673,2,T1_SMS_8,24,9999,9999,9999,905425976
673,2,T1_SMS_8,25,9999,9999,9999,906225712
673,2,T1_SMS_8,26,9999,9999,9999,907025520
673,2,T1_SMS_8,27,9999,9999,9999,907825252
673,2,T1_SMS_8,28,9999,9999,9999,908626032
673,2,T1_SMS_8,29,9999,9999,9999,909425716
673,2,T1_SMS_8,30,9999,9999,9999,910225524
673,2,T1_SMS_8,31,9999,9999,9999,911025264
673,2,T1_SMS_8,32,9999,9999,9999,911825968
673,2,T1_SMS_8,33,9999,9999,9999,912625776
673,2,T1_SMS_8,34,9999,9999,9999,913425508
673,2,T1_SMS_8,35,9999,9999,9999,914225244
673,2,T1_SMS_8,36,9999,9999,9999,915026024
673,2,T1_SMS_8,37,9999,9999,9999,915825776
673,2,T1_SMS_8,38,9999,9999,9999,916625508
673,2,T1_SMS_8,39,9999,9999,9999,917425244
673,2,T1_SMS_8,40,9999,9999,9999,918226028
673,2,T1_SMS_8,41,9999,9999,9999,919025764
673,2,T1_SMS_8,42,9999,9999,9999,919825492
673,2,T1_SMS_8,43,9999,9999,9999,920625232
673,2,T1_SMS_8,44,9999,9999,9999,921426004
673,2,T1_SMS_8,45,9999,9999,9999,922225768
673,2,T1_SMS_8,46,9999,9999,9999,923025496
673,2,T1_SMS_8,47,9999,9999,9999,923825228
673,2,T1_SMS_8,48,9999,9999,9999,924626012
673,2,T1_SMS_8,49,9999,9999,9999,925425748
673,2,T1_SMS_8,50,9999,9999,9999,926225484
673,2,T1_SMS_8,51,9999,9999,9999,927025216
673,2,T1_SMS_8,52,9999,9999,9999,927825996
673,2,T1_SMS_8,53,9999,9999,9999,928625756
673,2,T1_SMS_8,54,9999,9999,9999,929425488
673,2,T1_SMS_8,55,9999,9999,9999,930225216
673,2,T1_SMS_8,56,9999,9999,9999,931026000
673,2,T1_SMS_8,57,9999,9999,9999,931825732
673,2,T1_SMS_8,58,9999,9999,9999,932625468
673,2,T1_SMS_8,59,9999,9999,9999,933425200
673,2,T1_SMS_8,60,9999,9999,9999,934225972
673,2,T1_SMS_8,61,9999,9999,9999,935025732
673,2,T1_SMS_8,62,9999,9999,9999,935825464
673,2,T1_SMS_8,63,9999,9999,9999,936625272
673,2,T1_SMS_8,64,9999,9999,9999,937425984
673,2,T1_SMS_8,65,9999,9999,9999,938225716
673,2,T1_SMS_8,66,9999,9999,9999,939025524
673,2,T1_SMS_8,67,9999,9999,9999,939825204
673,2,T1_SMS_8,68,9999,9999,9999,940625980
673,2,T1_SMS_8,69,9999,9999,9999,941425720
673,2,T1_SMS_8,70,9999,9999,9999,942225472
673,2,T1_SMS_8,71,9999,9999,9999,943025204
673,2,T1_SMS_8,72,9999,9999,9999,943825984
673,2,T1_SMS_8,73,9999,9999,9999,944625724
673,2,T1_SMS_8,74,9999,9999,9999,945425460
673,2,T1_SMS_8,75,9999,9999,9999,946225264
673,2,T1_SMS_8,76,9999,9999,9999,947025972
673,2,T1_SMS_8,77,9999,9999,9999,947825776
673,2,T1_SMS_8,78,9999,9999,9999,948625508
673,2,T1_SMS_8,79,9999,9999,9999,949425240
673,2,T1_SMS_8,80,9999,9999,9999,950226028
673,2,T1_SMS_8,81,9999,9999,9999,951025760
673,2,T1_SMS_8,82,9999,9999,9999,951825496
673,2,T1_SMS_8,83,9999,9999,9999,952625228
673,2,T1_SMS_8,84,9999,9999,9999,953426008
673,2,T1_SMS_8,85,9999,9999,9999,954225760
673,2,T1_SMS_8,86,9999,9999,9999,955025496
673,2,T1_SMS_8,87,9999,9999,9999,955825228
673,2,T1_SMS_8,88,9999,9999,9999,956626008
673,2,T1_SMS_8,89,9999,9999,9999,957425740
673,2,T1_SMS_8,90,9999,9999,9999,958225476
673,2,T1_SMS_8,91,9999,9999,9999,959025216
673,2,T1_SMS_8,92,9999,9999,9999,959825992
673,2,T1_SMS_8,93,9999,9999,9999,960625752
673,2,T1_SMS_8,94,9999,9999,9999,961425480
673,2,T1_SMS_8,95,9999,9999,9999,962225220
673,2,T1_SMS_8,96,9999,9999,9999,963025992
673,2,T1_SMS_8,97,9999,9999,9999,963825728
673,2,T1_SMS_8,98,9999,9999,9999,964625464
673,2,T1_SMS_8,99,9999,9999,9999,965425204
673,2,T1_SMS_8,100,9999,9999,9999,966225984
673,2,T1_SMS_8,101,9999,9999,9999,967025736
673,2,T1_SMS_8,102,9999,9999,9999,967825472
673,2,T1_SMS_8,103,9999,9999,9999,968625204
673,2,T1_SMS_8,104,9999,9999,9999,969425992
673,2,T1_SMS_8,105,9999,9999,9999,970225724
673,2,T1_SMS_8,106,9999,9999,9999,971025456
673,2,T1_SMS_8,107,9999,9999,9999,971825260
673,2,T1_SMS_8,108,9999,9999,9999,972625968
673,2,T1_SMS_8,109,9999,9999,9999,973425732
673,2,T1_SMS_8,110,9999,9999,9999,974225464
673,2,T1_SMS_8,111,9999,9999,9999,975025268
673,2,T1_SMS_8,112,9999,9999,9999,975825972
673,2,T1_SMS_8,113,9999,9999,9999,976625780
673,2,T1_SMS_8,114,9999,9999,9999,977425516
673,2,T1_SMS_8,115,9999,9999,9999,978225248
673,2,T1_SMS_8,116,9999,9999,9999,979026028
673,2,T1_SMS_8,117,9999,9999,9999,979825716
673,2,T1_SMS_8,118,9999,9999,9999,980625528
673,2,T1_SMS_8,119,9999,9999,9999,981425260
674,4,T1_SMS_5,0,5,42,127,1034781048
674,4,T1_SMS_5,1,5,42,127,1035280692
674,4,T1_SMS_5,2,1,48,26,1035456544
674,4,T1_SMS_5,3,5,42,127,1035780384
674,4,T1_SMS_5,4,1,48,39,1035813420
674,4,T1_SMS_5,5,5,42,127,1036281124
674,4,T1_SMS_5,6,1,48,43,1036282092
674,4,T1_SMS_5,7,1,48,38,1036762528
674,4,T1_SMS_5,8,5,42,127,1036780888
674,4,T1_SMS_5,9,5,42,127,1037280736
674,4,T1_SMS_5,10,1,48,31,1037338160
674,4,T1_SMS_5,11,1,48,32,1037732900
674,4,T1_SMS_5,12,5,42,127,1037781400
674,4,T1_SMS_5,13,1,48,41,1038230344
674,4,T1_SMS_5,14,5,42,127,1038281168
674,4,T1_SMS_5,15,1,48,32,1038715304
674,4,T1_SMS_5,16,5,42,127,1038780864
674,4,T1_SMS_5,17,1,48,35,1039242976
674,4,T1_SMS_5,18,5,42,127,1039280484
674,4,T1_SMS_5,19,1,48,33,1039748804
674,4,T1_SMS_5,20,5,42,127,1039781372
674,4,T1_SMS_5,21,1,48,33,1040249248
674,4,T1_SMS_5,22,5,42,127,1040281068
674,4,T1_SMS_5,23,1,48,34,1040743904
674,4,T1_SMS_5,24,5,42,127,1040780616
674,4,T1_SMS_5,25,1,48,33,1041247864
674,4,T1_SMS_5,26,5,42,127,1041281428
674,4,T1_SMS_5,27,1,48,35,1041746284
674,4,T1_SMS_5,28,5,42,127,1041781200
674,4,T1_SMS_5,29,1,48,32,1042244332
674,4,T1_SMS_5,30,5,42,127,1042280720
674,4,T1_SMS_5,31,1,48,27,1042758316
674,4,T1_SMS_5,32,5,42,127,1042780416
674,4,T1_SMS_5,33,1,48,38,1043253300
674,4,T1_SMS_5,34,5,42,127,1043281156
674,4,T1_SMS_5,35,1,48,33,1043772736
674,4,T1_SMS_5,36,5,42,127,1043780852
674,4,T1_SMS_5,37,1,48,38,1044263160
674,4,T1_SMS_5,38,5,42,127,1044280696
674,4,T1_SMS_5,39,1,48,41,1044756568
674,4,T1_SMS_5,40,5,42,127,1044781364
674,4,T1_SMS_5,41,1,48,38,1045250580
674,4,T1_SMS_5,42,5,42,127,1045281208
674,4,T1_SMS_5,43,1,48,36,1045736212
674,4,T1_SMS_5,44,5,42,127,1045780828
674,4,T1_SMS_5,45,1,48,42,1046261116
674,4,T1_SMS_5,46,5,42,127,1046280524
674,4,T1_SMS_5,47,1,48,41,1046776664
674,4,T1_SMS_5,48,5,42,127,1046781340
674,4,T1_SMS_5,49,1,48,39,1047274644
674,4,T1_SMS_5,50,5,42,127,1047281108
674,4,T1_SMS_5,51,1,48,41,1047771868
674,4,T1_SMS_5,52,5,42,127,1047780804
674,4,T1_SMS_5,53,5,42,127,1048280508
674,4,T1_SMS_5,54,1,48,33,1048283180
674,4,T1_SMS_5,55,1,48,44,1048779132
674,4,T1_SMS_5,56,5,42,127,1048781392
674,4,T1_SMS_5,57,5,42,127,1049281020
674,4,T1_SMS_5,58,1,48,39,1049290048
674,4,T1_SMS_5,59,5,42,127,1049780716
674,4,T1_SMS_5,60,1,48,44,1049781680
674,4,T1_SMS_5,61,1,48,40,1050230932
674,4,T1_SMS_5,62,5,42,127,1050281228
674,4,T1_SMS_5,63,1,48,35,1050775424
674,4,T1_SMS_5,64,5,42,127,1050781148
674,4,T1_SMS_5,65,1,48,34,1051266376
674,4,T1_SMS_5,66,5,42,127,1051280620
674,4,T1_SMS_5,67,1,48,36,1051739196
674,4,T1_SMS_5,68,5,42,127,1051780316
674,4,T1_SMS_5,69,1,48,44,1052246220
674,4,T1_SMS_5,70,5,42,127,1052281204
674,4,T1_SMS_5,71,1,48,42,1052765436
674,4,T1_SMS_5,72,5,42,127,1052781048
674,4,T1_SMS_5,73,1,48,42,1053255852
674,4,T1_SMS_5,74,5,42,127,1053280644
674,4,T1_SMS_5,75,1,48,46,1053760636
674,4,T1_SMS_5,76,5,42,127,1053781312
674,4,T1_SMS_5,77,1,48,44,1054260028
674,4,T1_SMS_5,78,5,42,127,1054281008
674,4,T1_SMS_5,79,1,48,40,1054702956
674,4,T1_SMS_5,80,5,42,127,1054780852
674,4,T1_SMS_5,81,1,48,39,1055187992
674,4,T1_SMS_5,82,5,42,127,1055280400
674,4,T1_SMS_5,83,1,48,41,1055658440
674,4,T1_SMS_5,84,5,42,127,1055781276
674,4,T1_SMS_5,85,1,48,37,1056239288
674,4,T1_SMS_5,86,5,42,127,1056281060
674,4,T1_SMS_5,87,1,48,34,1056740408
674,4,T1_SMS_5,88,5,42,127,1056780532
674,4,T1_SMS_5,89,1,48,43,1057257228
674,4,T1_SMS_5,90,5,42,127,1057281276
674,4,T1_SMS_5,91,1,48,44,1057757528
674,4,T1_SMS_5,92,5,42,127,1057781340
674,4,T1_SMS_5,93,1,48,47,1058276064
674,4,T1_SMS_5,94,5,42,127,1058280740
674,4,T1_SMS_5,95,5,42,127,1058780592
674,4,T1_SMS_5,96,1,48,41,1058788500
674,4,T1_SMS_5,97,5,42,127,1059281260
674,4,T1_SMS_5,98,1,48,44,1059298592
674,4,T1_SMS_5,99,1,48,44,1059767972
674,4,T1_SMS_5,100,5,42,127,1059781244
674,4,T1_SMS_5,101,1,48,41,1060256900
674,4,T1_SMS_5,102,5,42,127,1060280640
674,4,T1_SMS_5,103,1,48,39,1060732208
674,4,T1_SMS_5,104,5,42,127,1060781384
674,4,T1_SMS_5,105,1,48,36,1061237888
674,4,T1_SMS_5,106,5,42,127,1061281300
674,4,T1_SMS_5,107,1,48,32,1061717880
674,4,T1_SMS_5,108,5,42,127,1061780696
674,4,T1_SMS_5,109,1,48,41,1062249668
674,4,T1_SMS_5,110,5,42,127,1062280468
674,4,T1_SMS_5,111,1,48,35,1062729312
674,4,T1_SMS_5,112,5,42,127,1062781280
674,4,T1_SMS_5,113,1,48,35,1063248380
674,4,T1_SMS_5,114,5,42,127,1063281200
674,4,T1_SMS_5,115,1,48,34,1063722788
674,4,T1_SMS_5,116,5,42,127,1063780572
674,4,T1_SMS_5,117,1,48,36,1064264596
674,4,T1_SMS_5,118,5,42,127,1064280340
674,4,T1_SMS_5,119,1,48,35,1064760704
674,4,T1_SMS_5,120,5,42,127,1064781156
674,4,T1_SMS_5,121,1,48,30,1065266080
674,4,T1_SMS_5,122,5,42,127,1065281148
674,4,T1_SMS_5,123,1,48,38,1065739376
674,4,T1_SMS_5,124,5,42,127,1065780620
674,4,T1_SMS_5,125,1,48,36,1066265624
674,4,T1_SMS_5,126,5,42,127,1066281292
674,4,T1_SMS_5,127,1,48,36,1066749312
674,4,T1_SMS_5,128,5,42,127,1066781432
674,4,T1_SMS_5,129,5,42,127,1067280612
674,4,T1_SMS_5,130,1,48,39,1067281580
674,4,T1_SMS_5,131,1,48,33,1067774800
674,4,T1_SMS_5,132,5,42,127,1067780524
674,4,T1_SMS_5,133,1,48,40,1068268964
674,4,T1_SMS_5,134,5,42,127,1068281192
674,4,T1_SMS_5,135,5,42,127,1068781116
674,4,T1_SMS_5,136,1,48,27,1068793136
674,4,T1_SMS_5,137,5,42,127,1069280588
674,4,T1_SMS_5,138,1,48,32,1069299560
674,4,T1_SMS_5,139,5,42,127,1069781328
674,4,T1_SMS_5,140,1,48,32,1069797840
674,4,T1_SMS_5,141,1,48,37,1070278068
674,4,T1_SMS_5,142,5,42,127,1070281168
674,4,T1_SMS_5,143,5,42,127,1070780944
674,4,T1_SMS_5,144,1,48,30,1070801340
674,4,T1_SMS_5,145,1,48,35,1071263392
674,4,T1_SMS_5,146,5,42,127,1071280484
674,4,T1_SMS_5,147,5,42,127,1071781156
674,4,T1_SMS_5,148,1,48,25,1071782124
674,4,T1_SMS_5,149,1,48,36,1072268624
674,4,T1_SMS_5,150,5,42,127,1072281148
674,4,T1_SMS_5,151,5,42,127,1072780624
674,4,T1_SMS_5,152,1,48,35,1072785912
674,4,T1_SMS_5,153,1,48,37,1073237920
674,4,T1_SMS_5,154,5,42,127,1073281360
674,4,T1_SMS_5,155,5,42,127,1073781136
674,4,T1_SMS_5,156,1,48,31,1073804380
674,4,T1_SMS_5,157,1,48,35,1074254212
674,4,T1_SMS_5,158,5,42,127,1074280948
674,4,T1_SMS_5,159,5,42,127,1074780428
674,4,T1_SMS_5,160,1,48,34,1074824336
674,4,T1_SMS_5,161,5,42,127,1075281168
674,4,T1_SMS_5,162,1,48,30,1075282580
674,4,T1_SMS_5,163,1,48,39,1075740428
674,4,T1_SMS_5,164,5,42,127,1075781080
674,4,T1_SMS_5,165,1,48,39,1076278516
674,4,T1_SMS_5,166,5,42,127,1076280628
674,4,T1_SMS_5,167,5,42,127,1076781376
674,4,T1_SMS_5,168,1,48,29,1076818980
674,4,T1_SMS_5,169,1,48,33,1077254920
674,4,T1_SMS_5,170,5,42,127,1077281136
674,4,T1_SMS_5,171,1,48,27,1077760976
674,4,T1_SMS_5,172,5,42,127,1077780908
674,4,T1_SMS_5,173,1,48,30,1078253488
674,4,T1_SMS_5,174,5,42,127,1078280528
674,4,T1_SMS_5,175,5,42,127,1078781204
674,4,T1_SMS_5,176,1,48,32,1078789708
674,4,T1_SMS_5,177,1,48,35,1079243980
674,4,T1_SMS_5,178,5,42,127,1079280892
674,4,T1_SMS_5,179,5,42,127,1079780888
674,4,T1_SMS_5,180,1,48,26,1079788724
674,4,T1_SMS_5,181,1,48,36,1080276580
674,4,T1_SMS_5,182,5,42,127,1080280284
674,4,T1_SMS_5,183,5,42,127,1080781104
674,4,T1_SMS_5,184,1,48,25,1080781996
674,4,T1_SMS_5,185,5,42,127,1081280948
674,4,T1_SMS_5,186,1,48,32,1081286160
674,4,T1_SMS_5,187,1,48,24,1081771476
674,4,T1_SMS_5,188,5,42,127,1081780636
674,4,T1_SMS_5,189,1,48,35,1082266764
674,4,T1_SMS_5,190,5,42,127,1082281304
674,4,T1_SMS_5,191,1,48,27,1082762492
674,4,T1_SMS_5,192,5,42,127,1082780924
674,4,T1_SMS_5,193,1,48,22,1083262036
674,4,T1_SMS_5,194,5,42,127,1083280840
674,4,T1_SMS_5,195,1,48,34,1083743148
674,4,T1_SMS_5,196,5,42,127,1083780460
674,4,T1_SMS_5,197,1,48,29,1084250024
674,4,T1_SMS_5,198,5,42,127,1084281200
674,4,T1_SMS_5,199,1,48,44,1084738728
674,4,T1_SMS_5,200,5,42,127,1084780896
674,4,T1_SMS_5,201,1,48,28,1085258468
674,4,T1_SMS_5,202,5,42,127,1085280568
674,4,T1_SMS_5,203,1,48,39,1085761828
674,4,T1_SMS_5,204,5,42,127,1085781308
674,4,T1_SMS_5,205,1,48,35,1086244244
674,4,T1_SMS_5,206,5,42,127,1086281080
674,4,T1_SMS_5,207,1,48,38,1086776776
674,4,T1_SMS_5,208,5,42,127,1086780924
674,4,T1_SMS_5,209,1,48,28,1087258516
674,4,T1_SMS_5,210,5,42,127,1087280468
674,4,T1_SMS_5,211,1,48,33,1087763372
674,4,T1_SMS_5,212,5,42,127,1087781136
674,4,T1_SMS_5,213,1,48,33,1088265832
674,4,T1_SMS_5,214,5,42,127,1088280904
674,4,T1_SMS_5,215,1,48,44,1088738384
674,4,T1_SMS_5,216,5,42,127,1088780676
674,4,T1_SMS_5,217,5,42,127,1089281272
674,4,T1_SMS_5,218,1,48,32,1089289176
674,4,T1_SMS_5,219,1,48,31,1089712264
674,4,T1_SMS_5,220,5,42,127,1089781036
674,4,T1_SMS_5,221,5,42,127,1090280888
674,4,T1_SMS_5,222,1,48,30,1090297996
674,4,T1_SMS_5,223,5,42,127,1090780504
674,4,T1_SMS_5,224,1,48,28,1090812420
674,4,T1_SMS_5,225,5,42,127,1091281248
674,4,T1_SMS_5,226,1,48,28,1091299248
674,4,T1_SMS_5,227,5,42,127,1091780868
674,4,T1_SMS_5,228,1,48,33,1091806048
674,4,T1_SMS_5,229,5,42,127,1092280860
674,4,T1_SMS_5,230,1,48,26,1092302904
674,4,T1_SMS_5,231,5,42,127,1092781528
674,4,T1_SMS_5,232,1,48,28,1092795336
674,4,T1_SMS_5,233,5,42,127,1093281148
674,4,T1_SMS_5,234,1,48,21,1093337600
674,4,T1_SMS_5,235,5,42,127,1093780844
674,4,T1_SMS_5,236,1,48,32,1093797648
674,4,T1_SMS_5,237,1,48,28,1094273244
674,4,T1_SMS_5,238,5,42,127,1094280756
674,4,T1_SMS_5,239,5,42,127,1094781280
674,4,T1_SMS_5,240,1,48,27,1094797716
674,4,T1_SMS_5,241,1,48,24,1095271036
674,4,T1_SMS_5,242,5,42,127,1095280892
674,4,T1_SMS_5,243,1,48,28,1095758240
674,4,T1_SMS_5,244,5,42,127,1095780860
674,4,T1_SMS_5,245,5,42,127,1096280412
674,4,T1_SMS_5,246,1,48,34,1096291984
674,4,T1_SMS_5,247,5,42,127,1096781228
674,4,T1_SMS_5,248,1,48,33,1096794148
674,4,T1_SMS_5,249,1,48,37,1097262408
674,4,T1_SMS_5,250,5,42,127,1097281068
674,4,T1_SMS_5,251,1,48,31,1097700548
674,4,T1_SMS_5,252,5,42,127,1097780836
674,4,T1_SMS_5,253,1,48,22,1098233376
674,4,T1_SMS_5,254,5,42,127,1098281504
674,4,T1_SMS_5,255,1,48,34,1098760228
674,4,T1_SMS_5,256,5,42,127,1098781124
674,4,T1_SMS_5,257,1,48,32,1099228952
674,4,T1_SMS_5,258,5,42,127,1099280972
674,4,T1_SMS_5,0,9999,9999,9999,1034778688
674,4,T1_SMS_5,1,9999,9999,9999,1035278404
674,4,T1_SMS_5,2,9999,9999,9999,1035778096
674,4,T1_SMS_5,3,9999,9999,9999,1036278840
674,4,T1_SMS_5,4,9999,9999,9999,1036778600
674,4,T1_SMS_5,5,9999,9999,9999,1037278304
674,4,T1_SMS_5,6,9999,9999,9999,1037779036
674,4,T1_SMS_5,7,9999,9999,9999,1038278732
674,4,T1_SMS_5,8,9999,9999,9999,1038778428
674,4,T1_SMS_5,9,9999,9999,9999,1039278200
674,4,T1_SMS_5,10,9999,9999,9999,1039778864
674,4,T1_SMS_5,11,9999,9999,9999,1040278632
674,4,T1_SMS_5,12,9999,9999,9999,1040778328
674,4,T1_SMS_5,13,9999,9999,9999,1041279068
674,4,T1_SMS_5,14,9999,9999,9999,1041778764
674,4,T1_SMS_5,15,9999,9999,9999,1042278508
674,4,T1_SMS_5,16,9999,9999,9999,1042778204
674,4,T1_SMS_5,17,9999,9999,9999,1043278944
674,4,T1_SMS_5,18,9999,9999,9999,1043778640
674,4,T1_SMS_5,19,9999,9999,9999,1044278332
674,4,T1_SMS_5,20,9999,9999,9999,1044779076
674,4,T1_SMS_5,21,9999,9999,9999,1045278772
674,4,T1_SMS_5,22,9999,9999,9999,1045778540
674,4,T1_SMS_5,23,9999,9999,9999,1046278236
674,4,T1_SMS_5,24,9999,9999,9999,1046778980
674,4,T1_SMS_5,25,9999,9999,9999,1047278676
674,4,T1_SMS_5,26,9999,9999,9999,1047778372
674,4,T1_SMS_5,27,9999,9999,9999,1048278072
674,4,T1_SMS_5,28,9999,9999,9999,1048778848
674,4,T1_SMS_5,29,9999,9999,9999,1049278584
674,4,T1_SMS_5,30,9999,9999,9999,1049778280
674,4,T1_SMS_5,31,9999,9999,9999,1050279016
674,4,T1_SMS_5,32,9999,9999,9999,1050778712
674,4,T1_SMS_5,33,9999,9999,9999,1051278408
674,4,T1_SMS_5,34,9999,9999,9999,1051778104
674,4,T1_SMS_5,35,9999,9999,9999,1052278844
674,4,T1_SMS_5,36,9999,9999,9999,1052778592
674,4,T1_SMS_5,37,9999,9999,9999,1053278284
674,4,T1_SMS_5,38,9999,9999,9999,1053779028
674,4,T1_SMS_5,39,9999,9999,9999,1054278724
674,4,T1_SMS_5,40,9999,9999,9999,1054778416
674,4,T1_SMS_5,41,9999,9999,9999,1055278188
674,4,T1_SMS_5,42,9999,9999,9999,1055778916
674,4,T1_SMS_5,43,9999,9999,9999,1056278624
674,4,T1_SMS_5,44,9999,9999,9999,1056778320
674,4,T1_SMS_5,45,9999,9999,9999,1057279064
674,4,T1_SMS_5,46,9999,9999,9999,1057778760
674,4,T1_SMS_5,47,9999,9999,9999,1058278456
674,4,T1_SMS_5,48,9999,9999,9999,1058778232
674,4,T1_SMS_5,49,9999,9999,9999,1059278896
674,4,T1_SMS_5,50,9999,9999,9999,1059778660
674,4,T1_SMS_5,51,9999,9999,9999,1060278356
674,4,T1_SMS_5,52,9999,9999,9999,1060779096
674,4,T1_SMS_5,53,9999,9999,9999,1061278792
674,4,T1_SMS_5,54,9999,9999,9999,1061778488
674,4,T1_SMS_5,55,9999,9999,9999,1062278256
674,4,T1_SMS_5,56,9999,9999,9999,1062778996
674,4,T1_SMS_5,57,9999,9999,9999,1063278692
674,4,T1_SMS_5,58,9999,9999,9999,1063778360
674,4,T1_SMS_5,59,9999,9999,9999,1064278128
674,4,T1_SMS_5,60,9999,9999,9999,1064778872
674,4,T1_SMS_5,61,9999,9999,9999,1065278564
674,4,T1_SMS_5,62,9999,9999,9999,1065778260
674,4,T1_SMS_5,63,9999,9999,9999,1066279004
674,4,T1_SMS_5,64,9999,9999,9999,1066778700
674,4,T1_SMS_5,65,9999,9999,9999,1067278400
674,4,T1_SMS_5,66,9999,9999,9999,1067778160
674,4,T1_SMS_5,67,9999,9999,9999,1068278904
674,4,T1_SMS_5,68,9999,9999,9999,1068778604
674,4,T1_SMS_5,69,9999,9999,9999,1069278300
674,4,T1_SMS_5,70,9999,9999,9999,1069779044
674,4,T1_SMS_5,71,9999,9999,9999,1070278732
674,4,T1_SMS_5,72,9999,9999,9999,1070778436
674,4,T1_SMS_5,73,9999,9999,9999,1071278196
674,4,T1_SMS_5,74,9999,9999,9999,1071778872
674,4,T1_SMS_5,75,9999,9999,9999,1072278636
674,4,T1_SMS_5,76,9999,9999,9999,1072778340
674,4,T1_SMS_5,77,9999,9999,9999,1073279076
674,4,T1_SMS_5,78,9999,9999,9999,1073778776
674,4,T1_SMS_5,79,9999,9999,9999,1074278516
674,4,T1_SMS_5,80,9999,9999,9999,1074778216
674,4,T1_SMS_5,81,9999,9999,9999,1075278956
674,4,T1_SMS_5,82,9999,9999,9999,1075778644
674,4,T1_SMS_5,83,9999,9999,9999,1076278380
674,4,T1_SMS_5,84,9999,9999,9999,1076779088
674,4,T1_SMS_5,85,9999,9999,9999,1077278776
674,4,T1_SMS_5,86,9999,9999,9999,1077778548
674,4,T1_SMS_5,87,9999,9999,9999,1078278244
674,4,T1_SMS_5,88,9999,9999,9999,1078778992
674,4,T1_SMS_5,89,9999,9999,9999,1079278680
674,4,T1_SMS_5,90,9999,9999,9999,1079778380
674,4,T1_SMS_5,91,9999,9999,9999,1080278072
674,4,T1_SMS_5,92,9999,9999,9999,1080778816
674,4,T1_SMS_5,93,9999,9999,9999,1081278512
674,4,T1_SMS_5,94,9999,9999,9999,1081778276
674,4,T1_SMS_5,95,9999,9999,9999,1082279016
674,4,T1_SMS_5,96,9999,9999,9999,1082778712
674,4,T1_SMS_5,97,9999,9999,9999,1083278408
674,4,T1_SMS_5,98,9999,9999,9999,1083778100
674,4,T1_SMS_5,99,9999,9999,9999,1084278840
674,4,T1_SMS_5,100,9999,9999,9999,1084778612
674,4,T1_SMS_5,101,9999,9999,9999,1085278280
674,4,T1_SMS_5,102,9999,9999,9999,1085779024
674,4,T1_SMS_5,103,9999,9999,9999,1086278720
674,4,T1_SMS_5,104,9999,9999,9999,1086778488
674,4,T1_SMS_5,105,9999,9999,9999,1087278184
674,4,T1_SMS_5,106,9999,9999,9999,1087778924
674,4,T1_SMS_5,107,9999,9999,9999,1088278620
674,4,T1_SMS_5,108,9999,9999,9999,1088778312
674,4,T1_SMS_5,109,9999,9999,9999,1089279060
674,4,T1_SMS_5,110,9999,9999,9999,1089778748
674,4,T1_SMS_5,111,9999,9999,9999,1090278452
674,4,T1_SMS_5,112,9999,9999,9999,1090778220
674,4,T1_SMS_5,113,9999,9999,9999,1091278960
674,4,T1_SMS_5,114,9999,9999,9999,1091778656
674,4,T1_SMS_5,115,9999,9999,9999,1092278348
674,4,T1_SMS_5,116,9999,9999,9999,1092779092
674,4,T1_SMS_5,117,9999,9999,9999,1093278784
674,4,T1_SMS_5,118,9999,9999,9999,1093778480
674,4,T1_SMS_5,119,9999,9999,9999,1094278248
674,4,T1_SMS_5,120,9999,9999,9999,1094778992
674,4,T1_SMS_5,121,9999,9999,9999,1095278684
674,4,T1_SMS_5,122,9999,9999,9999,1095778424
674,4,T1_SMS_5,123,9999,9999,9999,1096278128
674,4,T1_SMS_5,124,9999,9999,9999,1096778868
674,4,T1_SMS_5,125,9999,9999,9999,1097278556
674,4,T1_SMS_5,126,9999,9999,9999,1097778252
674,4,T1_SMS_5,127,9999,9999,9999,1098278996
674,4,T1_SMS_5,128,9999,9999,9999,1098778692
674,4,T1_SMS_5,129,9999,9999,9999,1099278388
675,20,Ticks_Linear_8,0,5,42,127,1112506820
675,20,Ticks_Linear_8,1,1,48,19,1113072164
675,20,Ticks_Linear_8,2,5,42,127,1113326988
675,20,Ticks_Linear_8,3,5,42,127,1114147176
675,20,Ticks_Linear_8,4,1,48,19,1114257112
675,20,Ticks_Linear_8,5,5,42,127,1114967788
675,20,Ticks_Linear_8,6,1,48,26,1115040356
675,20,Ticks_Linear_8,7,5,42,127,1115786712
675,20,Ticks_Linear_8,8,1,48,26,1115912344
675,20,Ticks_Linear_8,9,5,42,127,1116596544
675,20,Ticks_Linear_8,10,5,42,127,1117406624
675,20,Ticks_Linear_8,11,1,48,20,1117457300
675,20,Ticks_Linear_8,12,1,48,21,1118206600
675,20,Ticks_Linear_8,13,5,42,127,1118216748
675,20,Ticks_Linear_8,14,1,48,23,1119012532
675,20,Ticks_Linear_8,15,5,42,127,1119026732
675,20,Ticks_Linear_8,16,5,42,127,1119836800
675,20,Ticks_Linear_8,17,1,48,20,1119860684
675,20,Ticks_Linear_8,18,5,42,127,1120637444
675,20,Ticks_Linear_8,19,1,48,20,1120681748
675,20,Ticks_Linear_8,20,5,42,127,1121437020
675,20,Ticks_Linear_8,21,1,48,19,1122186092
675,20,Ticks_Linear_8,22,5,42,127,1122236760
675,20,Ticks_Linear_8,23,1,48,22,1122981320
675,20,Ticks_Linear_8,24,5,42,127,1123036484
675,20,Ticks_Linear_8,25,5,42,127,1123837484
675,20,Ticks_Linear_8,26,1,48,21,1123853180
675,20,Ticks_Linear_8,27,5,42,127,1124626800
675,20,Ticks_Linear_8,28,1,48,25,1124671324
675,20,Ticks_Linear_8,29,5,42,127,1125417532
675,20,Ticks_Linear_8,30,1,48,23,1125430840
675,20,Ticks_Linear_8,31,5,42,127,1126206700
675,20,Ticks_Linear_8,32,1,48,19,1126256572
675,20,Ticks_Linear_8,33,5,42,127,1126997660
675,20,Ticks_Linear_8,34,1,48,21,1127054192
675,20,Ticks_Linear_8,35,1,48,25,1127769848
675,20,Ticks_Linear_8,36,5,42,127,1127786844
675,20,Ticks_Linear_8,37,1,48,27,1128558672
675,20,Ticks_Linear_8,38,5,42,127,1128567096
675,20,Ticks_Linear_8,39,5,42,127,1129346608
675,20,Ticks_Linear_8,40,1,48,23,1129351820
675,20,Ticks_Linear_8,41,1,48,24,1130115208
675,20,Ticks_Linear_8,42,5,42,127,1130126628
675,20,Ticks_Linear_8,43,1,48,24,1130890292
675,20,Ticks_Linear_8,44,5,42,127,1130906956
675,20,Ticks_Linear_8,45,1,48,25,1131674352
675,20,Ticks_Linear_8,46,5,42,127,1131687508
675,20,Ticks_Linear_8,47,5,42,127,1132457508
675,20,Ticks_Linear_8,48,1,48,21,1132492524
675,20,Ticks_Linear_8,49,1,48,27,1133201016
675,20,Ticks_Linear_8,50,5,42,127,1133227420
675,20,Ticks_Linear_8,51,1,48,21,1133988684
675,20,Ticks_Linear_8,52,5,42,127,1133997640
675,20,Ticks_Linear_8,53,1,48,23,1134711496
675,20,Ticks_Linear_8,54,5,42,127,1134776768
675,20,Ticks_Linear_8,55,1,48,21,1135504936
675,20,Ticks_Linear_8,56,5,42,127,1135546692
675,20,Ticks_Linear_8,57,1,48,28,1136271028
675,20,Ticks_Linear_8,58,5,42,127,1136306424
675,20,Ticks_Linear_8,59,1,48,27,1137060420
675,20,Ticks_Linear_8,60,5,42,127,1137067724
675,20,Ticks_Linear_8,61,5,42,127,1137827468
675,20,Ticks_Linear_8,62,1,48,34,1137829992
675,20,Ticks_Linear_8,63,5,42,127,1138586980
675,20,Ticks_Linear_8,64,1,48,19,1138653224
675,20,Ticks_Linear_8,65,5,42,127,1139346788
675,20,Ticks_Linear_8,66,1,48,29,1139368112
675,20,Ticks_Linear_8,67,1,48,29,1140087604
675,20,Ticks_Linear_8,68,5,42,127,1140097308
675,20,Ticks_Linear_8,69,1,48,26,1140838628
675,20,Ticks_Linear_8,70,5,42,127,1140846932
675,20,Ticks_Linear_8,71,1,48,23,1141596684
675,20,Ticks_Linear_8,72,5,42,127,1141597948
675,20,Ticks_Linear_8,73,5,42,127,1142347356
675,20,Ticks_Linear_8,74,1,48,24,1142358044
675,20,Ticks_Linear_8,75,5,42,127,1143096608
675,20,Ticks_Linear_8,76,1,48,28,1143103312
675,20,Ticks_Linear_8,77,5,42,127,1143837092
675,20,Ticks_Linear_8,78,1,48,21,1143905444
675,20,Ticks_Linear_8,79,5,42,127,1144577576
675,20,Ticks_Linear_8,80,1,48,22,1144653628
675,20,Ticks_Linear_8,81,5,42,127,1145316716
675,20,Ticks_Linear_8,82,1,48,22,1145376600
675,20,Ticks_Linear_8,83,5,42,127,1146057204
675,20,Ticks_Linear_8,84,1,48,28,1146072228
675,20,Ticks_Linear_8,85,5,42,127,1146797392
675,20,Ticks_Linear_8,86,1,48,27,1146811668
675,20,Ticks_Linear_8,87,1,48,27,1147535624
675,20,Ticks_Linear_8,88,5,42,127,1147537048
675,20,Ticks_Linear_8,89,5,42,127,1148266984
675,20,Ticks_Linear_8,90,1,48,28,1148268024
675,20,Ticks_Linear_8,91,1,48,30,1148991072
675,20,Ticks_Linear_8,92,5,42,127,1148996884
675,20,Ticks_Linear_8,93,1,48,29,1149684152
675,20,Ticks_Linear_8,94,5,42,127,1149727112
675,20,Ticks_Linear_8,95,1,48,29,1150441572
675,20,Ticks_Linear_8,96,5,42,127,1150457488
675,20,Ticks_Linear_8,97,5,42,127,1151177020
675,20,Ticks_Linear_8,98,1,48,32,1151179032
675,20,Ticks_Linear_8,99,5,42,127,1151896840
675,20,Ticks_Linear_8,100,1,48,32,1151927068
675,20,Ticks_Linear_8,101,5,42,127,1152616732
675,20,Ticks_Linear_8,102,1,48,28,1152661332
675,20,Ticks_Linear_8,103,5,42,127,1153336676
675,20,Ticks_Linear_8,104,1,48,31,1153359860
675,20,Ticks_Linear_8,105,5,42,127,1154056496
675,20,Ticks_Linear_8,106,1,48,28,1154076016
675,20,Ticks_Linear_8,107,5,42,127,1154767248
675,20,Ticks_Linear_8,108,1,48,29,1154777560
675,20,Ticks_Linear_8,109,5,42,127,1155476884
675,20,Ticks_Linear_8,110,1,48,27,1155542972
675,20,Ticks_Linear_8,111,5,42,127,1156186492
675,20,Ticks_Linear_8,112,1,48,29,1156252688
675,20,Ticks_Linear_8,113,5,42,127,1156897248
675,20,Ticks_Linear_8,114,1,48,26,1156965220
675,20,Ticks_Linear_8,115,5,42,127,1157606660
675,20,Ticks_Linear_8,116,1,48,21,1157668340
675,20,Ticks_Linear_8,117,5,42,127,1158307304
675,20,Ticks_Linear_8,118,1,48,32,1158328848
675,20,Ticks_Linear_8,119,5,42,127,1159006504
675,20,Ticks_Linear_8,120,1,48,24,1159063260
675,20,Ticks_Linear_8,121,5,42,127,1159707224
675,20,Ticks_Linear_8,122,1,48,25,1159746748
675,20,Ticks_Linear_8,123,1,48,28,1160402956
675,20,Ticks_Linear_8,124,5,42,127,1160407416
675,20,Ticks_Linear_8,125,5,42,127,1161106800
675,20,Ticks_Linear_8,126,1,48,29,1161137184
675,20,Ticks_Linear_8,127,5,42,127,1161797236
675,20,Ticks_Linear_8,128,1,48,31,1161806128
675,20,Ticks_Linear_8,129,5,42,127,1162487404
675,20,Ticks_Linear_8,130,1,48,25,1162541964
675,20,Ticks_Linear_8,131,5,42,127,1163177344
675,20,Ticks_Linear_8,132,1,48,27,1163190348
675,20,Ticks_Linear_8,133,5,42,127,1163866584
675,20,Ticks_Linear_8,134,1,48,29,1163884100
675,20,Ticks_Linear_8,135,5,42,127,1164556524
675,20,Ticks_Linear_8,136,1,48,25,1164586528
675,20,Ticks_Linear_8,137,5,42,127,1165236648
675,20,Ticks_Linear_8,138,1,48,25,1165250924
675,20,Ticks_Linear_8,139,5,42,127,1165916528
675,20,Ticks_Linear_8,140,1,48,27,1166006168
675,20,Ticks_Linear_8,141,5,42,127,1166596432
675,20,Ticks_Linear_8,142,1,48,17,1166656240
675,20,Ticks_Linear_8,143,1,48,28,1167273360
675,20,Ticks_Linear_8,144,5,42,127,1167277524
675,20,Ticks_Linear_8,145,5,42,127,1167966548
675,20,Ticks_Linear_8,146,1,48,35,1167982192
675,20,Ticks_Linear_8,147,5,42,127,1168637316
675,20,Ticks_Linear_8,148,1,48,37,1168650092
675,20,Ticks_Linear_8,149,5,42,127,1169307184
675,20,Ticks_Linear_8,150,1,48,26,1169388188
675,20,Ticks_Linear_8,151,5,42,127,1169976728
675,20,Ticks_Linear_8,152,1,48,16,1170088240
675,20,Ticks_Linear_8,153,5,42,127,1170647496
675,20,Ticks_Linear_8,154,1,48,26,1170655416
675,20,Ticks_Linear_8,155,5,42,127,1171317292
675,20,Ticks_Linear_8,156,1,48,29,1171367816
675,20,Ticks_Linear_8,157,5,42,127,1171976428
675,20,Ticks_Linear_8,158,1,48,29,1172001336
675,20,Ticks_Linear_8,159,5,42,127,1172637084
675,20,Ticks_Linear_8,160,1,48,29,1172666940
675,20,Ticks_Linear_8,161,5,42,127,1173296520
675,20,Ticks_Linear_8,162,1,48,28,1173309220
675,20,Ticks_Linear_8,163,5,42,127,1173957100
675,20,Ticks_Linear_8,164,1,48,30,1173981488
675,20,Ticks_Linear_8,165,5,42,127,1174616388
675,20,Ticks_Linear_8,166,1,48,29,1174655332
675,20,Ticks_Linear_8,167,5,42,127,1175266784
675,20,Ticks_Linear_8,168,1,48,28,1175290052
675,20,Ticks_Linear_8,169,1,48,22,1175911964
675,20,Ticks_Linear_8,170,5,42,127,1175916952
675,20,Ticks_Linear_8,171,5,42,127,1176567256
675,20,Ticks_Linear_8,172,1,48,29,1176607592
675,20,Ticks_Linear_8,173,5,42,127,1177217352
675,20,Ticks_Linear_8,174,1,48,30,1177223832
675,20,Ticks_Linear_8,175,1,48,24,1177858692
675,20,Ticks_Linear_8,176,5,42,127,1177866600
675,20,Ticks_Linear_8,177,5,42,127,1178506596
675,20,Ticks_Linear_8,178,1,48,26,1178547156
675,20,Ticks_Linear_8,179,1,48,28,1179135800
675,20,Ticks_Linear_8,180,5,42,127,1179146552
675,20,Ticks_Linear_8,181,5,42,127,1179786548
675,20,Ticks_Linear_8,182,1,48,23,1179829584
675,20,Ticks_Linear_8,183,1,48,31,1180413648
675,20,Ticks_Linear_8,184,5,42,127,1180426580
675,20,Ticks_Linear_8,185,5,42,127,1181066728
675,20,Ticks_Linear_8,186,1,48,25,1181092160
675,20,Ticks_Linear_8,187,1,48,32,1181695884
675,20,Ticks_Linear_8,188,5,42,127,1181697472
675,20,Ticks_Linear_8,189,1,48,27,1182315780
675,20,Ticks_Linear_8,190,5,42,127,1182327200
675,20,Ticks_Linear_8,191,1,48,30,1182933268
675,20,Ticks_Linear_8,192,5,42,127,1182957128
675,20,Ticks_Linear_8,193,5,42,127,1183586988
675,20,Ticks_Linear_8,194,1,48,24,1183600464
675,20,Ticks_Linear_8,195,1,48,27,1184195928
675,20,Ticks_Linear_8,196,5,42,127,1184216416
675,20,Ticks_Linear_8,197,5,42,127,1184837136
675,20,Ticks_Linear_8,198,1,48,32,1184845428
675,20,Ticks_Linear_8,199,5,42,127,1185456384
675,20,Ticks_Linear_8,200,1,48,27,1185472152
675,20,Ticks_Linear_8,201,1,48,20,1186072476
675,20,Ticks_Linear_8,202,5,42,127,1186077168
675,20,Ticks_Linear_8,203,1,48,29,1186661144
675,20,Ticks_Linear_8,204,5,42,127,1186696464
675,20,Ticks_Linear_8,205,5,42,127,1187317040
675,20,Ticks_Linear_8,206,1,48,23,1187330716
675,20,Ticks_Linear_8,207,1,48,29,1187918736
675,20,Ticks_Linear_8,208,5,42,127,1187927316
675,20,Ticks_Linear_8,209,5,42,127,1188536684
675,20,Ticks_Linear_8,210,1,48,30,1188541368
675,20,Ticks_Linear_8,211,5,42,127,1189147216
675,20,Ticks_Linear_8,212,1,48,28,1189185012
675,20,Ticks_Linear_8,213,5,42,127,1189757248
675,20,Ticks_Linear_8,214,1,48,28,1189802300
675,20,Ticks_Linear_8,215,5,42,127,1190366808
675,20,Ticks_Linear_8,216,1,48,23,1190420248
675,20,Ticks_Linear_8,217,5,42,127,1190967080
675,20,Ticks_Linear_8,218,1,48,22,1191017560
675,20,Ticks_Linear_8,219,5,42,127,1191566708
675,20,Ticks_Linear_8,220,1,48,29,1191599032
675,20,Ticks_Linear_8,221,1,48,32,1192164936
675,20,Ticks_Linear_8,222,5,42,127,1192166752
675,20,Ticks_Linear_8,223,5,42,127,1192767104
675,20,Ticks_Linear_8,224,1,48,24,1192834808
675,20,Ticks_Linear_8,225,1,48,25,1193359864
675,20,Ticks_Linear_8,226,5,42,127,1193366948
675,20,Ticks_Linear_8,227,5,42,127,1193956968
675,20,Ticks_Linear_8,228,1,48,26,1193964664
675,20,Ticks_Linear_8,229,1,48,27,1194537500
675,20,Ticks_Linear_8,230,5,42,127,1194546528
675,20,Ticks_Linear_8,231,1,48,29,1195109864
675,20,Ticks_Linear_8,232,5,42,127,1195137316
675,20,Ticks_Linear_8,233,1,48,27,1195709912
675,20,Ticks_Linear_8,234,5,42,127,1195727328
675,20,Ticks_Linear_8,235,1,48,31,1196300676
675,20,Ticks_Linear_8,236,5,42,127,1196316972
675,20,Ticks_Linear_8,237,1,48,32,1196859388
675,20,Ticks_Linear_8,238,5,42,127,1196896876
675,20,Ticks_Linear_8,239,5,42,127,1197477112
675,20,Ticks_Linear_8,240,1,48,30,1197505100
675,20,Ticks_Linear_8,241,5,42,127,1198056792
675,20,Ticks_Linear_8,242,1,48,27,1198094124
675,20,Ticks_Linear_8,243,1,48,32,1198629908
675,20,Ticks_Linear_8,244,5,42,127,1198637436
675,20,Ticks_Linear_8,245,5,42,127,1199227260
675,20,Ticks_Linear_8,246,1,48,27,1199246856
675,20,Ticks_Linear_8,247,5,42,127,1199796532
675,20,Ticks_Linear_8,248,1,48,22,1199837168
675,20,Ticks_Linear_8,249,5,42,127,1200366996
675,20,Ticks_Linear_8,250,1,48,24,1200440208
675,20,Ticks_Linear_8,251,5,42,127,1200937316
675,20,Ticks_Linear_8,252,1,48,23,1200943724
675,20,Ticks_Linear_8,253,5,42,127,1201506812
675,20,Ticks_Linear_8,254,1,48,24,1201549020
675,20,Ticks_Linear_8,255,5,42,127,1202077056
675,20,Ticks_Linear_8,256,1,48,23,1202117920
675,20,Ticks_Linear_8,257,5,42,127,1202637040
675,20,Ticks_Linear_8,258,1,48,26,1202676700
675,20,Ticks_Linear_8,259,5,42,127,1203197248
675,20,Ticks_Linear_8,260,1,48,21,1203256232
675,20,Ticks_Linear_8,261,5,42,127,1203757380
675,20,Ticks_Linear_8,262,1,48,23,1203796448
675,20,Ticks_Linear_8,263,5,42,127,1204326824
675,20,Ticks_Linear_8,264,1,48,30,1204368960
675,20,Ticks_Linear_8,265,5,42,127,1204887032
675,20,Ticks_Linear_8,266,1,48,20,1204937860
675,20,Ticks_Linear_8,267,5,42,127,1205436760
675,20,Ticks_Linear_8,268,1,48,22,1205495668
675,20,Ticks_Linear_8,269,5,42,127,1205986932
675,20,Ticks_Linear_8,270,1,48,26,1206006832
675,20,Ticks_Linear_8,271,5,42,127,1206536436
675,20,Ticks_Linear_8,272,1,48,34,1206547268
675,20,Ticks_Linear_8,273,5,42,127,1207086532
675,20,Ticks_Linear_8,274,1,48,27,1207091068
675,20,Ticks_Linear_8,275,1,48,34,1207606480
675,20,Ticks_Linear_8,276,5,42,127,1207637372
675,20,Ticks_Linear_8,277,5,42,127,1208177020
675,20,Ticks_Linear_8,278,1,48,23,1208178060
675,20,Ticks_Linear_8,279,5,42,127,1208716856
675,20,Ticks_Linear_8,280,1,48,26,1208750752
675,20,Ticks_Linear_8,281,5,42,127,1209257296
675,20,Ticks_Linear_8,282,1,48,25,1209304976
675,20,Ticks_Linear_8,283,5,42,127,1209796988
675,20,Ticks_Linear_8,284,1,48,27,1209822716
675,20,Ticks_Linear_8,285,5,42,127,1210336676
675,20,Ticks_Linear_8,286,1,48,28,1210385556
675,20,Ticks_Linear_8,287,5,42,127,1210867004
675,20,Ticks_Linear_8,288,1,48,20,1210936100
675,20,Ticks_Linear_8,289,5,42,127,1211396584
675,20,Ticks_Linear_8,290,1,48,24,1211468004
675,20,Ticks_Linear_8,291,5,42,127,1211926912
675,20,Ticks_Linear_8,292,1,48,26,1211955572
675,20,Ticks_Linear_8,293,1,48,34,1212440040
675,20,Ticks_Linear_8,294,5,42,127,1212457384
675,20,Ticks_Linear_8,295,1,48,28,1212957796
675,20,Ticks_Linear_8,296,5,42,127,1212986888
675,20,Ticks_Linear_8,297,1,48,30,1213499804
675,20,Ticks_Linear_8,298,5,42,127,1213507108
675,20,Ticks_Linear_8,299,1,48,21,1214013272
675,20,Ticks_Linear_8,300,5,42,127,1214027180
675,20,Ticks_Linear_8,301,1,48,32,1214510584
675,20,Ticks_Linear_8,302,5,42,127,1214547248
675,20,Ticks_Linear_8,303,1,48,27,1215000024
675,20,Ticks_Linear_8,304,5,42,127,1215066344
675,20,Ticks_Linear_8,305,5,42,127,1215586868
675,20,Ticks_Linear_8,306,1,48,24,1215602212
675,20,Ticks_Linear_8,307,5,42,127,1216096752
675,20,Ticks_Linear_8,308,1,48,29,1216202788
675,20,Ticks_Linear_8,309,5,42,127,1216606788
675,20,Ticks_Linear_8,310,1,48,24,1216653956
675,20,Ticks_Linear_8,311,5,42,127,1217116820
675,20,Ticks_Linear_8,312,1,48,25,1217178680
675,20,Ticks_Linear_8,313,5,42,127,1217626780
675,20,Ticks_Linear_8,314,1,48,27,1217628272
675,20,Ticks_Linear_8,315,1,48,24,1218131668
675,20,Ticks_Linear_8,316,5,42,127,1218136436
675,20,Ticks_Linear_8,317,5,42,127,1218637116
675,20,Ticks_Linear_8,318,1,48,21,1218648844
675,20,Ticks_Linear_8,319,5,42,127,1219137040
675,20,Ticks_Linear_8,320,1,48,27,1219144884
675,20,Ticks_Linear_8,321,5,42,127,1219636812
675,20,Ticks_Linear_8,322,1,48,24,1219651236
675,20,Ticks_Linear_8,323,1,48,28,1220119536
675,20,Ticks_Linear_8,324,5,42,127,1220137328
675,20,Ticks_Linear_8,325,5,42,127,1220636964
675,20,Ticks_Linear_8,326,1,48,20,1220646376
675,20,Ticks_Linear_8,327,1,48,27,1221112196
675,20,Ticks_Linear_8,328,5,42,127,1221126768
675,20,Ticks_Linear_8,329,1,48,27,1221594068
675,20,Ticks_Linear_8,330,5,42,127,1221616960
675,20,Ticks_Linear_8,331,1,48,27,1222068320
675,20,Ticks_Linear_8,332,5,42,127,1222106624
675,20,Ticks_Linear_8,333,1,48,28,1222569808
675,20,Ticks_Linear_8,334,5,42,127,1222596964
675,20,Ticks_Linear_8,335,5,42,127,1223086560
675,20,Ticks_Linear_8,336,1,48,18,1223094236
675,20,Ticks_Linear_8,0,9999,9999,9999,1112504444
675,20,Ticks_Linear_8,1,9999,9999,9999,1113324612
675,20,Ticks_Linear_8,2,9999,9999,9999,1114144872
675,20,Ticks_Linear_8,3,9999,9999,9999,1114965116
675,20,Ticks_Linear_8,4,9999,9999,9999,1115784264
675,20,Ticks_Linear_8,5,9999,9999,9999,1116594244
675,20,Ticks_Linear_8,6,9999,9999,9999,1117404248
675,20,Ticks_Linear_8,7,9999,9999,9999,1118214224
675,20,Ticks_Linear_8,8,9999,9999,9999,1119024208
675,20,Ticks_Linear_8,9,9999,9999,9999,1119834200
675,20,Ticks_Linear_8,10,9999,9999,9999,1120634996
675,20,Ticks_Linear_8,11,9999,9999,9999,1121434720
675,20,Ticks_Linear_8,12,9999,9999,9999,1122234460
675,20,Ticks_Linear_8,13,9999,9999,9999,1123034184
675,20,Ticks_Linear_8,14,9999,9999,9999,1123834960
675,20,Ticks_Linear_8,15,9999,9999,9999,1124624496
675,20,Ticks_Linear_8,16,9999,9999,9999,1125415008
675,20,Ticks_Linear_8,17,9999,9999,9999,1126204472
675,20,Ticks_Linear_8,18,9999,9999,9999,1126995060
675,20,Ticks_Linear_8,19,9999,9999,9999,1127784544
675,20,Ticks_Linear_8,20,9999,9999,9999,1128564796
675,20,Ticks_Linear_8,21,9999,9999,9999,1129344084
675,20,Ticks_Linear_8,22,9999,9999,9999,1130124404
675,20,Ticks_Linear_8,23,9999,9999,9999,1130904656
675,20,Ticks_Linear_8,24,9999,9999,9999,1131684984
675,20,Ticks_Linear_8,25,9999,9999,9999,1132454984
675,20,Ticks_Linear_8,26,9999,9999,9999,1133225044
675,20,Ticks_Linear_8,27,9999,9999,9999,1133995116
675,20,Ticks_Linear_8,28,9999,9999,9999,1134774392
675,20,Ticks_Linear_8,29,9999,9999,9999,1135544388
675,20,Ticks_Linear_8,30,9999,9999,9999,1136304200
675,20,Ticks_Linear_8,31,9999,9999,9999,1137065052
675,20,Ticks_Linear_8,32,9999,9999,9999,1137824868
675,20,Ticks_Linear_8,33,9999,9999,9999,1138584676
675,20,Ticks_Linear_8,34,9999,9999,9999,1139344488
675,20,Ticks_Linear_8,35,9999,9999,9999,1140095080
675,20,Ticks_Linear_8,36,9999,9999,9999,1140844628
675,20,Ticks_Linear_8,37,9999,9999,9999,1141594232
675,20,Ticks_Linear_8,38,9999,9999,9999,1142344832
675,20,Ticks_Linear_8,39,9999,9999,9999,1143094380
675,20,Ticks_Linear_8,40,9999,9999,9999,1143834716
675,20,Ticks_Linear_8,41,9999,9999,9999,1144575052
675,20,Ticks_Linear_8,42,9999,9999,9999,1145314416
675,20,Ticks_Linear_8,43,9999,9999,9999,1146054752
675,20,Ticks_Linear_8,44,9999,9999,9999,1146795092
675,20,Ticks_Linear_8,45,9999,9999,9999,1147534456
675,20,Ticks_Linear_8,46,9999,9999,9999,1148264536
675,20,Ticks_Linear_8,47,9999,9999,9999,1148994656
675,20,Ticks_Linear_8,48,9999,9999,9999,1149724736
675,20,Ticks_Linear_8,49,9999,9999,9999,1150454892
675,20,Ticks_Linear_8,50,9999,9999,9999,1151174716
675,20,Ticks_Linear_8,51,9999,9999,9999,1151894612
675,20,Ticks_Linear_8,52,9999,9999,9999,1152614504
675,20,Ticks_Linear_8,53,9999,9999,9999,1153334372
675,20,Ticks_Linear_8,54,9999,9999,9999,1154054268
675,20,Ticks_Linear_8,55,9999,9999,9999,1154764872
675,20,Ticks_Linear_8,56,9999,9999,9999,1155474508
675,20,Ticks_Linear_8,57,9999,9999,9999,1156184192
675,20,Ticks_Linear_8,58,9999,9999,9999,1156894796
675,20,Ticks_Linear_8,59,9999,9999,9999,1157604432
675,20,Ticks_Linear_8,60,9999,9999,9999,1158304856
675,20,Ticks_Linear_8,61,9999,9999,9999,1159004280
675,20,Ticks_Linear_8,62,9999,9999,9999,1159704700
675,20,Ticks_Linear_8,63,9999,9999,9999,1160405116
675,20,Ticks_Linear_8,64,9999,9999,9999,1161104496
675,20,Ticks_Linear_8,65,9999,9999,9999,1161794640
675,20,Ticks_Linear_8,66,9999,9999,9999,1162484804
675,20,Ticks_Linear_8,67,9999,9999,9999,1163174968
675,20,Ticks_Linear_8,68,9999,9999,9999,1163864136
675,20,Ticks_Linear_8,69,9999,9999,9999,1164554296
675,20,Ticks_Linear_8,70,9999,9999,9999,1165234276
675,20,Ticks_Linear_8,71,9999,9999,9999,1165914228
675,20,Ticks_Linear_8,72,9999,9999,9999,1166594132
675,20,Ticks_Linear_8,73,9999,9999,9999,1167275076
675,20,Ticks_Linear_8,74,9999,9999,9999,1167964248
675,20,Ticks_Linear_8,75,9999,9999,9999,1168634940
675,20,Ticks_Linear_8,76,9999,9999,9999,1169304660
675,20,Ticks_Linear_8,77,9999,9999,9999,1169974352
675,20,Ticks_Linear_8,78,9999,9999,9999,1170645044
675,20,Ticks_Linear_8,79,9999,9999,9999,1171314764
675,20,Ticks_Linear_8,80,9999,9999,9999,1171974204
675,20,Ticks_Linear_8,81,9999,9999,9999,1172634708
675,20,Ticks_Linear_8,82,9999,9999,9999,1173294144
675,20,Ticks_Linear_8,83,9999,9999,9999,1173954652
675,20,Ticks_Linear_8,84,9999,9999,9999,1174614088
675,20,Ticks_Linear_8,85,9999,9999,9999,1175264336
675,20,Ticks_Linear_8,86,9999,9999,9999,1175914576
675,20,Ticks_Linear_8,87,9999,9999,9999,1176564804
675,20,Ticks_Linear_8,88,9999,9999,9999,1177215052
675,20,Ticks_Linear_8,89,9999,9999,9999,1177864296
675,20,Ticks_Linear_8,90,9999,9999,9999,1178504292
675,20,Ticks_Linear_8,91,9999,9999,9999,1179144252
675,20,Ticks_Linear_8,92,9999,9999,9999,1179784248
675,20,Ticks_Linear_8,93,9999,9999,9999,1180424280
675,20,Ticks_Linear_8,94,9999,9999,9999,1181064276
675,20,Ticks_Linear_8,95,9999,9999,9999,1181695100
675,20,Ticks_Linear_8,96,9999,9999,9999,1182324828
675,20,Ticks_Linear_8,97,9999,9999,9999,1182954604
675,20,Ticks_Linear_8,98,9999,9999,9999,1183584316
675,20,Ticks_Linear_8,99,9999,9999,9999,1184214112
675,20,Ticks_Linear_8,100,9999,9999,9999,1184834612
675,20,Ticks_Linear_8,101,9999,9999,9999,1185454156
675,20,Ticks_Linear_8,102,9999,9999,9999,1186074716
675,20,Ticks_Linear_8,103,9999,9999,9999,1186694240
675,20,Ticks_Linear_8,104,9999,9999,9999,1187314812
675,20,Ticks_Linear_8,105,9999,9999,9999,1187925088
675,20,Ticks_Linear_8,106,9999,9999,9999,1188534380
675,20,Ticks_Linear_8,107,9999,9999,9999,1189144688
675,20,Ticks_Linear_8,108,9999,9999,9999,1189754948
675,20,Ticks_Linear_8,109,9999,9999,9999,1190364284
675,20,Ticks_Linear_8,110,9999,9999,9999,1190964332
675,20,Ticks_Linear_8,111,9999,9999,9999,1191564408
675,20,Ticks_Linear_8,112,9999,9999,9999,1192164472
675,20,Ticks_Linear_8,113,9999,9999,9999,1192764504
675,20,Ticks_Linear_8,114,9999,9999,9999,1193364572
675,20,Ticks_Linear_8,115,9999,9999,9999,1193954368
675,20,Ticks_Linear_8,116,9999,9999,9999,1194544228
675,20,Ticks_Linear_8,117,9999,9999,9999,1195135088
675,20,Ticks_Linear_8,118,9999,9999,9999,1195724880
675,20,Ticks_Linear_8,119,9999,9999,9999,1196314744
675,20,Ticks_Linear_8,120,9999,9999,9999,1196894276
675,20,Ticks_Linear_8,121,9999,9999,9999,1197474884
675,20,Ticks_Linear_8,122,9999,9999,9999,1198054492
675,20,Ticks_Linear_8,123,9999,9999,9999,1198635060
675,20,Ticks_Linear_8,124,9999,9999,9999,1199224956
675,20,Ticks_Linear_8,125,9999,9999,9999,1199794304
675,20,Ticks_Linear_8,126,9999,9999,9999,1200364620
675,20,Ticks_Linear_8,127,9999,9999,9999,1200935012
675,20,Ticks_Linear_8,128,9999,9999,9999,1201504360
675,20,Ticks_Linear_8,129,9999,9999,9999,1202074676
675,20,Ticks_Linear_8,130,9999,9999,9999,1202634812
675,20,Ticks_Linear_8,131,9999,9999,9999,1203194944
675,20,Ticks_Linear_8,132,9999,9999,9999,1203755076
675,20,Ticks_Linear_8,133,9999,9999,9999,1204324448
675,20,Ticks_Linear_8,134,9999,9999,9999,1204884584
675,20,Ticks_Linear_8,135,9999,9999,9999,1205434460
675,20,Ticks_Linear_8,136,9999,9999,9999,1205984332
675,20,Ticks_Linear_8,137,9999,9999,9999,1206534208
675,20,Ticks_Linear_8,138,9999,9999,9999,1207084156
675,20,Ticks_Linear_8,139,9999,9999,9999,1207635068
675,20,Ticks_Linear_8,140,9999,9999,9999,1208174716
675,20,Ticks_Linear_8,141,9999,9999,9999,1208714332
675,20,Ticks_Linear_8,142,9999,9999,9999,1209254992
675,20,Ticks_Linear_8,143,9999,9999,9999,1209794684
675,20,Ticks_Linear_8,144,9999,9999,9999,1210334300
675,20,Ticks_Linear_8,145,9999,9999,9999,1210864704
675,20,Ticks_Linear_8,146,9999,9999,9999,1211394136
675,20,Ticks_Linear_8,147,9999,9999,9999,1211924536
675,20,Ticks_Linear_8,148,9999,9999,9999,1212455008
675,20,Ticks_Linear_8,149,9999,9999,9999,1212984440
675,20,Ticks_Linear_8,150,9999,9999,9999,1213504584
675,20,Ticks_Linear_8,151,9999,9999,9999,1214024800
675,20,Ticks_Linear_8,152,9999,9999,9999,1214545020
675,20,Ticks_Linear_8,153,9999,9999,9999,1215064120
675,20,Ticks_Linear_8,154,9999,9999,9999,1215584344
675,20,Ticks_Linear_8,155,9999,9999,9999,1216094304
675,20,Ticks_Linear_8,156,9999,9999,9999,1216604260
675,20,Ticks_Linear_8,157,9999,9999,9999,1217114220
675,20,Ticks_Linear_8,158,9999,9999,9999,1217624180
675,20,Ticks_Linear_8,159,9999,9999,9999,1218134136
675,20,Ticks_Linear_8,160,9999,9999,9999,1218634812
675,20,Ticks_Linear_8,161,9999,9999,9999,1219134588
675,20,Ticks_Linear_8,162,9999,9999,9999,1219634288
675,20,Ticks_Linear_8,163,9999,9999,9999,1220135028
675,20,Ticks_Linear_8,164,9999,9999,9999,1220634736
675,20,Ticks_Linear_8,165,9999,9999,9999,1221124172
675,20,Ticks_Linear_8,166,9999,9999,9999,1221614660
675,20,Ticks_Linear_8,167,9999,9999,9999,1222104176
675,20,Ticks_Linear_8,168,9999,9999,9999,1222594664
675,20,Ticks_Linear_8,169,9999,9999,9999,1223084112
676,21,Ticks_Linear_5,0,5,42,127,1233636684
676,21,Ticks_Linear_5,1,5,42,127,1234116932
676,21,Ticks_Linear_5,2,1,48,20,1234153440
676,21,Ticks_Linear_5,3,5,42,127,1234597308
676,21,Ticks_Linear_5,4,1,48,27,1234617880
676,21,Ticks_Linear_5,5,5,42,127,1235076420
676,21,Ticks_Linear_5,6,1,48,37,1235077384
676,21,Ticks_Linear_5,7,5,42,127,1235556648
676,21,Ticks_Linear_5,8,1,48,38,1235558660
676,21,Ticks_Linear_5,9,1,48,37,1236031708
676,21,Ticks_Linear_5,10,5,42,127,1236047176
676,21,Ticks_Linear_5,11,1,48,32,1236504212
676,21,Ticks_Linear_5,12,5,42,127,1236536764
676,21,Ticks_Linear_5,13,1,48,29,1237000700
676,21,Ticks_Linear_5,14,5,42,127,1237027104
676,21,Ticks_Linear_5,15,1,48,36,1237490888
676,21,Ticks_Linear_5,16,5,42,127,1237516692
676,21,Ticks_Linear_5,17,1,48,37,1237979580
676,21,Ticks_Linear_5,18,5,42,127,1238007032
676,21,Ticks_Linear_5,19,1,48,32,1238500624
676,21,Ticks_Linear_5,20,5,42,127,1238506808
676,21,Ticks_Linear_5,21,1,48,31,1238960852
676,21,Ticks_Linear_5,22,5,42,127,1239006656
676,21,Ticks_Linear_5,23,5,42,127,1239507260
676,21,Ticks_Linear_5,24,1,48,24,1239508224
676,21,Ticks_Linear_5,25,1,48,24,1239984896
676,21,Ticks_Linear_5,26,5,42,127,1240006952
676,21,Ticks_Linear_5,27,1,48,29,1240484360
676,21,Ticks_Linear_5,28,5,42,127,1240506804
676,21,Ticks_Linear_5,29,1,48,32,1240957564
676,21,Ticks_Linear_5,30,5,42,127,1241016764
676,21,Ticks_Linear_5,31,5,42,127,1241526580
676,21,Ticks_Linear_5,32,1,48,27,1241532616
676,21,Ticks_Linear_5,33,5,42,127,1242036764
676,21,Ticks_Linear_5,34,1,48,20,1242131468
676,21,Ticks_Linear_5,35,5,42,127,1242546720
676,21,Ticks_Linear_5,36,1,48,21,1242562720
676,21,Ticks_Linear_5,37,5,42,127,1243056608
676,21,Ticks_Linear_5,38,1,48,29,1243059652
676,21,Ticks_Linear_5,39,1,48,29,1243564796
676,21,Ticks_Linear_5,40,5,42,127,1243576668
676,21,Ticks_Linear_5,41,1,48,28,1244075284
676,21,Ticks_Linear_5,42,5,42,127,1244096812
676,21,Ticks_Linear_5,43,5,42,127,1244617184
676,21,Ticks_Linear_5,44,1,48,19,1244620080
676,21,Ticks_Linear_5,45,5,42,127,1245137476
676,21,Ticks_Linear_5,46,1,48,32,1245555976
676,21,Ticks_Linear_5,47,5,42,127,1245656424
676,21,Ticks_Linear_5,48,1,48,32,1246139244
676,21,Ticks_Linear_5,49,5,42,127,1246186840
676,21,Ticks_Linear_5,50,5,42,127,1246717324
676,21,Ticks_Linear_5,51,1,48,29,1246719264
676,21,Ticks_Linear_5,52,5,42,127,1247246608
676,21,Ticks_Linear_5,53,1,48,24,1247289864
676,21,Ticks_Linear_5,54,5,42,127,1247777156
676,21,Ticks_Linear_5,55,1,48,26,1247816596
676,21,Ticks_Linear_5,56,1,48,26,1248295384
676,21,Ticks_Linear_5,57,5,42,127,1248306656
676,21,Ticks_Linear_5,58,1,48,22,1248842184
676,21,Ticks_Linear_5,59,5,42,127,1248847172
676,21,Ticks_Linear_5,60,1,48,29,1249363668
676,21,Ticks_Linear_5,61,5,42,127,1249386736
676,21,Ticks_Linear_5,62,1,48,13,1249899948
676,21,Ticks_Linear_5,63,5,42,127,1249926648
676,21,Ticks_Linear_5,64,1,48,34,1250434476
676,21,Ticks_Linear_5,65,5,42,127,1250467236
676,21,Ticks_Linear_5,66,5,42,127,1251006784
676,21,Ticks_Linear_5,67,1,48,25,1251012144
676,21,Ticks_Linear_5,68,1,48,25,1251538412
676,21,Ticks_Linear_5,69,5,42,127,1251556728
676,21,Ticks_Linear_5,70,1,48,28,1252103104
676,21,Ticks_Linear_5,71,5,42,127,1252106600
676,21,Ticks_Linear_5,72,1,48,25,1252642200
676,21,Ticks_Linear_5,73,5,42,127,1252656476
676,21,Ticks_Linear_5,74,5,42,127,1253207548
676,21,Ticks_Linear_5,75,1,48,21,1253213360
676,21,Ticks_Linear_5,76,5,42,127,1253757300
676,21,Ticks_Linear_5,77,1,48,18,1253758264
676,21,Ticks_Linear_5,78,1,48,24,1254291396
676,21,Ticks_Linear_5,79,5,42,127,1254317504
676,21,Ticks_Linear_5,80,1,48,32,1254811316
676,21,Ticks_Linear_5,81,5,42,127,1254886700
676,21,Ticks_Linear_5,82,1,48,32,1255387480
676,21,Ticks_Linear_5,83,5,42,127,1255446832
676,21,Ticks_Linear_5,84,1,48,28,1255999208
676,21,Ticks_Linear_5,85,5,42,127,1256007040
676,21,Ticks_Linear_5,86,5,42,127,1256567276
676,21,Ticks_Linear_5,87,1,48,30,1256612624
676,21,Ticks_Linear_5,88,5,42,127,1257136624
676,21,Ticks_Linear_5,89,1,48,29,1257148732
676,21,Ticks_Linear_5,90,1,48,32,1257690788
676,21,Ticks_Linear_5,91,5,42,127,1257707012
676,21,Ticks_Linear_5,92,1,48,21,1258261932
676,21,Ticks_Linear_5,93,5,42,127,1258277476
676,21,Ticks_Linear_5,94,1,48,25,1258802816
676,21,Ticks_Linear_5,95,5,42,127,1258846600
676,21,Ticks_Linear_5,96,1,48,30,1259389564
676,21,Ticks_Linear_5,97,5,42,127,1259416944
676,21,Ticks_Linear_5,98,5,42,127,1259996480
676,21,Ticks_Linear_5,99,1,48,27,1260006420
676,21,Ticks_Linear_5,100,1,48,31,1260544808
676,21,Ticks_Linear_5,101,5,42,127,1260577348
676,21,Ticks_Linear_5,102,5,42,127,1261156612
676,21,Ticks_Linear_5,103,1,48,30,1261191100
676,21,Ticks_Linear_5,104,1,48,25,1261726960
676,21,Ticks_Linear_5,105,5,42,127,1261737332
676,21,Ticks_Linear_5,106,5,42,127,1262316868
676,21,Ticks_Linear_5,107,1,48,24,1262345380
676,21,Ticks_Linear_5,108,5,42,127,1262906732
676,21,Ticks_Linear_5,109,1,48,18,1262911500
676,21,Ticks_Linear_5,110,5,42,127,1263496472
676,21,Ticks_Linear_5,111,1,48,25,1263524984
676,21,Ticks_Linear_5,112,5,42,127,1264087384
676,21,Ticks_Linear_5,113,1,48,34,1264106452
676,21,Ticks_Linear_5,114,5,42,127,1264677172
676,21,Ticks_Linear_5,115,1,48,27,1264679840
676,21,Ticks_Linear_5,116,1,48,25,1265257204
676,21,Ticks_Linear_5,117,5,42,127,1265267052
676,21,Ticks_Linear_5,118,1,48,29,1265825724
676,21,Ticks_Linear_5,119,5,42,127,1265867328
676,21,Ticks_Linear_5,120,1,48,34,1266455808
676,21,Ticks_Linear_5,121,5,42,127,1266467376
676,21,Ticks_Linear_5,122,1,48,26,1267039972
676,21,Ticks_Linear_5,123,5,42,127,1267067300
676,21,Ticks_Linear_5,124,1,48,26,1267634808
676,21,Ticks_Linear_5,125,5,42,127,1267667496
676,21,Ticks_Linear_5,126,1,48,27,1268249528
676,21,Ticks_Linear_5,127,5,42,127,1268267248
676,21,Ticks_Linear_5,128,1,48,30,1268852224
676,21,Ticks_Linear_5,129,5,42,127,1268876536
676,21,Ticks_Linear_5,130,5,42,127,1269487144
676,21,Ticks_Linear_5,131,1,48,24,1269508836
676,21,Ticks_Linear_5,132,5,42,127,1270097428
676,21,Ticks_Linear_5,133,1,48,29,1270105644
676,21,Ticks_Linear_5,134,1,48,31,1270700892
676,21,Ticks_Linear_5,135,5,42,127,1270706632
676,21,Ticks_Linear_5,136,5,42,127,1271316872
676,21,Ticks_Linear_5,137,1,48,29,1271367472
676,21,Ticks_Linear_5,138,5,42,127,1271937464
676,21,Ticks_Linear_5,139,1,48,26,1271977208
676,21,Ticks_Linear_5,140,5,42,127,1272556908
676,21,Ticks_Linear_5,141,1,48,29,1272568636
676,21,Ticks_Linear_5,142,1,48,26,1273163044
676,21,Ticks_Linear_5,143,5,42,127,1273176420
676,21,Ticks_Linear_5,144,1,48,17,1273782512
676,21,Ticks_Linear_5,145,5,42,127,1273797236
676,21,Ticks_Linear_5,146,5,42,127,1274416464
676,21,Ticks_Linear_5,147,1,48,27,1274476372
676,21,Ticks_Linear_5,148,1,48,26,1275028696
676,21,Ticks_Linear_5,149,5,42,127,1275047384
676,21,Ticks_Linear_5,150,1,48,26,1275635936
676,21,Ticks_Linear_5,151,5,42,127,1275677308
676,21,Ticks_Linear_5,152,1,48,26,1276245036
676,21,Ticks_Linear_5,153,5,42,127,1276306816
676,21,Ticks_Linear_5,154,1,48,29,1276907576
676,21,Ticks_Linear_5,155,5,42,127,1276936524
676,21,Ticks_Linear_5,156,5,42,127,1277567304
676,21,Ticks_Linear_5,157,1,48,27,1277594304
676,21,Ticks_Linear_5,158,5,42,127,1278207340
676,21,Ticks_Linear_5,159,1,48,24,1278247608
676,21,Ticks_Linear_5,160,1,48,26,1278816180
676,21,Ticks_Linear_5,161,5,42,127,1278847252
676,21,Ticks_Linear_5,162,5,42,127,1279487296
676,21,Ticks_Linear_5,163,1,48,24,1279516328
676,21,Ticks_Linear_5,164,1,48,25,1280103716
676,21,Ticks_Linear_5,165,5,42,127,1280127352
676,21,Ticks_Linear_5,166,5,42,127,1280767400
676,21,Ticks_Linear_5,167,1,48,23,1280784904
676,21,Ticks_Linear_5,168,5,42,127,1281416524
676,21,Ticks_Linear_5,169,1,48,24,1281417488
676,21,Ticks_Linear_5,170,5,42,127,1282066748
676,21,Ticks_Linear_5,171,1,48,23,1282078032
676,21,Ticks_Linear_5,172,5,42,127,1282717068
676,21,Ticks_Linear_5,173,1,48,25,1282721980
676,21,Ticks_Linear_5,174,5,42,127,1283367292
676,21,Ticks_Linear_5,175,1,48,29,1283403204
676,21,Ticks_Linear_5,176,5,42,127,1284016492
676,21,Ticks_Linear_5,177,1,48,23,1284075328
676,21,Ticks_Linear_5,178,1,48,21,1284635668
676,21,Ticks_Linear_5,179,5,42,127,1284677192
676,21,Ticks_Linear_5,180,1,48,23,1285314432
676,21,Ticks_Linear_5,181,5,42,127,1285336352
676,21,Ticks_Linear_5,182,5,42,127,1285996792
676,21,Ticks_Linear_5,183,1,48,19,1286032928
676,21,Ticks_Linear_5,184,5,42,127,1286657348
676,21,Ticks_Linear_5,185,1,48,22,1286703596
676,21,Ticks_Linear_5,186,5,42,127,1287316736
676,21,Ticks_Linear_5,187,1,48,24,1287335728
676,21,Ticks_Linear_5,188,1,48,19,1287971176
676,21,Ticks_Linear_5,189,5,42,127,1287986496
676,21,Ticks_Linear_5,190,1,48,25,1288650700
676,21,Ticks_Linear_5,191,5,42,127,1288657260
676,21,Ticks_Linear_5,192,5,42,127,1289327136
676,21,Ticks_Linear_5,193,1,48,28,1289365612
676,21,Ticks_Linear_5,194,5,42,127,1289996536
676,21,Ticks_Linear_5,195,1,48,23,1290000552
676,21,Ticks_Linear_5,196,5,42,127,1290667376
676,21,Ticks_Linear_5,197,1,48,23,1290723132
676,21,Ticks_Linear_5,198,5,42,127,1291347328
676,21,Ticks_Linear_5,199,1,48,19,1291357344
676,21,Ticks_Linear_5,200,1,48,19,1292006444
676,21,Ticks_Linear_5,201,5,42,127,1292027224
676,21,Ticks_Linear_5,202,5,42,127,1292707132
676,21,Ticks_Linear_5,203,1,48,15,1292718040
676,21,Ticks_Linear_5,204,5,42,127,1293387160
676,21,Ticks_Linear_5,205,1,48,14,1293404440
676,21,Ticks_Linear_5,206,1,48,31,1294040576
676,21,Ticks_Linear_5,207,5,42,127,1294067060
676,21,Ticks_Linear_5,208,1,48,26,1294737864
676,21,Ticks_Linear_5,209,5,42,127,1294757148
676,21,Ticks_Linear_5,210,1,48,31,1295380596
676,21,Ticks_Linear_5,211,5,42,127,1295447436
676,21,Ticks_Linear_5,212,5,42,127,1296136560
676,21,Ticks_Linear_5,213,1,48,26,1296153000
676,21,Ticks_Linear_5,214,5,42,127,1296827092
676,21,Ticks_Linear_5,215,1,48,24,1296923068
676,21,Ticks_Linear_5,216,5,42,127,1297517108
676,21,Ticks_Linear_5,217,1,48,18,1297540520
676,21,Ticks_Linear_5,218,1,48,26,1298166988
676,21,Ticks_Linear_5,219,5,42,127,1298217272
676,21,Ticks_Linear_5,220,1,48,25,1298865164
676,21,Ticks_Linear_5,221,5,42,127,1298916724
676,21,Ticks_Linear_5,222,5,42,127,1299617152
676,21,Ticks_Linear_5,223,1,48,26,1299625960
676,21,Ticks_Linear_5,224,5,42,127,1300316504
676,21,Ticks_Linear_5,225,1,48,27,1300324356
676,21,Ticks_Linear_5,226,5,42,127,1301017072
676,21,Ticks_Linear_5,227,1,48,27,1301037716
676,21,Ticks_Linear_5,228,5,42,127,1301726560
676,21,Ticks_Linear_5,229,1,48,24,1301730576
676,21,Ticks_Linear_5,230,1,48,30,1302431568
676,21,Ticks_Linear_5,231,5,42,127,1302437232
676,21,Ticks_Linear_5,232,5,42,127,1303147096
676,21,Ticks_Linear_5,233,1,48,27,1303162048
676,21,Ticks_Linear_5,234,5,42,127,1303856408
676,21,Ticks_Linear_5,235,1,48,20,1303922004
676,21,Ticks_Linear_5,236,1,48,29,1304536340
676,21,Ticks_Linear_5,237,5,42,127,1304567304
676,21,Ticks_Linear_5,238,1,48,24,1305273820
676,21,Ticks_Linear_5,239,5,42,127,1305286976
676,21,Ticks_Linear_5,240,5,42,127,1306006876
676,21,Ticks_Linear_5,241,1,48,24,1306012912
676,21,Ticks_Linear_5,242,1,48,13,1306713056
676,21,Ticks_Linear_5,243,5,42,127,1306726984
676,21,Ticks_Linear_5,244,1,48,24,1307439848
676,21,Ticks_Linear_5,245,5,42,127,1307446704
676,21,Ticks_Linear_5,246,1,48,21,1308125968
676,21,Ticks_Linear_5,247,5,42,127,1308166452
676,21,Ticks_Linear_5,248,1,48,33,1308846320
676,21,Ticks_Linear_5,249,5,42,127,1308896604
676,21,Ticks_Linear_5,250,1,48,27,1309578936
676,21,Ticks_Linear_5,251,5,42,127,1309626832
676,21,Ticks_Linear_5,252,1,48,33,1310325120
676,21,Ticks_Linear_5,253,5,42,127,1310357060
676,21,Ticks_Linear_5,254,1,48,32,1311077960
676,21,Ticks_Linear_5,255,5,42,127,1311086988
676,21,Ticks_Linear_5,256,1,48,32,1311798580
676,21,Ticks_Linear_5,257,5,42,127,1311817040
676,21,Ticks_Linear_5,258,1,48,28,1312533140
676,21,Ticks_Linear_5,259,5,42,127,1312557304
676,21,Ticks_Linear_5,260,5,42,127,1313307084
676,21,Ticks_Linear_5,261,1,48,25,1313319944
676,21,Ticks_Linear_5,262,1,48,32,1314036440
676,21,Ticks_Linear_5,263,5,42,127,1314047340
676,21,Ticks_Linear_5,264,5,42,127,1314786788
676,21,Ticks_Linear_5,265,1,48,32,1314801812
676,21,Ticks_Linear_5,266,5,42,127,1315526976
676,21,Ticks_Linear_5,267,1,48,28,1315540128
676,21,Ticks_Linear_5,268,5,42,127,1316276748
676,21,Ticks_Linear_5,269,1,48,29,1316283608
676,21,Ticks_Linear_5,270,1,48,28,1317019356
676,21,Ticks_Linear_5,271,5,42,127,1317027264
676,21,Ticks_Linear_5,272,5,42,127,1317776744
676,21,Ticks_Linear_5,273,1,48,28,1317796192
676,21,Ticks_Linear_5,274,5,42,127,1318527264
676,21,Ticks_Linear_5,275,1,48,32,1318558468
676,21,Ticks_Linear_5,276,5,42,127,1319276964
676,21,Ticks_Linear_5,277,1,48,19,1319287720
676,21,Ticks_Linear_5,278,1,48,21,1319993708
676,21,Ticks_Linear_5,279,5,42,127,1320036840
676,21,Ticks_Linear_5,280,1,48,29,1320712552
676,21,Ticks_Linear_5,281,5,42,127,1320796400
676,21,Ticks_Linear_5,282,5,42,127,1321557408
676,21,Ticks_Linear_5,283,1,48,26,1321587216
676,21,Ticks_Linear_5,284,5,42,127,1322317068
676,21,Ticks_Linear_5,285,1,48,26,1322318036
676,21,Ticks_Linear_5,286,5,42,127,1323076952
676,21,Ticks_Linear_5,287,1,48,28,1323094160
676,21,Ticks_Linear_5,288,5,42,127,1323847020
676,21,Ticks_Linear_5,289,1,48,27,1323863836
676,21,Ticks_Linear_5,290,5,42,127,1324616940
676,21,Ticks_Linear_5,291,1,48,30,1324625824
676,21,Ticks_Linear_5,292,5,42,127,1325387080
676,21,Ticks_Linear_5,293,1,48,26,1325411860
676,21,Ticks_Linear_5,294,1,48,26,1326134172
676,21,Ticks_Linear_5,295,5,42,127,1326157216
676,21,Ticks_Linear_5,296,1,48,27,1326891812
676,21,Ticks_Linear_5,297,5,42,127,1326927136
676,21,Ticks_Linear_5,298,1,48,23,1327658964
676,21,Ticks_Linear_5,299,5,42,127,1327706784
676,21,Ticks_Linear_5,300,5,42,127,1328486848
676,21,Ticks_Linear_5,301,1,48,25,1328509288
676,21,Ticks_Linear_5,302,5,42,127,1329267024
676,21,Ticks_Linear_5,303,1,48,27,1329271412
676,21,Ticks_Linear_5,304,5,42,127,1330047276
676,21,Ticks_Linear_5,305,1,48,30,1330095408
676,21,Ticks_Linear_5,306,5,42,127,1330827004
676,21,Ticks_Linear_5,307,1,48,23,1330882388
676,21,Ticks_Linear_5,308,5,42,127,1331617144
676,21,Ticks_Linear_5,309,1,48,26,1332280292
676,21,Ticks_Linear_5,310,5,42,127,1332406608
676,21,Ticks_Linear_5,311,1,48,24,1333079716
676,21,Ticks_Linear_5,312,5,42,127,1333197268
676,21,Ticks_Linear_5,313,1,48,28,1333941768
676,21,Ticks_Linear_5,314,5,42,127,1333986672
676,21,Ticks_Linear_5,315,5,42,127,1334777264
676,21,Ticks_Linear_5,316,1,48,27,1334840520
676,21,Ticks_Linear_5,317,5,42,127,1335576840
676,21,Ticks_Linear_5,318,1,48,27,1335621512
676,21,Ticks_Linear_5,319,5,42,127,1336376712
676,21,Ticks_Linear_5,320,1,48,27,1336390460
676,21,Ticks_Linear_5,321,5,42,127,1337176436
676,21,Ticks_Linear_5,322,1,48,25,1337248624
676,21,Ticks_Linear_5,323,5,42,127,1337977156
676,21,Ticks_Linear_5,324,1,48,27,1337990384
676,21,Ticks_Linear_5,325,1,48,29,1338757660
676,21,Ticks_Linear_5,326,5,42,127,1338776948
676,21,Ticks_Linear_5,327,5,42,127,1339586864
676,21,Ticks_Linear_5,328,1,48,28,1339587828
676,21,Ticks_Linear_5,329,1,48,29,1340378228
676,21,Ticks_Linear_5,330,5,42,127,1340396916
676,21,Ticks_Linear_5,331,1,48,29,1341188656
676,21,Ticks_Linear_5,332,5,42,127,1341206972
676,21,Ticks_Linear_5,333,5,42,127,1342017036
676,21,Ticks_Linear_5,334,1,48,30,1342023968
676,21,Ticks_Linear_5,335,5,42,127,1342826748
676,21,Ticks_Linear_5,0,9999,9999,9999,1233634384
676,21,Ticks_Linear_5,1,9999,9999,9999,1234114632
676,21,Ticks_Linear_5,2,9999,9999,9999,1234594936
676,21,Ticks_Linear_5,3,9999,9999,9999,1235074116
676,21,Ticks_Linear_5,4,9999,9999,9999,1235554396
676,21,Ticks_Linear_5,5,9999,9999,9999,1236044876
676,21,Ticks_Linear_5,6,9999,9999,9999,1236534392
676,21,Ticks_Linear_5,7,9999,9999,9999,1237024876
676,21,Ticks_Linear_5,8,9999,9999,9999,1237514320
676,21,Ticks_Linear_5,9,9999,9999,9999,1238004804
676,21,Ticks_Linear_5,10,9999,9999,9999,1238504504
676,21,Ticks_Linear_5,11,9999,9999,9999,1239004280
676,21,Ticks_Linear_5,12,9999,9999,9999,1239504960
676,21,Ticks_Linear_5,13,9999,9999,9999,1240004728
676,21,Ticks_Linear_5,14,9999,9999,9999,1240504428
676,21,Ticks_Linear_5,15,9999,9999,9999,1241014388
676,21,Ticks_Linear_5,16,9999,9999,9999,1241524280
676,21,Ticks_Linear_5,17,9999,9999,9999,1242034240
676,21,Ticks_Linear_5,18,9999,9999,9999,1242544196
676,21,Ticks_Linear_5,19,9999,9999,9999,1243054156
676,21,Ticks_Linear_5,20,9999,9999,9999,1243574368
676,21,Ticks_Linear_5,21,9999,9999,9999,1244094588
676,21,Ticks_Linear_5,22,9999,9999,9999,1244614736
676,21,Ticks_Linear_5,23,9999,9999,9999,1245134952
676,21,Ticks_Linear_5,24,9999,9999,9999,1245654124
676,21,Ticks_Linear_5,25,9999,9999,9999,1246184540
676,21,Ticks_Linear_5,26,9999,9999,9999,1246714948
676,21,Ticks_Linear_5,27,9999,9999,9999,1247244380
676,21,Ticks_Linear_5,28,9999,9999,9999,1247774780
676,21,Ticks_Linear_5,29,9999,9999,9999,1248304208
676,21,Ticks_Linear_5,30,9999,9999,9999,1248844872
676,21,Ticks_Linear_5,31,9999,9999,9999,1249384508
676,21,Ticks_Linear_5,32,9999,9999,9999,1249924200
676,21,Ticks_Linear_5,33,9999,9999,9999,1250464860
676,21,Ticks_Linear_5,34,9999,9999,9999,1251004484
676,21,Ticks_Linear_5,35,9999,9999,9999,1251554424
676,21,Ticks_Linear_5,36,9999,9999,9999,1252104300
676,21,Ticks_Linear_5,37,9999,9999,9999,1252654176
676,21,Ticks_Linear_5,38,9999,9999,9999,1253205100
676,21,Ticks_Linear_5,39,9999,9999,9999,1253755000
676,21,Ticks_Linear_5,40,9999,9999,9999,1254315128
676,21,Ticks_Linear_5,41,9999,9999,9999,1254884472
676,21,Ticks_Linear_5,42,9999,9999,9999,1255444604
676,21,Ticks_Linear_5,43,9999,9999,9999,1256004664
676,21,Ticks_Linear_5,44,9999,9999,9999,1256564828
676,21,Ticks_Linear_5,45,9999,9999,9999,1257134176
676,21,Ticks_Linear_5,46,9999,9999,9999,1257704560
676,21,Ticks_Linear_5,47,9999,9999,9999,1258274880
676,21,Ticks_Linear_5,48,9999,9999,9999,1258844224
676,21,Ticks_Linear_5,49,9999,9999,9999,1259414644
676,21,Ticks_Linear_5,50,9999,9999,9999,1259994180
676,21,Ticks_Linear_5,51,9999,9999,9999,1260574824
676,21,Ticks_Linear_5,52,9999,9999,9999,1261154384
676,21,Ticks_Linear_5,53,9999,9999,9999,1261735032
676,21,Ticks_Linear_5,54,9999,9999,9999,1262314568
676,21,Ticks_Linear_5,55,9999,9999,9999,1262904432
676,21,Ticks_Linear_5,56,9999,9999,9999,1263494244
676,21,Ticks_Linear_5,57,9999,9999,9999,1264085080
676,21,Ticks_Linear_5,58,9999,9999,9999,1264674872
676,21,Ticks_Linear_5,59,9999,9999,9999,1265264752
676,21,Ticks_Linear_5,60,9999,9999,9999,1265864804
676,21,Ticks_Linear_5,61,9999,9999,9999,1266464852
676,21,Ticks_Linear_5,62,9999,9999,9999,1267064924
676,21,Ticks_Linear_5,63,9999,9999,9999,1267664972
676,21,Ticks_Linear_5,64,9999,9999,9999,1268265020
676,21,Ticks_Linear_5,65,9999,9999,9999,1268874308
676,21,Ticks_Linear_5,66,9999,9999,9999,1269484620
676,21,Ticks_Linear_5,67,9999,9999,9999,1270094904
676,21,Ticks_Linear_5,68,9999,9999,9999,1270704184
676,21,Ticks_Linear_5,69,9999,9999,9999,1271314496
676,21,Ticks_Linear_5,70,9999,9999,9999,1271935088
676,21,Ticks_Linear_5,71,9999,9999,9999,1272554608
676,21,Ticks_Linear_5,72,9999,9999,9999,1273174120
676,21,Ticks_Linear_5,73,9999,9999,9999,1273794636
676,21,Ticks_Linear_5,74,9999,9999,9999,1274414164
676,21,Ticks_Linear_5,75,9999,9999,9999,1275044932
676,21,Ticks_Linear_5,76,9999,9999,9999,1275674712
676,21,Ticks_Linear_5,77,9999,9999,9999,1276304444
676,21,Ticks_Linear_5,78,9999,9999,9999,1276934220
676,21,Ticks_Linear_5,79,9999,9999,9999,1277565004
676,21,Ticks_Linear_5,80,9999,9999,9999,1278205040
676,21,Ticks_Linear_5,81,9999,9999,9999,1278845024
676,21,Ticks_Linear_5,82,9999,9999,9999,1279484996
676,21,Ticks_Linear_5,83,9999,9999,9999,1280125052
676,21,Ticks_Linear_5,84,9999,9999,9999,1280765020
676,21,Ticks_Linear_5,85,9999,9999,9999,1281414224
676,21,Ticks_Linear_5,86,9999,9999,9999,1282064444
676,21,Ticks_Linear_5,87,9999,9999,9999,1282714692
676,21,Ticks_Linear_5,88,9999,9999,9999,1283364988
676,21,Ticks_Linear_5,89,9999,9999,9999,1284014192
676,21,Ticks_Linear_5,90,9999,9999,9999,1284674668
676,21,Ticks_Linear_5,91,9999,9999,9999,1285334128
676,21,Ticks_Linear_5,92,9999,9999,9999,1285994564
676,21,Ticks_Linear_5,93,9999,9999,9999,1286655048
676,21,Ticks_Linear_5,94,9999,9999,9999,1287314508
676,21,Ticks_Linear_5,95,9999,9999,9999,1287984196
676,21,Ticks_Linear_5,96,9999,9999,9999,1288654960
676,21,Ticks_Linear_5,97,9999,9999,9999,1289324616
676,21,Ticks_Linear_5,98,9999,9999,9999,1289994308
676,21,Ticks_Linear_5,99,9999,9999,9999,1290665072
676,21,Ticks_Linear_5,100,9999,9999,9999,1291344952
676,21,Ticks_Linear_5,101,9999,9999,9999,1292024924
676,21,Ticks_Linear_5,102,9999,9999,9999,1292704832
676,21,Ticks_Linear_5,103,9999,9999,9999,1293384788
676,21,Ticks_Linear_5,104,9999,9999,9999,1294064756
676,21,Ticks_Linear_5,105,9999,9999,9999,1294754920
676,21,Ticks_Linear_5,106,9999,9999,9999,1295445060
676,21,Ticks_Linear_5,107,9999,9999,9999,1296134256
676,21,Ticks_Linear_5,108,9999,9999,9999,1296824420
676,21,Ticks_Linear_5,109,9999,9999,9999,1297514584
676,21,Ticks_Linear_5,110,9999,9999,9999,1298214972
676,21,Ticks_Linear_5,111,9999,9999,9999,1298914424
676,21,Ticks_Linear_5,112,9999,9999,9999,1299614776
676,21,Ticks_Linear_5,113,9999,9999,9999,1300314200
676,21,Ticks_Linear_5,114,9999,9999,9999,1301014620
676,21,Ticks_Linear_5,115,9999,9999,9999,1301724256
676,21,Ticks_Linear_5,116,9999,9999,9999,1302434932
676,21,Ticks_Linear_5,117,9999,9999,9999,1303144572
676,21,Ticks_Linear_5,118,9999,9999,9999,1303854180
676,21,Ticks_Linear_5,119,9999,9999,9999,1304564856
676,21,Ticks_Linear_5,120,9999,9999,9999,1305284676
676,21,Ticks_Linear_5,121,9999,9999,9999,1306004576
676,21,Ticks_Linear_5,122,9999,9999,9999,1306724460
676,21,Ticks_Linear_5,123,9999,9999,9999,1307444332
676,21,Ticks_Linear_5,124,9999,9999,9999,1308164152
676,21,Ticks_Linear_5,125,9999,9999,9999,1308894304
676,21,Ticks_Linear_5,126,9999,9999,9999,1309624380
676,21,Ticks_Linear_5,127,9999,9999,9999,1310354536
676,21,Ticks_Linear_5,128,9999,9999,9999,1311084612
676,21,Ticks_Linear_5,129,9999,9999,9999,1311814740
676,21,Ticks_Linear_5,130,9999,9999,9999,1312555076
676,21,Ticks_Linear_5,131,9999,9999,9999,1313304636
676,21,Ticks_Linear_5,132,9999,9999,9999,1314045040
676,21,Ticks_Linear_5,133,9999,9999,9999,1314784336
676,21,Ticks_Linear_5,134,9999,9999,9999,1315524672
676,21,Ticks_Linear_5,135,9999,9999,9999,1316274296
676,21,Ticks_Linear_5,136,9999,9999,9999,1317024888
676,21,Ticks_Linear_5,137,9999,9999,9999,1317774444
676,21,Ticks_Linear_5,138,9999,9999,9999,1318525040
676,21,Ticks_Linear_5,139,9999,9999,9999,1319274588
676,21,Ticks_Linear_5,140,9999,9999,9999,1320034392
676,21,Ticks_Linear_5,141,9999,9999,9999,1320794176
676,21,Ticks_Linear_5,142,9999,9999,9999,1321555036
676,21,Ticks_Linear_5,143,9999,9999,9999,1322314844
676,21,Ticks_Linear_5,144,9999,9999,9999,1323074652
676,21,Ticks_Linear_5,145,9999,9999,9999,1323844720
676,21,Ticks_Linear_5,146,9999,9999,9999,1324614712
676,21,Ticks_Linear_5,147,9999,9999,9999,1325384780
676,21,Ticks_Linear_5,148,9999,9999,9999,1326154840
676,21,Ticks_Linear_5,149,9999,9999,9999,1326924908
676,21,Ticks_Linear_5,150,9999,9999,9999,1327704188
676,21,Ticks_Linear_5,151,9999,9999,9999,1328484472
676,21,Ticks_Linear_5,152,9999,9999,9999,1329264724
676,21,Ticks_Linear_5,153,9999,9999,9999,1330045048
676,21,Ticks_Linear_5,154,9999,9999,9999,1330824256
676,21,Ticks_Linear_5,155,9999,9999,9999,1331614840
676,21,Ticks_Linear_5,156,9999,9999,9999,1332404308
676,21,Ticks_Linear_5,157,9999,9999,9999,1333194816
676,21,Ticks_Linear_5,158,9999,9999,9999,1333984372
676,21,Ticks_Linear_5,159,9999,9999,9999,1334774888
676,21,Ticks_Linear_5,160,9999,9999,9999,1335574612
676,21,Ticks_Linear_5,161,9999,9999,9999,1336374336
676,21,Ticks_Linear_5,162,9999,9999,9999,1337174132
676,21,Ticks_Linear_5,163,9999,9999,9999,1337974856
676,21,Ticks_Linear_5,164,9999,9999,9999,1338774648
676,21,Ticks_Linear_5,165,9999,9999,9999,1339584636
676,21,Ticks_Linear_5,166,9999,9999,9999,1340394616
676,21,Ticks_Linear_5,167,9999,9999,9999,1341204596
676,21,Ticks_Linear_5,168,9999,9999,9999,1342014584
676,21,Ticks_Linear_5,169,9999,9999,9999,1342824520
677,22,Ticks_Phase_8,0,5,42,127,1354240396
677,22,Ticks_Phase_8,1,5,42,127,1355040052
677,22,Ticks_Phase_8,2,5,42,127,1355839936
677,22,Ticks_Phase_8,3,1,48,31,1355898056
677,22,Ticks_Phase_8,4,1,48,32,1356635264
677,22,Ticks_Phase_8,5,5,42,127,1356639592
677,22,Ticks_Phase_8,6,5,42,127,1357440508
677,22,Ticks_Phase_8,7,1,48,34,1357445120
677,22,Ticks_Phase_8,8,1,48,29,1358232992
677,22,Ticks_Phase_8,9,5,42,127,1358239988
677,22,Ticks_Phase_8,10,1,48,25,1359027156
677,22,Ticks_Phase_8,11,5,42,127,1359039996
677,22,Ticks_Phase_8,12,5,42,127,1359839716
677,22,Ticks_Phase_8,13,1,48,25,1359874064
677,22,Ticks_Phase_8,14,5,42,127,1360640476
677,22,Ticks_Phase_8,15,1,48,25,1360675416
677,22,Ticks_Phase_8,16,5,42,127,1361440188
677,22,Ticks_Phase_8,17,1,48,30,1361483296
677,22,Ticks_Phase_8,18,5,42,127,1362239824
677,22,Ticks_Phase_8,19,1,48,37,1362265256
677,22,Ticks_Phase_8,20,5,42,127,1363039636
677,22,Ticks_Phase_8,21,1,48,36,1363055032
677,22,Ticks_Phase_8,22,5,42,127,1363840544
677,22,Ticks_Phase_8,23,1,48,29,1363883652
677,22,Ticks_Phase_8,24,1,48,27,1364636096
677,22,Ticks_Phase_8,25,5,42,127,1364640324
677,22,Ticks_Phase_8,26,5,42,127,1365439896
677,22,Ticks_Phase_8,27,1,48,27,1365460168
677,22,Ticks_Phase_8,28,5,42,127,1366239608
677,22,Ticks_Phase_8,29,1,48,36,1366263616
677,22,Ticks_Phase_8,30,5,42,127,1367040516
677,22,Ticks_Phase_8,31,1,48,37,1367071420
677,22,Ticks_Phase_8,32,5,42,127,1367840228
677,22,Ticks_Phase_8,33,1,48,29,1367890156
677,22,Ticks_Phase_8,34,5,42,127,1368639716
677,22,Ticks_Phase_8,35,1,48,39,1368653536
677,22,Ticks_Phase_8,36,5,42,127,1369439452
677,22,Ticks_Phase_8,37,1,48,29,1369465776
677,22,Ticks_Phase_8,38,5,42,127,1370240356
677,22,Ticks_Phase_8,39,1,48,45,1370266988
677,22,Ticks_Phase_8,40,5,42,127,1371040292
677,22,Ticks_Phase_8,41,1,48,38,1371075684
677,22,Ticks_Phase_8,42,1,48,33,1371824464
677,22,Ticks_Phase_8,43,5,42,127,1371839848
677,22,Ticks_Phase_8,44,1,48,35,1372637748
677,22,Ticks_Phase_8,45,5,42,127,1372639636
677,22,Ticks_Phase_8,46,5,42,127,1373440400
677,22,Ticks_Phase_8,47,1,48,32,1373508152
677,22,Ticks_Phase_8,48,5,42,127,1374240336
677,22,Ticks_Phase_8,49,1,48,31,1374275572
677,22,Ticks_Phase_8,50,1,48,35,1375027364
677,22,Ticks_Phase_8,51,5,42,127,1375039964
677,22,Ticks_Phase_8,52,5,42,127,1375839560
677,22,Ticks_Phase_8,53,1,48,33,1375860576
677,22,Ticks_Phase_8,54,5,42,127,1376640468
677,22,Ticks_Phase_8,55,1,48,41,1376655936
677,22,Ticks_Phase_8,56,5,42,127,1377440476
677,22,Ticks_Phase_8,57,1,48,29,1377449520
677,22,Ticks_Phase_8,58,5,42,127,1378220348
677,22,Ticks_Phase_8,59,1,48,40,1378285996
677,22,Ticks_Phase_8,60,1,48,29,1379004144
677,22,Ticks_Phase_8,61,5,42,127,1379020280
677,22,Ticks_Phase_8,62,1,48,29,1379763644
677,22,Ticks_Phase_8,63,5,42,127,1379819920
677,22,Ticks_Phase_8,64,1,48,35,1380548164
677,22,Ticks_Phase_8,65,5,42,127,1380619780
677,22,Ticks_Phase_8,66,1,48,34,1381377232
677,22,Ticks_Phase_8,67,5,42,127,1381420536
677,22,Ticks_Phase_8,68,1,48,38,1382179632
677,22,Ticks_Phase_8,69,5,42,127,1382220324
677,22,Ticks_Phase_8,70,5,42,127,1383019996
677,22,Ticks_Phase_8,71,1,48,28,1383045132
677,22,Ticks_Phase_8,72,5,42,127,1383819556
677,22,Ticks_Phase_8,73,1,48,27,1383854352
677,22,Ticks_Phase_8,74,1,48,39,1384591896
677,22,Ticks_Phase_8,75,5,42,127,1384620384
677,22,Ticks_Phase_8,76,1,48,38,1385373256
677,22,Ticks_Phase_8,77,5,42,127,1385420244
677,22,Ticks_Phase_8,78,1,48,39,1386152152
677,22,Ticks_Phase_8,79,5,42,127,1386220028
677,22,Ticks_Phase_8,80,1,48,40,1386976348
677,22,Ticks_Phase_8,81,5,42,127,1387019592
677,22,Ticks_Phase_8,82,1,48,37,1387802652
677,22,Ticks_Phase_8,83,5,42,127,1387820352
677,22,Ticks_Phase_8,84,1,48,37,1388612844
677,22,Ticks_Phase_8,85,5,42,127,1388620136
677,22,Ticks_Phase_8,86,5,42,127,1389420032
677,22,Ticks_Phase_8,87,1,48,37,1389437224
677,22,Ticks_Phase_8,88,5,42,127,1390219592
677,22,Ticks_Phase_8,89,1,48,39,1390251248
677,22,Ticks_Phase_8,90,1,48,36,1391005184
677,22,Ticks_Phase_8,91,5,42,127,1391020420
677,22,Ticks_Phase_8,92,1,48,35,1391803320
677,22,Ticks_Phase_8,93,5,42,127,1391820352
677,22,Ticks_Phase_8,94,1,48,35,1392549948
677,22,Ticks_Phase_8,95,5,42,127,1392640288
677,22,Ticks_Phase_8,96,1,48,40,1393351228
677,22,Ticks_Phase_8,97,5,42,127,1393440148
677,22,Ticks_Phase_8,98,1,48,39,1394175940
677,22,Ticks_Phase_8,99,5,42,127,1394239932
677,22,Ticks_Phase_8,100,1,48,29,1394954064
677,22,Ticks_Phase_8,101,5,42,127,1395039572
677,22,Ticks_Phase_8,102,1,48,38,1395771828
677,22,Ticks_Phase_8,103,5,42,127,1395840332
677,22,Ticks_Phase_8,104,1,48,37,1396591484
677,22,Ticks_Phase_8,105,5,42,127,1396640120
677,22,Ticks_Phase_8,106,1,48,41,1397423772
677,22,Ticks_Phase_8,107,5,42,127,1397439980
677,22,Ticks_Phase_8,108,5,42,127,1398239700
677,22,Ticks_Phase_8,109,1,48,40,1398253448
677,22,Ticks_Phase_8,110,1,48,42,1399028220
677,22,Ticks_Phase_8,111,5,42,127,1399040380
677,22,Ticks_Phase_8,112,1,48,41,1399830852
677,22,Ticks_Phase_8,113,5,42,127,1399840240
677,22,Ticks_Phase_8,114,1,48,39,1400617596
677,22,Ticks_Phase_8,115,5,42,127,1400640024
677,22,Ticks_Phase_8,116,1,48,40,1401433196
677,22,Ticks_Phase_8,117,5,42,127,1401439688
677,22,Ticks_Phase_8,118,1,48,42,1402193064
677,22,Ticks_Phase_8,119,5,42,127,1402240224
677,22,Ticks_Phase_8,120,1,48,39,1402998196
677,22,Ticks_Phase_8,121,5,42,127,1403040160
677,22,Ticks_Phase_8,122,1,48,34,1403814896
677,22,Ticks_Phase_8,123,5,42,127,1403840020
677,22,Ticks_Phase_8,124,1,48,35,1404606896
677,22,Ticks_Phase_8,125,5,42,127,1404639508
677,22,Ticks_Phase_8,126,1,48,30,1405445180
677,22,Ticks_Phase_8,127,5,42,127,1405480408
677,22,Ticks_Phase_8,128,1,48,36,1406228272
677,22,Ticks_Phase_8,129,5,42,127,1406280044
677,22,Ticks_Phase_8,130,1,48,36,1407079640
677,22,Ticks_Phase_8,131,5,42,127,1407080976
677,22,Ticks_Phase_8,132,5,42,127,1407879428
677,22,Ticks_Phase_8,133,1,48,39,1407891908
677,22,Ticks_Phase_8,134,5,42,127,1408680184
677,22,Ticks_Phase_8,135,1,48,41,1408725088
677,22,Ticks_Phase_8,136,1,48,38,1409416648
677,22,Ticks_Phase_8,137,5,42,127,1409480188
677,22,Ticks_Phase_8,138,1,48,32,1410178700
677,22,Ticks_Phase_8,139,5,42,127,1410279960
677,22,Ticks_Phase_8,140,1,48,32,1411000276
677,22,Ticks_Phase_8,141,5,42,127,1411079464
677,22,Ticks_Phase_8,142,1,48,27,1411838336
677,22,Ticks_Phase_8,143,5,42,127,1411880296
677,22,Ticks_Phase_8,144,1,48,36,1412659240
677,22,Ticks_Phase_8,145,5,42,127,1412680008
677,22,Ticks_Phase_8,146,5,42,127,1413480196
677,22,Ticks_Phase_8,147,1,48,39,1413489692
677,22,Ticks_Phase_8,148,1,48,33,1414249772
677,22,Ticks_Phase_8,149,5,42,127,1414279680
677,22,Ticks_Phase_8,150,1,48,39,1415058624
677,22,Ticks_Phase_8,151,5,42,127,1415080436
677,22,Ticks_Phase_8,152,1,48,39,1415863792
677,22,Ticks_Phase_8,153,5,42,127,1415880000
677,22,Ticks_Phase_8,154,5,42,127,1416679944
677,22,Ticks_Phase_8,155,1,48,35,1416682616
677,22,Ticks_Phase_8,156,5,42,127,1417479432
677,22,Ticks_Phase_8,157,1,48,37,1417521864
677,22,Ticks_Phase_8,158,1,48,34,1418277152
677,22,Ticks_Phase_8,159,5,42,127,1418280256
677,22,Ticks_Phase_8,160,5,42,127,1419040064
677,22,Ticks_Phase_8,161,1,48,37,1419092456
677,22,Ticks_Phase_8,162,1,48,35,1419812252
677,22,Ticks_Phase_8,163,5,42,127,1419839844
677,22,Ticks_Phase_8,164,1,48,39,1420558876
677,22,Ticks_Phase_8,165,5,42,127,1420639580
677,22,Ticks_Phase_8,166,1,48,31,1421337772
677,22,Ticks_Phase_8,167,5,42,127,1421440324
677,22,Ticks_Phase_8,168,1,48,30,1422227352
677,22,Ticks_Phase_8,169,5,42,127,1422240048
677,22,Ticks_Phase_8,170,5,42,127,1423039768
677,22,Ticks_Phase_8,171,1,48,28,1423091116
677,22,Ticks_Phase_8,172,5,42,127,1423839700
677,22,Ticks_Phase_8,173,1,48,29,1423896660
677,22,Ticks_Phase_8,174,1,48,28,1424534756
677,22,Ticks_Phase_8,175,5,42,127,1424640288
677,22,Ticks_Phase_8,176,1,48,27,1425349676
677,22,Ticks_Phase_8,177,5,42,127,1425440092
677,22,Ticks_Phase_8,178,1,48,27,1426162712
677,22,Ticks_Phase_8,179,5,42,127,1426239800
677,22,Ticks_Phase_8,180,1,48,29,1426959732
677,22,Ticks_Phase_8,181,5,42,127,1427039760
677,22,Ticks_Phase_8,182,1,48,34,1427817660
677,22,Ticks_Phase_8,183,5,42,127,1427840224
677,22,Ticks_Phase_8,184,5,42,127,1428640240
677,22,Ticks_Phase_8,185,1,48,30,1428667780
677,22,Ticks_Phase_8,186,5,42,127,1429439800
677,22,Ticks_Phase_8,187,1,48,31,1429466132
677,22,Ticks_Phase_8,188,5,42,127,1430239736
677,22,Ticks_Phase_8,189,1,48,31,1430261056
677,22,Ticks_Phase_8,190,5,42,127,1431040496
677,22,Ticks_Phase_8,191,1,48,30,1431095132
677,22,Ticks_Phase_8,192,5,42,127,1431760300
677,22,Ticks_Phase_8,193,1,48,29,1431854928
677,22,Ticks_Phase_8,194,1,48,27,1432538120
677,22,Ticks_Phase_8,195,5,42,127,1432560008
677,22,Ticks_Phase_8,196,1,48,25,1433335788
677,22,Ticks_Phase_8,197,5,42,127,1433359792
677,22,Ticks_Phase_8,198,1,48,25,1434146656
677,22,Ticks_Phase_8,199,5,42,127,1434159576
677,22,Ticks_Phase_8,200,1,48,32,1434901072
677,22,Ticks_Phase_8,201,5,42,127,1434960336
677,22,Ticks_Phase_8,202,1,48,32,1435714404
677,22,Ticks_Phase_8,203,5,42,127,1435759924
677,22,Ticks_Phase_8,204,1,48,27,1436481024
677,22,Ticks_Phase_8,205,5,42,127,1436559708
677,22,Ticks_Phase_8,206,1,48,28,1437245980
677,22,Ticks_Phase_8,207,5,42,127,1437359632
677,22,Ticks_Phase_8,208,1,48,30,1438098528
677,22,Ticks_Phase_8,209,5,42,127,1438160180
677,22,Ticks_Phase_8,210,5,42,127,1438959976
677,22,Ticks_Phase_8,211,1,48,29,1439010424
677,22,Ticks_Phase_8,212,1,48,26,1439712240
677,22,Ticks_Phase_8,213,5,42,127,1439759680
677,22,Ticks_Phase_8,214,1,48,29,1440516892
677,22,Ticks_Phase_8,215,5,42,127,1440559616
677,22,Ticks_Phase_8,216,1,48,27,1441288832
677,22,Ticks_Phase_8,217,5,42,127,1441360372
677,22,Ticks_Phase_8,218,1,48,29,1442106508
677,22,Ticks_Phase_8,219,5,42,127,1442159960
677,22,Ticks_Phase_8,220,1,48,27,1442918760
677,22,Ticks_Phase_8,221,5,42,127,1442959820
677,22,Ticks_Phase_8,222,1,48,27,1443726996
677,22,Ticks_Phase_8,223,5,42,127,1443759680
677,22,Ticks_Phase_8,224,1,48,26,1444516976
677,22,Ticks_Phase_8,225,5,42,127,1444560440
677,22,Ticks_Phase_8,226,1,48,28,1445387912
677,22,Ticks_Phase_8,227,5,42,127,1445439840
677,22,Ticks_Phase_8,228,1,48,24,1446185444
677,22,Ticks_Phase_8,229,5,42,127,1446239572
677,22,Ticks_Phase_8,230,5,42,127,1447040488
677,22,Ticks_Phase_8,231,1,48,27,1447045256
677,22,Ticks_Phase_8,232,5,42,127,1447840200
677,22,Ticks_Phase_8,233,1,48,31,1447855524
677,22,Ticks_Phase_8,234,1,48,30,1448634484
677,22,Ticks_Phase_8,235,5,42,127,1448639832
677,22,Ticks_Phase_8,236,1,48,27,1449426772
677,22,Ticks_Phase_8,237,5,42,127,1449439620
677,22,Ticks_Phase_8,238,1,48,27,1450218932
677,22,Ticks_Phase_8,239,5,42,127,1450240524
677,22,Ticks_Phase_8,240,1,48,26,1450994596
677,22,Ticks_Phase_8,241,5,42,127,1451040164
677,22,Ticks_Phase_8,242,1,48,28,1451813184
677,22,Ticks_Phase_8,243,5,42,127,1451839948
677,22,Ticks_Phase_8,244,1,48,27,1452603760
677,22,Ticks_Phase_8,245,5,42,127,1452639688
677,22,Ticks_Phase_8,246,5,42,127,1453440600
677,22,Ticks_Phase_8,247,1,48,29,1453455772
677,22,Ticks_Phase_8,248,1,48,29,1454198640
677,22,Ticks_Phase_8,249,5,42,127,1454240304
677,22,Ticks_Phase_8,250,1,48,27,1455030408
677,22,Ticks_Phase_8,251,5,42,127,1455039868
677,22,Ticks_Phase_8,252,1,48,23,1455829668
677,22,Ticks_Phase_8,253,5,42,127,1455839728
677,22,Ticks_Phase_8,254,5,42,127,1456640568
677,22,Ticks_Phase_8,255,1,48,27,1456654696
677,22,Ticks_Phase_8,256,1,48,29,1457418684
677,22,Ticks_Phase_8,257,5,42,127,1457440124
677,22,Ticks_Phase_8,258,1,48,29,1458227980
677,22,Ticks_Phase_8,259,5,42,127,1458239912
677,22,Ticks_Phase_8,260,1,48,27,1459066572
677,22,Ticks_Phase_8,261,5,42,127,1459200564
677,22,Ticks_Phase_8,262,5,42,127,1460000224
677,22,Ticks_Phase_8,263,1,48,27,1460037188
677,22,Ticks_Phase_8,264,5,42,127,1460799716
677,22,Ticks_Phase_8,265,1,48,28,1460862396
677,22,Ticks_Phase_8,266,5,42,127,1461599676
677,22,Ticks_Phase_8,267,1,48,23,1461621664
677,22,Ticks_Phase_8,268,5,42,127,1462400508
677,22,Ticks_Phase_8,269,1,48,27,1462414184
677,22,Ticks_Phase_8,270,5,42,127,1463200292
677,22,Ticks_Phase_8,271,1,48,27,1463227296
677,22,Ticks_Phase_8,272,1,48,30,1463965820
677,22,Ticks_Phase_8,273,5,42,127,1464000000
677,22,Ticks_Phase_8,274,5,42,127,1464799644
677,22,Ticks_Phase_8,275,1,48,35,1464842528
677,22,Ticks_Phase_8,276,1,48,32,1465580000
677,22,Ticks_Phase_8,277,5,42,127,1465600544
677,22,Ticks_Phase_8,278,5,42,127,1466400336
677,22,Ticks_Phase_8,279,1,48,28,1466403828
677,22,Ticks_Phase_8,280,1,48,31,1467193340
677,22,Ticks_Phase_8,281,5,42,127,1467199744
677,22,Ticks_Phase_8,282,5,42,127,1467999560
677,22,Ticks_Phase_8,283,1,48,29,1468023344
677,22,Ticks_Phase_8,284,1,48,23,1468714728
677,22,Ticks_Phase_8,285,5,42,127,1468800312
677,22,Ticks_Phase_8,286,1,48,18,1469551612
677,22,Ticks_Phase_8,287,5,42,127,1469600320
677,22,Ticks_Phase_8,288,5,42,127,1470399740
677,22,Ticks_Phase_8,289,1,48,32,1470500364
677,22,Ticks_Phase_8,290,5,42,127,1471199676
677,22,Ticks_Phase_8,291,1,48,26,1471201160
677,22,Ticks_Phase_8,292,1,48,25,1471985792
677,22,Ticks_Phase_8,293,5,42,127,1472000428
677,22,Ticks_Phase_8,294,1,48,22,1472703052
677,22,Ticks_Phase_8,295,5,42,127,1472800512
677,22,Ticks_Phase_8,296,5,42,127,1473599712
677,22,Ticks_Phase_8,297,5,42,127,1474239712
677,22,Ticks_Phase_8,298,1,48,27,1474353216
677,22,Ticks_Phase_8,299,1,48,27,1475000292
677,22,Ticks_Phase_8,300,5,42,127,1475039492
677,22,Ticks_Phase_8,301,1,48,27,1475773716
677,22,Ticks_Phase_8,302,5,42,127,1475840400
677,22,Ticks_Phase_8,303,1,48,27,1476578004
677,22,Ticks_Phase_8,304,5,42,127,1476640260
677,22,Ticks_Phase_8,305,1,48,24,1477430880
677,22,Ticks_Phase_8,306,5,42,127,1477439896
677,22,Ticks_Phase_8,307,5,42,127,1478239712
677,22,Ticks_Phase_8,308,1,48,27,1478260960
677,22,Ticks_Phase_8,309,5,42,127,1479040324
677,22,Ticks_Phase_8,310,1,48,18,1479042112
677,22,Ticks_Phase_8,311,5,42,127,1479840260
677,22,Ticks_Phase_8,312,1,48,31,1479844128
677,22,Ticks_Phase_8,313,1,48,33,1480605108
677,22,Ticks_Phase_8,314,5,42,127,1480639816
677,22,Ticks_Phase_8,315,1,48,27,1481432828
677,22,Ticks_Phase_8,316,5,42,127,1481439600
677,22,Ticks_Phase_8,317,5,42,127,1482240364
677,22,Ticks_Phase_8,318,1,48,30,1482277624
677,22,Ticks_Phase_8,319,1,48,27,1483030456
677,22,Ticks_Phase_8,320,5,42,127,1483040220
677,22,Ticks_Phase_8,321,1,48,19,1483835324
677,22,Ticks_Phase_8,322,5,42,127,1483839784
677,22,Ticks_Phase_8,323,1,48,29,1484624032
677,22,Ticks_Phase_8,324,5,42,127,1484639592
677,22,Ticks_Phase_8,325,1,48,19,1485401232
677,22,Ticks_Phase_8,326,5,42,127,1485440352
677,22,Ticks_Phase_8,327,1,48,27,1486211796
677,22,Ticks_Phase_8,328,5,42,127,1486240284
677,22,Ticks_Phase_8,329,1,48,31,1486985892
677,22,Ticks_Phase_8,330,5,42,127,1487039848
677,22,Ticks_Phase_8,331,1,48,31,1487769064
677,22,Ticks_Phase_8,332,5,42,127,1487839712
677,22,Ticks_Phase_8,333,1,48,28,1488564948
677,22,Ticks_Phase_8,334,5,42,127,1488640468
677,22,Ticks_Phase_8,335,1,48,26,1489400316
677,22,Ticks_Phase_8,336,5,42,127,1489440256
677,22,Ticks_Phase_8,0,9999,9999,9999,1354238032
677,22,Ticks_Phase_8,1,9999,9999,9999,1355037768
677,22,Ticks_Phase_8,2,9999,9999,9999,1355837500
677,22,Ticks_Phase_8,3,9999,9999,9999,1356637288
677,22,Ticks_Phase_8,4,9999,9999,9999,1357438072
677,22,Ticks_Phase_8,5,9999,9999,9999,1358237776
677,22,Ticks_Phase_8,6,9999,9999,9999,1359037564
677,22,Ticks_Phase_8,7,9999,9999,9999,1359837280
677,22,Ticks_Phase_8,8,9999,9999,9999,1360638040
677,22,Ticks_Phase_8,9,9999,9999,9999,1361437752
677,22,Ticks_Phase_8,10,9999,9999,9999,1362237536
677,22,Ticks_Phase_8,11,9999,9999,9999,1363037272
677,22,Ticks_Phase_8,12,9999,9999,9999,1363838036
677,22,Ticks_Phase_8,13,9999,9999,9999,1364637816
677,22,Ticks_Phase_8,14,9999,9999,9999,1365437532
677,22,Ticks_Phase_8,15,9999,9999,9999,1366237248
677,22,Ticks_Phase_8,16,9999,9999,9999,1367038004
677,22,Ticks_Phase_8,17,9999,9999,9999,1367837792
677,22,Ticks_Phase_8,18,9999,9999,9999,1368637500
677,22,Ticks_Phase_8,19,9999,9999,9999,1369437240
677,22,Ticks_Phase_8,20,9999,9999,9999,1370238068
677,22,Ticks_Phase_8,21,9999,9999,9999,1371037780
677,22,Ticks_Phase_8,22,9999,9999,9999,1371837564
677,22,Ticks_Phase_8,23,9999,9999,9999,1372637296
677,22,Ticks_Phase_8,24,9999,9999,9999,1373438040
677,22,Ticks_Phase_8,25,9999,9999,9999,1374237748
677,22,Ticks_Phase_8,26,9999,9999,9999,1375037528
677,22,Ticks_Phase_8,27,9999,9999,9999,1375837272
677,22,Ticks_Phase_8,28,9999,9999,9999,1376638032
677,22,Ticks_Phase_8,29,9999,9999,9999,1377437816
677,22,Ticks_Phase_8,30,9999,9999,9999,1378218060
677,22,Ticks_Phase_8,31,9999,9999,9999,1379017844
677,22,Ticks_Phase_8,32,9999,9999,9999,1379817556
677,22,Ticks_Phase_8,33,9999,9999,9999,1380617344
677,22,Ticks_Phase_8,34,9999,9999,9999,1381418100
677,22,Ticks_Phase_8,35,9999,9999,9999,1382217812
677,22,Ticks_Phase_8,36,9999,9999,9999,1383017560
677,22,Ticks_Phase_8,37,9999,9999,9999,1383817272
677,22,Ticks_Phase_8,38,9999,9999,9999,1384618096
677,22,Ticks_Phase_8,39,9999,9999,9999,1385417808
677,22,Ticks_Phase_8,40,9999,9999,9999,1386217592
677,22,Ticks_Phase_8,41,9999,9999,9999,1387017304
677,22,Ticks_Phase_8,42,9999,9999,9999,1387818064
677,22,Ticks_Phase_8,43,9999,9999,9999,1388617852
677,22,Ticks_Phase_8,44,9999,9999,9999,1389417596
677,22,Ticks_Phase_8,45,9999,9999,9999,1390217304
677,22,Ticks_Phase_8,46,9999,9999,9999,1391018056
677,22,Ticks_Phase_8,47,9999,9999,9999,1391817844
677,22,Ticks_Phase_8,48,9999,9999,9999,1392638076
677,22,Ticks_Phase_8,49,9999,9999,9999,1393437788
677,22,Ticks_Phase_8,50,9999,9999,9999,1394237500
677,22,Ticks_Phase_8,51,9999,9999,9999,1395037284
677,22,Ticks_Phase_8,52,9999,9999,9999,1395838044
677,22,Ticks_Phase_8,53,9999,9999,9999,1396637756
677,22,Ticks_Phase_8,54,9999,9999,9999,1397437544
677,22,Ticks_Phase_8,55,9999,9999,9999,1398237264
677,22,Ticks_Phase_8,56,9999,9999,9999,1399038016
677,22,Ticks_Phase_8,57,9999,9999,9999,1399837804
677,22,Ticks_Phase_8,58,9999,9999,9999,1400637516
677,22,Ticks_Phase_8,59,9999,9999,9999,1401437252
677,22,Ticks_Phase_8,60,9999,9999,9999,1402238012
677,22,Ticks_Phase_8,61,9999,9999,9999,1403037800
677,22,Ticks_Phase_8,62,9999,9999,9999,1403837512
677,22,Ticks_Phase_8,63,9999,9999,9999,1404637296
677,22,Ticks_Phase_8,64,9999,9999,9999,1405477972
677,22,Ticks_Phase_8,65,9999,9999,9999,1406277756
677,22,Ticks_Phase_8,66,9999,9999,9999,1407077500
677,22,Ticks_Phase_8,67,9999,9999,9999,1407877216
677,22,Ticks_Phase_8,68,9999,9999,9999,1408677972
677,22,Ticks_Phase_8,69,9999,9999,9999,1409477752
677,22,Ticks_Phase_8,70,9999,9999,9999,1410277448
677,22,Ticks_Phase_8,71,9999,9999,9999,1411077176
677,22,Ticks_Phase_8,72,9999,9999,9999,1411878012
677,22,Ticks_Phase_8,73,9999,9999,9999,1412677720
677,22,Ticks_Phase_8,74,9999,9999,9999,1413477464
677,22,Ticks_Phase_8,75,9999,9999,9999,1414277244
677,22,Ticks_Phase_8,76,9999,9999,9999,1415078000
677,22,Ticks_Phase_8,77,9999,9999,9999,1415877712
677,22,Ticks_Phase_8,78,9999,9999,9999,1416677432
677,22,Ticks_Phase_8,79,9999,9999,9999,1417477220
677,22,Ticks_Phase_8,80,9999,9999,9999,1418277968
677,22,Ticks_Phase_8,81,9999,9999,9999,1419037776
677,22,Ticks_Phase_8,82,9999,9999,9999,1419837556
677,22,Ticks_Phase_8,83,9999,9999,9999,1420637292
677,22,Ticks_Phase_8,84,9999,9999,9999,1421438036
677,22,Ticks_Phase_8,85,9999,9999,9999,1422237760
677,22,Ticks_Phase_8,86,9999,9999,9999,1423037556
677,22,Ticks_Phase_8,87,9999,9999,9999,1423837268
677,22,Ticks_Phase_8,88,9999,9999,9999,1424638076
677,22,Ticks_Phase_8,89,9999,9999,9999,1425437804
677,22,Ticks_Phase_8,90,9999,9999,9999,1426237516
677,22,Ticks_Phase_8,91,9999,9999,9999,1427037252
677,22,Ticks_Phase_8,92,9999,9999,9999,1427838012
677,22,Ticks_Phase_8,93,9999,9999,9999,1428637804
677,22,Ticks_Phase_8,94,9999,9999,9999,1429437516
677,22,Ticks_Phase_8,95,9999,9999,9999,1430237300
677,22,Ticks_Phase_8,96,9999,9999,9999,1431038060
677,22,Ticks_Phase_8,97,9999,9999,9999,1431757940
677,22,Ticks_Phase_8,98,9999,9999,9999,1432557644
677,22,Ticks_Phase_8,99,9999,9999,9999,1433357432
677,22,Ticks_Phase_8,100,9999,9999,9999,1434157144
677,22,Ticks_Phase_8,101,9999,9999,9999,1434957900
677,22,Ticks_Phase_8,102,9999,9999,9999,1435757636
677,22,Ticks_Phase_8,103,9999,9999,9999,1436557424
677,22,Ticks_Phase_8,104,9999,9999,9999,1437357120
677,22,Ticks_Phase_8,105,9999,9999,9999,1438157896
677,22,Ticks_Phase_8,106,9999,9999,9999,1438957688
677,22,Ticks_Phase_8,107,9999,9999,9999,1439757392
677,22,Ticks_Phase_8,108,9999,9999,9999,1440557180
677,22,Ticks_Phase_8,109,9999,9999,9999,1441357940
677,22,Ticks_Phase_8,110,9999,9999,9999,1442157672
677,22,Ticks_Phase_8,111,9999,9999,9999,1442957384
677,22,Ticks_Phase_8,112,9999,9999,9999,1443757172
677,22,Ticks_Phase_8,113,9999,9999,9999,1444557932
677,22,Ticks_Phase_8,114,9999,9999,9999,1445437548
677,22,Ticks_Phase_8,115,9999,9999,9999,1446237288
677,22,Ticks_Phase_8,116,9999,9999,9999,1447038052
677,22,Ticks_Phase_8,117,9999,9999,9999,1447837764
677,22,Ticks_Phase_8,118,9999,9999,9999,1448637548
677,22,Ticks_Phase_8,119,9999,9999,9999,1449437260
677,22,Ticks_Phase_8,120,9999,9999,9999,1450238016
677,22,Ticks_Phase_8,121,9999,9999,9999,1451037804
677,22,Ticks_Phase_8,122,9999,9999,9999,1451837516
677,22,Ticks_Phase_8,123,9999,9999,9999,1452637252
677,22,Ticks_Phase_8,124,9999,9999,9999,1453438016
677,22,Ticks_Phase_8,125,9999,9999,9999,1454237796
677,22,Ticks_Phase_8,126,9999,9999,9999,1455037508
677,22,Ticks_Phase_8,127,9999,9999,9999,1455837292
677,22,Ticks_Phase_8,128,9999,9999,9999,1456638060
677,22,Ticks_Phase_8,129,9999,9999,9999,1457437764
677,22,Ticks_Phase_8,130,9999,9999,9999,1458237552
677,22,Ticks_Phase_8,131,9999,9999,9999,1459198056
677,22,Ticks_Phase_8,132,9999,9999,9999,1459997788
677,22,Ticks_Phase_8,133,9999,9999,9999,1460797504
677,22,Ticks_Phase_8,134,9999,9999,9999,1461597240
677,22,Ticks_Phase_8,135,9999,9999,9999,1462398072
677,22,Ticks_Phase_8,136,9999,9999,9999,1463197784
677,22,Ticks_Phase_8,137,9999,9999,9999,1463997564
677,22,Ticks_Phase_8,138,9999,9999,9999,1464797284
677,22,Ticks_Phase_8,139,9999,9999,9999,1465598036
677,22,Ticks_Phase_8,140,9999,9999,9999,1466397752
677,22,Ticks_Phase_8,141,9999,9999,9999,1467197532
677,22,Ticks_Phase_8,142,9999,9999,9999,1467997276
677,22,Ticks_Phase_8,143,9999,9999,9999,1468798024
677,22,Ticks_Phase_8,144,9999,9999,9999,1469597812
677,22,Ticks_Phase_8,145,9999,9999,9999,1470397528
677,22,Ticks_Phase_8,146,9999,9999,9999,1471197240
677,22,Ticks_Phase_8,147,9999,9999,9999,1471998064
677,22,Ticks_Phase_8,148,9999,9999,9999,1472797780
677,22,Ticks_Phase_8,149,9999,9999,9999,1473597496
677,22,Ticks_Phase_8,150,9999,9999,9999,1474237496
677,22,Ticks_Phase_8,151,9999,9999,9999,1475037280
677,22,Ticks_Phase_8,152,9999,9999,9999,1475838036
677,22,Ticks_Phase_8,153,9999,9999,9999,1476637748
677,22,Ticks_Phase_8,154,9999,9999,9999,1477437536
677,22,Ticks_Phase_8,155,9999,9999,9999,1478237280
677,22,Ticks_Phase_8,156,9999,9999,9999,1479038036
677,22,Ticks_Phase_8,157,9999,9999,9999,1479837824
677,22,Ticks_Phase_8,158,9999,9999,9999,1480637528
677,22,Ticks_Phase_8,159,9999,9999,9999,1481437240
677,22,Ticks_Phase_8,160,9999,9999,9999,1482238080
677,22,Ticks_Phase_8,161,9999,9999,9999,1483037784
677,22,Ticks_Phase_8,162,9999,9999,9999,1483837496
677,22,Ticks_Phase_8,163,9999,9999,9999,1484637308
677,22,Ticks_Phase_8,164,9999,9999,9999,1485438064
677,22,Ticks_Phase_8,165,9999,9999,9999,1486237776
677,22,Ticks_Phase_8,166,9999,9999,9999,1487037564
677,22,Ticks_Phase_8,167,9999,9999,9999,1487837276
677,22,Ticks_Phase_8,168,9999,9999,9999,1488638032
677,22,Ticks_Phase_8,169,9999,9999,9999,1489437820
678,23,Ticks_Phase_5,0,5,42,127,1500049868
678,23,Ticks_Phase_5,1,5,42,127,1500549428
678,23,Ticks_Phase_5,2,1,48,32,1500687112
678,23,Ticks_Phase_5,3,5,42,127,1501050164
678,23,Ticks_Phase_5,4,1,48,37,1501081744
678,23,Ticks_Phase_5,5,5,42,127,1501549852
678,23,Ticks_Phase_5,6,1,48,38,1501561212
678,23,Ticks_Phase_5,7,5,42,127,1502049840
678,23,Ticks_Phase_5,8,1,48,40,1502067704
678,23,Ticks_Phase_5,9,5,42,127,1502550476
678,23,Ticks_Phase_5,10,1,48,40,1502558496
678,23,Ticks_Phase_5,11,1,48,32,1503038824
678,23,Ticks_Phase_5,12,5,42,127,1503050084
678,23,Ticks_Phase_5,13,1,48,41,1503535952
678,23,Ticks_Phase_5,14,5,42,127,1503549992
678,23,Ticks_Phase_5,15,1,48,43,1504030784
678,23,Ticks_Phase_5,16,5,42,127,1504049384
678,23,Ticks_Phase_5,17,1,48,45,1504547912
678,23,Ticks_Phase_5,18,5,42,127,1504550416
678,23,Ticks_Phase_5,19,5,42,127,1505050040
678,23,Ticks_Phase_5,20,1,48,45,1505057344
678,23,Ticks_Phase_5,21,5,42,127,1505549800
678,23,Ticks_Phase_5,22,1,48,43,1505594480
678,23,Ticks_Phase_5,23,5,42,127,1506050532
678,23,Ticks_Phase_5,24,1,48,41,1506068640
678,23,Ticks_Phase_5,25,1,48,37,1506542172
678,23,Ticks_Phase_5,26,5,42,127,1506560400
678,23,Ticks_Phase_5,27,5,42,127,1507059948
678,23,Ticks_Phase_5,28,1,48,38,1507073028
678,23,Ticks_Phase_5,29,5,42,127,1507559932
678,23,Ticks_Phase_5,30,1,48,40,1507584248
678,23,Ticks_Phase_5,31,1,48,42,1508044008
678,23,Ticks_Phase_5,32,5,42,127,1508059616
678,23,Ticks_Phase_5,33,5,42,127,1508560208
678,23,Ticks_Phase_5,34,1,48,41,1508569324
678,23,Ticks_Phase_5,35,5,42,127,1509060048
678,23,Ticks_Phase_5,36,1,48,45,1509063240
678,23,Ticks_Phase_5,37,5,42,127,1509559808
678,23,Ticks_Phase_5,38,1,48,45,1509563456
678,23,Ticks_Phase_5,39,1,48,41,1510058880
678,23,Ticks_Phase_5,40,5,42,127,1510060388
678,23,Ticks_Phase_5,41,1,48,44,1510558644
678,23,Ticks_Phase_5,42,5,42,127,1510560080
678,23,Ticks_Phase_5,43,1,48,42,1511057036
678,23,Ticks_Phase_5,44,5,42,127,1511059920
678,23,Ticks_Phase_5,45,1,48,39,1511540784
678,23,Ticks_Phase_5,46,5,42,127,1511559680
678,23,Ticks_Phase_5,47,1,48,35,1511965252
678,23,Ticks_Phase_5,48,5,42,127,1512060328
678,23,Ticks_Phase_5,49,1,48,30,1512528156
678,23,Ticks_Phase_5,50,5,42,127,1512559956
678,23,Ticks_Phase_5,51,1,48,46,1513046480
678,23,Ticks_Phase_5,52,5,42,127,1513059696
678,23,Ticks_Phase_5,53,1,48,47,1513549372
678,23,Ticks_Phase_5,54,5,42,127,1513560580
678,23,Ticks_Phase_5,55,1,48,45,1514063728
678,23,Ticks_Phase_5,56,5,42,127,1514070428
678,23,Ticks_Phase_5,57,1,48,48,1514563772
678,23,Ticks_Phase_5,58,5,42,127,1514570168
678,23,Ticks_Phase_5,59,5,42,127,1515059456
678,23,Ticks_Phase_5,60,1,48,41,1515078604
678,23,Ticks_Phase_5,61,1,48,46,1515553412
678,23,Ticks_Phase_5,62,5,42,127,1515560260
678,23,Ticks_Phase_5,63,1,48,49,1516045980
678,23,Ticks_Phase_5,64,5,42,127,1516059948
678,23,Ticks_Phase_5,65,5,42,127,1516559864
678,23,Ticks_Phase_5,66,1,48,46,1516575708
678,23,Ticks_Phase_5,67,5,42,127,1517059556
678,23,Ticks_Phase_5,68,1,48,46,1517076676
678,23,Ticks_Phase_5,69,1,48,44,1517559844
678,23,Ticks_Phase_5,70,5,42,127,1517561328
678,23,Ticks_Phase_5,71,1,48,43,1518033204
678,23,Ticks_Phase_5,72,5,42,127,1518059968
678,23,Ticks_Phase_5,73,5,42,127,1518559888
678,23,Ticks_Phase_5,74,1,48,47,1518571772
678,23,Ticks_Phase_5,75,1,48,48,1519036920
678,23,Ticks_Phase_5,76,5,42,127,1519060392
678,23,Ticks_Phase_5,77,1,48,46,1519513544
678,23,Ticks_Phase_5,78,5,42,127,1519559932
678,23,Ticks_Phase_5,79,1,48,47,1520038776
678,23,Ticks_Phase_5,80,5,42,127,1520059996
678,23,Ticks_Phase_5,81,1,48,39,1520539664
678,23,Ticks_Phase_5,82,5,42,127,1520559680
678,23,Ticks_Phase_5,83,5,42,127,1521060200
678,23,Ticks_Phase_5,84,1,48,38,1521063320
678,23,Ticks_Phase_5,85,1,48,50,1521517700
678,23,Ticks_Phase_5,86,5,42,127,1521560032
678,23,Ticks_Phase_5,87,5,42,127,1522059800
678,23,Ticks_Phase_5,88,1,48,51,1522066588
678,23,Ticks_Phase_5,89,1,48,46,1522540956
678,23,Ticks_Phase_5,90,5,42,127,1522560304
678,23,Ticks_Phase_5,91,1,48,48,1523022564
678,23,Ticks_Phase_5,92,5,42,127,1523060140
678,23,Ticks_Phase_5,93,1,48,47,1523520308
678,23,Ticks_Phase_5,94,5,42,127,1523559828
678,23,Ticks_Phase_5,95,1,48,48,1524048016
678,23,Ticks_Phase_5,96,5,42,127,1524069780
678,23,Ticks_Phase_5,97,1,48,46,1524562224
678,23,Ticks_Phase_5,98,5,42,127,1524569468
678,23,Ticks_Phase_5,99,1,48,47,1525052700
678,23,Ticks_Phase_5,100,5,42,127,1525070176
678,23,Ticks_Phase_5,101,1,48,49,1525525420
678,23,Ticks_Phase_5,102,5,42,127,1525570016
678,23,Ticks_Phase_5,103,1,48,48,1526066452
678,23,Ticks_Phase_5,104,5,42,127,1526070076
678,23,Ticks_Phase_5,105,1,48,51,1526556472
678,23,Ticks_Phase_5,106,5,42,127,1526570364
678,23,Ticks_Phase_5,107,1,48,49,1527023892
678,23,Ticks_Phase_5,108,5,42,127,1527069980
678,23,Ticks_Phase_5,109,1,48,53,1527550096
678,23,Ticks_Phase_5,110,5,42,127,1527569744
678,23,Ticks_Phase_5,111,1,48,46,1528033004
678,23,Ticks_Phase_5,112,5,42,127,1528069804
678,23,Ticks_Phase_5,113,1,48,43,1528518468
678,23,Ticks_Phase_5,114,5,42,127,1528570316
678,23,Ticks_Phase_5,115,1,48,46,1528986392
678,23,Ticks_Phase_5,116,5,42,127,1529069928
678,23,Ticks_Phase_5,117,1,48,46,1529566812
678,23,Ticks_Phase_5,118,5,42,127,1529569840
678,23,Ticks_Phase_5,119,1,48,43,1530038124
678,23,Ticks_Phase_5,120,5,42,127,1530070576
678,23,Ticks_Phase_5,121,1,48,45,1530526716
678,23,Ticks_Phase_5,122,5,42,127,1530570116
678,23,Ticks_Phase_5,123,1,48,48,1531005588
678,23,Ticks_Phase_5,124,5,42,127,1531069804
678,23,Ticks_Phase_5,125,1,48,46,1531530748
678,23,Ticks_Phase_5,126,5,42,127,1531569792
678,23,Ticks_Phase_5,127,1,48,52,1532014928
678,23,Ticks_Phase_5,128,5,42,127,1532089700
678,23,Ticks_Phase_5,129,1,48,46,1532567636
678,23,Ticks_Phase_5,130,5,42,127,1532589536
678,23,Ticks_Phase_5,131,1,48,49,1533030112
678,23,Ticks_Phase_5,132,5,42,127,1533090048
678,23,Ticks_Phase_5,133,1,48,48,1533555328
678,23,Ticks_Phase_5,134,5,42,127,1533589960
678,23,Ticks_Phase_5,135,1,48,45,1534070300
678,23,Ticks_Phase_5,136,5,42,127,1534089576
678,23,Ticks_Phase_5,137,1,48,43,1534573132
678,23,Ticks_Phase_5,138,5,42,127,1534590684
678,23,Ticks_Phase_5,139,1,48,40,1535078068
678,23,Ticks_Phase_5,140,5,42,127,1535090000
678,23,Ticks_Phase_5,141,1,48,32,1535545216
678,23,Ticks_Phase_5,142,5,42,127,1535589688
678,23,Ticks_Phase_5,143,1,48,49,1536076284
678,23,Ticks_Phase_5,144,5,42,127,1536089524
678,23,Ticks_Phase_5,145,1,48,40,1536586748
678,23,Ticks_Phase_5,146,5,42,127,1536590160
678,23,Ticks_Phase_5,147,1,48,39,1537062856
678,23,Ticks_Phase_5,148,5,42,127,1537089852
678,23,Ticks_Phase_5,149,5,42,127,1537589768
678,23,Ticks_Phase_5,150,1,48,45,1538051844
678,23,Ticks_Phase_5,151,5,42,127,1538090368
678,23,Ticks_Phase_5,152,1,48,38,1538532664
678,23,Ticks_Phase_5,153,5,42,127,1538590060
678,23,Ticks_Phase_5,154,1,48,44,1539062680
678,23,Ticks_Phase_5,155,5,42,127,1539089748
678,23,Ticks_Phase_5,156,1,48,32,1539527536
678,23,Ticks_Phase_5,157,5,42,127,1539589880
678,23,Ticks_Phase_5,158,1,48,41,1540022368
678,23,Ticks_Phase_5,159,5,42,127,1540090244
678,23,Ticks_Phase_5,160,5,42,127,1540569496
678,23,Ticks_Phase_5,161,1,48,40,1540586384
678,23,Ticks_Phase_5,162,1,48,44,1541032896
678,23,Ticks_Phase_5,163,5,42,127,1541070148
678,23,Ticks_Phase_5,164,1,48,28,1541524796
678,23,Ticks_Phase_5,165,5,42,127,1541569764
678,23,Ticks_Phase_5,166,1,48,50,1542030484
678,23,Ticks_Phase_5,167,5,42,127,1542069524
678,23,Ticks_Phase_5,168,1,48,41,1542506416
678,23,Ticks_Phase_5,169,5,42,127,1542570484
678,23,Ticks_Phase_5,170,1,48,40,1543029936
678,23,Ticks_Phase_5,171,5,42,127,1543069952
678,23,Ticks_Phase_5,172,1,48,38,1543524220
678,23,Ticks_Phase_5,173,5,42,127,1543569640
678,23,Ticks_Phase_5,174,1,48,48,1544012652
678,23,Ticks_Phase_5,175,5,42,127,1544069624
678,23,Ticks_Phase_5,176,1,48,48,1544545836
678,23,Ticks_Phase_5,177,5,42,127,1544570356
678,23,Ticks_Phase_5,178,1,48,48,1544998704
678,23,Ticks_Phase_5,179,5,42,127,1545070044
678,23,Ticks_Phase_5,180,1,48,43,1545566408
678,23,Ticks_Phase_5,181,5,42,127,1545569584
678,23,Ticks_Phase_5,182,5,42,127,1546070476
678,23,Ticks_Phase_5,183,1,48,43,1546077796
678,23,Ticks_Phase_5,184,1,48,31,1546562616
678,23,Ticks_Phase_5,185,5,42,127,1546570060
678,23,Ticks_Phase_5,186,1,48,45,1547029880
678,23,Ticks_Phase_5,187,5,42,127,1547069748
678,23,Ticks_Phase_5,188,5,42,127,1547569516
678,23,Ticks_Phase_5,189,1,48,47,1547572560
678,23,Ticks_Phase_5,190,1,48,40,1548062800
678,23,Ticks_Phase_5,191,5,42,127,1548070396
678,23,Ticks_Phase_5,192,5,42,127,1548519768
678,23,Ticks_Phase_5,193,1,48,40,1548566988
678,23,Ticks_Phase_5,194,5,42,127,1549019456
678,23,Ticks_Phase_5,195,1,48,40,1549067664
678,23,Ticks_Phase_5,196,1,48,40,1549504496
678,23,Ticks_Phase_5,197,5,42,127,1549520256
678,23,Ticks_Phase_5,198,1,48,38,1550001940
678,23,Ticks_Phase_5,199,5,42,127,1550019944
678,23,Ticks_Phase_5,200,1,48,44,1550476984
678,23,Ticks_Phase_5,201,5,42,127,1550519632
678,23,Ticks_Phase_5,202,1,48,43,1550998924
678,23,Ticks_Phase_5,203,5,42,127,1551020516
678,23,Ticks_Phase_5,204,1,48,34,1551480412
678,23,Ticks_Phase_5,205,5,42,127,1551520056
678,23,Ticks_Phase_5,206,1,48,40,1552002120
678,23,Ticks_Phase_5,207,5,42,127,1552019892
678,23,Ticks_Phase_5,208,1,48,29,1552507712
678,23,Ticks_Phase_5,209,5,42,127,1552519580
678,23,Ticks_Phase_5,210,1,48,37,1552999624
678,23,Ticks_Phase_5,211,5,42,127,1553020392
678,23,Ticks_Phase_5,212,1,48,34,1553491272
678,23,Ticks_Phase_5,213,5,42,127,1553519932
678,23,Ticks_Phase_5,214,1,48,49,1553948200
678,23,Ticks_Phase_5,215,5,42,127,1554019692
678,23,Ticks_Phase_5,216,1,48,43,1554497604
678,23,Ticks_Phase_5,217,5,42,127,1554520428
678,23,Ticks_Phase_5,218,1,48,38,1555000964
678,23,Ticks_Phase_5,219,5,42,127,1555030452
678,23,Ticks_Phase_5,220,1,48,33,1555519976
678,23,Ticks_Phase_5,221,5,42,127,1555530188
678,23,Ticks_Phase_5,222,1,48,32,1556006696
678,23,Ticks_Phase_5,223,5,42,127,1556029800
678,23,Ticks_Phase_5,224,1,48,38,1556516420
678,23,Ticks_Phase_5,225,5,42,127,1556529488
678,23,Ticks_Phase_5,226,1,48,42,1556981664
678,23,Ticks_Phase_5,227,5,42,127,1557080632
678,23,Ticks_Phase_5,228,1,48,34,1557529740
678,23,Ticks_Phase_5,229,5,42,127,1557590520
678,23,Ticks_Phase_5,230,1,48,31,1558070236
678,23,Ticks_Phase_5,231,5,42,127,1558090184
678,23,Ticks_Phase_5,232,1,48,36,1558574192
678,23,Ticks_Phase_5,233,5,42,127,1558589872
678,23,Ticks_Phase_5,234,1,48,37,1559060928
678,23,Ticks_Phase_5,235,5,42,127,1559089412
678,23,Ticks_Phase_5,236,1,48,38,1559563384
678,23,Ticks_Phase_5,237,5,42,127,1559590220
678,23,Ticks_Phase_5,238,1,48,35,1560069588
678,23,Ticks_Phase_5,239,5,42,127,1560089908
678,23,Ticks_Phase_5,240,1,48,36,1560588164
678,23,Ticks_Phase_5,241,5,42,127,1560589672
678,23,Ticks_Phase_5,242,1,48,41,1561083856
678,23,Ticks_Phase_5,243,5,42,127,1561090408
678,23,Ticks_Phase_5,244,5,42,127,1561600364
678,23,Ticks_Phase_5,245,1,48,39,1561603256
678,23,Ticks_Phase_5,246,5,42,127,1562100124
678,23,Ticks_Phase_5,247,1,48,31,1562120092
678,23,Ticks_Phase_5,248,5,42,127,1562599888
678,23,Ticks_Phase_5,249,1,48,36,1562612144
678,23,Ticks_Phase_5,250,1,48,42,1563098368
678,23,Ticks_Phase_5,251,5,42,127,1563099940
678,23,Ticks_Phase_5,252,1,48,40,1563579084
678,23,Ticks_Phase_5,253,5,42,127,1563600376
678,23,Ticks_Phase_5,254,1,48,35,1564076516
678,23,Ticks_Phase_5,255,5,42,127,1564100064
678,23,Ticks_Phase_5,256,1,48,42,1564581156
678,23,Ticks_Phase_5,257,5,42,127,1564599756
678,23,Ticks_Phase_5,258,1,48,42,1565038388
678,23,Ticks_Phase_5,259,5,42,127,1565100272
678,23,Ticks_Phase_5,260,1,48,30,1565602104
678,23,Ticks_Phase_5,261,5,42,127,1565699472
678,23,Ticks_Phase_5,262,1,48,38,1566125224
678,23,Ticks_Phase_5,263,5,42,127,1566200368
678,23,Ticks_Phase_5,264,5,42,127,1566699840
678,23,Ticks_Phase_5,265,1,48,29,1566792448
678,23,Ticks_Phase_5,266,5,42,127,1567199528
678,23,Ticks_Phase_5,267,1,48,32,1567205860
678,23,Ticks_Phase_5,268,5,42,127,1567700264
678,23,Ticks_Phase_5,269,1,48,28,1567725244
678,23,Ticks_Phase_5,270,5,42,127,1568200176
678,23,Ticks_Phase_5,271,1,48,28,1568231456
678,23,Ticks_Phase_5,272,1,48,32,1568669052
678,23,Ticks_Phase_5,273,5,42,127,1568699632
678,23,Ticks_Phase_5,274,1,48,36,1569139012
678,23,Ticks_Phase_5,275,5,42,127,1569199396
678,23,Ticks_Phase_5,276,1,48,37,1569675608
678,23,Ticks_Phase_5,277,5,42,127,1569700204
678,23,Ticks_Phase_5,278,1,48,37,1570130048
678,23,Ticks_Phase_5,279,5,42,127,1570200040
678,23,Ticks_Phase_5,280,1,48,39,1570682324
678,23,Ticks_Phase_5,281,5,42,127,1570699580
678,23,Ticks_Phase_5,282,1,48,41,1571173700
678,23,Ticks_Phase_5,283,5,42,127,1571200316
678,23,Ticks_Phase_5,284,1,48,35,1571673608
678,23,Ticks_Phase_5,285,5,42,127,1571700300
678,23,Ticks_Phase_5,286,1,48,42,1572164736
678,23,Ticks_Phase_5,287,5,42,127,1572199912
678,23,Ticks_Phase_5,288,1,48,38,1572665240
678,23,Ticks_Phase_5,289,5,42,127,1572699604
678,23,Ticks_Phase_5,290,1,48,46,1573156316
678,23,Ticks_Phase_5,291,5,42,127,1573200164
678,23,Ticks_Phase_5,292,1,48,35,1573686936
678,23,Ticks_Phase_5,293,5,42,127,1573700000
678,23,Ticks_Phase_5,294,1,48,30,1574197180
678,23,Ticks_Phase_5,295,5,42,127,1574199688
678,23,Ticks_Phase_5,296,5,42,127,1574700432
678,23,Ticks_Phase_5,297,1,48,39,1574708872
678,23,Ticks_Phase_5,298,5,42,127,1575099696
678,23,Ticks_Phase_5,299,1,48,38,1575207428
678,23,Ticks_Phase_5,300,5,42,127,1575599608
678,23,Ticks_Phase_5,301,1,48,13,1575844336
678,23,Ticks_Phase_5,302,5,42,127,1576100344
678,23,Ticks_Phase_5,303,1,48,26,1576197380
678,23,Ticks_Phase_5,304,1,48,34,1576588916
678,23,Ticks_Phase_5,305,5,42,127,1576599800
678,23,Ticks_Phase_5,306,1,48,35,1577043268
678,23,Ticks_Phase_5,307,5,42,127,1577099688
678,23,Ticks_Phase_5,308,5,42,127,1577600356
678,23,Ticks_Phase_5,309,1,48,38,1577609324
678,23,Ticks_Phase_5,310,5,42,127,1578100268
678,23,Ticks_Phase_5,311,1,48,37,1578127584
678,23,Ticks_Phase_5,312,5,42,127,1578599808
678,23,Ticks_Phase_5,313,1,48,37,1578641420
678,23,Ticks_Phase_5,314,5,42,127,1579099496
678,23,Ticks_Phase_5,315,1,48,30,1579198248
678,23,Ticks_Phase_5,316,5,42,127,1579600204
678,23,Ticks_Phase_5,317,1,48,33,1579684900
678,23,Ticks_Phase_5,318,5,42,127,1580100116
678,23,Ticks_Phase_5,319,1,48,37,1580121608
678,23,Ticks_Phase_5,320,5,42,127,1580599656
678,23,Ticks_Phase_5,321,1,48,39,1580622168
678,23,Ticks_Phase_5,322,1,48,36,1581090320
678,23,Ticks_Phase_5,323,5,42,127,1581100384
678,23,Ticks_Phase_5,324,1,48,37,1581578408
678,23,Ticks_Phase_5,325,5,42,127,1581600220
678,23,Ticks_Phase_5,326,1,48,30,1582088948
678,23,Ticks_Phase_5,327,5,42,127,1582100204
678,23,Ticks_Phase_5,328,1,48,39,1582558236
678,23,Ticks_Phase_5,329,5,42,127,1582599448
678,23,Ticks_Phase_5,330,1,48,31,1583091316
678,23,Ticks_Phase_5,331,5,42,127,1583100260
678,23,Ticks_Phase_5,332,1,48,26,1583585080
678,23,Ticks_Phase_5,333,5,42,127,1583600168
678,23,Ticks_Phase_5,334,5,42,127,1584099640
678,23,Ticks_Phase_5,335,1,48,31,1584108084
678,23,Ticks_Phase_5,336,5,42,127,1584600452
678,23,Ticks_Phase_5,0,9999,9999,9999,1500047432
678,23,Ticks_Phase_5,1,9999,9999,9999,1500547144
678,23,Ticks_Phase_5,2,9999,9999,9999,1501047876
678,23,Ticks_Phase_5,3,9999,9999,9999,1501547640
678,23,Ticks_Phase_5,4,9999,9999,9999,1502047328
678,23,Ticks_Phase_5,5,9999,9999,9999,1502548040
678,23,Ticks_Phase_5,6,9999,9999,9999,1503047796
678,23,Ticks_Phase_5,7,9999,9999,9999,1503547484
678,23,Ticks_Phase_5,8,9999,9999,9999,1504047172
678,23,Ticks_Phase_5,9,9999,9999,9999,1504547980
678,23,Ticks_Phase_5,10,9999,9999,9999,1505047676
678,23,Ticks_Phase_5,11,9999,9999,9999,1505547364
678,23,Ticks_Phase_5,12,9999,9999,9999,1506048100
678,23,Ticks_Phase_5,13,9999,9999,9999,1506558040
678,23,Ticks_Phase_5,14,9999,9999,9999,1507057736
678,23,Ticks_Phase_5,15,9999,9999,9999,1507557496
678,23,Ticks_Phase_5,16,9999,9999,9999,1508057180
678,23,Ticks_Phase_5,17,9999,9999,9999,1508557920
678,23,Ticks_Phase_5,18,9999,9999,9999,1509057612
678,23,Ticks_Phase_5,19,9999,9999,9999,1509557372
678,23,Ticks_Phase_5,20,9999,9999,9999,1510058108
678,23,Ticks_Phase_5,21,9999,9999,9999,1510557796
678,23,Ticks_Phase_5,22,9999,9999,9999,1511057484
678,23,Ticks_Phase_5,23,9999,9999,9999,1511557248
678,23,Ticks_Phase_5,24,9999,9999,9999,1512057980
678,23,Ticks_Phase_5,25,9999,9999,9999,1512557672
678,23,Ticks_Phase_5,26,9999,9999,9999,1513057336
678,23,Ticks_Phase_5,27,9999,9999,9999,1513558128
678,23,Ticks_Phase_5,28,9999,9999,9999,1514068068
678,23,Ticks_Phase_5,29,9999,9999,9999,1514567804
678,23,Ticks_Phase_5,30,9999,9999,9999,1515057244
678,23,Ticks_Phase_5,31,9999,9999,9999,1515557972
678,23,Ticks_Phase_5,32,9999,9999,9999,1516057660
678,23,Ticks_Phase_5,33,9999,9999,9999,1516557428
678,23,Ticks_Phase_5,34,9999,9999,9999,1517057120
678,23,Ticks_Phase_5,35,9999,9999,9999,1517557852
678,23,Ticks_Phase_5,36,9999,9999,9999,1518057536
678,23,Ticks_Phase_5,37,9999,9999,9999,1518557304
678,23,Ticks_Phase_5,38,9999,9999,9999,1519058032
678,23,Ticks_Phase_5,39,9999,9999,9999,1519557720
678,23,Ticks_Phase_5,40,9999,9999,9999,1520057412
678,23,Ticks_Phase_5,41,9999,9999,9999,1520557172
678,23,Ticks_Phase_5,42,9999,9999,9999,1521057912
678,23,Ticks_Phase_5,43,9999,9999,9999,1521557596
678,23,Ticks_Phase_5,44,9999,9999,9999,1522057292
678,23,Ticks_Phase_5,45,9999,9999,9999,1522558020
678,23,Ticks_Phase_5,46,9999,9999,9999,1523057780
678,23,Ticks_Phase_5,47,9999,9999,9999,1523557468
678,23,Ticks_Phase_5,48,9999,9999,9999,1524067420
678,23,Ticks_Phase_5,49,9999,9999,9999,1524567104
678,23,Ticks_Phase_5,50,9999,9999,9999,1525067892
678,23,Ticks_Phase_5,51,9999,9999,9999,1525567580
678,23,Ticks_Phase_5,52,9999,9999,9999,1526067268
678,23,Ticks_Phase_5,53,9999,9999,9999,1526568004
678,23,Ticks_Phase_5,54,9999,9999,9999,1527067768
678,23,Ticks_Phase_5,55,9999,9999,9999,1527567456
678,23,Ticks_Phase_5,56,9999,9999,9999,1528067144
678,23,Ticks_Phase_5,57,9999,9999,9999,1528567880
678,23,Ticks_Phase_5,58,9999,9999,9999,1529067644
678,23,Ticks_Phase_5,59,9999,9999,9999,1529567332
678,23,Ticks_Phase_5,60,9999,9999,9999,1530068064
678,23,Ticks_Phase_5,61,9999,9999,9999,1530567756
678,23,Ticks_Phase_5,62,9999,9999,9999,1531067520
678,23,Ticks_Phase_5,63,9999,9999,9999,1531567204
678,23,Ticks_Phase_5,64,9999,9999,9999,1532087416
678,23,Ticks_Phase_5,65,9999,9999,9999,1532587104
678,23,Ticks_Phase_5,66,9999,9999,9999,1533087836
678,23,Ticks_Phase_5,67,9999,9999,9999,1533587528
678,23,Ticks_Phase_5,68,9999,9999,9999,1534087288
678,23,Ticks_Phase_5,69,9999,9999,9999,1534588024
678,23,Ticks_Phase_5,70,9999,9999,9999,1535087712
678,23,Ticks_Phase_5,71,9999,9999,9999,1535587404
678,23,Ticks_Phase_5,72,9999,9999,9999,1536087164
678,23,Ticks_Phase_5,73,9999,9999,9999,1536587872
678,23,Ticks_Phase_5,74,9999,9999,9999,1537087564
678,23,Ticks_Phase_5,75,9999,9999,9999,1537587260
678,23,Ticks_Phase_5,76,9999,9999,9999,1538088008
678,23,Ticks_Phase_5,77,9999,9999,9999,1538587772
678,23,Ticks_Phase_5,78,9999,9999,9999,1539087460
678,23,Ticks_Phase_5,79,9999,9999,9999,1539587148
678,23,Ticks_Phase_5,80,9999,9999,9999,1540087884
678,23,Ticks_Phase_5,81,9999,9999,9999,1540567132
678,23,Ticks_Phase_5,82,9999,9999,9999,1541067864
678,23,Ticks_Phase_5,83,9999,9999,9999,1541567552
678,23,Ticks_Phase_5,84,9999,9999,9999,1542067312
678,23,Ticks_Phase_5,85,9999,9999,9999,1542568048
678,23,Ticks_Phase_5,86,9999,9999,9999,1543067736
678,23,Ticks_Phase_5,87,9999,9999,9999,1543567428
678,23,Ticks_Phase_5,88,9999,9999,9999,1544067188
678,23,Ticks_Phase_5,89,9999,9999,9999,1544567924
678,23,Ticks_Phase_5,90,9999,9999,9999,1545067612
678,23,Ticks_Phase_5,91,9999,9999,9999,1545567300
678,23,Ticks_Phase_5,92,9999,9999,9999,1546068088
678,23,Ticks_Phase_5,93,9999,9999,9999,1546567772
678,23,Ticks_Phase_5,94,9999,9999,9999,1547067460
678,23,Ticks_Phase_5,95,9999,9999,9999,1547567228
678,23,Ticks_Phase_5,96,9999,9999,9999,1548067956
678,23,Ticks_Phase_5,97,9999,9999,9999,1548517480
678,23,Ticks_Phase_5,98,9999,9999,9999,1549017168
678,23,Ticks_Phase_5,99,9999,9999,9999,1549517896
678,23,Ticks_Phase_5,100,9999,9999,9999,1550017660
678,23,Ticks_Phase_5,101,9999,9999,9999,1550517348
678,23,Ticks_Phase_5,102,9999,9999,9999,1551018080
678,23,Ticks_Phase_5,103,9999,9999,9999,1551517768
678,23,Ticks_Phase_5,104,9999,9999,9999,1552017532
678,23,Ticks_Phase_5,105,9999,9999,9999,1552517220
678,23,Ticks_Phase_5,106,9999,9999,9999,1553017956
678,23,Ticks_Phase_5,107,9999,9999,9999,1553517644
678,23,Ticks_Phase_5,108,9999,9999,9999,1554017404
678,23,Ticks_Phase_5,109,9999,9999,9999,1554518140
678,23,Ticks_Phase_5,110,9999,9999,9999,1555028064
678,23,Ticks_Phase_5,111,9999,9999,9999,1555527752
678,23,Ticks_Phase_5,112,9999,9999,9999,1556027516
678,23,Ticks_Phase_5,113,9999,9999,9999,1556527200
678,23,Ticks_Phase_5,114,9999,9999,9999,1557078080
678,23,Ticks_Phase_5,115,9999,9999,9999,1557588068
678,23,Ticks_Phase_5,116,9999,9999,9999,1558087748
678,23,Ticks_Phase_5,117,9999,9999,9999,1558587512
678,23,Ticks_Phase_5,118,9999,9999,9999,1559087200
678,23,Ticks_Phase_5,119,9999,9999,9999,1559587936
678,23,Ticks_Phase_5,120,9999,9999,9999,1560087624
678,23,Ticks_Phase_5,121,9999,9999,9999,1560587392
678,23,Ticks_Phase_5,122,9999,9999,9999,1561088120
678,23,Ticks_Phase_5,123,9999,9999,9999,1561598076
678,23,Ticks_Phase_5,124,9999,9999,9999,1562097764
678,23,Ticks_Phase_5,125,9999,9999,9999,1562597452
678,23,Ticks_Phase_5,126,9999,9999,9999,1563097212
678,23,Ticks_Phase_5,127,9999,9999,9999,1563597940
678,23,Ticks_Phase_5,128,9999,9999,9999,1564097632
678,23,Ticks_Phase_5,129,9999,9999,9999,1564597320
678,23,Ticks_Phase_5,130,9999,9999,9999,1565098060
678,23,Ticks_Phase_5,131,9999,9999,9999,1565697144
678,23,Ticks_Phase_5,132,9999,9999,9999,1566197860
678,23,Ticks_Phase_5,133,9999,9999,9999,1566697552
678,23,Ticks_Phase_5,134,9999,9999,9999,1567197240
678,23,Ticks_Phase_5,135,9999,9999,9999,1567697976
678,23,Ticks_Phase_5,136,9999,9999,9999,1568197740
678,23,Ticks_Phase_5,137,9999,9999,9999,1568697420
678,23,Ticks_Phase_5,138,9999,9999,9999,1569197108
678,23,Ticks_Phase_5,139,9999,9999,9999,1569697920
678,23,Ticks_Phase_5,140,9999,9999,9999,1570197604
678,23,Ticks_Phase_5,141,9999,9999,9999,1570697296
678,23,Ticks_Phase_5,142,9999,9999,9999,1571198028
678,23,Ticks_Phase_5,143,9999,9999,9999,1571697792
678,23,Ticks_Phase_5,144,9999,9999,9999,1572197480
678,23,Ticks_Phase_5,145,9999,9999,9999,1572697168
678,23,Ticks_Phase_5,146,9999,9999,9999,1573197876
678,23,Ticks_Phase_5,147,9999,9999,9999,1573697640
678,23,Ticks_Phase_5,148,9999,9999,9999,1574197328
678,23,Ticks_Phase_5,149,9999,9999,9999,1574698068
678,23,Ticks_Phase_5,150,9999,9999,9999,1575097408
678,23,Ticks_Phase_5,151,9999,9999,9999,1575597172
678,23,Ticks_Phase_5,152,9999,9999,9999,1576097908
678,23,Ticks_Phase_5,153,9999,9999,9999,1576597588
678,23,Ticks_Phase_5,154,9999,9999,9999,1577097328
678,23,Ticks_Phase_5,155,9999,9999,9999,1577598068
678,23,Ticks_Phase_5,156,9999,9999,9999,1578097756
678,23,Ticks_Phase_5,157,9999,9999,9999,1578597444
678,23,Ticks_Phase_5,158,9999,9999,9999,1579097208
678,23,Ticks_Phase_5,159,9999,9999,9999,1579597916
678,23,Ticks_Phase_5,160,9999,9999,9999,1580097608
678,23,Ticks_Phase_5,161,9999,9999,9999,1580597368
678,23,Ticks_Phase_5,162,9999,9999,9999,1581098096
678,23,Ticks_Phase_5,163,9999,9999,9999,1581597784
678,23,Ticks_Phase_5,164,9999,9999,9999,1582097472
678,23,Ticks_Phase_5,165,9999,9999,9999,1582597236
678,23,Ticks_Phase_5,166,9999,9999,9999,1583097972
678,23,Ticks_Phase_5,167,9999,9999,9999,1583597660
678,23,Ticks_Phase_5,168,9999,9999,9999,1584097356
678,23,Ticks_Phase_5,169,9999,9999,9999,1584598088
679,9,Ticks_ISO_T2_8,0,5,42,127,1596190040
679,9,Ticks_ISO_T2_8,1,1,48,31,1596416828
679,9,Ticks_ISO_T2_8,2,5,42,127,1596989924
679,9,Ticks_ISO_T2_8,3,1,48,38,1596993040
679,9,Ticks_ISO_T2_8,4,1,48,37,1597743464
679,9,Ticks_ISO_T2_8,5,5,42,127,1597789452
679,9,Ticks_ISO_T2_8,6,1,48,39,1598578756
679,9,Ticks_ISO_T2_8,7,5,42,127,1598590452
679,9,Ticks_ISO_T2_8,8,5,42,127,1599390120
679,9,Ticks_ISO_T2_8,9,1,48,36,1599442604
679,9,Ticks_ISO_T2_8,10,1,48,36,1600179716
679,9,Ticks_ISO_T2_8,11,5,42,127,1600190068
679,9,Ticks_ISO_T2_8,12,5,42,127,1600989660
679,9,Ticks_ISO_T2_8,13,1,48,39,1601007744
679,9,Ticks_ISO_T2_8,14,1,48,26,1601763148
679,9,Ticks_ISO_T2_8,15,5,42,127,1601790484
679,9,Ticks_ISO_T2_8,16,5,42,127,1602590000
679,9,Ticks_ISO_T2_8,17,1,48,34,1602598208
679,9,Ticks_ISO_T2_8,18,1,48,37,1603361716
679,9,Ticks_ISO_T2_8,19,5,42,127,1603390100
679,9,Ticks_ISO_T2_8,20,1,48,37,1604147164
679,9,Ticks_ISO_T2_8,21,5,42,127,1604189484
679,9,Ticks_ISO_T2_8,22,1,48,32,1604934180
679,9,Ticks_ISO_T2_8,23,5,42,127,1604990264
679,9,Ticks_ISO_T2_8,24,1,48,42,1605751892
679,9,Ticks_ISO_T2_8,25,5,42,127,1605790000
679,9,Ticks_ISO_T2_8,26,5,42,127,1606589960
679,9,Ticks_ISO_T2_8,27,1,48,39,1606604744
679,9,Ticks_ISO_T2_8,28,5,42,127,1607389992
679,9,Ticks_ISO_T2_8,29,1,48,41,1607443076
679,9,Ticks_ISO_T2_8,30,5,42,127,1608190252
679,9,Ticks_ISO_T2_8,31,1,48,36,1608214456
679,9,Ticks_ISO_T2_8,32,5,42,127,1608989984
679,9,Ticks_ISO_T2_8,33,1,48,42,1609001108
679,9,Ticks_ISO_T2_8,34,5,42,127,1609789944
679,9,Ticks_ISO_T2_8,35,1,48,40,1609808024
679,9,Ticks_ISO_T2_8,36,5,42,127,1610589776
679,9,Ticks_ISO_T2_8,37,1,48,32,1610626628
679,9,Ticks_ISO_T2_8,38,5,42,127,1611390256
679,9,Ticks_ISO_T2_8,39,1,48,35,1611431744
679,9,Ticks_ISO_T2_8,40,5,42,127,1612189992
679,9,Ticks_ISO_T2_8,41,1,48,32,1612202308
679,9,Ticks_ISO_T2_8,42,5,42,127,1612989800
679,9,Ticks_ISO_T2_8,43,1,48,24,1613067040
679,9,Ticks_ISO_T2_8,44,5,42,127,1613789828
679,9,Ticks_ISO_T2_8,45,1,48,30,1613823020
679,9,Ticks_ISO_T2_8,46,1,48,41,1614540832
679,9,Ticks_ISO_T2_8,47,5,42,127,1614590232
679,9,Ticks_ISO_T2_8,48,1,48,44,1615351860
679,9,Ticks_ISO_T2_8,49,5,42,127,1615389964
679,9,Ticks_ISO_T2_8,50,1,48,46,1616162584
679,9,Ticks_ISO_T2_8,51,5,42,127,1616189772
679,9,Ticks_ISO_T2_8,52,1,48,42,1616894180
679,9,Ticks_ISO_T2_8,53,5,42,127,1616989680
679,9,Ticks_ISO_T2_8,54,1,48,34,1617735948
679,9,Ticks_ISO_T2_8,55,5,42,127,1617790460
679,9,Ticks_ISO_T2_8,56,1,48,48,1618554932
679,9,Ticks_ISO_T2_8,57,5,42,127,1618589968
679,9,Ticks_ISO_T2_8,58,1,48,35,1619385028
679,9,Ticks_ISO_T2_8,59,5,42,127,1619389776
679,9,Ticks_ISO_T2_8,60,1,48,46,1620171076
679,9,Ticks_ISO_T2_8,61,5,42,127,1620189584
679,9,Ticks_ISO_T2_8,62,1,48,48,1620956524
679,9,Ticks_ISO_T2_8,63,5,42,127,1620990216
679,9,Ticks_ISO_T2_8,64,1,48,27,1621763288
679,9,Ticks_ISO_T2_8,65,5,42,127,1621790024
679,9,Ticks_ISO_T2_8,66,1,48,48,1622563320
679,9,Ticks_ISO_T2_8,67,5,42,127,1622589832
679,9,Ticks_ISO_T2_8,68,1,48,41,1623379684
679,9,Ticks_ISO_T2_8,69,5,42,127,1623389664
679,9,Ticks_ISO_T2_8,70,1,48,38,1624140124
679,9,Ticks_ISO_T2_8,71,5,42,127,1624190296
679,9,Ticks_ISO_T2_8,72,1,48,26,1624970772
679,9,Ticks_ISO_T2_8,73,5,42,127,1624990028
679,9,Ticks_ISO_T2_8,74,5,42,127,1625789696
679,9,Ticks_ISO_T2_8,75,1,48,41,1625794612
679,9,Ticks_ISO_T2_8,76,1,48,37,1626544212
679,9,Ticks_ISO_T2_8,77,5,42,127,1626589496
679,9,Ticks_ISO_T2_8,78,1,48,29,1627363768
679,9,Ticks_ISO_T2_8,79,5,42,127,1627390280
679,9,Ticks_ISO_T2_8,80,1,48,38,1628152576
679,9,Ticks_ISO_T2_8,81,5,42,127,1628189936
679,9,Ticks_ISO_T2_8,82,1,48,37,1628945276
679,9,Ticks_ISO_T2_8,83,5,42,127,1628989744
679,9,Ticks_ISO_T2_8,84,5,42,127,1629789660
679,9,Ticks_ISO_T2_8,85,1,48,39,1629803924
679,9,Ticks_ISO_T2_8,86,5,42,127,1630590512
679,9,Ticks_ISO_T2_8,87,1,48,42,1630612256
679,9,Ticks_ISO_T2_8,88,1,48,45,1631376216
679,9,Ticks_ISO_T2_8,89,5,42,127,1631390092
679,9,Ticks_ISO_T2_8,90,1,48,47,1632108712
679,9,Ticks_ISO_T2_8,91,5,42,127,1632189748
679,9,Ticks_ISO_T2_8,92,1,48,38,1632967836
679,9,Ticks_ISO_T2_8,93,5,42,127,1632989704
679,9,Ticks_ISO_T2_8,94,1,48,34,1633772800
679,9,Ticks_ISO_T2_8,95,5,42,127,1633790484
679,9,Ticks_ISO_T2_8,96,5,42,127,1634590152
679,9,Ticks_ISO_T2_8,97,1,48,37,1634628800
679,9,Ticks_ISO_T2_8,98,5,42,127,1635389660
679,9,Ticks_ISO_T2_8,99,1,48,43,1635443816
679,9,Ticks_ISO_T2_8,100,5,42,127,1636189644
679,9,Ticks_ISO_T2_8,101,1,48,35,1636216396
679,9,Ticks_ISO_T2_8,102,5,42,127,1636990424
679,9,Ticks_ISO_T2_8,103,1,48,40,1637043508
679,9,Ticks_ISO_T2_8,104,5,42,127,1637790008
679,9,Ticks_ISO_T2_8,105,1,48,31,1637817588
679,9,Ticks_ISO_T2_8,106,1,48,21,1638589964
679,9,Ticks_ISO_T2_8,107,5,42,127,1638591376
679,9,Ticks_ISO_T2_8,108,1,48,36,1639356900
679,9,Ticks_ISO_T2_8,109,5,42,127,1639389544
679,9,Ticks_ISO_T2_8,110,5,42,127,1640190404
679,9,Ticks_ISO_T2_8,111,1,48,38,1640692696
679,9,Ticks_ISO_T2_8,112,5,42,127,1640989988
679,9,Ticks_ISO_T2_8,113,1,48,43,1641339100
679,9,Ticks_ISO_T2_8,114,5,42,127,1641789796
679,9,Ticks_ISO_T2_8,115,1,48,42,1641920468
679,9,Ticks_ISO_T2_8,116,1,48,42,1642510580
679,9,Ticks_ISO_T2_8,117,5,42,127,1642589472
679,9,Ticks_ISO_T2_8,118,1,48,36,1643326240
679,9,Ticks_ISO_T2_8,119,5,42,127,1643390476
679,9,Ticks_ISO_T2_8,120,1,48,31,1644159212
679,9,Ticks_ISO_T2_8,121,5,42,127,1644189984
679,9,Ticks_ISO_T2_8,122,1,48,24,1644965448
679,9,Ticks_ISO_T2_8,123,5,42,127,1644989868
679,9,Ticks_ISO_T2_8,124,5,42,127,1645789684
679,9,Ticks_ISO_T2_8,125,1,48,45,1645812548
679,9,Ticks_ISO_T2_8,126,1,48,45,1646521160
679,9,Ticks_ISO_T2_8,127,5,42,127,1646590380
679,9,Ticks_ISO_T2_8,128,1,48,36,1647375644
679,9,Ticks_ISO_T2_8,129,5,42,127,1647390188
679,9,Ticks_ISO_T2_8,130,1,48,16,1648092124
679,9,Ticks_ISO_T2_8,131,5,42,127,1648189700
679,9,Ticks_ISO_T2_8,132,1,48,39,1648883332
679,9,Ticks_ISO_T2_8,133,5,42,127,1648989444
679,9,Ticks_ISO_T2_8,134,1,48,34,1649691896
679,9,Ticks_ISO_T2_8,135,5,42,127,1649790444
679,9,Ticks_ISO_T2_8,136,1,48,38,1650498284
679,9,Ticks_ISO_T2_8,137,5,42,127,1650590044
679,9,Ticks_ISO_T2_8,138,1,48,41,1651328560
679,9,Ticks_ISO_T2_8,139,5,42,127,1651389704
679,9,Ticks_ISO_T2_8,140,1,48,42,1652143096
679,9,Ticks_ISO_T2_8,141,5,42,127,1652189436
679,9,Ticks_ISO_T2_8,142,1,48,39,1652989920
679,9,Ticks_ISO_T2_8,143,5,42,127,1652991484
679,9,Ticks_ISO_T2_8,144,5,42,127,1653790028
679,9,Ticks_ISO_T2_8,145,1,48,32,1653862588
679,9,Ticks_ISO_T2_8,146,1,48,39,1654564288
679,9,Ticks_ISO_T2_8,147,5,42,127,1654589828
679,9,Ticks_ISO_T2_8,148,1,48,28,1655306280
679,9,Ticks_ISO_T2_8,149,5,42,127,1655389440
679,9,Ticks_ISO_T2_8,150,1,48,39,1656117684
679,9,Ticks_ISO_T2_8,151,5,42,127,1656190440
679,9,Ticks_ISO_T2_8,152,1,48,32,1656882032
679,9,Ticks_ISO_T2_8,153,5,42,127,1656990236
679,9,Ticks_ISO_T2_8,154,1,48,42,1657688376
679,9,Ticks_ISO_T2_8,155,5,42,127,1657789896
679,9,Ticks_ISO_T2_8,156,1,48,33,1658472700
679,9,Ticks_ISO_T2_8,157,5,42,127,1658589404
679,9,Ticks_ISO_T2_8,158,1,48,43,1659250748
679,9,Ticks_ISO_T2_8,159,5,42,127,1659390408
679,9,Ticks_ISO_T2_8,160,1,48,42,1660054512
679,9,Ticks_ISO_T2_8,161,5,42,127,1660190292
679,9,Ticks_ISO_T2_8,162,1,48,36,1660845572
679,9,Ticks_ISO_T2_8,163,5,42,127,1660989800
679,9,Ticks_ISO_T2_8,164,1,48,37,1661693472
679,9,Ticks_ISO_T2_8,165,5,42,127,1661789576
679,9,Ticks_ISO_T2_8,166,1,48,39,1662517520
679,9,Ticks_ISO_T2_8,167,5,42,127,1662590280
679,9,Ticks_ISO_T2_8,168,1,48,39,1663343752
679,9,Ticks_ISO_T2_8,169,5,42,127,1663390308
679,9,Ticks_ISO_T2_8,170,1,48,35,1664178196
679,9,Ticks_ISO_T2_8,171,5,42,127,1664189672
679,9,Ticks_ISO_T2_8,172,5,42,127,1664989488
679,9,Ticks_ISO_T2_8,173,1,48,25,1665003000
679,9,Ticks_ISO_T2_8,174,1,48,46,1665718424
679,9,Ticks_ISO_T2_8,175,5,42,127,1665790188
679,9,Ticks_ISO_T2_8,176,1,48,39,1666435428
679,9,Ticks_ISO_T2_8,177,5,42,127,1666590200
679,9,Ticks_ISO_T2_8,178,1,48,39,1667288716
679,9,Ticks_ISO_T2_8,179,5,42,127,1667390232
679,9,Ticks_ISO_T2_8,180,1,48,32,1668095104
679,9,Ticks_ISO_T2_8,181,5,42,127,1668189632
679,9,Ticks_ISO_T2_8,182,1,48,37,1668914508
679,9,Ticks_ISO_T2_8,183,5,42,127,1668990336
679,9,Ticks_ISO_T2_8,184,1,48,40,1669732964
679,9,Ticks_ISO_T2_8,185,5,42,127,1669790144
679,9,Ticks_ISO_T2_8,186,1,48,39,1670572492
679,9,Ticks_ISO_T2_8,187,5,42,127,1670589728
679,9,Ticks_ISO_T2_8,188,1,48,33,1671323456
679,9,Ticks_ISO_T2_8,189,5,42,127,1671389612
679,9,Ticks_ISO_T2_8,190,1,48,42,1672127904
679,9,Ticks_ISO_T2_8,191,5,42,127,1672190316
679,9,Ticks_ISO_T2_8,192,5,42,127,1672990132
679,9,Ticks_ISO_T2_8,193,1,48,38,1673020556
679,9,Ticks_ISO_T2_8,194,5,42,127,1673789716
679,9,Ticks_ISO_T2_8,195,1,48,45,1673861152
679,9,Ticks_ISO_T2_8,196,5,42,127,1674589476
679,9,Ticks_ISO_T2_8,197,1,48,39,1674623928
679,9,Ticks_ISO_T2_8,198,1,48,40,1675337456
679,9,Ticks_ISO_T2_8,199,5,42,127,1675390248
679,9,Ticks_ISO_T2_8,200,5,42,127,1676190136
679,9,Ticks_ISO_T2_8,201,1,48,32,1676199016
679,9,Ticks_ISO_T2_8,202,5,42,127,1676989944
679,9,Ticks_ISO_T2_8,203,1,48,33,1677072048
679,9,Ticks_ISO_T2_8,204,1,48,40,1677764804
679,9,Ticks_ISO_T2_8,205,5,42,127,1677789520
679,9,Ticks_ISO_T2_8,206,1,48,29,1678562216
679,9,Ticks_ISO_T2_8,207,5,42,127,1678590224
679,9,Ticks_ISO_T2_8,208,1,48,31,1679326500
679,9,Ticks_ISO_T2_8,209,5,42,127,1679390036
679,9,Ticks_ISO_T2_8,210,1,48,43,1680099004
679,9,Ticks_ISO_T2_8,211,5,42,127,1680189844
679,9,Ticks_ISO_T2_8,212,1,48,35,1680948408
679,9,Ticks_ISO_T2_8,213,5,42,127,1680989528
679,9,Ticks_ISO_T2_8,214,1,48,35,1681756316
679,9,Ticks_ISO_T2_8,215,5,42,127,1681790380
679,9,Ticks_ISO_T2_8,216,1,48,40,1682539744
679,9,Ticks_ISO_T2_8,217,5,42,127,1682590188
679,9,Ticks_ISO_T2_8,218,1,48,32,1683330648
679,9,Ticks_ISO_T2_8,219,5,42,127,1683389996
679,9,Ticks_ISO_T2_8,220,1,48,41,1684111008
679,9,Ticks_ISO_T2_8,221,5,42,127,1684189432
679,9,Ticks_ISO_T2_8,222,1,48,46,1684944624
679,9,Ticks_ISO_T2_8,223,5,42,127,1684990288
679,9,Ticks_ISO_T2_8,224,1,48,46,1685758644
679,9,Ticks_ISO_T2_8,225,5,42,127,1685790020
679,9,Ticks_ISO_T2_8,226,1,48,47,1686522928
679,9,Ticks_ISO_T2_8,227,5,42,127,1686589828
679,9,Ticks_ISO_T2_8,228,1,48,47,1687333280
679,9,Ticks_ISO_T2_8,229,5,42,127,1687389732
679,9,Ticks_ISO_T2_8,230,1,48,46,1688132864
679,9,Ticks_ISO_T2_8,231,5,42,127,1688190364
679,9,Ticks_ISO_T2_8,232,1,48,44,1688954760
679,9,Ticks_ISO_T2_8,233,5,42,127,1688990248
679,9,Ticks_ISO_T2_8,234,1,48,28,1689733024
679,9,Ticks_ISO_T2_8,235,5,42,127,1689789984
679,9,Ticks_ISO_T2_8,236,1,48,39,1690481372
679,9,Ticks_ISO_T2_8,237,5,42,127,1690589552
679,9,Ticks_ISO_T2_8,238,1,48,38,1691279392
679,9,Ticks_ISO_T2_8,239,5,42,127,1691390184
679,9,Ticks_ISO_T2_8,240,1,48,37,1692119440
679,9,Ticks_ISO_T2_8,0,9999,9999,9999,1596187752
679,9,Ticks_ISO_T2_8,1,9999,9999,9999,1596987484
679,9,Ticks_ISO_T2_8,2,9999,9999,9999,1597787236
679,9,Ticks_ISO_T2_8,3,9999,9999,9999,1598588016
679,9,Ticks_ISO_T2_8,4,9999,9999,9999,1599387756
679,9,Ticks_ISO_T2_8,5,9999,9999,9999,1600187484
679,9,Ticks_ISO_T2_8,6,9999,9999,9999,1600987224
679,9,Ticks_ISO_T2_8,7,9999,9999,9999,1601787976
679,9,Ticks_ISO_T2_8,8,9999,9999,9999,1602587712
679,9,Ticks_ISO_T2_8,9,9999,9999,9999,1603387440
679,9,Ticks_ISO_T2_8,10,9999,9999,9999,1604187196
679,9,Ticks_ISO_T2_8,11,9999,9999,9999,1604987976
679,9,Ticks_ISO_T2_8,12,9999,9999,9999,1605787712
679,9,Ticks_ISO_T2_8,13,9999,9999,9999,1606587448
679,9,Ticks_ISO_T2_8,14,9999,9999,9999,1607387184
679,9,Ticks_ISO_T2_8,15,9999,9999,9999,1608187964
679,9,Ticks_ISO_T2_8,16,9999,9999,9999,1608987696
679,9,Ticks_ISO_T2_8,17,9999,9999,9999,1609787504
679,9,Ticks_ISO_T2_8,18,9999,9999,9999,1610587188
679,9,Ticks_ISO_T2_8,19,9999,9999,9999,1611387968
679,9,Ticks_ISO_T2_8,20,9999,9999,9999,1612187700
679,9,Ticks_ISO_T2_8,21,9999,9999,9999,1612987512
679,9,Ticks_ISO_T2_8,22,9999,9999,9999,1613787244
679,9,Ticks_ISO_T2_8,23,9999,9999,9999,1614588016
679,9,Ticks_ISO_T2_8,24,9999,9999,9999,1615387752
679,9,Ticks_ISO_T2_8,25,9999,9999,9999,1616187484
679,9,Ticks_ISO_T2_8,26,9999,9999,9999,1616987244
679,9,Ticks_ISO_T2_8,27,9999,9999,9999,1617788020
679,9,Ticks_ISO_T2_8,28,9999,9999,9999,1618587756
679,9,Ticks_ISO_T2_8,29,9999,9999,9999,1619387492
679,9,Ticks_ISO_T2_8,30,9999,9999,9999,1620187224
679,9,Ticks_ISO_T2_8,31,9999,9999,9999,1620988004
679,9,Ticks_ISO_T2_8,32,9999,9999,9999,1621787736
679,9,Ticks_ISO_T2_8,33,9999,9999,9999,1622587468
679,9,Ticks_ISO_T2_8,34,9999,9999,9999,1623387228
679,9,Ticks_ISO_T2_8,35,9999,9999,9999,1624188008
679,9,Ticks_ISO_T2_8,36,9999,9999,9999,1624987740
679,9,Ticks_ISO_T2_8,37,9999,9999,9999,1625787480
679,9,Ticks_ISO_T2_8,38,9999,9999,9999,1626587208
679,9,Ticks_ISO_T2_8,39,9999,9999,9999,1627387992
679,9,Ticks_ISO_T2_8,40,9999,9999,9999,1628187724
679,9,Ticks_ISO_T2_8,41,9999,9999,9999,1628987456
679,9,Ticks_ISO_T2_8,42,9999,9999,9999,1629787220
679,9,Ticks_ISO_T2_8,43,9999,9999,9999,1630588000
679,9,Ticks_ISO_T2_8,44,9999,9999,9999,1631387728
679,9,Ticks_ISO_T2_8,45,9999,9999,9999,1632187460
679,9,Ticks_ISO_T2_8,46,9999,9999,9999,1632987196
679,9,Ticks_ISO_T2_8,47,9999,9999,9999,1633787976
679,9,Ticks_ISO_T2_8,48,9999,9999,9999,1634587716
679,9,Ticks_ISO_T2_8,49,9999,9999,9999,1635387448
679,9,Ticks_ISO_T2_8,50,9999,9999,9999,1636187208
679,9,Ticks_ISO_T2_8,51,9999,9999,9999,1636987988
679,9,Ticks_ISO_T2_8,52,9999,9999,9999,1637787720
679,9,Ticks_ISO_T2_8,53,9999,9999,9999,1638587452
679,9,Ticks_ISO_T2_8,54,9999,9999,9999,1639387256
679,9,Ticks_ISO_T2_8,55,9999,9999,9999,1640187968
679,9,Ticks_ISO_T2_8,56,9999,9999,9999,1640987700
679,9,Ticks_ISO_T2_8,57,9999,9999,9999,1641787508
679,9,Ticks_ISO_T2_8,58,9999,9999,9999,1642587184
679,9,Ticks_ISO_T2_8,59,9999,9999,9999,1643387964
679,9,Ticks_ISO_T2_8,60,9999,9999,9999,1644187696
679,9,Ticks_ISO_T2_8,61,9999,9999,9999,1644987508
679,9,Ticks_ISO_T2_8,62,9999,9999,9999,1645787248
679,9,Ticks_ISO_T2_8,63,9999,9999,9999,1646588020
679,9,Ticks_ISO_T2_8,64,9999,9999,9999,1647387752
679,9,Ticks_ISO_T2_8,65,9999,9999,9999,1648187488
679,9,Ticks_ISO_T2_8,66,9999,9999,9999,1648987228
679,9,Ticks_ISO_T2_8,67,9999,9999,9999,1649788008
679,9,Ticks_ISO_T2_8,68,9999,9999,9999,1650587756
679,9,Ticks_ISO_T2_8,69,9999,9999,9999,1651387488
679,9,Ticks_ISO_T2_8,70,9999,9999,9999,1652187220
679,9,Ticks_ISO_T2_8,71,9999,9999,9999,1652988008
679,9,Ticks_ISO_T2_8,72,9999,9999,9999,1653787740
679,9,Ticks_ISO_T2_8,73,9999,9999,9999,1654587468
679,9,Ticks_ISO_T2_8,74,9999,9999,9999,1655387228
679,9,Ticks_ISO_T2_8,75,9999,9999,9999,1656188004
679,9,Ticks_ISO_T2_8,76,9999,9999,9999,1656987724
679,9,Ticks_ISO_T2_8,77,9999,9999,9999,1657787460
679,9,Ticks_ISO_T2_8,78,9999,9999,9999,1658587192
679,9,Ticks_ISO_T2_8,79,9999,9999,9999,1659387972
679,9,Ticks_ISO_T2_8,80,9999,9999,9999,1660187704
679,9,Ticks_ISO_T2_8,81,9999,9999,9999,1660987440
679,9,Ticks_ISO_T2_8,82,9999,9999,9999,1661787212
679,9,Ticks_ISO_T2_8,83,9999,9999,9999,1662587992
679,9,Ticks_ISO_T2_8,84,9999,9999,9999,1663387724
679,9,Ticks_ISO_T2_8,85,9999,9999,9999,1664187456
679,9,Ticks_ISO_T2_8,86,9999,9999,9999,1664987200
679,9,Ticks_ISO_T2_8,87,9999,9999,9999,1665787972
679,9,Ticks_ISO_T2_8,88,9999,9999,9999,1666587764
679,9,Ticks_ISO_T2_8,89,9999,9999,9999,1667387496
679,9,Ticks_ISO_T2_8,90,9999,9999,9999,1668187196
679,9,Ticks_ISO_T2_8,91,9999,9999,9999,1668987976
679,9,Ticks_ISO_T2_8,92,9999,9999,9999,1669787708
679,9,Ticks_ISO_T2_8,93,9999,9999,9999,1670587444
679,9,Ticks_ISO_T2_8,94,9999,9999,9999,1671387252
679,9,Ticks_ISO_T2_8,95,9999,9999,9999,1672187956
679,9,Ticks_ISO_T2_8,96,9999,9999,9999,1672987696
679,9,Ticks_ISO_T2_8,97,9999,9999,9999,1673787504
679,9,Ticks_ISO_T2_8,98,9999,9999,9999,1674587188
679,9,Ticks_ISO_T2_8,99,9999,9999,9999,1675387960
679,9,Ticks_ISO_T2_8,100,9999,9999,9999,1676187700
679,9,Ticks_ISO_T2_8,101,9999,9999,9999,1676987508
679,9,Ticks_ISO_T2_8,102,9999,9999,9999,1677787232
679,9,Ticks_ISO_T2_8,103,9999,9999,9999,1678588012
679,9,Ticks_ISO_T2_8,104,9999,9999,9999,1679387748
679,9,Ticks_ISO_T2_8,105,9999,9999,9999,1680187480
679,9,Ticks_ISO_T2_8,106,9999,9999,9999,1680987240
679,9,Ticks_ISO_T2_8,107,9999,9999,9999,1681788020
679,9,Ticks_ISO_T2_8,108,9999,9999,9999,1682587752
679,9,Ticks_ISO_T2_8,109,9999,9999,9999,1683387488
679,9,Ticks_ISO_T2_8,110,9999,9999,9999,1684187220
679,9,Ticks_ISO_T2_8,111,9999,9999,9999,1684988000
679,9,Ticks_ISO_T2_8,112,9999,9999,9999,1685787732
679,9,Ticks_ISO_T2_8,113,9999,9999,9999,1686587464
679,9,Ticks_ISO_T2_8,114,9999,9999,9999,1687387224
679,9,Ticks_ISO_T2_8,115,9999,9999,9999,1688188004
679,9,Ticks_ISO_T2_8,116,9999,9999,9999,1688987740
679,9,Ticks_ISO_T2_8,117,9999,9999,9999,1689787472
679,9,Ticks_ISO_T2_8,118,9999,9999,9999,1690587188
679,9,Ticks_ISO_T2_8,119,9999,9999,9999,1691387968
6710,10,Ticks_ISO_T2_5,0,5,42,127,1701745964
6710,10,Ticks_ISO_T2_5,1,5,42,127,1702245680
6710,10,Ticks_ISO_T2_5,2,1,48,32,1702380672
6710,10,Ticks_ISO_T2_5,3,5,42,127,1702745376
6710,10,Ticks_ISO_T2_5,4,1,48,42,1702779760
6710,10,Ticks_ISO_T2_5,5,5,42,127,1703246416
6710,10,Ticks_ISO_T2_5,6,1,48,41,1703257544
6710,10,Ticks_ISO_T2_5,7,1,48,46,1703739164
6710,10,Ticks_ISO_T2_5,8,5,42,127,1703745780
6710,10,Ticks_ISO_T2_5,9,1,48,48,1704224124
6710,10,Ticks_ISO_T2_5,10,5,42,127,1704245700
6710,10,Ticks_ISO_T2_5,11,5,42,127,1704746668
6710,10,Ticks_ISO_T2_5,12,1,48,42,1704752784
6710,10,Ticks_ISO_T2_5,13,1,48,38,1705239748
6710,10,Ticks_ISO_T2_5,14,5,42,127,1705245912
6710,10,Ticks_ISO_T2_5,15,1,48,41,1705707500
6710,10,Ticks_ISO_T2_5,16,5,42,127,1705745828
6710,10,Ticks_ISO_T2_5,17,1,48,37,1706235616
6710,10,Ticks_ISO_T2_5,18,5,42,127,1706245600
6710,10,Ticks_ISO_T2_5,19,1,48,32,1706718184
6710,10,Ticks_ISO_T2_5,20,5,42,127,1706746120
6710,10,Ticks_ISO_T2_5,21,1,48,42,1707197236
6710,10,Ticks_ISO_T2_5,22,5,42,127,1707245812
6710,10,Ticks_ISO_T2_5,23,1,48,32,1707738816
6710,10,Ticks_ISO_T2_5,24,5,42,127,1707745656
6710,10,Ticks_ISO_T2_5,25,1,48,44,1708199172
6710,10,Ticks_ISO_T2_5,26,5,42,127,1708246328
6710,10,Ticks_ISO_T2_5,27,1,48,45,1708717192
6710,10,Ticks_ISO_T2_5,28,5,42,127,1708745944
6710,10,Ticks_ISO_T2_5,29,1,48,41,1709219652
6710,10,Ticks_ISO_T2_5,30,5,42,127,1709245864
6710,10,Ticks_ISO_T2_5,31,1,48,40,1709717628
6710,10,Ticks_ISO_T2_5,32,5,42,127,1709745556
6710,10,Ticks_ISO_T2_5,33,1,48,43,1710242828
6710,10,Ticks_ISO_T2_5,34,5,42,127,1710246372
6710,10,Ticks_ISO_T2_5,35,5,42,127,1710745928
6710,10,Ticks_ISO_T2_5,36,1,48,25,1710750616
6710,10,Ticks_ISO_T2_5,37,1,48,44,1711234140
6710,10,Ticks_ISO_T2_5,38,5,42,127,1711245688
6710,10,Ticks_ISO_T2_5,39,1,48,48,1711691172
6710,10,Ticks_ISO_T2_5,40,5,42,127,1711746656
6710,10,Ticks_ISO_T2_5,41,1,48,47,1712239664
6710,10,Ticks_ISO_T2_5,42,5,42,127,1712246200
6710,10,Ticks_ISO_T2_5,43,1,48,46,1712733968
6710,10,Ticks_ISO_T2_5,44,5,42,127,1712745744
6710,10,Ticks_ISO_T2_5,45,1,48,45,1713238232
6710,10,Ticks_ISO_T2_5,46,5,42,127,1713245812
6710,10,Ticks_ISO_T2_5,47,1,48,44,1713737824
6710,10,Ticks_ISO_T2_5,48,5,42,127,1713746404
6710,10,Ticks_ISO_T2_5,49,5,42,127,1714246008
6710,10,Ticks_ISO_T2_5,50,1,48,43,1714297172
6710,10,Ticks_ISO_T2_5,51,1,48,44,1714723972
6710,10,Ticks_ISO_T2_5,52,5,42,127,1714745768
6710,10,Ticks_ISO_T2_5,53,1,48,45,1715242288
6710,10,Ticks_ISO_T2_5,54,5,42,127,1715245760
6710,10,Ticks_ISO_T2_5,55,1,48,44,1715714384
6710,10,Ticks_ISO_T2_5,56,5,42,127,1715746132
6710,10,Ticks_ISO_T2_5,57,1,48,40,1716209892
6710,10,Ticks_ISO_T2_5,58,5,42,127,1716245752
6710,10,Ticks_ISO_T2_5,59,1,48,49,1716709660
6710,10,Ticks_ISO_T2_5,60,5,42,127,1716745744
6710,10,Ticks_ISO_T2_5,61,1,48,39,1717244148
6710,10,Ticks_ISO_T2_5,62,5,42,127,1717246560
6710,10,Ticks_ISO_T2_5,63,1,48,45,1717742860
6710,10,Ticks_ISO_T2_5,64,5,42,127,1717745960
6710,10,Ticks_ISO_T2_5,65,1,48,43,1718237768
6710,10,Ticks_ISO_T2_5,66,5,42,127,1718245728
6710,10,Ticks_ISO_T2_5,67,1,48,39,1718698792
6710,10,Ticks_ISO_T2_5,68,5,42,127,1718745648
6710,10,Ticks_ISO_T2_5,69,1,48,41,1719197064
6710,10,Ticks_ISO_T2_5,70,5,42,127,1719246164
6710,10,Ticks_ISO_T2_5,71,1,48,43,1719688684
6710,10,Ticks_ISO_T2_5,72,5,42,127,1719745784
6710,10,Ticks_ISO_T2_5,73,1,48,45,1720196456
6710,10,Ticks_ISO_T2_5,74,5,42,127,1720245704
6710,10,Ticks_ISO_T2_5,75,1,48,46,1720693908
6710,10,Ticks_ISO_T2_5,76,5,42,127,1720746444
6710,10,Ticks_ISO_T2_5,77,5,42,127,1721245924
6710,10,Ticks_ISO_T2_5,78,1,48,41,1721248596
6710,10,Ticks_ISO_T2_5,79,1,48,48,1721712672
6710,10,Ticks_ISO_T2_5,80,5,42,127,1721745760
6710,10,Ticks_ISO_T2_5,81,5,42,127,1722245612
6710,10,Ticks_ISO_T2_5,82,1,48,50,1722259876
6710,10,Ticks_ISO_T2_5,83,1,48,42,1722736816
6710,10,Ticks_ISO_T2_5,84,5,42,127,1722746124
6710,10,Ticks_ISO_T2_5,85,1,48,47,1723202152
6710,10,Ticks_ISO_T2_5,86,5,42,127,1723245816
6710,10,Ticks_ISO_T2_5,87,1,48,45,1723724580
6710,10,Ticks_ISO_T2_5,88,5,42,127,1723745636
6710,10,Ticks_ISO_T2_5,89,5,42,127,1724246388
6710,10,Ticks_ISO_T2_5,90,1,48,36,1724272020
6710,10,Ticks_ISO_T2_5,91,5,42,127,1724746052
6710,10,Ticks_ISO_T2_5,92,1,48,42,1724749276
6710,10,Ticks_ISO_T2_5,93,1,48,44,1725215116
6710,10,Ticks_ISO_T2_5,94,5,42,127,1725245892
6710,10,Ticks_ISO_T2_5,95,1,48,45,1725736424
6710,10,Ticks_ISO_T2_5,96,5,42,127,1725745660
6710,10,Ticks_ISO_T2_5,97,5,42,127,1726246408
6710,10,Ticks_ISO_T2_5,98,1,48,46,1726253120
6710,10,Ticks_ISO_T2_5,99,1,48,41,1726726320
6710,10,Ticks_ISO_T2_5,100,5,42,127,1726745948
6710,10,Ticks_ISO_T2_5,101,1,48,48,1727190780
6710,10,Ticks_ISO_T2_5,102,5,42,127,1727245640
6710,10,Ticks_ISO_T2_5,103,5,42,127,1727746392
6710,10,Ticks_ISO_T2_5,104,1,48,45,1727758564
6710,10,Ticks_ISO_T2_5,105,5,42,127,1728246084
6710,10,Ticks_ISO_T2_5,106,1,48,41,1728249800
6710,10,Ticks_ISO_T2_5,107,1,48,42,1728716192
6710,10,Ticks_ISO_T2_5,108,5,42,127,1728745920
6710,10,Ticks_ISO_T2_5,109,1,48,43,1729226284
6710,10,Ticks_ISO_T2_5,110,5,42,127,1729245468
6710,10,Ticks_ISO_T2_5,111,1,48,43,1729734208
6710,10,Ticks_ISO_T2_5,112,5,42,127,1729746356
6710,10,Ticks_ISO_T2_5,113,1,48,42,1730244396
6710,10,Ticks_ISO_T2_5,114,5,42,127,1730245904
6710,10,Ticks_ISO_T2_5,115,1,48,40,1730705624
6710,10,Ticks_ISO_T2_5,116,5,42,127,1730745596
6710,10,Ticks_ISO_T2_5,117,5,42,127,1731245448
6710,10,Ticks_ISO_T2_5,118,1,48,40,1731262104
6710,10,Ticks_ISO_T2_5,119,1,48,33,1731715928
6710,10,Ticks_ISO_T2_5,120,5,42,127,1731746108
6710,10,Ticks_ISO_T2_5,121,5,42,127,1732245808
6710,10,Ticks_ISO_T2_5,122,1,48,47,1732246776
6710,10,Ticks_ISO_T2_5,123,1,48,45,1732688172
6710,10,Ticks_ISO_T2_5,124,5,42,127,1732745496
6710,10,Ticks_ISO_T2_5,125,1,48,45,1733179160
6710,10,Ticks_ISO_T2_5,126,5,42,127,1733246236
6710,10,Ticks_ISO_T2_5,127,1,48,44,1733693288
6710,10,Ticks_ISO_T2_5,128,5,42,127,1733746004
6710,10,Ticks_ISO_T2_5,129,1,48,43,1734197552
6710,10,Ticks_ISO_T2_5,130,5,42,127,1734245628
6710,10,Ticks_ISO_T2_5,131,1,48,45,1734739236
6710,10,Ticks_ISO_T2_5,132,5,42,127,1734745324
6710,10,Ticks_ISO_T2_5,133,5,42,127,1735246296
6710,10,Ticks_ISO_T2_5,134,1,48,45,1735253828
6710,10,Ticks_ISO_T2_5,135,5,42,127,1735745892
6710,10,Ticks_ISO_T2_5,136,1,48,44,1735761008
6710,10,Ticks_ISO_T2_5,137,5,42,127,1736245588
6710,10,Ticks_ISO_T2_5,138,1,48,35,1736281792
6710,10,Ticks_ISO_T2_5,139,5,42,127,1736746256
6710,10,Ticks_ISO_T2_5,140,1,48,41,1736770168
6710,10,Ticks_ISO_T2_5,141,5,42,127,1737246176
6710,10,Ticks_ISO_T2_5,142,1,48,41,1737285872
6710,10,Ticks_ISO_T2_5,143,1,48,40,1737745648
6710,10,Ticks_ISO_T2_5,144,5,42,127,1737746912
6710,10,Ticks_ISO_T2_5,145,5,42,127,1738245492
6710,10,Ticks_ISO_T2_5,146,1,48,42,1738274868
6710,10,Ticks_ISO_T2_5,147,1,48,45,1738722408
6710,10,Ticks_ISO_T2_5,148,5,42,127,1738746448
6710,10,Ticks_ISO_T2_5,149,1,48,45,1739243344
6710,10,Ticks_ISO_T2_5,150,5,42,127,1739245920
6710,10,Ticks_ISO_T2_5,151,1,48,52,1739708560
6710,10,Ticks_ISO_T2_5,152,5,42,127,1739745616
6710,10,Ticks_ISO_T2_5,153,5,42,127,1740246368
6710,10,Ticks_ISO_T2_5,154,1,48,42,1740265188
6710,10,Ticks_ISO_T2_5,155,1,48,44,1740744544
6710,10,Ticks_ISO_T2_5,156,5,42,127,1740746276
6710,10,Ticks_ISO_T2_5,157,1,48,40,1741210184
6710,10,Ticks_ISO_T2_5,158,5,42,127,1741245748
6710,10,Ticks_ISO_T2_5,159,1,48,40,1741733364
6710,10,Ticks_ISO_T2_5,160,5,42,127,1741745440
6710,10,Ticks_ISO_T2_5,161,1,48,44,1742232164
6710,10,Ticks_ISO_T2_5,162,5,42,127,1742246556
6710,10,Ticks_ISO_T2_5,163,1,48,39,1742712936
6710,10,Ticks_ISO_T2_5,164,5,42,127,1742745952
6710,10,Ticks_ISO_T2_5,165,1,48,42,1743205220
6710,10,Ticks_ISO_T2_5,166,5,42,127,1743245648
6710,10,Ticks_ISO_T2_5,167,1,48,47,1743679764
6710,10,Ticks_ISO_T2_5,168,5,42,127,1743746392
6710,10,Ticks_ISO_T2_5,169,5,42,127,1744246388
6710,10,Ticks_ISO_T2_5,170,1,48,48,1744248840
6710,10,Ticks_ISO_T2_5,171,1,48,46,1744727200
6710,10,Ticks_ISO_T2_5,172,5,42,127,1744745856
6710,10,Ticks_ISO_T2_5,173,1,48,47,1745191932
6710,10,Ticks_ISO_T2_5,174,5,42,127,1745245548
6710,10,Ticks_ISO_T2_5,175,1,48,50,1745721100
6710,10,Ticks_ISO_T2_5,176,5,42,127,1745746512
6710,10,Ticks_ISO_T2_5,177,5,42,127,1746245964
6710,10,Ticks_ISO_T2_5,178,1,48,48,1746265492
6710,10,Ticks_ISO_T2_5,179,5,42,127,1746745588
6710,10,Ticks_ISO_T2_5,180,1,48,46,1746747600
6710,10,Ticks_ISO_T2_5,181,1,48,46,1747243236
6710,10,Ticks_ISO_T2_5,182,5,42,127,1747245348
6710,10,Ticks_ISO_T2_5,183,1,48,43,1747739176
6710,10,Ticks_ISO_T2_5,184,5,42,127,1747746388
6710,10,Ticks_ISO_T2_5,185,1,48,47,1748233932
6710,10,Ticks_ISO_T2_5,186,5,42,127,1748246008
6710,10,Ticks_ISO_T2_5,187,1,48,46,1748733476
6710,10,Ticks_ISO_T2_5,188,5,42,127,1748745700
6710,10,Ticks_ISO_T2_5,189,1,48,44,1749211928
6710,10,Ticks_ISO_T2_5,190,5,42,127,1749246296
6710,10,Ticks_ISO_T2_5,191,1,48,46,1749694196
6710,10,Ticks_ISO_T2_5,192,5,42,127,1749746288
6710,10,Ticks_ISO_T2_5,193,5,42,127,1750245768
6710,10,Ticks_ISO_T2_5,194,1,48,38,1750265416
6710,10,Ticks_ISO_T2_5,195,5,42,127,1750745312
6710,10,Ticks_ISO_T2_5,196,1,48,49,1750749408
6710,10,Ticks_ISO_T2_5,197,1,48,45,1751220804
6710,10,Ticks_ISO_T2_5,198,5,42,127,1751246344
6710,10,Ticks_ISO_T2_5,199,1,48,47,1751723568
6710,10,Ticks_ISO_T2_5,200,5,42,127,1751745892
6710,10,Ticks_ISO_T2_5,201,1,48,54,1752186384
6710,10,Ticks_ISO_T2_5,202,5,42,127,1752245512
6710,10,Ticks_ISO_T2_5,203,1,48,47,1752705900
6710,10,Ticks_ISO_T2_5,204,5,42,127,1752746476
6710,10,Ticks_ISO_T2_5,205,1,48,49,1753221752
6710,10,Ticks_ISO_T2_5,206,5,42,127,1753246320
6710,10,Ticks_ISO_T2_5,207,1,48,46,1753735880
6710,10,Ticks_ISO_T2_5,208,5,42,127,1753745864
6710,10,Ticks_ISO_T2_5,209,1,48,44,1754242164
6710,10,Ticks_ISO_T2_5,210,5,42,127,1754245560
6710,10,Ticks_ISO_T2_5,211,5,42,127,1754746160
6710,10,Ticks_ISO_T2_5,212,1,48,44,1754748680
6710,10,Ticks_ISO_T2_5,213,1,48,48,1755225768
6710,10,Ticks_ISO_T2_5,214,5,42,127,1755246072
6710,10,Ticks_ISO_T2_5,215,1,48,45,1755724268
6710,10,Ticks_ISO_T2_5,216,5,42,127,1755745620
6710,10,Ticks_ISO_T2_5,217,1,48,43,1756213164
6710,10,Ticks_ISO_T2_5,218,5,42,127,1756246512
6710,10,Ticks_ISO_T2_5,219,1,48,39,1756687732
6710,10,Ticks_ISO_T2_5,220,5,42,127,1756746032
6710,10,Ticks_ISO_T2_5,221,1,48,44,1757218096
6710,10,Ticks_ISO_T2_5,222,5,42,127,1757245800
6710,10,Ticks_ISO_T2_5,223,1,48,41,1757675752
6710,10,Ticks_ISO_T2_5,224,5,42,127,1757745496
6710,10,Ticks_ISO_T2_5,225,1,48,30,1758201176
6710,10,Ticks_ISO_T2_5,226,5,42,127,1758246236
6710,10,Ticks_ISO_T2_5,227,5,42,127,1758746088
6710,10,Ticks_ISO_T2_5,228,1,48,44,1758747056
6710,10,Ticks_ISO_T2_5,229,5,42,127,1759245560
6710,10,Ticks_ISO_T2_5,230,1,48,28,1759262964
6710,10,Ticks_ISO_T2_5,231,1,48,29,1759734364
6710,10,Ticks_ISO_T2_5,232,5,42,127,1759746368
6710,10,Ticks_ISO_T2_5,233,1,48,46,1760207060
6710,10,Ticks_ISO_T2_5,234,5,42,127,1760246136
6710,10,Ticks_ISO_T2_5,235,1,48,45,1760713260
6710,10,Ticks_ISO_T2_5,236,5,42,127,1760745980
6710,10,Ticks_ISO_T2_5,237,1,48,46,1761229192
6710,10,Ticks_ISO_T2_5,238,5,42,127,1761245452
6710,10,Ticks_ISO_T2_5,239,1,48,43,1761712428
6710,10,Ticks_ISO_T2_5,240,5,42,127,1761746192
6710,10,Ticks_ISO_T2_5,241,1,48,41,1762196716
6710,10,Ticks_ISO_T2_5,242,5,42,127,1762246112
6710,10,Ticks_ISO_T2_5,243,1,48,41,1762707932
6710,10,Ticks_ISO_T2_5,244,5,42,127,1762745736
6710,10,Ticks_ISO_T2_5,245,1,48,43,1763205604
6710,10,Ticks_ISO_T2_5,246,5,42,127,1763245504
6710,10,Ticks_ISO_T2_5,247,1,48,46,1763707992
6710,10,Ticks_ISO_T2_5,248,5,42,127,1763746020
6710,10,Ticks_ISO_T2_5,249,1,48,44,1764213368
6710,10,Ticks_ISO_T2_5,250,5,42,127,1764245940
6710,10,Ticks_ISO_T2_5,251,1,48,38,1764711940
6710,10,Ticks_ISO_T2_5,252,5,42,127,1764745632
6710,10,Ticks_ISO_T2_5,253,1,48,41,1765193812
6710,10,Ticks_ISO_T2_5,254,5,42,127,1765246224
6710,10,Ticks_ISO_T2_5,255,1,48,45,1765733992
6710,10,Ticks_ISO_T2_5,256,5,42,127,1765745992
6710,10,Ticks_ISO_T2_5,257,1,48,42,1766231892
6710,10,Ticks_ISO_T2_5,258,5,42,127,1766245764
6710,10,Ticks_ISO_T2_5,259,1,48,42,1766715328
6710,10,Ticks_ISO_T2_5,0,9999,9999,9999,1701743676
6710,10,Ticks_ISO_T2_5,1,9999,9999,9999,1702243392
6710,10,Ticks_ISO_T2_5,2,9999,9999,9999,1702743088
6710,10,Ticks_ISO_T2_5,3,9999,9999,9999,1703243880
6710,10,Ticks_ISO_T2_5,4,9999,9999,9999,1703743568
6710,10,Ticks_ISO_T2_5,5,9999,9999,9999,1704243264
6710,10,Ticks_ISO_T2_5,6,9999,9999,9999,1704744012
6710,10,Ticks_ISO_T2_5,7,9999,9999,9999,1705243700
6710,10,Ticks_ISO_T2_5,8,9999,9999,9999,1705743468
6710,10,Ticks_ISO_T2_5,9,9999,9999,9999,1706243164
6710,10,Ticks_ISO_T2_5,10,9999,9999,9999,1706743908
6710,10,Ticks_ISO_T2_5,11,9999,9999,9999,1707243600
6710,10,Ticks_ISO_T2_5,12,9999,9999,9999,1707743296
6710,10,Ticks_ISO_T2_5,13,9999,9999,9999,1708244040
6710,10,Ticks_ISO_T2_5,14,9999,9999,9999,1708743732
6710,10,Ticks_ISO_T2_5,15,9999,9999,9999,1709243504
6710,10,Ticks_ISO_T2_5,16,9999,9999,9999,1709743196
6710,10,Ticks_ISO_T2_5,17,9999,9999,9999,1710243940
6710,10,Ticks_ISO_T2_5,18,9999,9999,9999,1710743640
6710,10,Ticks_ISO_T2_5,19,9999,9999,9999,1711243328
6710,10,Ticks_ISO_T2_5,20,9999,9999,9999,1711744072
6710,10,Ticks_ISO_T2_5,21,9999,9999,9999,1712243764
6710,10,Ticks_ISO_T2_5,22,9999,9999,9999,1712743536
6710,10,Ticks_ISO_T2_5,23,9999,9999,9999,1713243228
6710,10,Ticks_ISO_T2_5,24,9999,9999,9999,1713743968
6710,10,Ticks_ISO_T2_5,25,9999,9999,9999,1714243644
6710,10,Ticks_ISO_T2_5,26,9999,9999,9999,1714743408
6710,10,Ticks_ISO_T2_5,27,9999,9999,9999,1715243104
6710,10,Ticks_ISO_T2_5,28,9999,9999,9999,1715743844
6710,10,Ticks_ISO_T2_5,29,9999,9999,9999,1716243540
6710,10,Ticks_ISO_T2_5,30,9999,9999,9999,1716743236
6710,10,Ticks_ISO_T2_5,31,9999,9999,9999,1717244020
6710,10,Ticks_ISO_T2_5,32,9999,9999,9999,1717743672
6710,10,Ticks_ISO_T2_5,33,9999,9999,9999,1718243440
6710,10,Ticks_ISO_T2_5,34,9999,9999,9999,1718743136
6710,10,Ticks_ISO_T2_5,35,9999,9999,9999,1719243876
6710,10,Ticks_ISO_T2_5,36,9999,9999,9999,1719743572
6710,10,Ticks_ISO_T2_5,37,9999,9999,9999,1720243268
6710,10,Ticks_ISO_T2_5,38,9999,9999,9999,1720744012
6710,10,Ticks_ISO_T2_5,39,9999,9999,9999,1721243712
6710,10,Ticks_ISO_T2_5,40,9999,9999,9999,1721743476
6710,10,Ticks_ISO_T2_5,41,9999,9999,9999,1722243176
6710,10,Ticks_ISO_T2_5,42,9999,9999,9999,1722743912
6710,10,Ticks_ISO_T2_5,43,9999,9999,9999,1723243604
6710,10,Ticks_ISO_T2_5,44,9999,9999,9999,1723743348
6710,10,Ticks_ISO_T2_5,45,9999,9999,9999,1724244024
6710,10,Ticks_ISO_T2_5,46,9999,9999,9999,1724743768
6710,10,Ticks_ISO_T2_5,47,9999,9999,9999,1725243456
6710,10,Ticks_ISO_T2_5,48,9999,9999,9999,1725743224
6710,10,Ticks_ISO_T2_5,49,9999,9999,9999,1726243896
6710,10,Ticks_ISO_T2_5,50,9999,9999,9999,1726743660
6710,10,Ticks_ISO_T2_5,51,9999,9999,9999,1727243352
6710,10,Ticks_ISO_T2_5,52,9999,9999,9999,1727744104
6710,10,Ticks_ISO_T2_5,53,9999,9999,9999,1728243796
6710,10,Ticks_ISO_T2_5,54,9999,9999,9999,1728743484
6710,10,Ticks_ISO_T2_5,55,9999,9999,9999,1729243256
6710,10,Ticks_ISO_T2_5,56,9999,9999,9999,1729743920
6710,10,Ticks_ISO_T2_5,57,9999,9999,9999,1730243696
6710,10,Ticks_ISO_T2_5,58,9999,9999,9999,1730743384
6710,10,Ticks_ISO_T2_5,59,9999,9999,9999,1731243084
6710,10,Ticks_ISO_T2_5,60,9999,9999,9999,1731743820
6710,10,Ticks_ISO_T2_5,61,9999,9999,9999,1732243524
6710,10,Ticks_ISO_T2_5,62,9999,9999,9999,1732743284
6710,10,Ticks_ISO_T2_5,63,9999,9999,9999,1733243952
6710,10,Ticks_ISO_T2_5,64,9999,9999,9999,1733743720
6710,10,Ticks_ISO_T2_5,65,9999,9999,9999,1734243416
6710,10,Ticks_ISO_T2_5,66,9999,9999,9999,1734743112
6710,10,Ticks_ISO_T2_5,67,9999,9999,9999,1735243860
6710,10,Ticks_ISO_T2_5,68,9999,9999,9999,1735743604
6710,10,Ticks_ISO_T2_5,69,9999,9999,9999,1736243300
6710,10,Ticks_ISO_T2_5,70,9999,9999,9999,1736744044
6710,10,Ticks_ISO_T2_5,71,9999,9999,9999,1737243740
6710,10,Ticks_ISO_T2_5,72,9999,9999,9999,1737743432
6710,10,Ticks_ISO_T2_5,73,9999,9999,9999,1738243128
6710,10,Ticks_ISO_T2_5,74,9999,9999,9999,1738743864
6710,10,Ticks_ISO_T2_5,75,9999,9999,9999,1739243636
6710,10,Ticks_ISO_T2_5,76,9999,9999,9999,1739743328
6710,10,Ticks_ISO_T2_5,77,9999,9999,9999,1740244080
6710,10,Ticks_ISO_T2_5,78,9999,9999,9999,1740743772
6710,10,Ticks_ISO_T2_5,79,9999,9999,9999,1741243460
6710,10,Ticks_ISO_T2_5,80,9999,9999,9999,1741743156
6710,10,Ticks_ISO_T2_5,81,9999,9999,9999,1742243896
6710,10,Ticks_ISO_T2_5,82,9999,9999,9999,1742743668
6710,10,Ticks_ISO_T2_5,83,9999,9999,9999,1743243360
6710,10,Ticks_ISO_T2_5,84,9999,9999,9999,1743744104
6710,10,Ticks_ISO_T2_5,85,9999,9999,9999,1744243804
6710,10,Ticks_ISO_T2_5,86,9999,9999,9999,1744743492
6710,10,Ticks_ISO_T2_5,87,9999,9999,9999,1745243188
6710,10,Ticks_ISO_T2_5,88,9999,9999,9999,1745743928
6710,10,Ticks_ISO_T2_5,89,9999,9999,9999,1746243680
6710,10,Ticks_ISO_T2_5,90,9999,9999,9999,1746743372
6710,10,Ticks_ISO_T2_5,91,9999,9999,9999,1747243108
6710,10,Ticks_ISO_T2_5,92,9999,9999,9999,1747743804
6710,10,Ticks_ISO_T2_5,93,9999,9999,9999,1748243572
6710,10,Ticks_ISO_T2_5,94,9999,9999,9999,1748743268
6710,10,Ticks_ISO_T2_5,95,9999,9999,9999,1749244008
6710,10,Ticks_ISO_T2_5,96,9999,9999,9999,1749743704
6710,10,Ticks_ISO_T2_5,97,9999,9999,9999,1750243404
6710,10,Ticks_ISO_T2_5,98,9999,9999,9999,1750743100
6710,10,Ticks_ISO_T2_5,99,9999,9999,9999,1751243832
6710,10,Ticks_ISO_T2_5,100,9999,9999,9999,1751743604
6710,10,Ticks_ISO_T2_5,101,9999,9999,9999,1752243300
6710,10,Ticks_ISO_T2_5,102,9999,9999,9999,1752744040
6710,10,Ticks_ISO_T2_5,103,9999,9999,9999,1753243736
6710,10,Ticks_ISO_T2_5,104,9999,9999,9999,1753743428
6710,10,Ticks_ISO_T2_5,105,9999,9999,9999,1754243124
6710,10,Ticks_ISO_T2_5,106,9999,9999,9999,1754743872
6710,10,Ticks_ISO_T2_5,107,9999,9999,9999,1755243636
6710,10,Ticks_ISO_T2_5,108,9999,9999,9999,1755743332
6710,10,Ticks_ISO_T2_5,109,9999,9999,9999,1756244076
6710,10,Ticks_ISO_T2_5,110,9999,9999,9999,1756743744
6710,10,Ticks_ISO_T2_5,111,9999,9999,9999,1757243440
6710,10,Ticks_ISO_T2_5,112,9999,9999,9999,1757743208
6710,10,Ticks_ISO_T2_5,113,9999,9999,9999,1758243952
6710,10,Ticks_ISO_T2_5,114,9999,9999,9999,1758743652
6710,10,Ticks_ISO_T2_5,115,9999,9999,9999,1759243348
6710,10,Ticks_ISO_T2_5,116,9999,9999,9999,1759744080
6710,10,Ticks_ISO_T2_5,117,9999,9999,9999,1760243776
6710,10,Ticks_ISO_T2_5,118,9999,9999,9999,1760743544
6710,10,Ticks_ISO_T2_5,119,9999,9999,9999,1761243240
6710,10,Ticks_ISO_T2_5,120,9999,9999,9999,1761743980
6710,10,Ticks_ISO_T2_5,121,9999,9999,9999,1762243676
6710,10,Ticks_ISO_T2_5,122,9999,9999,9999,1762743372
6710,10,Ticks_ISO_T2_5,123,9999,9999,9999,1763243068
6710,10,Ticks_ISO_T2_5,124,9999,9999,9999,1763743808
6710,10,Ticks_ISO_T2_5,125,9999,9999,9999,1764243504
6710,10,Ticks_ISO_T2_5,126,9999,9999,9999,1764743272
6710,10,Ticks_ISO_T2_5,127,9999,9999,9999,1765244012
6710,10,Ticks_ISO_T2_5,128,9999,9999,9999,1765743708
6710,10,Ticks_ISO_T2_5,129,9999,9999,9999,1766243404
6711,25,Jits_Pract_5,0,5,56,103,1813505420
6711,25,Jits_Pract_5,1,5,63,98,1813508520
6711,25,Jits_Pract_5,2,5,80,127,1813511644
6711,25,Jits_Pract_5,0,5,56,103,1814005072
6711,25,Jits_Pract_5,1,5,63,98,1814008172
6711,25,Jits_Pract_5,2,5,80,127,1814011516
6711,25,Jits_Pract_5,0,5,56,103,1814504892
6711,25,Jits_Pract_5,1,5,80,127,1814514936
6711,25,Jits_Pract_5,2,5,63,98,1814534572
6711,25,Jits_Pract_5,0,5,63,98,1814955336
6711,25,Jits_Pract_5,1,5,80,127,1814984940
6711,25,Jits_Pract_5,2,5,56,103,1814995284
6711,25,Jits_Pract_5,0,5,80,127,1815514408
6711,25,Jits_Pract_5,1,5,56,103,1815524604
6711,25,Jits_Pract_5,2,5,63,98,1815554352
6711,25,Jits_Pract_5,0,5,63,98,1816004936
6711,25,Jits_Pract_5,1,5,56,103,1816034612
6711,25,Jits_Pract_5,2,5,80,127,1816044880
6711,25,Jits_Pract_5,0,5,56,103,1816454548
6711,25,Jits_Pract_5,1,5,63,98,1816504676
6711,25,Jits_Pract_5,2,5,80,127,1816525208
6711,25,Jits_Pract_5,0,5,80,127,1816955336
6711,25,Jits_Pract_5,1,5,63,98,1817005316
6711,25,Jits_Pract_5,2,5,56,103,1817045476
6711,25,Jits_Pract_5,0,5,56,103,1817454932
6711,25,Jits_Pract_5,1,5,63,98,1817484608
6711,25,Jits_Pract_5,2,5,80,127,1817555408
6711,25,Jits_Pract_5,0,5,56,103,1817954752
6711,25,Jits_Pract_5,1,1,48,17,1817986788
6711,25,Jits_Pract_5,2,5,80,127,1818015208
6711,25,Jits_Pract_5,3,5,63,98,1818044660
6711,25,Jits_Pract_5,0,5,56,103,1818464720
6711,25,Jits_Pract_5,1,5,63,98,1818474844
6711,25,Jits_Pract_5,2,5,80,127,1818514856
6711,25,Jits_Pract_5,0,5,63,98,1818955172
6711,25,Jits_Pract_5,1,5,80,127,1819034968
6711,25,Jits_Pract_5,2,5,56,103,1819045460
6711,25,Jits_Pract_5,0,5,63,98,1819505100
6711,25,Jits_Pract_5,1,5,56,103,1819544888
6711,25,Jits_Pract_5,2,5,80,127,1819547956
6711,25,Jits_Pract_5,0,5,56,103,1819964716
6711,25,Jits_Pract_5,1,5,63,98,1819974988
6711,25,Jits_Pract_5,2,5,80,127,1820015100
6711,25,Jits_Pract_5,0,5,56,103,1820455240
6711,25,Jits_Pract_5,1,5,63,98,1820458308
6711,25,Jits_Pract_5,2,5,80,127,1820474656
6711,25,Jits_Pract_5,0,9999,9999,9999,1813752936
6711,25,Jits_Pract_5,1,9999,9999,9999,1814252660
6711,25,Jits_Pract_5,2,9999,9999,9999,1814752332
6711,25,Jits_Pract_5,3,9999,9999,9999,1815253048
6711,25,Jits_Pract_5,4,9999,9999,9999,1815752780
6711,25,Jits_Pract_5,5,9999,9999,9999,1816252528
6711,25,Jits_Pract_5,6,9999,9999,9999,1816752184
6711,25,Jits_Pract_5,7,9999,9999,9999,1817252972
6711,25,Jits_Pract_5,8,9999,9999,9999,1817752640
6711,25,Jits_Pract_5,9,9999,9999,9999,1818252368
6711,25,Jits_Pract_5,10,9999,9999,9999,1818752092
6711,25,Jits_Pract_5,11,9999,9999,9999,1819252812
6711,25,Jits_Pract_5,12,9999,9999,9999,1819752536
6711,25,Jits_Pract_5,13,9999,9999,9999,1820252264
6711,25,Jits_Pract_5,14,9999,9999,9999,1820752964
6712,24,Jits_Pract_8,0,5,56,103,1877756456
6712,24,Jits_Pract_8,1,5,63,98,1877759632
6712,24,Jits_Pract_8,2,5,80,127,1877762676
6712,24,Jits_Pract_8,0,1,48,23,1878334596
6712,24,Jits_Pract_8,1,5,56,103,1878555848
6712,24,Jits_Pract_8,2,5,63,98,1878559100
6712,24,Jits_Pract_8,3,5,80,127,1878562372
6712,24,Jits_Pract_8,0,5,80,127,1879296444
6712,24,Jits_Pract_8,1,1,48,32,1879384128
6712,24,Jits_Pract_8,2,5,63,98,1879385696
6712,24,Jits_Pract_8,3,5,56,103,1879395672
6712,24,Jits_Pract_8,0,5,56,103,1880115544
6712,24,Jits_Pract_8,1,5,63,98,1880125892
6712,24,Jits_Pract_8,2,1,48,31,1880201328
6712,24,Jits_Pract_8,3,5,80,127,1880215892
6712,24,Jits_Pract_8,0,1,48,33,1880858416
6712,24,Jits_Pract_8,1,5,63,98,1880885712
6712,24,Jits_Pract_8,2,5,80,127,1880916460
6712,24,Jits_Pract_8,3,5,56,103,1880945988
6712,24,Jits_Pract_8,0,1,48,38,1881670400
6712,24,Jits_Pract_8,1,5,56,103,1881686536
6712,24,Jits_Pract_8,2,5,80,127,1881785652
6712,24,Jits_Pract_8,3,5,63,98,1881835852
6712,24,Jits_Pract_8,0,5,56,103,1882486300
6712,24,Jits_Pract_8,1,1,48,38,1882533836
6712,24,Jits_Pract_8,2,5,80,127,1882536424
6712,24,Jits_Pract_8,3,5,63,98,1882576656
6712,24,Jits_Pract_8,0,5,80,127,1883315520
6712,24,Jits_Pract_8,1,1,48,43,1883346316
6712,24,Jits_Pract_8,2,5,63,98,1883347652
6712,24,Jits_Pract_8,3,5,56,103,1883415916
6712,24,Jits_Pract_8,0,1,48,41,1884136464
6712,24,Jits_Pract_8,1,5,63,98,1884145924
6712,24,Jits_Pract_8,2,5,56,103,1884175748
6712,24,Jits_Pract_8,3,5,80,127,1884236224
6712,24,Jits_Pract_8,0,5,56,103,1884886580
6712,24,Jits_Pract_8,1,5,80,127,1884889572
6712,24,Jits_Pract_8,2,1,48,41,1884956904
6712,24,Jits_Pract_8,3,5,63,98,1885006468
6712,24,Jits_Pract_8,0,1,48,43,1885738452
6712,24,Jits_Pract_8,1,5,56,103,1885766076
6712,24,Jits_Pract_8,2,5,80,127,1885805940
6712,24,Jits_Pract_8,3,5,63,98,1885816656
6712,24,Jits_Pract_8,0,5,56,103,1886525664
6712,24,Jits_Pract_8,1,1,48,39,1886545164
6712,24,Jits_Pract_8,2,5,80,127,1886546660
6712,24,Jits_Pract_8,3,5,63,98,1886626380
6712,24,Jits_Pract_8,0,5,80,127,1887316464
6712,24,Jits_Pract_8,1,1,48,44,1887323716
6712,24,Jits_Pract_8,2,5,56,103,1887415588
6712,24,Jits_Pract_8,3,5,63,98,1887425768
6712,24,Jits_Pract_8,0,5,63,98,1888086500
6712,24,Jits_Pract_8,1,5,80,127,1888145768
6712,24,Jits_Pract_8,2,5,56,103,1888155888
6712,24,Jits_Pract_8,3,1,48,38,1888158632
6712,24,Jits_Pract_8,0,1,48,43,1888872876
6712,24,Jits_Pract_8,1,5,56,103,1888886392
6712,24,Jits_Pract_8,2,5,63,98,1888955700
6712,24,Jits_Pract_8,3,5,80,127,1888959364
6712,24,Jits_Pract_8,0,9999,9999,9999,1878153292
6712,24,Jits_Pract_8,1,9999,9999,9999,1878954036
6712,24,Jits_Pract_8,2,9999,9999,9999,1879753796
6712,24,Jits_Pract_8,3,9999,9999,9999,1880553564
6712,24,Jits_Pract_8,4,9999,9999,9999,1881353332
6712,24,Jits_Pract_8,5,9999,9999,9999,1882154064
6712,24,Jits_Pract_8,6,9999,9999,9999,1882953840
6712,24,Jits_Pract_8,7,9999,9999,9999,1883753540
6712,24,Jits_Pract_8,8,9999,9999,9999,1884553316
6712,24,Jits_Pract_8,9,9999,9999,9999,1885354036
6712,24,Jits_Pract_8,10,9999,9999,9999,1886153812
6712,24,Jits_Pract_8,11,9999,9999,9999,1886953568
6712,24,Jits_Pract_8,12,9999,9999,9999,1887753272
6712,24,Jits_Pract_8,13,9999,9999,9999,1888554088
6712,24,Jits_Pract_8,14,9999,9999,9999,1889353780
6713,25,Jits_Pract_5,0,5,56,103,1899470304
6713,25,Jits_Pract_5,1,5,63,98,1899473248
6713,25,Jits_Pract_5,2,5,80,127,1899476448
6713,25,Jits_Pract_5,0,1,48,30,1899727292
6713,25,Jits_Pract_5,1,5,56,103,1899970080
6713,25,Jits_Pract_5,2,5,63,98,1899973108
6713,25,Jits_Pract_5,3,5,80,127,1899976300
6713,25,Jits_Pract_5,0,5,56,103,1900469572
6713,25,Jits_Pract_5,1,5,80,127,1900479992
6713,25,Jits_Pract_5,2,1,48,27,1900484304
6713,25,Jits_Pract_5,3,5,63,98,1900500296
6713,25,Jits_Pract_5,0,5,63,98,1900920132
6713,25,Jits_Pract_5,1,5,80,127,1900949808
6713,25,Jits_Pract_5,2,5,56,103,1900960152
6713,25,Jits_Pract_5,3,1,48,31,1901023124
6713,25,Jits_Pract_5,0,5,80,127,1901480432
6713,25,Jits_Pract_5,1,5,56,103,1901489504
6713,25,Jits_Pract_5,2,1,48,33,1901499072
6713,25,Jits_Pract_5,3,5,63,98,1901520368
6713,25,Jits_Pract_5,0,5,63,98,1901969728
6713,25,Jits_Pract_5,1,5,56,103,1901999480
6713,25,Jits_Pract_5,2,5,80,127,1902009676
6713,25,Jits_Pract_5,3,1,48,33,1902052196
6713,25,Jits_Pract_5,0,5,56,103,1902420348
6713,25,Jits_Pract_5,1,5,63,98,1902469504
6713,25,Jits_Pract_5,2,5,80,127,1902490108
6713,25,Jits_Pract_5,3,1,48,34,1902535472
6713,25,Jits_Pract_5,0,5,80,127,1902920128
6713,25,Jits_Pract_5,1,5,63,98,1902970180
6713,25,Jits_Pract_5,2,1,48,31,1902991352
6713,25,Jits_Pract_5,3,5,56,103,1903010260
6713,25,Jits_Pract_5,0,5,56,103,1903419660
6713,25,Jits_Pract_5,1,5,63,98,1903449512
6713,25,Jits_Pract_5,2,1,48,30,1903478112
6713,25,Jits_Pract_5,3,5,80,127,1903520232
6713,25,Jits_Pract_5,0,5,56,103,1903919444
6713,25,Jits_Pract_5,1,1,48,34,1903967548
6713,25,Jits_Pract_5,2,5,80,127,1903980076
6713,25,Jits_Pract_5,3,5,63,98,1904009676
6713,25,Jits_Pract_5,0,5,56,103,1904429492
6713,25,Jits_Pract_5,1,5,63,98,1904439612
6713,25,Jits_Pract_5,2,5,80,127,1904479500
6713,25,Jits_Pract_5,3,1,48,25,1904520148
6713,25,Jits_Pract_5,0,5,63,98,1904920052
6713,25,Jits_Pract_5,1,1,48,30,1904935228
6713,25,Jits_Pract_5,2,5,80,127,1904999944
6713,25,Jits_Pract_5,3,5,56,103,1905010288
6713,25,Jits_Pract_5,0,5,63,98,1905470084
6713,25,Jits_Pract_5,1,1,48,32,1905493976
6713,25,Jits_Pract_5,2,5,56,103,1905509668
6713,25,Jits_Pract_5,3,5,80,127,1905512956
6713,25,Jits_Pract_5,0,5,56,103,1905929464
6713,25,Jits_Pract_5,1,5,63,98,1905939960
6713,25,Jits_Pract_5,2,5,80,127,1905979820
6713,25,Jits_Pract_5,3,1,48,30,1906022892
6713,25,Jits_Pract_5,0,5,56,103,1906420172
6713,25,Jits_Pract_5,1,5,63,98,1906423164
6713,25,Jits_Pract_5,2,5,80,127,1906439584
6713,25,Jits_Pract_5,3,1,48,24,1906455504
6713,25,Jits_Pract_5,0,9999,9999,9999,1899717740
6713,25,Jits_Pract_5,1,9999,9999,9999,1900217444
6713,25,Jits_Pract_5,2,9999,9999,9999,1900717140
6713,25,Jits_Pract_5,3,9999,9999,9999,1901217892
6713,25,Jits_Pract_5,4,9999,9999,9999,1901717588
6713,25,Jits_Pract_5,5,9999,9999,9999,1902217300
6713,25,Jits_Pract_5,6,9999,9999,9999,1902718036
6713,25,Jits_Pract_5,7,9999,9999,9999,1903217744
6713,25,Jits_Pract_5,8,9999,9999,9999,1903717448
6713,25,Jits_Pract_5,9,9999,9999,9999,1904217160
6713,25,Jits_Pract_5,10,9999,9999,9999,1904717908
6713,25,Jits_Pract_5,11,9999,9999,9999,1905217592
6713,25,Jits_Pract_5,12,9999,9999,9999,1905717348
6713,25,Jits_Pract_5,13,9999,9999,9999,1906218084
6713,25,Jits_Pract_5,14,9999,9999,9999,1906717772
6714,18,Jits_Linear_8,0,5,56,103,1930692924
6714,18,Jits_Linear_8,1,5,63,98,1930696092
6714,18,Jits_Linear_8,2,5,80,127,1930699144
6714,18,Jits_Linear_8,0,1,48,19,1931184424
6714,18,Jits_Linear_8,1,5,56,103,1931513132
6714,18,Jits_Linear_8,2,5,63,98,1931516160
6714,18,Jits_Linear_8,3,5,80,127,1931519508
6714,18,Jits_Linear_8,4,1,48,23,1931716232
6714,18,Jits_Linear_8,0,5,80,127,1932272876
6714,18,Jits_Linear_8,1,1,48,30,1932323792
6714,18,Jits_Linear_8,2,5,63,98,1932363252
6714,18,Jits_Linear_8,3,5,56,103,1932373300
6714,18,Jits_Linear_8,0,5,56,103,1933112652
6714,18,Jits_Linear_8,1,5,63,98,1933123096
6714,18,Jits_Linear_8,2,1,48,29,1933184504
6714,18,Jits_Linear_8,3,5,80,127,1933212924
6714,18,Jits_Linear_8,0,5,63,98,1933903080
6714,18,Jits_Linear_8,1,5,80,127,1933932828
6714,18,Jits_Linear_8,2,1,48,31,1933936468
6714,18,Jits_Linear_8,3,5,56,103,1933962720
6714,18,Jits_Linear_8,0,1,48,38,1934644776
6714,18,Jits_Linear_8,1,5,56,103,1934722596
6714,18,Jits_Linear_8,2,5,80,127,1934822760
6714,18,Jits_Linear_8,3,5,63,98,1934872888
6714,18,Jits_Linear_8,0,1,48,31,1935496172
6714,18,Jits_Linear_8,1,5,56,103,1935533292
6714,18,Jits_Linear_8,2,5,80,127,1935582820
6714,18,Jits_Linear_8,3,5,63,98,1935622672
6714,18,Jits_Linear_8,0,1,48,29,1936288504
6714,18,Jits_Linear_8,1,5,80,127,1936373056
6714,18,Jits_Linear_8,2,5,63,98,1936402792
6714,18,Jits_Linear_8,3,5,56,103,1936472644
6714,18,Jits_Linear_8,0,1,48,38,1937175328
6714,18,Jits_Linear_8,1,5,63,98,1937212892
6714,18,Jits_Linear_8,2,5,56,103,1937242596
6714,18,Jits_Linear_8,3,5,80,127,1937302820
6714,18,Jits_Linear_8,0,5,56,103,1937972572
6714,18,Jits_Linear_8,1,5,80,127,1937975788
6714,18,Jits_Linear_8,2,5,63,98,1938093592
6714,18,Jits_Linear_8,3,1,48,35,1938097536
6714,18,Jits_Linear_8,0,1,48,42,1938850012
6714,18,Jits_Linear_8,1,5,56,103,1938853192
6714,18,Jits_Linear_8,2,5,80,127,1938893132
6714,18,Jits_Linear_8,3,5,63,98,1938903700
6714,18,Jits_Linear_8,0,5,56,103,1939613096
6714,18,Jits_Linear_8,1,5,80,127,1939632656
6714,18,Jits_Linear_8,2,1,48,35,1939671296
6714,18,Jits_Linear_8,3,5,63,98,1939713344
6714,18,Jits_Linear_8,0,5,80,127,1940402752
6714,18,Jits_Linear_8,1,1,48,32,1940498920
6714,18,Jits_Linear_8,2,5,56,103,1940502848
6714,18,Jits_Linear_8,3,5,63,98,1940513344
6714,18,Jits_Linear_8,0,5,63,98,1941172484
6714,18,Jits_Linear_8,1,5,80,127,1941232952
6714,18,Jits_Linear_8,2,5,56,103,1941243148
6714,18,Jits_Linear_8,3,1,48,35,1941284476
6714,18,Jits_Linear_8,0,1,48,36,1941936680
6714,18,Jits_Linear_8,1,5,56,103,1941973572
6714,18,Jits_Linear_8,2,5,63,98,1942042944
6714,18,Jits_Linear_8,3,5,80,127,1942046304
6714,18,Jits_Linear_8,0,1,48,39,1942690188
6714,18,Jits_Linear_8,1,5,63,98,1942802896
6714,18,Jits_Linear_8,2,5,56,103,1942853048
6714,18,Jits_Linear_8,3,5,80,127,1942856264
6714,18,Jits_Linear_8,0,1,48,25,1943530860
6714,18,Jits_Linear_8,1,5,56,103,1943553652
6714,18,Jits_Linear_8,2,5,80,127,1943556644
6714,18,Jits_Linear_8,3,5,63,98,1943642676
6714,18,Jits_Linear_8,0,1,48,36,1944305416
6714,18,Jits_Linear_8,1,5,63,98,1944382844
6714,18,Jits_Linear_8,2,5,56,103,1944472844
6714,18,Jits_Linear_8,3,5,80,127,1944502592
6714,18,Jits_Linear_8,0,1,48,37,1945060140
6714,18,Jits_Linear_8,1,5,56,103,1945163060
6714,18,Jits_Linear_8,2,5,63,98,1945262488
6714,18,Jits_Linear_8,3,5,80,127,1945293060
6714,18,Jits_Linear_8,0,1,48,38,1945894228
6714,18,Jits_Linear_8,1,5,63,98,1945973024
6714,18,Jits_Linear_8,2,5,56,103,1945983520
6714,18,Jits_Linear_8,3,5,80,127,1946072588
6714,18,Jits_Linear_8,0,1,48,43,1946729216
6714,18,Jits_Linear_8,1,5,63,98,1946772784
6714,18,Jits_Linear_8,2,5,56,103,1946852712
6714,18,Jits_Linear_8,3,5,80,127,1946856004
6714,18,Jits_Linear_8,0,5,80,127,1947513348
6714,18,Jits_Linear_8,1,5,63,98,1947532764
6714,18,Jits_Linear_8,2,1,48,40,1947567348
6714,18,Jits_Linear_8,3,5,56,103,1947593072
6714,18,Jits_Linear_8,0,1,48,43,1948314664
6714,18,Jits_Linear_8,1,5,56,103,1948333564
6714,18,Jits_Linear_8,2,5,63,98,1948352828
6714,18,Jits_Linear_8,3,5,80,127,1948356264
6714,18,Jits_Linear_8,0,5,63,98,1949053668
6714,18,Jits_Linear_8,1,1,48,44,1949057984
6714,18,Jits_Linear_8,2,5,80,127,1949133308
6714,18,Jits_Linear_8,3,5,56,103,1949143504
6714,18,Jits_Linear_8,0,1,48,43,1949850852
6714,18,Jits_Linear_8,1,5,63,98,1949853040
6714,18,Jits_Linear_8,2,5,56,103,1949872532
6714,18,Jits_Linear_8,3,5,80,127,1949922804
6714,18,Jits_Linear_8,0,1,48,43,1950621084
6714,18,Jits_Linear_8,1,5,80,127,1950633388
6714,18,Jits_Linear_8,2,5,63,98,1950673628
6714,18,Jits_Linear_8,3,5,56,103,1950692668
6714,18,Jits_Linear_8,0,1,48,45,1951417532
6714,18,Jits_Linear_8,1,5,56,103,1951443484
6714,18,Jits_Linear_8,2,5,63,98,1951452556
6714,18,Jits_Linear_8,3,5,80,127,1951472944
6714,18,Jits_Linear_8,0,5,56,103,1952142700
6714,18,Jits_Linear_8,1,1,48,41,1952210616
6714,18,Jits_Linear_8,2,5,63,98,1952232832
6714,18,Jits_Linear_8,3,5,80,127,1952293296
6714,18,Jits_Linear_8,0,1,48,40,1952934496
6714,18,Jits_Linear_8,1,5,80,127,1952942392
6714,18,Jits_Linear_8,2,5,56,103,1952952812
6714,18,Jits_Linear_8,3,5,63,98,1953023464
6714,18,Jits_Linear_8,0,1,48,45,1953724588
6714,18,Jits_Linear_8,1,5,63,98,1953743416
6714,18,Jits_Linear_8,2,5,80,127,1953833464
6714,18,Jits_Linear_8,3,5,56,103,1953842612
6714,18,Jits_Linear_8,0,5,63,98,1954442640
6714,18,Jits_Linear_8,1,5,80,127,1954492768
6714,18,Jits_Linear_8,2,1,48,42,1954517980
6714,18,Jits_Linear_8,3,5,56,103,1954553152
6714,18,Jits_Linear_8,0,5,56,103,1955233248
6714,18,Jits_Linear_8,1,1,48,39,1955237940
6714,18,Jits_Linear_8,2,5,80,127,1955283296
6714,18,Jits_Linear_8,3,5,63,98,1955302712
6714,18,Jits_Linear_8,0,5,56,103,1955963340
6714,18,Jits_Linear_8,1,1,48,45,1955982272
6714,18,Jits_Linear_8,2,5,80,127,1956022532
6714,18,Jits_Linear_8,3,5,63,98,1956093392
6714,18,Jits_Linear_8,0,1,48,43,1956720980
6714,18,Jits_Linear_8,1,5,56,103,1956722944
6714,18,Jits_Linear_8,2,5,80,127,1956752696
6714,18,Jits_Linear_8,3,5,63,98,1956782596
6714,18,Jits_Linear_8,0,1,48,38,1957487588
6714,18,Jits_Linear_8,1,5,56,103,1957522912
6714,18,Jits_Linear_8,2,5,80,127,1957543372
6714,18,Jits_Linear_8,3,5,63,98,1957602624
6714,18,Jits_Linear_8,0,1,48,44,1958301668
6714,18,Jits_Linear_8,1,5,80,127,1958362456
6714,18,Jits_Linear_8,2,5,56,103,1958372652
6714,18,Jits_Linear_8,3,5,63,98,1958382852
6714,18,Jits_Linear_8,0,5,56,103,1959073068
6714,18,Jits_Linear_8,1,5,80,127,1959113012
6714,18,Jits_Linear_8,2,1,48,38,1959122504
6714,18,Jits_Linear_8,3,5,63,98,1959142680
6714,18,Jits_Linear_8,0,5,56,103,1959792980
6714,18,Jits_Linear_8,1,5,63,98,1959822584
6714,18,Jits_Linear_8,2,1,48,47,1959862144
6714,18,Jits_Linear_8,3,5,80,127,1959863708
6714,18,Jits_Linear_8,0,5,80,127,1960493528
6714,18,Jits_Linear_8,1,5,63,98,1960542636
6714,18,Jits_Linear_8,2,5,56,103,1960563168
6714,18,Jits_Linear_8,3,1,48,39,1960596852
6714,18,Jits_Linear_8,0,5,56,103,1961272620
6714,18,Jits_Linear_8,1,1,48,42,1961285352
6714,18,Jits_Linear_8,2,5,80,127,1961343368
6714,18,Jits_Linear_8,3,5,63,98,1961402624
6714,18,Jits_Linear_8,0,1,48,44,1962007924
6714,18,Jits_Linear_8,1,5,80,127,1962013196
6714,18,Jits_Linear_8,2,5,63,98,1962103284
6714,18,Jits_Linear_8,3,5,56,103,1962122680
6714,18,Jits_Linear_8,0,1,48,37,1962747296
6714,18,Jits_Linear_8,1,5,63,98,1962772800
6714,18,Jits_Linear_8,2,5,56,103,1962793408
6714,18,Jits_Linear_8,3,5,80,127,1962833520
6714,18,Jits_Linear_8,0,5,80,127,1963473364
6714,18,Jits_Linear_8,1,5,63,98,1963492704
6714,18,Jits_Linear_8,2,1,48,41,1963521000
6714,18,Jits_Linear_8,3,5,56,103,1963572564
6714,18,Jits_Linear_8,0,5,63,98,1964203452
6714,18,Jits_Linear_8,1,1,48,46,1964258040
6714,18,Jits_Linear_8,2,5,56,103,1964312912
6714,18,Jits_Linear_8,3,5,80,127,1964315904
6714,18,Jits_Linear_8,0,5,63,98,1964963340
6714,18,Jits_Linear_8,1,5,56,103,1964973460
6714,18,Jits_Linear_8,2,5,80,127,1964976600
6714,18,Jits_Linear_8,3,1,48,40,1965007812
6714,18,Jits_Linear_8,0,5,56,103,1965683212
6714,18,Jits_Linear_8,1,1,48,47,1965722900
6714,18,Jits_Linear_8,2,5,80,127,1965802792
6714,18,Jits_Linear_8,3,5,63,98,1965842792
6714,18,Jits_Linear_8,0,5,56,103,1966432496
6714,18,Jits_Linear_8,1,1,48,46,1966504468
6714,18,Jits_Linear_8,2,5,80,127,1966512512
6714,18,Jits_Linear_8,3,5,63,98,1966532968
6714,18,Jits_Linear_8,0,5,56,103,1967162788
6714,18,Jits_Linear_8,1,1,48,39,1967254040
6714,18,Jits_Linear_8,2,5,63,98,1967273392
6714,18,Jits_Linear_8,3,5,80,127,1967276756
6714,18,Jits_Linear_8,0,5,56,103,1967922544
6714,18,Jits_Linear_8,1,5,80,127,1967953440
6714,18,Jits_Linear_8,2,1,48,37,1967963832
6714,18,Jits_Linear_8,3,5,63,98,1967972772
6714,18,Jits_Linear_8,0,5,63,98,1968633308
6714,18,Jits_Linear_8,1,5,56,103,1968642456
6714,18,Jits_Linear_8,2,5,80,127,1968652652
6714,18,Jits_Linear_8,3,1,48,38,1968656520
6714,18,Jits_Linear_8,0,5,80,127,1969342932
6714,18,Jits_Linear_8,1,5,56,103,1969392988
6714,18,Jits_Linear_8,2,1,48,38,1969397672
6714,18,Jits_Linear_8,3,5,63,98,1969432844
6714,18,Jits_Linear_8,0,1,48,43,1970063928
6714,18,Jits_Linear_8,1,5,80,127,1970083580
6714,18,Jits_Linear_8,2,5,63,98,1970102696
6714,18,Jits_Linear_8,3,5,56,103,1970152896
6714,18,Jits_Linear_8,0,5,80,127,1970813220
6714,18,Jits_Linear_8,1,1,48,41,1970827872
6714,18,Jits_Linear_8,2,5,56,103,1970843184
6714,18,Jits_Linear_8,3,5,63,98,1970912568
6714,18,Jits_Linear_8,0,1,48,37,1971564336
6714,18,Jits_Linear_8,1,5,56,103,1971583468
6714,18,Jits_Linear_8,2,5,80,127,1971592540
6714,18,Jits_Linear_8,3,5,63,98,1971632480
6714,18,Jits_Linear_8,0,5,56,103,1972213284
6714,18,Jits_Linear_8,1,5,63,98,1972232548
6714,18,Jits_Linear_8,2,5,80,127,1972303228
6714,18,Jits_Linear_8,3,1,48,35,1972316388
6714,18,Jits_Linear_8,0,1,48,36,1972878300
6714,18,Jits_Linear_8,1,5,63,98,1972952512
6714,18,Jits_Linear_8,2,5,80,127,1973012964
6714,18,Jits_Linear_8,3,5,56,103,1973033348
6714,18,Jits_Linear_8,0,1,48,35,1973636184
6714,18,Jits_Linear_8,1,5,80,127,1973652920
6714,18,Jits_Linear_8,2,5,56,103,1973682596
6714,18,Jits_Linear_8,3,5,63,98,1973713316
6714,18,Jits_Linear_8,0,1,48,30,1974360584
6714,18,Jits_Linear_8,1,5,56,103,1974362320
6714,18,Jits_Linear_8,2,5,63,98,1974423012
6714,18,Jits_Linear_8,3,5,80,127,1974483384
6714,18,Jits_Linear_8,0,1,48,33,1975069788
6714,18,Jits_Linear_8,1,5,80,127,1975092448
6714,18,Jits_Linear_8,2,5,56,103,1975113156
6714,18,Jits_Linear_8,3,5,63,98,1975182600
6714,18,Jits_Linear_8,0,1,48,38,1975793064
6714,18,Jits_Linear_8,1,5,80,127,1975803272
6714,18,Jits_Linear_8,2,5,63,98,1975822688
6714,18,Jits_Linear_8,3,5,56,103,1975853484
6714,18,Jits_Linear_8,0,1,48,38,1976480496
6714,18,Jits_Linear_8,1,5,80,127,1976493420
6714,18,Jits_Linear_8,2,5,63,98,1976512836
6714,18,Jits_Linear_8,3,5,56,103,1976573372
6714,18,Jits_Linear_8,0,5,80,127,1977192932
6714,18,Jits_Linear_8,1,1,48,37,1977213512
6714,18,Jits_Linear_8,2,5,56,103,1977293400
6714,18,Jits_Linear_8,3,5,63,98,1977322764
6714,18,Jits_Linear_8,0,5,63,98,1977883076
6714,18,Jits_Linear_8,1,5,80,127,1977933152
6714,18,Jits_Linear_8,2,5,56,103,1977952564
6714,18,Jits_Linear_8,3,1,48,33,1977954124
6714,18,Jits_Linear_8,0,1,48,29,1978583376
6714,18,Jits_Linear_8,1,5,80,127,1978623260
6714,18,Jits_Linear_8,2,5,56,103,1978653232
6714,18,Jits_Linear_8,3,5,63,98,1978656296
6714,18,Jits_Linear_8,0,1,48,29,1979305056
6714,18,Jits_Linear_8,1,5,63,98,1979352360
6714,18,Jits_Linear_8,2,5,56,103,1979393348
6714,18,Jits_Linear_8,3,5,80,127,1979413116
6714,18,Jits_Linear_8,0,5,80,127,1979992544
6714,18,Jits_Linear_8,1,1,48,37,1980000992
6714,18,Jits_Linear_8,2,5,63,98,1980073384
6714,18,Jits_Linear_8,3,5,56,103,1980113232
6714,18,Jits_Linear_8,0,5,63,98,1980713256
6714,18,Jits_Linear_8,1,1,48,33,1980752144
6714,18,Jits_Linear_8,2,5,80,127,1980793296
6714,18,Jits_Linear_8,3,5,56,103,1980812636
6714,18,Jits_Linear_8,0,1,48,35,1981422712
6714,18,Jits_Linear_8,1,5,56,103,1981442368
6714,18,Jits_Linear_8,2,5,63,98,1981452636
6714,18,Jits_Linear_8,3,5,80,127,1981492576
6714,18,Jits_Linear_8,0,5,56,103,1982052804
6714,18,Jits_Linear_8,1,5,80,127,1982055648
6714,18,Jits_Linear_8,2,1,48,32,1982139300
6714,18,Jits_Linear_8,3,5,63,98,1982193200
6714,18,Jits_Linear_8,0,5,56,103,1982732520
6714,18,Jits_Linear_8,1,1,48,33,1982819944
6714,18,Jits_Linear_8,2,5,63,98,1982822752
6714,18,Jits_Linear_8,3,5,80,127,1982893404
6714,18,Jits_Linear_8,0,1,48,36,1983449320
6714,18,Jits_Linear_8,1,5,63,98,1983492432
6714,18,Jits_Linear_8,2,5,80,127,1983496016
6714,18,Jits_Linear_8,3,5,56,103,1983553128
6714,18,Jits_Linear_8,0,1,48,29,1984117808
6714,18,Jits_Linear_8,1,5,80,127,1984213296
6714,18,Jits_Linear_8,2,5,56,103,1984233064
6714,18,Jits_Linear_8,3,5,63,98,1984243484
6714,18,Jits_Linear_8,0,5,56,103,1984803180
6714,18,Jits_Linear_8,1,5,63,98,1984813380
6714,18,Jits_Linear_8,2,1,48,29,1984842448
6714,18,Jits_Linear_8,3,5,80,127,1984883004
6714,18,Jits_Linear_8,0,1,48,30,1985425652
6714,18,Jits_Linear_8,1,5,80,127,1985483220
6714,18,Jits_Linear_8,2,5,56,103,1985533408
6714,18,Jits_Linear_8,3,5,63,98,1985582416
6714,18,Jits_Linear_8,0,1,48,35,1986153640
6714,18,Jits_Linear_8,1,5,56,103,1986243272
6714,18,Jits_Linear_8,2,5,63,98,1986253156
6714,18,Jits_Linear_8,3,5,80,127,1986293244
6714,18,Jits_Linear_8,0,5,56,103,1986862532
6714,18,Jits_Linear_8,1,1,48,32,1986884860
6714,18,Jits_Linear_8,2,5,63,98,1986903392
6714,18,Jits_Linear_8,3,5,80,127,1986952544
6714,18,Jits_Linear_8,0,5,80,127,1987493208
6714,18,Jits_Linear_8,1,5,56,103,1987543340
6714,18,Jits_Linear_8,2,5,63,98,1987563048
6714,18,Jits_Linear_8,3,1,48,38,1987590132
6714,18,Jits_Linear_8,0,5,80,127,1988173252
6714,18,Jits_Linear_8,1,1,48,33,1988216304
6714,18,Jits_Linear_8,2,5,63,98,1988232516
6714,18,Jits_Linear_8,3,5,56,103,1988312312
6714,18,Jits_Linear_8,0,5,80,127,1988823308
6714,18,Jits_Linear_8,1,5,56,103,1988863324
6714,18,Jits_Linear_8,2,5,63,98,1988882960
6714,18,Jits_Linear_8,3,1,48,36,1988964764
6714,18,Jits_Linear_8,0,1,48,32,1989543064
6714,18,Jits_Linear_8,1,5,56,103,1989544328
6714,18,Jits_Linear_8,2,5,80,127,1989552356
6714,18,Jits_Linear_8,3,5,63,98,1989592368
6714,18,Jits_Linear_8,0,1,48,33,1990224188
6714,18,Jits_Linear_8,1,5,56,103,1990273364
6714,18,Jits_Linear_8,2,5,63,98,1990313304
6714,18,Jits_Linear_8,3,5,80,127,1990316664
6714,18,Jits_Linear_8,0,5,63,98,1990823240
6714,18,Jits_Linear_8,1,5,80,127,1990863180
6714,18,Jits_Linear_8,2,1,48,34,1990915068
6714,18,Jits_Linear_8,3,5,56,103,1990933076
6714,18,Jits_Linear_8,0,5,63,98,1991472452
6714,18,Jits_Linear_8,1,1,48,28,1991510816
6714,18,Jits_Linear_8,2,5,56,103,1991553392
6714,18,Jits_Linear_8,3,5,80,127,1991612720
6714,18,Jits_Linear_8,0,1,48,37,1992122036
6714,18,Jits_Linear_8,1,5,80,127,1992143188
6714,18,Jits_Linear_8,2,5,63,98,1992193244
6714,18,Jits_Linear_8,3,5,56,103,1992223056
6714,18,Jits_Linear_8,0,1,48,39,1992751024
6714,18,Jits_Linear_8,1,5,56,103,1992792356
6714,18,Jits_Linear_8,2,5,63,98,1992842484
6714,18,Jits_Linear_8,3,5,80,127,1992853036
6714,18,Jits_Linear_8,0,1,48,37,1993360160
6714,18,Jits_Linear_8,1,5,56,103,1993463052
6714,18,Jits_Linear_8,2,5,63,98,1993572696
6714,18,Jits_Linear_8,3,5,80,127,1993593228
6714,18,Jits_Linear_8,0,5,63,98,1994113364
6714,18,Jits_Linear_8,1,5,80,127,1994162524
6714,18,Jits_Linear_8,2,1,48,33,1994180536
6714,18,Jits_Linear_8,3,5,56,103,1994252572
6714,18,Jits_Linear_8,0,5,63,98,1994753368
6714,18,Jits_Linear_8,1,5,80,127,1994783120
6714,18,Jits_Linear_8,2,1,48,30,1994857508
6714,18,Jits_Linear_8,3,5,56,103,1994873196
6714,18,Jits_Linear_8,0,5,63,98,1995402532
6714,18,Jits_Linear_8,1,5,56,103,1995412952
6714,18,Jits_Linear_8,2,1,48,33,1995456004
6714,18,Jits_Linear_8,3,5,80,127,1995513120
6714,18,Jits_Linear_8,0,1,48,32,1996032088
6714,18,Jits_Linear_8,1,5,63,98,1996153344
6714,18,Jits_Linear_8,2,5,80,127,1996183092
6714,18,Jits_Linear_8,3,5,56,103,1996212548
6714,18,Jits_Linear_8,0,1,48,29,1996784952
6714,18,Jits_Linear_8,1,5,80,127,1996812848
6714,18,Jits_Linear_8,2,5,63,98,1996823120
6714,18,Jits_Linear_8,3,5,56,103,1996852572
6714,18,Jits_Linear_8,0,5,80,127,1997353296
6714,18,Jits_Linear_8,1,5,63,98,1997373004
6714,18,Jits_Linear_8,2,5,56,103,1997422932
6714,18,Jits_Linear_8,3,1,48,31,1997499540
6714,18,Jits_Linear_8,0,5,63,98,1998023000
6714,18,Jits_Linear_8,1,1,48,32,1998047248
6714,18,Jits_Linear_8,2,5,80,127,1998082488
6714,18,Jits_Linear_8,3,5,56,103,1998102948
6714,18,Jits_Linear_8,0,5,63,98,1998623220
6714,18,Jits_Linear_8,1,5,56,103,1998673152
6714,18,Jits_Linear_8,2,5,80,127,1998682448
6714,18,Jits_Linear_8,3,1,48,34,1998716580
6714,18,Jits_Linear_8,0,1,48,26,1999254820
6714,18,Jits_Linear_8,1,5,56,103,1999292904
6714,18,Jits_Linear_8,2,5,80,127,1999302952
6714,18,Jits_Linear_8,3,5,63,98,1999403336
6714,18,Jits_Linear_8,0,5,80,127,1999893056
6714,18,Jits_Linear_8,1,5,63,98,1999903180
6714,18,Jits_Linear_8,2,1,48,28,1999977792
6714,18,Jits_Linear_8,3,5,56,103,2000052664
6714,18,Jits_Linear_8,0,5,63,98,2000533020
6714,18,Jits_Linear_8,1,5,80,127,2000573112
6714,18,Jits_Linear_8,2,1,48,28,2000648000
6714,18,Jits_Linear_8,3,5,56,103,2000652824
6714,18,Jits_Linear_8,0,5,56,103,2001153468
6714,18,Jits_Linear_8,1,5,80,127,2001252920
6714,18,Jits_Linear_8,2,5,63,98,2001273156
6714,18,Jits_Linear_8,3,1,48,34,2001346916
6714,18,Jits_Linear_8,0,5,80,127,2001842660
6714,18,Jits_Linear_8,1,5,56,103,2001852856
6714,18,Jits_Linear_8,2,1,48,24,2001913068
6714,18,Jits_Linear_8,3,5,63,98,2001943056
6714,18,Jits_Linear_8,0,5,56,103,2002473388
6714,18,Jits_Linear_8,1,5,63,98,2002492876
6714,18,Jits_Linear_8,2,1,48,29,2002527856
6714,18,Jits_Linear_8,3,5,80,127,2002572836
6714,18,Jits_Linear_8,0,5,63,98,2003042780
6714,18,Jits_Linear_8,1,5,56,103,2003132916
6714,18,Jits_Linear_8,2,1,48,29,2003133896
6714,18,Jits_Linear_8,3,5,80,127,2003137020
6714,18,Jits_Linear_8,0,5,56,103,2003693036
6714,18,Jits_Linear_8,1,1,48,29,2003718184
6714,18,Jits_Linear_8,2,5,80,127,2003753276
6714,18,Jits_Linear_8,3,5,63,98,2003762572
6714,18,Jits_Linear_8,0,1,48,24,2004306076
6714,18,Jits_Linear_8,1,5,80,127,2004362748
6714,18,Jits_Linear_8,2,5,56,103,2004372868
6714,18,Jits_Linear_8,3,5,63,98,2004375932
6714,18,Jits_Linear_8,0,1,48,24,2004935060
6714,18,Jits_Linear_8,1,5,56,103,2004943104
6714,18,Jits_Linear_8,2,5,80,127,2004952328
6714,18,Jits_Linear_8,3,5,63,98,2004972936
6714,18,Jits_Linear_8,0,1,48,23,2005526584
6714,18,Jits_Linear_8,1,5,63,98,2005532980
6714,18,Jits_Linear_8,2,5,80,127,2005592424
6714,18,Jits_Linear_8,3,5,56,103,2005642536
6714,18,Jits_Linear_8,0,1,48,26,2006190372
6714,18,Jits_Linear_8,1,5,63,98,2006232424
6714,18,Jits_Linear_8,2,5,56,103,2006242768
6714,18,Jits_Linear_8,3,5,80,127,2006292880
6714,18,Jits_Linear_8,0,5,63,98,2006743348
6714,18,Jits_Linear_8,1,5,80,127,2006762908
6714,18,Jits_Linear_8,2,5,56,103,2006773108
6714,18,Jits_Linear_8,3,1,48,27,2006849064
6714,18,Jits_Linear_8,0,5,63,98,2007352700
6714,18,Jits_Linear_8,1,5,80,127,2007356212
6714,18,Jits_Linear_8,2,1,48,28,2007357856
6714,18,Jits_Linear_8,3,5,56,103,2007392860
6714,18,Jits_Linear_8,0,1,48,26,2007917652
6714,18,Jits_Linear_8,1,5,63,98,2008032752
6714,18,Jits_Linear_8,2,5,80,127,2008063328
6714,18,Jits_Linear_8,3,5,56,103,2008072552
6714,18,Jits_Linear_8,0,5,56,103,2008592912
6714,18,Jits_Linear_8,1,5,80,127,2008622664
6714,18,Jits_Linear_8,2,1,48,29,2008646708
6714,18,Jits_Linear_8,3,5,63,98,2008653104
6714,18,Jits_Linear_8,0,1,48,27,2009229912
6714,18,Jits_Linear_8,1,5,63,98,2009293112
6714,18,Jits_Linear_8,2,5,56,103,2009333036
6714,18,Jits_Linear_8,3,5,80,127,2009336100
6714,18,Jits_Linear_8,0,5,80,127,2009792868
6714,18,Jits_Linear_8,1,5,56,103,2009872888
6714,18,Jits_Linear_8,2,5,63,98,2009922816
6714,18,Jits_Linear_8,3,1,48,29,2009931708
6714,18,Jits_Linear_8,0,5,80,127,2010372496
6714,18,Jits_Linear_8,1,5,56,103,2010392884
6714,18,Jits_Linear_8,2,5,63,98,2010483116
6714,18,Jits_Linear_8,3,1,48,30,2010513508
6714,18,Jits_Linear_8,0,5,80,127,2011012612
6714,18,Jits_Linear_8,1,5,63,98,2011053376
6714,18,Jits_Linear_8,2,1,48,28,2011064136
6714,18,Jits_Linear_8,3,5,56,103,2011093380
6714,18,Jits_Linear_8,0,5,63,98,2011582952
6714,18,Jits_Linear_8,1,1,48,20,2011613644
6714,18,Jits_Linear_8,2,5,80,127,2011643112
6714,18,Jits_Linear_8,3,5,56,103,2011672936
6714,18,Jits_Linear_8,0,1,48,20,2012145520
6714,18,Jits_Linear_8,1,5,56,103,2012183012
6714,18,Jits_Linear_8,2,5,80,127,2012212764
6714,18,Jits_Linear_8,3,5,63,98,2012302836
6714,18,Jits_Linear_8,0,5,56,103,2012782968
6714,18,Jits_Linear_8,1,1,48,26,2012808108
6714,18,Jits_Linear_8,2,5,80,127,2012892504
6714,18,Jits_Linear_8,3,5,63,98,2012923208
6714,18,Jits_Linear_8,0,5,56,103,2013422844
6714,18,Jits_Linear_8,1,1,48,29,2013470008
6714,18,Jits_Linear_8,2,5,63,98,2013483376
6714,18,Jits_Linear_8,3,5,80,127,2013513080
6714,18,Jits_Linear_8,0,5,56,103,2013983000
6714,18,Jits_Linear_8,1,5,63,98,2014052708
6714,18,Jits_Linear_8,2,5,80,127,2014073168
6714,18,Jits_Linear_8,3,1,48,31,2014076284
6714,18,Jits_Linear_8,0,5,80,127,2014543104
6714,18,Jits_Linear_8,1,5,63,98,2014562812
6714,18,Jits_Linear_8,2,5,56,103,2014612792
6714,18,Jits_Linear_8,3,1,48,32,2014663788
6714,18,Jits_Linear_8,0,5,63,98,2015143336
6714,18,Jits_Linear_8,1,5,80,127,2015152708
6714,18,Jits_Linear_8,2,1,48,26,2015160560
6714,18,Jits_Linear_8,3,5,56,103,2015202756
6714,18,Jits_Linear_8,0,5,63,98,2015722880
6714,18,Jits_Linear_8,1,1,48,32,2015743308
6714,18,Jits_Linear_8,2,5,80,127,2015792780
6714,18,Jits_Linear_8,3,5,56,103,2015812964
6714,18,Jits_Linear_8,0,5,63,98,2016333232
6714,18,Jits_Linear_8,1,5,80,127,2016336520
6714,18,Jits_Linear_8,2,1,48,31,2016354256
6714,18,Jits_Linear_8,3,5,56,103,2016402908
6714,18,Jits_Linear_8,0,5,80,127,2016862716
6714,18,Jits_Linear_8,1,5,56,103,2016883104
6714,18,Jits_Linear_8,2,5,63,98,2016893224
6714,18,Jits_Linear_8,3,1,48,31,2016944740
6714,18,Jits_Linear_8,0,1,48,27,2017445528
6714,18,Jits_Linear_8,1,5,56,103,2017462792
6714,18,Jits_Linear_8,2,5,63,98,2017552836
6714,18,Jits_Linear_8,3,5,80,127,2017556124
6714,18,Jits_Linear_8,0,5,80,127,2018012736
6714,18,Jits_Linear_8,1,5,56,103,2018022636
6714,18,Jits_Linear_8,2,5,63,98,2018043244
6714,18,Jits_Linear_8,3,1,48,32,2018089880
6714,18,Jits_Linear_8,0,5,63,98,2018582844
6714,18,Jits_Linear_8,1,1,48,28,2018590152
6714,18,Jits_Linear_8,2,5,80,127,2018643180
6714,18,Jits_Linear_8,3,5,56,103,2018652776
6714,18,Jits_Linear_8,0,1,48,36,2019208816
6714,18,Jits_Linear_8,1,5,63,98,2019222860
6714,18,Jits_Linear_8,2,5,80,127,2019252688
6714,18,Jits_Linear_8,3,5,56,103,2019292700
6714,18,Jits_Linear_8,0,5,56,103,2019783160
6714,18,Jits_Linear_8,1,5,80,127,2019793356
6714,18,Jits_Linear_8,2,5,63,98,2019833220
6714,18,Jits_Linear_8,3,1,48,37,2019848548
6714,18,Jits_Linear_8,0,5,80,127,2020312372
6714,18,Jits_Linear_8,1,5,56,103,2020393216
6714,18,Jits_Linear_8,2,5,63,98,2020402812
6714,18,Jits_Linear_8,3,1,48,31,2020443568
6714,18,Jits_Linear_8,0,5,80,127,2020933008
6714,18,Jits_Linear_8,1,1,48,31,2021003416
6714,18,Jits_Linear_8,2,5,56,103,2021012952
6714,18,Jits_Linear_8,3,5,63,98,2021023224
6714,18,Jits_Linear_8,0,5,80,127,2021453236
6714,18,Jits_Linear_8,1,5,56,103,2021503292
6714,18,Jits_Linear_8,2,5,63,98,2021552820
6714,18,Jits_Linear_8,3,1,48,30,2021588000
6714,18,Jits_Linear_8,0,1,48,28,2022028636
6714,18,Jits_Linear_8,1,5,56,103,2022072648
6714,18,Jits_Linear_8,2,5,63,98,2022075716
6714,18,Jits_Linear_8,3,5,80,127,2022122852
6714,18,Jits_Linear_8,0,1,48,28,2022577236
6714,18,Jits_Linear_8,1,5,56,103,2022653240
6714,18,Jits_Linear_8,2,5,63,98,2022683052
6714,18,Jits_Linear_8,3,5,80,127,2022693248
6714,18,Jits_Linear_8,0,5,63,98,2023123632
6714,18,Jits_Linear_8,1,5,56,103,2023192944
6714,18,Jits_Linear_8,2,1,48,33,2023216288
6714,18,Jits_Linear_8,3,5,80,127,2023243160
6714,18,Jits_Linear_8,0,5,63,98,2023713068
6714,18,Jits_Linear_8,1,1,48,31,2023717680
6714,18,Jits_Linear_8,2,5,56,103,2023723480
6714,18,Jits_Linear_8,3,5,80,127,2023726396
6714,18,Jits_Linear_8,0,5,80,127,2024212732
6714,18,Jits_Linear_8,1,5,56,103,2024273224
6714,18,Jits_Linear_8,2,1,48,32,2024274192
6714,18,Jits_Linear_8,3,5,63,98,2024363572
6714,18,Jits_Linear_8,0,5,80,127,2024762696
6714,18,Jits_Linear_8,1,1,48,30,2024861676
6714,18,Jits_Linear_8,2,5,56,103,2024863184
6714,18,Jits_Linear_8,3,5,63,98,2024902976
6714,18,Jits_Linear_8,0,5,56,103,2025362736
6714,18,Jits_Linear_8,1,5,63,98,2025383344
6714,18,Jits_Linear_8,2,5,80,127,2025423132
6714,18,Jits_Linear_8,3,1,48,33,2025441164
6714,18,Jits_Linear_8,0,5,63,98,2025882952
6714,18,Jits_Linear_8,1,5,56,103,2025902588
6714,18,Jits_Linear_8,2,1,48,29,2025907284
6714,18,Jits_Linear_8,3,5,80,127,2026002680
6714,18,Jits_Linear_8,0,5,63,98,2026413568
6714,18,Jits_Linear_8,1,1,48,31,2026441196
6714,18,Jits_Linear_8,2,5,80,127,2026522956
6714,18,Jits_Linear_8,3,5,56,103,2026552764
6714,18,Jits_Linear_8,0,5,56,103,2026972588
6714,18,Jits_Linear_8,1,5,63,98,2027003536
6714,18,Jits_Linear_8,2,1,48,32,2027011460
6714,18,Jits_Linear_8,3,5,80,127,2027053432
6714,18,Jits_Linear_8,0,5,63,98,2027482692
6714,18,Jits_Linear_8,1,5,56,103,2027513116
6714,18,Jits_Linear_8,2,1,48,28,2027550768
6714,18,Jits_Linear_8,3,5,80,127,2027563312
6714,18,Jits_Linear_8,0,5,56,103,2028052860
6714,18,Jits_Linear_8,1,5,63,98,2028073320
6714,18,Jits_Linear_8,2,1,48,31,2028078460
6714,18,Jits_Linear_8,3,5,80,127,2028153132
6714,18,Jits_Linear_8,0,5,63,98,2028562888
6714,18,Jits_Linear_8,1,5,56,103,2028623156
6714,18,Jits_Linear_8,2,1,48,32,2028629564
6714,18,Jits_Linear_8,3,5,80,127,2028653048
6714,18,Jits_Linear_8,0,1,48,29,2029121372
6714,18,Jits_Linear_8,1,5,56,103,2029143568
6714,18,Jits_Linear_8,2,5,80,127,2029202764
6714,18,Jits_Linear_8,3,5,63,98,2029242616
6714,18,Jits_Linear_8,0,5,63,98,2029653292
6714,18,Jits_Linear_8,1,1,48,32,2029697616
6714,18,Jits_Linear_8,2,5,56,103,2029712780
6714,18,Jits_Linear_8,3,5,80,127,2029783512
6714,18,Jits_Linear_8,0,1,48,34,2030244124
6714,18,Jits_Linear_8,1,5,56,103,2030262508
6714,18,Jits_Linear_8,2,5,63,98,2030273000
6714,18,Jits_Linear_8,3,5,80,127,2030276288
6714,18,Jits_Linear_8,0,5,63,98,2030732888
6714,18,Jits_Linear_8,1,1,48,27,2030764332
6714,18,Jits_Linear_8,2,5,56,103,2030793272
6714,18,Jits_Linear_8,3,5,80,127,2030796116
6714,18,Jits_Linear_8,0,5,63,98,2031242748
6714,18,Jits_Linear_8,1,5,80,127,2031273768
6714,18,Jits_Linear_8,2,5,56,103,2031292732
6714,18,Jits_Linear_8,3,1,48,35,2031295556
6714,18,Jits_Linear_8,0,5,56,103,2031773068
6714,18,Jits_Linear_8,1,1,48,32,2031788916
6714,18,Jits_Linear_8,2,5,63,98,2031823192
6714,18,Jits_Linear_8,3,5,80,127,2031903044
6714,18,Jits_Linear_8,0,5,80,127,2032272688
6714,18,Jits_Linear_8,1,5,63,98,2032312780
6714,18,Jits_Linear_8,2,1,48,31,2032325260
6714,18,Jits_Linear_8,3,5,56,103,2032333228
6714,18,Jits_Linear_8,0,1,48,33,2032845612
6714,18,Jits_Linear_8,1,5,56,103,2032862648
6714,18,Jits_Linear_8,2,5,80,127,2032872696
6714,18,Jits_Linear_8,3,5,63,98,2032893452
6714,18,Jits_Linear_8,0,5,56,103,2033363456
6714,18,Jits_Linear_8,1,1,48,33,2033374296
6714,18,Jits_Linear_8,2,5,63,98,2033412608
6714,18,Jits_Linear_8,3,5,80,127,2033443180
6714,18,Jits_Linear_8,0,5,56,103,2033833704
6714,18,Jits_Linear_8,1,5,63,98,2033842484
6714,18,Jits_Linear_8,2,5,80,127,2033892760
6714,18,Jits_Linear_8,3,1,48,29,2033914456
6714,18,Jits_Linear_8,0,5,56,103,2034343204
6714,18,Jits_Linear_8,1,5,80,127,2034346492
6714,18,Jits_Linear_8,2,1,48,32,2034398244
6714,18,Jits_Linear_8,3,5,63,98,2034503016
6714,18,Jits_Linear_8,0,5,63,98,2034872708
6714,18,Jits_Linear_8,1,1,48,32,2034922732
6714,18,Jits_Linear_8,2,5,56,103,2034943356
6714,18,Jits_Linear_8,3,5,80,127,2034983296
6714,18,Jits_Linear_8,0,1,48,25,2035419096
6714,18,Jits_Linear_8,1,5,63,98,2035422508
6714,18,Jits_Linear_8,2,5,56,103,2035512640
6714,18,Jits_Linear_8,3,5,80,127,2035515708
6714,18,Jits_Linear_8,0,5,56,103,2035913044
6714,18,Jits_Linear_8,1,5,63,98,2036003180
6714,18,Jits_Linear_8,2,5,80,127,2036013528
6714,18,Jits_Linear_8,3,1,48,30,2036016120
6714,18,Jits_Linear_8,0,5,56,103,2036393484
6714,18,Jits_Linear_8,1,5,63,98,2036442644
6714,18,Jits_Linear_8,2,5,80,127,2036473440
6714,18,Jits_Linear_8,3,1,48,26,2036526748
6714,18,Jits_Linear_8,0,5,63,98,2036972896
6714,18,Jits_Linear_8,1,5,80,127,2036983020
6714,18,Jits_Linear_8,2,1,48,26,2037007716
6714,18,Jits_Linear_8,3,5,56,103,2037042432
6714,18,Jits_Linear_8,0,5,63,98,2037392712
6714,18,Jits_Linear_8,1,5,80,127,2037453328
6714,18,Jits_Linear_8,2,5,56,103,2037492968
6714,18,Jits_Linear_8,3,1,48,28,2037562312
6714,18,Jits_Linear_8,0,5,56,103,2037992860
6714,18,Jits_Linear_8,1,1,48,26,2038008636
6714,18,Jits_Linear_8,2,5,80,127,2038013460
6714,18,Jits_Linear_8,3,5,63,98,2038032800
6714,18,Jits_Linear_8,0,5,63,98,2038412544
6714,18,Jits_Linear_8,1,5,56,103,2038433300
6714,18,Jits_Linear_8,2,5,80,127,2038473164
6714,18,Jits_Linear_8,3,1,48,26,2038532328
6714,18,Jits_Linear_8,0,5,63,98,2038922484
6714,18,Jits_Linear_8,1,1,48,22,2038942992
6714,18,Jits_Linear_8,2,5,80,127,2038953500
6714,18,Jits_Linear_8,3,5,56,103,2038972764
6714,18,Jits_Linear_8,0,5,80,127,2039392568
6714,18,Jits_Linear_8,1,1,48,21,2039393532
6714,18,Jits_Linear_8,2,5,56,103,2039442764
6714,18,Jits_Linear_8,3,5,63,98,2039503360
6714,18,Jits_Linear_8,0,5,63,98,2039883264
6714,18,Jits_Linear_8,1,1,48,29,2039899568
6714,18,Jits_Linear_8,2,5,56,103,2040002900
6714,18,Jits_Linear_8,3,5,80,127,2040032500
6714,18,Jits_Linear_8,0,5,80,127,2040412620
6714,18,Jits_Linear_8,1,5,63,98,2040433156
6714,18,Jits_Linear_8,2,1,48,23,2040455976
6714,18,Jits_Linear_8,3,5,56,103,2040502604
6714,18,Jits_Linear_8,0,1,48,27,2040921300
6714,18,Jits_Linear_8,1,5,63,98,2040922868
6714,18,Jits_Linear_8,2,5,56,103,2040932696
6714,18,Jits_Linear_8,3,5,80,127,2041012640
6714,18,Jits_Linear_8,0,1,48,24,2041420792
6714,18,Jits_Linear_8,1,5,56,103,2041473648
6714,18,Jits_Linear_8,2,5,80,127,2041503252
6714,18,Jits_Linear_8,3,5,63,98,2041513580
6714,18,Jits_Linear_8,0,9999,9999,9999,1931100260
6714,18,Jits_Linear_8,1,9999,9999,9999,1931920452
6714,18,Jits_Linear_8,2,9999,9999,9999,1932740728
6714,18,Jits_Linear_8,3,9999,9999,9999,1933560948
6714,18,Jits_Linear_8,4,9999,9999,9999,1934380116
6714,18,Jits_Linear_8,5,9999,9999,9999,1935190088
6714,18,Jits_Linear_8,6,9999,9999,9999,1936000104
6714,18,Jits_Linear_8,7,9999,9999,9999,1936811096
6714,18,Jits_Linear_8,8,9999,9999,9999,1937630336
6714,18,Jits_Linear_8,9,9999,9999,9999,1938440268
6714,18,Jits_Linear_8,10,9999,9999,9999,1939241088
6714,18,Jits_Linear_8,11,9999,9999,9999,1940040792
6714,18,Jits_Linear_8,12,9999,9999,9999,1940840568
6714,18,Jits_Linear_8,13,9999,9999,9999,1941640260
6714,18,Jits_Linear_8,14,9999,9999,9999,1942441048
6714,18,Jits_Linear_8,15,9999,9999,9999,1943230528
6714,18,Jits_Linear_8,16,9999,9999,9999,1944021056
6714,18,Jits_Linear_8,17,9999,9999,9999,1944810552
6714,18,Jits_Linear_8,18,9999,9999,9999,1945600124
6714,18,Jits_Linear_8,19,9999,9999,9999,1946390592
6714,18,Jits_Linear_8,20,9999,9999,9999,1947170936
6714,18,Jits_Linear_8,21,9999,9999,9999,1947950160
6714,18,Jits_Linear_8,22,9999,9999,9999,1948730444
6714,18,Jits_Linear_8,23,9999,9999,9999,1949510736
6714,18,Jits_Linear_8,24,9999,9999,9999,1950291008
6714,18,Jits_Linear_8,25,9999,9999,9999,1951061092
6714,18,Jits_Linear_8,26,9999,9999,9999,1951830132
6714,18,Jits_Linear_8,27,9999,9999,9999,1952600144
6714,18,Jits_Linear_8,28,9999,9999,9999,1953370168
6714,18,Jits_Linear_8,29,9999,9999,9999,1954140260
6714,18,Jits_Linear_8,30,9999,9999,9999,1954901052
6714,18,Jits_Linear_8,31,9999,9999,9999,1955660872
6714,18,Jits_Linear_8,32,9999,9999,9999,1956420708
6714,18,Jits_Linear_8,33,9999,9999,9999,1957180512
6714,18,Jits_Linear_8,34,9999,9999,9999,1957940328
6714,18,Jits_Linear_8,35,9999,9999,9999,1958690872
6714,18,Jits_Linear_8,36,9999,9999,9999,1959440440
6714,18,Jits_Linear_8,37,9999,9999,9999,1960191060
6714,18,Jits_Linear_8,38,9999,9999,9999,1960940628
6714,18,Jits_Linear_8,39,9999,9999,9999,1961690208
6714,18,Jits_Linear_8,40,9999,9999,9999,1962430568
6714,18,Jits_Linear_8,41,9999,9999,9999,1963170908
6714,18,Jits_Linear_8,42,9999,9999,9999,1963910204
6714,18,Jits_Linear_8,43,9999,9999,9999,1964650548
6714,18,Jits_Linear_8,44,9999,9999,9999,1965390952
6714,18,Jits_Linear_8,45,9999,9999,9999,1966121084
6714,18,Jits_Linear_8,46,9999,9999,9999,1966850132
6714,18,Jits_Linear_8,47,9999,9999,9999,1967580216
6714,18,Jits_Linear_8,48,9999,9999,9999,1968310388
6714,18,Jits_Linear_8,49,9999,9999,9999,1969040476
6714,18,Jits_Linear_8,50,9999,9999,9999,1969760368
6714,18,Jits_Linear_8,51,9999,9999,9999,1970480244
6714,18,Jits_Linear_8,52,9999,9999,9999,1971200064
6714,18,Jits_Linear_8,53,9999,9999,9999,1971921024
6714,18,Jits_Linear_8,54,9999,9999,9999,1972640832
6714,18,Jits_Linear_8,55,9999,9999,9999,1973350476
6714,18,Jits_Linear_8,56,9999,9999,9999,1974060148
6714,18,Jits_Linear_8,57,9999,9999,9999,1974770748
6714,18,Jits_Linear_8,58,9999,9999,9999,1975480376
6714,18,Jits_Linear_8,59,9999,9999,9999,1976191048
6714,18,Jits_Linear_8,60,9999,9999,9999,1976890460
6714,18,Jits_Linear_8,61,9999,9999,9999,1977590868
6714,18,Jits_Linear_8,62,9999,9999,9999,1978290248
6714,18,Jits_Linear_8,63,9999,9999,9999,1978990648
6714,18,Jits_Linear_8,64,9999,9999,9999,1979691116
6714,18,Jits_Linear_8,65,9999,9999,9999,1980390484
6714,18,Jits_Linear_8,66,9999,9999,9999,1981080652
6714,18,Jits_Linear_8,67,9999,9999,9999,1981770804
6714,18,Jits_Linear_8,68,9999,9999,9999,1982460996
6714,18,Jits_Linear_8,69,9999,9999,9999,1983150184
6714,18,Jits_Linear_8,70,9999,9999,9999,1983830080
6714,18,Jits_Linear_8,71,9999,9999,9999,1984511068
6714,18,Jits_Linear_8,72,9999,9999,9999,1985191024
6714,18,Jits_Linear_8,73,9999,9999,9999,1985870924
6714,18,Jits_Linear_8,74,9999,9999,9999,1986550864
6714,18,Jits_Linear_8,75,9999,9999,9999,1987220560
6714,18,Jits_Linear_8,76,9999,9999,9999,1987890240
6714,18,Jits_Linear_8,77,9999,9999,9999,1988561000
6714,18,Jits_Linear_8,78,9999,9999,9999,1989230704
6714,18,Jits_Linear_8,79,9999,9999,9999,1989900388
6714,18,Jits_Linear_8,80,9999,9999,9999,1990560868
6714,18,Jits_Linear_8,81,9999,9999,9999,1991220348
6714,18,Jits_Linear_8,82,9999,9999,9999,1991880824
6714,18,Jits_Linear_8,83,9999,9999,9999,1992540256
6714,18,Jits_Linear_8,84,9999,9999,9999,1993200704
6714,18,Jits_Linear_8,85,9999,9999,9999,1993851000
6714,18,Jits_Linear_8,86,9999,9999,9999,1994500216
6714,18,Jits_Linear_8,87,9999,9999,9999,1995150428
6714,18,Jits_Linear_8,88,9999,9999,9999,1995800688
6714,18,Jits_Linear_8,89,9999,9999,9999,1996450912
6714,18,Jits_Linear_8,90,9999,9999,9999,1997090924
6714,18,Jits_Linear_8,91,9999,9999,9999,1997730872
6714,18,Jits_Linear_8,92,9999,9999,9999,1998370892
6714,18,Jits_Linear_8,93,9999,9999,9999,1999010912
6714,18,Jits_Linear_8,94,9999,9999,9999,1999650916
6714,18,Jits_Linear_8,95,9999,9999,9999,2000280680
6714,18,Jits_Linear_8,96,9999,9999,9999,2000910432
6714,18,Jits_Linear_8,97,9999,9999,9999,2001540192
6714,18,Jits_Linear_8,98,9999,9999,9999,2002170996
6714,18,Jits_Linear_8,99,9999,9999,9999,2002800704
6714,18,Jits_Linear_8,100,9999,9999,9999,2003420256
6714,18,Jits_Linear_8,101,9999,9999,9999,2004040804
6714,18,Jits_Linear_8,102,9999,9999,9999,2004660288
6714,18,Jits_Linear_8,103,9999,9999,9999,2005280884
6714,18,Jits_Linear_8,104,9999,9999,9999,2005900384
6714,18,Jits_Linear_8,105,9999,9999,9999,2006510648
6714,18,Jits_Linear_8,106,9999,9999,9999,2007121000
6714,18,Jits_Linear_8,107,9999,9999,9999,2007730248
6714,18,Jits_Linear_8,108,9999,9999,9999,2008340584
6714,18,Jits_Linear_8,109,9999,9999,9999,2008950864
6714,18,Jits_Linear_8,110,9999,9999,9999,2009550948
6714,18,Jits_Linear_8,111,9999,9999,9999,2010151020
6714,18,Jits_Linear_8,112,9999,9999,9999,2010751052
6714,18,Jits_Linear_8,113,9999,9999,9999,2011350088
6714,18,Jits_Linear_8,114,9999,9999,9999,2011950172
6714,18,Jits_Linear_8,115,9999,9999,9999,2012541052
6714,18,Jits_Linear_8,116,9999,9999,9999,2013130864
6714,18,Jits_Linear_8,117,9999,9999,9999,2013720688
6714,18,Jits_Linear_8,118,9999,9999,9999,2014310464
6714,18,Jits_Linear_8,119,9999,9999,9999,2014900284
6714,18,Jits_Linear_8,120,9999,9999,9999,2015480888
6714,18,Jits_Linear_8,121,9999,9999,9999,2016060508
6714,18,Jits_Linear_8,122,9999,9999,9999,2016640060
6714,18,Jits_Linear_8,123,9999,9999,9999,2017220716
6714,18,Jits_Linear_8,124,9999,9999,9999,2017800272
6714,18,Jits_Linear_8,125,9999,9999,9999,2018370684
6714,18,Jits_Linear_8,126,9999,9999,9999,2018941020
6714,18,Jits_Linear_8,127,9999,9999,9999,2019510376
6714,18,Jits_Linear_8,128,9999,9999,9999,2020080704
6714,18,Jits_Linear_8,129,9999,9999,9999,2020651120
6714,18,Jits_Linear_8,130,9999,9999,9999,2021220448
6714,18,Jits_Linear_8,131,9999,9999,9999,2021780604
6714,18,Jits_Linear_8,132,9999,9999,9999,2022340676
6714,18,Jits_Linear_8,133,9999,9999,9999,2022900828
6714,18,Jits_Linear_8,134,9999,9999,9999,2023460964
6714,18,Jits_Linear_8,135,9999,9999,9999,2024010848
6714,18,Jits_Linear_8,136,9999,9999,9999,2024560724
6714,18,Jits_Linear_8,137,9999,9999,9999,2025110612
6714,18,Jits_Linear_8,138,9999,9999,9999,2025660504
6714,18,Jits_Linear_8,139,9999,9999,9999,2026210392
6714,18,Jits_Linear_8,140,9999,9999,9999,2026751052
6714,18,Jits_Linear_8,141,9999,9999,9999,2027290736
6714,18,Jits_Linear_8,142,9999,9999,9999,2027830356
6714,18,Jits_Linear_8,143,9999,9999,9999,2028371032
6714,18,Jits_Linear_8,144,9999,9999,9999,2028910652
6714,18,Jits_Linear_8,145,9999,9999,9999,2029440080
6714,18,Jits_Linear_8,146,9999,9999,9999,2029970552
6714,18,Jits_Linear_8,147,9999,9999,9999,2030500936
6714,18,Jits_Linear_8,148,9999,9999,9999,2031030356
6714,18,Jits_Linear_8,149,9999,9999,9999,2031560820
6714,18,Jits_Linear_8,150,9999,9999,9999,2032080956
6714,18,Jits_Linear_8,151,9999,9999,9999,2032600124
6714,18,Jits_Linear_8,152,9999,9999,9999,2033120348
6714,18,Jits_Linear_8,153,9999,9999,9999,2033640552
6714,18,Jits_Linear_8,154,9999,9999,9999,2034160768
6714,18,Jits_Linear_8,155,9999,9999,9999,2034670712
6714,18,Jits_Linear_8,156,9999,9999,9999,2035180668
6714,18,Jits_Linear_8,157,9999,9999,9999,2035690612
6714,18,Jits_Linear_8,158,9999,9999,9999,2036200560
6714,18,Jits_Linear_8,159,9999,9999,9999,2036710512
6714,18,Jits_Linear_8,160,9999,9999,9999,2037210212
6714,18,Jits_Linear_8,161,9999,9999,9999,2037710936
6714,18,Jits_Linear_8,162,9999,9999,9999,2038210624
6714,18,Jits_Linear_8,163,9999,9999,9999,2038710388
6714,18,Jits_Linear_8,164,9999,9999,9999,2039211112
6714,18,Jits_Linear_8,165,9999,9999,9999,2039710792
6714,18,Jits_Linear_8,166,9999,9999,9999,2040200300
6714,18,Jits_Linear_8,167,9999,9999,9999,2040690764
6714,18,Jits_Linear_8,168,9999,9999,9999,2041180272
6714,18,Jits_Linear_8,169,9999,9999,9999,2041670744
6715,19,Jits_Linear_5,0,5,56,103,2050824556
6715,19,Jits_Linear_5,1,5,63,98,2050827504
6715,19,Jits_Linear_5,2,5,80,127,2050830704
6715,19,Jits_Linear_5,0,5,56,103,2051304864
6715,19,Jits_Linear_5,1,5,63,98,2051307964
6715,19,Jits_Linear_5,2,5,80,127,2051311236
6715,19,Jits_Linear_5,3,1,48,28,2051348152
6715,19,Jits_Linear_5,0,5,56,103,2051785232
6715,19,Jits_Linear_5,1,5,80,127,2051795576
6715,19,Jits_Linear_5,2,1,48,41,2051800644
6715,19,Jits_Linear_5,3,5,63,98,2051814688
6715,19,Jits_Linear_5,0,5,63,98,2052215408
6715,19,Jits_Linear_5,1,5,80,127,2052244712
6715,19,Jits_Linear_5,2,5,56,103,2052255280
6715,19,Jits_Linear_5,3,1,48,41,2052295264
6715,19,Jits_Linear_5,0,1,48,42,2052703824
6715,19,Jits_Linear_5,1,5,80,127,2052754724
6715,19,Jits_Linear_5,2,5,56,103,2052765220
6715,19,Jits_Linear_5,3,5,63,98,2052794596
6715,19,Jits_Linear_5,0,1,48,43,2053227264
6715,19,Jits_Linear_5,1,5,63,98,2053235308
6715,19,Jits_Linear_5,2,5,56,103,2053264912
6715,19,Jits_Linear_5,3,5,80,127,2053275260
6715,19,Jits_Linear_5,0,5,56,103,2053675344
6715,19,Jits_Linear_5,1,5,63,98,2053724452
6715,19,Jits_Linear_5,2,1,48,38,2053734020
6715,19,Jits_Linear_5,3,5,80,127,2053744980
6715,19,Jits_Linear_5,0,5,80,127,2054164708
6715,19,Jits_Linear_5,1,1,48,46,2054195028
6715,19,Jits_Linear_5,2,5,63,98,2054215156
6715,19,Jits_Linear_5,3,5,56,103,2054255096
6715,19,Jits_Linear_5,0,5,56,103,2054655340
6715,19,Jits_Linear_5,1,5,63,98,2054685240
6715,19,Jits_Linear_5,2,1,48,44,2054689932
6715,19,Jits_Linear_5,3,5,80,127,2054754644
6715,19,Jits_Linear_5,0,5,56,103,2055144780
6715,19,Jits_Linear_5,1,1,48,45,2055176444
6715,19,Jits_Linear_5,2,5,80,127,2055205164
6715,19,Jits_Linear_5,3,5,63,98,2055234940
6715,19,Jits_Linear_5,0,1,48,44,2055629756
6715,19,Jits_Linear_5,1,5,56,103,2055644404
6715,19,Jits_Linear_5,2,5,63,98,2055654896
6715,19,Jits_Linear_5,3,5,80,127,2055694688
6715,19,Jits_Linear_5,0,1,48,49,2056114396
6715,19,Jits_Linear_5,1,5,63,98,2056135096
6715,19,Jits_Linear_5,2,5,80,127,2056215328
6715,19,Jits_Linear_5,3,5,56,103,2056225376
6715,19,Jits_Linear_5,0,5,63,98,2056684844
6715,19,Jits_Linear_5,1,1,48,46,2056685736
6715,19,Jits_Linear_5,2,5,56,103,2056724852
6715,19,Jits_Linear_5,3,5,80,127,2056728144
6715,19,Jits_Linear_5,0,1,48,45,2057142848
6715,19,Jits_Linear_5,1,5,56,103,2057144660
6715,19,Jits_Linear_5,2,5,63,98,2057154856
6715,19,Jits_Linear_5,3,5,80,127,2057194720
6715,19,Jits_Linear_5,0,1,48,45,2057633912
6715,19,Jits_Linear_5,1,5,56,103,2057635344
6715,19,Jits_Linear_5,2,5,63,98,2057638192
6715,19,Jits_Linear_5,3,5,80,127,2057654684
6715,19,Jits_Linear_5,0,1,48,46,2058129452
6715,19,Jits_Linear_5,1,5,80,127,2058155400
6715,19,Jits_Linear_5,2,5,56,103,2058164624
6715,19,Jits_Linear_5,3,5,63,98,2058235412
6715,19,Jits_Linear_5,0,5,63,98,2058655172
6715,19,Jits_Linear_5,1,5,56,103,2058674584
6715,19,Jits_Linear_5,2,1,48,50,2058692920
6715,19,Jits_Linear_5,3,5,80,127,2058754300
6715,19,Jits_Linear_5,0,1,48,46,2059175236
6715,19,Jits_Linear_5,1,5,56,103,2059176648
6715,19,Jits_Linear_5,2,5,80,127,2059215168
6715,19,Jits_Linear_5,3,5,63,98,2059224392
6715,19,Jits_Linear_5,0,1,48,46,2059658704
6715,19,Jits_Linear_5,1,5,80,127,2059675212
6715,19,Jits_Linear_5,2,5,63,98,2059704892
6715,19,Jits_Linear_5,3,5,56,103,2059744756
6715,19,Jits_Linear_5,0,1,48,44,2060166484
6715,19,Jits_Linear_5,1,5,56,103,2060205396
6715,19,Jits_Linear_5,2,5,63,98,2060235296
6715,19,Jits_Linear_5,3,5,80,127,2060285260
6715,19,Jits_Linear_5,0,1,48,45,2060678236
6715,19,Jits_Linear_5,1,5,80,127,2060715348
6715,19,Jits_Linear_5,2,5,56,103,2060755292
6715,19,Jits_Linear_5,3,5,63,98,2060764588
6715,19,Jits_Linear_5,0,1,48,46,2061213604
6715,19,Jits_Linear_5,1,5,80,127,2061215184
6715,19,Jits_Linear_5,2,5,63,98,2061255128
6715,19,Jits_Linear_5,3,5,56,103,2061314456
6715,19,Jits_Linear_5,0,5,56,103,2061735256
6715,19,Jits_Linear_5,1,5,80,127,2061744480
6715,19,Jits_Linear_5,2,1,48,45,2061748572
6715,19,Jits_Linear_5,3,5,63,98,2061825244
6715,19,Jits_Linear_5,0,5,80,127,2062254736
6715,19,Jits_Linear_5,1,1,48,43,2062259948
6715,19,Jits_Linear_5,2,5,63,98,2062314752
6715,19,Jits_Linear_5,3,5,56,103,2062344500
6715,19,Jits_Linear_5,0,1,48,44,2062773536
6715,19,Jits_Linear_5,1,5,56,103,2062775180
6715,19,Jits_Linear_5,2,5,80,127,2062835056
6715,19,Jits_Linear_5,3,5,63,98,2062875276
6715,19,Jits_Linear_5,0,1,48,46,2063248844
6715,19,Jits_Linear_5,1,5,56,103,2063355252
6715,19,Jits_Linear_5,2,5,63,98,2063364476
6715,19,Jits_Linear_5,3,5,80,127,2063367840
6715,19,Jits_Linear_5,0,1,48,41,2063787484
6715,19,Jits_Linear_5,1,5,80,127,2063834564
6715,19,Jits_Linear_5,2,5,63,98,2063924464
6715,19,Jits_Linear_5,3,5,56,103,2063934688
6715,19,Jits_Linear_5,0,1,48,41,2064334232
6715,19,Jits_Linear_5,1,5,56,103,2064365260
6715,19,Jits_Linear_5,2,5,63,98,2064368280
6715,19,Jits_Linear_5,3,5,80,127,2064371324
6715,19,Jits_Linear_5,0,1,48,41,2064836956
6715,19,Jits_Linear_5,1,5,80,127,2064914684
6715,19,Jits_Linear_5,2,5,63,98,2064965048
6715,19,Jits_Linear_5,3,5,56,103,2064994796
6715,19,Jits_Linear_5,0,1,48,44,2065374180
6715,19,Jits_Linear_5,1,5,56,103,2065424628
6715,19,Jits_Linear_5,2,5,80,127,2065435272
6715,19,Jits_Linear_5,3,5,63,98,2065504740
6715,19,Jits_Linear_5,0,1,48,39,2065932140
6715,19,Jits_Linear_5,1,5,56,103,2065965444
6715,19,Jits_Linear_5,2,5,63,98,2065985032
6715,19,Jits_Linear_5,3,5,80,127,2066045336
6715,19,Jits_Linear_5,0,1,48,41,2066469516
6715,19,Jits_Linear_5,1,5,80,127,2066495048
6715,19,Jits_Linear_5,2,5,63,98,2066564436
6715,19,Jits_Linear_5,3,5,56,103,2066585028
6715,19,Jits_Linear_5,0,1,48,42,2067050524
6715,19,Jits_Linear_5,1,5,80,127,2067055196
6715,19,Jits_Linear_5,2,5,56,103,2067065320
6715,19,Jits_Linear_5,3,5,63,98,2067074396
6715,19,Jits_Linear_5,0,1,48,43,2067572228
6715,19,Jits_Linear_5,1,5,80,127,2067585376
6715,19,Jits_Linear_5,2,5,56,103,2067604940
6715,19,Jits_Linear_5,3,5,63,98,2067674460
6715,19,Jits_Linear_5,0,1,48,42,2068108260
6715,19,Jits_Linear_5,1,5,56,103,2068135264
6715,19,Jits_Linear_5,2,5,80,127,2068165012
6715,19,Jits_Linear_5,3,5,63,98,2068184428
6715,19,Jits_Linear_5,0,5,63,98,2068675040
6715,19,Jits_Linear_5,1,1,48,42,2068686328
6715,19,Jits_Linear_5,2,5,56,103,2068735204
6715,19,Jits_Linear_5,3,5,80,127,2068765028
6715,19,Jits_Linear_5,0,5,63,98,2069214432
6715,19,Jits_Linear_5,1,5,80,127,2069217728
6715,19,Jits_Linear_5,2,1,48,43,2069234492
6715,19,Jits_Linear_5,3,5,56,103,2069304564
6715,19,Jits_Linear_5,0,1,48,46,2069766304
6715,19,Jits_Linear_5,1,5,56,103,2069784912
6715,19,Jits_Linear_5,2,5,63,98,2069814664
6715,19,Jits_Linear_5,3,5,80,127,2069854480
6715,19,Jits_Linear_5,0,1,48,41,2070295064
6715,19,Jits_Linear_5,1,5,63,98,2070334972
6715,19,Jits_Linear_5,2,5,56,103,2070374688
6715,19,Jits_Linear_5,3,5,80,127,2070395132
6715,19,Jits_Linear_5,0,1,48,44,2070826292
6715,19,Jits_Linear_5,1,5,63,98,2070895048
6715,19,Jits_Linear_5,2,5,56,103,2070935048
6715,19,Jits_Linear_5,3,5,80,127,2070945168
6715,19,Jits_Linear_5,0,1,48,40,2071362476
6715,19,Jits_Linear_5,1,5,80,127,2071425380
6715,19,Jits_Linear_5,2,5,63,98,2071495196
6715,19,Jits_Linear_5,3,5,56,103,2071514536
6715,19,Jits_Linear_5,0,5,56,103,2071975196
6715,19,Jits_Linear_5,1,1,48,41,2071980856
6715,19,Jits_Linear_5,2,5,80,127,2071995048
6715,19,Jits_Linear_5,3,5,63,98,2072034764
6715,19,Jits_Linear_5,0,1,48,39,2072544044
6715,19,Jits_Linear_5,1,5,63,98,2072545536
6715,19,Jits_Linear_5,2,5,80,127,2072565100
6715,19,Jits_Linear_5,3,5,56,103,2072605040
6715,19,Jits_Linear_5,0,1,48,40,2073086700
6715,19,Jits_Linear_5,1,5,63,98,2073104712
6715,19,Jits_Linear_5,2,5,56,103,2073125172
6715,19,Jits_Linear_5,3,5,80,127,2073134396
6715,19,Jits_Linear_5,0,1,48,45,2073644604
6715,19,Jits_Linear_5,1,5,80,127,2073664956
6715,19,Jits_Linear_5,2,5,56,103,2073685268
6715,19,Jits_Linear_5,3,5,63,98,2073715020
6715,19,Jits_Linear_5,0,1,48,43,2074197948
6715,19,Jits_Linear_5,1,5,56,103,2074304884
6715,19,Jits_Linear_5,2,5,80,127,2074307876
6715,19,Jits_Linear_5,3,5,63,98,2074325344
6715,19,Jits_Linear_5,0,5,63,98,2074795372
6715,19,Jits_Linear_5,1,1,48,39,2074808460
6715,19,Jits_Linear_5,2,5,56,103,2074825264
6715,19,Jits_Linear_5,3,5,80,127,2074884388
6715,19,Jits_Linear_5,0,1,48,43,2075353020
6715,19,Jits_Linear_5,1,5,63,98,2075444528
6715,19,Jits_Linear_5,2,5,56,103,2075455184
6715,19,Jits_Linear_5,3,5,80,127,2075465080
6715,19,Jits_Linear_5,0,1,48,41,2075934008
6715,19,Jits_Linear_5,1,5,56,103,2075964848
6715,19,Jits_Linear_5,2,5,80,127,2075994376
6715,19,Jits_Linear_5,3,5,63,98,2076004648
6715,19,Jits_Linear_5,0,1,48,39,2076521216
6715,19,Jits_Linear_5,1,5,63,98,2076575124
6715,19,Jits_Linear_5,2,5,56,103,2076585248
6715,19,Jits_Linear_5,3,5,80,127,2076604884
6715,19,Jits_Linear_5,0,1,48,37,2077071784
6715,19,Jits_Linear_5,1,5,56,103,2077075040
6715,19,Jits_Linear_5,2,5,63,98,2077135432
6715,19,Jits_Linear_5,3,5,80,127,2077138724
6715,19,Jits_Linear_5,0,1,48,40,2077655388
6715,19,Jits_Linear_5,1,5,80,127,2077674816
6715,19,Jits_Linear_5,2,5,56,103,2077685088
6715,19,Jits_Linear_5,3,5,63,98,2077754980
6715,19,Jits_Linear_5,0,5,80,127,2078245160
6715,19,Jits_Linear_5,1,1,48,44,2078266564
6715,19,Jits_Linear_5,2,5,56,103,2078314788
6715,19,Jits_Linear_5,3,5,63,98,2078325132
6715,19,Jits_Linear_5,0,5,63,98,2078864840
6715,19,Jits_Linear_5,1,5,56,103,2078875036
6715,19,Jits_Linear_5,2,1,48,44,2078877628
6715,19,Jits_Linear_5,3,5,80,127,2078894368
6715,19,Jits_Linear_5,0,5,80,127,2079395240
6715,19,Jits_Linear_5,1,5,63,98,2079454660
6715,19,Jits_Linear_5,2,1,48,43,2079470740
6715,19,Jits_Linear_5,3,5,56,103,2079494448
6715,19,Jits_Linear_5,0,5,56,103,2080025084
6715,19,Jits_Linear_5,1,5,63,98,2080035132
6715,19,Jits_Linear_5,2,1,48,40,2080045152
6715,19,Jits_Linear_5,3,5,80,127,2080075240
6715,19,Jits_Linear_5,0,5,56,103,2080575008
6715,19,Jits_Linear_5,1,5,80,127,2080604464
6715,19,Jits_Linear_5,2,1,48,46,2080651028
6715,19,Jits_Linear_5,3,5,63,98,2080654956
6715,19,Jits_Linear_5,0,1,48,41,2081198152
6715,19,Jits_Linear_5,1,5,56,103,2081204548
6715,19,Jits_Linear_5,2,5,63,98,2081244560
6715,19,Jits_Linear_5,3,5,80,127,2081247852
6715,19,Jits_Linear_5,0,1,48,42,2081771844
6715,19,Jits_Linear_5,1,5,56,103,2081794284
6715,19,Jits_Linear_5,2,5,63,98,2081804556
6715,19,Jits_Linear_5,3,5,80,127,2081825164
6715,19,Jits_Linear_5,0,5,56,103,2082345288
6715,19,Jits_Linear_5,1,5,80,127,2082348360
6715,19,Jits_Linear_5,2,1,48,42,2082349324
6715,19,Jits_Linear_5,3,5,63,98,2082385324
6715,19,Jits_Linear_5,0,1,48,43,2082941016
6715,19,Jits_Linear_5,1,5,63,98,2082975140
6715,19,Jits_Linear_5,2,5,56,103,2083004892
6715,19,Jits_Linear_5,3,5,80,127,2083025424
6715,19,Jits_Linear_5,0,1,48,43,2083530160
6715,19,Jits_Linear_5,1,5,80,127,2083544580
6715,19,Jits_Linear_5,2,5,56,103,2083554776
6715,19,Jits_Linear_5,3,5,63,98,2083564896
6715,19,Jits_Linear_5,0,1,48,43,2084120344
6715,19,Jits_Linear_5,1,5,56,103,2084155068
6715,19,Jits_Linear_5,2,5,80,127,2084194860
6715,19,Jits_Linear_5,3,5,63,98,2084225344
6715,19,Jits_Linear_5,0,1,48,43,2084722072
6715,19,Jits_Linear_5,1,5,63,98,2084765040
6715,19,Jits_Linear_5,2,5,80,127,2084775160
6715,19,Jits_Linear_5,3,5,56,103,2084784608
6715,19,Jits_Linear_5,0,5,56,103,2085344892
6715,19,Jits_Linear_5,1,1,48,44,2085367568
6715,19,Jits_Linear_5,2,5,63,98,2085415320
6715,19,Jits_Linear_5,3,5,80,127,2085424396
6715,19,Jits_Linear_5,0,5,80,127,2085954980
6715,19,Jits_Linear_5,1,5,56,103,2085965180
6715,19,Jits_Linear_5,2,1,48,46,2086006960
6715,19,Jits_Linear_5,3,5,63,98,2086015300
6715,19,Jits_Linear_5,0,5,80,127,2086574556
6715,19,Jits_Linear_5,1,1,48,41,2086584048
6715,19,Jits_Linear_5,2,5,56,103,2086634792
6715,19,Jits_Linear_5,3,5,63,98,2086664768
6715,19,Jits_Linear_5,0,5,56,103,2087184912
6715,19,Jits_Linear_5,1,5,80,127,2087187832
6715,19,Jits_Linear_5,2,1,48,44,2087224104
6715,19,Jits_Linear_5,3,5,63,98,2087225744
6715,19,Jits_Linear_5,0,1,48,43,2087819952
6715,19,Jits_Linear_5,1,5,56,103,2087824780
6715,19,Jits_Linear_5,2,5,63,98,2087854308
6715,19,Jits_Linear_5,3,5,80,127,2087864804
6715,19,Jits_Linear_5,0,1,48,42,2088409700
6715,19,Jits_Linear_5,1,5,63,98,2088445396
6715,19,Jits_Linear_5,2,5,80,127,2088454472
6715,19,Jits_Linear_5,3,5,56,103,2088464964
6715,19,Jits_Linear_5,0,5,80,127,2089005476
6715,19,Jits_Linear_5,1,5,56,103,2089054656
6715,19,Jits_Linear_5,2,5,63,98,2089057724
6715,19,Jits_Linear_5,3,1,48,46,2089059060
6715,19,Jits_Linear_5,0,1,48,40,2089640384
6715,19,Jits_Linear_5,1,5,56,103,2089654948
6715,19,Jits_Linear_5,2,5,80,127,2089675260
6715,19,Jits_Linear_5,3,5,63,98,2089685380
6715,19,Jits_Linear_5,0,1,48,42,2090252692
6715,19,Jits_Linear_5,1,5,63,98,2090254728
6715,19,Jits_Linear_5,2,5,56,103,2090285380
6715,19,Jits_Linear_5,3,5,80,127,2090305040
6715,19,Jits_Linear_5,0,1,48,45,2090873692
6715,19,Jits_Linear_5,1,5,56,103,2090884356
6715,19,Jits_Linear_5,2,5,80,127,2090894924
6715,19,Jits_Linear_5,3,5,63,98,2090965504
6715,19,Jits_Linear_5,0,1,48,39,2091492416
6715,19,Jits_Linear_5,1,5,63,98,2091494924
6715,19,Jits_Linear_5,2,5,80,127,2091535088
6715,19,Jits_Linear_5,3,5,56,103,2091574728
6715,19,Jits_Linear_5,0,1,48,47,2092102632
6715,19,Jits_Linear_5,1,5,56,103,2092134740
6715,19,Jits_Linear_5,2,5,63,98,2092144936
6715,19,Jits_Linear_5,3,5,80,127,2092164720
6715,19,Jits_Linear_5,0,1,48,44,2092756964
6715,19,Jits_Linear_5,1,5,63,98,2092804424
6715,19,Jits_Linear_5,2,5,80,127,2092825108
6715,19,Jits_Linear_5,3,5,56,103,2092845492
6715,19,Jits_Linear_5,0,5,56,103,2093374796
6715,19,Jits_Linear_5,1,5,80,127,2093454820
6715,19,Jits_Linear_5,2,5,63,98,2093464940
6715,19,Jits_Linear_5,3,1,48,44,2093485072
6715,19,Jits_Linear_5,0,5,80,127,2094044796
6715,19,Jits_Linear_5,1,5,63,98,2094054844
6715,19,Jits_Linear_5,2,1,48,44,2094077972
6715,19,Jits_Linear_5,3,5,56,103,2094084588
6715,19,Jits_Linear_5,0,1,48,40,2094622300
6715,19,Jits_Linear_5,1,5,63,98,2094635376
6715,19,Jits_Linear_5,2,5,80,127,2094675264
6715,19,Jits_Linear_5,3,5,56,103,2094734892
6715,19,Jits_Linear_5,0,1,48,46,2095250136
6715,19,Jits_Linear_5,1,5,63,98,2095275492
6715,19,Jits_Linear_5,2,5,56,103,2095324648
6715,19,Jits_Linear_5,3,5,80,127,2095355208
6715,19,Jits_Linear_5,0,1,48,46,2095867896
6715,19,Jits_Linear_5,1,5,80,127,2095924872
6715,19,Jits_Linear_5,2,5,63,98,2095934796
6715,19,Jits_Linear_5,3,5,56,103,2096004388
6715,19,Jits_Linear_5,0,1,48,43,2096514764
6715,19,Jits_Linear_5,1,5,80,127,2096635180
6715,19,Jits_Linear_5,2,5,56,103,2096644476
6715,19,Jits_Linear_5,3,5,63,98,2096647620
6715,19,Jits_Linear_5,0,5,56,103,2097214776
6715,19,Jits_Linear_5,1,1,48,42,2097219464
6715,19,Jits_Linear_5,2,5,80,127,2097235304
6715,19,Jits_Linear_5,3,5,63,98,2097244824
6715,19,Jits_Linear_5,0,5,63,98,2097865140
6715,19,Jits_Linear_5,1,1,48,46,2097880544
6715,19,Jits_Linear_5,2,5,56,103,2097904924
6715,19,Jits_Linear_5,3,5,80,127,2097924784
6715,19,Jits_Linear_5,0,5,63,98,2098515372
6715,19,Jits_Linear_5,1,1,48,44,2098535052
6715,19,Jits_Linear_5,2,5,56,103,2098574712
6715,19,Jits_Linear_5,3,5,80,127,2098577852
6715,19,Jits_Linear_5,0,5,56,103,2099124808
6715,19,Jits_Linear_5,1,5,80,127,2099145120
6715,19,Jits_Linear_5,2,1,48,48,2099180524
6715,19,Jits_Linear_5,3,5,63,98,2099185056
6715,19,Jits_Linear_5,0,1,48,38,2099786556
6715,19,Jits_Linear_5,1,5,56,103,2099804716
6715,19,Jits_Linear_5,2,5,63,98,2099825100
6715,19,Jits_Linear_5,3,5,80,127,2099835372
6715,19,Jits_Linear_5,0,1,48,39,2100424272
6715,19,Jits_Linear_5,1,5,80,127,2100425916
6715,19,Jits_Linear_5,2,5,56,103,2100454772
6715,19,Jits_Linear_5,3,5,63,98,2100494860
6715,19,Jits_Linear_5,0,5,80,127,2101084612
6715,19,Jits_Linear_5,1,1,48,43,2101098744
6715,19,Jits_Linear_5,2,5,56,103,2101104988
6715,19,Jits_Linear_5,3,5,63,98,2101165604
6715,19,Jits_Linear_5,0,5,56,103,2101744940
6715,19,Jits_Linear_5,1,5,80,127,2101764580
6715,19,Jits_Linear_5,2,1,48,43,2101776164
6715,19,Jits_Linear_5,3,5,63,98,2101824988
6715,19,Jits_Linear_5,0,5,80,127,2102384992
6715,19,Jits_Linear_5,1,5,56,103,2102395188
6715,19,Jits_Linear_5,2,1,48,44,2102418984
6715,19,Jits_Linear_5,3,5,63,98,2102435120
6715,19,Jits_Linear_5,0,5,63,98,2103044720
6715,19,Jits_Linear_5,1,1,48,41,2103060796
6715,19,Jits_Linear_5,2,5,56,103,2103085696
6715,19,Jits_Linear_5,3,5,80,127,2103088764
6715,19,Jits_Linear_5,0,1,48,43,2103713412
6715,19,Jits_Linear_5,1,5,63,98,2103725568
6715,19,Jits_Linear_5,2,5,80,127,2103765288
6715,19,Jits_Linear_5,3,5,56,103,2103795036
6715,19,Jits_Linear_5,0,1,48,43,2104363760
6715,19,Jits_Linear_5,1,5,56,103,2104374872
6715,19,Jits_Linear_5,2,5,63,98,2104384872
6715,19,Jits_Linear_5,3,5,80,127,2104414548
6715,19,Jits_Linear_5,0,1,48,42,2104990520
6715,19,Jits_Linear_5,1,5,80,127,2105035212
6715,19,Jits_Linear_5,2,5,63,98,2105104808
6715,19,Jits_Linear_5,3,5,56,103,2105115076
6715,19,Jits_Linear_5,0,1,48,41,2105704776
6715,19,Jits_Linear_5,1,5,63,98,2105706184
6715,19,Jits_Linear_5,2,5,56,103,2105774528
6715,19,Jits_Linear_5,3,5,80,127,2105784872
6715,19,Jits_Linear_5,0,5,63,98,2106374828
6715,19,Jits_Linear_5,1,1,48,44,2106382364
6715,19,Jits_Linear_5,2,5,56,103,2106395132
6715,19,Jits_Linear_5,3,5,80,127,2106434872
6715,19,Jits_Linear_5,0,1,48,45,2107032572
6715,19,Jits_Linear_5,1,5,56,103,2107054712
6715,19,Jits_Linear_5,2,5,63,98,2107064836
6715,19,Jits_Linear_5,3,5,80,127,2107144616
6715,19,Jits_Linear_5,0,1,48,40,2107661124
6715,19,Jits_Linear_5,1,5,63,98,2107714980
6715,19,Jits_Linear_5,2,5,56,103,2107744732
6715,19,Jits_Linear_5,3,5,80,127,2107784508
6715,19,Jits_Linear_5,0,1,48,42,2108310520
6715,19,Jits_Linear_5,1,5,56,103,2108384808
6715,19,Jits_Linear_5,2,5,63,98,2108424808
6715,19,Jits_Linear_5,3,5,80,127,2108464676
6715,19,Jits_Linear_5,0,1,48,37,2108985904
6715,19,Jits_Linear_5,1,5,80,127,2109064680
6715,19,Jits_Linear_5,2,5,56,103,2109144464
6715,19,Jits_Linear_5,3,5,63,98,2109154736
6715,19,Jits_Linear_5,0,1,48,41,2109770092
6715,19,Jits_Linear_5,1,5,56,103,2109784508
6715,19,Jits_Linear_5,2,5,63,98,2109787504
6715,19,Jits_Linear_5,3,5,80,127,2109794632
6715,19,Jits_Linear_5,0,1,48,41,2110451372
6715,19,Jits_Linear_5,1,5,56,103,2110484824
6715,19,Jits_Linear_5,2,5,63,98,2110505360
6715,19,Jits_Linear_5,3,5,80,127,2110514660
6715,19,Jits_Linear_5,0,5,63,98,2111124724
6715,19,Jits_Linear_5,1,5,80,127,2111135140
6715,19,Jits_Linear_5,2,5,56,103,2111154628
6715,19,Jits_Linear_5,3,1,48,41,2111159692
6715,19,Jits_Linear_5,0,5,63,98,2111814956
6715,19,Jits_Linear_5,1,1,48,40,2111821812
6715,19,Jits_Linear_5,2,5,56,103,2111894740
6715,19,Jits_Linear_5,3,5,80,127,2111897964
6715,19,Jits_Linear_5,0,5,63,98,2112505088
6715,19,Jits_Linear_5,1,5,56,103,2112524796
6715,19,Jits_Linear_5,2,1,48,42,2112533620
6715,19,Jits_Linear_5,3,5,80,127,2112555364
6715,19,Jits_Linear_5,0,5,56,103,2113195544
6715,19,Jits_Linear_5,1,5,63,98,2113214732
6715,19,Jits_Linear_5,2,5,80,127,2113225004
6715,19,Jits_Linear_5,3,1,48,47,2113226340
6715,19,Jits_Linear_5,0,1,48,45,2113911080
6715,19,Jits_Linear_5,1,5,56,103,2113915528
6715,19,Jits_Linear_5,2,5,63,98,2113944984
6715,19,Jits_Linear_5,3,5,80,127,2113948348
6715,19,Jits_Linear_5,0,5,56,103,2114555240
6715,19,Jits_Linear_5,1,5,63,98,2114595184
6715,19,Jits_Linear_5,2,1,48,45,2114612076
6715,19,Jits_Linear_5,3,5,80,127,2114654472
6715,19,Jits_Linear_5,0,1,48,43,2115260516
6715,19,Jits_Linear_5,1,5,56,103,2115264816
6715,19,Jits_Linear_5,2,5,63,98,2115275384
6715,19,Jits_Linear_5,3,5,80,127,2115334432
6715,19,Jits_Linear_5,0,1,48,41,2115944836
6715,19,Jits_Linear_5,1,5,56,103,2115965612
6715,19,Jits_Linear_5,2,5,80,127,2115984656
6715,19,Jits_Linear_5,3,5,63,98,2116014628
6715,19,Jits_Linear_5,0,1,48,46,2116650324
6715,19,Jits_Linear_5,1,5,80,127,2116664740
6715,19,Jits_Linear_5,2,5,56,103,2116674888
6715,19,Jits_Linear_5,3,5,63,98,2116695420
6715,19,Jits_Linear_5,0,1,48,43,2117313516
6715,19,Jits_Linear_5,1,5,63,98,2117354896
6715,19,Jits_Linear_5,2,5,80,127,2117434856
6715,19,Jits_Linear_5,3,5,56,103,2117445128
6715,19,Jits_Linear_5,0,1,48,41,2117981488
6715,19,Jits_Linear_5,1,5,80,127,2118114724
6715,19,Jits_Linear_5,2,5,56,103,2118135184
6715,19,Jits_Linear_5,3,5,63,98,2118138252
6715,19,Jits_Linear_5,0,1,48,40,2118749120
6715,19,Jits_Linear_5,1,5,63,98,2118794556
6715,19,Jits_Linear_5,2,5,80,127,2118797848
6715,19,Jits_Linear_5,3,5,56,103,2118855008
6715,19,Jits_Linear_5,0,1,48,43,2119484308
6715,19,Jits_Linear_5,1,5,56,103,2119494896
6715,19,Jits_Linear_5,2,5,80,127,2119505464
6715,19,Jits_Linear_5,3,5,63,98,2119545404
6715,19,Jits_Linear_5,0,5,56,103,2120185332
6715,19,Jits_Linear_5,1,1,48,42,2120198116
6715,19,Jits_Linear_5,2,5,63,98,2120244600
6715,19,Jits_Linear_5,3,5,80,127,2120254896
6715,19,Jits_Linear_5,0,5,63,98,2120905176
6715,19,Jits_Linear_5,1,1,48,40,2120908372
6715,19,Jits_Linear_5,2,5,80,127,2120944964
6715,19,Jits_Linear_5,3,5,56,103,2120984976
6715,19,Jits_Linear_5,0,5,56,103,2121614668
6715,19,Jits_Linear_5,1,1,48,43,2121660412
6715,19,Jits_Linear_5,2,5,63,98,2121694536
6715,19,Jits_Linear_5,3,5,80,127,2121697828
6715,19,Jits_Linear_5,0,1,48,42,2122330572
6715,19,Jits_Linear_5,1,5,80,127,2122384700
6715,19,Jits_Linear_5,2,5,56,103,2122414452
6715,19,Jits_Linear_5,3,5,63,98,2122417520
6715,19,Jits_Linear_5,0,1,48,40,2123012920
6715,19,Jits_Linear_5,1,5,56,103,2123064640
6715,19,Jits_Linear_5,2,5,80,127,2123085200
6715,19,Jits_Linear_5,3,5,63,98,2123125272
6715,19,Jits_Linear_5,0,1,48,43,2123717456
6715,19,Jits_Linear_5,1,5,80,127,2123765216
6715,19,Jits_Linear_5,2,5,63,98,2123784552
6715,19,Jits_Linear_5,3,5,56,103,2123844880
6715,19,Jits_Linear_5,0,1,48,40,2124436460
6715,19,Jits_Linear_5,1,5,63,98,2124495604
6715,19,Jits_Linear_5,2,5,56,103,2124504384
6715,19,Jits_Linear_5,3,5,80,127,2124554568
6715,19,Jits_Linear_5,0,1,48,40,2125174648
6715,19,Jits_Linear_5,1,5,56,103,2125204944
6715,19,Jits_Linear_5,2,5,63,98,2125225480
6715,19,Jits_Linear_5,3,5,80,127,2125234408
6715,19,Jits_Linear_5,0,1,48,42,2125897848
6715,19,Jits_Linear_5,1,5,56,103,2125924696
6715,19,Jits_Linear_5,2,5,63,98,2125927692
6715,19,Jits_Linear_5,3,5,80,127,2125945304
6715,19,Jits_Linear_5,0,1,48,44,2126635840
6715,19,Jits_Linear_5,1,5,63,98,2126694708
6715,19,Jits_Linear_5,2,5,56,103,2126724460
6715,19,Jits_Linear_5,3,5,80,127,2126755392
6715,19,Jits_Linear_5,0,1,48,41,2127375300
6715,19,Jits_Linear_5,1,5,80,127,2127385068
6715,19,Jits_Linear_5,2,5,56,103,2127475140
6715,19,Jits_Linear_5,3,5,63,98,2127478208
6715,19,Jits_Linear_5,0,5,56,103,2128115308
6715,19,Jits_Linear_5,1,5,80,127,2128118004
6715,19,Jits_Linear_5,2,1,48,41,2128136264
6715,19,Jits_Linear_5,3,5,63,98,2128194824
6715,19,Jits_Linear_5,0,5,80,127,2128845180
6715,19,Jits_Linear_5,1,1,48,40,2128855124
6715,19,Jits_Linear_5,2,5,63,98,2128904448
6715,19,Jits_Linear_5,3,5,56,103,2128935540
6715,19,Jits_Linear_5,0,5,63,98,2129575436
6715,19,Jits_Linear_5,1,5,80,127,2129584440
6715,19,Jits_Linear_5,2,1,48,45,2129589504
6715,19,Jits_Linear_5,3,5,56,103,2129655308
6715,19,Jits_Linear_5,0,5,56,103,2130324712
6715,19,Jits_Linear_5,1,1,48,44,2130341460
6715,19,Jits_Linear_5,2,5,80,127,2130354604
6715,19,Jits_Linear_5,3,5,63,98,2130404736
6715,19,Jits_Linear_5,0,1,48,43,2131097116
6715,19,Jits_Linear_5,1,5,63,98,2131105236
6715,19,Jits_Linear_5,2,5,56,103,2131134760
6715,19,Jits_Linear_5,3,5,80,127,2131137756
6715,19,Jits_Linear_5,0,5,63,98,2131844476
6715,19,Jits_Linear_5,1,1,48,45,2131853892
6715,19,Jits_Linear_5,2,5,80,127,2131864852
6715,19,Jits_Linear_5,3,5,56,103,2131875572
6715,19,Jits_Linear_5,0,1,48,45,2132590716
6715,19,Jits_Linear_5,1,5,56,103,2132595164
6715,19,Jits_Linear_5,2,5,63,98,2132598084
6715,19,Jits_Linear_5,3,5,80,127,2132614500
6715,19,Jits_Linear_5,0,5,56,103,2133294364
6715,19,Jits_Linear_5,1,5,63,98,2133304712
6715,19,Jits_Linear_5,2,5,80,127,2133335360
6715,19,Jits_Linear_5,3,1,48,43,2133338100
6715,19,Jits_Linear_5,0,1,48,43,2134061116
6715,19,Jits_Linear_5,1,5,63,98,2134064372
6715,19,Jits_Linear_5,2,5,80,127,2134085156
6715,19,Jits_Linear_5,3,5,56,103,2134124944
6715,19,Jits_Linear_5,0,1,48,42,2134817212
6715,19,Jits_Linear_5,1,5,56,103,2134844764
6715,19,Jits_Linear_5,2,5,63,98,2134884780
6715,19,Jits_Linear_5,3,5,80,127,2134888292
6715,19,Jits_Linear_5,0,5,80,127,2135534824
6715,19,Jits_Linear_5,1,5,56,103,2135574988
6715,19,Jits_Linear_5,2,1,48,43,2135594672
6715,19,Jits_Linear_5,3,5,63,98,2135625284
6715,19,Jits_Linear_5,0,1,48,43,2136328808
6715,19,Jits_Linear_5,1,5,56,103,2136344796
6715,19,Jits_Linear_5,2,5,80,127,2136355368
6715,19,Jits_Linear_5,3,5,63,98,2136384768
6715,19,Jits_Linear_5,0,5,56,103,2137045304
6715,19,Jits_Linear_5,1,1,48,45,2137070220
6715,19,Jits_Linear_5,2,5,80,127,2137085164
6715,19,Jits_Linear_5,3,5,63,98,2137134320
6715,19,Jits_Linear_5,0,1,48,40,2137792844
6715,19,Jits_Linear_5,1,5,56,103,2137805224
6715,19,Jits_Linear_5,2,5,80,127,2137845164
6715,19,Jits_Linear_5,3,5,63,98,2137895280
6715,19,Jits_Linear_5,0,5,80,127,2138554652
6715,19,Jits_Linear_5,1,1,48,46,2138570504
6715,19,Jits_Linear_5,2,5,63,98,2138634524
6715,19,Jits_Linear_5,3,5,56,103,2138644720
6715,19,Jits_Linear_5,0,1,48,46,2139323620
6715,19,Jits_Linear_5,1,5,80,127,2139364700
6715,19,Jits_Linear_5,2,5,56,103,2139374896
6715,19,Jits_Linear_5,3,5,63,98,2139394384
6715,19,Jits_Linear_5,0,1,48,48,2140072052
6715,19,Jits_Linear_5,1,5,63,98,2140094864
6715,19,Jits_Linear_5,2,5,56,103,2140164476
6715,19,Jits_Linear_5,3,5,80,127,2140167616
6715,19,Jits_Linear_5,0,1,48,48,2140852184
6715,19,Jits_Linear_5,1,5,80,127,2140854772
6715,19,Jits_Linear_5,2,5,63,98,2140904752
6715,19,Jits_Linear_5,3,5,56,103,2140944692
6715,19,Jits_Linear_5,0,1,48,46,2141626720
6715,19,Jits_Linear_5,1,5,63,98,2141664584
6715,19,Jits_Linear_5,2,5,56,103,2141704600
6715,19,Jits_Linear_5,3,5,80,127,2141715168
6715,19,Jits_Linear_5,0,1,48,41,2142383944
6715,19,Jits_Linear_5,1,5,63,98,2142424428
6715,19,Jits_Linear_5,2,5,56,103,2142445188
6715,19,Jits_Linear_5,3,5,80,127,2142465424
6715,19,Jits_Linear_5,0,5,80,127,2143154528
6715,19,Jits_Linear_5,1,5,56,103,2143164652
6715,19,Jits_Linear_5,2,1,48,41,2143184884
6715,19,Jits_Linear_5,3,5,63,98,2143186300
6715,19,Jits_Linear_5,0,1,48,46,2143903704
6715,19,Jits_Linear_5,1,5,63,98,2143955428
6715,19,Jits_Linear_5,2,5,56,103,2143995368
6715,19,Jits_Linear_5,3,5,80,127,2144025176
6715,19,Jits_Linear_5,0,1,48,44,2144707600
6715,19,Jits_Linear_5,1,5,56,103,2144734524
6715,19,Jits_Linear_5,2,5,63,98,2144765324
6715,19,Jits_Linear_5,3,5,80,127,2144795000
6715,19,Jits_Linear_5,0,1,48,45,2145477620
6715,19,Jits_Linear_5,1,5,80,127,2145485144
6715,19,Jits_Linear_5,2,5,56,103,2145554752
6715,19,Jits_Linear_5,3,5,63,98,2145557896
6715,19,Jits_Linear_5,0,5,56,103,2146274576
6715,19,Jits_Linear_5,1,1,48,41,2146286160
6715,19,Jits_Linear_5,2,5,63,98,2146324700
6715,19,Jits_Linear_5,3,5,80,127,2146354448
6715,19,Jits_Linear_5,0,5,63,98,2147034348
6715,19,Jits_Linear_5,1,5,80,127,2147037716
6715,19,Jits_Linear_5,2,1,48,45,2147090436
6715,19,Jits_Linear_5,3,5,56,103,2147095036
6715,19,Jits_Linear_5,0,5,56,103,2147844452
6715,19,Jits_Linear_5,1,1,48,46,2147850788
6715,19,Jits_Linear_5,2,5,80,127,2147854640
6715,19,Jits_Linear_5,3,5,63,98,2147905092
6715,19,Jits_Linear_5,0,5,63,98,2148605272
6715,19,Jits_Linear_5,1,5,56,103,2148614424
6715,19,Jits_Linear_5,2,5,80,127,2148645220
6715,19,Jits_Linear_5,3,1,48,40,2148646184
6715,19,Jits_Linear_5,0,1,48,44,2149375636
6715,19,Jits_Linear_5,1,5,63,98,2149424440
6715,19,Jits_Linear_5,2,5,80,127,2149427732
6715,19,Jits_Linear_5,3,5,56,103,2149455184
6715,19,Jits_Linear_5,0,1,48,42,2150184396
6715,19,Jits_Linear_5,1,5,63,98,2150234568
6715,19,Jits_Linear_5,2,5,56,103,2150255024
6715,19,Jits_Linear_5,3,5,80,127,2150258092
6715,19,Jits_Linear_5,0,1,48,44,2150984060
6715,19,Jits_Linear_5,1,5,63,98,2150985476
6715,19,Jits_Linear_5,2,5,56,103,2151054864
6715,19,Jits_Linear_5,3,5,80,127,2151075156
6715,19,Jits_Linear_5,0,5,56,103,2151765328
6715,19,Jits_Linear_5,1,5,63,98,2151774628
6715,19,Jits_Linear_5,2,1,48,50,2151790180
6715,19,Jits_Linear_5,3,5,80,127,2151864904
6715,19,Jits_Linear_5,0,5,56,103,2152575224
6715,19,Jits_Linear_5,1,1,48,44,2152610036
6715,19,Jits_Linear_5,2,5,80,127,2152615308
6715,19,Jits_Linear_5,3,5,63,98,2152624608
6715,19,Jits_Linear_5,0,5,56,103,2153404980
6715,19,Jits_Linear_5,1,1,48,44,2153419040
6715,19,Jits_Linear_5,2,5,63,98,2153434500
6715,19,Jits_Linear_5,3,5,80,127,2153465148
6715,19,Jits_Linear_5,0,5,80,127,2154164532
6715,19,Jits_Linear_5,1,5,63,98,2154204620
6715,19,Jits_Linear_5,2,5,56,103,2154225080
6715,19,Jits_Linear_5,3,1,48,51,2154231044
6715,19,Jits_Linear_5,0,5,56,103,2155005148
6715,19,Jits_Linear_5,1,5,80,127,2155025008
6715,19,Jits_Linear_5,2,5,63,98,2155045168
6715,19,Jits_Linear_5,3,1,48,44,2155055412
6715,19,Jits_Linear_5,0,5,63,98,2155775412
6715,19,Jits_Linear_5,1,5,56,103,2155784560
6715,19,Jits_Linear_5,2,1,48,42,2155787228
6715,19,Jits_Linear_5,3,5,80,127,2155845120
6715,19,Jits_Linear_5,0,1,48,45,2156514084
6715,19,Jits_Linear_5,1,5,56,103,2156585288
6715,19,Jits_Linear_5,2,5,63,98,2156655132
6715,19,Jits_Linear_5,3,5,80,127,2156674324
6715,19,Jits_Linear_5,0,1,48,44,2157289424
6715,19,Jits_Linear_5,1,5,56,103,2157395336
6715,19,Jits_Linear_5,2,5,63,98,2157425084
6715,19,Jits_Linear_5,3,5,80,127,2157465172
6715,19,Jits_Linear_5,0,1,48,39,2158166320
6715,19,Jits_Linear_5,1,5,63,98,2158195116
6715,19,Jits_Linear_5,2,5,56,103,2158245172
6715,19,Jits_Linear_5,3,5,80,127,2158254396
6715,19,Jits_Linear_5,0,1,48,41,2158989532
6715,19,Jits_Linear_5,1,5,56,103,2159045152
6715,19,Jits_Linear_5,2,5,63,98,2159095192
6715,19,Jits_Linear_5,3,5,80,127,2159105316
6715,19,Jits_Linear_5,0,1,48,40,2159800912
6715,19,Jits_Linear_5,1,5,56,103,2159825220
6715,19,Jits_Linear_5,2,5,63,98,2159834520
6715,19,Jits_Linear_5,3,5,80,127,2159915500
6715,19,Jits_Linear_5,0,9999,9999,9999,2051062864
6715,19,Jits_Linear_5,1,9999,9999,9999,2051542104
6715,19,Jits_Linear_5,2,9999,9999,9999,2052022328
6715,19,Jits_Linear_5,3,9999,9999,9999,2052502620
6715,19,Jits_Linear_5,4,9999,9999,9999,2052982908
6715,19,Jits_Linear_5,5,9999,9999,9999,2053472340
6715,19,Jits_Linear_5,6,9999,9999,9999,2053962812
6715,19,Jits_Linear_5,7,9999,9999,9999,2054452300
6715,19,Jits_Linear_5,8,9999,9999,9999,2054942780
6715,19,Jits_Linear_5,9,9999,9999,9999,2055432296
6715,19,Jits_Linear_5,10,9999,9999,9999,2055933044
6715,19,Jits_Linear_5,11,9999,9999,9999,2056432736
6715,19,Jits_Linear_5,12,9999,9999,9999,2056932420
6715,19,Jits_Linear_5,13,9999,9999,9999,2057432176
6715,19,Jits_Linear_5,14,9999,9999,9999,2057932896
6715,19,Jits_Linear_5,15,9999,9999,9999,2058442848
6715,19,Jits_Linear_5,16,9999,9999,9999,2058952800
6715,19,Jits_Linear_5,17,9999,9999,9999,2059462748
6715,19,Jits_Linear_5,18,9999,9999,9999,2059972700
6715,19,Jits_Linear_5,19,9999,9999,9999,2060482656
6715,19,Jits_Linear_5,20,9999,9999,9999,2061002872
6715,19,Jits_Linear_5,21,9999,9999,9999,2061523012
6715,19,Jits_Linear_5,22,9999,9999,9999,2062042172
6715,19,Jits_Linear_5,23,9999,9999,9999,2062562404
6715,19,Jits_Linear_5,24,9999,9999,9999,2063082560
6715,19,Jits_Linear_5,25,9999,9999,9999,2063613032
6715,19,Jits_Linear_5,26,9999,9999,9999,2064142392
6715,19,Jits_Linear_5,27,9999,9999,9999,2064672844
6715,19,Jits_Linear_5,28,9999,9999,9999,2065202280
6715,19,Jits_Linear_5,29,9999,9999,9999,2065732700
6715,19,Jits_Linear_5,30,9999,9999,9999,2066272320
6715,19,Jits_Linear_5,31,9999,9999,9999,2066812988
6715,19,Jits_Linear_5,32,9999,9999,9999,2067352680
6715,19,Jits_Linear_5,33,9999,9999,9999,2067892304
6715,19,Jits_Linear_5,34,9999,9999,9999,2068432972
6715,19,Jits_Linear_5,35,9999,9999,9999,2068982860
6715,19,Jits_Linear_5,36,9999,9999,9999,2069532732
6715,19,Jits_Linear_5,37,9999,9999,9999,2070082644
6715,19,Jits_Linear_5,38,9999,9999,9999,2070632532
6715,19,Jits_Linear_5,39,9999,9999,9999,2071182416
6715,19,Jits_Linear_5,40,9999,9999,9999,2071742568
6715,19,Jits_Linear_5,41,9999,9999,9999,2072302712
6715,19,Jits_Linear_5,42,9999,9999,9999,2072862800
6715,19,Jits_Linear_5,43,9999,9999,9999,2073422968
6715,19,Jits_Linear_5,44,9999,9999,9999,2073983044
6715,19,Jits_Linear_5,45,9999,9999,9999,2074552404
6715,19,Jits_Linear_5,46,9999,9999,9999,2075122740
6715,19,Jits_Linear_5,47,9999,9999,9999,2075692116
6715,19,Jits_Linear_5,48,9999,9999,9999,2076262484
6715,19,Jits_Linear_5,49,9999,9999,9999,2076832828
6715,19,Jits_Linear_5,50,9999,9999,9999,2077412448
6715,19,Jits_Linear_5,51,9999,9999,9999,2077993052
6715,19,Jits_Linear_5,52,9999,9999,9999,2078572628
6715,19,Jits_Linear_5,53,9999,9999,9999,2079152200
6715,19,Jits_Linear_5,54,9999,9999,9999,2079732800
6715,19,Jits_Linear_5,55,9999,9999,9999,2080322664
6715,19,Jits_Linear_5,56,9999,9999,9999,2080912492
6715,19,Jits_Linear_5,57,9999,9999,9999,2081502320
6715,19,Jits_Linear_5,58,9999,9999,9999,2082092136
6715,19,Jits_Linear_5,59,9999,9999,9999,2082682936
6715,19,Jits_Linear_5,60,9999,9999,9999,2083283036
6715,19,Jits_Linear_5,61,9999,9999,9999,2083883112
6715,19,Jits_Linear_5,62,9999,9999,9999,2084492408
6715,19,Jits_Linear_5,63,9999,9999,9999,2085092412
6715,19,Jits_Linear_5,64,9999,9999,9999,2085692516
6715,19,Jits_Linear_5,65,9999,9999,9999,2086302800
6715,19,Jits_Linear_5,66,9999,9999,9999,2086912116
6715,19,Jits_Linear_5,67,9999,9999,9999,2087522388
6715,19,Jits_Linear_5,68,9999,9999,9999,2088132676
6715,19,Jits_Linear_5,69,9999,9999,9999,2088743024
6715,19,Jits_Linear_5,70,9999,9999,9999,2089362528
6715,19,Jits_Linear_5,71,9999,9999,9999,2089983072
6715,19,Jits_Linear_5,72,9999,9999,9999,2090602580
6715,19,Jits_Linear_5,73,9999,9999,9999,2091222140
6715,19,Jits_Linear_5,74,9999,9999,9999,2091842628
6715,19,Jits_Linear_5,75,9999,9999,9999,2092472376
6715,19,Jits_Linear_5,76,9999,9999,9999,2093102208
6715,19,Jits_Linear_5,77,9999,9999,9999,2093732956
6715,19,Jits_Linear_5,78,9999,9999,9999,2094362728
6715,19,Jits_Linear_5,79,9999,9999,9999,2094992444
6715,19,Jits_Linear_5,80,9999,9999,9999,2095632460
6715,19,Jits_Linear_5,81,9999,9999,9999,2096272500
6715,19,Jits_Linear_5,82,9999,9999,9999,2096912440
6715,19,Jits_Linear_5,83,9999,9999,9999,2097552480
6715,19,Jits_Linear_5,84,9999,9999,9999,2098192508
6715,19,Jits_Linear_5,85,9999,9999,9999,2098842732
6715,19,Jits_Linear_5,86,9999,9999,9999,2099492932
6715,19,Jits_Linear_5,87,9999,9999,9999,2100142200
6715,19,Jits_Linear_5,88,9999,9999,9999,2100792400
6715,19,Jits_Linear_5,89,9999,9999,9999,2101442620
6715,19,Jits_Linear_5,90,9999,9999,9999,2102102076
6715,19,Jits_Linear_5,91,9999,9999,9999,2102762552
6715,19,Jits_Linear_5,92,9999,9999,9999,2103423044
6715,19,Jits_Linear_5,93,9999,9999,9999,2104082536
6715,19,Jits_Linear_5,94,9999,9999,9999,2104743024
6715,19,Jits_Linear_5,95,9999,9999,9999,2105412732
6715,19,Jits_Linear_5,96,9999,9999,9999,2106082412
6715,19,Jits_Linear_5,97,9999,9999,9999,2106752116
6715,19,Jits_Linear_5,98,9999,9999,9999,2107422844
6715,19,Jits_Linear_5,99,9999,9999,9999,2108092472
6715,19,Jits_Linear_5,100,9999,9999,9999,2108772444
6715,19,Jits_Linear_5,101,9999,9999,9999,2109452364
6715,19,Jits_Linear_5,102,9999,9999,9999,2110132324
6715,19,Jits_Linear_5,103,9999,9999,9999,2110812224
6715,19,Jits_Linear_5,104,9999,9999,9999,2111492168
6715,19,Jits_Linear_5,105,9999,9999,9999,2112182396
6715,19,Jits_Linear_5,106,9999,9999,9999,2112872556
6715,19,Jits_Linear_5,107,9999,9999,9999,2113562692
6715,19,Jits_Linear_5,108,9999,9999,9999,2114252860
6715,19,Jits_Linear_5,109,9999,9999,9999,2114943092
6715,19,Jits_Linear_5,110,9999,9999,9999,2115642484
6715,19,Jits_Linear_5,111,9999,9999,9999,2116342884
6715,19,Jits_Linear_5,112,9999,9999,9999,2117042256
6715,19,Jits_Linear_5,113,9999,9999,9999,2117742680
6715,19,Jits_Linear_5,114,9999,9999,9999,2118443076
6715,19,Jits_Linear_5,115,9999,9999,9999,2119162972
6715,19,Jits_Linear_5,116,9999,9999,9999,2119872612
6715,19,Jits_Linear_5,117,9999,9999,9999,2120582252
6715,19,Jits_Linear_5,118,9999,9999,9999,2121292880
6715,19,Jits_Linear_5,119,9999,9999,9999,2122002488
6715,19,Jits_Linear_5,120,9999,9999,9999,2122722404
6715,19,Jits_Linear_5,121,9999,9999,9999,2123442236
6715,19,Jits_Linear_5,122,9999,9999,9999,2124162136
6715,19,Jits_Linear_5,123,9999,9999,9999,2124883012
6715,19,Jits_Linear_5,124,9999,9999,9999,2125602888
6715,19,Jits_Linear_5,125,9999,9999,9999,2126333040
6715,19,Jits_Linear_5,126,9999,9999,9999,2127062088
6715,19,Jits_Linear_5,127,9999,9999,9999,2127792248
6715,19,Jits_Linear_5,128,9999,9999,9999,2128522328
6715,19,Jits_Linear_5,129,9999,9999,9999,2129252436
6715,19,Jits_Linear_5,130,9999,9999,9999,2129992804
6715,19,Jits_Linear_5,131,9999,9999,9999,2130732092
6715,19,Jits_Linear_5,132,9999,9999,9999,2131472456
6715,19,Jits_Linear_5,133,9999,9999,9999,2132212820
6715,19,Jits_Linear_5,134,9999,9999,9999,2132952120
6715,19,Jits_Linear_5,135,9999,9999,9999,2133702712
6715,19,Jits_Linear_5,136,9999,9999,9999,2134452300
6715,19,Jits_Linear_5,137,9999,9999,9999,2135202916
6715,19,Jits_Linear_5,138,9999,9999,9999,2135952492
6715,19,Jits_Linear_5,139,9999,9999,9999,2136703060
6715,19,Jits_Linear_5,140,9999,9999,9999,2137462896
6715,19,Jits_Linear_5,141,9999,9999,9999,2138222676
6715,19,Jits_Linear_5,142,9999,9999,9999,2138982512
6715,19,Jits_Linear_5,143,9999,9999,9999,2139742288
6715,19,Jits_Linear_5,144,9999,9999,9999,2140502120
6715,19,Jits_Linear_5,145,9999,9999,9999,2141272148
6715,19,Jits_Linear_5,146,9999,9999,9999,2142042180
6715,19,Jits_Linear_5,147,9999,9999,9999,2142812284
6715,19,Jits_Linear_5,148,9999,9999,9999,2143582308
6715,19,Jits_Linear_5,149,9999,9999,9999,2144352352
6715,19,Jits_Linear_5,150,9999,9999,9999,2145132644
6715,19,Jits_Linear_5,151,9999,9999,9999,2145912924
6715,19,Jits_Linear_5,152,9999,9999,9999,2146692168
6715,19,Jits_Linear_5,153,9999,9999,9999,2147472460
6715,19,Jits_Linear_5,154,9999,9999,9999,2148252752
6715,19,Jits_Linear_5,155,9999,9999,9999,2149042268
6715,19,Jits_Linear_5,156,9999,9999,9999,2149832808
6715,19,Jits_Linear_5,157,9999,9999,9999,2150622312
6715,19,Jits_Linear_5,158,9999,9999,9999,2151412792
6715,19,Jits_Linear_5,159,9999,9999,9999,2152202300
6715,19,Jits_Linear_5,160,9999,9999,9999,2153003128
6715,19,Jits_Linear_5,161,9999,9999,9999,2153813056
6715,19,Jits_Linear_5,162,9999,9999,9999,2154612836
6715,19,Jits_Linear_5,163,9999,9999,9999,2155412548
6715,19,Jits_Linear_5,164,9999,9999,9999,2156212328
6715,19,Jits_Linear_5,165,9999,9999,9999,2157022296
6715,19,Jits_Linear_5,166,9999,9999,9999,2157832252
6715,19,Jits_Linear_5,167,9999,9999,9999,2158642284
6715,19,Jits_Linear_5,168,9999,9999,9999,2159452264
6715,19,Jits_Linear_5,169,9999,9999,9999,2160262224
6716,15,Jits_Phase_8,0,5,56,103,2170161872
6716,15,Jits_Phase_8,1,5,63,98,2170164892
6716,15,Jits_Phase_8,2,5,80,127,2170168088
6716,15,Jits_Phase_8,0,1,48,37,2170724936
6716,15,Jits_Phase_8,1,5,56,103,2170962316
6716,15,Jits_Phase_8,2,5,63,98,2170965408
6716,15,Jits_Phase_8,3,5,80,127,2170968756
6716,15,Jits_Phase_8,0,1,48,40,2171647024
6716,15,Jits_Phase_8,1,5,80,127,2171701748
6716,15,Jits_Phase_8,2,5,63,98,2171791968
6716,15,Jits_Phase_8,3,5,56,103,2171802088
6716,15,Jits_Phase_8,0,5,56,103,2172531960
6716,15,Jits_Phase_8,1,5,63,98,2172542452
6716,15,Jits_Phase_8,2,1,48,43,2172587744
6716,15,Jits_Phase_8,3,5,80,127,2172632428
6716,15,Jits_Phase_8,0,5,63,98,2173302208
6716,15,Jits_Phase_8,1,5,80,127,2173331884
6716,15,Jits_Phase_8,2,5,56,103,2173361708
6716,15,Jits_Phase_8,3,1,48,43,2173390160
6716,15,Jits_Phase_8,0,5,56,103,2174101892
6716,15,Jits_Phase_8,1,1,48,38,2174118264
6716,15,Jits_Phase_8,2,5,80,127,2174202280
6716,15,Jits_Phase_8,3,5,63,98,2174252540
6716,15,Jits_Phase_8,0,5,56,103,2174901740
6716,15,Jits_Phase_8,1,1,48,40,2174935576
6716,15,Jits_Phase_8,2,5,80,127,2174951860
6716,15,Jits_Phase_8,3,5,63,98,2174991872
6716,15,Jits_Phase_8,0,1,48,39,2175693016
6716,15,Jits_Phase_8,1,5,80,127,2175732072
6716,15,Jits_Phase_8,2,5,63,98,2175761748
6716,15,Jits_Phase_8,3,5,56,103,2175832632
6716,15,Jits_Phase_8,0,1,48,40,2176525056
6716,15,Jits_Phase_8,1,5,63,98,2176561800
6716,15,Jits_Phase_8,2,5,56,103,2176592176
6716,15,Jits_Phase_8,3,5,80,127,2176651724
6716,15,Jits_Phase_8,0,5,56,103,2177301928
6716,15,Jits_Phase_8,1,5,80,127,2177304920
6716,15,Jits_Phase_8,2,1,48,38,2177337056
6716,15,Jits_Phase_8,3,5,63,98,2177421816
6716,15,Jits_Phase_8,0,1,48,41,2178107216
6716,15,Jits_Phase_8,1,5,56,103,2178181648
6716,15,Jits_Phase_8,2,5,80,127,2178221496
6716,15,Jits_Phase_8,3,5,63,98,2178231916
6716,15,Jits_Phase_8,0,1,48,36,2178915676
6716,15,Jits_Phase_8,1,5,56,103,2178942228
6716,15,Jits_Phase_8,2,5,80,127,2178961716
6716,15,Jits_Phase_8,3,5,63,98,2179041788
6716,15,Jits_Phase_8,0,5,80,127,2179731880
6716,15,Jits_Phase_8,1,1,48,37,2179791644
6716,15,Jits_Phase_8,2,5,56,103,2179832124
6716,15,Jits_Phase_8,3,5,63,98,2179842692
6716,15,Jits_Phase_8,0,5,63,98,2180501764
6716,15,Jits_Phase_8,1,5,80,127,2180562228
6716,15,Jits_Phase_8,2,5,56,103,2180571604
6716,15,Jits_Phase_8,3,1,48,35,2180600952
6716,15,Jits_Phase_8,0,5,56,103,2181301816
6716,15,Jits_Phase_8,1,1,48,33,2181302784
6716,15,Jits_Phase_8,2,5,63,98,2181372160
6716,15,Jits_Phase_8,3,5,80,127,2181375604
6716,15,Jits_Phase_8,0,1,48,37,2182101252
6716,15,Jits_Phase_8,1,5,63,98,2182132140
6716,15,Jits_Phase_8,2,5,56,103,2182182340
6716,15,Jits_Phase_8,3,5,80,127,2182185404
6716,15,Jits_Phase_8,0,1,48,37,2182857304
6716,15,Jits_Phase_8,1,5,56,103,2182891876
6716,15,Jits_Phase_8,2,5,80,127,2182895164
6716,15,Jits_Phase_8,3,5,63,98,2182981868
6716,15,Jits_Phase_8,0,1,48,37,2183674508
6716,15,Jits_Phase_8,1,5,63,98,2183731552
6716,15,Jits_Phase_8,2,5,56,103,2183821772
6716,15,Jits_Phase_8,3,5,80,127,2183852344
6716,15,Jits_Phase_8,0,5,56,103,2184522060
6716,15,Jits_Phase_8,1,1,48,35,2184533124
6716,15,Jits_Phase_8,2,5,63,98,2184621700
6716,15,Jits_Phase_8,3,5,80,127,2184652108
6716,15,Jits_Phase_8,0,5,63,98,2185342508
6716,15,Jits_Phase_8,1,1,48,37,2185351132
6716,15,Jits_Phase_8,2,5,56,103,2185352700
6716,15,Jits_Phase_8,3,5,80,127,2185441784
6716,15,Jits_Phase_8,0,5,63,98,2186161600
6716,15,Jits_Phase_8,1,1,48,41,2186162640
6716,15,Jits_Phase_8,2,5,56,103,2186242360
6716,15,Jits_Phase_8,3,5,80,127,2186245428
6716,15,Jits_Phase_8,0,5,80,127,2186922544
6716,15,Jits_Phase_8,1,5,63,98,2186941808
6716,15,Jits_Phase_8,2,5,56,103,2187002420
6716,15,Jits_Phase_8,3,1,48,36,2187007112
6716,15,Jits_Phase_8,0,1,48,35,2187741164
6716,15,Jits_Phase_8,1,5,56,103,2187762168
6716,15,Jits_Phase_8,2,5,63,98,2187781432
6716,15,Jits_Phase_8,3,5,80,127,2187784644
6716,15,Jits_Phase_8,0,5,63,98,2188502436
6716,15,Jits_Phase_8,1,1,48,34,2188513352
6716,15,Jits_Phase_8,2,5,80,127,2188582376
6716,15,Jits_Phase_8,3,5,56,103,2188591448
6716,15,Jits_Phase_8,0,5,63,98,2189321676
6716,15,Jits_Phase_8,1,1,48,35,2189327860
6716,15,Jits_Phase_8,2,5,56,103,2189341980
6716,15,Jits_Phase_8,3,5,80,127,2189392128
6716,15,Jits_Phase_8,0,5,80,127,2190122476
6716,15,Jits_Phase_8,1,1,48,41,2190133764
6716,15,Jits_Phase_8,2,5,63,98,2190162580
6716,15,Jits_Phase_8,3,5,56,103,2190181696
6716,15,Jits_Phase_8,0,1,48,37,2190921716
6716,15,Jits_Phase_8,1,5,56,103,2190961904
6716,15,Jits_Phase_8,2,5,63,98,2190972544
6716,15,Jits_Phase_8,3,5,80,127,2190991732
6716,15,Jits_Phase_8,0,5,56,103,2191692288
6716,15,Jits_Phase_8,1,1,48,33,2191702752
6716,15,Jits_Phase_8,2,5,63,98,2191782196
6716,15,Jits_Phase_8,3,5,80,127,2191841520
6716,15,Jits_Phase_8,0,5,80,127,2192521732
6716,15,Jits_Phase_8,1,5,56,103,2192531780
6716,15,Jits_Phase_8,2,1,48,35,2192557744
6716,15,Jits_Phase_8,3,5,63,98,2192601600
6716,15,Jits_Phase_8,0,5,63,98,2193351924
6716,15,Jits_Phase_8,1,1,48,37,2193353332
6716,15,Jits_Phase_8,2,5,80,127,2193442272
6716,15,Jits_Phase_8,3,5,56,103,2193452528
6716,15,Jits_Phase_8,0,5,63,98,2194082308
6716,15,Jits_Phase_8,1,5,80,127,2194132436
6716,15,Jits_Phase_8,2,5,56,103,2194191632
6716,15,Jits_Phase_8,3,1,48,32,2194197964
6716,15,Jits_Phase_8,0,1,48,35,2194878508
6716,15,Jits_Phase_8,1,5,56,103,2194902364
6716,15,Jits_Phase_8,2,5,80,127,2194951744
6716,15,Jits_Phase_8,3,5,63,98,2194972556
6716,15,Jits_Phase_8,0,1,48,38,2195643584
6716,15,Jits_Phase_8,1,5,56,103,2195672824
6716,15,Jits_Phase_8,2,5,80,127,2195731796
6716,15,Jits_Phase_8,3,5,63,98,2195801488
6716,15,Jits_Phase_8,0,1,48,39,2196466628
6716,15,Jits_Phase_8,1,5,56,103,2196472428
6716,15,Jits_Phase_8,2,5,80,127,2196501736
6716,15,Jits_Phase_8,3,5,63,98,2196531708
6716,15,Jits_Phase_8,0,1,48,38,2197295080
6716,15,Jits_Phase_8,1,5,56,103,2197321960
6716,15,Jits_Phase_8,2,5,80,127,2197341596
6716,15,Jits_Phase_8,3,5,63,98,2197401896
6716,15,Jits_Phase_8,0,1,48,38,2198126704
6716,15,Jits_Phase_8,1,5,80,127,2198211848
6716,15,Jits_Phase_8,2,5,56,103,2198222404
6716,15,Jits_Phase_8,3,5,63,98,2198232600
6716,15,Jits_Phase_8,0,5,56,103,2198971688
6716,15,Jits_Phase_8,1,1,48,36,2198981856
6716,15,Jits_Phase_8,2,5,80,127,2199011548
6716,15,Jits_Phase_8,3,5,63,98,2199042492
6716,15,Jits_Phase_8,0,5,56,103,2199742020
6716,15,Jits_Phase_8,1,5,63,98,2199771624
6716,15,Jits_Phase_8,2,1,48,41,2199806876
6716,15,Jits_Phase_8,3,5,80,127,2199811484
6716,15,Jits_Phase_8,0,5,80,127,2200492572
6716,15,Jits_Phase_8,1,5,63,98,2200541504
6716,15,Jits_Phase_8,2,1,48,43,2200549652
6716,15,Jits_Phase_8,3,5,56,103,2200562104
6716,15,Jits_Phase_8,0,5,56,103,2201321788
6716,15,Jits_Phase_8,1,1,48,40,2201336144
6716,15,Jits_Phase_8,2,5,80,127,2201391540
6716,15,Jits_Phase_8,3,5,63,98,2201451940
6716,15,Jits_Phase_8,0,1,48,40,2202070592
6716,15,Jits_Phase_8,1,5,80,127,2202121560
6716,15,Jits_Phase_8,2,5,63,98,2202211704
6716,15,Jits_Phase_8,3,5,56,103,2202232388
6716,15,Jits_Phase_8,0,5,63,98,2202941956
6716,15,Jits_Phase_8,1,1,48,40,2202955484
6716,15,Jits_Phase_8,2,5,56,103,2202962332
6716,15,Jits_Phase_8,3,5,80,127,2203002416
6716,15,Jits_Phase_8,0,5,80,127,2203701604
6716,15,Jits_Phase_8,1,5,63,98,2203721988
6716,15,Jits_Phase_8,2,1,48,40,2203730960
6716,15,Jits_Phase_8,3,5,56,103,2203801924
6716,15,Jits_Phase_8,0,5,63,98,2204492524
6716,15,Jits_Phase_8,1,1,48,35,2204514452
6716,15,Jits_Phase_8,2,5,56,103,2204601604
6716,15,Jits_Phase_8,3,5,80,127,2204604748
6716,15,Jits_Phase_8,0,1,48,37,2205311224
6716,15,Jits_Phase_8,1,5,63,98,2205312720
6716,15,Jits_Phase_8,2,5,56,103,2205321492
6716,15,Jits_Phase_8,3,5,80,127,2205324712
6716,15,Jits_Phase_8,0,5,56,103,2206091568
6716,15,Jits_Phase_8,1,1,48,37,2206146152
6716,15,Jits_Phase_8,2,5,80,127,2206211512
6716,15,Jits_Phase_8,3,5,63,98,2206252484
6716,15,Jits_Phase_8,0,5,56,103,2206911724
6716,15,Jits_Phase_8,1,1,48,41,2206931256
6716,15,Jits_Phase_8,2,5,80,127,2206991588
6716,15,Jits_Phase_8,3,5,63,98,2207012344
6716,15,Jits_Phase_8,0,5,56,103,2207711644
6716,15,Jits_Phase_8,1,1,48,35,2207720092
6716,15,Jits_Phase_8,2,5,63,98,2207822384
6716,15,Jits_Phase_8,3,5,80,127,2207825672
6716,15,Jits_Phase_8,0,1,48,35,2208548312
6716,15,Jits_Phase_8,1,5,56,103,2208552464
6716,15,Jits_Phase_8,2,5,80,127,2208582016
6716,15,Jits_Phase_8,3,5,63,98,2208601652
6716,15,Jits_Phase_8,0,5,63,98,2209341768
6716,15,Jits_Phase_8,1,5,56,103,2209352188
6716,15,Jits_Phase_8,2,1,48,38,2209360644
6716,15,Jits_Phase_8,3,5,80,127,2209362228
6716,15,Jits_Phase_8,0,1,48,33,2210132228
6716,15,Jits_Phase_8,1,5,80,127,2210133712
6716,15,Jits_Phase_8,2,5,56,103,2210181452
6716,15,Jits_Phase_8,3,5,63,98,2210221460
6716,15,Jits_Phase_8,0,5,80,127,2210951464
6716,15,Jits_Phase_8,1,1,48,32,2210958096
6716,15,Jits_Phase_8,2,5,63,98,2210972212
6716,15,Jits_Phase_8,3,5,56,103,2211022416
6716,15,Jits_Phase_8,0,5,80,127,2211761500
6716,15,Jits_Phase_8,1,5,56,103,2211792148
6716,15,Jits_Phase_8,2,1,48,34,2211812052
6716,15,Jits_Phase_8,3,5,63,98,2211861896
6716,15,Jits_Phase_8,0,5,56,103,2212611476
6716,15,Jits_Phase_8,1,5,80,127,2212621744
6716,15,Jits_Phase_8,2,1,48,28,2212627400
6716,15,Jits_Phase_8,3,5,63,98,2212661700
6716,15,Jits_Phase_8,0,5,56,103,2213322316
6716,15,Jits_Phase_8,1,5,63,98,2213341508
6716,15,Jits_Phase_8,2,5,80,127,2213412304
6716,15,Jits_Phase_8,3,1,48,34,2213436648
6716,15,Jits_Phase_8,0,1,48,23,2214064588
6716,15,Jits_Phase_8,1,5,63,98,2214142384
6716,15,Jits_Phase_8,2,5,80,127,2214201664
6716,15,Jits_Phase_8,3,5,56,103,2214222272
6716,15,Jits_Phase_8,0,1,48,31,2214873488
6716,15,Jits_Phase_8,1,5,80,127,2214931880
6716,15,Jits_Phase_8,2,5,56,103,2214961480
6716,15,Jits_Phase_8,3,5,63,98,2214992212
6716,15,Jits_Phase_8,0,1,48,34,2215648288
6716,15,Jits_Phase_8,1,5,56,103,2215731632
6716,15,Jits_Phase_8,2,5,63,98,2215792184
6716,15,Jits_Phase_8,3,5,80,127,2215852276
6716,15,Jits_Phase_8,0,1,48,30,2216480872
6716,15,Jits_Phase_8,1,5,80,127,2216551792
6716,15,Jits_Phase_8,2,5,56,103,2216572328
6716,15,Jits_Phase_8,3,5,63,98,2216641768
6716,15,Jits_Phase_8,0,1,48,36,2217350728
6716,15,Jits_Phase_8,1,5,80,127,2217352224
6716,15,Jits_Phase_8,2,5,63,98,2217372160
6716,15,Jits_Phase_8,3,5,56,103,2217401684
6716,15,Jits_Phase_8,0,5,80,127,2218142316
6716,15,Jits_Phase_8,1,5,63,98,2218161508
6716,15,Jits_Phase_8,2,1,48,33,2218167768
6716,15,Jits_Phase_8,3,5,56,103,2218221888
6716,15,Jits_Phase_8,0,1,48,40,2218926768
6716,15,Jits_Phase_8,1,5,80,127,2218941788
6716,15,Jits_Phase_8,2,5,56,103,2219042096
6716,15,Jits_Phase_8,3,5,63,98,2219072092
6716,15,Jits_Phase_8,0,5,63,98,2219732188
6716,15,Jits_Phase_8,1,1,48,38,2219755684
6716,15,Jits_Phase_8,2,5,80,127,2219781412
6716,15,Jits_Phase_8,3,5,56,103,2219802096
6716,15,Jits_Phase_8,0,1,48,40,2220530344
6716,15,Jits_Phase_8,1,5,80,127,2220572244
6716,15,Jits_Phase_8,2,5,56,103,2220601648
6716,15,Jits_Phase_8,3,5,63,98,2220604712
6716,15,Jits_Phase_8,0,1,48,37,2221313088
6716,15,Jits_Phase_8,1,5,63,98,2221422056
6716,15,Jits_Phase_8,2,5,56,103,2221462072
6716,15,Jits_Phase_8,3,5,80,127,2221482232
6716,15,Jits_Phase_8,0,1,48,39,2222158712
6716,15,Jits_Phase_8,1,5,80,127,2222181676
6716,15,Jits_Phase_8,2,5,63,98,2222261832
6716,15,Jits_Phase_8,3,5,56,103,2222301620
6716,15,Jits_Phase_8,0,1,48,41,2222971900
6716,15,Jits_Phase_8,1,5,63,98,2223001896
6716,15,Jits_Phase_8,2,5,80,127,2223081828
6716,15,Jits_Phase_8,3,5,56,103,2223102284
6716,15,Jits_Phase_8,0,1,48,42,2223790328
6716,15,Jits_Phase_8,1,5,56,103,2223841520
6716,15,Jits_Phase_8,2,5,63,98,2223852088
6716,15,Jits_Phase_8,3,5,80,127,2223891864
6716,15,Jits_Phase_8,0,5,56,103,2224561644
6716,15,Jits_Phase_8,1,5,80,127,2224564636
6716,15,Jits_Phase_8,2,1,48,39,2224587308
6716,15,Jits_Phase_8,3,5,63,98,2224701748
6716,15,Jits_Phase_8,0,5,56,103,2225352116
6716,15,Jits_Phase_8,1,1,48,42,2225426928
6716,15,Jits_Phase_8,2,5,63,98,2225442172
6716,15,Jits_Phase_8,3,5,80,127,2225511876
6716,15,Jits_Phase_8,0,1,48,40,2226207592
6716,15,Jits_Phase_8,1,5,63,98,2226231628
6716,15,Jits_Phase_8,2,5,80,127,2226235064
6716,15,Jits_Phase_8,3,5,56,103,2226292164
6716,15,Jits_Phase_8,0,1,48,38,2226980016
6716,15,Jits_Phase_8,1,5,80,127,2227073544
6716,15,Jits_Phase_8,2,5,56,103,2227091688
6716,15,Jits_Phase_8,3,5,63,98,2227102328
6716,15,Jits_Phase_8,0,5,56,103,2227782304
6716,15,Jits_Phase_8,1,5,63,98,2227792204
6716,15,Jits_Phase_8,2,1,48,39,2227812632
6716,15,Jits_Phase_8,3,5,80,127,2227861800
6716,15,Jits_Phase_8,0,1,48,33,2228548920
6716,15,Jits_Phase_8,1,5,80,127,2228581696
6716,15,Jits_Phase_8,2,5,56,103,2228632048
6716,15,Jits_Phase_8,3,5,63,98,2228682084
6716,15,Jits_Phase_8,0,1,48,39,2229417752
6716,15,Jits_Phase_8,1,5,56,103,2229462368
6716,15,Jits_Phase_8,2,5,63,98,2229471592
6716,15,Jits_Phase_8,3,5,80,127,2229511588
6716,15,Jits_Phase_8,0,5,56,103,2230201680
6716,15,Jits_Phase_8,1,1,48,34,2230207568
6716,15,Jits_Phase_8,2,5,63,98,2230241760
6716,15,Jits_Phase_8,3,5,80,127,2230292036
6716,15,Jits_Phase_8,0,5,80,127,2230961448
6716,15,Jits_Phase_8,1,5,56,103,2231011648
6716,15,Jits_Phase_8,2,1,48,41,2231013136
6716,15,Jits_Phase_8,3,5,63,98,2231032252
6716,15,Jits_Phase_8,0,5,80,127,2231771628
6716,15,Jits_Phase_8,1,1,48,40,2231830888
6716,15,Jits_Phase_8,2,5,63,98,2231832384
6716,15,Jits_Phase_8,3,5,56,103,2231912052
6716,15,Jits_Phase_8,0,5,80,127,2232551848
6716,15,Jits_Phase_8,1,5,56,103,2232591712
6716,15,Jits_Phase_8,2,5,63,98,2232612172
6716,15,Jits_Phase_8,3,1,48,41,2232658460
6716,15,Jits_Phase_8,0,1,48,35,2233322136
6716,15,Jits_Phase_8,1,5,56,103,2233401828
6716,15,Jits_Phase_8,2,5,80,127,2233412248
6716,15,Jits_Phase_8,3,5,63,98,2233452020
6716,15,Jits_Phase_8,0,1,48,36,2234175032
6716,15,Jits_Phase_8,1,5,56,103,2234272224
6716,15,Jits_Phase_8,2,5,63,98,2234312084
6716,15,Jits_Phase_8,3,5,80,127,2234315448
6716,15,Jits_Phase_8,0,5,63,98,2234941940
6716,15,Jits_Phase_8,1,5,80,127,2234982028
6716,15,Jits_Phase_8,2,1,48,38,2235035116
6716,15,Jits_Phase_8,3,5,56,103,2235052376
6716,15,Jits_Phase_8,0,5,63,98,2235712028
6716,15,Jits_Phase_8,1,1,48,38,2235735600
6716,15,Jits_Phase_8,2,5,56,103,2235792116
6716,15,Jits_Phase_8,3,5,80,127,2235852120
6716,15,Jits_Phase_8,0,1,48,32,2236458896
6716,15,Jits_Phase_8,1,5,80,127,2236521968
6716,15,Jits_Phase_8,2,5,63,98,2236572008
6716,15,Jits_Phase_8,3,5,56,103,2236601680
6716,15,Jits_Phase_8,0,1,48,37,2237259352
6716,15,Jits_Phase_8,1,5,56,103,2237312280
6716,15,Jits_Phase_8,2,5,63,98,2237361496
6716,15,Jits_Phase_8,3,5,80,127,2237371768
6716,15,Jits_Phase_8,0,1,48,38,2238082416
6716,15,Jits_Phase_8,1,5,56,103,2238122296
6716,15,Jits_Phase_8,2,5,63,98,2238232120
6716,15,Jits_Phase_8,3,5,80,127,2238252280
6716,15,Jits_Phase_8,0,1,48,39,2238920172
6716,15,Jits_Phase_8,1,5,63,98,2238922056
6716,15,Jits_Phase_8,2,5,80,127,2238972184
6716,15,Jits_Phase_8,3,5,56,103,2239062252
6716,15,Jits_Phase_8,0,5,63,98,2239711780
6716,15,Jits_Phase_8,1,5,80,127,2239742280
6716,15,Jits_Phase_8,2,1,48,42,2239769832
6716,15,Jits_Phase_8,3,5,56,103,2239832356
6716,15,Jits_Phase_8,0,1,48,38,2240494196
6716,15,Jits_Phase_8,1,5,63,98,2240512432
6716,15,Jits_Phase_8,2,5,56,103,2240521508
6716,15,Jits_Phase_8,3,5,80,127,2240622208
6716,15,Jits_Phase_8,0,1,48,39,2241280548
6716,15,Jits_Phase_8,1,5,63,98,2241411468
6716,15,Jits_Phase_8,2,5,80,127,2241442116
6716,15,Jits_Phase_8,3,5,56,103,2241471792
6716,15,Jits_Phase_8,0,1,48,36,2242194512
6716,15,Jits_Phase_8,1,5,80,127,2242231996
6716,15,Jits_Phase_8,2,5,63,98,2242241972
6716,15,Jits_Phase_8,3,5,56,103,2242271720
6716,15,Jits_Phase_8,0,5,80,127,2242932052
6716,15,Jits_Phase_8,1,5,63,98,2242951616
6716,15,Jits_Phase_8,2,5,56,103,2243001964
6716,15,Jits_Phase_8,3,1,48,36,2243086584
6716,15,Jits_Phase_8,0,5,63,98,2243761640
6716,15,Jits_Phase_8,1,5,80,127,2243821884
6716,15,Jits_Phase_8,2,5,56,103,2243842340
6716,15,Jits_Phase_8,3,1,48,34,2243949844
6716,15,Jits_Phase_8,0,5,63,98,2244522364
6716,15,Jits_Phase_8,1,5,56,103,2244571444
6716,15,Jits_Phase_8,2,1,48,35,2244578456
6716,15,Jits_Phase_8,3,5,80,127,2244581708
6716,15,Jits_Phase_8,0,1,48,35,2245189164
6716,15,Jits_Phase_8,1,5,56,103,2245351768
6716,15,Jits_Phase_8,2,5,80,127,2245361964
6716,15,Jits_Phase_8,3,5,63,98,2245462380
6716,15,Jits_Phase_8,0,1,48,33,2246009596
6716,15,Jits_Phase_8,1,5,80,127,2246111812
6716,15,Jits_Phase_8,2,5,63,98,2246122008
6716,15,Jits_Phase_8,3,5,56,103,2246272396
6716,15,Jits_Phase_8,0,1,48,38,2246864280
6716,15,Jits_Phase_8,1,5,63,98,2246921552
6716,15,Jits_Phase_8,2,5,80,127,2246961476
6716,15,Jits_Phase_8,3,5,56,103,2247042316
6716,15,Jits_Phase_8,0,5,56,103,2247672060
6716,15,Jits_Phase_8,1,1,48,31,2247713760
6716,15,Jits_Phase_8,2,5,80,127,2247771432
6716,15,Jits_Phase_8,3,5,63,98,2247791964
6716,15,Jits_Phase_8,0,1,48,32,2248456068
6716,15,Jits_Phase_8,1,5,80,127,2248492364
6716,15,Jits_Phase_8,2,5,56,103,2248501984
6716,15,Jits_Phase_8,3,5,63,98,2248591800
6716,15,Jits_Phase_8,0,1,48,32,2249273316
6716,15,Jits_Phase_8,1,5,56,103,2249292224
6716,15,Jits_Phase_8,2,5,63,98,2249311860
6716,15,Jits_Phase_8,3,5,80,127,2249391416
6716,15,Jits_Phase_8,0,5,63,98,2250041648
6716,15,Jits_Phase_8,1,1,48,30,2250056896
6716,15,Jits_Phase_8,2,5,56,103,2250131920
6716,15,Jits_Phase_8,3,5,80,127,2250134984
6716,15,Jits_Phase_8,0,1,48,32,2250806888
6716,15,Jits_Phase_8,1,5,56,103,2250872104
6716,15,Jits_Phase_8,2,5,80,127,2250931728
6716,15,Jits_Phase_8,3,5,63,98,2250942000
6716,15,Jits_Phase_8,0,1,48,37,2251617732
6716,15,Jits_Phase_8,1,5,80,127,2251722040
6716,15,Jits_Phase_8,2,5,56,103,2251732308
6716,15,Jits_Phase_8,3,5,63,98,2251735748
6716,15,Jits_Phase_8,0,1,48,29,2252435768
6716,15,Jits_Phase_8,1,5,56,103,2252481800
6716,15,Jits_Phase_8,2,5,80,127,2252492292
6716,15,Jits_Phase_8,3,5,63,98,2252511852
6716,15,Jits_Phase_8,0,5,63,98,2253251968
6716,15,Jits_Phase_8,1,1,48,36,2253308648
6716,15,Jits_Phase_8,2,5,80,127,2253312356
6716,15,Jits_Phase_8,3,5,56,103,2253361728
6716,15,Jits_Phase_8,0,1,48,37,2254117812
6716,15,Jits_Phase_8,1,5,63,98,2254131884
6716,15,Jits_Phase_8,2,5,56,103,2254141932
6716,15,Jits_Phase_8,3,5,80,127,2254192056
6716,15,Jits_Phase_8,0,5,63,98,2254831912
6716,15,Jits_Phase_8,1,5,80,127,2254851324
6716,15,Jits_Phase_8,2,5,56,103,2254861816
6716,15,Jits_Phase_8,3,1,48,34,2254913584
6716,15,Jits_Phase_8,0,1,48,34,2255514220
6716,15,Jits_Phase_8,1,5,63,98,2255631860
6716,15,Jits_Phase_8,2,5,80,127,2255635000
6716,15,Jits_Phase_8,3,5,56,103,2255671748
6716,15,Jits_Phase_8,0,1,48,32,2256370836
6716,15,Jits_Phase_8,1,5,63,98,2256502128
6716,15,Jits_Phase_8,2,5,80,127,2256531728
6716,15,Jits_Phase_8,3,5,56,103,2256541924
6716,15,Jits_Phase_8,0,1,48,34,2257217280
6716,15,Jits_Phase_8,1,5,56,103,2257251928
6716,15,Jits_Phase_8,2,5,80,127,2257282504
6716,15,Jits_Phase_8,3,5,63,98,2257312012
6716,15,Jits_Phase_8,0,1,48,33,2258009552
6716,15,Jits_Phase_8,1,5,63,98,2258151684
6716,15,Jits_Phase_8,2,5,56,103,2258191844
6716,15,Jits_Phase_8,3,5,80,127,2258194908
6716,15,Jits_Phase_8,0,5,80,127,2258852192
6716,15,Jits_Phase_8,1,1,48,34,2258871576
6716,15,Jits_Phase_8,2,5,56,103,2258932204
6716,15,Jits_Phase_8,3,5,63,98,2258982464
6716,15,Jits_Phase_8,0,5,80,127,2259631660
6716,15,Jits_Phase_8,1,5,56,103,2259651896
6716,15,Jits_Phase_8,2,1,48,41,2259731660
6716,15,Jits_Phase_8,3,5,63,98,2259742020
6716,15,Jits_Phase_8,0,5,80,127,2260472116
6716,15,Jits_Phase_8,1,1,48,35,2260493592
6716,15,Jits_Phase_8,2,5,63,98,2260512048
6716,15,Jits_Phase_8,3,5,56,103,2260551932
6716,15,Jits_Phase_8,0,5,63,98,2261282152
6716,15,Jits_Phase_8,1,1,48,35,2261313024
6716,15,Jits_Phase_8,2,5,80,127,2261341816
6716,15,Jits_Phase_8,3,5,56,103,2261372388
6716,15,Jits_Phase_8,0,1,48,32,2262121940
6716,15,Jits_Phase_8,1,5,56,103,2262123204
6716,15,Jits_Phase_8,2,5,80,127,2262151832
6716,15,Jits_Phase_8,3,5,63,98,2262241724
6716,15,Jits_Phase_8,0,5,56,103,2262931960
6716,15,Jits_Phase_8,1,1,48,38,2262984524
6716,15,Jits_Phase_8,2,5,80,127,2263042616
6716,15,Jits_Phase_8,3,5,63,98,2263072140
6716,15,Jits_Phase_8,0,5,56,103,2263781860
6716,15,Jits_Phase_8,1,1,48,40,2263824984
6716,15,Jits_Phase_8,2,5,63,98,2263842172
6716,15,Jits_Phase_8,3,5,80,127,2263871948
6716,15,Jits_Phase_8,0,5,56,103,2264551748
6716,15,Jits_Phase_8,1,5,63,98,2264621432
6716,15,Jits_Phase_8,2,1,48,37,2264624772
6716,15,Jits_Phase_8,3,5,80,127,2264641832
6716,15,Jits_Phase_8,0,5,80,127,2265321780
6716,15,Jits_Phase_8,1,5,63,98,2265342460
6716,15,Jits_Phase_8,2,5,56,103,2265391688
6716,15,Jits_Phase_8,3,1,48,39,2265406892
6716,15,Jits_Phase_8,0,1,48,39,2266134468
6716,15,Jits_Phase_8,1,5,63,98,2266141920
6716,15,Jits_Phase_8,2,5,80,127,2266152188
6716,15,Jits_Phase_8,3,5,56,103,2266201592
6716,15,Jits_Phase_8,0,1,48,35,2266923364
6716,15,Jits_Phase_8,1,5,63,98,2266941696
6716,15,Jits_Phase_8,2,5,80,127,2267011528
6716,15,Jits_Phase_8,3,5,56,103,2267031824
6716,15,Jits_Phase_8,0,1,48,35,2267770120
6716,15,Jits_Phase_8,1,5,63,98,2267772396
6716,15,Jits_Phase_8,2,5,80,127,2267775684
6716,15,Jits_Phase_8,3,5,56,103,2267841924
6716,15,Jits_Phase_8,0,5,80,127,2268521808
6716,15,Jits_Phase_8,1,5,56,103,2268542416
6716,15,Jits_Phase_8,2,5,63,98,2268551492
6716,15,Jits_Phase_8,3,1,48,40,2268597152
6716,15,Jits_Phase_8,0,1,48,31,2269321396
6716,15,Jits_Phase_8,1,5,56,103,2269342020
6716,15,Jits_Phase_8,2,5,63,98,2269432136
6716,15,Jits_Phase_8,3,5,80,127,2269435572
6716,15,Jits_Phase_8,0,5,80,127,2270112180
6716,15,Jits_Phase_8,1,5,56,103,2270122600
6716,15,Jits_Phase_8,2,1,48,36,2270131868
6716,15,Jits_Phase_8,3,5,63,98,2270141708
6716,15,Jits_Phase_8,0,1,48,38,2270903672
6716,15,Jits_Phase_8,1,5,63,98,2270911792
6716,15,Jits_Phase_8,2,5,80,127,2270972480
6716,15,Jits_Phase_8,3,5,56,103,2270981776
6716,15,Jits_Phase_8,0,1,48,34,2271724628
6716,15,Jits_Phase_8,1,5,63,98,2271782196
6716,15,Jits_Phase_8,2,5,80,127,2271811972
6716,15,Jits_Phase_8,3,5,56,103,2271851892
6716,15,Jits_Phase_8,0,5,56,103,2272571652
6716,15,Jits_Phase_8,1,5,80,127,2272581996
6716,15,Jits_Phase_8,2,5,63,98,2272622084
6716,15,Jits_Phase_8,3,1,48,45,2272631952
6716,15,Jits_Phase_8,0,5,80,127,2273331640
6716,15,Jits_Phase_8,1,5,56,103,2273411736
6716,15,Jits_Phase_8,2,5,63,98,2273421708
6716,15,Jits_Phase_8,3,1,48,45,2273453444
6716,15,Jits_Phase_8,0,1,48,33,2274148752
6716,15,Jits_Phase_8,1,5,80,127,2274181452
6716,15,Jits_Phase_8,2,5,56,103,2274262656
6716,15,Jits_Phase_8,3,5,63,98,2274271580
6716,15,Jits_Phase_8,0,1,48,38,2274959552
6716,15,Jits_Phase_8,1,5,80,127,2275022200
6716,15,Jits_Phase_8,2,5,56,103,2275072760
6716,15,Jits_Phase_8,3,5,63,98,2275121468
6716,15,Jits_Phase_8,0,1,48,34,2275797860
6716,15,Jits_Phase_8,1,5,56,103,2275962360
6716,15,Jits_Phase_8,2,5,63,98,2275965572
6716,15,Jits_Phase_8,3,5,80,127,2276012560
6716,15,Jits_Phase_8,0,1,48,48,2276712508
6716,15,Jits_Phase_8,1,5,56,103,2276781612
6716,15,Jits_Phase_8,2,5,63,98,2276812036
6716,15,Jits_Phase_8,3,5,80,127,2276822660
6716,15,Jits_Phase_8,0,5,63,98,2277492152
6716,15,Jits_Phase_8,1,1,48,43,2277547780
6716,15,Jits_Phase_8,2,5,56,103,2277561752
6716,15,Jits_Phase_8,3,5,80,127,2277611876
6716,15,Jits_Phase_8,0,1,48,40,2278305360
6716,15,Jits_Phase_8,1,5,63,98,2278321500
6716,15,Jits_Phase_8,2,5,56,103,2278331692
6716,15,Jits_Phase_8,3,5,80,127,2278334760
6716,15,Jits_Phase_8,0,5,80,127,2279072472
6716,15,Jits_Phase_8,1,1,48,40,2279076860
6716,15,Jits_Phase_8,2,5,56,103,2279131364
6716,15,Jits_Phase_8,3,5,63,98,2279221728
6716,15,Jits_Phase_8,0,5,80,127,2279871724
6716,15,Jits_Phase_8,1,1,48,40,2279908024
6716,15,Jits_Phase_8,2,5,56,103,2279972336
6716,15,Jits_Phase_8,3,5,63,98,2280012432
6716,15,Jits_Phase_8,0,1,48,43,2280699328
6716,15,Jits_Phase_8,1,5,56,103,2280721764
6716,15,Jits_Phase_8,2,5,63,98,2280742296
6716,15,Jits_Phase_8,3,5,80,127,2280782408
6716,15,Jits_Phase_8,0,1,48,31,2281488220
6716,15,Jits_Phase_8,1,5,63,98,2281491928
6716,15,Jits_Phase_8,2,5,56,103,2281512460
6716,15,Jits_Phase_8,3,5,80,127,2281611592
6716,15,Jits_Phase_8,0,5,63,98,2282282472
6716,15,Jits_Phase_8,1,1,48,41,2282306740
6716,15,Jits_Phase_8,2,5,80,127,2282391880
6716,15,Jits_Phase_8,3,5,56,103,2282421616
6716,15,Jits_Phase_8,0,1,48,42,2283083052
6716,15,Jits_Phase_8,1,5,56,103,2283101656
6716,15,Jits_Phase_8,2,5,63,98,2283132452
6716,15,Jits_Phase_8,3,5,80,127,2283181592
6716,15,Jits_Phase_8,0,1,48,38,2283866248
6716,15,Jits_Phase_8,1,5,63,98,2283871524
6716,15,Jits_Phase_8,2,5,56,103,2283902544
6716,15,Jits_Phase_8,3,5,80,127,2283951324
6716,15,Jits_Phase_8,0,1,48,46,2284672224
6716,15,Jits_Phase_8,1,5,56,103,2284701916
6716,15,Jits_Phase_8,2,5,63,98,2284721552
6716,15,Jits_Phase_8,3,5,80,127,2284802452
6716,15,Jits_Phase_8,0,5,63,98,2285472308
6716,15,Jits_Phase_8,1,1,48,47,2285489672
6716,15,Jits_Phase_8,2,5,56,103,2285531496
6716,15,Jits_Phase_8,3,5,80,127,2285562292
6716,15,Jits_Phase_8,0,1,48,44,2286280132
6716,15,Jits_Phase_8,1,5,56,103,2286311768
6716,15,Jits_Phase_8,2,5,80,127,2286372308
6716,15,Jits_Phase_8,3,5,63,98,2286412252
6716,15,Jits_Phase_8,0,1,48,46,2287086844
6716,15,Jits_Phase_8,1,5,63,98,2287092344
6716,15,Jits_Phase_8,2,5,56,103,2287151464
6716,15,Jits_Phase_8,3,5,80,127,2287222276
6716,15,Jits_Phase_8,0,1,48,43,2287874768
6716,15,Jits_Phase_8,1,5,56,103,2287971760
6716,15,Jits_Phase_8,2,5,63,98,2287982028
6716,15,Jits_Phase_8,3,5,80,127,2287985316
6716,15,Jits_Phase_8,0,1,48,39,2288707960
6716,15,Jits_Phase_8,1,5,63,98,2288712336
6716,15,Jits_Phase_8,2,5,56,103,2288771456
6716,15,Jits_Phase_8,3,5,80,127,2288774524
6716,15,Jits_Phase_8,0,5,63,98,2289492388
6716,15,Jits_Phase_8,1,5,80,127,2289521992
6716,15,Jits_Phase_8,2,5,56,103,2289541476
6716,15,Jits_Phase_8,3,1,48,32,2289555228
6716,15,Jits_Phase_8,0,5,56,103,2290221396
6716,15,Jits_Phase_8,1,1,48,32,2290271920
6716,15,Jits_Phase_8,2,5,63,98,2290273256
6716,15,Jits_Phase_8,3,5,80,127,2290351336
6716,15,Jits_Phase_8,0,5,80,127,2290921836
6716,15,Jits_Phase_8,1,5,63,98,2290961852
6716,15,Jits_Phase_8,2,5,56,103,2290982232
6716,15,Jits_Phase_8,3,1,48,32,2291043884
6716,15,Jits_Phase_8,0,1,48,30,2291674444
6716,15,Jits_Phase_8,1,5,56,103,2291792332
6716,15,Jits_Phase_8,2,5,80,127,2291801556
6716,15,Jits_Phase_8,3,5,63,98,2291821868
6716,15,Jits_Phase_8,0,1,48,31,2292535516
6716,15,Jits_Phase_8,1,5,56,103,2292571432
6716,15,Jits_Phase_8,2,5,63,98,2292621636
6716,15,Jits_Phase_8,3,5,80,127,2292652488
6716,15,Jits_Phase_8,0,1,48,36,2293279972
6716,15,Jits_Phase_8,1,5,56,103,2293322268
6716,15,Jits_Phase_8,2,5,63,98,2293332464
6716,15,Jits_Phase_8,3,5,80,127,2293381528
6716,15,Jits_Phase_8,0,1,48,36,2294002172
6716,15,Jits_Phase_8,1,5,56,103,2294111668
6716,15,Jits_Phase_8,2,5,80,127,2294114584
6716,15,Jits_Phase_8,3,5,63,98,2294272368
6716,15,Jits_Phase_8,0,1,48,31,2294851916
6716,15,Jits_Phase_8,1,5,63,98,2294931956
6716,15,Jits_Phase_8,2,5,56,103,2295001400
6716,15,Jits_Phase_8,3,5,80,127,2295042384
6716,15,Jits_Phase_8,0,1,48,36,2295696396
6716,15,Jits_Phase_8,1,5,63,98,2295771648
6716,15,Jits_Phase_8,2,5,56,103,2295861640
6716,15,Jits_Phase_8,3,5,80,127,2295864780
6716,15,Jits_Phase_8,0,1,48,35,2296541036
6716,15,Jits_Phase_8,1,5,56,103,2296551772
6716,15,Jits_Phase_8,2,5,63,98,2296641916
6716,15,Jits_Phase_8,3,5,80,127,2296652408
6716,15,Jits_Phase_8,0,5,56,103,2297321724
6716,15,Jits_Phase_8,1,1,48,38,2297367164
6716,15,Jits_Phase_8,2,5,63,98,2297372144
6716,15,Jits_Phase_8,3,5,80,127,2297401692
6716,15,Jits_Phase_8,0,1,48,34,2298134192
6716,15,Jits_Phase_8,1,5,63,98,2298201600
6716,15,Jits_Phase_8,2,5,80,127,2298211724
6716,15,Jits_Phase_8,3,5,56,103,2298272096
6716,15,Jits_Phase_8,0,5,63,98,2298922304
6716,15,Jits_Phase_8,1,1,48,37,2298957060
6716,15,Jits_Phase_8,2,5,80,127,2298981740
6716,15,Jits_Phase_8,3,5,56,103,2299021828
6716,15,Jits_Phase_8,0,1,48,36,2299737704
6716,15,Jits_Phase_8,1,5,56,103,2299821352
6716,15,Jits_Phase_8,2,5,80,127,2299842168
6716,15,Jits_Phase_8,3,5,63,98,2299862328
6716,15,Jits_Phase_8,0,5,63,98,2300542304
6716,15,Jits_Phase_8,1,1,48,34,2300555760
6716,15,Jits_Phase_8,2,5,56,103,2300561636
6716,15,Jits_Phase_8,3,5,80,127,2300601648
6716,15,Jits_Phase_8,0,1,48,36,2301347788
6716,15,Jits_Phase_8,1,5,63,98,2301352392
6716,15,Jits_Phase_8,2,5,80,127,2301382068
6716,15,Jits_Phase_8,3,5,56,103,2301401332
6716,15,Jits_Phase_8,0,1,48,33,2302095556
6716,15,Jits_Phase_8,1,5,80,127,2302122332
6716,15,Jits_Phase_8,2,5,56,103,2302171564
6716,15,Jits_Phase_8,3,5,63,98,2302232084
6716,15,Jits_Phase_8,0,5,63,98,2302912280
6716,15,Jits_Phase_8,1,1,48,35,2302922520
6716,15,Jits_Phase_8,2,5,56,103,2303031640
6716,15,Jits_Phase_8,3,5,80,127,2303062436
6716,15,Jits_Phase_8,0,5,80,127,2303751528
6716,15,Jits_Phase_8,1,5,63,98,2303772136
6716,15,Jits_Phase_8,2,1,48,45,2303793712
6716,15,Jits_Phase_8,3,5,56,103,2303841536
6716,15,Jits_Phase_8,0,5,63,98,2304571856
6716,15,Jits_Phase_8,1,1,48,36,2304572824
6716,15,Jits_Phase_8,2,5,56,103,2304582120
6716,15,Jits_Phase_8,3,5,80,127,2304662060
6716,15,Jits_Phase_8,0,1,48,38,2305333148
6716,15,Jits_Phase_8,1,5,56,103,2305432204
6716,15,Jits_Phase_8,2,5,80,127,2305461584
6716,15,Jits_Phase_8,3,5,63,98,2305472076
6716,15,Jits_Phase_8,0,9999,9999,9999,2170559580
6716,15,Jits_Phase_8,1,9999,9999,9999,2171359352
6716,15,Jits_Phase_8,2,9999,9999,9999,2172160084
6716,15,Jits_Phase_8,3,9999,9999,9999,2172970104
6716,15,Jits_Phase_8,4,9999,9999,9999,2173769824
6716,15,Jits_Phase_8,5,9999,9999,9999,2174569584
6716,15,Jits_Phase_8,6,9999,9999,9999,2175369280
6716,15,Jits_Phase_8,7,9999,9999,9999,2176170100
6716,15,Jits_Phase_8,8,9999,9999,9999,2176969792
6716,15,Jits_Phase_8,9,9999,9999,9999,2177769536
6716,15,Jits_Phase_8,10,9999,9999,9999,2178569312
6716,15,Jits_Phase_8,11,9999,9999,9999,2179370044
6716,15,Jits_Phase_8,12,9999,9999,9999,2180169832
6716,15,Jits_Phase_8,13,9999,9999,9999,2180969528
6716,15,Jits_Phase_8,14,9999,9999,9999,2181769276
6716,15,Jits_Phase_8,15,9999,9999,9999,2182570084
6716,15,Jits_Phase_8,16,9999,9999,9999,2183369828
6716,15,Jits_Phase_8,17,9999,9999,9999,2184169588
6716,15,Jits_Phase_8,18,9999,9999,9999,2184969276
6716,15,Jits_Phase_8,19,9999,9999,9999,2185770096
6716,15,Jits_Phase_8,20,9999,9999,9999,2186569800
6716,15,Jits_Phase_8,21,9999,9999,9999,2187369560
6716,15,Jits_Phase_8,22,9999,9999,9999,2188169324
6716,15,Jits_Phase_8,23,9999,9999,9999,2188970052
6716,15,Jits_Phase_8,24,9999,9999,9999,2189769812
6716,15,Jits_Phase_8,25,9999,9999,9999,2190569564
6716,15,Jits_Phase_8,26,9999,9999,9999,2191369340
6716,15,Jits_Phase_8,27,9999,9999,9999,2192170072
6716,15,Jits_Phase_8,28,9999,9999,9999,2192969792
6716,15,Jits_Phase_8,29,9999,9999,9999,2193769572
6716,15,Jits_Phase_8,30,9999,9999,9999,2194549852
6716,15,Jits_Phase_8,31,9999,9999,9999,2195349608
6716,15,Jits_Phase_8,32,9999,9999,9999,2196149368
6716,15,Jits_Phase_8,33,9999,9999,9999,2196950092
6716,15,Jits_Phase_8,34,9999,9999,9999,2197760112
6716,15,Jits_Phase_8,35,9999,9999,9999,2198570068
6716,15,Jits_Phase_8,36,9999,9999,9999,2199369784
6716,15,Jits_Phase_8,37,9999,9999,9999,2200169560
6716,15,Jits_Phase_8,38,9999,9999,9999,2200969328
6716,15,Jits_Phase_8,39,9999,9999,9999,2201770080
6716,15,Jits_Phase_8,40,9999,9999,9999,2202569784
6716,15,Jits_Phase_8,41,9999,9999,9999,2203369540
6716,15,Jits_Phase_8,42,9999,9999,9999,2204169340
6716,15,Jits_Phase_8,43,9999,9999,9999,2204970076
6716,15,Jits_Phase_8,44,9999,9999,9999,2205769840
6716,15,Jits_Phase_8,45,9999,9999,9999,2206569528
6716,15,Jits_Phase_8,46,9999,9999,9999,2207369300
6716,15,Jits_Phase_8,47,9999,9999,9999,2208170040
6716,15,Jits_Phase_8,48,9999,9999,9999,2208989296
6716,15,Jits_Phase_8,49,9999,9999,9999,2209790024
6716,15,Jits_Phase_8,50,9999,9999,9999,2210589780
6716,15,Jits_Phase_8,51,9999,9999,9999,2211389560
6716,15,Jits_Phase_8,52,9999,9999,9999,2212189264
6716,15,Jits_Phase_8,53,9999,9999,9999,2212990016
6716,15,Jits_Phase_8,54,9999,9999,9999,2213789784
6716,15,Jits_Phase_8,55,9999,9999,9999,2214589556
6716,15,Jits_Phase_8,56,9999,9999,9999,2215389236
6716,15,Jits_Phase_8,57,9999,9999,9999,2216190040
6716,15,Jits_Phase_8,58,9999,9999,9999,2216989800
6716,15,Jits_Phase_8,59,9999,9999,9999,2217789504
6716,15,Jits_Phase_8,60,9999,9999,9999,2218589260
6716,15,Jits_Phase_8,61,9999,9999,9999,2219390012
6716,15,Jits_Phase_8,62,9999,9999,9999,2220189764
6716,15,Jits_Phase_8,63,9999,9999,9999,2220989516
6716,15,Jits_Phase_8,64,9999,9999,9999,2221829216
6716,15,Jits_Phase_8,65,9999,9999,9999,2222629952
6716,15,Jits_Phase_8,66,9999,9999,9999,2223429744
6716,15,Jits_Phase_8,67,9999,9999,9999,2224229432
6716,15,Jits_Phase_8,68,9999,9999,9999,2225029180
6716,15,Jits_Phase_8,69,9999,9999,9999,2225830004
6716,15,Jits_Phase_8,70,9999,9999,9999,2226629696
6716,15,Jits_Phase_8,71,9999,9999,9999,2227429464
6716,15,Jits_Phase_8,72,9999,9999,9999,2228229220
6716,15,Jits_Phase_8,73,9999,9999,9999,2229029964
6716,15,Jits_Phase_8,74,9999,9999,9999,2229829756
6716,15,Jits_Phase_8,75,9999,9999,9999,2230629444
6716,15,Jits_Phase_8,76,9999,9999,9999,2231429212
6716,15,Jits_Phase_8,77,9999,9999,9999,2232229956
6716,15,Jits_Phase_8,78,9999,9999,9999,2233029724
6716,15,Jits_Phase_8,79,9999,9999,9999,2233829496
6716,15,Jits_Phase_8,80,9999,9999,9999,2234629180
6716,15,Jits_Phase_8,81,9999,9999,9999,2235390056
6716,15,Jits_Phase_8,82,9999,9999,9999,2236189812
6716,15,Jits_Phase_8,83,9999,9999,9999,2236989516
6716,15,Jits_Phase_8,84,9999,9999,9999,2237789268
6716,15,Jits_Phase_8,85,9999,9999,9999,2238590072
6716,15,Jits_Phase_8,86,9999,9999,9999,2239389756
6716,15,Jits_Phase_8,87,9999,9999,9999,2240189512
6716,15,Jits_Phase_8,88,9999,9999,9999,2240989272
6716,15,Jits_Phase_8,89,9999,9999,9999,2241790008
6716,15,Jits_Phase_8,90,9999,9999,9999,2242589776
6716,15,Jits_Phase_8,91,9999,9999,9999,2243389552
6716,15,Jits_Phase_8,92,9999,9999,9999,2244189252
6716,15,Jits_Phase_8,93,9999,9999,9999,2244990056
6716,15,Jits_Phase_8,94,9999,9999,9999,2245789812
6716,15,Jits_Phase_8,95,9999,9999,9999,2246589568
6716,15,Jits_Phase_8,96,9999,9999,9999,2247389300
6716,15,Jits_Phase_8,97,9999,9999,9999,2248109116
6716,15,Jits_Phase_8,98,9999,9999,9999,2248909944
6716,15,Jits_Phase_8,99,9999,9999,9999,2249709628
6716,15,Jits_Phase_8,100,9999,9999,9999,2250509376
6716,15,Jits_Phase_8,101,9999,9999,9999,2251309136
6716,15,Jits_Phase_8,102,9999,9999,9999,2252109880
6716,15,Jits_Phase_8,103,9999,9999,9999,2252909636
6716,15,Jits_Phase_8,104,9999,9999,9999,2253709372
6716,15,Jits_Phase_8,105,9999,9999,9999,2254509136
6716,15,Jits_Phase_8,106,9999,9999,9999,2255309932
6716,15,Jits_Phase_8,107,9999,9999,9999,2256109672
6716,15,Jits_Phase_8,108,9999,9999,9999,2256909432
6716,15,Jits_Phase_8,109,9999,9999,9999,2257709112
6716,15,Jits_Phase_8,110,9999,9999,9999,2258509936
6716,15,Jits_Phase_8,111,9999,9999,9999,2259309624
6716,15,Jits_Phase_8,112,9999,9999,9999,2260109388
6716,15,Jits_Phase_8,113,9999,9999,9999,2260909164
6716,15,Jits_Phase_8,114,9999,9999,9999,2261789776
6716,15,Jits_Phase_8,115,9999,9999,9999,2262589556
6716,15,Jits_Phase_8,116,9999,9999,9999,2263389248
6716,15,Jits_Phase_8,117,9999,9999,9999,2264190072
6716,15,Jits_Phase_8,118,9999,9999,9999,2264989772
6716,15,Jits_Phase_8,119,9999,9999,9999,2265789544
6716,15,Jits_Phase_8,120,9999,9999,9999,2266589236
6716,15,Jits_Phase_8,121,9999,9999,9999,2267390040
6716,15,Jits_Phase_8,122,9999,9999,9999,2268189792
6716,15,Jits_Phase_8,123,9999,9999,9999,2268989496
6716,15,Jits_Phase_8,124,9999,9999,9999,2269789260
6716,15,Jits_Phase_8,125,9999,9999,9999,2270590056
6716,15,Jits_Phase_8,126,9999,9999,9999,2271389748
6716,15,Jits_Phase_8,127,9999,9999,9999,2272189512
6716,15,Jits_Phase_8,128,9999,9999,9999,2272989272
6716,15,Jits_Phase_8,129,9999,9999,9999,2273790020
6716,15,Jits_Phase_8,130,9999,9999,9999,2274589796
6716,15,Jits_Phase_8,131,9999,9999,9999,2275549304
6716,15,Jits_Phase_8,132,9999,9999,9999,2276350032
6716,15,Jits_Phase_8,133,9999,9999,9999,2277149796
6716,15,Jits_Phase_8,134,9999,9999,9999,2277949508
6716,15,Jits_Phase_8,135,9999,9999,9999,2278749252
6716,15,Jits_Phase_8,136,9999,9999,9999,2279550056
6716,15,Jits_Phase_8,137,9999,9999,9999,2280349756
6716,15,Jits_Phase_8,138,9999,9999,9999,2281149532
6716,15,Jits_Phase_8,139,9999,9999,9999,2281949288
6716,15,Jits_Phase_8,140,9999,9999,9999,2282750020
6716,15,Jits_Phase_8,141,9999,9999,9999,2283549776
6716,15,Jits_Phase_8,142,9999,9999,9999,2284349556
6716,15,Jits_Phase_8,143,9999,9999,9999,2285149236
6716,15,Jits_Phase_8,144,9999,9999,9999,2285950040
6716,15,Jits_Phase_8,145,9999,9999,9999,2286749800
6716,15,Jits_Phase_8,146,9999,9999,9999,2287549560
6716,15,Jits_Phase_8,147,9999,9999,9999,2288349240
6716,15,Jits_Phase_8,148,9999,9999,9999,2289150036
6716,15,Jits_Phase_8,149,9999,9999,9999,2289949788
6716,15,Jits_Phase_8,150,9999,9999,9999,2290589752
6716,15,Jits_Phase_8,151,9999,9999,9999,2291389524
6716,15,Jits_Phase_8,152,9999,9999,9999,2292189300
6716,15,Jits_Phase_8,153,9999,9999,9999,2292990036
6716,15,Jits_Phase_8,154,9999,9999,9999,2293789788
6716,15,Jits_Phase_8,155,9999,9999,9999,2294589560
6716,15,Jits_Phase_8,156,9999,9999,9999,2295389244
6716,15,Jits_Phase_8,157,9999,9999,9999,2296190044
6716,15,Jits_Phase_8,158,9999,9999,9999,2296989808
6716,15,Jits_Phase_8,159,9999,9999,9999,2297789564
6716,15,Jits_Phase_8,160,9999,9999,9999,2298589268
6716,15,Jits_Phase_8,161,9999,9999,9999,2299390072
6716,15,Jits_Phase_8,162,9999,9999,9999,2300189760
6716,15,Jits_Phase_8,163,9999,9999,9999,2300989544
6716,15,Jits_Phase_8,164,9999,9999,9999,2301789300
6716,15,Jits_Phase_8,165,9999,9999,9999,2302590032
6716,15,Jits_Phase_8,166,9999,9999,9999,2303389792
6716,15,Jits_Phase_8,167,9999,9999,9999,2304189552
6716,15,Jits_Phase_8,168,9999,9999,9999,2304989256
6716,15,Jits_Phase_8,169,9999,9999,9999,2305790072
6717,17,Jits_Phase_5,0,5,56,103,2314313072
6717,17,Jits_Phase_5,1,5,63,98,2314316168
6717,17,Jits_Phase_5,2,5,80,127,2314319144
6717,17,Jits_Phase_5,0,5,56,103,2314812856
6717,17,Jits_Phase_5,1,5,63,98,2314815876
6717,17,Jits_Phase_5,2,5,80,127,2314818928
6717,17,Jits_Phase_5,3,1,48,33,2315007452
6717,17,Jits_Phase_5,0,5,56,103,2315312756
6717,17,Jits_Phase_5,1,5,80,127,2315322956
6717,17,Jits_Phase_5,2,5,63,98,2315343336
6717,17,Jits_Phase_5,3,1,48,42,2315435080
6717,17,Jits_Phase_5,0,5,63,98,2315762972
6717,17,Jits_Phase_5,1,5,80,127,2315792872
6717,17,Jits_Phase_5,2,5,56,103,2315802992
6717,17,Jits_Phase_5,3,1,48,50,2315897520
6717,17,Jits_Phase_5,0,5,80,127,2316323328
6717,17,Jits_Phase_5,1,5,56,103,2316333376
6717,17,Jits_Phase_5,2,5,63,98,2316363076
6717,17,Jits_Phase_5,3,1,48,47,2316377804
6717,17,Jits_Phase_5,0,5,63,98,2316812760
6717,17,Jits_Phase_5,1,5,56,103,2316843336
6717,17,Jits_Phase_5,2,5,80,127,2316852584
6717,17,Jits_Phase_5,3,1,48,46,2316858916
6717,17,Jits_Phase_5,0,5,56,103,2317263144
6717,17,Jits_Phase_5,1,5,63,98,2317313268
6717,17,Jits_Phase_5,2,5,80,127,2317333052
6717,17,Jits_Phase_5,3,1,48,47,2317353404
6717,17,Jits_Phase_5,0,5,80,127,2317763128
6717,17,Jits_Phase_5,1,1,48,50,2317786920
6717,17,Jits_Phase_5,2,5,63,98,2317813248
6717,17,Jits_Phase_5,3,5,56,103,2317853184
6717,17,Jits_Phase_5,0,5,56,103,2318262740
6717,17,Jits_Phase_5,1,5,63,98,2318293464
6717,17,Jits_Phase_5,2,1,48,48,2318324756
6717,17,Jits_Phase_5,3,5,80,127,2318362912
6717,17,Jits_Phase_5,0,5,56,103,2318763404
6717,17,Jits_Phase_5,1,1,48,41,2318779328
6717,17,Jits_Phase_5,2,5,80,127,2318822816
6717,17,Jits_Phase_5,3,5,63,98,2318852492
6717,17,Jits_Phase_5,0,5,56,103,2319273284
6717,17,Jits_Phase_5,1,5,63,98,2319282508
6717,17,Jits_Phase_5,2,1,48,45,2319289816
6717,17,Jits_Phase_5,3,5,80,127,2319322364
6717,17,Jits_Phase_5,0,5,63,98,2319762784
6717,17,Jits_Phase_5,1,1,48,43,2319780056
6717,17,Jits_Phase_5,2,5,80,127,2319842868
6717,17,Jits_Phase_5,3,5,56,103,2319852988
6717,17,Jits_Phase_5,0,1,48,48,2320305580
6717,17,Jits_Phase_5,1,5,63,98,2320312800
6717,17,Jits_Phase_5,2,5,56,103,2320352588
6717,17,Jits_Phase_5,3,5,80,127,2320355948
6717,17,Jits_Phase_5,0,5,56,103,2320772540
6717,17,Jits_Phase_5,1,5,63,98,2320783184
6717,17,Jits_Phase_5,2,1,48,40,2320822824
6717,17,Jits_Phase_5,3,5,80,127,2320824012
6717,17,Jits_Phase_5,0,5,56,103,2321262936
6717,17,Jits_Phase_5,1,5,63,98,2321266000
6717,17,Jits_Phase_5,2,1,48,42,2321268900
6717,17,Jits_Phase_5,3,5,80,127,2321282416
6717,17,Jits_Phase_5,0,5,80,127,2321772948
6717,17,Jits_Phase_5,1,1,48,45,2321777632
6717,17,Jits_Phase_5,2,5,56,103,2321783360
6717,17,Jits_Phase_5,3,5,63,98,2321852964
6717,17,Jits_Phase_5,0,5,63,98,2322263348
6717,17,Jits_Phase_5,1,5,56,103,2322283128
6717,17,Jits_Phase_5,2,1,48,43,2322305280
6717,17,Jits_Phase_5,3,5,80,127,2322362840
6717,17,Jits_Phase_5,0,1,48,40,2322747100
6717,17,Jits_Phase_5,1,5,56,103,2322773280
6717,17,Jits_Phase_5,2,5,80,127,2322813292
6717,17,Jits_Phase_5,3,5,63,98,2322822368
6717,17,Jits_Phase_5,0,1,48,47,2323252256
6717,17,Jits_Phase_5,1,5,80,127,2323262840
6717,17,Jits_Phase_5,2,5,63,98,2323292588
6717,17,Jits_Phase_5,3,5,56,103,2323332600
6717,17,Jits_Phase_5,0,1,48,47,2323774992
6717,17,Jits_Phase_5,1,5,56,103,2323782964
6717,17,Jits_Phase_5,2,5,63,98,2323812864
6717,17,Jits_Phase_5,3,5,80,127,2323862988
6717,17,Jits_Phase_5,0,1,48,44,2324265432
6717,17,Jits_Phase_5,1,5,80,127,2324282940
6717,17,Jits_Phase_5,2,5,56,103,2324322804
6717,17,Jits_Phase_5,3,5,63,98,2324332852
6717,17,Jits_Phase_5,0,5,80,127,2324762892
6717,17,Jits_Phase_5,1,1,48,38,2324775004
6717,17,Jits_Phase_5,2,5,63,98,2324803072
6717,17,Jits_Phase_5,3,5,56,103,2324863312
6717,17,Jits_Phase_5,0,5,56,103,2325262880
6717,17,Jits_Phase_5,1,5,80,127,2325272852
6717,17,Jits_Phase_5,2,1,48,43,2325318920
6717,17,Jits_Phase_5,3,5,63,98,2325352960
6717,17,Jits_Phase_5,0,1,48,45,2325741640
6717,17,Jits_Phase_5,1,5,80,127,2325762412
6717,17,Jits_Phase_5,2,5,63,98,2325822828
6717,17,Jits_Phase_5,3,5,56,103,2325852488
6717,17,Jits_Phase_5,0,1,48,43,2326243924
6717,17,Jits_Phase_5,1,5,56,103,2326263056
6717,17,Jits_Phase_5,2,5,80,127,2326322648
6717,17,Jits_Phase_5,3,5,63,98,2326362496
6717,17,Jits_Phase_5,0,1,48,43,2326762712
6717,17,Jits_Phase_5,1,5,56,103,2326813004
6717,17,Jits_Phase_5,2,5,63,98,2326823420
6717,17,Jits_Phase_5,3,5,80,127,2326826860
6717,17,Jits_Phase_5,0,5,80,127,2327262704
6717,17,Jits_Phase_5,1,1,48,37,2327275484
6717,17,Jits_Phase_5,2,5,63,98,2327352852
6717,17,Jits_Phase_5,3,5,56,103,2327363048
6717,17,Jits_Phase_5,0,5,56,103,2327763804
6717,17,Jits_Phase_5,1,5,63,98,2327766752
6717,17,Jits_Phase_5,2,5,80,127,2327769872
6717,17,Jits_Phase_5,3,1,48,42,2327775552
6717,17,Jits_Phase_5,0,1,48,41,2328279700
6717,17,Jits_Phase_5,1,5,80,127,2328282432
6717,17,Jits_Phase_5,2,5,63,98,2328332780
6717,17,Jits_Phase_5,3,5,56,103,2328363352
6717,17,Jits_Phase_5,0,5,56,103,2328762784
6717,17,Jits_Phase_5,1,5,80,127,2328772908
6717,17,Jits_Phase_5,2,1,48,43,2328798868
6717,17,Jits_Phase_5,3,5,63,98,2328842724
6717,17,Jits_Phase_5,0,5,56,103,2329272812
6717,17,Jits_Phase_5,1,1,48,41,2329285820
6717,17,Jits_Phase_5,2,5,63,98,2329293116
6717,17,Jits_Phase_5,3,5,80,127,2329352900
6717,17,Jits_Phase_5,0,5,80,127,2329752800
6717,17,Jits_Phase_5,1,1,48,42,2329775020
6717,17,Jits_Phase_5,2,5,63,98,2329822696
6717,17,Jits_Phase_5,3,5,56,103,2329843084
6717,17,Jits_Phase_5,0,1,48,45,2330256124
6717,17,Jits_Phase_5,1,5,80,127,2330273088
6717,17,Jits_Phase_5,2,5,56,103,2330283284
6717,17,Jits_Phase_5,3,5,63,98,2330292880
6717,17,Jits_Phase_5,0,1,48,37,2330749352
6717,17,Jits_Phase_5,1,5,80,127,2330762720
6717,17,Jits_Phase_5,2,5,56,103,2330783104
6717,17,Jits_Phase_5,3,5,63,98,2330853140
6717,17,Jits_Phase_5,0,1,48,38,2331250072
6717,17,Jits_Phase_5,1,5,56,103,2331282848
6717,17,Jits_Phase_5,2,5,80,127,2331312748
6717,17,Jits_Phase_5,3,5,63,98,2331332908
6717,17,Jits_Phase_5,0,1,48,36,2331743012
6717,17,Jits_Phase_5,1,5,63,98,2331773308
6717,17,Jits_Phase_5,2,5,56,103,2331832652
6717,17,Jits_Phase_5,3,5,80,127,2331863504
6717,17,Jits_Phase_5,0,5,63,98,2332262728
6717,17,Jits_Phase_5,1,5,80,127,2332266016
6717,17,Jits_Phase_5,2,1,48,39,2332273192
6717,17,Jits_Phase_5,3,5,56,103,2332352996
6717,17,Jits_Phase_5,0,1,48,39,2332761760
6717,17,Jits_Phase_5,1,5,56,103,2332782912
6717,17,Jits_Phase_5,2,5,63,98,2332812808
6717,17,Jits_Phase_5,3,5,80,127,2332852520
6717,17,Jits_Phase_5,0,1,48,34,2333260152
6717,17,Jits_Phase_5,1,5,63,98,2333282812
6717,17,Jits_Phase_5,2,5,56,103,2333322748
6717,17,Jits_Phase_5,3,5,80,127,2333343056
6717,17,Jits_Phase_5,0,1,48,42,2333725340
6717,17,Jits_Phase_5,1,5,63,98,2333792824
6717,17,Jits_Phase_5,2,5,56,103,2333832672
6717,17,Jits_Phase_5,3,5,80,127,2333843016
6717,17,Jits_Phase_5,0,1,48,41,2334254988
6717,17,Jits_Phase_5,1,5,80,127,2334272996
6717,17,Jits_Phase_5,2,5,63,98,2334342528
6717,17,Jits_Phase_5,3,5,56,103,2334363048
6717,17,Jits_Phase_5,0,1,48,40,2334758312
6717,17,Jits_Phase_5,1,5,56,103,2334763364
6717,17,Jits_Phase_5,2,5,80,127,2334782800
6717,17,Jits_Phase_5,3,5,63,98,2334822812
6717,17,Jits_Phase_5,0,1,48,43,2335228612
6717,17,Jits_Phase_5,1,5,63,98,2335273300
6717,17,Jits_Phase_5,2,5,80,127,2335292812
6717,17,Jits_Phase_5,3,5,56,103,2335332656
6717,17,Jits_Phase_5,0,1,48,44,2335729112
6717,17,Jits_Phase_5,1,5,63,98,2335773196
6717,17,Jits_Phase_5,2,5,56,103,2335792484
6717,17,Jits_Phase_5,3,5,80,127,2335802980
6717,17,Jits_Phase_5,0,1,48,46,2336203468
6717,17,Jits_Phase_5,1,5,80,127,2336272720
6717,17,Jits_Phase_5,2,5,56,103,2336293180
6717,17,Jits_Phase_5,3,5,63,98,2336322940
6717,17,Jits_Phase_5,0,1,48,52,2336716768
6717,17,Jits_Phase_5,1,5,56,103,2336842972
6717,17,Jits_Phase_5,2,5,80,127,2336846264
6717,17,Jits_Phase_5,3,5,63,98,2336862836
6717,17,Jits_Phase_5,0,1,48,43,2337212476
6717,17,Jits_Phase_5,1,5,63,98,2337262996
6717,17,Jits_Phase_5,2,5,56,103,2337292596
6717,17,Jits_Phase_5,3,5,80,127,2337353064
6717,17,Jits_Phase_5,0,1,48,38,2337704800
6717,17,Jits_Phase_5,1,5,63,98,2337842620
6717,17,Jits_Phase_5,2,5,56,103,2337852668
6717,17,Jits_Phase_5,3,5,80,127,2337863160
6717,17,Jits_Phase_5,0,1,48,43,2338220376
6717,17,Jits_Phase_5,1,5,56,103,2338303476
6717,17,Jits_Phase_5,2,5,80,127,2338332988
6717,17,Jits_Phase_5,3,5,63,98,2338343260
6717,17,Jits_Phase_5,0,1,48,35,2338774660
6717,17,Jits_Phase_5,1,5,63,98,2338843016
6717,17,Jits_Phase_5,2,5,56,103,2338853140
6717,17,Jits_Phase_5,3,5,80,127,2338872856
6717,17,Jits_Phase_5,0,5,56,103,2339273104
6717,17,Jits_Phase_5,1,1,48,41,2339315552
6717,17,Jits_Phase_5,2,5,63,98,2339332660
6717,17,Jits_Phase_5,3,5,80,127,2339335952
6717,17,Jits_Phase_5,0,5,80,127,2339793464
6717,17,Jits_Phase_5,1,5,56,103,2339802760
6717,17,Jits_Phase_5,2,1,48,39,2339819356
6717,17,Jits_Phase_5,3,5,63,98,2339873400
6717,17,Jits_Phase_5,0,5,80,127,2340282668
6717,17,Jits_Phase_5,1,1,48,36,2340332240
6717,17,Jits_Phase_5,2,5,56,103,2340353536
6717,17,Jits_Phase_5,3,5,63,98,2340362684
6717,17,Jits_Phase_5,0,5,63,98,2340823336
6717,17,Jits_Phase_5,1,5,56,103,2340832636
6717,17,Jits_Phase_5,2,1,48,42,2340842200
6717,17,Jits_Phase_5,3,5,80,127,2340853308
6717,17,Jits_Phase_5,0,5,80,127,2341272896
6717,17,Jits_Phase_5,1,1,48,41,2341330468
6717,17,Jits_Phase_5,2,5,63,98,2341333576
6717,17,Jits_Phase_5,3,5,56,103,2341373436
6717,17,Jits_Phase_5,0,1,48,37,2341810548
6717,17,Jits_Phase_5,1,5,56,103,2341812664
6717,17,Jits_Phase_5,2,5,63,98,2341822708
6717,17,Jits_Phase_5,3,5,80,127,2341862644
6717,17,Jits_Phase_5,0,5,56,103,2342273684
6717,17,Jits_Phase_5,1,5,80,127,2342303060
6717,17,Jits_Phase_5,2,1,48,42,2342314272
6717,17,Jits_Phase_5,3,5,63,98,2342353176
6717,17,Jits_Phase_5,0,1,48,36,2342823568
6717,17,Jits_Phase_5,1,5,56,103,2342824832
6717,17,Jits_Phase_5,2,5,63,98,2342863348
6717,17,Jits_Phase_5,3,5,80,127,2342866712
6717,17,Jits_Phase_5,0,5,56,103,2343322940
6717,17,Jits_Phase_5,1,1,48,35,2343328376
6717,17,Jits_Phase_5,2,5,63,98,2343333276
6717,17,Jits_Phase_5,3,5,80,127,2343352616
6717,17,Jits_Phase_5,0,5,56,103,2343782844
6717,17,Jits_Phase_5,1,5,80,127,2343785760
6717,17,Jits_Phase_5,2,5,63,98,2343822780
6717,17,Jits_Phase_5,3,1,48,37,2343832948
6717,17,Jits_Phase_5,0,1,48,35,2344303244
6717,17,Jits_Phase_5,1,5,63,98,2344322968
6717,17,Jits_Phase_5,2,5,56,103,2344353096
6717,17,Jits_Phase_5,3,5,80,127,2344372804
6717,17,Jits_Phase_5,0,5,80,127,2344792392
6717,17,Jits_Phase_5,1,5,56,103,2344802660
6717,17,Jits_Phase_5,2,5,63,98,2344812932
6717,17,Jits_Phase_5,3,1,48,34,2344861600
6717,17,Jits_Phase_5,0,1,48,36,2345251048
6717,17,Jits_Phase_5,1,5,56,103,2345293120
6717,17,Jits_Phase_5,2,5,80,127,2345333132
6717,17,Jits_Phase_5,3,5,63,98,2345362792
6717,17,Jits_Phase_5,0,5,63,98,2345803144
6717,17,Jits_Phase_5,1,1,48,37,2345806112
6717,17,Jits_Phase_5,2,5,80,127,2345813332
6717,17,Jits_Phase_5,3,5,56,103,2345822704
6717,17,Jits_Phase_5,0,1,48,39,2346258776
6717,17,Jits_Phase_5,1,5,56,103,2346292544
6717,17,Jits_Phase_5,2,5,63,98,2346363108
6717,17,Jits_Phase_5,3,5,80,127,2346372556
6717,17,Jits_Phase_5,0,1,48,36,2346796808
6717,17,Jits_Phase_5,1,5,80,127,2346802708
6717,17,Jits_Phase_5,2,5,56,103,2346812904
6717,17,Jits_Phase_5,3,5,63,98,2346862952
6717,17,Jits_Phase_5,0,1,48,35,2347274460
6717,17,Jits_Phase_5,1,5,80,127,2347312640
6717,17,Jits_Phase_5,2,5,56,103,2347372940
6717,17,Jits_Phase_5,3,5,63,98,2347402468
6717,17,Jits_Phase_5,0,1,48,34,2347808364
6717,17,Jits_Phase_5,1,5,56,103,2347813412
6717,17,Jits_Phase_5,2,5,80,127,2347816404
6717,17,Jits_Phase_5,3,5,63,98,2347853452
6717,17,Jits_Phase_5,0,1,48,36,2348306308
6717,17,Jits_Phase_5,1,5,56,103,2348342852
6717,17,Jits_Phase_5,2,5,63,98,2348373348
6717,17,Jits_Phase_5,3,5,80,127,2348382796
6717,17,Jits_Phase_5,0,1,48,30,2348838724
6717,17,Jits_Phase_5,1,5,63,98,2348852716
6717,17,Jits_Phase_5,2,5,80,127,2348862912
6717,17,Jits_Phase_5,3,5,56,103,2348872960
6717,17,Jits_Phase_5,0,5,80,127,2349303368
6717,17,Jits_Phase_5,1,1,48,32,2349326492
6717,17,Jits_Phase_5,2,5,56,103,2349353716
6717,17,Jits_Phase_5,3,5,63,98,2349356552
6717,17,Jits_Phase_5,0,1,48,35,2349799236
6717,17,Jits_Phase_5,1,5,56,103,2349832684
6717,17,Jits_Phase_5,2,5,80,127,2349853068
6717,17,Jits_Phase_5,3,5,63,98,2349863488
6717,17,Jits_Phase_5,0,1,48,32,2350305208
6717,17,Jits_Phase_5,1,5,63,98,2350312732
6717,17,Jits_Phase_5,2,5,56,103,2350342704
6717,17,Jits_Phase_5,3,5,80,127,2350363012
6717,17,Jits_Phase_5,0,1,48,33,2350774468
6717,17,Jits_Phase_5,1,5,56,103,2350822744
6717,17,Jits_Phase_5,2,5,80,127,2350832864
6717,17,Jits_Phase_5,3,5,63,98,2350902776
6717,17,Jits_Phase_5,0,1,48,41,2351274740
6717,17,Jits_Phase_5,1,5,63,98,2351313204
6717,17,Jits_Phase_5,2,5,80,127,2351353064
6717,17,Jits_Phase_5,3,5,56,103,2351393064
6717,17,Jits_Phase_5,0,1,48,34,2351799204
6717,17,Jits_Phase_5,1,5,56,103,2351823140
6717,17,Jits_Phase_5,2,5,63,98,2351832588
6717,17,Jits_Phase_5,3,5,80,127,2351852896
6717,17,Jits_Phase_5,0,1,48,35,2352273044
6717,17,Jits_Phase_5,1,5,63,98,2352362824
6717,17,Jits_Phase_5,2,5,80,127,2352383340
6717,17,Jits_Phase_5,3,5,56,103,2352402756
6717,17,Jits_Phase_5,0,1,48,34,2352800432
6717,17,Jits_Phase_5,1,5,56,103,2352803164
6717,17,Jits_Phase_5,2,5,80,127,2352883108
6717,17,Jits_Phase_5,3,5,63,98,2352893440
6717,17,Jits_Phase_5,0,1,48,31,2353308500
6717,17,Jits_Phase_5,1,5,80,127,2353342924
6717,17,Jits_Phase_5,2,5,63,98,2353353196
6717,17,Jits_Phase_5,3,5,56,103,2353382868
6717,17,Jits_Phase_5,0,5,63,98,2353802528
6717,17,Jits_Phase_5,1,1,48,32,2353824748
6717,17,Jits_Phase_5,2,5,80,127,2353842532
6717,17,Jits_Phase_5,3,5,56,103,2353903068
6717,17,Jits_Phase_5,0,1,48,31,2354307928
6717,17,Jits_Phase_5,1,5,63,98,2354312684
6717,17,Jits_Phase_5,2,5,56,103,2354362660
6717,17,Jits_Phase_5,3,5,80,127,2354392632
6717,17,Jits_Phase_5,0,1,48,29,2354807456
6717,17,Jits_Phase_5,1,5,80,127,2354813408
6717,17,Jits_Phase_5,2,5,63,98,2354822556
6717,17,Jits_Phase_5,3,5,56,103,2354893352
6717,17,Jits_Phase_5,0,1,48,41,2355303548
6717,17,Jits_Phase_5,1,5,80,127,2355373544
6717,17,Jits_Phase_5,2,5,56,103,2355382692
6717,17,Jits_Phase_5,3,5,63,98,2355385756
6717,17,Jits_Phase_5,0,5,56,103,2355812764
6717,17,Jits_Phase_5,1,1,48,36,2355815880
6717,17,Jits_Phase_5,2,5,80,127,2355833288
6717,17,Jits_Phase_5,3,5,63,98,2355842660
6717,17,Jits_Phase_5,0,1,48,34,2356303884
6717,17,Jits_Phase_5,1,5,63,98,2356322712
6717,17,Jits_Phase_5,2,5,56,103,2356362648
6717,17,Jits_Phase_5,3,5,80,127,2356383104
6717,17,Jits_Phase_5,0,1,48,36,2356795764
6717,17,Jits_Phase_5,1,5,63,98,2356823360
6717,17,Jits_Phase_5,2,5,56,103,2356882776
6717,17,Jits_Phase_5,3,5,80,127,2356885768
6717,17,Jits_Phase_5,0,5,56,103,2357283304
6717,17,Jits_Phase_5,1,5,80,127,2357302520
6717,17,Jits_Phase_5,2,1,48,34,2357303484
6717,17,Jits_Phase_5,3,5,63,98,2357342524
6717,17,Jits_Phase_5,0,1,48,35,2357798016
6717,17,Jits_Phase_5,1,5,56,103,2357812604
6717,17,Jits_Phase_5,2,5,63,98,2357833064
6717,17,Jits_Phase_5,3,5,80,127,2357843408
6717,17,Jits_Phase_5,0,1,48,38,2358273348
6717,17,Jits_Phase_5,1,5,80,127,2358282588
6717,17,Jits_Phase_5,2,5,56,103,2358313532
6717,17,Jits_Phase_5,3,5,63,98,2358353344
6717,17,Jits_Phase_5,0,1,48,37,2358783804
6717,17,Jits_Phase_5,1,5,80,127,2358792524
6717,17,Jits_Phase_5,2,5,56,103,2358812984
6717,17,Jits_Phase_5,3,5,63,98,2358872572
6717,17,Jits_Phase_5,0,1,48,34,2359289164
6717,17,Jits_Phase_5,1,5,56,103,2359302456
6717,17,Jits_Phase_5,2,5,80,127,2359322988
6717,17,Jits_Phase_5,3,5,63,98,2359383476
6717,17,Jits_Phase_5,0,5,80,127,2359782884
6717,17,Jits_Phase_5,1,5,56,103,2359792932
6717,17,Jits_Phase_5,2,1,48,34,2359816356
6717,17,Jits_Phase_5,3,5,63,98,2359832864
6717,17,Jits_Phase_5,0,5,63,98,2360282572
6717,17,Jits_Phase_5,1,1,48,31,2360296480
6717,17,Jits_Phase_5,2,5,56,103,2360322352
6717,17,Jits_Phase_5,3,5,80,127,2360325344
6717,17,Jits_Phase_5,0,5,63,98,2360802540
6717,17,Jits_Phase_5,1,1,48,28,2360817868
6717,17,Jits_Phase_5,2,5,80,127,2360842544
6717,17,Jits_Phase_5,3,5,56,103,2360873560
6717,17,Jits_Phase_5,0,1,48,24,2361282176
6717,17,Jits_Phase_5,1,5,56,103,2361293360
6717,17,Jits_Phase_5,2,5,63,98,2361303556
6717,17,Jits_Phase_5,3,5,80,127,2361333232
6717,17,Jits_Phase_5,0,1,48,35,2361755920
6717,17,Jits_Phase_5,1,5,80,127,2361782548
6717,17,Jits_Phase_5,2,5,63,98,2361853260
6717,17,Jits_Phase_5,3,5,56,103,2361862484
6717,17,Jits_Phase_5,0,1,48,32,2362281908
6717,17,Jits_Phase_5,1,5,63,98,2362283492
6717,17,Jits_Phase_5,2,5,56,103,2362352872
6717,17,Jits_Phase_5,3,5,80,127,2362363588
6717,17,Jits_Phase_5,0,5,63,98,2362762576
6717,17,Jits_Phase_5,1,5,56,103,2362783180
6717,17,Jits_Phase_5,2,1,48,28,2362805332
6717,17,Jits_Phase_5,3,5,80,127,2362823112
6717,17,Jits_Phase_5,0,5,56,103,2363242840
6717,17,Jits_Phase_5,1,1,48,36,2363250448
6717,17,Jits_Phase_5,2,5,63,98,2363253480
6717,17,Jits_Phase_5,3,5,80,127,2363333120
6717,17,Jits_Phase_5,0,5,63,98,2363733316
6717,17,Jits_Phase_5,1,1,48,36,2363758980
6717,17,Jits_Phase_5,2,5,56,103,2363763284
6717,17,Jits_Phase_5,3,5,80,127,2363803068
6717,17,Jits_Phase_5,0,5,56,103,2364233212
6717,17,Jits_Phase_5,1,1,48,36,2364238952
6717,17,Jits_Phase_5,2,5,63,98,2364273144
6717,17,Jits_Phase_5,3,5,80,127,2364313156
6717,17,Jits_Phase_5,0,1,48,29,2364728212
6717,17,Jits_Phase_5,1,5,80,127,2364732892
6717,17,Jits_Phase_5,2,5,56,103,2364812688
6717,17,Jits_Phase_5,3,5,63,98,2364823328
6717,17,Jits_Phase_5,0,1,48,36,2365243784
6717,17,Jits_Phase_5,1,5,56,103,2365272500
6717,17,Jits_Phase_5,2,5,63,98,2365275492
6717,17,Jits_Phase_5,3,5,80,127,2365282696
6717,17,Jits_Phase_5,0,1,48,35,2365732336
6717,17,Jits_Phase_5,1,5,56,103,2365792548
6717,17,Jits_Phase_5,2,5,63,98,2365813304
6717,17,Jits_Phase_5,3,5,80,127,2365823424
6717,17,Jits_Phase_5,0,1,48,32,2366237100
6717,17,Jits_Phase_5,1,5,63,98,2366253392
6717,17,Jits_Phase_5,2,5,80,127,2366262764
6717,17,Jits_Phase_5,3,5,56,103,2366283220
6717,17,Jits_Phase_5,0,1,48,38,2366718172
6717,17,Jits_Phase_5,1,5,63,98,2366753560
6717,17,Jits_Phase_5,2,5,56,103,2366833212
6717,17,Jits_Phase_5,3,5,80,127,2366836280
6717,17,Jits_Phase_5,0,5,63,98,2367252792
6717,17,Jits_Phase_5,1,1,48,36,2367260544
6717,17,Jits_Phase_5,2,5,56,103,2367273316
6717,17,Jits_Phase_5,3,5,80,127,2367303164
6717,17,Jits_Phase_5,0,1,48,38,2367751236
6717,17,Jits_Phase_5,1,5,56,103,2367762940
6717,17,Jits_Phase_5,2,5,63,98,2367783252
6717,17,Jits_Phase_5,3,5,80,127,2367792424
6717,17,Jits_Phase_5,0,1,48,32,2368263708
6717,17,Jits_Phase_5,1,5,56,103,2368293324
6717,17,Jits_Phase_5,2,5,63,98,2368322948
6717,17,Jits_Phase_5,3,5,80,127,2368326384
6717,17,Jits_Phase_5,0,5,56,103,2368742804
6717,17,Jits_Phase_5,1,1,48,30,2368764132
6717,17,Jits_Phase_5,2,5,63,98,2368782664
6717,17,Jits_Phase_5,3,5,80,127,2368843148
6717,17,Jits_Phase_5,0,1,48,36,2369234664
6717,17,Jits_Phase_5,1,5,56,103,2369262940
6717,17,Jits_Phase_5,2,5,63,98,2369273136
6717,17,Jits_Phase_5,3,5,80,127,2369332632
6717,17,Jits_Phase_5,0,1,48,32,2369738380
6717,17,Jits_Phase_5,1,5,56,103,2369762540
6717,17,Jits_Phase_5,2,5,80,127,2369783292
6717,17,Jits_Phase_5,3,5,63,98,2369812744
6717,17,Jits_Phase_5,0,1,48,40,2370235660
6717,17,Jits_Phase_5,1,5,80,127,2370263408
6717,17,Jits_Phase_5,2,5,56,103,2370272556
6717,17,Jits_Phase_5,3,5,63,98,2370293088
6717,17,Jits_Phase_5,0,5,63,98,2370752900
6717,17,Jits_Phase_5,1,1,48,34,2370754912
6717,17,Jits_Phase_5,2,5,80,127,2370832688
6717,17,Jits_Phase_5,3,5,56,103,2370843104
6717,17,Jits_Phase_5,0,1,48,30,2371281320
6717,17,Jits_Phase_5,1,5,80,127,2371342848
6717,17,Jits_Phase_5,2,5,56,103,2371363156
6717,17,Jits_Phase_5,3,5,63,98,2371366220
6717,17,Jits_Phase_5,0,5,63,98,2371833376
6717,17,Jits_Phase_5,1,5,80,127,2371836668
6717,17,Jits_Phase_5,2,1,48,32,2371864144
6717,17,Jits_Phase_5,3,5,56,103,2371892588
6717,17,Jits_Phase_5,0,5,56,103,2372312300
6717,17,Jits_Phase_5,1,5,80,127,2372322644
6717,17,Jits_Phase_5,2,5,63,98,2372362508
6717,17,Jits_Phase_5,3,1,48,32,2372386224
6717,17,Jits_Phase_5,0,5,56,103,2372792660
6717,17,Jits_Phase_5,1,5,63,98,2372853196
6717,17,Jits_Phase_5,2,5,80,127,2372863320
6717,17,Jits_Phase_5,3,1,48,27,2372871540
6717,17,Jits_Phase_5,0,5,63,98,2373302612
6717,17,Jits_Phase_5,1,1,48,31,2373320036
6717,17,Jits_Phase_5,2,5,80,127,2373342544
6717,17,Jits_Phase_5,3,5,56,103,2373382480
6717,17,Jits_Phase_5,0,5,56,103,2373803336
6717,17,Jits_Phase_5,1,1,48,31,2373868032
6717,17,Jits_Phase_5,2,5,63,98,2373883492
6717,17,Jits_Phase_5,3,5,80,127,2373886560
6717,17,Jits_Phase_5,0,1,48,29,2374362508
6717,17,Jits_Phase_5,1,5,80,127,2374363768
6717,17,Jits_Phase_5,2,5,56,103,2374393368
6717,17,Jits_Phase_5,3,5,63,98,2374396284
6717,17,Jits_Phase_5,0,5,56,103,2374823220
6717,17,Jits_Phase_5,1,5,80,127,2374842708
6717,17,Jits_Phase_5,2,5,63,98,2374882644
6717,17,Jits_Phase_5,3,1,48,31,2374909132
6717,17,Jits_Phase_5,0,5,80,127,2375302608
6717,17,Jits_Phase_5,1,5,63,98,2375323140
6717,17,Jits_Phase_5,2,1,48,29,2375326860
6717,17,Jits_Phase_5,3,5,56,103,2375383372
6717,17,Jits_Phase_5,0,5,63,98,2375812484
6717,17,Jits_Phase_5,1,5,56,103,2375823052
6717,17,Jits_Phase_5,2,1,48,32,2375865876
6717,17,Jits_Phase_5,3,5,80,127,2375873096
6717,17,Jits_Phase_5,0,5,56,103,2376302940
6717,17,Jits_Phase_5,1,5,63,98,2376322352
6717,17,Jits_Phase_5,2,5,80,127,2376332772
6717,17,Jits_Phase_5,3,1,48,27,2376362192
6717,17,Jits_Phase_5,0,5,56,103,2376792436
6717,17,Jits_Phase_5,1,5,63,98,2376795576
6717,17,Jits_Phase_5,2,1,48,26,2376802076
6717,17,Jits_Phase_5,3,5,80,127,2376813036
6717,17,Jits_Phase_5,0,1,48,31,2377298516
6717,17,Jits_Phase_5,1,5,63,98,2377333308
6717,17,Jits_Phase_5,2,5,56,103,2377362912
6717,17,Jits_Phase_5,3,5,80,127,2377392360
6717,17,Jits_Phase_5,0,5,80,127,2377793060
6717,17,Jits_Phase_5,1,1,48,29,2377849068
6717,17,Jits_Phase_5,2,5,56,103,2377883184
6717,17,Jits_Phase_5,3,5,63,98,2377886176
6717,17,Jits_Phase_5,0,5,56,103,2378292592
6717,17,Jits_Phase_5,1,5,80,127,2378295580
6717,17,Jits_Phase_5,2,1,48,27,2378350384
6717,17,Jits_Phase_5,3,5,63,98,2378372448
6717,17,Jits_Phase_5,0,5,80,127,2378793216
6717,17,Jits_Phase_5,1,1,48,30,2378839064
6717,17,Jits_Phase_5,2,5,63,98,2378852652
6717,17,Jits_Phase_5,3,5,56,103,2378882328
6717,17,Jits_Phase_5,0,5,63,98,2379293132
6717,17,Jits_Phase_5,1,5,80,127,2379303400
6717,17,Jits_Phase_5,2,5,56,103,2379373100
6717,17,Jits_Phase_5,3,1,48,27,2379382520
6717,17,Jits_Phase_5,0,1,48,21,2379853064
6717,17,Jits_Phase_5,1,5,56,103,2379854476
6717,17,Jits_Phase_5,2,5,80,127,2379882808
6717,17,Jits_Phase_5,3,5,63,98,2379933156
6717,17,Jits_Phase_5,0,1,48,25,2380383572
6717,17,Jits_Phase_5,1,5,63,98,2380443080
6717,17,Jits_Phase_5,2,5,56,103,2380472600
6717,17,Jits_Phase_5,3,5,80,127,2380475744
6717,17,Jits_Phase_5,0,1,48,29,2380939572
6717,17,Jits_Phase_5,1,5,63,98,2380942676
6717,17,Jits_Phase_5,2,5,80,127,2380963356
6717,17,Jits_Phase_5,3,5,56,103,2380973332
6717,17,Jits_Phase_5,0,5,56,103,2381452624
6717,17,Jits_Phase_5,1,5,63,98,2381455836
6717,17,Jits_Phase_5,2,1,48,22,2381472932
6717,17,Jits_Phase_5,3,5,80,127,2381474416
6717,17,Jits_Phase_5,0,5,56,103,2381903156
6717,17,Jits_Phase_5,1,5,63,98,2381912308
6717,17,Jits_Phase_5,2,5,80,127,2381943104
6717,17,Jits_Phase_5,3,1,48,31,2381977452
6717,17,Jits_Phase_5,0,1,48,28,2382400180
6717,17,Jits_Phase_5,1,5,63,98,2382423292
6717,17,Jits_Phase_5,2,5,80,127,2382443076
6717,17,Jits_Phase_5,3,5,56,103,2382483012
6717,17,Jits_Phase_5,0,1,48,31,2382947960
6717,17,Jits_Phase_5,1,5,56,103,2382952860
6717,17,Jits_Phase_5,2,5,63,98,2382992796
6717,17,Jits_Phase_5,3,5,80,127,2382996160
6717,17,Jits_Phase_5,0,5,80,127,2383393252
6717,17,Jits_Phase_5,1,5,56,103,2383433216
6717,17,Jits_Phase_5,2,1,48,30,2383449064
6717,17,Jits_Phase_5,3,5,63,98,2383483184
6717,17,Jits_Phase_5,0,1,48,30,2383950164
6717,17,Jits_Phase_5,1,5,56,103,2383953196
6717,17,Jits_Phase_5,2,5,80,127,2383962496
6717,17,Jits_Phase_5,3,5,63,98,2383993216
6717,17,Jits_Phase_5,0,5,56,103,2384402664
6717,17,Jits_Phase_5,1,5,80,127,2384442624
6717,17,Jits_Phase_5,2,1,48,27,2384445292
6717,17,Jits_Phase_5,3,5,63,98,2384493040
6717,17,Jits_Phase_5,0,5,56,103,2384902576
6717,17,Jits_Phase_5,1,1,48,28,2384905324
6717,17,Jits_Phase_5,2,5,80,127,2384942456
6717,17,Jits_Phase_5,3,5,63,98,2384992732
6717,17,Jits_Phase_5,0,5,80,127,2385393044
6717,17,Jits_Phase_5,1,1,48,30,2385423284
6717,17,Jits_Phase_5,2,5,63,98,2385473152
6717,17,Jits_Phase_5,3,5,56,103,2385483124
6717,17,Jits_Phase_5,0,1,48,29,2385911660
6717,17,Jits_Phase_5,1,5,80,127,2385942996
6717,17,Jits_Phase_5,2,5,56,103,2385953044
6717,17,Jits_Phase_5,3,5,63,98,2385972556
6717,17,Jits_Phase_5,0,5,63,98,2386413312
6717,17,Jits_Phase_5,1,1,48,27,2386434040
6717,17,Jits_Phase_5,2,5,56,103,2386482560
6717,17,Jits_Phase_5,3,5,80,127,2386485552
6717,17,Jits_Phase_5,0,1,48,28,2386901648
6717,17,Jits_Phase_5,1,5,80,127,2386903460
6717,17,Jits_Phase_5,2,5,63,98,2386952540
6717,17,Jits_Phase_5,3,5,56,103,2386992500
6717,17,Jits_Phase_5,0,1,48,26,2387407524
6717,17,Jits_Phase_5,1,5,63,98,2387442996
6717,17,Jits_Phase_5,2,5,56,103,2387483156
6717,17,Jits_Phase_5,3,5,80,127,2387493352
6717,17,Jits_Phase_5,0,1,48,25,2387906084
6717,17,Jits_Phase_5,1,5,63,98,2387932560
6717,17,Jits_Phase_5,2,5,56,103,2387952944
6717,17,Jits_Phase_5,3,5,80,127,2387972432
6717,17,Jits_Phase_5,0,1,48,28,2388385836
6717,17,Jits_Phase_5,1,5,80,127,2388393280
6717,17,Jits_Phase_5,2,5,56,103,2388402504
6717,17,Jits_Phase_5,3,5,63,98,2388423256
6717,17,Jits_Phase_5,0,1,48,34,2388859572
6717,17,Jits_Phase_5,1,5,63,98,2388922992
6717,17,Jits_Phase_5,2,5,56,103,2388962768
6717,17,Jits_Phase_5,3,5,80,127,2388993264
6717,17,Jits_Phase_5,0,1,48,32,2389378516
6717,17,Jits_Phase_5,1,5,56,103,2389382516
6717,17,Jits_Phase_5,2,5,63,98,2389413312
6717,17,Jits_Phase_5,3,5,80,127,2389443060
6717,17,Jits_Phase_5,0,5,80,127,2389803444
6717,17,Jits_Phase_5,1,1,48,27,2389855060
6717,17,Jits_Phase_5,2,5,56,103,2389872912
6717,17,Jits_Phase_5,3,5,63,98,2389876132
6717,17,Jits_Phase_5,0,1,48,28,2390305636
6717,17,Jits_Phase_5,1,5,56,103,2390313308
6717,17,Jits_Phase_5,2,5,63,98,2390362488
6717,17,Jits_Phase_5,3,5,80,127,2390393060
6717,17,Jits_Phase_5,0,5,63,98,2390792460
6717,17,Jits_Phase_5,1,1,48,29,2390793444
6717,17,Jits_Phase_5,2,5,80,127,2390797168
6717,17,Jits_Phase_5,3,5,56,103,2390853092
6717,17,Jits_Phase_5,0,1,48,33,2391274260
6717,17,Jits_Phase_5,1,5,56,103,2391323064
6717,17,Jits_Phase_5,2,5,80,127,2391333184
6717,17,Jits_Phase_5,3,5,63,98,2391383320
6717,17,Jits_Phase_5,0,1,48,35,2391765616
6717,17,Jits_Phase_5,1,5,63,98,2391793140
6717,17,Jits_Phase_5,2,5,56,103,2391803188
6717,17,Jits_Phase_5,3,5,80,127,2391833084
6717,17,Jits_Phase_5,0,1,48,25,2392270900
6717,17,Jits_Phase_5,1,5,63,98,2392322404
6717,17,Jits_Phase_5,2,5,80,127,2392325768
6717,17,Jits_Phase_5,3,5,56,103,2392353048
6717,17,Jits_Phase_5,0,1,48,36,2392771028
6717,17,Jits_Phase_5,1,5,63,98,2392842520
6717,17,Jits_Phase_5,2,5,56,103,2392863128
6717,17,Jits_Phase_5,3,5,80,127,2392866044
6717,17,Jits_Phase_5,0,1,48,33,2393270472
6717,17,Jits_Phase_5,1,5,63,98,2393303380
6717,17,Jits_Phase_5,2,5,56,103,2393373120
6717,17,Jits_Phase_5,3,5,80,127,2393392480
6717,17,Jits_Phase_5,0,1,48,34,2393769532
6717,17,Jits_Phase_5,1,5,56,103,2393793092
6717,17,Jits_Phase_5,2,5,63,98,2393803288
6717,17,Jits_Phase_5,3,5,80,127,2393893252
6717,17,Jits_Phase_5,0,1,48,36,2394267112
6717,17,Jits_Phase_5,1,5,56,103,2394313072
6717,17,Jits_Phase_5,2,5,80,127,2394353084
6717,17,Jits_Phase_5,3,5,63,98,2394363856
6717,17,Jits_Phase_5,0,1,48,36,2394765372
6717,17,Jits_Phase_5,1,5,56,103,2394833200
6717,17,Jits_Phase_5,2,5,63,98,2394862948
6717,17,Jits_Phase_5,3,5,80,127,2394892828
6717,17,Jits_Phase_5,0,5,80,127,2395293028
6717,17,Jits_Phase_5,1,1,48,36,2395312408
6717,17,Jits_Phase_5,2,5,63,98,2395333032
6717,17,Jits_Phase_5,3,5,56,103,2395352296
6717,17,Jits_Phase_5,0,1,48,32,2395791416
6717,17,Jits_Phase_5,1,5,56,103,2395832788
6717,17,Jits_Phase_5,2,5,80,127,2395853248
6717,17,Jits_Phase_5,3,5,63,98,2395872588
6717,17,Jits_Phase_5,0,1,48,41,2396302360
6717,17,Jits_Phase_5,1,5,63,98,2396303848
6717,17,Jits_Phase_5,2,5,56,103,2396312920
6717,17,Jits_Phase_5,3,5,80,127,2396373232
6717,17,Jits_Phase_5,0,5,56,103,2396802404
6717,17,Jits_Phase_5,1,1,48,41,2396805072
6717,17,Jits_Phase_5,2,5,63,98,2396873200
6717,17,Jits_Phase_5,3,5,80,127,2396892388
6717,17,Jits_Phase_5,0,5,56,103,2397303148
6717,17,Jits_Phase_5,1,1,48,39,2397315556
6717,17,Jits_Phase_5,2,5,63,98,2397332888
6717,17,Jits_Phase_5,3,5,80,127,2397372976
6717,17,Jits_Phase_5,0,5,63,98,2397792576
6717,17,Jits_Phase_5,1,1,48,30,2397836524
6717,17,Jits_Phase_5,2,5,56,103,2397842772
6717,17,Jits_Phase_5,3,5,80,127,2397853040
6717,17,Jits_Phase_5,0,1,48,34,2398308840
6717,17,Jits_Phase_5,1,5,56,103,2398333224
6717,17,Jits_Phase_5,2,5,63,98,2398382452
6717,17,Jits_Phase_5,3,5,80,127,2398392796
6717,17,Jits_Phase_5,0,5,56,103,2398803240
6717,17,Jits_Phase_5,1,5,63,98,2398812612
6717,17,Jits_Phase_5,2,1,48,37,2398833864
6717,17,Jits_Phase_5,3,5,80,127,2398893516
6717,17,Jits_Phase_5,0,9999,9999,9999,2314560576
6717,17,Jits_Phase_5,1,9999,9999,9999,2315060280
6717,17,Jits_Phase_5,2,9999,9999,9999,2315561048
6717,17,Jits_Phase_5,3,9999,9999,9999,2316060728
6717,17,Jits_Phase_5,4,9999,9999,9999,2316560480
6717,17,Jits_Phase_5,5,9999,9999,9999,2317060180
6717,17,Jits_Phase_5,6,9999,9999,9999,2317560896
6717,17,Jits_Phase_5,7,9999,9999,9999,2318060660
6717,17,Jits_Phase_5,8,9999,9999,9999,2318560348
6717,17,Jits_Phase_5,9,9999,9999,9999,2319061088
6717,17,Jits_Phase_5,10,9999,9999,9999,2319560776
6717,17,Jits_Phase_5,11,9999,9999,9999,2320060540
6717,17,Jits_Phase_5,12,9999,9999,9999,2320560212
6717,17,Jits_Phase_5,13,9999,9999,9999,2321060932
6717,17,Jits_Phase_5,14,9999,9999,9999,2321560676
6717,17,Jits_Phase_5,15,9999,9999,9999,2322060368
6717,17,Jits_Phase_5,16,9999,9999,9999,2322560056
6717,17,Jits_Phase_5,17,9999,9999,9999,2323060852
6717,17,Jits_Phase_5,18,9999,9999,9999,2323560528
6717,17,Jits_Phase_5,19,9999,9999,9999,2324060276
6717,17,Jits_Phase_5,20,9999,9999,9999,2324561000
6717,17,Jits_Phase_5,21,9999,9999,9999,2325060676
6717,17,Jits_Phase_5,22,9999,9999,9999,2325560436
6717,17,Jits_Phase_5,23,9999,9999,9999,2326060104
6717,17,Jits_Phase_5,24,9999,9999,9999,2326560896
6717,17,Jits_Phase_5,25,9999,9999,9999,2327060564
6717,17,Jits_Phase_5,26,9999,9999,9999,2327560316
6717,17,Jits_Phase_5,27,9999,9999,9999,2328061024
6717,17,Jits_Phase_5,28,9999,9999,9999,2328560716
6717,17,Jits_Phase_5,29,9999,9999,9999,2329060464
6717,17,Jits_Phase_5,30,9999,9999,9999,2329550940
6717,17,Jits_Phase_5,31,9999,9999,9999,2330050636
6717,17,Jits_Phase_5,32,9999,9999,9999,2330550396
6717,17,Jits_Phase_5,33,9999,9999,9999,2331051116
6717,17,Jits_Phase_5,34,9999,9999,9999,2331561056
6717,17,Jits_Phase_5,35,9999,9999,9999,2332060732
6717,17,Jits_Phase_5,36,9999,9999,9999,2332560472
6717,17,Jits_Phase_5,37,9999,9999,9999,2333060224
6717,17,Jits_Phase_5,38,9999,9999,9999,2333560944
6717,17,Jits_Phase_5,39,9999,9999,9999,2334060624
6717,17,Jits_Phase_5,40,9999,9999,9999,2334560352
6717,17,Jits_Phase_5,41,9999,9999,9999,2335061076
6717,17,Jits_Phase_5,42,9999,9999,9999,2335560824
6717,17,Jits_Phase_5,43,9999,9999,9999,2336060496
6717,17,Jits_Phase_5,44,9999,9999,9999,2336560244
6717,17,Jits_Phase_5,45,9999,9999,9999,2337060940
6717,17,Jits_Phase_5,46,9999,9999,9999,2337560680
6717,17,Jits_Phase_5,47,9999,9999,9999,2338060364
6717,17,Jits_Phase_5,48,9999,9999,9999,2338570304
6717,17,Jits_Phase_5,49,9999,9999,9999,2339071036
6717,17,Jits_Phase_5,50,9999,9999,9999,2339570776
6717,17,Jits_Phase_5,51,9999,9999,9999,2340070468
6717,17,Jits_Phase_5,52,9999,9999,9999,2340570236
6717,17,Jits_Phase_5,53,9999,9999,9999,2341070976
6717,17,Jits_Phase_5,54,9999,9999,9999,2341570652
6717,17,Jits_Phase_5,55,9999,9999,9999,2342070344
6717,17,Jits_Phase_5,56,9999,9999,9999,2342571064
6717,17,Jits_Phase_5,57,9999,9999,9999,2343081088
6717,17,Jits_Phase_5,58,9999,9999,9999,2343580764
6717,17,Jits_Phase_5,59,9999,9999,9999,2344080440
6717,17,Jits_Phase_5,60,9999,9999,9999,2344580208
6717,17,Jits_Phase_5,61,9999,9999,9999,2345080928
6717,17,Jits_Phase_5,62,9999,9999,9999,2345580620
6717,17,Jits_Phase_5,63,9999,9999,9999,2346080368
6717,17,Jits_Phase_5,64,9999,9999,9999,2346600572
6717,17,Jits_Phase_5,65,9999,9999,9999,2347100244
6717,17,Jits_Phase_5,66,9999,9999,9999,2347600968
6717,17,Jits_Phase_5,67,9999,9999,9999,2348100708
6717,17,Jits_Phase_5,68,9999,9999,9999,2348600384
6717,17,Jits_Phase_5,69,9999,9999,9999,2349100112
6717,17,Jits_Phase_5,70,9999,9999,9999,2349600864
6717,17,Jits_Phase_5,71,9999,9999,9999,2350100556
6717,17,Jits_Phase_5,72,9999,9999,9999,2350600304
6717,17,Jits_Phase_5,73,9999,9999,9999,2351101024
6717,17,Jits_Phase_5,74,9999,9999,9999,2351600704
6717,17,Jits_Phase_5,75,9999,9999,9999,2352100448
6717,17,Jits_Phase_5,76,9999,9999,9999,2352600132
6717,17,Jits_Phase_5,77,9999,9999,9999,2353100856
6717,17,Jits_Phase_5,78,9999,9999,9999,2353600608
6717,17,Jits_Phase_5,79,9999,9999,9999,2354100284
6717,17,Jits_Phase_5,80,9999,9999,9999,2354601080
6717,17,Jits_Phase_5,81,9999,9999,9999,2355080308
6717,17,Jits_Phase_5,82,9999,9999,9999,2355581028
6717,17,Jits_Phase_5,83,9999,9999,9999,2356080700
6717,17,Jits_Phase_5,84,9999,9999,9999,2356580468
6717,17,Jits_Phase_5,85,9999,9999,9999,2357080140
6717,17,Jits_Phase_5,86,9999,9999,9999,2357580860
6717,17,Jits_Phase_5,87,9999,9999,9999,2358080624
6717,17,Jits_Phase_5,88,9999,9999,9999,2358580296
6717,17,Jits_Phase_5,89,9999,9999,9999,2359081068
6717,17,Jits_Phase_5,90,9999,9999,9999,2359580740
6717,17,Jits_Phase_5,91,9999,9999,9999,2360080492
6717,17,Jits_Phase_5,92,9999,9999,9999,2360580168
6717,17,Jits_Phase_5,93,9999,9999,9999,2361080888
6717,17,Jits_Phase_5,94,9999,9999,9999,2361580636
6717,17,Jits_Phase_5,95,9999,9999,9999,2362080312
6717,17,Jits_Phase_5,96,9999,9999,9999,2362581104
6717,17,Jits_Phase_5,97,9999,9999,9999,2363030588
6717,17,Jits_Phase_5,98,9999,9999,9999,2363530336
6717,17,Jits_Phase_5,99,9999,9999,9999,2364031068
6717,17,Jits_Phase_5,100,9999,9999,9999,2364530744
6717,17,Jits_Phase_5,101,9999,9999,9999,2365030508
6717,17,Jits_Phase_5,102,9999,9999,9999,2365530176
6717,17,Jits_Phase_5,103,9999,9999,9999,2366030900
6717,17,Jits_Phase_5,104,9999,9999,9999,2366530624
6717,17,Jits_Phase_5,105,9999,9999,9999,2367030368
6717,17,Jits_Phase_5,106,9999,9999,9999,2367531068
6717,17,Jits_Phase_5,107,9999,9999,9999,2368041072
6717,17,Jits_Phase_5,108,9999,9999,9999,2368540736
6717,17,Jits_Phase_5,109,9999,9999,9999,2369040488
6717,17,Jits_Phase_5,110,9999,9999,9999,2369540172
6717,17,Jits_Phase_5,111,9999,9999,9999,2370040896
6717,17,Jits_Phase_5,112,9999,9999,9999,2370540640
6717,17,Jits_Phase_5,113,9999,9999,9999,2371040320
6717,17,Jits_Phase_5,114,9999,9999,9999,2371590260
6717,17,Jits_Phase_5,115,9999,9999,9999,2372090972
6717,17,Jits_Phase_5,116,9999,9999,9999,2372590652
6717,17,Jits_Phase_5,117,9999,9999,9999,2373090416
6717,17,Jits_Phase_5,118,9999,9999,9999,2373590104
6717,17,Jits_Phase_5,119,9999,9999,9999,2374090824
6717,17,Jits_Phase_5,120,9999,9999,9999,2374590584
6717,17,Jits_Phase_5,121,9999,9999,9999,2375090264
6717,17,Jits_Phase_5,122,9999,9999,9999,2375591000
6717,17,Jits_Phase_5,123,9999,9999,9999,2376090684
6717,17,Jits_Phase_5,124,9999,9999,9999,2376590432
6717,17,Jits_Phase_5,125,9999,9999,9999,2377090104
6717,17,Jits_Phase_5,126,9999,9999,9999,2377590844
6717,17,Jits_Phase_5,127,9999,9999,9999,2378090588
6717,17,Jits_Phase_5,128,9999,9999,9999,2378590264
6717,17,Jits_Phase_5,129,9999,9999,9999,2379091000
6717,17,Jits_Phase_5,130,9999,9999,9999,2379590760
6717,17,Jits_Phase_5,131,9999,9999,9999,2380190820
6717,17,Jits_Phase_5,132,9999,9999,9999,2380690492
6717,17,Jits_Phase_5,133,9999,9999,9999,2381190248
6717,17,Jits_Phase_5,134,9999,9999,9999,2381690960
6717,17,Jits_Phase_5,135,9999,9999,9999,2382190648
6717,17,Jits_Phase_5,136,9999,9999,9999,2382690416
6717,17,Jits_Phase_5,137,9999,9999,9999,2383190088
6717,17,Jits_Phase_5,138,9999,9999,9999,2383690808
6717,17,Jits_Phase_5,139,9999,9999,9999,2384190580
6717,17,Jits_Phase_5,140,9999,9999,9999,2384690256
6717,17,Jits_Phase_5,141,9999,9999,9999,2385190968
6717,17,Jits_Phase_5,142,9999,9999,9999,2385690724
6717,17,Jits_Phase_5,143,9999,9999,9999,2386190416
6717,17,Jits_Phase_5,144,9999,9999,9999,2386690164
6717,17,Jits_Phase_5,145,9999,9999,9999,2387190884
6717,17,Jits_Phase_5,146,9999,9999,9999,2387690568
6717,17,Jits_Phase_5,147,9999,9999,9999,2388190320
6717,17,Jits_Phase_5,148,9999,9999,9999,2388691036
6717,17,Jits_Phase_5,149,9999,9999,9999,2389190720
6717,17,Jits_Phase_5,150,9999,9999,9999,2389590088
6717,17,Jits_Phase_5,151,9999,9999,9999,2390090880
6717,17,Jits_Phase_5,152,9999,9999,9999,2390590572
6717,17,Jits_Phase_5,153,9999,9999,9999,2391090236
6717,17,Jits_Phase_5,154,9999,9999,9999,2391591012
6717,17,Jits_Phase_5,155,9999,9999,9999,2392090748
6717,17,Jits_Phase_5,156,9999,9999,9999,2392590416
6717,17,Jits_Phase_5,157,9999,9999,9999,2393090156
6717,17,Jits_Phase_5,158,9999,9999,9999,2393590880
6717,17,Jits_Phase_5,159,9999,9999,9999,2394090556
6717,17,Jits_Phase_5,160,9999,9999,9999,2394590308
6717,17,Jits_Phase_5,161,9999,9999,9999,2395091032
6717,17,Jits_Phase_5,162,9999,9999,9999,2395590780
6717,17,Jits_Phase_5,163,9999,9999,9999,2396090472
6717,17,Jits_Phase_5,164,9999,9999,9999,2396590148
6717,17,Jits_Phase_5,165,9999,9999,9999,2397090876
6717,17,Jits_Phase_5,166,9999,9999,9999,2397590640
6717,17,Jits_Phase_5,167,9999,9999,9999,2398090328
6717,17,Jits_Phase_5,168,9999,9999,9999,2398591056
6717,17,Jits_Phase_5,169,9999,9999,9999,2399090808
6718,7,Jits_ISO_8,0,5,56,103,2409051692
6718,7,Jits_ISO_8,1,5,63,98,2409054792
6718,7,Jits_ISO_8,2,5,80,127,2409057840
6718,7,Jits_ISO_8,0,5,56,103,2409852220
6718,7,Jits_ISO_8,1,5,63,98,2409855316
6718,7,Jits_ISO_8,2,5,80,127,2409858512
6718,7,Jits_ISO_8,3,1,48,34,2410017084
6718,7,Jits_ISO_8,0,1,48,39,2410566336
6718,7,Jits_ISO_8,1,5,80,127,2410591696
6718,7,Jits_ISO_8,2,5,63,98,2410681816
6718,7,Jits_ISO_8,3,5,56,103,2410691940
6718,7,Jits_ISO_8,0,1,48,44,2411378860
6718,7,Jits_ISO_8,1,5,56,103,2411411716
6718,7,Jits_ISO_8,2,5,63,98,2411422060
6718,7,Jits_ISO_8,3,5,80,127,2411512176
6718,7,Jits_ISO_8,0,1,48,43,2412170116
6718,7,Jits_ISO_8,1,5,63,98,2412181828
6718,7,Jits_ISO_8,2,5,80,127,2412211656
6718,7,Jits_ISO_8,3,5,56,103,2412242304
6718,7,Jits_ISO_8,0,1,48,43,2412954528
6718,7,Jits_ISO_8,1,5,56,103,2412981832
6718,7,Jits_ISO_8,2,5,80,127,2413081920
6718,7,Jits_ISO_8,3,5,63,98,2413131996
6718,7,Jits_ISO_8,0,1,48,40,2413779632
6718,7,Jits_ISO_8,1,5,56,103,2413782292
6718,7,Jits_ISO_8,2,5,80,127,2413831672
6718,7,Jits_ISO_8,3,5,63,98,2413871636
6718,7,Jits_ISO_8,0,1,48,40,2414550732
6718,7,Jits_ISO_8,1,5,80,127,2414611892
6718,7,Jits_ISO_8,2,5,63,98,2414641668
6718,7,Jits_ISO_8,3,5,56,103,2414712304
6718,7,Jits_ISO_8,0,1,48,36,2415351044
6718,7,Jits_ISO_8,1,5,63,98,2415442344
6718,7,Jits_ISO_8,2,5,56,103,2415471860
6718,7,Jits_ISO_8,3,5,80,127,2415532620
6718,7,Jits_ISO_8,0,1,48,38,2416175044
6718,7,Jits_ISO_8,1,5,56,103,2416181744
6718,7,Jits_ISO_8,2,5,80,127,2416184732
6718,7,Jits_ISO_8,3,5,63,98,2416301680
6718,7,Jits_ISO_8,0,1,48,35,2417006136
6718,7,Jits_ISO_8,1,5,56,103,2417062212
6718,7,Jits_ISO_8,2,5,80,127,2417102300
6718,7,Jits_ISO_8,3,5,63,98,2417112408
6718,7,Jits_ISO_8,0,5,56,103,2417821924
6718,7,Jits_ISO_8,1,1,48,31,2417830968
6718,7,Jits_ISO_8,2,5,80,127,2417841704
6718,7,Jits_ISO_8,3,5,63,98,2417922544
6718,7,Jits_ISO_8,0,5,80,127,2418611684
6718,7,Jits_ISO_8,1,1,48,38,2418633160
6718,7,Jits_ISO_8,2,5,56,103,2418711928
6718,7,Jits_ISO_8,3,5,63,98,2418722272
6718,7,Jits_ISO_8,0,5,63,98,2419381740
6718,7,Jits_ISO_8,1,5,80,127,2419441988
6718,7,Jits_ISO_8,2,5,56,103,2419452556
6718,7,Jits_ISO_8,3,1,48,41,2419476272
6718,7,Jits_ISO_8,0,1,48,34,2420167544
6718,7,Jits_ISO_8,1,5,56,103,2420182488
6718,7,Jits_ISO_8,2,5,63,98,2420251948
6718,7,Jits_ISO_8,3,5,80,127,2420255312
6718,7,Jits_ISO_8,0,1,48,39,2420936224
6718,7,Jits_ISO_8,1,5,63,98,2421011932
6718,7,Jits_ISO_8,2,5,56,103,2421062144
6718,7,Jits_ISO_8,3,5,80,127,2421065208
6718,7,Jits_ISO_8,0,5,56,103,2421771700
6718,7,Jits_ISO_8,1,5,80,127,2421774916
6718,7,Jits_ISO_8,2,1,48,40,2421794524
6718,7,Jits_ISO_8,3,5,63,98,2421861780
6718,7,Jits_ISO_8,0,1,48,38,2422553468
6718,7,Jits_ISO_8,1,5,63,98,2422612412
6718,7,Jits_ISO_8,2,5,56,103,2422701708
6718,7,Jits_ISO_8,3,5,80,127,2422732060
6718,7,Jits_ISO_8,0,5,56,103,2423401944
6718,7,Jits_ISO_8,1,1,48,35,2423415176
6718,7,Jits_ISO_8,2,5,63,98,2423502336
6718,7,Jits_ISO_8,3,5,80,127,2423531772
6718,7,Jits_ISO_8,0,1,48,37,2424201716
6718,7,Jits_ISO_8,1,5,63,98,2424222044
6718,7,Jits_ISO_8,2,5,56,103,2424232316
6718,7,Jits_ISO_8,3,5,80,127,2424322508
6718,7,Jits_ISO_8,0,1,48,40,2425012444
6718,7,Jits_ISO_8,1,5,63,98,2425042656
6718,7,Jits_ISO_8,2,5,56,103,2425122288
6718,7,Jits_ISO_8,3,5,80,127,2425125428
6718,7,Jits_ISO_8,0,5,80,127,2425802212
6718,7,Jits_ISO_8,1,5,63,98,2425821624
6718,7,Jits_ISO_8,2,1,48,43,2425842428
6718,7,Jits_ISO_8,3,5,56,103,2425881936
6718,7,Jits_ISO_8,0,1,48,39,2426583472
6718,7,Jits_ISO_8,1,5,56,103,2426641716
6718,7,Jits_ISO_8,2,5,63,98,2426662624
6718,7,Jits_ISO_8,3,5,80,127,2426665832
6718,7,Jits_ISO_8,0,1,48,38,2427382228
6718,7,Jits_ISO_8,1,5,63,98,2427383568
6718,7,Jits_ISO_8,2,5,80,127,2427462196
6718,7,Jits_ISO_8,3,5,56,103,2427472392
6718,7,Jits_ISO_8,0,1,48,41,2428185652
6718,7,Jits_ISO_8,1,5,63,98,2428202312
6718,7,Jits_ISO_8,2,5,56,103,2428221900
6718,7,Jits_ISO_8,3,5,80,127,2428271876
6718,7,Jits_ISO_8,0,1,48,32,2428935380
6718,7,Jits_ISO_8,1,5,80,127,2429001968
6718,7,Jits_ISO_8,2,5,63,98,2429041892
6718,7,Jits_ISO_8,3,5,56,103,2429061452
6718,7,Jits_ISO_8,0,1,48,43,2429706084
6718,7,Jits_ISO_8,1,5,56,103,2429841744
6718,7,Jits_ISO_8,2,5,63,98,2429852012
6718,7,Jits_ISO_8,3,5,80,127,2429871424
6718,7,Jits_ISO_8,0,1,48,36,2430520592
6718,7,Jits_ISO_8,1,5,56,103,2430571864
6718,7,Jits_ISO_8,2,5,63,98,2430661984
6718,7,Jits_ISO_8,3,5,80,127,2430722524
6718,7,Jits_ISO_8,0,1,48,36,2431357156
6718,7,Jits_ISO_8,1,5,80,127,2431402440
6718,7,Jits_ISO_8,2,5,56,103,2431411516
6718,7,Jits_ISO_8,3,5,63,98,2431482452
6718,7,Jits_ISO_8,0,1,48,46,2432127788
6718,7,Jits_ISO_8,1,5,63,98,2432231656
6718,7,Jits_ISO_8,2,5,80,127,2432321968
6718,7,Jits_ISO_8,3,5,56,103,2432332312
6718,7,Jits_ISO_8,0,1,48,36,2432970008
6718,7,Jits_ISO_8,1,5,63,98,2432972048
6718,7,Jits_ISO_8,2,5,80,127,2433022400
6718,7,Jits_ISO_8,3,5,56,103,2433081680
6718,7,Jits_ISO_8,0,1,48,39,2433777188
6718,7,Jits_ISO_8,1,5,56,103,2433801576
6718,7,Jits_ISO_8,2,5,80,127,2433851728
6718,7,Jits_ISO_8,3,5,63,98,2433872172
6718,7,Jits_ISO_8,0,1,48,43,2434546252
6718,7,Jits_ISO_8,1,5,56,103,2434571760
6718,7,Jits_ISO_8,2,5,80,127,2434631956
6718,7,Jits_ISO_8,3,5,63,98,2434701620
6718,7,Jits_ISO_8,0,5,56,103,2435372396
6718,7,Jits_ISO_8,1,1,48,36,2435379648
6718,7,Jits_ISO_8,2,5,80,127,2435402068
6718,7,Jits_ISO_8,3,5,63,98,2435431892
6718,7,Jits_ISO_8,0,1,48,35,2436164584
6718,7,Jits_ISO_8,1,5,56,103,2436212044
6718,7,Jits_ISO_8,2,5,80,127,2436231532
6718,7,Jits_ISO_8,3,5,63,98,2436292056
6718,7,Jits_ISO_8,0,1,48,37,2436994492
6718,7,Jits_ISO_8,1,5,80,127,2437091608
6718,7,Jits_ISO_8,2,5,56,103,2437101804
6718,7,Jits_ISO_8,3,5,63,98,2437112520
6718,7,Jits_ISO_8,0,1,48,40,2437824784
6718,7,Jits_ISO_8,1,5,56,103,2437851408
6718,7,Jits_ISO_8,2,5,80,127,2437891500
6718,7,Jits_ISO_8,3,5,63,98,2437922352
6718,7,Jits_ISO_8,0,5,56,103,2438621684
6718,7,Jits_ISO_8,1,5,63,98,2438652260
6718,7,Jits_ISO_8,2,1,48,37,2438679416
6718,7,Jits_ISO_8,3,5,80,127,2438692192
6718,7,Jits_ISO_8,0,5,80,127,2439372404
6718,7,Jits_ISO_8,1,1,48,30,2439422756
6718,7,Jits_ISO_8,2,5,63,98,2439423872
6718,7,Jits_ISO_8,3,5,56,103,2439441792
6718,7,Jits_ISO_8,0,5,56,103,2440201648
6718,7,Jits_ISO_8,1,1,48,28,2440213760
6718,7,Jits_ISO_8,2,5,80,127,2440272324
6718,7,Jits_ISO_8,3,5,63,98,2440331576
6718,7,Jits_ISO_8,0,1,48,40,2440979372
6718,7,Jits_ISO_8,1,5,80,127,2441002660
6718,7,Jits_ISO_8,2,5,63,98,2441091436
6718,7,Jits_ISO_8,3,5,56,103,2441112044
6718,7,Jits_ISO_8,0,1,48,45,2441754744
6718,7,Jits_ISO_8,1,5,63,98,2441821480
6718,7,Jits_ISO_8,2,5,56,103,2441842164
6718,7,Jits_ISO_8,3,5,80,127,2441882088
6718,7,Jits_ISO_8,0,1,48,39,2442569004
6718,7,Jits_ISO_8,1,5,80,127,2442582300
6718,7,Jits_ISO_8,2,5,63,98,2442601716
6718,7,Jits_ISO_8,3,5,56,103,2442681716
6718,7,Jits_ISO_8,0,5,63,98,2443371824
6718,7,Jits_ISO_8,1,1,48,39,2443385724
6718,7,Jits_ISO_8,2,5,56,103,2443482556
6718,7,Jits_ISO_8,3,5,80,127,2443485304
6718,7,Jits_ISO_8,0,1,48,29,2444173732
6718,7,Jits_ISO_8,1,5,63,98,2444192340
6718,7,Jits_ISO_8,2,5,56,103,2444202312
6718,7,Jits_ISO_8,3,5,80,127,2444205452
6718,7,Jits_ISO_8,0,1,48,44,2444918276
6718,7,Jits_ISO_8,1,5,56,103,2444972404
6718,7,Jits_ISO_8,2,5,80,127,2445092196
6718,7,Jits_ISO_8,3,5,63,98,2445132380
6718,7,Jits_ISO_8,0,1,48,40,2445759192
6718,7,Jits_ISO_8,1,5,56,103,2445791748
6718,7,Jits_ISO_8,2,5,80,127,2445871408
6718,7,Jits_ISO_8,3,5,63,98,2445892088
6718,7,Jits_ISO_8,0,1,48,38,2446584988
6718,7,Jits_ISO_8,1,5,56,103,2446592360
6718,7,Jits_ISO_8,2,5,63,98,2446701908
6718,7,Jits_ISO_8,3,5,80,127,2446705420
6718,7,Jits_ISO_8,0,1,48,33,2447393608
6718,7,Jits_ISO_8,1,5,56,103,2447421836
6718,7,Jits_ISO_8,2,5,80,127,2447451436
6718,7,Jits_ISO_8,3,5,63,98,2447472192
6718,7,Jits_ISO_8,0,1,48,36,2448151740
6718,7,Jits_ISO_8,1,5,63,98,2448202432
6718,7,Jits_ISO_8,2,5,56,103,2448212260
6718,7,Jits_ISO_8,3,5,80,127,2448221480
6718,7,Jits_ISO_8,0,1,48,40,2448971624
6718,7,Jits_ISO_8,1,5,80,127,2448991652
6718,7,Jits_ISO_8,2,5,56,103,2449041932
6718,7,Jits_ISO_8,3,5,63,98,2449081856
6718,7,Jits_ISO_8,0,1,48,40,2449780620
6718,7,Jits_ISO_8,1,5,80,127,2449812112
6718,7,Jits_ISO_8,2,5,63,98,2449832200
6718,7,Jits_ISO_8,3,5,56,103,2449881340
6718,7,Jits_ISO_8,0,1,48,44,2450584444
6718,7,Jits_ISO_8,1,5,80,127,2450622012
6718,7,Jits_ISO_8,2,5,56,103,2450651392
6718,7,Jits_ISO_8,3,5,63,98,2450722104
6718,7,Jits_ISO_8,0,1,48,40,2451324148
6718,7,Jits_ISO_8,1,5,56,103,2451471764
6718,7,Jits_ISO_8,2,5,80,127,2451482108
6718,7,Jits_ISO_8,3,5,63,98,2451521848
6718,7,Jits_ISO_8,0,1,48,36,2452126860
6718,7,Jits_ISO_8,1,5,56,103,2452182332
6718,7,Jits_ISO_8,2,5,63,98,2452201820
6718,7,Jits_ISO_8,3,5,80,127,2452271512
6718,7,Jits_ISO_8,0,1,48,33,2452935404
6718,7,Jits_ISO_8,1,5,63,98,2453001672
6718,7,Jits_ISO_8,2,5,80,127,2453062224
6718,7,Jits_ISO_8,3,5,56,103,2453081560
6718,7,Jits_ISO_8,0,1,48,35,2453762992
6718,7,Jits_ISO_8,1,5,80,127,2453792164
6718,7,Jits_ISO_8,2,5,56,103,2453821792
6718,7,Jits_ISO_8,3,5,63,98,2453851540
6718,7,Jits_ISO_8,0,1,48,44,2454567632
6718,7,Jits_ISO_8,1,5,56,103,2454591968
6718,7,Jits_ISO_8,2,5,63,98,2454652212
6718,7,Jits_ISO_8,3,5,80,127,2454711612
6718,7,Jits_ISO_8,0,1,48,33,2455336176
6718,7,Jits_ISO_8,1,5,80,127,2455412208
6718,7,Jits_ISO_8,2,5,56,103,2455431532
6718,7,Jits_ISO_8,3,5,63,98,2455502108
6718,7,Jits_ISO_8,0,1,48,37,2456130524
6718,7,Jits_ISO_8,1,5,80,127,2456211768
6718,7,Jits_ISO_8,2,5,63,98,2456232436
6718,7,Jits_ISO_8,3,5,56,103,2456262260
6718,7,Jits_ISO_8,0,1,48,37,2456958764
6718,7,Jits_ISO_8,1,5,80,127,2457002408
6718,7,Jits_ISO_8,2,5,63,98,2457021672
6718,7,Jits_ISO_8,3,5,56,103,2457082344
6718,7,Jits_ISO_8,0,5,80,127,2457802200
6718,7,Jits_ISO_8,1,1,48,38,2457823456
6718,7,Jits_ISO_8,2,5,56,103,2457901420
6718,7,Jits_ISO_8,3,5,63,98,2457932052
6718,7,Jits_ISO_8,0,1,48,32,2458589768
6718,7,Jits_ISO_8,1,5,63,98,2458591508
6718,7,Jits_ISO_8,2,5,80,127,2458641712
6718,7,Jits_ISO_8,3,5,56,103,2458662244
6718,7,Jits_ISO_8,0,1,48,34,2459373052
6718,7,Jits_ISO_8,1,5,80,127,2459432268
6718,7,Jits_ISO_8,2,5,56,103,2459462192
6718,7,Jits_ISO_8,3,5,63,98,2459465108
6718,7,Jits_ISO_8,0,1,48,34,2460180472
6718,7,Jits_ISO_8,1,5,63,98,2460261740
6718,7,Jits_ISO_8,2,5,56,103,2460301664
6718,7,Jits_ISO_8,3,5,80,127,2460322124
6718,7,Jits_ISO_8,0,5,80,127,2461002048
6718,7,Jits_ISO_8,1,1,48,33,2461009352
6718,7,Jits_ISO_8,2,5,63,98,2461082284
6718,7,Jits_ISO_8,3,5,56,103,2461121908
6718,7,Jits_ISO_8,0,1,48,35,2461706176
6718,7,Jits_ISO_8,1,5,63,98,2461822280
6718,7,Jits_ISO_8,2,5,80,127,2461902300
6718,7,Jits_ISO_8,3,5,56,103,2461921788
6718,7,Jits_ISO_8,0,1,48,30,2462533796
6718,7,Jits_ISO_8,1,5,56,103,2462662152
6718,7,Jits_ISO_8,2,5,63,98,2462672124
6718,7,Jits_ISO_8,3,5,80,127,2462712136
6718,7,Jits_ISO_8,0,5,56,103,2463381864
6718,7,Jits_ISO_8,1,5,80,127,2463384932
6718,7,Jits_ISO_8,2,1,48,31,2463396144
6718,7,Jits_ISO_8,3,5,63,98,2463522096
6718,7,Jits_ISO_8,0,5,56,103,2464172360
6718,7,Jits_ISO_8,1,1,48,30,2464248004
6718,7,Jits_ISO_8,2,5,63,98,2464261448
6718,7,Jits_ISO_8,3,5,80,127,2464332124
6718,7,Jits_ISO_8,0,1,48,44,2465036636
6718,7,Jits_ISO_8,1,5,63,98,2465051948
6718,7,Jits_ISO_8,2,5,80,127,2465055236
6718,7,Jits_ISO_8,3,5,56,103,2465112364
6718,7,Jits_ISO_8,0,1,48,39,2465813192
6718,7,Jits_ISO_8,1,5,80,127,2465891836
6718,7,Jits_ISO_8,2,5,56,103,2465912280
6718,7,Jits_ISO_8,3,5,63,98,2465922404
6718,7,Jits_ISO_8,0,1,48,37,2466583384
6718,7,Jits_ISO_8,1,5,56,103,2466602396
6718,7,Jits_ISO_8,2,5,63,98,2466611692
6718,7,Jits_ISO_8,3,5,80,127,2466682272
6718,7,Jits_ISO_8,0,1,48,31,2467389028
6718,7,Jits_ISO_8,1,5,80,127,2467402176
6718,7,Jits_ISO_8,2,5,56,103,2467452380
6718,7,Jits_ISO_8,3,5,63,98,2467501372
6718,7,Jits_ISO_8,0,1,48,39,2468176008
6718,7,Jits_ISO_8,1,5,56,103,2468281892
6718,7,Jits_ISO_8,2,5,63,98,2468292088
6718,7,Jits_ISO_8,3,5,80,127,2468331880
6718,7,Jits_ISO_8,0,1,48,30,2469016708
6718,7,Jits_ISO_8,1,5,56,103,2469022056
6718,7,Jits_ISO_8,2,5,63,98,2469061996
6718,7,Jits_ISO_8,3,5,80,127,2469112184
6718,7,Jits_ISO_8,0,5,80,127,2469782064
6718,7,Jits_ISO_8,1,1,48,35,2469821300
6718,7,Jits_ISO_8,2,5,56,103,2469831964
6718,7,Jits_ISO_8,3,5,63,98,2469851600
6718,7,Jits_ISO_8,0,5,80,127,2470592052
6718,7,Jits_ISO_8,1,1,48,39,2470609396
6718,7,Jits_ISO_8,2,5,63,98,2470652360
6718,7,Jits_ISO_8,3,5,56,103,2470732240
6718,7,Jits_ISO_8,0,5,80,127,2471372220
6718,7,Jits_ISO_8,1,5,56,103,2471411936
6718,7,Jits_ISO_8,2,5,63,98,2471431648
6718,7,Jits_ISO_8,3,1,48,40,2471441444
6718,7,Jits_ISO_8,0,5,56,103,2472222064
6718,7,Jits_ISO_8,1,5,80,127,2472232408
6718,7,Jits_ISO_8,2,5,63,98,2472272124
6718,7,Jits_ISO_8,3,1,48,26,2472388428
6718,7,Jits_ISO_8,0,1,48,33,2472984116
6718,7,Jits_ISO_8,1,5,56,103,2473091444
6718,7,Jits_ISO_8,2,5,63,98,2473132356
6718,7,Jits_ISO_8,3,5,80,127,2473135868
6718,7,Jits_ISO_8,0,1,48,37,2473777996
6718,7,Jits_ISO_8,1,5,63,98,2473781852
6718,7,Jits_ISO_8,2,5,80,127,2473821720
6718,7,Jits_ISO_8,3,5,56,103,2473892284
6718,7,Jits_ISO_8,0,1,48,33,2474568412
6718,7,Jits_ISO_8,1,5,63,98,2474572196
6718,7,Jits_ISO_8,2,5,56,103,2474651996
6718,7,Jits_ISO_8,3,5,80,127,2474712296
6718,7,Jits_ISO_8,0,1,48,39,2475350532
6718,7,Jits_ISO_8,1,5,80,127,2475382316
6718,7,Jits_ISO_8,2,5,63,98,2475432372
6718,7,Jits_ISO_8,3,5,56,103,2475461960
6718,7,Jits_ISO_8,0,1,48,41,2476095832
6718,7,Jits_ISO_8,1,5,56,103,2476172060
6718,7,Jits_ISO_8,2,5,63,98,2476221804
6718,7,Jits_ISO_8,3,5,80,127,2476231996
6718,7,Jits_ISO_8,0,1,48,36,2476884080
6718,7,Jits_ISO_8,1,5,56,103,2476981788
6718,7,Jits_ISO_8,2,5,63,98,2477092232
6718,7,Jits_ISO_8,3,5,80,127,2477111816
6718,7,Jits_ISO_8,0,5,63,98,2477782420
6718,7,Jits_ISO_8,1,1,48,35,2477784508
6718,7,Jits_ISO_8,2,5,80,127,2477831648
6718,7,Jits_ISO_8,3,5,56,103,2477921936
6718,7,Jits_ISO_8,0,5,63,98,2478571868
6718,7,Jits_ISO_8,1,5,80,127,2478601844
6718,7,Jits_ISO_8,2,1,48,35,2478658468
6718,7,Jits_ISO_8,3,5,56,103,2478691844
6718,7,Jits_ISO_8,0,5,63,98,2479371796
6718,7,Jits_ISO_8,1,5,56,103,2479381768
6718,7,Jits_ISO_8,2,1,48,35,2479443648
6718,7,Jits_ISO_8,3,5,80,127,2479482332
6718,7,Jits_ISO_8,0,1,48,32,2480196288
6718,7,Jits_ISO_8,1,5,63,98,2480271696
6718,7,Jits_ISO_8,2,5,80,127,2480301432
6718,7,Jits_ISO_8,3,5,56,103,2480332080
6718,7,Jits_ISO_8,0,1,48,33,2480996828
6718,7,Jits_ISO_8,1,5,80,127,2481092016
6718,7,Jits_ISO_8,2,5,63,98,2481102196
6718,7,Jits_ISO_8,3,5,56,103,2481131872
6718,7,Jits_ISO_8,0,5,80,127,2481792316
6718,7,Jits_ISO_8,1,5,63,98,2481812028
6718,7,Jits_ISO_8,2,1,48,32,2481830064
6718,7,Jits_ISO_8,3,5,56,103,2481862000
6718,7,Jits_ISO_8,0,1,48,35,2482599556
6718,7,Jits_ISO_8,1,5,63,98,2482621924
6718,7,Jits_ISO_8,2,5,80,127,2482682240
6718,7,Jits_ISO_8,3,5,56,103,2482701712
6718,7,Jits_ISO_8,0,1,48,35,2483357240
6718,7,Jits_ISO_8,1,5,63,98,2483381772
6718,7,Jits_ISO_8,2,5,56,103,2483431828
6718,7,Jits_ISO_8,3,5,80,127,2483441952
6718,7,Jits_ISO_8,0,1,48,35,2484152232
6718,7,Jits_ISO_8,1,5,56,103,2484212052
6718,7,Jits_ISO_8,2,5,80,127,2484222172
6718,7,Jits_ISO_8,3,5,63,98,2484321756
6718,7,Jits_ISO_8,0,5,80,127,2484971836
6718,7,Jits_ISO_8,1,5,63,98,2484982180
6718,7,Jits_ISO_8,2,1,48,35,2485006500
6718,7,Jits_ISO_8,3,5,56,103,2485131876
6718,7,Jits_ISO_8,0,5,63,98,2485781820
6718,7,Jits_ISO_8,1,1,48,39,2485798568
6718,7,Jits_ISO_8,2,5,80,127,2485821780
6718,7,Jits_ISO_8,3,5,56,103,2485901636
6718,7,Jits_ISO_8,0,5,56,103,2486572260
6718,7,Jits_ISO_8,1,1,48,34,2486618000
6718,7,Jits_ISO_8,2,5,80,127,2486671756
6718,7,Jits_ISO_8,3,5,63,98,2486692140
6718,7,Jits_ISO_8,0,1,48,35,2487417348
6718,7,Jits_ISO_8,1,5,80,127,2487431768
6718,7,Jits_ISO_8,2,5,56,103,2487441816
6718,7,Jits_ISO_8,3,5,63,98,2487531860
6718,7,Jits_ISO_8,0,1,48,34,2488185148
6718,7,Jits_ISO_8,1,5,56,103,2488232232
6718,7,Jits_ISO_8,2,5,63,98,2488251720
6718,7,Jits_ISO_8,3,5,80,127,2488331724
6718,7,Jits_ISO_8,0,1,48,37,2488970340
6718,7,Jits_ISO_8,1,5,63,98,2488981968
6718,7,Jits_ISO_8,2,5,56,103,2489071940
6718,7,Jits_ISO_8,3,5,80,127,2489075080
6718,7,Jits_ISO_8,0,1,48,34,2489794904
6718,7,Jits_ISO_8,1,5,56,103,2489812464
6718,7,Jits_ISO_8,2,5,80,127,2489871808
6718,7,Jits_ISO_8,3,5,63,98,2489882080
6718,7,Jits_ISO_8,0,1,48,39,2490602184
6718,7,Jits_ISO_8,1,5,80,127,2490662148
6718,7,Jits_ISO_8,2,5,56,103,2490671520
6718,7,Jits_ISO_8,3,5,63,98,2490674584
6718,7,Jits_ISO_8,0,1,48,34,2491411452
6718,7,Jits_ISO_8,1,5,56,103,2491422040
6718,7,Jits_ISO_8,2,5,80,127,2491432188
6718,7,Jits_ISO_8,3,5,63,98,2491451900
6718,7,Jits_ISO_8,0,5,63,98,2492192160
6718,7,Jits_ISO_8,1,1,48,34,2492211272
6718,7,Jits_ISO_8,2,5,80,127,2492251676
6718,7,Jits_ISO_8,3,5,56,103,2492301728
6718,7,Jits_ISO_8,0,1,48,35,2492990364
6718,7,Jits_ISO_8,1,5,63,98,2493071684
6718,7,Jits_ISO_8,2,5,56,103,2493082608
6718,7,Jits_ISO_8,3,5,80,127,2493132288
6718,7,Jits_ISO_8,0,5,63,98,2493772128
6718,7,Jits_ISO_8,1,1,48,32,2493784908
6718,7,Jits_ISO_8,2,5,80,127,2493791536
6718,7,Jits_ISO_8,3,5,56,103,2493801880
6718,7,Jits_ISO_8,0,1,48,33,2494563632
6718,7,Jits_ISO_8,1,5,63,98,2494571820
6718,7,Jits_ISO_8,2,5,80,127,2494575256
6718,7,Jits_ISO_8,3,5,56,103,2494611688
6718,7,Jits_ISO_8,0,1,48,33,2495347504
6718,7,Jits_ISO_8,1,5,63,98,2495442244
6718,7,Jits_ISO_8,2,5,80,127,2495471980
6718,7,Jits_ISO_8,3,5,56,103,2495482252
6718,7,Jits_ISO_8,0,5,56,103,2496191840
6718,7,Jits_ISO_8,1,1,48,40,2496197276
6718,7,Jits_ISO_8,2,5,80,127,2496221512
6718,7,Jits_ISO_8,3,5,63,98,2496252384
6718,7,Jits_ISO_8,0,1,48,34,2497003892
6718,7,Jits_ISO_8,1,5,63,98,2497091832
6718,7,Jits_ISO_8,2,5,56,103,2497131828
6718,7,Jits_ISO_8,3,5,80,127,2497134968
6718,7,Jits_ISO_8,0,5,80,127,2497792544
6718,7,Jits_ISO_8,1,1,48,37,2497801444
6718,7,Jits_ISO_8,2,5,56,103,2497872360
6718,7,Jits_ISO_8,3,5,63,98,2497922844
6718,7,Jits_ISO_8,0,5,80,127,2498571592
6718,7,Jits_ISO_8,1,5,56,103,2498592052
6718,7,Jits_ISO_8,2,1,48,38,2498649220
6718,7,Jits_ISO_8,3,5,63,98,2498682348
6718,7,Jits_ISO_8,0,5,80,127,2499412616
6718,7,Jits_ISO_8,1,5,63,98,2499452256
6718,7,Jits_ISO_8,2,1,48,33,2499467956
6718,7,Jits_ISO_8,3,5,56,103,2499492188
6718,7,Jits_ISO_8,0,5,63,98,2500182516
6718,7,Jits_ISO_8,1,1,48,37,2500207432
6718,7,Jits_ISO_8,2,5,80,127,2500241856
6718,7,Jits_ISO_8,3,5,56,103,2500271684
6718,7,Jits_ISO_8,0,5,56,103,2500982080
6718,7,Jits_ISO_8,1,1,48,37,2500993812
6718,7,Jits_ISO_8,2,5,80,127,2501011824
6718,7,Jits_ISO_8,3,5,63,98,2501102016
6718,7,Jits_ISO_8,0,5,56,103,2501791992
6718,7,Jits_ISO_8,1,1,48,37,2501808812
6718,7,Jits_ISO_8,2,5,80,127,2501901960
6718,7,Jits_ISO_8,3,5,63,98,2501932556
6718,7,Jits_ISO_8,0,5,56,103,2502641924
6718,7,Jits_ISO_8,1,1,48,32,2502652832
6718,7,Jits_ISO_8,2,5,63,98,2502701656
6718,7,Jits_ISO_8,3,5,80,127,2502732080
6718,7,Jits_ISO_8,0,5,56,103,2503412056
6718,7,Jits_ISO_8,1,1,48,34,2503436524
6718,7,Jits_ISO_8,2,5,63,98,2503481684
6718,7,Jits_ISO_8,3,5,80,127,2503502364
6718,7,Jits_ISO_8,0,5,80,127,2504182112
6718,7,Jits_ISO_8,1,5,63,98,2504201524
6718,7,Jits_ISO_8,2,1,48,40,2504206064
6718,7,Jits_ISO_8,3,5,56,103,2504251672
6718,7,Jits_ISO_8,0,9999,9999,9999,2409449560
6718,7,Jits_ISO_8,1,9999,9999,9999,2410249316
6718,7,Jits_ISO_8,2,9999,9999,9999,2411050088
6718,7,Jits_ISO_8,3,9999,9999,9999,2411849824
6718,7,Jits_ISO_8,4,9999,9999,9999,2412649532
6718,7,Jits_ISO_8,5,9999,9999,9999,2413449320
6718,7,Jits_ISO_8,6,9999,9999,9999,2414250072
6718,7,Jits_ISO_8,7,9999,9999,9999,2415049780
6718,7,Jits_ISO_8,8,9999,9999,9999,2415849568
6718,7,Jits_ISO_8,9,9999,9999,9999,2416649268
6718,7,Jits_ISO_8,10,9999,9999,9999,2417450104
6718,7,Jits_ISO_8,11,9999,9999,9999,2418249840
6718,7,Jits_ISO_8,12,9999,9999,9999,2419049568
6718,7,Jits_ISO_8,13,9999,9999,9999,2419849292
6718,7,Jits_ISO_8,14,9999,9999,9999,2420650036
6718,7,Jits_ISO_8,15,9999,9999,9999,2421449808
6718,7,Jits_ISO_8,16,9999,9999,9999,2422249576
6718,7,Jits_ISO_8,17,9999,9999,9999,2423049304
6718,7,Jits_ISO_8,18,9999,9999,9999,2423850068
6718,7,Jits_ISO_8,19,9999,9999,9999,2424649816
6718,7,Jits_ISO_8,20,9999,9999,9999,2425449524
6718,7,Jits_ISO_8,21,9999,9999,9999,2426249308
6718,7,Jits_ISO_8,22,9999,9999,9999,2427050072
6718,7,Jits_ISO_8,23,9999,9999,9999,2427849780
6718,7,Jits_ISO_8,24,9999,9999,9999,2428649560
6718,7,Jits_ISO_8,25,9999,9999,9999,2429449268
6718,7,Jits_ISO_8,26,9999,9999,9999,2430250096
6718,7,Jits_ISO_8,27,9999,9999,9999,2431049832
6718,7,Jits_ISO_8,28,9999,9999,9999,2431849540
6718,7,Jits_ISO_8,29,9999,9999,9999,2432649336
6718,7,Jits_ISO_8,30,9999,9999,9999,2433450092
6718,7,Jits_ISO_8,31,9999,9999,9999,2434249800
6718,7,Jits_ISO_8,32,9999,9999,9999,2435049580
6718,7,Jits_ISO_8,33,9999,9999,9999,2435849284
6718,7,Jits_ISO_8,34,9999,9999,9999,2436650080
6718,7,Jits_ISO_8,35,9999,9999,9999,2437449796
6718,7,Jits_ISO_8,36,9999,9999,9999,2438249592
6718,7,Jits_ISO_8,37,9999,9999,9999,2439049300
6718,7,Jits_ISO_8,38,9999,9999,9999,2439850064
6718,7,Jits_ISO_8,39,9999,9999,9999,2440649792
6718,7,Jits_ISO_8,40,9999,9999,9999,2441449592
6718,7,Jits_ISO_8,41,9999,9999,9999,2442249304
6718,7,Jits_ISO_8,42,9999,9999,9999,2443050080
6718,7,Jits_ISO_8,43,9999,9999,9999,2443849852
6718,7,Jits_ISO_8,44,9999,9999,9999,2444649544
6718,7,Jits_ISO_8,45,9999,9999,9999,2445449332
6718,7,Jits_ISO_8,46,9999,9999,9999,2446250088
6718,7,Jits_ISO_8,47,9999,9999,9999,2447049796
6718,7,Jits_ISO_8,48,9999,9999,9999,2447849580
6718,7,Jits_ISO_8,49,9999,9999,9999,2448649284
6718,7,Jits_ISO_8,50,9999,9999,9999,2449450068
6718,7,Jits_ISO_8,51,9999,9999,9999,2450249852
6718,7,Jits_ISO_8,52,9999,9999,9999,2451049564
6718,7,Jits_ISO_8,53,9999,9999,9999,2451849284
6718,7,Jits_ISO_8,54,9999,9999,9999,2452650036
6718,7,Jits_ISO_8,55,9999,9999,9999,2453449820
6718,7,Jits_ISO_8,56,9999,9999,9999,2454249528
6718,7,Jits_ISO_8,57,9999,9999,9999,2455049312
6718,7,Jits_ISO_8,58,9999,9999,9999,2455850092
6718,7,Jits_ISO_8,59,9999,9999,9999,2456649800
6718,7,Jits_ISO_8,60,9999,9999,9999,2457449584
6718,7,Jits_ISO_8,61,9999,9999,9999,2458249300
6718,7,Jits_ISO_8,62,9999,9999,9999,2459050068
6718,7,Jits_ISO_8,63,9999,9999,9999,2459849844
6718,7,Jits_ISO_8,64,9999,9999,9999,2460649556
6718,7,Jits_ISO_8,65,9999,9999,9999,2461449272
6718,7,Jits_ISO_8,66,9999,9999,9999,2462250072
6718,7,Jits_ISO_8,67,9999,9999,9999,2463049784
6718,7,Jits_ISO_8,68,9999,9999,9999,2463849556
6718,7,Jits_ISO_8,69,9999,9999,9999,2464649280
6718,7,Jits_ISO_8,70,9999,9999,9999,2465450044
6718,7,Jits_ISO_8,71,9999,9999,9999,2466249840
6718,7,Jits_ISO_8,72,9999,9999,9999,2467049544
6718,7,Jits_ISO_8,73,9999,9999,9999,2467849328
6718,7,Jits_ISO_8,74,9999,9999,9999,2468650048
6718,7,Jits_ISO_8,75,9999,9999,9999,2469449832
6718,7,Jits_ISO_8,76,9999,9999,9999,2470249540
6718,7,Jits_ISO_8,77,9999,9999,9999,2471049340
6718,7,Jits_ISO_8,78,9999,9999,9999,2471850104
6718,7,Jits_ISO_8,79,9999,9999,9999,2472649804
6718,7,Jits_ISO_8,80,9999,9999,9999,2473449528
6718,7,Jits_ISO_8,81,9999,9999,9999,2474249312
6718,7,Jits_ISO_8,82,9999,9999,9999,2475050092
6718,7,Jits_ISO_8,83,9999,9999,9999,2475849800
6718,7,Jits_ISO_8,84,9999,9999,9999,2476649576
6718,7,Jits_ISO_8,85,9999,9999,9999,2477449292
6718,7,Jits_ISO_8,86,9999,9999,9999,2478250048
6718,7,Jits_ISO_8,87,9999,9999,9999,2479049828
6718,7,Jits_ISO_8,88,9999,9999,9999,2479849532
6718,7,Jits_ISO_8,89,9999,9999,9999,2480649328
6718,7,Jits_ISO_8,90,9999,9999,9999,2481450040
6718,7,Jits_ISO_8,91,9999,9999,9999,2482249824
6718,7,Jits_ISO_8,92,9999,9999,9999,2483049548
6718,7,Jits_ISO_8,93,9999,9999,9999,2483849328
6718,7,Jits_ISO_8,94,9999,9999,9999,2484650088
6718,7,Jits_ISO_8,95,9999,9999,9999,2485449796
6718,7,Jits_ISO_8,96,9999,9999,9999,2486249592
6718,7,Jits_ISO_8,97,9999,9999,9999,2487049300
6718,7,Jits_ISO_8,98,9999,9999,9999,2487850100
6718,7,Jits_ISO_8,99,9999,9999,9999,2488649816
6718,7,Jits_ISO_8,100,9999,9999,9999,2489449592
6718,7,Jits_ISO_8,101,9999,9999,9999,2490249304
6718,7,Jits_ISO_8,102,9999,9999,9999,2491050104
6718,7,Jits_ISO_8,103,9999,9999,9999,2491849812
6718,7,Jits_ISO_8,104,9999,9999,9999,2492649596
6718,7,Jits_ISO_8,105,9999,9999,9999,2493449312
6718,7,Jits_ISO_8,106,9999,9999,9999,2494250084
6718,7,Jits_ISO_8,107,9999,9999,9999,2495049852
6718,7,Jits_ISO_8,108,9999,9999,9999,2495849564
6718,7,Jits_ISO_8,109,9999,9999,9999,2496649276
6718,7,Jits_ISO_8,110,9999,9999,9999,2497450048
6718,7,Jits_ISO_8,111,9999,9999,9999,2498249832
6718,7,Jits_ISO_8,112,9999,9999,9999,2499049552
6718,7,Jits_ISO_8,113,9999,9999,9999,2499849276
6718,7,Jits_ISO_8,114,9999,9999,9999,2500650068
6718,7,Jits_ISO_8,115,9999,9999,9999,2501449776
6718,7,Jits_ISO_8,116,9999,9999,9999,2502249580
6718,7,Jits_ISO_8,117,9999,9999,9999,2503049312
6718,7,Jits_ISO_8,118,9999,9999,9999,2503850088
6718,7,Jits_ISO_8,119,9999,9999,9999,2504649808
6719,16,Jits_ISO_5,0,5,56,103,2514268484
6719,16,Jits_ISO_5,1,5,63,98,2514271580
6719,16,Jits_ISO_5,2,5,80,127,2514274780
6719,16,Jits_ISO_5,0,5,56,103,2514769476
6719,16,Jits_ISO_5,1,5,63,98,2514772428
6719,16,Jits_ISO_5,2,5,80,127,2514775620
6719,16,Jits_ISO_5,3,1,48,32,2514958612
6719,16,Jits_ISO_5,0,5,56,103,2515269148
6719,16,Jits_ISO_5,1,5,80,127,2515279420
6719,16,Jits_ISO_5,2,5,63,98,2515298532
6719,16,Jits_ISO_5,3,1,48,37,2515354232
6719,16,Jits_ISO_5,0,5,63,98,2515718456
6719,16,Jits_ISO_5,1,5,80,127,2515749476
6719,16,Jits_ISO_5,2,5,56,103,2515758428
6719,16,Jits_ISO_5,3,1,48,43,2515842816
6719,16,Jits_ISO_5,0,5,80,127,2516278600
6719,16,Jits_ISO_5,1,5,56,103,2516289016
6719,16,Jits_ISO_5,2,1,48,45,2516305540
6719,16,Jits_ISO_5,3,5,63,98,2516318608
6719,16,Jits_ISO_5,0,5,63,98,2516769256
6719,16,Jits_ISO_5,1,5,56,103,2516798808
6719,16,Jits_ISO_5,2,1,48,48,2516801708
6719,16,Jits_ISO_5,3,5,80,127,2516809220
6719,16,Jits_ISO_5,0,5,56,103,2517218652
6719,16,Jits_ISO_5,1,5,63,98,2517268704
6719,16,Jits_ISO_5,2,1,48,52,2517270044
6719,16,Jits_ISO_5,3,5,80,127,2517289180
6719,16,Jits_ISO_5,0,5,80,127,2517719372
6719,16,Jits_ISO_5,1,1,48,54,2517756792
6719,16,Jits_ISO_5,2,5,63,98,2517768520
6719,16,Jits_ISO_5,3,5,56,103,2517808556
6719,16,Jits_ISO_5,0,5,56,103,2518219116
6719,16,Jits_ISO_5,1,5,63,98,2518248720
6719,16,Jits_ISO_5,2,5,80,127,2518318420
6719,16,Jits_ISO_5,3,1,48,51,2518323636
6719,16,Jits_ISO_5,0,5,56,103,2518718796
6719,16,Jits_ISO_5,1,1,48,37,2518778732
6719,16,Jits_ISO_5,2,5,80,127,2518780376
6719,16,Jits_ISO_5,3,5,63,98,2518809224
6719,16,Jits_ISO_5,0,5,56,103,2519228660
6719,16,Jits_ISO_5,1,5,63,98,2519239376
6719,16,Jits_ISO_5,2,1,48,48,2519271340
6719,16,Jits_ISO_5,3,5,80,127,2519279156
6719,16,Jits_ISO_5,0,5,63,98,2519719260
6719,16,Jits_ISO_5,1,1,48,45,2519730700
6719,16,Jits_ISO_5,2,5,80,127,2519799124
6719,16,Jits_ISO_5,3,5,56,103,2519809320
6719,16,Jits_ISO_5,0,5,63,98,2520269268
6719,16,Jits_ISO_5,1,1,48,42,2520275084
6719,16,Jits_ISO_5,2,5,56,103,2520309352
6719,16,Jits_ISO_5,3,5,80,127,2520312412
6719,16,Jits_ISO_5,0,5,56,103,2520729136
6719,16,Jits_ISO_5,1,5,63,98,2520739108
6719,16,Jits_ISO_5,2,1,48,54,2520779564
6719,16,Jits_ISO_5,3,5,80,127,2520780756
6719,16,Jits_ISO_5,0,5,56,103,2521218396
6719,16,Jits_ISO_5,1,5,63,98,2521221460
6719,16,Jits_ISO_5,2,5,80,127,2521238852
6719,16,Jits_ISO_5,3,1,48,48,2521241444
6719,16,Jits_ISO_5,0,1,48,60,2521722660
6719,16,Jits_ISO_5,1,5,80,127,2521729284
6719,16,Jits_ISO_5,2,5,56,103,2521738580
6719,16,Jits_ISO_5,3,5,63,98,2521809380
6719,16,Jits_ISO_5,0,5,63,98,2522218980
6719,16,Jits_ISO_5,1,5,56,103,2522239292
6719,16,Jits_ISO_5,2,1,48,46,2522270432
6719,16,Jits_ISO_5,3,5,80,127,2522319300
6719,16,Jits_ISO_5,0,5,56,103,2522728756
6719,16,Jits_ISO_5,1,1,48,54,2522755016
6719,16,Jits_ISO_5,2,5,80,127,2522768688
6719,16,Jits_ISO_5,3,5,63,98,2522779108
6719,16,Jits_ISO_5,0,5,80,127,2523219284
6719,16,Jits_ISO_5,1,5,63,98,2523249184
6719,16,Jits_ISO_5,2,1,48,48,2523259352
6719,16,Jits_ISO_5,3,5,56,103,2523289040
6719,16,Jits_ISO_5,0,5,56,103,2523738360
6719,16,Jits_ISO_5,1,1,48,41,2523753160
6719,16,Jits_ISO_5,2,5,63,98,2523769300
6719,16,Jits_ISO_5,3,5,80,127,2523819500
6719,16,Jits_ISO_5,0,1,48,48,2524229088
6719,16,Jits_ISO_5,1,5,80,127,2524239076
6719,16,Jits_ISO_5,2,5,56,103,2524279316
6719,16,Jits_ISO_5,3,5,63,98,2524289360
6719,16,Jits_ISO_5,0,5,80,127,2524718440
6719,16,Jits_ISO_5,1,1,48,48,2524745524
6719,16,Jits_ISO_5,2,5,63,98,2524759420
6719,16,Jits_ISO_5,3,5,56,103,2524818908
6719,16,Jits_ISO_5,0,5,56,103,2525219060
6719,16,Jits_ISO_5,1,5,80,127,2525229356
6719,16,Jits_ISO_5,2,1,48,48,2525272776
6719,16,Jits_ISO_5,3,5,63,98,2525309364
6719,16,Jits_ISO_5,0,5,80,127,2525719032
6719,16,Jits_ISO_5,1,5,63,98,2525779224
6719,16,Jits_ISO_5,2,1,48,47,2525780188
6719,16,Jits_ISO_5,3,5,56,103,2525808964
6719,16,Jits_ISO_5,0,5,56,103,2526218556
6719,16,Jits_ISO_5,1,1,48,40,2526267860
6719,16,Jits_ISO_5,2,5,80,127,2526278968
6719,16,Jits_ISO_5,3,5,63,98,2526319128
6719,16,Jits_ISO_5,0,1,48,37,2526763176
6719,16,Jits_ISO_5,1,5,56,103,2526768452
6719,16,Jits_ISO_5,2,5,63,98,2526778720
6719,16,Jits_ISO_5,3,5,80,127,2526782232
6719,16,Jits_ISO_5,0,5,80,127,2527219008
6719,16,Jits_ISO_5,1,1,48,44,2527280216
6719,16,Jits_ISO_5,2,5,63,98,2527309232
6719,16,Jits_ISO_5,3,5,56,103,2527319504
6719,16,Jits_ISO_5,0,5,56,103,2527718736
6719,16,Jits_ISO_5,1,5,63,98,2527722212
6719,16,Jits_ISO_5,2,5,80,127,2527725180
6719,16,Jits_ISO_5,3,1,48,44,2527785560
6719,16,Jits_ISO_5,0,5,80,127,2528239080
6719,16,Jits_ISO_5,1,1,48,43,2528256444
6719,16,Jits_ISO_5,2,5,63,98,2528289276
6719,16,Jits_ISO_5,3,5,56,103,2528318828
6719,16,Jits_ISO_5,0,5,56,103,2528719128
6719,16,Jits_ISO_5,1,5,80,127,2528728576
6719,16,Jits_ISO_5,2,1,48,40,2528752368
6719,16,Jits_ISO_5,3,5,63,98,2528798996
6719,16,Jits_ISO_5,0,1,48,42,2529223032
6719,16,Jits_ISO_5,1,5,56,103,2529229056
6719,16,Jits_ISO_5,2,5,63,98,2529248620
6719,16,Jits_ISO_5,3,5,80,127,2529309152
6719,16,Jits_ISO_5,0,5,80,127,2529718536
6719,16,Jits_ISO_5,1,1,48,41,2529722176
6719,16,Jits_ISO_5,2,5,63,98,2529789256
6719,16,Jits_ISO_5,3,5,56,103,2529808740
6719,16,Jits_ISO_5,0,1,48,45,2530225208
6719,16,Jits_ISO_5,1,5,80,127,2530238952
6719,16,Jits_ISO_5,2,5,56,103,2530249148
6719,16,Jits_ISO_5,3,5,63,98,2530259268
6719,16,Jits_ISO_5,0,1,48,39,2530717308
6719,16,Jits_ISO_5,1,5,80,127,2530729392
6719,16,Jits_ISO_5,2,5,56,103,2530748656
6719,16,Jits_ISO_5,3,5,63,98,2530818392
6719,16,Jits_ISO_5,0,5,56,103,2531239396
6719,16,Jits_ISO_5,1,1,48,44,2531252104
6719,16,Jits_ISO_5,2,5,80,127,2531269140
6719,16,Jits_ISO_5,3,5,63,98,2531288404
6719,16,Jits_ISO_5,0,5,63,98,2531728880
6719,16,Jits_ISO_5,1,1,48,41,2531742116
6719,16,Jits_ISO_5,2,5,56,103,2531789116
6719,16,Jits_ISO_5,3,5,80,127,2531818940
6719,16,Jits_ISO_5,0,5,63,98,2532219176
6719,16,Jits_ISO_5,1,5,80,127,2532222464
6719,16,Jits_ISO_5,2,1,48,35,2532244092
6719,16,Jits_ISO_5,3,5,56,103,2532309296
6719,16,Jits_ISO_5,0,1,48,42,2532728236
6719,16,Jits_ISO_5,1,5,56,103,2532738376
6719,16,Jits_ISO_5,2,5,63,98,2532769244
6719,16,Jits_ISO_5,3,5,80,127,2532809108
6719,16,Jits_ISO_5,0,1,48,47,2533228944
6719,16,Jits_ISO_5,1,5,63,98,2533239008
6719,16,Jits_ISO_5,2,5,56,103,2533279320
6719,16,Jits_ISO_5,3,5,80,127,2533298508
6719,16,Jits_ISO_5,0,1,48,45,2533734812
6719,16,Jits_ISO_5,1,5,63,98,2533749080
6719,16,Jits_ISO_5,2,5,56,103,2533789092
6719,16,Jits_ISO_5,3,5,80,127,2533799364
6719,16,Jits_ISO_5,0,5,80,127,2534229344
6719,16,Jits_ISO_5,1,1,48,46,2534247532
6719,16,Jits_ISO_5,2,5,63,98,2534299092
6719,16,Jits_ISO_5,3,5,56,103,2534318356
6719,16,Jits_ISO_5,0,5,56,103,2534719060
6719,16,Jits_ISO_5,1,1,48,41,2534735136
6719,16,Jits_ISO_5,2,5,80,127,2534739436
6719,16,Jits_ISO_5,3,5,63,98,2534779224
6719,16,Jits_ISO_5,0,5,63,98,2535228844
6719,16,Jits_ISO_5,1,5,80,127,2535249228
6719,16,Jits_ISO_5,2,1,48,41,2535255936
6719,16,Jits_ISO_5,3,5,56,103,2535289232
6719,16,Jits_ISO_5,0,5,63,98,2535728504
6719,16,Jits_ISO_5,1,5,56,103,2535748964
6719,16,Jits_ISO_5,2,5,80,127,2535759308
6719,16,Jits_ISO_5,3,1,48,41,2535769992
6719,16,Jits_ISO_5,0,5,80,127,2536229184
6719,16,Jits_ISO_5,1,1,48,41,2536239276
6719,16,Jits_ISO_5,2,5,56,103,2536248588
6719,16,Jits_ISO_5,3,5,63,98,2536279384
6719,16,Jits_ISO_5,0,1,48,41,2536751224
6719,16,Jits_ISO_5,1,5,56,103,2536798524
6719,16,Jits_ISO_5,2,5,80,127,2536801592
6719,16,Jits_ISO_5,3,5,63,98,2536818908
6719,16,Jits_ISO_5,0,5,63,98,2537218372
6719,16,Jits_ISO_5,1,5,56,103,2537249244
6719,16,Jits_ISO_5,2,1,48,35,2537284676
6719,16,Jits_ISO_5,3,5,80,127,2537308528
6719,16,Jits_ISO_5,0,1,48,39,2537727664
6719,16,Jits_ISO_5,1,5,63,98,2537798888
6719,16,Jits_ISO_5,2,5,56,103,2537809236
6719,16,Jits_ISO_5,3,5,80,127,2537818456
6719,16,Jits_ISO_5,0,5,56,103,2538248784
6719,16,Jits_ISO_5,1,1,48,46,2538254448
6719,16,Jits_ISO_5,2,5,80,127,2538279372
6719,16,Jits_ISO_5,3,5,63,98,2538288448
6719,16,Jits_ISO_5,0,1,48,40,2538750968
6719,16,Jits_ISO_5,1,5,63,98,2538789132
6719,16,Jits_ISO_5,2,5,56,103,2538798432
6719,16,Jits_ISO_5,3,5,80,127,2538819036
6719,16,Jits_ISO_5,0,5,56,103,2539219252
6719,16,Jits_ISO_5,1,1,48,46,2539253836
6719,16,Jits_ISO_5,2,5,63,98,2539279040
6719,16,Jits_ISO_5,3,5,80,127,2539282252
6719,16,Jits_ISO_5,0,1,48,41,2539718216
6719,16,Jits_ISO_5,1,5,80,127,2539738392
6719,16,Jits_ISO_5,2,5,56,103,2539748664
6719,16,Jits_ISO_5,3,5,63,98,2539819396
6719,16,Jits_ISO_5,0,5,80,127,2540229068
6719,16,Jits_ISO_5,1,1,48,39,2540254808
6719,16,Jits_ISO_5,2,5,56,103,2540298520
6719,16,Jits_ISO_5,3,5,63,98,2540308936
6719,16,Jits_ISO_5,0,1,48,43,2540727064
6719,16,Jits_ISO_5,1,5,63,98,2540768668
6719,16,Jits_ISO_5,2,5,56,103,2540779088
6719,16,Jits_ISO_5,3,5,80,127,2540799248
6719,16,Jits_ISO_5,0,5,80,127,2541219264
6719,16,Jits_ISO_5,1,1,48,43,2541220824
6719,16,Jits_ISO_5,2,5,63,98,2541278452
6719,16,Jits_ISO_5,3,5,56,103,2541319272
6719,16,Jits_ISO_5,0,1,48,45,2541729996
6719,16,Jits_ISO_5,1,5,56,103,2541759012
6719,16,Jits_ISO_5,2,5,63,98,2541769208
6719,16,Jits_ISO_5,3,5,80,127,2541809144
6719,16,Jits_ISO_5,0,5,56,103,2542218524
6719,16,Jits_ISO_5,1,5,80,127,2542249248
6719,16,Jits_ISO_5,2,1,48,42,2542274532
6719,16,Jits_ISO_5,3,5,63,98,2542298392
6719,16,Jits_ISO_5,0,1,48,45,2542711268
6719,16,Jits_ISO_5,1,5,56,103,2542759172
6719,16,Jits_ISO_5,2,5,63,98,2542799256
6719,16,Jits_ISO_5,3,5,80,127,2542803428
6719,16,Jits_ISO_5,0,1,48,41,2543211744
6719,16,Jits_ISO_5,1,5,56,103,2543258900
6719,16,Jits_ISO_5,2,5,63,98,2543269316
6719,16,Jits_ISO_5,3,5,80,127,2543289100
6719,16,Jits_ISO_5,0,1,48,40,2543683228
6719,16,Jits_ISO_5,1,5,56,103,2543718920
6719,16,Jits_ISO_5,2,5,80,127,2543722060
6719,16,Jits_ISO_5,3,5,63,98,2543758636
6719,16,Jits_ISO_5,0,1,48,38,2544138052
6719,16,Jits_ISO_5,1,5,63,98,2544258484
6719,16,Jits_ISO_5,2,5,56,103,2544289208
6719,16,Jits_ISO_5,3,5,80,127,2544308472
6719,16,Jits_ISO_5,0,1,48,40,2544673968
6719,16,Jits_ISO_5,1,5,80,127,2544728492
6719,16,Jits_ISO_5,2,5,56,103,2544738764
6719,16,Jits_ISO_5,3,5,63,98,2544748884
6719,16,Jits_ISO_5,0,1,48,35,2545225264
6719,16,Jits_ISO_5,1,5,56,103,2545229340
6719,16,Jits_ISO_5,2,5,80,127,2545269132
6719,16,Jits_ISO_5,3,5,63,98,2545299104
6719,16,Jits_ISO_5,0,1,48,41,2545711816
6719,16,Jits_ISO_5,1,5,63,98,2545739116
6719,16,Jits_ISO_5,2,5,80,127,2545749312
6719,16,Jits_ISO_5,3,5,56,103,2545758464
6719,16,Jits_ISO_5,0,5,56,103,2546219376
6719,16,Jits_ISO_5,1,1,48,39,2546227300
6719,16,Jits_ISO_5,2,5,63,98,2546289124
6719,16,Jits_ISO_5,3,5,80,127,2546299172
6719,16,Jits_ISO_5,0,5,80,127,2546719176
6719,16,Jits_ISO_5,1,5,56,103,2546729396
6719,16,Jits_ISO_5,2,1,48,38,2546740832
6719,16,Jits_ISO_5,3,5,63,98,2546778468
6719,16,Jits_ISO_5,0,5,80,127,2547229036
6719,16,Jits_ISO_5,1,1,48,46,2547245436
6719,16,Jits_ISO_5,2,1,48,40,2547275980
6719,16,Jits_ISO_5,3,5,56,103,2547288300
6719,16,Jits_ISO_5,4,5,63,98,2547319020
6719,16,Jits_ISO_5,0,5,56,103,2547729100
6719,16,Jits_ISO_5,1,5,80,127,2547731864
6719,16,Jits_ISO_5,2,1,48,35,2547764232
6719,16,Jits_ISO_5,3,5,63,98,2547768904
6719,16,Jits_ISO_5,0,1,48,44,2548224228
6719,16,Jits_ISO_5,1,5,56,103,2548259324
6719,16,Jits_ISO_5,2,5,63,98,2548289072
6719,16,Jits_ISO_5,3,5,80,127,2548299116
6719,16,Jits_ISO_5,0,1,48,44,2548768624
6719,16,Jits_ISO_5,1,5,63,98,2548770116
6719,16,Jits_ISO_5,2,5,80,127,2548779364
6719,16,Jits_ISO_5,3,5,56,103,2548788812
6719,16,Jits_ISO_5,0,5,80,127,2549218764
6719,16,Jits_ISO_5,1,1,48,43,2549261140
6719,16,Jits_ISO_5,2,5,56,103,2549268884
6719,16,Jits_ISO_5,3,5,63,98,2549271804
6719,16,Jits_ISO_5,0,1,48,45,2549742668
6719,16,Jits_ISO_5,1,5,56,103,2549749136
6719,16,Jits_ISO_5,2,5,80,127,2549768700
6719,16,Jits_ISO_5,3,5,63,98,2549778820
6719,16,Jits_ISO_5,0,5,63,98,2550229400
6719,16,Jits_ISO_5,1,5,56,103,2550259000
6719,16,Jits_ISO_5,2,1,48,43,2550278784
6719,16,Jits_ISO_5,3,5,80,127,2550279972
6719,16,Jits_ISO_5,0,1,48,40,2550696648
6719,16,Jits_ISO_5,1,5,56,103,2550739316
6719,16,Jits_ISO_5,2,5,80,127,2550748464
6719,16,Jits_ISO_5,3,5,63,98,2550819172
6719,16,Jits_ISO_5,0,5,63,98,2551228940
6719,16,Jits_ISO_5,1,1,48,45,2551231028
6719,16,Jits_ISO_5,2,5,80,127,2551268800
6719,16,Jits_ISO_5,3,5,56,103,2551308808
6719,16,Jits_ISO_5,0,1,48,40,2551710064
6719,16,Jits_ISO_5,1,5,56,103,2551739008
6719,16,Jits_ISO_5,2,5,63,98,2551748908
6719,16,Jits_ISO_5,3,5,80,127,2551768468
6719,16,Jits_ISO_5,0,1,48,37,2552197296
6719,16,Jits_ISO_5,1,5,63,98,2552279428
6719,16,Jits_ISO_5,2,5,80,127,2552298972
6719,16,Jits_ISO_5,3,5,56,103,2552319356
6719,16,Jits_ISO_5,0,1,48,42,2552710812
6719,16,Jits_ISO_5,1,5,56,103,2552718856
6719,16,Jits_ISO_5,2,5,80,127,2552798800
6719,16,Jits_ISO_5,3,5,63,98,2552808904
6719,16,Jits_ISO_5,0,5,80,127,2553259280
6719,16,Jits_ISO_5,1,1,48,45,2553261948
6719,16,Jits_ISO_5,2,5,63,98,2553268796
6719,16,Jits_ISO_5,3,5,56,103,2553299292
6719,16,Jits_ISO_5,0,5,63,98,2553719248
6719,16,Jits_ISO_5,1,1,48,36,2553737880
6719,16,Jits_ISO_5,2,5,80,127,2553759032
6719,16,Jits_ISO_5,3,5,56,103,2553818372
6719,16,Jits_ISO_5,0,5,63,98,2554229172
6719,16,Jits_ISO_5,1,5,56,103,2554279300
6719,16,Jits_ISO_5,2,1,48,39,2554291336
6719,16,Jits_ISO_5,3,5,80,127,2554309040
6719,16,Jits_ISO_5,0,5,80,127,2554739024
6719,16,Jits_ISO_5,1,5,63,98,2554749444
6719,16,Jits_ISO_5,2,1,48,38,2554755404
6719,16,Jits_ISO_5,3,1,48,34,2554798544
6719,16,Jits_ISO_5,4,5,56,103,2554818796
6719,16,Jits_ISO_5,0,1,48,39,2555305504
6719,16,Jits_ISO_5,1,5,80,127,2555309284
6719,16,Jits_ISO_5,2,5,56,103,2555318656
6719,16,Jits_ISO_5,3,5,63,98,2555321944
6719,16,Jits_ISO_5,0,5,56,103,2555748940
6719,16,Jits_ISO_5,1,1,48,42,2555769696
6719,16,Jits_ISO_5,2,5,80,127,2555770892
6719,16,Jits_ISO_5,3,5,63,98,2555778392
6719,16,Jits_ISO_5,0,1,48,39,2556255992
6719,16,Jits_ISO_5,1,5,63,98,2556258652
6719,16,Jits_ISO_5,2,1,48,32,2556294344
6719,16,Jits_ISO_5,3,5,56,103,2556298868
6719,16,Jits_ISO_5,4,5,80,127,2556318952
6719,16,Jits_ISO_5,0,5,63,98,2556759460
6719,16,Jits_ISO_5,1,1,48,40,2556779740
6719,16,Jits_ISO_5,2,5,56,103,2556818792
6719,16,Jits_ISO_5,3,5,80,127,2556821860
6719,16,Jits_ISO_5,0,5,56,103,2557219232
6719,16,Jits_ISO_5,1,5,80,127,2557238816
6719,16,Jits_ISO_5,2,1,48,35,2557260820
6719,16,Jits_ISO_5,3,5,63,98,2557278672
6719,16,Jits_ISO_5,0,1,48,38,2557699168
6719,16,Jits_ISO_5,1,5,56,103,2557748812
6719,16,Jits_ISO_5,2,5,63,98,2557769048
6719,16,Jits_ISO_5,3,5,80,127,2557779168
6719,16,Jits_ISO_5,0,5,80,127,2558218712
6719,16,Jits_ISO_5,1,1,48,38,2558230824
6719,16,Jits_ISO_5,2,5,56,103,2558249304
6719,16,Jits_ISO_5,3,5,63,98,2558289240
6719,16,Jits_ISO_5,0,1,48,36,2558691152
6719,16,Jits_ISO_5,1,1,48,37,2558722672
6719,16,Jits_ISO_5,2,5,80,127,2558728768
6719,16,Jits_ISO_5,3,5,56,103,2558749004
6719,16,Jits_ISO_5,4,5,63,98,2558808668
6719,16,Jits_ISO_5,0,1,48,38,2559208964
6719,16,Jits_ISO_5,1,5,56,103,2559238728
6719,16,Jits_ISO_5,2,5,80,127,2559258892
6719,16,Jits_ISO_5,3,5,63,98,2559319436
6719,16,Jits_ISO_5,0,1,48,39,2559686892
6719,16,Jits_ISO_5,1,5,80,127,2559718756
6719,16,Jits_ISO_5,2,5,56,103,2559728948
6719,16,Jits_ISO_5,3,5,63,98,2559769036
6719,16,Jits_ISO_5,0,1,48,38,2560214632
6719,16,Jits_ISO_5,1,5,63,98,2560218560
6719,16,Jits_ISO_5,2,5,56,103,2560258800
6719,16,Jits_ISO_5,3,5,80,127,2560261712
6719,16,Jits_ISO_5,0,1,48,38,2560680564
6719,16,Jits_ISO_5,1,5,63,98,2560738804
6719,16,Jits_ISO_5,2,5,80,127,2560778728
6719,16,Jits_ISO_5,3,5,56,103,2560809252
6719,16,Jits_ISO_5,0,1,48,40,2561216172
6719,16,Jits_ISO_5,1,5,56,103,2561229172
6719,16,Jits_ISO_5,2,5,63,98,2561239592
6719,16,Jits_ISO_5,3,5,80,127,2561268968
6719,16,Jits_ISO_5,0,1,48,42,2561705192
6719,16,Jits_ISO_5,1,5,80,127,2561718636
6719,16,Jits_ISO_5,2,5,63,98,2561789440
6719,16,Jits_ISO_5,3,5,56,103,2561798592
6719,16,Jits_ISO_5,0,1,48,41,2562206492
6719,16,Jits_ISO_5,1,5,63,98,2562219344
6719,16,Jits_ISO_5,2,1,48,30,2562245068
6719,16,Jits_ISO_5,3,5,56,103,2562289004
6719,16,Jits_ISO_5,4,5,80,127,2562299196
6719,16,Jits_ISO_5,0,5,63,98,2562719100
6719,16,Jits_ISO_5,1,5,56,103,2562738660
6719,16,Jits_ISO_5,2,1,48,37,2562760208
6719,16,Jits_ISO_5,3,5,80,127,2562778588
6719,16,Jits_ISO_5,0,5,56,103,2563229164
6719,16,Jits_ISO_5,1,5,63,98,2563239360
6719,16,Jits_ISO_5,2,1,48,39,2563253564
6719,16,Jits_ISO_5,3,5,80,127,2563319292
6719,16,Jits_ISO_5,0,5,63,98,2563718648
6719,16,Jits_ISO_5,1,1,48,42,2563725204
6719,16,Jits_ISO_5,2,5,56,103,2563749140
6719,16,Jits_ISO_5,3,5,80,127,2563789148
6719,16,Jits_ISO_5,0,5,56,103,2564219128
6719,16,Jits_ISO_5,1,1,48,42,2564242772
6719,16,Jits_ISO_5,2,5,63,98,2564259060
6719,16,Jits_ISO_5,3,5,80,127,2564299144
6719,16,Jits_ISO_5,0,5,80,127,2564719096
6719,16,Jits_ISO_5,1,1,48,42,2564722216
6719,16,Jits_ISO_5,2,5,56,103,2564798884
6719,16,Jits_ISO_5,3,5,63,98,2564809004
6719,16,Jits_ISO_5,0,1,48,43,2565255444
6719,16,Jits_ISO_5,1,5,56,103,2565258852
6719,16,Jits_ISO_5,2,5,63,98,2565261912
6719,16,Jits_ISO_5,3,5,80,127,2565268816
6719,16,Jits_ISO_5,0,1,48,41,2565746396
6719,16,Jits_ISO_5,1,5,56,103,2565778724
6719,16,Jits_ISO_5,2,5,63,98,2565799408
6719,16,Jits_ISO_5,3,5,80,127,2565808704
6719,16,Jits_ISO_5,0,5,63,98,2566238536
6719,16,Jits_ISO_5,1,5,80,127,2566248880
6719,16,Jits_ISO_5,2,1,48,46,2566254392
6719,16,Jits_ISO_5,3,5,56,103,2566269184
6719,16,Jits_ISO_5,0,5,63,98,2566739240
6719,16,Jits_ISO_5,1,1,48,41,2566769112
6719,16,Jits_ISO_5,2,5,56,103,2566819252
6719,16,Jits_ISO_5,3,5,80,127,2566822244
6719,16,Jits_ISO_5,0,1,48,44,2567231436
6719,16,Jits_ISO_5,1,5,63,98,2567238888
6719,16,Jits_ISO_5,2,5,56,103,2567258744
6719,16,Jits_ISO_5,3,5,80,127,2567289092
6719,16,Jits_ISO_5,0,1,48,32,2567714732
6719,16,Jits_ISO_5,1,5,56,103,2567738840
6719,16,Jits_ISO_5,2,5,63,98,2567759152
6719,16,Jits_ISO_5,3,5,80,127,2567768600
6719,16,Jits_ISO_5,0,1,48,42,2568179112
6719,16,Jits_ISO_5,1,5,56,103,2568269288
6719,16,Jits_ISO_5,2,5,63,98,2568298720
6719,16,Jits_ISO_5,3,5,80,127,2568302016
6719,16,Jits_ISO_5,0,1,48,40,2568700120
6719,16,Jits_ISO_5,1,5,56,103,2568718796
6719,16,Jits_ISO_5,2,5,63,98,2568758836
6719,16,Jits_ISO_5,3,5,80,127,2568819132
6719,16,Jits_ISO_5,0,1,48,41,2569163508
6719,16,Jits_ISO_5,1,5,56,103,2569238836
6719,16,Jits_ISO_5,2,5,63,98,2569249036
6719,16,Jits_ISO_5,3,5,80,127,2569308532
6719,16,Jits_ISO_5,0,1,48,43,2569653280
6719,16,Jits_ISO_5,1,5,56,103,2569738496
6719,16,Jits_ISO_5,2,5,80,127,2569759016
6719,16,Jits_ISO_5,3,5,63,98,2569788788
6719,16,Jits_ISO_5,0,1,48,41,2570171288
6719,16,Jits_ISO_5,1,5,80,127,2570239344
6719,16,Jits_ISO_5,2,5,56,103,2570248492
6719,16,Jits_ISO_5,3,5,63,98,2570269084
6719,16,Jits_ISO_5,0,1,48,45,2570640604
6719,16,Jits_ISO_5,1,5,63,98,2570728812
6719,16,Jits_ISO_5,2,5,80,127,2570808764
6719,16,Jits_ISO_5,3,5,56,103,2570819036
6719,16,Jits_ISO_5,0,1,48,41,2571172548
6719,16,Jits_ISO_5,1,5,80,127,2571288916
6719,16,Jits_ISO_5,2,5,56,103,2571309548
6719,16,Jits_ISO_5,3,5,63,98,2571312688
6719,16,Jits_ISO_5,0,1,48,41,2571655864
6719,16,Jits_ISO_5,1,5,63,98,2571758900
6719,16,Jits_ISO_5,2,5,80,127,2571762264
6719,16,Jits_ISO_5,3,5,56,103,2571819384
6719,16,Jits_ISO_5,0,1,48,42,2572173500
6719,16,Jits_ISO_5,1,5,56,103,2572239160
6719,16,Jits_ISO_5,2,5,80,127,2572248536
6719,16,Jits_ISO_5,3,5,63,98,2572289652
6719,16,Jits_ISO_5,0,5,56,103,2572718596
6719,16,Jits_ISO_5,1,1,48,34,2572720536
6719,16,Jits_ISO_5,2,5,63,98,2572778904
6719,16,Jits_ISO_5,3,5,80,127,2572789024
6719,16,Jits_ISO_5,0,5,63,98,2573229652
6719,16,Jits_ISO_5,1,1,48,39,2573259900
6719,16,Jits_ISO_5,2,5,80,127,2573269288
6719,16,Jits_ISO_5,3,5,56,103,2573309372
6719,16,Jits_ISO_5,0,5,56,103,2573729012
6719,16,Jits_ISO_5,1,1,48,39,2573804348
6719,16,Jits_ISO_5,2,5,63,98,2573809024
6719,16,Jits_ISO_5,3,5,80,127,2573812536
6719,16,Jits_ISO_5,0,9999,9999,9999,2514517104
6719,16,Jits_ISO_5,1,9999,9999,9999,2515016820
6719,16,Jits_ISO_5,2,9999,9999,9999,2515516484
6719,16,Jits_ISO_5,3,9999,9999,9999,2516016228
6719,16,Jits_ISO_5,4,9999,9999,9999,2516516916
6719,16,Jits_ISO_5,5,9999,9999,9999,2517016672
6719,16,Jits_ISO_5,6,9999,9999,9999,2517516404
6719,16,Jits_ISO_5,7,9999,9999,9999,2518016076
6719,16,Jits_ISO_5,8,9999,9999,9999,2518516796
6719,16,Jits_ISO_5,9,9999,9999,9999,2519016548
6719,16,Jits_ISO_5,10,9999,9999,9999,2519516220
6719,16,Jits_ISO_5,11,9999,9999,9999,2520017016
6719,16,Jits_ISO_5,12,9999,9999,9999,2520516672
6719,16,Jits_ISO_5,13,9999,9999,9999,2521016400
6719,16,Jits_ISO_5,14,9999,9999,9999,2521516132
6719,16,Jits_ISO_5,15,9999,9999,9999,2522016852
6719,16,Jits_ISO_5,16,9999,9999,9999,2522516584
6719,16,Jits_ISO_5,17,9999,9999,9999,2523016244
6719,16,Jits_ISO_5,18,9999,9999,9999,2523517036
6719,16,Jits_ISO_5,19,9999,9999,9999,2524016708
6719,16,Jits_ISO_5,20,9999,9999,9999,2524516460
6719,16,Jits_ISO_5,21,9999,9999,9999,2525016120
6719,16,Jits_ISO_5,22,9999,9999,9999,2525516912
6719,16,Jits_ISO_5,23,9999,9999,9999,2526016584
6719,16,Jits_ISO_5,24,9999,9999,9999,2526516336
6719,16,Jits_ISO_5,25,9999,9999,9999,2527017052
6719,16,Jits_ISO_5,26,9999,9999,9999,2527516764
6719,16,Jits_ISO_5,27,9999,9999,9999,2528016484
6719,16,Jits_ISO_5,28,9999,9999,9999,2528516160
6719,16,Jits_ISO_5,29,9999,9999,9999,2529016952
6719,16,Jits_ISO_5,30,9999,9999,9999,2529516624
6719,16,Jits_ISO_5,31,9999,9999,9999,2530016364
6719,16,Jits_ISO_5,32,9999,9999,9999,2530517080
6719,16,Jits_ISO_5,33,9999,9999,9999,2531016812
6719,16,Jits_ISO_5,34,9999,9999,9999,2531516476
6719,16,Jits_ISO_5,35,9999,9999,9999,2532016224
6719,16,Jits_ISO_5,36,9999,9999,9999,2532516920
6719,16,Jits_ISO_5,37,9999,9999,9999,2533016656
6719,16,Jits_ISO_5,38,9999,9999,9999,2533516388
6719,16,Jits_ISO_5,39,9999,9999,9999,2534016052
6719,16,Jits_ISO_5,40,9999,9999,9999,2534516836
6719,16,Jits_ISO_5,41,9999,9999,9999,2535016508
6719,16,Jits_ISO_5,42,9999,9999,9999,2535516256
6719,16,Jits_ISO_5,43,9999,9999,9999,2536016960
6719,16,Jits_ISO_5,44,9999,9999,9999,2536516668
6719,16,Jits_ISO_5,45,9999,9999,9999,2537016416
6719,16,Jits_ISO_5,46,9999,9999,9999,2537516148
6719,16,Jits_ISO_5,47,9999,9999,9999,2538016836
6719,16,Jits_ISO_5,48,9999,9999,9999,2538516568
6719,16,Jits_ISO_5,49,9999,9999,9999,2539016296
6719,16,Jits_ISO_5,50,9999,9999,9999,2539516996
6719,16,Jits_ISO_5,51,9999,9999,9999,2540016748
6719,16,Jits_ISO_5,52,9999,9999,9999,2540516408
6719,16,Jits_ISO_5,53,9999,9999,9999,2541016160
6719,16,Jits_ISO_5,54,9999,9999,9999,2541516868
6719,16,Jits_ISO_5,55,9999,9999,9999,2542016616
6719,16,Jits_ISO_5,56,9999,9999,9999,2542516272
6719,16,Jits_ISO_5,57,9999,9999,9999,2543017064
6719,16,Jits_ISO_5,58,9999,9999,9999,2543516724
6719,16,Jits_ISO_5,59,9999,9999,9999,2544016444
6719,16,Jits_ISO_5,60,9999,9999,9999,2544516180
6719,16,Jits_ISO_5,61,9999,9999,9999,2545016884
6719,16,Jits_ISO_5,62,9999,9999,9999,2545516616
6719,16,Jits_ISO_5,63,9999,9999,9999,2546016348
6719,16,Jits_ISO_5,64,9999,9999,9999,2546517052
6719,16,Jits_ISO_5,65,9999,9999,9999,2547016800
6719,16,Jits_ISO_5,66,9999,9999,9999,2547516532
6719,16,Jits_ISO_5,67,9999,9999,9999,2548016228
6719,16,Jits_ISO_5,68,9999,9999,9999,2548516928
6719,16,Jits_ISO_5,69,9999,9999,9999,2549016636
6719,16,Jits_ISO_5,70,9999,9999,9999,2549516356
6719,16,Jits_ISO_5,71,9999,9999,9999,2550016104
6719,16,Jits_ISO_5,72,9999,9999,9999,2550516812
6719,16,Jits_ISO_5,73,9999,9999,9999,2551016548
6719,16,Jits_ISO_5,74,9999,9999,9999,2551516280
6719,16,Jits_ISO_5,75,9999,9999,9999,2552016988
6719,16,Jits_ISO_5,76,9999,9999,9999,2552516732
6719,16,Jits_ISO_5,77,9999,9999,9999,2553016392
6719,16,Jits_ISO_5,78,9999,9999,9999,2553516128
6719,16,Jits_ISO_5,79,9999,9999,9999,2554016852
6719,16,Jits_ISO_5,80,9999,9999,9999,2554516588
6719,16,Jits_ISO_5,81,9999,9999,9999,2555016304
6719,16,Jits_ISO_5,82,9999,9999,9999,2555516988
6719,16,Jits_ISO_5,83,9999,9999,9999,2556016724
6719,16,Jits_ISO_5,84,9999,9999,9999,2556516460
6719,16,Jits_ISO_5,85,9999,9999,9999,2557016152
6719,16,Jits_ISO_5,86,9999,9999,9999,2557516856
6719,16,Jits_ISO_5,87,9999,9999,9999,2558016604
6719,16,Jits_ISO_5,88,9999,9999,9999,2558516336
6719,16,Jits_ISO_5,89,9999,9999,9999,2559017036
6719,16,Jits_ISO_5,90,9999,9999,9999,2559516788
6719,16,Jits_ISO_5,91,9999,9999,9999,2560016436
6719,16,Jits_ISO_5,92,9999,9999,9999,2560516160
6719,16,Jits_ISO_5,93,9999,9999,9999,2561016936
6719,16,Jits_ISO_5,94,9999,9999,9999,2561516664
6719,16,Jits_ISO_5,95,9999,9999,9999,2562016324
6719,16,Jits_ISO_5,96,9999,9999,9999,2562517080
6719,16,Jits_ISO_5,97,9999,9999,9999,2563016772
6719,16,Jits_ISO_5,98,9999,9999,9999,2563516504
6719,16,Jits_ISO_5,99,9999,9999,9999,2564016248
6719,16,Jits_ISO_5,100,9999,9999,9999,2564516952
6719,16,Jits_ISO_5,101,9999,9999,9999,2565016628
6719,16,Jits_ISO_5,102,9999,9999,9999,2565516368
6719,16,Jits_ISO_5,103,9999,9999,9999,2566016104
6719,16,Jits_ISO_5,104,9999,9999,9999,2566516808
6719,16,Jits_ISO_5,105,9999,9999,9999,2567016536
6719,16,Jits_ISO_5,106,9999,9999,9999,2567516268
6719,16,Jits_ISO_5,107,9999,9999,9999,2568016968
6719,16,Jits_ISO_5,108,9999,9999,9999,2568516696
6719,16,Jits_ISO_5,109,9999,9999,9999,2569016436
6719,16,Jits_ISO_5,110,9999,9999,9999,2569516096
6719,16,Jits_ISO_5,111,9999,9999,9999,2570016848
6719,16,Jits_ISO_5,112,9999,9999,9999,2570516572
6719,16,Jits_ISO_5,113,9999,9999,9999,2571016308
6719,16,Jits_ISO_5,114,9999,9999,9999,2571517012
6719,16,Jits_ISO_5,115,9999,9999,9999,2572016736
6719,16,Jits_ISO_5,116,9999,9999,9999,2572516464
6719,16,Jits_ISO_5,117,9999,9999,9999,2573016124
6719,16,Jits_ISO_5,118,9999,9999,9999,2573516920
6719,16,Jits_ISO_5,119,9999,9999,9999,2574016572
6720,3,ISIP_8,0,5,42,127,2630892756
6720,3,ISIP_8,1,5,42,127,2631692588
6720,3,ISIP_8,2,1,48,29,2631877560
6720,3,ISIP_8,3,5,42,127,2632493592
6720,3,ISIP_8,4,1,48,35,2632501500
6720,3,ISIP_8,5,1,48,39,2633258208
6720,3,ISIP_8,6,5,42,127,2633293020
6720,3,ISIP_8,7,1,48,39,2634040588
6720,3,ISIP_8,8,5,42,127,2634092828
6720,3,ISIP_8,9,1,48,41,2634771856
6720,3,ISIP_8,10,5,42,127,2634892624
6720,3,ISIP_8,11,1,48,43,2635569296
6720,3,ISIP_8,12,5,42,127,2635693624
6720,3,ISIP_8,13,1,48,49,2636350780
6720,3,ISIP_8,14,5,42,127,2636493060
6720,3,ISIP_8,15,1,48,40,2637108400
6720,3,ISIP_8,16,5,42,127,2637292796
6720,3,ISIP_8,17,1,48,46,2637957044
6720,3,ISIP_8,18,5,42,127,2638092600
6720,3,ISIP_8,19,1,48,45,2638750572
6720,3,ISIP_8,20,5,42,127,2638893704
6720,3,ISIP_8,21,1,48,41,2639522556
6720,3,ISIP_8,22,5,42,127,2639693140
6720,3,ISIP_8,23,1,48,45,2640272104
6720,3,ISIP_8,24,5,42,127,2640492876
6720,3,ISIP_8,25,1,48,40,2641100480
6720,3,ISIP_8,26,5,42,127,2641292684
6720,3,ISIP_8,27,1,48,44,2641891396
6720,3,ISIP_8,28,5,42,127,2642093612
6720,3,ISIP_8,29,1,48,42,2642673392
6720,3,ISIP_8,30,5,42,127,2642893416
6720,3,ISIP_8,31,1,48,48,2643485848
6720,3,ISIP_8,32,5,42,127,2643692852
6720,3,ISIP_8,33,1,48,48,2644314476
6720,3,ISIP_8,34,5,42,127,2644492588
6720,3,ISIP_8,35,1,48,46,2645137244
6720,3,ISIP_8,36,5,42,127,2645293468
6720,3,ISIP_8,37,1,48,42,2646028156
6720,3,ISIP_8,38,5,42,127,2646093436
6720,3,ISIP_8,39,1,48,48,2646831580
6720,3,ISIP_8,40,5,42,127,2646892948
6720,3,ISIP_8,41,1,48,38,2647664000
6720,3,ISIP_8,42,5,42,127,2647692532
6720,3,ISIP_8,43,1,48,44,2648376216
6720,3,ISIP_8,44,5,42,127,2648493296
6720,3,ISIP_8,45,1,48,43,2649197192
6720,3,ISIP_8,46,5,42,127,2649293344
6720,3,ISIP_8,47,1,48,46,2649999844
6720,3,ISIP_8,48,5,42,127,2650092852
6720,3,ISIP_8,49,1,48,44,2650817304
6720,3,ISIP_8,50,5,42,127,2650892736
6720,3,ISIP_8,51,1,48,44,2651647852
6720,3,ISIP_8,52,5,42,127,2651693392
6720,3,ISIP_8,53,1,48,32,2652492300
6720,3,ISIP_8,54,5,42,127,2652493716
6720,3,ISIP_8,55,1,48,42,2653225728
6720,3,ISIP_8,56,5,42,127,2653292784
6720,3,ISIP_8,57,1,48,46,2654043712
6720,3,ISIP_8,58,5,42,127,2654092588
6720,3,ISIP_8,59,1,48,49,2654825268
6720,3,ISIP_8,60,1,48,48,2655674360
6720,3,ISIP_8,61,1,48,49,2656458988
6720,3,ISIP_8,62,1,48,42,2657256392
6720,3,ISIP_8,63,1,48,44,2657995760
6720,3,ISIP_8,64,1,48,43,2658806488
6720,3,ISIP_8,65,1,48,40,2659563732
6720,3,ISIP_8,66,1,48,38,2660349476
6720,3,ISIP_8,67,1,48,43,2661113448
6720,3,ISIP_8,68,1,48,39,2661849304
6720,3,ISIP_8,69,1,48,38,2662657408
6720,3,ISIP_8,70,1,48,39,2663360420
6720,3,ISIP_8,71,1,48,44,2664194632
6720,3,ISIP_8,72,1,48,44,2664991996
6720,3,ISIP_8,73,1,48,37,2665774892
6720,3,ISIP_8,74,1,48,40,2666527876
6720,3,ISIP_8,75,1,48,44,2667319972
6720,3,ISIP_8,76,1,48,41,2668138104
6720,3,ISIP_8,77,1,48,43,2668912252
6720,3,ISIP_8,78,1,48,43,2669684008
6720,3,ISIP_8,79,1,48,45,2670447384
6720,3,ISIP_8,80,1,48,44,2671252348
6720,3,ISIP_8,81,1,48,43,2672010192
6720,3,ISIP_8,82,1,48,40,2672832740
6720,3,ISIP_8,83,1,48,44,2673605912
6720,3,ISIP_8,84,1,48,39,2674354184
6720,3,ISIP_8,85,1,48,43,2675141720
6720,3,ISIP_8,86,1,48,43,2675885044
6720,3,ISIP_8,87,1,48,40,2676692184
6720,3,ISIP_8,88,1,48,40,2677407316
6720,3,ISIP_8,89,1,48,38,2678189616
6720,3,ISIP_8,90,1,48,41,2678919032
6720,3,ISIP_8,91,1,48,35,2679670728
6720,3,ISIP_8,92,1,48,42,2680463580
6720,3,ISIP_8,93,1,48,43,2681190008
6720,3,ISIP_8,94,1,48,40,2681974928
6720,3,ISIP_8,95,1,48,43,2682693728
6720,3,ISIP_8,96,1,48,43,2683460924
6720,3,ISIP_8,97,1,48,48,2684237016
6720,3,ISIP_8,98,1,48,40,2684971596
6720,3,ISIP_8,99,1,48,44,2685725072
6720,3,ISIP_8,100,1,48,43,2686472524
6720,3,ISIP_8,101,1,48,46,2687237692
6720,3,ISIP_8,102,1,48,44,2687992920
6720,3,ISIP_8,103,1,48,41,2688724356
6720,3,ISIP_8,104,1,48,43,2689484664
6720,3,ISIP_8,105,1,48,44,2690220668
6720,3,ISIP_8,106,1,48,42,2690991972
6720,3,ISIP_8,107,1,48,41,2691723636
6720,3,ISIP_8,108,1,48,45,2692499804
6720,3,ISIP_8,109,1,48,43,2693239384
6720,3,ISIP_8,110,1,48,44,2694028116
6720,3,ISIP_8,111,1,48,45,2694779604
6720,3,ISIP_8,112,1,48,46,2695504912
6720,3,ISIP_8,113,1,48,45,2696233652
6720,3,ISIP_8,114,1,48,44,2696987356
6720,3,ISIP_8,115,1,48,44,2697713560
6720,3,ISIP_8,116,1,48,43,2698465644
6720,3,ISIP_8,117,1,48,46,2699209720
6720,3,ISIP_8,118,1,48,41,2699985068
6720,3,ISIP_8,119,1,48,45,2700738420
6720,3,ISIP_8,120,1,48,43,2701475920
6720,3,ISIP_8,121,1,48,43,2702270640
6720,3,ISIP_8,122,1,48,43,2703010376
6720,3,ISIP_8,123,1,48,55,2703796868
6720,3,ISIP_8,124,1,48,41,2704561068
6720,3,ISIP_8,125,1,48,46,2705252852
6720,3,ISIP_8,126,1,48,43,2706007024
6720,3,ISIP_8,127,1,48,47,2706740108
6720,3,ISIP_8,128,1,48,44,2707453872
6720,3,ISIP_8,129,1,48,44,2708216576
6720,3,ISIP_8,130,1,48,43,2708958564
6720,3,ISIP_8,131,1,48,43,2709688356
6720,3,ISIP_8,132,1,48,45,2710459064
6720,3,ISIP_8,133,1,48,43,2711188180
6720,3,ISIP_8,134,1,48,41,2711959864
6720,3,ISIP_8,135,1,48,46,2712691080
6720,3,ISIP_8,136,1,48,43,2713424684
6720,3,ISIP_8,137,1,48,43,2714150736
6720,3,ISIP_8,138,1,48,44,2714864484
6720,3,ISIP_8,139,1,48,47,2715589720
6720,3,ISIP_8,140,1,48,38,2716345468
6720,3,ISIP_8,141,1,48,42,2717025140
6720,3,ISIP_8,142,1,48,42,2717800716
6720,3,ISIP_8,143,1,48,49,2718500968
6720,3,ISIP_8,144,1,48,45,2719293664
6720,3,ISIP_8,145,1,48,47,2720040284
6720,3,ISIP_8,146,1,48,48,2720779852
6720,3,ISIP_8,147,1,48,41,2721538664
6720,3,ISIP_8,148,1,48,40,2722292920
6720,3,ISIP_8,149,1,48,42,2723033852
6720,3,ISIP_8,150,1,48,46,2723763572
6720,3,ISIP_8,151,1,48,51,2724498076
6720,3,ISIP_8,152,1,48,48,2725236532
6720,3,ISIP_8,153,1,48,46,2726015396
6720,3,ISIP_8,154,1,48,46,2726734488
6720,3,ISIP_8,155,1,48,46,2727538556
6720,3,ISIP_8,156,1,48,42,2728262516
6720,3,ISIP_8,157,1,48,49,2728950248
6720,3,ISIP_8,158,1,48,44,2729718264
6720,3,ISIP_8,159,1,48,45,2730475356
6720,3,ISIP_8,160,1,48,50,2731257732
6720,3,ISIP_8,161,1,48,47,2731979972
6720,3,ISIP_8,162,1,48,42,2732772596
6720,3,ISIP_8,163,1,48,36,2733542556
6720,3,ISIP_8,164,1,48,43,2734271296
6720,3,ISIP_8,165,1,48,42,2735034600
6720,3,ISIP_8,166,1,48,44,2735777632
6720,3,ISIP_8,167,1,48,42,2736575492
6720,3,ISIP_8,168,1,48,42,2737314184
6720,3,ISIP_8,169,1,48,37,2738080540
6720,3,ISIP_8,170,1,48,45,2738802628
6720,3,ISIP_8,171,1,48,40,2739496816
6720,3,ISIP_8,172,1,48,44,2740277404
6720,3,ISIP_8,173,1,48,40,2740983756
6720,3,ISIP_8,174,1,48,41,2741723200
6720,3,ISIP_8,175,1,48,42,2742440056
6720,3,ISIP_8,176,1,48,44,2743231252
6720,3,ISIP_8,177,1,48,39,2743954988
6720,3,ISIP_8,178,1,48,47,2744763316
6720,3,ISIP_8,179,1,48,46,2745548840
6720,3,ISIP_8,180,1,48,39,2746319244
6720,3,ISIP_8,181,1,48,40,2747054868
6720,3,ISIP_8,182,1,48,40,2747834708
6720,3,ISIP_8,183,1,48,43,2748590156
6720,3,ISIP_8,184,1,48,43,2749321296
6720,3,ISIP_8,185,1,48,37,2750040156
6720,3,ISIP_8,186,1,48,43,2750820132
6720,3,ISIP_8,0,9999,9999,9999,2630890544
6720,3,ISIP_8,1,9999,9999,9999,2631690300
6720,3,ISIP_8,2,9999,9999,9999,2632491080
6720,3,ISIP_8,3,9999,9999,9999,2633290808
6720,3,ISIP_8,4,9999,9999,9999,2634090616
6720,3,ISIP_8,5,9999,9999,9999,2634890332
6720,3,ISIP_8,6,9999,9999,9999,2635691112
6720,3,ISIP_8,7,9999,9999,9999,2636490848
6720,3,ISIP_8,8,9999,9999,9999,2637290580
6720,3,ISIP_8,9,9999,9999,9999,2638090312
6720,3,ISIP_8,10,9999,9999,9999,2638891120
6720,3,ISIP_8,11,9999,9999,9999,2639690852
6720,3,ISIP_8,12,9999,9999,9999,2640490588
6720,3,ISIP_8,13,9999,9999,9999,2641290320
6720,3,ISIP_8,14,9999,9999,9999,2642091100
6720,3,ISIP_8,15,9999,9999,9999,2642890832
6720,3,ISIP_8,16,9999,9999,9999,2643690564
6720,3,ISIP_8,17,9999,9999,9999,2644490300
6720,3,ISIP_8,18,9999,9999,9999,2645291104
6720,3,ISIP_8,19,9999,9999,9999,2646090852
6720,3,ISIP_8,20,9999,9999,9999,2646890584
6720,3,ISIP_8,21,9999,9999,9999,2647690316
6720,3,ISIP_8,22,9999,9999,9999,2648491084
6720,3,ISIP_8,23,9999,9999,9999,2649290832
6720,3,ISIP_8,24,9999,9999,9999,2650090564
6720,3,ISIP_8,25,9999,9999,9999,2650890300
6720,3,ISIP_8,26,9999,9999,9999,2651691104
6720,3,ISIP_8,27,9999,9999,9999,2652490844
6720,3,ISIP_8,28,9999,9999,9999,2653290568
6720,3,ISIP_8,29,9999,9999,9999,2654090300
6720,3,ISIP_8,30,9999,9999,9999,2654891084
6720,3,ISIP_8,31,9999,9999,9999,2655690812
6720,3,ISIP_8,32,9999,9999,9999,2656490616
6720,3,ISIP_8,33,9999,9999,9999,2657290344
6720,3,ISIP_8,34,9999,9999,9999,2658091056
6720,3,ISIP_8,35,9999,9999,9999,2658890800
6720,3,ISIP_8,36,9999,9999,9999,2659690588
6720,3,ISIP_8,37,9999,9999,9999,2660490316
6720,3,ISIP_8,38,9999,9999,9999,2661291096
6720,3,ISIP_8,39,9999,9999,9999,2662090824
6720,3,ISIP_8,40,9999,9999,9999,2662890552
6720,3,ISIP_8,41,9999,9999,9999,2663690352
6720,3,ISIP_8,42,9999,9999,9999,2664491080
6720,3,ISIP_8,43,9999,9999,9999,2665290812
6720,3,ISIP_8,44,9999,9999,9999,2666090612
6720,3,ISIP_8,45,9999,9999,9999,2666890344
6720,3,ISIP_8,46,9999,9999,9999,2667691120
6720,3,ISIP_8,47,9999,9999,9999,2668490852
6720,3,ISIP_8,48,9999,9999,9999,2669290580
6720,3,ISIP_8,49,9999,9999,9999,2670090308
6720,3,ISIP_8,50,9999,9999,9999,2670891112
6720,3,ISIP_8,51,9999,9999,9999,2671690840
6720,3,ISIP_8,52,9999,9999,9999,2672490568
6720,3,ISIP_8,53,9999,9999,9999,2673290300
6720,3,ISIP_8,54,9999,9999,9999,2674091076
6720,3,ISIP_8,55,9999,9999,9999,2674890804
6720,3,ISIP_8,56,9999,9999,9999,2675690608
6720,3,ISIP_8,57,9999,9999,9999,2676490336
6720,3,ISIP_8,58,9999,9999,9999,2677291064
6720,3,ISIP_8,59,9999,9999,9999,2678090868
6720,3,ISIP_8,60,9999,9999,9999,2678890596
6720,3,ISIP_8,61,9999,9999,9999,2679690316
6720,3,ISIP_8,62,9999,9999,9999,2680491096
6720,3,ISIP_8,63,9999,9999,9999,2681290808
6720,3,ISIP_8,64,9999,9999,9999,2682090612
6720,3,ISIP_8,65,9999,9999,9999,2682890344
6720,3,ISIP_8,66,9999,9999,9999,2683691072
6720,3,ISIP_8,67,9999,9999,9999,2684490804
6720,3,ISIP_8,68,9999,9999,9999,2685290608
6720,3,ISIP_8,69,9999,9999,9999,2686090336
6720,3,ISIP_8,70,9999,9999,9999,2686891112
6720,3,ISIP_8,71,9999,9999,9999,2687690840
6720,3,ISIP_8,72,9999,9999,9999,2688490572
6720,3,ISIP_8,73,9999,9999,9999,2689290300
6720,3,ISIP_8,74,9999,9999,9999,2690091100
6720,3,ISIP_8,75,9999,9999,9999,2690890828
6720,3,ISIP_8,76,9999,9999,9999,2691690556
6720,3,ISIP_8,77,9999,9999,9999,2692490288
6720,3,ISIP_8,78,9999,9999,9999,2693291060
6720,3,ISIP_8,79,9999,9999,9999,2694090864
6720,3,ISIP_8,80,9999,9999,9999,2694890580
6720,3,ISIP_8,81,9999,9999,9999,2695690308
6720,3,ISIP_8,82,9999,9999,9999,2696491108
6720,3,ISIP_8,83,9999,9999,9999,2697290840
6720,3,ISIP_8,84,9999,9999,9999,2698090568
6720,3,ISIP_8,85,9999,9999,9999,2698890296
6720,3,ISIP_8,86,9999,9999,9999,2699691072
6720,3,ISIP_8,87,9999,9999,9999,2700490800
6720,3,ISIP_8,88,9999,9999,9999,2701290604
6720,3,ISIP_8,89,9999,9999,9999,2702090332
6720,3,ISIP_8,90,9999,9999,9999,2702891060
6720,3,ISIP_8,91,9999,9999,9999,2703690860
6720,3,ISIP_8,92,9999,9999,9999,2704490592
6720,3,ISIP_8,93,9999,9999,9999,2705290316
6720,3,ISIP_8,94,9999,9999,9999,2706091092
6720,3,ISIP_8,95,9999,9999,9999,2706890804
6720,3,ISIP_8,96,9999,9999,9999,2707690608
6720,3,ISIP_8,97,9999,9999,9999,2708490336
6720,3,ISIP_8,98,9999,9999,9999,2709291064
6720,3,ISIP_8,99,9999,9999,9999,2710090864
6720,3,ISIP_8,100,9999,9999,9999,2710890596
6720,3,ISIP_8,101,9999,9999,9999,2711690324
6720,3,ISIP_8,102,9999,9999,9999,2712491100
6720,3,ISIP_8,103,9999,9999,9999,2713290832
6720,3,ISIP_8,104,9999,9999,9999,2714090560
6720,3,ISIP_8,105,9999,9999,9999,2714890356
6720,3,ISIP_8,106,9999,9999,9999,2715691068
6720,3,ISIP_8,107,9999,9999,9999,2716490872
6720,3,ISIP_8,108,9999,9999,9999,2717290600
6720,3,ISIP_8,109,9999,9999,9999,2718090332
6720,3,ISIP_8,110,9999,9999,9999,2718891108
6720,3,ISIP_8,111,9999,9999,9999,2719690836
6720,3,ISIP_8,112,9999,9999,9999,2720490564
6720,3,ISIP_8,113,9999,9999,9999,2721290296
6720,3,ISIP_8,114,9999,9999,9999,2722091096
6720,3,ISIP_8,115,9999,9999,9999,2722890824
6720,3,ISIP_8,116,9999,9999,9999,2723690552
6720,3,ISIP_8,117,9999,9999,9999,2724490356
6720,3,ISIP_8,118,9999,9999,9999,2725291128
6720,3,ISIP_8,119,9999,9999,9999,2726090856
6720,3,ISIP_8,120,9999,9999,9999,2726890568
6720,3,ISIP_8,121,9999,9999,9999,2727690296
6720,3,ISIP_8,122,9999,9999,9999,2728491100
6720,3,ISIP_8,123,9999,9999,9999,2729290828
6720,3,ISIP_8,124,9999,9999,9999,2730090556
6720,3,ISIP_8,125,9999,9999,9999,2730890360
6720,3,ISIP_8,126,9999,9999,9999,2731691060
6720,3,ISIP_8,127,9999,9999,9999,2732490864
6720,3,ISIP_8,128,9999,9999,9999,2733290592
6720,3,ISIP_8,129,9999,9999,9999,2734090320
6720,3,ISIP_8,130,9999,9999,9999,2734891120
6720,3,ISIP_8,131,9999,9999,9999,2735690848
6720,3,ISIP_8,132,9999,9999,9999,2736490580
6720,3,ISIP_8,133,9999,9999,9999,2737290308
6720,3,ISIP_8,134,9999,9999,9999,2738091080
6720,3,ISIP_8,135,9999,9999,9999,2738890808
6720,3,ISIP_8,136,9999,9999,9999,2739690596
6720,3,ISIP_8,137,9999,9999,9999,2740490324
6720,3,ISIP_8,138,9999,9999,9999,2741291124
6720,3,ISIP_8,139,9999,9999,9999,2742090852
6720,3,ISIP_8,140,9999,9999,9999,2742890584
6720,3,ISIP_8,141,9999,9999,9999,2743690312
6720,3,ISIP_8,142,9999,9999,9999,2744491088
6720,3,ISIP_8,143,9999,9999,9999,2745290816
6720,3,ISIP_8,144,9999,9999,9999,2746090544
6720,3,ISIP_8,145,9999,9999,9999,2746890348
6720,3,ISIP_8,146,9999,9999,9999,2747691076
6720,3,ISIP_8,147,9999,9999,9999,2748490804
6720,3,ISIP_8,148,9999,9999,9999,2749290608
6720,3,ISIP_8,149,9999,9999,9999,2750090332
6721,5,ISIP_5,0,5,42,127,2773524792
6721,5,ISIP_5,1,5,42,127,2774024584
6721,5,ISIP_5,2,5,42,127,2774525420
6721,5,ISIP_5,3,1,48,34,2774544404
6721,5,ISIP_5,4,5,42,127,2775025192
6721,5,ISIP_5,5,1,48,44,2775030332
6721,5,ISIP_5,6,5,42,127,2775524664
6721,5,ISIP_5,7,1,48,39,2775568096
6721,5,ISIP_5,8,5,42,127,2776024508
6721,5,ISIP_5,9,1,48,36,2776044680
6721,5,ISIP_5,10,5,42,127,2776525248
6721,5,ISIP_5,11,1,48,36,2776538912
6721,5,ISIP_5,12,1,48,37,2777013532
6721,5,ISIP_5,13,5,42,127,2777024860
6721,5,ISIP_5,14,1,48,36,2777479644
6721,5,ISIP_5,15,5,42,127,2777524480
6721,5,ISIP_5,16,1,48,41,2778022048
6721,5,ISIP_5,17,5,42,127,2778025520
6721,5,ISIP_5,18,1,48,37,2778524320
6721,5,ISIP_5,19,5,42,127,2778525892
6721,5,ISIP_5,20,5,42,127,2779024620
6721,5,ISIP_5,21,1,48,43,2779054368
6721,5,ISIP_5,22,5,42,127,2779524612
6721,5,ISIP_5,23,1,48,45,2779542544
6721,5,ISIP_5,24,1,48,38,2780017308
6721,5,ISIP_5,25,5,42,127,2780025420
6721,5,ISIP_5,26,1,48,38,2780521196
6721,5,ISIP_5,27,5,42,127,2780525044
6721,5,ISIP_5,28,1,48,42,2781009892
6721,5,ISIP_5,29,5,42,127,2781024588
6721,5,ISIP_5,30,5,42,127,2781525636
6721,5,ISIP_5,31,1,48,38,2781528828
6721,5,ISIP_5,32,1,48,38,2782005692
6721,5,ISIP_5,33,5,42,127,2782025024
6721,5,ISIP_5,34,1,48,40,2782508604
6721,5,ISIP_5,35,5,42,127,2782524868
6721,5,ISIP_5,36,1,48,39,2782960104
6721,5,ISIP_5,37,5,42,127,2783024340
6721,5,ISIP_5,38,1,48,40,2783458224
6721,5,ISIP_5,39,5,42,127,2783525376
6721,5,ISIP_5,40,1,48,44,2783994948
6721,5,ISIP_5,41,5,42,127,2784024972
6721,5,ISIP_5,42,1,48,45,2784523296
6721,5,ISIP_5,43,5,42,127,2784524568
6721,5,ISIP_5,44,5,42,127,2785025688
6721,5,ISIP_5,45,1,48,46,2785028436
6721,5,ISIP_5,46,5,42,127,2785525084
6721,5,ISIP_5,47,1,48,48,2785541372
6721,5,ISIP_5,48,1,48,43,2786022584
6721,5,ISIP_5,49,5,42,127,2786024772
6721,5,ISIP_5,50,5,42,127,2786524548
6721,5,ISIP_5,51,1,48,44,2786553252
6721,5,ISIP_5,52,5,42,127,2787025516
6721,5,ISIP_5,53,1,48,46,2787069624
6721,5,ISIP_5,54,5,42,127,2787524836
6721,5,ISIP_5,55,1,48,42,2787569392
6721,5,ISIP_5,56,5,42,127,2788024608
6721,5,ISIP_5,57,1,48,41,2788046348
6721,5,ISIP_5,58,5,42,127,2788525500
6721,5,ISIP_5,59,1,48,44,2788546048
6721,5,ISIP_5,60,5,42,127,2789025344
6721,5,ISIP_5,61,1,48,42,2789028612
6721,5,ISIP_5,62,5,42,127,2789524816
6721,5,ISIP_5,63,1,48,40,2789532344
6721,5,ISIP_5,64,1,48,40,2790018264
6721,5,ISIP_5,65,5,42,127,2790024504
6721,5,ISIP_5,66,1,48,45,2790525848
6721,5,ISIP_5,67,5,42,127,2790526964
6721,5,ISIP_5,68,1,48,38,2790998432
6721,5,ISIP_5,69,5,42,127,2791024868
6721,5,ISIP_5,70,1,48,41,2791517048
6721,5,ISIP_5,71,5,42,127,2791524640
6721,5,ISIP_5,72,1,48,45,2791978152
6721,5,ISIP_5,73,5,42,127,2792024556
6721,5,ISIP_5,74,1,48,46,2792469816
6721,5,ISIP_5,75,5,42,127,2792525376
6721,5,ISIP_5,76,1,48,46,2792967344
6721,5,ISIP_5,77,5,42,127,2793024844
6721,5,ISIP_5,78,1,48,45,2793516504
6721,5,ISIP_5,79,1,48,42,2794015220
6721,5,ISIP_5,80,1,48,48,2794516980
6721,5,ISIP_5,81,1,48,40,2794949880
6721,5,ISIP_5,82,1,48,41,2795464828
6721,5,ISIP_5,83,1,48,43,2795911108
6721,5,ISIP_5,84,1,48,46,2796398760
6721,5,ISIP_5,85,1,48,45,2796855440
6721,5,ISIP_5,86,1,48,46,2797368372
6721,5,ISIP_5,87,1,48,45,2797827348
6721,5,ISIP_5,88,1,48,45,2798303024
6721,5,ISIP_5,89,1,48,40,2798778780
6721,5,ISIP_5,90,1,48,47,2799253264
6721,5,ISIP_5,91,1,48,42,2799699552
6721,5,ISIP_5,92,1,48,45,2800194008
6721,5,ISIP_5,93,1,48,46,2800657696
6721,5,ISIP_5,94,1,48,45,2801122004
6721,5,ISIP_5,95,1,48,41,2801570384
6721,5,ISIP_5,96,1,48,47,2802064164
6721,5,ISIP_5,97,1,48,45,2802524292
6721,5,ISIP_5,98,1,48,41,2802961108
6721,5,ISIP_5,99,1,48,43,2803421756
6721,5,ISIP_5,100,1,48,47,2803858168
6721,5,ISIP_5,101,1,48,43,2804336692
6721,5,ISIP_5,102,1,48,36,2804742632
6721,5,ISIP_5,103,1,48,40,2805246660
6721,5,ISIP_5,104,1,48,41,2805722716
6721,5,ISIP_5,105,1,48,42,2806194508
6721,5,ISIP_5,106,1,48,37,2806655972
6721,5,ISIP_5,107,1,48,39,2807127172
6721,5,ISIP_5,108,1,48,41,2807583852
6721,5,ISIP_5,109,1,48,41,2808022928
6721,5,ISIP_5,110,1,48,40,2808523516
6721,5,ISIP_5,111,1,48,36,2808986920
6721,5,ISIP_5,112,1,48,40,2809412036
6721,5,ISIP_5,113,1,48,41,2809900136
6721,5,ISIP_5,114,1,48,42,2810305556
6721,5,ISIP_5,115,1,48,38,2810800828
6721,5,ISIP_5,116,1,48,43,2811228344
6721,5,ISIP_5,117,1,48,45,2811732296
6721,5,ISIP_5,118,1,48,42,2812204832
6721,5,ISIP_5,119,1,48,47,2812618932
6721,5,ISIP_5,120,1,48,41,2813128044
6721,5,ISIP_5,121,1,48,40,2813556828
6721,5,ISIP_5,122,1,48,39,2814060180
6721,5,ISIP_5,123,1,48,37,2814511688
6721,5,ISIP_5,124,1,48,39,2814985252
6721,5,ISIP_5,125,1,48,41,2815452776
6721,5,ISIP_5,126,1,48,43,2815899736
6721,5,ISIP_5,127,1,48,45,2816348640
6721,5,ISIP_5,128,1,48,45,2816790712
6721,5,ISIP_5,129,1,48,43,2817255244
6721,5,ISIP_5,130,1,48,41,2817700260
6721,5,ISIP_5,131,1,48,44,2818126948
6721,5,ISIP_5,132,1,48,44,2818579492
6721,5,ISIP_5,133,1,48,43,2819043652
6721,5,ISIP_5,134,1,48,46,2819487228
6721,5,ISIP_5,135,1,48,37,2819927752
6721,5,ISIP_5,136,1,48,44,2820359124
6721,5,ISIP_5,137,1,48,45,2820797108
6721,5,ISIP_5,138,1,48,40,2821289768
6721,5,ISIP_5,139,1,48,35,2821735460
6721,5,ISIP_5,140,1,48,41,2822184804
6721,5,ISIP_5,141,1,48,44,2822627928
6721,5,ISIP_5,142,1,48,44,2823104352
6721,5,ISIP_5,143,1,48,46,2823579360
6721,5,ISIP_5,144,1,48,40,2823999376
6721,5,ISIP_5,145,1,48,40,2824457236
6721,5,ISIP_5,146,1,48,41,2824876588
6721,5,ISIP_5,147,1,48,42,2825334172
6721,5,ISIP_5,148,1,48,42,2825769536
6721,5,ISIP_5,149,1,48,43,2826220956
6721,5,ISIP_5,150,1,48,41,2826657664
6721,5,ISIP_5,151,1,48,44,2827090116
6721,5,ISIP_5,152,1,48,43,2827524332
6721,5,ISIP_5,153,1,48,45,2827978456
6721,5,ISIP_5,154,1,48,48,2828413224
6721,5,ISIP_5,155,1,48,44,2828889576
6721,5,ISIP_5,156,1,48,45,2829335568
6721,5,ISIP_5,157,1,48,43,2829752276
6721,5,ISIP_5,158,1,48,42,2830214844
6721,5,ISIP_5,159,1,48,45,2830647216
6721,5,ISIP_5,160,1,48,44,2831104400
6721,5,ISIP_5,161,1,48,40,2831536844
6721,5,ISIP_5,162,1,48,45,2832008996
6721,5,ISIP_5,163,1,48,39,2832458496
6721,5,ISIP_5,164,1,48,41,2832943752
6721,5,ISIP_5,165,1,48,35,2833343792
6721,5,ISIP_5,166,1,48,42,2833802792
6721,5,ISIP_5,167,1,48,43,2834268304
6721,5,ISIP_5,168,1,48,42,2834700872
6721,5,ISIP_5,169,1,48,43,2835135640
6721,5,ISIP_5,170,1,48,40,2835602264
6721,5,ISIP_5,171,1,48,39,2836051768
6721,5,ISIP_5,172,1,48,37,2836503052
6721,5,ISIP_5,173,1,48,31,2836954176
6721,5,ISIP_5,174,1,48,45,2837386168
6721,5,ISIP_5,175,1,48,13,2837826172
6721,5,ISIP_5,176,1,48,46,2838217232
6721,5,ISIP_5,177,1,48,49,2838669728
6721,5,ISIP_5,178,1,48,45,2839136656
6721,5,ISIP_5,179,1,48,39,2839571920
6721,5,ISIP_5,180,1,48,41,2840007640
6721,5,ISIP_5,181,1,48,45,2840469860
6721,5,ISIP_5,182,1,48,44,2840913156
6721,5,ISIP_5,183,1,48,44,2841376120
6721,5,ISIP_5,184,1,48,40,2841818192
6721,5,ISIP_5,185,1,48,41,2842263276
6721,5,ISIP_5,186,1,48,41,2842730656
6721,5,ISIP_5,187,1,48,29,2843240520
6721,5,ISIP_5,188,1,48,35,2843695332
6721,5,ISIP_5,189,1,48,46,2844146672
6721,5,ISIP_5,190,1,48,29,2844635744
6721,5,ISIP_5,191,1,48,46,2845059888
6721,5,ISIP_5,192,1,48,48,2845523380
6721,5,ISIP_5,193,1,48,51,2845948160
6721,5,ISIP_5,194,1,48,46,2846402824
6721,5,ISIP_5,195,1,48,43,2846858756
6721,5,ISIP_5,196,1,48,48,2847311548
6721,5,ISIP_5,197,1,48,53,2847760876
6721,5,ISIP_5,198,1,48,48,2848188908
6721,5,ISIP_5,199,1,48,46,2848625772
6721,5,ISIP_5,200,1,48,51,2849078864
6721,5,ISIP_5,201,1,48,53,2849537244
6721,5,ISIP_5,202,1,48,46,2849957480
6721,5,ISIP_5,203,1,48,48,2850411248
6721,5,ISIP_5,204,1,48,51,2850839656
6721,5,ISIP_5,205,1,48,47,2851267592
6721,5,ISIP_5,206,1,48,44,2851745064
6721,5,ISIP_5,207,1,48,42,2852149984
6721,5,ISIP_5,208,1,48,46,2852556908
6721,5,ISIP_5,209,1,48,47,2853044628
6721,5,ISIP_5,210,1,48,50,2853506604
6721,5,ISIP_5,0,9999,9999,9999,2773522508
6721,5,ISIP_5,1,9999,9999,9999,2774022224
6721,5,ISIP_5,2,9999,9999,9999,2774522984
6721,5,ISIP_5,3,9999,9999,9999,2775022680
6721,5,ISIP_5,4,9999,9999,9999,2775522376
6721,5,ISIP_5,5,9999,9999,9999,2776022072
6721,5,ISIP_5,6,9999,9999,9999,2776522812
6721,5,ISIP_5,7,9999,9999,9999,2777022576
6721,5,ISIP_5,8,9999,9999,9999,2777522268
6721,5,ISIP_5,9,9999,9999,9999,2778023012
6721,5,ISIP_5,10,9999,9999,9999,2778522712
6721,5,ISIP_5,11,9999,9999,9999,2779022408
6721,5,ISIP_5,12,9999,9999,9999,2779522100
6721,5,ISIP_5,13,9999,9999,9999,2780022836
6721,5,ISIP_5,14,9999,9999,9999,2780522608
6721,5,ISIP_5,15,9999,9999,9999,2781022300
6721,5,ISIP_5,16,9999,9999,9999,2781523048
6721,5,ISIP_5,17,9999,9999,9999,2782022736
6721,5,ISIP_5,18,9999,9999,9999,2782522432
6721,5,ISIP_5,19,9999,9999,9999,2783022128
6721,5,ISIP_5,20,9999,9999,9999,2783522868
6721,5,ISIP_5,21,9999,9999,9999,2784022612
6721,5,ISIP_5,22,9999,9999,9999,2784522288
6721,5,ISIP_5,23,9999,9999,9999,2785023028
6721,5,ISIP_5,24,9999,9999,9999,2785522800
6721,5,ISIP_5,25,9999,9999,9999,2786022448
6721,5,ISIP_5,26,9999,9999,9999,2786522188
6721,5,ISIP_5,27,9999,9999,9999,2787022932
6721,5,ISIP_5,28,9999,9999,9999,2787522624
6721,5,ISIP_5,29,9999,9999,9999,2788022320
6721,5,ISIP_5,30,9999,9999,9999,2788523064
6721,5,ISIP_5,31,9999,9999,9999,2789022832
6721,5,ISIP_5,32,9999,9999,9999,2789522528
6721,5,ISIP_5,33,9999,9999,9999,2790022216
6721,5,ISIP_5,34,9999,9999,9999,2790522968
6721,5,ISIP_5,35,9999,9999,9999,2791022656
6721,5,ISIP_5,36,9999,9999,9999,2791522352
6721,5,ISIP_5,37,9999,9999,9999,2792022124
6721,5,ISIP_5,38,9999,9999,9999,2792522864
6721,5,ISIP_5,39,9999,9999,9999,2793022560
6721,5,ISIP_5,40,9999,9999,9999,2793522256
6721,5,ISIP_5,41,9999,9999,9999,2794022992
6721,5,ISIP_5,42,9999,9999,9999,2794522684
6721,5,ISIP_5,43,9999,9999,9999,2795022424
6721,5,ISIP_5,44,9999,9999,9999,2795522112
6721,5,ISIP_5,45,9999,9999,9999,2796022836
6721,5,ISIP_5,46,9999,9999,9999,2796522600
6721,5,ISIP_5,47,9999,9999,9999,2797022288
6721,5,ISIP_5,48,9999,9999,9999,2797523028
6721,5,ISIP_5,49,9999,9999,9999,2798022716
6721,5,ISIP_5,50,9999,9999,9999,2798522480
6721,5,ISIP_5,51,9999,9999,9999,2799022172
6721,5,ISIP_5,52,9999,9999,9999,2799522912
6721,5,ISIP_5,53,9999,9999,9999,2800022604
6721,5,ISIP_5,54,9999,9999,9999,2800522296
6721,5,ISIP_5,55,9999,9999,9999,2801023032
6721,5,ISIP_5,56,9999,9999,9999,2801522796
6721,5,ISIP_5,57,9999,9999,9999,2802022488
6721,5,ISIP_5,58,9999,9999,9999,2802522180
6721,5,ISIP_5,59,9999,9999,9999,2803022908
6721,5,ISIP_5,60,9999,9999,9999,2803522656
6721,5,ISIP_5,61,9999,9999,9999,2804022348
6721,5,ISIP_5,62,9999,9999,9999,2804523088
6721,5,ISIP_5,63,9999,9999,9999,2805022776
6721,5,ISIP_5,64,9999,9999,9999,2805522516
6721,5,ISIP_5,65,9999,9999,9999,2806022204
6721,5,ISIP_5,66,9999,9999,9999,2806522944
6721,5,ISIP_5,67,9999,9999,9999,2807022708
6721,5,ISIP_5,68,9999,9999,9999,2807522400
6721,5,ISIP_5,69,9999,9999,9999,2808022092
6721,5,ISIP_5,70,9999,9999,9999,2808522828
6721,5,ISIP_5,71,9999,9999,9999,2809022512
6721,5,ISIP_5,72,9999,9999,9999,2809522264
6721,5,ISIP_5,73,9999,9999,9999,2810023000
6721,5,ISIP_5,74,9999,9999,9999,2810522692
6721,5,ISIP_5,75,9999,9999,9999,2811022456
6721,5,ISIP_5,76,9999,9999,9999,2811522148
6721,5,ISIP_5,77,9999,9999,9999,2812022884
6721,5,ISIP_5,78,9999,9999,9999,2812522576
6721,5,ISIP_5,79,9999,9999,9999,2813022264
6721,5,ISIP_5,80,9999,9999,9999,2813523000
6721,5,ISIP_5,81,9999,9999,9999,2814022764
6721,5,ISIP_5,82,9999,9999,9999,2814522452
6721,5,ISIP_5,83,9999,9999,9999,2815022140
6721,5,ISIP_5,84,9999,9999,9999,2815522876
6721,5,ISIP_5,85,9999,9999,9999,2816022604
6721,5,ISIP_5,86,9999,9999,9999,2816522296
6721,5,ISIP_5,87,9999,9999,9999,2817023032
6721,5,ISIP_5,88,9999,9999,9999,2817522796
6721,5,ISIP_5,89,9999,9999,9999,2818022488
6721,5,ISIP_5,90,9999,9999,9999,2818522180
6721,5,ISIP_5,91,9999,9999,9999,2819022916
6721,5,ISIP_5,92,9999,9999,9999,2819522672
6721,5,ISIP_5,93,9999,9999,9999,2820022364
6721,5,ISIP_5,94,9999,9999,9999,2820523084
6721,5,ISIP_5,95,9999,9999,9999,2821022776
6721,5,ISIP_5,96,9999,9999,9999,2821522540
6721,5,ISIP_5,97,9999,9999,9999,2822022232
6721,5,ISIP_5,98,9999,9999,9999,2822522968
6721,5,ISIP_5,99,9999,9999,9999,2823022660
6721,5,ISIP_5,100,9999,9999,9999,2823522424
6721,5,ISIP_5,101,9999,9999,9999,2824022108
6721,5,ISIP_5,102,9999,9999,9999,2824522848
6721,5,ISIP_5,103,9999,9999,9999,2825022520
6721,5,ISIP_5,104,9999,9999,9999,2825522288
6721,5,ISIP_5,105,9999,9999,9999,2826023024
6721,5,ISIP_5,106,9999,9999,9999,2826522716
6721,5,ISIP_5,107,9999,9999,9999,2827022456
6721,5,ISIP_5,108,9999,9999,9999,2827522144
6721,5,ISIP_5,109,9999,9999,9999,2828022876
6721,5,ISIP_5,110,9999,9999,9999,2828522552
6721,5,ISIP_5,111,9999,9999,9999,2829022320
6721,5,ISIP_5,112,9999,9999,9999,2829523056
6721,5,ISIP_5,113,9999,9999,9999,2830022720
6721,5,ISIP_5,114,9999,9999,9999,2830522416
6721,5,ISIP_5,115,9999,9999,9999,2831022180
6721,5,ISIP_5,116,9999,9999,9999,2831522916
6721,5,ISIP_5,117,9999,9999,9999,2832022604
6721,5,ISIP_5,118,9999,9999,9999,2832522292
6721,5,ISIP_5,119,9999,9999,9999,2833023032
6721,5,ISIP_5,120,9999,9999,9999,2833522784
6721,5,ISIP_5,121,9999,9999,9999,2834022472
6721,5,ISIP_5,122,9999,9999,9999,2834522164
6721,5,ISIP_5,123,9999,9999,9999,2835022904
6721,5,ISIP_5,124,9999,9999,9999,2835522664
6721,5,ISIP_5,125,9999,9999,9999,2836022356
6721,5,ISIP_5,126,9999,9999,9999,2836523088
6721,5,ISIP_5,127,9999,9999,9999,2837022776
6721,5,ISIP_5,128,9999,9999,9999,2837522504
6721,5,ISIP_5,129,9999,9999,9999,2838022192
6721,5,ISIP_5,130,9999,9999,9999,2838522932
6721,5,ISIP_5,131,9999,9999,9999,2839022696
6721,5,ISIP_5,132,9999,9999,9999,2839522388
6721,5,ISIP_5,133,9999,9999,9999,2840022072
6721,5,ISIP_5,134,9999,9999,9999,2840522808
6721,5,ISIP_5,135,9999,9999,9999,2841022560
6721,5,ISIP_5,136,9999,9999,9999,2841522248
6721,5,ISIP_5,137,9999,9999,9999,2842022984
6721,5,ISIP_5,138,9999,9999,9999,2842522676
6721,5,ISIP_5,139,9999,9999,9999,2843022440
6721,5,ISIP_5,140,9999,9999,9999,2843522132
6721,5,ISIP_5,141,9999,9999,9999,2844022868
6721,5,ISIP_5,142,9999,9999,9999,2844522560
6721,5,ISIP_5,143,9999,9999,9999,2845022324
6721,5,ISIP_5,144,9999,9999,9999,2845523012
6721,5,ISIP_5,145,9999,9999,9999,2846022748
6721,5,ISIP_5,146,9999,9999,9999,2846522424
6721,5,ISIP_5,147,9999,9999,9999,2847022188
6721,5,ISIP_5,148,9999,9999,9999,2847522924
6721,5,ISIP_5,149,9999,9999,9999,2848022616
6721,5,ISIP_5,150,9999,9999,9999,2848522356
6721,5,ISIP_5,151,9999,9999,9999,2849023096
6721,5,ISIP_5,152,9999,9999,9999,2849522788
6721,5,ISIP_5,153,9999,9999,9999,2850022472
6721,5,ISIP_5,154,9999,9999,9999,2850522224
6721,5,ISIP_5,155,9999,9999,9999,2851022960
6721,5,ISIP_5,156,9999,9999,9999,2851522648
6721,5,ISIP_5,157,9999,9999,9999,2852022340
6721,5,ISIP_5,158,9999,9999,9999,2852523080
6721,5,ISIP_5,159,9999,9999,9999,2853022768
6722,11,Pattern_Practice,0,1,48,47,2941761900
6722,11,Pattern_Practice,1,1,48,30,2941762560
6722,11,Pattern_Practice,2,1,48,24,2941763320
6722,11,Pattern_Practice,3,1,48,16,2941763988
6722,11,Pattern_Practice,4,1,48,20,2941764752
6722,11,Pattern_Practice,5,1,48,24,2941792416
6722,11,Pattern_Practice,6,1,48,29,2942132072
6722,11,Pattern_Practice,7,5,42,127,2942262540
6722,11,Pattern_Practice,8,1,48,18,2942466492
6722,11,Pattern_Practice,9,5,42,127,2942763280
6722,11,Pattern_Practice,10,5,42,127,2943263072
6722,11,Pattern_Practice,11,5,42,127,2943763012
6722,11,Pattern_Practice,12,5,42,127,2944262480
6722,11,Pattern_Practice,13,1,38,45,2944309152
6722,11,Pattern_Practice,14,5,42,127,2944763220
6722,11,Pattern_Practice,15,1,48,47,2944775464
6722,11,Pattern_Practice,16,1,38,31,2944802632
6722,11,Pattern_Practice,17,1,48,59,2945259996
6722,11,Pattern_Practice,18,5,42,127,2945263096
6722,11,Pattern_Practice,19,1,38,70,2945264136
6722,11,Pattern_Practice,20,1,38,37,2945330168
6722,11,Pattern_Practice,21,1,48,58,2945758216
6722,11,Pattern_Practice,22,5,42,127,2945763032
6722,11,Pattern_Practice,23,1,48,18,2946255512
6722,11,Pattern_Practice,24,5,42,127,2946263404
6722,11,Pattern_Practice,25,1,38,65,2946292176
6722,11,Pattern_Practice,26,1,48,17,2946744332
6722,11,Pattern_Practice,27,1,48,34,2946748796
6722,11,Pattern_Practice,28,1,38,73,2946751692
6722,11,Pattern_Practice,29,5,42,127,2946763244
6722,11,Pattern_Practice,30,1,48,30,2947218896
6722,11,Pattern_Practice,31,1,38,82,2947243336
6722,11,Pattern_Practice,32,5,42,127,2947262816
6722,11,Pattern_Practice,33,1,48,21,2947736796
6722,11,Pattern_Practice,34,1,38,77,2947751064
6722,11,Pattern_Practice,35,5,42,127,2947762464
6722,11,Pattern_Practice,36,1,48,13,2948197696
6722,11,Pattern_Practice,37,1,48,26,2948202084
6722,11,Pattern_Practice,38,1,38,69,2948232288
6722,11,Pattern_Practice,39,1,48,26,2948254624
6722,11,Pattern_Practice,40,5,42,127,2948263264
6722,11,Pattern_Practice,41,1,48,33,2948735816
6722,11,Pattern_Practice,42,1,38,71,2948746044
6722,11,Pattern_Practice,43,5,42,127,2948762912
6722,11,Pattern_Practice,44,1,48,66,2949227688
6722,11,Pattern_Practice,45,5,42,127,2949262800
6722,11,Pattern_Practice,46,1,48,67,2949717808
6722,11,Pattern_Practice,47,1,38,86,2949751000
6722,11,Pattern_Practice,48,5,42,127,2949762476
6722,11,Pattern_Practice,49,1,48,16,2950248048
6722,11,Pattern_Practice,50,5,42,127,2950263044
6722,11,Pattern_Practice,51,1,38,91,2950298776
6722,11,Pattern_Practice,52,1,48,62,2950758028
6722,11,Pattern_Practice,53,5,42,127,2950762852
6722,11,Pattern_Practice,54,1,38,84,2950826704
6722,11,Pattern_Practice,55,1,48,57,2951243404
6722,11,Pattern_Practice,56,5,42,127,2951262512
6722,11,Pattern_Practice,57,1,38,89,2951266224
6722,11,Pattern_Practice,58,1,48,67,2951743288
6722,11,Pattern_Practice,59,5,42,127,2951763368
6722,11,Pattern_Practice,60,1,38,106,2951775908
6722,11,Pattern_Practice,61,1,48,46,2952228512
6722,11,Pattern_Practice,62,1,38,99,2952252652
6722,11,Pattern_Practice,63,5,42,127,2952263008
6722,11,Pattern_Practice,64,1,48,61,2952757176
6722,11,Pattern_Practice,65,5,42,127,2952762748
6722,11,Pattern_Practice,66,1,48,51,2953203440
6722,11,Pattern_Practice,67,5,42,127,2953262444
6722,11,Pattern_Practice,68,1,38,84,2953294960
6722,11,Pattern_Practice,69,5,42,127,2953763156
6722,11,Pattern_Practice,70,1,48,29,2953830756
6722,11,Pattern_Practice,71,1,48,55,2954202724
6722,11,Pattern_Practice,72,1,38,16,2954226868
6722,11,Pattern_Practice,73,5,42,127,2954262752
6722,11,Pattern_Practice,74,1,48,16,2954693096
6722,11,Pattern_Practice,75,1,48,32,2954697560
6722,11,Pattern_Practice,76,1,38,95,2954727912
6722,11,Pattern_Practice,77,5,42,127,2954762876
6722,11,Pattern_Practice,78,1,48,30,2955171704
6722,11,Pattern_Practice,79,1,38,16,2955184700
6722,11,Pattern_Practice,80,1,38,106,2955194404
6722,11,Pattern_Practice,81,5,42,127,2955263324
6722,11,Pattern_Practice,82,1,48,71,2955691016
6722,11,Pattern_Practice,83,1,38,86,2955712088
6722,11,Pattern_Practice,84,5,42,127,2955762984
6722,11,Pattern_Practice,85,1,48,47,2956154692
6722,11,Pattern_Practice,86,1,38,16,2956162004
6722,11,Pattern_Practice,87,5,42,127,2956262676
6722,11,Pattern_Practice,88,1,48,31,2956405240
6722,11,Pattern_Practice,89,1,38,67,2956633828
6722,11,Pattern_Practice,90,5,42,127,2956762572
6722,11,Pattern_Practice,91,1,48,25,2956855996
6722,11,Pattern_Practice,92,1,48,62,2957099020
6722,11,Pattern_Practice,93,1,38,18,2957106256
6722,11,Pattern_Practice,94,5,42,127,2957263096
6722,11,Pattern_Practice,95,1,38,118,2957569768
6722,11,Pattern_Practice,96,1,48,29,2957590204
6722,11,Pattern_Practice,97,5,42,127,2957762980
6722,11,Pattern_Practice,98,1,48,21,2958060448
6722,11,Pattern_Practice,99,5,42,127,2958262748
6722,11,Pattern_Practice,100,1,48,94,2958300576
6722,11,Pattern_Practice,101,1,38,86,2958518612
6722,11,Pattern_Practice,102,1,48,25,2958553448
6722,11,Pattern_Practice,103,5,42,127,2958763344
6722,11,Pattern_Practice,104,1,48,47,2958793240
6722,11,Pattern_Practice,105,1,48,56,2959025640
6722,11,Pattern_Practice,106,5,42,127,2959262944
6722,11,Pattern_Practice,107,1,38,125,2959485168
6722,11,Pattern_Practice,108,5,42,127,2959762788
6722,11,Pattern_Practice,109,1,48,42,2959948364
6722,11,Pattern_Practice,110,1,48,42,2960209780
6722,11,Pattern_Practice,111,5,42,127,2960262624
6722,11,Pattern_Practice,112,1,38,77,2960432848
6722,11,Pattern_Practice,113,1,48,27,2960445320
6722,11,Pattern_Practice,114,5,42,127,2960763676
6722,11,Pattern_Practice,115,1,48,45,2960909660
6722,11,Pattern_Practice,116,5,42,127,2961262996
6722,11,Pattern_Practice,117,1,48,20,2961369564
6722,11,Pattern_Practice,118,1,38,61,2961394900
6722,11,Pattern_Practice,119,5,42,127,2961762644
6722,11,Pattern_Practice,120,1,48,47,2961868460
6722,11,Pattern_Practice,121,1,48,43,2962086720
6722,11,Pattern_Practice,122,5,42,127,2962263516
6722,11,Pattern_Practice,123,1,38,74,2962370152
6722,11,Pattern_Practice,124,5,42,127,2962763060
6722,11,Pattern_Practice,125,1,48,42,2962817640
6722,11,Pattern_Practice,126,1,48,41,2963260316
6722,11,Pattern_Practice,127,5,42,127,2963262896
6722,11,Pattern_Practice,128,1,38,78,2963293092
6722,11,Pattern_Practice,129,5,42,127,2963762712
6722,11,Pattern_Practice,130,1,48,44,2963779520
6722,11,Pattern_Practice,131,1,48,39,2964031892
6722,11,Pattern_Practice,132,1,48,48,2964241704
6722,11,Pattern_Practice,133,5,42,127,2964263204
6722,11,Pattern_Practice,134,1,38,84,2964284796
6722,11,Pattern_Practice,135,1,48,38,2964490740
6722,11,Pattern_Practice,136,5,42,127,2964762848
6722,11,Pattern_Practice,137,1,48,62,2964775016
6722,11,Pattern_Practice,138,1,48,47,2965219692
6722,11,Pattern_Practice,139,1,38,73,2965230364
6722,11,Pattern_Practice,140,5,42,127,2965262640
6722,11,Pattern_Practice,141,1,48,42,2965685752
6722,11,Pattern_Practice,142,5,42,127,2965762528
6722,11,Pattern_Practice,143,1,48,40,2965969704
6722,11,Pattern_Practice,144,1,38,59,2966192680
6722,11,Pattern_Practice,145,1,48,41,2966208968
6722,11,Pattern_Practice,146,5,42,127,2966263228
6722,11,Pattern_Practice,147,1,48,19,2966423404
6722,11,Pattern_Practice,148,1,48,49,2966662536
6722,11,Pattern_Practice,149,5,42,127,2966762784
6722,11,Pattern_Practice,150,1,48,29,2966912904
6722,11,Pattern_Practice,151,1,48,38,2967086740
6722,11,Pattern_Practice,152,1,38,59,2967158376
6722,11,Pattern_Practice,153,5,42,127,2967262560
6722,11,Pattern_Practice,154,1,48,43,2967649664
6722,11,Pattern_Practice,155,1,38,45,2967704700
6722,11,Pattern_Practice,156,5,42,127,2967763656
6722,11,Pattern_Practice,157,1,48,35,2967952736
6722,11,Pattern_Practice,158,1,48,47,2968174064
6722,11,Pattern_Practice,159,1,38,100,2968205684
6722,11,Pattern_Practice,160,5,42,127,2968263088
6722,11,Pattern_Practice,161,1,48,35,2968441588
6722,11,Pattern_Practice,162,1,38,16,2968453312
6722,11,Pattern_Practice,163,1,48,34,2968699816
6722,11,Pattern_Practice,164,1,38,80,2968715508
6722,11,Pattern_Practice,165,5,42,127,2968762664
6722,11,Pattern_Practice,166,1,48,19,2968960092
6722,11,Pattern_Practice,167,1,48,33,2968964628
6722,11,Pattern_Practice,168,1,48,52,2969190748
6722,11,Pattern_Practice,169,1,38,68,2969239648
6722,11,Pattern_Practice,170,5,42,127,2969262564
6722,11,Pattern_Practice,171,1,48,20,2969477944
6722,11,Pattern_Practice,172,1,48,33,2969482488
6722,11,Pattern_Practice,173,1,48,43,2969706508
6722,11,Pattern_Practice,174,1,38,65,2969756004
6722,11,Pattern_Practice,175,5,42,127,2969763144
6722,11,Pattern_Practice,176,1,48,15,2970019212
6722,11,Pattern_Practice,177,1,48,28,2970023672
6722,11,Pattern_Practice,178,5,42,127,2970262848
6722,11,Pattern_Practice,179,1,48,52,2970266560
6722,11,Pattern_Practice,180,1,38,78,2970291308
6722,11,Pattern_Practice,181,1,48,30,2970539400
6722,11,Pattern_Practice,182,5,42,127,2970762636
6722,11,Pattern_Practice,183,1,48,62,2970785648
6722,11,Pattern_Practice,184,1,38,84,2970843000
6722,11,Pattern_Practice,185,1,48,29,2971084888
6722,11,Pattern_Practice,186,5,42,127,2971263620
6722,11,Pattern_Practice,187,1,48,48,2971340564
6722,11,Pattern_Practice,188,1,38,73,2971344804
6722,11,Pattern_Practice,189,1,48,16,2971622584
6722,11,Pattern_Practice,190,5,42,127,2971763096
6722,11,Pattern_Practice,191,1,48,62,2971849768
6722,11,Pattern_Practice,192,1,38,81,2971893804
6722,11,Pattern_Practice,193,5,42,127,2972262740
6722,11,Pattern_Practice,194,1,48,42,2972383296
6722,11,Pattern_Practice,195,1,38,69,2972413416
6722,11,Pattern_Practice,196,5,42,127,2972762760
6722,11,Pattern_Practice,197,1,48,45,2972898196
6722,11,Pattern_Practice,198,1,38,16,2972909996
6722,11,Pattern_Practice,199,1,38,70,2972924936
6722,11,Pattern_Practice,200,5,42,127,2973263212
6722,11,Pattern_Practice,201,1,48,25,2973366636
6722,11,Pattern_Practice,202,1,38,14,2973378736
6722,11,Pattern_Practice,203,1,38,77,2973486196
6722,11,Pattern_Practice,204,5,42,127,2973762912
6722,11,Pattern_Practice,205,1,48,33,2973955420
6722,11,Pattern_Practice,206,1,38,16,2973968076
6722,11,Pattern_Practice,207,1,38,62,2973977708
6722,11,Pattern_Practice,208,5,42,127,2974262776
6722,11,Pattern_Practice,209,1,48,33,2974423864
6722,11,Pattern_Practice,210,1,38,64,2974429308
6722,11,Pattern_Practice,211,5,42,127,2974763468
6722,11,Pattern_Practice,212,1,48,41,2974892696
6722,11,Pattern_Practice,213,1,38,80,2974911604
6722,11,Pattern_Practice,214,5,42,127,2975263128
6722,11,Pattern_Practice,215,1,48,34,2975338652
6722,11,Pattern_Practice,216,1,38,79,2975361444
6722,11,Pattern_Practice,217,5,42,127,2975762700
6722,11,Pattern_Practice,218,1,48,38,2975810396
6722,11,Pattern_Practice,219,1,38,86,2975817112
6722,11,Pattern_Practice,220,5,42,127,2976262692
6722,11,Pattern_Practice,221,1,48,31,2976281468
6722,11,Pattern_Practice,222,1,38,81,2976301720
6722,11,Pattern_Practice,223,1,48,39,2976739564
6722,11,Pattern_Practice,224,5,42,127,2976763232
6722,11,Pattern_Practice,225,1,48,22,2977041192
6722,11,Pattern_Practice,226,1,38,94,2977234448
6722,11,Pattern_Practice,227,1,48,27,2977248640
6722,11,Pattern_Practice,228,5,42,127,2977262812
6722,11,Pattern_Practice,229,1,48,17,2977716520
6722,11,Pattern_Practice,230,5,42,127,2977762776
6722,11,Pattern_Practice,231,1,48,57,2978000396
6722,11,Pattern_Practice,232,1,48,33,2978248576
6722,11,Pattern_Practice,233,5,42,127,2978263424
6722,11,Pattern_Practice,234,1,38,80,2978270656
6722,11,Pattern_Practice,235,1,38,13,2978554112
6722,11,Pattern_Practice,236,1,48,13,2978722556
6722,11,Pattern_Practice,237,5,42,127,2978763132
6722,11,Pattern_Practice,238,1,48,22,2978843152
6722,11,Pattern_Practice,239,1,48,86,2979122676
6722,11,Pattern_Practice,240,5,42,127,2979262792
6722,11,Pattern_Practice,241,1,38,79,2979342652
6722,11,Pattern_Practice,242,1,38,20,2979449244
6722,11,Pattern_Practice,243,1,48,38,2979746944
6722,11,Pattern_Practice,244,1,38,24,2979759784
6722,11,Pattern_Practice,245,5,42,127,2979762512
6722,11,Pattern_Practice,246,1,48,24,2980239944
6722,11,Pattern_Practice,247,5,42,127,2980263312
6722,11,Pattern_Practice,248,1,38,63,2980272788
6722,11,Pattern_Practice,249,1,48,20,2980492908
6722,11,Pattern_Practice,250,1,48,39,2980751416
6722,11,Pattern_Practice,251,5,42,127,2980763112
6722,11,Pattern_Practice,252,1,48,29,2981041204
6722,11,Pattern_Practice,253,5,42,127,2981262644
6722,11,Pattern_Practice,254,1,38,75,2981275408
6722,11,Pattern_Practice,255,1,48,37,2981723332
6722,11,Pattern_Practice,256,5,42,127,2981762704
6722,11,Pattern_Practice,257,1,48,45,2982059936
6722,11,Pattern_Practice,258,1,38,21,2982072860
6722,11,Pattern_Practice,259,1,38,61,2982251316
6722,11,Pattern_Practice,0,9999,9999,9999,2942260328
6722,11,Pattern_Practice,1,9999,9999,9999,2942761068
6722,11,Pattern_Practice,2,9999,9999,9999,2943260784
6722,11,Pattern_Practice,3,9999,9999,9999,2943760476
6722,11,Pattern_Practice,4,9999,9999,9999,2944260192
6722,11,Pattern_Practice,5,9999,9999,9999,2944760936
6722,11,Pattern_Practice,6,9999,9999,9999,2945260660
6722,11,Pattern_Practice,7,9999,9999,9999,2945760376
6722,11,Pattern_Practice,8,9999,9999,9999,2946261040
6722,11,Pattern_Practice,9,9999,9999,9999,2946760808
6722,11,Pattern_Practice,10,9999,9999,9999,2947260532
6722,11,Pattern_Practice,11,9999,9999,9999,2947760180
6722,11,Pattern_Practice,12,9999,9999,9999,2948260976
6722,11,Pattern_Practice,13,9999,9999,9999,2948760624
6722,11,Pattern_Practice,14,9999,9999,9999,2949260364
6722,11,Pattern_Practice,15,9999,9999,9999,2949760116
6722,11,Pattern_Practice,16,9999,9999,9999,2950260832
6722,11,Pattern_Practice,17,9999,9999,9999,2950760564
6722,11,Pattern_Practice,18,9999,9999,9999,2951260224
6722,11,Pattern_Practice,19,9999,9999,9999,2951761008
6722,11,Pattern_Practice,20,9999,9999,9999,2952260720
6722,11,Pattern_Practice,21,9999,9999,9999,2952760388
6722,11,Pattern_Practice,22,9999,9999,9999,2953260084
6722,11,Pattern_Practice,23,9999,9999,9999,2953760872
6722,11,Pattern_Practice,24,9999,9999,9999,2954260540
6722,11,Pattern_Practice,25,9999,9999,9999,2954760292
6722,11,Pattern_Practice,26,9999,9999,9999,2955261036
6722,11,Pattern_Practice,27,9999,9999,9999,2955760700
6722,11,Pattern_Practice,28,9999,9999,9999,2956260464
6722,11,Pattern_Practice,29,9999,9999,9999,2956760136
6722,11,Pattern_Practice,30,9999,9999,9999,2957260884
6722,11,Pattern_Practice,31,9999,9999,9999,2957760616
6722,11,Pattern_Practice,32,9999,9999,9999,2958260312
6722,11,Pattern_Practice,33,9999,9999,9999,2958761056
6722,11,Pattern_Practice,34,9999,9999,9999,2959260732
6722,11,Pattern_Practice,35,9999,9999,9999,2959760500
6722,11,Pattern_Practice,36,9999,9999,9999,2960260188
6722,11,Pattern_Practice,37,9999,9999,9999,2960760940
6722,11,Pattern_Practice,38,9999,9999,9999,2961260636
6722,11,Pattern_Practice,39,9999,9999,9999,2961760356
6722,11,Pattern_Practice,40,9999,9999,9999,2962261076
6722,11,Pattern_Practice,41,9999,9999,9999,2962760772
6722,11,Pattern_Practice,42,9999,9999,9999,2963260536
6722,11,Pattern_Practice,43,9999,9999,9999,2963760204
6722,11,Pattern_Practice,44,9999,9999,9999,2964260916
6722,11,Pattern_Practice,45,9999,9999,9999,2964760636
6722,11,Pattern_Practice,46,9999,9999,9999,2965260352
6722,11,Pattern_Practice,47,9999,9999,9999,2965760096
6722,11,Pattern_Practice,48,9999,9999,9999,2966260796
6722,11,Pattern_Practice,49,9999,9999,9999,2966760500
6722,11,Pattern_Practice,50,9999,9999,9999,2967260272
6722,11,Pattern_Practice,51,9999,9999,9999,2967760996
6722,11,Pattern_Practice,52,9999,9999,9999,2968260724
6722,11,Pattern_Practice,53,9999,9999,9999,2968760380
6722,11,Pattern_Practice,54,9999,9999,9999,2969260132
6722,11,Pattern_Practice,55,9999,9999,9999,2969760856
6722,11,Pattern_Practice,56,9999,9999,9999,2970260564
6722,11,Pattern_Practice,57,9999,9999,9999,2970760276
6722,11,Pattern_Practice,58,9999,9999,9999,2971261036
6722,11,Pattern_Practice,59,9999,9999,9999,2971760736
6722,11,Pattern_Practice,60,9999,9999,9999,2972260456
6722,11,Pattern_Practice,61,9999,9999,9999,2972760176
6722,11,Pattern_Practice,62,9999,9999,9999,2973260852
6722,11,Pattern_Practice,63,9999,9999,9999,2973760624
6722,11,Pattern_Practice,64,9999,9999,9999,2974260340
6722,11,Pattern_Practice,65,9999,9999,9999,2974761032
6722,11,Pattern_Practice,66,9999,9999,9999,2975260768
6722,11,Pattern_Practice,67,9999,9999,9999,2975760488
6722,11,Pattern_Practice,68,9999,9999,9999,2976260184
6722,11,Pattern_Practice,69,9999,9999,9999,2976760944
6722,11,Pattern_Practice,70,9999,9999,9999,2977260600
6722,11,Pattern_Practice,71,9999,9999,9999,2977760340
6722,11,Pattern_Practice,72,9999,9999,9999,2978261060
6722,11,Pattern_Practice,73,9999,9999,9999,2978760772
6722,11,Pattern_Practice,74,9999,9999,9999,2979260504
6722,11,Pattern_Practice,75,9999,9999,9999,2979760228
6722,11,Pattern_Practice,76,9999,9999,9999,2980260952
6722,11,Pattern_Practice,77,9999,9999,9999,2980760680
6722,11,Pattern_Practice,78,9999,9999,9999,2981260356
6722,11,Pattern_Practice,79,9999,9999,9999,2981760120
6723,13,Improv_Metronome,0,1,38,32,3013969336
6723,13,Improv_Metronome,1,1,48,43,3014100912
6723,13,Improv_Metronome,2,5,42,127,3014469960
6723,13,Improv_Metronome,3,1,38,44,3014481012
6723,13,Improv_Metronome,4,5,42,127,3014969804
6723,13,Improv_Metronome,5,5,42,127,3015469520
6723,13,Improv_Metronome,6,1,48,18,3015926384
6723,13,Improv_Metronome,7,1,38,61,3015946492
6723,13,Improv_Metronome,8,5,42,127,3015970256
6723,13,Improv_Metronome,9,1,48,27,3016461340
6723,13,Improv_Metronome,10,5,42,127,3016469748
6723,13,Improv_Metronome,11,1,38,34,3016478624
6723,13,Improv_Metronome,12,1,48,33,3016888348
6723,13,Improv_Metronome,13,1,38,14,3016896632
6723,13,Improv_Metronome,14,1,48,32,3016932208
6723,13,Improv_Metronome,15,1,38,18,3016943108
6723,13,Improv_Metronome,16,5,42,127,3016969772
6723,13,Improv_Metronome,17,1,48,32,3017379572
6723,13,Improv_Metronome,18,1,38,18,3017392272
6723,13,Improv_Metronome,19,1,38,77,3017417376
6723,13,Improv_Metronome,20,5,42,127,3017470368
6723,13,Improv_Metronome,21,1,48,38,3017882876
6723,13,Improv_Metronome,22,1,38,113,3017903204
6723,13,Improv_Metronome,23,5,42,127,3017969952
6723,13,Improv_Metronome,24,1,48,17,3018217736
6723,13,Improv_Metronome,25,1,38,127,3018441528
6723,13,Improv_Metronome,26,5,42,127,3018469912
6723,13,Improv_Metronome,27,1,48,37,3018670284
6723,13,Improv_Metronome,28,1,48,106,3018930808
6723,13,Improv_Metronome,29,5,42,127,3018969512
6723,13,Improv_Metronome,30,1,48,24,3019156264
6723,13,Improv_Metronome,31,1,48,46,3019399812
6723,13,Improv_Metronome,32,1,38,98,3019422380
6723,13,Improv_Metronome,33,5,42,127,3019470136
6723,13,Improv_Metronome,34,1,48,27,3019632480
6723,13,Improv_Metronome,35,1,48,86,3019904672
6723,13,Improv_Metronome,36,1,38,24,3019912056
6723,13,Improv_Metronome,37,5,42,127,3019969984
6723,13,Improv_Metronome,38,1,48,16,3020150356
6723,13,Improv_Metronome,39,1,48,47,3020380512
6723,13,Improv_Metronome,40,1,38,72,3020400988
6723,13,Improv_Metronome,41,5,42,127,3020469832
6723,13,Improv_Metronome,42,1,48,32,3020627244
6723,13,Improv_Metronome,43,1,38,13,3020634852
6723,13,Improv_Metronome,44,1,48,54,3020881512
6723,13,Improv_Metronome,45,5,42,127,3020970256
6723,13,Improv_Metronome,46,1,48,54,3021074812
6723,13,Improv_Metronome,47,1,48,51,3021335260
6723,13,Improv_Metronome,48,1,38,101,3021359328
6723,13,Improv_Metronome,49,5,42,127,3021470016
6723,13,Improv_Metronome,50,1,48,46,3021836828
6723,13,Improv_Metronome,51,5,42,127,3021969984
6723,13,Improv_Metronome,52,1,48,36,3022080216
6723,13,Improv_Metronome,53,1,48,48,3022284488
6723,13,Improv_Metronome,54,1,38,90,3022294716
6723,13,Improv_Metronome,55,5,42,127,3022469460
6723,13,Improv_Metronome,56,1,48,35,3022513568
6723,13,Improv_Metronome,57,1,48,51,3022796008
6723,13,Improv_Metronome,58,5,42,127,3022970104
6723,13,Improv_Metronome,59,1,48,28,3023030216
6723,13,Improv_Metronome,60,1,48,47,3023231652
6723,13,Improv_Metronome,61,1,38,67,3023254220
6723,13,Improv_Metronome,62,1,48,36,3023466548
6723,13,Improv_Metronome,63,5,42,127,3023469872
6723,13,Improv_Metronome,64,1,48,54,3023734120
6723,13,Improv_Metronome,65,1,48,38,3023962556
6723,13,Improv_Metronome,66,5,42,127,3023969916
6723,13,Improv_Metronome,67,1,48,45,3024193552
6723,13,Improv_Metronome,68,1,38,90,3024215448
6723,13,Improv_Metronome,69,1,48,27,3024451036
6723,13,Improv_Metronome,70,1,38,13,3024464404
6723,13,Improv_Metronome,71,5,42,127,3024470496
6723,13,Improv_Metronome,72,1,48,45,3024700160
6723,13,Improv_Metronome,73,5,42,127,3024970076
6723,13,Improv_Metronome,74,1,48,46,3025127276
6723,13,Improv_Metronome,75,1,38,71,3025171876
6723,13,Improv_Metronome,76,1,48,22,3025393152
6723,13,Improv_Metronome,77,5,42,127,3025469880
6723,13,Improv_Metronome,78,1,48,48,3025646508
6723,13,Improv_Metronome,79,1,48,17,3025886244
6723,13,Improv_Metronome,80,5,42,127,3025969696
6723,13,Improv_Metronome,81,1,48,65,3026114020
6723,13,Improv_Metronome,82,1,38,59,3026141976
6723,13,Improv_Metronome,83,1,48,27,3026360364
6723,13,Improv_Metronome,84,5,42,127,3026470280
6723,13,Improv_Metronome,85,1,48,45,3026615740
6723,13,Improv_Metronome,86,1,38,61,3026637112
6723,13,Improv_Metronome,87,5,42,127,3026970080
6723,13,Improv_Metronome,88,1,48,17,3027031988
6723,13,Improv_Metronome,89,1,48,32,3027036456
6723,13,Improv_Metronome,90,1,38,61,3027097244
6723,13,Improv_Metronome,91,5,42,127,3027469852
6723,13,Improv_Metronome,92,1,48,40,3027526004
6723,13,Improv_Metronome,93,1,38,42,3027544684
6723,13,Improv_Metronome,94,5,42,127,3027970524
6723,13,Improv_Metronome,95,1,48,59,3027973492
6723,13,Improv_Metronome,96,1,38,45,3027993932
6723,13,Improv_Metronome,97,1,48,27,3028196436
6723,13,Improv_Metronome,98,1,48,127,3028421952
6723,13,Improv_Metronome,99,1,38,81,3028455444
6723,13,Improv_Metronome,100,5,42,127,3028469988
6723,13,Improv_Metronome,101,1,48,21,3028709896
6723,13,Improv_Metronome,102,1,38,35,3028728500
6723,13,Improv_Metronome,103,1,48,35,3028950476
6723,13,Improv_Metronome,104,1,38,60,3028963920
6723,13,Improv_Metronome,105,5,42,127,3028969936
6723,13,Improv_Metronome,106,1,48,127,3029442192
6723,13,Improv_Metronome,107,5,42,127,3029469828
6723,13,Improv_Metronome,108,1,38,72,3029483644
6723,13,Improv_Metronome,109,1,48,14,3029769272
6723,13,Improv_Metronome,110,1,48,99,3029965316
6723,13,Improv_Metronome,111,5,42,127,3029970436
6723,13,Improv_Metronome,112,1,38,82,3029978344
6723,13,Improv_Metronome,113,1,48,14,3030245192
6723,13,Improv_Metronome,114,1,48,127,3030446256
6723,13,Improv_Metronome,115,5,42,127,3030470224
6723,13,Improv_Metronome,116,1,38,97,3030496680
6723,13,Improv_Metronome,117,1,48,115,3030916956
6723,13,Improv_Metronome,118,5,42,127,3030969796
6723,13,Improv_Metronome,119,1,48,49,3031199264
6723,13,Improv_Metronome,120,1,48,39,3031406832
6723,13,Improv_Metronome,121,1,38,86,3031411224
6723,13,Improv_Metronome,122,5,42,127,3031469600
6723,13,Improv_Metronome,123,1,48,16,3031624688
6723,13,Improv_Metronome,124,1,48,32,3031629084
6723,13,Improv_Metronome,125,1,48,34,3031899100
6723,13,Improv_Metronome,126,1,38,20,3031912476
6723,13,Improv_Metronome,127,1,38,51,3031918360
6723,13,Improv_Metronome,128,5,42,127,3031970004
6723,13,Improv_Metronome,129,1,48,23,3032154712
6723,13,Improv_Metronome,130,1,48,59,3032414788
6723,13,Improv_Metronome,131,1,38,96,3032418208
6723,13,Improv_Metronome,132,5,42,127,3032469780
6723,13,Improv_Metronome,133,1,48,41,3032671320
6723,13,Improv_Metronome,134,1,48,55,3032903492
6723,13,Improv_Metronome,135,5,42,127,3032969796
6723,13,Improv_Metronome,136,1,48,71,3033370424
6723,13,Improv_Metronome,137,1,38,52,3033379456
6723,13,Improv_Metronome,138,5,42,127,3033470208
6723,13,Improv_Metronome,139,1,48,84,3033818600
6723,13,Improv_Metronome,140,5,42,127,3033970036
6723,13,Improv_Metronome,141,1,48,72,3034251356
6723,13,Improv_Metronome,142,1,38,126,3034282892
6723,13,Improv_Metronome,143,5,42,127,3034469608
6723,13,Improv_Metronome,144,1,48,71,3034730204
6723,13,Improv_Metronome,145,5,42,127,3034969456
6723,13,Improv_Metronome,146,1,48,127,3035187188
6723,13,Improv_Metronome,147,1,38,90,3035225396
6723,13,Improv_Metronome,148,5,42,127,3035470372
6723,13,Improv_Metronome,149,1,48,42,3035644108
6723,13,Improv_Metronome,150,1,48,43,3035856828
6723,13,Improv_Metronome,151,5,42,127,3035969896
6723,13,Improv_Metronome,152,1,38,93,3036076608
6723,13,Improv_Metronome,153,1,48,41,3036080332
6723,13,Improv_Metronome,154,5,42,127,3036469540
6723,13,Improv_Metronome,155,1,48,31,3036550972
6723,13,Improv_Metronome,156,1,48,26,3036716580
6723,13,Improv_Metronome,157,5,42,127,3036970336
6723,13,Improv_Metronome,158,1,48,51,3036971304
6723,13,Improv_Metronome,159,1,38,67,3037024984
6723,13,Improv_Metronome,160,1,48,32,3037211504
6723,13,Improv_Metronome,161,1,48,61,3037455648
6723,13,Improv_Metronome,162,5,42,127,3037470044
6723,13,Improv_Metronome,163,1,48,42,3037725612
6723,13,Improv_Metronome,164,1,48,59,3037938612
6723,13,Improv_Metronome,165,1,38,52,3037952584
6723,13,Improv_Metronome,166,5,42,127,3037969696
6723,13,Improv_Metronome,167,1,48,74,3038422780
6723,13,Improv_Metronome,168,1,38,53,3038432184
6723,13,Improv_Metronome,169,5,42,127,3038469468
6723,13,Improv_Metronome,170,1,48,54,3038854956
6723,13,Improv_Metronome,171,1,38,63,3038895632
6723,13,Improv_Metronome,172,5,42,127,3038970224
6723,13,Improv_Metronome,173,1,48,54,3039341084
6723,13,Improv_Metronome,174,1,38,65,3039356172
6723,13,Improv_Metronome,175,5,42,127,3039469856
6723,13,Improv_Metronome,176,1,48,56,3039815824
6723,13,Improv_Metronome,177,1,38,70,3039851636
6723,13,Improv_Metronome,178,5,42,127,3039969652
6723,13,Improv_Metronome,179,1,48,47,3040313300
6723,13,Improv_Metronome,180,1,38,61,3040359660
6723,13,Improv_Metronome,181,5,42,127,3040470348
6723,13,Improv_Metronome,182,1,48,54,3040772084
6723,13,Improv_Metronome,183,1,38,56,3040824464
6723,13,Improv_Metronome,184,5,42,127,3040970308
6723,13,Improv_Metronome,185,1,48,75,3041265236
6723,13,Improv_Metronome,186,1,38,67,3041289076
6723,13,Improv_Metronome,187,5,42,127,3041469656
6723,13,Improv_Metronome,188,1,48,30,3041641768
6723,13,Improv_Metronome,189,1,48,55,3041686468
6723,13,Improv_Metronome,190,1,48,127,3041935628
6723,13,Improv_Metronome,191,5,42,127,3041969472
6723,13,Improv_Metronome,192,1,48,52,3042061308
6723,13,Improv_Metronome,193,1,48,27,3042173036
6723,13,Improv_Metronome,194,1,38,15,3042180644
6723,13,Improv_Metronome,195,5,42,127,3042470204
6723,13,Improv_Metronome,196,1,38,49,3042585992
6723,13,Improv_Metronome,197,1,48,40,3042603476
6723,13,Improv_Metronome,198,1,48,21,3042928072
6723,13,Improv_Metronome,199,5,42,127,3042969916
6723,13,Improv_Metronome,200,1,38,71,3043113072
6723,13,Improv_Metronome,201,1,48,32,3043437540
6723,13,Improv_Metronome,202,1,38,20,3043450916
6723,13,Improv_Metronome,203,5,42,127,3043469724
6723,13,Improv_Metronome,204,1,38,95,3043518300
6723,13,Improv_Metronome,205,1,48,27,3043602532
6723,13,Improv_Metronome,206,1,38,32,3043642748
6723,13,Improv_Metronome,207,1,48,38,3043840020
6723,13,Improv_Metronome,208,5,42,127,3043970580
6723,13,Improv_Metronome,209,1,48,40,3044042736
6723,13,Improv_Metronome,210,1,38,81,3044074132
6723,13,Improv_Metronome,211,1,48,21,3044197676
6723,13,Improv_Metronome,212,1,48,116,3044402324
6723,13,Improv_Metronome,213,5,42,127,3044470048
6723,13,Improv_Metronome,214,1,38,67,3044550564
6723,13,Improv_Metronome,215,1,48,86,3044897356
6723,13,Improv_Metronome,216,5,42,127,3044969720
6723,13,Improv_Metronome,217,1,38,34,3045052032
6723,13,Improv_Metronome,218,1,38,19,3045305676
6723,13,Improv_Metronome,219,1,48,20,3045427528
6723,13,Improv_Metronome,220,1,48,33,3045431916
6723,13,Improv_Metronome,221,5,42,127,3045469500
6723,13,Improv_Metronome,222,1,38,43,3045534160
6723,13,Improv_Metronome,223,1,48,19,3045686380
6723,13,Improv_Metronome,224,1,48,28,3045917204
6723,13,Improv_Metronome,225,5,42,127,3045970492
6723,13,Improv_Metronome,226,1,38,71,3045995528
6723,13,Improv_Metronome,227,1,48,39,3046430548
6723,13,Improv_Metronome,228,5,42,127,3046469928
6723,13,Improv_Metronome,229,1,38,80,3046474168
6723,13,Improv_Metronome,230,1,48,26,3046898248
6723,13,Improv_Metronome,231,5,42,127,3046969588
6723,13,Improv_Metronome,232,1,38,81,3046988412
6723,13,Improv_Metronome,233,1,48,20,3046998416
6723,13,Improv_Metronome,234,1,48,36,3047443464
6723,13,Improv_Metronome,235,5,42,127,3047469300
6723,13,Improv_Metronome,236,1,38,84,3047527992
6723,13,Improv_Metronome,237,1,38,31,3047714588
6723,13,Improv_Metronome,238,1,48,27,3047897820
6723,13,Improv_Metronome,239,1,38,16,3047910892
6723,13,Improv_Metronome,240,5,42,127,3047970412
6723,13,Improv_Metronome,241,1,38,81,3048019416
6723,13,Improv_Metronome,242,1,48,27,3048179984
6723,13,Improv_Metronome,243,1,48,69,3048403404
6723,13,Improv_Metronome,244,5,42,127,3048469736
6723,13,Improv_Metronome,245,1,38,68,3048496492
6723,13,Improv_Metronome,246,1,48,120,3048916824
6723,13,Improv_Metronome,247,1,38,79,3048968680
6723,13,Improv_Metronome,248,5,42,127,3048971448
6723,13,Improv_Metronome,249,1,48,127,3049336044
6723,13,Improv_Metronome,250,1,38,27,3049461680
6723,13,Improv_Metronome,251,5,42,127,3049470464
6723,13,Improv_Metronome,252,1,38,43,3049650268
6723,13,Improv_Metronome,253,1,48,36,3049872940
6723,13,Improv_Metronome,254,1,38,70,3049905756
6723,13,Improv_Metronome,255,5,42,127,3049969880
6723,13,Improv_Metronome,256,1,48,39,3050335652
6723,13,Improv_Metronome,257,1,38,50,3050403472
6723,13,Improv_Metronome,258,5,42,127,3050469688
6723,13,Improv_Metronome,259,1,38,27,3050585460
6723,13,Improv_Metronome,260,1,48,24,3050809412
6723,13,Improv_Metronome,261,1,38,46,3050844092
6723,13,Improv_Metronome,262,5,42,127,3050969448
6723,13,Improv_Metronome,263,1,48,14,3050980720
6723,13,Improv_Metronome,264,1,48,127,3051295568
6723,13,Improv_Metronome,265,1,38,70,3051359800
6723,13,Improv_Metronome,266,5,42,127,3051470492
6723,13,Improv_Metronome,267,1,48,35,3051619568
6723,13,Improv_Metronome,268,1,48,59,3051827436
6723,13,Improv_Metronome,269,1,38,78,3051870044
6723,13,Improv_Metronome,270,5,42,127,3051969892
6723,13,Improv_Metronome,271,1,48,14,3052084036
6723,13,Improv_Metronome,272,1,48,31,3052088504
6723,13,Improv_Metronome,273,1,48,70,3052314616
6723,13,Improv_Metronome,274,5,42,127,3052469468
6723,13,Improv_Metronome,275,1,48,58,3052680624
6723,13,Improv_Metronome,276,1,38,78,3052816380
6723,13,Improv_Metronome,277,5,42,127,3052970560
6723,13,Improv_Metronome,278,1,48,48,3053148212
6723,13,Improv_Metronome,279,1,48,30,3053320300
6723,13,Improv_Metronome,280,1,38,60,3053328916
6723,13,Improv_Metronome,281,5,42,127,3053470424
6723,13,Improv_Metronome,282,1,48,57,3053666696
6723,13,Improv_Metronome,283,1,38,60,3053835964
6723,13,Improv_Metronome,284,5,42,127,3053969724
6723,13,Improv_Metronome,285,1,48,60,3054201748
6723,13,Improv_Metronome,286,1,38,55,3054327836
6723,13,Improv_Metronome,287,1,48,17,3054431204
6723,13,Improv_Metronome,288,1,48,29,3054435672
6723,13,Improv_Metronome,289,5,42,127,3054469440
6723,13,Improv_Metronome,290,1,48,16,3054725608
6723,13,Improv_Metronome,291,1,48,28,3054730148
6723,13,Improv_Metronome,292,1,38,74,3054879828
6723,13,Improv_Metronome,293,1,48,16,3054945404
6723,13,Improv_Metronome,294,5,42,127,3054970416
6723,13,Improv_Metronome,295,1,48,58,3055206064
6723,13,Improv_Metronome,296,1,38,73,3055345168
6723,13,Improv_Metronome,297,5,42,127,3055469900
6723,13,Improv_Metronome,298,1,48,16,3055476380
6723,13,Improv_Metronome,299,1,48,25,3055480852
6723,13,Improv_Metronome,300,1,38,59,3055504692
6723,13,Improv_Metronome,301,1,48,26,3055671836
6723,13,Improv_Metronome,302,1,38,57,3055853424
6723,13,Improv_Metronome,303,1,48,21,3055955452
6723,13,Improv_Metronome,304,1,38,15,3055967564
6723,13,Improv_Metronome,305,5,42,127,3055969976
6723,13,Improv_Metronome,306,1,38,23,3056031804
6723,13,Improv_Metronome,307,1,48,62,3056218248
6723,13,Improv_Metronome,308,1,38,76,3056387864
6723,13,Improv_Metronome,309,5,42,127,3056470500
6723,13,Improv_Metronome,310,1,38,37,3056588640
6723,13,Improv_Metronome,311,1,38,21,3056871460
6723,13,Improv_Metronome,312,5,42,127,3056970232
6723,13,Improv_Metronome,313,1,38,55,3057029000
6723,13,Improv_Metronome,314,1,48,26,3057310848
6723,13,Improv_Metronome,315,1,38,17,3057323092
6723,13,Improv_Metronome,316,1,38,86,3057385600
6723,13,Improv_Metronome,317,5,42,127,3057470312
6723,13,Improv_Metronome,318,1,38,70,3057513660
6723,13,Improv_Metronome,319,1,48,49,3057797892
6723,13,Improv_Metronome,320,1,38,94,3057924728
6723,13,Improv_Metronome,321,5,42,127,3057969516
6723,13,Improv_Metronome,322,1,48,24,3058293304
6723,13,Improv_Metronome,323,1,38,77,3058390152
6723,13,Improv_Metronome,324,5,42,127,3058470372
6723,13,Improv_Metronome,325,1,48,32,3058802840
6723,13,Improv_Metronome,326,1,38,66,3058882028
6723,13,Improv_Metronome,327,5,42,127,3058969960
6723,13,Improv_Metronome,328,1,48,50,3059306012
6723,13,Improv_Metronome,329,1,38,64,3059426640
6723,13,Improv_Metronome,330,5,42,127,3059469560
6723,13,Improv_Metronome,331,1,38,50,3059568028
6723,13,Improv_Metronome,332,1,48,34,3059762508
6723,13,Improv_Metronome,333,1,38,77,3059962344
6723,13,Improv_Metronome,334,5,42,127,3059970308
6723,13,Improv_Metronome,335,1,38,21,3060185560
6723,13,Improv_Metronome,336,1,38,68,3060441148
6723,13,Improv_Metronome,337,5,42,127,3060470128
6723,13,Improv_Metronome,338,1,48,54,3060913088
6723,13,Improv_Metronome,339,5,42,127,3060969748
6723,13,Improv_Metronome,340,1,38,65,3060977128
6723,13,Improv_Metronome,341,1,38,17,3061072768
6723,13,Improv_Metronome,342,1,48,65,3061461276
6723,13,Improv_Metronome,343,5,42,127,3061469684
6723,13,Improv_Metronome,344,1,38,74,3061512820
6723,13,Improv_Metronome,345,5,42,127,3061970244
6723,13,Improv_Metronome,346,1,38,69,3062000292
6723,13,Improv_Metronome,347,1,38,17,3062100748
6723,13,Improv_Metronome,348,1,38,27,3062192728
6723,13,Improv_Metronome,349,1,48,55,3062410768
6723,13,Improv_Metronome,350,5,42,127,3062470112
6723,13,Improv_Metronome,351,1,38,64,3062526620
6723,13,Improv_Metronome,352,1,48,44,3062920536
6723,13,Improv_Metronome,353,5,42,127,3062969640
6723,13,Improv_Metronome,354,1,38,68,3063020688
6723,13,Improv_Metronome,355,1,48,27,3063136476
6723,13,Improv_Metronome,356,1,48,16,3063347632
6723,13,Improv_Metronome,357,5,42,127,3063469420
6723,13,Improv_Metronome,358,1,38,79,3063529984
6723,13,Improv_Metronome,359,1,48,61,3063934516
6723,13,Improv_Metronome,360,1,38,42,3063956864
6723,13,Improv_Metronome,361,5,42,127,3063970136
6723,13,Improv_Metronome,362,1,48,68,3064118792
6723,13,Improv_Metronome,363,1,48,37,3064311672
6723,13,Improv_Metronome,364,1,38,72,3064448184
6723,13,Improv_Metronome,365,5,42,127,3064469908
6723,13,Improv_Metronome,366,1,38,55,3064592640
6723,13,Improv_Metronome,367,1,48,65,3064786564
6723,13,Improv_Metronome,368,1,48,19,3064960996
6723,13,Improv_Metronome,369,1,48,31,3064965540
6723,13,Improv_Metronome,370,1,38,82,3064968396
6723,13,Improv_Metronome,371,5,42,127,3064971164
6723,13,Improv_Metronome,372,1,48,93,3065366536
6723,13,Improv_Metronome,373,1,38,75,3065430540
6723,13,Improv_Metronome,374,5,42,127,3065470352
6723,13,Improv_Metronome,375,1,48,71,3065861904
6723,13,Improv_Metronome,376,1,38,56,3065942776
6723,13,Improv_Metronome,377,5,42,127,3065970172
6723,13,Improv_Metronome,378,1,48,16,3066228812
6723,13,Improv_Metronome,379,1,38,58,3066456044
6723,13,Improv_Metronome,380,1,48,29,3066459248
6723,13,Improv_Metronome,381,5,42,127,3066469972
6723,13,Improv_Metronome,382,1,48,18,3066667252
6723,13,Improv_Metronome,383,1,48,59,3066893292
6723,13,Improv_Metronome,384,1,38,69,3066938528
6723,13,Improv_Metronome,385,5,42,127,3066969376
6723,13,Improv_Metronome,386,1,48,56,3067358132
6723,13,Improv_Metronome,387,1,38,74,3067432648
6723,13,Improv_Metronome,388,5,42,127,3067470144
6723,13,Improv_Metronome,389,1,38,27,3067628228
6723,13,Improv_Metronome,390,1,38,66,3067915332
6723,13,Improv_Metronome,391,5,42,127,3067969964
6723,13,Improv_Metronome,392,1,48,63,3068407664
6723,13,Improv_Metronome,393,1,38,67,3068430872
6723,13,Improv_Metronome,394,5,42,127,3068469728
6723,13,Improv_Metronome,395,1,48,39,3068864244
6723,13,Improv_Metronome,396,5,42,127,3068970348
6723,13,Improv_Metronome,397,1,38,73,3068976908
6723,13,Improv_Metronome,398,1,48,40,3069404756
6723,13,Improv_Metronome,399,5,42,127,3069470112
6723,13,Improv_Metronome,400,1,38,55,3069499020
6723,13,Improv_Metronome,401,1,48,33,3069622420
6723,13,Improv_Metronome,402,1,48,36,3069806492
6723,13,Improv_Metronome,403,5,42,127,3069969676
6723,13,Improv_Metronome,404,1,38,79,3069987676
6723,13,Improv_Metronome,405,1,48,52,3070298468
6723,13,Improv_Metronome,406,1,48,45,3070455516
6723,13,Improv_Metronome,407,5,42,127,3070469540
6723,13,Improv_Metronome,408,1,38,66,3070538432
6723,13,Improv_Metronome,409,1,48,34,3070911652
6723,13,Improv_Metronome,410,5,42,127,3070970172
6723,13,Improv_Metronome,411,1,38,61,3071028284
6723,13,Improv_Metronome,412,1,48,36,3071410872
6723,13,Improv_Metronome,413,5,42,127,3071470144
6723,13,Improv_Metronome,414,1,38,67,3071555700
6723,13,Improv_Metronome,415,1,38,34,3071775012
6723,13,Improv_Metronome,416,5,42,127,3071969504
6723,13,Improv_Metronome,417,1,48,29,3072056268
6723,13,Improv_Metronome,418,1,48,37,3072176524
6723,13,Improv_Metronome,419,1,38,38,3072388280
6723,13,Improv_Metronome,420,5,42,127,3072470516
6723,13,Improv_Metronome,421,1,48,24,3072727956
6723,13,Improv_Metronome,422,5,42,127,3072970120
6723,13,Improv_Metronome,423,1,48,45,3073133856
6723,13,Improv_Metronome,424,1,38,17,3073146548
6723,13,Improv_Metronome,425,1,38,52,3073163508
6723,13,Improv_Metronome,426,5,42,127,3073469672
6723,13,Improv_Metronome,427,1,48,37,3073515496
6723,13,Improv_Metronome,428,1,48,45,3073680508
6723,13,Improv_Metronome,429,1,38,80,3073709208
6723,13,Improv_Metronome,430,5,42,127,3073969604
6723,13,Improv_Metronome,431,1,48,33,3074056352
6723,13,Improv_Metronome,432,1,38,43,3074253368
6723,13,Improv_Metronome,433,5,42,127,3074470176
6723,13,Improv_Metronome,434,1,48,29,3074606312
6723,13,Improv_Metronome,435,5,42,127,3074970096
6723,13,Improv_Metronome,436,1,38,22,3075041880
6723,13,Improv_Metronome,437,1,48,20,3075401604
6723,13,Improv_Metronome,438,1,38,65,3075408468
6723,13,Improv_Metronome,439,5,42,127,3075469836
6723,13,Improv_Metronome,440,1,48,44,3075868944
6723,13,Improv_Metronome,441,1,38,67,3075962120
6723,13,Improv_Metronome,442,5,42,127,3075970380
6723,13,Improv_Metronome,443,1,48,46,3076410580
6723,13,Improv_Metronome,444,1,38,63,3076468244
6723,13,Improv_Metronome,445,5,42,127,3076471328
6723,13,Improv_Metronome,446,1,48,27,3076727848
6723,13,Improv_Metronome,447,1,48,40,3076915960
6723,13,Improv_Metronome,448,5,42,127,3076969852
6723,13,Improv_Metronome,449,1,38,75,3076989428
6723,13,Improv_Metronome,450,1,48,32,3077236604
6723,13,Improv_Metronome,451,1,48,31,3077431908
6723,13,Improv_Metronome,452,5,42,127,3077469492
6723,13,Improv_Metronome,453,1,38,77,3077492884
6723,13,Improv_Metronome,454,1,38,29,3077587976
6723,13,Improv_Metronome,455,1,48,27,3077879536
6723,13,Improv_Metronome,456,5,42,127,3077970324
6723,13,Improv_Metronome,457,1,38,64,3078058104
6723,13,Improv_Metronome,458,1,38,16,3078269628
6723,13,Improv_Metronome,459,5,42,127,3078470056
6723,13,Improv_Metronome,460,1,48,54,3078534660
6723,13,Improv_Metronome,461,1,38,63,3078555132
6723,13,Improv_Metronome,462,1,38,32,3078765064
6723,13,Improv_Metronome,463,5,42,127,3078969684
6723,13,Improv_Metronome,464,1,48,57,3079028152
6723,13,Improv_Metronome,465,1,38,75,3079059624
6723,13,Improv_Metronome,466,5,42,127,3079469552
6723,13,Improv_Metronome,467,1,48,54,3079503784
6723,13,Improv_Metronome,468,1,38,76,3079565848
6723,13,Improv_Metronome,469,5,42,127,3079970100
6723,13,Improv_Metronome,470,1,48,52,3079987656
6723,13,Improv_Metronome,471,1,38,79,3080037296
6723,13,Improv_Metronome,472,1,48,35,3080383288
6723,13,Improv_Metronome,473,5,42,127,3080469964
6723,13,Improv_Metronome,474,1,48,19,3080539788
6723,13,Improv_Metronome,475,1,38,69,3080565200
6723,13,Improv_Metronome,476,1,48,48,3080956440
6723,13,Improv_Metronome,477,5,42,127,3080969488
6723,13,Improv_Metronome,478,1,38,71,3081104412
6723,13,Improv_Metronome,479,5,42,127,3081470292
6723,13,Improv_Metronome,480,1,48,52,3081515100
6723,13,Improv_Metronome,481,1,38,55,3081549260
6723,13,Improv_Metronome,482,1,38,19,3081647868
6723,13,Improv_Metronome,483,5,42,127,3081969992
6723,13,Improv_Metronome,484,1,48,71,3081982984
6723,13,Improv_Metronome,485,1,48,52,3082005124
6723,13,Improv_Metronome,486,1,38,54,3082055516
6723,13,Improv_Metronome,487,1,38,25,3082265524
6723,13,Improv_Metronome,488,1,48,56,3082442032
6723,13,Improv_Metronome,489,5,42,127,3082469812
6723,13,Improv_Metronome,490,1,38,72,3082561276
6723,13,Improv_Metronome,491,5,42,127,3082969420
6723,13,Improv_Metronome,492,1,48,56,3082978972
6723,13,Improv_Metronome,493,1,38,66,3083046008
6723,13,Improv_Metronome,494,1,48,35,3083284516
6723,13,Improv_Metronome,495,5,42,127,3083470180
6723,13,Improv_Metronome,496,1,48,58,3083496932
6723,13,Improv_Metronome,497,1,38,32,3083584616
6723,13,Improv_Metronome,498,1,48,38,3083806216
6723,13,Improv_Metronome,499,5,42,127,3083969964
6723,13,Improv_Metronome,500,1,48,46,3083994328
6723,13,Improv_Metronome,501,1,38,68,3084080740
6723,13,Improv_Metronome,502,1,38,41,3084149724
6723,13,Improv_Metronome,503,1,48,41,3084386316
6723,13,Improv_Metronome,0,9999,9999,9999,3014467676
6723,13,Improv_Metronome,1,9999,9999,9999,3014967368
6723,13,Improv_Metronome,2,9999,9999,9999,3015467084
6723,13,Improv_Metronome,3,9999,9999,9999,3015967824
6723,13,Improv_Metronome,4,9999,9999,9999,3016467536
6723,13,Improv_Metronome,5,9999,9999,9999,3016967260
6723,13,Improv_Metronome,6,9999,9999,9999,3017468008
6723,13,Improv_Metronome,7,9999,9999,9999,3017967668
6723,13,Improv_Metronome,8,9999,9999,9999,3018467404
6723,13,Improv_Metronome,9,9999,9999,9999,3018967148
6723,13,Improv_Metronome,10,9999,9999,9999,3019467848
6723,13,Improv_Metronome,11,9999,9999,9999,3019967552
6723,13,Improv_Metronome,12,9999,9999,9999,3020467248
6723,13,Improv_Metronome,13,9999,9999,9999,3020968044
6723,13,Improv_Metronome,14,9999,9999,9999,3021467732
6723,13,Improv_Metronome,15,9999,9999,9999,3021967476
6723,13,Improv_Metronome,16,9999,9999,9999,3022467176
6723,13,Improv_Metronome,17,9999,9999,9999,3022967892
6723,13,Improv_Metronome,18,9999,9999,9999,3023467588
6723,13,Improv_Metronome,19,9999,9999,9999,3023967332
6723,13,Improv_Metronome,20,9999,9999,9999,3024468060
6723,13,Improv_Metronome,21,9999,9999,9999,3024967788
6723,13,Improv_Metronome,22,9999,9999,9999,3025467444
6723,13,Improv_Metronome,23,9999,9999,9999,3025967188
6723,13,Improv_Metronome,24,9999,9999,9999,3026467920
6723,13,Improv_Metronome,25,9999,9999,9999,3026967644
6723,13,Improv_Metronome,26,9999,9999,9999,3027467320
6723,13,Improv_Metronome,27,9999,9999,9999,3027968088
6723,13,Improv_Metronome,28,9999,9999,9999,3028467776
6723,13,Improv_Metronome,29,9999,9999,9999,3028967504
6723,13,Improv_Metronome,30,9999,9999,9999,3029467244
6723,13,Improv_Metronome,31,9999,9999,9999,3029967928
6723,13,Improv_Metronome,32,9999,9999,9999,3030467640
6723,13,Improv_Metronome,33,9999,9999,9999,3030967364
6723,13,Improv_Metronome,34,9999,9999,9999,3031467092
6723,13,Improv_Metronome,35,9999,9999,9999,3031967792
6723,13,Improv_Metronome,36,9999,9999,9999,3032467568
6723,13,Improv_Metronome,37,9999,9999,9999,3032967288
6723,13,Improv_Metronome,38,9999,9999,9999,3033467992
6723,13,Improv_Metronome,39,9999,9999,9999,3033967672
6723,13,Improv_Metronome,40,9999,9999,9999,3034467396
6723,13,Improv_Metronome,41,9999,9999,9999,3034967092
6723,13,Improv_Metronome,42,9999,9999,9999,3035467860
6723,13,Improv_Metronome,43,9999,9999,9999,3035967608
6723,13,Improv_Metronome,44,9999,9999,9999,3036467256
6723,13,Improv_Metronome,45,9999,9999,9999,3036968052
6723,13,Improv_Metronome,46,9999,9999,9999,3037467756
6723,13,Improv_Metronome,47,9999,9999,9999,3037967412
6723,13,Improv_Metronome,48,9999,9999,9999,3038467184
6723,13,Improv_Metronome,49,9999,9999,9999,3038967864
6723,13,Improv_Metronome,50,9999,9999,9999,3039467568
6723,13,Improv_Metronome,51,9999,9999,9999,3039967292
6723,13,Improv_Metronome,52,9999,9999,9999,3040468060
6723,13,Improv_Metronome,53,9999,9999,9999,3040967796
6723,13,Improv_Metronome,54,9999,9999,9999,3041467444
6723,13,Improv_Metronome,55,9999,9999,9999,3041967184
6723,13,Improv_Metronome,56,9999,9999,9999,3042467916
6723,13,Improv_Metronome,57,9999,9999,9999,3042967632
6723,13,Improv_Metronome,58,9999,9999,9999,3043467360
6723,13,Improv_Metronome,59,9999,9999,9999,3043968072
6723,13,Improv_Metronome,60,9999,9999,9999,3044467764
6723,13,Improv_Metronome,61,9999,9999,9999,3044967508
6723,13,Improv_Metronome,62,9999,9999,9999,3045467212
6723,13,Improv_Metronome,63,9999,9999,9999,3045967984
6723,13,Improv_Metronome,64,9999,9999,9999,3046467644
6723,13,Improv_Metronome,65,9999,9999,9999,3046967376
6723,13,Improv_Metronome,66,9999,9999,9999,3047467088
6723,13,Improv_Metronome,67,9999,9999,9999,3047967828
6723,13,Improv_Metronome,68,9999,9999,9999,3048467524
6723,13,Improv_Metronome,69,9999,9999,9999,3048967232
6723,13,Improv_Metronome,70,9999,9999,9999,3049467956
6723,13,Improv_Metronome,71,9999,9999,9999,3049967668
6723,13,Improv_Metronome,72,9999,9999,9999,3050467400
6723,13,Improv_Metronome,73,9999,9999,9999,3050967160
6723,13,Improv_Metronome,74,9999,9999,9999,3051467832
6723,13,Improv_Metronome,75,9999,9999,9999,3051967584
6723,13,Improv_Metronome,76,9999,9999,9999,3052467256
6723,13,Improv_Metronome,77,9999,9999,9999,3052968052
6723,13,Improv_Metronome,78,9999,9999,9999,3053467764
6723,13,Improv_Metronome,79,9999,9999,9999,3053967436
6723,13,Improv_Metronome,80,9999,9999,9999,3054467156
6723,13,Improv_Metronome,81,9999,9999,9999,3054967908
6723,13,Improv_Metronome,82,9999,9999,9999,3055467612
6723,13,Improv_Metronome,83,9999,9999,9999,3055967280
6723,13,Improv_Metronome,84,9999,9999,9999,3056468064
6723,13,Improv_Metronome,85,9999,9999,9999,3056967736
6723,13,Improv_Metronome,86,9999,9999,9999,3057467504
6723,13,Improv_Metronome,87,9999,9999,9999,3057967156
6723,13,Improv_Metronome,88,9999,9999,9999,3058467936
6723,13,Improv_Metronome,89,9999,9999,9999,3058967672
6723,13,Improv_Metronome,90,9999,9999,9999,3059467348
6723,13,Improv_Metronome,91,9999,9999,9999,3059968096
6723,13,Improv_Metronome,92,9999,9999,9999,3060467764
6723,13,Improv_Metronome,93,9999,9999,9999,3060967536
6723,13,Improv_Metronome,94,9999,9999,9999,3061467248
6723,13,Improv_Metronome,95,9999,9999,9999,3061967960
6723,13,Improv_Metronome,96,9999,9999,9999,3062467680
6723,13,Improv_Metronome,97,9999,9999,9999,3062967352
6723,13,Improv_Metronome,98,9999,9999,9999,3063467060
6723,13,Improv_Metronome,99,9999,9999,9999,3063967852
6723,13,Improv_Metronome,100,9999,9999,9999,3064467548
6723,13,Improv_Metronome,101,9999,9999,9999,3064967256
6723,13,Improv_Metronome,102,9999,9999,9999,3065467988
6723,13,Improv_Metronome,103,9999,9999,9999,3065967736
6723,13,Improv_Metronome,104,9999,9999,9999,3066467388
6723,13,Improv_Metronome,105,9999,9999,9999,3066967092
6723,13,Improv_Metronome,106,9999,9999,9999,3067467856
6723,13,Improv_Metronome,107,9999,9999,9999,3067967604
6723,13,Improv_Metronome,108,9999,9999,9999,3068467292
6723,13,Improv_Metronome,109,9999,9999,9999,3068967988
6723,13,Improv_Metronome,110,9999,9999,9999,3069467752
6723,13,Improv_Metronome,111,9999,9999,9999,3069967464
6723,13,Improv_Metronome,112,9999,9999,9999,3070467180
6723,13,Improv_Metronome,113,9999,9999,9999,3070967888
6723,13,Improv_Metronome,114,9999,9999,9999,3071467636
6723,13,Improv_Metronome,115,9999,9999,9999,3071967292
6723,13,Improv_Metronome,116,9999,9999,9999,3072468080
6723,13,Improv_Metronome,117,9999,9999,9999,3072967760
6723,13,Improv_Metronome,118,9999,9999,9999,3073467460
6723,13,Improv_Metronome,119,9999,9999,9999,3073967172
6723,13,Improv_Metronome,120,9999,9999,9999,3074467892
6723,13,Improv_Metronome,121,9999,9999,9999,3074967660
6723,13,Improv_Metronome,122,9999,9999,9999,3075467328
6723,13,Improv_Metronome,123,9999,9999,9999,3075968096
6723,13,Improv_Metronome,124,9999,9999,9999,3076467788
6723,13,Improv_Metronome,125,9999,9999,9999,3076967492
6723,13,Improv_Metronome,126,9999,9999,9999,3077467208
6723,13,Improv_Metronome,127,9999,9999,9999,3077967964
6723,13,Improv_Metronome,128,9999,9999,9999,3078467696
6723,13,Improv_Metronome,129,9999,9999,9999,3078967396
6723,13,Improv_Metronome,130,9999,9999,9999,3079467116
6723,13,Improv_Metronome,131,9999,9999,9999,3079967812
6723,13,Improv_Metronome,132,9999,9999,9999,3080467528
6723,13,Improv_Metronome,133,9999,9999,9999,3080967276
6723,13,Improv_Metronome,134,9999,9999,9999,3081468004
6723,13,Improv_Metronome,135,9999,9999,9999,3081967704
6723,13,Improv_Metronome,136,9999,9999,9999,3082467376
6723,13,Improv_Metronome,137,9999,9999,9999,3082967132
6723,13,Improv_Metronome,138,9999,9999,9999,3083467892
6723,13,Improv_Metronome,139,9999,9999,9999,3083967604
6724,14,Improv_Melody,0,2,48,80,3134641492
6724,14,Improv_Melody,1,2,72,80,3134643724
6724,14,Improv_Melody,2,5,42,127,3134646256
6724,14,Improv_Melody,3,5,42,110,3135140148
6724,14,Improv_Melody,4,5,42,110,3135639872
6724,14,Improv_Melody,5,5,42,110,3136139520
6724,14,Improv_Melody,6,5,42,127,3136640364
6724,14,Improv_Melody,7,5,42,110,3137140008
6724,14,Improv_Melody,8,5,42,110,3137639880
6724,14,Improv_Melody,9,5,42,110,3138139528
6724,14,Improv_Melody,10,2,43,80,3138642648
6724,14,Improv_Melody,11,2,67,80,3138644724
6724,14,Improv_Melody,12,5,42,127,3138647264
6724,14,Improv_Melody,13,5,42,110,3139140104
6724,14,Improv_Melody,14,5,42,110,3139639752
6724,14,Improv_Melody,15,5,42,110,3140140448
6724,14,Improv_Melody,16,5,42,127,3140640168
6724,14,Improv_Melody,17,5,42,110,3141140036
6724,14,Improv_Melody,18,5,42,110,3141639460
6724,14,Improv_Melody,19,5,42,110,3142140204
6724,14,Improv_Melody,20,2,45,80,3142642352
6724,14,Improv_Melody,21,2,69,80,3142644728
6724,14,Improv_Melody,22,5,42,127,3142647120
6724,14,Improv_Melody,23,5,42,110,3143139884
6724,14,Improv_Melody,24,5,42,110,3143640580
6724,14,Improv_Melody,25,5,42,110,3144140152
6724,14,Improv_Melody,26,5,42,127,3144640024
6724,14,Improv_Melody,27,5,42,110,3145139596
6724,14,Improv_Melody,28,5,42,110,3145640288
6724,14,Improv_Melody,29,5,42,110,3146140012
6724,14,Improv_Melody,30,2,41,80,3146642160
6724,14,Improv_Melody,31,2,65,80,3146644540
6724,14,Improv_Melody,32,5,42,127,3146647000
6724,14,Improv_Melody,33,5,42,110,3147139392
6724,14,Improv_Melody,34,5,42,110,3147640308
6724,14,Improv_Melody,35,5,42,110,3148139884
6724,14,Improv_Melody,36,5,42,127,3148639752
6724,14,Improv_Melody,37,5,42,110,3149140224
6724,14,Improv_Melody,38,5,42,110,3149640020
6724,14,Improv_Melody,39,5,42,110,3150139964
6724,14,Improv_Melody,40,2,48,80,3150642272
6724,14,Improv_Melody,41,2,72,80,3150644492
6724,14,Improv_Melody,42,5,42,127,3150647028
6724,14,Improv_Melody,43,5,42,110,3151140168
6724,14,Improv_Melody,44,1,48,13,3151153980
6724,14,Improv_Melody,45,1,48,54,3151179764
6724,14,Improv_Melody,46,1,48,90,3151598560
6724,14,Improv_Melody,47,5,42,110,3151640064
6724,14,Improv_Melody,48,1,48,54,3152110152
6724,14,Improv_Melody,49,5,42,110,3152139836
6724,14,Improv_Melody,50,1,48,86,3152589140
6724,14,Improv_Melody,51,5,42,127,3152640488
6724,14,Improv_Melody,52,5,42,110,3153140120
6724,14,Improv_Melody,53,1,48,67,3153544504
6724,14,Improv_Melody,54,1,48,54,3153574176
6724,14,Improv_Melody,55,5,42,110,3153639740
6724,14,Improv_Melody,56,1,48,61,3154029444
6724,14,Improv_Melody,57,1,38,73,3154048648
6724,14,Improv_Melody,58,5,42,110,3154139628
6724,14,Improv_Melody,59,1,48,51,3154515272
6724,14,Improv_Melody,60,1,38,87,3154534396
6724,14,Improv_Melody,61,2,43,80,3154642888
6724,14,Improv_Melody,62,2,67,80,3154645116
6724,14,Improv_Melody,63,5,42,127,3154647652
6724,14,Improv_Melody,64,1,48,33,3155060564
6724,14,Improv_Melody,65,1,38,90,3155069224
6724,14,Improv_Melody,66,5,42,110,3155139868
6724,14,Improv_Melody,67,1,48,63,3155573604
6724,14,Improv_Melody,68,1,38,90,3155585776
6724,14,Improv_Melody,69,5,42,110,3155639672
6724,14,Improv_Melody,70,1,48,59,3156059648
6724,14,Improv_Melody,71,1,38,119,3156070476
6724,14,Improv_Melody,72,5,42,110,3156140376
6724,14,Improv_Melody,73,1,48,63,3156549656
6724,14,Improv_Melody,74,1,38,104,3156563024
6724,14,Improv_Melody,75,5,42,127,3156640176
6724,14,Improv_Melody,76,1,48,24,3156855772
6724,14,Improv_Melody,77,1,48,48,3157050628
6724,14,Improv_Melody,78,1,38,20,3157058012
6724,14,Improv_Melody,79,1,38,102,3157095312
6724,14,Improv_Melody,80,5,42,110,3157139784
6724,14,Improv_Melody,81,1,48,53,3157338632
6724,14,Improv_Melody,82,1,48,79,3157565120
6724,14,Improv_Melody,83,5,42,110,3157639656
6724,14,Improv_Melody,84,1,38,65,3157669616
6724,14,Improv_Melody,85,1,48,70,3158137428
6724,14,Improv_Melody,86,5,42,110,3158140384
6724,14,Improv_Melody,87,1,38,95,3158159136
6724,14,Improv_Melody,88,1,48,81,3158626476
6724,14,Improv_Melody,89,2,45,80,3158642556
6724,14,Improv_Melody,90,2,69,80,3158644784
6724,14,Improv_Melody,91,5,42,127,3158647392
6724,14,Improv_Melody,92,1,38,115,3158663308
6724,14,Improv_Melody,93,5,42,110,3159139812
6724,14,Improv_Melody,94,1,48,68,3159154752
6724,14,Improv_Melody,95,1,38,99,3159170888
6724,14,Improv_Melody,96,1,48,67,3159605908
6724,14,Improv_Melody,97,5,42,110,3159640580
6724,14,Improv_Melody,98,1,38,118,3159657688
6724,14,Improv_Melody,99,1,48,65,3160138132
6724,14,Improv_Melody,100,5,42,110,3160140096
6724,14,Improv_Melody,101,1,38,94,3160154808
6724,14,Improv_Melody,102,1,48,65,3160608756
6724,14,Improv_Melody,103,1,48,84,3160626012
6724,14,Improv_Melody,104,5,42,127,3160639744
6724,14,Improv_Melody,105,1,48,65,3161085372
6724,14,Improv_Melody,106,5,42,110,3161139664
6724,14,Improv_Melody,107,1,48,74,3161596588
6724,14,Improv_Melody,108,1,38,102,3161638896
6724,14,Improv_Melody,109,5,42,110,3161641972
6724,14,Improv_Melody,110,1,48,87,3162079800
6724,14,Improv_Melody,111,1,38,102,3162098180
6724,14,Improv_Melody,112,5,42,110,3162139908
6724,14,Improv_Melody,113,1,48,66,3162563744
6724,14,Improv_Melody,114,1,38,92,3162592748
6724,14,Improv_Melody,115,1,48,51,3162596688
6724,14,Improv_Melody,116,2,41,80,3162642112
6724,14,Improv_Melody,117,2,65,80,3162644412
6724,14,Improv_Melody,118,5,42,127,3162647028
6724,14,Improv_Melody,119,1,48,63,3162763276
6724,14,Improv_Melody,120,1,48,64,3162958500
6724,14,Improv_Melody,121,1,48,119,3163048832
6724,14,Improv_Melody,122,1,38,22,3163057416
6724,14,Improv_Melody,123,5,42,110,3163139580
6724,14,Improv_Melody,124,1,48,79,3163246876
6724,14,Improv_Melody,125,1,48,76,3163433572
6724,14,Improv_Melody,126,1,38,72,3163533484
6724,14,Improv_Melody,127,5,42,110,3163640164
6724,14,Improv_Melody,128,1,48,42,3164006776
6724,14,Improv_Melody,129,1,38,121,3164017452
6724,14,Improv_Melody,130,5,42,110,3164139968
6724,14,Improv_Melody,131,1,48,35,3164261364
6724,14,Improv_Melody,132,1,48,54,3164440736
6724,14,Improv_Melody,133,1,38,111,3164569288
6724,14,Improv_Melody,134,5,42,127,3164639492
6724,14,Improv_Melody,135,1,48,24,3164893640
6724,14,Improv_Melody,136,1,48,85,3165055652
6724,14,Improv_Melody,137,1,38,79,3165094232
6724,14,Improv_Melody,138,5,42,110,3165140492
6724,14,Improv_Melody,139,1,48,62,3165554108
6724,14,Improv_Melody,140,1,38,100,3165582588
6724,14,Improv_Melody,141,5,42,110,3165640072
6724,14,Improv_Melody,142,1,48,56,3166041420
6724,14,Improv_Melody,143,1,38,16,3166054112
6724,14,Improv_Melody,144,1,38,80,3166102488
6724,14,Improv_Melody,145,5,42,110,3166139628
6724,14,Improv_Melody,146,1,48,52,3166352024
6724,14,Improv_Melody,147,1,38,127,3166591756
6724,14,Improv_Melody,148,2,48,80,3166642096
6724,14,Improv_Melody,149,2,72,80,3166644324
6724,14,Improv_Melody,150,5,42,127,3166646784
6724,14,Improv_Melody,151,1,48,24,3166811404
6724,14,Improv_Melody,152,1,48,101,3167087480
6724,14,Improv_Melody,153,1,38,73,3167116708
6724,14,Improv_Melody,154,5,42,110,3167140604
6724,14,Improv_Melody,155,1,48,28,3167353516
6724,14,Improv_Melody,156,1,48,68,3167585916
6724,14,Improv_Melody,157,1,38,108,3167603176
6724,14,Improv_Melody,158,5,42,110,3167639940
6724,14,Improv_Melody,159,1,48,16,3167870796
6724,14,Improv_Melody,160,1,48,83,3168081432
6724,14,Improv_Melody,161,5,42,110,3168139592
6724,14,Improv_Melody,162,1,48,65,3168341084
6724,14,Improv_Melody,163,1,48,76,3168540872
6724,14,Improv_Melody,164,1,38,86,3168564488
6724,14,Improv_Melody,165,5,42,127,3168640656
6724,14,Improv_Melody,166,1,48,20,3168756928
6724,14,Improv_Melody,167,1,48,86,3169037672
6724,14,Improv_Melody,168,5,42,110,3169139944
6724,14,Improv_Melody,169,1,48,68,3169465016
6724,14,Improv_Melody,170,1,48,49,3169495512
6724,14,Improv_Melody,171,1,38,67,3169513744
6724,14,Improv_Melody,172,5,42,110,3169639872
6724,14,Improv_Melody,173,1,48,40,3169993664
6724,14,Improv_Melody,174,1,38,22,3170006512
6724,14,Improv_Melody,175,1,38,56,3170021076
6724,14,Improv_Melody,176,5,42,110,3170139428
6724,14,Improv_Melody,177,1,48,61,3170276808
6724,14,Improv_Melody,178,1,48,76,3170508460
6724,14,Improv_Melody,179,1,38,98,3170559748
6724,14,Improv_Melody,180,2,43,80,3170643016
6724,14,Improv_Melody,181,2,67,80,3170645236
6724,14,Improv_Melody,182,5,42,127,3170647624
6724,14,Improv_Melody,183,1,48,70,3170814684
6724,14,Improv_Melody,184,1,48,67,3171046036
6724,14,Improv_Melody,185,1,38,80,3171085172
6724,14,Improv_Melody,186,5,42,110,3171139892
6724,14,Improv_Melody,187,1,48,76,3171559252
6724,14,Improv_Melody,188,1,38,82,3171594352
6724,14,Improv_Melody,189,5,42,110,3171639640
6724,14,Improv_Melody,190,1,48,71,3172024060
6724,14,Improv_Melody,191,1,38,55,3172080668
6724,14,Improv_Melody,192,5,42,110,3172140552
6724,14,Improv_Melody,193,1,48,62,3172346576
6724,14,Improv_Melody,194,1,48,36,3172555044
6724,14,Improv_Melody,195,1,38,75,3172585988
6724,14,Improv_Melody,196,5,42,127,3172640060
6724,14,Improv_Melody,197,1,48,18,3172767668
6724,14,Improv_Melody,198,1,48,83,3172946664
6724,14,Improv_Melody,199,1,38,85,3173096540
6724,14,Improv_Melody,200,5,42,110,3173139836
6724,14,Improv_Melody,201,1,48,80,3173590484
6724,14,Improv_Melody,202,1,38,82,3173610208
6724,14,Improv_Melody,203,5,42,110,3173639520
6724,14,Improv_Melody,204,1,48,31,3173831308
6724,14,Improv_Melody,205,1,48,74,3174086744
6724,14,Improv_Melody,206,5,42,110,3174140560
6724,14,Improv_Melody,207,1,48,72,3174397776
6724,14,Improv_Melody,208,1,48,76,3174577596
6724,14,Improv_Melody,209,1,38,91,3174629488
6724,14,Improv_Melody,210,2,45,80,3174642732
6724,14,Improv_Melody,211,2,69,80,3174644804
6724,14,Improv_Melody,212,5,42,127,3174647340
6724,14,Improv_Melody,213,1,48,78,3175085640
6724,14,Improv_Melody,214,5,42,110,3175139684
6724,14,Improv_Melody,215,1,48,57,3175381564
6724,14,Improv_Melody,216,1,48,52,3175579332
6724,14,Improv_Melody,217,1,38,49,3175604296
6724,14,Improv_Melody,218,5,42,110,3175640536
6724,14,Improv_Melody,219,1,48,49,3175867600
6724,14,Improv_Melody,220,1,48,67,3176077104
6724,14,Improv_Melody,221,1,38,39,3176112244
6724,14,Improv_Melody,222,5,42,110,3176140404
6724,14,Improv_Melody,223,1,48,51,3176525312
6724,14,Improv_Melody,224,1,38,62,3176570396
6724,14,Improv_Melody,225,5,42,127,3176639832
6724,14,Improv_Melody,226,1,48,67,3177010840
6724,14,Improv_Melody,227,5,42,110,3177139592
6724,14,Improv_Melody,228,1,48,52,3177251120
6724,14,Improv_Melody,229,1,48,71,3177461804
6724,14,Improv_Melody,230,1,38,66,3177532728
6724,14,Improv_Melody,231,5,42,110,3177640428
6724,14,Improv_Melody,232,1,48,62,3177744028
6724,14,Improv_Melody,233,1,48,65,3177979920
6724,14,Improv_Melody,234,5,42,110,3178139960
6724,14,Improv_Melody,235,1,48,76,3178397192
6724,14,Improv_Melody,236,1,48,62,3178418340
6724,14,Improv_Melody,237,1,38,42,3178433348
6724,14,Improv_Melody,238,2,41,80,3178642092
6724,14,Improv_Melody,239,2,65,80,3178644168
6724,14,Improv_Melody,240,5,42,127,3178646856
6724,14,Improv_Melody,241,1,48,53,3178655960
6724,14,Improv_Melody,242,1,48,77,3178913564
6724,14,Improv_Melody,243,5,42,110,3179139428
6724,14,Improv_Melody,244,1,48,68,3179176208
6724,14,Improv_Melody,245,1,38,69,3179601756
6724,14,Improv_Melody,246,5,42,110,3179640244
6724,14,Improv_Melody,247,1,48,67,3180033668
6724,14,Improv_Melody,248,1,48,54,3180061048
6724,14,Improv_Melody,249,1,38,56,3180063796
6724,14,Improv_Melody,250,5,42,110,3180139828
6724,14,Improv_Melody,251,1,48,56,3180483032
6724,14,Improv_Melody,252,1,38,67,3180525272
6724,14,Improv_Melody,253,5,42,127,3180639512
6724,14,Improv_Melody,254,1,48,61,3180964728
6724,14,Improv_Melody,255,5,42,110,3181140256
6724,14,Improv_Melody,256,1,48,47,3181236648
6724,14,Improv_Melody,257,1,48,126,3181431500
6724,14,Improv_Melody,258,1,38,75,3181448008
6724,14,Improv_Melody,259,5,42,110,3181640036
6724,14,Improv_Melody,260,1,48,51,3181760064
6724,14,Improv_Melody,261,1,48,82,3181969276
6724,14,Improv_Melody,262,1,48,55,3181997232
6724,14,Improv_Melody,263,5,42,110,3182139844
6724,14,Improv_Melody,264,1,48,77,3182398724
6724,14,Improv_Melody,265,1,48,59,3182426524
6724,14,Improv_Melody,266,1,38,86,3182433536
6724,14,Improv_Melody,267,2,48,80,3182641980
6724,14,Improv_Melody,268,2,72,80,3182644128
6724,14,Improv_Melody,269,1,48,40,3182645168
6724,14,Improv_Melody,270,5,42,127,3182647856
6724,14,Improv_Melody,271,1,48,67,3182911432
6724,14,Improv_Melody,272,5,42,110,3183140364
6724,14,Improv_Melody,273,1,48,76,3183172428
6724,14,Improv_Melody,274,1,48,43,3183205988
6724,14,Improv_Melody,275,1,48,65,3183393660
6724,14,Improv_Melody,276,1,38,107,3183398056
6724,14,Improv_Melody,277,1,48,53,3183634240
6724,14,Improv_Melody,278,5,42,110,3183640040
6724,14,Improv_Melody,279,1,48,91,3183895908
6724,14,Improv_Melody,280,1,48,72,3184097240
6724,14,Improv_Melody,281,5,42,110,3184139492
6724,14,Improv_Melody,282,1,48,63,3184381424
6724,14,Improv_Melody,283,1,38,84,3184391088
6724,14,Improv_Melody,284,1,48,27,3184623212
6724,14,Improv_Melody,285,5,42,127,3184640384
6724,14,Improv_Melody,286,1,48,51,3184865956
6724,14,Improv_Melody,287,1,38,21,3184873192
6724,14,Improv_Melody,288,1,48,52,3185122620
6724,14,Improv_Melody,289,5,42,110,3185140160
6724,14,Improv_Melody,290,1,48,95,3185339712
6724,14,Improv_Melody,291,1,38,85,3185376272
6724,14,Improv_Melody,292,1,48,46,3185610508
6724,14,Improv_Melody,293,5,42,110,3185639792
6724,14,Improv_Melody,294,1,48,84,3185843004
6724,14,Improv_Melody,295,1,48,71,3186059172
6724,14,Improv_Melody,296,5,42,110,3186139472
6724,14,Improv_Melody,297,1,48,93,3186283820
6724,14,Improv_Melody,298,1,38,77,3186303024
6724,14,Improv_Melody,299,1,48,66,3186498820
6724,14,Improv_Melody,300,2,43,80,3186642712
6724,14,Improv_Melody,301,2,67,80,3186644864
6724,14,Improv_Melody,302,5,42,127,3186647628
6724,14,Improv_Melody,303,1,48,75,3186791164
6724,14,Improv_Melody,304,5,42,110,3187139996
6724,14,Improv_Melody,305,1,48,76,3187209860
6724,14,Improv_Melody,306,1,38,86,3187234828
6724,14,Improv_Melody,307,1,48,49,3187456700
6724,14,Improv_Melody,308,5,42,110,3187639704
6724,14,Improv_Melody,309,1,48,75,3187715080
6724,14,Improv_Melody,310,5,42,110,3188140452
6724,14,Improv_Melody,311,1,48,68,3188141864
6724,14,Improv_Melody,312,1,48,55,3188169880
6724,14,Improv_Melody,313,1,38,69,3188172548
6724,14,Improv_Melody,314,5,42,127,3188640228
6724,14,Improv_Melody,315,1,48,58,3188663768
6724,14,Improv_Melody,316,1,48,91,3188891304
6724,14,Improv_Melody,317,1,48,77,3189092964
6724,14,Improv_Melody,318,1,48,45,3189126896
6724,14,Improv_Melody,319,5,42,110,3189140028
6724,14,Improv_Melody,320,1,38,42,3189140992
6724,14,Improv_Melody,321,1,48,77,3189379856
6724,14,Improv_Melody,322,1,48,76,3189592880
6724,14,Improv_Melody,323,5,42,110,3189639448
6724,14,Improv_Melody,324,1,38,59,3189668444
6724,14,Improv_Melody,325,1,48,70,3190105564
6724,14,Improv_Melody,326,1,48,54,3190129624
6724,14,Improv_Melody,327,1,38,42,3190132376
6724,14,Improv_Melody,328,5,42,110,3190140192
6724,14,Improv_Melody,329,1,48,85,3190609984
6724,14,Improv_Melody,330,2,45,80,3190642520
6724,14,Improv_Melody,331,2,69,80,3190644748
6724,14,Improv_Melody,332,5,42,127,3190647432
6724,14,Improv_Melody,333,1,48,80,3190873312
6724,14,Improv_Melody,334,1,48,66,3191096204
6724,14,Improv_Melody,335,1,38,59,3191109204
6724,14,Improv_Melody,336,5,42,110,3191139688
6724,14,Improv_Melody,337,1,48,81,3191356032
6724,14,Improv_Melody,338,1,48,67,3191589480
6724,14,Improv_Melody,339,5,42,110,3191640384
6724,14,Improv_Melody,340,1,48,60,3192036124
6724,14,Improv_Melody,341,1,38,48,3192061832
6724,14,Improv_Melody,342,1,48,47,3192066600
6724,14,Improv_Melody,343,5,42,110,3192140040
6724,14,Improv_Melody,344,1,48,49,3192318148
6724,14,Improv_Melody,345,1,48,62,3192588348
6724,14,Improv_Melody,346,5,42,127,3192640064
6724,14,Improv_Melody,347,1,48,67,3192839392
6724,14,Improv_Melody,348,1,48,76,3193057628
6724,14,Improv_Melody,349,1,38,82,3193080792
6724,14,Improv_Melody,350,1,48,40,3193098896
6724,14,Improv_Melody,351,5,42,110,3193139552
6724,14,Improv_Melody,352,1,48,34,3193305688
6724,14,Improv_Melody,353,1,48,100,3193567412
6724,14,Improv_Melody,354,1,48,40,3193622012
6724,14,Improv_Melody,355,5,42,110,3193640300
6724,14,Improv_Melody,356,1,48,97,3194005676
6724,14,Improv_Melody,357,1,38,93,3194034232
6724,14,Improv_Melody,358,5,42,110,3194140100
6724,14,Improv_Melody,359,1,48,15,3194222956
6724,14,Improv_Melody,360,1,48,67,3194534488
6724,14,Improv_Melody,361,2,41,80,3194642284
6724,14,Improv_Melody,362,2,65,80,3194644588
6724,14,Improv_Melody,363,5,42,127,3194647192
6724,14,Improv_Melody,364,1,48,61,3194811056
6724,14,Improv_Melody,365,1,48,91,3195019216
6724,14,Improv_Melody,366,1,38,62,3195066096
6724,14,Improv_Melody,367,1,48,43,3195072432
6724,14,Improv_Melody,368,5,42,110,3195139416
6724,14,Improv_Melody,369,1,48,72,3195302656
6724,14,Improv_Melody,370,1,48,79,3195542912
6724,14,Improv_Melody,371,5,42,110,3195640320
6724,14,Improv_Melody,372,1,48,38,3195807644
6724,14,Improv_Melody,373,1,48,78,3195988364
6724,14,Improv_Melody,374,1,38,51,3196008616
6724,14,Improv_Melody,375,5,42,110,3196140104
6724,14,Improv_Melody,376,1,48,122,3196493400
6724,14,Improv_Melody,377,5,42,127,3196639728
6724,14,Improv_Melody,378,1,48,76,3196730012
6724,14,Improv_Melody,379,1,48,125,3196985072
6724,14,Improv_Melody,380,1,38,75,3197002860
6724,14,Improv_Melody,381,5,42,110,3197140256
6724,14,Improv_Melody,382,1,48,18,3197477696
6724,14,Improv_Melody,383,1,38,73,3197494580
6724,14,Improv_Melody,384,5,42,110,3197640060
6724,14,Improv_Melody,385,1,48,29,3197715232
6724,14,Improv_Melody,386,1,48,90,3197943120
6724,14,Improv_Melody,387,1,38,52,3197975148
6724,14,Improv_Melody,388,5,42,110,3198139704
6724,14,Improv_Melody,389,1,48,56,3198211636
6724,14,Improv_Melody,390,1,48,84,3198438628
6724,14,Improv_Melody,391,2,48,80,3198642160
6724,14,Improv_Melody,392,2,72,80,3198644156
6724,14,Improv_Melody,393,5,42,127,3198646920
6724,14,Improv_Melody,394,1,48,68,3198697312
6724,14,Improv_Melody,395,1,48,100,3198909668
6724,14,Improv_Melody,396,1,38,71,3198921688
6724,14,Improv_Melody,397,5,42,110,3199140192
6724,14,Improv_Melody,398,1,48,73,3199196196
6724,14,Improv_Melody,399,1,48,75,3199417224
6724,14,Improv_Melody,400,5,42,110,3199640020
6724,14,Improv_Melody,401,1,48,74,3199906080
6724,14,Improv_Melody,402,1,38,84,3199920496
6724,14,Improv_Melody,403,1,48,25,3200129676
6724,14,Improv_Melody,404,5,42,110,3200139592
6724,14,Improv_Melody,405,1,48,60,3200400096
6724,14,Improv_Melody,406,1,48,99,3200634220
6724,14,Improv_Melody,407,5,42,127,3200640316
6724,14,Improv_Melody,408,1,48,80,3200880780
6724,14,Improv_Melody,409,1,38,54,3200907612
6724,14,Improv_Melody,410,1,48,16,3201135644
6724,14,Improv_Melody,411,5,42,110,3201140096
6724,14,Improv_Melody,412,1,48,69,3201342936
6724,14,Improv_Melody,413,5,42,110,3201640004
6724,14,Improv_Melody,414,1,48,69,3201782248
6724,14,Improv_Melody,415,1,38,69,3201810916
6724,14,Improv_Melody,416,1,48,52,3201815304
6724,14,Improv_Melody,417,1,48,60,3202022292
6724,14,Improv_Melody,418,5,42,110,3202139628
6724,14,Improv_Melody,419,1,48,64,3202295632
6724,14,Improv_Melody,420,1,48,76,3202554508
6724,14,Improv_Melody,421,2,43,80,3202642952
6724,14,Improv_Melody,422,2,67,80,3202644872
6724,14,Improv_Melody,423,5,42,127,3202647412
6724,14,Improv_Melody,424,1,48,98,3202773408
6724,14,Improv_Melody,425,1,38,84,3202811684
6724,14,Improv_Melody,426,1,48,65,3202816452
6724,14,Improv_Melody,427,1,48,79,3203038352
6724,14,Improv_Melody,428,5,42,110,3203140124
6724,14,Improv_Melody,429,1,48,80,3203285136
6724,14,Improv_Melody,430,5,42,110,3203640044
6724,14,Improv_Melody,431,1,48,82,3203714820
6724,14,Improv_Melody,432,1,48,59,3203738140
6724,14,Improv_Melody,433,1,38,43,3203757420
6724,14,Improv_Melody,434,1,48,54,3203979852
6724,14,Improv_Melody,435,5,42,110,3204140344
6724,14,Improv_Melody,436,1,48,71,3204215868
6724,14,Improv_Melody,437,1,38,67,3204243072
6724,14,Improv_Melody,438,1,48,46,3204253296
6724,14,Improv_Melody,439,5,42,127,3204640052
6724,14,Improv_Melody,440,1,48,66,3204645856
6724,14,Improv_Melody,441,1,48,47,3204672768
6724,14,Improv_Melody,442,5,42,110,3205140100
6724,14,Improv_Melody,443,1,48,84,3205148760
6724,14,Improv_Melody,444,1,38,57,3205180000
6724,14,Improv_Melody,445,1,48,73,3205585452
6724,14,Improv_Melody,446,5,42,110,3205639820
6724,14,Improv_Melody,447,1,48,51,3205822212
6724,14,Improv_Melody,448,1,48,81,3206039584
6724,14,Improv_Melody,449,1,38,81,3206069104
6724,14,Improv_Melody,450,5,42,110,3206140112
6724,14,Improv_Melody,451,1,48,27,3206329864
6724,14,Improv_Melody,452,1,48,75,3206570116
6724,14,Improv_Melody,453,2,45,80,3206642368
6724,14,Improv_Melody,454,2,69,80,3206644596
6724,14,Improv_Melody,455,5,42,127,3206647132
6724,14,Improv_Melody,456,1,48,27,3206841524
6724,14,Improv_Melody,457,1,48,75,3207052976
6724,14,Improv_Melody,458,1,38,43,3207098060
6724,14,Improv_Melody,459,5,42,110,3207139908
6724,14,Improv_Melody,460,5,42,110,3207640424
6724,14,Improv_Melody,461,1,48,67,3207830264
6724,14,Improv_Melody,462,5,42,110,3208140052
6724,14,Improv_Melody,463,1,48,75,3208231828
6724,14,Improv_Melody,464,1,48,45,3208265244
6724,14,Improv_Melody,465,1,38,82,3208278836
6724,14,Improv_Melody,466,5,42,127,3208639980
6724,14,Improv_Melody,467,1,48,57,3208702564
6724,14,Improv_Melody,468,1,48,46,3208737348
6724,14,Improv_Melody,469,1,38,39,3208739424
6724,14,Improv_Melody,470,1,48,60,3208937136
6724,14,Improv_Melody,471,5,42,110,3209139516
6724,14,Improv_Melody,472,1,48,69,3209140480
6724,14,Improv_Melody,473,1,38,72,3209206880
6724,14,Improv_Melody,474,5,42,110,3209640300
6724,14,Improv_Melody,475,1,48,77,3209677748
6724,14,Improv_Melody,476,1,38,46,3209703540
6724,14,Improv_Melody,477,1,48,53,3210055760
6724,14,Improv_Melody,478,5,42,110,3210140096
6724,14,Improv_Melody,479,1,48,62,3210576700
6724,14,Improv_Melody,480,1,48,44,3210606824
6724,14,Improv_Melody,481,1,38,57,3210620196
6724,14,Improv_Melody,482,2,41,80,3210642108
6724,14,Improv_Melody,483,2,65,80,3210644564
6724,14,Improv_Melody,484,5,42,127,3210646948
6724,14,Improv_Melody,485,1,48,68,3211083600
6724,14,Improv_Melody,486,1,48,43,3211117312
6724,14,Improv_Melody,487,5,42,110,3211139344
6724,14,Improv_Melody,488,1,48,41,3211355496
6724,14,Improv_Melody,489,1,48,31,3211519656
6724,14,Improv_Melody,490,1,38,74,3211558420
6724,14,Improv_Melody,491,5,42,110,3211640120
6724,14,Improv_Melody,492,1,48,35,3211840720
6724,14,Improv_Melody,493,1,48,100,3212081944
6724,14,Improv_Melody,494,1,48,48,3212140160
6724,14,Improv_Melody,495,5,42,110,3212141424
6724,14,Improv_Melody,496,1,48,58,3212339924
6724,14,Improv_Melody,497,1,48,82,3212549736
6724,14,Improv_Melody,498,1,38,68,3212581356
6724,14,Improv_Melody,499,5,42,127,3212640032
6724,14,Improv_Melody,500,1,48,81,3213044128
6724,14,Improv_Melody,501,1,48,32,3213106364
6724,14,Improv_Melody,502,5,42,110,3213140284
6724,14,Improv_Melody,503,1,48,38,3213295752
6724,14,Improv_Melody,504,1,48,75,3213519324
6724,14,Improv_Melody,505,1,38,53,3213558720
6724,14,Improv_Melody,506,5,42,110,3213640076
6724,14,Improv_Melody,507,1,48,70,3214025492
6724,14,Improv_Melody,508,5,42,110,3214139836
6724,14,Improv_Melody,509,1,48,38,3214307660
6724,14,Improv_Melody,510,1,48,74,3214505204
6724,14,Improv_Melody,511,1,38,79,3214518796
6724,14,Improv_Melody,512,1,48,43,3214542860
6724,14,Improv_Melody,513,2,48,80,3214642328
6724,14,Improv_Melody,514,2,72,80,3214644548
6724,14,Improv_Melody,515,5,42,127,3214646936
6724,14,Improv_Melody,516,1,48,37,3214789780
6724,14,Improv_Melody,517,1,48,80,3215028388
6724,14,Improv_Melody,518,1,48,42,3215073912
6724,14,Improv_Melody,519,5,42,110,3215140100
6724,14,Improv_Melody,520,1,48,63,3215320548
6724,14,Improv_Melody,521,1,48,54,3215559976
6724,14,Improv_Melody,522,1,38,45,3215575664
6724,14,Improv_Melody,0,9999,9999,9999,3134637108
6724,14,Improv_Melody,1,9999,9999,9999,3135137856
6724,14,Improv_Melody,2,9999,9999,9999,3135637580
6724,14,Improv_Melody,3,9999,9999,9999,3136137300
6724,14,Improv_Melody,4,9999,9999,9999,3136638068
6724,14,Improv_Melody,5,9999,9999,9999,3137137716
6724,14,Improv_Melody,6,9999,9999,9999,3137637440
6724,14,Improv_Melody,7,9999,9999,9999,3138137160
6724,14,Improv_Melody,8,9999,9999,9999,3138637928
6724,14,Improv_Melody,9,9999,9999,9999,3139137588
6724,14,Improv_Melody,10,9999,9999,9999,3139637308
6724,14,Improv_Melody,11,9999,9999,9999,3140138080
6724,14,Improv_Melody,12,9999,9999,9999,3140637800
6724,14,Improv_Melody,13,9999,9999,9999,3141137524
6724,14,Improv_Melody,14,9999,9999,9999,3141637220
6724,14,Improv_Melody,15,9999,9999,9999,3142137912
6724,14,Improv_Melody,16,9999,9999,9999,3142637636
6724,14,Improv_Melody,17,9999,9999,9999,3143137368
6724,14,Improv_Melody,18,9999,9999,9999,3143638136
6724,14,Improv_Melody,19,9999,9999,9999,3144137784
6724,14,Improv_Melody,20,9999,9999,9999,3144637508
6724,14,Improv_Melody,21,9999,9999,9999,3145137228
6724,14,Improv_Melody,22,9999,9999,9999,3145637996
6724,14,Improv_Melody,23,9999,9999,9999,3146137720
6724,14,Improv_Melody,24,9999,9999,9999,3146637364
6724,14,Improv_Melody,25,9999,9999,9999,3147137100
6724,14,Improv_Melody,26,9999,9999,9999,3147637868
6724,14,Improv_Melody,27,9999,9999,9999,3148137592
6724,14,Improv_Melody,28,9999,9999,9999,3148637236
6724,14,Improv_Melody,29,9999,9999,9999,3149138008
6724,14,Improv_Melody,30,9999,9999,9999,3149637728
6724,14,Improv_Melody,31,9999,9999,9999,3150137448
6724,14,Improv_Melody,32,9999,9999,9999,3150637172
6724,14,Improv_Melody,33,9999,9999,9999,3151137876
6724,14,Improv_Melody,34,9999,9999,9999,3151637624
6724,14,Improv_Melody,35,9999,9999,9999,3152137324
6724,14,Improv_Melody,36,9999,9999,9999,3152638048
6724,14,Improv_Melody,37,9999,9999,9999,3153137752
6724,14,Improv_Melody,38,9999,9999,9999,3153637448
6724,14,Improv_Melody,39,9999,9999,9999,3154137188
6724,14,Improv_Melody,40,9999,9999,9999,3154637944
6724,14,Improv_Melody,41,9999,9999,9999,3155137652
6724,14,Improv_Melody,42,9999,9999,9999,3155637308
6724,14,Improv_Melody,43,9999,9999,9999,3156138084
6724,14,Improv_Melody,44,9999,9999,9999,3156637808
6724,14,Improv_Melody,45,9999,9999,9999,3157137492
6724,14,Improv_Melody,46,9999,9999,9999,3157637220
6724,14,Improv_Melody,47,9999,9999,9999,3158137944
6724,14,Improv_Melody,48,9999,9999,9999,3158637684
6724,14,Improv_Melody,49,9999,9999,9999,3159137372
6724,14,Improv_Melody,50,9999,9999,9999,3159638064
6724,14,Improv_Melody,51,9999,9999,9999,3160137844
6724,14,Improv_Melody,52,9999,9999,9999,3160637524
6724,14,Improv_Melody,53,9999,9999,9999,3161137224
6724,14,Improv_Melody,54,9999,9999,9999,3161637972
6724,14,Improv_Melody,55,9999,9999,9999,3162137692
6724,14,Improv_Melody,56,9999,9999,9999,3162637396
6724,14,Improv_Melody,57,9999,9999,9999,3163137140
6724,14,Improv_Melody,58,9999,9999,9999,3163637876
6724,14,Improv_Melody,59,9999,9999,9999,3164137528
6724,14,Improv_Melody,60,9999,9999,9999,3164637272
6724,14,Improv_Melody,61,9999,9999,9999,3165137980
6724,14,Improv_Melody,62,9999,9999,9999,3165637704
6724,14,Improv_Melody,63,9999,9999,9999,3166137412
6724,14,Improv_Melody,64,9999,9999,9999,3166637148
6724,14,Improv_Melody,65,9999,9999,9999,3167137868
6724,14,Improv_Melody,66,9999,9999,9999,3167637572
6724,14,Improv_Melody,67,9999,9999,9999,3168137300
6724,14,Improv_Melody,68,9999,9999,9999,3168638064
6724,14,Improv_Melody,69,9999,9999,9999,3169137728
6724,14,Improv_Melody,70,9999,9999,9999,3169637432
6724,14,Improv_Melody,71,9999,9999,9999,3170137136
6724,14,Improv_Melody,72,9999,9999,9999,3170637916
6724,14,Improv_Melody,73,9999,9999,9999,3171137600
6724,14,Improv_Melody,74,9999,9999,9999,3171637352
6724,14,Improv_Melody,75,9999,9999,9999,3172138036
6724,14,Improv_Melody,76,9999,9999,9999,3172637768
6724,14,Improv_Melody,77,9999,9999,9999,3173137472
6724,14,Improv_Melody,78,9999,9999,9999,3173637228
6724,14,Improv_Melody,79,9999,9999,9999,3174137972
6724,14,Improv_Melody,80,9999,9999,9999,3174637632
6724,14,Improv_Melody,81,9999,9999,9999,3175137392
6724,14,Improv_Melody,82,9999,9999,9999,3175638096
6724,14,Improv_Melody,83,9999,9999,9999,3176137816
6724,14,Improv_Melody,84,9999,9999,9999,3176637540
6724,14,Improv_Melody,85,9999,9999,9999,3177137224
6724,14,Improv_Melody,86,9999,9999,9999,3177637988
6724,14,Improv_Melody,87,9999,9999,9999,3178137668
6724,14,Improv_Melody,88,9999,9999,9999,3178637372
6724,14,Improv_Melody,89,9999,9999,9999,3179137140
6724,14,Improv_Melody,90,9999,9999,9999,3179637876
6724,14,Improv_Melody,91,9999,9999,9999,3180137536
6724,14,Improv_Melody,92,9999,9999,9999,3180637296
6724,14,Improv_Melody,93,9999,9999,9999,3181138040
6724,14,Improv_Melody,94,9999,9999,9999,3181637744
6724,14,Improv_Melody,95,9999,9999,9999,3182137404
6724,14,Improv_Melody,96,9999,9999,9999,3182637108
6724,14,Improv_Melody,97,9999,9999,9999,3183137848
6724,14,Improv_Melody,98,9999,9999,9999,3183637600
6724,14,Improv_Melody,99,9999,9999,9999,3184137276
6724,14,Improv_Melody,100,9999,9999,9999,3184638016
6724,14,Improv_Melody,101,9999,9999,9999,3185137720
6724,14,Improv_Melody,102,9999,9999,9999,3185637428
6724,14,Improv_Melody,103,9999,9999,9999,3186137180
6724,14,Improv_Melody,104,9999,9999,9999,3186637916
6724,14,Improv_Melody,105,9999,9999,9999,3187137632
6724,14,Improv_Melody,106,9999,9999,9999,3187637336
6724,14,Improv_Melody,107,9999,9999,9999,3188138084
6724,14,Improv_Melody,108,9999,9999,9999,3188637788
6724,14,Improv_Melody,109,9999,9999,9999,3189137512
6724,14,Improv_Melody,110,9999,9999,9999,3189637228
6724,14,Improv_Melody,111,9999,9999,9999,3190137976
6724,14,Improv_Melody,112,9999,9999,9999,3190637648
6724,14,Improv_Melody,113,9999,9999,9999,3191137396
6724,14,Improv_Melody,114,9999,9999,9999,3191638092
6724,14,Improv_Melody,115,9999,9999,9999,3192137824
6724,14,Improv_Melody,116,9999,9999,9999,3192637552
6724,14,Improv_Melody,117,9999,9999,9999,3193137260
6724,14,Improv_Melody,118,9999,9999,9999,3193638012
6724,14,Improv_Melody,119,9999,9999,9999,3194137660
6724,14,Improv_Melody,120,9999,9999,9999,3194637412
6724,14,Improv_Melody,121,9999,9999,9999,3195137128
6724,14,Improv_Melody,122,9999,9999,9999,3195637880
6724,14,Improv_Melody,123,9999,9999,9999,3196137588
6724,14,Improv_Melody,124,9999,9999,9999,3196637288
6724,14,Improv_Melody,125,9999,9999,9999,3197138040
6724,14,Improv_Melody,126,9999,9999,9999,3197637692
6724,14,Improv_Melody,127,9999,9999,9999,3198137412
6724,14,Improv_Melody,128,9999,9999,9999,3198637136
6724,14,Improv_Melody,129,9999,9999,9999,3199137900
6724,14,Improv_Melody,130,9999,9999,9999,3199637580
6724,14,Improv_Melody,131,9999,9999,9999,3200137300
6724,14,Improv_Melody,132,9999,9999,9999,3200638024
6724,14,Improv_Melody,133,9999,9999,9999,3201137728
6724,14,Improv_Melody,134,9999,9999,9999,3201637492
6724,14,Improv_Melody,135,9999,9999,9999,3202137188
6724,14,Improv_Melody,136,9999,9999,9999,3202637928
6724,14,Improv_Melody,137,9999,9999,9999,3203137608
6724,14,Improv_Melody,138,9999,9999,9999,3203637308
6724,14,Improv_Melody,139,9999,9999,9999,3204138052
6724,14,Improv_Melody,140,9999,9999,9999,3204637760
6724,14,Improv_Melody,141,9999,9999,9999,3205137512
6724,14,Improv_Melody,142,9999,9999,9999,3205637232
6724,14,Improv_Melody,143,9999,9999,9999,3206137912
6724,14,Improv_Melody,144,9999,9999,9999,3206637648
6724,14,Improv_Melody,145,9999,9999,9999,3207137396
6724,14,Improv_Melody,146,9999,9999,9999,3207638132
6724,14,Improv_Melody,147,9999,9999,9999,3208137836
6724,14,Improv_Melody,148,9999,9999,9999,3208637540
6724,14,Improv_Melody,149,9999,9999,9999,3209137224
6724,14,Improv_Melody,150,9999,9999,9999,3209638008
6724,14,Improv_Melody,151,9999,9999,9999,3210137656
6724,14,Improv_Melody,152,9999,9999,9999,3210637388
6724,14,Improv_Melody,153,9999,9999,9999,3211137128
6724,14,Improv_Melody,154,9999,9999,9999,3211637828
6724,14,Improv_Melody,155,9999,9999,9999,3212137584
6724,14,Improv_Melody,156,9999,9999,9999,3212637296
6724,14,Improv_Melody,157,9999,9999,9999,3213137992
6724,14,Improv_Melody,158,9999,9999,9999,3213637708
6724,14,Improv_Melody,159,9999,9999,9999,3214137396
6724,14,Improv_Melody,160,9999,9999,9999,3214637124
6724,14,Improv_Melody,161,9999,9999,9999,3215137884
67