pid,taskRunCount,taskID,taskName,i,channel,pitch,velocity,microseconds
1,1,Ticks_Pract_5,0,5,42,127,1375359328
621,1,Ticks_Pract_5,1,5,42,127,1375859116
621,1,Ticks_Pract_5,2,5,42,127,1376358908
621,1,Ticks_Pract_5,3,5,42,127,1376858696
621,1,Ticks_Pract_5,4,1,48,41,1377339300
621,1,Ticks_Pract_5,5,5,42,127,1377359232
621,1,Ticks_Pract_5,6,1,48,26,1377411108
621,1,Ticks_Pract_5,7,1,48,30,1377845484
621,1,Ticks_Pract_5,8,5,42,127,1377858908
621,1,Ticks_Pract_5,9,1,48,34,1378320240
621,1,Ticks_Pract_5,10,5,42,127,1378358672
621,1,Ticks_Pract_5,11,1,48,35,1378810436
621,1,Ticks_Pract_5,12,5,42,127,1378859488
621,1,Ticks_Pract_5,13,1,48,46,1379343940
621,1,Ticks_Pract_5,14,5,42,127,1379359036
621,1,Ticks_Pract_5,15,1,48,44,1379819552
621,1,Ticks_Pract_5,16,5,42,127,1379858704
621,1,Ticks_Pract_5,17,1,48,40,1380324852
621,1,Ticks_Pract_5,18,5,42,127,1380358624
621,1,Ticks_Pract_5,19,1,48,41,1380811836
621,1,Ticks_Pract_5,20,5,42,127,1380859360
621,1,Ticks_Pract_5,21,1,48,29,1381312048
621,1,Ticks_Pract_5,22,5,42,127,1381358908
621,1,Ticks_Pract_5,23,1,48,43,1381817204
621,1,Ticks_Pract_5,24,5,42,127,1381858604
621,1,Ticks_Pract_5,25,1,48,46,1382300868
621,1,Ticks_Pract_5,26,5,42,127,1382359540
621,1,Ticks_Pract_5,27,1,48,40,1382810664
621,1,Ticks_Pract_5,28,5,42,127,1382859164
621,1,Ticks_Pract_5,29,1,48,45,1383343416
621,1,Ticks_Pract_5,30,5,42,127,1383358784
621,1,Ticks_Pract_5,31,1,48,48,1383856740
621,1,Ticks_Pract_5,32,5,42,127,1383858476
621,1,Ticks_Pract_5,33,1,48,54,1384356860
621,1,Ticks_Pract_5,34,5,42,127,1384359368
621,1,Ticks_Pract_5,35,1,48,42,1384851396
621,1,Ticks_Pract_5,36,5,42,127,1384859064
621,1,Ticks_Pract_5,37,1,48,40,1385358008
621,1,Ticks_Pract_5,38,5,42,127,1385359580
621,1,Ticks_Pract_5,39,5,42,127,1385858532
621,1,Ticks_Pract_5,40,1,48,35,1385862696
621,1,Ticks_Pract_5,41,5,42,127,1386359124
621,1,Ticks_Pract_5,42,1,48,35,1386381840
621,1,Ticks_Pract_5,43,1,48,38,1386822352
621,1,Ticks_Pract_5,44,5,42,127,1386858740
621,1,Ticks_Pract_5,45,1,48,46,1387339400
621,1,Ticks_Pract_5,46,5,42,127,1387358508
621,1,Ticks_Pract_5,47,1,48,34,1387824584
621,1,Ticks_Pract_5,48,5,42,127,1387859472
621,1,Ticks_Pract_5,49,1,48,40,1388350456
621,1,Ticks_Pract_5,50,5,42,127,1388359168
621,1,Ticks_Pract_5,51,1,48,36,1388852396
621,1,Ticks_Pract_5,52,5,42,127,1388858712
621,1,Ticks_Pract_5,53,1,48,43,1389358268
621,1,Ticks_Pract_5,54,5,42,127,1389359680
621,1,Ticks_Pract_5,55,5,42,127,1389859232
621,1,Ticks_Pract_5,56,1,48,39,1389864668
621,1,Ticks_Pract_5,57,1,48,31,1390350032
621,1,Ticks_Pract_5,58,5,42,127,1390358896
621,1,Ticks_Pract_5,59,5,42,127,1390858596
621,1,Ticks_Pract_5,60,1,48,40,1390873684
621,1,Ticks_Pract_5,61,1,48,31,1391348900
621,1,Ticks_Pract_5,62,5,42,127,1391359404
621,1,Ticks_Pract_5,63,1,48,31,1391840064
621,1,Ticks_Pract_5,64,5,42,127,1391858948
621,1,Ticks_Pract_5,65,1,48,40,1392340804
621,1,Ticks_Pract_5,66,5,42,127,1392358644
621,1,Ticks_Pract_5,67,1,48,40,1392841100
621,1,Ticks_Pract_5,68,5,42,127,1392858412
621,1,Ticks_Pract_5,69,5,42,127,1393359312
621,1,Ticks_Pract_5,70,1,48,46,1393378440
621,1,Ticks_Pract_5,71,5,42,127,1393858856
621,1,Ticks_Pract_5,72,1,48,40,1393867136
621,1,Ticks_Pract_5,73,5,42,127,1394358700
621,1,Ticks_Pract_5,74,1,48,36,1394373036
621,1,Ticks_Pract_5,75,1,48,36,1394849300
621,1,Ticks_Pract_5,76,5,42,127,1394859360
621,1,Ticks_Pract_5,0,9999,9999,9999,1375357040
621,1,Ticks_Pract_5,1,9999,9999,9999,1375856756
621,1,Ticks_Pract_5,2,9999,9999,9999,1376356472
621,1,Ticks_Pract_5,3,9999,9999,9999,1376856188
621,1,Ticks_Pract_5,4,9999,9999,9999,1377356872
621,1,Ticks_Pract_5,5,9999,9999,9999,1377856620
621,1,Ticks_Pract_5,6,9999,9999,9999,1378356312
621,1,Ticks_Pract_5,7,9999,9999,9999,1378857056
621,1,Ticks_Pract_5,8,9999,9999,9999,1379356748
621,1,Ticks_Pract_5,9,9999,9999,9999,1379856492
621,1,Ticks_Pract_5,10,9999,9999,9999,1380356188
621,1,Ticks_Pract_5,11,9999,9999,9999,1380856928
621,1,Ticks_Pract_5,12,9999,9999,9999,1381356624
621,1,Ticks_Pract_5,13,9999,9999,9999,1381856316
621,1,Ticks_Pract_5,14,9999,9999,9999,1382357108
621,1,Ticks_Pract_5,15,9999,9999,9999,1382856804
621,1,Ticks_Pract_5,16,9999,9999,9999,1383356496
621,1,Ticks_Pract_5,17,9999,9999,9999,1383856216
621,1,Ticks_Pract_5,18,9999,9999,9999,1384356932
621,1,Ticks_Pract_5,19,9999,9999,9999,1384856700
621,1,Ticks_Pract_5,20,9999,9999,9999,1385356404
621,1,Ticks_Pract_5,21,9999,9999,9999,1385856096
621,1,Ticks_Pract_5,22,9999,9999,9999,1386356840
621,1,Ticks_Pract_5,23,9999,9999,9999,1386856528
621,1,Ticks_Pract_5,24,9999,9999,9999,1387356224
621,1,Ticks_Pract_5,25,9999,9999,9999,1387856964
621,1,Ticks_Pract_5,26,9999,9999,9999,1388356732
621,1,Ticks_Pract_5,27,9999,9999,9999,1388856428
621,1,Ticks_Pract_5,28,9999,9999,9999,1389356128
621,1,Ticks_Pract_5,29,9999,9999,9999,1389856872
621,1,Ticks_Pract_5,30,9999,9999,9999,1390356536
621,1,Ticks_Pract_5,31,9999,9999,9999,1390856312
621,1,Ticks_Pract_5,32,9999,9999,9999,1391357044
621,1,Ticks_Pract_5,33,9999,9999,9999,1391856736
621,1,Ticks_Pract_5,34,9999,9999,9999,1392356432
621,1,Ticks_Pract_5,35,9999,9999,9999,1392856128
621,1,Ticks_Pract_5,36,9999,9999,9999,1393356876
621,1,Ticks_Pract_5,37,9999,9999,9999,1393856572
621,1,Ticks_Pract_5,38,9999,9999,9999,1394356336
621,1,Ticks_Pract_5,39,9999,9999,9999,1394857072
622,0,Ticks_Pract_8,0,5,42,127,1409602016
622,0,Ticks_Pract_8,1,5,42,127,1410401548
622,0,Ticks_Pract_8,2,5,42,127,1411202424
622,0,Ticks_Pract_8,3,1,48,25,1411427044
622,0,Ticks_Pract_8,4,5,42,127,1412002232
622,0,Ticks_Pract_8,5,1,48,35,1412024196
622,0,Ticks_Pract_8,6,1,48,35,1412742236
622,0,Ticks_Pract_8,7,5,42,127,1412802032
622,0,Ticks_Pract_8,8,1,48,35,1413510184
622,0,Ticks_Pract_8,9,5,42,127,1413601616
622,0,Ticks_Pract_8,10,1,48,38,1414318064
622,0,Ticks_Pract_8,11,5,42,127,1414402324
622,0,Ticks_Pract_8,12,1,48,38,1415128044
622,0,Ticks_Pract_8,13,5,42,127,1415202232
622,0,Ticks_Pract_8,14,1,48,37,1415995428
622,0,Ticks_Pract_8,15,5,42,127,1416002188
622,0,Ticks_Pract_8,16,1,48,35,1416784684
622,0,Ticks_Pract_8,17,5,42,127,1416801848
622,0,Ticks_Pract_8,18,1,48,34,1417602116
622,0,Ticks_Pract_8,19,5,42,127,1417603528
622,0,Ticks_Pract_8,20,1,48,44,1418351840
622,0,Ticks_Pract_8,21,5,42,127,1418402064
622,0,Ticks_Pract_8,22,1,48,44,1419182244
622,0,Ticks_Pract_8,23,5,42,127,1419202096
622,0,Ticks_Pract_8,24,1,48,38,1419951684
622,0,Ticks_Pract_8,25,5,42,127,1420001756
622,0,Ticks_Pract_8,26,5,42,127,1420802392
622,0,Ticks_Pract_8,27,1,48,26,1421091512
622,0,Ticks_Pract_8,28,5,42,127,1421602076
622,0,Ticks_Pract_8,29,1,48,43,1421779400
622,0,Ticks_Pract_8,30,1,48,30,1422334724
622,0,Ticks_Pract_8,31,5,42,127,1422402104
622,0,Ticks_Pract_8,32,1,48,43,1423132388
622,0,Ticks_Pract_8,33,5,42,127,1423201612
622,0,Ticks_Pract_8,34,1,48,41,1423935936
622,0,Ticks_Pract_8,35,5,42,127,1424002320
622,0,Ticks_Pract_8,36,1,48,33,1424737016
622,0,Ticks_Pract_8,37,5,42,127,1424802124
622,0,Ticks_Pract_8,38,1,48,39,1425552756
622,0,Ticks_Pract_8,39,5,42,127,1425601860
622,0,Ticks_Pract_8,40,1,48,45,1426380540
622,0,Ticks_Pract_8,41,5,42,127,1426401816
622,0,Ticks_Pract_8,42,5,42,127,1427202528
622,0,Ticks_Pract_8,43,1,48,40,1427205124
622,0,Ticks_Pract_8,44,5,42,127,1428002064
622,0,Ticks_Pract_8,45,1,48,41,1428038616
622,0,Ticks_Pract_8,46,1,48,40,1428755580
622,0,Ticks_Pract_8,47,5,42,127,1428801788
622,0,Ticks_Pract_8,48,1,48,41,1429548008
622,0,Ticks_Pract_8,49,5,42,127,1429601820
622,0,Ticks_Pract_8,50,5,42,127,1430402460
622,0,Ticks_Pract_8,51,1,48,43,1430408348
622,0,Ticks_Pract_8,52,5,42,127,1431202264
622,0,Ticks_Pract_8,53,1,48,40,1431234928
622,0,Ticks_Pract_8,54,1,48,35,1431959100
622,0,Ticks_Pract_8,55,5,42,127,1432001920
622,0,Ticks_Pract_8,56,1,48,33,1432749560
622,0,Ticks_Pract_8,57,5,42,127,1432801724
622,0,Ticks_Pract_8,58,1,48,40,1433594024
622,0,Ticks_Pract_8,0,9999,9999,9999,1409599580
622,0,Ticks_Pract_8,1,9999,9999,9999,1410399336
622,0,Ticks_Pract_8,2,9999,9999,9999,1411200060
622,0,Ticks_Pract_8,3,9999,9999,9999,1411999796
622,0,Ticks_Pract_8,4,9999,9999,9999,1412799596
622,0,Ticks_Pract_8,5,9999,9999,9999,1413599328
622,0,Ticks_Pract_8,6,9999,9999,9999,1414400112
622,0,Ticks_Pract_8,7,9999,9999,9999,1415199792
622,0,Ticks_Pract_8,8,9999,9999,9999,1415999604
622,0,Ticks_Pract_8,9,9999,9999,9999,1416799336
622,0,Ticks_Pract_8,10,9999,9999,9999,1417600048
622,0,Ticks_Pract_8,11,9999,9999,9999,1418399852
622,0,Ticks_Pract_8,12,9999,9999,9999,1419199584
622,0,Ticks_Pract_8,13,9999,9999,9999,1419999320
622,0,Ticks_Pract_8,14,9999,9999,9999,1420800104
622,0,Ticks_Pract_8,15,9999,9999,9999,1421599864
622,0,Ticks_Pract_8,16,9999,9999,9999,1422399592
622,0,Ticks_Pract_8,17,9999,9999,9999,1423199324
622,0,Ticks_Pract_8,18,9999,9999,9999,1424000104
622,0,Ticks_Pract_8,19,9999,9999,9999,1424799836
622,0,Ticks_Pract_8,20,9999,9999,9999,1425599572
622,0,Ticks_Pract_8,21,9999,9999,9999,1426399304
622,0,Ticks_Pract_8,22,9999,9999,9999,1427200092
622,0,Ticks_Pract_8,23,9999,9999,9999,1427999848
622,0,Ticks_Pract_8,24,9999,9999,9999,1428799576
622,0,Ticks_Pract_8,25,9999,9999,9999,1429599308
622,0,Ticks_Pract_8,26,9999,9999,9999,1430400096
622,0,Ticks_Pract_8,27,9999,9999,9999,1431199828
622,0,Ticks_Pract_8,28,9999,9999,9999,1431999556
622,0,Ticks_Pract_8,29,9999,9999,9999,1432799288
623,4,T1_SMS_5,0,5,42,127,1509898548
623,4,T1_SMS_5,1,5,42,127,1510399460
623,4,T1_SMS_5,2,5,42,127,1510899176
623,4,T1_SMS_5,3,1,48,18,1510948396
623,4,T1_SMS_5,4,1,48,20,1511375640
623,4,T1_SMS_5,5,5,42,127,1511398716
623,4,T1_SMS_5,6,1,48,23,1511827916
623,4,T1_SMS_5,7,5,42,127,1511898560
623,4,T1_SMS_5,8,1,48,32,1512348476
623,4,T1_SMS_5,9,5,42,127,1512399228
623,4,T1_SMS_5,10,1,48,36,1512791628
623,4,T1_SMS_5,11,5,42,127,1512898908
623,4,T1_SMS_5,12,1,48,37,1513334108
623,4,T1_SMS_5,13,5,42,127,1513398544
623,4,T1_SMS_5,14,1,48,32,1513822508
623,4,T1_SMS_5,15,5,42,127,1513899360
623,4,T1_SMS_5,16,1,48,35,1514294676
623,4,T1_SMS_5,17,5,42,127,1514398964
623,4,T1_SMS_5,18,1,48,37,1514825188
623,4,T1_SMS_5,19,5,42,127,1514898824
623,4,T1_SMS_5,20,1,48,33,1515341560
623,4,T1_SMS_5,21,5,42,127,1515398444
623,4,T1_SMS_5,22,1,48,33,1515816572
623,4,T1_SMS_5,23,5,42,127,1515899184
623,4,T1_SMS_5,24,1,48,34,1516358980
623,4,T1_SMS_5,25,5,42,127,1516399028
623,4,T1_SMS_5,26,1,48,36,1516860916
623,4,T1_SMS_5,27,5,42,127,1516898576
623,4,T1_SMS_5,28,1,48,32,1517379160
623,4,T1_SMS_5,29,5,42,127,1517399612
623,4,T1_SMS_5,30,1,48,35,1517852828
623,4,T1_SMS_5,31,5,42,127,1517899012
623,4,T1_SMS_5,32,1,48,40,1518369200
623,4,T1_SMS_5,33,5,42,127,1518398780
623,4,T1_SMS_5,34,5,42,127,1518898408
623,4,T1_SMS_5,35,1,48,26,1518917908
623,4,T1_SMS_5,36,1,48,32,1519364972
623,4,T1_SMS_5,37,5,42,127,1519399440
623,4,T1_SMS_5,38,1,48,38,1519873272
623,4,T1_SMS_5,39,5,42,127,1519898984
623,4,T1_SMS_5,40,1,48,31,1520353216
623,4,T1_SMS_5,41,5,42,127,1520398584
623,4,T1_SMS_5,42,1,48,32,1520833544
623,4,T1_SMS_5,43,5,42,127,1520898428
623,4,T1_SMS_5,44,1,48,31,1521392856
623,4,T1_SMS_5,45,5,42,127,1521399320
623,4,T1_SMS_5,46,1,48,29,1521860612
623,4,T1_SMS_5,47,5,42,127,1521898716
623,4,T1_SMS_5,48,5,42,127,1522398640
623,4,T1_SMS_5,49,1,48,36,1522413128
623,4,T1_SMS_5,50,1,48,33,1522884604
623,4,T1_SMS_5,51,5,42,127,1522899524
623,4,T1_SMS_5,52,1,48,36,1523355952
623,4,T1_SMS_5,53,5,42,127,1523399072
623,4,T1_SMS_5,54,5,42,127,1523898848
623,4,T1_SMS_5,55,1,48,32,1523904208
623,4,T1_SMS_5,56,1,48,28,1524361404
623,4,T1_SMS_5,57,5,42,127,1524398388
623,4,T1_SMS_5,58,1,48,29,1524874412
623,4,T1_SMS_5,59,5,42,127,1524899428
623,4,T1_SMS_5,60,1,48,31,1525367672
623,4,T1_SMS_5,61,5,42,127,1525398752
623,4,T1_SMS_5,62,1,48,30,1525837448
623,4,T1_SMS_5,63,5,42,127,1525898520
623,4,T1_SMS_5,64,1,48,27,1526337968
623,4,T1_SMS_5,65,5,42,127,1526399484
623,4,T1_SMS_5,66,1,48,32,1526873416
623,4,T1_SMS_5,67,5,42,127,1526899404
623,4,T1_SMS_5,68,1,48,35,1527336604
623,4,T1_SMS_5,69,5,42,127,1527398724
623,4,T1_SMS_5,70,1,48,32,1527840792
623,4,T1_SMS_5,71,5,42,127,1527898568
623,4,T1_SMS_5,72,1,48,31,1528380200
623,4,T1_SMS_5,73,5,42,127,1528399460
623,4,T1_SMS_5,74,1,48,35,1528823028
623,4,T1_SMS_5,75,5,42,127,1528898856
623,4,T1_SMS_5,76,1,48,33,1529394024
623,4,T1_SMS_5,77,5,42,127,1529398700
623,4,T1_SMS_5,78,1,48,31,1529895588
623,4,T1_SMS_5,79,5,42,127,1529899368
623,4,T1_SMS_5,80,1,48,30,1530361380
623,4,T1_SMS_5,81,5,42,127,1530399284
623,4,T1_SMS_5,82,1,48,32,1530851652
623,4,T1_SMS_5,83,5,42,127,1530898732
623,4,T1_SMS_5,84,1,48,33,1531329352
623,4,T1_SMS_5,85,5,42,127,1531398500
623,4,T1_SMS_5,86,1,48,33,1531824412
623,4,T1_SMS_5,87,5,42,127,1531899316
623,4,T1_SMS_5,88,1,48,30,1532337424
623,4,T1_SMS_5,89,5,42,127,1532398940
623,4,T1_SMS_5,90,1,48,30,1532843024
623,4,T1_SMS_5,91,5,42,127,1532898632
623,4,T1_SMS_5,92,1,48,31,1533346912
623,4,T1_SMS_5,93,5,42,127,1533399376
623,4,T1_SMS_5,94,1,48,36,1533813688
623,4,T1_SMS_5,95,5,42,127,1533899220
623,4,T1_SMS_5,96,1,48,31,1534358488
623,4,T1_SMS_5,97,5,42,127,1534398840
623,4,T1_SMS_5,98,1,48,36,1534873292
623,4,T1_SMS_5,99,5,42,127,1534898536
623,4,T1_SMS_5,100,1,48,30,1535361248
623,4,T1_SMS_5,101,5,42,127,1535399280
623,4,T1_SMS_5,102,1,48,29,1535851672
623,4,T1_SMS_5,103,5,42,127,1535899124
623,4,T1_SMS_5,104,1,48,29,1536346432
623,4,T1_SMS_5,105,5,42,127,1536398820
623,4,T1_SMS_5,106,1,48,31,1536823684
623,4,T1_SMS_5,107,5,42,127,1536898368
623,4,T1_SMS_5,108,1,48,28,1537342224
623,4,T1_SMS_5,109,5,42,127,1537399108
623,4,T1_SMS_5,110,1,48,35,1537786620
623,4,T1_SMS_5,111,5,42,127,1537898716
623,4,T1_SMS_5,112,5,42,127,1538398504
623,4,T1_SMS_5,113,1,48,31,1538420248
623,4,T1_SMS_5,114,1,48,22,1538899100
623,4,T1_SMS_5,115,5,42,127,1538900436
623,4,T1_SMS_5,116,1,48,28,1539376764
623,4,T1_SMS_5,117,5,42,127,1539399160
623,4,T1_SMS_5,118,1,48,31,1539872192
623,4,T1_SMS_5,119,5,42,127,1539898704
623,4,T1_SMS_5,120,1,48,24,1540381388
623,4,T1_SMS_5,121,5,42,127,1540398404
623,4,T1_SMS_5,122,1,48,34,1540842164
623,4,T1_SMS_5,123,5,42,127,1540899292
623,4,T1_SMS_5,124,1,48,31,1541393092
623,4,T1_SMS_5,125,5,42,127,1541398988
623,4,T1_SMS_5,126,1,48,35,1541866984
623,4,T1_SMS_5,127,5,42,127,1541898584
623,4,T1_SMS_5,128,1,48,29,1542375352
623,4,T1_SMS_5,129,5,42,127,1542399400
623,4,T1_SMS_5,130,1,48,34,1542893004
623,4,T1_SMS_5,131,5,42,127,1542899244
623,4,T1_SMS_5,132,1,48,24,1543377664
623,4,T1_SMS_5,133,5,42,127,1543398716
623,4,T1_SMS_5,134,1,48,38,1543893440
623,4,T1_SMS_5,135,5,42,127,1543898340
623,4,T1_SMS_5,136,1,48,24,1544364116
623,4,T1_SMS_5,137,5,42,127,1544399156
623,4,T1_SMS_5,138,5,42,127,1544899004
623,4,T1_SMS_5,139,1,48,38,1544902196
623,4,T1_SMS_5,140,1,48,20,1545363652
623,4,T1_SMS_5,141,5,42,127,1545398768
623,4,T1_SMS_5,142,1,48,37,1545832456
623,4,T1_SMS_5,143,5,42,127,1545899284
623,4,T1_SMS_5,144,1,48,19,1546339252
623,4,T1_SMS_5,145,5,42,127,1546399052
623,4,T1_SMS_5,146,1,48,41,1546834684
623,4,T1_SMS_5,147,5,42,127,1546898748
623,4,T1_SMS_5,148,1,48,30,1547349196
623,4,T1_SMS_5,149,5,42,127,1547398444
623,4,T1_SMS_5,150,1,48,34,1547869080
623,4,T1_SMS_5,151,5,42,127,1547899112
623,4,T1_SMS_5,152,1,48,29,1548362120
623,4,T1_SMS_5,153,5,42,127,1548399028
623,4,T1_SMS_5,154,1,48,37,1548868924
623,4,T1_SMS_5,155,5,42,127,1548898576
623,4,T1_SMS_5,156,1,48,29,1549359268
623,4,T1_SMS_5,157,5,42,127,1549399392
623,4,T1_SMS_5,158,1,48,33,1549874140
623,4,T1_SMS_5,159,5,42,127,1549899012
623,4,T1_SMS_5,160,1,48,29,1550392464
623,4,T1_SMS_5,161,5,42,127,1550398928
623,4,T1_SMS_5,162,1,48,34,1550859672
623,4,T1_SMS_5,163,5,42,127,1550898476
623,4,T1_SMS_5,164,1,48,32,1551389088
623,4,T1_SMS_5,165,5,42,127,1551399292
623,4,T1_SMS_5,166,1,48,30,1551872448
623,4,T1_SMS_5,167,5,42,127,1551898984
623,4,T1_SMS_5,168,1,48,35,1552334072
623,4,T1_SMS_5,169,5,42,127,1552398656
623,4,T1_SMS_5,170,5,42,127,1552898284
623,4,T1_SMS_5,171,1,48,29,1552908808
623,4,T1_SMS_5,172,1,48,33,1553359488
623,4,T1_SMS_5,173,5,42,127,1553399092
623,4,T1_SMS_5,174,1,48,29,1553866216
623,4,T1_SMS_5,175,5,42,127,1553898936
623,4,T1_SMS_5,176,1,48,36,1554333748
623,4,T1_SMS_5,177,5,42,127,1554398632
623,4,T1_SMS_5,178,1,48,27,1554847056
623,4,T1_SMS_5,179,5,42,127,1554899372
623,4,T1_SMS_5,180,1,48,35,1555340016
623,4,T1_SMS_5,181,5,42,127,1555398920
623,4,T1_SMS_5,182,1,48,29,1555857140
623,4,T1_SMS_5,183,5,42,127,1555898836
623,4,T1_SMS_5,184,1,48,35,1556356008
623,4,T1_SMS_5,185,5,42,127,1556398384
623,4,T1_SMS_5,186,1,48,30,1556844260
623,4,T1_SMS_5,187,5,42,127,1556899200
623,4,T1_SMS_5,188,1,48,19,1557370888
623,4,T1_SMS_5,189,5,42,127,1557399192
623,4,T1_SMS_5,190,1,48,34,1557822036
623,4,T1_SMS_5,191,5,42,127,1557898588
623,4,T1_SMS_5,192,1,48,35,1558353592
623,4,T1_SMS_5,193,5,42,127,1558399332
623,4,T1_SMS_5,194,1,48,36,1558838104
623,4,T1_SMS_5,195,5,42,127,1558899100
623,4,T1_SMS_5,196,1,48,35,1559320748
623,4,T1_SMS_5,197,5,42,127,1559398944
623,4,T1_SMS_5,198,1,48,28,1559840188
623,4,T1_SMS_5,199,5,42,127,1559898340
623,4,T1_SMS_5,200,1,48,36,1560334844
623,4,T1_SMS_5,201,5,42,127,1560399084
623,4,T1_SMS_5,202,1,48,37,1560851892
623,4,T1_SMS_5,203,5,42,127,1560899052
623,4,T1_SMS_5,204,1,48,26,1561323964
623,4,T1_SMS_5,205,5,42,127,1561398896
623,4,T1_SMS_5,206,1,48,39,1561835324
623,4,T1_SMS_5,207,5,42,127,1561899416
623,4,T1_SMS_5,208,1,48,36,1562352824
623,4,T1_SMS_5,209,5,42,127,1562399108
623,4,T1_SMS_5,210,1,48,36,1562858880
623,4,T1_SMS_5,211,5,42,127,1562899224
623,4,T1_SMS_5,212,1,48,42,1563351912
623,4,T1_SMS_5,213,5,42,127,1563398696
623,4,T1_SMS_5,214,1,48,32,1563856840
623,4,T1_SMS_5,215,5,42,127,1563899216
623,4,T1_SMS_5,216,5,42,127,1564398916
623,4,T1_SMS_5,217,1,48,35,1564407720
623,4,T1_SMS_5,218,1,48,33,1564894828
623,4,T1_SMS_5,219,5,42,127,1564898904
623,4,T1_SMS_5,220,1,48,38,1565373880
623,4,T1_SMS_5,221,5,42,127,1565399496
623,4,T1_SMS_5,222,1,48,32,1565882176
623,4,T1_SMS_5,223,5,42,127,1565899192
623,4,T1_SMS_5,224,1,48,37,1566366164
623,4,T1_SMS_5,225,5,42,127,1566399032
623,4,T1_SMS_5,226,5,42,127,1566898516
623,4,T1_SMS_5,227,1,48,34,1566905744
623,4,T1_SMS_5,228,1,48,32,1567369820
623,4,T1_SMS_5,229,5,42,127,1567399324
623,4,T1_SMS_5,230,1,48,33,1567888740
623,4,T1_SMS_5,231,5,42,127,1567898944
623,4,T1_SMS_5,232,1,48,33,1568375868
623,4,T1_SMS_5,233,5,42,127,1568398936
623,4,T1_SMS_5,234,1,48,27,1568878708
623,4,T1_SMS_5,235,5,42,127,1568898484
623,4,T1_SMS_5,236,1,48,33,1569356700
623,4,T1_SMS_5,237,5,42,127,1569399000
623,4,T1_SMS_5,238,1,48,18,1569887216
623,4,T1_SMS_5,239,5,42,127,1569898920
623,4,T1_SMS_5,240,1,48,31,1570329620
623,4,T1_SMS_5,241,5,42,127,1570398836
623,4,T1_SMS_5,242,5,42,127,1570899288
623,4,T1_SMS_5,243,1,48,33,1570916396
623,4,T1_SMS_5,244,1,48,36,1571378228
623,4,T1_SMS_5,245,5,42,127,1571399052
623,4,T1_SMS_5,246,1,48,34,1571868564
623,4,T1_SMS_5,247,5,42,127,1571898896
623,4,T1_SMS_5,248,5,42,127,1572398596
623,4,T1_SMS_5,249,1,48,17,1572408748
623,4,T1_SMS_5,250,1,48,41,1572843920
623,4,T1_SMS_5,251,5,42,127,1572899180
623,4,T1_SMS_5,252,1,48,39,1573356556
623,4,T1_SMS_5,253,5,42,127,1573398876
623,4,T1_SMS_5,254,1,48,38,1573871504
623,4,T1_SMS_5,255,5,42,127,1573898692
623,4,T1_SMS_5,256,1,48,38,1574358712
623,4,T1_SMS_5,257,5,42,127,1574399360
623,4,T1_SMS_5,258,1,48,39,1574889444
623,4,T1_SMS_5,0,9999,9999,9999,1509896260
623,4,T1_SMS_5,1,9999,9999,9999,1510397024
623,4,T1_SMS_5,2,9999,9999,9999,1510896740
623,4,T1_SMS_5,3,9999,9999,9999,1511396428
623,4,T1_SMS_5,4,9999,9999,9999,1511896124
623,4,T1_SMS_5,5,9999,9999,9999,1512396864
623,4,T1_SMS_5,6,9999,9999,9999,1512896620
623,4,T1_SMS_5,7,9999,9999,9999,1513396332
623,4,T1_SMS_5,8,9999,9999,9999,1513897072
623,4,T1_SMS_5,9,9999,9999,9999,1514396752
623,4,T1_SMS_5,10,9999,9999,9999,1514896464
623,4,T1_SMS_5,11,9999,9999,9999,1515396160
623,4,T1_SMS_5,12,9999,9999,9999,1515896900
623,4,T1_SMS_5,13,9999,9999,9999,1516396668
623,4,T1_SMS_5,14,9999,9999,9999,1516896364
623,4,T1_SMS_5,15,9999,9999,9999,1517397104
623,4,T1_SMS_5,16,9999,9999,9999,1517896800
623,4,T1_SMS_5,17,9999,9999,9999,1518396496
623,4,T1_SMS_5,18,9999,9999,9999,1518896196
623,4,T1_SMS_5,19,9999,9999,9999,1519396932
623,4,T1_SMS_5,20,9999,9999,9999,1519896700
623,4,T1_SMS_5,21,9999,9999,9999,1520396372
623,4,T1_SMS_5,22,9999,9999,9999,1520896068
623,4,T1_SMS_5,23,9999,9999,9999,1521396812
623,4,T1_SMS_5,24,9999,9999,9999,1521896504
623,4,T1_SMS_5,25,9999,9999,9999,1522396280
623,4,T1_SMS_5,26,9999,9999,9999,1522897016
623,4,T1_SMS_5,27,9999,9999,9999,1523396712
623,4,T1_SMS_5,28,9999,9999,9999,1523896412
623,4,T1_SMS_5,29,9999,9999,9999,1524396100
623,4,T1_SMS_5,30,9999,9999,9999,1524896844
623,4,T1_SMS_5,31,9999,9999,9999,1525396540
623,4,T1_SMS_5,32,9999,9999,9999,1525896308
623,4,T1_SMS_5,33,9999,9999,9999,1526397048
623,4,T1_SMS_5,34,9999,9999,9999,1526896744
623,4,T1_SMS_5,35,9999,9999,9999,1527396440
623,4,T1_SMS_5,36,9999,9999,9999,1527896132
623,4,T1_SMS_5,37,9999,9999,9999,1528396876
623,4,T1_SMS_5,38,9999,9999,9999,1528896572
623,4,T1_SMS_5,39,9999,9999,9999,1529396340
623,4,T1_SMS_5,40,9999,9999,9999,1529897080
623,4,T1_SMS_5,41,9999,9999,9999,1530396776
623,4,T1_SMS_5,42,9999,9999,9999,1530896448
623,4,T1_SMS_5,43,9999,9999,9999,1531396216
623,4,T1_SMS_5,44,9999,9999,9999,1531896956
623,4,T1_SMS_5,45,9999,9999,9999,1532396652
623,4,T1_SMS_5,46,9999,9999,9999,1532896348
623,4,T1_SMS_5,47,9999,9999,9999,1533397088
623,4,T1_SMS_5,48,9999,9999,9999,1533896784
623,4,T1_SMS_5,49,9999,9999,9999,1534396480
623,4,T1_SMS_5,50,9999,9999,9999,1534896248
623,4,T1_SMS_5,51,9999,9999,9999,1535396920
623,4,T1_SMS_5,52,9999,9999,9999,1535896688
623,4,T1_SMS_5,53,9999,9999,9999,1536396384
623,4,T1_SMS_5,54,9999,9999,9999,1536896080
623,4,T1_SMS_5,55,9999,9999,9999,1537396820
623,4,T1_SMS_5,56,9999,9999,9999,1537896500
623,4,T1_SMS_5,57,9999,9999,9999,1538396220
623,4,T1_SMS_5,58,9999,9999,9999,1538896960
623,4,T1_SMS_5,59,9999,9999,9999,1539396724
623,4,T1_SMS_5,60,9999,9999,9999,1539896420
623,4,T1_SMS_5,61,9999,9999,9999,1540396116
623,4,T1_SMS_5,62,9999,9999,9999,1540896860
623,4,T1_SMS_5,63,9999,9999,9999,1541396552
623,4,T1_SMS_5,64,9999,9999,9999,1541896296
623,4,T1_SMS_5,65,9999,9999,9999,1542397040
623,4,T1_SMS_5,66,9999,9999,9999,1542896736
623,4,T1_SMS_5,67,9999,9999,9999,1543396432
623,4,T1_SMS_5,68,9999,9999,9999,1543896128
623,4,T1_SMS_5,69,9999,9999,9999,1544396868
623,4,T1_SMS_5,70,9999,9999,9999,1544896568
623,4,T1_SMS_5,71,9999,9999,9999,1545396332
623,4,T1_SMS_5,72,9999,9999,9999,1545897072
623,4,T1_SMS_5,73,9999,9999,9999,1546396768
623,4,T1_SMS_5,74,9999,9999,9999,1546896464
623,4,T1_SMS_5,75,9999,9999,9999,1547396160
623,4,T1_SMS_5,76,9999,9999,9999,1547896900
623,4,T1_SMS_5,77,9999,9999,9999,1548396668
623,4,T1_SMS_5,78,9999,9999,9999,1548896364
623,4,T1_SMS_5,79,9999,9999,9999,1549397104
623,4,T1_SMS_5,80,9999,9999,9999,1549896800
623,4,T1_SMS_5,81,9999,9999,9999,1550396496
623,4,T1_SMS_5,82,9999,9999,9999,1550896188
623,4,T1_SMS_5,83,9999,9999,9999,1551396932
623,4,T1_SMS_5,84,9999,9999,9999,1551896700
623,4,T1_SMS_5,85,9999,9999,9999,1552396368
623,4,T1_SMS_5,86,9999,9999,9999,1552896072
623,4,T1_SMS_5,87,9999,9999,9999,1553396804
623,4,T1_SMS_5,88,9999,9999,9999,1553896504
623,4,T1_SMS_5,89,9999,9999,9999,1554396272
623,4,T1_SMS_5,90,9999,9999,9999,1554897012
623,4,T1_SMS_5,91,9999,9999,9999,1555396708
623,4,T1_SMS_5,92,9999,9999,9999,1555896400
623,4,T1_SMS_5,93,9999,9999,9999,1556396096
623,4,T1_SMS_5,94,9999,9999,9999,1556896840
623,4,T1_SMS_5,95,9999,9999,9999,1557396532
623,4,T1_SMS_5,96,9999,9999,9999,1557896304
623,4,T1_SMS_5,97,9999,9999,9999,1558397044
623,4,T1_SMS_5,98,9999,9999,9999,1558896740
623,4,T1_SMS_5,99,9999,9999,9999,1559396436
623,4,T1_SMS_5,100,9999,9999,9999,1559896128
623,4,T1_SMS_5,101,9999,9999,9999,1560396872
623,4,T1_SMS_5,102,9999,9999,9999,1560896616
623,4,T1_SMS_5,103,9999,9999,9999,1561396312
623,4,T1_SMS_5,104,9999,9999,9999,1561897052
623,4,T1_SMS_5,105,9999,9999,9999,1562396748
623,4,T1_SMS_5,106,9999,9999,9999,1562896492
623,4,T1_SMS_5,107,9999,9999,9999,1563396188
623,4,T1_SMS_5,108,9999,9999,9999,1563896928
623,4,T1_SMS_5,109,9999,9999,9999,1564396632
623,4,T1_SMS_5,110,9999,9999,9999,1564896320
623,4,T1_SMS_5,111,9999,9999,9999,1565397060
623,4,T1_SMS_5,112,9999,9999,9999,1565896756
623,4,T1_SMS_5,113,9999,9999,9999,1566396524
623,4,T1_SMS_5,114,9999,9999,9999,1566896228
623,4,T1_SMS_5,115,9999,9999,9999,1567396964
623,4,T1_SMS_5,116,9999,9999,9999,1567896656
623,4,T1_SMS_5,117,9999,9999,9999,1568396352
623,4,T1_SMS_5,118,9999,9999,9999,1568896124
623,4,T1_SMS_5,119,9999,9999,9999,1569396788
623,4,T1_SMS_5,120,9999,9999,9999,1569896560
623,4,T1_SMS_5,121,9999,9999,9999,1570396252
623,4,T1_SMS_5,122,9999,9999,9999,1570897004
623,4,T1_SMS_5,123,9999,9999,9999,1571396692
623,4,T1_SMS_5,124,9999,9999,9999,1571896384
623,4,T1_SMS_5,125,9999,9999,9999,1572396088
623,4,T1_SMS_5,126,9999,9999,9999,1572896820
623,4,T1_SMS_5,127,9999,9999,9999,1573396588
623,4,T1_SMS_5,128,9999,9999,9999,1573896260
623,4,T1_SMS_5,129,9999,9999,9999,1574397000
624,2,T1_SMS_8,0,5,42,127,1628947872
624,2,T1_SMS_8,1,1,48,29,1629538200
624,2,T1_SMS_8,2,5,42,127,1629747680
624,2,T1_SMS_8,3,1,48,26,1630486736
624,2,T1_SMS_8,4,5,42,127,1630548252
624,2,T1_SMS_8,5,5,42,127,1631348064
624,2,T1_SMS_8,6,1,48,19,1631494496
624,2,T1_SMS_8,7,5,42,127,1632147876
624,2,T1_SMS_8,8,1,48,46,1632242920
624,2,T1_SMS_8,9,1,48,46,1632911664
624,2,T1_SMS_8,10,5,42,127,1632947748
624,2,T1_SMS_8,11,1,48,41,1633556868
624,2,T1_SMS_8,12,5,42,127,1633748292
624,2,T1_SMS_8,13,1,48,37,1634455252
624,2,T1_SMS_8,14,5,42,127,1634548100
624,2,T1_SMS_8,15,1,48,40,1635276008
624,2,T1_SMS_8,16,5,42,127,1635347724
624,2,T1_SMS_8,17,1,48,45,1636057788
624,2,T1_SMS_8,18,5,42,127,1636147604
624,2,T1_SMS_8,19,1,48,41,1636912972
624,2,T1_SMS_8,20,5,42,127,1636948312
624,2,T1_SMS_8,21,1,48,43,1637742472
624,2,T1_SMS_8,22,5,42,127,1637748048
624,2,T1_SMS_8,23,1,48,41,1638532784
624,2,T1_SMS_8,24,5,42,127,1638547852
624,2,T1_SMS_8,25,1,48,41,1639338280
624,2,T1_SMS_8,26,5,42,127,1639347512
624,2,T1_SMS_8,27,1,48,42,1640137868
624,2,T1_SMS_8,28,5,42,127,1640148296
624,2,T1_SMS_8,29,1,48,43,1640875588
624,2,T1_SMS_8,30,5,42,127,1640948028
624,2,T1_SMS_8,31,5,42,127,1641747716
624,2,T1_SMS_8,32,1,48,46,1641754496
624,2,T1_SMS_8,33,1,48,46,1642536488
624,2,T1_SMS_8,34,5,42,127,1642547668
624,2,T1_SMS_8,35,1,48,51,1643328820
624,2,T1_SMS_8,36,5,42,127,1643348300
624,2,T1_SMS_8,37,1,48,50,1644131840
624,2,T1_SMS_8,38,5,42,127,1644148032
624,2,T1_SMS_8,39,5,42,127,1644947772
624,2,T1_SMS_8,40,1,48,42,1645001376
624,2,T1_SMS_8,41,5,42,127,1645747504
624,2,T1_SMS_8,42,1,48,39,1645776500
624,2,T1_SMS_8,43,1,48,48,1646496628
624,2,T1_SMS_8,44,5,42,127,1646548428
624,2,T1_SMS_8,45,1,48,39,1647301376
624,2,T1_SMS_8,46,5,42,127,1647348012
624,2,T1_SMS_8,47,5,42,127,1648147776
624,2,T1_SMS_8,48,1,48,41,1648164132
624,2,T1_SMS_8,49,5,42,127,1648947660
624,2,T1_SMS_8,50,1,48,38,1649070900
624,2,T1_SMS_8,51,5,42,127,1649748736
624,2,T1_SMS_8,52,1,48,48,1649796588
624,2,T1_SMS_8,53,1,48,41,1650459272
624,2,T1_SMS_8,54,5,42,127,1650547944
624,2,T1_SMS_8,55,1,48,38,1651304484
624,2,T1_SMS_8,56,5,42,127,1651347752
624,2,T1_SMS_8,57,5,42,127,1652147640
624,2,T1_SMS_8,58,1,48,32,1652197280
624,2,T1_SMS_8,59,5,42,127,1652948420
624,2,T1_SMS_8,60,1,48,41,1653019404
624,2,T1_SMS_8,61,5,42,127,1653748004
624,2,T1_SMS_8,62,1,48,51,1653813676
624,2,T1_SMS_8,63,5,42,127,1654547688
624,2,T1_SMS_8,64,1,48,46,1654554464
624,2,T1_SMS_8,65,5,42,127,1655347644
624,2,T1_SMS_8,66,1,48,41,1655399980
624,2,T1_SMS_8,67,5,42,127,1656148500
624,2,T1_SMS_8,68,1,48,49,1656164856
624,2,T1_SMS_8,69,5,42,127,1656948160
624,2,T1_SMS_8,70,1,48,47,1656973040
624,2,T1_SMS_8,71,1,48,24,1657035252
624,2,T1_SMS_8,72,1,48,49,1657704596
624,2,T1_SMS_8,73,5,42,127,1657747712
624,2,T1_SMS_8,74,1,48,45,1658512408
624,2,T1_SMS_8,75,5,42,127,1658547520
624,2,T1_SMS_8,76,1,48,54,1659276908
624,2,T1_SMS_8,77,5,42,127,1659348372
624,2,T1_SMS_8,78,1,48,34,1660121372
624,2,T1_SMS_8,79,5,42,127,1660148108
624,2,T1_SMS_8,80,1,48,41,1660936960
624,2,T1_SMS_8,81,5,42,127,1660947864
624,2,T1_SMS_8,82,5,42,127,1661747604
624,2,T1_SMS_8,83,1,48,46,1661784752
624,2,T1_SMS_8,84,1,48,46,1662520448
624,2,T1_SMS_8,85,5,42,127,1662548452
624,2,T1_SMS_8,86,1,48,50,1663297140
624,2,T1_SMS_8,87,5,42,127,1663348184
624,2,T1_SMS_8,88,5,42,127,1664147776
624,2,T1_SMS_8,89,1,48,34,1664182008
624,2,T1_SMS_8,90,1,48,42,1664941488
624,2,T1_SMS_8,91,5,42,127,1664947432
624,2,T1_SMS_8,92,1,48,41,1665689236
624,2,T1_SMS_8,93,5,42,127,1665748432
624,2,T1_SMS_8,94,1,48,51,1666458076
624,2,T1_SMS_8,95,5,42,127,1666548168
624,2,T1_SMS_8,96,1,48,42,1667304256
624,2,T1_SMS_8,97,5,42,127,1667347924
624,2,T1_SMS_8,98,1,48,39,1668117332
624,2,T1_SMS_8,99,5,42,127,1668147512
624,2,T1_SMS_8,100,1,48,38,1668923648
624,2,T1_SMS_8,101,5,42,127,1668948440
624,2,T1_SMS_8,102,1,48,38,1669700192
624,2,T1_SMS_8,103,5,42,127,1669748172
624,2,T1_SMS_8,104,5,42,127,1670547688
624,2,T1_SMS_8,105,1,48,49,1670595688
624,2,T1_SMS_8,106,1,48,44,1671305344
624,2,T1_SMS_8,107,5,42,127,1671347492
624,2,T1_SMS_8,108,5,42,127,1672148428
624,2,T1_SMS_8,109,1,48,44,1672201208
624,2,T1_SMS_8,110,1,48,43,1672893436
624,2,T1_SMS_8,111,5,42,127,1672948004
624,2,T1_SMS_8,112,1,48,49,1673622264
624,2,T1_SMS_8,113,5,42,127,1673747748
624,2,T1_SMS_8,114,1,48,47,1674471216
624,2,T1_SMS_8,115,5,42,127,1674547420
624,2,T1_SMS_8,116,1,48,35,1675303584
624,2,T1_SMS_8,117,5,42,127,1675348348
624,2,T1_SMS_8,118,5,42,127,1676148236
624,2,T1_SMS_8,119,1,48,47,1676158612
624,2,T1_SMS_8,120,5,42,127,1676947676
624,2,T1_SMS_8,121,1,48,49,1676985196
624,2,T1_SMS_8,122,1,48,30,1677739216
624,2,T1_SMS_8,123,5,42,127,1677747696
624,2,T1_SMS_8,124,5,42,127,1678548264
624,2,T1_SMS_8,125,1,48,47,1678561404
624,2,T1_SMS_8,126,5,42,127,1679348292
624,2,T1_SMS_8,127,1,48,35,1679372200
624,2,T1_SMS_8,128,5,42,127,1680147680
624,2,T1_SMS_8,129,1,48,20,1680197616
624,2,T1_SMS_8,130,1,48,24,1680944600
624,2,T1_SMS_8,131,5,42,127,1680947628
624,2,T1_SMS_8,132,5,42,127,1681748340
624,2,T1_SMS_8,133,1,48,29,1681755200
624,2,T1_SMS_8,134,1,48,46,1682493204
624,2,T1_SMS_8,135,5,42,127,1682548292
624,2,T1_SMS_8,136,1,48,51,1683299672
624,2,T1_SMS_8,137,5,42,127,1683348172
624,2,T1_SMS_8,138,1,48,55,1684079884
624,2,T1_SMS_8,139,5,42,127,1684147536
624,2,T1_SMS_8,140,1,48,48,1684859568
624,2,T1_SMS_8,141,5,42,127,1684948316
624,2,T1_SMS_8,142,1,48,53,1685673888
624,2,T1_SMS_8,143,5,42,127,1685748048
624,2,T1_SMS_8,144,1,48,56,1686444156
624,2,T1_SMS_8,145,5,42,127,1686548016
624,2,T1_SMS_8,146,1,48,39,1687277700
624,2,T1_SMS_8,147,5,42,127,1687347616
624,2,T1_SMS_8,148,1,48,48,1688041076
624,2,T1_SMS_8,149,5,42,127,1688148232
624,2,T1_SMS_8,150,1,48,48,1688838344
624,2,T1_SMS_8,151,5,42,127,1688948040
624,2,T1_SMS_8,152,1,48,53,1689703772
624,2,T1_SMS_8,153,5,42,127,1689748084
624,2,T1_SMS_8,154,5,42,127,1690547452
624,2,T1_SMS_8,155,1,48,43,1690571216
624,2,T1_SMS_8,156,5,42,127,1691348380
624,2,T1_SMS_8,157,1,48,46,1691370648
624,2,T1_SMS_8,158,1,48,50,1692113144
624,2,T1_SMS_8,159,5,42,127,1692148108
624,2,T1_SMS_8,160,1,48,45,1692915796
624,2,T1_SMS_8,161,5,42,127,1692947940
624,2,T1_SMS_8,162,1,48,50,1693712932
624,2,T1_SMS_8,163,5,42,127,1693747672
624,2,T1_SMS_8,164,1,48,45,1694508332
624,2,T1_SMS_8,165,5,42,127,1694548228
624,2,T1_SMS_8,166,5,42,127,1695348116
624,2,T1_SMS_8,167,1,48,46,1695402696
624,2,T1_SMS_8,168,5,42,127,1696147900
624,2,T1_SMS_8,169,1,48,42,1696151464
624,2,T1_SMS_8,170,1,48,47,1696947184
624,2,T1_SMS_8,171,5,42,127,1696948676
624,2,T1_SMS_8,172,1,48,48,1697731244
624,2,T1_SMS_8,173,5,42,127,1697748184
624,2,T1_SMS_8,174,1,48,42,1698511984
624,2,T1_SMS_8,175,5,42,127,1698547996
624,2,T1_SMS_8,176,1,48,46,1699311412
624,2,T1_SMS_8,177,5,42,127,1699347824
624,2,T1_SMS_8,178,1,48,44,1700122316
624,2,T1_SMS_8,179,5,42,127,1700147632
624,2,T1_SMS_8,180,1,48,43,1700873556
624,2,T1_SMS_8,181,5,42,127,1700948340
624,2,T1_SMS_8,182,1,48,45,1701730688
624,2,T1_SMS_8,183,5,42,127,1701748072
624,2,T1_SMS_8,184,1,48,43,1702483372
624,2,T1_SMS_8,185,5,42,127,1702547880
624,2,T1_SMS_8,186,1,48,48,1703289536
624,2,T1_SMS_8,187,5,42,127,1703347540
624,2,T1_SMS_8,188,1,48,42,1704121364
624,2,T1_SMS_8,189,5,42,127,1704148248
624,2,T1_SMS_8,190,1,48,48,1704899780
624,2,T1_SMS_8,191,5,42,127,1704948128
624,2,T1_SMS_8,192,1,48,54,1705711852
624,2,T1_SMS_8,193,5,42,127,1705747888
624,2,T1_SMS_8,194,5,42,127,1706547628
624,2,T1_SMS_8,195,1,48,53,1706554860
624,2,T1_SMS_8,196,1,48,54,1707347880
624,2,T1_SMS_8,197,5,42,127,1707349372
624,2,T1_SMS_8,198,5,42,127,1708148068
624,2,T1_SMS_8,199,1,48,56,1708157616
624,2,T1_SMS_8,200,1,48,53,1708898844
624,2,T1_SMS_8,201,5,42,127,1708947796
624,2,T1_SMS_8,202,1,48,48,1709739788
624,2,T1_SMS_8,203,5,42,127,1709747676
624,2,T1_SMS_8,204,1,48,43,1710524336
624,2,T1_SMS_8,205,5,42,127,1710548456
624,2,T1_SMS_8,206,1,48,49,1711342544
624,2,T1_SMS_8,207,5,42,127,1711347968
624,2,T1_SMS_8,208,1,48,40,1712052300
624,2,T1_SMS_8,209,5,42,127,1712148684
624,2,T1_SMS_8,210,1,48,48,1712932760
624,2,T1_SMS_8,211,5,42,127,1712947680
624,2,T1_SMS_8,212,1,48,45,1713713348
624,2,T1_SMS_8,213,5,42,127,1713748388
624,2,T1_SMS_8,214,1,48,50,1714528344
624,2,T1_SMS_8,215,5,42,127,1714548120
624,2,T1_SMS_8,216,1,48,52,1715325008
624,2,T1_SMS_8,217,5,42,127,1715347780
624,2,T1_SMS_8,218,5,42,127,1716147820
624,2,T1_SMS_8,219,1,48,48,1716196568
624,2,T1_SMS_8,220,1,48,52,1716928592
624,2,T1_SMS_8,221,5,42,127,1716948220
624,2,T1_SMS_8,222,1,48,57,1717729668
624,2,T1_SMS_8,223,5,42,127,1717748176
624,2,T1_SMS_8,224,5,42,127,1718547792
624,2,T1_SMS_8,225,1,48,35,1718613144
624,2,T1_SMS_8,226,1,48,55,1719336412
624,2,T1_SMS_8,227,5,42,127,1719347740
624,2,T1_SMS_8,228,1,48,55,1720119168
624,2,T1_SMS_8,229,5,42,127,1720148224
624,2,T1_SMS_8,230,5,42,127,1720947968
624,2,T1_SMS_8,231,1,48,52,1721008676
624,2,T1_SMS_8,232,5,42,127,1721747848
624,2,T1_SMS_8,233,1,48,50,1721759640
624,2,T1_SMS_8,234,1,48,51,1722540732
624,2,T1_SMS_8,235,5,42,127,1722547796
624,2,T1_SMS_8,236,1,48,49,1723295436
624,2,T1_SMS_8,237,5,42,127,1723348504
624,2,T1_SMS_8,238,1,48,52,1724096592
624,2,T1_SMS_8,239,5,42,127,1724148088
624,2,T1_SMS_8,240,1,48,55,1724884060
624,2,T1_SMS_8,0,9999,9999,9999,1628945508
624,2,T1_SMS_8,1,9999,9999,9999,1629745240
624,2,T1_SMS_8,2,9999,9999,9999,1630546036
624,2,T1_SMS_8,3,9999,9999,9999,1631345772
624,2,T1_SMS_8,4,9999,9999,9999,1632145508
624,2,T1_SMS_8,5,9999,9999,9999,1632945236
624,2,T1_SMS_8,6,9999,9999,9999,1633746000
624,2,T1_SMS_8,7,9999,9999,9999,1634545780
624,2,T1_SMS_8,8,9999,9999,9999,1635345508
624,2,T1_SMS_8,9,9999,9999,9999,1636145240
624,2,T1_SMS_8,10,9999,9999,9999,1636946020
624,2,T1_SMS_8,11,9999,9999,9999,1637745752
624,2,T1_SMS_8,12,9999,9999,9999,1638545488
624,2,T1_SMS_8,13,9999,9999,9999,1639345220
624,2,T1_SMS_8,14,9999,9999,9999,1640146004
624,2,T1_SMS_8,15,9999,9999,9999,1640945736
624,2,T1_SMS_8,16,9999,9999,9999,1641745500
624,2,T1_SMS_8,17,9999,9999,9999,1642545228
624,2,T1_SMS_8,18,9999,9999,9999,1643346008
624,2,T1_SMS_8,19,9999,9999,9999,1644145740
624,2,T1_SMS_8,20,9999,9999,9999,1644945480
624,2,T1_SMS_8,21,9999,9999,9999,1645745212
624,2,T1_SMS_8,22,9999,9999,9999,1646545988
624,2,T1_SMS_8,23,9999,9999,9999,1647345720
624,2,T1_SMS_8,24,9999,9999,9999,1648145484
624,2,T1_SMS_8,25,9999,9999,9999,1648945220
624,2,T1_SMS_8,26,9999,9999,9999,1649746000
624,2,T1_SMS_8,27,9999,9999,9999,1650545728
624,2,T1_SMS_8,28,9999,9999,9999,1651345460
624,2,T1_SMS_8,29,9999,9999,9999,1652145200
624,2,T1_SMS_8,30,9999,9999,9999,1652945980
624,2,T1_SMS_8,31,9999,9999,9999,1653745712
624,2,T1_SMS_8,32,9999,9999,9999,1654545472
624,2,T1_SMS_8,33,9999,9999,9999,1655345204
624,2,T1_SMS_8,34,9999,9999,9999,1656145984
624,2,T1_SMS_8,35,9999,9999,9999,1656945716
624,2,T1_SMS_8,36,9999,9999,9999,1657745496
624,2,T1_SMS_8,37,9999,9999,9999,1658545228
624,2,T1_SMS_8,38,9999,9999,9999,1659346008
624,2,T1_SMS_8,39,9999,9999,9999,1660145740
624,2,T1_SMS_8,40,9999,9999,9999,1660945500
624,2,T1_SMS_8,41,9999,9999,9999,1661745240
624,2,T1_SMS_8,42,9999,9999,9999,1662546012
624,2,T1_SMS_8,43,9999,9999,9999,1663345744
624,2,T1_SMS_8,44,9999,9999,9999,1664145484
624,2,T1_SMS_8,45,9999,9999,9999,1664945216
624,2,T1_SMS_8,46,9999,9999,9999,1665745992
624,2,T1_SMS_8,47,9999,9999,9999,1666545728
624,2,T1_SMS_8,48,9999,9999,9999,1667345484
624,2,T1_SMS_8,49,9999,9999,9999,1668145220
624,2,T1_SMS_8,50,9999,9999,9999,1668946000
624,2,T1_SMS_8,51,9999,9999,9999,1669745732
624,2,T1_SMS_8,52,9999,9999,9999,1670545472
624,2,T1_SMS_8,53,9999,9999,9999,1671345200
624,2,T1_SMS_8,54,9999,9999,9999,1672145988
624,2,T1_SMS_8,55,9999,9999,9999,1672945712
624,2,T1_SMS_8,56,9999,9999,9999,1673745456
624,2,T1_SMS_8,57,9999,9999,9999,1674545204
624,2,T1_SMS_8,58,9999,9999,9999,1675345984
624,2,T1_SMS_8,59,9999,9999,9999,1676145724
624,2,T1_SMS_8,60,9999,9999,9999,1676945456
624,2,T1_SMS_8,61,9999,9999,9999,1677745256
624,2,T1_SMS_8,62,9999,9999,9999,1678545972
624,2,T1_SMS_8,63,9999,9999,9999,1679345776
624,2,T1_SMS_8,64,9999,9999,9999,1680145460
624,2,T1_SMS_8,65,9999,9999,9999,1680945264
624,2,T1_SMS_8,66,9999,9999,9999,1681745976
624,2,T1_SMS_8,67,9999,9999,9999,1682545776
624,2,T1_SMS_8,68,9999,9999,9999,1683345508
624,2,T1_SMS_8,69,9999,9999,9999,1684145244
624,2,T1_SMS_8,70,9999,9999,9999,1684946024
624,2,T1_SMS_8,71,9999,9999,9999,1685745760
624,2,T1_SMS_8,72,9999,9999,9999,1686545500
624,2,T1_SMS_8,73,9999,9999,9999,1687345248
624,2,T1_SMS_8,74,9999,9999,9999,1688146012
624,2,T1_SMS_8,75,9999,9999,9999,1688945748
624,2,T1_SMS_8,76,9999,9999,9999,1689745496
624,2,T1_SMS_8,77,9999,9999,9999,1690545236
624,2,T1_SMS_8,78,9999,9999,9999,1691346016
624,2,T1_SMS_8,79,9999,9999,9999,1692145744
624,2,T1_SMS_8,80,9999,9999,9999,1692945500
624,2,T1_SMS_8,81,9999,9999,9999,1693745232
624,2,T1_SMS_8,82,9999,9999,9999,1694546012
624,2,T1_SMS_8,83,9999,9999,9999,1695345752
624,2,T1_SMS_8,84,9999,9999,9999,1696145460
624,2,T1_SMS_8,85,9999,9999,9999,1696945268
624,2,T1_SMS_8,86,9999,9999,9999,1697745968
624,2,T1_SMS_8,87,9999,9999,9999,1698545776
624,2,T1_SMS_8,88,9999,9999,9999,1699345460
624,2,T1_SMS_8,89,9999,9999,9999,1700145268
624,2,T1_SMS_8,90,9999,9999,9999,1700945972
624,2,T1_SMS_8,91,9999,9999,9999,1701745780
624,2,T1_SMS_8,92,9999,9999,9999,1702545516
624,2,T1_SMS_8,93,9999,9999,9999,1703345248
624,2,T1_SMS_8,94,9999,9999,9999,1704146032
624,2,T1_SMS_8,95,9999,9999,9999,1704945764
624,2,T1_SMS_8,96,9999,9999,9999,1705745520
624,2,T1_SMS_8,97,9999,9999,9999,1706545264
624,2,T1_SMS_8,98,9999,9999,9999,1707345968
624,2,T1_SMS_8,99,9999,9999,9999,1708145776
624,2,T1_SMS_8,100,9999,9999,9999,1708945504
624,2,T1_SMS_8,101,9999,9999,9999,1709745236
624,2,T1_SMS_8,102,9999,9999,9999,1710546016
624,2,T1_SMS_8,103,9999,9999,9999,1711345748
624,2,T1_SMS_8,104,9999,9999,9999,1712145508
624,2,T1_SMS_8,105,9999,9999,9999,1712945240
624,2,T1_SMS_8,106,9999,9999,9999,1713746020
624,2,T1_SMS_8,107,9999,9999,9999,1714545756
624,2,T1_SMS_8,108,9999,9999,9999,1715345488
624,2,T1_SMS_8,109,9999,9999,9999,1716145228
624,2,T1_SMS_8,110,9999,9999,9999,1716946004
624,2,T1_SMS_8,111,9999,9999,9999,1717745736
624,2,T1_SMS_8,112,9999,9999,9999,1718545500
624,2,T1_SMS_8,113,9999,9999,9999,1719345228
624,2,T1_SMS_8,114,9999,9999,9999,1720146008
624,2,T1_SMS_8,115,9999,9999,9999,1720945748
624,2,T1_SMS_8,116,9999,9999,9999,1721745480
624,2,T1_SMS_8,117,9999,9999,9999,1722545208
624,2,T1_SMS_8,118,9999,9999,9999,1723345988
624,2,T1_SMS_8,119,9999,9999,9999,1724145724
625,23,Ticks_Phase_5,0,5,42,127,1737005468
625,23,Ticks_Phase_5,1,5,42,127,1737515436
625,23,Ticks_Phase_5,2,5,42,127,1738015368
625,23,Ticks_Phase_5,3,1,48,37,1738070388
625,23,Ticks_Phase_5,4,1,48,42,1738501884
625,23,Ticks_Phase_5,5,5,42,127,1738514752
625,23,Ticks_Phase_5,6,1,48,45,1738973652
625,23,Ticks_Phase_5,7,5,42,127,1739014492
625,23,Ticks_Phase_5,8,1,48,43,1739478208
625,23,Ticks_Phase_5,9,5,42,127,1739515452
625,23,Ticks_Phase_5,10,1,48,40,1740008296
625,23,Ticks_Phase_5,11,5,42,127,1740014916
625,23,Ticks_Phase_5,12,1,48,45,1740487020
625,23,Ticks_Phase_5,13,5,42,127,1740514608
625,23,Ticks_Phase_5,14,1,48,42,1741006928
625,23,Ticks_Phase_5,15,5,42,127,1741015492
625,23,Ticks_Phase_5,16,1,48,39,1741514284
625,23,Ticks_Phase_5,17,5,42,127,1741515852
625,23,Ticks_Phase_5,18,1,48,46,1741993576
625,23,Ticks_Phase_5,19,5,42,127,1742014944
625,23,Ticks_Phase_5,20,1,48,46,1742488316
625,23,Ticks_Phase_5,21,5,42,127,1742514632
625,23,Ticks_Phase_5,22,1,48,40,1742979540
625,23,Ticks_Phase_5,23,5,42,127,1743015368
625,23,Ticks_Phase_5,24,1,48,43,1743488444
625,23,Ticks_Phase_5,25,5,42,127,1743515280
625,23,Ticks_Phase_5,26,1,48,40,1744005056
625,23,Ticks_Phase_5,27,5,42,127,1744014672
625,23,Ticks_Phase_5,28,1,48,40,1744495760
625,23,Ticks_Phase_5,29,5,42,127,1744514360
625,23,Ticks_Phase_5,30,5,42,127,1745015400
625,23,Ticks_Phase_5,31,1,48,41,1745017700
625,23,Ticks_Phase_5,32,5,42,127,1745514716
625,23,Ticks_Phase_5,33,1,48,45,1745527420
625,23,Ticks_Phase_5,34,5,42,127,1746014628
625,23,Ticks_Phase_5,35,1,48,46,1746021564
625,23,Ticks_Phase_5,36,5,42,127,1746515436
625,23,Ticks_Phase_5,37,1,48,45,1746554584
625,23,Ticks_Phase_5,38,1,48,40,1746999884
625,23,Ticks_Phase_5,39,5,42,127,1747015192
625,23,Ticks_Phase_5,40,1,48,44,1747493736
625,23,Ticks_Phase_5,41,5,42,127,1747514732
625,23,Ticks_Phase_5,42,1,48,39,1747988476
625,23,Ticks_Phase_5,43,5,42,127,1748014420
625,23,Ticks_Phase_5,44,1,48,47,1748458336
625,23,Ticks_Phase_5,45,5,42,127,1748515156
625,23,Ticks_Phase_5,46,1,48,45,1748992408
625,23,Ticks_Phase_5,47,5,42,127,1749014996
625,23,Ticks_Phase_5,48,1,48,45,1749495088
625,23,Ticks_Phase_5,49,5,42,127,1749514980
625,23,Ticks_Phase_5,50,1,48,43,1750012660
625,23,Ticks_Phase_5,51,5,42,127,1750015320
625,23,Ticks_Phase_5,52,1,48,50,1750508012
625,23,Ticks_Phase_5,53,5,42,127,1750515008
625,23,Ticks_Phase_5,54,1,48,48,1751004108
625,23,Ticks_Phase_5,55,5,42,127,1751014620
625,23,Ticks_Phase_5,56,5,42,127,1751514688
625,23,Ticks_Phase_5,57,1,48,46,1751521024
625,23,Ticks_Phase_5,58,1,48,46,1751994196
625,23,Ticks_Phase_5,59,5,42,127,1752005084
625,23,Ticks_Phase_5,60,1,48,43,1752479880
625,23,Ticks_Phase_5,61,5,42,127,1752504624
625,23,Ticks_Phase_5,62,1,48,48,1752994624
625,23,Ticks_Phase_5,63,5,42,127,1753005288
625,23,Ticks_Phase_5,64,1,48,43,1753482172
625,23,Ticks_Phase_5,65,5,42,127,1753515308
625,23,Ticks_Phase_5,66,1,48,48,1754005308
625,23,Ticks_Phase_5,67,5,42,127,1754015072
625,23,Ticks_Phase_5,68,1,48,45,1754493540
625,23,Ticks_Phase_5,69,5,42,127,1754514684
625,23,Ticks_Phase_5,70,1,48,45,1755012564
625,23,Ticks_Phase_5,71,5,42,127,1755014448
625,23,Ticks_Phase_5,72,1,48,46,1755490812
625,23,Ticks_Phase_5,73,5,42,127,1755515260
625,23,Ticks_Phase_5,74,1,48,44,1756004208
625,23,Ticks_Phase_5,75,5,42,127,1756015096
625,23,Ticks_Phase_5,76,1,48,43,1756487948
625,23,Ticks_Phase_5,77,5,42,127,1756514636
625,23,Ticks_Phase_5,78,1,48,42,1757005088
625,23,Ticks_Phase_5,79,5,42,127,1757015372
625,23,Ticks_Phase_5,80,1,48,45,1757461780
625,23,Ticks_Phase_5,81,5,42,127,1757515136
625,23,Ticks_Phase_5,82,1,48,46,1757962116
625,23,Ticks_Phase_5,83,5,42,127,1758015020
625,23,Ticks_Phase_5,84,1,48,44,1758454224
625,23,Ticks_Phase_5,85,5,42,127,1758514484
625,23,Ticks_Phase_5,86,1,48,47,1758941096
625,23,Ticks_Phase_5,87,5,42,127,1759015296
625,23,Ticks_Phase_5,88,1,48,44,1759457864
625,23,Ticks_Phase_5,89,5,42,127,1759515056
625,23,Ticks_Phase_5,90,1,48,48,1759984816
625,23,Ticks_Phase_5,91,5,42,127,1760014820
625,23,Ticks_Phase_5,92,1,48,24,1760046536
625,23,Ticks_Phase_5,93,1,48,48,1760473772
625,23,Ticks_Phase_5,94,5,42,127,1760514316
625,23,Ticks_Phase_5,95,1,48,45,1761007760
625,23,Ticks_Phase_5,96,5,42,127,1761025312
625,23,Ticks_Phase_5,97,1,48,46,1761514036
625,23,Ticks_Phase_5,98,5,42,127,1761524996
625,23,Ticks_Phase_5,99,1,48,43,1761982728
625,23,Ticks_Phase_5,100,5,42,127,1762024912
625,23,Ticks_Phase_5,101,1,48,50,1762512056
625,23,Ticks_Phase_5,102,5,42,127,1762524600
625,23,Ticks_Phase_5,103,1,48,48,1762979396
625,23,Ticks_Phase_5,104,5,42,127,1763025260
625,23,Ticks_Phase_5,105,1,48,47,1763513016
625,23,Ticks_Phase_5,106,5,42,127,1763524948
625,23,Ticks_Phase_5,107,1,48,49,1763990448
625,23,Ticks_Phase_5,108,5,42,127,1764024784
625,23,Ticks_Phase_5,109,1,48,46,1764499804
625,23,Ticks_Phase_5,110,5,42,127,1764525520
625,23,Ticks_Phase_5,111,1,48,49,1765017620
625,23,Ticks_Phase_5,112,5,42,127,1765035320
625,23,Ticks_Phase_5,113,1,48,48,1765500600
625,23,Ticks_Phase_5,114,5,42,127,1765535008
625,23,Ticks_Phase_5,115,1,48,29,1765558780
625,23,Ticks_Phase_5,116,5,42,127,1766034904
625,23,Ticks_Phase_5,117,1,48,49,1766035796
625,23,Ticks_Phase_5,118,1,48,49,1766526840
625,23,Ticks_Phase_5,119,5,42,127,1766534436
625,23,Ticks_Phase_5,120,5,42,127,1767035252
625,23,Ticks_Phase_5,121,1,48,49,1767052220
625,23,Ticks_Phase_5,122,1,48,48,1767521424
625,23,Ticks_Phase_5,123,5,42,127,1767534936
625,23,Ticks_Phase_5,124,1,48,24,1767583428
625,23,Ticks_Phase_5,125,5,42,127,1768034608
625,23,Ticks_Phase_5,126,1,48,50,1768045672
625,23,Ticks_Phase_5,127,1,48,46,1768526172
625,23,Ticks_Phase_5,128,5,42,127,1768535340
625,23,Ticks_Phase_5,129,1,48,47,1769054656
625,23,Ticks_Phase_5,130,5,42,127,1769055992
625,23,Ticks_Phase_5,131,1,48,42,1769539928
625,23,Ticks_Phase_5,132,5,42,127,1769555460
625,23,Ticks_Phase_5,133,1,48,46,1770037448
625,23,Ticks_Phase_5,134,5,42,127,1770055072
625,23,Ticks_Phase_5,135,1,48,48,1770523884
625,23,Ticks_Phase_5,136,5,42,127,1770555060
625,23,Ticks_Phase_5,137,1,48,25,1770586176
625,23,Ticks_Phase_5,138,1,48,42,1771036272
625,23,Ticks_Phase_5,139,5,42,127,1771054500
625,23,Ticks_Phase_5,140,1,48,46,1771511896
625,23,Ticks_Phase_5,141,5,42,127,1771555236
625,23,Ticks_Phase_5,142,1,48,45,1772012252
625,23,Ticks_Phase_5,143,5,42,127,1772055000
625,23,Ticks_Phase_5,144,1,48,45,1772522052
625,23,Ticks_Phase_5,145,5,42,127,1772554836
625,23,Ticks_Phase_5,146,1,48,46,1773012676
625,23,Ticks_Phase_5,147,5,42,127,1773055324
625,23,Ticks_Phase_5,148,1,48,47,1773504508
625,23,Ticks_Phase_5,149,5,42,127,1773554940
625,23,Ticks_Phase_5,150,1,48,46,1774050024
625,23,Ticks_Phase_5,151,5,42,127,1774054848
625,23,Ticks_Phase_5,152,5,42,127,1774554620
625,23,Ticks_Phase_5,153,1,48,47,1774564784
625,23,Ticks_Phase_5,154,1,48,30,1774978264
625,23,Ticks_Phase_5,155,5,42,127,1775055276
625,23,Ticks_Phase_5,156,1,48,49,1775487908
625,23,Ticks_Phase_5,157,5,42,127,1775554964
625,23,Ticks_Phase_5,158,1,48,47,1776036200
625,23,Ticks_Phase_5,159,5,42,127,1776054576
625,23,Ticks_Phase_5,160,1,48,24,1776099616
625,23,Ticks_Phase_5,161,1,48,40,1776479024
625,23,Ticks_Phase_5,162,5,42,127,1776555364
625,23,Ticks_Phase_5,163,1,48,47,1777019600
625,23,Ticks_Phase_5,164,5,42,127,1777055052
625,23,Ticks_Phase_5,165,1,48,40,1777513376
625,23,Ticks_Phase_5,166,5,42,127,1777535344
625,23,Ticks_Phase_5,167,1,48,40,1778025048
625,23,Ticks_Phase_5,168,5,42,127,1778034960
625,23,Ticks_Phase_5,169,1,48,48,1778450288
625,23,Ticks_Phase_5,170,1,48,27,1778519468
625,23,Ticks_Phase_5,171,5,42,127,1778534776
625,23,Ticks_Phase_5,172,1,48,52,1779005828
625,23,Ticks_Phase_5,173,5,42,127,1779034684
625,23,Ticks_Phase_5,174,1,48,17,1779100020
625,23,Ticks_Phase_5,175,1,48,45,1779524140
625,23,Ticks_Phase_5,176,5,42,127,1779535176
625,23,Ticks_Phase_5,177,1,48,48,1780011836
625,23,Ticks_Phase_5,178,5,42,127,1780034936
625,23,Ticks_Phase_5,179,1,48,40,1780528456
625,23,Ticks_Phase_5,180,5,42,127,1780534772
625,23,Ticks_Phase_5,181,1,48,48,1780996740
625,23,Ticks_Phase_5,182,5,42,127,1781035360
625,23,Ticks_Phase_5,183,1,48,46,1781513384
625,23,Ticks_Phase_5,184,5,42,127,1781535120
625,23,Ticks_Phase_5,185,1,48,50,1782006904
625,23,Ticks_Phase_5,186,5,42,127,1782034884
625,23,Ticks_Phase_5,187,5,42,127,1782534628
625,23,Ticks_Phase_5,188,1,48,47,1782550728
625,23,Ticks_Phase_5,189,1,48,47,1783008216
625,23,Ticks_Phase_5,190,5,42,127,1783035208
625,23,Ticks_Phase_5,191,1,48,45,1783491132
625,23,Ticks_Phase_5,192,5,42,127,1783534900
625,23,Ticks_Phase_5,193,1,48,51,1783998012
625,23,Ticks_Phase_5,194,5,42,127,1784034736
625,23,Ticks_Phase_5,195,1,48,48,1784469692
625,23,Ticks_Phase_5,196,5,42,127,1784535844
625,23,Ticks_Phase_5,197,1,48,47,1784993720
625,23,Ticks_Phase_5,198,5,42,127,1785035012
625,23,Ticks_Phase_5,199,5,42,127,1785484756
625,23,Ticks_Phase_5,200,1,48,47,1785504356
625,23,Ticks_Phase_5,201,1,48,39,1785976024
625,23,Ticks_Phase_5,202,5,42,127,1785985336
625,23,Ticks_Phase_5,203,1,48,49,1786462072
625,23,Ticks_Phase_5,204,5,42,127,1786485248
625,23,Ticks_Phase_5,205,1,48,49,1786957952
625,23,Ticks_Phase_5,206,5,42,127,1786984788
625,23,Ticks_Phase_5,207,1,48,18,1787046452
625,23,Ticks_Phase_5,208,1,48,45,1787470120
625,23,Ticks_Phase_5,209,5,42,127,1787484604
625,23,Ticks_Phase_5,210,1,48,48,1787962852
625,23,Ticks_Phase_5,211,5,42,127,1787985192
625,23,Ticks_Phase_5,212,1,48,28,1788036228
625,23,Ticks_Phase_5,213,5,42,127,1788484940
625,23,Ticks_Phase_5,214,1,48,45,1788487028
625,23,Ticks_Phase_5,215,1,48,49,1788970880
625,23,Ticks_Phase_5,216,5,42,127,1788984620
625,23,Ticks_Phase_5,217,1,48,45,1789447104
625,23,Ticks_Phase_5,218,5,42,127,1789485724
625,23,Ticks_Phase_5,219,5,42,127,1789995308
625,23,Ticks_Phase_5,220,1,48,48,1790008908
625,23,Ticks_Phase_5,221,1,48,43,1790493628
625,23,Ticks_Phase_5,222,5,42,127,1790495136
625,23,Ticks_Phase_5,223,1,48,48,1790949984
625,23,Ticks_Phase_5,224,5,42,127,1790994900
625,23,Ticks_Phase_5,225,1,48,29,1791009684
625,23,Ticks_Phase_5,226,1,48,44,1791478336
625,23,Ticks_Phase_5,227,5,42,127,1791494468
625,23,Ticks_Phase_5,228,5,42,127,1791995256
625,23,Ticks_Phase_5,229,1,48,39,1792007064
625,23,Ticks_Phase_5,230,1,48,48,1792484804
625,23,Ticks_Phase_5,231,5,42,127,1792494864
625,23,Ticks_Phase_5,232,1,48,46,1792959996
625,23,Ticks_Phase_5,233,5,42,127,1792994552
625,23,Ticks_Phase_5,234,1,48,46,1793494092
625,23,Ticks_Phase_5,235,5,42,127,1793495660
625,23,Ticks_Phase_5,236,1,48,46,1793957580
625,23,Ticks_Phase_5,237,1,48,22,1794026532
625,23,Ticks_Phase_5,238,5,42,127,1794045280
625,23,Ticks_Phase_5,239,1,48,46,1794511756
625,23,Ticks_Phase_5,240,5,42,127,1794544968
625,23,Ticks_Phase_5,241,1,48,45,1795019840
625,23,Ticks_Phase_5,242,5,42,127,1795044656
625,23,Ticks_Phase_5,243,1,48,48,1795504552
625,23,Ticks_Phase_5,244,5,42,127,1795544640
625,23,Ticks_Phase_5,245,1,48,43,1796020708
625,23,Ticks_Phase_5,246,5,42,127,1796045300
625,23,Ticks_Phase_5,247,1,48,44,1796517776
625,23,Ticks_Phase_5,248,5,42,127,1796544840
625,23,Ticks_Phase_5,249,1,48,47,1797003692
625,23,Ticks_Phase_5,250,5,42,127,1797044532
625,23,Ticks_Phase_5,251,1,48,36,1797534980
625,23,Ticks_Phase_5,252,5,42,127,1797545412
625,23,Ticks_Phase_5,253,1,48,45,1798030396
625,23,Ticks_Phase_5,254,5,42,127,1798045028
625,23,Ticks_Phase_5,255,1,48,42,1798524320
625,23,Ticks_Phase_5,256,5,42,127,1798544716
625,23,Ticks_Phase_5,257,1,48,46,1798999144
625,23,Ticks_Phase_5,258,5,42,127,1799044552
625,23,Ticks_Phase_5,259,1,48,46,1799504076
625,23,Ticks_Phase_5,260,5,42,127,1799545364
625,23,Ticks_Phase_5,261,1,48,44,1800021204
625,23,Ticks_Phase_5,262,5,42,127,1800044976
625,23,Ticks_Phase_5,263,1,48,48,1800527192
625,23,Ticks_Phase_5,264,5,42,127,1800544592
625,23,Ticks_Phase_5,265,1,48,41,1801013176
625,23,Ticks_Phase_5,266,5,42,127,1801045476
625,23,Ticks_Phase_5,267,1,48,44,1801512776
625,23,Ticks_Phase_5,268,5,42,127,1801544940
625,23,Ticks_Phase_5,269,5,42,127,1802044788
625,23,Ticks_Phase_5,270,1,48,32,1802049476
625,23,Ticks_Phase_5,271,1,48,44,1802524148
625,23,Ticks_Phase_5,272,5,42,127,1802644952
625,23,Ticks_Phase_5,273,1,48,33,1803036116
625,23,Ticks_Phase_5,274,5,42,127,1803144564
625,23,Ticks_Phase_5,275,1,48,52,1803552196
625,23,Ticks_Phase_5,276,1,48,24,1803619124
625,23,Ticks_Phase_5,277,5,42,127,1803645516
625,23,Ticks_Phase_5,278,1,48,42,1804118812
625,23,Ticks_Phase_5,279,5,42,127,1804145056
625,23,Ticks_Phase_5,280,1,48,44,1804644452
625,23,Ticks_Phase_5,281,5,42,127,1804645864
625,23,Ticks_Phase_5,282,1,48,42,1805112348
625,23,Ticks_Phase_5,283,5,42,127,1805144508
625,23,Ticks_Phase_5,284,1,48,41,1805611656
625,23,Ticks_Phase_5,285,5,42,127,1805645388
625,23,Ticks_Phase_5,286,1,48,47,1806116068
625,23,Ticks_Phase_5,287,5,42,127,1806144928
625,23,Ticks_Phase_5,288,1,48,45,1806628784
625,23,Ticks_Phase_5,289,5,42,127,1806644544
625,23,Ticks_Phase_5,290,1,48,49,1807127496
625,23,Ticks_Phase_5,291,5,42,127,1807145424
625,23,Ticks_Phase_5,292,1,48,48,1807625692
625,23,Ticks_Phase_5,293,5,42,127,1807645040
625,23,Ticks_Phase_5,294,1,48,49,1808096144
625,23,Ticks_Phase_5,295,5,42,127,1808144800
625,23,Ticks_Phase_5,296,5,42,127,1808644396
625,23,Ticks_Phase_5,297,1,48,39,1808645732
625,23,Ticks_Phase_5,298,1,48,52,1809126124
625,23,Ticks_Phase_5,299,5,42,127,1809145472
625,23,Ticks_Phase_5,300,1,48,39,1809644644
625,23,Ticks_Phase_5,301,5,42,127,1809646132
625,23,Ticks_Phase_5,302,1,48,51,1810111716
625,23,Ticks_Phase_5,303,5,42,127,1810144624
625,23,Ticks_Phase_5,304,1,48,49,1810609008
625,23,Ticks_Phase_5,305,5,42,127,1810645508
625,23,Ticks_Phase_5,306,1,48,51,1811137380
625,23,Ticks_Phase_5,307,5,42,127,1811145348
625,23,Ticks_Phase_5,308,1,48,47,1811631448
625,23,Ticks_Phase_5,309,5,42,127,1811644740
625,23,Ticks_Phase_5,310,5,42,127,1812045208
625,23,Ticks_Phase_5,311,1,48,44,1812170688
625,23,Ticks_Phase_5,312,5,42,127,1812544824
625,23,Ticks_Phase_5,313,1,48,45,1812653092
625,23,Ticks_Phase_5,314,5,42,127,1813044584
625,23,Ticks_Phase_5,315,1,48,45,1813068224
625,23,Ticks_Phase_5,316,5,42,127,1813545468
625,23,Ticks_Phase_5,317,1,48,50,1813601976
625,23,Ticks_Phase_5,318,5,42,127,1814045156
625,23,Ticks_Phase_5,319,1,48,42,1814106544
625,23,Ticks_Phase_5,320,5,42,127,1814544696
625,23,Ticks_Phase_5,321,1,48,43,1814591468
625,23,Ticks_Phase_5,322,5,42,127,1815044432
625,23,Ticks_Phase_5,323,1,48,40,1815053428
625,23,Ticks_Phase_5,324,5,42,127,1815545168
625,23,Ticks_Phase_5,325,1,48,38,1815576024
625,23,Ticks_Phase_5,326,1,48,37,1816026328
625,23,Ticks_Phase_5,327,5,42,127,1816044852
625,23,Ticks_Phase_5,328,5,42,127,1816544696
625,23,Ticks_Phase_5,329,1,48,36,1816553960
625,23,Ticks_Phase_5,330,1,48,42,1817008180
625,23,Ticks_Phase_5,331,5,42,127,1817045348
625,23,Ticks_Phase_5,332,5,42,127,1817545264
625,23,Ticks_Phase_5,333,1,48,44,1817551004
625,23,Ticks_Phase_5,334,5,42,127,1818044732
625,23,Ticks_Phase_5,335,1,48,42,1818049196
625,23,Ticks_Phase_5,336,5,42,127,1818544492
625,23,Ticks_Phase_5,337,1,48,43,1818555704
625,23,Ticks_Phase_5,338,1,48,43,1819030284
625,23,Ticks_Phase_5,339,5,42,127,1819045368
625,23,Ticks_Phase_5,340,5,42,127,1819545364
625,23,Ticks_Phase_5,341,1,48,42,1819573728
625,23,Ticks_Phase_5,342,5,42,127,1820044532
625,23,Ticks_Phase_5,343,1,48,42,1820066592
625,23,Ticks_Phase_5,344,5,42,127,1820545540
625,23,Ticks_Phase_5,345,1,48,35,1820592252
625,23,Ticks_Phase_5,346,1,48,42,1821039272
625,23,Ticks_Phase_5,347,5,42,127,1821045296
625,23,Ticks_Phase_5,348,5,42,127,1821544692
625,23,Ticks_Phase_5,0,9999,9999,9999,1737003108
625,23,Ticks_Phase_5,1,9999,9999,9999,1737513076
625,23,Ticks_Phase_5,2,9999,9999,9999,1738012784
625,23,Ticks_Phase_5,3,9999,9999,9999,1738512464
625,23,Ticks_Phase_5,4,9999,9999,9999,1739012204
625,23,Ticks_Phase_5,5,9999,9999,9999,1739512944
625,23,Ticks_Phase_5,6,9999,9999,9999,1740012632
625,23,Ticks_Phase_5,7,9999,9999,9999,1740512320
625,23,Ticks_Phase_5,8,9999,9999,9999,1741013056
625,23,Ticks_Phase_5,9,9999,9999,9999,1741512824
625,23,Ticks_Phase_5,10,9999,9999,9999,1742012508
625,23,Ticks_Phase_5,11,9999,9999,9999,1742512196
625,23,Ticks_Phase_5,12,9999,9999,9999,1743012932
625,23,Ticks_Phase_5,13,9999,9999,9999,1743512696
625,23,Ticks_Phase_5,14,9999,9999,9999,1744012384
625,23,Ticks_Phase_5,15,9999,9999,9999,1744512076
625,23,Ticks_Phase_5,16,9999,9999,9999,1745012816
625,23,Ticks_Phase_5,17,9999,9999,9999,1745512504
625,23,Ticks_Phase_5,18,9999,9999,9999,1746012268
625,23,Ticks_Phase_5,19,9999,9999,9999,1746513000
625,23,Ticks_Phase_5,20,9999,9999,9999,1747012684
625,23,Ticks_Phase_5,21,9999,9999,9999,1747512448
625,23,Ticks_Phase_5,22,9999,9999,9999,1748012136
625,23,Ticks_Phase_5,23,9999,9999,9999,1748512872
625,23,Ticks_Phase_5,24,9999,9999,9999,1749012560
625,23,Ticks_Phase_5,25,9999,9999,9999,1749512296
625,23,Ticks_Phase_5,26,9999,9999,9999,1750013032
625,23,Ticks_Phase_5,27,9999,9999,9999,1750512720
625,23,Ticks_Phase_5,28,9999,9999,9999,1751012408
625,23,Ticks_Phase_5,29,9999,9999,9999,1751512176
625,23,Ticks_Phase_5,30,9999,9999,9999,1752002648
625,23,Ticks_Phase_5,31,9999,9999,9999,1752502340
625,23,Ticks_Phase_5,32,9999,9999,9999,1753003072
625,23,Ticks_Phase_5,33,9999,9999,9999,1753513020
625,23,Ticks_Phase_5,34,9999,9999,9999,1754012784
625,23,Ticks_Phase_5,35,9999,9999,9999,1754512472
625,23,Ticks_Phase_5,36,9999,9999,9999,1755012192
625,23,Ticks_Phase_5,37,9999,9999,9999,1755512896
625,23,Ticks_Phase_5,38,9999,9999,9999,1756012660
625,23,Ticks_Phase_5,39,9999,9999,9999,1756512348
625,23,Ticks_Phase_5,40,9999,9999,9999,1757013084
625,23,Ticks_Phase_5,41,9999,9999,9999,1757512772
625,23,Ticks_Phase_5,42,9999,9999,9999,1758012512
625,23,Ticks_Phase_5,43,9999,9999,9999,1758512200
625,23,Ticks_Phase_5,44,9999,9999,9999,1759012932
625,23,Ticks_Phase_5,45,9999,9999,9999,1759512696
625,23,Ticks_Phase_5,46,9999,9999,9999,1760012384
625,23,Ticks_Phase_5,47,9999,9999,9999,1760512104
625,23,Ticks_Phase_5,48,9999,9999,9999,1761023096
625,23,Ticks_Phase_5,49,9999,9999,9999,1761522784
625,23,Ticks_Phase_5,50,9999,9999,9999,1762022476
625,23,Ticks_Phase_5,51,9999,9999,9999,1762522236
625,23,Ticks_Phase_5,52,9999,9999,9999,1763022972
625,23,Ticks_Phase_5,53,9999,9999,9999,1763522660
625,23,Ticks_Phase_5,54,9999,9999,9999,1764022348
625,23,Ticks_Phase_5,55,9999,9999,9999,1764523084
625,23,Ticks_Phase_5,56,9999,9999,9999,1765033032
625,23,Ticks_Phase_5,57,9999,9999,9999,1765532796
625,23,Ticks_Phase_5,58,9999,9999,9999,1766032468
625,23,Ticks_Phase_5,59,9999,9999,9999,1766532152
625,23,Ticks_Phase_5,60,9999,9999,9999,1767032892
625,23,Ticks_Phase_5,61,9999,9999,9999,1767532648
625,23,Ticks_Phase_5,62,9999,9999,9999,1768032320
625,23,Ticks_Phase_5,63,9999,9999,9999,1768533052
625,23,Ticks_Phase_5,64,9999,9999,9999,1769052220
625,23,Ticks_Phase_5,65,9999,9999,9999,1769553024
625,23,Ticks_Phase_5,66,9999,9999,9999,1770052712
625,23,Ticks_Phase_5,67,9999,9999,9999,1770552400
625,23,Ticks_Phase_5,68,9999,9999,9999,1771052140
625,23,Ticks_Phase_5,69,9999,9999,9999,1771552876
625,23,Ticks_Phase_5,70,9999,9999,9999,1772052564
625,23,Ticks_Phase_5,71,9999,9999,9999,1772552300
625,23,Ticks_Phase_5,72,9999,9999,9999,1773053036
625,23,Ticks_Phase_5,73,9999,9999,9999,1773552724
625,23,Ticks_Phase_5,74,9999,9999,9999,1774052416
625,23,Ticks_Phase_5,75,9999,9999,9999,1774552184
625,23,Ticks_Phase_5,76,9999,9999,9999,1775052912
625,23,Ticks_Phase_5,77,9999,9999,9999,1775552604
625,23,Ticks_Phase_5,78,9999,9999,9999,1776052288
625,23,Ticks_Phase_5,79,9999,9999,9999,1776553080
625,23,Ticks_Phase_5,80,9999,9999,9999,1777052768
625,23,Ticks_Phase_5,81,9999,9999,9999,1777532984
625,23,Ticks_Phase_5,82,9999,9999,9999,1778032748
625,23,Ticks_Phase_5,83,9999,9999,9999,1778532412
625,23,Ticks_Phase_5,84,9999,9999,9999,1779032176
625,23,Ticks_Phase_5,85,9999,9999,9999,1779532888
625,23,Ticks_Phase_5,86,9999,9999,9999,1780032576
625,23,Ticks_Phase_5,87,9999,9999,9999,1780532340
625,23,Ticks_Phase_5,88,9999,9999,9999,1781033072
625,23,Ticks_Phase_5,89,9999,9999,9999,1781532760
625,23,Ticks_Phase_5,90,9999,9999,9999,1782032448
625,23,Ticks_Phase_5,91,9999,9999,9999,1782532192
625,23,Ticks_Phase_5,92,9999,9999,9999,1783032924
625,23,Ticks_Phase_5,93,9999,9999,9999,1783532612
625,23,Ticks_Phase_5,94,9999,9999,9999,1784032376
625,23,Ticks_Phase_5,95,9999,9999,9999,1784533112
625,23,Ticks_Phase_5,96,9999,9999,9999,1785032800
625,23,Ticks_Phase_5,97,9999,9999,9999,1785482320
625,23,Ticks_Phase_5,98,9999,9999,9999,1785983048
625,23,Ticks_Phase_5,99,9999,9999,9999,1786482812
625,23,Ticks_Phase_5,100,9999,9999,9999,1786982500
625,23,Ticks_Phase_5,101,9999,9999,9999,1787482168
625,23,Ticks_Phase_5,102,9999,9999,9999,1787982904
625,23,Ticks_Phase_5,103,9999,9999,9999,1788482652
625,23,Ticks_Phase_5,104,9999,9999,9999,1788982332
625,23,Ticks_Phase_5,105,9999,9999,9999,1789483068
625,23,Ticks_Phase_5,106,9999,9999,9999,1789993020
625,23,Ticks_Phase_5,107,9999,9999,9999,1790492780
625,23,Ticks_Phase_5,108,9999,9999,9999,1790992464
625,23,Ticks_Phase_5,109,9999,9999,9999,1791492180
625,23,Ticks_Phase_5,110,9999,9999,9999,1791992896
625,23,Ticks_Phase_5,111,9999,9999,9999,1792492652
625,23,Ticks_Phase_5,112,9999,9999,9999,1792992340
625,23,Ticks_Phase_5,113,9999,9999,9999,1793493084
625,23,Ticks_Phase_5,114,9999,9999,9999,1794042992
625,23,Ticks_Phase_5,115,9999,9999,9999,1794542680
625,23,Ticks_Phase_5,116,9999,9999,9999,1795042368
625,23,Ticks_Phase_5,117,9999,9999,9999,1795542132
625,23,Ticks_Phase_5,118,9999,9999,9999,1796042868
625,23,Ticks_Phase_5,119,9999,9999,9999,1796542556
625,23,Ticks_Phase_5,120,9999,9999,9999,1797042244
625,23,Ticks_Phase_5,121,9999,9999,9999,1797542976
625,23,Ticks_Phase_5,122,9999,9999,9999,1798042740
625,23,Ticks_Phase_5,123,9999,9999,9999,1798542428
625,23,Ticks_Phase_5,124,9999,9999,9999,1799042116
625,23,Ticks_Phase_5,125,9999,9999,9999,1799542852
625,23,Ticks_Phase_5,126,9999,9999,9999,1800042616
625,23,Ticks_Phase_5,127,9999,9999,9999,1800542304
625,23,Ticks_Phase_5,128,9999,9999,9999,1801043040
625,23,Ticks_Phase_5,129,9999,9999,9999,1801542728
625,23,Ticks_Phase_5,130,9999,9999,9999,1802042424
625,23,Ticks_Phase_5,131,9999,9999,9999,1802642516
625,23,Ticks_Phase_5,132,9999,9999,9999,1803142204
625,23,Ticks_Phase_5,133,9999,9999,9999,1803643008
625,23,Ticks_Phase_5,134,9999,9999,9999,1804142696
625,23,Ticks_Phase_5,135,9999,9999,9999,1804642388
625,23,Ticks_Phase_5,136,9999,9999,9999,1805142072
625,23,Ticks_Phase_5,137,9999,9999,9999,1805642880
625,23,Ticks_Phase_5,138,9999,9999,9999,1806142568
625,23,Ticks_Phase_5,139,9999,9999,9999,1806642256
625,23,Ticks_Phase_5,140,9999,9999,9999,1807142992
625,23,Ticks_Phase_5,141,9999,9999,9999,1807642680
625,23,Ticks_Phase_5,142,9999,9999,9999,1808142440
625,23,Ticks_Phase_5,143,9999,9999,9999,1808642108
625,23,Ticks_Phase_5,144,9999,9999,9999,1809142888
625,23,Ticks_Phase_5,145,9999,9999,9999,1809642580
625,23,Ticks_Phase_5,146,9999,9999,9999,1810142264
625,23,Ticks_Phase_5,147,9999,9999,9999,1810643000
625,23,Ticks_Phase_5,148,9999,9999,9999,1811142760
625,23,Ticks_Phase_5,149,9999,9999,9999,1811642452
625,23,Ticks_Phase_5,150,9999,9999,9999,1812042844
625,23,Ticks_Phase_5,151,9999,9999,9999,1812542536
625,23,Ticks_Phase_5,152,9999,9999,9999,1813042300
625,23,Ticks_Phase_5,153,9999,9999,9999,1813543032
625,23,Ticks_Phase_5,154,9999,9999,9999,1814042720
625,23,Ticks_Phase_5,155,9999,9999,9999,1814542408
625,23,Ticks_Phase_5,156,9999,9999,9999,1815042148
625,23,Ticks_Phase_5,157,9999,9999,9999,1815542880
625,23,Ticks_Phase_5,158,9999,9999,9999,1816042564
625,23,Ticks_Phase_5,159,9999,9999,9999,1816542332
625,23,Ticks_Phase_5,160,9999,9999,9999,1817043060
625,23,Ticks_Phase_5,161,9999,9999,9999,1817542756
625,23,Ticks_Phase_5,162,9999,9999,9999,1818042444
625,23,Ticks_Phase_5,163,9999,9999,9999,1818542204
625,23,Ticks_Phase_5,164,9999,9999,9999,1819042936
625,23,Ticks_Phase_5,165,9999,9999,9999,1819542632
625,23,Ticks_Phase_5,166,9999,9999,9999,1820042320
625,23,Ticks_Phase_5,167,9999,9999,9999,1820543104
625,23,Ticks_Phase_5,168,9999,9999,9999,1821042784
625,23,Ticks_Phase_5,169,9999,9999,9999,1821542480
626,22,Ticks_Phase_8,0,5,42,127,1833140544
626,22,Ticks_Phase_8,1,5,42,127,1833941324
626,22,Ticks_Phase_8,2,1,48,32,1834173024
626,22,Ticks_Phase_8,3,5,42,127,1834740960
626,22,Ticks_Phase_8,4,1,48,38,1834839964
626,22,Ticks_Phase_8,5,1,48,43,1835539028
626,22,Ticks_Phase_8,6,5,42,127,1835540840
626,22,Ticks_Phase_8,7,1,48,42,1836281712
626,22,Ticks_Phase_8,8,5,42,127,1836340848
626,22,Ticks_Phase_8,9,1,48,39,1837098888
626,22,Ticks_Phase_8,10,5,42,127,1837141236
626,22,Ticks_Phase_8,11,5,42,127,1837940956
626,22,Ticks_Phase_8,12,1,48,36,1837943472
626,22,Ticks_Phase_8,13,5,42,127,1838740892
626,22,Ticks_Phase_8,14,1,48,47,1838783100
626,22,Ticks_Phase_8,15,1,48,43,1839516748
626,22,Ticks_Phase_8,16,5,42,127,1839540524
626,22,Ticks_Phase_8,17,1,48,39,1840326796
626,22,Ticks_Phase_8,18,5,42,127,1840341356
626,22,Ticks_Phase_8,19,1,48,45,1841104564
626,22,Ticks_Phase_8,20,5,42,127,1841141068
626,22,Ticks_Phase_8,21,1,48,46,1841931716
626,22,Ticks_Phase_8,22,5,42,127,1841940732
626,22,Ticks_Phase_8,23,1,48,42,1842735316
626,22,Ticks_Phase_8,24,5,42,127,1842740664
626,22,Ticks_Phase_8,25,1,48,40,1843517800
626,22,Ticks_Phase_8,26,5,42,127,1843541348
626,22,Ticks_Phase_8,27,5,42,127,1844341144
626,22,Ticks_Phase_8,28,1,48,41,1844356392
626,22,Ticks_Phase_8,29,1,48,44,1845075288
626,22,Ticks_Phase_8,30,5,42,127,1845140700
626,22,Ticks_Phase_8,31,1,48,45,1845919192
626,22,Ticks_Phase_8,32,5,42,127,1845940784
626,22,Ticks_Phase_8,33,5,42,127,1846741324
626,22,Ticks_Phase_8,34,1,48,47,1846746012
626,22,Ticks_Phase_8,35,5,42,127,1847541036
626,22,Ticks_Phase_8,36,1,48,48,1847552620
626,22,Ticks_Phase_8,37,1,48,49,1848321468
626,22,Ticks_Phase_8,38,5,42,127,1848340840
626,22,Ticks_Phase_8,39,5,42,127,1849140780
626,22,Ticks_Phase_8,40,1,48,44,1849145844
626,22,Ticks_Phase_8,41,5,42,127,1849941540
626,22,Ticks_Phase_8,42,1,48,51,1849970572
626,22,Ticks_Phase_8,43,1,48,46,1850608872
626,22,Ticks_Phase_8,44,5,42,127,1850741004
626,22,Ticks_Phase_8,45,1,48,53,1851466556
626,22,Ticks_Phase_8,46,5,42,127,1851540808
626,22,Ticks_Phase_8,47,1,48,50,1852266720
626,22,Ticks_Phase_8,48,5,42,127,1852340664
626,22,Ticks_Phase_8,49,1,48,57,1853082012
626,22,Ticks_Phase_8,50,5,42,127,1853141648
626,22,Ticks_Phase_8,51,1,48,55,1853908080
626,22,Ticks_Phase_8,52,5,42,127,1853941208
626,22,Ticks_Phase_8,53,1,48,52,1854719776
626,22,Ticks_Phase_8,54,5,42,127,1854740872
626,22,Ticks_Phase_8,55,1,48,50,1855540516
626,22,Ticks_Phase_8,56,5,42,127,1855541852
626,22,Ticks_Phase_8,57,5,42,127,1856341644
626,22,Ticks_Phase_8,58,1,48,52,1856348208
626,22,Ticks_Phase_8,59,5,42,127,1857120764
626,22,Ticks_Phase_8,60,1,48,51,1857166940
626,22,Ticks_Phase_8,61,1,48,49,1857894676
626,22,Ticks_Phase_8,62,5,42,127,1857921520
626,22,Ticks_Phase_8,63,1,48,47,1858697680
626,22,Ticks_Phase_8,64,5,42,127,1858721004
626,22,Ticks_Phase_8,65,1,48,53,1859464520
626,22,Ticks_Phase_8,66,5,42,127,1859520792
626,22,Ticks_Phase_8,67,5,42,127,1860320736
626,22,Ticks_Phase_8,68,1,48,51,1860341604
626,22,Ticks_Phase_8,69,1,48,51,1861056300
626,22,Ticks_Phase_8,70,5,42,127,1861121488
626,22,Ticks_Phase_8,71,1,48,52,1861857884
626,22,Ticks_Phase_8,72,5,42,127,1861921076
626,22,Ticks_Phase_8,73,5,42,127,1862720864
626,22,Ticks_Phase_8,74,1,48,51,1862776252
626,22,Ticks_Phase_8,75,1,48,49,1863519448
626,22,Ticks_Phase_8,76,5,42,127,1863520792
626,22,Ticks_Phase_8,77,5,42,127,1864321484
626,22,Ticks_Phase_8,78,1,48,46,1864344676
626,22,Ticks_Phase_8,79,5,42,127,1865121048
626,22,Ticks_Phase_8,80,1,48,49,1865151508
626,22,Ticks_Phase_8,81,1,48,48,1865860064
626,22,Ticks_Phase_8,82,5,42,127,1865920752
626,22,Ticks_Phase_8,83,1,48,44,1866654008
626,22,Ticks_Phase_8,84,5,42,127,1866720540
626,22,Ticks_Phase_8,85,1,48,51,1867425936
626,22,Ticks_Phase_8,86,5,42,127,1867522476
626,22,Ticks_Phase_8,87,1,48,49,1868189708
626,22,Ticks_Phase_8,88,5,42,127,1868321092
626,22,Ticks_Phase_8,89,5,42,127,1869120900
626,22,Ticks_Phase_8,90,1,48,46,1869146784
626,22,Ticks_Phase_8,91,5,42,127,1869920540
626,22,Ticks_Phase_8,92,1,48,46,1869929508
626,22,Ticks_Phase_8,93,5,42,127,1870721520
626,22,Ticks_Phase_8,94,1,48,51,1870731608
626,22,Ticks_Phase_8,95,1,48,31,1871484720
626,22,Ticks_Phase_8,96,5,42,127,1871540548
626,22,Ticks_Phase_8,97,1,48,51,1872312448
626,22,Ticks_Phase_8,98,5,42,127,1872341308
626,22,Ticks_Phase_8,99,5,42,127,1873141176
626,22,Ticks_Phase_8,100,1,48,45,1873167532
626,22,Ticks_Phase_8,101,5,42,127,1873940840
626,22,Ticks_Phase_8,102,1,48,48,1873953616
626,22,Ticks_Phase_8,103,1,48,49,1874678248
626,22,Ticks_Phase_8,104,5,42,127,1874740468
626,22,Ticks_Phase_8,105,5,42,127,1875541456
626,22,Ticks_Phase_8,106,1,48,47,1875569968
626,22,Ticks_Phase_8,107,5,42,127,1876341316
626,22,Ticks_Phase_8,108,1,48,46,1876360392
626,22,Ticks_Phase_8,109,5,42,127,1877140880
626,22,Ticks_Phase_8,110,1,48,38,1877174772
626,22,Ticks_Phase_8,111,5,42,127,1877940516
626,22,Ticks_Phase_8,112,1,48,42,1877949780
626,22,Ticks_Phase_8,113,1,48,49,1878709640
626,22,Ticks_Phase_8,114,5,42,127,1878741416
626,22,Ticks_Phase_8,115,1,48,49,1879517876
626,22,Ticks_Phase_8,116,5,42,127,1879541200
626,22,Ticks_Phase_8,117,1,48,55,1880305532
626,22,Ticks_Phase_8,118,5,42,127,1880340936
626,22,Ticks_Phase_8,119,1,48,40,1881111116
626,22,Ticks_Phase_8,120,5,42,127,1881140724
626,22,Ticks_Phase_8,121,1,48,55,1881925572
626,22,Ticks_Phase_8,122,5,42,127,1881941484
626,22,Ticks_Phase_8,123,5,42,127,1882741348
626,22,Ticks_Phase_8,124,1,48,48,1882772632
626,22,Ticks_Phase_8,125,1,48,58,1883504476
626,22,Ticks_Phase_8,126,5,42,127,1883540832
626,22,Ticks_Phase_8,127,1,48,51,1884348072
626,22,Ticks_Phase_8,128,5,42,127,1884380460
626,22,Ticks_Phase_8,129,5,42,127,1885181376
626,22,Ticks_Phase_8,130,1,48,53,1885209312
626,22,Ticks_Phase_8,131,5,42,127,1885981188
626,22,Ticks_Phase_8,132,1,48,48,1886004896
626,22,Ticks_Phase_8,133,5,42,127,1886780824
626,22,Ticks_Phase_8,134,1,48,51,1886788744
626,22,Ticks_Phase_8,135,5,42,127,1887580536
626,22,Ticks_Phase_8,136,1,48,59,1887581872
626,22,Ticks_Phase_8,137,5,42,127,1888381292
626,22,Ticks_Phase_8,138,1,48,47,1888433244
626,22,Ticks_Phase_8,139,5,42,127,1889181004
626,22,Ticks_Phase_8,140,1,48,54,1889181968
626,22,Ticks_Phase_8,141,5,42,127,1889981016
626,22,Ticks_Phase_8,142,1,48,54,1890000760
626,22,Ticks_Phase_8,143,5,42,127,1890780504
626,22,Ticks_Phase_8,144,1,48,36,1890835840
626,22,Ticks_Phase_8,145,5,42,127,1891581192
626,22,Ticks_Phase_8,146,1,48,61,1891590780
626,22,Ticks_Phase_8,147,5,42,127,1892381148
626,22,Ticks_Phase_8,148,1,48,44,1892392136
626,22,Ticks_Phase_8,149,5,42,127,1893180640
626,22,Ticks_Phase_8,150,1,48,51,1893222024
626,22,Ticks_Phase_8,151,5,42,127,1893980576
626,22,Ticks_Phase_8,152,1,48,58,1894038820
626,22,Ticks_Phase_8,153,5,42,127,1894781260
626,22,Ticks_Phase_8,154,1,48,55,1894784824
626,22,Ticks_Phase_8,155,1,48,46,1895540952
626,22,Ticks_Phase_8,156,5,42,127,1895581188
626,22,Ticks_Phase_8,157,1,48,43,1896357352
626,22,Ticks_Phase_8,158,5,42,127,1896381048
626,22,Ticks_Phase_8,159,5,42,127,1897180472
626,22,Ticks_Phase_8,160,1,48,58,1897206128
626,22,Ticks_Phase_8,161,5,42,127,1897941316
626,22,Ticks_Phase_8,162,1,48,52,1897984868
626,22,Ticks_Phase_8,163,1,48,48,1898659444
626,22,Ticks_Phase_8,164,5,42,127,1898741244
626,22,Ticks_Phase_8,165,1,48,51,1899442976
626,22,Ticks_Phase_8,166,1,48,22,1899512824
626,22,Ticks_Phase_8,167,5,42,127,1899540960
626,22,Ticks_Phase_8,168,1,48,48,1900269784
626,22,Ticks_Phase_8,169,5,42,127,1900340524
626,22,Ticks_Phase_8,170,1,48,53,1901061132
626,22,Ticks_Phase_8,171,5,42,127,1901141284
626,22,Ticks_Phase_8,172,5,42,127,1901941152
626,22,Ticks_Phase_8,173,1,48,43,1902013092
626,22,Ticks_Phase_8,174,1,48,46,1902738668
626,22,Ticks_Phase_8,175,5,42,127,1902740856
626,22,Ticks_Phase_8,176,5,42,127,1903540576
626,22,Ticks_Phase_8,177,1,48,48,1903553804
626,22,Ticks_Phase_8,178,5,42,127,1904341256
626,22,Ticks_Phase_8,179,1,48,43,1904345348
626,22,Ticks_Phase_8,180,5,42,127,1905141044
626,22,Ticks_Phase_8,181,1,48,49,1905192492
626,22,Ticks_Phase_8,182,5,42,127,1905940780
626,22,Ticks_Phase_8,183,1,48,44,1905962620
626,22,Ticks_Phase_8,184,1,48,49,1906714612
626,22,Ticks_Phase_8,185,5,42,127,1906740560
626,22,Ticks_Phase_8,186,5,42,127,1907541324
626,22,Ticks_Phase_8,187,1,48,47,1907577020
626,22,Ticks_Phase_8,188,1,48,48,1908311572
626,22,Ticks_Phase_8,189,5,42,127,1908341180
626,22,Ticks_Phase_8,190,1,48,49,1909118464
626,22,Ticks_Phase_8,191,5,42,127,1909140816
626,22,Ticks_Phase_8,192,5,42,127,1909940536
626,22,Ticks_Phase_8,193,1,48,35,1909957352
626,22,Ticks_Phase_8,194,5,42,127,1910660788
626,22,Ticks_Phase_8,195,1,48,56,1910770256
626,22,Ticks_Phase_8,196,1,48,42,1911355844
626,22,Ticks_Phase_8,197,5,42,127,1911461156
626,22,Ticks_Phase_8,198,1,48,51,1912130548
626,22,Ticks_Phase_8,199,5,42,127,1912261088
626,22,Ticks_Phase_8,200,1,48,42,1912979988
626,22,Ticks_Phase_8,201,5,42,127,1913060744
626,22,Ticks_Phase_8,202,1,48,51,1913757824
626,22,Ticks_Phase_8,203,5,42,127,1913860764
626,22,Ticks_Phase_8,204,1,48,48,1914554544
626,22,Ticks_Phase_8,205,5,42,127,1914661300
626,22,Ticks_Phase_8,206,1,48,52,1915456652
626,22,Ticks_Phase_8,207,5,42,127,1915460952
626,22,Ticks_Phase_8,208,5,42,127,1916260820
626,22,Ticks_Phase_8,209,1,48,51,1916278384
626,22,Ticks_Phase_8,210,5,42,127,1917060604
626,22,Ticks_Phase_8,211,1,48,50,1917081104
626,22,Ticks_Phase_8,212,5,42,127,1917861364
626,22,Ticks_Phase_8,213,1,48,55,1917948724
626,22,Ticks_Phase_8,214,5,42,127,1918660852
626,22,Ticks_Phase_8,215,1,48,53,1918775724
626,22,Ticks_Phase_8,216,1,48,46,1919444868
626,22,Ticks_Phase_8,217,5,42,127,1919460708
626,22,Ticks_Phase_8,218,1,48,48,1920214404
626,22,Ticks_Phase_8,219,5,42,127,1920260592
626,22,Ticks_Phase_8,220,1,48,45,1920953232
626,22,Ticks_Phase_8,221,5,42,127,1921061188
626,22,Ticks_Phase_8,222,1,48,37,1921728988
626,22,Ticks_Phase_8,223,5,42,127,1921861048
626,22,Ticks_Phase_8,224,1,48,34,1922526220
626,22,Ticks_Phase_8,225,5,42,127,1922660760
626,22,Ticks_Phase_8,226,1,48,35,1923349028
626,22,Ticks_Phase_8,227,5,42,127,1923460548
626,22,Ticks_Phase_8,228,1,48,54,1924156968
626,22,Ticks_Phase_8,229,5,42,127,1924341136
626,22,Ticks_Phase_8,230,1,48,46,1925051344
626,22,Ticks_Phase_8,231,5,42,127,1925140812
626,22,Ticks_Phase_8,232,1,48,52,1925888132
626,22,Ticks_Phase_8,233,5,42,127,1925940748
626,22,Ticks_Phase_8,234,1,48,43,1926720816
626,22,Ticks_Phase_8,235,5,42,127,1926741432
626,22,Ticks_Phase_8,236,1,48,42,1927512512
626,22,Ticks_Phase_8,237,5,42,127,1927541220
626,22,Ticks_Phase_8,238,1,48,42,1928337076
626,22,Ticks_Phase_8,239,5,42,127,1928340784
626,22,Ticks_Phase_8,240,1,48,46,1929128920
626,22,Ticks_Phase_8,241,5,42,127,1929140568
626,22,Ticks_Phase_8,242,1,48,54,1929935752
626,22,Ticks_Phase_8,243,5,42,127,1929941480
626,22,Ticks_Phase_8,244,5,42,127,1930741272
626,22,Ticks_Phase_8,245,1,48,45,1930779848
626,22,Ticks_Phase_8,246,1,48,49,1931526444
626,22,Ticks_Phase_8,247,5,42,127,1931540780
626,22,Ticks_Phase_8,248,1,48,36,1932272812
626,22,Ticks_Phase_8,249,5,42,127,1932340640
626,22,Ticks_Phase_8,250,1,48,52,1933070680
626,22,Ticks_Phase_8,251,5,42,127,1933141396
626,22,Ticks_Phase_8,252,1,48,49,1933875252
626,22,Ticks_Phase_8,253,5,42,127,1933941260
626,22,Ticks_Phase_8,254,5,42,127,1934740976
626,22,Ticks_Phase_8,255,1,48,49,1934764316
626,22,Ticks_Phase_8,256,5,42,127,1935540544
626,22,Ticks_Phase_8,257,1,48,50,1935608284
626,22,Ticks_Phase_8,258,1,48,47,1936273116
626,22,Ticks_Phase_8,259,5,42,127,1936341516
626,22,Ticks_Phase_8,260,1,48,38,1937114464
626,22,Ticks_Phase_8,261,5,42,127,1937141080
626,22,Ticks_Phase_8,262,1,48,42,1937929412
626,22,Ticks_Phase_8,263,5,42,127,1938100464
626,22,Ticks_Phase_8,264,5,42,127,1938901316
626,22,Ticks_Phase_8,265,1,48,48,1938985856
626,22,Ticks_Phase_8,266,1,48,49,1939565216
626,22,Ticks_Phase_8,267,5,42,127,1939701080
626,22,Ticks_Phase_8,268,1,48,50,1940407236
626,22,Ticks_Phase_8,269,5,42,127,1940500832
626,22,Ticks_Phase_8,270,1,48,48,1941152656
626,22,Ticks_Phase_8,271,5,42,127,1941300528
626,22,Ticks_Phase_8,272,1,48,50,1941926380
626,22,Ticks_Phase_8,273,5,42,127,1942101436
626,22,Ticks_Phase_8,274,1,48,46,1942751856
626,22,Ticks_Phase_8,275,5,42,127,1942901296
626,22,Ticks_Phase_8,276,1,48,45,1943592332
626,22,Ticks_Phase_8,277,5,42,127,1943700784
626,22,Ticks_Phase_8,278,1,48,46,1944338804
626,22,Ticks_Phase_8,279,5,42,127,1944500644
626,22,Ticks_Phase_8,280,1,48,51,1945225672
626,22,Ticks_Phase_8,281,5,42,127,1945301344
626,22,Ticks_Phase_8,282,5,42,127,1946101136
626,22,Ticks_Phase_8,283,1,48,51,1946136472
626,22,Ticks_Phase_8,284,1,48,47,1946851612
626,22,Ticks_Phase_8,285,5,42,127,1946900940
626,22,Ticks_Phase_8,286,1,48,41,1947614476
626,22,Ticks_Phase_8,287,5,42,127,1947700576
626,22,Ticks_Phase_8,288,1,48,47,1948463932
626,22,Ticks_Phase_8,289,5,42,127,1948501484
626,22,Ticks_Phase_8,290,5,42,127,1949301276
626,22,Ticks_Phase_8,291,1,48,43,1949355392
626,22,Ticks_Phase_8,292,1,48,41,1950038876
626,22,Ticks_Phase_8,293,5,42,127,1950100980
626,22,Ticks_Phase_8,294,1,48,30,1950884036
626,22,Ticks_Phase_8,295,5,42,127,1950900620
626,22,Ticks_Phase_8,296,1,48,49,1951639396
626,22,Ticks_Phase_8,297,5,42,127,1951701352
626,22,Ticks_Phase_8,298,1,48,43,1952436704
626,22,Ticks_Phase_8,299,5,42,127,1952501288
626,22,Ticks_Phase_8,300,5,42,127,1953141052
626,22,Ticks_Phase_8,301,1,48,43,1953312688
626,22,Ticks_Phase_8,302,1,48,37,1953670056
626,22,Ticks_Phase_8,303,5,42,127,1953940816
626,22,Ticks_Phase_8,304,1,48,26,1954270096
626,22,Ticks_Phase_8,305,5,42,127,1954740452
626,22,Ticks_Phase_8,306,1,48,34,1954754652
626,22,Ticks_Phase_8,307,1,48,32,1955348944
626,22,Ticks_Phase_8,308,5,42,127,1955541264
626,22,Ticks_Phase_8,309,1,48,38,1956208704
626,22,Ticks_Phase_8,310,5,42,127,1956341124
626,22,Ticks_Phase_8,311,5,42,127,1957141032
626,22,Ticks_Phase_8,312,1,48,50,1957886180
626,22,Ticks_Phase_8,313,5,42,127,1957940460
626,22,Ticks_Phase_8,314,1,48,40,1958618880
626,22,Ticks_Phase_8,315,5,42,127,1958741276
626,22,Ticks_Phase_8,316,1,48,35,1959417008
626,22,Ticks_Phase_8,317,5,42,127,1959541140
626,22,Ticks_Phase_8,318,1,48,44,1960228792
626,22,Ticks_Phase_8,319,5,42,127,1960340924
626,22,Ticks_Phase_8,320,1,48,50,1961072620
626,22,Ticks_Phase_8,321,5,42,127,1961140576
626,22,Ticks_Phase_8,322,5,42,127,1961941340
626,22,Ticks_Phase_8,323,1,48,46,1961944236
626,22,Ticks_Phase_8,324,1,48,51,1962682228
626,22,Ticks_Phase_8,325,5,42,127,1962740972
626,22,Ticks_Phase_8,326,1,48,49,1963495644
626,22,Ticks_Phase_8,327,5,42,127,1963540856
626,22,Ticks_Phase_8,328,1,48,27,1964308868
626,22,Ticks_Phase_8,329,5,42,127,1964340492
626,22,Ticks_Phase_8,330,5,42,127,1965141484
626,22,Ticks_Phase_8,331,1,48,53,1965172088
626,22,Ticks_Phase_8,332,1,48,53,1965909028
626,22,Ticks_Phase_8,333,5,42,127,1965941040
626,22,Ticks_Phase_8,334,1,48,33,1966734580
626,22,Ticks_Phase_8,335,5,42,127,1966740972
626,22,Ticks_Phase_8,336,1,48,38,1967495496
626,22,Ticks_Phase_8,337,5,42,127,1967540464
626,22,Ticks_Phase_8,338,1,48,44,1968321796
626,22,Ticks_Phase_8,339,5,42,127,1968341368
626,22,Ticks_Phase_8,0,9999,9999,9999,1833138260
626,22,Ticks_Phase_8,1,9999,9999,9999,1833939040
626,22,Ticks_Phase_8,2,9999,9999,9999,1834738748
626,22,Ticks_Phase_8,3,9999,9999,9999,1835538504
626,22,Ticks_Phase_8,4,9999,9999,9999,1836338264
626,22,Ticks_Phase_8,5,9999,9999,9999,1837139024
626,22,Ticks_Phase_8,6,9999,9999,9999,1837938744
626,22,Ticks_Phase_8,7,9999,9999,9999,1838738532
626,22,Ticks_Phase_8,8,9999,9999,9999,1839538236
626,22,Ticks_Phase_8,9,9999,9999,9999,1840339068
626,22,Ticks_Phase_8,10,9999,9999,9999,1841138780
626,22,Ticks_Phase_8,11,9999,9999,9999,1841938520
626,22,Ticks_Phase_8,12,9999,9999,9999,1842738232
626,22,Ticks_Phase_8,13,9999,9999,9999,1843539064
626,22,Ticks_Phase_8,14,9999,9999,9999,1844338780
626,22,Ticks_Phase_8,15,9999,9999,9999,1845138488
626,22,Ticks_Phase_8,16,9999,9999,9999,1845938276
626,22,Ticks_Phase_8,17,9999,9999,9999,1846739040
626,22,Ticks_Phase_8,18,9999,9999,9999,1847538752
626,22,Ticks_Phase_8,19,9999,9999,9999,1848338552
626,22,Ticks_Phase_8,20,9999,9999,9999,1849138272
626,22,Ticks_Phase_8,21,9999,9999,9999,1849939028
626,22,Ticks_Phase_8,22,9999,9999,9999,1850738792
626,22,Ticks_Phase_8,23,9999,9999,9999,1851538520
626,22,Ticks_Phase_8,24,9999,9999,9999,1852338232
626,22,Ticks_Phase_8,25,9999,9999,9999,1853139064
626,22,Ticks_Phase_8,26,9999,9999,9999,1853938776
626,22,Ticks_Phase_8,27,9999,9999,9999,1854738512
626,22,Ticks_Phase_8,28,9999,9999,9999,1855538304
626,22,Ticks_Phase_8,29,9999,9999,9999,1856339060
626,22,Ticks_Phase_8,30,9999,9999,9999,1857118328
626,22,Ticks_Phase_8,31,9999,9999,9999,1857919084
626,22,Ticks_Phase_8,32,9999,9999,9999,1858718796
626,22,Ticks_Phase_8,33,9999,9999,9999,1859518580
626,22,Ticks_Phase_8,34,9999,9999,9999,1860318300
626,22,Ticks_Phase_8,35,9999,9999,9999,1861119052
626,22,Ticks_Phase_8,36,9999,9999,9999,1861918788
626,22,Ticks_Phase_8,37,9999,9999,9999,1862718580
626,22,Ticks_Phase_8,38,9999,9999,9999,1863518292
626,22,Ticks_Phase_8,39,9999,9999,9999,1864319048
626,22,Ticks_Phase_8,40,9999,9999,9999,1865118836
626,22,Ticks_Phase_8,41,9999,9999,9999,1865918540
626,22,Ticks_Phase_8,42,9999,9999,9999,1866718328
626,22,Ticks_Phase_8,43,9999,9999,9999,1867519084
626,22,Ticks_Phase_8,44,9999,9999,9999,1868318804
626,22,Ticks_Phase_8,45,9999,9999,9999,1869118540
626,22,Ticks_Phase_8,46,9999,9999,9999,1869918328
626,22,Ticks_Phase_8,47,9999,9999,9999,1870719084
626,22,Ticks_Phase_8,48,9999,9999,9999,1871538264
626,22,Ticks_Phase_8,49,9999,9999,9999,1872339020
626,22,Ticks_Phase_8,50,9999,9999,9999,1873138816
626,22,Ticks_Phase_8,51,9999,9999,9999,1873938552
626,22,Ticks_Phase_8,52,9999,9999,9999,1874738256
626,22,Ticks_Phase_8,53,9999,9999,9999,1875539020
626,22,Ticks_Phase_8,54,9999,9999,9999,1876338804
626,22,Ticks_Phase_8,55,9999,9999,9999,1877138516
626,22,Ticks_Phase_8,56,9999,9999,9999,1877938232
626,22,Ticks_Phase_8,57,9999,9999,9999,1878739056
626,22,Ticks_Phase_8,58,9999,9999,9999,1879538768
626,22,Ticks_Phase_8,59,9999,9999,9999,1880338504
626,22,Ticks_Phase_8,60,9999,9999,9999,1881138288
626,22,Ticks_Phase_8,61,9999,9999,9999,1881939048
626,22,Ticks_Phase_8,62,9999,9999,9999,1882738764
626,22,Ticks_Phase_8,63,9999,9999,9999,1883538544
626,22,Ticks_Phase_8,64,9999,9999,9999,1884378172
626,22,Ticks_Phase_8,65,9999,9999,9999,1885178940
626,22,Ticks_Phase_8,66,9999,9999,9999,1885978752
626,22,Ticks_Phase_8,67,9999,9999,9999,1886778464
626,22,Ticks_Phase_8,68,9999,9999,9999,1887578176
626,22,Ticks_Phase_8,69,9999,9999,9999,1888379004
626,22,Ticks_Phase_8,70,9999,9999,9999,1889178716
626,22,Ticks_Phase_8,71,9999,9999,9999,1889978432
626,22,Ticks_Phase_8,72,9999,9999,9999,1890778216
626,22,Ticks_Phase_8,73,9999,9999,9999,1891578976
626,22,Ticks_Phase_8,74,9999,9999,9999,1892378716
626,22,Ticks_Phase_8,75,9999,9999,9999,1893178428
626,22,Ticks_Phase_8,76,9999,9999,9999,1893978216
626,22,Ticks_Phase_8,77,9999,9999,9999,1894778972
626,22,Ticks_Phase_8,78,9999,9999,9999,1895578680
626,22,Ticks_Phase_8,79,9999,9999,9999,1896378464
626,22,Ticks_Phase_8,80,9999,9999,9999,1897178184
626,22,Ticks_Phase_8,81,9999,9999,9999,1897939028
626,22,Ticks_Phase_8,82,9999,9999,9999,1898738808
626,22,Ticks_Phase_8,83,9999,9999,9999,1899538528
626,22,Ticks_Phase_8,84,9999,9999,9999,1900338240
626,22,Ticks_Phase_8,85,9999,9999,9999,1901139072
626,22,Ticks_Phase_8,86,9999,9999,9999,1901938788
626,22,Ticks_Phase_8,87,9999,9999,9999,1902738532
626,22,Ticks_Phase_8,88,9999,9999,9999,1903538288
626,22,Ticks_Phase_8,89,9999,9999,9999,1904339044
626,22,Ticks_Phase_8,90,9999,9999,9999,1905138756
626,22,Ticks_Phase_8,91,9999,9999,9999,1905938492
626,22,Ticks_Phase_8,92,9999,9999,9999,1906738272
626,22,Ticks_Phase_8,93,9999,9999,9999,1907539036
626,22,Ticks_Phase_8,94,9999,9999,9999,1908338744
626,22,Ticks_Phase_8,95,9999,9999,9999,1909138532
626,22,Ticks_Phase_8,96,9999,9999,9999,1909938248
626,22,Ticks_Phase_8,97,9999,9999,9999,1910658132
626,22,Ticks_Phase_8,98,9999,9999,9999,1911458944
626,22,Ticks_Phase_8,99,9999,9999,9999,1912258652
626,22,Ticks_Phase_8,100,9999,9999,9999,1913058380
626,22,Ticks_Phase_8,101,9999,9999,9999,1913858104
626,22,Ticks_Phase_8,102,9999,9999,9999,1914658936
626,22,Ticks_Phase_8,103,9999,9999,9999,1915458664
626,22,Ticks_Phase_8,104,9999,9999,9999,1916258384
626,22,Ticks_Phase_8,105,9999,9999,9999,1917058168
626,22,Ticks_Phase_8,106,9999,9999,9999,1917858928
626,22,Ticks_Phase_8,107,9999,9999,9999,1918658640
626,22,Ticks_Phase_8,108,9999,9999,9999,1919458420
626,22,Ticks_Phase_8,109,9999,9999,9999,1920258156
626,22,Ticks_Phase_8,110,9999,9999,9999,1921058900
626,22,Ticks_Phase_8,111,9999,9999,9999,1921858684
626,22,Ticks_Phase_8,112,9999,9999,9999,1922658400
626,22,Ticks_Phase_8,113,9999,9999,9999,1923458112
626,22,Ticks_Phase_8,114,9999,9999,9999,1924338772
626,22,Ticks_Phase_8,115,9999,9999,9999,1925138528
626,22,Ticks_Phase_8,116,9999,9999,9999,1925938240
626,22,Ticks_Phase_8,117,9999,9999,9999,1926738996
626,22,Ticks_Phase_8,118,9999,9999,9999,1927538784
626,22,Ticks_Phase_8,119,9999,9999,9999,1928338496
626,22,Ticks_Phase_8,120,9999,9999,9999,1929138284
626,22,Ticks_Phase_8,121,9999,9999,9999,1929939044
626,22,Ticks_Phase_8,122,9999,9999,9999,1930738764
626,22,Ticks_Phase_8,123,9999,9999,9999,1931538492
626,22,Ticks_Phase_8,124,9999,9999,9999,1932338280
626,22,Ticks_Phase_8,125,9999,9999,9999,1933139036
626,22,Ticks_Phase_8,126,9999,9999,9999,1933938748
626,22,Ticks_Phase_8,127,9999,9999,9999,1934738540
626,22,Ticks_Phase_8,128,9999,9999,9999,1935538256
626,22,Ticks_Phase_8,129,9999,9999,9999,1936339008
626,22,Ticks_Phase_8,130,9999,9999,9999,1937138792
626,22,Ticks_Phase_8,131,9999,9999,9999,1938098248
626,22,Ticks_Phase_8,132,9999,9999,9999,1938899032
626,22,Ticks_Phase_8,133,9999,9999,9999,1939698796
626,22,Ticks_Phase_8,134,9999,9999,9999,1940498544
626,22,Ticks_Phase_8,135,9999,9999,9999,1941298240
626,22,Ticks_Phase_8,136,9999,9999,9999,1942099000
626,22,Ticks_Phase_8,137,9999,9999,9999,1942898784
626,22,Ticks_Phase_8,138,9999,9999,9999,1943698496
626,22,Ticks_Phase_8,139,9999,9999,9999,1944498284
626,22,Ticks_Phase_8,140,9999,9999,9999,1945299056
626,22,Ticks_Phase_8,141,9999,9999,9999,1946098776
626,22,Ticks_Phase_8,142,9999,9999,9999,1946898504
626,22,Ticks_Phase_8,143,9999,9999,9999,1947698288
626,22,Ticks_Phase_8,144,9999,9999,9999,1948499048
626,22,Ticks_Phase_8,145,9999,9999,9999,1949298768
626,22,Ticks_Phase_8,146,9999,9999,9999,1950098548
626,22,Ticks_Phase_8,147,9999,9999,9999,1950898260
626,22,Ticks_Phase_8,148,9999,9999,9999,1951699064
626,22,Ticks_Phase_8,149,9999,9999,9999,1952498780
626,22,Ticks_Phase_8,150,9999,9999,9999,1953138764
626,22,Ticks_Phase_8,151,9999,9999,9999,1953938528
626,22,Ticks_Phase_8,152,9999,9999,9999,1954738240
626,22,Ticks_Phase_8,153,9999,9999,9999,1955539052
626,22,Ticks_Phase_8,154,9999,9999,9999,1956338760
626,22,Ticks_Phase_8,155,9999,9999,9999,1957138520
626,22,Ticks_Phase_8,156,9999,9999,9999,1957938248
626,22,Ticks_Phase_8,157,9999,9999,9999,1958739064
626,22,Ticks_Phase_8,158,9999,9999,9999,1959538776
626,22,Ticks_Phase_8,159,9999,9999,9999,1960338488
626,22,Ticks_Phase_8,160,9999,9999,9999,1961138288
626,22,Ticks_Phase_8,161,9999,9999,9999,1961939056
626,22,Ticks_Phase_8,162,9999,9999,9999,1962738760
626,22,Ticks_Phase_8,163,9999,9999,9999,1963538496
626,22,Ticks_Phase_8,164,9999,9999,9999,1964338284
626,22,Ticks_Phase_8,165,9999,9999,9999,1965139048
626,22,Ticks_Phase_8,166,9999,9999,9999,1965938752
626,22,Ticks_Phase_8,167,9999,9999,9999,1966738540
626,22,Ticks_Phase_8,168,9999,9999,9999,1967538252
626,22,Ticks_Phase_8,169,9999,9999,9999,1968339008
627,10,Ticks_ISO_T2_5,0,5,42,127,1980089856
627,10,Ticks_ISO_T2_5,1,5,42,127,1980589424
627,10,Ticks_ISO_T2_5,2,1,48,27,1980991412
627,10,Ticks_ISO_T2_5,3,5,42,127,1981090168
627,10,Ticks_ISO_T2_5,4,1,48,43,1981551024
627,10,Ticks_ISO_T2_5,5,5,42,127,1981589804
627,10,Ticks_ISO_T2_5,6,1,48,40,1982068144
627,10,Ticks_ISO_T2_5,7,5,42,127,1982089868
627,10,Ticks_ISO_T2_5,8,1,48,43,1982552804
627,10,Ticks_ISO_T2_5,9,5,42,127,1982590316
627,10,Ticks_ISO_T2_5,10,1,48,49,1983041584
627,10,Ticks_ISO_T2_5,11,5,42,127,1983090012
627,10,Ticks_ISO_T2_5,12,1,48,46,1983580992
627,10,Ticks_ISO_T2_5,13,5,42,127,1983589856
627,10,Ticks_ISO_T2_5,14,1,48,48,1984027808
627,10,Ticks_ISO_T2_5,15,5,42,127,1984089772
627,10,Ticks_ISO_T2_5,16,1,48,43,1984580456
627,10,Ticks_ISO_T2_5,17,5,42,127,1984590288
627,10,Ticks_ISO_T2_5,18,1,48,49,1985031084
627,10,Ticks_ISO_T2_5,19,5,42,127,1985089836
627,10,Ticks_ISO_T2_5,20,1,48,46,1985555688
627,10,Ticks_ISO_T2_5,21,5,42,127,1985589756
627,10,Ticks_ISO_T2_5,22,1,48,49,1986009060
627,10,Ticks_ISO_T2_5,23,5,42,127,1986090424
627,10,Ticks_ISO_T2_5,24,1,48,46,1986523192
627,10,Ticks_ISO_T2_5,25,1,48,29,1986569720
627,10,Ticks_ISO_T2_5,26,5,42,127,1986590024
627,10,Ticks_ISO_T2_5,27,1,48,48,1987002292
627,10,Ticks_ISO_T2_5,28,1,48,30,1987051260
627,10,Ticks_ISO_T2_5,29,5,42,127,1987089916
627,10,Ticks_ISO_T2_5,30,1,48,46,1987521640
627,10,Ticks_ISO_T2_5,31,5,42,127,1987589760
627,10,Ticks_ISO_T2_5,32,1,48,48,1988054168
627,10,Ticks_ISO_T2_5,33,5,42,127,1988090180
627,10,Ticks_ISO_T2_5,34,1,48,31,1988107744
627,10,Ticks_ISO_T2_5,35,1,48,49,1988569252
627,10,Ticks_ISO_T2_5,36,5,42,127,1988590076
627,10,Ticks_ISO_T2_5,37,1,48,32,1988618036
627,10,Ticks_ISO_T2_5,38,1,48,50,1989080292
627,10,Ticks_ISO_T2_5,39,5,42,127,1989089676
627,10,Ticks_ISO_T2_5,40,1,48,47,1989546252
627,10,Ticks_ISO_T2_5,41,5,42,127,1989590416
627,10,Ticks_ISO_T2_5,42,1,48,50,1990080580
627,10,Ticks_ISO_T2_5,43,5,42,127,1990089964
627,10,Ticks_ISO_T2_5,44,1,48,47,1990574216
627,10,Ticks_ISO_T2_5,45,5,42,127,1990589732
627,10,Ticks_ISO_T2_5,46,1,48,47,1991044736
627,10,Ticks_ISO_T2_5,47,5,42,127,1991089652
627,10,Ticks_ISO_T2_5,48,5,42,127,1991590176
627,10,Ticks_ISO_T2_5,49,1,48,43,1991634804
627,10,Ticks_ISO_T2_5,50,1,48,45,1992051384
627,10,Ticks_ISO_T2_5,51,5,42,127,1992089864
627,10,Ticks_ISO_T2_5,52,1,48,47,1992566484
627,10,Ticks_ISO_T2_5,53,5,42,127,1992589708
627,10,Ticks_ISO_T2_5,54,1,48,46,1993065660
627,10,Ticks_ISO_T2_5,55,5,42,127,1993090376
627,10,Ticks_ISO_T2_5,56,1,48,43,1993532520
627,10,Ticks_ISO_T2_5,57,5,42,127,1993590220
627,10,Ticks_ISO_T2_5,58,1,48,47,1994089472
627,10,Ticks_ISO_T2_5,59,5,42,127,1994090812
627,10,Ticks_ISO_T2_5,60,1,48,47,1994561604
627,10,Ticks_ISO_T2_5,61,5,42,127,1994589464
627,10,Ticks_ISO_T2_5,62,1,48,46,1995077452
627,10,Ticks_ISO_T2_5,63,5,42,127,1995090428
627,10,Ticks_ISO_T2_5,64,1,48,45,1995565480
627,10,Ticks_ISO_T2_5,65,5,42,127,1995589972
627,10,Ticks_ISO_T2_5,66,1,48,51,1996050664
627,10,Ticks_ISO_T2_5,67,5,42,127,1996089668
627,10,Ticks_ISO_T2_5,68,1,48,48,1996548036
627,10,Ticks_ISO_T2_5,69,5,42,127,1996589364
627,10,Ticks_ISO_T2_5,70,1,48,47,1997075484
627,10,Ticks_ISO_T2_5,71,5,42,127,1997090180
627,10,Ticks_ISO_T2_5,72,1,48,47,1997546424
627,10,Ticks_ISO_T2_5,73,5,42,127,1997589724
627,10,Ticks_ISO_T2_5,74,1,48,48,1998078684
627,10,Ticks_ISO_T2_5,75,5,42,127,1998089568
627,10,Ticks_ISO_T2_5,76,1,48,44,1998549636
627,10,Ticks_ISO_T2_5,77,5,42,127,1998590456
627,10,Ticks_ISO_T2_5,78,1,48,44,1999086424
627,10,Ticks_ISO_T2_5,79,5,42,127,1999089976
627,10,Ticks_ISO_T2_5,80,1,48,48,1999559796
627,10,Ticks_ISO_T2_5,81,5,42,127,1999589820
627,10,Ticks_ISO_T2_5,82,1,48,44,2000054400
627,10,Ticks_ISO_T2_5,83,5,42,127,2000089516
627,10,Ticks_ISO_T2_5,84,1,48,43,2000578404
627,10,Ticks_ISO_T2_5,85,5,42,127,2000590332
627,10,Ticks_ISO_T2_5,86,1,48,45,2001054388
627,10,Ticks_ISO_T2_5,87,5,42,127,2001089804
627,10,Ticks_ISO_T2_5,88,1,48,48,2001553712
627,10,Ticks_ISO_T2_5,89,5,42,127,2001589500
627,10,Ticks_ISO_T2_5,90,1,48,48,2002078312
627,10,Ticks_ISO_T2_5,91,5,42,127,2002090392
627,10,Ticks_ISO_T2_5,92,1,48,45,2002569412
627,10,Ticks_ISO_T2_5,93,5,42,127,2002590312
627,10,Ticks_ISO_T2_5,94,1,48,45,2003042024
627,10,Ticks_ISO_T2_5,95,5,42,127,2003089708
627,10,Ticks_ISO_T2_5,96,1,48,47,2003560420
627,10,Ticks_ISO_T2_5,97,5,42,127,2003589476
627,10,Ticks_ISO_T2_5,98,1,48,49,2004044776
627,10,Ticks_ISO_T2_5,99,5,42,127,2004090368
627,10,Ticks_ISO_T2_5,100,1,48,48,2004555468
627,10,Ticks_ISO_T2_5,101,5,42,127,2004589840
627,10,Ticks_ISO_T2_5,102,1,48,50,2005074684
627,10,Ticks_ISO_T2_5,103,5,42,127,2005089608
627,10,Ticks_ISO_T2_5,104,1,48,47,2005547232
627,10,Ticks_ISO_T2_5,105,5,42,127,2005590572
627,10,Ticks_ISO_T2_5,106,1,48,51,2006068768
627,10,Ticks_ISO_T2_5,107,5,42,127,2006090264
627,10,Ticks_ISO_T2_5,108,1,48,52,2006566292
627,10,Ticks_ISO_T2_5,109,5,42,127,2006589664
627,10,Ticks_ISO_T2_5,110,1,48,50,2007034840
627,10,Ticks_ISO_T2_5,111,5,42,127,2007089432
627,10,Ticks_ISO_T2_5,112,1,48,47,2007554088
627,10,Ticks_ISO_T2_5,113,5,42,127,2007590396
627,10,Ticks_ISO_T2_5,114,1,48,48,2008046048
627,10,Ticks_ISO_T2_5,115,5,42,127,2008090164
627,10,Ticks_ISO_T2_5,116,1,48,51,2008539912
627,10,Ticks_ISO_T2_5,117,5,42,127,2008589560
627,10,Ticks_ISO_T2_5,118,1,48,44,2009044688
627,10,Ticks_ISO_T2_5,119,5,42,127,2009090528
627,10,Ticks_ISO_T2_5,120,1,48,47,2009541992
627,10,Ticks_ISO_T2_5,121,5,42,127,2009590344
627,10,Ticks_ISO_T2_5,122,1,48,46,2010038020
627,10,Ticks_ISO_T2_5,123,5,42,127,2010089816
627,10,Ticks_ISO_T2_5,124,1,48,47,2010527320
627,10,Ticks_ISO_T2_5,125,5,42,127,2010589512
627,10,Ticks_ISO_T2_5,126,1,48,37,2011046756
627,10,Ticks_ISO_T2_5,127,5,42,127,2011090328
627,10,Ticks_ISO_T2_5,128,1,48,46,2011579216
627,10,Ticks_ISO_T2_5,129,5,42,127,2011590244
627,10,Ticks_ISO_T2_5,130,1,48,48,2012031116
627,10,Ticks_ISO_T2_5,131,5,42,127,2012089640
627,10,Ticks_ISO_T2_5,132,1,48,46,2012560952
627,10,Ticks_ISO_T2_5,133,5,42,127,2012589336
627,10,Ticks_ISO_T2_5,134,1,48,44,2012997748
627,10,Ticks_ISO_T2_5,135,5,42,127,2013090304
627,10,Ticks_ISO_T2_5,136,1,48,49,2013536636
627,10,Ticks_ISO_T2_5,137,5,42,127,2013589776
627,10,Ticks_ISO_T2_5,138,1,48,50,2014034160
627,10,Ticks_ISO_T2_5,139,5,42,127,2014089468
627,10,Ticks_ISO_T2_5,140,1,48,47,2014534076
627,10,Ticks_ISO_T2_5,141,5,42,127,2014590436
627,10,Ticks_ISO_T2_5,142,1,48,48,2015037136
627,10,Ticks_ISO_T2_5,143,5,42,127,2015090204
627,10,Ticks_ISO_T2_5,144,1,48,47,2015556880
627,10,Ticks_ISO_T2_5,145,5,42,127,2015589824
627,10,Ticks_ISO_T2_5,146,1,48,49,2016051936
627,10,Ticks_ISO_T2_5,147,5,42,127,2016089372
627,10,Ticks_ISO_T2_5,148,1,48,52,2016544224
627,10,Ticks_ISO_T2_5,149,5,42,127,2016590260
627,10,Ticks_ISO_T2_5,150,1,48,51,2017043396
627,10,Ticks_ISO_T2_5,151,5,42,127,2017090104
627,10,Ticks_ISO_T2_5,152,1,48,51,2017540996
627,10,Ticks_ISO_T2_5,153,5,42,127,2017589576
627,10,Ticks_ISO_T2_5,154,1,48,52,2018017780
627,10,Ticks_ISO_T2_5,155,5,42,127,2018090320
627,10,Ticks_ISO_T2_5,156,1,48,54,2018545596
627,10,Ticks_ISO_T2_5,157,5,42,127,2018590236
627,10,Ticks_ISO_T2_5,158,1,48,51,2019052624
627,10,Ticks_ISO_T2_5,159,5,42,127,2019089632
627,10,Ticks_ISO_T2_5,160,1,48,51,2019546712
627,10,Ticks_ISO_T2_5,161,5,42,127,2019589480
627,10,Ticks_ISO_T2_5,162,1,48,49,2020046696
627,10,Ticks_ISO_T2_5,163,5,42,127,2020090120
627,10,Ticks_ISO_T2_5,164,1,48,52,2020584844
627,10,Ticks_ISO_T2_5,165,5,42,127,2020590188
627,10,Ticks_ISO_T2_5,166,1,48,39,2020617256
627,10,Ticks_ISO_T2_5,167,1,48,52,2021067016
627,10,Ticks_ISO_T2_5,168,5,42,127,2021089640
627,10,Ticks_ISO_T2_5,169,1,48,53,2021555264
627,10,Ticks_ISO_T2_5,170,5,42,127,2021590456
627,10,Ticks_ISO_T2_5,171,1,48,53,2022061988
627,10,Ticks_ISO_T2_5,172,5,42,127,2022090224
627,10,Ticks_ISO_T2_5,173,1,48,54,2022585320
627,10,Ticks_ISO_T2_5,174,5,42,127,2022589920
627,10,Ticks_ISO_T2_5,175,1,48,37,2022622116
627,10,Ticks_ISO_T2_5,176,1,48,51,2023087476
627,10,Ticks_ISO_T2_5,177,5,42,127,2023089440
627,10,Ticks_ISO_T2_5,178,1,48,38,2023120144
627,10,Ticks_ISO_T2_5,179,5,42,127,2023590240
627,10,Ticks_ISO_T2_5,180,1,48,52,2023598372
627,10,Ticks_ISO_T2_5,181,1,48,38,2023630436
627,10,Ticks_ISO_T2_5,182,1,48,48,2024079628
627,10,Ticks_ISO_T2_5,183,5,42,127,2024089908
627,10,Ticks_ISO_T2_5,184,1,48,49,2024575952
627,10,Ticks_ISO_T2_5,185,5,42,127,2024589604
627,10,Ticks_ISO_T2_5,186,1,48,48,2025052088
627,10,Ticks_ISO_T2_5,187,5,42,127,2025090272
627,10,Ticks_ISO_T2_5,188,1,48,51,2025575792
627,10,Ticks_ISO_T2_5,189,5,42,127,2025590116
627,10,Ticks_ISO_T2_5,190,1,48,51,2026059860
627,10,Ticks_ISO_T2_5,191,5,42,127,2026089956
627,10,Ticks_ISO_T2_5,192,1,48,54,2026570024
627,10,Ticks_ISO_T2_5,193,5,42,127,2026589580
627,10,Ticks_ISO_T2_5,194,1,48,49,2027060812
627,10,Ticks_ISO_T2_5,195,5,42,127,2027090392
627,10,Ticks_ISO_T2_5,196,1,48,47,2027544052
627,10,Ticks_ISO_T2_5,197,5,42,127,2027589940
627,10,Ticks_ISO_T2_5,198,1,48,52,2028081820
627,10,Ticks_ISO_T2_5,199,5,42,127,2028089784
627,10,Ticks_ISO_T2_5,200,1,48,36,2028118244
627,10,Ticks_ISO_T2_5,201,1,48,52,2028589536
627,10,Ticks_ISO_T2_5,202,5,42,127,2028591024
627,10,Ticks_ISO_T2_5,203,1,48,50,2029056136
627,10,Ticks_ISO_T2_5,204,5,42,127,2029090124
627,10,Ticks_ISO_T2_5,205,1,48,47,2029564328
627,10,Ticks_ISO_T2_5,206,5,42,127,2029590016
627,10,Ticks_ISO_T2_5,207,1,48,49,2030048064
627,10,Ticks_ISO_T2_5,208,5,42,127,2030089712
627,10,Ticks_ISO_T2_5,209,1,48,53,2030566084
627,10,Ticks_ISO_T2_5,210,5,42,127,2030590376
627,10,Ticks_ISO_T2_5,211,1,48,36,2030603052
627,10,Ticks_ISO_T2_5,212,1,48,49,2031083708
627,10,Ticks_ISO_T2_5,213,5,42,127,2031089876
627,10,Ticks_ISO_T2_5,214,1,48,51,2031583776
627,10,Ticks_ISO_T2_5,215,5,42,127,2031589796
627,10,Ticks_ISO_T2_5,216,1,48,35,2031621796
627,10,Ticks_ISO_T2_5,217,1,48,48,2032066920
627,10,Ticks_ISO_T2_5,218,5,42,127,2032089392
627,10,Ticks_ISO_T2_5,219,1,48,36,2032104612
627,10,Ticks_ISO_T2_5,220,1,48,39,2032587608
627,10,Ticks_ISO_T2_5,221,5,42,127,2032590260
627,10,Ticks_ISO_T2_5,222,1,48,35,2033090040
627,10,Ticks_ISO_T2_5,223,5,42,127,2033091376
627,10,Ticks_ISO_T2_5,224,5,42,127,2033589732
627,10,Ticks_ISO_T2_5,225,1,48,48,2033606088
627,10,Ticks_ISO_T2_5,226,1,48,34,2033644212
627,10,Ticks_ISO_T2_5,227,1,48,53,2034058100
627,10,Ticks_ISO_T2_5,228,5,42,127,2034090224
627,10,Ticks_ISO_T2_5,229,1,48,36,2034097964
627,10,Ticks_ISO_T2_5,230,5,42,127,2034590052
627,10,Ticks_ISO_T2_5,231,1,48,51,2034625932
627,10,Ticks_ISO_T2_5,232,1,48,32,2034677148
627,10,Ticks_ISO_T2_5,233,1,48,50,2035020792
627,10,Ticks_ISO_T2_5,234,1,48,32,2035070588
627,10,Ticks_ISO_T2_5,235,5,42,127,2035089844
627,10,Ticks_ISO_T2_5,236,1,48,55,2035577316
627,10,Ticks_ISO_T2_5,237,5,42,127,2035589616
627,10,Ticks_ISO_T2_5,238,1,48,38,2035617028
627,10,Ticks_ISO_T2_5,239,1,48,54,2036088600
627,10,Ticks_ISO_T2_5,240,5,42,127,2036090184
627,10,Ticks_ISO_T2_5,241,5,42,127,2036590036
627,10,Ticks_ISO_T2_5,242,1,48,55,2036642076
627,10,Ticks_ISO_T2_5,243,1,48,50,2037033296
627,10,Ticks_ISO_T2_5,244,1,48,37,2037067980
627,10,Ticks_ISO_T2_5,245,5,42,127,2037089852
627,10,Ticks_ISO_T2_5,246,1,48,51,2037543964
627,10,Ticks_ISO_T2_5,247,1,48,34,2037586872
627,10,Ticks_ISO_T2_5,248,5,42,127,2037590424
627,10,Ticks_ISO_T2_5,249,1,48,47,2038061884
627,10,Ticks_ISO_T2_5,250,5,42,127,2038090120
627,10,Ticks_ISO_T2_5,251,1,48,51,2038590044
627,10,Ticks_ISO_T2_5,252,5,42,127,2038591308
627,10,Ticks_ISO_T2_5,253,5,42,127,2039089440
627,10,Ticks_ISO_T2_5,254,1,48,49,2039105496
627,10,Ticks_ISO_T2_5,255,1,48,43,2039545088
627,10,Ticks_ISO_T2_5,256,5,42,127,2039590100
627,10,Ticks_ISO_T2_5,257,5,42,127,2040089952
627,10,Ticks_ISO_T2_5,258,1,48,50,2040100772
627,10,Ticks_ISO_T2_5,259,1,48,48,2040572700
627,10,Ticks_ISO_T2_5,260,5,42,127,2040589788
627,10,Ticks_ISO_T2_5,261,1,48,46,2041083812
627,10,Ticks_ISO_T2_5,262,5,42,127,2041090284
627,10,Ticks_ISO_T2_5,263,1,48,50,2041570844
627,10,Ticks_ISO_T2_5,264,5,42,127,2041590100
627,10,Ticks_ISO_T2_5,265,1,48,56,2042070836
627,10,Ticks_ISO_T2_5,266,5,42,127,2042089872
627,10,Ticks_ISO_T2_5,267,1,48,43,2042554976
627,10,Ticks_ISO_T2_5,268,5,42,127,2042589568
627,10,Ticks_ISO_T2_5,269,1,48,51,2043049584
627,10,Ticks_ISO_T2_5,270,5,42,127,2043090456
627,10,Ticks_ISO_T2_5,271,5,42,127,2043590084
627,10,Ticks_ISO_T2_5,272,1,48,54,2043603748
627,10,Ticks_ISO_T2_5,273,1,48,43,2044073652
627,10,Ticks_ISO_T2_5,274,5,42,127,2044089844
627,10,Ticks_ISO_T2_5,275,1,48,49,2044549864
627,10,Ticks_ISO_T2_5,276,5,42,127,2044589392
627,10,Ticks_ISO_T2_5,277,1,48,46,2045031612
627,10,Ticks_ISO_T2_5,0,9999,9999,9999,1980087344
627,10,Ticks_ISO_T2_5,1,9999,9999,9999,1980587064
627,10,Ticks_ISO_T2_5,2,9999,9999,9999,1981087804
627,10,Ticks_ISO_T2_5,3,9999,9999,9999,1981587516
627,10,Ticks_ISO_T2_5,4,9999,9999,9999,1982087284
627,10,Ticks_ISO_T2_5,5,9999,9999,9999,1982587952
627,10,Ticks_ISO_T2_5,6,9999,9999,9999,1983087724
627,10,Ticks_ISO_T2_5,7,9999,9999,9999,1983587420
627,10,Ticks_ISO_T2_5,8,9999,9999,9999,1984087112
627,10,Ticks_ISO_T2_5,9,9999,9999,9999,1984587852
627,10,Ticks_ISO_T2_5,10,9999,9999,9999,1985087548
627,10,Ticks_ISO_T2_5,11,9999,9999,9999,1985587320
627,10,Ticks_ISO_T2_5,12,9999,9999,9999,1986087988
627,10,Ticks_ISO_T2_5,13,9999,9999,9999,1986587736
627,10,Ticks_ISO_T2_5,14,9999,9999,9999,1987087480
627,10,Ticks_ISO_T2_5,15,9999,9999,9999,1987587176
627,10,Ticks_ISO_T2_5,16,9999,9999,9999,1988087892
627,10,Ticks_ISO_T2_5,17,9999,9999,9999,1988587640
627,10,Ticks_ISO_T2_5,18,9999,9999,9999,1989087312
627,10,Ticks_ISO_T2_5,19,9999,9999,9999,1989588056
627,10,Ticks_ISO_T2_5,20,9999,9999,9999,1990087748
627,10,Ticks_ISO_T2_5,21,9999,9999,9999,1990587444
627,10,Ticks_ISO_T2_5,22,9999,9999,9999,1991087216
627,10,Ticks_ISO_T2_5,23,9999,9999,9999,1991587888
627,10,Ticks_ISO_T2_5,24,9999,9999,9999,1992087652
627,10,Ticks_ISO_T2_5,25,9999,9999,9999,1992587348
627,10,Ticks_ISO_T2_5,26,9999,9999,9999,1993088092
627,10,Ticks_ISO_T2_5,27,9999,9999,9999,1993587784
627,10,Ticks_ISO_T2_5,28,9999,9999,9999,1994087484
627,10,Ticks_ISO_T2_5,29,9999,9999,9999,1994587248
627,10,Ticks_ISO_T2_5,30,9999,9999,9999,1995087992
627,10,Ticks_ISO_T2_5,31,9999,9999,9999,1995587688
627,10,Ticks_ISO_T2_5,32,9999,9999,9999,1996087380
627,10,Ticks_ISO_T2_5,33,9999,9999,9999,1996587076
627,10,Ticks_ISO_T2_5,34,9999,9999,9999,1997087816
627,10,Ticks_ISO_T2_5,35,9999,9999,9999,1997587512
627,10,Ticks_ISO_T2_5,36,9999,9999,9999,1998087280
627,10,Ticks_ISO_T2_5,37,9999,9999,9999,1998587996
627,10,Ticks_ISO_T2_5,38,9999,9999,9999,1999087688
627,10,Ticks_ISO_T2_5,39,9999,9999,9999,1999587384
627,10,Ticks_ISO_T2_5,40,9999,9999,9999,2000087152
627,10,Ticks_ISO_T2_5,41,9999,9999,9999,2000587896
627,10,Ticks_ISO_T2_5,42,9999,9999,9999,2001087592
627,10,Ticks_ISO_T2_5,43,9999,9999,9999,2001587288
627,10,Ticks_ISO_T2_5,44,9999,9999,9999,2002088028
627,10,Ticks_ISO_T2_5,45,9999,9999,9999,2002587724
627,10,Ticks_ISO_T2_5,46,9999,9999,9999,2003087420
627,10,Ticks_ISO_T2_5,47,9999,9999,9999,2003587188
627,10,Ticks_ISO_T2_5,48,9999,9999,9999,2004087856
627,10,Ticks_ISO_T2_5,49,9999,9999,9999,2004587624
627,10,Ticks_ISO_T2_5,50,9999,9999,9999,2005087320
627,10,Ticks_ISO_T2_5,51,9999,9999,9999,2005588060
627,10,Ticks_ISO_T2_5,52,9999,9999,9999,2006087756
627,10,Ticks_ISO_T2_5,53,9999,9999,9999,2006587452
627,10,Ticks_ISO_T2_5,54,9999,9999,9999,2007087220
627,10,Ticks_ISO_T2_5,55,9999,9999,9999,2007587960
627,10,Ticks_ISO_T2_5,56,9999,9999,9999,2008087656
627,10,Ticks_ISO_T2_5,57,9999,9999,9999,2008587348
627,10,Ticks_ISO_T2_5,58,9999,9999,9999,2009088092
627,10,Ticks_ISO_T2_5,59,9999,9999,9999,2009587760
627,10,Ticks_ISO_T2_5,60,9999,9999,9999,2010087528
627,10,Ticks_ISO_T2_5,61,9999,9999,9999,2010587224
627,10,Ticks_ISO_T2_5,62,9999,9999,9999,2011087964
627,10,Ticks_ISO_T2_5,63,9999,9999,9999,2011587660
627,10,Ticks_ISO_T2_5,64,9999,9999,9999,2012087352
627,10,Ticks_ISO_T2_5,65,9999,9999,9999,2012587124
627,10,Ticks_ISO_T2_5,66,9999,9999,9999,2013087792
627,10,Ticks_ISO_T2_5,67,9999,9999,9999,2013587560
627,10,Ticks_ISO_T2_5,68,9999,9999,9999,2014087256
627,10,Ticks_ISO_T2_5,69,9999,9999,9999,2014588000
627,10,Ticks_ISO_T2_5,70,9999,9999,9999,2015087692
627,10,Ticks_ISO_T2_5,71,9999,9999,9999,2015587388
627,10,Ticks_ISO_T2_5,72,9999,9999,9999,2016087156
627,10,Ticks_ISO_T2_5,73,9999,9999,9999,2016587824
627,10,Ticks_ISO_T2_5,74,9999,9999,9999,2017087596
627,10,Ticks_ISO_T2_5,75,9999,9999,9999,2017587288
627,10,Ticks_ISO_T2_5,76,9999,9999,9999,2018088032
627,10,Ticks_ISO_T2_5,77,9999,9999,9999,2018587728
627,10,Ticks_ISO_T2_5,78,9999,9999,9999,2019087420
627,10,Ticks_ISO_T2_5,79,9999,9999,9999,2019587192
627,10,Ticks_ISO_T2_5,80,9999,9999,9999,2020087908
627,10,Ticks_ISO_T2_5,81,9999,9999,9999,2020587604
627,10,Ticks_ISO_T2_5,82,9999,9999,9999,2021087352
627,10,Ticks_ISO_T2_5,83,9999,9999,9999,2021588016
627,10,Ticks_ISO_T2_5,84,9999,9999,9999,2022087788
627,10,Ticks_ISO_T2_5,85,9999,9999,9999,2022587484
627,10,Ticks_ISO_T2_5,86,9999,9999,9999,2023087192
627,10,Ticks_ISO_T2_5,87,9999,9999,9999,2023587956
627,10,Ticks_ISO_T2_5,88,9999,9999,9999,2024087620
627,10,Ticks_ISO_T2_5,89,9999,9999,9999,2024587316
627,10,Ticks_ISO_T2_5,90,9999,9999,9999,2025088060
627,10,Ticks_ISO_T2_5,91,9999,9999,9999,2025587828
627,10,Ticks_ISO_T2_5,92,9999,9999,9999,2026087520
627,10,Ticks_ISO_T2_5,93,9999,9999,9999,2026587216
627,10,Ticks_ISO_T2_5,94,9999,9999,9999,2027087956
627,10,Ticks_ISO_T2_5,95,9999,9999,9999,2027587652
627,10,Ticks_ISO_T2_5,96,9999,9999,9999,2028087348
627,10,Ticks_ISO_T2_5,97,9999,9999,9999,2028587100
627,10,Ticks_ISO_T2_5,98,9999,9999,9999,2029087836
627,10,Ticks_ISO_T2_5,99,9999,9999,9999,2029587504
627,10,Ticks_ISO_T2_5,100,9999,9999,9999,2030087276
627,10,Ticks_ISO_T2_5,101,9999,9999,9999,2030588016
627,10,Ticks_ISO_T2_5,102,9999,9999,9999,2031087664
627,10,Ticks_ISO_T2_5,103,9999,9999,9999,2031587432
627,10,Ticks_ISO_T2_5,104,9999,9999,9999,2032087104
627,10,Ticks_ISO_T2_5,105,9999,9999,9999,2032587824
627,10,Ticks_ISO_T2_5,106,9999,9999,9999,2033087604
627,10,Ticks_ISO_T2_5,107,9999,9999,9999,2033587296
627,10,Ticks_ISO_T2_5,108,9999,9999,9999,2034088012
627,10,Ticks_ISO_T2_5,109,9999,9999,9999,2034587764
627,10,Ticks_ISO_T2_5,110,9999,9999,9999,2035087408
627,10,Ticks_ISO_T2_5,111,9999,9999,9999,2035587180
627,10,Ticks_ISO_T2_5,112,9999,9999,9999,2036087908
627,10,Ticks_ISO_T2_5,113,9999,9999,9999,2036587600
627,10,Ticks_ISO_T2_5,114,9999,9999,9999,2037087344
627,10,Ticks_ISO_T2_5,115,9999,9999,9999,2037588064
627,10,Ticks_ISO_T2_5,116,9999,9999,9999,2038087760
627,10,Ticks_ISO_T2_5,117,9999,9999,9999,2038587460
627,10,Ticks_ISO_T2_5,118,9999,9999,9999,2039087152
627,10,Ticks_ISO_T2_5,119,9999,9999,9999,2039587888
627,10,Ticks_ISO_T2_5,120,9999,9999,9999,2040087664
627,10,Ticks_ISO_T2_5,121,9999,9999,9999,2040587352
627,10,Ticks_ISO_T2_5,122,9999,9999,9999,2041088072
627,10,Ticks_ISO_T2_5,123,9999,9999,9999,2041587812
627,10,Ticks_ISO_T2_5,124,9999,9999,9999,2042087508
627,10,Ticks_ISO_T2_5,125,9999,9999,9999,2042587204
627,10,Ticks_ISO_T2_5,126,9999,9999,9999,2043087948
627,10,Ticks_ISO_T2_5,127,9999,9999,9999,2043587648
627,10,Ticks_ISO_T2_5,128,9999,9999,9999,2044087408
627,10,Ticks_ISO_T2_5,129,9999,9999,9999,2044587104
628,9,Ticks_ISO_T2_8,0,5,42,127,2056099052
628,9,Ticks_ISO_T2_8,1,5,42,127,2056898880
628,9,Ticks_ISO_T2_8,2,1,48,38,2057677880
628,9,Ticks_ISO_T2_8,3,5,42,127,2057698704
628,9,Ticks_ISO_T2_8,4,1,48,44,2058448884
628,9,Ticks_ISO_T2_8,5,5,42,127,2058498536
628,9,Ticks_ISO_T2_8,6,5,42,127,2059299396
628,9,Ticks_ISO_T2_8,7,1,48,46,2059336924
628,9,Ticks_ISO_T2_8,8,1,48,34,2059374752
628,9,Ticks_ISO_T2_8,9,5,42,127,2060098812
628,9,Ticks_ISO_T2_8,10,1,48,39,2060104468
628,9,Ticks_ISO_T2_8,11,5,42,127,2060898620
628,9,Ticks_ISO_T2_8,12,1,48,36,2060903904
628,9,Ticks_ISO_T2_8,13,1,48,46,2061676620
628,9,Ticks_ISO_T2_8,14,5,42,127,2061698568
628,9,Ticks_ISO_T2_8,15,1,48,49,2062462960
628,9,Ticks_ISO_T2_8,16,5,42,127,2062499276
628,9,Ticks_ISO_T2_8,17,1,48,44,2063292316
628,9,Ticks_ISO_T2_8,18,5,42,127,2063298860
628,9,Ticks_ISO_T2_8,19,5,42,127,2064098528
628,9,Ticks_ISO_T2_8,20,1,48,43,2064113688
628,9,Ticks_ISO_T2_8,21,1,48,42,2064892332
628,9,Ticks_ISO_T2_8,22,5,42,127,2064898424
628,9,Ticks_ISO_T2_8,23,1,48,45,2065697016
628,9,Ticks_ISO_T2_8,24,5,42,127,2065699356
628,9,Ticks_ISO_T2_8,25,5,42,127,2066499020
628,9,Ticks_ISO_T2_8,26,1,48,44,2066550384
628,9,Ticks_ISO_T2_8,27,5,42,127,2067298532
628,9,Ticks_ISO_T2_8,28,1,48,45,2067326180
628,9,Ticks_ISO_T2_8,29,1,48,42,2068084980
628,9,Ticks_ISO_T2_8,30,5,42,127,2068098480
628,9,Ticks_ISO_T2_8,31,1,48,44,2068867812
628,9,Ticks_ISO_T2_8,32,5,42,127,2068899112
628,9,Ticks_ISO_T2_8,33,1,48,45,2069663208
628,9,Ticks_ISO_T2_8,34,5,42,127,2069698920
628,9,Ticks_ISO_T2_8,35,5,42,127,2070498584
628,9,Ticks_ISO_T2_8,36,1,48,38,2070533368
628,9,Ticks_ISO_T2_8,37,5,42,127,2071298272
628,9,Ticks_ISO_T2_8,38,1,48,41,2071310960
628,9,Ticks_ISO_T2_8,39,1,48,43,2072049392
628,9,Ticks_ISO_T2_8,40,5,42,127,2072099268
628,9,Ticks_ISO_T2_8,41,1,48,41,2072833220
628,9,Ticks_ISO_T2_8,42,5,42,127,2072898776
628,9,Ticks_ISO_T2_8,43,5,42,127,2073698740
628,9,Ticks_ISO_T2_8,44,1,48,27,2073782264
628,9,Ticks_ISO_T2_8,45,5,42,127,2074498400
628,9,Ticks_ISO_T2_8,46,1,48,36,2074519168
628,9,Ticks_ISO_T2_8,47,5,42,127,2075299256
628,9,Ticks_ISO_T2_8,48,1,48,34,2075314712
628,9,Ticks_ISO_T2_8,49,1,48,47,2076089672
628,9,Ticks_ISO_T2_8,50,5,42,127,2076099056
628,9,Ticks_ISO_T2_8,51,1,48,47,2076836220
628,9,Ticks_ISO_T2_8,52,5,42,127,2076898640
628,9,Ticks_ISO_T2_8,53,1,48,46,2077692604
628,9,Ticks_ISO_T2_8,54,5,42,127,2077698400
628,9,Ticks_ISO_T2_8,55,1,48,48,2078496988
628,9,Ticks_ISO_T2_8,56,5,42,127,2078499252
628,9,Ticks_ISO_T2_8,57,5,42,127,2079298996
628,9,Ticks_ISO_T2_8,58,1,48,48,2079352976
628,9,Ticks_ISO_T2_8,59,1,48,46,2079996364
628,9,Ticks_ISO_T2_8,60,5,42,127,2080098560
628,9,Ticks_ISO_T2_8,61,1,48,42,2080812404
628,9,Ticks_ISO_T2_8,62,5,42,127,2080898380
628,9,Ticks_ISO_T2_8,63,1,48,39,2081633976
628,9,Ticks_ISO_T2_8,64,5,42,127,2081699384
628,9,Ticks_ISO_T2_8,65,1,48,42,2082424212
628,9,Ticks_ISO_T2_8,66,5,42,127,2082499044
628,9,Ticks_ISO_T2_8,67,1,48,48,2083270700
628,9,Ticks_ISO_T2_8,68,5,42,127,2083298632
628,9,Ticks_ISO_T2_8,69,5,42,127,2084098396
628,9,Ticks_ISO_T2_8,70,1,48,49,2084133904
628,9,Ticks_ISO_T2_8,71,1,48,33,2084172472
628,9,Ticks_ISO_T2_8,72,1,48,40,2084868448
628,9,Ticks_ISO_T2_8,73,5,42,127,2084899220
628,9,Ticks_ISO_T2_8,74,1,48,43,2085683588
628,9,Ticks_ISO_T2_8,75,5,42,127,2085699176
628,9,Ticks_ISO_T2_8,76,1,48,42,2086488780
628,9,Ticks_ISO_T2_8,77,5,42,127,2086498540
628,9,Ticks_ISO_T2_8,78,5,42,127,2087298352
628,9,Ticks_ISO_T2_8,79,1,48,39,2087330044
628,9,Ticks_ISO_T2_8,80,5,42,127,2088099132
628,9,Ticks_ISO_T2_8,81,1,48,35,2088151840
628,9,Ticks_ISO_T2_8,82,1,48,30,2088879900
628,9,Ticks_ISO_T2_8,83,5,42,127,2088899156
628,9,Ticks_ISO_T2_8,84,5,42,127,2089698524
628,9,Ticks_ISO_T2_8,85,1,48,32,2089731960
628,9,Ticks_ISO_T2_8,86,5,42,127,2090498360
628,9,Ticks_ISO_T2_8,87,1,48,24,2090520852
628,9,Ticks_ISO_T2_8,88,5,42,127,2091299288
628,9,Ticks_ISO_T2_8,89,1,48,37,2091327840
628,9,Ticks_ISO_T2_8,90,5,42,127,2092099248
628,9,Ticks_ISO_T2_8,91,1,48,33,2092101616
628,9,Ticks_ISO_T2_8,92,5,42,127,2092898532
628,9,Ticks_ISO_T2_8,93,1,48,28,2092940992
628,9,Ticks_ISO_T2_8,94,5,42,127,2093698416
628,9,Ticks_ISO_T2_8,95,1,48,19,2093755236
628,9,Ticks_ISO_T2_8,96,1,48,16,2094473500
628,9,Ticks_ISO_T2_8,97,5,42,127,2094499188
628,9,Ticks_ISO_T2_8,98,5,42,127,2095299004
628,9,Ticks_ISO_T2_8,99,1,48,34,2096088992
628,9,Ticks_ISO_T2_8,100,5,42,127,2096098604
628,9,Ticks_ISO_T2_8,101,1,48,35,2096796276
628,9,Ticks_ISO_T2_8,102,5,42,127,2096898324
628,9,Ticks_ISO_T2_8,103,1,48,50,2097662208
628,9,Ticks_ISO_T2_8,104,5,42,127,2097699044
628,9,Ticks_ISO_T2_8,105,1,48,37,2098473084
628,9,Ticks_ISO_T2_8,106,5,42,127,2098499000
628,9,Ticks_ISO_T2_8,107,5,42,127,2099299036
628,9,Ticks_ISO_T2_8,108,1,48,44,2099307768
628,9,Ticks_ISO_T2_8,109,5,42,127,2100098324
628,9,Ticks_ISO_T2_8,110,1,48,40,2100115728
628,9,Ticks_ISO_T2_8,111,5,42,127,2100899104
628,9,Ticks_ISO_T2_8,112,1,48,40,2100942536
628,9,Ticks_ISO_T2_8,113,1,48,32,2101635220
628,9,Ticks_ISO_T2_8,114,5,42,127,2101698908
628,9,Ticks_ISO_T2_8,115,5,42,127,2102498796
628,9,Ticks_ISO_T2_8,116,1,48,38,2102546288
628,9,Ticks_ISO_T2_8,117,1,48,37,2103253312
628,9,Ticks_ISO_T2_8,118,5,42,127,2103298396
628,9,Ticks_ISO_T2_8,119,1,48,20,2103322892
628,9,Ticks_ISO_T2_8,120,1,48,37,2104060976
628,9,Ticks_ISO_T2_8,121,5,42,127,2104099304
628,9,Ticks_ISO_T2_8,122,5,42,127,2104898896
628,9,Ticks_ISO_T2_8,123,1,48,36,2104958560
628,9,Ticks_ISO_T2_8,124,5,42,127,2105698704
628,9,Ticks_ISO_T2_8,125,1,48,36,2105711320
628,9,Ticks_ISO_T2_8,126,1,48,41,2106476100
628,9,Ticks_ISO_T2_8,127,5,42,127,2106498504
628,9,Ticks_ISO_T2_8,128,1,48,37,2107269104
628,9,Ticks_ISO_T2_8,129,5,42,127,2107299132
628,9,Ticks_ISO_T2_8,130,1,48,38,2108077960
628,9,Ticks_ISO_T2_8,131,5,42,127,2108098868
628,9,Ticks_ISO_T2_8,132,1,48,41,2108899128
628,9,Ticks_ISO_T2_8,133,5,42,127,2108900316
628,9,Ticks_ISO_T2_8,134,1,48,41,2109696008
628,9,Ticks_ISO_T2_8,135,5,42,127,2109698360
628,9,Ticks_ISO_T2_8,136,1,48,42,2110471580
628,9,Ticks_ISO_T2_8,137,5,42,127,2110499140
628,9,Ticks_ISO_T2_8,138,5,42,127,2111298956
628,9,Ticks_ISO_T2_8,139,1,48,35,2111301116
628,9,Ticks_ISO_T2_8,140,5,42,127,2112098544
628,9,Ticks_ISO_T2_8,141,1,48,40,2112101060
628,9,Ticks_ISO_T2_8,142,1,48,38,2112876844
628,9,Ticks_ISO_T2_8,143,5,42,127,2112898492
628,9,Ticks_ISO_T2_8,144,1,48,43,2113672460
628,9,Ticks_ISO_T2_8,145,5,42,127,2113699048
628,9,Ticks_ISO_T2_8,146,1,48,45,2114481616
628,9,Ticks_ISO_T2_8,147,5,42,127,2114498856
628,9,Ticks_ISO_T2_8,148,1,48,20,2114563764
628,9,Ticks_ISO_T2_8,149,5,42,127,2115298648
628,9,Ticks_ISO_T2_8,150,1,48,42,2115385492
628,9,Ticks_ISO_T2_8,151,1,48,34,2115958688
628,9,Ticks_ISO_T2_8,152,5,42,127,2116098384
628,9,Ticks_ISO_T2_8,153,1,48,27,2116767928
628,9,Ticks_ISO_T2_8,154,5,42,127,2116899240
628,9,Ticks_ISO_T2_8,155,1,48,31,2117606632
628,9,Ticks_ISO_T2_8,156,5,42,127,2117698988
628,9,Ticks_ISO_T2_8,157,1,48,33,2118434808
628,9,Ticks_ISO_T2_8,158,5,42,127,2118498648
628,9,Ticks_ISO_T2_8,159,1,48,31,2119268584
628,9,Ticks_ISO_T2_8,160,5,42,127,2119298532
628,9,Ticks_ISO_T2_8,161,1,48,30,2120077516
628,9,Ticks_ISO_T2_8,162,5,42,127,2120099164
628,9,Ticks_ISO_T2_8,163,5,42,127,2120898904
628,9,Ticks_ISO_T2_8,164,1,48,29,2120937252
628,9,Ticks_ISO_T2_8,165,5,42,127,2121698788
628,9,Ticks_ISO_T2_8,166,1,48,31,2121720256
628,9,Ticks_ISO_T2_8,167,5,42,127,2122498544
628,9,Ticks_ISO_T2_8,168,1,48,41,2122515652
628,9,Ticks_ISO_T2_8,169,5,42,127,2123299176
628,9,Ticks_ISO_T2_8,170,1,48,34,2123327580
628,9,Ticks_ISO_T2_8,171,1,48,31,2124097240
628,9,Ticks_ISO_T2_8,172,5,42,127,2124098904
628,9,Ticks_ISO_T2_8,173,1,48,37,2124867640
628,9,Ticks_ISO_T2_8,174,5,42,127,2124898636
628,9,Ticks_ISO_T2_8,175,1,48,35,2125675748
628,9,Ticks_ISO_T2_8,176,5,42,127,2125698668
628,9,Ticks_ISO_T2_8,177,5,42,127,2126499308
628,9,Ticks_ISO_T2_8,178,1,48,37,2126525612
628,9,Ticks_ISO_T2_8,179,1,48,35,2127253444
628,9,Ticks_ISO_T2_8,180,5,42,127,2127298808
628,9,Ticks_ISO_T2_8,181,5,42,127,2128098700
628,9,Ticks_ISO_T2_8,182,1,48,41,2128180904
628,9,Ticks_ISO_T2_8,183,1,48,28,2128840644
628,9,Ticks_ISO_T2_8,184,5,42,127,2128898596
628,9,Ticks_ISO_T2_8,185,1,48,35,2129576348
628,9,Ticks_ISO_T2_8,186,5,42,127,2129699216
628,9,Ticks_ISO_T2_8,187,1,48,37,2130420288
628,9,Ticks_ISO_T2_8,188,5,42,127,2130498888
628,9,Ticks_ISO_T2_8,189,1,48,42,2131253408
628,9,Ticks_ISO_T2_8,190,5,42,127,2131298544
628,9,Ticks_ISO_T2_8,191,1,48,41,2132074008
628,9,Ticks_ISO_T2_8,192,5,42,127,2132098428
628,9,Ticks_ISO_T2_8,193,5,42,127,2132899140
628,9,Ticks_ISO_T2_8,194,1,48,43,2132923872
628,9,Ticks_ISO_T2_8,195,5,42,127,2133699020
628,9,Ticks_ISO_T2_8,196,1,48,49,2133715752
628,9,Ticks_ISO_T2_8,197,1,48,29,2133766920
628,9,Ticks_ISO_T2_8,198,1,48,40,2134494804
628,9,Ticks_ISO_T2_8,199,5,42,127,2134498652
628,9,Ticks_ISO_T2_8,200,5,42,127,2135298420
628,9,Ticks_ISO_T2_8,201,1,48,39,2135329064
628,9,Ticks_ISO_T2_8,202,5,42,127,2136099124
628,9,Ticks_ISO_T2_8,203,1,48,36,2136138740
628,9,Ticks_ISO_T2_8,204,5,42,127,2136898784
628,9,Ticks_ISO_T2_8,205,1,48,35,2136946860
628,9,Ticks_ISO_T2_8,206,5,42,127,2137698820
628,9,Ticks_ISO_T2_8,207,1,48,29,2137726468
628,9,Ticks_ISO_T2_8,208,5,42,127,2138498404
628,9,Ticks_ISO_T2_8,209,1,48,31,2138529944
628,9,Ticks_ISO_T2_8,210,5,42,127,2139299332
628,9,Ticks_ISO_T2_8,211,1,48,33,2139343212
628,9,Ticks_ISO_T2_8,212,5,42,127,2140098916
628,9,Ticks_ISO_T2_8,213,1,48,35,2140165412
628,9,Ticks_ISO_T2_8,214,5,42,127,2140898572
628,9,Ticks_ISO_T2_8,215,1,48,32,2140907448
628,9,Ticks_ISO_T2_8,216,1,48,35,2141671112
628,9,Ticks_ISO_T2_8,217,5,42,127,2141698400
628,9,Ticks_ISO_T2_8,218,1,48,27,2142453792
628,9,Ticks_ISO_T2_8,219,5,42,127,2142499400
628,9,Ticks_ISO_T2_8,220,1,48,26,2143284736
628,9,Ticks_ISO_T2_8,221,5,42,127,2143298912
628,9,Ticks_ISO_T2_8,222,5,42,127,2144098652
628,9,Ticks_ISO_T2_8,223,1,48,26,2144121292
628,9,Ticks_ISO_T2_8,224,5,42,127,2144898312
628,9,Ticks_ISO_T2_8,225,1,48,23,2144910104
628,9,Ticks_ISO_T2_8,226,5,42,127,2145699240
628,9,Ticks_ISO_T2_8,227,1,48,29,2145763692
628,9,Ticks_ISO_T2_8,228,5,42,127,2146499120
628,9,Ticks_ISO_T2_8,229,1,48,34,2146516004
628,9,Ticks_ISO_T2_8,230,1,48,35,2147284376
628,9,Ticks_ISO_T2_8,231,5,42,127,2147298548
628,9,Ticks_ISO_T2_8,232,5,42,127,2148098316
628,9,Ticks_ISO_T2_8,233,1,48,34,2148148780
628,9,Ticks_ISO_T2_8,234,5,42,127,2148899168
628,9,Ticks_ISO_T2_8,235,1,48,37,2148902436
628,9,Ticks_ISO_T2_8,236,1,48,30,2149633560
628,9,Ticks_ISO_T2_8,237,5,42,127,2149699192
628,9,Ticks_ISO_T2_8,238,1,48,37,2150444364
628,9,Ticks_ISO_T2_8,239,5,42,127,2150498552
628,9,Ticks_ISO_T2_8,240,1,48,29,2151237892
628,9,Ticks_ISO_T2_8,241,5,42,127,2151298512
628,9,Ticks_ISO_T2_8,242,1,48,38,2152074348
628,9,Ticks_ISO_T2_8,0,9999,9999,9999,2056096836
628,9,Ticks_ISO_T2_8,1,9999,9999,9999,2056896592
628,9,Ticks_ISO_T2_8,2,9999,9999,9999,2057696340
628,9,Ticks_ISO_T2_8,3,9999,9999,9999,2058496100
628,9,Ticks_ISO_T2_8,4,9999,9999,9999,2059296884
628,9,Ticks_ISO_T2_8,5,9999,9999,9999,2060096596
628,9,Ticks_ISO_T2_8,6,9999,9999,9999,2060896328
628,9,Ticks_ISO_T2_8,7,9999,9999,9999,2061696056
628,9,Ticks_ISO_T2_8,8,9999,9999,9999,2062496836
628,9,Ticks_ISO_T2_8,9,9999,9999,9999,2063296572
628,9,Ticks_ISO_T2_8,10,9999,9999,9999,2064096312
628,9,Ticks_ISO_T2_8,11,9999,9999,9999,2064896064
628,9,Ticks_ISO_T2_8,12,9999,9999,9999,2065696880
628,9,Ticks_ISO_T2_8,13,9999,9999,9999,2066496580
628,9,Ticks_ISO_T2_8,14,9999,9999,9999,2067296316
628,9,Ticks_ISO_T2_8,15,9999,9999,9999,2068096116
628,9,Ticks_ISO_T2_8,16,9999,9999,9999,2068896824
628,9,Ticks_ISO_T2_8,17,9999,9999,9999,2069696632
628,9,Ticks_ISO_T2_8,18,9999,9999,9999,2070496372
628,9,Ticks_ISO_T2_8,19,9999,9999,9999,2071296056
628,9,Ticks_ISO_T2_8,20,9999,9999,9999,2072096832
628,9,Ticks_ISO_T2_8,21,9999,9999,9999,2072896564
628,9,Ticks_ISO_T2_8,22,9999,9999,9999,2073696376
628,9,Ticks_ISO_T2_8,23,9999,9999,9999,2074496112
628,9,Ticks_ISO_T2_8,24,9999,9999,9999,2075296816
628,9,Ticks_ISO_T2_8,25,9999,9999,9999,2076096616
628,9,Ticks_ISO_T2_8,26,9999,9999,9999,2076896348
628,9,Ticks_ISO_T2_8,27,9999,9999,9999,2077696108
628,9,Ticks_ISO_T2_8,28,9999,9999,9999,2078496856
628,9,Ticks_ISO_T2_8,29,9999,9999,9999,2079296632
628,9,Ticks_ISO_T2_8,30,9999,9999,9999,2080096344
628,9,Ticks_ISO_T2_8,31,9999,9999,9999,2080896092
628,9,Ticks_ISO_T2_8,32,9999,9999,9999,2081696872
628,9,Ticks_ISO_T2_8,33,9999,9999,9999,2082496604
628,9,Ticks_ISO_T2_8,34,9999,9999,9999,2083296340
628,9,Ticks_ISO_T2_8,35,9999,9999,9999,2084096108
628,9,Ticks_ISO_T2_8,36,9999,9999,9999,2084896856
628,9,Ticks_ISO_T2_8,37,9999,9999,9999,2085696592
628,9,Ticks_ISO_T2_8,38,9999,9999,9999,2086496324
628,9,Ticks_ISO_T2_8,39,9999,9999,9999,2087296064
628,9,Ticks_ISO_T2_8,40,9999,9999,9999,2088096844
628,9,Ticks_ISO_T2_8,41,9999,9999,9999,2088896568
628,9,Ticks_ISO_T2_8,42,9999,9999,9999,2089696308
628,9,Ticks_ISO_T2_8,43,9999,9999,9999,2090496068
628,9,Ticks_ISO_T2_8,44,9999,9999,9999,2091296852
628,9,Ticks_ISO_T2_8,45,9999,9999,9999,2092096584
628,9,Ticks_ISO_T2_8,46,9999,9999,9999,2092896320
628,9,Ticks_ISO_T2_8,47,9999,9999,9999,2093696052
628,9,Ticks_ISO_T2_8,48,9999,9999,9999,2094496824
628,9,Ticks_ISO_T2_8,49,9999,9999,9999,2095296568
628,9,Ticks_ISO_T2_8,50,9999,9999,9999,2096096316
628,9,Ticks_ISO_T2_8,51,9999,9999,9999,2096896108
628,9,Ticks_ISO_T2_8,52,9999,9999,9999,2097696828
628,9,Ticks_ISO_T2_8,53,9999,9999,9999,2098496560
628,9,Ticks_ISO_T2_8,54,9999,9999,9999,2099296376
628,9,Ticks_ISO_T2_8,55,9999,9999,9999,2100096112
628,9,Ticks_ISO_T2_8,56,9999,9999,9999,2100896888
628,9,Ticks_ISO_T2_8,57,9999,9999,9999,2101696616
628,9,Ticks_ISO_T2_8,58,9999,9999,9999,2102496356
628,9,Ticks_ISO_T2_8,59,9999,9999,9999,2103296108
628,9,Ticks_ISO_T2_8,60,9999,9999,9999,2104096868
628,9,Ticks_ISO_T2_8,61,9999,9999,9999,2104896604
628,9,Ticks_ISO_T2_8,62,9999,9999,9999,2105696340
628,9,Ticks_ISO_T2_8,63,9999,9999,9999,2106496064
628,9,Ticks_ISO_T2_8,64,9999,9999,9999,2107296844
628,9,Ticks_ISO_T2_8,65,9999,9999,9999,2108096580
628,9,Ticks_ISO_T2_8,66,9999,9999,9999,2108896320
628,9,Ticks_ISO_T2_8,67,9999,9999,9999,2109696072
628,9,Ticks_ISO_T2_8,68,9999,9999,9999,2110496852
628,9,Ticks_ISO_T2_8,69,9999,9999,9999,2111296592
628,9,Ticks_ISO_T2_8,70,9999,9999,9999,2112096328
628,9,Ticks_ISO_T2_8,71,9999,9999,9999,2112896052
628,9,Ticks_ISO_T2_8,72,9999,9999,9999,2113696832
628,9,Ticks_ISO_T2_8,73,9999,9999,9999,2114496568
628,9,Ticks_ISO_T2_8,74,9999,9999,9999,2115296360
628,9,Ticks_ISO_T2_8,75,9999,9999,9999,2116096096
628,9,Ticks_ISO_T2_8,76,9999,9999,9999,2116896876
628,9,Ticks_ISO_T2_8,77,9999,9999,9999,2117696624
628,9,Ticks_ISO_T2_8,78,9999,9999,9999,2118496360
628,9,Ticks_ISO_T2_8,79,9999,9999,9999,2119296096
628,9,Ticks_ISO_T2_8,80,9999,9999,9999,2120096876
628,9,Ticks_ISO_T2_8,81,9999,9999,9999,2120896616
628,9,Ticks_ISO_T2_8,82,9999,9999,9999,2121696348
628,9,Ticks_ISO_T2_8,83,9999,9999,9999,2122496108
628,9,Ticks_ISO_T2_8,84,9999,9999,9999,2123296888
628,9,Ticks_ISO_T2_8,85,9999,9999,9999,2124096640
628,9,Ticks_ISO_T2_8,86,9999,9999,9999,2124896348
628,9,Ticks_ISO_T2_8,87,9999,9999,9999,2125696084
628,9,Ticks_ISO_T2_8,88,9999,9999,9999,2126496868
628,9,Ticks_ISO_T2_8,89,9999,9999,9999,2127296596
628,9,Ticks_ISO_T2_8,90,9999,9999,9999,2128096336
628,9,Ticks_ISO_T2_8,91,9999,9999,9999,2128896084
628,9,Ticks_ISO_T2_8,92,9999,9999,9999,2129696852
628,9,Ticks_ISO_T2_8,93,9999,9999,9999,2130496596
628,9,Ticks_ISO_T2_8,94,9999,9999,9999,2131296332
628,9,Ticks_ISO_T2_8,95,9999,9999,9999,2132096064
628,9,Ticks_ISO_T2_8,96,9999,9999,9999,2132896852
628,9,Ticks_ISO_T2_8,97,9999,9999,9999,2133696584
628,9,Ticks_ISO_T2_8,98,9999,9999,9999,2134496364
628,9,Ticks_ISO_T2_8,99,9999,9999,9999,2135296056
628,9,Ticks_ISO_T2_8,100,9999,9999,9999,2136096836
628,9,Ticks_ISO_T2_8,101,9999,9999,9999,2136896568
628,9,Ticks_ISO_T2_8,102,9999,9999,9999,2137696304
628,9,Ticks_ISO_T2_8,103,9999,9999,9999,2138496112
628,9,Ticks_ISO_T2_8,104,9999,9999,9999,2139296816
628,9,Ticks_ISO_T2_8,105,9999,9999,9999,2140096624
628,9,Ticks_ISO_T2_8,106,9999,9999,9999,2140896360
628,9,Ticks_ISO_T2_8,107,9999,9999,9999,2141696108
628,9,Ticks_ISO_T2_8,108,9999,9999,9999,2142496888
628,9,Ticks_ISO_T2_8,109,9999,9999,9999,2143296620
628,9,Ticks_ISO_T2_8,110,9999,9999,9999,2144096360
628,9,Ticks_ISO_T2_8,111,9999,9999,9999,2144896096
628,9,Ticks_ISO_T2_8,112,9999,9999,9999,2145696876
628,9,Ticks_ISO_T2_8,113,9999,9999,9999,2146496608
628,9,Ticks_ISO_T2_8,114,9999,9999,9999,2147296336
628,9,Ticks_ISO_T2_8,115,9999,9999,9999,2148096100
628,9,Ticks_ISO_T2_8,116,9999,9999,9999,2148896880
628,9,Ticks_ISO_T2_8,117,9999,9999,9999,2149696608
628,9,Ticks_ISO_T2_8,118,9999,9999,9999,2150496340
628,9,Ticks_ISO_T2_8,119,9999,9999,9999,2151296072
629,21,Ticks_Linear_5,0,5,42,127,2164041068
629,21,Ticks_Linear_5,1,5,42,127,2164521244
629,21,Ticks_Linear_5,2,5,42,127,2165000524
629,21,Ticks_Linear_5,3,1,48,40,2165001488
629,21,Ticks_Linear_5,4,1,48,40,2165458132
629,21,Ticks_Linear_5,5,5,42,127,2165480716
629,21,Ticks_Linear_5,6,1,48,38,2165918656
629,21,Ticks_Linear_5,7,5,42,127,2165961168
629,21,Ticks_Linear_5,8,1,48,39,2166396944
629,21,Ticks_Linear_5,9,5,42,127,2166450536
629,21,Ticks_Linear_5,10,1,48,39,2166877172
629,21,Ticks_Linear_5,11,5,42,127,2166941024
629,21,Ticks_Linear_5,12,1,48,42,2167380328
629,21,Ticks_Linear_5,13,5,42,127,2167430612
629,21,Ticks_Linear_5,14,1,48,38,2167865936
629,21,Ticks_Linear_5,15,5,42,127,2167920876
629,21,Ticks_Linear_5,16,1,48,34,2168378752
629,21,Ticks_Linear_5,17,5,42,127,2168410468
629,21,Ticks_Linear_5,18,1,48,38,2168858760
629,21,Ticks_Linear_5,19,5,42,127,2168911288
629,21,Ticks_Linear_5,20,1,48,38,2169360324
629,21,Ticks_Linear_5,21,5,42,127,2169411064
629,21,Ticks_Linear_5,22,1,48,37,2169850368
629,21,Ticks_Linear_5,23,5,42,127,2169910912
629,21,Ticks_Linear_5,24,1,48,40,2170313268
629,21,Ticks_Linear_5,25,5,42,127,2170412244
629,21,Ticks_Linear_5,26,1,48,42,2170843520
629,21,Ticks_Linear_5,27,5,42,127,2170911136
629,21,Ticks_Linear_5,28,1,48,46,2171366660
629,21,Ticks_Linear_5,29,5,42,127,2171421096
629,21,Ticks_Linear_5,30,1,48,44,2171816404
629,21,Ticks_Linear_5,31,5,42,127,2171931040
629,21,Ticks_Linear_5,32,1,48,42,2172359548
629,21,Ticks_Linear_5,33,5,42,127,2172440936
629,21,Ticks_Linear_5,34,1,48,43,2172858876
629,21,Ticks_Linear_5,35,5,42,127,2172950824
629,21,Ticks_Linear_5,36,1,48,43,2173349960
629,21,Ticks_Linear_5,37,5,42,127,2173460840
629,21,Ticks_Linear_5,38,1,48,41,2173920504
629,21,Ticks_Linear_5,39,5,42,127,2173981148
629,21,Ticks_Linear_5,40,1,48,44,2174422516
629,21,Ticks_Linear_5,41,5,42,127,2174501364
629,21,Ticks_Linear_5,42,1,48,45,2174934200
629,21,Ticks_Linear_5,43,5,42,127,2175021584
629,21,Ticks_Linear_5,44,1,48,46,2175448584
629,21,Ticks_Linear_5,45,5,42,127,2175550776
629,21,Ticks_Linear_5,46,1,48,47,2175969700
629,21,Ticks_Linear_5,47,5,42,127,2176070992
629,21,Ticks_Linear_5,48,1,48,49,2176510908
629,21,Ticks_Linear_5,49,5,42,127,2176600664
629,21,Ticks_Linear_5,50,1,48,48,2177051568
629,21,Ticks_Linear_5,51,5,42,127,2177130768
629,21,Ticks_Linear_5,52,1,48,48,2177593656
629,21,Ticks_Linear_5,53,5,42,127,2177661168
629,21,Ticks_Linear_5,54,1,48,48,2178106756
629,21,Ticks_Linear_5,55,5,42,127,2178190748
629,21,Ticks_Linear_5,56,1,48,48,2178641880
629,21,Ticks_Linear_5,57,5,42,127,2178721004
629,21,Ticks_Linear_5,58,1,48,49,2179212196
629,21,Ticks_Linear_5,59,5,42,127,2179260768
629,21,Ticks_Linear_5,60,1,48,48,2179705824
629,21,Ticks_Linear_5,61,5,42,127,2179800680
629,21,Ticks_Linear_5,62,1,48,48,2180231072
629,21,Ticks_Linear_5,63,5,42,127,2180341132
629,21,Ticks_Linear_5,64,1,48,50,2180786780
629,21,Ticks_Linear_5,65,5,42,127,2180880684
629,21,Ticks_Linear_5,66,1,48,52,2181361000
629,21,Ticks_Linear_5,67,5,42,127,2181421644
629,21,Ticks_Linear_5,68,1,48,28,2181456720
629,21,Ticks_Linear_5,69,1,48,49,2181906608
629,21,Ticks_Linear_5,70,5,42,127,2181980712
629,21,Ticks_Linear_5,71,5,42,127,2182530520
629,21,Ticks_Linear_5,72,1,48,56,2182536852
629,21,Ticks_Linear_5,73,1,48,48,2183063792
629,21,Ticks_Linear_5,74,5,42,127,2183081656
629,21,Ticks_Linear_5,75,1,48,32,2183599596
629,21,Ticks_Linear_5,76,5,42,127,2183631528
629,21,Ticks_Linear_5,77,1,48,51,2184105648
629,21,Ticks_Linear_5,78,5,42,127,2184181056
629,21,Ticks_Linear_5,79,1,48,56,2184640328
629,21,Ticks_Linear_5,80,1,48,39,2184678652
629,21,Ticks_Linear_5,81,5,42,127,2184741240
629,21,Ticks_Linear_5,82,1,48,50,2185175124
629,21,Ticks_Linear_5,83,5,42,127,2185301508
629,21,Ticks_Linear_5,84,1,48,33,2185739180
629,21,Ticks_Linear_5,85,5,42,127,2185860672
629,21,Ticks_Linear_5,86,1,48,50,2186371952
629,21,Ticks_Linear_5,87,5,42,127,2186420596
629,21,Ticks_Linear_5,88,1,48,31,2186868644
629,21,Ticks_Linear_5,89,5,42,127,2186980788
629,21,Ticks_Linear_5,90,1,48,33,2187411192
629,21,Ticks_Linear_5,91,5,42,127,2187551132
629,21,Ticks_Linear_5,92,1,48,31,2187932012
629,21,Ticks_Linear_5,93,5,42,127,2188120628
629,21,Ticks_Linear_5,94,1,48,29,2188453204
629,21,Ticks_Linear_5,95,5,42,127,2188690800
629,21,Ticks_Linear_5,96,1,48,46,2189037000
629,21,Ticks_Linear_5,97,5,42,127,2189261264
629,21,Ticks_Linear_5,98,1,48,36,2189549136
629,21,Ticks_Linear_5,99,5,42,127,2189830560
629,21,Ticks_Linear_5,100,1,48,23,2190039548
629,21,Ticks_Linear_5,101,5,42,127,2190411284
629,21,Ticks_Linear_5,102,1,48,44,2190675188
629,21,Ticks_Linear_5,103,5,42,127,2190990592
629,21,Ticks_Linear_5,104,1,48,49,2191273884
629,21,Ticks_Linear_5,105,5,42,127,2191571316
629,21,Ticks_Linear_5,106,1,48,46,2191868488
629,21,Ticks_Linear_5,107,5,42,127,2192150872
629,21,Ticks_Linear_5,108,1,48,41,2192496848
629,21,Ticks_Linear_5,109,5,42,127,2192730628
629,21,Ticks_Linear_5,110,1,48,45,2193200724
629,21,Ticks_Linear_5,111,5,42,127,2193321388
629,21,Ticks_Linear_5,112,1,48,45,2193771412
629,21,Ticks_Linear_5,113,5,42,127,2193911352
629,21,Ticks_Linear_5,114,1,48,49,2194358124
629,21,Ticks_Linear_5,115,5,42,127,2194501068
629,21,Ticks_Linear_5,116,1,48,44,2194962920
629,21,Ticks_Linear_5,117,5,42,127,2195090780
629,21,Ticks_Linear_5,118,1,48,47,2195555628
629,21,Ticks_Linear_5,119,5,42,127,2195680496
629,21,Ticks_Linear_5,120,1,48,46,2196165560
629,21,Ticks_Linear_5,121,5,42,127,2196280644
629,21,Ticks_Linear_5,122,1,48,52,2196774996
629,21,Ticks_Linear_5,123,5,42,127,2196880764
629,21,Ticks_Linear_5,124,1,48,49,2197418252
629,21,Ticks_Linear_5,125,5,42,127,2197480828
629,21,Ticks_Linear_5,126,1,48,53,2198040424
629,21,Ticks_Linear_5,127,5,42,127,2198080752
629,21,Ticks_Linear_5,128,1,48,51,2198644584
629,21,Ticks_Linear_5,129,5,42,127,2198681024
629,21,Ticks_Linear_5,130,1,48,50,2199248824
629,21,Ticks_Linear_5,131,5,42,127,2199291360
629,21,Ticks_Linear_5,132,1,48,52,2199833852
629,21,Ticks_Linear_5,133,1,48,24,2199896288
629,21,Ticks_Linear_5,134,5,42,127,2199900448
629,21,Ticks_Linear_5,135,1,48,48,2200495360
629,21,Ticks_Linear_5,136,5,42,127,2200510832
629,21,Ticks_Linear_5,137,1,48,51,2201079712
629,21,Ticks_Linear_5,138,5,42,127,2201121240
629,21,Ticks_Linear_5,139,1,48,50,2201703124
629,21,Ticks_Linear_5,140,5,42,127,2201730500
629,21,Ticks_Linear_5,141,1,48,51,2202287144
629,21,Ticks_Linear_5,142,5,42,127,2202350916
629,21,Ticks_Linear_5,143,1,48,48,2202918296
629,21,Ticks_Linear_5,144,5,42,127,2202970392
629,21,Ticks_Linear_5,145,1,48,49,2203582080
629,21,Ticks_Linear_5,146,5,42,127,2203591108
629,21,Ticks_Linear_5,147,1,48,26,2203640000
629,21,Ticks_Linear_5,148,1,48,47,2204186772
629,21,Ticks_Linear_5,149,5,42,127,2204210556
629,21,Ticks_Linear_5,150,1,48,22,2204254916
629,21,Ticks_Linear_5,151,1,48,51,2204774288
629,21,Ticks_Linear_5,152,1,48,33,2204831908
629,21,Ticks_Linear_5,153,5,42,127,2204833024
629,21,Ticks_Linear_5,154,1,48,48,2205446980
629,21,Ticks_Linear_5,155,5,42,127,2205460956
629,21,Ticks_Linear_5,156,1,48,44,2206030940
629,21,Ticks_Linear_5,157,5,42,127,2206090512
629,21,Ticks_Linear_5,158,1,48,47,2206692240
629,21,Ticks_Linear_5,159,5,42,127,2206721436
629,21,Ticks_Linear_5,160,1,48,47,2207287288
629,21,Ticks_Linear_5,161,5,42,127,2207351140
629,21,Ticks_Linear_5,162,1,48,48,2207964476
629,21,Ticks_Linear_5,163,5,42,127,2207981220
629,21,Ticks_Linear_5,164,1,48,51,2208617416
629,21,Ticks_Linear_5,165,5,42,127,2208621132
629,21,Ticks_Linear_5,166,1,48,32,2208669400
629,21,Ticks_Linear_5,167,1,48,49,2209245076
629,21,Ticks_Linear_5,168,5,42,127,2209260924
629,21,Ticks_Linear_5,169,5,42,127,2209900920
629,21,Ticks_Linear_5,170,1,48,51,2209934816
629,21,Ticks_Linear_5,171,1,48,46,2210517168
629,21,Ticks_Linear_5,172,5,42,127,2210541028
629,21,Ticks_Linear_5,173,1,48,51,2211110732
629,21,Ticks_Linear_5,174,1,48,32,2211164024
629,21,Ticks_Linear_5,175,5,42,127,2211181292
629,21,Ticks_Linear_5,176,1,48,46,2211774712
629,21,Ticks_Linear_5,177,5,42,127,2211831096
629,21,Ticks_Linear_5,178,1,48,26,2211836364
629,21,Ticks_Linear_5,179,1,48,51,2212417968
629,21,Ticks_Linear_5,180,5,42,127,2212481444
629,21,Ticks_Linear_5,181,1,48,21,2212496300
629,21,Ticks_Linear_5,182,1,48,49,2213061188
629,21,Ticks_Linear_5,183,1,48,31,2213118548
629,21,Ticks_Linear_5,184,5,42,127,2213130652
629,21,Ticks_Linear_5,185,1,48,50,2213724368
629,21,Ticks_Linear_5,186,1,48,32,2213776692
629,21,Ticks_Linear_5,187,5,42,127,2213781000
629,21,Ticks_Linear_5,188,1,48,46,2214380260
629,21,Ticks_Linear_5,189,5,42,127,2214431172
629,21,Ticks_Linear_5,190,1,48,39,2215021520
629,21,Ticks_Linear_5,191,5,42,127,2215090608
629,21,Ticks_Linear_5,192,1,48,41,2215643216
629,21,Ticks_Linear_5,193,5,42,127,2215751176
629,21,Ticks_Linear_5,194,1,48,40,2216261864
629,21,Ticks_Linear_5,195,5,42,127,2216410464
629,21,Ticks_Linear_5,196,1,48,38,2217045848
629,21,Ticks_Linear_5,197,5,42,127,2217071208
629,21,Ticks_Linear_5,198,5,42,127,2217730376
629,21,Ticks_Linear_5,199,1,48,40,2217744276
629,21,Ticks_Linear_5,200,5,42,127,2218401192
629,21,Ticks_Linear_5,201,1,48,33,2218410976
629,21,Ticks_Linear_5,202,1,48,37,2219064496
629,21,Ticks_Linear_5,203,5,42,127,2219071128
629,21,Ticks_Linear_5,204,1,48,34,2219698328
629,21,Ticks_Linear_5,205,5,42,127,2219740524
629,21,Ticks_Linear_5,206,1,48,32,2220352988
629,21,Ticks_Linear_5,207,5,42,127,2220411216
629,21,Ticks_Linear_5,208,1,48,39,2221007248
629,21,Ticks_Linear_5,209,5,42,127,2221081080
629,21,Ticks_Linear_5,210,1,48,45,2221724596
629,21,Ticks_Linear_5,211,5,42,127,2221761112
629,21,Ticks_Linear_5,212,5,42,127,2222441020
629,21,Ticks_Linear_5,213,1,48,32,2222607792
629,21,Ticks_Linear_5,214,5,42,127,2223120848
629,21,Ticks_Linear_5,215,1,48,39,2223145604
629,21,Ticks_Linear_5,216,1,48,45,2223720556
629,21,Ticks_Linear_5,217,5,42,127,2223800796
629,21,Ticks_Linear_5,218,1,48,51,2224438580
629,21,Ticks_Linear_5,219,5,42,127,2224480924
629,21,Ticks_Linear_5,220,1,48,41,2225036296
629,21,Ticks_Linear_5,221,1,48,24,2225097008
629,21,Ticks_Linear_5,222,5,42,127,2225170768
629,21,Ticks_Linear_5,223,1,48,43,2225714832
629,21,Ticks_Linear_5,224,5,42,127,2225860892
629,21,Ticks_Linear_5,225,1,48,43,2226382208
629,21,Ticks_Linear_5,226,5,42,127,2226551128
629,21,Ticks_Linear_5,227,1,48,47,2227068764
629,21,Ticks_Linear_5,228,1,48,24,2227133680
629,21,Ticks_Linear_5,229,5,42,127,2227241192
629,21,Ticks_Linear_5,230,1,48,38,2227856416
629,21,Ticks_Linear_5,231,5,42,127,2227930672
629,21,Ticks_Linear_5,232,1,48,44,2228586040
629,21,Ticks_Linear_5,233,5,42,127,2228630872
629,21,Ticks_Linear_5,234,1,48,48,2229237116
629,21,Ticks_Linear_5,235,5,42,127,2229332552
629,21,Ticks_Linear_5,236,1,48,53,2229952272
629,21,Ticks_Linear_5,237,5,42,127,2230030896
629,21,Ticks_Linear_5,238,1,48,40,2230643484
629,21,Ticks_Linear_5,239,5,42,127,2230730996
629,21,Ticks_Linear_5,240,1,48,40,2231390116
629,21,Ticks_Linear_5,241,5,42,127,2231430668
629,21,Ticks_Linear_5,242,1,48,40,2232097872
629,21,Ticks_Linear_5,243,5,42,127,2232141200
629,21,Ticks_Linear_5,244,1,48,50,2232800220
629,21,Ticks_Linear_5,245,5,42,127,2232850908
629,21,Ticks_Linear_5,246,1,48,53,2233552164
629,21,Ticks_Linear_5,247,5,42,127,2233560368
629,21,Ticks_Linear_5,248,1,48,47,2234233044
629,21,Ticks_Linear_5,249,5,42,127,2234271052
629,21,Ticks_Linear_5,250,1,48,51,2234951068
629,21,Ticks_Linear_5,251,5,42,127,2234980908
629,21,Ticks_Linear_5,252,1,48,51,2235627644
629,21,Ticks_Linear_5,253,1,48,35,2235663596
629,21,Ticks_Linear_5,254,5,42,127,2235700556
629,21,Ticks_Linear_5,255,1,48,46,2236357996
629,21,Ticks_Linear_5,256,5,42,127,2236420524
629,21,Ticks_Linear_5,257,1,48,45,2237039404
629,21,Ticks_Linear_5,258,5,42,127,2237141572
629,21,Ticks_Linear_5,259,1,48,44,2237741024
629,21,Ticks_Linear_5,260,5,42,127,2237861168
629,21,Ticks_Linear_5,261,5,42,127,2238581084
629,21,Ticks_Linear_5,262,1,48,44,2238670700
629,21,Ticks_Linear_5,263,1,48,45,2239243640
629,21,Ticks_Linear_5,264,5,42,127,2239311084
629,21,Ticks_Linear_5,265,1,48,46,2239844956
629,21,Ticks_Linear_5,266,5,42,127,2240041292
629,21,Ticks_Linear_5,267,1,48,46,2240535868
629,21,Ticks_Linear_5,268,5,42,127,2240770620
629,21,Ticks_Linear_5,269,1,48,37,2241250728
629,21,Ticks_Linear_5,270,5,42,127,2241500600
629,21,Ticks_Linear_5,271,1,48,44,2242212008
629,21,Ticks_Linear_5,272,5,42,127,2242230696
629,21,Ticks_Linear_5,273,1,48,48,2242918504
629,21,Ticks_Linear_5,274,5,42,127,2242970884
629,21,Ticks_Linear_5,275,1,48,44,2243629408
629,21,Ticks_Linear_5,276,5,42,127,2243711444
629,21,Ticks_Linear_5,277,1,48,46,2244336684
629,21,Ticks_Linear_5,278,5,42,127,2244450716
629,21,Ticks_Linear_5,279,1,48,48,2245107076
629,21,Ticks_Linear_5,280,5,42,127,2245190996
629,21,Ticks_Linear_5,281,1,48,43,2245853456
629,21,Ticks_Linear_5,282,5,42,127,2245931332
629,21,Ticks_Linear_5,283,1,48,34,2246618964
629,21,Ticks_Linear_5,284,5,42,127,2246680956
629,21,Ticks_Linear_5,285,1,48,49,2247309272
629,21,Ticks_Linear_5,286,5,42,127,2247430712
629,21,Ticks_Linear_5,287,1,48,57,2248092368
629,21,Ticks_Linear_5,288,5,42,127,2248181028
629,21,Ticks_Linear_5,289,1,48,53,2248835100
629,21,Ticks_Linear_5,290,1,48,25,2248895956
629,21,Ticks_Linear_5,291,5,42,127,2248930680
629,21,Ticks_Linear_5,292,1,48,48,2249584324
629,21,Ticks_Linear_5,293,5,42,127,2249681336
629,21,Ticks_Linear_5,294,1,48,46,2250340244
629,21,Ticks_Linear_5,295,5,42,127,2250441068
629,21,Ticks_Linear_5,296,1,48,39,2251079312
629,21,Ticks_Linear_5,297,5,42,127,2251200800
629,21,Ticks_Linear_5,298,1,48,37,2251868700
629,21,Ticks_Linear_5,299,5,42,127,2251960624
629,21,Ticks_Linear_5,300,1,48,46,2252650224
629,21,Ticks_Linear_5,301,5,42,127,2252720436
629,21,Ticks_Linear_5,302,1,48,46,2253425376
629,21,Ticks_Linear_5,303,5,42,127,2253481440
629,21,Ticks_Linear_5,304,1,48,43,2254154188
629,21,Ticks_Linear_5,305,5,42,127,2254251268
629,21,Ticks_Linear_5,306,1,48,27,2254928368
629,21,Ticks_Linear_5,307,5,42,127,2255021576
629,21,Ticks_Linear_5,308,1,48,47,2255699348
629,21,Ticks_Linear_5,309,5,42,127,2255800616
629,21,Ticks_Linear_5,310,1,48,44,2256484308
629,21,Ticks_Linear_5,311,5,42,127,2256570700
629,21,Ticks_Linear_5,312,1,48,39,2257236776
629,21,Ticks_Linear_5,313,5,42,127,2257340756
629,21,Ticks_Linear_5,314,1,48,41,2258008952
629,21,Ticks_Linear_5,315,5,42,127,2258121008
629,21,Ticks_Linear_5,316,1,48,46,2258785680
629,21,Ticks_Linear_5,317,5,42,127,2258901332
629,21,Ticks_Linear_5,318,1,48,48,2259538592
629,21,Ticks_Linear_5,319,5,42,127,2259680616
629,21,Ticks_Linear_5,320,1,48,39,2260286268
629,21,Ticks_Linear_5,321,5,42,127,2260461012
629,21,Ticks_Linear_5,322,1,48,40,2261017700
629,21,Ticks_Linear_5,323,5,42,127,2261241292
629,21,Ticks_Linear_5,324,1,48,43,2261840716
629,21,Ticks_Linear_5,325,5,42,127,2262030756
629,21,Ticks_Linear_5,326,1,48,45,2262624636
629,21,Ticks_Linear_5,327,5,42,127,2262821196
629,21,Ticks_Linear_5,328,1,48,45,2263482404
629,21,Ticks_Linear_5,329,5,42,127,2263610660
629,21,Ticks_Linear_5,330,1,48,44,2264300700
629,21,Ticks_Linear_5,331,5,42,127,2264401168
629,21,Ticks_Linear_5,332,1,48,46,2265059304
629,21,Ticks_Linear_5,333,5,42,127,2265190856
629,21,Ticks_Linear_5,334,1,48,47,2265800468
629,21,Ticks_Linear_5,335,1,48,33,2265841656
629,21,Ticks_Linear_5,336,5,42,127,2265990484
629,21,Ticks_Linear_5,337,1,48,46,2266614492
629,21,Ticks_Linear_5,338,5,42,127,2266791404
629,21,Ticks_Linear_5,339,1,48,44,2267364016
629,21,Ticks_Linear_5,340,5,42,127,2267591056
629,21,Ticks_Linear_5,341,1,48,42,2268082564
629,21,Ticks_Linear_5,342,5,42,127,2268390852
629,21,Ticks_Linear_5,343,1,48,45,2268910600
629,21,Ticks_Linear_5,344,5,42,127,2269190452
629,21,Ticks_Linear_5,345,1,48,47,2269903104
629,21,Ticks_Linear_5,346,5,42,127,2270000448
629,21,Ticks_Linear_5,347,1,48,41,2270738652
629,21,Ticks_Linear_5,348,5,42,127,2270810432
629,21,Ticks_Linear_5,349,1,48,48,2271500028
629,21,Ticks_Linear_5,350,5,42,127,2271620472
629,21,Ticks_Linear_5,351,1,48,40,2272251152
629,21,Ticks_Linear_5,352,5,42,127,2272430380
629,21,Ticks_Linear_5,353,1,48,43,2273111160
629,21,Ticks_Linear_5,354,5,42,127,2273240436
629,21,Ticks_Linear_5,0,9999,9999,9999,2164038768
629,21,Ticks_Linear_5,1,9999,9999,9999,2164519020
629,21,Ticks_Linear_5,2,9999,9999,9999,2164998224
629,21,Ticks_Linear_5,3,9999,9999,9999,2165478492
629,21,Ticks_Linear_5,4,9999,9999,9999,2165958724
629,21,Ticks_Linear_5,5,9999,9999,9999,2166448236
629,21,Ticks_Linear_5,6,9999,9999,9999,2166938724
629,21,Ticks_Linear_5,7,9999,9999,9999,2167428164
629,21,Ticks_Linear_5,8,9999,9999,9999,2167918652
629,21,Ticks_Linear_5,9,9999,9999,9999,2168408168
629,21,Ticks_Linear_5,10,9999,9999,9999,2168908916
629,21,Ticks_Linear_5,11,9999,9999,9999,2169408616
629,21,Ticks_Linear_5,12,9999,9999,9999,2169908316
629,21,Ticks_Linear_5,13,9999,9999,9999,2170409064
629,21,Ticks_Linear_5,14,9999,9999,9999,2170908764
629,21,Ticks_Linear_5,15,9999,9999,9999,2171418724
629,21,Ticks_Linear_5,16,9999,9999,9999,2171928664
629,21,Ticks_Linear_5,17,9999,9999,9999,2172438640
629,21,Ticks_Linear_5,18,9999,9999,9999,2172948600
629,21,Ticks_Linear_5,19,9999,9999,9999,2173458540
629,21,Ticks_Linear_5,20,9999,9999,9999,2173978700
629,21,Ticks_Linear_5,21,9999,9999,9999,2174498916
629,21,Ticks_Linear_5,22,9999,9999,9999,2175019060
629,21,Ticks_Linear_5,23,9999,9999,9999,2175548476
629,21,Ticks_Linear_5,24,9999,9999,9999,2176068692
629,21,Ticks_Linear_5,25,9999,9999,9999,2176598140
629,21,Ticks_Linear_5,26,9999,9999,9999,2177128544
629,21,Ticks_Linear_5,27,9999,9999,9999,2177658944
629,21,Ticks_Linear_5,28,9999,9999,9999,2178188376
629,21,Ticks_Linear_5,29,9999,9999,9999,2178718780
629,21,Ticks_Linear_5,30,9999,9999,9999,2179258468
629,21,Ticks_Linear_5,31,9999,9999,9999,2179798084
629,21,Ticks_Linear_5,32,9999,9999,9999,2180338808
629,21,Ticks_Linear_5,33,9999,9999,9999,2180878460
629,21,Ticks_Linear_5,34,9999,9999,9999,2181419124
629,21,Ticks_Linear_5,35,9999,9999,9999,2181978192
629,21,Ticks_Linear_5,36,9999,9999,9999,2182528072
629,21,Ticks_Linear_5,37,9999,9999,9999,2183078984
629,21,Ticks_Linear_5,38,9999,9999,9999,2183628860
629,21,Ticks_Linear_5,39,9999,9999,9999,2184178808
629,21,Ticks_Linear_5,40,9999,9999,9999,2184738868
629,21,Ticks_Linear_5,41,9999,9999,9999,2185299060
629,21,Ticks_Linear_5,42,9999,9999,9999,2185858148
629,21,Ticks_Linear_5,43,9999,9999,9999,2186418296
629,21,Ticks_Linear_5,44,9999,9999,9999,2186978416
629,21,Ticks_Linear_5,45,9999,9999,9999,2187548760
629,21,Ticks_Linear_5,46,9999,9999,9999,2188118108
629,21,Ticks_Linear_5,47,9999,9999,9999,2188688500
629,21,Ticks_Linear_5,48,9999,9999,9999,2189258816
629,21,Ticks_Linear_5,49,9999,9999,9999,2189828188
629,21,Ticks_Linear_5,50,9999,9999,9999,2190408764
629,21,Ticks_Linear_5,51,9999,9999,9999,2190988368
629,21,Ticks_Linear_5,52,9999,9999,9999,2191569016
629,21,Ticks_Linear_5,53,9999,9999,9999,2192148576
629,21,Ticks_Linear_5,54,9999,9999,9999,2192728180
629,21,Ticks_Linear_5,55,9999,9999,9999,2193319016
629,21,Ticks_Linear_5,56,9999,9999,9999,2193908828
629,21,Ticks_Linear_5,57,9999,9999,9999,2194498620
629,21,Ticks_Linear_5,58,9999,9999,9999,2195088484
629,21,Ticks_Linear_5,59,9999,9999,9999,2195678272
629,21,Ticks_Linear_5,60,9999,9999,9999,2196278344
629,21,Ticks_Linear_5,61,9999,9999,9999,2196878392
629,21,Ticks_Linear_5,62,9999,9999,9999,2197478456
629,21,Ticks_Linear_5,63,9999,9999,9999,2198078528
629,21,Ticks_Linear_5,64,9999,9999,9999,2198678652
629,21,Ticks_Linear_5,65,9999,9999,9999,2199288912
629,21,Ticks_Linear_5,66,9999,9999,9999,2199898224
629,21,Ticks_Linear_5,67,9999,9999,9999,2200508532
629,21,Ticks_Linear_5,68,9999,9999,9999,2201118792
629,21,Ticks_Linear_5,69,9999,9999,9999,2201728052
629,21,Ticks_Linear_5,70,9999,9999,9999,2202348620
629,21,Ticks_Linear_5,71,9999,9999,9999,2202968168
629,21,Ticks_Linear_5,72,9999,9999,9999,2203588736
629,21,Ticks_Linear_5,73,9999,9999,9999,2204208184
629,21,Ticks_Linear_5,74,9999,9999,9999,2204828728
629,21,Ticks_Linear_5,75,9999,9999,9999,2205458508
629,21,Ticks_Linear_5,76,9999,9999,9999,2206088288
629,21,Ticks_Linear_5,77,9999,9999,9999,2206719064
629,21,Ticks_Linear_5,78,9999,9999,9999,2207348844
629,21,Ticks_Linear_5,79,9999,9999,9999,2207978624
629,21,Ticks_Linear_5,80,9999,9999,9999,2208618612
629,21,Ticks_Linear_5,81,9999,9999,9999,2209258552
629,21,Ticks_Linear_5,82,9999,9999,9999,2209898620
629,21,Ticks_Linear_5,83,9999,9999,9999,2210538580
629,21,Ticks_Linear_5,84,9999,9999,9999,2211178624
629,21,Ticks_Linear_5,85,9999,9999,9999,2211828796
629,21,Ticks_Linear_5,86,9999,9999,9999,2212479072
629,21,Ticks_Linear_5,87,9999,9999,9999,2213128280
629,21,Ticks_Linear_5,88,9999,9999,9999,2213778556
629,21,Ticks_Linear_5,89,9999,9999,9999,2214428724
629,21,Ticks_Linear_5,90,9999,9999,9999,2215088236
629,21,Ticks_Linear_5,91,9999,9999,9999,2215748728
629,21,Ticks_Linear_5,92,9999,9999,9999,2216408164
629,21,Ticks_Linear_5,93,9999,9999,9999,2217068612
629,21,Ticks_Linear_5,94,9999,9999,9999,2217728080
629,21,Ticks_Linear_5,95,9999,9999,9999,2218398820
629,21,Ticks_Linear_5,96,9999,9999,9999,2219068532
629,21,Ticks_Linear_5,97,9999,9999,9999,2219738224
629,21,Ticks_Linear_5,98,9999,9999,9999,2220408916
629,21,Ticks_Linear_5,99,9999,9999,9999,2221078636
629,21,Ticks_Linear_5,100,9999,9999,9999,2221758588
629,21,Ticks_Linear_5,101,9999,9999,9999,2222438496
629,21,Ticks_Linear_5,102,9999,9999,9999,2223118400
629,21,Ticks_Linear_5,103,9999,9999,9999,2223798348
629,21,Ticks_Linear_5,104,9999,9999,9999,2224478328
629,21,Ticks_Linear_5,105,9999,9999,9999,2225168468
629,21,Ticks_Linear_5,106,9999,9999,9999,2225858668
629,21,Ticks_Linear_5,107,9999,9999,9999,2226548828
629,21,Ticks_Linear_5,108,9999,9999,9999,2227238968
629,21,Ticks_Linear_5,109,9999,9999,9999,2227928152
629,21,Ticks_Linear_5,110,9999,9999,9999,2228628576
629,21,Ticks_Linear_5,111,9999,9999,9999,2229328996
629,21,Ticks_Linear_5,112,9999,9999,9999,2230028372
629,21,Ticks_Linear_5,113,9999,9999,9999,2230728772
629,21,Ticks_Linear_5,114,9999,9999,9999,2231428220
629,21,Ticks_Linear_5,115,9999,9999,9999,2232138828
629,21,Ticks_Linear_5,116,9999,9999,9999,2232848460
629,21,Ticks_Linear_5,117,9999,9999,9999,2233558068
629,21,Ticks_Linear_5,118,9999,9999,9999,2234268752
629,21,Ticks_Linear_5,119,9999,9999,9999,2234978388
629,21,Ticks_Linear_5,120,9999,9999,9999,2235698260
629,21,Ticks_Linear_5,121,9999,9999,9999,2236418152
629,21,Ticks_Linear_5,122,9999,9999,9999,2237139052
629,21,Ticks_Linear_5,123,9999,9999,9999,2237858872
629,21,Ticks_Linear_5,124,9999,9999,9999,2238578784
629,21,Ticks_Linear_5,125,9999,9999,9999,2239308860
629,21,Ticks_Linear_5,126,9999,9999,9999,2240038992
629,21,Ticks_Linear_5,127,9999,9999,9999,2240768100
629,21,Ticks_Linear_5,128,9999,9999,9999,2241498228
629,21,Ticks_Linear_5,129,9999,9999,9999,2242228320
629,21,Ticks_Linear_5,130,9999,9999,9999,2242968660
629,21,Ticks_Linear_5,131,9999,9999,9999,2243708996
629,21,Ticks_Linear_5,132,9999,9999,9999,2244448344
629,21,Ticks_Linear_5,133,9999,9999,9999,2245188696
629,21,Ticks_Linear_5,134,9999,9999,9999,2245929032
629,21,Ticks_Linear_5,135,9999,9999,9999,2246678584
629,21,Ticks_Linear_5,136,9999,9999,9999,2247428192
629,21,Ticks_Linear_5,137,9999,9999,9999,2248178804
629,21,Ticks_Linear_5,138,9999,9999,9999,2248928380
629,21,Ticks_Linear_5,139,9999,9999,9999,2249678960
629,21,Ticks_Linear_5,140,9999,9999,9999,2250438768
629,21,Ticks_Linear_5,141,9999,9999,9999,2251198576
629,21,Ticks_Linear_5,142,9999,9999,9999,2251958328
629,21,Ticks_Linear_5,143,9999,9999,9999,2252718136
629,21,Ticks_Linear_5,144,9999,9999,9999,2253478992
629,21,Ticks_Linear_5,145,9999,9999,9999,2254249044
629,21,Ticks_Linear_5,146,9999,9999,9999,2255019128
629,21,Ticks_Linear_5,147,9999,9999,9999,2255798392
629,21,Ticks_Linear_5,148,9999,9999,9999,2256568404
629,21,Ticks_Linear_5,149,9999,9999,9999,2257338456
629,21,Ticks_Linear_5,150,9999,9999,9999,2258118708
629,21,Ticks_Linear_5,151,9999,9999,9999,2258899036
629,21,Ticks_Linear_5,152,9999,9999,9999,2259678316
629,21,Ticks_Linear_5,153,9999,9999,9999,2260458568
629,21,Ticks_Linear_5,154,9999,9999,9999,2261238844
629,21,Ticks_Linear_5,155,9999,9999,9999,2262028384
629,21,Ticks_Linear_5,156,9999,9999,9999,2262818896
629,21,Ticks_Linear_5,157,9999,9999,9999,2263608436
629,21,Ticks_Linear_5,158,9999,9999,9999,2264398916
629,21,Ticks_Linear_5,159,9999,9999,9999,2265188408
629,21,Ticks_Linear_5,160,9999,9999,9999,2265988184
629,21,Ticks_Linear_5,161,9999,9999,9999,2266788956
629,21,Ticks_Linear_5,162,9999,9999,9999,2267588680
629,21,Ticks_Linear_5,163,9999,9999,9999,2268388476
629,21,Ticks_Linear_5,164,9999,9999,9999,2269188152
629,21,Ticks_Linear_5,165,9999,9999,9999,2269998148
629,21,Ticks_Linear_5,166,9999,9999,9999,2270808132
629,21,Ticks_Linear_5,167,9999,9999,9999,2271618172
629,21,Ticks_Linear_5,168,9999,9999,9999,2272428156
629,21,Ticks_Linear_5,169,9999,9999,9999,2273238136
6210,20,Ticks_Linear_8,0,5,42,127,2283335996
6210,20,Ticks_Linear_8,1,5,42,127,2284156260
6210,20,Ticks_Linear_8,2,1,48,29,2284561048
6210,20,Ticks_Linear_8,3,5,42,127,2284975456
6210,20,Ticks_Linear_8,4,1,48,38,2285108008
6210,20,Ticks_Linear_8,5,1,48,42,2285731764
6210,20,Ticks_Linear_8,6,5,42,127,2285795764
6210,20,Ticks_Linear_8,7,1,48,45,2286578620
6210,20,Ticks_Linear_8,8,5,42,127,2286616032
6210,20,Ticks_Linear_8,9,1,48,40,2287380140
6210,20,Ticks_Linear_8,10,5,42,127,2287425792
6210,20,Ticks_Linear_8,11,5,42,127,2288235784
6210,20,Ticks_Linear_8,12,1,48,43,2288242044
6210,20,Ticks_Linear_8,13,1,48,39,2289018912
6210,20,Ticks_Linear_8,14,5,42,127,2289045760
6210,20,Ticks_Linear_8,15,1,48,42,2289802076
6210,20,Ticks_Linear_8,16,5,42,127,2289855744
6210,20,Ticks_Linear_8,17,1,48,44,2290613104
6210,20,Ticks_Linear_8,18,5,42,127,2290665800
6210,20,Ticks_Linear_8,19,1,48,47,2291425572
6210,20,Ticks_Linear_8,20,5,42,127,2291465920
6210,20,Ticks_Linear_8,21,1,48,48,2292262156
6210,20,Ticks_Linear_8,22,5,42,127,2292266468
6210,20,Ticks_Linear_8,23,1,48,44,2293028484
6210,20,Ticks_Linear_8,24,5,42,127,2293066192
6210,20,Ticks_Linear_8,25,5,42,127,2293865924
6210,20,Ticks_Linear_8,26,1,48,50,2293896904
6210,20,Ticks_Linear_8,27,5,42,127,2294665724
6210,20,Ticks_Linear_8,28,1,48,48,2294726584
6210,20,Ticks_Linear_8,29,1,48,46,2295359808
6210,20,Ticks_Linear_8,30,5,42,127,2295456080
6210,20,Ticks_Linear_8,31,1,48,41,2296170764
6210,20,Ticks_Linear_8,32,5,42,127,2296245692
6210,20,Ticks_Linear_8,33,1,48,40,2297005764
6210,20,Ticks_Linear_8,34,5,42,127,2297036132
6210,20,Ticks_Linear_8,35,1,48,42,2297737344
6210,20,Ticks_Linear_8,36,5,42,127,2297825596
6210,20,Ticks_Linear_8,37,1,48,46,2298517744
6210,20,Ticks_Linear_8,38,5,42,127,2298616196
6210,20,Ticks_Linear_8,39,1,48,40,2299327876
6210,20,Ticks_Linear_8,40,5,42,127,2299395636
6210,20,Ticks_Linear_8,41,1,48,47,2300088056
6210,20,Ticks_Linear_8,42,5,42,127,2300175592
6210,20,Ticks_Linear_8,43,5,42,127,2300956000
6210,20,Ticks_Linear_8,44,1,48,46,2300973804
6210,20,Ticks_Linear_8,45,5,42,127,2301736552
6210,20,Ticks_Linear_8,46,1,48,46,2301749928
6210,20,Ticks_Linear_8,47,1,48,31,2301793576
6210,20,Ticks_Linear_8,48,1,48,46,2302506996
6210,20,Ticks_Linear_8,49,5,42,127,2302515580
6210,20,Ticks_Linear_8,50,5,42,127,2303285728
6210,20,Ticks_Linear_8,51,1,48,47,2303310044
6210,20,Ticks_Linear_8,52,1,48,32,2303354060
6210,20,Ticks_Linear_8,53,5,42,127,2304055552
6210,20,Ticks_Linear_8,54,1,48,44,2304108996
6210,20,Ticks_Linear_8,55,5,42,127,2304825840
6210,20,Ticks_Linear_8,56,1,48,39,2304838700
6210,20,Ticks_Linear_8,57,5,42,127,2305595760
6210,20,Ticks_Linear_8,58,1,48,41,2305666656
6210,20,Ticks_Linear_8,59,5,42,127,2306365752
6210,20,Ticks_Linear_8,60,1,48,41,2306440912
6210,20,Ticks_Linear_8,61,1,48,51,2307124356
6210,20,Ticks_Linear_8,62,5,42,127,2307125780
6210,20,Ticks_Linear_8,63,1,48,33,2307169848
6210,20,Ticks_Linear_8,64,1,48,48,2307837376
6210,20,Ticks_Linear_8,65,1,48,35,2307881604
6210,20,Ticks_Linear_8,66,5,42,127,2307885396
6210,20,Ticks_Linear_8,67,1,48,42,2308642012
6210,20,Ticks_Linear_8,68,5,42,127,2308646400
6210,20,Ticks_Linear_8,69,1,48,46,2309372464
6210,20,Ticks_Linear_8,70,5,42,127,2309406060
6210,20,Ticks_Linear_8,71,1,48,48,2310094664
6210,20,Ticks_Linear_8,72,1,48,33,2310143408
6210,20,Ticks_Linear_8,73,5,42,127,2310165848
6210,20,Ticks_Linear_8,74,1,48,49,2310870028
6210,20,Ticks_Linear_8,75,1,48,33,2310911960
6210,20,Ticks_Linear_8,76,5,42,127,2310915676
6210,20,Ticks_Linear_8,77,5,42,127,2311665984
6210,20,Ticks_Linear_8,78,1,48,38,2311667172
6210,20,Ticks_Linear_8,79,5,42,127,2312415656
6210,20,Ticks_Linear_8,80,1,48,39,2312437448
6210,20,Ticks_Linear_8,81,1,48,39,2313129804
6210,20,Ticks_Linear_8,82,5,42,127,2313166320
6210,20,Ticks_Linear_8,83,5,42,127,2313915804
6210,20,Ticks_Linear_8,84,1,48,32,2313977736
6210,20,Ticks_Linear_8,85,5,42,127,2314656216
6210,20,Ticks_Linear_8,86,1,48,47,2314688168
6210,20,Ticks_Linear_8,87,1,48,31,2314728884
6210,20,Ticks_Linear_8,88,1,48,35,2315274348
6210,20,Ticks_Linear_8,89,5,42,127,2315395312
6210,20,Ticks_Linear_8,90,1,48,50,2316038644
6210,20,Ticks_Linear_8,91,1,48,36,2316081600
6210,20,Ticks_Linear_8,92,5,42,127,2316135720
6210,20,Ticks_Linear_8,93,1,48,47,2316841260
6210,20,Ticks_Linear_8,94,5,42,127,2316876128
6210,20,Ticks_Linear_8,95,1,48,31,2316888076
6210,20,Ticks_Linear_8,96,1,48,51,2317582400
6210,20,Ticks_Linear_8,97,5,42,127,2317615620
6210,20,Ticks_Linear_8,98,1,48,35,2317635500
6210,20,Ticks_Linear_8,99,5,42,127,2318345608
6210,20,Ticks_Linear_8,100,1,48,52,2318353604
6210,20,Ticks_Linear_8,101,1,48,37,2318415284
6210,20,Ticks_Linear_8,102,5,42,127,2319075716
6210,20,Ticks_Linear_8,103,1,48,42,2319123576
6210,20,Ticks_Linear_8,104,1,48,28,2319177020
6210,20,Ticks_Linear_8,105,1,48,48,2319776668
6210,20,Ticks_Linear_8,106,5,42,127,2319805692
6210,20,Ticks_Linear_8,107,1,48,34,2319836052
6210,20,Ticks_Linear_8,108,5,42,127,2320536052
6210,20,Ticks_Linear_8,109,1,48,52,2320571068
6210,20,Ticks_Linear_8,110,1,48,36,2320671348
6210,20,Ticks_Linear_8,111,5,42,127,2321266256
6210,20,Ticks_Linear_8,112,1,48,41,2321342540
6210,20,Ticks_Linear_8,113,5,42,127,2321985852
6210,20,Ticks_Linear_8,114,1,48,39,2322090668
6210,20,Ticks_Linear_8,115,5,42,127,2322705820
6210,20,Ticks_Linear_8,116,1,48,31,2322798132
6210,20,Ticks_Linear_8,117,5,42,127,2323425688
6210,20,Ticks_Linear_8,118,1,48,47,2323497656
6210,20,Ticks_Linear_8,119,1,48,44,2324089664
6210,20,Ticks_Linear_8,120,5,42,127,2324145428
6210,20,Ticks_Linear_8,121,1,48,45,2324805520
6210,20,Ticks_Linear_8,122,5,42,127,2324866296
6210,20,Ticks_Linear_8,123,1,48,44,2325537172
6210,20,Ticks_Linear_8,124,5,42,127,2325586412
6210,20,Ticks_Linear_8,125,1,48,47,2326271440
6210,20,Ticks_Linear_8,126,5,42,127,2326296120
6210,20,Ticks_Linear_8,127,1,48,32,2326318624
6210,20,Ticks_Linear_8,128,5,42,127,2327005568
6210,20,Ticks_Linear_8,129,1,48,43,2327008236
6210,20,Ticks_Linear_8,130,5,42,127,2327716324
6210,20,Ticks_Linear_8,131,1,48,47,2327717736
6210,20,Ticks_Linear_8,132,5,42,127,2328425736
6210,20,Ticks_Linear_8,133,1,48,45,2328440016
6210,20,Ticks_Linear_8,134,5,42,127,2329126236
6210,20,Ticks_Linear_8,135,1,48,46,2329146880
6210,20,Ticks_Linear_8,136,1,48,39,2329809436
6210,20,Ticks_Linear_8,137,5,42,127,2329825652
6210,20,Ticks_Linear_8,138,1,48,40,2330491652
6210,20,Ticks_Linear_8,139,5,42,127,2330526148
6210,20,Ticks_Linear_8,140,5,42,127,2331225456
6210,20,Ticks_Linear_8,141,1,48,42,2331284968
6210,20,Ticks_Linear_8,142,1,48,39,2331903432
6210,20,Ticks_Linear_8,143,5,42,127,2331926096
6210,20,Ticks_Linear_8,144,1,48,46,2332561672
6210,20,Ticks_Linear_8,145,5,42,127,2332616308
6210,20,Ticks_Linear_8,146,1,48,47,2333236112
6210,20,Ticks_Linear_8,147,1,48,33,2333279748
6210,20,Ticks_Linear_8,148,5,42,127,2333306224
6210,20,Ticks_Linear_8,149,1,48,41,2333954040
6210,20,Ticks_Linear_8,150,5,42,127,2333996392
6210,20,Ticks_Linear_8,151,1,48,47,2334627032
6210,20,Ticks_Linear_8,152,1,48,33,2334674412
6210,20,Ticks_Linear_8,153,5,42,127,2334685608
6210,20,Ticks_Linear_8,154,1,48,48,2335330720
6210,20,Ticks_Linear_8,155,5,42,127,2335375624
6210,20,Ticks_Linear_8,156,1,48,52,2336012344
6210,20,Ticks_Linear_8,157,5,42,127,2336055896
6210,20,Ticks_Linear_8,158,1,48,47,2336685040
6210,20,Ticks_Linear_8,159,1,48,34,2336724028
6210,20,Ticks_Linear_8,160,5,42,127,2336735756
6210,20,Ticks_Linear_8,161,1,48,48,2337372924
6210,20,Ticks_Linear_8,162,5,42,127,2337415584
6210,20,Ticks_Linear_8,163,1,48,34,2337419212
6210,20,Ticks_Linear_8,164,1,48,51,2338075504
6210,20,Ticks_Linear_8,165,5,42,127,2338095544
6210,20,Ticks_Linear_8,166,1,48,36,2338121936
6210,20,Ticks_Linear_8,167,1,48,53,2338731916
6210,20,Ticks_Linear_8,168,1,48,37,2338776956
6210,20,Ticks_Linear_8,169,5,42,127,2338778152
6210,20,Ticks_Linear_8,170,1,48,41,2339447528
6210,20,Ticks_Linear_8,171,5,42,127,2339456260
6210,20,Ticks_Linear_8,172,5,42,127,2340126060
6210,20,Ticks_Linear_8,173,1,48,53,2340128728
6210,20,Ticks_Linear_8,174,1,48,38,2340165404
6210,20,Ticks_Linear_8,175,1,48,41,2340766780
6210,20,Ticks_Linear_8,176,5,42,127,2340795944
6210,20,Ticks_Linear_8,177,1,48,46,2341423396
6210,20,Ticks_Linear_8,178,5,42,127,2341465368
6210,20,Ticks_Linear_8,179,1,48,30,2341475212
6210,20,Ticks_Linear_8,180,1,48,46,2342070140
6210,20,Ticks_Linear_8,181,5,42,127,2342136336
6210,20,Ticks_Linear_8,182,1,48,52,2342774844
6210,20,Ticks_Linear_8,183,5,42,127,2342795548
6210,20,Ticks_Linear_8,184,1,48,33,2342816624
6210,20,Ticks_Linear_8,185,5,42,127,2343456040
6210,20,Ticks_Linear_8,186,1,48,51,2343462300
6210,20,Ticks_Linear_8,187,1,48,37,2343503460
6210,20,Ticks_Linear_8,188,5,42,127,2344115600
6210,20,Ticks_Linear_8,189,1,48,35,2344166804
6210,20,Ticks_Linear_8,190,1,48,49,2344766324
6210,20,Ticks_Linear_8,191,5,42,127,2344775952
6210,20,Ticks_Linear_8,192,1,48,32,2344821212
6210,20,Ticks_Linear_8,193,1,48,49,2345360732
6210,20,Ticks_Linear_8,194,1,48,33,2345413964
6210,20,Ticks_Linear_8,195,5,42,127,2345435416
6210,20,Ticks_Linear_8,196,1,48,42,2345869328
6210,20,Ticks_Linear_8,197,5,42,127,2346085724
6210,20,Ticks_Linear_8,198,1,48,36,2346570120
6210,20,Ticks_Linear_8,199,5,42,127,2346735900
6210,20,Ticks_Linear_8,200,1,48,44,2347294740
6210,20,Ticks_Linear_8,201,5,42,127,2347386136
6210,20,Ticks_Linear_8,202,1,48,37,2347995360
6210,20,Ticks_Linear_8,203,5,42,127,2348035412
6210,20,Ticks_Linear_8,204,1,48,48,2348607564
6210,20,Ticks_Linear_8,205,1,48,32,2348666104
6210,20,Ticks_Linear_8,206,5,42,127,2348685912
6210,20,Ticks_Linear_8,207,1,48,52,2349285476
6210,20,Ticks_Linear_8,208,5,42,127,2349325900
6210,20,Ticks_Linear_8,209,1,48,35,2349340088
6210,20,Ticks_Linear_8,210,1,48,50,2349950372
6210,20,Ticks_Linear_8,211,5,42,127,2349965768
6210,20,Ticks_Linear_8,212,1,48,27,2350020392
6210,20,Ticks_Linear_8,213,5,42,127,2350605668
6210,20,Ticks_Linear_8,214,1,48,50,2350616052
6210,20,Ticks_Linear_8,215,1,48,57,2351220940
6210,20,Ticks_Linear_8,216,5,42,127,2351245772
6210,20,Ticks_Linear_8,217,1,48,47,2351868948
6210,20,Ticks_Linear_8,218,5,42,127,2351885836
6210,20,Ticks_Linear_8,219,1,48,54,2352459332
6210,20,Ticks_Linear_8,220,5,42,127,2352515764
6210,20,Ticks_Linear_8,221,1,48,50,2353066944
6210,20,Ticks_Linear_8,222,5,42,127,2353146244
6210,20,Ticks_Linear_8,223,1,48,50,2353689712
6210,20,Ticks_Linear_8,224,5,42,127,2353775876
6210,20,Ticks_Linear_8,225,1,48,48,2354307212
6210,20,Ticks_Linear_8,226,5,42,127,2354405788
6210,20,Ticks_Linear_8,227,1,48,50,2355000140
6210,20,Ticks_Linear_8,228,5,42,127,2355035456
6210,20,Ticks_Linear_8,229,5,42,127,2355656032
6210,20,Ticks_Linear_8,230,1,48,43,2355663860
6210,20,Ticks_Linear_8,231,1,48,47,2356223920
6210,20,Ticks_Linear_8,232,5,42,127,2356275868
6210,20,Ticks_Linear_8,233,1,48,50,2356829596
6210,20,Ticks_Linear_8,234,5,42,127,2356896060
6210,20,Ticks_Linear_8,235,1,48,50,2357447540
6210,20,Ticks_Linear_8,236,5,42,127,2357515828
6210,20,Ticks_Linear_8,237,1,48,52,2358077500
6210,20,Ticks_Linear_8,238,5,42,127,2358136172
6210,20,Ticks_Linear_8,239,1,48,52,2358700460
6210,20,Ticks_Linear_8,240,5,42,127,2358745512
6210,20,Ticks_Linear_8,241,1,48,50,2359312960
6210,20,Ticks_Linear_8,242,5,42,127,2359355916
6210,20,Ticks_Linear_8,243,1,48,49,2359923640
6210,20,Ticks_Linear_8,244,5,42,127,2359966076
6210,20,Ticks_Linear_8,245,1,48,51,2360539796
6210,20,Ticks_Linear_8,246,5,42,127,2360576412
6210,20,Ticks_Linear_8,247,1,48,46,2361168480
6210,20,Ticks_Linear_8,248,5,42,127,2361185600
6210,20,Ticks_Linear_8,249,5,42,127,2361785652
6210,20,Ticks_Linear_8,250,1,48,51,2361788552
6210,20,Ticks_Linear_8,251,5,42,127,2362385652
6210,20,Ticks_Linear_8,252,1,48,53,2362456696
6210,20,Ticks_Linear_8,253,1,48,43,2362923044
6210,20,Ticks_Linear_8,254,5,42,127,2362985844
6210,20,Ticks_Linear_8,255,1,48,42,2363550876
6210,20,Ticks_Linear_8,256,5,42,127,2363586040
6210,20,Ticks_Linear_8,257,1,48,45,2364168704
6210,20,Ticks_Linear_8,258,5,42,127,2364186044
6210,20,Ticks_Linear_8,259,1,48,45,2364748908
6210,20,Ticks_Linear_8,260,5,42,127,2364775684
6210,20,Ticks_Linear_8,261,1,48,49,2365348356
6210,20,Ticks_Linear_8,262,5,42,127,2365365696
6210,20,Ticks_Linear_8,263,1,48,45,2365907444
6210,20,Ticks_Linear_8,264,5,42,127,2365955436
6210,20,Ticks_Linear_8,265,1,48,39,2366496580
6210,20,Ticks_Linear_8,266,5,42,127,2366546568
6210,20,Ticks_Linear_8,267,1,48,44,2367114156
6210,20,Ticks_Linear_8,268,5,42,127,2367136064
6210,20,Ticks_Linear_8,269,5,42,127,2367715676
6210,20,Ticks_Linear_8,270,1,48,39,2367725112
6210,20,Ticks_Linear_8,271,1,48,39,2368284104
6210,20,Ticks_Linear_8,272,5,42,127,2368296420
6210,20,Ticks_Linear_8,273,1,48,38,2368865272
6210,20,Ticks_Linear_8,274,5,42,127,2368875800
6210,20,Ticks_Linear_8,275,5,42,127,2369455412
6210,20,Ticks_Linear_8,276,1,48,48,2369466996
6210,20,Ticks_Linear_8,277,1,48,45,2370005464
6210,20,Ticks_Linear_8,278,5,42,127,2370036008
6210,20,Ticks_Linear_8,279,1,48,43,2370559704
6210,20,Ticks_Linear_8,280,5,42,127,2370605652
6210,20,Ticks_Linear_8,281,1,48,39,2371143812
6210,20,Ticks_Linear_8,282,5,42,127,2371175896
6210,20,Ticks_Linear_8,283,1,48,42,2371712544
6210,20,Ticks_Linear_8,284,5,42,127,2371746140
6210,20,Ticks_Linear_8,285,5,42,127,2372315492
6210,20,Ticks_Linear_8,286,1,48,46,2372322876
6210,20,Ticks_Linear_8,287,5,42,127,2372885984
6210,20,Ticks_Linear_8,288,1,48,41,2372900336
6210,20,Ticks_Linear_8,289,5,42,127,2373445968
6210,20,Ticks_Linear_8,290,1,48,39,2373458080
6210,20,Ticks_Linear_8,291,5,42,127,2374006104
6210,20,Ticks_Linear_8,292,1,48,42,2374008772
6210,20,Ticks_Linear_8,293,5,42,127,2374566536
6210,20,Ticks_Linear_8,294,1,48,42,2374593168
6210,20,Ticks_Linear_8,295,1,48,47,2375054884
6210,20,Ticks_Linear_8,296,5,42,127,2375126516
6210,20,Ticks_Linear_8,297,1,48,38,2375663872
6210,20,Ticks_Linear_8,298,5,42,127,2375685404
6210,20,Ticks_Linear_8,299,1,48,38,2376189700
6210,20,Ticks_Linear_8,300,5,42,127,2376236476
6210,20,Ticks_Linear_8,301,1,48,37,2376707304
6210,20,Ticks_Linear_8,302,5,42,127,2376786272
6210,20,Ticks_Linear_8,303,1,48,42,2377311688
6210,20,Ticks_Linear_8,304,5,42,127,2377336296
6210,20,Ticks_Linear_8,305,1,48,40,2377829816
6210,20,Ticks_Linear_8,306,5,42,127,2377886020
6210,20,Ticks_Linear_8,307,1,48,43,2378406648
6210,20,Ticks_Linear_8,308,5,42,127,2378436120
6210,20,Ticks_Linear_8,309,5,42,127,2378975668
6210,20,Ticks_Linear_8,310,1,48,27,2379045016
6210,20,Ticks_Linear_8,311,1,48,40,2379506124
6210,20,Ticks_Linear_8,312,5,42,127,2379516420
6210,20,Ticks_Linear_8,313,5,42,127,2380055892
6210,20,Ticks_Linear_8,314,1,48,46,2380065084
6210,20,Ticks_Linear_8,315,1,48,43,2380585204
6210,20,Ticks_Linear_8,316,5,42,127,2380595504
6210,20,Ticks_Linear_8,317,5,42,127,2381136396
6210,20,Ticks_Linear_8,318,1,48,46,2381172312
6210,20,Ticks_Linear_8,319,1,48,44,2381635524
6210,20,Ticks_Linear_8,320,5,42,127,2381665520
6210,20,Ticks_Linear_8,321,5,42,127,2382196380
6210,20,Ticks_Linear_8,322,1,48,42,2382215532
6210,20,Ticks_Linear_8,323,1,48,44,2382688020
6210,20,Ticks_Linear_8,324,5,42,127,2382725508
6210,20,Ticks_Linear_8,325,5,42,127,2383255988
6210,20,Ticks_Linear_8,326,1,48,50,2383260908
6210,20,Ticks_Linear_8,327,5,42,127,2383786320
6210,20,Ticks_Linear_8,328,1,48,48,2383789516
6210,20,Ticks_Linear_8,329,5,42,127,2384305492
6210,20,Ticks_Linear_8,330,1,48,41,2384364732
6210,20,Ticks_Linear_8,331,1,48,42,2384786800
6210,20,Ticks_Linear_8,332,5,42,127,2384825628
6210,20,Ticks_Linear_8,333,1,48,43,2385318844
6210,20,Ticks_Linear_8,334,5,42,127,2385345996
6210,20,Ticks_Linear_8,335,1,48,47,2385844540
6210,20,Ticks_Linear_8,336,5,42,127,2385866216
6210,20,Ticks_Linear_8,337,1,48,45,2386334572
6210,20,Ticks_Linear_8,338,5,42,127,2386386284
6210,20,Ticks_Linear_8,339,1,48,44,2386863176
6210,20,Ticks_Linear_8,340,5,42,127,2386896320
6210,20,Ticks_Linear_8,341,5,42,127,2387406288
6210,20,Ticks_Linear_8,342,1,48,44,2387428056
6210,20,Ticks_Linear_8,343,1,48,40,2387889084
6210,20,Ticks_Linear_8,344,5,42,127,2387916312
6210,20,Ticks_Linear_8,345,1,48,43,2388398600
6210,20,Ticks_Linear_8,346,5,42,127,2388426200
6210,20,Ticks_Linear_8,347,1,48,47,2388897856
6210,20,Ticks_Linear_8,348,5,42,127,2388936084
6210,20,Ticks_Linear_8,349,1,48,49,2389415156
6210,20,Ticks_Linear_8,350,5,42,127,2389435860
6210,20,Ticks_Linear_8,351,1,48,41,2389898148
6210,20,Ticks_Linear_8,352,5,42,127,2389935560
6210,20,Ticks_Linear_8,353,1,48,44,2390400912
6210,20,Ticks_Linear_8,354,5,42,127,2390436084
6210,20,Ticks_Linear_8,355,1,48,45,2390902188
6210,20,Ticks_Linear_8,356,5,42,127,2390936004
6210,20,Ticks_Linear_8,357,1,48,43,2391399792
6210,20,Ticks_Linear_8,358,5,42,127,2391435780
6210,20,Ticks_Linear_8,359,1,48,40,2391891776
6210,20,Ticks_Linear_8,360,5,42,127,2391926048
6210,20,Ticks_Linear_8,361,5,42,127,2392415496
6210,20,Ticks_Linear_8,362,1,48,41,2392460696
6210,20,Ticks_Linear_8,363,1,48,42,2392831788
6210,20,Ticks_Linear_8,364,5,42,127,2392906272
6210,20,Ticks_Linear_8,365,1,48,36,2393385492
6210,20,Ticks_Linear_8,366,5,42,127,2393395640
6210,20,Ticks_Linear_8,367,1,48,36,2393836360
6210,20,Ticks_Linear_8,368,5,42,127,2393886052
6210,20,Ticks_Linear_8,0,9999,9999,9999,2283333700
6210,20,Ticks_Linear_8,1,9999,9999,9999,2284153964
6210,20,Ticks_Linear_8,2,9999,9999,9999,2284973156
6210,20,Ticks_Linear_8,3,9999,9999,9999,2285793392
6210,20,Ticks_Linear_8,4,9999,9999,9999,2286613588
6210,20,Ticks_Linear_8,5,9999,9999,9999,2287423568
6210,20,Ticks_Linear_8,6,9999,9999,9999,2288233560
6210,20,Ticks_Linear_8,7,9999,9999,9999,2289043536
6210,20,Ticks_Linear_8,8,9999,9999,9999,2289853520
6210,20,Ticks_Linear_8,9,9999,9999,9999,2290663504
6210,20,Ticks_Linear_8,10,9999,9999,9999,2291463252
6210,20,Ticks_Linear_8,11,9999,9999,9999,2292264020
6210,20,Ticks_Linear_8,12,9999,9999,9999,2293063744
6210,20,Ticks_Linear_8,13,9999,9999,9999,2293863548
6210,20,Ticks_Linear_8,14,9999,9999,9999,2294663276
6210,20,Ticks_Linear_8,15,9999,9999,9999,2295453780
6210,20,Ticks_Linear_8,16,9999,9999,9999,2296243320
6210,20,Ticks_Linear_8,17,9999,9999,9999,2297033836
6210,20,Ticks_Linear_8,18,9999,9999,9999,2297823300
6210,20,Ticks_Linear_8,19,9999,9999,9999,2298613836
6210,20,Ticks_Linear_8,20,9999,9999,9999,2299393116
6210,20,Ticks_Linear_8,21,9999,9999,9999,2300173368
6210,20,Ticks_Linear_8,22,9999,9999,9999,2300953700
6210,20,Ticks_Linear_8,23,9999,9999,9999,2301733952
6210,20,Ticks_Linear_8,24,9999,9999,9999,2302513208
6210,20,Ticks_Linear_8,25,9999,9999,9999,2303283280
6210,20,Ticks_Linear_8,26,9999,9999,9999,2304053324
6210,20,Ticks_Linear_8,27,9999,9999,9999,2304823392
6210,20,Ticks_Linear_8,28,9999,9999,9999,2305593460
6210,20,Ticks_Linear_8,29,9999,9999,9999,2306363452
6210,20,Ticks_Linear_8,30,9999,9999,9999,2307123264
6210,20,Ticks_Linear_8,31,9999,9999,9999,2307883096
6210,20,Ticks_Linear_8,32,9999,9999,9999,2308643952
6210,20,Ticks_Linear_8,33,9999,9999,9999,2309403760
6210,20,Ticks_Linear_8,34,9999,9999,9999,2310163548
6210,20,Ticks_Linear_8,35,9999,9999,9999,2310913080
6210,20,Ticks_Linear_8,36,9999,9999,9999,2311663684
6210,20,Ticks_Linear_8,37,9999,9999,9999,2312413280
6210,20,Ticks_Linear_8,38,9999,9999,9999,2313163872
6210,20,Ticks_Linear_8,39,9999,9999,9999,2313913428
6210,20,Ticks_Linear_8,40,9999,9999,9999,2314653768
6210,20,Ticks_Linear_8,41,9999,9999,9999,2315393088
6210,20,Ticks_Linear_8,42,9999,9999,9999,2316133496
6210,20,Ticks_Linear_8,43,9999,9999,9999,2316873828
6210,20,Ticks_Linear_8,44,9999,9999,9999,2317613172
6210,20,Ticks_Linear_8,45,9999,9999,9999,2318343236
6210,20,Ticks_Linear_8,46,9999,9999,9999,2319073340
6210,20,Ticks_Linear_8,47,9999,9999,9999,2319803468
6210,20,Ticks_Linear_8,48,9999,9999,9999,2320533604
6210,20,Ticks_Linear_8,49,9999,9999,9999,2321263732
6210,20,Ticks_Linear_8,50,9999,9999,9999,2321983552
6210,20,Ticks_Linear_8,51,9999,9999,9999,2322703448
6210,20,Ticks_Linear_8,52,9999,9999,9999,2323423316
6210,20,Ticks_Linear_8,53,9999,9999,9999,2324143204
6210,20,Ticks_Linear_8,54,9999,9999,9999,2324864068
6210,20,Ticks_Linear_8,55,9999,9999,9999,2325583964
6210,20,Ticks_Linear_8,56,9999,9999,9999,2326293600
6210,20,Ticks_Linear_8,57,9999,9999,9999,2327003196
6210,20,Ticks_Linear_8,58,9999,9999,9999,2327713876
6210,20,Ticks_Linear_8,59,9999,9999,9999,2328423512
6210,20,Ticks_Linear_8,60,9999,9999,9999,2329123936
6210,20,Ticks_Linear_8,61,9999,9999,9999,2329823352
6210,20,Ticks_Linear_8,62,9999,9999,9999,2330523776
6210,20,Ticks_Linear_8,63,9999,9999,9999,2331223156
6210,20,Ticks_Linear_8,64,9999,9999,9999,2331923572
6210,20,Ticks_Linear_8,65,9999,9999,9999,2332613712
6210,20,Ticks_Linear_8,66,9999,9999,9999,2333303928
6210,20,Ticks_Linear_8,67,9999,9999,9999,2333994092
6210,20,Ticks_Linear_8,68,9999,9999,9999,2334683236
6210,20,Ticks_Linear_8,69,9999,9999,9999,2335373400
6210,20,Ticks_Linear_8,70,9999,9999,9999,2336053300
6210,20,Ticks_Linear_8,71,9999,9999,9999,2336733308
6210,20,Ticks_Linear_8,72,9999,9999,9999,2337413212
6210,20,Ticks_Linear_8,73,9999,9999,9999,2338093168
6210,20,Ticks_Linear_8,74,9999,9999,9999,2338774076
6210,20,Ticks_Linear_8,75,9999,9999,9999,2339454032
6210,20,Ticks_Linear_8,76,9999,9999,9999,2340123760
6210,20,Ticks_Linear_8,77,9999,9999,9999,2340793424
6210,20,Ticks_Linear_8,78,9999,9999,9999,2341463144
6210,20,Ticks_Linear_8,79,9999,9999,9999,2342133812
6210,20,Ticks_Linear_8,80,9999,9999,9999,2342793324
6210,20,Ticks_Linear_8,81,9999,9999,9999,2343453812
6210,20,Ticks_Linear_8,82,9999,9999,9999,2344113228
6210,20,Ticks_Linear_8,83,9999,9999,9999,2344773728
6210,20,Ticks_Linear_8,84,9999,9999,9999,2345433192
6210,20,Ticks_Linear_8,85,9999,9999,9999,2346083428
6210,20,Ticks_Linear_8,86,9999,9999,9999,2346733676
6210,20,Ticks_Linear_8,87,9999,9999,9999,2347383912
6210,20,Ticks_Linear_8,88,9999,9999,9999,2348033112
6210,20,Ticks_Linear_8,89,9999,9999,9999,2348683388
6210,20,Ticks_Linear_8,90,9999,9999,9999,2349323376
6210,20,Ticks_Linear_8,91,9999,9999,9999,2349963320
6210,20,Ticks_Linear_8,92,9999,9999,9999,2350603368
6210,20,Ticks_Linear_8,93,9999,9999,9999,2351243324
6210,20,Ticks_Linear_8,94,9999,9999,9999,2351883388
6210,20,Ticks_Linear_8,95,9999,9999,9999,2352513092
6210,20,Ticks_Linear_8,96,9999,9999,9999,2353143872
6210,20,Ticks_Linear_8,97,9999,9999,9999,2353773652
6210,20,Ticks_Linear_8,98,9999,9999,9999,2354403412
6210,20,Ticks_Linear_8,99,9999,9999,9999,2355033160
6210,20,Ticks_Linear_8,100,9999,9999,9999,2355653732
6210,20,Ticks_Linear_8,101,9999,9999,9999,2356273272
6210,20,Ticks_Linear_8,102,9999,9999,9999,2356893764
6210,20,Ticks_Linear_8,103,9999,9999,9999,2357513308
6210,20,Ticks_Linear_8,104,9999,9999,9999,2358133876
6210,20,Ticks_Linear_8,105,9999,9999,9999,2358743136
6210,20,Ticks_Linear_8,106,9999,9999,9999,2359353472
6210,20,Ticks_Linear_8,107,9999,9999,9999,2359963704
6210,20,Ticks_Linear_8,108,9999,9999,9999,2360574036
6210,20,Ticks_Linear_8,109,9999,9999,9999,2361183300
6210,20,Ticks_Linear_8,110,9999,9999,9999,2361783356
6210,20,Ticks_Linear_8,111,9999,9999,9999,2362383428
6210,20,Ticks_Linear_8,112,9999,9999,9999,2362983544
6210,20,Ticks_Linear_8,113,9999,9999,9999,2363583592
6210,20,Ticks_Linear_8,114,9999,9999,9999,2364183668
6210,20,Ticks_Linear_8,115,9999,9999,9999,2364773460
6210,20,Ticks_Linear_8,116,9999,9999,9999,2365363324
6210,20,Ticks_Linear_8,117,9999,9999,9999,2365953136
6210,20,Ticks_Linear_8,118,9999,9999,9999,2366543972
6210,20,Ticks_Linear_8,119,9999,9999,9999,2367133764
6210,20,Ticks_Linear_8,120,9999,9999,9999,2367713376
6210,20,Ticks_Linear_8,121,9999,9999,9999,2368293972
6210,20,Ticks_Linear_8,122,9999,9999,9999,2368873576
6210,20,Ticks_Linear_8,123,9999,9999,9999,2369453112
6210,20,Ticks_Linear_8,124,9999,9999,9999,2370033784
6210,20,Ticks_Linear_8,125,9999,9999,9999,2370603132
6210,20,Ticks_Linear_8,126,9999,9999,9999,2371173448
6210,20,Ticks_Linear_8,127,9999,9999,9999,2371743840
6210,20,Ticks_Linear_8,128,9999,9999,9999,2372313196
6210,20,Ticks_Linear_8,129,9999,9999,9999,2372883536
6210,20,Ticks_Linear_8,130,9999,9999,9999,2373443668
6210,20,Ticks_Linear_8,131,9999,9999,9999,2374003804
6210,20,Ticks_Linear_8,132,9999,9999,9999,2374563936
6210,20,Ticks_Linear_8,133,9999,9999,9999,2375124064
6210,20,Ticks_Linear_8,134,9999,9999,9999,2375683176
6210,20,Ticks_Linear_8,135,9999,9999,9999,2376234100
6210,20,Ticks_Linear_8,136,9999,9999,9999,2376783972
6210,20,Ticks_Linear_8,137,9999,9999,9999,2377333848
6210,20,Ticks_Linear_8,138,9999,9999,9999,2377883724
6210,20,Ticks_Linear_8,139,9999,9999,9999,2378433596
6210,20,Ticks_Linear_8,140,9999,9999,9999,2378973292
6210,20,Ticks_Linear_8,141,9999,9999,9999,2379513976
6210,20,Ticks_Linear_8,142,9999,9999,9999,2380053596
6210,20,Ticks_Linear_8,143,9999,9999,9999,2380593204
6210,20,Ticks_Linear_8,144,9999,9999,9999,2381133948
6210,20,Ticks_Linear_8,145,9999,9999,9999,2381663296
6210,20,Ticks_Linear_8,146,9999,9999,9999,2382193784
6210,20,Ticks_Linear_8,147,9999,9999,9999,2382723132
6210,20,Ticks_Linear_8,148,9999,9999,9999,2383253616
6210,20,Ticks_Linear_8,149,9999,9999,9999,2383784020
6210,20,Ticks_Linear_8,150,9999,9999,9999,2384303192
6210,20,Ticks_Linear_8,151,9999,9999,9999,2384823404
6210,20,Ticks_Linear_8,152,9999,9999,9999,2385343548
6210,20,Ticks_Linear_8,153,9999,9999,9999,2385863768
6210,20,Ticks_Linear_8,154,9999,9999,9999,2386383984
6210,20,Ticks_Linear_8,155,9999,9999,9999,2386893948
6210,20,Ticks_Linear_8,156,9999,9999,9999,2387403840
6210,20,Ticks_Linear_8,157,9999,9999,9999,2387913792
6210,20,Ticks_Linear_8,158,9999,9999,9999,2388423752
6210,20,Ticks_Linear_8,159,9999,9999,9999,2388933712
6210,20,Ticks_Linear_8,160,9999,9999,9999,2389433412
6210,20,Ticks_Linear_8,161,9999,9999,9999,2389933112
6210,20,Ticks_Linear_8,162,9999,9999,9999,2390433860
6210,20,Ticks_Linear_8,163,9999,9999,9999,2390933560
6210,20,Ticks_Linear_8,164,9999,9999,9999,2391433332
6210,20,Ticks_Linear_8,165,9999,9999,9999,2391923824
6210,20,Ticks_Linear_8,166,9999,9999,9999,2392413268
6210,20,Ticks_Linear_8,167,9999,9999,9999,2392903752
6210,20,Ticks_Linear_8,168,9999,9999,9999,2393393264
6210,20,Ticks_Linear_8,169,9999,9999,9999,2393883756
6211,25,Jits_Pract_5,0,5,56,103,2444504396
6211,25,Jits_Pract_5,1,5,63,98,2444507564
6211,25,Jits_Pract_5,2,5,80,127,2444510612
6211,25,Jits_Pract_5,0,5,56,103,2445005240
6211,25,Jits_Pract_5,1,5,63,98,2445008492
6211,25,Jits_Pract_5,2,5,80,127,2445011536
6211,25,Jits_Pract_5,0,5,56,103,2445504832
6211,25,Jits_Pract_5,1,5,80,127,2445515104
6211,25,Jits_Pract_5,2,5,63,98,2445534516
6211,25,Jits_Pract_5,0,5,63,98,2445954456
6211,25,Jits_Pract_5,1,5,80,127,2445985328
6211,25,Jits_Pract_5,2,5,56,103,2445995300
6211,25,Jits_Pract_5,0,5,80,127,2446514496
6211,25,Jits_Pract_5,1,5,56,103,2446524988
6211,25,Jits_Pract_5,2,5,63,98,2446554516
6211,25,Jits_Pract_5,0,5,63,98,2447005028
6211,25,Jits_Pract_5,1,5,56,103,2447034628
6211,25,Jits_Pract_5,2,5,80,127,2447045272
6211,25,Jits_Pract_5,0,5,56,103,2447454488
6211,25,Jits_Pract_5,1,5,63,98,2447504692
6211,25,Jits_Pract_5,2,5,80,127,2447525376
6211,25,Jits_Pract_5,0,5,80,127,2447955280
6211,25,Jits_Pract_5,1,5,63,98,2448004660
6211,25,Jits_Pract_5,2,5,56,103,2448045420
6211,25,Jits_Pract_5,0,5,56,103,2448455096
6211,25,Jits_Pract_5,1,5,63,98,2448484624
6211,25,Jits_Pract_5,2,5,80,127,2448555352
6211,25,Jits_Pract_5,0,5,56,103,2448954696
6211,25,Jits_Pract_5,1,5,80,127,2449015084
6211,25,Jits_Pract_5,2,5,63,98,2449045132
6211,25,Jits_Pract_5,0,5,56,103,2449464556
6211,25,Jits_Pract_5,1,5,63,98,2449475048
6211,25,Jits_Pract_5,2,5,80,127,2449514912
6211,25,Jits_Pract_5,0,5,63,98,2449955228
6211,25,Jits_Pract_5,1,5,80,127,2450035100
6211,25,Jits_Pract_5,2,5,56,103,2450045444
6211,25,Jits_Pract_5,0,5,63,98,2450505232
6211,25,Jits_Pract_5,1,5,56,103,2450545092
6211,25,Jits_Pract_5,2,5,80,127,2450548012
6211,25,Jits_Pract_5,0,5,56,103,2450965024
6211,25,Jits_Pract_5,1,5,63,98,2450974996
6211,25,Jits_Pract_5,2,5,80,127,2451014932
6211,25,Jits_Pract_5,0,5,56,103,2451455324
6211,25,Jits_Pract_5,1,5,63,98,2451458464
6211,25,Jits_Pract_5,2,5,80,127,2451474884
6211,25,Jits_Pract_5,0,9999,9999,9999,2444752952
6211,25,Jits_Pract_5,1,9999,9999,9999,2445252676
6211,25,Jits_Pract_5,2,9999,9999,9999,2445752424
6211,25,Jits_Pract_5,3,9999,9999,9999,2446252088
6211,25,Jits_Pract_5,4,9999,9999,9999,2446752868
6211,25,Jits_Pract_5,5,9999,9999,9999,2447252544
6211,25,Jits_Pract_5,6,9999,9999,9999,2447752276
6211,25,Jits_Pract_5,7,9999,9999,9999,2448252992
6211,25,Jits_Pract_5,8,9999,9999,9999,2448752732
6211,25,Jits_Pract_5,9,9999,9999,9999,2449252404
6211,25,Jits_Pract_5,10,9999,9999,9999,2449752148
6211,25,Jits_Pract_5,11,9999,9999,9999,2450252864
6211,25,Jits_Pract_5,12,9999,9999,9999,2450752588
6211,25,Jits_Pract_5,13,9999,9999,9999,2451252320
6211,25,Jits_Pract_5,14,9999,9999,9999,2451753020
6212,25,Jits_Pract_5,0,5,56,103,2490518840
6212,25,Jits_Pract_5,1,5,63,98,2490522008
6212,25,Jits_Pract_5,2,5,80,127,2490525208
6212,25,Jits_Pract_5,0,5,56,103,2491018564
6212,25,Jits_Pract_5,1,5,63,98,2491021660
6212,25,Jits_Pract_5,2,5,80,127,2491024784
6212,25,Jits_Pract_5,0,5,56,103,2491519356
6212,25,Jits_Pract_5,1,5,80,127,2491528504
6212,25,Jits_Pract_5,2,5,63,98,2491549260
6212,25,Jits_Pract_5,0,5,63,98,2491968980
6212,25,Jits_Pract_5,1,5,80,127,2491998432
6212,25,Jits_Pract_5,2,5,56,103,2492008848
6212,25,Jits_Pract_5,0,5,80,127,2492529016
6212,25,Jits_Pract_5,1,5,56,103,2492539212
6212,25,Jits_Pract_5,2,5,63,98,2492568812
6212,25,Jits_Pract_5,0,5,63,98,2493018428
6212,25,Jits_Pract_5,1,5,56,103,2493049372
6212,25,Jits_Pract_5,2,5,80,127,2493058372
6212,25,Jits_Pract_5,0,5,56,103,2493469008
6212,25,Jits_Pract_5,1,5,63,98,2493519284
6212,25,Jits_Pract_5,2,5,80,127,2493538548
6212,25,Jits_Pract_5,0,5,80,127,2493968752
6212,25,Jits_Pract_5,1,5,63,98,2494018880
6212,25,Jits_Pract_5,2,5,56,103,2494058740
6212,25,Jits_Pract_5,0,5,56,103,2494468344
6212,25,Jits_Pract_5,1,5,63,98,2494499368
6212,25,Jits_Pract_5,2,5,80,127,2494568748
6212,25,Jits_Pract_5,0,5,56,103,2494969284
6212,25,Jits_Pract_5,1,5,80,127,2495028704
6212,25,Jits_Pract_5,2,5,63,98,2495059352
6212,25,Jits_Pract_5,0,5,56,103,2495479220
6212,25,Jits_Pract_5,1,5,63,98,2495489492
6212,25,Jits_Pract_5,2,5,80,127,2495529280
6212,25,Jits_Pract_5,0,5,63,98,2495968524
6212,25,Jits_Pract_5,1,5,80,127,2496048572
6212,25,Jits_Pract_5,2,5,56,103,2496058840
6212,25,Jits_Pract_5,0,5,63,98,2496518480
6212,25,Jits_Pract_5,1,5,56,103,2496558420
6212,25,Jits_Pract_5,2,5,80,127,2496561484
6212,25,Jits_Pract_5,0,5,56,103,2496979220
6212,25,Jits_Pract_5,1,5,63,98,2496988516
6212,25,Jits_Pract_5,2,5,80,127,2497028552
6212,25,Jits_Pract_5,0,5,56,103,2497468768
6212,25,Jits_Pract_5,1,5,63,98,2497471908
6212,25,Jits_Pract_5,2,5,80,127,2497489300
6212,25,Jits_Pract_5,0,9999,9999,9999,2490766428
6212,25,Jits_Pract_5,1,9999,9999,9999,2491266152
6212,25,Jits_Pract_5,2,9999,9999,9999,2491766872
6212,25,Jits_Pract_5,3,9999,9999,9999,2492266612
6212,25,Jits_Pract_5,4,9999,9999,9999,2492766272
6212,25,Jits_Pract_5,5,9999,9999,9999,2493267064
6212,25,Jits_Pract_5,6,9999,9999,9999,2493766720
6212,25,Jits_Pract_5,7,9999,9999,9999,2494266460
6212,25,Jits_Pract_5,8,9999,9999,9999,2494766132
6212,25,Jits_Pract_5,9,9999,9999,9999,2495266924
6212,25,Jits_Pract_5,10,9999,9999,9999,2495766592
6212,25,Jits_Pract_5,11,9999,9999,9999,2496266340
6212,25,Jits_Pract_5,12,9999,9999,9999,2496767036
6212,25,Jits_Pract_5,13,9999,9999,9999,2497266764
6212,25,Jits_Pract_5,14,9999,9999,9999,2497766492
6213,25,Jits_Pract_5,0,5,56,103,2516553024
6213,25,Jits_Pract_5,1,5,63,98,2516556120
6213,25,Jits_Pract_5,2,5,80,127,2516559320
6213,25,Jits_Pract_5,0,5,56,103,2517052828
6213,25,Jits_Pract_5,1,5,63,98,2517055852
6213,25,Jits_Pract_5,2,5,80,127,2517059048
6213,25,Jits_Pract_5,3,1,48,33,2517126000
6213,25,Jits_Pract_5,0,1,48,35,2517518704
6213,25,Jits_Pract_5,1,5,56,103,2517552528
6213,25,Jits_Pract_5,2,5,80,127,2517563020
6213,25,Jits_Pract_5,3,5,63,98,2517583108
6213,25,Jits_Pract_5,0,5,63,98,2518003076
6213,25,Jits_Pract_5,1,1,48,48,2518031008
6213,25,Jits_Pract_5,2,5,80,127,2518032672
6213,25,Jits_Pract_5,3,5,56,103,2518043016
6213,25,Jits_Pract_5,4,1,48,29,2518085524
6213,25,Jits_Pract_5,0,1,48,51,2518524792
6213,25,Jits_Pract_5,1,5,80,127,2518563180
6213,25,Jits_Pract_5,2,5,56,103,2518573452
6213,25,Jits_Pract_5,3,5,63,98,2518603052
6213,25,Jits_Pract_5,0,1,48,49,2519041580
6213,25,Jits_Pract_5,1,5,63,98,2519052616
6213,25,Jits_Pract_5,2,5,56,103,2519083412
6213,25,Jits_Pract_5,3,5,80,127,2519092712
6213,25,Jits_Pract_5,0,5,56,103,2519503140
6213,25,Jits_Pract_5,1,5,63,98,2519553296
6213,25,Jits_Pract_5,2,5,80,127,2519572928
6213,25,Jits_Pract_5,3,1,48,53,2519587804
6213,25,Jits_Pract_5,0,5,80,127,2520002996
6213,25,Jits_Pract_5,1,1,48,45,2520013756
6213,25,Jits_Pract_5,2,5,63,98,2520053068
6213,25,Jits_Pract_5,3,5,56,103,2520092932
6213,25,Jits_Pract_5,0,1,48,50,2520486776
6213,25,Jits_Pract_5,1,5,56,103,2520502696
6213,25,Jits_Pract_5,2,5,63,98,2520533640
6213,25,Jits_Pract_5,3,5,80,127,2520603032
6213,25,Jits_Pract_5,0,1,48,44,2520958960
6213,25,Jits_Pract_5,1,5,56,103,2521003428
6213,25,Jits_Pract_5,2,5,80,127,2521062708
6213,25,Jits_Pract_5,3,5,63,98,2521092532
6213,25,Jits_Pract_5,0,1,48,52,2521478136
6213,25,Jits_Pract_5,1,5,56,103,2521513232
6213,25,Jits_Pract_5,2,5,63,98,2521522828
6213,25,Jits_Pract_5,3,5,80,127,2521562468
6213,25,Jits_Pract_5,0,1,48,56,2521982036
6213,25,Jits_Pract_5,1,5,63,98,2522002884
6213,25,Jits_Pract_5,2,5,80,127,2522083140
6213,25,Jits_Pract_5,3,5,56,103,2522092964
6213,25,Jits_Pract_5,0,1,48,56,2522478344
6213,25,Jits_Pract_5,1,5,63,98,2522552628
6213,25,Jits_Pract_5,2,5,56,103,2522592856
6213,25,Jits_Pract_5,3,5,80,127,2522595916
6213,25,Jits_Pract_5,0,1,48,47,2522995920
6213,25,Jits_Pract_5,1,5,56,103,2523012728
6213,25,Jits_Pract_5,2,5,63,98,2523023000
6213,25,Jits_Pract_5,3,5,80,127,2523062640
6213,25,Jits_Pract_5,0,5,56,103,2523502832
6213,25,Jits_Pract_5,1,1,48,45,2523505904
6213,25,Jits_Pract_5,2,5,63,98,2523507168
6213,25,Jits_Pract_5,3,5,80,127,2523522688
6213,25,Jits_Pract_5,0,9999,9999,9999,2516800612
6213,25,Jits_Pract_5,1,9999,9999,9999,2517300320
6213,25,Jits_Pract_5,2,9999,9999,9999,2517801076
6213,25,Jits_Pract_5,3,9999,9999,9999,2518300744
6213,25,Jits_Pract_5,4,9999,9999,9999,2518800492
6213,25,Jits_Pract_5,5,9999,9999,9999,2519300192
6213,25,Jits_Pract_5,6,9999,9999,9999,2519800928
6213,25,Jits_Pract_5,7,9999,9999,9999,2520300636
6213,25,Jits_Pract_5,8,9999,9999,9999,2520800316
6213,25,Jits_Pract_5,9,9999,9999,9999,2521301048
6213,25,Jits_Pract_5,10,9999,9999,9999,2521800812
6213,25,Jits_Pract_5,11,9999,9999,9999,2522300508
6213,25,Jits_Pract_5,12,9999,9999,9999,2522800248
6213,25,Jits_Pract_5,13,9999,9999,9999,2523300984
6213,25,Jits_Pract_5,14,9999,9999,9999,2523800660
6214,24,Jits_Pract_8,0,5,56,103,2529886596
6214,24,Jits_Pract_8,1,5,63,98,2529889540
6214,24,Jits_Pract_8,2,5,80,127,2529892664
6214,24,Jits_Pract_8,0,1,48,29,2530303996
6214,24,Jits_Pract_8,1,5,56,103,2530687484
6214,24,Jits_Pract_8,2,5,63,98,2530690508
6214,24,Jits_Pract_8,3,5,80,127,2530693556
6214,24,Jits_Pract_8,4,1,48,29,2530835528
6214,24,Jits_Pract_8,0,5,80,127,2531426760
6214,24,Jits_Pract_8,1,1,48,40,2531476108
6214,24,Jits_Pract_8,2,5,63,98,2531516736
6214,24,Jits_Pract_8,3,5,56,103,2531526932
6214,24,Jits_Pract_8,0,1,48,45,2532246536
6214,24,Jits_Pract_8,1,5,56,103,2532248024
6214,24,Jits_Pract_8,2,5,63,98,2532257024
6214,24,Jits_Pract_8,3,5,80,127,2532347460
6214,24,Jits_Pract_8,0,1,48,48,2532999052
6214,24,Jits_Pract_8,1,5,63,98,2533016912
6214,24,Jits_Pract_8,2,5,80,127,2533046588
6214,24,Jits_Pract_8,3,5,56,103,2533077460
6214,24,Jits_Pract_8,0,1,48,44,2533749576
6214,24,Jits_Pract_8,1,5,56,103,2533816592
6214,24,Jits_Pract_8,2,5,80,127,2533916924
6214,24,Jits_Pract_8,3,5,63,98,2533967496
6214,24,Jits_Pract_8,0,5,56,103,2534616432
6214,24,Jits_Pract_8,1,5,80,127,2534666512
6214,24,Jits_Pract_8,2,1,48,44,2534668376
6214,24,Jits_Pract_8,3,5,63,98,2534706668
6214,24,Jits_Pract_8,0,1,48,46,2535355184
6214,24,Jits_Pract_8,1,5,80,127,2535446860
6214,24,Jits_Pract_8,2,5,63,98,2535476524
6214,24,Jits_Pract_8,3,5,56,103,2535547468
6214,24,Jits_Pract_8,0,1,48,46,2536231380
6214,24,Jits_Pract_8,1,5,63,98,2536277560
6214,24,Jits_Pract_8,2,5,56,103,2536306940
6214,24,Jits_Pract_8,3,5,80,127,2536366416
6214,24,Jits_Pract_8,0,1,48,27,2537016644
6214,24,Jits_Pract_8,1,5,56,103,2537018152
6214,24,Jits_Pract_8,2,5,80,127,2537020676
6214,24,Jits_Pract_8,3,5,63,98,2537136496
6214,24,Jits_Pract_8,0,1,48,33,2537846856
6214,24,Jits_Pract_8,1,5,56,103,2537897296
6214,24,Jits_Pract_8,2,5,80,127,2537937384
6214,24,Jits_Pract_8,3,5,63,98,2537946444
6214,24,Jits_Pract_8,0,5,56,103,2538657356
6214,24,Jits_Pract_8,1,1,48,41,2538673656
6214,24,Jits_Pract_8,2,5,80,127,2538676540
6214,24,Jits_Pract_8,3,5,63,98,2538756432
6214,24,Jits_Pract_8,0,5,80,127,2539446720
6214,24,Jits_Pract_8,1,1,48,46,2539505912
6214,24,Jits_Pract_8,2,5,56,103,2539546988
6214,24,Jits_Pract_8,3,5,63,98,2539557408
6214,24,Jits_Pract_8,0,5,63,98,2540216828
6214,24,Jits_Pract_8,1,5,80,127,2540277244
6214,24,Jits_Pract_8,2,5,56,103,2540287440
6214,24,Jits_Pract_8,3,1,48,47,2540317456
6214,24,Jits_Pract_8,0,1,48,52,2540944088
6214,24,Jits_Pract_8,1,5,56,103,2541016428
6214,24,Jits_Pract_8,2,5,63,98,2541087016
6214,24,Jits_Pract_8,3,5,80,127,2541090528
6214,24,Jits_Pract_8,0,9999,9999,9999,2530284624
6214,24,Jits_Pract_8,1,9999,9999,9999,2531084372
6214,24,Jits_Pract_8,2,9999,9999,9999,2531884108
6214,24,Jits_Pract_8,3,9999,9999,9999,2532684852
6214,24,Jits_Pract_8,4,9999,9999,9999,2533484604
6214,24,Jits_Pract_8,5,9999,9999,9999,2534284364
6214,24,Jits_Pract_8,6,9999,9999,9999,2535084116
6214,24,Jits_Pract_8,7,9999,9999,9999,2535884860
6214,24,Jits_Pract_8,8,9999,9999,9999,2536684652
6214,24,Jits_Pract_8,9,9999,9999,9999,2537484396
6214,24,Jits_Pract_8,10,9999,9999,9999,2538284084
6214,24,Jits_Pract_8,11,9999,9999,9999,2539084888
6214,24,Jits_Pract_8,12,9999,9999,9999,2539884596
6214,24,Jits_Pract_8,13,9999,9999,9999,2540684364
6214,24,Jits_Pract_8,14,9999,9999,9999,2541484112
6215,17,Jits_Phase_5,0,5,56,103,2566969940
6215,17,Jits_Phase_5,1,5,63,98,2566972888
6215,17,Jits_Phase_5,2,5,80,127,2566976012
6215,17,Jits_Phase_5,0,5,56,103,2567469572
6215,17,Jits_Phase_5,1,1,48,35,2567472140
6215,17,Jits_Phase_5,2,5,63,98,2567473936
6215,17,Jits_Phase_5,3,5,80,127,2567476760
6215,17,Jits_Phase_5,0,1,48,51,2567942404
6215,17,Jits_Phase_5,1,5,56,103,2567970152
6215,17,Jits_Phase_5,2,5,80,127,2567980272
6215,17,Jits_Phase_5,3,1,48,32,2567991168
6215,17,Jits_Phase_5,4,5,63,98,2567999960
6215,17,Jits_Phase_5,0,1,48,54,2568418768
6215,17,Jits_Phase_5,1,5,63,98,2568420256
6215,17,Jits_Phase_5,2,5,80,127,2568450532
6215,17,Jits_Phase_5,3,5,56,103,2568459756
6215,17,Jits_Phase_5,0,5,80,127,2568979876
6215,17,Jits_Phase_5,1,1,48,43,2568986660
6215,17,Jits_Phase_5,2,5,56,103,2568989916
6215,17,Jits_Phase_5,3,5,63,98,2569019812
6215,17,Jits_Phase_5,0,1,48,56,2569444768
6215,17,Jits_Phase_5,1,5,63,98,2569470268
6215,17,Jits_Phase_5,2,5,56,103,2569500020
6215,17,Jits_Phase_5,3,5,80,127,2569510292
6215,17,Jits_Phase_5,0,5,56,103,2569919960
6215,17,Jits_Phase_5,1,1,48,57,2569946744
6215,17,Jits_Phase_5,2,5,63,98,2569970104
6215,17,Jits_Phase_5,3,5,80,127,2569989440
6215,17,Jits_Phase_5,0,5,80,127,2570419796
6215,17,Jits_Phase_5,1,1,48,50,2570439708
6215,17,Jits_Phase_5,2,5,63,98,2570469868
6215,17,Jits_Phase_5,3,5,56,103,2570509732
6215,17,Jits_Phase_5,0,5,56,103,2570920304
6215,17,Jits_Phase_5,1,1,48,54,2570930768
6215,17,Jits_Phase_5,2,5,63,98,2570949896
6215,17,Jits_Phase_5,3,5,80,127,2571019748
6215,17,Jits_Phase_5,0,5,56,103,2571419916
6215,17,Jits_Phase_5,1,1,48,58,2571422508
6215,17,Jits_Phase_5,2,5,80,127,2571480596
6215,17,Jits_Phase_5,3,5,63,98,2571510220
6215,17,Jits_Phase_5,0,1,48,57,2571922192
6215,17,Jits_Phase_5,1,5,56,103,2571929940
6215,17,Jits_Phase_5,2,5,63,98,2571940284
6215,17,Jits_Phase_5,3,5,80,127,2571980072
6215,17,Jits_Phase_5,0,1,48,42,2572412428
6215,17,Jits_Phase_5,1,5,63,98,2572419796
6215,17,Jits_Phase_5,2,5,80,127,2572500264
6215,17,Jits_Phase_5,3,5,56,103,2572510668
6215,17,Jits_Phase_5,0,1,48,53,2572940652
6215,17,Jits_Phase_5,1,5,63,98,2572970344
6215,17,Jits_Phase_5,2,5,56,103,2573010428
6215,17,Jits_Phase_5,3,5,80,127,2573013344
6215,17,Jits_Phase_5,0,5,56,103,2573430236
6215,17,Jits_Phase_5,1,5,63,98,2573440800
6215,17,Jits_Phase_5,2,1,48,59,2573459888
6215,17,Jits_Phase_5,3,5,80,127,2573480508
6215,17,Jits_Phase_5,0,5,56,103,2573919804
6215,17,Jits_Phase_5,1,5,63,98,2573922796
6215,17,Jits_Phase_5,2,1,48,58,2573929600
6215,17,Jits_Phase_5,3,5,80,127,2573940032
6215,17,Jits_Phase_5,0,5,80,127,2574429748
6215,17,Jits_Phase_5,1,1,48,54,2574438736
6215,17,Jits_Phase_5,2,5,56,103,2574440160
6215,17,Jits_Phase_5,3,5,63,98,2574509464
6215,17,Jits_Phase_5,0,5,63,98,2574919992
6215,17,Jits_Phase_5,1,5,56,103,2574939628
6215,17,Jits_Phase_5,2,1,48,52,2574955780
6215,17,Jits_Phase_5,3,5,80,127,2575020608
6215,17,Jits_Phase_5,0,5,56,103,2575429856
6215,17,Jits_Phase_5,1,1,48,50,2575440396
6215,17,Jits_Phase_5,2,5,80,127,2575469936
6215,17,Jits_Phase_5,3,5,63,98,2575480356
6215,17,Jits_Phase_5,0,5,80,127,2575919728
6215,17,Jits_Phase_5,1,5,63,98,2575950156
6215,17,Jits_Phase_5,2,1,48,46,2575961144
6215,17,Jits_Phase_5,3,5,56,103,2575990084
6215,17,Jits_Phase_5,0,5,56,103,2576439648
6215,17,Jits_Phase_5,1,1,48,58,2576458504
6215,17,Jits_Phase_5,2,5,63,98,2576470436
6215,17,Jits_Phase_5,3,5,80,127,2576519736
6215,17,Jits_Phase_5,0,5,80,127,2576940756
6215,17,Jits_Phase_5,1,1,48,54,2576964328
6215,17,Jits_Phase_5,2,5,56,103,2576980388
6215,17,Jits_Phase_5,3,5,63,98,2576989836
6215,17,Jits_Phase_5,0,5,80,127,2577419772
6215,17,Jits_Phase_5,1,5,63,98,2577459560
6215,17,Jits_Phase_5,2,1,48,48,2577473692
6215,17,Jits_Phase_5,3,5,56,103,2577519864
6215,17,Jits_Phase_5,0,5,56,103,2577920508
6215,17,Jits_Phase_5,1,5,80,127,2577929728
6215,17,Jits_Phase_5,2,1,48,46,2577939676
6215,17,Jits_Phase_5,3,5,63,98,2578009588
6215,17,Jits_Phase_5,0,5,80,127,2578420044
6215,17,Jits_Phase_5,1,1,48,48,2578460324
6215,17,Jits_Phase_5,2,5,63,98,2578479748
6215,17,Jits_Phase_5,3,5,56,103,2578510248
6215,17,Jits_Phase_5,0,5,56,103,2578919732
6215,17,Jits_Phase_5,1,1,48,46,2578950724
6215,17,Jits_Phase_5,2,5,80,127,2578980116
6215,17,Jits_Phase_5,3,5,63,98,2579020052
6215,17,Jits_Phase_5,0,1,48,40,2579453324
6215,17,Jits_Phase_5,1,5,56,103,2579469540
6215,17,Jits_Phase_5,2,5,63,98,2579480028
6215,17,Jits_Phase_5,3,5,80,127,2579483392
6215,17,Jits_Phase_5,0,5,80,127,2579920188
6215,17,Jits_Phase_5,1,1,48,50,2579963632
6215,17,Jits_Phase_5,2,5,63,98,2580010560
6215,17,Jits_Phase_5,3,5,56,103,2580019636
6215,17,Jits_Phase_5,0,5,56,103,2580419856
6215,17,Jits_Phase_5,1,5,63,98,2580422956
6215,17,Jits_Phase_5,2,5,80,127,2580425932
6215,17,Jits_Phase_5,3,1,48,49,2580438880
6215,17,Jits_Phase_5,0,1,48,52,2580903024
6215,17,Jits_Phase_5,1,5,80,127,2580940284
6215,17,Jits_Phase_5,2,5,63,98,2580990436
6215,17,Jits_Phase_5,3,5,56,103,2581019948
6215,17,Jits_Phase_5,0,1,48,50,2581420860
6215,17,Jits_Phase_5,1,5,56,103,2581422048
6215,17,Jits_Phase_5,2,5,80,127,2581429704
6215,17,Jits_Phase_5,3,5,63,98,2581500228
6215,17,Jits_Phase_5,0,1,48,51,2581896816
6215,17,Jits_Phase_5,1,5,56,103,2581930488
6215,17,Jits_Phase_5,2,5,63,98,2581949676
6215,17,Jits_Phase_5,3,5,80,127,2582010516
6215,17,Jits_Phase_5,0,5,80,127,2582419756
6215,17,Jits_Phase_5,1,1,48,48,2582421316
6215,17,Jits_Phase_5,2,5,63,98,2582489728
6215,17,Jits_Phase_5,3,5,56,103,2582509912
6215,17,Jits_Phase_5,0,1,48,48,2582910052
6215,17,Jits_Phase_5,1,5,80,127,2582939968
6215,17,Jits_Phase_5,2,5,56,103,2582950536
6215,17,Jits_Phase_5,3,5,63,98,2582959536
6215,17,Jits_Phase_5,0,1,48,48,2583407312
6215,17,Jits_Phase_5,1,5,80,127,2583429748
6215,17,Jits_Phase_5,2,5,56,103,2583449984
6215,17,Jits_Phase_5,3,5,63,98,2583519820
6215,17,Jits_Phase_5,0,1,48,49,2583872908
6215,17,Jits_Phase_5,1,5,56,103,2583939612
6215,17,Jits_Phase_5,2,5,80,127,2583970096
6215,17,Jits_Phase_5,3,5,63,98,2583989656
6215,17,Jits_Phase_5,0,5,63,98,2584429856
6215,17,Jits_Phase_5,1,1,48,51,2584436560
6215,17,Jits_Phase_5,2,5,56,103,2584490312
6215,17,Jits_Phase_5,3,5,80,127,2584519984
6215,17,Jits_Phase_5,0,5,63,98,2584920388
6215,17,Jits_Phase_5,1,5,80,127,2584923900
6215,17,Jits_Phase_5,2,1,48,51,2584935040
6215,17,Jits_Phase_5,3,5,56,103,2585009612
6215,17,Jits_Phase_5,0,5,56,103,2585439684
6215,17,Jits_Phase_5,1,1,48,48,2585459216
6215,17,Jits_Phase_5,2,5,63,98,2585470472
6215,17,Jits_Phase_5,3,5,80,127,2585510184
6215,17,Jits_Phase_5,0,1,48,52,2585938908
6215,17,Jits_Phase_5,1,5,63,98,2585940564
6215,17,Jits_Phase_5,2,5,56,103,2585980128
6215,17,Jits_Phase_5,3,5,80,127,2585999836
6215,17,Jits_Phase_5,0,1,48,51,2586449684
6215,17,Jits_Phase_5,1,5,63,98,2586451324
6215,17,Jits_Phase_5,2,5,56,103,2586490216
6215,17,Jits_Phase_5,3,5,80,127,2586499664
6215,17,Jits_Phase_5,0,5,80,127,2586929656
6215,17,Jits_Phase_5,1,1,48,55,2586954572
6215,17,Jits_Phase_5,2,5,63,98,2587000304
6215,17,Jits_Phase_5,3,5,56,103,2587019564
6215,17,Jits_Phase_5,0,5,56,103,2587419912
6215,17,Jits_Phase_5,1,5,80,127,2587439620
6215,17,Jits_Phase_5,2,1,48,53,2587461996
6215,17,Jits_Phase_5,3,5,63,98,2587480376
6215,17,Jits_Phase_5,0,5,63,98,2587929936
6215,17,Jits_Phase_5,1,1,48,54,2587940400
6215,17,Jits_Phase_5,2,5,80,127,2587949640
6215,17,Jits_Phase_5,3,5,56,103,2587990324
6215,17,Jits_Phase_5,0,5,63,98,2588429536
6215,17,Jits_Phase_5,1,1,48,51,2588445836
6215,17,Jits_Phase_5,2,5,56,103,2588450064
6215,17,Jits_Phase_5,3,5,80,127,2588460628
6215,17,Jits_Phase_5,0,5,80,127,2588930328
6215,17,Jits_Phase_5,1,1,48,50,2588931296
6215,17,Jits_Phase_5,2,5,56,103,2588949884
6215,17,Jits_Phase_5,3,5,63,98,2588979556
6215,17,Jits_Phase_5,0,1,48,47,2589463388
6215,17,Jits_Phase_5,1,5,56,103,2589499828
6215,17,Jits_Phase_5,2,5,80,127,2589502896
6215,17,Jits_Phase_5,3,5,63,98,2589520512
6215,17,Jits_Phase_5,0,5,63,98,2589919496
6215,17,Jits_Phase_5,1,5,56,103,2589950516
6215,17,Jits_Phase_5,2,1,48,55,2589968480
6215,17,Jits_Phase_5,3,5,80,127,2590009700
6215,17,Jits_Phase_5,0,1,48,46,2590442956
6215,17,Jits_Phase_5,1,5,63,98,2590500300
6215,17,Jits_Phase_5,2,5,56,103,2590509600
6215,17,Jits_Phase_5,3,5,80,127,2590519792
6215,17,Jits_Phase_5,0,1,48,44,2590952376
6215,17,Jits_Phase_5,1,5,56,103,2590959900
6215,17,Jits_Phase_5,2,5,80,127,2590989724
6215,17,Jits_Phase_5,3,5,63,98,2590999992
6215,17,Jits_Phase_5,0,1,48,22,2591449492
6215,17,Jits_Phase_5,1,5,63,98,2591499584
6215,17,Jits_Phase_5,2,5,56,103,2591509856
6215,17,Jits_Phase_5,3,5,80,127,2591530608
6215,17,Jits_Phase_5,0,5,56,103,2591929648
6215,17,Jits_Phase_5,1,5,63,98,2591990060
6215,17,Jits_Phase_5,2,5,80,127,2591993568
6215,17,Jits_Phase_5,3,1,48,54,2592011680
6215,17,Jits_Phase_5,0,5,80,127,2592449780
6215,17,Jits_Phase_5,1,5,56,103,2592460272
6215,17,Jits_Phase_5,2,1,48,50,2592478156
6215,17,Jits_Phase_5,3,5,63,98,2592529744
6215,17,Jits_Phase_5,0,5,80,127,2592940396
6215,17,Jits_Phase_5,1,1,48,46,2592989744
6215,17,Jits_Phase_5,2,5,56,103,2593009944
6215,17,Jits_Phase_5,3,5,63,98,2593020436
6215,17,Jits_Phase_5,0,5,63,98,2593480316
6215,17,Jits_Phase_5,1,5,56,103,2593490364
6215,17,Jits_Phase_5,2,1,48,70,2593496180
6215,17,Jits_Phase_5,3,5,80,127,2593509792
6215,17,Jits_Phase_5,0,5,80,127,2593929652
6215,17,Jits_Phase_5,1,5,63,98,2593989892
6215,17,Jits_Phase_5,2,1,48,47,2594012712
6215,17,Jits_Phase_5,3,5,56,103,2594029844
6215,17,Jits_Phase_5,0,5,56,103,2594470540
6215,17,Jits_Phase_5,1,5,63,98,2594479392
6215,17,Jits_Phase_5,2,1,48,51,2594481404
6215,17,Jits_Phase_5,3,5,80,127,2594520372
6215,17,Jits_Phase_5,0,5,56,103,2594930004
6215,17,Jits_Phase_5,1,5,80,127,2594959828
6215,17,Jits_Phase_5,2,1,48,41,2594960796
6215,17,Jits_Phase_5,3,5,63,98,2595010020
6215,17,Jits_Phase_5,0,1,48,56,2595439476
6215,17,Jits_Phase_5,1,5,56,103,2595469544
6215,17,Jits_Phase_5,2,5,63,98,2595509556
6215,17,Jits_Phase_5,3,5,80,127,2595512920
6215,17,Jits_Phase_5,0,1,48,64,2595944232
6215,17,Jits_Phase_5,1,5,56,103,2595970708
6215,17,Jits_Phase_5,2,5,63,98,2595979560
6215,17,Jits_Phase_5,3,5,80,127,2596000164
6215,17,Jits_Phase_5,0,5,56,103,2596430304
6215,17,Jits_Phase_5,1,5,80,127,2596433444
6215,17,Jits_Phase_5,2,1,48,47,2596443984
6215,17,Jits_Phase_5,3,5,63,98,2596470308
6215,17,Jits_Phase_5,0,1,48,49,2596915712
6215,17,Jits_Phase_5,1,5,63,98,2596969760
6215,17,Jits_Phase_5,2,5,56,103,2596999512
6215,17,Jits_Phase_5,3,5,80,127,2597019880
6215,17,Jits_Phase_5,0,5,80,127,2597439924
6215,17,Jits_Phase_5,1,5,56,103,2597450192
6215,17,Jits_Phase_5,2,1,48,54,2597456980
6215,17,Jits_Phase_5,3,5,63,98,2597460232
6215,17,Jits_Phase_5,0,5,56,103,2597939536
6215,17,Jits_Phase_5,1,1,48,57,2597944528
6215,17,Jits_Phase_5,2,5,80,127,2597979392
6215,17,Jits_Phase_5,3,5,63,98,2598010412
6215,17,Jits_Phase_5,0,1,48,48,2598403304
6215,17,Jits_Phase_5,1,5,63,98,2598449556
6215,17,Jits_Phase_5,2,5,80,127,2598459752
6215,17,Jits_Phase_5,3,5,56,103,2598470168
6215,17,Jits_Phase_5,0,1,48,57,2598902520
6215,17,Jits_Phase_5,1,5,56,103,2598940236
6215,17,Jits_Phase_5,2,5,63,98,2599009752
6215,17,Jits_Phase_5,3,5,80,127,2599019872
6215,17,Jits_Phase_5,0,1,48,60,2599383668
6215,17,Jits_Phase_5,1,5,80,127,2599449952
6215,17,Jits_Phase_5,2,5,56,103,2599460372
6215,17,Jits_Phase_5,3,5,63,98,2599510556
6215,17,Jits_Phase_5,0,1,48,62,2599936848
6215,17,Jits_Phase_5,1,5,80,127,2599959888
6215,17,Jits_Phase_5,2,5,56,103,2600020276
6215,17,Jits_Phase_5,3,5,63,98,2600050308
6215,17,Jits_Phase_5,0,1,48,49,2600415704
6215,17,Jits_Phase_5,1,5,56,103,2600459484
6215,17,Jits_Phase_5,2,5,80,127,2600462700
6215,17,Jits_Phase_5,3,5,63,98,2600499500
6215,17,Jits_Phase_5,0,1,48,63,2600941072
6215,17,Jits_Phase_5,1,5,56,103,2600990240
6215,17,Jits_Phase_5,2,5,63,98,2601019696
6215,17,Jits_Phase_5,3,5,80,127,2601030112
6215,17,Jits_Phase_5,0,1,48,61,2601469448
6215,17,Jits_Phase_5,1,5,63,98,2601500112
6215,17,Jits_Phase_5,2,5,80,127,2601510232
6215,17,Jits_Phase_5,3,5,56,103,2601519380
6215,17,Jits_Phase_5,0,5,80,127,2601949648
6215,17,Jits_Phase_5,1,1,48,60,2601988312
6215,17,Jits_Phase_5,2,5,56,103,2601999940
6215,17,Jits_Phase_5,3,5,63,98,2602002780
6215,17,Jits_Phase_5,0,1,48,54,2602453036
6215,17,Jits_Phase_5,1,5,56,103,2602480356
6215,17,Jits_Phase_5,2,5,80,127,2602499324
6215,17,Jits_Phase_5,3,5,63,98,2602509668
6215,17,Jits_Phase_5,0,5,63,98,2602960308
6215,17,Jits_Phase_5,1,1,48,56,2602973544
6215,17,Jits_Phase_5,2,5,56,103,2602990224
6215,17,Jits_Phase_5,3,5,80,127,2603010460
6215,17,Jits_Phase_5,0,1,48,56,2603457788
6215,17,Jits_Phase_5,1,5,56,103,2603470164
6215,17,Jits_Phase_5,2,5,80,127,2603480584
6215,17,Jits_Phase_5,3,5,63,98,2603550344
6215,17,Jits_Phase_5,0,1,48,57,2603936840
6215,17,Jits_Phase_5,1,5,63,98,2603959652
6215,17,Jits_Phase_5,2,5,80,127,2603999612
6215,17,Jits_Phase_5,3,5,56,103,2604039460
6215,17,Jits_Phase_5,0,1,48,61,2604469888
6215,17,Jits_Phase_5,1,5,56,103,2604471152
6215,17,Jits_Phase_5,2,5,63,98,2604480004
6215,17,Jits_Phase_5,3,5,80,127,2604500460
6215,17,Jits_Phase_5,0,1,48,52,2605007132
6215,17,Jits_Phase_5,1,5,63,98,2605010460
6215,17,Jits_Phase_5,2,5,80,127,2605029748
6215,17,Jits_Phase_5,3,5,56,103,2605050428
6215,17,Jits_Phase_5,0,5,56,103,2605449464
6215,17,Jits_Phase_5,1,1,48,65,2605500980
6215,17,Jits_Phase_5,2,5,80,127,2605529328
6215,17,Jits_Phase_5,3,5,63,98,2605539548
6215,17,Jits_Phase_5,0,1,48,61,2605981936
6215,17,Jits_Phase_5,1,5,80,127,2605990500
6215,17,Jits_Phase_5,2,5,63,98,2605999428
6215,17,Jits_Phase_5,3,5,56,103,2606030372
6215,17,Jits_Phase_5,0,5,63,98,2606450252
6215,17,Jits_Phase_5,1,5,80,127,2606490192
6215,17,Jits_Phase_5,2,1,48,64,2606503276
6215,17,Jits_Phase_5,3,5,56,103,2606550352
6215,17,Jits_Phase_5,0,5,63,98,2606960192
6215,17,Jits_Phase_5,1,5,56,103,2607010244
6215,17,Jits_Phase_5,2,1,48,52,2607011212
6215,17,Jits_Phase_5,3,5,80,127,2607039988
6215,17,Jits_Phase_5,0,5,80,127,2607459648
6215,17,Jits_Phase_5,1,5,63,98,2607470216
6215,17,Jits_Phase_5,2,1,48,53,2607475280
6215,17,Jits_Phase_5,3,5,56,103,2607539512
6215,17,Jits_Phase_5,0,1,48,57,2607994212
6215,17,Jits_Phase_5,1,5,80,127,2608020016
6215,17,Jits_Phase_5,2,5,56,103,2608030208
6215,17,Jits_Phase_5,3,5,63,98,2608033352
6215,17,Jits_Phase_5,0,5,56,103,2608460140
6215,17,Jits_Phase_5,1,5,80,127,2608479552
6215,17,Jits_Phase_5,2,5,63,98,2608489968
6215,17,Jits_Phase_5,3,1,48,51,2608515484
6215,17,Jits_Phase_5,0,5,63,98,2608970020
6215,17,Jits_Phase_5,1,1,48,59,2609007068
6215,17,Jits_Phase_5,2,5,56,103,2609010620
6215,17,Jits_Phase_5,3,5,80,127,2609029436
6215,17,Jits_Phase_5,0,5,63,98,2609469920
6215,17,Jits_Phase_5,1,1,48,55,2609477772
6215,17,Jits_Phase_5,2,5,56,103,2609530072
6215,17,Jits_Phase_5,3,5,80,127,2609533292
6215,17,Jits_Phase_5,0,5,56,103,2609929584
6215,17,Jits_Phase_5,1,5,80,127,2609950264
6215,17,Jits_Phase_5,2,5,63,98,2609990200
6215,17,Jits_Phase_5,3,1,48,67,2609991164
6215,17,Jits_Phase_5,0,1,48,62,2610449692
6215,17,Jits_Phase_5,1,5,56,103,2610460128
6215,17,Jits_Phase_5,2,5,63,98,2610479464
6215,17,Jits_Phase_5,3,5,80,127,2610489660
6215,17,Jits_Phase_5,0,5,80,127,2610930216
6215,17,Jits_Phase_5,1,5,56,103,2610959816
6215,17,Jits_Phase_5,2,1,48,54,2610964512
6215,17,Jits_Phase_5,3,5,63,98,2610999672
6215,17,Jits_Phase_5,0,5,80,127,2611440244
6215,17,Jits_Phase_5,1,5,56,103,2611459432
6215,17,Jits_Phase_5,2,1,48,58,2611463600
6215,17,Jits_Phase_5,3,5,63,98,2611520036
6215,17,Jits_Phase_5,0,5,56,103,2611950272
6215,17,Jits_Phase_5,1,5,80,127,2611970356
6215,17,Jits_Phase_5,2,1,48,60,2611971324
6215,17,Jits_Phase_5,3,5,63,98,2612029988
6215,17,Jits_Phase_5,0,5,80,127,2612430308
6215,17,Jits_Phase_5,1,5,56,103,2612440356
6215,17,Jits_Phase_5,2,1,48,55,2612461404
6215,17,Jits_Phase_5,3,5,63,98,2612480312
6215,17,Jits_Phase_5,0,5,63,98,2612929996
6215,17,Jits_Phase_5,1,5,56,103,2612969956
6215,17,Jits_Phase_5,2,5,80,127,2612972872
6215,17,Jits_Phase_5,3,1,48,55,2612980492
6215,17,Jits_Phase_5,0,1,48,53,2613443104
6215,17,Jits_Phase_5,1,5,63,98,2613450252
6215,17,Jits_Phase_5,2,5,80,127,2613490140
6215,17,Jits_Phase_5,3,5,56,103,2613519664
6215,17,Jits_Phase_5,0,5,56,103,2613939524
6215,17,Jits_Phase_5,1,5,63,98,2613950092
6215,17,Jits_Phase_5,2,5,80,127,2613979540
6215,17,Jits_Phase_5,3,1,48,48,2613994944
6215,17,Jits_Phase_5,0,5,80,127,2614430036
6215,17,Jits_Phase_5,1,1,48,61,2614459904
6215,17,Jits_Phase_5,2,5,63,98,2614499736
6215,17,Jits_Phase_5,3,5,56,103,2614510156
6215,17,Jits_Phase_5,0,5,63,98,2614929876
6215,17,Jits_Phase_5,1,1,48,53,2614948064
6215,17,Jits_Phase_5,2,5,56,103,2615000300
6215,17,Jits_Phase_5,3,5,80,127,2615010068
6215,17,Jits_Phase_5,0,5,63,98,2615409928
6215,17,Jits_Phase_5,1,5,56,103,2615429412
6215,17,Jits_Phase_5,2,1,48,52,2615460772
6215,17,Jits_Phase_5,3,5,80,127,2615469568
6215,17,Jits_Phase_5,0,5,56,103,2615890276
6215,17,Jits_Phase_5,1,5,63,98,2615899572
6215,17,Jits_Phase_5,2,1,48,51,2615937608
6215,17,Jits_Phase_5,3,5,80,127,2615980256
6215,17,Jits_Phase_5,0,5,63,98,2616379704
6215,17,Jits_Phase_5,1,1,48,57,2616391888
6215,17,Jits_Phase_5,2,5,56,103,2616409668
6215,17,Jits_Phase_5,3,5,80,127,2616450352
6215,17,Jits_Phase_5,0,5,56,103,2616879524
6215,17,Jits_Phase_5,1,1,48,55,2616900028
6215,17,Jits_Phase_5,2,5,63,98,2616920428
6215,17,Jits_Phase_5,3,5,80,127,2616960364
6215,17,Jits_Phase_5,0,5,80,127,2617380264
6215,17,Jits_Phase_5,1,1,48,54,2617422712
6215,17,Jits_Phase_5,2,5,56,103,2617460200
6215,17,Jits_Phase_5,3,5,63,98,2617470248
6215,17,Jits_Phase_5,0,1,48,59,2617919120
6215,17,Jits_Phase_5,1,5,56,103,2617921020
6215,17,Jits_Phase_5,2,5,63,98,2617923464
6215,17,Jits_Phase_5,3,5,80,127,2617930296
6215,17,Jits_Phase_5,0,1,48,54,2618438876
6215,17,Jits_Phase_5,1,5,56,103,2618440520
6215,17,Jits_Phase_5,2,5,63,98,2618459564
6215,17,Jits_Phase_5,3,5,80,127,2618469832
6215,17,Jits_Phase_5,0,5,63,98,2618899980
6215,17,Jits_Phase_5,1,5,80,127,2618910176
6215,17,Jits_Phase_5,2,5,56,103,2618929516
6215,17,Jits_Phase_5,3,1,48,52,2618986112
6215,17,Jits_Phase_5,0,5,63,98,2619399728
6215,17,Jits_Phase_5,1,1,48,51,2619472972
6215,17,Jits_Phase_5,2,5,56,103,2619480412
6215,17,Jits_Phase_5,3,5,80,127,2619483556
6215,17,Jits_Phase_5,0,5,63,98,2619900224
6215,17,Jits_Phase_5,1,5,56,103,2619919860
6215,17,Jits_Phase_5,2,1,48,46,2619921500
6215,17,Jits_Phase_5,3,5,80,127,2619949376
6215,17,Jits_Phase_5,0,5,56,103,2620400052
6215,17,Jits_Phase_5,1,5,63,98,2620419388
6215,17,Jits_Phase_5,2,5,80,127,2620429884
6215,17,Jits_Phase_5,3,1,48,46,2620459304
6215,17,Jits_Phase_5,0,5,56,103,2620930308
6215,17,Jits_Phase_5,1,1,48,51,2620937708
6215,17,Jits_Phase_5,2,5,63,98,2620960048
6215,17,Jits_Phase_5,3,5,80,127,2620963264
6215,17,Jits_Phase_5,0,5,56,103,2621379920
6215,17,Jits_Phase_5,1,5,63,98,2621419884
6215,17,Jits_Phase_5,2,1,48,53,2621460164
6215,17,Jits_Phase_5,3,5,80,127,2621480188
6215,17,Jits_Phase_5,0,5,56,103,2621900140
6215,17,Jits_Phase_5,1,5,63,98,2621910484
6215,17,Jits_Phase_5,2,1,48,52,2621930716
6215,17,Jits_Phase_5,3,5,80,127,2621969916
6215,17,Jits_Phase_5,0,5,56,103,2622400124
6215,17,Jits_Phase_5,1,5,80,127,2622420360
6215,17,Jits_Phase_5,2,1,48,27,2622424000
6215,17,Jits_Phase_5,3,5,63,98,2622450124
6215,17,Jits_Phase_5,0,5,80,127,2622909920
6215,17,Jits_Phase_5,1,5,56,103,2622920040
6215,17,Jits_Phase_5,2,1,48,36,2622920932
6215,17,Jits_Phase_5,3,5,63,98,2622939520
6215,17,Jits_Phase_5,0,5,63,98,2623400156
6215,17,Jits_Phase_5,1,1,48,50,2623440364
6215,17,Jits_Phase_5,2,5,80,127,2623480116
6215,17,Jits_Phase_5,3,5,56,103,2623490388
6215,17,Jits_Phase_5,0,1,48,52,2623935228
6215,17,Jits_Phase_5,1,5,80,127,2623989980
6215,17,Jits_Phase_5,2,5,56,103,2624009688
6215,17,Jits_Phase_5,3,5,63,98,2624012752
6215,17,Jits_Phase_5,0,1,48,52,2624476628
6215,17,Jits_Phase_5,1,5,63,98,2624479680
6215,17,Jits_Phase_5,2,5,80,127,2624483044
6215,17,Jits_Phase_5,3,5,56,103,2624539996
6215,17,Jits_Phase_5,4,1,48,27,2624545712
6215,17,Jits_Phase_5,0,5,56,103,2624960032
6215,17,Jits_Phase_5,1,5,80,127,2624970004
6215,17,Jits_Phase_5,2,1,48,52,2624990532
6215,17,Jits_Phase_5,3,5,63,98,2625009960
6215,17,Jits_Phase_5,0,5,56,103,2625450272
6215,17,Jits_Phase_5,1,1,48,53,2625476084
6215,17,Jits_Phase_5,2,5,63,98,2625509856
6215,17,Jits_Phase_5,3,5,80,127,2625519904
6215,17,Jits_Phase_5,0,1,48,54,2625959464
6215,17,Jits_Phase_5,1,5,63,98,2625961036
6215,17,Jits_Phase_5,2,5,80,127,2626000224
6215,17,Jits_Phase_5,3,5,56,103,2626040184
6215,17,Jits_Phase_5,0,5,56,103,2626459892
6215,17,Jits_Phase_5,1,1,48,45,2626479944
6215,17,Jits_Phase_5,2,5,63,98,2626539852
6215,17,Jits_Phase_5,3,5,80,127,2626543212
6215,17,Jits_Phase_5,0,1,48,54,2626980812
6215,17,Jits_Phase_5,1,5,80,127,2627020172
6215,17,Jits_Phase_5,2,5,56,103,2627049944
6215,17,Jits_Phase_5,3,5,63,98,2627052936
6215,17,Jits_Phase_5,0,5,56,103,2627479916
6215,17,Jits_Phase_5,1,1,48,57,2627489112
6215,17,Jits_Phase_5,2,5,80,127,2627500592
6215,17,Jits_Phase_5,3,5,63,98,2627540532
6215,17,Jits_Phase_5,0,5,80,127,2627960056
6215,17,Jits_Phase_5,1,5,63,98,2627979764
6215,17,Jits_Phase_5,2,1,48,47,2627991348
6215,17,Jits_Phase_5,3,5,56,103,2628039996
6215,17,Jits_Phase_5,0,5,63,98,2628470084
6215,17,Jits_Phase_5,1,1,48,53,2628475296
6215,17,Jits_Phase_5,2,5,56,103,2628480348
6215,17,Jits_Phase_5,3,5,80,127,2628529872
6215,17,Jits_Phase_5,0,5,56,103,2628959792
6215,17,Jits_Phase_5,1,5,63,98,2628980104
6215,17,Jits_Phase_5,2,1,48,42,2628987484
6215,17,Jits_Phase_5,3,5,80,127,2628990292
6215,17,Jits_Phase_5,0,1,48,51,2629412744
6215,17,Jits_Phase_5,1,5,56,103,2629460424
6215,17,Jits_Phase_5,2,5,63,98,2629463340
6215,17,Jits_Phase_5,3,5,80,127,2629479908
6215,17,Jits_Phase_5,0,1,48,62,2629918704
6215,17,Jits_Phase_5,1,5,63,98,2630000016
6215,17,Jits_Phase_5,2,5,56,103,2630029900
6215,17,Jits_Phase_5,3,5,80,127,2630060396
6215,17,Jits_Phase_5,0,1,48,58,2630443772
6215,17,Jits_Phase_5,1,5,80,127,2630459912
6215,17,Jits_Phase_5,2,5,56,103,2630549880
6215,17,Jits_Phase_5,3,5,63,98,2630553092
6215,17,Jits_Phase_5,0,5,56,103,2630959732
6215,17,Jits_Phase_5,1,5,80,127,2630962724
6215,17,Jits_Phase_5,2,1,48,41,2630972444
6215,17,Jits_Phase_5,3,5,63,98,2631040564
6215,17,Jits_Phase_5,0,5,80,127,2631460160
6215,17,Jits_Phase_5,1,1,48,48,2631467932
6215,17,Jits_Phase_5,2,5,63,98,2631519720
6215,17,Jits_Phase_5,3,5,56,103,2631550444
6215,17,Jits_Phase_5,0,5,63,98,2631959852
6215,17,Jits_Phase_5,1,5,80,127,2631970124
6215,17,Jits_Phase_5,2,1,48,43,2631973760
6215,17,Jits_Phase_5,3,5,56,103,2632039868
6215,17,Jits_Phase_5,0,1,48,43,2632463612
6215,17,Jits_Phase_5,1,5,56,103,2632520052
6215,17,Jits_Phase_5,2,5,80,127,2632549656
6215,17,Jits_Phase_5,3,5,63,98,2632599912
6215,17,Jits_Phase_5,0,1,48,45,2632978268
6215,17,Jits_Phase_5,1,5,63,98,2633109836
6215,17,Jits_Phase_5,2,5,56,103,2633139660
6215,17,Jits_Phase_5,3,5,80,127,2633142576
6215,17,Jits_Phase_5,0,5,63,98,2633609748
6215,17,Jits_Phase_5,1,5,80,127,2633630056
6215,17,Jits_Phase_5,2,5,56,103,2633640180
6215,17,Jits_Phase_5,3,1,48,48,2633654832
6215,17,Jits_Phase_5,0,5,56,103,2634119684
6215,17,Jits_Phase_5,1,5,63,98,2634122824
6215,17,Jits_Phase_5,2,5,80,127,2634139920
6215,17,Jits_Phase_5,3,1,48,36,2634226580
6215,17,Jits_Phase_5,0,5,56,103,2634569996
6215,17,Jits_Phase_5,1,5,63,98,2634580192
6215,17,Jits_Phase_5,2,5,80,127,2634610020
6215,17,Jits_Phase_5,3,1,48,59,2634753764
6215,17,Jits_Phase_5,0,5,63,98,2635090212
6215,17,Jits_Phase_5,1,5,80,127,2635109920
6215,17,Jits_Phase_5,2,5,56,103,2635149780
6215,17,Jits_Phase_5,3,1,48,53,2635231584
6215,17,Jits_Phase_5,0,5,56,103,2635619704
6215,17,Jits_Phase_5,1,5,63,98,2635659788
6215,17,Jits_Phase_5,2,5,80,127,2635662928
6215,17,Jits_Phase_5,3,1,48,53,2635752604
6215,17,Jits_Phase_5,0,5,80,127,2636059976
6215,17,Jits_Phase_5,1,5,56,103,2636099992
6215,17,Jits_Phase_5,2,5,63,98,2636150116
6215,17,Jits_Phase_5,3,1,48,44,2636243424
6215,17,Jits_Phase_5,0,5,56,103,2636620128
6215,17,Jits_Phase_5,1,5,80,127,2636630844
6215,17,Jits_Phase_5,2,5,63,98,2636660144
6215,17,Jits_Phase_5,3,1,48,40,2636702744
6215,17,Jits_Phase_5,0,5,56,103,2637069624
6215,17,Jits_Phase_5,1,5,80,127,2637109784
6215,17,Jits_Phase_5,2,5,63,98,2637159836
6215,17,Jits_Phase_5,3,1,48,53,2637174708
6215,17,Jits_Phase_5,0,5,56,103,2637570508
6215,17,Jits_Phase_5,1,5,80,127,2637610372
6215,17,Jits_Phase_5,2,5,63,98,2637659748
6215,17,Jits_Phase_5,3,1,48,53,2637684512
6215,17,Jits_Phase_5,0,5,80,127,2638060008
6215,17,Jits_Phase_5,1,5,63,98,2638139880
6215,17,Jits_Phase_5,2,5,56,103,2638150000
6215,17,Jits_Phase_5,3,1,48,36,2638209308
6215,17,Jits_Phase_5,0,5,80,127,2638609748
6215,17,Jits_Phase_5,1,5,56,103,2638619868
6215,17,Jits_Phase_5,2,5,63,98,2638639576
6215,17,Jits_Phase_5,3,1,48,46,2638680972
6215,17,Jits_Phase_5,0,5,63,98,2639079768
6215,17,Jits_Phase_5,1,5,56,103,2639149520
6215,17,Jits_Phase_5,2,5,80,127,2639152436
6215,17,Jits_Phase_5,3,1,48,36,2639171216
6215,17,Jits_Phase_5,0,5,80,127,2639570488
6215,17,Jits_Phase_5,1,5,63,98,2639619672
6215,17,Jits_Phase_5,2,1,48,51,2639657096
6215,17,Jits_Phase_5,3,5,56,103,2639660352
6215,17,Jits_Phase_5,0,5,63,98,2640109920
6215,17,Jits_Phase_5,1,5,56,103,2640149780
6215,17,Jits_Phase_5,2,5,80,127,2640160052
6215,17,Jits_Phase_5,3,1,48,46,2640168048
6215,17,Jits_Phase_5,0,5,63,98,2640600504
6215,17,Jits_Phase_5,1,5,56,103,2640619792
6215,17,Jits_Phase_5,2,5,80,127,2640640624
6215,17,Jits_Phase_5,3,1,48,37,2640643520
6215,17,Jits_Phase_5,0,5,80,127,2641060172
6215,17,Jits_Phase_5,1,5,56,103,2641069392
6215,17,Jits_Phase_5,2,5,63,98,2641089852
6215,17,Jits_Phase_5,3,1,48,37,2641167376
6215,17,Jits_Phase_5,0,5,63,98,2641589600
6215,17,Jits_Phase_5,1,1,48,53,2641621188
6215,17,Jits_Phase_5,2,5,56,103,2641629552
6215,17,Jits_Phase_5,3,5,80,127,2641660348
6215,17,Jits_Phase_5,0,5,56,103,2642050464
6215,17,Jits_Phase_5,1,1,48,44,2642075160
6215,17,Jits_Phase_5,2,5,63,98,2642080060
6215,17,Jits_Phase_5,3,5,80,127,2642109736
6215,17,Jits_Phase_5,0,5,80,127,2642470300
6215,17,Jits_Phase_5,1,5,56,103,2642539908
6215,17,Jits_Phase_5,2,5,63,98,2642542824
6215,17,Jits_Phase_5,3,1,48,47,2642614936
6215,17,Jits_Phase_5,0,5,56,103,2642980096
6215,17,Jits_Phase_5,1,5,63,98,2643030520
6215,17,Jits_Phase_5,2,1,48,44,2643044200
6215,17,Jits_Phase_5,3,5,80,127,2643059964
6215,17,Jits_Phase_5,0,5,63,98,2643459556
6215,17,Jits_Phase_5,1,5,80,127,2643462772
6215,17,Jits_Phase_5,2,5,56,103,2643519796
6215,17,Jits_Phase_5,3,1,48,40,2643599848
6215,17,Jits_Phase_5,0,5,56,103,2643989932
6215,17,Jits_Phase_5,1,5,80,127,2644000200
6215,17,Jits_Phase_5,2,1,48,45,2644006388
6215,17,Jits_Phase_5,3,5,63,98,2644050172
6215,17,Jits_Phase_5,0,5,63,98,2644459804
6215,17,Jits_Phase_5,1,5,56,103,2644470000
6215,17,Jits_Phase_5,2,1,48,50,2644479268
6215,17,Jits_Phase_5,3,5,80,127,2644499892
6215,17,Jits_Phase_5,0,1,48,52,2644963636
6215,17,Jits_Phase_5,1,5,63,98,2644990404
6215,17,Jits_Phase_5,2,5,80,127,2644993620
6215,17,Jits_Phase_5,3,5,56,103,2645020152
6215,17,Jits_Phase_5,0,1,48,44,2645443868
6215,17,Jits_Phase_5,1,5,63,98,2645509624
6215,17,Jits_Phase_5,2,5,56,103,2645530008
6215,17,Jits_Phase_5,3,5,80,127,2645533148
6215,17,Jits_Phase_5,0,5,63,98,2645970388
6215,17,Jits_Phase_5,1,1,48,51,2646008152
6215,17,Jits_Phase_5,2,5,56,103,2646039864
6215,17,Jits_Phase_5,3,5,80,127,2646060544
6215,17,Jits_Phase_5,0,5,56,103,2646459652
6215,17,Jits_Phase_5,1,5,63,98,2646469924
6215,17,Jits_Phase_5,2,1,48,51,2646513220
6215,17,Jits_Phase_5,3,5,80,127,2646560068
6215,17,Jits_Phase_5,0,5,56,103,2646980016
6215,17,Jits_Phase_5,1,1,48,58,2646995940
6215,17,Jits_Phase_5,2,5,80,127,2647019748
6215,17,Jits_Phase_5,3,5,63,98,2647030092
6215,17,Jits_Phase_5,0,1,48,55,2647485280
6215,17,Jits_Phase_5,1,5,56,103,2647500072
6215,17,Jits_Phase_5,2,5,63,98,2647529700
6215,17,Jits_Phase_5,3,5,80,127,2647559744
6215,17,Jits_Phase_5,0,5,80,127,2647959972
6215,17,Jits_Phase_5,1,5,63,98,2647999988
6215,17,Jits_Phase_5,2,1,48,62,2648013516
6215,17,Jits_Phase_5,3,5,56,103,2648020584
6215,17,Jits_Phase_5,0,1,48,54,2648490200
6215,17,Jits_Phase_5,1,5,56,103,2648499588
6215,17,Jits_Phase_5,2,5,80,127,2648519972
6215,17,Jits_Phase_5,3,5,63,98,2648539460
6215,17,Jits_Phase_5,0,5,63,98,2648969528
6215,17,Jits_Phase_5,1,5,56,103,2648979944
6215,17,Jits_Phase_5,2,1,48,31,2648999176
6215,17,Jits_Phase_5,3,5,80,127,2649040248
6215,17,Jits_Phase_5,0,5,56,103,2649470540
6215,17,Jits_Phase_5,1,1,48,54,2649478392
6215,17,Jits_Phase_5,2,5,63,98,2649540064
6215,17,Jits_Phase_5,3,5,80,127,2649560376
6215,17,Jits_Phase_5,0,1,48,43,2649951172
6215,17,Jits_Phase_5,1,5,56,103,2649970004
6215,17,Jits_Phase_5,2,5,63,98,2649999752
6215,17,Jits_Phase_5,3,5,80,127,2650039688
6215,17,Jits_Phase_5,0,5,63,98,2650459420
6215,17,Jits_Phase_5,1,1,48,60,2650465008
6215,17,Jits_Phase_5,2,5,56,103,2650509616
6215,17,Jits_Phase_5,3,5,80,127,2650519812
6215,17,Jits_Phase_5,0,1,48,28,2650943392
6215,17,Jits_Phase_5,1,5,56,103,2651000288
6215,17,Jits_Phase_5,2,5,63,98,2651050476
6215,17,Jits_Phase_5,3,5,80,127,2651059552
6215,17,Jits_Phase_5,0,5,56,103,2651470380
6215,17,Jits_Phase_5,1,5,63,98,2651480428
6215,17,Jits_Phase_5,2,1,48,64,2651490968
6215,17,Jits_Phase_5,3,5,80,127,2651560284
6215,17,Jits_Phase_5,0,9999,9999,9999,2567217224
6215,17,Jits_Phase_5,1,9999,9999,9999,2567717956
6215,17,Jits_Phase_5,2,9999,9999,9999,2568217700
6215,17,Jits_Phase_5,3,9999,9999,9999,2568717424
6215,17,Jits_Phase_5,4,9999,9999,9999,2569217104
6215,17,Jits_Phase_5,5,9999,9999,9999,2569717844
6215,17,Jits_Phase_5,6,9999,9999,9999,2570217592
6215,17,Jits_Phase_5,7,9999,9999,9999,2570717260
6215,17,Jits_Phase_5,8,9999,9999,9999,2571217984
6215,17,Jits_Phase_5,9,9999,9999,9999,2571717748
6215,17,Jits_Phase_5,10,9999,9999,9999,2572217440
6215,17,Jits_Phase_5,11,9999,9999,9999,2572717116
6215,17,Jits_Phase_5,12,9999,9999,9999,2573217904
6215,17,Jits_Phase_5,13,9999,9999,9999,2573717576
6215,17,Jits_Phase_5,14,9999,9999,9999,2574217324
6215,17,Jits_Phase_5,15,9999,9999,9999,2574718064
6215,17,Jits_Phase_5,16,9999,9999,9999,2575217752
6215,17,Jits_Phase_5,17,9999,9999,9999,2575717500
6215,17,Jits_Phase_5,18,9999,9999,9999,2576217188
6215,17,Jits_Phase_5,19,9999,9999,9999,2576717924
6215,17,Jits_Phase_5,20,9999,9999,9999,2577217616
6215,17,Jits_Phase_5,21,9999,9999,9999,2577717304
6215,17,Jits_Phase_5,22,9999,9999,9999,2578218040
6215,17,Jits_Phase_5,23,9999,9999,9999,2578717800
6215,17,Jits_Phase_5,24,9999,9999,9999,2579217492
6215,17,Jits_Phase_5,25,9999,9999,9999,2579717248
6215,17,Jits_Phase_5,26,9999,9999,9999,2580217972
6215,17,Jits_Phase_5,27,9999,9999,9999,2580717636
6215,17,Jits_Phase_5,28,9999,9999,9999,2581217400
6215,17,Jits_Phase_5,29,9999,9999,9999,2581718096
6215,17,Jits_Phase_5,30,9999,9999,9999,2582217836
6215,17,Jits_Phase_5,31,9999,9999,9999,2582717516
6215,17,Jits_Phase_5,32,9999,9999,9999,2583217276
6215,17,Jits_Phase_5,33,9999,9999,9999,2583718000
6215,17,Jits_Phase_5,34,9999,9999,9999,2584217676
6215,17,Jits_Phase_5,35,9999,9999,9999,2584717424
6215,17,Jits_Phase_5,36,9999,9999,9999,2585217088
6215,17,Jits_Phase_5,37,9999,9999,9999,2585717812
6215,17,Jits_Phase_5,38,9999,9999,9999,2586217576
6215,17,Jits_Phase_5,39,9999,9999,9999,2586717256
6215,17,Jits_Phase_5,40,9999,9999,9999,2587217980
6215,17,Jits_Phase_5,41,9999,9999,9999,2587717740
6215,17,Jits_Phase_5,42,9999,9999,9999,2588217428
6215,17,Jits_Phase_5,43,9999,9999,9999,2588717176
6215,17,Jits_Phase_5,44,9999,9999,9999,2589217896
6215,17,Jits_Phase_5,45,9999,9999,9999,2589717580
6215,17,Jits_Phase_5,46,9999,9999,9999,2590217324
6215,17,Jits_Phase_5,47,9999,9999,9999,2590718056
6215,17,Jits_Phase_5,48,9999,9999,9999,2591227996
6215,17,Jits_Phase_5,49,9999,9999,9999,2591727676
6215,17,Jits_Phase_5,50,9999,9999,9999,2592227420
6215,17,Jits_Phase_5,51,9999,9999,9999,2592727160
6215,17,Jits_Phase_5,52,9999,9999,9999,2593227888
6215,17,Jits_Phase_5,53,9999,9999,9999,2593727584
6215,17,Jits_Phase_5,54,9999,9999,9999,2594227260
6215,17,Jits_Phase_5,55,9999,9999,9999,2594728000
6215,17,Jits_Phase_5,56,9999,9999,9999,2595227760
6215,17,Jits_Phase_5,57,9999,9999,9999,2595727444
6215,17,Jits_Phase_5,58,9999,9999,9999,2596227196
6215,17,Jits_Phase_5,59,9999,9999,9999,2596727900
6215,17,Jits_Phase_5,60,9999,9999,9999,2597227596
6215,17,Jits_Phase_5,61,9999,9999,9999,2597727340
6215,17,Jits_Phase_5,62,9999,9999,9999,2598228076
6215,17,Jits_Phase_5,63,9999,9999,9999,2598727764
6215,17,Jits_Phase_5,64,9999,9999,9999,2599247964
6215,17,Jits_Phase_5,65,9999,9999,9999,2599747636
6215,17,Jits_Phase_5,66,9999,9999,9999,2600247392
6215,17,Jits_Phase_5,67,9999,9999,9999,2600747128
6215,17,Jits_Phase_5,68,9999,9999,9999,2601247852
6215,17,Jits_Phase_5,69,9999,9999,9999,2601747532
6215,17,Jits_Phase_5,70,9999,9999,9999,2602247268
6215,17,Jits_Phase_5,71,9999,9999,9999,2602748004
6215,17,Jits_Phase_5,72,9999,9999,9999,2603247676
6215,17,Jits_Phase_5,73,9999,9999,9999,2603747428
6215,17,Jits_Phase_5,74,9999,9999,9999,2604247152
6215,17,Jits_Phase_5,75,9999,9999,9999,2604747864
6215,17,Jits_Phase_5,76,9999,9999,9999,2605247548
6215,17,Jits_Phase_5,77,9999,9999,9999,2605747300
6215,17,Jits_Phase_5,78,9999,9999,9999,2606248036
6215,17,Jits_Phase_5,79,9999,9999,9999,2606747716
6215,17,Jits_Phase_5,80,9999,9999,9999,2607247464
6215,17,Jits_Phase_5,81,9999,9999,9999,2607727736
6215,17,Jits_Phase_5,82,9999,9999,9999,2608227428
6215,17,Jits_Phase_5,83,9999,9999,9999,2608727108
6215,17,Jits_Phase_5,84,9999,9999,9999,2609227848
6215,17,Jits_Phase_5,85,9999,9999,9999,2609727592
6215,17,Jits_Phase_5,86,9999,9999,9999,2610227264
6215,17,Jits_Phase_5,87,9999,9999,9999,2610728000
6215,17,Jits_Phase_5,88,9999,9999,9999,2611227748
6215,17,Jits_Phase_5,89,9999,9999,9999,2611727440
6215,17,Jits_Phase_5,90,9999,9999,9999,2612227132
6215,17,Jits_Phase_5,91,9999,9999,9999,2612727864
6215,17,Jits_Phase_5,92,9999,9999,9999,2613227616
6215,17,Jits_Phase_5,93,9999,9999,9999,2613727292
6215,17,Jits_Phase_5,94,9999,9999,9999,2614228036
6215,17,Jits_Phase_5,95,9999,9999,9999,2614727796
6215,17,Jits_Phase_5,96,9999,9999,9999,2615227484
6215,17,Jits_Phase_5,97,9999,9999,9999,2615678016
6215,17,Jits_Phase_5,98,9999,9999,9999,2616177768
6215,17,Jits_Phase_5,99,9999,9999,9999,2616677456
6215,17,Jits_Phase_5,100,9999,9999,9999,2617177208
6215,17,Jits_Phase_5,101,9999,9999,9999,2617677948
6215,17,Jits_Phase_5,102,9999,9999,9999,2618177628
6215,17,Jits_Phase_5,103,9999,9999,9999,2618677312
6215,17,Jits_Phase_5,104,9999,9999,9999,2619178108
6215,17,Jits_Phase_5,105,9999,9999,9999,2619677780
6215,17,Jits_Phase_5,106,9999,9999,9999,2620177528
6215,17,Jits_Phase_5,107,9999,9999,9999,2620677204
6215,17,Jits_Phase_5,108,9999,9999,9999,2621177936
6215,17,Jits_Phase_5,109,9999,9999,9999,2621677628
6215,17,Jits_Phase_5,110,9999,9999,9999,2622177396
6215,17,Jits_Phase_5,111,9999,9999,9999,2622678104
6215,17,Jits_Phase_5,112,9999,9999,9999,2623188040
6215,17,Jits_Phase_5,113,9999,9999,9999,2623687800
6215,17,Jits_Phase_5,114,9999,9999,9999,2624237692
6215,17,Jits_Phase_5,115,9999,9999,9999,2624737336
6215,17,Jits_Phase_5,116,9999,9999,9999,2625238088
6215,17,Jits_Phase_5,117,9999,9999,9999,2625748032
6215,17,Jits_Phase_5,118,9999,9999,9999,2626247784
6215,17,Jits_Phase_5,119,9999,9999,9999,2626747452
6215,17,Jits_Phase_5,120,9999,9999,9999,2627247212
6215,17,Jits_Phase_5,121,9999,9999,9999,2627747932
6215,17,Jits_Phase_5,122,9999,9999,9999,2628247624
6215,17,Jits_Phase_5,123,9999,9999,9999,2628747388
6215,17,Jits_Phase_5,124,9999,9999,9999,2629248084
6215,17,Jits_Phase_5,125,9999,9999,9999,2629758024
6215,17,Jits_Phase_5,126,9999,9999,9999,2630257776
6215,17,Jits_Phase_5,127,9999,9999,9999,2630757448
6215,17,Jits_Phase_5,128,9999,9999,9999,2631257180
6215,17,Jits_Phase_5,129,9999,9999,9999,2631757920
6215,17,Jits_Phase_5,130,9999,9999,9999,2632257608
6215,17,Jits_Phase_5,131,9999,9999,9999,2632857668
6215,17,Jits_Phase_5,132,9999,9999,9999,2633357412
6215,17,Jits_Phase_5,133,9999,9999,9999,2633857088
6215,17,Jits_Phase_5,134,9999,9999,9999,2634357876
6215,17,Jits_Phase_5,135,9999,9999,9999,2634857564
6215,17,Jits_Phase_5,136,9999,9999,9999,2635357252
6215,17,Jits_Phase_5,137,9999,9999,9999,2635858044
6215,17,Jits_Phase_5,138,9999,9999,9999,2636357732
6215,17,Jits_Phase_5,139,9999,9999,9999,2636857428
6215,17,Jits_Phase_5,140,9999,9999,9999,2637357116
6215,17,Jits_Phase_5,141,9999,9999,9999,2637857852
6215,17,Jits_Phase_5,142,9999,9999,9999,2638357616
6215,17,Jits_Phase_5,143,9999,9999,9999,2638857308
6215,17,Jits_Phase_5,144,9999,9999,9999,2639358036
6215,17,Jits_Phase_5,145,9999,9999,9999,2639857788
6215,17,Jits_Phase_5,146,9999,9999,9999,2640357484
6215,17,Jits_Phase_5,147,9999,9999,9999,2640857208
6215,17,Jits_Phase_5,148,9999,9999,9999,2641357924
6215,17,Jits_Phase_5,149,9999,9999,9999,2641857612
6215,17,Jits_Phase_5,150,9999,9999,9999,2642258032
6215,17,Jits_Phase_5,151,9999,9999,9999,2642757712
6215,17,Jits_Phase_5,152,9999,9999,9999,2643257404
6215,17,Jits_Phase_5,153,9999,9999,9999,2643757152
6215,17,Jits_Phase_5,154,9999,9999,9999,2644257872
6215,17,Jits_Phase_5,155,9999,9999,9999,2644757560
6215,17,Jits_Phase_5,156,9999,9999,9999,2645257296
6215,17,Jits_Phase_5,157,9999,9999,9999,2645758012
6215,17,Jits_Phase_5,158,9999,9999,9999,2646257760
6215,17,Jits_Phase_5,159,9999,9999,9999,2646757436
6215,17,Jits_Phase_5,160,9999,9999,9999,2647257172
6215,17,Jits_Phase_5,161,9999,9999,9999,2647757908
6215,17,Jits_Phase_5,162,9999,9999,9999,2648257656
6215,17,Jits_Phase_5,163,9999,9999,9999,2648757348
6215,17,Jits_Phase_5,164,9999,9999,9999,2649258064
6215,17,Jits_Phase_5,165,9999,9999,9999,2649757816
6215,17,Jits_Phase_5,166,9999,9999,9999,2650257504
6215,17,Jits_Phase_5,167,9999,9999,9999,2650757176
6215,17,Jits_Phase_5,168,9999,9999,9999,2651257976
6215,17,Jits_Phase_5,169,9999,9999,9999,2651757652
6216,15,Jits_Phase_8,0,5,56,103,2661730796
6216,15,Jits_Phase_8,1,5,63,98,2661733816
6216,15,Jits_Phase_8,2,5,80,127,2661737016
6216,15,Jits_Phase_8,0,5,56,103,2662530364
6216,15,Jits_Phase_8,1,5,63,98,2662533460
6216,15,Jits_Phase_8,2,5,80,127,2662536584
6216,15,Jits_Phase_8,3,1,48,70,2662891248
6216,15,Jits_Phase_8,0,5,80,127,2663270644
6216,15,Jits_Phase_8,1,5,63,98,2663360852
6216,15,Jits_Phase_8,2,5,56,103,2663371272
6216,15,Jits_Phase_8,3,1,48,62,2663415616
6216,15,Jits_Phase_8,0,1,48,64,2664035836
6216,15,Jits_Phase_8,1,5,56,103,2664091084
6216,15,Jits_Phase_8,2,5,63,98,2664101280
6216,15,Jits_Phase_8,3,5,80,127,2664191348
6216,15,Jits_Phase_8,0,1,48,51,2664786972
6216,15,Jits_Phase_8,1,5,63,98,2664861172
6216,15,Jits_Phase_8,2,5,80,127,2664890760
6216,15,Jits_Phase_8,3,5,56,103,2664920360
6216,15,Jits_Phase_8,0,5,56,103,2665660860
6216,15,Jits_Phase_8,1,1,48,50,2665684284
6216,15,Jits_Phase_8,2,5,80,127,2665761276
6216,15,Jits_Phase_8,3,5,63,98,2665811164
6216,15,Jits_Phase_8,0,5,56,103,2666460660
6216,15,Jits_Phase_8,1,1,48,57,2666497784
6216,15,Jits_Phase_8,2,5,80,127,2666510560
6216,15,Jits_Phase_8,3,5,63,98,2666550644
6216,15,Jits_Phase_8,0,5,80,127,2667290996
6216,15,Jits_Phase_8,1,1,48,63,2667309408
6216,15,Jits_Phase_8,2,5,63,98,2667320592
6216,15,Jits_Phase_8,3,5,56,103,2667391316
6216,15,Jits_Phase_8,0,1,48,53,2668088172
6216,15,Jits_Phase_8,1,5,63,98,2668120428
6216,15,Jits_Phase_8,2,5,56,103,2668151300
6216,15,Jits_Phase_8,3,5,80,127,2668210476
6216,15,Jits_Phase_8,0,5,56,103,2668860928
6216,15,Jits_Phase_8,1,5,80,127,2668863996
6216,15,Jits_Phase_8,2,5,63,98,2668980504
6216,15,Jits_Phase_8,3,1,48,62,2668994108
6216,15,Jits_Phase_8,0,5,56,103,2669741384
6216,15,Jits_Phase_8,1,1,48,57,2669744048
6216,15,Jits_Phase_8,2,5,80,127,2669781240
6216,15,Jits_Phase_8,3,5,63,98,2669790712
6216,15,Jits_Phase_8,0,5,56,103,2670501376
6216,15,Jits_Phase_8,1,1,48,57,2670504348
6216,15,Jits_Phase_8,2,5,80,127,2670520708
6216,15,Jits_Phase_8,3,5,63,98,2670600660
6216,15,Jits_Phase_8,0,5,80,127,2671290592
6216,15,Jits_Phase_8,1,5,56,103,2671391236
6216,15,Jits_Phase_8,2,1,48,53,2671392200
6216,15,Jits_Phase_8,3,5,63,98,2671401276
6216,15,Jits_Phase_8,0,5,63,98,2672060920
6216,15,Jits_Phase_8,1,5,80,127,2672121188
6216,15,Jits_Phase_8,2,5,56,103,2672130412
6216,15,Jits_Phase_8,3,1,48,52,2672160952
6216,15,Jits_Phase_8,0,1,48,57,2672823176
6216,15,Jits_Phase_8,1,5,56,103,2672860544
6216,15,Jits_Phase_8,2,5,63,98,2672931108
6216,15,Jits_Phase_8,3,5,80,127,2672934620
6216,15,Jits_Phase_8,0,1,48,60,2673602624
6216,15,Jits_Phase_8,1,5,63,98,2673691008
6216,15,Jits_Phase_8,2,5,56,103,2673741196
6216,15,Jits_Phase_8,3,5,80,127,2673744336
6216,15,Jits_Phase_8,0,1,48,53,2674446664
6216,15,Jits_Phase_8,1,5,56,103,2674451036
6216,15,Jits_Phase_8,2,5,80,127,2674454104
6216,15,Jits_Phase_8,3,5,63,98,2674541020
6216,15,Jits_Phase_8,0,1,48,61,2675283344
6216,15,Jits_Phase_8,1,5,63,98,2675290416
6216,15,Jits_Phase_8,2,5,56,103,2675380540
6216,15,Jits_Phase_8,3,5,80,127,2675411408
6216,15,Jits_Phase_8,0,5,56,103,2676081192
6216,15,Jits_Phase_8,1,5,63,98,2676181292
6216,15,Jits_Phase_8,2,1,48,57,2676206688
6216,15,Jits_Phase_8,3,5,80,127,2676211284
6216,15,Jits_Phase_8,0,1,48,54,2676882136
6216,15,Jits_Phase_8,1,5,63,98,2676901344
6216,15,Jits_Phase_8,2,5,56,103,2676910420
6216,15,Jits_Phase_8,3,5,80,127,2677000484
6216,15,Jits_Phase_8,0,1,48,55,2677641816
6216,15,Jits_Phase_8,1,5,63,98,2677720364
6216,15,Jits_Phase_8,2,5,56,103,2677801412
6216,15,Jits_Phase_8,3,5,80,127,2677804404
6216,15,Jits_Phase_8,0,5,80,127,2678481212
6216,15,Jits_Phase_8,1,1,48,55,2678489656
6216,15,Jits_Phase_8,2,5,63,98,2678500940
6216,15,Jits_Phase_8,3,5,56,103,2678561180
6216,15,Jits_Phase_8,0,1,48,49,2679251728
6216,15,Jits_Phase_8,1,5,56,103,2679320936
6216,15,Jits_Phase_8,2,5,63,98,2679341312
6216,15,Jits_Phase_8,3,5,80,127,2679344688
6216,15,Jits_Phase_8,0,5,63,98,2680061276
6216,15,Jits_Phase_8,1,1,48,56,2680081856
6216,15,Jits_Phase_8,2,5,80,127,2680141144
6216,15,Jits_Phase_8,3,5,56,103,2680151264
6216,15,Jits_Phase_8,0,5,63,98,2680880436
6216,15,Jits_Phase_8,1,5,56,103,2680900972
6216,15,Jits_Phase_8,2,1,48,58,2680935104
6216,15,Jits_Phase_8,3,5,80,127,2680951016
6216,15,Jits_Phase_8,0,5,80,127,2681681164
6216,15,Jits_Phase_8,1,5,63,98,2681721104
6216,15,Jits_Phase_8,2,1,48,62,2681724072
6216,15,Jits_Phase_8,3,5,56,103,2681740732
6216,15,Jits_Phase_8,0,5,56,103,2682520868
6216,15,Jits_Phase_8,1,5,63,98,2682531360
6216,15,Jits_Phase_8,2,1,48,56,2682533372
6216,15,Jits_Phase_8,3,5,80,127,2682550768
6216,15,Jits_Phase_8,0,5,56,103,2683251188
6216,15,Jits_Phase_8,1,1,48,62,2683259632
6216,15,Jits_Phase_8,2,5,63,98,2683341092
6216,15,Jits_Phase_8,3,5,80,127,2683400444
6216,15,Jits_Phase_8,0,5,80,127,2684080556
6216,15,Jits_Phase_8,1,5,56,103,2684090976
6216,15,Jits_Phase_8,2,5,63,98,2684161504
6216,15,Jits_Phase_8,3,1,48,32,2684296616
6216,15,Jits_Phase_8,0,5,63,98,2684911072
6216,15,Jits_Phase_8,1,5,80,127,2685001056
6216,15,Jits_Phase_8,2,5,56,103,2685011176
6216,15,Jits_Phase_8,3,1,48,46,2685205192
6216,15,Jits_Phase_8,0,5,63,98,2685641132
6216,15,Jits_Phase_8,1,5,80,127,2685691212
6216,15,Jits_Phase_8,2,5,56,103,2685750776
6216,15,Jits_Phase_8,3,1,48,50,2685814876
6216,15,Jits_Phase_8,0,1,48,53,2686361288
6216,15,Jits_Phase_8,1,5,56,103,2686461416
6216,15,Jits_Phase_8,2,5,80,127,2686510576
6216,15,Jits_Phase_8,3,5,63,98,2686531032
6216,15,Jits_Phase_8,0,1,48,62,2687066932
6216,15,Jits_Phase_8,1,5,56,103,2687231284
6216,15,Jits_Phase_8,2,5,80,127,2687291000
6216,15,Jits_Phase_8,3,5,63,98,2687361280
6216,15,Jits_Phase_8,0,1,48,65,2687769376
6216,15,Jits_Phase_8,1,5,56,103,2688031036
6216,15,Jits_Phase_8,2,5,80,127,2688060712
6216,15,Jits_Phase_8,3,5,63,98,2688090612
6216,15,Jits_Phase_8,0,1,48,63,2688607252
6216,15,Jits_Phase_8,1,5,56,103,2688870720
6216,15,Jits_Phase_8,2,5,80,127,2688891108
6216,15,Jits_Phase_8,3,5,63,98,2688950672
6216,15,Jits_Phase_8,0,5,80,127,2689751340
6216,15,Jits_Phase_8,1,5,56,103,2689760736
6216,15,Jits_Phase_8,2,5,63,98,2689771008
6216,15,Jits_Phase_8,3,1,48,58,2689830992
6216,15,Jits_Phase_8,0,5,56,103,2690511184
6216,15,Jits_Phase_8,1,5,80,127,2690551148
6216,15,Jits_Phase_8,2,5,63,98,2690580748
6216,15,Jits_Phase_8,3,1,48,60,2690596448
6216,15,Jits_Phase_8,0,5,56,103,2691281364
6216,15,Jits_Phase_8,1,5,63,98,2691311068
6216,15,Jits_Phase_8,2,5,80,127,2691350932
6216,15,Jits_Phase_8,3,1,48,58,2691399080
6216,15,Jits_Phase_8,0,5,80,127,2692030864
6216,15,Jits_Phase_8,1,5,63,98,2692081016
6216,15,Jits_Phase_8,2,1,48,62,2692093352
6216,15,Jits_Phase_8,3,5,56,103,2692100572
6216,15,Jits_Phase_8,0,1,48,62,2692836084
6216,15,Jits_Phase_8,1,5,56,103,2692861292
6216,15,Jits_Phase_8,2,5,80,127,2692930900
6216,15,Jits_Phase_8,3,5,63,98,2692991272
6216,15,Jits_Phase_8,0,1,48,67,2693648432
6216,15,Jits_Phase_8,1,5,80,127,2693660900
6216,15,Jits_Phase_8,2,5,63,98,2693751096
6216,15,Jits_Phase_8,3,5,56,103,2693770808
6216,15,Jits_Phase_8,0,5,63,98,2694481120
6216,15,Jits_Phase_8,1,5,56,103,2694500832
6216,15,Jits_Phase_8,2,1,48,58,2694528828
6216,15,Jits_Phase_8,3,5,80,127,2694540612
6216,15,Jits_Phase_8,0,5,80,127,2695241020
6216,15,Jits_Phase_8,1,5,63,98,2695260652
6216,15,Jits_Phase_8,2,1,48,59,2695297628
6216,15,Jits_Phase_8,3,5,56,103,2695341712
6216,15,Jits_Phase_8,0,5,63,98,2696030596
6216,15,Jits_Phase_8,1,1,48,59,2696104144
6216,15,Jits_Phase_8,2,5,56,103,2696141252
6216,15,Jits_Phase_8,3,5,80,127,2696144464
6216,15,Jits_Phase_8,0,1,48,58,2696817940
6216,15,Jits_Phase_8,1,5,63,98,2696850788
6216,15,Jits_Phase_8,2,5,56,103,2696860904
6216,15,Jits_Phase_8,3,5,80,127,2696864124
6216,15,Jits_Phase_8,0,1,48,67,2697623300
6216,15,Jits_Phase_8,1,5,56,103,2697631048
6216,15,Jits_Phase_8,2,5,80,127,2697750864
6216,15,Jits_Phase_8,3,5,63,98,2697790876
6216,15,Jits_Phase_8,0,5,56,103,2698451268
6216,15,Jits_Phase_8,1,1,48,63,2698506628
6216,15,Jits_Phase_8,2,5,80,127,2698531160
6216,15,Jits_Phase_8,3,5,63,98,2698550792
6216,15,Jits_Phase_8,0,1,48,64,2699232000
6216,15,Jits_Phase_8,1,5,56,103,2699251132
6216,15,Jits_Phase_8,2,5,63,98,2699360580
6216,15,Jits_Phase_8,3,5,80,127,2699363796
6216,15,Jits_Phase_8,0,1,48,63,2699974332
6216,15,Jits_Phase_8,1,5,56,103,2700090800
6216,15,Jits_Phase_8,2,5,80,127,2700120700
6216,15,Jits_Phase_8,3,5,63,98,2700140864
6216,15,Jits_Phase_8,0,1,48,60,2700771352
6216,15,Jits_Phase_8,1,5,63,98,2700881196
6216,15,Jits_Phase_8,2,5,56,103,2700890492
6216,15,Jits_Phase_8,3,5,80,127,2700900616
6216,15,Jits_Phase_8,0,1,48,51,2701617472
6216,15,Jits_Phase_8,1,5,80,127,2701670700
6216,15,Jits_Phase_8,2,5,56,103,2701720812
6216,15,Jits_Phase_8,3,5,63,98,2701760752
6216,15,Jits_Phase_8,0,5,80,127,2702491060
6216,15,Jits_Phase_8,1,5,63,98,2702510700
6216,15,Jits_Phase_8,2,1,48,54,2702525580
6216,15,Jits_Phase_8,3,5,56,103,2702560620
6216,15,Jits_Phase_8,0,5,80,127,2703300948
6216,15,Jits_Phase_8,1,5,56,103,2703330652
6216,15,Jits_Phase_8,2,1,48,57,2703358856
6216,15,Jits_Phase_8,3,5,63,98,2703401516
6216,15,Jits_Phase_8,0,5,56,103,2704150876
6216,15,Jits_Phase_8,1,5,80,127,2704161072
6216,15,Jits_Phase_8,2,1,48,60,2704169592
6216,15,Jits_Phase_8,3,5,63,98,2704200928
6216,15,Jits_Phase_8,0,5,56,103,2704860668
6216,15,Jits_Phase_8,1,5,63,98,2704880980
6216,15,Jits_Phase_8,2,5,80,127,2704950584
6216,15,Jits_Phase_8,3,1,48,70,2705063596
6216,15,Jits_Phase_8,0,1,48,55,2705648328
6216,15,Jits_Phase_8,1,5,63,98,2705680660
6216,15,Jits_Phase_8,2,5,80,127,2705741124
6216,15,Jits_Phase_8,3,5,56,103,2705760596
6216,15,Jits_Phase_8,0,1,48,51,2706409736
6216,15,Jits_Phase_8,1,5,80,127,2706471488
6216,15,Jits_Phase_8,2,5,56,103,2706500868
6216,15,Jits_Phase_8,3,5,63,98,2706530676
6216,15,Jits_Phase_8,0,1,48,59,2707186776
6216,15,Jits_Phase_8,1,5,56,103,2707271016
6216,15,Jits_Phase_8,2,5,63,98,2707330572
6216,15,Jits_Phase_8,3,5,80,127,2707390812
6216,15,Jits_Phase_8,0,1,48,54,2707995676
6216,15,Jits_Phase_8,1,5,80,127,2708091440
6216,15,Jits_Phase_8,2,5,56,103,2708110632
6216,15,Jits_Phase_8,3,5,63,98,2708181504
6216,15,Jits_Phase_8,0,1,48,54,2708792288
6216,15,Jits_Phase_8,1,5,80,127,2708892168
6216,15,Jits_Phase_8,2,5,63,98,2708910388
6216,15,Jits_Phase_8,3,5,56,103,2708941256
6216,15,Jits_Phase_8,0,5,80,127,2709680636
6216,15,Jits_Phase_8,1,1,48,56,2709691100
6216,15,Jits_Phase_8,2,5,63,98,2709701020
6216,15,Jits_Phase_8,3,5,56,103,2709761284
6216,15,Jits_Phase_8,0,5,80,127,2710481456
6216,15,Jits_Phase_8,1,1,48,45,2710512620
6216,15,Jits_Phase_8,2,5,56,103,2710580532
6216,15,Jits_Phase_8,3,5,63,98,2710611464
6216,15,Jits_Phase_8,0,5,63,98,2711270700
6216,15,Jits_Phase_8,1,5,80,127,2711320904
6216,15,Jits_Phase_8,2,5,56,103,2711341512
6216,15,Jits_Phase_8,3,1,48,51,2711505020
6216,15,Jits_Phase_8,0,5,80,127,2712110392
6216,15,Jits_Phase_8,1,5,56,103,2712141260
6216,15,Jits_Phase_8,2,5,63,98,2712144256
6216,15,Jits_Phase_8,3,1,48,59,2712168588
6216,15,Jits_Phase_8,0,1,48,71,2712867252
6216,15,Jits_Phase_8,1,5,63,98,2712961372
6216,15,Jits_Phase_8,2,5,56,103,2713001388
6216,15,Jits_Phase_8,3,5,80,127,2713020872
6216,15,Jits_Phase_8,0,5,80,127,2713721152
6216,15,Jits_Phase_8,1,1,48,72,2713772968
6216,15,Jits_Phase_8,2,5,63,98,2713801016
6216,15,Jits_Phase_8,3,5,56,103,2713840904
6216,15,Jits_Phase_8,0,5,63,98,2714541452
6216,15,Jits_Phase_8,1,5,80,127,2714621424
6216,15,Jits_Phase_8,2,5,56,103,2714640688
6216,15,Jits_Phase_8,3,1,48,70,2714728764
6216,15,Jits_Phase_8,0,5,56,103,2715381252
6216,15,Jits_Phase_8,1,5,63,98,2715391296
6216,15,Jits_Phase_8,2,1,48,71,2715394420
6216,15,Jits_Phase_8,3,5,80,127,2715431452
6216,15,Jits_Phase_8,0,1,48,61,2716087008
6216,15,Jits_Phase_8,1,5,56,103,2716100824
6216,15,Jits_Phase_8,2,5,80,127,2716104044
6216,15,Jits_Phase_8,3,5,63,98,2716241460
6216,15,Jits_Phase_8,0,1,48,53,2716840020
6216,15,Jits_Phase_8,1,5,56,103,2716890412
6216,15,Jits_Phase_8,2,5,63,98,2716980608
6216,15,Jits_Phase_8,3,5,80,127,2717051480
6216,15,Jits_Phase_8,0,1,48,41,2717452464
6216,15,Jits_Phase_8,1,5,63,98,2717771144
6216,15,Jits_Phase_8,2,5,80,127,2717774508
6216,15,Jits_Phase_8,3,5,56,103,2717830636
6216,15,Jits_Phase_8,0,5,80,127,2718610852
6216,15,Jits_Phase_8,1,1,48,41,2718629724
6216,15,Jits_Phase_8,2,5,56,103,2718631232
6216,15,Jits_Phase_8,3,5,63,98,2718640528
6216,15,Jits_Phase_8,0,5,56,103,2719320504
6216,15,Jits_Phase_8,1,5,63,98,2719330624
6216,15,Jits_Phase_8,2,5,80,127,2719401276
6216,15,Jits_Phase_8,3,1,48,20,2719497680
6216,15,Jits_Phase_8,0,5,80,127,2720121320
6216,15,Jits_Phase_8,1,5,56,103,2720171524
6216,15,Jits_Phase_8,2,5,63,98,2720220480
6216,15,Jits_Phase_8,3,1,48,23,2720255508
6216,15,Jits_Phase_8,0,1,48,27,2720947796
6216,15,Jits_Phase_8,1,5,56,103,2721000752
6216,15,Jits_Phase_8,2,5,63,98,2721011248
6216,15,Jits_Phase_8,3,5,80,127,2721051168
6216,15,Jits_Phase_8,0,5,56,103,2721741308
6216,15,Jits_Phase_8,1,5,63,98,2721781052
6216,15,Jits_Phase_8,2,1,48,35,2721790996
6216,15,Jits_Phase_8,3,5,80,127,2721831168
6216,15,Jits_Phase_8,0,5,80,127,2722501372
6216,15,Jits_Phase_8,1,5,56,103,2722551376
6216,15,Jits_Phase_8,2,5,63,98,2722570568
6216,15,Jits_Phase_8,3,1,48,36,2722571980
6216,15,Jits_Phase_8,0,5,80,127,2723311208
6216,15,Jits_Phase_8,1,1,48,40,2723321672
6216,15,Jits_Phase_8,2,5,63,98,2723371448
6216,15,Jits_Phase_8,3,5,56,103,2723451296
6216,15,Jits_Phase_8,0,5,80,127,2724091132
6216,15,Jits_Phase_8,1,5,56,103,2724131220
6216,15,Jits_Phase_8,2,1,48,36,2724143628
6216,15,Jits_Phase_8,3,5,63,98,2724150624
6216,15,Jits_Phase_8,0,1,48,38,2724936332
6216,15,Jits_Phase_8,1,5,56,103,2724941236
6216,15,Jits_Phase_8,2,5,80,127,2724951356
6216,15,Jits_Phase_8,3,5,63,98,2724991444
6216,15,Jits_Phase_8,0,1,48,34,2725663120
6216,15,Jits_Phase_8,1,5,56,103,2725810432
6216,15,Jits_Phase_8,2,5,63,98,2725850468
6216,15,Jits_Phase_8,3,5,80,127,2725853756
6216,15,Jits_Phase_8,0,5,63,98,2726481344
6216,15,Jits_Phase_8,1,5,80,127,2726521284
6216,15,Jits_Phase_8,2,1,48,42,2726526572
6216,15,Jits_Phase_8,3,5,56,103,2726591032
6216,15,Jits_Phase_8,0,5,63,98,2727251428
6216,15,Jits_Phase_8,1,1,48,40,2727262644
6216,15,Jits_Phase_8,2,5,56,103,2727331148
6216,15,Jits_Phase_8,3,5,80,127,2727390572
6216,15,Jits_Phase_8,0,1,48,36,2728042688
6216,15,Jits_Phase_8,1,5,80,127,2728061292
6216,15,Jits_Phase_8,2,5,63,98,2728110524
6216,15,Jits_Phase_8,3,5,56,103,2728141156
6216,15,Jits_Phase_8,0,1,48,36,2728743608
6216,15,Jits_Phase_8,1,5,56,103,2728850836
6216,15,Jits_Phase_8,2,5,63,98,2728901116
6216,15,Jits_Phase_8,3,5,80,127,2728911164
6216,15,Jits_Phase_8,0,5,56,103,2729660876
6216,15,Jits_Phase_8,1,5,63,98,2729771488
6216,15,Jits_Phase_8,2,5,80,127,2729790972
6216,15,Jits_Phase_8,0,1,48,35,2730355760
6216,15,Jits_Phase_8,1,5,63,98,2730460464
6216,15,Jits_Phase_8,2,5,80,127,2730510816
6216,15,Jits_Phase_8,3,5,56,103,2730601024
6216,15,Jits_Phase_8,0,5,63,98,2731251176
6216,15,Jits_Phase_8,1,5,80,127,2731280780
6216,15,Jits_Phase_8,2,1,48,35,2731336484
6216,15,Jits_Phase_8,3,5,56,103,2731370976
6216,15,Jits_Phase_8,0,5,63,98,2732051000
6216,15,Jits_Phase_8,1,5,56,103,2732061048
6216,15,Jits_Phase_8,2,1,48,57,2732145976
6216,15,Jits_Phase_8,3,5,80,127,2732161436
6216,15,Jits_Phase_8,4,1,48,35,2732202224
6216,15,Jits_Phase_8,0,5,63,98,2732951176
6216,15,Jits_Phase_8,1,5,80,127,2732980704
6216,15,Jits_Phase_8,2,5,56,103,2733011352
6216,15,Jits_Phase_8,0,1,48,59,2733547296
6216,15,Jits_Phase_8,1,5,80,127,2733771264
6216,15,Jits_Phase_8,2,5,63,98,2733781460
6216,15,Jits_Phase_8,3,5,56,103,2733810908
6216,15,Jits_Phase_8,4,1,48,51,2734014568
6216,15,Jits_Phase_8,0,5,80,127,2734470512
6216,15,Jits_Phase_8,1,5,63,98,2734491044
6216,15,Jits_Phase_8,2,1,48,43,2734508408
6216,15,Jits_Phase_8,3,5,56,103,2734541240
6216,15,Jits_Phase_8,0,1,48,45,2735119204
6216,15,Jits_Phase_8,1,5,63,98,2735301048
6216,15,Jits_Phase_8,2,5,80,127,2735361316
6216,15,Jits_Phase_8,3,5,56,103,2735381100
6216,15,Jits_Phase_8,0,5,63,98,2736060896
6216,15,Jits_Phase_8,1,5,56,103,2736110904
6216,15,Jits_Phase_8,2,5,80,127,2736121400
6216,15,Jits_Phase_8,3,1,48,42,2736154036
6216,15,Jits_Phase_8,0,5,56,103,2736891244
6216,15,Jits_Phase_8,1,1,48,48,2736898880
6216,15,Jits_Phase_8,2,5,80,127,2736900316
6216,15,Jits_Phase_8,3,5,63,98,2737000992
6216,15,Jits_Phase_8,0,5,80,127,2737651012
6216,15,Jits_Phase_8,1,5,63,98,2737661280
6216,15,Jits_Phase_8,2,1,48,46,2737694440
6216,15,Jits_Phase_8,3,5,56,103,2737810872
6216,15,Jits_Phase_8,0,1,48,35,2738372272
6216,15,Jits_Phase_8,1,5,63,98,2738461032
6216,15,Jits_Phase_8,2,5,80,127,2738500956
6216,15,Jits_Phase_8,3,5,56,103,2738581048
6216,15,Jits_Phase_8,0,5,56,103,2739210600
6216,15,Jits_Phase_8,1,1,48,74,2739274928
6216,15,Jits_Phase_8,2,5,80,127,2739310916
6216,15,Jits_Phase_8,3,5,63,98,2739330328
6216,15,Jits_Phase_8,0,1,48,69,2739932424
6216,15,Jits_Phase_8,1,5,80,127,2740031180
6216,15,Jits_Phase_8,2,5,56,103,2740041004
6216,15,Jits_Phase_8,3,5,63,98,2740131284
6216,15,Jits_Phase_8,0,1,48,45,2740771372
6216,15,Jits_Phase_8,1,5,56,103,2740830436
6216,15,Jits_Phase_8,2,5,63,98,2740851044
6216,15,Jits_Phase_8,3,5,80,127,2740930896
6216,15,Jits_Phase_8,0,1,48,48,2741559296
6216,15,Jits_Phase_8,1,5,63,98,2741581120
6216,15,Jits_Phase_8,2,5,56,103,2741671236
6216,15,Jits_Phase_8,3,5,80,127,2741674528
6216,15,Jits_Phase_8,0,1,48,30,2742348316
6216,15,Jits_Phase_8,1,5,56,103,2742410836
6216,15,Jits_Phase_8,2,5,80,127,2742470988
6216,15,Jits_Phase_8,3,5,63,98,2742481484
6216,15,Jits_Phase_8,0,1,48,44,2743173560
6216,15,Jits_Phase_8,1,5,80,127,2743260520
6216,15,Jits_Phase_8,2,5,56,103,2743270996
6216,15,Jits_Phase_8,3,5,63,98,2743273992
6216,15,Jits_Phase_8,0,1,48,54,2743965740
6216,15,Jits_Phase_8,1,5,56,103,2744021284
6216,15,Jits_Phase_8,2,5,80,127,2744030528
6216,15,Jits_Phase_8,3,5,63,98,2744050988
6216,15,Jits_Phase_8,0,1,48,34,2744754332
6216,15,Jits_Phase_8,1,5,63,98,2744791464
6216,15,Jits_Phase_8,2,5,80,127,2744851840
6216,15,Jits_Phase_8,3,5,56,103,2744901068
6216,15,Jits_Phase_8,0,1,48,52,2745568876
6216,15,Jits_Phase_8,1,5,63,98,2745671076
6216,15,Jits_Phase_8,2,5,56,103,2745681124
6216,15,Jits_Phase_8,3,5,80,127,2745730280
6216,15,Jits_Phase_8,0,1,48,64,2746364884
6216,15,Jits_Phase_8,1,5,63,98,2746370312
6216,15,Jits_Phase_8,2,5,80,127,2746390996
6216,15,Jits_Phase_8,3,5,56,103,2746401268
6216,15,Jits_Phase_8,0,1,48,47,2747130932
6216,15,Jits_Phase_8,1,5,63,98,2747171184
6216,15,Jits_Phase_8,2,5,80,127,2747174400
6216,15,Jits_Phase_8,3,5,56,103,2747211048
6216,15,Jits_Phase_8,0,1,48,54,2747844856
6216,15,Jits_Phase_8,1,5,63,98,2748040888
6216,15,Jits_Phase_8,2,5,80,127,2748071312
6216,15,Jits_Phase_8,3,5,56,103,2748080608
6216,15,Jits_Phase_8,0,1,48,62,2748765412
6216,15,Jits_Phase_8,1,5,56,103,2748791212
6216,15,Jits_Phase_8,2,5,80,127,2748820740
6216,15,Jits_Phase_8,3,5,63,98,2748850712
6216,15,Jits_Phase_8,0,1,48,68,2749554672
6216,15,Jits_Phase_8,1,5,63,98,2749691300
6216,15,Jits_Phase_8,2,5,56,103,2749731388
6216,15,Jits_Phase_8,3,5,80,127,2749734304
6216,15,Jits_Phase_8,0,5,80,127,2750390808
6216,15,Jits_Phase_8,1,1,48,59,2750405692
6216,15,Jits_Phase_8,2,5,56,103,2750470696
6216,15,Jits_Phase_8,3,5,63,98,2750520736
6216,15,Jits_Phase_8,0,5,80,127,2751171032
6216,15,Jits_Phase_8,1,5,56,103,2751191292
6216,15,Jits_Phase_8,2,1,48,61,2751194412
6216,15,Jits_Phase_8,3,5,63,98,2751280664
6216,15,Jits_Phase_8,0,1,48,61,2752007644
6216,15,Jits_Phase_8,1,5,80,127,2752010752
6216,15,Jits_Phase_8,2,5,63,98,2752050840
6216,15,Jits_Phase_8,3,5,56,103,2752090556
6216,15,Jits_Phase_8,0,5,63,98,2752820708
6216,15,Jits_Phase_8,1,1,48,82,2752851548
6216,15,Jits_Phase_8,2,5,80,127,2752880940
6216,15,Jits_Phase_8,3,5,56,103,2752910840
6216,15,Jits_Phase_8,0,5,56,103,2753661288
6216,15,Jits_Phase_8,1,5,80,127,2753690964
6216,15,Jits_Phase_8,2,1,48,54,2753758324
6216,15,Jits_Phase_8,3,5,63,98,2753780964
6216,15,Jits_Phase_8,4,1,48,39,2753791784
6216,15,Jits_Phase_8,0,1,48,50,2754460084
6216,15,Jits_Phase_8,1,5,56,103,2754471344
6216,15,Jits_Phase_8,2,5,80,127,2754580820
6216,15,Jits_Phase_8,3,5,63,98,2754610792
6216,15,Jits_Phase_8,0,1,48,58,2755220516
6216,15,Jits_Phase_8,1,5,56,103,2755321168
6216,15,Jits_Phase_8,2,5,63,98,2755380660
6216,15,Jits_Phase_8,3,5,80,127,2755411308
6216,15,Jits_Phase_8,0,1,48,60,2756030164
6216,15,Jits_Phase_8,1,5,56,103,2756091124
6216,15,Jits_Phase_8,2,5,63,98,2756161016
6216,15,Jits_Phase_8,3,5,80,127,2756181476
6216,15,Jits_Phase_8,0,5,80,127,2756861296
6216,15,Jits_Phase_8,1,5,63,98,2756880708
6216,15,Jits_Phase_8,2,5,56,103,2756930908
6216,15,Jits_Phase_8,3,1,48,58,2756952680
6216,15,Jits_Phase_8,0,5,63,98,2757680684
6216,15,Jits_Phase_8,1,5,80,127,2757690660
6216,15,Jits_Phase_8,2,5,56,103,2757741008
6216,15,Jits_Phase_8,3,1,48,36,2757808172
6216,15,Jits_Phase_8,0,5,63,98,2758481260
6216,15,Jits_Phase_8,1,1,48,66,2758522968
6216,15,Jits_Phase_8,2,5,80,127,2758551084
6216,15,Jits_Phase_8,3,5,56,103,2758571468
6216,15,Jits_Phase_8,0,1,48,60,2759183960
6216,15,Jits_Phase_8,1,5,63,98,2759310740
6216,15,Jits_Phase_8,2,5,80,127,2759314032
6216,15,Jits_Phase_8,3,5,56,103,2759381616
6216,15,Jits_Phase_8,0,5,80,127,2760061288
6216,15,Jits_Phase_8,1,5,56,103,2760080776
6216,15,Jits_Phase_8,2,5,63,98,2760091120
6216,15,Jits_Phase_8,3,1,48,70,2760117536
6216,15,Jits_Phase_8,0,5,56,103,2760880608
6216,15,Jits_Phase_8,1,1,48,60,2760893992
6216,15,Jits_Phase_8,2,5,63,98,2760970536
6216,15,Jits_Phase_8,3,5,80,127,2760973900
6216,15,Jits_Phase_8,0,5,80,127,2761650480
6216,15,Jits_Phase_8,1,5,56,103,2761660900
6216,15,Jits_Phase_8,2,1,48,57,2761671440
6216,15,Jits_Phase_8,3,5,63,98,2761681352
6216,15,Jits_Phase_8,0,1,48,55,2762331460
6216,15,Jits_Phase_8,1,5,63,98,2762451492
6216,15,Jits_Phase_8,2,5,80,127,2762510640
6216,15,Jits_Phase_8,3,5,56,103,2762520908
6216,15,Jits_Phase_8,0,1,48,50,2763007060
6216,15,Jits_Phase_8,1,5,63,98,2763320728
6216,15,Jits_Phase_8,2,5,80,127,2763351600
6216,15,Jits_Phase_8,3,5,56,103,2763391612
6216,15,Jits_Phase_8,0,5,56,103,2764111364
6216,15,Jits_Phase_8,1,5,80,127,2764120664
6216,15,Jits_Phase_8,2,5,63,98,2764161572
6216,15,Jits_Phase_8,3,1,48,43,2764162984
6216,15,Jits_Phase_8,0,5,80,127,2764870904
6216,15,Jits_Phase_8,1,1,48,50,2764944972
6216,15,Jits_Phase_8,2,5,56,103,2764950768
6216,15,Jits_Phase_8,3,5,63,98,2764961040
6216,15,Jits_Phase_8,0,5,80,127,2765720876
6216,15,Jits_Phase_8,1,1,48,44,2765745040
6216,15,Jits_Phase_8,2,5,56,103,2765800764
6216,15,Jits_Phase_8,3,5,63,98,2765810960
6216,15,Jits_Phase_8,0,5,80,127,2766560540
6216,15,Jits_Phase_8,1,1,48,62,2766571080
6216,15,Jits_Phase_8,2,5,56,103,2766610736
6216,15,Jits_Phase_8,3,5,63,98,2766661012
6216,15,Jits_Phase_8,0,1,48,49,2767349632
6216,15,Jits_Phase_8,1,5,56,103,2767500756
6216,15,Jits_Phase_8,2,5,63,98,2767503824
6216,15,Jits_Phase_8,3,5,80,127,2767550956
6216,15,Jits_Phase_8,0,1,48,68,2768266180
6216,15,Jits_Phase_8,1,5,56,103,2768320832
6216,15,Jits_Phase_8,2,5,63,98,2768350532
6216,15,Jits_Phase_8,3,5,80,127,2768360876
6216,15,Jits_Phase_8,0,5,63,98,2769030620
6216,15,Jits_Phase_8,1,5,56,103,2769101428
6216,15,Jits_Phase_8,2,5,80,127,2769151576
6216,15,Jits_Phase_8,3,1,48,59,2769156940
6216,15,Jits_Phase_8,0,5,63,98,2769861096
6216,15,Jits_Phase_8,1,5,56,103,2769871288
6216,15,Jits_Phase_8,2,5,80,127,2769874280
6216,15,Jits_Phase_8,3,1,48,60,2769877624
6216,15,Jits_Phase_8,0,5,80,127,2770610468
6216,15,Jits_Phase_8,1,5,56,103,2770670960
6216,15,Jits_Phase_8,2,5,63,98,2770761164
6216,15,Jits_Phase_8,3,1,48,59,2770798284
6216,15,Jits_Phase_8,0,5,80,127,2771411508
6216,15,Jits_Phase_8,1,5,56,103,2771510712
6216,15,Jits_Phase_8,2,1,48,65,2771520728
6216,15,Jits_Phase_8,3,5,63,98,2771550492
6216,15,Jits_Phase_8,0,5,56,103,2772261408
6216,15,Jits_Phase_8,1,1,48,59,2772279916
6216,15,Jits_Phase_8,2,5,63,98,2772281560
6216,15,Jits_Phase_8,3,5,80,127,2772320748
6216,15,Jits_Phase_8,0,5,63,98,2773031500
6216,15,Jits_Phase_8,1,5,56,103,2773050616
6216,15,Jits_Phase_8,2,1,48,55,2773068780
6216,15,Jits_Phase_8,3,5,80,127,2773151376
6216,15,Jits_Phase_8,0,5,63,98,2773820772
6216,15,Jits_Phase_8,1,5,80,127,2773931356
6216,15,Jits_Phase_8,2,1,48,67,2773955900
6216,15,Jits_Phase_8,3,5,56,103,2773961248
6216,15,Jits_Phase_8,0,5,56,103,2774641208
6216,15,Jits_Phase_8,1,1,48,71,2774644180
6216,15,Jits_Phase_8,2,5,63,98,2774670656
6216,15,Jits_Phase_8,3,5,80,127,2774720780
6216,15,Jits_Phase_8,0,5,63,98,2775411308
6216,15,Jits_Phase_8,1,1,48,68,2775427088
6216,15,Jits_Phase_8,2,5,56,103,2775440680
6216,15,Jits_Phase_8,3,5,80,127,2775490880
6216,15,Jits_Phase_8,0,1,48,65,2776193720
6216,15,Jits_Phase_8,1,5,56,103,2776240500
6216,15,Jits_Phase_8,2,5,63,98,2776260960
6216,15,Jits_Phase_8,3,5,80,127,2776340988
6216,15,Jits_Phase_8,0,5,63,98,2777010668
6216,15,Jits_Phase_8,1,1,48,65,2777038204
6216,15,Jits_Phase_8,2,5,56,103,2777070852
6216,15,Jits_Phase_8,3,5,80,127,2777100676
6216,15,Jits_Phase_8,0,5,56,103,2777851428
6216,15,Jits_Phase_8,1,1,48,60,2777868248
6216,15,Jits_Phase_8,2,5,80,127,2777910616
6216,15,Jits_Phase_8,3,5,63,98,2777950556
6216,15,Jits_Phase_8,0,1,48,65,2778599632
6216,15,Jits_Phase_8,1,5,63,98,2778630372
6216,15,Jits_Phase_8,2,5,56,103,2778691060
6216,15,Jits_Phase_8,3,5,80,127,2778760576
6216,15,Jits_Phase_8,0,1,48,67,2779439840
6216,15,Jits_Phase_8,1,5,56,103,2779511336
6216,15,Jits_Phase_8,2,5,63,98,2779521384
6216,15,Jits_Phase_8,3,5,80,127,2779524748
6216,15,Jits_Phase_8,0,5,63,98,2780250416
6216,15,Jits_Phase_8,1,1,48,58,2780274060
6216,15,Jits_Phase_8,2,5,56,103,2780310872
6216,15,Jits_Phase_8,3,5,80,127,2780314308
6216,15,Jits_Phase_8,0,5,63,98,2781030904
6216,15,Jits_Phase_8,1,5,80,127,2781060360
6216,15,Jits_Phase_8,2,1,48,60,2781061324
6216,15,Jits_Phase_8,3,5,56,103,2781080884
6216,15,Jits_Phase_8,0,5,56,103,2781760984
6216,15,Jits_Phase_8,1,5,63,98,2781811332
6216,15,Jits_Phase_8,2,1,48,58,2781832060
6216,15,Jits_Phase_8,3,5,80,127,2781891048
6216,15,Jits_Phase_8,0,5,80,127,2782461344
6216,15,Jits_Phase_8,1,5,63,98,2782501212
6216,15,Jits_Phase_8,2,1,48,68,2782511228
6216,15,Jits_Phase_8,3,5,56,103,2782520764
6216,15,Jits_Phase_8,0,1,48,57,2783240848
6216,15,Jits_Phase_8,1,5,56,103,2783330632
6216,15,Jits_Phase_8,2,5,80,127,2783341036
6216,15,Jits_Phase_8,3,5,63,98,2783361420
6216,15,Jits_Phase_8,0,1,48,57,2784009596
6216,15,Jits_Phase_8,1,5,56,103,2784111120
6216,15,Jits_Phase_8,2,5,63,98,2784161028
6216,15,Jits_Phase_8,3,5,80,127,2784190776
6216,15,Jits_Phase_8,0,1,48,53,2784790700
6216,15,Jits_Phase_8,1,5,56,103,2784860476
6216,15,Jits_Phase_8,2,5,63,98,2784870968
6216,15,Jits_Phase_8,3,5,80,127,2784921228
6216,15,Jits_Phase_8,0,1,48,54,2785634576
6216,15,Jits_Phase_8,1,5,56,103,2785651084
6216,15,Jits_Phase_8,2,5,80,127,2785654152
6216,15,Jits_Phase_8,3,5,63,98,2785810748
6216,15,Jits_Phase_8,0,1,48,57,2786388532
6216,15,Jits_Phase_8,1,5,63,98,2786471208
6216,15,Jits_Phase_8,2,5,56,103,2786540900
6216,15,Jits_Phase_8,3,5,80,127,2786580912
6216,15,Jits_Phase_8,0,1,48,51,2787257520
6216,15,Jits_Phase_8,1,5,63,98,2787311148
6216,15,Jits_Phase_8,2,5,56,103,2787401116
6216,15,Jits_Phase_8,3,5,80,127,2787404184
6216,15,Jits_Phase_8,0,1,48,56,2788021396
6216,15,Jits_Phase_8,1,5,56,103,2788091196
6216,15,Jits_Phase_8,2,5,63,98,2788181316
6216,15,Jits_Phase_8,3,5,80,127,2788190688
6216,15,Jits_Phase_8,0,1,48,53,2788851752
6216,15,Jits_Phase_8,1,5,56,103,2788861288
6216,15,Jits_Phase_8,2,5,63,98,2788910520
6216,15,Jits_Phase_8,3,5,80,127,2788941316
6216,15,Jits_Phase_8,0,1,48,54,2789699752
6216,15,Jits_Phase_8,1,5,63,98,2789741128
6216,15,Jits_Phase_8,2,5,80,127,2789751248
6216,15,Jits_Phase_8,3,5,56,103,2789810652
6216,15,Jits_Phase_8,0,5,63,98,2790460880
6216,15,Jits_Phase_8,1,1,48,73,2790472168
6216,15,Jits_Phase_8,2,5,80,127,2790521120
6216,15,Jits_Phase_8,3,5,56,103,2790561128
6216,15,Jits_Phase_8,0,5,56,103,2791360884
6216,15,Jits_Phase_8,1,1,48,51,2791365876
6216,15,Jits_Phase_8,2,5,80,127,2791381288
6216,15,Jits_Phase_8,3,5,63,98,2791400920
6216,15,Jits_Phase_8,0,5,63,98,2792080720
6216,15,Jits_Phase_8,1,5,56,103,2792101180
6216,15,Jits_Phase_8,2,5,80,127,2792141120
6216,15,Jits_Phase_8,3,1,48,52,2792189144
6216,15,Jits_Phase_8,0,1,48,57,2792880296
6216,15,Jits_Phase_8,1,5,63,98,2792890952
6216,15,Jits_Phase_8,2,5,80,127,2792920360
6216,15,Jits_Phase_8,3,5,56,103,2792941188
6216,15,Jits_Phase_8,0,1,48,48,2793622732
6216,15,Jits_Phase_8,1,5,80,127,2793660892
6216,15,Jits_Phase_8,2,5,56,103,2793711044
6216,15,Jits_Phase_8,3,5,63,98,2793771268
6216,15,Jits_Phase_8,0,5,63,98,2794451284
6216,15,Jits_Phase_8,1,5,56,103,2794571116
6216,15,Jits_Phase_8,2,1,48,85,2794577896
6216,15,Jits_Phase_8,3,5,80,127,2794600860
6216,15,Jits_Phase_8,0,1,48,55,2795220772
6216,15,Jits_Phase_8,1,5,80,127,2795290924
6216,15,Jits_Phase_8,2,5,63,98,2795310412
6216,15,Jits_Phase_8,3,5,56,103,2795381048
6216,15,Jits_Phase_8,0,5,63,98,2796111136
6216,15,Jits_Phase_8,1,5,56,103,2796120436
6216,15,Jits_Phase_8,2,1,48,59,2796130528
6216,15,Jits_Phase_8,3,5,80,127,2796201196
6216,15,Jits_Phase_8,0,1,48,77,2796940468
6216,15,Jits_Phase_8,1,5,56,103,2796971280
6216,15,Jits_Phase_8,2,5,80,127,2797001028
6216,15,Jits_Phase_8,3,5,63,98,2797011300
6216,15,Jits_Phase_8,0,9999,9999,9999,2662128756
6216,15,Jits_Phase_8,1,9999,9999,9999,2662928468
6216,15,Jits_Phase_8,2,9999,9999,9999,2663728224
6216,15,Jits_Phase_8,3,9999,9999,9999,2664528964
6216,15,Jits_Phase_8,4,9999,9999,9999,2665328720
6216,15,Jits_Phase_8,5,9999,9999,9999,2666128480
6216,15,Jits_Phase_8,6,9999,9999,9999,2666928252
6216,15,Jits_Phase_8,7,9999,9999,9999,2667728996
6216,15,Jits_Phase_8,8,9999,9999,9999,2668528720
6216,15,Jits_Phase_8,9,9999,9999,9999,2669328464
6216,15,Jits_Phase_8,10,9999,9999,9999,2670128240
6216,15,Jits_Phase_8,11,9999,9999,9999,2670928988
6216,15,Jits_Phase_8,12,9999,9999,9999,2671728768
6216,15,Jits_Phase_8,13,9999,9999,9999,2672528460
6216,15,Jits_Phase_8,14,9999,9999,9999,2673328208
6216,15,Jits_Phase_8,15,9999,9999,9999,2674129004
6216,15,Jits_Phase_8,16,9999,9999,9999,2674928764
6216,15,Jits_Phase_8,17,9999,9999,9999,2675728452
6216,15,Jits_Phase_8,18,9999,9999,9999,2676528216
6216,15,Jits_Phase_8,19,9999,9999,9999,2677328964
6216,15,Jits_Phase_8,20,9999,9999,9999,2678128696
6216,15,Jits_Phase_8,21,9999,9999,9999,2678928452
6216,15,Jits_Phase_8,22,9999,9999,9999,2679728216
6216,15,Jits_Phase_8,23,9999,9999,9999,2680529020
6216,15,Jits_Phase_8,24,9999,9999,9999,2681328720
6216,15,Jits_Phase_8,25,9999,9999,9999,2682128476
6216,15,Jits_Phase_8,26,9999,9999,9999,2682928248
6216,15,Jits_Phase_8,27,9999,9999,9999,2683728996
6216,15,Jits_Phase_8,28,9999,9999,9999,2684528768
6216,15,Jits_Phase_8,29,9999,9999,9999,2685328472
6216,15,Jits_Phase_8,30,9999,9999,9999,2686108748
6216,15,Jits_Phase_8,31,9999,9999,9999,2686908504
6216,15,Jits_Phase_8,32,9999,9999,9999,2687708212
6216,15,Jits_Phase_8,33,9999,9999,9999,2688509008
6216,15,Jits_Phase_8,34,9999,9999,9999,2689308764
6216,15,Jits_Phase_8,35,9999,9999,9999,2690108532
6216,15,Jits_Phase_8,36,9999,9999,9999,2690908232
6216,15,Jits_Phase_8,37,9999,9999,9999,2691709052
6216,15,Jits_Phase_8,38,9999,9999,9999,2692508740
6216,15,Jits_Phase_8,39,9999,9999,9999,2693308516
6216,15,Jits_Phase_8,40,9999,9999,9999,2694108228
6216,15,Jits_Phase_8,41,9999,9999,9999,2694909028
6216,15,Jits_Phase_8,42,9999,9999,9999,2695708784
6216,15,Jits_Phase_8,43,9999,9999,9999,2696508468
6216,15,Jits_Phase_8,44,9999,9999,9999,2697308284
6216,15,Jits_Phase_8,45,9999,9999,9999,2698109016
6216,15,Jits_Phase_8,46,9999,9999,9999,2698908772
6216,15,Jits_Phase_8,47,9999,9999,9999,2699708536
6216,15,Jits_Phase_8,48,9999,9999,9999,2700528696
6216,15,Jits_Phase_8,49,9999,9999,9999,2701328452
6216,15,Jits_Phase_8,50,9999,9999,9999,2702128208
6216,15,Jits_Phase_8,51,9999,9999,9999,2702929012
6216,15,Jits_Phase_8,52,9999,9999,9999,2703728712
6216,15,Jits_Phase_8,53,9999,9999,9999,2704528492
6216,15,Jits_Phase_8,54,9999,9999,9999,2705328184
6216,15,Jits_Phase_8,55,9999,9999,9999,2706129000
6216,15,Jits_Phase_8,56,9999,9999,9999,2706928696
6216,15,Jits_Phase_8,57,9999,9999,9999,2707728456
6216,15,Jits_Phase_8,58,9999,9999,9999,2708528216
6216,15,Jits_Phase_8,59,9999,9999,9999,2709329016
6216,15,Jits_Phase_8,60,9999,9999,9999,2710128704
6216,15,Jits_Phase_8,61,9999,9999,9999,2710928480
6216,15,Jits_Phase_8,62,9999,9999,9999,2711728252
6216,15,Jits_Phase_8,63,9999,9999,9999,2712528972
6216,15,Jits_Phase_8,64,9999,9999,9999,2713368632
6216,15,Jits_Phase_8,65,9999,9999,9999,2714168396
6216,15,Jits_Phase_8,66,9999,9999,9999,2714968172
6216,15,Jits_Phase_8,67,9999,9999,9999,2715768908
6216,15,Jits_Phase_8,68,9999,9999,9999,2716568668
6216,15,Jits_Phase_8,69,9999,9999,9999,2717368428
6216,15,Jits_Phase_8,70,9999,9999,9999,2718168128
6216,15,Jits_Phase_8,71,9999,9999,9999,2718968940
6216,15,Jits_Phase_8,72,9999,9999,9999,2719768636
6216,15,Jits_Phase_8,73,9999,9999,9999,2720568412
6216,15,Jits_Phase_8,74,9999,9999,9999,2721368192
6216,15,Jits_Phase_8,75,9999,9999,9999,2722168924
6216,15,Jits_Phase_8,76,9999,9999,9999,2722968692
6216,15,Jits_Phase_8,77,9999,9999,9999,2723768392
6216,15,Jits_Phase_8,78,9999,9999,9999,2724568180
6216,15,Jits_Phase_8,79,9999,9999,9999,2725368924
6216,15,Jits_Phase_8,80,9999,9999,9999,2726168684
6216,15,Jits_Phase_8,81,9999,9999,9999,2726928508
6216,15,Jits_Phase_8,82,9999,9999,9999,2727728192
6216,15,Jits_Phase_8,83,9999,9999,9999,2728528988
6216,15,Jits_Phase_8,84,9999,9999,9999,2729328736
6216,15,Jits_Phase_8,85,9999,9999,9999,2730128444
6216,15,Jits_Phase_8,86,9999,9999,9999,2730928232
6216,15,Jits_Phase_8,87,9999,9999,9999,2731728956
6216,15,Jits_Phase_8,88,9999,9999,9999,2732528704
6216,15,Jits_Phase_8,89,9999,9999,9999,2733328472
6216,15,Jits_Phase_8,90,9999,9999,9999,2734128204
6216,15,Jits_Phase_8,91,9999,9999,9999,2734928984
6216,15,Jits_Phase_8,92,9999,9999,9999,2735728760
6216,15,Jits_Phase_8,93,9999,9999,9999,2736528440
6216,15,Jits_Phase_8,94,9999,9999,9999,2737328200
6216,15,Jits_Phase_8,95,9999,9999,9999,2738129016
6216,15,Jits_Phase_8,96,9999,9999,9999,2738928732
6216,15,Jits_Phase_8,97,9999,9999,9999,2739648604
6216,15,Jits_Phase_8,98,9999,9999,9999,2740448328
6216,15,Jits_Phase_8,99,9999,9999,9999,2741248092
6216,15,Jits_Phase_8,100,9999,9999,9999,2742048884
6216,15,Jits_Phase_8,101,9999,9999,9999,2742848572
6216,15,Jits_Phase_8,102,9999,9999,9999,2743648324
6216,15,Jits_Phase_8,103,9999,9999,9999,2744448072
6216,15,Jits_Phase_8,104,9999,9999,9999,2745248876
6216,15,Jits_Phase_8,105,9999,9999,9999,2746048568
6216,15,Jits_Phase_8,106,9999,9999,9999,2746848344
6216,15,Jits_Phase_8,107,9999,9999,9999,2747648084
6216,15,Jits_Phase_8,108,9999,9999,9999,2748448892
6216,15,Jits_Phase_8,109,9999,9999,9999,2749248572
6216,15,Jits_Phase_8,110,9999,9999,9999,2750048332
6216,15,Jits_Phase_8,111,9999,9999,9999,2750848092
6216,15,Jits_Phase_8,112,9999,9999,9999,2751648836
6216,15,Jits_Phase_8,113,9999,9999,9999,2752448608
6216,15,Jits_Phase_8,114,9999,9999,9999,2753328252
6216,15,Jits_Phase_8,115,9999,9999,9999,2754128956
6216,15,Jits_Phase_8,116,9999,9999,9999,2754928708
6216,15,Jits_Phase_8,117,9999,9999,9999,2755728476
6216,15,Jits_Phase_8,118,9999,9999,9999,2756528232
6216,15,Jits_Phase_8,119,9999,9999,9999,2757328960
6216,15,Jits_Phase_8,120,9999,9999,9999,2758128744
6216,15,Jits_Phase_8,121,9999,9999,9999,2758928504
6216,15,Jits_Phase_8,122,9999,9999,9999,2759728252
6216,15,Jits_Phase_8,123,9999,9999,9999,2760528976
6216,15,Jits_Phase_8,124,9999,9999,9999,2761328740
6216,15,Jits_Phase_8,125,9999,9999,9999,2762128504
6216,15,Jits_Phase_8,126,9999,9999,9999,2762928196
6216,15,Jits_Phase_8,127,9999,9999,9999,2763729008
6216,15,Jits_Phase_8,128,9999,9999,9999,2764528708
6216,15,Jits_Phase_8,129,9999,9999,9999,2765328484
6216,15,Jits_Phase_8,130,9999,9999,9999,2766128188
6216,15,Jits_Phase_8,131,9999,9999,9999,2767088760
6216,15,Jits_Phase_8,132,9999,9999,9999,2767888452
6216,15,Jits_Phase_8,133,9999,9999,9999,2768688220
6216,15,Jits_Phase_8,134,9999,9999,9999,2769488948
6216,15,Jits_Phase_8,135,9999,9999,9999,2770288744
6216,15,Jits_Phase_8,136,9999,9999,9999,2771088500
6216,15,Jits_Phase_8,137,9999,9999,9999,2771888248
6216,15,Jits_Phase_8,138,9999,9999,9999,2772688992
6216,15,Jits_Phase_8,139,9999,9999,9999,2773488704
6216,15,Jits_Phase_8,140,9999,9999,9999,2774288468
6216,15,Jits_Phase_8,141,9999,9999,9999,2775088224
6216,15,Jits_Phase_8,142,9999,9999,9999,2775888960
6216,15,Jits_Phase_8,143,9999,9999,9999,2776688720
6216,15,Jits_Phase_8,144,9999,9999,9999,2777488472
6216,15,Jits_Phase_8,145,9999,9999,9999,2778288232
6216,15,Jits_Phase_8,146,9999,9999,9999,2779088980
6216,15,Jits_Phase_8,147,9999,9999,9999,2779888752
6216,15,Jits_Phase_8,148,9999,9999,9999,2780688504
6216,15,Jits_Phase_8,149,9999,9999,9999,2781488184
6216,15,Jits_Phase_8,150,9999,9999,9999,2782128196
6216,15,Jits_Phase_8,151,9999,9999,9999,2782929008
6216,15,Jits_Phase_8,152,9999,9999,9999,2783728728
6216,15,Jits_Phase_8,153,9999,9999,9999,2784528492
6216,15,Jits_Phase_8,154,9999,9999,9999,2785328244
6216,15,Jits_Phase_8,155,9999,9999,9999,2786128964
6216,15,Jits_Phase_8,156,9999,9999,9999,2786928720
6216,15,Jits_Phase_8,157,9999,9999,9999,2787728472
6216,15,Jits_Phase_8,158,9999,9999,9999,2788528232
6216,15,Jits_Phase_8,159,9999,9999,9999,2789328960
6216,15,Jits_Phase_8,160,9999,9999,9999,2790128744
6216,15,Jits_Phase_8,161,9999,9999,9999,2790928500
6216,15,Jits_Phase_8,162,9999,9999,9999,2791728188
6216,15,Jits_Phase_8,163,9999,9999,9999,2792529004
6216,15,Jits_Phase_8,164,9999,9999,9999,2793328760
6216,15,Jits_Phase_8,165,9999,9999,9999,2794128440
6216,15,Jits_Phase_8,166,9999,9999,9999,2794928200
6216,15,Jits_Phase_8,167,9999,9999,9999,2795729004
6216,15,Jits_Phase_8,168,9999,9999,9999,2796528708
6216,15,Jits_Phase_8,169,9999,9999,9999,2797328480
6217,16,Jits_ISO_5,0,5,56,103,2805851432
6217,16,Jits_ISO_5,1,5,63,98,2805854680
6217,16,Jits_ISO_5,2,5,80,127,2805857800
6217,16,Jits_ISO_5,0,5,56,103,2806352196
6217,16,Jits_ISO_5,1,5,63,98,2806355220
6217,16,Jits_ISO_5,2,5,80,127,2806358416
6217,16,Jits_ISO_5,0,1,48,43,2806676108
6217,16,Jits_ISO_5,1,5,56,103,2806851912
6217,16,Jits_ISO_5,2,5,80,127,2806862184
6217,16,Jits_ISO_5,3,5,63,98,2806881744
6217,16,Jits_ISO_5,0,1,48,45,2807235784
6217,16,Jits_ISO_5,1,5,63,98,2807301768
6217,16,Jits_ISO_5,2,5,80,127,2807332252
6217,16,Jits_ISO_5,3,5,56,103,2807341400
6217,16,Jits_ISO_5,0,1,48,54,2807813312
6217,16,Jits_ISO_5,1,5,80,127,2807861804
6217,16,Jits_ISO_5,2,5,56,103,2807871852
6217,16,Jits_ISO_5,3,5,63,98,2807901600
6217,16,Jits_ISO_5,0,1,48,62,2808324580
6217,16,Jits_ISO_5,1,5,63,98,2808352104
6217,16,Jits_ISO_5,2,5,56,103,2808381924
6217,16,Jits_ISO_5,3,5,80,127,2808391972
6217,16,Jits_ISO_5,0,5,56,103,2808801872
6217,16,Jits_ISO_5,1,1,48,57,2808812864
6217,16,Jits_ISO_5,2,5,63,98,2808851696
6217,16,Jits_ISO_5,3,5,80,127,2808872228
6217,16,Jits_ISO_5,0,5,80,127,2809302296
6217,16,Jits_ISO_5,1,1,48,60,2809311712
6217,16,Jits_ISO_5,2,5,63,98,2809351664
6217,16,Jits_ISO_5,3,5,56,103,2809391676
6217,16,Jits_ISO_5,0,1,48,56,2809812532
6217,16,Jits_ISO_5,1,5,56,103,2809813796
6217,16,Jits_ISO_5,2,5,63,98,2809841904
6217,16,Jits_ISO_5,3,5,80,127,2809911640
6217,16,Jits_ISO_5,0,1,48,58,2810305164
6217,16,Jits_ISO_5,1,5,56,103,2810312012
6217,16,Jits_ISO_5,2,5,80,127,2810371380
6217,16,Jits_ISO_5,3,5,63,98,2810402232
6217,16,Jits_ISO_5,0,1,48,64,2810797328
6217,16,Jits_ISO_5,1,5,56,103,2810821860
6217,16,Jits_ISO_5,2,5,63,98,2810832280
6217,16,Jits_ISO_5,3,5,80,127,2810872092
6217,16,Jits_ISO_5,0,5,63,98,2811311708
6217,16,Jits_ISO_5,1,1,48,61,2811328760
6217,16,Jits_ISO_5,2,5,80,127,2811392344
6217,16,Jits_ISO_5,3,5,56,103,2811401568
6217,16,Jits_ISO_5,0,1,48,59,2811798068
6217,16,Jits_ISO_5,1,5,63,98,2811862484
6217,16,Jits_ISO_5,2,5,56,103,2811902172
6217,16,Jits_ISO_5,3,5,80,127,2811905248
6217,16,Jits_ISO_5,0,5,56,103,2812322108
6217,16,Jits_ISO_5,1,5,63,98,2812332676
6217,16,Jits_ISO_5,2,1,48,63,2812367852
6217,16,Jits_ISO_5,3,5,80,127,2812372256
6217,16,Jits_ISO_5,0,5,56,103,2812811808
6217,16,Jits_ISO_5,1,5,63,98,2812814800
6217,16,Jits_ISO_5,2,1,48,72,2812826532
6217,16,Jits_ISO_5,3,5,80,127,2812831960
6217,16,Jits_ISO_5,0,1,48,67,2813290016
6217,16,Jits_ISO_5,1,5,80,127,2813322024
6217,16,Jits_ISO_5,2,5,56,103,2813331772
6217,16,Jits_ISO_5,3,5,63,98,2813401384
6217,16,Jits_ISO_5,0,5,63,98,2813812028
6217,16,Jits_ISO_5,1,1,48,72,2813816640
6217,16,Jits_ISO_5,2,5,56,103,2813831584
6217,16,Jits_ISO_5,3,5,80,127,2813912520
6217,16,Jits_ISO_5,0,1,48,65,2814320204
6217,16,Jits_ISO_5,1,5,56,103,2814321868
6217,16,Jits_ISO_5,2,5,80,127,2814362032
6217,16,Jits_ISO_5,3,5,63,98,2814372376
6217,16,Jits_ISO_5,0,1,48,66,2814811644
6217,16,Jits_ISO_5,1,5,80,127,2814813056
6217,16,Jits_ISO_5,2,5,63,98,2814842584
6217,16,Jits_ISO_5,3,5,56,103,2814882368
6217,16,Jits_ISO_5,0,1,48,62,2815326696
6217,16,Jits_ISO_5,1,5,56,103,2815331600
6217,16,Jits_ISO_5,2,5,63,98,2815362544
6217,16,Jits_ISO_5,3,5,80,127,2815411548
6217,16,Jits_ISO_5,0,5,80,127,2815832688
6217,16,Jits_ISO_5,1,1,48,68,2815837752
6217,16,Jits_ISO_5,2,5,56,103,2815872468
6217,16,Jits_ISO_5,3,5,63,98,2815881768
6217,16,Jits_ISO_5,0,5,80,127,2816311764
6217,16,Jits_ISO_5,1,5,63,98,2816351628
6217,16,Jits_ISO_5,2,1,48,69,2816368372
6217,16,Jits_ISO_5,3,5,56,103,2816412080
6217,16,Jits_ISO_5,0,5,56,103,2816812556
6217,16,Jits_ISO_5,1,5,80,127,2816821704
6217,16,Jits_ISO_5,2,1,48,66,2816858308
6217,16,Jits_ISO_5,3,5,63,98,2816901488
6217,16,Jits_ISO_5,0,5,80,127,2817322340
6217,16,Jits_ISO_5,1,1,48,66,2817328000
6217,16,Jits_ISO_5,2,5,63,98,2817381676
6217,16,Jits_ISO_5,3,5,56,103,2817411648
6217,16,Jits_ISO_5,0,5,56,103,2817821944
6217,16,Jits_ISO_5,1,1,48,66,2817856676
6217,16,Jits_ISO_5,2,5,80,127,2817881652
6217,16,Jits_ISO_5,3,5,63,98,2817922560
6217,16,Jits_ISO_5,0,1,48,73,2818340996
6217,16,Jits_ISO_5,1,5,56,103,2818371880
6217,16,Jits_ISO_5,2,5,63,98,2818382068
6217,16,Jits_ISO_5,3,5,80,127,2818385664
6217,16,Jits_ISO_5,0,5,80,127,2818821640
6217,16,Jits_ISO_5,1,1,48,64,2818870320
6217,16,Jits_ISO_5,2,5,63,98,2818911540
6217,16,Jits_ISO_5,3,5,56,103,2818921960
6217,16,Jits_ISO_5,0,5,56,103,2819322196
6217,16,Jits_ISO_5,1,5,63,98,2819325368
6217,16,Jits_ISO_5,2,5,80,127,2819328564
6217,16,Jits_ISO_5,3,1,48,63,2819399256
6217,16,Jits_ISO_5,0,5,80,127,2819842684
6217,16,Jits_ISO_5,1,1,48,65,2819853220
6217,16,Jits_ISO_5,2,5,63,98,2819891608
6217,16,Jits_ISO_5,3,5,56,103,2819922400
6217,16,Jits_ISO_5,0,5,56,103,2820321608
6217,16,Jits_ISO_5,1,5,80,127,2820331804
6217,16,Jits_ISO_5,2,1,48,60,2820349148
6217,16,Jits_ISO_5,3,5,63,98,2820401472
6217,16,Jits_ISO_5,0,5,56,103,2820831688
6217,16,Jits_ISO_5,1,1,48,60,2820851392
6217,16,Jits_ISO_5,2,5,63,98,2820852964
6217,16,Jits_ISO_5,3,5,80,127,2820911408
6217,16,Jits_ISO_5,0,5,80,127,2821332408
6217,16,Jits_ISO_5,1,1,48,60,2821349624
6217,16,Jits_ISO_5,2,5,63,98,2821402080
6217,16,Jits_ISO_5,3,5,56,103,2821421420
6217,16,Jits_ISO_5,0,1,48,65,2821826848
6217,16,Jits_ISO_5,1,5,80,127,2821851480
6217,16,Jits_ISO_5,2,5,56,103,2821861600
6217,16,Jits_ISO_5,3,5,63,98,2821872020
6217,16,Jits_ISO_5,0,5,80,127,2822342048
6217,16,Jits_ISO_5,1,5,56,103,2822361488
6217,16,Jits_ISO_5,2,1,48,57,2822370384
6217,16,Jits_ISO_5,3,5,63,98,2822432056
6217,16,Jits_ISO_5,0,5,56,103,2822851912
6217,16,Jits_ISO_5,1,1,48,65,2822857276
6217,16,Jits_ISO_5,2,5,80,127,2822881608
6217,16,Jits_ISO_5,3,5,63,98,2822902064
6217,16,Jits_ISO_5,0,5,63,98,2823341472
6217,16,Jits_ISO_5,1,1,48,62,2823367064
6217,16,Jits_ISO_5,2,5,56,103,2823401732
6217,16,Jits_ISO_5,3,5,80,127,2823431404
6217,16,Jits_ISO_5,0,5,63,98,2823831980
6217,16,Jits_ISO_5,1,5,80,127,2823835348
6217,16,Jits_ISO_5,2,1,48,54,2823846040
6217,16,Jits_ISO_5,3,5,56,103,2823921976
6217,16,Jits_ISO_5,0,5,56,103,2824352160
6217,16,Jits_ISO_5,1,1,48,61,2824367488
6217,16,Jits_ISO_5,2,5,63,98,2824381752
6217,16,Jits_ISO_5,3,5,80,127,2824421640
6217,16,Jits_ISO_5,0,1,48,59,2824837928
6217,16,Jits_ISO_5,1,5,63,98,2824851900
6217,16,Jits_ISO_5,2,5,56,103,2824891764
6217,16,Jits_ISO_5,3,5,80,127,2824912444
6217,16,Jits_ISO_5,0,1,48,59,2825335124
6217,16,Jits_ISO_5,1,5,63,98,2825361676
6217,16,Jits_ISO_5,2,5,56,103,2825401688
6217,16,Jits_ISO_5,3,5,80,127,2825411884
6217,16,Jits_ISO_5,0,1,48,55,2825828784
6217,16,Jits_ISO_5,1,5,80,127,2825842156
6217,16,Jits_ISO_5,2,5,63,98,2825911612
6217,16,Jits_ISO_5,3,5,56,103,2825932276
6217,16,Jits_ISO_5,0,5,56,103,2826331560
6217,16,Jits_ISO_5,1,5,80,127,2826351944
6217,16,Jits_ISO_5,2,1,48,60,2826358280
6217,16,Jits_ISO_5,3,5,63,98,2826391872
6217,16,Jits_ISO_5,0,1,48,46,2826826544
6217,16,Jits_ISO_5,1,5,63,98,2826841636
6217,16,Jits_ISO_5,2,5,80,127,2826861944
6217,16,Jits_ISO_5,3,5,56,103,2826901956
6217,16,Jits_ISO_5,0,1,48,66,2827314740
6217,16,Jits_ISO_5,1,5,63,98,2827342340
6217,16,Jits_ISO_5,2,5,56,103,2827361600
6217,16,Jits_ISO_5,3,5,80,127,2827371796
6217,16,Jits_ISO_5,0,1,48,53,2827803984
6217,16,Jits_ISO_5,1,5,80,127,2827841920
6217,16,Jits_ISO_5,2,5,56,103,2827862524
6217,16,Jits_ISO_5,3,5,63,98,2827892048
6217,16,Jits_ISO_5,0,1,48,57,2828354960
6217,16,Jits_ISO_5,1,5,56,103,2828412600
6217,16,Jits_ISO_5,2,5,80,127,2828415512
6217,16,Jits_ISO_5,3,5,63,98,2828431708
6217,16,Jits_ISO_5,0,1,48,59,2828821580
6217,16,Jits_ISO_5,1,5,63,98,2828842424
6217,16,Jits_ISO_5,2,5,56,103,2828872176
6217,16,Jits_ISO_5,3,5,80,127,2828931428
6217,16,Jits_ISO_5,0,1,48,54,2829310816
6217,16,Jits_ISO_5,1,5,63,98,2829422156
6217,16,Jits_ISO_5,2,5,56,103,2829432352
6217,16,Jits_ISO_5,3,5,80,127,2829442548
6217,16,Jits_ISO_5,0,5,56,103,2829871500
6217,16,Jits_ISO_5,1,1,48,55,2829892524
6217,16,Jits_ISO_5,2,5,80,127,2829902216
6217,16,Jits_ISO_5,3,5,63,98,2829912412
6217,16,Jits_ISO_5,0,1,48,51,2830273872
6217,16,Jits_ISO_5,1,5,63,98,2830412428
6217,16,Jits_ISO_5,2,5,56,103,2830422552
6217,16,Jits_ISO_5,3,5,80,127,2830441812
6217,16,Jits_ISO_5,0,5,56,103,2830842444
6217,16,Jits_ISO_5,1,5,63,98,2830901632
6217,16,Jits_ISO_5,2,1,48,43,2830904628
6217,16,Jits_ISO_5,3,5,80,127,2830906260
6217,16,Jits_ISO_5,0,1,48,50,2831303168
6217,16,Jits_ISO_5,1,5,80,127,2831362480
6217,16,Jits_ISO_5,2,5,56,103,2831371776
6217,16,Jits_ISO_5,3,5,63,98,2831442188
6217,16,Jits_ISO_5,0,1,48,48,2831847500
6217,16,Jits_ISO_5,1,5,80,127,2831851876
6217,16,Jits_ISO_5,2,5,56,103,2831921484
6217,16,Jits_ISO_5,3,5,63,98,2831931900
6217,16,Jits_ISO_5,0,1,48,66,2832374284
6217,16,Jits_ISO_5,1,5,63,98,2832391544
6217,16,Jits_ISO_5,2,5,56,103,2832401816
6217,16,Jits_ISO_5,3,5,80,127,2832422420
6217,16,Jits_ISO_5,0,1,48,70,2832852252
6217,16,Jits_ISO_5,1,5,80,127,2832853512
6217,16,Jits_ISO_5,2,5,63,98,2832911664
6217,16,Jits_ISO_5,3,5,56,103,2832951656
6217,16,Jits_ISO_5,0,1,48,38,2833370984
6217,16,Jits_ISO_5,1,5,56,103,2833391984
6217,16,Jits_ISO_5,2,5,63,98,2833402328
6217,16,Jits_ISO_5,3,5,80,127,2833442264
6217,16,Jits_ISO_5,0,5,56,103,2833851768
6217,16,Jits_ISO_5,1,5,80,127,2833881468
6217,16,Jits_ISO_5,2,1,48,71,2833909004
6217,16,Jits_ISO_5,3,5,63,98,2833931732
6217,16,Jits_ISO_5,0,5,56,103,2834392368
6217,16,Jits_ISO_5,1,1,48,38,2834400664
6217,16,Jits_ISO_5,2,5,63,98,2834432444
6217,16,Jits_ISO_5,3,5,80,127,2834435736
6217,16,Jits_ISO_5,0,5,56,103,2834892236
6217,16,Jits_ISO_5,1,1,48,67,2834898668
6217,16,Jits_ISO_5,2,5,63,98,2834902300
6217,16,Jits_ISO_5,3,5,80,127,2834921936
6217,16,Jits_ISO_5,0,5,56,103,2835351896
6217,16,Jits_ISO_5,1,5,80,127,2835355036
6217,16,Jits_ISO_5,2,1,48,60,2835385580
6217,16,Jits_ISO_5,3,5,63,98,2835391828
6217,16,Jits_ISO_5,0,1,48,42,2835840052
6217,16,Jits_ISO_5,1,5,63,98,2835891560
6217,16,Jits_ISO_5,2,5,56,103,2835922600
6217,16,Jits_ISO_5,3,5,80,127,2835941776
6217,16,Jits_ISO_5,0,1,48,72,2836360800
6217,16,Jits_ISO_5,1,5,80,127,2836362372
6217,16,Jits_ISO_5,2,5,56,103,2836371820
6217,16,Jits_ISO_5,3,5,63,98,2836382088
6217,16,Jits_ISO_5,0,5,56,103,2836862328
6217,16,Jits_ISO_5,1,1,48,71,2836897432
6217,16,Jits_ISO_5,2,5,80,127,2836902188
6217,16,Jits_ISO_5,3,5,63,98,2836932232
6217,16,Jits_ISO_5,0,1,48,62,2837371588
6217,16,Jits_ISO_5,1,5,63,98,2837373232
6217,16,Jits_ISO_5,2,5,80,127,2837381484
6217,16,Jits_ISO_5,3,5,56,103,2837391756
6217,16,Jits_ISO_5,0,5,56,103,2837851548
6217,16,Jits_ISO_5,1,1,48,66,2837899404
6217,16,Jits_ISO_5,2,5,63,98,2837922416
6217,16,Jits_ISO_5,3,5,80,127,2837932392
6217,16,Jits_ISO_5,0,5,80,127,2838352268
6217,16,Jits_ISO_5,1,5,56,103,2838361344
6217,16,Jits_ISO_5,2,1,48,62,2838387756
6217,16,Jits_ISO_5,3,5,63,98,2838411684
6217,16,Jits_ISO_5,0,5,80,127,2838862352
6217,16,Jits_ISO_5,1,1,48,60,2838875060
6217,16,Jits_ISO_5,2,5,56,103,2838921616
6217,16,Jits_ISO_5,3,5,63,98,2838952188
6217,16,Jits_ISO_5,0,5,56,103,2839362028
6217,16,Jits_ISO_5,1,1,48,70,2839365024
6217,16,Jits_ISO_5,2,5,80,127,2839366284
6217,16,Jits_ISO_5,3,5,63,98,2839401736
6217,16,Jits_ISO_5,0,1,48,43,2839872224
6217,16,Jits_ISO_5,1,5,56,103,2839892400
6217,16,Jits_ISO_5,2,5,63,98,2839922152
6217,16,Jits_ISO_5,3,5,80,127,2839932348
6217,16,Jits_ISO_5,0,1,48,57,2840396080
6217,16,Jits_ISO_5,1,5,63,98,2840411396
6217,16,Jits_ISO_5,2,5,80,127,2840421740
6217,16,Jits_ISO_5,3,5,56,103,2840432160
6217,16,Jits_ISO_5,0,5,80,127,2840862212
6217,16,Jits_ISO_5,1,1,48,56,2840895372
6217,16,Jits_ISO_5,2,5,56,103,2840912104
6217,16,Jits_ISO_5,3,5,63,98,2840915248
6217,16,Jits_ISO_5,0,1,48,51,2841346704
6217,16,Jits_ISO_5,1,5,56,103,2841391392
6217,16,Jits_ISO_5,2,5,80,127,2841412072
6217,16,Jits_ISO_5,3,5,63,98,2841422268
6217,16,Jits_ISO_5,0,1,48,57,2841830940
6217,16,Jits_ISO_5,1,5,63,98,2841871868
6217,16,Jits_ISO_5,2,5,56,103,2841901396
6217,16,Jits_ISO_5,3,5,80,127,2841921852
6217,16,Jits_ISO_5,0,1,48,53,2842331644
6217,16,Jits_ISO_5,1,5,56,103,2842381640
6217,16,Jits_ISO_5,2,5,80,127,2842392132
6217,16,Jits_ISO_5,3,5,63,98,2842461644
6217,16,Jits_ISO_5,0,1,48,65,2842845608
6217,16,Jits_ISO_5,1,5,63,98,2842872380
6217,16,Jits_ISO_5,2,5,80,127,2842912244
6217,16,Jits_ISO_5,3,5,56,103,2842952312
6217,16,Jits_ISO_5,0,5,56,103,2843382308
6217,16,Jits_ISO_5,1,1,48,55,2843383276
6217,16,Jits_ISO_5,2,5,63,98,2843392500
6217,16,Jits_ISO_5,3,5,80,127,2843411836
6217,16,Jits_ISO_5,0,5,63,98,2843921912
6217,16,Jits_ISO_5,1,1,48,62,2843938212
6217,16,Jits_ISO_5,2,5,80,127,2843942292
6217,16,Jits_ISO_5,3,5,56,103,2843961628
6217,16,Jits_ISO_5,0,5,56,103,2844372432
6217,16,Jits_ISO_5,1,1,48,47,2844398096
6217,16,Jits_ISO_5,2,5,80,127,2844452292
6217,16,Jits_ISO_5,3,5,63,98,2844461368
6217,16,Jits_ISO_5,0,5,80,127,2844911964
6217,16,Jits_ISO_5,1,5,63,98,2844922088
6217,16,Jits_ISO_5,2,1,48,48,2844945352
6217,16,Jits_ISO_5,3,5,56,103,2844952124
6217,16,Jits_ISO_5,0,5,63,98,2845372056
6217,16,Jits_ISO_5,1,5,80,127,2845411644
6217,16,Jits_ISO_5,2,1,48,51,2845439996
6217,16,Jits_ISO_5,3,5,56,103,2845472100
6217,16,Jits_ISO_5,0,5,63,98,2845881828
6217,16,Jits_ISO_5,1,5,56,103,2845931980
6217,16,Jits_ISO_5,2,1,48,61,2845936592
6217,16,Jits_ISO_5,3,5,80,127,2845961500
6217,16,Jits_ISO_5,0,5,80,127,2846391680
6217,16,Jits_ISO_5,1,5,63,98,2846402100
6217,16,Jits_ISO_5,2,1,48,67,2846404996
6217,16,Jits_ISO_5,3,5,56,103,2846471572
6217,16,Jits_ISO_5,0,1,48,58,2846935764
6217,16,Jits_ISO_5,1,5,80,127,2846961944
6217,16,Jits_ISO_5,2,5,56,103,2846972284
6217,16,Jits_ISO_5,3,5,63,98,2846975500
6217,16,Jits_ISO_5,0,5,56,103,2847402316
6217,16,Jits_ISO_5,1,5,80,127,2847421952
6217,16,Jits_ISO_5,2,5,63,98,2847431924
6217,16,Jits_ISO_5,3,1,48,63,2847464512
6217,16,Jits_ISO_5,0,5,63,98,2847912256
6217,16,Jits_ISO_5,1,5,56,103,2847952268
6217,16,Jits_ISO_5,2,1,48,62,2847954156
6217,16,Jits_ISO_5,3,5,80,127,2847971620
6217,16,Jits_ISO_5,0,5,63,98,2848411992
6217,16,Jits_ISO_5,1,1,48,57,2848431968
6217,16,Jits_ISO_5,2,5,56,103,2848472396
6217,16,Jits_ISO_5,3,5,80,127,2848475540
6217,16,Jits_ISO_5,0,5,56,103,2848871936
6217,16,Jits_ISO_5,1,5,80,127,2848892248
6217,16,Jits_ISO_5,2,1,48,57,2848932184
6217,16,Jits_ISO_5,3,5,63,98,2848933448
6217,16,Jits_ISO_5,0,1,48,54,2849389172
6217,16,Jits_ISO_5,1,5,56,103,2849402244
6217,16,Jits_ISO_5,2,5,63,98,2849421880
6217,16,Jits_ISO_5,3,5,80,127,2849432000
6217,16,Jits_ISO_5,0,5,80,127,2849872168
6217,16,Jits_ISO_5,1,1,48,61,2849878280
6217,16,Jits_ISO_5,2,5,56,103,2849902132
6217,16,Jits_ISO_5,3,5,63,98,2849942068
6217,16,Jits_ISO_5,0,1,48,42,2850359360
6217,16,Jits_ISO_5,1,5,80,127,2850382240
6217,16,Jits_ISO_5,2,5,56,103,2850401728
6217,16,Jits_ISO_5,3,5,63,98,2850462100
6217,16,Jits_ISO_5,0,5,56,103,2850892172
6217,16,Jits_ISO_5,1,1,48,57,2850900692
6217,16,Jits_ISO_5,2,5,80,127,2850911728
6217,16,Jits_ISO_5,3,5,63,98,2850972116
6217,16,Jits_ISO_5,0,5,80,127,2851372296
6217,16,Jits_ISO_5,1,5,56,103,2851381520
6217,16,Jits_ISO_5,2,1,48,56,2851412580
6217,16,Jits_ISO_5,3,5,63,98,2851421520
6217,16,Jits_ISO_5,0,1,48,67,2851850880
6217,16,Jits_ISO_5,1,5,63,98,2851882220
6217,16,Jits_ISO_5,2,5,56,103,2851922232
6217,16,Jits_ISO_5,3,5,80,127,2851925372
6217,16,Jits_ISO_5,0,1,48,39,2852358384
6217,16,Jits_ISO_5,1,5,63,98,2852401420
6217,16,Jits_ISO_5,2,5,80,127,2852441432
6217,16,Jits_ISO_5,3,5,56,103,2852472288
6217,16,Jits_ISO_5,0,1,48,63,2852877372
6217,16,Jits_ISO_5,1,5,56,103,2852892088
6217,16,Jits_ISO_5,2,5,63,98,2852902208
6217,16,Jits_ISO_5,3,5,80,127,2852931884
6217,16,Jits_ISO_5,0,5,80,127,2853381412
6217,16,Jits_ISO_5,1,1,48,48,2853385948
6217,16,Jits_ISO_5,2,5,63,98,2853452208
6217,16,Jits_ISO_5,3,5,56,103,2853462328
6217,16,Jits_ISO_5,0,1,48,62,2853862624
6217,16,Jits_ISO_5,1,5,63,98,2853882200
6217,16,Jits_ISO_5,2,5,56,103,2853952104
6217,16,Jits_ISO_5,3,5,80,127,2853963032
6217,16,Jits_ISO_5,0,1,48,24,2854379124
6217,16,Jits_ISO_5,1,5,63,98,2854381860
6217,16,Jits_ISO_5,2,5,56,103,2854402316
6217,16,Jits_ISO_5,3,5,80,127,2854442328
6217,16,Jits_ISO_5,0,1,48,62,2854882916
6217,16,Jits_ISO_5,1,5,56,103,2854892080
6217,16,Jits_ISO_5,2,5,63,98,2854902124
6217,16,Jits_ISO_5,3,5,80,127,2854981900
6217,16,Jits_ISO_5,0,1,48,62,2855378520
6217,16,Jits_ISO_5,1,5,63,98,2855382300
6217,16,Jits_ISO_5,2,5,56,103,2855411976
6217,16,Jits_ISO_5,3,5,80,127,2855452060
6217,16,Jits_ISO_5,0,1,48,59,2855890408
6217,16,Jits_ISO_5,1,5,56,103,2855892292
6217,16,Jits_ISO_5,2,5,63,98,2855932232
6217,16,Jits_ISO_5,3,5,80,127,2855972240
6217,16,Jits_ISO_5,0,5,80,127,2856392084
6217,16,Jits_ISO_5,1,1,48,60,2856407508
6217,16,Jits_ISO_5,2,5,56,103,2856472044
6217,16,Jits_ISO_5,3,5,63,98,2856482240
6217,16,Jits_ISO_5,0,1,48,56,2856863028
6217,16,Jits_ISO_5,1,5,56,103,2856931780
6217,16,Jits_ISO_5,2,5,63,98,2856934844
6217,16,Jits_ISO_5,3,5,80,127,2856941900
6217,16,Jits_ISO_5,0,5,56,103,2857451892
6217,16,Jits_ISO_5,1,1,48,63,2857455984
6217,16,Jits_ISO_5,2,5,63,98,2857472492
6217,16,Jits_ISO_5,3,5,80,127,2857481640
6217,16,Jits_ISO_5,0,5,63,98,2857911908
6217,16,Jits_ISO_5,1,5,80,127,2857921884
6217,16,Jits_ISO_5,2,5,56,103,2857942440
6217,16,Jits_ISO_5,3,1,48,37,2857943928
6217,16,Jits_ISO_5,0,1,48,53,2858405012
6217,16,Jits_ISO_5,1,5,63,98,2858412304
6217,16,Jits_ISO_5,2,5,56,103,2858492196
6217,16,Jits_ISO_5,3,5,80,127,2858495116
6217,16,Jits_ISO_5,0,5,63,98,2858912040
6217,16,Jits_ISO_5,1,1,48,55,2858932048
6217,16,Jits_ISO_5,2,5,56,103,2858933236
6217,16,Jits_ISO_5,3,5,80,127,2858962264
6217,16,Jits_ISO_5,4,1,48,33,2858988736
6217,16,Jits_ISO_5,0,5,56,103,2859412012
6217,16,Jits_ISO_5,1,1,48,56,2859424272
6217,16,Jits_ISO_5,2,5,63,98,2859432388
6217,16,Jits_ISO_5,3,5,80,127,2859441540
6217,16,Jits_ISO_5,0,1,48,58,2859925060
6217,16,Jits_ISO_5,1,5,56,103,2859942244
6217,16,Jits_ISO_5,2,5,63,98,2859971992
6217,16,Jits_ISO_5,3,5,80,127,2859975280
6217,16,Jits_ISO_5,0,5,56,103,2860391860
6217,16,Jits_ISO_5,1,5,63,98,2860431796
6217,16,Jits_ISO_5,2,1,48,59,2860456784
6217,16,Jits_ISO_5,3,5,80,127,2860492028
6217,16,Jits_ISO_5,0,5,56,103,2860911912
6217,16,Jits_ISO_5,1,5,63,98,2860922108
6217,16,Jits_ISO_5,2,1,48,57,2860950476
6217,16,Jits_ISO_5,3,5,80,127,2860981740
6217,16,Jits_ISO_5,0,5,56,103,2861411884
6217,16,Jits_ISO_5,1,1,48,46,2861415976
6217,16,Jits_ISO_5,2,5,80,127,2861432112
6217,16,Jits_ISO_5,3,5,63,98,2861461860
6217,16,Jits_ISO_5,0,5,80,127,2861912308
6217,16,Jits_ISO_5,1,5,56,103,2861921752
6217,16,Jits_ISO_5,2,5,63,98,2861942064
6217,16,Jits_ISO_5,3,1,48,64,2861947868
6217,16,Jits_ISO_5,0,5,63,98,2862402012
6217,16,Jits_ISO_5,1,1,48,66,2862434800
6217,16,Jits_ISO_5,2,5,80,127,2862481948
6217,16,Jits_ISO_5,3,5,56,103,2862492144
6217,16,Jits_ISO_5,0,1,48,57,2862957300
6217,16,Jits_ISO_5,1,5,80,127,2862962128
6217,16,Jits_ISO_5,2,5,56,103,2862981384
6217,16,Jits_ISO_5,3,5,63,98,2862984752
6217,16,Jits_ISO_5,0,5,63,98,2863442156
6217,16,Jits_ISO_5,1,5,80,127,2863445820
6217,16,Jits_ISO_5,2,1,48,59,2863449484
6217,16,Jits_ISO_5,3,5,56,103,2863501644
6217,16,Jits_ISO_5,0,5,56,103,2863921808
6217,16,Jits_ISO_5,1,5,80,127,2863931856
6217,16,Jits_ISO_5,2,5,63,98,2863971940
6217,16,Jits_ISO_5,3,1,48,55,2863974912
6217,16,Jits_ISO_5,0,5,56,103,2864401856
6217,16,Jits_ISO_5,1,5,63,98,2864462320
6217,16,Jits_ISO_5,2,5,80,127,2864472368
6217,16,Jits_ISO_5,3,1,48,61,2864488360
6217,16,Jits_ISO_5,0,5,63,98,2864911944
6217,16,Jits_ISO_5,1,5,80,127,2864951656
6217,16,Jits_ISO_5,2,5,56,103,2864991740
6217,16,Jits_ISO_5,3,1,48,42,2865002352
6217,16,Jits_ISO_5,0,5,56,103,2865411304
6217,16,Jits_ISO_5,1,1,48,57,2865458164
6217,16,Jits_ISO_5,2,5,63,98,2865492284
6217,16,Jits_ISO_5,3,5,80,127,2865495724
6217,16,Jits_ISO_5,0,9999,9999,9999,2806100056
6217,16,Jits_ISO_5,1,9999,9999,9999,2806599776
6217,16,Jits_ISO_5,2,9999,9999,9999,2807099496
6217,16,Jits_ISO_5,3,9999,9999,9999,2807599224
6217,16,Jits_ISO_5,4,9999,9999,9999,2808099936
6217,16,Jits_ISO_5,5,9999,9999,9999,2808599672
6217,16,Jits_ISO_5,6,9999,9999,9999,2809099328
6217,16,Jits_ISO_5,7,9999,9999,9999,2809600124
6217,16,Jits_ISO_5,8,9999,9999,9999,2810110064
6217,16,Jits_ISO_5,9,9999,9999,9999,2810609724
6217,16,Jits_ISO_5,10,9999,9999,9999,2811109456
6217,16,Jits_ISO_5,11,9999,9999,9999,2811609192
6217,16,Jits_ISO_5,12,9999,9999,9999,2812109944
6217,16,Jits_ISO_5,13,9999,9999,9999,2812609592
6217,16,Jits_ISO_5,14,9999,9999,9999,2813109328
6217,16,Jits_ISO_5,15,9999,9999,9999,2813610044
6217,16,Jits_ISO_5,16,9999,9999,9999,2814109780
6217,16,Jits_ISO_5,17,9999,9999,9999,2814609516
6217,16,Jits_ISO_5,18,9999,9999,9999,2815109172
6217,16,Jits_ISO_5,19,9999,9999,9999,2815609956
6217,16,Jits_ISO_5,20,9999,9999,9999,2816109620
6217,16,Jits_ISO_5,21,9999,9999,9999,2816609368
6217,16,Jits_ISO_5,22,9999,9999,9999,2817110084
6217,16,Jits_ISO_5,23,9999,9999,9999,2817620024
6217,16,Jits_ISO_5,24,9999,9999,9999,2818119772
6217,16,Jits_ISO_5,25,9999,9999,9999,2818619512
6217,16,Jits_ISO_5,26,9999,9999,9999,2819119172
6217,16,Jits_ISO_5,27,9999,9999,9999,2819619940
6217,16,Jits_ISO_5,28,9999,9999,9999,2820119616
6217,16,Jits_ISO_5,29,9999,9999,9999,2820619356
6217,16,Jits_ISO_5,30,9999,9999,9999,2821120076
6217,16,Jits_ISO_5,31,9999,9999,9999,2821630012
6217,16,Jits_ISO_5,32,9999,9999,9999,2822129760
6217,16,Jits_ISO_5,33,9999,9999,9999,2822629492
6217,16,Jits_ISO_5,34,9999,9999,9999,2823129164
6217,16,Jits_ISO_5,35,9999,9999,9999,2823629936
6217,16,Jits_ISO_5,36,9999,9999,9999,2824129652
6217,16,Jits_ISO_5,37,9999,9999,9999,2824629312
6217,16,Jits_ISO_5,38,9999,9999,9999,2825130108
6217,16,Jits_ISO_5,39,9999,9999,9999,2825629768
6217,16,Jits_ISO_5,40,9999,9999,9999,2826129504
6217,16,Jits_ISO_5,41,9999,9999,9999,2826629236
6217,16,Jits_ISO_5,42,9999,9999,9999,2827129952
6217,16,Jits_ISO_5,43,9999,9999,9999,2827629684
6217,16,Jits_ISO_5,44,9999,9999,9999,2828129340
6217,16,Jits_ISO_5,45,9999,9999,9999,2828630116
6217,16,Jits_ISO_5,46,9999,9999,9999,2829140036
6217,16,Jits_ISO_5,47,9999,9999,9999,2829639776
6217,16,Jits_ISO_5,48,9999,9999,9999,2830139512
6217,16,Jits_ISO_5,49,9999,9999,9999,2830639192
6217,16,Jits_ISO_5,50,9999,9999,9999,2831139960
6217,16,Jits_ISO_5,51,9999,9999,9999,2831639640
6217,16,Jits_ISO_5,52,9999,9999,9999,2832139376
6217,16,Jits_ISO_5,53,9999,9999,9999,2832640084
6217,16,Jits_ISO_5,54,9999,9999,9999,2833150008
6217,16,Jits_ISO_5,55,9999,9999,9999,2833649740
6217,16,Jits_ISO_5,56,9999,9999,9999,2834149468
6217,16,Jits_ISO_5,57,9999,9999,9999,2834649212
6217,16,Jits_ISO_5,58,9999,9999,9999,2835149908
6217,16,Jits_ISO_5,59,9999,9999,9999,2835649636
6217,16,Jits_ISO_5,60,9999,9999,9999,2836149316
6217,16,Jits_ISO_5,61,9999,9999,9999,2836650088
6217,16,Jits_ISO_5,62,9999,9999,9999,2837149820
6217,16,Jits_ISO_5,63,9999,9999,9999,2837649492
6217,16,Jits_ISO_5,64,9999,9999,9999,2838149228
6217,16,Jits_ISO_5,65,9999,9999,9999,2838649948
6217,16,Jits_ISO_5,66,9999,9999,9999,2839149624
6217,16,Jits_ISO_5,67,9999,9999,9999,2839649360
6217,16,Jits_ISO_5,68,9999,9999,9999,2840150084
6217,16,Jits_ISO_5,69,9999,9999,9999,2840660084
6217,16,Jits_ISO_5,70,9999,9999,9999,2841159732
6217,16,Jits_ISO_5,71,9999,9999,9999,2841659480
6217,16,Jits_ISO_5,72,9999,9999,9999,2842159216
6217,16,Jits_ISO_5,73,9999,9999,9999,2842659920
6217,16,Jits_ISO_5,74,9999,9999,9999,2843159656
6217,16,Jits_ISO_5,75,9999,9999,9999,2843659384
6217,16,Jits_ISO_5,76,9999,9999,9999,2844160112
6217,16,Jits_ISO_5,77,9999,9999,9999,2844670036
6217,16,Jits_ISO_5,78,9999,9999,9999,2845169788
6217,16,Jits_ISO_5,79,9999,9999,9999,2845669460
6217,16,Jits_ISO_5,80,9999,9999,9999,2846169196
6217,16,Jits_ISO_5,81,9999,9999,9999,2846669880
6217,16,Jits_ISO_5,82,9999,9999,9999,2847169620
6217,16,Jits_ISO_5,83,9999,9999,9999,2847669356
6217,16,Jits_ISO_5,84,9999,9999,9999,2848170080
6217,16,Jits_ISO_5,85,9999,9999,9999,2848669808
6217,16,Jits_ISO_5,86,9999,9999,9999,2849169468
6217,16,Jits_ISO_5,87,9999,9999,9999,2849669212
6217,16,Jits_ISO_5,88,9999,9999,9999,2850169916
6217,16,Jits_ISO_5,89,9999,9999,9999,2850669668
6217,16,Jits_ISO_5,90,9999,9999,9999,2851169400
6217,16,Jits_ISO_5,91,9999,9999,9999,2851670120
6217,16,Jits_ISO_5,92,9999,9999,9999,2852180044
6217,16,Jits_ISO_5,93,9999,9999,9999,2852679776
6217,16,Jits_ISO_5,94,9999,9999,9999,2853179508
6217,16,Jits_ISO_5,95,9999,9999,9999,2853679168
6217,16,Jits_ISO_5,96,9999,9999,9999,2854179960
6217,16,Jits_ISO_5,97,9999,9999,9999,2854679616
6217,16,Jits_ISO_5,98,9999,9999,9999,2855179352
6217,16,Jits_ISO_5,99,9999,9999,9999,2855680056
6217,16,Jits_ISO_5,100,9999,9999,9999,2856190052
6217,16,Jits_ISO_5,101,9999,9999,9999,2856689788
6217,16,Jits_ISO_5,102,9999,9999,9999,2857189452
6217,16,Jits_ISO_5,103,9999,9999,9999,2857689188
6217,16,Jits_ISO_5,104,9999,9999,9999,2858189884
6217,16,Jits_ISO_5,105,9999,9999,9999,2858689608
6217,16,Jits_ISO_5,106,9999,9999,9999,2859189320
6217,16,Jits_ISO_5,107,9999,9999,9999,2859690060
6217,16,Jits_ISO_5,108,9999,9999,9999,2860189804
6217,16,Jits_ISO_5,109,9999,9999,9999,2860689464
6217,16,Jits_ISO_5,110,9999,9999,9999,2861189212
6217,16,Jits_ISO_5,111,9999,9999,9999,2861689932
6217,16,Jits_ISO_5,112,9999,9999,9999,2862189680
6217,16,Jits_ISO_5,113,9999,9999,9999,2862689360
6217,16,Jits_ISO_5,114,9999,9999,9999,2863190132
6217,16,Jits_ISO_5,115,9999,9999,9999,2863700052
6217,16,Jits_ISO_5,116,9999,9999,9999,2864199784
6217,16,Jits_ISO_5,117,9999,9999,9999,2864699460
6217,16,Jits_ISO_5,118,9999,9999,9999,2865199212
6217,16,Jits_ISO_5,119,9999,9999,9999,2865699908
6218,7,Jits_ISO_8,0,5,56,103,2876333472
6218,7,Jits_ISO_8,1,5,63,98,2876336496
6218,7,Jits_ISO_8,2,5,80,127,2876339620
6218,7,Jits_ISO_8,0,5,56,103,2877134224
6218,7,Jits_ISO_8,1,5,63,98,2877137492
6218,7,Jits_ISO_8,2,5,80,127,2877140608
6218,7,Jits_ISO_8,3,1,48,58,2877347800
6218,7,Jits_ISO_8,0,5,80,127,2877873476
6218,7,Jits_ISO_8,1,5,63,98,2877963636
6218,7,Jits_ISO_8,2,5,56,103,2877973756
6218,7,Jits_ISO_8,3,1,48,70,2878025420
6218,7,Jits_ISO_8,0,5,56,103,2878693680
6218,7,Jits_ISO_8,1,5,63,98,2878703948
6218,7,Jits_ISO_8,2,1,48,77,2878791884
6218,7,Jits_ISO_8,3,5,80,127,2878794000
6218,7,Jits_ISO_8,0,1,48,72,2879446536
6218,7,Jits_ISO_8,1,5,63,98,2879463652
6218,7,Jits_ISO_8,2,5,80,127,2879493624
6218,7,Jits_ISO_8,3,5,56,103,2879524420
6218,7,Jits_ISO_8,0,1,48,64,2880141560
6218,7,Jits_ISO_8,1,5,56,103,2880263492
6218,7,Jits_ISO_8,2,5,80,127,2880363892
6218,7,Jits_ISO_8,3,5,63,98,2880414092
6218,7,Jits_ISO_8,0,1,48,55,2880941420
6218,7,Jits_ISO_8,1,5,56,103,2881064620
6218,7,Jits_ISO_8,2,5,80,127,2881113632
6218,7,Jits_ISO_8,3,5,63,98,2881154392
6218,7,Jits_ISO_8,0,1,48,50,2881721104
6218,7,Jits_ISO_8,1,5,80,127,2881893628
6218,7,Jits_ISO_8,2,5,63,98,2881923676
6218,7,Jits_ISO_8,3,5,56,103,2881994180
6218,7,Jits_ISO_8,0,1,48,47,2882589924
6218,7,Jits_ISO_8,1,5,63,98,2882724356
6218,7,Jits_ISO_8,2,5,56,103,2882753884
6218,7,Jits_ISO_8,3,5,80,127,2882814448
6218,7,Jits_ISO_8,0,1,48,42,2883444416
6218,7,Jits_ISO_8,1,1,38,13,2883455560
6218,7,Jits_ISO_8,2,5,56,103,2883463448
6218,7,Jits_ISO_8,3,5,80,127,2883466520
6218,7,Jits_ISO_8,4,5,63,98,2883584580
6218,7,Jits_ISO_8,0,1,48,46,2884284772
6218,7,Jits_ISO_8,1,1,38,13,2884295764
6218,7,Jits_ISO_8,2,5,56,103,2884344216
6218,7,Jits_ISO_8,3,5,80,127,2884383992
6218,7,Jits_ISO_8,4,5,63,98,2884394616
6218,7,Jits_ISO_8,0,5,56,103,2885104008
6218,7,Jits_ISO_8,1,5,80,127,2885123568
6218,7,Jits_ISO_8,2,1,48,47,2885157324
6218,7,Jits_ISO_8,3,1,38,16,2885168320
6218,7,Jits_ISO_8,4,5,63,98,2885204456
6218,7,Jits_ISO_8,0,5,80,127,2885893516
6218,7,Jits_ISO_8,1,1,48,57,2885938060
6218,7,Jits_ISO_8,2,1,48,40,2885969280
6218,7,Jits_ISO_8,3,5,56,103,2885993736
6218,7,Jits_ISO_8,4,5,63,98,2886004080
6218,7,Jits_ISO_8,0,5,63,98,2886663424
6218,7,Jits_ISO_8,1,5,80,127,2886723888
6218,7,Jits_ISO_8,2,5,56,103,2886734380
6218,7,Jits_ISO_8,3,1,48,38,2886761092
6218,7,Jits_ISO_8,0,5,56,103,2887464544
6218,7,Jits_ISO_8,1,1,48,49,2887530440
6218,7,Jits_ISO_8,2,5,63,98,2887534372
6218,7,Jits_ISO_8,3,5,80,127,2887537656
6218,7,Jits_ISO_8,0,1,48,43,2888219188
6218,7,Jits_ISO_8,1,5,63,98,2888293696
6218,7,Jits_ISO_8,2,5,56,103,2888344032
6218,7,Jits_ISO_8,3,5,80,127,2888347244
6218,7,Jits_ISO_8,0,1,48,54,2888986444
6218,7,Jits_ISO_8,1,5,56,103,2889053604
6218,7,Jits_ISO_8,2,5,80,127,2889056596
6218,7,Jits_ISO_8,3,5,63,98,2889143576
6218,7,Jits_ISO_8,0,1,48,55,2889776996
6218,7,Jits_ISO_8,1,5,63,98,2889894488
6218,7,Jits_ISO_8,2,5,56,103,2889984428
6218,7,Jits_ISO_8,3,5,80,127,2890014324
6218,7,Jits_ISO_8,0,1,48,53,2890640688
6218,7,Jits_ISO_8,1,5,56,103,2890683656
6218,7,Jits_ISO_8,2,5,63,98,2890784364
6218,7,Jits_ISO_8,3,5,80,127,2890813744
6218,7,Jits_ISO_8,0,1,48,57,2891452324
6218,7,Jits_ISO_8,1,1,48,40,2891483948
6218,7,Jits_ISO_8,2,5,63,98,2891504124
6218,7,Jits_ISO_8,3,5,56,103,2891514396
6218,7,Jits_ISO_8,4,5,80,127,2891604292
6218,7,Jits_ISO_8,0,1,48,52,2892163552
6218,7,Jits_ISO_8,1,5,63,98,2892324148
6218,7,Jits_ISO_8,2,5,56,103,2892404320
6218,7,Jits_ISO_8,3,5,80,127,2892407380
6218,7,Jits_ISO_8,0,1,48,49,2893073120
6218,7,Jits_ISO_8,1,5,80,127,2893084304
6218,7,Jits_ISO_8,2,5,63,98,2893103424
6218,7,Jits_ISO_8,3,5,56,103,2893163888
6218,7,Jits_ISO_8,0,1,48,54,2893794756
6218,7,Jits_ISO_8,1,5,56,103,2893923560
6218,7,Jits_ISO_8,2,5,63,98,2893944316
6218,7,Jits_ISO_8,3,5,80,127,2893947532
6218,7,Jits_ISO_8,0,1,48,53,2894569572
6218,7,Jits_ISO_8,1,5,63,98,2894664440
6218,7,Jits_ISO_8,2,5,80,127,2894743796
6218,7,Jits_ISO_8,3,5,56,103,2894754140
6218,7,Jits_ISO_8,0,1,48,52,2895379316
6218,7,Jits_ISO_8,1,5,63,98,2895484304
6218,7,Jits_ISO_8,2,5,56,103,2895503720
6218,7,Jits_ISO_8,3,5,80,127,2895554068
6218,7,Jits_ISO_8,0,1,48,41,2896220456
6218,7,Jits_ISO_8,1,1,38,13,2896231368
6218,7,Jits_ISO_8,2,5,80,127,2896284304
6218,7,Jits_ISO_8,3,5,63,98,2896324008
6218,7,Jits_ISO_8,4,5,56,103,2896344552
6218,7,Jits_ISO_8,0,1,48,40,2897021568
6218,7,Jits_ISO_8,1,5,56,103,2897123664
6218,7,Jits_ISO_8,2,5,63,98,2897134160
6218,7,Jits_ISO_8,3,5,80,127,2897154468
6218,7,Jits_ISO_8,0,1,48,46,2897807196
6218,7,Jits_ISO_8,1,5,56,103,2897853684
6218,7,Jits_ISO_8,2,5,63,98,2897944056
6218,7,Jits_ISO_8,3,5,80,127,2898004296
6218,7,Jits_ISO_8,0,1,48,41,2898608560
6218,7,Jits_ISO_8,1,5,80,127,2898684288
6218,7,Jits_ISO_8,2,5,56,103,2898693584
6218,7,Jits_ISO_8,3,5,63,98,2898764076
6218,7,Jits_ISO_8,0,1,48,54,2899431604
6218,7,Jits_ISO_8,1,5,63,98,2899513664
6218,7,Jits_ISO_8,2,5,80,127,2899603712
6218,7,Jits_ISO_8,3,5,56,103,2899614280
6218,7,Jits_ISO_8,0,1,48,49,2900235656
6218,7,Jits_ISO_8,1,5,63,98,2900254188
6218,7,Jits_ISO_8,2,5,80,127,2900304168
6218,7,Jits_ISO_8,3,5,56,103,2900363568
6218,7,Jits_ISO_8,0,1,48,54,2901066900
6218,7,Jits_ISO_8,1,5,56,103,2901083412
6218,7,Jits_ISO_8,2,5,80,127,2901133544
6218,7,Jits_ISO_8,3,5,63,98,2901154304
6218,7,Jits_ISO_8,0,1,48,39,2901840828
6218,7,Jits_ISO_8,1,5,56,103,2901853528
6218,7,Jits_ISO_8,2,5,80,127,2901914220
6218,7,Jits_ISO_8,3,5,63,98,2901983540
6218,7,Jits_ISO_8,0,5,56,103,2902654292
6218,7,Jits_ISO_8,1,1,48,56,2902679880
6218,7,Jits_ISO_8,2,5,80,127,2902684184
6218,7,Jits_ISO_8,3,1,48,43,2902712564
6218,7,Jits_ISO_8,4,5,63,98,2902713616
6218,7,Jits_ISO_8,0,1,48,53,2903343764
6218,7,Jits_ISO_8,1,5,56,103,2903494216
6218,7,Jits_ISO_8,2,5,80,127,2903513432
6218,7,Jits_ISO_8,3,5,63,98,2903573820
6218,7,Jits_ISO_8,0,1,48,64,2904215096
6218,7,Jits_ISO_8,1,1,48,46,2904243024
6218,7,Jits_ISO_8,2,5,80,127,2904373652
6218,7,Jits_ISO_8,3,5,56,103,2904383996
6218,7,Jits_ISO_8,4,5,63,98,2904394116
6218,7,Jits_ISO_8,0,1,48,47,2905023880
6218,7,Jits_ISO_8,1,5,56,103,2905133308
6218,7,Jits_ISO_8,2,5,80,127,2905174516
6218,7,Jits_ISO_8,3,5,63,98,2905204044
6218,7,Jits_ISO_8,0,1,48,61,2905815824
6218,7,Jits_ISO_8,1,1,48,43,2905845476
6218,7,Jits_ISO_8,2,5,56,103,2905903496
6218,7,Jits_ISO_8,3,5,63,98,2905934220
6218,7,Jits_ISO_8,4,5,80,127,2905974068
6218,7,Jits_ISO_8,0,1,48,44,2906574304
6218,7,Jits_ISO_8,1,5,80,127,2906653976
6218,7,Jits_ISO_8,2,5,63,98,2906704240
6218,7,Jits_ISO_8,3,5,56,103,2906723724
6218,7,Jits_ISO_8,0,1,48,63,2907450120
6218,7,Jits_ISO_8,1,5,56,103,2907483500
6218,7,Jits_ISO_8,2,5,80,127,2907554216
6218,7,Jits_ISO_8,3,5,63,98,2907613508
6218,7,Jits_ISO_8,0,1,48,64,2908260172
6218,7,Jits_ISO_8,1,5,80,127,2908284260
6218,7,Jits_ISO_8,2,1,48,50,2908296208
6218,7,Jits_ISO_8,3,5,63,98,2908374400
6218,7,Jits_ISO_8,4,5,56,103,2908394092
6218,7,Jits_ISO_8,0,5,63,98,2909103756
6218,7,Jits_ISO_8,1,5,56,103,2909124068
6218,7,Jits_ISO_8,2,1,48,75,2909136056
6218,7,Jits_ISO_8,3,5,80,127,2909163876
6218,7,Jits_ISO_8,4,1,48,52,2909167800
6218,7,Jits_ISO_8,0,5,80,127,2909864280
6218,7,Jits_ISO_8,1,5,63,98,2909883840
6218,7,Jits_ISO_8,2,1,48,59,2909934036
6218,7,Jits_ISO_8,3,5,56,103,2909963804
6218,7,Jits_ISO_8,4,1,48,31,2910000684
6218,7,Jits_ISO_8,0,5,63,98,2910653956
6218,7,Jits_ISO_8,1,1,48,76,2910715392
6218,7,Jits_ISO_8,2,5,56,103,2910764336
6218,7,Jits_ISO_8,3,1,48,52,2910766876
6218,7,Jits_ISO_8,4,5,80,127,2910769180
6218,7,Jits_ISO_8,0,5,63,98,2911474060
6218,7,Jits_ISO_8,1,5,56,103,2911484172
6218,7,Jits_ISO_8,2,5,80,127,2911487244
6218,7,Jits_ISO_8,3,1,48,68,2911516816
6218,7,Jits_ISO_8,4,1,48,52,2911567060
6218,7,Jits_ISO_8,0,5,56,103,2912254272
6218,7,Jits_ISO_8,1,1,48,61,2912341516
6218,7,Jits_ISO_8,2,5,80,127,2912374068
6218,7,Jits_ISO_8,3,5,63,98,2912414080
6218,7,Jits_ISO_8,4,1,48,32,2912436292
6218,7,Jits_ISO_8,0,5,56,103,2913073476
6218,7,Jits_ISO_8,1,5,80,127,2913154400
6218,7,Jits_ISO_8,2,5,63,98,2913173960
6218,7,Jits_ISO_8,3,1,48,81,2913180292
6218,7,Jits_ISO_8,0,5,56,103,2913874328
6218,7,Jits_ISO_8,1,1,48,75,2913911380
6218,7,Jits_ISO_8,2,5,63,98,2913984012
6218,7,Jits_ISO_8,3,5,80,127,2913987372
6218,7,Jits_ISO_8,0,1,48,53,2914685404
6218,7,Jits_ISO_8,1,5,56,103,2914703936
6218,7,Jits_ISO_8,2,5,80,127,2914733388
6218,7,Jits_ISO_8,3,5,63,98,2914753996
6218,7,Jits_ISO_8,0,1,48,67,2915443532
6218,7,Jits_ISO_8,1,5,63,98,2915483944
6218,7,Jits_ISO_8,2,5,56,103,2915494212
6218,7,Jits_ISO_8,3,5,80,127,2915503364
6218,7,Jits_ISO_8,0,1,48,72,2916210188
6218,7,Jits_ISO_8,1,5,80,127,2916273608
6218,7,Jits_ISO_8,2,5,56,103,2916323972
6218,7,Jits_ISO_8,3,5,63,98,2916363760
6218,7,Jits_ISO_8,0,1,48,78,2917017240
6218,7,Jits_ISO_8,1,1,48,53,2917042552
6218,7,Jits_ISO_8,2,5,80,127,2917093848
6218,7,Jits_ISO_8,3,5,63,98,2917114160
6218,7,Jits_ISO_8,4,5,56,103,2917164420
6218,7,Jits_ISO_8,0,1,48,62,2917862688
6218,7,Jits_ISO_8,1,1,48,45,2917892188
6218,7,Jits_ISO_8,2,5,80,127,2917903892
6218,7,Jits_ISO_8,3,5,56,103,2917933420
6218,7,Jits_ISO_8,4,5,63,98,2918004056
6218,7,Jits_ISO_8,0,1,48,86,2918676624
6218,7,Jits_ISO_8,1,1,48,55,2918705748
6218,7,Jits_ISO_8,2,5,56,103,2918753876
6218,7,Jits_ISO_8,3,5,80,127,2918763924
6218,7,Jits_ISO_8,4,5,63,98,2918803700
6218,7,Jits_ISO_8,0,5,56,103,2919464308
6218,7,Jits_ISO_8,1,5,63,98,2919483720
6218,7,Jits_ISO_8,2,1,48,99,2919488184
6218,7,Jits_ISO_8,3,1,48,63,2919518656
6218,7,Jits_ISO_8,4,5,80,127,2919554272
6218,7,Jits_ISO_8,0,5,63,98,2920283656
6218,7,Jits_ISO_8,1,1,48,47,2920289992
6218,7,Jits_ISO_8,2,5,80,127,2920343896
6218,7,Jits_ISO_8,3,5,56,103,2920364280
6218,7,Jits_ISO_8,0,1,48,50,2921027580
6218,7,Jits_ISO_8,1,5,80,127,2921073992
6218,7,Jits_ISO_8,2,5,56,103,2921103820
6218,7,Jits_ISO_8,3,5,63,98,2921133408
6218,7,Jits_ISO_8,0,1,48,60,2921793208
6218,7,Jits_ISO_8,1,1,48,43,2921834772
6218,7,Jits_ISO_8,2,5,56,103,2921873680
6218,7,Jits_ISO_8,3,5,63,98,2921934160
6218,7,Jits_ISO_8,4,5,80,127,2921993648
6218,7,Jits_ISO_8,0,1,48,65,2922641772
6218,7,Jits_ISO_8,1,1,48,48,2922687292
6218,7,Jits_ISO_8,2,5,80,127,2922694140
6218,7,Jits_ISO_8,3,5,56,103,2922713656
6218,7,Jits_ISO_8,4,5,63,98,2922784968
6218,7,Jits_ISO_8,0,1,48,70,2923419216
6218,7,Jits_ISO_8,1,1,48,47,2923450356
6218,7,Jits_ISO_8,2,5,80,127,2923493724
6218,7,Jits_ISO_8,3,5,63,98,2923514260
6218,7,Jits_ISO_8,4,5,56,103,2923543860
6218,7,Jits_ISO_8,0,1,48,66,2924232120
6218,7,Jits_ISO_8,1,5,80,127,2924284240
6218,7,Jits_ISO_8,2,5,63,98,2924303728
6218,7,Jits_ISO_8,3,5,56,103,2924364176
6218,7,Jits_ISO_8,0,5,80,127,2925084028
6218,7,Jits_ISO_8,1,1,48,74,2925126404
6218,7,Jits_ISO_8,2,1,48,52,2925167740
6218,7,Jits_ISO_8,3,5,56,103,2925184548
6218,7,Jits_ISO_8,4,5,63,98,2925214072
6218,7,Jits_ISO_8,0,5,63,98,2925873712
6218,7,Jits_ISO_8,1,5,80,127,2925923692
6218,7,Jits_ISO_8,2,5,56,103,2925944076
6218,7,Jits_ISO_8,3,1,48,76,2926016644
6218,7,Jits_ISO_8,4,1,48,49,2926061976
6218,7,Jits_ISO_8,0,1,48,66,2926694968
6218,7,Jits_ISO_8,1,5,80,127,2926714096
6218,7,Jits_ISO_8,2,1,48,47,2926740944
6218,7,Jits_ISO_8,3,5,56,103,2926744048
6218,7,Jits_ISO_8,4,5,63,98,2926747044
6218,7,Jits_ISO_8,0,1,48,65,2927470304
6218,7,Jits_ISO_8,1,1,48,45,2927520408
6218,7,Jits_ISO_8,2,5,63,98,2927543672
6218,7,Jits_ISO_8,3,5,56,103,2927583712
6218,7,Jits_ISO_8,4,5,80,127,2927603948
6218,7,Jits_ISO_8,0,5,80,127,2928283928
6218,7,Jits_ISO_8,1,1,48,66,2928347528
6218,7,Jits_ISO_8,2,5,63,98,2928363816
6218,7,Jits_ISO_8,3,5,56,103,2928403756
6218,7,Jits_ISO_8,4,1,48,24,2928424392
6218,7,Jits_ISO_8,0,5,63,98,2929104280
6218,7,Jits_ISO_8,1,5,80,127,2929184004
6218,7,Jits_ISO_8,2,1,48,79,2929196488
6218,7,Jits_ISO_8,3,5,56,103,2929203856
6218,7,Jits_ISO_8,0,5,56,103,2929943856
6218,7,Jits_ISO_8,1,5,63,98,2929954128
6218,7,Jits_ISO_8,2,1,48,82,2929980692
6218,7,Jits_ISO_8,3,5,80,127,2929993984
6218,7,Jits_ISO_8,0,5,56,103,2930663788
6218,7,Jits_ISO_8,1,5,80,127,2930666928
6218,7,Jits_ISO_8,2,1,48,67,2930738072
6218,7,Jits_ISO_8,3,5,63,98,2930803960
6218,7,Jits_ISO_8,0,5,56,103,2931454512
6218,7,Jits_ISO_8,1,1,48,61,2931534060
6218,7,Jits_ISO_8,2,5,63,98,2931544716
6218,7,Jits_ISO_8,3,5,80,127,2931614100
6218,7,Jits_ISO_8,0,1,48,57,2932225512
6218,7,Jits_ISO_8,1,5,63,98,2932333864
6218,7,Jits_ISO_8,2,5,80,127,2932337376
6218,7,Jits_ISO_8,3,5,56,103,2932394476
6218,7,Jits_ISO_8,0,1,48,40,2932984608
6218,7,Jits_ISO_8,1,5,80,127,2933173580
6218,7,Jits_ISO_8,2,5,56,103,2933194040
6218,7,Jits_ISO_8,3,5,63,98,2933204484
6218,7,Jits_ISO_8,0,1,48,46,2933849356
6218,7,Jits_ISO_8,1,5,56,103,2933884376
6218,7,Jits_ISO_8,2,5,63,98,2933893672
6218,7,Jits_ISO_8,3,5,80,127,2933964088
6218,7,Jits_ISO_8,0,1,48,62,2934612360
6218,7,Jits_ISO_8,1,5,80,127,2934684084
6218,7,Jits_ISO_8,2,5,56,103,2934734224
6218,7,Jits_ISO_8,3,5,63,98,2934784496
6218,7,Jits_ISO_8,0,1,48,57,2935322012
6218,7,Jits_ISO_8,1,1,48,38,2935381316
6218,7,Jits_ISO_8,2,5,56,103,2935563652
6218,7,Jits_ISO_8,3,5,63,98,2935574000
6218,7,Jits_ISO_8,4,5,80,127,2935613788
6218,7,Jits_ISO_8,0,5,56,103,2936304072
6218,7,Jits_ISO_8,1,1,48,67,2936337460
6218,7,Jits_ISO_8,2,5,63,98,2936344004
6218,7,Jits_ISO_8,3,1,48,44,2936384576
6218,7,Jits_ISO_8,4,5,80,127,2936394188
6218,7,Jits_ISO_8,0,1,48,57,2937047568
6218,7,Jits_ISO_8,1,5,80,127,2937063856
6218,7,Jits_ISO_8,2,1,48,41,2937093712
6218,7,Jits_ISO_8,3,5,56,103,2937113964
6218,7,Jits_ISO_8,4,5,63,98,2937133600
6218,7,Jits_ISO_8,0,1,48,54,2937775020
6218,7,Jits_ISO_8,1,1,48,38,2937819672
6218,7,Jits_ISO_8,2,5,80,127,2937873728
6218,7,Jits_ISO_8,3,5,63,98,2937934176
6218,7,Jits_ISO_8,4,5,56,103,2938014196
6218,7,Jits_ISO_8,0,5,80,127,2938653984
6218,7,Jits_ISO_8,1,5,56,103,2938693924
6218,7,Jits_ISO_8,2,5,63,98,2938713560
6218,7,Jits_ISO_8,3,1,48,55,2938752268
6218,7,Jits_ISO_8,4,1,48,37,2938793000
6218,7,Jits_ISO_8,0,1,48,60,2939493900
6218,7,Jits_ISO_8,1,5,56,103,2939503964
6218,7,Jits_ISO_8,2,5,80,127,2939514088
6218,7,Jits_ISO_8,3,1,48,43,2939529252
6218,7,Jits_ISO_8,4,5,63,98,2939554376
6218,7,Jits_ISO_8,0,1,48,64,2940257492
6218,7,Jits_ISO_8,1,1,48,43,2940305428
6218,7,Jits_ISO_8,2,5,56,103,2940374552
6218,7,Jits_ISO_8,3,5,63,98,2940414400
6218,7,Jits_ISO_8,4,5,80,127,2940417692
6218,7,Jits_ISO_8,0,5,63,98,2941063528
6218,7,Jits_ISO_8,1,1,48,65,2941098932
6218,7,Jits_ISO_8,2,5,80,127,2941103464
6218,7,Jits_ISO_8,3,1,48,39,2941169668
6218,7,Jits_ISO_8,4,5,56,103,2941174120
6218,7,Jits_ISO_8,0,5,63,98,2941854020
6218,7,Jits_ISO_8,1,1,48,61,2941901280
6218,7,Jits_ISO_8,2,5,56,103,2941934056
6218,7,Jits_ISO_8,3,5,80,127,2941994520
6218,7,Jits_ISO_8,0,5,80,127,2942664144
6218,7,Jits_ISO_8,1,1,48,63,2942714224
6218,7,Jits_ISO_8,2,5,63,98,2942715636
6218,7,Jits_ISO_8,3,5,56,103,2942743964
6218,7,Jits_ISO_8,0,5,56,103,2943453696
6218,7,Jits_ISO_8,1,5,63,98,2943503680
6218,7,Jits_ISO_8,2,5,80,127,2943513876
6218,7,Jits_ISO_8,3,1,48,74,2943521032
6218,7,Jits_ISO_8,0,1,48,62,2944231192
6218,7,Jits_ISO_8,1,5,56,103,2944263676
6218,7,Jits_ISO_8,2,5,63,98,2944374396
6218,7,Jits_ISO_8,3,5,80,127,2944393512
6218,7,Jits_ISO_8,0,1,48,69,2945019000
6218,7,Jits_ISO_8,1,5,63,98,2945064508
6218,7,Jits_ISO_8,2,5,80,127,2945114472
6218,7,Jits_ISO_8,3,5,56,103,2945203560
6218,7,Jits_ISO_8,0,1,48,67,2945852220
6218,7,Jits_ISO_8,1,5,63,98,2945853656
6218,7,Jits_ISO_8,2,5,80,127,2945883556
6218,7,Jits_ISO_8,3,5,56,103,2945973524
6218,7,Jits_ISO_8,0,1,48,61,2946647116
6218,7,Jits_ISO_8,1,5,63,98,2946653584
6218,7,Jits_ISO_8,2,5,56,103,2946663932
6218,7,Jits_ISO_8,3,5,80,127,2946764312
6218,7,Jits_ISO_8,0,1,48,64,2947357552
6218,7,Jits_ISO_8,1,5,63,98,2947553600
6218,7,Jits_ISO_8,2,5,80,127,2947584472
6218,7,Jits_ISO_8,3,5,56,103,2947614148
6218,7,Jits_ISO_8,0,1,48,68,2948346704
6218,7,Jits_ISO_8,1,5,80,127,2948373860
6218,7,Jits_ISO_8,2,5,63,98,2948384428
6218,7,Jits_ISO_8,3,5,56,103,2948413808
6218,7,Jits_ISO_8,0,5,80,127,2949074384
6218,7,Jits_ISO_8,1,5,63,98,2949093796
6218,7,Jits_ISO_8,2,5,56,103,2949143848
6218,7,Jits_ISO_8,3,1,48,71,2949162852
6218,7,Jits_ISO_8,0,1,48,67,2949879756
6218,7,Jits_ISO_8,1,5,63,98,2949903844
6218,7,Jits_ISO_8,2,5,80,127,2949964312
6218,7,Jits_ISO_8,3,5,56,103,2949983636
6218,7,Jits_ISO_8,0,5,63,98,2950663628
6218,7,Jits_ISO_8,1,1,48,66,2950664596
6218,7,Jits_ISO_8,2,5,56,103,2950713676
6218,7,Jits_ISO_8,3,5,80,127,2950724096
6218,7,Jits_ISO_8,0,1,48,67,2951413176
6218,7,Jits_ISO_8,1,5,56,103,2951494116
6218,7,Jits_ISO_8,2,5,80,127,2951504240
6218,7,Jits_ISO_8,3,5,63,98,2951603424
6218,7,Jits_ISO_8,0,1,48,75,2952170016
6218,7,Jits_ISO_8,1,5,80,127,2952253668
6218,7,Jits_ISO_8,2,5,63,98,2952264312
6218,7,Jits_ISO_8,3,5,56,103,2952413492
6218,7,Jits_ISO_8,0,1,48,68,2952988304
6218,7,Jits_ISO_8,1,5,63,98,2953063788
6218,7,Jits_ISO_8,2,5,80,127,2953103788
6218,7,Jits_ISO_8,3,5,56,103,2953183680
6218,7,Jits_ISO_8,0,1,48,69,2953773932
6218,7,Jits_ISO_8,1,5,56,103,2953854424
6218,7,Jits_ISO_8,2,5,80,127,2953953788
6218,7,Jits_ISO_8,3,5,63,98,2953974172
6218,7,Jits_ISO_8,0,1,48,70,2954634408
6218,7,Jits_ISO_8,1,5,80,127,2954713428
6218,7,Jits_ISO_8,2,5,56,103,2954723548
6218,7,Jits_ISO_8,3,5,63,98,2954813740
6218,7,Jits_ISO_8,0,1,48,71,2955439724
6218,7,Jits_ISO_8,1,5,56,103,2955514260
6218,7,Jits_ISO_8,2,5,63,98,2955533672
6218,7,Jits_ISO_8,3,5,80,127,2955613600
6218,7,Jits_ISO_8,0,1,48,61,2956243224
6218,7,Jits_ISO_8,1,5,63,98,2956263996
6218,7,Jits_ISO_8,2,5,56,103,2956353968
6218,7,Jits_ISO_8,3,5,80,127,2956357184
6218,7,Jits_ISO_8,0,1,48,81,2957088840
6218,7,Jits_ISO_8,1,5,56,103,2957094264
6218,7,Jits_ISO_8,2,5,80,127,2957153688
6218,7,Jits_ISO_8,3,5,63,98,2957164180
6218,7,Jits_ISO_8,0,5,80,127,2957944032
6218,7,Jits_ISO_8,1,5,56,103,2957954376
6218,7,Jits_ISO_8,2,5,63,98,2957957440
6218,7,Jits_ISO_8,3,1,48,86,2957980632
6218,7,Jits_ISO_8,0,5,56,103,2958704112
6218,7,Jits_ISO_8,1,5,80,127,2958714308
6218,7,Jits_ISO_8,2,5,63,98,2958733572
6218,7,Jits_ISO_8,0,1,48,57,2959147428
6218,7,Jits_ISO_8,1,5,63,98,2959474212
6218,7,Jits_ISO_8,2,5,80,127,2959533336
6218,7,Jits_ISO_8,3,5,56,103,2959583560
6218,7,Jits_ISO_8,4,1,48,63,2959664444
6218,7,Jits_ISO_8,0,1,48,55,2960246784
6218,7,Jits_ISO_8,1,5,63,98,2960353592
6218,7,Jits_ISO_8,2,5,56,103,2960364012
6218,7,Jits_ISO_8,3,5,80,127,2960414212
6218,7,Jits_ISO_8,0,1,48,46,2960971640
6218,7,Jits_ISO_8,1,5,63,98,2961054168
6218,7,Jits_ISO_8,2,5,80,127,2961073420
6218,7,Jits_ISO_8,3,5,56,103,2961083616
6218,7,Jits_ISO_8,0,1,48,46,2961765508
6218,7,Jits_ISO_8,1,5,63,98,2961854016
6218,7,Jits_ISO_8,2,5,80,127,2961857232
6218,7,Jits_ISO_8,3,5,56,103,2961893964
6218,7,Jits_ISO_8,0,1,48,58,2962559124
6218,7,Jits_ISO_8,1,1,48,27,2962621060
6218,7,Jits_ISO_8,2,5,63,98,2962724200
6218,7,Jits_ISO_8,3,5,80,127,2962754100
6218,7,Jits_ISO_8,4,5,56,103,2962764148
6218,7,Jits_ISO_8,0,5,56,103,2963474052
6218,7,Jits_ISO_8,1,5,80,127,2963503356
6218,7,Jits_ISO_8,2,5,63,98,2963534376
6218,7,Jits_ISO_8,3,1,48,56,2963608360
6218,7,Jits_ISO_8,4,1,48,21,2963696168
6218,7,Jits_ISO_8,0,5,63,98,2964374020
6218,7,Jits_ISO_8,1,1,48,46,2964404268
6218,7,Jits_ISO_8,2,5,56,103,2964414024
6218,7,Jits_ISO_8,3,5,80,127,2964417240
6218,7,Jits_ISO_8,0,5,80,127,2965074228
6218,7,Jits_ISO_8,1,5,56,103,2965154104
6218,7,Jits_ISO_8,2,1,48,80,2965187188
6218,7,Jits_ISO_8,3,5,63,98,2965204248
6218,7,Jits_ISO_8,0,5,80,127,2965853504
6218,7,Jits_ISO_8,1,5,56,103,2965874112
6218,7,Jits_ISO_8,2,1,48,77,2965900148
6218,7,Jits_ISO_8,3,5,63,98,2965964112
6218,7,Jits_ISO_8,0,1,48,72,2966643900
6218,7,Jits_ISO_8,1,5,80,127,2966694196
6218,7,Jits_ISO_8,2,5,63,98,2966734088
6218,7,Jits_ISO_8,3,5,56,103,2966774008
6218,7,Jits_ISO_8,0,1,48,63,2967352276
6218,7,Jits_ISO_8,1,5,63,98,2967464368
6218,7,Jits_ISO_8,2,5,80,127,2967523888
6218,7,Jits_ISO_8,3,5,56,103,2967554312
6218,7,Jits_ISO_8,0,1,48,54,2968099820
6218,7,Jits_ISO_8,1,5,56,103,2968263928
6218,7,Jits_ISO_8,2,5,80,127,2968294000
6218,7,Jits_ISO_8,3,5,63,98,2968383984
6218,7,Jits_ISO_8,0,1,48,60,2968835552
6218,7,Jits_ISO_8,1,5,56,103,2969074072
6218,7,Jits_ISO_8,2,5,80,127,2969183540
6218,7,Jits_ISO_8,3,5,63,98,2969214264
6218,7,Jits_ISO_8,0,5,56,103,2969924156
6218,7,Jits_ISO_8,1,5,63,98,2969984324
6218,7,Jits_ISO_8,2,5,80,127,2970014000
6218,7,Jits_ISO_8,3,1,48,68,2970152372
6218,7,Jits_ISO_8,0,5,56,103,2970693992
6218,7,Jits_ISO_8,1,5,63,98,2970763824
6218,7,Jits_ISO_8,2,5,80,127,2970783988
6218,7,Jits_ISO_8,3,1,48,68,2970878964
6218,7,Jits_ISO_8,0,1,48,59,2971463448
6218,7,Jits_ISO_8,1,5,80,127,2971464940
6218,7,Jits_ISO_8,2,5,63,98,2971483828
6218,7,Jits_ISO_8,3,5,56,103,2971533880
6218,7,Jits_ISO_8,0,9999,9999,9999,2876731512
6218,7,Jits_ISO_8,1,9999,9999,9999,2877531188
6218,7,Jits_ISO_8,2,9999,9999,9999,2878331960
6218,7,Jits_ISO_8,3,9999,9999,9999,2879131756
6218,7,Jits_ISO_8,4,9999,9999,9999,2879931476
6218,7,Jits_ISO_8,5,9999,9999,9999,2880731216
6218,7,Jits_ISO_8,6,9999,9999,9999,2881531968
6218,7,Jits_ISO_8,7,9999,9999,9999,2882331756
6218,7,Jits_ISO_8,8,9999,9999,9999,2883131472
6218,7,Jits_ISO_8,9,9999,9999,9999,2883931196
6218,7,Jits_ISO_8,10,9999,9999,9999,2884732016
6218,7,Jits_ISO_8,11,9999,9999,9999,2885531700
6218,7,Jits_ISO_8,12,9999,9999,9999,2886331500
6218,7,Jits_ISO_8,13,9999,9999,9999,2887131192
6218,7,Jits_ISO_8,14,9999,9999,9999,2887932008
6218,7,Jits_ISO_8,15,9999,9999,9999,2888731720
6218,7,Jits_ISO_8,16,9999,9999,9999,2889531488
6218,7,Jits_ISO_8,17,9999,9999,9999,2890331200
6218,7,Jits_ISO_8,18,9999,9999,9999,2891131960
6218,7,Jits_ISO_8,19,9999,9999,9999,2891931724
6218,7,Jits_ISO_8,20,9999,9999,9999,2892731452
6218,7,Jits_ISO_8,21,9999,9999,9999,2893531260
6218,7,Jits_ISO_8,22,9999,9999,9999,2894332008
6218,7,Jits_ISO_8,23,9999,9999,9999,2895131716
6218,7,Jits_ISO_8,24,9999,9999,9999,2895931496
6218,7,Jits_ISO_8,25,9999,9999,9999,2896731244
6218,7,Jits_ISO_8,26,9999,9999,9999,2897532020
6218,7,Jits_ISO_8,27,9999,9999,9999,2898331728
6218,7,Jits_ISO_8,28,9999,9999,9999,2899131512
6218,7,Jits_ISO_8,29,9999,9999,9999,2899931252
6218,7,Jits_ISO_8,30,9999,9999,9999,2900732004
6218,7,Jits_ISO_8,31,9999,9999,9999,2901531716
6218,7,Jits_ISO_8,32,9999,9999,9999,2902331500
6218,7,Jits_ISO_8,33,9999,9999,9999,2903131252
6218,7,Jits_ISO_8,34,9999,9999,9999,2903931968
6218,7,Jits_ISO_8,35,9999,9999,9999,2904731740
6218,7,Jits_ISO_8,36,9999,9999,9999,2905531476
6218,7,Jits_ISO_8,37,9999,9999,9999,2906331196
6218,7,Jits_ISO_8,38,9999,9999,9999,2907132016
6218,7,Jits_ISO_8,39,9999,9999,9999,2907931728
6218,7,Jits_ISO_8,40,9999,9999,9999,2908731492
6218,7,Jits_ISO_8,41,9999,9999,9999,2909531200
6218,7,Jits_ISO_8,42,9999,9999,9999,2910332028
6218,7,Jits_ISO_8,43,9999,9999,9999,2911131740
6218,7,Jits_ISO_8,44,9999,9999,9999,2911931508
6218,7,Jits_ISO_8,45,9999,9999,9999,2912731240
6218,7,Jits_ISO_8,46,9999,9999,9999,2913531960
6218,7,Jits_ISO_8,47,9999,9999,9999,2914331760
6218,7,Jits_ISO_8,48,9999,9999,9999,2915131484
6218,7,Jits_ISO_8,49,9999,9999,9999,2915931192
6218,7,Jits_ISO_8,50,9999,9999,9999,2916732020
6218,7,Jits_ISO_8,51,9999,9999,9999,2917531708
6218,7,Jits_ISO_8,52,9999,9999,9999,2918331492
6218,7,Jits_ISO_8,53,9999,9999,9999,2919131232
6218,7,Jits_ISO_8,54,9999,9999,9999,2919931980
6218,7,Jits_ISO_8,55,9999,9999,9999,2920731728
6218,7,Jits_ISO_8,56,9999,9999,9999,2921531512
6218,7,Jits_ISO_8,57,9999,9999,9999,2922331200
6218,7,Jits_ISO_8,58,9999,9999,9999,2923131956
6218,7,Jits_ISO_8,59,9999,9999,9999,2923931736
6218,7,Jits_ISO_8,60,9999,9999,9999,2924731464
6218,7,Jits_ISO_8,61,9999,9999,9999,2925531256
6218,7,Jits_ISO_8,62,9999,9999,9999,2926332024
6218,7,Jits_ISO_8,63,9999,9999,9999,2927131728
6218,7,Jits_ISO_8,64,9999,9999,9999,2927931516
6218,7,Jits_ISO_8,65,9999,9999,9999,2928731228
6218,7,Jits_ISO_8,66,9999,9999,9999,2929532024
6218,7,Jits_ISO_8,67,9999,9999,9999,2930331740
6218,7,Jits_ISO_8,68,9999,9999,9999,2931131456
6218,7,Jits_ISO_8,69,9999,9999,9999,2931931208
6218,7,Jits_ISO_8,70,9999,9999,9999,2932731976
6218,7,Jits_ISO_8,71,9999,9999,9999,2933531768
6218,7,Jits_ISO_8,72,9999,9999,9999,2934331476
6218,7,Jits_ISO_8,73,9999,9999,9999,2935131188
6218,7,Jits_ISO_8,74,9999,9999,9999,2935932008
6218,7,Jits_ISO_8,75,9999,9999,9999,2936731720
6218,7,Jits_ISO_8,76,9999,9999,9999,2937531512
6218,7,Jits_ISO_8,77,9999,9999,9999,2938331244
6218,7,Jits_ISO_8,78,9999,9999,9999,2939131992
6218,7,Jits_ISO_8,79,9999,9999,9999,2939931716
6218,7,Jits_ISO_8,80,9999,9999,9999,2940731500
6218,7,Jits_ISO_8,81,9999,9999,9999,2941531204
6218,7,Jits_ISO_8,82,9999,9999,9999,2942331980
6218,7,Jits_ISO_8,83,9999,9999,9999,2943131764
6218,7,Jits_ISO_8,84,9999,9999,9999,2943931480
6218,7,Jits_ISO_8,85,9999,9999,9999,2944731236
6218,7,Jits_ISO_8,86,9999,9999,9999,2945531988
6218,7,Jits_ISO_8,87,9999,9999,9999,2946331772
6218,7,Jits_ISO_8,88,9999,9999,9999,2947131452
6218,7,Jits_ISO_8,89,9999,9999,9999,2947931244
6218,7,Jits_ISO_8,90,9999,9999,9999,2948732008
6218,7,Jits_ISO_8,91,9999,9999,9999,2949531716
6218,7,Jits_ISO_8,92,9999,9999,9999,2950331444
6218,7,Jits_ISO_8,93,9999,9999,9999,2951131252
6218,7,Jits_ISO_8,94,9999,9999,9999,2951932004
6218,7,Jits_ISO_8,95,9999,9999,9999,2952731712
6218,7,Jits_ISO_8,96,9999,9999,9999,2953531492
6218,7,Jits_ISO_8,97,9999,9999,9999,2954331200
6218,7,Jits_ISO_8,98,9999,9999,9999,2955131960
6218,7,Jits_ISO_8,99,9999,9999,9999,2955931744
6218,7,Jits_ISO_8,100,9999,9999,9999,2956731444
6218,7,Jits_ISO_8,101,9999,9999,9999,2957531256
6218,7,Jits_ISO_8,102,9999,9999,9999,2958332004
6218,7,Jits_ISO_8,103,9999,9999,9999,2959131748
6218,7,Jits_ISO_8,104,9999,9999,9999,2959931500
6218,7,Jits_ISO_8,105,9999,9999,9999,2960731236
6218,7,Jits_ISO_8,106,9999,9999,9999,2961531980
6218,7,Jits_ISO_8,107,9999,9999,9999,2962331748
6218,7,Jits_ISO_8,108,9999,9999,9999,2963131512
6218,7,Jits_ISO_8,109,9999,9999,9999,2963931240
6218,7,Jits_ISO_8,110,9999,9999,9999,2964731956
6218,7,Jits_ISO_8,111,9999,9999,9999,2965531740
6218,7,Jits_ISO_8,112,9999,9999,9999,2966331460
6218,7,Jits_ISO_8,113,9999,9999,9999,2967131260
6218,7,Jits_ISO_8,114,9999,9999,9999,2967932012
6218,7,Jits_ISO_8,115,9999,9999,9999,2968731720
6218,7,Jits_ISO_8,116,9999,9999,9999,2969531508
6218,7,Jits_ISO_8,117,9999,9999,9999,2970331252
6218,7,Jits_ISO_8,118,9999,9999,9999,2971132024
6218,7,Jits_ISO_8,119,9999,9999,9999,2971931744
6219,19,Jits_Linear_5,0,5,56,103,2981175820
6219,19,Jits_Linear_5,1,5,63,98,2981178992
6219,19,Jits_Linear_5,2,5,80,127,2981182112
6219,19,Jits_Linear_5,0,5,56,103,2981655828
6219,19,Jits_Linear_5,1,5,63,98,2981658856
6219,19,Jits_Linear_5,2,5,80,127,2981661904
6219,19,Jits_Linear_5,0,1,48,58,2982118524
6219,19,Jits_Linear_5,1,5,56,103,2982136160
6219,19,Jits_Linear_5,2,5,80,127,2982146356
6219,19,Jits_Linear_5,3,5,63,98,2982165992
6219,19,Jits_Linear_5,0,5,63,98,2982566152
6219,19,Jits_Linear_5,1,5,80,127,2982596052
6219,19,Jits_Linear_5,2,5,56,103,2982606200
6219,19,Jits_Linear_5,3,1,48,71,2982644912
6219,19,Jits_Linear_5,0,1,48,67,2983056204
6219,19,Jits_Linear_5,1,5,80,127,2983105832
6219,19,Jits_Linear_5,2,5,56,103,2983116204
6219,19,Jits_Linear_5,3,5,63,98,2983145804
6219,19,Jits_Linear_5,0,5,63,98,2983586200
6219,19,Jits_Linear_5,1,1,48,37,2983589840
6219,19,Jits_Linear_5,2,5,56,103,2983615800
6219,19,Jits_Linear_5,3,5,80,127,2983626144
6219,19,Jits_Linear_5,0,5,56,103,2984025556
6219,19,Jits_Linear_5,1,5,63,98,2984075684
6219,19,Jits_Linear_5,2,5,80,127,2984095996
6219,19,Jits_Linear_5,3,1,48,66,2984116652
6219,19,Jits_Linear_5,0,5,80,127,2984515892
6219,19,Jits_Linear_5,1,5,63,98,2984566096
6219,19,Jits_Linear_5,2,1,48,57,2984577088
6219,19,Jits_Linear_5,3,5,56,103,2984606032
6219,19,Jits_Linear_5,0,5,56,103,2985005628
6219,19,Jits_Linear_5,1,1,48,65,2985019160
6219,19,Jits_Linear_5,2,5,63,98,2985036196
6219,19,Jits_Linear_5,3,5,80,127,2985105732
6219,19,Jits_Linear_5,0,5,56,103,2985495892
6219,19,Jits_Linear_5,1,5,80,127,2985556284
6219,19,Jits_Linear_5,2,1,48,61,2985582544
6219,19,Jits_Linear_5,3,5,63,98,2985586100
6219,19,Jits_Linear_5,0,5,56,103,2985995820
6219,19,Jits_Linear_5,1,1,48,68,2986005792
6219,19,Jits_Linear_5,2,5,63,98,2986007280
6219,19,Jits_Linear_5,3,5,80,127,2986045948
6219,19,Jits_Linear_5,0,1,48,62,2986485024
6219,19,Jits_Linear_5,1,5,63,98,2986486520
6219,19,Jits_Linear_5,2,5,80,127,2986565876
6219,19,Jits_Linear_5,3,5,56,103,2986576516
6219,19,Jits_Linear_5,0,1,48,53,2986960932
6219,19,Jits_Linear_5,1,5,63,98,2987035964
6219,19,Jits_Linear_5,2,5,56,103,2987075884
6219,19,Jits_Linear_5,3,5,80,127,2987079100
6219,19,Jits_Linear_5,0,1,48,59,2987459164
6219,19,Jits_Linear_5,1,5,56,103,2987495784
6219,19,Jits_Linear_5,2,5,63,98,2987506132
6219,19,Jits_Linear_5,3,5,80,127,2987546068
6219,19,Jits_Linear_5,0,1,48,58,2987967244
6219,19,Jits_Linear_5,1,5,56,103,2987986400
6219,19,Jits_Linear_5,2,5,63,98,2987989540
6219,19,Jits_Linear_5,3,5,80,127,2988005736
6219,19,Jits_Linear_5,0,5,80,127,2988505716
6219,19,Jits_Linear_5,1,5,56,103,2988515688
6219,19,Jits_Linear_5,2,1,48,52,2988531012
6219,19,Jits_Linear_5,3,5,63,98,2988586560
6219,19,Jits_Linear_5,0,5,63,98,2989006164
6219,19,Jits_Linear_5,1,5,56,103,2989025580
6219,19,Jits_Linear_5,2,5,80,127,2989105600
6219,19,Jits_Linear_5,0,1,48,56,2989468584
6219,19,Jits_Linear_5,1,5,56,103,2989526632
6219,19,Jits_Linear_5,2,5,80,127,2989566480
6219,19,Jits_Linear_5,3,5,63,98,2989575704
6219,19,Jits_Linear_5,0,5,80,127,2990026392
6219,19,Jits_Linear_5,1,5,63,98,2990055772
6219,19,Jits_Linear_5,2,1,48,44,2990082632
6219,19,Jits_Linear_5,3,5,56,103,2990095704
6219,19,Jits_Linear_5,0,1,48,53,2990527312
6219,19,Jits_Linear_5,1,5,56,103,2990555688
6219,19,Jits_Linear_5,2,5,63,98,2990586188
6219,19,Jits_Linear_5,3,5,80,127,2990636376
6219,19,Jits_Linear_5,0,5,80,127,2991065724
6219,19,Jits_Linear_5,1,1,48,62,2991066688
6219,19,Jits_Linear_5,2,5,56,103,2991106556
6219,19,Jits_Linear_5,3,5,63,98,2991115632
6219,19,Jits_Linear_5,0,5,80,127,2991566100
6219,19,Jits_Linear_5,1,1,48,49,2991573480
6219,19,Jits_Linear_5,2,5,63,98,2991606112
6219,19,Jits_Linear_5,3,5,56,103,2991665456
6219,19,Jits_Linear_5,0,5,56,103,2992086628
6219,19,Jits_Linear_5,1,1,48,60,2992089748
6219,19,Jits_Linear_5,2,5,80,127,2992095696
6219,19,Jits_Linear_5,3,5,63,98,2992175420
6219,19,Jits_Linear_5,0,5,80,127,2992605660
6219,19,Jits_Linear_5,1,1,48,55,2992617172
6219,19,Jits_Linear_5,2,5,63,98,2992665900
6219,19,Jits_Linear_5,3,5,56,103,2992695648
6219,19,Jits_Linear_5,0,5,56,103,2993125816
6219,19,Jits_Linear_5,1,1,48,34,2993149536
6219,19,Jits_Linear_5,2,5,80,127,2993186056
6219,19,Jits_Linear_5,3,5,63,98,2993226068
6219,19,Jits_Linear_5,0,1,48,59,2993677260
6219,19,Jits_Linear_5,1,5,56,103,2993706508
6219,19,Jits_Linear_5,2,5,63,98,2993715508
6219,19,Jits_Linear_5,3,5,80,127,2993718868
6219,19,Jits_Linear_5,0,5,80,127,2994185592
6219,19,Jits_Linear_5,1,1,48,30,2994245732
6219,19,Jits_Linear_5,2,5,63,98,2994275648
6219,19,Jits_Linear_5,3,5,56,103,2994285920
6219,19,Jits_Linear_5,0,5,56,103,2994716072
6219,19,Jits_Linear_5,1,5,63,98,2994719320
6219,19,Jits_Linear_5,2,5,80,127,2994722364
6219,19,Jits_Linear_5,3,1,48,45,2994736292
6219,19,Jits_Linear_5,0,1,48,51,2995262400
6219,19,Jits_Linear_5,1,5,80,127,2995265960
6219,19,Jits_Linear_5,2,5,63,98,2995316016
6219,19,Jits_Linear_5,3,5,56,103,2995345916
6219,19,Jits_Linear_5,0,5,56,103,2995775844
6219,19,Jits_Linear_5,1,5,80,127,2995786264
6219,19,Jits_Linear_5,2,1,48,41,2995809612
6219,19,Jits_Linear_5,3,5,63,98,2995855716
6219,19,Jits_Linear_5,0,5,56,103,2996315484
6219,19,Jits_Linear_5,1,1,48,35,2996321296
6219,19,Jits_Linear_5,2,5,63,98,2996336088
6219,19,Jits_Linear_5,3,5,80,127,2996396624
6219,19,Jits_Linear_5,0,1,48,62,2996838676
6219,19,Jits_Linear_5,1,5,80,127,2996845896
6219,19,Jits_Linear_5,2,5,63,98,2996915508
6219,19,Jits_Linear_5,3,5,56,103,2996936040
6219,19,Jits_Linear_5,0,1,48,65,2997332928
6219,19,Jits_Linear_5,1,5,80,127,2997406092
6219,19,Jits_Linear_5,2,5,56,103,2997416736
6219,19,Jits_Linear_5,3,5,63,98,2997425512
6219,19,Jits_Linear_5,0,1,48,66,2997921848
6219,19,Jits_Linear_5,1,5,80,127,2997935516
6219,19,Jits_Linear_5,2,5,56,103,2997955904
6219,19,Jits_Linear_5,3,5,63,98,2998025520
6219,19,Jits_Linear_5,0,1,48,60,2998433984
6219,19,Jits_Linear_5,1,5,56,103,2998486472
6219,19,Jits_Linear_5,2,5,80,127,2998516076
6219,19,Jits_Linear_5,3,5,63,98,2998535548
6219,19,Jits_Linear_5,0,1,48,59,2998942492
6219,19,Jits_Linear_5,1,5,63,98,2999026244
6219,19,Jits_Linear_5,2,5,56,103,2999085500
6219,19,Jits_Linear_5,3,5,80,127,2999116224
6219,19,Jits_Linear_5,0,1,48,63,2999468784
6219,19,Jits_Linear_5,1,5,63,98,2999575892
6219,19,Jits_Linear_5,2,5,80,127,2999579404
6219,19,Jits_Linear_5,3,5,56,103,2999666024
6219,19,Jits_Linear_5,0,1,48,52,3000035996
6219,19,Jits_Linear_5,1,5,56,103,3000146372
6219,19,Jits_Linear_5,2,5,63,98,3000175976
6219,19,Jits_Linear_5,3,5,80,127,3000216060
6219,19,Jits_Linear_5,0,1,48,68,3000641240
6219,19,Jits_Linear_5,1,5,63,98,3000706460
6219,19,Jits_Linear_5,2,5,56,103,3000746236
6219,19,Jits_Linear_5,3,5,80,127,3000765948
6219,19,Jits_Linear_5,0,1,48,70,3001233780
6219,19,Jits_Linear_5,1,5,63,98,3001265640
6219,19,Jits_Linear_5,2,5,56,103,3001305456
6219,19,Jits_Linear_5,3,5,80,127,3001315580
6219,19,Jits_Linear_5,0,1,48,60,3001732476
6219,19,Jits_Linear_5,1,5,80,127,3001795896
6219,19,Jits_Linear_5,2,5,63,98,3001865520
6219,19,Jits_Linear_5,3,5,56,103,3001886200
6219,19,Jits_Linear_5,0,1,48,63,3002310532
6219,19,Jits_Linear_5,1,5,56,103,3002345732
6219,19,Jits_Linear_5,2,5,80,127,3002366564
6219,19,Jits_Linear_5,3,5,63,98,3002406356
6219,19,Jits_Linear_5,0,1,48,71,3002910192
6219,19,Jits_Linear_5,1,5,63,98,3002916440
6219,19,Jits_Linear_5,2,5,80,127,3002935556
6219,19,Jits_Linear_5,3,5,56,103,3002975572
6219,19,Jits_Linear_5,0,1,48,66,3003440596
6219,19,Jits_Linear_5,1,5,63,98,3003476440
6219,19,Jits_Linear_5,2,5,56,103,3003495704
6219,19,Jits_Linear_5,3,5,80,127,3003505900
6219,19,Jits_Linear_5,0,1,48,71,3003949940
6219,19,Jits_Linear_5,1,5,80,127,3004035388
6219,19,Jits_Linear_5,2,5,56,103,3004055908
6219,19,Jits_Linear_5,3,5,63,98,3004085584
6219,19,Jits_Linear_5,0,1,48,62,3004503656
6219,19,Jits_Linear_5,1,5,56,103,3004675412
6219,19,Jits_Linear_5,2,5,80,127,3004678480
6219,19,Jits_Linear_5,3,5,63,98,3004696024
6219,19,Jits_Linear_5,0,1,48,60,3005073148
6219,19,Jits_Linear_5,1,5,63,98,3005167004
6219,19,Jits_Linear_5,2,5,56,103,3005195712
6219,19,Jits_Linear_5,3,5,80,127,3005256252
6219,19,Jits_Linear_5,0,1,48,30,3005609112
6219,19,Jits_Linear_5,1,1,38,14,3005616364
6219,19,Jits_Linear_5,2,5,63,98,3005816272
6219,19,Jits_Linear_5,3,5,56,103,3005826392
6219,19,Jits_Linear_5,4,5,80,127,3005835692
6219,19,Jits_Linear_5,0,1,48,32,3006118940
6219,19,Jits_Linear_5,1,5,56,103,3006336412
6219,19,Jits_Linear_5,2,5,80,127,3006366236
6219,19,Jits_Linear_5,3,5,63,98,3006376508
6219,19,Jits_Linear_5,0,1,48,62,3006667132
6219,19,Jits_Linear_5,1,5,63,98,3006945592
6219,19,Jits_Linear_5,2,5,56,103,3006955864
6219,19,Jits_Linear_5,3,5,80,127,3006976396
6219,19,Jits_Linear_5,4,1,48,41,3007123120
6219,19,Jits_Linear_5,0,1,48,20,3007218076
6219,19,Jits_Linear_5,1,5,56,103,3007446296
6219,19,Jits_Linear_5,2,5,63,98,3007505632
6219,19,Jits_Linear_5,3,5,80,127,3007509300
6219,19,Jits_Linear_5,4,1,48,43,3007752252
6219,19,Jits_Linear_5,0,5,80,127,3008045316
6219,19,Jits_Linear_5,1,5,56,103,3008055808
6219,19,Jits_Linear_5,2,5,63,98,3008126392
6219,19,Jits_Linear_5,0,5,80,127,3008615852
6219,19,Jits_Linear_5,1,5,56,103,3008685460
6219,19,Jits_Linear_5,2,5,63,98,3008695656
6219,19,Jits_Linear_5,0,1,48,43,3009091792
6219,19,Jits_Linear_5,1,5,63,98,3009236440
6219,19,Jits_Linear_5,2,5,56,103,3009245440
6219,19,Jits_Linear_5,3,5,80,127,3009266124
6219,19,Jits_Linear_5,0,5,80,127,3009765668
6219,19,Jits_Linear_5,1,1,48,55,3009798308
6219,19,Jits_Linear_5,2,5,63,98,3009826204
6219,19,Jits_Linear_5,3,5,56,103,3009866516
6219,19,Jits_Linear_5,0,1,48,43,3010312972
6219,19,Jits_Linear_5,1,5,56,103,3010395432
6219,19,Jits_Linear_5,2,5,63,98,3010405700
6219,19,Jits_Linear_5,3,5,80,127,3010445624
6219,19,Jits_Linear_5,0,1,48,39,3010817616
6219,19,Jits_Linear_5,1,1,48,17,3010906460
6219,19,Jits_Linear_5,2,5,56,103,3010946416
6219,19,Jits_Linear_5,3,5,80,127,3010976168
6219,19,Jits_Linear_5,4,5,63,98,3011026156
6219,19,Jits_Linear_5,5,1,48,26,3011224212
6219,19,Jits_Linear_5,0,1,48,51,3011518708
6219,19,Jits_Linear_5,1,5,56,103,3011576152
6219,19,Jits_Linear_5,2,5,63,98,3011616300
6219,19,Jits_Linear_5,3,5,80,127,3011619588
6219,19,Jits_Linear_5,0,1,48,56,3012149752
6219,19,Jits_Linear_5,1,5,56,103,3012166116
6219,19,Jits_Linear_5,2,5,63,98,3012176460
6219,19,Jits_Linear_5,3,5,80,127,3012195652
6219,19,Jits_Linear_5,0,5,56,103,3012715856
6219,19,Jits_Linear_5,1,5,80,127,3012719000
6219,19,Jits_Linear_5,2,5,63,98,3012756096
6219,19,Jits_Linear_5,3,1,48,39,3012780416
6219,19,Jits_Linear_5,0,1,48,59,3013224512
6219,19,Jits_Linear_5,1,5,63,98,3013345696
6219,19,Jits_Linear_5,2,5,56,103,3013376344
6219,19,Jits_Linear_5,3,5,80,127,3013395760
6219,19,Jits_Linear_5,0,1,48,61,3013875640
6219,19,Jits_Linear_5,1,5,80,127,3013915976
6219,19,Jits_Linear_5,2,5,56,103,3013926172
6219,19,Jits_Linear_5,3,5,63,98,3013935396
6219,19,Jits_Linear_5,0,1,48,67,3014447768
6219,19,Jits_Linear_5,1,5,56,103,3014516056
6219,19,Jits_Linear_5,2,5,80,127,3014556352
6219,19,Jits_Linear_5,3,5,63,98,3014585660
6219,19,Jits_Linear_5,0,1,48,71,3015063496
6219,19,Jits_Linear_5,1,5,63,98,3015126424
6219,19,Jits_Linear_5,2,5,80,127,3015135648
6219,19,Jits_Linear_5,3,5,56,103,3015145920
6219,19,Jits_Linear_5,0,1,48,71,3015696660
6219,19,Jits_Linear_5,1,5,56,103,3015706124
6219,19,Jits_Linear_5,2,5,63,98,3015775660
6219,19,Jits_Linear_5,3,5,80,127,3015785856
6219,19,Jits_Linear_5,0,1,48,64,3016286480
6219,19,Jits_Linear_5,1,5,80,127,3016316248
6219,19,Jits_Linear_5,2,5,56,103,3016325472
6219,19,Jits_Linear_5,3,5,63,98,3016375600
6219,19,Jits_Linear_5,0,1,48,64,3016898168
6219,19,Jits_Linear_5,1,5,80,127,3016936204
6219,19,Jits_Linear_5,2,5,56,103,3016996284
6219,19,Jits_Linear_5,3,5,63,98,3017025960
6219,19,Jits_Linear_5,0,1,48,61,3017482232
6219,19,Jits_Linear_5,1,5,56,103,3017546104
6219,19,Jits_Linear_5,2,5,80,127,3017549096
6219,19,Jits_Linear_5,3,5,63,98,3017586100
6219,19,Jits_Linear_5,0,1,48,64,3018097596
6219,19,Jits_Linear_5,1,5,56,103,3018186212
6219,19,Jits_Linear_5,2,5,63,98,3018215652
6219,19,Jits_Linear_5,3,5,80,127,3018225920
6219,19,Jits_Linear_5,0,1,48,50,3018771424
6219,19,Jits_Linear_5,1,5,63,98,3018805556
6219,19,Jits_Linear_5,2,5,80,127,3018816196
6219,19,Jits_Linear_5,3,5,56,103,3018826244
6219,19,Jits_Linear_5,0,5,80,127,3019365636
6219,19,Jits_Linear_5,1,5,56,103,3019415988
6219,19,Jits_Linear_5,2,5,63,98,3019419128
6219,19,Jits_Linear_5,0,5,56,103,3020016200
6219,19,Jits_Linear_5,1,5,80,127,3020035316
6219,19,Jits_Linear_5,2,1,48,48,3020040972
6219,19,Jits_Linear_5,3,5,63,98,3020045876
6219,19,Jits_Linear_5,0,5,63,98,3020616000
6219,19,Jits_Linear_5,1,1,48,67,3020632376
6219,19,Jits_Linear_5,2,5,56,103,3020646044
6219,19,Jits_Linear_5,3,5,80,127,3020666132
6219,19,Jits_Linear_5,0,1,48,66,3021195820
6219,19,Jits_Linear_5,1,5,56,103,3021245968
6219,19,Jits_Linear_5,2,5,80,127,3021256240
6219,19,Jits_Linear_5,3,5,63,98,3021325532
6219,19,Jits_Linear_5,0,1,48,66,3021807436
6219,19,Jits_Linear_5,1,5,63,98,3021856164
6219,19,Jits_Linear_5,2,5,80,127,3021896180
6219,19,Jits_Linear_5,3,5,56,103,3021936104
6219,19,Jits_Linear_5,0,1,48,60,3022439880
6219,19,Jits_Linear_5,1,5,56,103,3022496256
6219,19,Jits_Linear_5,2,5,63,98,3022506304
6219,19,Jits_Linear_5,3,5,80,127,3022526164
6219,19,Jits_Linear_5,0,1,48,57,3023025880
6219,19,Jits_Linear_5,1,5,63,98,3023165876
6219,19,Jits_Linear_5,2,5,80,127,3023186188
6219,19,Jits_Linear_5,3,5,56,103,3023206196
6219,19,Jits_Linear_5,0,1,48,47,3023677312
6219,19,Jits_Linear_5,1,5,56,103,3023736232
6219,19,Jits_Linear_5,2,5,80,127,3023816164
6219,19,Jits_Linear_5,3,5,63,98,3023826436
6219,19,Jits_Linear_5,0,1,48,57,3024286440
6219,19,Jits_Linear_5,1,5,80,127,3024405980
6219,19,Jits_Linear_5,2,5,63,98,3024416028
6219,19,Jits_Linear_5,3,5,56,103,3024446076
6219,19,Jits_Linear_5,0,1,48,44,3024961692
6219,19,Jits_Linear_5,1,5,63,98,3024995812
6219,19,Jits_Linear_5,2,5,80,127,3025035604
6219,19,Jits_Linear_5,3,5,56,103,3025095980
6219,19,Jits_Linear_5,0,5,63,98,3025635984
6219,19,Jits_Linear_5,1,1,48,61,3025666380
6219,19,Jits_Linear_5,2,5,56,103,3025685808
6219,19,Jits_Linear_5,3,5,80,127,3025715632
6219,19,Jits_Linear_5,0,5,80,127,3026285964
6219,19,Jits_Linear_5,1,5,63,98,3026296308
6219,19,Jits_Linear_5,2,1,48,33,3026335692
6219,19,Jits_Linear_5,3,5,56,103,3026365760
6219,19,Jits_Linear_5,0,1,48,40,3026920432
6219,19,Jits_Linear_5,1,5,80,127,3026995468
6219,19,Jits_Linear_5,2,5,56,103,3027005888
6219,19,Jits_Linear_5,3,5,63,98,3027008880
6219,19,Jits_Linear_5,0,5,56,103,3027576144
6219,19,Jits_Linear_5,1,5,80,127,3027595856
6219,19,Jits_Linear_5,2,5,63,98,3027605832
6219,19,Jits_Linear_5,3,1,38,18,3027614276
6219,19,Jits_Linear_5,0,1,48,54,3028161892
6219,19,Jits_Linear_5,1,5,63,98,3028226608
6219,19,Jits_Linear_5,2,5,56,103,3028266312
6219,19,Jits_Linear_5,3,5,80,127,3028285800
6219,19,Jits_Linear_5,0,5,63,98,3028875700
6219,19,Jits_Linear_5,1,1,48,56,3028891324
6219,19,Jits_Linear_5,2,5,56,103,3028936332
6219,19,Jits_Linear_5,3,5,80,127,3028939096
6219,19,Jits_Linear_5,0,1,48,66,3029477032
6219,19,Jits_Linear_5,1,5,56,103,3029485828
6219,19,Jits_Linear_5,2,5,80,127,3029506436
6219,19,Jits_Linear_5,3,5,63,98,3029546300
6219,19,Jits_Linear_5,0,1,48,72,3030077488
6219,19,Jits_Linear_5,1,5,56,103,3030165852
6219,19,Jits_Linear_5,2,5,63,98,3030186224
6219,19,Jits_Linear_5,3,5,80,127,3030195744
6219,19,Jits_Linear_5,0,5,80,127,3030786344
6219,19,Jits_Linear_5,1,1,48,66,3030787904
6219,19,Jits_Linear_5,2,5,56,103,3030816088
6219,19,Jits_Linear_5,3,5,63,98,3030855952
6219,19,Jits_Linear_5,0,1,48,69,3031401004
6219,19,Jits_Linear_5,1,5,80,127,3031445844
6219,19,Jits_Linear_5,2,5,56,103,3031466304
6219,19,Jits_Linear_5,3,5,63,98,3031525956
6219,19,Jits_Linear_5,0,1,48,68,3032063368
6219,19,Jits_Linear_5,1,5,56,103,3032106412
6219,19,Jits_Linear_5,2,5,80,127,3032125752
6219,19,Jits_Linear_5,3,5,63,98,3032186204
6219,19,Jits_Linear_5,0,1,48,70,3032726848
6219,19,Jits_Linear_5,1,5,80,127,3032746352
6219,19,Jits_Linear_5,2,5,56,103,3032755728
6219,19,Jits_Linear_5,3,5,63,98,3032795616
6219,19,Jits_Linear_5,0,5,63,98,3033405948
6219,19,Jits_Linear_5,1,1,48,73,3033416264
6219,19,Jits_Linear_5,2,5,56,103,3033445732
6219,19,Jits_Linear_5,3,5,80,127,3033448800
6219,19,Jits_Linear_5,0,1,48,69,3034013460
6219,19,Jits_Linear_5,1,5,63,98,3034085980
6219,19,Jits_Linear_5,2,5,80,127,3034125756
6219,19,Jits_Linear_5,3,5,56,103,3034156480
6219,19,Jits_Linear_5,0,1,48,62,3034699964
6219,19,Jits_Linear_5,1,5,56,103,3034736108
6219,19,Jits_Linear_5,2,5,63,98,3034746156
6219,19,Jits_Linear_5,3,5,80,127,3034776056
6219,19,Jits_Linear_5,0,1,48,64,3035290296
6219,19,Jits_Linear_5,1,5,80,127,3035395388
6219,19,Jits_Linear_5,2,5,63,98,3035466120
6219,19,Jits_Linear_5,3,5,56,103,3035476316
6219,19,Jits_Linear_5,0,1,48,72,3036010656
6219,19,Jits_Linear_5,1,5,63,98,3036066280
6219,19,Jits_Linear_5,2,5,56,103,3036135832
6219,19,Jits_Linear_5,3,5,80,127,3036146176
6219,19,Jits_Linear_5,0,1,48,61,3036682684
6219,19,Jits_Linear_5,1,5,63,98,3036735992
6219,19,Jits_Linear_5,2,5,56,103,3036756452
6219,19,Jits_Linear_5,3,5,80,127,3036796376
6219,19,Jits_Linear_5,0,1,48,68,3037375828
6219,19,Jits_Linear_5,1,5,56,103,3037415884
6219,19,Jits_Linear_5,2,5,63,98,3037426008
6219,19,Jits_Linear_5,3,5,80,127,3037506012
6219,19,Jits_Linear_5,0,1,48,22,3038072720
6219,19,Jits_Linear_5,1,5,63,98,3038076204
6219,19,Jits_Linear_5,2,5,56,103,3038105956
6219,19,Jits_Linear_5,3,5,80,127,3038145824
6219,19,Jits_Linear_5,0,1,48,59,3038717120
6219,19,Jits_Linear_5,1,5,56,103,3038745916
6219,19,Jits_Linear_5,2,5,63,98,3038785784
6219,19,Jits_Linear_5,3,5,80,127,3038825708
6219,19,Jits_Linear_5,0,1,48,63,3039361916
6219,19,Jits_Linear_5,1,5,80,127,3039425864
6219,19,Jits_Linear_5,2,5,56,103,3039505748
6219,19,Jits_Linear_5,3,5,63,98,3039516020
6219,19,Jits_Linear_5,0,1,48,27,3040038672
6219,19,Jits_Linear_5,1,5,56,103,3040145676
6219,19,Jits_Linear_5,2,5,63,98,3040148748
6219,19,Jits_Linear_5,3,5,80,127,3040155952
6219,19,Jits_Linear_5,0,1,48,61,3040768836
6219,19,Jits_Linear_5,1,5,56,103,3040846188
6219,19,Jits_Linear_5,2,5,63,98,3040866036
6219,19,Jits_Linear_5,3,5,80,127,3040875784
6219,19,Jits_Linear_5,0,1,48,47,3041472608
6219,19,Jits_Linear_5,1,5,63,98,3041486304
6219,19,Jits_Linear_5,2,5,80,127,3041496648
6219,19,Jits_Linear_5,3,5,56,103,3041515764
6219,19,Jits_Linear_5,0,1,48,73,3042091664
6219,19,Jits_Linear_5,1,5,63,98,3042176364
6219,19,Jits_Linear_5,2,5,56,103,3042256244
6219,19,Jits_Linear_5,3,5,80,127,3042259608
6219,19,Jits_Linear_5,0,1,48,64,3042783412
6219,19,Jits_Linear_5,1,5,63,98,3042865768
6219,19,Jits_Linear_5,2,5,56,103,3042886064
6219,19,Jits_Linear_5,3,5,80,127,3042915668
6219,19,Jits_Linear_5,0,1,48,54,3043501400
6219,19,Jits_Linear_5,1,5,56,103,3043555780
6219,19,Jits_Linear_5,2,5,63,98,3043576612
6219,19,Jits_Linear_5,3,5,80,127,3043586512
6219,19,Jits_Linear_5,0,1,48,56,3044191412
6219,19,Jits_Linear_5,1,5,56,103,3044275588
6219,19,Jits_Linear_5,2,5,63,98,3044306392
6219,19,Jits_Linear_5,3,5,80,127,3044309680
6219,19,Jits_Linear_5,0,5,56,103,3044915700
6219,19,Jits_Linear_5,1,1,48,48,3044946912
6219,19,Jits_Linear_5,2,5,63,98,3044955632
6219,19,Jits_Linear_5,3,5,80,127,3045015948
6219,19,Jits_Linear_5,0,5,56,103,3045626180
6219,19,Jits_Linear_5,1,1,48,41,3045630716
6219,19,Jits_Linear_5,2,5,63,98,3045635544
6219,19,Jits_Linear_5,3,5,80,127,3045695712
6219,19,Jits_Linear_5,0,1,48,66,3046278828
6219,19,Jits_Linear_5,1,5,56,103,3046325612
6219,19,Jits_Linear_5,2,5,80,127,3046345948
6219,19,Jits_Linear_5,3,5,63,98,3046375700
6219,19,Jits_Linear_5,0,1,48,61,3046977084
6219,19,Jits_Linear_5,1,5,80,127,3047025964
6219,19,Jits_Linear_5,2,5,56,103,3047036384
6219,19,Jits_Linear_5,3,5,63,98,3047055720
6219,19,Jits_Linear_5,0,1,48,72,3047619640
6219,19,Jits_Linear_5,1,5,63,98,3047716108
6219,19,Jits_Linear_5,2,5,80,127,3047796204
6219,19,Jits_Linear_5,3,5,56,103,3047806400
6219,19,Jits_Linear_5,0,1,48,61,3048314008
6219,19,Jits_Linear_5,1,5,80,127,3048476024
6219,19,Jits_Linear_5,2,5,56,103,3048495656
6219,19,Jits_Linear_5,3,5,63,98,3048498796
6219,19,Jits_Linear_5,0,5,63,98,3049155988
6219,19,Jits_Linear_5,1,5,80,127,3049159524
6219,19,Jits_Linear_5,2,1,48,62,3049185808
6219,19,Jits_Linear_5,3,5,56,103,3049216544
6219,19,Jits_Linear_5,0,1,48,60,3049816060
6219,19,Jits_Linear_5,1,5,56,103,3049846060
6219,19,Jits_Linear_5,2,5,80,127,3049856628
6219,19,Jits_Linear_5,3,5,63,98,3049896568
6219,19,Jits_Linear_5,0,1,48,61,3050503312
6219,19,Jits_Linear_5,1,5,56,103,3050536368
6219,19,Jits_Linear_5,2,5,63,98,3050595716
6219,19,Jits_Linear_5,3,5,80,127,3050605972
6219,19,Jits_Linear_5,0,1,48,61,3051219752
6219,19,Jits_Linear_5,1,5,63,98,3051256272
6219,19,Jits_Linear_5,2,5,80,127,3051295992
6219,19,Jits_Linear_5,3,5,56,103,3051336064
6219,19,Jits_Linear_5,0,1,48,62,3051919856
6219,19,Jits_Linear_5,1,5,56,103,3051965668
6219,19,Jits_Linear_5,2,5,63,98,3052045624
6219,19,Jits_Linear_5,3,5,80,127,3052048764
6219,19,Jits_Linear_5,0,1,48,51,3052588736
6219,19,Jits_Linear_5,1,5,80,127,3052735828
6219,19,Jits_Linear_5,2,5,56,103,3052765676
6219,19,Jits_Linear_5,3,5,63,98,3052768744
6219,19,Jits_Linear_5,0,1,48,62,3053397948
6219,19,Jits_Linear_5,1,5,56,103,3053415808
6219,19,Jits_Linear_5,2,5,80,127,3053436344
6219,19,Jits_Linear_5,3,5,63,98,3053476356
6219,19,Jits_Linear_5,0,1,48,62,3054106540
6219,19,Jits_Linear_5,1,5,80,127,3054116384
6219,19,Jits_Linear_5,2,5,63,98,3054135648
6219,19,Jits_Linear_5,3,5,56,103,3054196112
6219,19,Jits_Linear_5,0,1,48,43,3054764908
6219,19,Jits_Linear_5,1,5,63,98,3054846548
6219,19,Jits_Linear_5,2,5,56,103,3054856728
6219,19,Jits_Linear_5,3,5,80,127,3054905660
6219,19,Jits_Linear_5,0,1,48,57,3055467424
6219,19,Jits_Linear_5,1,5,56,103,3055555940
6219,19,Jits_Linear_5,2,5,63,98,3055576484
6219,19,Jits_Linear_5,3,5,80,127,3055585708
6219,19,Jits_Linear_5,0,1,48,29,3056120784
6219,19,Jits_Linear_5,1,5,56,103,3056275752
6219,19,Jits_Linear_5,2,5,63,98,3056278968
6219,19,Jits_Linear_5,3,5,80,127,3056296436
6219,19,Jits_Linear_5,0,1,48,51,3056777272
6219,19,Jits_Linear_5,1,5,63,98,3057045840
6219,19,Jits_Linear_5,2,5,56,103,3057075520
6219,19,Jits_Linear_5,3,5,80,127,3057106344
6219,19,Jits_Linear_5,0,1,48,56,3057508644
6219,19,Jits_Linear_5,1,5,80,127,3057736228
6219,19,Jits_Linear_5,2,5,56,103,3057826292
6219,19,Jits_Linear_5,3,5,63,98,3057829356
6219,19,Jits_Linear_5,4,1,48,51,3058130020
6219,19,Jits_Linear_5,0,5,56,103,3058466384
6219,19,Jits_Linear_5,1,5,80,127,3058469376
6219,19,Jits_Linear_5,2,5,63,98,3058545960
6219,19,Jits_Linear_5,3,1,48,53,3058578292
6219,19,Jits_Linear_5,0,5,80,127,3059196260
6219,19,Jits_Linear_5,1,1,48,65,3059203660
6219,19,Jits_Linear_5,2,5,63,98,3059255676
6219,19,Jits_Linear_5,3,5,56,103,3059286472
6219,19,Jits_Linear_5,0,1,48,61,3059918696
6219,19,Jits_Linear_5,1,5,63,98,3059926368
6219,19,Jits_Linear_5,2,5,80,127,3059935592
6219,19,Jits_Linear_5,3,5,56,103,3060006248
6219,19,Jits_Linear_5,0,1,48,64,3060605316
6219,19,Jits_Linear_5,1,5,56,103,3060675916
6219,19,Jits_Linear_5,2,5,80,127,3060705604
6219,19,Jits_Linear_5,3,5,63,98,3060755732
6219,19,Jits_Linear_5,0,1,48,66,3061378264
6219,19,Jits_Linear_5,1,5,63,98,3061456384
6219,19,Jits_Linear_5,2,5,56,103,3061486120
6219,19,Jits_Linear_5,3,5,80,127,3061489036
6219,19,Jits_Linear_5,0,1,48,56,3062149332
6219,19,Jits_Linear_5,1,5,63,98,3062195444
6219,19,Jits_Linear_5,2,5,80,127,3062216228
6219,19,Jits_Linear_5,3,5,56,103,3062226420
6219,19,Jits_Linear_5,0,1,48,67,3062899060
6219,19,Jits_Linear_5,1,5,56,103,3062946364
6219,19,Jits_Linear_5,2,5,63,98,3062949280
6219,19,Jits_Linear_5,3,5,80,127,3062965552
6219,19,Jits_Linear_5,0,5,56,103,3063645520
6219,19,Jits_Linear_5,1,5,63,98,3063655940
6219,19,Jits_Linear_5,2,5,80,127,3063685392
6219,19,Jits_Linear_5,3,1,48,65,3063719896
6219,19,Jits_Linear_5,0,1,48,58,3064392588
6219,19,Jits_Linear_5,1,5,63,98,3064415484
6219,19,Jits_Linear_5,2,5,80,127,3064436240
6219,19,Jits_Linear_5,3,5,56,103,3064476328
6219,19,Jits_Linear_5,0,1,48,35,3065163000
6219,19,Jits_Linear_5,1,5,56,103,3065195852
6219,19,Jits_Linear_5,2,5,63,98,3065235712
6219,19,Jits_Linear_5,3,5,80,127,3065239376
6219,19,Jits_Linear_5,0,5,80,127,3065886160
6219,19,Jits_Linear_5,1,5,56,103,3065926252
6219,19,Jits_Linear_5,2,5,63,98,3065976380
6219,19,Jits_Linear_5,0,5,56,103,3066696240
6219,19,Jits_Linear_5,1,5,80,127,3066706140
6219,19,Jits_Linear_5,2,1,48,49,3066724024
6219,19,Jits_Linear_5,3,5,63,98,3066736256
6219,19,Jits_Linear_5,0,5,56,103,3067395412
6219,19,Jits_Linear_5,1,5,80,127,3067436328
6219,19,Jits_Linear_5,2,1,48,55,3067472552
6219,19,Jits_Linear_5,3,5,63,98,3067485548
6219,19,Jits_Linear_5,0,5,56,103,3068156240
6219,19,Jits_Linear_5,1,5,80,127,3068196180
6219,19,Jits_Linear_5,2,1,48,57,3068230688
6219,19,Jits_Linear_5,3,5,63,98,3068246376
6219,19,Jits_Linear_5,0,5,80,127,3068905976
6219,19,Jits_Linear_5,1,1,48,64,3068961608
6219,19,Jits_Linear_5,2,5,63,98,3068985844
6219,19,Jits_Linear_5,3,5,56,103,3068996112
6219,19,Jits_Linear_5,0,1,48,74,3069684680
6219,19,Jits_Linear_5,1,5,80,127,3069715728
6219,19,Jits_Linear_5,2,5,56,103,3069726368
6219,19,Jits_Linear_5,3,5,63,98,3069745484
6219,19,Jits_Linear_5,0,5,63,98,3070446052
6219,19,Jits_Linear_5,1,1,48,56,3070468204
6219,19,Jits_Linear_5,2,5,56,103,3070515656
6219,19,Jits_Linear_5,3,5,80,127,3070518496
6219,19,Jits_Linear_5,0,1,48,66,3071193648
6219,19,Jits_Linear_5,1,5,80,127,3071205952
6219,19,Jits_Linear_5,2,5,63,98,3071255936
6219,19,Jits_Linear_5,3,5,56,103,3071296156
6219,19,Jits_Linear_5,0,1,48,57,3071960072
6219,19,Jits_Linear_5,1,5,63,98,3072015772
6219,19,Jits_Linear_5,2,5,56,103,3072055624
6219,19,Jits_Linear_5,3,5,80,127,3072066116
6219,19,Jits_Linear_5,0,1,48,48,3072760152
6219,19,Jits_Linear_5,1,5,63,98,3072775468
6219,19,Jits_Linear_5,2,5,56,103,3072796300
6219,19,Jits_Linear_5,3,5,80,127,3072815416
6219,19,Jits_Linear_5,0,5,80,127,3073505716
6219,19,Jits_Linear_5,1,5,56,103,3073515988
6219,19,Jits_Linear_5,2,5,63,98,3073536296
6219,19,Jits_Linear_5,0,1,48,62,3074055072
6219,19,Jits_Linear_5,1,5,63,98,3074306332
6219,19,Jits_Linear_5,2,5,56,103,3074346276
6219,19,Jits_Linear_5,3,5,80,127,3074376248
6219,19,Jits_Linear_5,4,1,48,65,3074595156
6219,19,Jits_Linear_5,0,5,56,103,3075085648
6219,19,Jits_Linear_5,1,5,63,98,3075116524
6219,19,Jits_Linear_5,2,1,48,48,3075132748
6219,19,Jits_Linear_5,3,5,80,127,3075146044
6219,19,Jits_Linear_5,0,1,48,51,3075748188
6219,19,Jits_Linear_5,1,5,80,127,3075836204
6219,19,Jits_Linear_5,2,5,56,103,3075906020
6219,19,Jits_Linear_5,3,5,63,98,3075909012
6219,19,Jits_Linear_5,0,1,48,51,3076600788
6219,19,Jits_Linear_5,1,5,56,103,3076626148
6219,19,Jits_Linear_5,2,5,63,98,3076676132
6219,19,Jits_Linear_5,3,5,80,127,3076705792
6219,19,Jits_Linear_5,0,5,63,98,3077385696
6219,19,Jits_Linear_5,1,5,80,127,3077389056
6219,19,Jits_Linear_5,2,1,48,76,3077405672
6219,19,Jits_Linear_5,3,5,56,103,3077446080
6219,19,Jits_Linear_5,0,1,48,92,3078191996
6219,19,Jits_Linear_5,1,5,56,103,3078196076
6219,19,Jits_Linear_5,2,5,80,127,3078205904
6219,19,Jits_Linear_5,3,5,63,98,3078256104
6219,19,Jits_Linear_5,0,1,48,69,3078917232
6219,19,Jits_Linear_5,1,5,63,98,3078956292
6219,19,Jits_Linear_5,2,5,56,103,3078965516
6219,19,Jits_Linear_5,3,5,80,127,3078996316
6219,19,Jits_Linear_5,0,5,63,98,3079775548
6219,19,Jits_Linear_5,1,5,80,127,3079778984
6219,19,Jits_Linear_5,2,1,48,48,3079791624
6219,19,Jits_Linear_5,3,5,56,103,3079806336
6219,19,Jits_Linear_5,0,5,63,98,3080585500
6219,19,Jits_Linear_5,1,5,56,103,3080606184
6219,19,Jits_Linear_5,2,5,80,127,3080609172
6219,19,Jits_Linear_5,3,1,48,32,3080781104
6219,19,Jits_Linear_5,0,1,48,68,3081308952
6219,19,Jits_Linear_5,1,5,63,98,3081336032
6219,19,Jits_Linear_5,2,5,56,103,3081405848
6219,19,Jits_Linear_5,3,5,80,127,3081426260
6219,19,Jits_Linear_5,0,1,48,59,3081980820
6219,19,Jits_Linear_5,1,5,56,103,3082115556
6219,19,Jits_Linear_5,2,5,63,98,3082126200
6219,19,Jits_Linear_5,3,5,80,127,3082215988
6219,19,Jits_Linear_5,0,1,48,75,3082823988
6219,19,Jits_Linear_5,1,5,56,103,3082925368
6219,19,Jits_Linear_5,2,5,80,127,3082966380
6219,19,Jits_Linear_5,3,5,63,98,3082975532
6219,19,Jits_Linear_5,0,1,48,66,3083703556
6219,19,Jits_Linear_5,1,5,56,103,3083745780
6219,19,Jits_Linear_5,2,5,63,98,3083776284
6219,19,Jits_Linear_5,3,5,80,127,3083806164
6219,19,Jits_Linear_5,0,5,80,127,3084505400
6219,19,Jits_Linear_5,1,5,63,98,3084546464
6219,19,Jits_Linear_5,2,5,56,103,3084565952
6219,19,Jits_Linear_5,3,1,48,66,3084586380
6219,19,Jits_Linear_5,0,5,56,103,3085346020
6219,19,Jits_Linear_5,1,5,80,127,3085365580
6219,19,Jits_Linear_5,2,5,63,98,3085386188
6219,19,Jits_Linear_5,3,1,48,63,3085453052
6219,19,Jits_Linear_5,0,5,63,98,3086116280
6219,19,Jits_Linear_5,1,5,56,103,3086125804
6219,19,Jits_Linear_5,2,1,48,59,3086166164
6219,19,Jits_Linear_5,3,5,80,127,3086185816
6219,19,Jits_Linear_5,0,1,48,61,3086892556
6219,19,Jits_Linear_5,1,5,56,103,3086926308
6219,19,Jits_Linear_5,2,5,63,98,3086995756
6219,19,Jits_Linear_5,3,5,80,127,3087016292
6219,19,Jits_Linear_5,0,1,48,65,3087578076
6219,19,Jits_Linear_5,1,5,56,103,3087736112
6219,19,Jits_Linear_5,2,5,63,98,3087765936
6219,19,Jits_Linear_5,3,5,80,127,3087805800
6219,19,Jits_Linear_5,0,5,63,98,3088535900
6219,19,Jits_Linear_5,1,5,56,103,3088586056
6219,19,Jits_Linear_5,2,1,48,73,3088587692
6219,19,Jits_Linear_5,3,5,80,127,3088596472
6219,19,Jits_Linear_5,0,1,48,81,3089270224
6219,19,Jits_Linear_5,1,5,56,103,3089385948
6219,19,Jits_Linear_5,2,5,63,98,3089436156
6219,19,Jits_Linear_5,3,5,80,127,3089446348
6219,19,Jits_Linear_5,0,1,48,66,3090059660
6219,19,Jits_Linear_5,1,5,56,103,3090166168
6219,19,Jits_Linear_5,2,5,63,98,3090176516
6219,19,Jits_Linear_5,3,5,80,127,3090256236
6219,19,Jits_Linear_5,0,9999,9999,9999,2981413980
6219,19,Jits_Linear_5,1,9999,9999,9999,2981893244
6219,19,Jits_Linear_5,2,9999,9999,9999,2982373484
6219,19,Jits_Linear_5,3,9999,9999,9999,2982853736
6219,19,Jits_Linear_5,4,9999,9999,9999,2983333944
6219,19,Jits_Linear_5,5,9999,9999,9999,2983823424
6219,19,Jits_Linear_5,6,9999,9999,9999,2984313968
6219,19,Jits_Linear_5,7,9999,9999,9999,2984803408
6219,19,Jits_Linear_5,8,9999,9999,9999,2985293892
6219,19,Jits_Linear_5,9,9999,9999,9999,2985783408
6219,19,Jits_Linear_5,10,9999,9999,9999,2986283108
6219,19,Jits_Linear_5,11,9999,9999,9999,2986783860
6219,19,Jits_Linear_5,12,9999,9999,9999,2987283544
6219,19,Jits_Linear_5,13,9999,9999,9999,2987783228
6219,19,Jits_Linear_5,14,9999,9999,9999,2988284024
6219,19,Jits_Linear_5,15,9999,9999,9999,2988793976
6219,19,Jits_Linear_5,16,9999,9999,9999,2989303892
6219,19,Jits_Linear_5,17,9999,9999,9999,2989813852
6219,19,Jits_Linear_5,18,9999,9999,9999,2990323796
6219,19,Jits_Linear_5,19,9999,9999,9999,2990833768
6219,19,Jits_Linear_5,20,9999,9999,9999,2991353912
6219,19,Jits_Linear_5,21,9999,9999,9999,2991873096
6219,19,Jits_Linear_5,22,9999,9999,9999,2992393324
6219,19,Jits_Linear_5,23,9999,9999,9999,2992913480
6219,19,Jits_Linear_5,24,9999,9999,9999,2993433712
6219,19,Jits_Linear_5,25,9999,9999,9999,2993963076
6219,19,Jits_Linear_5,26,9999,9999,9999,2994493560
6219,19,Jits_Linear_5,27,9999,9999,9999,2995023956
6219,19,Jits_Linear_5,28,9999,9999,9999,2995553408
6219,19,Jits_Linear_5,29,9999,9999,9999,2996083808
6219,19,Jits_Linear_5,30,9999,9999,9999,2996623448
6219,19,Jits_Linear_5,31,9999,9999,9999,2997163136
6219,19,Jits_Linear_5,32,9999,9999,9999,2997703800
6219,19,Jits_Linear_5,33,9999,9999,9999,2998243440
6219,19,Jits_Linear_5,34,9999,9999,9999,2998784108
6219,19,Jits_Linear_5,35,9999,9999,9999,2999343212
6219,19,Jits_Linear_5,36,9999,9999,9999,2999894132
6219,19,Jits_Linear_5,37,9999,9999,9999,3000453236
6219,19,Jits_Linear_5,38,9999,9999,9999,3001003124
6219,19,Jits_Linear_5,39,9999,9999,9999,3001554008
6219,19,Jits_Linear_5,40,9999,9999,9999,3002113112
6219,19,Jits_Linear_5,41,9999,9999,9999,3002673256
6219,19,Jits_Linear_5,42,9999,9999,9999,3003233404
6219,19,Jits_Linear_5,43,9999,9999,9999,3003793476
6219,19,Jits_Linear_5,44,9999,9999,9999,3004353624
6219,19,Jits_Linear_5,45,9999,9999,9999,3004923984
6219,19,Jits_Linear_5,46,9999,9999,9999,3005493352
6219,19,Jits_Linear_5,47,9999,9999,9999,3006063724
6219,19,Jits_Linear_5,48,9999,9999,9999,3006634060
6219,19,Jits_Linear_5,49,9999,9999,9999,3007203448
6219,19,Jits_Linear_5,50,9999,9999,9999,3007784008
6219,19,Jits_Linear_5,51,9999,9999,9999,3008363640
6219,19,Jits_Linear_5,52,9999,9999,9999,3008943168
6219,19,Jits_Linear_5,53,9999,9999,9999,3009523820
6219,19,Jits_Linear_5,54,9999,9999,9999,3010103376
6219,19,Jits_Linear_5,55,9999,9999,9999,3010693212
6219,19,Jits_Linear_5,56,9999,9999,9999,3011284072
6219,19,Jits_Linear_5,57,9999,9999,9999,3011873852
6219,19,Jits_Linear_5,58,9999,9999,9999,3012463672
6219,19,Jits_Linear_5,59,9999,9999,9999,3013053556
6219,19,Jits_Linear_5,60,9999,9999,9999,3013653608
6219,19,Jits_Linear_5,61,9999,9999,9999,3014253684
6219,19,Jits_Linear_5,62,9999,9999,9999,3014853696
6219,19,Jits_Linear_5,63,9999,9999,9999,3015453796
6219,19,Jits_Linear_5,64,9999,9999,9999,3016053880
6219,19,Jits_Linear_5,65,9999,9999,9999,3016663124
6219,19,Jits_Linear_5,66,9999,9999,9999,3017273400
6219,19,Jits_Linear_5,67,9999,9999,9999,3017883732
6219,19,Jits_Linear_5,68,9999,9999,9999,3018494032
6219,19,Jits_Linear_5,69,9999,9999,9999,3019103336
6219,19,Jits_Linear_5,70,9999,9999,9999,3019723904
6219,19,Jits_Linear_5,71,9999,9999,9999,3020343420
6219,19,Jits_Linear_5,72,9999,9999,9999,3020963896
6219,19,Jits_Linear_5,73,9999,9999,9999,3021583456
6219,19,Jits_Linear_5,74,9999,9999,9999,3022203992
6219,19,Jits_Linear_5,75,9999,9999,9999,3022833768
6219,19,Jits_Linear_5,76,9999,9999,9999,3023463524
6219,19,Jits_Linear_5,77,9999,9999,9999,3024093280
6219,19,Jits_Linear_5,78,9999,9999,9999,3024724080
6219,19,Jits_Linear_5,79,9999,9999,9999,3025353832
6219,19,Jits_Linear_5,80,9999,9999,9999,3025993844
6219,19,Jits_Linear_5,81,9999,9999,9999,3026633808
6219,19,Jits_Linear_5,82,9999,9999,9999,3027273836
6219,19,Jits_Linear_5,83,9999,9999,9999,3027913800
6219,19,Jits_Linear_5,84,9999,9999,9999,3028553836
6219,19,Jits_Linear_5,85,9999,9999,9999,3029204052
6219,19,Jits_Linear_5,86,9999,9999,9999,3029853284
6219,19,Jits_Linear_5,87,9999,9999,9999,3030503512
6219,19,Jits_Linear_5,88,9999,9999,9999,3031153788
6219,19,Jits_Linear_5,89,9999,9999,9999,3031803960
6219,19,Jits_Linear_5,90,9999,9999,9999,3032463456
6219,19,Jits_Linear_5,91,9999,9999,9999,3033123948
6219,19,Jits_Linear_5,92,9999,9999,9999,3033783352
6219,19,Jits_Linear_5,93,9999,9999,9999,3034443844
6219,19,Jits_Linear_5,94,9999,9999,9999,3035103288
6219,19,Jits_Linear_5,95,9999,9999,9999,3035774020
6219,19,Jits_Linear_5,96,9999,9999,9999,3036443728
6219,19,Jits_Linear_5,97,9999,9999,9999,3037113412
6219,19,Jits_Linear_5,98,9999,9999,9999,3037783116
6219,19,Jits_Linear_5,99,9999,9999,9999,3038453872
6219,19,Jits_Linear_5,100,9999,9999,9999,3039133820
6219,19,Jits_Linear_5,101,9999,9999,9999,3039813724
6219,19,Jits_Linear_5,102,9999,9999,9999,3040493684
6219,19,Jits_Linear_5,103,9999,9999,9999,3041173564
6219,19,Jits_Linear_5,104,9999,9999,9999,3041853532
6219,19,Jits_Linear_5,105,9999,9999,9999,3042543688
6219,19,Jits_Linear_5,106,9999,9999,9999,3043233896
6219,19,Jits_Linear_5,107,9999,9999,9999,3043924056
6219,19,Jits_Linear_5,108,9999,9999,9999,3044613240
6219,19,Jits_Linear_5,109,9999,9999,9999,3045303376
6219,19,Jits_Linear_5,110,9999,9999,9999,3046003812
6219,19,Jits_Linear_5,111,9999,9999,9999,3046703208
6219,19,Jits_Linear_5,112,9999,9999,9999,3047403628
6219,19,Jits_Linear_5,113,9999,9999,9999,3048104032
6219,19,Jits_Linear_5,114,9999,9999,9999,3048803404
6219,19,Jits_Linear_5,115,9999,9999,9999,3049514084
6219,19,Jits_Linear_5,116,9999,9999,9999,3050223724
6219,19,Jits_Linear_5,117,9999,9999,9999,3050933340
6219,19,Jits_Linear_5,118,9999,9999,9999,3051644032
6219,19,Jits_Linear_5,119,9999,9999,9999,3052353592
6219,19,Jits_Linear_5,120,9999,9999,9999,3053073496
6219,19,Jits_Linear_5,121,9999,9999,9999,3053793400
6219,19,Jits_Linear_5,122,9999,9999,9999,3054513280
6219,19,Jits_Linear_5,123,9999,9999,9999,3055233108
6219,19,Jits_Linear_5,124,9999,9999,9999,3055953980
6219,19,Jits_Linear_5,125,9999,9999,9999,3056683088
6219,19,Jits_Linear_5,126,9999,9999,9999,3057413188
6219,19,Jits_Linear_5,127,9999,9999,9999,3058143344
6219,19,Jits_Linear_5,128,9999,9999,9999,3058873456
6219,19,Jits_Linear_5,129,9999,9999,9999,3059603568
6219,19,Jits_Linear_5,130,9999,9999,9999,3060343868
6219,19,Jits_Linear_5,131,9999,9999,9999,3061083252
6219,19,Jits_Linear_5,132,9999,9999,9999,3061823604
6219,19,Jits_Linear_5,133,9999,9999,9999,3062563968
6219,19,Jits_Linear_5,134,9999,9999,9999,3063303272
6219,19,Jits_Linear_5,135,9999,9999,9999,3064053820
6219,19,Jits_Linear_5,136,9999,9999,9999,3064803412
6219,19,Jits_Linear_5,137,9999,9999,9999,3065554028
6219,19,Jits_Linear_5,138,9999,9999,9999,3066303600
6219,19,Jits_Linear_5,139,9999,9999,9999,3067053124
6219,19,Jits_Linear_5,140,9999,9999,9999,3067813952
6219,19,Jits_Linear_5,141,9999,9999,9999,3068573804
6219,19,Jits_Linear_5,142,9999,9999,9999,3069333584
6219,19,Jits_Linear_5,143,9999,9999,9999,3070093368
6219,19,Jits_Linear_5,144,9999,9999,9999,3070853200
6219,19,Jits_Linear_5,145,9999,9999,9999,3071623232
6219,19,Jits_Linear_5,146,9999,9999,9999,3072393340
6219,19,Jits_Linear_5,147,9999,9999,9999,3073163372
6219,19,Jits_Linear_5,148,9999,9999,9999,3073933416
6219,19,Jits_Linear_5,149,9999,9999,9999,3074703452
6219,19,Jits_Linear_5,150,9999,9999,9999,3075483736
6219,19,Jits_Linear_5,151,9999,9999,9999,3076264032
6219,19,Jits_Linear_5,152,9999,9999,9999,3077043276
6219,19,Jits_Linear_5,153,9999,9999,9999,3077823556
6219,19,Jits_Linear_5,154,9999,9999,9999,3078603864
6219,19,Jits_Linear_5,155,9999,9999,9999,3079393368
6219,19,Jits_Linear_5,156,9999,9999,9999,3080183912
6219,19,Jits_Linear_5,157,9999,9999,9999,3080973412
6219,19,Jits_Linear_5,158,9999,9999,9999,3081763968
6219,19,Jits_Linear_5,159,9999,9999,9999,3082553472
6219,19,Jits_Linear_5,160,9999,9999,9999,3083353172
6219,19,Jits_Linear_5,161,9999,9999,9999,3084153916
6219,19,Jits_Linear_5,162,9999,9999,9999,3084953684
6219,19,Jits_Linear_5,163,9999,9999,9999,3085753468
6219,19,Jits_Linear_5,164,9999,9999,9999,3086553200
6219,19,Jits_Linear_5,165,9999,9999,9999,3087363168
6219,19,Jits_Linear_5,166,9999,9999,9999,3088173128
6219,19,Jits_Linear_5,167,9999,9999,9999,3088983160
6219,19,Jits_Linear_5,168,9999,9999,9999,3089793128
6219,19,Jits_Linear_5,169,9999,9999,9999,3090603088
6220,18,Jits_Linear_8,0,5,56,103,3100025112
6220,18,Jits_Linear_8,1,5,63,98,3100028432
6220,18,Jits_Linear_8,2,5,80,127,3100031552
6220,18,Jits_Linear_8,0,1,48,43,3100605028
6220,18,Jits_Linear_8,1,5,56,103,3100845700
6220,18,Jits_Linear_8,2,5,63,98,3100848872
6220,18,Jits_Linear_8,3,5,80,127,3100851916
6220,18,Jits_Linear_8,4,1,48,64,3101209584
6220,18,Jits_Linear_8,0,5,80,127,3101605288
6220,18,Jits_Linear_8,1,5,63,98,3101695376
6220,18,Jits_Linear_8,2,5,56,103,3101704676
6220,18,Jits_Linear_8,3,1,48,62,3101865640
6220,18,Jits_Linear_8,0,1,48,29,3102427820
6220,18,Jits_Linear_8,1,5,56,103,3102444932
6220,18,Jits_Linear_8,2,5,63,98,3102455280
6220,18,Jits_Linear_8,3,5,80,127,3102545472
6220,18,Jits_Linear_8,0,1,48,70,3103228920
6220,18,Jits_Linear_8,1,5,63,98,3103234348
6220,18,Jits_Linear_8,2,5,80,127,3103265000
6220,18,Jits_Linear_8,3,5,56,103,3103294824
6220,18,Jits_Linear_8,0,1,48,64,3103999596
6220,18,Jits_Linear_8,1,5,56,103,3104054552
6220,18,Jits_Linear_8,2,5,80,127,3104154940
6220,18,Jits_Linear_8,3,5,63,98,3104205164
6220,18,Jits_Linear_8,0,1,48,54,3104861916
6220,18,Jits_Linear_8,1,5,56,103,3104864500
6220,18,Jits_Linear_8,2,5,80,127,3104914780
6220,18,Jits_Linear_8,3,1,48,29,3104941328
6220,18,Jits_Linear_8,4,5,63,98,3104954696
6220,18,Jits_Linear_8,0,1,48,61,3105648760
6220,18,Jits_Linear_8,1,1,48,35,3105698040
6220,18,Jits_Linear_8,2,5,80,127,3105705484
6220,18,Jits_Linear_8,3,5,63,98,3105734964
6220,18,Jits_Linear_8,4,5,56,103,3105804628
6220,18,Jits_Linear_8,0,1,48,65,3106445720
6220,18,Jits_Linear_8,1,5,63,98,3106544956
6220,18,Jits_Linear_8,2,1,48,22,3106567028
6220,18,Jits_Linear_8,3,5,56,103,3106574700
6220,18,Jits_Linear_8,4,5,80,127,3106635240
6220,18,Jits_Linear_8,0,5,56,103,3107294656
6220,18,Jits_Linear_8,1,5,80,127,3107297576
6220,18,Jits_Linear_8,2,1,48,68,3107374868
6220,18,Jits_Linear_8,3,5,63,98,3107415644
6220,18,Jits_Linear_8,0,1,48,73,3108048152
6220,18,Jits_Linear_8,1,5,56,103,3108175460
6220,18,Jits_Linear_8,2,5,80,127,3108215176
6220,18,Jits_Linear_8,3,5,63,98,3108225596
6220,18,Jits_Linear_8,0,1,48,52,3108835252
6220,18,Jits_Linear_8,1,5,56,103,3108936256
6220,18,Jits_Linear_8,2,5,80,127,3108954700
6220,18,Jits_Linear_8,3,5,63,98,3109035688
6220,18,Jits_Linear_8,0,1,48,27,3109467304
6220,18,Jits_Linear_8,1,5,80,127,3109724484
6220,18,Jits_Linear_8,2,5,56,103,3109824884
6220,18,Jits_Linear_8,3,5,63,98,3109835324
6220,18,Jits_Linear_8,0,1,48,46,3110190852
6220,18,Jits_Linear_8,1,5,63,98,3110494496
6220,18,Jits_Linear_8,2,5,80,127,3110554964
6220,18,Jits_Linear_8,3,5,56,103,3110565384
6220,18,Jits_Linear_8,4,1,48,74,3110792904
6220,18,Jits_Linear_8,0,5,56,103,3111295588
6220,18,Jits_Linear_8,1,5,63,98,3111364844
6220,18,Jits_Linear_8,2,5,80,127,3111368512
6220,18,Jits_Linear_8,3,1,48,52,3111371036
6220,18,Jits_Linear_8,0,1,48,34,3112060396
6220,18,Jits_Linear_8,1,1,38,16,3112068396
6220,18,Jits_Linear_8,2,5,63,98,3112124848
6220,18,Jits_Linear_8,3,5,56,103,3112175408
6220,18,Jits_Linear_8,4,5,80,127,3112178320
6220,18,Jits_Linear_8,0,5,56,103,3112875488
6220,18,Jits_Linear_8,1,5,80,127,3112878556
6220,18,Jits_Linear_8,2,1,48,55,3112891184
6220,18,Jits_Linear_8,3,5,63,98,3112964520
6220,18,Jits_Linear_8,0,1,48,56,3113676292
6220,18,Jits_Linear_8,1,5,63,98,3113704940
6220,18,Jits_Linear_8,2,5,56,103,3113794912
6220,18,Jits_Linear_8,3,5,80,127,3113824588
6220,18,Jits_Linear_8,0,5,56,103,3114485296
6220,18,Jits_Linear_8,1,5,63,98,3114584428
6220,18,Jits_Linear_8,2,1,48,65,3114596240
6220,18,Jits_Linear_8,3,5,80,127,3114615444
6220,18,Jits_Linear_8,0,5,63,98,3115295336
6220,18,Jits_Linear_8,1,5,56,103,3115305460
6220,18,Jits_Linear_8,2,1,48,52,3115313236
6220,18,Jits_Linear_8,3,5,80,127,3115394392
6220,18,Jits_Linear_8,0,1,48,63,3116069132
6220,18,Jits_Linear_8,1,5,63,98,3116105204
6220,18,Jits_Linear_8,2,5,56,103,3116184832
6220,18,Jits_Linear_8,3,5,80,127,3116187828
6220,18,Jits_Linear_8,0,5,80,127,3116845324
6220,18,Jits_Linear_8,1,5,63,98,3116864812
6220,18,Jits_Linear_8,2,5,56,103,3116925424
6220,18,Jits_Linear_8,3,1,48,67,3116948244
6220,18,Jits_Linear_8,0,5,56,103,3117664724
6220,18,Jits_Linear_8,1,5,63,98,3117685256
6220,18,Jits_Linear_8,2,5,80,127,3117688468
6220,18,Jits_Linear_8,3,1,48,47,3117720356
6220,18,Jits_Linear_8,0,5,63,98,3118384468
6220,18,Jits_Linear_8,1,5,80,127,3118465384
6220,18,Jits_Linear_8,2,5,56,103,3118474536
6220,18,Jits_Linear_8,3,1,48,54,3118581352
6220,18,Jits_Linear_8,0,5,63,98,3119185416
6220,18,Jits_Linear_8,1,5,56,103,3119204832
6220,18,Jits_Linear_8,2,1,48,57,3119245936
6220,18,Jits_Linear_8,3,5,80,127,3119254876
6220,18,Jits_Linear_8,0,1,48,70,3119855076
6220,18,Jits_Linear_8,1,1,48,36,3119938960
6220,18,Jits_Linear_8,2,5,80,127,3119964468
6220,18,Jits_Linear_8,3,5,63,98,3120004484
6220,18,Jits_Linear_8,4,5,56,103,3120025016
6220,18,Jits_Linear_8,0,1,48,80,3120708144
6220,18,Jits_Linear_8,1,5,56,103,3120774632
6220,18,Jits_Linear_8,2,5,63,98,3120784756
6220,18,Jits_Linear_8,3,5,80,127,3120805348
6220,18,Jits_Linear_8,0,1,48,81,3121450728
6220,18,Jits_Linear_8,1,5,56,103,3121474816
6220,18,Jits_Linear_8,2,5,63,98,3121565312
6220,18,Jits_Linear_8,3,5,80,127,3121624308
6220,18,Jits_Linear_8,0,5,80,127,3122274732
6220,18,Jits_Linear_8,1,5,56,103,3122285000
6220,18,Jits_Linear_8,2,1,48,83,3122339584
6220,18,Jits_Linear_8,3,5,63,98,3122354528
6220,18,Jits_Linear_8,0,1,48,82,3123011148
6220,18,Jits_Linear_8,1,5,63,98,3123074348
6220,18,Jits_Linear_8,2,5,80,127,3123164644
6220,18,Jits_Linear_8,3,5,56,103,3123174764
6220,18,Jits_Linear_8,0,5,63,98,3123774772
6220,18,Jits_Linear_8,1,1,48,76,3123789572
6220,18,Jits_Linear_8,2,5,80,127,3123825192
6220,18,Jits_Linear_8,3,5,56,103,3123885508
6220,18,Jits_Linear_8,0,1,48,76,3124530124
6220,18,Jits_Linear_8,1,5,56,103,3124565448
6220,18,Jits_Linear_8,2,5,80,127,3124614608
6220,18,Jits_Linear_8,3,5,63,98,3124635276
6220,18,Jits_Linear_8,0,5,56,103,3125294416
6220,18,Jits_Linear_8,1,1,48,73,3125304804
6220,18,Jits_Linear_8,2,5,80,127,3125354948
6220,18,Jits_Linear_8,3,5,63,98,3125424468
6220,18,Jits_Linear_8,0,5,56,103,3126055220
6220,18,Jits_Linear_8,1,1,48,74,3126063144
6220,18,Jits_Linear_8,2,5,80,127,3126084964
6220,18,Jits_Linear_8,3,5,63,98,3126114640
6220,18,Jits_Linear_8,0,1,48,54,3126834508
6220,18,Jits_Linear_8,1,5,56,103,3126855056
6220,18,Jits_Linear_8,2,5,80,127,3126874396
6220,18,Jits_Linear_8,3,5,63,98,3126935068
6220,18,Jits_Linear_8,0,1,48,67,3127592664
6220,18,Jits_Linear_8,1,5,80,127,3127694736
6220,18,Jits_Linear_8,2,5,56,103,3127705228
6220,18,Jits_Linear_8,3,5,63,98,3127715276
6220,18,Jits_Linear_8,0,5,56,103,3128405288
6220,18,Jits_Linear_8,1,5,80,127,3128445152
6220,18,Jits_Linear_8,2,5,63,98,3128475052
6220,18,Jits_Linear_8,3,1,48,68,3128538944
6220,18,Jits_Linear_8,0,5,56,103,3129125272
6220,18,Jits_Linear_8,1,5,63,98,3129154948
6220,18,Jits_Linear_8,2,5,80,127,3129195112
6220,18,Jits_Linear_8,3,1,48,44,3129207444
6220,18,Jits_Linear_8,0,5,80,127,3129824724
6220,18,Jits_Linear_8,1,1,48,66,3129869868
6220,18,Jits_Linear_8,2,5,63,98,3129874924
6220,18,Jits_Linear_8,3,5,56,103,3129895232
6220,18,Jits_Linear_8,0,5,56,103,3130605012
6220,18,Jits_Linear_8,1,1,48,78,3130608808
6220,18,Jits_Linear_8,2,5,80,127,3130674468
6220,18,Jits_Linear_8,3,5,63,98,3130735068
6220,18,Jits_Linear_8,0,5,80,127,3131345376
6220,18,Jits_Linear_8,1,1,48,66,3131403796
6220,18,Jits_Linear_8,2,5,63,98,3131435356
6220,18,Jits_Linear_8,3,5,56,103,3131455144
6220,18,Jits_Linear_8,0,5,63,98,3132105072
6220,18,Jits_Linear_8,1,5,56,103,3132124484
6220,18,Jits_Linear_8,2,5,80,127,3132164348
6220,18,Jits_Linear_8,3,1,48,56,3132174440
6220,18,Jits_Linear_8,0,5,80,127,3132804408
6220,18,Jits_Linear_8,1,5,63,98,3132825168
6220,18,Jits_Linear_8,2,1,48,66,3132886376
6220,18,Jits_Linear_8,3,5,56,103,3132904980
6220,18,Jits_Linear_8,0,5,63,98,3133534500
6220,18,Jits_Linear_8,1,1,48,62,3133641100
6220,18,Jits_Linear_8,2,5,56,103,3133645252
6220,18,Jits_Linear_8,3,5,80,127,3133648320
6220,18,Jits_Linear_8,0,5,63,98,3134295360
6220,18,Jits_Linear_8,1,5,56,103,3134304656
6220,18,Jits_Linear_8,2,5,80,127,3134307724
6220,18,Jits_Linear_8,3,1,48,62,3134313028
6220,18,Jits_Linear_8,0,1,48,57,3134969192
6220,18,Jits_Linear_8,1,5,56,103,3135015376
6220,18,Jits_Linear_8,2,5,80,127,3135135020
6220,18,Jits_Linear_8,3,5,63,98,3135174984
6220,18,Jits_Linear_8,0,5,56,103,3135765028
6220,18,Jits_Linear_8,1,1,48,76,3135780280
6220,18,Jits_Linear_8,2,5,80,127,3135844968
6220,18,Jits_Linear_8,3,5,63,98,3135865128
6220,18,Jits_Linear_8,0,5,56,103,3136494976
6220,18,Jits_Linear_8,1,1,48,52,3136550532
6220,18,Jits_Linear_8,2,5,63,98,3136604660
6220,18,Jits_Linear_8,3,5,80,127,3136608096
6220,18,Jits_Linear_8,0,5,56,103,3137254884
6220,18,Jits_Linear_8,1,5,80,127,3137284488
6220,18,Jits_Linear_8,2,5,63,98,3137304800
6220,18,Jits_Linear_8,3,1,48,58,3137305764
6220,18,Jits_Linear_8,0,5,63,98,3137965400
6220,18,Jits_Linear_8,1,5,56,103,3137974700
6220,18,Jits_Linear_8,2,5,80,127,3137984896
6220,18,Jits_Linear_8,3,1,48,76,3138055616
6220,18,Jits_Linear_8,0,1,48,90,3138670188
6220,18,Jits_Linear_8,1,5,80,127,3138675016
6220,18,Jits_Linear_8,2,5,56,103,3138725296
6220,18,Jits_Linear_8,3,5,63,98,3138765172
6220,18,Jits_Linear_8,0,1,48,89,3139401768
6220,18,Jits_Linear_8,1,5,80,127,3139415512
6220,18,Jits_Linear_8,2,5,63,98,3139434776
6220,18,Jits_Linear_8,3,5,56,103,3139484980
6220,18,Jits_Linear_8,0,1,48,91,3140120688
6220,18,Jits_Linear_8,1,5,80,127,3140144548
6220,18,Jits_Linear_8,2,5,56,103,3140175344
6220,18,Jits_Linear_8,3,5,63,98,3140244860
6220,18,Jits_Linear_8,0,1,48,86,3140786244
6220,18,Jits_Linear_8,1,5,56,103,3140914848
6220,18,Jits_Linear_8,2,5,80,127,3140924896
6220,18,Jits_Linear_8,3,5,63,98,3140964980
6220,18,Jits_Linear_8,0,5,56,103,3141545356
6220,18,Jits_Linear_8,1,5,63,98,3141564768
6220,18,Jits_Linear_8,2,1,48,74,3141596832
6220,18,Jits_Linear_8,3,5,80,127,3141634544
6220,18,Jits_Linear_8,0,1,48,49,3142248964
6220,18,Jits_Linear_8,1,5,63,98,3142284812
6220,18,Jits_Linear_8,2,5,80,127,3142345152
6220,18,Jits_Linear_8,3,5,56,103,3142364700
6220,18,Jits_Linear_8,0,5,80,127,3142985008
6220,18,Jits_Linear_8,1,1,48,66,3142998092
6220,18,Jits_Linear_8,2,5,56,103,3143014752
6220,18,Jits_Linear_8,3,1,48,46,3143033668
6220,18,Jits_Linear_8,4,5,63,98,3143044556
6220,18,Jits_Linear_8,0,5,56,103,3143694696
6220,18,Jits_Linear_8,1,1,48,64,3143695660
6220,18,Jits_Linear_8,2,1,48,46,3143725816
6220,18,Jits_Linear_8,3,5,63,98,3143755136
6220,18,Jits_Linear_8,4,5,80,127,3143814628
6220,18,Jits_Linear_8,0,1,48,67,3144424012
6220,18,Jits_Linear_8,1,5,80,127,3144425432
6220,18,Jits_Linear_8,2,5,56,103,3144445220
6220,18,Jits_Linear_8,3,1,48,47,3144460832
6220,18,Jits_Linear_8,4,5,63,98,3144514956
6220,18,Jits_Linear_8,0,5,80,127,3145134568
6220,18,Jits_Linear_8,1,5,63,98,3145154832
6220,18,Jits_Linear_8,2,5,56,103,3145184580
6220,18,Jits_Linear_8,3,1,48,66,3145207696
6220,18,Jits_Linear_8,4,1,48,24,3145316004
6220,18,Jits_Linear_8,0,5,80,127,3145824704
6220,18,Jits_Linear_8,1,5,63,98,3145845016
6220,18,Jits_Linear_8,2,1,48,71,3145897056
6220,18,Jits_Linear_8,3,5,56,103,3145904352
6220,18,Jits_Linear_8,0,5,80,127,3146524976
6220,18,Jits_Linear_8,1,1,48,69,3146543388
6220,18,Jits_Linear_8,2,5,56,103,3146625296
6220,18,Jits_Linear_8,3,5,63,98,3146655032
6220,18,Jits_Linear_8,0,5,63,98,3147224656
6220,18,Jits_Linear_8,1,5,80,127,3147274636
6220,18,Jits_Linear_8,2,5,56,103,3147295020
6220,18,Jits_Linear_8,3,1,48,75,3147312308
6220,18,Jits_Linear_8,0,1,48,74,3147937968
6220,18,Jits_Linear_8,1,5,80,127,3147964744
6220,18,Jits_Linear_8,2,5,56,103,3147994664
6220,18,Jits_Linear_8,3,5,63,98,3147997732
6220,18,Jits_Linear_8,0,1,48,85,3148666020
6220,18,Jits_Linear_8,1,5,63,98,3148694892
6220,18,Jits_Linear_8,2,5,56,103,3148734832
6220,18,Jits_Linear_8,3,5,80,127,3148755240
6220,18,Jits_Linear_8,0,5,80,127,3149334856
6220,18,Jits_Linear_8,1,1,48,72,3149363828
6220,18,Jits_Linear_8,2,5,63,98,3149414872
6220,18,Jits_Linear_8,3,5,56,103,3149455768
6220,18,Jits_Linear_8,0,1,48,86,3150039664
6220,18,Jits_Linear_8,1,5,63,98,3150044868
6220,18,Jits_Linear_8,2,5,80,127,3150125416
6220,18,Jits_Linear_8,3,5,56,103,3150144816
6220,18,Jits_Linear_8,0,1,48,71,3150752344
6220,18,Jits_Linear_8,1,5,56,103,3150774636
6220,18,Jits_Linear_8,2,5,63,98,3150784756
6220,18,Jits_Linear_8,3,5,80,127,3150824720
6220,18,Jits_Linear_8,0,5,56,103,3151385068
6220,18,Jits_Linear_8,1,5,80,127,3151387988
6220,18,Jits_Linear_8,2,1,48,76,3151444460
6220,18,Jits_Linear_8,3,5,63,98,3151525240
6220,18,Jits_Linear_8,0,1,48,66,3152028184
6220,18,Jits_Linear_8,1,5,56,103,3152064852
6220,18,Jits_Linear_8,2,5,63,98,3152155052
6220,18,Jits_Linear_8,3,5,80,127,3152224732
6220,18,Jits_Linear_8,0,1,48,47,3152709240
6220,18,Jits_Linear_8,1,5,63,98,3152824716
6220,18,Jits_Linear_8,2,5,80,127,3152828004
6220,18,Jits_Linear_8,3,5,56,103,3152884984
6220,18,Jits_Linear_8,0,5,80,127,3153544776
6220,18,Jits_Linear_8,1,5,56,103,3153565088
6220,18,Jits_Linear_8,2,1,48,48,3153573160
6220,18,Jits_Linear_8,3,5,63,98,3153575276
6220,18,Jits_Linear_8,0,5,56,103,3154135672
6220,18,Jits_Linear_8,1,5,63,98,3154144676
6220,18,Jits_Linear_8,2,5,80,127,3154215328
6220,18,Jits_Linear_8,3,1,48,52,3154309612
6220,18,Jits_Linear_8,0,5,80,127,3154815468
6220,18,Jits_Linear_8,1,1,48,39,3154829072
6220,18,Jits_Linear_8,2,5,56,103,3154864692
6220,18,Jits_Linear_8,3,5,63,98,3154914772
6220,18,Jits_Linear_8,0,1,48,74,3155481464
6220,18,Jits_Linear_8,1,5,56,103,3155575160
6220,18,Jits_Linear_8,2,5,63,98,3155585636
6220,18,Jits_Linear_8,3,5,80,127,3155625352
6220,18,Jits_Linear_8,0,5,56,103,3156194748
6220,18,Jits_Linear_8,1,5,63,98,3156234760
6220,18,Jits_Linear_8,2,5,80,127,3156284740
6220,18,Jits_Linear_8,0,1,48,59,3156764260
6220,18,Jits_Linear_8,1,5,80,127,3156834788
6220,18,Jits_Linear_8,2,5,56,103,3156884828
6220,18,Jits_Linear_8,3,5,63,98,3156905512
6220,18,Jits_Linear_8,0,5,80,127,3157514528
6220,18,Jits_Linear_8,1,5,63,98,3157575068
6220,18,Jits_Linear_8,2,5,56,103,3157654792
6220,18,Jits_Linear_8,0,5,80,127,3158164992
6220,18,Jits_Linear_8,1,5,56,103,3158204780
6220,18,Jits_Linear_8,2,5,63,98,3158225116
6220,18,Jits_Linear_8,0,5,56,103,3158884628
6220,18,Jits_Linear_8,1,1,48,56,3158888268
6220,18,Jits_Linear_8,2,5,80,127,3158894820
6220,18,Jits_Linear_8,3,5,63,98,3158934832
6220,18,Jits_Linear_8,0,1,48,73,3159370036
6220,18,Jits_Linear_8,1,5,56,103,3159614784
6220,18,Jits_Linear_8,2,5,63,98,3159654640
6220,18,Jits_Linear_8,3,5,80,127,3159657936
6220,18,Jits_Linear_8,0,5,63,98,3160164672
6220,18,Jits_Linear_8,1,1,48,86,3160204232
6220,18,Jits_Linear_8,2,5,80,127,3160205948
6220,18,Jits_Linear_8,3,5,56,103,3160275504
6220,18,Jits_Linear_8,0,5,63,98,3160814956
6220,18,Jits_Linear_8,1,1,48,80,3160856360
6220,18,Jits_Linear_8,2,5,56,103,3160894972
6220,18,Jits_Linear_8,3,5,80,127,3160955424
6220,18,Jits_Linear_8,0,5,80,127,3161484704
6220,18,Jits_Linear_8,1,1,48,65,3161486264
6220,18,Jits_Linear_8,2,5,63,98,3161534900
6220,18,Jits_Linear_8,3,5,56,103,3161564648
6220,18,Jits_Linear_8,0,5,56,103,3162134980
6220,18,Jits_Linear_8,1,5,63,98,3162185184
6220,18,Jits_Linear_8,2,5,80,127,3162195456
6220,18,Jits_Linear_8,0,5,56,103,3162804548
6220,18,Jits_Linear_8,1,5,63,98,3162915308
6220,18,Jits_Linear_8,2,5,80,127,3162934572
6220,18,Jits_Linear_8,3,1,48,29,3162937616
6220,18,Jits_Linear_8,0,5,63,98,3163454780
6220,18,Jits_Linear_8,1,1,48,46,3163486448
6220,18,Jits_Linear_8,2,5,80,127,3163505124
6220,18,Jits_Linear_8,3,5,56,103,3163595048
6220,18,Jits_Linear_8,0,5,63,98,3164094856
6220,18,Jits_Linear_8,1,1,48,50,3164104368
6220,18,Jits_Linear_8,2,5,80,127,3164124620
6220,18,Jits_Linear_8,3,5,56,103,3164214664
6220,18,Jits_Linear_8,0,5,63,98,3164745212
6220,18,Jits_Linear_8,1,1,48,53,3164751472
6220,18,Jits_Linear_8,2,5,56,103,3164755328
6220,18,Jits_Linear_8,3,5,80,127,3164854516
6220,18,Jits_Linear_8,0,1,48,51,3165355584
6220,18,Jits_Linear_8,1,5,63,98,3165494532
6220,18,Jits_Linear_8,2,5,80,127,3165525552
6220,18,Jits_Linear_8,3,5,56,103,3165554928
6220,18,Jits_Linear_8,0,1,48,45,3166082168
6220,18,Jits_Linear_8,1,5,80,127,3166155408
6220,18,Jits_Linear_8,2,5,63,98,3166165532
6220,18,Jits_Linear_8,3,5,56,103,3166194968
6220,18,Jits_Linear_8,0,5,80,127,3166694732
6220,18,Jits_Linear_8,1,5,63,98,3166715564
6220,18,Jits_Linear_8,2,5,56,103,3166765396
6220,18,Jits_Linear_8,0,5,63,98,3167364376
6220,18,Jits_Linear_8,1,5,80,127,3167424944
6220,18,Jits_Linear_8,2,5,56,103,3167445476
6220,18,Jits_Linear_8,3,1,48,49,3167658800
6220,18,Jits_Linear_8,0,5,63,98,3167964396
6220,18,Jits_Linear_8,1,5,56,103,3168014672
6220,18,Jits_Linear_8,2,5,80,127,3168024868
6220,18,Jits_Linear_8,3,1,48,60,3168088368
6220,18,Jits_Linear_8,0,1,48,58,3168579780
6220,18,Jits_Linear_8,1,5,56,103,3168635256
6220,18,Jits_Linear_8,2,5,80,127,3168644552
6220,18,Jits_Linear_8,3,5,63,98,3168744736
6220,18,Jits_Linear_8,0,1,48,61,3169173720
6220,18,Jits_Linear_8,1,5,80,127,3169235500
6220,18,Jits_Linear_8,2,5,63,98,3169244500
6220,18,Jits_Linear_8,3,5,56,103,3169395152
6220,18,Jits_Linear_8,0,1,48,59,3169752240
6220,18,Jits_Linear_8,1,5,63,98,3169875268
6220,18,Jits_Linear_8,2,5,80,127,3169915652
6220,18,Jits_Linear_8,3,5,56,103,3169995248
6220,18,Jits_Linear_8,0,1,48,62,3170322388
6220,18,Jits_Linear_8,1,5,56,103,3170494888
6220,18,Jits_Linear_8,2,5,80,127,3170595464
6220,18,Jits_Linear_8,3,5,63,98,3170614728
6220,18,Jits_Linear_8,0,1,48,60,3171026412
6220,18,Jits_Linear_8,1,5,80,127,3171185040
6220,18,Jits_Linear_8,2,5,56,103,3171195384
6220,18,Jits_Linear_8,3,5,63,98,3171285392
6220,18,Jits_Linear_8,0,1,48,54,3171668508
6220,18,Jits_Linear_8,1,5,56,103,3171814728
6220,18,Jits_Linear_8,2,5,63,98,3171835336
6220,18,Jits_Linear_8,3,5,80,127,3171915356
6220,18,Jits_Linear_8,0,1,48,39,3172312228
6220,18,Jits_Linear_8,1,5,63,98,3172385296
6220,18,Jits_Linear_8,2,5,56,103,3172475568
6220,18,Jits_Linear_8,3,5,80,127,3172478480
6220,18,Jits_Linear_8,0,1,48,72,3172977460
6220,18,Jits_Linear_8,1,5,56,103,3173035480
6220,18,Jits_Linear_8,2,5,80,127,3173094760
6220,18,Jits_Linear_8,3,5,63,98,3173104960
6220,18,Jits_Linear_8,0,1,48,59,3173589540
6220,18,Jits_Linear_8,1,5,80,127,3173705016
6220,18,Jits_Linear_8,2,5,56,103,3173715508
6220,18,Jits_Linear_8,3,5,63,98,3173718424
6220,18,Jits_Linear_8,0,1,48,78,3174220100
6220,18,Jits_Linear_8,1,5,56,103,3174284644
6220,18,Jits_Linear_8,2,5,80,127,3174295432
6220,18,Jits_Linear_8,3,5,63,98,3174315444
6220,18,Jits_Linear_8,0,5,63,98,3174874552
6220,18,Jits_Linear_8,1,1,48,40,3174878192
6220,18,Jits_Linear_8,2,5,80,127,3174934792
6220,18,Jits_Linear_8,3,5,56,103,3174985348
6220,18,Jits_Linear_8,0,1,48,73,3175483664
6220,18,Jits_Linear_8,1,5,63,98,3175574940
6220,18,Jits_Linear_8,2,5,56,103,3175585268
6220,18,Jits_Linear_8,3,5,80,127,3175635200
6220,18,Jits_Linear_8,0,5,63,98,3176084816
6220,18,Jits_Linear_8,1,1,48,77,3176099692
6220,18,Jits_Linear_8,2,5,80,127,3176105492
6220,18,Jits_Linear_8,3,5,56,103,3176114572
6220,18,Jits_Linear_8,0,5,63,98,3176695240
6220,18,Jits_Linear_8,1,5,80,127,3176698528
6220,18,Jits_Linear_8,2,1,48,57,3176714548
6220,18,Jits_Linear_8,3,5,56,103,3176735468
6220,18,Jits_Linear_8,0,1,48,72,3177285444
6220,18,Jits_Linear_8,1,5,63,98,3177375156
6220,18,Jits_Linear_8,2,5,80,127,3177404744
6220,18,Jits_Linear_8,3,5,56,103,3177415336
6220,18,Jits_Linear_8,0,1,48,72,3177929292
6220,18,Jits_Linear_8,1,5,56,103,3177935392
6220,18,Jits_Linear_8,2,5,80,127,3177964772
6220,18,Jits_Linear_8,3,5,63,98,3177994596
6220,18,Jits_Linear_8,0,1,48,60,3178492564
6220,18,Jits_Linear_8,1,5,63,98,3178634576
6220,18,Jits_Linear_8,2,5,56,103,3178674512
6220,18,Jits_Linear_8,3,5,80,127,3178677432
6220,18,Jits_Linear_8,0,5,80,127,3179135392
6220,18,Jits_Linear_8,1,1,48,64,3179150720
6220,18,Jits_Linear_8,2,5,56,103,3179215208
6220,18,Jits_Linear_8,3,5,63,98,3179265324
6220,18,Jits_Linear_8,0,5,80,127,3179714980
6220,18,Jits_Linear_8,1,5,56,103,3179735364
6220,18,Jits_Linear_8,2,1,48,55,3179779164
6220,18,Jits_Linear_8,3,5,63,98,3179824444
6220,18,Jits_Linear_8,0,5,80,127,3180355140
6220,18,Jits_Linear_8,1,5,63,98,3180395008
6220,18,Jits_Linear_8,2,5,56,103,3180434724
6220,18,Jits_Linear_8,0,1,48,65,3180901196
6220,18,Jits_Linear_8,1,5,63,98,3180925360
6220,18,Jits_Linear_8,2,5,80,127,3180984556
6220,18,Jits_Linear_8,3,5,56,103,3181015288
6220,18,Jits_Linear_8,0,5,56,103,3181525460
6220,18,Jits_Linear_8,1,1,48,60,3181528052
6220,18,Jits_Linear_8,2,5,80,127,3181555204
6220,18,Jits_Linear_8,3,5,63,98,3181645100
6220,18,Jits_Linear_8,0,5,56,103,3182125400
6220,18,Jits_Linear_8,1,1,48,58,3182147248
6220,18,Jits_Linear_8,2,5,80,127,3182235156
6220,18,Jits_Linear_8,3,5,63,98,3182264592
6220,18,Jits_Linear_8,0,5,56,103,3182765500
6220,18,Jits_Linear_8,1,5,63,98,3182824944
6220,18,Jits_Linear_8,2,5,80,127,3182854472
6220,18,Jits_Linear_8,0,1,48,54,3183126736
6220,18,Jits_Linear_8,1,5,56,103,3183324496
6220,18,Jits_Linear_8,2,5,63,98,3183395080
6220,18,Jits_Linear_8,3,5,80,127,3183414640
6220,18,Jits_Linear_8,4,1,48,44,3183491764
6220,18,Jits_Linear_8,0,5,80,127,3183884780
6220,18,Jits_Linear_8,1,5,63,98,3183905168
6220,18,Jits_Linear_8,2,1,48,52,3183932176
6220,18,Jits_Linear_8,3,5,56,103,3183955436
6220,18,Jits_Linear_8,0,5,63,98,3184484716
6220,18,Jits_Linear_8,1,5,80,127,3184495136
6220,18,Jits_Linear_8,2,5,56,103,3184545112
6220,18,Jits_Linear_8,0,5,63,98,3185065264
6220,18,Jits_Linear_8,1,5,80,127,3185135196
6220,18,Jits_Linear_8,2,5,56,103,3185154312
6220,18,Jits_Linear_8,0,1,48,38,3185465364
6220,18,Jits_Linear_8,1,5,63,98,3185674584
6220,18,Jits_Linear_8,2,5,80,127,3185678024
6220,18,Jits_Linear_8,3,5,56,103,3185745240
6220,18,Jits_Linear_8,4,1,48,54,3185796080
6220,18,Jits_Linear_8,0,5,80,127,3186205040
6220,18,Jits_Linear_8,1,5,56,103,3186224456
6220,18,Jits_Linear_8,2,5,63,98,3186234948
6220,18,Jits_Linear_8,0,5,56,103,3186805228
6220,18,Jits_Linear_8,1,5,63,98,3186895236
6220,18,Jits_Linear_8,2,5,80,127,3186898676
6220,18,Jits_Linear_8,3,1,48,17,3186931912
6220,18,Jits_Linear_8,0,5,80,127,3187355108
6220,18,Jits_Linear_8,1,5,56,103,3187365380
6220,18,Jits_Linear_8,2,5,63,98,3187384640
6220,18,Jits_Linear_8,3,1,48,53,3187415060
6220,18,Jits_Linear_8,0,1,48,49,3187915172
6220,18,Jits_Linear_8,1,5,63,98,3187925236
6220,18,Jits_Linear_8,2,5,80,127,3187984952
6220,18,Jits_Linear_8,3,5,56,103,3187995372
6220,18,Jits_Linear_8,0,1,48,53,3188486840
6220,18,Jits_Linear_8,1,5,63,98,3188565388
6220,18,Jits_Linear_8,2,5,80,127,3188595052
6220,18,Jits_Linear_8,3,5,56,103,3188635140
6220,18,Jits_Linear_8,0,1,48,39,3189060536
6220,18,Jits_Linear_8,1,5,56,103,3189124412
6220,18,Jits_Linear_8,2,5,80,127,3189134680
6220,18,Jits_Linear_8,3,5,63,98,3189174756
6220,18,Jits_Linear_8,0,5,80,127,3189654884
6220,18,Jits_Linear_8,1,1,48,19,3189678752
6220,18,Jits_Linear_8,2,5,56,103,3189734704
6220,18,Jits_Linear_8,3,5,63,98,3189745120
6220,18,Jits_Linear_8,0,5,80,127,3190265188
6220,18,Jits_Linear_8,1,1,48,31,3190282156
6220,18,Jits_Linear_8,2,5,56,103,3190345056
6220,18,Jits_Linear_8,3,5,63,98,3190355252
6220,18,Jits_Linear_8,0,5,80,127,3190785340
6220,18,Jits_Linear_8,1,5,56,103,3190834424
6220,18,Jits_Linear_8,2,1,48,58,3190867656
6220,18,Jits_Linear_8,3,5,63,98,3190885140
6220,18,Jits_Linear_8,0,1,48,63,3191353328
6220,18,Jits_Linear_8,1,5,56,103,3191404900
6220,18,Jits_Linear_8,2,5,63,98,3191408188
6220,18,Jits_Linear_8,3,5,80,127,3191455012
6220,18,Jits_Linear_8,0,5,56,103,3191984452
6220,18,Jits_Linear_8,1,5,63,98,3192015200
6220,18,Jits_Linear_8,2,5,80,127,3192024352
6220,18,Jits_Linear_8,3,1,48,49,3192113332
6220,18,Jits_Linear_8,0,5,63,98,3192454484
6220,18,Jits_Linear_8,1,5,56,103,3192525092
6220,18,Jits_Linear_8,2,5,80,127,3192575216
6220,18,Jits_Linear_8,3,1,48,45,3192601028
6220,18,Jits_Linear_8,0,5,63,98,3193045216
6220,18,Jits_Linear_8,1,5,56,103,3193054588
6220,18,Jits_Linear_8,2,5,80,127,3193057580
6220,18,Jits_Linear_8,3,1,48,60,3193085352
6220,18,Jits_Linear_8,0,5,80,127,3193545104
6220,18,Jits_Linear_8,1,1,48,57,3193576548
6220,18,Jits_Linear_8,2,5,56,103,3193604444
6220,18,Jits_Linear_8,3,5,63,98,3193694860
6220,18,Jits_Linear_8,0,5,80,127,3194094996
6220,18,Jits_Linear_8,1,1,48,64,3194100884
6220,18,Jits_Linear_8,2,5,56,103,3194195300
6220,18,Jits_Linear_8,3,5,63,98,3194235240
6220,18,Jits_Linear_8,0,1,48,58,3194665760
6220,18,Jits_Linear_8,1,5,56,103,3194694936
6220,18,Jits_Linear_8,2,5,63,98,3194714720
6220,18,Jits_Linear_8,3,5,80,127,3194754360
6220,18,Jits_Linear_8,0,1,48,57,3195212776
6220,18,Jits_Linear_8,1,5,63,98,3195215288
6220,18,Jits_Linear_8,2,5,56,103,3195234776
6220,18,Jits_Linear_8,3,5,80,127,3195335180
6220,18,Jits_Linear_8,0,1,48,62,3195717784
6220,18,Jits_Linear_8,1,5,63,98,3195744560
6220,18,Jits_Linear_8,2,5,80,127,3195855160
6220,18,Jits_Linear_8,3,5,56,103,3195885132
6220,18,Jits_Linear_8,0,1,48,54,3196284824
6220,18,Jits_Linear_8,1,5,56,103,3196304852
6220,18,Jits_Linear_8,2,5,63,98,3196334308
6220,18,Jits_Linear_8,3,5,80,127,3196384816
6220,18,Jits_Linear_8,0,5,63,98,3196814872
6220,18,Jits_Linear_8,1,1,48,57,3196826908
6220,18,Jits_Linear_8,2,5,56,103,3196845364
6220,18,Jits_Linear_8,3,5,80,127,3196894468
6220,18,Jits_Linear_8,0,1,48,58,3197323360
6220,18,Jits_Linear_8,1,5,56,103,3197385140
6220,18,Jits_Linear_8,2,5,63,98,3197404480
6220,18,Jits_Linear_8,3,5,80,127,3197485824
6220,18,Jits_Linear_8,0,5,63,98,3197895016
6220,18,Jits_Linear_8,1,1,48,54,3197912972
6220,18,Jits_Linear_8,2,5,56,103,3197954356
6220,18,Jits_Linear_8,3,5,80,127,3197985076
6220,18,Jits_Linear_8,0,5,56,103,3198474780
6220,18,Jits_Linear_8,1,1,48,56,3198500596
6220,18,Jits_Linear_8,2,5,80,127,3198535020
6220,18,Jits_Linear_8,3,5,63,98,3198574960
6220,18,Jits_Linear_8,0,5,63,98,3198984744
6220,18,Jits_Linear_8,1,1,48,57,3199026896
6220,18,Jits_Linear_8,2,5,56,103,3199044832
6220,18,Jits_Linear_8,3,5,80,127,3199114812
6220,18,Jits_Linear_8,0,1,48,56,3199523652
6220,18,Jits_Linear_8,1,5,56,103,3199594928
6220,18,Jits_Linear_8,2,5,63,98,3199605124
6220,18,Jits_Linear_8,3,5,80,127,3199608636
6220,18,Jits_Linear_8,0,5,63,98,3200064940
6220,18,Jits_Linear_8,1,1,48,64,3200118480
6220,18,Jits_Linear_8,2,5,56,103,3200125252
6220,18,Jits_Linear_8,3,5,80,127,3200128392
6220,18,Jits_Linear_8,0,5,63,98,3200574944
6220,18,Jits_Linear_8,1,5,80,127,3200604696
6220,18,Jits_Linear_8,2,5,56,103,3200625156
6220,18,Jits_Linear_8,3,1,48,43,3200638988
6220,18,Jits_Linear_8,0,5,56,103,3201105260
6220,18,Jits_Linear_8,1,5,63,98,3201154492
6220,18,Jits_Linear_8,2,1,48,58,3201184512
6220,18,Jits_Linear_8,3,5,80,127,3201235276
6220,18,Jits_Linear_8,0,5,80,127,3201605028
6220,18,Jits_Linear_8,1,5,63,98,3201645044
6220,18,Jits_Linear_8,2,5,56,103,3201665504
6220,18,Jits_Linear_8,3,1,48,45,3201693424
6220,18,Jits_Linear_8,0,1,48,53,3202193716
6220,18,Jits_Linear_8,1,5,56,103,3202195212
6220,18,Jits_Linear_8,2,5,80,127,3202205112
6220,18,Jits_Linear_8,3,5,63,98,3202224376
6220,18,Jits_Linear_8,0,5,56,103,3202694600
6220,18,Jits_Linear_8,1,1,48,62,3202741620
6220,18,Jits_Linear_8,2,5,63,98,3202744728
6220,18,Jits_Linear_8,3,5,80,127,3202775548
6220,18,Jits_Linear_8,0,5,56,103,3203164704
6220,18,Jits_Linear_8,1,5,63,98,3203174676
6220,18,Jits_Linear_8,2,5,80,127,3203224876
6220,18,Jits_Linear_8,3,1,48,60,3203246800
6220,18,Jits_Linear_8,0,5,56,103,3203674576
6220,18,Jits_Linear_8,1,5,80,127,3203677568
6220,18,Jits_Linear_8,2,1,48,57,3203742264
6220,18,Jits_Linear_8,3,5,63,98,3203835876
6220,18,Jits_Linear_8,0,5,63,98,3204204904
6220,18,Jits_Linear_8,1,1,48,54,3204254180
6220,18,Jits_Linear_8,2,5,56,103,3204274728
6220,18,Jits_Linear_8,3,5,80,127,3204314468
6220,18,Jits_Linear_8,0,5,63,98,3204754704
6220,18,Jits_Linear_8,1,1,48,53,3204809840
6220,18,Jits_Linear_8,2,5,56,103,3204845004
6220,18,Jits_Linear_8,3,5,80,127,3204847920
6220,18,Jits_Linear_8,0,5,56,103,3205245608
6220,18,Jits_Linear_8,1,1,48,58,3205327496
6220,18,Jits_Linear_8,2,5,63,98,3205335392
6220,18,Jits_Linear_8,3,5,80,127,3205344836
6220,18,Jits_Linear_8,0,5,56,103,3205724700
6220,18,Jits_Linear_8,1,5,63,98,3205774832
6220,18,Jits_Linear_8,2,5,80,127,3205805700
6220,18,Jits_Linear_8,3,1,48,56,3205824064
6220,18,Jits_Linear_8,0,1,48,60,3206274784
6220,18,Jits_Linear_8,1,5,63,98,3206305080
6220,18,Jits_Linear_8,2,5,80,127,3206315276
6220,18,Jits_Linear_8,3,5,56,103,3206374704
6220,18,Jits_Linear_8,0,5,63,98,3206725124
6220,18,Jits_Linear_8,1,5,80,127,3206785372
6220,18,Jits_Linear_8,2,5,56,103,3206825308
6220,18,Jits_Linear_8,3,1,48,58,3206850624
6220,18,Jits_Linear_8,0,5,56,103,3207324980
6220,18,Jits_Linear_8,1,5,80,127,3207344764
6220,18,Jits_Linear_8,2,5,63,98,3207364876
6220,18,Jits_Linear_8,3,1,48,52,3207377060
6220,18,Jits_Linear_8,0,5,63,98,3207744736
6220,18,Jits_Linear_8,1,5,56,103,3207765568
6220,18,Jits_Linear_8,2,5,80,127,3207805652
6220,18,Jits_Linear_8,3,1,48,56,3207910824
6220,18,Jits_Linear_8,0,5,63,98,3208254824
6220,18,Jits_Linear_8,1,5,80,127,3208284872
6220,18,Jits_Linear_8,2,5,56,103,3208304888
6220,18,Jits_Linear_8,3,1,48,43,3208458976
6220,18,Jits_Linear_8,0,5,80,127,3208724832
6220,18,Jits_Linear_8,1,5,56,103,3208774884
6220,18,Jits_Linear_8,2,5,63,98,3208834452
6220,18,Jits_Linear_8,3,1,48,38,3208944056
6220,18,Jits_Linear_8,0,5,63,98,3209205100
6220,18,Jits_Linear_8,1,5,56,103,3209324980
6220,18,Jits_Linear_8,2,5,80,127,3209354800
6220,18,Jits_Linear_8,3,1,48,44,3209397700
6220,18,Jits_Linear_8,0,5,80,127,3209734748
6220,18,Jits_Linear_8,1,5,63,98,3209755060
6220,18,Jits_Linear_8,2,5,56,103,3209824592
6220,18,Jits_Linear_8,3,1,48,39,3209905324
6220,18,Jits_Linear_8,0,5,63,98,3210244556
6220,18,Jits_Linear_8,1,5,56,103,3210254680
6220,18,Jits_Linear_8,2,5,80,127,3210334620
6220,18,Jits_Linear_8,3,1,48,45,3210354672
6220,18,Jits_Linear_8,0,1,48,47,3210779264
6220,18,Jits_Linear_8,1,5,56,103,3210795476
6220,18,Jits_Linear_8,2,5,80,127,3210825004
6220,18,Jits_Linear_8,3,5,63,98,3210835500
6220,18,Jits_Linear_8,0,9999,9999,9999,3100432444
6220,18,Jits_Linear_8,1,9999,9999,9999,3101252728
6220,18,Jits_Linear_8,2,9999,9999,9999,3102072916
6220,18,Jits_Linear_8,3,9999,9999,9999,3102892092
6220,18,Jits_Linear_8,4,9999,9999,9999,3103712320
6220,18,Jits_Linear_8,5,9999,9999,9999,3104522340
6220,18,Jits_Linear_8,6,9999,9999,9999,3105332336
6220,18,Jits_Linear_8,7,9999,9999,9999,3106142328
6220,18,Jits_Linear_8,8,9999,9999,9999,3106952252
6220,18,Jits_Linear_8,9,9999,9999,9999,3107762248
6220,18,Jits_Linear_8,10,9999,9999,9999,3108563024
6220,18,Jits_Linear_8,11,9999,9999,9999,3109362780
6220,18,Jits_Linear_8,12,9999,9999,9999,3110162540
6220,18,Jits_Linear_8,13,9999,9999,9999,3110962272
6220,18,Jits_Linear_8,14,9999,9999,9999,3111763056
6220,18,Jits_Linear_8,15,9999,9999,9999,3112552512
6220,18,Jits_Linear_8,16,9999,9999,9999,3113343032
6220,18,Jits_Linear_8,17,9999,9999,9999,3114132548
6220,18,Jits_Linear_8,18,9999,9999,9999,3114923092
6220,18,Jits_Linear_8,19,9999,9999,9999,3115722812
6220,18,Jits_Linear_8,20,9999,9999,9999,3116502112
6220,18,Jits_Linear_8,21,9999,9999,9999,3117282384
6220,18,Jits_Linear_8,22,9999,9999,9999,3118062664
6220,18,Jits_Linear_8,23,9999,9999,9999,3118842952
6220,18,Jits_Linear_8,24,9999,9999,9999,3119622256
6220,18,Jits_Linear_8,25,9999,9999,9999,3120392244
6220,18,Jits_Linear_8,26,9999,9999,9999,3121162328
6220,18,Jits_Linear_8,27,9999,9999,9999,3121932340
6220,18,Jits_Linear_8,28,9999,9999,9999,3122702428
6220,18,Jits_Linear_8,29,9999,9999,9999,3123472464
6220,18,Jits_Linear_8,30,9999,9999,9999,3124232284
6220,18,Jits_Linear_8,31,9999,9999,9999,3124992108
6220,18,Jits_Linear_8,32,9999,9999,9999,3125752904
6220,18,Jits_Linear_8,33,9999,9999,9999,3126512732
6220,18,Jits_Linear_8,34,9999,9999,9999,3127272568
6220,18,Jits_Linear_8,35,9999,9999,9999,3128022140
6220,18,Jits_Linear_8,36,9999,9999,9999,3128772680
6220,18,Jits_Linear_8,37,9999,9999,9999,3129522304
6220,18,Jits_Linear_8,38,9999,9999,9999,3130272848
6220,18,Jits_Linear_8,39,9999,9999,9999,3131022424
6220,18,Jits_Linear_8,40,9999,9999,9999,3131762788
6220,18,Jits_Linear_8,41,9999,9999,9999,3132502100
6220,18,Jits_Linear_8,42,9999,9999,9999,3133242444
6220,18,Jits_Linear_8,43,9999,9999,9999,3133982788
6220,18,Jits_Linear_8,44,9999,9999,9999,3134722148
6220,18,Jits_Linear_8,45,9999,9999,9999,3135452232
6220,18,Jits_Linear_8,46,9999,9999,9999,3136182364
6220,18,Jits_Linear_8,47,9999,9999,9999,3136912456
6220,18,Jits_Linear_8,48,9999,9999,9999,3137642552
6220,18,Jits_Linear_8,49,9999,9999,9999,3138372716
6220,18,Jits_Linear_8,50,9999,9999,9999,3139092536
6220,18,Jits_Linear_8,51,9999,9999,9999,3139812428
6220,18,Jits_Linear_8,52,9999,9999,9999,3140532296
6220,18,Jits_Linear_8,53,9999,9999,9999,3141252192
6220,18,Jits_Linear_8,54,9999,9999,9999,3141973052
6220,18,Jits_Linear_8,55,9999,9999,9999,3142682700
6220,18,Jits_Linear_8,56,9999,9999,9999,3143392380
6220,18,Jits_Linear_8,57,9999,9999,9999,3144103020
6220,18,Jits_Linear_8,58,9999,9999,9999,3144812636
6220,18,Jits_Linear_8,59,9999,9999,9999,3145522236
6220,18,Jits_Linear_8,60,9999,9999,9999,3146222656
6220,18,Jits_Linear_8,61,9999,9999,9999,3146923136
6220,18,Jits_Linear_8,62,9999,9999,9999,3147632700
6220,18,Jits_Linear_8,63,9999,9999,9999,3148332128
6220,18,Jits_Linear_8,64,9999,9999,9999,3149032548
6220,18,Jits_Linear_8,65,9999,9999,9999,3149722680
6220,18,Jits_Linear_8,66,9999,9999,9999,3150412920
6220,18,Jits_Linear_8,67,9999,9999,9999,3151103072
6220,18,Jits_Linear_8,68,9999,9999,9999,3151792212
6220,18,Jits_Linear_8,69,9999,9999,9999,3152482424
6220,18,Jits_Linear_8,70,9999,9999,9999,3153162304
6220,18,Jits_Linear_8,71,9999,9999,9999,3153842248
6220,18,Jits_Linear_8,72,9999,9999,9999,3154522216
6220,18,Jits_Linear_8,73,9999,9999,9999,3155202116
6220,18,Jits_Linear_8,74,9999,9999,9999,3155883120
6220,18,Jits_Linear_8,75,9999,9999,9999,3156563032
6220,18,Jits_Linear_8,76,9999,9999,9999,3157232752
6220,18,Jits_Linear_8,77,9999,9999,9999,3157902444
6220,18,Jits_Linear_8,78,9999,9999,9999,3158572108
6220,18,Jits_Linear_8,79,9999,9999,9999,3159242876
6220,18,Jits_Linear_8,80,9999,9999,9999,3159902300
6220,18,Jits_Linear_8,81,9999,9999,9999,3160562776
6220,18,Jits_Linear_8,82,9999,9999,9999,3161222260
6220,18,Jits_Linear_8,83,9999,9999,9999,3161882708
6220,18,Jits_Linear_8,84,9999,9999,9999,3162542148
6220,18,Jits_Linear_8,85,9999,9999,9999,3163192396
6220,18,Jits_Linear_8,86,9999,9999,9999,3163842624
6220,18,Jits_Linear_8,87,9999,9999,9999,3164492884
6220,18,Jits_Linear_8,88,9999,9999,9999,3165142124
6220,18,Jits_Linear_8,89,9999,9999,9999,3165792324
6220,18,Jits_Linear_8,90,9999,9999,9999,3166432360
6220,18,Jits_Linear_8,91,9999,9999,9999,3167072380
6220,18,Jits_Linear_8,92,9999,9999,9999,3167712380
6220,18,Jits_Linear_8,93,9999,9999,9999,3168352360
6220,18,Jits_Linear_8,94,9999,9999,9999,3168992316
6220,18,Jits_Linear_8,95,9999,9999,9999,3169622132
6220,18,Jits_Linear_8,96,9999,9999,9999,3170252868
6220,18,Jits_Linear_8,97,9999,9999,9999,3170882684
6220,18,Jits_Linear_8,98,9999,9999,9999,3171512424
6220,18,Jits_Linear_8,99,9999,9999,9999,3172142188
6220,18,Jits_Linear_8,100,9999,9999,9999,3172762700
6220,18,Jits_Linear_8,101,9999,9999,9999,3173382204
6220,18,Jits_Linear_8,102,9999,9999,9999,3174002796
6220,18,Jits_Linear_8,103,9999,9999,9999,3174622296
6220,18,Jits_Linear_8,104,9999,9999,9999,3175242820
6220,18,Jits_Linear_8,105,9999,9999,9999,3175852116
6220,18,Jits_Linear_8,106,9999,9999,9999,3176462392
6220,18,Jits_Linear_8,107,9999,9999,9999,3177072708
6220,18,Jits_Linear_8,108,9999,9999,9999,3177683068
6220,18,Jits_Linear_8,109,9999,9999,9999,3178292280
6220,18,Jits_Linear_8,110,9999,9999,9999,3178892352
6220,18,Jits_Linear_8,111,9999,9999,9999,3179492452
6220,18,Jits_Linear_8,112,9999,9999,9999,3180092532
6220,18,Jits_Linear_8,113,9999,9999,9999,3180692564
6220,18,Jits_Linear_8,114,9999,9999,9999,3181292612
6220,18,Jits_Linear_8,115,9999,9999,9999,3181882492
6220,18,Jits_Linear_8,116,9999,9999,9999,3182472320
6220,18,Jits_Linear_8,117,9999,9999,9999,3183062120
6220,18,Jits_Linear_8,118,9999,9999,9999,3183652984
6220,18,Jits_Linear_8,119,9999,9999,9999,3184242780
6220,18,Jits_Linear_8,120,9999,9999,9999,3184822360
6220,18,Jits_Linear_8,121,9999,9999,9999,3185402936
6220,18,Jits_Linear_8,122,9999,9999,9999,3185982536
6220,18,Jits_Linear_8,123,9999,9999,9999,3186562164
6220,18,Jits_Linear_8,124,9999,9999,9999,3187142720
6220,18,Jits_Linear_8,125,9999,9999,9999,3187712084
6220,18,Jits_Linear_8,126,9999,9999,9999,3188282424
6220,18,Jits_Linear_8,127,9999,9999,9999,3188852828
6220,18,Jits_Linear_8,128,9999,9999,9999,3189422184
6220,18,Jits_Linear_8,129,9999,9999,9999,3189992536
6220,18,Jits_Linear_8,130,9999,9999,9999,3190552700
6220,18,Jits_Linear_8,131,9999,9999,9999,3191112780
6220,18,Jits_Linear_8,132,9999,9999,9999,3191672928
6220,18,Jits_Linear_8,133,9999,9999,9999,3192233080
6220,18,Jits_Linear_8,134,9999,9999,9999,3192792136
6220,18,Jits_Linear_8,135,9999,9999,9999,3193343048
6220,18,Jits_Linear_8,136,9999,9999,9999,3193892924
6220,18,Jits_Linear_8,137,9999,9999,9999,3194442816
6220,18,Jits_Linear_8,138,9999,9999,9999,3194992708
6220,18,Jits_Linear_8,139,9999,9999,9999,3195542584
6220,18,Jits_Linear_8,140,9999,9999,9999,3196082272
6220,18,Jits_Linear_8,141,9999,9999,9999,3196622956
6220,18,Jits_Linear_8,142,9999,9999,9999,3197162560
6220,18,Jits_Linear_8,143,9999,9999,9999,3197702248
6220,18,Jits_Linear_8,144,9999,9999,9999,3198242904
6220,18,Jits_Linear_8,145,9999,9999,9999,3198772332
6220,18,Jits_Linear_8,146,9999,9999,9999,3199302748
6220,18,Jits_Linear_8,147,9999,9999,9999,3199832164
6220,18,Jits_Linear_8,148,9999,9999,9999,3200362552
6220,18,Jits_Linear_8,149,9999,9999,9999,3200893016
6220,18,Jits_Linear_8,150,9999,9999,9999,3201412176
6220,18,Jits_Linear_8,151,9999,9999,9999,3201932392
6220,18,Jits_Linear_8,152,9999,9999,9999,3202452536
6220,18,Jits_Linear_8,153,9999,9999,9999,3202972748
6220,18,Jits_Linear_8,154,9999,9999,9999,3203492960
6220,18,Jits_Linear_8,155,9999,9999,9999,3204002904
6220,18,Jits_Linear_8,156,9999,9999,9999,3204512864
6220,18,Jits_Linear_8,157,9999,9999,9999,3205022800
6220,18,Jits_Linear_8,158,9999,9999,9999,3205532748
6220,18,Jits_Linear_8,159,9999,9999,9999,3206042700
6220,18,Jits_Linear_8,160,9999,9999,9999,3206542400
6220,18,Jits_Linear_8,161,9999,9999,9999,3207042156
6220,18,Jits_Linear_8,162,9999,9999,9999,3207542888
6220,18,Jits_Linear_8,163,9999,9999,9999,3208042576
6220,18,Jits_Linear_8,164,9999,9999,9999,3208542272
6220,18,Jits_Linear_8,165,9999,9999,9999,3209032808
6220,18,Jits_Linear_8,166,9999,9999,9999,3209522280
6220,18,Jits_Linear_8,167,9999,9999,9999,3210012740
6220,18,Jits_Linear_8,168,9999,9999,9999,3210502248
6220,18,Jits_Linear_8,169,9999,9999,9999,3210992720
6221,5,ISIP_5,0,5,42,127,3279071632
6221,5,ISIP_5,1,5,42,127,3279572324
6221,5,ISIP_5,2,5,42,127,3280072112
6221,5,ISIP_5,3,1,48,30,3280082636
6221,5,ISIP_5,4,5,42,127,3280571808
6221,5,ISIP_5,5,1,48,52,3280596248
6221,5,ISIP_5,6,5,42,127,3281071480
6221,5,ISIP_5,7,1,48,55,3281079460
6221,5,ISIP_5,8,5,42,127,3281572144
6221,5,ISIP_5,9,1,48,65,3281596084
6221,5,ISIP_5,10,5,42,127,3282071988
6221,5,ISIP_5,11,1,48,63,3282093584
6221,5,ISIP_5,12,5,42,127,3282571612
6221,5,ISIP_5,13,1,48,66,3282598216
6221,5,ISIP_5,14,5,42,127,3283072428
6221,5,ISIP_5,15,1,48,61,3283111596
6221,5,ISIP_5,16,5,42,127,3283572268
6221,5,ISIP_5,17,1,48,65,3283589896
6221,5,ISIP_5,18,5,42,127,3284072112
6221,5,ISIP_5,19,1,48,48,3284086080
6221,5,ISIP_5,20,1,48,68,3284567356
6221,5,ISIP_5,21,5,42,127,3284571504
6221,5,ISIP_5,22,5,42,127,3285072252
6221,5,ISIP_5,23,1,48,67,3285087564
6221,5,ISIP_5,24,1,48,65,3285558444
6221,5,ISIP_5,25,5,42,127,3285572236
6221,5,ISIP_5,26,1,48,51,3286052904
6221,5,ISIP_5,27,5,42,127,3286071560
6221,5,ISIP_5,28,1,48,58,3286562996
6221,5,ISIP_5,29,5,42,127,3286572452
6221,5,ISIP_5,30,1,48,77,3287055436
6221,5,ISIP_5,31,5,42,127,3287072144
6221,5,ISIP_5,32,1,48,80,3287566720
6221,5,ISIP_5,33,5,42,127,3287572064
6221,5,ISIP_5,34,5,42,127,3288071396
6221,5,ISIP_5,35,1,48,59,3288098824
6221,5,ISIP_5,36,5,42,127,3288572212
6221,5,ISIP_5,37,1,48,61,3288597620
6221,5,ISIP_5,38,5,42,127,3289072204
6221,5,ISIP_5,39,1,48,62,3289079436
6221,5,ISIP_5,40,1,48,61,3289565872
6221,5,ISIP_5,41,5,42,127,3289571816
6221,5,ISIP_5,42,5,42,127,3290072492
6221,5,ISIP_5,43,1,48,60,3290105980
6221,5,ISIP_5,44,1,48,69,3290565264
6221,5,ISIP_5,45,5,42,127,3290572180
6221,5,ISIP_5,46,5,42,127,3291072104
6221,5,ISIP_5,47,1,48,53,3291076196
6221,5,ISIP_5,48,1,48,54,3291571552
6221,5,ISIP_5,49,5,42,127,3291572964
6221,5,ISIP_5,50,1,48,58,3292062228
6221,5,ISIP_5,51,5,42,127,3292072432
6221,5,ISIP_5,52,5,42,127,3292572208
6221,5,ISIP_5,53,1,48,59,3292607968
6221,5,ISIP_5,54,5,42,127,3293072056
6221,5,ISIP_5,55,1,48,64,3293100084
6221,5,ISIP_5,56,5,42,127,3293571452
6221,5,ISIP_5,57,1,48,67,3293627324
6221,5,ISIP_5,58,5,42,127,3294072268
6221,5,ISIP_5,59,1,48,61,3294121536
6221,5,ISIP_5,60,5,42,127,3294572112
6221,5,ISIP_5,61,1,48,59,3294602460
6221,5,ISIP_5,62,5,42,127,3295071804
6221,5,ISIP_5,63,1,48,60,3295079492
6221,5,ISIP_5,64,5,42,127,3295572472
6221,5,ISIP_5,65,1,48,58,3295598784
6221,5,ISIP_5,66,5,42,127,3296072020
6221,5,ISIP_5,67,1,48,57,3296082840
6221,5,ISIP_5,68,5,42,127,3296571936
6221,5,ISIP_5,69,1,48,59,3296597644
6221,5,ISIP_5,70,5,42,127,3297071484
6221,5,ISIP_5,71,1,48,57,3297093680
6221,5,ISIP_5,72,5,42,127,3297572148
6221,5,ISIP_5,73,1,48,56,3297601824
6221,5,ISIP_5,74,5,42,127,3298071996
6221,5,ISIP_5,75,1,48,57,3298109292
6221,5,ISIP_5,76,5,42,127,3298571764
6221,5,ISIP_5,77,1,48,57,3298594556
6221,5,ISIP_5,78,1,48,62,3299075248
6221,5,ISIP_5,79,1,48,59,3299640084
6221,5,ISIP_5,80,1,48,57,3300127960
6221,5,ISIP_5,81,1,48,54,3300601392
6221,5,ISIP_5,82,1,48,56,3301101160
6221,5,ISIP_5,83,1,48,56,3301595320
6221,5,ISIP_5,84,1,48,56,3302074812
6221,5,ISIP_5,85,1,48,55,3302562792
6221,5,ISIP_5,86,1,48,58,3303093840
6221,5,ISIP_5,87,1,48,59,3303583884
6221,5,ISIP_5,88,1,48,58,3304085216
6221,5,ISIP_5,89,1,48,59,3304585732
6221,5,ISIP_5,90,1,48,55,3305110628
6221,5,ISIP_5,91,1,48,54,3305616748
6221,5,ISIP_5,92,1,48,55,3306140596
6221,5,ISIP_5,93,1,48,55,3306667664
6221,5,ISIP_5,94,1,48,57,3307152092
6221,5,ISIP_5,95,1,48,52,3307638620
6221,5,ISIP_5,96,1,48,57,3308152372
6221,5,ISIP_5,97,1,48,58,3308646752
6221,5,ISIP_5,98,1,48,57,3309166488
6221,5,ISIP_5,99,1,48,57,3309650996
6221,5,ISIP_5,100,1,48,57,3310158836
6221,5,ISIP_5,101,1,48,57,3310650600
6221,5,ISIP_5,102,1,48,56,3311174524
6221,5,ISIP_5,103,1,48,57,3311665616
6221,5,ISIP_5,104,1,48,57,3312164412
6221,5,ISIP_5,105,1,48,55,3312686012
6221,5,ISIP_5,106,1,48,56,3313194904
6221,5,ISIP_5,107,1,48,57,3313687568
6221,5,ISIP_5,108,1,48,56,3314184640
6221,5,ISIP_5,109,1,48,61,3314716944
6221,5,ISIP_5,110,1,48,54,3315202720
6221,5,ISIP_5,111,1,48,57,3315749380
6221,5,ISIP_5,112,1,48,56,3316249220
6221,5,ISIP_5,113,1,48,58,3316736796
6221,5,ISIP_5,114,1,48,56,3317260120
6221,5,ISIP_5,115,1,48,57,3317753528
6221,5,ISIP_5,116,1,48,56,3318255840
6221,5,ISIP_5,117,1,48,59,3318766900
6221,5,ISIP_5,118,1,48,57,3319262848
6221,5,ISIP_5,119,1,48,59,3319775480
6221,5,ISIP_5,120,1,48,60,3320263728
6221,5,ISIP_5,121,1,48,56,3320767680
6221,5,ISIP_5,122,1,48,60,3321257100
6221,5,ISIP_5,123,1,48,59,3321774220
6221,5,ISIP_5,124,1,48,58,3322235832
6221,5,ISIP_5,125,1,48,54,3322727368
6221,5,ISIP_5,126,1,48,59,3323245236
6221,5,ISIP_5,127,1,48,56,3323740512
6221,5,ISIP_5,128,1,48,69,3324267584
6221,5,ISIP_5,129,1,48,65,3324765024
6221,5,ISIP_5,130,1,48,75,3325293816
6221,5,ISIP_5,131,1,48,54,3325792384
6221,5,ISIP_5,132,1,48,55,3326300524
6221,5,ISIP_5,133,1,48,41,3326833800
6221,5,ISIP_5,134,1,48,75,3327334984
6221,5,ISIP_5,135,1,48,66,3327812160
6221,5,ISIP_5,136,1,48,55,3328295768
6221,5,ISIP_5,137,1,48,57,3328803536
6221,5,ISIP_5,138,1,48,57,3329302708
6221,5,ISIP_5,139,1,48,56,3329814888
6221,5,ISIP_5,140,1,48,64,3330300144
6221,5,ISIP_5,141,1,48,58,3330770364
6221,5,ISIP_5,142,1,48,59,3331267060
6221,5,ISIP_5,143,1,48,60,3331745408
6221,5,ISIP_5,144,1,48,57,3332245700
6221,5,ISIP_5,145,1,48,54,3332729156
6221,5,ISIP_5,146,1,48,56,3333242988
6221,5,ISIP_5,147,1,48,64,3333714108
6221,5,ISIP_5,148,1,48,62,3334209080
6221,5,ISIP_5,149,1,48,59,3334718720
6221,5,ISIP_5,150,1,48,48,3335253712
6221,5,ISIP_5,151,1,48,53,3335735308
6221,5,ISIP_5,152,1,48,59,3336252872
6221,5,ISIP_5,153,1,48,63,3336781504
6221,5,ISIP_5,154,1,48,62,3337285016
6221,5,ISIP_5,155,1,48,56,3337756652
6221,5,ISIP_5,156,1,48,61,3338316860
6221,5,ISIP_5,157,1,48,61,3338776984
6221,5,ISIP_5,158,1,48,57,3339298736
6221,5,ISIP_5,159,1,48,62,3339816752
6221,5,ISIP_5,160,1,48,54,3340282408
6221,5,ISIP_5,161,1,48,57,3340796608
6221,5,ISIP_5,162,1,48,56,3341247384
6221,5,ISIP_5,163,1,48,54,3341766900
6221,5,ISIP_5,164,1,48,56,3342226920
6221,5,ISIP_5,165,1,48,59,3342724888
6221,5,ISIP_5,166,1,48,59,3343191892
6221,5,ISIP_5,167,1,48,57,3343672516
6221,5,ISIP_5,168,1,48,58,3344166072
6221,5,ISIP_5,169,1,48,58,3344651476
6221,5,ISIP_5,170,1,48,57,3345123116
6221,5,ISIP_5,171,1,48,61,3345622136
6221,5,ISIP_5,172,1,48,61,3346112024
6221,5,ISIP_5,173,1,48,59,3346617628
6221,5,ISIP_5,174,1,48,59,3347127488
6221,5,ISIP_5,175,1,48,59,3347622736
6221,5,ISIP_5,176,1,48,40,3348075156
6221,5,ISIP_5,177,1,48,62,3348604096
6221,5,ISIP_5,178,1,48,64,3349128016
6221,5,ISIP_5,179,1,48,59,3349609980
6221,5,ISIP_5,180,1,48,62,3350099200
6221,5,ISIP_5,181,1,48,62,3350583256
6221,5,ISIP_5,182,1,48,59,3351077860
6221,5,ISIP_5,183,1,48,63,3351575088
6221,5,ISIP_5,184,1,48,61,3352049404
6221,5,ISIP_5,185,1,48,59,3352576784
6221,5,ISIP_5,186,1,48,64,3353043924
6221,5,ISIP_5,187,1,48,60,3353567256
6221,5,ISIP_5,188,1,48,59,3354043832
6221,5,ISIP_5,189,1,48,63,3354541328
6221,5,ISIP_5,190,1,48,39,3355062808
6221,5,ISIP_5,191,1,48,61,3355555292
6221,5,ISIP_5,192,1,48,61,3356088080
6221,5,ISIP_5,193,1,48,61,3356555048
6221,5,ISIP_5,194,1,48,67,3357104940
6221,5,ISIP_5,195,1,48,69,3357586156
6221,5,ISIP_5,196,1,48,67,3358075600
6221,5,ISIP_5,197,1,48,68,3358602592
6221,5,ISIP_5,0,9999,9999,9999,3279069272
6221,5,ISIP_5,1,9999,9999,9999,3279570036
6221,5,ISIP_5,2,9999,9999,9999,3280069752
6221,5,ISIP_5,3,9999,9999,9999,3280569420
6221,5,ISIP_5,4,9999,9999,9999,3281069116
6221,5,ISIP_5,5,9999,9999,9999,3281569856
6221,5,ISIP_5,6,9999,9999,9999,3282069552
6221,5,ISIP_5,7,9999,9999,9999,3282569324
6221,5,ISIP_5,8,9999,9999,9999,3283070064
6221,5,ISIP_5,9,9999,9999,9999,3283569756
6221,5,ISIP_5,10,9999,9999,9999,3284069452
6221,5,ISIP_5,11,9999,9999,9999,3284569140
6221,5,ISIP_5,12,9999,9999,9999,3285069888
6221,5,ISIP_5,13,9999,9999,9999,3285569652
6221,5,ISIP_5,14,9999,9999,9999,3286069348
6221,5,ISIP_5,15,9999,9999,9999,3286570088
6221,5,ISIP_5,16,9999,9999,9999,3287069784
6221,5,ISIP_5,17,9999,9999,9999,3287569480
6221,5,ISIP_5,18,9999,9999,9999,3288069180
6221,5,ISIP_5,19,9999,9999,9999,3288569924
6221,5,ISIP_5,20,9999,9999,9999,3289069616
6221,5,ISIP_5,21,9999,9999,9999,3289569380
6221,5,ISIP_5,22,9999,9999,9999,3290070128
6221,5,ISIP_5,23,9999,9999,9999,3290569820
6221,5,ISIP_5,24,9999,9999,9999,3291069520
6221,5,ISIP_5,25,9999,9999,9999,3291569264
6221,5,ISIP_5,26,9999,9999,9999,3292069996
6221,5,ISIP_5,27,9999,9999,9999,3292569700
6221,5,ISIP_5,28,9999,9999,9999,3293069392
6221,5,ISIP_5,29,9999,9999,9999,3293569088
6221,5,ISIP_5,30,9999,9999,9999,3294069832
6221,5,ISIP_5,31,9999,9999,9999,3294569528
6221,5,ISIP_5,32,9999,9999,9999,3295069296
6221,5,ISIP_5,33,9999,9999,9999,3295570036
6221,5,ISIP_5,34,9999,9999,9999,3296069732
6221,5,ISIP_5,35,9999,9999,9999,3296569428
6221,5,ISIP_5,36,9999,9999,9999,3297069120
6221,5,ISIP_5,37,9999,9999,9999,3297569860
6221,5,ISIP_5,38,9999,9999,9999,3298069556
6221,5,ISIP_5,39,9999,9999,9999,3298569328
6221,5,ISIP_5,40,9999,9999,9999,3299070068
6221,5,ISIP_5,41,9999,9999,9999,3299569760
6221,5,ISIP_5,42,9999,9999,9999,3300069448
6221,5,ISIP_5,43,9999,9999,9999,3300569140
6221,5,ISIP_5,44,9999,9999,9999,3301069880
6221,5,ISIP_5,45,9999,9999,9999,3301569644
6221,5,ISIP_5,46,9999,9999,9999,3302069308
6221,5,ISIP_5,47,9999,9999,9999,3302570040
6221,5,ISIP_5,48,9999,9999,9999,3303069812
6221,5,ISIP_5,49,9999,9999,9999,3303569504
6221,5,ISIP_5,50,9999,9999,9999,3304069192
6221,5,ISIP_5,51,9999,9999,9999,3304569928
6221,5,ISIP_5,52,9999,9999,9999,3305069620
6221,5,ISIP_5,53,9999,9999,9999,3305569384
6221,5,ISIP_5,54,9999,9999,9999,3306070120
6221,5,ISIP_5,55,9999,9999,9999,3306569812
6221,5,ISIP_5,56,9999,9999,9999,3307069504
6221,5,ISIP_5,57,9999,9999,9999,3307569268
6221,5,ISIP_5,58,9999,9999,9999,3308070004
6221,5,ISIP_5,59,9999,9999,9999,3308569692
6221,5,ISIP_5,60,9999,9999,9999,3309069384
6221,5,ISIP_5,61,9999,9999,9999,3309569076
6221,5,ISIP_5,62,9999,9999,9999,3310069812
6221,5,ISIP_5,63,9999,9999,9999,3310569580
6221,5,ISIP_5,64,9999,9999,9999,3311069268
6221,5,ISIP_5,65,9999,9999,9999,3311570008
6221,5,ISIP_5,66,9999,9999,9999,3312069696
6221,5,ISIP_5,67,9999,9999,9999,3312569464
6221,5,ISIP_5,68,9999,9999,9999,3313069132
6221,5,ISIP_5,69,9999,9999,9999,3313569868
6221,5,ISIP_5,70,9999,9999,9999,3314069560
6221,5,ISIP_5,71,9999,9999,9999,3314569324
6221,5,ISIP_5,72,9999,9999,9999,3315070060
6221,5,ISIP_5,73,9999,9999,9999,3315569752
6221,5,ISIP_5,74,9999,9999,9999,3316069440
6221,5,ISIP_5,75,9999,9999,9999,3316569208
6221,5,ISIP_5,76,9999,9999,9999,3317069944
6221,5,ISIP_5,77,9999,9999,9999,3317569636
6221,5,ISIP_5,78,9999,9999,9999,3318069324
6221,5,ISIP_5,79,9999,9999,9999,3318570064
6221,5,ISIP_5,80,9999,9999,9999,3319069752
6221,5,ISIP_5,81,9999,9999,9999,3319569520
6221,5,ISIP_5,82,9999,9999,9999,3320069208
6221,5,ISIP_5,83,9999,9999,9999,3320569944
6221,5,ISIP_5,84,9999,9999,9999,3321069640
6221,5,ISIP_5,85,9999,9999,9999,3321569328
6221,5,ISIP_5,86,9999,9999,9999,3322070064
6221,5,ISIP_5,87,9999,9999,9999,3322569832
6221,5,ISIP_5,88,9999,9999,9999,3323069520
6221,5,ISIP_5,89,9999,9999,9999,3323569260
6221,5,ISIP_5,90,9999,9999,9999,3324069996
6221,5,ISIP_5,91,9999,9999,9999,3324569688
6221,5,ISIP_5,92,9999,9999,9999,3325069380
6221,5,ISIP_5,93,9999,9999,9999,3325569144
6221,5,ISIP_5,94,9999,9999,9999,3326069880
6221,5,ISIP_5,95,9999,9999,9999,3326569572
6221,5,ISIP_5,96,9999,9999,9999,3327069260
6221,5,ISIP_5,97,9999,9999,9999,3327569996
6221,5,ISIP_5,98,9999,9999,9999,3328069688
6221,5,ISIP_5,99,9999,9999,9999,3328569452
6221,5,ISIP_5,100,9999,9999,9999,3329069144
6221,5,ISIP_5,101,9999,9999,9999,3329569880
6221,5,ISIP_5,102,9999,9999,9999,3330069572
6221,5,ISIP_5,103,9999,9999,9999,3330569264
6221,5,ISIP_5,104,9999,9999,9999,3331070000
6221,5,ISIP_5,105,9999,9999,9999,3331569768
6221,5,ISIP_5,106,9999,9999,9999,3332069456
6221,5,ISIP_5,107,9999,9999,9999,3332569148
6221,5,ISIP_5,108,9999,9999,9999,3333069884
6221,5,ISIP_5,109,9999,9999,9999,3333569652
6221,5,ISIP_5,110,9999,9999,9999,3334069316
6221,5,ISIP_5,111,9999,9999,9999,3334570056
6221,5,ISIP_5,112,9999,9999,9999,3335069744
6221,5,ISIP_5,113,9999,9999,9999,3335569512
6221,5,ISIP_5,114,9999,9999,9999,3336069200
6221,5,ISIP_5,115,9999,9999,9999,3336569940
6221,5,ISIP_5,116,9999,9999,9999,3337069628
6221,5,ISIP_5,117,9999,9999,9999,3337569396
6221,5,ISIP_5,118,9999,9999,9999,3338070132
6221,5,ISIP_5,119,9999,9999,9999,3338569824
6221,5,ISIP_5,120,9999,9999,9999,3339069516
6221,5,ISIP_5,121,9999,9999,9999,3339569204
6221,5,ISIP_5,122,9999,9999,9999,3340069940
6221,5,ISIP_5,123,9999,9999,9999,3340569708
6221,5,ISIP_5,124,9999,9999,9999,3341069400
6221,5,ISIP_5,125,9999,9999,9999,3341569092
6221,5,ISIP_5,126,9999,9999,9999,3342069828
6221,5,ISIP_5,127,9999,9999,9999,3342569592
6221,5,ISIP_5,128,9999,9999,9999,3343069284
6221,5,ISIP_5,129,9999,9999,9999,3343570020
6221,5,ISIP_5,130,9999,9999,9999,3344069712
6221,5,ISIP_5,131,9999,9999,9999,3344569404
6221,5,ISIP_5,132,9999,9999,9999,3345069144
6221,5,ISIP_5,133,9999,9999,9999,3345569880
6221,5,ISIP_5,134,9999,9999,9999,3346069572
6221,5,ISIP_5,135,9999,9999,9999,3346569264
6221,5,ISIP_5,136,9999,9999,9999,3347070000
6221,5,ISIP_5,137,9999,9999,9999,3347569764
6221,5,ISIP_5,138,9999,9999,9999,3348069456
6221,5,ISIP_5,139,9999,9999,9999,3348569148
6221,5,ISIP_5,140,9999,9999,9999,3349069884
6221,5,ISIP_5,141,9999,9999,9999,3349569648
6221,5,ISIP_5,142,9999,9999,9999,3350069340
6221,5,ISIP_5,143,9999,9999,9999,3350570076
6221,5,ISIP_5,144,9999,9999,9999,3351069768
6221,5,ISIP_5,145,9999,9999,9999,3351569460
6221,5,ISIP_5,146,9999,9999,9999,3352069220
6221,5,ISIP_5,147,9999,9999,9999,3352569960
6221,5,ISIP_5,148,9999,9999,9999,3353069648
6221,5,ISIP_5,149,9999,9999,9999,3353569336
6221,5,ISIP_5,150,9999,9999,9999,3354070076
6221,5,ISIP_5,151,9999,9999,9999,3354569840
6221,5,ISIP_5,152,9999,9999,9999,3355069528
6221,5,ISIP_5,153,9999,9999,9999,3355569272
6221,5,ISIP_5,154,9999,9999,9999,3356069940
6221,5,ISIP_5,155,9999,9999,9999,3356569696
6221,5,ISIP_5,156,9999,9999,9999,3357069396
6221,5,ISIP_5,157,9999,9999,9999,3357569084
6221,5,ISIP_5,158,9999,9999,9999,3358069824
6221,5,ISIP_5,159,9999,9999,9999,3358569588
6222,3,ISIP_8,0,5,42,127,3385888320
6222,3,ISIP_8,1,1,48,48,3386443424
6222,3,ISIP_8,2,5,42,127,3386687832
6222,3,ISIP_8,3,1,48,50,3386947756
6222,3,ISIP_8,4,5,42,127,3387487492
6222,3,ISIP_8,5,1,48,46,3387508408
6222,3,ISIP_8,6,1,48,56,3388208424
6222,3,ISIP_8,7,5,42,127,3388288412
6222,3,ISIP_8,8,5,42,127,3389088152
6222,3,ISIP_8,9,1,48,61,3389122336
6222,3,ISIP_8,10,5,42,127,3389887984
6222,3,ISIP_8,11,1,48,66,3389936504
6222,3,ISIP_8,12,1,48,59,3390677208
6222,3,ISIP_8,13,5,42,127,3390687488
6222,3,ISIP_8,14,1,48,62,3391440808
6222,3,ISIP_8,15,5,42,127,3391488344
6222,3,ISIP_8,16,1,48,60,3392286412
6222,3,ISIP_8,17,5,42,127,3392288076
6222,3,ISIP_8,18,1,48,65,3393087964
6222,3,ISIP_8,19,5,42,127,3393089228
6222,3,ISIP_8,20,5,42,127,3393887476
6222,3,ISIP_8,21,1,48,65,3393966736
6222,3,ISIP_8,22,1,48,59,3394628824
6222,3,ISIP_8,23,5,42,127,3394688248
6222,3,ISIP_8,24,1,48,64,3395398632
6222,3,ISIP_8,25,5,42,127,3395488352
6222,3,ISIP_8,26,1,48,59,3396214452
6222,3,ISIP_8,27,5,42,127,3396287960
6222,3,ISIP_8,28,1,48,67,3396990400
6222,3,ISIP_8,29,5,42,127,3397087752
6222,3,ISIP_8,30,1,48,74,3397781832
6222,3,ISIP_8,31,5,42,127,3397888236
6222,3,ISIP_8,32,1,48,66,3398684212
6222,3,ISIP_8,33,5,42,127,3398688060
6222,3,ISIP_8,34,1,48,68,3399461576
6222,3,ISIP_8,35,5,42,127,3399488088
6222,3,ISIP_8,36,5,42,127,3400287532
6222,3,ISIP_8,37,1,48,78,3400292448
6222,3,ISIP_8,38,1,48,45,3401083188
6222,3,ISIP_8,39,5,42,127,3401088380
6222,3,ISIP_8,40,5,42,127,3401888044
6222,3,ISIP_8,41,1,48,47,3402063000
6222,3,ISIP_8,42,5,42,127,3402688028
6222,3,ISIP_8,43,1,48,26,3402791600
6222,3,ISIP_8,44,1,48,78,3403429352
6222,3,ISIP_8,45,5,42,127,3403487532
6222,3,ISIP_8,46,1,48,48,3404186228
6222,3,ISIP_8,47,5,42,127,3404288372
6222,3,ISIP_8,48,1,48,64,3404928812
6222,3,ISIP_8,49,5,42,127,3405088104
6222,3,ISIP_8,50,1,48,61,3405829996
6222,3,ISIP_8,51,5,42,127,3405888000
6222,3,ISIP_8,52,1,48,62,3406664516
6222,3,ISIP_8,53,5,42,127,3406687812
6222,3,ISIP_8,54,1,48,65,3407446672
6222,3,ISIP_8,55,5,42,127,3407488220
6222,3,ISIP_8,56,1,48,54,3408258448
6222,3,ISIP_8,57,5,42,127,3408288176
6222,3,ISIP_8,58,5,42,127,3409088088
6222,3,ISIP_8,59,1,48,58,3409142900
6222,3,ISIP_8,60,1,48,68,3409906724
6222,3,ISIP_8,61,1,48,66,3410742504
6222,3,ISIP_8,62,1,48,65,3411549932
6222,3,ISIP_8,63,1,48,64,3412404964
6222,3,ISIP_8,64,1,48,65,3413193624
6222,3,ISIP_8,65,1,48,61,3414022600
6222,3,ISIP_8,66,1,48,60,3414840728
6222,3,ISIP_8,67,1,48,49,3415672396
6222,3,ISIP_8,68,1,48,64,3416538496
6222,3,ISIP_8,69,1,48,59,3417389612
6222,3,ISIP_8,70,1,48,48,3418238780
6222,3,ISIP_8,71,1,48,66,3419068752
6222,3,ISIP_8,72,1,48,60,3419836620
6222,3,ISIP_8,73,1,48,62,3420654004
6222,3,ISIP_8,74,1,48,69,3421436524
6222,3,ISIP_8,75,1,48,67,3422218752
6222,3,ISIP_8,76,1,48,51,3423028580
6222,3,ISIP_8,77,1,48,68,3423816044
6222,3,ISIP_8,78,1,48,65,3424638808
6222,3,ISIP_8,79,1,48,60,3425380268
6222,3,ISIP_8,80,1,48,62,3426189872
6222,3,ISIP_8,81,1,48,55,3426984888
6222,3,ISIP_8,82,1,48,62,3427806708
6222,3,ISIP_8,83,1,48,73,3428585720
6222,3,ISIP_8,84,1,48,67,3429352308
6222,3,ISIP_8,85,1,48,62,3430167520
6222,3,ISIP_8,86,1,48,55,3430981764
6222,3,ISIP_8,87,1,48,56,3431758908
6222,3,ISIP_8,88,1,48,37,3431801664
6222,3,ISIP_8,89,1,48,59,3432560256
6222,3,ISIP_8,90,1,48,23,3432656672
6222,3,ISIP_8,91,1,48,61,3433462088
6222,3,ISIP_8,92,1,48,54,3434227556
6222,3,ISIP_8,93,1,48,55,3435013528
6222,3,ISIP_8,94,1,48,56,3435799568
6222,3,ISIP_8,95,1,48,61,3436641180
6222,3,ISIP_8,96,1,48,61,3437440164
6222,3,ISIP_8,97,1,48,61,3438218948
6222,3,ISIP_8,98,1,48,55,3438949860
6222,3,ISIP_8,99,1,48,63,3439714064
6222,3,ISIP_8,100,1,48,61,3440573356
6222,3,ISIP_8,101,1,48,54,3441325564
6222,3,ISIP_8,102,1,48,61,3442124568
6222,3,ISIP_8,103,1,48,61,3442919284
6222,3,ISIP_8,104,1,48,52,3443641528
6222,3,ISIP_8,105,1,48,54,3444412536
6222,3,ISIP_8,106,1,48,57,3445238516
6222,3,ISIP_8,107,1,48,60,3446018048
6222,3,ISIP_8,108,1,48,65,3446802144
6222,3,ISIP_8,109,1,48,62,3447563052
6222,3,ISIP_8,110,1,48,57,3448398536
6222,3,ISIP_8,111,1,48,67,3449223252
6222,3,ISIP_8,112,1,48,66,3450029856
6222,3,ISIP_8,113,1,48,65,3450859380
6222,3,ISIP_8,114,1,48,59,3451668760
6222,3,ISIP_8,115,1,48,65,3452476192
6222,3,ISIP_8,116,1,48,69,3453287444
6222,3,ISIP_8,117,1,48,65,3454132748
6222,3,ISIP_8,118,1,48,16,3454272600
6222,3,ISIP_8,119,1,48,67,3455004408
6222,3,ISIP_8,120,1,48,68,3455763076
6222,3,ISIP_8,121,1,48,57,3456595940
6222,3,ISIP_8,122,1,48,70,3457443392
6222,3,ISIP_8,123,1,48,65,3458254068
6222,3,ISIP_8,124,1,48,64,3459118044
6222,3,ISIP_8,125,1,48,60,3459930268
6222,3,ISIP_8,126,1,48,73,3460713916
6222,3,ISIP_8,127,1,48,67,3461529796
6222,3,ISIP_8,128,1,48,71,3462294896
6222,3,ISIP_8,129,1,48,67,3463136760
6222,3,ISIP_8,130,1,48,76,3463939480
6222,3,ISIP_8,131,1,48,72,3464807652
6222,3,ISIP_8,132,1,48,56,3465635956
6222,3,ISIP_8,133,1,48,65,3466407480
6222,3,ISIP_8,134,1,48,59,3467279260
6222,3,ISIP_8,135,1,48,58,3468171444
6222,3,ISIP_8,136,1,48,55,3469016748
6222,3,ISIP_8,137,1,48,57,3469874968
6222,3,ISIP_8,138,1,48,78,3470677540
6222,3,ISIP_8,139,1,48,70,3471429024
6222,3,ISIP_8,140,1,48,62,3472243560
6222,3,ISIP_8,141,1,48,71,3472983976
6222,3,ISIP_8,142,1,48,63,3473801508
6222,3,ISIP_8,143,1,48,62,3474545512
6222,3,ISIP_8,144,1,48,64,3475391568
6222,3,ISIP_8,145,1,48,65,3476136668
6222,3,ISIP_8,146,1,48,61,3476973824
6222,3,ISIP_8,147,1,48,76,3477738468
6222,3,ISIP_8,148,1,48,76,3478554808
6222,3,ISIP_8,149,1,48,70,3479368444
6222,3,ISIP_8,150,1,48,50,3480183284
6222,3,ISIP_8,151,1,48,70,3481035544
6222,3,ISIP_8,152,1,48,69,3481935444
6222,3,ISIP_8,153,1,48,60,3482734952
6222,3,ISIP_8,154,1,48,61,3483534608
6222,3,ISIP_8,155,1,48,93,3484389256
6222,3,ISIP_8,156,1,48,59,3485227288
6222,3,ISIP_8,157,1,48,56,3485911528
6222,3,ISIP_8,158,1,48,78,3486629988
6222,3,ISIP_8,159,1,48,68,3487806164
6222,3,ISIP_8,160,1,48,56,3488400020
6222,3,ISIP_8,161,1,48,58,3489140064
6222,3,ISIP_8,162,1,48,70,3489834392
6222,3,ISIP_8,163,1,48,70,3490539344
6222,3,ISIP_8,164,1,48,89,3491388892
6222,3,ISIP_8,165,1,48,83,3492076652
6222,3,ISIP_8,166,1,48,86,3492854916
6222,3,ISIP_8,167,1,48,62,3493551424
6222,3,ISIP_8,168,1,48,67,3494333652
6222,3,ISIP_8,169,1,48,70,3495135696
6222,3,ISIP_8,170,1,48,83,3495953224
6222,3,ISIP_8,171,1,48,78,3496677184
6222,3,ISIP_8,172,1,48,81,3497466896
6222,3,ISIP_8,173,1,48,88,3498322196
6222,3,ISIP_8,174,1,48,83,3499071060
6222,3,ISIP_8,175,1,48,67,3499766152
6222,3,ISIP_8,176,1,48,83,3500513744
6222,3,ISIP_8,177,1,48,70,3501227876
6222,3,ISIP_8,178,1,48,72,3501928800
6222,3,ISIP_8,179,1,48,57,3502730548
6222,3,ISIP_8,180,1,48,73,3503402732
6222,3,ISIP_8,181,1,48,63,3504155192
6222,3,ISIP_8,182,1,48,73,3504912132
6222,3,ISIP_8,183,1,48,87,3505666984
6222,3,ISIP_8,0,9999,9999,9999,3385885812
6222,3,ISIP_8,1,9999,9999,9999,3386685544
6222,3,ISIP_8,2,9999,9999,9999,3387485276
6222,3,ISIP_8,3,9999,9999,9999,3388286052
6222,3,ISIP_8,4,9999,9999,9999,3389085792
6222,3,ISIP_8,5,9999,9999,9999,3389885548
6222,3,ISIP_8,6,9999,9999,9999,3390685276
6222,3,ISIP_8,7,9999,9999,9999,3391486056
6222,3,ISIP_8,8,9999,9999,9999,3392285812
6222,3,ISIP_8,9,9999,9999,9999,3393085528
6222,3,ISIP_8,10,9999,9999,9999,3393885260
6222,3,ISIP_8,11,9999,9999,9999,3394686032
6222,3,ISIP_8,12,9999,9999,9999,3395485768
6222,3,ISIP_8,13,9999,9999,9999,3396285524
6222,3,ISIP_8,14,9999,9999,9999,3397085244
6222,3,ISIP_8,15,9999,9999,9999,3397886020
6222,3,ISIP_8,16,9999,9999,9999,3398685772
6222,3,ISIP_8,17,9999,9999,9999,3399485504
6222,3,ISIP_8,18,9999,9999,9999,3400285244
6222,3,ISIP_8,19,9999,9999,9999,3401086016
6222,3,ISIP_8,20,9999,9999,9999,3401885756
6222,3,ISIP_8,21,9999,9999,9999,3402685516
6222,3,ISIP_8,22,9999,9999,9999,3403485244
6222,3,ISIP_8,23,9999,9999,9999,3404286008
6222,3,ISIP_8,24,9999,9999,9999,3405085816
6222,3,ISIP_8,25,9999,9999,9999,3405885488
6222,3,ISIP_8,26,9999,9999,9999,3406685300
6222,3,ISIP_8,27,9999,9999,9999,3407486004
6222,3,ISIP_8,28,9999,9999,9999,3408285812
6222,3,ISIP_8,29,9999,9999,9999,3409085504
6222,3,ISIP_8,30,9999,9999,9999,3409885236
6222,3,ISIP_8,31,9999,9999,9999,3410686012
6222,3,ISIP_8,32,9999,9999,9999,3411485744
6222,3,ISIP_8,33,9999,9999,9999,3412285548
6222,3,ISIP_8,34,9999,9999,9999,3413085276
6222,3,ISIP_8,35,9999,9999,9999,3413886052
6222,3,ISIP_8,36,9999,9999,9999,3414685780
6222,3,ISIP_8,37,9999,9999,9999,3415485536
6222,3,ISIP_8,38,9999,9999,9999,3416285264
6222,3,ISIP_8,39,9999,9999,9999,3417086040
6222,3,ISIP_8,40,9999,9999,9999,3417885768
6222,3,ISIP_8,41,9999,9999,9999,3418685500
6222,3,ISIP_8,42,9999,9999,9999,3419485300
6222,3,ISIP_8,43,9999,9999,9999,3420286004
6222,3,ISIP_8,44,9999,9999,9999,3421085808
6222,3,ISIP_8,45,9999,9999,9999,3421885488
6222,3,ISIP_8,46,9999,9999,9999,3422685292
6222,3,ISIP_8,47,9999,9999,9999,3423486068
6222,3,ISIP_8,48,9999,9999,9999,3424285796
6222,3,ISIP_8,49,9999,9999,9999,3425085528
6222,3,ISIP_8,50,9999,9999,9999,3425885256
6222,3,ISIP_8,51,9999,9999,9999,3426686032
6222,3,ISIP_8,52,9999,9999,9999,3427485760
6222,3,ISIP_8,53,9999,9999,9999,3428285512
6222,3,ISIP_8,54,9999,9999,9999,3429085244
6222,3,ISIP_8,55,9999,9999,9999,3429886016
6222,3,ISIP_8,56,9999,9999,9999,3430685748
6222,3,ISIP_8,57,9999,9999,9999,3431485552
6222,3,ISIP_8,58,9999,9999,9999,3432285260
6222,3,ISIP_8,59,9999,9999,9999,3433086012
6222,3,ISIP_8,60,9999,9999,9999,3433885740
6222,3,ISIP_8,61,9999,9999,9999,3434685496
6222,3,ISIP_8,62,9999,9999,9999,3435485300
6222,3,ISIP_8,63,9999,9999,9999,3436286000
6222,3,ISIP_8,64,9999,9999,9999,3437085804
6222,3,ISIP_8,65,9999,9999,9999,3437885532
6222,3,ISIP_8,66,9999,9999,9999,3438685260
6222,3,ISIP_8,67,9999,9999,9999,3439486036
6222,3,ISIP_8,68,9999,9999,9999,3440285768
6222,3,ISIP_8,69,9999,9999,9999,3441085520
6222,3,ISIP_8,70,9999,9999,9999,3441885248
6222,3,ISIP_8,71,9999,9999,9999,3442686028
6222,3,ISIP_8,72,9999,9999,9999,3443485756
6222,3,ISIP_8,73,9999,9999,9999,3444285560
6222,3,ISIP_8,74,9999,9999,9999,3445085288
6222,3,ISIP_8,75,9999,9999,9999,3445886064
6222,3,ISIP_8,76,9999,9999,9999,3446685796
6222,3,ISIP_8,77,9999,9999,9999,3447485548
6222,3,ISIP_8,78,9999,9999,9999,3448285276
6222,3,ISIP_8,79,9999,9999,9999,3449086052
6222,3,ISIP_8,80,9999,9999,9999,3449885780
6222,3,ISIP_8,81,9999,9999,9999,3450685508
6222,3,ISIP_8,82,9999,9999,9999,3451485240
6222,3,ISIP_8,83,9999,9999,9999,3452286016
6222,3,ISIP_8,84,9999,9999,9999,3453085744
6222,3,ISIP_8,85,9999,9999,9999,3453885496
6222,3,ISIP_8,86,9999,9999,9999,3454685280
6222,3,ISIP_8,87,9999,9999,9999,3455486056
6222,3,ISIP_8,88,9999,9999,9999,3456285788
6222,3,ISIP_8,89,9999,9999,9999,3457085516
6222,3,ISIP_8,90,9999,9999,9999,3457885244
6222,3,ISIP_8,91,9999,9999,9999,3458686020
6222,3,ISIP_8,92,9999,9999,9999,3459485748
6222,3,ISIP_8,93,9999,9999,9999,3460285504
6222,3,ISIP_8,94,9999,9999,9999,3461085232
6222,3,ISIP_8,95,9999,9999,9999,3461886008
6222,3,ISIP_8,96,9999,9999,9999,3462685812
6222,3,ISIP_8,97,9999,9999,9999,3463485540
6222,3,ISIP_8,98,9999,9999,9999,3464285268
6222,3,ISIP_8,99,9999,9999,9999,3465086048
6222,3,ISIP_8,100,9999,9999,9999,3465885772
6222,3,ISIP_8,101,9999,9999,9999,3466685528
6222,3,ISIP_8,102,9999,9999,9999,3467485256
6222,3,ISIP_8,103,9999,9999,9999,3468286032
6222,3,ISIP_8,104,9999,9999,9999,3469085776
6222,3,ISIP_8,105,9999,9999,9999,3469885504
6222,3,ISIP_8,106,9999,9999,9999,3470685236
6222,3,ISIP_8,107,9999,9999,9999,3471486008
6222,3,ISIP_8,108,9999,9999,9999,3472285812
6222,3,ISIP_8,109,9999,9999,9999,3473085552
6222,3,ISIP_8,110,9999,9999,9999,3473885296
6222,3,ISIP_8,111,9999,9999,9999,3474686056
6222,3,ISIP_8,112,9999,9999,9999,3475485784
6222,3,ISIP_8,113,9999,9999,9999,3476285516
6222,3,ISIP_8,114,9999,9999,9999,3477085244
6222,3,ISIP_8,115,9999,9999,9999,3477886020
6222,3,ISIP_8,116,9999,9999,9999,3478685752
6222,3,ISIP_8,117,9999,9999,9999,3479485504
6222,3,ISIP_8,118,9999,9999,9999,3480285232
6222,3,ISIP_8,119,9999,9999,9999,3481086024
6222,3,ISIP_8,120,9999,9999,9999,3481885760
6222,3,ISIP_8,121,9999,9999,9999,3482685492
6222,3,ISIP_8,122,9999,9999,9999,3483485296
6222,3,ISIP_8,123,9999,9999,9999,3484286072
6222,3,ISIP_8,124,9999,9999,9999,3485085800
6222,3,ISIP_8,125,9999,9999,9999,3485885556
6222,3,ISIP_8,126,9999,9999,9999,3486685276
6222,3,ISIP_8,127,9999,9999,9999,3487486060
6222,3,ISIP_8,128,9999,9999,9999,3488285788
6222,3,ISIP_8,129,9999,9999,9999,3489085520
6222,3,ISIP_8,130,9999,9999,9999,3489885240
6222,3,ISIP_8,131,9999,9999,9999,3490686000
6222,3,ISIP_8,132,9999,9999,9999,3491485804
6222,3,ISIP_8,133,9999,9999,9999,3492285560
6222,3,ISIP_8,134,9999,9999,9999,3493085292
6222,3,ISIP_8,135,9999,9999,9999,3493886064
6222,3,ISIP_8,136,9999,9999,9999,3494685796
6222,3,ISIP_8,137,9999,9999,9999,3495485524
6222,3,ISIP_8,138,9999,9999,9999,3496285252
6222,3,ISIP_8,139,9999,9999,9999,3497086028
6222,3,ISIP_8,140,9999,9999,9999,3497885760
6222,3,ISIP_8,141,9999,9999,9999,3498685512
6222,3,ISIP_8,142,9999,9999,9999,3499485240
6222,3,ISIP_8,143,9999,9999,9999,3500286016
6222,3,ISIP_8,144,9999,9999,9999,3501085748
6222,3,ISIP_8,145,9999,9999,9999,3501885548
6222,3,ISIP_8,146,9999,9999,9999,3502685280
6222,3,ISIP_8,147,9999,9999,9999,3503486048
6222,3,ISIP_8,148,9999,9999,9999,3504285760
6222,3,ISIP_8,149,9999,9999,9999,3505085516
6223,11,Pattern_Practice,0,5,42,127,3600718304
6223,11,Pattern_Practice,1,5,42,127,3601218024
6223,11,Pattern_Practice,2,5,42,127,3601717812
6223,11,Pattern_Practice,3,1,48,45,3601747336
6223,11,Pattern_Practice,4,1,38,20,3601831908
6223,11,Pattern_Practice,5,5,42,127,3602218284
6223,11,Pattern_Practice,6,1,48,57,3602230380
6223,11,Pattern_Practice,7,1,38,43,3602279800
6223,11,Pattern_Practice,8,5,42,127,3602718020
6223,11,Pattern_Practice,9,1,48,54,3602789652
6223,11,Pattern_Practice,10,1,38,51,3602792852
6223,11,Pattern_Practice,11,5,42,127,3603218036
6223,11,Pattern_Practice,12,1,48,60,3603324676
6223,11,Pattern_Practice,13,1,38,57,3603349264
6223,11,Pattern_Practice,14,5,42,127,3603717608
6223,11,Pattern_Practice,15,1,48,53,3603731652
6223,11,Pattern_Practice,16,1,48,54,3604166400
6223,11,Pattern_Practice,17,5,42,127,3604218120
6223,11,Pattern_Practice,18,1,38,56,3604697292
6223,11,Pattern_Practice,19,5,42,127,3604717968
6223,11,Pattern_Practice,20,1,48,58,3605193320
6223,11,Pattern_Practice,21,5,42,127,3605217812
6223,11,Pattern_Practice,22,1,38,30,3605677828
6223,11,Pattern_Practice,23,5,42,127,3605718252
6223,11,Pattern_Practice,24,1,48,63,3606169196
6223,11,Pattern_Practice,25,5,42,127,3606218096
6223,11,Pattern_Practice,26,1,38,42,3606680032
6223,11,Pattern_Practice,27,5,42,127,3606717940
6223,11,Pattern_Practice,28,1,48,61,3607187808
6223,11,Pattern_Practice,29,5,42,127,3607217856
6223,11,Pattern_Practice,30,1,48,24,3607264120
6223,11,Pattern_Practice,31,1,38,55,3607685008
6223,11,Pattern_Practice,32,5,42,127,3607718180
6223,11,Pattern_Practice,33,1,38,38,3607721152
6223,11,Pattern_Practice,34,1,48,63,3608197972
6223,11,Pattern_Practice,35,5,42,127,3608217976
6223,11,Pattern_Practice,36,1,48,35,3608254620
6223,11,Pattern_Practice,37,1,38,70,3608664660
6223,11,Pattern_Practice,38,1,38,47,3608696276
6223,11,Pattern_Practice,39,5,42,127,3608718000
6223,11,Pattern_Practice,40,1,48,57,3609126188
6223,11,Pattern_Practice,41,5,42,127,3609218448
6223,11,Pattern_Practice,42,1,38,60,3609648020
6223,11,Pattern_Practice,43,1,38,43,3609685548
6223,11,Pattern_Practice,44,5,42,127,3609718120
6223,11,Pattern_Practice,45,5,42,127,3610217748
6223,11,Pattern_Practice,46,1,48,66,3610256620
6223,11,Pattern_Practice,47,1,38,59,3610685088
6223,11,Pattern_Practice,48,5,42,127,3610717656
6223,11,Pattern_Practice,49,1,38,50,3610974128
6223,11,Pattern_Practice,50,5,42,127,3611218160
6223,11,Pattern_Practice,51,1,48,69,3611250596
6223,11,Pattern_Practice,52,1,48,42,3611319868
6223,11,Pattern_Practice,53,1,38,61,3611529200
6223,11,Pattern_Practice,54,1,38,41,3611559848
6223,11,Pattern_Practice,55,5,42,127,3611718068
6223,11,Pattern_Practice,56,1,38,55,3611794112
6223,11,Pattern_Practice,57,1,48,59,3612107468
6223,11,Pattern_Practice,58,5,42,127,3612217740
6223,11,Pattern_Practice,59,1,38,52,3612617788
6223,11,Pattern_Practice,60,5,42,127,3612718480
6223,11,Pattern_Practice,61,1,48,54,3613141784
6223,11,Pattern_Practice,62,5,42,127,3613218116
6223,11,Pattern_Practice,63,1,38,54,3613624356
6223,11,Pattern_Practice,64,5,42,127,3613717736
6223,11,Pattern_Practice,65,1,48,57,3614101736
6223,11,Pattern_Practice,66,5,42,127,3614217564
6223,11,Pattern_Practice,67,1,38,57,3614573604
6223,11,Pattern_Practice,68,5,42,127,3614718456
6223,11,Pattern_Practice,69,1,48,58,3615034408
6223,11,Pattern_Practice,70,1,48,30,3615104912
6223,11,Pattern_Practice,71,5,42,127,3615217904
6223,11,Pattern_Practice,72,1,48,56,3615343092
6223,11,Pattern_Practice,73,1,38,51,3615558140
6223,11,Pattern_Practice,74,1,38,36,3615596716
6223,11,Pattern_Practice,75,5,42,127,3615717704
6223,11,Pattern_Practice,76,1,48,61,3615829500
6223,11,Pattern_Practice,77,1,48,46,3616089048
6223,11,Pattern_Practice,78,5,42,127,3616217524
6223,11,Pattern_Practice,79,1,48,56,3616325884
6223,11,Pattern_Practice,80,1,38,54,3616594484
6223,11,Pattern_Practice,81,1,38,38,3616626476
6223,11,Pattern_Practice,82,5,42,127,3616718220
6223,11,Pattern_Practice,83,1,48,65,3617120336
6223,11,Pattern_Practice,84,5,42,127,3617218436
6223,11,Pattern_Practice,85,1,38,58,3617699164
6223,11,Pattern_Practice,86,5,42,127,3617717548
6223,11,Pattern_Practice,87,1,38,40,3617736060
6223,11,Pattern_Practice,88,1,48,58,3618131888
6223,11,Pattern_Practice,89,1,48,34,3618199484
6223,11,Pattern_Practice,90,5,42,127,3618218468
6223,11,Pattern_Practice,91,1,38,63,3618675924
6223,11,Pattern_Practice,92,1,38,45,3618715616
6223,11,Pattern_Practice,93,5,42,127,3618718120
6223,11,Pattern_Practice,94,1,48,60,3619175596
6223,11,Pattern_Practice,95,5,42,127,3619217740
6223,11,Pattern_Practice,96,1,48,57,3619501460
6223,11,Pattern_Practice,97,1,48,24,3619573688
6223,11,Pattern_Practice,98,5,42,127,3619717620
6223,11,Pattern_Practice,99,1,38,58,3619718584
6223,11,Pattern_Practice,100,1,38,40,3619752208
6223,11,Pattern_Practice,101,1,48,64,3620032552
6223,11,Pattern_Practice,102,5,42,127,3620218292
6223,11,Pattern_Practice,103,1,48,45,3620323388
6223,11,Pattern_Practice,104,1,48,49,3620583084
6223,11,Pattern_Practice,105,1,48,27,3620635644
6223,11,Pattern_Practice,106,5,42,127,3620717960
6223,11,Pattern_Practice,107,1,38,54,3620827900
6223,11,Pattern_Practice,108,5,42,127,3621217640
6223,11,Pattern_Practice,109,1,48,63,3621388336
6223,11,Pattern_Practice,110,1,48,48,3621430120
6223,11,Pattern_Practice,111,5,42,127,3621718584
6223,11,Pattern_Practice,112,1,38,50,3621845444
6223,11,Pattern_Practice,113,1,48,60,3622217532
6223,11,Pattern_Practice,114,5,42,127,3622219172
6223,11,Pattern_Practice,115,1,48,47,3622254744
6223,11,Pattern_Practice,116,5,42,127,3622717732
6223,11,Pattern_Practice,117,1,38,45,3622746952
6223,11,Pattern_Practice,118,1,38,49,3623004560
6223,11,Pattern_Practice,119,5,42,127,3623217476
6223,11,Pattern_Practice,120,1,48,70,3623484060
6223,11,Pattern_Practice,121,1,48,50,3623523228
6223,11,Pattern_Practice,122,5,42,127,3623718496
6223,11,Pattern_Practice,123,1,38,51,3623968772
6223,11,Pattern_Practice,124,1,48,58,3624198924
6223,11,Pattern_Practice,125,5,42,127,3624217960
6223,11,Pattern_Practice,126,1,48,45,3624230940
6223,11,Pattern_Practice,127,1,48,56,3624671380
6223,11,Pattern_Practice,128,1,48,45,3624701348
6223,11,Pattern_Practice,129,5,42,127,3624717616
6223,11,Pattern_Practice,130,1,38,59,3624960840
6223,11,Pattern_Practice,131,5,42,127,3625218640
6223,11,Pattern_Practice,132,1,48,61,3625465772
6223,11,Pattern_Practice,133,1,48,44,3625502476
6223,11,Pattern_Practice,134,5,42,127,3625718460
6223,11,Pattern_Practice,135,1,38,52,3625955648
6223,11,Pattern_Practice,136,1,38,42,3626200760
6223,11,Pattern_Practice,137,5,42,127,3626217852
6223,11,Pattern_Practice,138,1,48,57,3626327692
6223,11,Pattern_Practice,139,1,48,39,3626365220
6223,11,Pattern_Practice,140,1,48,46,3626710212
6223,11,Pattern_Practice,141,5,42,127,3626717500
6223,11,Pattern_Practice,142,1,38,65,3626972096
6223,11,Pattern_Practice,143,5,42,127,3627218448
6223,11,Pattern_Practice,144,1,48,50,3627452192
6223,11,Pattern_Practice,145,1,48,37,3627491596
6223,11,Pattern_Practice,146,5,42,127,3627717976
6223,11,Pattern_Practice,147,1,38,48,3627947904
6223,11,Pattern_Practice,148,1,48,58,3628206556
6223,11,Pattern_Practice,149,5,42,127,3628217736
6223,11,Pattern_Practice,150,1,48,39,3628252260
6223,11,Pattern_Practice,151,1,48,56,3628582044
6223,11,Pattern_Practice,152,1,48,39,3628623828
6223,11,Pattern_Practice,153,5,42,127,3628717536
6223,11,Pattern_Practice,154,1,48,59,3628840836
6223,11,Pattern_Practice,155,1,48,46,3628869912
6223,11,Pattern_Practice,156,1,38,72,3628980840
6223,11,Pattern_Practice,157,5,42,127,3629218416
6223,11,Pattern_Practice,158,1,48,51,3629416336
6223,11,Pattern_Practice,159,1,48,36,3629457300
6223,11,Pattern_Practice,160,1,48,28,3629700548
6223,11,Pattern_Practice,161,5,42,127,3629717936
6223,11,Pattern_Practice,162,1,38,62,3629930048
6223,11,Pattern_Practice,163,1,48,53,3630122652
6223,11,Pattern_Practice,164,1,48,42,3630155248
6223,11,Pattern_Practice,165,5,42,127,3630217660
6223,11,Pattern_Practice,166,1,48,45,3630572592
6223,11,Pattern_Practice,167,1,48,27,3630638168
6223,11,Pattern_Practice,168,5,42,127,3630718456
6223,11,Pattern_Practice,169,1,38,65,3630811568
6223,11,Pattern_Practice,170,5,42,127,3631218356
6223,11,Pattern_Practice,171,1,48,46,3631347164
6223,11,Pattern_Practice,172,1,48,34,3631387684
6223,11,Pattern_Practice,173,5,42,127,3631717660
6223,11,Pattern_Practice,174,1,38,42,3631794484
6223,11,Pattern_Practice,175,1,48,57,3632066972
6223,11,Pattern_Practice,176,1,48,42,3632101432
6223,11,Pattern_Practice,177,5,42,127,3632217388
6223,11,Pattern_Practice,178,1,38,43,3632495264
6223,11,Pattern_Practice,179,1,48,30,3632566036
6223,11,Pattern_Practice,180,1,38,51,3632701368
6223,11,Pattern_Practice,181,5,42,127,3632718384
6223,11,Pattern_Practice,182,1,48,67,3633133976
6223,11,Pattern_Practice,183,1,48,46,3633182568
6223,11,Pattern_Practice,184,5,42,127,3633217760
6223,11,Pattern_Practice,185,1,38,53,3633633576
6223,11,Pattern_Practice,186,5,42,127,3633717604
6223,11,Pattern_Practice,187,1,48,56,3634010276
6223,11,Pattern_Practice,188,1,48,41,3634044212
6223,11,Pattern_Practice,189,5,42,127,3634218456
6223,11,Pattern_Practice,190,1,48,54,3634358560
6223,11,Pattern_Practice,191,1,48,42,3634494216
6223,11,Pattern_Practice,192,1,38,59,3634555160
6223,11,Pattern_Practice,193,5,42,127,3634718172
6223,11,Pattern_Practice,194,1,48,64,3634781800
6223,11,Pattern_Practice,195,1,48,53,3635058032
6223,11,Pattern_Practice,196,5,42,127,3635217696
6223,11,Pattern_Practice,197,1,48,59,3635236296
6223,11,Pattern_Practice,198,1,48,38,3635280848
6223,11,Pattern_Practice,199,1,38,50,3635606752
6223,11,Pattern_Practice,200,5,42,127,3635717420
6223,11,Pattern_Practice,201,1,48,46,3635882348
6223,11,Pattern_Practice,202,5,42,127,3636218160
6223,11,Pattern_Practice,203,1,38,51,3636327192
6223,11,Pattern_Practice,204,1,48,23,3636505288
6223,11,Pattern_Practice,205,1,38,48,3636560996
6223,11,Pattern_Practice,206,5,42,127,3636718024
6223,11,Pattern_Practice,207,1,48,54,3637045640
6223,11,Pattern_Practice,208,1,48,38,3637086008
6223,11,Pattern_Practice,209,5,42,127,3637217624
6223,11,Pattern_Practice,210,1,38,52,3637555264
6223,11,Pattern_Practice,211,5,42,127,3637718364
6223,11,Pattern_Practice,212,1,48,58,3637828144
6223,11,Pattern_Practice,213,1,48,40,3637867464
6223,11,Pattern_Practice,214,5,42,127,3638218040
6223,11,Pattern_Practice,215,1,48,39,3638283016
6223,11,Pattern_Practice,216,1,38,60,3638534268
6223,11,Pattern_Practice,217,1,38,38,3638569916
6223,11,Pattern_Practice,218,5,42,127,3638717764
6223,11,Pattern_Practice,219,1,48,38,3638893364
6223,11,Pattern_Practice,220,1,48,49,3639162268
6223,11,Pattern_Practice,221,5,42,127,3639217376
6223,11,Pattern_Practice,222,1,38,55,3639492920
6223,11,Pattern_Practice,223,5,42,127,3639718376
6223,11,Pattern_Practice,224,1,48,54,3640027520
6223,11,Pattern_Practice,225,1,48,35,3640081504
6223,11,Pattern_Practice,226,5,42,127,3640218100
6223,11,Pattern_Practice,227,1,38,48,3640483708
6223,11,Pattern_Practice,228,1,48,48,3640567500
6223,11,Pattern_Practice,0,9999,9999,9999,3600715872
6223,11,Pattern_Practice,1,9999,9999,9999,3601215588
6223,11,Pattern_Practice,2,9999,9999,9999,3601715304
6223,11,Pattern_Practice,3,9999,9999,9999,3602215996
6223,11,Pattern_Practice,4,9999,9999,9999,3602715732
6223,11,Pattern_Practice,5,9999,9999,9999,3603215452
6223,11,Pattern_Practice,6,9999,9999,9999,3603715176
6223,11,Pattern_Practice,7,9999,9999,9999,3604215908
6223,11,Pattern_Practice,8,9999,9999,9999,3604715608
6223,11,Pattern_Practice,9,9999,9999,9999,3605215300
6223,11,Pattern_Practice,10,9999,9999,9999,3605716040
6223,11,Pattern_Practice,11,9999,9999,9999,3606215736
6223,11,Pattern_Practice,12,9999,9999,9999,3606715504
6223,11,Pattern_Practice,13,9999,9999,9999,3607215200
6223,11,Pattern_Practice,14,9999,9999,9999,3607715896
6223,11,Pattern_Practice,15,9999,9999,9999,3608215616
6223,11,Pattern_Practice,16,9999,9999,9999,3608715344
6223,11,Pattern_Practice,17,9999,9999,9999,3609216084
6223,11,Pattern_Practice,18,9999,9999,9999,3609715832
6223,11,Pattern_Practice,19,9999,9999,9999,3610215536
6223,11,Pattern_Practice,20,9999,9999,9999,3610715224
6223,11,Pattern_Practice,21,9999,9999,9999,3611215948
6223,11,Pattern_Practice,22,9999,9999,9999,3611715704
6223,11,Pattern_Practice,23,9999,9999,9999,3612215376
6223,11,Pattern_Practice,24,9999,9999,9999,3612715088
6223,11,Pattern_Practice,25,9999,9999,9999,3613215832
6223,11,Pattern_Practice,26,9999,9999,9999,3613715524
6223,11,Pattern_Practice,27,9999,9999,9999,3614215280
6223,11,Pattern_Practice,28,9999,9999,9999,3614716020
6223,11,Pattern_Practice,29,9999,9999,9999,3615215692
6223,11,Pattern_Practice,30,9999,9999,9999,3615715416
6223,11,Pattern_Practice,31,9999,9999,9999,3616215088
6223,11,Pattern_Practice,32,9999,9999,9999,3616715900
6223,11,Pattern_Practice,33,9999,9999,9999,3617215568
6223,11,Pattern_Practice,34,9999,9999,9999,3617715264
6223,11,Pattern_Practice,35,9999,9999,9999,3618216036
6223,11,Pattern_Practice,36,9999,9999,9999,3618715760
6223,11,Pattern_Practice,37,9999,9999,9999,3619215452
6223,11,Pattern_Practice,38,9999,9999,9999,3619715184
6223,11,Pattern_Practice,39,9999,9999,9999,3620215856
6223,11,Pattern_Practice,40,9999,9999,9999,3620715600
6223,11,Pattern_Practice,41,9999,9999,9999,3621215280
6223,11,Pattern_Practice,42,9999,9999,9999,3621716076
6223,11,Pattern_Practice,43,9999,9999,9999,3622215772
6223,11,Pattern_Practice,44,9999,9999,9999,3622715444
6223,11,Pattern_Practice,45,9999,9999,9999,3623215188
6223,11,Pattern_Practice,46,9999,9999,9999,3623715912
6223,11,Pattern_Practice,47,9999,9999,9999,3624215672
6223,11,Pattern_Practice,48,9999,9999,9999,3624715328
6223,11,Pattern_Practice,49,9999,9999,9999,3625216056
6223,11,Pattern_Practice,50,9999,9999,9999,3625715800
6223,11,Pattern_Practice,51,9999,9999,9999,3626215488
6223,11,Pattern_Practice,52,9999,9999,9999,3626715216
6223,11,Pattern_Practice,53,9999,9999,9999,3627215940
6223,11,Pattern_Practice,54,9999,9999,9999,3627715688
6223,11,Pattern_Practice,55,9999,9999,9999,3628215376
6223,11,Pattern_Practice,56,9999,9999,9999,3628715100
6223,11,Pattern_Practice,57,9999,9999,9999,3629215832
6223,11,Pattern_Practice,58,9999,9999,9999,3629715576
6223,11,Pattern_Practice,59,9999,9999,9999,3630215224
6223,11,Pattern_Practice,60,9999,9999,9999,3630716020
6223,11,Pattern_Practice,61,9999,9999,9999,3631215700
6223,11,Pattern_Practice,62,9999,9999,9999,3631715448
6223,11,Pattern_Practice,63,9999,9999,9999,3632215100
6223,11,Pattern_Practice,64,9999,9999,9999,3632715876
6223,11,Pattern_Practice,65,9999,9999,9999,3633215548
6223,11,Pattern_Practice,66,9999,9999,9999,3633715316
6223,11,Pattern_Practice,67,9999,9999,9999,3634216020
6223,11,Pattern_Practice,68,9999,9999,9999,3634715736
6223,11,Pattern_Practice,69,9999,9999,9999,3635215408
6223,11,Pattern_Practice,70,9999,9999,9999,3635715132
6223,11,Pattern_Practice,71,9999,9999,9999,3636215872
6223,11,Pattern_Practice,72,9999,9999,9999,3636715588
6223,11,Pattern_Practice,73,9999,9999,9999,3637215336
6223,11,Pattern_Practice,74,9999,9999,9999,3637716076
6223,11,Pattern_Practice,75,9999,9999,9999,3638215752
6223,11,Pattern_Practice,76,9999,9999,9999,3638715480
6223,11,Pattern_Practice,77,9999,9999,9999,3639215164
6223,11,Pattern_Practice,78,9999,9999,9999,3639715940
6223,11,Pattern_Practice,79,9999,9999,9999,3640215664
6224,13,Improv_Metronome,0,5,42,127,3669877072
6224,13,Improv_Metronome,1,5,42,127,3670376864
6224,13,Improv_Metronome,2,5,42,127,3670876584
6224,13,Improv_Metronome,3,5,42,127,3671377344
6224,13,Improv_Metronome,4,1,48,55,3671841564
6224,13,Improv_Metronome,5,1,38,27,3671867504
6224,13,Improv_Metronome,6,5,42,127,3671876960
6224,13,Improv_Metronome,7,5,42,127,3672376708
6224,13,Improv_Metronome,8,1,48,59,3672390824
6224,13,Improv_Metronome,9,1,48,60,3672846288
6224,13,Improv_Metronome,10,5,42,127,3672877516
6224,13,Improv_Metronome,11,1,38,35,3672956540
6224,13,Improv_Metronome,12,5,42,127,3673377272
6224,13,Improv_Metronome,13,1,38,69,3673388844
6224,13,Improv_Metronome,14,1,38,37,3673448064
6224,13,Improv_Metronome,15,5,42,127,3673876796
6224,13,Improv_Metronome,16,1,38,74,3673883732
6224,13,Improv_Metronome,17,1,48,56,3674350872
6224,13,Improv_Metronome,18,5,42,127,3674376488
6224,13,Improv_Metronome,19,1,48,43,3674399184
6224,13,Improv_Metronome,20,1,38,75,3674680276
6224,13,Improv_Metronome,21,5,42,127,3674877412
6224,13,Improv_Metronome,22,1,48,54,3675106220
6224,13,Improv_Metronome,23,1,48,60,3675364804
6224,13,Improv_Metronome,24,5,42,127,3675376952
6224,13,Improv_Metronome,25,1,48,45,3675405488
6224,13,Improv_Metronome,26,1,38,60,3675651800
6224,13,Improv_Metronome,27,1,38,40,3675689920
6224,13,Improv_Metronome,28,5,42,127,3675876740
6224,13,Improv_Metronome,29,1,48,46,3675897960
6224,13,Improv_Metronome,30,1,48,48,3676147556
6224,13,Improv_Metronome,31,5,42,127,3676376336
6224,13,Improv_Metronome,32,1,48,51,3676385140
6224,13,Improv_Metronome,33,1,48,40,3676417432
6224,13,Improv_Metronome,34,1,38,55,3676614904
6224,13,Improv_Metronome,35,1,48,47,3676871456
6224,13,Improv_Metronome,36,5,42,127,3676877252
6224,13,Improv_Metronome,37,1,48,45,3677146440
6224,13,Improv_Metronome,38,5,42,127,3677376784
6224,13,Improv_Metronome,39,1,38,61,3677423584
6224,13,Improv_Metronome,40,5,42,127,3677876552
6224,13,Improv_Metronome,41,1,48,58,3677877520
6224,13,Improv_Metronome,42,1,48,45,3677921012
6224,13,Improv_Metronome,43,5,42,127,3678377348
6224,13,Improv_Metronome,44,1,38,48,3678383084
6224,13,Improv_Metronome,45,1,48,50,3678649372
6224,13,Improv_Metronome,46,1,48,33,3678692436
6224,13,Improv_Metronome,47,5,42,127,3678877200
6224,13,Improv_Metronome,48,1,48,59,3678957312
6224,13,Improv_Metronome,49,1,48,33,3679015260
6224,13,Improv_Metronome,50,1,48,55,3679188416
6224,13,Improv_Metronome,51,1,48,39,3679231552
6224,13,Improv_Metronome,52,5,42,127,3679376684
6224,13,Improv_Metronome,53,1,38,59,3679389668
6224,13,Improv_Metronome,54,1,38,40,3679422592
6224,13,Improv_Metronome,55,1,48,59,3679872648
6224,13,Improv_Metronome,56,5,42,127,3679876348
6224,13,Improv_Metronome,57,1,48,67,3680377176
6224,13,Improv_Metronome,58,5,42,127,3680378512
6224,13,Improv_Metronome,59,1,38,58,3680395696
6224,13,Improv_Metronome,60,1,38,27,3680451796
6224,13,Improv_Metronome,61,1,48,51,3680699272
6224,13,Improv_Metronome,62,5,42,127,3680876864
6224,13,Improv_Metronome,63,1,48,42,3680990856
6224,13,Improv_Metronome,64,1,48,60,3681248088
6224,13,Improv_Metronome,65,1,48,27,3681331164
6224,13,Improv_Metronome,66,5,42,127,3681376532
6224,13,Improv_Metronome,67,1,48,19,3681391224
6224,13,Improv_Metronome,68,1,38,46,3681505072
6224,13,Improv_Metronome,69,5,42,127,3681877456
6224,13,Improv_Metronome,70,1,48,58,3681951336
6224,13,Improv_Metronome,71,1,48,42,3682006092
6224,13,Improv_Metronome,72,1,38,28,3682357116
6224,13,Improv_Metronome,73,5,42,127,3682377348
6224,13,Improv_Metronome,74,1,48,43,3682411208
6224,13,Improv_Metronome,75,1,38,40,3682571712
6224,13,Improv_Metronome,76,1,48,67,3682827148
6224,13,Improv_Metronome,77,1,48,47,3682871932
6224,13,Improv_Metronome,78,5,42,127,3682876752
6224,13,Improv_Metronome,79,1,38,28,3683324280
6224,13,Improv_Metronome,80,5,42,127,3683376448
6224,13,Improv_Metronome,81,1,48,42,3683508076
6224,13,Improv_Metronome,82,5,42,127,3683877396
6224,13,Improv_Metronome,83,1,48,51,3684246828
6224,13,Improv_Metronome,84,5,42,127,3684376796
6224,13,Improv_Metronome,85,1,48,48,3684773176
6224,13,Improv_Metronome,86,1,48,37,3684805840
6224,13,Improv_Metronome,87,5,42,127,3684876780
6224,13,Improv_Metronome,88,1,48,57,3685284440
6224,13,Improv_Metronome,89,1,48,42,3685313964
6224,13,Improv_Metronome,90,5,42,127,3685377352
6224,13,Improv_Metronome,91,1,38,62,3685781020
6224,13,Improv_Metronome,92,5,42,127,3685877268
6224,13,Improv_Metronome,93,1,48,48,3686154832
6224,13,Improv_Metronome,94,1,38,61,3686315276
6224,13,Improv_Metronome,95,5,42,127,3686376792
6224,13,Improv_Metronome,96,1,48,45,3686633336
6224,13,Improv_Metronome,97,1,48,35,3686790244
6224,13,Improv_Metronome,98,5,42,127,3686876392
6224,13,Improv_Metronome,99,1,48,38,3687001640
6224,13,Improv_Metronome,100,1,38,41,3687266124
6224,13,Improv_Metronome,101,5,42,127,3687377320
6224,13,Improv_Metronome,102,1,48,48,3687573416
6224,13,Improv_Metronome,103,1,48,24,3687634680
6224,13,Improv_Metronome,104,5,42,127,3687877216
6224,13,Improv_Metronome,105,1,38,48,3687882352
6224,13,Improv_Metronome,106,1,48,53,3688113104
6224,13,Improv_Metronome,107,5,42,127,3688376812
6224,13,Improv_Metronome,108,1,38,50,3688429444
6224,13,Improv_Metronome,109,1,48,42,3688679576
6224,13,Improv_Metronome,110,5,42,127,3688877536
6224,13,Improv_Metronome,111,1,38,52,3689118660
6224,13,Improv_Metronome,112,1,48,43,3689305364
6224,13,Improv_Metronome,113,5,42,127,3689377420
6224,13,Improv_Metronome,114,1,48,46,3689546232
6224,13,Improv_Metronome,115,1,48,41,3689724400
6224,13,Improv_Metronome,116,5,42,127,3689876932
6224,13,Improv_Metronome,117,1,38,39,3689935428
6224,13,Improv_Metronome,118,1,48,48,3690257512
6224,13,Improv_Metronome,119,1,48,35,3690304384
6224,13,Improv_Metronome,120,5,42,127,3690376672
6224,13,Improv_Metronome,121,1,38,46,3690604648
6224,13,Improv_Metronome,122,1,38,27,3690654812
6224,13,Improv_Metronome,123,5,42,127,3690877228
6224,13,Improv_Metronome,124,1,48,46,3690886028
6224,13,Improv_Metronome,125,1,48,27,3690957020
6224,13,Improv_Metronome,126,5,42,127,3691377272
6224,13,Improv_Metronome,127,1,38,50,3691387200
6224,13,Improv_Metronome,128,1,48,55,3691406704
6224,13,Improv_Metronome,129,1,38,22,3691464824
6224,13,Improv_Metronome,130,1,48,59,3691817840
6224,13,Improv_Metronome,131,5,42,127,3691877112
6224,13,Improv_Metronome,132,1,38,20,3691964472
6224,13,Improv_Metronome,133,1,48,64,3692280412
6224,13,Improv_Metronome,134,5,42,127,3692376476
6224,13,Improv_Metronome,135,5,42,127,3692877240
6224,13,Improv_Metronome,136,1,38,52,3692879608
6224,13,Improv_Metronome,137,1,48,68,3692903976
6224,13,Improv_Metronome,138,5,42,127,3693377108
6224,13,Improv_Metronome,139,1,38,57,3693381800
6224,13,Improv_Metronome,140,1,38,37,3693447748
6224,13,Improv_Metronome,141,1,38,29,3693851084
6224,13,Improv_Metronome,142,5,42,127,3693876776
6224,13,Improv_Metronome,143,1,48,68,3694373972
6224,13,Improv_Metronome,144,5,42,127,3694377220
6224,13,Improv_Metronome,145,1,48,26,3694482416
6224,13,Improv_Metronome,146,1,48,20,3694569640
6224,13,Improv_Metronome,147,1,38,59,3694822684
6224,13,Improv_Metronome,148,5,42,127,3694877168
6224,13,Improv_Metronome,149,1,48,58,3695348476
6224,13,Improv_Metronome,150,5,42,127,3695376712
6224,13,Improv_Metronome,151,1,48,49,3695587332
6224,13,Improv_Metronome,152,1,38,57,3695869096
6224,13,Improv_Metronome,153,5,42,127,3695876388
6224,13,Improv_Metronome,154,1,48,51,3696103984
6224,13,Improv_Metronome,155,5,42,127,3696377336
6224,13,Improv_Metronome,156,1,48,48,3696411492
6224,13,Improv_Metronome,157,1,48,56,3696668504
6224,13,Improv_Metronome,158,5,42,127,3696877160
6224,13,Improv_Metronome,159,1,38,61,3696906908
6224,13,Improv_Metronome,160,5,42,127,3697376704
6224,13,Improv_Metronome,161,1,48,71,3697420588
6224,13,Improv_Metronome,162,1,48,50,3697463052
6224,13,Improv_Metronome,163,1,38,59,3697876596
6224,13,Improv_Metronome,164,5,42,127,3697879364
6224,13,Improv_Metronome,165,1,48,53,3698115336
6224,13,Improv_Metronome,166,5,42,127,3698376948
6224,13,Improv_Metronome,167,1,48,48,3698626776
6224,13,Improv_Metronome,168,5,42,127,3698876868
6224,13,Improv_Metronome,169,1,38,63,3698893524
6224,13,Improv_Metronome,170,1,38,42,3698922752
6224,13,Improv_Metronome,171,5,42,127,3699376616
6224,13,Improv_Metronome,172,1,48,55,3699383100
6224,13,Improv_Metronome,173,1,48,32,3699442772
6224,13,Improv_Metronome,174,1,48,50,3699650712
6224,13,Improv_Metronome,175,1,48,35,3699688612
6224,13,Improv_Metronome,176,5,42,127,3699877144
6224,13,Improv_Metronome,177,1,38,62,3699880860
6224,13,Improv_Metronome,178,1,48,54,3700069252
6224,13,Improv_Metronome,179,1,48,39,3700111868
6224,13,Improv_Metronome,180,5,42,127,3700376844
6224,13,Improv_Metronome,181,1,38,67,3700592484
6224,13,Improv_Metronome,182,1,38,44,3700623660
6224,13,Improv_Metronome,183,1,48,62,3700850748
6224,13,Improv_Metronome,184,5,42,127,3700876584
6224,13,Improv_Metronome,185,1,48,45,3700885296
6224,13,Improv_Metronome,186,5,42,127,3701377236
6224,13,Improv_Metronome,187,1,38,61,3701390528
6224,13,Improv_Metronome,188,5,42,127,3701877080
6224,13,Improv_Metronome,189,1,48,52,3701914760
6224,13,Improv_Metronome,190,1,48,38,3701954924
6224,13,Improv_Metronome,191,5,42,127,3702376900
6224,13,Improv_Metronome,192,1,38,47,3702398120
6224,13,Improv_Metronome,193,1,48,54,3702652580
6224,13,Improv_Metronome,194,1,48,40,3702684804
6224,13,Improv_Metronome,195,5,42,127,3702876404
6224,13,Improv_Metronome,196,1,48,36,3703064968
6224,13,Improv_Metronome,197,1,38,63,3703372016
6224,13,Improv_Metronome,198,5,42,127,3703377360
6224,13,Improv_Metronome,199,1,38,40,3703407240
6224,13,Improv_Metronome,200,5,42,127,3703876964
6224,13,Improv_Metronome,201,1,48,54,3703897364
6224,13,Improv_Metronome,202,1,48,38,3703938628
6224,13,Improv_Metronome,203,1,38,54,3704135272
6224,13,Improv_Metronome,204,1,48,57,3704376312
6224,13,Improv_Metronome,205,5,42,127,3704377728
6224,13,Improv_Metronome,206,1,48,28,3704438200
6224,13,Improv_Metronome,207,1,48,43,3704624004
6224,13,Improv_Metronome,208,5,42,127,3704877388
6224,13,Improv_Metronome,209,1,38,50,3704961512
6224,13,Improv_Metronome,210,1,48,59,3705218744
6224,13,Improv_Metronome,211,1,48,43,3705254956
6224,13,Improv_Metronome,212,5,42,127,3705377040
6224,13,Improv_Metronome,213,1,48,54,3705815608
6224,13,Improv_Metronome,214,1,48,42,3705845952
6224,13,Improv_Metronome,215,5,42,127,3705876876
6224,13,Improv_Metronome,216,1,38,48,3706291420
6224,13,Improv_Metronome,217,5,42,127,3706376572
6224,13,Improv_Metronome,218,1,48,52,3706541264
6224,13,Improv_Metronome,219,1,48,38,3706577072
6224,13,Improv_Metronome,220,5,42,127,3706877352
6224,13,Improv_Metronome,221,1,48,52,3707037320
6224,13,Improv_Metronome,222,1,48,38,3707068964
6224,13,Improv_Metronome,223,1,38,57,3707286304
6224,13,Improv_Metronome,224,1,38,40,3707319216
6224,13,Improv_Metronome,225,5,42,127,3707376996
6224,13,Improv_Metronome,226,1,48,52,3707818388
6224,13,Improv_Metronome,227,5,42,127,3707876840
6224,13,Improv_Metronome,228,1,38,52,3708302052
6224,13,Improv_Metronome,229,5,42,127,3708376312
6224,13,Improv_Metronome,230,1,48,52,3708561168
6224,13,Improv_Metronome,231,1,48,35,3708596176
6224,13,Improv_Metronome,232,5,42,127,3708877088
6224,13,Improv_Metronome,233,1,48,53,3708967124
6224,13,Improv_Metronome,234,1,38,54,3709262500
6224,13,Improv_Metronome,235,1,38,35,3709298980
6224,13,Improv_Metronome,236,5,42,127,3709376828
6224,13,Improv_Metronome,237,1,48,61,3709801140
6224,13,Improv_Metronome,238,1,48,25,3709876128
6224,13,Improv_Metronome,239,5,42,127,3709877324
6224,13,Improv_Metronome,240,1,38,51,3710275908
6224,13,Improv_Metronome,241,5,42,127,3710377300
6224,13,Improv_Metronome,242,1,48,62,3710530536
6224,13,Improv_Metronome,243,1,48,41,3710569488
6224,13,Improv_Metronome,244,5,42,127,3710877024
6224,13,Improv_Metronome,245,1,48,42,3710920260
6224,13,Improv_Metronome,246,1,48,55,3711044856
6224,13,Improv_Metronome,247,1,38,56,3711189364
6224,13,Improv_Metronome,248,5,42,127,3711376680
6224,13,Improv_Metronome,249,1,48,60,3711775376
6224,13,Improv_Metronome,250,5,42,127,3711876672
6224,13,Improv_Metronome,251,1,48,49,3712010184
6224,13,Improv_Metronome,252,1,48,53,3712177588
6224,13,Improv_Metronome,253,1,38,43,3712233820
6224,13,Improv_Metronome,254,5,42,127,3712377120
6224,13,Improv_Metronome,255,1,48,54,3712563968
6224,13,Improv_Metronome,256,1,48,34,3712619820
6224,13,Improv_Metronome,257,5,42,127,3712876868
6224,13,Improv_Metronome,258,1,38,59,3713080092
6224,13,Improv_Metronome,259,1,38,36,3713121136
6224,13,Improv_Metronome,260,1,48,69,3713362140
6224,13,Improv_Metronome,261,5,42,127,3713376684
6224,13,Improv_Metronome,262,1,48,51,3713400800
6224,13,Improv_Metronome,263,1,38,47,3713869588
6224,13,Improv_Metronome,264,5,42,127,3713877328
6224,13,Improv_Metronome,265,5,42,127,3714377176
6224,13,Improv_Metronome,266,1,48,62,3714404904
6224,13,Improv_Metronome,267,1,48,47,3714439588
6224,13,Improv_Metronome,268,1,38,54,3714858260
6224,13,Improv_Metronome,269,5,42,127,3714876768
6224,13,Improv_Metronome,270,1,38,37,3714899996
6224,13,Improv_Metronome,271,1,48,56,3715094392
6224,13,Improv_Metronome,272,1,48,31,3715151440
6224,13,Improv_Metronome,273,5,42,127,3715376628
6224,13,Improv_Metronome,274,1,48,58,3715592496
6224,13,Improv_Metronome,275,1,48,41,3715624192
6224,13,Improv_Metronome,276,1,38,55,3715863920
6224,13,Improv_Metronome,277,5,42,127,3715877192
6224,13,Improv_Metronome,278,1,48,67,3716340724
6224,13,Improv_Metronome,279,5,42,127,3716376888
6224,13,Improv_Metronome,280,1,48,35,3716425468
6224,13,Improv_Metronome,281,1,38,59,3716843840
6224,13,Improv_Metronome,282,5,42,127,3716876636
6224,13,Improv_Metronome,283,1,38,33,3716909360
6224,13,Improv_Metronome,284,1,48,61,3717122612
6224,13,Improv_Metronome,285,5,42,127,3717377640
6224,13,Improv_Metronome,286,1,48,62,3717601588
6224,13,Improv_Metronome,287,1,48,32,3717673740
6224,13,Improv_Metronome,288,1,38,61,3717856480
6224,13,Improv_Metronome,289,5,42,127,3717877008
6224,13,Improv_Metronome,290,1,38,45,3717891704
6224,13,Improv_Metronome,291,1,48,73,3718338576
6224,13,Improv_Metronome,292,1,48,46,3718377408
6224,13,Improv_Metronome,293,5,42,127,3718378604
6224,13,Improv_Metronome,294,1,38,59,3718789160
6224,13,Improv_Metronome,295,5,42,127,3718876504
6224,13,Improv_Metronome,296,1,48,74,3719124444
6224,13,Improv_Metronome,297,1,48,33,3719187100
6224,13,Improv_Metronome,298,5,42,127,3719377208
6224,13,Improv_Metronome,299,1,48,65,3719607364
6224,13,Improv_Metronome,300,1,48,46,3719642720
6224,13,Improv_Metronome,301,1,38,57,3719874072
6224,13,Improv_Metronome,302,5,42,127,3719876876
6224,13,Improv_Metronome,303,5,42,127,3720376652
6224,13,Improv_Metronome,304,1,48,65,3720398320
6224,13,Improv_Metronome,305,1,48,36,3720466888
6224,13,Improv_Metronome,306,1,48,46,3720699136
6224,13,Improv_Metronome,307,1,48,43,3720827392
6224,13,Improv_Metronome,308,5,42,127,3720877640
6224,13,Improv_Metronome,309,1,48,49,3721075968
6224,13,Improv_Metronome,310,5,42,127,3721377592
6224,13,Improv_Metronome,311,1,38,51,3721737452
6224,13,Improv_Metronome,312,5,42,127,3721876892
6224,13,Improv_Metronome,313,1,38,45,3721983480
6224,13,Improv_Metronome,314,5,42,127,3722376440
6224,13,Improv_Metronome,315,1,48,64,3722452508
6224,13,Improv_Metronome,316,1,48,44,3722495792
6224,13,Improv_Metronome,317,1,38,54,3722877084
6224,13,Improv_Metronome,318,5,42,127,3722879692
6224,13,Improv_Metronome,319,1,48,52,3723149924
6224,13,Improv_Metronome,320,1,48,39,3723185384
6224,13,Improv_Metronome,321,5,42,127,3723376884
6224,13,Improv_Metronome,322,1,48,55,3723646608
6224,13,Improv_Metronome,323,1,48,43,3723673364
6224,13,Improv_Metronome,324,5,42,127,3723876708
6224,13,Improv_Metronome,325,1,38,56,3723924328
6224,13,Improv_Metronome,326,1,48,54,3724350556
6224,13,Improv_Metronome,327,5,42,127,3724376616
6224,13,Improv_Metronome,328,1,38,54,3724844568
6224,13,Improv_Metronome,329,5,42,127,3724877284
6224,13,Improv_Metronome,330,1,48,50,3725089548
6224,13,Improv_Metronome,331,1,48,38,3725125060
6224,13,Improv_Metronome,332,5,42,127,3725376868
6224,13,Improv_Metronome,333,1,48,51,3725604332
6224,13,Improv_Metronome,334,1,48,40,3725636396
6224,13,Improv_Metronome,335,5,42,127,3725876540
6224,13,Improv_Metronome,336,1,38,58,3725887816
6224,13,Improv_Metronome,337,1,48,58,3726344180
6224,13,Improv_Metronome,338,5,42,127,3726377500
6224,13,Improv_Metronome,339,1,48,45,3726384720
6224,13,Improv_Metronome,340,1,38,50,3726817004
6224,13,Improv_Metronome,341,5,42,127,3726876952
6224,13,Improv_Metronome,342,1,48,60,3727086444
6224,13,Improv_Metronome,343,1,48,41,3727132800
6224,13,Improv_Metronome,344,5,42,127,3727376680
6224,13,Improv_Metronome,345,1,48,54,3727554856
6224,13,Improv_Metronome,346,1,38,58,3727845596
6224,13,Improv_Metronome,347,5,42,127,3727876596
6224,13,Improv_Metronome,348,1,48,67,3728362944
6224,13,Improv_Metronome,349,5,42,127,3728377336
6224,13,Improv_Metronome,350,1,48,44,3728657216
6224,13,Improv_Metronome,351,1,48,42,3728779640
6224,13,Improv_Metronome,352,5,42,127,3728876844
6224,13,Improv_Metronome,353,1,48,33,3728890580
6224,13,Improv_Metronome,354,1,48,72,3729179528
6224,13,Improv_Metronome,355,1,48,45,3729222292
6224,13,Improv_Metronome,356,5,42,127,3729376720
6224,13,Improv_Metronome,357,1,38,53,3729613380
6224,13,Improv_Metronome,358,5,42,127,3729877388
6224,13,Improv_Metronome,359,1,48,67,3729908328
6224,13,Improv_Metronome,360,1,48,46,3729942488
6224,13,Improv_Metronome,361,5,42,127,3730377284
6224,13,Improv_Metronome,362,1,38,59,3730450564
6224,13,Improv_Metronome,363,1,38,41,3730483152
6224,13,Improv_Metronome,364,5,42,127,3730876808
6224,13,Improv_Metronome,365,1,48,52,3730887404
6224,13,Improv_Metronome,366,1,48,54,3731347040
6224,13,Improv_Metronome,367,5,42,127,3731376420
6224,13,Improv_Metronome,368,1,38,56,3731601972
6224,13,Improv_Metronome,369,1,48,55,3731859580
6224,13,Improv_Metronome,370,5,42,127,3731877440
6224,13,Improv_Metronome,371,1,48,42,3731890040
6224,13,Improv_Metronome,372,5,42,127,3732376948
6224,13,Improv_Metronome,373,1,48,62,3732517416
6224,13,Improv_Metronome,374,1,38,56,3732780336
6224,13,Improv_Metronome,375,1,38,39,3732818684
6224,13,Improv_Metronome,376,5,42,127,3732876760
6224,13,Improv_Metronome,377,1,48,62,3733274100
6224,13,Improv_Metronome,378,1,48,45,3733306764
6224,13,Improv_Metronome,379,5,42,127,3733377332
6224,13,Improv_Metronome,380,1,38,53,3733744448
6224,13,Improv_Metronome,381,1,38,33,3733785564
6224,13,Improv_Metronome,382,5,42,127,3733877212
6224,13,Improv_Metronome,383,1,48,61,3733995172
6224,13,Improv_Metronome,384,1,48,35,3734048256
6224,13,Improv_Metronome,385,5,42,127,3734376888
6224,13,Improv_Metronome,386,1,48,58,3734398032
6224,13,Improv_Metronome,387,1,48,41,3734434288
6224,13,Improv_Metronome,388,1,38,62,3734738568
6224,13,Improv_Metronome,389,1,38,33,3734785520
6224,13,Improv_Metronome,390,5,42,127,3734876508
6224,13,Improv_Metronome,391,1,48,64,3735221636
6224,13,Improv_Metronome,392,5,42,127,3735377160
6224,13,Improv_Metronome,393,1,48,39,3735549420
6224,13,Improv_Metronome,394,1,48,43,3735702736
6224,13,Improv_Metronome,395,1,48,39,3735740284
6224,13,Improv_Metronome,396,5,42,127,3735877184
6224,13,Improv_Metronome,397,1,48,61,3736055956
6224,13,Improv_Metronome,398,5,42,127,3736376656
6224,13,Improv_Metronome,399,1,48,48,3736552732
6224,13,Improv_Metronome,400,1,38,61,3736824772
6224,13,Improv_Metronome,401,5,42,127,3736877464
6224,13,Improv_Metronome,402,1,48,61,3737291480
6224,13,Improv_Metronome,403,1,48,29,3737365212
6224,13,Improv_Metronome,404,5,42,127,3737377212
6224,13,Improv_Metronome,405,1,48,55,3737685292
6224,13,Improv_Metronome,406,1,48,66,3737852020
6224,13,Improv_Metronome,407,5,42,127,3737876812
6224,13,Improv_Metronome,408,1,48,53,3738210992
6224,13,Improv_Metronome,409,1,48,26,3738275024
6224,13,Improv_Metronome,410,5,42,127,3738376544
6224,13,Improv_Metronome,411,1,48,63,3738715076
6224,13,Improv_Metronome,412,5,42,127,3738877284
6224,13,Improv_Metronome,413,1,38,62,3738994320
6224,13,Improv_Metronome,414,1,38,32,3739042020
6224,13,Improv_Metronome,415,5,42,127,3739377080
6224,13,Improv_Metronome,416,1,48,77,3739447068
6224,13,Improv_Metronome,417,1,48,51,3739483624
6224,13,Improv_Metronome,0,9999,9999,9999,3669874784
6224,13,Improv_Metronome,1,9999,9999,9999,3670374504
6224,13,Improv_Metronome,2,9999,9999,9999,3670874220
6224,13,Improv_Metronome,3,9999,9999,9999,3671374908
6224,13,Improv_Metronome,4,9999,9999,9999,3671874672
6224,13,Improv_Metronome,5,9999,9999,9999,3672374348
6224,13,Improv_Metronome,6,9999,9999,9999,3672875080
6224,13,Improv_Metronome,7,9999,9999,9999,3673374836
6224,13,Improv_Metronome,8,9999,9999,9999,3673874512
6224,13,Improv_Metronome,9,9999,9999,9999,3674374200
6224,13,Improv_Metronome,10,9999,9999,9999,3674874980
6224,13,Improv_Metronome,11,9999,9999,9999,3675374668
6224,13,Improv_Metronome,12,9999,9999,9999,3675874376
6224,13,Improv_Metronome,13,9999,9999,9999,3676374124
6224,13,Improv_Metronome,14,9999,9999,9999,3676874816
6224,13,Improv_Metronome,15,9999,9999,9999,3677374572
6224,13,Improv_Metronome,16,9999,9999,9999,3677874268
6224,13,Improv_Metronome,17,9999,9999,9999,3678374988
6224,13,Improv_Metronome,18,9999,9999,9999,3678874692
6224,13,Improv_Metronome,19,9999,9999,9999,3679374396
6224,13,Improv_Metronome,20,9999,9999,9999,3679874136
6224,13,Improv_Metronome,21,9999,9999,9999,3680374888
6224,13,Improv_Metronome,22,9999,9999,9999,3680874576
6224,13,Improv_Metronome,23,9999,9999,9999,3681374320
6224,13,Improv_Metronome,24,9999,9999,9999,3681875024
6224,13,Improv_Metronome,25,9999,9999,9999,3682374764
6224,13,Improv_Metronome,26,9999,9999,9999,3682874468
6224,13,Improv_Metronome,27,9999,9999,9999,3683374160
6224,13,Improv_Metronome,28,9999,9999,9999,3683874888
6224,13,Improv_Metronome,29,9999,9999,9999,3684374584
6224,13,Improv_Metronome,30,9999,9999,9999,3684874344
6224,13,Improv_Metronome,31,9999,9999,9999,3685375064
6224,13,Improv_Metronome,32,9999,9999,9999,3685874760
6224,13,Improv_Metronome,33,9999,9999,9999,3686374508
6224,13,Improv_Metronome,34,9999,9999,9999,3686874180
6224,13,Improv_Metronome,35,9999,9999,9999,3687374960
6224,13,Improv_Metronome,36,9999,9999,9999,3687874632
6224,13,Improv_Metronome,37,9999,9999,9999,3688374380
6224,13,Improv_Metronome,38,9999,9999,9999,3688875100
6224,13,Improv_Metronome,39,9999,9999,9999,3689374840
6224,13,Improv_Metronome,40,9999,9999,9999,3689874496
6224,13,Improv_Metronome,41,9999,9999,9999,3690374236
6224,13,Improv_Metronome,42,9999,9999,9999,3690874940
6224,13,Improv_Metronome,43,9999,9999,9999,3691374688
6224,13,Improv_Metronome,44,9999,9999,9999,3691874380
6224,13,Improv_Metronome,45,9999,9999,9999,3692374116
6224,13,Improv_Metronome,46,9999,9999,9999,3692874804
6224,13,Improv_Metronome,47,9999,9999,9999,3693374524
6224,13,Improv_Metronome,48,9999,9999,9999,3693874264
6224,13,Improv_Metronome,49,9999,9999,9999,3694375008
6224,13,Improv_Metronome,50,9999,9999,9999,3694874732
6224,13,Improv_Metronome,51,9999,9999,9999,3695374428
6224,13,Improv_Metronome,52,9999,9999,9999,3695874100
6224,13,Improv_Metronome,53,9999,9999,9999,3696374900
6224,13,Improv_Metronome,54,9999,9999,9999,3696874576
6224,13,Improv_Metronome,55,9999,9999,9999,3697374272
6224,13,Improv_Metronome,56,9999,9999,9999,3697875064
6224,13,Improv_Metronome,57,9999,9999,9999,3698374736
6224,13,Improv_Metronome,58,9999,9999,9999,3698874432
6224,13,Improv_Metronome,59,9999,9999,9999,3699374180
6224,13,Improv_Metronome,60,9999,9999,9999,3699874932
6224,13,Improv_Metronome,61,9999,9999,9999,3700374632
6224,13,Improv_Metronome,62,9999,9999,9999,3700874300
6224,13,Improv_Metronome,63,9999,9999,9999,3701375024
6224,13,Improv_Metronome,64,9999,9999,9999,3701874792
6224,13,Improv_Metronome,65,9999,9999,9999,3702374464
6224,13,Improv_Metronome,66,9999,9999,9999,3702874188
6224,13,Improv_Metronome,67,9999,9999,9999,3703374924
6224,13,Improv_Metronome,68,9999,9999,9999,3703874676
6224,13,Improv_Metronome,69,9999,9999,9999,3704374328
6224,13,Improv_Metronome,70,9999,9999,9999,3704875100
6224,13,Improv_Metronome,71,9999,9999,9999,3705374828
6224,13,Improv_Metronome,72,9999,9999,9999,3705874516
6224,13,Improv_Metronome,73,9999,9999,9999,3706374212
6224,13,Improv_Metronome,74,9999,9999,9999,3706874992
6224,13,Improv_Metronome,75,9999,9999,9999,3707374708
6224,13,Improv_Metronome,76,9999,9999,9999,3707874404
6224,13,Improv_Metronome,77,9999,9999,9999,3708374100
6224,13,Improv_Metronome,78,9999,9999,9999,3708874804
6224,13,Improv_Metronome,79,9999,9999,9999,3709374544
6224,13,Improv_Metronome,80,9999,9999,9999,3709874236
6224,13,Improv_Metronome,81,9999,9999,9999,3710375016
6224,13,Improv_Metronome,82,9999,9999,9999,3710874736
6224,13,Improv_Metronome,83,9999,9999,9999,3711374392
6224,13,Improv_Metronome,84,9999,9999,9999,3711874164
6224,13,Improv_Metronome,85,9999,9999,9999,3712374836
6224,13,Improv_Metronome,86,9999,9999,9999,3712874580
6224,13,Improv_Metronome,87,9999,9999,9999,3713374324
6224,13,Improv_Metronome,88,9999,9999,9999,3713875040
6224,13,Improv_Metronome,89,9999,9999,9999,3714374744
6224,13,Improv_Metronome,90,9999,9999,9999,3714874484
6224,13,Improv_Metronome,91,9999,9999,9999,3715374192
6224,13,Improv_Metronome,92,9999,9999,9999,3715874904
6224,13,Improv_Metronome,93,9999,9999,9999,3716374604
6224,13,Improv_Metronome,94,9999,9999,9999,3716874348
6224,13,Improv_Metronome,95,9999,9999,9999,3717375056
6224,13,Improv_Metronome,96,9999,9999,9999,3717874796
6224,13,Improv_Metronome,97,9999,9999,9999,3718374468
6224,13,Improv_Metronome,98,9999,9999,9999,3718874220
6224,13,Improv_Metronome,99,9999,9999,9999,3719374920
6224,13,Improv_Metronome,100,9999,9999,9999,3719874664
6224,13,Improv_Metronome,101,9999,9999,9999,3720374364
6224,13,Improv_Metronome,102,9999,9999,9999,3720875056
6224,13,Improv_Metronome,103,9999,9999,9999,3721374784
6224,13,Improv_Metronome,104,9999,9999,9999,3721874528
6224,13,Improv_Metronome,105,9999,9999,9999,3722374224
6224,13,Improv_Metronome,106,9999,9999,9999,3722874948
6224,13,Improv_Metronome,107,9999,9999,9999,3723374672
6224,13,Improv_Metronome,108,9999,9999,9999,3723874420
6224,13,Improv_Metronome,109,9999,9999,9999,3724374108
6224,13,Improv_Metronome,110,9999,9999,9999,3724874852
6224,13,Improv_Metronome,111,9999,9999,9999,3725374584
6224,13,Improv_Metronome,112,9999,9999,9999,3725874256
6224,13,Improv_Metronome,113,9999,9999,9999,3726374992
6224,13,Improv_Metronome,114,9999,9999,9999,3726874740
6224,13,Improv_Metronome,115,9999,9999,9999,3727374396
6224,13,Improv_Metronome,116,9999,9999,9999,3727874160
6224,13,Improv_Metronome,117,9999,9999,9999,3728374904
6224,13,Improv_Metronome,118,9999,9999,9999,3728874560
6224,13,Improv_Metronome,119,9999,9999,9999,3729374284
6224,13,Improv_Metronome,120,9999,9999,9999,3729875024
6224,13,Improv_Metronome,121,9999,9999,9999,3730374772
6224,13,Improv_Metronome,122,9999,9999,9999,3730874448
6224,13,Improv_Metronome,123,9999,9999,9999,3731374136
6224,13,Improv_Metronome,124,9999,9999,9999,3731874928
6224,13,Improv_Metronome,125,9999,9999,9999,3732374584
6224,13,Improv_Metronome,126,9999,9999,9999,3732874324
6224,13,Improv_Metronome,127,9999,9999,9999,3733375048
6224,13,Improv_Metronome,128,9999,9999,9999,3733874748
6224,13,Improv_Metronome,129,9999,9999,9999,3734374452
6224,13,Improv_Metronome,130,9999,9999,9999,3734874220
6224,13,Improv_Metronome,131,9999,9999,9999,3735374944
6224,13,Improv_Metronome,132,9999,9999,9999,3735874672
6224,13,Improv_Metronome,133,9999,9999,9999,3736374368
6224,13,Improv_Metronome,134,9999,9999,9999,3736875104
6224,13,Improv_Metronome,135,9999,9999,9999,3737374776
6224,13,Improv_Metronome,136,9999,9999,9999,3737874524
6224,13,Improv_Metronome,137,9999,9999,9999,3738374256
6224,13,Improv_Metronome,138,9999,9999,9999,3738874996
6224,13,Improv_Metronome,139,9999,9999,9999,3739374644
6225,14,Improv_Melody,0,2,48,80,3793171936
6225,14,Improv_Melody,1,2,72,80,3793174100
6225,14,Improv_Melody,2,5,42,127,3793176784
6225,14,Improv_Melody,3,5,42,110,3793669548
6225,14,Improv_Melody,4,5,42,110,3794170168
6225,14,Improv_Melody,5,5,42,110,3794670112
6225,14,Improv_Melody,6,5,42,127,3795170056
6225,14,Improv_Melody,7,5,42,110,3795670380
6225,14,Improv_Melody,8,5,42,110,3796170028
6225,14,Improv_Melody,9,5,42,110,3796669972
6225,14,Improv_Melody,10,2,43,80,3797172052
6225,14,Improv_Melody,11,2,67,80,3797174128
6225,14,Improv_Melody,12,5,42,127,3797176888
6225,14,Improv_Melody,13,1,38,13,3797244856
6225,14,Improv_Melody,14,1,48,33,3797248208
6225,14,Improv_Melody,15,5,42,110,3797670332
6225,14,Improv_Melody,16,1,38,21,3797692076
6225,14,Improv_Melody,17,1,48,35,3797698040
6225,14,Improv_Melody,18,1,48,44,3798148072
6225,14,Improv_Melody,19,5,42,110,3798170028
6225,14,Improv_Melody,20,1,38,56,3798645832
6225,14,Improv_Melody,21,5,42,110,3798670024
6225,14,Improv_Melody,22,1,38,35,3798723948
6225,14,Improv_Melody,23,5,42,127,3799170388
6225,14,Improv_Melody,24,1,48,36,3799204572
6225,14,Improv_Melody,25,5,42,110,3799670088
6225,14,Improv_Melody,26,5,42,110,3800170032
6225,14,Improv_Melody,27,5,42,110,3800669532
6225,14,Improv_Melody,28,2,45,80,3801172576
6225,14,Improv_Melody,29,2,69,80,3801174808
6225,14,Improv_Melody,30,5,42,127,3801177196
6225,14,Improv_Melody,31,1,48,19,3801664904
6225,14,Improv_Melody,32,5,42,110,3801670176
6225,14,Improv_Melody,33,1,48,32,3802149864
6225,14,Improv_Melody,34,5,42,110,3802169876
6225,14,Improv_Melody,35,1,48,43,3802622120
6225,14,Improv_Melody,36,5,42,110,3802669352
6225,14,Improv_Melody,37,1,38,46,3803076564
6225,14,Improv_Melody,38,5,42,127,3803170236
6225,14,Improv_Melody,39,1,48,30,3803561976
6225,14,Improv_Melody,40,5,42,110,3803669936
6225,14,Improv_Melody,41,1,48,34,3804086440
6225,14,Improv_Melody,42,5,42,110,3804170020
6225,14,Improv_Melody,43,1,48,41,3804625032
6225,14,Improv_Melody,44,5,42,110,3804670248
6225,14,Improv_Melody,45,1,38,55,3805170884
6225,14,Improv_Melody,46,2,41,80,3805175532
6225,14,Improv_Melody,47,2,65,80,3805177460
6225,14,Improv_Melody,48,5,42,127,3805179996
6225,14,Improv_Melody,49,1,48,32,3805585984
6225,14,Improv_Melody,50,5,42,110,3805669896
6225,14,Improv_Melody,51,1,48,43,3806095856
6225,14,Improv_Melody,52,5,42,110,3806169668
6225,14,Improv_Melody,53,1,48,38,3806624304
6225,14,Improv_Melody,54,5,42,110,3806670044
6225,14,Improv_Melody,55,5,42,127,3807170048
6225,14,Improv_Melody,56,1,38,51,3807212436
6225,14,Improv_Melody,57,5,42,110,3807669896
6225,14,Improv_Melody,58,1,48,32,3807679300
6225,14,Improv_Melody,59,1,48,37,3808153076
6225,14,Improv_Melody,60,5,42,110,3808170416
6225,14,Improv_Melody,61,5,42,110,3808670124
6225,14,Improv_Melody,62,1,48,40,3808672796
6225,14,Improv_Melody,63,2,48,80,3809172152
6225,14,Improv_Melody,64,2,72,80,3809174456
6225,14,Improv_Melody,65,5,42,127,3809177068
6225,14,Improv_Melody,66,1,38,53,3809219780
6225,14,Improv_Melody,67,1,48,39,3809554880
6225,14,Improv_Melody,68,5,42,110,3809669416
6225,14,Improv_Melody,69,1,48,34,3810000200
6225,14,Improv_Melody,70,5,42,110,3810170236
6225,14,Improv_Melody,71,1,48,38,3810591824
6225,14,Improv_Melody,72,5,42,110,3810669876
6225,14,Improv_Melody,73,1,48,43,3811162956
6225,14,Improv_Melody,74,5,42,127,3811169652
6225,14,Improv_Melody,75,1,48,35,3811648144
6225,14,Improv_Melody,76,5,42,110,3811670476
6225,14,Improv_Melody,77,1,48,42,3812147920
6225,14,Improv_Melody,78,5,42,110,3812170024
6225,14,Improv_Melody,79,1,48,43,3812662432
6225,14,Improv_Melody,80,5,42,110,3812669724
6225,14,Improv_Melody,81,1,48,31,3812721748
6225,14,Improv_Melody,82,2,43,80,3813172140
6225,14,Improv_Melody,83,2,67,80,3813174296
6225,14,Improv_Melody,84,5,42,127,3813176828
6225,14,Improv_Melody,85,1,38,46,3813179348
6225,14,Improv_Melody,86,1,38,33,3813217552
6225,14,Improv_Melody,87,1,48,44,3813654396
6225,14,Improv_Melody,88,5,42,110,3813670292
6225,14,Improv_Melody,89,5,42,110,3814170000
6225,14,Improv_Melody,90,1,48,29,3814171040
6225,14,Improv_Melody,91,1,48,40,3814609068
6225,14,Improv_Melody,92,5,42,110,3814669692
6225,14,Improv_Melody,93,1,48,41,3815133076
6225,14,Improv_Melody,94,5,42,127,3815170588
6225,14,Improv_Melody,95,1,48,39,3815609740
6225,14,Improv_Melody,96,5,42,110,3815670064
6225,14,Improv_Melody,97,1,48,34,3816130080
6225,14,Improv_Melody,98,5,42,110,3816169912
6225,14,Improv_Melody,99,1,48,47,3816649524
6225,14,Improv_Melody,100,5,42,110,3816669688
6225,14,Improv_Melody,101,1,38,47,3817111428
6225,14,Improv_Melody,102,2,45,80,3817172864
6225,14,Improv_Melody,103,2,69,80,3817174868
6225,14,Improv_Melody,104,5,42,127,3817177552
6225,14,Improv_Melody,105,1,48,46,3817654556
6225,14,Improv_Melody,106,5,42,110,3817670072
6225,14,Improv_Melody,107,1,48,48,3818120568
6225,14,Improv_Melody,108,5,42,110,3818169624
6225,14,Improv_Melody,109,1,38,41,3818623408
6225,14,Improv_Melody,110,5,42,110,3818669548
6225,14,Improv_Melody,111,1,48,44,3819095588
6225,14,Improv_Melody,112,5,42,127,3819170224
6225,14,Improv_Melody,113,1,48,47,3819647716
6225,14,Improv_Melody,114,5,42,110,3819669896
6225,14,Improv_Melody,115,1,48,51,3820125280
6225,14,Improv_Melody,116,5,42,110,3820169448
6225,14,Improv_Melody,117,1,48,48,3820598500
6225,14,Improv_Melody,118,5,42,110,3820670640
6225,14,Improv_Melody,119,2,41,80,3821172632
6225,14,Improv_Melody,120,2,65,80,3821174864
6225,14,Improv_Melody,121,5,42,127,3821177468
6225,14,Improv_Melody,122,1,38,42,3821182012
6225,14,Improv_Melody,123,1,48,47,3821582056
6225,14,Improv_Melody,124,5,42,110,3821669684
6225,14,Improv_Melody,125,1,48,47,3822098440
6225,14,Improv_Melody,126,5,42,110,3822169532
6225,14,Improv_Melody,127,1,48,42,3822592304
6225,14,Improv_Melody,128,5,42,110,3822670428
6225,14,Improv_Melody,129,1,48,43,3823146756
6225,14,Improv_Melody,130,5,42,127,3823169908
6225,14,Improv_Melody,131,1,48,30,3823193212
6225,14,Improv_Melody,132,1,48,41,3823637832
6225,14,Improv_Melody,133,5,42,110,3823669660
6225,14,Improv_Melody,134,1,48,42,3824066772
6225,14,Improv_Melody,135,5,42,110,3824170612
6225,14,Improv_Melody,136,1,48,52,3824657272
6225,14,Improv_Melody,137,5,42,110,3824670476
6225,14,Improv_Melody,138,2,48,80,3825172164
6225,14,Improv_Melody,139,2,72,80,3825174320
6225,14,Improv_Melody,140,5,42,127,3825177080
6225,14,Improv_Melody,141,1,38,50,3825181468
6225,14,Improv_Melody,142,1,48,50,3825528384
6225,14,Improv_Melody,143,5,42,110,3825669428
6225,14,Improv_Melody,144,1,48,43,3826088100
6225,14,Improv_Melody,145,5,42,110,3826170412
6225,14,Improv_Melody,146,1,38,52,3826248316
6225,14,Improv_Melody,147,1,48,38,3826624804
6225,14,Improv_Melody,148,5,42,110,3826669944
6225,14,Improv_Melody,149,1,48,44,3826791904
6225,14,Improv_Melody,150,1,48,37,3827105704
6225,14,Improv_Melody,151,5,42,127,3827169624
6225,14,Improv_Melody,152,1,38,60,3827325760
6225,14,Improv_Melody,153,1,48,39,3827630812
6225,14,Improv_Melody,154,5,42,110,3827670496
6225,14,Improv_Melody,155,1,48,44,3827822600
6225,14,Improv_Melody,156,1,48,47,3828090224
6225,14,Improv_Melody,157,5,42,110,3828170320
6225,14,Improv_Melody,158,1,38,52,3828325716
6225,14,Improv_Melody,159,1,48,45,3828639668
6225,14,Improv_Melody,160,5,42,110,3828669776
6225,14,Improv_Melody,161,1,48,45,3828842296
6225,14,Improv_Melody,162,1,48,43,3829033932
6225,14,Improv_Melody,163,2,43,80,3829171944
6225,14,Improv_Melody,164,2,67,80,3829174024
6225,14,Improv_Melody,165,5,42,127,3829176636
6225,14,Improv_Melody,166,1,38,51,3829340568
6225,14,Improv_Melody,167,5,42,110,3829670424
6225,14,Improv_Melody,168,1,48,42,3829734804
6225,14,Improv_Melody,169,1,38,43,3830160556
6225,14,Improv_Melody,170,5,42,110,3830170164
6225,14,Improv_Melody,171,1,48,53,3830656712
6225,14,Improv_Melody,172,5,42,110,3830669616
6225,14,Improv_Melody,173,1,48,21,3830746348
6225,14,Improv_Melody,174,1,38,46,3831149808
6225,14,Improv_Melody,175,5,42,127,3831170340
6225,14,Improv_Melody,176,1,38,33,3831189228
6225,14,Improv_Melody,177,1,48,51,3831636772
6225,14,Improv_Melody,178,5,42,110,3831670320
6225,14,Improv_Melody,179,5,42,110,3832169800
6225,14,Improv_Melody,180,1,38,40,3832213540
6225,14,Improv_Melody,181,1,48,44,3832584636
6225,14,Improv_Melody,182,5,42,110,3832669568
6225,14,Improv_Melody,183,1,38,52,3833161004
6225,14,Improv_Melody,184,2,45,80,3833172744
6225,14,Improv_Melody,185,2,69,80,3833175056
6225,14,Improv_Melody,186,5,42,127,3833177512
6225,14,Improv_Melody,187,1,48,57,3833628180
6225,14,Improv_Melody,188,5,42,110,3833670104
6225,14,Improv_Melody,189,1,38,34,3834165204
6225,14,Improv_Melody,190,5,42,110,3834169580
6225,14,Improv_Melody,191,1,48,51,3834609252
6225,14,Improv_Melody,192,5,42,110,3834669356
6225,14,Improv_Melody,193,1,38,47,3835072008
6225,14,Improv_Melody,194,5,42,127,3835170092
6225,14,Improv_Melody,195,1,48,53,3835566920
6225,14,Improv_Melody,196,5,42,110,3835670088
6225,14,Improv_Melody,197,1,38,47,3836052984
6225,14,Improv_Melody,198,5,42,110,3836169568
6225,14,Improv_Melody,199,1,48,46,3836552980
6225,14,Improv_Melody,200,5,42,110,3836670236
6225,14,Improv_Melody,201,1,38,57,3837078936
6225,14,Improv_Melody,202,2,41,80,3837173796
6225,14,Improv_Melody,203,2,65,80,3837175716
6225,14,Improv_Melody,204,5,42,127,3837178328
6225,14,Improv_Melody,205,5,42,110,3837669820
6225,14,Improv_Melody,206,1,48,54,3837672868
6225,14,Improv_Melody,207,1,38,53,3838115400
6225,14,Improv_Melody,208,5,42,110,3838169368
6225,14,Improv_Melody,209,1,48,55,3838635668
6225,14,Improv_Melody,210,5,42,110,3838670188
6225,14,Improv_Melody,211,1,38,49,3839136340
6225,14,Improv_Melody,212,5,42,127,3839170112
6225,14,Improv_Melody,213,1,48,45,3839645244
6225,14,Improv_Melody,214,5,42,110,3839669592
6225,14,Improv_Melody,215,1,38,51,3840136836
6225,14,Improv_Melody,216,5,42,110,3840170260
6225,14,Improv_Melody,217,5,42,110,3840670044
6225,14,Improv_Melody,218,1,48,52,3840697996
6225,14,Improv_Melody,219,1,48,40,3840955604
6225,14,Improv_Melody,220,2,48,80,3841172508
6225,14,Improv_Melody,221,2,72,80,3841174656
6225,14,Improv_Melody,222,5,42,127,3841177264
6225,14,Improv_Melody,223,1,48,45,3841223044
6225,14,Improv_Melody,224,1,38,53,3841436072
6225,14,Improv_Melody,225,5,42,110,3841669464
6225,14,Improv_Melody,226,1,48,48,3841689712
6225,14,Improv_Melody,227,1,48,45,3841923756
6225,14,Improv_Melody,228,5,42,110,3842170112
6225,14,Improv_Melody,229,1,48,52,3842198284
6225,14,Improv_Melody,230,1,38,54,3842408696
6225,14,Improv_Melody,231,1,48,45,3842670456
6225,14,Improv_Melody,232,5,42,110,3842671800
6225,14,Improv_Melody,233,1,48,51,3842939340
6225,14,Improv_Melody,234,1,48,46,3843155952
6225,14,Improv_Melody,235,5,42,127,3843169532
6225,14,Improv_Melody,236,1,38,55,3843372968
6225,14,Improv_Melody,237,1,38,39,3843405708
6225,14,Improv_Melody,238,1,48,42,3843629284
6225,14,Improv_Melody,239,5,42,110,3843670236
6225,14,Improv_Melody,240,1,48,41,3843903896
6225,14,Improv_Melody,241,1,48,36,3844102708
6225,14,Improv_Melody,242,5,42,110,3844169988
6225,14,Improv_Melody,243,1,38,59,3844358396
6225,14,Improv_Melody,244,1,38,43,3844388736
6225,14,Improv_Melody,245,1,48,54,3844642156
6225,14,Improv_Melody,246,5,42,110,3844669868
6225,14,Improv_Melody,247,1,48,35,3844877868
6225,14,Improv_Melody,248,1,48,40,3845106604
6225,14,Improv_Melody,249,2,43,80,3845172284
6225,14,Improv_Melody,250,2,67,80,3845174508
6225,14,Improv_Melody,251,5,42,127,3845177040
6225,14,Improv_Melody,252,1,38,49,3845392600
6225,14,Improv_Melody,253,1,48,46,3845668324
6225,14,Improv_Melody,254,5,42,110,3845670212
6225,14,Improv_Melody,255,1,48,36,3845931468
6225,14,Improv_Melody,256,5,42,110,3846169896
6225,14,Improv_Melody,257,1,38,44,3846202860
6225,14,Improv_Melody,258,1,48,45,3846450888
6225,14,Improv_Melody,259,5,42,110,3846669796
6225,14,Improv_Melody,260,1,38,45,3846756468
6225,14,Improv_Melody,261,1,48,44,3847005768
6225,14,Improv_Melody,262,5,42,127,3847170372
6225,14,Improv_Melody,263,1,38,42,3847243804
6225,14,Improv_Melody,264,1,48,42,3847506048
6225,14,Improv_Melody,265,5,42,110,3847670196
6225,14,Improv_Melody,266,1,38,43,3847763524
6225,14,Improv_Melody,267,1,48,39,3847993532
6225,14,Improv_Melody,268,5,42,110,3848169872
6225,14,Improv_Melody,269,1,38,42,3848286392
6225,14,Improv_Melody,270,1,48,43,3848519532
6225,14,Improv_Melody,271,5,42,110,3848669404
6225,14,Improv_Melody,272,1,38,45,3848786512
6225,14,Improv_Melody,273,1,48,47,3849032976
6225,14,Improv_Melody,274,2,45,80,3849172856
6225,14,Improv_Melody,275,2,69,80,3849174932
6225,14,Improv_Melody,276,5,42,127,3849177544
6225,14,Improv_Melody,277,1,48,35,3849348140
6225,14,Improv_Melody,278,1,48,31,3849586296
6225,14,Improv_Melody,279,5,42,110,3849669908
6225,14,Improv_Melody,280,1,38,49,3849897652
6225,14,Improv_Melody,281,1,48,41,3850149572
6225,14,Improv_Melody,282,5,42,110,3850169736
6225,14,Improv_Melody,283,1,48,38,3850405188
6225,14,Improv_Melody,284,1,48,43,3850655312
6225,14,Improv_Melody,285,5,42,110,3850669488
6225,14,Improv_Melody,286,1,38,50,3850950716
6225,14,Improv_Melody,287,5,42,127,3851170220
6225,14,Improv_Melody,288,1,48,43,3851198624
6225,14,Improv_Melody,289,1,48,40,3851472308
6225,14,Improv_Melody,290,5,42,110,3851669800
6225,14,Improv_Melody,291,1,48,46,3851733900
6225,14,Improv_Melody,292,1,38,44,3851983208
6225,14,Improv_Melody,293,5,42,110,3852169700
6225,14,Improv_Melody,294,1,48,50,3852185312
6225,14,Improv_Melody,295,1,38,48,3852519012
6225,14,Improv_Melody,296,5,42,110,3852670424
6225,14,Improv_Melody,297,1,48,52,3852740512
6225,14,Improv_Melody,298,1,38,49,3853055788
6225,14,Improv_Melody,299,2,41,80,3853172384
6225,14,Improv_Melody,300,2,65,80,3853174612
6225,14,Improv_Melody,301,5,42,127,3853177152
6225,14,Improv_Melody,302,1,48,50,3853331312
6225,14,Improv_Melody,303,1,38,42,3853584512
6225,14,Improv_Melody,304,5,42,110,3853669664
6225,14,Improv_Melody,305,1,48,35,3853809596
6225,14,Improv_Melody,306,1,38,40,3854092112
6225,14,Improv_Melody,307,5,42,110,3854169492
6225,14,Improv_Melody,308,1,48,40,3854343008
6225,14,Improv_Melody,309,1,38,48,3854614904
6225,14,Improv_Melody,310,5,42,110,3854670140
6225,14,Improv_Melody,311,1,48,42,3854903196
6225,14,Improv_Melody,312,5,42,127,3855169752
6225,14,Improv_Melody,313,1,38,24,3855194492
6225,14,Improv_Melody,314,1,38,47,3855491216
6225,14,Improv_Melody,315,5,42,110,3855669728
6225,14,Improv_Melody,316,1,38,43,3855736280
6225,14,Improv_Melody,317,1,48,44,3856017368
6225,14,Improv_Melody,318,5,42,110,3856170600
6225,14,Improv_Melody,319,1,38,48,3856285344
6225,14,Improv_Melody,320,1,48,45,3856578632
6225,14,Improv_Melody,321,5,42,110,3856669996
6225,14,Improv_Melody,322,1,38,47,3856857132
6225,14,Improv_Melody,323,2,48,80,3857172184
6225,14,Improv_Melody,324,2,72,80,3857174412
6225,14,Improv_Melody,325,5,42,127,3857177024
6225,14,Improv_Melody,326,1,48,30,3857459760
6225,14,Improv_Melody,327,5,42,110,3857669692
6225,14,Improv_Melody,328,1,48,38,3857762424
6225,14,Improv_Melody,329,1,48,30,3858023620
6225,14,Improv_Melody,330,5,42,110,3858170192
6225,14,Improv_Melody,331,1,48,31,3858273092
6225,14,Improv_Melody,332,1,48,41,3858527180
6225,14,Improv_Melody,333,5,42,110,3858670020
6225,14,Improv_Melody,334,1,48,41,3858814804
6225,14,Improv_Melody,335,1,48,29,3859092832
6225,14,Improv_Melody,336,5,42,127,3859169788
6225,14,Improv_Melody,337,1,48,38,3859322560
6225,14,Improv_Melody,338,1,48,23,3859587720
6225,14,Improv_Melody,339,5,42,110,3859670512
6225,14,Improv_Melody,340,1,48,29,3859864276
6225,14,Improv_Melody,341,1,48,33,3860155492
6225,14,Improv_Melody,342,5,42,110,3860170112
6225,14,Improv_Melody,343,1,48,25,3860413796
6225,14,Improv_Melody,344,1,48,35,3860651728
6225,14,Improv_Melody,345,5,42,110,3860669940
6225,14,Improv_Melody,346,1,48,30,3860892832
6225,14,Improv_Melody,347,2,43,80,3861172060
6225,14,Improv_Melody,348,2,67,80,3861174212
6225,14,Improv_Melody,349,5,42,127,3861176824
6225,14,Improv_Melody,350,1,48,42,3861222504
6225,14,Improv_Melody,351,1,48,18,3861349936
6225,14,Improv_Melody,352,1,38,45,3861507092
6225,14,Improv_Melody,353,1,38,21,3861573112
6225,14,Improv_Melody,354,5,42,110,3861670248
6225,14,Improv_Melody,355,1,48,26,3861772552
6225,14,Improv_Melody,356,1,48,22,3862037936
6225,14,Improv_Melody,357,5,42,110,3862169904
6225,14,Improv_Melody,358,1,48,20,3862305560
6225,14,Improv_Melody,359,1,38,24,3862397916
6225,14,Improv_Melody,360,1,48,27,3862666504
6225,14,Improv_Melody,361,5,42,110,3862669684
6225,14,Improv_Melody,362,1,48,24,3862942408
6225,14,Improv_Melody,363,5,42,127,3863170568
6225,14,Improv_Melody,364,1,48,26,3863195780
6225,14,Improv_Melody,365,1,48,30,3863465280
6225,14,Improv_Melody,366,5,42,110,3863670172
6225,14,Improv_Melody,367,1,48,32,3863745648
6225,14,Improv_Melody,368,1,48,28,3863983580
6225,14,Improv_Melody,369,5,42,110,3864169848
6225,14,Improv_Melody,370,1,48,34,3864245172
6225,14,Improv_Melody,371,1,48,39,3864522080
6225,14,Improv_Melody,372,5,42,110,3864669604
6225,14,Improv_Melody,373,1,48,31,3864767740
6225,14,Improv_Melody,374,1,48,45,3865058336
6225,14,Improv_Melody,375,2,45,80,3865172756
6225,14,Improv_Melody,376,2,69,80,3865175140
6225,14,Improv_Melody,377,5,42,127,3865177672
6225,14,Improv_Melody,378,1,48,34,3865297952
6225,14,Improv_Melody,379,1,48,31,3865513892
6225,14,Improv_Melody,380,5,42,110,3865669944
6225,14,Improv_Melody,381,1,38,33,3865723932
6225,14,Improv_Melody,382,1,48,33,3865945556
6225,14,Improv_Melody,383,5,42,110,3866169700
6225,14,Improv_Melody,384,1,38,24,3866198844
6225,14,Improv_Melody,385,1,48,40,3866442464
6225,14,Improv_Melody,386,5,42,110,3866669600
6225,14,Improv_Melody,387,1,38,37,3866731284
6225,14,Improv_Melody,388,1,48,41,3866970192
6225,14,Improv_Melody,389,5,42,127,3867170100
6225,14,Improv_Melody,390,1,38,42,3867262152
6225,14,Improv_Melody,391,1,48,44,3867470688
6225,14,Improv_Melody,392,5,42,110,3867670000
6225,14,Improv_Melody,393,1,38,42,3867783820
6225,14,Improv_Melody,394,1,48,42,3868018460
6225,14,Improv_Melody,395,5,42,110,3868169528
6225,14,Improv_Melody,396,1,48,23,3868263456
6225,14,Improv_Melody,397,1,48,24,3868508940
6225,14,Improv_Melody,398,5,42,110,3868670400
6225,14,Improv_Melody,399,1,38,40,3868746004
6225,14,Improv_Melody,400,1,48,43,3868992456
6225,14,Improv_Melody,401,2,41,80,3869172504
6225,14,Improv_Melody,402,2,65,80,3869174512
6225,14,Improv_Melody,403,5,42,127,3869177052
6225,14,Improv_Melody,404,1,48,28,3869241052
6225,14,Improv_Melody,405,1,48,25,3869453560
6225,14,Improv_Melody,406,1,38,38,3869644516
6225,14,Improv_Melody,407,5,42,110,3869669688
6225,14,Improv_Melody,408,1,48,41,3869864976
6225,14,Improv_Melody,409,1,38,34,3870166484
6225,14,Improv_Melody,410,5,42,110,3870169440
6225,14,Improv_Melody,411,1,48,30,3870409452
6225,14,Improv_Melody,412,5,42,110,3870670172
6225,14,Improv_Melody,413,1,38,32,3870674860
6225,14,Improv_Melody,414,1,48,29,3870917284
6225,14,Improv_Melody,415,5,42,127,3871169776
6225,14,Improv_Melody,416,1,38,32,3871219564
6225,14,Improv_Melody,417,1,48,37,3871414268
6225,14,Improv_Melody,418,1,48,18,3871499520
6225,14,Improv_Melody,419,5,42,110,3871669656
6225,14,Improv_Melody,420,1,38,36,3871732388
6225,14,Improv_Melody,421,1,38,17,3871809708
6225,14,Improv_Melody,422,1,48,25,3871925944
6225,14,Improv_Melody,423,5,42,110,3872170284
6225,14,Improv_Melody,424,1,38,34,3872240120
6225,14,Improv_Melody,425,1,38,22,3872291484
6225,14,Improv_Melody,426,1,48,34,3872462328
6225,14,Improv_Melody,427,5,42,110,3872669940
6225,14,Improv_Melody,428,1,38,23,3872693408
6225,14,Improv_Melody,429,1,48,25,3872963876
6225,14,Improv_Melody,430,2,48,80,3873172552
6225,14,Improv_Melody,431,2,72,80,3873174704
6225,14,Improv_Melody,432,5,42,127,3873177308
6225,14,Improv_Melody,433,1,48,23,3873235484
6225,14,Improv_Melody,434,1,48,21,3873442900
6225,14,Improv_Melody,435,1,38,20,3873652532
6225,14,Improv_Melody,436,5,42,110,3873669476
6225,14,Improv_Melody,437,1,48,26,3873935672
6225,14,Improv_Melody,0,9999,9999,9999,3793167480
6225,14,Improv_Melody,1,9999,9999,9999,3793667184
6225,14,Improv_Melody,2,9999,9999,9999,3794167876
6225,14,Improv_Melody,3,9999,9999,9999,3794667596
6225,14,Improv_Melody,4,9999,9999,9999,3795167320
6225,14,Improv_Melody,5,9999,9999,9999,3795668088
6225,14,Improv_Melody,6,9999,9999,9999,3796167736
6225,14,Improv_Melody,7,9999,9999,9999,3796667456
6225,14,Improv_Melody,8,9999,9999,9999,3797167180
6225,14,Improv_Melody,9,9999,9999,9999,3797667892
6225,14,Improv_Melody,10,9999,9999,9999,3798167664
6225,14,Improv_Melody,11,9999,9999,9999,3798667364
6225,14,Improv_Melody,12,9999,9999,9999,3799168096
6225,14,Improv_Melody,13,9999,9999,9999,3799667796
6225,14,Improv_Melody,14,9999,9999,9999,3800167516
6225,14,Improv_Melody,15,9999,9999,9999,3800667240
6225,14,Improv_Melody,16,9999,9999,9999,3801167932
6225,14,Improv_Melody,17,9999,9999,9999,3801667660
6225,14,Improv_Melody,18,9999,9999,9999,3802167364
6225,14,Improv_Melody,19,9999,9999,9999,3802667064
6225,14,Improv_Melody,20,9999,9999,9999,3803167792
6225,14,Improv_Melody,21,9999,9999,9999,3803667568
6225,14,Improv_Melody,22,9999,9999,9999,3804167284
6225,14,Improv_Melody,23,9999,9999,9999,3804667956
6225,14,Improv_Melody,24,9999,9999,9999,3805167736
6225,14,Improv_Melody,25,9999,9999,9999,3805667380
6225,14,Improv_Melody,26,9999,9999,9999,3806167156
6225,14,Improv_Melody,27,9999,9999,9999,3806667824
6225,14,Improv_Melody,28,9999,9999,9999,3807167608
6225,14,Improv_Melody,29,9999,9999,9999,3807667308
6225,14,Improv_Melody,30,9999,9999,9999,3808168048
6225,14,Improv_Melody,31,9999,9999,9999,3808667732
6225,14,Improv_Melody,32,9999,9999,9999,3809167432
6225,14,Improv_Melody,33,9999,9999,9999,3809667124
6225,14,Improv_Melody,34,9999,9999,9999,3810167872
6225,14,Improv_Melody,35,9999,9999,9999,3810667584
6225,14,Improv_Melody,36,9999,9999,9999,3811167288
6225,14,Improv_Melody,37,9999,9999,9999,3811668036
6225,14,Improv_Melody,38,9999,9999,9999,3812167732
6225,14,Improv_Melody,39,9999,9999,9999,3812667508
6225,14,Improv_Melody,40,9999,9999,9999,3813167192
6225,14,Improv_Melody,41,9999,9999,9999,3813667924
6225,14,Improv_Melody,42,9999,9999,9999,3814167632
6225,14,Improv_Melody,43,9999,9999,9999,3814667324
6225,14,Improv_Melody,44,9999,9999,9999,3815168072
6225,14,Improv_Melody,45,9999,9999,9999,3815667772
6225,14,Improv_Melody,46,9999,9999,9999,3816167544
6225,14,Improv_Melody,47,9999,9999,9999,3816667248
6225,14,Improv_Melody,48,9999,9999,9999,3817167992
6225,14,Improv_Melody,49,9999,9999,9999,3817667632
6225,14,Improv_Melody,50,9999,9999,9999,3818167408
6225,14,Improv_Melody,51,9999,9999,9999,3818667108
6225,14,Improv_Melody,52,9999,9999,9999,3819167856
6225,14,Improv_Melody,53,9999,9999,9999,3819667532
6225,14,Improv_Melody,54,9999,9999,9999,3820167232
6225,14,Improv_Melody,55,9999,9999,9999,3820667980
6225,14,Improv_Melody,56,9999,9999,9999,3821167688
6225,14,Improv_Melody,57,9999,9999,9999,3821667392
6225,14,Improv_Melody,58,9999,9999,9999,3822167092
6225,14,Improv_Melody,59,9999,9999,9999,3822667840
6225,14,Improv_Melody,60,9999,9999,9999,3823167540
6225,14,Improv_Melody,61,9999,9999,9999,3823667292
6225,14,Improv_Melody,62,9999,9999,9999,3824168024
6225,14,Improv_Melody,63,9999,9999,9999,3824667736
6225,14,Improv_Melody,64,9999,9999,9999,3825167444
6225,14,Improv_Melody,65,9999,9999,9999,3825667136
6225,14,Improv_Melody,66,9999,9999,9999,3826167900
6225,14,Improv_Melody,67,9999,9999,9999,3826667580
6225,14,Improv_Melody,68,9999,9999,9999,3827167332
6225,14,Improv_Melody,69,9999,9999,9999,3827668056
6225,14,Improv_Melody,70,9999,9999,9999,3828167732
6225,14,Improv_Melody,71,9999,9999,9999,3828667488
6225,14,Improv_Melody,72,9999,9999,9999,3829167224
6225,14,Improv_Melody,73,9999,9999,9999,3829667908
6225,14,Improv_Melody,74,9999,9999,9999,3830167652
6225,14,Improv_Melody,75,9999,9999,9999,3830667324
6225,14,Improv_Melody,76,9999,9999,9999,3831168052
6225,14,Improv_Melody,77,9999,9999,9999,3831667804
6225,14,Improv_Melody,78,9999,9999,9999,3832167508
6225,14,Improv_Melody,79,9999,9999,9999,3832667204
6225,14,Improv_Melody,80,9999,9999,9999,3833167952
6225,14,Improv_Melody,81,9999,9999,9999,3833667664
6225,14,Improv_Melody,82,9999,9999,9999,3834167364
6225,14,Improv_Melody,83,9999,9999,9999,3834667064
6225,14,Improv_Melody,84,9999,9999,9999,3835167832
6225,14,Improv_Melody,85,9999,9999,9999,3835667576
6225,14,Improv_Melody,86,9999,9999,9999,3836167276
6225,14,Improv_Melody,87,9999,9999,9999,3836668020
6225,14,Improv_Melody,88,9999,9999,9999,3837167736
6225,14,Improv_Melody,89,9999,9999,9999,3837667380
6225,14,Improv_Melody,90,9999,9999,9999,3838167152
6225,14,Improv_Melody,91,9999,9999,9999,3838667896
6225,14,Improv_Melody,92,9999,9999,9999,3839167596
6225,14,Improv_Melody,93,9999,9999,9999,3839667300
6225,14,Improv_Melody,94,9999,9999,9999,3840168044
6225,14,Improv_Melody,95,9999,9999,9999,3840667752
6225,14,Improv_Melody,96,9999,9999,9999,3841167480
6225,14,Improv_Melody,97,9999,9999,9999,3841667172
6225,14,Improv_Melody,98,9999,9999,9999,3842167896
6225,14,Improv_Melody,99,9999,9999,9999,3842667572
6225,14,Improv_Melody,100,9999,9999,9999,3843167316
6225,14,Improv_Melody,101,9999,9999,9999,3843668020
6225,14,Improv_Melody,102,9999,9999,9999,3844167772
6225,14,Improv_Melody,103,9999,9999,9999,3844667504
6225,14,Improv_Melody,104,9999,9999,9999,3845167184
6225,14,Improv_Melody,105,9999,9999,9999,3845667948
6225,14,Improv_Melody,106,9999,9999,9999,3846167604
6225,14,Improv_Melody,107,9999,9999,9999,3846667356
6225,14,Improv_Melody,108,9999,9999,9999,3847168080
6225,14,Improv_Melody,109,9999,9999,9999,3847667832
6225,14,Improv_Melody,110,9999,9999,9999,3848167508
6225,14,Improv_Melody,111,9999,9999,9999,3848667184
6225,14,Improv_Melody,112,9999,9999,9999,3849167984
6225,14,Improv_Melody,113,9999,9999,9999,3849667692
6225,14,Improv_Melody,114,9999,9999,9999,3850167368
6225,14,Improv_Melody,115,9999,9999,9999,3850667120
6225,14,Improv_Melody,116,9999,9999,9999,3851167852
6225,14,Improv_Melody,117,9999,9999,9999,3851667508
6225,14,Improv_Melody,118,9999,9999,9999,3852167260
6225,14,Improv_Melody,119,9999,9999,9999,3852667984
6225,14,Improv_Melody,120,9999,9999,9999,3853167664
6225,14,Improv_Melody,121,9999,9999,9999,3853667448
6225,14,Improv_Melody,122,9999,9999,9999,3854167128
6225,14,Improv_Melody,123,9999,9999,9999,3854667852
6225,14,Improv_Melody,124,9999,9999,9999,3855167536
6225,14,Improv_Melody,125,9999,9999,9999,3855667288
6225,14,Improv_Melody,126,9999,9999,9999,3856168012
6225,14,Improv_Melody,127,9999,9999,9999,3856667704
6225,14,Improv_Melody,128,9999,9999,9999,3857167464
6225,14,Improv_Melody,129,9999,9999,9999,3857667176
6225,14,Improv_Melody,130,9999,9999,9999,3858167900
6225,14,Improv_Melody,131,9999,9999,9999,3858667580
6225,14,Improv_Melody,132,9999,9999,9999,3859167344
6225,14,Improv_Melody,133,9999,9999,9999,3859668072
6225,14,Improv_Melody,134,9999,9999,9999,3860167748
6225,14,Improv_Melody,135,9999,9999,9999,3860667504
6225,14,Improv_Melody,136,9999,9999,9999,3861167188
6225,14,Improv_Melody,137,9999,9999,9999,3861667956
6225,14,Improv_Melody,138,9999,9999,9999,3862167612
6225,14,Improv_Melody,139,9999,9999,9999,3862667316
6225,14,Improv_Melody,140,9999,9999,9999,3863168052
6225,14,Improv_Melody,141,9999,9999,9999,3863667804
6225,14,Improv_Melody,142,9999,9999,9999,3864167484
6225,14,Improv_Melody,143,9999,9999,9999,3864667236
6225,14,Improv_Melody,144,9999,9999,9999,3865167960
6225,14,Improv_Melody,145,9999,9999,9999,3865667656
6225,14,Improv_Melody,146,9999,9999,9999,3866167408
6225,14,Improv_Melody,147,9999,9999,9999,3866667084
6225,14,Improv_Melody,148,9999,9999,9999,3867167808
6225,14,Improv_Melody,149,9999,9999,9999,3867667560
6225,14,Improv_Melody,150,9999,9999,9999,3868167236
6225,14,Improv_Melody,151,9999,9999,9999,3868667960
6225,14,Improv_Melody,152,9999,9999,9999,3869167712
6225,14,Improv_Melody,153,9999,9999,9999,3869667396
6225,14,Improv_Melody,154,9999,9999,9999,3870167148
6225,14,Improv_Melody,155,9999,9999,9999,3870667880
6225,14,Improv_Melody,156,9999,9999,9999,3871167560
6225,14,Improv_Melody,157,9999,9999,9999,3871667288
6225,14,Improv_Melody,158,9999,9999,9999,3872167992
6225,14,Improv_Melody,159,9999,9999,9999,3872667724
6225,14,Improv_Melody,160,9999,9999,9999,3873167452
6225,14,Improv_Melody,161,9999,9999,9999,3873667184
62