pid,taskRunCount,taskID,taskName,i,channel,pitch,velocity,microseconds
63,1,1,Ticks_Pract_5,0,5,42,127,65416524
63,1,1,Ticks_Pract_5,1,5,42,127,65917212
63,1,1,Ticks_Pract_5,2,5,42,127,66417004
63,1,1,Ticks_Pract_5,3,5,42,127,66916720
63,1,1,Ticks_Pract_5,4,1,38,46,67374704
63,1,1,Ticks_Pract_5,5,5,42,127,67416404
63,1,1,Ticks_Pract_5,6,1,38,59,67883376
63,1,1,Ticks_Pract_5,7,5,42,127,67917292
63,1,1,Ticks_Pract_5,8,1,38,57,68379032
63,1,1,Ticks_Pract_5,9,5,42,127,68416840
63,1,1,Ticks_Pract_5,10,1,38,60,68906396
63,1,1,Ticks_Pract_5,11,5,42,127,68916680
63,1,1,Ticks_Pract_5,12,1,38,56,69406768
63,1,1,Ticks_Pract_5,13,5,42,127,69417200
63,1,1,Ticks_Pract_5,14,1,38,55,69895016
63,1,1,Ticks_Pract_5,15,5,42,127,69917116
63,1,1,Ticks_Pract_5,16,1,38,55,70405856
63,1,1,Ticks_Pract_5,17,5,42,127,70416740
63,1,1,Ticks_Pract_5,18,1,38,60,70892836
63,1,1,Ticks_Pract_5,19,5,42,127,70916432
63,1,1,Ticks_Pract_5,20,1,38,57,71389616
63,1,1,Ticks_Pract_5,21,5,42,127,71417176
63,1,1,Ticks_Pract_5,22,1,38,54,71911972
63,1,1,Ticks_Pract_5,23,5,42,127,71916944
63,1,1,Ticks_Pract_5,24,1,38,48,72401568
63,1,1,Ticks_Pract_5,25,5,42,127,72416564
63,1,1,Ticks_Pract_5,26,5,42,127,72917312
63,1,1,Ticks_Pract_5,27,1,38,56,72920432
63,1,1,Ticks_Pract_5,28,1,38,54,73410984
63,1,1,Ticks_Pract_5,29,5,42,127,73417224
63,1,1,Ticks_Pract_5,30,1,38,49,73898188
63,1,1,Ticks_Pract_5,31,5,42,127,73916920
63,1,1,Ticks_Pract_5,32,1,38,51,74401996
63,1,1,Ticks_Pract_5,33,5,42,127,74416392
63,1,1,Ticks_Pract_5,34,1,38,54,74877752
63,1,1,Ticks_Pract_5,35,5,42,127,74917208
63,1,1,Ticks_Pract_5,36,1,38,52,75381040
63,1,1,Ticks_Pract_5,37,5,42,127,75416980
63,1,1,Ticks_Pract_5,38,1,38,48,75903768
63,1,1,Ticks_Pract_5,39,5,42,127,75916748
63,1,1,Ticks_Pract_5,40,1,38,47,76387540
63,1,1,Ticks_Pract_5,41,5,42,127,76417416
63,1,1,Ticks_Pract_5,42,1,38,51,76888924
63,1,1,Ticks_Pract_5,43,5,42,127,76917084
63,1,1,Ticks_Pract_5,44,1,38,51,77373712
63,1,1,Ticks_Pract_5,45,5,42,127,77416704
63,1,1,Ticks_Pract_5,46,1,38,52,77865028
63,1,1,Ticks_Pract_5,47,5,42,127,77916476
63,1,1,Ticks_Pract_5,48,1,38,51,78346992
63,1,1,Ticks_Pract_5,49,5,42,127,78417188
63,1,1,Ticks_Pract_5,50,1,38,51,78817448
63,1,1,Ticks_Pract_5,51,5,42,127,78917016
63,1,1,Ticks_Pract_5,52,5,42,127,79416584
63,1,1,Ticks_Pract_5,53,1,38,49,79881176
63,1,1,Ticks_Pract_5,54,5,42,127,79917416
63,1,1,Ticks_Pract_5,55,1,38,46,80411388
63,1,1,Ticks_Pract_5,56,5,42,127,80417260
63,1,1,Ticks_Pract_5,57,1,38,47,80898816
63,1,1,Ticks_Pract_5,58,5,42,127,80916876
63,1,1,Ticks_Pract_5,59,1,38,51,81375324
63,1,1,Ticks_Pract_5,60,5,42,127,81416500
63,1,1,Ticks_Pract_5,61,1,38,43,81865440
63,1,1,Ticks_Pract_5,62,5,42,127,81917240
63,1,1,Ticks_Pract_5,63,5,42,127,82417088
63,1,1,Ticks_Pract_5,64,5,42,127,82916584
63,1,1,Ticks_Pract_5,65,5,42,127,83416300
63,1,1,Ticks_Pract_5,66,5,42,127,83917060
63,1,1,Ticks_Pract_5,67,5,42,127,84417000
63,1,1,Ticks_Pract_5,68,5,42,127,84916940
63,1,1,Ticks_Pract_5,0,9999,9999,9999,65414232
63,1,1,Ticks_Pract_5,1,9999,9999,9999,65914996
63,1,1,Ticks_Pract_5,2,9999,9999,9999,66414712
63,1,1,Ticks_Pract_5,3,9999,9999,9999,66914356
63,1,1,Ticks_Pract_5,4,9999,9999,9999,67414116
63,1,1,Ticks_Pract_5,5,9999,9999,9999,67914852
63,1,1,Ticks_Pract_5,6,9999,9999,9999,68414548
63,1,1,Ticks_Pract_5,7,9999,9999,9999,68914244
63,1,1,Ticks_Pract_5,8,9999,9999,9999,69414984
63,1,1,Ticks_Pract_5,9,9999,9999,9999,69914680
63,1,1,Ticks_Pract_5,10,9999,9999,9999,70414448
63,1,1,Ticks_Pract_5,11,9999,9999,9999,70914144
63,1,1,Ticks_Pract_5,12,9999,9999,9999,71414884
63,1,1,Ticks_Pract_5,13,9999,9999,9999,71914580
63,1,1,Ticks_Pract_5,14,9999,9999,9999,72414276
63,1,1,Ticks_Pract_5,15,9999,9999,9999,72915024
63,1,1,Ticks_Pract_5,16,9999,9999,9999,73414712
63,1,1,Ticks_Pract_5,17,9999,9999,9999,73914480
63,1,1,Ticks_Pract_5,18,9999,9999,9999,74414176
63,1,1,Ticks_Pract_5,19,9999,9999,9999,74914920
63,1,1,Ticks_Pract_5,20,9999,9999,9999,75414616
63,1,1,Ticks_Pract_5,21,9999,9999,9999,75914308
63,1,1,Ticks_Pract_5,22,9999,9999,9999,76415052
63,1,1,Ticks_Pract_5,23,9999,9999,9999,76914792
63,1,1,Ticks_Pract_5,24,9999,9999,9999,77414488
63,1,1,Ticks_Pract_5,25,9999,9999,9999,77914184
63,1,1,Ticks_Pract_5,26,9999,9999,9999,78414900
63,1,1,Ticks_Pract_5,27,9999,9999,9999,78914652
63,1,1,Ticks_Pract_5,28,9999,9999,9999,79414372
63,1,1,Ticks_Pract_5,29,9999,9999,9999,79915124
63,1,1,Ticks_Pract_5,30,9999,9999,9999,80414820
63,1,1,Ticks_Pract_5,31,9999,9999,9999,80914512
63,1,1,Ticks_Pract_5,32,9999,9999,9999,81414208
63,1,1,Ticks_Pract_5,33,9999,9999,9999,81914952
63,1,1,Ticks_Pract_5,34,9999,9999,9999,82414652
63,1,1,Ticks_Pract_5,35,9999,9999,9999,82914368
63,1,1,Ticks_Pract_5,36,9999,9999,9999,83414084
63,1,1,Ticks_Pract_5,37,9999,9999,9999,83914844
63,1,1,Ticks_Pract_5,38,9999,9999,9999,84414560
63,1,1,Ticks_Pract_5,39,9999,9999,9999,84914280
63,2,1,Ticks_Pract_5,0,5,42,127,120888668
63,2,1,Ticks_Pract_5,1,5,42,127,121389356
63,2,1,Ticks_Pract_5,2,5,42,127,121888996
63,2,1,Ticks_Pract_5,3,1,48,51,121897800
63,2,1,Ticks_Pract_5,4,1,48,54,122382516
63,2,1,Ticks_Pract_5,5,5,42,127,122388908
63,2,1,Ticks_Pract_5,6,1,48,52,122876748
63,2,1,Ticks_Pract_5,7,5,42,127,122888528
63,2,1,Ticks_Pract_5,8,1,48,51,123365296
63,2,1,Ticks_Pract_5,9,5,42,127,123389420
63,2,1,Ticks_Pract_5,10,1,48,53,123884592
63,2,1,Ticks_Pract_5,11,5,42,127,123889040
63,2,1,Ticks_Pract_5,12,1,48,52,124380096
63,2,1,Ticks_Pract_5,13,5,42,127,124388660
63,2,1,Ticks_Pract_5,14,1,48,52,124867676
63,2,1,Ticks_Pract_5,15,5,42,127,124888576
63,2,1,Ticks_Pract_5,16,1,48,57,125371184
63,2,1,Ticks_Pract_5,17,5,42,127,125389020
63,2,1,Ticks_Pract_5,18,1,48,57,125880080
63,2,1,Ticks_Pract_5,19,5,42,127,125889012
63,2,1,Ticks_Pract_5,20,1,48,61,126372144
63,2,1,Ticks_Pract_5,21,5,42,127,126388484
63,2,1,Ticks_Pract_5,22,1,48,57,126860992
63,2,1,Ticks_Pract_5,23,5,42,127,126889300
63,2,1,Ticks_Pract_5,24,1,48,59,127382080
63,2,1,Ticks_Pract_5,25,5,42,127,127389144
63,2,1,Ticks_Pract_5,26,1,48,53,127864344
63,2,1,Ticks_Pract_5,27,5,42,127,127888840
63,2,1,Ticks_Pract_5,28,1,48,59,128362696
63,2,1,Ticks_Pract_5,29,5,42,127,128388460
63,2,1,Ticks_Pract_5,30,1,48,56,128879968
63,2,1,Ticks_Pract_5,31,5,42,127,128889200
63,2,1,Ticks_Pract_5,32,1,48,50,129357792
63,2,1,Ticks_Pract_5,33,5,42,127,129388896
63,2,1,Ticks_Pract_5,34,1,48,59,129862052
63,2,1,Ticks_Pract_5,35,5,42,127,129888740
63,2,1,Ticks_Pract_5,36,1,48,54,130357856
63,2,1,Ticks_Pract_5,37,5,42,127,130389232
63,2,1,Ticks_Pract_5,38,1,48,50,130866680
63,2,1,Ticks_Pract_5,39,5,42,127,130888928
63,2,1,Ticks_Pract_5,40,1,48,46,131385596
63,2,1,Ticks_Pract_5,41,5,42,127,131388844
63,2,1,Ticks_Pract_5,42,1,48,53,131884984
63,2,1,Ticks_Pract_5,43,5,42,127,131888688
63,2,1,Ticks_Pract_5,44,1,48,50,132366956
63,2,1,Ticks_Pract_5,45,5,42,127,132389204
63,2,1,Ticks_Pract_5,46,1,48,50,132864256
63,2,1,Ticks_Pract_5,47,5,42,127,132889048
63,2,1,Ticks_Pract_5,48,1,48,50,133382800
63,2,1,Ticks_Pract_5,49,5,42,127,133388816
63,2,1,Ticks_Pract_5,50,1,48,51,133870080
63,2,1,Ticks_Pract_5,51,5,42,127,133889336
63,2,1,Ticks_Pract_5,52,1,48,51,134343440
63,2,1,Ticks_Pract_5,53,5,42,127,134389104
63,2,1,Ticks_Pract_5,54,1,48,54,134856980
63,2,1,Ticks_Pract_5,55,5,42,127,134888948
63,2,1,Ticks_Pract_5,56,1,48,56,135365048
63,2,1,Ticks_Pract_5,57,5,42,127,135388496
63,2,1,Ticks_Pract_5,58,1,48,53,135871324
63,2,1,Ticks_Pract_5,59,5,42,127,135889384
63,2,1,Ticks_Pract_5,60,1,48,54,136366832
63,2,1,Ticks_Pract_5,61,5,42,127,136389008
63,2,1,Ticks_Pract_5,62,1,48,51,136887352
63,2,1,Ticks_Pract_5,63,5,42,127,136888848
63,2,1,Ticks_Pract_5,64,1,48,59,137385516
63,2,1,Ticks_Pract_5,65,5,42,127,137389368
63,2,1,Ticks_Pract_5,66,5,42,127,137889144
63,2,1,Ticks_Pract_5,67,1,48,50,137911184
63,2,1,Ticks_Pract_5,68,1,48,56,138374956
63,2,1,Ticks_Pract_5,69,5,42,127,138388760
63,2,1,Ticks_Pract_5,70,1,48,56,138855880
63,2,1,Ticks_Pract_5,71,5,42,127,138888828
63,2,1,Ticks_Pract_5,72,1,48,59,139383028
63,2,1,Ticks_Pract_5,73,5,42,127,139389196
63,2,1,Ticks_Pract_5,74,1,48,59,139883768
63,2,1,Ticks_Pract_5,75,5,42,127,139889040
63,2,1,Ticks_Pract_5,76,1,48,57,140387388
63,2,1,Ticks_Pract_5,77,5,42,127,140388956
63,2,1,Ticks_Pract_5,78,1,48,56,140877820
63,2,1,Ticks_Pract_5,0,9999,9999,9999,120886380
63,2,1,Ticks_Pract_5,1,9999,9999,9999,121387068
63,2,1,Ticks_Pract_5,2,9999,9999,9999,121886784
63,2,1,Ticks_Pract_5,3,9999,9999,9999,122386548
63,2,1,Ticks_Pract_5,4,9999,9999,9999,122886244
63,2,1,Ticks_Pract_5,5,9999,9999,9999,123386984
63,2,1,Ticks_Pract_5,6,9999,9999,9999,123886680
63,2,1,Ticks_Pract_5,7,9999,9999,9999,124386372
63,2,1,Ticks_Pract_5,8,9999,9999,9999,124886140
63,2,1,Ticks_Pract_5,9,9999,9999,9999,125386812
63,2,1,Ticks_Pract_5,10,9999,9999,9999,125886580
63,2,1,Ticks_Pract_5,11,9999,9999,9999,126386272
63,2,1,Ticks_Pract_5,12,9999,9999,9999,126887016
63,2,1,Ticks_Pract_5,13,9999,9999,9999,127386708
63,2,1,Ticks_Pract_5,14,9999,9999,9999,127886404
63,2,1,Ticks_Pract_5,15,9999,9999,9999,128386100
63,2,1,Ticks_Pract_5,16,9999,9999,9999,128886840
63,2,1,Ticks_Pract_5,17,9999,9999,9999,129386608
63,2,1,Ticks_Pract_5,18,9999,9999,9999,129886304
63,2,1,Ticks_Pract_5,19,9999,9999,9999,130387020
63,2,1,Ticks_Pract_5,20,9999,9999,9999,130886716
63,2,1,Ticks_Pract_5,21,9999,9999,9999,131386484
63,2,1,Ticks_Pract_5,22,9999,9999,9999,131886180
63,2,1,Ticks_Pract_5,23,9999,9999,9999,132386920
63,2,1,Ticks_Pract_5,24,9999,9999,9999,132886616
63,2,1,Ticks_Pract_5,25,9999,9999,9999,133386308
63,2,1,Ticks_Pract_5,26,9999,9999,9999,133887052
63,2,1,Ticks_Pract_5,27,9999,9999,9999,134386744
63,2,1,Ticks_Pract_5,28,9999,9999,9999,134886516
63,2,1,Ticks_Pract_5,29,9999,9999,9999,135386208
63,2,1,Ticks_Pract_5,30,9999,9999,9999,135886952
63,2,1,Ticks_Pract_5,31,9999,9999,9999,136386648
63,2,1,Ticks_Pract_5,32,9999,9999,9999,136886348
63,2,1,Ticks_Pract_5,33,9999,9999,9999,137387080
63,2,1,Ticks_Pract_5,34,9999,9999,9999,137886784
63,2,1,Ticks_Pract_5,35,9999,9999,9999,138386548
63,2,1,Ticks_Pract_5,36,9999,9999,9999,138886244
63,2,1,Ticks_Pract_5,37,9999,9999,9999,139386984
63,2,1,Ticks_Pract_5,38,9999,9999,9999,139886680
63,2,1,Ticks_Pract_5,39,9999,9999,9999,140386380
63,3,0,Ticks_Pract_8,0,5,42,127,148364620
63,3,0,Ticks_Pract_8,1,5,42,127,149165420
63,3,0,Ticks_Pract_8,2,5,42,127,149965028
63,3,0,Ticks_Pract_8,3,1,48,60,149984004
63,3,0,Ticks_Pract_8,4,1,48,64,150753728
63,3,0,Ticks_Pract_8,5,5,42,127,150764980
63,3,0,Ticks_Pract_8,6,1,48,65,151535580
63,3,0,Ticks_Pract_8,7,5,42,127,151564712
63,3,0,Ticks_Pract_8,8,1,48,64,152308612
63,3,0,Ticks_Pract_8,9,5,42,127,152365492
63,3,0,Ticks_Pract_8,10,5,42,127,153165380
63,3,0,Ticks_Pract_8,11,1,48,63,153170448
63,3,0,Ticks_Pract_8,12,5,42,127,153964992
63,3,0,Ticks_Pract_8,13,1,48,65,153971624
63,3,0,Ticks_Pract_8,14,5,42,127,154764648
63,3,0,Ticks_Pract_8,15,1,48,67,154775776
63,3,0,Ticks_Pract_8,16,5,42,127,155565508
63,3,0,Ticks_Pract_8,17,1,48,62,155568256
63,3,0,Ticks_Pract_8,18,1,48,61,156343060
63,3,0,Ticks_Pract_8,19,5,42,127,156365308
63,3,0,Ticks_Pract_8,20,1,48,61,157144664
63,3,0,Ticks_Pract_8,21,5,42,127,157164816
63,3,0,Ticks_Pract_8,22,1,48,69,157944320
63,3,0,Ticks_Pract_8,23,5,42,127,157964552
63,3,0,Ticks_Pract_8,24,1,48,63,158742564
63,3,0,Ticks_Pract_8,25,5,42,127,158765480
63,3,0,Ticks_Pract_8,26,1,48,62,159518432
63,3,0,Ticks_Pract_8,27,5,42,127,159565288
63,3,0,Ticks_Pract_8,28,1,48,61,160339336
63,3,0,Ticks_Pract_8,29,5,42,127,160364824
63,3,0,Ticks_Pract_8,30,5,42,127,161164640
63,3,0,Ticks_Pract_8,31,1,48,61,161198576
63,3,0,Ticks_Pract_8,32,1,48,62,161885572
63,3,0,Ticks_Pract_8,33,5,42,127,161965488
63,3,0,Ticks_Pract_8,34,1,48,59,162747616
63,3,0,Ticks_Pract_8,35,5,42,127,162765368
63,3,0,Ticks_Pract_8,36,1,48,55,163538296
63,3,0,Ticks_Pract_8,37,5,42,127,163564804
63,3,0,Ticks_Pract_8,38,1,48,42,164362804
63,3,0,Ticks_Pract_8,39,5,42,127,164364540
63,3,0,Ticks_Pract_8,40,1,48,62,165142776
63,3,0,Ticks_Pract_8,41,5,42,127,165165320
63,3,0,Ticks_Pract_8,42,5,42,127,165965284
63,3,0,Ticks_Pract_8,43,5,42,127,166764988
63,3,0,Ticks_Pract_8,44,5,42,127,167564596
63,3,0,Ticks_Pract_8,45,5,42,127,168365472
63,3,0,Ticks_Pract_8,46,5,42,127,169165376
63,3,0,Ticks_Pract_8,47,5,42,127,169965208
63,3,0,Ticks_Pract_8,48,5,42,127,170764736
63,3,0,Ticks_Pract_8,49,1,48,60,170811092
63,3,0,Ticks_Pract_8,50,1,48,56,171532868
63,3,0,Ticks_Pract_8,51,5,42,127,171565436
63,3,0,Ticks_Pract_8,0,9999,9999,9999,148362332
63,3,0,Ticks_Pract_8,1,9999,9999,9999,149163060
63,3,0,Ticks_Pract_8,2,9999,9999,9999,149962816
63,3,0,Ticks_Pract_8,3,9999,9999,9999,150762544
63,3,0,Ticks_Pract_8,4,9999,9999,9999,151562352
63,3,0,Ticks_Pract_8,5,9999,9999,9999,152363056
63,3,0,Ticks_Pract_8,6,9999,9999,9999,153162872
63,3,0,Ticks_Pract_8,7,9999,9999,9999,153962556
63,3,0,Ticks_Pract_8,8,9999,9999,9999,154762288
63,3,0,Ticks_Pract_8,9,9999,9999,9999,155563068
63,3,0,Ticks_Pract_8,10,9999,9999,9999,156362872
63,3,0,Ticks_Pract_8,11,9999,9999,9999,157162604
63,3,0,Ticks_Pract_8,12,9999,9999,9999,157962336
63,3,0,Ticks_Pract_8,13,9999,9999,9999,158763116
63,3,0,Ticks_Pract_8,14,9999,9999,9999,159562852
63,3,0,Ticks_Pract_8,15,9999,9999,9999,160362608
63,3,0,Ticks_Pract_8,16,9999,9999,9999,161162352
63,3,0,Ticks_Pract_8,17,9999,9999,9999,161963128
63,3,0,Ticks_Pract_8,18,9999,9999,9999,162762860
63,3,0,Ticks_Pract_8,19,9999,9999,9999,163562592
63,3,0,Ticks_Pract_8,20,9999,9999,9999,164362352
63,3,0,Ticks_Pract_8,21,9999,9999,9999,165163108
63,3,0,Ticks_Pract_8,22,9999,9999,9999,165962848
63,3,0,Ticks_Pract_8,23,9999,9999,9999,166762552
63,3,0,Ticks_Pract_8,24,9999,9999,9999,167562308
63,3,0,Ticks_Pract_8,25,9999,9999,9999,168363108
63,3,0,Ticks_Pract_8,26,9999,9999,9999,169162864
63,3,0,Ticks_Pract_8,27,9999,9999,9999,169962548
63,3,0,Ticks_Pract_8,28,9999,9999,9999,170762300
63,3,0,Ticks_Pract_8,29,9999,9999,9999,171563076
63,4,4,T1_SMS_5,0,5,42,127,287785524
63,4,4,T1_SMS_5,1,5,42,127,288284944
63,4,4,T1_SMS_5,2,5,42,127,288784664
63,4,4,T1_SMS_5,3,1,48,57,288787784
63,4,4,T1_SMS_5,4,1,48,54,289262776
63,4,4,T1_SMS_5,5,5,42,127,289284576
63,4,4,T1_SMS_5,6,1,48,54,289745340
63,4,4,T1_SMS_5,7,5,42,127,289785392
63,4,4,T1_SMS_5,8,1,48,65,290259920
63,4,4,T1_SMS_5,9,5,42,127,290284864
63,4,4,T1_SMS_5,10,1,48,62,290745704
63,4,4,T1_SMS_5,11,5,42,127,290784484
63,4,4,T1_SMS_5,12,1,48,61,291243004
63,4,4,T1_SMS_5,13,5,42,127,291285448
63,4,4,T1_SMS_5,14,1,48,55,291764916
63,4,4,T1_SMS_5,15,5,42,127,291784996
63,4,4,T1_SMS_5,16,1,48,59,292248456
63,4,4,T1_SMS_5,17,5,42,127,292284840
63,4,4,T1_SMS_5,18,1,48,65,292758472
63,4,4,T1_SMS_5,19,5,42,127,292784536
63,4,4,T1_SMS_5,20,1,48,66,293260640
63,4,4,T1_SMS_5,21,5,42,127,293285204
63,4,4,T1_SMS_5,22,1,48,60,293763844
63,4,4,T1_SMS_5,23,5,42,127,293785048
63,4,4,T1_SMS_5,24,1,48,56,294275660
63,4,4,T1_SMS_5,25,5,42,127,294284520
63,4,4,T1_SMS_5,26,1,48,58,294769224
63,4,4,T1_SMS_5,27,5,42,127,294785488
63,4,4,T1_SMS_5,28,1,48,59,295269892
63,4,4,T1_SMS_5,29,5,42,127,295285180
63,4,4,T1_SMS_5,30,1,48,59,295759636
63,4,4,T1_SMS_5,31,5,42,127,295784804
63,4,4,T1_SMS_5,32,1,48,63,296267164
63,4,4,T1_SMS_5,33,5,42,127,296284572
63,4,4,T1_SMS_5,34,5,42,127,296785172
63,4,4,T1_SMS_5,35,1,48,54,296798244
63,4,4,T1_SMS_5,36,5,42,127,297285064
63,4,4,T1_SMS_5,37,1,48,58,297294196
63,4,4,T1_SMS_5,38,5,42,127,297784612
63,4,4,T1_SMS_5,39,1,48,56,297803660
63,4,4,T1_SMS_5,40,5,42,127,298285428
63,4,4,T1_SMS_5,41,1,48,52,298293560
63,4,4,T1_SMS_5,42,1,48,58,298780072
63,4,4,T1_SMS_5,43,5,42,127,298785192
63,4,4,T1_SMS_5,44,1,48,60,299272660
63,4,4,T1_SMS_5,45,5,42,127,299285036
63,4,4,T1_SMS_5,46,5,42,127,299784440
63,4,4,T1_SMS_5,47,1,48,52,299802220
63,4,4,T1_SMS_5,48,5,42,127,300285180
63,4,4,T1_SMS_5,49,1,48,56,300298920
63,4,4,T1_SMS_5,50,5,42,127,300785024
63,4,4,T1_SMS_5,51,1,48,60,300792408
63,4,4,T1_SMS_5,52,5,42,127,301284644
63,4,4,T1_SMS_5,53,1,48,59,301287692
63,4,4,T1_SMS_5,54,5,42,127,301784340
63,4,4,T1_SMS_5,55,1,48,58,301804812
63,4,4,T1_SMS_5,56,5,42,127,302285156
63,4,4,T1_SMS_5,57,1,48,51,302313780
63,4,4,T1_SMS_5,58,1,48,57,302763196
63,4,4,T1_SMS_5,59,5,42,127,302784916
63,4,4,T1_SMS_5,60,1,48,54,303253836
63,4,4,T1_SMS_5,61,5,42,127,303284612
63,4,4,T1_SMS_5,62,1,48,53,303777544
63,4,4,T1_SMS_5,63,5,42,127,303785356
63,4,4,T1_SMS_5,64,1,48,61,304246120
63,4,4,T1_SMS_5,65,5,42,127,304285124
63,4,4,T1_SMS_5,66,1,48,54,304761524
63,4,4,T1_SMS_5,67,5,42,127,304784596
63,4,4,T1_SMS_5,68,5,42,127,305284596
63,4,4,T1_SMS_5,69,1,48,44,305287196
63,4,4,T1_SMS_5,70,1,48,57,305784212
63,4,4,T1_SMS_5,71,5,42,127,305785932
63,4,4,T1_SMS_5,72,5,42,127,306284956
63,4,4,T1_SMS_5,73,1,48,54,306291220
63,4,4,T1_SMS_5,74,5,42,127,306784580
63,4,4,T1_SMS_5,75,1,48,55,306799144
63,4,4,T1_SMS_5,76,1,48,56,307261992
63,4,4,T1_SMS_5,77,5,42,127,307285236
63,4,4,T1_SMS_5,78,1,48,56,307744556
63,4,4,T1_SMS_5,79,5,42,127,307784984
63,4,4,T1_SMS_5,80,1,48,54,308269088
63,4,4,T1_SMS_5,81,5,42,127,308284824
63,4,4,T1_SMS_5,82,1,48,52,308754116
63,4,4,T1_SMS_5,83,5,42,127,308784596
63,4,4,T1_SMS_5,84,1,48,56,309273112
63,4,4,T1_SMS_5,85,5,42,127,309285264
63,4,4,T1_SMS_5,86,5,42,127,309784964
63,4,4,T1_SMS_5,87,1,48,52,309796088
63,4,4,T1_SMS_5,88,1,48,55,310283380
63,4,4,T1_SMS_5,89,5,42,127,310284800
63,4,4,T1_SMS_5,90,5,42,127,310785476
63,4,4,T1_SMS_5,91,1,48,54,310789716
63,4,4,T1_SMS_5,92,5,42,127,311285244
63,4,4,T1_SMS_5,93,1,48,51,311301232
63,4,4,T1_SMS_5,94,1,48,49,311770464
63,4,4,T1_SMS_5,95,5,42,127,311785004
63,4,4,T1_SMS_5,96,5,42,127,312284484
63,4,4,T1_SMS_5,97,1,48,52,312301964
63,4,4,T1_SMS_5,98,5,42,127,312785372
63,4,4,T1_SMS_5,99,1,48,51,312803300
63,4,4,T1_SMS_5,100,1,48,50,313278600
63,4,4,T1_SMS_5,101,5,42,127,313284912
63,4,4,T1_SMS_5,102,5,42,127,313784612
63,4,4,T1_SMS_5,103,1,48,51,313802168
63,4,4,T1_SMS_5,104,1,48,44,314274848
63,4,4,T1_SMS_5,105,5,42,127,314285348
63,4,4,T1_SMS_5,106,1,48,43,314785128
63,4,4,T1_SMS_5,107,5,42,127,314786540
63,4,4,T1_SMS_5,108,1,48,42,315281940
63,4,4,T1_SMS_5,109,5,42,127,315284964
63,4,4,T1_SMS_5,110,1,48,51,315778864
63,4,4,T1_SMS_5,111,5,42,127,315784732
63,4,4,T1_SMS_5,112,1,48,54,316276092
63,4,4,T1_SMS_5,113,5,42,127,316285400
63,4,4,T1_SMS_5,114,5,42,127,316784876
63,4,4,T1_SMS_5,115,1,48,49,316807968
63,4,4,T1_SMS_5,116,5,42,127,317284944
63,4,4,T1_SMS_5,117,1,48,50,317285912
63,4,4,T1_SMS_5,118,1,48,44,317783440
63,4,4,T1_SMS_5,119,5,42,127,317784932
63,4,4,T1_SMS_5,120,1,48,48,318275368
63,4,4,T1_SMS_5,121,5,42,127,318285152
63,4,4,T1_SMS_5,122,5,42,127,318784980
63,4,4,T1_SMS_5,123,1,48,46,318805700
63,4,4,T1_SMS_5,124,1,48,43,319270272
63,4,4,T1_SMS_5,125,5,42,127,319284816
63,4,4,T1_SMS_5,126,5,42,127,319785192
63,4,4,T1_SMS_5,127,1,48,48,319805284
63,4,4,T1_SMS_5,128,1,48,54,320278788
63,4,4,T1_SMS_5,129,5,42,127,320285028
63,4,4,T1_SMS_5,130,1,48,54,320757688
63,4,4,T1_SMS_5,131,5,42,127,320785024
63,4,4,T1_SMS_5,132,5,42,127,321284724
63,4,4,T1_SMS_5,133,1,48,53,321289716
63,4,4,T1_SMS_5,134,5,42,127,321785240
63,4,4,T1_SMS_5,135,1,48,53,321794792
63,4,4,T1_SMS_5,136,1,48,51,322284788
63,4,4,T1_SMS_5,137,5,42,127,322286272
63,4,4,T1_SMS_5,138,5,42,127,322784852
63,4,4,T1_SMS_5,139,1,48,51,322792468
63,4,4,T1_SMS_5,140,1,48,55,323278752
63,4,4,T1_SMS_5,141,5,42,127,323285292
63,4,4,T1_SMS_5,142,5,42,127,323785068
63,4,4,T1_SMS_5,143,1,48,45,323795072
63,4,4,T1_SMS_5,144,5,42,127,324284764
63,4,4,T1_SMS_5,145,1,48,63,324290052
63,4,4,T1_SMS_5,146,5,42,127,324784756
63,4,4,T1_SMS_5,147,1,48,56,324786096
63,4,4,T1_SMS_5,148,5,42,127,325285200
63,4,4,T1_SMS_5,149,1,48,50,325289372
63,4,4,T1_SMS_5,150,5,42,127,325784972
63,4,4,T1_SMS_5,151,1,48,54,325787640
63,4,4,T1_SMS_5,152,5,42,127,326284888
63,4,4,T1_SMS_5,153,1,48,62,326310004
63,4,4,T1_SMS_5,154,5,42,127,326785332
63,4,4,T1_SMS_5,155,1,48,55,326788680
63,4,4,T1_SMS_5,156,1,48,56,327276380
63,4,4,T1_SMS_5,157,5,42,127,327285172
63,4,4,T1_SMS_5,158,1,48,52,327772792
63,4,4,T1_SMS_5,159,5,42,127,327784940
63,4,4,T1_SMS_5,160,1,48,49,328262740
63,4,4,T1_SMS_5,161,5,42,127,328284784
63,4,4,T1_SMS_5,162,1,48,50,328774920
63,4,4,T1_SMS_5,163,5,42,127,328785228
63,4,4,T1_SMS_5,164,1,48,48,329282620
63,4,4,T1_SMS_5,165,5,42,127,329284972
63,4,4,T1_SMS_5,166,5,42,127,329784672
63,4,4,T1_SMS_5,167,1,48,53,329789812
63,4,4,T1_SMS_5,168,5,42,127,330285640
63,4,4,T1_SMS_5,169,1,48,53,330294372
63,4,4,T1_SMS_5,170,5,42,127,330785036
63,4,4,T1_SMS_5,171,1,48,53,330794884
63,4,4,T1_SMS_5,172,1,48,49,331275784
63,4,4,T1_SMS_5,173,5,42,127,331284796
63,4,4,T1_SMS_5,174,1,48,51,331782756
63,4,4,T1_SMS_5,175,5,42,127,331784568
63,4,4,T1_SMS_5,176,1,48,54,332284712
63,4,4,T1_SMS_5,177,5,42,127,332286280
63,4,4,T1_SMS_5,178,5,42,127,332785008
63,4,4,T1_SMS_5,179,1,48,51,332804288
63,4,4,T1_SMS_5,180,1,48,53,333281148
63,4,4,T1_SMS_5,181,5,42,127,333284772
63,4,4,T1_SMS_5,182,1,48,54,333782352
63,4,4,T1_SMS_5,183,5,42,127,333784392
63,4,4,T1_SMS_5,184,1,48,53,334275520
63,4,4,T1_SMS_5,185,5,42,127,334285132
63,4,4,T1_SMS_5,186,5,42,127,334784760
63,4,4,T1_SMS_5,187,1,48,55,334802020
63,4,4,T1_SMS_5,188,1,48,52,335280972
63,4,4,T1_SMS_5,189,5,42,127,335284596
63,4,4,T1_SMS_5,190,1,48,55,335778128
63,4,4,T1_SMS_5,191,5,42,127,335785340
63,4,4,T1_SMS_5,192,1,48,57,336268620
63,4,4,T1_SMS_5,193,5,42,127,336284960
63,4,4,T1_SMS_5,194,1,48,58,336773920
63,4,4,T1_SMS_5,195,5,42,127,336784652
63,4,4,T1_SMS_5,196,5,42,127,337284360
63,4,4,T1_SMS_5,197,1,48,50,337292188
63,4,4,T1_SMS_5,198,1,48,55,337775636
63,4,4,T1_SMS_5,199,5,42,127,337785316
63,4,4,T1_SMS_5,200,1,48,60,338257232
63,4,4,T1_SMS_5,201,5,42,127,338284860
63,4,4,T1_SMS_5,202,1,48,56,338778540
63,4,4,T1_SMS_5,203,5,42,127,338784556
63,4,4,T1_SMS_5,204,1,48,51,339278532
63,4,4,T1_SMS_5,205,5,42,127,339285372
63,4,4,T1_SMS_5,206,5,42,127,339784976
63,4,4,T1_SMS_5,207,1,48,46,339788492
63,4,4,T1_SMS_5,208,1,48,60,340281784
63,4,4,T1_SMS_5,209,5,42,127,340284808
63,4,4,T1_SMS_5,210,5,42,127,340784364
63,4,4,T1_SMS_5,211,1,48,58,340809620
63,4,4,T1_SMS_5,212,1,48,54,341275692
63,4,4,T1_SMS_5,213,5,42,127,341285220
63,4,4,T1_SMS_5,214,1,48,54,341779576
63,4,4,T1_SMS_5,215,5,42,127,341784916
63,4,4,T1_SMS_5,216,5,42,127,342284544
63,4,4,T1_SMS_5,217,1,48,56,342285508
63,4,4,T1_SMS_5,218,5,42,127,342785360
63,4,4,T1_SMS_5,219,1,48,58,342789604
63,4,4,T1_SMS_5,220,5,42,127,343285352
63,4,4,T1_SMS_5,221,1,48,54,343308144
63,4,4,T1_SMS_5,222,1,48,51,343755384
63,4,4,T1_SMS_5,223,5,42,127,343784740
63,4,4,T1_SMS_5,224,5,42,127,344284592
63,4,4,T1_SMS_5,225,1,48,53,344296840
63,4,4,T1_SMS_5,226,5,42,127,344785408
63,4,4,T1_SMS_5,227,1,48,58,344811568
63,4,4,T1_SMS_5,228,1,48,48,345262252
63,4,4,T1_SMS_5,229,5,42,127,345285244
63,4,4,T1_SMS_5,230,5,42,127,345784648
63,4,4,T1_SMS_5,231,1,48,52,345794648
63,4,4,T1_SMS_5,232,5,42,127,346285388
63,4,4,T1_SMS_5,233,1,48,54,346316256
63,4,4,T1_SMS_5,234,5,42,127,346785308
63,4,4,T1_SMS_5,235,1,48,52,346813636
63,4,4,T1_SMS_5,236,5,42,127,347284780
63,4,4,T1_SMS_5,237,1,48,52,347313628
63,4,4,T1_SMS_5,238,5,42,127,347784548
63,4,4,T1_SMS_5,239,1,48,54,347800456
63,4,4,T1_SMS_5,240,5,42,127,348285364
63,4,4,T1_SMS_5,241,1,48,51,348305764
63,4,4,T1_SMS_5,242,5,42,127,348785360
63,4,4,T1_SMS_5,243,1,48,49,348791324
63,4,4,T1_SMS_5,244,5,42,127,349284680
63,4,4,T1_SMS_5,245,1,48,46,349307548
63,4,4,T1_SMS_5,246,5,42,127,349784376
63,4,4,T1_SMS_5,247,1,48,50,349787424
63,4,4,T1_SMS_5,248,1,48,47,350280268
63,4,4,T1_SMS_5,249,5,42,127,350285336
63,4,4,T1_SMS_5,250,1,48,54,350775920
63,4,4,T1_SMS_5,251,5,42,127,350784856
63,4,4,T1_SMS_5,252,1,48,49,351230368
63,4,4,T1_SMS_5,253,5,42,127,351284476
63,4,4,T1_SMS_5,254,1,48,53,351769780
63,4,4,T1_SMS_5,255,5,42,127,351785220
63,4,4,T1_SMS_5,256,1,48,46,352254216
63,4,4,T1_SMS_5,257,5,42,127,352285284
63,4,4,T1_SMS_5,0,9999,9999,9999,287783016
63,4,4,T1_SMS_5,1,9999,9999,9999,288282732
63,4,4,T1_SMS_5,2,9999,9999,9999,288782452
63,4,4,T1_SMS_5,3,9999,9999,9999,289282140
63,4,4,T1_SMS_5,4,9999,9999,9999,289782880
63,4,4,T1_SMS_5,5,9999,9999,9999,290282576
63,4,4,T1_SMS_5,6,9999,9999,9999,290782272
63,4,4,T1_SMS_5,7,9999,9999,9999,291283016
63,4,4,T1_SMS_5,8,9999,9999,9999,291782712
63,4,4,T1_SMS_5,9,9999,9999,9999,292282480
63,4,4,T1_SMS_5,10,9999,9999,9999,292782176
63,4,4,T1_SMS_5,11,9999,9999,9999,293282916
63,4,4,T1_SMS_5,12,9999,9999,9999,293782612
63,4,4,T1_SMS_5,13,9999,9999,9999,294282308
63,4,4,T1_SMS_5,14,9999,9999,9999,294783052
63,4,4,T1_SMS_5,15,9999,9999,9999,295282744
63,4,4,T1_SMS_5,16,9999,9999,9999,295782516
63,4,4,T1_SMS_5,17,9999,9999,9999,296282212
63,4,4,T1_SMS_5,18,9999,9999,9999,296782960
63,4,4,T1_SMS_5,19,9999,9999,9999,297282628
63,4,4,T1_SMS_5,20,9999,9999,9999,297782324
63,4,4,T1_SMS_5,21,9999,9999,9999,298283068
63,4,4,T1_SMS_5,22,9999,9999,9999,298782832
63,4,4,T1_SMS_5,23,9999,9999,9999,299282524
63,4,4,T1_SMS_5,24,9999,9999,9999,299782228
63,4,4,T1_SMS_5,25,9999,9999,9999,300282968
63,4,4,T1_SMS_5,26,9999,9999,9999,300782664
63,4,4,T1_SMS_5,27,9999,9999,9999,301282356
63,4,4,T1_SMS_5,28,9999,9999,9999,301782128
63,4,4,T1_SMS_5,29,9999,9999,9999,302282868
63,4,4,T1_SMS_5,30,9999,9999,9999,302782556
63,4,4,T1_SMS_5,31,9999,9999,9999,303282252
63,4,4,T1_SMS_5,32,9999,9999,9999,303782992
63,4,4,T1_SMS_5,33,9999,9999,9999,304282688
63,4,4,T1_SMS_5,34,9999,9999,9999,304782384
63,4,4,T1_SMS_5,35,9999,9999,9999,305282160
63,4,4,T1_SMS_5,36,9999,9999,9999,305782900
63,4,4,T1_SMS_5,37,9999,9999,9999,306282596
63,4,4,T1_SMS_5,38,9999,9999,9999,306782292
63,4,4,T1_SMS_5,39,9999,9999,9999,307283024
63,4,4,T1_SMS_5,40,9999,9999,9999,307782772
63,4,4,T1_SMS_5,41,9999,9999,9999,308282464
63,4,4,T1_SMS_5,42,9999,9999,9999,308782160
63,4,4,T1_SMS_5,43,9999,9999,9999,309282900
63,4,4,T1_SMS_5,44,9999,9999,9999,309782600
63,4,4,T1_SMS_5,45,9999,9999,9999,310282296
63,4,4,T1_SMS_5,46,9999,9999,9999,310783040
63,4,4,T1_SMS_5,47,9999,9999,9999,311282808
63,4,4,T1_SMS_5,48,9999,9999,9999,311782496
63,4,4,T1_SMS_5,49,9999,9999,9999,312282196
63,4,4,T1_SMS_5,50,9999,9999,9999,312782936
63,4,4,T1_SMS_5,51,9999,9999,9999,313282628
63,4,4,T1_SMS_5,52,9999,9999,9999,313782328
63,4,4,T1_SMS_5,53,9999,9999,9999,314283064
63,4,4,T1_SMS_5,54,9999,9999,9999,314782840
63,4,4,T1_SMS_5,55,9999,9999,9999,315282528
63,4,4,T1_SMS_5,56,9999,9999,9999,315782224
63,4,4,T1_SMS_5,57,9999,9999,9999,316282964
63,4,4,T1_SMS_5,58,9999,9999,9999,316782664
63,4,4,T1_SMS_5,59,9999,9999,9999,317282360
63,4,4,T1_SMS_5,60,9999,9999,9999,317782132
63,4,4,T1_SMS_5,61,9999,9999,9999,318282868
63,4,4,T1_SMS_5,62,9999,9999,9999,318782544
63,4,4,T1_SMS_5,63,9999,9999,9999,319282232
63,4,4,T1_SMS_5,64,9999,9999,9999,319782980
63,4,4,T1_SMS_5,65,9999,9999,9999,320282740
63,4,4,T1_SMS_5,66,9999,9999,9999,320782436
63,4,4,T1_SMS_5,67,9999,9999,9999,321282140
63,4,4,T1_SMS_5,68,9999,9999,9999,321782880
63,4,4,T1_SMS_5,69,9999,9999,9999,322282576
63,4,4,T1_SMS_5,70,9999,9999,9999,322782268
63,4,4,T1_SMS_5,71,9999,9999,9999,323283008
63,4,4,T1_SMS_5,72,9999,9999,9999,323782708
63,4,4,T1_SMS_5,73,9999,9999,9999,324282476
63,4,4,T1_SMS_5,74,9999,9999,9999,324782172
63,4,4,T1_SMS_5,75,9999,9999,9999,325282916
63,4,4,T1_SMS_5,76,9999,9999,9999,325782608
63,4,4,T1_SMS_5,77,9999,9999,9999,326282304
63,4,4,T1_SMS_5,78,9999,9999,9999,326783048
63,4,4,T1_SMS_5,79,9999,9999,9999,327282808
63,4,4,T1_SMS_5,80,9999,9999,9999,327782504
63,4,4,T1_SMS_5,81,9999,9999,9999,328282200
63,4,4,T1_SMS_5,82,9999,9999,9999,328782940
63,4,4,T1_SMS_5,83,9999,9999,9999,329282684
63,4,4,T1_SMS_5,84,9999,9999,9999,329782384
63,4,4,T1_SMS_5,85,9999,9999,9999,330283128
63,4,4,T1_SMS_5,86,9999,9999,9999,330782824
63,4,4,T1_SMS_5,87,9999,9999,9999,331282508
63,4,4,T1_SMS_5,88,9999,9999,9999,331782232
63,4,4,T1_SMS_5,89,9999,9999,9999,332282952
63,4,4,T1_SMS_5,90,9999,9999,9999,332782648
63,4,4,T1_SMS_5,91,9999,9999,9999,333282412
63,4,4,T1_SMS_5,92,9999,9999,9999,333782068
63,4,4,T1_SMS_5,93,9999,9999,9999,334282848
63,4,4,T1_SMS_5,94,9999,9999,9999,334782548
63,4,4,T1_SMS_5,95,9999,9999,9999,335282236
63,4,4,T1_SMS_5,96,9999,9999,9999,335782980
63,4,4,T1_SMS_5,97,9999,9999,9999,336282672
63,4,4,T1_SMS_5,98,9999,9999,9999,336782440
63,4,4,T1_SMS_5,99,9999,9999,9999,337282144
63,4,4,T1_SMS_5,100,9999,9999,9999,337782880
63,4,4,T1_SMS_5,101,9999,9999,9999,338282576
63,4,4,T1_SMS_5,102,9999,9999,9999,338782272
63,4,4,T1_SMS_5,103,9999,9999,9999,339283012
63,4,4,T1_SMS_5,104,9999,9999,9999,339782760
63,4,4,T1_SMS_5,105,9999,9999,9999,340282448
63,4,4,T1_SMS_5,106,9999,9999,9999,340782152
63,4,4,T1_SMS_5,107,9999,9999,9999,341282936
63,4,4,T1_SMS_5,108,9999,9999,9999,341782628
63,4,4,T1_SMS_5,109,9999,9999,9999,342282328
63,4,4,T1_SMS_5,110,9999,9999,9999,342783072
63,4,4,T1_SMS_5,111,9999,9999,9999,343282768
63,4,4,T1_SMS_5,112,9999,9999,9999,343782456
63,4,4,T1_SMS_5,113,9999,9999,9999,344282232
63,4,4,T1_SMS_5,114,9999,9999,9999,344782896
63,4,4,T1_SMS_5,115,9999,9999,9999,345282660
63,4,4,T1_SMS_5,116,9999,9999,9999,345782360
63,4,4,T1_SMS_5,117,9999,9999,9999,346283100
63,4,4,T1_SMS_5,118,9999,9999,9999,346782796
63,4,4,T1_SMS_5,119,9999,9999,9999,347282492
63,4,4,T1_SMS_5,120,9999,9999,9999,347782264
63,4,4,T1_SMS_5,121,9999,9999,9999,348282928
63,4,4,T1_SMS_5,122,9999,9999,9999,348782700
63,4,4,T1_SMS_5,123,9999,9999,9999,349282396
63,4,4,T1_SMS_5,124,9999,9999,9999,349782092
63,4,4,T1_SMS_5,125,9999,9999,9999,350282828
63,4,4,T1_SMS_5,126,9999,9999,9999,350782572
63,4,4,T1_SMS_5,127,9999,9999,9999,351282264
63,4,4,T1_SMS_5,128,9999,9999,9999,351783008
63,4,4,T1_SMS_5,129,9999,9999,9999,352282704
63,5,2,T1_SMS_8,0,5,42,127,403236280
63,5,2,T1_SMS_8,1,1,48,47,403812352
63,5,2,T1_SMS_8,2,5,42,127,404036164
63,5,2,T1_SMS_8,3,5,42,127,404835548
63,5,2,T1_SMS_8,4,1,48,39,404841208
63,5,2,T1_SMS_8,5,1,48,26,404925708
63,5,2,T1_SMS_8,6,5,42,127,405635408
63,5,2,T1_SMS_8,7,1,48,44,405668224
63,5,2,T1_SMS_8,8,5,42,127,406436336
63,5,2,T1_SMS_8,9,1,48,41,406462120
63,5,2,T1_SMS_8,10,1,48,49,407233872
63,5,2,T1_SMS_8,11,5,42,127,407236060
63,5,2,T1_SMS_8,12,1,48,55,408022076
63,5,2,T1_SMS_8,13,5,42,127,408035868
63,5,2,T1_SMS_8,14,1,48,47,408799068
63,5,2,T1_SMS_8,15,5,42,127,408835380
63,5,2,T1_SMS_8,16,1,48,52,409611520
63,5,2,T1_SMS_8,17,5,42,127,409636160
63,5,2,T1_SMS_8,18,5,42,127,410436048
63,5,2,T1_SMS_8,19,1,48,51,410441264
63,5,2,T1_SMS_8,20,5,42,127,411235856
63,5,2,T1_SMS_8,21,1,48,48,411252664
63,5,2,T1_SMS_8,22,5,42,127,412035440
63,5,2,T1_SMS_8,23,1,48,45,412039240
63,5,2,T1_SMS_8,24,1,48,44,412802524
63,5,2,T1_SMS_8,25,5,42,127,412836140
63,5,2,T1_SMS_8,26,5,42,127,413635804
63,5,2,T1_SMS_8,27,1,48,46,413654856
63,5,2,T1_SMS_8,28,5,42,127,414435912
63,5,2,T1_SMS_8,29,1,48,45,414448836
63,5,2,T1_SMS_8,30,5,42,127,415235420
63,5,2,T1_SMS_8,31,1,48,50,415250356
63,5,2,T1_SMS_8,32,5,42,127,416036052
63,5,2,T1_SMS_8,33,1,48,47,416070388
63,5,2,T1_SMS_8,34,1,48,51,416827144
63,5,2,T1_SMS_8,35,5,42,127,416835852
63,5,2,T1_SMS_8,36,1,48,49,417604036
63,5,2,T1_SMS_8,37,5,42,127,417636032
63,5,2,T1_SMS_8,38,5,42,127,418435476
63,5,2,T1_SMS_8,39,1,48,54,418459164
63,5,2,T1_SMS_8,40,5,42,127,419236180
63,5,2,T1_SMS_8,41,1,48,48,419250448
63,5,2,T1_SMS_8,42,5,42,127,420035840
63,5,2,T1_SMS_8,43,1,48,52,420053764
63,5,2,T1_SMS_8,44,1,48,48,420814964
63,5,2,T1_SMS_8,45,5,42,127,420835788
63,5,2,T1_SMS_8,46,1,48,48,421605116
63,5,2,T1_SMS_8,47,5,42,127,421635744
63,5,2,T1_SMS_8,48,5,42,127,422436236
63,5,2,T1_SMS_8,49,1,48,46,422458952
63,5,2,T1_SMS_8,50,5,42,127,423235820
63,5,2,T1_SMS_8,51,1,48,51,423259684
63,5,2,T1_SMS_8,52,5,42,127,424035576
63,5,2,T1_SMS_8,53,1,48,51,424085440
63,5,2,T1_SMS_8,54,1,48,49,424804152
63,5,2,T1_SMS_8,55,5,42,127,424835528
63,5,2,T1_SMS_8,56,5,42,127,425636164
63,5,2,T1_SMS_8,57,1,48,57,425638684
63,5,2,T1_SMS_8,58,1,48,48,426403996
63,5,2,T1_SMS_8,59,5,42,127,426436040
63,5,2,T1_SMS_8,60,1,48,52,427231852
63,5,2,T1_SMS_8,61,5,42,127,427235624
63,5,2,T1_SMS_8,62,1,48,54,428017824
63,5,2,T1_SMS_8,63,5,42,127,428035504
63,5,2,T1_SMS_8,64,5,42,127,428836292
63,5,2,T1_SMS_8,65,1,48,52,428837936
63,5,2,T1_SMS_8,66,5,42,127,429635952
63,5,2,T1_SMS_8,67,1,48,54,429653308
63,5,2,T1_SMS_8,68,1,48,51,430421160
63,5,2,T1_SMS_8,69,5,42,127,430435704
63,5,2,T1_SMS_8,70,5,42,127,431235516
63,5,2,T1_SMS_8,71,1,48,58,431258684
63,5,2,T1_SMS_8,72,1,48,51,432004916
63,5,2,T1_SMS_8,73,5,42,127,432036068
63,5,2,T1_SMS_8,74,5,42,127,432835956
63,5,2,T1_SMS_8,75,1,48,56,432870720
63,5,2,T1_SMS_8,76,5,42,127,433635692
63,5,2,T1_SMS_8,77,1,48,53,433651600
63,5,2,T1_SMS_8,78,5,42,127,434435424
63,5,2,T1_SMS_8,79,1,48,59,434481180
63,5,2,T1_SMS_8,80,5,42,127,435236428
63,5,2,T1_SMS_8,81,1,48,55,435242392
63,5,2,T1_SMS_8,82,1,48,51,436013312
63,5,2,T1_SMS_8,83,5,42,127,436036004
63,5,2,T1_SMS_8,84,1,48,55,436802772
63,5,2,T1_SMS_8,85,5,42,127,436835664
63,5,2,T1_SMS_8,86,5,42,127,437635404
63,5,2,T1_SMS_8,87,1,48,51,437647200
63,5,2,T1_SMS_8,88,1,48,46,438396952
63,5,2,T1_SMS_8,89,5,42,127,438436476
63,5,2,T1_SMS_8,90,1,48,58,439227128
63,5,2,T1_SMS_8,91,5,42,127,439235836
63,5,2,T1_SMS_8,92,1,48,58,440004796
63,5,2,T1_SMS_8,93,5,42,127,440035572
63,5,2,T1_SMS_8,94,1,48,51,440808196
63,5,2,T1_SMS_8,95,5,42,127,440835452
63,5,2,T1_SMS_8,96,1,48,49,441635712
63,5,2,T1_SMS_8,97,5,42,127,441637208
63,5,2,T1_SMS_8,98,1,48,51,442421352
63,5,2,T1_SMS_8,99,5,42,127,442435816
63,5,2,T1_SMS_8,100,5,42,127,443235560
63,5,2,T1_SMS_8,101,1,48,53,443245036
63,5,2,T1_SMS_8,102,1,48,56,444024628
63,5,2,T1_SMS_8,103,5,42,127,444035360
63,5,2,T1_SMS_8,104,1,48,52,444824216
63,5,2,T1_SMS_8,105,5,42,127,444836288
63,5,2,T1_SMS_8,106,1,48,51,445599940
63,5,2,T1_SMS_8,107,5,42,127,445636320
63,5,2,T1_SMS_8,108,5,42,127,446435688
63,5,2,T1_SMS_8,109,1,48,55,446448984
63,5,2,T1_SMS_8,110,1,48,54,447235272
63,5,2,T1_SMS_8,111,5,42,127,447236616
63,5,2,T1_SMS_8,112,5,42,127,448036052
63,5,2,T1_SMS_8,113,1,48,51,448041192
63,5,2,T1_SMS_8,114,1,48,53,448834192
63,5,2,T1_SMS_8,115,5,42,127,448835856
63,5,2,T1_SMS_8,116,1,48,43,449630248
63,5,2,T1_SMS_8,117,5,42,127,449635660
63,5,2,T1_SMS_8,118,1,48,50,450427140
63,5,2,T1_SMS_8,119,5,42,127,450435468
63,5,2,T1_SMS_8,120,1,48,46,451217672
63,5,2,T1_SMS_8,121,5,42,127,451236176
63,5,2,T1_SMS_8,122,5,42,127,452035988
63,5,2,T1_SMS_8,123,1,48,54,452044344
63,5,2,T1_SMS_8,124,5,42,127,452835648
63,5,2,T1_SMS_8,125,1,48,50,452864944
63,5,2,T1_SMS_8,126,1,48,52,453633564
63,5,2,T1_SMS_8,127,5,42,127,453635376
63,5,2,T1_SMS_8,128,1,48,54,454422736
63,5,2,T1_SMS_8,129,5,42,127,454436080
63,5,2,T1_SMS_8,130,1,48,56,455227328
63,5,2,T1_SMS_8,131,5,42,127,455236060
63,5,2,T1_SMS_8,132,1,48,43,456034752
63,5,2,T1_SMS_8,133,5,42,127,456036092
63,5,2,T1_SMS_8,134,5,42,127,456835312
63,5,2,T1_SMS_8,135,1,48,48,456836284
63,5,2,T1_SMS_8,136,5,42,127,457636240
63,5,2,T1_SMS_8,137,1,48,43,457639964
63,5,2,T1_SMS_8,138,5,42,127,458435976
63,5,2,T1_SMS_8,139,1,48,44,458461160
63,5,2,T1_SMS_8,140,1,48,46,459230288
63,5,2,T1_SMS_8,141,5,42,127,459235628
63,5,2,T1_SMS_8,142,1,48,43,460021268
63,5,2,T1_SMS_8,143,5,42,127,460035360
63,5,2,T1_SMS_8,144,5,42,127,460836148
63,5,2,T1_SMS_8,145,1,48,45,460864700
63,5,2,T1_SMS_8,146,1,48,43,461623872
63,5,2,T1_SMS_8,147,5,42,127,461635900
63,5,2,T1_SMS_8,148,5,42,127,462435788
63,5,2,T1_SMS_8,149,1,48,43,462446916
63,5,2,T1_SMS_8,150,5,42,127,463235372
63,5,2,T1_SMS_8,151,1,48,47,463238792
63,5,2,T1_SMS_8,152,5,42,127,464036080
63,5,2,T1_SMS_8,153,1,48,47,464068220
63,5,2,T1_SMS_8,154,5,42,127,464836112
63,5,2,T1_SMS_8,155,1,48,49,464840956
63,5,2,T1_SMS_8,156,5,42,127,465635696
63,5,2,T1_SMS_8,157,1,48,51,465654072
63,5,2,T1_SMS_8,158,1,48,27,466356256
63,5,2,T1_SMS_8,159,5,42,127,466435348
63,5,2,T1_SMS_8,160,1,48,26,466454760
63,5,2,T1_SMS_8,161,5,42,127,467236112
63,5,2,T1_SMS_8,162,1,48,29,467325052
63,5,2,T1_SMS_8,163,1,48,51,467980312
63,5,2,T1_SMS_8,164,5,42,127,468035940
63,5,2,T1_SMS_8,165,1,48,45,468798520
63,5,2,T1_SMS_8,166,5,42,127,468835748
63,5,2,T1_SMS_8,167,1,48,46,469625796
63,5,2,T1_SMS_8,168,5,42,127,469635404
63,5,2,T1_SMS_8,169,5,42,127,470436120
63,5,2,T1_SMS_8,170,1,48,41,470447692
63,5,2,T1_SMS_8,171,5,42,127,471235924
63,5,2,T1_SMS_8,172,1,48,43,471243752
63,5,2,T1_SMS_8,173,1,48,46,472034292
63,5,2,T1_SMS_8,174,5,42,127,472035876
63,5,2,T1_SMS_8,175,5,42,127,472835316
63,5,2,T1_SMS_8,176,1,48,40,472845240
63,5,2,T1_SMS_8,177,5,42,127,473636320
63,5,2,T1_SMS_8,178,1,48,44,473651560
63,5,2,T1_SMS_8,179,5,42,127,474435856
63,5,2,T1_SMS_8,180,1,48,49,474459172
63,5,2,T1_SMS_8,181,5,42,127,475235812
63,5,2,T1_SMS_8,182,1,48,43,475245812
63,5,2,T1_SMS_8,183,1,48,41,475999228
63,5,2,T1_SMS_8,184,5,42,127,476035612
63,5,2,T1_SMS_8,185,1,48,40,476816312
63,5,2,T1_SMS_8,186,5,42,127,476836168
63,5,2,T1_SMS_8,187,5,42,127,477635908
63,5,2,T1_SMS_8,188,1,48,35,477657656
63,5,2,T1_SMS_8,189,5,42,127,478435792
63,5,2,T1_SMS_8,190,1,48,43,478487612
63,5,2,T1_SMS_8,191,1,48,36,479221572
63,5,2,T1_SMS_8,192,5,42,127,479235592
63,5,2,T1_SMS_8,193,1,48,38,480002312
63,5,2,T1_SMS_8,194,5,42,127,480036372
63,5,2,T1_SMS_8,195,1,48,43,480814608
63,5,2,T1_SMS_8,196,5,42,127,480835912
63,5,2,T1_SMS_8,197,1,48,49,481582256
63,5,2,T1_SMS_8,198,5,42,127,481635568
63,5,2,T1_SMS_8,199,1,48,40,482417468
63,5,2,T1_SMS_8,200,5,42,127,482435600
63,5,2,T1_SMS_8,201,5,42,127,483236088
63,5,2,T1_SMS_8,202,1,48,35,483251172
63,5,2,T1_SMS_8,203,1,48,38,484018128
63,5,2,T1_SMS_8,204,5,42,127,484035888
63,5,2,T1_SMS_8,205,5,42,127,484835556
63,5,2,T1_SMS_8,206,1,48,45,484868968
63,5,2,T1_SMS_8,207,1,48,40,485619316
63,5,2,T1_SMS_8,208,5,42,127,485635728
63,5,2,T1_SMS_8,209,1,48,40,486408952
63,5,2,T1_SMS_8,210,5,42,127,486436064
63,5,2,T1_SMS_8,211,5,42,127,487235904
63,5,2,T1_SMS_8,212,1,48,45,487276724
63,5,2,T1_SMS_8,213,1,48,47,488020712
63,5,2,T1_SMS_8,214,5,42,127,488035704
63,5,2,T1_SMS_8,215,1,48,45,488816404
63,5,2,T1_SMS_8,216,5,42,127,488835436
63,5,2,T1_SMS_8,217,1,48,46,489632220
63,5,2,T1_SMS_8,218,5,42,127,489636140
63,5,2,T1_SMS_8,219,5,42,127,490435956
63,5,2,T1_SMS_8,220,1,48,41,490451788
63,5,2,T1_SMS_8,221,1,48,48,491195780
63,5,2,T1_SMS_8,222,5,42,127,491235832
63,5,2,T1_SMS_8,223,5,42,127,492035496
63,5,2,T1_SMS_8,224,1,48,40,492092548
63,5,2,T1_SMS_8,225,5,42,127,492836204
63,5,2,T1_SMS_8,226,1,48,44,492861088
63,5,2,T1_SMS_8,227,1,48,40,493613680
63,5,2,T1_SMS_8,228,5,42,127,493635880
63,5,2,T1_SMS_8,229,5,42,127,494435696
63,5,2,T1_SMS_8,230,1,48,42,494440760
63,5,2,T1_SMS_8,231,1,48,45,495230896
63,5,2,T1_SMS_8,232,5,42,127,495235420
63,5,2,T1_SMS_8,233,1,48,48,496023524
63,5,2,T1_SMS_8,234,5,42,127,496036424
63,5,2,T1_SMS_8,235,5,42,127,496836164
63,5,2,T1_SMS_8,236,1,48,45,496877960
63,5,2,T1_SMS_8,237,5,42,127,497635600
63,5,2,T1_SMS_8,238,1,48,51,497674772
63,5,2,T1_SMS_8,239,5,42,127,498435336
63,5,2,T1_SMS_8,240,1,48,45,498453260
63,5,2,T1_SMS_8,0,9999,9999,9999,403233844
63,5,2,T1_SMS_8,1,9999,9999,9999,404033652
63,5,2,T1_SMS_8,2,9999,9999,9999,404833332
63,5,2,T1_SMS_8,3,9999,9999,9999,405633120
63,5,2,T1_SMS_8,4,9999,9999,9999,406433900
63,5,2,T1_SMS_8,5,9999,9999,9999,407233664
63,5,2,T1_SMS_8,6,9999,9999,9999,408033360
63,5,2,T1_SMS_8,7,9999,9999,9999,408833092
63,5,2,T1_SMS_8,8,9999,9999,9999,409633872
63,5,2,T1_SMS_8,9,9999,9999,9999,410433612
63,5,2,T1_SMS_8,10,9999,9999,9999,411233344
63,5,2,T1_SMS_8,11,9999,9999,9999,412033080
63,5,2,T1_SMS_8,12,9999,9999,9999,412833852
63,5,2,T1_SMS_8,13,9999,9999,9999,413633592
63,5,2,T1_SMS_8,14,9999,9999,9999,414433324
63,5,2,T1_SMS_8,15,9999,9999,9999,415233132
63,5,2,T1_SMS_8,16,9999,9999,9999,416033836
63,5,2,T1_SMS_8,17,9999,9999,9999,416833640
63,5,2,T1_SMS_8,18,9999,9999,9999,417633372
63,5,2,T1_SMS_8,19,9999,9999,9999,418433112
63,5,2,T1_SMS_8,20,9999,9999,9999,419233892
63,5,2,T1_SMS_8,21,9999,9999,9999,420033624
63,5,2,T1_SMS_8,22,9999,9999,9999,420833352
63,5,2,T1_SMS_8,23,9999,9999,9999,421633084
63,5,2,T1_SMS_8,24,9999,9999,9999,422433872
63,5,2,T1_SMS_8,25,9999,9999,9999,423233604
63,5,2,T1_SMS_8,26,9999,9999,9999,424033364
63,5,2,T1_SMS_8,27,9999,9999,9999,424833088
63,5,2,T1_SMS_8,28,9999,9999,9999,425633876
63,5,2,T1_SMS_8,29,9999,9999,9999,426433604
63,5,2,T1_SMS_8,30,9999,9999,9999,427233336
63,5,2,T1_SMS_8,31,9999,9999,9999,428033144
63,5,2,T1_SMS_8,32,9999,9999,9999,428833856
63,5,2,T1_SMS_8,33,9999,9999,9999,429633588
63,5,2,T1_SMS_8,34,9999,9999,9999,430433340
63,5,2,T1_SMS_8,35,9999,9999,9999,431233080
63,5,2,T1_SMS_8,36,9999,9999,9999,432033852
63,5,2,T1_SMS_8,37,9999,9999,9999,432833592
63,5,2,T1_SMS_8,38,9999,9999,9999,433633328
63,5,2,T1_SMS_8,39,9999,9999,9999,434433136
63,5,2,T1_SMS_8,40,9999,9999,9999,435233840
63,5,2,T1_SMS_8,41,9999,9999,9999,436033644
63,5,2,T1_SMS_8,42,9999,9999,9999,436833376
63,5,2,T1_SMS_8,43,9999,9999,9999,437633116
63,5,2,T1_SMS_8,44,9999,9999,9999,438433888
63,5,2,T1_SMS_8,45,9999,9999,9999,439233624
63,5,2,T1_SMS_8,46,9999,9999,9999,440033356
63,5,2,T1_SMS_8,47,9999,9999,9999,440833092
63,5,2,T1_SMS_8,48,9999,9999,9999,441633876
63,5,2,T1_SMS_8,49,9999,9999,9999,442433604
63,5,2,T1_SMS_8,50,9999,9999,9999,443233344
63,5,2,T1_SMS_8,51,9999,9999,9999,444033072
63,5,2,T1_SMS_8,52,9999,9999,9999,444833852
63,5,2,T1_SMS_8,53,9999,9999,9999,445633584
63,5,2,T1_SMS_8,54,9999,9999,9999,446433324
63,5,2,T1_SMS_8,55,9999,9999,9999,447233132
63,5,2,T1_SMS_8,56,9999,9999,9999,448033840
63,5,2,T1_SMS_8,57,9999,9999,9999,448833592
63,5,2,T1_SMS_8,58,9999,9999,9999,449633376
63,5,2,T1_SMS_8,59,9999,9999,9999,450433108
63,5,2,T1_SMS_8,60,9999,9999,9999,451233888
63,5,2,T1_SMS_8,61,9999,9999,9999,452033628
63,5,2,T1_SMS_8,62,9999,9999,9999,452833360
63,5,2,T1_SMS_8,63,9999,9999,9999,453633112
63,5,2,T1_SMS_8,64,9999,9999,9999,454433868
63,5,2,T1_SMS_8,65,9999,9999,9999,455233600
63,5,2,T1_SMS_8,66,9999,9999,9999,456033364
63,5,2,T1_SMS_8,67,9999,9999,9999,456833100
63,5,2,T1_SMS_8,68,9999,9999,9999,457633880
63,5,2,T1_SMS_8,69,9999,9999,9999,458433612
63,5,2,T1_SMS_8,70,9999,9999,9999,459233340
63,5,2,T1_SMS_8,71,9999,9999,9999,460033076
63,5,2,T1_SMS_8,72,9999,9999,9999,460833860
63,5,2,T1_SMS_8,73,9999,9999,9999,461633588
63,5,2,T1_SMS_8,74,9999,9999,9999,462433352
63,5,2,T1_SMS_8,75,9999,9999,9999,463233084
63,5,2,T1_SMS_8,76,9999,9999,9999,464033864
63,5,2,T1_SMS_8,77,9999,9999,9999,464833600
63,5,2,T1_SMS_8,78,9999,9999,9999,465633332
63,5,2,T1_SMS_8,79,9999,9999,9999,466433132
63,5,2,T1_SMS_8,80,9999,9999,9999,467233900
63,5,2,T1_SMS_8,81,9999,9999,9999,468033628
63,5,2,T1_SMS_8,82,9999,9999,9999,468833384
63,5,2,T1_SMS_8,83,9999,9999,9999,469633120
63,5,2,T1_SMS_8,84,9999,9999,9999,470433904
63,5,2,T1_SMS_8,85,9999,9999,9999,471233636
63,5,2,T1_SMS_8,86,9999,9999,9999,472033372
63,5,2,T1_SMS_8,87,9999,9999,9999,472833104
63,5,2,T1_SMS_8,88,9999,9999,9999,473633884
63,5,2,T1_SMS_8,89,9999,9999,9999,474433616
63,5,2,T1_SMS_8,90,9999,9999,9999,475233372
63,5,2,T1_SMS_8,91,9999,9999,9999,476033100
63,5,2,T1_SMS_8,92,9999,9999,9999,476833880
63,5,2,T1_SMS_8,93,9999,9999,9999,477633620
63,5,2,T1_SMS_8,94,9999,9999,9999,478433356
63,5,2,T1_SMS_8,95,9999,9999,9999,479233080
63,5,2,T1_SMS_8,96,9999,9999,9999,480033864
63,5,2,T1_SMS_8,97,9999,9999,9999,480833604
63,5,2,T1_SMS_8,98,9999,9999,9999,481633356
63,5,2,T1_SMS_8,99,9999,9999,9999,482433088
63,5,2,T1_SMS_8,100,9999,9999,9999,483233872
63,5,2,T1_SMS_8,101,9999,9999,9999,484033600
63,5,2,T1_SMS_8,102,9999,9999,9999,484833344
63,5,2,T1_SMS_8,103,9999,9999,9999,485633144
63,5,2,T1_SMS_8,104,9999,9999,9999,486433848
63,5,2,T1_SMS_8,105,9999,9999,9999,487233612
63,5,2,T1_SMS_8,106,9999,9999,9999,488033340
63,5,2,T1_SMS_8,107,9999,9999,9999,488833076
63,5,2,T1_SMS_8,108,9999,9999,9999,489633852
63,5,2,T1_SMS_8,109,9999,9999,9999,490433592
63,5,2,T1_SMS_8,110,9999,9999,9999,491233396
63,5,2,T1_SMS_8,111,9999,9999,9999,492033136
63,5,2,T1_SMS_8,112,9999,9999,9999,492833840
63,5,2,T1_SMS_8,113,9999,9999,9999,493633592
63,5,2,T1_SMS_8,114,9999,9999,9999,494433332
63,5,2,T1_SMS_8,115,9999,9999,9999,495233132
63,5,2,T1_SMS_8,116,9999,9999,9999,496033840
63,5,2,T1_SMS_8,117,9999,9999,9999,496833652
63,5,2,T1_SMS_8,118,9999,9999,9999,497633388
63,5,2,T1_SMS_8,119,9999,9999,9999,498433120
63,6,23,Ticks_Phase_5,0,5,42,127,509337156
63,6,23,Ticks_Phase_5,1,5,42,127,509836720
63,6,23,Ticks_Phase_5,2,1,48,41,510016272
63,6,23,Ticks_Phase_5,3,5,42,127,510337352
63,6,23,Ticks_Phase_5,4,1,48,28,510438052
63,6,23,Ticks_Phase_5,5,5,42,127,510837116
63,6,23,Ticks_Phase_5,6,1,48,37,510870336
63,6,23,Ticks_Phase_5,7,5,42,127,511337028
63,6,23,Ticks_Phase_5,8,1,48,42,511340516
63,6,23,Ticks_Phase_5,9,1,48,43,511835812
63,6,23,Ticks_Phase_5,10,5,42,127,511837384
63,6,23,Ticks_Phase_5,11,1,48,42,512330972
63,6,23,Ticks_Phase_5,12,5,42,127,512337296
63,6,23,Ticks_Phase_5,13,5,42,127,512837140
63,6,23,Ticks_Phase_5,14,1,48,43,512838180
63,6,23,Ticks_Phase_5,15,5,42,127,513336876
63,6,23,Ticks_Phase_5,16,1,48,44,513357548
63,6,23,Ticks_Phase_5,17,1,48,43,513827544
63,6,23,Ticks_Phase_5,18,5,42,127,513837384
63,6,23,Ticks_Phase_5,19,1,48,45,514313368
63,6,23,Ticks_Phase_5,20,5,42,127,514347252
63,6,23,Ticks_Phase_5,21,5,42,127,514847172
63,6,23,Ticks_Phase_5,22,1,48,43,514866252
63,6,23,Ticks_Phase_5,23,5,42,127,515347012
63,6,23,Ticks_Phase_5,24,1,48,42,515361584
63,6,23,Ticks_Phase_5,25,1,48,44,515838352
63,6,23,Ticks_Phase_5,26,5,42,127,515846396
63,6,23,Ticks_Phase_5,27,5,42,127,516347136
63,6,23,Ticks_Phase_5,28,1,48,46,516348100
63,6,23,Ticks_Phase_5,29,1,48,42,516833528
63,6,23,Ticks_Phase_5,30,5,42,127,516847040
63,6,23,Ticks_Phase_5,31,1,48,44,517322880
63,6,23,Ticks_Phase_5,32,5,42,127,517346952
63,6,23,Ticks_Phase_5,33,1,48,46,517837772
63,6,23,Ticks_Phase_5,34,5,42,127,517847316
63,6,23,Ticks_Phase_5,35,1,48,39,518342320
63,6,23,Ticks_Phase_5,36,5,42,127,518347076
63,6,23,Ticks_Phase_5,37,1,48,43,518829584
63,6,23,Ticks_Phase_5,38,5,42,127,518847064
63,6,23,Ticks_Phase_5,39,1,48,44,519346460
63,6,23,Ticks_Phase_5,40,5,42,127,519347948
63,6,23,Ticks_Phase_5,41,1,48,43,519845144
63,6,23,Ticks_Phase_5,42,5,42,127,519847188
63,6,23,Ticks_Phase_5,43,1,48,44,520326028
63,6,23,Ticks_Phase_5,44,5,42,127,520347024
63,6,23,Ticks_Phase_5,45,1,48,44,520838892
63,6,23,Ticks_Phase_5,46,5,42,127,520846936
63,6,23,Ticks_Phase_5,47,1,48,46,521332812
63,6,23,Ticks_Phase_5,48,5,42,127,521346404
63,6,23,Ticks_Phase_5,49,1,48,44,521847368
63,6,23,Ticks_Phase_5,50,5,42,127,521848780
63,6,23,Ticks_Phase_5,51,5,42,127,522346908
63,6,23,Ticks_Phase_5,52,1,48,42,522373608
63,6,23,Ticks_Phase_5,53,1,48,42,522837944
63,6,23,Ticks_Phase_5,54,5,42,127,522846736
63,6,23,Ticks_Phase_5,55,5,42,127,523347180
63,6,23,Ticks_Phase_5,56,1,48,46,523353292
63,6,23,Ticks_Phase_5,57,5,42,127,523847020
63,6,23,Ticks_Phase_5,58,1,48,44,523856056
63,6,23,Ticks_Phase_5,59,5,42,127,524336572
63,6,23,Ticks_Phase_5,60,1,48,45,524337540
63,6,23,Ticks_Phase_5,61,5,42,127,524837160
63,6,23,Ticks_Phase_5,62,1,48,43,524877820
63,6,23,Ticks_Phase_5,63,5,42,127,525336848
63,6,23,Ticks_Phase_5,64,1,48,42,525339588
63,6,23,Ticks_Phase_5,65,5,42,127,525836684
63,6,23,Ticks_Phase_5,66,1,48,46,525849912
63,6,23,Ticks_Phase_5,67,1,48,42,526335220
63,6,23,Ticks_Phase_5,68,5,42,127,526337708
63,6,23,Ticks_Phase_5,69,5,42,127,526837108
63,6,23,Ticks_Phase_5,70,1,48,42,526848912
63,6,23,Ticks_Phase_5,71,5,42,127,527336796
63,6,23,Ticks_Phase_5,72,1,48,43,527350024
63,6,23,Ticks_Phase_5,73,5,42,127,527836556
63,6,23,Ticks_Phase_5,74,1,48,43,527848212
63,6,23,Ticks_Phase_5,75,1,48,43,528328492
63,6,23,Ticks_Phase_5,76,5,42,127,528337284
63,6,23,Ticks_Phase_5,77,1,48,40,528833040
63,6,23,Ticks_Phase_5,78,5,42,127,528837124
63,6,23,Ticks_Phase_5,79,1,48,43,529336288
63,6,23,Ticks_Phase_5,80,5,42,127,529337784
63,6,23,Ticks_Phase_5,81,5,42,127,529837628
63,6,23,Ticks_Phase_5,82,1,48,40,529840744
63,6,23,Ticks_Phase_5,83,5,42,127,530347500
63,6,23,Ticks_Phase_5,84,1,48,41,530363796
63,6,23,Ticks_Phase_5,85,5,42,127,530847044
63,6,23,Ticks_Phase_5,86,1,48,43,530854948
63,6,23,Ticks_Phase_5,87,1,48,43,531345524
63,6,23,Ticks_Phase_5,88,5,42,127,531347024
63,6,23,Ticks_Phase_5,89,5,42,127,531846492
63,6,23,Ticks_Phase_5,90,1,48,43,531859120
63,6,23,Ticks_Phase_5,91,1,48,39,532345484
63,6,23,Ticks_Phase_5,92,5,42,127,532347224
63,6,23,Ticks_Phase_5,93,1,48,46,532843728
63,6,23,Ticks_Phase_5,94,5,42,127,532846912
63,6,23,Ticks_Phase_5,95,1,48,43,533357012
63,6,23,Ticks_Phase_5,96,5,42,127,533358424
63,6,23,Ticks_Phase_5,97,1,48,45,533845584
63,6,23,Ticks_Phase_5,98,5,42,127,533856624
63,6,23,Ticks_Phase_5,99,1,48,42,534329744
63,6,23,Ticks_Phase_5,100,5,42,127,534357504
63,6,23,Ticks_Phase_5,101,5,42,127,534856976
63,6,23,Ticks_Phase_5,102,1,48,43,534865268
63,6,23,Ticks_Phase_5,103,1,48,43,535353296
63,6,23,Ticks_Phase_5,104,5,42,127,535356932
63,6,23,Ticks_Phase_5,105,5,42,127,535856624
63,6,23,Ticks_Phase_5,106,1,48,43,535871600
63,6,23,Ticks_Phase_5,107,1,48,47,536355928
63,6,23,Ticks_Phase_5,108,5,42,127,536357280
63,6,23,Ticks_Phase_5,109,5,42,127,536856828
63,6,23,Ticks_Phase_5,110,1,48,41,536882260
63,6,23,Ticks_Phase_5,111,1,48,45,537348984
63,6,23,Ticks_Phase_5,112,5,42,127,537356732
63,6,23,Ticks_Phase_5,113,1,48,44,537825316
63,6,23,Ticks_Phase_5,114,5,42,127,537857392
63,6,23,Ticks_Phase_5,115,1,48,41,538335708
63,6,23,Ticks_Phase_5,116,5,42,127,538357228
63,6,23,Ticks_Phase_5,117,1,48,41,538833516
63,6,23,Ticks_Phase_5,118,5,42,127,538856768
63,6,23,Ticks_Phase_5,119,1,48,42,539330740
63,6,23,Ticks_Phase_5,120,5,42,127,539356384
63,6,23,Ticks_Phase_5,121,1,48,38,539853632
63,6,23,Ticks_Phase_5,122,5,42,127,539857640
63,6,23,Ticks_Phase_5,123,5,42,127,540357036
63,6,23,Ticks_Phase_5,124,1,48,45,540368320
63,6,23,Ticks_Phase_5,125,1,48,42,540856580
63,6,23,Ticks_Phase_5,126,5,42,127,540857988
63,6,23,Ticks_Phase_5,127,1,48,43,541366788
63,6,23,Ticks_Phase_5,128,5,42,127,541376924
63,6,23,Ticks_Phase_5,129,5,42,127,541876548
63,6,23,Ticks_Phase_5,130,1,48,46,541880784
63,6,23,Ticks_Phase_5,131,5,42,127,542377428
63,6,23,Ticks_Phase_5,132,1,48,40,542399648
63,6,23,Ticks_Phase_5,133,5,42,127,542877120
63,6,23,Ticks_Phase_5,134,1,48,44,542878156
63,6,23,Ticks_Phase_5,135,1,48,42,543374064
63,6,23,Ticks_Phase_5,136,5,42,127,543376728
63,6,23,Ticks_Phase_5,137,1,48,43,543860652
63,6,23,Ticks_Phase_5,138,5,42,127,543876340
63,6,23,Ticks_Phase_5,139,5,42,127,544377304
63,6,23,Ticks_Phase_5,140,1,48,40,544395852
63,6,23,Ticks_Phase_5,141,1,48,45,544869396
63,6,23,Ticks_Phase_5,142,5,42,127,544876836
63,6,23,Ticks_Phase_5,143,1,48,43,545371992
63,6,23,Ticks_Phase_5,144,5,42,127,545376672
63,6,23,Ticks_Phase_5,145,1,48,40,545870116
63,6,23,Ticks_Phase_5,146,5,42,127,545877408
63,6,23,Ticks_Phase_5,147,1,48,44,546369128
63,6,23,Ticks_Phase_5,148,5,42,127,546377168
63,6,23,Ticks_Phase_5,149,1,48,43,546851708
63,6,23,Ticks_Phase_5,150,5,42,127,546876832
63,6,23,Ticks_Phase_5,151,1,48,41,547354084
63,6,23,Ticks_Phase_5,152,5,42,127,547376440
63,6,23,Ticks_Phase_5,153,1,48,46,547845768
63,6,23,Ticks_Phase_5,154,5,42,127,547877324
63,6,23,Ticks_Phase_5,155,1,48,46,548366428
63,6,23,Ticks_Phase_5,156,5,42,127,548376940
63,6,23,Ticks_Phase_5,157,1,48,43,548864084
63,6,23,Ticks_Phase_5,158,5,42,127,548876628
63,6,23,Ticks_Phase_5,159,1,48,44,549371412
63,6,23,Ticks_Phase_5,160,5,42,127,549377364
63,6,23,Ticks_Phase_5,161,5,42,127,549856616
63,6,23,Ticks_Phase_5,162,1,48,43,549878752
63,6,23,Ticks_Phase_5,163,1,48,40,550337244
63,6,23,Ticks_Phase_5,164,5,42,127,550357344
63,6,23,Ticks_Phase_5,165,1,48,43,550822100
63,6,23,Ticks_Phase_5,166,5,42,127,550857256
63,6,23,Ticks_Phase_5,167,1,48,43,551348900
63,6,23,Ticks_Phase_5,168,5,42,127,551356792
63,6,23,Ticks_Phase_5,169,1,48,46,551855356
63,6,23,Ticks_Phase_5,170,5,42,127,551856704
63,6,23,Ticks_Phase_5,171,5,42,127,552357296
63,6,23,Ticks_Phase_5,172,1,48,46,552362136
63,6,23,Ticks_Phase_5,173,1,48,44,552838456
63,6,23,Ticks_Phase_5,174,5,42,127,552857128
63,6,23,Ticks_Phase_5,175,5,42,127,553356672
63,6,23,Ticks_Phase_5,176,1,48,43,553378968
63,6,23,Ticks_Phase_5,177,1,48,43,553828396
63,6,23,Ticks_Phase_5,178,5,42,127,553857404
63,6,23,Ticks_Phase_5,179,1,48,41,554357100
63,6,23,Ticks_Phase_5,180,5,42,127,554358508
63,6,23,Ticks_Phase_5,181,1,48,41,554855728
63,6,23,Ticks_Phase_5,182,5,42,127,554857376
63,6,23,Ticks_Phase_5,183,1,48,44,555337644
63,6,23,Ticks_Phase_5,184,5,42,127,555356620
63,6,23,Ticks_Phase_5,185,1,48,42,555841820
63,6,23,Ticks_Phase_5,186,5,42,127,555857204
63,6,23,Ticks_Phase_5,187,5,42,127,556357200
63,6,23,Ticks_Phase_5,188,1,48,32,556358092
63,6,23,Ticks_Phase_5,189,1,48,42,556837064
63,6,23,Ticks_Phase_5,190,5,42,127,556856636
63,6,23,Ticks_Phase_5,191,1,48,41,557352836
63,6,23,Ticks_Phase_5,192,5,42,127,557357444
63,6,23,Ticks_Phase_5,193,5,42,127,557817300
63,6,23,Ticks_Phase_5,194,1,48,50,557847380
63,6,23,Ticks_Phase_5,195,1,48,48,558273660
63,6,23,Ticks_Phase_5,196,5,42,127,558317424
63,6,23,Ticks_Phase_5,197,5,42,127,558816528
63,6,23,Ticks_Phase_5,198,1,48,41,558819572
63,6,23,Ticks_Phase_5,199,1,48,41,559302696
63,6,23,Ticks_Phase_5,200,5,42,127,559317256
63,6,23,Ticks_Phase_5,201,1,48,41,559803876
63,6,23,Ticks_Phase_5,202,5,42,127,559817168
63,6,23,Ticks_Phase_5,203,1,48,41,560291808
63,6,23,Ticks_Phase_5,204,5,42,127,560317004
63,6,23,Ticks_Phase_5,205,1,48,36,560811568
63,6,23,Ticks_Phase_5,206,5,42,127,560816472
63,6,23,Ticks_Phase_5,207,5,42,127,561317212
63,6,23,Ticks_Phase_5,208,1,48,35,561332008
63,6,23,Ticks_Phase_5,209,1,48,41,561797476
63,6,23,Ticks_Phase_5,210,5,42,127,561817196
63,6,23,Ticks_Phase_5,211,5,42,127,562316740
63,6,23,Ticks_Phase_5,212,1,48,40,562351008
63,6,23,Ticks_Phase_5,213,5,42,127,562817252
63,6,23,Ticks_Phase_5,214,1,48,38,562818216
63,6,23,Ticks_Phase_5,215,1,48,43,563305072
63,6,23,Ticks_Phase_5,216,5,42,127,563317232
63,6,23,Ticks_Phase_5,217,1,48,42,563792924
63,6,23,Ticks_Phase_5,218,5,42,127,563816992
63,6,23,Ticks_Phase_5,219,1,48,40,564295536
63,6,23,Ticks_Phase_5,220,5,42,127,564316532
63,6,23,Ticks_Phase_5,221,1,48,38,564799116
63,6,23,Ticks_Phase_5,222,5,42,127,564817268
63,6,23,Ticks_Phase_5,223,1,48,43,565311156
63,6,23,Ticks_Phase_5,224,5,42,127,565317108
63,6,23,Ticks_Phase_5,225,1,48,43,565815036
63,6,23,Ticks_Phase_5,226,5,42,127,565816772
63,6,23,Ticks_Phase_5,227,1,48,41,566311332
63,6,23,Ticks_Phase_5,228,5,42,127,566366436
63,6,23,Ticks_Phase_5,229,1,48,36,566852084
63,6,23,Ticks_Phase_5,230,5,42,127,566867244
63,6,23,Ticks_Phase_5,231,1,48,36,567353988
63,6,23,Ticks_Phase_5,232,5,42,127,567367084
63,6,23,Ticks_Phase_5,233,5,42,127,567866828
63,6,23,Ticks_Phase_5,234,1,48,35,567884956
63,6,23,Ticks_Phase_5,235,5,42,127,568366440
63,6,23,Ticks_Phase_5,236,1,48,38,568369032
63,6,23,Ticks_Phase_5,237,5,42,127,568867104
63,6,23,Ticks_Phase_5,238,1,48,38,568874480
63,6,23,Ticks_Phase_5,239,1,48,38,569350048
63,6,23,Ticks_Phase_5,240,5,42,127,569366784
63,6,23,Ticks_Phase_5,241,1,48,41,569841644
63,6,23,Ticks_Phase_5,242,5,42,127,569866696
63,6,23,Ticks_Phase_5,243,1,48,41,570367288
63,6,23,Ticks_Phase_5,244,5,42,127,570368772
63,6,23,Ticks_Phase_5,245,5,42,127,570867052
63,6,23,Ticks_Phase_5,246,1,48,44,570890912
63,6,23,Ticks_Phase_5,247,1,48,40,571359884
63,6,23,Ticks_Phase_5,248,5,42,127,571366808
63,6,23,Ticks_Phase_5,249,1,48,40,571850288
63,6,23,Ticks_Phase_5,250,5,42,127,571866568
63,6,23,Ticks_Phase_5,251,1,48,40,572367088
63,6,23,Ticks_Phase_5,252,5,42,127,572368648
63,6,23,Ticks_Phase_5,253,5,42,127,572866852
63,6,23,Ticks_Phase_5,254,1,48,40,572868188
63,6,23,Ticks_Phase_5,255,5,42,127,573366764
63,6,23,Ticks_Phase_5,256,1,48,41,573379540
63,6,23,Ticks_Phase_5,257,5,42,127,573867424
63,6,23,Ticks_Phase_5,258,1,48,46,573875712
63,6,23,Ticks_Phase_5,259,1,48,46,574342128
63,6,23,Ticks_Phase_5,260,5,42,127,574367032
63,6,23,Ticks_Phase_5,261,1,48,41,574908776
63,6,23,Ticks_Phase_5,262,5,42,127,574967140
63,6,23,Ticks_Phase_5,263,5,42,127,575466984
63,6,23,Ticks_Phase_5,264,1,48,37,575471224
63,6,23,Ticks_Phase_5,265,5,42,127,575966748
63,6,23,Ticks_Phase_5,266,1,48,38,576027604
63,6,23,Ticks_Phase_5,267,5,42,127,576467260
63,6,23,Ticks_Phase_5,268,1,48,44,576486708
63,6,23,Ticks_Phase_5,269,5,42,127,576967020
63,6,23,Ticks_Phase_5,270,1,48,42,576971632
63,6,23,Ticks_Phase_5,271,5,42,127,577466856
63,6,23,Ticks_Phase_5,272,1,48,38,577484272
63,6,23,Ticks_Phase_5,273,1,48,42,577947116
63,6,23,Ticks_Phase_5,274,5,42,127,577966688
63,6,23,Ticks_Phase_5,275,1,48,40,578443196
63,6,23,Ticks_Phase_5,276,5,42,127,578467200
63,6,23,Ticks_Phase_5,277,1,48,41,578944916
63,6,23,Ticks_Phase_5,278,5,42,127,578966888
63,6,23,Ticks_Phase_5,279,1,48,41,579456364
63,6,23,Ticks_Phase_5,280,5,42,127,579466800
63,6,23,Ticks_Phase_5,281,1,48,45,579957100
63,6,23,Ticks_Phase_5,282,5,42,127,579967460
63,6,23,Ticks_Phase_5,283,1,48,41,580426380
63,6,23,Ticks_Phase_5,284,5,42,127,580467000
63,6,23,Ticks_Phase_5,285,5,42,127,580966696
63,6,23,Ticks_Phase_5,286,1,48,38,580987412
63,6,23,Ticks_Phase_5,287,1,48,45,581462592
63,6,23,Ticks_Phase_5,288,5,42,127,581466748
63,6,23,Ticks_Phase_5,289,1,48,43,581959588
63,6,23,Ticks_Phase_5,290,5,42,127,581967112
63,6,23,Ticks_Phase_5,291,5,42,127,582466880
63,6,23,Ticks_Phase_5,292,1,48,44,582482872
63,6,23,Ticks_Phase_5,293,1,48,45,582948456
63,6,23,Ticks_Phase_5,294,5,42,127,582966684
63,6,23,Ticks_Phase_5,295,1,48,43,583457136
63,6,23,Ticks_Phase_5,296,5,42,127,583467496
63,6,23,Ticks_Phase_5,297,1,48,43,583961232
63,6,23,Ticks_Phase_5,298,5,42,127,583967036
63,6,23,Ticks_Phase_5,299,5,42,127,584366532
63,6,23,Ticks_Phase_5,300,1,48,43,584464372
63,6,23,Ticks_Phase_5,301,5,42,127,584867412
63,6,23,Ticks_Phase_5,302,1,48,38,584952084
63,6,23,Ticks_Phase_5,303,1,48,39,585365744
63,6,23,Ticks_Phase_5,304,5,42,127,585367092
63,6,23,Ticks_Phase_5,305,1,48,33,585860240
63,6,23,Ticks_Phase_5,306,5,42,127,585866560
63,6,23,Ticks_Phase_5,307,5,42,127,586367524
63,6,23,Ticks_Phase_5,308,1,48,34,586403512
63,6,23,Ticks_Phase_5,309,5,42,127,586867140
63,6,23,Ticks_Phase_5,310,1,48,39,586881936
63,6,23,Ticks_Phase_5,311,5,42,127,587366904
63,6,23,Ticks_Phase_5,312,1,48,34,587390244
63,6,23,Ticks_Phase_5,313,5,42,127,587866668
63,6,23,Ticks_Phase_5,314,1,48,41,587895252
63,6,23,Ticks_Phase_5,315,1,48,39,588367180
63,6,23,Ticks_Phase_5,316,5,42,127,588368516
63,6,23,Ticks_Phase_5,317,5,42,127,588866868
63,6,23,Ticks_Phase_5,318,1,48,43,588876428
63,6,23,Ticks_Phase_5,319,1,48,44,589343948
63,6,23,Ticks_Phase_5,320,5,42,127,589366600
63,6,23,Ticks_Phase_5,321,1,48,39,589864152
63,6,23,Ticks_Phase_5,322,5,42,127,589867408
63,6,23,Ticks_Phase_5,323,1,48,46,590328572
63,6,23,Ticks_Phase_5,324,5,42,127,590367020
63,6,23,Ticks_Phase_5,325,5,42,127,590866940
63,6,23,Ticks_Phase_5,326,1,48,40,590872076
63,6,23,Ticks_Phase_5,327,1,48,46,591321728
63,6,23,Ticks_Phase_5,328,5,42,127,591366472
63,6,23,Ticks_Phase_5,329,1,48,40,591856996
63,6,23,Ticks_Phase_5,330,5,42,127,591867356
63,6,23,Ticks_Phase_5,331,1,48,33,592366828
63,6,23,Ticks_Phase_5,332,5,42,127,592368236
63,6,23,Ticks_Phase_5,333,5,42,127,592866588
63,6,23,Ticks_Phase_5,334,1,48,38,592874956
63,6,23,Ticks_Phase_5,335,5,42,127,593367472
63,6,23,Ticks_Phase_5,336,1,48,35,593376060
63,6,23,Ticks_Phase_5,337,5,42,127,593867084
63,6,23,Ticks_Phase_5,0,9999,9999,9999,509334644
63,6,23,Ticks_Phase_5,1,9999,9999,9999,509834356
63,6,23,Ticks_Phase_5,2,9999,9999,9999,510335064
63,6,23,Ticks_Phase_5,3,9999,9999,9999,510834752
63,6,23,Ticks_Phase_5,4,9999,9999,9999,511334516
63,6,23,Ticks_Phase_5,5,9999,9999,9999,511834204
63,6,23,Ticks_Phase_5,6,9999,9999,9999,512334932
63,6,23,Ticks_Phase_5,7,9999,9999,9999,512834628
63,6,23,Ticks_Phase_5,8,9999,9999,9999,513334364
63,6,23,Ticks_Phase_5,9,9999,9999,9999,513835092
63,6,23,Ticks_Phase_5,10,9999,9999,9999,514345040
63,6,23,Ticks_Phase_5,11,9999,9999,9999,514844736
63,6,23,Ticks_Phase_5,12,9999,9999,9999,515344500
63,6,23,Ticks_Phase_5,13,9999,9999,9999,515844180
63,6,23,Ticks_Phase_5,14,9999,9999,9999,516344920
63,6,23,Ticks_Phase_5,15,9999,9999,9999,516844604
63,6,23,Ticks_Phase_5,16,9999,9999,9999,517344364
63,6,23,Ticks_Phase_5,17,9999,9999,9999,517845100
63,6,23,Ticks_Phase_5,18,9999,9999,9999,518344788
63,6,23,Ticks_Phase_5,19,9999,9999,9999,518844476
63,6,23,Ticks_Phase_5,20,9999,9999,9999,519344248
63,6,23,Ticks_Phase_5,21,9999,9999,9999,519844936
63,6,23,Ticks_Phase_5,22,9999,9999,9999,520344664
63,6,23,Ticks_Phase_5,23,9999,9999,9999,520844352
63,6,23,Ticks_Phase_5,24,9999,9999,9999,521344112
63,6,23,Ticks_Phase_5,25,9999,9999,9999,521844856
63,6,23,Ticks_Phase_5,26,9999,9999,9999,522344544
63,6,23,Ticks_Phase_5,27,9999,9999,9999,522844224
63,6,23,Ticks_Phase_5,28,9999,9999,9999,523344968
63,6,23,Ticks_Phase_5,29,9999,9999,9999,523844728
63,6,23,Ticks_Phase_5,30,9999,9999,9999,524334132
63,6,23,Ticks_Phase_5,31,9999,9999,9999,524834868
63,6,23,Ticks_Phase_5,32,9999,9999,9999,525334632
63,6,23,Ticks_Phase_5,33,9999,9999,9999,525834320
63,6,23,Ticks_Phase_5,34,9999,9999,9999,526335088
63,6,23,Ticks_Phase_5,35,9999,9999,9999,526834744
63,6,23,Ticks_Phase_5,36,9999,9999,9999,527334504
63,6,23,Ticks_Phase_5,37,9999,9999,9999,527834192
63,6,23,Ticks_Phase_5,38,9999,9999,9999,528334920
63,6,23,Ticks_Phase_5,39,9999,9999,9999,528834684
63,6,23,Ticks_Phase_5,40,9999,9999,9999,529334380
63,6,23,Ticks_Phase_5,41,9999,9999,9999,529835116
63,6,23,Ticks_Phase_5,42,9999,9999,9999,530345060
63,6,23,Ticks_Phase_5,43,9999,9999,9999,530844752
63,6,23,Ticks_Phase_5,44,9999,9999,9999,531344440
63,6,23,Ticks_Phase_5,45,9999,9999,9999,531844204
63,6,23,Ticks_Phase_5,46,9999,9999,9999,532344956
63,6,23,Ticks_Phase_5,47,9999,9999,9999,532844620
63,6,23,Ticks_Phase_5,48,9999,9999,9999,533354576
63,6,23,Ticks_Phase_5,49,9999,9999,9999,533854332
63,6,23,Ticks_Phase_5,50,9999,9999,9999,534355068
63,6,23,Ticks_Phase_5,51,9999,9999,9999,534854764
63,6,23,Ticks_Phase_5,52,9999,9999,9999,535354492
63,6,23,Ticks_Phase_5,53,9999,9999,9999,535854188
63,6,23,Ticks_Phase_5,54,9999,9999,9999,536354924
63,6,23,Ticks_Phase_5,55,9999,9999,9999,536854612
63,6,23,Ticks_Phase_5,56,9999,9999,9999,537354368
63,6,23,Ticks_Phase_5,57,9999,9999,9999,537855104
63,6,23,Ticks_Phase_5,58,9999,9999,9999,538354792
63,6,23,Ticks_Phase_5,59,9999,9999,9999,538854480
63,6,23,Ticks_Phase_5,60,9999,9999,9999,539354168
63,6,23,Ticks_Phase_5,61,9999,9999,9999,539854904
63,6,23,Ticks_Phase_5,62,9999,9999,9999,540354672
63,6,23,Ticks_Phase_5,63,9999,9999,9999,540854364
63,6,23,Ticks_Phase_5,64,9999,9999,9999,541374560
63,6,23,Ticks_Phase_5,65,9999,9999,9999,541874256
63,6,23,Ticks_Phase_5,66,9999,9999,9999,542374992
63,6,23,Ticks_Phase_5,67,9999,9999,9999,542874680
63,6,23,Ticks_Phase_5,68,9999,9999,9999,543374436
63,6,23,Ticks_Phase_5,69,9999,9999,9999,543874124
63,6,23,Ticks_Phase_5,70,9999,9999,9999,544374868
63,6,23,Ticks_Phase_5,71,9999,9999,9999,544874624
63,6,23,Ticks_Phase_5,72,9999,9999,9999,545374308
63,6,23,Ticks_Phase_5,73,9999,9999,9999,545875044
63,6,23,Ticks_Phase_5,74,9999,9999,9999,546374732
63,6,23,Ticks_Phase_5,75,9999,9999,9999,546874472
63,6,23,Ticks_Phase_5,76,9999,9999,9999,547374152
63,6,23,Ticks_Phase_5,77,9999,9999,9999,547874884
63,6,23,Ticks_Phase_5,78,9999,9999,9999,548374648
63,6,23,Ticks_Phase_5,79,9999,9999,9999,548874340
63,6,23,Ticks_Phase_5,80,9999,9999,9999,549375072
63,6,23,Ticks_Phase_5,81,9999,9999,9999,549854324
63,6,23,Ticks_Phase_5,82,9999,9999,9999,550355052
63,6,23,Ticks_Phase_5,83,9999,9999,9999,550854744
63,6,23,Ticks_Phase_5,84,9999,9999,9999,551354432
63,6,23,Ticks_Phase_5,85,9999,9999,9999,551854200
63,6,23,Ticks_Phase_5,86,9999,9999,9999,552354932
63,6,23,Ticks_Phase_5,87,9999,9999,9999,552854616
63,6,23,Ticks_Phase_5,88,9999,9999,9999,553354308
63,6,23,Ticks_Phase_5,89,9999,9999,9999,553855040
63,6,23,Ticks_Phase_5,90,9999,9999,9999,554354808
63,6,23,Ticks_Phase_5,91,9999,9999,9999,554854500
63,6,23,Ticks_Phase_5,92,9999,9999,9999,555354180
63,6,23,Ticks_Phase_5,93,9999,9999,9999,555854916
63,6,23,Ticks_Phase_5,94,9999,9999,9999,556354688
63,6,23,Ticks_Phase_5,95,9999,9999,9999,556854344
63,6,23,Ticks_Phase_5,96,9999,9999,9999,557355080
63,6,23,Ticks_Phase_5,97,9999,9999,9999,557814860
63,6,23,Ticks_Phase_5,98,9999,9999,9999,558314616
63,6,23,Ticks_Phase_5,99,9999,9999,9999,558814312
63,6,23,Ticks_Phase_5,100,9999,9999,9999,559315040
63,6,23,Ticks_Phase_5,101,9999,9999,9999,559814732
63,6,23,Ticks_Phase_5,102,9999,9999,9999,560314492
63,6,23,Ticks_Phase_5,103,9999,9999,9999,560814180
63,6,23,Ticks_Phase_5,104,9999,9999,9999,561314924
63,6,23,Ticks_Phase_5,105,9999,9999,9999,561814608
63,6,23,Ticks_Phase_5,106,9999,9999,9999,562314304
63,6,23,Ticks_Phase_5,107,9999,9999,9999,562815036
63,6,23,Ticks_Phase_5,108,9999,9999,9999,563314792
63,6,23,Ticks_Phase_5,109,9999,9999,9999,563814480
63,6,23,Ticks_Phase_5,110,9999,9999,9999,564314172
63,6,23,Ticks_Phase_5,111,9999,9999,9999,564814904
63,6,23,Ticks_Phase_5,112,9999,9999,9999,565314668
63,6,23,Ticks_Phase_5,113,9999,9999,9999,565814340
63,6,23,Ticks_Phase_5,114,9999,9999,9999,566364220
63,6,23,Ticks_Phase_5,115,9999,9999,9999,566864956
63,6,23,Ticks_Phase_5,116,9999,9999,9999,567364720
63,6,23,Ticks_Phase_5,117,9999,9999,9999,567864388
63,6,23,Ticks_Phase_5,118,9999,9999,9999,568364152
63,6,23,Ticks_Phase_5,119,9999,9999,9999,568864888
63,6,23,Ticks_Phase_5,120,9999,9999,9999,569364568
63,6,23,Ticks_Phase_5,121,9999,9999,9999,569864256
63,6,23,Ticks_Phase_5,122,9999,9999,9999,570365000
63,6,23,Ticks_Phase_5,123,9999,9999,9999,570864760
63,6,23,Ticks_Phase_5,124,9999,9999,9999,571364444
63,6,23,Ticks_Phase_5,125,9999,9999,9999,571864132
63,6,23,Ticks_Phase_5,126,9999,9999,9999,572364872
63,6,23,Ticks_Phase_5,127,9999,9999,9999,572864636
63,6,23,Ticks_Phase_5,128,9999,9999,9999,573364324
63,6,23,Ticks_Phase_5,129,9999,9999,9999,573865060
63,6,23,Ticks_Phase_5,130,9999,9999,9999,574364740
63,6,23,Ticks_Phase_5,131,9999,9999,9999,574964852
63,6,23,Ticks_Phase_5,132,9999,9999,9999,575464548
63,6,23,Ticks_Phase_5,133,9999,9999,9999,575964236
63,6,23,Ticks_Phase_5,134,9999,9999,9999,576464968
63,6,23,Ticks_Phase_5,135,9999,9999,9999,576964732
63,6,23,Ticks_Phase_5,136,9999,9999,9999,577464420
63,6,23,Ticks_Phase_5,137,9999,9999,9999,577964104
63,6,23,Ticks_Phase_5,138,9999,9999,9999,578464836
63,6,23,Ticks_Phase_5,139,9999,9999,9999,578964600
63,6,23,Ticks_Phase_5,140,9999,9999,9999,579464288
63,6,23,Ticks_Phase_5,141,9999,9999,9999,579965020
63,6,23,Ticks_Phase_5,142,9999,9999,9999,580464708
63,6,23,Ticks_Phase_5,143,9999,9999,9999,580964404
63,6,23,Ticks_Phase_5,144,9999,9999,9999,581464160
63,6,23,Ticks_Phase_5,145,9999,9999,9999,581964896
63,6,23,Ticks_Phase_5,146,9999,9999,9999,582464592
63,6,23,Ticks_Phase_5,147,9999,9999,9999,582964324
63,6,23,Ticks_Phase_5,148,9999,9999,9999,583465056
63,6,23,Ticks_Phase_5,149,9999,9999,9999,583964744
63,6,23,Ticks_Phase_5,150,9999,9999,9999,584364092
63,6,23,Ticks_Phase_5,151,9999,9999,9999,584864828
63,6,23,Ticks_Phase_5,152,9999,9999,9999,585364588
63,6,23,Ticks_Phase_5,153,9999,9999,9999,585864272
63,6,23,Ticks_Phase_5,154,9999,9999,9999,586365012
63,6,23,Ticks_Phase_5,155,9999,9999,9999,586864700
63,6,23,Ticks_Phase_5,156,9999,9999,9999,587364464
63,6,23,Ticks_Phase_5,157,9999,9999,9999,587864156
63,6,23,Ticks_Phase_5,158,9999,9999,9999,588364888
63,6,23,Ticks_Phase_5,159,9999,9999,9999,588864576
63,6,23,Ticks_Phase_5,160,9999,9999,9999,589364308
63,6,23,Ticks_Phase_5,161,9999,9999,9999,589865044
63,6,23,Ticks_Phase_5,162,9999,9999,9999,590364732
63,6,23,Ticks_Phase_5,163,9999,9999,9999,590864500
63,6,23,Ticks_Phase_5,164,9999,9999,9999,591364184
63,6,23,Ticks_Phase_5,165,9999,9999,9999,591864916
63,6,23,Ticks_Phase_5,166,9999,9999,9999,592364612
63,6,23,Ticks_Phase_5,167,9999,9999,9999,592864376
63,6,23,Ticks_Phase_5,168,9999,9999,9999,593365108
63,6,23,Ticks_Phase_5,169,9999,9999,9999,593864796
63,7,22,Ticks_Phase_8,0,5,42,127,605435312
63,7,22,Ticks_Phase_8,1,5,42,127,606235192
63,7,22,Ticks_Phase_8,2,1,48,48,606971084
63,7,22,Ticks_Phase_8,3,5,42,127,607034844
63,7,22,Ticks_Phase_8,4,1,48,41,607780428
63,7,22,Ticks_Phase_8,5,5,42,127,607834484
63,7,22,Ticks_Phase_8,6,5,42,127,608635172
63,7,22,Ticks_Phase_8,7,1,48,43,608669296
63,7,22,Ticks_Phase_8,8,5,42,127,609435184
63,7,22,Ticks_Phase_8,9,1,48,47,609441740
63,7,22,Ticks_Phase_8,10,1,48,49,610226172
63,7,22,Ticks_Phase_8,11,5,42,127,610234964
63,7,22,Ticks_Phase_8,12,1,48,48,611013908
63,7,22,Ticks_Phase_8,13,5,42,127,611034376
63,7,22,Ticks_Phase_8,14,1,48,48,611824704
63,7,22,Ticks_Phase_8,15,5,42,127,611835360
63,7,22,Ticks_Phase_8,16,1,48,46,612627328
63,7,22,Ticks_Phase_8,17,5,42,127,612635072
63,7,22,Ticks_Phase_8,18,1,48,43,613423152
63,7,22,Ticks_Phase_8,19,5,42,127,613435180
63,7,22,Ticks_Phase_8,20,5,42,127,614234452
63,7,22,Ticks_Phase_8,21,1,48,45,614247980
63,7,22,Ticks_Phase_8,22,1,48,47,615028504
63,7,22,Ticks_Phase_8,23,5,42,127,615035204
63,7,22,Ticks_Phase_8,24,1,48,56,615799836
63,7,22,Ticks_Phase_8,25,5,42,127,615834988
63,7,22,Ticks_Phase_8,26,1,48,45,616611976
63,7,22,Ticks_Phase_8,27,5,42,127,616635072
63,7,22,Ticks_Phase_8,28,1,48,45,617413944
63,7,22,Ticks_Phase_8,29,5,42,127,617434412
63,7,22,Ticks_Phase_8,30,1,48,47,618208336
63,7,22,Ticks_Phase_8,31,5,42,127,618235172
63,7,22,Ticks_Phase_8,32,1,48,45,618998532
63,7,22,Ticks_Phase_8,33,5,42,127,619035032
63,7,22,Ticks_Phase_8,34,1,48,47,619826408
63,7,22,Ticks_Phase_8,35,5,42,127,619834844
63,7,22,Ticks_Phase_8,36,1,48,48,620579752
63,7,22,Ticks_Phase_8,37,5,42,127,620634332
63,7,22,Ticks_Phase_8,38,5,42,127,621435172
63,7,22,Ticks_Phase_8,39,1,48,46,621475808
63,7,22,Ticks_Phase_8,40,1,48,46,622199272
63,7,22,Ticks_Phase_8,41,5,42,127,622234876
63,7,22,Ticks_Phase_8,42,1,48,45,623002200
63,7,22,Ticks_Phase_8,43,5,42,127,623034812
63,7,22,Ticks_Phase_8,44,1,48,48,623820112
63,7,22,Ticks_Phase_8,45,5,42,127,623834448
63,7,22,Ticks_Phase_8,46,1,48,45,624609564
63,7,22,Ticks_Phase_8,47,5,42,127,624635356
63,7,22,Ticks_Phase_8,48,5,42,127,625435076
63,7,22,Ticks_Phase_8,49,1,48,44,625438640
63,7,22,Ticks_Phase_8,50,1,48,47,626228756
63,7,22,Ticks_Phase_8,51,5,42,127,626234652
63,7,22,Ticks_Phase_8,52,1,48,41,627010068
63,7,22,Ticks_Phase_8,53,5,42,127,627034664
63,7,22,Ticks_Phase_8,54,5,42,127,627835428
63,7,22,Ticks_Phase_8,55,1,48,40,627851124
63,7,22,Ticks_Phase_8,56,1,48,38,628631056
63,7,22,Ticks_Phase_8,57,5,42,127,628635136
63,7,22,Ticks_Phase_8,58,5,42,127,629415308
63,7,22,Ticks_Phase_8,59,1,48,42,629428088
63,7,22,Ticks_Phase_8,60,1,48,46,630210560
63,7,22,Ticks_Phase_8,61,5,42,127,630215012
63,7,22,Ticks_Phase_8,62,5,42,127,631014884
63,7,22,Ticks_Phase_8,63,1,48,43,631044516
63,7,22,Ticks_Phase_8,64,5,42,127,631814520
63,7,22,Ticks_Phase_8,65,1,48,46,631828196
63,7,22,Ticks_Phase_8,66,1,48,43,632596676
63,7,22,Ticks_Phase_8,67,5,42,127,632615644
63,7,22,Ticks_Phase_8,68,1,48,42,633396536
63,7,22,Ticks_Phase_8,69,5,42,127,633415008
63,7,22,Ticks_Phase_8,70,5,42,127,634214876
63,7,22,Ticks_Phase_8,71,1,48,43,634217628
63,7,22,Ticks_Phase_8,72,5,42,127,635014440
63,7,22,Ticks_Phase_8,73,1,48,41,635053808
63,7,22,Ticks_Phase_8,74,1,48,39,635769256
63,7,22,Ticks_Phase_8,75,5,42,127,635815564
63,7,22,Ticks_Phase_8,76,1,48,36,636576912
63,7,22,Ticks_Phase_8,77,5,42,127,636614904
63,7,22,Ticks_Phase_8,78,1,48,38,637331532
63,7,22,Ticks_Phase_8,79,5,42,127,637414916
63,7,22,Ticks_Phase_8,80,1,48,46,638212512
63,7,22,Ticks_Phase_8,81,5,42,127,638214476
63,7,22,Ticks_Phase_8,82,5,42,127,639015464
63,7,22,Ticks_Phase_8,83,1,48,52,639026604
63,7,22,Ticks_Phase_8,84,5,42,127,639814980
63,7,22,Ticks_Phase_8,85,1,48,44,639824096
63,7,22,Ticks_Phase_8,86,1,48,48,640605140
63,7,22,Ticks_Phase_8,87,5,42,127,640614756
63,7,22,Ticks_Phase_8,88,5,42,127,641414552
63,7,22,Ticks_Phase_8,89,1,48,46,641417748
63,7,22,Ticks_Phase_8,90,1,48,45,642183676
63,7,22,Ticks_Phase_8,91,5,42,127,642215376
63,7,22,Ticks_Phase_8,92,5,42,127,643015024
63,7,22,Ticks_Phase_8,93,1,48,39,643141572
63,7,22,Ticks_Phase_8,94,1,48,33,643731720
63,7,22,Ticks_Phase_8,95,5,42,127,643835308
63,7,22,Ticks_Phase_8,96,1,48,44,644608272
63,7,22,Ticks_Phase_8,97,5,42,127,644635256
63,7,22,Ticks_Phase_8,98,1,48,47,645416592
63,7,22,Ticks_Phase_8,99,5,42,127,645434772
63,7,22,Ticks_Phase_8,100,1,48,48,646214532
63,7,22,Ticks_Phase_8,101,5,42,127,646234408
63,7,22,Ticks_Phase_8,102,1,48,41,647029220
63,7,22,Ticks_Phase_8,103,5,42,127,647035168
63,7,22,Ticks_Phase_8,104,1,48,45,647767000
63,7,22,Ticks_Phase_8,105,5,42,127,647835104
63,7,22,Ticks_Phase_8,106,1,48,42,648617788
63,7,22,Ticks_Phase_8,107,5,42,127,648634668
63,7,22,Ticks_Phase_8,108,1,48,46,649429256
63,7,22,Ticks_Phase_8,109,5,42,127,649434452
63,7,22,Ticks_Phase_8,110,5,42,127,650235192
63,7,22,Ticks_Phase_8,111,1,48,46,650267592
63,7,22,Ticks_Phase_8,112,5,42,127,651035128
63,7,22,Ticks_Phase_8,113,1,48,40,651046340
63,7,22,Ticks_Phase_8,114,1,48,45,651825448
63,7,22,Ticks_Phase_8,115,5,42,127,651834860
63,7,22,Ticks_Phase_8,116,5,42,127,652634428
63,7,22,Ticks_Phase_8,117,1,48,39,652642720
63,7,22,Ticks_Phase_8,118,1,48,41,653432076
63,7,22,Ticks_Phase_8,119,5,42,127,653435256
63,7,22,Ticks_Phase_8,120,5,42,127,654235196
63,7,22,Ticks_Phase_8,121,1,48,42,654258008
63,7,22,Ticks_Phase_8,122,5,42,127,655034760
63,7,22,Ticks_Phase_8,123,1,48,40,655052252
63,7,22,Ticks_Phase_8,124,5,42,127,655834396
63,7,22,Ticks_Phase_8,125,1,48,34,655835884
63,7,22,Ticks_Phase_8,126,1,48,41,656662072
63,7,22,Ticks_Phase_8,127,5,42,127,656675140
63,7,22,Ticks_Phase_8,128,5,42,127,657475032
63,7,22,Ticks_Phase_8,129,1,48,47,657502644
63,7,22,Ticks_Phase_8,130,5,42,127,658275112
63,7,22,Ticks_Phase_8,131,1,48,40,658276156
63,7,22,Ticks_Phase_8,132,5,42,127,659074380
63,7,22,Ticks_Phase_8,133,1,48,36,659101084
63,7,22,Ticks_Phase_8,134,1,48,39,659862680
63,7,22,Ticks_Phase_8,135,5,42,127,659875132
63,7,22,Ticks_Phase_8,136,5,42,127,660675076
63,7,22,Ticks_Phase_8,137,1,48,42,660680364
63,7,22,Ticks_Phase_8,138,5,42,127,661474636
63,7,22,Ticks_Phase_8,139,1,48,38,661498872
63,7,22,Ticks_Phase_8,140,5,42,127,662274348
63,7,22,Ticks_Phase_8,141,1,48,36,662279860
63,7,22,Ticks_Phase_8,142,1,48,38,663071024
63,7,22,Ticks_Phase_8,143,5,42,127,663075248
63,7,22,Ticks_Phase_8,144,5,42,127,663874916
63,7,22,Ticks_Phase_8,145,1,48,44,663892780
63,7,22,Ticks_Phase_8,146,1,48,36,664657812
63,7,22,Ticks_Phase_8,147,5,42,127,664674768
63,7,22,Ticks_Phase_8,148,5,42,127,665474340
63,7,22,Ticks_Phase_8,149,1,48,36,665475304
63,7,22,Ticks_Phase_8,150,1,48,35,666271984
63,7,22,Ticks_Phase_8,151,5,42,127,666275164
63,7,22,Ticks_Phase_8,152,5,42,127,667074808
63,7,22,Ticks_Phase_8,153,1,48,37,667105788
63,7,22,Ticks_Phase_8,154,1,48,38,667837940
63,7,22,Ticks_Phase_8,155,5,42,127,667874664
63,7,22,Ticks_Phase_8,156,1,48,45,668644988
63,7,22,Ticks_Phase_8,157,5,42,127,668674744
63,7,22,Ticks_Phase_8,158,5,42,127,669475140
63,7,22,Ticks_Phase_8,159,1,48,47,669520592
63,7,22,Ticks_Phase_8,160,5,42,127,670235012
63,7,22,Ticks_Phase_8,161,1,48,46,670287732
63,7,22,Ticks_Phase_8,162,1,48,43,671001884
63,7,22,Ticks_Phase_8,163,5,42,127,671034964
63,7,22,Ticks_Phase_8,164,1,48,47,671828880
63,7,22,Ticks_Phase_8,165,5,42,127,671834604
63,7,22,Ticks_Phase_8,166,1,48,44,672607480
63,7,22,Ticks_Phase_8,167,5,42,127,672635288
63,7,22,Ticks_Phase_8,168,5,42,127,673434932
63,7,22,Ticks_Phase_8,169,1,48,47,673449136
63,7,22,Ticks_Phase_8,170,5,42,127,674234940
63,7,22,Ticks_Phase_8,171,1,48,47,674236584
63,7,22,Ticks_Phase_8,172,5,42,127,675034580
63,7,22,Ticks_Phase_8,173,1,48,30,675059940
63,7,22,Ticks_Phase_8,174,1,48,51,675791416
63,7,22,Ticks_Phase_8,175,5,42,127,675835184
63,7,22,Ticks_Phase_8,176,1,48,46,676628424
63,7,22,Ticks_Phase_8,177,5,42,127,676634972
63,7,22,Ticks_Phase_8,178,1,48,45,677403956
63,7,22,Ticks_Phase_8,179,5,42,127,677434856
63,7,22,Ticks_Phase_8,180,1,48,44,678233744
63,7,22,Ticks_Phase_8,181,5,42,127,678235392
63,7,22,Ticks_Phase_8,182,5,42,127,679035108
63,7,22,Ticks_Phase_8,183,1,48,44,679047064
63,7,22,Ticks_Phase_8,184,5,42,127,679834968
63,7,22,Ticks_Phase_8,185,1,48,44,679845428
63,7,22,Ticks_Phase_8,186,5,42,127,680634828
63,7,22,Ticks_Phase_8,187,1,48,43,680646112
63,7,22,Ticks_Phase_8,188,5,42,127,681434764
63,7,22,Ticks_Phase_8,189,1,48,42,681439156
63,7,22,Ticks_Phase_8,190,5,42,127,682235224
63,7,22,Ticks_Phase_8,191,1,48,30,682241560
63,7,22,Ticks_Phase_8,192,5,42,127,682955552
63,7,22,Ticks_Phase_8,193,1,48,45,683028920
63,7,22,Ticks_Phase_8,194,1,48,41,683718688
63,7,22,Ticks_Phase_8,195,5,42,127,683754960
63,7,22,Ticks_Phase_8,196,1,48,40,684519596
63,7,22,Ticks_Phase_8,197,5,42,127,684554600
63,7,22,Ticks_Phase_8,198,1,48,41,685348588
63,7,22,Ticks_Phase_8,199,5,42,127,685355580
63,7,22,Ticks_Phase_8,200,1,48,42,686093488
63,7,22,Ticks_Phase_8,201,5,42,127,686155016
63,7,22,Ticks_Phase_8,202,1,48,48,686934780
63,7,22,Ticks_Phase_8,203,5,42,127,686954880
63,7,22,Ticks_Phase_8,204,5,42,127,687754596
63,7,22,Ticks_Phase_8,205,1,48,43,687755564
63,7,22,Ticks_Phase_8,206,1,48,36,688553996
63,7,22,Ticks_Phase_8,207,5,42,127,688555500
63,7,22,Ticks_Phase_8,208,1,48,43,689304936
63,7,22,Ticks_Phase_8,209,5,42,127,689355212
63,7,22,Ticks_Phase_8,210,1,48,47,690148080
63,7,22,Ticks_Phase_8,211,5,42,127,690154924
63,7,22,Ticks_Phase_8,212,5,42,127,690954496
63,7,22,Ticks_Phase_8,213,1,48,41,691007436
63,7,22,Ticks_Phase_8,214,5,42,127,691755400
63,7,22,Ticks_Phase_8,215,1,48,37,691757996
63,7,22,Ticks_Phase_8,216,1,48,41,692522120
63,7,22,Ticks_Phase_8,217,5,42,127,692555056
63,7,22,Ticks_Phase_8,218,5,42,127,693354776
63,7,22,Ticks_Phase_8,219,1,48,41,693379460
63,7,22,Ticks_Phase_8,220,5,42,127,694154632
63,7,22,Ticks_Phase_8,221,1,48,46,694160896
63,7,22,Ticks_Phase_8,222,1,48,34,694953196
63,7,22,Ticks_Phase_8,223,5,42,127,694955312
63,7,22,Ticks_Phase_8,224,1,48,43,695714776
63,7,22,Ticks_Phase_8,225,5,42,127,695755244
63,7,22,Ticks_Phase_8,226,1,48,44,696561288
63,7,22,Ticks_Phase_8,227,5,42,127,696634664
63,7,22,Ticks_Phase_8,228,5,42,127,697434460
63,7,22,Ticks_Phase_8,229,1,48,46,697546768
63,7,22,Ticks_Phase_8,230,1,48,38,698187700
63,7,22,Ticks_Phase_8,231,5,42,127,698235360
63,7,22,Ticks_Phase_8,232,1,48,40,699019240
63,7,22,Ticks_Phase_8,233,5,42,127,699035000
63,7,22,Ticks_Phase_8,234,1,48,46,699787204
63,7,22,Ticks_Phase_8,235,5,42,127,699834640
63,7,22,Ticks_Phase_8,236,1,48,43,700586688
63,7,22,Ticks_Phase_8,237,5,42,127,700634348
63,7,22,Ticks_Phase_8,238,1,48,36,701399728
63,7,22,Ticks_Phase_8,239,5,42,127,701435332
63,7,22,Ticks_Phase_8,240,1,48,41,702213228
63,7,22,Ticks_Phase_8,241,5,42,127,702235192
63,7,22,Ticks_Phase_8,242,1,48,48,703015628
63,7,22,Ticks_Phase_8,243,5,42,127,703034704
63,7,22,Ticks_Phase_8,244,1,48,45,703798592
63,7,22,Ticks_Phase_8,245,5,42,127,703834416
63,7,22,Ticks_Phase_8,246,1,48,44,704633136
63,7,22,Ticks_Phase_8,247,5,42,127,704635176
63,7,22,Ticks_Phase_8,248,1,48,44,705420248
63,7,22,Ticks_Phase_8,249,5,42,127,705435184
63,7,22,Ticks_Phase_8,250,1,48,47,706211872
63,7,22,Ticks_Phase_8,251,5,42,127,706234596
63,7,22,Ticks_Phase_8,252,5,42,127,707034392
63,7,22,Ticks_Phase_8,253,1,48,38,707048068
63,7,22,Ticks_Phase_8,254,1,48,46,707806884
63,7,22,Ticks_Phase_8,255,5,42,127,707835220
63,7,22,Ticks_Phase_8,256,5,42,127,708635084
63,7,22,Ticks_Phase_8,257,1,48,38,708636052
63,7,22,Ticks_Phase_8,258,5,42,127,709434972
63,7,22,Ticks_Phase_8,259,1,48,40,709447980
63,7,22,Ticks_Phase_8,260,1,48,41,710228580
63,7,22,Ticks_Phase_8,261,5,42,127,710395368
63,7,22,Ticks_Phase_8,262,5,42,127,711195100
63,7,22,Ticks_Phase_8,263,1,48,40,711236512
63,7,22,Ticks_Phase_8,264,1,48,37,711989008
63,7,22,Ticks_Phase_8,265,5,42,127,711994880
63,7,22,Ticks_Phase_8,266,5,42,127,712794376
63,7,22,Ticks_Phase_8,267,1,48,35,712821676
63,7,22,Ticks_Phase_8,268,5,42,127,713595136
63,7,22,Ticks_Phase_8,269,1,48,39,713610904
63,7,22,Ticks_Phase_8,270,5,42,127,714395072
63,7,22,Ticks_Phase_8,271,1,48,42,714438784
63,7,22,Ticks_Phase_8,272,1,48,41,715168984
63,7,22,Ticks_Phase_8,273,5,42,127,715194924
63,7,22,Ticks_Phase_8,274,5,42,127,715994344
63,7,22,Ticks_Phase_8,275,1,48,43,716007948
63,7,22,Ticks_Phase_8,276,1,48,38,716759864
63,7,22,Ticks_Phase_8,277,5,42,127,716795168
63,7,22,Ticks_Phase_8,278,5,42,127,717594888
63,7,22,Ticks_Phase_8,279,1,48,40,717627764
63,7,22,Ticks_Phase_8,280,1,48,43,718384604
63,7,22,Ticks_Phase_8,281,5,42,127,718394988
63,7,22,Ticks_Phase_8,282,1,48,43,719174376
63,7,22,Ticks_Phase_8,283,5,42,127,719194476
63,7,22,Ticks_Phase_8,284,5,42,127,719995316
63,7,22,Ticks_Phase_8,285,1,48,42,720010936
63,7,22,Ticks_Phase_8,286,1,48,41,720764516
63,7,22,Ticks_Phase_8,287,5,42,127,720795096
63,7,22,Ticks_Phase_8,288,5,42,127,721594960
63,7,22,Ticks_Phase_8,289,1,48,47,721631924
63,7,22,Ticks_Phase_8,290,1,48,41,722388644
63,7,22,Ticks_Phase_8,291,5,42,127,722394668
63,7,22,Ticks_Phase_8,292,1,48,39,723159452
63,7,22,Ticks_Phase_8,293,5,42,127,723195200
63,7,22,Ticks_Phase_8,294,5,42,127,723994920
63,7,22,Ticks_Phase_8,295,1,48,43,724016012
63,7,22,Ticks_Phase_8,296,1,48,45,724770400
63,7,22,Ticks_Phase_8,297,5,42,127,724794724
63,7,22,Ticks_Phase_8,298,5,42,127,725434832
63,7,22,Ticks_Phase_8,299,1,48,40,725615088
63,7,22,Ticks_Phase_8,300,1,48,33,726201252
63,7,22,Ticks_Phase_8,301,5,42,127,726234612
63,7,22,Ticks_Phase_8,302,5,42,127,727035232
63,7,22,Ticks_Phase_8,303,1,48,34,727046964
63,7,22,Ticks_Phase_8,304,1,48,42,727796708
63,7,22,Ticks_Phase_8,305,5,42,127,727834860
63,7,22,Ticks_Phase_8,306,5,42,127,728634752
63,7,22,Ticks_Phase_8,307,1,48,45,728669920
63,7,22,Ticks_Phase_8,308,1,48,33,729428880
63,7,22,Ticks_Phase_8,309,5,42,127,729434604
63,7,22,Ticks_Phase_8,310,1,48,41,730179768
63,7,22,Ticks_Phase_8,311,5,42,127,730235364
63,7,22,Ticks_Phase_8,312,5,42,127,731034936
63,7,22,Ticks_Phase_8,313,1,48,42,731058204
63,7,22,Ticks_Phase_8,314,5,42,127,731834872
63,7,22,Ticks_Phase_8,315,1,48,40,731849148
63,7,22,Ticks_Phase_8,316,5,42,127,732634656
63,7,22,Ticks_Phase_8,317,1,48,48,732667060
63,7,22,Ticks_Phase_8,318,1,48,43,733423252
63,7,22,Ticks_Phase_8,319,5,42,127,733435408
63,7,22,Ticks_Phase_8,320,1,48,40,734216744
63,7,22,Ticks_Phase_8,321,5,42,127,734235044
63,7,22,Ticks_Phase_8,322,1,48,46,735014736
63,7,22,Ticks_Phase_8,323,5,42,127,735034708
63,7,22,Ticks_Phase_8,324,1,48,39,735828476
63,7,22,Ticks_Phase_8,325,5,42,127,735834348
63,7,22,Ticks_Phase_8,326,1,48,32,736626684
63,7,22,Ticks_Phase_8,327,5,42,127,736635628
63,7,22,Ticks_Phase_8,328,1,48,43,737420632
63,7,22,Ticks_Phase_8,329,5,42,127,737435116
63,7,22,Ticks_Phase_8,330,1,48,49,738209040
63,7,22,Ticks_Phase_8,331,5,42,127,738234756
63,7,22,Ticks_Phase_8,332,5,42,127,739034548
63,7,22,Ticks_Phase_8,333,1,48,43,739067928
63,7,22,Ticks_Phase_8,334,1,48,42,739831972
63,7,22,Ticks_Phase_8,335,5,42,127,739835448
63,7,22,Ticks_Phase_8,336,1,48,38,740630564
63,7,22,Ticks_Phase_8,337,5,42,127,740634940
63,7,22,Ticks_Phase_8,0,9999,9999,9999,605432952
63,7,22,Ticks_Phase_8,1,9999,9999,9999,606232684
63,7,22,Ticks_Phase_8,2,9999,9999,9999,607032412
63,7,22,Ticks_Phase_8,3,9999,9999,9999,607832120
63,7,22,Ticks_Phase_8,4,9999,9999,9999,608632888
63,7,22,Ticks_Phase_8,5,9999,9999,9999,609432676
63,7,22,Ticks_Phase_8,6,9999,9999,9999,610232380
63,7,22,Ticks_Phase_8,7,9999,9999,9999,611032164
63,7,22,Ticks_Phase_8,8,9999,9999,9999,611832924
63,7,22,Ticks_Phase_8,9,9999,9999,9999,612632636
63,7,22,Ticks_Phase_8,10,9999,9999,9999,613432420
63,7,22,Ticks_Phase_8,11,9999,9999,9999,614232164
63,7,22,Ticks_Phase_8,12,9999,9999,9999,615032916
63,7,22,Ticks_Phase_8,13,9999,9999,9999,615832704
63,7,22,Ticks_Phase_8,14,9999,9999,9999,616632416
63,7,22,Ticks_Phase_8,15,9999,9999,9999,617432128
63,7,22,Ticks_Phase_8,16,9999,9999,9999,618232888
63,7,22,Ticks_Phase_8,17,9999,9999,9999,619032672
63,7,22,Ticks_Phase_8,18,9999,9999,9999,619832384
63,7,22,Ticks_Phase_8,19,9999,9999,9999,620632120
63,7,22,Ticks_Phase_8,20,9999,9999,9999,621432884
63,7,22,Ticks_Phase_8,21,9999,9999,9999,622232664
63,7,22,Ticks_Phase_8,22,9999,9999,9999,623032376
63,7,22,Ticks_Phase_8,23,9999,9999,9999,623832160
63,7,22,Ticks_Phase_8,24,9999,9999,9999,624632920
63,7,22,Ticks_Phase_8,25,9999,9999,9999,625432640
63,7,22,Ticks_Phase_8,26,9999,9999,9999,626232416
63,7,22,Ticks_Phase_8,27,9999,9999,9999,627032156
63,7,22,Ticks_Phase_8,28,9999,9999,9999,627832920
63,7,22,Ticks_Phase_8,29,9999,9999,9999,628632700
63,7,22,Ticks_Phase_8,30,9999,9999,9999,629412948
63,7,22,Ticks_Phase_8,31,9999,9999,9999,630212728
63,7,22,Ticks_Phase_8,32,9999,9999,9999,631012448
63,7,22,Ticks_Phase_8,33,9999,9999,9999,631812160
63,7,22,Ticks_Phase_8,34,9999,9999,9999,632612984
63,7,22,Ticks_Phase_8,35,9999,9999,9999,633412720
63,7,22,Ticks_Phase_8,36,9999,9999,9999,634212440
63,7,22,Ticks_Phase_8,37,9999,9999,9999,635012152
63,7,22,Ticks_Phase_8,38,9999,9999,9999,635812980
63,7,22,Ticks_Phase_8,39,9999,9999,9999,636612692
63,7,22,Ticks_Phase_8,40,9999,9999,9999,637412480
63,7,22,Ticks_Phase_8,41,9999,9999,9999,638212228
63,7,22,Ticks_Phase_8,42,9999,9999,9999,639012956
63,7,22,Ticks_Phase_8,43,9999,9999,9999,639812692
63,7,22,Ticks_Phase_8,44,9999,9999,9999,640612472
63,7,22,Ticks_Phase_8,45,9999,9999,9999,641412192
63,7,22,Ticks_Phase_8,46,9999,9999,9999,642212940
63,7,22,Ticks_Phase_8,47,9999,9999,9999,643012736
63,7,22,Ticks_Phase_8,48,9999,9999,9999,643832944
63,7,22,Ticks_Phase_8,49,9999,9999,9999,644632672
63,7,22,Ticks_Phase_8,50,9999,9999,9999,645432388
63,7,22,Ticks_Phase_8,51,9999,9999,9999,646232120
63,7,22,Ticks_Phase_8,52,9999,9999,9999,647032956
63,7,22,Ticks_Phase_8,53,9999,9999,9999,647832668
63,7,22,Ticks_Phase_8,54,9999,9999,9999,648632380
63,7,22,Ticks_Phase_8,55,9999,9999,9999,649432168
63,7,22,Ticks_Phase_8,56,9999,9999,9999,650232904
63,7,22,Ticks_Phase_8,57,9999,9999,9999,651032692
63,7,22,Ticks_Phase_8,58,9999,9999,9999,651832424
63,7,22,Ticks_Phase_8,59,9999,9999,9999,652632140
63,7,22,Ticks_Phase_8,60,9999,9999,9999,653432892
63,7,22,Ticks_Phase_8,61,9999,9999,9999,654232684
63,7,22,Ticks_Phase_8,62,9999,9999,9999,655032396
63,7,22,Ticks_Phase_8,63,9999,9999,9999,655832184
63,7,22,Ticks_Phase_8,64,9999,9999,9999,656672852
63,7,22,Ticks_Phase_8,65,9999,9999,9999,657472596
63,7,22,Ticks_Phase_8,66,9999,9999,9999,658272380
63,7,22,Ticks_Phase_8,67,9999,9999,9999,659072096
63,7,22,Ticks_Phase_8,68,9999,9999,9999,659872848
63,7,22,Ticks_Phase_8,69,9999,9999,9999,660672636
63,7,22,Ticks_Phase_8,70,9999,9999,9999,661472352
63,7,22,Ticks_Phase_8,71,9999,9999,9999,662272060
63,7,22,Ticks_Phase_8,72,9999,9999,9999,663072888
63,7,22,Ticks_Phase_8,73,9999,9999,9999,663872628
63,7,22,Ticks_Phase_8,74,9999,9999,9999,664672336
63,7,22,Ticks_Phase_8,75,9999,9999,9999,665472128
63,7,22,Ticks_Phase_8,76,9999,9999,9999,666272876
63,7,22,Ticks_Phase_8,77,9999,9999,9999,667072596
63,7,22,Ticks_Phase_8,78,9999,9999,9999,667872376
63,7,22,Ticks_Phase_8,79,9999,9999,9999,668672088
63,7,22,Ticks_Phase_8,80,9999,9999,9999,669472852
63,7,22,Ticks_Phase_8,81,9999,9999,9999,670232652
63,7,22,Ticks_Phase_8,82,9999,9999,9999,671032380
63,7,22,Ticks_Phase_8,83,9999,9999,9999,671832168
63,7,22,Ticks_Phase_8,84,9999,9999,9999,672632928
63,7,22,Ticks_Phase_8,85,9999,9999,9999,673432644
63,7,22,Ticks_Phase_8,86,9999,9999,9999,674232432
63,7,22,Ticks_Phase_8,87,9999,9999,9999,675032144
63,7,22,Ticks_Phase_8,88,9999,9999,9999,675832896
63,7,22,Ticks_Phase_8,89,9999,9999,9999,676632684
63,7,22,Ticks_Phase_8,90,9999,9999,9999,677432420
63,7,22,Ticks_Phase_8,91,9999,9999,9999,678232140
63,7,22,Ticks_Phase_8,92,9999,9999,9999,679032896
63,7,22,Ticks_Phase_8,93,9999,9999,9999,679832684
63,7,22,Ticks_Phase_8,94,9999,9999,9999,680632392
63,7,22,Ticks_Phase_8,95,9999,9999,9999,681432180
63,7,22,Ticks_Phase_8,96,9999,9999,9999,682232936
63,7,22,Ticks_Phase_8,97,9999,9999,9999,682952820
63,7,22,Ticks_Phase_8,98,9999,9999,9999,683752524
63,7,22,Ticks_Phase_8,99,9999,9999,9999,684552312
63,7,22,Ticks_Phase_8,100,9999,9999,9999,685353072
63,7,22,Ticks_Phase_8,101,9999,9999,9999,686152808
63,7,22,Ticks_Phase_8,102,9999,9999,9999,686952516
63,7,22,Ticks_Phase_8,103,9999,9999,9999,687752312
63,7,22,Ticks_Phase_8,104,9999,9999,9999,688553072
63,7,22,Ticks_Phase_8,105,9999,9999,9999,689352776
63,7,22,Ticks_Phase_8,106,9999,9999,9999,690152564
63,7,22,Ticks_Phase_8,107,9999,9999,9999,690952280
63,7,22,Ticks_Phase_8,108,9999,9999,9999,691753040
63,7,22,Ticks_Phase_8,109,9999,9999,9999,692552768
63,7,22,Ticks_Phase_8,110,9999,9999,9999,693352560
63,7,22,Ticks_Phase_8,111,9999,9999,9999,694152272
63,7,22,Ticks_Phase_8,112,9999,9999,9999,694953064
63,7,22,Ticks_Phase_8,113,9999,9999,9999,695752808
63,7,22,Ticks_Phase_8,114,9999,9999,9999,696632376
63,7,22,Ticks_Phase_8,115,9999,9999,9999,697432172
63,7,22,Ticks_Phase_8,116,9999,9999,9999,698232924
63,7,22,Ticks_Phase_8,117,9999,9999,9999,699032640
63,7,22,Ticks_Phase_8,118,9999,9999,9999,699832428
63,7,22,Ticks_Phase_8,119,9999,9999,9999,700632136
63,7,22,Ticks_Phase_8,120,9999,9999,9999,701432896
63,7,22,Ticks_Phase_8,121,9999,9999,9999,702232684
63,7,22,Ticks_Phase_8,122,9999,9999,9999,703032420
63,7,22,Ticks_Phase_8,123,9999,9999,9999,703832132
63,7,22,Ticks_Phase_8,124,9999,9999,9999,704632924
63,7,22,Ticks_Phase_8,125,9999,9999,9999,705432676
63,7,22,Ticks_Phase_8,126,9999,9999,9999,706232384
63,7,22,Ticks_Phase_8,127,9999,9999,9999,707032180
63,7,22,Ticks_Phase_8,128,9999,9999,9999,707832932
63,7,22,Ticks_Phase_8,129,9999,9999,9999,708632648
63,7,22,Ticks_Phase_8,130,9999,9999,9999,709432388
63,7,22,Ticks_Phase_8,131,9999,9999,9999,710392932
63,7,22,Ticks_Phase_8,132,9999,9999,9999,711192668
63,7,22,Ticks_Phase_8,133,9999,9999,9999,711992448
63,7,22,Ticks_Phase_8,134,9999,9999,9999,712792164
63,7,22,Ticks_Phase_8,135,9999,9999,9999,713592920
63,7,22,Ticks_Phase_8,136,9999,9999,9999,714392636
63,7,22,Ticks_Phase_8,137,9999,9999,9999,715192412
63,7,22,Ticks_Phase_8,138,9999,9999,9999,715992132
63,7,22,Ticks_Phase_8,139,9999,9999,9999,716792956
63,7,22,Ticks_Phase_8,140,9999,9999,9999,717592676
63,7,22,Ticks_Phase_8,141,9999,9999,9999,718392404
63,7,22,Ticks_Phase_8,142,9999,9999,9999,719192188
63,7,22,Ticks_Phase_8,143,9999,9999,9999,719992956
63,7,22,Ticks_Phase_8,144,9999,9999,9999,720792660
63,7,22,Ticks_Phase_8,145,9999,9999,9999,721592376
63,7,22,Ticks_Phase_8,146,9999,9999,9999,722392156
63,7,22,Ticks_Phase_8,147,9999,9999,9999,723192916
63,7,22,Ticks_Phase_8,148,9999,9999,9999,723992632
63,7,22,Ticks_Phase_8,149,9999,9999,9999,724792436
63,7,22,Ticks_Phase_8,150,9999,9999,9999,725432396
63,7,22,Ticks_Phase_8,151,9999,9999,9999,726232176
63,7,22,Ticks_Phase_8,152,9999,9999,9999,727032944
63,7,22,Ticks_Phase_8,153,9999,9999,9999,727832648
63,7,22,Ticks_Phase_8,154,9999,9999,9999,728632392
63,7,22,Ticks_Phase_8,155,9999,9999,9999,729432172
63,7,22,Ticks_Phase_8,156,9999,9999,9999,730232928
63,7,22,Ticks_Phase_8,157,9999,9999,9999,731032648
63,7,22,Ticks_Phase_8,158,9999,9999,9999,731832436
63,7,22,Ticks_Phase_8,159,9999,9999,9999,732632144
63,7,22,Ticks_Phase_8,160,9999,9999,9999,733432896
63,7,22,Ticks_Phase_8,161,9999,9999,9999,734232684
63,7,22,Ticks_Phase_8,162,9999,9999,9999,735032420
63,7,22,Ticks_Phase_8,163,9999,9999,9999,735832136
63,7,22,Ticks_Phase_8,164,9999,9999,9999,736632892
63,7,22,Ticks_Phase_8,165,9999,9999,9999,737432680
63,7,22,Ticks_Phase_8,166,9999,9999,9999,738232392
63,7,22,Ticks_Phase_8,167,9999,9999,9999,739032188
63,7,22,Ticks_Phase_8,168,9999,9999,9999,739832940
63,7,22,Ticks_Phase_8,169,9999,9999,9999,740632652
63,8,21,Ticks_Linear_5,0,5,42,127,751885624
63,8,21,Ticks_Linear_5,1,5,42,127,752366172
63,8,21,Ticks_Linear_5,2,5,42,127,752846276
63,8,21,Ticks_Linear_5,3,1,48,45,752848288
63,8,21,Ticks_Linear_5,4,1,48,57,753308604
63,8,21,Ticks_Linear_5,5,5,42,127,753325348
63,8,21,Ticks_Linear_5,6,1,48,56,753756108
63,8,21,Ticks_Linear_5,7,5,42,127,753805652
63,8,21,Ticks_Linear_5,8,1,48,57,754262912
63,8,21,Ticks_Linear_5,9,5,42,127,754296140
63,8,21,Ticks_Linear_5,10,1,48,55,754729644
63,8,21,Ticks_Linear_5,11,5,42,127,754785656
63,8,21,Ticks_Linear_5,12,1,48,45,755239828
63,8,21,Ticks_Linear_5,13,5,42,127,755276144
63,8,21,Ticks_Linear_5,14,1,48,47,755743120
63,8,21,Ticks_Linear_5,15,5,42,127,755765580
63,8,21,Ticks_Linear_5,16,1,48,50,756230244
63,8,21,Ticks_Linear_5,17,5,42,127,756256120
63,8,21,Ticks_Linear_5,18,5,42,127,756756048
63,8,21,Ticks_Linear_5,19,1,48,50,756758492
63,8,21,Ticks_Linear_5,20,1,48,48,757250456
63,8,21,Ticks_Linear_5,21,5,42,127,757255592
63,8,21,Ticks_Linear_5,22,1,48,46,757731808
63,8,21,Ticks_Linear_5,23,5,42,127,757756340
63,8,21,Ticks_Linear_5,24,5,42,127,758256116
63,8,21,Ticks_Linear_5,25,1,48,43,758260812
63,8,21,Ticks_Linear_5,26,5,42,127,758755892
63,8,21,Ticks_Linear_5,27,1,48,47,758768976
63,8,21,Ticks_Linear_5,28,5,42,127,759265852
63,8,21,Ticks_Linear_5,29,1,48,51,759276916
63,8,21,Ticks_Linear_5,30,1,48,47,759766852
63,8,21,Ticks_Linear_5,31,5,42,127,759775728
63,8,21,Ticks_Linear_5,32,1,48,51,760278088
63,8,21,Ticks_Linear_5,33,5,42,127,760285764
63,8,21,Ticks_Linear_5,34,5,42,127,760795504
63,8,21,Ticks_Linear_5,35,1,48,46,760803036
63,8,21,Ticks_Linear_5,36,5,42,127,761305464
63,8,21,Ticks_Linear_5,37,1,48,47,761316224
63,8,21,Ticks_Linear_5,38,1,48,46,761820988
63,8,21,Ticks_Linear_5,39,5,42,127,761825900
63,8,21,Ticks_Linear_5,40,1,48,48,762313196
63,8,21,Ticks_Linear_5,41,5,42,127,762345968
63,8,21,Ticks_Linear_5,42,1,48,46,762854992
63,8,21,Ticks_Linear_5,43,5,42,127,762865964
63,8,21,Ticks_Linear_5,44,1,48,45,763364880
63,8,21,Ticks_Linear_5,45,5,42,127,763386256
63,8,21,Ticks_Linear_5,46,1,48,43,763884796
63,8,21,Ticks_Linear_5,47,5,42,127,763906404
63,8,21,Ticks_Linear_5,48,1,48,47,764403652
63,8,21,Ticks_Linear_5,49,5,42,127,764446240
63,8,21,Ticks_Linear_5,50,1,48,44,764959008
63,8,21,Ticks_Linear_5,51,5,42,127,764975448
63,8,21,Ticks_Linear_5,52,1,48,42,765468216
63,8,21,Ticks_Linear_5,53,5,42,127,765505952
63,8,21,Ticks_Linear_5,54,1,48,43,766030544
63,8,21,Ticks_Linear_5,55,5,42,127,766036428
63,8,21,Ticks_Linear_5,56,5,42,127,766565864
63,8,21,Ticks_Linear_5,57,1,48,44,766570480
63,8,21,Ticks_Linear_5,58,5,42,127,767106380
63,8,21,Ticks_Linear_5,59,1,48,39,767107272
63,8,21,Ticks_Linear_5,60,5,42,127,767656252
63,8,21,Ticks_Linear_5,61,1,48,42,767673460
63,8,21,Ticks_Linear_5,62,5,42,127,768195944
63,8,21,Ticks_Linear_5,63,1,48,43,768199136
63,8,21,Ticks_Linear_5,64,1,48,41,768731832
63,8,21,Ticks_Linear_5,65,5,42,127,768735700
63,8,21,Ticks_Linear_5,66,1,48,38,769268832
63,8,21,Ticks_Linear_5,67,5,42,127,769276284
63,8,21,Ticks_Linear_5,68,1,48,43,769824580
63,8,21,Ticks_Linear_5,69,5,42,127,769826088
63,8,21,Ticks_Linear_5,70,1,48,43,770341244
63,8,21,Ticks_Linear_5,71,5,42,127,770375908
63,8,21,Ticks_Linear_5,72,5,42,127,770925940
63,8,21,Ticks_Linear_5,73,1,48,42,770941784
63,8,21,Ticks_Linear_5,74,1,48,44,771467456
63,8,21,Ticks_Linear_5,75,5,42,127,771475880
63,8,21,Ticks_Linear_5,76,1,48,42,771992908
63,8,21,Ticks_Linear_5,77,5,42,127,772025980
63,8,21,Ticks_Linear_5,78,1,48,46,772584764
63,8,21,Ticks_Linear_5,79,5,42,127,772586260
63,8,21,Ticks_Linear_5,80,1,48,45,773133488
63,8,21,Ticks_Linear_5,81,5,42,127,773145948
63,8,21,Ticks_Linear_5,82,5,42,127,773705964
63,8,21,Ticks_Linear_5,83,1,48,41,773710728
63,8,21,Ticks_Linear_5,84,1,48,48,774244636
63,8,21,Ticks_Linear_5,85,5,42,127,774266092
63,8,21,Ticks_Linear_5,86,1,48,35,774816448
63,8,21,Ticks_Linear_5,87,5,42,127,774826300
63,8,21,Ticks_Linear_5,88,1,48,40,775364008
63,8,21,Ticks_Linear_5,89,5,42,127,775395868
63,8,21,Ticks_Linear_5,90,1,48,41,775866480
63,8,21,Ticks_Linear_5,91,5,42,127,775966172
63,8,21,Ticks_Linear_5,92,5,42,127,776536616
63,8,21,Ticks_Linear_5,93,1,48,41,776555688
63,8,21,Ticks_Linear_5,94,1,48,41,777079624
63,8,21,Ticks_Linear_5,95,5,42,127,777116136
63,8,21,Ticks_Linear_5,96,1,48,47,777672708
63,8,21,Ticks_Linear_5,97,5,42,127,777686684
63,8,21,Ticks_Linear_5,98,1,48,38,778220484
63,8,21,Ticks_Linear_5,99,5,42,127,778265912
63,8,21,Ticks_Linear_5,100,1,48,37,778833288
63,8,21,Ticks_Linear_5,101,5,42,127,778845764
63,8,21,Ticks_Linear_5,102,5,42,127,779426052
63,8,21,Ticks_Linear_5,103,1,48,42,779437560
63,8,21,Ticks_Linear_5,104,5,42,127,780005804
63,8,21,Ticks_Linear_5,105,1,48,43,780010572
63,8,21,Ticks_Linear_5,106,5,42,127,780586304
63,8,21,Ticks_Linear_5,107,1,48,44,780622840
63,8,21,Ticks_Linear_5,108,1,48,46,781117516
63,8,21,Ticks_Linear_5,109,5,42,127,781176260
63,8,21,Ticks_Linear_5,110,1,48,45,781732308
63,8,21,Ticks_Linear_5,111,5,42,127,781766124
63,8,21,Ticks_Linear_5,112,5,42,127,782355920
63,8,21,Ticks_Linear_5,113,1,48,45,782374924
63,8,21,Ticks_Linear_5,114,5,42,127,782945512
63,8,21,Ticks_Linear_5,115,1,48,41,782965556
63,8,21,Ticks_Linear_5,116,5,42,127,783535600
63,8,21,Ticks_Linear_5,117,1,48,48,783557516
63,8,21,Ticks_Linear_5,118,5,42,127,784135648
63,8,21,Ticks_Linear_5,119,1,48,44,784161008
63,8,21,Ticks_Linear_5,120,5,42,127,784735648
63,8,21,Ticks_Linear_5,121,1,48,40,784763620
63,8,21,Ticks_Linear_5,122,5,42,127,785335772
63,8,21,Ticks_Linear_5,123,1,48,46,785381576
63,8,21,Ticks_Linear_5,124,1,48,45,785930304
63,8,21,Ticks_Linear_5,125,5,42,127,785935664
63,8,21,Ticks_Linear_5,126,5,42,127,786535744
63,8,21,Ticks_Linear_5,127,1,48,48,786553680
63,8,21,Ticks_Linear_5,128,1,48,40,787100168
63,8,21,Ticks_Linear_5,129,5,42,127,787146116
63,8,21,Ticks_Linear_5,130,1,48,46,787714748
63,8,21,Ticks_Linear_5,131,5,42,127,787756576
63,8,21,Ticks_Linear_5,132,1,48,38,788359004
63,8,21,Ticks_Linear_5,133,5,42,127,788365636
63,8,21,Ticks_Linear_5,134,5,42,127,788975952
63,8,21,Ticks_Linear_5,135,1,48,43,788998840
63,8,21,Ticks_Linear_5,136,5,42,127,789586504
63,8,21,Ticks_Linear_5,137,1,48,41,789694700
63,8,21,Ticks_Linear_5,138,1,48,38,790172272
63,8,21,Ticks_Linear_5,139,5,42,127,790205720
63,8,21,Ticks_Linear_5,140,1,48,41,790776744
63,8,21,Ticks_Linear_5,141,5,42,127,790826512
63,8,21,Ticks_Linear_5,142,1,48,42,791360192
63,8,21,Ticks_Linear_5,143,5,42,127,791445832
63,8,21,Ticks_Linear_5,144,1,48,37,792058420
63,8,21,Ticks_Linear_5,145,5,42,127,792066476
63,8,21,Ticks_Linear_5,146,1,48,37,792678936
63,8,21,Ticks_Linear_5,147,5,42,127,792696352
63,8,21,Ticks_Linear_5,148,1,48,38,793310440
63,8,21,Ticks_Linear_5,149,5,42,127,793326056
63,8,21,Ticks_Linear_5,150,5,42,127,793955720
63,8,21,Ticks_Linear_5,151,1,48,43,793984676
63,8,21,Ticks_Linear_5,152,5,42,127,794585424
63,8,21,Ticks_Linear_5,153,1,48,51,794610932
63,8,21,Ticks_Linear_5,154,1,48,48,795185820
63,8,21,Ticks_Linear_5,155,5,42,127,795216412
63,8,21,Ticks_Linear_5,156,1,48,47,795786092
63,8,21,Ticks_Linear_5,157,5,42,127,795845968
63,8,21,Ticks_Linear_5,158,1,48,47,796477536
63,8,21,Ticks_Linear_5,159,5,42,127,796485960
63,8,21,Ticks_Linear_5,160,1,48,42,797116748
63,8,21,Ticks_Linear_5,161,5,42,127,797125996
63,8,21,Ticks_Linear_5,162,5,42,127,797766216
63,8,21,Ticks_Linear_5,163,1,48,51,797770908
63,8,21,Ticks_Linear_5,164,1,48,47,798401788
63,8,21,Ticks_Linear_5,165,5,42,127,798406396
63,8,21,Ticks_Linear_5,166,5,42,127,799045944
63,8,21,Ticks_Linear_5,167,1,48,35,799076404
63,8,21,Ticks_Linear_5,168,1,48,46,799660844
63,8,21,Ticks_Linear_5,169,5,42,127,799696160
63,8,21,Ticks_Linear_5,170,1,48,48,800324280
63,8,21,Ticks_Linear_5,171,5,42,127,800345364
63,8,21,Ticks_Linear_5,172,1,48,45,800978544
63,8,21,Ticks_Linear_5,173,5,42,127,800995732
63,8,21,Ticks_Linear_5,174,1,48,43,801646432
63,8,21,Ticks_Linear_5,175,5,42,127,801647548
63,8,21,Ticks_Linear_5,176,5,42,127,802296136
63,8,21,Ticks_Linear_5,177,1,48,51,802329064
63,8,21,Ticks_Linear_5,178,5,42,127,802955520
63,8,21,Ticks_Linear_5,179,1,48,38,802973924
63,8,21,Ticks_Linear_5,180,1,48,48,803597460
63,8,21,Ticks_Linear_5,181,5,42,127,803616068
63,8,21,Ticks_Linear_5,182,1,48,43,804244792
63,8,21,Ticks_Linear_5,183,5,42,127,804275456
63,8,21,Ticks_Linear_5,184,1,48,47,804905124
63,8,21,Ticks_Linear_5,185,5,42,127,804936188
63,8,21,Ticks_Linear_5,186,1,48,47,805549228
63,8,21,Ticks_Linear_5,187,5,42,127,805595400
63,8,21,Ticks_Linear_5,188,1,48,49,806254820
63,8,21,Ticks_Linear_5,189,5,42,127,806266088
63,8,21,Ticks_Linear_5,190,1,48,44,806890884
63,8,21,Ticks_Linear_5,191,5,42,127,806936008
63,8,21,Ticks_Linear_5,192,5,42,127,807605584
63,8,21,Ticks_Linear_5,193,1,48,45,807613264
63,8,21,Ticks_Linear_5,194,5,42,127,808276352
63,8,21,Ticks_Linear_5,195,1,48,51,808304940
63,8,21,Ticks_Linear_5,196,5,42,127,808945972
63,8,21,Ticks_Linear_5,197,1,48,43,808954040
63,8,21,Ticks_Linear_5,198,1,48,44,809608380
63,8,21,Ticks_Linear_5,199,5,42,127,809626016
63,8,21,Ticks_Linear_5,200,1,48,46,810274032
63,8,21,Ticks_Linear_5,201,5,42,127,810306140
63,8,21,Ticks_Linear_5,202,1,48,40,810968384
63,8,21,Ticks_Linear_5,203,5,42,127,810986096
63,8,21,Ticks_Linear_5,204,5,42,127,811665936
63,8,21,Ticks_Linear_5,205,1,48,43,811696016
63,8,21,Ticks_Linear_5,206,5,42,127,812345840
63,8,21,Ticks_Linear_5,207,1,48,42,812359668
63,8,21,Ticks_Linear_5,208,1,48,49,813007772
63,8,21,Ticks_Linear_5,209,5,42,127,813035824
63,8,21,Ticks_Linear_5,210,1,48,47,813683700
63,8,21,Ticks_Linear_5,211,5,42,127,813726136
63,8,21,Ticks_Linear_5,212,5,42,127,814416156
63,8,21,Ticks_Linear_5,213,1,48,45,814417124
63,8,21,Ticks_Linear_5,214,1,48,50,815066412
63,8,21,Ticks_Linear_5,215,5,42,127,815106364
63,8,21,Ticks_Linear_5,216,5,42,127,815805968
63,8,21,Ticks_Linear_5,217,1,48,49,815824372
63,8,21,Ticks_Linear_5,218,5,42,127,816506168
63,8,21,Ticks_Linear_5,219,1,48,37,816556172
63,8,21,Ticks_Linear_5,220,1,48,45,817199872
63,8,21,Ticks_Linear_5,221,5,42,127,817205756
63,8,21,Ticks_Linear_5,222,1,48,46,817885072
63,8,21,Ticks_Linear_5,223,5,42,127,817906156
63,8,21,Ticks_Linear_5,224,1,48,47,818557340
63,8,21,Ticks_Linear_5,225,5,42,127,818605384
63,8,21,Ticks_Linear_5,226,1,48,48,819290856
63,8,21,Ticks_Linear_5,227,5,42,127,819305880
63,8,21,Ticks_Linear_5,228,1,48,39,820013124
63,8,21,Ticks_Linear_5,229,5,42,127,820015736
63,8,21,Ticks_Linear_5,230,1,48,43,820696628
63,8,21,Ticks_Linear_5,231,5,42,127,820726096
63,8,21,Ticks_Linear_5,232,1,48,44,821402808
63,8,21,Ticks_Linear_5,233,5,42,127,821435880
63,8,21,Ticks_Linear_5,234,1,48,40,822112892
63,8,21,Ticks_Linear_5,235,5,42,127,822146712
63,8,21,Ticks_Linear_5,236,5,42,127,822866388
63,8,21,Ticks_Linear_5,237,1,48,43,822882232
63,8,21,Ticks_Linear_5,238,1,48,56,823570104
63,8,21,Ticks_Linear_5,239,5,42,127,823586024
63,8,21,Ticks_Linear_5,240,1,48,43,824285736
63,8,21,Ticks_Linear_5,241,5,42,127,824306140
63,8,21,Ticks_Linear_5,242,5,42,127,825025968
63,8,21,Ticks_Linear_5,243,1,48,51,825040840
63,8,21,Ticks_Linear_5,244,1,48,33,825716912
63,8,21,Ticks_Linear_5,245,5,42,127,825745780
63,8,21,Ticks_Linear_5,246,5,42,127,826465608
63,8,21,Ticks_Linear_5,247,1,48,37,826479884
63,8,21,Ticks_Linear_5,248,1,48,48,827195004
63,8,21,Ticks_Linear_5,249,5,42,127,827196652
63,8,21,Ticks_Linear_5,250,1,48,52,827891680
63,8,21,Ticks_Linear_5,251,5,42,127,827925804
63,8,21,Ticks_Linear_5,252,5,42,127,828656112
63,8,21,Ticks_Linear_5,253,1,48,27,828660880
63,8,21,Ticks_Linear_5,254,1,48,52,829386116
63,8,21,Ticks_Linear_5,255,5,42,127,829387452
63,8,21,Ticks_Linear_5,256,5,42,127,830116340
63,8,21,Ticks_Linear_5,257,1,48,46,830120360
63,8,21,Ticks_Linear_5,258,1,48,48,830831612
63,8,21,Ticks_Linear_5,259,5,42,127,830855476
63,8,21,Ticks_Linear_5,260,1,48,52,831566564
63,8,21,Ticks_Linear_5,261,5,42,127,831595812
63,8,21,Ticks_Linear_5,262,1,48,47,832303000
63,8,21,Ticks_Linear_5,263,5,42,127,832336372
63,8,21,Ticks_Linear_5,264,1,48,44,833034564
63,8,21,Ticks_Linear_5,265,5,42,127,833075588
63,8,21,Ticks_Linear_5,266,1,48,43,833788524
63,8,21,Ticks_Linear_5,267,5,42,127,833815900
63,8,21,Ticks_Linear_5,268,1,48,48,834500328
63,8,21,Ticks_Linear_5,269,5,42,127,834565452
63,8,21,Ticks_Linear_5,270,5,42,127,835315980
63,8,21,Ticks_Linear_5,271,1,48,51,835336404
63,8,21,Ticks_Linear_5,272,1,48,44,836057468
63,8,21,Ticks_Linear_5,273,5,42,127,836065520
63,8,21,Ticks_Linear_5,274,1,48,45,836780352
63,8,21,Ticks_Linear_5,275,5,42,127,836816340
63,8,21,Ticks_Linear_5,276,1,48,48,837503980
63,8,21,Ticks_Linear_5,277,5,42,127,837565740
63,8,21,Ticks_Linear_5,278,5,42,127,838325632
63,8,21,Ticks_Linear_5,279,1,48,40,838337288
63,8,21,Ticks_Linear_5,280,1,48,52,839040084
63,8,21,Ticks_Linear_5,281,5,42,127,839085432
63,8,21,Ticks_Linear_5,282,1,48,42,839841448
63,8,21,Ticks_Linear_5,283,5,42,127,839846360
63,8,21,Ticks_Linear_5,284,1,48,44,840587564
63,8,21,Ticks_Linear_5,285,5,42,127,840606320
63,8,21,Ticks_Linear_5,286,1,48,51,841344304
63,8,21,Ticks_Linear_5,287,5,42,127,841365832
63,8,21,Ticks_Linear_5,288,5,42,127,842135980
63,8,21,Ticks_Linear_5,289,1,48,45,842165840
63,8,21,Ticks_Linear_5,290,1,48,50,842891020
63,8,21,Ticks_Linear_5,291,5,42,127,842905968
63,8,21,Ticks_Linear_5,292,1,48,49,843662284
63,8,21,Ticks_Linear_5,293,5,42,127,843676184
63,8,21,Ticks_Linear_5,294,5,42,127,844446108
63,8,21,Ticks_Linear_5,295,1,48,50,844452896
63,8,21,Ticks_Linear_5,296,5,42,127,845216176
63,8,21,Ticks_Linear_5,297,1,48,48,845247832
63,8,21,Ticks_Linear_5,298,1,48,49,845960132
63,8,21,Ticks_Linear_5,299,5,42,127,845996424
63,8,21,Ticks_Linear_5,300,1,48,52,846716204
63,8,21,Ticks_Linear_5,301,5,42,127,846775704
63,8,21,Ticks_Linear_5,302,1,48,45,847525964
63,8,21,Ticks_Linear_5,303,5,42,127,847556176
63,8,21,Ticks_Linear_5,304,1,48,46,848288536
63,8,21,Ticks_Linear_5,305,5,42,127,848336132
63,8,21,Ticks_Linear_5,306,5,42,127,849115644
63,8,21,Ticks_Linear_5,307,1,48,44,849116612
63,8,21,Ticks_Linear_5,308,5,42,127,849906156
63,8,21,Ticks_Linear_5,309,1,48,45,849909724
63,8,21,Ticks_Linear_5,310,5,42,127,850695548
63,8,21,Ticks_Linear_5,311,1,48,51,850732660
63,8,21,Ticks_Linear_5,312,1,48,49,851463476
63,8,21,Ticks_Linear_5,313,5,42,127,851486124
63,8,21,Ticks_Linear_5,314,1,48,48,852217064
63,8,21,Ticks_Linear_5,315,5,42,127,852275540
63,8,21,Ticks_Linear_5,316,1,48,45,853038752
63,8,21,Ticks_Linear_5,317,5,42,127,853066276
63,8,21,Ticks_Linear_5,318,1,48,44,853817956
63,8,21,Ticks_Linear_5,319,5,42,127,853866000
63,8,21,Ticks_Linear_5,320,1,48,36,854636028
63,8,21,Ticks_Linear_5,321,5,42,127,854665576
63,8,21,Ticks_Linear_5,322,1,48,42,855434032
63,8,21,Ticks_Linear_5,323,5,42,127,855466272
63,8,21,Ticks_Linear_5,324,1,48,45,856241316
63,8,21,Ticks_Linear_5,325,5,42,127,856266144
63,8,21,Ticks_Linear_5,326,1,48,42,857032724
63,8,21,Ticks_Linear_5,327,5,42,127,857066016
63,8,21,Ticks_Linear_5,328,1,48,44,857843752
63,8,21,Ticks_Linear_5,329,5,42,127,857875924
63,8,21,Ticks_Linear_5,330,1,48,44,858678556
63,8,21,Ticks_Linear_5,331,5,42,127,858686008
63,8,21,Ticks_Linear_5,332,1,48,43,859467196
63,8,21,Ticks_Linear_5,333,5,42,127,859495916
63,8,21,Ticks_Linear_5,334,1,48,42,860264972
63,8,21,Ticks_Linear_5,335,5,42,127,860305972
63,8,21,Ticks_Linear_5,336,1,48,36,861090376
63,8,21,Ticks_Linear_5,337,5,42,127,861115880
63,8,21,Ticks_Linear_5,0,9999,9999,9999,751883328
63,8,21,Ticks_Linear_5,1,9999,9999,9999,752363576
63,8,21,Ticks_Linear_5,2,9999,9999,9999,752843904
63,8,21,Ticks_Linear_5,3,9999,9999,9999,753323128
63,8,21,Ticks_Linear_5,4,9999,9999,9999,753803356
63,8,21,Ticks_Linear_5,5,9999,9999,9999,754293840
63,8,21,Ticks_Linear_5,6,9999,9999,9999,754783356
63,8,21,Ticks_Linear_5,7,9999,9999,9999,755273844
63,8,21,Ticks_Linear_5,8,9999,9999,9999,755763284
63,8,21,Ticks_Linear_5,9,9999,9999,9999,756253820
63,8,21,Ticks_Linear_5,10,9999,9999,9999,756753528
63,8,21,Ticks_Linear_5,11,9999,9999,9999,757253220
63,8,21,Ticks_Linear_5,12,9999,9999,9999,757753968
63,8,21,Ticks_Linear_5,13,9999,9999,9999,758253672
63,8,21,Ticks_Linear_5,14,9999,9999,9999,758753372
63,8,21,Ticks_Linear_5,15,9999,9999,9999,759263328
63,8,21,Ticks_Linear_5,16,9999,9999,9999,759773280
63,8,21,Ticks_Linear_5,17,9999,9999,9999,760283244
63,8,21,Ticks_Linear_5,18,9999,9999,9999,760793208
63,8,21,Ticks_Linear_5,19,9999,9999,9999,761303164
63,8,21,Ticks_Linear_5,20,9999,9999,9999,761823304
63,8,21,Ticks_Linear_5,21,9999,9999,9999,762343524
63,8,21,Ticks_Linear_5,22,9999,9999,9999,762863740
63,8,21,Ticks_Linear_5,23,9999,9999,9999,763383884
63,8,21,Ticks_Linear_5,24,9999,9999,9999,763904100
63,8,21,Ticks_Linear_5,25,9999,9999,9999,764443716
63,8,21,Ticks_Linear_5,26,9999,9999,9999,764973152
63,8,21,Ticks_Linear_5,27,9999,9999,9999,765503576
63,8,21,Ticks_Linear_5,28,9999,9999,9999,766033980
63,8,21,Ticks_Linear_5,29,9999,9999,9999,766563416
63,8,21,Ticks_Linear_5,30,9999,9999,9999,767104080
63,8,21,Ticks_Linear_5,31,9999,9999,9999,767653952
63,8,21,Ticks_Linear_5,32,9999,9999,9999,768193644
63,8,21,Ticks_Linear_5,33,9999,9999,9999,768733252
63,8,21,Ticks_Linear_5,34,9999,9999,9999,769273912
63,8,21,Ticks_Linear_5,35,9999,9999,9999,769823868
63,8,21,Ticks_Linear_5,36,9999,9999,9999,770373684
63,8,21,Ticks_Linear_5,37,9999,9999,9999,770923640
63,8,21,Ticks_Linear_5,38,9999,9999,9999,771473508
63,8,21,Ticks_Linear_5,39,9999,9999,9999,772023384
63,8,21,Ticks_Linear_5,40,9999,9999,9999,772583524
63,8,21,Ticks_Linear_5,41,9999,9999,9999,773143652
63,8,21,Ticks_Linear_5,42,9999,9999,9999,773703740
63,8,21,Ticks_Linear_5,43,9999,9999,9999,774263868
63,8,21,Ticks_Linear_5,44,9999,9999,9999,774824000
63,8,21,Ticks_Linear_5,45,9999,9999,9999,775393348
63,8,21,Ticks_Linear_5,46,9999,9999,9999,775963724
63,8,21,Ticks_Linear_5,47,9999,9999,9999,776534092
63,8,21,Ticks_Linear_5,48,9999,9999,9999,777113688
63,8,21,Ticks_Linear_5,49,9999,9999,9999,777684084
63,8,21,Ticks_Linear_5,50,9999,9999,9999,778263612
63,8,21,Ticks_Linear_5,51,9999,9999,9999,778843244
63,8,21,Ticks_Linear_5,52,9999,9999,9999,779423828
63,8,21,Ticks_Linear_5,53,9999,9999,9999,780003432
63,8,21,Ticks_Linear_5,54,9999,9999,9999,780584008
63,8,21,Ticks_Linear_5,55,9999,9999,9999,781173816
63,8,21,Ticks_Linear_5,56,9999,9999,9999,781763680
63,8,21,Ticks_Linear_5,57,9999,9999,9999,782353476
63,8,21,Ticks_Linear_5,58,9999,9999,9999,782943288
63,8,21,Ticks_Linear_5,59,9999,9999,9999,783533152
63,8,21,Ticks_Linear_5,60,9999,9999,9999,784133200
63,8,21,Ticks_Linear_5,61,9999,9999,9999,784733272
63,8,21,Ticks_Linear_5,62,9999,9999,9999,785333324
63,8,21,Ticks_Linear_5,63,9999,9999,9999,785933440
63,8,21,Ticks_Linear_5,64,9999,9999,9999,786533444
63,8,21,Ticks_Linear_5,65,9999,9999,9999,787143744
63,8,21,Ticks_Linear_5,66,9999,9999,9999,787754052
63,8,21,Ticks_Linear_5,67,9999,9999,9999,788363336
63,8,21,Ticks_Linear_5,68,9999,9999,9999,788973652
63,8,21,Ticks_Linear_5,69,9999,9999,9999,789583984
63,8,21,Ticks_Linear_5,70,9999,9999,9999,790203496
63,8,21,Ticks_Linear_5,71,9999,9999,9999,790823992
63,8,21,Ticks_Linear_5,72,9999,9999,9999,791443536
63,8,21,Ticks_Linear_5,73,9999,9999,9999,792064100
63,8,21,Ticks_Linear_5,74,9999,9999,9999,792693828
63,8,21,Ticks_Linear_5,75,9999,9999,9999,793323612
63,8,21,Ticks_Linear_5,76,9999,9999,9999,793953344
63,8,21,Ticks_Linear_5,77,9999,9999,9999,794583124
63,8,21,Ticks_Linear_5,78,9999,9999,9999,795213892
63,8,21,Ticks_Linear_5,79,9999,9999,9999,795843672
63,8,21,Ticks_Linear_5,80,9999,9999,9999,796483660
63,8,21,Ticks_Linear_5,81,9999,9999,9999,797123700
63,8,21,Ticks_Linear_5,82,9999,9999,9999,797763692
63,8,21,Ticks_Linear_5,83,9999,9999,9999,798403652
63,8,21,Ticks_Linear_5,84,9999,9999,9999,799043644
63,8,21,Ticks_Linear_5,85,9999,9999,9999,799693936
63,8,21,Ticks_Linear_5,86,9999,9999,9999,800343140
63,8,21,Ticks_Linear_5,87,9999,9999,9999,800993360
63,8,21,Ticks_Linear_5,88,9999,9999,9999,801643616
63,8,21,Ticks_Linear_5,89,9999,9999,9999,802293836
63,8,21,Ticks_Linear_5,90,9999,9999,9999,802953296
63,8,21,Ticks_Linear_5,91,9999,9999,9999,803613772
63,8,21,Ticks_Linear_5,92,9999,9999,9999,804273232
63,8,21,Ticks_Linear_5,93,9999,9999,9999,804933740
63,8,21,Ticks_Linear_5,94,9999,9999,9999,805593176
63,8,21,Ticks_Linear_5,95,9999,9999,9999,806263864
63,8,21,Ticks_Linear_5,96,9999,9999,9999,806933560
63,8,21,Ticks_Linear_5,97,9999,9999,9999,807603284
63,8,21,Ticks_Linear_5,98,9999,9999,9999,808273976
63,8,21,Ticks_Linear_5,99,9999,9999,9999,808943672
63,8,21,Ticks_Linear_5,100,9999,9999,9999,809623644
63,8,21,Ticks_Linear_5,101,9999,9999,9999,810303544
63,8,21,Ticks_Linear_5,102,9999,9999,9999,810983500
63,8,21,Ticks_Linear_5,103,9999,9999,9999,811663412
63,8,21,Ticks_Linear_5,104,9999,9999,9999,812343392
63,8,21,Ticks_Linear_5,105,9999,9999,9999,813033524
63,8,21,Ticks_Linear_5,106,9999,9999,9999,813723764
63,8,21,Ticks_Linear_5,107,9999,9999,9999,814413932
63,8,21,Ticks_Linear_5,108,9999,9999,9999,815104064
63,8,21,Ticks_Linear_5,109,9999,9999,9999,815803444
63,8,21,Ticks_Linear_5,110,9999,9999,9999,816503868
63,8,21,Ticks_Linear_5,111,9999,9999,9999,817203312
63,8,21,Ticks_Linear_5,112,9999,9999,9999,817903708
63,8,21,Ticks_Linear_5,113,9999,9999,9999,818603084
63,8,21,Ticks_Linear_5,114,9999,9999,9999,819303508
63,8,21,Ticks_Linear_5,115,9999,9999,9999,820013192
63,8,21,Ticks_Linear_5,116,9999,9999,9999,820723796
63,8,21,Ticks_Linear_5,117,9999,9999,9999,821433432
63,8,21,Ticks_Linear_5,118,9999,9999,9999,822144112
63,8,21,Ticks_Linear_5,119,9999,9999,9999,822863940
63,8,21,Ticks_Linear_5,120,9999,9999,9999,823583800
63,8,21,Ticks_Linear_5,121,9999,9999,9999,824303696
63,8,21,Ticks_Linear_5,122,9999,9999,9999,825023596
63,8,21,Ticks_Linear_5,123,9999,9999,9999,825743480
63,8,21,Ticks_Linear_5,124,9999,9999,9999,826463308
63,8,21,Ticks_Linear_5,125,9999,9999,9999,827193456
63,8,21,Ticks_Linear_5,126,9999,9999,9999,827923580
63,8,21,Ticks_Linear_5,127,9999,9999,9999,828653664
63,8,21,Ticks_Linear_5,128,9999,9999,9999,829383740
63,8,21,Ticks_Linear_5,129,9999,9999,9999,830113892
63,8,21,Ticks_Linear_5,130,9999,9999,9999,830853176
63,8,21,Ticks_Linear_5,131,9999,9999,9999,831593588
63,8,21,Ticks_Linear_5,132,9999,9999,9999,832333924
63,8,21,Ticks_Linear_5,133,9999,9999,9999,833073216
63,8,21,Ticks_Linear_5,134,9999,9999,9999,833813600
63,8,21,Ticks_Linear_5,135,9999,9999,9999,834563152
63,8,21,Ticks_Linear_5,136,9999,9999,9999,835313756
63,8,21,Ticks_Linear_5,137,9999,9999,9999,836063296
63,8,21,Ticks_Linear_5,138,9999,9999,9999,836813892
63,8,21,Ticks_Linear_5,139,9999,9999,9999,837563516
63,8,21,Ticks_Linear_5,140,9999,9999,9999,838323256
63,8,21,Ticks_Linear_5,141,9999,9999,9999,839083136
63,8,21,Ticks_Linear_5,142,9999,9999,9999,839843916
63,8,21,Ticks_Linear_5,143,9999,9999,9999,840603724
63,8,21,Ticks_Linear_5,144,9999,9999,9999,841363536
63,8,21,Ticks_Linear_5,145,9999,9999,9999,842133608
63,8,21,Ticks_Linear_5,146,9999,9999,9999,842903672
63,8,21,Ticks_Linear_5,147,9999,9999,9999,843673664
63,8,21,Ticks_Linear_5,148,9999,9999,9999,844443736
63,8,21,Ticks_Linear_5,149,9999,9999,9999,845213804
63,8,21,Ticks_Linear_5,150,9999,9999,9999,845994052
63,8,21,Ticks_Linear_5,151,9999,9999,9999,846773328
63,8,21,Ticks_Linear_5,152,9999,9999,9999,847553656
63,8,21,Ticks_Linear_5,153,9999,9999,9999,848333908
63,8,21,Ticks_Linear_5,154,9999,9999,9999,849113196
63,8,21,Ticks_Linear_5,155,9999,9999,9999,849903708
63,8,21,Ticks_Linear_5,156,9999,9999,9999,850693172
63,8,21,Ticks_Linear_5,157,9999,9999,9999,851483752
63,8,21,Ticks_Linear_5,158,9999,9999,9999,852273240
63,8,21,Ticks_Linear_5,159,9999,9999,9999,853063752
63,8,21,Ticks_Linear_5,160,9999,9999,9999,853863480
63,8,21,Ticks_Linear_5,161,9999,9999,9999,854663276
63,8,21,Ticks_Linear_5,162,9999,9999,9999,855464048
63,8,21,Ticks_Linear_5,163,9999,9999,9999,856263772
63,8,21,Ticks_Linear_5,164,9999,9999,9999,857063496
63,8,21,Ticks_Linear_5,165,9999,9999,9999,857873480
63,8,21,Ticks_Linear_5,166,9999,9999,9999,858683488
63,8,21,Ticks_Linear_5,167,9999,9999,9999,859493468
63,8,21,Ticks_Linear_5,168,9999,9999,9999,860303452
63,8,21,Ticks_Linear_5,169,9999,9999,9999,861113432
63,9,20,Ticks_Linear_8,0,5,42,127,871848256
63,9,20,Ticks_Linear_8,1,5,42,127,872667696
63,9,20,Ticks_Linear_8,2,1,48,55,873411604
63,9,20,Ticks_Linear_8,3,5,42,127,873487808
63,9,20,Ticks_Linear_8,4,5,42,127,874307856
63,9,20,Ticks_Linear_8,5,1,48,53,874351112
63,9,20,Ticks_Linear_8,6,5,42,127,875128172
63,9,20,Ticks_Linear_8,7,1,48,56,875201308
63,9,20,Ticks_Linear_8,8,1,48,47,875926424
63,9,20,Ticks_Linear_8,9,5,42,127,875938296
63,9,20,Ticks_Linear_8,10,1,48,54,876696724
63,9,20,Ticks_Linear_8,11,5,42,127,876748056
63,9,20,Ticks_Linear_8,12,1,48,62,877557368
63,9,20,Ticks_Linear_8,13,5,42,127,877558940
63,9,20,Ticks_Linear_8,14,5,42,127,878368108
63,9,20,Ticks_Linear_8,15,1,48,64,878396412
63,9,20,Ticks_Linear_8,16,5,42,127,879177968
63,9,20,Ticks_Linear_8,17,1,48,59,879213956
63,9,20,Ticks_Linear_8,18,5,42,127,879977912
63,9,20,Ticks_Linear_8,19,1,48,59,879994956
63,9,20,Ticks_Linear_8,20,5,42,127,880777636
63,9,20,Ticks_Linear_8,21,1,48,50,880798508
63,9,20,Ticks_Linear_8,22,5,42,127,881578484
63,9,20,Ticks_Linear_8,23,1,48,46,881586924
63,9,20,Ticks_Linear_8,24,5,42,127,882378132
63,9,20,Ticks_Linear_8,25,1,48,49,882402068
63,9,20,Ticks_Linear_8,26,1,48,50,883141556
63,9,20,Ticks_Linear_8,27,5,42,127,883177924
63,9,20,Ticks_Linear_8,28,5,42,127,883968520
63,9,20,Ticks_Linear_8,29,1,48,51,884030676
63,9,20,Ticks_Linear_8,30,1,48,49,884693972
63,9,20,Ticks_Linear_8,31,5,42,127,884757752
63,9,20,Ticks_Linear_8,32,1,48,46,885515652
63,9,20,Ticks_Linear_8,33,5,42,127,885548364
63,9,20,Ticks_Linear_8,34,5,42,127,886337984
63,9,20,Ticks_Linear_8,35,1,48,43,886347472
63,9,20,Ticks_Linear_8,36,1,48,53,887094516
63,9,20,Ticks_Linear_8,37,5,42,127,887128564
63,9,20,Ticks_Linear_8,38,1,48,44,887911316
63,9,20,Ticks_Linear_8,39,5,42,127,887917804
63,9,20,Ticks_Linear_8,40,5,42,127,888698584
63,9,20,Ticks_Linear_8,41,1,48,47,888716084
63,9,20,Ticks_Linear_8,42,1,48,48,889473172
63,9,20,Ticks_Linear_8,43,5,42,127,889477560
63,9,20,Ticks_Linear_8,44,5,42,127,890257668
63,9,20,Ticks_Linear_8,45,1,48,51,890261160
63,9,20,Ticks_Linear_8,46,5,42,127,891038072
63,9,20,Ticks_Linear_8,47,1,48,48,891047412
63,9,20,Ticks_Linear_8,48,5,42,127,891808064
63,9,20,Ticks_Linear_8,49,1,48,43,891829084
63,9,20,Ticks_Linear_8,50,5,42,127,892578504
63,9,20,Ticks_Linear_8,51,1,48,46,892592336
63,9,20,Ticks_Linear_8,52,5,42,127,893348200
63,9,20,Ticks_Linear_8,53,1,48,48,893363452
63,9,20,Ticks_Linear_8,54,5,42,127,894118420
63,9,20,Ticks_Linear_8,55,1,48,46,894120356
63,9,20,Ticks_Linear_8,56,5,42,127,894888412
63,9,20,Ticks_Linear_8,57,1,48,50,894909584
63,9,20,Ticks_Linear_8,58,1,48,50,895625488
63,9,20,Ticks_Linear_8,59,5,42,127,895648288
63,9,20,Ticks_Linear_8,60,5,42,127,896407880
63,9,20,Ticks_Linear_8,61,1,48,51,896433240
63,9,20,Ticks_Linear_8,62,5,42,127,897167688
63,9,20,Ticks_Linear_8,63,1,48,41,897175068
63,9,20,Ticks_Linear_8,64,5,42,127,897927500
63,9,20,Ticks_Linear_8,65,1,48,57,897936540
63,9,20,Ticks_Linear_8,66,1,48,55,898682236
63,9,20,Ticks_Linear_8,67,5,42,127,898688348
63,9,20,Ticks_Linear_8,68,5,42,127,899438128
63,9,20,Ticks_Linear_8,69,1,48,48,899461540
63,9,20,Ticks_Linear_8,70,1,48,52,900183060
63,9,20,Ticks_Linear_8,71,5,42,127,900187448
63,9,20,Ticks_Linear_8,72,1,48,49,900930288
63,9,20,Ticks_Linear_8,73,5,42,127,900938268
63,9,20,Ticks_Linear_8,74,5,42,127,901687600
63,9,20,Ticks_Linear_8,75,1,48,53,901702024
63,9,20,Ticks_Linear_8,76,1,48,50,902418428
63,9,20,Ticks_Linear_8,77,5,42,127,902438392
63,9,20,Ticks_Linear_8,78,5,42,127,903177688
63,9,20,Ticks_Linear_8,79,1,48,47,903199980
63,9,20,Ticks_Linear_8,80,5,42,127,903918248
63,9,20,Ticks_Linear_8,81,1,48,51,903934764
63,9,20,Ticks_Linear_8,82,1,48,52,904649928
63,9,20,Ticks_Linear_8,83,5,42,127,904658280
63,9,20,Ticks_Linear_8,84,5,42,127,905397504
63,9,20,Ticks_Linear_8,85,1,48,53,905430204
63,9,20,Ticks_Linear_8,86,1,48,50,906123104
63,9,20,Ticks_Linear_8,87,5,42,127,906138056
63,9,20,Ticks_Linear_8,88,5,42,127,906867996
63,9,20,Ticks_Linear_8,89,1,48,48,906895832
63,9,20,Ticks_Linear_8,90,5,42,127,907598144
63,9,20,Ticks_Linear_8,91,1,48,51,907599484
63,9,20,Ticks_Linear_8,92,1,48,46,908325668
63,9,20,Ticks_Linear_8,93,5,42,127,908328268
63,9,20,Ticks_Linear_8,94,5,42,127,909058400
63,9,20,Ticks_Linear_8,95,1,48,42,909062196
63,9,20,Ticks_Linear_8,96,1,48,45,909761620
63,9,20,Ticks_Linear_8,97,5,42,127,909797984
63,9,20,Ticks_Linear_8,98,5,42,127,910517512
63,9,20,Ticks_Linear_8,99,1,48,50,910544964
63,9,20,Ticks_Linear_8,100,1,48,49,911210316
63,9,20,Ticks_Linear_8,101,5,42,127,911237396
63,9,20,Ticks_Linear_8,102,1,48,47,911939800
63,9,20,Ticks_Linear_8,103,5,42,127,911958336
63,9,20,Ticks_Linear_8,104,5,42,127,912678360
63,9,20,Ticks_Linear_8,105,1,48,43,912698884
63,9,20,Ticks_Linear_8,106,5,42,127,913398108
63,9,20,Ticks_Linear_8,107,1,48,45,913458916
63,9,20,Ticks_Linear_8,108,1,48,49,914088224
63,9,20,Ticks_Linear_8,109,5,42,127,914108032
63,9,20,Ticks_Linear_8,110,1,48,47,914771416
63,9,20,Ticks_Linear_8,111,5,42,127,914818564
63,9,20,Ticks_Linear_8,112,5,42,127,915538392
63,9,20,Ticks_Linear_8,113,1,48,46,915582472
63,9,20,Ticks_Linear_8,114,1,48,47,916227216
63,9,20,Ticks_Linear_8,115,5,42,127,916247920
63,9,20,Ticks_Linear_8,116,1,48,44,916938796
63,9,20,Ticks_Linear_8,117,5,42,127,916957704
63,9,20,Ticks_Linear_8,118,1,48,44,917653516
63,9,20,Ticks_Linear_8,119,5,42,127,917657980
63,9,20,Ticks_Linear_8,120,1,48,49,918341580
63,9,20,Ticks_Linear_8,121,5,42,127,918358252
63,9,20,Ticks_Linear_8,122,5,42,127,919057904
63,9,20,Ticks_Linear_8,123,1,48,41,919069560
63,9,20,Ticks_Linear_8,124,5,42,127,919758180
63,9,20,Ticks_Linear_8,125,1,48,48,919759220
63,9,20,Ticks_Linear_8,126,1,48,44,920448668
63,9,20,Ticks_Linear_8,127,5,42,127,920457696
63,9,20,Ticks_Linear_8,128,5,42,127,921147868
63,9,20,Ticks_Linear_8,129,1,48,42,921150912
63,9,20,Ticks_Linear_8,130,5,42,127,921837932
63,9,20,Ticks_Linear_8,131,1,48,51,921859772
63,9,20,Ticks_Linear_8,132,1,48,44,922522724
63,9,20,Ticks_Linear_8,133,5,42,127,922528088
63,9,20,Ticks_Linear_8,134,1,48,44,923194984
63,9,20,Ticks_Linear_8,135,5,42,127,923218396
63,9,20,Ticks_Linear_8,136,5,42,127,923907572
63,9,20,Ticks_Linear_8,137,1,48,37,923912336
63,9,20,Ticks_Linear_8,138,1,48,44,924587544
63,9,20,Ticks_Linear_8,139,5,42,127,924589036
63,9,20,Ticks_Linear_8,140,1,48,52,925264772
63,9,20,Ticks_Linear_8,141,5,42,127,925268568
63,9,20,Ticks_Linear_8,142,5,42,127,925948232
63,9,20,Ticks_Linear_8,143,1,48,46,925985564
63,9,20,Ticks_Linear_8,144,5,42,127,926628208
63,9,20,Ticks_Linear_8,145,1,48,52,926636356
63,9,20,Ticks_Linear_8,146,1,48,56,927276764
63,9,20,Ticks_Linear_8,147,5,42,127,927308036
63,9,20,Ticks_Linear_8,148,5,42,127,927977808
63,9,20,Ticks_Linear_8,149,1,48,46,928019572
63,9,20,Ticks_Linear_8,150,5,42,127,928647752
63,9,20,Ticks_Linear_8,151,1,48,46,928662472
63,9,20,Ticks_Linear_8,152,5,42,127,929318268
63,9,20,Ticks_Linear_8,153,1,48,46,929329576
63,9,20,Ticks_Linear_8,154,1,48,43,929977832
63,9,20,Ticks_Linear_8,155,5,42,127,929987980
63,9,20,Ticks_Linear_8,156,1,48,47,930644544
63,9,20,Ticks_Linear_8,157,5,42,127,930657700
63,9,20,Ticks_Linear_8,158,1,48,46,931313268
63,9,20,Ticks_Linear_8,159,5,42,127,931318036
63,9,20,Ticks_Linear_8,160,5,42,127,931977576
63,9,20,Ticks_Linear_8,161,1,48,43,932015672
63,9,20,Ticks_Linear_8,162,5,42,127,932638204
63,9,20,Ticks_Linear_8,163,1,48,40,932711292
63,9,20,Ticks_Linear_8,164,5,42,127,933297520
63,9,20,Ticks_Linear_8,165,1,48,44,933313436
63,9,20,Ticks_Linear_8,166,1,48,49,933936788
63,9,20,Ticks_Linear_8,167,5,42,127,933958168
63,9,20,Ticks_Linear_8,168,1,48,45,934605720
63,9,20,Ticks_Linear_8,169,5,42,127,934608540
63,9,20,Ticks_Linear_8,170,1,48,43,935256320
63,9,20,Ticks_Linear_8,171,5,42,127,935257740
63,9,20,Ticks_Linear_8,172,1,48,44,935893616
63,9,20,Ticks_Linear_8,173,5,42,127,935907668
63,9,20,Ticks_Linear_8,174,1,48,45,936536008
63,9,20,Ticks_Linear_8,175,5,42,127,936557988
63,9,20,Ticks_Linear_8,176,1,48,44,937202924
63,9,20,Ticks_Linear_8,177,5,42,127,937208288
63,9,20,Ticks_Linear_8,178,5,42,127,937848284
63,9,20,Ticks_Linear_8,179,1,48,43,937915512
63,9,20,Ticks_Linear_8,180,5,42,127,938488396
63,9,20,Ticks_Linear_8,181,1,48,42,938529632
63,9,20,Ticks_Linear_8,182,1,48,42,939124060
63,9,20,Ticks_Linear_8,183,5,42,127,939128300
63,9,20,Ticks_Linear_8,184,5,42,127,939768196
63,9,20,Ticks_Linear_8,185,1,48,40,939777464
63,9,20,Ticks_Linear_8,186,1,48,45,940389940
63,9,20,Ticks_Linear_8,187,5,42,127,940408256
63,9,20,Ticks_Linear_8,188,5,42,127,941037892
63,9,20,Ticks_Linear_8,189,1,48,41,941051492
63,9,20,Ticks_Linear_8,190,5,42,127,941667844
63,9,20,Ticks_Linear_8,191,1,48,37,941696356
63,9,20,Ticks_Linear_8,192,5,42,127,942297328
63,9,20,Ticks_Linear_8,193,1,48,42,942325148
63,9,20,Ticks_Linear_8,194,5,42,127,942928472
63,9,20,Ticks_Linear_8,195,1,48,42,942945456
63,9,20,Ticks_Linear_8,196,1,48,35,943542848
63,9,20,Ticks_Linear_8,197,5,42,127,943557948
63,9,20,Ticks_Linear_8,198,5,42,127,944177500
63,9,20,Ticks_Linear_8,199,1,48,35,944178988
63,9,20,Ticks_Linear_8,200,5,42,127,944798216
63,9,20,Ticks_Linear_8,201,1,48,36,944815868
63,9,20,Ticks_Linear_8,202,5,42,127,945417588
63,9,20,Ticks_Linear_8,203,1,48,40,945465820
63,9,20,Ticks_Linear_8,204,1,48,36,946019712
63,9,20,Ticks_Linear_8,205,5,42,127,946038248
63,9,20,Ticks_Linear_8,206,1,48,42,946615572
63,9,20,Ticks_Linear_8,207,5,42,127,946657696
63,9,20,Ticks_Linear_8,208,5,42,127,947268108
63,9,20,Ticks_Linear_8,209,1,48,38,947308828
63,9,20,Ticks_Linear_8,210,5,42,127,947878416
63,9,20,Ticks_Linear_8,211,1,48,40,947880712
63,9,20,Ticks_Linear_8,212,1,48,44,948478720
63,9,20,Ticks_Linear_8,213,5,42,127,948487448
63,9,20,Ticks_Linear_8,214,1,48,41,949056032
63,9,20,Ticks_Linear_8,215,5,42,127,949097780
63,9,20,Ticks_Linear_8,216,5,42,127,949708172
63,9,20,Ticks_Linear_8,217,1,48,42,949748360
63,9,20,Ticks_Linear_8,218,5,42,127,950308292
63,9,20,Ticks_Linear_8,219,1,48,39,950318480
63,9,20,Ticks_Linear_8,220,1,48,39,950899628
63,9,20,Ticks_Linear_8,221,5,42,127,950908212
63,9,20,Ticks_Linear_8,222,5,42,127,951508268
63,9,20,Ticks_Linear_8,223,1,48,35,951513628
63,9,20,Ticks_Linear_8,224,5,42,127,952108268
63,9,20,Ticks_Linear_8,225,1,48,38,952125624
63,9,20,Ticks_Linear_8,226,5,42,127,952707568
63,9,20,Ticks_Linear_8,227,1,48,40,952727240
63,9,20,Ticks_Linear_8,228,1,48,44,953294008
63,9,20,Ticks_Linear_8,229,5,42,127,953298248
63,9,20,Ticks_Linear_8,230,5,42,127,953888268
63,9,20,Ticks_Linear_8,231,1,48,36,953890712
63,9,20,Ticks_Linear_8,232,5,42,127,954478008
63,9,20,Ticks_Linear_8,233,1,48,38,954504412
63,9,20,Ticks_Linear_8,234,1,48,38,955056744
63,9,20,Ticks_Linear_8,235,5,42,127,955067640
63,9,20,Ticks_Linear_8,236,1,48,39,955641656
63,9,20,Ticks_Linear_8,237,5,42,127,955657656
63,9,20,Ticks_Linear_8,238,1,48,34,956214992
63,9,20,Ticks_Linear_8,239,5,42,127,956238184
63,9,20,Ticks_Linear_8,240,1,48,41,956815416
63,9,20,Ticks_Linear_8,241,5,42,127,956818084
63,9,20,Ticks_Linear_8,242,1,48,38,957389484
63,9,20,Ticks_Linear_8,243,5,42,127,957398364
63,9,20,Ticks_Linear_8,244,1,48,38,957977448
63,9,20,Ticks_Linear_8,245,5,42,127,957979164
63,9,20,Ticks_Linear_8,246,5,42,127,958557460
63,9,20,Ticks_Linear_8,247,1,48,38,958570984
63,9,20,Ticks_Linear_8,248,5,42,127,959127924
63,9,20,Ticks_Linear_8,249,1,48,40,959165868
63,9,20,Ticks_Linear_8,250,5,42,127,959698240
63,9,20,Ticks_Linear_8,251,1,48,36,959728024
63,9,20,Ticks_Linear_8,252,5,42,127,960267664
63,9,20,Ticks_Linear_8,253,1,48,37,960313640
63,9,20,Ticks_Linear_8,254,5,42,127,960838080
63,9,20,Ticks_Linear_8,255,1,48,42,960842848
63,9,20,Ticks_Linear_8,256,5,42,127,961408324
63,9,20,Ticks_Linear_8,257,1,48,38,961433304
63,9,20,Ticks_Linear_8,258,5,42,127,961967340
63,9,20,Ticks_Linear_8,259,1,48,41,961990680
63,9,20,Ticks_Linear_8,260,5,42,127,962527620
63,9,20,Ticks_Linear_8,261,1,48,36,962558452
63,9,20,Ticks_Linear_8,262,5,42,127,963087980
63,9,20,Ticks_Linear_8,263,1,48,42,963105096
63,9,20,Ticks_Linear_8,264,5,42,127,963647988
63,9,20,Ticks_Linear_8,265,1,48,42,963659344
63,9,20,Ticks_Linear_8,266,1,48,41,964172200
63,9,20,Ticks_Linear_8,267,5,42,127,964208040
63,9,20,Ticks_Linear_8,268,1,48,37,964752924
63,9,20,Ticks_Linear_8,269,5,42,127,964757916
63,9,20,Ticks_Linear_8,270,1,48,36,965287608
63,9,20,Ticks_Linear_8,271,5,42,127,965307868
63,9,20,Ticks_Linear_8,272,5,42,127,965857676
63,9,20,Ticks_Linear_8,273,1,48,41,965878616
63,9,20,Ticks_Linear_8,274,5,42,127,966407920
63,9,20,Ticks_Linear_8,275,1,48,32,966412312
63,9,20,Ticks_Linear_8,276,1,48,40,966935048
63,9,20,Ticks_Linear_8,277,5,42,127,966957440
63,9,20,Ticks_Linear_8,278,1,48,39,967490344
63,9,20,Ticks_Linear_8,279,5,42,127,967498252
63,9,20,Ticks_Linear_8,280,5,42,127,968037948
63,9,20,Ticks_Linear_8,281,1,48,44,968069900
63,9,20,Ticks_Linear_8,282,5,42,127,968578388
63,9,20,Ticks_Linear_8,283,1,48,37,968598504
63,9,20,Ticks_Linear_8,284,5,42,127,969128336
63,9,20,Ticks_Linear_8,285,1,48,40,969165372
63,9,20,Ticks_Linear_8,286,5,42,127,969667952
63,9,20,Ticks_Linear_8,287,1,48,40,969689792
63,9,20,Ticks_Linear_8,288,5,42,127,970198280
63,9,20,Ticks_Linear_8,289,1,48,34,970254932
63,9,20,Ticks_Linear_8,290,5,42,127,970727856
63,9,20,Ticks_Linear_8,291,1,48,41,970796608
63,9,20,Ticks_Linear_8,292,5,42,127,971258188
63,9,20,Ticks_Linear_8,293,1,48,36,971288796
63,9,20,Ticks_Linear_8,294,5,42,127,971787840
63,9,20,Ticks_Linear_8,295,1,48,35,971828880
63,9,20,Ticks_Linear_8,296,5,42,127,972318096
63,9,20,Ticks_Linear_8,297,1,48,40,972347908
63,9,20,Ticks_Linear_8,298,5,42,127,972838168
63,9,20,Ticks_Linear_8,299,1,48,39,972843404
63,9,20,Ticks_Linear_8,300,1,48,41,973354612
63,9,20,Ticks_Linear_8,301,5,42,127,973357656
63,9,20,Ticks_Linear_8,302,5,42,127,973877656
63,9,20,Ticks_Linear_8,303,1,48,40,973889764
63,9,20,Ticks_Linear_8,304,1,48,43,974387720
63,9,20,Ticks_Linear_8,305,5,42,127,974397720
63,9,20,Ticks_Linear_8,306,5,42,127,974917948
63,9,20,Ticks_Linear_8,307,1,48,42,974935064
63,9,20,Ticks_Linear_8,308,5,42,127,975427980
63,9,20,Ticks_Linear_8,309,1,48,41,975468848
63,9,20,Ticks_Linear_8,310,5,42,127,975937792
63,9,20,Ticks_Linear_8,311,1,48,39,975956636
63,9,20,Ticks_Linear_8,312,5,42,127,976447752
63,9,20,Ticks_Linear_8,313,1,48,42,976462324
63,9,20,Ticks_Linear_8,314,5,42,127,976957708
63,9,20,Ticks_Linear_8,315,1,48,40,976990632
63,9,20,Ticks_Linear_8,316,5,42,127,977467744
63,9,20,Ticks_Linear_8,317,1,48,32,977482020
63,9,20,Ticks_Linear_8,318,5,42,127,977967592
63,9,20,Ticks_Linear_8,319,1,48,42,977970636
63,9,20,Ticks_Linear_8,320,5,42,127,978468316
63,9,20,Ticks_Linear_8,321,1,48,37,978500512
63,9,20,Ticks_Linear_8,322,5,42,127,978967792
63,9,20,Ticks_Linear_8,323,1,48,40,978987712
63,9,20,Ticks_Linear_8,324,1,48,41,979466280
63,9,20,Ticks_Linear_8,325,5,42,127,979467856
63,9,20,Ticks_Linear_8,326,5,42,127,979968464
63,9,20,Ticks_Linear_8,327,1,48,38,979980424
63,9,20,Ticks_Linear_8,328,5,42,127,980457904
63,9,20,Ticks_Linear_8,329,1,48,37,980497648
63,9,20,Ticks_Linear_8,330,1,48,35,980945192
63,9,20,Ticks_Linear_8,331,5,42,127,980948608
63,9,20,Ticks_Linear_8,332,5,42,127,981437760
63,9,20,Ticks_Linear_8,333,1,48,37,981455696
63,9,20,Ticks_Linear_8,334,1,48,37,981915688
63,9,20,Ticks_Linear_8,335,5,42,127,981928316
63,9,20,Ticks_Linear_8,336,5,42,127,982417688
63,9,20,Ticks_Linear_8,0,9999,9999,9999,871845956
63,9,20,Ticks_Linear_8,1,9999,9999,9999,872665172
63,9,20,Ticks_Linear_8,2,9999,9999,9999,873485432
63,9,20,Ticks_Linear_8,3,9999,9999,9999,874305628
63,9,20,Ticks_Linear_8,4,9999,9999,9999,875125872
63,9,20,Ticks_Linear_8,5,9999,9999,9999,875935848
63,9,20,Ticks_Linear_8,6,9999,9999,9999,876745832
63,9,20,Ticks_Linear_8,7,9999,9999,9999,877555820
63,9,20,Ticks_Linear_8,8,9999,9999,9999,878365804
63,9,20,Ticks_Linear_8,9,9999,9999,9999,879175740
63,9,20,Ticks_Linear_8,10,9999,9999,9999,879975536
63,9,20,Ticks_Linear_8,11,9999,9999,9999,880775260
63,9,20,Ticks_Linear_8,12,9999,9999,9999,881576032
63,9,20,Ticks_Linear_8,13,9999,9999,9999,882375756
63,9,20,Ticks_Linear_8,14,9999,9999,9999,883175548
63,9,20,Ticks_Linear_8,15,9999,9999,9999,883966068
63,9,20,Ticks_Linear_8,16,9999,9999,9999,884755524
63,9,20,Ticks_Linear_8,17,9999,9999,9999,885546036
63,9,20,Ticks_Linear_8,18,9999,9999,9999,886335608
63,9,20,Ticks_Linear_8,19,9999,9999,9999,887126116
63,9,20,Ticks_Linear_8,20,9999,9999,9999,887915580
63,9,20,Ticks_Linear_8,21,9999,9999,9999,888695912
63,9,20,Ticks_Linear_8,22,9999,9999,9999,889475184
63,9,20,Ticks_Linear_8,23,9999,9999,9999,890255444
63,9,20,Ticks_Linear_8,24,9999,9999,9999,891035768
63,9,20,Ticks_Linear_8,25,9999,9999,9999,891805764
63,9,20,Ticks_Linear_8,26,9999,9999,9999,892575832
63,9,20,Ticks_Linear_8,27,9999,9999,9999,893345900
63,9,20,Ticks_Linear_8,28,9999,9999,9999,894115896
63,9,20,Ticks_Linear_8,29,9999,9999,9999,894885964
63,9,20,Ticks_Linear_8,30,9999,9999,9999,895645764
63,9,20,Ticks_Linear_8,31,9999,9999,9999,896405580
63,9,20,Ticks_Linear_8,32,9999,9999,9999,897165388
63,9,20,Ticks_Linear_8,33,9999,9999,9999,897925200
63,9,20,Ticks_Linear_8,34,9999,9999,9999,898686048
63,9,20,Ticks_Linear_8,35,9999,9999,9999,899435604
63,9,20,Ticks_Linear_8,36,9999,9999,9999,900185148
63,9,20,Ticks_Linear_8,37,9999,9999,9999,900935744
63,9,20,Ticks_Linear_8,38,9999,9999,9999,901685372
63,9,20,Ticks_Linear_8,39,9999,9999,9999,902435940
63,9,20,Ticks_Linear_8,40,9999,9999,9999,903175236
63,9,20,Ticks_Linear_8,41,9999,9999,9999,903915576
63,9,20,Ticks_Linear_8,42,9999,9999,9999,904655980
63,9,20,Ticks_Linear_8,43,9999,9999,9999,905395276
63,9,20,Ticks_Linear_8,44,9999,9999,9999,906135604
63,9,20,Ticks_Linear_8,45,9999,9999,9999,906865768
63,9,20,Ticks_Linear_8,46,9999,9999,9999,907595844
63,9,20,Ticks_Linear_8,47,9999,9999,9999,908325968
63,9,20,Ticks_Linear_8,48,9999,9999,9999,909056104
63,9,20,Ticks_Linear_8,49,9999,9999,9999,909795384
63,9,20,Ticks_Linear_8,50,9999,9999,9999,910515284
63,9,20,Ticks_Linear_8,51,9999,9999,9999,911235172
63,9,20,Ticks_Linear_8,52,9999,9999,9999,911956036
63,9,20,Ticks_Linear_8,53,9999,9999,9999,912675912
63,9,20,Ticks_Linear_8,54,9999,9999,9999,913395804
63,9,20,Ticks_Linear_8,55,9999,9999,9999,914105432
63,9,20,Ticks_Linear_8,56,9999,9999,9999,914816120
63,9,20,Ticks_Linear_8,57,9999,9999,9999,915535944
63,9,20,Ticks_Linear_8,58,9999,9999,9999,916245620
63,9,20,Ticks_Linear_8,59,9999,9999,9999,916955256
63,9,20,Ticks_Linear_8,60,9999,9999,9999,917655676
63,9,20,Ticks_Linear_8,61,9999,9999,9999,918356024
63,9,20,Ticks_Linear_8,62,9999,9999,9999,919055456
63,9,20,Ticks_Linear_8,63,9999,9999,9999,919755876
63,9,20,Ticks_Linear_8,64,9999,9999,9999,920455248
63,9,20,Ticks_Linear_8,65,9999,9999,9999,921145416
63,9,20,Ticks_Linear_8,66,9999,9999,9999,921835632
63,9,20,Ticks_Linear_8,67,9999,9999,9999,922525784
63,9,20,Ticks_Linear_8,68,9999,9999,9999,923215948
63,9,20,Ticks_Linear_8,69,9999,9999,9999,923905120
63,9,20,Ticks_Linear_8,70,9999,9999,9999,924586072
63,9,20,Ticks_Linear_8,71,9999,9999,9999,925266044
63,9,20,Ticks_Linear_8,72,9999,9999,9999,925945928
63,9,20,Ticks_Linear_8,73,9999,9999,9999,926625908
63,9,20,Ticks_Linear_8,74,9999,9999,9999,927305808
63,9,20,Ticks_Linear_8,75,9999,9999,9999,927975508
63,9,20,Ticks_Linear_8,76,9999,9999,9999,928645228
63,9,20,Ticks_Linear_8,77,9999,9999,9999,929315892
63,9,20,Ticks_Linear_8,78,9999,9999,9999,929985604
63,9,20,Ticks_Linear_8,79,9999,9999,9999,930655324
63,9,20,Ticks_Linear_8,80,9999,9999,9999,931315808
63,9,20,Ticks_Linear_8,81,9999,9999,9999,931975276
63,9,20,Ticks_Linear_8,82,9999,9999,9999,932635756
63,9,20,Ticks_Linear_8,83,9999,9999,9999,933295216
63,9,20,Ticks_Linear_8,84,9999,9999,9999,933955644
63,9,20,Ticks_Linear_8,85,9999,9999,9999,934605944
63,9,20,Ticks_Linear_8,86,9999,9999,9999,935255148
63,9,20,Ticks_Linear_8,87,9999,9999,9999,935905368
63,9,20,Ticks_Linear_8,88,9999,9999,9999,936555612
63,9,20,Ticks_Linear_8,89,9999,9999,9999,937205836
63,9,20,Ticks_Linear_8,90,9999,9999,9999,937845832
63,9,20,Ticks_Linear_8,91,9999,9999,9999,938485872
63,9,20,Ticks_Linear_8,92,9999,9999,9999,939125852
63,9,20,Ticks_Linear_8,93,9999,9999,9999,939765820
63,9,20,Ticks_Linear_8,94,9999,9999,9999,940405880
63,9,20,Ticks_Linear_8,95,9999,9999,9999,941035592
63,9,20,Ticks_Linear_8,96,9999,9999,9999,941665396
63,9,20,Ticks_Linear_8,97,9999,9999,9999,942295100
63,9,20,Ticks_Linear_8,98,9999,9999,9999,942925948
63,9,20,Ticks_Linear_8,99,9999,9999,9999,943555648
63,9,20,Ticks_Linear_8,100,9999,9999,9999,944175200
63,9,20,Ticks_Linear_8,101,9999,9999,9999,944795768
63,9,20,Ticks_Linear_8,102,9999,9999,9999,945415288
63,9,20,Ticks_Linear_8,103,9999,9999,9999,946035800
63,9,20,Ticks_Linear_8,104,9999,9999,9999,946655320
63,9,20,Ticks_Linear_8,105,9999,9999,9999,947265660
63,9,20,Ticks_Linear_8,106,9999,9999,9999,947875968
63,9,20,Ticks_Linear_8,107,9999,9999,9999,948485224
63,9,20,Ticks_Linear_8,108,9999,9999,9999,949095480
63,9,20,Ticks_Linear_8,109,9999,9999,9999,949705796
63,9,20,Ticks_Linear_8,110,9999,9999,9999,950305916
63,9,20,Ticks_Linear_8,111,9999,9999,9999,950905912
63,9,20,Ticks_Linear_8,112,9999,9999,9999,951506040
63,9,20,Ticks_Linear_8,113,9999,9999,9999,952106040
63,9,20,Ticks_Linear_8,114,9999,9999,9999,952705116
63,9,20,Ticks_Linear_8,115,9999,9999,9999,953295948
63,9,20,Ticks_Linear_8,116,9999,9999,9999,953885820
63,9,20,Ticks_Linear_8,117,9999,9999,9999,954475632
63,9,20,Ticks_Linear_8,118,9999,9999,9999,955065416
63,9,20,Ticks_Linear_8,119,9999,9999,9999,955655280
63,9,20,Ticks_Linear_8,120,9999,9999,9999,956235880
63,9,20,Ticks_Linear_8,121,9999,9999,9999,956815484
63,9,20,Ticks_Linear_8,122,9999,9999,9999,957396064
63,9,20,Ticks_Linear_8,123,9999,9999,9999,957975672
63,9,20,Ticks_Linear_8,124,9999,9999,9999,958555232
63,9,20,Ticks_Linear_8,125,9999,9999,9999,959125620
63,9,20,Ticks_Linear_8,126,9999,9999,9999,959695940
63,9,20,Ticks_Linear_8,127,9999,9999,9999,960265288
63,9,20,Ticks_Linear_8,128,9999,9999,9999,960835704
63,9,20,Ticks_Linear_8,129,9999,9999,9999,961406020
63,9,20,Ticks_Linear_8,130,9999,9999,9999,961965112
63,9,20,Ticks_Linear_8,131,9999,9999,9999,962525244
63,9,20,Ticks_Linear_8,132,9999,9999,9999,963085380
63,9,20,Ticks_Linear_8,133,9999,9999,9999,963645536
63,9,20,Ticks_Linear_8,134,9999,9999,9999,964205664
63,9,20,Ticks_Linear_8,135,9999,9999,9999,964755540
63,9,20,Ticks_Linear_8,136,9999,9999,9999,965305416
63,9,20,Ticks_Linear_8,137,9999,9999,9999,965855300
63,9,20,Ticks_Linear_8,138,9999,9999,9999,966405248
63,9,20,Ticks_Linear_8,139,9999,9999,9999,966955064
63,9,20,Ticks_Linear_8,140,9999,9999,9999,967495800
63,9,20,Ticks_Linear_8,141,9999,9999,9999,968035424
63,9,20,Ticks_Linear_8,142,9999,9999,9999,968576088
63,9,20,Ticks_Linear_8,143,9999,9999,9999,969125960
63,9,20,Ticks_Linear_8,144,9999,9999,9999,969665648
63,9,20,Ticks_Linear_8,145,9999,9999,9999,970196052
63,9,20,Ticks_Linear_8,146,9999,9999,9999,970725480
63,9,20,Ticks_Linear_8,147,9999,9999,9999,971255884
63,9,20,Ticks_Linear_8,148,9999,9999,9999,971785316
63,9,20,Ticks_Linear_8,149,9999,9999,9999,972315720
63,9,20,Ticks_Linear_8,150,9999,9999,9999,972835940
63,9,20,Ticks_Linear_8,151,9999,9999,9999,973355132
63,9,20,Ticks_Linear_8,152,9999,9999,9999,973875280
63,9,20,Ticks_Linear_8,153,9999,9999,9999,974395492
63,9,20,Ticks_Linear_8,154,9999,9999,9999,974915644
63,9,20,Ticks_Linear_8,155,9999,9999,9999,975425604
63,9,20,Ticks_Linear_8,156,9999,9999,9999,975935564
63,9,20,Ticks_Linear_8,157,9999,9999,9999,976445524
63,9,20,Ticks_Linear_8,158,9999,9999,9999,976955484
63,9,20,Ticks_Linear_8,159,9999,9999,9999,977465440
63,9,20,Ticks_Linear_8,160,9999,9999,9999,977965144
63,9,20,Ticks_Linear_8,161,9999,9999,9999,978465864
63,9,20,Ticks_Linear_8,162,9999,9999,9999,978965564
63,9,20,Ticks_Linear_8,163,9999,9999,9999,979465340
63,9,20,Ticks_Linear_8,164,9999,9999,9999,979966012
63,9,20,Ticks_Linear_8,165,9999,9999,9999,980455528
63,9,20,Ticks_Linear_8,166,9999,9999,9999,980946012
63,9,20,Ticks_Linear_8,167,9999,9999,9999,981435460
63,9,20,Ticks_Linear_8,168,9999,9999,9999,981925940
63,9,20,Ticks_Linear_8,169,9999,9999,9999,982415460
63,10,10,Ticks_ISO_T2_5,0,5,42,127,991473956
63,10,10,Ticks_ISO_T2_5,1,5,42,127,991973748
63,10,10,Ticks_ISO_T2_5,2,1,48,50,992409472
63,10,10,Ticks_ISO_T2_5,3,5,42,127,992473532
63,10,10,Ticks_ISO_T2_5,4,1,48,48,992902360
63,10,10,Ticks_ISO_T2_5,5,5,42,127,992974348
63,10,10,Ticks_ISO_T2_5,6,1,48,43,993442972
63,10,10,Ticks_ISO_T2_5,7,5,42,127,993474116
63,10,10,Ticks_ISO_T2_5,8,1,48,41,993972316
63,10,10,Ticks_ISO_T2_5,9,5,42,127,993973812
63,10,10,Ticks_ISO_T2_5,10,1,48,41,994474784
63,10,10,Ticks_ISO_T2_5,11,5,42,127,994475900
63,10,10,Ticks_ISO_T2_5,12,5,42,127,994974180
63,10,10,Ticks_ISO_T2_5,13,1,48,38,994988300
63,10,10,Ticks_ISO_T2_5,14,1,48,39,995456560
63,10,10,Ticks_ISO_T2_5,15,5,42,127,995473720
63,10,10,Ticks_ISO_T2_5,16,1,48,42,995956400
63,10,10,Ticks_ISO_T2_5,17,5,42,127,995973488
63,10,10,Ticks_ISO_T2_5,18,1,48,45,996460208
63,10,10,Ticks_ISO_T2_5,19,5,42,127,996474304
63,10,10,Ticks_ISO_T2_5,20,1,48,46,996940308
63,10,10,Ticks_ISO_T2_5,21,5,42,127,996974148
63,10,10,Ticks_ISO_T2_5,22,5,42,127,997473624
63,10,10,Ticks_ISO_T2_5,23,1,48,41,997500680
63,10,10,Ticks_ISO_T2_5,24,5,42,127,997974440
63,10,10,Ticks_ISO_T2_5,25,1,48,44,998004264
63,10,10,Ticks_ISO_T2_5,26,1,48,45,998445152
63,10,10,Ticks_ISO_T2_5,27,5,42,127,998474204
63,10,10,Ticks_ISO_T2_5,28,1,48,44,998935464
63,10,10,Ticks_ISO_T2_5,29,5,42,127,998973972
63,10,10,Ticks_ISO_T2_5,30,1,48,46,999426860
63,10,10,Ticks_ISO_T2_5,31,5,42,127,999473368
63,10,10,Ticks_ISO_T2_5,32,1,48,43,999964476
63,10,10,Ticks_ISO_T2_5,33,5,42,127,999974184
63,10,10,Ticks_ISO_T2_5,34,5,42,127,1000474084
63,10,10,Ticks_ISO_T2_5,35,1,48,34,1000494136
63,10,10,Ticks_ISO_T2_5,36,1,48,48,1000974004
63,10,10,Ticks_ISO_T2_5,37,5,42,127,1000975340
63,10,10,Ticks_ISO_T2_5,38,1,48,48,1001440076
63,10,10,Ticks_ISO_T2_5,39,5,42,127,1001474368
63,10,10,Ticks_ISO_T2_5,40,1,48,48,1001968048
63,10,10,Ticks_ISO_T2_5,41,5,42,127,1001973988
63,10,10,Ticks_ISO_T2_5,42,1,48,49,1002474208
63,10,10,Ticks_ISO_T2_5,43,5,42,127,1002475396
63,10,10,Ticks_ISO_T2_5,44,1,48,47,1002949404
63,10,10,Ticks_ISO_T2_5,45,5,42,127,1002973452
63,10,10,Ticks_ISO_T2_5,46,1,48,43,1003458452
63,10,10,Ticks_ISO_T2_5,47,5,42,127,1003474192
63,10,10,Ticks_ISO_T2_5,48,1,48,46,1003972224
63,10,10,Ticks_ISO_T2_5,49,5,42,127,1003973960
63,10,10,Ticks_ISO_T2_5,50,1,48,39,1004466140
63,10,10,Ticks_ISO_T2_5,51,5,42,127,1004473804
63,10,10,Ticks_ISO_T2_5,52,1,48,44,1004950352
63,10,10,Ticks_ISO_T2_5,53,5,42,127,1004973424
63,10,10,Ticks_ISO_T2_5,54,5,42,127,1005474024
63,10,10,Ticks_ISO_T2_5,55,1,48,36,1005477664
63,10,10,Ticks_ISO_T2_5,56,1,48,45,1005971132
63,10,10,Ticks_ISO_T2_5,57,5,42,127,1005973860
63,10,10,Ticks_ISO_T2_5,58,1,48,42,1006456020
63,10,10,Ticks_ISO_T2_5,59,5,42,127,1006473628
63,10,10,Ticks_ISO_T2_5,60,1,48,42,1006944272
63,10,10,Ticks_ISO_T2_5,61,5,42,127,1006974220
63,10,10,Ticks_ISO_T2_5,62,1,48,45,1007436408
63,10,10,Ticks_ISO_T2_5,63,5,42,127,1007473992
63,10,10,Ticks_ISO_T2_5,64,1,48,43,1007965200
63,10,10,Ticks_ISO_T2_5,65,5,42,127,1007973832
63,10,10,Ticks_ISO_T2_5,66,1,48,37,1008453972
63,10,10,Ticks_ISO_T2_5,67,5,42,127,1008473452
63,10,10,Ticks_ISO_T2_5,68,1,48,40,1008967808
63,10,10,Ticks_ISO_T2_5,69,5,42,127,1008974120
63,10,10,Ticks_ISO_T2_5,70,5,42,127,1009473896
63,10,10,Ticks_ISO_T2_5,71,1,48,32,1009481352
63,10,10,Ticks_ISO_T2_5,72,5,42,127,1009973740
63,10,10,Ticks_ISO_T2_5,73,1,48,46,1010011788
63,10,10,Ticks_ISO_T2_5,74,1,48,43,1010455416
63,10,10,Ticks_ISO_T2_5,75,5,42,127,1010474404
63,10,10,Ticks_ISO_T2_5,76,1,48,39,1010968056
63,10,10,Ticks_ISO_T2_5,77,5,42,127,1010973996
63,10,10,Ticks_ISO_T2_5,78,5,42,127,1011473996
63,10,10,Ticks_ISO_T2_5,79,1,48,32,1011497712
63,10,10,Ticks_ISO_T2_5,80,5,42,127,1011973392
63,10,10,Ticks_ISO_T2_5,81,1,48,43,1011993868
63,10,10,Ticks_ISO_T2_5,82,1,48,36,1012427272
63,10,10,Ticks_ISO_T2_5,83,5,42,127,1012474128
63,10,10,Ticks_ISO_T2_5,84,5,42,127,1012973980
63,10,10,Ticks_ISO_T2_5,85,1,48,36,1013011660
63,10,10,Ticks_ISO_T2_5,86,1,48,38,1013450596
63,10,10,Ticks_ISO_T2_5,87,5,42,127,1013473816
63,10,10,Ticks_ISO_T2_5,88,1,48,46,1013972976
63,10,10,Ticks_ISO_T2_5,89,5,42,127,1013974484
63,10,10,Ticks_ISO_T2_5,90,5,42,127,1014474112
63,10,10,Ticks_ISO_T2_5,91,1,48,35,1014475080
63,10,10,Ticks_ISO_T2_5,92,5,42,127,1014973956
63,10,10,Ticks_ISO_T2_5,93,1,48,32,1014991964
63,10,10,Ticks_ISO_T2_5,94,5,42,127,1015473504
63,10,10,Ticks_ISO_T2_5,95,1,48,39,1015501908
63,10,10,Ticks_ISO_T2_5,96,5,42,127,1015974168
63,10,10,Ticks_ISO_T2_5,97,1,48,41,1016004288
63,10,10,Ticks_ISO_T2_5,98,5,42,127,1016474012
63,10,10,Ticks_ISO_T2_5,99,1,48,39,1016486704
63,10,10,Ticks_ISO_T2_5,100,1,48,31,1016966268
63,10,10,Ticks_ISO_T2_5,101,5,42,127,1016973852
63,10,10,Ticks_ISO_T2_5,102,1,48,36,1017459976
63,10,10,Ticks_ISO_T2_5,103,5,42,127,1017474368
63,10,10,Ticks_ISO_T2_5,104,5,42,127,1017974072
63,10,10,Ticks_ISO_T2_5,105,1,48,42,1018002772
63,10,10,Ticks_ISO_T2_5,106,5,42,127,1018473916
63,10,10,Ticks_ISO_T2_5,107,1,48,44,1018487804
63,10,10,Ticks_ISO_T2_5,108,5,42,127,1018973832
63,10,10,Ticks_ISO_T2_5,109,1,48,31,1018983760
63,10,10,Ticks_ISO_T2_5,110,1,48,32,1019444764
63,10,10,Ticks_ISO_T2_5,111,5,42,127,1019474272
63,10,10,Ticks_ISO_T2_5,112,5,42,127,1019973972
63,10,10,Ticks_ISO_T2_5,113,1,48,44,1019999308
63,10,10,Ticks_ISO_T2_5,114,5,42,127,1020473812
63,10,10,Ticks_ISO_T2_5,115,1,48,36,1020477308
63,10,10,Ticks_ISO_T2_5,116,1,48,44,1020955720
63,10,10,Ticks_ISO_T2_5,117,5,42,127,1020973352
63,10,10,Ticks_ISO_T2_5,118,1,48,41,1021460420
63,10,10,Ticks_ISO_T2_5,119,5,42,127,1021474068
63,10,10,Ticks_ISO_T2_5,120,1,48,48,1021971540
63,10,10,Ticks_ISO_T2_5,121,5,42,127,1021973964
63,10,10,Ticks_ISO_T2_5,122,5,42,127,1022473740
63,10,10,Ticks_ISO_T2_5,123,1,48,46,1022480528
63,10,10,Ticks_ISO_T2_5,124,5,42,127,1022974404
63,10,10,Ticks_ISO_T2_5,125,1,48,45,1022995704
63,10,10,Ticks_ISO_T2_5,126,5,42,127,1023473876
63,10,10,Ticks_ISO_T2_5,127,1,48,37,1023526832
63,10,10,Ticks_ISO_T2_5,128,5,42,127,1023973868
63,10,10,Ticks_ISO_T2_5,129,1,48,43,1023992920
63,10,10,Ticks_ISO_T2_5,130,5,42,127,1024473636
63,10,10,Ticks_ISO_T2_5,131,1,48,42,1024485660
63,10,10,Ticks_ISO_T2_5,132,1,48,41,1024964464
63,10,10,Ticks_ISO_T2_5,133,5,42,127,1024974224
63,10,10,Ticks_ISO_T2_5,134,1,48,40,1025463188
63,10,10,Ticks_ISO_T2_5,135,5,42,127,1025473844
63,10,10,Ticks_ISO_T2_5,136,1,48,41,1025952340
63,10,10,Ticks_ISO_T2_5,137,5,42,127,1025973764
63,10,10,Ticks_ISO_T2_5,138,5,42,127,1026474436
63,10,10,Ticks_ISO_T2_5,139,1,48,43,1026481224
63,10,10,Ticks_ISO_T2_5,140,1,48,46,1026963548
63,10,10,Ticks_ISO_T2_5,141,5,42,127,1026974052
63,10,10,Ticks_ISO_T2_5,142,5,42,127,1027473900
63,10,10,Ticks_ISO_T2_5,143,1,48,46,1027480384
63,10,10,Ticks_ISO_T2_5,144,5,42,127,1027973596
63,10,10,Ticks_ISO_T2_5,145,1,48,40,1027984644
63,10,10,Ticks_ISO_T2_5,146,5,42,127,1028474112
63,10,10,Ticks_ISO_T2_5,147,1,48,42,1028485008
63,10,10,Ticks_ISO_T2_5,148,5,42,127,1028973884
63,10,10,Ticks_ISO_T2_5,149,1,48,44,1028985452
63,10,10,Ticks_ISO_T2_5,150,5,42,127,1029473500
63,10,10,Ticks_ISO_T2_5,151,1,48,40,1029504072
63,10,10,Ticks_ISO_T2_5,152,1,48,42,1029962384
63,10,10,Ticks_ISO_T2_5,153,5,42,127,1029974460
63,10,10,Ticks_ISO_T2_5,154,1,48,46,1030457372
63,10,10,Ticks_ISO_T2_5,155,5,42,127,1030474080
63,10,10,Ticks_ISO_T2_5,156,1,48,44,1030946944
63,10,10,Ticks_ISO_T2_5,157,5,42,127,1030973848
63,10,10,Ticks_ISO_T2_5,158,1,48,41,1031458904
63,10,10,Ticks_ISO_T2_5,159,5,42,127,1031473468
63,10,10,Ticks_ISO_T2_5,160,1,48,41,1031967348
63,10,10,Ticks_ISO_T2_5,161,5,42,127,1031974360
63,10,10,Ticks_ISO_T2_5,162,1,48,40,1032441012
63,10,10,Ticks_ISO_T2_5,163,5,42,127,1032473880
63,10,10,Ticks_ISO_T2_5,164,1,48,39,1032951552
63,10,10,Ticks_ISO_T2_5,165,5,42,127,1032973652
63,10,10,Ticks_ISO_T2_5,166,1,48,41,1033464260
63,10,10,Ticks_ISO_T2_5,167,5,42,127,1033474540
63,10,10,Ticks_ISO_T2_5,168,1,48,44,1033938452
63,10,10,Ticks_ISO_T2_5,169,5,42,127,1033974016
63,10,10,Ticks_ISO_T2_5,170,1,48,45,1034457892
63,10,10,Ticks_ISO_T2_5,171,5,42,127,1034473784
63,10,10,Ticks_ISO_T2_5,172,1,48,42,1034928864
63,10,10,Ticks_ISO_T2_5,173,5,42,127,1034973404
63,10,10,Ticks_ISO_T2_5,174,1,48,47,1035427892
63,10,10,Ticks_ISO_T2_5,175,5,42,127,1035474368
63,10,10,Ticks_ISO_T2_5,176,1,48,41,1035925644
63,10,10,Ticks_ISO_T2_5,177,5,42,127,1035973844
63,10,10,Ticks_ISO_T2_5,178,1,48,33,1036469764
63,10,10,Ticks_ISO_T2_5,179,5,42,127,1036473688
63,10,10,Ticks_ISO_T2_5,180,1,48,40,1036950236
63,10,10,Ticks_ISO_T2_5,181,5,42,127,1036973456
63,10,10,Ticks_ISO_T2_5,182,1,48,37,1037466236
63,10,10,Ticks_ISO_T2_5,183,5,42,127,1037474420
63,10,10,Ticks_ISO_T2_5,184,1,48,34,1037954188
63,10,10,Ticks_ISO_T2_5,185,5,42,127,1037973820
63,10,10,Ticks_ISO_T2_5,186,1,48,35,1038458520
63,10,10,Ticks_ISO_T2_5,187,5,42,127,1038473664
63,10,10,Ticks_ISO_T2_5,188,1,48,36,1038961132
63,10,10,Ticks_ISO_T2_5,189,5,42,127,1038974476
63,10,10,Ticks_ISO_T2_5,190,1,48,44,1039472064
63,10,10,Ticks_ISO_T2_5,191,5,42,127,1039473948
63,10,10,Ticks_ISO_T2_5,192,1,48,37,1039946160
63,10,10,Ticks_ISO_T2_5,193,5,42,127,1039973644
63,10,10,Ticks_ISO_T2_5,194,1,48,39,1040472216
63,10,10,Ticks_ISO_T2_5,195,5,42,127,1040473712
63,10,10,Ticks_ISO_T2_5,196,5,42,127,1040974536
63,10,10,Ticks_ISO_T2_5,197,1,48,32,1040984316
63,10,10,Ticks_ISO_T2_5,198,1,48,37,1041469404
63,10,10,Ticks_ISO_T2_5,199,5,42,127,1041473776
63,10,10,Ticks_ISO_T2_5,200,1,48,40,1041939304
63,10,10,Ticks_ISO_T2_5,201,5,42,127,1041973548
63,10,10,Ticks_ISO_T2_5,202,1,48,44,1042448124
63,10,10,Ticks_ISO_T2_5,203,5,42,127,1042474360
63,10,10,Ticks_ISO_T2_5,204,1,48,42,1042946324
63,10,10,Ticks_ISO_T2_5,205,5,42,127,1042974252
63,10,10,Ticks_ISO_T2_5,206,1,48,46,1043437792
63,10,10,Ticks_ISO_T2_5,207,5,42,127,1043473728
63,10,10,Ticks_ISO_T2_5,208,1,48,37,1043965752
63,10,10,Ticks_ISO_T2_5,209,5,42,127,1043973420
63,10,10,Ticks_ISO_T2_5,210,1,48,40,1044453636
63,10,10,Ticks_ISO_T2_5,211,5,42,127,1044474384
63,10,10,Ticks_ISO_T2_5,212,5,42,127,1044974164
63,10,10,Ticks_ISO_T2_5,213,1,48,37,1044985136
63,10,10,Ticks_ISO_T2_5,214,1,48,39,1045459532
63,10,10,Ticks_ISO_T2_5,215,5,42,127,1045473552
63,10,10,Ticks_ISO_T2_5,216,1,48,40,1045952192
63,10,10,Ticks_ISO_T2_5,217,5,42,127,1045974516
63,10,10,Ticks_ISO_T2_5,218,1,48,42,1046453232
63,10,10,Ticks_ISO_T2_5,219,5,42,127,1046474360
63,10,10,Ticks_ISO_T2_5,220,1,48,36,1046943056
63,10,10,Ticks_ISO_T2_5,221,5,42,127,1046973832
63,10,10,Ticks_ISO_T2_5,222,1,48,32,1047437444
63,10,10,Ticks_ISO_T2_5,223,5,42,127,1047473380
63,10,10,Ticks_ISO_T2_5,224,1,48,36,1047969080
63,10,10,Ticks_ISO_T2_5,225,5,42,127,1047974344
63,10,10,Ticks_ISO_T2_5,226,1,48,37,1048437356
63,10,10,Ticks_ISO_T2_5,227,5,42,127,1048474188
63,10,10,Ticks_ISO_T2_5,228,1,48,39,1048952988
63,10,10,Ticks_ISO_T2_5,229,5,42,127,1048973736
63,10,10,Ticks_ISO_T2_5,230,1,48,38,1049427920
63,10,10,Ticks_ISO_T2_5,231,5,42,127,1049474476
63,10,10,Ticks_ISO_T2_5,232,1,48,37,1049933004
63,10,10,Ticks_ISO_T2_5,233,5,42,127,1049974320
63,10,10,Ticks_ISO_T2_5,234,1,48,33,1050452444
63,10,10,Ticks_ISO_T2_5,235,5,42,127,1050474020
63,10,10,Ticks_ISO_T2_5,236,1,48,34,1050956928
63,10,10,Ticks_ISO_T2_5,237,5,42,127,1050973564
63,10,10,Ticks_ISO_T2_5,238,1,48,34,1051441512
63,10,10,Ticks_ISO_T2_5,239,5,42,127,1051474232
63,10,10,Ticks_ISO_T2_5,240,1,48,38,1051923604
63,10,10,Ticks_ISO_T2_5,241,5,42,127,1051974372
63,10,10,Ticks_ISO_T2_5,242,1,48,36,1052453612
63,10,10,Ticks_ISO_T2_5,243,5,42,127,1052473844
63,10,10,Ticks_ISO_T2_5,244,1,48,37,1052949096
63,10,10,Ticks_ISO_T2_5,245,5,42,127,1052973316
63,10,10,Ticks_ISO_T2_5,246,1,48,38,1053431888
63,10,10,Ticks_ISO_T2_5,247,5,42,127,1053474032
63,10,10,Ticks_ISO_T2_5,248,1,48,39,1053939412
63,10,10,Ticks_ISO_T2_5,249,5,42,127,1053974072
63,10,10,Ticks_ISO_T2_5,250,1,48,43,1054467456
63,10,10,Ticks_ISO_T2_5,251,5,42,127,1054473620
63,10,10,Ticks_ISO_T2_5,252,1,48,44,1054954804
63,10,10,Ticks_ISO_T2_5,253,5,42,127,1054974212
63,10,10,Ticks_ISO_T2_5,254,5,42,127,1055473988
63,10,10,Ticks_ISO_T2_5,255,1,48,39,1055475776
63,10,10,Ticks_ISO_T2_5,256,1,48,46,1055970724
63,10,10,Ticks_ISO_T2_5,257,5,42,127,1055973900
63,10,10,Ticks_ISO_T2_5,258,1,48,45,1056461816
63,10,10,Ticks_ISO_T2_5,0,9999,9999,9999,991471672
63,10,10,Ticks_ISO_T2_5,1,9999,9999,9999,991971384
63,10,10,Ticks_ISO_T2_5,2,9999,9999,9999,992471096
63,10,10,Ticks_ISO_T2_5,3,9999,9999,9999,992971840
63,10,10,Ticks_ISO_T2_5,4,9999,9999,9999,993471608
63,10,10,Ticks_ISO_T2_5,5,9999,9999,9999,993971308
63,10,10,Ticks_ISO_T2_5,6,9999,9999,9999,994472052
63,10,10,Ticks_ISO_T2_5,7,9999,9999,9999,994971744
63,10,10,Ticks_ISO_T2_5,8,9999,9999,9999,995471432
63,10,10,Ticks_ISO_T2_5,9,9999,9999,9999,995971128
63,10,10,Ticks_ISO_T2_5,10,9999,9999,9999,996471868
63,10,10,Ticks_ISO_T2_5,11,9999,9999,9999,996971640
63,10,10,Ticks_ISO_T2_5,12,9999,9999,9999,997471340
63,10,10,Ticks_ISO_T2_5,13,9999,9999,9999,997972080
63,10,10,Ticks_ISO_T2_5,14,9999,9999,9999,998471768
63,10,10,Ticks_ISO_T2_5,15,9999,9999,9999,998971464
63,10,10,Ticks_ISO_T2_5,16,9999,9999,9999,999471156
63,10,10,Ticks_ISO_T2_5,17,9999,9999,9999,999971948
63,10,10,Ticks_ISO_T2_5,18,9999,9999,9999,1000471648
63,10,10,Ticks_ISO_T2_5,19,9999,9999,9999,1000971344
63,10,10,Ticks_ISO_T2_5,20,9999,9999,9999,1001472080
63,10,10,Ticks_ISO_T2_5,21,9999,9999,9999,1001971776
63,10,10,Ticks_ISO_T2_5,22,9999,9999,9999,1002471476
63,10,10,Ticks_ISO_T2_5,23,9999,9999,9999,1002971240
63,10,10,Ticks_ISO_T2_5,24,9999,9999,9999,1003471980
63,10,10,Ticks_ISO_T2_5,25,9999,9999,9999,1003971700
63,10,10,Ticks_ISO_T2_5,26,9999,9999,9999,1004471368
63,10,10,Ticks_ISO_T2_5,27,9999,9999,9999,1004971064
63,10,10,Ticks_ISO_T2_5,28,9999,9999,9999,1005471812
63,10,10,Ticks_ISO_T2_5,29,9999,9999,9999,1005971576
63,10,10,Ticks_ISO_T2_5,30,9999,9999,9999,1006471268
63,10,10,Ticks_ISO_T2_5,31,9999,9999,9999,1006972012
63,10,10,Ticks_ISO_T2_5,32,9999,9999,9999,1007471704
63,10,10,Ticks_ISO_T2_5,33,9999,9999,9999,1007971400
63,10,10,Ticks_ISO_T2_5,34,9999,9999,9999,1008471092
63,10,10,Ticks_ISO_T2_5,35,9999,9999,9999,1008971836
63,10,10,Ticks_ISO_T2_5,36,9999,9999,9999,1009471608
63,10,10,Ticks_ISO_T2_5,37,9999,9999,9999,1009971304
63,10,10,Ticks_ISO_T2_5,38,9999,9999,9999,1010472040
63,10,10,Ticks_ISO_T2_5,39,9999,9999,9999,1010971712
63,10,10,Ticks_ISO_T2_5,40,9999,9999,9999,1011471412
63,10,10,Ticks_ISO_T2_5,41,9999,9999,9999,1011971180
63,10,10,Ticks_ISO_T2_5,42,9999,9999,9999,1012471916
63,10,10,Ticks_ISO_T2_5,43,9999,9999,9999,1012971620
63,10,10,Ticks_ISO_T2_5,44,9999,9999,9999,1013471308
63,10,10,Ticks_ISO_T2_5,45,9999,9999,9999,1013972056
63,10,10,Ticks_ISO_T2_5,46,9999,9999,9999,1014471752
63,10,10,Ticks_ISO_T2_5,47,9999,9999,9999,1014971444
63,10,10,Ticks_ISO_T2_5,48,9999,9999,9999,1015471216
63,10,10,Ticks_ISO_T2_5,49,9999,9999,9999,1015971956
63,10,10,Ticks_ISO_T2_5,50,9999,9999,9999,1016471652
63,10,10,Ticks_ISO_T2_5,51,9999,9999,9999,1016971340
63,10,10,Ticks_ISO_T2_5,52,9999,9999,9999,1017472080
63,10,10,Ticks_ISO_T2_5,53,9999,9999,9999,1017971784
63,10,10,Ticks_ISO_T2_5,54,9999,9999,9999,1018471480
63,10,10,Ticks_ISO_T2_5,55,9999,9999,9999,1018971248
63,10,10,Ticks_ISO_T2_5,56,9999,9999,9999,1019471984
63,10,10,Ticks_ISO_T2_5,57,9999,9999,9999,1019971684
63,10,10,Ticks_ISO_T2_5,58,9999,9999,9999,1020471380
63,10,10,Ticks_ISO_T2_5,59,9999,9999,9999,1020971068
63,10,10,Ticks_ISO_T2_5,60,9999,9999,9999,1021471856
63,10,10,Ticks_ISO_T2_5,61,9999,9999,9999,1021971604
63,10,10,Ticks_ISO_T2_5,62,9999,9999,9999,1022471228
63,10,10,Ticks_ISO_T2_5,63,9999,9999,9999,1022971968
63,10,10,Ticks_ISO_T2_5,64,9999,9999,9999,1023471664
63,10,10,Ticks_ISO_T2_5,65,9999,9999,9999,1023971432
63,10,10,Ticks_ISO_T2_5,66,9999,9999,9999,1024471128
63,10,10,Ticks_ISO_T2_5,67,9999,9999,9999,1024971864
63,10,10,Ticks_ISO_T2_5,68,9999,9999,9999,1025471560
63,10,10,Ticks_ISO_T2_5,69,9999,9999,9999,1025971256
63,10,10,Ticks_ISO_T2_5,70,9999,9999,9999,1026472004
63,10,10,Ticks_ISO_T2_5,71,9999,9999,9999,1026971764
63,10,10,Ticks_ISO_T2_5,72,9999,9999,9999,1027471464
63,10,10,Ticks_ISO_T2_5,73,9999,9999,9999,1027971160
63,10,10,Ticks_ISO_T2_5,74,9999,9999,9999,1028471900
63,10,10,Ticks_ISO_T2_5,75,9999,9999,9999,1028971596
63,10,10,Ticks_ISO_T2_5,76,9999,9999,9999,1029471288
63,10,10,Ticks_ISO_T2_5,77,9999,9999,9999,1029972024
63,10,10,Ticks_ISO_T2_5,78,9999,9999,9999,1030471796
63,10,10,Ticks_ISO_T2_5,79,9999,9999,9999,1030971488
63,10,10,Ticks_ISO_T2_5,80,9999,9999,9999,1031471184
63,10,10,Ticks_ISO_T2_5,81,9999,9999,9999,1031971924
63,10,10,Ticks_ISO_T2_5,82,9999,9999,9999,1032471668
63,10,10,Ticks_ISO_T2_5,83,9999,9999,9999,1032971364
63,10,10,Ticks_ISO_T2_5,84,9999,9999,9999,1033472108
63,10,10,Ticks_ISO_T2_5,85,9999,9999,9999,1033971804
63,10,10,Ticks_ISO_T2_5,86,9999,9999,9999,1034471496
63,10,10,Ticks_ISO_T2_5,87,9999,9999,9999,1034971192
63,10,10,Ticks_ISO_T2_5,88,9999,9999,9999,1035471932
63,10,10,Ticks_ISO_T2_5,89,9999,9999,9999,1035971632
63,10,10,Ticks_ISO_T2_5,90,9999,9999,9999,1036471400
63,10,10,Ticks_ISO_T2_5,91,9999,9999,9999,1036971096
63,10,10,Ticks_ISO_T2_5,92,9999,9999,9999,1037471836
63,10,10,Ticks_ISO_T2_5,93,9999,9999,9999,1037971532
63,10,10,Ticks_ISO_T2_5,94,9999,9999,9999,1038471228
63,10,10,Ticks_ISO_T2_5,95,9999,9999,9999,1038971968
63,10,10,Ticks_ISO_T2_5,96,9999,9999,9999,1039471688
63,10,10,Ticks_ISO_T2_5,97,9999,9999,9999,1039971432
63,10,10,Ticks_ISO_T2_5,98,9999,9999,9999,1040471136
63,10,10,Ticks_ISO_T2_5,99,9999,9999,9999,1040971876
63,10,10,Ticks_ISO_T2_5,100,9999,9999,9999,1041471564
63,10,10,Ticks_ISO_T2_5,101,9999,9999,9999,1041971260
63,10,10,Ticks_ISO_T2_5,102,9999,9999,9999,1042472000
63,10,10,Ticks_ISO_T2_5,103,9999,9999,9999,1042971744
63,10,10,Ticks_ISO_T2_5,104,9999,9999,9999,1043471440
63,10,10,Ticks_ISO_T2_5,105,9999,9999,9999,1043971136
63,10,10,Ticks_ISO_T2_5,106,9999,9999,9999,1044471876
63,10,10,Ticks_ISO_T2_5,107,9999,9999,9999,1044971576
63,10,10,Ticks_ISO_T2_5,108,9999,9999,9999,1045471340
63,10,10,Ticks_ISO_T2_5,109,9999,9999,9999,1045972080
63,10,10,Ticks_ISO_T2_5,110,9999,9999,9999,1046471776
63,10,10,Ticks_ISO_T2_5,111,9999,9999,9999,1046971472
63,10,10,Ticks_ISO_T2_5,112,9999,9999,9999,1047471168
63,10,10,Ticks_ISO_T2_5,113,9999,9999,9999,1047971908
63,10,10,Ticks_ISO_T2_5,114,9999,9999,9999,1048471604
63,10,10,Ticks_ISO_T2_5,115,9999,9999,9999,1048971376
63,10,10,Ticks_ISO_T2_5,116,9999,9999,9999,1049472116
63,10,10,Ticks_ISO_T2_5,117,9999,9999,9999,1049971812
63,10,10,Ticks_ISO_T2_5,118,9999,9999,9999,1050471508
63,10,10,Ticks_ISO_T2_5,119,9999,9999,9999,1050971204
63,10,10,Ticks_ISO_T2_5,120,9999,9999,9999,1051471944
63,10,10,Ticks_ISO_T2_5,121,9999,9999,9999,1051971640
63,10,10,Ticks_ISO_T2_5,122,9999,9999,9999,1052471408
63,10,10,Ticks_ISO_T2_5,123,9999,9999,9999,1052971104
63,10,10,Ticks_ISO_T2_5,124,9999,9999,9999,1053471820
63,10,10,Ticks_ISO_T2_5,125,9999,9999,9999,1053971564
63,10,10,Ticks_ISO_T2_5,126,9999,9999,9999,1054471260
63,10,10,Ticks_ISO_T2_5,127,9999,9999,9999,1054972000
63,10,10,Ticks_ISO_T2_5,128,9999,9999,9999,1055471700
63,10,10,Ticks_ISO_T2_5,129,9999,9999,9999,1055971388
63,11,9,Ticks_ISO_T2_8,0,5,42,127,1066818884
63,11,9,Ticks_ISO_T2_8,1,5,42,127,1067618788
63,11,9,Ticks_ISO_T2_8,2,1,48,57,1068397112
63,11,9,Ticks_ISO_T2_8,3,5,42,127,1068418536
63,11,9,Ticks_ISO_T2_8,4,5,42,127,1069219176
63,11,9,Ticks_ISO_T2_8,5,1,48,59,1069232764
63,11,9,Ticks_ISO_T2_8,6,5,42,127,1070018836
63,11,9,Ticks_ISO_T2_8,7,1,48,58,1070059200
63,11,9,Ticks_ISO_T2_8,8,5,42,127,1070818792
63,11,9,Ticks_ISO_T2_8,9,1,48,61,1070822280
63,11,9,Ticks_ISO_T2_8,10,1,48,57,1071584600
63,11,9,Ticks_ISO_T2_8,11,5,42,127,1071618444
63,11,9,Ticks_ISO_T2_8,12,1,48,64,1072412684
63,11,9,Ticks_ISO_T2_8,13,5,42,127,1072419172
63,11,9,Ticks_ISO_T2_8,14,5,42,127,1073218912
63,11,9,Ticks_ISO_T2_8,15,1,48,62,1073229140
63,11,9,Ticks_ISO_T2_8,16,1,48,65,1074012548
63,11,9,Ticks_ISO_T2_8,17,5,42,127,1074018864
63,11,9,Ticks_ISO_T2_8,18,1,48,57,1074773608
63,11,9,Ticks_ISO_T2_8,19,5,42,127,1074818524
63,11,9,Ticks_ISO_T2_8,20,1,48,51,1075618260
63,11,9,Ticks_ISO_T2_8,21,5,42,127,1075619904
63,11,9,Ticks_ISO_T2_8,22,5,42,127,1076418820
63,11,9,Ticks_ISO_T2_8,23,1,48,45,1076465392
63,11,9,Ticks_ISO_T2_8,24,1,48,42,1077186344
63,11,9,Ticks_ISO_T2_8,25,5,42,127,1077218620
63,11,9,Ticks_ISO_T2_8,26,1,48,58,1077981520
63,11,9,Ticks_ISO_T2_8,27,5,42,127,1078018652
63,11,9,Ticks_ISO_T2_8,28,1,48,42,1078796132
63,11,9,Ticks_ISO_T2_8,29,5,42,127,1078819232
63,11,9,Ticks_ISO_T2_8,30,1,48,55,1079580236
63,11,9,Ticks_ISO_T2_8,31,5,42,127,1079618968
63,11,9,Ticks_ISO_T2_8,32,1,48,55,1080385156
63,11,9,Ticks_ISO_T2_8,33,5,42,127,1080418624
63,11,9,Ticks_ISO_T2_8,34,1,48,57,1081190948
63,11,9,Ticks_ISO_T2_8,35,5,42,127,1081218660
63,11,9,Ticks_ISO_T2_8,36,1,48,53,1081965852
63,11,9,Ticks_ISO_T2_8,37,5,42,127,1082019140
63,11,9,Ticks_ISO_T2_8,38,1,48,53,1082813076
63,11,9,Ticks_ISO_T2_8,39,5,42,127,1082818948
63,11,9,Ticks_ISO_T2_8,40,1,48,58,1083589852
63,11,9,Ticks_ISO_T2_8,41,5,42,127,1083618608
63,11,9,Ticks_ISO_T2_8,42,1,48,51,1084404612
63,11,9,Ticks_ISO_T2_8,43,5,42,127,1084418560
63,11,9,Ticks_ISO_T2_8,44,1,48,60,1085178028
63,11,9,Ticks_ISO_T2_8,45,5,42,127,1085219368
63,11,9,Ticks_ISO_T2_8,46,1,48,54,1085978956
63,11,9,Ticks_ISO_T2_8,47,5,42,127,1086018804
63,11,9,Ticks_ISO_T2_8,48,1,48,60,1086772576
63,11,9,Ticks_ISO_T2_8,49,5,42,127,1086818612
63,11,9,Ticks_ISO_T2_8,50,5,42,127,1087618352
63,11,9,Ticks_ISO_T2_8,51,1,48,54,1087624832
63,11,9,Ticks_ISO_T2_8,52,1,48,52,1088374284
63,11,9,Ticks_ISO_T2_8,53,5,42,127,1088419272
63,11,9,Ticks_ISO_T2_8,54,1,48,57,1089193692
63,11,9,Ticks_ISO_T2_8,55,5,42,127,1089218860
63,11,9,Ticks_ISO_T2_8,56,1,48,51,1089989388
63,11,9,Ticks_ISO_T2_8,57,5,42,127,1090018668
63,11,9,Ticks_ISO_T2_8,58,1,48,55,1090797200
63,11,9,Ticks_ISO_T2_8,59,5,42,127,1090818404
63,11,9,Ticks_ISO_T2_8,60,1,48,52,1091601872
63,11,9,Ticks_ISO_T2_8,61,5,42,127,1091619356
63,11,9,Ticks_ISO_T2_8,62,1,48,55,1092385172
63,11,9,Ticks_ISO_T2_8,63,5,42,127,1092418792
63,11,9,Ticks_ISO_T2_8,64,1,48,52,1093214148
63,11,9,Ticks_ISO_T2_8,65,5,42,127,1093218600
63,11,9,Ticks_ISO_T2_8,66,1,48,54,1094009696
63,11,9,Ticks_ISO_T2_8,67,5,42,127,1094018408
63,11,9,Ticks_ISO_T2_8,68,1,48,51,1094811300
63,11,9,Ticks_ISO_T2_8,69,5,42,127,1094819336
63,11,9,Ticks_ISO_T2_8,70,1,48,50,1095576328
63,11,9,Ticks_ISO_T2_8,71,5,42,127,1095619072
63,11,9,Ticks_ISO_T2_8,72,1,48,44,1096381448
63,11,9,Ticks_ISO_T2_8,73,5,42,127,1096418728
63,11,9,Ticks_ISO_T2_8,74,5,42,127,1097218396
63,11,9,Ticks_ISO_T2_8,75,1,48,50,1097233704
63,11,9,Ticks_ISO_T2_8,76,1,48,50,1097984056
63,11,9,Ticks_ISO_T2_8,77,5,42,127,1098019344
63,11,9,Ticks_ISO_T2_8,78,1,48,49,1098769200
63,11,9,Ticks_ISO_T2_8,79,5,42,127,1098819000
63,11,9,Ticks_ISO_T2_8,80,1,48,52,1099588708
63,11,9,Ticks_ISO_T2_8,81,5,42,127,1099618584
63,11,9,Ticks_ISO_T2_8,82,1,48,46,1100369588
63,11,9,Ticks_ISO_T2_8,83,5,42,127,1100418392
63,11,9,Ticks_ISO_T2_8,84,1,48,57,1101167452
63,11,9,Ticks_ISO_T2_8,85,5,42,127,1101219248
63,11,9,Ticks_ISO_T2_8,86,1,48,44,1102014304
63,11,9,Ticks_ISO_T2_8,87,5,42,127,1102019280
63,11,9,Ticks_ISO_T2_8,88,1,48,48,1102795044
63,11,9,Ticks_ISO_T2_8,89,5,42,127,1102818864
63,11,9,Ticks_ISO_T2_8,90,1,48,41,1103614520
63,11,9,Ticks_ISO_T2_8,91,5,42,127,1103618300
63,11,9,Ticks_ISO_T2_8,92,1,48,40,1104403784
63,11,9,Ticks_ISO_T2_8,93,5,42,127,1104419176
63,11,9,Ticks_ISO_T2_8,94,1,48,36,1105216256
63,11,9,Ticks_ISO_T2_8,95,5,42,127,1105219132
63,11,9,Ticks_ISO_T2_8,96,1,48,45,1105978892
63,11,9,Ticks_ISO_T2_8,97,5,42,127,1106019016
63,11,9,Ticks_ISO_T2_8,98,1,48,42,1106803084
63,11,9,Ticks_ISO_T2_8,99,5,42,127,1106818304
63,11,9,Ticks_ISO_T2_8,100,1,48,46,1107576188
63,11,9,Ticks_ISO_T2_8,101,5,42,127,1107619156
63,11,9,Ticks_ISO_T2_8,102,1,48,48,1108395740
63,11,9,Ticks_ISO_T2_8,103,5,42,127,1108419036
63,11,9,Ticks_ISO_T2_8,104,1,48,42,1109219000
63,11,9,Ticks_ISO_T2_8,105,5,42,127,1109220340
63,11,9,Ticks_ISO_T2_8,106,5,42,127,1110018364
63,11,9,Ticks_ISO_T2_8,107,1,48,44,1110043244
63,11,9,Ticks_ISO_T2_8,108,1,48,46,1110771676
63,11,9,Ticks_ISO_T2_8,109,5,42,127,1110819084
63,11,9,Ticks_ISO_T2_8,110,1,48,40,1111605620
63,11,9,Ticks_ISO_T2_8,111,5,42,127,1111618820
63,11,9,Ticks_ISO_T2_8,112,1,48,43,1112389344
63,11,9,Ticks_ISO_T2_8,113,5,42,127,1112418852
63,11,9,Ticks_ISO_T2_8,114,1,48,42,1113197308
63,11,9,Ticks_ISO_T2_8,115,5,42,127,1113218360
63,11,9,Ticks_ISO_T2_8,116,1,48,38,1113967948
63,11,9,Ticks_ISO_T2_8,117,5,42,127,1114019140
63,11,9,Ticks_ISO_T2_8,118,5,42,127,1114819028
63,11,9,Ticks_ISO_T2_8,119,1,48,39,1114857828
63,11,9,Ticks_ISO_T2_8,120,5,42,127,1115618836
63,11,9,Ticks_ISO_T2_8,121,1,48,35,1115619728
63,11,9,Ticks_ISO_T2_8,122,1,48,42,1116398936
63,11,9,Ticks_ISO_T2_8,123,5,42,127,1116418488
63,11,9,Ticks_ISO_T2_8,124,1,48,42,1117202484
63,11,9,Ticks_ISO_T2_8,125,5,42,127,1117219072
63,11,9,Ticks_ISO_T2_8,126,1,48,47,1117996856
63,11,9,Ticks_ISO_T2_8,127,5,42,127,1118018956
63,11,9,Ticks_ISO_T2_8,128,5,42,127,1118818692
63,11,9,Ticks_ISO_T2_8,129,1,48,42,1118833476
63,11,9,Ticks_ISO_T2_8,130,1,48,38,1119607316
63,11,9,Ticks_ISO_T2_8,131,5,42,127,1119618272
63,11,9,Ticks_ISO_T2_8,132,5,42,127,1120419132
63,11,9,Ticks_ISO_T2_8,133,1,48,40,1120440800
63,11,9,Ticks_ISO_T2_8,134,1,48,46,1121199000
63,11,9,Ticks_ISO_T2_8,135,5,42,127,1121218860
63,11,9,Ticks_ISO_T2_8,136,5,42,127,1122018600
63,11,9,Ticks_ISO_T2_8,137,1,48,37,1122044752
63,11,9,Ticks_ISO_T2_8,138,1,48,42,1122774756
63,11,9,Ticks_ISO_T2_8,139,5,42,127,1122818400
63,11,9,Ticks_ISO_T2_8,140,1,48,43,1123616176
63,11,9,Ticks_ISO_T2_8,141,5,42,127,1123619204
63,11,9,Ticks_ISO_T2_8,142,1,48,37,1124391672
63,11,9,Ticks_ISO_T2_8,143,5,42,127,1124418936
63,11,9,Ticks_ISO_T2_8,144,5,42,127,1125218604
63,11,9,Ticks_ISO_T2_8,145,1,48,43,1125229800
63,11,9,Ticks_ISO_T2_8,146,1,48,39,1126012384
63,11,9,Ticks_ISO_T2_8,147,5,42,127,1126018552
63,11,9,Ticks_ISO_T2_8,148,1,48,46,1126810248
63,11,9,Ticks_ISO_T2_8,149,5,42,127,1126819036
63,11,9,Ticks_ISO_T2_8,150,5,42,127,1127618776
63,11,9,Ticks_ISO_T2_8,151,1,48,44,1127633560
63,11,9,Ticks_ISO_T2_8,152,5,42,127,1128418804
63,11,9,Ticks_ISO_T2_8,153,1,48,43,1128420288
63,11,9,Ticks_ISO_T2_8,154,1,48,44,1129215580
63,11,9,Ticks_ISO_T2_8,155,5,42,127,1129218384
63,11,9,Ticks_ISO_T2_8,156,5,42,127,1130019196
63,11,9,Ticks_ISO_T2_8,157,1,48,40,1130038772
63,11,9,Ticks_ISO_T2_8,158,1,48,37,1130796452
63,11,9,Ticks_ISO_T2_8,159,5,42,127,1130818996
63,11,9,Ticks_ISO_T2_8,160,5,42,127,1131618664
63,11,9,Ticks_ISO_T2_8,161,1,48,44,1131645488
63,11,9,Ticks_ISO_T2_8,162,1,48,43,1132406160
63,11,9,Ticks_ISO_T2_8,163,5,42,127,1132418388
63,11,9,Ticks_ISO_T2_8,164,1,48,43,1133214872
63,11,9,Ticks_ISO_T2_8,165,5,42,127,1133219468
63,11,9,Ticks_ISO_T2_8,166,1,48,45,1133999796
63,11,9,Ticks_ISO_T2_8,167,5,42,127,1134018828
63,11,9,Ticks_ISO_T2_8,168,5,42,127,1134818568
63,11,9,Ticks_ISO_T2_8,169,1,48,36,1134824300
63,11,9,Ticks_ISO_T2_8,170,1,48,44,1135593728
63,11,9,Ticks_ISO_T2_8,171,5,42,127,1135618296
63,11,9,Ticks_ISO_T2_8,172,5,42,127,1136419328
63,11,9,Ticks_ISO_T2_8,173,1,48,43,1136430900
63,11,9,Ticks_ISO_T2_8,174,1,48,40,1137197188
63,11,9,Ticks_ISO_T2_8,175,5,42,127,1137219060
63,11,9,Ticks_ISO_T2_8,176,1,48,38,1138016684
63,11,9,Ticks_ISO_T2_8,177,5,42,127,1138018496
63,11,9,Ticks_ISO_T2_8,178,1,48,40,1138811832
63,11,9,Ticks_ISO_T2_8,179,5,42,127,1138818452
63,11,9,Ticks_ISO_T2_8,180,1,48,40,1139593016
63,11,9,Ticks_ISO_T2_8,181,5,42,127,1139619308
63,11,9,Ticks_ISO_T2_8,182,1,48,40,1140406292
63,11,9,Ticks_ISO_T2_8,183,5,42,127,1140419040
63,11,9,Ticks_ISO_T2_8,184,5,42,127,1141218556
63,11,9,Ticks_ISO_T2_8,185,1,48,40,1141231772
63,11,9,Ticks_ISO_T2_8,186,1,48,40,1141979580
63,11,9,Ticks_ISO_T2_8,187,5,42,127,1142018360
63,11,9,Ticks_ISO_T2_8,188,1,48,41,1142785964
63,11,9,Ticks_ISO_T2_8,189,5,42,127,1142819312
63,11,9,Ticks_ISO_T2_8,190,5,42,127,1143619276
63,11,9,Ticks_ISO_T2_8,191,1,48,31,1143628904
63,11,9,Ticks_ISO_T2_8,192,5,42,127,1144418708
63,11,9,Ticks_ISO_T2_8,193,1,48,48,1144441572
63,11,9,Ticks_ISO_T2_8,194,1,48,36,1145194544
63,11,9,Ticks_ISO_T2_8,195,5,42,127,1145218364
63,11,9,Ticks_ISO_T2_8,196,1,48,40,1145970044
63,11,9,Ticks_ISO_T2_8,197,5,42,127,1146019144
63,11,9,Ticks_ISO_T2_8,198,5,42,127,1146819032
63,11,9,Ticks_ISO_T2_8,199,1,48,38,1146827536
63,11,9,Ticks_ISO_T2_8,200,1,48,42,1147608552
63,11,9,Ticks_ISO_T2_8,201,5,42,127,1147618684
63,11,9,Ticks_ISO_T2_8,202,1,48,38,1148379784
63,11,9,Ticks_ISO_T2_8,203,5,42,127,1148418268
63,11,9,Ticks_ISO_T2_8,204,1,48,37,1149197096
63,11,9,Ticks_ISO_T2_8,205,5,42,127,1149219148
63,11,9,Ticks_ISO_T2_8,206,5,42,127,1150019036
63,11,9,Ticks_ISO_T2_8,207,1,48,39,1150032104
63,11,9,Ticks_ISO_T2_8,208,1,48,45,1150804368
63,11,9,Ticks_ISO_T2_8,209,5,42,127,1150818764
63,11,9,Ticks_ISO_T2_8,210,1,48,46,1151599464
63,11,9,Ticks_ISO_T2_8,211,5,42,127,1151618424
63,11,9,Ticks_ISO_T2_8,212,1,48,42,1152385956
63,11,9,Ticks_ISO_T2_8,213,5,42,127,1152419128
63,11,9,Ticks_ISO_T2_8,214,5,42,127,1153219016
63,11,9,Ticks_ISO_T2_8,215,1,48,46,1153247040
63,11,9,Ticks_ISO_T2_8,216,1,48,40,1153983328
63,11,9,Ticks_ISO_T2_8,217,5,42,127,1154018744
63,11,9,Ticks_ISO_T2_8,218,1,48,46,1154762340
63,11,9,Ticks_ISO_T2_8,219,5,42,127,1154818400
63,11,9,Ticks_ISO_T2_8,220,1,48,35,1155588188
63,11,9,Ticks_ISO_T2_8,221,5,42,127,1155619280
63,11,9,Ticks_ISO_T2_8,222,5,42,127,1156418948
63,11,9,Ticks_ISO_T2_8,223,1,48,35,1156423036
63,11,9,Ticks_ISO_T2_8,224,5,42,127,1157218608
63,11,9,Ticks_ISO_T2_8,225,1,48,32,1157241248
63,11,9,Ticks_ISO_T2_8,226,1,48,37,1157996608
63,11,9,Ticks_ISO_T2_8,227,5,42,127,1158018556
63,11,9,Ticks_ISO_T2_8,228,1,48,30,1158799032
63,11,9,Ticks_ISO_T2_8,229,5,42,127,1158819040
63,11,9,Ticks_ISO_T2_8,230,5,42,127,1159618856
63,11,9,Ticks_ISO_T2_8,231,1,48,39,1159619896
63,11,9,Ticks_ISO_T2_8,232,5,42,127,1160418736
63,11,9,Ticks_ISO_T2_8,233,1,48,39,1160425892
63,11,9,Ticks_ISO_T2_8,234,1,48,42,1161215508
63,11,9,Ticks_ISO_T2_8,235,5,42,127,1161218388
63,11,9,Ticks_ISO_T2_8,236,1,48,32,1161994896
63,11,9,Ticks_ISO_T2_8,237,5,42,127,1162019044
63,11,9,Ticks_ISO_T2_8,238,1,48,37,1162794952
63,11,9,Ticks_ISO_T2_8,0,9999,9999,9999,1066816596
63,11,9,Ticks_ISO_T2_8,1,9999,9999,9999,1067616352
63,11,9,Ticks_ISO_T2_8,2,9999,9999,9999,1068416100
63,11,9,Ticks_ISO_T2_8,3,9999,9999,9999,1069216888
63,11,9,Ticks_ISO_T2_8,4,9999,9999,9999,1070016620
63,11,9,Ticks_ISO_T2_8,5,9999,9999,9999,1070816356
63,11,9,Ticks_ISO_T2_8,6,9999,9999,9999,1071616080
63,11,9,Ticks_ISO_T2_8,7,9999,9999,9999,1072416884
63,11,9,Ticks_ISO_T2_8,8,9999,9999,9999,1073216624
63,11,9,Ticks_ISO_T2_8,9,9999,9999,9999,1074016352
63,11,9,Ticks_ISO_T2_8,10,9999,9999,9999,1074816088
63,11,9,Ticks_ISO_T2_8,11,9999,9999,9999,1075616872
63,11,9,Ticks_ISO_T2_8,12,9999,9999,9999,1076416604
63,11,9,Ticks_ISO_T2_8,13,9999,9999,9999,1077216332
63,11,9,Ticks_ISO_T2_8,14,9999,9999,9999,1078016068
63,11,9,Ticks_ISO_T2_8,15,9999,9999,9999,1078816868
63,11,9,Ticks_ISO_T2_8,16,9999,9999,9999,1079616604
63,11,9,Ticks_ISO_T2_8,17,9999,9999,9999,1080416336
63,11,9,Ticks_ISO_T2_8,18,9999,9999,9999,1081216072
63,11,9,Ticks_ISO_T2_8,19,9999,9999,9999,1082016852
63,11,9,Ticks_ISO_T2_8,20,9999,9999,9999,1082816584
63,11,9,Ticks_ISO_T2_8,21,9999,9999,9999,1083616320
63,11,9,Ticks_ISO_T2_8,22,9999,9999,9999,1084416052
63,11,9,Ticks_ISO_T2_8,23,9999,9999,9999,1085216860
63,11,9,Ticks_ISO_T2_8,24,9999,9999,9999,1086016592
63,11,9,Ticks_ISO_T2_8,25,9999,9999,9999,1086816324
63,11,9,Ticks_ISO_T2_8,26,9999,9999,9999,1087616064
63,11,9,Ticks_ISO_T2_8,27,9999,9999,9999,1088416836
63,11,9,Ticks_ISO_T2_8,28,9999,9999,9999,1089216572
63,11,9,Ticks_ISO_T2_8,29,9999,9999,9999,1090016308
63,11,9,Ticks_ISO_T2_8,30,9999,9999,9999,1090816116
63,11,9,Ticks_ISO_T2_8,31,9999,9999,9999,1091616844
63,11,9,Ticks_ISO_T2_8,32,9999,9999,9999,1092416576
63,11,9,Ticks_ISO_T2_8,33,9999,9999,9999,1093216312
63,11,9,Ticks_ISO_T2_8,34,9999,9999,9999,1094016120
63,11,9,Ticks_ISO_T2_8,35,9999,9999,9999,1094816824
63,11,9,Ticks_ISO_T2_8,36,9999,9999,9999,1095616560
63,11,9,Ticks_ISO_T2_8,37,9999,9999,9999,1096416368
63,11,9,Ticks_ISO_T2_8,38,9999,9999,9999,1097216108
63,11,9,Ticks_ISO_T2_8,39,9999,9999,9999,1098016832
63,11,9,Ticks_ISO_T2_8,40,9999,9999,9999,1098816564
63,11,9,Ticks_ISO_T2_8,41,9999,9999,9999,1099616372
63,11,9,Ticks_ISO_T2_8,42,9999,9999,9999,1100416104
63,11,9,Ticks_ISO_T2_8,43,9999,9999,9999,1101216884
63,11,9,Ticks_ISO_T2_8,44,9999,9999,9999,1102016620
63,11,9,Ticks_ISO_T2_8,45,9999,9999,9999,1102816352
63,11,9,Ticks_ISO_T2_8,46,9999,9999,9999,1103616084
63,11,9,Ticks_ISO_T2_8,47,9999,9999,9999,1104416888
63,11,9,Ticks_ISO_T2_8,48,9999,9999,9999,1105216624
63,11,9,Ticks_ISO_T2_8,49,9999,9999,9999,1106016356
63,11,9,Ticks_ISO_T2_8,50,9999,9999,9999,1106816088
63,11,9,Ticks_ISO_T2_8,51,9999,9999,9999,1107616868
63,11,9,Ticks_ISO_T2_8,52,9999,9999,9999,1108416600
63,11,9,Ticks_ISO_T2_8,53,9999,9999,9999,1109216340
63,11,9,Ticks_ISO_T2_8,54,9999,9999,9999,1110016076
63,11,9,Ticks_ISO_T2_8,55,9999,9999,9999,1110816872
63,11,9,Ticks_ISO_T2_8,56,9999,9999,9999,1111616608
63,11,9,Ticks_ISO_T2_8,57,9999,9999,9999,1112416340
63,11,9,Ticks_ISO_T2_8,58,9999,9999,9999,1113216072
63,11,9,Ticks_ISO_T2_8,59,9999,9999,9999,1114016852
63,11,9,Ticks_ISO_T2_8,60,9999,9999,9999,1114816592
63,11,9,Ticks_ISO_T2_8,61,9999,9999,9999,1115616324
63,11,9,Ticks_ISO_T2_8,62,9999,9999,9999,1116416052
63,11,9,Ticks_ISO_T2_8,63,9999,9999,9999,1117216860
63,11,9,Ticks_ISO_T2_8,64,9999,9999,9999,1118016592
63,11,9,Ticks_ISO_T2_8,65,9999,9999,9999,1118816332
63,11,9,Ticks_ISO_T2_8,66,9999,9999,9999,1119616056
63,11,9,Ticks_ISO_T2_8,67,9999,9999,9999,1120416844
63,11,9,Ticks_ISO_T2_8,68,9999,9999,9999,1121216572
63,11,9,Ticks_ISO_T2_8,69,9999,9999,9999,1122016312
63,11,9,Ticks_ISO_T2_8,70,9999,9999,9999,1122816112
63,11,9,Ticks_ISO_T2_8,71,9999,9999,9999,1123616840
63,11,9,Ticks_ISO_T2_8,72,9999,9999,9999,1124416572
63,11,9,Ticks_ISO_T2_8,73,9999,9999,9999,1125216316
63,11,9,Ticks_ISO_T2_8,74,9999,9999,9999,1126016116
63,11,9,Ticks_ISO_T2_8,75,9999,9999,9999,1126816820
63,11,9,Ticks_ISO_T2_8,76,9999,9999,9999,1127616560
63,11,9,Ticks_ISO_T2_8,77,9999,9999,9999,1128416368
63,11,9,Ticks_ISO_T2_8,78,9999,9999,9999,1129216096
63,11,9,Ticks_ISO_T2_8,79,9999,9999,9999,1130016832
63,11,9,Ticks_ISO_T2_8,80,9999,9999,9999,1130816632
63,11,9,Ticks_ISO_T2_8,81,9999,9999,9999,1131616372
63,11,9,Ticks_ISO_T2_8,82,9999,9999,9999,1132416100
63,11,9,Ticks_ISO_T2_8,83,9999,9999,9999,1133216880
63,11,9,Ticks_ISO_T2_8,84,9999,9999,9999,1134016616
63,11,9,Ticks_ISO_T2_8,85,9999,9999,9999,1134816352
63,11,9,Ticks_ISO_T2_8,86,9999,9999,9999,1135616080
63,11,9,Ticks_ISO_T2_8,87,9999,9999,9999,1136416820
63,11,9,Ticks_ISO_T2_8,88,9999,9999,9999,1137216620
63,11,9,Ticks_ISO_T2_8,89,9999,9999,9999,1138016312
63,11,9,Ticks_ISO_T2_8,90,9999,9999,9999,1138816092
63,11,9,Ticks_ISO_T2_8,91,9999,9999,9999,1139616872
63,11,9,Ticks_ISO_T2_8,92,9999,9999,9999,1140416604
63,11,9,Ticks_ISO_T2_8,93,9999,9999,9999,1141216344
63,11,9,Ticks_ISO_T2_8,94,9999,9999,9999,1142016072
63,11,9,Ticks_ISO_T2_8,95,9999,9999,9999,1142816872
63,11,9,Ticks_ISO_T2_8,96,9999,9999,9999,1143616616
63,11,9,Ticks_ISO_T2_8,97,9999,9999,9999,1144416348
63,11,9,Ticks_ISO_T2_8,98,9999,9999,9999,1145216076
63,11,9,Ticks_ISO_T2_8,99,9999,9999,9999,1146016856
63,11,9,Ticks_ISO_T2_8,100,9999,9999,9999,1146816596
63,11,9,Ticks_ISO_T2_8,101,9999,9999,9999,1147616320
63,11,9,Ticks_ISO_T2_8,102,9999,9999,9999,1148416056
63,11,9,Ticks_ISO_T2_8,103,9999,9999,9999,1149216860
63,11,9,Ticks_ISO_T2_8,104,9999,9999,9999,1150016600
63,11,9,Ticks_ISO_T2_8,105,9999,9999,9999,1150816328
63,11,9,Ticks_ISO_T2_8,106,9999,9999,9999,1151616060
63,11,9,Ticks_ISO_T2_8,107,9999,9999,9999,1152416840
63,11,9,Ticks_ISO_T2_8,108,9999,9999,9999,1153216580
63,11,9,Ticks_ISO_T2_8,109,9999,9999,9999,1154016308
63,11,9,Ticks_ISO_T2_8,110,9999,9999,9999,1154816112
63,11,9,Ticks_ISO_T2_8,111,9999,9999,9999,1155616844
63,11,9,Ticks_ISO_T2_8,112,9999,9999,9999,1156416584
63,11,9,Ticks_ISO_T2_8,113,9999,9999,9999,1157216320
63,11,9,Ticks_ISO_T2_8,114,9999,9999,9999,1158016120
63,11,9,Ticks_ISO_T2_8,115,9999,9999,9999,1158816824
63,11,9,Ticks_ISO_T2_8,116,9999,9999,9999,1159616568
63,11,9,Ticks_ISO_T2_8,117,9999,9999,9999,1160416372
63,11,9,Ticks_ISO_T2_8,118,9999,9999,9999,1161216100
63,11,9,Ticks_ISO_T2_8,119,9999,9999,9999,1162016832
63,12,25,Jits_Pract_5,0,5,56,103,1211088152
63,12,25,Jits_Pract_5,1,5,63,98,1211091172
63,12,25,Jits_Pract_5,2,5,80,127,1211094296
63,12,25,Jits_Pract_5,0,5,56,103,1211588024
63,12,25,Jits_Pract_5,1,5,63,98,1211591124
63,12,25,Jits_Pract_5,2,5,80,127,1211594168
63,12,25,Jits_Pract_5,0,5,56,103,1212087916
63,12,25,Jits_Pract_5,1,5,80,127,1212097888
63,12,25,Jits_Pract_5,2,5,63,98,1212118276
63,12,25,Jits_Pract_5,0,5,63,98,1212538220
63,12,25,Jits_Pract_5,1,5,80,127,1212567892
63,12,25,Jits_Pract_5,2,5,56,103,1212578164
63,12,25,Jits_Pract_5,3,1,48,54,1212658668
63,12,25,Jits_Pract_5,0,5,80,127,1213098440
63,12,25,Jits_Pract_5,1,5,56,103,1213107740
63,12,25,Jits_Pract_5,2,1,48,52,1213113172
63,12,25,Jits_Pract_5,3,5,63,98,1213138304
63,12,25,Jits_Pract_5,0,5,63,98,1213587888
63,12,25,Jits_Pract_5,1,5,56,103,1213617640
63,12,25,Jits_Pract_5,2,5,80,127,1213627984
63,12,25,Jits_Pract_5,3,1,48,44,1213645852
63,12,25,Jits_Pract_5,0,5,56,103,1214038580
63,12,25,Jits_Pract_5,1,5,63,98,1214087740
63,12,25,Jits_Pract_5,2,5,80,127,1214107900
63,12,25,Jits_Pract_5,3,1,48,44,1214127208
63,12,25,Jits_Pract_5,0,5,80,127,1214548480
63,12,25,Jits_Pract_5,1,5,63,98,1214597708
63,12,25,Jits_Pract_5,2,1,48,45,1214617620
63,12,25,Jits_Pract_5,3,5,56,103,1214637564
63,12,25,Jits_Pract_5,0,5,56,103,1215048036
63,12,25,Jits_Pract_5,1,5,63,98,1215077860
63,12,25,Jits_Pract_5,2,5,80,127,1215148436
63,12,25,Jits_Pract_5,3,1,48,46,1215155140
63,12,25,Jits_Pract_5,0,5,56,103,1215547816
63,12,25,Jits_Pract_5,1,1,48,45,1215596116
63,12,25,Jits_Pract_5,2,5,80,127,1215608348
63,12,25,Jits_Pract_5,3,5,63,98,1215637804
63,12,25,Jits_Pract_5,0,5,56,103,1216057564
63,12,25,Jits_Pract_5,1,5,63,98,1216067908
63,12,25,Jits_Pract_5,2,1,48,46,1216086768
63,12,25,Jits_Pract_5,3,5,80,127,1216107768
63,12,25,Jits_Pract_5,0,5,63,98,1216548348
63,12,25,Jits_Pract_5,1,1,48,51,1216580988
63,12,25,Jits_Pract_5,2,5,80,127,1216627992
63,12,25,Jits_Pract_5,3,5,56,103,1216638188
63,12,25,Jits_Pract_5,0,5,63,98,1217098164
63,12,25,Jits_Pract_5,1,1,48,39,1217123676
63,12,25,Jits_Pract_5,2,5,56,103,1217138092
63,12,25,Jits_Pract_5,3,5,80,127,1217141084
63,12,25,Jits_Pract_5,0,5,56,103,1217557816
63,12,25,Jits_Pract_5,1,5,63,98,1217568112
63,12,25,Jits_Pract_5,2,5,80,127,1217608048
63,12,25,Jits_Pract_5,3,1,48,40,1217638212
63,12,25,Jits_Pract_5,0,5,56,103,1218048524
63,12,25,Jits_Pract_5,1,5,63,98,1218051444
63,12,25,Jits_Pract_5,2,5,80,127,1218067788
63,12,25,Jits_Pract_5,3,1,48,45,1218105476
63,12,25,Jits_Pract_5,0,9999,9999,9999,1211335736
63,12,25,Jits_Pract_5,1,9999,9999,9999,1211835460
63,12,25,Jits_Pract_5,2,9999,9999,9999,1212335208
63,12,25,Jits_Pract_5,3,9999,9999,9999,1212835900
63,12,25,Jits_Pract_5,4,9999,9999,9999,1213335672
63,12,25,Jits_Pract_5,5,9999,9999,9999,1213835380
63,12,25,Jits_Pract_5,6,9999,9999,9999,1214336120
63,12,25,Jits_Pract_5,7,9999,9999,9999,1214846020
63,12,25,Jits_Pract_5,8,9999,9999,9999,1215345724
63,12,25,Jits_Pract_5,9,9999,9999,9999,1215845432
63,12,25,Jits_Pract_5,10,9999,9999,9999,1216345208
63,12,25,Jits_Pract_5,11,9999,9999,9999,1216845888
63,12,25,Jits_Pract_5,12,9999,9999,9999,1217345648
63,12,25,Jits_Pract_5,13,9999,9999,9999,1217845336
63,12,25,Jits_Pract_5,14,9999,9999,9999,1218346076
63,13,25,Jits_Pract_5,0,5,56,103,1268180444
63,13,25,Jits_Pract_5,1,5,63,98,1268183544
63,13,25,Jits_Pract_5,2,5,80,127,1268186816
63,13,25,Jits_Pract_5,0,5,56,103,1268680172
63,13,25,Jits_Pract_5,1,5,63,98,1268683272
63,13,25,Jits_Pract_5,2,5,80,127,1268686616
63,13,25,Jits_Pract_5,0,5,56,103,1269179692
63,13,25,Jits_Pract_5,1,5,80,127,1269189960
63,13,25,Jits_Pract_5,2,5,63,98,1269209596
63,13,25,Jits_Pract_5,0,5,63,98,1269630436
63,13,25,Jits_Pract_5,1,5,80,127,1269659888
63,13,25,Jits_Pract_5,2,5,56,103,1269670380
63,13,25,Jits_Pract_5,3,1,48,46,1269709164
63,13,25,Jits_Pract_5,0,1,48,48,1270146120
63,13,25,Jits_Pract_5,1,5,80,127,1270189532
63,13,25,Jits_Pract_5,2,5,56,103,1270199876
63,13,25,Jits_Pract_5,3,5,63,98,1270230300
63,13,25,Jits_Pract_5,0,5,63,98,1270679944
63,13,25,Jits_Pract_5,1,5,56,103,1270709544
63,13,25,Jits_Pract_5,2,5,80,127,1270719816
63,13,25,Jits_Pract_5,3,1,48,48,1270749460
63,13,25,Jits_Pract_5,0,5,56,103,1271129592
63,13,25,Jits_Pract_5,1,5,63,98,1271179572
63,13,25,Jits_Pract_5,2,5,80,127,1271200256
63,13,25,Jits_Pract_5,3,1,48,46,1271222776
63,13,25,Jits_Pract_5,0,5,80,127,1271630272
63,13,25,Jits_Pract_5,1,5,63,98,1271680328
63,13,25,Jits_Pract_5,2,5,56,103,1271720412
63,13,25,Jits_Pract_5,0,5,56,103,1272129864
63,13,25,Jits_Pract_5,1,5,63,98,1272159540
63,13,25,Jits_Pract_5,2,5,80,127,1272230416
63,13,25,Jits_Pract_5,0,5,56,103,1272629536
63,13,25,Jits_Pract_5,1,5,80,127,1272690076
63,13,25,Jits_Pract_5,2,5,63,98,1272719828
63,13,25,Jits_Pract_5,0,5,56,103,1273139544
63,13,25,Jits_Pract_5,1,5,63,98,1273149964
63,13,25,Jits_Pract_5,2,5,80,127,1273189604
63,13,25,Jits_Pract_5,0,5,63,98,1273629992
63,13,25,Jits_Pract_5,1,5,80,127,1273710012
63,13,25,Jits_Pract_5,2,5,56,103,1273720432
63,13,25,Jits_Pract_5,0,5,63,98,1274180148
63,13,25,Jits_Pract_5,1,5,56,103,1274219860
63,13,25,Jits_Pract_5,2,5,80,127,1274222852
63,13,25,Jits_Pract_5,0,5,56,103,1274639616
63,13,25,Jits_Pract_5,1,5,63,98,1274649836
63,13,25,Jits_Pract_5,2,5,80,127,1274689848
63,13,25,Jits_Pract_5,0,5,56,103,1275130288
63,13,25,Jits_Pract_5,1,5,63,98,1275133352
63,13,25,Jits_Pract_5,2,5,80,127,1275149552
63,13,25,Jits_Pract_5,0,9999,9999,9999,1268427884
63,13,25,Jits_Pract_5,1,9999,9999,9999,1268927608
63,13,25,Jits_Pract_5,2,9999,9999,9999,1269427280
63,13,25,Jits_Pract_5,3,9999,9999,9999,1269928044
63,13,25,Jits_Pract_5,4,9999,9999,9999,1270427744
63,13,25,Jits_Pract_5,5,9999,9999,9999,1270927440
63,13,25,Jits_Pract_5,6,9999,9999,9999,1271427132
63,13,25,Jits_Pract_5,7,9999,9999,9999,1271927908
63,13,25,Jits_Pract_5,8,9999,9999,9999,1272427576
63,13,25,Jits_Pract_5,9,9999,9999,9999,1272927320
63,13,25,Jits_Pract_5,10,9999,9999,9999,1273428036
63,13,25,Jits_Pract_5,11,9999,9999,9999,1273927780
63,13,25,Jits_Pract_5,12,9999,9999,9999,1274427508
63,13,25,Jits_Pract_5,13,9999,9999,9999,1274927160
63,13,25,Jits_Pract_5,14,9999,9999,9999,1275427936
63,14,25,Jits_Pract_5,0,5,56,103,1292906088
63,14,25,Jits_Pract_5,1,5,63,98,1292909116
63,14,25,Jits_Pract_5,2,5,80,127,1292912236
63,14,25,Jits_Pract_5,0,5,56,103,1293405968
63,14,25,Jits_Pract_5,1,5,63,98,1293408988
63,14,25,Jits_Pract_5,2,5,80,127,1293412108
63,14,25,Jits_Pract_5,0,1,48,42,1293905152
63,14,25,Jits_Pract_5,1,5,56,103,1293915440
63,14,25,Jits_Pract_5,2,5,80,127,1293925860
63,14,25,Jits_Pract_5,3,5,63,98,1293946320
63,14,25,Jits_Pract_5,0,5,63,98,1294366068
63,14,25,Jits_Pract_5,1,5,80,127,1294395968
63,14,25,Jits_Pract_5,2,5,56,103,1294405940
63,14,25,Jits_Pract_5,3,1,48,44,1294414232
63,14,25,Jits_Pract_5,0,1,48,47,1294894796
63,14,25,Jits_Pract_5,1,5,80,127,1294926060
63,14,25,Jits_Pract_5,2,5,56,103,1294936556
63,14,25,Jits_Pract_5,3,5,63,98,1294966004
63,14,25,Jits_Pract_5,0,5,63,98,1295415872
63,14,25,Jits_Pract_5,1,1,48,45,1295416836
63,14,25,Jits_Pract_5,2,5,56,103,1295446440
63,14,25,Jits_Pract_5,3,5,80,127,1295455808
63,14,25,Jits_Pract_5,0,5,56,103,1295866240
63,14,25,Jits_Pract_5,1,5,63,98,1295916320
63,14,25,Jits_Pract_5,2,1,48,49,1295933288
63,14,25,Jits_Pract_5,3,5,80,127,1295935872
63,14,25,Jits_Pract_5,0,5,80,127,1296365944
63,14,25,Jits_Pract_5,1,1,48,45,1296415876
63,14,25,Jits_Pract_5,2,5,63,98,1296417288
63,14,25,Jits_Pract_5,3,5,56,103,1296456028
63,14,25,Jits_Pract_5,0,5,56,103,1296865724
63,14,25,Jits_Pract_5,1,5,63,98,1296896448
63,14,25,Jits_Pract_5,2,1,48,44,1296935484
63,14,25,Jits_Pract_5,3,5,80,127,1296966072
63,14,25,Jits_Pract_5,0,5,56,103,1297366324
63,14,25,Jits_Pract_5,1,1,48,42,1297407580
63,14,25,Jits_Pract_5,2,5,80,127,1297425808
63,14,25,Jits_Pract_5,3,5,63,98,1297455584
63,14,25,Jits_Pract_5,0,5,56,103,1297885660
63,14,25,Jits_Pract_5,1,5,63,98,1297895784
63,14,25,Jits_Pract_5,2,5,80,127,1297935648
63,14,25,Jits_Pract_5,3,1,48,38,1297947552
63,14,25,Jits_Pract_5,0,5,63,98,1298376000
63,14,25,Jits_Pract_5,1,1,48,50,1298418904
63,14,25,Jits_Pract_5,2,5,80,127,1298455888
63,14,25,Jits_Pract_5,3,5,56,103,1298466084
63,14,25,Jits_Pract_5,0,5,63,98,1298925816
63,14,25,Jits_Pract_5,1,1,48,50,1298927228
63,14,25,Jits_Pract_5,2,5,56,103,1298965844
63,14,25,Jits_Pract_5,3,5,80,127,1298968988
63,14,25,Jits_Pract_5,0,5,56,103,1299385716
63,14,25,Jits_Pract_5,1,5,63,98,1299395912
63,14,25,Jits_Pract_5,2,1,48,49,1299415296
63,14,25,Jits_Pract_5,3,5,80,127,1299435844
63,14,25,Jits_Pract_5,0,5,56,103,1299876204
63,14,25,Jits_Pract_5,1,5,63,98,1299879196
63,14,25,Jits_Pract_5,2,1,48,51,1299888908
63,14,25,Jits_Pract_5,3,5,80,127,1299895608
63,14,25,Jits_Pract_5,0,9999,9999,9999,1293153380
63,14,25,Jits_Pract_5,1,9999,9999,9999,1293654076
63,14,25,Jits_Pract_5,2,9999,9999,9999,1294164064
63,14,25,Jits_Pract_5,3,9999,9999,9999,1294663752
63,14,25,Jits_Pract_5,4,9999,9999,9999,1295163448
63,14,25,Jits_Pract_5,5,9999,9999,9999,1295663216
63,14,25,Jits_Pract_5,6,9999,9999,9999,1296163952
63,14,25,Jits_Pract_5,7,9999,9999,9999,1296663660
63,14,25,Jits_Pract_5,8,9999,9999,9999,1297163340
63,14,25,Jits_Pract_5,9,9999,9999,9999,1297664088
63,14,25,Jits_Pract_5,10,9999,9999,9999,1298174056
63,14,25,Jits_Pract_5,11,9999,9999,9999,1298673764
63,14,25,Jits_Pract_5,12,9999,9999,9999,1299173452
63,14,25,Jits_Pract_5,13,9999,9999,9999,1299673140
63,14,25,Jits_Pract_5,14,9999,9999,9999,1300173876
63,15,24,Jits_Pract_8,0,5,56,103,1307085124
63,15,24,Jits_Pract_8,1,5,63,98,1307088296
63,15,24,Jits_Pract_8,2,5,80,127,1307091420
63,15,24,Jits_Pract_8,0,5,56,103,1307884840
63,15,24,Jits_Pract_8,1,5,63,98,1307887864
63,15,24,Jits_Pract_8,2,5,80,127,1307891060
63,15,24,Jits_Pract_8,0,5,80,127,1308625380
63,15,24,Jits_Pract_8,1,1,48,55,1308680716
63,15,24,Jits_Pract_8,2,5,63,98,1308715384
63,15,24,Jits_Pract_8,3,5,56,103,1308724532
63,15,24,Jits_Pract_8,0,5,56,103,1309444560
63,15,24,Jits_Pract_8,1,5,63,98,1309454904
63,15,24,Jits_Pract_8,2,1,48,32,1309465544
63,15,24,Jits_Pract_8,3,5,80,127,1309544684
63,15,24,Jits_Pract_8,0,1,48,54,1310205488
63,15,24,Jits_Pract_8,1,5,63,98,1310214580
63,15,24,Jits_Pract_8,2,5,80,127,1310245404
63,15,24,Jits_Pract_8,3,5,56,103,1310274928
63,15,24,Jits_Pract_8,0,5,56,103,1311015336
63,15,24,Jits_Pract_8,1,1,48,59,1311044760
63,15,24,Jits_Pract_8,2,5,80,127,1311114532
63,15,24,Jits_Pract_8,3,5,63,98,1311164864
63,15,24,Jits_Pract_8,0,5,56,103,1311815108
63,15,24,Jits_Pract_8,1,5,80,127,1311865532
63,15,24,Jits_Pract_8,2,5,63,98,1311905320
63,15,24,Jits_Pract_8,3,1,48,54,1311920576
63,15,24,Jits_Pract_8,0,5,80,127,1312644620
63,15,24,Jits_Pract_8,1,1,48,54,1312646412
63,15,24,Jits_Pract_8,2,5,63,98,1312675336
63,15,24,Jits_Pract_8,3,5,56,103,1312744776
63,15,24,Jits_Pract_8,0,5,63,98,1313474880
63,15,24,Jits_Pract_8,1,1,48,52,1313497112
63,15,24,Jits_Pract_8,2,5,56,103,1313504552
63,15,24,Jits_Pract_8,3,5,80,127,1313565336
63,15,24,Jits_Pract_8,0,5,56,103,1314215296
63,15,24,Jits_Pract_8,1,5,80,127,1314218292
63,15,24,Jits_Pract_8,2,1,48,57,1314323780
63,15,24,Jits_Pract_8,3,5,63,98,1314335260
63,15,24,Jits_Pract_8,0,1,48,52,1315068068
63,15,24,Jits_Pract_8,1,5,56,103,1315094864
63,15,24,Jits_Pract_8,2,5,80,127,1315134952
63,15,24,Jits_Pract_8,3,5,63,98,1315145148
63,15,24,Jits_Pract_8,0,5,56,103,1315854676
63,15,24,Jits_Pract_8,1,5,80,127,1315875456
63,15,24,Jits_Pract_8,2,1,48,62,1315876720
63,15,24,Jits_Pract_8,3,5,63,98,1315955020
63,15,24,Jits_Pract_8,0,5,80,127,1316645328
63,15,24,Jits_Pract_8,1,1,48,55,1316717604
63,15,24,Jits_Pract_8,2,5,56,103,1316744448
63,15,24,Jits_Pract_8,3,5,63,98,1316754720
63,15,24,Jits_Pract_8,0,5,63,98,1317415284
63,15,24,Jits_Pract_8,1,5,80,127,1317474632
63,15,24,Jits_Pract_8,2,5,56,103,1317485048
63,15,24,Jits_Pract_8,3,1,48,53,1317544580
63,15,24,Jits_Pract_8,0,5,56,103,1318215108
63,15,24,Jits_Pract_8,1,1,48,53,1318216596
63,15,24,Jits_Pract_8,2,5,63,98,1318284552
63,15,24,Jits_Pract_8,3,5,80,127,1318288000
63,15,24,Jits_Pract_8,0,9999,9999,9999,1307482184
63,15,24,Jits_Pract_8,1,9999,9999,9999,1308282944
63,15,24,Jits_Pract_8,2,9999,9999,9999,1309082732
63,15,24,Jits_Pract_8,3,9999,9999,9999,1309882432
63,15,24,Jits_Pract_8,4,9999,9999,9999,1310682196
63,15,24,Jits_Pract_8,5,9999,9999,9999,1311483004
63,15,24,Jits_Pract_8,6,9999,9999,9999,1312282720
63,15,24,Jits_Pract_8,7,9999,9999,9999,1313082488
63,15,24,Jits_Pract_8,8,9999,9999,9999,1313882188
63,15,24,Jits_Pract_8,9,9999,9999,9999,1314682976
63,15,24,Jits_Pract_8,10,9999,9999,9999,1315482676
63,15,24,Jits_Pract_8,11,9999,9999,9999,1316282432
63,15,24,Jits_Pract_8,12,9999,9999,9999,1317082208
63,15,24,Jits_Pract_8,13,9999,9999,9999,1317882944
63,15,24,Jits_Pract_8,14,9999,9999,9999,1318682712
63,16,17,Jits_Phase_5,0,5,56,103,1336330748
63,16,17,Jits_Phase_5,1,5,63,98,1336333920
63,16,17,Jits_Phase_5,2,5,80,127,1336337116
63,16,17,Jits_Phase_5,0,5,56,103,1336831352
63,16,17,Jits_Phase_5,1,5,63,98,1336834300
63,16,17,Jits_Phase_5,2,5,80,127,1336837720
63,16,17,Jits_Phase_5,0,5,56,103,1337331004
63,16,17,Jits_Phase_5,1,5,80,127,1337341424
63,16,17,Jits_Phase_5,2,1,48,50,1337347756
63,16,17,Jits_Phase_5,3,5,63,98,1337360976
63,16,17,Jits_Phase_5,0,5,63,98,1337780724
63,16,17,Jits_Phase_5,1,5,80,127,1337811220
63,16,17,Jits_Phase_5,2,1,48,58,1337814784
63,16,17,Jits_Phase_5,3,5,56,103,1337820736
63,16,17,Jits_Phase_5,0,1,48,62,1338276012
63,16,17,Jits_Phase_5,1,5,80,127,1338340920
63,16,17,Jits_Phase_5,2,5,56,103,1338350964
63,16,17,Jits_Phase_5,3,5,63,98,1338380924
63,16,17,Jits_Phase_5,0,1,48,51,1338824384
63,16,17,Jits_Phase_5,1,5,63,98,1338831232
63,16,17,Jits_Phase_5,2,5,56,103,1338860904
63,16,17,Jits_Phase_5,3,5,80,127,1338871028
63,16,17,Jits_Phase_5,0,5,56,103,1339280868
63,16,17,Jits_Phase_5,1,5,63,98,1339330844
63,16,17,Jits_Phase_5,2,5,80,127,1339351600
63,16,17,Jits_Phase_5,3,1,48,54,1339371656
63,16,17,Jits_Phase_5,0,5,80,127,1339780480
63,16,17,Jits_Phase_5,1,5,63,98,1339830608
63,16,17,Jits_Phase_5,2,1,48,50,1339866832
63,16,17,Jits_Phase_5,3,5,56,103,1339870760
63,16,17,Jits_Phase_5,0,5,56,103,1340281140
63,16,17,Jits_Phase_5,1,5,63,98,1340310892
63,16,17,Jits_Phase_5,2,1,48,59,1340363828
63,16,17,Jits_Phase_5,3,5,80,127,1340380636
63,16,17,Jits_Phase_5,0,5,56,103,1340781056
63,16,17,Jits_Phase_5,1,1,48,50,1340839628
63,16,17,Jits_Phase_5,2,5,80,127,1340841288
63,16,17,Jits_Phase_5,3,5,63,98,1340870964
63,16,17,Jits_Phase_5,0,5,56,103,1341290860
63,16,17,Jits_Phase_5,1,5,63,98,1341301204
63,16,17,Jits_Phase_5,2,1,48,53,1341327396
63,16,17,Jits_Phase_5,3,5,80,127,1341341060
63,16,17,Jits_Phase_5,0,5,63,98,1341781556
63,16,17,Jits_Phase_5,1,1,48,59,1341802736
63,16,17,Jits_Phase_5,2,5,80,127,1341861340
63,16,17,Jits_Phase_5,3,5,56,103,1341870492
63,16,17,Jits_Phase_5,0,1,48,51,1342320536
63,16,17,Jits_Phase_5,1,5,63,98,1342331200
63,16,17,Jits_Phase_5,2,5,56,103,1342371136
63,16,17,Jits_Phase_5,3,5,80,127,1342374200
63,16,17,Jits_Phase_5,0,5,56,103,1342791016
63,16,17,Jits_Phase_5,1,5,63,98,1342801212
63,16,17,Jits_Phase_5,2,1,48,59,1342830256
63,16,17,Jits_Phase_5,3,5,80,127,1342841140
63,16,17,Jits_Phase_5,0,5,56,103,1343280512
63,16,17,Jits_Phase_5,1,5,63,98,1343283652
63,16,17,Jits_Phase_5,2,5,80,127,1343301044
63,16,17,Jits_Phase_5,3,1,48,54,1343306408
63,16,17,Jits_Phase_5,0,5,80,127,1343790524
63,16,17,Jits_Phase_5,1,1,48,48,1343791492
63,16,17,Jits_Phase_5,2,5,56,103,1343800716
63,16,17,Jits_Phase_5,3,5,63,98,1343871436
63,16,17,Jits_Phase_5,0,5,63,98,1344281068
63,16,17,Jits_Phase_5,1,5,56,103,1344301380
63,16,17,Jits_Phase_5,2,1,48,56,1344308088
63,16,17,Jits_Phase_5,3,5,80,127,1344381236
63,16,17,Jits_Phase_5,0,5,56,103,1344790856
63,16,17,Jits_Phase_5,1,1,48,54,1344805584
63,16,17,Jits_Phase_5,2,5,80,127,1344830788
63,16,17,Jits_Phase_5,3,5,63,98,1344841056
63,16,17,Jits_Phase_5,0,5,80,127,1345281376
63,16,17,Jits_Phase_5,1,5,63,98,1345311228
63,16,17,Jits_Phase_5,2,1,48,54,1345313092
63,16,17,Jits_Phase_5,3,5,56,103,1345351008
63,16,17,Jits_Phase_5,0,5,56,103,1345810904
63,16,17,Jits_Phase_5,1,1,48,51,1345814920
63,16,17,Jits_Phase_5,2,5,63,98,1345840572
63,16,17,Jits_Phase_5,3,5,80,127,1345890916
63,16,17,Jits_Phase_5,0,5,80,127,1346310788
63,16,17,Jits_Phase_5,1,5,56,103,1346350528
63,16,17,Jits_Phase_5,2,1,48,51,1346354768
63,16,17,Jits_Phase_5,3,5,63,98,1346360644
63,16,17,Jits_Phase_5,0,5,80,127,1346790696
63,16,17,Jits_Phase_5,1,5,63,98,1346830860
63,16,17,Jits_Phase_5,2,1,48,53,1346857224
63,16,17,Jits_Phase_5,3,5,56,103,1346891116
63,16,17,Jits_Phase_5,0,5,56,103,1347290460
63,16,17,Jits_Phase_5,1,5,80,127,1347300580
63,16,17,Jits_Phase_5,2,1,48,58,1347364772
63,16,17,Jits_Phase_5,3,5,63,98,1347380836
63,16,17,Jits_Phase_5,0,5,80,127,1347791116
63,16,17,Jits_Phase_5,1,5,63,98,1347850756
63,16,17,Jits_Phase_5,2,1,48,49,1347858632
63,16,17,Jits_Phase_5,3,5,56,103,1347881196
63,16,17,Jits_Phase_5,0,5,56,103,1348290880
63,16,17,Jits_Phase_5,1,5,80,127,1348351564
63,16,17,Jits_Phase_5,2,1,48,57,1348373216
63,16,17,Jits_Phase_5,3,5,63,98,1348391372
63,16,17,Jits_Phase_5,0,5,56,103,1348840840
63,16,17,Jits_Phase_5,1,1,48,49,1348847176
63,16,17,Jits_Phase_5,2,5,63,98,1348851100
63,16,17,Jits_Phase_5,3,5,80,127,1348854612
63,16,17,Jits_Phase_5,0,5,80,127,1349291592
63,16,17,Jits_Phase_5,1,1,48,47,1349325500
63,16,17,Jits_Phase_5,2,5,63,98,1349380744
63,16,17,Jits_Phase_5,3,5,56,103,1349390792
63,16,17,Jits_Phase_5,0,5,56,103,1349791116
63,16,17,Jits_Phase_5,1,5,63,98,1349794212
63,16,17,Jits_Phase_5,2,5,80,127,1349797560
63,16,17,Jits_Phase_5,3,1,48,52,1349852756
63,16,17,Jits_Phase_5,0,5,80,127,1350311176
63,16,17,Jits_Phase_5,1,1,48,48,1350348668
63,16,17,Jits_Phase_5,2,5,63,98,1350360620
63,16,17,Jits_Phase_5,3,5,56,103,1350391044
63,16,17,Jits_Phase_5,0,5,56,103,1350790640
63,16,17,Jits_Phase_5,1,5,80,127,1350800684
63,16,17,Jits_Phase_5,2,1,48,51,1350848596
63,16,17,Jits_Phase_5,3,5,63,98,1350871476
63,16,17,Jits_Phase_5,0,5,56,103,1351300440
63,16,17,Jits_Phase_5,1,1,48,51,1351314720
63,16,17,Jits_Phase_5,2,5,63,98,1351320892
63,16,17,Jits_Phase_5,3,5,80,127,1351381428
63,16,17,Jits_Phase_5,0,5,80,127,1351780580
63,16,17,Jits_Phase_5,1,1,48,56,1351799656
63,16,17,Jits_Phase_5,2,5,63,98,1351851668
63,16,17,Jits_Phase_5,3,5,56,103,1351870784
63,16,17,Jits_Phase_5,0,5,80,127,1352300868
63,16,17,Jits_Phase_5,1,1,48,44,1352302656
63,16,17,Jits_Phase_5,2,5,56,103,1352311356
63,16,17,Jits_Phase_5,3,5,63,98,1352321476
63,16,17,Jits_Phase_5,0,5,80,127,1352791636
63,16,17,Jits_Phase_5,1,1,48,52,1352798588
63,16,17,Jits_Phase_5,2,5,56,103,1352810892
63,16,17,Jits_Phase_5,3,5,63,98,1352880716
63,16,17,Jits_Phase_5,0,5,56,103,1353301512
63,16,17,Jits_Phase_5,1,5,80,127,1353331188
63,16,17,Jits_Phase_5,2,1,48,52,1353341724
63,16,17,Jits_Phase_5,3,5,63,98,1353350516
63,16,17,Jits_Phase_5,0,5,63,98,1353790788
63,16,17,Jits_Phase_5,1,1,48,55,1353835932
63,16,17,Jits_Phase_5,2,5,56,103,1353851540
63,16,17,Jits_Phase_5,3,5,80,127,1353880916
63,16,17,Jits_Phase_5,0,5,63,98,1354281540
63,16,17,Jits_Phase_5,1,5,80,127,1354284832
63,16,17,Jits_Phase_5,2,1,48,58,1354324068
63,16,17,Jits_Phase_5,3,5,56,103,1354370468
63,16,17,Jits_Phase_5,0,5,56,103,1354800388
63,16,17,Jits_Phase_5,1,5,63,98,1354831332
63,16,17,Jits_Phase_5,2,1,48,54,1354850116
63,16,17,Jits_Phase_5,3,5,80,127,1354871336
63,16,17,Jits_Phase_5,0,5,63,98,1355301492
63,16,17,Jits_Phase_5,1,1,48,55,1355326040
63,16,17,Jits_Phase_5,2,5,56,103,1355341052
63,16,17,Jits_Phase_5,3,5,80,127,1355360612
63,16,17,Jits_Phase_5,0,1,48,53,1355775632
63,16,17,Jits_Phase_5,1,5,63,98,1355811128
63,16,17,Jits_Phase_5,2,5,56,103,1355851216
63,16,17,Jits_Phase_5,3,5,80,127,1355861632
63,16,17,Jits_Phase_5,0,1,48,52,1356268880
63,16,17,Jits_Phase_5,1,5,80,127,1356290552
63,16,17,Jits_Phase_5,2,5,63,98,1356361004
63,16,17,Jits_Phase_5,3,5,56,103,1356380476
63,16,17,Jits_Phase_5,0,5,56,103,1356780944
63,16,17,Jits_Phase_5,1,1,48,49,1356801028
63,16,17,Jits_Phase_5,2,5,80,127,1356802516
63,16,17,Jits_Phase_5,3,5,63,98,1356841428
63,16,17,Jits_Phase_5,0,5,63,98,1357290892
63,16,17,Jits_Phase_5,1,5,80,127,1357311276
63,16,17,Jits_Phase_5,2,1,48,51,1357315368
63,16,17,Jits_Phase_5,3,5,56,103,1357351452
63,16,17,Jits_Phase_5,0,5,63,98,1357790556
63,16,17,Jits_Phase_5,1,5,56,103,1357811012
63,16,17,Jits_Phase_5,2,5,80,127,1357821284
63,16,17,Jits_Phase_5,3,1,48,43,1357822620
63,16,17,Jits_Phase_5,0,5,80,127,1358291496
63,16,17,Jits_Phase_5,1,1,48,55,1358307272
63,16,17,Jits_Phase_5,2,5,56,103,1358310904
63,16,17,Jits_Phase_5,3,5,63,98,1358340724
63,16,17,Jits_Phase_5,0,1,48,57,1358802988
63,16,17,Jits_Phase_5,1,5,56,103,1358860628
63,16,17,Jits_Phase_5,2,5,80,127,1358863916
63,16,17,Jits_Phase_5,3,5,63,98,1358881112
63,16,17,Jits_Phase_5,0,5,63,98,1359280592
63,16,17,Jits_Phase_5,1,5,56,103,1359311384
63,16,17,Jits_Phase_5,2,1,48,56,1359339984
63,16,17,Jits_Phase_5,3,5,80,127,1359370644
63,16,17,Jits_Phase_5,0,1,48,51,1359818576
63,16,17,Jits_Phase_5,1,5,63,98,1359861392
63,16,17,Jits_Phase_5,2,5,56,103,1359871588
63,16,17,Jits_Phase_5,3,5,80,127,1359880512
63,16,17,Jits_Phase_5,0,1,48,53,1360318332
63,16,17,Jits_Phase_5,1,5,56,103,1360320844
63,16,17,Jits_Phase_5,2,5,80,127,1360350520
63,16,17,Jits_Phase_5,3,5,63,98,1360360936
63,16,17,Jits_Phase_5,0,1,48,50,1360821768
63,16,17,Jits_Phase_5,1,5,63,98,1360860528
63,16,17,Jits_Phase_5,2,5,56,103,1360870724
63,16,17,Jits_Phase_5,3,5,80,127,1360891332
63,16,17,Jits_Phase_5,0,5,56,103,1361290540
63,16,17,Jits_Phase_5,1,1,48,48,1361348868
63,16,17,Jits_Phase_5,2,5,63,98,1361350916
63,16,17,Jits_Phase_5,3,5,80,127,1361354284
63,16,17,Jits_Phase_5,0,5,80,127,1361810672
63,16,17,Jits_Phase_5,1,5,56,103,1361821016
63,16,17,Jits_Phase_5,2,1,48,48,1361840396
63,16,17,Jits_Phase_5,3,5,63,98,1361890608
63,16,17,Jits_Phase_5,0,5,80,127,1362301440
63,16,17,Jits_Phase_5,1,1,48,50,1362324040
63,16,17,Jits_Phase_5,2,5,56,103,1362370892
63,16,17,Jits_Phase_5,3,5,63,98,1362381308
63,16,17,Jits_Phase_5,0,1,48,53,1362818712
63,16,17,Jits_Phase_5,1,5,63,98,1362841056
63,16,17,Jits_Phase_5,2,5,56,103,1362851404
63,16,17,Jits_Phase_5,3,5,80,127,1362870664
63,16,17,Jits_Phase_5,0,5,80,127,1363290472
63,16,17,Jits_Phase_5,1,1,48,52,1363304676
63,16,17,Jits_Phase_5,2,5,63,98,1363350856
63,16,17,Jits_Phase_5,3,5,56,103,1363390864
63,16,17,Jits_Phase_5,0,1,48,51,1363830156
63,16,17,Jits_Phase_5,1,5,56,103,1363831576
63,16,17,Jits_Phase_5,2,5,63,98,1363841328
63,16,17,Jits_Phase_5,3,5,80,127,1363881484
63,16,17,Jits_Phase_5,0,5,56,103,1364291028
63,16,17,Jits_Phase_5,1,5,80,127,1364320552
63,16,17,Jits_Phase_5,2,1,48,51,1364332436
63,16,17,Jits_Phase_5,3,5,63,98,1364370672
63,16,17,Jits_Phase_5,0,5,56,103,1364830572
63,16,17,Jits_Phase_5,1,1,48,48,1364852644
63,16,17,Jits_Phase_5,2,5,63,98,1364870576
63,16,17,Jits_Phase_5,3,5,80,127,1364873792
63,16,17,Jits_Phase_5,0,5,56,103,1365331376
63,16,17,Jits_Phase_5,1,5,63,98,1365340524
63,16,17,Jits_Phase_5,2,1,48,49,1365347304
63,16,17,Jits_Phase_5,3,5,80,127,1365361272
63,16,17,Jits_Phase_5,0,5,56,103,1365791200
63,16,17,Jits_Phase_5,1,5,80,127,1365794192
63,16,17,Jits_Phase_5,2,1,48,51,1365810056
63,16,17,Jits_Phase_5,3,5,63,98,1365831204
63,16,17,Jits_Phase_5,0,1,48,51,1366277100
63,16,17,Jits_Phase_5,1,5,63,98,1366330804
63,16,17,Jits_Phase_5,2,5,56,103,1366360404
63,16,17,Jits_Phase_5,3,5,80,127,1366381216
63,16,17,Jits_Phase_5,0,1,48,52,1366786148
63,16,17,Jits_Phase_5,1,5,80,127,1366800812
63,16,17,Jits_Phase_5,2,5,56,103,1366811376
63,16,17,Jits_Phase_5,3,5,63,98,1366821352
63,16,17,Jits_Phase_5,0,1,48,49,1367256296
63,16,17,Jits_Phase_5,1,5,56,103,1367300456
63,16,17,Jits_Phase_5,2,5,80,127,1367341388
63,16,17,Jits_Phase_5,3,5,63,98,1367371344
63,16,17,Jits_Phase_5,0,1,48,51,1367774400
63,16,17,Jits_Phase_5,1,5,63,98,1367810464
63,16,17,Jits_Phase_5,2,5,80,127,1367820588
63,16,17,Jits_Phase_5,3,5,56,103,1367830880
63,16,17,Jits_Phase_5,0,1,48,49,1368294072
63,16,17,Jits_Phase_5,1,5,56,103,1368300772
63,16,17,Jits_Phase_5,2,5,63,98,1368370552
63,16,17,Jits_Phase_5,3,5,80,127,1368380748
63,16,17,Jits_Phase_5,0,5,80,127,1368810868
63,16,17,Jits_Phase_5,1,5,56,103,1368821360
63,16,17,Jits_Phase_5,2,1,48,46,1368837512
63,16,17,Jits_Phase_5,3,5,63,98,1368871276
63,16,17,Jits_Phase_5,0,1,48,46,1369317324
63,16,17,Jits_Phase_5,1,5,80,127,1369320956
63,16,17,Jits_Phase_5,2,5,56,103,1369381372
63,16,17,Jits_Phase_5,3,5,63,98,1369410900
63,16,17,Jits_Phase_5,0,5,56,103,1369820404
63,16,17,Jits_Phase_5,1,5,80,127,1369823552
63,16,17,Jits_Phase_5,2,1,48,47,1369845248
63,16,17,Jits_Phase_5,3,5,63,98,1369860488
63,16,17,Jits_Phase_5,0,1,48,46,1370324024
63,16,17,Jits_Phase_5,1,5,56,103,1370351392
63,16,17,Jits_Phase_5,2,5,63,98,1370380548
63,16,17,Jits_Phase_5,3,5,80,127,1370391140
63,16,17,Jits_Phase_5,0,1,48,49,1370835160
63,16,17,Jits_Phase_5,1,5,63,98,1370860884
63,16,17,Jits_Phase_5,2,5,80,127,1370871380
63,16,17,Jits_Phase_5,3,5,56,103,1370881500
63,16,17,Jits_Phase_5,0,5,80,127,1371310372
63,16,17,Jits_Phase_5,1,1,48,52,1371327868
63,16,17,Jits_Phase_5,2,5,56,103,1371360640
63,16,17,Jits_Phase_5,3,5,63,98,1371363632
63,16,17,Jits_Phase_5,0,1,48,49,1371837804
63,16,17,Jits_Phase_5,1,5,56,103,1371841056
63,16,17,Jits_Phase_5,2,5,80,127,1371861292
63,16,17,Jits_Phase_5,3,5,63,98,1371870516
63,16,17,Jits_Phase_5,0,5,63,98,1372321408
63,16,17,Jits_Phase_5,1,1,48,51,1372324228
63,16,17,Jits_Phase_5,2,5,56,103,1372350776
63,16,17,Jits_Phase_5,3,5,80,127,1372371460
63,16,17,Jits_Phase_5,0,1,48,53,1372804116
63,16,17,Jits_Phase_5,1,5,56,103,1372831264
63,16,17,Jits_Phase_5,2,5,80,127,1372841308
63,16,17,Jits_Phase_5,3,5,63,98,1372911048
63,16,17,Jits_Phase_5,0,5,63,98,1373320532
63,16,17,Jits_Phase_5,1,1,48,49,1373345448
63,16,17,Jits_Phase_5,2,5,80,127,1373360536
63,16,17,Jits_Phase_5,3,5,56,103,1373400472
63,16,17,Jits_Phase_5,0,5,56,103,1373830468
63,16,17,Jits_Phase_5,1,5,63,98,1373840812
63,16,17,Jits_Phase_5,2,5,80,127,1373861196
63,16,17,Jits_Phase_5,3,1,48,45,1373866112
63,16,17,Jits_Phase_5,0,1,48,45,1374356260
63,16,17,Jits_Phase_5,1,5,63,98,1374371276
63,16,17,Jits_Phase_5,2,5,80,127,1374390612
63,16,17,Jits_Phase_5,3,5,56,103,1374411220
63,16,17,Jits_Phase_5,0,5,56,103,1374810576
63,16,17,Jits_Phase_5,1,1,48,46,1374877968
63,16,17,Jits_Phase_5,2,5,80,127,1374891264
63,16,17,Jits_Phase_5,3,5,63,98,1374900636
63,16,17,Jits_Phase_5,0,1,48,47,1375331664
63,16,17,Jits_Phase_5,1,5,80,127,1375351164
63,16,17,Jits_Phase_5,2,5,63,98,1375361360
63,16,17,Jits_Phase_5,3,5,56,103,1375391332
63,16,17,Jits_Phase_5,0,5,63,98,1375811140
63,16,17,Jits_Phase_5,1,1,48,47,1375819660
63,16,17,Jits_Phase_5,2,5,80,127,1375850996
63,16,17,Jits_Phase_5,3,5,56,103,1375912192
63,16,17,Jits_Phase_5,0,5,63,98,1376321156
63,16,17,Jits_Phase_5,1,1,48,50,1376324876
63,16,17,Jits_Phase_5,2,5,56,103,1376371052
63,16,17,Jits_Phase_5,3,5,80,127,1376400724
63,16,17,Jits_Phase_5,0,5,80,127,1376820532
63,16,17,Jits_Phase_5,1,5,63,98,1376830800
63,16,17,Jits_Phase_5,2,1,48,49,1376846500
63,16,17,Jits_Phase_5,3,5,56,103,1376900396
63,16,17,Jits_Phase_5,0,1,48,54,1377348492
63,16,17,Jits_Phase_5,1,5,80,127,1377380748
63,16,17,Jits_Phase_5,2,5,56,103,1377391240
63,16,17,Jits_Phase_5,3,5,63,98,1377394308
63,16,17,Jits_Phase_5,0,5,56,103,1377821236
63,16,17,Jits_Phase_5,1,5,80,127,1377840500
63,16,17,Jits_Phase_5,2,5,63,98,1377850916
63,16,17,Jits_Phase_5,3,1,48,51,1377852256
63,16,17,Jits_Phase_5,0,5,63,98,1378331184
63,16,17,Jits_Phase_5,1,1,48,51,1378360156
63,16,17,Jits_Phase_5,2,5,56,103,1378371044
63,16,17,Jits_Phase_5,3,5,80,127,1378391428
63,16,17,Jits_Phase_5,0,5,63,98,1378830692
63,16,17,Jits_Phase_5,1,1,48,50,1378837276
63,16,17,Jits_Phase_5,2,5,56,103,1378891172
63,16,17,Jits_Phase_5,3,5,80,127,1378894316
63,16,17,Jits_Phase_5,0,5,56,103,1379290428
63,16,17,Jits_Phase_5,1,5,80,127,1379310964
63,16,17,Jits_Phase_5,2,1,48,51,1379346388
63,16,17,Jits_Phase_5,3,5,63,98,1379350992
63,16,17,Jits_Phase_5,0,5,56,103,1379821128
63,16,17,Jits_Phase_5,1,1,48,53,1379836900
63,16,17,Jits_Phase_5,2,5,63,98,1379841508
63,16,17,Jits_Phase_5,3,5,80,127,1379850580
63,16,17,Jits_Phase_5,0,5,80,127,1380291072
63,16,17,Jits_Phase_5,1,5,56,103,1380320524
63,16,17,Jits_Phase_5,2,1,48,55,1380346264
63,16,17,Jits_Phase_5,3,5,63,98,1380360528
63,16,17,Jits_Phase_5,0,5,80,127,1380801024
63,16,17,Jits_Phase_5,1,5,56,103,1380821336
63,16,17,Jits_Phase_5,2,1,48,51,1380823424
63,16,17,Jits_Phase_5,3,5,63,98,1380880696
63,16,17,Jits_Phase_5,0,5,56,103,1381310976
63,16,17,Jits_Phase_5,1,5,80,127,1381331360
63,16,17,Jits_Phase_5,2,1,48,50,1381348872
63,16,17,Jits_Phase_5,3,5,63,98,1381390992
63,16,17,Jits_Phase_5,0,5,80,127,1381791112
63,16,17,Jits_Phase_5,1,5,56,103,1381801456
63,16,17,Jits_Phase_5,2,5,63,98,1381841244
63,16,17,Jits_Phase_5,3,1,48,44,1381859124
63,16,17,Jits_Phase_5,0,5,63,98,1382291020
63,16,17,Jits_Phase_5,1,5,56,103,1382330580
63,16,17,Jits_Phase_5,2,5,80,127,1382333948
63,16,17,Jits_Phase_5,3,1,48,49,1382350484
63,16,17,Jits_Phase_5,0,1,48,51,1382795668
63,16,17,Jits_Phase_5,1,5,63,98,1382810904
63,16,17,Jits_Phase_5,2,5,80,127,1382850992
63,16,17,Jits_Phase_5,3,5,56,103,1382880516
63,16,17,Jits_Phase_5,0,5,56,103,1383300400
63,16,17,Jits_Phase_5,1,5,63,98,1383310744
63,16,17,Jits_Phase_5,2,5,80,127,1383341388
63,16,17,Jits_Phase_5,3,1,48,42,1383345028
63,16,17,Jits_Phase_5,0,5,80,127,1383790944
63,16,17,Jits_Phase_5,1,1,48,49,1383833096
63,16,17,Jits_Phase_5,2,5,63,98,1383860616
63,16,17,Jits_Phase_5,3,5,56,103,1383870960
63,16,17,Jits_Phase_5,0,5,63,98,1384290632
63,16,17,Jits_Phase_5,1,1,48,48,1384349196
63,16,17,Jits_Phase_5,2,5,56,103,1384361276
63,16,17,Jits_Phase_5,3,5,80,127,1384370500
63,16,17,Jits_Phase_5,0,5,63,98,1384771124
63,16,17,Jits_Phase_5,1,5,56,103,1384791436
63,16,17,Jits_Phase_5,2,5,80,127,1384831296
63,16,17,Jits_Phase_5,3,1,48,45,1384833964
63,16,17,Jits_Phase_5,0,5,56,103,1385251248
63,16,17,Jits_Phase_5,1,5,63,98,1385261372
63,16,17,Jits_Phase_5,2,1,48,48,1385301280
63,16,17,Jits_Phase_5,3,5,80,127,1385341304
63,16,17,Jits_Phase_5,0,5,63,98,1385740800
63,16,17,Jits_Phase_5,1,5,56,103,1385771324
63,16,17,Jits_Phase_5,2,1,48,46,1385786200
63,16,17,Jits_Phase_5,3,5,80,127,1385811252
63,16,17,Jits_Phase_5,0,5,56,103,1386241516
63,16,17,Jits_Phase_5,1,1,48,43,1386275976
63,16,17,Jits_Phase_5,2,5,63,98,1386281396
63,16,17,Jits_Phase_5,3,5,80,127,1386321260
63,16,17,Jits_Phase_5,0,5,80,127,1386751316
63,16,17,Jits_Phase_5,1,1,48,44,1386791772
63,16,17,Jits_Phase_5,2,5,56,103,1386831128
63,16,17,Jits_Phase_5,3,5,63,98,1386840428
63,16,17,Jits_Phase_5,0,5,56,103,1387291188
63,16,17,Jits_Phase_5,1,5,63,98,1387294032
63,16,17,Jits_Phase_5,2,5,80,127,1387301380
63,16,17,Jits_Phase_5,3,1,48,48,1387314012
63,16,17,Jits_Phase_5,0,1,48,45,1387793232
63,16,17,Jits_Phase_5,1,5,56,103,1387811240
63,16,17,Jits_Phase_5,2,5,63,98,1387830800
63,16,17,Jits_Phase_5,3,5,80,127,1387840996
63,16,17,Jits_Phase_5,0,5,63,98,1388271040
63,16,17,Jits_Phase_5,1,1,48,51,1388278124
63,16,17,Jits_Phase_5,2,5,80,127,1388281232
63,16,17,Jits_Phase_5,3,5,56,103,1388300792
63,16,17,Jits_Phase_5,0,5,63,98,1388770788
63,16,17,Jits_Phase_5,1,1,48,42,1388788208
63,16,17,Jits_Phase_5,2,5,56,103,1388850900
63,16,17,Jits_Phase_5,3,5,80,127,1388853812
63,16,17,Jits_Phase_5,0,5,63,98,1389271432
63,16,17,Jits_Phase_5,1,5,56,103,1389290992
63,16,17,Jits_Phase_5,2,1,48,43,1389292180
63,16,17,Jits_Phase_5,3,5,80,127,1389320732
63,16,17,Jits_Phase_5,0,5,56,103,1389771032
63,16,17,Jits_Phase_5,1,1,48,43,1389779920
63,16,17,Jits_Phase_5,2,5,63,98,1389790584
63,16,17,Jits_Phase_5,3,5,80,127,1389800780
63,16,17,Jits_Phase_5,0,1,48,42,1390268276
63,16,17,Jits_Phase_5,1,5,56,103,1390300384
63,16,17,Jits_Phase_5,2,5,63,98,1390331176
63,16,17,Jits_Phase_5,3,5,80,127,1390334540
63,16,17,Jits_Phase_5,0,5,56,103,1390751132
63,16,17,Jits_Phase_5,1,1,48,48,1390788256
63,16,17,Jits_Phase_5,2,5,63,98,1390790988
63,16,17,Jits_Phase_5,3,5,80,127,1390850404
63,16,17,Jits_Phase_5,0,5,56,103,1391271276
63,16,17,Jits_Phase_5,1,5,63,98,1391280352
63,16,17,Jits_Phase_5,2,1,48,42,1391293660
63,16,17,Jits_Phase_5,3,5,80,127,1391340956
63,16,17,Jits_Phase_5,0,5,56,103,1391770968
63,16,17,Jits_Phase_5,1,1,48,42,1391790676
63,16,17,Jits_Phase_5,2,5,80,127,1391791940
63,16,17,Jits_Phase_5,3,5,63,98,1391821092
63,16,17,Jits_Phase_5,0,5,80,127,1392270804
63,16,17,Jits_Phase_5,1,5,56,103,1392281072
63,16,17,Jits_Phase_5,2,1,48,48,1392292732
63,16,17,Jits_Phase_5,3,5,63,98,1392301524
63,16,17,Jits_Phase_5,0,5,63,98,1392761348
63,16,17,Jits_Phase_5,1,1,48,45,1392814144
63,16,17,Jits_Phase_5,2,5,80,127,1392841136
63,16,17,Jits_Phase_5,3,5,56,103,1392851332
63,16,17,Jits_Phase_5,0,1,48,39,1393299132
63,16,17,Jits_Phase_5,1,5,80,127,1393350924
63,16,17,Jits_Phase_5,2,5,56,103,1393370408
63,16,17,Jits_Phase_5,3,5,63,98,1393373772
63,16,17,Jits_Phase_5,0,5,63,98,1393840556
63,16,17,Jits_Phase_5,1,1,48,52,1393843848
63,16,17,Jits_Phase_5,2,5,80,127,1393845108
63,16,17,Jits_Phase_5,3,5,56,103,1393900860
63,16,17,Jits_Phase_5,0,5,56,103,1394320744
63,16,17,Jits_Phase_5,1,5,80,127,1394331016
63,16,17,Jits_Phase_5,2,5,63,98,1394370952
63,16,17,Jits_Phase_5,3,1,48,34,1394399624
63,16,17,Jits_Phase_5,0,5,56,103,1394800952
63,16,17,Jits_Phase_5,1,5,63,98,1394861492
63,16,17,Jits_Phase_5,2,5,80,127,1394870716
63,16,17,Jits_Phase_5,3,1,48,47,1394871680
63,16,17,Jits_Phase_5,0,5,63,98,1395310904
63,16,17,Jits_Phase_5,1,5,80,127,1395350916
63,16,17,Jits_Phase_5,2,1,48,49,1395355080
63,16,17,Jits_Phase_5,3,5,56,103,1395390768
63,16,17,Jits_Phase_5,0,5,56,103,1395810800
63,16,17,Jits_Phase_5,1,1,48,41,1395869440
63,16,17,Jits_Phase_5,2,5,63,98,1395890660
63,16,17,Jits_Phase_5,3,5,80,127,1395893800
63,16,17,Jits_Phase_5,0,1,48,46,1396349560
63,16,17,Jits_Phase_5,1,5,80,127,1396370712
63,16,17,Jits_Phase_5,2,5,56,103,1396400608
63,16,17,Jits_Phase_5,3,5,63,98,1396403524
63,16,17,Jits_Phase_5,0,5,56,103,1396830680
63,16,17,Jits_Phase_5,1,1,48,49,1396841668
63,16,17,Jits_Phase_5,2,5,80,127,1396851056
63,16,17,Jits_Phase_5,3,5,63,98,1396891068
63,16,17,Jits_Phase_5,0,5,80,127,1397310888
63,16,17,Jits_Phase_5,1,5,63,98,1397331272
63,16,17,Jits_Phase_5,2,1,48,45,1397332240
63,16,17,Jits_Phase_5,3,5,56,103,1397390680
63,16,17,Jits_Phase_5,0,5,63,98,1397820840
63,16,17,Jits_Phase_5,1,5,56,103,1397831036
63,16,17,Jits_Phase_5,2,1,48,42,1397851688
63,16,17,Jits_Phase_5,3,5,80,127,1397881076
63,16,17,Jits_Phase_5,0,5,56,103,1398311148
63,16,17,Jits_Phase_5,1,5,63,98,1398330856
63,16,17,Jits_Phase_5,2,1,48,43,1398335624
63,16,17,Jits_Phase_5,3,5,80,127,1398341044
63,16,17,Jits_Phase_5,0,5,56,103,1398800864
63,16,17,Jits_Phase_5,1,1,48,41,1398802148
63,16,17,Jits_Phase_5,2,5,63,98,1398804896
63,16,17,Jits_Phase_5,3,5,80,127,1398821244
63,16,17,Jits_Phase_5,0,1,48,43,1399303924
63,16,17,Jits_Phase_5,1,5,63,98,1399341436
63,16,17,Jits_Phase_5,2,5,56,103,1399371036
63,16,17,Jits_Phase_5,3,5,80,127,1399400784
63,16,17,Jits_Phase_5,0,5,80,127,1399801164
63,16,17,Jits_Phase_5,1,1,48,43,1399842592
63,16,17,Jits_Phase_5,2,5,56,103,1399891236
63,16,17,Jits_Phase_5,3,5,63,98,1399894304
63,16,17,Jits_Phase_5,0,5,56,103,1400300920
63,16,17,Jits_Phase_5,1,5,80,127,1400303836
63,16,17,Jits_Phase_5,2,1,48,42,1400338216
63,16,17,Jits_Phase_5,3,5,63,98,1400380656
63,16,17,Jits_Phase_5,0,5,80,127,1400800824
63,16,17,Jits_Phase_5,1,1,48,39,1400826192
63,16,17,Jits_Phase_5,2,5,63,98,1400861008
63,16,17,Jits_Phase_5,3,5,56,103,1400890680
63,16,17,Jits_Phase_5,0,5,63,98,1401301552
63,16,17,Jits_Phase_5,1,5,80,127,1401310776
63,16,17,Jits_Phase_5,2,1,48,43,1401321164
63,16,17,Jits_Phase_5,3,5,56,103,1401381368
63,16,17,Jits_Phase_5,0,1,48,40,1401837672
63,16,17,Jits_Phase_5,1,5,56,103,1401860704
63,16,17,Jits_Phase_5,2,5,80,127,1401891080
63,16,17,Jits_Phase_5,3,5,63,98,1401941264
63,16,17,Jits_Phase_5,0,1,48,42,1402371812
63,16,17,Jits_Phase_5,1,5,63,98,1402451204
63,16,17,Jits_Phase_5,2,5,56,103,1402481088
63,16,17,Jits_Phase_5,3,5,80,127,1402484080
63,16,17,Jits_Phase_5,0,1,48,40,1402928828
63,16,17,Jits_Phase_5,1,5,63,98,1402950948
63,16,17,Jits_Phase_5,2,5,80,127,1402970512
63,16,17,Jits_Phase_5,3,5,56,103,1402980708
63,16,17,Jits_Phase_5,0,1,48,45,1403455160
63,16,17,Jits_Phase_5,1,5,56,103,1403460960
63,16,17,Jits_Phase_5,2,5,63,98,1403464028
63,16,17,Jits_Phase_5,3,5,80,127,1403480520
63,16,17,Jits_Phase_5,0,5,56,103,1403910640
63,16,17,Jits_Phase_5,1,5,63,98,1403920712
63,16,17,Jits_Phase_5,2,5,80,127,1403950536
63,16,17,Jits_Phase_5,3,1,48,43,1403960100
63,16,17,Jits_Phase_5,0,5,63,98,1404430880
63,16,17,Jits_Phase_5,1,5,80,127,1404451116
63,16,17,Jits_Phase_5,2,1,48,44,1404461728
63,16,17,Jits_Phase_5,3,5,56,103,1404491120
63,16,17,Jits_Phase_5,0,5,56,103,1404961048
63,16,17,Jits_Phase_5,1,1,48,38,1404972116
63,16,17,Jits_Phase_5,2,5,63,98,1405001204
63,16,17,Jits_Phase_5,3,5,80,127,1405004492
63,16,17,Jits_Phase_5,0,5,80,127,1405400476
63,16,17,Jits_Phase_5,1,5,56,103,1405441532
63,16,17,Jits_Phase_5,2,1,48,38,1405489284
63,16,17,Jits_Phase_5,3,5,63,98,1405490780
63,16,17,Jits_Phase_5,0,5,56,103,1405960476
63,16,17,Jits_Phase_5,1,5,80,127,1405970696
63,16,17,Jits_Phase_5,2,1,48,44,1405988044
63,16,17,Jits_Phase_5,3,5,63,98,1406000660
63,16,17,Jits_Phase_5,0,5,56,103,1406411020
63,16,17,Jits_Phase_5,1,5,80,127,1406450956
63,16,17,Jits_Phase_5,2,1,48,39,1406490216
63,16,17,Jits_Phase_5,3,5,63,98,1406501100
63,16,17,Jits_Phase_5,0,5,56,103,1406910784
63,16,17,Jits_Phase_5,1,5,80,127,1406950648
63,16,17,Jits_Phase_5,2,1,48,42,1406984480
63,16,17,Jits_Phase_5,3,5,63,98,1407001012
63,16,17,Jits_Phase_5,0,5,80,127,1407401552
63,16,17,Jits_Phase_5,1,1,48,42,1407475392
63,16,17,Jits_Phase_5,2,5,63,98,1407481192
63,16,17,Jits_Phase_5,3,5,56,103,1407490564
63,16,17,Jits_Phase_5,0,5,80,127,1407951216
63,16,17,Jits_Phase_5,1,5,56,103,1407960588
63,16,17,Jits_Phase_5,2,1,48,43,1407969560
63,16,17,Jits_Phase_5,3,5,63,98,1407980892
63,16,17,Jits_Phase_5,0,5,63,98,1408421092
63,16,17,Jits_Phase_5,1,1,48,43,1408457020
63,16,17,Jits_Phase_5,2,5,56,103,1408490760
63,16,17,Jits_Phase_5,3,5,80,127,1408493980
63,16,17,Jits_Phase_5,0,5,80,127,1408910644
63,16,17,Jits_Phase_5,1,1,48,41,1408960464
63,16,17,Jits_Phase_5,2,5,63,98,1408961956
63,16,17,Jits_Phase_5,3,5,56,103,1409000924
63,16,17,Jits_Phase_5,0,5,63,98,1409451388
63,16,17,Jits_Phase_5,1,1,48,41,1409458640
63,16,17,Jits_Phase_5,2,5,56,103,1409491248
63,16,17,Jits_Phase_5,3,5,80,127,1409500616
63,16,17,Jits_Phase_5,0,5,63,98,1409940804
63,16,17,Jits_Phase_5,1,5,56,103,1409961708
63,16,17,Jits_Phase_5,2,1,48,44,1409965948
63,16,17,Jits_Phase_5,3,5,80,127,1409980668
63,16,17,Jits_Phase_5,0,5,80,127,1410400696
63,16,17,Jits_Phase_5,1,5,56,103,1410410816
63,16,17,Jits_Phase_5,2,5,63,98,1410431424
63,16,17,Jits_Phase_5,3,1,48,36,1410437908
63,16,17,Jits_Phase_5,0,1,48,37,1410903564
63,16,17,Jits_Phase_5,1,5,63,98,1410930940
63,16,17,Jits_Phase_5,2,5,56,103,1410970876
63,16,17,Jits_Phase_5,3,5,80,127,1411000684
63,16,17,Jits_Phase_5,0,5,56,103,1411390764
63,16,17,Jits_Phase_5,1,5,63,98,1411420512
63,16,17,Jits_Phase_5,2,1,48,38,1411435840
63,16,17,Jits_Phase_5,3,5,80,127,1411451376
63,16,17,Jits_Phase_5,0,5,80,127,1411810648
63,16,17,Jits_Phase_5,1,5,56,103,1411881472
63,16,17,Jits_Phase_5,2,5,63,98,1411884464
63,16,17,Jits_Phase_5,3,1,48,41,1411910144
63,16,17,Jits_Phase_5,0,5,56,103,1412320592
63,16,17,Jits_Phase_5,1,5,63,98,1412370668
63,16,17,Jits_Phase_5,2,5,80,127,1412400416
63,16,17,Jits_Phase_5,3,1,48,39,1412413048
63,16,17,Jits_Phase_5,0,5,63,98,1412800796
63,16,17,Jits_Phase_5,1,5,80,127,1412804464
63,16,17,Jits_Phase_5,2,5,56,103,1412861412
63,16,17,Jits_Phase_5,3,1,48,43,1412910408
63,16,17,Jits_Phase_5,0,5,56,103,1413331404
63,16,17,Jits_Phase_5,1,5,80,127,1413340556
63,16,17,Jits_Phase_5,2,5,63,98,1413390628
63,16,17,Jits_Phase_5,3,1,48,35,1413398384
63,16,17,Jits_Phase_5,0,5,63,98,1413801424
63,16,17,Jits_Phase_5,1,5,56,103,1413810648
63,16,17,Jits_Phase_5,2,5,80,127,1413841516
63,16,17,Jits_Phase_5,3,1,48,38,1413860224
63,16,17,Jits_Phase_5,0,5,63,98,1414330688
63,16,17,Jits_Phase_5,1,5,80,127,1414334124
63,16,17,Jits_Phase_5,2,5,56,103,1414360432
63,16,17,Jits_Phase_5,3,1,48,37,1414362952
63,16,17,Jits_Phase_5,0,1,48,35,1414840136
63,16,17,Jits_Phase_5,1,5,63,98,1414850872
63,16,17,Jits_Phase_5,2,5,56,103,1414871324
63,16,17,Jits_Phase_5,3,5,80,127,1414874544
63,16,17,Jits_Phase_5,0,5,63,98,1415310616
63,16,17,Jits_Phase_5,1,1,48,35,1415354108
63,16,17,Jits_Phase_5,2,5,56,103,1415381480
63,16,17,Jits_Phase_5,3,5,80,127,1415400744
63,16,17,Jits_Phase_5,0,5,56,103,1415801296
63,16,17,Jits_Phase_5,1,5,63,98,1415810448
63,16,17,Jits_Phase_5,2,1,48,39,1415824200
63,16,17,Jits_Phase_5,3,5,80,127,1415900492
63,16,17,Jits_Phase_5,0,5,56,103,1416321364
63,16,17,Jits_Phase_5,1,1,48,39,1416356468
63,16,17,Jits_Phase_5,2,5,80,127,1416361516
63,16,17,Jits_Phase_5,3,5,63,98,1416370592
63,16,17,Jits_Phase_5,0,5,56,103,1416840604
63,16,17,Jits_Phase_5,1,1,48,38,1416855560
63,16,17,Jits_Phase_5,2,5,63,98,1416871396
63,16,17,Jits_Phase_5,3,5,80,127,1416900920
63,16,17,Jits_Phase_5,0,5,80,127,1417301412
63,16,17,Jits_Phase_5,1,1,48,39,1417340824
63,16,17,Jits_Phase_5,2,5,63,98,1417342388
63,16,17,Jits_Phase_5,3,5,56,103,1417360828
63,16,17,Jits_Phase_5,0,1,48,39,1417826608
63,16,17,Jits_Phase_5,1,5,56,103,1417840948
63,16,17,Jits_Phase_5,2,5,80,127,1417860360
63,16,17,Jits_Phase_5,3,5,63,98,1417880892
63,16,17,Jits_Phase_5,0,5,63,98,1418310888
63,16,17,Jits_Phase_5,1,1,48,33,1418320176
63,16,17,Jits_Phase_5,2,5,56,103,1418321820
63,16,17,Jits_Phase_5,3,5,80,127,1418380716
63,16,17,Jits_Phase_5,0,5,56,103,1418810784
63,16,17,Jits_Phase_5,1,1,48,38,1418819380
63,16,17,Jits_Phase_5,2,5,63,98,1418881432
63,16,17,Jits_Phase_5,3,5,80,127,1418900840
63,16,17,Jits_Phase_5,0,5,56,103,1419310476
63,16,17,Jits_Phase_5,1,5,63,98,1419341196
63,16,17,Jits_Phase_5,2,1,48,38,1419343868
63,16,17,Jits_Phase_5,3,5,80,127,1419381276
63,16,17,Jits_Phase_5,0,5,63,98,1419800876
63,16,17,Jits_Phase_5,1,1,48,35,1419814932
63,16,17,Jits_Phase_5,2,5,56,103,1419851292
63,16,17,Jits_Phase_5,3,5,80,127,1419861412
63,16,17,Jits_Phase_5,0,1,48,35,1420318332
63,16,17,Jits_Phase_5,1,5,56,103,1420340548
63,16,17,Jits_Phase_5,2,5,63,98,1420390748
63,16,17,Jits_Phase_5,3,5,80,127,1420401168
63,16,17,Jits_Phase_5,0,1,48,34,1420808256
63,16,17,Jits_Phase_5,1,5,56,103,1420810684
63,16,17,Jits_Phase_5,2,5,63,98,1420821056
63,16,17,Jits_Phase_5,3,5,80,127,1420901504
63,16,17,Jits_Phase_5,0,9999,9999,9999,1336578104
63,16,17,Jits_Phase_5,1,9999,9999,9999,1337078860
63,16,17,Jits_Phase_5,2,9999,9999,9999,1337578568
63,16,17,Jits_Phase_5,3,9999,9999,9999,1338078328
63,16,17,Jits_Phase_5,4,9999,9999,9999,1338579052
63,16,17,Jits_Phase_5,5,9999,9999,9999,1339078728
63,16,17,Jits_Phase_5,6,9999,9999,9999,1339578472
63,16,17,Jits_Phase_5,7,9999,9999,9999,1340078164
63,16,17,Jits_Phase_5,8,9999,9999,9999,1340578900
63,16,17,Jits_Phase_5,9,9999,9999,9999,1341078588
63,16,17,Jits_Phase_5,10,9999,9999,9999,1341578352
63,16,17,Jits_Phase_5,11,9999,9999,9999,1342079092
63,16,17,Jits_Phase_5,12,9999,9999,9999,1342578760
63,16,17,Jits_Phase_5,13,9999,9999,9999,1343078508
63,16,17,Jits_Phase_5,14,9999,9999,9999,1343578180
63,16,17,Jits_Phase_5,15,9999,9999,9999,1344078916
63,16,17,Jits_Phase_5,16,9999,9999,9999,1344578680
63,16,17,Jits_Phase_5,17,9999,9999,9999,1345078348
63,16,17,Jits_Phase_5,18,9999,9999,9999,1345579084
63,16,17,Jits_Phase_5,19,9999,9999,9999,1346089032
63,16,17,Jits_Phase_5,20,9999,9999,9999,1346588792
63,16,17,Jits_Phase_5,21,9999,9999,9999,1347088456
63,16,17,Jits_Phase_5,22,9999,9999,9999,1347588212
63,16,17,Jits_Phase_5,23,9999,9999,9999,1348088948
63,16,17,Jits_Phase_5,24,9999,9999,9999,1348588636
63,16,17,Jits_Phase_5,25,9999,9999,9999,1349088316
63,16,17,Jits_Phase_5,26,9999,9999,9999,1349589056
63,16,17,Jits_Phase_5,27,9999,9999,9999,1350088792
63,16,17,Jits_Phase_5,28,9999,9999,9999,1350588484
63,16,17,Jits_Phase_5,29,9999,9999,9999,1351088244
63,16,17,Jits_Phase_5,30,9999,9999,9999,1351578720
63,16,17,Jits_Phase_5,31,9999,9999,9999,1352078408
63,16,17,Jits_Phase_5,32,9999,9999,9999,1352578172
63,16,17,Jits_Phase_5,33,9999,9999,9999,1353078904
63,16,17,Jits_Phase_5,34,9999,9999,9999,1353578592
63,16,17,Jits_Phase_5,35,9999,9999,9999,1354078284
63,16,17,Jits_Phase_5,36,9999,9999,9999,1354579068
63,16,17,Jits_Phase_5,37,9999,9999,9999,1355078740
63,16,17,Jits_Phase_5,38,9999,9999,9999,1355578428
63,16,17,Jits_Phase_5,39,9999,9999,9999,1356078176
63,16,17,Jits_Phase_5,40,9999,9999,9999,1356578904
63,16,17,Jits_Phase_5,41,9999,9999,9999,1357078648
63,16,17,Jits_Phase_5,42,9999,9999,9999,1357578308
63,16,17,Jits_Phase_5,43,9999,9999,9999,1358079092
63,16,17,Jits_Phase_5,44,9999,9999,9999,1358578764
63,16,17,Jits_Phase_5,45,9999,9999,9999,1359078524
63,16,17,Jits_Phase_5,46,9999,9999,9999,1359578196
63,16,17,Jits_Phase_5,47,9999,9999,9999,1360078924
63,16,17,Jits_Phase_5,48,9999,9999,9999,1360588864
63,16,17,Jits_Phase_5,49,9999,9999,9999,1361088624
63,16,17,Jits_Phase_5,50,9999,9999,9999,1361588288
63,16,17,Jits_Phase_5,51,9999,9999,9999,1362089024
63,16,17,Jits_Phase_5,52,9999,9999,9999,1362588788
63,16,17,Jits_Phase_5,53,9999,9999,9999,1363088480
63,16,17,Jits_Phase_5,54,9999,9999,9999,1363588156
63,16,17,Jits_Phase_5,55,9999,9999,9999,1364088888
63,16,17,Jits_Phase_5,56,9999,9999,9999,1364588636
63,16,17,Jits_Phase_5,57,9999,9999,9999,1365088316
63,16,17,Jits_Phase_5,58,9999,9999,9999,1365589048
63,16,17,Jits_Phase_5,59,9999,9999,9999,1366088800
63,16,17,Jits_Phase_5,60,9999,9999,9999,1366588488
63,16,17,Jits_Phase_5,61,9999,9999,9999,1367088232
63,16,17,Jits_Phase_5,62,9999,9999,9999,1367588952
63,16,17,Jits_Phase_5,63,9999,9999,9999,1368088696
63,16,17,Jits_Phase_5,64,9999,9999,9999,1368608824
63,16,17,Jits_Phase_5,65,9999,9999,9999,1369108568
63,16,17,Jits_Phase_5,66,9999,9999,9999,1369608312
63,16,17,Jits_Phase_5,67,9999,9999,9999,1370109016
63,16,17,Jits_Phase_5,68,9999,9999,9999,1370608704
63,16,17,Jits_Phase_5,69,9999,9999,9999,1371108456
63,16,17,Jits_Phase_5,70,9999,9999,9999,1371608116
63,16,17,Jits_Phase_5,71,9999,9999,9999,1372108856
63,16,17,Jits_Phase_5,72,9999,9999,9999,1372608604
63,16,17,Jits_Phase_5,73,9999,9999,9999,1373108276
63,16,17,Jits_Phase_5,74,9999,9999,9999,1373609072
63,16,17,Jits_Phase_5,75,9999,9999,9999,1374108744
63,16,17,Jits_Phase_5,76,9999,9999,9999,1374608512
63,16,17,Jits_Phase_5,77,9999,9999,9999,1375108188
63,16,17,Jits_Phase_5,78,9999,9999,9999,1375608924
63,16,17,Jits_Phase_5,79,9999,9999,9999,1376108600
63,16,17,Jits_Phase_5,80,9999,9999,9999,1376608352
63,16,17,Jits_Phase_5,81,9999,9999,9999,1377088620
63,16,17,Jits_Phase_5,82,9999,9999,9999,1377588308
63,16,17,Jits_Phase_5,83,9999,9999,9999,1378089028
63,16,17,Jits_Phase_5,84,9999,9999,9999,1378588792
63,16,17,Jits_Phase_5,85,9999,9999,9999,1379088464
63,16,17,Jits_Phase_5,86,9999,9999,9999,1379588184
63,16,17,Jits_Phase_5,87,9999,9999,9999,1380088920
63,16,17,Jits_Phase_5,88,9999,9999,9999,1380588608
63,16,17,Jits_Phase_5,89,9999,9999,9999,1381088372
63,16,17,Jits_Phase_5,90,9999,9999,9999,1381589104
63,16,17,Jits_Phase_5,91,9999,9999,9999,1382088792
63,16,17,Jits_Phase_5,92,9999,9999,9999,1382588540
63,16,17,Jits_Phase_5,93,9999,9999,9999,1383088220
63,16,17,Jits_Phase_5,94,9999,9999,9999,1383588936
63,16,17,Jits_Phase_5,95,9999,9999,9999,1384088700
63,16,17,Jits_Phase_5,96,9999,9999,9999,1384588392
63,16,17,Jits_Phase_5,97,9999,9999,9999,1385038920
63,16,17,Jits_Phase_5,98,9999,9999,9999,1385538672
63,16,17,Jits_Phase_5,99,9999,9999,9999,1386038356
63,16,17,Jits_Phase_5,100,9999,9999,9999,1386539072
63,16,17,Jits_Phase_5,101,9999,9999,9999,1387049028
63,16,17,Jits_Phase_5,102,9999,9999,9999,1387548780
63,16,17,Jits_Phase_5,103,9999,9999,9999,1388048476
63,16,17,Jits_Phase_5,104,9999,9999,9999,1388548196
63,16,17,Jits_Phase_5,105,9999,9999,9999,1389048912
63,16,17,Jits_Phase_5,106,9999,9999,9999,1389548660
63,16,17,Jits_Phase_5,107,9999,9999,9999,1390048336
63,16,17,Jits_Phase_5,108,9999,9999,9999,1390549068
63,16,17,Jits_Phase_5,109,9999,9999,9999,1391048816
63,16,17,Jits_Phase_5,110,9999,9999,9999,1391548508
63,16,17,Jits_Phase_5,111,9999,9999,9999,1392048196
63,16,17,Jits_Phase_5,112,9999,9999,9999,1392548932
63,16,17,Jits_Phase_5,113,9999,9999,9999,1393048696
63,16,17,Jits_Phase_5,114,9999,9999,9999,1393598560
63,16,17,Jits_Phase_5,115,9999,9999,9999,1394098300
63,16,17,Jits_Phase_5,116,9999,9999,9999,1394599020
63,16,17,Jits_Phase_5,117,9999,9999,9999,1395098708
63,16,17,Jits_Phase_5,118,9999,9999,9999,1395598396
63,16,17,Jits_Phase_5,119,9999,9999,9999,1396098136
63,16,17,Jits_Phase_5,120,9999,9999,9999,1396598872
63,16,17,Jits_Phase_5,121,9999,9999,9999,1397098620
63,16,17,Jits_Phase_5,122,9999,9999,9999,1397598308
63,16,17,Jits_Phase_5,123,9999,9999,9999,1398099040
63,16,17,Jits_Phase_5,124,9999,9999,9999,1398598712
63,16,17,Jits_Phase_5,125,9999,9999,9999,1399098460
63,16,17,Jits_Phase_5,126,9999,9999,9999,1399598152
63,16,17,Jits_Phase_5,127,9999,9999,9999,1400098936
63,16,17,Jits_Phase_5,128,9999,9999,9999,1400598620
63,16,17,Jits_Phase_5,129,9999,9999,9999,1401098356
63,16,17,Jits_Phase_5,130,9999,9999,9999,1401599084
63,16,17,Jits_Phase_5,131,9999,9999,9999,1402198124
63,16,17,Jits_Phase_5,132,9999,9999,9999,1402698840
63,16,17,Jits_Phase_5,133,9999,9999,9999,1403198520
63,16,17,Jits_Phase_5,134,9999,9999,9999,1403698260
63,16,17,Jits_Phase_5,135,9999,9999,9999,1404198980
63,16,17,Jits_Phase_5,136,9999,9999,9999,1404698748
63,16,17,Jits_Phase_5,137,9999,9999,9999,1405198420
63,16,17,Jits_Phase_5,138,9999,9999,9999,1405698156
63,16,17,Jits_Phase_5,139,9999,9999,9999,1406198900
63,16,17,Jits_Phase_5,140,9999,9999,9999,1406698588
63,16,17,Jits_Phase_5,141,9999,9999,9999,1407198276
63,16,17,Jits_Phase_5,142,9999,9999,9999,1407699016
63,16,17,Jits_Phase_5,143,9999,9999,9999,1408198780
63,16,17,Jits_Phase_5,144,9999,9999,9999,1408698464
63,16,17,Jits_Phase_5,145,9999,9999,9999,1409198136
63,16,17,Jits_Phase_5,146,9999,9999,9999,1409698880
63,16,17,Jits_Phase_5,147,9999,9999,9999,1410198632
63,16,17,Jits_Phase_5,148,9999,9999,9999,1410698296
63,16,17,Jits_Phase_5,149,9999,9999,9999,1411199036
63,16,17,Jits_Phase_5,150,9999,9999,9999,1411598404
63,16,17,Jits_Phase_5,151,9999,9999,9999,1412098136
63,16,17,Jits_Phase_5,152,9999,9999,9999,1412598872
63,16,17,Jits_Phase_5,153,9999,9999,9999,1413098624
63,16,17,Jits_Phase_5,154,9999,9999,9999,1413598300
63,16,17,Jits_Phase_5,155,9999,9999,9999,1414099028
63,16,17,Jits_Phase_5,156,9999,9999,9999,1414598764
63,16,17,Jits_Phase_5,157,9999,9999,9999,1415098432
63,16,17,Jits_Phase_5,158,9999,9999,9999,1415598184
63,16,17,Jits_Phase_5,159,9999,9999,9999,1416098904
63,16,17,Jits_Phase_5,160,9999,9999,9999,1416598596
63,16,17,Jits_Phase_5,161,9999,9999,9999,1417098360
63,16,17,Jits_Phase_5,162,9999,9999,9999,1417599092
63,16,17,Jits_Phase_5,163,9999,9999,9999,1418098784
63,16,17,Jits_Phase_5,164,9999,9999,9999,1418598456
63,16,17,Jits_Phase_5,165,9999,9999,9999,1419098208
63,16,17,Jits_Phase_5,166,9999,9999,9999,1419598944
63,16,17,Jits_Phase_5,167,9999,9999,9999,1420098628
63,16,17,Jits_Phase_5,168,9999,9999,9999,1420598384
63,16,17,Jits_Phase_5,169,9999,9999,9999,1421099108
63,17,15,Jits_Phase_8,0,5,56,103,1430956344
63,17,15,Jits_Phase_8,1,5,63,98,1430959516
63,17,15,Jits_Phase_8,2,5,80,127,1430962712
63,17,15,Jits_Phase_8,0,5,56,103,1431756140
63,17,15,Jits_Phase_8,1,5,63,98,1431759160
63,17,15,Jits_Phase_8,2,5,80,127,1431762208
63,17,15,Jits_Phase_8,0,5,80,127,1432495340
63,17,15,Jits_Phase_8,1,1,48,51,1432520700
63,17,15,Jits_Phase_8,2,5,63,98,1432585540
63,17,15,Jits_Phase_8,3,5,56,103,1432595912
63,17,15,Jits_Phase_8,0,5,56,103,1433315640
63,17,15,Jits_Phase_8,1,5,63,98,1433326060
63,17,15,Jits_Phase_8,2,1,48,48,1433343480
63,17,15,Jits_Phase_8,3,5,80,127,1433416132
63,17,15,Jits_Phase_8,0,5,63,98,1434085672
63,17,15,Jits_Phase_8,1,5,80,127,1434115348
63,17,15,Jits_Phase_8,2,5,56,103,1434146020
63,17,15,Jits_Phase_8,3,1,48,47,1434153400
63,17,15,Jits_Phase_8,0,1,48,48,1434879168
63,17,15,Jits_Phase_8,1,5,56,103,1434885416
63,17,15,Jits_Phase_8,2,5,80,127,1434985976
63,17,15,Jits_Phase_8,3,5,63,98,1435035880
63,17,15,Jits_Phase_8,0,5,56,103,1435686332
63,17,15,Jits_Phase_8,1,1,48,46,1435726096
63,17,15,Jits_Phase_8,2,5,80,127,1435736380
63,17,15,Jits_Phase_8,3,5,63,98,1435776316
63,17,15,Jits_Phase_8,0,5,80,127,1436515624
63,17,15,Jits_Phase_8,1,5,63,98,1436546272
63,17,15,Jits_Phase_8,2,1,48,51,1436551408
63,17,15,Jits_Phase_8,3,5,56,103,1436616016
63,17,15,Jits_Phase_8,0,5,63,98,1437346040
63,17,15,Jits_Phase_8,1,5,56,103,1437376160
63,17,15,Jits_Phase_8,2,1,48,51,1437393580
63,17,15,Jits_Phase_8,3,5,80,127,1437436244
63,17,15,Jits_Phase_8,0,5,56,103,1438085560
63,17,15,Jits_Phase_8,1,5,80,127,1438088552
63,17,15,Jits_Phase_8,2,1,48,40,1438157304
63,17,15,Jits_Phase_8,3,5,63,98,1438206252
63,17,15,Jits_Phase_8,0,1,48,45,1438869104
63,17,15,Jits_Phase_8,1,5,56,103,1438966068
63,17,15,Jits_Phase_8,2,5,80,127,1439006032
63,17,15,Jits_Phase_8,3,5,63,98,1439016304
63,17,15,Jits_Phase_8,0,5,56,103,1439725848
63,17,15,Jits_Phase_8,1,5,80,127,1439746380
63,17,15,Jits_Phase_8,2,1,48,47,1439761656
63,17,15,Jits_Phase_8,3,5,63,98,1439826268
63,17,15,Jits_Phase_8,0,5,80,127,1440515436
63,17,15,Jits_Phase_8,1,1,48,42,1440588252
63,17,15,Jits_Phase_8,2,5,56,103,1440615776
63,17,15,Jits_Phase_8,3,5,63,98,1440626120
63,17,15,Jits_Phase_8,0,5,63,98,1441285616
63,17,15,Jits_Phase_8,1,5,80,127,1441345884
63,17,15,Jits_Phase_8,2,5,56,103,1441356080
63,17,15,Jits_Phase_8,3,1,48,43,1441391632
63,17,15,Jits_Phase_8,0,5,56,103,1442086368
63,17,15,Jits_Phase_8,1,1,48,43,1442103260
63,17,15,Jits_Phase_8,2,5,63,98,1442155964
63,17,15,Jits_Phase_8,3,5,80,127,1442159404
63,17,15,Jits_Phase_8,0,1,48,45,1442892828
63,17,15,Jits_Phase_8,1,5,63,98,1442915788
63,17,15,Jits_Phase_8,2,5,56,103,1442965840
63,17,15,Jits_Phase_8,3,5,80,127,1442969052
63,17,15,Jits_Phase_8,0,5,56,103,1443675604
63,17,15,Jits_Phase_8,1,5,80,127,1443678596
63,17,15,Jits_Phase_8,2,1,48,40,1443751756
63,17,15,Jits_Phase_8,3,5,63,98,1443765876
63,17,15,Jits_Phase_8,0,1,48,48,1444506948
63,17,15,Jits_Phase_8,1,5,63,98,1444516188
63,17,15,Jits_Phase_8,2,5,56,103,1444606308
63,17,15,Jits_Phase_8,3,5,80,127,1444635932
63,17,15,Jits_Phase_8,0,5,56,103,1445305692
63,17,15,Jits_Phase_8,1,5,63,98,1445405964
63,17,15,Jits_Phase_8,2,1,48,42,1445419124
63,17,15,Jits_Phase_8,3,5,80,127,1445435708
63,17,15,Jits_Phase_8,0,5,63,98,1446126068
63,17,15,Jits_Phase_8,1,5,56,103,1446136116
63,17,15,Jits_Phase_8,2,1,48,46,1446186388
63,17,15,Jits_Phase_8,3,5,80,127,1446226412
63,17,15,Jits_Phase_8,0,5,63,98,1446946232
63,17,15,Jits_Phase_8,1,1,48,46,1446998796
63,17,15,Jits_Phase_8,2,5,56,103,1447026020
63,17,15,Jits_Phase_8,3,5,80,127,1447029084
63,17,15,Jits_Phase_8,0,5,80,127,1447705980
63,17,15,Jits_Phase_8,1,5,63,98,1447725392
63,17,15,Jits_Phase_8,2,5,56,103,1447785708
63,17,15,Jits_Phase_8,3,1,48,38,1447803948
63,17,15,Jits_Phase_8,0,5,56,103,1448545608
63,17,15,Jits_Phase_8,1,5,63,98,1448566140
63,17,15,Jits_Phase_8,2,5,80,127,1448569652
63,17,15,Jits_Phase_8,3,1,48,40,1448609704
63,17,15,Jits_Phase_8,0,5,63,98,1449286028
63,17,15,Jits_Phase_8,1,5,80,127,1449365828
63,17,15,Jits_Phase_8,2,5,56,103,1449376096
63,17,15,Jits_Phase_8,3,1,48,44,1449400860
63,17,15,Jits_Phase_8,0,5,63,98,1450106164
63,17,15,Jits_Phase_8,1,5,56,103,1450125652
63,17,15,Jits_Phase_8,2,1,48,43,1450157908
63,17,15,Jits_Phase_8,3,5,80,127,1450175844
63,17,15,Jits_Phase_8,0,5,80,127,1450905916
63,17,15,Jits_Phase_8,1,1,48,44,1450920716
63,17,15,Jits_Phase_8,2,5,63,98,1450945924
63,17,15,Jits_Phase_8,3,5,56,103,1450966532
63,17,15,Jits_Phase_8,0,1,48,42,1451709548
63,17,15,Jits_Phase_8,1,5,56,103,1451745540
63,17,15,Jits_Phase_8,2,5,63,98,1451755884
63,17,15,Jits_Phase_8,3,5,80,127,1451776492
63,17,15,Jits_Phase_8,0,5,56,103,1452475704
63,17,15,Jits_Phase_8,1,1,48,42,1452544532
63,17,15,Jits_Phase_8,2,5,63,98,1452565932
63,17,15,Jits_Phase_8,3,5,80,127,1452626544
63,17,15,Jits_Phase_8,0,5,80,127,1453306120
63,17,15,Jits_Phase_8,1,5,56,103,1453315568
63,17,15,Jits_Phase_8,2,1,48,43,1453327324
63,17,15,Jits_Phase_8,3,5,63,98,1453386088
63,17,15,Jits_Phase_8,0,5,63,98,1454135660
63,17,15,Jits_Phase_8,1,1,48,45,1454158108
63,17,15,Jits_Phase_8,2,5,80,127,1454225712
63,17,15,Jits_Phase_8,3,5,56,103,1454236132
63,17,15,Jits_Phase_8,0,5,63,98,1454865748
63,17,15,Jits_Phase_8,1,5,80,127,1454916096
63,17,15,Jits_Phase_8,2,5,56,103,1454976560
63,17,15,Jits_Phase_8,3,1,48,41,1455011512
63,17,15,Jits_Phase_8,0,5,56,103,1455685884
63,17,15,Jits_Phase_8,1,5,80,127,1455736236
63,17,15,Jits_Phase_8,2,1,48,39,1455746700
63,17,15,Jits_Phase_8,3,5,63,98,1455755640
63,17,15,Jits_Phase_8,0,5,56,103,1456455904
63,17,15,Jits_Phase_8,1,1,48,40,1456467340
63,17,15,Jits_Phase_8,2,5,80,127,1456515392
63,17,15,Jits_Phase_8,3,5,63,98,1456586032
63,17,15,Jits_Phase_8,0,1,48,43,1457249268
63,17,15,Jits_Phase_8,1,5,56,103,1457255820
63,17,15,Jits_Phase_8,2,5,80,127,1457285644
63,17,15,Jits_Phase_8,3,5,63,98,1457316068
63,17,15,Jits_Phase_8,0,1,48,49,1458044164
63,17,15,Jits_Phase_8,1,5,56,103,1458095656
63,17,15,Jits_Phase_8,2,5,80,127,1458115816
63,17,15,Jits_Phase_8,3,5,63,98,1458176488
63,17,15,Jits_Phase_8,0,1,48,46,1458901816
63,17,15,Jits_Phase_8,1,5,80,127,1458976052
63,17,15,Jits_Phase_8,2,5,56,103,1458986548
63,17,15,Jits_Phase_8,3,5,63,98,1458995608
63,17,15,Jits_Phase_8,0,5,56,103,1459735820
63,17,15,Jits_Phase_8,1,5,80,127,1459775904
63,17,15,Jits_Phase_8,2,1,48,41,1459797680
63,17,15,Jits_Phase_8,3,5,63,98,1459805572
63,17,15,Jits_Phase_8,0,5,56,103,1460505924
63,17,15,Jits_Phase_8,1,5,63,98,1460535752
63,17,15,Jits_Phase_8,2,1,48,39,1460573644
63,17,15,Jits_Phase_8,3,5,80,127,1460575532
63,17,15,Jits_Phase_8,0,5,80,127,1461255548
63,17,15,Jits_Phase_8,1,5,63,98,1461305704
63,17,15,Jits_Phase_8,2,5,56,103,1461326460
63,17,15,Jits_Phase_8,3,1,48,41,1461337744
63,17,15,Jits_Phase_8,0,5,56,103,1462085912
63,17,15,Jits_Phase_8,1,1,48,43,1462110232
63,17,15,Jits_Phase_8,2,5,80,127,1462155736
63,17,15,Jits_Phase_8,3,5,63,98,1462216032
63,17,15,Jits_Phase_8,0,5,80,127,1462885680
63,17,15,Jits_Phase_8,1,1,48,43,1462932468
63,17,15,Jits_Phase_8,2,5,63,98,1462975960
63,17,15,Jits_Phase_8,3,5,56,103,1462996416
63,17,15,Jits_Phase_8,0,5,63,98,1463705836
63,17,15,Jits_Phase_8,1,5,56,103,1463725472
63,17,15,Jits_Phase_8,2,5,80,127,1463766604
63,17,15,Jits_Phase_8,3,1,48,44,1463784640
63,17,15,Jits_Phase_8,0,5,80,127,1464465732
63,17,15,Jits_Phase_8,1,5,63,98,1464486268
63,17,15,Jits_Phase_8,2,1,48,45,1464528344
63,17,15,Jits_Phase_8,3,5,56,103,1464566352
63,17,15,Jits_Phase_8,0,5,63,98,1465256508
63,17,15,Jits_Phase_8,1,1,48,42,1465278212
63,17,15,Jits_Phase_8,2,5,56,103,1465365764
63,17,15,Jits_Phase_8,3,5,80,127,1465369792
63,17,15,Jits_Phase_8,0,5,63,98,1466075444
63,17,15,Jits_Phase_8,1,1,48,39,1466084412
63,17,15,Jits_Phase_8,2,5,56,103,1466085856
63,17,15,Jits_Phase_8,3,5,80,127,1466088696
63,17,15,Jits_Phase_8,0,5,56,103,1466855780
63,17,15,Jits_Phase_8,1,1,48,46,1466881664
63,17,15,Jits_Phase_8,2,5,80,127,1466975584
63,17,15,Jits_Phase_8,3,5,63,98,1467015520
63,17,15,Jits_Phase_8,0,5,56,103,1467675956
63,17,15,Jits_Phase_8,1,1,48,41,1467739388
63,17,15,Jits_Phase_8,2,5,80,127,1467755824
63,17,15,Jits_Phase_8,3,5,63,98,1467776580
63,17,15,Jits_Phase_8,0,5,56,103,1468475808
63,17,15,Jits_Phase_8,1,1,48,37,1468522676
63,17,15,Jits_Phase_8,2,5,63,98,1468586384
63,17,15,Jits_Phase_8,3,5,80,127,1468589672
63,17,15,Jits_Phase_8,0,5,56,103,1469315500
63,17,15,Jits_Phase_8,1,1,48,37,1469338620
63,17,15,Jits_Phase_8,2,5,80,127,1469346292
63,17,15,Jits_Phase_8,3,5,63,98,1469365556
63,17,15,Jits_Phase_8,0,5,63,98,1470105836
63,17,15,Jits_Phase_8,1,5,56,103,1470116180
63,17,15,Jits_Phase_8,2,5,80,127,1470125404
63,17,15,Jits_Phase_8,3,1,48,39,1470136016
63,17,15,Jits_Phase_8,0,5,80,127,1470895472
63,17,15,Jits_Phase_8,1,1,48,35,1470932520
63,17,15,Jits_Phase_8,2,5,56,103,1470945516
63,17,15,Jits_Phase_8,3,5,63,98,1470985604
63,17,15,Jits_Phase_8,0,1,48,33,1471699624
63,17,15,Jits_Phase_8,1,5,80,127,1471715764
63,17,15,Jits_Phase_8,2,5,63,98,1471736076
63,17,15,Jits_Phase_8,3,5,56,103,1471786300
63,17,15,Jits_Phase_8,0,5,80,127,1472525668
63,17,15,Jits_Phase_8,1,1,48,39,1472537852
63,17,15,Jits_Phase_8,2,5,56,103,1472556456
63,17,15,Jits_Phase_8,3,5,63,98,1472626212
63,17,15,Jits_Phase_8,0,5,56,103,1473375564
63,17,15,Jits_Phase_8,1,5,80,127,1473385836
63,17,15,Jits_Phase_8,2,1,48,38,1473396752
63,17,15,Jits_Phase_8,3,5,63,98,1473425692
63,17,15,Jits_Phase_8,0,5,56,103,1474086336
63,17,15,Jits_Phase_8,1,5,63,98,1474105672
63,17,15,Jits_Phase_8,2,5,80,127,1474176472
63,17,15,Jits_Phase_8,3,1,48,40,1474243184
63,17,15,Jits_Phase_8,0,1,48,31,1474904228
63,17,15,Jits_Phase_8,1,5,63,98,1474905724
63,17,15,Jits_Phase_8,2,5,80,127,1474965744
63,17,15,Jits_Phase_8,3,5,56,103,1474986352
63,17,15,Jits_Phase_8,0,5,80,127,1475696120
63,17,15,Jits_Phase_8,1,1,48,37,1475710772
63,17,15,Jits_Phase_8,2,5,56,103,1475725640
63,17,15,Jits_Phase_8,3,5,63,98,1475756364
63,17,15,Jits_Phase_8,0,1,48,33,1476477724
63,17,15,Jits_Phase_8,1,5,56,103,1476495660
63,17,15,Jits_Phase_8,2,5,63,98,1476556128
63,17,15,Jits_Phase_8,3,5,80,127,1476615452
63,17,15,Jits_Phase_8,0,1,48,31,1477294200
63,17,15,Jits_Phase_8,1,5,80,127,1477316096
63,17,15,Jits_Phase_8,2,5,56,103,1477336404
63,17,15,Jits_Phase_8,3,5,63,98,1477406240
63,17,15,Jits_Phase_8,0,5,80,127,1478115636
63,17,15,Jits_Phase_8,1,5,63,98,1478136168
63,17,15,Jits_Phase_8,2,1,48,28,1478150968
63,17,15,Jits_Phase_8,3,5,56,103,1478166156
63,17,15,Jits_Phase_8,0,5,80,127,1478906260
63,17,15,Jits_Phase_8,1,1,48,38,1478914112
63,17,15,Jits_Phase_8,2,5,63,98,1478925544
63,17,15,Jits_Phase_8,3,5,56,103,1478986008
63,17,15,Jits_Phase_8,0,5,80,127,1479706128
63,17,15,Jits_Phase_8,1,1,48,35,1479730144
63,17,15,Jits_Phase_8,2,5,56,103,1479806296
63,17,15,Jits_Phase_8,3,5,63,98,1479836180
63,17,15,Jits_Phase_8,0,5,63,98,1480495420
63,17,15,Jits_Phase_8,1,5,80,127,1480545772
63,17,15,Jits_Phase_8,2,5,56,103,1480566080
63,17,15,Jits_Phase_8,3,1,48,37,1480584936
63,17,15,Jits_Phase_8,0,1,48,29,1481331688
63,17,15,Jits_Phase_8,1,5,80,127,1481336296
63,17,15,Jits_Phase_8,2,5,56,103,1481366044
63,17,15,Jits_Phase_8,3,5,63,98,1481369260
63,17,15,Jits_Phase_8,0,1,48,33,1482087844
63,17,15,Jits_Phase_8,1,5,63,98,1482186980
63,17,15,Jits_Phase_8,2,5,56,103,1482226168
63,17,15,Jits_Phase_8,3,5,80,127,1482245504
63,17,15,Jits_Phase_8,0,5,80,127,1482946080
63,17,15,Jits_Phase_8,1,1,48,32,1482999544
63,17,15,Jits_Phase_8,2,5,63,98,1483025896
63,17,15,Jits_Phase_8,3,5,56,103,1483065832
63,17,15,Jits_Phase_8,0,5,63,98,1483766084
63,17,15,Jits_Phase_8,1,1,48,36,1483771816
63,17,15,Jits_Phase_8,2,5,80,127,1483846044
63,17,15,Jits_Phase_8,3,5,56,103,1483865532
63,17,15,Jits_Phase_8,0,1,48,32,1484602088
63,17,15,Jits_Phase_8,1,5,56,103,1484606020
63,17,15,Jits_Phase_8,2,5,63,98,1484616068
63,17,15,Jits_Phase_8,3,5,80,127,1484656080
63,17,15,Jits_Phase_8,0,5,56,103,1485325696
63,17,15,Jits_Phase_8,1,5,80,127,1485328760
63,17,15,Jits_Phase_8,2,1,48,34,1485399456
63,17,15,Jits_Phase_8,3,5,63,98,1485465936
63,17,15,Jits_Phase_8,0,5,56,103,1486116164
63,17,15,Jits_Phase_8,1,1,48,31,1486173908
63,17,15,Jits_Phase_8,2,5,63,98,1486206296
63,17,15,Jits_Phase_8,3,5,80,127,1486275884
63,17,15,Jits_Phase_8,0,1,48,35,1486953964
63,17,15,Jits_Phase_8,1,5,63,98,1486995868
63,17,15,Jits_Phase_8,2,5,80,127,1486999304
63,17,15,Jits_Phase_8,3,5,56,103,1487056240
63,17,15,Jits_Phase_8,0,1,48,32,1487765552
63,17,15,Jits_Phase_8,1,5,80,127,1487835480
63,17,15,Jits_Phase_8,2,5,56,103,1487856012
63,17,15,Jits_Phase_8,3,5,63,98,1487866192
63,17,15,Jits_Phase_8,0,5,56,103,1488546096
63,17,15,Jits_Phase_8,1,5,63,98,1488556292
63,17,15,Jits_Phase_8,2,5,80,127,1488625968
63,17,15,Jits_Phase_8,3,1,48,33,1488635012
63,17,15,Jits_Phase_8,0,1,48,31,1489323288
63,17,15,Jits_Phase_8,1,5,80,127,1489345856
63,17,15,Jits_Phase_8,2,5,56,103,1489395984
63,17,15,Jits_Phase_8,3,5,63,98,1489446120
63,17,15,Jits_Phase_8,0,1,48,31,1490102796
63,17,15,Jits_Phase_8,1,5,56,103,1490225416
63,17,15,Jits_Phase_8,2,5,63,98,1490236060
63,17,15,Jits_Phase_8,3,5,80,127,1490275776
63,17,15,Jits_Phase_8,0,5,56,103,1490965864
63,17,15,Jits_Phase_8,1,5,63,98,1491005804
63,17,15,Jits_Phase_8,2,1,48,31,1491052668
63,17,15,Jits_Phase_8,3,5,80,127,1491055924
63,17,15,Jits_Phase_8,0,5,80,127,1491725780
63,17,15,Jits_Phase_8,1,1,48,26,1491775760
63,17,15,Jits_Phase_8,2,5,56,103,1491777024
63,17,15,Jits_Phase_8,3,5,63,98,1491796360
63,17,15,Jits_Phase_8,0,5,80,127,1492535888
63,17,15,Jits_Phase_8,1,1,48,24,1492563272
63,17,15,Jits_Phase_8,2,5,63,98,1492596120
63,17,15,Jits_Phase_8,3,5,56,103,1492675900
63,17,15,Jits_Phase_8,0,5,80,127,1493315948
63,17,15,Jits_Phase_8,1,5,56,103,1493355964
63,17,15,Jits_Phase_8,2,1,48,33,1493359380
63,17,15,Jits_Phase_8,3,5,63,98,1493376268
63,17,15,Jits_Phase_8,0,1,48,26,1494148200
63,17,15,Jits_Phase_8,1,5,56,103,1494165832
63,17,15,Jits_Phase_8,2,5,80,127,1494176252
63,17,15,Jits_Phase_8,3,5,63,98,1494216040
63,17,15,Jits_Phase_8,0,1,48,32,1494977104
63,17,15,Jits_Phase_8,1,5,56,103,1495036316
63,17,15,Jits_Phase_8,2,5,63,98,1495076108
63,17,15,Jits_Phase_8,3,5,80,127,1495079700
63,17,15,Jits_Phase_8,0,5,63,98,1495705944
63,17,15,Jits_Phase_8,1,5,80,127,1495746032
63,17,15,Jits_Phase_8,2,5,56,103,1495815784
63,17,15,Jits_Phase_8,3,1,48,31,1495871564
63,17,15,Jits_Phase_8,0,5,63,98,1496476008
63,17,15,Jits_Phase_8,1,1,48,24,1496523616
63,17,15,Jits_Phase_8,2,5,56,103,1496556020
63,17,15,Jits_Phase_8,3,5,80,127,1496616212
63,17,15,Jits_Phase_8,0,1,48,35,1497247408
63,17,15,Jits_Phase_8,1,5,80,127,1497286020
63,17,15,Jits_Phase_8,2,5,63,98,1497336224
63,17,15,Jits_Phase_8,3,5,56,103,1497365832
63,17,15,Jits_Phase_8,0,5,56,103,1498075592
63,17,15,Jits_Phase_8,1,1,48,31,1498111744
63,17,15,Jits_Phase_8,2,5,63,98,1498125888
63,17,15,Jits_Phase_8,3,5,80,127,1498135860
63,17,15,Jits_Phase_8,0,5,56,103,1498885844
63,17,15,Jits_Phase_8,1,1,48,22,1498917612
63,17,15,Jits_Phase_8,2,5,63,98,1498995932
63,17,15,Jits_Phase_8,3,5,80,127,1499015628
63,17,15,Jits_Phase_8,0,5,63,98,1499686396
63,17,15,Jits_Phase_8,1,1,48,36,1499690412
63,17,15,Jits_Phase_8,2,5,80,127,1499736368
63,17,15,Jits_Phase_8,3,5,56,103,1499825736
63,17,15,Jits_Phase_8,0,5,63,98,1500475668
63,17,15,Jits_Phase_8,1,5,80,127,1500505716
63,17,15,Jits_Phase_8,2,1,48,35,1500570408
63,17,15,Jits_Phase_8,3,5,56,103,1500595616
63,17,15,Jits_Phase_8,0,5,63,98,1501275572
63,17,15,Jits_Phase_8,1,5,56,103,1501285768
63,17,15,Jits_Phase_8,2,1,48,29,1501331732
63,17,15,Jits_Phase_8,3,5,80,127,1501386080
63,17,15,Jits_Phase_8,0,1,48,26,1502053872
63,17,15,Jits_Phase_8,1,5,63,98,1502175624
63,17,15,Jits_Phase_8,2,5,80,127,1502206200
63,17,15,Jits_Phase_8,3,5,56,103,1502235972
63,17,15,Jits_Phase_8,0,1,48,36,1502929004
63,17,15,Jits_Phase_8,1,5,80,127,1502995812
63,17,15,Jits_Phase_8,2,5,63,98,1503006084
63,17,15,Jits_Phase_8,3,5,56,103,1503035744
63,17,15,Jits_Phase_8,0,5,80,127,1503696288
63,17,15,Jits_Phase_8,1,5,63,98,1503715628
63,17,15,Jits_Phase_8,2,5,56,103,1503765776
63,17,15,Jits_Phase_8,3,1,48,31,1503837292
63,17,15,Jits_Phase_8,0,5,63,98,1504525752
63,17,15,Jits_Phase_8,1,1,48,29,1504534872
63,17,15,Jits_Phase_8,2,5,80,127,1504586288
63,17,15,Jits_Phase_8,3,5,56,103,1504605548
63,17,15,Jits_Phase_8,0,5,63,98,1505285556
63,17,15,Jits_Phase_8,1,1,48,24,1505326388
63,17,15,Jits_Phase_8,2,5,56,103,1505335700
63,17,15,Jits_Phase_8,3,5,80,127,1505346044
63,17,15,Jits_Phase_8,0,1,48,37,1506063652
63,17,15,Jits_Phase_8,1,5,56,103,1506115892
63,17,15,Jits_Phase_8,2,5,80,127,1506126088
63,17,15,Jits_Phase_8,3,5,63,98,1506225496
63,17,15,Jits_Phase_8,0,5,80,127,1506875724
63,17,15,Jits_Phase_8,1,1,48,38,1506878544
63,17,15,Jits_Phase_8,2,5,63,98,1506885988
63,17,15,Jits_Phase_8,3,5,56,103,1507035512
63,17,15,Jits_Phase_8,0,5,63,98,1507685684
63,17,15,Jits_Phase_8,1,5,80,127,1507725624
63,17,15,Jits_Phase_8,2,1,48,40,1507777592
63,17,15,Jits_Phase_8,3,5,56,103,1507805412
63,17,15,Jits_Phase_8,0,5,56,103,1508436364
63,17,15,Jits_Phase_8,1,5,80,127,1508535792
63,17,15,Jits_Phase_8,2,1,48,44,1508542272
63,17,15,Jits_Phase_8,3,5,63,98,1508556092
63,17,15,Jits_Phase_8,0,5,80,127,1509255700
63,17,15,Jits_Phase_8,1,5,56,103,1509265748
63,17,15,Jits_Phase_8,2,1,48,40,1509289464
63,17,15,Jits_Phase_8,3,5,63,98,1509355796
63,17,15,Jits_Phase_8,0,5,56,103,1510056448
63,17,15,Jits_Phase_8,1,1,48,43,1510074956
63,17,15,Jits_Phase_8,2,5,63,98,1510076604
63,17,15,Jits_Phase_8,3,5,80,127,1510155672
63,17,15,Jits_Phase_8,0,5,63,98,1510805876
63,17,15,Jits_Phase_8,1,1,48,43,1510880236
63,17,15,Jits_Phase_8,2,5,56,103,1510896004
63,17,15,Jits_Phase_8,3,5,80,127,1510899068
63,17,15,Jits_Phase_8,0,5,56,103,1511636492
63,17,15,Jits_Phase_8,1,1,48,45,1511655952
63,17,15,Jits_Phase_8,2,5,80,127,1511695632
63,17,15,Jits_Phase_8,3,5,63,98,1511705828
63,17,15,Jits_Phase_8,0,1,48,40,1512433224
63,17,15,Jits_Phase_8,1,5,80,127,1512486480
63,17,15,Jits_Phase_8,2,5,56,103,1512495404
63,17,15,Jits_Phase_8,3,5,63,98,1512498548
63,17,15,Jits_Phase_8,0,5,56,103,1513246084
63,17,15,Jits_Phase_8,1,5,80,127,1513256428
63,17,15,Jits_Phase_8,2,1,48,48,1513273800
63,17,15,Jits_Phase_8,3,5,63,98,1513275684
63,17,15,Jits_Phase_8,0,5,63,98,1514016332
63,17,15,Jits_Phase_8,1,1,48,42,1514047324
63,17,15,Jits_Phase_8,2,5,80,127,1514075596
63,17,15,Jits_Phase_8,3,5,56,103,1514125796
63,17,15,Jits_Phase_8,0,1,48,44,1514829916
63,17,15,Jits_Phase_8,1,5,63,98,1514895876
63,17,15,Jits_Phase_8,2,5,56,103,1514905924
63,17,15,Jits_Phase_8,3,5,80,127,1514956256
63,17,15,Jits_Phase_8,0,5,63,98,1515596076
63,17,15,Jits_Phase_8,1,5,80,127,1515615636
63,17,15,Jits_Phase_8,2,5,56,103,1515625760
63,17,15,Jits_Phase_8,3,1,48,45,1515653756
63,17,15,Jits_Phase_8,0,1,48,49,1516392408
63,17,15,Jits_Phase_8,1,5,63,98,1516395892
63,17,15,Jits_Phase_8,2,5,80,127,1516399328
63,17,15,Jits_Phase_8,3,5,56,103,1516435680
63,17,15,Jits_Phase_8,0,1,48,43,1517145192
63,17,15,Jits_Phase_8,1,5,63,98,1517266196
63,17,15,Jits_Phase_8,2,5,80,127,1517296392
63,17,15,Jits_Phase_8,3,5,56,103,1517306588
63,17,15,Jits_Phase_8,0,5,56,103,1518015856
63,17,15,Jits_Phase_8,1,5,80,127,1518045532
63,17,15,Jits_Phase_8,2,1,48,37,1518056144
63,17,15,Jits_Phase_8,3,5,63,98,1518076320
63,17,15,Jits_Phase_8,0,1,48,40,1518797236
63,17,15,Jits_Phase_8,1,5,63,98,1518916100
63,17,15,Jits_Phase_8,2,5,56,103,1518955812
63,17,15,Jits_Phase_8,3,5,80,127,1518959104
63,17,15,Jits_Phase_8,0,5,80,127,1519616508
63,17,15,Jits_Phase_8,1,5,56,103,1519696328
63,17,15,Jits_Phase_8,2,1,48,43,1519711656
63,17,15,Jits_Phase_8,3,5,63,98,1519746300
63,17,15,Jits_Phase_8,0,5,80,127,1520395780
63,17,15,Jits_Phase_8,1,5,56,103,1520416164
63,17,15,Jits_Phase_8,2,1,48,39,1520503480
63,17,15,Jits_Phase_8,3,5,63,98,1520506364
63,17,15,Jits_Phase_8,0,1,48,46,1521231172
63,17,15,Jits_Phase_8,1,5,80,127,1521236372
63,17,15,Jits_Phase_8,2,5,63,98,1521276236
63,17,15,Jits_Phase_8,3,5,56,103,1521316396
63,17,15,Jits_Phase_8,0,1,48,48,1522003060
63,17,15,Jits_Phase_8,1,5,63,98,1522046176
63,17,15,Jits_Phase_8,2,5,80,127,1522105656
63,17,15,Jits_Phase_8,3,5,56,103,1522136452
63,17,15,Jits_Phase_8,0,1,48,42,1522811648
63,17,15,Jits_Phase_8,1,5,56,103,1522886232
63,17,15,Jits_Phase_8,2,5,80,127,1522915668
63,17,15,Jits_Phase_8,3,5,63,98,1523006124
63,17,15,Jits_Phase_8,0,1,48,38,1523693072
63,17,15,Jits_Phase_8,1,5,56,103,1523696252
63,17,15,Jits_Phase_8,2,5,80,127,1523805504
63,17,15,Jits_Phase_8,3,5,63,98,1523836224
63,17,15,Jits_Phase_8,0,5,56,103,1524546020
63,17,15,Jits_Phase_8,1,1,48,39,1524568248
63,17,15,Jits_Phase_8,2,5,63,98,1524606184
63,17,15,Jits_Phase_8,3,5,80,127,1524636304
63,17,15,Jits_Phase_8,0,5,56,103,1525316128
63,17,15,Jits_Phase_8,1,5,63,98,1525385588
63,17,15,Jits_Phase_8,2,5,80,127,1525406192
63,17,15,Jits_Phase_8,3,1,48,40,1525412452
63,17,15,Jits_Phase_8,0,5,80,127,1526085984
63,17,15,Jits_Phase_8,1,5,63,98,1526105472
63,17,15,Jits_Phase_8,2,5,56,103,1526155600
63,17,15,Jits_Phase_8,3,1,48,45,1526186140
63,17,15,Jits_Phase_8,0,5,63,98,1526906280
63,17,15,Jits_Phase_8,1,5,80,127,1526915428
63,17,15,Jits_Phase_8,2,1,48,35,1526940792
63,17,15,Jits_Phase_8,3,5,56,103,1526965476
63,17,15,Jits_Phase_8,0,1,48,37,1527691980
63,17,15,Jits_Phase_8,1,5,63,98,1527706252
63,17,15,Jits_Phase_8,2,5,80,127,1527775560
63,17,15,Jits_Phase_8,3,5,56,103,1527796156
63,17,15,Jits_Phase_8,0,1,48,40,1528509952
63,17,15,Jits_Phase_8,1,5,63,98,1528536504
63,17,15,Jits_Phase_8,2,5,80,127,1528540092
63,17,15,Jits_Phase_8,3,5,56,103,1528605988
63,17,15,Jits_Phase_8,0,5,80,127,1529286140
63,17,15,Jits_Phase_8,1,5,56,103,1529305404
63,17,15,Jits_Phase_8,2,5,63,98,1529315600
63,17,15,Jits_Phase_8,3,1,48,36,1529344120
63,17,15,Jits_Phase_8,0,1,48,46,1530095092
63,17,15,Jits_Phase_8,1,5,56,103,1530106352
63,17,15,Jits_Phase_8,2,5,63,98,1530196192
63,17,15,Jits_Phase_8,3,5,80,127,1530199560
63,17,15,Jits_Phase_8,0,5,80,127,1530876220
63,17,15,Jits_Phase_8,1,5,56,103,1530885516
63,17,15,Jits_Phase_8,2,5,63,98,1530905900
63,17,15,Jits_Phase_8,3,1,48,40,1530909320
63,17,15,Jits_Phase_8,0,1,48,39,1531663436
63,17,15,Jits_Phase_8,1,5,63,98,1531675984
63,17,15,Jits_Phase_8,2,5,80,127,1531736448
63,17,15,Jits_Phase_8,3,5,56,103,1531745596
63,17,15,Jits_Phase_8,0,1,48,45,1532474964
63,17,15,Jits_Phase_8,1,5,63,98,1532546536
63,17,15,Jits_Phase_8,2,5,80,127,1532576196
63,17,15,Jits_Phase_8,3,5,56,103,1532615984
63,17,15,Jits_Phase_8,0,5,56,103,1533336112
63,17,15,Jits_Phase_8,1,5,80,127,1533346084
63,17,15,Jits_Phase_8,2,1,48,34,1533354456
63,17,15,Jits_Phase_8,3,5,63,98,1533386092
63,17,15,Jits_Phase_8,0,5,80,127,1534095732
63,17,15,Jits_Phase_8,1,1,48,34,1534168228
63,17,15,Jits_Phase_8,2,5,56,103,1534175672
63,17,15,Jits_Phase_8,3,5,63,98,1534185940
63,17,15,Jits_Phase_8,0,5,80,127,1534945924
63,17,15,Jits_Phase_8,1,1,48,38,1534982680
63,17,15,Jits_Phase_8,2,5,56,103,1535025420
63,17,15,Jits_Phase_8,3,5,63,98,1535035836
63,17,15,Jits_Phase_8,0,1,48,38,1535774004
63,17,15,Jits_Phase_8,1,5,80,127,1535786384
63,17,15,Jits_Phase_8,2,5,56,103,1535835468
63,17,15,Jits_Phase_8,3,5,63,98,1535885948
63,17,15,Jits_Phase_8,0,1,48,41,1536585588
63,17,15,Jits_Phase_8,1,5,56,103,1536726448
63,17,15,Jits_Phase_8,2,5,63,98,1536729664
63,17,15,Jits_Phase_8,3,5,80,127,1536775628
63,17,15,Jits_Phase_8,0,1,48,41,1537520192
63,17,15,Jits_Phase_8,1,5,56,103,1537545576
63,17,15,Jits_Phase_8,2,5,63,98,1537576444
63,17,15,Jits_Phase_8,3,5,80,127,1537585520
63,17,15,Jits_Phase_8,0,5,63,98,1538256384
63,17,15,Jits_Phase_8,1,5,56,103,1538326016
63,17,15,Jits_Phase_8,2,1,48,40,1538371984
63,17,15,Jits_Phase_8,3,5,80,127,1538376136
63,17,15,Jits_Phase_8,0,5,63,98,1539085912
63,17,15,Jits_Phase_8,1,5,56,103,1539095960
63,17,15,Jits_Phase_8,2,5,80,127,1539099024
63,17,15,Jits_Phase_8,3,1,48,45,1539136984
63,17,15,Jits_Phase_8,0,5,80,127,1539836184
63,17,15,Jits_Phase_8,1,1,48,46,1539893264
63,17,15,Jits_Phase_8,2,5,56,103,1539895920
63,17,15,Jits_Phase_8,3,5,63,98,1539985828
63,17,15,Jits_Phase_8,0,5,80,127,1540636132
63,17,15,Jits_Phase_8,1,1,48,42,1540701356
63,17,15,Jits_Phase_8,2,5,56,103,1540736300
63,17,15,Jits_Phase_8,3,5,63,98,1540776236
63,17,15,Jits_Phase_8,0,5,56,103,1541485880
63,17,15,Jits_Phase_8,1,1,48,43,1541495896
63,17,15,Jits_Phase_8,2,5,63,98,1541506852
63,17,15,Jits_Phase_8,3,5,80,127,1541546864
63,17,15,Jits_Phase_8,0,5,63,98,1542255908
63,17,15,Jits_Phase_8,1,5,56,103,1542275392
63,17,15,Jits_Phase_8,2,1,48,43,1542284364
63,17,15,Jits_Phase_8,3,5,80,127,1542375780
63,17,15,Jits_Phase_8,0,5,63,98,1543045472
63,17,15,Jits_Phase_8,1,1,48,44,1543103888
63,17,15,Jits_Phase_8,2,5,80,127,1543156128
63,17,15,Jits_Phase_8,3,5,56,103,1543185680
63,17,15,Jits_Phase_8,0,5,56,103,1543865836
63,17,15,Jits_Phase_8,1,5,63,98,1543896556
63,17,15,Jits_Phase_8,2,1,48,42,1543929788
63,17,15,Jits_Phase_8,3,5,80,127,1543945804
63,17,15,Jits_Phase_8,0,5,63,98,1544635788
63,17,15,Jits_Phase_8,1,5,56,103,1544665312
63,17,15,Jits_Phase_8,2,1,48,37,1544699816
63,17,15,Jits_Phase_8,3,5,80,127,1544715828
63,17,15,Jits_Phase_8,0,5,56,103,1545466256
63,17,15,Jits_Phase_8,1,1,48,43,1545472964
63,17,15,Jits_Phase_8,2,5,63,98,1545485616
63,17,15,Jits_Phase_8,3,5,80,127,1545566736
63,17,15,Jits_Phase_8,0,5,63,98,1546236136
63,17,15,Jits_Phase_8,1,1,48,39,1546273580
63,17,15,Jits_Phase_8,2,5,56,103,1546295796
63,17,15,Jits_Phase_8,3,5,80,127,1546326368
63,17,15,Jits_Phase_8,0,1,48,39,1547021716
63,17,15,Jits_Phase_8,1,5,56,103,1547075844
63,17,15,Jits_Phase_8,2,5,80,127,1547136296
63,17,15,Jits_Phase_8,3,5,63,98,1547176384
63,17,15,Jits_Phase_8,0,5,63,98,1547856356
63,17,15,Jits_Phase_8,1,1,48,44,1547859920
63,17,15,Jits_Phase_8,2,5,56,103,1547915768
63,17,15,Jits_Phase_8,3,5,80,127,1547986180
63,17,15,Jits_Phase_8,0,1,48,40,1548717592
63,17,15,Jits_Phase_8,1,5,56,103,1548735828
63,17,15,Jits_Phase_8,2,5,63,98,1548746020
63,17,15,Jits_Phase_8,3,5,80,127,1548749532
63,17,15,Jits_Phase_8,0,5,63,98,1549476248
63,17,15,Jits_Phase_8,1,1,48,37,1549524848
63,17,15,Jits_Phase_8,2,5,56,103,1549535808
63,17,15,Jits_Phase_8,3,5,80,127,1549538948
63,17,15,Jits_Phase_8,0,5,63,98,1550255692
63,17,15,Jits_Phase_8,1,5,80,127,1550286268
63,17,15,Jits_Phase_8,2,5,56,103,1550305532
63,17,15,Jits_Phase_8,3,1,48,33,1550319208
63,17,15,Jits_Phase_8,0,5,56,103,1550985844
63,17,15,Jits_Phase_8,1,5,63,98,1551035748
63,17,15,Jits_Phase_8,2,1,48,38,1551061484
63,17,15,Jits_Phase_8,3,5,80,127,1551115932
63,17,15,Jits_Phase_8,0,5,80,127,1551686060
63,17,15,Jits_Phase_8,1,5,63,98,1551725848
63,17,15,Jits_Phase_8,2,5,56,103,1551746604
63,17,15,Jits_Phase_8,3,1,48,39,1551802608
63,17,15,Jits_Phase_8,0,1,48,37,1552496664
63,17,15,Jits_Phase_8,1,5,56,103,1552556544
63,17,15,Jits_Phase_8,2,5,80,127,1552565696
63,17,15,Jits_Phase_8,3,5,63,98,1552586080
63,17,15,Jits_Phase_8,0,1,48,36,1553269660
63,17,15,Jits_Phase_8,1,5,56,103,1553335776
63,17,15,Jits_Phase_8,2,5,63,98,1553385964
63,17,15,Jits_Phase_8,3,5,80,127,1553415812
63,17,15,Jits_Phase_8,0,5,56,103,1554086244
63,17,15,Jits_Phase_8,1,5,63,98,1554095544
63,17,15,Jits_Phase_8,2,1,48,32,1554133268
63,17,15,Jits_Phase_8,3,5,80,127,1554145740
63,17,15,Jits_Phase_8,0,5,56,103,1554875820
63,17,15,Jits_Phase_8,1,5,80,127,1554879036
63,17,15,Jits_Phase_8,2,1,48,32,1554904716
63,17,15,Jits_Phase_8,3,5,63,98,1555035552
63,17,15,Jits_Phase_8,0,5,63,98,1555695964
63,17,15,Jits_Phase_8,1,1,48,39,1555711140
63,17,15,Jits_Phase_8,2,5,56,103,1555765588
63,17,15,Jits_Phase_8,3,5,80,127,1555805676
63,17,15,Jits_Phase_8,0,1,48,34,1556525316
63,17,15,Jits_Phase_8,1,5,63,98,1556535676
63,17,15,Jits_Phase_8,2,5,56,103,1556625796
63,17,15,Jits_Phase_8,3,5,80,127,1556628860
63,17,15,Jits_Phase_8,0,5,56,103,1557315884
63,17,15,Jits_Phase_8,1,5,63,98,1557406164
63,17,15,Jits_Phase_8,2,1,48,30,1557407132
63,17,15,Jits_Phase_8,3,5,80,127,1557416280
63,17,15,Jits_Phase_8,0,5,56,103,1558086064
63,17,15,Jits_Phase_8,1,5,63,98,1558136116
63,17,15,Jits_Phase_8,2,5,80,127,1558165940
63,17,15,Jits_Phase_8,3,1,48,35,1558194608
63,17,15,Jits_Phase_8,0,1,48,36,1558898456
63,17,15,Jits_Phase_8,1,5,63,98,1558965468
63,17,15,Jits_Phase_8,2,5,80,127,1558975740
63,17,15,Jits_Phase_8,3,5,56,103,1559036412
63,17,15,Jits_Phase_8,0,5,63,98,1559685596
63,17,15,Jits_Phase_8,1,5,80,127,1559745912
63,17,15,Jits_Phase_8,2,5,56,103,1559785924
63,17,15,Jits_Phase_8,3,1,48,43,1559791808
63,17,15,Jits_Phase_8,0,1,48,36,1560536568
63,17,15,Jits_Phase_8,1,5,56,103,1560585692
63,17,15,Jits_Phase_8,2,5,80,127,1560606076
63,17,15,Jits_Phase_8,3,5,63,98,1560625636
63,17,15,Jits_Phase_8,0,5,63,98,1561305568
63,17,15,Jits_Phase_8,1,5,56,103,1561325808
63,17,15,Jits_Phase_8,2,1,48,35,1561333632
63,17,15,Jits_Phase_8,3,5,80,127,1561365760
63,17,15,Jits_Phase_8,0,1,48,35,1562101912
63,17,15,Jits_Phase_8,1,5,63,98,1562115508
63,17,15,Jits_Phase_8,2,5,80,127,1562146528
63,17,15,Jits_Phase_8,3,5,56,103,1562165644
63,17,15,Jits_Phase_8,0,5,80,127,1562885500
63,17,15,Jits_Phase_8,1,1,48,36,1562912584
63,17,15,Jits_Phase_8,2,5,56,103,1562935624
63,17,15,Jits_Phase_8,3,5,63,98,1562996236
63,17,15,Jits_Phase_8,0,5,63,98,1563675904
63,17,15,Jits_Phase_8,1,1,48,37,1563751312
63,17,15,Jits_Phase_8,2,5,56,103,1563795924
63,17,15,Jits_Phase_8,3,5,80,127,1563825452
63,17,15,Jits_Phase_8,0,5,80,127,1564515676
63,17,15,Jits_Phase_8,1,1,48,40,1564536356
63,17,15,Jits_Phase_8,2,5,63,98,1564537768
63,17,15,Jits_Phase_8,3,5,56,103,1564605808
63,17,15,Jits_Phase_8,0,5,63,98,1565335904
63,17,15,Jits_Phase_8,1,5,56,103,1565346396
63,17,15,Jits_Phase_8,2,1,48,33,1565372440
63,17,15,Jits_Phase_8,3,5,80,127,1565426184
63,17,15,Jits_Phase_8,0,1,48,38,1566140500
63,17,15,Jits_Phase_8,1,5,56,103,1566196048
63,17,15,Jits_Phase_8,2,5,80,127,1566225820
63,17,15,Jits_Phase_8,3,5,63,98,1566236152
63,17,15,Jits_Phase_8,0,9999,9999,9999,1431353404
63,17,15,Jits_Phase_8,1,9999,9999,9999,1432153200
63,17,15,Jits_Phase_8,2,9999,9999,9999,1432953964
63,17,15,Jits_Phase_8,3,9999,9999,9999,1433753664
63,17,15,Jits_Phase_8,4,9999,9999,9999,1434553432
63,17,15,Jits_Phase_8,5,9999,9999,9999,1435353192
63,17,15,Jits_Phase_8,6,9999,9999,9999,1436153920
63,17,15,Jits_Phase_8,7,9999,9999,9999,1436953720
63,17,15,Jits_Phase_8,8,9999,9999,9999,1437753424
63,17,15,Jits_Phase_8,9,9999,9999,9999,1438553172
63,17,15,Jits_Phase_8,10,9999,9999,9999,1439353920
63,17,15,Jits_Phase_8,11,9999,9999,9999,1440153684
63,17,15,Jits_Phase_8,12,9999,9999,9999,1440953460
63,17,15,Jits_Phase_8,13,9999,9999,9999,1441753156
63,17,15,Jits_Phase_8,14,9999,9999,9999,1442553948
63,17,15,Jits_Phase_8,15,9999,9999,9999,1443353656
63,17,15,Jits_Phase_8,16,9999,9999,9999,1444153472
63,17,15,Jits_Phase_8,17,9999,9999,9999,1444953172
63,17,15,Jits_Phase_8,18,9999,9999,9999,1445753980
63,17,15,Jits_Phase_8,19,9999,9999,9999,1446553680
63,17,15,Jits_Phase_8,20,9999,9999,9999,1447353432
63,17,15,Jits_Phase_8,21,9999,9999,9999,1448153192
63,17,15,Jits_Phase_8,22,9999,9999,9999,1448953924
63,17,15,Jits_Phase_8,23,9999,9999,9999,1449753720
63,17,15,Jits_Phase_8,24,9999,9999,9999,1450553400
63,17,15,Jits_Phase_8,25,9999,9999,9999,1451353152
63,17,15,Jits_Phase_8,26,9999,9999,9999,1452153976
63,17,15,Jits_Phase_8,27,9999,9999,9999,1452953660
63,17,15,Jits_Phase_8,28,9999,9999,9999,1453753432
63,17,15,Jits_Phase_8,29,9999,9999,9999,1454553212
63,17,15,Jits_Phase_8,30,9999,9999,9999,1455333484
63,17,15,Jits_Phase_8,31,9999,9999,9999,1456133248
63,17,15,Jits_Phase_8,32,9999,9999,9999,1456934008
63,17,15,Jits_Phase_8,33,9999,9999,9999,1457733700
63,17,15,Jits_Phase_8,34,9999,9999,9999,1458533460
63,17,15,Jits_Phase_8,35,9999,9999,9999,1459333224
63,17,15,Jits_Phase_8,36,9999,9999,9999,1460133960
63,17,15,Jits_Phase_8,37,9999,9999,9999,1460933732
63,17,15,Jits_Phase_8,38,9999,9999,9999,1461733500
63,17,15,Jits_Phase_8,39,9999,9999,9999,1462533204
63,17,15,Jits_Phase_8,40,9999,9999,9999,1463333968
63,17,15,Jits_Phase_8,41,9999,9999,9999,1464133744
63,17,15,Jits_Phase_8,42,9999,9999,9999,1464933496
63,17,15,Jits_Phase_8,43,9999,9999,9999,1465733184
63,17,15,Jits_Phase_8,44,9999,9999,9999,1466533976
63,17,15,Jits_Phase_8,45,9999,9999,9999,1467333736
63,17,15,Jits_Phase_8,46,9999,9999,9999,1468133436
63,17,15,Jits_Phase_8,47,9999,9999,9999,1468933204
63,17,15,Jits_Phase_8,48,9999,9999,9999,1469753448
63,17,15,Jits_Phase_8,49,9999,9999,9999,1470553144
63,17,15,Jits_Phase_8,50,9999,9999,9999,1471353944
63,17,15,Jits_Phase_8,51,9999,9999,9999,1472153716
63,17,15,Jits_Phase_8,52,9999,9999,9999,1472953400
63,17,15,Jits_Phase_8,53,9999,9999,9999,1473753180
63,17,15,Jits_Phase_8,54,9999,9999,9999,1474553920
63,17,15,Jits_Phase_8,55,9999,9999,9999,1475353720
63,17,15,Jits_Phase_8,56,9999,9999,9999,1476153396
63,17,15,Jits_Phase_8,57,9999,9999,9999,1476953168
63,17,15,Jits_Phase_8,58,9999,9999,9999,1477753972
63,17,15,Jits_Phase_8,59,9999,9999,9999,1478553656
63,17,15,Jits_Phase_8,60,9999,9999,9999,1479353424
63,17,15,Jits_Phase_8,61,9999,9999,9999,1480153200
63,17,15,Jits_Phase_8,62,9999,9999,9999,1480953940
63,17,15,Jits_Phase_8,63,9999,9999,9999,1481753716
63,17,15,Jits_Phase_8,64,9999,9999,9999,1482593336
63,17,15,Jits_Phase_8,65,9999,9999,9999,1483393096
63,17,15,Jits_Phase_8,66,9999,9999,9999,1484193844
63,17,15,Jits_Phase_8,67,9999,9999,9999,1484993608
63,17,15,Jits_Phase_8,68,9999,9999,9999,1485793352
63,17,15,Jits_Phase_8,69,9999,9999,9999,1486593128
63,17,15,Jits_Phase_8,70,9999,9999,9999,1487393880
63,17,15,Jits_Phase_8,71,9999,9999,9999,1488193648
63,17,15,Jits_Phase_8,72,9999,9999,9999,1488993404
63,17,15,Jits_Phase_8,73,9999,9999,9999,1489793104
63,17,15,Jits_Phase_8,74,9999,9999,9999,1490593916
63,17,15,Jits_Phase_8,75,9999,9999,9999,1491393600
63,17,15,Jits_Phase_8,76,9999,9999,9999,1492193368
63,17,15,Jits_Phase_8,77,9999,9999,9999,1492993140
63,17,15,Jits_Phase_8,78,9999,9999,9999,1493793900
63,17,15,Jits_Phase_8,79,9999,9999,9999,1494593596
63,17,15,Jits_Phase_8,80,9999,9999,9999,1495393356
63,17,15,Jits_Phase_8,81,9999,9999,9999,1496153160
63,17,15,Jits_Phase_8,82,9999,9999,9999,1496953960
63,17,15,Jits_Phase_8,83,9999,9999,9999,1497753716
63,17,15,Jits_Phase_8,84,9999,9999,9999,1498553468
63,17,15,Jits_Phase_8,85,9999,9999,9999,1499353168
63,17,15,Jits_Phase_8,86,9999,9999,9999,1500153912
63,17,15,Jits_Phase_8,87,9999,9999,9999,1500953692
63,17,15,Jits_Phase_8,88,9999,9999,9999,1501753448
63,17,15,Jits_Phase_8,89,9999,9999,9999,1502553140
63,17,15,Jits_Phase_8,90,9999,9999,9999,1503353956
63,17,15,Jits_Phase_8,91,9999,9999,9999,1504153712
63,17,15,Jits_Phase_8,92,9999,9999,9999,1504953412
63,17,15,Jits_Phase_8,93,9999,9999,9999,1505753168
63,17,15,Jits_Phase_8,94,9999,9999,9999,1506553972
63,17,15,Jits_Phase_8,95,9999,9999,9999,1507353676
63,17,15,Jits_Phase_8,96,9999,9999,9999,1508153448
63,17,15,Jits_Phase_8,97,9999,9999,9999,1508873272
63,17,15,Jits_Phase_8,98,9999,9999,9999,1509674092
63,17,15,Jits_Phase_8,99,9999,9999,9999,1510473796
63,17,15,Jits_Phase_8,100,9999,9999,9999,1511273560
63,17,15,Jits_Phase_8,101,9999,9999,9999,1512073320
63,17,15,Jits_Phase_8,102,9999,9999,9999,1512874056
63,17,15,Jits_Phase_8,103,9999,9999,9999,1513673816
63,17,15,Jits_Phase_8,104,9999,9999,9999,1514473588
63,17,15,Jits_Phase_8,105,9999,9999,9999,1515273300
63,17,15,Jits_Phase_8,106,9999,9999,9999,1516074096
63,17,15,Jits_Phase_8,107,9999,9999,9999,1516873836
63,17,15,Jits_Phase_8,108,9999,9999,9999,1517673600
63,17,15,Jits_Phase_8,109,9999,9999,9999,1518473280
63,17,15,Jits_Phase_8,110,9999,9999,9999,1519274104
63,17,15,Jits_Phase_8,111,9999,9999,9999,1520073792
63,17,15,Jits_Phase_8,112,9999,9999,9999,1520873556
63,17,15,Jits_Phase_8,113,9999,9999,9999,1521673280
63,17,15,Jits_Phase_8,114,9999,9999,9999,1522553948
63,17,15,Jits_Phase_8,115,9999,9999,9999,1523353704
63,17,15,Jits_Phase_8,116,9999,9999,9999,1524153468
63,17,15,Jits_Phase_8,117,9999,9999,9999,1524953156
63,17,15,Jits_Phase_8,118,9999,9999,9999,1525753952
63,17,15,Jits_Phase_8,119,9999,9999,9999,1526553672
63,17,15,Jits_Phase_8,120,9999,9999,9999,1527353440
63,17,15,Jits_Phase_8,121,9999,9999,9999,1528153200
63,17,15,Jits_Phase_8,122,9999,9999,9999,1528953924
63,17,15,Jits_Phase_8,123,9999,9999,9999,1529753676
63,17,15,Jits_Phase_8,124,9999,9999,9999,1530553444
63,17,15,Jits_Phase_8,125,9999,9999,9999,1531353168
63,17,15,Jits_Phase_8,126,9999,9999,9999,1532153912
63,17,15,Jits_Phase_8,127,9999,9999,9999,1532953700
63,17,15,Jits_Phase_8,128,9999,9999,9999,1533753460
63,17,15,Jits_Phase_8,129,9999,9999,9999,1534553160
63,17,15,Jits_Phase_8,130,9999,9999,9999,1535353960
63,17,15,Jits_Phase_8,131,9999,9999,9999,1536313412
63,17,15,Jits_Phase_8,132,9999,9999,9999,1537113168
63,17,15,Jits_Phase_8,133,9999,9999,9999,1537913980
63,17,15,Jits_Phase_8,134,9999,9999,9999,1538713664
63,17,15,Jits_Phase_8,135,9999,9999,9999,1539513408
63,17,15,Jits_Phase_8,136,9999,9999,9999,1540313168
63,17,15,Jits_Phase_8,137,9999,9999,9999,1541113912
63,17,15,Jits_Phase_8,138,9999,9999,9999,1541913712
63,17,15,Jits_Phase_8,139,9999,9999,9999,1542713408
63,17,15,Jits_Phase_8,140,9999,9999,9999,1543513168
63,17,15,Jits_Phase_8,141,9999,9999,9999,1544313968
63,17,15,Jits_Phase_8,142,9999,9999,9999,1545113660
63,17,15,Jits_Phase_8,143,9999,9999,9999,1545913420
63,17,15,Jits_Phase_8,144,9999,9999,9999,1546713188
63,17,15,Jits_Phase_8,145,9999,9999,9999,1547513928
63,17,15,Jits_Phase_8,146,9999,9999,9999,1548313708
63,17,15,Jits_Phase_8,147,9999,9999,9999,1549113464
63,17,15,Jits_Phase_8,148,9999,9999,9999,1549913216
63,17,15,Jits_Phase_8,149,9999,9999,9999,1550713940
63,17,15,Jits_Phase_8,150,9999,9999,9999,1551353952
63,17,15,Jits_Phase_8,151,9999,9999,9999,1552153672
63,17,15,Jits_Phase_8,152,9999,9999,9999,1552953444
63,17,15,Jits_Phase_8,153,9999,9999,9999,1553753208
63,17,15,Jits_Phase_8,154,9999,9999,9999,1554553932
63,17,15,Jits_Phase_8,155,9999,9999,9999,1555353692
63,17,15,Jits_Phase_8,156,9999,9999,9999,1556153468
63,17,15,Jits_Phase_8,157,9999,9999,9999,1556953148
63,17,15,Jits_Phase_8,158,9999,9999,9999,1557753956
63,17,15,Jits_Phase_8,159,9999,9999,9999,1558553676
63,17,15,Jits_Phase_8,160,9999,9999,9999,1559353456
63,17,15,Jits_Phase_8,161,9999,9999,9999,1560153212
63,17,15,Jits_Phase_8,162,9999,9999,9999,1560953948
63,17,15,Jits_Phase_8,163,9999,9999,9999,1561753704
63,17,15,Jits_Phase_8,164,9999,9999,9999,1562553436
63,17,15,Jits_Phase_8,165,9999,9999,9999,1563353164
63,17,15,Jits_Phase_8,166,9999,9999,9999,1564153912
63,17,15,Jits_Phase_8,167,9999,9999,9999,1564953696
63,17,15,Jits_Phase_8,168,9999,9999,9999,1565753400
63,17,15,Jits_Phase_8,169,9999,9999,9999,1566553172
63,18,19,Jits_Linear_5,0,5,56,103,1575884120
63,18,19,Jits_Linear_5,1,5,63,98,1575887368
63,18,19,Jits_Linear_5,2,5,80,127,1575890412
63,18,19,Jits_Linear_5,0,5,56,103,1576364356
63,18,19,Jits_Linear_5,1,5,63,98,1576367456
63,18,19,Jits_Linear_5,2,5,80,127,1576370576
63,18,19,Jits_Linear_5,0,1,48,36,1576831900
63,18,19,Jits_Linear_5,1,5,56,103,1576843780
63,18,19,Jits_Linear_5,2,5,80,127,1576853980
63,18,19,Jits_Linear_5,3,5,63,98,1576874512
63,18,19,Jits_Linear_5,0,5,63,98,1577273580
63,18,19,Jits_Linear_5,1,1,48,52,1577303476
63,18,19,Jits_Linear_5,2,5,80,127,1577305120
63,18,19,Jits_Linear_5,3,5,56,103,1577313520
63,18,19,Jits_Linear_5,0,1,48,44,1577794884
63,18,19,Jits_Linear_5,1,5,80,127,1577814312
63,18,19,Jits_Linear_5,2,5,56,103,1577823464
63,18,19,Jits_Linear_5,3,5,63,98,1577854264
63,18,19,Jits_Linear_5,0,1,48,45,1578282444
63,18,19,Jits_Linear_5,1,5,63,98,1578293628
63,18,19,Jits_Linear_5,2,5,56,103,1578324280
63,18,19,Jits_Linear_5,3,5,80,127,1578333504
63,18,19,Jits_Linear_5,0,5,56,103,1578733884
63,18,19,Jits_Linear_5,1,1,48,49,1578777860
63,18,19,Jits_Linear_5,2,5,63,98,1578784032
63,18,19,Jits_Linear_5,3,5,80,127,1578803444
63,18,19,Jits_Linear_5,0,5,80,127,1579224524
63,18,19,Jits_Linear_5,1,1,48,49,1579235516
63,18,19,Jits_Linear_5,2,5,63,98,1579273772
63,18,19,Jits_Linear_5,3,5,56,103,1579313488
63,18,19,Jits_Linear_5,0,5,56,103,1579713960
63,18,19,Jits_Linear_5,1,1,48,46,1579734244
63,18,19,Jits_Linear_5,2,5,63,98,1579743708
63,18,19,Jits_Linear_5,3,5,80,127,1579814312
63,18,19,Jits_Linear_5,0,5,56,103,1580204376
63,18,19,Jits_Linear_5,1,1,48,45,1580215740
63,18,19,Jits_Linear_5,2,5,80,127,1580263940
63,18,19,Jits_Linear_5,3,5,63,98,1580293492
63,18,19,Jits_Linear_5,0,5,56,103,1580704232
63,18,19,Jits_Linear_5,1,5,63,98,1580714352
63,18,19,Jits_Linear_5,2,1,48,45,1580723172
63,18,19,Jits_Linear_5,3,5,80,127,1580754360
63,18,19,Jits_Linear_5,0,5,63,98,1581193516
63,18,19,Jits_Linear_5,1,1,48,48,1581201500
63,18,19,Jits_Linear_5,2,5,80,127,1581273388
63,18,19,Jits_Linear_5,3,5,56,103,1581283656
63,18,19,Jits_Linear_5,0,1,48,46,1581734680
63,18,19,Jits_Linear_5,1,5,63,98,1581743400
63,18,19,Jits_Linear_5,2,5,56,103,1581784536
63,18,19,Jits_Linear_5,3,5,80,127,1581787528
63,18,19,Jits_Linear_5,0,5,56,103,1582204276
63,18,19,Jits_Linear_5,1,5,63,98,1582213424
63,18,19,Jits_Linear_5,2,1,48,48,1582243072
63,18,19,Jits_Linear_5,3,5,80,127,1582253284
63,18,19,Jits_Linear_5,0,5,56,103,1582693932
63,18,19,Jits_Linear_5,1,5,63,98,1582697072
63,18,19,Jits_Linear_5,2,5,80,127,1582714244
63,18,19,Jits_Linear_5,3,1,48,52,1582735420
63,18,19,Jits_Linear_5,0,1,48,42,1583205204
63,18,19,Jits_Linear_5,1,5,80,127,1583213924
63,18,19,Jits_Linear_5,2,5,56,103,1583224120
63,18,19,Jits_Linear_5,3,5,63,98,1583293948
63,18,19,Jits_Linear_5,0,5,63,98,1583713764
63,18,19,Jits_Linear_5,1,5,56,103,1583734076
63,18,19,Jits_Linear_5,2,1,48,46,1583741084
63,18,19,Jits_Linear_5,3,5,80,127,1583814092
63,18,19,Jits_Linear_5,0,5,56,103,1584233908
63,18,19,Jits_Linear_5,1,1,48,45,1584250060
63,18,19,Jits_Linear_5,2,5,80,127,1584273844
63,18,19,Jits_Linear_5,3,5,63,98,1584283964
63,18,19,Jits_Linear_5,0,5,80,127,1584733684
63,18,19,Jits_Linear_5,1,5,63,98,1584764408
63,18,19,Jits_Linear_5,2,1,48,48,1584774052
63,18,19,Jits_Linear_5,3,5,56,103,1584804192
63,18,19,Jits_Linear_5,0,5,56,103,1585264108
63,18,19,Jits_Linear_5,1,1,48,44,1585280332
63,18,19,Jits_Linear_5,2,5,63,98,1585293776
63,18,19,Jits_Linear_5,3,5,80,127,1585343828
63,18,19,Jits_Linear_5,0,5,80,127,1585773852
63,18,19,Jits_Linear_5,1,1,48,43,1585799668
63,18,19,Jits_Linear_5,2,5,56,103,1585814008
63,18,19,Jits_Linear_5,3,5,63,98,1585824056
63,18,19,Jits_Linear_5,0,5,80,127,1586273704
63,18,19,Jits_Linear_5,1,5,63,98,1586313796
63,18,19,Jits_Linear_5,2,1,48,45,1586332576
63,18,19,Jits_Linear_5,3,5,56,103,1586373956
63,18,19,Jits_Linear_5,0,5,56,103,1586793784
63,18,19,Jits_Linear_5,1,5,80,127,1586804204
63,18,19,Jits_Linear_5,2,1,48,46,1586845608
63,18,19,Jits_Linear_5,3,5,63,98,1586883996
63,18,19,Jits_Linear_5,0,5,80,127,1587314016
63,18,19,Jits_Linear_5,1,1,48,46,1587363968
63,18,19,Jits_Linear_5,2,5,63,98,1587373280
63,18,19,Jits_Linear_5,3,5,56,103,1587404076
63,18,19,Jits_Linear_5,0,5,56,103,1587834096
63,18,19,Jits_Linear_5,1,5,80,127,1587893964
63,18,19,Jits_Linear_5,2,1,48,45,1587911012
63,18,19,Jits_Linear_5,3,5,63,98,1587933672
63,18,19,Jits_Linear_5,0,5,56,103,1588413892
63,18,19,Jits_Linear_5,1,5,63,98,1588424236
63,18,19,Jits_Linear_5,2,1,48,37,1588425144
63,18,19,Jits_Linear_5,3,5,80,127,1588428640
63,18,19,Jits_Linear_5,0,5,80,127,1588894104
63,18,19,Jits_Linear_5,1,1,48,35,1588922708
63,18,19,Jits_Linear_5,2,5,63,98,1588984240
63,18,19,Jits_Linear_5,3,5,56,103,1588994508
63,18,19,Jits_Linear_5,0,5,56,103,1589423460
63,18,19,Jits_Linear_5,1,5,63,98,1589426556
63,18,19,Jits_Linear_5,2,5,80,127,1589429752
63,18,19,Jits_Linear_5,3,1,48,45,1589464204
63,18,19,Jits_Linear_5,0,1,48,45,1589938544
63,18,19,Jits_Linear_5,1,5,80,127,1589974316
63,18,19,Jits_Linear_5,2,5,63,98,1590023872
63,18,19,Jits_Linear_5,3,5,56,103,1590054356
63,18,19,Jits_Linear_5,0,5,56,103,1590484204
63,18,19,Jits_Linear_5,1,5,80,127,1590493652
63,18,19,Jits_Linear_5,2,1,48,39,1590525992
63,18,19,Jits_Linear_5,3,5,63,98,1590564172
63,18,19,Jits_Linear_5,0,5,56,103,1591023984
63,18,19,Jits_Linear_5,1,5,63,98,1591043548
63,18,19,Jits_Linear_5,2,1,48,35,1591090192
63,18,19,Jits_Linear_5,3,5,80,127,1591103712
63,18,19,Jits_Linear_5,0,5,80,127,1591554456
63,18,19,Jits_Linear_5,1,1,48,41,1591590936
63,18,19,Jits_Linear_5,2,5,63,98,1591624012
63,18,19,Jits_Linear_5,3,5,56,103,1591643796
63,18,19,Jits_Linear_5,0,5,80,127,1592113452
63,18,19,Jits_Linear_5,1,5,56,103,1592123648
63,18,19,Jits_Linear_5,2,1,48,40,1592128788
63,18,19,Jits_Linear_5,3,5,63,98,1592134136
63,18,19,Jits_Linear_5,0,1,48,39,1592638960
63,18,19,Jits_Linear_5,1,5,80,127,1592644084
63,18,19,Jits_Linear_5,2,5,56,103,1592664324
63,18,19,Jits_Linear_5,3,5,63,98,1592734140
63,18,19,Jits_Linear_5,0,5,56,103,1593193904
63,18,19,Jits_Linear_5,1,1,48,37,1593220840
63,18,19,Jits_Linear_5,2,5,80,127,1593223648
63,18,19,Jits_Linear_5,3,5,63,98,1593243960
63,18,19,Jits_Linear_5,0,5,63,98,1593733692
63,18,19,Jits_Linear_5,1,1,48,35,1593764312
63,18,19,Jits_Linear_5,2,5,56,103,1593793784
63,18,19,Jits_Linear_5,3,5,80,127,1593823904
63,18,19,Jits_Linear_5,0,5,63,98,1594274140
63,18,19,Jits_Linear_5,1,5,80,127,1594277504
63,18,19,Jits_Linear_5,2,1,48,36,1594306028
63,18,19,Jits_Linear_5,3,5,56,103,1594364264
63,18,19,Jits_Linear_5,0,5,56,103,1594843792
63,18,19,Jits_Linear_5,1,1,48,38,1594860620
63,18,19,Jits_Linear_5,2,5,63,98,1594874212
63,18,19,Jits_Linear_5,3,5,80,127,1594914104
63,18,19,Jits_Linear_5,0,5,63,98,1595394368
63,18,19,Jits_Linear_5,1,1,48,36,1595403588
63,18,19,Jits_Linear_5,2,5,56,103,1595434328
63,18,19,Jits_Linear_5,3,5,80,127,1595453888
63,18,19,Jits_Linear_5,0,1,48,41,1595951752
63,18,19,Jits_Linear_5,1,5,63,98,1595953712
63,18,19,Jits_Linear_5,2,5,56,103,1595993580
63,18,19,Jits_Linear_5,3,5,80,127,1596003704
63,18,19,Jits_Linear_5,0,5,80,127,1596483980
63,18,19,Jits_Linear_5,1,1,48,37,1596509572
63,18,19,Jits_Linear_5,2,5,63,98,1596553660
63,18,19,Jits_Linear_5,3,5,56,103,1596574120
63,18,19,Jits_Linear_5,0,5,56,103,1597033884
63,18,19,Jits_Linear_5,1,5,80,127,1597054268
63,18,19,Jits_Linear_5,2,5,63,98,1597094208
63,18,19,Jits_Linear_5,3,1,48,43,1597125872
63,18,19,Jits_Linear_5,0,5,63,98,1597604232
63,18,19,Jits_Linear_5,1,5,80,127,1597623644
63,18,19,Jits_Linear_5,2,1,48,42,1597628036
63,18,19,Jits_Linear_5,3,5,56,103,1597663576
63,18,19,Jits_Linear_5,0,1,48,41,1598147936
63,18,19,Jits_Linear_5,1,5,63,98,1598164296
63,18,19,Jits_Linear_5,2,5,56,103,1598183860
63,18,19,Jits_Linear_5,3,5,80,127,1598193908
63,18,19,Jits_Linear_5,0,1,48,44,1598686952
63,18,19,Jits_Linear_5,1,5,80,127,1598724016
63,18,19,Jits_Linear_5,2,5,56,103,1598743880
63,18,19,Jits_Linear_5,3,5,63,98,1598773780
63,18,19,Jits_Linear_5,0,1,48,39,1599240228
63,18,19,Jits_Linear_5,1,5,56,103,1599363644
63,18,19,Jits_Linear_5,2,5,80,127,1599366636
63,18,19,Jits_Linear_5,3,5,63,98,1599383804
63,18,19,Jits_Linear_5,0,5,63,98,1599853980
63,18,19,Jits_Linear_5,1,5,56,103,1599883660
63,18,19,Jits_Linear_5,2,1,48,42,1599927756
63,18,19,Jits_Linear_5,3,5,80,127,1599943968
63,18,19,Jits_Linear_5,0,1,48,32,1600440088
63,18,19,Jits_Linear_5,1,5,63,98,1600504036
63,18,19,Jits_Linear_5,2,5,56,103,1600514532
63,18,19,Jits_Linear_5,3,5,80,127,1600523704
63,18,19,Jits_Linear_5,0,5,56,103,1601024480
63,18,19,Jits_Linear_5,1,1,48,40,1601030840
63,18,19,Jits_Linear_5,2,5,80,127,1601054028
63,18,19,Jits_Linear_5,3,5,63,98,1601064596
63,18,19,Jits_Linear_5,0,1,48,40,1601615428
63,18,19,Jits_Linear_5,1,5,63,98,1601633664
63,18,19,Jits_Linear_5,2,5,56,103,1601643860
63,18,19,Jits_Linear_5,3,5,80,127,1601664468
63,18,19,Jits_Linear_5,0,5,56,103,1602134480
63,18,19,Jits_Linear_5,1,1,48,38,1602190112
63,18,19,Jits_Linear_5,2,5,63,98,1602193816
63,18,19,Jits_Linear_5,3,5,80,127,1602197108
63,18,19,Jits_Linear_5,0,5,80,127,1602733520
63,18,19,Jits_Linear_5,1,1,48,40,1602738212
63,18,19,Jits_Linear_5,2,5,56,103,1602743784
63,18,19,Jits_Linear_5,3,5,63,98,1602814588
63,18,19,Jits_Linear_5,0,5,80,127,1603303796
63,18,19,Jits_Linear_5,1,1,48,39,1603336684
63,18,19,Jits_Linear_5,2,5,56,103,1603373572
63,18,19,Jits_Linear_5,3,5,63,98,1603383692
63,18,19,Jits_Linear_5,0,5,63,98,1603924744
63,18,19,Jits_Linear_5,1,5,56,103,1603933596
63,18,19,Jits_Linear_5,2,5,80,127,1603953980
63,18,19,Jits_Linear_5,3,1,48,41,1603954944
63,18,19,Jits_Linear_5,0,5,80,127,1604453728
63,18,19,Jits_Linear_5,1,1,48,40,1604508536
63,18,19,Jits_Linear_5,2,5,63,98,1604514264
63,18,19,Jits_Linear_5,3,5,56,103,1604553980
63,18,19,Jits_Linear_5,0,5,56,103,1605083572
63,18,19,Jits_Linear_5,1,5,63,98,1605093844
63,18,19,Jits_Linear_5,2,1,48,40,1605100028
63,18,19,Jits_Linear_5,3,5,80,127,1605133728
63,18,19,Jits_Linear_5,0,5,56,103,1605634592
63,18,19,Jits_Linear_5,1,5,80,127,1605664296
63,18,19,Jits_Linear_5,2,1,48,40,1605674832
63,18,19,Jits_Linear_5,3,5,63,98,1605714268
63,18,19,Jits_Linear_5,0,1,48,39,1606241508
63,18,19,Jits_Linear_5,1,5,56,103,1606264300
63,18,19,Jits_Linear_5,2,5,63,98,1606304540
63,18,19,Jits_Linear_5,3,5,80,127,1606307604
63,18,19,Jits_Linear_5,0,1,48,40,1606836552
63,18,19,Jits_Linear_5,1,5,56,103,1606853888
63,18,19,Jits_Linear_5,2,5,63,98,1606864384
63,18,19,Jits_Linear_5,3,5,80,127,1606883648
63,18,19,Jits_Linear_5,0,5,56,103,1607403924
63,18,19,Jits_Linear_5,1,5,80,127,1607406840
63,18,19,Jits_Linear_5,2,1,48,41,1607417752
63,18,19,Jits_Linear_5,3,5,63,98,1607443880
63,18,19,Jits_Linear_5,0,1,48,43,1608009464
63,18,19,Jits_Linear_5,1,5,63,98,1608033624
63,18,19,Jits_Linear_5,2,5,56,103,1608064644
63,18,19,Jits_Linear_5,3,5,80,127,1608083760
63,18,19,Jits_Linear_5,0,1,48,40,1608590960
63,18,19,Jits_Linear_5,1,5,80,127,1608603960
63,18,19,Jits_Linear_5,2,5,56,103,1608614452
63,18,19,Jits_Linear_5,3,5,63,98,1608623528
63,18,19,Jits_Linear_5,0,1,48,43,1609175088
63,18,19,Jits_Linear_5,1,5,56,103,1609204036
63,18,19,Jits_Linear_5,2,5,80,127,1609244000
63,18,19,Jits_Linear_5,3,5,63,98,1609273664
63,18,19,Jits_Linear_5,0,5,63,98,1609814560
63,18,19,Jits_Linear_5,1,1,48,46,1609821196
63,18,19,Jits_Linear_5,2,5,80,127,1609823556
63,18,19,Jits_Linear_5,3,5,56,103,1609833824
63,18,19,Jits_Linear_5,0,5,56,103,1610394032
63,18,19,Jits_Linear_5,1,1,48,42,1610422636
63,18,19,Jits_Linear_5,2,5,63,98,1610463640
63,18,19,Jits_Linear_5,3,5,80,127,1610473984
63,18,19,Jits_Linear_5,0,5,80,127,1611004544
63,18,19,Jits_Linear_5,1,5,56,103,1611013348
63,18,19,Jits_Linear_5,2,1,48,43,1611061652
63,18,19,Jits_Linear_5,3,5,63,98,1611063616
63,18,19,Jits_Linear_5,0,5,80,127,1611623772
63,18,19,Jits_Linear_5,1,1,48,41,1611625036
63,18,19,Jits_Linear_5,2,5,56,103,1611684308
63,18,19,Jits_Linear_5,3,5,63,98,1611713760
63,18,19,Jits_Linear_5,0,5,56,103,1612234132
63,18,19,Jits_Linear_5,1,5,80,127,1612237124
63,18,19,Jits_Linear_5,2,1,48,43,1612267440
63,18,19,Jits_Linear_5,3,5,63,98,1612273988
63,18,19,Jits_Linear_5,0,1,48,48,1612854140
63,18,19,Jits_Linear_5,1,5,56,103,1612874540
63,18,19,Jits_Linear_5,2,5,63,98,1612903920
63,18,19,Jits_Linear_5,3,5,80,127,1612913968
63,18,19,Jits_Linear_5,0,1,48,41,1613490552
63,18,19,Jits_Linear_5,1,5,63,98,1613493584
63,18,19,Jits_Linear_5,2,5,80,127,1613503856
63,18,19,Jits_Linear_5,3,5,56,103,1613514496
63,18,19,Jits_Linear_5,0,5,80,127,1614053664
63,18,19,Jits_Linear_5,1,5,56,103,1614104040
63,18,19,Jits_Linear_5,2,5,63,98,1614106960
63,18,19,Jits_Linear_5,3,1,48,37,1614113608
63,18,19,Jits_Linear_5,0,5,56,103,1614704268
63,18,19,Jits_Linear_5,1,5,80,127,1614723460
63,18,19,Jits_Linear_5,2,5,63,98,1614733804
63,18,19,Jits_Linear_5,3,1,48,43,1614735744
63,18,19,Jits_Linear_5,0,5,63,98,1615304216
63,18,19,Jits_Linear_5,1,1,48,41,1615313484
63,18,19,Jits_Linear_5,2,5,56,103,1615333812
63,18,19,Jits_Linear_5,3,5,80,127,1615354196
63,18,19,Jits_Linear_5,0,1,48,38,1615893728
63,18,19,Jits_Linear_5,1,5,56,103,1615933832
63,18,19,Jits_Linear_5,2,5,80,127,1615944324
63,18,19,Jits_Linear_5,3,5,63,98,1616013548
63,18,19,Jits_Linear_5,0,1,48,44,1616535532
63,18,19,Jits_Linear_5,1,5,63,98,1616544252
63,18,19,Jits_Linear_5,2,5,80,127,1616584340
63,18,19,Jits_Linear_5,3,5,56,103,1616624204
63,18,19,Jits_Linear_5,0,5,56,103,1617184216
63,18,19,Jits_Linear_5,1,5,63,98,1617194488
63,18,19,Jits_Linear_5,2,5,80,127,1617213752
63,18,19,Jits_Linear_5,3,1,48,40,1617225340
63,18,19,Jits_Linear_5,0,1,48,38,1617849756
63,18,19,Jits_Linear_5,1,5,63,98,1617853760
63,18,19,Jits_Linear_5,2,5,80,127,1617874296
63,18,19,Jits_Linear_5,3,5,56,103,1617893632
63,18,19,Jits_Linear_5,0,5,56,103,1618424328
63,18,19,Jits_Linear_5,1,1,48,39,1618476624
63,18,19,Jits_Linear_5,2,5,80,127,1618504148
63,18,19,Jits_Linear_5,3,5,63,98,1618514420
63,18,19,Jits_Linear_5,0,5,80,127,1619094132
63,18,19,Jits_Linear_5,1,5,63,98,1619104256
63,18,19,Jits_Linear_5,2,1,48,42,1619123564
63,18,19,Jits_Linear_5,3,5,56,103,1619133776
63,18,19,Jits_Linear_5,0,5,63,98,1619683816
63,18,19,Jits_Linear_5,1,1,48,40,1619695704
63,18,19,Jits_Linear_5,2,5,80,127,1619723700
63,18,19,Jits_Linear_5,3,5,56,103,1619784092
63,18,19,Jits_Linear_5,0,5,63,98,1620323632
63,18,19,Jits_Linear_5,1,1,48,42,1620343608
63,18,19,Jits_Linear_5,2,5,56,103,1620373976
63,18,19,Jits_Linear_5,3,5,80,127,1620403504
63,18,19,Jits_Linear_5,0,5,80,127,1620974060
63,18,19,Jits_Linear_5,1,5,63,98,1620984108
63,18,19,Jits_Linear_5,2,1,48,40,1620995200
63,18,19,Jits_Linear_5,3,5,56,103,1621053884
63,18,19,Jits_Linear_5,0,1,48,41,1621618496
63,18,19,Jits_Linear_5,1,5,80,127,1621683564
63,18,19,Jits_Linear_5,2,5,56,103,1621693680
63,18,19,Jits_Linear_5,3,5,63,98,1621696828
63,18,19,Jits_Linear_5,0,5,56,103,1622264240
63,18,19,Jits_Linear_5,1,5,80,127,1622283604
63,18,19,Jits_Linear_5,2,5,63,98,1622293872
63,18,19,Jits_Linear_5,3,1,48,42,1622300956
63,18,19,Jits_Linear_5,0,1,48,39,1622901176
63,18,19,Jits_Linear_5,1,5,63,98,1622914328
63,18,19,Jits_Linear_5,2,5,56,103,1622954340
63,18,19,Jits_Linear_5,3,5,80,127,1622974052
63,18,19,Jits_Linear_5,0,1,48,42,1623551608
63,18,19,Jits_Linear_5,1,5,63,98,1623563588
63,18,19,Jits_Linear_5,2,5,56,103,1623624056
63,18,19,Jits_Linear_5,3,5,80,127,1623627120
63,18,19,Jits_Linear_5,0,5,56,103,1624174080
63,18,19,Jits_Linear_5,1,5,80,127,1624194320
63,18,19,Jits_Linear_5,2,5,63,98,1624234332
63,18,19,Jits_Linear_5,3,1,48,42,1624261192
63,18,19,Jits_Linear_5,0,1,48,40,1624847964
63,18,19,Jits_Linear_5,1,5,56,103,1624853840
63,18,19,Jits_Linear_5,2,5,63,98,1624874300
63,18,19,Jits_Linear_5,3,5,80,127,1624883672
63,18,19,Jits_Linear_5,0,1,48,40,1625465280
63,18,19,Jits_Linear_5,1,5,80,127,1625474372
63,18,19,Jits_Linear_5,2,5,56,103,1625504052
63,18,19,Jits_Linear_5,3,5,63,98,1625544140
63,18,19,Jits_Linear_5,0,1,48,37,1626116708
63,18,19,Jits_Linear_5,1,5,80,127,1626133968
63,18,19,Jits_Linear_5,2,5,56,103,1626154576
63,18,19,Jits_Linear_5,3,5,63,98,1626214728
63,18,19,Jits_Linear_5,0,5,56,103,1626794288
63,18,19,Jits_Linear_5,1,1,48,41,1626810136
63,18,19,Jits_Linear_5,2,5,80,127,1626813920
63,18,19,Jits_Linear_5,3,5,63,98,1626874160
63,18,19,Jits_Linear_5,0,5,80,127,1627434268
63,18,19,Jits_Linear_5,1,5,56,103,1627443564
63,18,19,Jits_Linear_5,2,1,48,43,1627474332
63,18,19,Jits_Linear_5,3,5,63,98,1627483500
63,18,19,Jits_Linear_5,0,5,63,98,1628093992
63,18,19,Jits_Linear_5,1,1,48,35,1628095636
63,18,19,Jits_Linear_5,2,5,56,103,1628133704
63,18,19,Jits_Linear_5,3,5,80,127,1628136844
63,18,19,Jits_Linear_5,0,1,48,39,1628764336
63,18,19,Jits_Linear_5,1,5,63,98,1628773948
63,18,19,Jits_Linear_5,2,5,80,127,1628813816
63,18,19,Jits_Linear_5,3,5,56,103,1628844388
63,18,19,Jits_Linear_5,0,5,56,103,1629423936
63,18,19,Jits_Linear_5,1,5,63,98,1629434204
63,18,19,Jits_Linear_5,2,1,48,38,1629435172
63,18,19,Jits_Linear_5,3,5,80,127,1629464048
63,18,19,Jits_Linear_5,0,5,80,127,1630083392
63,18,19,Jits_Linear_5,1,1,48,40,1630099316
63,18,19,Jits_Linear_5,2,5,63,98,1630154044
63,18,19,Jits_Linear_5,3,5,56,103,1630164240
63,18,19,Jits_Linear_5,0,5,63,98,1630754156
63,18,19,Jits_Linear_5,1,1,48,39,1630783204
63,18,19,Jits_Linear_5,2,5,56,103,1630823912
63,18,19,Jits_Linear_5,3,5,80,127,1630833960
63,18,19,Jits_Linear_5,0,5,63,98,1631424064
63,18,19,Jits_Linear_5,1,1,48,32,1631442932
63,18,19,Jits_Linear_5,2,5,56,103,1631444444
63,18,19,Jits_Linear_5,3,5,80,127,1631484308
63,18,19,Jits_Linear_5,0,1,48,42,1632076132
63,18,19,Jits_Linear_5,1,5,56,103,1632104028
63,18,19,Jits_Linear_5,2,5,63,98,1632114224
63,18,19,Jits_Linear_5,3,5,80,127,1632194004
63,18,19,Jits_Linear_5,0,5,63,98,1632764204
63,18,19,Jits_Linear_5,1,1,48,42,1632777536
63,18,19,Jits_Linear_5,2,5,56,103,1632794048
63,18,19,Jits_Linear_5,3,5,80,127,1632833988
63,18,19,Jits_Linear_5,0,1,48,43,1633427880
63,18,19,Jits_Linear_5,1,5,56,103,1633433904
63,18,19,Jits_Linear_5,2,5,63,98,1633474072
63,18,19,Jits_Linear_5,3,5,80,127,1633513788
63,18,19,Jits_Linear_5,0,1,48,36,1634101796
63,18,19,Jits_Linear_5,1,5,80,127,1634114028
63,18,19,Jits_Linear_5,2,5,56,103,1634193752
63,18,19,Jits_Linear_5,3,5,63,98,1634204156
63,18,19,Jits_Linear_5,0,5,56,103,1634833792
63,18,19,Jits_Linear_5,1,5,63,98,1634836860
63,18,19,Jits_Linear_5,2,5,80,127,1634844064
63,18,19,Jits_Linear_5,3,1,48,43,1634867856
63,18,19,Jits_Linear_5,0,5,56,103,1635534200
63,18,19,Jits_Linear_5,1,1,48,38,1635553912
63,18,19,Jits_Linear_5,2,5,63,98,1635555320
63,18,19,Jits_Linear_5,3,5,80,127,1635563804
63,18,19,Jits_Linear_5,0,5,63,98,1636174180
63,18,19,Jits_Linear_5,1,5,80,127,1636184376
63,18,19,Jits_Linear_5,2,5,56,103,1636203936
63,18,19,Jits_Linear_5,3,1,48,33,1636236272
63,18,19,Jits_Linear_5,0,1,48,42,1636833188
63,18,19,Jits_Linear_5,1,5,63,98,1636864308
63,18,19,Jits_Linear_5,2,5,56,103,1636944188
63,18,19,Jits_Linear_5,3,5,80,127,1636947332
63,18,19,Jits_Linear_5,0,1,48,43,1637526264
63,18,19,Jits_Linear_5,1,5,63,98,1637553492
63,18,19,Jits_Linear_5,2,5,56,103,1637573952
63,18,19,Jits_Linear_5,3,5,80,127,1637603924
63,18,19,Jits_Linear_5,0,1,48,42,1638203320
63,18,19,Jits_Linear_5,1,5,56,103,1638243876
63,18,19,Jits_Linear_5,2,5,63,98,1638264188
63,18,19,Jits_Linear_5,3,5,80,127,1638274536
63,18,19,Jits_Linear_5,0,1,48,43,1638905892
63,18,19,Jits_Linear_5,1,5,56,103,1638963784
63,18,19,Jits_Linear_5,2,5,63,98,1638994204
63,18,19,Jits_Linear_5,3,5,80,127,1638997572
63,18,19,Jits_Linear_5,0,5,56,103,1639603864
63,18,19,Jits_Linear_5,1,5,63,98,1639643584
63,18,19,Jits_Linear_5,2,1,48,41,1639670668
63,18,19,Jits_Linear_5,3,5,80,127,1639703920
63,18,19,Jits_Linear_5,0,5,56,103,1640314196
63,18,19,Jits_Linear_5,1,5,63,98,1640323344
63,18,19,Jits_Linear_5,2,1,48,43,1640341828
63,18,19,Jits_Linear_5,3,5,80,127,1640383728
63,18,19,Jits_Linear_5,0,1,48,43,1640997812
63,18,19,Jits_Linear_5,1,5,56,103,1641013728
63,18,19,Jits_Linear_5,2,5,80,127,1641034040
63,18,19,Jits_Linear_5,3,5,63,98,1641063868
63,18,19,Jits_Linear_5,0,1,48,32,1641688696
63,18,19,Jits_Linear_5,1,5,80,127,1641714128
63,18,19,Jits_Linear_5,2,5,56,103,1641724396
63,18,19,Jits_Linear_5,3,5,63,98,1641743836
63,18,19,Jits_Linear_5,0,1,48,40,1642383056
63,18,19,Jits_Linear_5,1,5,63,98,1642404204
63,18,19,Jits_Linear_5,2,5,80,127,1642484068
63,18,19,Jits_Linear_5,3,5,56,103,1642494484
63,18,19,Jits_Linear_5,0,5,80,127,1643163908
63,18,19,Jits_Linear_5,1,1,48,35,1643179004
63,18,19,Jits_Linear_5,2,5,56,103,1643183840
63,18,19,Jits_Linear_5,3,5,63,98,1643186900
63,18,19,Jits_Linear_5,0,5,63,98,1643844036
63,18,19,Jits_Linear_5,1,5,80,127,1643847252
63,18,19,Jits_Linear_5,2,5,56,103,1643904648
63,18,19,Jits_Linear_5,3,1,48,37,1643909192
63,18,19,Jits_Linear_5,0,5,56,103,1644534088
63,18,19,Jits_Linear_5,1,5,80,127,1644544508
63,18,19,Jits_Linear_5,2,5,63,98,1644584596
63,18,19,Jits_Linear_5,3,1,48,35,1644620000
63,18,19,Jits_Linear_5,0,5,56,103,1645224160
63,18,19,Jits_Linear_5,1,1,48,32,1645243768
63,18,19,Jits_Linear_5,2,5,63,98,1645283724
63,18,19,Jits_Linear_5,3,5,80,127,1645293920
63,18,19,Jits_Linear_5,0,1,48,29,1645878248
63,18,19,Jits_Linear_5,1,5,63,98,1645944368
63,18,19,Jits_Linear_5,2,5,80,127,1645983996
63,18,19,Jits_Linear_5,3,5,56,103,1646024160
63,18,19,Jits_Linear_5,0,1,48,37,1646633972
63,18,19,Jits_Linear_5,1,5,56,103,1646653780
63,18,19,Jits_Linear_5,2,5,63,98,1646733712
63,18,19,Jits_Linear_5,3,5,80,127,1646736928
63,18,19,Jits_Linear_5,0,1,48,32,1647392088
63,18,19,Jits_Linear_5,1,5,80,127,1647423800
63,18,19,Jits_Linear_5,2,5,56,103,1647453552
63,18,19,Jits_Linear_5,3,5,63,98,1647456692
63,18,19,Jits_Linear_5,0,5,56,103,1648103820
63,18,19,Jits_Linear_5,1,5,80,127,1648124208
63,18,19,Jits_Linear_5,2,1,48,30,1648155000
63,18,19,Jits_Linear_5,3,5,63,98,1648164092
63,18,19,Jits_Linear_5,0,5,80,127,1648804408
63,18,19,Jits_Linear_5,1,5,63,98,1648823748
63,18,19,Jits_Linear_5,2,1,48,33,1648830304
63,18,19,Jits_Linear_5,3,5,56,103,1648884132
63,18,19,Jits_Linear_5,0,1,48,35,1649511472
63,18,19,Jits_Linear_5,1,5,63,98,1649534284
63,18,19,Jits_Linear_5,2,5,56,103,1649543656
63,18,19,Jits_Linear_5,3,5,80,127,1649593636
63,18,19,Jits_Linear_5,0,5,56,103,1650243856
63,18,19,Jits_Linear_5,1,5,63,98,1650264540
63,18,19,Jits_Linear_5,2,1,48,38,1650267656
63,18,19,Jits_Linear_5,3,5,80,127,1650273608
63,18,19,Jits_Linear_5,0,1,48,39,1650956016
63,18,19,Jits_Linear_5,1,5,56,103,1650963836
63,18,19,Jits_Linear_5,2,5,63,98,1650966904
63,18,19,Jits_Linear_5,3,5,80,127,1650984444
63,18,19,Jits_Linear_5,0,1,48,36,1651656100
63,18,19,Jits_Linear_5,1,5,63,98,1651733852
63,18,19,Jits_Linear_5,2,5,56,103,1651763660
63,18,19,Jits_Linear_5,3,5,80,127,1651794384
63,18,19,Jits_Linear_5,0,5,80,127,1652424064
63,18,19,Jits_Linear_5,1,1,48,32,1652470408
63,18,19,Jits_Linear_5,2,5,56,103,1652514068
63,18,19,Jits_Linear_5,3,5,63,98,1652517212
63,18,19,Jits_Linear_5,0,5,56,103,1653154088
63,18,19,Jits_Linear_5,1,5,80,127,1653157304
63,18,19,Jits_Linear_5,2,1,48,38,1653227556
63,18,19,Jits_Linear_5,3,5,63,98,1653233952
63,18,19,Jits_Linear_5,0,5,80,127,1653884404
63,18,19,Jits_Linear_5,1,1,48,37,1653894872
63,18,19,Jits_Linear_5,2,5,63,98,1653943596
63,18,19,Jits_Linear_5,3,5,56,103,1653974768
63,18,19,Jits_Linear_5,0,5,63,98,1654614364
63,18,19,Jits_Linear_5,1,5,80,127,1654623588
63,18,19,Jits_Linear_5,2,1,48,41,1654656676
63,18,19,Jits_Linear_5,3,5,56,103,1654694460
63,18,19,Jits_Linear_5,0,1,48,32,1655357300
63,18,19,Jits_Linear_5,1,5,56,103,1655363924
63,18,19,Jits_Linear_5,2,5,80,127,1655393600
63,18,19,Jits_Linear_5,3,5,63,98,1655443804
63,18,19,Jits_Linear_5,0,1,48,37,1656109272
63,18,19,Jits_Linear_5,1,5,63,98,1656144364
63,18,19,Jits_Linear_5,2,5,56,103,1656173892
63,18,19,Jits_Linear_5,3,5,80,127,1656176960
63,18,19,Jits_Linear_5,0,1,48,24,1656871792
63,18,19,Jits_Linear_5,1,5,63,98,1656883596
63,18,19,Jits_Linear_5,2,5,80,127,1656903984
63,18,19,Jits_Linear_5,3,5,56,103,1656914700
63,18,19,Jits_Linear_5,0,1,48,41,1657618980
63,18,19,Jits_Linear_5,1,5,56,103,1657634220
63,18,19,Jits_Linear_5,2,5,63,98,1657637364
63,18,19,Jits_Linear_5,3,5,80,127,1657653484
63,18,19,Jits_Linear_5,0,5,56,103,1658333648
63,18,19,Jits_Linear_5,1,1,48,44,1658334612
63,18,19,Jits_Linear_5,2,5,63,98,1658343836
63,18,19,Jits_Linear_5,3,5,80,127,1658373388
63,18,19,Jits_Linear_5,0,1,48,41,1659061156
63,18,19,Jits_Linear_5,1,5,63,98,1659103604
63,18,19,Jits_Linear_5,2,5,80,127,1659124140
63,18,19,Jits_Linear_5,3,5,56,103,1659163940
63,18,19,Jits_Linear_5,0,5,56,103,1659883980
63,18,19,Jits_Linear_5,1,1,48,39,1659884944
63,18,19,Jits_Linear_5,2,5,63,98,1659923708
63,18,19,Jits_Linear_5,3,5,80,127,1659927004
63,18,19,Jits_Linear_5,0,5,80,127,1660573928
63,18,19,Jits_Linear_5,1,5,56,103,1660614240
63,18,19,Jits_Linear_5,2,1,48,41,1660643812
63,18,19,Jits_Linear_5,3,5,63,98,1660664436
63,18,19,Jits_Linear_5,0,1,48,37,1661367384
63,18,19,Jits_Linear_5,1,5,56,103,1661384196
63,18,19,Jits_Linear_5,2,5,80,127,1661394464
63,18,19,Jits_Linear_5,3,5,63,98,1661424068
63,18,19,Jits_Linear_5,0,5,56,103,1662083508
63,18,19,Jits_Linear_5,1,5,80,127,1662124344
63,18,19,Jits_Linear_5,2,1,48,34,1662155188
63,18,19,Jits_Linear_5,3,5,63,98,1662173420
63,18,19,Jits_Linear_5,0,5,56,103,1662844404
63,18,19,Jits_Linear_5,1,1,48,40,1662852848
63,18,19,Jits_Linear_5,2,5,80,127,1662884336
63,18,19,Jits_Linear_5,3,5,63,98,1662934464
63,18,19,Jits_Linear_5,0,5,80,127,1663593692
63,18,19,Jits_Linear_5,1,1,48,38,1663604680
63,18,19,Jits_Linear_5,2,5,63,98,1663673712
63,18,19,Jits_Linear_5,3,5,56,103,1663683832
63,18,19,Jits_Linear_5,0,1,48,39,1664383336
63,18,19,Jits_Linear_5,1,5,80,127,1664403964
63,18,19,Jits_Linear_5,2,5,56,103,1664414160
63,18,19,Jits_Linear_5,3,5,63,98,1664433424
63,18,19,Jits_Linear_5,0,5,63,98,1665133916
63,18,19,Jits_Linear_5,1,1,48,41,1665139952
63,18,19,Jits_Linear_5,2,5,56,103,1665203516
63,18,19,Jits_Linear_5,3,5,80,127,1665206584
63,18,19,Jits_Linear_5,0,5,80,127,1665893600
63,18,19,Jits_Linear_5,1,1,48,36,1665942208
63,18,19,Jits_Linear_5,2,5,63,98,1665943796
63,18,19,Jits_Linear_5,3,5,56,103,1665983812
63,18,19,Jits_Linear_5,0,1,48,37,1666681428
63,18,19,Jits_Linear_5,1,5,63,98,1666703868
63,18,19,Jits_Linear_5,2,5,56,103,1666743812
63,18,19,Jits_Linear_5,3,5,80,127,1666753856
63,18,19,Jits_Linear_5,0,5,63,98,1667463492
63,18,19,Jits_Linear_5,1,1,48,32,1667473664
63,18,19,Jits_Linear_5,2,5,56,103,1667484172
63,18,19,Jits_Linear_5,3,5,80,127,1667503512
63,18,19,Jits_Linear_5,0,1,48,35,1668191696
63,18,19,Jits_Linear_5,1,5,80,127,1668193580
63,18,19,Jits_Linear_5,2,5,56,103,1668204076
63,18,19,Jits_Linear_5,3,5,63,98,1668224388
63,18,19,Jits_Linear_5,0,1,48,37,1668960344
63,18,19,Jits_Linear_5,1,5,63,98,1668994396
63,18,19,Jits_Linear_5,2,5,56,103,1669034260
63,18,19,Jits_Linear_5,3,5,80,127,1669064220
63,18,19,Jits_Linear_5,0,5,56,103,1669773572
63,18,19,Jits_Linear_5,1,1,48,33,1669796620
63,18,19,Jits_Linear_5,2,5,63,98,1669804512
63,18,19,Jits_Linear_5,3,5,80,127,1669834264
63,18,19,Jits_Linear_5,0,5,80,127,1670524208
63,18,19,Jits_Linear_5,1,1,48,32,1670587260
63,18,19,Jits_Linear_5,2,5,56,103,1670594032
63,18,19,Jits_Linear_5,3,5,63,98,1670597028
63,18,19,Jits_Linear_5,0,1,48,40,1671294952
63,18,19,Jits_Linear_5,1,5,56,103,1671313640
63,18,19,Jits_Linear_5,2,5,63,98,1671364140
63,18,19,Jits_Linear_5,3,5,80,127,1671394404
63,18,19,Jits_Linear_5,0,5,63,98,1672073556
63,18,19,Jits_Linear_5,1,5,80,127,1672077144
63,18,19,Jits_Linear_5,2,1,48,33,1672099972
63,18,19,Jits_Linear_5,3,5,56,103,1672134240
63,18,19,Jits_Linear_5,0,1,48,28,1672878744
63,18,19,Jits_Linear_5,1,5,56,103,1672883500
63,18,19,Jits_Linear_5,2,5,80,127,1672893916
63,18,19,Jits_Linear_5,3,5,63,98,1672944268
63,18,19,Jits_Linear_5,0,5,63,98,1673644460
63,18,19,Jits_Linear_5,1,1,48,31,1673648028
63,18,19,Jits_Linear_5,2,5,56,103,1673653680
63,18,19,Jits_Linear_5,3,5,80,127,1673684328
63,18,19,Jits_Linear_5,0,1,48,29,1674411756
63,18,19,Jits_Linear_5,1,5,63,98,1674463624
63,18,19,Jits_Linear_5,2,5,80,127,1674466840
63,18,19,Jits_Linear_5,3,5,56,103,1674494272
63,18,19,Jits_Linear_5,0,1,48,32,1675208060
63,18,19,Jits_Linear_5,1,5,63,98,1675273600
63,18,19,Jits_Linear_5,2,5,56,103,1675293980
63,18,19,Jits_Linear_5,3,5,80,127,1675297052
63,18,19,Jits_Linear_5,0,5,63,98,1676024120
63,18,19,Jits_Linear_5,1,1,48,32,1676077756
63,18,19,Jits_Linear_5,2,5,56,103,1676093896
63,18,19,Jits_Linear_5,3,5,80,127,1676114204
63,18,19,Jits_Linear_5,0,5,56,103,1676803312
63,18,19,Jits_Linear_5,1,5,63,98,1676813660
63,18,19,Jits_Linear_5,2,1,48,35,1676838872
63,18,19,Jits_Linear_5,3,5,80,127,1676904008
63,18,19,Jits_Linear_5,0,1,48,28,1677589868
63,18,19,Jits_Linear_5,1,5,56,103,1677613352
63,18,19,Jits_Linear_5,2,5,80,127,1677654268
63,18,19,Jits_Linear_5,3,5,63,98,1677663492
63,18,19,Jits_Linear_5,0,1,48,30,1678369332
63,18,19,Jits_Linear_5,1,5,56,103,1678433580
63,18,19,Jits_Linear_5,2,5,63,98,1678464304
63,18,19,Jits_Linear_5,3,5,80,127,1678494112
63,18,19,Jits_Linear_5,0,5,80,127,1679193488
63,18,19,Jits_Linear_5,1,1,48,32,1679229048
63,18,19,Jits_Linear_5,2,5,63,98,1679234544
63,18,19,Jits_Linear_5,3,5,56,103,1679254032
63,18,19,Jits_Linear_5,0,1,48,30,1679967012
63,18,19,Jits_Linear_5,1,5,56,103,1680034100
63,18,19,Jits_Linear_5,2,5,80,127,1680053516
63,18,19,Jits_Linear_5,3,5,63,98,1680074180
63,18,19,Jits_Linear_5,0,1,48,31,1680780860
63,18,19,Jits_Linear_5,1,5,63,98,1680804200
63,18,19,Jits_Linear_5,2,5,56,103,1680813500
63,18,19,Jits_Linear_5,3,5,80,127,1680875220
63,18,19,Jits_Linear_5,0,1,48,33,1681601008
63,18,19,Jits_Linear_5,1,5,56,103,1681614080
63,18,19,Jits_Linear_5,2,5,63,98,1681683868
63,18,19,Jits_Linear_5,3,5,80,127,1681704240
63,18,19,Jits_Linear_5,0,5,56,103,1682424196
63,18,19,Jits_Linear_5,1,5,63,98,1682454048
63,18,19,Jits_Linear_5,2,1,48,27,1682455012
63,18,19,Jits_Linear_5,3,5,80,127,1682493760
63,18,19,Jits_Linear_5,0,1,48,32,1683200212
63,18,19,Jits_Linear_5,1,5,63,98,1683223848
63,18,19,Jits_Linear_5,2,5,56,103,1683274128
63,18,19,Jits_Linear_5,3,5,80,127,1683284472
63,18,19,Jits_Linear_5,0,1,48,32,1684067188
63,18,19,Jits_Linear_5,1,5,56,103,1684074108
63,18,19,Jits_Linear_5,2,5,63,98,1684124092
63,18,19,Jits_Linear_5,3,5,80,127,1684134216
63,18,19,Jits_Linear_5,0,5,56,103,1684854112
63,18,19,Jits_Linear_5,1,5,63,98,1684864380
63,18,19,Jits_Linear_5,2,1,48,38,1684877988
63,18,19,Jits_Linear_5,3,5,80,127,1684944096
63,18,19,Jits_Linear_5,0,9999,9999,9999,1576121456
63,18,19,Jits_Linear_5,1,9999,9999,9999,1576601692
63,18,19,Jits_Linear_5,2,9999,9999,9999,1577081932
63,18,19,Jits_Linear_5,3,9999,9999,9999,1577561164
63,18,19,Jits_Linear_5,4,9999,9999,9999,1578041452
63,18,19,Jits_Linear_5,5,9999,9999,9999,1578531928
63,18,19,Jits_Linear_5,6,9999,9999,9999,1579021428
63,18,19,Jits_Linear_5,7,9999,9999,9999,1579511888
63,18,19,Jits_Linear_5,8,9999,9999,9999,1580001404
63,18,19,Jits_Linear_5,9,9999,9999,9999,1580491892
63,18,19,Jits_Linear_5,10,9999,9999,9999,1580991592
63,18,19,Jits_Linear_5,11,9999,9999,9999,1581491296
63,18,19,Jits_Linear_5,12,9999,9999,9999,1581992028
63,18,19,Jits_Linear_5,13,9999,9999,9999,1582491712
63,18,19,Jits_Linear_5,14,9999,9999,9999,1582991476
63,18,19,Jits_Linear_5,15,9999,9999,9999,1583501368
63,18,19,Jits_Linear_5,16,9999,9999,9999,1584011320
63,18,19,Jits_Linear_5,17,9999,9999,9999,1584521272
63,18,19,Jits_Linear_5,18,9999,9999,9999,1585031236
63,18,19,Jits_Linear_5,19,9999,9999,9999,1585541208
63,18,19,Jits_Linear_5,20,9999,9999,9999,1586061368
63,18,19,Jits_Linear_5,21,9999,9999,9999,1586581596
63,18,19,Jits_Linear_5,22,9999,9999,9999,1587101752
63,18,19,Jits_Linear_5,23,9999,9999,9999,1587621984
63,18,19,Jits_Linear_5,24,9999,9999,9999,1588141164
63,18,19,Jits_Linear_5,25,9999,9999,9999,1588671576
63,18,19,Jits_Linear_5,26,9999,9999,9999,1589201992
63,18,19,Jits_Linear_5,27,9999,9999,9999,1589731416
63,18,19,Jits_Linear_5,28,9999,9999,9999,1590261840
63,18,19,Jits_Linear_5,29,9999,9999,9999,1590791292
63,18,19,Jits_Linear_5,30,9999,9999,9999,1591331952
63,18,19,Jits_Linear_5,31,9999,9999,9999,1591871592
63,18,19,Jits_Linear_5,32,9999,9999,9999,1592411224
63,18,19,Jits_Linear_5,33,9999,9999,9999,1592951908
63,18,19,Jits_Linear_5,34,9999,9999,9999,1593491532
63,18,19,Jits_Linear_5,35,9999,9999,9999,1594041436
63,18,19,Jits_Linear_5,36,9999,9999,9999,1594591312
63,18,19,Jits_Linear_5,37,9999,9999,9999,1595141220
63,18,19,Jits_Linear_5,38,9999,9999,9999,1595691124
63,18,19,Jits_Linear_5,39,9999,9999,9999,1596241980
63,18,19,Jits_Linear_5,40,9999,9999,9999,1596801092
63,18,19,Jits_Linear_5,41,9999,9999,9999,1597361248
63,18,19,Jits_Linear_5,42,9999,9999,9999,1597921336
63,18,19,Jits_Linear_5,43,9999,9999,9999,1598481508
63,18,19,Jits_Linear_5,44,9999,9999,9999,1599041652
63,18,19,Jits_Linear_5,45,9999,9999,9999,1599611988
63,18,19,Jits_Linear_5,46,9999,9999,9999,1600181352
63,18,19,Jits_Linear_5,47,9999,9999,9999,1600751696
63,18,19,Jits_Linear_5,48,9999,9999,9999,1601322056
63,18,19,Jits_Linear_5,49,9999,9999,9999,1601891436
63,18,19,Jits_Linear_5,50,9999,9999,9999,1602472028
63,18,19,Jits_Linear_5,51,9999,9999,9999,1603051596
63,18,19,Jits_Linear_5,52,9999,9999,9999,1603631192
63,18,19,Jits_Linear_5,53,9999,9999,9999,1604211804
63,18,19,Jits_Linear_5,54,9999,9999,9999,1604791360
63,18,19,Jits_Linear_5,55,9999,9999,9999,1605381224
63,18,19,Jits_Linear_5,56,9999,9999,9999,1605972028
63,18,19,Jits_Linear_5,57,9999,9999,9999,1606561848
63,18,19,Jits_Linear_5,58,9999,9999,9999,1607151744
63,18,19,Jits_Linear_5,59,9999,9999,9999,1607741496
63,18,19,Jits_Linear_5,60,9999,9999,9999,1608341592
63,18,19,Jits_Linear_5,61,9999,9999,9999,1608941668
63,18,19,Jits_Linear_5,62,9999,9999,9999,1609541700
63,18,19,Jits_Linear_5,63,9999,9999,9999,1610141776
63,18,19,Jits_Linear_5,64,9999,9999,9999,1610741856
63,18,19,Jits_Linear_5,65,9999,9999,9999,1611351116
63,18,19,Jits_Linear_5,66,9999,9999,9999,1611961404
63,18,19,Jits_Linear_5,67,9999,9999,9999,1612571704
63,18,19,Jits_Linear_5,68,9999,9999,9999,1613182064
63,18,19,Jits_Linear_5,69,9999,9999,9999,1613791288
63,18,19,Jits_Linear_5,70,9999,9999,9999,1614411836
63,18,19,Jits_Linear_5,71,9999,9999,9999,1615031412
63,18,19,Jits_Linear_5,72,9999,9999,9999,1615651912
63,18,19,Jits_Linear_5,73,9999,9999,9999,1616271468
63,18,19,Jits_Linear_5,74,9999,9999,9999,1616892000
63,18,19,Jits_Linear_5,75,9999,9999,9999,1617521772
63,18,19,Jits_Linear_5,76,9999,9999,9999,1618151540
63,18,19,Jits_Linear_5,77,9999,9999,9999,1618781244
63,18,19,Jits_Linear_5,78,9999,9999,9999,1619412056
63,18,19,Jits_Linear_5,79,9999,9999,9999,1620041848
63,18,19,Jits_Linear_5,80,9999,9999,9999,1620681792
63,18,19,Jits_Linear_5,81,9999,9999,9999,1621321828
63,18,19,Jits_Linear_5,82,9999,9999,9999,1621961852
63,18,19,Jits_Linear_5,83,9999,9999,9999,1622601816
63,18,19,Jits_Linear_5,84,9999,9999,9999,1623241852
63,18,19,Jits_Linear_5,85,9999,9999,9999,1623892076
63,18,19,Jits_Linear_5,86,9999,9999,9999,1624541308
63,18,19,Jits_Linear_5,87,9999,9999,9999,1625191548
63,18,19,Jits_Linear_5,88,9999,9999,9999,1625841752
63,18,19,Jits_Linear_5,89,9999,9999,9999,1626491980
63,18,19,Jits_Linear_5,90,9999,9999,9999,1627151424
63,18,19,Jits_Linear_5,91,9999,9999,9999,1627811900
63,18,19,Jits_Linear_5,92,9999,9999,9999,1628471420
63,18,19,Jits_Linear_5,93,9999,9999,9999,1629131888
63,18,19,Jits_Linear_5,94,9999,9999,9999,1629791328
63,18,19,Jits_Linear_5,95,9999,9999,9999,1630462076
63,18,19,Jits_Linear_5,96,9999,9999,9999,1631131720
63,18,19,Jits_Linear_5,97,9999,9999,9999,1631801428
63,18,19,Jits_Linear_5,98,9999,9999,9999,1632471112
63,18,19,Jits_Linear_5,99,9999,9999,9999,1633141864
63,18,19,Jits_Linear_5,100,9999,9999,9999,1633821760
63,18,19,Jits_Linear_5,101,9999,9999,9999,1634501712
63,18,19,Jits_Linear_5,102,9999,9999,9999,1635181672
63,18,19,Jits_Linear_5,103,9999,9999,9999,1635861588
63,18,19,Jits_Linear_5,104,9999,9999,9999,1636541552
63,18,19,Jits_Linear_5,105,9999,9999,9999,1637231704
63,18,19,Jits_Linear_5,106,9999,9999,9999,1637921868
63,18,19,Jits_Linear_5,107,9999,9999,9999,1638612080
63,18,19,Jits_Linear_5,108,9999,9999,9999,1639301188
63,18,19,Jits_Linear_5,109,9999,9999,9999,1639991420
63,18,19,Jits_Linear_5,110,9999,9999,9999,1640691828
63,18,19,Jits_Linear_5,111,9999,9999,9999,1641391220
63,18,19,Jits_Linear_5,112,9999,9999,9999,1642091644
63,18,19,Jits_Linear_5,113,9999,9999,9999,1642791988
63,18,19,Jits_Linear_5,114,9999,9999,9999,1643491412
63,18,19,Jits_Linear_5,115,9999,9999,9999,1644202108
63,18,19,Jits_Linear_5,116,9999,9999,9999,1644911720
63,18,19,Jits_Linear_5,117,9999,9999,9999,1645621376
63,18,19,Jits_Linear_5,118,9999,9999,9999,1646331976
63,18,19,Jits_Linear_5,119,9999,9999,9999,1647041604
63,18,19,Jits_Linear_5,120,9999,9999,9999,1647761504
63,18,19,Jits_Linear_5,121,9999,9999,9999,1648481336
63,18,19,Jits_Linear_5,122,9999,9999,9999,1649201248
63,18,19,Jits_Linear_5,123,9999,9999,9999,1649921088
63,18,19,Jits_Linear_5,124,9999,9999,9999,1650642012
63,18,19,Jits_Linear_5,125,9999,9999,9999,1651371132
63,18,19,Jits_Linear_5,126,9999,9999,9999,1652101228
63,18,19,Jits_Linear_5,127,9999,9999,9999,1652831312
63,18,19,Jits_Linear_5,128,9999,9999,9999,1653561408
63,18,19,Jits_Linear_5,129,9999,9999,9999,1654291512
63,18,19,Jits_Linear_5,130,9999,9999,9999,1655031932
63,18,19,Jits_Linear_5,131,9999,9999,9999,1655771232
63,18,19,Jits_Linear_5,132,9999,9999,9999,1656511588
63,18,19,Jits_Linear_5,133,9999,9999,9999,1657251948
63,18,19,Jits_Linear_5,134,9999,9999,9999,1657991252
63,18,19,Jits_Linear_5,135,9999,9999,9999,1658741868
63,18,19,Jits_Linear_5,136,9999,9999,9999,1659491384
63,18,19,Jits_Linear_5,137,9999,9999,9999,1660242004
63,18,19,Jits_Linear_5,138,9999,9999,9999,1660991592
63,18,19,Jits_Linear_5,139,9999,9999,9999,1661741108
63,18,19,Jits_Linear_5,140,9999,9999,9999,1662501996
63,18,19,Jits_Linear_5,141,9999,9999,9999,1663261772
63,18,19,Jits_Linear_5,142,9999,9999,9999,1664021624
63,18,19,Jits_Linear_5,143,9999,9999,9999,1664781404
63,18,19,Jits_Linear_5,144,9999,9999,9999,1665541236
63,18,19,Jits_Linear_5,145,9999,9999,9999,1666311264
63,18,19,Jits_Linear_5,146,9999,9999,9999,1667081312
63,18,19,Jits_Linear_5,147,9999,9999,9999,1667851344
63,18,19,Jits_Linear_5,148,9999,9999,9999,1668621436
63,18,19,Jits_Linear_5,149,9999,9999,9999,1669391464
63,18,19,Jits_Linear_5,150,9999,9999,9999,1670171756
63,18,19,Jits_Linear_5,151,9999,9999,9999,1670952052
63,18,19,Jits_Linear_5,152,9999,9999,9999,1671731316
63,18,19,Jits_Linear_5,153,9999,9999,9999,1672511588
63,18,19,Jits_Linear_5,154,9999,9999,9999,1673291876
63,18,19,Jits_Linear_5,155,9999,9999,9999,1674081380
63,18,19,Jits_Linear_5,156,9999,9999,9999,1674871920
63,18,19,Jits_Linear_5,157,9999,9999,9999,1675661420
63,18,19,Jits_Linear_5,158,9999,9999,9999,1676451896
63,18,19,Jits_Linear_5,159,9999,9999,9999,1677241404
63,18,19,Jits_Linear_5,160,9999,9999,9999,1678041188
63,18,19,Jits_Linear_5,161,9999,9999,9999,1678841936
63,18,19,Jits_Linear_5,162,9999,9999,9999,1679641720
63,18,19,Jits_Linear_5,163,9999,9999,9999,1680441432
63,18,19,Jits_Linear_5,164,9999,9999,9999,1681241200
63,18,19,Jits_Linear_5,165,9999,9999,9999,1682051164
63,18,19,Jits_Linear_5,166,9999,9999,9999,1682861116
63,18,19,Jits_Linear_5,167,9999,9999,9999,1683671164
63,18,19,Jits_Linear_5,168,9999,9999,9999,1684481148
63,18,19,Jits_Linear_5,169,9999,9999,9999,1685291104
63,19,18,Jits_Linear_8,0,5,56,103,1695126864
63,19,18,Jits_Linear_8,1,5,63,98,1695130188
63,19,18,Jits_Linear_8,2,5,80,127,1695133160
63,19,18,Jits_Linear_8,0,5,56,103,1695947628
63,19,18,Jits_Linear_8,1,5,63,98,1695950572
63,19,18,Jits_Linear_8,2,5,80,127,1695953692
63,19,18,Jits_Linear_8,0,5,80,127,1696706964
63,19,18,Jits_Linear_8,1,1,48,40,1696783376
63,19,18,Jits_Linear_8,2,5,63,98,1696796896
63,19,18,Jits_Linear_8,3,5,56,103,1696807388
63,19,18,Jits_Linear_8,0,5,56,103,1697546688
63,19,18,Jits_Linear_8,1,5,63,98,1697556812
63,19,18,Jits_Linear_8,2,1,48,37,1697605636
63,19,18,Jits_Linear_8,3,5,80,127,1697646860
63,19,18,Jits_Linear_8,0,5,63,98,1698337160
63,19,18,Jits_Linear_8,1,5,80,127,1698366764
63,19,18,Jits_Linear_8,2,1,48,37,1698372124
63,19,18,Jits_Linear_8,3,5,56,103,1698396432
63,19,18,Jits_Linear_8,0,1,48,38,1699147820
63,19,18,Jits_Linear_8,1,5,56,103,1699157508
63,19,18,Jits_Linear_8,2,5,80,127,1699256548
63,19,18,Jits_Linear_8,3,5,63,98,1699306748
63,19,18,Jits_Linear_8,0,5,56,103,1699967456
63,19,18,Jits_Linear_8,1,1,48,39,1699998600
63,19,18,Jits_Linear_8,2,5,80,127,1700016684
63,19,18,Jits_Linear_8,3,5,63,98,1700056844
63,19,18,Jits_Linear_8,0,5,80,127,1700806932
63,19,18,Jits_Linear_8,1,1,48,38,1700812592
63,19,18,Jits_Linear_8,2,5,63,98,1700836680
63,19,18,Jits_Linear_8,3,5,56,103,1700907652
63,19,18,Jits_Linear_8,0,5,63,98,1701646736
63,19,18,Jits_Linear_8,1,1,48,38,1701665820
63,19,18,Jits_Linear_8,2,5,56,103,1701677376
63,19,18,Jits_Linear_8,3,5,80,127,1701736796
63,19,18,Jits_Linear_8,0,5,56,103,1702397616
63,19,18,Jits_Linear_8,1,5,80,127,1702400676
63,19,18,Jits_Linear_8,2,1,48,35,1702492048
63,19,18,Jits_Linear_8,3,5,63,98,1702517180
63,19,18,Jits_Linear_8,0,1,48,38,1703227836
63,19,18,Jits_Linear_8,1,5,56,103,1703277008
63,19,18,Jits_Linear_8,2,5,80,127,1703316800
63,19,18,Jits_Linear_8,3,5,63,98,1703326984
63,19,18,Jits_Linear_8,0,1,48,36,1704034500
63,19,18,Jits_Linear_8,1,5,56,103,1704036612
63,19,18,Jits_Linear_8,2,5,80,127,1704057148
63,19,18,Jits_Linear_8,3,5,63,98,1704136928
63,19,18,Jits_Linear_8,0,5,80,127,1704827524
63,19,18,Jits_Linear_8,1,1,48,36,1704872892
63,19,18,Jits_Linear_8,2,5,56,103,1704926576
63,19,18,Jits_Linear_8,3,5,63,98,1704936844
63,19,18,Jits_Linear_8,0,5,63,98,1705597552
63,19,18,Jits_Linear_8,1,5,80,127,1705656748
63,19,18,Jits_Linear_8,2,1,48,38,1705658236
63,19,18,Jits_Linear_8,3,5,56,103,1705666788
63,19,18,Jits_Linear_8,0,5,56,103,1706396928
63,19,18,Jits_Linear_8,1,1,48,40,1706419452
63,19,18,Jits_Linear_8,2,5,63,98,1706466604
63,19,18,Jits_Linear_8,3,5,80,127,1706470040
63,19,18,Jits_Linear_8,0,1,48,38,1707182480
63,19,18,Jits_Linear_8,1,5,63,98,1707226420
63,19,18,Jits_Linear_8,2,5,56,103,1707276648
63,19,18,Jits_Linear_8,3,5,80,127,1707279640
63,19,18,Jits_Linear_8,0,5,56,103,1707977020
63,19,18,Jits_Linear_8,1,5,80,127,1707980236
63,19,18,Jits_Linear_8,2,1,48,35,1707981200
63,19,18,Jits_Linear_8,3,5,63,98,1708067324
63,19,18,Jits_Linear_8,0,1,48,37,1708758168
63,19,18,Jits_Linear_8,1,5,63,98,1708806392
63,19,18,Jits_Linear_8,2,5,56,103,1708896588
63,19,18,Jits_Linear_8,3,5,80,127,1708927312
63,19,18,Jits_Linear_8,0,5,56,103,1709586756
63,19,18,Jits_Linear_8,1,1,48,30,1709665172
63,19,18,Jits_Linear_8,2,5,63,98,1709687296
63,19,18,Jits_Linear_8,3,5,80,127,1709716972
63,19,18,Jits_Linear_8,0,1,48,35,1710394424
63,19,18,Jits_Linear_8,1,5,63,98,1710396860
63,19,18,Jits_Linear_8,2,5,56,103,1710406908
63,19,18,Jits_Linear_8,3,5,80,127,1710497320
63,19,18,Jits_Linear_8,0,1,48,27,1711181524
63,19,18,Jits_Linear_8,1,5,63,98,1711196544
63,19,18,Jits_Linear_8,2,5,56,103,1711277460
63,19,18,Jits_Linear_8,3,5,80,127,1711280452
63,19,18,Jits_Linear_8,0,5,80,127,1711936884
63,19,18,Jits_Linear_8,1,5,63,98,1711957344
63,19,18,Jits_Linear_8,2,5,56,103,1712016688
63,19,18,Jits_Linear_8,3,1,48,31,1712040480
63,19,18,Jits_Linear_8,0,1,48,34,1712755352
63,19,18,Jits_Linear_8,1,5,56,103,1712757092
63,19,18,Jits_Linear_8,2,5,63,98,1712776504
63,19,18,Jits_Linear_8,3,5,80,127,1712780016
63,19,18,Jits_Linear_8,0,5,63,98,1713477272
63,19,18,Jits_Linear_8,1,1,48,35,1713503240
63,19,18,Jits_Linear_8,2,5,80,127,1713556768
63,19,18,Jits_Linear_8,3,5,56,103,1713567188
63,19,18,Jits_Linear_8,0,5,63,98,1714276580
63,19,18,Jits_Linear_8,1,1,48,33,1714292956
63,19,18,Jits_Linear_8,2,5,56,103,1714297404
63,19,18,Jits_Linear_8,3,5,80,127,1714347308
63,19,18,Jits_Linear_8,0,5,80,127,1715057224
63,19,18,Jits_Linear_8,1,1,48,32,1715067836
63,19,18,Jits_Linear_8,2,5,63,98,1715096936
63,19,18,Jits_Linear_8,3,5,56,103,1715117392
63,19,18,Jits_Linear_8,0,1,48,36,1715865592
63,19,18,Jits_Linear_8,1,5,56,103,1715866952
63,19,18,Jits_Linear_8,2,5,63,98,1715877372
63,19,18,Jits_Linear_8,3,5,80,127,1715896636
63,19,18,Jits_Linear_8,0,5,56,103,1716567516
63,19,18,Jits_Linear_8,1,1,48,30,1716651992
63,19,18,Jits_Linear_8,2,5,63,98,1716656452
63,19,18,Jits_Linear_8,3,5,80,127,1716717064
63,19,18,Jits_Linear_8,0,5,80,127,1717367288
63,19,18,Jits_Linear_8,1,5,56,103,1717377264
63,19,18,Jits_Linear_8,2,1,48,34,1717413636
63,19,18,Jits_Linear_8,3,5,63,98,1717447160
63,19,18,Jits_Linear_8,0,1,48,31,1718151808
63,19,18,Jits_Linear_8,1,5,63,98,1718167052
63,19,18,Jits_Linear_8,2,5,80,127,1718257172
63,19,18,Jits_Linear_8,3,5,56,103,1718267440
63,19,18,Jits_Linear_8,0,5,63,98,1718867396
63,19,18,Jits_Linear_8,1,5,80,127,1718916476
63,19,18,Jits_Linear_8,2,1,48,32,1718974900
63,19,18,Jits_Linear_8,3,5,56,103,1718976788
63,19,18,Jits_Linear_8,0,5,56,103,1719656808
63,19,18,Jits_Linear_8,1,5,80,127,1719707088
63,19,18,Jits_Linear_8,2,1,48,33,1719720172
63,19,18,Jits_Linear_8,3,5,63,98,1719726420
63,19,18,Jits_Linear_8,0,5,56,103,1720387052
63,19,18,Jits_Linear_8,1,5,80,127,1720447372
63,19,18,Jits_Linear_8,2,1,48,34,1720450416
63,19,18,Jits_Linear_8,3,5,63,98,1720516972
63,19,18,Jits_Linear_8,0,5,56,103,1721146884
63,19,18,Jits_Linear_8,1,5,80,127,1721176564
63,19,18,Jits_Linear_8,2,1,48,36,1721189796
63,19,18,Jits_Linear_8,3,5,63,98,1721207056
63,19,18,Jits_Linear_8,0,1,48,32,1721920540
63,19,18,Jits_Linear_8,1,5,56,103,1721946344
63,19,18,Jits_Linear_8,2,5,80,127,1721967100
63,19,18,Jits_Linear_8,3,5,63,98,1722027404
63,19,18,Jits_Linear_8,0,1,48,34,1722735284
63,19,18,Jits_Linear_8,1,5,80,127,1722787152
63,19,18,Jits_Linear_8,2,5,56,103,1722797352
63,19,18,Jits_Linear_8,3,5,63,98,1722807020
63,19,18,Jits_Linear_8,0,5,56,103,1723497164
63,19,18,Jits_Linear_8,1,5,80,127,1723536732
63,19,18,Jits_Linear_8,2,1,48,38,1723548844
63,19,18,Jits_Linear_8,3,5,63,98,1723566548
63,19,18,Jits_Linear_8,0,5,56,103,1724216624
63,19,18,Jits_Linear_8,1,5,63,98,1724247496
63,19,18,Jits_Linear_8,2,1,48,37,1724273984
63,19,18,Jits_Linear_8,3,5,80,127,1724287504
63,19,18,Jits_Linear_8,0,5,80,127,1724917096
63,19,18,Jits_Linear_8,1,1,48,35,1724958676
63,19,18,Jits_Linear_8,2,5,63,98,1724967248
63,19,18,Jits_Linear_8,3,5,56,103,1724986732
63,19,18,Jits_Linear_8,0,1,48,32,1725695744
63,19,18,Jits_Linear_8,1,5,56,103,1725697328
63,19,18,Jits_Linear_8,2,5,80,127,1725767160
63,19,18,Jits_Linear_8,3,5,63,98,1725826564
63,19,18,Jits_Linear_8,0,5,80,127,1726437052
63,19,18,Jits_Linear_8,1,1,48,30,1726481704
63,19,18,Jits_Linear_8,2,5,63,98,1726526912
63,19,18,Jits_Linear_8,3,5,56,103,1726547296
63,19,18,Jits_Linear_8,0,5,63,98,1727196524
63,19,18,Jits_Linear_8,1,5,56,103,1727217060
63,19,18,Jits_Linear_8,2,5,80,127,1727257096
63,19,18,Jits_Linear_8,3,1,48,32,1727271976
63,19,18,Jits_Linear_8,0,5,80,127,1727897008
63,19,18,Jits_Linear_8,1,5,63,98,1727917392
63,19,18,Jits_Linear_8,2,1,48,38,1727976708
63,19,18,Jits_Linear_8,3,5,56,103,1727997208
63,19,18,Jits_Linear_8,0,5,63,98,1728627024
63,19,18,Jits_Linear_8,1,1,48,30,1728672464
63,19,18,Jits_Linear_8,2,5,56,103,1728736632
63,19,18,Jits_Linear_8,3,5,80,127,1728739920
63,19,18,Jits_Linear_8,0,5,63,98,1729386840
63,19,18,Jits_Linear_8,1,5,56,103,1729397032
63,19,18,Jits_Linear_8,2,5,80,127,1729400024
63,19,18,Jits_Linear_8,3,1,48,40,1729430716
63,19,18,Jits_Linear_8,0,5,56,103,1730106860
63,19,18,Jits_Linear_8,1,1,48,32,1730146096
63,19,18,Jits_Linear_8,2,5,80,127,1730226508
63,19,18,Jits_Linear_8,3,5,63,98,1730266508
63,19,18,Jits_Linear_8,0,5,56,103,1730857412
63,19,18,Jits_Linear_8,1,1,48,32,1730879636
63,19,18,Jits_Linear_8,2,5,80,127,1730937276
63,19,18,Jits_Linear_8,3,5,63,98,1730956764
63,19,18,Jits_Linear_8,0,5,56,103,1731586380
63,19,18,Jits_Linear_8,1,1,48,37,1731610400
63,19,18,Jits_Linear_8,2,5,63,98,1731696964
63,19,18,Jits_Linear_8,3,5,80,127,1731700252
63,19,18,Jits_Linear_8,0,5,56,103,1732347156
63,19,18,Jits_Linear_8,1,1,48,33,1732371424
63,19,18,Jits_Linear_8,2,5,80,127,1732377076
63,19,18,Jits_Linear_8,3,5,63,98,1732397388
63,19,18,Jits_Linear_8,0,5,63,98,1733056948
63,19,18,Jits_Linear_8,1,5,56,103,1733067220
63,19,18,Jits_Linear_8,2,5,80,127,1733077564
63,19,18,Jits_Linear_8,3,1,48,33,1733112668
63,19,18,Jits_Linear_8,0,5,80,127,1733766424
63,19,18,Jits_Linear_8,1,1,48,35,1733784984
63,19,18,Jits_Linear_8,2,5,56,103,1733816844
63,19,18,Jits_Linear_8,3,5,63,98,1733856780
63,19,18,Jits_Linear_8,0,5,80,127,1734507000
63,19,18,Jits_Linear_8,1,1,48,35,1734514232
63,19,18,Jits_Linear_8,2,5,63,98,1734527304
63,19,18,Jits_Linear_8,3,5,56,103,1734576460
63,19,18,Jits_Linear_8,0,5,80,127,1735236864
63,19,18,Jits_Linear_8,1,5,56,103,1735266836
63,19,18,Jits_Linear_8,2,1,48,40,1735301116
63,19,18,Jits_Linear_8,3,5,63,98,1735337332
63,19,18,Jits_Linear_8,0,5,56,103,1736007116
63,19,18,Jits_Linear_8,1,5,80,127,1736017240
63,19,18,Jits_Linear_8,2,1,48,38,1736025684
63,19,18,Jits_Linear_8,3,5,63,98,1736057172
63,19,18,Jits_Linear_8,0,5,56,103,1736636944
63,19,18,Jits_Linear_8,1,5,63,98,1736657328
63,19,18,Jits_Linear_8,2,5,80,127,1736726960
63,19,18,Jits_Linear_8,3,1,48,38,1736745072
63,19,18,Jits_Linear_8,0,5,63,98,1737377224
63,19,18,Jits_Linear_8,1,1,48,31,1737381240
63,19,18,Jits_Linear_8,2,5,80,127,1737436640
63,19,18,Jits_Linear_8,3,5,56,103,1737457096
63,19,18,Jits_Linear_8,0,5,80,127,1738076736
63,19,18,Jits_Linear_8,1,1,48,34,1738079928
63,19,18,Jits_Linear_8,2,5,56,103,1738107228
63,19,18,Jits_Linear_8,3,5,63,98,1738136980
63,19,18,Jits_Linear_8,0,5,56,103,1738787116
63,19,18,Jits_Linear_8,1,1,48,39,1738806796
63,19,18,Jits_Linear_8,2,5,63,98,1738846532
63,19,18,Jits_Linear_8,3,5,80,127,1738906980
63,19,18,Jits_Linear_8,0,1,48,30,1739508840
63,19,18,Jits_Linear_8,1,5,80,127,1739517428
63,19,18,Jits_Linear_8,2,5,56,103,1739536692
63,19,18,Jits_Linear_8,3,5,63,98,1739607852
63,19,18,Jits_Linear_8,0,5,80,127,1740226964
63,19,18,Jits_Linear_8,1,1,48,32,1740236984
63,19,18,Jits_Linear_8,2,5,63,98,1740247344
63,19,18,Jits_Linear_8,3,5,56,103,1740277092
63,19,18,Jits_Linear_8,0,5,80,127,1740917052
63,19,18,Jits_Linear_8,1,5,63,98,1740936760
63,19,18,Jits_Linear_8,2,1,48,30,1740996856
63,19,18,Jits_Linear_8,3,5,56,103,1740998116
63,19,18,Jits_Linear_8,0,5,80,127,1741616424
63,19,18,Jits_Linear_8,1,1,48,29,1741691832
63,19,18,Jits_Linear_8,2,5,56,103,1741716816
63,19,18,Jits_Linear_8,3,5,63,98,1741746568
63,19,18,Jits_Linear_8,0,5,63,98,1742306564
63,19,18,Jits_Linear_8,1,5,80,127,1742356940
63,19,18,Jits_Linear_8,2,5,56,103,1742377328
63,19,18,Jits_Linear_8,3,1,48,37,1742392508
63,19,18,Jits_Linear_8,0,1,48,34,1743039228
63,19,18,Jits_Linear_8,1,5,80,127,1743046900
63,19,18,Jits_Linear_8,2,5,56,103,1743076800
63,19,18,Jits_Linear_8,3,5,63,98,1743080012
63,19,18,Jits_Linear_8,0,1,48,29,1743709440
63,19,18,Jits_Linear_8,1,5,63,98,1743777344
63,19,18,Jits_Linear_8,2,5,56,103,1743817196
63,19,18,Jits_Linear_8,3,5,80,127,1743836684
63,19,18,Jits_Linear_8,0,5,80,127,1744417000
63,19,18,Jits_Linear_8,1,1,48,32,1744440196
63,19,18,Jits_Linear_8,2,5,63,98,1744496944
63,19,18,Jits_Linear_8,3,5,56,103,1744537016
63,19,18,Jits_Linear_8,0,5,63,98,1745126696
63,19,18,Jits_Linear_8,1,1,48,26,1745191864
63,19,18,Jits_Linear_8,2,5,80,127,1745206660
63,19,18,Jits_Linear_8,3,5,56,103,1745227048
63,19,18,Jits_Linear_8,0,5,56,103,1745856784
63,19,18,Jits_Linear_8,1,5,63,98,1745867128
63,19,18,Jits_Linear_8,2,1,48,33,1745868244
63,19,18,Jits_Linear_8,3,5,80,127,1745906984
63,19,18,Jits_Linear_8,0,5,56,103,1746467228
63,19,18,Jits_Linear_8,1,5,80,127,1746470368
63,19,18,Jits_Linear_8,2,1,48,37,1746551108
63,19,18,Jits_Linear_8,3,5,63,98,1746606428
63,19,18,Jits_Linear_8,0,5,56,103,1747147164
63,19,18,Jits_Linear_8,1,5,63,98,1747237252
63,19,18,Jits_Linear_8,2,1,48,30,1747238888
63,19,18,Jits_Linear_8,3,5,80,127,1747306852
63,19,18,Jits_Linear_8,0,1,48,30,1747906396
63,19,18,Jits_Linear_8,1,5,63,98,1747907992
63,19,18,Jits_Linear_8,2,5,80,127,1747910968
63,19,18,Jits_Linear_8,3,5,56,103,1747967344
63,19,18,Jits_Linear_8,0,1,48,33,1748593892
63,19,18,Jits_Linear_8,1,5,80,127,1748626668
63,19,18,Jits_Linear_8,2,5,56,103,1748647500
63,19,18,Jits_Linear_8,3,5,63,98,1748656652
63,19,18,Jits_Linear_8,0,5,56,103,1749216632
63,19,18,Jits_Linear_8,1,5,63,98,1749226756
63,19,18,Jits_Linear_8,2,5,80,127,1749296536
63,19,18,Jits_Linear_8,3,1,48,26,1749305580
63,19,18,Jits_Linear_8,0,1,48,24,1749897120
63,19,18,Jits_Linear_8,1,5,80,127,1749898236
63,19,18,Jits_Linear_8,2,5,56,103,1749946652
63,19,18,Jits_Linear_8,3,5,63,98,1749997808
63,19,18,Jits_Linear_8,0,1,48,37,1750549852
63,19,18,Jits_Linear_8,1,5,56,103,1750657532
63,19,18,Jits_Linear_8,2,5,63,98,1750666756
63,19,18,Jits_Linear_8,3,5,80,127,1750706544
63,19,18,Jits_Linear_8,0,5,56,103,1751276808
63,19,18,Jits_Linear_8,1,1,48,35,1751316848
63,19,18,Jits_Linear_8,2,5,63,98,1751318260
63,19,18,Jits_Linear_8,3,5,80,127,1751366968
63,19,18,Jits_Linear_8,0,5,80,127,1751906660
63,19,18,Jits_Linear_8,1,5,56,103,1751956864
63,19,18,Jits_Linear_8,2,5,63,98,1751977396
63,19,18,Jits_Linear_8,3,1,48,31,1752013324
63,19,18,Jits_Linear_8,0,5,80,127,1752586700
63,19,18,Jits_Linear_8,1,5,63,98,1752646944
63,19,18,Jits_Linear_8,2,1,48,29,1752648732
63,19,18,Jits_Linear_8,3,5,56,103,1752726952
63,19,18,Jits_Linear_8,0,5,80,127,1753236976
63,19,18,Jits_Linear_8,1,5,56,103,1753276916
63,19,18,Jits_Linear_8,2,5,63,98,1753297228
63,19,18,Jits_Linear_8,3,1,48,35,1753329716
63,19,18,Jits_Linear_8,0,5,56,103,1753956728
63,19,18,Jits_Linear_8,1,5,80,127,1753966928
63,19,18,Jits_Linear_8,2,5,63,98,1754006792
63,19,18,Jits_Linear_8,3,1,48,32,1754015084
63,19,18,Jits_Linear_8,0,1,48,33,1754614832
63,19,18,Jits_Linear_8,1,5,56,103,1754686968
63,19,18,Jits_Linear_8,2,5,63,98,1754726664
63,19,18,Jits_Linear_8,3,5,80,127,1754730108
63,19,18,Jits_Linear_8,0,5,63,98,1755236696
63,19,18,Jits_Linear_8,1,5,80,127,1755276560
63,19,18,Jits_Linear_8,2,1,48,32,1755324168
63,19,18,Jits_Linear_8,3,5,56,103,1755347280
63,19,18,Jits_Linear_8,0,5,63,98,1755887100
63,19,18,Jits_Linear_8,1,1,48,34,1755949284
63,19,18,Jits_Linear_8,2,5,56,103,1755966768
63,19,18,Jits_Linear_8,3,5,80,127,1756027304
63,19,18,Jits_Linear_8,0,5,80,127,1756556648
63,19,18,Jits_Linear_8,1,5,63,98,1756606928
63,19,18,Jits_Linear_8,2,1,48,33,1756614308
63,19,18,Jits_Linear_8,3,5,56,103,1756636596
63,19,18,Jits_Linear_8,0,5,56,103,1757206872
63,19,18,Jits_Linear_8,1,5,63,98,1757257076
63,19,18,Jits_Linear_8,2,5,80,127,1757267344
63,19,18,Jits_Linear_8,3,1,48,35,1757303196
63,19,18,Jits_Linear_8,0,5,56,103,1757876476
63,19,18,Jits_Linear_8,1,1,48,29,1757899824
63,19,18,Jits_Linear_8,2,5,63,98,1757987308
63,19,18,Jits_Linear_8,3,5,80,127,1758006704
63,19,18,Jits_Linear_8,0,5,63,98,1758526708
63,19,18,Jits_Linear_8,1,5,80,127,1758576988
63,19,18,Jits_Linear_8,2,1,48,32,1758588572
63,19,18,Jits_Linear_8,3,5,56,103,1758667260
63,19,18,Jits_Linear_8,0,5,63,98,1759166860
63,19,18,Jits_Linear_8,1,5,80,127,1759196388
63,19,18,Jits_Linear_8,2,1,48,34,1759235496
63,19,18,Jits_Linear_8,3,5,56,103,1759286536
63,19,18,Jits_Linear_8,0,5,63,98,1759817372
63,19,18,Jits_Linear_8,1,5,56,103,1759827492
63,19,18,Jits_Linear_8,2,1,48,33,1759901556
63,19,18,Jits_Linear_8,3,5,80,127,1759926612
63,19,18,Jits_Linear_8,0,1,48,30,1760536412
63,19,18,Jits_Linear_8,1,5,63,98,1760566632
63,19,18,Jits_Linear_8,2,5,80,127,1760597500
63,19,18,Jits_Linear_8,3,5,56,103,1760627252
63,19,18,Jits_Linear_8,0,5,80,127,1761227100
63,19,18,Jits_Linear_8,1,1,48,24,1761228064
63,19,18,Jits_Linear_8,2,5,63,98,1761237292
63,19,18,Jits_Linear_8,3,5,56,103,1761267264
63,19,18,Jits_Linear_8,0,5,80,127,1761766656
63,19,18,Jits_Linear_8,1,5,63,98,1761787216
63,19,18,Jits_Linear_8,2,5,56,103,1761837416
63,19,18,Jits_Linear_8,3,1,48,31,1761870876
63,19,18,Jits_Linear_8,0,5,63,98,1762436360
63,19,18,Jits_Linear_8,1,5,80,127,1762496756
63,19,18,Jits_Linear_8,2,1,48,36,1762501964
63,19,18,Jits_Linear_8,3,5,56,103,1762517504
63,19,18,Jits_Linear_8,0,5,63,98,1763036580
63,19,18,Jits_Linear_8,1,5,56,103,1763086584
63,19,18,Jits_Linear_8,2,5,80,127,1763096852
63,19,18,Jits_Linear_8,3,1,48,31,1763167400
63,19,18,Jits_Linear_8,0,5,56,103,1763707392
63,19,18,Jits_Linear_8,1,1,48,31,1763716912
63,19,18,Jits_Linear_8,2,5,80,127,1763718180
63,19,18,Jits_Linear_8,3,5,63,98,1763816764
63,19,18,Jits_Linear_8,0,5,80,127,1764307320
63,19,18,Jits_Linear_8,1,5,63,98,1764316472
63,19,18,Jits_Linear_8,2,1,48,35,1764383888
63,19,18,Jits_Linear_8,3,5,56,103,1764467080
63,19,18,Jits_Linear_8,0,5,63,98,1764947288
63,19,18,Jits_Linear_8,1,5,80,127,1764987304
63,19,18,Jits_Linear_8,2,1,48,35,1765031772
63,19,18,Jits_Linear_8,3,5,56,103,1765067312
63,19,18,Jits_Linear_8,0,5,56,103,1765566908
63,19,18,Jits_Linear_8,1,1,48,35,1765641596
63,19,18,Jits_Linear_8,2,5,80,127,1765667104
63,19,18,Jits_Linear_8,3,5,63,98,1765686664
63,19,18,Jits_Linear_8,0,5,80,127,1766257296
63,19,18,Jits_Linear_8,1,5,56,103,1766267344
63,19,18,Jits_Linear_8,2,1,48,33,1766310920
63,19,18,Jits_Linear_8,3,5,63,98,1766357320
63,19,18,Jits_Linear_8,0,5,56,103,1766886904
63,19,18,Jits_Linear_8,1,5,63,98,1766907164
63,19,18,Jits_Linear_8,2,1,48,32,1766952012
63,19,18,Jits_Linear_8,3,5,80,127,1766987252
63,19,18,Jits_Linear_8,0,5,63,98,1767457268
63,19,18,Jits_Linear_8,1,5,56,103,1767547328
63,19,18,Jits_Linear_8,2,5,80,127,1767550320
63,19,18,Jits_Linear_8,3,1,48,40,1767559216
63,19,18,Jits_Linear_8,0,5,56,103,1768107376
63,19,18,Jits_Linear_8,1,1,48,34,1768157096
63,19,18,Jits_Linear_8,2,5,80,127,1768166864
63,19,18,Jits_Linear_8,3,5,63,98,1768176984
63,19,18,Jits_Linear_8,0,1,48,35,1768766648
63,19,18,Jits_Linear_8,1,5,80,127,1768777304
63,19,18,Jits_Linear_8,2,5,56,103,1768787196
63,19,18,Jits_Linear_8,3,5,63,98,1768790492
63,19,18,Jits_Linear_8,0,5,56,103,1769356548
63,19,18,Jits_Linear_8,1,5,80,127,1769367116
63,19,18,Jits_Linear_8,2,5,63,98,1769387352
63,19,18,Jits_Linear_8,3,1,48,36,1769388316
63,19,18,Jits_Linear_8,0,5,63,98,1769946588
63,19,18,Jits_Linear_8,1,5,80,127,1770007008
63,19,18,Jits_Linear_8,2,1,48,31,1770024872
63,19,18,Jits_Linear_8,3,5,56,103,1770057052
63,19,18,Jits_Linear_8,0,1,48,32,1770643140
63,19,18,Jits_Linear_8,1,5,63,98,1770647072
63,19,18,Jits_Linear_8,2,5,56,103,1770657268
63,19,18,Jits_Linear_8,3,5,80,127,1770707244
63,19,18,Jits_Linear_8,0,5,63,98,1771156800
63,19,18,Jits_Linear_8,1,5,80,127,1771177256
63,19,18,Jits_Linear_8,2,5,56,103,1771186480
63,19,18,Jits_Linear_8,3,1,48,35,1771279144
63,19,18,Jits_Linear_8,0,5,63,98,1771767192
63,19,18,Jits_Linear_8,1,5,80,127,1771770580
63,19,18,Jits_Linear_8,2,5,56,103,1771807080
63,19,18,Jits_Linear_8,3,1,48,31,1771938380
63,19,18,Jits_Linear_8,0,5,63,98,1772446992
63,19,18,Jits_Linear_8,1,5,80,127,1772476744
63,19,18,Jits_Linear_8,2,1,48,22,1772479408
63,19,18,Jits_Linear_8,3,5,56,103,1772487080
63,19,18,Jits_Linear_8,0,5,56,103,1773007124
63,19,18,Jits_Linear_8,1,5,80,127,1773037100
63,19,18,Jits_Linear_8,2,5,63,98,1773066576
63,19,18,Jits_Linear_8,3,1,48,30,1773067540
63,19,18,Jits_Linear_8,0,1,48,26,1773662180
63,19,18,Jits_Linear_8,1,5,63,98,1773706724
63,19,18,Jits_Linear_8,2,5,56,103,1773746432
63,19,18,Jits_Linear_8,3,5,80,127,1773749580
63,19,18,Jits_Linear_8,0,5,80,127,1774207228
63,19,18,Jits_Linear_8,1,1,48,35,1774285656
63,19,18,Jits_Linear_8,2,5,56,103,1774287240
63,19,18,Jits_Linear_8,3,5,63,98,1774337468
63,19,18,Jits_Linear_8,0,5,80,127,1774787080
63,19,18,Jits_Linear_8,1,5,56,103,1774807392
63,19,18,Jits_Linear_8,2,5,63,98,1774896428
63,19,18,Jits_Linear_8,3,1,48,36,1774909588
63,19,18,Jits_Linear_8,0,5,80,127,1775427044
63,19,18,Jits_Linear_8,1,5,63,98,1775467132
63,19,18,Jits_Linear_8,2,1,48,29,1775476628
63,19,18,Jits_Linear_8,3,5,56,103,1775506992
63,19,18,Jits_Linear_8,0,5,63,98,1775997236
63,19,18,Jits_Linear_8,1,5,80,127,1776056656
63,19,18,Jits_Linear_8,2,1,48,34,1776060820
63,19,18,Jits_Linear_8,3,5,56,103,1776087368
63,19,18,Jits_Linear_8,0,5,56,103,1776597380
63,19,18,Jits_Linear_8,1,5,80,127,1776627056
63,19,18,Jits_Linear_8,2,1,48,36,1776641284
63,19,18,Jits_Linear_8,3,5,63,98,1776717132
63,19,18,Jits_Linear_8,0,5,56,103,1777197412
63,19,18,Jits_Linear_8,1,1,48,38,1777200456
63,19,18,Jits_Linear_8,2,5,80,127,1777306932
63,19,18,Jits_Linear_8,3,5,63,98,1777336684
63,19,18,Jits_Linear_8,0,1,48,38,1777822708
63,19,18,Jits_Linear_8,1,5,56,103,1777837356
63,19,18,Jits_Linear_8,2,5,63,98,1777896924
63,19,18,Jits_Linear_8,3,5,80,127,1777926388
63,19,18,Jits_Linear_8,0,5,56,103,1778396460
63,19,18,Jits_Linear_8,1,1,48,38,1778418912
63,19,18,Jits_Linear_8,2,5,63,98,1778467136
63,19,18,Jits_Linear_8,3,5,80,127,1778486772
63,19,18,Jits_Linear_8,0,5,80,127,1778956792
63,19,18,Jits_Linear_8,1,5,63,98,1778977104
63,19,18,Jits_Linear_8,2,1,48,37,1778987568
63,19,18,Jits_Linear_8,3,5,56,103,1779027296
63,19,18,Jits_Linear_8,0,5,63,98,1779556800
63,19,18,Jits_Linear_8,1,1,48,36,1779564872
63,19,18,Jits_Linear_8,2,5,80,127,1779566916
63,19,18,Jits_Linear_8,3,5,56,103,1779617116
63,19,18,Jits_Linear_8,0,5,63,98,1780137312
63,19,18,Jits_Linear_8,1,1,48,38,1780163652
63,19,18,Jits_Linear_8,2,5,80,127,1780206912
63,19,18,Jits_Linear_8,3,5,56,103,1780226348
63,19,18,Jits_Linear_8,0,5,63,98,1780746468
63,19,18,Jits_Linear_8,1,5,80,127,1780749984
63,19,18,Jits_Linear_8,2,1,48,36,1780779780
63,19,18,Jits_Linear_8,3,5,56,103,1780817192
63,19,18,Jits_Linear_8,0,5,80,127,1781276928
63,19,18,Jits_Linear_8,1,5,56,103,1781296640
63,19,18,Jits_Linear_8,2,5,63,98,1781306836
63,19,18,Jits_Linear_8,3,1,48,35,1781347264
63,19,18,Jits_Linear_8,0,5,56,103,1781877228
63,19,18,Jits_Linear_8,1,1,48,27,1781908896
63,19,18,Jits_Linear_8,2,5,63,98,1781967284
63,19,18,Jits_Linear_8,3,5,80,127,1781970572
63,19,18,Jits_Linear_8,0,5,80,127,1782426960
63,19,18,Jits_Linear_8,1,5,56,103,1782437380
63,19,18,Jits_Linear_8,2,5,63,98,1782456792
63,19,18,Jits_Linear_8,3,1,48,37,1782497148
63,19,18,Jits_Linear_8,0,5,63,98,1782997220
63,19,18,Jits_Linear_8,1,5,80,127,1783056740
63,19,18,Jits_Linear_8,2,1,48,29,1783057704
63,19,18,Jits_Linear_8,3,5,56,103,1783066852
63,19,18,Jits_Linear_8,0,1,48,35,1783627692
63,19,18,Jits_Linear_8,1,5,63,98,1783637384
63,19,18,Jits_Linear_8,2,5,80,127,1783666988
63,19,18,Jits_Linear_8,3,5,56,103,1783706924
63,19,18,Jits_Linear_8,0,5,56,103,1784196484
63,19,18,Jits_Linear_8,1,5,80,127,1784206680
63,19,18,Jits_Linear_8,2,5,63,98,1784246768
63,19,18,Jits_Linear_8,3,1,48,29,1784273848
63,19,18,Jits_Linear_8,0,5,80,127,1784726892
63,19,18,Jits_Linear_8,1,5,56,103,1784806988
63,19,18,Jits_Linear_8,2,5,63,98,1784816888
63,19,18,Jits_Linear_8,3,1,48,40,1784845956
63,19,18,Jits_Linear_8,0,5,80,127,1785337096
63,19,18,Jits_Linear_8,1,5,56,103,1785417040
63,19,18,Jits_Linear_8,2,1,48,33,1785424420
63,19,18,Jits_Linear_8,3,5,63,98,1785427452
63,19,18,Jits_Linear_8,0,5,80,127,1785857320
63,19,18,Jits_Linear_8,1,5,56,103,1785906476
63,19,18,Jits_Linear_8,2,5,63,98,1785956828
63,19,18,Jits_Linear_8,3,1,48,25,1786025132
63,19,18,Jits_Linear_8,0,5,56,103,1786476884
63,19,18,Jits_Linear_8,1,5,63,98,1786480096
63,19,18,Jits_Linear_8,2,5,80,127,1786527232
63,19,18,Jits_Linear_8,3,1,48,29,1786562184
63,19,18,Jits_Linear_8,0,5,56,103,1787056736
63,19,18,Jits_Linear_8,1,5,63,98,1787087236
63,19,18,Jits_Linear_8,2,5,80,127,1787096608
63,19,18,Jits_Linear_8,3,1,48,35,1787106476
63,19,18,Jits_Linear_8,0,5,63,98,1787526688
63,19,18,Jits_Linear_8,1,5,56,103,1787597120
63,19,18,Jits_Linear_8,2,5,80,127,1787647348
63,19,18,Jits_Linear_8,3,1,48,32,1787658032
63,19,18,Jits_Linear_8,0,5,63,98,1788117320
63,19,18,Jits_Linear_8,1,5,56,103,1788126540
63,19,18,Jits_Linear_8,2,5,80,127,1788129756
63,19,18,Jits_Linear_8,3,1,48,34,1788199056
63,19,18,Jits_Linear_8,0,5,80,127,1788616980
63,19,18,Jits_Linear_8,1,5,56,103,1788676428
63,19,18,Jits_Linear_8,2,1,48,27,1788722840
63,19,18,Jits_Linear_8,3,5,63,98,1788766700
63,19,18,Jits_Linear_8,0,5,80,127,1789167020
63,19,18,Jits_Linear_8,1,5,56,103,1789267444
63,19,18,Jits_Linear_8,2,1,48,30,1789292284
63,19,18,Jits_Linear_8,3,5,63,98,1789307300
63,19,18,Jits_Linear_8,0,5,56,103,1789766984
63,19,18,Jits_Linear_8,1,5,63,98,1789786696
63,19,18,Jits_Linear_8,2,5,80,127,1789826632
63,19,18,Jits_Linear_8,3,1,48,34,1789833788
63,19,18,Jits_Linear_8,0,5,63,98,1790287204
63,19,18,Jits_Linear_8,1,5,56,103,1790306912
63,19,18,Jits_Linear_8,2,1,48,38,1790385928
63,19,18,Jits_Linear_8,3,5,80,127,1790407004
63,19,18,Jits_Linear_8,0,5,63,98,1790816920
63,19,18,Jits_Linear_8,1,1,48,31,1790851504
63,19,18,Jits_Linear_8,2,5,80,127,1790927204
63,19,18,Jits_Linear_8,3,5,56,103,1790956868
63,19,18,Jits_Linear_8,0,5,56,103,1791376836
63,19,18,Jits_Linear_8,1,5,63,98,1791406588
63,19,18,Jits_Linear_8,2,1,48,27,1791426048
63,19,18,Jits_Linear_8,3,5,80,127,1791456708
63,19,18,Jits_Linear_8,0,5,63,98,1791886716
63,19,18,Jits_Linear_8,1,5,56,103,1791917516
63,19,18,Jits_Linear_8,2,1,48,28,1791924392
63,19,18,Jits_Linear_8,3,5,80,127,1791966588
63,19,18,Jits_Linear_8,0,5,56,103,1792457044
63,19,18,Jits_Linear_8,1,1,48,28,1792469900
63,19,18,Jits_Linear_8,2,5,63,98,1792476524
63,19,18,Jits_Linear_8,3,5,80,127,1792557540
63,19,18,Jits_Linear_8,0,5,63,98,1792966992
63,19,18,Jits_Linear_8,1,1,48,37,1793011916
63,19,18,Jits_Linear_8,2,5,56,103,1793026508
63,19,18,Jits_Linear_8,3,5,80,127,1793057228
63,19,18,Jits_Linear_8,0,5,56,103,1793546636
63,19,18,Jits_Linear_8,1,1,48,38,1793549152
63,19,18,Jits_Linear_8,2,5,80,127,1793607020
63,19,18,Jits_Linear_8,3,5,63,98,1793647092
63,19,18,Jits_Linear_8,0,5,63,98,1794056744
63,19,18,Jits_Linear_8,1,5,56,103,1794116988
63,19,18,Jits_Linear_8,2,1,48,32,1794152616
63,19,18,Jits_Linear_8,3,5,80,127,1794186736
63,19,18,Jits_Linear_8,0,5,56,103,1794666856
63,19,18,Jits_Linear_8,1,5,63,98,1794677052
63,19,18,Jits_Linear_8,2,5,80,127,1794680412
63,19,18,Jits_Linear_8,3,1,48,18,1794698224
63,19,18,Jits_Linear_8,0,5,63,98,1795136872
63,19,18,Jits_Linear_8,1,1,48,37,1795197336
63,19,18,Jits_Linear_8,2,5,56,103,1795198696
63,19,18,Jits_Linear_8,3,5,80,127,1795201144
63,19,18,Jits_Linear_8,0,5,63,98,1795646952
63,19,18,Jits_Linear_8,1,5,80,127,1795676704
63,19,18,Jits_Linear_8,2,5,56,103,1795696940
63,19,18,Jits_Linear_8,3,1,48,33,1795703720
63,19,18,Jits_Linear_8,0,5,56,103,1796177420
63,19,18,Jits_Linear_8,1,1,48,31,1796203156
63,19,18,Jits_Linear_8,2,5,63,98,1796226420
63,19,18,Jits_Linear_8,3,5,80,127,1796307468
63,19,18,Jits_Linear_8,0,5,80,127,1796676888
63,19,18,Jits_Linear_8,1,1,48,28,1796710424
63,19,18,Jits_Linear_8,2,5,63,98,1796716820
63,19,18,Jits_Linear_8,3,5,56,103,1796737504
63,19,18,Jits_Linear_8,0,1,48,32,1797226440
63,19,18,Jits_Linear_8,1,5,56,103,1797266776
63,19,18,Jits_Linear_8,2,5,80,127,1797276972
63,19,18,Jits_Linear_8,3,5,63,98,1797296608
63,19,18,Jits_Linear_8,0,1,48,29,1797742216
63,19,18,Jits_Linear_8,1,5,56,103,1797766528
63,19,18,Jits_Linear_8,2,5,63,98,1797816656
63,19,18,Jits_Linear_8,3,5,80,127,1797847660
63,19,18,Jits_Linear_8,0,5,56,103,1798236396
63,19,18,Jits_Linear_8,1,5,63,98,1798246964
63,19,18,Jits_Linear_8,2,1,48,34,1798258928
63,19,18,Jits_Linear_8,3,5,80,127,1798297012
63,19,18,Jits_Linear_8,0,5,56,103,1798746724
63,19,18,Jits_Linear_8,1,5,80,127,1798749708
63,19,18,Jits_Linear_8,2,1,48,35,1798774696
63,19,18,Jits_Linear_8,3,5,63,98,1798907204
63,19,18,Jits_Linear_8,0,1,48,32,1799266600
63,19,18,Jits_Linear_8,1,5,63,98,1799276888
63,19,18,Jits_Linear_8,2,5,56,103,1799346572
63,19,18,Jits_Linear_8,3,5,80,127,1799386716
63,19,18,Jits_Linear_8,0,5,63,98,1799826772
63,19,18,Jits_Linear_8,1,1,48,31,1799856568
63,19,18,Jits_Linear_8,2,5,56,103,1799916976
63,19,18,Jits_Linear_8,3,5,80,127,1799919968
63,19,18,Jits_Linear_8,0,5,56,103,1800317380
63,19,18,Jits_Linear_8,1,1,48,35,1800386508
63,19,18,Jits_Linear_8,2,5,63,98,1800407584
63,19,18,Jits_Linear_8,3,5,80,127,1800416512
63,19,18,Jits_Linear_8,0,5,56,103,1800796476
63,19,18,Jits_Linear_8,1,5,63,98,1800846680
63,19,18,Jits_Linear_8,2,5,80,127,1800877404
63,19,18,Jits_Linear_8,3,1,48,32,1800947496
63,19,18,Jits_Linear_8,0,5,63,98,1801377232
63,19,18,Jits_Linear_8,1,5,80,127,1801387504
63,19,18,Jits_Linear_8,2,1,48,30,1801407564
63,19,18,Jits_Linear_8,3,5,56,103,1801446692
63,19,18,Jits_Linear_8,0,5,63,98,1801796900
63,19,18,Jits_Linear_8,1,5,80,127,1801857592
63,19,18,Jits_Linear_8,2,5,56,103,1801897304
63,19,18,Jits_Linear_8,3,1,48,30,1801951364
63,19,18,Jits_Linear_8,0,1,48,31,1802385860
63,19,18,Jits_Linear_8,1,5,56,103,1802396972
63,19,18,Jits_Linear_8,2,5,80,127,1802416456
63,19,18,Jits_Linear_8,3,5,63,98,1802436844
63,19,18,Jits_Linear_8,0,5,63,98,1802816944
63,19,18,Jits_Linear_8,1,5,56,103,1802837476
63,19,18,Jits_Linear_8,2,5,80,127,1802877340
63,19,18,Jits_Linear_8,3,1,48,32,1802878528
63,19,18,Jits_Linear_8,0,5,63,98,1803326732
63,19,18,Jits_Linear_8,1,1,48,32,1803332388
63,19,18,Jits_Linear_8,2,5,80,127,1803356476
63,19,18,Jits_Linear_8,3,5,56,103,1803377156
63,19,18,Jits_Linear_8,0,5,80,127,1803796812
63,19,18,Jits_Linear_8,1,1,48,28,1803845048
63,19,18,Jits_Linear_8,2,5,56,103,1803846936
63,19,18,Jits_Linear_8,3,5,63,98,1803906352
63,19,18,Jits_Linear_8,0,5,63,98,1804276996
63,19,18,Jits_Linear_8,1,1,48,27,1804343520
63,19,18,Jits_Linear_8,2,5,56,103,1804396896
63,19,18,Jits_Linear_8,3,5,80,127,1804426572
63,19,18,Jits_Linear_8,0,5,80,127,1804806448
63,19,18,Jits_Linear_8,1,5,63,98,1804826984
63,19,18,Jits_Linear_8,2,1,48,30,1804839616
63,19,18,Jits_Linear_8,3,5,56,103,1804896584
63,19,18,Jits_Linear_8,0,5,63,98,1805316556
63,19,18,Jits_Linear_8,1,5,56,103,1805326676
63,19,18,Jits_Linear_8,2,1,48,31,1805345608
63,19,18,Jits_Linear_8,3,5,80,127,1805406464
63,19,18,Jits_Linear_8,0,1,48,31,1805812048
63,19,18,Jits_Linear_8,1,5,56,103,1805867252
63,19,18,Jits_Linear_8,2,5,80,127,1805897152
63,19,18,Jits_Linear_8,3,5,63,98,1805907720
63,19,18,Jits_Linear_8,0,9999,9999,9999,1695534200
63,19,18,Jits_Linear_8,1,9999,9999,9999,1696354360
63,19,18,Jits_Linear_8,2,9999,9999,9999,1697174592
63,19,18,Jits_Linear_8,3,9999,9999,9999,1697994808
63,19,18,Jits_Linear_8,4,9999,9999,9999,1698815048
63,19,18,Jits_Linear_8,5,9999,9999,9999,1699625072
63,19,18,Jits_Linear_8,6,9999,9999,9999,1700435008
63,19,18,Jits_Linear_8,7,9999,9999,9999,1701245044
63,19,18,Jits_Linear_8,8,9999,9999,9999,1702055004
63,19,18,Jits_Linear_8,9,9999,9999,9999,1702864980
63,19,18,Jits_Linear_8,10,9999,9999,9999,1703664760
63,19,18,Jits_Linear_8,11,9999,9999,9999,1704464464
63,19,18,Jits_Linear_8,12,9999,9999,9999,1705264220
63,19,18,Jits_Linear_8,13,9999,9999,9999,1706064956
63,19,18,Jits_Linear_8,14,9999,9999,9999,1706864768
63,19,18,Jits_Linear_8,15,9999,9999,9999,1707654264
63,19,18,Jits_Linear_8,16,9999,9999,9999,1708444788
63,19,18,Jits_Linear_8,17,9999,9999,9999,1709234300
63,19,18,Jits_Linear_8,18,9999,9999,9999,1710024768
63,19,18,Jits_Linear_8,19,9999,9999,9999,1710814272
63,19,18,Jits_Linear_8,20,9999,9999,9999,1711594620
63,19,18,Jits_Linear_8,21,9999,9999,9999,1712374892
63,19,18,Jits_Linear_8,22,9999,9999,9999,1713154144
63,19,18,Jits_Linear_8,23,9999,9999,9999,1713934416
63,19,18,Jits_Linear_8,24,9999,9999,9999,1714714684
63,19,18,Jits_Linear_8,25,9999,9999,9999,1715484772
63,19,18,Jits_Linear_8,26,9999,9999,9999,1716254796
63,19,18,Jits_Linear_8,27,9999,9999,9999,1717024884
63,19,18,Jits_Linear_8,28,9999,9999,9999,1717794908
63,19,18,Jits_Linear_8,29,9999,9999,9999,1718564940
63,19,18,Jits_Linear_8,30,9999,9999,9999,1719324760
63,19,18,Jits_Linear_8,31,9999,9999,9999,1720084584
63,19,18,Jits_Linear_8,32,9999,9999,9999,1720844344
63,19,18,Jits_Linear_8,33,9999,9999,9999,1721604172
63,19,18,Jits_Linear_8,34,9999,9999,9999,1722365052
63,19,18,Jits_Linear_8,35,9999,9999,9999,1723114592
63,19,18,Jits_Linear_8,36,9999,9999,9999,1723864156
63,19,18,Jits_Linear_8,37,9999,9999,9999,1724614780
63,19,18,Jits_Linear_8,38,9999,9999,9999,1725364348
63,19,18,Jits_Linear_8,39,9999,9999,9999,1726114896
63,19,18,Jits_Linear_8,40,9999,9999,9999,1726854268
63,19,18,Jits_Linear_8,41,9999,9999,9999,1727594552
63,19,18,Jits_Linear_8,42,9999,9999,9999,1728334964
63,19,18,Jits_Linear_8,43,9999,9999,9999,1729074268
63,19,18,Jits_Linear_8,44,9999,9999,9999,1729814592
63,19,18,Jits_Linear_8,45,9999,9999,9999,1730544728
63,19,18,Jits_Linear_8,46,9999,9999,9999,1731274820
63,19,18,Jits_Linear_8,47,9999,9999,9999,1732004980
63,19,18,Jits_Linear_8,48,9999,9999,9999,1732735072
63,19,18,Jits_Linear_8,49,9999,9999,9999,1733464116
63,19,18,Jits_Linear_8,50,9999,9999,9999,1734185052
63,19,18,Jits_Linear_8,51,9999,9999,9999,1734904928
63,19,18,Jits_Linear_8,52,9999,9999,9999,1735624828
63,19,18,Jits_Linear_8,53,9999,9999,9999,1736344664
63,19,18,Jits_Linear_8,54,9999,9999,9999,1737064564
63,19,18,Jits_Linear_8,55,9999,9999,9999,1737774136
63,19,18,Jits_Linear_8,56,9999,9999,9999,1738484852
63,19,18,Jits_Linear_8,57,9999,9999,9999,1739194492
63,19,18,Jits_Linear_8,58,9999,9999,9999,1739904060
63,19,18,Jits_Linear_8,59,9999,9999,9999,1740614732
63,19,18,Jits_Linear_8,60,9999,9999,9999,1741314108
63,19,18,Jits_Linear_8,61,9999,9999,9999,1742014584
63,19,18,Jits_Linear_8,62,9999,9999,9999,1742715008
63,19,18,Jits_Linear_8,63,9999,9999,9999,1743414360
63,19,18,Jits_Linear_8,64,9999,9999,9999,1744114752
63,19,18,Jits_Linear_8,65,9999,9999,9999,1744804972
63,19,18,Jits_Linear_8,66,9999,9999,9999,1745494092
63,19,18,Jits_Linear_8,67,9999,9999,9999,1746184320
63,19,18,Jits_Linear_8,68,9999,9999,9999,1746874444
63,19,18,Jits_Linear_8,69,9999,9999,9999,1747564608
63,19,18,Jits_Linear_8,70,9999,9999,9999,1748244576
63,19,18,Jits_Linear_8,71,9999,9999,9999,1748924516
63,19,18,Jits_Linear_8,72,9999,9999,9999,1749604472
63,19,18,Jits_Linear_8,73,9999,9999,9999,1750284372
63,19,18,Jits_Linear_8,74,9999,9999,9999,1750964316
63,19,18,Jits_Linear_8,75,9999,9999,9999,1751635060
63,19,18,Jits_Linear_8,76,9999,9999,9999,1752304736
63,19,18,Jits_Linear_8,77,9999,9999,9999,1752974444
63,19,18,Jits_Linear_8,78,9999,9999,9999,1753644148
63,19,18,Jits_Linear_8,79,9999,9999,9999,1754314876
63,19,18,Jits_Linear_8,80,9999,9999,9999,1754974328
63,19,18,Jits_Linear_8,81,9999,9999,9999,1755634776
63,19,18,Jits_Linear_8,82,9999,9999,9999,1756294200
63,19,18,Jits_Linear_8,83,9999,9999,9999,1756954752
63,19,18,Jits_Linear_8,84,9999,9999,9999,1757614168
63,19,18,Jits_Linear_8,85,9999,9999,9999,1758264400
63,19,18,Jits_Linear_8,86,9999,9999,9999,1758914676
63,19,18,Jits_Linear_8,87,9999,9999,9999,1759564888
63,19,18,Jits_Linear_8,88,9999,9999,9999,1760214108
63,19,18,Jits_Linear_8,89,9999,9999,9999,1760864332
63,19,18,Jits_Linear_8,90,9999,9999,9999,1761504344
63,19,18,Jits_Linear_8,91,9999,9999,9999,1762144384
63,19,18,Jits_Linear_8,92,9999,9999,9999,1762784324
63,19,18,Jits_Linear_8,93,9999,9999,9999,1763424344
63,19,18,Jits_Linear_8,94,9999,9999,9999,1764064344
63,19,18,Jits_Linear_8,95,9999,9999,9999,1764694120
63,19,18,Jits_Linear_8,96,9999,9999,9999,1765324920
63,19,18,Jits_Linear_8,97,9999,9999,9999,1765954680
63,19,18,Jits_Linear_8,98,9999,9999,9999,1766584436
63,19,18,Jits_Linear_8,99,9999,9999,9999,1767214144
63,19,18,Jits_Linear_8,100,9999,9999,9999,1767834744
63,19,18,Jits_Linear_8,101,9999,9999,9999,1768454244
63,19,18,Jits_Linear_8,102,9999,9999,9999,1769074772
63,19,18,Jits_Linear_8,103,9999,9999,9999,1769694320
63,19,18,Jits_Linear_8,104,9999,9999,9999,1770314880
63,19,18,Jits_Linear_8,105,9999,9999,9999,1770924100
63,19,18,Jits_Linear_8,106,9999,9999,9999,1771534448
63,19,18,Jits_Linear_8,107,9999,9999,9999,1772144760
63,19,18,Jits_Linear_8,108,9999,9999,9999,1772755020
63,19,18,Jits_Linear_8,109,9999,9999,9999,1773364328
63,19,18,Jits_Linear_8,110,9999,9999,9999,1773964412
63,19,18,Jits_Linear_8,111,9999,9999,9999,1774564408
63,19,18,Jits_Linear_8,112,9999,9999,9999,1775164512
63,19,18,Jits_Linear_8,113,9999,9999,9999,1775764596
63,19,18,Jits_Linear_8,114,9999,9999,9999,1776364600
63,19,18,Jits_Linear_8,115,9999,9999,9999,1776954432
63,19,18,Jits_Linear_8,116,9999,9999,9999,1777544260
63,19,18,Jits_Linear_8,117,9999,9999,9999,1778134092
63,19,18,Jits_Linear_8,118,9999,9999,9999,1778724972
63,19,18,Jits_Linear_8,119,9999,9999,9999,1779314792
63,19,18,Jits_Linear_8,120,9999,9999,9999,1779894348
63,19,18,Jits_Linear_8,121,9999,9999,9999,1780474964
63,19,18,Jits_Linear_8,122,9999,9999,9999,1781054568
63,19,18,Jits_Linear_8,123,9999,9999,9999,1781634104
63,19,18,Jits_Linear_8,124,9999,9999,9999,1782214776
63,19,18,Jits_Linear_8,125,9999,9999,9999,1782784084
63,19,18,Jits_Linear_8,126,9999,9999,9999,1783354496
63,19,18,Jits_Linear_8,127,9999,9999,9999,1783924824
63,19,18,Jits_Linear_8,128,9999,9999,9999,1784494180
63,19,18,Jits_Linear_8,129,9999,9999,9999,1785064520
63,19,18,Jits_Linear_8,130,9999,9999,9999,1785624680
63,19,18,Jits_Linear_8,131,9999,9999,9999,1786184760
63,19,18,Jits_Linear_8,132,9999,9999,9999,1786744900
63,19,18,Jits_Linear_8,133,9999,9999,9999,1787305060
63,19,18,Jits_Linear_8,134,9999,9999,9999,1787864168
63,19,18,Jits_Linear_8,135,9999,9999,9999,1788415100
63,19,18,Jits_Linear_8,136,9999,9999,9999,1788964972
63,19,18,Jits_Linear_8,137,9999,9999,9999,1789514864
63,19,18,Jits_Linear_8,138,9999,9999,9999,1790064752
63,19,18,Jits_Linear_8,139,9999,9999,9999,1790614640
63,19,18,Jits_Linear_8,140,9999,9999,9999,1791154256
63,19,18,Jits_Linear_8,141,9999,9999,9999,1791694912
63,19,18,Jits_Linear_8,142,9999,9999,9999,1792234604
63,19,18,Jits_Linear_8,143,9999,9999,9999,1792774244
63,19,18,Jits_Linear_8,144,9999,9999,9999,1793314908
63,19,18,Jits_Linear_8,145,9999,9999,9999,1793844332
63,19,18,Jits_Linear_8,146,9999,9999,9999,1794374744
63,19,18,Jits_Linear_8,147,9999,9999,9999,1794904160
63,19,18,Jits_Linear_8,148,9999,9999,9999,1795434560
63,19,18,Jits_Linear_8,149,9999,9999,9999,1795965024
63,19,18,Jits_Linear_8,150,9999,9999,9999,1796484184
63,19,18,Jits_Linear_8,151,9999,9999,9999,1797004400
63,19,18,Jits_Linear_8,152,9999,9999,9999,1797524544
63,19,18,Jits_Linear_8,153,9999,9999,9999,1798044752
63,19,18,Jits_Linear_8,154,9999,9999,9999,1798564952
63,19,18,Jits_Linear_8,155,9999,9999,9999,1799074900
63,19,18,Jits_Linear_8,156,9999,9999,9999,1799584856
63,19,18,Jits_Linear_8,157,9999,9999,9999,1800094796
63,19,18,Jits_Linear_8,158,9999,9999,9999,1800604744
63,19,18,Jits_Linear_8,159,9999,9999,9999,1801114700
63,19,18,Jits_Linear_8,160,9999,9999,9999,1801614400
63,19,18,Jits_Linear_8,161,9999,9999,9999,1802114152
63,19,18,Jits_Linear_8,162,9999,9999,9999,1802614888
63,19,18,Jits_Linear_8,163,9999,9999,9999,1803114564
63,19,18,Jits_Linear_8,164,9999,9999,9999,1803614312
63,19,18,Jits_Linear_8,165,9999,9999,9999,1804104772
63,19,18,Jits_Linear_8,166,9999,9999,9999,1804594280
63,19,18,Jits_Linear_8,167,9999,9999,9999,1805084740
63,19,18,Jits_Linear_8,168,9999,9999,9999,1805574248
63,19,18,Jits_Linear_8,169,9999,9999,9999,1806064696
63,20,16,Jits_ISO_5,0,5,56,103,1813340532
63,20,16,Jits_ISO_5,1,5,63,98,1813343552
63,20,16,Jits_ISO_5,2,5,80,127,1813346752
63,20,16,Jits_ISO_5,0,5,56,103,1813841372
63,20,16,Jits_ISO_5,1,5,63,98,1813844548
63,20,16,Jits_ISO_5,2,5,80,127,1813847668
63,20,16,Jits_ISO_5,0,1,48,40,1814296720
63,20,16,Jits_ISO_5,1,5,56,103,1814341176
63,20,16,Jits_ISO_5,2,5,80,127,1814351372
63,20,16,Jits_ISO_5,3,5,63,98,1814370636
63,20,16,Jits_ISO_5,0,1,48,42,1814783796
63,20,16,Jits_ISO_5,1,5,63,98,1814790568
63,20,16,Jits_ISO_5,2,5,80,127,1814821292
63,20,16,Jits_ISO_5,3,5,56,103,1814830516
63,20,16,Jits_ISO_5,0,1,48,43,1815242448
63,20,16,Jits_ISO_5,1,5,80,127,1815350596
63,20,16,Jits_ISO_5,2,5,56,103,1815361088
63,20,16,Jits_ISO_5,3,5,63,98,1815390540
63,20,16,Jits_ISO_5,0,1,48,41,1815832264
63,20,16,Jits_ISO_5,1,5,63,98,1815841356
63,20,16,Jits_ISO_5,2,5,56,103,1815870956
63,20,16,Jits_ISO_5,3,5,80,127,1815881152
63,20,16,Jits_ISO_5,0,5,56,103,1816290584
63,20,16,Jits_ISO_5,1,1,48,41,1816331340
63,20,16,Jits_ISO_5,2,5,63,98,1816340876
63,20,16,Jits_ISO_5,3,5,80,127,1816361408
63,20,16,Jits_ISO_5,0,5,80,127,1816791376
63,20,16,Jits_ISO_5,1,1,48,42,1816817716
63,20,16,Jits_ISO_5,2,5,63,98,1816840624
63,20,16,Jits_ISO_5,3,5,56,103,1816880412
63,20,16,Jits_ISO_5,0,5,56,103,1817291424
63,20,16,Jits_ISO_5,1,5,63,98,1817320876
63,20,16,Jits_ISO_5,2,1,48,41,1817332764
63,20,16,Jits_ISO_5,3,5,80,127,1817390496
63,20,16,Jits_ISO_5,0,5,56,103,1817790796
63,20,16,Jits_ISO_5,1,1,48,43,1817817952
63,20,16,Jits_ISO_5,2,5,80,127,1817851352
63,20,16,Jits_ISO_5,3,5,63,98,1817881024
63,20,16,Jits_ISO_5,0,5,56,103,1818300660
63,20,16,Jits_ISO_5,1,5,63,98,1818311228
63,20,16,Jits_ISO_5,2,1,48,44,1818334044
63,20,16,Jits_ISO_5,3,5,80,127,1818351228
63,20,16,Jits_ISO_5,0,5,63,98,1818791260
63,20,16,Jits_ISO_5,1,1,48,42,1818798120
63,20,16,Jits_ISO_5,2,5,80,127,1818871124
63,20,16,Jits_ISO_5,3,5,56,103,1818881244
63,20,16,Jits_ISO_5,0,1,48,42,1819314384
63,20,16,Jits_ISO_5,1,5,63,98,1819341308
63,20,16,Jits_ISO_5,2,5,56,103,1819381244
63,20,16,Jits_ISO_5,3,5,80,127,1819384308
63,20,16,Jits_ISO_5,0,5,56,103,1819801160
63,20,16,Jits_ISO_5,1,5,63,98,1819811136
63,20,16,Jits_ISO_5,2,1,48,46,1819847284
63,20,16,Jits_ISO_5,3,5,80,127,1819851360
63,20,16,Jits_ISO_5,0,5,56,103,1820290344
63,20,16,Jits_ISO_5,1,5,63,98,1820293560
63,20,16,Jits_ISO_5,2,5,80,127,1820311100
63,20,16,Jits_ISO_5,3,1,48,46,1820345608
63,20,16,Jits_ISO_5,0,5,80,127,1820801388
63,20,16,Jits_ISO_5,1,5,56,103,1820810688
63,20,16,Jits_ISO_5,2,1,48,43,1820818612
63,20,16,Jits_ISO_5,3,5,63,98,1820881328
63,20,16,Jits_ISO_5,0,5,63,98,1821291092
63,20,16,Jits_ISO_5,1,5,56,103,1821311404
63,20,16,Jits_ISO_5,2,1,48,43,1821336244
63,20,16,Jits_ISO_5,3,5,80,127,1821391112
63,20,16,Jits_ISO_5,0,5,56,103,1821801088
63,20,16,Jits_ISO_5,1,1,48,49,1821819052
63,20,16,Jits_ISO_5,2,5,80,127,1821841092
63,20,16,Jits_ISO_5,3,5,63,98,1821851364
63,20,16,Jits_ISO_5,0,1,48,36,1822289968
63,20,16,Jits_ISO_5,1,5,80,127,1822291536
63,20,16,Jits_ISO_5,2,5,63,98,1822321064
63,20,16,Jits_ISO_5,3,5,56,103,1822361220
63,20,16,Jits_ISO_5,0,1,48,37,1822796108
63,20,16,Jits_ISO_5,1,5,56,103,1822810596
63,20,16,Jits_ISO_5,2,5,63,98,1822841244
63,20,16,Jits_ISO_5,3,5,80,127,1822891428
63,20,16,Jits_ISO_5,0,5,80,127,1823311164
63,20,16,Jits_ISO_5,1,1,48,39,1823337424
63,20,16,Jits_ISO_5,2,5,56,103,1823351244
63,20,16,Jits_ISO_5,3,5,63,98,1823361440
63,20,16,Jits_ISO_5,0,5,80,127,1823790312
63,20,16,Jits_ISO_5,1,1,48,40,1823819360
63,20,16,Jits_ISO_5,2,5,63,98,1823831292
63,20,16,Jits_ISO_5,3,5,56,103,1823890928
63,20,16,Jits_ISO_5,0,5,56,103,1824291184
63,20,16,Jits_ISO_5,1,5,80,127,1824301528
63,20,16,Jits_ISO_5,2,1,48,43,1824345548
63,20,16,Jits_ISO_5,3,5,63,98,1824381236
63,20,16,Jits_ISO_5,0,5,80,127,1824791080
63,20,16,Jits_ISO_5,1,5,63,98,1824851320
63,20,16,Jits_ISO_5,2,1,48,43,1824868064
63,20,16,Jits_ISO_5,3,5,56,103,1824881060
63,20,16,Jits_ISO_5,0,5,56,103,1825290900
63,20,16,Jits_ISO_5,1,1,48,46,1825350016
63,20,16,Jits_ISO_5,2,5,80,127,1825351580
63,20,16,Jits_ISO_5,3,5,63,98,1825391072
63,20,16,Jits_ISO_5,0,1,48,37,1825797352
63,20,16,Jits_ISO_5,1,5,56,103,1825840464
63,20,16,Jits_ISO_5,2,5,63,98,1825851036
63,20,16,Jits_ISO_5,3,5,80,127,1825854392
63,20,16,Jits_ISO_5,0,1,48,35,1826279156
63,20,16,Jits_ISO_5,1,5,80,127,1826291016
63,20,16,Jits_ISO_5,2,5,63,98,1826381084
63,20,16,Jits_ISO_5,3,5,56,103,1826391428
63,20,16,Jits_ISO_5,0,5,56,103,1826791040
63,20,16,Jits_ISO_5,1,5,63,98,1826793988
63,20,16,Jits_ISO_5,2,5,80,127,1826797184
63,20,16,Jits_ISO_5,3,1,48,40,1826810384
63,20,16,Jits_ISO_5,0,1,48,38,1827300792
63,20,16,Jits_ISO_5,1,5,80,127,1827311000
63,20,16,Jits_ISO_5,2,5,63,98,1827361152
63,20,16,Jits_ISO_5,3,5,56,103,1827390828
63,20,16,Jits_ISO_5,0,5,56,103,1827791340
63,20,16,Jits_ISO_5,1,5,80,127,1827800492
63,20,16,Jits_ISO_5,2,1,48,44,1827832252
63,20,16,Jits_ISO_5,3,5,63,98,1827871232
63,20,16,Jits_ISO_5,0,5,56,103,1828301128
63,20,16,Jits_ISO_5,1,5,63,98,1828320764
63,20,16,Jits_ISO_5,2,1,48,40,1828340220
63,20,16,Jits_ISO_5,3,5,80,127,1828381020
63,20,16,Jits_ISO_5,0,5,80,127,1828790912
63,20,16,Jits_ISO_5,1,1,48,41,1828856608
63,20,16,Jits_ISO_5,2,5,63,98,1828861432
63,20,16,Jits_ISO_5,3,5,56,103,1828880844
63,20,16,Jits_ISO_5,0,5,80,127,1829311040
63,20,16,Jits_ISO_5,1,5,56,103,1829321012
63,20,16,Jits_ISO_5,2,5,63,98,1829331360
63,20,16,Jits_ISO_5,3,1,48,45,1829344592
63,20,16,Jits_ISO_5,0,5,80,127,1829801348
63,20,16,Jits_ISO_5,1,5,56,103,1829820908
63,20,16,Jits_ISO_5,2,1,48,38,1829842608
63,20,16,Jits_ISO_5,3,5,63,98,1829890380
63,20,16,Jits_ISO_5,0,5,56,103,1830311136
63,20,16,Jits_ISO_5,1,5,80,127,1830340960
63,20,16,Jits_ISO_5,2,1,48,37,1830342372
63,20,16,Jits_ISO_5,3,5,63,98,1830360588
63,20,16,Jits_ISO_5,0,5,63,98,1830800992
63,20,16,Jits_ISO_5,1,1,48,38,1830847860
63,20,16,Jits_ISO_5,2,5,56,103,1830861152
63,20,16,Jits_ISO_5,3,5,80,127,1830890828
63,20,16,Jits_ISO_5,0,5,63,98,1831291212
63,20,16,Jits_ISO_5,1,5,80,127,1831294352
63,20,16,Jits_ISO_5,2,1,48,38,1831351940
63,20,16,Jits_ISO_5,3,5,56,103,1831381480
63,20,16,Jits_ISO_5,0,5,56,103,1831810340
63,20,16,Jits_ISO_5,1,1,48,39,1831835932
63,20,16,Jits_ISO_5,2,5,63,98,1831841132
63,20,16,Jits_ISO_5,3,5,80,127,1831881068
63,20,16,Jits_ISO_5,0,5,63,98,1832311288
63,20,16,Jits_ISO_5,1,1,48,39,1832321304
63,20,16,Jits_ISO_5,2,5,56,103,1832351220
63,20,16,Jits_ISO_5,3,5,80,127,1832370408
63,20,16,Jits_ISO_5,0,1,48,40,1832810096
63,20,16,Jits_ISO_5,1,5,63,98,1832821504
63,20,16,Jits_ISO_5,2,5,56,103,1832861068
63,20,16,Jits_ISO_5,3,5,80,127,1832871264
63,20,16,Jits_ISO_5,0,1,48,43,1833297608
63,20,16,Jits_ISO_5,1,5,80,127,1833301312
63,20,16,Jits_ISO_5,2,5,63,98,1833370992
63,20,16,Jits_ISO_5,3,5,56,103,1833390404
63,20,16,Jits_ISO_5,0,5,56,103,1833790792
63,20,16,Jits_ISO_5,1,5,80,127,1833811324
63,20,16,Jits_ISO_5,2,1,48,40,1833821936
63,20,16,Jits_ISO_5,3,5,63,98,1833851252
63,20,16,Jits_ISO_5,0,5,63,98,1834300948
63,20,16,Jits_ISO_5,1,5,80,127,1834321336
63,20,16,Jits_ISO_5,2,1,48,36,1834331948
63,20,16,Jits_ISO_5,3,5,56,103,1834361188
63,20,16,Jits_ISO_5,0,5,63,98,1834800832
63,20,16,Jits_ISO_5,1,1,48,37,1834807916
63,20,16,Jits_ISO_5,2,5,56,103,1834820912
63,20,16,Jits_ISO_5,3,5,80,127,1834831108
63,20,16,Jits_ISO_5,0,1,48,33,1835272364
63,20,16,Jits_ISO_5,1,5,80,127,1835301160
63,20,16,Jits_ISO_5,2,5,56,103,1835320944
63,20,16,Jits_ISO_5,3,5,63,98,1835351364
63,20,16,Jits_ISO_5,0,1,48,29,1835785120
63,20,16,Jits_ISO_5,1,5,56,103,1835870784
63,20,16,Jits_ISO_5,2,5,80,127,1835873852
63,20,16,Jits_ISO_5,3,5,63,98,1835891152
63,20,16,Jits_ISO_5,0,5,63,98,1836290360
63,20,16,Jits_ISO_5,1,5,56,103,1836321156
63,20,16,Jits_ISO_5,2,1,48,29,1836347192
63,20,16,Jits_ISO_5,3,5,80,127,1836380712
63,20,16,Jits_ISO_5,0,1,48,35,1836817992
63,20,16,Jits_ISO_5,1,5,63,98,1836870920
63,20,16,Jits_ISO_5,2,5,56,103,1836881268
63,20,16,Jits_ISO_5,3,5,80,127,1836890564
63,20,16,Jits_ISO_5,0,1,48,35,1837320768
63,20,16,Jits_ISO_5,1,5,56,103,1837322180
63,20,16,Jits_ISO_5,2,5,80,127,1837351408
63,20,16,Jits_ISO_5,3,5,63,98,1837360556
63,20,16,Jits_ISO_5,0,1,48,33,1837814616
63,20,16,Jits_ISO_5,1,5,63,98,1837861100
63,20,16,Jits_ISO_5,2,5,56,103,1837870772
63,20,16,Jits_ISO_5,3,5,80,127,1837890932
63,20,16,Jits_ISO_5,0,5,56,103,1838291520
63,20,16,Jits_ISO_5,1,1,48,34,1838332956
63,20,16,Jits_ISO_5,2,5,63,98,1838350656
63,20,16,Jits_ISO_5,3,5,80,127,1838353944
63,20,16,Jits_ISO_5,0,5,80,127,1838810664
63,20,16,Jits_ISO_5,1,5,56,103,1838820860
63,20,16,Jits_ISO_5,2,1,48,33,1838825628
63,20,16,Jits_ISO_5,3,5,63,98,1838891228
63,20,16,Jits_ISO_5,0,1,48,32,1839297032
63,20,16,Jits_ISO_5,1,5,80,127,1839300960
63,20,16,Jits_ISO_5,2,5,56,103,1839370816
63,20,16,Jits_ISO_5,3,5,63,98,1839380788
63,20,16,Jits_ISO_5,0,1,48,32,1839809668
63,20,16,Jits_ISO_5,1,5,63,98,1839840704
63,20,16,Jits_ISO_5,2,5,56,103,1839850900
63,20,16,Jits_ISO_5,3,5,80,127,1839871308
63,20,16,Jits_ISO_5,0,5,80,127,1840291224
63,20,16,Jits_ISO_5,1,1,48,28,1840302288
63,20,16,Jits_ISO_5,2,5,63,98,1840350636
63,20,16,Jits_ISO_5,3,5,56,103,1840390744
63,20,16,Jits_ISO_5,0,1,48,27,1840825404
63,20,16,Jits_ISO_5,1,5,56,103,1840830824
63,20,16,Jits_ISO_5,2,5,63,98,1840841096
63,20,16,Jits_ISO_5,3,5,80,127,1840881032
63,20,16,Jits_ISO_5,0,5,56,103,1841290636
63,20,16,Jits_ISO_5,1,5,80,127,1841321356
63,20,16,Jits_ISO_5,2,1,48,29,1841346796
63,20,16,Jits_ISO_5,3,5,63,98,1841370724
63,20,16,Jits_ISO_5,0,5,56,103,1841831360
63,20,16,Jits_ISO_5,1,1,48,28,1841870612
63,20,16,Jits_ISO_5,2,5,63,98,1841871976
63,20,16,Jits_ISO_5,3,5,80,127,1841874956
63,20,16,Jits_ISO_5,0,5,56,103,1842330956
63,20,16,Jits_ISO_5,1,5,63,98,1842341152
63,20,16,Jits_ISO_5,2,5,80,127,1842360708
63,20,16,Jits_ISO_5,3,1,48,24,1842370352
63,20,16,Jits_ISO_5,0,5,56,103,1842790768
63,20,16,Jits_ISO_5,1,5,80,127,1842793760
63,20,16,Jits_ISO_5,2,1,48,26,1842828584
63,20,16,Jits_ISO_5,3,5,63,98,1842830624
63,20,16,Jits_ISO_5,0,1,48,28,1843290624
63,20,16,Jits_ISO_5,1,5,63,98,1843330652
63,20,16,Jits_ISO_5,2,5,56,103,1843361004
63,20,16,Jits_ISO_5,3,5,80,127,1843380860
63,20,16,Jits_ISO_5,0,1,48,26,1843792748
63,20,16,Jits_ISO_5,1,5,80,127,1843800644
63,20,16,Jits_ISO_5,2,5,56,103,1843810540
63,20,16,Jits_ISO_5,3,5,63,98,1843821036
63,20,16,Jits_ISO_5,0,1,48,25,1844292780
63,20,16,Jits_ISO_5,1,5,56,103,1844301268
63,20,16,Jits_ISO_5,2,5,80,127,1844340984
63,20,16,Jits_ISO_5,3,5,63,98,1844370880
63,20,16,Jits_ISO_5,0,5,63,98,1844810976
63,20,16,Jits_ISO_5,1,5,80,127,1844821468
63,20,16,Jits_ISO_5,2,5,56,103,1844830764
63,20,16,Jits_ISO_5,3,1,48,30,1844860632
63,20,16,Jits_ISO_5,0,5,56,103,1845291596
63,20,16,Jits_ISO_5,1,1,48,28,1845324532
63,20,16,Jits_ISO_5,2,5,63,98,1845360972
63,20,16,Jits_ISO_5,3,5,80,127,1845371168
63,20,16,Jits_ISO_5,0,5,80,127,1845790972
63,20,16,Jits_ISO_5,1,5,56,103,1845801612
63,20,16,Jits_ISO_5,2,1,48,26,1845822792
63,20,16,Jits_ISO_5,3,5,63,98,1845850612
63,20,16,Jits_ISO_5,0,1,48,26,1846263936
63,20,16,Jits_ISO_5,1,5,80,127,1846300900
63,20,16,Jits_ISO_5,2,5,56,103,1846360596
63,20,16,Jits_ISO_5,3,5,63,98,1846391096
63,20,16,Jits_ISO_5,0,5,56,103,1846800632
63,20,16,Jits_ISO_5,1,5,80,127,1846803776
63,20,16,Jits_ISO_5,2,1,48,26,1846821216
63,20,16,Jits_ISO_5,3,5,63,98,1846840640
63,20,16,Jits_ISO_5,0,1,48,29,1847290904
63,20,16,Jits_ISO_5,1,5,56,103,1847331304
63,20,16,Jits_ISO_5,2,5,63,98,1847360832
63,20,16,Jits_ISO_5,3,5,80,127,1847371100
63,20,16,Jits_ISO_5,0,5,63,98,1847841240
63,20,16,Jits_ISO_5,1,1,48,25,1847845404
63,20,16,Jits_ISO_5,2,5,80,127,1847851652
63,20,16,Jits_ISO_5,3,5,56,103,1847860576
63,20,16,Jits_ISO_5,0,5,80,127,1848290752
63,20,16,Jits_ISO_5,1,1,48,28,1848321544
63,20,16,Jits_ISO_5,2,5,56,103,1848340820
63,20,16,Jits_ISO_5,3,5,63,98,1848343960
63,20,16,Jits_ISO_5,0,1,48,30,1848819848
63,20,16,Jits_ISO_5,1,5,56,103,1848821492
63,20,16,Jits_ISO_5,2,5,80,127,1848840756
63,20,16,Jits_ISO_5,3,5,63,98,1848850880
63,20,16,Jits_ISO_5,0,5,63,98,1849301652
63,20,16,Jits_ISO_5,1,1,48,29,1849321184
63,20,16,Jits_ISO_5,2,5,56,103,1849330948
63,20,16,Jits_ISO_5,3,5,80,127,1849350608
63,20,16,Jits_ISO_5,0,1,48,30,1849793564
63,20,16,Jits_ISO_5,1,5,56,103,1849811416
63,20,16,Jits_ISO_5,2,5,80,127,1849820716
63,20,16,Jits_ISO_5,3,5,63,98,1849891300
63,20,16,Jits_ISO_5,0,5,63,98,1850300820
63,20,16,Jits_ISO_5,1,1,48,26,1850325736
63,20,16,Jits_ISO_5,2,5,80,127,1850340752
63,20,16,Jits_ISO_5,3,5,56,103,1850380784
63,20,16,Jits_ISO_5,0,5,56,103,1850810664
63,20,16,Jits_ISO_5,1,5,63,98,1850820936
63,20,16,Jits_ISO_5,2,1,48,24,1850830280
63,20,16,Jits_ISO_5,3,5,80,127,1850840564
63,20,16,Jits_ISO_5,0,5,63,98,1851351688
63,20,16,Jits_ISO_5,1,1,48,24,1851354588
63,20,16,Jits_ISO_5,2,5,80,127,1851370796
63,20,16,Jits_ISO_5,3,5,56,103,1851391504
63,20,16,Jits_ISO_5,0,5,56,103,1851790748
63,20,16,Jits_ISO_5,1,1,48,31,1851846080
63,20,16,Jits_ISO_5,2,5,80,127,1851870608
63,20,16,Jits_ISO_5,3,5,63,98,1851880804
63,20,16,Jits_ISO_5,0,5,80,127,1852331328
63,20,16,Jits_ISO_5,1,5,63,98,1852340700
63,20,16,Jits_ISO_5,2,1,48,29,1852349068
63,20,16,Jits_ISO_5,3,5,56,103,1852371560
63,20,16,Jits_ISO_5,0,5,63,98,1852791368
63,20,16,Jits_ISO_5,1,1,48,31,1852810824
63,20,16,Jits_ISO_5,2,5,80,127,1852831224
63,20,16,Jits_ISO_5,3,5,56,103,1852890564
63,20,16,Jits_ISO_5,0,5,63,98,1853301216
63,20,16,Jits_ISO_5,1,5,56,103,1853351568
63,20,16,Jits_ISO_5,2,1,48,30,1853360464
63,20,16,Jits_ISO_5,3,5,80,127,1853381012
63,20,16,Jits_ISO_5,0,5,80,127,1853810920
63,20,16,Jits_ISO_5,1,5,63,98,1853821488
63,20,16,Jits_ISO_5,2,1,48,28,1853827304
63,20,16,Jits_ISO_5,3,5,56,103,1853890788
63,20,16,Jits_ISO_5,0,1,48,34,1854372516
63,20,16,Jits_ISO_5,1,5,80,127,1854381460
63,20,16,Jits_ISO_5,2,5,56,103,1854390608
63,20,16,Jits_ISO_5,3,5,63,98,1854393672
63,20,16,Jits_ISO_5,0,5,56,103,1854820736
63,20,16,Jits_ISO_5,1,5,80,127,1854841196
63,20,16,Jits_ISO_5,2,5,63,98,1854850644
63,20,16,Jits_ISO_5,3,1,48,33,1854885224
63,20,16,Jits_ISO_5,0,5,63,98,1855330676
63,20,16,Jits_ISO_5,1,1,48,30,1855357088
63,20,16,Jits_ISO_5,2,5,56,103,1855370604
63,20,16,Jits_ISO_5,3,5,80,127,1855391064
63,20,16,Jits_ISO_5,0,5,63,98,1855831536
63,20,16,Jits_ISO_5,1,1,48,34,1855846864
63,20,16,Jits_ISO_5,2,5,56,103,1855890796
63,20,16,Jits_ISO_5,3,5,80,127,1855893860
63,20,16,Jits_ISO_5,0,5,56,103,1856291260
63,20,16,Jits_ISO_5,1,5,80,127,1856310596
63,20,16,Jits_ISO_5,2,5,63,98,1856350532
63,20,16,Jits_ISO_5,3,1,48,31,1856369612
63,20,16,Jits_ISO_5,0,5,56,103,1856820672
63,20,16,Jits_ISO_5,1,5,63,98,1856840984
63,20,16,Jits_ISO_5,2,1,48,30,1856844100
63,20,16,Jits_ISO_5,3,5,80,127,1856851396
63,20,16,Jits_ISO_5,0,5,80,127,1857290528
63,20,16,Jits_ISO_5,1,5,56,103,1857321324
63,20,16,Jits_ISO_5,2,1,48,33,1857353432
63,20,16,Jits_ISO_5,3,5,63,98,1857361552
63,20,16,Jits_ISO_5,0,5,80,127,1857800608
63,20,16,Jits_ISO_5,1,1,48,30,1857819788
63,20,16,Jits_ISO_5,2,5,56,103,1857821208
63,20,16,Jits_ISO_5,3,5,63,98,1857880472
63,20,16,Jits_ISO_5,0,5,56,103,1858310616
63,20,16,Jits_ISO_5,1,5,80,127,1858330852
63,20,16,Jits_ISO_5,2,1,48,28,1858347672
63,20,16,Jits_ISO_5,3,5,63,98,1858391380
63,20,16,Jits_ISO_5,0,5,80,127,1858790712
63,20,16,Jits_ISO_5,1,5,56,103,1858800908
63,20,16,Jits_ISO_5,2,5,63,98,1858840868
63,20,16,Jits_ISO_5,3,1,48,32,1858870440
63,20,16,Jits_ISO_5,0,5,63,98,1859290456
63,20,16,Jits_ISO_5,1,5,56,103,1859330344
63,20,16,Jits_ISO_5,2,5,80,127,1859333260
63,20,16,Jits_ISO_5,3,1,48,27,1859355256
63,20,16,Jits_ISO_5,0,5,63,98,1859810628
63,20,16,Jits_ISO_5,1,1,48,33,1859821316
63,20,16,Jits_ISO_5,2,5,80,127,1859850588
63,20,16,Jits_ISO_5,3,5,56,103,1859881380
63,20,16,Jits_ISO_5,0,1,48,28,1860298332
63,20,16,Jits_ISO_5,1,5,56,103,1860301364
63,20,16,Jits_ISO_5,2,5,63,98,1860311484
63,20,16,Jits_ISO_5,3,5,80,127,1860341332
63,20,16,Jits_ISO_5,0,5,80,127,1860790608
63,20,16,Jits_ISO_5,1,1,48,24,1860817024
63,20,16,Jits_ISO_5,2,5,63,98,1860861428
63,20,16,Jits_ISO_5,3,5,56,103,1860870500
63,20,16,Jits_ISO_5,0,5,63,98,1861291328
63,20,16,Jits_ISO_5,1,1,48,29,1861355352
63,20,16,Jits_ISO_5,2,5,56,103,1861361076
63,20,16,Jits_ISO_5,3,5,80,127,1861371520
63,20,16,Jits_ISO_5,0,5,63,98,1861791284
63,20,16,Jits_ISO_5,1,5,56,103,1861810476
63,20,16,Jits_ISO_5,2,1,48,27,1861815160
63,20,16,Jits_ISO_5,3,5,80,127,1861850404
63,20,16,Jits_ISO_5,0,1,48,27,1862297268
63,20,16,Jits_ISO_5,1,5,56,103,1862301048
63,20,16,Jits_ISO_5,2,5,63,98,1862311392
63,20,16,Jits_ISO_5,3,5,80,127,1862391208
63,20,16,Jits_ISO_5,0,5,63,98,1862790448
63,20,16,Jits_ISO_5,1,1,48,29,1862798276
63,20,16,Jits_ISO_5,2,5,56,103,1862821464
63,20,16,Jits_ISO_5,3,5,80,127,1862861248
63,20,16,Jits_ISO_5,0,5,56,103,1863291152
63,20,16,Jits_ISO_5,1,5,63,98,1863331164
63,20,16,Jits_ISO_5,2,1,48,29,1863334580
63,20,16,Jits_ISO_5,3,5,80,127,1863371316
63,20,16,Jits_ISO_5,0,5,80,127,1863791048
63,20,16,Jits_ISO_5,1,1,48,22,1863843016
63,20,16,Jits_ISO_5,2,5,56,103,1863870688
63,20,16,Jits_ISO_5,3,5,63,98,1863881256
63,20,16,Jits_ISO_5,0,5,56,103,1864330580
63,20,16,Jits_ISO_5,1,5,63,98,1864333568
63,20,16,Jits_ISO_5,2,1,48,29,1864336312
63,20,16,Jits_ISO_5,3,5,80,127,1864341064
63,20,16,Jits_ISO_5,0,5,56,103,1864850696
63,20,16,Jits_ISO_5,1,1,48,30,1864856280
63,20,16,Jits_ISO_5,2,5,63,98,1864871372
63,20,16,Jits_ISO_5,3,5,80,127,1864880444
63,20,16,Jits_ISO_5,0,5,63,98,1865310516
63,20,16,Jits_ISO_5,1,5,80,127,1865320784
63,20,16,Jits_ISO_5,2,1,48,27,1865336036
63,20,16,Jits_ISO_5,3,5,56,103,1865341460
63,20,16,Jits_ISO_5,0,1,48,31,1865808628
63,20,16,Jits_ISO_5,1,5,63,98,1865811288
63,20,16,Jits_ISO_5,2,5,56,103,1865891300
63,20,16,Jits_ISO_5,3,5,80,127,1865894444
63,20,16,Jits_ISO_5,0,5,63,98,1866311396
63,20,16,Jits_ISO_5,1,5,56,103,1866330436
63,20,16,Jits_ISO_5,2,5,80,127,1866361232
63,20,16,Jits_ISO_5,3,1,48,26,1866369600
63,20,16,Jits_ISO_5,0,5,56,103,1866810680
63,20,16,Jits_ISO_5,1,5,63,98,1866831292
63,20,16,Jits_ISO_5,2,1,48,27,1866832332
63,20,16,Jits_ISO_5,3,5,80,127,1866840360
63,20,16,Jits_ISO_5,0,1,48,28,1867316684
63,20,16,Jits_ISO_5,1,5,56,103,1867341064
63,20,16,Jits_ISO_5,2,5,63,98,1867370812
63,20,16,Jits_ISO_5,3,5,80,127,1867374176
63,20,16,Jits_ISO_5,0,5,56,103,1867790680
63,20,16,Jits_ISO_5,1,1,48,31,1867820400
63,20,16,Jits_ISO_5,2,5,63,98,1867830608
63,20,16,Jits_ISO_5,3,5,80,127,1867891220
63,20,16,Jits_ISO_5,0,1,48,26,1868302528
63,20,16,Jits_ISO_5,1,5,56,103,1868311168
63,20,16,Jits_ISO_5,2,5,63,98,1868321364
63,20,16,Jits_ISO_5,3,5,80,127,1868380480
63,20,16,Jits_ISO_5,0,5,56,103,1868810460
63,20,16,Jits_ISO_5,1,1,48,26,1868815072
63,20,16,Jits_ISO_5,2,5,80,127,1868831208
63,20,16,Jits_ISO_5,3,5,63,98,1868860884
63,20,16,Jits_ISO_5,0,5,80,127,1869311324
63,20,16,Jits_ISO_5,1,5,56,103,1869320552
63,20,16,Jits_ISO_5,2,5,63,98,1869341008
63,20,16,Jits_ISO_5,3,1,48,29,1869346668
63,20,16,Jits_ISO_5,0,5,63,98,1869800784
63,20,16,Jits_ISO_5,1,1,48,26,1869851500
63,20,16,Jits_ISO_5,2,5,80,127,1869880820
63,20,16,Jits_ISO_5,3,5,56,103,1869891388
63,20,16,Jits_ISO_5,0,1,48,33,1870334892
63,20,16,Jits_ISO_5,1,5,80,127,1870361072
63,20,16,Jits_ISO_5,2,5,56,103,1870381380
63,20,16,Jits_ISO_5,3,5,63,98,1870384524
63,20,16,Jits_ISO_5,0,5,63,98,1870831196
63,20,16,Jits_ISO_5,1,5,80,127,1870834404
63,20,16,Jits_ISO_5,2,1,48,32,1870846444
63,20,16,Jits_ISO_5,3,5,56,103,1870891344
63,20,16,Jits_ISO_5,0,5,56,103,1871311256
63,20,16,Jits_ISO_5,1,5,80,127,1871320332
63,20,16,Jits_ISO_5,2,1,48,31,1871354636
63,20,16,Jits_ISO_5,3,5,63,98,1871361332
63,20,16,Jits_ISO_5,0,5,56,103,1871790408
63,20,16,Jits_ISO_5,1,1,48,31,1871826188
63,20,16,Jits_ISO_5,2,5,63,98,1871850940
63,20,16,Jits_ISO_5,3,5,80,127,1871861008
63,20,16,Jits_ISO_5,0,5,63,98,1872301388
63,20,16,Jits_ISO_5,1,1,48,33,1872328624
63,20,16,Jits_ISO_5,2,5,80,127,1872341320
63,20,16,Jits_ISO_5,3,5,56,103,1872381284
63,20,16,Jits_ISO_5,0,5,56,103,1872801048
63,20,16,Jits_ISO_5,1,1,48,32,1872812040
63,20,16,Jits_ISO_5,2,5,63,98,1872881132
63,20,16,Jits_ISO_5,3,5,80,127,1872884748
63,20,16,Jits_ISO_5,0,9999,9999,9999,1813589084
63,20,16,Jits_ISO_5,1,9999,9999,9999,1814088804
63,20,16,Jits_ISO_5,2,9999,9999,9999,1814588520
63,20,16,Jits_ISO_5,3,9999,9999,9999,1815088180
63,20,16,Jits_ISO_5,4,9999,9999,9999,1815588964
63,20,16,Jits_ISO_5,5,9999,9999,9999,1816088628
63,20,16,Jits_ISO_5,6,9999,9999,9999,1816588360
63,20,16,Jits_ISO_5,7,9999,9999,9999,1817088108
63,20,16,Jits_ISO_5,8,9999,9999,9999,1817588808
63,20,16,Jits_ISO_5,9,9999,9999,9999,1818088552
63,20,16,Jits_ISO_5,10,9999,9999,9999,1818588220
63,20,16,Jits_ISO_5,11,9999,9999,9999,1819088992
63,20,16,Jits_ISO_5,12,9999,9999,9999,1819588696
63,20,16,Jits_ISO_5,13,9999,9999,9999,1820088424
63,20,16,Jits_ISO_5,14,9999,9999,9999,1820588084
63,20,16,Jits_ISO_5,15,9999,9999,9999,1821088876
63,20,16,Jits_ISO_5,16,9999,9999,9999,1821588548
63,20,16,Jits_ISO_5,17,9999,9999,9999,1822088280
63,20,16,Jits_ISO_5,18,9999,9999,9999,1822588996
63,20,16,Jits_ISO_5,19,9999,9999,9999,1823088732
63,20,16,Jits_ISO_5,20,9999,9999,9999,1823588464
63,20,16,Jits_ISO_5,21,9999,9999,9999,1824088140
63,20,16,Jits_ISO_5,22,9999,9999,9999,1824588860
63,20,16,Jits_ISO_5,23,9999,9999,9999,1825088612
63,20,16,Jits_ISO_5,24,9999,9999,9999,1825588284
63,20,16,Jits_ISO_5,25,9999,9999,9999,1826089068
63,20,16,Jits_ISO_5,26,9999,9999,9999,1826588728
63,20,16,Jits_ISO_5,27,9999,9999,9999,1827088436
63,20,16,Jits_ISO_5,28,9999,9999,9999,1827588188
63,20,16,Jits_ISO_5,29,9999,9999,9999,1828088896
63,20,16,Jits_ISO_5,30,9999,9999,9999,1828588620
63,20,16,Jits_ISO_5,31,9999,9999,9999,1829088368
63,20,16,Jits_ISO_5,32,9999,9999,9999,1829589092
63,20,16,Jits_ISO_5,33,9999,9999,9999,1830088764
63,20,16,Jits_ISO_5,34,9999,9999,9999,1830588512
63,20,16,Jits_ISO_5,35,9999,9999,9999,1831088188
63,20,16,Jits_ISO_5,36,9999,9999,9999,1831588956
63,20,16,Jits_ISO_5,37,9999,9999,9999,1832088692
63,20,16,Jits_ISO_5,38,9999,9999,9999,1832588368
63,20,16,Jits_ISO_5,39,9999,9999,9999,1833088104
63,20,16,Jits_ISO_5,40,9999,9999,9999,1833588812
63,20,16,Jits_ISO_5,41,9999,9999,9999,1834088544
63,20,16,Jits_ISO_5,42,9999,9999,9999,1834588216
63,20,16,Jits_ISO_5,43,9999,9999,9999,1835088996
63,20,16,Jits_ISO_5,44,9999,9999,9999,1835588728
63,20,16,Jits_ISO_5,45,9999,9999,9999,1836088380
63,20,16,Jits_ISO_5,46,9999,9999,9999,1836588112
63,20,16,Jits_ISO_5,47,9999,9999,9999,1837088824
63,20,16,Jits_ISO_5,48,9999,9999,9999,1837588556
63,20,16,Jits_ISO_5,49,9999,9999,9999,1838088296
63,20,16,Jits_ISO_5,50,9999,9999,9999,1838588992
63,20,16,Jits_ISO_5,51,9999,9999,9999,1839088716
63,20,16,Jits_ISO_5,52,9999,9999,9999,1839588460
63,20,16,Jits_ISO_5,53,9999,9999,9999,1840088124
63,20,16,Jits_ISO_5,54,9999,9999,9999,1840588908
63,20,16,Jits_ISO_5,55,9999,9999,9999,1841088580
63,20,16,Jits_ISO_5,56,9999,9999,9999,1841588316
63,20,16,Jits_ISO_5,57,9999,9999,9999,1842089028
63,20,16,Jits_ISO_5,58,9999,9999,9999,1842588776
63,20,16,Jits_ISO_5,59,9999,9999,9999,1843088436
63,20,16,Jits_ISO_5,60,9999,9999,9999,1843588188
63,20,16,Jits_ISO_5,61,9999,9999,9999,1844088884
63,20,16,Jits_ISO_5,62,9999,9999,9999,1844588616
63,20,16,Jits_ISO_5,63,9999,9999,9999,1845088348
63,20,16,Jits_ISO_5,64,9999,9999,9999,1845589052
63,20,16,Jits_ISO_5,65,9999,9999,9999,1846088800
63,20,16,Jits_ISO_5,66,9999,9999,9999,1846588472
63,20,16,Jits_ISO_5,67,9999,9999,9999,1847088192
63,20,16,Jits_ISO_5,68,9999,9999,9999,1847588988
63,20,16,Jits_ISO_5,69,9999,9999,9999,1848088648
63,20,16,Jits_ISO_5,70,9999,9999,9999,1848588372
63,20,16,Jits_ISO_5,71,9999,9999,9999,1849088092
63,20,16,Jits_ISO_5,72,9999,9999,9999,1849588844
63,20,16,Jits_ISO_5,73,9999,9999,9999,1850088504
63,20,16,Jits_ISO_5,74,9999,9999,9999,1850588236
63,20,16,Jits_ISO_5,75,9999,9999,9999,1851089012
63,20,16,Jits_ISO_5,76,9999,9999,9999,1851588692
63,20,16,Jits_ISO_5,77,9999,9999,9999,1852088428
63,20,16,Jits_ISO_5,78,9999,9999,9999,1852588104
63,20,16,Jits_ISO_5,79,9999,9999,9999,1853088824
63,20,16,Jits_ISO_5,80,9999,9999,9999,1853588560
63,20,16,Jits_ISO_5,81,9999,9999,9999,1854088296
63,20,16,Jits_ISO_5,82,9999,9999,9999,1854589016
63,20,16,Jits_ISO_5,83,9999,9999,9999,1855088748
63,20,16,Jits_ISO_5,84,9999,9999,9999,1855588428
63,20,16,Jits_ISO_5,85,9999,9999,9999,1856088156
63,20,16,Jits_ISO_5,86,9999,9999,9999,1856588864
63,20,16,Jits_ISO_5,87,9999,9999,9999,1857088608
63,20,16,Jits_ISO_5,88,9999,9999,9999,1857588280
63,20,16,Jits_ISO_5,89,9999,9999,9999,1858089072
63,20,16,Jits_ISO_5,90,9999,9999,9999,1858588744
63,20,16,Jits_ISO_5,91,9999,9999,9999,1859088488
63,20,16,Jits_ISO_5,92,9999,9999,9999,1859588148
63,20,16,Jits_ISO_5,93,9999,9999,9999,1860088928
63,20,16,Jits_ISO_5,94,9999,9999,9999,1860588636
63,20,16,Jits_ISO_5,95,9999,9999,9999,1861088360
63,20,16,Jits_ISO_5,96,9999,9999,9999,1861589084
63,20,16,Jits_ISO_5,97,9999,9999,9999,1862088812
63,20,16,Jits_ISO_5,98,9999,9999,9999,1862588468
63,20,16,Jits_ISO_5,99,9999,9999,9999,1863088204
63,20,16,Jits_ISO_5,100,9999,9999,9999,1863588980
63,20,16,Jits_ISO_5,101,9999,9999,9999,1864088656
63,20,16,Jits_ISO_5,102,9999,9999,9999,1864588392
63,20,16,Jits_ISO_5,103,9999,9999,9999,1865088068
63,20,16,Jits_ISO_5,104,9999,9999,9999,1865588788
63,20,16,Jits_ISO_5,105,9999,9999,9999,1866088516
63,20,16,Jits_ISO_5,106,9999,9999,9999,1866588252
63,20,16,Jits_ISO_5,107,9999,9999,9999,1867088956
63,20,16,Jits_ISO_5,108,9999,9999,9999,1867588700
63,20,16,Jits_ISO_5,109,9999,9999,9999,1868088432
63,20,16,Jits_ISO_5,110,9999,9999,9999,1868588104
63,20,16,Jits_ISO_5,111,9999,9999,9999,1869088880
63,20,16,Jits_ISO_5,112,9999,9999,9999,1869588552
63,20,16,Jits_ISO_5,113,9999,9999,9999,1870088304
63,20,16,Jits_ISO_5,114,9999,9999,9999,1870589004
63,20,16,Jits_ISO_5,115,9999,9999,9999,1871088756
63,20,16,Jits_ISO_5,116,9999,9999,9999,1871588408
63,20,16,Jits_ISO_5,117,9999,9999,9999,1872088160
63,20,16,Jits_ISO_5,118,9999,9999,9999,1872588880
63,20,16,Jits_ISO_5,119,9999,9999,9999,1873088608
63,21,7,Jits_ISO_8,0,5,56,103,1882200460
63,21,7,Jits_ISO_8,1,5,63,98,1882203480
63,21,7,Jits_ISO_8,2,5,80,127,1882206608
63,21,7,Jits_ISO_8,0,5,56,103,1883001284
63,21,7,Jits_ISO_8,1,5,63,98,1883004304
63,21,7,Jits_ISO_8,2,5,80,127,1883007576
63,21,7,Jits_ISO_8,0,5,80,127,1883740612
63,21,7,Jits_ISO_8,1,1,48,43,1883817744
63,21,7,Jits_ISO_8,2,5,63,98,1883830816
63,21,7,Jits_ISO_8,3,5,56,103,1883840864
63,21,7,Jits_ISO_8,0,5,56,103,1884560720
63,21,7,Jits_ISO_8,1,5,63,98,1884570988
63,21,7,Jits_ISO_8,2,1,48,45,1884607364
63,21,7,Jits_ISO_8,3,5,80,127,1884660988
63,21,7,Jits_ISO_8,0,5,63,98,1885330916
63,21,7,Jits_ISO_8,1,1,48,46,1885342732
63,21,7,Jits_ISO_8,2,5,80,127,1885360588
63,21,7,Jits_ISO_8,3,5,56,103,1885391088
63,21,7,Jits_ISO_8,0,1,48,49,1886118220
63,21,7,Jits_ISO_8,1,5,56,103,1886130468
63,21,7,Jits_ISO_8,2,5,80,127,1886230880
63,21,7,Jits_ISO_8,3,5,63,98,1886281004
63,21,7,Jits_ISO_8,0,5,56,103,1886931308
63,21,7,Jits_ISO_8,1,1,48,50,1886940432
63,21,7,Jits_ISO_8,2,5,80,127,1886980336
63,21,7,Jits_ISO_8,3,5,63,98,1887021396
63,21,7,Jits_ISO_8,0,5,80,127,1887760800
63,21,7,Jits_ISO_8,1,1,48,48,1887786764
63,21,7,Jits_ISO_8,2,5,63,98,1887790768
63,21,7,Jits_ISO_8,3,5,56,103,1887861200
63,21,7,Jits_ISO_8,0,5,63,98,1888591096
63,21,7,Jits_ISO_8,1,5,56,103,1888620848
63,21,7,Jits_ISO_8,2,1,48,50,1888622408
63,21,7,Jits_ISO_8,3,5,80,127,1888681380
63,21,7,Jits_ISO_8,0,5,56,103,1889330568
63,21,7,Jits_ISO_8,1,5,80,127,1889333636
63,21,7,Jits_ISO_8,2,1,48,47,1889426056
63,21,7,Jits_ISO_8,3,5,63,98,1889451632
63,21,7,Jits_ISO_8,0,1,48,49,1890147844
63,21,7,Jits_ISO_8,1,5,56,103,1890211116
63,21,7,Jits_ISO_8,2,5,80,127,1890251040
63,21,7,Jits_ISO_8,3,5,63,98,1890261236
63,21,7,Jits_ISO_8,0,5,56,103,1890971124
63,21,7,Jits_ISO_8,1,1,48,48,1890979496
63,21,7,Jits_ISO_8,2,5,80,127,1890990680
63,21,7,Jits_ISO_8,3,5,63,98,1891071324
63,21,7,Jits_ISO_8,0,5,80,127,1891760512
63,21,7,Jits_ISO_8,1,1,48,47,1891807976
63,21,7,Jits_ISO_8,2,5,56,103,1891860780
63,21,7,Jits_ISO_8,3,5,63,98,1891871052
63,21,7,Jits_ISO_8,0,5,63,98,1892530644
63,21,7,Jits_ISO_8,1,5,80,127,1892590812
63,21,7,Jits_ISO_8,2,1,48,45,1892595904
63,21,7,Jits_ISO_8,3,5,56,103,1892601548
63,21,7,Jits_ISO_8,0,5,56,103,1893331248
63,21,7,Jits_ISO_8,1,1,48,44,1893356992
63,21,7,Jits_ISO_8,2,5,63,98,1893400876
63,21,7,Jits_ISO_8,3,5,80,127,1893404240
63,21,7,Jits_ISO_8,0,1,48,40,1894131084
63,21,7,Jits_ISO_8,1,5,63,98,1894160700
63,21,7,Jits_ISO_8,2,5,56,103,1894210904
63,21,7,Jits_ISO_8,3,5,80,127,1894214044
63,21,7,Jits_ISO_8,0,1,48,42,1894918568
63,21,7,Jits_ISO_8,1,5,56,103,1894920612
63,21,7,Jits_ISO_8,2,5,80,127,1894923528
63,21,7,Jits_ISO_8,3,5,63,98,1895010672
63,21,7,Jits_ISO_8,0,1,48,43,1895713232
63,21,7,Jits_ISO_8,1,5,63,98,1895761436
63,21,7,Jits_ISO_8,2,5,56,103,1895851484
63,21,7,Jits_ISO_8,3,5,80,127,1895880932
63,21,7,Jits_ISO_8,0,5,56,103,1896550744
63,21,7,Jits_ISO_8,1,1,48,41,1896605328
63,21,7,Jits_ISO_8,2,5,63,98,1896651064
63,21,7,Jits_ISO_8,3,5,80,127,1896680812
63,21,7,Jits_ISO_8,0,1,48,44,1897367508
63,21,7,Jits_ISO_8,1,5,63,98,1897371068
63,21,7,Jits_ISO_8,2,5,56,103,1897381412
63,21,7,Jits_ISO_8,3,5,80,127,1897471480
63,21,7,Jits_ISO_8,0,1,48,46,1898170008
63,21,7,Jits_ISO_8,1,5,63,98,1898191380
63,21,7,Jits_ISO_8,2,5,56,103,1898271112
63,21,7,Jits_ISO_8,3,5,80,127,1898274180
63,21,7,Jits_ISO_8,0,5,80,127,1898951008
63,21,7,Jits_ISO_8,1,5,63,98,1898970424
63,21,7,Jits_ISO_8,2,5,56,103,1899030764
63,21,7,Jits_ISO_8,3,1,48,46,1899046020
63,21,7,Jits_ISO_8,0,5,56,103,1899790692
63,21,7,Jits_ISO_8,1,5,63,98,1899811152
63,21,7,Jits_ISO_8,2,1,48,43,1899814144
63,21,7,Jits_ISO_8,3,5,80,127,1899815628
63,21,7,Jits_ISO_8,0,5,63,98,1900531144
63,21,7,Jits_ISO_8,1,1,48,45,1900577488
63,21,7,Jits_ISO_8,2,5,80,127,1900610936
63,21,7,Jits_ISO_8,3,5,56,103,1900621356
63,21,7,Jits_ISO_8,0,1,48,44,1901321904
63,21,7,Jits_ISO_8,1,5,63,98,1901351376
63,21,7,Jits_ISO_8,2,5,56,103,1901370716
63,21,7,Jits_ISO_8,3,5,80,127,1901421948
63,21,7,Jits_ISO_8,0,1,48,40,1902113144
63,21,7,Jits_ISO_8,1,5,80,127,1902151008
63,21,7,Jits_ISO_8,2,5,63,98,1902190948
63,21,7,Jits_ISO_8,3,5,56,103,1902210360
63,21,7,Jits_ISO_8,0,1,48,43,1902941476
63,21,7,Jits_ISO_8,1,5,56,103,1902990652
63,21,7,Jits_ISO_8,2,5,63,98,1903000924
63,21,7,Jits_ISO_8,3,5,80,127,1903021604
63,21,7,Jits_ISO_8,0,5,56,103,1903720764
63,21,7,Jits_ISO_8,1,1,48,48,1903749888
63,21,7,Jits_ISO_8,2,5,63,98,1903810896
63,21,7,Jits_ISO_8,3,5,80,127,1903871444
63,21,7,Jits_ISO_8,0,1,48,43,1904495728
63,21,7,Jits_ISO_8,1,5,80,127,1904551424
63,21,7,Jits_ISO_8,2,5,56,103,1904560648
63,21,7,Jits_ISO_8,3,5,63,98,1904631240
63,21,7,Jits_ISO_8,0,1,48,39,1905339724
63,21,7,Jits_ISO_8,1,5,63,98,1905380728
63,21,7,Jits_ISO_8,2,5,80,127,1905470728
63,21,7,Jits_ISO_8,3,5,56,103,1905480924
63,21,7,Jits_ISO_8,0,5,63,98,1906121040
63,21,7,Jits_ISO_8,1,5,80,127,1906171340
63,21,7,Jits_ISO_8,2,1,48,36,1906194988
63,21,7,Jits_ISO_8,3,5,56,103,1906230528
63,21,7,Jits_ISO_8,0,1,48,40,1906922284
63,21,7,Jits_ISO_8,1,5,56,103,1906950508
63,21,7,Jits_ISO_8,2,5,80,127,1907000712
63,21,7,Jits_ISO_8,3,5,63,98,1907021600
63,21,7,Jits_ISO_8,0,1,48,38,1907695388
63,21,7,Jits_ISO_8,1,5,56,103,1907720544
63,21,7,Jits_ISO_8,2,5,80,127,1907780864
63,21,7,Jits_ISO_8,3,5,63,98,1907850676
63,21,7,Jits_ISO_8,0,5,56,103,1908521308
63,21,7,Jits_ISO_8,1,1,48,48,1908551432
63,21,7,Jits_ISO_8,2,5,80,127,1908552620
63,21,7,Jits_ISO_8,3,5,63,98,1908580652
63,21,7,Jits_ISO_8,0,1,48,43,1909305852
63,21,7,Jits_ISO_8,1,5,56,103,1909361100
63,21,7,Jits_ISO_8,2,5,80,127,1909380440
63,21,7,Jits_ISO_8,3,5,63,98,1909440812
63,21,7,Jits_ISO_8,0,1,48,43,1910150072
63,21,7,Jits_ISO_8,1,5,80,127,1910241488
63,21,7,Jits_ISO_8,2,5,56,103,1910251012
63,21,7,Jits_ISO_8,3,5,63,98,1910261308
63,21,7,Jits_ISO_8,0,5,56,103,1911000472
63,21,7,Jits_ISO_8,1,1,48,40,1911017000
63,21,7,Jits_ISO_8,2,5,80,127,1911041332
63,21,7,Jits_ISO_8,3,5,63,98,1911071152
63,21,7,Jits_ISO_8,0,5,56,103,1911770460
63,21,7,Jits_ISO_8,1,5,63,98,1911801208
63,21,7,Jits_ISO_8,2,1,48,43,1911829132
63,21,7,Jits_ISO_8,3,5,80,127,1911841288
63,21,7,Jits_ISO_8,0,5,80,127,1912521108
63,21,7,Jits_ISO_8,1,5,63,98,1912571188
63,21,7,Jits_ISO_8,2,5,56,103,1912590748
63,21,7,Jits_ISO_8,3,1,48,40,1912601360
63,21,7,Jits_ISO_8,0,5,56,103,1913350376
63,21,7,Jits_ISO_8,1,1,48,38,1913360240
63,21,7,Jits_ISO_8,2,5,80,127,1913421396
63,21,7,Jits_ISO_8,3,5,63,98,1913480504
63,21,7,Jits_ISO_8,0,5,80,127,1914151224
63,21,7,Jits_ISO_8,1,1,48,40,1914165952
63,21,7,Jits_ISO_8,2,5,63,98,1914241504
63,21,7,Jits_ISO_8,3,5,56,103,1914260900
63,21,7,Jits_ISO_8,0,5,63,98,1914970360
63,21,7,Jits_ISO_8,1,5,56,103,1914991116
63,21,7,Jits_ISO_8,2,1,48,43,1914994012
63,21,7,Jits_ISO_8,3,5,80,127,1915031048
63,21,7,Jits_ISO_8,0,5,80,127,1915731328
63,21,7,Jits_ISO_8,1,1,48,35,1915750592
63,21,7,Jits_ISO_8,2,5,63,98,1915752080
63,21,7,Jits_ISO_8,3,5,56,103,1915830752
63,21,7,Jits_ISO_8,0,5,63,98,1916520860
63,21,7,Jits_ISO_8,1,1,48,36,1916544432
63,21,7,Jits_ISO_8,2,5,56,103,1916631364
63,21,7,Jits_ISO_8,3,5,80,127,1916635464
63,21,7,Jits_ISO_8,0,5,63,98,1917341160
63,21,7,Jits_ISO_8,1,5,56,103,1917351280
63,21,7,Jits_ISO_8,2,5,80,127,1917354272
63,21,7,Jits_ISO_8,3,1,48,40,1917376872
63,21,7,Jits_ISO_8,0,5,56,103,1918121296
63,21,7,Jits_ISO_8,1,1,48,32,1918132884
63,21,7,Jits_ISO_8,2,5,80,127,1918241328
63,21,7,Jits_ISO_8,3,5,63,98,1918281044
63,21,7,Jits_ISO_8,0,5,56,103,1918940504
63,21,7,Jits_ISO_8,1,1,48,31,1918955984
63,21,7,Jits_ISO_8,2,5,80,127,1919021444
63,21,7,Jits_ISO_8,3,5,63,98,1919041152
63,21,7,Jits_ISO_8,0,5,56,103,1919741452
63,21,7,Jits_ISO_8,1,1,48,35,1919773120
63,21,7,Jits_ISO_8,2,5,63,98,1919850984
63,21,7,Jits_ISO_8,3,5,80,127,1919854348
63,21,7,Jits_ISO_8,0,5,56,103,1920570620
63,21,7,Jits_ISO_8,1,1,48,29,1920597484
63,21,7,Jits_ISO_8,2,5,80,127,1920600364
63,21,7,Jits_ISO_8,3,5,63,98,1920621196
63,21,7,Jits_ISO_8,0,5,63,98,1921350936
63,21,7,Jits_ISO_8,1,5,56,103,1921361132
63,21,7,Jits_ISO_8,2,5,80,127,1921370432
63,21,7,Jits_ISO_8,3,1,48,30,1921392728
63,21,7,Jits_ISO_8,0,5,80,127,1922140600
63,21,7,Jits_ISO_8,1,1,48,25,1922163800
63,21,7,Jits_ISO_8,2,5,56,103,1922190572
63,21,7,Jits_ISO_8,3,5,63,98,1922230736
63,21,7,Jits_ISO_8,0,1,48,30,1922920664
63,21,7,Jits_ISO_8,1,5,80,127,1922960844
63,21,7,Jits_ISO_8,2,5,63,98,1922981232
63,21,7,Jits_ISO_8,3,5,56,103,1923031340
63,21,7,Jits_ISO_8,0,5,80,127,1923770676
63,21,7,Jits_ISO_8,1,1,48,38,1923780388
63,21,7,Jits_ISO_8,2,5,56,103,1923800420
63,21,7,Jits_ISO_8,3,5,63,98,1923871172
63,21,7,Jits_ISO_8,0,1,48,36,1924591948
63,21,7,Jits_ISO_8,1,5,56,103,1924620620
63,21,7,Jits_ISO_8,2,5,80,127,1924631184
63,21,7,Jits_ISO_8,3,5,63,98,1924671048
63,21,7,Jits_ISO_8,0,5,56,103,1925331304
63,21,7,Jits_ISO_8,1,5,63,98,1925350864
63,21,7,Jits_ISO_8,2,5,80,127,1925421320
63,21,7,Jits_ISO_8,3,1,48,27,1925458888
63,21,7,Jits_ISO_8,0,1,48,35,1926131768
63,21,7,Jits_ISO_8,1,5,63,98,1926150448
63,21,7,Jits_ISO_8,2,5,80,127,1926210988
63,21,7,Jits_ISO_8,3,5,56,103,1926231432
63,21,7,Jits_ISO_8,0,1,48,35,1926900008
63,21,7,Jits_ISO_8,1,5,80,127,1926941160
63,21,7,Jits_ISO_8,2,5,56,103,1926970840
63,21,7,Jits_ISO_8,3,5,63,98,1927000424
63,21,7,Jits_ISO_8,0,1,48,34,1927709156
63,21,7,Jits_ISO_8,1,5,56,103,1927741016
63,21,7,Jits_ISO_8,2,5,63,98,1927801112
63,21,7,Jits_ISO_8,3,5,80,127,1927860736
63,21,7,Jits_ISO_8,0,1,48,35,1928500472
63,21,7,Jits_ISO_8,1,5,80,127,1928561032
63,21,7,Jits_ISO_8,2,5,56,103,1928580368
63,21,7,Jits_ISO_8,3,5,63,98,1928651080
63,21,7,Jits_ISO_8,0,5,80,127,1929360892
63,21,7,Jits_ISO_8,1,5,63,98,1929381356
63,21,7,Jits_ISO_8,2,1,48,32,1929409292
63,21,7,Jits_ISO_8,3,5,56,103,1929410876
63,21,7,Jits_ISO_8,0,5,80,127,1930151324
63,21,7,Jits_ISO_8,1,1,48,39,1930156612
63,21,7,Jits_ISO_8,2,5,63,98,1930170880
63,21,7,Jits_ISO_8,3,5,56,103,1930231148
63,21,7,Jits_ISO_8,0,5,80,127,1930951120
63,21,7,Jits_ISO_8,1,1,48,28,1930992680
63,21,7,Jits_ISO_8,2,5,56,103,1931051292
63,21,7,Jits_ISO_8,3,5,63,98,1931081116
63,21,7,Jits_ISO_8,0,5,63,98,1931740712
63,21,7,Jits_ISO_8,1,1,48,33,1931768716
63,21,7,Jits_ISO_8,2,5,80,127,1931790856
63,21,7,Jits_ISO_8,3,5,56,103,1931811244
63,21,7,Jits_ISO_8,0,1,48,39,1932527868
63,21,7,Jits_ISO_8,1,5,80,127,1932581196
63,21,7,Jits_ISO_8,2,5,56,103,1932610792
63,21,7,Jits_ISO_8,3,5,63,98,1932614012
63,21,7,Jits_ISO_8,0,1,48,28,1933358252
63,21,7,Jits_ISO_8,1,5,63,98,1933410792
63,21,7,Jits_ISO_8,2,5,56,103,1933450804
63,21,7,Jits_ISO_8,3,5,80,127,1933471024
63,21,7,Jits_ISO_8,0,5,80,127,1934150948
63,21,7,Jits_ISO_8,1,1,48,33,1934196540
63,21,7,Jits_ISO_8,2,5,63,98,1934230892
63,21,7,Jits_ISO_8,3,5,56,103,1934270976
63,21,7,Jits_ISO_8,0,5,63,98,1934971280
63,21,7,Jits_ISO_8,1,1,48,39,1934988720
63,21,7,Jits_ISO_8,2,5,80,127,1935051144
63,21,7,Jits_ISO_8,3,5,56,103,1935070856
63,21,7,Jits_ISO_8,0,5,56,103,1935811076
63,21,7,Jits_ISO_8,1,5,63,98,1935821124
63,21,7,Jits_ISO_8,2,1,48,46,1935842220
63,21,7,Jits_ISO_8,3,5,80,127,1935861080
63,21,7,Jits_ISO_8,0,5,56,103,1936530932
63,21,7,Jits_ISO_8,1,5,80,127,1936533924
63,21,7,Jits_ISO_8,2,1,48,39,1936644656
63,21,7,Jits_ISO_8,3,5,63,98,1936671056
63,21,7,Jits_ISO_8,0,5,56,103,1937321280
63,21,7,Jits_ISO_8,1,1,48,37,1937377292
63,21,7,Jits_ISO_8,2,5,63,98,1937410540
63,21,7,Jits_ISO_8,3,5,80,127,1937480952
63,21,7,Jits_ISO_8,0,1,48,37,1938100600
63,21,7,Jits_ISO_8,1,5,63,98,1938200876
63,21,7,Jits_ISO_8,2,5,80,127,1938204164
63,21,7,Jits_ISO_8,3,5,56,103,1938261416
63,21,7,Jits_ISO_8,0,1,48,35,1938987304
63,21,7,Jits_ISO_8,1,5,80,127,1939040684
63,21,7,Jits_ISO_8,2,5,56,103,1939060996
63,21,7,Jits_ISO_8,3,5,63,98,1939071264
63,21,7,Jits_ISO_8,0,5,56,103,1939751396
63,21,7,Jits_ISO_8,1,5,63,98,1939760696
63,21,7,Jits_ISO_8,2,5,80,127,1939831200
63,21,7,Jits_ISO_8,3,1,48,39,1939832240
63,21,7,Jits_ISO_8,0,5,80,127,1940550972
63,21,7,Jits_ISO_8,1,5,56,103,1940601324
63,21,7,Jits_ISO_8,2,1,48,36,1940612912
63,21,7,Jits_ISO_8,3,5,63,98,1940651520
63,21,7,Jits_ISO_8,0,1,48,38,1941378244
63,21,7,Jits_ISO_8,1,5,56,103,1941430780
63,21,7,Jits_ISO_8,2,5,63,98,1941440828
63,21,7,Jits_ISO_8,3,5,80,127,1941480904
63,21,7,Jits_ISO_8,0,5,56,103,1942170868
63,21,7,Jits_ISO_8,1,1,48,33,1942185076
63,21,7,Jits_ISO_8,2,5,63,98,1942211024
63,21,7,Jits_ISO_8,3,5,80,127,1942261100
63,21,7,Jits_ISO_8,0,5,80,127,1942930808
63,21,7,Jits_ISO_8,1,1,48,41,1942975512
63,21,7,Jits_ISO_8,2,5,56,103,1942980860
63,21,7,Jits_ISO_8,3,5,63,98,1943000496
63,21,7,Jits_ISO_8,0,5,80,127,1943740796
63,21,7,Jits_ISO_8,1,1,48,38,1943753428
63,21,7,Jits_ISO_8,2,5,63,98,1943801280
63,21,7,Jits_ISO_8,3,5,56,103,1943881132
63,21,7,Jits_ISO_8,0,5,80,127,1944521116
63,21,7,Jits_ISO_8,1,5,56,103,1944561004
63,21,7,Jits_ISO_8,2,1,48,37,1944565096
63,21,7,Jits_ISO_8,3,5,63,98,1944580632
63,21,7,Jits_ISO_8,0,1,48,39,1945348008
63,21,7,Jits_ISO_8,1,5,56,103,1945371124
63,21,7,Jits_ISO_8,2,5,80,127,1945381320
63,21,7,Jits_ISO_8,3,5,63,98,1945421184
63,21,7,Jits_ISO_8,0,1,48,33,1946150728
63,21,7,Jits_ISO_8,1,5,56,103,1946241708
63,21,7,Jits_ISO_8,2,5,63,98,1946281408
63,21,7,Jits_ISO_8,3,5,80,127,1946284700
63,21,7,Jits_ISO_8,0,5,63,98,1946930540
63,21,7,Jits_ISO_8,1,5,80,127,1946970632
63,21,7,Jits_ISO_8,2,5,56,103,1947041208
63,21,7,Jits_ISO_8,3,1,48,38,1947054816
63,21,7,Jits_ISO_8,0,5,63,98,1947721032
63,21,7,Jits_ISO_8,1,1,48,32,1947760416
63,21,7,Jits_ISO_8,2,5,56,103,1947800896
63,21,7,Jits_ISO_8,3,5,80,127,1947861568
63,21,7,Jits_ISO_8,0,5,80,127,1948530932
63,21,7,Jits_ISO_8,1,1,48,38,1948573604
63,21,7,Jits_ISO_8,2,5,63,98,1948581200
63,21,7,Jits_ISO_8,3,5,56,103,1948610876
63,21,7,Jits_ISO_8,0,5,56,103,1949320536
63,21,7,Jits_ISO_8,1,5,63,98,1949370812
63,21,7,Jits_ISO_8,2,1,48,36,1949381452
63,21,7,Jits_ISO_8,3,5,80,127,1949382568
63,21,7,Jits_ISO_8,0,5,56,103,1950130444
63,21,7,Jits_ISO_8,1,1,48,35,1950131484
63,21,7,Jits_ISO_8,2,5,63,98,1950241480
63,21,7,Jits_ISO_8,3,5,80,127,1950260524
63,21,7,Jits_ISO_8,0,5,63,98,1950931512
63,21,7,Jits_ISO_8,1,5,80,127,1950980548
63,21,7,Jits_ISO_8,2,1,48,39,1951000376
63,21,7,Jits_ISO_8,3,5,56,103,1951070596
63,21,7,Jits_ISO_8,0,5,63,98,1951720884
63,21,7,Jits_ISO_8,1,5,80,127,1951750512
63,21,7,Jits_ISO_8,2,1,48,36,1951805092
63,21,7,Jits_ISO_8,3,5,56,103,1951840560
63,21,7,Jits_ISO_8,0,5,63,98,1952520468
63,21,7,Jits_ISO_8,1,5,56,103,1952530664
63,21,7,Jits_ISO_8,2,1,48,31,1952564424
63,21,7,Jits_ISO_8,3,5,80,127,1952631124
63,21,7,Jits_ISO_8,0,1,48,35,1953264908
63,21,7,Jits_ISO_8,1,5,63,98,1953420616
63,21,7,Jits_ISO_8,2,5,80,127,1953451560
63,21,7,Jits_ISO_8,3,5,56,103,1953481092
63,21,7,Jits_ISO_8,0,1,48,32,1954170576
63,21,7,Jits_ISO_8,1,5,80,127,1954240880
63,21,7,Jits_ISO_8,2,5,63,98,1954251448
63,21,7,Jits_ISO_8,3,5,56,103,1954280884
63,21,7,Jits_ISO_8,0,5,80,127,1954941476
63,21,7,Jits_ISO_8,1,5,63,98,1954960740
63,21,7,Jits_ISO_8,2,5,56,103,1955010868
63,21,7,Jits_ISO_8,3,1,48,35,1955056260
63,21,7,Jits_ISO_8,0,5,63,98,1955770796
63,21,7,Jits_ISO_8,1,1,48,38,1955800292
63,21,7,Jits_ISO_8,2,5,80,127,1955831280
63,21,7,Jits_ISO_8,3,5,56,103,1955850544
63,21,7,Jits_ISO_8,0,5,63,98,1956530428
63,21,7,Jits_ISO_8,1,5,56,103,1956580704
63,21,7,Jits_ISO_8,2,1,48,36,1956581892
63,21,7,Jits_ISO_8,3,5,80,127,1956590968
63,21,7,Jits_ISO_8,0,5,56,103,1957361024
63,21,7,Jits_ISO_8,1,5,80,127,1957371516
63,21,7,Jits_ISO_8,2,1,48,37,1957381460
63,21,7,Jits_ISO_8,3,5,63,98,1957470560
63,21,7,Jits_ISO_8,0,5,80,127,1958120792
63,21,7,Jits_ISO_8,1,5,63,98,1958131012
63,21,7,Jits_ISO_8,2,1,48,38,1958209428
63,21,7,Jits_ISO_8,3,5,56,103,1958280620
63,21,7,Jits_ISO_8,0,5,63,98,1958930728
63,21,7,Jits_ISO_8,1,5,80,127,1958970668
63,21,7,Jits_ISO_8,2,1,48,35,1958983152
63,21,7,Jits_ISO_8,3,5,56,103,1959050604
63,21,7,Jits_ISO_8,0,5,56,103,1959721288
63,21,7,Jits_ISO_8,1,1,48,22,1959770564
63,21,7,Jits_ISO_8,2,5,80,127,1959820632
63,21,7,Jits_ISO_8,3,5,63,98,1959841092
63,21,7,Jits_ISO_8,0,1,48,38,1960547644
63,21,7,Jits_ISO_8,1,5,80,127,1960580420
63,21,7,Jits_ISO_8,2,5,56,103,1960590692
63,21,7,Jits_ISO_8,3,5,63,98,1960680880
63,21,7,Jits_ISO_8,0,1,48,34,1961356796
63,21,7,Jits_ISO_8,1,5,56,103,1961381404
63,21,7,Jits_ISO_8,2,5,63,98,1961400668
63,21,7,Jits_ISO_8,3,5,80,127,1961480696
63,21,7,Jits_ISO_8,0,5,63,98,1962130776
63,21,7,Jits_ISO_8,1,1,48,38,1962216156
63,21,7,Jits_ISO_8,2,5,56,103,1962221128
63,21,7,Jits_ISO_8,3,5,80,127,1962224268
63,21,7,Jits_ISO_8,0,5,56,103,1962961468
63,21,7,Jits_ISO_8,1,1,48,31,1963012344
63,21,7,Jits_ISO_8,2,5,80,127,1963020688
63,21,7,Jits_ISO_8,3,5,63,98,1963031104
63,21,7,Jits_ISO_8,0,1,48,29,1963777664
63,21,7,Jits_ISO_8,1,5,80,127,1963811116
63,21,7,Jits_ISO_8,2,5,56,103,1963821608
63,21,7,Jits_ISO_8,3,5,63,98,1963824528
63,21,7,Jits_ISO_8,0,5,56,103,1964571264
63,21,7,Jits_ISO_8,1,5,80,127,1964581312
63,21,7,Jits_ISO_8,2,1,48,38,1964595296
63,21,7,Jits_ISO_8,3,5,63,98,1964600644
63,21,7,Jits_ISO_8,0,5,63,98,1965341240
63,21,7,Jits_ISO_8,1,1,48,32,1965379428
63,21,7,Jits_ISO_8,2,5,80,127,1965400432
63,21,7,Jits_ISO_8,3,5,56,103,1965450632
63,21,7,Jits_ISO_8,0,1,48,30,1966148792
63,21,7,Jits_ISO_8,1,5,63,98,1966220660
63,21,7,Jits_ISO_8,2,5,56,103,1966231004
63,21,7,Jits_ISO_8,3,5,80,127,1966281264
63,21,7,Jits_ISO_8,0,5,63,98,1966921032
63,21,7,Jits_ISO_8,1,5,80,127,1966940444
63,21,7,Jits_ISO_8,2,5,56,103,1966950640
63,21,7,Jits_ISO_8,3,1,48,31,1966997728
63,21,7,Jits_ISO_8,0,1,48,31,1967705484
63,21,7,Jits_ISO_8,1,5,63,98,1967720796
63,21,7,Jits_ISO_8,2,5,80,127,1967724380
63,21,7,Jits_ISO_8,3,5,56,103,1967760660
63,21,7,Jits_ISO_8,0,1,48,35,1968480384
63,21,7,Jits_ISO_8,1,5,63,98,1968591352
63,21,7,Jits_ISO_8,2,5,80,127,1968621028
63,21,7,Jits_ISO_8,3,5,56,103,1968631076
63,21,7,Jits_ISO_8,0,5,56,103,1969340708
63,21,7,Jits_ISO_8,1,1,48,35,1969367644
63,21,7,Jits_ISO_8,2,5,80,127,1969370600
63,21,7,Jits_ISO_8,3,5,63,98,1969401200
63,21,7,Jits_ISO_8,0,1,48,32,1970157848
63,21,7,Jits_ISO_8,1,5,63,98,1970240996
63,21,7,Jits_ISO_8,2,5,56,103,1970281068
63,21,7,Jits_ISO_8,3,5,80,127,1970284060
63,21,7,Jits_ISO_8,0,5,80,127,1970941288
63,21,7,Jits_ISO_8,1,5,56,103,1971021164
63,21,7,Jits_ISO_8,2,1,48,29,1971022128
63,21,7,Jits_ISO_8,3,5,63,98,1971071284
63,21,7,Jits_ISO_8,0,5,80,127,1971720488
63,21,7,Jits_ISO_8,1,5,56,103,1971740948
63,21,7,Jits_ISO_8,2,5,63,98,1971831080
63,21,7,Jits_ISO_8,3,1,48,34,1971841544
63,21,7,Jits_ISO_8,0,5,80,127,1972561332
63,21,7,Jits_ISO_8,1,1,48,32,1972563924
63,21,7,Jits_ISO_8,2,5,63,98,1972601412
63,21,7,Jits_ISO_8,3,5,56,103,1972641128
63,21,7,Jits_ISO_8,0,5,63,98,1973331308
63,21,7,Jits_ISO_8,1,1,48,39,1973378940
63,21,7,Jits_ISO_8,2,5,80,127,1973390796
63,21,7,Jits_ISO_8,3,5,56,103,1973421372
63,21,7,Jits_ISO_8,0,5,56,103,1974131016
63,21,7,Jits_ISO_8,1,1,48,38,1974160240
63,21,7,Jits_ISO_8,2,5,80,127,1974161880
63,21,7,Jits_ISO_8,3,5,63,98,1974251040
63,21,7,Jits_ISO_8,0,5,56,103,1974940928
63,21,7,Jits_ISO_8,1,1,48,40,1974971096
63,21,7,Jits_ISO_8,2,5,80,127,1975050640
63,21,7,Jits_ISO_8,3,5,63,98,1975081272
63,21,7,Jits_ISO_8,0,5,56,103,1975791104
63,21,7,Jits_ISO_8,1,1,48,35,1975824788
63,21,7,Jits_ISO_8,2,5,63,98,1975851340
63,21,7,Jits_ISO_8,3,5,80,127,1975881164
63,21,7,Jits_ISO_8,0,5,56,103,1976561088
63,21,7,Jits_ISO_8,1,1,48,38,1976593432
63,21,7,Jits_ISO_8,2,5,63,98,1976630840
63,21,7,Jits_ISO_8,3,5,80,127,1976651004
63,21,7,Jits_ISO_8,0,5,80,127,1977330996
63,21,7,Jits_ISO_8,1,5,63,98,1977350484
63,21,7,Jits_ISO_8,2,1,48,34,1977393756
63,21,7,Jits_ISO_8,3,5,56,103,1977400828
63,21,7,Jits_ISO_8,0,9999,9999,9999,1882598476
63,21,7,Jits_ISO_8,1,9999,9999,9999,1883398200
63,21,7,Jits_ISO_8,2,9999,9999,9999,1884199024
63,21,7,Jits_ISO_8,3,9999,9999,9999,1884998748
63,21,7,Jits_ISO_8,4,9999,9999,9999,1885798464
63,21,7,Jits_ISO_8,5,9999,9999,9999,1886598252
63,21,7,Jits_ISO_8,6,9999,9999,9999,1887399008
63,21,7,Jits_ISO_8,7,9999,9999,9999,1888198736
63,21,7,Jits_ISO_8,8,9999,9999,9999,1888998464
63,21,7,Jits_ISO_8,9,9999,9999,9999,1889798256
63,21,7,Jits_ISO_8,10,9999,9999,9999,1890599032
63,21,7,Jits_ISO_8,11,9999,9999,9999,1891398744
63,21,7,Jits_ISO_8,12,9999,9999,9999,1892198472
63,21,7,Jits_ISO_8,13,9999,9999,9999,1892998196
63,21,7,Jits_ISO_8,14,9999,9999,9999,1893799012
63,21,7,Jits_ISO_8,15,9999,9999,9999,1894598776
63,21,7,Jits_ISO_8,16,9999,9999,9999,1895398468
63,21,7,Jits_ISO_8,17,9999,9999,9999,1896198208
63,21,7,Jits_ISO_8,18,9999,9999,9999,1896998968
63,21,7,Jits_ISO_8,19,9999,9999,9999,1897798768
63,21,7,Jits_ISO_8,20,9999,9999,9999,1898598476
63,21,7,Jits_ISO_8,21,9999,9999,9999,1899398256
63,21,7,Jits_ISO_8,22,9999,9999,9999,1900199020
63,21,7,Jits_ISO_8,23,9999,9999,9999,1900998744
63,21,7,Jits_ISO_8,24,9999,9999,9999,1901798452
63,21,7,Jits_ISO_8,25,9999,9999,9999,1902598260
63,21,7,Jits_ISO_8,26,9999,9999,9999,1903399016
63,21,7,Jits_ISO_8,27,9999,9999,9999,1904198732
63,21,7,Jits_ISO_8,28,9999,9999,9999,1904998456
63,21,7,Jits_ISO_8,29,9999,9999,9999,1905798248
63,21,7,Jits_ISO_8,30,9999,9999,9999,1906599000
63,21,7,Jits_ISO_8,31,9999,9999,9999,1907398708
63,21,7,Jits_ISO_8,32,9999,9999,9999,1908198492
63,21,7,Jits_ISO_8,33,9999,9999,9999,1908998220
63,21,7,Jits_ISO_8,34,9999,9999,9999,1909798988
63,21,7,Jits_ISO_8,35,9999,9999,9999,1910598708
63,21,7,Jits_ISO_8,36,9999,9999,9999,1911398500
63,21,7,Jits_ISO_8,37,9999,9999,9999,1912198228
63,21,7,Jits_ISO_8,38,9999,9999,9999,1912998992
63,21,7,Jits_ISO_8,39,9999,9999,9999,1913798724
63,21,7,Jits_ISO_8,40,9999,9999,9999,1914598452
63,21,7,Jits_ISO_8,41,9999,9999,9999,1915398200
63,21,7,Jits_ISO_8,42,9999,9999,9999,1916199024
63,21,7,Jits_ISO_8,43,9999,9999,9999,1916998740
63,21,7,Jits_ISO_8,44,9999,9999,9999,1917798504
63,21,7,Jits_ISO_8,45,9999,9999,9999,1918598220
63,21,7,Jits_ISO_8,46,9999,9999,9999,1919398988
63,21,7,Jits_ISO_8,47,9999,9999,9999,1920198708
63,21,7,Jits_ISO_8,48,9999,9999,9999,1920998508
63,21,7,Jits_ISO_8,49,9999,9999,9999,1921798252
63,21,7,Jits_ISO_8,50,9999,9999,9999,1922599008
63,21,7,Jits_ISO_8,51,9999,9999,9999,1923398732
63,21,7,Jits_ISO_8,52,9999,9999,9999,1924198516
63,21,7,Jits_ISO_8,53,9999,9999,9999,1924998248
63,21,7,Jits_ISO_8,54,9999,9999,9999,1925799000
63,21,7,Jits_ISO_8,55,9999,9999,9999,1926598724
63,21,7,Jits_ISO_8,56,9999,9999,9999,1927398500
63,21,7,Jits_ISO_8,57,9999,9999,9999,1928198236
63,21,7,Jits_ISO_8,58,9999,9999,9999,1928998992
63,21,7,Jits_ISO_8,59,9999,9999,9999,1929798772
63,21,7,Jits_ISO_8,60,9999,9999,9999,1930598496
63,21,7,Jits_ISO_8,61,9999,9999,9999,1931398200
63,21,7,Jits_ISO_8,62,9999,9999,9999,1932198968
63,21,7,Jits_ISO_8,63,9999,9999,9999,1932998744
63,21,7,Jits_ISO_8,64,9999,9999,9999,1933798460
63,21,7,Jits_ISO_8,65,9999,9999,9999,1934598200
63,21,7,Jits_ISO_8,66,9999,9999,9999,1935398976
63,21,7,Jits_ISO_8,67,9999,9999,9999,1936198764
63,21,7,Jits_ISO_8,68,9999,9999,9999,1936998476
63,21,7,Jits_ISO_8,69,9999,9999,9999,1937798200
63,21,7,Jits_ISO_8,70,9999,9999,9999,1938598968
63,21,7,Jits_ISO_8,71,9999,9999,9999,1939398760
63,21,7,Jits_ISO_8,72,9999,9999,9999,1940198468
63,21,7,Jits_ISO_8,73,9999,9999,9999,1940998220
63,21,7,Jits_ISO_8,74,9999,9999,9999,1941798996
63,21,7,Jits_ISO_8,75,9999,9999,9999,1942598712
63,21,7,Jits_ISO_8,76,9999,9999,9999,1943398508
63,21,7,Jits_ISO_8,77,9999,9999,9999,1944198232
63,21,7,Jits_ISO_8,78,9999,9999,9999,1944999000
63,21,7,Jits_ISO_8,79,9999,9999,9999,1945798724
63,21,7,Jits_ISO_8,80,9999,9999,9999,1946598508
63,21,7,Jits_ISO_8,81,9999,9999,9999,1947398240
63,21,7,Jits_ISO_8,82,9999,9999,9999,1948198996
63,21,7,Jits_ISO_8,83,9999,9999,9999,1948998776
63,21,7,Jits_ISO_8,84,9999,9999,9999,1949798492
63,21,7,Jits_ISO_8,85,9999,9999,9999,1950598220
63,21,7,Jits_ISO_8,86,9999,9999,9999,1951398988
63,21,7,Jits_ISO_8,87,9999,9999,9999,1952198772
63,21,7,Jits_ISO_8,88,9999,9999,9999,1952998476
63,21,7,Jits_ISO_8,89,9999,9999,9999,1953798212
63,21,7,Jits_ISO_8,90,9999,9999,9999,1954598980
63,21,7,Jits_ISO_8,91,9999,9999,9999,1955398760
63,21,7,Jits_ISO_8,92,9999,9999,9999,1956198492
63,21,7,Jits_ISO_8,93,9999,9999,9999,1956998200
63,21,7,Jits_ISO_8,94,9999,9999,9999,1957799028
63,21,7,Jits_ISO_8,95,9999,9999,9999,1958598752
63,21,7,Jits_ISO_8,96,9999,9999,9999,1959398476
63,21,7,Jits_ISO_8,97,9999,9999,9999,1960198204
63,21,7,Jits_ISO_8,98,9999,9999,9999,1960998976
63,21,7,Jits_ISO_8,99,9999,9999,9999,1961798764
63,21,7,Jits_ISO_8,100,9999,9999,9999,1962598520
63,21,7,Jits_ISO_8,101,9999,9999,9999,1963398232
63,21,7,Jits_ISO_8,102,9999,9999,9999,1964198996
63,21,7,Jits_ISO_8,103,9999,9999,9999,1964998780
63,21,7,Jits_ISO_8,104,9999,9999,9999,1965798504
63,21,7,Jits_ISO_8,105,9999,9999,9999,1966598240
63,21,7,Jits_ISO_8,106,9999,9999,9999,1967398988
63,21,7,Jits_ISO_8,107,9999,9999,9999,1968198752
63,21,7,Jits_ISO_8,108,9999,9999,9999,1968998512
63,21,7,Jits_ISO_8,109,9999,9999,9999,1969798216
63,21,7,Jits_ISO_8,110,9999,9999,9999,1970598992
63,21,7,Jits_ISO_8,111,9999,9999,9999,1971398776
63,21,7,Jits_ISO_8,112,9999,9999,9999,1972198500
63,21,7,Jits_ISO_8,113,9999,9999,9999,1972998240
63,21,7,Jits_ISO_8,114,9999,9999,9999,1973799008
63,21,7,Jits_ISO_8,115,9999,9999,9999,1974598716
63,21,7,Jits_ISO_8,116,9999,9999,9999,1975398520
63,21,7,Jits_ISO_8,117,9999,9999,9999,1976198248
63,21,7,Jits_ISO_8,118,9999,9999,9999,1976999024
63,21,7,Jits_ISO_8,119,9999,9999,9999,1977798744
63,22,5,ISIP_5,0,5,42,127,2064622880
63,22,5,ISIP_5,1,5,42,127,2065122792
63,22,5,ISIP_5,2,5,42,127,2065623260
63,22,5,ISIP_5,3,1,48,51,2065658488
63,22,5,ISIP_5,4,5,42,127,2066123104
63,22,5,ISIP_5,5,1,48,38,2066131608
63,22,5,ISIP_5,6,5,42,127,2066622872
63,22,5,ISIP_5,7,1,48,47,2066651200
63,22,5,ISIP_5,8,5,42,127,2067122716
63,22,5,ISIP_5,9,1,48,45,2067139900
63,22,5,ISIP_5,10,5,42,127,2067623308
63,22,5,ISIP_5,11,1,48,48,2067637196
63,22,5,ISIP_5,12,5,42,127,2068122928
63,22,5,ISIP_5,13,1,48,44,2068137864
63,22,5,ISIP_5,14,5,42,127,2068622848
63,22,5,ISIP_5,15,1,48,48,2068648852
63,22,5,ISIP_5,16,5,42,127,2069122540
63,22,5,ISIP_5,17,1,48,44,2069144660
63,22,5,ISIP_5,18,5,42,127,2069623060
63,22,5,ISIP_5,19,1,48,42,2069640540
63,22,5,ISIP_5,20,5,42,127,2070123056
63,22,5,ISIP_5,21,1,48,43,2070148316
63,22,5,ISIP_5,22,5,42,127,2070622672
63,22,5,ISIP_5,23,1,48,42,2070665660
63,22,5,ISIP_5,24,5,42,127,2071123340
63,22,5,ISIP_5,25,1,48,46,2071168348
63,22,5,ISIP_5,26,5,42,127,2071622960
63,22,5,ISIP_5,27,1,48,37,2071656148
63,22,5,ISIP_5,28,5,42,127,2072122804
63,22,5,ISIP_5,29,1,48,44,2072170656
63,22,5,ISIP_5,30,5,42,127,2072622500
63,22,5,ISIP_5,31,1,48,43,2072661820
63,22,5,ISIP_5,32,5,42,127,2073123092
63,22,5,ISIP_5,33,1,48,45,2073143112
63,22,5,ISIP_5,34,5,42,127,2073622860
63,22,5,ISIP_5,35,1,48,41,2073632484
63,22,5,ISIP_5,36,1,48,44,2074096860
63,22,5,ISIP_5,37,5,42,127,2074122772
63,22,5,ISIP_5,38,5,42,127,2074623372
63,22,5,ISIP_5,39,1,48,41,2074635544
63,22,5,ISIP_5,40,5,42,127,2075123068
63,22,5,ISIP_5,41,1,48,43,2075126264
63,22,5,ISIP_5,42,5,42,127,2075622664
63,22,5,ISIP_5,43,1,48,43,2075654432
63,22,5,ISIP_5,44,5,42,127,2076122708
63,22,5,ISIP_5,45,1,48,40,2076163104
63,22,5,ISIP_5,46,5,42,127,2076623076
63,22,5,ISIP_5,47,1,48,42,2076665412
63,22,5,ISIP_5,48,5,42,127,2077122844
63,22,5,ISIP_5,49,1,48,41,2077151396
63,22,5,ISIP_5,50,5,42,127,2077622764
63,22,5,ISIP_5,51,1,48,41,2077646600
63,22,5,ISIP_5,52,5,42,127,2078123580
63,22,5,ISIP_5,53,1,48,41,2078138292
63,22,5,ISIP_5,54,5,42,127,2078623200
63,22,5,ISIP_5,55,1,48,40,2078631628
63,22,5,ISIP_5,56,5,42,127,2079122748
63,22,5,ISIP_5,57,1,48,43,2079130732
63,22,5,ISIP_5,58,5,42,127,2079622592
63,22,5,ISIP_5,59,1,48,43,2079627204
63,22,5,ISIP_5,60,1,48,41,2080114312
63,22,5,ISIP_5,61,5,42,127,2080123324
63,22,5,ISIP_5,62,5,42,127,2080622952
63,22,5,ISIP_5,63,1,48,43,2080644620
63,22,5,ISIP_5,64,1,48,42,2081105548
63,22,5,ISIP_5,65,5,42,127,2081122640
63,22,5,ISIP_5,66,5,42,127,2081623684
63,22,5,ISIP_5,67,1,48,43,2081630844
63,22,5,ISIP_5,68,1,48,46,2082106440
63,22,5,ISIP_5,69,5,42,127,2082123076
63,22,5,ISIP_5,70,5,42,127,2082622776
63,22,5,ISIP_5,71,1,48,42,2082639136
63,22,5,ISIP_5,72,5,42,127,2083122620
63,22,5,ISIP_5,73,1,48,45,2083123588
63,22,5,ISIP_5,74,1,48,46,2083604624
63,22,5,ISIP_5,75,5,42,127,2083623208
63,22,5,ISIP_5,76,1,48,40,2084121624
63,22,5,ISIP_5,77,5,42,127,2084123128
63,22,5,ISIP_5,78,1,48,41,2084629760
63,22,5,ISIP_5,79,1,48,43,2085156600
63,22,5,ISIP_5,80,1,48,40,2085678136
63,22,5,ISIP_5,81,1,48,42,2086184628
63,22,5,ISIP_5,82,1,48,38,2086682976
63,22,5,ISIP_5,83,1,48,43,2087226648
63,22,5,ISIP_5,84,1,48,34,2087740028
63,22,5,ISIP_5,85,1,48,41,2088248020
63,22,5,ISIP_5,86,1,48,43,2088758032
63,22,5,ISIP_5,87,1,48,35,2089260568
63,22,5,ISIP_5,88,1,48,41,2089753076
63,22,5,ISIP_5,89,1,48,40,2090283804
63,22,5,ISIP_5,90,1,48,35,2090769360
63,22,5,ISIP_5,91,1,48,40,2091292988
63,22,5,ISIP_5,92,1,48,42,2091816908
63,22,5,ISIP_5,93,1,48,40,2092334556
63,22,5,ISIP_5,94,1,48,43,2092827436
63,22,5,ISIP_5,95,1,48,43,2093314788
63,22,5,ISIP_5,96,1,48,40,2093833776
63,22,5,ISIP_5,97,1,48,42,2094335040
63,22,5,ISIP_5,98,1,48,42,2094873100
63,22,5,ISIP_5,99,1,48,41,2095353120
63,22,5,ISIP_5,100,1,48,48,2095844932
63,22,5,ISIP_5,101,1,48,37,2096336024
63,22,5,ISIP_5,102,1,48,37,2096855236
63,22,5,ISIP_5,103,1,48,40,2097360684
63,22,5,ISIP_5,104,1,48,38,2097863364
63,22,5,ISIP_5,105,1,48,34,2098391404
63,22,5,ISIP_5,106,1,48,40,2098893488
63,22,5,ISIP_5,107,1,48,45,2099390336
63,22,5,ISIP_5,108,1,48,40,2099885464
63,22,5,ISIP_5,109,1,48,47,2100378196
63,22,5,ISIP_5,110,1,48,44,2100884168
63,22,5,ISIP_5,111,1,48,44,2101370248
63,22,5,ISIP_5,112,1,48,46,2101886172
63,22,5,ISIP_5,113,1,48,39,2102401272
63,22,5,ISIP_5,114,1,48,41,2102934544
63,22,5,ISIP_5,115,1,48,48,2103430644
63,22,5,ISIP_5,116,1,48,37,2103920208
63,22,5,ISIP_5,117,1,48,44,2104407632
63,22,5,ISIP_5,118,1,48,46,2104908668
63,22,5,ISIP_5,119,1,48,44,2105402152
63,22,5,ISIP_5,120,1,48,42,2105877084
63,22,5,ISIP_5,121,1,48,44,2106408788
63,22,5,ISIP_5,122,1,48,45,2106887244
63,22,5,ISIP_5,123,1,48,41,2107379076
63,22,5,ISIP_5,124,1,48,43,2107896944
63,22,5,ISIP_5,125,1,48,45,2108385764
63,22,5,ISIP_5,126,1,48,46,2108902056
63,22,5,ISIP_5,127,1,48,40,2109413940
63,22,5,ISIP_5,128,1,48,48,2109889548
63,22,5,ISIP_5,129,1,48,43,2110384672
63,22,5,ISIP_5,130,1,48,44,2110878456
63,22,5,ISIP_5,131,1,48,38,2111381812
63,22,5,ISIP_5,132,1,48,41,2111882172
63,22,5,ISIP_5,133,1,48,46,2112374084
63,22,5,ISIP_5,134,1,48,42,2112868396
63,22,5,ISIP_5,135,1,48,42,2113360452
63,22,5,ISIP_5,136,1,48,44,2113830744
63,22,5,ISIP_5,137,1,48,43,2114358260
63,22,5,ISIP_5,138,1,48,45,2114853316
63,22,5,ISIP_5,139,1,48,45,2115339696
63,22,5,ISIP_5,140,1,48,46,2115840508
63,22,5,ISIP_5,141,1,48,42,2116341688
63,22,5,ISIP_5,142,1,48,40,2116846772
63,22,5,ISIP_5,143,1,48,45,2117354308
63,22,5,ISIP_5,144,1,48,41,2117842532
63,22,5,ISIP_5,145,1,48,43,2118326740
63,22,5,ISIP_5,146,1,48,43,2118818800
63,22,5,ISIP_5,147,1,48,38,2119340856
63,22,5,ISIP_5,148,1,48,39,2119837784
63,22,5,ISIP_5,149,1,48,43,2120295436
63,22,5,ISIP_5,150,1,48,42,2120782332
63,22,5,ISIP_5,151,1,48,44,2121259140
63,22,5,ISIP_5,152,1,48,38,2121768624
63,22,5,ISIP_5,153,1,48,40,2122266824
63,22,5,ISIP_5,154,1,48,39,2122758508
63,22,5,ISIP_5,155,1,48,43,2123268968
63,22,5,ISIP_5,156,1,48,38,2123784444
63,22,5,ISIP_5,157,1,48,40,2124287796
63,22,5,ISIP_5,158,1,48,45,2124792276
63,22,5,ISIP_5,159,1,48,43,2125281472
63,22,5,ISIP_5,160,1,48,40,2125785720
63,22,5,ISIP_5,161,1,48,41,2126270152
63,22,5,ISIP_5,162,1,48,39,2126778892
63,22,5,ISIP_5,163,1,48,42,2127298404
63,22,5,ISIP_5,164,1,48,45,2127808720
63,22,5,ISIP_5,165,1,48,37,2128292028
63,22,5,ISIP_5,166,1,48,43,2128787376
63,22,5,ISIP_5,167,1,48,40,2129284972
63,22,5,ISIP_5,168,1,48,42,2129745916
63,22,5,ISIP_5,169,1,48,40,2130276348
63,22,5,ISIP_5,170,1,48,41,2130798328
63,22,5,ISIP_5,171,1,48,39,2131271168
63,22,5,ISIP_5,172,1,48,40,2131771460
63,22,5,ISIP_5,173,1,48,40,2132243624
63,22,5,ISIP_5,174,1,48,39,2132760596
63,22,5,ISIP_5,175,1,48,40,2133270452
63,22,5,ISIP_5,176,1,48,43,2133750396
63,22,5,ISIP_5,177,1,48,42,2134259512
63,22,5,ISIP_5,178,1,48,38,2134740628
63,22,5,ISIP_5,179,1,48,40,2135222964
63,22,5,ISIP_5,180,1,48,36,2135759456
63,22,5,ISIP_5,181,1,48,42,2136241044
63,22,5,ISIP_5,182,1,48,41,2136765496
63,22,5,ISIP_5,183,1,48,35,2137282384
63,22,5,ISIP_5,184,1,48,35,2137789184
63,22,5,ISIP_5,185,1,48,39,2138308468
63,22,5,ISIP_5,186,1,48,40,2138847508
63,22,5,ISIP_5,187,1,48,38,2139327148
63,22,5,ISIP_5,188,1,48,43,2139841496
63,22,5,ISIP_5,189,1,48,39,2140352032
63,22,5,ISIP_5,190,1,48,41,2140868632
63,22,5,ISIP_5,191,1,48,39,2141368920
63,22,5,ISIP_5,192,1,48,40,2141846768
63,22,5,ISIP_5,193,1,48,44,2142362092
63,22,5,ISIP_5,194,1,48,45,2142846376
63,22,5,ISIP_5,195,1,48,40,2143365808
63,22,5,ISIP_5,196,1,48,39,2143857496
63,22,5,ISIP_5,197,1,48,38,2144366616
63,22,5,ISIP_5,0,9999,9999,9999,2064620592
63,22,5,ISIP_5,1,9999,9999,9999,2065120356
63,22,5,ISIP_5,2,9999,9999,9999,2065621044
63,22,5,ISIP_5,3,9999,9999,9999,2066120816
63,22,5,ISIP_5,4,9999,9999,9999,2066620512
63,22,5,ISIP_5,5,9999,9999,9999,2067120208
63,22,5,ISIP_5,6,9999,9999,9999,2067620948
63,22,5,ISIP_5,7,9999,9999,9999,2068120640
63,22,5,ISIP_5,8,9999,9999,9999,2068620336
63,22,5,ISIP_5,9,9999,9999,9999,2069120104
63,22,5,ISIP_5,10,9999,9999,9999,2069620848
63,22,5,ISIP_5,11,9999,9999,9999,2070120544
63,22,5,ISIP_5,12,9999,9999,9999,2070620240
63,22,5,ISIP_5,13,9999,9999,9999,2071120980
63,22,5,ISIP_5,14,9999,9999,9999,2071620676
63,22,5,ISIP_5,15,9999,9999,9999,2072120368
63,22,5,ISIP_5,16,9999,9999,9999,2072620140
63,22,5,ISIP_5,17,9999,9999,9999,2073120880
63,22,5,ISIP_5,18,9999,9999,9999,2073620576
63,22,5,ISIP_5,19,9999,9999,9999,2074120264
63,22,5,ISIP_5,20,9999,9999,9999,2074621008
63,22,5,ISIP_5,21,9999,9999,9999,2075120704
63,22,5,ISIP_5,22,9999,9999,9999,2075620452
63,22,5,ISIP_5,23,9999,9999,9999,2076120124
63,22,5,ISIP_5,24,9999,9999,9999,2076620864
63,22,5,ISIP_5,25,9999,9999,9999,2077120632
63,22,5,ISIP_5,26,9999,9999,9999,2077620328
63,22,5,ISIP_5,27,9999,9999,9999,2078121068
63,22,5,ISIP_5,28,9999,9999,9999,2078620764
63,22,5,ISIP_5,29,9999,9999,9999,2079120460
63,22,5,ISIP_5,30,9999,9999,9999,2079620156
63,22,5,ISIP_5,31,9999,9999,9999,2080120888
63,22,5,ISIP_5,32,9999,9999,9999,2080620664
63,22,5,ISIP_5,33,9999,9999,9999,2081120352
63,22,5,ISIP_5,34,9999,9999,9999,2081621100
63,22,5,ISIP_5,35,9999,9999,9999,2082120792
63,22,5,ISIP_5,36,9999,9999,9999,2082620492
63,22,5,ISIP_5,37,9999,9999,9999,2083120188
63,22,5,ISIP_5,38,9999,9999,9999,2083620924
63,22,5,ISIP_5,39,9999,9999,9999,2084120696
63,22,5,ISIP_5,40,9999,9999,9999,2084620392
63,22,5,ISIP_5,41,9999,9999,9999,2085120084
63,22,5,ISIP_5,42,9999,9999,9999,2085620824
63,22,5,ISIP_5,43,9999,9999,9999,2086120516
63,22,5,ISIP_5,44,9999,9999,9999,2086620252
63,22,5,ISIP_5,45,9999,9999,9999,2087120992
63,22,5,ISIP_5,46,9999,9999,9999,2087620684
63,22,5,ISIP_5,47,9999,9999,9999,2088120372
63,22,5,ISIP_5,48,9999,9999,9999,2088620140
63,22,5,ISIP_5,49,9999,9999,9999,2089120876
63,22,5,ISIP_5,50,9999,9999,9999,2089620568
63,22,5,ISIP_5,51,9999,9999,9999,2090120260
63,22,5,ISIP_5,52,9999,9999,9999,2090620996
63,22,5,ISIP_5,53,9999,9999,9999,2091120760
63,22,5,ISIP_5,54,9999,9999,9999,2091620452
63,22,5,ISIP_5,55,9999,9999,9999,2092120144
63,22,5,ISIP_5,56,9999,9999,9999,2092620880
63,22,5,ISIP_5,57,9999,9999,9999,2093120572
63,22,5,ISIP_5,58,9999,9999,9999,2093620336
63,22,5,ISIP_5,59,9999,9999,9999,2094121076
63,22,5,ISIP_5,60,9999,9999,9999,2094620764
63,22,5,ISIP_5,61,9999,9999,9999,2095120456
63,22,5,ISIP_5,62,9999,9999,9999,2095620148
63,22,5,ISIP_5,63,9999,9999,9999,2096120888
63,22,5,ISIP_5,64,9999,9999,9999,2096620652
63,22,5,ISIP_5,65,9999,9999,9999,2097120316
63,22,5,ISIP_5,66,9999,9999,9999,2097621056
63,22,5,ISIP_5,67,9999,9999,9999,2098120820
63,22,5,ISIP_5,68,9999,9999,9999,2098620508
63,22,5,ISIP_5,69,9999,9999,9999,2099120200
63,22,5,ISIP_5,70,9999,9999,9999,2099620940
63,22,5,ISIP_5,71,9999,9999,9999,2100120628
63,22,5,ISIP_5,72,9999,9999,9999,2100620392
63,22,5,ISIP_5,73,9999,9999,9999,2101120084
63,22,5,ISIP_5,74,9999,9999,9999,2101620820
63,22,5,ISIP_5,75,9999,9999,9999,2102120512
63,22,5,ISIP_5,76,9999,9999,9999,2102620276
63,22,5,ISIP_5,77,9999,9999,9999,2103121012
63,22,5,ISIP_5,78,9999,9999,9999,2103620680
63,22,5,ISIP_5,79,9999,9999,9999,2104120368
63,22,5,ISIP_5,80,9999,9999,9999,2104620136
63,22,5,ISIP_5,81,9999,9999,9999,2105120872
63,22,5,ISIP_5,82,9999,9999,9999,2105620564
63,22,5,ISIP_5,83,9999,9999,9999,2106120256
63,22,5,ISIP_5,84,9999,9999,9999,2106620992
63,22,5,ISIP_5,85,9999,9999,9999,2107120760
63,22,5,ISIP_5,86,9999,9999,9999,2107620424
63,22,5,ISIP_5,87,9999,9999,9999,2108120116
63,22,5,ISIP_5,88,9999,9999,9999,2108620852
63,22,5,ISIP_5,89,9999,9999,9999,2109120616
63,22,5,ISIP_5,90,9999,9999,9999,2109620308
63,22,5,ISIP_5,91,9999,9999,9999,2110121044
63,22,5,ISIP_5,92,9999,9999,9999,2110620736
63,22,5,ISIP_5,93,9999,9999,9999,2111120500
63,22,5,ISIP_5,94,9999,9999,9999,2111620192
63,22,5,ISIP_5,95,9999,9999,9999,2112120928
63,22,5,ISIP_5,96,9999,9999,9999,2112620620
63,22,5,ISIP_5,97,9999,9999,9999,2113120312
63,22,5,ISIP_5,98,9999,9999,9999,2113621048
63,22,5,ISIP_5,99,9999,9999,9999,2114120816
63,22,5,ISIP_5,100,9999,9999,9999,2114620504
63,22,5,ISIP_5,101,9999,9999,9999,2115120196
63,22,5,ISIP_5,102,9999,9999,9999,2115620936
63,22,5,ISIP_5,103,9999,9999,9999,2116120624
63,22,5,ISIP_5,104,9999,9999,9999,2116620388
63,22,5,ISIP_5,105,9999,9999,9999,2117120080
63,22,5,ISIP_5,106,9999,9999,9999,2117620816
63,22,5,ISIP_5,107,9999,9999,9999,2118120508
63,22,5,ISIP_5,108,9999,9999,9999,2118620248
63,22,5,ISIP_5,109,9999,9999,9999,2119120984
63,22,5,ISIP_5,110,9999,9999,9999,2119620676
63,22,5,ISIP_5,111,9999,9999,9999,2120120440
63,22,5,ISIP_5,112,9999,9999,9999,2120620132
63,22,5,ISIP_5,113,9999,9999,9999,2121120868
63,22,5,ISIP_5,114,9999,9999,9999,2121620560
63,22,5,ISIP_5,115,9999,9999,9999,2122120252
63,22,5,ISIP_5,116,9999,9999,9999,2122620988
63,22,5,ISIP_5,117,9999,9999,9999,2123120752
63,22,5,ISIP_5,118,9999,9999,9999,2123620444
63,22,5,ISIP_5,119,9999,9999,9999,2124120132
63,22,5,ISIP_5,120,9999,9999,9999,2124620872
63,22,5,ISIP_5,121,9999,9999,9999,2125120564
63,22,5,ISIP_5,122,9999,9999,9999,2125620328
63,22,5,ISIP_5,123,9999,9999,9999,2126121064
63,22,5,ISIP_5,124,9999,9999,9999,2126620756
63,22,5,ISIP_5,125,9999,9999,9999,2127120444
63,22,5,ISIP_5,126,9999,9999,9999,2127620212
63,22,5,ISIP_5,127,9999,9999,9999,2128120948
63,22,5,ISIP_5,128,9999,9999,9999,2128620636
63,22,5,ISIP_5,129,9999,9999,9999,2129120376
63,22,5,ISIP_5,130,9999,9999,9999,2129621040
63,22,5,ISIP_5,131,9999,9999,9999,2130120804
63,22,5,ISIP_5,132,9999,9999,9999,2130620496
63,22,5,ISIP_5,133,9999,9999,9999,2131120188
63,22,5,ISIP_5,134,9999,9999,9999,2131620924
63,22,5,ISIP_5,135,9999,9999,9999,2132120688
63,22,5,ISIP_5,136,9999,9999,9999,2132620380
63,22,5,ISIP_5,137,9999,9999,9999,2133120068
63,22,5,ISIP_5,138,9999,9999,9999,2133620808
63,22,5,ISIP_5,139,9999,9999,9999,2134120500
63,22,5,ISIP_5,140,9999,9999,9999,2134620264
63,22,5,ISIP_5,141,9999,9999,9999,2135121000
63,22,5,ISIP_5,142,9999,9999,9999,2135620692
63,22,5,ISIP_5,143,9999,9999,9999,2136120380
63,22,5,ISIP_5,144,9999,9999,9999,2136620148
63,22,5,ISIP_5,145,9999,9999,9999,2137120884
63,22,5,ISIP_5,146,9999,9999,9999,2137620572
63,22,5,ISIP_5,147,9999,9999,9999,2138120264
63,22,5,ISIP_5,148,9999,9999,9999,2138621000
63,22,5,ISIP_5,149,9999,9999,9999,2139120692
63,22,5,ISIP_5,150,9999,9999,9999,2139620432
63,22,5,ISIP_5,151,9999,9999,9999,2140120120
63,22,5,ISIP_5,152,9999,9999,9999,2140620860
63,22,5,ISIP_5,153,9999,9999,9999,2141120624
63,22,5,ISIP_5,154,9999,9999,9999,2141620312
63,22,5,ISIP_5,155,9999,9999,9999,2142121052
63,22,5,ISIP_5,156,9999,9999,9999,2142620740
63,22,5,ISIP_5,157,9999,9999,9999,2143120432
63,22,5,ISIP_5,158,9999,9999,9999,2143620196
63,22,5,ISIP_5,159,9999,9999,9999,2144120936
63,23,3,ISIP_8,0,5,42,127,2166370596
63,23,3,ISIP_8,1,5,42,127,2167170280
63,23,3,ISIP_8,2,5,42,127,2167971080
63,23,3,ISIP_8,3,1,48,54,2168004116
63,23,3,ISIP_8,4,1,48,48,2168757608
63,23,3,ISIP_8,5,5,42,127,2168770956
63,23,3,ISIP_8,6,1,48,52,2169570916
63,23,3,ISIP_8,7,5,42,127,2169572360
63,23,3,ISIP_8,8,1,48,49,2170351188
63,23,3,ISIP_8,9,5,42,127,2170370372
63,23,3,ISIP_8,10,5,42,127,2171171308
63,23,3,ISIP_8,11,1,48,56,2171175028
63,23,3,ISIP_8,12,5,42,127,2171970968
63,23,3,ISIP_8,13,1,48,51,2171979396
63,23,3,ISIP_8,14,5,42,127,2172770776
63,23,3,ISIP_8,15,1,48,51,2172778156
63,23,3,ISIP_8,16,1,48,47,2173558276
63,23,3,ISIP_8,17,5,42,127,2173570280
63,23,3,ISIP_8,18,1,48,46,2174354868
63,23,3,ISIP_8,19,5,42,127,2174371136
63,23,3,ISIP_8,20,1,48,51,2175156920
63,23,3,ISIP_8,21,5,42,127,2175170868
63,23,3,ISIP_8,22,1,48,54,2175953584
63,23,3,ISIP_8,23,5,42,127,2175970676
63,23,3,ISIP_8,24,1,48,50,2176719192
63,23,3,ISIP_8,25,5,42,127,2176770632
63,23,3,ISIP_8,26,1,48,51,2177550736
63,23,3,ISIP_8,27,5,42,127,2177571116
63,23,3,ISIP_8,28,1,48,49,2178321452
63,23,3,ISIP_8,29,5,42,127,2178370848
63,23,3,ISIP_8,30,1,48,46,2179153048
63,23,3,ISIP_8,31,5,42,127,2179170732
63,23,3,ISIP_8,32,1,48,44,2179929144
63,23,3,ISIP_8,33,5,42,127,2179970388
63,23,3,ISIP_8,34,1,48,54,2180768664
63,23,3,ISIP_8,35,5,42,127,2180771320
63,23,3,ISIP_8,36,1,48,52,2181524572
63,23,3,ISIP_8,37,5,42,127,2181570904
63,23,3,ISIP_8,38,5,42,127,2182371184
63,23,3,ISIP_8,39,1,48,50,2182387320
63,23,3,ISIP_8,40,1,48,46,2183157488
63,23,3,ISIP_8,41,5,42,127,2183170536
63,23,3,ISIP_8,42,1,48,50,2183949892
63,23,3,ISIP_8,43,5,42,127,2183971168
63,23,3,ISIP_8,44,1,48,52,2184701828
63,23,3,ISIP_8,45,5,42,127,2184770904
63,23,3,ISIP_8,46,1,48,51,2185532608
63,23,3,ISIP_8,47,5,42,127,2185570860
63,23,3,ISIP_8,48,1,48,47,2186326360
63,23,3,ISIP_8,49,5,42,127,2186370596
63,23,3,ISIP_8,50,1,48,56,2187157880
63,23,3,ISIP_8,51,5,42,127,2187171448
63,23,3,ISIP_8,52,1,48,48,2187925676
63,23,3,ISIP_8,53,5,42,127,2187970884
63,23,3,ISIP_8,54,1,48,50,2188756968
63,23,3,ISIP_8,55,5,42,127,2188770868
63,23,3,ISIP_8,56,1,48,51,2189504044
63,23,3,ISIP_8,57,5,42,127,2189570448
63,23,3,ISIP_8,58,1,48,48,2190293528
63,23,3,ISIP_8,59,1,48,50,2191112284
63,23,3,ISIP_8,60,1,48,48,2191902812
63,23,3,ISIP_8,61,1,48,41,2192718248
63,23,3,ISIP_8,62,1,48,46,2193553880
63,23,3,ISIP_8,63,1,48,53,2194369556
63,23,3,ISIP_8,64,1,48,34,2195194736
63,23,3,ISIP_8,65,1,48,54,2196035084
63,23,3,ISIP_8,66,1,48,45,2196848424
63,23,3,ISIP_8,67,1,48,42,2197675756
63,23,3,ISIP_8,68,1,48,38,2198479004
63,23,3,ISIP_8,69,1,48,49,2199240432
63,23,3,ISIP_8,70,1,48,50,2200073248
63,23,3,ISIP_8,71,1,48,44,2200890632
63,23,3,ISIP_8,72,1,48,47,2201716164
63,23,3,ISIP_8,73,1,48,48,2202534220
63,23,3,ISIP_8,74,1,48,41,2203355492
63,23,3,ISIP_8,75,1,48,43,2204134452
63,23,3,ISIP_8,76,1,48,45,2204953024
63,23,3,ISIP_8,77,1,48,41,2205758140
63,23,3,ISIP_8,78,1,48,48,2206589656
63,23,3,ISIP_8,79,1,48,45,2207366796
63,23,3,ISIP_8,80,1,48,49,2208143792
63,23,3,ISIP_8,81,1,48,52,2208947108
63,23,3,ISIP_8,82,1,48,53,2209762648
63,23,3,ISIP_8,83,1,48,40,2210536648
63,23,3,ISIP_8,84,1,48,50,2211316032
63,23,3,ISIP_8,85,1,48,47,2212115612
63,23,3,ISIP_8,86,1,48,50,2212888040
63,23,3,ISIP_8,87,1,48,50,2213706096
63,23,3,ISIP_8,88,1,48,48,2214510760
63,23,3,ISIP_8,89,1,48,47,2215314828
63,23,3,ISIP_8,90,1,48,44,2216092560
63,23,3,ISIP_8,91,1,48,53,2216877112
63,23,3,ISIP_8,92,1,48,47,2217699380
63,23,3,ISIP_8,93,1,48,50,2218487064
63,23,3,ISIP_8,94,1,48,48,2219288740
63,23,3,ISIP_8,95,1,48,50,2220082104
63,23,3,ISIP_8,96,1,48,56,2220855736
63,23,3,ISIP_8,97,1,48,49,2221603032
63,23,3,ISIP_8,98,1,48,54,2222414352
63,23,3,ISIP_8,99,1,48,48,2223230540
63,23,3,ISIP_8,100,1,48,50,2224025476
63,23,3,ISIP_8,101,1,48,41,2224851612
63,23,3,ISIP_8,102,1,48,50,2225653756
63,23,3,ISIP_8,103,1,48,47,2226431128
63,23,3,ISIP_8,104,1,48,51,2227214248
63,23,3,ISIP_8,105,1,48,49,2228019440
63,23,3,ISIP_8,106,1,48,46,2228809520
63,23,3,ISIP_8,107,1,48,51,2229633632
63,23,3,ISIP_8,108,1,48,48,2230410252
63,23,3,ISIP_8,109,1,48,52,2231184996
63,23,3,ISIP_8,110,1,48,49,2231975000
63,23,3,ISIP_8,111,1,48,52,2232771436
63,23,3,ISIP_8,112,1,48,53,2233577848
63,23,3,ISIP_8,113,1,48,53,2234343904
63,23,3,ISIP_8,114,1,48,48,2235133092
63,23,3,ISIP_8,115,1,48,52,2235970228
63,23,3,ISIP_8,116,1,48,57,2236770256
63,23,3,ISIP_8,117,1,48,47,2237597888
63,23,3,ISIP_8,118,1,48,46,2238396120
63,23,3,ISIP_8,119,1,48,50,2239166520
63,23,3,ISIP_8,120,1,48,41,2240005256
63,23,3,ISIP_8,121,1,48,57,2240825628
63,23,3,ISIP_8,122,1,48,51,2241648092
63,23,3,ISIP_8,123,1,48,47,2242519852
63,23,3,ISIP_8,124,1,48,49,2243330824
63,23,3,ISIP_8,125,1,48,47,2244136912
63,23,3,ISIP_8,126,1,48,51,2244950404
63,23,3,ISIP_8,127,1,48,49,2245703836
63,23,3,ISIP_8,128,1,48,48,2246522856
63,23,3,ISIP_8,129,1,48,43,2247300600
63,23,3,ISIP_8,130,1,48,47,2248110204
63,23,3,ISIP_8,131,1,48,44,2248896092
63,23,3,ISIP_8,132,1,48,46,2249700412
63,23,3,ISIP_8,133,1,48,47,2250515092
63,23,3,ISIP_8,134,1,48,47,2251288196
63,23,3,ISIP_8,135,1,48,46,2252142976
63,23,3,ISIP_8,136,1,48,47,2252885412
63,23,3,ISIP_8,137,1,48,46,2253654252
63,23,3,ISIP_8,138,1,48,48,2254413212
63,23,3,ISIP_8,139,1,48,49,2255208904
63,23,3,ISIP_8,140,1,48,49,2256002276
63,23,3,ISIP_8,141,1,48,46,2256815544
63,23,3,ISIP_8,142,1,48,36,2257632124
63,23,3,ISIP_8,143,1,48,49,2258455644
63,23,3,ISIP_8,144,1,48,54,2259287684
63,23,3,ISIP_8,145,1,48,46,2260131244
63,23,3,ISIP_8,146,1,48,45,2260915640
63,23,3,ISIP_8,147,1,48,47,2261721352
63,23,3,ISIP_8,148,1,48,49,2262486524
63,23,3,ISIP_8,149,1,48,52,2263306920
63,23,3,ISIP_8,150,1,48,41,2264093036
63,23,3,ISIP_8,151,1,48,48,2264874960
63,23,3,ISIP_8,152,1,48,42,2265703716
63,23,3,ISIP_8,153,1,48,45,2266457068
63,23,3,ISIP_8,154,1,48,51,2267261364
63,23,3,ISIP_8,155,1,48,45,2268048528
63,23,3,ISIP_8,156,1,48,43,2268828208
63,23,3,ISIP_8,157,1,48,44,2269646340
63,23,3,ISIP_8,158,1,48,52,2270427888
63,23,3,ISIP_8,159,1,48,49,2271226448
63,23,3,ISIP_8,160,1,48,45,2272005684
63,23,3,ISIP_8,161,1,48,44,2272820376
63,23,3,ISIP_8,162,1,48,44,2273596764
63,23,3,ISIP_8,163,1,48,44,2274391632
63,23,3,ISIP_8,164,1,48,44,2275176704
63,23,3,ISIP_8,165,1,48,45,2276029464
63,23,3,ISIP_8,166,1,48,41,2276781016
63,23,3,ISIP_8,167,1,48,45,2277533836
63,23,3,ISIP_8,168,1,48,40,2278315688
63,23,3,ISIP_8,169,1,48,48,2279123716
63,23,3,ISIP_8,170,1,48,40,2279903800
63,23,3,ISIP_8,171,1,48,44,2280701140
63,23,3,ISIP_8,172,1,48,44,2281509168
63,23,3,ISIP_8,173,1,48,42,2282311216
63,23,3,ISIP_8,174,1,48,49,2283109748
63,23,3,ISIP_8,175,1,48,48,2283930796
63,23,3,ISIP_8,176,1,48,44,2284821596
63,23,3,ISIP_8,177,1,48,46,2285640616
63,23,3,ISIP_8,0,9999,9999,9999,2166368308
63,23,3,ISIP_8,1,9999,9999,9999,2167168064
63,23,3,ISIP_8,2,9999,9999,9999,2167968864
63,23,3,ISIP_8,3,9999,9999,9999,2168768592
63,23,3,ISIP_8,4,9999,9999,9999,2169568332
63,23,3,ISIP_8,5,9999,9999,9999,2170368084
63,23,3,ISIP_8,6,9999,9999,9999,2171168872
63,23,3,ISIP_8,7,9999,9999,9999,2171968604
63,23,3,ISIP_8,8,9999,9999,9999,2172768340
63,23,3,ISIP_8,9,9999,9999,9999,2173568068
63,23,3,ISIP_8,10,9999,9999,9999,2174368848
63,23,3,ISIP_8,11,9999,9999,9999,2175168580
63,23,3,ISIP_8,12,9999,9999,9999,2175968312
63,23,3,ISIP_8,13,9999,9999,9999,2176768120
63,23,3,ISIP_8,14,9999,9999,9999,2177568828
63,23,3,ISIP_8,15,9999,9999,9999,2178368560
63,23,3,ISIP_8,16,9999,9999,9999,2179168368
63,23,3,ISIP_8,17,9999,9999,9999,2179968100
63,23,3,ISIP_8,18,9999,9999,9999,2180768884
63,23,3,ISIP_8,19,9999,9999,9999,2181568616
63,23,3,ISIP_8,20,9999,9999,9999,2182368356
63,23,3,ISIP_8,21,9999,9999,9999,2183168100
63,23,3,ISIP_8,22,9999,9999,9999,2183968880
63,23,3,ISIP_8,23,9999,9999,9999,2184768616
63,23,3,ISIP_8,24,9999,9999,9999,2185568348
63,23,3,ISIP_8,25,9999,9999,9999,2186368084
63,23,3,ISIP_8,26,9999,9999,9999,2187168864
63,23,3,ISIP_8,27,9999,9999,9999,2187968596
63,23,3,ISIP_8,28,9999,9999,9999,2188768332
63,23,3,ISIP_8,29,9999,9999,9999,2189568088
63,23,3,ISIP_8,30,9999,9999,9999,2190368868
63,23,3,ISIP_8,31,9999,9999,9999,2191168596
63,23,3,ISIP_8,32,9999,9999,9999,2191968324
63,23,3,ISIP_8,33,9999,9999,9999,2192768056
63,23,3,ISIP_8,34,9999,9999,9999,2193568828
63,23,3,ISIP_8,35,9999,9999,9999,2194368564
63,23,3,ISIP_8,36,9999,9999,9999,2195168368
63,23,3,ISIP_8,37,9999,9999,9999,2195968048
63,23,3,ISIP_8,38,9999,9999,9999,2196768824
63,23,3,ISIP_8,39,9999,9999,9999,2197568628
63,23,3,ISIP_8,40,9999,9999,9999,2198368356
63,23,3,ISIP_8,41,9999,9999,9999,2199168088
63,23,3,ISIP_8,42,9999,9999,9999,2199968864
63,23,3,ISIP_8,43,9999,9999,9999,2200768592
63,23,3,ISIP_8,44,9999,9999,9999,2201568320
63,23,3,ISIP_8,45,9999,9999,9999,2202368076
63,23,3,ISIP_8,46,9999,9999,9999,2203168852
63,23,3,ISIP_8,47,9999,9999,9999,2203968580
63,23,3,ISIP_8,48,9999,9999,9999,2204768308
63,23,3,ISIP_8,49,9999,9999,9999,2205568112
63,23,3,ISIP_8,50,9999,9999,9999,2206368888
63,23,3,ISIP_8,51,9999,9999,9999,2207168616
63,23,3,ISIP_8,52,9999,9999,9999,2207968348
63,23,3,ISIP_8,53,9999,9999,9999,2208768104
63,23,3,ISIP_8,54,9999,9999,9999,2209568876
63,23,3,ISIP_8,55,9999,9999,9999,2210368608
63,23,3,ISIP_8,56,9999,9999,9999,2211168340
63,23,3,ISIP_8,57,9999,9999,9999,2211968068
63,23,3,ISIP_8,58,9999,9999,9999,2212768844
63,23,3,ISIP_8,59,9999,9999,9999,2213568572
63,23,3,ISIP_8,60,9999,9999,9999,2214368376
63,23,3,ISIP_8,61,9999,9999,9999,2215168056
63,23,3,ISIP_8,62,9999,9999,9999,2215968832
63,23,3,ISIP_8,63,9999,9999,9999,2216768560
63,23,3,ISIP_8,64,9999,9999,9999,2217568364
63,23,3,ISIP_8,65,9999,9999,9999,2218368092
63,23,3,ISIP_8,66,9999,9999,9999,2219168868
63,23,3,ISIP_8,67,9999,9999,9999,2219968600
63,23,3,ISIP_8,68,9999,9999,9999,2220768352
63,23,3,ISIP_8,69,9999,9999,9999,2221568084
63,23,3,ISIP_8,70,9999,9999,9999,2222368860
63,23,3,ISIP_8,71,9999,9999,9999,2223168588
63,23,3,ISIP_8,72,9999,9999,9999,2223968320
63,23,3,ISIP_8,73,9999,9999,9999,2224768048
63,23,3,ISIP_8,74,9999,9999,9999,2225568824
63,23,3,ISIP_8,75,9999,9999,9999,2226368628
63,23,3,ISIP_8,76,9999,9999,9999,2227168308
63,23,3,ISIP_8,77,9999,9999,9999,2227968112
63,23,3,ISIP_8,78,9999,9999,9999,2228768888
63,23,3,ISIP_8,79,9999,9999,9999,2229568616
63,23,3,ISIP_8,80,9999,9999,9999,2230368348
63,23,3,ISIP_8,81,9999,9999,9999,2231168076
63,23,3,ISIP_8,82,9999,9999,9999,2231968848
63,23,3,ISIP_8,83,9999,9999,9999,2232768580
63,23,3,ISIP_8,84,9999,9999,9999,2233568332
63,23,3,ISIP_8,85,9999,9999,9999,2234368056
63,23,3,ISIP_8,86,9999,9999,9999,2235168832
63,23,3,ISIP_8,87,9999,9999,9999,2235968568
63,23,3,ISIP_8,88,9999,9999,9999,2236768372
63,23,3,ISIP_8,89,9999,9999,9999,2237568100
63,23,3,ISIP_8,90,9999,9999,9999,2238368876
63,23,3,ISIP_8,91,9999,9999,9999,2239168600
63,23,3,ISIP_8,92,9999,9999,9999,2239968360
63,23,3,ISIP_8,93,9999,9999,9999,2240768088
63,23,3,ISIP_8,94,9999,9999,9999,2241568864
63,23,3,ISIP_8,95,9999,9999,9999,2242368596
63,23,3,ISIP_8,96,9999,9999,9999,2243168324
63,23,3,ISIP_8,97,9999,9999,9999,2243968052
63,23,3,ISIP_8,98,9999,9999,9999,2244768828
63,23,3,ISIP_8,99,9999,9999,9999,2245568632
63,23,3,ISIP_8,100,9999,9999,9999,2246368312
63,23,3,ISIP_8,101,9999,9999,9999,2247168116
63,23,3,ISIP_8,102,9999,9999,9999,2247968816
63,23,3,ISIP_8,103,9999,9999,9999,2248768620
63,23,3,ISIP_8,104,9999,9999,9999,2249568348
63,23,3,ISIP_8,105,9999,9999,9999,2250368076
63,23,3,ISIP_8,106,9999,9999,9999,2251168852
63,23,3,ISIP_8,107,9999,9999,9999,2251968580
63,23,3,ISIP_8,108,9999,9999,9999,2252768336
63,23,3,ISIP_8,109,9999,9999,9999,2253568064
63,23,3,ISIP_8,110,9999,9999,9999,2254368840
63,23,3,ISIP_8,111,9999,9999,9999,2255168572
63,23,3,ISIP_8,112,9999,9999,9999,2255968372
63,23,3,ISIP_8,113,9999,9999,9999,2256768104
63,23,3,ISIP_8,114,9999,9999,9999,2257568880
63,23,3,ISIP_8,115,9999,9999,9999,2258368608
63,23,3,ISIP_8,116,9999,9999,9999,2259168364
63,23,3,ISIP_8,117,9999,9999,9999,2259968092
63,23,3,ISIP_8,118,9999,9999,9999,2260768868
63,23,3,ISIP_8,119,9999,9999,9999,2261568596
63,23,3,ISIP_8,120,9999,9999,9999,2262368328
63,23,3,ISIP_8,121,9999,9999,9999,2263168056
63,23,3,ISIP_8,122,9999,9999,9999,2263968832
63,23,3,ISIP_8,123,9999,9999,9999,2264768560
63,23,3,ISIP_8,124,9999,9999,9999,2265568316
63,23,3,ISIP_8,125,9999,9999,9999,2266368120
63,23,3,ISIP_8,126,9999,9999,9999,2267168824
63,23,3,ISIP_8,127,9999,9999,9999,2267968624
63,23,3,ISIP_8,128,9999,9999,9999,2268768352
63,23,3,ISIP_8,129,9999,9999,9999,2269568084
63,23,3,ISIP_8,130,9999,9999,9999,2270368860
63,23,3,ISIP_8,131,9999,9999,9999,2271168588
63,23,3,ISIP_8,132,9999,9999,9999,2271968340
63,23,3,ISIP_8,133,9999,9999,9999,2272768072
63,23,3,ISIP_8,134,9999,9999,9999,2273568848
63,23,3,ISIP_8,135,9999,9999,9999,2274368576
63,23,3,ISIP_8,136,9999,9999,9999,2275168308
63,23,3,ISIP_8,137,9999,9999,9999,2275968108
63,23,3,ISIP_8,138,9999,9999,9999,2276768884
63,23,3,ISIP_8,139,9999,9999,9999,2277568608
63,23,3,ISIP_8,140,9999,9999,9999,2278368360
63,23,3,ISIP_8,141,9999,9999,9999,2279168088
63,23,3,ISIP_8,142,9999,9999,9999,2279968864
63,23,3,ISIP_8,143,9999,9999,9999,2280768596
63,23,3,ISIP_8,144,9999,9999,9999,2281568324
63,23,3,ISIP_8,145,9999,9999,9999,2282368052
63,23,3,ISIP_8,146,9999,9999,9999,2283168828
63,23,3,ISIP_8,147,9999,9999,9999,2283968560
63,23,3,ISIP_8,148,9999,9999,9999,2284768320
63,23,3,ISIP_8,149,9999,9999,9999,2285568048
63,24,11,Pattern_Practice,0,5,42,127,2378206468
63,24,11,Pattern_Practice,1,5,42,127,2378707580
63,24,11,Pattern_Practice,2,5,42,127,2379207148
63,24,11,Pattern_Practice,3,5,42,127,2379706712
63,24,11,Pattern_Practice,4,1,48,57,2380182524
63,24,11,Pattern_Practice,5,5,42,127,2380206424
63,24,11,Pattern_Practice,6,1,48,35,2380446812
63,24,11,Pattern_Practice,7,1,48,58,2380552800
63,24,11,Pattern_Practice,8,5,42,127,2380707128
63,24,11,Pattern_Practice,9,1,48,44,2380824036
63,24,11,Pattern_Practice,10,1,48,52,2380924996
63,24,11,Pattern_Practice,11,5,42,127,2381206876
63,24,11,Pattern_Practice,12,1,38,60,2381208436
63,24,11,Pattern_Practice,13,5,42,127,2381706496
63,24,11,Pattern_Practice,14,5,42,127,2382207632
63,24,11,Pattern_Practice,15,5,42,127,2382707496
63,24,11,Pattern_Practice,16,5,42,127,2383206692
63,24,11,Pattern_Practice,17,5,42,127,2383706336
63,24,11,Pattern_Practice,18,1,48,62,2384161724
63,24,11,Pattern_Practice,19,5,42,127,2384207388
63,24,11,Pattern_Practice,20,1,48,51,2384469688
63,24,11,Pattern_Practice,21,1,48,59,2384574984
63,24,11,Pattern_Practice,22,5,42,127,2384706820
63,24,11,Pattern_Practice,23,1,48,67,2384816156
63,24,11,Pattern_Practice,24,1,48,59,2384959244
63,24,11,Pattern_Practice,25,5,42,127,2385206568
63,24,11,Pattern_Practice,26,1,38,85,2385263692
63,24,11,Pattern_Practice,27,5,42,127,2385707236
63,24,11,Pattern_Practice,28,5,42,127,2386207100
63,24,11,Pattern_Practice,29,1,48,60,2386473756
63,24,11,Pattern_Practice,30,5,42,127,2386706720
63,24,11,Pattern_Practice,31,1,48,52,2386953256
63,24,11,Pattern_Practice,32,5,42,127,2387206492
63,24,11,Pattern_Practice,33,1,38,83,2387235488
63,24,11,Pattern_Practice,34,5,42,127,2387707308
63,24,11,Pattern_Practice,35,1,48,54,2388142336
63,24,11,Pattern_Practice,36,5,42,127,2388206868
63,24,11,Pattern_Practice,37,5,42,127,2388706644
63,24,11,Pattern_Practice,38,1,48,44,2388895188
63,24,11,Pattern_Practice,39,1,38,69,2389149576
63,24,11,Pattern_Practice,40,5,42,127,2389207604
63,24,11,Pattern_Practice,41,1,48,42,2389381996
63,24,11,Pattern_Practice,42,5,42,127,2389707260
63,24,11,Pattern_Practice,43,1,48,52,2389975580
63,24,11,Pattern_Practice,44,5,42,127,2390206800
63,24,11,Pattern_Practice,45,1,48,52,2390467396
63,24,11,Pattern_Practice,46,5,42,127,2390706568
63,24,11,Pattern_Practice,47,1,48,51,2390952132
63,24,11,Pattern_Practice,48,1,38,68,2391181688
63,24,11,Pattern_Practice,49,5,42,127,2391207304
63,24,11,Pattern_Practice,50,1,38,18,2391289344
63,24,11,Pattern_Practice,51,1,48,49,2391416328
63,24,11,Pattern_Practice,52,5,42,127,2391707108
63,24,11,Pattern_Practice,53,1,48,57,2392139020
63,24,11,Pattern_Practice,54,5,42,127,2392206672
63,24,11,Pattern_Practice,55,5,42,127,2392706520
63,24,11,Pattern_Practice,56,1,48,51,2392946620
63,24,11,Pattern_Practice,57,1,38,74,2393160172
63,24,11,Pattern_Practice,58,5,42,127,2393207256
63,24,11,Pattern_Practice,59,1,48,46,2393416228
63,24,11,Pattern_Practice,60,5,42,127,2393706712
63,24,11,Pattern_Practice,61,1,48,48,2393982196
63,24,11,Pattern_Practice,62,5,42,127,2394206556
63,24,11,Pattern_Practice,63,1,48,56,2394454808
63,24,11,Pattern_Practice,64,5,42,127,2394707220
63,24,11,Pattern_Practice,65,1,48,50,2394945004
63,24,11,Pattern_Practice,66,1,38,75,2395191544
63,24,11,Pattern_Practice,67,5,42,127,2395207132
63,24,11,Pattern_Practice,68,1,38,70,2395695648
63,24,11,Pattern_Practice,69,5,42,127,2395706604
63,24,11,Pattern_Practice,70,1,48,48,2396161312
63,24,11,Pattern_Practice,71,5,42,127,2396206448
63,24,11,Pattern_Practice,72,5,42,127,2396707124
63,24,11,Pattern_Practice,73,1,48,53,2396921644
63,24,11,Pattern_Practice,74,1,38,80,2397174016
63,24,11,Pattern_Practice,75,5,42,127,2397207032
63,24,11,Pattern_Practice,76,5,42,127,2397706512
63,24,11,Pattern_Practice,77,1,48,45,2397946616
63,24,11,Pattern_Practice,78,5,42,127,2398207328
63,24,11,Pattern_Practice,79,1,48,51,2398444668
63,24,11,Pattern_Practice,80,1,48,48,2398697332
63,24,11,Pattern_Practice,81,5,42,127,2398707240
63,24,11,Pattern_Practice,82,1,38,77,2399193736
63,24,11,Pattern_Practice,83,5,42,127,2399206640
63,24,11,Pattern_Practice,84,1,48,52,2399419700
63,24,11,Pattern_Practice,85,5,42,127,2399706464
63,24,11,Pattern_Practice,86,1,48,53,2399936820
63,24,11,Pattern_Practice,87,1,48,46,2400184024
63,24,11,Pattern_Practice,88,5,42,127,2400207176
63,24,11,Pattern_Practice,89,1,48,53,2400662780
63,24,11,Pattern_Practice,90,5,42,127,2400706872
63,24,11,Pattern_Practice,91,1,48,48,2400908736
63,24,11,Pattern_Practice,92,1,38,80,2401186016
63,24,11,Pattern_Practice,93,5,42,127,2401206616
63,24,11,Pattern_Practice,94,1,48,51,2401399580
63,24,11,Pattern_Practice,95,5,42,127,2401707244
63,24,11,Pattern_Practice,96,1,48,55,2401940616
63,24,11,Pattern_Practice,97,5,42,127,2402207160
63,24,11,Pattern_Practice,98,1,48,57,2402449660
63,24,11,Pattern_Practice,99,1,48,46,2402700460
63,24,11,Pattern_Practice,100,5,42,127,2402706924
63,24,11,Pattern_Practice,101,1,38,69,2403202468
63,24,11,Pattern_Practice,102,5,42,127,2403206544
63,24,11,Pattern_Practice,103,5,42,127,2403707144
63,24,11,Pattern_Practice,104,1,48,63,2404190516
63,24,11,Pattern_Practice,105,5,42,127,2404207004
63,24,11,Pattern_Practice,106,5,42,127,2404706556
63,24,11,Pattern_Practice,107,1,48,48,2404897144
63,24,11,Pattern_Practice,108,1,38,68,2405197984
63,24,11,Pattern_Practice,109,5,42,127,2405207364
63,24,11,Pattern_Practice,110,5,42,127,2405707064
63,24,11,Pattern_Practice,111,5,42,127,2406206932
63,24,11,Pattern_Practice,112,5,42,127,2406706424
63,24,11,Pattern_Practice,113,1,48,57,2406990208
63,24,11,Pattern_Practice,114,5,42,127,2407207168
63,24,11,Pattern_Practice,115,1,38,54,2407238628
63,24,11,Pattern_Practice,116,5,42,127,2407707008
63,24,11,Pattern_Practice,117,1,48,16,2408050332
63,24,11,Pattern_Practice,118,5,42,127,2408206852
63,24,11,Pattern_Practice,119,5,42,127,2408706344
63,24,11,Pattern_Practice,120,1,48,45,2408904680
63,24,11,Pattern_Practice,121,1,38,64,2409148980
63,24,11,Pattern_Practice,122,5,42,127,2409207080
63,24,11,Pattern_Practice,123,5,42,127,2409706780
63,24,11,Pattern_Practice,124,1,48,40,2410157664
63,24,11,Pattern_Practice,125,5,42,127,2410206716
63,24,11,Pattern_Practice,126,1,48,48,2410473732
63,24,11,Pattern_Practice,127,5,42,127,2410707340
63,24,11,Pattern_Practice,128,1,48,53,2410955900
63,24,11,Pattern_Practice,129,1,38,71,2411203104
63,24,11,Pattern_Practice,130,5,42,127,2411206956
63,24,11,Pattern_Practice,131,1,48,50,2411432980
63,24,11,Pattern_Practice,132,1,48,42,2411665228
63,24,11,Pattern_Practice,133,5,42,127,2411707000
63,24,11,Pattern_Practice,134,1,38,69,2411894576
63,24,11,Pattern_Practice,135,1,48,59,2412156748
63,24,11,Pattern_Practice,136,5,42,127,2412206448
63,24,11,Pattern_Practice,137,1,48,14,2412320576
63,24,11,Pattern_Practice,138,5,42,127,2412707252
63,24,11,Pattern_Practice,139,1,48,52,2412969720
63,24,11,Pattern_Practice,140,5,42,127,2413206872
63,24,11,Pattern_Practice,141,1,38,66,2413209768
63,24,11,Pattern_Practice,142,1,48,45,2413448000
63,24,11,Pattern_Practice,143,5,42,127,2413706768
63,24,11,Pattern_Practice,144,1,48,52,2413987336
63,24,11,Pattern_Practice,145,5,42,127,2414207212
63,24,11,Pattern_Practice,146,1,48,53,2414426376
63,24,11,Pattern_Practice,147,5,42,127,2414706984
63,24,11,Pattern_Practice,148,1,48,51,2414892556
63,24,11,Pattern_Practice,149,1,38,74,2415165724
63,24,11,Pattern_Practice,150,5,42,127,2415206968
63,24,11,Pattern_Practice,151,1,48,47,2415347052
63,24,11,Pattern_Practice,152,1,48,46,2415663972
63,24,11,Pattern_Practice,153,5,42,127,2415706420
63,24,11,Pattern_Practice,154,1,38,68,2415936708
63,24,11,Pattern_Practice,155,1,48,55,2416187056
63,24,11,Pattern_Practice,156,5,42,127,2416207064
63,24,11,Pattern_Practice,157,5,42,127,2416706988
63,24,11,Pattern_Practice,158,1,48,55,2416962876
63,24,11,Pattern_Practice,159,5,42,127,2417206908
63,24,11,Pattern_Practice,160,1,38,79,2417220200
63,24,11,Pattern_Practice,161,1,48,42,2417426720
63,24,11,Pattern_Practice,162,5,42,127,2417707256
63,24,11,Pattern_Practice,163,1,48,56,2417966952
63,24,11,Pattern_Practice,0,9999,9999,9999,2378204252
63,24,11,Pattern_Practice,1,9999,9999,9999,2378704992
63,24,11,Pattern_Practice,2,9999,9999,9999,2379204708
63,24,11,Pattern_Practice,3,9999,9999,9999,2379704424
63,24,11,Pattern_Practice,4,9999,9999,9999,2380204136
63,24,11,Pattern_Practice,5,9999,9999,9999,2380704840
63,24,11,Pattern_Practice,6,9999,9999,9999,2381204588
63,24,11,Pattern_Practice,7,9999,9999,9999,2381704284
63,24,11,Pattern_Practice,8,9999,9999,9999,2382205044
63,24,11,Pattern_Practice,9,9999,9999,9999,2382704764
63,24,11,Pattern_Practice,10,9999,9999,9999,2383204404
63,24,11,Pattern_Practice,11,9999,9999,9999,2383704120
63,24,11,Pattern_Practice,12,9999,9999,9999,2384204876
63,24,11,Pattern_Practice,13,9999,9999,9999,2384704608
63,24,11,Pattern_Practice,14,9999,9999,9999,2385204280
63,24,11,Pattern_Practice,15,9999,9999,9999,2385705024
63,24,11,Pattern_Practice,16,9999,9999,9999,2386204740
63,24,11,Pattern_Practice,17,9999,9999,9999,2386704436
63,24,11,Pattern_Practice,18,9999,9999,9999,2387204204
63,24,11,Pattern_Practice,19,9999,9999,9999,2387704944
63,24,11,Pattern_Practice,20,9999,9999,9999,2388204656
63,24,11,Pattern_Practice,21,9999,9999,9999,2388704356
63,24,11,Pattern_Practice,22,9999,9999,9999,2389205068
63,24,11,Pattern_Practice,23,9999,9999,9999,2389704824
63,24,11,Pattern_Practice,24,9999,9999,9999,2390204512
63,24,11,Pattern_Practice,25,9999,9999,9999,2390704204
63,24,11,Pattern_Practice,26,9999,9999,9999,2391204940
63,24,11,Pattern_Practice,27,9999,9999,9999,2391704672
63,24,11,Pattern_Practice,28,9999,9999,9999,2392204384
63,24,11,Pattern_Practice,29,9999,9999,9999,2392704084
63,24,11,Pattern_Practice,30,9999,9999,9999,2393204820
63,24,11,Pattern_Practice,31,9999,9999,9999,2393704500
63,24,11,Pattern_Practice,32,9999,9999,9999,2394204268
63,24,11,Pattern_Practice,33,9999,9999,9999,2394705008
63,24,11,Pattern_Practice,34,9999,9999,9999,2395204696
63,24,11,Pattern_Practice,35,9999,9999,9999,2395704392
63,24,11,Pattern_Practice,36,9999,9999,9999,2396204088
63,24,11,Pattern_Practice,37,9999,9999,9999,2396704836
63,24,11,Pattern_Practice,38,9999,9999,9999,2397204596
63,24,11,Pattern_Practice,39,9999,9999,9999,2397704300
63,24,11,Pattern_Practice,40,9999,9999,9999,2398205040
63,24,11,Pattern_Practice,41,9999,9999,9999,2398704728
63,24,11,Pattern_Practice,42,9999,9999,9999,2399204428
63,24,11,Pattern_Practice,43,9999,9999,9999,2399704180
63,24,11,Pattern_Practice,44,9999,9999,9999,2400204888
63,24,11,Pattern_Practice,45,9999,9999,9999,2400704584
63,24,11,Pattern_Practice,46,9999,9999,9999,2401204328
63,24,11,Pattern_Practice,47,9999,9999,9999,2401705032
63,24,11,Pattern_Practice,48,9999,9999,9999,2402204724
63,24,11,Pattern_Practice,49,9999,9999,9999,2402704488
63,24,11,Pattern_Practice,50,9999,9999,9999,2403204180
63,24,11,Pattern_Practice,51,9999,9999,9999,2403704932
63,24,11,Pattern_Practice,52,9999,9999,9999,2404204640
63,24,11,Pattern_Practice,53,9999,9999,9999,2404704340
63,24,11,Pattern_Practice,54,9999,9999,9999,2405205076
63,24,11,Pattern_Practice,55,9999,9999,9999,2405704776
63,24,11,Pattern_Practice,56,9999,9999,9999,2406204492
63,24,11,Pattern_Practice,57,9999,9999,9999,2406704212
63,24,11,Pattern_Practice,58,9999,9999,9999,2407204952
63,24,11,Pattern_Practice,59,9999,9999,9999,2407704648
63,24,11,Pattern_Practice,60,9999,9999,9999,2408204344
63,24,11,Pattern_Practice,61,9999,9999,9999,2408704056
63,24,11,Pattern_Practice,62,9999,9999,9999,2409204792
63,24,11,Pattern_Practice,63,9999,9999,9999,2409704568
63,24,11,Pattern_Practice,64,9999,9999,9999,2410204280
63,24,11,Pattern_Practice,65,9999,9999,9999,2410704980
63,24,11,Pattern_Practice,66,9999,9999,9999,2411204668
63,24,11,Pattern_Practice,67,9999,9999,9999,2411704412
63,24,11,Pattern_Practice,68,9999,9999,9999,2412204088
63,24,11,Pattern_Practice,69,9999,9999,9999,2412704888
63,24,11,Pattern_Practice,70,9999,9999,9999,2413204584
63,24,11,Pattern_Practice,71,9999,9999,9999,2413704260
63,24,11,Pattern_Practice,72,9999,9999,9999,2414205000
63,24,11,Pattern_Practice,73,9999,9999,9999,2414704696
63,24,11,Pattern_Practice,74,9999,9999,9999,2415204460
63,24,11,Pattern_Practice,75,9999,9999,9999,2415704132
63,24,11,Pattern_Practice,76,9999,9999,9999,2416204852
63,24,11,Pattern_Practice,77,9999,9999,9999,2416704624
63,24,11,Pattern_Practice,78,9999,9999,9999,2417204320
63,24,11,Pattern_Practice,79,9999,9999,9999,2417705040
63,25,13,Improv_Metronome,0,5,42,127,2444139816
63,25,13,Improv_Metronome,1,5,42,127,2444639680
63,25,13,Improv_Metronome,2,5,42,127,2445140296
63,25,13,Improv_Metronome,3,5,42,127,2445640012
63,25,13,Improv_Metronome,4,5,42,127,2446139876
63,25,13,Improv_Metronome,5,1,48,54,2446149352
63,25,13,Improv_Metronome,6,1,48,43,2446431040
63,25,13,Improv_Metronome,7,1,48,57,2446527736
63,25,13,Improv_Metronome,8,5,42,127,2446639452
63,25,13,Improv_Metronome,9,1,48,55,2446811860
63,25,13,Improv_Metronome,10,1,48,60,2446928300
63,25,13,Improv_Metronome,11,5,42,127,2447140172
63,25,13,Improv_Metronome,12,1,38,72,2447221232
63,25,13,Improv_Metronome,13,5,42,127,2447639944
63,25,13,Improv_Metronome,14,5,42,127,2448139584
63,25,13,Improv_Metronome,15,5,42,127,2448640424
63,25,13,Improv_Metronome,16,1,48,66,2448934528
63,25,13,Improv_Metronome,17,1,48,58,2449054184
63,25,13,Improv_Metronome,18,5,42,127,2449139964
63,25,13,Improv_Metronome,19,1,38,88,2449242768
63,25,13,Improv_Metronome,20,5,42,127,2449639716
63,25,13,Improv_Metronome,21,1,48,63,2450117680
63,25,13,Improv_Metronome,22,5,42,127,2450139352
63,25,13,Improv_Metronome,23,1,48,48,2450400832
63,25,13,Improv_Metronome,24,1,48,61,2450503884
63,25,13,Improv_Metronome,25,5,42,127,2450640180
63,25,13,Improv_Metronome,26,1,48,52,2450741608
63,25,13,Improv_Metronome,27,1,48,61,2450858272
63,25,13,Improv_Metronome,28,1,38,76,2451120588
63,25,13,Improv_Metronome,29,5,42,127,2451140068
63,25,13,Improv_Metronome,30,5,42,127,2451639844
63,25,13,Improv_Metronome,31,5,42,127,2452140388
63,25,13,Improv_Metronome,32,5,42,127,2452640028
63,25,13,Improv_Metronome,33,1,48,59,2452892996
63,25,13,Improv_Metronome,34,1,48,58,2452997712
63,25,13,Improv_Metronome,35,1,38,83,2453120212
63,25,13,Improv_Metronome,36,5,42,127,2453139768
63,25,13,Improv_Metronome,37,5,42,127,2453639472
63,25,13,Improv_Metronome,38,1,48,59,2454107356
63,25,13,Improv_Metronome,39,5,42,127,2454140300
63,25,13,Improv_Metronome,40,1,48,42,2454394300
63,25,13,Improv_Metronome,41,1,48,58,2454472216
63,25,13,Improv_Metronome,42,5,42,127,2454639960
63,25,13,Improv_Metronome,43,1,48,59,2454742656
63,25,13,Improv_Metronome,44,1,48,58,2454854684
63,25,13,Improv_Metronome,45,5,42,127,2455139704
63,25,13,Improv_Metronome,46,1,38,101,2455142372
63,25,13,Improv_Metronome,47,5,42,127,2455640372
63,25,13,Improv_Metronome,48,5,42,127,2456140088
63,25,13,Improv_Metronome,49,5,42,127,2456639880
63,25,13,Improv_Metronome,50,1,48,66,2456914992
63,25,13,Improv_Metronome,51,1,48,55,2456987224
63,25,13,Improv_Metronome,52,5,42,127,2457139632
63,25,13,Improv_Metronome,53,1,38,60,2457157184
63,25,13,Improv_Metronome,54,1,38,50,2457193740
63,25,13,Improv_Metronome,55,5,42,127,2457640276
63,25,13,Improv_Metronome,56,1,48,59,2458107784
63,25,13,Improv_Metronome,57,5,42,127,2458139984
63,25,13,Improv_Metronome,58,1,48,47,2458410144
63,25,13,Improv_Metronome,59,1,48,58,2458487012
63,25,13,Improv_Metronome,60,5,42,127,2458639792
63,25,13,Improv_Metronome,61,1,48,67,2458760864
63,25,13,Improv_Metronome,62,1,48,59,2458868724
63,25,13,Improv_Metronome,63,5,42,127,2459139392
63,25,13,Improv_Metronome,64,1,38,93,2459149988
63,25,13,Improv_Metronome,65,5,42,127,2459640132
63,25,13,Improv_Metronome,66,5,42,127,2460139848
63,25,13,Improv_Metronome,67,5,42,127,2460639712
63,25,13,Improv_Metronome,68,1,48,57,2460896648
63,25,13,Improv_Metronome,69,1,48,56,2461011588
63,25,13,Improv_Metronome,70,5,42,127,2461140284
63,25,13,Improv_Metronome,71,1,38,96,2461168084
63,25,13,Improv_Metronome,72,5,42,127,2461640104
63,25,13,Improv_Metronome,73,1,48,69,2462137548
63,25,13,Improv_Metronome,74,5,42,127,2462139664
63,25,13,Improv_Metronome,75,5,42,127,2462639440
63,25,13,Improv_Metronome,76,1,48,50,2462901384
63,25,13,Improv_Metronome,77,1,38,81,2463135648
63,25,13,Improv_Metronome,78,5,42,127,2463140472
63,25,13,Improv_Metronome,79,1,48,57,2463367252
63,25,13,Improv_Metronome,80,5,42,127,2463639856
63,25,13,Improv_Metronome,81,1,48,51,2463921844
63,25,13,Improv_Metronome,82,5,42,127,2464139776
63,25,13,Improv_Metronome,83,1,48,65,2464384812
63,25,13,Improv_Metronome,84,5,42,127,2464640292
63,25,13,Improv_Metronome,85,1,48,53,2464909940
63,25,13,Improv_Metronome,86,5,42,127,2465140064
63,25,13,Improv_Metronome,87,1,38,67,2465151856
63,25,13,Improv_Metronome,88,1,38,48,2465391888
63,25,13,Improv_Metronome,89,1,38,62,2465592120
63,25,13,Improv_Metronome,90,5,42,127,2465639876
63,25,13,Improv_Metronome,91,1,38,49,2465799932
63,25,13,Improv_Metronome,92,1,48,65,2466101216
63,25,13,Improv_Metronome,93,5,42,127,2466139772
63,25,13,Improv_Metronome,94,5,42,127,2466640148
63,25,13,Improv_Metronome,95,1,38,45,2466873216
63,25,13,Improv_Metronome,96,1,38,49,2466996088
63,25,13,Improv_Metronome,97,1,38,66,2467101108
63,25,13,Improv_Metronome,98,5,42,127,2467139816
63,25,13,Improv_Metronome,99,1,38,28,2467170596
63,25,13,Improv_Metronome,100,1,48,46,2467408228
63,25,13,Improv_Metronome,101,5,42,127,2467639844
63,25,13,Improv_Metronome,102,1,38,38,2467951232
63,25,13,Improv_Metronome,103,5,42,127,2468140440
63,25,13,Improv_Metronome,104,1,38,55,2468444720
63,25,13,Improv_Metronome,105,5,42,127,2468640060
63,25,13,Improv_Metronome,106,1,38,54,2468902004
63,25,13,Improv_Metronome,107,5,42,127,2469139828
63,25,13,Improv_Metronome,108,1,48,63,2469166140
63,25,13,Improv_Metronome,109,5,42,127,2469639748
63,25,13,Improv_Metronome,110,5,42,127,2470140136
63,25,13,Improv_Metronome,111,1,38,51,2470159184
63,25,13,Improv_Metronome,112,5,42,127,2470639832
63,25,13,Improv_Metronome,113,1,48,65,2470872308
63,25,13,Improv_Metronome,114,5,42,127,2471139752
63,25,13,Improv_Metronome,115,1,48,54,2471407680
63,25,13,Improv_Metronome,116,5,42,127,2471640640
63,25,13,Improv_Metronome,117,1,48,60,2471894880
63,25,13,Improv_Metronome,118,5,42,127,2472140088
63,25,13,Improv_Metronome,119,1,38,75,2472149364
63,25,13,Improv_Metronome,120,5,42,127,2472639856
63,25,13,Improv_Metronome,121,5,42,127,2473139720
63,25,13,Improv_Metronome,122,5,42,127,2473640408
63,25,13,Improv_Metronome,123,1,38,79,2474126548
63,25,13,Improv_Metronome,124,5,42,127,2474140044
63,25,13,Improv_Metronome,125,5,42,127,2474639672
63,25,13,Improv_Metronome,126,1,48,69,2474904756
63,25,13,Improv_Metronome,127,5,42,127,2475139588
63,25,13,Improv_Metronome,128,1,48,76,2475436540
63,25,13,Improv_Metronome,129,5,42,127,2475640256
63,25,13,Improv_Metronome,130,1,48,63,2475928528
63,25,13,Improv_Metronome,131,5,42,127,2476140028
63,25,13,Improv_Metronome,132,1,38,94,2476179576
63,25,13,Improv_Metronome,133,1,48,53,2476400752
63,25,13,Improv_Metronome,134,5,42,127,2476639624
63,25,13,Improv_Metronome,135,1,48,55,2476871052
63,25,13,Improv_Metronome,136,5,42,127,2477140512
63,25,13,Improv_Metronome,137,1,48,64,2477356904
63,25,13,Improv_Metronome,138,5,42,127,2477639984
63,25,13,Improv_Metronome,139,1,48,59,2477883828
63,25,13,Improv_Metronome,140,5,42,127,2478139756
63,25,13,Improv_Metronome,141,1,48,64,2478155364
63,25,13,Improv_Metronome,142,1,38,74,2478631108
63,25,13,Improv_Metronome,143,5,42,127,2478639592
63,25,13,Improv_Metronome,144,1,48,61,2478874820
63,25,13,Improv_Metronome,145,5,42,127,2479140096
63,25,13,Improv_Metronome,146,1,48,64,2479382592
63,25,13,Improv_Metronome,147,5,42,127,2479639936
63,25,13,Improv_Metronome,148,1,38,84,2479651508
63,25,13,Improv_Metronome,149,1,48,57,2479910684
63,25,13,Improv_Metronome,150,5,42,127,2480139688
63,25,13,Improv_Metronome,151,1,48,69,2480158892
63,25,13,Improv_Metronome,152,1,48,61,2480541328
63,25,13,Improv_Metronome,153,5,42,127,2480640480
63,25,13,Improv_Metronome,154,1,38,101,2480667608
63,25,13,Improv_Metronome,155,1,48,66,2480915796
63,25,13,Improv_Metronome,156,5,42,127,2481140080
63,25,13,Improv_Metronome,157,1,48,69,2481398580
63,25,13,Improv_Metronome,158,1,38,85,2481630312
63,25,13,Improv_Metronome,159,5,42,127,2481639768
63,25,13,Improv_Metronome,160,5,42,127,2482139544
63,25,13,Improv_Metronome,161,1,48,62,2482143708
63,25,13,Improv_Metronome,162,1,48,58,2482550912
63,25,13,Improv_Metronome,163,5,42,127,2482640328
63,25,13,Improv_Metronome,164,1,38,80,2482662352
63,25,13,Improv_Metronome,165,1,48,62,2482915024
63,25,13,Improv_Metronome,166,5,42,127,2483139960
63,25,13,Improv_Metronome,167,1,48,63,2483377744
63,25,13,Improv_Metronome,168,1,38,66,2483611564
63,25,13,Improv_Metronome,169,5,42,127,2483639648
63,25,13,Improv_Metronome,170,1,48,48,2483832916
63,25,13,Improv_Metronome,171,5,42,127,2484140300
63,25,13,Improv_Metronome,172,1,48,76,2484147536
63,25,13,Improv_Metronome,173,1,48,64,2484527608
63,25,13,Improv_Metronome,174,1,38,67,2484633420
63,25,13,Improv_Metronome,175,5,42,127,2484640040
63,25,13,Improv_Metronome,176,1,48,67,2484883416
63,25,13,Improv_Metronome,177,5,42,127,2485139720
63,25,13,Improv_Metronome,178,1,38,69,2485622120
63,25,13,Improv_Metronome,179,5,42,127,2485639580
63,25,13,Improv_Metronome,180,5,42,127,2486140400
63,25,13,Improv_Metronome,181,1,48,56,2486157660
63,25,13,Improv_Metronome,182,1,38,84,2486638204
63,25,13,Improv_Metronome,183,5,42,127,2486640692
63,25,13,Improv_Metronome,184,1,48,67,2486886536
63,25,13,Improv_Metronome,185,5,42,127,2487139620
63,25,13,Improv_Metronome,186,1,38,73,2487633536
63,25,13,Improv_Metronome,187,5,42,127,2487640524
63,25,13,Improv_Metronome,188,5,42,127,2488140228
63,25,13,Improv_Metronome,189,5,42,127,2488639796
63,25,13,Improv_Metronome,190,1,38,81,2488655252
63,25,13,Improv_Metronome,191,1,48,63,2488877780
63,25,13,Improv_Metronome,192,5,42,127,2489139616
63,25,13,Improv_Metronome,193,1,38,64,2489630688
63,25,13,Improv_Metronome,194,5,42,127,2489640148
63,25,13,Improv_Metronome,195,1,48,69,2489928404
63,25,13,Improv_Metronome,196,5,42,127,2490140200
63,25,13,Improv_Metronome,197,1,38,70,2490620428
63,25,13,Improv_Metronome,198,5,42,127,2490639612
63,25,13,Improv_Metronome,199,1,48,61,2490794700
63,25,13,Improv_Metronome,200,5,42,127,2491139368
63,25,13,Improv_Metronome,201,5,42,127,2491640352
63,25,13,Improv_Metronome,202,1,38,83,2491653044
63,25,13,Improv_Metronome,203,5,42,127,2492139828
63,25,13,Improv_Metronome,204,5,42,127,2492639692
63,25,13,Improv_Metronome,205,1,38,78,2492651332
63,25,13,Improv_Metronome,206,1,48,67,2492884484
63,25,13,Improv_Metronome,207,5,42,127,2493140412
63,25,13,Improv_Metronome,208,1,38,88,2493619716
63,25,13,Improv_Metronome,209,5,42,127,2493640320
63,25,13,Improv_Metronome,210,5,42,127,2494139648
63,25,13,Improv_Metronome,211,1,48,74,2494153532
63,25,13,Improv_Metronome,212,1,48,62,2494534432
63,25,13,Improv_Metronome,213,5,42,127,2494639320
63,25,13,Improv_Metronome,214,1,38,77,2494658896
63,25,13,Improv_Metronome,215,1,48,74,2494919792
63,25,13,Improv_Metronome,216,5,42,127,2495140336
63,25,13,Improv_Metronome,217,1,38,80,2495626328
63,25,13,Improv_Metronome,218,5,42,127,2495640196
63,25,13,Improv_Metronome,219,1,48,70,2495874896
63,25,13,Improv_Metronome,220,5,42,127,2496139728
63,25,13,Improv_Metronome,221,1,48,63,2496153240
63,25,13,Improv_Metronome,222,1,48,67,2496536380
63,25,13,Improv_Metronome,223,5,42,127,2496640296
63,25,13,Improv_Metronome,224,1,38,91,2496648724
63,25,13,Improv_Metronome,225,1,48,73,2496914488
63,25,13,Improv_Metronome,226,5,42,127,2497140264
63,25,13,Improv_Metronome,227,1,38,96,2497634632
63,25,13,Improv_Metronome,228,5,42,127,2497639976
63,25,13,Improv_Metronome,229,5,42,127,2498139452
63,25,13,Improv_Metronome,230,1,48,68,2498174880
63,25,13,Improv_Metronome,231,1,48,64,2498547404
63,25,13,Improv_Metronome,232,5,42,127,2498640248
63,25,13,Improv_Metronome,233,1,38,71,2498648600
63,25,13,Improv_Metronome,234,1,48,72,2498910844
63,25,13,Improv_Metronome,235,5,42,127,2499140140
63,25,13,Improv_Metronome,236,1,38,90,2499638580
63,25,13,Improv_Metronome,237,5,42,127,2499641572
63,25,13,Improv_Metronome,238,1,48,62,2499857052
63,25,13,Improv_Metronome,239,5,42,127,2500140428
63,25,13,Improv_Metronome,240,1,48,81,2500158356
63,25,13,Improv_Metronome,241,1,48,63,2500582260
63,25,13,Improv_Metronome,242,5,42,127,2500640192
63,25,13,Improv_Metronome,243,1,38,86,2500664176
63,25,13,Improv_Metronome,244,1,48,66,2500929536
63,25,13,Improv_Metronome,245,5,42,127,2501140060
63,25,13,Improv_Metronome,246,5,42,127,2501639480
63,25,13,Improv_Metronome,247,1,38,95,2501679176
63,25,13,Improv_Metronome,248,5,42,127,2502140220
63,25,13,Improv_Metronome,249,1,48,71,2502197192
63,25,13,Improv_Metronome,250,5,42,127,2502640140
63,25,13,Improv_Metronome,251,1,48,64,2502847008
63,25,13,Improv_Metronome,252,5,42,127,2503139684
63,25,13,Improv_Metronome,253,5,42,127,2503640372
63,25,13,Improv_Metronome,254,5,42,127,2504140140
63,25,13,Improv_Metronome,255,1,48,67,2504155848
63,25,13,Improv_Metronome,256,5,42,127,2504640132
63,25,13,Improv_Metronome,257,1,48,67,2504858096
63,25,13,Improv_Metronome,258,5,42,127,2505139528
63,25,13,Improv_Metronome,259,5,42,127,2505640292
63,25,13,Improv_Metronome,260,1,38,66,2505663152
63,25,13,Improv_Metronome,261,1,48,63,2506135380
63,25,13,Improv_Metronome,262,5,42,127,2506140128
63,25,13,Improv_Metronome,263,5,42,127,2506639828
63,25,13,Improv_Metronome,264,1,48,64,2506861832
63,25,13,Improv_Metronome,265,5,42,127,2507139376
63,25,13,Improv_Metronome,266,5,42,127,2507640064
63,25,13,Improv_Metronome,267,5,42,127,2508139932
63,25,13,Improv_Metronome,268,1,48,69,2508140972
63,25,13,Improv_Metronome,269,5,42,127,2508639476
63,25,13,Improv_Metronome,270,1,48,62,2508875168
63,25,13,Improv_Metronome,271,5,42,127,2509140368
63,25,13,Improv_Metronome,272,5,42,127,2509639936
63,25,13,Improv_Metronome,273,1,38,82,2509672224
63,25,13,Improv_Metronome,274,1,48,63,2510124332
63,25,13,Improv_Metronome,275,5,42,127,2510139772
63,25,13,Improv_Metronome,276,1,48,57,2510568300
63,25,13,Improv_Metronome,277,1,38,60,2510623032
63,25,13,Improv_Metronome,278,5,42,127,2510639448
63,25,13,Improv_Metronome,279,1,48,66,2510910924
63,25,13,Improv_Metronome,280,5,42,127,2511140148
63,25,13,Improv_Metronome,281,1,48,64,2511410168
63,25,13,Improv_Metronome,282,5,42,127,2511639768
63,25,13,Improv_Metronome,283,1,38,66,2511674824
63,25,13,Improv_Metronome,284,1,48,60,2511931608
63,25,13,Improv_Metronome,285,5,42,127,2512139740
63,25,13,Improv_Metronome,286,1,48,72,2512186392
63,25,13,Improv_Metronome,287,1,48,59,2512541832
63,25,13,Improv_Metronome,288,5,42,127,2512640756
63,25,13,Improv_Metronome,289,1,38,76,2512643276
63,25,13,Improv_Metronome,290,1,48,62,2512870216
63,25,13,Improv_Metronome,291,5,42,127,2513140056
63,25,13,Improv_Metronome,292,1,48,68,2513384796
63,25,13,Improv_Metronome,293,1,38,74,2513615976
63,25,13,Improv_Metronome,294,5,42,127,2513639720
63,25,13,Improv_Metronome,295,1,48,57,2514129876
63,25,13,Improv_Metronome,0,9999,9999,9999,2444137528
63,25,13,Improv_Metronome,1,9999,9999,9999,2444637244
63,25,13,Improv_Metronome,2,9999,9999,9999,2445138008
63,25,13,Improv_Metronome,3,9999,9999,9999,2445637724
63,25,13,Improv_Metronome,4,9999,9999,9999,2446137440
63,25,13,Improv_Metronome,5,9999,9999,9999,2446637164
63,25,13,Improv_Metronome,6,9999,9999,9999,2447137884
63,25,13,Improv_Metronome,7,9999,9999,9999,2447637580
63,25,13,Improv_Metronome,8,9999,9999,9999,2448137296
63,25,13,Improv_Metronome,9,9999,9999,9999,2448638060
63,25,13,Improv_Metronome,10,9999,9999,9999,2449137748
63,25,13,Improv_Metronome,11,9999,9999,9999,2449637428
63,25,13,Improv_Metronome,12,9999,9999,9999,2450137140
63,25,13,Improv_Metronome,13,9999,9999,9999,2450637896
63,25,13,Improv_Metronome,14,9999,9999,9999,2451137632
63,25,13,Improv_Metronome,15,9999,9999,9999,2451637336
63,25,13,Improv_Metronome,16,9999,9999,9999,2452138100
63,25,13,Improv_Metronome,17,9999,9999,9999,2452637812
63,25,13,Improv_Metronome,18,9999,9999,9999,2453137480
63,25,13,Improv_Metronome,19,9999,9999,9999,2453637184
63,25,13,Improv_Metronome,20,9999,9999,9999,2454137940
63,25,13,Improv_Metronome,21,9999,9999,9999,2454637672
63,25,13,Improv_Metronome,22,9999,9999,9999,2455137344
63,25,13,Improv_Metronome,23,9999,9999,9999,2455638084
63,25,13,Improv_Metronome,24,9999,9999,9999,2456137800
63,25,13,Improv_Metronome,25,9999,9999,9999,2456637516
63,25,13,Improv_Metronome,26,9999,9999,9999,2457137268
63,25,13,Improv_Metronome,27,9999,9999,9999,2457637988
63,25,13,Improv_Metronome,28,9999,9999,9999,2458137696
63,25,13,Improv_Metronome,29,9999,9999,9999,2458637428
63,25,13,Improv_Metronome,30,9999,9999,9999,2459137104
63,25,13,Improv_Metronome,31,9999,9999,9999,2459637844
63,25,13,Improv_Metronome,32,9999,9999,9999,2460137560
63,25,13,Improv_Metronome,33,9999,9999,9999,2460637276
63,25,13,Improv_Metronome,34,9999,9999,9999,2461137972
63,25,13,Improv_Metronome,35,9999,9999,9999,2461637740
63,25,13,Improv_Metronome,36,9999,9999,9999,2462137416
63,25,13,Improv_Metronome,37,9999,9999,9999,2462637152
63,25,13,Improv_Metronome,38,9999,9999,9999,2463137888
63,25,13,Improv_Metronome,39,9999,9999,9999,2463637568
63,25,13,Improv_Metronome,40,9999,9999,9999,2464137264
63,25,13,Improv_Metronome,41,9999,9999,9999,2464638004
63,25,13,Improv_Metronome,42,9999,9999,9999,2465137776
63,25,13,Improv_Metronome,43,9999,9999,9999,2465637440
63,25,13,Improv_Metronome,44,9999,9999,9999,2466137188
63,25,13,Improv_Metronome,45,9999,9999,9999,2466637936
63,25,13,Improv_Metronome,46,9999,9999,9999,2467137600
63,25,13,Improv_Metronome,47,9999,9999,9999,2467637332
63,25,13,Improv_Metronome,48,9999,9999,9999,2468138076
63,25,13,Improv_Metronome,49,9999,9999,9999,2468637772
63,25,13,Improv_Metronome,50,9999,9999,9999,2469137468
63,25,13,Improv_Metronome,51,9999,9999,9999,2469637236
63,25,13,Improv_Metronome,52,9999,9999,9999,2470137924
63,25,13,Improv_Metronome,53,9999,9999,9999,2470637620
63,25,13,Improv_Metronome,54,9999,9999,9999,2471137388
63,25,13,Improv_Metronome,55,9999,9999,9999,2471638132
63,25,13,Improv_Metronome,56,9999,9999,9999,2472137800
63,25,13,Improv_Metronome,57,9999,9999,9999,2472637492
63,25,13,Improv_Metronome,58,9999,9999,9999,2473137212
63,25,13,Improv_Metronome,59,9999,9999,9999,2473637972
63,25,13,Improv_Metronome,60,9999,9999,9999,2474137684
63,25,13,Improv_Metronome,61,9999,9999,9999,2474637384
63,25,13,Improv_Metronome,62,9999,9999,9999,2475137080
63,25,13,Improv_Metronome,63,9999,9999,9999,2475637820
63,25,13,Improv_Metronome,64,9999,9999,9999,2476137592
63,25,13,Improv_Metronome,65,9999,9999,9999,2476637260
63,25,13,Improv_Metronome,66,9999,9999,9999,2477138004
63,25,13,Improv_Metronome,67,9999,9999,9999,2477637696
63,25,13,Improv_Metronome,68,9999,9999,9999,2478137392
63,25,13,Improv_Metronome,69,9999,9999,9999,2478637156
63,25,13,Improv_Metronome,70,9999,9999,9999,2479137880
63,25,13,Improv_Metronome,71,9999,9999,9999,2479637576
63,25,13,Improv_Metronome,72,9999,9999,9999,2480137324
63,25,13,Improv_Metronome,73,9999,9999,9999,2480638060
63,25,13,Improv_Metronome,74,9999,9999,9999,2481137716
63,25,13,Improv_Metronome,75,9999,9999,9999,2481637480
63,25,13,Improv_Metronome,76,9999,9999,9999,2482137184
63,25,13,Improv_Metronome,77,9999,9999,9999,2482637892
63,25,13,Improv_Metronome,78,9999,9999,9999,2483137600
63,25,13,Improv_Metronome,79,9999,9999,9999,2483637360
63,25,13,Improv_Metronome,80,9999,9999,9999,2484138088
63,25,13,Improv_Metronome,81,9999,9999,9999,2484637752
63,25,13,Improv_Metronome,82,9999,9999,9999,2485137508
63,25,13,Improv_Metronome,83,9999,9999,9999,2485637220
63,25,13,Improv_Metronome,84,9999,9999,9999,2486137964
63,25,13,Improv_Metronome,85,9999,9999,9999,2486637680
63,25,13,Improv_Metronome,86,9999,9999,9999,2487137332
63,25,13,Improv_Metronome,87,9999,9999,9999,2487638092
63,25,13,Improv_Metronome,88,9999,9999,9999,2488137792
63,25,13,Improv_Metronome,89,9999,9999,9999,2488637508
63,25,13,Improv_Metronome,90,9999,9999,9999,2489137252
63,25,13,Improv_Metronome,91,9999,9999,9999,2489637936
63,25,13,Improv_Metronome,92,9999,9999,9999,2490137688
63,25,13,Improv_Metronome,93,9999,9999,9999,2490637400
63,25,13,Improv_Metronome,94,9999,9999,9999,2491137080
63,25,13,Improv_Metronome,95,9999,9999,9999,2491637840
63,25,13,Improv_Metronome,96,9999,9999,9999,2492137536
63,25,13,Improv_Metronome,97,9999,9999,9999,2492637256
63,25,13,Improv_Metronome,98,9999,9999,9999,2493137972
63,25,13,Improv_Metronome,99,9999,9999,9999,2493637736
63,25,13,Improv_Metronome,100,9999,9999,9999,2494137436
63,25,13,Improv_Metronome,101,9999,9999,9999,2494637108
63,25,13,Improv_Metronome,102,9999,9999,9999,2495137900
63,25,13,Improv_Metronome,103,9999,9999,9999,2495637608
63,25,13,Improv_Metronome,104,9999,9999,9999,2496137292
63,25,13,Improv_Metronome,105,9999,9999,9999,2496638008
63,25,13,Improv_Metronome,106,9999,9999,9999,2497137756
63,25,13,Improv_Metronome,107,9999,9999,9999,2497637464
63,25,13,Improv_Metronome,108,9999,9999,9999,2498137164
63,25,13,Improv_Metronome,109,9999,9999,9999,2498637908
63,25,13,Improv_Metronome,110,9999,9999,9999,2499137632
63,25,13,Improv_Metronome,111,9999,9999,9999,2499637348
63,25,13,Improv_Metronome,112,9999,9999,9999,2500138068
63,25,13,Improv_Metronome,113,9999,9999,9999,2500637756
63,25,13,Improv_Metronome,114,9999,9999,9999,2501137476
63,25,13,Improv_Metronome,115,9999,9999,9999,2501637192
63,25,13,Improv_Metronome,116,9999,9999,9999,2502137932
63,25,13,Improv_Metronome,117,9999,9999,9999,2502637628
63,25,13,Improv_Metronome,118,9999,9999,9999,2503137396
63,25,13,Improv_Metronome,119,9999,9999,9999,2503638088
63,25,13,Improv_Metronome,120,9999,9999,9999,2504137776
63,25,13,Improv_Metronome,121,9999,9999,9999,2504637544
63,25,13,Improv_Metronome,122,9999,9999,9999,2505137240
63,25,13,Improv_Metronome,123,9999,9999,9999,2505638004
63,25,13,Improv_Metronome,124,9999,9999,9999,2506137692
63,25,13,Improv_Metronome,125,9999,9999,9999,2506637392
63,25,13,Improv_Metronome,126,9999,9999,9999,2507137088
63,25,13,Improv_Metronome,127,9999,9999,9999,2507637852
63,25,13,Improv_Metronome,128,9999,9999,9999,2508137568
63,25,13,Improv_Metronome,129,9999,9999,9999,2508637264
63,25,13,Improv_Metronome,130,9999,9999,9999,2509138004
63,25,13,Improv_Metronome,131,9999,9999,9999,2509637724
63,25,13,Improv_Metronome,132,9999,9999,9999,2510137412
63,25,13,Improv_Metronome,133,9999,9999,9999,2510637160
63,25,13,Improv_Metronome,134,9999,9999,9999,2511137860
63,25,13,Improv_Metronome,135,9999,9999,9999,2511637556
63,25,13,Improv_Metronome,136,9999,9999,9999,2512137304
63,25,13,Improv_Metronome,137,9999,9999,9999,2512638036
63,25,13,Improv_Metronome,138,9999,9999,9999,2513137768
63,25,13,Improv_Metronome,139,9999,9999,9999,2513637432
63,26,14,Improv_Melody,0,2,48,80,2561780116
63,26,14,Improv_Melody,1,2,72,80,2561782864
63,26,14,Improv_Melody,2,5,42,127,2561784424
63,26,14,Improv_Melody,3,5,42,110,2562276740
63,26,14,Improv_Melody,4,5,42,110,2562776540
63,26,14,Improv_Melody,5,5,42,110,2563277208
63,26,14,Improv_Melody,6,5,42,127,2563776756
63,26,14,Improv_Melody,7,5,42,110,2564276700
63,26,14,Improv_Melody,8,5,42,110,2564777320
63,26,14,Improv_Melody,9,5,42,110,2565276968
63,26,14,Improv_Melody,10,2,43,80,2565779420
63,26,14,Improv_Melody,11,2,67,80,2565781496
63,26,14,Improv_Melody,12,5,42,127,2565783960
63,26,14,Improv_Melody,13,5,42,110,2566276576
63,26,14,Improv_Melody,14,5,42,110,2566777268
63,26,14,Improv_Melody,15,5,42,110,2567276840
63,26,14,Improv_Melody,16,5,42,127,2567776564
63,26,14,Improv_Melody,17,5,42,110,2568277556
63,26,14,Improv_Melody,18,5,42,110,2568777056
63,26,14,Improv_Melody,19,5,42,110,2569276924
63,26,14,Improv_Melody,20,2,45,80,2569779004
63,26,14,Improv_Melody,21,2,69,80,2569781080
63,26,14,Improv_Melody,22,5,42,127,2569783616
63,26,14,Improv_Melody,23,5,42,110,2570277204
63,26,14,Improv_Melody,24,5,42,110,2570777000
63,26,14,Improv_Melody,25,5,42,110,2571276724
63,26,14,Improv_Melody,26,5,42,127,2571777640
63,26,14,Improv_Melody,27,5,42,110,2572277064
63,26,14,Improv_Melody,28,5,42,110,2572776784
63,26,14,Improv_Melody,29,5,42,110,2573276656
63,26,14,Improv_Melody,30,2,41,80,2573779780
63,26,14,Improv_Melody,31,2,65,80,2573781780
63,26,14,Improv_Melody,32,5,42,127,2573784544
63,26,14,Improv_Melody,33,5,42,110,2574276836
63,26,14,Improv_Melody,34,5,42,110,2574776708
63,26,14,Improv_Melody,35,5,42,110,2575277400
63,26,14,Improv_Melody,36,5,42,127,2575777124
63,26,14,Improv_Melody,37,5,42,110,2576276920
63,26,14,Improv_Melody,38,5,42,110,2576776640
63,26,14,Improv_Melody,39,1,38,61,2577259564
63,26,14,Improv_Melody,40,5,42,110,2577277400
63,26,14,Improv_Melody,41,1,38,59,2577290076
63,26,14,Improv_Melody,42,1,38,43,2577382460
63,26,14,Improv_Melody,43,1,48,78,2577717556
63,26,14,Improv_Melody,44,2,48,80,2577779484
63,26,14,Improv_Melody,45,2,72,80,2577781564
63,26,14,Improv_Melody,46,5,42,127,2577784100
63,26,14,Improv_Melody,47,5,42,110,2578276628
63,26,14,Improv_Melody,48,1,38,64,2578327540
63,26,14,Improv_Melody,49,1,48,58,2578529356
63,26,14,Improv_Melody,50,5,42,110,2578776608
63,26,14,Improv_Melody,51,1,38,61,2579270372
63,26,14,Improv_Melody,52,5,42,110,2579277220
63,26,14,Improv_Melody,53,5,42,127,2579776852
63,26,14,Improv_Melody,54,5,42,110,2580276572
63,26,14,Improv_Melody,55,1,38,62,2580283656
63,26,14,Improv_Melody,56,1,48,54,2580489728
63,26,14,Improv_Melody,57,5,42,110,2580777224
63,26,14,Improv_Melody,58,1,38,63,2581264780
63,26,14,Improv_Melody,59,5,42,110,2581277164
63,26,14,Improv_Melody,60,2,43,80,2581779452
63,26,14,Improv_Melody,61,2,67,80,2581781532
63,26,14,Improv_Melody,62,5,42,127,2581783916
63,26,14,Improv_Melody,63,5,42,110,2582276532
63,26,14,Improv_Melody,64,1,38,77,2582298348
63,26,14,Improv_Melody,65,1,48,57,2582495144
63,26,14,Improv_Melody,66,5,42,110,2582777256
63,26,14,Improv_Melody,67,1,38,72,2583265420
63,26,14,Improv_Melody,68,5,42,110,2583276824
63,26,14,Improv_Melody,69,5,42,127,2583776604
63,26,14,Improv_Melody,70,5,42,110,2584277300
63,26,14,Improv_Melody,71,1,38,62,2584282956
63,26,14,Improv_Melody,72,1,48,56,2584504564
63,26,14,Improv_Melody,73,5,42,110,2584777176
63,26,14,Improv_Melody,74,5,42,110,2585276672
63,26,14,Improv_Melody,75,1,38,60,2585294252
63,26,14,Improv_Melody,76,2,45,80,2585779104
63,26,14,Improv_Melody,77,2,69,80,2585781256
63,26,14,Improv_Melody,78,5,42,127,2585783716
63,26,14,Improv_Melody,79,5,42,110,2586277228
63,26,14,Improv_Melody,80,1,38,73,2586290300
63,26,14,Improv_Melody,81,1,48,49,2586509304
63,26,14,Improv_Melody,82,5,42,110,2586776908
63,26,14,Improv_Melody,83,5,42,110,2587276628
63,26,14,Improv_Melody,84,1,38,62,2587280048
63,26,14,Improv_Melody,85,1,38,90,2587550516
63,26,14,Improv_Melody,86,5,42,127,2587777356
63,26,14,Improv_Melody,87,1,38,57,2588269324
63,26,14,Improv_Melody,88,5,42,110,2588277072
63,26,14,Improv_Melody,89,1,48,52,2588462704
63,26,14,Improv_Melody,90,5,42,110,2588776756
63,26,14,Improv_Melody,91,1,38,88,2589273140
63,26,14,Improv_Melody,92,5,42,110,2589276472
63,26,14,Improv_Melody,93,1,38,69,2589533760
63,26,14,Improv_Melody,94,2,41,80,2589779932
63,26,14,Improv_Melody,95,2,65,80,2589782008
63,26,14,Improv_Melody,96,5,42,127,2589784620
63,26,14,Improv_Melody,97,5,42,110,2590277088
63,26,14,Improv_Melody,98,1,38,69,2590315284
63,26,14,Improv_Melody,99,5,42,110,2590776564
63,26,14,Improv_Melody,100,5,42,110,2591277336
63,26,14,Improv_Melody,101,5,42,127,2591777132
63,26,14,Improv_Melody,102,5,42,110,2592276776
63,26,14,Improv_Melody,103,1,38,61,2592302708
63,26,14,Improv_Melody,104,5,42,110,2592776552
63,26,14,Improv_Melody,105,1,38,58,2592802704
63,26,14,Improv_Melody,106,1,38,38,2592909352
63,26,14,Improv_Melody,107,1,38,58,2593180268
63,26,14,Improv_Melody,108,1,38,47,2593276048
63,26,14,Improv_Melody,109,5,42,110,2593278372
63,26,14,Improv_Melody,110,1,38,60,2593569848
63,26,14,Improv_Melody,111,2,48,80,2593779664
63,26,14,Improv_Melody,112,2,72,80,2593781820
63,26,14,Improv_Melody,113,5,42,127,2593784352
63,26,14,Improv_Melody,114,1,48,50,2593850824
63,26,14,Improv_Melody,115,5,42,110,2594276648
63,26,14,Improv_Melody,116,1,38,70,2594300784
63,26,14,Improv_Melody,117,1,38,45,2594332928
63,26,14,Improv_Melody,118,1,48,70,2594522172
63,26,14,Improv_Melody,119,5,42,110,2594776380
63,26,14,Improv_Melody,120,1,48,66,2595019596
63,26,14,Improv_Melody,121,1,48,56,2595141872
63,26,14,Improv_Melody,122,1,38,76,2595261976
63,26,14,Improv_Melody,123,5,42,110,2595277224
63,26,14,Improv_Melody,124,1,48,51,2595501800
63,26,14,Improv_Melody,125,1,48,62,2595743176
63,26,14,Improv_Melody,126,5,42,127,2595776952
63,26,14,Improv_Melody,127,1,48,51,2596149680
63,26,14,Improv_Melody,128,1,38,60,2596259460
63,26,14,Improv_Melody,129,5,42,110,2596276480
63,26,14,Improv_Melody,130,1,48,51,2596520980
63,26,14,Improv_Melody,131,5,42,110,2596777284
63,26,14,Improv_Melody,132,1,38,87,2597215480
63,26,14,Improv_Melody,133,5,42,110,2597277000
63,26,14,Improv_Melody,134,1,38,87,2597490160
63,26,14,Improv_Melody,135,1,48,58,2597779492
63,26,14,Improv_Melody,136,2,43,80,2597781056
63,26,14,Improv_Melody,137,2,67,80,2597782904
63,26,14,Improv_Melody,138,5,42,127,2597785364
63,26,14,Improv_Melody,139,1,48,55,2598198712
63,26,14,Improv_Melody,140,5,42,110,2598276392
63,26,14,Improv_Melody,141,1,38,81,2598319140
63,26,14,Improv_Melody,142,1,48,60,2598576448
63,26,14,Improv_Melody,143,5,42,110,2598777100
63,26,14,Improv_Melody,144,5,42,110,2599277048
63,26,14,Improv_Melody,145,5,42,127,2599776992
63,26,14,Improv_Melody,146,1,48,60,2599782432
63,26,14,Improv_Melody,147,1,48,55,2600161608
63,26,14,Improv_Melody,148,5,42,110,2600277416
63,26,14,Improv_Melody,149,1,38,87,2600296844
63,26,14,Improv_Melody,150,1,48,65,2600532160
63,26,14,Improv_Melody,151,5,42,110,2600777024
63,26,14,Improv_Melody,152,5,42,110,2601276968
63,26,14,Improv_Melody,153,1,38,84,2601762580
63,26,14,Improv_Melody,154,2,45,80,2601778960
63,26,14,Improv_Melody,155,2,69,80,2601781116
63,26,14,Improv_Melody,156,5,42,127,2601783728
63,26,14,Improv_Melody,157,1,38,73,2602008784
63,26,14,Improv_Melody,158,5,42,110,2602277280
63,26,14,Improv_Melody,159,1,38,74,2602549848
63,26,14,Improv_Melody,160,5,42,110,2602776980
63,26,14,Improv_Melody,161,1,38,86,2603070336
63,26,14,Improv_Melody,162,5,42,110,2603276832
63,26,14,Improv_Melody,163,1,38,71,2603764840
63,26,14,Improv_Melody,164,5,42,127,2603777444
63,26,14,Improv_Melody,165,1,38,75,2604034140
63,26,14,Improv_Melody,166,5,42,110,2604277132
63,26,14,Improv_Melody,167,1,38,75,2604554560
63,26,14,Improv_Melody,168,5,42,110,2604776904
63,26,14,Improv_Melody,169,1,38,64,2605016112
63,26,14,Improv_Melody,170,5,42,110,2605276752
63,26,14,Improv_Melody,171,1,48,49,2605278164
63,26,14,Improv_Melody,172,2,41,80,2605779480
63,26,14,Improv_Melody,173,2,65,80,2605781856
63,26,14,Improv_Melody,174,5,42,127,2605784248
63,26,14,Improv_Melody,175,5,42,110,2606276988
63,26,14,Improv_Melody,176,5,42,110,2606777004
63,26,14,Improv_Melody,177,5,42,110,2607277628
63,26,14,Improv_Melody,178,1,38,52,2607732948
63,26,14,Improv_Melody,179,5,42,127,2607777116
63,26,14,Improv_Melody,180,1,38,54,2607992816
63,26,14,Improv_Melody,181,5,42,110,2608276952
63,26,14,Improv_Melody,182,1,38,39,2608512568
63,26,14,Improv_Melody,183,1,38,38,2608564456
63,26,14,Improv_Melody,184,5,42,110,2608776780
63,26,14,Improv_Melody,185,1,38,49,2608784236
63,26,14,Improv_Melody,186,1,38,37,2608819524
63,26,14,Improv_Melody,187,1,38,18,2609005772
63,26,14,Improv_Melody,188,1,38,19,2609045692
63,26,14,Improv_Melody,189,1,38,62,2609275796
63,26,14,Improv_Melody,190,5,42,110,2609278796
63,26,14,Improv_Melody,191,1,38,42,2609340392
63,26,14,Improv_Melody,192,1,38,35,2609386248
63,26,14,Improv_Melody,193,1,38,54,2609546816
63,26,14,Improv_Melody,194,2,48,80,2609779444
63,26,14,Improv_Melody,195,2,72,80,2609781672
63,26,14,Improv_Melody,196,5,42,127,2609784212
63,26,14,Improv_Melody,197,1,38,65,2609812764
63,26,14,Improv_Melody,198,1,38,43,2609878144
63,26,14,Improv_Melody,199,1,38,51,2610194464
63,26,14,Improv_Melody,200,5,42,110,2610276852
63,26,14,Improv_Melody,201,1,38,16,2610312420
63,26,14,Improv_Melody,202,1,38,57,2610316960
63,26,14,Improv_Melody,203,1,38,50,2610402608
63,26,14,Improv_Melody,204,1,38,55,2610562652
63,26,14,Improv_Melody,205,1,38,38,2610655852
63,26,14,Improv_Melody,206,1,38,21,2610756884
63,26,14,Improv_Melody,207,5,42,110,2610776516
63,26,14,Improv_Melody,208,1,38,52,2611051836
63,26,14,Improv_Melody,209,1,38,36,2611145308
63,26,14,Improv_Melody,210,1,38,28,2611221456
63,26,14,Improv_Melody,211,5,42,110,2611277148
63,26,14,Improv_Melody,212,1,38,62,2611305980
63,26,14,Improv_Melody,213,1,38,44,2611380236
63,26,14,Improv_Melody,214,1,38,32,2611433568
63,26,14,Improv_Melody,215,1,38,48,2611541032
63,26,14,Improv_Melody,216,1,38,21,2611682548
63,26,14,Improv_Melody,217,5,42,127,2611776756
63,26,14,Improv_Melody,218,1,38,59,2611833044
63,26,14,Improv_Melody,219,1,38,56,2612192020
63,26,14,Improv_Melody,220,5,42,110,2612276732
63,26,14,Improv_Melody,221,1,38,30,2612284552
63,26,14,Improv_Melody,222,1,38,59,2612312280
63,26,14,Improv_Melody,223,1,38,25,2612385704
63,26,14,Improv_Melody,224,1,38,50,2612565672
63,26,14,Improv_Melody,225,1,38,32,2612665656
63,26,14,Improv_Melody,226,5,42,110,2612777380
63,26,14,Improv_Melody,227,1,38,49,2612990776
63,26,14,Improv_Melody,228,1,38,37,2613092708
63,26,14,Improv_Melody,229,1,38,28,2613168976
63,26,14,Improv_Melody,230,1,38,59,2613257088
63,26,14,Improv_Melody,231,5,42,110,2613277028
63,26,14,Improv_Melody,232,1,38,43,2613335704
63,26,14,Improv_Melody,233,1,38,30,2613389836
63,26,14,Improv_Melody,234,1,38,45,2613492160
63,26,14,Improv_Melody,235,2,43,80,2613779168
63,26,14,Improv_Melody,236,2,67,80,2613781472
63,26,14,Improv_Melody,237,5,42,127,2613784008
63,26,14,Improv_Melody,238,1,38,52,2613799916
63,26,14,Improv_Melody,239,1,38,48,2614187672
63,26,14,Improv_Melody,240,1,38,38,2614274540
63,26,14,Improv_Melody,241,5,42,110,2614276724
63,26,14,Improv_Melody,242,1,38,54,2614310420
63,26,14,Improv_Melody,243,1,38,32,2614370088
63,26,14,Improv_Melody,244,1,38,22,2614422272
63,26,14,Improv_Melody,245,1,38,53,2614562668
63,26,14,Improv_Melody,246,5,42,110,2614777316
63,26,14,Improv_Melody,247,1,38,52,2615002608
63,26,14,Improv_Melody,248,1,38,43,2615090400
63,26,14,Improv_Melody,249,1,38,24,2615157772
63,26,14,Improv_Melody,250,1,38,54,2615236736
63,26,14,Improv_Melody,251,5,42,110,2615276892
63,26,14,Improv_Melody,252,1,38,48,2615293828
63,26,14,Improv_Melody,253,1,38,34,2615338688
63,26,14,Improv_Melody,254,1,38,47,2615499884
63,26,14,Improv_Melody,255,5,42,127,2615776532
63,26,14,Improv_Melody,256,1,38,54,2615782340
63,26,14,Improv_Melody,257,1,38,52,2616168976
63,26,14,Improv_Melody,258,1,38,42,2616255416
63,26,14,Improv_Melody,259,5,42,110,2616277472
63,26,14,Improv_Melody,260,1,38,48,2616292472
63,26,14,Improv_Melody,261,1,38,43,2616352508
63,26,14,Improv_Melody,262,1,38,31,2616390408
63,26,14,Improv_Melody,263,1,38,50,2616565816
63,26,14,Improv_Melody,264,1,38,31,2616695340
63,26,14,Improv_Melody,265,5,42,110,2616776988
63,26,14,Improv_Melody,266,1,38,48,2617028968
63,26,14,Improv_Melody,267,1,38,54,2617274624
63,26,14,Improv_Melody,268,5,42,110,2617277332
63,26,14,Improv_Melody,269,1,38,46,2617332372
63,26,14,Improv_Melody,270,1,38,32,2617370876
63,26,14,Improv_Melody,271,1,38,38,2617523292
63,26,14,Improv_Melody,272,1,38,19,2617594424
63,26,14,Improv_Melody,273,2,45,80,2617778860
63,26,14,Improv_Melody,274,2,69,80,2617781236
63,26,14,Improv_Melody,275,5,42,127,2617783924
63,26,14,Improv_Melody,276,1,38,52,2617807636
63,26,14,Improv_Melody,277,1,38,23,2617930360
63,26,14,Improv_Melody,278,1,38,53,2618202624
63,26,14,Improv_Melody,279,5,42,110,2618277164
63,26,14,Improv_Melody,280,1,38,42,2618302256
63,26,14,Improv_Melody,281,1,38,63,2618310536
63,26,14,Improv_Melody,282,1,38,53,2618376064
63,26,14,Improv_Melody,283,1,38,35,2618431916
63,26,14,Improv_Melody,284,1,38,17,2618533396
63,26,14,Improv_Melody,285,1,38,51,2618589796
63,26,14,Improv_Melody,286,5,42,110,2618776888
63,26,14,Improv_Melody,287,1,38,48,2619051548
63,26,14,Improv_Melody,288,5,42,110,2619276516
63,26,14,Improv_Melody,289,1,38,55,2619304612
63,26,14,Improv_Melody,290,1,38,55,2619376272
63,26,14,Improv_Melody,291,1,38,39,2619420604
63,26,14,Improv_Melody,292,1,38,33,2619512808
63,26,14,Improv_Melody,293,1,38,20,2619573304
63,26,14,Improv_Melody,294,1,38,46,2619767700
63,26,14,Improv_Melody,295,5,42,127,2619777316
63,26,14,Improv_Melody,296,1,38,16,2619889572
63,26,14,Improv_Melody,297,1,38,49,2620158920
63,26,14,Improv_Melody,298,1,38,34,2620266160
63,26,14,Improv_Melody,299,1,38,57,2620277780
63,26,14,Improv_Melody,300,5,42,110,2620280388
63,26,14,Improv_Melody,301,1,38,30,2620353728
63,26,14,Improv_Melody,302,1,38,45,2620537284
63,26,14,Improv_Melody,303,1,38,20,2620652628
63,26,14,Improv_Melody,304,5,42,110,2620776964
63,26,14,Improv_Melody,305,1,38,51,2621004796
63,26,14,Improv_Melody,306,1,38,37,2621108524
63,26,14,Improv_Melody,307,1,38,23,2621198880
63,26,14,Improv_Melody,308,1,38,60,2621257876
63,26,14,Improv_Melody,309,5,42,110,2621276464
63,26,14,Improv_Melody,310,1,38,49,2621343516
63,26,14,Improv_Melody,311,1,38,37,2621467688
63,26,14,Improv_Melody,312,2,41,80,2621780132
63,26,14,Improv_Melody,313,2,65,80,2621782204
63,26,14,Improv_Melody,314,5,42,127,2621784664
63,26,14,Improv_Melody,315,1,38,52,2621786076
63,26,14,Improv_Melody,316,1,38,29,2621884100
63,26,14,Improv_Melody,317,1,38,51,2622226556
63,26,14,Improv_Melody,318,5,42,110,2622276928
63,26,14,Improv_Melody,319,1,38,53,2622333288
63,26,14,Improv_Melody,320,1,38,56,2622397596
63,26,14,Improv_Melody,321,1,38,38,2622436340
63,26,14,Improv_Melody,322,1,38,47,2622598636
63,26,14,Improv_Melody,323,1,38,20,2622731776
63,26,14,Improv_Melody,324,5,42,110,2622776692
63,26,14,Improv_Melody,325,1,38,46,2623091648
63,26,14,Improv_Melody,326,1,38,32,2623184256
63,26,14,Improv_Melody,327,1,38,21,2623278824
63,26,14,Improv_Melody,328,5,42,110,2623280540
63,26,14,Improv_Melody,329,1,38,55,2623302792
63,26,14,Improv_Melody,330,1,38,26,2623362980
63,26,14,Improv_Melody,331,1,38,46,2623570100
63,26,14,Improv_Melody,332,5,42,127,2623777336
63,26,14,Improv_Melody,333,1,38,52,2623832068
63,26,14,Improv_Melody,334,5,42,110,2624276740
63,26,14,Improv_Melody,335,1,38,51,2624280380
63,26,14,Improv_Melody,336,1,38,75,2624291208
63,26,14,Improv_Melody,337,1,38,63,2624763356
63,26,14,Improv_Melody,338,5,42,110,2624776712
63,26,14,Improv_Melody,339,1,38,48,2625014628
63,26,14,Improv_Melody,340,1,38,54,2625271784
63,26,14,Improv_Melody,341,5,42,110,2625277660
63,26,14,Improv_Melody,342,1,38,60,2625287796
63,26,14,Improv_Melody,343,1,38,53,2625516452
63,26,14,Improv_Melody,344,1,38,66,2625534308
63,26,14,Improv_Melody,345,1,38,27,2625674312
63,26,14,Improv_Melody,346,1,48,59,2625759596
63,26,14,Improv_Melody,347,2,48,80,2625779628
63,26,14,Improv_Melody,348,2,72,80,2625782004
63,26,14,Improv_Melody,349,5,42,127,2625784388
63,26,14,Improv_Melody,350,1,48,54,2626185296
63,26,14,Improv_Melody,351,5,42,110,2626276688
63,26,14,Improv_Melody,352,1,38,84,2626283156
63,26,14,Improv_Melody,353,1,38,22,2626381640
63,26,14,Improv_Melody,354,1,48,54,2626529524
63,26,14,Improv_Melody,355,5,42,110,2626776328
63,26,14,Improv_Melody,356,1,48,48,2627068416
63,26,14,Improv_Melody,357,1,48,46,2627211632
63,26,14,Improv_Melody,358,1,38,67,2627261876
63,26,14,Improv_Melody,359,5,42,110,2627277572
63,26,14,Improv_Melody,360,1,48,48,2627499436
63,26,14,Improv_Melody,361,5,42,127,2627776832
63,26,14,Improv_Melody,362,1,48,51,2627780024
63,26,14,Improv_Melody,363,1,48,51,2628194656
63,26,14,Improv_Melody,364,5,42,110,2628276524
63,26,14,Improv_Melody,365,1,38,75,2628282856
63,26,14,Improv_Melody,366,1,48,51,2628531996
63,26,14,Improv_Melody,367,5,42,110,2628777532
63,26,14,Improv_Melody,368,1,38,85,2629236968
63,26,14,Improv_Melody,369,5,42,110,2629277468
63,26,14,Improv_Melody,370,1,38,62,2629495344
63,26,14,Improv_Melody,371,1,38,51,2629549404
63,26,14,Improv_Melody,372,1,48,56,2629779112
63,26,14,Improv_Melody,373,2,43,80,2629780760
63,26,14,Improv_Melody,374,2,67,80,2629782756
63,26,14,Improv_Melody,375,5,42,127,2629785364
63,26,14,Improv_Melody,376,1,48,46,2630220932
63,26,14,Improv_Melody,377,5,42,110,2630276396
63,26,14,Improv_Melody,378,1,38,62,2630301804
63,26,14,Improv_Melody,379,1,38,29,2630381824
63,26,14,Improv_Melody,380,1,48,58,2630562288
63,26,14,Improv_Melody,381,5,42,110,2630777304
63,26,14,Improv_Melody,382,5,42,110,2631277324
63,26,14,Improv_Melody,383,1,38,73,2631283812
63,26,14,Improv_Melody,384,1,48,57,2631516956
63,26,14,Improv_Melody,385,5,42,127,2631776556
63,26,14,Improv_Melody,386,1,48,74,2631782140
63,26,14,Improv_Melody,387,1,38,68,2632249280
63,26,14,Improv_Melody,388,5,42,110,2632277368
63,26,14,Improv_Melody,389,1,48,63,2632489112
63,26,14,Improv_Melody,390,5,42,110,2632777352
63,26,14,Improv_Melody,391,5,42,110,2633276924
63,26,14,Improv_Melody,392,1,38,67,2633351476
63,26,14,Improv_Melody,393,2,45,80,2633779284
63,26,14,Improv_Melody,394,2,69,80,2633781204
63,26,14,Improv_Melody,395,5,42,127,2633783816
63,26,14,Improv_Melody,396,1,48,57,2633827324
63,26,14,Improv_Melody,397,5,42,110,2634277232
63,26,14,Improv_Melody,398,1,38,77,2634318052
63,26,14,Improv_Melody,399,1,48,61,2634518888
63,26,14,Improv_Melody,400,5,42,110,2634777212
63,26,14,Improv_Melody,401,1,38,62,2635269484
63,26,14,Improv_Melody,402,5,42,110,2635276552
63,26,14,Improv_Melody,403,1,48,49,2635603776
63,26,14,Improv_Melody,404,5,42,127,2635777432
63,26,14,Improv_Melody,405,1,38,65,2636245100
63,26,14,Improv_Melody,406,5,42,110,2636277372
63,26,14,Improv_Melody,407,1,48,54,2636495244
63,26,14,Improv_Melody,408,5,42,110,2636777060
63,26,14,Improv_Melody,409,5,42,110,2637276408
63,26,14,Improv_Melody,410,1,38,62,2637306904
63,26,14,Improv_Melody,411,2,41,80,2637779960
63,26,14,Improv_Melody,412,2,65,80,2637781884
63,26,14,Improv_Melody,413,5,42,127,2637784424
63,26,14,Improv_Melody,414,1,48,47,2637808712
63,26,14,Improv_Melody,415,1,48,43,2638061684
63,26,14,Improv_Melody,416,5,42,110,2638277048
63,26,14,Improv_Melody,417,1,38,61,2638301956
63,26,14,Improv_Melody,418,1,48,56,2638543556
63,26,14,Improv_Melody,419,5,42,110,2638776576
63,26,14,Improv_Melody,420,1,38,77,2639251644
63,26,14,Improv_Melody,421,5,42,110,2639277340
63,26,14,Improv_Melody,422,1,48,56,2639747084
63,26,14,Improv_Melody,423,5,42,127,2639777040
63,26,14,Improv_Melody,424,1,48,52,2640012568
63,26,14,Improv_Melody,425,5,42,110,2640276948
63,26,14,Improv_Melody,426,1,48,53,2640503212
63,26,14,Improv_Melody,427,5,42,110,2640776576
63,26,14,Improv_Melody,428,1,48,49,2641024680
63,26,14,Improv_Melody,429,5,42,110,2641277244
63,26,14,Improv_Melody,430,1,48,50,2641348204
63,26,14,Improv_Melody,431,1,48,46,2641761788
63,26,14,Improv_Melody,432,2,48,80,2641779440
63,26,14,Improv_Melody,433,2,72,80,2641781592
63,26,14,Improv_Melody,434,5,42,127,2641784208
63,26,14,Improv_Melody,435,1,48,51,2642124544
63,26,14,Improv_Melody,436,1,48,64,2642236200
63,26,14,Improv_Melody,437,5,42,110,2642276852
63,26,14,Improv_Melody,438,1,48,35,2642323936
63,26,14,Improv_Melody,439,1,48,50,2642513776
63,26,14,Improv_Melody,0,9999,9999,9999,2561774688
63,26,14,Improv_Melody,1,9999,9999,9999,2562274376
63,26,14,Improv_Melody,2,9999,9999,9999,2562774096
63,26,14,Improv_Melody,3,9999,9999,9999,2563274840
63,26,14,Improv_Melody,4,9999,9999,9999,2563774536
63,26,14,Improv_Melody,5,9999,9999,9999,2564274260
63,26,14,Improv_Melody,6,9999,9999,9999,2564775028
63,26,14,Improv_Melody,7,9999,9999,9999,2565274676
63,26,14,Improv_Melody,8,9999,9999,9999,2565774396
63,26,14,Improv_Melody,9,9999,9999,9999,2566274132
63,26,14,Improv_Melody,10,9999,9999,9999,2566774900
63,26,14,Improv_Melody,11,9999,9999,9999,2567274548
63,26,14,Improv_Melody,12,9999,9999,9999,2567774272
63,26,14,Improv_Melody,13,9999,9999,9999,2568275040
63,26,14,Improv_Melody,14,9999,9999,9999,2568774760
63,26,14,Improv_Melody,15,9999,9999,9999,2569274484
63,26,14,Improv_Melody,16,9999,9999,9999,2569774132
63,26,14,Improv_Melody,17,9999,9999,9999,2570274912
63,26,14,Improv_Melody,18,9999,9999,9999,2570774636
63,26,14,Improv_Melody,19,9999,9999,9999,2571274356
63,26,14,Improv_Melody,20,9999,9999,9999,2571775048
63,26,14,Improv_Melody,21,9999,9999,9999,2572274772
63,26,14,Improv_Melody,22,9999,9999,9999,2572774492
63,26,14,Improv_Melody,23,9999,9999,9999,2573274212
63,26,14,Improv_Melody,24,9999,9999,9999,2573774908
63,26,14,Improv_Melody,25,9999,9999,9999,2574274620
63,26,14,Improv_Melody,26,9999,9999,9999,2574774340
63,26,14,Improv_Melody,27,9999,9999,9999,2575275108
63,26,14,Improv_Melody,28,9999,9999,9999,2575774828
63,26,14,Improv_Melody,29,9999,9999,9999,2576274552
63,26,14,Improv_Melody,30,9999,9999,9999,2576774200
63,26,14,Improv_Melody,31,9999,9999,9999,2577274960
63,26,14,Improv_Melody,32,9999,9999,9999,2577774692
63,26,14,Improv_Melody,33,9999,9999,9999,2578274408
63,26,14,Improv_Melody,34,9999,9999,9999,2578774092
63,26,14,Improv_Melody,35,9999,9999,9999,2579274852
63,26,14,Improv_Melody,36,9999,9999,9999,2579774560
63,26,14,Improv_Melody,37,9999,9999,9999,2580274280
63,26,14,Improv_Melody,38,9999,9999,9999,2580775004
63,26,14,Improv_Melody,39,9999,9999,9999,2581274720
63,26,14,Improv_Melody,40,9999,9999,9999,2581774428
63,26,14,Improv_Melody,41,9999,9999,9999,2582274164
63,26,14,Improv_Melody,42,9999,9999,9999,2582774892
63,26,14,Improv_Melody,43,9999,9999,9999,2583274608
63,26,14,Improv_Melody,44,9999,9999,9999,2583774312
63,26,14,Improv_Melody,45,9999,9999,9999,2584275008
63,26,14,Improv_Melody,46,9999,9999,9999,2584774732
63,26,14,Improv_Melody,47,9999,9999,9999,2585274456
63,26,14,Improv_Melody,48,9999,9999,9999,2585774156
63,26,14,Improv_Melody,49,9999,9999,9999,2586274936
63,26,14,Improv_Melody,50,9999,9999,9999,2586774612
63,26,14,Improv_Melody,51,9999,9999,9999,2587274336
63,26,14,Improv_Melody,52,9999,9999,9999,2587775060
63,26,14,Improv_Melody,53,9999,9999,9999,2588274776
63,26,14,Improv_Melody,54,9999,9999,9999,2588774464
63,26,14,Improv_Melody,55,9999,9999,9999,2589274176
63,26,14,Improv_Melody,56,9999,9999,9999,2589774912
63,26,14,Improv_Melody,57,9999,9999,9999,2590274648
63,26,14,Improv_Melody,58,9999,9999,9999,2590774348
63,26,14,Improv_Melody,59,9999,9999,9999,2591275116
63,26,14,Improv_Melody,60,9999,9999,9999,2591774836
63,26,14,Improv_Melody,61,9999,9999,9999,2592274484
63,26,14,Improv_Melody,62,9999,9999,9999,2592774260
63,26,14,Improv_Melody,63,9999,9999,9999,2593274936
63,26,14,Improv_Melody,64,9999,9999,9999,2593774640
63,26,14,Improv_Melody,65,9999,9999,9999,2594274356
63,26,14,Improv_Melody,66,9999,9999,9999,2594774088
63,26,14,Improv_Melody,67,9999,9999,9999,2595274832
63,26,14,Improv_Melody,68,9999,9999,9999,2595774584
63,26,14,Improv_Melody,69,9999,9999,9999,2596274260
63,26,14,Improv_Melody,70,9999,9999,9999,2596774992
63,26,14,Improv_Melody,71,9999,9999,9999,2597274708
63,26,14,Improv_Melody,72,9999,9999,9999,2597774392
63,26,14,Improv_Melody,73,9999,9999,9999,2598274100
63,26,14,Improv_Melody,74,9999,9999,9999,2598774884
63,26,14,Improv_Melody,75,9999,9999,9999,2599274604
63,26,14,Improv_Melody,76,9999,9999,9999,2599774324
63,26,14,Improv_Melody,77,9999,9999,9999,2600275052
63,26,14,Improv_Melody,78,9999,9999,9999,2600774732
63,26,14,Improv_Melody,79,9999,9999,9999,2601274452
63,26,14,Improv_Melody,80,9999,9999,9999,2601774168
63,26,14,Improv_Melody,81,9999,9999,9999,2602274912
63,26,14,Improv_Melody,82,9999,9999,9999,2602774612
63,26,14,Improv_Melody,83,9999,9999,9999,2603274316
63,26,14,Improv_Melody,84,9999,9999,9999,2603775076
63,26,14,Improv_Melody,85,9999,9999,9999,2604274764
63,26,14,Improv_Melody,86,9999,9999,9999,2604774464
63,26,14,Improv_Melody,87,9999,9999,9999,2605274164
63,26,14,Improv_Melody,88,9999,9999,9999,2605774912
63,26,14,Improv_Melody,89,9999,9999,9999,2606274620
63,26,14,Improv_Melody,90,9999,9999,9999,2606774340
63,26,14,Improv_Melody,91,9999,9999,9999,2607275112
63,26,14,Improv_Melody,92,9999,9999,9999,2607774824
63,26,14,Improv_Melody,93,9999,9999,9999,2608274508
63,26,14,Improv_Melody,94,9999,9999,9999,2608774264
63,26,14,Improv_Melody,95,9999,9999,9999,2609274944
63,26,14,Improv_Melody,96,9999,9999,9999,2609774652
63,26,14,Improv_Melody,97,9999,9999,9999,2610274412
63,26,14,Improv_Melody,98,9999,9999,9999,2610774076
63,26,14,Improv_Melody,99,9999,9999,9999,2611274856
63,26,14,Improv_Melody,100,9999,9999,9999,2611774540
63,26,14,Improv_Melody,101,9999,9999,9999,2612274292
63,26,14,Improv_Melody,102,9999,9999,9999,2612775012
63,26,14,Improv_Melody,103,9999,9999,9999,2613274736
63,26,14,Improv_Melody,104,9999,9999,9999,2613774448
63,26,14,Improv_Melody,105,9999,9999,9999,2614274160
63,26,14,Improv_Melody,106,9999,9999,9999,2614774872
63,26,14,Improv_Melody,107,9999,9999,9999,2615274600
63,26,14,Improv_Melody,108,9999,9999,9999,2615774316
63,26,14,Improv_Melody,109,9999,9999,9999,2616275032
63,26,14,Improv_Melody,110,9999,9999,9999,2616774768
63,26,14,Improv_Melody,111,9999,9999,9999,2617274484
63,26,14,Improv_Melody,112,9999,9999,9999,2617774140
63,26,14,Improv_Melody,113,9999,9999,9999,2618274872
63,26,14,Improv_Melody,114,9999,9999,9999,2618774596
63,26,14,Improv_Melody,115,9999,9999,9999,2619274296
63,26,14,Improv_Melody,116,9999,9999,9999,2619775096
63,26,14,Improv_Melody,117,9999,9999,9999,2620274752
63,26,14,Improv_Melody,118,9999,9999,9999,2620774520
63,26,14,Improv_Melody,119,9999,9999,9999,2621274172
63,26,14,Improv_Melody,120,9999,9999,9999,2621774952
63,26,14,Improv_Melody,121,9999,9999,9999,2622274636
63,26,14,Improv_Melody,122,9999,9999,9999,2622774328
63,26,14,Improv_Melody,123,9999,9999,9999,2623275128
63,26,14,Improv_Melody,124,9999,9999,9999,2623774820
63,26,14,Improv_Melody,125,9999,9999,9999,2624274520
63,26,14,Improv_Melody,126,9999,9999,9999,2624774196
63,26,14,Improv_Melody,127,9999,9999,9999,2625274992
63,26,14,Improv_Melody,128,9999,9999,9999,2625774680
63,26,14,Improv_Melody,129,9999,9999,9999,2626274392
63,26,14,Improv_Melody,130,9999,9999,9999,2626774112
63,26,14,Improv_Melody,131,9999,9999,9999,2627274832
63,26,14,Improv_Melody,132,9999,9999,9999,2627774540
63,26,14,Improv_Melody,133,9999,9999,9999,2628274232
63,26,14,Improv_Melody,134,9999,9999,9999,2628775016
63,26,14,Improv_Melody,135,9999,9999,9999,2629274732
63,26,14,Improv_Melody,136,9999,9999,9999,2629774392
63,26,14,Improv_Melody,137,9999,9999,9999,2630274100
63,26,14,Improv_Melody,138,9999,9999,9999,2630774864
63,26,14,Improv_Melody,139,9999,9999,9999,2631274584
63,26,14,Improv_Melody,140,9999,9999,9999,2631774260
63,26,14,Improv_Melody,141,9999,9999,9999,2632275004
63,26,14,Improv_Melody,142,9999,9999,9999,2632774760
63,26,14,Improv_Melody,143,9999,9999,9999,2633274480
63,26,14,Improv_Melody,144,9999,9999,9999,2633774180
63,26,14,Improv_Melody,145,9999,9999,9999,2634274864
63,26,14,Improv_Melody,146,9999,9999,9999,2634774620
63,26,14,Improv_Melody,147,9999,9999,9999,2635274336
63,26,14,Improv_Melody,148,9999,9999,9999,2635775064
63,26,14,Improv_Melody,149,9999,9999,9999,2636274780
63,26,14,Improv_Melody,150,9999,9999,9999,2636774468
63,26,14,Improv_Melody,151,9999,9999,9999,2637274188
63,26,14,Improv_Melody,152,9999,9999,9999,2637774936
63,26,14,Improv_Melody,153,9999,9999,9999,2638274680
63,26,14,Improv_Melody,154,9999,9999,9999,2638774356
63,26,14,Improv_Melody,155,9999,9999,9999,2639275120
63,26,14,Improv_Melody,156,9999,9999,9999,2639774820
63,26,14,Improv_Melody,157,9999,9999,9999,2640274508
63,26,14,Improv_Melody,158,9999,9999,9999,2640774204
63,26,14,Improv_Melody,159,9999,9999,9999,2641274952
63,26,14,Improv_Melody,160,9999,9999,9999,2641774644
63,26,14,Improv_Melody,161,9999,9999,9999,2642274412
