taskRunCount,taskID,taskName,i,channel,pitch,velocity,microseconds
1,1,Ticks_Pract_5,0,5,42,127,60545380
1,1,Ticks_Pract_5,1,5,42,127,61045020
1,1,Ticks_Pract_5,2,5,42,127,61544884
1,1,Ticks_Pract_5,3,5,42,127,62044452
1,1,Ticks_Pract_5,4,5,42,127,62545140
1,1,Ticks_Pract_5,5,5,42,127,63044856
1,1,Ticks_Pract_5,6,5,42,127,63544648
1,1,Ticks_Pract_5,7,1,48,46,63615012
1,1,Ticks_Pract_5,8,1,48,36,64029564
1,1,Ticks_Pract_5,9,5,42,127,64045532
1,1,Ticks_Pract_5,10,5,42,127,64545012
1,1,Ticks_Pract_5,11,1,48,42,64566224
1,1,Ticks_Pract_5,12,5,42,127,65044780
1,1,Ticks_Pract_5,13,1,48,38,65087768
1,1,Ticks_Pract_5,14,5,42,127,65544696
1,1,Ticks_Pract_5,15,1,48,41,65621568
1,1,Ticks_Pract_5,16,5,42,127,66045216
1,1,Ticks_Pract_5,17,1,48,44,66110792
1,1,Ticks_Pract_5,18,5,42,127,66544908
1,1,Ticks_Pract_5,19,1,48,37,66591864
1,1,Ticks_Pract_5,20,5,42,127,67044676
1,1,Ticks_Pract_5,21,1,48,36,67112052
1,1,Ticks_Pract_5,22,5,42,127,67544372
1,1,Ticks_Pract_5,23,1,48,34,67560060
1,1,Ticks_Pract_5,24,1,48,42,68030864
1,1,Ticks_Pract_5,25,5,42,127,68045032
1,1,Ticks_Pract_5,26,1,48,37,68538488
1,1,Ticks_Pract_5,27,5,42,127,68544952
1,1,Ticks_Pract_5,28,1,48,47,69002176
1,1,Ticks_Pract_5,29,5,42,127,69044496
1,1,Ticks_Pract_5,30,1,48,43,69508004
1,1,Ticks_Pract_5,31,5,42,127,69545384
1,1,Ticks_Pract_5,32,1,48,43,70004036
1,1,Ticks_Pract_5,33,5,42,127,70044980
1,1,Ticks_Pract_5,34,1,48,43,70506044
1,1,Ticks_Pract_5,35,5,42,127,70544824
1,1,Ticks_Pract_5,36,1,48,42,71004992
1,1,Ticks_Pract_5,37,5,42,127,71044520
1,1,Ticks_Pract_5,38,5,42,127,71545116
1,1,Ticks_Pract_5,39,1,48,38,71565888
1,1,Ticks_Pract_5,40,1,48,39,71994436
1,1,Ticks_Pract_5,41,5,42,127,72044956
1,1,Ticks_Pract_5,42,1,48,36,72496896
1,1,Ticks_Pract_5,43,5,42,127,72544800
1,1,Ticks_Pract_5,44,1,48,43,72994792
1,1,Ticks_Pract_5,45,5,42,127,73045316
1,1,Ticks_Pract_5,46,1,48,43,73526124
1,1,Ticks_Pract_5,47,5,42,127,73545084
1,1,Ticks_Pract_5,48,1,48,46,74000768
1,1,Ticks_Pract_5,49,5,42,127,74045000
1,1,Ticks_Pract_5,50,1,48,45,74505168
1,1,Ticks_Pract_5,51,5,42,127,74544772
1,1,Ticks_Pract_5,52,1,48,47,75013016
1,1,Ticks_Pract_5,53,5,42,127,75045212
1,1,Ticks_Pract_5,54,5,42,127,75544916
1,1,Ticks_Pract_5,55,1,48,43,75546400
1,1,Ticks_Pract_5,56,5,42,127,76044832
1,1,Ticks_Pract_5,57,1,48,43,76065832
1,1,Ticks_Pract_5,58,1,48,44,76493104
1,1,Ticks_Pract_5,59,5,42,127,76545568
1,1,Ticks_Pract_5,60,1,48,42,77004016
1,1,Ticks_Pract_5,61,5,42,127,77045040
1,1,Ticks_Pract_5,62,5,42,127,77544888
1,1,Ticks_Pract_5,63,1,48,48,77551972
1,1,Ticks_Pract_5,64,5,42,127,78044808
1,1,Ticks_Pract_5,65,1,48,27,78065952
1,1,Ticks_Pract_5,66,1,48,38,78527112
1,1,Ticks_Pract_5,67,5,42,127,78545244
1,1,Ticks_Pract_5,68,1,48,41,79007480
1,1,Ticks_Pract_5,69,5,42,127,79045084
1,1,Ticks_Pract_5,70,1,48,39,79494460
1,1,Ticks_Pract_5,71,5,42,127,79545004
1,1,Ticks_Pract_5,72,1,48,42,79995124
1,1,Ticks_Pract_5,73,5,42,127,80045372
1,1,Ticks_Pract_5,74,1,48,35,80493920
1,1,Ticks_Pract_5,0,9999,9999,9999,9999,60543092
1,1,Ticks_Pract_5,1,9999,9999,9999,9999,61042808
1,1,Ticks_Pract_5,2,9999,9999,9999,9999,61542448
1,1,Ticks_Pract_5,3,9999,9999,9999,9999,62042164
1,1,Ticks_Pract_5,4,9999,9999,9999,9999,62542928
1,1,Ticks_Pract_5,5,9999,9999,9999,9999,63042644
1,1,Ticks_Pract_5,6,9999,9999,9999,9999,63542364
1,1,Ticks_Pract_5,7,9999,9999,9999,9999,64043096
1,1,Ticks_Pract_5,8,9999,9999,9999,9999,64542800
1,1,Ticks_Pract_5,9,9999,9999,9999,9999,65042492
1,1,Ticks_Pract_5,10,9999,9999,9999,9999,65542260
1,1,Ticks_Pract_5,11,9999,9999,9999,9999,66042928
1,1,Ticks_Pract_5,12,9999,9999,9999,9999,66542696
1,1,Ticks_Pract_5,13,9999,9999,9999,9999,67042392
1,1,Ticks_Pract_5,14,9999,9999,9999,9999,67542088
1,1,Ticks_Pract_5,15,9999,9999,9999,9999,68042820
1,1,Ticks_Pract_5,16,9999,9999,9999,9999,68542516
1,1,Ticks_Pract_5,17,9999,9999,9999,9999,69042284
1,1,Ticks_Pract_5,18,9999,9999,9999,9999,69543000
1,1,Ticks_Pract_5,19,9999,9999,9999,9999,70042696
1,1,Ticks_Pract_5,20,9999,9999,9999,9999,70542388
1,1,Ticks_Pract_5,21,9999,9999,9999,9999,71042160
1,1,Ticks_Pract_5,22,9999,9999,9999,9999,71542832
1,1,Ticks_Pract_5,23,9999,9999,9999,9999,72042592
1,1,Ticks_Pract_5,24,9999,9999,9999,9999,72542288
1,1,Ticks_Pract_5,25,9999,9999,9999,9999,73043032
1,1,Ticks_Pract_5,26,9999,9999,9999,9999,73542724
1,1,Ticks_Pract_5,27,9999,9999,9999,9999,74042420
1,1,Ticks_Pract_5,28,9999,9999,9999,9999,74542188
1,1,Ticks_Pract_5,29,9999,9999,9999,9999,75042928
1,1,Ticks_Pract_5,30,9999,9999,9999,9999,75542628
1,1,Ticks_Pract_5,31,9999,9999,9999,9999,76042324
1,1,Ticks_Pract_5,32,9999,9999,9999,9999,76543056
1,1,Ticks_Pract_5,33,9999,9999,9999,9999,77042752
1,1,Ticks_Pract_5,34,9999,9999,9999,9999,77542452
1,1,Ticks_Pract_5,35,9999,9999,9999,9999,78042224
1,1,Ticks_Pract_5,36,9999,9999,9999,9999,78542960
1,1,Ticks_Pract_5,37,9999,9999,9999,9999,79042652
1,1,Ticks_Pract_5,38,9999,9999,9999,9999,79542344
1,1,Ticks_Pract_5,39,9999,9999,9999,9999,80043088
2,0,Ticks_Pract_8,0,5,42,127,138057008
2,0,Ticks_Pract_8,1,5,42,127,138856988
2,0,Ticks_Pract_8,2,5,42,127,139656744
2,0,Ticks_Pract_8,3,5,42,127,140457272
2,0,Ticks_Pract_8,4,1,48,31,140531824
2,0,Ticks_Pract_8,5,5,42,127,141257004
2,0,Ticks_Pract_8,6,1,48,29,141353172
2,0,Ticks_Pract_8,7,5,42,127,142056740
2,0,Ticks_Pract_8,8,1,48,24,142114532
2,0,Ticks_Pract_8,9,5,42,127,142856696
2,0,Ticks_Pract_8,10,1,48,29,142929896
2,0,Ticks_Pract_8,11,5,42,127,143657252
2,0,Ticks_Pract_8,12,1,48,27,143742868
2,0,Ticks_Pract_8,13,5,42,127,144456988
2,0,Ticks_Pract_8,14,1,48,27,144494060
2,0,Ticks_Pract_8,15,5,42,127,145256720
2,0,Ticks_Pract_8,16,1,48,28,145276736
2,0,Ticks_Pract_8,17,1,48,34,146036660
2,0,Ticks_Pract_8,18,5,42,127,146056668
2,0,Ticks_Pract_8,19,5,42,127,146857260
2,0,Ticks_Pract_8,20,1,48,29,146887008
2,0,Ticks_Pract_8,21,5,42,127,147657068
2,0,Ticks_Pract_8,22,1,48,28,147680080
2,0,Ticks_Pract_8,23,5,42,127,148456800
2,0,Ticks_Pract_8,24,1,48,28,148482728
2,0,Ticks_Pract_8,25,5,42,127,149256608
2,0,Ticks_Pract_8,26,1,48,28,149304900
2,0,Ticks_Pract_8,27,5,42,127,150057612
2,0,Ticks_Pract_8,28,1,48,29,150126548
2,0,Ticks_Pract_8,29,5,42,127,150856972
2,0,Ticks_Pract_8,30,1,48,35,150929052
2,0,Ticks_Pract_8,31,5,42,127,151656708
2,0,Ticks_Pract_8,32,1,48,29,151738160
2,0,Ticks_Pract_8,33,5,42,127,152456516
2,0,Ticks_Pract_8,34,1,48,35,152517324
2,0,Ticks_Pract_8,35,5,42,127,153257320
2,0,Ticks_Pract_8,36,1,48,33,153269112
2,0,Ticks_Pract_8,37,1,48,36,154047964
2,0,Ticks_Pract_8,38,5,42,127,154056976
2,0,Ticks_Pract_8,39,5,42,127,154856940
2,0,Ticks_Pract_8,40,1,48,36,154860056
2,0,Ticks_Pract_8,41,5,42,127,155656672
2,0,Ticks_Pract_8,42,1,48,38,155688884
2,0,Ticks_Pract_8,43,5,42,127,156457304
2,0,Ticks_Pract_8,44,1,48,35,156460424
2,0,Ticks_Pract_8,45,1,48,33,157235976
2,0,Ticks_Pract_8,46,5,42,127,157257108
2,0,Ticks_Pract_8,47,1,48,40,157964052
2,0,Ticks_Pract_8,48,5,42,127,158056768
2,0,Ticks_Pract_8,49,1,48,38,158798644
2,0,Ticks_Pract_8,50,5,42,127,158856720
2,0,Ticks_Pract_8,51,1,48,38,159621196
2,0,Ticks_Pract_8,52,5,42,127,159657380
2,0,Ticks_Pract_8,53,1,48,34,160394596
2,0,Ticks_Pract_8,54,5,42,127,160457036
2,0,Ticks_Pract_8,55,1,48,38,161199740
2,0,Ticks_Pract_8,56,5,42,127,161256848
2,0,Ticks_Pract_8,57,1,48,41,161989080
2,0,Ticks_Pract_8,0,9999,9999,9999,9999,138054716
2,0,Ticks_Pract_8,1,9999,9999,9999,9999,138854472
2,0,Ticks_Pract_8,2,9999,9999,9999,9999,139654228
2,0,Ticks_Pract_8,3,9999,9999,9999,9999,140454980
2,0,Ticks_Pract_8,4,9999,9999,9999,9999,141254712
2,0,Ticks_Pract_8,5,9999,9999,9999,9999,142054448
2,0,Ticks_Pract_8,6,9999,9999,9999,9999,142854256
2,0,Ticks_Pract_8,7,9999,9999,9999,9999,143654960
2,0,Ticks_Pract_8,8,9999,9999,9999,9999,144454768
2,0,Ticks_Pract_8,9,9999,9999,9999,9999,145254504
2,0,Ticks_Pract_8,10,9999,9999,9999,9999,146054228
2,0,Ticks_Pract_8,11,9999,9999,9999,9999,146854964
2,0,Ticks_Pract_8,12,9999,9999,9999,9999,147654776
2,0,Ticks_Pract_8,13,9999,9999,9999,9999,148454508
2,0,Ticks_Pract_8,14,9999,9999,9999,9999,149254240
2,0,Ticks_Pract_8,15,9999,9999,9999,9999,150055024
2,0,Ticks_Pract_8,16,9999,9999,9999,9999,150854756
2,0,Ticks_Pract_8,17,9999,9999,9999,9999,151654488
2,0,Ticks_Pract_8,18,9999,9999,9999,9999,152454224
2,0,Ticks_Pract_8,19,9999,9999,9999,9999,153255028
2,0,Ticks_Pract_8,20,9999,9999,9999,9999,154054756
2,0,Ticks_Pract_8,21,9999,9999,9999,9999,154854496
2,0,Ticks_Pract_8,22,9999,9999,9999,9999,155654232
2,0,Ticks_Pract_8,23,9999,9999,9999,9999,156455012
2,0,Ticks_Pract_8,24,9999,9999,9999,9999,157254740
2,0,Ticks_Pract_8,25,9999,9999,9999,9999,158054476
2,0,Ticks_Pract_8,26,9999,9999,9999,9999,158854208
2,0,Ticks_Pract_8,27,9999,9999,9999,9999,159655012
2,0,Ticks_Pract_8,28,9999,9999,9999,9999,160454748
2,0,Ticks_Pract_8,29,9999,9999,9999,9999,161254480
3,4,T1_SMS_5,0,5,42,127,249242180
3,4,T1_SMS_5,1,1,48,28,249648736
3,4,T1_SMS_5,2,5,42,127,249741668
3,4,T1_SMS_5,3,1,48,23,250223524
3,4,T1_SMS_5,4,5,42,127,250242336
3,4,T1_SMS_5,5,1,48,23,250716792
3,4,T1_SMS_5,6,5,42,127,250742328
3,4,T1_SMS_5,7,1,48,27,251229724
3,4,T1_SMS_5,8,5,42,127,251241724
3,4,T1_SMS_5,9,5,42,127,251741500
3,4,T1_SMS_5,10,1,48,24,251750080
3,4,T1_SMS_5,11,5,42,127,252242240
3,4,T1_SMS_5,12,1,48,24,252265632
3,4,T1_SMS_5,13,5,42,127,252742232
3,4,T1_SMS_5,14,1,48,28,252773100
3,4,T1_SMS_5,15,5,42,127,253241780
3,4,T1_SMS_5,16,1,48,22,253256640
3,4,T1_SMS_5,17,5,42,127,253741328
3,4,T1_SMS_5,18,1,48,24,253742292
3,4,T1_SMS_5,19,5,42,127,254242440
3,4,T1_SMS_5,20,1,48,23,254265228
3,4,T1_SMS_5,21,5,42,127,254741836
3,4,T1_SMS_5,22,1,48,21,254768520
3,4,T1_SMS_5,23,5,42,127,255241460
3,4,T1_SMS_5,24,1,48,15,255327752
3,4,T1_SMS_5,25,5,42,127,255742276
3,4,T1_SMS_5,26,1,48,22,255761024
3,4,T1_SMS_5,27,1,48,26,256228392
3,4,T1_SMS_5,28,5,42,127,256242184
3,4,T1_SMS_5,29,1,48,25,256726812
3,4,T1_SMS_5,30,5,42,127,256741804
3,4,T1_SMS_5,31,1,48,26,257209004
3,4,T1_SMS_5,32,5,42,127,257241500
3,4,T1_SMS_5,33,1,48,23,257706676
3,4,T1_SMS_5,34,5,42,127,257742168
3,4,T1_SMS_5,35,1,48,26,258208848
3,4,T1_SMS_5,36,5,42,127,258242012
3,4,T1_SMS_5,37,1,48,28,258688468
3,4,T1_SMS_5,38,5,42,127,258741484
3,4,T1_SMS_5,39,1,48,25,259210076
3,4,T1_SMS_5,40,5,42,127,259242448
3,4,T1_SMS_5,41,1,48,28,259668336
3,4,T1_SMS_5,42,5,42,127,259742044
3,4,T1_SMS_5,43,5,42,127,260241868
3,4,T1_SMS_5,44,1,48,26,260265728
3,4,T1_SMS_5,45,1,48,22,260739296
3,4,T1_SMS_5,46,5,42,127,260741408
3,4,T1_SMS_5,47,5,42,127,261242304
3,4,T1_SMS_5,48,1,48,18,261256424
3,4,T1_SMS_5,49,1,48,21,261728352
3,4,T1_SMS_5,50,5,42,127,261741920
3,4,T1_SMS_5,51,1,48,23,262210536
3,4,T1_SMS_5,52,5,42,127,262241616
3,4,T1_SMS_5,53,1,48,21,262715168
3,4,T1_SMS_5,54,5,42,127,262742504
3,4,T1_SMS_5,55,1,48,23,263202152
3,4,T1_SMS_5,56,5,42,127,263242128
3,4,T1_SMS_5,57,1,48,26,263705580
3,4,T1_SMS_5,58,5,42,127,263741896
3,4,T1_SMS_5,59,5,42,127,264241372
3,4,T1_SMS_5,60,1,48,24,264246132
3,4,T1_SMS_5,61,1,48,26,264706848
3,4,T1_SMS_5,62,5,42,127,264742112
3,4,T1_SMS_5,63,1,48,26,265199736
3,4,T1_SMS_5,64,5,42,127,265241952
3,4,T1_SMS_5,65,1,48,25,265711772
3,4,T1_SMS_5,66,5,42,127,265741796
3,4,T1_SMS_5,67,1,48,29,266214460
3,4,T1_SMS_5,68,5,42,127,266242392
3,4,T1_SMS_5,69,1,48,30,266731056
3,4,T1_SMS_5,70,5,42,127,266742232
3,4,T1_SMS_5,71,5,42,127,267241936
3,4,T1_SMS_5,72,1,48,26,267245424
3,4,T1_SMS_5,73,1,48,22,267701352
3,4,T1_SMS_5,74,5,42,127,267741400
3,4,T1_SMS_5,75,1,48,27,268226776
3,4,T1_SMS_5,76,5,42,127,268242288
3,4,T1_SMS_5,77,1,48,27,268734472
3,4,T1_SMS_5,78,5,42,127,268741984
3,4,T1_SMS_5,79,1,48,23,269214020
3,4,T1_SMS_5,80,5,42,127,269241804
3,4,T1_SMS_5,81,1,48,25,269739992
3,4,T1_SMS_5,82,5,42,127,269741500
3,4,T1_SMS_5,83,5,42,127,270242100
3,4,T1_SMS_5,84,1,48,23,270250900
3,4,T1_SMS_5,85,1,48,20,270729908
3,4,T1_SMS_5,86,5,42,127,270741912
3,4,T1_SMS_5,87,1,48,28,271212472
3,4,T1_SMS_5,88,5,42,127,271241456
3,4,T1_SMS_5,89,1,48,27,271714788
3,4,T1_SMS_5,90,5,42,127,271742272
3,4,T1_SMS_5,91,5,42,127,272242200
3,4,T1_SMS_5,92,1,48,26,272253248
3,4,T1_SMS_5,93,5,42,127,272741820
3,4,T1_SMS_5,94,1,48,32,272746584
3,4,T1_SMS_5,95,1,48,29,273190236
3,4,T1_SMS_5,96,5,42,127,273241580
3,4,T1_SMS_5,97,5,42,127,273742256
3,4,T1_SMS_5,98,1,48,31,273747020
3,4,T1_SMS_5,99,5,42,127,274241876
3,4,T1_SMS_5,100,1,48,29,274260032
3,4,T1_SMS_5,101,5,42,127,274741716
3,4,T1_SMS_5,102,1,48,29,274746328
3,4,T1_SMS_5,103,5,42,127,275242236
3,4,T1_SMS_5,104,1,48,27,275248424
3,4,T1_SMS_5,105,1,48,29,275720352
3,4,T1_SMS_5,106,5,42,127,275742076
3,4,T1_SMS_5,107,1,48,27,276217880
3,4,T1_SMS_5,108,5,42,127,276241844
3,4,T1_SMS_5,109,1,48,29,276731556
3,4,T1_SMS_5,110,5,42,127,276741392
3,4,T1_SMS_5,111,1,48,24,277216212
3,4,T1_SMS_5,112,5,42,127,277242280
3,4,T1_SMS_5,113,1,48,30,277742056
3,4,T1_SMS_5,114,5,42,127,277743392
3,4,T1_SMS_5,115,5,42,127,278241752
3,4,T1_SMS_5,116,1,48,32,278260576
3,4,T1_SMS_5,117,1,48,30,278739388
3,4,T1_SMS_5,118,5,42,127,278742412
3,4,T1_SMS_5,119,5,42,127,279241964
3,4,T1_SMS_5,120,1,48,27,279245984
3,4,T1_SMS_5,121,1,48,30,279717536
3,4,T1_SMS_5,122,5,42,127,279741804
3,4,T1_SMS_5,123,1,48,25,280223360
3,4,T1_SMS_5,124,5,42,127,280241648
3,4,T1_SMS_5,125,1,48,27,280720336
3,4,T1_SMS_5,126,5,42,127,280742312
3,4,T1_SMS_5,127,1,48,27,281238136
3,4,T1_SMS_5,128,5,42,127,281241832
3,4,T1_SMS_5,129,5,42,127,281741832
3,4,T1_SMS_5,130,1,48,28,281761656
3,4,T1_SMS_5,131,1,48,27,282232288
3,4,T1_SMS_5,132,5,42,127,282242496
3,4,T1_SMS_5,133,1,48,27,282728768
3,4,T1_SMS_5,134,5,42,127,282742188
3,4,T1_SMS_5,135,1,48,25,283220460
3,4,T1_SMS_5,136,5,42,127,283241884
3,4,T1_SMS_5,137,1,48,31,283726964
3,4,T1_SMS_5,138,5,42,127,283741804
3,4,T1_SMS_5,139,1,48,35,284221792
3,4,T1_SMS_5,140,5,42,127,284242248
3,4,T1_SMS_5,141,1,48,24,284735472
3,4,T1_SMS_5,142,5,42,127,284741944
3,4,T1_SMS_5,143,1,48,26,285232100
3,4,T1_SMS_5,144,5,42,127,285241860
3,4,T1_SMS_5,145,1,48,29,285717136
3,4,T1_SMS_5,146,5,42,127,285741704
3,4,T1_SMS_5,147,1,48,25,286213688
3,4,T1_SMS_5,148,5,42,127,286242148
3,4,T1_SMS_5,149,1,48,26,286717276
3,4,T1_SMS_5,150,5,42,127,286741920
3,4,T1_SMS_5,151,1,48,30,287232308
3,4,T1_SMS_5,152,5,42,127,287241836
3,4,T1_SMS_5,153,5,42,127,287742436
3,4,T1_SMS_5,154,1,48,28,287750792
3,4,T1_SMS_5,155,1,48,23,288222720
3,4,T1_SMS_5,156,5,42,127,288241976
3,4,T1_SMS_5,157,1,48,23,288734236
3,4,T1_SMS_5,158,5,42,127,288741820
3,4,T1_SMS_5,159,1,48,26,289224952
3,4,T1_SMS_5,160,5,42,127,289241664
3,4,T1_SMS_5,161,1,48,29,289734516
3,4,T1_SMS_5,162,5,42,127,289742328
3,4,T1_SMS_5,163,5,42,127,290242032
3,4,T1_SMS_5,164,1,48,29,290249792
3,4,T1_SMS_5,165,5,42,127,290741800
3,4,T1_SMS_5,166,1,48,29,290757040
3,4,T1_SMS_5,167,1,48,35,291194828
3,4,T1_SMS_5,168,5,42,127,291242236
3,4,T1_SMS_5,169,1,48,31,291716520
3,4,T1_SMS_5,170,5,42,127,291741932
3,4,T1_SMS_5,171,1,48,28,292214940
3,4,T1_SMS_5,172,5,42,127,292241752
3,4,T1_SMS_5,173,1,48,29,292739260
3,4,T1_SMS_5,174,5,42,127,292741596
3,4,T1_SMS_5,175,1,48,35,293220540
3,4,T1_SMS_5,176,5,42,127,293242112
3,4,T1_SMS_5,177,1,48,30,293715816
3,4,T1_SMS_5,178,5,42,127,293741960
3,4,T1_SMS_5,179,5,42,127,294241812
3,4,T1_SMS_5,180,1,48,29,294247996
3,4,T1_SMS_5,181,1,48,29,294717532
3,4,T1_SMS_5,182,5,42,127,294742320
3,4,T1_SMS_5,183,1,48,30,295228068
3,4,T1_SMS_5,184,5,42,127,295242016
3,4,T1_SMS_5,185,5,42,127,295741792
3,4,T1_SMS_5,186,1,48,27,295743580
3,4,T1_SMS_5,187,1,48,36,296222972
3,4,T1_SMS_5,188,5,42,127,296241776
3,4,T1_SMS_5,189,5,42,127,296742152
3,4,T1_SMS_5,190,1,48,35,296743120
3,4,T1_SMS_5,191,5,42,127,297241848
3,4,T1_SMS_5,192,1,48,34,297268152
3,4,T1_SMS_5,193,5,42,127,297741692
3,4,T1_SMS_5,194,1,48,38,297747804
3,4,T1_SMS_5,195,5,42,127,298242508
3,4,T1_SMS_5,196,1,48,33,298256700
3,4,T1_SMS_5,197,1,48,37,298728700
3,4,T1_SMS_5,198,5,42,127,298742120
3,4,T1_SMS_5,199,1,48,36,299229140
3,4,T1_SMS_5,200,5,42,127,299241964
3,4,T1_SMS_5,201,5,42,127,299741668
3,4,T1_SMS_5,202,1,48,31,299747032
3,4,T1_SMS_5,203,1,48,32,300226588
3,4,T1_SMS_5,204,5,42,127,300242328
3,4,T1_SMS_5,205,1,48,30,300734808
3,4,T1_SMS_5,206,5,42,127,300741948
3,4,T1_SMS_5,207,5,42,127,301241652
3,4,T1_SMS_5,208,1,48,36,301243440
3,4,T1_SMS_5,209,1,48,34,301740444
3,4,T1_SMS_5,210,5,42,127,301742008
3,4,T1_SMS_5,211,5,42,127,302242088
3,4,T1_SMS_5,212,1,48,36,302243352
3,4,T1_SMS_5,213,1,48,33,302740852
3,4,T1_SMS_5,214,5,42,127,302742420
3,4,T1_SMS_5,215,5,42,127,303241452
3,4,T1_SMS_5,216,1,48,33,303252576
3,4,T1_SMS_5,217,5,42,127,303742416
3,4,T1_SMS_5,218,1,48,36,303760120
3,4,T1_SMS_5,219,1,48,32,304238552
3,4,T1_SMS_5,220,5,42,127,304241956
3,4,T1_SMS_5,221,5,42,127,304741656
3,4,T1_SMS_5,222,1,48,35,304758540
3,4,T1_SMS_5,223,1,48,32,305237944
3,4,T1_SMS_5,224,5,42,127,305241420
3,4,T1_SMS_5,225,1,48,35,305727244
3,4,T1_SMS_5,226,5,42,127,305742312
3,4,T1_SMS_5,227,5,42,127,306241940
3,4,T1_SMS_5,228,1,48,29,306251564
3,4,T1_SMS_5,229,5,42,127,306741636
3,4,T1_SMS_5,230,1,48,34,306757772
3,4,T1_SMS_5,231,1,48,28,307233284
3,4,T1_SMS_5,232,5,42,127,307242368
3,4,T1_SMS_5,233,5,42,127,307741924
3,4,T1_SMS_5,234,1,48,33,307744664
3,4,T1_SMS_5,235,5,42,127,308241764
3,4,T1_SMS_5,236,1,48,32,308243776
3,4,T1_SMS_5,237,5,42,127,308741388
3,4,T1_SMS_5,238,1,48,36,308744876
3,4,T1_SMS_5,239,1,48,35,309222564
3,4,T1_SMS_5,240,5,42,127,309242492
3,4,T1_SMS_5,241,5,42,127,309741896
3,4,T1_SMS_5,242,1,48,31,309746816
3,4,T1_SMS_5,243,1,48,32,310241816
3,4,T1_SMS_5,244,5,42,127,310243228
3,4,T1_SMS_5,245,5,42,127,310742556
3,4,T1_SMS_5,246,1,48,35,310745676
3,4,T1_SMS_5,247,5,42,127,311242176
3,4,T1_SMS_5,248,1,48,34,311245220
3,4,T1_SMS_5,249,5,42,127,311741800
3,4,T1_SMS_5,250,1,48,32,311776252
3,4,T1_SMS_5,251,1,48,35,312235988
3,4,T1_SMS_5,252,5,42,127,312241564
3,4,T1_SMS_5,253,5,42,127,312742460
3,4,T1_SMS_5,254,1,48,44,312809908
3,4,T1_SMS_5,255,5,42,127,313241904
3,4,T1_SMS_5,256,1,48,36,313301720
3,4,T1_SMS_5,257,5,42,127,313741576
3,4,T1_SMS_5,258,1,48,21,313846516
3,4,T1_SMS_5,0,9999,9999,9999,9999,249239672
3,4,T1_SMS_5,1,9999,9999,9999,9999,249739380
3,4,T1_SMS_5,2,9999,9999,9999,9999,250240052
3,4,T1_SMS_5,3,9999,9999,9999,9999,250739820
3,4,T1_SMS_5,4,9999,9999,9999,9999,251239512
3,4,T1_SMS_5,5,9999,9999,9999,9999,251739216
3,4,T1_SMS_5,6,9999,9999,9999,9999,252239956
3,4,T1_SMS_5,7,9999,9999,9999,9999,252739648
3,4,T1_SMS_5,8,9999,9999,9999,9999,253239416
3,4,T1_SMS_5,9,9999,9999,9999,9999,253739116
3,4,T1_SMS_5,10,9999,9999,9999,9999,254239856
3,4,T1_SMS_5,11,9999,9999,9999,9999,254739552
3,4,T1_SMS_5,12,9999,9999,9999,9999,255239248
3,4,T1_SMS_5,13,9999,9999,9999,9999,255739988
3,4,T1_SMS_5,14,9999,9999,9999,9999,256239676
3,4,T1_SMS_5,15,9999,9999,9999,9999,256739444
3,4,T1_SMS_5,16,9999,9999,9999,9999,257239140
3,4,T1_SMS_5,17,9999,9999,9999,9999,257739880
3,4,T1_SMS_5,18,9999,9999,9999,9999,258239576
3,4,T1_SMS_5,19,9999,9999,9999,9999,258739272
3,4,T1_SMS_5,20,9999,9999,9999,9999,259240012
3,4,T1_SMS_5,21,9999,9999,9999,9999,259739756
3,4,T1_SMS_5,22,9999,9999,9999,9999,260239432
3,4,T1_SMS_5,23,9999,9999,9999,9999,260739168
3,4,T1_SMS_5,24,9999,9999,9999,9999,261239872
3,4,T1_SMS_5,25,9999,9999,9999,9999,261739632
3,4,T1_SMS_5,26,9999,9999,9999,9999,262239328
3,4,T1_SMS_5,27,9999,9999,9999,9999,262740068
3,4,T1_SMS_5,28,9999,9999,9999,9999,263239764
3,4,T1_SMS_5,29,9999,9999,9999,9999,263739460
3,4,T1_SMS_5,30,9999,9999,9999,9999,264239160
3,4,T1_SMS_5,31,9999,9999,9999,9999,264739900
3,4,T1_SMS_5,32,9999,9999,9999,9999,265239668
3,4,T1_SMS_5,33,9999,9999,9999,9999,265739364
3,4,T1_SMS_5,34,9999,9999,9999,9999,266240104
3,4,T1_SMS_5,35,9999,9999,9999,9999,266739800
3,4,T1_SMS_5,36,9999,9999,9999,9999,267239500
3,4,T1_SMS_5,37,9999,9999,9999,9999,267739188
3,4,T1_SMS_5,38,9999,9999,9999,9999,268239928
3,4,T1_SMS_5,39,9999,9999,9999,9999,268739700
3,4,T1_SMS_5,40,9999,9999,9999,9999,269239368
3,4,T1_SMS_5,41,9999,9999,9999,9999,269739072
3,4,T1_SMS_5,42,9999,9999,9999,9999,270239812
3,4,T1_SMS_5,43,9999,9999,9999,9999,270739548
3,4,T1_SMS_5,44,9999,9999,9999,9999,271239244
3,4,T1_SMS_5,45,9999,9999,9999,9999,271739988
3,4,T1_SMS_5,46,9999,9999,9999,9999,272239688
3,4,T1_SMS_5,47,9999,9999,9999,9999,272739384
3,4,T1_SMS_5,48,9999,9999,9999,9999,273239144
3,4,T1_SMS_5,49,9999,9999,9999,9999,273739896
3,4,T1_SMS_5,50,9999,9999,9999,9999,274239588
3,4,T1_SMS_5,51,9999,9999,9999,9999,274739284
3,4,T1_SMS_5,52,9999,9999,9999,9999,275240024
3,4,T1_SMS_5,53,9999,9999,9999,9999,275739716
3,4,T1_SMS_5,54,9999,9999,9999,9999,276239408
3,4,T1_SMS_5,55,9999,9999,9999,9999,276739180
3,4,T1_SMS_5,56,9999,9999,9999,9999,277239920
3,4,T1_SMS_5,57,9999,9999,9999,9999,277739620
3,4,T1_SMS_5,58,9999,9999,9999,9999,278239316
3,4,T1_SMS_5,59,9999,9999,9999,9999,278740052
3,4,T1_SMS_5,60,9999,9999,9999,9999,279239752
3,4,T1_SMS_5,61,9999,9999,9999,9999,279739444
3,4,T1_SMS_5,62,9999,9999,9999,9999,280239212
3,4,T1_SMS_5,63,9999,9999,9999,9999,280739952
3,4,T1_SMS_5,64,9999,9999,9999,9999,281239620
3,4,T1_SMS_5,65,9999,9999,9999,9999,281739324
3,4,T1_SMS_5,66,9999,9999,9999,9999,282240060
3,4,T1_SMS_5,67,9999,9999,9999,9999,282739828
3,4,T1_SMS_5,68,9999,9999,9999,9999,283239524
3,4,T1_SMS_5,69,9999,9999,9999,9999,283739220
3,4,T1_SMS_5,70,9999,9999,9999,9999,284239960
3,4,T1_SMS_5,71,9999,9999,9999,9999,284739656
3,4,T1_SMS_5,72,9999,9999,9999,9999,285239348
3,4,T1_SMS_5,73,9999,9999,9999,9999,285739120
3,4,T1_SMS_5,74,9999,9999,9999,9999,286239860
3,4,T1_SMS_5,75,9999,9999,9999,9999,286739556
3,4,T1_SMS_5,76,9999,9999,9999,9999,287239252
3,4,T1_SMS_5,77,9999,9999,9999,9999,287740000
3,4,T1_SMS_5,78,9999,9999,9999,9999,288239688
3,4,T1_SMS_5,79,9999,9999,9999,9999,288739384
3,4,T1_SMS_5,80,9999,9999,9999,9999,289239152
3,4,T1_SMS_5,81,9999,9999,9999,9999,289739896
3,4,T1_SMS_5,82,9999,9999,9999,9999,290239596
3,4,T1_SMS_5,83,9999,9999,9999,9999,290739292
3,4,T1_SMS_5,84,9999,9999,9999,9999,291240024
3,4,T1_SMS_5,85,9999,9999,9999,9999,291739696
3,4,T1_SMS_5,86,9999,9999,9999,9999,292239464
3,4,T1_SMS_5,87,9999,9999,9999,9999,292739124
3,4,T1_SMS_5,88,9999,9999,9999,9999,293239900
3,4,T1_SMS_5,89,9999,9999,9999,9999,293739596
3,4,T1_SMS_5,90,9999,9999,9999,9999,294239300
3,4,T1_SMS_5,91,9999,9999,9999,9999,294740032
3,4,T1_SMS_5,92,9999,9999,9999,9999,295239728
3,4,T1_SMS_5,93,9999,9999,9999,9999,295739504
3,4,T1_SMS_5,94,9999,9999,9999,9999,296239192
3,4,T1_SMS_5,95,9999,9999,9999,9999,296739940
3,4,T1_SMS_5,96,9999,9999,9999,9999,297239636
3,4,T1_SMS_5,97,9999,9999,9999,9999,297739332
3,4,T1_SMS_5,98,9999,9999,9999,9999,298240072
3,4,T1_SMS_5,99,9999,9999,9999,9999,298739760
3,4,T1_SMS_5,100,9999,9999,9999,9999,299239532
3,4,T1_SMS_5,101,9999,9999,9999,9999,299739232
3,4,T1_SMS_5,102,9999,9999,9999,9999,300239964
3,4,T1_SMS_5,103,9999,9999,9999,9999,300739660
3,4,T1_SMS_5,104,9999,9999,9999,9999,301239364
3,4,T1_SMS_5,105,9999,9999,9999,9999,301739060
3,4,T1_SMS_5,106,9999,9999,9999,9999,302239800
3,4,T1_SMS_5,107,9999,9999,9999,9999,302739544
3,4,T1_SMS_5,108,9999,9999,9999,9999,303239240
3,4,T1_SMS_5,109,9999,9999,9999,9999,303739980
3,4,T1_SMS_5,110,9999,9999,9999,9999,304239668
3,4,T1_SMS_5,111,9999,9999,9999,9999,304739444
3,4,T1_SMS_5,112,9999,9999,9999,9999,305239136
3,4,T1_SMS_5,113,9999,9999,9999,9999,305739876
3,4,T1_SMS_5,114,9999,9999,9999,9999,306239580
3,4,T1_SMS_5,115,9999,9999,9999,9999,306739272
3,4,T1_SMS_5,116,9999,9999,9999,9999,307240008
3,4,T1_SMS_5,117,9999,9999,9999,9999,307739708
3,4,T1_SMS_5,118,9999,9999,9999,9999,308239480
3,4,T1_SMS_5,119,9999,9999,9999,9999,308739176
3,4,T1_SMS_5,120,9999,9999,9999,9999,309239908
3,4,T1_SMS_5,121,9999,9999,9999,9999,309739612
3,4,T1_SMS_5,122,9999,9999,9999,9999,310239308
3,4,T1_SMS_5,123,9999,9999,9999,9999,310740048
3,4,T1_SMS_5,124,9999,9999,9999,9999,311239740
3,4,T1_SMS_5,125,9999,9999,9999,9999,311739512
3,4,T1_SMS_5,126,9999,9999,9999,9999,312239200
3,4,T1_SMS_5,127,9999,9999,9999,9999,312739952
3,4,T1_SMS_5,128,9999,9999,9999,9999,313239620
3,4,T1_SMS_5,129,9999,9999,9999,9999,313739364
4,2,T1_SMS_8,0,5,42,127,368600604
4,2,T1_SMS_8,1,1,48,30,369098116
4,2,T1_SMS_8,2,5,42,127,369400264
4,2,T1_SMS_8,3,5,42,127,370199872
4,2,T1_SMS_8,4,1,48,27,370295288
4,2,T1_SMS_8,5,5,42,127,370999604
4,2,T1_SMS_8,6,1,48,26,371030696
4,2,T1_SMS_8,7,5,42,127,371800608
4,2,T1_SMS_8,8,1,48,22,371834540
4,2,T1_SMS_8,9,5,42,127,372600188
4,2,T1_SMS_8,10,1,48,28,372647912
4,2,T1_SMS_8,11,5,42,127,373399996
4,2,T1_SMS_8,12,1,48,23,373488632
4,2,T1_SMS_8,13,5,42,127,374199532
4,2,T1_SMS_8,14,1,48,20,374303328
4,2,T1_SMS_8,15,5,42,127,375000612
4,2,T1_SMS_8,16,1,48,29,375051308
4,2,T1_SMS_8,17,5,42,127,375800200
4,2,T1_SMS_8,18,1,48,26,375835624
4,2,T1_SMS_8,19,5,42,127,376599932
4,2,T1_SMS_8,20,1,48,24,376690336
4,2,T1_SMS_8,21,5,42,127,377399588
4,2,T1_SMS_8,22,1,48,23,377453044
4,2,T1_SMS_8,23,5,42,127,378200444
4,2,T1_SMS_8,24,1,48,23,378271500
4,2,T1_SMS_8,25,5,42,127,379000472
4,2,T1_SMS_8,26,1,48,21,379103328
4,2,T1_SMS_8,27,5,42,127,379799912
4,2,T1_SMS_8,28,1,48,26,379889072
4,2,T1_SMS_8,29,5,42,127,380599592
4,2,T1_SMS_8,30,1,48,22,380622908
4,2,T1_SMS_8,31,5,42,127,381400376
4,2,T1_SMS_8,32,1,48,31,381409776
4,2,T1_SMS_8,33,1,48,29,382180096
4,2,T1_SMS_8,34,5,42,127,382200028
4,2,T1_SMS_8,35,1,48,22,382990152
4,2,T1_SMS_8,36,5,42,127,382999836
4,2,T1_SMS_8,37,5,42,127,383799576
4,2,T1_SMS_8,38,1,48,19,383813388
4,2,T1_SMS_8,39,5,42,127,384600432
4,2,T1_SMS_8,40,1,48,25,384617312
4,2,T1_SMS_8,41,5,42,127,385400312
4,2,T1_SMS_8,42,1,48,25,385430808
4,2,T1_SMS_8,43,5,42,127,386199972
4,2,T1_SMS_8,44,1,48,27,386239216
4,2,T1_SMS_8,45,5,42,127,386999780
4,2,T1_SMS_8,46,1,48,29,387054808
4,2,T1_SMS_8,47,5,42,127,387800412
4,2,T1_SMS_8,48,1,48,27,387831132
4,2,T1_SMS_8,49,5,42,127,388600368
4,2,T1_SMS_8,50,1,48,27,388601256
4,2,T1_SMS_8,51,5,42,127,389399880
4,2,T1_SMS_8,52,1,48,31,389410404
4,2,T1_SMS_8,53,5,42,127,390199612
4,2,T1_SMS_8,54,1,48,35,390205944
4,2,T1_SMS_8,55,5,42,127,391000392
4,2,T1_SMS_8,56,1,48,27,391013232
4,2,T1_SMS_8,57,5,42,127,391800128
4,2,T1_SMS_8,58,1,48,35,391881736
4,2,T1_SMS_8,59,5,42,127,392599860
4,2,T1_SMS_8,60,1,48,24,392660052
4,2,T1_SMS_8,61,1,48,27,393370380
4,2,T1_SMS_8,62,5,42,127,393399664
4,2,T1_SMS_8,63,1,48,32,394126252
4,2,T1_SMS_8,64,5,42,127,394200516
4,2,T1_SMS_8,65,1,48,26,394907468
4,2,T1_SMS_8,66,5,42,127,395000248
4,2,T1_SMS_8,67,1,48,27,395678856
4,2,T1_SMS_8,68,5,42,127,395800044
4,2,T1_SMS_8,69,1,48,21,396524284
4,2,T1_SMS_8,70,5,42,127,396599640
4,2,T1_SMS_8,71,1,48,27,397365384
4,2,T1_SMS_8,72,5,42,127,397400496
4,2,T1_SMS_8,73,1,48,24,398177536
4,2,T1_SMS_8,74,5,42,127,398200304
4,2,T1_SMS_8,75,1,48,22,398990204
4,2,T1_SMS_8,76,5,42,127,398999892
4,2,T1_SMS_8,77,5,42,127,399799632
4,2,T1_SMS_8,78,1,48,24,399805664
4,2,T1_SMS_8,79,5,42,127,400600484
4,2,T1_SMS_8,80,1,48,22,400609364
4,2,T1_SMS_8,81,1,48,27,401394192
4,2,T1_SMS_8,82,5,42,127,401400360
4,2,T1_SMS_8,83,1,48,28,402195196
4,2,T1_SMS_8,84,5,42,127,402200096
4,2,T1_SMS_8,85,5,42,127,402999760
4,2,T1_SMS_8,86,1,48,27,403032944
4,2,T1_SMS_8,87,1,48,31,403789804
4,2,T1_SMS_8,88,5,42,127,403800608
4,2,T1_SMS_8,89,5,42,127,404600424
4,2,T1_SMS_8,90,1,48,30,404605116
4,2,T1_SMS_8,91,1,48,30,405338564
4,2,T1_SMS_8,92,5,42,127,405400100
4,2,T1_SMS_8,93,1,48,29,406141656
4,2,T1_SMS_8,94,5,42,127,406199688
4,2,T1_SMS_8,95,1,48,28,406948080
4,2,T1_SMS_8,96,5,42,127,407000468
4,2,T1_SMS_8,97,1,48,32,407765088
4,2,T1_SMS_8,98,5,42,127,407800276
4,2,T1_SMS_8,99,1,48,31,408565640
4,2,T1_SMS_8,100,5,42,127,408599860
4,2,T1_SMS_8,101,1,48,31,409362008
4,2,T1_SMS_8,102,5,42,127,409399592
4,2,T1_SMS_8,103,1,48,29,410176552
4,2,T1_SMS_8,104,5,42,127,410200300
4,2,T1_SMS_8,105,5,42,127,411000412
4,2,T1_SMS_8,106,1,48,26,411019240
4,2,T1_SMS_8,107,5,42,127,411800172
4,2,T1_SMS_8,108,1,48,34,411809500
4,2,T1_SMS_8,109,1,48,30,412596948
4,2,T1_SMS_8,110,5,42,127,412599600
4,2,T1_SMS_8,111,1,48,30,413393092
4,2,T1_SMS_8,112,5,42,127,413400528
4,2,T1_SMS_8,113,5,42,127,414200120
4,2,T1_SMS_8,114,1,48,34,414216100
4,2,T1_SMS_8,115,5,42,127,415000152
4,2,T1_SMS_8,116,1,48,30,415060340
4,2,T1_SMS_8,117,5,42,127,415799588
4,2,T1_SMS_8,118,1,48,36,415844664
4,2,T1_SMS_8,119,5,42,127,416600292
4,2,T1_SMS_8,120,1,48,37,416618596
4,2,T1_SMS_8,121,5,42,127,417400100
4,2,T1_SMS_8,122,1,48,40,417425508
4,2,T1_SMS_8,123,5,42,127,418200008
4,2,T1_SMS_8,124,1,48,45,418223396
4,2,T1_SMS_8,125,5,42,127,418999592
4,2,T1_SMS_8,126,1,48,36,419155520
4,2,T1_SMS_8,127,5,42,127,419800448
4,2,T1_SMS_8,128,1,48,43,420130680
4,2,T1_SMS_8,129,5,42,127,420600108
4,2,T1_SMS_8,130,1,48,38,421298624
4,2,T1_SMS_8,131,5,42,127,421399916
4,2,T1_SMS_8,132,1,48,32,422053848
4,2,T1_SMS_8,133,5,42,127,422199724
4,2,T1_SMS_8,134,1,48,29,422820524
4,2,T1_SMS_8,135,5,42,127,423000356
4,2,T1_SMS_8,136,1,48,31,423740156
4,2,T1_SMS_8,137,5,42,127,423800256
4,2,T1_SMS_8,138,1,48,27,424567344
4,2,T1_SMS_8,139,5,42,127,424600012
4,2,T1_SMS_8,140,1,48,28,425399828
4,2,T1_SMS_8,141,5,42,127,425401164
4,2,T1_SMS_8,142,5,42,127,426200456
4,2,T1_SMS_8,143,1,48,25,426229532
4,2,T1_SMS_8,144,5,42,127,427000044
4,2,T1_SMS_8,145,1,48,28,427037944
4,2,T1_SMS_8,146,1,48,27,427788892
4,2,T1_SMS_8,147,5,42,127,427799844
4,2,T1_SMS_8,148,1,48,25,428563116
4,2,T1_SMS_8,149,5,42,127,428599576
4,2,T1_SMS_8,150,1,48,28,429357764
4,2,T1_SMS_8,151,5,42,127,429400432
4,2,T1_SMS_8,152,1,48,34,430150240
4,2,T1_SMS_8,153,5,42,127,430200092
4,2,T1_SMS_8,154,1,48,26,430952440
4,2,T1_SMS_8,155,5,42,127,430999996
4,2,T1_SMS_8,156,1,48,27,431749636
4,2,T1_SMS_8,157,5,42,127,431799804
4,2,T1_SMS_8,158,1,48,25,432548644
4,2,T1_SMS_8,159,5,42,127,432600512
4,2,T1_SMS_8,160,1,48,27,433322792
4,2,T1_SMS_8,161,5,42,127,433400244
4,2,T1_SMS_8,162,1,48,24,434102784
4,2,T1_SMS_8,163,5,42,127,434200052
4,2,T1_SMS_8,164,1,48,26,434937076
4,2,T1_SMS_8,165,5,42,127,434999712
4,2,T1_SMS_8,166,1,48,30,435700232
4,2,T1_SMS_8,167,5,42,127,435800552
4,2,T1_SMS_8,168,1,48,31,436501684
4,2,T1_SMS_8,169,5,42,127,436600136
4,2,T1_SMS_8,170,1,48,27,437299700
4,2,T1_SMS_8,171,5,42,127,437399944
4,2,T1_SMS_8,172,1,48,31,438085488
4,2,T1_SMS_8,173,5,42,127,438199828
4,2,T1_SMS_8,174,1,48,27,438889116
4,2,T1_SMS_8,175,5,42,127,439000384
4,2,T1_SMS_8,176,1,48,23,439706904
4,2,T1_SMS_8,177,5,42,127,439800208
4,2,T1_SMS_8,178,1,48,20,440543732
4,2,T1_SMS_8,179,5,42,127,440600016
4,2,T1_SMS_8,180,1,48,21,441376228
4,2,T1_SMS_8,181,5,42,127,441399824
4,2,T1_SMS_8,182,1,48,29,442160776
4,2,T1_SMS_8,183,5,42,127,442200304
4,2,T1_SMS_8,184,1,48,27,442981680
4,2,T1_SMS_8,185,5,42,127,443000036
4,2,T1_SMS_8,186,1,48,27,443763604
4,2,T1_SMS_8,187,5,42,127,443799944
4,2,T1_SMS_8,188,1,48,21,444582664
4,2,T1_SMS_8,189,5,42,127,444599900
4,2,T1_SMS_8,190,1,48,27,445370884
4,2,T1_SMS_8,191,5,42,127,445400536
4,2,T1_SMS_8,192,1,48,28,446171440
4,2,T1_SMS_8,193,5,42,127,446200192
4,2,T1_SMS_8,194,1,48,29,446955612
4,2,T1_SMS_8,195,5,42,127,446999928
4,2,T1_SMS_8,196,1,48,27,447767536
4,2,T1_SMS_8,197,5,42,127,447799808
4,2,T1_SMS_8,198,1,48,31,448542512
4,2,T1_SMS_8,199,5,42,127,448600516
4,2,T1_SMS_8,200,1,48,32,449347556
4,2,T1_SMS_8,201,5,42,127,449400100
4,2,T1_SMS_8,202,1,48,30,450163968
4,2,T1_SMS_8,203,5,42,127,450199856
4,2,T1_SMS_8,204,5,42,127,450999596
4,2,T1_SMS_8,205,1,48,33,451012140
4,2,T1_SMS_8,206,1,48,27,451790240
4,2,T1_SMS_8,207,5,42,127,451800520
4,2,T1_SMS_8,208,1,48,26,452581600
4,2,T1_SMS_8,209,5,42,127,452600104
4,2,T1_SMS_8,210,1,48,24,453395164
4,2,T1_SMS_8,211,5,42,127,453399988
4,2,T1_SMS_8,212,5,42,127,454199728
4,2,T1_SMS_8,213,1,48,27,454245484
4,2,T1_SMS_8,214,5,42,127,455000584
4,2,T1_SMS_8,215,1,48,32,455050676
4,2,T1_SMS_8,216,1,48,29,455776792
4,2,T1_SMS_8,217,5,42,127,455800164
4,2,T1_SMS_8,218,1,48,27,456567400
4,2,T1_SMS_8,219,5,42,127,456599920
4,2,T1_SMS_8,220,1,48,28,457359880
4,2,T1_SMS_8,221,5,42,127,457399580
4,2,T1_SMS_8,222,1,48,30,458156568
4,2,T1_SMS_8,223,5,42,127,458200804
4,2,T1_SMS_8,224,1,48,32,458936560
4,2,T1_SMS_8,225,5,42,127,459000244
4,2,T1_SMS_8,226,1,48,31,459746688
4,2,T1_SMS_8,227,5,42,127,459800052
4,2,T1_SMS_8,228,1,48,29,460558688
4,2,T1_SMS_8,229,5,42,127,460599636
4,2,T1_SMS_8,230,1,48,27,461361488
4,2,T1_SMS_8,231,5,42,127,461400640
4,2,T1_SMS_8,232,1,48,31,462158980
4,2,T1_SMS_8,233,5,42,127,462200076
4,2,T1_SMS_8,234,1,48,28,462931184
4,2,T1_SMS_8,235,5,42,127,462999980
4,2,T1_SMS_8,236,1,48,29,463718200
4,2,T1_SMS_8,237,5,42,127,463799716
4,2,T1_SMS_8,238,1,48,24,464535532
4,2,T1_SMS_8,0,9999,9999,9999,9999,368598092
4,2,T1_SMS_8,1,9999,9999,9999,9999,369397828
4,2,T1_SMS_8,2,9999,9999,9999,9999,370197584
4,2,T1_SMS_8,3,9999,9999,9999,9999,370997316
4,2,T1_SMS_8,4,9999,9999,9999,9999,371798096
4,2,T1_SMS_8,5,9999,9999,9999,9999,372597828
4,2,T1_SMS_8,6,9999,9999,9999,9999,373397560
4,2,T1_SMS_8,7,9999,9999,9999,9999,374197320
4,2,T1_SMS_8,8,9999,9999,9999,9999,374998100
4,2,T1_SMS_8,9,9999,9999,9999,9999,375797836
4,2,T1_SMS_8,10,9999,9999,9999,9999,376597568
4,2,T1_SMS_8,11,9999,9999,9999,9999,377397300
4,2,T1_SMS_8,12,9999,9999,9999,9999,378198080
4,2,T1_SMS_8,13,9999,9999,9999,9999,378997812
4,2,T1_SMS_8,14,9999,9999,9999,9999,379797624
4,2,T1_SMS_8,15,9999,9999,9999,9999,380597304
4,2,T1_SMS_8,16,9999,9999,9999,9999,381398088
4,2,T1_SMS_8,17,9999,9999,9999,9999,382197812
4,2,T1_SMS_8,18,9999,9999,9999,9999,382997624
4,2,T1_SMS_8,19,9999,9999,9999,9999,383797364
4,2,T1_SMS_8,20,9999,9999,9999,9999,384598068
4,2,T1_SMS_8,21,9999,9999,9999,9999,385397876
4,2,T1_SMS_8,22,9999,9999,9999,9999,386197608
4,2,T1_SMS_8,23,9999,9999,9999,9999,386997344
4,2,T1_SMS_8,24,9999,9999,9999,9999,387798124
4,2,T1_SMS_8,25,9999,9999,9999,9999,388597856
4,2,T1_SMS_8,26,9999,9999,9999,9999,389397592
4,2,T1_SMS_8,27,9999,9999,9999,9999,390197324
4,2,T1_SMS_8,28,9999,9999,9999,9999,390998104
4,2,T1_SMS_8,29,9999,9999,9999,9999,391797840
4,2,T1_SMS_8,30,9999,9999,9999,9999,392597572
4,2,T1_SMS_8,31,9999,9999,9999,9999,393397300
4,2,T1_SMS_8,32,9999,9999,9999,9999,394198080
4,2,T1_SMS_8,33,9999,9999,9999,9999,394997812
4,2,T1_SMS_8,34,9999,9999,9999,9999,395797604
4,2,T1_SMS_8,35,9999,9999,9999,9999,396597352
4,2,T1_SMS_8,36,9999,9999,9999,9999,397398136
4,2,T1_SMS_8,37,9999,9999,9999,9999,398197868
4,2,T1_SMS_8,38,9999,9999,9999,9999,398997604
4,2,T1_SMS_8,39,9999,9999,9999,9999,399797344
4,2,T1_SMS_8,40,9999,9999,9999,9999,400598120
4,2,T1_SMS_8,41,9999,9999,9999,9999,401397852
4,2,T1_SMS_8,42,9999,9999,9999,9999,402197584
4,2,T1_SMS_8,43,9999,9999,9999,9999,402997324
4,2,T1_SMS_8,44,9999,9999,9999,9999,403798100
4,2,T1_SMS_8,45,9999,9999,9999,9999,404597836
4,2,T1_SMS_8,46,9999,9999,9999,9999,405397568
4,2,T1_SMS_8,47,9999,9999,9999,9999,406197324
4,2,T1_SMS_8,48,9999,9999,9999,9999,406998108
4,2,T1_SMS_8,49,9999,9999,9999,9999,407797840
4,2,T1_SMS_8,50,9999,9999,9999,9999,408597572
4,2,T1_SMS_8,51,9999,9999,9999,9999,409397308
4,2,T1_SMS_8,52,9999,9999,9999,9999,410198084
4,2,T1_SMS_8,53,9999,9999,9999,9999,410997828
4,2,T1_SMS_8,54,9999,9999,9999,9999,411797560
4,2,T1_SMS_8,55,9999,9999,9999,9999,412597312
4,2,T1_SMS_8,56,9999,9999,9999,9999,413398092
4,2,T1_SMS_8,57,9999,9999,9999,9999,414197832
4,2,T1_SMS_8,58,9999,9999,9999,9999,414997564
4,2,T1_SMS_8,59,9999,9999,9999,9999,415797300
4,2,T1_SMS_8,60,9999,9999,9999,9999,416598076
4,2,T1_SMS_8,61,9999,9999,9999,9999,417397812
4,2,T1_SMS_8,62,9999,9999,9999,9999,418197620
4,2,T1_SMS_8,63,9999,9999,9999,9999,418997304
4,2,T1_SMS_8,64,9999,9999,9999,9999,419798084
4,2,T1_SMS_8,65,9999,9999,9999,9999,420597820
4,2,T1_SMS_8,66,9999,9999,9999,9999,421397556
4,2,T1_SMS_8,67,9999,9999,9999,9999,422197364
4,2,T1_SMS_8,68,9999,9999,9999,9999,422998068
4,2,T1_SMS_8,69,9999,9999,9999,9999,423797820
4,2,T1_SMS_8,70,9999,9999,9999,9999,424597552
4,2,T1_SMS_8,71,9999,9999,9999,9999,425397316
4,2,T1_SMS_8,72,9999,9999,9999,9999,426198096
4,2,T1_SMS_8,73,9999,9999,9999,9999,426997828
4,2,T1_SMS_8,74,9999,9999,9999,9999,427797556
4,2,T1_SMS_8,75,9999,9999,9999,9999,428597364
4,2,T1_SMS_8,76,9999,9999,9999,9999,429398072
4,2,T1_SMS_8,77,9999,9999,9999,9999,430197876
4,2,T1_SMS_8,78,9999,9999,9999,9999,430997612
4,2,T1_SMS_8,79,9999,9999,9999,9999,431797296
4,2,T1_SMS_8,80,9999,9999,9999,9999,432598076
4,2,T1_SMS_8,81,9999,9999,9999,9999,433397808
4,2,T1_SMS_8,82,9999,9999,9999,9999,434197616
4,2,T1_SMS_8,83,9999,9999,9999,9999,434997352
4,2,T1_SMS_8,84,9999,9999,9999,9999,435798116
4,2,T1_SMS_8,85,9999,9999,9999,9999,436597848
4,2,T1_SMS_8,86,9999,9999,9999,9999,437397616
4,2,T1_SMS_8,87,9999,9999,9999,9999,438197316
4,2,T1_SMS_8,88,9999,9999,9999,9999,438998096
4,2,T1_SMS_8,89,9999,9999,9999,9999,439797844
4,2,T1_SMS_8,90,9999,9999,9999,9999,440597580
4,2,T1_SMS_8,91,9999,9999,9999,9999,441397312
4,2,T1_SMS_8,92,9999,9999,9999,9999,442198092
4,2,T1_SMS_8,93,9999,9999,9999,9999,442997824
4,2,T1_SMS_8,94,9999,9999,9999,9999,443797584
4,2,T1_SMS_8,95,9999,9999,9999,9999,444597316
4,2,T1_SMS_8,96,9999,9999,9999,9999,445398100
4,2,T1_SMS_8,97,9999,9999,9999,9999,446197832
4,2,T1_SMS_8,98,9999,9999,9999,9999,446997564
4,2,T1_SMS_8,99,9999,9999,9999,9999,447797300
4,2,T1_SMS_8,100,9999,9999,9999,9999,448598076
4,2,T1_SMS_8,101,9999,9999,9999,9999,449397812
4,2,T1_SMS_8,102,9999,9999,9999,9999,450197568
4,2,T1_SMS_8,103,9999,9999,9999,9999,450997308
4,2,T1_SMS_8,104,9999,9999,9999,9999,451798084
4,2,T1_SMS_8,105,9999,9999,9999,9999,452597820
4,2,T1_SMS_8,106,9999,9999,9999,9999,453397552
4,2,T1_SMS_8,107,9999,9999,9999,9999,454197368
4,2,T1_SMS_8,108,9999,9999,9999,9999,454998072
4,2,T1_SMS_8,109,9999,9999,9999,9999,455797876
4,2,T1_SMS_8,110,9999,9999,9999,9999,456597556
4,2,T1_SMS_8,111,9999,9999,9999,9999,457397368
4,2,T1_SMS_8,112,9999,9999,9999,9999,458198072
4,2,T1_SMS_8,113,9999,9999,9999,9999,458997808
4,2,T1_SMS_8,114,9999,9999,9999,9999,459797612
4,2,T1_SMS_8,115,9999,9999,9999,9999,460597348
4,2,T1_SMS_8,116,9999,9999,9999,9999,461398128
4,2,T1_SMS_8,117,9999,9999,9999,9999,462197860
4,2,T1_SMS_8,118,9999,9999,9999,9999,462997620
4,2,T1_SMS_8,119,9999,9999,9999,9999,463797352
5,10,Ticks_ISO_T2_5,0,5,42,127,475737316
5,10,Ticks_ISO_T2_5,1,5,42,127,476238156
5,10,Ticks_ISO_T2_5,2,1,48,25,476245312
5,10,Ticks_ISO_T2_5,3,5,42,127,476737852
5,10,Ticks_ISO_T2_5,4,1,48,33,476762360
5,10,Ticks_ISO_T2_5,5,1,48,31,477235796
5,10,Ticks_ISO_T2_5,6,5,42,127,477237540
5,10,Ticks_ISO_T2_5,7,5,42,127,477738436
5,10,Ticks_ISO_T2_5,8,1,48,34,477744396
5,10,Ticks_ISO_T2_5,9,5,42,127,478238356
5,10,Ticks_ISO_T2_5,10,1,48,35,478264060
5,10,Ticks_ISO_T2_5,11,5,42,127,478737752
5,10,Ticks_ISO_T2_5,12,1,48,30,478785748
5,10,Ticks_ISO_T2_5,13,5,42,127,479237596
5,10,Ticks_ISO_T2_5,14,1,48,33,479279388
5,10,Ticks_ISO_T2_5,15,5,42,127,479738336
5,10,Ticks_ISO_T2_5,16,1,48,31,479756792
5,10,Ticks_ISO_T2_5,17,5,42,127,480237884
5,10,Ticks_ISO_T2_5,18,1,48,27,480288052
5,10,Ticks_ISO_T2_5,19,5,42,127,480737580
5,10,Ticks_ISO_T2_5,20,1,48,34,480772636
5,10,Ticks_ISO_T2_5,21,5,42,127,481238324
5,10,Ticks_ISO_T2_5,22,1,48,28,481239884
5,10,Ticks_ISO_T2_5,23,5,42,127,481738168
5,10,Ticks_ISO_T2_5,24,1,48,35,481752432
5,10,Ticks_ISO_T2_5,25,5,42,127,482237788
5,10,Ticks_ISO_T2_5,26,1,48,32,482274188
5,10,Ticks_ISO_T2_5,27,5,42,127,482737408
5,10,Ticks_ISO_T2_5,28,1,48,31,482767904
5,10,Ticks_ISO_T2_5,29,5,42,127,483238224
5,10,Ticks_ISO_T2_5,30,1,48,35,483253536
5,10,Ticks_ISO_T2_5,31,1,48,30,483732340
5,10,Ticks_ISO_T2_5,32,5,42,127,483737836
5,10,Ticks_ISO_T2_5,33,1,48,31,484210772
5,10,Ticks_ISO_T2_5,34,5,42,127,484237656
5,10,Ticks_ISO_T2_5,35,1,48,32,484738184
5,10,Ticks_ISO_T2_5,36,5,42,127,484739520
5,10,Ticks_ISO_T2_5,37,1,48,32,485233268
5,10,Ticks_ISO_T2_5,38,5,42,127,485238240
5,10,Ticks_ISO_T2_5,39,5,42,127,485737796
5,10,Ticks_ISO_T2_5,40,1,48,34,485742556
5,10,Ticks_ISO_T2_5,41,5,42,127,486237492
5,10,Ticks_ISO_T2_5,42,1,48,28,486256388
5,10,Ticks_ISO_T2_5,43,1,48,30,486699224
5,10,Ticks_ISO_T2_5,44,5,42,127,486738152
5,10,Ticks_ISO_T2_5,45,1,48,35,487222248
5,10,Ticks_ISO_T2_5,46,5,42,127,487238068
5,10,Ticks_ISO_T2_5,47,1,48,35,487713340
5,10,Ticks_ISO_T2_5,48,5,42,127,487737688
5,10,Ticks_ISO_T2_5,49,1,48,30,488230612
5,10,Ticks_ISO_T2_5,50,5,42,127,488237460
5,10,Ticks_ISO_T2_5,51,1,48,28,488723276
5,10,Ticks_ISO_T2_5,52,5,42,127,488738200
5,10,Ticks_ISO_T2_5,53,5,42,127,489237900
5,10,Ticks_ISO_T2_5,54,1,48,34,489250368
5,10,Ticks_ISO_T2_5,55,1,48,29,489694620
5,10,Ticks_ISO_T2_5,56,5,42,127,489737516
5,10,Ticks_ISO_T2_5,57,1,48,33,490202244
5,10,Ticks_ISO_T2_5,58,5,42,127,490238256
5,10,Ticks_ISO_T2_5,59,5,42,127,490738180
5,10,Ticks_ISO_T2_5,60,1,48,33,490749600
5,10,Ticks_ISO_T2_5,61,5,42,127,491237876
5,10,Ticks_ISO_T2_5,62,1,48,34,491271884
5,10,Ticks_ISO_T2_5,63,1,48,31,491718528
5,10,Ticks_ISO_T2_5,64,5,42,127,491737412
5,10,Ticks_ISO_T2_5,65,1,48,25,492215308
5,10,Ticks_ISO_T2_5,66,5,42,127,492238156
5,10,Ticks_ISO_T2_5,67,1,48,33,492718068
5,10,Ticks_ISO_T2_5,68,5,42,127,492738000
5,10,Ticks_ISO_T2_5,69,1,48,37,493234892
5,10,Ticks_ISO_T2_5,70,5,42,127,493237548
5,10,Ticks_ISO_T2_5,71,5,42,127,493738296
5,10,Ticks_ISO_T2_5,72,1,48,38,493765196
5,10,Ticks_ISO_T2_5,73,1,48,44,494231440
5,10,Ticks_ISO_T2_5,74,5,42,127,494238280
5,10,Ticks_ISO_T2_5,75,1,48,20,494311992
5,10,Ticks_ISO_T2_5,76,1,48,39,494735272
5,10,Ticks_ISO_T2_5,77,5,42,127,494737780
5,10,Ticks_ISO_T2_5,78,1,48,38,495226592
5,10,Ticks_ISO_T2_5,79,5,42,127,495237476
5,10,Ticks_ISO_T2_5,80,1,48,40,495696516
5,10,Ticks_ISO_T2_5,81,5,42,127,495738140
5,10,Ticks_ISO_T2_5,82,1,48,34,496171384
5,10,Ticks_ISO_T2_5,83,5,42,127,496238060
5,10,Ticks_ISO_T2_5,84,5,42,127,496737612
5,10,Ticks_ISO_T2_5,85,1,48,37,496740804
5,10,Ticks_ISO_T2_5,86,5,42,127,497238352
5,10,Ticks_ISO_T2_5,87,1,48,35,497255980
5,10,Ticks_ISO_T2_5,88,5,42,127,497737972
5,10,Ticks_ISO_T2_5,89,1,48,34,497746920
5,10,Ticks_ISO_T2_5,90,1,48,36,498234780
5,10,Ticks_ISO_T2_5,91,5,42,127,498237884
5,10,Ticks_ISO_T2_5,92,1,48,36,498725052
5,10,Ticks_ISO_T2_5,93,5,42,127,498737504
5,10,Ticks_ISO_T2_5,94,5,42,127,499238252
5,10,Ticks_ISO_T2_5,95,1,48,34,499249376
5,10,Ticks_ISO_T2_5,96,5,42,127,499738092
5,10,Ticks_ISO_T2_5,97,1,48,30,499767544
5,10,Ticks_ISO_T2_5,98,5,42,127,500237640
5,10,Ticks_ISO_T2_5,99,1,48,32,500239724
5,10,Ticks_ISO_T2_5,100,5,42,127,500738380
5,10,Ticks_ISO_T2_5,101,1,48,30,500748008
5,10,Ticks_ISO_T2_5,102,1,48,35,501233696
5,10,Ticks_ISO_T2_5,103,5,42,127,501238068
5,10,Ticks_ISO_T2_5,104,5,42,127,501738068
5,10,Ticks_ISO_T2_5,105,1,48,36,501746344
5,10,Ticks_ISO_T2_5,106,5,42,127,502237616
5,10,Ticks_ISO_T2_5,107,1,48,38,502271696
5,10,Ticks_ISO_T2_5,108,5,42,127,502738428
5,10,Ticks_ISO_T2_5,109,1,48,38,502744096
5,10,Ticks_ISO_T2_5,110,1,48,38,503221408
5,10,Ticks_ISO_T2_5,111,5,42,127,503238120
5,10,Ticks_ISO_T2_5,112,1,48,39,503669388
5,10,Ticks_ISO_T2_5,113,1,48,22,503734616
5,10,Ticks_ISO_T2_5,114,5,42,127,503737940
5,10,Ticks_ISO_T2_5,115,5,42,127,504237420
5,10,Ticks_ISO_T2_5,116,1,48,45,504287512
5,10,Ticks_ISO_T2_5,117,5,42,127,504738088
5,10,Ticks_ISO_T2_5,118,1,48,37,504794532
5,10,Ticks_ISO_T2_5,119,5,42,127,505238152
5,10,Ticks_ISO_T2_5,120,1,48,35,505292284
5,10,Ticks_ISO_T2_5,121,5,42,127,505737452
5,10,Ticks_ISO_T2_5,122,1,48,37,505764004
5,10,Ticks_ISO_T2_5,123,5,42,127,506238192
5,10,Ticks_ISO_T2_5,124,1,48,38,506261980
5,10,Ticks_ISO_T2_5,125,5,42,127,506738188
5,10,Ticks_ISO_T2_5,126,1,48,35,506754472
5,10,Ticks_ISO_T2_5,127,5,42,127,507238032
5,10,Ticks_ISO_T2_5,128,1,48,32,507247736
5,10,Ticks_ISO_T2_5,129,1,48,38,507727892
5,10,Ticks_ISO_T2_5,130,5,42,127,507737424
5,10,Ticks_ISO_T2_5,131,1,48,34,508205740
5,10,Ticks_ISO_T2_5,132,5,42,127,508238312
5,10,Ticks_ISO_T2_5,133,1,48,35,508723984
5,10,Ticks_ISO_T2_5,134,5,42,127,508738084
5,10,Ticks_ISO_T2_5,135,5,42,127,509237488
5,10,Ticks_ISO_T2_5,136,1,48,39,509250780
5,10,Ticks_ISO_T2_5,137,5,42,127,509738304
5,10,Ticks_ISO_T2_5,138,1,48,32,509765280
5,10,Ticks_ISO_T2_5,139,5,42,127,510237996
5,10,Ticks_ISO_T2_5,140,1,48,39,510253004
5,10,Ticks_ISO_T2_5,141,1,48,40,510709080
5,10,Ticks_ISO_T2_5,142,5,42,127,510738056
5,10,Ticks_ISO_T2_5,143,1,48,43,511230020
5,10,Ticks_ISO_T2_5,144,5,42,127,511237456
5,10,Ticks_ISO_T2_5,145,5,42,127,511738204
5,10,Ticks_ISO_T2_5,146,1,48,40,511758900
5,10,Ticks_ISO_T2_5,147,5,42,127,512238048
5,10,Ticks_ISO_T2_5,148,1,48,42,512248424
5,10,Ticks_ISO_T2_5,149,1,48,37,512736004
5,10,Ticks_ISO_T2_5,150,5,42,127,512737592
5,10,Ticks_ISO_T2_5,151,5,42,127,513238340
5,10,Ticks_ISO_T2_5,152,1,48,38,513248860
5,10,Ticks_ISO_T2_5,153,5,42,127,513738180
5,10,Ticks_ISO_T2_5,154,1,48,44,513785652
5,10,Ticks_ISO_T2_5,155,5,42,127,514238248
5,10,Ticks_ISO_T2_5,156,1,48,43,514275248
5,10,Ticks_ISO_T2_5,157,5,42,127,514737496
5,10,Ticks_ISO_T2_5,158,1,48,43,514754604
5,10,Ticks_ISO_T2_5,159,5,42,127,515238312
5,10,Ticks_ISO_T2_5,160,1,48,38,515247268
5,10,Ticks_ISO_T2_5,161,1,48,38,515714380
5,10,Ticks_ISO_T2_5,162,5,42,127,515738076
5,10,Ticks_ISO_T2_5,163,1,48,42,516233672
5,10,Ticks_ISO_T2_5,164,5,42,127,516237968
5,10,Ticks_ISO_T2_5,165,5,42,127,516738344
5,10,Ticks_ISO_T2_5,166,1,48,43,516746404
5,10,Ticks_ISO_T2_5,167,5,42,127,517238264
5,10,Ticks_ISO_T2_5,168,1,48,42,517259032
5,10,Ticks_ISO_T2_5,169,5,42,127,517737808
5,10,Ticks_ISO_T2_5,170,1,48,46,517754092
5,10,Ticks_ISO_T2_5,171,1,48,48,518229012
5,10,Ticks_ISO_T2_5,172,5,42,127,518237572
5,10,Ticks_ISO_T2_5,173,5,42,127,518738316
5,10,Ticks_ISO_T2_5,174,1,48,44,518744204
5,10,Ticks_ISO_T2_5,175,5,42,127,519237864
5,10,Ticks_ISO_T2_5,176,1,48,50,519245992
5,10,Ticks_ISO_T2_5,177,1,48,47,519729736
5,10,Ticks_ISO_T2_5,178,5,42,127,519737848
5,10,Ticks_ISO_T2_5,179,1,48,47,520227040
5,10,Ticks_ISO_T2_5,180,5,42,127,520237692
5,10,Ticks_ISO_T2_5,181,1,48,47,520730320
5,10,Ticks_ISO_T2_5,182,5,42,127,520738136
5,10,Ticks_ISO_T2_5,183,5,42,127,521237764
5,10,Ticks_ISO_T2_5,184,1,48,48,521242300
5,10,Ticks_ISO_T2_5,185,5,42,127,521737680
5,10,Ticks_ISO_T2_5,186,1,48,50,521765628
5,10,Ticks_ISO_T2_5,187,5,42,127,522238200
5,10,Ticks_ISO_T2_5,188,1,48,48,522259792
5,10,Ticks_ISO_T2_5,189,5,42,127,522738116
5,10,Ticks_ISO_T2_5,190,1,48,42,522744004
5,10,Ticks_ISO_T2_5,191,1,48,45,523197008
5,10,Ticks_ISO_T2_5,192,5,42,127,523237656
5,10,Ticks_ISO_T2_5,193,1,48,43,523735232
5,10,Ticks_ISO_T2_5,194,5,42,127,523737348
5,10,Ticks_ISO_T2_5,195,5,42,127,524238172
5,10,Ticks_ISO_T2_5,196,1,48,47,524273524
5,10,Ticks_ISO_T2_5,197,5,42,127,524737792
5,10,Ticks_ISO_T2_5,198,1,48,43,524761552
5,10,Ticks_ISO_T2_5,199,5,42,127,525237636
5,10,Ticks_ISO_T2_5,200,1,48,44,525240076
5,10,Ticks_ISO_T2_5,201,5,42,127,525738452
5,10,Ticks_ISO_T2_5,202,1,48,54,525752040
5,10,Ticks_ISO_T2_5,203,5,42,127,526237996
5,10,Ticks_ISO_T2_5,204,1,48,50,526258916
5,10,Ticks_ISO_T2_5,205,5,42,127,526737740
5,10,Ticks_ISO_T2_5,206,1,48,52,526769056
5,10,Ticks_ISO_T2_5,207,5,42,127,527237412
5,10,Ticks_ISO_T2_5,208,1,48,51,527250128
5,10,Ticks_ISO_T2_5,209,5,42,127,527738152
5,10,Ticks_ISO_T2_5,210,1,48,49,527765752
5,10,Ticks_ISO_T2_5,211,5,42,127,528237996
5,10,Ticks_ISO_T2_5,212,1,48,47,528252260
5,10,Ticks_ISO_T2_5,213,5,42,127,528737692
5,10,Ticks_ISO_T2_5,214,1,48,43,528758916
5,10,Ticks_ISO_T2_5,215,5,42,127,529238360
5,10,Ticks_ISO_T2_5,216,1,48,50,529242820
5,10,Ticks_ISO_T2_5,217,5,42,127,529738128
5,10,Ticks_ISO_T2_5,218,1,48,47,529754188
5,10,Ticks_ISO_T2_5,219,5,42,127,530237748
5,10,Ticks_ISO_T2_5,220,1,48,52,530262708
5,10,Ticks_ISO_T2_5,221,5,42,127,530737592
5,10,Ticks_ISO_T2_5,222,1,48,51,530757168
5,10,Ticks_ISO_T2_5,223,5,42,127,531238184
5,10,Ticks_ISO_T2_5,224,1,48,51,531266960
5,10,Ticks_ISO_T2_5,225,1,48,51,531737576
5,10,Ticks_ISO_T2_5,226,5,42,127,531739068
5,10,Ticks_ISO_T2_5,227,1,48,48,532238020
5,10,Ticks_ISO_T2_5,228,5,42,127,532239360
5,10,Ticks_ISO_T2_5,229,5,42,127,532738764
5,10,Ticks_ISO_T2_5,230,1,48,48,532747720
5,10,Ticks_ISO_T2_5,231,5,42,127,533238160
5,10,Ticks_ISO_T2_5,232,1,48,51,533257136
5,10,Ticks_ISO_T2_5,233,5,42,127,533737780
5,10,Ticks_ISO_T2_5,234,1,48,53,533757652
5,10,Ticks_ISO_T2_5,235,1,48,47,534233768
5,10,Ticks_ISO_T2_5,236,5,42,127,534237544
5,10,Ticks_ISO_T2_5,237,1,48,50,534708104
5,10,Ticks_ISO_T2_5,238,5,42,127,534738284
5,10,Ticks_ISO_T2_5,239,5,42,127,535238060
5,10,Ticks_ISO_T2_5,240,1,48,52,535253368
5,10,Ticks_ISO_T2_5,241,5,42,127,535737604
5,10,Ticks_ISO_T2_5,242,1,48,54,535769816
5,10,Ticks_ISO_T2_5,243,5,42,127,536237524
5,10,Ticks_ISO_T2_5,244,1,48,52,536274896
5,10,Ticks_ISO_T2_5,245,5,42,127,536738116
5,10,Ticks_ISO_T2_5,246,1,48,47,536761876
5,10,Ticks_ISO_T2_5,247,5,42,127,537237812
5,10,Ticks_ISO_T2_5,248,1,48,52,537239824
5,10,Ticks_ISO_T2_5,249,5,42,127,537737484
5,10,Ticks_ISO_T2_5,250,1,48,49,537744640
5,10,Ticks_ISO_T2_5,251,5,42,127,538238596
5,10,Ticks_ISO_T2_5,252,1,48,54,538255100
5,10,Ticks_ISO_T2_5,253,5,42,127,538737992
5,10,Ticks_ISO_T2_5,254,1,48,53,538764596
5,10,Ticks_ISO_T2_5,255,5,42,127,539237612
5,10,Ticks_ISO_T2_5,256,1,48,51,539250080
5,10,Ticks_ISO_T2_5,257,1,48,45,539734120
5,10,Ticks_ISO_T2_5,258,5,42,127,539737596
5,10,Ticks_ISO_T2_5,259,5,42,127,540238048
5,10,Ticks_ISO_T2_5,260,1,48,56,540246400
5,10,Ticks_ISO_T2_5,0,9999,9999,9999,9999,475735100
5,10,Ticks_ISO_T2_5,1,9999,9999,9999,9999,476235864
5,10,Ticks_ISO_T2_5,2,9999,9999,9999,9999,476735560
5,10,Ticks_ISO_T2_5,3,9999,9999,9999,9999,477235272
5,10,Ticks_ISO_T2_5,4,9999,9999,9999,9999,477735996
5,10,Ticks_ISO_T2_5,5,9999,9999,9999,9999,478235768
5,10,Ticks_ISO_T2_5,6,9999,9999,9999,9999,478735460
5,10,Ticks_ISO_T2_5,7,9999,9999,9999,9999,479235156
5,10,Ticks_ISO_T2_5,8,9999,9999,9999,9999,479735896
5,10,Ticks_ISO_T2_5,9,9999,9999,9999,9999,480235592
5,10,Ticks_ISO_T2_5,10,9999,9999,9999,9999,480735292
5,10,Ticks_ISO_T2_5,11,9999,9999,9999,9999,481236032
5,10,Ticks_ISO_T2_5,12,9999,9999,9999,9999,481735728
5,10,Ticks_ISO_T2_5,13,9999,9999,9999,9999,482235496
5,10,Ticks_ISO_T2_5,14,9999,9999,9999,9999,482735192
5,10,Ticks_ISO_T2_5,15,9999,9999,9999,9999,483235936
5,10,Ticks_ISO_T2_5,16,9999,9999,9999,9999,483735620
5,10,Ticks_ISO_T2_5,17,9999,9999,9999,9999,484235368
5,10,Ticks_ISO_T2_5,18,9999,9999,9999,9999,484736120
5,10,Ticks_ISO_T2_5,19,9999,9999,9999,9999,485235804
5,10,Ticks_ISO_T2_5,20,9999,9999,9999,9999,485735504
5,10,Ticks_ISO_T2_5,21,9999,9999,9999,9999,486235200
5,10,Ticks_ISO_T2_5,22,9999,9999,9999,9999,486735936
5,10,Ticks_ISO_T2_5,23,9999,9999,9999,9999,487235704
5,10,Ticks_ISO_T2_5,24,9999,9999,9999,9999,487735396
5,10,Ticks_ISO_T2_5,25,9999,9999,9999,9999,488235092
5,10,Ticks_ISO_T2_5,26,9999,9999,9999,9999,488735836
5,10,Ticks_ISO_T2_5,27,9999,9999,9999,9999,489235536
5,10,Ticks_ISO_T2_5,28,9999,9999,9999,9999,489735224
5,10,Ticks_ISO_T2_5,29,9999,9999,9999,9999,490235968
5,10,Ticks_ISO_T2_5,30,9999,9999,9999,9999,490735668
5,10,Ticks_ISO_T2_5,31,9999,9999,9999,9999,491235436
5,10,Ticks_ISO_T2_5,32,9999,9999,9999,9999,491735124
5,10,Ticks_ISO_T2_5,33,9999,9999,9999,9999,492235864
5,10,Ticks_ISO_T2_5,34,9999,9999,9999,9999,492735560
5,10,Ticks_ISO_T2_5,35,9999,9999,9999,9999,493235256
5,10,Ticks_ISO_T2_5,36,9999,9999,9999,9999,493736004
5,10,Ticks_ISO_T2_5,37,9999,9999,9999,9999,494235768
5,10,Ticks_ISO_T2_5,38,9999,9999,9999,9999,494735416
5,10,Ticks_ISO_T2_5,39,9999,9999,9999,9999,495235184
5,10,Ticks_ISO_T2_5,40,9999,9999,9999,9999,495735924
5,10,Ticks_ISO_T2_5,41,9999,9999,9999,9999,496235620
5,10,Ticks_ISO_T2_5,42,9999,9999,9999,9999,496735324
5,10,Ticks_ISO_T2_5,43,9999,9999,9999,9999,497236064
5,10,Ticks_ISO_T2_5,44,9999,9999,9999,9999,497735756
5,10,Ticks_ISO_T2_5,45,9999,9999,9999,9999,498235444
5,10,Ticks_ISO_T2_5,46,9999,9999,9999,9999,498735212
5,10,Ticks_ISO_T2_5,47,9999,9999,9999,9999,499235960
5,10,Ticks_ISO_T2_5,48,9999,9999,9999,9999,499735656
5,10,Ticks_ISO_T2_5,49,9999,9999,9999,9999,500235348
5,10,Ticks_ISO_T2_5,50,9999,9999,9999,9999,500736096
5,10,Ticks_ISO_T2_5,51,9999,9999,9999,9999,501235780
5,10,Ticks_ISO_T2_5,52,9999,9999,9999,9999,501735480
5,10,Ticks_ISO_T2_5,53,9999,9999,9999,9999,502235248
5,10,Ticks_ISO_T2_5,54,9999,9999,9999,9999,502735992
5,10,Ticks_ISO_T2_5,55,9999,9999,9999,9999,503235680
5,10,Ticks_ISO_T2_5,56,9999,9999,9999,9999,503735352
5,10,Ticks_ISO_T2_5,57,9999,9999,9999,9999,504235128
5,10,Ticks_ISO_T2_5,58,9999,9999,9999,9999,504735796
5,10,Ticks_ISO_T2_5,59,9999,9999,9999,9999,505235564
5,10,Ticks_ISO_T2_5,60,9999,9999,9999,9999,505735236
5,10,Ticks_ISO_T2_5,61,9999,9999,9999,9999,506235976
5,10,Ticks_ISO_T2_5,62,9999,9999,9999,9999,506735672
5,10,Ticks_ISO_T2_5,63,9999,9999,9999,9999,507235444
5,10,Ticks_ISO_T2_5,64,9999,9999,9999,9999,507735132
5,10,Ticks_ISO_T2_5,65,9999,9999,9999,9999,508235872
5,10,Ticks_ISO_T2_5,66,9999,9999,9999,9999,508735568
5,10,Ticks_ISO_T2_5,67,9999,9999,9999,9999,509235272
5,10,Ticks_ISO_T2_5,68,9999,9999,9999,9999,509736012
5,10,Ticks_ISO_T2_5,69,9999,9999,9999,9999,510235708
5,10,Ticks_ISO_T2_5,70,9999,9999,9999,9999,510735468
5,10,Ticks_ISO_T2_5,71,9999,9999,9999,9999,511235168
5,10,Ticks_ISO_T2_5,72,9999,9999,9999,9999,511735912
5,10,Ticks_ISO_T2_5,73,9999,9999,9999,9999,512235608
5,10,Ticks_ISO_T2_5,74,9999,9999,9999,9999,512735312
5,10,Ticks_ISO_T2_5,75,9999,9999,9999,9999,513236048
5,10,Ticks_ISO_T2_5,76,9999,9999,9999,9999,513735744
5,10,Ticks_ISO_T2_5,77,9999,9999,9999,9999,514235512
5,10,Ticks_ISO_T2_5,78,9999,9999,9999,9999,514735204
5,10,Ticks_ISO_T2_5,79,9999,9999,9999,9999,515235948
5,10,Ticks_ISO_T2_5,80,9999,9999,9999,9999,515735636
5,10,Ticks_ISO_T2_5,81,9999,9999,9999,9999,516235380
5,10,Ticks_ISO_T2_5,82,9999,9999,9999,9999,516736060
5,10,Ticks_ISO_T2_5,83,9999,9999,9999,9999,517235824
5,10,Ticks_ISO_T2_5,84,9999,9999,9999,9999,517735520
5,10,Ticks_ISO_T2_5,85,9999,9999,9999,9999,518235208
5,10,Ticks_ISO_T2_5,86,9999,9999,9999,9999,518735952
5,10,Ticks_ISO_T2_5,87,9999,9999,9999,9999,519235648
5,10,Ticks_ISO_T2_5,88,9999,9999,9999,9999,519735408
5,10,Ticks_ISO_T2_5,89,9999,9999,9999,9999,520235104
5,10,Ticks_ISO_T2_5,90,9999,9999,9999,9999,520735848
5,10,Ticks_ISO_T2_5,91,9999,9999,9999,9999,521235548
5,10,Ticks_ISO_T2_5,92,9999,9999,9999,9999,521735244
5,10,Ticks_ISO_T2_5,93,9999,9999,9999,9999,522235984
5,10,Ticks_ISO_T2_5,94,9999,9999,9999,9999,522735676
5,10,Ticks_ISO_T2_5,95,9999,9999,9999,9999,523235440
5,10,Ticks_ISO_T2_5,96,9999,9999,9999,9999,523735096
5,10,Ticks_ISO_T2_5,97,9999,9999,9999,9999,524235880
5,10,Ticks_ISO_T2_5,98,9999,9999,9999,9999,524735576
5,10,Ticks_ISO_T2_5,99,9999,9999,9999,9999,525235272
5,10,Ticks_ISO_T2_5,100,9999,9999,9999,9999,525736012
5,10,Ticks_ISO_T2_5,101,9999,9999,9999,9999,526235708
5,10,Ticks_ISO_T2_5,102,9999,9999,9999,9999,526735452
5,10,Ticks_ISO_T2_5,103,9999,9999,9999,9999,527235120
5,10,Ticks_ISO_T2_5,104,9999,9999,9999,9999,527735864
5,10,Ticks_ISO_T2_5,105,9999,9999,9999,9999,528235632
5,10,Ticks_ISO_T2_5,106,9999,9999,9999,9999,528735328
5,10,Ticks_ISO_T2_5,107,9999,9999,9999,9999,529236068
5,10,Ticks_ISO_T2_5,108,9999,9999,9999,9999,529735764
5,10,Ticks_ISO_T2_5,109,9999,9999,9999,9999,530235460
5,10,Ticks_ISO_T2_5,110,9999,9999,9999,9999,530735152
5,10,Ticks_ISO_T2_5,111,9999,9999,9999,9999,531235892
5,10,Ticks_ISO_T2_5,112,9999,9999,9999,9999,531735664
5,10,Ticks_ISO_T2_5,113,9999,9999,9999,9999,532235360
5,10,Ticks_ISO_T2_5,114,9999,9999,9999,9999,532736104
5,10,Ticks_ISO_T2_5,115,9999,9999,9999,9999,533235796
5,10,Ticks_ISO_T2_5,116,9999,9999,9999,9999,533735492
5,10,Ticks_ISO_T2_5,117,9999,9999,9999,9999,534235256
5,10,Ticks_ISO_T2_5,118,9999,9999,9999,9999,534735920
5,10,Ticks_ISO_T2_5,119,9999,9999,9999,9999,535235696
5,10,Ticks_ISO_T2_5,120,9999,9999,9999,9999,535735388
5,10,Ticks_ISO_T2_5,121,9999,9999,9999,9999,536235084
5,10,Ticks_ISO_T2_5,122,9999,9999,9999,9999,536735828
5,10,Ticks_ISO_T2_5,123,9999,9999,9999,9999,537235520
5,10,Ticks_ISO_T2_5,124,9999,9999,9999,9999,537735268
5,10,Ticks_ISO_T2_5,125,9999,9999,9999,9999,538236008
5,10,Ticks_ISO_T2_5,126,9999,9999,9999,9999,538735700
5,10,Ticks_ISO_T2_5,127,9999,9999,9999,9999,539235396
5,10,Ticks_ISO_T2_5,128,9999,9999,9999,9999,539735156
5,10,Ticks_ISO_T2_5,129,9999,9999,9999,9999,540235832
6,9,Ticks_ISO_T2_8,0,5,42,127,551504412
6,9,Ticks_ISO_T2_8,1,1,48,35,552018600
6,9,Ticks_ISO_T2_8,2,5,42,127,552303920
6,9,Ticks_ISO_T2_8,3,1,48,28,553054192
6,9,Ticks_ISO_T2_8,4,5,42,127,553103744
6,9,Ticks_ISO_T2_8,5,1,48,29,553903584
6,9,Ticks_ISO_T2_8,6,5,42,127,553904848
6,9,Ticks_ISO_T2_8,7,5,42,127,554704436
6,9,Ticks_ISO_T2_8,8,1,48,28,554743536
6,9,Ticks_ISO_T2_8,9,5,42,127,555504172
6,9,Ticks_ISO_T2_8,10,1,48,36,555562268
6,9,Ticks_ISO_T2_8,11,5,42,127,556303756
6,9,Ticks_ISO_T2_8,12,1,48,39,556404036
6,9,Ticks_ISO_T2_8,13,5,42,127,557103564
6,9,Ticks_ISO_T2_8,14,1,48,27,557162328
6,9,Ticks_ISO_T2_8,15,5,42,127,557904192
6,9,Ticks_ISO_T2_8,16,1,48,37,557915464
6,9,Ticks_ISO_T2_8,17,1,48,43,558694688
6,9,Ticks_ISO_T2_8,18,5,42,127,558703992
6,9,Ticks_ISO_T2_8,19,1,48,38,559484620
6,9,Ticks_ISO_T2_8,20,5,42,127,559503580
6,9,Ticks_ISO_T2_8,21,5,42,127,560303344
6,9,Ticks_ISO_T2_8,22,1,48,40,560308928
6,9,Ticks_ISO_T2_8,23,1,48,40,561093688
6,9,Ticks_ISO_T2_8,24,5,42,127,561104340
6,9,Ticks_ISO_T2_8,25,1,48,38,561901884
6,9,Ticks_ISO_T2_8,26,5,42,127,561904072
6,9,Ticks_ISO_T2_8,27,1,48,40,562699884
6,9,Ticks_ISO_T2_8,28,5,42,127,562703584
6,9,Ticks_ISO_T2_8,29,1,48,34,563467980
6,9,Ticks_ISO_T2_8,30,5,42,127,563503320
6,9,Ticks_ISO_T2_8,31,1,48,41,564263076
6,9,Ticks_ISO_T2_8,32,5,42,127,564304324
6,9,Ticks_ISO_T2_8,33,1,48,38,565075744
6,9,Ticks_ISO_T2_8,34,5,42,127,565103908
6,9,Ticks_ISO_T2_8,35,1,48,37,565875404
6,9,Ticks_ISO_T2_8,36,5,42,127,565903716
6,9,Ticks_ISO_T2_8,37,1,48,41,566655516
6,9,Ticks_ISO_T2_8,38,5,42,127,566703448
6,9,Ticks_ISO_T2_8,39,1,48,39,567477716
6,9,Ticks_ISO_T2_8,40,5,42,127,567504228
6,9,Ticks_ISO_T2_8,41,1,48,43,568281268
6,9,Ticks_ISO_T2_8,42,5,42,127,568304256
6,9,Ticks_ISO_T2_8,43,1,48,36,569061924
6,9,Ticks_ISO_T2_8,44,5,42,127,569103620
6,9,Ticks_ISO_T2_8,45,1,48,18,569145240
6,9,Ticks_ISO_T2_8,46,1,48,40,569878616
6,9,Ticks_ISO_T2_8,47,5,42,127,569903332
6,9,Ticks_ISO_T2_8,48,1,48,33,570666004
6,9,Ticks_ISO_T2_8,49,5,42,127,570704260
6,9,Ticks_ISO_T2_8,50,1,48,38,571465512
6,9,Ticks_ISO_T2_8,51,5,42,127,571504216
6,9,Ticks_ISO_T2_8,52,1,48,40,572275568
6,9,Ticks_ISO_T2_8,53,5,42,127,572303900
6,9,Ticks_ISO_T2_8,54,1,48,29,573036932
6,9,Ticks_ISO_T2_8,55,5,42,127,573103484
6,9,Ticks_ISO_T2_8,56,1,48,30,573868108
6,9,Ticks_ISO_T2_8,57,5,42,127,573904116
6,9,Ticks_ISO_T2_8,58,1,48,34,574660432
6,9,Ticks_ISO_T2_8,59,5,42,127,574704144
6,9,Ticks_ISO_T2_8,60,1,48,33,575449696
6,9,Ticks_ISO_T2_8,61,5,42,127,575503804
6,9,Ticks_ISO_T2_8,62,1,48,31,576258852
6,9,Ticks_ISO_T2_8,63,5,42,127,576303392
6,9,Ticks_ISO_T2_8,64,1,48,36,577072424
6,9,Ticks_ISO_T2_8,65,5,42,127,577104172
6,9,Ticks_ISO_T2_8,66,1,48,34,577895120
6,9,Ticks_ISO_T2_8,67,5,42,127,577904128
6,9,Ticks_ISO_T2_8,68,1,48,37,578698820
6,9,Ticks_ISO_T2_8,69,5,42,127,578704112
6,9,Ticks_ISO_T2_8,70,5,42,127,579503552
6,9,Ticks_ISO_T2_8,71,1,48,41,579523052
6,9,Ticks_ISO_T2_8,72,5,42,127,580304260
6,9,Ticks_ISO_T2_8,73,1,48,38,580329220
6,9,Ticks_ISO_T2_8,74,5,42,127,581103992
6,9,Ticks_ISO_T2_8,75,1,48,33,581167624
6,9,Ticks_ISO_T2_8,76,5,42,127,581903652
6,9,Ticks_ISO_T2_8,77,1,48,40,581904544
6,9,Ticks_ISO_T2_8,78,5,42,127,582703384
6,9,Ticks_ISO_T2_8,79,1,48,35,582709048
6,9,Ticks_ISO_T2_8,80,1,48,38,583487896
6,9,Ticks_ISO_T2_8,81,5,42,127,583504084
6,9,Ticks_ISO_T2_8,82,1,48,38,584281124
6,9,Ticks_ISO_T2_8,83,5,42,127,584304040
6,9,Ticks_ISO_T2_8,84,1,48,35,585080860
6,9,Ticks_ISO_T2_8,85,5,42,127,585103876
6,9,Ticks_ISO_T2_8,86,1,48,34,585899240
6,9,Ticks_ISO_T2_8,87,5,42,127,585903460
6,9,Ticks_ISO_T2_8,88,5,42,127,586704172
6,9,Ticks_ISO_T2_8,89,1,48,36,586753072
6,9,Ticks_ISO_T2_8,90,5,42,127,587504056
6,9,Ticks_ISO_T2_8,91,1,48,40,587549584
6,9,Ticks_ISO_T2_8,92,5,42,127,588303864
6,9,Ticks_ISO_T2_8,93,1,48,40,588312896
6,9,Ticks_ISO_T2_8,94,5,42,127,589103372
6,9,Ticks_ISO_T2_8,95,1,48,42,589115988
6,9,Ticks_ISO_T2_8,96,1,48,38,589904600
6,9,Ticks_ISO_T2_8,97,5,42,127,589905860
6,9,Ticks_ISO_T2_8,98,5,42,127,590704108
6,9,Ticks_ISO_T2_8,99,1,48,39,590709852
6,9,Ticks_ISO_T2_8,100,1,48,44,591503268
6,9,Ticks_ISO_T2_8,101,5,42,127,591504832
6,9,Ticks_ISO_T2_8,102,1,48,19,591593204
6,9,Ticks_ISO_T2_8,103,5,42,127,592303580
6,9,Ticks_ISO_T2_8,104,1,48,34,592318444
6,9,Ticks_ISO_T2_8,105,5,42,127,593104212
6,9,Ticks_ISO_T2_8,106,1,48,38,593109948
6,9,Ticks_ISO_T2_8,107,1,48,40,593902204
6,9,Ticks_ISO_T2_8,108,5,42,127,593903940
6,9,Ticks_ISO_T2_8,109,5,42,127,594703904
6,9,Ticks_ISO_T2_8,110,1,48,30,594704796
6,9,Ticks_ISO_T2_8,111,1,48,42,595465304
6,9,Ticks_ISO_T2_8,112,5,42,127,595503336
6,9,Ticks_ISO_T2_8,113,1,48,35,596235716
6,9,Ticks_ISO_T2_8,114,5,42,127,596304188
6,9,Ticks_ISO_T2_8,115,1,48,34,597048240
6,9,Ticks_ISO_T2_8,116,5,42,127,597103848
6,9,Ticks_ISO_T2_8,117,1,48,41,597837576
6,9,Ticks_ISO_T2_8,118,5,42,127,597903832
6,9,Ticks_ISO_T2_8,119,1,48,35,598636864
6,9,Ticks_ISO_T2_8,120,5,42,127,598703636
6,9,Ticks_ISO_T2_8,121,1,48,40,599462572
6,9,Ticks_ISO_T2_8,122,5,42,127,599504192
6,9,Ticks_ISO_T2_8,123,1,48,31,600287064
6,9,Ticks_ISO_T2_8,124,5,42,127,600303852
6,9,Ticks_ISO_T2_8,125,1,48,36,601088072
6,9,Ticks_ISO_T2_8,126,5,42,127,601103808
6,9,Ticks_ISO_T2_8,127,1,48,33,601893856
6,9,Ticks_ISO_T2_8,128,5,42,127,601903544
6,9,Ticks_ISO_T2_8,129,1,48,35,602702360
6,9,Ticks_ISO_T2_8,130,5,42,127,602704172
6,9,Ticks_ISO_T2_8,131,5,42,127,603503988
6,9,Ticks_ISO_T2_8,132,1,48,37,603535704
6,9,Ticks_ISO_T2_8,133,1,48,34,604293060
6,9,Ticks_ISO_T2_8,134,5,42,127,604303816
6,9,Ticks_ISO_T2_8,135,5,42,127,605103404
6,9,Ticks_ISO_T2_8,136,1,48,39,605130012
6,9,Ticks_ISO_T2_8,137,5,42,127,605904184
6,9,Ticks_ISO_T2_8,138,1,48,34,605913140
6,9,Ticks_ISO_T2_8,139,5,42,127,606703920
6,9,Ticks_ISO_T2_8,140,1,48,37,606717436
6,9,Ticks_ISO_T2_8,141,5,42,127,607503728
6,9,Ticks_ISO_T2_8,142,1,48,37,607538636
6,9,Ticks_ISO_T2_8,143,1,48,36,608288536
6,9,Ticks_ISO_T2_8,144,5,42,127,608303676
6,9,Ticks_ISO_T2_8,145,1,48,37,609103860
6,9,Ticks_ISO_T2_8,146,5,42,127,609105132
6,9,Ticks_ISO_T2_8,147,5,42,127,609904048
6,9,Ticks_ISO_T2_8,148,1,48,35,609908588
6,9,Ticks_ISO_T2_8,149,5,42,127,610703656
6,9,Ticks_ISO_T2_8,150,1,48,33,610736472
6,9,Ticks_ISO_T2_8,151,1,48,39,611487420
6,9,Ticks_ISO_T2_8,152,5,42,127,611503756
6,9,Ticks_ISO_T2_8,153,5,42,127,612304320
6,9,Ticks_ISO_T2_8,154,1,48,37,612309532
6,9,Ticks_ISO_T2_8,155,5,42,127,613103976
6,9,Ticks_ISO_T2_8,156,1,48,36,613149504
6,9,Ticks_ISO_T2_8,157,5,42,127,613903784
6,9,Ticks_ISO_T2_8,158,1,48,36,613951408
6,9,Ticks_ISO_T2_8,159,5,42,127,614703664
6,9,Ticks_ISO_T2_8,160,1,48,35,614748072
6,9,Ticks_ISO_T2_8,161,5,42,127,615504372
6,9,Ticks_ISO_T2_8,162,1,48,35,615515196
6,9,Ticks_ISO_T2_8,163,5,42,127,616304104
6,9,Ticks_ISO_T2_8,164,1,48,33,616324800
6,9,Ticks_ISO_T2_8,165,5,42,127,617103712
6,9,Ticks_ISO_T2_8,166,1,48,33,617138172
6,9,Ticks_ISO_T2_8,167,5,42,127,617903448
6,9,Ticks_ISO_T2_8,168,1,48,39,617960796
6,9,Ticks_ISO_T2_8,169,5,42,127,618704228
6,9,Ticks_ISO_T2_8,170,1,48,40,618735920
6,9,Ticks_ISO_T2_8,171,5,42,127,619503960
6,9,Ticks_ISO_T2_8,172,1,48,36,619525028
6,9,Ticks_ISO_T2_8,173,5,42,127,620303620
6,9,Ticks_ISO_T2_8,174,1,48,41,620337260
6,9,Ticks_ISO_T2_8,175,5,42,127,621103500
6,9,Ticks_ISO_T2_8,176,1,48,41,621128912
6,9,Ticks_ISO_T2_8,177,5,42,127,621904280
6,9,Ticks_ISO_T2_8,178,1,48,39,621915776
6,9,Ticks_ISO_T2_8,179,1,48,40,622664928
6,9,Ticks_ISO_T2_8,180,5,42,127,622703932
6,9,Ticks_ISO_T2_8,181,1,48,42,623488080
6,9,Ticks_ISO_T2_8,182,5,42,127,623503764
6,9,Ticks_ISO_T2_8,183,1,48,42,624238440
6,9,Ticks_ISO_T2_8,184,5,42,127,624303572
6,9,Ticks_ISO_T2_8,185,1,48,37,625020224
6,9,Ticks_ISO_T2_8,186,5,42,127,625104504
6,9,Ticks_ISO_T2_8,187,1,48,38,625833148
6,9,Ticks_ISO_T2_8,188,5,42,127,625903940
6,9,Ticks_ISO_T2_8,189,1,48,40,626585008
6,9,Ticks_ISO_T2_8,190,5,42,127,626703804
6,9,Ticks_ISO_T2_8,191,1,48,38,627432616
6,9,Ticks_ISO_T2_8,192,5,42,127,627503404
6,9,Ticks_ISO_T2_8,193,1,48,35,628243492
6,9,Ticks_ISO_T2_8,194,5,42,127,628304408
6,9,Ticks_ISO_T2_8,195,1,48,38,629041356
6,9,Ticks_ISO_T2_8,196,5,42,127,629103916
6,9,Ticks_ISO_T2_8,197,1,48,32,629844500
6,9,Ticks_ISO_T2_8,198,5,42,127,629903652
6,9,Ticks_ISO_T2_8,199,1,48,35,630658224
6,9,Ticks_ISO_T2_8,200,5,42,127,630703532
6,9,Ticks_ISO_T2_8,201,1,48,35,631444520
6,9,Ticks_ISO_T2_8,202,5,42,127,631504388
6,9,Ticks_ISO_T2_8,203,1,48,28,632293768
6,9,Ticks_ISO_T2_8,204,5,42,127,632304268
6,9,Ticks_ISO_T2_8,205,1,48,32,633099856
6,9,Ticks_ISO_T2_8,206,5,42,127,633103704
6,9,Ticks_ISO_T2_8,207,1,48,37,633871916
6,9,Ticks_ISO_T2_8,208,5,42,127,633903588
6,9,Ticks_ISO_T2_8,209,1,48,35,634656092
6,9,Ticks_ISO_T2_8,210,5,42,127,634704144
6,9,Ticks_ISO_T2_8,211,1,48,35,635458596
6,9,Ticks_ISO_T2_8,212,5,42,127,635504248
6,9,Ticks_ISO_T2_8,213,1,48,35,636275828
6,9,Ticks_ISO_T2_8,214,5,42,127,636303712
6,9,Ticks_ISO_T2_8,215,1,48,41,637073264
6,9,Ticks_ISO_T2_8,216,5,42,127,637103368
6,9,Ticks_ISO_T2_8,217,1,48,33,637880032
6,9,Ticks_ISO_T2_8,218,5,42,127,637904152
6,9,Ticks_ISO_T2_8,219,1,48,31,638641172
6,9,Ticks_ISO_T2_8,220,5,42,127,638704180
6,9,Ticks_ISO_T2_8,221,1,48,33,639480768
6,9,Ticks_ISO_T2_8,222,5,42,127,639503916
6,9,Ticks_ISO_T2_8,223,1,48,35,640300024
6,9,Ticks_ISO_T2_8,224,5,42,127,640303352
6,9,Ticks_ISO_T2_8,225,5,42,127,641104140
6,9,Ticks_ISO_T2_8,226,1,48,29,641141736
6,9,Ticks_ISO_T2_8,227,5,42,127,641904020
6,9,Ticks_ISO_T2_8,228,1,48,29,641906996
6,9,Ticks_ISO_T2_8,229,5,42,127,642703628
6,9,Ticks_ISO_T2_8,230,1,48,32,642707124
6,9,Ticks_ISO_T2_8,231,1,48,37,643489112
6,9,Ticks_ISO_T2_8,232,5,42,127,643503432
6,9,Ticks_ISO_T2_8,233,1,48,38,644288320
6,9,Ticks_ISO_T2_8,234,5,42,127,644304212
6,9,Ticks_ISO_T2_8,235,1,48,31,645088284
6,9,Ticks_ISO_T2_8,236,5,42,127,645103944
6,9,Ticks_ISO_T2_8,237,5,42,127,645903760
6,9,Ticks_ISO_T2_8,238,1,48,43,645917276
6,9,Ticks_ISO_T2_8,239,1,48,38,646685728
6,9,Ticks_ISO_T2_8,240,5,42,127,646703484
6,9,Ticks_ISO_T2_8,241,1,48,38,647472224
6,9,Ticks_ISO_T2_8,0,9999,9999,9999,9999,551501900
6,9,Ticks_ISO_T2_8,1,9999,9999,9999,9999,552301632
6,9,Ticks_ISO_T2_8,2,9999,9999,9999,9999,553101384
6,9,Ticks_ISO_T2_8,3,9999,9999,9999,9999,553901148
6,9,Ticks_ISO_T2_8,4,9999,9999,9999,9999,554701928
6,9,Ticks_ISO_T2_8,5,9999,9999,9999,9999,555501660
6,9,Ticks_ISO_T2_8,6,9999,9999,9999,9999,556301392
6,9,Ticks_ISO_T2_8,7,9999,9999,9999,9999,557101124
6,9,Ticks_ISO_T2_8,8,9999,9999,9999,9999,557901904
6,9,Ticks_ISO_T2_8,9,9999,9999,9999,9999,558701632
6,9,Ticks_ISO_T2_8,10,9999,9999,9999,9999,559501364
6,9,Ticks_ISO_T2_8,11,9999,9999,9999,9999,560301128
6,9,Ticks_ISO_T2_8,12,9999,9999,9999,9999,561101904
6,9,Ticks_ISO_T2_8,13,9999,9999,9999,9999,561901676
6,9,Ticks_ISO_T2_8,14,9999,9999,9999,9999,562701368
6,9,Ticks_ISO_T2_8,15,9999,9999,9999,9999,563501104
6,9,Ticks_ISO_T2_8,16,9999,9999,9999,9999,564301884
6,9,Ticks_ISO_T2_8,17,9999,9999,9999,9999,565101620
6,9,Ticks_ISO_T2_8,18,9999,9999,9999,9999,565901428
6,9,Ticks_ISO_T2_8,19,9999,9999,9999,9999,566701160
6,9,Ticks_ISO_T2_8,20,9999,9999,9999,9999,567501940
6,9,Ticks_ISO_T2_8,21,9999,9999,9999,9999,568301672
6,9,Ticks_ISO_T2_8,22,9999,9999,9999,9999,569101408
6,9,Ticks_ISO_T2_8,23,9999,9999,9999,9999,569901116
6,9,Ticks_ISO_T2_8,24,9999,9999,9999,9999,570701896
6,9,Ticks_ISO_T2_8,25,9999,9999,9999,9999,571501632
6,9,Ticks_ISO_T2_8,26,9999,9999,9999,9999,572301364
6,9,Ticks_ISO_T2_8,27,9999,9999,9999,9999,573101120
6,9,Ticks_ISO_T2_8,28,9999,9999,9999,9999,573901900
6,9,Ticks_ISO_T2_8,29,9999,9999,9999,9999,574701636
6,9,Ticks_ISO_T2_8,30,9999,9999,9999,9999,575501368
6,9,Ticks_ISO_T2_8,31,9999,9999,9999,9999,576301104
6,9,Ticks_ISO_T2_8,32,9999,9999,9999,9999,577101884
6,9,Ticks_ISO_T2_8,33,9999,9999,9999,9999,577901620
6,9,Ticks_ISO_T2_8,34,9999,9999,9999,9999,578701428
6,9,Ticks_ISO_T2_8,35,9999,9999,9999,9999,579501116
6,9,Ticks_ISO_T2_8,36,9999,9999,9999,9999,580301896
6,9,Ticks_ISO_T2_8,37,9999,9999,9999,9999,581101632
6,9,Ticks_ISO_T2_8,38,9999,9999,9999,9999,581901364
6,9,Ticks_ISO_T2_8,39,9999,9999,9999,9999,582701172
6,9,Ticks_ISO_T2_8,40,9999,9999,9999,9999,583501872
6,9,Ticks_ISO_T2_8,41,9999,9999,9999,9999,584301680
6,9,Ticks_ISO_T2_8,42,9999,9999,9999,9999,585101412
6,9,Ticks_ISO_T2_8,43,9999,9999,9999,9999,585901172
6,9,Ticks_ISO_T2_8,44,9999,9999,9999,9999,586701884
6,9,Ticks_ISO_T2_8,45,9999,9999,9999,9999,587501620
6,9,Ticks_ISO_T2_8,46,9999,9999,9999,9999,588301428
6,9,Ticks_ISO_T2_8,47,9999,9999,9999,9999,589101160
6,9,Ticks_ISO_T2_8,48,9999,9999,9999,9999,589901940
6,9,Ticks_ISO_T2_8,49,9999,9999,9999,9999,590701672
6,9,Ticks_ISO_T2_8,50,9999,9999,9999,9999,591501404
6,9,Ticks_ISO_T2_8,51,9999,9999,9999,9999,592301144
6,9,Ticks_ISO_T2_8,52,9999,9999,9999,9999,593101924
6,9,Ticks_ISO_T2_8,53,9999,9999,9999,9999,593901676
6,9,Ticks_ISO_T2_8,54,9999,9999,9999,9999,594701392
6,9,Ticks_ISO_T2_8,55,9999,9999,9999,9999,595501120
6,9,Ticks_ISO_T2_8,56,9999,9999,9999,9999,596301900
6,9,Ticks_ISO_T2_8,57,9999,9999,9999,9999,597101636
6,9,Ticks_ISO_T2_8,58,9999,9999,9999,9999,597901368
6,9,Ticks_ISO_T2_8,59,9999,9999,9999,9999,598701124
6,9,Ticks_ISO_T2_8,60,9999,9999,9999,9999,599501904
6,9,Ticks_ISO_T2_8,61,9999,9999,9999,9999,600301640
6,9,Ticks_ISO_T2_8,62,9999,9999,9999,9999,601101372
6,9,Ticks_ISO_T2_8,63,9999,9999,9999,9999,601901108
6,9,Ticks_ISO_T2_8,64,9999,9999,9999,9999,602701908
6,9,Ticks_ISO_T2_8,65,9999,9999,9999,9999,603501624
6,9,Ticks_ISO_T2_8,66,9999,9999,9999,9999,604301452
6,9,Ticks_ISO_T2_8,67,9999,9999,9999,9999,605101116
6,9,Ticks_ISO_T2_8,68,9999,9999,9999,9999,605901896
6,9,Ticks_ISO_T2_8,69,9999,9999,9999,9999,606701628
6,9,Ticks_ISO_T2_8,70,9999,9999,9999,9999,607501364
6,9,Ticks_ISO_T2_8,71,9999,9999,9999,9999,608301164
6,9,Ticks_ISO_T2_8,72,9999,9999,9999,9999,609101876
6,9,Ticks_ISO_T2_8,73,9999,9999,9999,9999,609901684
6,9,Ticks_ISO_T2_8,74,9999,9999,9999,9999,610701368
6,9,Ticks_ISO_T2_8,75,9999,9999,9999,9999,611501168
6,9,Ticks_ISO_T2_8,76,9999,9999,9999,9999,612301884
6,9,Ticks_ISO_T2_8,77,9999,9999,9999,9999,613101616
6,9,Ticks_ISO_T2_8,78,9999,9999,9999,9999,613901424
6,9,Ticks_ISO_T2_8,79,9999,9999,9999,9999,614701156
6,9,Ticks_ISO_T2_8,80,9999,9999,9999,9999,615501936
6,9,Ticks_ISO_T2_8,81,9999,9999,9999,9999,616301668
6,9,Ticks_ISO_T2_8,82,9999,9999,9999,9999,617101424
6,9,Ticks_ISO_T2_8,83,9999,9999,9999,9999,617901160
6,9,Ticks_ISO_T2_8,84,9999,9999,9999,9999,618701940
6,9,Ticks_ISO_T2_8,85,9999,9999,9999,9999,619501672
6,9,Ticks_ISO_T2_8,86,9999,9999,9999,9999,620301404
6,9,Ticks_ISO_T2_8,87,9999,9999,9999,9999,621101136
6,9,Ticks_ISO_T2_8,88,9999,9999,9999,9999,621901916
6,9,Ticks_ISO_T2_8,89,9999,9999,9999,9999,622701644
6,9,Ticks_ISO_T2_8,90,9999,9999,9999,9999,623501404
6,9,Ticks_ISO_T2_8,91,9999,9999,9999,9999,624301136
6,9,Ticks_ISO_T2_8,92,9999,9999,9999,9999,625101916
6,9,Ticks_ISO_T2_8,93,9999,9999,9999,9999,625901652
6,9,Ticks_ISO_T2_8,94,9999,9999,9999,9999,626701368
6,9,Ticks_ISO_T2_8,95,9999,9999,9999,9999,627501116
6,9,Ticks_ISO_T2_8,96,9999,9999,9999,9999,628301896
6,9,Ticks_ISO_T2_8,97,9999,9999,9999,9999,629101628
6,9,Ticks_ISO_T2_8,98,9999,9999,9999,9999,629901364
6,9,Ticks_ISO_T2_8,99,9999,9999,9999,9999,630701168
6,9,Ticks_ISO_T2_8,100,9999,9999,9999,9999,631501876
6,9,Ticks_ISO_T2_8,101,9999,9999,9999,9999,632301684
6,9,Ticks_ISO_T2_8,102,9999,9999,9999,9999,633101416
6,9,Ticks_ISO_T2_8,103,9999,9999,9999,9999,633901152
6,9,Ticks_ISO_T2_8,104,9999,9999,9999,9999,634701932
6,9,Ticks_ISO_T2_8,105,9999,9999,9999,9999,635501664
6,9,Ticks_ISO_T2_8,106,9999,9999,9999,9999,636301424
6,9,Ticks_ISO_T2_8,107,9999,9999,9999,9999,637101156
6,9,Ticks_ISO_T2_8,108,9999,9999,9999,9999,637901936
6,9,Ticks_ISO_T2_8,109,9999,9999,9999,9999,638701668
6,9,Ticks_ISO_T2_8,110,9999,9999,9999,9999,639501404
6,9,Ticks_ISO_T2_8,111,9999,9999,9999,9999,640301140
6,9,Ticks_ISO_T2_8,112,9999,9999,9999,9999,641101924
6,9,Ticks_ISO_T2_8,113,9999,9999,9999,9999,641901660
6,9,Ticks_ISO_T2_8,114,9999,9999,9999,9999,642701416
6,9,Ticks_ISO_T2_8,115,9999,9999,9999,9999,643501144
6,9,Ticks_ISO_T2_8,116,9999,9999,9999,9999,644301924
6,9,Ticks_ISO_T2_8,117,9999,9999,9999,9999,645101656
6,9,Ticks_ISO_T2_8,118,9999,9999,9999,9999,645901396
6,9,Ticks_ISO_T2_8,119,9999,9999,9999,9999,646701124
7,21,Ticks_Linear_5,0,5,42,127,657163828
7,21,Ticks_Linear_5,1,5,42,127,657643856
7,21,Ticks_Linear_5,2,1,48,36,657734292
7,21,Ticks_Linear_5,3,5,42,127,658124008
7,21,Ticks_Linear_5,4,1,48,33,658201636
7,21,Ticks_Linear_5,5,5,42,127,658604460
7,21,Ticks_Linear_5,6,1,48,35,658665916
7,21,Ticks_Linear_5,7,5,42,127,659083792
7,21,Ticks_Linear_5,8,1,48,35,659184564
7,21,Ticks_Linear_5,9,5,42,127,659574180
7,21,Ticks_Linear_5,10,1,48,28,659680960
7,21,Ticks_Linear_5,11,5,42,127,660063768
7,21,Ticks_Linear_5,12,1,48,32,660135584
7,21,Ticks_Linear_5,13,5,42,127,660554036
7,21,Ticks_Linear_5,14,1,48,27,660633416
7,21,Ticks_Linear_5,15,5,42,127,661043548
7,21,Ticks_Linear_5,16,1,48,20,661145772
7,21,Ticks_Linear_5,17,5,42,127,661534112
7,21,Ticks_Linear_5,18,1,48,24,661639972
7,21,Ticks_Linear_5,19,5,42,127,662033960
7,21,Ticks_Linear_5,20,1,48,29,662180808
7,21,Ticks_Linear_5,21,5,42,127,662533364
7,21,Ticks_Linear_5,22,1,48,31,662714740
7,21,Ticks_Linear_5,23,5,42,127,663034184
7,21,Ticks_Linear_5,24,1,48,31,663227844
7,21,Ticks_Linear_5,25,5,42,127,663533884
7,21,Ticks_Linear_5,26,1,48,29,663766116
7,21,Ticks_Linear_5,27,5,42,127,664033584
7,21,Ticks_Linear_5,28,1,48,25,664331792
7,21,Ticks_Linear_5,29,5,42,127,664543768
7,21,Ticks_Linear_5,30,1,48,30,664986676
7,21,Ticks_Linear_5,31,5,42,127,665053740
7,21,Ticks_Linear_5,32,5,42,127,665563556
7,21,Ticks_Linear_5,33,1,48,27,665598504
7,21,Ticks_Linear_5,34,5,42,127,666073444
7,21,Ticks_Linear_5,35,1,48,24,666135196
7,21,Ticks_Linear_5,36,5,42,127,666584300
7,21,Ticks_Linear_5,37,1,48,26,666643284
7,21,Ticks_Linear_5,38,5,42,127,667113804
7,21,Ticks_Linear_5,39,1,48,27,667128904
7,21,Ticks_Linear_5,40,5,42,127,667633948
7,21,Ticks_Linear_5,41,1,48,28,667676684
7,21,Ticks_Linear_5,42,5,42,127,668154088
7,21,Ticks_Linear_5,43,1,48,28,668213528
7,21,Ticks_Linear_5,44,5,42,127,668674380
7,21,Ticks_Linear_5,45,1,48,28,668764972
7,21,Ticks_Linear_5,46,5,42,127,669203812
7,21,Ticks_Linear_5,47,1,48,22,669306604
7,21,Ticks_Linear_5,48,5,42,127,669734364
7,21,Ticks_Linear_5,49,1,48,22,669843104
7,21,Ticks_Linear_5,50,5,42,127,670263648
7,21,Ticks_Linear_5,51,1,48,21,670341200
7,21,Ticks_Linear_5,52,5,42,127,670794052
7,21,Ticks_Linear_5,53,1,48,21,670827272
7,21,Ticks_Linear_5,54,1,48,21,671320208
7,21,Ticks_Linear_5,55,5,42,127,671323620
7,21,Ticks_Linear_5,56,1,48,29,671838852
7,21,Ticks_Linear_5,57,5,42,127,671854024
7,21,Ticks_Linear_5,58,1,48,26,672383568
7,21,Ticks_Linear_5,59,5,42,127,672393716
7,21,Ticks_Linear_5,60,5,42,127,672934480
7,21,Ticks_Linear_5,61,1,48,20,672975568
7,21,Ticks_Linear_5,62,1,48,18,673445896
7,21,Ticks_Linear_5,63,5,42,127,673473792
7,21,Ticks_Linear_5,64,1,48,28,673988496
7,21,Ticks_Linear_5,65,5,42,127,674013704
7,21,Ticks_Linear_5,66,1,48,23,674514784
7,21,Ticks_Linear_5,67,5,42,127,674554220
7,21,Ticks_Linear_5,68,1,48,24,675064140
7,21,Ticks_Linear_5,69,5,42,127,675104240
7,21,Ticks_Linear_5,70,1,48,26,675584432
7,21,Ticks_Linear_5,71,5,42,127,675654116
7,21,Ticks_Linear_5,72,1,48,26,676159764
7,21,Ticks_Linear_5,73,5,42,127,676203840
7,21,Ticks_Linear_5,74,1,48,22,676657140
7,21,Ticks_Linear_5,75,5,42,127,676753724
7,21,Ticks_Linear_5,76,1,48,28,677213008
7,21,Ticks_Linear_5,77,5,42,127,677303540
7,21,Ticks_Linear_5,78,1,48,28,677802452
7,21,Ticks_Linear_5,79,5,42,127,677863672
7,21,Ticks_Linear_5,80,1,48,25,678385420
7,21,Ticks_Linear_5,81,5,42,127,678423880
7,21,Ticks_Linear_5,82,1,48,26,678963680
7,21,Ticks_Linear_5,83,5,42,127,678984012
7,21,Ticks_Linear_5,84,5,42,127,679544228
7,21,Ticks_Linear_5,85,1,48,25,679556856
7,21,Ticks_Linear_5,86,5,42,127,680104680
7,21,Ticks_Linear_5,87,1,48,17,680126448
7,21,Ticks_Linear_5,88,1,48,27,680655112
7,21,Ticks_Linear_5,89,5,42,127,680673572
7,21,Ticks_Linear_5,90,1,48,25,681229092
7,21,Ticks_Linear_5,91,5,42,127,681244040
7,21,Ticks_Linear_5,92,1,48,21,681790348
7,21,Ticks_Linear_5,93,5,42,127,681814508
7,21,Ticks_Linear_5,94,1,48,23,682341584
7,21,Ticks_Linear_5,95,5,42,127,682383728
7,21,Ticks_Linear_5,96,1,48,27,682919104
7,21,Ticks_Linear_5,97,5,42,127,682953972
7,21,Ticks_Linear_5,98,1,48,27,683502984
7,21,Ticks_Linear_5,99,5,42,127,683533652
7,21,Ticks_Linear_5,100,1,48,24,684075172
7,21,Ticks_Linear_5,101,5,42,127,684114600
7,21,Ticks_Linear_5,102,1,48,21,684660836
7,21,Ticks_Linear_5,103,5,42,127,684693856
7,21,Ticks_Linear_5,104,1,48,22,685257172
7,21,Ticks_Linear_5,105,5,42,127,685273612
7,21,Ticks_Linear_5,106,5,42,127,685853972
7,21,Ticks_Linear_5,107,1,48,21,685874620
7,21,Ticks_Linear_5,108,5,42,127,686443912
7,21,Ticks_Linear_5,109,1,48,22,686472204
7,21,Ticks_Linear_5,110,5,42,127,687033576
7,21,Ticks_Linear_5,111,1,48,23,687046280
7,21,Ticks_Linear_5,112,5,42,127,687623516
7,21,Ticks_Linear_5,113,1,48,25,687630452
7,21,Ticks_Linear_5,114,1,48,24,688211080
7,21,Ticks_Linear_5,115,5,42,127,688214344
7,21,Ticks_Linear_5,116,5,42,127,688804540
7,21,Ticks_Linear_5,117,1,48,23,688837916
7,21,Ticks_Linear_5,118,5,42,127,689404364
7,21,Ticks_Linear_5,119,1,48,21,689420736
7,21,Ticks_Linear_5,120,1,48,24,689966252
7,21,Ticks_Linear_5,121,5,42,127,690004408
7,21,Ticks_Linear_5,122,1,48,21,690566348
7,21,Ticks_Linear_5,123,5,42,127,690604452
7,21,Ticks_Linear_5,124,1,48,21,691145004
7,21,Ticks_Linear_5,125,5,42,127,691203528
7,21,Ticks_Linear_5,126,1,48,25,691756360
7,21,Ticks_Linear_5,127,5,42,127,691803652
7,21,Ticks_Linear_5,128,1,48,26,692375524
7,21,Ticks_Linear_5,129,5,42,127,692413912
7,21,Ticks_Linear_5,130,1,48,22,692992504
7,21,Ticks_Linear_5,131,5,42,127,693024144
7,21,Ticks_Linear_5,132,1,48,26,693605132
7,21,Ticks_Linear_5,133,5,42,127,693634528
7,21,Ticks_Linear_5,134,1,48,25,694239800
7,21,Ticks_Linear_5,135,5,42,127,694253848
7,21,Ticks_Linear_5,136,1,48,22,694848384
7,21,Ticks_Linear_5,137,5,42,127,694864456
7,21,Ticks_Linear_5,138,1,48,23,695455724
7,21,Ticks_Linear_5,139,5,42,127,695483700
7,21,Ticks_Linear_5,140,5,42,127,696104276
7,21,Ticks_Linear_5,141,1,48,23,696136596
7,21,Ticks_Linear_5,142,5,42,127,696723968
7,21,Ticks_Linear_5,143,1,48,20,696747680
7,21,Ticks_Linear_5,144,1,48,24,697343784
7,21,Ticks_Linear_5,145,5,42,127,697345352
7,21,Ticks_Linear_5,146,1,48,25,697959960
7,21,Ticks_Linear_5,147,5,42,127,697963828
7,21,Ticks_Linear_5,148,5,42,127,698593636
7,21,Ticks_Linear_5,149,1,48,19,698610528
7,21,Ticks_Linear_5,150,1,48,21,699217004
7,21,Ticks_Linear_5,151,5,42,127,699224380
7,21,Ticks_Linear_5,152,1,48,26,699811008
7,21,Ticks_Linear_5,153,5,42,127,699864372
7,21,Ticks_Linear_5,154,1,48,27,700444160
7,21,Ticks_Linear_5,155,5,42,127,700504412
7,21,Ticks_Linear_5,156,1,48,29,701080848
7,21,Ticks_Linear_5,157,5,42,127,701144324
7,21,Ticks_Linear_5,158,1,48,26,701710404
7,21,Ticks_Linear_5,159,5,42,127,701784512
7,21,Ticks_Linear_5,160,1,48,27,702350392
7,21,Ticks_Linear_5,161,5,42,127,702424424
7,21,Ticks_Linear_5,162,1,48,25,703024056
7,21,Ticks_Linear_5,163,5,42,127,703064312
7,21,Ticks_Linear_5,164,1,48,25,703681260
7,21,Ticks_Linear_5,165,5,42,127,703704300
7,21,Ticks_Linear_5,166,1,48,26,704297640
7,21,Ticks_Linear_5,167,5,42,127,704344416
7,21,Ticks_Linear_5,168,1,48,27,704971100
7,21,Ticks_Linear_5,169,5,42,127,705004096
7,21,Ticks_Linear_5,170,1,48,28,705614664
7,21,Ticks_Linear_5,171,5,42,127,705654020
7,21,Ticks_Linear_5,172,1,48,19,706235932
7,21,Ticks_Linear_5,173,5,42,127,706304420
7,21,Ticks_Linear_5,174,1,48,30,706919176
7,21,Ticks_Linear_5,175,5,42,127,706953472
7,21,Ticks_Linear_5,176,5,42,127,707603924
7,21,Ticks_Linear_5,177,1,48,30,707611772
7,21,Ticks_Linear_5,178,1,48,26,708242000
7,21,Ticks_Linear_5,179,5,42,127,708264276
7,21,Ticks_Linear_5,180,1,48,30,708899476
7,21,Ticks_Linear_5,181,5,42,127,708923636
7,21,Ticks_Linear_5,182,1,48,29,709539536
7,21,Ticks_Linear_5,183,5,42,127,709584216
7,21,Ticks_Linear_5,184,1,48,31,710232160
7,21,Ticks_Linear_5,185,5,42,127,710243800
7,21,Ticks_Linear_5,186,1,48,30,710876560
7,21,Ticks_Linear_5,187,5,42,127,710904308
7,21,Ticks_Linear_5,188,1,48,31,711557032
7,21,Ticks_Linear_5,189,5,42,127,711574100
7,21,Ticks_Linear_5,190,1,48,31,712229368
7,21,Ticks_Linear_5,191,5,42,127,712243496
7,21,Ticks_Linear_5,192,5,42,127,712914340
7,21,Ticks_Linear_5,193,1,48,27,712925996
7,21,Ticks_Linear_5,194,5,42,127,713584260
7,21,Ticks_Linear_5,195,1,48,24,713591048
7,21,Ticks_Linear_5,196,5,42,127,714253904
7,21,Ticks_Linear_5,197,1,48,29,714272984
7,21,Ticks_Linear_5,198,1,48,29,714924552
7,21,Ticks_Linear_5,199,5,42,127,714933580
7,21,Ticks_Linear_5,200,1,48,29,715593424
7,21,Ticks_Linear_5,201,5,42,127,715613680
7,21,Ticks_Linear_5,202,1,48,29,716292236
7,21,Ticks_Linear_5,203,5,42,127,716293660
7,21,Ticks_Linear_5,204,1,48,34,716955700
7,21,Ticks_Linear_5,205,5,42,127,716973560
7,21,Ticks_Linear_5,206,1,48,31,717636396
7,21,Ticks_Linear_5,207,5,42,127,717654264
7,21,Ticks_Linear_5,208,1,48,32,718337644
7,21,Ticks_Linear_5,209,5,42,127,718343528
7,21,Ticks_Linear_5,210,1,48,28,718996956
7,21,Ticks_Linear_5,211,5,42,127,719033916
7,21,Ticks_Linear_5,212,1,48,34,719712784
7,21,Ticks_Linear_5,213,5,42,127,719724200
7,21,Ticks_Linear_5,214,1,48,29,720385420
7,21,Ticks_Linear_5,215,5,42,127,720414144
7,21,Ticks_Linear_5,216,1,48,31,721066220
7,21,Ticks_Linear_5,217,5,42,127,721104232
7,21,Ticks_Linear_5,218,1,48,33,721770060
7,21,Ticks_Linear_5,219,5,42,127,721803904
7,21,Ticks_Linear_5,220,1,48,32,722441196
7,21,Ticks_Linear_5,221,5,42,127,722504004
7,21,Ticks_Linear_5,222,1,48,34,723176148
7,21,Ticks_Linear_5,223,5,42,127,723203600
7,21,Ticks_Linear_5,224,1,48,29,723881732
7,21,Ticks_Linear_5,225,5,42,127,723904096
7,21,Ticks_Linear_5,226,1,48,31,724583936
7,21,Ticks_Linear_5,227,5,42,127,724604344
7,21,Ticks_Linear_5,228,1,48,33,725297392
7,21,Ticks_Linear_5,229,5,42,127,725313980
7,21,Ticks_Linear_5,230,1,48,29,725987176
7,21,Ticks_Linear_5,231,5,42,127,726023764
7,21,Ticks_Linear_5,232,1,48,29,726689844
7,21,Ticks_Linear_5,233,5,42,127,726734220
7,21,Ticks_Linear_5,234,1,48,34,727382608
7,21,Ticks_Linear_5,235,5,42,127,727443852
7,21,Ticks_Linear_5,236,1,48,29,728128708
7,21,Ticks_Linear_5,237,5,42,127,728153388
7,21,Ticks_Linear_5,238,1,48,27,728851604
7,21,Ticks_Linear_5,239,5,42,127,728874256
7,21,Ticks_Linear_5,240,1,48,30,729565948
7,21,Ticks_Linear_5,241,5,42,127,729594148
7,21,Ticks_Linear_5,242,1,48,30,730275064
7,21,Ticks_Linear_5,243,5,42,127,730314044
7,21,Ticks_Linear_5,244,5,42,127,731033944
7,21,Ticks_Linear_5,245,1,48,29,731037212
7,21,Ticks_Linear_5,246,1,48,29,731727928
7,21,Ticks_Linear_5,247,5,42,127,731753732
7,21,Ticks_Linear_5,248,1,48,32,732472912
7,21,Ticks_Linear_5,249,5,42,127,732483956
7,21,Ticks_Linear_5,250,1,48,32,733196920
7,21,Ticks_Linear_5,251,5,42,127,733214036
7,21,Ticks_Linear_5,252,5,42,127,733944268
7,21,Ticks_Linear_5,253,1,48,34,733955256
7,21,Ticks_Linear_5,254,1,48,30,734641728
7,21,Ticks_Linear_5,255,5,42,127,734674264
7,21,Ticks_Linear_5,256,1,48,33,735394712
7,21,Ticks_Linear_5,257,5,42,127,735404716
7,21,Ticks_Linear_5,258,1,48,27,736136100
7,21,Ticks_Linear_5,259,5,42,127,736143632
7,21,Ticks_Linear_5,260,5,42,127,736883952
7,21,Ticks_Linear_5,261,1,48,35,736888564
7,21,Ticks_Linear_5,262,1,48,25,737576756
7,21,Ticks_Linear_5,263,5,42,127,737624652
7,21,Ticks_Linear_5,264,1,48,34,738357316
7,21,Ticks_Linear_5,265,5,42,127,738374056
7,21,Ticks_Linear_5,266,1,48,26,739098848
7,21,Ticks_Linear_5,267,5,42,127,739114468
7,21,Ticks_Linear_5,268,1,48,32,739814556
7,21,Ticks_Linear_5,269,5,42,127,739863796
7,21,Ticks_Linear_5,270,1,48,28,740561100
7,21,Ticks_Linear_5,271,5,42,127,740613568
7,21,Ticks_Linear_5,272,1,48,31,741281364
7,21,Ticks_Linear_5,273,5,42,127,741364164
7,21,Ticks_Linear_5,274,1,48,32,742037136
7,21,Ticks_Linear_5,275,5,42,127,742113640
7,21,Ticks_Linear_5,276,1,48,30,742832072
7,21,Ticks_Linear_5,277,5,42,127,742864236
7,21,Ticks_Linear_5,278,1,48,31,743557256
7,21,Ticks_Linear_5,279,5,42,127,743624044
7,21,Ticks_Linear_5,280,1,48,33,744337080
7,21,Ticks_Linear_5,281,5,42,127,744383852
7,21,Ticks_Linear_5,282,1,48,31,745083684
7,21,Ticks_Linear_5,283,5,42,127,745143660
7,21,Ticks_Linear_5,284,1,48,32,745856148
7,21,Ticks_Linear_5,285,5,42,127,745903616
7,21,Ticks_Linear_5,286,1,48,24,746581424
7,21,Ticks_Linear_5,287,5,42,127,746664172
7,21,Ticks_Linear_5,288,1,48,32,747367372
7,21,Ticks_Linear_5,289,5,42,127,747434464
7,21,Ticks_Linear_5,290,1,48,29,748140060
7,21,Ticks_Linear_5,291,5,42,127,748204532
7,21,Ticks_Linear_5,292,1,48,29,748916568
7,21,Ticks_Linear_5,293,5,42,127,748973552
7,21,Ticks_Linear_5,294,1,48,31,749679296
7,21,Ticks_Linear_5,295,5,42,127,749743396
7,21,Ticks_Linear_5,296,1,48,27,750431848
7,21,Ticks_Linear_5,297,5,42,127,750513540
7,21,Ticks_Linear_5,298,1,48,25,751172556
7,21,Ticks_Linear_5,299,5,42,127,751293700
7,21,Ticks_Linear_5,300,1,48,27,751919408
7,21,Ticks_Linear_5,301,5,42,127,752074176
7,21,Ticks_Linear_5,302,1,48,29,752814344
7,21,Ticks_Linear_5,303,5,42,127,752854592
7,21,Ticks_Linear_5,304,1,48,29,753609940
7,21,Ticks_Linear_5,305,5,42,127,753633648
7,21,Ticks_Linear_5,306,5,42,127,754413908
7,21,Ticks_Linear_5,307,1,48,28,754421816
7,21,Ticks_Linear_5,308,5,42,127,755203524
7,21,Ticks_Linear_5,309,1,48,31,755220340
7,21,Ticks_Linear_5,310,5,42,127,755993964
7,21,Ticks_Linear_5,311,1,48,26,756036624
7,21,Ticks_Linear_5,312,5,42,127,756783652
7,21,Ticks_Linear_5,313,1,48,26,756794712
7,21,Ticks_Linear_5,314,1,48,28,757563856
7,21,Ticks_Linear_5,315,5,42,127,757574152
7,21,Ticks_Linear_5,316,5,42,127,758363552
7,21,Ticks_Linear_5,317,1,48,29,758391600
7,21,Ticks_Linear_5,318,1,48,29,759127280
7,21,Ticks_Linear_5,319,5,42,127,759164240
7,21,Ticks_Linear_5,320,1,48,30,759898840
7,21,Ticks_Linear_5,321,5,42,127,759963912
7,21,Ticks_Linear_5,322,1,48,30,760697812
7,21,Ticks_Linear_5,323,5,42,127,760763712
7,21,Ticks_Linear_5,324,1,48,28,761512472
7,21,Ticks_Linear_5,325,5,42,127,761563584
7,21,Ticks_Linear_5,326,1,48,25,762300204
7,21,Ticks_Linear_5,327,5,42,127,762364504
7,21,Ticks_Linear_5,328,1,48,28,763121640
7,21,Ticks_Linear_5,329,5,42,127,763174188
7,21,Ticks_Linear_5,330,1,48,31,763938372
7,21,Ticks_Linear_5,331,5,42,127,763984244
7,21,Ticks_Linear_5,332,1,48,30,764731588
7,21,Ticks_Linear_5,333,5,42,127,764794152
7,21,Ticks_Linear_5,334,1,48,25,765565080
7,21,Ticks_Linear_5,335,5,42,127,765604308
7,21,Ticks_Linear_5,336,1,48,24,766401216
7,21,Ticks_Linear_5,337,5,42,127,766414296
7,21,Ticks_Linear_5,0,9999,9999,9999,9999,657161308
7,21,Ticks_Linear_5,1,9999,9999,9999,9999,657641556
7,21,Ticks_Linear_5,2,9999,9999,9999,9999,658121784
7,21,Ticks_Linear_5,3,9999,9999,9999,9999,658602088
7,21,Ticks_Linear_5,4,9999,9999,9999,9999,659081316
7,21,Ticks_Linear_5,5,9999,9999,9999,9999,659571804
7,21,Ticks_Linear_5,6,9999,9999,9999,9999,660061248
7,21,Ticks_Linear_5,7,9999,9999,9999,9999,660551736
7,21,Ticks_Linear_5,8,9999,9999,9999,9999,661041252
7,21,Ticks_Linear_5,9,9999,9999,9999,9999,661531740
7,21,Ticks_Linear_5,10,9999,9999,9999,9999,662031440
7,21,Ticks_Linear_5,11,9999,9999,9999,9999,662531140
7,21,Ticks_Linear_5,12,9999,9999,9999,9999,663031888
7,21,Ticks_Linear_5,13,9999,9999,9999,9999,663531588
7,21,Ticks_Linear_5,14,9999,9999,9999,9999,664031284
7,21,Ticks_Linear_5,15,9999,9999,9999,9999,664541244
7,21,Ticks_Linear_5,16,9999,9999,9999,9999,665051220
7,21,Ticks_Linear_5,17,9999,9999,9999,9999,665561184
7,21,Ticks_Linear_5,18,9999,9999,9999,9999,666071144
7,21,Ticks_Linear_5,19,9999,9999,9999,9999,666582076
7,21,Ticks_Linear_5,20,9999,9999,9999,9999,667111504
7,21,Ticks_Linear_5,21,9999,9999,9999,9999,667631724
7,21,Ticks_Linear_5,22,9999,9999,9999,9999,668151864
7,21,Ticks_Linear_5,23,9999,9999,9999,9999,668672084
7,21,Ticks_Linear_5,24,9999,9999,9999,9999,669201512
7,21,Ticks_Linear_5,25,9999,9999,9999,9999,669731916
7,21,Ticks_Linear_5,26,9999,9999,9999,9999,670261348
7,21,Ticks_Linear_5,27,9999,9999,9999,9999,670791752
7,21,Ticks_Linear_5,28,9999,9999,9999,9999,671321176
7,21,Ticks_Linear_5,29,9999,9999,9999,9999,671851576
7,21,Ticks_Linear_5,30,9999,9999,9999,9999,672391268
7,21,Ticks_Linear_5,31,9999,9999,9999,9999,672931960
7,21,Ticks_Linear_5,32,9999,9999,9999,9999,673471568
7,21,Ticks_Linear_5,33,9999,9999,9999,9999,674011260
7,21,Ticks_Linear_5,34,9999,9999,9999,9999,674551920
7,21,Ticks_Linear_5,35,9999,9999,9999,9999,675101796
7,21,Ticks_Linear_5,36,9999,9999,9999,9999,675651668
7,21,Ticks_Linear_5,37,9999,9999,9999,9999,676201544
7,21,Ticks_Linear_5,38,9999,9999,9999,9999,676751428
7,21,Ticks_Linear_5,39,9999,9999,9999,9999,677301316
7,21,Ticks_Linear_5,40,9999,9999,9999,9999,677861448
7,21,Ticks_Linear_5,41,9999,9999,9999,9999,678421580
7,21,Ticks_Linear_5,42,9999,9999,9999,9999,678981716
7,21,Ticks_Linear_5,43,9999,9999,9999,9999,679541856
7,21,Ticks_Linear_5,44,9999,9999,9999,9999,680102008
7,21,Ticks_Linear_5,45,9999,9999,9999,9999,680671352
7,21,Ticks_Linear_5,46,9999,9999,9999,9999,681241668
7,21,Ticks_Linear_5,47,9999,9999,9999,9999,681812060
7,21,Ticks_Linear_5,48,9999,9999,9999,9999,682381428
7,21,Ticks_Linear_5,49,9999,9999,9999,9999,682951748
7,21,Ticks_Linear_5,50,9999,9999,9999,9999,683531352
7,21,Ticks_Linear_5,51,9999,9999,9999,9999,684111928
7,21,Ticks_Linear_5,52,9999,9999,9999,9999,684691560
7,21,Ticks_Linear_5,53,9999,9999,9999,9999,685271168
7,21,Ticks_Linear_5,54,9999,9999,9999,9999,685851748
7,21,Ticks_Linear_5,55,9999,9999,9999,9999,686441540
7,21,Ticks_Linear_5,56,9999,9999,9999,9999,687031352
7,21,Ticks_Linear_5,57,9999,9999,9999,9999,687621216
7,21,Ticks_Linear_5,58,9999,9999,9999,9999,688212048
7,21,Ticks_Linear_5,59,9999,9999,9999,9999,688801868
7,21,Ticks_Linear_5,60,9999,9999,9999,9999,689401916
7,21,Ticks_Linear_5,61,9999,9999,9999,9999,690002036
7,21,Ticks_Linear_5,62,9999,9999,9999,9999,690602080
7,21,Ticks_Linear_5,63,9999,9999,9999,9999,691201084
7,21,Ticks_Linear_5,64,9999,9999,9999,9999,691801208
7,21,Ticks_Linear_5,65,9999,9999,9999,9999,692411464
7,21,Ticks_Linear_5,66,9999,9999,9999,9999,693021772
7,21,Ticks_Linear_5,67,9999,9999,9999,9999,693632080
7,21,Ticks_Linear_5,68,9999,9999,9999,9999,694251624
7,21,Ticks_Linear_5,69,9999,9999,9999,9999,694861932
7,21,Ticks_Linear_5,70,9999,9999,9999,9999,695481404
7,21,Ticks_Linear_5,71,9999,9999,9999,9999,696101976
7,21,Ticks_Linear_5,72,9999,9999,9999,9999,696721520
7,21,Ticks_Linear_5,73,9999,9999,9999,9999,697342012
7,21,Ticks_Linear_5,74,9999,9999,9999,9999,697961528
7,21,Ticks_Linear_5,75,9999,9999,9999,9999,698591340
7,21,Ticks_Linear_5,76,9999,9999,9999,9999,699222084
7,21,Ticks_Linear_5,77,9999,9999,9999,9999,699862072
7,21,Ticks_Linear_5,78,9999,9999,9999,9999,700502112
7,21,Ticks_Linear_5,79,9999,9999,9999,9999,701142100
7,21,Ticks_Linear_5,80,9999,9999,9999,9999,701782140
7,21,Ticks_Linear_5,81,9999,9999,9999,9999,702422128
7,21,Ticks_Linear_5,82,9999,9999,9999,9999,703062088
7,21,Ticks_Linear_5,83,9999,9999,9999,9999,703702076
7,21,Ticks_Linear_5,84,9999,9999,9999,9999,704342116
7,21,Ticks_Linear_5,85,9999,9999,9999,9999,705001576
7,21,Ticks_Linear_5,86,9999,9999,9999,9999,705651800
7,21,Ticks_Linear_5,87,9999,9999,9999,9999,706302048
7,21,Ticks_Linear_5,88,9999,9999,9999,9999,706951224
7,21,Ticks_Linear_5,89,9999,9999,9999,9999,707601476
7,21,Ticks_Linear_5,90,9999,9999,9999,9999,708261976
7,21,Ticks_Linear_5,91,9999,9999,9999,9999,708921412
7,21,Ticks_Linear_5,92,9999,9999,9999,9999,709581916
7,21,Ticks_Linear_5,93,9999,9999,9999,9999,710241352
7,21,Ticks_Linear_5,94,9999,9999,9999,9999,710901860
7,21,Ticks_Linear_5,95,9999,9999,9999,9999,711571576
7,21,Ticks_Linear_5,96,9999,9999,9999,9999,712241272
7,21,Ticks_Linear_5,97,9999,9999,9999,9999,712911968
7,21,Ticks_Linear_5,98,9999,9999,9999,9999,713581664
7,21,Ticks_Linear_5,99,9999,9999,9999,9999,714251384
7,21,Ticks_Linear_5,100,9999,9999,9999,9999,714931280
7,21,Ticks_Linear_5,101,9999,9999,9999,9999,715611236
7,21,Ticks_Linear_5,102,9999,9999,9999,9999,716291144
7,21,Ticks_Linear_5,103,9999,9999,9999,9999,716971116
7,21,Ticks_Linear_5,104,9999,9999,9999,9999,717652040
7,21,Ticks_Linear_5,105,9999,9999,9999,9999,718341232
7,21,Ticks_Linear_5,106,9999,9999,9999,9999,719031396
7,21,Ticks_Linear_5,107,9999,9999,9999,9999,719721532
7,21,Ticks_Linear_5,108,9999,9999,9999,9999,720411768
7,21,Ticks_Linear_5,109,9999,9999,9999,9999,721101932
7,21,Ticks_Linear_5,110,9999,9999,9999,9999,721801308
7,21,Ticks_Linear_5,111,9999,9999,9999,9999,722501704
7,21,Ticks_Linear_5,112,9999,9999,9999,9999,723201080
7,21,Ticks_Linear_5,113,9999,9999,9999,9999,723901500
7,21,Ticks_Linear_5,114,9999,9999,9999,9999,724601972
7,21,Ticks_Linear_5,115,9999,9999,9999,9999,725311608
7,21,Ticks_Linear_5,116,9999,9999,9999,9999,726021244
7,21,Ticks_Linear_5,117,9999,9999,9999,9999,726731848
7,21,Ticks_Linear_5,118,9999,9999,9999,9999,727441480
7,21,Ticks_Linear_5,119,9999,9999,9999,9999,728151164
7,21,Ticks_Linear_5,120,9999,9999,9999,9999,728872032
7,21,Ticks_Linear_5,121,9999,9999,9999,9999,729591924
7,21,Ticks_Linear_5,122,9999,9999,9999,9999,730311744
7,21,Ticks_Linear_5,123,9999,9999,9999,9999,731031644
7,21,Ticks_Linear_5,124,9999,9999,9999,9999,731751508
7,21,Ticks_Linear_5,125,9999,9999,9999,9999,732481660
7,21,Ticks_Linear_5,126,9999,9999,9999,9999,733211736
7,21,Ticks_Linear_5,127,9999,9999,9999,9999,733941820
7,21,Ticks_Linear_5,128,9999,9999,9999,9999,734671964
7,21,Ticks_Linear_5,129,9999,9999,9999,9999,735402044
7,21,Ticks_Linear_5,130,9999,9999,9999,9999,736141408
7,21,Ticks_Linear_5,131,9999,9999,9999,9999,736881728
7,21,Ticks_Linear_5,132,9999,9999,9999,9999,737622132
7,21,Ticks_Linear_5,133,9999,9999,9999,9999,738371680
7,21,Ticks_Linear_5,134,9999,9999,9999,9999,739112020
7,21,Ticks_Linear_5,135,9999,9999,9999,9999,739861572
7,21,Ticks_Linear_5,136,9999,9999,9999,9999,740611192
7,21,Ticks_Linear_5,137,9999,9999,9999,9999,741361792
7,21,Ticks_Linear_5,138,9999,9999,9999,9999,742111340
7,21,Ticks_Linear_5,139,9999,9999,9999,9999,742861936
7,21,Ticks_Linear_5,140,9999,9999,9999,9999,743621744
7,21,Ticks_Linear_5,141,9999,9999,9999,9999,744381552
7,21,Ticks_Linear_5,142,9999,9999,9999,9999,745141360
7,21,Ticks_Linear_5,143,9999,9999,9999,9999,745901168
7,21,Ticks_Linear_5,144,9999,9999,9999,9999,746661948
7,21,Ticks_Linear_5,145,9999,9999,9999,9999,747432016
7,21,Ticks_Linear_5,146,9999,9999,9999,9999,748202084
7,21,Ticks_Linear_5,147,9999,9999,9999,9999,748971104
7,21,Ticks_Linear_5,148,9999,9999,9999,9999,749741172
7,21,Ticks_Linear_5,149,9999,9999,9999,9999,750511164
7,21,Ticks_Linear_5,150,9999,9999,9999,9999,751291476
7,21,Ticks_Linear_5,151,9999,9999,9999,9999,752071804
7,21,Ticks_Linear_5,152,9999,9999,9999,9999,752852072
7,21,Ticks_Linear_5,153,9999,9999,9999,9999,753631352
7,21,Ticks_Linear_5,154,9999,9999,9999,9999,754411612
7,21,Ticks_Linear_5,155,9999,9999,9999,9999,755201148
7,21,Ticks_Linear_5,156,9999,9999,9999,9999,755991664
7,21,Ticks_Linear_5,157,9999,9999,9999,9999,756781128
7,21,Ticks_Linear_5,158,9999,9999,9999,9999,757571708
7,21,Ticks_Linear_5,159,9999,9999,9999,9999,758361180
7,21,Ticks_Linear_5,160,9999,9999,9999,9999,759161940
7,21,Ticks_Linear_5,161,9999,9999,9999,9999,759961688
7,21,Ticks_Linear_5,162,9999,9999,9999,9999,760761412
7,21,Ticks_Linear_5,163,9999,9999,9999,9999,761561212
7,21,Ticks_Linear_5,164,9999,9999,9999,9999,762361980
7,21,Ticks_Linear_5,165,9999,9999,9999,9999,763171964
7,21,Ticks_Linear_5,166,9999,9999,9999,9999,763981944
7,21,Ticks_Linear_5,167,9999,9999,9999,9999,764791932
7,21,Ticks_Linear_5,168,9999,9999,9999,9999,765601864
7,21,Ticks_Linear_5,169,9999,9999,9999,9999,766411848
8,20,Ticks_Linear_8,0,5,42,127,778155512
8,20,Ticks_Linear_8,1,1,48,26,778777404
8,20,Ticks_Linear_8,2,5,42,127,778974560
8,20,Ticks_Linear_8,3,1,48,25,779740256
8,20,Ticks_Linear_8,4,5,42,127,779795040
8,20,Ticks_Linear_8,5,1,48,24,780590000
8,20,Ticks_Linear_8,6,5,42,127,780615132
8,20,Ticks_Linear_8,7,5,42,127,781435232
8,20,Ticks_Linear_8,8,1,48,26,781456432
8,20,Ticks_Linear_8,9,5,42,127,782245244
8,20,Ticks_Linear_8,10,1,48,26,782299060
8,20,Ticks_Linear_8,11,1,48,29,783053032
8,20,Ticks_Linear_8,12,5,42,127,783055144
8,20,Ticks_Linear_8,13,1,48,25,783843748
8,20,Ticks_Linear_8,14,5,42,127,783865204
8,20,Ticks_Linear_8,15,1,48,26,784652832
8,20,Ticks_Linear_8,16,5,42,127,784675332
8,20,Ticks_Linear_8,17,1,48,26,785462816
8,20,Ticks_Linear_8,18,5,42,127,785485168
8,20,Ticks_Linear_8,19,5,42,127,786284972
8,20,Ticks_Linear_8,20,1,48,24,786303524
8,20,Ticks_Linear_8,21,5,42,127,787084868
8,20,Ticks_Linear_8,22,1,48,31,787099520
8,20,Ticks_Linear_8,23,5,42,127,787885492
8,20,Ticks_Linear_8,24,1,48,26,787914748
8,20,Ticks_Linear_8,25,1,48,33,788671908
8,20,Ticks_Linear_8,26,5,42,127,788695692
8,20,Ticks_Linear_8,27,1,48,31,789444984
8,20,Ticks_Linear_8,28,5,42,127,789495268
8,20,Ticks_Linear_8,29,1,48,26,790211220
8,20,Ticks_Linear_8,30,5,42,127,790284808
8,20,Ticks_Linear_8,31,1,48,29,791027424
8,20,Ticks_Linear_8,32,5,42,127,791075096
8,20,Ticks_Linear_8,33,1,48,31,791800708
8,20,Ticks_Linear_8,34,5,42,127,791864784
8,20,Ticks_Linear_8,35,1,48,32,792615864
8,20,Ticks_Linear_8,36,5,42,127,792655220
8,20,Ticks_Linear_8,37,1,48,28,793414316
8,20,Ticks_Linear_8,38,5,42,127,793444984
8,20,Ticks_Linear_8,39,1,48,32,794208944
8,20,Ticks_Linear_8,40,5,42,127,794225012
8,20,Ticks_Linear_8,41,5,42,127,795005200
8,20,Ticks_Linear_8,42,1,48,24,795024672
8,20,Ticks_Linear_8,43,5,42,127,795784504
8,20,Ticks_Linear_8,44,1,48,35,795820124
8,20,Ticks_Linear_8,45,1,48,24,796554528
8,20,Ticks_Linear_8,46,5,42,127,796564896
8,20,Ticks_Linear_8,47,1,48,32,797264136
8,20,Ticks_Linear_8,48,5,42,127,797345004
8,20,Ticks_Linear_8,49,1,48,31,798098776
8,20,Ticks_Linear_8,50,5,42,127,798115068
8,20,Ticks_Linear_8,51,1,48,34,798848748
8,20,Ticks_Linear_8,52,5,42,127,798885136
8,20,Ticks_Linear_8,53,1,48,40,799594932
8,20,Ticks_Linear_8,54,5,42,127,799655204
8,20,Ticks_Linear_8,55,1,48,29,800388980
8,20,Ticks_Linear_8,56,5,42,127,800425272
8,20,Ticks_Linear_8,57,1,48,32,801163248
8,20,Ticks_Linear_8,58,5,42,127,801195340
8,20,Ticks_Linear_8,59,1,48,35,801947616
8,20,Ticks_Linear_8,60,5,42,127,801955152
8,20,Ticks_Linear_8,61,1,48,35,802709600
8,20,Ticks_Linear_8,62,5,42,127,802714884
8,20,Ticks_Linear_8,63,5,42,127,803474776
8,20,Ticks_Linear_8,64,1,48,35,803490624
8,20,Ticks_Linear_8,65,5,42,127,804234660
8,20,Ticks_Linear_8,66,1,48,30,804258828
8,20,Ticks_Linear_8,67,5,42,127,804994596
8,20,Ticks_Linear_8,68,1,48,35,805059600
8,20,Ticks_Linear_8,69,5,42,127,805744896
8,20,Ticks_Linear_8,70,1,48,35,805747640
8,20,Ticks_Linear_8,71,1,48,37,806437332
8,20,Ticks_Linear_8,72,5,42,127,806494660
8,20,Ticks_Linear_8,73,1,48,42,807151228
8,20,Ticks_Linear_8,74,5,42,127,807245108
8,20,Ticks_Linear_8,75,1,48,39,807949980
8,20,Ticks_Linear_8,76,5,42,127,807994732
8,20,Ticks_Linear_8,77,1,48,40,808719452
8,20,Ticks_Linear_8,78,5,42,127,808745628
8,20,Ticks_Linear_8,79,1,48,37,809449680
8,20,Ticks_Linear_8,80,5,42,127,809484548
8,20,Ticks_Linear_8,81,1,48,37,810197508
8,20,Ticks_Linear_8,82,5,42,127,810224960
8,20,Ticks_Linear_8,83,5,42,127,810965524
8,20,Ticks_Linear_8,84,1,48,34,810995308
8,20,Ticks_Linear_8,85,5,42,127,811704592
8,20,Ticks_Linear_8,86,1,48,38,811710180
8,20,Ticks_Linear_8,87,1,48,36,812438592
8,20,Ticks_Linear_8,88,5,42,127,812445000
8,20,Ticks_Linear_8,89,5,42,127,813175132
8,20,Ticks_Linear_8,90,1,48,40,813210176
8,20,Ticks_Linear_8,91,1,48,42,813896928
8,20,Ticks_Linear_8,92,5,42,127,813905352
8,20,Ticks_Linear_8,93,5,42,127,814635584
8,20,Ticks_Linear_8,94,1,48,37,814661316
8,20,Ticks_Linear_8,95,1,48,36,815345028
8,20,Ticks_Linear_8,96,5,42,127,815364760
8,20,Ticks_Linear_8,97,5,42,127,816094620
8,20,Ticks_Linear_8,98,1,48,41,816096488
8,20,Ticks_Linear_8,99,5,42,127,816814520
8,20,Ticks_Linear_8,100,1,48,37,816820852
8,20,Ticks_Linear_8,101,5,42,127,817535360
8,20,Ticks_Linear_8,102,1,48,36,817556400
8,20,Ticks_Linear_8,103,1,48,38,818221576
8,20,Ticks_Linear_8,104,5,42,127,818255172
8,20,Ticks_Linear_8,105,1,48,37,818929940
8,20,Ticks_Linear_8,106,5,42,127,818975140
8,20,Ticks_Linear_8,107,1,48,36,819690944
8,20,Ticks_Linear_8,108,5,42,127,819694960
8,20,Ticks_Linear_8,109,5,42,127,820404456
8,20,Ticks_Linear_8,110,1,48,36,820427268
8,20,Ticks_Linear_8,111,1,48,36,821107800
8,20,Ticks_Linear_8,112,5,42,127,821115252
8,20,Ticks_Linear_8,113,1,48,41,821797436
8,20,Ticks_Linear_8,114,5,42,127,821824884
8,20,Ticks_Linear_8,115,5,42,127,822534600
8,20,Ticks_Linear_8,116,1,48,34,822586996
8,20,Ticks_Linear_8,117,1,48,36,823242084
8,20,Ticks_Linear_8,118,5,42,127,823245276
8,20,Ticks_Linear_8,119,1,48,38,823938372
8,20,Ticks_Linear_8,120,5,42,127,823944700
8,20,Ticks_Linear_8,121,5,42,127,824645104
8,20,Ticks_Linear_8,122,1,48,36,824651892
8,20,Ticks_Linear_8,123,5,42,127,825345380
8,20,Ticks_Linear_8,124,1,48,33,825385940
8,20,Ticks_Linear_8,125,5,42,127,826044680
8,20,Ticks_Linear_8,126,1,48,34,826050264
8,20,Ticks_Linear_8,127,5,42,127,826745376
8,20,Ticks_Linear_8,128,1,48,37,826760052
8,20,Ticks_Linear_8,129,5,42,127,827435244
8,20,Ticks_Linear_8,130,1,48,40,827446076
8,20,Ticks_Linear_8,131,1,48,37,828109032
8,20,Ticks_Linear_8,132,5,42,127,828124500
8,20,Ticks_Linear_8,133,1,48,39,828812856
8,20,Ticks_Linear_8,134,5,42,127,828814592
8,20,Ticks_Linear_8,135,1,48,37,829492096
8,20,Ticks_Linear_8,136,5,42,127,829505028
8,20,Ticks_Linear_8,137,5,42,127,830195196
8,20,Ticks_Linear_8,138,1,48,32,830196608
8,20,Ticks_Linear_8,139,5,42,127,830875028
8,20,Ticks_Linear_8,140,1,48,32,830904136
8,20,Ticks_Linear_8,141,5,42,127,831554904
8,20,Ticks_Linear_8,142,1,48,39,831577796
8,20,Ticks_Linear_8,143,1,48,39,832210788
8,20,Ticks_Linear_8,144,5,42,127,832234876
8,20,Ticks_Linear_8,145,5,42,127,832914712
8,20,Ticks_Linear_8,146,1,48,38,832941716
8,20,Ticks_Linear_8,147,5,42,127,833594892
8,20,Ticks_Linear_8,148,1,48,38,833602664
8,20,Ticks_Linear_8,149,5,42,127,834264536
8,20,Ticks_Linear_8,150,1,48,40,834297388
8,20,Ticks_Linear_8,151,5,42,127,834935128
8,20,Ticks_Linear_8,152,1,48,40,834949952
8,20,Ticks_Linear_8,153,5,42,127,835604776
8,20,Ticks_Linear_8,154,1,48,36,835637552
8,20,Ticks_Linear_8,155,5,42,127,836274420
8,20,Ticks_Linear_8,156,1,48,40,836293940
8,20,Ticks_Linear_8,157,5,42,127,836945160
8,20,Ticks_Linear_8,158,1,48,41,836963036
8,20,Ticks_Linear_8,159,5,42,127,837604620
8,20,Ticks_Linear_8,160,1,48,44,837616276
8,20,Ticks_Linear_8,161,5,42,127,838265104
8,20,Ticks_Linear_8,162,1,48,35,838290332
8,20,Ticks_Linear_8,163,5,42,127,838924636
8,20,Ticks_Linear_8,164,1,48,39,838944984
8,20,Ticks_Linear_8,165,5,42,127,839585144
8,20,Ticks_Linear_8,166,1,48,35,839597996
8,20,Ticks_Linear_8,167,1,48,35,840202132
8,20,Ticks_Linear_8,168,5,42,127,840244572
8,20,Ticks_Linear_8,169,5,42,127,840894976
8,20,Ticks_Linear_8,170,1,48,34,840926484
8,20,Ticks_Linear_8,171,5,42,127,841545272
8,20,Ticks_Linear_8,172,1,48,24,841597148
8,20,Ticks_Linear_8,173,5,42,127,842195224
8,20,Ticks_Linear_8,174,1,48,30,842203440
8,20,Ticks_Linear_8,175,5,42,127,842844476
8,20,Ticks_Linear_8,176,1,48,34,842872988
8,20,Ticks_Linear_8,177,5,42,127,843494648
8,20,Ticks_Linear_8,178,1,48,38,843534016
8,20,Ticks_Linear_8,179,5,42,127,844134832
8,20,Ticks_Linear_8,180,1,48,39,844151128
8,20,Ticks_Linear_8,181,5,42,127,844774896
8,20,Ticks_Linear_8,182,1,48,29,844815616
8,20,Ticks_Linear_8,183,5,42,127,845414712
8,20,Ticks_Linear_8,184,1,48,38,845442204
8,20,Ticks_Linear_8,185,5,42,127,846054996
8,20,Ticks_Linear_8,186,1,48,38,846068676
8,20,Ticks_Linear_8,187,5,42,127,846694812
8,20,Ticks_Linear_8,188,1,48,38,846709092
8,20,Ticks_Linear_8,189,5,42,127,847324396
8,20,Ticks_Linear_8,190,1,48,40,847358068
8,20,Ticks_Linear_8,191,5,42,127,847955368
8,20,Ticks_Linear_8,192,1,48,35,848043812
8,20,Ticks_Linear_8,193,5,42,127,848584948
8,20,Ticks_Linear_8,194,1,48,38,848651568
8,20,Ticks_Linear_8,195,5,42,127,849215028
8,20,Ticks_Linear_8,196,1,48,39,849287376
8,20,Ticks_Linear_8,197,5,42,127,849844536
8,20,Ticks_Linear_8,198,1,48,39,849941256
8,20,Ticks_Linear_8,199,5,42,127,850465176
8,20,Ticks_Linear_8,200,1,48,35,850515404
8,20,Ticks_Linear_8,201,1,48,40,851060832
8,20,Ticks_Linear_8,202,5,42,127,851084640
8,20,Ticks_Linear_8,203,1,48,39,851641280
8,20,Ticks_Linear_8,204,5,42,127,851705208
8,20,Ticks_Linear_8,205,1,48,36,852297352
8,20,Ticks_Linear_8,206,5,42,127,852324876
8,20,Ticks_Linear_8,207,1,48,39,852929996
8,20,Ticks_Linear_8,208,5,42,127,852945168
8,20,Ticks_Linear_8,209,5,42,127,853554512
8,20,Ticks_Linear_8,210,1,48,40,853623236
8,20,Ticks_Linear_8,211,5,42,127,854164992
8,20,Ticks_Linear_8,212,1,48,37,854223460
8,20,Ticks_Linear_8,213,5,42,127,854775304
8,20,Ticks_Linear_8,214,1,48,40,854828672
8,20,Ticks_Linear_8,215,5,42,127,855384488
8,20,Ticks_Linear_8,216,1,48,40,855388660
8,20,Ticks_Linear_8,217,1,48,40,855993308
8,20,Ticks_Linear_8,218,5,42,127,855994964
8,20,Ticks_Linear_8,219,5,42,127,856594872
8,20,Ticks_Linear_8,220,1,48,41,856631540
8,20,Ticks_Linear_8,221,5,42,127,857194996
8,20,Ticks_Linear_8,222,1,48,39,857225176
8,20,Ticks_Linear_8,223,5,42,127,857794848
8,20,Ticks_Linear_8,224,1,48,43,857834064
8,20,Ticks_Linear_8,225,5,42,127,858394972
8,20,Ticks_Linear_8,226,1,48,37,858416664
8,20,Ticks_Linear_8,227,5,42,127,858994948
8,20,Ticks_Linear_8,228,1,48,38,859005852
8,20,Ticks_Linear_8,229,5,42,127,859584760
8,20,Ticks_Linear_8,230,1,48,36,859616860
8,20,Ticks_Linear_8,231,5,42,127,860174772
8,20,Ticks_Linear_8,232,1,48,37,860206576
8,20,Ticks_Linear_8,233,5,42,127,860764488
8,20,Ticks_Linear_8,234,1,48,43,860781156
8,20,Ticks_Linear_8,235,5,42,127,861355276
8,20,Ticks_Linear_8,236,1,48,42,861383788
8,20,Ticks_Linear_8,237,5,42,127,861945212
8,20,Ticks_Linear_8,238,1,48,37,861949900
8,20,Ticks_Linear_8,239,5,42,127,862524892
8,20,Ticks_Linear_8,240,1,48,38,862539020
8,20,Ticks_Linear_8,241,1,48,41,863103020
8,20,Ticks_Linear_8,242,5,42,127,863105484
8,20,Ticks_Linear_8,243,5,42,127,863684876
8,20,Ticks_Linear_8,244,1,48,34,863723648
8,20,Ticks_Linear_8,245,5,42,127,864264776
8,20,Ticks_Linear_8,246,1,48,38,864286320
8,20,Ticks_Linear_8,247,1,48,40,864829804
8,20,Ticks_Linear_8,248,5,42,127,864845124
8,20,Ticks_Linear_8,249,1,48,40,865396680
8,20,Ticks_Linear_8,250,5,42,127,865414648
8,20,Ticks_Linear_8,251,5,42,127,865984748
8,20,Ticks_Linear_8,252,1,48,34,866055344
8,20,Ticks_Linear_8,253,5,42,127,866555216
8,20,Ticks_Linear_8,254,1,48,43,866588584
8,20,Ticks_Linear_8,255,5,42,127,867124784
8,20,Ticks_Linear_8,256,1,48,41,867151860
8,20,Ticks_Linear_8,257,5,42,127,867694952
8,20,Ticks_Linear_8,258,1,48,38,867719888
8,20,Ticks_Linear_8,259,1,48,37,868254584
8,20,Ticks_Linear_8,260,5,42,127,868255928
8,20,Ticks_Linear_8,261,1,48,41,868791680
8,20,Ticks_Linear_8,262,5,42,127,868815240
8,20,Ticks_Linear_8,263,1,48,41,869356384
8,20,Ticks_Linear_8,264,5,42,127,869375224
8,20,Ticks_Linear_8,265,1,48,41,869921528
8,20,Ticks_Linear_8,266,5,42,127,869934532
8,20,Ticks_Linear_8,267,1,48,41,870482336
8,20,Ticks_Linear_8,268,5,42,127,870494668
8,20,Ticks_Linear_8,269,5,42,127,871044576
8,20,Ticks_Linear_8,270,1,48,41,871045912
8,20,Ticks_Linear_8,271,5,42,127,871595348
8,20,Ticks_Linear_8,272,1,48,39,871615772
8,20,Ticks_Linear_8,273,5,42,127,872145148
8,20,Ticks_Linear_8,274,1,48,41,872161520
8,20,Ticks_Linear_8,275,5,42,127,872695248
8,20,Ticks_Linear_8,276,1,48,38,872727496
8,20,Ticks_Linear_8,277,5,42,127,873244976
8,20,Ticks_Linear_8,278,1,48,42,873287560
8,20,Ticks_Linear_8,279,5,42,127,873784812
8,20,Ticks_Linear_8,280,1,48,46,873832576
8,20,Ticks_Linear_8,281,5,42,127,874325476
8,20,Ticks_Linear_8,282,1,48,43,874344024
8,20,Ticks_Linear_8,283,5,42,127,874864940
8,20,Ticks_Linear_8,284,1,48,42,874890696
8,20,Ticks_Linear_8,285,5,42,127,875404656
8,20,Ticks_Linear_8,286,1,48,42,875414144
8,20,Ticks_Linear_8,287,5,42,127,875945540
8,20,Ticks_Linear_8,288,1,48,45,875952180
8,20,Ticks_Linear_8,289,5,42,127,876474676
8,20,Ticks_Linear_8,290,1,48,24,876535084
8,20,Ticks_Linear_8,291,5,42,127,877005224
8,20,Ticks_Linear_8,292,1,48,42,877050356
8,20,Ticks_Linear_8,293,5,42,127,877534584
8,20,Ticks_Linear_8,294,1,48,38,877606300
8,20,Ticks_Linear_8,295,5,42,127,878065060
8,20,Ticks_Linear_8,296,1,48,39,878129132
8,20,Ticks_Linear_8,297,5,42,127,878594636
8,20,Ticks_Linear_8,298,1,48,40,878639840
8,20,Ticks_Linear_8,299,5,42,127,879114560
8,20,Ticks_Linear_8,300,1,48,40,879154452
8,20,Ticks_Linear_8,301,1,48,40,879614660
8,20,Ticks_Linear_8,302,5,42,127,879634696
8,20,Ticks_Linear_8,303,1,48,40,880120568
8,20,Ticks_Linear_8,304,5,42,127,880154988
8,20,Ticks_Linear_8,305,1,48,40,880608516
8,20,Ticks_Linear_8,306,5,42,127,880675204
8,20,Ticks_Linear_8,307,1,48,38,881180476
8,20,Ticks_Linear_8,308,5,42,127,881195652
8,20,Ticks_Linear_8,309,5,42,127,881705468
8,20,Ticks_Linear_8,310,1,48,44,881728284
8,20,Ticks_Linear_8,311,5,42,127,882215428
8,20,Ticks_Linear_8,312,1,48,41,882276440
8,20,Ticks_Linear_8,313,5,42,127,882725388
8,20,Ticks_Linear_8,314,1,48,38,882797632
8,20,Ticks_Linear_8,315,5,42,127,883235120
8,20,Ticks_Linear_8,316,1,48,41,883334500
8,20,Ticks_Linear_8,317,5,42,127,883745084
8,20,Ticks_Linear_8,318,1,48,43,883862812
8,20,Ticks_Linear_8,319,5,42,127,884244860
8,20,Ticks_Linear_8,320,1,48,41,884390880
8,20,Ticks_Linear_8,321,5,42,127,884744708
8,20,Ticks_Linear_8,322,1,48,35,884873744
8,20,Ticks_Linear_8,323,5,42,127,885245528
8,20,Ticks_Linear_8,324,1,48,33,885343464
8,20,Ticks_Linear_8,325,5,42,127,885745008
8,20,Ticks_Linear_8,326,1,48,37,885858808
8,20,Ticks_Linear_8,327,5,42,127,886244632
8,20,Ticks_Linear_8,328,1,48,30,886341576
8,20,Ticks_Linear_8,329,5,42,127,886735344
8,20,Ticks_Linear_8,330,1,48,32,886852136
8,20,Ticks_Linear_8,331,5,42,127,887224560
8,20,Ticks_Linear_8,332,1,48,31,887339560
8,20,Ticks_Linear_8,333,5,42,127,887715344
8,20,Ticks_Linear_8,334,1,48,36,887838660
8,20,Ticks_Linear_8,335,5,42,127,888204564
8,20,Ticks_Linear_8,336,1,48,35,888301888
8,20,Ticks_Linear_8,337,5,42,127,888695400
8,20,Ticks_Linear_8,0,9999,9999,9999,9999,778153068
8,20,Ticks_Linear_8,1,9999,9999,9999,9999,778972264
8,20,Ticks_Linear_8,2,9999,9999,9999,9999,779792444
8,20,Ticks_Linear_8,3,9999,9999,9999,9999,780612688
8,20,Ticks_Linear_8,4,9999,9999,9999,9999,781432936
8,20,Ticks_Linear_8,5,9999,9999,9999,9999,782242868
8,20,Ticks_Linear_8,6,9999,9999,9999,9999,783052888
8,20,Ticks_Linear_8,7,9999,9999,9999,9999,783862904
8,20,Ticks_Linear_8,8,9999,9999,9999,9999,784672884
8,20,Ticks_Linear_8,9,9999,9999,9999,9999,785482868
8,20,Ticks_Linear_8,10,9999,9999,9999,9999,786282600
8,20,Ticks_Linear_8,11,9999,9999,9999,9999,787082348
8,20,Ticks_Linear_8,12,9999,9999,9999,9999,787883120
8,20,Ticks_Linear_8,13,9999,9999,9999,9999,788693096
8,20,Ticks_Linear_8,14,9999,9999,9999,9999,789492820
8,20,Ticks_Linear_8,15,9999,9999,9999,9999,790282360
8,20,Ticks_Linear_8,16,9999,9999,9999,9999,791072872
8,20,Ticks_Linear_8,17,9999,9999,9999,9999,791862336
8,20,Ticks_Linear_8,18,9999,9999,9999,9999,792652924
8,20,Ticks_Linear_8,19,9999,9999,9999,9999,793442388
8,20,Ticks_Linear_8,20,9999,9999,9999,9999,794222716
8,20,Ticks_Linear_8,21,9999,9999,9999,9999,795002976
8,20,Ticks_Linear_8,22,9999,9999,9999,9999,795782204
8,20,Ticks_Linear_8,23,9999,9999,9999,9999,796562524
8,20,Ticks_Linear_8,24,9999,9999,9999,9999,797342776
8,20,Ticks_Linear_8,25,9999,9999,9999,9999,798112844
8,20,Ticks_Linear_8,26,9999,9999,9999,9999,798882912
8,20,Ticks_Linear_8,27,9999,9999,9999,9999,799652980
8,20,Ticks_Linear_8,28,9999,9999,9999,9999,800422972
8,20,Ticks_Linear_8,29,9999,9999,9999,9999,801193040
8,20,Ticks_Linear_8,30,9999,9999,9999,9999,801952852
8,20,Ticks_Linear_8,31,9999,9999,9999,9999,802712660
8,20,Ticks_Linear_8,32,9999,9999,9999,9999,803472476
8,20,Ticks_Linear_8,33,9999,9999,9999,9999,804232288
8,20,Ticks_Linear_8,34,9999,9999,9999,9999,804992072
8,20,Ticks_Linear_8,35,9999,9999,9999,9999,805742672
8,20,Ticks_Linear_8,36,9999,9999,9999,9999,806492212
8,20,Ticks_Linear_8,37,9999,9999,9999,9999,807242812
8,20,Ticks_Linear_8,38,9999,9999,9999,9999,807992436
8,20,Ticks_Linear_8,39,9999,9999,9999,9999,808743032
8,20,Ticks_Linear_8,40,9999,9999,9999,9999,809482324
8,20,Ticks_Linear_8,41,9999,9999,9999,9999,810222660
8,20,Ticks_Linear_8,42,9999,9999,9999,9999,810963004
8,20,Ticks_Linear_8,43,9999,9999,9999,9999,811702368
8,20,Ticks_Linear_8,44,9999,9999,9999,9999,812442700
8,20,Ticks_Linear_8,45,9999,9999,9999,9999,813172836
8,20,Ticks_Linear_8,46,9999,9999,9999,9999,813902908
8,20,Ticks_Linear_8,47,9999,9999,9999,9999,814633064
8,20,Ticks_Linear_8,48,9999,9999,9999,9999,815362164
8,20,Ticks_Linear_8,49,9999,9999,9999,9999,816092248
8,20,Ticks_Linear_8,50,9999,9999,9999,9999,816812144
8,20,Ticks_Linear_8,51,9999,9999,9999,9999,817532984
8,20,Ticks_Linear_8,52,9999,9999,9999,9999,818252872
8,20,Ticks_Linear_8,53,9999,9999,9999,9999,818972768
8,20,Ticks_Linear_8,54,9999,9999,9999,9999,819692660
8,20,Ticks_Linear_8,55,9999,9999,9999,9999,820402228
8,20,Ticks_Linear_8,56,9999,9999,9999,9999,821112952
8,20,Ticks_Linear_8,57,9999,9999,9999,9999,821822588
8,20,Ticks_Linear_8,58,9999,9999,9999,9999,822532152
8,20,Ticks_Linear_8,59,9999,9999,9999,9999,823242828
8,20,Ticks_Linear_8,60,9999,9999,9999,9999,823942252
8,20,Ticks_Linear_8,61,9999,9999,9999,9999,824642656
8,20,Ticks_Linear_8,62,9999,9999,9999,9999,825343080
8,20,Ticks_Linear_8,63,9999,9999,9999,9999,826042456
8,20,Ticks_Linear_8,64,9999,9999,9999,9999,826742852
8,20,Ticks_Linear_8,65,9999,9999,9999,9999,827433020
8,20,Ticks_Linear_8,66,9999,9999,9999,9999,828122204
8,20,Ticks_Linear_8,67,9999,9999,9999,9999,828812392
8,20,Ticks_Linear_8,68,9999,9999,9999,9999,829502580
8,20,Ticks_Linear_8,69,9999,9999,9999,9999,830192748
8,20,Ticks_Linear_8,70,9999,9999,9999,9999,830872652
8,20,Ticks_Linear_8,71,9999,9999,9999,9999,831552608
8,20,Ticks_Linear_8,72,9999,9999,9999,9999,832232504
8,20,Ticks_Linear_8,73,9999,9999,9999,9999,832912488
8,20,Ticks_Linear_8,74,9999,9999,9999,9999,833592440
8,20,Ticks_Linear_8,75,9999,9999,9999,9999,834262088
8,20,Ticks_Linear_8,76,9999,9999,9999,9999,834932832
8,20,Ticks_Linear_8,77,9999,9999,9999,9999,835602548
8,20,Ticks_Linear_8,78,9999,9999,9999,9999,836272192
8,20,Ticks_Linear_8,79,9999,9999,9999,9999,836942932
8,20,Ticks_Linear_8,80,9999,9999,9999,9999,837602396
8,20,Ticks_Linear_8,81,9999,9999,9999,9999,838262876
8,20,Ticks_Linear_8,82,9999,9999,9999,9999,838922340
8,20,Ticks_Linear_8,83,9999,9999,9999,9999,839582844
8,20,Ticks_Linear_8,84,9999,9999,9999,9999,840242272
8,20,Ticks_Linear_8,85,9999,9999,9999,9999,840892528
8,20,Ticks_Linear_8,86,9999,9999,9999,9999,841542752
8,20,Ticks_Linear_8,87,9999,9999,9999,9999,842193000
8,20,Ticks_Linear_8,88,9999,9999,9999,9999,842842176
8,20,Ticks_Linear_8,89,9999,9999,9999,9999,843492420
8,20,Ticks_Linear_8,90,9999,9999,9999,9999,844132460
8,20,Ticks_Linear_8,91,9999,9999,9999,9999,844772448
8,20,Ticks_Linear_8,92,9999,9999,9999,9999,845412412
8,20,Ticks_Linear_8,93,9999,9999,9999,9999,846052476
8,20,Ticks_Linear_8,94,9999,9999,9999,9999,846692440
8,20,Ticks_Linear_8,95,9999,9999,9999,9999,847322168
8,20,Ticks_Linear_8,96,9999,9999,9999,9999,847952996
8,20,Ticks_Linear_8,97,9999,9999,9999,9999,848582724
8,20,Ticks_Linear_8,98,9999,9999,9999,9999,849212504
8,20,Ticks_Linear_8,99,9999,9999,9999,9999,849842236
8,20,Ticks_Linear_8,100,9999,9999,9999,9999,850462804
8,20,Ticks_Linear_8,101,9999,9999,9999,9999,851082340
8,20,Ticks_Linear_8,102,9999,9999,9999,9999,851702908
8,20,Ticks_Linear_8,103,9999,9999,9999,9999,852322428
8,20,Ticks_Linear_8,104,9999,9999,9999,9999,852942944
8,20,Ticks_Linear_8,105,9999,9999,9999,9999,853552212
8,20,Ticks_Linear_8,106,9999,9999,9999,9999,854162544
8,20,Ticks_Linear_8,107,9999,9999,9999,9999,854772856
8,20,Ticks_Linear_8,108,9999,9999,9999,9999,855382116
8,20,Ticks_Linear_8,109,9999,9999,9999,9999,855992376
8,20,Ticks_Linear_8,110,9999,9999,9999,9999,856592500
8,20,Ticks_Linear_8,111,9999,9999,9999,9999,857192548
8,20,Ticks_Linear_8,112,9999,9999,9999,9999,857792624
8,20,Ticks_Linear_8,113,9999,9999,9999,9999,858392672
8,20,Ticks_Linear_8,114,9999,9999,9999,9999,858992720
8,20,Ticks_Linear_8,115,9999,9999,9999,9999,859582536
8,20,Ticks_Linear_8,116,9999,9999,9999,9999,860172400
8,20,Ticks_Linear_8,117,9999,9999,9999,9999,860762188
8,20,Ticks_Linear_8,118,9999,9999,9999,9999,861353052
8,20,Ticks_Linear_8,119,9999,9999,9999,9999,861942840
8,20,Ticks_Linear_8,120,9999,9999,9999,9999,862522444
8,20,Ticks_Linear_8,121,9999,9999,9999,9999,863103088
8,20,Ticks_Linear_8,122,9999,9999,9999,9999,863682648
8,20,Ticks_Linear_8,123,9999,9999,9999,9999,864262256
8,20,Ticks_Linear_8,124,9999,9999,9999,9999,864842824
8,20,Ticks_Linear_8,125,9999,9999,9999,9999,865412196
8,20,Ticks_Linear_8,126,9999,9999,9999,9999,865982524
8,20,Ticks_Linear_8,127,9999,9999,9999,9999,866552916
8,20,Ticks_Linear_8,128,9999,9999,9999,9999,867122260
8,20,Ticks_Linear_8,129,9999,9999,9999,9999,867692652
8,20,Ticks_Linear_8,130,9999,9999,9999,9999,868252740
8,20,Ticks_Linear_8,131,9999,9999,9999,9999,868812864
8,20,Ticks_Linear_8,132,9999,9999,9999,9999,869373000
8,20,Ticks_Linear_8,133,9999,9999,9999,9999,869932088
8,20,Ticks_Linear_8,134,9999,9999,9999,9999,870492220
8,20,Ticks_Linear_8,135,9999,9999,9999,9999,871042128
8,20,Ticks_Linear_8,136,9999,9999,9999,9999,871593048
8,20,Ticks_Linear_8,137,9999,9999,9999,9999,872142924
8,20,Ticks_Linear_8,138,9999,9999,9999,9999,872692800
8,20,Ticks_Linear_8,139,9999,9999,9999,9999,873242748
8,20,Ticks_Linear_8,140,9999,9999,9999,9999,873782364
8,20,Ticks_Linear_8,141,9999,9999,9999,9999,874323028
8,20,Ticks_Linear_8,142,9999,9999,9999,9999,874862716
8,20,Ticks_Linear_8,143,9999,9999,9999,9999,875402356
8,20,Ticks_Linear_8,144,9999,9999,9999,9999,875943016
8,20,Ticks_Linear_8,145,9999,9999,9999,9999,876472376
8,20,Ticks_Linear_8,146,9999,9999,9999,9999,877002852
8,20,Ticks_Linear_8,147,9999,9999,9999,9999,877532284
8,20,Ticks_Linear_8,148,9999,9999,9999,9999,878062684
8,20,Ticks_Linear_8,149,9999,9999,9999,9999,878592116
8,20,Ticks_Linear_8,150,9999,9999,9999,9999,879112260
8,20,Ticks_Linear_8,151,9999,9999,9999,9999,879632472
8,20,Ticks_Linear_8,152,9999,9999,9999,9999,880152688
8,20,Ticks_Linear_8,153,9999,9999,9999,9999,880672832
8,20,Ticks_Linear_8,154,9999,9999,9999,9999,881193052
8,20,Ticks_Linear_8,155,9999,9999,9999,9999,881703020
8,20,Ticks_Linear_8,156,9999,9999,9999,9999,882212980
8,20,Ticks_Linear_8,157,9999,9999,9999,9999,882722940
8,20,Ticks_Linear_8,158,9999,9999,9999,9999,883232820
8,20,Ticks_Linear_8,159,9999,9999,9999,9999,883742784
8,20,Ticks_Linear_8,160,9999,9999,9999,9999,884242560
8,20,Ticks_Linear_8,161,9999,9999,9999,9999,884742260
8,20,Ticks_Linear_8,162,9999,9999,9999,9999,885243008
8,20,Ticks_Linear_8,163,9999,9999,9999,9999,885742704
8,20,Ticks_Linear_8,164,9999,9999,9999,9999,886242408
8,20,Ticks_Linear_8,165,9999,9999,9999,9999,886732896
8,20,Ticks_Linear_8,166,9999,9999,9999,9999,887222336
8,20,Ticks_Linear_8,167,9999,9999,9999,9999,887712824
8,20,Ticks_Linear_8,168,9999,9999,9999,9999,888202340
8,20,Ticks_Linear_8,169,9999,9999,9999,9999,888692800
9,23,Ticks_Phase_5,0,5,42,127,899529116
9,23,Ticks_Phase_5,1,5,42,127,900028676
9,23,Ticks_Phase_5,2,1,48,36,900034484
9,23,Ticks_Phase_5,3,5,42,127,900528364
9,23,Ticks_Phase_5,4,1,48,30,900553048
9,23,Ticks_Phase_5,5,5,42,127,901029100
9,23,Ticks_Phase_5,6,1,48,33,901036420
9,23,Ticks_Phase_5,7,1,48,38,901526816
9,23,Ticks_Phase_5,8,5,42,127,901529004
9,23,Ticks_Phase_5,9,5,42,127,902028776
9,23,Ticks_Phase_5,10,1,48,34,902067324
9,23,Ticks_Phase_5,11,5,42,127,902529288
9,23,Ticks_Phase_5,12,1,48,37,902545732
9,23,Ticks_Phase_5,13,5,42,127,903029176
9,23,Ticks_Phase_5,14,1,48,38,903038736
9,23,Ticks_Phase_5,15,5,42,127,903528688
9,23,Ticks_Phase_5,16,1,48,36,903544012
9,23,Ticks_Phase_5,17,5,42,127,904028600
9,23,Ticks_Phase_5,18,1,48,39,904048124
9,23,Ticks_Phase_5,19,5,42,127,904529332
9,23,Ticks_Phase_5,20,1,48,41,904547440
9,23,Ticks_Phase_5,21,5,42,127,905029024
9,23,Ticks_Phase_5,22,1,48,44,905070260
9,23,Ticks_Phase_5,23,5,42,127,905528784
9,23,Ticks_Phase_5,24,1,48,40,905555932
9,23,Ticks_Phase_5,25,5,42,127,906029372
9,23,Ticks_Phase_5,26,1,48,44,906040580
9,23,Ticks_Phase_5,27,1,48,45,906536428
9,23,Ticks_Phase_5,28,5,42,127,906539312
9,23,Ticks_Phase_5,29,5,42,127,907039080
9,23,Ticks_Phase_5,30,1,48,40,907061300
9,23,Ticks_Phase_5,31,1,48,43,907534536
9,23,Ticks_Phase_5,32,5,42,127,907538984
9,23,Ticks_Phase_5,33,5,42,127,908038456
9,23,Ticks_Phase_5,34,1,48,41,908050188
9,23,Ticks_Phase_5,35,5,42,127,908539192
9,23,Ticks_Phase_5,36,1,48,39,908550776
9,23,Ticks_Phase_5,37,1,48,43,909030832
9,23,Ticks_Phase_5,38,5,42,127,909038948
9,23,Ticks_Phase_5,39,5,42,127,909538644
9,23,Ticks_Phase_5,40,1,48,42,909549252
9,23,Ticks_Phase_5,41,5,42,127,910039456
9,23,Ticks_Phase_5,42,1,48,47,910071256
9,23,Ticks_Phase_5,43,5,42,127,910539068
9,23,Ticks_Phase_5,44,1,48,45,910586364
9,23,Ticks_Phase_5,45,5,42,127,911038980
9,23,Ticks_Phase_5,46,1,48,38,911090856
9,23,Ticks_Phase_5,47,5,42,127,911538596
9,23,Ticks_Phase_5,48,1,48,46,911580584
9,23,Ticks_Phase_5,49,5,42,127,912039332
9,23,Ticks_Phase_5,50,1,48,46,912058856
9,23,Ticks_Phase_5,51,5,42,127,912538948
9,23,Ticks_Phase_5,52,1,48,41,912551204
9,23,Ticks_Phase_5,53,5,42,127,913038632
9,23,Ticks_Phase_5,54,1,48,39,913052384
9,23,Ticks_Phase_5,55,5,42,127,913538396
9,23,Ticks_Phase_5,56,1,48,44,913559340
9,23,Ticks_Phase_5,57,1,48,43,914035772
9,23,Ticks_Phase_5,58,5,42,127,914039100
9,23,Ticks_Phase_5,59,5,42,127,914528688
9,23,Ticks_Phase_5,60,1,48,46,914550156
9,23,Ticks_Phase_5,61,1,48,43,914998464
9,23,Ticks_Phase_5,62,5,42,127,915029264
9,23,Ticks_Phase_5,63,5,42,127,915529108
9,23,Ticks_Phase_5,64,1,48,43,915551252
9,23,Ticks_Phase_5,65,5,42,127,916029092
9,23,Ticks_Phase_5,66,1,48,43,916035500
9,23,Ticks_Phase_5,67,1,48,49,916518344
9,23,Ticks_Phase_5,68,5,42,127,916528404
9,23,Ticks_Phase_5,69,1,48,46,917025208
9,23,Ticks_Phase_5,70,5,42,127,917029360
9,23,Ticks_Phase_5,71,5,42,127,917528984
9,23,Ticks_Phase_5,72,1,48,42,917561684
9,23,Ticks_Phase_5,73,5,42,127,918028820
9,23,Ticks_Phase_5,74,1,48,46,918051864
9,23,Ticks_Phase_5,75,1,48,46,918522032
9,23,Ticks_Phase_5,76,5,42,127,918529252
9,23,Ticks_Phase_5,77,5,42,127,919029096
9,23,Ticks_Phase_5,78,1,48,44,919064332
9,23,Ticks_Phase_5,79,5,42,127,919529008
9,23,Ticks_Phase_5,80,1,48,48,919564844
9,23,Ticks_Phase_5,81,5,42,127,920028472
9,23,Ticks_Phase_5,82,1,48,46,920055996
9,23,Ticks_Phase_5,83,5,42,127,920529204
9,23,Ticks_Phase_5,84,1,48,46,920549324
9,23,Ticks_Phase_5,85,5,42,127,921028968
9,23,Ticks_Phase_5,86,1,48,47,921047892
9,23,Ticks_Phase_5,87,5,42,127,921528880
9,23,Ticks_Phase_5,88,1,48,46,921538368
9,23,Ticks_Phase_5,89,1,48,46,922004788
9,23,Ticks_Phase_5,90,5,42,127,922029384
9,23,Ticks_Phase_5,91,5,42,127,922539412
9,23,Ticks_Phase_5,92,1,48,44,922546956
9,23,Ticks_Phase_5,93,1,48,46,923025580
9,23,Ticks_Phase_5,94,5,42,127,923039020
9,23,Ticks_Phase_5,95,1,48,46,923547696
9,23,Ticks_Phase_5,96,5,42,127,923549192
9,23,Ticks_Phase_5,97,5,42,127,924048960
9,23,Ticks_Phase_5,98,1,48,47,924051556
9,23,Ticks_Phase_5,99,5,42,127,924548500
9,23,Ticks_Phase_5,100,1,48,49,924555284
9,23,Ticks_Phase_5,101,5,42,127,925049060
9,23,Ticks_Phase_5,102,1,48,47,925086884
9,23,Ticks_Phase_5,103,5,42,127,925549044
9,23,Ticks_Phase_5,104,1,48,46,925557116
9,23,Ticks_Phase_5,105,5,42,127,926048956
9,23,Ticks_Phase_5,106,1,48,48,926063832
9,23,Ticks_Phase_5,107,1,48,50,926543964
9,23,Ticks_Phase_5,108,5,42,127,926549312
9,23,Ticks_Phase_5,109,1,48,48,927046888
9,23,Ticks_Phase_5,110,5,42,127,927049000
9,23,Ticks_Phase_5,111,5,42,127,927548992
9,23,Ticks_Phase_5,112,1,48,50,927583564
9,23,Ticks_Phase_5,113,1,48,46,928043176
9,23,Ticks_Phase_5,114,5,42,127,928048748
9,23,Ticks_Phase_5,115,5,42,127,928549268
9,23,Ticks_Phase_5,116,1,48,45,928577780
9,23,Ticks_Phase_5,117,5,42,127,929048880
9,23,Ticks_Phase_5,118,1,48,46,929070496
9,23,Ticks_Phase_5,119,5,42,127,929548864
9,23,Ticks_Phase_5,120,1,48,47,929555648
9,23,Ticks_Phase_5,121,5,42,127,930049300
9,23,Ticks_Phase_5,122,1,48,43,930074660
9,23,Ticks_Phase_5,123,1,48,50,930543184
9,23,Ticks_Phase_5,124,5,42,127,930549056
9,23,Ticks_Phase_5,125,5,42,127,931048904
9,23,Ticks_Phase_5,126,1,48,47,931064744
9,23,Ticks_Phase_5,127,1,48,43,931566220
9,23,Ticks_Phase_5,128,5,42,127,931568956
9,23,Ticks_Phase_5,129,1,48,45,932056412
9,23,Ticks_Phase_5,130,5,42,127,932068720
9,23,Ticks_Phase_5,131,5,42,127,932568636
9,23,Ticks_Phase_5,132,1,48,51,932602828
9,23,Ticks_Phase_5,133,5,42,127,933069072
9,23,Ticks_Phase_5,134,1,48,51,933103268
9,23,Ticks_Phase_5,135,5,42,127,933568984
9,23,Ticks_Phase_5,136,1,48,48,933600416
9,23,Ticks_Phase_5,137,5,42,127,934068748
9,23,Ticks_Phase_5,138,1,48,38,934074488
9,23,Ticks_Phase_5,139,5,42,127,934569260
9,23,Ticks_Phase_5,140,1,48,45,934571780
9,23,Ticks_Phase_5,141,1,48,52,935050492
9,23,Ticks_Phase_5,142,5,42,127,935069168
9,23,Ticks_Phase_5,143,5,42,127,935568860
9,23,Ticks_Phase_5,144,1,48,51,935600292
9,23,Ticks_Phase_5,145,5,42,127,936068624
9,23,Ticks_Phase_5,146,1,48,45,936087996
9,23,Ticks_Phase_5,147,5,42,127,936569332
9,23,Ticks_Phase_5,148,1,48,44,936572528
9,23,Ticks_Phase_5,149,1,48,50,937066508
9,23,Ticks_Phase_5,150,5,42,127,937068940
9,23,Ticks_Phase_5,151,5,42,127,937568784
9,23,Ticks_Phase_5,152,1,48,50,937601584
9,23,Ticks_Phase_5,153,5,42,127,938069296
9,23,Ticks_Phase_5,154,1,48,52,938101692
9,23,Ticks_Phase_5,155,5,42,127,938569056
9,23,Ticks_Phase_5,156,1,48,48,938575388
9,23,Ticks_Phase_5,157,1,48,53,939052456
9,23,Ticks_Phase_5,158,5,42,127,939068888
9,23,Ticks_Phase_5,159,5,42,127,939568880
9,23,Ticks_Phase_5,160,1,48,53,939588404
9,23,Ticks_Phase_5,161,5,42,127,940048800
9,23,Ticks_Phase_5,162,1,48,50,940089964
9,23,Ticks_Phase_5,163,5,42,127,940548636
9,23,Ticks_Phase_5,164,1,48,52,940572948
9,23,Ticks_Phase_5,165,5,42,127,941049296
9,23,Ticks_Phase_5,166,1,48,48,941066112
9,23,Ticks_Phase_5,167,5,42,127,941548912
9,23,Ticks_Phase_5,168,1,48,50,941571796
9,23,Ticks_Phase_5,169,5,42,127,942048672
9,23,Ticks_Phase_5,170,1,48,56,942068800
9,23,Ticks_Phase_5,171,5,42,127,942549556
9,23,Ticks_Phase_5,172,1,48,50,942579636
9,23,Ticks_Phase_5,173,5,42,127,943049172
9,23,Ticks_Phase_5,174,1,48,57,943098352
9,23,Ticks_Phase_5,175,5,42,127,943548860
9,23,Ticks_Phase_5,176,1,48,54,943575336
9,23,Ticks_Phase_5,177,1,48,55,944042888
9,23,Ticks_Phase_5,178,5,42,127,944048616
9,23,Ticks_Phase_5,179,5,42,127,944549580
9,23,Ticks_Phase_5,180,1,48,54,944569852
9,23,Ticks_Phase_5,181,5,42,127,945048820
9,23,Ticks_Phase_5,182,1,48,52,945057264
9,23,Ticks_Phase_5,183,5,42,127,945548584
9,23,Ticks_Phase_5,184,1,48,57,945587800
9,23,Ticks_Phase_5,185,5,42,127,946049616
9,23,Ticks_Phase_5,186,1,48,48,946073400
9,23,Ticks_Phase_5,187,5,42,127,946549056
9,23,Ticks_Phase_5,188,1,48,47,946559988
9,23,Ticks_Phase_5,189,5,42,127,947048744
9,23,Ticks_Phase_5,190,1,48,52,947067368
9,23,Ticks_Phase_5,191,5,42,127,947548584
9,23,Ticks_Phase_5,192,1,48,48,947566296
9,23,Ticks_Phase_5,193,5,42,127,947999216
9,23,Ticks_Phase_5,194,1,48,51,948043824
9,23,Ticks_Phase_5,195,5,42,127,948498904
9,23,Ticks_Phase_5,196,1,48,50,948571520
9,23,Ticks_Phase_5,197,5,42,127,948998368
9,23,Ticks_Phase_5,198,1,48,52,949024544
9,23,Ticks_Phase_5,199,5,42,127,949499400
9,23,Ticks_Phase_5,200,1,48,48,949514572
9,23,Ticks_Phase_5,201,1,48,48,949988724
9,23,Ticks_Phase_5,202,5,42,127,949999008
9,23,Ticks_Phase_5,203,1,48,50,950483832
9,23,Ticks_Phase_5,204,5,42,127,950498548
9,23,Ticks_Phase_5,205,1,48,51,950997620
9,23,Ticks_Phase_5,206,5,42,127,950999356
9,23,Ticks_Phase_5,207,1,48,46,951492648
9,23,Ticks_Phase_5,208,5,42,127,951499192
9,23,Ticks_Phase_5,209,5,42,127,951998740
9,23,Ticks_Phase_5,210,1,48,48,952000224
9,23,Ticks_Phase_5,211,5,42,127,952498504
9,23,Ticks_Phase_5,212,1,48,55,952526028
9,23,Ticks_Phase_5,213,5,42,127,952999460
9,23,Ticks_Phase_5,214,1,48,53,953052232
9,23,Ticks_Phase_5,215,5,42,127,953499076
9,23,Ticks_Phase_5,216,1,48,53,953530348
9,23,Ticks_Phase_5,217,5,42,127,953999136
9,23,Ticks_Phase_5,218,1,48,52,954013336
9,23,Ticks_Phase_5,219,1,48,55,954491348
9,23,Ticks_Phase_5,220,5,42,127,954498368
9,23,Ticks_Phase_5,221,1,48,56,954960260
9,23,Ticks_Phase_5,222,5,42,127,954999304
9,23,Ticks_Phase_5,223,5,42,127,955498996
9,23,Ticks_Phase_5,224,1,48,53,955504284
9,23,Ticks_Phase_5,225,5,42,127,955998612
9,23,Ticks_Phase_5,226,1,48,55,956026140
9,23,Ticks_Phase_5,227,1,48,50,956513388
9,23,Ticks_Phase_5,228,5,42,127,956548344
9,23,Ticks_Phase_5,229,1,48,48,957009484
9,23,Ticks_Phase_5,230,5,42,127,957049576
9,23,Ticks_Phase_5,231,1,48,51,957498988
9,23,Ticks_Phase_5,232,5,42,127,957549264
9,23,Ticks_Phase_5,233,1,48,49,958016116
9,23,Ticks_Phase_5,234,5,42,127,958048508
9,23,Ticks_Phase_5,235,5,42,127,958549324
9,23,Ticks_Phase_5,236,1,48,51,958570192
9,23,Ticks_Phase_5,237,5,42,127,959049312
9,23,Ticks_Phase_5,238,1,48,51,959073996
9,23,Ticks_Phase_5,239,5,42,127,959548776
9,23,Ticks_Phase_5,240,1,48,48,959563052
9,23,Ticks_Phase_5,241,5,42,127,960048464
9,23,Ticks_Phase_5,242,1,48,45,960084304
9,23,Ticks_Phase_5,243,5,42,127,960549420
9,23,Ticks_Phase_5,244,1,48,49,960571564
9,23,Ticks_Phase_5,245,5,42,127,961048960
9,23,Ticks_Phase_5,246,1,48,47,961088176
9,23,Ticks_Phase_5,247,5,42,127,961548648
9,23,Ticks_Phase_5,248,1,48,49,961575948
9,23,Ticks_Phase_5,249,5,42,127,962049308
9,23,Ticks_Phase_5,250,1,48,46,962086272
9,23,Ticks_Phase_5,251,5,42,127,962549220
9,23,Ticks_Phase_5,252,1,48,50,962602588
9,23,Ticks_Phase_5,253,5,42,127,963048684
9,23,Ticks_Phase_5,254,1,48,56,963057572
9,23,Ticks_Phase_5,255,5,42,127,963548448
9,23,Ticks_Phase_5,256,1,48,50,963568048
9,23,Ticks_Phase_5,257,1,48,46,964049108
9,23,Ticks_Phase_5,258,5,42,127,964050368
9,23,Ticks_Phase_5,259,5,42,127,964549020
9,23,Ticks_Phase_5,260,1,48,49,964562248
9,23,Ticks_Phase_5,261,1,48,54,965053980
9,23,Ticks_Phase_5,262,5,42,127,965149036
9,23,Ticks_Phase_5,263,1,48,48,965592464
9,23,Ticks_Phase_5,264,5,42,127,965648736
9,23,Ticks_Phase_5,265,1,48,51,966081148
9,23,Ticks_Phase_5,266,5,42,127,966148576
9,23,Ticks_Phase_5,267,1,48,58,966625232
9,23,Ticks_Phase_5,268,5,42,127,966649236
9,23,Ticks_Phase_5,269,1,48,53,967111900
9,23,Ticks_Phase_5,270,5,42,127,967148848
9,23,Ticks_Phase_5,271,1,48,54,967633376
9,23,Ticks_Phase_5,272,5,42,127,967648612
9,23,Ticks_Phase_5,273,1,48,52,968121084
9,23,Ticks_Phase_5,274,5,42,127,968149272
9,23,Ticks_Phase_5,275,1,48,54,968643456
9,23,Ticks_Phase_5,276,5,42,127,968649184
9,23,Ticks_Phase_5,277,5,42,127,969148656
9,23,Ticks_Phase_5,278,1,48,52,969151776
9,23,Ticks_Phase_5,279,1,48,59,969637004
9,23,Ticks_Phase_5,280,5,42,127,969648560
9,23,Ticks_Phase_5,281,5,42,127,970149152
9,23,Ticks_Phase_5,282,1,48,57,970160808
9,23,Ticks_Phase_5,283,5,42,127,970649140
9,23,Ticks_Phase_5,284,1,48,53,970681468
9,23,Ticks_Phase_5,285,5,42,127,971148528
9,23,Ticks_Phase_5,286,1,48,50,971159140
9,23,Ticks_Phase_5,287,5,42,127,971649488
9,23,Ticks_Phase_5,288,1,48,54,971659504
9,23,Ticks_Phase_5,289,5,42,127,972149228
9,23,Ticks_Phase_5,290,1,48,55,972165992
9,23,Ticks_Phase_5,291,5,42,127,972648764
9,23,Ticks_Phase_5,292,1,48,52,972657428
9,23,Ticks_Phase_5,293,5,42,127,973148380
9,23,Ticks_Phase_5,294,1,48,61,973161980
9,23,Ticks_Phase_5,295,5,42,127,973649264
9,23,Ticks_Phase_5,296,1,48,55,973663688
9,23,Ticks_Phase_5,297,5,42,127,974149176
9,23,Ticks_Phase_5,298,1,48,54,974168624
9,23,Ticks_Phase_5,299,5,42,127,974549412
9,23,Ticks_Phase_5,300,1,48,52,974684104
9,23,Ticks_Phase_5,301,5,42,127,975049028
9,23,Ticks_Phase_5,302,5,42,127,975548888
9,23,Ticks_Phase_5,303,1,48,38,975693016
9,23,Ticks_Phase_5,304,5,42,127,976048424
9,23,Ticks_Phase_5,305,1,48,35,976152936
9,23,Ticks_Phase_5,306,5,42,127,976549160
9,23,Ticks_Phase_5,307,1,48,39,976577820
9,23,Ticks_Phase_5,308,5,42,127,977048920
9,23,Ticks_Phase_5,309,1,48,43,977084760
9,23,Ticks_Phase_5,310,5,42,127,977548684
9,23,Ticks_Phase_5,311,1,48,42,977565052
9,23,Ticks_Phase_5,312,5,42,127,978049420
9,23,Ticks_Phase_5,313,1,48,38,978080924
9,23,Ticks_Phase_5,314,5,42,127,978549232
9,23,Ticks_Phase_5,315,1,48,37,978555440
9,23,Ticks_Phase_5,316,5,42,127,979048924
9,23,Ticks_Phase_5,317,1,48,38,979093852
9,23,Ticks_Phase_5,318,1,48,44,979508212
9,23,Ticks_Phase_5,319,5,42,127,979548380
9,23,Ticks_Phase_5,320,1,48,42,980021824
9,23,Ticks_Phase_5,321,5,42,127,980049188
9,23,Ticks_Phase_5,322,1,48,41,980522708
9,23,Ticks_Phase_5,323,5,42,127,980548952
9,23,Ticks_Phase_5,324,1,48,40,981037456
9,23,Ticks_Phase_5,325,5,42,127,981048788
9,23,Ticks_Phase_5,326,1,48,41,981530848
9,23,Ticks_Phase_5,327,5,42,127,981549448
9,23,Ticks_Phase_5,328,5,42,127,982059256
9,23,Ticks_Phase_5,329,1,48,39,982062072
9,23,Ticks_Phase_5,330,1,48,37,982528652
9,23,Ticks_Phase_5,331,5,42,127,982559160
9,23,Ticks_Phase_5,332,1,48,41,983026680
9,23,Ticks_Phase_5,333,5,42,127,983058996
9,23,Ticks_Phase_5,334,1,48,46,983518376
9,23,Ticks_Phase_5,335,5,42,127,983558392
9,23,Ticks_Phase_5,336,1,48,42,984042092
9,23,Ticks_Phase_5,337,5,42,127,984059276
9,23,Ticks_Phase_5,0,9999,9999,9999,9999,899526752
9,23,Ticks_Phase_5,1,9999,9999,9999,9999,900026464
9,23,Ticks_Phase_5,2,9999,9999,9999,9999,900526152
9,23,Ticks_Phase_5,3,9999,9999,9999,9999,901026888
9,23,Ticks_Phase_5,4,9999,9999,9999,9999,901526608
9,23,Ticks_Phase_5,5,9999,9999,9999,9999,902026340
9,23,Ticks_Phase_5,6,9999,9999,9999,9999,902527076
9,23,Ticks_Phase_5,7,9999,9999,9999,9999,903026812
9,23,Ticks_Phase_5,8,9999,9999,9999,9999,903526476
9,23,Ticks_Phase_5,9,9999,9999,9999,9999,904026240
9,23,Ticks_Phase_5,10,9999,9999,9999,9999,904526972
9,23,Ticks_Phase_5,11,9999,9999,9999,9999,905026660
9,23,Ticks_Phase_5,12,9999,9999,9999,9999,905526348
9,23,Ticks_Phase_5,13,9999,9999,9999,9999,906027084
9,23,Ticks_Phase_5,14,9999,9999,9999,9999,906537024
9,23,Ticks_Phase_5,15,9999,9999,9999,9999,907036792
9,23,Ticks_Phase_5,16,9999,9999,9999,9999,907536476
9,23,Ticks_Phase_5,17,9999,9999,9999,9999,908036168
9,23,Ticks_Phase_5,18,9999,9999,9999,9999,908536904
9,23,Ticks_Phase_5,19,9999,9999,9999,9999,909036660
9,23,Ticks_Phase_5,20,9999,9999,9999,9999,909536356
9,23,Ticks_Phase_5,21,9999,9999,9999,9999,910037092
9,23,Ticks_Phase_5,22,9999,9999,9999,9999,910536780
9,23,Ticks_Phase_5,23,9999,9999,9999,9999,911036472
9,23,Ticks_Phase_5,24,9999,9999,9999,9999,911536236
9,23,Ticks_Phase_5,25,9999,9999,9999,9999,912036972
9,23,Ticks_Phase_5,26,9999,9999,9999,9999,912536660
9,23,Ticks_Phase_5,27,9999,9999,9999,9999,913036348
9,23,Ticks_Phase_5,28,9999,9999,9999,9999,913536108
9,23,Ticks_Phase_5,29,9999,9999,9999,9999,914036816
9,23,Ticks_Phase_5,30,9999,9999,9999,9999,914526324
9,23,Ticks_Phase_5,31,9999,9999,9999,9999,915027052
9,23,Ticks_Phase_5,32,9999,9999,9999,9999,915526748
9,23,Ticks_Phase_5,33,9999,9999,9999,9999,916026436
9,23,Ticks_Phase_5,34,9999,9999,9999,9999,916526192
9,23,Ticks_Phase_5,35,9999,9999,9999,9999,917026924
9,23,Ticks_Phase_5,36,9999,9999,9999,9999,917526620
9,23,Ticks_Phase_5,37,9999,9999,9999,9999,918026312
9,23,Ticks_Phase_5,38,9999,9999,9999,9999,918527040
9,23,Ticks_Phase_5,39,9999,9999,9999,9999,919026808
9,23,Ticks_Phase_5,40,9999,9999,9999,9999,919526496
9,23,Ticks_Phase_5,41,9999,9999,9999,9999,920026184
9,23,Ticks_Phase_5,42,9999,9999,9999,9999,920526920
9,23,Ticks_Phase_5,43,9999,9999,9999,9999,921026680
9,23,Ticks_Phase_5,44,9999,9999,9999,9999,921526368
9,23,Ticks_Phase_5,45,9999,9999,9999,9999,922027100
9,23,Ticks_Phase_5,46,9999,9999,9999,9999,922537052
9,23,Ticks_Phase_5,47,9999,9999,9999,9999,923036732
9,23,Ticks_Phase_5,48,9999,9999,9999,9999,923546688
9,23,Ticks_Phase_5,49,9999,9999,9999,9999,924046452
9,23,Ticks_Phase_5,50,9999,9999,9999,9999,924546140
9,23,Ticks_Phase_5,51,9999,9999,9999,9999,925046848
9,23,Ticks_Phase_5,52,9999,9999,9999,9999,925546608
9,23,Ticks_Phase_5,53,9999,9999,9999,9999,926046300
9,23,Ticks_Phase_5,54,9999,9999,9999,9999,926547024
9,23,Ticks_Phase_5,55,9999,9999,9999,9999,927046752
9,23,Ticks_Phase_5,56,9999,9999,9999,9999,927546484
9,23,Ticks_Phase_5,57,9999,9999,9999,9999,928046164
9,23,Ticks_Phase_5,58,9999,9999,9999,9999,928546904
9,23,Ticks_Phase_5,59,9999,9999,9999,9999,929046592
9,23,Ticks_Phase_5,60,9999,9999,9999,9999,929546356
9,23,Ticks_Phase_5,61,9999,9999,9999,9999,930047088
9,23,Ticks_Phase_5,62,9999,9999,9999,9999,930546772
9,23,Ticks_Phase_5,63,9999,9999,9999,9999,931046464
9,23,Ticks_Phase_5,64,9999,9999,9999,9999,931566668
9,23,Ticks_Phase_5,65,9999,9999,9999,9999,932066432
9,23,Ticks_Phase_5,66,9999,9999,9999,9999,932566128
9,23,Ticks_Phase_5,67,9999,9999,9999,9999,933066860
9,23,Ticks_Phase_5,68,9999,9999,9999,9999,933566548
9,23,Ticks_Phase_5,69,9999,9999,9999,9999,934066240
9,23,Ticks_Phase_5,70,9999,9999,9999,9999,934566976
9,23,Ticks_Phase_5,71,9999,9999,9999,9999,935066732
9,23,Ticks_Phase_5,72,9999,9999,9999,9999,935566424
9,23,Ticks_Phase_5,73,9999,9999,9999,9999,936066112
9,23,Ticks_Phase_5,74,9999,9999,9999,9999,936566896
9,23,Ticks_Phase_5,75,9999,9999,9999,9999,937066580
9,23,Ticks_Phase_5,76,9999,9999,9999,9999,937566272
9,23,Ticks_Phase_5,77,9999,9999,9999,9999,938067008
9,23,Ticks_Phase_5,78,9999,9999,9999,9999,938566772
9,23,Ticks_Phase_5,79,9999,9999,9999,9999,939066452
9,23,Ticks_Phase_5,80,9999,9999,9999,9999,939566148
9,23,Ticks_Phase_5,81,9999,9999,9999,9999,940046436
9,23,Ticks_Phase_5,82,9999,9999,9999,9999,940546128
9,23,Ticks_Phase_5,83,9999,9999,9999,9999,941046860
9,23,Ticks_Phase_5,84,9999,9999,9999,9999,941546624
9,23,Ticks_Phase_5,85,9999,9999,9999,9999,942046312
9,23,Ticks_Phase_5,86,9999,9999,9999,9999,942547044
9,23,Ticks_Phase_5,87,9999,9999,9999,9999,943046736
9,23,Ticks_Phase_5,88,9999,9999,9999,9999,943546496
9,23,Ticks_Phase_5,89,9999,9999,9999,9999,944046180
9,23,Ticks_Phase_5,90,9999,9999,9999,9999,944546920
9,23,Ticks_Phase_5,91,9999,9999,9999,9999,945046608
9,23,Ticks_Phase_5,92,9999,9999,9999,9999,945546296
9,23,Ticks_Phase_5,93,9999,9999,9999,9999,946047032
9,23,Ticks_Phase_5,94,9999,9999,9999,9999,946546768
9,23,Ticks_Phase_5,95,9999,9999,9999,9999,947046456
9,23,Ticks_Phase_5,96,9999,9999,9999,9999,947546220
9,23,Ticks_Phase_5,97,9999,9999,9999,9999,947996780
9,23,Ticks_Phase_5,98,9999,9999,9999,9999,948496468
9,23,Ticks_Phase_5,99,9999,9999,9999,9999,948996156
9,23,Ticks_Phase_5,100,9999,9999,9999,9999,949496892
9,23,Ticks_Phase_5,101,9999,9999,9999,9999,949996648
9,23,Ticks_Phase_5,102,9999,9999,9999,9999,950496336
9,23,Ticks_Phase_5,103,9999,9999,9999,9999,950997096
9,23,Ticks_Phase_5,104,9999,9999,9999,9999,951496832
9,23,Ticks_Phase_5,105,9999,9999,9999,9999,951996528
9,23,Ticks_Phase_5,106,9999,9999,9999,9999,952496216
9,23,Ticks_Phase_5,107,9999,9999,9999,9999,952996952
9,23,Ticks_Phase_5,108,9999,9999,9999,9999,953496640
9,23,Ticks_Phase_5,109,9999,9999,9999,9999,953996404
9,23,Ticks_Phase_5,110,9999,9999,9999,9999,954496084
9,23,Ticks_Phase_5,111,9999,9999,9999,9999,954996792
9,23,Ticks_Phase_5,112,9999,9999,9999,9999,955496560
9,23,Ticks_Phase_5,113,9999,9999,9999,9999,955996248
9,23,Ticks_Phase_5,114,9999,9999,9999,9999,956546132
9,23,Ticks_Phase_5,115,9999,9999,9999,9999,957046840
9,23,Ticks_Phase_5,116,9999,9999,9999,9999,957546604
9,23,Ticks_Phase_5,117,9999,9999,9999,9999,958046296
9,23,Ticks_Phase_5,118,9999,9999,9999,9999,958547036
9,23,Ticks_Phase_5,119,9999,9999,9999,9999,959046728
9,23,Ticks_Phase_5,120,9999,9999,9999,9999,959546492
9,23,Ticks_Phase_5,121,9999,9999,9999,9999,960046176
9,23,Ticks_Phase_5,122,9999,9999,9999,9999,960546912
9,23,Ticks_Phase_5,123,9999,9999,9999,9999,961046600
9,23,Ticks_Phase_5,124,9999,9999,9999,9999,961546360
9,23,Ticks_Phase_5,125,9999,9999,9999,9999,962047096
9,23,Ticks_Phase_5,126,9999,9999,9999,9999,962546784
9,23,Ticks_Phase_5,127,9999,9999,9999,9999,963046472
9,23,Ticks_Phase_5,128,9999,9999,9999,9999,963546236
9,23,Ticks_Phase_5,129,9999,9999,9999,9999,964046968
9,23,Ticks_Phase_5,130,9999,9999,9999,9999,964546656
9,23,Ticks_Phase_5,131,9999,9999,9999,9999,965146748
9,23,Ticks_Phase_5,132,9999,9999,9999,9999,965646452
9,23,Ticks_Phase_5,133,9999,9999,9999,9999,966146140
9,23,Ticks_Phase_5,134,9999,9999,9999,9999,966646876
9,23,Ticks_Phase_5,135,9999,9999,9999,9999,967146564
9,23,Ticks_Phase_5,136,9999,9999,9999,9999,967646324
9,23,Ticks_Phase_5,137,9999,9999,9999,9999,968147060
9,23,Ticks_Phase_5,138,9999,9999,9999,9999,968646748
9,23,Ticks_Phase_5,139,9999,9999,9999,9999,969146444
9,23,Ticks_Phase_5,140,9999,9999,9999,9999,969646200
9,23,Ticks_Phase_5,141,9999,9999,9999,9999,970146940
9,23,Ticks_Phase_5,142,9999,9999,9999,9999,970646628
9,23,Ticks_Phase_5,143,9999,9999,9999,9999,971146316
9,23,Ticks_Phase_5,144,9999,9999,9999,9999,971647052
9,23,Ticks_Phase_5,145,9999,9999,9999,9999,972146792
9,23,Ticks_Phase_5,146,9999,9999,9999,9999,972646480
9,23,Ticks_Phase_5,147,9999,9999,9999,9999,973146168
9,23,Ticks_Phase_5,148,9999,9999,9999,9999,973646976
9,23,Ticks_Phase_5,149,9999,9999,9999,9999,974146664
9,23,Ticks_Phase_5,150,9999,9999,9999,9999,974547052
9,23,Ticks_Phase_5,151,9999,9999,9999,9999,975046740
9,23,Ticks_Phase_5,152,9999,9999,9999,9999,975546452
9,23,Ticks_Phase_5,153,9999,9999,9999,9999,976046136
9,23,Ticks_Phase_5,154,9999,9999,9999,9999,976546872
9,23,Ticks_Phase_5,155,9999,9999,9999,9999,977046632
9,23,Ticks_Phase_5,156,9999,9999,9999,9999,977546320
9,23,Ticks_Phase_5,157,9999,9999,9999,9999,978047060
9,23,Ticks_Phase_5,158,9999,9999,9999,9999,978546796
9,23,Ticks_Phase_5,159,9999,9999,9999,9999,979046488
9,23,Ticks_Phase_5,160,9999,9999,9999,9999,979546168
9,23,Ticks_Phase_5,161,9999,9999,9999,9999,980046976
9,23,Ticks_Phase_5,162,9999,9999,9999,9999,980546664
9,23,Ticks_Phase_5,163,9999,9999,9999,9999,981046352
9,23,Ticks_Phase_5,164,9999,9999,9999,9999,981547088
9,23,Ticks_Phase_5,165,9999,9999,9999,9999,982057040
9,23,Ticks_Phase_5,166,9999,9999,9999,9999,982556800
9,23,Ticks_Phase_5,167,9999,9999,9999,9999,983056488
9,23,Ticks_Phase_5,168,9999,9999,9999,9999,983556180
9,23,Ticks_Phase_5,169,9999,9999,9999,9999,984056912
10,22,Ticks_Phase_8,0,5,42,127,995248652
10,22,Ticks_Phase_8,1,1,48,25,995613800
10,22,Ticks_Phase_8,2,5,42,127,996049260
10,22,Ticks_Phase_8,3,1,48,24,996508124
10,22,Ticks_Phase_8,4,5,42,127,996848972
10,22,Ticks_Phase_8,5,1,48,27,997322728
10,22,Ticks_Phase_8,6,5,42,127,997648684
10,22,Ticks_Phase_8,7,1,48,26,998140568
10,22,Ticks_Phase_8,8,5,42,127,998448472
10,22,Ticks_Phase_8,9,5,42,127,999249176
10,22,Ticks_Phase_8,10,1,48,24,999538848
10,22,Ticks_Phase_8,11,5,42,127,1000049040
10,22,Ticks_Phase_8,12,1,48,21,1000053352
10,22,Ticks_Phase_8,13,1,48,20,1000691076
10,22,Ticks_Phase_8,14,5,42,127,1000848828
10,22,Ticks_Phase_8,15,1,48,19,1001494000
10,22,Ticks_Phase_8,16,5,42,127,1001648536
10,22,Ticks_Phase_8,17,1,48,21,1002328248
10,22,Ticks_Phase_8,18,5,42,127,1002449372
10,22,Ticks_Phase_8,19,1,48,21,1003183536
10,22,Ticks_Phase_8,20,5,42,127,1003248948
10,22,Ticks_Phase_8,21,1,48,21,1004025108
10,22,Ticks_Phase_8,22,5,42,127,1004048732
10,22,Ticks_Phase_8,23,5,42,127,1004848604
10,22,Ticks_Phase_8,24,1,48,22,1004851276
10,22,Ticks_Phase_8,25,5,42,127,1005649512
10,22,Ticks_Phase_8,26,1,48,20,1005681608
10,22,Ticks_Phase_8,27,5,42,127,1006448924
10,22,Ticks_Phase_8,28,1,48,20,1006513996
10,22,Ticks_Phase_8,29,5,42,127,1007248888
10,22,Ticks_Phase_8,30,1,48,24,1007362612
10,22,Ticks_Phase_8,31,5,42,127,1008048448
10,22,Ticks_Phase_8,32,1,48,21,1008328760
10,22,Ticks_Phase_8,33,5,42,127,1008849508
10,22,Ticks_Phase_8,34,1,48,19,1009260340
10,22,Ticks_Phase_8,35,5,42,127,1009648992
10,22,Ticks_Phase_8,36,1,48,24,1010165432
10,22,Ticks_Phase_8,37,5,42,127,1010448780
10,22,Ticks_Phase_8,38,1,48,24,1011210660
10,22,Ticks_Phase_8,39,5,42,127,1011248580
10,22,Ticks_Phase_8,40,5,42,127,1012049644
10,22,Ticks_Phase_8,41,1,48,22,1012059436
10,22,Ticks_Phase_8,42,5,42,127,1012849428
10,22,Ticks_Phase_8,43,1,48,31,1012930908
10,22,Ticks_Phase_8,44,5,42,127,1013648720
10,22,Ticks_Phase_8,45,1,48,20,1013766648
10,22,Ticks_Phase_8,46,5,42,127,1014448432
10,22,Ticks_Phase_8,47,1,48,25,1014518056
10,22,Ticks_Phase_8,48,5,42,127,1015249488
10,22,Ticks_Phase_8,49,1,48,25,1015287816
10,22,Ticks_Phase_8,50,5,42,127,1016049052
10,22,Ticks_Phase_8,51,1,48,25,1016089692
10,22,Ticks_Phase_8,52,5,42,127,1016848688
10,22,Ticks_Phase_8,53,1,48,25,1016867464
10,22,Ticks_Phase_8,54,5,42,127,1017648472
10,22,Ticks_Phase_8,55,1,48,21,1017669116
10,22,Ticks_Phase_8,56,5,42,127,1018449232
10,22,Ticks_Phase_8,57,1,48,28,1018493188
10,22,Ticks_Phase_8,58,5,42,127,1019228428
10,22,Ticks_Phase_8,59,1,48,24,1019298524
10,22,Ticks_Phase_8,60,5,42,127,1020029360
10,22,Ticks_Phase_8,61,1,48,28,1020056284
10,22,Ticks_Phase_8,62,5,42,127,1020829072
10,22,Ticks_Phase_8,63,1,48,23,1020858708
10,22,Ticks_Phase_8,64,5,42,127,1021628788
10,22,Ticks_Phase_8,65,1,48,22,1021637228
10,22,Ticks_Phase_8,66,5,42,127,1022428648
10,22,Ticks_Phase_8,67,1,48,28,1022442324
10,22,Ticks_Phase_8,68,5,42,127,1023229184
10,22,Ticks_Phase_8,69,1,48,25,1023232152
10,22,Ticks_Phase_8,70,1,48,26,1024021520
10,22,Ticks_Phase_8,71,5,42,127,1024029036
10,22,Ticks_Phase_8,72,5,42,127,1024828980
10,22,Ticks_Phase_8,73,1,48,30,1024860560
10,22,Ticks_Phase_8,74,5,42,127,1025628544
10,22,Ticks_Phase_8,75,1,48,30,1025681416
10,22,Ticks_Phase_8,76,5,42,127,1026429328
10,22,Ticks_Phase_8,77,1,48,29,1026451020
10,22,Ticks_Phase_8,78,5,42,127,1027229112
10,22,Ticks_Phase_8,79,1,48,30,1027243984
10,22,Ticks_Phase_8,80,5,42,127,1028028752
10,22,Ticks_Phase_8,81,1,48,28,1028036576
10,22,Ticks_Phase_8,82,5,42,127,1028828540
10,22,Ticks_Phase_8,83,1,48,34,1028862212
10,22,Ticks_Phase_8,84,5,42,127,1029629224
10,22,Ticks_Phase_8,85,1,48,30,1029665660
10,22,Ticks_Phase_8,86,5,42,127,1030429232
10,22,Ticks_Phase_8,87,1,48,28,1030465148
10,22,Ticks_Phase_8,88,5,42,127,1031228796
10,22,Ticks_Phase_8,89,1,48,33,1031305328
10,22,Ticks_Phase_8,90,5,42,127,1032028432
10,22,Ticks_Phase_8,91,1,48,27,1032109908
10,22,Ticks_Phase_8,92,5,42,127,1032829292
10,22,Ticks_Phase_8,93,1,48,35,1032849260
10,22,Ticks_Phase_8,94,1,48,26,1033616076
10,22,Ticks_Phase_8,95,5,42,127,1033648544
10,22,Ticks_Phase_8,96,5,42,127,1034449384
10,22,Ticks_Phase_8,97,1,48,32,1034455936
10,22,Ticks_Phase_8,98,5,42,127,1035249096
10,22,Ticks_Phase_8,99,1,48,29,1035311000
10,22,Ticks_Phase_8,100,5,42,127,1036048952
10,22,Ticks_Phase_8,101,1,48,33,1036076348
10,22,Ticks_Phase_8,102,1,48,34,1036825856
10,22,Ticks_Phase_8,103,5,42,127,1036848360
10,22,Ticks_Phase_8,104,5,42,127,1037649124
10,22,Ticks_Phase_8,105,1,48,30,1037670744
10,22,Ticks_Phase_8,106,5,42,127,1038449136
10,22,Ticks_Phase_8,107,1,48,32,1038450852
10,22,Ticks_Phase_8,108,1,48,31,1039222596
10,22,Ticks_Phase_8,109,5,42,127,1039248864
10,22,Ticks_Phase_8,110,1,48,31,1040037544
10,22,Ticks_Phase_8,111,5,42,127,1040048428
10,22,Ticks_Phase_8,112,5,42,127,1040849192
10,22,Ticks_Phase_8,113,1,48,28,1040860476
10,22,Ticks_Phase_8,114,5,42,127,1041649052
10,22,Ticks_Phase_8,115,1,48,28,1041711408
10,22,Ticks_Phase_8,116,5,42,127,1042448916
10,22,Ticks_Phase_8,117,1,48,31,1042461096
10,22,Ticks_Phase_8,118,1,48,32,1043210996
10,22,Ticks_Phase_8,119,5,42,127,1043248548
10,22,Ticks_Phase_8,120,1,48,32,1044022392
10,22,Ticks_Phase_8,121,5,42,127,1044049232
10,22,Ticks_Phase_8,122,1,48,33,1044785776
10,22,Ticks_Phase_8,123,5,42,127,1044849016
10,22,Ticks_Phase_8,124,1,48,30,1045595820
10,22,Ticks_Phase_8,125,5,42,127,1045649124
10,22,Ticks_Phase_8,126,1,48,28,1046427396
10,22,Ticks_Phase_8,127,5,42,127,1046488384
10,22,Ticks_Phase_8,128,1,48,26,1047254284
10,22,Ticks_Phase_8,129,5,42,127,1047289292
10,22,Ticks_Phase_8,130,1,48,30,1048079012
10,22,Ticks_Phase_8,131,5,42,127,1048089076
10,22,Ticks_Phase_8,132,1,48,30,1048873404
10,22,Ticks_Phase_8,133,5,42,127,1048888788
10,22,Ticks_Phase_8,134,5,42,127,1049688432
10,22,Ticks_Phase_8,135,1,48,33,1049692376
10,22,Ticks_Phase_8,136,5,42,127,1050489068
10,22,Ticks_Phase_8,137,1,48,32,1050531952
10,22,Ticks_Phase_8,138,5,42,127,1051289076
10,22,Ticks_Phase_8,139,1,48,28,1051343344
10,22,Ticks_Phase_8,140,5,42,127,1052088792
10,22,Ticks_Phase_8,141,1,48,31,1052160804
10,22,Ticks_Phase_8,142,5,42,127,1052888428
10,22,Ticks_Phase_8,143,1,48,24,1052949588
10,22,Ticks_Phase_8,144,5,42,127,1053689184
10,22,Ticks_Phase_8,145,1,48,35,1053720460
10,22,Ticks_Phase_8,146,5,42,127,1054488896
10,22,Ticks_Phase_8,147,1,48,29,1054573716
10,22,Ticks_Phase_8,148,5,42,127,1055288832
10,22,Ticks_Phase_8,149,1,48,31,1055359900
10,22,Ticks_Phase_8,150,5,42,127,1056088320
10,22,Ticks_Phase_8,151,1,48,27,1056132204
10,22,Ticks_Phase_8,152,5,42,127,1056889180
10,22,Ticks_Phase_8,153,1,48,25,1056891844
10,22,Ticks_Phase_8,154,5,42,127,1057688892
10,22,Ticks_Phase_8,155,1,48,33,1057729608
10,22,Ticks_Phase_8,156,5,42,127,1058488676
10,22,Ticks_Phase_8,157,1,48,27,1058509028
10,22,Ticks_Phase_8,158,5,42,127,1059288688
10,22,Ticks_Phase_8,159,1,48,32,1059307620
10,22,Ticks_Phase_8,160,5,42,127,1060049236
10,22,Ticks_Phase_8,161,1,48,37,1060094064
10,22,Ticks_Phase_8,162,5,42,127,1060849024
10,22,Ticks_Phase_8,163,1,48,39,1060867500
10,22,Ticks_Phase_8,164,1,48,35,1061642704
10,22,Ticks_Phase_8,165,5,42,127,1061648652
10,22,Ticks_Phase_8,166,1,48,35,1062440620
10,22,Ticks_Phase_8,167,5,42,127,1062448588
10,22,Ticks_Phase_8,168,1,48,34,1063210156
10,22,Ticks_Phase_8,169,5,42,127,1063249200
10,22,Ticks_Phase_8,170,1,48,29,1064012256
10,22,Ticks_Phase_8,171,5,42,127,1064049056
10,22,Ticks_Phase_8,172,1,48,40,1064794816
10,22,Ticks_Phase_8,173,5,42,127,1064848720
10,22,Ticks_Phase_8,174,1,48,36,1065580976
10,22,Ticks_Phase_8,175,5,42,127,1065648656
10,22,Ticks_Phase_8,176,1,48,42,1066381688
10,22,Ticks_Phase_8,177,5,42,127,1066449708
10,22,Ticks_Phase_8,178,1,48,38,1067223184
10,22,Ticks_Phase_8,179,5,42,127,1067248900
10,22,Ticks_Phase_8,180,1,48,35,1068025960
10,22,Ticks_Phase_8,181,5,42,127,1068048612
10,22,Ticks_Phase_8,182,1,48,30,1068821408
10,22,Ticks_Phase_8,183,5,42,127,1068848628
10,22,Ticks_Phase_8,184,1,48,33,1069639776
10,22,Ticks_Phase_8,185,5,42,127,1069649460
10,22,Ticks_Phase_8,186,1,48,35,1070402712
10,22,Ticks_Phase_8,187,5,42,127,1070448948
10,22,Ticks_Phase_8,188,1,48,40,1071202496
10,22,Ticks_Phase_8,189,5,42,127,1071248760
10,22,Ticks_Phase_8,190,1,48,40,1071977128
10,22,Ticks_Phase_8,191,5,42,127,1072048472
10,22,Ticks_Phase_8,192,5,42,127,1072769332
10,22,Ticks_Phase_8,193,1,48,35,1072796800
10,22,Ticks_Phase_8,194,5,42,127,1073569268
10,22,Ticks_Phase_8,195,1,48,37,1073586552
10,22,Ticks_Phase_8,196,1,48,36,1074367320
10,22,Ticks_Phase_8,197,5,42,127,1074368828
10,22,Ticks_Phase_8,198,1,48,37,1075132332
10,22,Ticks_Phase_8,199,5,42,127,1075168612
10,22,Ticks_Phase_8,200,1,48,40,1075905232
10,22,Ticks_Phase_8,201,5,42,127,1075969668
10,22,Ticks_Phase_8,202,1,48,31,1076726812
10,22,Ticks_Phase_8,203,5,42,127,1076769084
10,22,Ticks_Phase_8,204,1,48,40,1077511848
10,22,Ticks_Phase_8,205,5,42,127,1077568868
10,22,Ticks_Phase_8,206,1,48,35,1078320404
10,22,Ticks_Phase_8,207,5,42,127,1078368508
10,22,Ticks_Phase_8,208,1,48,35,1079131868
10,22,Ticks_Phase_8,209,5,42,127,1079169516
10,22,Ticks_Phase_8,210,1,48,36,1079901404
10,22,Ticks_Phase_8,211,5,42,127,1079969528
10,22,Ticks_Phase_8,212,1,48,37,1080714616
10,22,Ticks_Phase_8,213,5,42,127,1080769016
10,22,Ticks_Phase_8,214,1,48,35,1081521596
10,22,Ticks_Phase_8,215,5,42,127,1081568580
10,22,Ticks_Phase_8,216,1,48,36,1082334180
10,22,Ticks_Phase_8,217,5,42,127,1082369416
10,22,Ticks_Phase_8,218,1,48,36,1083145428
10,22,Ticks_Phase_8,219,5,42,127,1083169424
10,22,Ticks_Phase_8,220,1,48,28,1083929496
10,22,Ticks_Phase_8,221,5,42,127,1083968916
10,22,Ticks_Phase_8,222,1,48,34,1084746496
10,22,Ticks_Phase_8,223,5,42,127,1084768476
10,22,Ticks_Phase_8,224,1,48,39,1085557856
10,22,Ticks_Phase_8,225,5,42,127,1085569336
10,22,Ticks_Phase_8,226,1,48,33,1086318296
10,22,Ticks_Phase_8,227,5,42,127,1086449088
10,22,Ticks_Phase_8,228,5,42,127,1087248972
10,22,Ticks_Phase_8,229,1,48,32,1087274256
10,22,Ticks_Phase_8,230,5,42,127,1088048384
10,22,Ticks_Phase_8,231,1,48,37,1088176056
10,22,Ticks_Phase_8,232,5,42,127,1088849368
10,22,Ticks_Phase_8,233,1,48,35,1089262700
10,22,Ticks_Phase_8,234,5,42,127,1089649228
10,22,Ticks_Phase_8,235,1,48,32,1090147488
10,22,Ticks_Phase_8,236,5,42,127,1090448964
10,22,Ticks_Phase_8,237,1,48,26,1090927128
10,22,Ticks_Phase_8,238,5,42,127,1091248380
10,22,Ticks_Phase_8,239,1,48,24,1091894452
10,22,Ticks_Phase_8,240,5,42,127,1092049212
10,22,Ticks_Phase_8,241,1,48,24,1092789896
10,22,Ticks_Phase_8,242,5,42,127,1092848940
10,22,Ticks_Phase_8,243,5,42,127,1093648956
10,22,Ticks_Phase_8,244,1,48,27,1093676272
10,22,Ticks_Phase_8,245,5,42,127,1094448520
10,22,Ticks_Phase_8,246,1,48,24,1094568936
10,22,Ticks_Phase_8,247,5,42,127,1095249204
10,22,Ticks_Phase_8,248,1,48,27,1095373284
10,22,Ticks_Phase_8,249,5,42,127,1096048988
10,22,Ticks_Phase_8,250,1,48,29,1096168208
10,22,Ticks_Phase_8,251,5,42,127,1096848948
10,22,Ticks_Phase_8,252,1,48,26,1096938192
10,22,Ticks_Phase_8,253,5,42,127,1097648436
10,22,Ticks_Phase_8,254,1,48,28,1097759244
10,22,Ticks_Phase_8,255,5,42,127,1098449268
10,22,Ticks_Phase_8,256,1,48,27,1098551160
10,22,Ticks_Phase_8,257,5,42,127,1099249128
10,22,Ticks_Phase_8,258,1,48,25,1099295904
10,22,Ticks_Phase_8,259,1,48,25,1100116940
10,22,Ticks_Phase_8,260,5,42,127,1100208444
10,22,Ticks_Phase_8,261,1,48,30,1100969560
10,22,Ticks_Phase_8,262,5,42,127,1101009204
10,22,Ticks_Phase_8,263,5,42,127,1101808996
10,22,Ticks_Phase_8,264,1,48,35,1101838252
10,22,Ticks_Phase_8,265,5,42,127,1102608932
10,22,Ticks_Phase_8,266,1,48,32,1102848500
10,22,Ticks_Phase_8,267,5,42,127,1103408420
10,22,Ticks_Phase_8,268,1,48,22,1103793884
10,22,Ticks_Phase_8,269,5,42,127,1104209176
10,22,Ticks_Phase_8,270,1,48,17,1104510028
10,22,Ticks_Phase_8,271,5,42,127,1105008964
10,22,Ticks_Phase_8,272,1,48,14,1105362008
10,22,Ticks_Phase_8,273,5,42,127,1105808700
10,22,Ticks_Phase_8,274,1,48,19,1106453424
10,22,Ticks_Phase_8,275,5,42,127,1106608628
10,22,Ticks_Phase_8,276,1,48,22,1107264136
10,22,Ticks_Phase_8,277,5,42,127,1107409164
10,22,Ticks_Phase_8,278,1,48,19,1108152092
10,22,Ticks_Phase_8,279,5,42,127,1108208964
10,22,Ticks_Phase_8,280,1,48,17,1108970532
10,22,Ticks_Phase_8,281,5,42,127,1109008752
10,22,Ticks_Phase_8,282,5,42,127,1109808620
10,22,Ticks_Phase_8,283,1,48,26,1109839372
10,22,Ticks_Phase_8,284,5,42,127,1110609304
10,22,Ticks_Phase_8,285,1,48,19,1110715564
10,22,Ticks_Phase_8,286,5,42,127,1111409164
10,22,Ticks_Phase_8,287,1,48,20,1111530932
10,22,Ticks_Phase_8,288,5,42,127,1112208972
10,22,Ticks_Phase_8,289,1,48,22,1112313864
10,22,Ticks_Phase_8,290,5,42,127,1113008684
10,22,Ticks_Phase_8,291,1,48,19,1113024532
10,22,Ticks_Phase_8,292,1,48,20,1113786500
10,22,Ticks_Phase_8,293,5,42,127,1113809212
10,22,Ticks_Phase_8,294,5,42,127,1114609008
10,22,Ticks_Phase_8,295,1,48,18,1114695316
10,22,Ticks_Phase_8,296,5,42,127,1115248884
10,22,Ticks_Phase_8,297,1,48,25,1115465448
10,22,Ticks_Phase_8,298,5,42,127,1116048696
10,22,Ticks_Phase_8,299,1,48,19,1116415040
10,22,Ticks_Phase_8,300,5,42,127,1116848704
10,22,Ticks_Phase_8,301,1,48,29,1117254512
10,22,Ticks_Phase_8,302,5,42,127,1117649388
10,22,Ticks_Phase_8,303,1,48,22,1118095512
10,22,Ticks_Phase_8,304,5,42,127,1118448952
10,22,Ticks_Phase_8,305,1,48,29,1118898456
10,22,Ticks_Phase_8,306,5,42,127,1119248668
10,22,Ticks_Phase_8,307,1,48,24,1119705868
10,22,Ticks_Phase_8,308,5,42,127,1120048676
10,22,Ticks_Phase_8,309,1,48,15,1120801788
10,22,Ticks_Phase_8,310,5,42,127,1120849152
10,22,Ticks_Phase_8,311,5,42,127,1121648944
10,22,Ticks_Phase_8,312,1,48,25,1121687068
10,22,Ticks_Phase_8,313,5,42,127,1122448608
10,22,Ticks_Phase_8,314,1,48,24,1122508272
10,22,Ticks_Phase_8,315,5,42,127,1123248468
10,22,Ticks_Phase_8,316,1,48,27,1123313588
10,22,Ticks_Phase_8,317,5,42,127,1124049376
10,22,Ticks_Phase_8,318,1,48,22,1124157940
10,22,Ticks_Phase_8,319,5,42,127,1124848864
10,22,Ticks_Phase_8,320,1,48,22,1124924392
10,22,Ticks_Phase_8,321,5,42,127,1125648796
10,22,Ticks_Phase_8,322,1,48,19,1125762104
10,22,Ticks_Phase_8,323,5,42,127,1126448508
10,22,Ticks_Phase_8,324,1,48,21,1126536436
10,22,Ticks_Phase_8,325,5,42,127,1127249344
10,22,Ticks_Phase_8,326,1,48,24,1127324824
10,22,Ticks_Phase_8,327,5,42,127,1128049128
10,22,Ticks_Phase_8,328,1,48,17,1128163752
10,22,Ticks_Phase_8,329,5,42,127,1128848768
10,22,Ticks_Phase_8,330,1,48,22,1128918540
10,22,Ticks_Phase_8,331,5,42,127,1129648404
10,22,Ticks_Phase_8,332,1,48,19,1129690088
10,22,Ticks_Phase_8,333,1,48,24,1130435716
10,22,Ticks_Phase_8,334,5,42,127,1130449528
10,22,Ticks_Phase_8,0,9999,9999,9999,9999,995246144
10,22,Ticks_Phase_8,1,9999,9999,9999,9999,996046976
10,22,Ticks_Phase_8,2,9999,9999,9999,9999,996846684
10,22,Ticks_Phase_8,3,9999,9999,9999,9999,997646396
10,22,Ticks_Phase_8,4,9999,9999,9999,9999,998446184
10,22,Ticks_Phase_8,5,9999,9999,9999,9999,999246964
10,22,Ticks_Phase_8,6,9999,9999,9999,9999,1000046676
10,22,Ticks_Phase_8,7,9999,9999,9999,9999,1000846392
10,22,Ticks_Phase_8,8,9999,9999,9999,9999,1001646176
10,22,Ticks_Phase_8,9,9999,9999,9999,9999,1002446936
10,22,Ticks_Phase_8,10,9999,9999,9999,9999,1003246664
10,22,Ticks_Phase_8,11,9999,9999,9999,9999,1004046448
10,22,Ticks_Phase_8,12,9999,9999,9999,9999,1004846168
10,22,Ticks_Phase_8,13,9999,9999,9999,9999,1005646924
10,22,Ticks_Phase_8,14,9999,9999,9999,9999,1006446712
10,22,Ticks_Phase_8,15,9999,9999,9999,9999,1007246452
10,22,Ticks_Phase_8,16,9999,9999,9999,9999,1008046164
10,22,Ticks_Phase_8,17,9999,9999,9999,9999,1008846924
10,22,Ticks_Phase_8,18,9999,9999,9999,9999,1009646708
10,22,Ticks_Phase_8,19,9999,9999,9999,9999,1010446420
10,22,Ticks_Phase_8,20,9999,9999,9999,9999,1011246148
10,22,Ticks_Phase_8,21,9999,9999,9999,9999,1012046912
10,22,Ticks_Phase_8,22,9999,9999,9999,9999,1012846696
10,22,Ticks_Phase_8,23,9999,9999,9999,9999,1013646432
10,22,Ticks_Phase_8,24,9999,9999,9999,9999,1014446144
10,22,Ticks_Phase_8,25,9999,9999,9999,9999,1015246976
10,22,Ticks_Phase_8,26,9999,9999,9999,9999,1016046688
10,22,Ticks_Phase_8,27,9999,9999,9999,9999,1016846400
10,22,Ticks_Phase_8,28,9999,9999,9999,9999,1017646184
10,22,Ticks_Phase_8,29,9999,9999,9999,9999,1018446944
10,22,Ticks_Phase_8,30,9999,9999,9999,9999,1019226212
10,22,Ticks_Phase_8,31,9999,9999,9999,9999,1020027000
10,22,Ticks_Phase_8,32,9999,9999,9999,9999,1020826712
10,22,Ticks_Phase_8,33,9999,9999,9999,9999,1021626424
10,22,Ticks_Phase_8,34,9999,9999,9999,9999,1022426212
10,22,Ticks_Phase_8,35,9999,9999,9999,9999,1023226972
10,22,Ticks_Phase_8,36,9999,9999,9999,9999,1024026752
10,22,Ticks_Phase_8,37,9999,9999,9999,9999,1024826472
10,22,Ticks_Phase_8,38,9999,9999,9999,9999,1025626180
10,22,Ticks_Phase_8,39,9999,9999,9999,9999,1026426964
10,22,Ticks_Phase_8,40,9999,9999,9999,9999,1027226752
10,22,Ticks_Phase_8,41,9999,9999,9999,9999,1028026464
10,22,Ticks_Phase_8,42,9999,9999,9999,9999,1028826176
10,22,Ticks_Phase_8,43,9999,9999,9999,9999,1029626936
10,22,Ticks_Phase_8,44,9999,9999,9999,9999,1030426724
10,22,Ticks_Phase_8,45,9999,9999,9999,9999,1031226432
10,22,Ticks_Phase_8,46,9999,9999,9999,9999,1032026220
10,22,Ticks_Phase_8,47,9999,9999,9999,9999,1032827004
10,22,Ticks_Phase_8,48,9999,9999,9999,9999,1033646180
10,22,Ticks_Phase_8,49,9999,9999,9999,9999,1034446948
10,22,Ticks_Phase_8,50,9999,9999,9999,9999,1035246660
10,22,Ticks_Phase_8,51,9999,9999,9999,9999,1036046444
10,22,Ticks_Phase_8,52,9999,9999,9999,9999,1036846148
10,22,Ticks_Phase_8,53,9999,9999,9999,9999,1037646912
10,22,Ticks_Phase_8,54,9999,9999,9999,9999,1038446700
10,22,Ticks_Phase_8,55,9999,9999,9999,9999,1039246432
10,22,Ticks_Phase_8,56,9999,9999,9999,9999,1040046144
10,22,Ticks_Phase_8,57,9999,9999,9999,9999,1040846908
10,22,Ticks_Phase_8,58,9999,9999,9999,9999,1041646692
10,22,Ticks_Phase_8,59,9999,9999,9999,9999,1042446404
10,22,Ticks_Phase_8,60,9999,9999,9999,9999,1043246188
10,22,Ticks_Phase_8,61,9999,9999,9999,9999,1044046944
10,22,Ticks_Phase_8,62,9999,9999,9999,9999,1044846656
10,22,Ticks_Phase_8,63,9999,9999,9999,9999,1045646464
10,22,Ticks_Phase_8,64,9999,9999,9999,9999,1046486096
10,22,Ticks_Phase_8,65,9999,9999,9999,9999,1047286856
10,22,Ticks_Phase_8,66,9999,9999,9999,9999,1048086640
10,22,Ticks_Phase_8,67,9999,9999,9999,9999,1048886352
10,22,Ticks_Phase_8,68,9999,9999,9999,9999,1049686148
10,22,Ticks_Phase_8,69,9999,9999,9999,9999,1050486856
10,22,Ticks_Phase_8,70,9999,9999,9999,9999,1051286644
10,22,Ticks_Phase_8,71,9999,9999,9999,9999,1052086352
10,22,Ticks_Phase_8,72,9999,9999,9999,9999,1052886140
10,22,Ticks_Phase_8,73,9999,9999,9999,9999,1053686900
10,22,Ticks_Phase_8,74,9999,9999,9999,9999,1054486612
10,22,Ticks_Phase_8,75,9999,9999,9999,9999,1055286396
10,22,Ticks_Phase_8,76,9999,9999,9999,9999,1056086108
10,22,Ticks_Phase_8,77,9999,9999,9999,9999,1056886892
10,22,Ticks_Phase_8,78,9999,9999,9999,9999,1057686604
10,22,Ticks_Phase_8,79,9999,9999,9999,9999,1058486392
10,22,Ticks_Phase_8,80,9999,9999,9999,9999,1059286104
10,22,Ticks_Phase_8,81,9999,9999,9999,9999,1060046948
10,22,Ticks_Phase_8,82,9999,9999,9999,9999,1060846660
10,22,Ticks_Phase_8,83,9999,9999,9999,9999,1061646440
10,22,Ticks_Phase_8,84,9999,9999,9999,9999,1062446152
10,22,Ticks_Phase_8,85,9999,9999,9999,9999,1063246912
10,22,Ticks_Phase_8,86,9999,9999,9999,9999,1064046696
10,22,Ticks_Phase_8,87,9999,9999,9999,9999,1064846436
10,22,Ticks_Phase_8,88,9999,9999,9999,9999,1065646144
10,22,Ticks_Phase_8,89,9999,9999,9999,9999,1066446976
10,22,Ticks_Phase_8,90,9999,9999,9999,9999,1067246688
10,22,Ticks_Phase_8,91,9999,9999,9999,9999,1068046400
10,22,Ticks_Phase_8,92,9999,9999,9999,9999,1068846192
10,22,Ticks_Phase_8,93,9999,9999,9999,9999,1069646948
10,22,Ticks_Phase_8,94,9999,9999,9999,9999,1070446660
10,22,Ticks_Phase_8,95,9999,9999,9999,9999,1071246396
10,22,Ticks_Phase_8,96,9999,9999,9999,9999,1072046184
10,22,Ticks_Phase_8,97,9999,9999,9999,9999,1072767044
10,22,Ticks_Phase_8,98,9999,9999,9999,9999,1073566832
10,22,Ticks_Phase_8,99,9999,9999,9999,9999,1074366548
10,22,Ticks_Phase_8,100,9999,9999,9999,9999,1075166328
10,22,Ticks_Phase_8,101,9999,9999,9999,9999,1075967084
10,22,Ticks_Phase_8,102,9999,9999,9999,9999,1076766796
10,22,Ticks_Phase_8,103,9999,9999,9999,9999,1077566584
10,22,Ticks_Phase_8,104,9999,9999,9999,9999,1078366296
10,22,Ticks_Phase_8,105,9999,9999,9999,9999,1079167080
10,22,Ticks_Phase_8,106,9999,9999,9999,9999,1079966796
10,22,Ticks_Phase_8,107,9999,9999,9999,9999,1080766584
10,22,Ticks_Phase_8,108,9999,9999,9999,9999,1081566296
10,22,Ticks_Phase_8,109,9999,9999,9999,9999,1082367052
10,22,Ticks_Phase_8,110,9999,9999,9999,9999,1083166840
10,22,Ticks_Phase_8,111,9999,9999,9999,9999,1083966556
10,22,Ticks_Phase_8,112,9999,9999,9999,9999,1084766264
10,22,Ticks_Phase_8,113,9999,9999,9999,9999,1085567048
10,22,Ticks_Phase_8,114,9999,9999,9999,9999,1086446652
10,22,Ticks_Phase_8,115,9999,9999,9999,9999,1087246460
10,22,Ticks_Phase_8,116,9999,9999,9999,9999,1088046172
10,22,Ticks_Phase_8,117,9999,9999,9999,9999,1088846936
10,22,Ticks_Phase_8,118,9999,9999,9999,9999,1089646720
10,22,Ticks_Phase_8,119,9999,9999,9999,9999,1090446456
10,22,Ticks_Phase_8,120,9999,9999,9999,9999,1091246168
10,22,Ticks_Phase_8,121,9999,9999,9999,9999,1092046924
10,22,Ticks_Phase_8,122,9999,9999,9999,9999,1092846652
10,22,Ticks_Phase_8,123,9999,9999,9999,9999,1093646444
10,22,Ticks_Phase_8,124,9999,9999,9999,9999,1094446156
10,22,Ticks_Phase_8,125,9999,9999,9999,9999,1095246916
10,22,Ticks_Phase_8,126,9999,9999,9999,9999,1096046700
10,22,Ticks_Phase_8,127,9999,9999,9999,9999,1096846436
10,22,Ticks_Phase_8,128,9999,9999,9999,9999,1097646148
10,22,Ticks_Phase_8,129,9999,9999,9999,9999,1098446908
10,22,Ticks_Phase_8,130,9999,9999,9999,9999,1099246692
10,22,Ticks_Phase_8,131,9999,9999,9999,9999,1100206156
10,22,Ticks_Phase_8,132,9999,9999,9999,9999,1101006916
10,22,Ticks_Phase_8,133,9999,9999,9999,9999,1101806708
10,22,Ticks_Phase_8,134,9999,9999,9999,9999,1102606420
10,22,Ticks_Phase_8,135,9999,9999,9999,9999,1103406208
10,22,Ticks_Phase_8,136,9999,9999,9999,9999,1104206964
10,22,Ticks_Phase_8,137,9999,9999,9999,9999,1105006676
10,22,Ticks_Phase_8,138,9999,9999,9999,9999,1105806416
10,22,Ticks_Phase_8,139,9999,9999,9999,9999,1106606192
10,22,Ticks_Phase_8,140,9999,9999,9999,9999,1107406952
10,22,Ticks_Phase_8,141,9999,9999,9999,9999,1108206676
10,22,Ticks_Phase_8,142,9999,9999,9999,9999,1109006464
10,22,Ticks_Phase_8,143,9999,9999,9999,9999,1109806184
10,22,Ticks_Phase_8,144,9999,9999,9999,9999,1110606940
10,22,Ticks_Phase_8,145,9999,9999,9999,9999,1111406652
10,22,Ticks_Phase_8,146,9999,9999,9999,9999,1112206464
10,22,Ticks_Phase_8,147,9999,9999,9999,9999,1113006176
10,22,Ticks_Phase_8,148,9999,9999,9999,9999,1113806928
10,22,Ticks_Phase_8,149,9999,9999,9999,9999,1114606720
10,22,Ticks_Phase_8,150,9999,9999,9999,9999,1115246672
10,22,Ticks_Phase_8,151,9999,9999,9999,9999,1116046408
10,22,Ticks_Phase_8,152,9999,9999,9999,9999,1116846196
10,22,Ticks_Phase_8,153,9999,9999,9999,9999,1117646952
10,22,Ticks_Phase_8,154,9999,9999,9999,9999,1118446664
10,22,Ticks_Phase_8,155,9999,9999,9999,9999,1119246452
10,22,Ticks_Phase_8,156,9999,9999,9999,9999,1120046164
10,22,Ticks_Phase_8,157,9999,9999,9999,9999,1120846940
10,22,Ticks_Phase_8,158,9999,9999,9999,9999,1121646660
10,22,Ticks_Phase_8,159,9999,9999,9999,9999,1122446396
10,22,Ticks_Phase_8,160,9999,9999,9999,9999,1123246184
10,22,Ticks_Phase_8,161,9999,9999,9999,9999,1124046940
10,22,Ticks_Phase_8,162,9999,9999,9999,9999,1124846652
10,22,Ticks_Phase_8,163,9999,9999,9999,9999,1125646436
10,22,Ticks_Phase_8,164,9999,9999,9999,9999,1126446148
10,22,Ticks_Phase_8,165,9999,9999,9999,9999,1127246908
10,22,Ticks_Phase_8,166,9999,9999,9999,9999,1128046692
10,22,Ticks_Phase_8,167,9999,9999,9999,9999,1128846404
10,22,Ticks_Phase_8,168,9999,9999,9999,9999,1129646192
10,22,Ticks_Phase_8,169,9999,9999,9999,9999,1130446944
11,25,Jits_Pract_5,0,5,56,103,1188221356
11,25,Jits_Pract_5,1,5,63,98,1188224380
11,25,Jits_Pract_5,2,5,80,127,1188227356
11,25,Jits_Pract_5,0,5,56,103,1188721156
11,25,Jits_Pract_5,1,5,63,98,1188724256
11,25,Jits_Pract_5,2,5,80,127,1188727228
11,25,Jits_Pract_5,0,5,56,103,1189220576
11,25,Jits_Pract_5,1,5,80,127,1189231068
11,25,Jits_Pract_5,2,5,63,98,1189250360
11,25,Jits_Pract_5,0,5,63,98,1189671244
11,25,Jits_Pract_5,1,5,80,127,1189700920
11,25,Jits_Pract_5,2,5,56,103,1189711416
11,25,Jits_Pract_5,0,5,80,127,1190231360
11,25,Jits_Pract_5,1,5,56,103,1190240660
11,25,Jits_Pract_5,2,5,63,98,1190271328
11,25,Jits_Pract_5,0,5,63,98,1190720768
11,25,Jits_Pract_5,1,5,56,103,1190750520
11,25,Jits_Pract_5,2,5,80,127,1190760940
11,25,Jits_Pract_5,0,5,56,103,1191170380
11,25,Jits_Pract_5,1,5,63,98,1191220580
11,25,Jits_Pract_5,2,5,80,127,1191241336
11,25,Jits_Pract_5,0,5,80,127,1191671316
11,25,Jits_Pract_5,1,5,63,98,1191721220
11,25,Jits_Pract_5,2,5,56,103,1191761460
11,25,Jits_Pract_5,0,5,56,103,1192170840
11,25,Jits_Pract_5,1,5,63,98,1192200516
11,25,Jits_Pract_5,2,5,80,127,1192271240
11,25,Jits_Pract_5,0,5,56,103,1192670580
11,25,Jits_Pract_5,1,5,80,127,1192730972
11,25,Jits_Pract_5,2,5,63,98,1192760652
11,25,Jits_Pract_5,0,5,56,103,1193180444
11,25,Jits_Pract_5,1,5,63,98,1193190716
11,25,Jits_Pract_5,2,5,80,127,1193230724
11,25,Jits_Pract_5,0,5,63,98,1193670964
11,25,Jits_Pract_5,1,5,80,127,1193750840
11,25,Jits_Pract_5,2,5,56,103,1193761332
11,25,Jits_Pract_5,0,5,63,98,1194220820
11,25,Jits_Pract_5,1,5,56,103,1194260908
11,25,Jits_Pract_5,2,5,80,127,1194264268
11,25,Jits_Pract_5,0,5,56,103,1194680608
11,25,Jits_Pract_5,1,5,63,98,1194690804
11,25,Jits_Pract_5,2,5,80,127,1194730820
11,25,Jits_Pract_5,0,5,56,103,1195171204
11,25,Jits_Pract_5,1,5,63,98,1195174272
11,25,Jits_Pract_5,2,5,80,127,1195190692
11,25,Jits_Pract_5,0,9999,9999,9999,9999,1188468796
11,25,Jits_Pract_5,1,9999,9999,9999,9999,1188968568
11,25,Jits_Pract_5,2,9999,9999,9999,9999,1189468240
11,25,Jits_Pract_5,3,9999,9999,9999,9999,1189968956
11,25,Jits_Pract_5,4,9999,9999,9999,9999,1190468688
11,25,Jits_Pract_5,5,9999,9999,9999,9999,1190968436
11,25,Jits_Pract_5,6,9999,9999,9999,9999,1191468088
11,25,Jits_Pract_5,7,9999,9999,9999,9999,1191968880
11,25,Jits_Pract_5,8,9999,9999,9999,9999,1192468552
11,25,Jits_Pract_5,9,9999,9999,9999,9999,1192968296
11,25,Jits_Pract_5,10,9999,9999,9999,9999,1193469008
11,25,Jits_Pract_5,11,9999,9999,9999,9999,1193968752
11,25,Jits_Pract_5,12,9999,9999,9999,9999,1194468404
11,25,Jits_Pract_5,13,9999,9999,9999,9999,1194968128
11,25,Jits_Pract_5,14,9999,9999,9999,9999,1195468904
12,25,Jits_Pract_5,0,5,56,103,1235174824
12,25,Jits_Pract_5,1,5,63,98,1235177920
12,25,Jits_Pract_5,2,5,80,127,1235180972
12,25,Jits_Pract_5,0,5,56,103,1235674624
12,25,Jits_Pract_5,1,5,63,98,1235677652
12,25,Jits_Pract_5,2,5,80,127,1235680696
12,25,Jits_Pract_5,0,5,56,103,1236175340
12,25,Jits_Pract_5,1,5,80,127,1236184636
12,25,Jits_Pract_5,2,5,63,98,1236204948
12,25,Jits_Pract_5,0,5,63,98,1236624740
12,25,Jits_Pract_5,1,5,80,127,1236654416
12,25,Jits_Pract_5,2,5,56,103,1236664612
12,25,Jits_Pract_5,0,5,80,127,1237184924
12,25,Jits_Pract_5,1,5,56,103,1237195492
12,25,Jits_Pract_5,2,5,63,98,1237224944
12,25,Jits_Pract_5,3,1,48,48,1237253620
12,25,Jits_Pract_5,0,5,63,98,1237675344
12,25,Jits_Pract_5,1,5,56,103,1237705392
12,25,Jits_Pract_5,2,5,80,127,1237715364
12,25,Jits_Pract_5,3,1,48,41,1237787032
12,25,Jits_Pract_5,0,5,56,103,1238124964
12,25,Jits_Pract_5,1,5,63,98,1238175020
12,25,Jits_Pract_5,2,5,80,127,1238194504
12,25,Jits_Pract_5,3,1,48,36,1238326172
12,25,Jits_Pract_5,0,5,80,127,1238624572
12,25,Jits_Pract_5,1,5,63,98,1238674796
12,25,Jits_Pract_5,2,5,56,103,1238714660
12,25,Jits_Pract_5,3,1,48,34,1238835844
12,25,Jits_Pract_5,0,5,56,103,1239125528
12,25,Jits_Pract_5,1,5,63,98,1239154932
12,25,Jits_Pract_5,2,5,80,127,1239224688
12,25,Jits_Pract_5,3,1,48,37,1239361672
12,25,Jits_Pract_5,0,5,56,103,1239625384
12,25,Jits_Pract_5,1,5,80,127,1239684532
12,25,Jits_Pract_5,2,5,63,98,1239715328
12,25,Jits_Pract_5,3,1,48,29,1239920060
12,25,Jits_Pract_5,0,5,56,103,1240134912
12,25,Jits_Pract_5,1,5,63,98,1240145552
12,25,Jits_Pract_5,2,5,80,127,1240185292
12,25,Jits_Pract_5,0,1,48,34,1240504628
12,25,Jits_Pract_5,1,5,63,98,1240624660
12,25,Jits_Pract_5,2,5,80,127,1240705528
12,25,Jits_Pract_5,3,5,56,103,1240714600
12,25,Jits_Pract_5,0,1,48,35,1241143976
12,25,Jits_Pract_5,1,5,63,98,1241175540
12,25,Jits_Pract_5,2,5,56,103,1241215352
12,25,Jits_Pract_5,3,5,80,127,1241218644
12,25,Jits_Pract_5,0,5,56,103,1241635372
12,25,Jits_Pract_5,1,5,63,98,1241645420
12,25,Jits_Pract_5,2,5,80,127,1241685356
12,25,Jits_Pract_5,3,1,48,35,1241719064
12,25,Jits_Pract_5,0,5,56,103,1242124660
12,25,Jits_Pract_5,1,5,63,98,1242127580
12,25,Jits_Pract_5,2,5,80,127,1242145564
12,25,Jits_Pract_5,3,1,48,44,1242263036
12,25,Jits_Pract_5,0,9999,9999,9999,9999,1235422260
12,25,Jits_Pract_5,1,9999,9999,9999,9999,1235923036
12,25,Jits_Pract_5,2,9999,9999,9999,9999,1236422708
12,25,Jits_Pract_5,3,9999,9999,9999,9999,1236922448
12,25,Jits_Pract_5,4,9999,9999,9999,9999,1237422160
12,25,Jits_Pract_5,5,9999,9999,9999,9999,1237922916
12,25,Jits_Pract_5,6,9999,9999,9999,9999,1238422580
12,25,Jits_Pract_5,7,9999,9999,9999,9999,1238922300
12,25,Jits_Pract_5,8,9999,9999,9999,9999,1239423036
12,25,Jits_Pract_5,9,9999,9999,9999,9999,1239922744
12,25,Jits_Pract_5,10,9999,9999,9999,9999,1240422508
12,25,Jits_Pract_5,11,9999,9999,9999,9999,1240922224
12,25,Jits_Pract_5,12,9999,9999,9999,9999,1241422956
12,25,Jits_Pract_5,13,9999,9999,9999,9999,1241922648
12,25,Jits_Pract_5,14,9999,9999,9999,9999,1242422336
13,24,Jits_Pract_8,0,5,56,103,1250103588
13,24,Jits_Pract_8,1,5,63,98,1250106992
13,24,Jits_Pract_8,2,5,80,127,1250109964
13,24,Jits_Pract_8,0,5,56,103,1250904356
13,24,Jits_Pract_8,1,5,63,98,1250907528
13,24,Jits_Pract_8,2,5,80,127,1250910652
13,24,Jits_Pract_8,0,5,80,127,1251643628
13,24,Jits_Pract_8,1,5,63,98,1251734084
13,24,Jits_Pract_8,2,5,56,103,1251744280
13,24,Jits_Pract_8,3,1,48,35,1251820136
13,24,Jits_Pract_8,0,5,56,103,1252464176
13,24,Jits_Pract_8,1,5,63,98,1252474152
13,24,Jits_Pract_8,2,5,80,127,1252564204
13,24,Jits_Pract_8,0,5,63,98,1253234092
13,24,Jits_Pract_8,1,5,80,127,1253263696
13,24,Jits_Pract_8,2,5,56,103,1253293368
13,24,Jits_Pract_8,0,5,56,103,1254033732
13,24,Jits_Pract_8,1,5,80,127,1254134280
13,24,Jits_Pract_8,2,5,63,98,1254184404
13,24,Jits_Pract_8,0,5,56,103,1254833612
13,24,Jits_Pract_8,1,5,80,127,1254883592
13,24,Jits_Pract_8,2,5,63,98,1254923532
13,24,Jits_Pract_8,3,1,48,32,1254941396
13,24,Jits_Pract_8,0,5,80,127,1255664096
13,24,Jits_Pract_8,1,1,48,34,1255693172
13,24,Jits_Pract_8,2,5,63,98,1255694664
13,24,Jits_Pract_8,3,5,56,103,1255764196
13,24,Jits_Pract_8,0,1,48,31,1256489060
13,24,Jits_Pract_8,1,5,63,98,1256493360
13,24,Jits_Pract_8,2,5,56,103,1256524156
13,24,Jits_Pract_8,3,5,80,127,1256583508
13,24,Jits_Pract_8,0,5,56,103,1257233708
13,24,Jits_Pract_8,1,5,80,127,1257236852
13,24,Jits_Pract_8,2,1,48,35,1257284328
13,24,Jits_Pract_8,3,5,63,98,1257353524
13,24,Jits_Pract_8,0,1,48,34,1258069840
13,24,Jits_Pract_8,1,5,56,103,1258114480
13,24,Jits_Pract_8,2,5,80,127,1258154268
13,24,Jits_Pract_8,3,5,63,98,1258164300
13,24,Jits_Pract_8,0,5,56,103,1258874244
13,24,Jits_Pract_8,1,5,80,127,1258893656
13,24,Jits_Pract_8,2,1,48,29,1258897072
13,24,Jits_Pract_8,3,5,63,98,1258973592
13,24,Jits_Pract_8,0,5,80,127,1259663824
13,24,Jits_Pract_8,1,1,48,32,1259673696
13,24,Jits_Pract_8,2,5,56,103,1259764068
13,24,Jits_Pract_8,3,5,63,98,1259774248
13,24,Jits_Pract_8,0,5,63,98,1260433856
13,24,Jits_Pract_8,1,5,80,127,1260494172
13,24,Jits_Pract_8,2,5,56,103,1260504368
13,24,Jits_Pract_8,3,1,48,31,1260518648
13,24,Jits_Pract_8,0,5,56,103,1261233376
13,24,Jits_Pract_8,1,1,48,26,1261250576
13,24,Jits_Pract_8,2,5,63,98,1261304172
13,24,Jits_Pract_8,3,5,80,127,1261307388
13,24,Jits_Pract_8,0,9999,9999,9999,9999,1250501700
13,24,Jits_Pract_8,1,9999,9999,9999,9999,1251301488
13,24,Jits_Pract_8,2,9999,9999,9999,9999,1252101204
13,24,Jits_Pract_8,3,9999,9999,9999,9999,1252901972
13,24,Jits_Pract_8,4,9999,9999,9999,9999,1253701700
13,24,Jits_Pract_8,5,9999,9999,9999,9999,1254501496
13,24,Jits_Pract_8,6,9999,9999,9999,9999,1255301224
13,24,Jits_Pract_8,7,9999,9999,9999,9999,1256101944
13,24,Jits_Pract_8,8,9999,9999,9999,9999,1256901720
13,24,Jits_Pract_8,9,9999,9999,9999,9999,1257701460
13,24,Jits_Pract_8,10,9999,9999,9999,9999,1258501240
13,24,Jits_Pract_8,11,9999,9999,9999,9999,1259301976
13,24,Jits_Pract_8,12,9999,9999,9999,9999,1260101748
13,24,Jits_Pract_8,13,9999,9999,9999,9999,1260901440
13,24,Jits_Pract_8,14,9999,9999,9999,9999,1261701200
14,16,Jits_ISO_5,0,5,56,103,1288124792
14,16,Jits_ISO_5,1,5,63,98,1288127892
14,16,Jits_ISO_5,2,5,80,127,1288131012
14,16,Jits_ISO_5,0,5,56,103,1288624512
14,16,Jits_ISO_5,1,5,63,98,1288627536
14,16,Jits_ISO_5,2,5,80,127,1288630660
14,16,Jits_ISO_5,0,5,56,103,1289125296
14,16,Jits_ISO_5,1,5,80,127,1289134516
14,16,Jits_ISO_5,2,5,63,98,1289154900
14,16,Jits_ISO_5,0,5,63,98,1289574664
14,16,Jits_ISO_5,1,5,80,127,1289604364
14,16,Jits_ISO_5,2,5,56,103,1289614636
14,16,Jits_ISO_5,0,5,80,127,1290134796
14,16,Jits_ISO_5,1,5,56,103,1290144992
14,16,Jits_ISO_5,2,5,63,98,1290174812
14,16,Jits_ISO_5,3,1,48,37,1290183628
14,16,Jits_ISO_5,0,5,63,98,1290625552
14,16,Jits_ISO_5,1,5,56,103,1290655304
14,16,Jits_ISO_5,2,5,80,127,1290665720
14,16,Jits_ISO_5,3,1,48,34,1290703460
14,16,Jits_ISO_5,0,5,56,103,1291074920
14,16,Jits_ISO_5,1,5,63,98,1291125368
14,16,Jits_ISO_5,2,5,80,127,1291144556
14,16,Jits_ISO_5,3,1,48,30,1291163716
14,16,Jits_ISO_5,0,5,80,127,1291574664
14,16,Jits_ISO_5,1,5,63,98,1291624940
14,16,Jits_ISO_5,2,1,48,31,1291648536
14,16,Jits_ISO_5,3,5,56,103,1291664744
14,16,Jits_ISO_5,0,5,56,103,1292075308
14,16,Jits_ISO_5,1,5,63,98,1292105356
14,16,Jits_ISO_5,2,1,48,29,1292162136
14,16,Jits_ISO_5,3,5,80,127,1292174604
14,16,Jits_ISO_5,0,5,56,103,1292575208
14,16,Jits_ISO_5,1,1,48,29,1292624704
14,16,Jits_ISO_5,2,5,80,127,1292634392
14,16,Jits_ISO_5,3,5,63,98,1292665364
14,16,Jits_ISO_5,0,5,56,103,1293084920
14,16,Jits_ISO_5,1,5,63,98,1293095412
14,16,Jits_ISO_5,2,1,48,30,1293103192
14,16,Jits_ISO_5,3,5,80,127,1293135344
14,16,Jits_ISO_5,0,5,63,98,1293574476
14,16,Jits_ISO_5,1,1,48,35,1293616928
14,16,Jits_ISO_5,2,5,80,127,1293655312
14,16,Jits_ISO_5,3,5,56,103,1293664612
14,16,Jits_ISO_5,0,1,48,37,1294124100
14,16,Jits_ISO_5,1,5,63,98,1294125596
14,16,Jits_ISO_5,2,5,56,103,1294165312
14,16,Jits_ISO_5,3,5,80,127,1294168380
14,16,Jits_ISO_5,0,5,56,103,1294585176
14,16,Jits_ISO_5,1,5,63,98,1294594400
14,16,Jits_ISO_5,2,1,48,35,1294625760
14,16,Jits_ISO_5,3,5,80,127,1294635300
14,16,Jits_ISO_5,0,5,56,103,1295074804
14,16,Jits_ISO_5,1,5,63,98,1295077724
14,16,Jits_ISO_5,2,1,48,38,1295083700
14,16,Jits_ISO_5,3,5,80,127,1295095108
14,16,Jits_ISO_5,0,5,80,127,1295584728
14,16,Jits_ISO_5,1,5,56,103,1295594848
14,16,Jits_ISO_5,2,1,48,31,1295598268
14,16,Jits_ISO_5,3,5,63,98,1295664444
14,16,Jits_ISO_5,0,1,48,29,1296074280
14,16,Jits_ISO_5,1,5,63,98,1296075620
14,16,Jits_ISO_5,2,5,56,103,1296094660
14,16,Jits_ISO_5,3,5,80,127,1296174436
14,16,Jits_ISO_5,0,5,56,103,1296585100
14,16,Jits_ISO_5,1,1,48,28,1296586068
14,16,Jits_ISO_5,2,5,80,127,1296624884
14,16,Jits_ISO_5,3,5,63,98,1296635228
14,16,Jits_ISO_5,0,1,48,29,1297074880
14,16,Jits_ISO_5,1,5,80,127,1297076220
14,16,Jits_ISO_5,2,5,63,98,1297105448
14,16,Jits_ISO_5,3,5,56,103,1297145384
14,16,Jits_ISO_5,0,1,48,34,1297563348
14,16,Jits_ISO_5,1,5,56,103,1297594688
14,16,Jits_ISO_5,2,5,63,98,1297624360
14,16,Jits_ISO_5,3,5,80,127,1297674548
14,16,Jits_ISO_5,0,1,48,30,1298063236
14,16,Jits_ISO_5,1,5,80,127,1298094424
14,16,Jits_ISO_5,2,5,56,103,1298135484
14,16,Jits_ISO_5,3,5,63,98,1298144556
14,16,Jits_ISO_5,0,5,80,127,1298574684
14,16,Jits_ISO_5,1,1,48,34,1298606872
14,16,Jits_ISO_5,2,5,63,98,1298614616
14,16,Jits_ISO_5,3,5,56,103,1298675148
14,16,Jits_ISO_5,0,5,56,103,1299074432
14,16,Jits_ISO_5,1,5,80,127,1299084628
14,16,Jits_ISO_5,2,1,48,29,1299111188
14,16,Jits_ISO_5,3,5,63,98,1299164484
14,16,Jits_ISO_5,0,5,80,127,1299575448
14,16,Jits_ISO_5,1,1,48,32,1299591376
14,16,Jits_ISO_5,2,5,63,98,1299634560
14,16,Jits_ISO_5,3,5,56,103,1299665208
14,16,Jits_ISO_5,0,5,56,103,1300074824
14,16,Jits_ISO_5,1,1,48,34,1300100192
14,16,Jits_ISO_5,2,5,80,127,1300135428
14,16,Jits_ISO_5,3,5,63,98,1300175292
14,16,Jits_ISO_5,0,1,48,36,1300610644
14,16,Jits_ISO_5,1,5,56,103,1300624836
14,16,Jits_ISO_5,2,5,63,98,1300635332
14,16,Jits_ISO_5,3,5,80,127,1300638616
14,16,Jits_ISO_5,0,5,80,127,1301075392
14,16,Jits_ISO_5,1,1,48,35,1301119440
14,16,Jits_ISO_5,2,5,63,98,1301165392
14,16,Jits_ISO_5,3,5,56,103,1301174616
14,16,Jits_ISO_5,0,5,56,103,1301575272
14,16,Jits_ISO_5,1,5,63,98,1301578000
14,16,Jits_ISO_5,2,5,80,127,1301581344
14,16,Jits_ISO_5,3,1,48,34,1301635812
14,16,Jits_ISO_5,0,5,80,127,1302095316
14,16,Jits_ISO_5,1,1,48,37,1302110492
14,16,Jits_ISO_5,2,5,63,98,1302145384
14,16,Jits_ISO_5,3,5,56,103,1302175208
14,16,Jits_ISO_5,0,5,56,103,1302574384
14,16,Jits_ISO_5,1,5,80,127,1302584652
14,16,Jits_ISO_5,2,1,48,32,1302609420
14,16,Jits_ISO_5,3,5,63,98,1302655468
14,16,Jits_ISO_5,0,5,56,103,1303085512
14,16,Jits_ISO_5,1,5,63,98,1303104924
14,16,Jits_ISO_5,2,1,48,39,1303110432
14,16,Jits_ISO_5,3,5,80,127,1303165252
14,16,Jits_ISO_5,0,5,80,127,1303574772
14,16,Jits_ISO_5,1,1,48,39,1303584264
14,16,Jits_ISO_5,2,5,63,98,1303644520
14,16,Jits_ISO_5,3,5,56,103,1303665152
14,16,Jits_ISO_5,0,1,48,36,1304093992
14,16,Jits_ISO_5,1,5,80,127,1304095412
14,16,Jits_ISO_5,2,5,56,103,1304105312
14,16,Jits_ISO_5,3,5,63,98,1304114608
14,16,Jits_ISO_5,0,1,48,35,1304575272
14,16,Jits_ISO_5,1,5,80,127,1304584436
14,16,Jits_ISO_5,2,5,56,103,1304605192
14,16,Jits_ISO_5,3,5,63,98,1304674632
14,16,Jits_ISO_5,0,1,48,34,1305089456
14,16,Jits_ISO_5,1,5,56,103,1305094508
14,16,Jits_ISO_5,2,5,80,127,1305125380
14,16,Jits_ISO_5,3,5,63,98,1305144568
14,16,Jits_ISO_5,0,5,63,98,1305585176
14,16,Jits_ISO_5,1,1,48,38,1305597292
14,16,Jits_ISO_5,2,5,56,103,1305645412
14,16,Jits_ISO_5,3,5,80,127,1305675160
14,16,Jits_ISO_5,0,5,63,98,1306074428
14,16,Jits_ISO_5,1,5,80,127,1306077644
14,16,Jits_ISO_5,2,1,48,31,1306095152
14,16,Jits_ISO_5,3,5,56,103,1306164472
14,16,Jits_ISO_5,0,1,48,37,1306581596
14,16,Jits_ISO_5,1,5,56,103,1306594596
14,16,Jits_ISO_5,2,5,63,98,1306625392
14,16,Jits_ISO_5,3,5,80,127,1306665252
14,16,Jits_ISO_5,0,1,48,39,1307077520
14,16,Jits_ISO_5,1,5,63,98,1307095304
14,16,Jits_ISO_5,2,5,56,103,1307135316
14,16,Jits_ISO_5,3,5,80,127,1307154876
14,16,Jits_ISO_5,0,1,48,31,1307584752
14,16,Jits_ISO_5,1,5,63,98,1307605448
14,16,Jits_ISO_5,2,5,56,103,1307645388
14,16,Jits_ISO_5,3,5,80,127,1307654540
14,16,Jits_ISO_5,0,5,80,127,1308084520
14,16,Jits_ISO_5,1,1,48,42,1308105544
14,16,Jits_ISO_5,2,5,63,98,1308155164
14,16,Jits_ISO_5,3,5,56,103,1308174576
14,16,Jits_ISO_5,0,5,56,103,1308575352
14,16,Jits_ISO_5,1,5,80,127,1308594688
14,16,Jits_ISO_5,2,1,48,40,1308597660
14,16,Jits_ISO_5,3,5,63,98,1308634692
14,16,Jits_ISO_5,0,5,63,98,1309085212
14,16,Jits_ISO_5,1,1,48,39,1309087152
14,16,Jits_ISO_5,2,5,80,127,1309104468
14,16,Jits_ISO_5,3,5,56,103,1309144332
14,16,Jits_ISO_5,0,1,48,41,1309573456
14,16,Jits_ISO_5,1,5,63,98,1309584864
14,16,Jits_ISO_5,2,5,56,103,1309605172
14,16,Jits_ISO_5,3,5,80,127,1309614396
14,16,Jits_ISO_5,0,5,80,127,1310084380
14,16,Jits_ISO_5,1,1,48,39,1310090040
14,16,Jits_ISO_5,2,5,56,103,1310105052
14,16,Jits_ISO_5,3,5,63,98,1310134576
14,16,Jits_ISO_5,0,1,48,42,1310564288
14,16,Jits_ISO_5,1,5,56,103,1310654684
14,16,Jits_ISO_5,2,5,80,127,1310658056
14,16,Jits_ISO_5,3,5,63,98,1310675356
14,16,Jits_ISO_5,0,5,63,98,1311074616
14,16,Jits_ISO_5,1,1,48,40,1311094172
14,16,Jits_ISO_5,2,5,56,103,1311105428
14,16,Jits_ISO_5,3,5,80,127,1311164992
14,16,Jits_ISO_5,0,1,48,43,1311597112
14,16,Jits_ISO_5,1,5,63,98,1311655348
14,16,Jits_ISO_5,2,5,56,103,1311664424
14,16,Jits_ISO_5,3,5,80,127,1311674616
14,16,Jits_ISO_5,0,1,48,40,1312090676
14,16,Jits_ISO_5,1,5,56,103,1312104792
14,16,Jits_ISO_5,2,5,80,127,1312134492
14,16,Jits_ISO_5,3,5,63,98,1312144688
14,16,Jits_ISO_5,0,1,48,41,1312597380
14,16,Jits_ISO_5,1,5,63,98,1312644484
14,16,Jits_ISO_5,2,5,56,103,1312654676
14,16,Jits_ISO_5,3,5,80,127,1312675136
14,16,Jits_ISO_5,0,5,56,103,1313074596
14,16,Jits_ISO_5,1,1,48,31,1313099440
14,16,Jits_ISO_5,2,5,63,98,1313135152
14,16,Jits_ISO_5,3,5,80,127,1313138296
14,16,Jits_ISO_5,0,1,48,29,1313557368
14,16,Jits_ISO_5,1,5,80,127,1313594708
14,16,Jits_ISO_5,2,5,56,103,1313605124
14,16,Jits_ISO_5,3,5,63,98,1313674516
14,16,Jits_ISO_5,0,1,48,29,1314049532
14,16,Jits_ISO_5,1,5,80,127,1314085224
14,16,Jits_ISO_5,2,5,56,103,1314155060
14,16,Jits_ISO_5,3,5,63,98,1314165108
14,16,Jits_ISO_5,0,1,48,40,1314591812
14,16,Jits_ISO_5,1,5,63,98,1314624960
14,16,Jits_ISO_5,2,5,56,103,1314635156
14,16,Jits_ISO_5,3,5,80,127,1314654492
14,16,Jits_ISO_5,0,5,80,127,1315074432
14,16,Jits_ISO_5,1,1,48,36,1315114192
14,16,Jits_ISO_5,2,5,63,98,1315135036
14,16,Jits_ISO_5,3,5,56,103,1315174900
14,16,Jits_ISO_5,0,5,56,103,1315615232
14,16,Jits_ISO_5,1,1,48,43,1315625800
14,16,Jits_ISO_5,2,5,63,98,1315626988
14,16,Jits_ISO_5,3,5,80,127,1315665208
14,16,Jits_ISO_5,0,5,56,103,1316074972
14,16,Jits_ISO_5,1,5,80,127,1316104500
14,16,Jits_ISO_5,2,1,48,43,1316134144
14,16,Jits_ISO_5,3,5,63,98,1316154616
14,16,Jits_ISO_5,0,1,48,45,1316595144
14,16,Jits_ISO_5,1,5,56,103,1316614424
14,16,Jits_ISO_5,2,5,63,98,1316654432
14,16,Jits_ISO_5,3,5,80,127,1316657724
14,16,Jits_ISO_5,0,1,48,39,1317099132
14,16,Jits_ISO_5,1,5,56,103,1317115196
14,16,Jits_ISO_5,2,5,63,98,1317124348
14,16,Jits_ISO_5,3,5,80,127,1317145100
14,16,Jits_ISO_5,0,5,56,103,1317575004
14,16,Jits_ISO_5,1,5,80,127,1317578072
14,16,Jits_ISO_5,2,1,48,40,1317590184
14,16,Jits_ISO_5,3,5,63,98,1317614932
14,16,Jits_ISO_5,0,1,48,40,1318064068
14,16,Jits_ISO_5,1,5,63,98,1318114888
14,16,Jits_ISO_5,2,5,56,103,1318145384
14,16,Jits_ISO_5,3,5,80,127,1318165004
14,16,Jits_ISO_5,0,5,80,127,1318584588
14,16,Jits_ISO_5,1,5,56,103,1318595156
14,16,Jits_ISO_5,2,5,63,98,1318605128
14,16,Jits_ISO_5,3,1,48,35,1318608024
14,16,Jits_ISO_5,0,1,48,44,1319082040
14,16,Jits_ISO_5,1,5,56,103,1319085296
14,16,Jits_ISO_5,2,5,80,127,1319125232
14,16,Jits_ISO_5,3,5,63,98,1319155052
14,16,Jits_ISO_5,0,1,48,43,1319590092
14,16,Jits_ISO_5,1,5,63,98,1319595364
14,16,Jits_ISO_5,2,5,80,127,1319604736
14,16,Jits_ISO_5,3,5,56,103,1319615008
14,16,Jits_ISO_5,0,5,56,103,1320074576
14,16,Jits_ISO_5,1,1,48,43,1320080308
14,16,Jits_ISO_5,2,5,63,98,1320145220
14,16,Jits_ISO_5,3,5,80,127,1320154368
14,16,Jits_ISO_5,0,5,80,127,1320575368
14,16,Jits_ISO_5,1,1,48,43,1320583916
14,16,Jits_ISO_5,2,5,56,103,1320585408
14,16,Jits_ISO_5,3,5,63,98,1320634932
14,16,Jits_ISO_5,0,1,48,50,1321079124
14,16,Jits_ISO_5,1,5,80,127,1321085444
14,16,Jits_ISO_5,2,5,56,103,1321144712
14,16,Jits_ISO_5,3,5,63,98,1321175344
14,16,Jits_ISO_5,0,1,48,43,1321556432
14,16,Jits_ISO_5,1,5,56,103,1321584952
14,16,Jits_ISO_5,2,5,80,127,1321587944
14,16,Jits_ISO_5,3,5,63,98,1321624816
14,16,Jits_ISO_5,0,1,48,46,1322072420
14,16,Jits_ISO_5,1,5,56,103,1322114492
14,16,Jits_ISO_5,2,5,63,98,1322144988
14,16,Jits_ISO_5,3,5,80,127,1322155408
14,16,Jits_ISO_5,0,1,48,48,1322541716
14,16,Jits_ISO_5,1,5,63,98,1322625384
14,16,Jits_ISO_5,2,5,80,127,1322634684
14,16,Jits_ISO_5,3,5,56,103,1322644788
14,16,Jits_ISO_5,0,5,80,127,1323074980
14,16,Jits_ISO_5,1,1,48,48,1323086268
14,16,Jits_ISO_5,2,5,56,103,1323125048
14,16,Jits_ISO_5,3,5,63,98,1323128188
14,16,Jits_ISO_5,0,1,48,48,1323567936
14,16,Jits_ISO_5,1,5,56,103,1323605276
14,16,Jits_ISO_5,2,5,80,127,1323625156
14,16,Jits_ISO_5,3,5,63,98,1323635056
14,16,Jits_ISO_5,0,1,48,55,1324050952
14,16,Jits_ISO_5,1,5,63,98,1324084476
14,16,Jits_ISO_5,2,5,56,103,1324115272
14,16,Jits_ISO_5,3,5,80,127,1324134904
14,16,Jits_ISO_5,0,1,48,55,1324542784
14,16,Jits_ISO_5,1,5,56,103,1324594516
14,16,Jits_ISO_5,2,5,80,127,1324605012
14,16,Jits_ISO_5,3,5,63,98,1324674400
14,16,Jits_ISO_5,0,1,48,49,1325069500
14,16,Jits_ISO_5,1,5,63,98,1325085036
14,16,Jits_ISO_5,2,5,80,127,1325124972
14,16,Jits_ISO_5,3,5,56,103,1325165068
14,16,Jits_ISO_5,0,1,48,56,1325557172
14,16,Jits_ISO_5,1,5,56,103,1325595180
14,16,Jits_ISO_5,2,5,63,98,1325605300
14,16,Jits_ISO_5,3,5,80,127,1325624784
14,16,Jits_ISO_5,0,1,48,53,1326058848
14,16,Jits_ISO_5,1,5,63,98,1326134624
14,16,Jits_ISO_5,2,5,80,127,1326155068
14,16,Jits_ISO_5,3,5,56,103,1326174624
14,16,Jits_ISO_5,0,1,48,60,1326574880
14,16,Jits_ISO_5,1,5,56,103,1326576292
14,16,Jits_ISO_5,2,5,80,127,1326654816
14,16,Jits_ISO_5,3,5,63,98,1326664936
14,16,Jits_ISO_5,0,1,48,57,1327062232
14,16,Jits_ISO_5,1,5,80,127,1327114764
14,16,Jits_ISO_5,2,5,63,98,1327124884
14,16,Jits_ISO_5,3,5,56,103,1327154636
14,16,Jits_ISO_5,0,1,48,55,1327571168
14,16,Jits_ISO_5,1,5,63,98,1327575540
14,16,Jits_ISO_5,2,5,80,127,1327615404
14,16,Jits_ISO_5,3,5,56,103,1327675028
14,16,Jits_ISO_5,0,5,63,98,1328085248
14,16,Jits_ISO_5,1,1,48,45,1328095340
14,16,Jits_ISO_5,2,5,56,103,1328134468
14,16,Jits_ISO_5,3,5,80,127,1328165188
14,16,Jits_ISO_5,0,1,48,51,1328570708
14,16,Jits_ISO_5,1,5,80,127,1328595312
14,16,Jits_ISO_5,2,5,63,98,1328604388
14,16,Jits_ISO_5,3,5,56,103,1328675244
14,16,Jits_ISO_5,0,1,48,53,1329069688
14,16,Jits_ISO_5,1,5,80,127,1329165004
14,16,Jits_ISO_5,2,5,56,103,1329174972
14,16,Jits_ISO_5,3,5,63,98,1329178040
14,16,Jits_ISO_5,0,1,48,49,1329583148
14,16,Jits_ISO_5,1,5,56,103,1329605116
14,16,Jits_ISO_5,2,5,80,127,1329624376
14,16,Jits_ISO_5,3,5,63,98,1329634796
14,16,Jits_ISO_5,0,1,48,52,1330090656
14,16,Jits_ISO_5,1,5,63,98,1330115036
14,16,Jits_ISO_5,2,5,56,103,1330154900
14,16,Jits_ISO_5,3,5,80,127,1330175432
14,16,Jits_ISO_5,0,1,48,44,1330591892
14,16,Jits_ISO_5,1,5,63,98,1330614924
14,16,Jits_ISO_5,2,5,56,103,1330674932
14,16,Jits_ISO_5,3,5,80,127,1330678080
14,16,Jits_ISO_5,0,5,56,103,1331074504
14,16,Jits_ISO_5,1,5,80,127,1331094888
14,16,Jits_ISO_5,2,1,48,38,1331112232
14,16,Jits_ISO_5,3,5,63,98,1331134816
14,16,Jits_ISO_5,0,1,48,48,1331600056
14,16,Jits_ISO_5,1,5,56,103,1331604884
14,16,Jits_ISO_5,2,5,63,98,1331625268
14,16,Jits_ISO_5,3,5,80,127,1331634716
14,16,Jits_ISO_5,0,5,80,127,1332074880
14,16,Jits_ISO_5,1,1,48,49,1332105148
14,16,Jits_ISO_5,2,5,56,103,1332106188
14,16,Jits_ISO_5,3,5,63,98,1332144632
14,16,Jits_ISO_5,0,5,80,127,1332584960
14,16,Jits_ISO_5,1,5,56,103,1332605272
14,16,Jits_ISO_5,2,1,48,44,1332607360
14,16,Jits_ISO_5,3,5,63,98,1332664828
14,16,Jits_ISO_5,0,5,56,103,1333094720
14,16,Jits_ISO_5,1,5,80,127,1333115180
14,16,Jits_ISO_5,2,1,48,40,1333119124
14,16,Jits_ISO_5,3,5,63,98,1333174812
14,16,Jits_ISO_5,0,5,80,127,1333574888
14,16,Jits_ISO_5,1,5,56,103,1333585232
14,16,Jits_ISO_5,2,1,48,40,1333599212
14,16,Jits_ISO_5,3,5,63,98,1333625112
14,16,Jits_ISO_5,0,5,63,98,1334074856
14,16,Jits_ISO_5,1,1,48,50,1334106300
14,16,Jits_ISO_5,2,5,56,103,1334114932
14,16,Jits_ISO_5,3,5,80,127,1334117924
14,16,Jits_ISO_5,0,1,48,52,1334587268
14,16,Jits_ISO_5,1,5,63,98,1334594940
14,16,Jits_ISO_5,2,5,80,127,1334634900
14,16,Jits_ISO_5,3,5,56,103,1334664648
14,16,Jits_ISO_5,0,1,48,51,1335071112
14,16,Jits_ISO_5,1,5,56,103,1335085528
14,16,Jits_ISO_5,2,5,63,98,1335094676
14,16,Jits_ISO_5,3,5,80,127,1335125324
14,16,Jits_ISO_5,0,5,80,127,1335574928
14,16,Jits_ISO_5,1,1,48,45,1335589876
14,16,Jits_ISO_5,2,5,63,98,1335644600
14,16,Jits_ISO_5,3,5,56,103,1335654872
14,16,Jits_ISO_5,0,5,63,98,1336074748
14,16,Jits_ISO_5,1,1,48,50,1336088956
14,16,Jits_ISO_5,2,5,56,103,1336145396
14,16,Jits_ISO_5,3,5,80,127,1336154616
14,16,Jits_ISO_5,0,5,63,98,1336575528
14,16,Jits_ISO_5,1,1,48,48,1336587792
14,16,Jits_ISO_5,2,5,56,103,1336594788
14,16,Jits_ISO_5,3,5,80,127,1336634796
14,16,Jits_ISO_5,0,1,48,50,1337064672
14,16,Jits_ISO_5,1,5,56,103,1337085220
14,16,Jits_ISO_5,2,5,63,98,1337094592
14,16,Jits_ISO_5,3,5,80,127,1337175488
14,16,Jits_ISO_5,0,1,48,56,1337547240
14,16,Jits_ISO_5,1,5,63,98,1337574836
14,16,Jits_ISO_5,2,5,56,103,1337604364
14,16,Jits_ISO_5,3,5,80,127,1337645404
14,16,Jits_ISO_5,0,1,48,56,1338054540
14,16,Jits_ISO_5,1,5,56,103,1338074420
14,16,Jits_ISO_5,2,5,63,98,1338114356
14,16,Jits_ISO_5,3,5,80,127,1338155476
14,16,Jits_ISO_5,0,5,80,127,1338575204
14,16,Jits_ISO_5,1,1,48,52,1338584772
14,16,Jits_ISO_5,2,5,56,103,1338655140
14,16,Jits_ISO_5,3,5,63,98,1338665264
14,16,Jits_ISO_5,0,1,48,54,1339075072
14,16,Jits_ISO_5,1,5,56,103,1339114800
14,16,Jits_ISO_5,2,5,63,98,1339117796
14,16,Jits_ISO_5,3,5,80,127,1339125072
14,16,Jits_ISO_5,0,1,48,51,1339593008
14,16,Jits_ISO_5,1,5,56,103,1339634980
14,16,Jits_ISO_5,2,5,63,98,1339654688
14,16,Jits_ISO_5,3,5,80,127,1339664736
14,16,Jits_ISO_5,0,5,63,98,1340094716
14,16,Jits_ISO_5,1,1,48,57,1340098660
14,16,Jits_ISO_5,2,5,80,127,1340105200
14,16,Jits_ISO_5,3,5,56,103,1340124688
14,16,Jits_ISO_5,0,5,63,98,1340594520
14,16,Jits_ISO_5,1,1,48,56,1340595488
14,16,Jits_ISO_5,2,5,56,103,1340674528
14,16,Jits_ISO_5,3,5,80,127,1340677672
14,16,Jits_ISO_5,0,5,63,98,1341095296
14,16,Jits_ISO_5,1,5,56,103,1341114708
14,16,Jits_ISO_5,2,1,48,54,1341120672
14,16,Jits_ISO_5,3,5,80,127,1341144524
14,16,Jits_ISO_5,0,5,56,103,1341594956
14,16,Jits_ISO_5,1,5,63,98,1341614664
14,16,Jits_ISO_5,2,5,80,127,1341624784
14,16,Jits_ISO_5,3,1,48,50,1341627304
14,16,Jits_ISO_5,0,1,48,58,1342107328
14,16,Jits_ISO_5,1,5,56,103,1342125412
14,16,Jits_ISO_5,2,5,63,98,1342155084
14,16,Jits_ISO_5,3,5,80,127,1342158596
14,16,Jits_ISO_5,0,5,56,103,1342574944
14,16,Jits_ISO_5,1,5,63,98,1342614884
14,16,Jits_ISO_5,2,1,48,57,1342622792
14,16,Jits_ISO_5,3,5,80,127,1342675488
14,16,Jits_ISO_5,0,5,56,103,1343095072
14,16,Jits_ISO_5,1,1,48,61,1343100360
14,16,Jits_ISO_5,2,5,63,98,1343105560
14,16,Jits_ISO_5,3,5,80,127,1343164676
14,16,Jits_ISO_5,0,5,56,103,1343594892
14,16,Jits_ISO_5,1,1,48,58,1343595860
14,16,Jits_ISO_5,2,5,80,127,1343615344
14,16,Jits_ISO_5,3,5,63,98,1343645020
14,16,Jits_ISO_5,0,1,48,61,1344079068
14,16,Jits_ISO_5,1,5,80,127,1344094532
14,16,Jits_ISO_5,2,5,56,103,1344104824
14,16,Jits_ISO_5,3,5,63,98,1344125208
14,16,Jits_ISO_5,0,1,48,62,1344575204
14,16,Jits_ISO_5,1,5,63,98,1344585040
14,16,Jits_ISO_5,2,5,80,127,1344664936
14,16,Jits_ISO_5,3,5,56,103,1344675636
14,16,Jits_ISO_5,0,1,48,62,1345082808
14,16,Jits_ISO_5,1,5,80,127,1345145260
14,16,Jits_ISO_5,2,5,56,103,1345164596
14,16,Jits_ISO_5,3,5,63,98,1345167668
14,16,Jits_ISO_5,0,1,48,57,1345588896
14,16,Jits_ISO_5,1,5,63,98,1345615144
14,16,Jits_ISO_5,2,5,80,127,1345618660
14,16,Jits_ISO_5,3,5,56,103,1345674512
14,16,Jits_ISO_5,0,5,56,103,1346094576
14,16,Jits_ISO_5,1,1,48,48,1346104768
14,16,Jits_ISO_5,2,5,80,127,1346106180
14,16,Jits_ISO_5,3,5,63,98,1346144772
14,16,Jits_ISO_5,0,5,56,103,1346574688
14,16,Jits_ISO_5,1,1,48,58,1346579532
14,16,Jits_ISO_5,2,5,63,98,1346635148
14,16,Jits_ISO_5,3,5,80,127,1346645416
14,16,Jits_ISO_5,0,1,48,59,1347080464
14,16,Jits_ISO_5,1,5,63,98,1347084764
14,16,Jits_ISO_5,2,5,80,127,1347124480
14,16,Jits_ISO_5,3,5,56,103,1347164716
14,16,Jits_ISO_5,0,5,56,103,1347585404
14,16,Jits_ISO_5,1,1,48,56,1347603664
14,16,Jits_ISO_5,2,5,63,98,1347665264
14,16,Jits_ISO_5,3,5,80,127,1347668704
14,16,Jits_ISO_5,0,9999,9999,9999,9999,1288372296
14,16,Jits_ISO_5,1,9999,9999,9999,9999,1288873060
14,16,Jits_ISO_5,2,9999,9999,9999,9999,1289372728
14,16,Jits_ISO_5,3,9999,9999,9999,9999,1289872460
14,16,Jits_ISO_5,4,9999,9999,9999,9999,1290372168
14,16,Jits_ISO_5,5,9999,9999,9999,9999,1290872892
14,16,Jits_ISO_5,6,9999,9999,9999,9999,1291372624
14,16,Jits_ISO_5,7,9999,9999,9999,9999,1291872344
14,16,Jits_ISO_5,8,9999,9999,9999,9999,1292373064
14,16,Jits_ISO_5,9,9999,9999,9999,9999,1292872812
14,16,Jits_ISO_5,10,9999,9999,9999,9999,1293372484
14,16,Jits_ISO_5,11,9999,9999,9999,9999,1293872232
14,16,Jits_ISO_5,12,9999,9999,9999,9999,1294372936
14,16,Jits_ISO_5,13,9999,9999,9999,9999,1294872664
14,16,Jits_ISO_5,14,9999,9999,9999,9999,1295372396
14,16,Jits_ISO_5,15,9999,9999,9999,9999,1295872068
14,16,Jits_ISO_5,16,9999,9999,9999,9999,1296372860
14,16,Jits_ISO_5,17,9999,9999,9999,9999,1296872516
14,16,Jits_ISO_5,18,9999,9999,9999,9999,1297372264
14,16,Jits_ISO_5,19,9999,9999,9999,9999,1297872968
14,16,Jits_ISO_5,20,9999,9999,9999,9999,1298372704
14,16,Jits_ISO_5,21,9999,9999,9999,9999,1298872436
14,16,Jits_ISO_5,22,9999,9999,9999,9999,1299372108
14,16,Jits_ISO_5,23,9999,9999,9999,9999,1299872828
14,16,Jits_ISO_5,24,9999,9999,9999,9999,1300372580
14,16,Jits_ISO_5,25,9999,9999,9999,9999,1300872244
14,16,Jits_ISO_5,26,9999,9999,9999,9999,1301373024
14,16,Jits_ISO_5,27,9999,9999,9999,9999,1301872744
14,16,Jits_ISO_5,28,9999,9999,9999,9999,1302372468
14,16,Jits_ISO_5,29,9999,9999,9999,9999,1302872132
14,16,Jits_ISO_5,30,9999,9999,9999,9999,1303372852
14,16,Jits_ISO_5,31,9999,9999,9999,9999,1303872600
14,16,Jits_ISO_5,32,9999,9999,9999,9999,1304372348
14,16,Jits_ISO_5,33,9999,9999,9999,9999,1304873052
14,16,Jits_ISO_5,34,9999,9999,9999,9999,1305372788
14,16,Jits_ISO_5,35,9999,9999,9999,9999,1305872448
14,16,Jits_ISO_5,36,9999,9999,9999,9999,1306372172
14,16,Jits_ISO_5,37,9999,9999,9999,9999,1306872952
14,16,Jits_ISO_5,38,9999,9999,9999,9999,1307372612
14,16,Jits_ISO_5,39,9999,9999,9999,9999,1307872348
14,16,Jits_ISO_5,40,9999,9999,9999,9999,1308373060
14,16,Jits_ISO_5,41,9999,9999,9999,9999,1308872804
14,16,Jits_ISO_5,42,9999,9999,9999,9999,1309372480
14,16,Jits_ISO_5,43,9999,9999,9999,9999,1309872208
14,16,Jits_ISO_5,44,9999,9999,9999,9999,1310372988
14,16,Jits_ISO_5,45,9999,9999,9999,9999,1310872656
14,16,Jits_ISO_5,46,9999,9999,9999,9999,1311372392
14,16,Jits_ISO_5,47,9999,9999,9999,9999,1311872056
14,16,Jits_ISO_5,48,9999,9999,9999,9999,1312372836
14,16,Jits_ISO_5,49,9999,9999,9999,9999,1312872544
14,16,Jits_ISO_5,50,9999,9999,9999,9999,1313372268
14,16,Jits_ISO_5,51,9999,9999,9999,9999,1313872988
14,16,Jits_ISO_5,52,9999,9999,9999,9999,1314372720
14,16,Jits_ISO_5,53,9999,9999,9999,9999,1314872380
14,16,Jits_ISO_5,54,9999,9999,9999,9999,1315372112
14,16,Jits_ISO_5,55,9999,9999,9999,9999,1315872832
14,16,Jits_ISO_5,56,9999,9999,9999,9999,1316372580
14,16,Jits_ISO_5,57,9999,9999,9999,9999,1316872244
14,16,Jits_ISO_5,58,9999,9999,9999,9999,1317373024
14,16,Jits_ISO_5,59,9999,9999,9999,9999,1317872744
14,16,Jits_ISO_5,60,9999,9999,9999,9999,1318372420
14,16,Jits_ISO_5,61,9999,9999,9999,9999,1318872148
14,16,Jits_ISO_5,62,9999,9999,9999,9999,1319372864
14,16,Jits_ISO_5,63,9999,9999,9999,9999,1319872596
14,16,Jits_ISO_5,64,9999,9999,9999,9999,1320372328
14,16,Jits_ISO_5,65,9999,9999,9999,9999,1320873044
14,16,Jits_ISO_5,66,9999,9999,9999,9999,1321372792
14,16,Jits_ISO_5,67,9999,9999,9999,9999,1321872440
14,16,Jits_ISO_5,68,9999,9999,9999,9999,1322372172
14,16,Jits_ISO_5,69,9999,9999,9999,9999,1322872952
14,16,Jits_ISO_5,70,9999,9999,9999,9999,1323372596
14,16,Jits_ISO_5,71,9999,9999,9999,9999,1323872320
14,16,Jits_ISO_5,72,9999,9999,9999,9999,1324373068
14,16,Jits_ISO_5,73,9999,9999,9999,9999,1324872796
14,16,Jits_ISO_5,74,9999,9999,9999,9999,1325372532
14,16,Jits_ISO_5,75,9999,9999,9999,9999,1325872188
14,16,Jits_ISO_5,76,9999,9999,9999,9999,1326372976
14,16,Jits_ISO_5,77,9999,9999,9999,9999,1326872636
14,16,Jits_ISO_5,78,9999,9999,9999,9999,1327372372
14,16,Jits_ISO_5,79,9999,9999,9999,9999,1327872108
14,16,Jits_ISO_5,80,9999,9999,9999,9999,1328372812
14,16,Jits_ISO_5,81,9999,9999,9999,9999,1328872544
14,16,Jits_ISO_5,82,9999,9999,9999,9999,1329372276
14,16,Jits_ISO_5,83,9999,9999,9999,9999,1329872984
14,16,Jits_ISO_5,84,9999,9999,9999,9999,1330372720
14,16,Jits_ISO_5,85,9999,9999,9999,9999,1330872376
14,16,Jits_ISO_5,86,9999,9999,9999,9999,1331372104
14,16,Jits_ISO_5,87,9999,9999,9999,9999,1331872828
14,16,Jits_ISO_5,88,9999,9999,9999,9999,1332372556
14,16,Jits_ISO_5,89,9999,9999,9999,9999,1332872304
14,16,Jits_ISO_5,90,9999,9999,9999,9999,1333372996
14,16,Jits_ISO_5,91,9999,9999,9999,9999,1333872736
14,16,Jits_ISO_5,92,9999,9999,9999,9999,1334372444
14,16,Jits_ISO_5,93,9999,9999,9999,9999,1334872172
14,16,Jits_ISO_5,94,9999,9999,9999,9999,1335372872
14,16,Jits_ISO_5,95,9999,9999,9999,9999,1335872608
14,16,Jits_ISO_5,96,9999,9999,9999,9999,1336372280
14,16,Jits_ISO_5,97,9999,9999,9999,9999,1336873056
14,16,Jits_ISO_5,98,9999,9999,9999,9999,1337372792
14,16,Jits_ISO_5,99,9999,9999,9999,9999,1337872444
14,16,Jits_ISO_5,100,9999,9999,9999,9999,1338372180
14,16,Jits_ISO_5,101,9999,9999,9999,9999,1338872888
14,16,Jits_ISO_5,102,9999,9999,9999,9999,1339372620
14,16,Jits_ISO_5,103,9999,9999,9999,9999,1339872360
14,16,Jits_ISO_5,104,9999,9999,9999,9999,1340373060
14,16,Jits_ISO_5,105,9999,9999,9999,9999,1340872788
14,16,Jits_ISO_5,106,9999,9999,9999,9999,1341372524
14,16,Jits_ISO_5,107,9999,9999,9999,9999,1341872180
14,16,Jits_ISO_5,108,9999,9999,9999,9999,1342372968
14,16,Jits_ISO_5,109,9999,9999,9999,9999,1342872624
14,16,Jits_ISO_5,110,9999,9999,9999,9999,1343372372
14,16,Jits_ISO_5,111,9999,9999,9999,9999,1343872120
14,16,Jits_ISO_5,112,9999,9999,9999,9999,1344372836
14,16,Jits_ISO_5,113,9999,9999,9999,9999,1344872568
14,16,Jits_ISO_5,114,9999,9999,9999,9999,1345372272
14,16,Jits_ISO_5,115,9999,9999,9999,9999,1345872968
14,16,Jits_ISO_5,116,9999,9999,9999,9999,1346372696
14,16,Jits_ISO_5,117,9999,9999,9999,9999,1346872444
14,16,Jits_ISO_5,118,9999,9999,9999,9999,1347372116
14,16,Jits_ISO_5,119,9999,9999,9999,9999,1347872888
15,7,Jits_ISO_8,0,5,56,103,1357864476
15,7,Jits_ISO_8,1,5,63,98,1357867580
15,7,Jits_ISO_8,2,5,80,127,1357870696
15,7,Jits_ISO_8,0,5,56,103,1358664028
15,7,Jits_ISO_8,1,5,63,98,1358667352
15,7,Jits_ISO_8,2,5,80,127,1358670400
15,7,Jits_ISO_8,0,5,80,127,1359413544
15,7,Jits_ISO_8,1,5,63,98,1359503708
15,7,Jits_ISO_8,2,5,56,103,1359513828
15,7,Jits_ISO_8,3,1,48,43,1359544448
15,7,Jits_ISO_8,0,5,56,103,1360244012
15,7,Jits_ISO_8,1,5,63,98,1360254284
15,7,Jits_ISO_8,2,1,48,32,1360301540
15,7,Jits_ISO_8,3,5,80,127,1360344560
15,7,Jits_ISO_8,0,5,63,98,1361014212
15,7,Jits_ISO_8,1,5,80,127,1361043816
15,7,Jits_ISO_8,2,5,56,103,1361073416
15,7,Jits_ISO_8,3,1,48,36,1361090836
15,7,Jits_ISO_8,0,5,56,103,1361813992
15,7,Jits_ISO_8,1,1,48,32,1361886640
15,7,Jits_ISO_8,2,5,80,127,1361914536
15,7,Jits_ISO_8,3,5,63,98,1361964512
15,7,Jits_ISO_8,0,5,56,103,1362613572
15,7,Jits_ISO_8,1,5,80,127,1362663772
15,7,Jits_ISO_8,2,5,63,98,1362703640
15,7,Jits_ISO_8,3,1,48,36,1362708176
15,7,Jits_ISO_8,0,5,80,127,1363444008
15,7,Jits_ISO_8,1,5,63,98,1363473684
15,7,Jits_ISO_8,2,1,48,38,1363494636
15,7,Jits_ISO_8,3,5,56,103,1363544408
15,7,Jits_ISO_8,0,5,63,98,1364273624
15,7,Jits_ISO_8,1,5,56,103,1364304348
15,7,Jits_ISO_8,2,1,48,38,1364306792
15,7,Jits_ISO_8,3,5,80,127,1364363636
15,7,Jits_ISO_8,0,5,56,103,1365013764
15,7,Jits_ISO_8,1,5,80,127,1365016836
15,7,Jits_ISO_8,2,1,48,35,1365060784
15,7,Jits_ISO_8,3,5,63,98,1365133736
15,7,Jits_ISO_8,0,1,48,43,1365852936
15,7,Jits_ISO_8,1,5,56,103,1365893592
15,7,Jits_ISO_8,2,5,80,127,1365933532
15,7,Jits_ISO_8,3,5,63,98,1365943652
15,7,Jits_ISO_8,0,5,56,103,1366654272
15,7,Jits_ISO_8,1,1,48,38,1366664588
15,7,Jits_ISO_8,2,5,80,127,1366673680
15,7,Jits_ISO_8,3,5,63,98,1366753552
15,7,Jits_ISO_8,0,5,80,127,1367444032
15,7,Jits_ISO_8,1,1,48,43,1367502524
15,7,Jits_ISO_8,2,5,56,103,1367544352
15,7,Jits_ISO_8,3,5,63,98,1367554400
15,7,Jits_ISO_8,0,5,63,98,1368213940
15,7,Jits_ISO_8,1,5,80,127,1368274260
15,7,Jits_ISO_8,2,5,56,103,1368283408
15,7,Jits_ISO_8,3,1,48,44,1368340760
15,7,Jits_ISO_8,0,5,56,103,1369013496
15,7,Jits_ISO_8,1,5,63,98,1369084372
15,7,Jits_ISO_8,2,1,48,45,1369087364
15,7,Jits_ISO_8,3,5,80,127,1369088928
15,7,Jits_ISO_8,0,5,63,98,1369844224
15,7,Jits_ISO_8,1,1,48,43,1369853120
15,7,Jits_ISO_8,2,5,56,103,1369894192
15,7,Jits_ISO_8,3,5,80,127,1369897336
15,7,Jits_ISO_8,0,5,56,103,1370604060
15,7,Jits_ISO_8,1,5,80,127,1370607200
15,7,Jits_ISO_8,2,1,48,39,1370655352
15,7,Jits_ISO_8,3,5,63,98,1370694184
15,7,Jits_ISO_8,0,5,63,98,1371443556
15,7,Jits_ISO_8,1,1,48,42,1371471316
15,7,Jits_ISO_8,2,5,56,103,1371533784
15,7,Jits_ISO_8,3,5,80,127,1371565012
15,7,Jits_ISO_8,0,5,56,103,1372234272
15,7,Jits_ISO_8,1,1,48,46,1372302084
15,7,Jits_ISO_8,2,5,63,98,1372333420
15,7,Jits_ISO_8,3,5,80,127,1372364292
15,7,Jits_ISO_8,0,5,63,98,1373054252
15,7,Jits_ISO_8,1,5,56,103,1373063404
15,7,Jits_ISO_8,2,1,48,43,1373108624
15,7,Jits_ISO_8,3,5,80,127,1373153528
15,7,Jits_ISO_8,0,5,63,98,1373873596
15,7,Jits_ISO_8,1,1,48,44,1373876420
15,7,Jits_ISO_8,2,5,56,103,1373954432
15,7,Jits_ISO_8,3,5,80,127,1373957276
15,7,Jits_ISO_8,0,5,80,127,1374634264
15,7,Jits_ISO_8,1,5,63,98,1374653828
15,7,Jits_ISO_8,2,1,48,40,1374674036
15,7,Jits_ISO_8,3,5,56,103,1374714136
15,7,Jits_ISO_8,0,5,56,103,1375473996
15,7,Jits_ISO_8,1,5,63,98,1375493556
15,7,Jits_ISO_8,2,5,80,127,1375496700
15,7,Jits_ISO_8,3,1,48,45,1375499892
15,7,Jits_ISO_8,0,5,63,98,1376214296
15,7,Jits_ISO_8,1,1,48,39,1376283348
15,7,Jits_ISO_8,2,5,80,127,1376294312
15,7,Jits_ISO_8,3,5,56,103,1376303388
15,7,Jits_ISO_8,0,5,63,98,1377033484
15,7,Jits_ISO_8,1,5,56,103,1377054316
15,7,Jits_ISO_8,2,1,48,40,1377094596
15,7,Jits_ISO_8,3,5,80,127,1377104140
15,7,Jits_ISO_8,0,5,80,127,1377834236
15,7,Jits_ISO_8,1,1,48,44,1377864256
15,7,Jits_ISO_8,2,5,63,98,1377874172
15,7,Jits_ISO_8,3,5,56,103,1377893656
15,7,Jits_ISO_8,0,1,48,43,1378645140
15,7,Jits_ISO_8,1,5,56,103,1378674184
15,7,Jits_ISO_8,2,5,63,98,1378684228
15,7,Jits_ISO_8,3,5,80,127,1378703644
15,7,Jits_ISO_8,0,5,56,103,1379404120
15,7,Jits_ISO_8,1,1,48,43,1379457464
15,7,Jits_ISO_8,2,5,63,98,1379494276
15,7,Jits_ISO_8,3,5,80,127,1379553756
15,7,Jits_ISO_8,0,1,48,42,1380210948
15,7,Jits_ISO_8,1,5,80,127,1380233536
15,7,Jits_ISO_8,2,5,56,103,1380244104
15,7,Jits_ISO_8,3,1,48,20,1380294112
15,7,Jits_ISO_8,4,5,63,98,1380313540
15,7,Jits_ISO_8,0,1,48,34,1381031848
15,7,Jits_ISO_8,1,5,63,98,1381064256
15,7,Jits_ISO_8,2,5,80,127,1381154156
15,7,Jits_ISO_8,3,5,56,103,1381164352
15,7,Jits_ISO_8,0,5,63,98,1381804340
15,7,Jits_ISO_8,1,1,48,43,1381819364
15,7,Jits_ISO_8,2,5,80,127,1381853636
15,7,Jits_ISO_8,3,5,56,103,1381914028
15,7,Jits_ISO_8,0,1,48,38,1382568416
15,7,Jits_ISO_8,1,5,56,103,1382634004
15,7,Jits_ISO_8,2,5,80,127,1382684120
15,7,Jits_ISO_8,3,5,63,98,1382703384
15,7,Jits_ISO_8,0,1,48,42,1383368272
15,7,Jits_ISO_8,1,5,56,103,1383404040
15,7,Jits_ISO_8,2,5,80,127,1383464344
15,7,Jits_ISO_8,3,5,63,98,1383533900
15,7,Jits_ISO_8,0,1,48,43,1384152328
15,7,Jits_ISO_8,1,5,56,103,1384203596
15,7,Jits_ISO_8,2,5,80,127,1384234320
15,7,Jits_ISO_8,3,5,63,98,1384264128
15,7,Jits_ISO_8,0,1,48,35,1384930956
15,7,Jits_ISO_8,1,5,56,103,1385044264
15,7,Jits_ISO_8,2,5,80,127,1385064148
15,7,Jits_ISO_8,3,5,63,98,1385124244
15,7,Jits_ISO_8,0,1,48,41,1385823588
15,7,Jits_ISO_8,1,5,80,127,1385924096
15,7,Jits_ISO_8,2,5,56,103,1385934140
15,7,Jits_ISO_8,3,5,63,98,1385944336
15,7,Jits_ISO_8,0,1,48,40,1386649916
15,7,Jits_ISO_8,1,5,56,103,1386683816
15,7,Jits_ISO_8,2,5,80,127,1386723680
15,7,Jits_ISO_8,3,5,63,98,1386754388
15,7,Jits_ISO_8,0,5,56,103,1387454088
15,7,Jits_ISO_8,1,1,48,48,1387475416
15,7,Jits_ISO_8,2,5,63,98,1387483388
15,7,Jits_ISO_8,3,5,80,127,1387523400
15,7,Jits_ISO_8,0,5,80,127,1388204364
15,7,Jits_ISO_8,1,1,48,44,1388227560
15,7,Jits_ISO_8,2,5,63,98,1388253516
15,7,Jits_ISO_8,3,5,56,103,1388274124
15,7,Jits_ISO_8,0,1,48,42,1389008316
15,7,Jits_ISO_8,1,5,56,103,1389033820
15,7,Jits_ISO_8,2,5,80,127,1389104012
15,7,Jits_ISO_8,3,5,63,98,1389163980
15,7,Jits_ISO_8,0,1,48,36,1389826168
15,7,Jits_ISO_8,1,5,80,127,1389833608
15,7,Jits_ISO_8,2,5,63,98,1389923896
15,7,Jits_ISO_8,3,5,56,103,1389944140
15,7,Jits_ISO_8,0,5,63,98,1390653928
15,7,Jits_ISO_8,1,1,48,45,1390656016
15,7,Jits_ISO_8,2,5,56,103,1390674232
15,7,Jits_ISO_8,3,5,80,127,1390714196
15,7,Jits_ISO_8,4,1,48,17,1390768244
15,7,Jits_ISO_8,0,5,80,127,1391413628
15,7,Jits_ISO_8,1,5,63,98,1391434088
15,7,Jits_ISO_8,2,1,48,44,1391487648
15,7,Jits_ISO_8,3,5,56,103,1391514052
15,7,Jits_ISO_8,0,5,63,98,1392204128
15,7,Jits_ISO_8,1,1,48,46,1392287664
15,7,Jits_ISO_8,2,5,56,103,1392313840
15,7,Jits_ISO_8,3,5,80,127,1392316832
15,7,Jits_ISO_8,4,1,48,18,1392395080
15,7,Jits_ISO_8,0,5,63,98,1393024308
15,7,Jits_ISO_8,1,5,56,103,1393033676
15,7,Jits_ISO_8,2,5,80,127,1393036596
15,7,Jits_ISO_8,3,1,48,46,1393119424
15,7,Jits_ISO_8,4,1,48,17,1393220380
15,7,Jits_ISO_8,0,5,56,103,1393803764
15,7,Jits_ISO_8,1,1,48,43,1393902120
15,7,Jits_ISO_8,2,5,80,127,1393923564
15,7,Jits_ISO_8,3,5,63,98,1393964476
15,7,Jits_ISO_8,0,5,56,103,1394623944
15,7,Jits_ISO_8,1,5,80,127,1394704040
15,7,Jits_ISO_8,2,1,48,48,1394717572
15,7,Jits_ISO_8,3,5,63,98,1394724196
15,7,Jits_ISO_8,0,5,56,103,1395423668
15,7,Jits_ISO_8,1,1,48,43,1395465072
15,7,Jits_ISO_8,2,5,63,98,1395534176
15,7,Jits_ISO_8,3,5,80,127,1395537616
15,7,Jits_ISO_8,0,5,56,103,1396254008
15,7,Jits_ISO_8,1,1,48,46,1396272116
15,7,Jits_ISO_8,2,5,80,127,1396283976
15,7,Jits_ISO_8,3,5,63,98,1396304212
15,7,Jits_ISO_8,0,5,63,98,1397034248
15,7,Jits_ISO_8,1,1,48,48,1397043772
15,7,Jits_ISO_8,2,5,56,103,1397045180
15,7,Jits_ISO_8,3,5,80,127,1397053736
15,7,Jits_ISO_8,4,1,48,14,1397160020
15,7,Jits_ISO_8,0,1,48,47,1397822860
15,7,Jits_ISO_8,1,5,80,127,1397824352
15,7,Jits_ISO_8,2,5,56,103,1397873984
15,7,Jits_ISO_8,3,5,63,98,1397913924
15,7,Jits_ISO_8,0,1,48,50,1398639936
15,7,Jits_ISO_8,1,5,80,127,1398644164
15,7,Jits_ISO_8,2,5,63,98,1398663876
15,7,Jits_ISO_8,3,5,56,103,1398714004
15,7,Jits_ISO_8,0,1,48,45,1399440844
15,7,Jits_ISO_8,1,5,80,127,1399453916
15,7,Jits_ISO_8,2,5,56,103,1399483740
15,7,Jits_ISO_8,3,5,63,98,1399554380
15,7,Jits_ISO_8,0,1,48,49,1400302852
15,7,Jits_ISO_8,1,5,56,103,1400304200
15,7,Jits_ISO_8,2,5,80,127,1400314172
15,7,Jits_ISO_8,3,5,63,98,1400354112
15,7,Jits_ISO_8,0,5,56,103,1401013636
15,7,Jits_ISO_8,1,5,63,98,1401034172
15,7,Jits_ISO_8,2,5,80,127,1401104000
15,7,Jits_ISO_8,3,1,48,43,1401106676
15,7,Jits_ISO_8,0,5,63,98,1401833808
15,7,Jits_ISO_8,1,1,48,49,1401889820
15,7,Jits_ISO_8,2,5,80,127,1401894196
15,7,Jits_ISO_8,3,5,56,103,1401913908
15,7,Jits_ISO_8,0,5,80,127,1402624448
15,7,Jits_ISO_8,1,5,56,103,1402654052
15,7,Jits_ISO_8,2,5,63,98,1402683728
15,7,Jits_ISO_8,3,1,48,40,1402739760
15,7,Jits_ISO_8,0,5,56,103,1403424168
15,7,Jits_ISO_8,1,5,63,98,1403483664
15,7,Jits_ISO_8,2,1,48,42,1403531548
15,7,Jits_ISO_8,3,5,80,127,1403543852
15,7,Jits_ISO_8,0,5,80,127,1404244348
15,7,Jits_ISO_8,1,5,56,103,1404263932
15,7,Jits_ISO_8,2,1,48,47,1404320840
15,7,Jits_ISO_8,3,5,63,98,1404333384
15,7,Jits_ISO_8,0,5,80,127,1405044020
15,7,Jits_ISO_8,1,5,63,98,1405063656
15,7,Jits_ISO_8,2,1,48,46,1405079880
15,7,Jits_ISO_8,3,5,56,103,1405094296
15,7,Jits_ISO_8,0,5,80,127,1405833776
15,7,Jits_ISO_8,1,5,63,98,1405854012
15,7,Jits_ISO_8,2,1,48,45,1405884028
15,7,Jits_ISO_8,3,5,56,103,1405913720
15,7,Jits_ISO_8,0,5,80,127,1406634616
15,7,Jits_ISO_8,1,1,48,47,1406716852
15,7,Jits_ISO_8,2,5,56,103,1406733816
15,7,Jits_ISO_8,3,5,63,98,1406764540
15,7,Jits_ISO_8,0,5,63,98,1407423708
15,7,Jits_ISO_8,1,5,80,127,1407473988
15,7,Jits_ISO_8,2,5,56,103,1407493624
15,7,Jits_ISO_8,3,1,48,46,1407496596
15,7,Jits_ISO_8,0,1,48,50,1408252832
15,7,Jits_ISO_8,1,5,80,127,1408263644
15,7,Jits_ISO_8,2,5,56,103,1408294216
15,7,Jits_ISO_8,3,5,63,98,1408297212
15,7,Jits_ISO_8,0,1,48,48,1409070204
15,7,Jits_ISO_8,1,5,63,98,1409094060
15,7,Jits_ISO_8,2,5,56,103,1409133952
15,7,Jits_ISO_8,3,5,80,127,1409154484
15,7,Jits_ISO_8,0,5,80,127,1409834440
15,7,Jits_ISO_8,1,1,48,51,1409877416
15,7,Jits_ISO_8,2,5,63,98,1409914180
15,7,Jits_ISO_8,3,5,56,103,1409954192
15,7,Jits_ISO_8,0,5,63,98,1410653644
15,7,Jits_ISO_8,1,1,48,44,1410686984
15,7,Jits_ISO_8,2,5,80,127,1410733684
15,7,Jits_ISO_8,3,5,56,103,1410753772
15,7,Jits_ISO_8,0,1,48,52,1411487140
15,7,Jits_ISO_8,1,5,56,103,1411494360
15,7,Jits_ISO_8,2,5,63,98,1411503584
15,7,Jits_ISO_8,3,5,80,127,1411544644
15,7,Jits_ISO_8,0,5,56,103,1412213976
15,7,Jits_ISO_8,1,5,80,127,1412216976
15,7,Jits_ISO_8,2,1,48,52,1412301820
15,7,Jits_ISO_8,3,5,63,98,1412354528
15,7,Jits_ISO_8,0,5,56,103,1413003656
15,7,Jits_ISO_8,1,5,63,98,1413093868
15,7,Jits_ISO_8,2,1,48,50,1413119680
15,7,Jits_ISO_8,3,5,80,127,1413164512
15,7,Jits_ISO_8,0,1,48,54,1413881780
15,7,Jits_ISO_8,1,5,63,98,1413884436
15,7,Jits_ISO_8,2,5,80,127,1413887804
15,7,Jits_ISO_8,3,5,56,103,1413943632
15,7,Jits_ISO_8,0,1,48,57,1414661500
15,7,Jits_ISO_8,1,5,80,127,1414723928
15,7,Jits_ISO_8,2,5,56,103,1414744392
15,7,Jits_ISO_8,3,5,63,98,1414753616
15,7,Jits_ISO_8,0,5,56,103,1415433668
15,7,Jits_ISO_8,1,5,63,98,1415443940
15,7,Jits_ISO_8,2,1,48,49,1415477024
15,7,Jits_ISO_8,3,5,80,127,1415513468
15,7,Jits_ISO_8,0,5,80,127,1416234512
15,7,Jits_ISO_8,1,1,48,51,1416243784
15,7,Jits_ISO_8,2,5,56,103,1416283588
15,7,Jits_ISO_8,3,5,63,98,1416333744
15,7,Jits_ISO_8,0,1,48,52,1417080820
15,7,Jits_ISO_8,1,5,56,103,1417113828
15,7,Jits_ISO_8,2,5,63,98,1417124172
15,7,Jits_ISO_8,3,5,80,127,1417164036
15,7,Jits_ISO_8,0,5,56,103,1417854432
15,7,Jits_ISO_8,1,5,63,98,1417894520
15,7,Jits_ISO_8,2,1,48,49,1417897268
15,7,Jits_ISO_8,3,5,80,127,1417944492
15,7,Jits_ISO_8,0,5,80,127,1418614072
15,7,Jits_ISO_8,1,1,48,48,1418662460
15,7,Jits_ISO_8,2,5,56,103,1418664344
15,7,Jits_ISO_8,3,5,63,98,1418683832
15,7,Jits_ISO_8,0,5,80,127,1419424056
15,7,Jits_ISO_8,1,1,48,48,1419468832
15,7,Jits_ISO_8,2,5,63,98,1419483396
15,7,Jits_ISO_8,3,5,56,103,1419564372
15,7,Jits_ISO_8,0,5,80,127,1420204596
15,7,Jits_ISO_8,1,5,56,103,1420244464
15,7,Jits_ISO_8,2,5,63,98,1420263728
15,7,Jits_ISO_8,3,1,48,51,1420269536
15,7,Jits_ISO_8,0,5,56,103,1421054368
15,7,Jits_ISO_8,1,5,80,127,1421063664
15,7,Jits_ISO_8,2,1,48,48,1421097500
15,7,Jits_ISO_8,3,5,63,98,1421103600
15,7,Jits_ISO_8,0,1,48,49,1421865968
15,7,Jits_ISO_8,1,5,56,103,1421923620
15,7,Jits_ISO_8,2,5,63,98,1421963704
15,7,Jits_ISO_8,3,5,80,127,1421967804
15,7,Jits_ISO_8,0,5,63,98,1422613844
15,7,Jits_ISO_8,1,5,80,127,1422653708
15,7,Jits_ISO_8,2,1,48,43,1422714468
15,7,Jits_ISO_8,3,5,56,103,1422723484
15,7,Jits_ISO_8,0,5,63,98,1423404556
15,7,Jits_ISO_8,1,1,48,48,1423461416
15,7,Jits_ISO_8,2,5,56,103,1423484372
15,7,Jits_ISO_8,3,5,80,127,1423543572
15,7,Jits_ISO_8,0,5,80,127,1424214532
15,7,Jits_ISO_8,1,1,48,49,1424228612
15,7,Jits_ISO_8,2,5,63,98,1424263632
15,7,Jits_ISO_8,3,5,56,103,1424294352
15,7,Jits_ISO_8,0,5,56,103,1425003864
15,7,Jits_ISO_8,1,1,48,48,1425045044
15,7,Jits_ISO_8,2,5,63,98,1425054208
15,7,Jits_ISO_8,3,5,80,127,1425064404
15,7,Jits_ISO_8,0,5,56,103,1425813920
15,7,Jits_ISO_8,1,1,48,48,1425830296
15,7,Jits_ISO_8,2,5,63,98,1425923384
15,7,Jits_ISO_8,3,5,80,127,1425943900
15,7,Jits_ISO_8,0,5,63,98,1426613500
15,7,Jits_ISO_8,1,1,48,51,1426635200
15,7,Jits_ISO_8,2,5,80,127,1426663772
15,7,Jits_ISO_8,3,5,56,103,1426753816
15,7,Jits_ISO_8,0,5,63,98,1427404364
15,7,Jits_ISO_8,1,5,80,127,1427433968
15,7,Jits_ISO_8,2,1,48,47,1427441724
15,7,Jits_ISO_8,3,5,56,103,1427523944
15,7,Jits_ISO_8,0,5,63,98,1428203772
15,7,Jits_ISO_8,1,1,48,52,1428210628
15,7,Jits_ISO_8,2,5,56,103,1428214408
15,7,Jits_ISO_8,3,5,80,127,1428313448
15,7,Jits_ISO_8,0,1,48,53,1428985312
15,7,Jits_ISO_8,1,5,63,98,1429104028
15,7,Jits_ISO_8,2,5,80,127,1429133704
15,7,Jits_ISO_8,3,5,56,103,1429164500
15,7,Jits_ISO_8,0,1,48,46,1429786076
15,7,Jits_ISO_8,1,5,80,127,1429924496
15,7,Jits_ISO_8,2,5,63,98,1429933276
15,7,Jits_ISO_8,3,5,56,103,1429964444
15,7,Jits_ISO_8,0,1,48,49,1430582804
15,7,Jits_ISO_8,1,5,80,127,1430623584
15,7,Jits_ISO_8,2,5,63,98,1430644068
15,7,Jits_ISO_8,3,5,56,103,1430694256
15,7,Jits_ISO_8,0,1,48,52,1431335596
15,7,Jits_ISO_8,1,5,63,98,1431454240
15,7,Jits_ISO_8,2,5,80,127,1431513436
15,7,Jits_ISO_8,3,5,56,103,1431534044
15,7,Jits_ISO_8,0,1,48,51,1432119572
15,7,Jits_ISO_8,1,5,63,98,1432213732
15,7,Jits_ISO_8,2,5,56,103,1432264148
15,7,Jits_ISO_8,3,5,80,127,1432274192
15,7,Jits_ISO_8,0,1,48,45,1432907440
15,7,Jits_ISO_8,1,5,56,103,1433044440
15,7,Jits_ISO_8,2,5,80,127,1433053516
15,7,Jits_ISO_8,3,5,63,98,1433153836
15,7,Jits_ISO_8,0,1,48,46,1433675680
15,7,Jits_ISO_8,1,5,80,127,1433804440
15,7,Jits_ISO_8,2,5,63,98,1433814336
15,7,Jits_ISO_8,3,5,56,103,1433963832
15,7,Jits_ISO_8,0,1,48,48,1434495268
15,7,Jits_ISO_8,1,5,63,98,1434614332
15,7,Jits_ISO_8,2,5,80,127,1434654048
15,7,Jits_ISO_8,3,5,56,103,1434733796
15,7,Jits_ISO_8,0,1,48,43,1435327264
15,7,Jits_ISO_8,1,5,56,103,1435403568
15,7,Jits_ISO_8,2,5,80,127,1435504128
15,7,Jits_ISO_8,3,5,63,98,1435523464
15,7,Jits_ISO_8,0,1,48,46,1436130260
15,7,Jits_ISO_8,1,5,80,127,1436263896
15,7,Jits_ISO_8,2,5,56,103,1436274096
15,7,Jits_ISO_8,3,5,63,98,1436364376
15,7,Jits_ISO_8,0,1,48,43,1436910720
15,7,Jits_ISO_8,1,5,56,103,1437063536
15,7,Jits_ISO_8,2,5,63,98,1437084144
15,7,Jits_ISO_8,3,5,80,127,1437164164
15,7,Jits_ISO_8,0,1,48,38,1437665932
15,7,Jits_ISO_8,1,5,63,98,1437814096
15,7,Jits_ISO_8,2,5,56,103,1437904232
15,7,Jits_ISO_8,3,5,80,127,1437907300
15,7,Jits_ISO_8,0,1,48,43,1438434164
15,7,Jits_ISO_8,1,5,56,103,1438643688
15,7,Jits_ISO_8,2,5,80,127,1438704084
15,7,Jits_ISO_8,3,5,63,98,1438714352
15,7,Jits_ISO_8,0,1,48,43,1439212004
15,7,Jits_ISO_8,1,5,80,127,1439493596
15,7,Jits_ISO_8,2,5,56,103,1439503720
15,7,Jits_ISO_8,3,5,63,98,1439507084
15,7,Jits_ISO_8,0,1,48,45,1440001144
15,7,Jits_ISO_8,1,5,56,103,1440254264
15,7,Jits_ISO_8,2,5,80,127,1440263488
15,7,Jits_ISO_8,3,5,63,98,1440283948
15,7,Jits_ISO_8,0,1,48,41,1440764724
15,7,Jits_ISO_8,1,5,63,98,1441024296
15,7,Jits_ISO_8,2,5,80,127,1441083716
15,7,Jits_ISO_8,3,5,56,103,1441134092
15,7,Jits_ISO_8,0,1,48,44,1441525772
15,7,Jits_ISO_8,1,5,63,98,1441904128
15,7,Jits_ISO_8,2,5,56,103,1441914100
15,7,Jits_ISO_8,3,5,80,127,1441964300
15,7,Jits_ISO_8,0,1,48,39,1442357556
15,7,Jits_ISO_8,1,5,63,98,1442604540
15,7,Jits_ISO_8,2,5,80,127,1442623732
15,7,Jits_ISO_8,3,5,56,103,1442634296
15,7,Jits_ISO_8,0,1,48,42,1443142800
15,7,Jits_ISO_8,1,5,63,98,1443404088
15,7,Jits_ISO_8,2,5,80,127,1443407380
15,7,Jits_ISO_8,3,5,56,103,1443444276
15,7,Jits_ISO_8,0,1,48,46,1443945204
15,7,Jits_ISO_8,1,5,63,98,1444273560
15,7,Jits_ISO_8,2,5,80,127,1444304136
15,7,Jits_ISO_8,3,5,56,103,1444313508
15,7,Jits_ISO_8,0,1,48,44,1444754280
15,7,Jits_ISO_8,1,5,56,103,1445024192
15,7,Jits_ISO_8,2,5,80,127,1445053792
15,7,Jits_ISO_8,3,5,63,98,1445083468
15,7,Jits_ISO_8,0,1,48,46,1445602012
15,7,Jits_ISO_8,1,5,63,98,1445924148
15,7,Jits_ISO_8,2,5,56,103,1445964160
15,7,Jits_ISO_8,3,5,80,127,1445967228
15,7,Jits_ISO_8,0,1,48,51,1446418572
15,7,Jits_ISO_8,1,5,80,127,1446623528
15,7,Jits_ISO_8,2,5,56,103,1446703480
15,7,Jits_ISO_8,3,5,63,98,1446753608
15,7,Jits_ISO_8,0,1,48,46,1447184044
15,7,Jits_ISO_8,1,5,80,127,1447404056
15,7,Jits_ISO_8,2,5,56,103,1447424296
15,7,Jits_ISO_8,3,5,63,98,1447513528
15,7,Jits_ISO_8,0,1,48,43,1448044908
15,7,Jits_ISO_8,1,5,80,127,1448243692
15,7,Jits_ISO_8,2,5,63,98,1448283708
15,7,Jits_ISO_8,3,5,56,103,1448323596
15,7,Jits_ISO_8,0,1,48,48,1448828500
15,7,Jits_ISO_8,1,5,63,98,1449013580
15,7,Jits_ISO_8,2,5,80,127,1449074148
15,7,Jits_ISO_8,3,5,56,103,1449103824
15,7,Jits_ISO_8,0,1,48,49,1449592552
15,7,Jits_ISO_8,1,5,56,103,1449814336
15,7,Jits_ISO_8,2,5,80,127,1449844108
15,7,Jits_ISO_8,3,5,63,98,1449934168
15,7,Jits_ISO_8,0,1,48,46,1450398844
15,7,Jits_ISO_8,1,5,56,103,1450624476
15,7,Jits_ISO_8,2,5,80,127,1450734096
15,7,Jits_ISO_8,3,5,63,98,1450764068
15,7,Jits_ISO_8,0,1,48,54,1451203804
15,7,Jits_ISO_8,1,5,56,103,1451474164
15,7,Jits_ISO_8,2,5,63,98,1451533808
15,7,Jits_ISO_8,3,5,80,127,1451564308
15,7,Jits_ISO_8,0,1,48,52,1451962836
15,7,Jits_ISO_8,1,5,56,103,1452244360
15,7,Jits_ISO_8,2,5,63,98,1452314116
15,7,Jits_ISO_8,3,5,80,127,1452333380
15,7,Jits_ISO_8,0,1,48,51,1452782404
15,7,Jits_ISO_8,1,5,80,127,1453014324
15,7,Jits_ISO_8,2,5,63,98,1453034036
15,7,Jits_ISO_8,3,5,56,103,1453084236
15,7,Jits_ISO_8,0,9999,9999,9999,9999,1358261324
15,7,Jits_ISO_8,1,9999,9999,9999,9999,1359062072
15,7,Jits_ISO_8,2,9999,9999,9999,9999,1359872104
15,7,Jits_ISO_8,3,9999,9999,9999,9999,1360682092
15,7,Jits_ISO_8,4,9999,9999,9999,9999,1361481812
15,7,Jits_ISO_8,5,9999,9999,9999,9999,1362281548
15,7,Jits_ISO_8,6,9999,9999,9999,9999,1363081268
15,7,Jits_ISO_8,7,9999,9999,9999,9999,1363882040
15,7,Jits_ISO_8,8,9999,9999,9999,9999,1364681840
15,7,Jits_ISO_8,9,9999,9999,9999,9999,1365481536
15,7,Jits_ISO_8,10,9999,9999,9999,9999,1366281336
15,7,Jits_ISO_8,11,9999,9999,9999,9999,1367082092
15,7,Jits_ISO_8,12,9999,9999,9999,9999,1367881820
15,7,Jits_ISO_8,13,9999,9999,9999,9999,1368681564
15,7,Jits_ISO_8,14,9999,9999,9999,9999,1369481332
15,7,Jits_ISO_8,15,9999,9999,9999,9999,1370282096
15,7,Jits_ISO_8,16,9999,9999,9999,9999,1371081788
15,7,Jits_ISO_8,17,9999,9999,9999,9999,1371881592
15,7,Jits_ISO_8,18,9999,9999,9999,9999,1372681300
15,7,Jits_ISO_8,19,9999,9999,9999,9999,1373482072
15,7,Jits_ISO_8,20,9999,9999,9999,9999,1374281780
15,7,Jits_ISO_8,21,9999,9999,9999,9999,1375081588
15,7,Jits_ISO_8,22,9999,9999,9999,9999,1375881300
15,7,Jits_ISO_8,23,9999,9999,9999,9999,1376682068
15,7,Jits_ISO_8,24,9999,9999,9999,9999,1377481852
15,7,Jits_ISO_8,25,9999,9999,9999,9999,1378281532
15,7,Jits_ISO_8,26,9999,9999,9999,9999,1379081332
15,7,Jits_ISO_8,27,9999,9999,9999,9999,1379882088
15,7,Jits_ISO_8,28,9999,9999,9999,9999,1380681788
15,7,Jits_ISO_8,29,9999,9999,9999,9999,1381481548
15,7,Jits_ISO_8,30,9999,9999,9999,9999,1382281328
15,7,Jits_ISO_8,31,9999,9999,9999,9999,1383082084
15,7,Jits_ISO_8,32,9999,9999,9999,9999,1383881788
15,7,Jits_ISO_8,33,9999,9999,9999,9999,1384681564
15,7,Jits_ISO_8,34,9999,9999,9999,9999,1385481272
15,7,Jits_ISO_8,35,9999,9999,9999,9999,1386282036
15,7,Jits_ISO_8,36,9999,9999,9999,9999,1387081824
15,7,Jits_ISO_8,37,9999,9999,9999,9999,1387881560
15,7,Jits_ISO_8,38,9999,9999,9999,9999,1388681276
15,7,Jits_ISO_8,39,9999,9999,9999,9999,1389482052
15,7,Jits_ISO_8,40,9999,9999,9999,9999,1390281840
15,7,Jits_ISO_8,41,9999,9999,9999,9999,1391081528
15,7,Jits_ISO_8,42,9999,9999,9999,9999,1391881328
15,7,Jits_ISO_8,43,9999,9999,9999,9999,1392682064
15,7,Jits_ISO_8,44,9999,9999,9999,9999,1393481828
15,7,Jits_ISO_8,45,9999,9999,9999,9999,1394281584
15,7,Jits_ISO_8,46,9999,9999,9999,9999,1395081308
15,7,Jits_ISO_8,47,9999,9999,9999,9999,1395882048
15,7,Jits_ISO_8,48,9999,9999,9999,9999,1396681848
15,7,Jits_ISO_8,49,9999,9999,9999,9999,1397481544
15,7,Jits_ISO_8,50,9999,9999,9999,9999,1398281272
15,7,Jits_ISO_8,51,9999,9999,9999,9999,1399082104
15,7,Jits_ISO_8,52,9999,9999,9999,9999,1399881816
15,7,Jits_ISO_8,53,9999,9999,9999,9999,1400681556
15,7,Jits_ISO_8,54,9999,9999,9999,9999,1401481332
15,7,Jits_ISO_8,55,9999,9999,9999,9999,1402282104
15,7,Jits_ISO_8,56,9999,9999,9999,9999,1403081812
15,7,Jits_ISO_8,57,9999,9999,9999,9999,1403881532
15,7,Jits_ISO_8,58,9999,9999,9999,9999,1404681328
15,7,Jits_ISO_8,59,9999,9999,9999,9999,1405482096
15,7,Jits_ISO_8,60,9999,9999,9999,9999,1406281820
15,7,Jits_ISO_8,61,9999,9999,9999,9999,1407081572
15,7,Jits_ISO_8,62,9999,9999,9999,9999,1407881292
15,7,Jits_ISO_8,63,9999,9999,9999,9999,1408682040
15,7,Jits_ISO_8,64,9999,9999,9999,9999,1409481832
15,7,Jits_ISO_8,65,9999,9999,9999,9999,1410281540
15,7,Jits_ISO_8,66,9999,9999,9999,9999,1411081268
15,7,Jits_ISO_8,67,9999,9999,9999,9999,1411882104
15,7,Jits_ISO_8,68,9999,9999,9999,9999,1412681796
15,7,Jits_ISO_8,69,9999,9999,9999,9999,1413481548
15,7,Jits_ISO_8,70,9999,9999,9999,9999,1414281268
15,7,Jits_ISO_8,71,9999,9999,9999,9999,1415082104
15,7,Jits_ISO_8,72,9999,9999,9999,9999,1415881816
15,7,Jits_ISO_8,73,9999,9999,9999,9999,1416681540
15,7,Jits_ISO_8,74,9999,9999,9999,9999,1417481272
15,7,Jits_ISO_8,75,9999,9999,9999,9999,1418282104
15,7,Jits_ISO_8,76,9999,9999,9999,9999,1419081820
15,7,Jits_ISO_8,77,9999,9999,9999,9999,1419881572
15,7,Jits_ISO_8,78,9999,9999,9999,9999,1420681288
15,7,Jits_ISO_8,79,9999,9999,9999,9999,1421482060
15,7,Jits_ISO_8,80,9999,9999,9999,9999,1422281836
15,7,Jits_ISO_8,81,9999,9999,9999,9999,1423081544
15,7,Jits_ISO_8,82,9999,9999,9999,9999,1423881328
15,7,Jits_ISO_8,83,9999,9999,9999,9999,1424682080
15,7,Jits_ISO_8,84,9999,9999,9999,9999,1425481796
15,7,Jits_ISO_8,85,9999,9999,9999,9999,1426281552
15,7,Jits_ISO_8,86,9999,9999,9999,9999,1427081276
15,7,Jits_ISO_8,87,9999,9999,9999,9999,1427882104
15,7,Jits_ISO_8,88,9999,9999,9999,9999,1428681808
15,7,Jits_ISO_8,89,9999,9999,9999,9999,1429481524
15,7,Jits_ISO_8,90,9999,9999,9999,9999,1430281320
15,7,Jits_ISO_8,91,9999,9999,9999,9999,1431082072
15,7,Jits_ISO_8,92,9999,9999,9999,9999,1431881784
15,7,Jits_ISO_8,93,9999,9999,9999,9999,1432681588
15,7,Jits_ISO_8,94,9999,9999,9999,9999,1433481296
15,7,Jits_ISO_8,95,9999,9999,9999,9999,1434282052
15,7,Jits_ISO_8,96,9999,9999,9999,9999,1435081832
15,7,Jits_ISO_8,97,9999,9999,9999,9999,1435881540
15,7,Jits_ISO_8,98,9999,9999,9999,9999,1436681324
15,7,Jits_ISO_8,99,9999,9999,9999,9999,1437482088
15,7,Jits_ISO_8,100,9999,9999,9999,9999,1438281784
15,7,Jits_ISO_8,101,9999,9999,9999,9999,1439081592
15,7,Jits_ISO_8,102,9999,9999,9999,9999,1439881296
15,7,Jits_ISO_8,103,9999,9999,9999,9999,1440682048
15,7,Jits_ISO_8,104,9999,9999,9999,9999,1441481832
15,7,Jits_ISO_8,105,9999,9999,9999,9999,1442281548
15,7,Jits_ISO_8,106,9999,9999,9999,9999,1443081324
15,7,Jits_ISO_8,107,9999,9999,9999,9999,1443882060
15,7,Jits_ISO_8,108,9999,9999,9999,9999,1444681844
15,7,Jits_ISO_8,109,9999,9999,9999,9999,1445481572
15,7,Jits_ISO_8,110,9999,9999,9999,9999,1446281284
15,7,Jits_ISO_8,111,9999,9999,9999,9999,1447082040
15,7,Jits_ISO_8,112,9999,9999,9999,9999,1447881816
15,7,Jits_ISO_8,113,9999,9999,9999,9999,1448681524
15,7,Jits_ISO_8,114,9999,9999,9999,9999,1449481304
15,7,Jits_ISO_8,115,9999,9999,9999,9999,1450282056
15,7,Jits_ISO_8,116,9999,9999,9999,9999,1451081840
15,7,Jits_ISO_8,117,9999,9999,9999,9999,1451881580
15,7,Jits_ISO_8,118,9999,9999,9999,9999,1452681292
15,7,Jits_ISO_8,119,9999,9999,9999,9999,1453482044
16,19,Jits_Linear_5,0,5,56,103,1463399748
16,19,Jits_Linear_5,1,5,63,98,1463402844
16,19,Jits_Linear_5,2,5,80,127,1463405968
16,19,Jits_Linear_5,0,5,56,103,1463890220
16,19,Jits_Linear_5,1,5,63,98,1463893320
16,19,Jits_Linear_5,2,5,80,127,1463896596
16,19,Jits_Linear_5,0,5,56,103,1464369732
16,19,Jits_Linear_5,1,5,80,127,1464379852
16,19,Jits_Linear_5,2,5,63,98,1464400164
16,19,Jits_Linear_5,3,1,48,40,1464445552
16,19,Jits_Linear_5,0,5,63,98,1464799756
16,19,Jits_Linear_5,1,5,80,127,1464830328
16,19,Jits_Linear_5,2,5,56,103,1464839556
16,19,Jits_Linear_5,3,1,48,31,1464926276
16,19,Jits_Linear_5,0,5,80,127,1465349348
16,19,Jits_Linear_5,1,5,56,103,1465359916
16,19,Jits_Linear_5,2,1,48,31,1465373520
16,19,Jits_Linear_5,3,5,63,98,1465389360
16,19,Jits_Linear_5,0,5,63,98,1465829724
16,19,Jits_Linear_5,1,5,56,103,1465859400
16,19,Jits_Linear_5,2,5,80,127,1465869968
16,19,Jits_Linear_5,3,1,48,36,1465886944
16,19,Jits_Linear_5,0,5,56,103,1466270000
16,19,Jits_Linear_5,1,5,63,98,1466320356
16,19,Jits_Linear_5,2,5,80,127,1466339696
16,19,Jits_Linear_5,3,1,48,35,1466387920
16,19,Jits_Linear_5,0,5,80,127,1466759664
16,19,Jits_Linear_5,1,5,63,98,1466809868
16,19,Jits_Linear_5,2,5,56,103,1466849736
16,19,Jits_Linear_5,3,1,48,35,1466861696
16,19,Jits_Linear_5,0,5,56,103,1467250152
16,19,Jits_Linear_5,1,5,63,98,1467279756
16,19,Jits_Linear_5,2,1,48,32,1467312692
16,19,Jits_Linear_5,3,5,80,127,1467350328
16,19,Jits_Linear_5,0,5,56,103,1467739716
16,19,Jits_Linear_5,1,1,48,36,1467790740
16,19,Jits_Linear_5,2,5,80,127,1467799832
16,19,Jits_Linear_5,3,5,63,98,1467829728
16,19,Jits_Linear_5,0,5,56,103,1468240096
16,19,Jits_Linear_5,1,5,63,98,1468249396
16,19,Jits_Linear_5,2,5,80,127,1468290556
16,19,Jits_Linear_5,3,1,48,35,1468294124
16,19,Jits_Linear_5,0,5,63,98,1468729756
16,19,Jits_Linear_5,1,1,48,33,1468777096
16,19,Jits_Linear_5,2,5,80,127,1468809872
16,19,Jits_Linear_5,3,5,56,103,1468819848
16,19,Jits_Linear_5,0,1,48,32,1469259684
16,19,Jits_Linear_5,1,5,63,98,1469279788
16,19,Jits_Linear_5,2,5,56,103,1469319908
16,19,Jits_Linear_5,3,5,80,127,1469322892
16,19,Jits_Linear_5,0,5,56,103,1469740508
16,19,Jits_Linear_5,1,5,63,98,1469749880
16,19,Jits_Linear_5,2,1,48,36,1469754196
16,19,Jits_Linear_5,3,5,80,127,1469789664
16,19,Jits_Linear_5,0,5,56,103,1470229940
16,19,Jits_Linear_5,1,5,63,98,1470233008
16,19,Jits_Linear_5,2,1,48,37,1470250624
16,19,Jits_Linear_5,3,5,80,127,1470251888
16,19,Jits_Linear_5,0,5,80,127,1470750164
16,19,Jits_Linear_5,1,1,48,34,1470752680
16,19,Jits_Linear_5,2,5,56,103,1470760280
16,19,Jits_Linear_5,3,5,63,98,1470830060
16,19,Jits_Linear_5,0,5,63,98,1471249788
16,19,Jits_Linear_5,1,1,48,36,1471255604
16,19,Jits_Linear_5,2,5,56,103,1471270244
16,19,Jits_Linear_5,3,5,80,127,1471349988
16,19,Jits_Linear_5,0,1,48,38,1471739704
16,19,Jits_Linear_5,1,5,56,103,1471769852
16,19,Jits_Linear_5,2,5,80,127,1471809864
16,19,Jits_Linear_5,3,5,63,98,1471820284
16,19,Jits_Linear_5,0,1,48,40,1472238200
16,19,Jits_Linear_5,1,5,80,127,1472269688
16,19,Jits_Linear_5,2,5,63,98,1472300336
16,19,Jits_Linear_5,3,5,56,103,1472340336
16,19,Jits_Linear_5,0,1,48,42,1472775108
16,19,Jits_Linear_5,1,5,56,103,1472800168
16,19,Jits_Linear_5,2,5,63,98,1472829772
16,19,Jits_Linear_5,3,5,80,127,1472879984
16,19,Jits_Linear_5,0,1,48,41,1473294280
16,19,Jits_Linear_5,1,5,80,127,1473309972
16,19,Jits_Linear_5,2,5,56,103,1473349988
16,19,Jits_Linear_5,3,5,63,98,1473360184
16,19,Jits_Linear_5,0,1,48,37,1473798624
16,19,Jits_Linear_5,1,5,80,127,1473809732
16,19,Jits_Linear_5,2,5,63,98,1473849748
16,19,Jits_Linear_5,3,5,56,103,1473910004
16,19,Jits_Linear_5,0,5,56,103,1474330028
16,19,Jits_Linear_5,1,1,48,37,1474332548
16,19,Jits_Linear_5,2,5,80,127,1474340144
16,19,Jits_Linear_5,3,5,63,98,1474420116
16,19,Jits_Linear_5,0,1,48,37,1474830376
16,19,Jits_Linear_5,1,5,80,127,1474850176
16,19,Jits_Linear_5,2,5,63,98,1474909672
16,19,Jits_Linear_5,3,5,56,103,1474940408
16,19,Jits_Linear_5,0,5,56,103,1475379764
16,19,Jits_Linear_5,1,1,48,38,1475387452
16,19,Jits_Linear_5,2,5,80,127,1475439956
16,19,Jits_Linear_5,3,5,63,98,1475479968
16,19,Jits_Linear_5,0,1,48,41,1475906700
16,19,Jits_Linear_5,1,5,56,103,1475960028
16,19,Jits_Linear_5,2,5,63,98,1475970668
16,19,Jits_Linear_5,3,5,80,127,1475973960
16,19,Jits_Linear_5,0,5,80,127,1476440576
16,19,Jits_Linear_5,1,1,48,39,1476468836
16,19,Jits_Linear_5,2,5,63,98,1476529616
16,19,Jits_Linear_5,3,5,56,103,1476539812
16,19,Jits_Linear_5,0,5,56,103,1476969812
16,19,Jits_Linear_5,1,5,63,98,1476972908
16,19,Jits_Linear_5,2,5,80,127,1476976180
16,19,Jits_Linear_5,3,1,48,37,1477028388
16,19,Jits_Linear_5,0,5,80,127,1477519780
16,19,Jits_Linear_5,1,1,48,35,1477552344
16,19,Jits_Linear_5,2,5,63,98,1477569976
16,19,Jits_Linear_5,3,5,56,103,1477599576
16,19,Jits_Linear_5,0,5,56,103,1478029596
16,19,Jits_Linear_5,1,5,80,127,1478039868
16,19,Jits_Linear_5,2,1,48,35,1478080600
16,19,Jits_Linear_5,3,5,63,98,1478109544
16,19,Jits_Linear_5,0,1,48,36,1478561476
16,19,Jits_Linear_5,1,5,56,103,1478570496
16,19,Jits_Linear_5,2,5,63,98,1478589760
16,19,Jits_Linear_5,3,5,80,127,1478650076
16,19,Jits_Linear_5,0,1,48,39,1479083932
16,19,Jits_Linear_5,1,5,80,127,1479099700
16,19,Jits_Linear_5,2,5,63,98,1479170656
16,19,Jits_Linear_5,3,5,56,103,1479189756
16,19,Jits_Linear_5,0,1,48,38,1479648740
16,19,Jits_Linear_5,1,5,80,127,1479659852
16,19,Jits_Linear_5,2,5,56,103,1479670124
16,19,Jits_Linear_5,3,5,63,98,1479680468
16,19,Jits_Linear_5,0,5,80,127,1480190260
16,19,Jits_Linear_5,1,1,48,35,1480199232
16,19,Jits_Linear_5,2,5,56,103,1480209888
16,19,Jits_Linear_5,3,5,63,98,1480280616
16,19,Jits_Linear_5,0,5,56,103,1480740308
16,19,Jits_Linear_5,1,1,48,39,1480761184
16,19,Jits_Linear_5,2,5,80,127,1480769828
16,19,Jits_Linear_5,3,5,63,98,1480790660
16,19,Jits_Linear_5,0,5,63,98,1481279720
16,19,Jits_Linear_5,1,1,48,33,1481319732
16,19,Jits_Linear_5,2,5,56,103,1481340428
16,19,Jits_Linear_5,3,5,80,127,1481369884
16,19,Jits_Linear_5,0,5,63,98,1481819636
16,19,Jits_Linear_5,1,5,80,127,1481822928
16,19,Jits_Linear_5,2,1,48,37,1481878728
16,19,Jits_Linear_5,3,5,56,103,1481909544
16,19,Jits_Linear_5,0,5,56,103,1482389744
16,19,Jits_Linear_5,1,5,63,98,1482419496
16,19,Jits_Linear_5,2,1,48,35,1482440148
16,19,Jits_Linear_5,3,5,80,127,1482459648
16,19,Jits_Linear_5,0,5,63,98,1482939792
16,19,Jits_Linear_5,1,5,56,103,1482979584
16,19,Jits_Linear_5,2,1,48,42,1482990568
16,19,Jits_Linear_5,3,5,80,127,1483000112
16,19,Jits_Linear_5,0,5,63,98,1483499796
16,19,Jits_Linear_5,1,5,56,103,1483539736
16,19,Jits_Linear_5,2,1,48,44,1483549712
16,19,Jits_Linear_5,3,5,80,127,1483551196
16,19,Jits_Linear_5,0,5,80,127,1484030276
16,19,Jits_Linear_5,1,5,63,98,1484099812
16,19,Jits_Linear_5,2,1,48,47,1484114468
16,19,Jits_Linear_5,3,5,56,103,1484120416
16,19,Jits_Linear_5,0,5,56,103,1484580328
16,19,Jits_Linear_5,1,5,80,127,1484599664
16,19,Jits_Linear_5,2,5,63,98,1484639680
16,19,Jits_Linear_5,3,1,48,42,1484655328
16,19,Jits_Linear_5,0,5,63,98,1485149632
16,19,Jits_Linear_5,1,5,80,127,1485170044
16,19,Jits_Linear_5,2,1,48,41,1485197596
16,19,Jits_Linear_5,3,5,56,103,1485209900
16,19,Jits_Linear_5,0,5,63,98,1485709800
16,19,Jits_Linear_5,1,5,56,103,1485730112
16,19,Jits_Linear_5,2,5,80,127,1485740608
16,19,Jits_Linear_5,3,1,48,42,1485784028
16,19,Jits_Linear_5,0,5,80,127,1486269796
16,19,Jits_Linear_5,1,5,56,103,1486290556
16,19,Jits_Linear_5,2,1,48,44,1486304088
16,19,Jits_Linear_5,3,5,63,98,1486319852
16,19,Jits_Linear_5,0,1,48,45,1486855840
16,19,Jits_Linear_5,1,5,56,103,1486909820
16,19,Jits_Linear_5,2,5,80,127,1486912888
16,19,Jits_Linear_5,3,5,63,98,1486930576
16,19,Jits_Linear_5,0,5,63,98,1487400364
16,19,Jits_Linear_5,1,5,56,103,1487429968
16,19,Jits_Linear_5,2,1,48,41,1487458212
16,19,Jits_Linear_5,3,5,80,127,1487490672
16,19,Jits_Linear_5,0,5,63,98,1488049476
16,19,Jits_Linear_5,1,1,48,47,1488053344
16,19,Jits_Linear_5,2,5,56,103,1488059740
16,19,Jits_Linear_5,3,5,80,127,1488070012
16,19,Jits_Linear_5,0,5,56,103,1488569696
16,19,Jits_Linear_5,1,5,80,127,1488600416
16,19,Jits_Linear_5,2,1,48,41,1488607748
16,19,Jits_Linear_5,3,5,63,98,1488609560
16,19,Jits_Linear_5,0,1,48,46,1489162864
16,19,Jits_Linear_5,1,5,63,98,1489180124
16,19,Jits_Linear_5,2,5,56,103,1489190244
16,19,Jits_Linear_5,3,5,80,127,1489209660
16,19,Jits_Linear_5,0,5,56,103,1489679596
16,19,Jits_Linear_5,1,1,48,46,1489731116
16,19,Jits_Linear_5,2,5,63,98,1489740352
16,19,Jits_Linear_5,3,5,80,127,1489743568
16,19,Jits_Linear_5,0,5,80,127,1490279856
16,19,Jits_Linear_5,1,1,48,45,1490283496
16,19,Jits_Linear_5,2,5,56,103,1490289972
16,19,Jits_Linear_5,3,5,63,98,1490359728
16,19,Jits_Linear_5,0,5,80,127,1490850280
16,19,Jits_Linear_5,1,1,48,46,1490865460
16,19,Jits_Linear_5,2,5,56,103,1490919736
16,19,Jits_Linear_5,3,5,63,98,1490930156
16,19,Jits_Linear_5,0,1,48,43,1491457772
16,19,Jits_Linear_5,1,5,63,98,1491469632
16,19,Jits_Linear_5,2,5,56,103,1491479904
16,19,Jits_Linear_5,3,5,80,127,1491500512
16,19,Jits_Linear_5,0,5,80,127,1492000040
16,19,Jits_Linear_5,1,1,48,47,1492026456
16,19,Jits_Linear_5,2,5,63,98,1492059604
16,19,Jits_Linear_5,3,5,56,103,1492099568
16,19,Jits_Linear_5,0,5,56,103,1492629832
16,19,Jits_Linear_5,1,1,48,46,1492630948
16,19,Jits_Linear_5,2,5,63,98,1492640096
16,19,Jits_Linear_5,3,5,80,127,1492679960
16,19,Jits_Linear_5,0,5,56,103,1493179732
16,19,Jits_Linear_5,1,1,48,47,1493206892
16,19,Jits_Linear_5,2,5,80,127,1493209400
16,19,Jits_Linear_5,3,5,63,98,1493259680
16,19,Jits_Linear_5,0,1,48,48,1493790212
16,19,Jits_Linear_5,1,5,56,103,1493809640
16,19,Jits_Linear_5,2,5,63,98,1493849432
16,19,Jits_Linear_5,3,5,80,127,1493852796
16,19,Jits_Linear_5,0,1,48,39,1494381692
16,19,Jits_Linear_5,1,5,56,103,1494400444
16,19,Jits_Linear_5,2,5,63,98,1494409520
16,19,Jits_Linear_5,3,5,80,127,1494430352
16,19,Jits_Linear_5,0,5,56,103,1494950184
16,19,Jits_Linear_5,1,5,80,127,1494953252
16,19,Jits_Linear_5,2,5,63,98,1494990348
16,19,Jits_Linear_5,3,1,48,42,1494997284
16,19,Jits_Linear_5,0,1,48,42,1495563796
16,19,Jits_Linear_5,1,5,63,98,1495580084
16,19,Jits_Linear_5,2,5,56,103,1495609612
16,19,Jits_Linear_5,3,5,80,127,1495630444
16,19,Jits_Linear_5,0,1,48,41,1496149752
16,19,Jits_Linear_5,1,5,80,127,1496151396
16,19,Jits_Linear_5,2,5,56,103,1496159572
16,19,Jits_Linear_5,3,5,63,98,1496169692
16,19,Jits_Linear_5,0,1,48,46,1496739832
16,19,Jits_Linear_5,1,5,56,103,1496749380
16,19,Jits_Linear_5,2,5,80,127,1496790292
16,19,Jits_Linear_5,3,5,63,98,1496820264
16,19,Jits_Linear_5,0,1,48,43,1497310472
16,19,Jits_Linear_5,1,5,63,98,1497369840
16,19,Jits_Linear_5,2,5,80,127,1497380408
16,19,Jits_Linear_5,3,5,56,103,1497389408
16,19,Jits_Linear_5,0,1,48,43,1497918948
16,19,Jits_Linear_5,1,5,56,103,1497949540
16,19,Jits_Linear_5,2,5,63,98,1498020132
16,19,Jits_Linear_5,3,5,80,127,1498029356
16,19,Jits_Linear_5,0,1,48,40,1498542648
16,19,Jits_Linear_5,1,5,80,127,1498559836
16,19,Jits_Linear_5,2,5,56,103,1498570404
16,19,Jits_Linear_5,3,5,63,98,1498620380
16,19,Jits_Linear_5,0,1,48,43,1499132236
16,19,Jits_Linear_5,1,5,80,127,1499180292
16,19,Jits_Linear_5,2,5,56,103,1499239724
16,19,Jits_Linear_5,3,5,63,98,1499269400
16,19,Jits_Linear_5,0,1,48,40,1499760824
16,19,Jits_Linear_5,1,5,56,103,1499789692
16,19,Jits_Linear_5,2,5,80,127,1499792688
16,19,Jits_Linear_5,3,5,63,98,1499829632
16,19,Jits_Linear_5,0,1,48,40,1500398060
16,19,Jits_Linear_5,1,5,56,103,1500429624
16,19,Jits_Linear_5,2,5,63,98,1500460348
16,19,Jits_Linear_5,3,5,80,127,1500469572
16,19,Jits_Linear_5,0,1,48,39,1500950860
16,19,Jits_Linear_5,1,5,63,98,1501051364
16,19,Jits_Linear_5,2,5,80,127,1501059544
16,19,Jits_Linear_5,3,5,56,103,1501069664
16,19,Jits_Linear_5,0,5,80,127,1501610340
16,19,Jits_Linear_5,1,1,48,42,1501623572
16,19,Jits_Linear_5,2,5,56,103,1501659488
16,19,Jits_Linear_5,3,5,63,98,1501662780
16,19,Jits_Linear_5,0,5,56,103,1502259428
16,19,Jits_Linear_5,1,5,80,127,1502280332
16,19,Jits_Linear_5,2,1,48,43,1502281224
16,19,Jits_Linear_5,3,5,63,98,1502290152
16,19,Jits_Linear_5,0,5,63,98,1502859696
16,19,Jits_Linear_5,1,5,56,103,1502890492
16,19,Jits_Linear_5,2,1,48,46,1502903128
16,19,Jits_Linear_5,3,5,80,127,1502909752
16,19,Jits_Linear_5,0,1,48,44,1503484832
16,19,Jits_Linear_5,1,5,56,103,1503490412
16,19,Jits_Linear_5,2,5,80,127,1503499636
16,19,Jits_Linear_5,3,5,63,98,1503570292
16,19,Jits_Linear_5,0,1,48,46,1504092860
16,19,Jits_Linear_5,1,5,63,98,1504099732
16,19,Jits_Linear_5,2,5,80,127,1504139748
16,19,Jits_Linear_5,3,5,56,103,1504179688
16,19,Jits_Linear_5,0,5,56,103,1504739608
16,19,Jits_Linear_5,1,1,48,48,1504744220
16,19,Jits_Linear_5,2,5,63,98,1504750020
16,19,Jits_Linear_5,3,5,80,127,1504770480
16,19,Jits_Linear_5,4,1,48,14,1504867096
16,19,Jits_Linear_5,0,1,48,43,1505357608
16,19,Jits_Linear_5,1,5,63,98,1505410344
16,19,Jits_Linear_5,2,5,80,127,1505430056
16,19,Jits_Linear_5,3,5,56,103,1505451248
16,19,Jits_Linear_5,0,5,56,103,1505979640
16,19,Jits_Linear_5,1,1,48,40,1506015348
16,19,Jits_Linear_5,2,5,80,127,1506059584
16,19,Jits_Linear_5,3,5,63,98,1506070076
16,19,Jits_Linear_5,0,1,48,38,1506620468
16,19,Jits_Linear_5,1,5,80,127,1506649412
16,19,Jits_Linear_5,2,5,63,98,1506659632
16,19,Jits_Linear_5,3,5,56,103,1506690428
16,19,Jits_Linear_5,0,5,63,98,1507240232
16,19,Jits_Linear_5,1,5,80,127,1507280324
16,19,Jits_Linear_5,2,1,48,35,1507286136
16,19,Jits_Linear_5,3,5,56,103,1507339584
16,19,Jits_Linear_5,0,5,63,98,1507880176
16,19,Jits_Linear_5,1,1,48,44,1507914532
16,19,Jits_Linear_5,2,5,56,103,1507929476
16,19,Jits_Linear_5,3,5,80,127,1507960224
16,19,Jits_Linear_5,0,1,48,37,1508497244
16,19,Jits_Linear_5,1,5,80,127,1508529428
16,19,Jits_Linear_5,2,5,63,98,1508539920
16,19,Jits_Linear_5,3,5,56,103,1508610412
16,19,Jits_Linear_5,0,1,48,42,1509141164
16,19,Jits_Linear_5,1,5,80,127,1509240104
16,19,Jits_Linear_5,2,5,56,103,1509250520
16,19,Jits_Linear_5,3,5,63,98,1509253440
16,19,Jits_Linear_5,0,5,56,103,1509819896
16,19,Jits_Linear_5,1,1,48,37,1509829912
16,19,Jits_Linear_5,2,5,80,127,1509840200
16,19,Jits_Linear_5,3,5,63,98,1509849424
16,19,Jits_Linear_5,0,1,48,38,1510438544
16,19,Jits_Linear_5,1,5,63,98,1510470260
16,19,Jits_Linear_5,2,5,56,103,1510509928
16,19,Jits_Linear_5,3,5,80,127,1510530460
16,19,Jits_Linear_5,0,1,48,40,1511106220
16,19,Jits_Linear_5,1,5,63,98,1511120196
16,19,Jits_Linear_5,2,5,56,103,1511179688
16,19,Jits_Linear_5,3,5,80,127,1511182756
16,19,Jits_Linear_5,0,5,56,103,1511729420
16,19,Jits_Linear_5,1,5,80,127,1511750104
16,19,Jits_Linear_5,2,1,48,39,1511768588
16,19,Jits_Linear_5,3,5,63,98,1511790060
16,19,Jits_Linear_5,0,1,48,39,1512384192
16,19,Jits_Linear_5,1,5,56,103,1512409400
16,19,Jits_Linear_5,2,5,63,98,1512429936
16,19,Jits_Linear_5,3,5,80,127,1512440056
16,19,Jits_Linear_5,0,1,48,37,1512997748
16,19,Jits_Linear_5,1,5,80,127,1513030156
16,19,Jits_Linear_5,2,5,56,103,1513059632
16,19,Jits_Linear_5,3,5,63,98,1513099484
16,19,Jits_Linear_5,0,1,48,40,1513684916
16,19,Jits_Linear_5,1,5,80,127,1513689524
16,19,Jits_Linear_5,2,5,56,103,1513710132
16,19,Jits_Linear_5,3,5,63,98,1513770228
16,19,Jits_Linear_5,0,5,56,103,1514350096
16,19,Jits_Linear_5,1,1,48,43,1514357784
16,19,Jits_Linear_5,2,5,80,127,1514370328
16,19,Jits_Linear_5,3,5,63,98,1514429896
16,19,Jits_Linear_5,0,5,80,127,1514990052
16,19,Jits_Linear_5,1,5,56,103,1515000172
16,19,Jits_Linear_5,2,1,48,39,1515013332
16,19,Jits_Linear_5,3,5,63,98,1515040180
16,19,Jits_Linear_5,0,5,63,98,1515650556
16,19,Jits_Linear_5,1,1,48,40,1515670540
16,19,Jits_Linear_5,2,5,56,103,1515690340
16,19,Jits_Linear_5,3,5,80,127,1515693556
16,19,Jits_Linear_5,0,1,48,46,1516319224
16,19,Jits_Linear_5,1,5,63,98,1516330408
16,19,Jits_Linear_5,2,5,80,127,1516370276
16,19,Jits_Linear_5,3,5,56,103,1516400124
16,19,Jits_Linear_5,0,5,56,103,1516979524
16,19,Jits_Linear_5,1,5,63,98,1516989868
16,19,Jits_Linear_5,2,1,48,46,1517009772
16,19,Jits_Linear_5,3,5,80,127,1517019464
16,19,Jits_Linear_5,0,1,48,42,1517626696
16,19,Jits_Linear_5,1,5,80,127,1517640068
16,19,Jits_Linear_5,2,5,63,98,1517709628
16,19,Jits_Linear_5,3,5,56,103,1517720180
16,19,Jits_Linear_5,0,5,63,98,1518309932
16,19,Jits_Linear_5,1,1,48,46,1518321444
16,19,Jits_Linear_5,2,5,56,103,1518380360
16,19,Jits_Linear_5,3,5,80,127,1518389732
16,19,Jits_Linear_5,4,1,48,18,1518429924
16,19,Jits_Linear_5,0,5,63,98,1518979392
16,19,Jits_Linear_5,1,5,56,103,1519000076
16,19,Jits_Linear_5,2,1,48,42,1519010616
16,19,Jits_Linear_5,3,5,80,127,1519040084
16,19,Jits_Linear_5,0,5,56,103,1519660388
16,19,Jits_Linear_5,1,1,48,42,1519661352
16,19,Jits_Linear_5,2,5,63,98,1519669900
16,19,Jits_Linear_5,3,5,80,127,1519749500
16,19,Jits_Linear_5,0,5,63,98,1520319848
16,19,Jits_Linear_5,1,1,48,38,1520337788
16,19,Jits_Linear_5,2,5,56,103,1520349668
16,19,Jits_Linear_5,3,5,80,127,1520389532
16,19,Jits_Linear_5,0,5,56,103,1520989528
16,19,Jits_Linear_5,1,1,48,40,1521003912
16,19,Jits_Linear_5,2,5,63,98,1521029416
16,19,Jits_Linear_5,3,5,80,127,1521069428
16,19,Jits_Linear_5,0,5,80,127,1521669812
16,19,Jits_Linear_5,1,1,48,39,1521670700
16,19,Jits_Linear_5,2,5,56,103,1521750428
16,19,Jits_Linear_5,3,5,63,98,1521759756
16,19,Jits_Linear_5,0,1,48,42,1522374040
16,19,Jits_Linear_5,1,5,56,103,1522390328
16,19,Jits_Linear_5,2,5,63,98,1522393392
16,19,Jits_Linear_5,3,5,80,127,1522399772
16,19,Jits_Linear_5,0,1,48,42,1523041496
16,19,Jits_Linear_5,1,5,56,103,1523089772
16,19,Jits_Linear_5,2,5,63,98,1523110308
16,19,Jits_Linear_5,3,5,80,127,1523119456
16,19,Jits_Linear_5,0,1,48,43,1523727748
16,19,Jits_Linear_5,1,5,63,98,1523729864
16,19,Jits_Linear_5,2,5,80,127,1523739984
16,19,Jits_Linear_5,3,5,56,103,1523759324
16,19,Jits_Linear_5,0,1,48,43,1524382756
16,19,Jits_Linear_5,1,5,63,98,1524420168
16,19,Jits_Linear_5,2,5,56,103,1524499804
16,19,Jits_Linear_5,3,5,80,127,1524503096
16,19,Jits_Linear_5,0,1,48,44,1525100408
16,19,Jits_Linear_5,1,5,63,98,1525110028
16,19,Jits_Linear_5,2,5,56,103,1525129440
16,19,Jits_Linear_5,3,5,80,127,1525160236
16,19,Jits_Linear_5,0,1,48,40,1525798424
16,19,Jits_Linear_5,1,5,56,103,1525800236
16,19,Jits_Linear_5,2,5,63,98,1525819876
16,19,Jits_Linear_5,3,5,80,127,1525830072
16,19,Jits_Linear_5,0,1,48,42,1526452236
16,19,Jits_Linear_5,1,5,56,103,1526520068
16,19,Jits_Linear_5,2,5,63,98,1526549952
16,19,Jits_Linear_5,3,5,80,127,1526553240
16,19,Jits_Linear_5,0,5,56,103,1527160028
16,19,Jits_Linear_5,1,5,63,98,1527200120
16,19,Jits_Linear_5,2,1,48,42,1527219800
16,19,Jits_Linear_5,3,5,80,127,1527259384
16,19,Jits_Linear_5,0,5,56,103,1527870036
16,19,Jits_Linear_5,1,5,63,98,1527880008
16,19,Jits_Linear_5,2,1,48,47,1527908928
16,19,Jits_Linear_5,3,5,80,127,1527939368
16,19,Jits_Linear_5,0,1,48,47,1528559208
16,19,Jits_Linear_5,1,5,56,103,1528570168
16,19,Jits_Linear_5,2,5,80,127,1528589804
16,19,Jits_Linear_5,3,5,63,98,1528620304
16,19,Jits_Linear_5,0,1,48,48,1529263520
16,19,Jits_Linear_5,1,5,80,127,1529269768
16,19,Jits_Linear_5,2,5,56,103,1529279744
16,19,Jits_Linear_5,3,5,63,98,1529300276
16,19,Jits_Linear_5,0,1,48,46,1529947820
16,19,Jits_Linear_5,1,5,63,98,1529959780
16,19,Jits_Linear_5,2,5,80,127,1530039800
16,19,Jits_Linear_5,3,5,56,103,1530049832
16,19,Jits_Linear_5,0,1,48,43,1530677992
16,19,Jits_Linear_5,1,5,80,127,1530719844
16,19,Jits_Linear_5,2,5,56,103,1530740084
16,19,Jits_Linear_5,3,5,63,98,1530743148
16,19,Jits_Linear_5,0,5,63,98,1531399644
16,19,Jits_Linear_5,1,5,80,127,1531402860
16,19,Jits_Linear_5,2,1,48,46,1531438508
16,19,Jits_Linear_5,3,5,56,103,1531459880
16,19,Jits_Linear_5,0,5,56,103,1532089800
16,19,Jits_Linear_5,1,5,80,127,1532099848
16,19,Jits_Linear_5,2,1,48,47,1532134128
16,19,Jits_Linear_5,3,5,63,98,1532140004
16,19,Jits_Linear_5,0,5,56,103,1532779752
16,19,Jits_Linear_5,1,1,48,43,1532825492
16,19,Jits_Linear_5,2,5,63,98,1532840216
16,19,Jits_Linear_5,3,5,80,127,1532849736
16,19,Jits_Linear_5,0,1,48,45,1533490996
16,19,Jits_Linear_5,1,5,63,98,1533499868
16,19,Jits_Linear_5,2,5,80,127,1533539684
16,19,Jits_Linear_5,3,5,56,103,1533579620
16,19,Jits_Linear_5,0,1,48,47,1534197708
16,19,Jits_Linear_5,1,5,56,103,1534210632
16,19,Jits_Linear_5,2,5,63,98,1534290356
16,19,Jits_Linear_5,3,5,80,127,1534294828
16,19,Jits_Linear_5,0,1,48,49,1534932008
16,19,Jits_Linear_5,1,5,80,127,1534979536
16,19,Jits_Linear_5,2,5,56,103,1535010032
16,19,Jits_Linear_5,3,5,63,98,1535013252
16,19,Jits_Linear_5,0,5,56,103,1535669692
16,19,Jits_Linear_5,1,1,48,43,1535676100
16,19,Jits_Linear_5,2,5,80,127,1535690072
16,19,Jits_Linear_5,3,5,63,98,1535729940
16,19,Jits_Linear_5,0,5,80,127,1536370136
16,19,Jits_Linear_5,1,5,63,98,1536389624
16,19,Jits_Linear_5,2,1,48,44,1536393940
16,19,Jits_Linear_5,3,5,56,103,1536449788
16,19,Jits_Linear_5,0,5,63,98,1537110560
16,19,Jits_Linear_5,1,5,56,103,1537119808
16,19,Jits_Linear_5,2,1,48,45,1537164732
16,19,Jits_Linear_5,3,5,80,127,1537169708
16,19,Jits_Linear_5,0,5,56,103,1537819900
16,19,Jits_Linear_5,1,5,63,98,1537839536
16,19,Jits_Linear_5,2,5,80,127,1537849656
16,19,Jits_Linear_5,3,1,48,42,1537884012
16,19,Jits_Linear_5,0,5,56,103,1538539804
16,19,Jits_Linear_5,1,5,63,98,1538542880
16,19,Jits_Linear_5,2,1,48,47,1538555140
16,19,Jits_Linear_5,3,5,80,127,1538560560
16,19,Jits_Linear_5,0,1,48,42,1539207668
16,19,Jits_Linear_5,1,5,63,98,1539309796
16,19,Jits_Linear_5,2,5,56,103,1539339624
16,19,Jits_Linear_5,3,5,80,127,1539370492
16,19,Jits_Linear_5,0,5,80,127,1540000052
16,19,Jits_Linear_5,1,1,48,40,1540075316
16,19,Jits_Linear_5,2,5,56,103,1540090328
16,19,Jits_Linear_5,3,5,63,98,1540093324
16,19,Jits_Linear_5,0,5,56,103,1540730224
16,19,Jits_Linear_5,1,5,80,127,1540733144
16,19,Jits_Linear_5,2,5,63,98,1540810096
16,19,Jits_Linear_5,3,1,48,43,1540828732
16,19,Jits_Linear_5,0,5,80,127,1541460300
16,19,Jits_Linear_5,1,5,63,98,1541519744
16,19,Jits_Linear_5,2,1,48,46,1541535000
16,19,Jits_Linear_5,3,5,56,103,1541549564
16,19,Jits_Linear_5,0,5,63,98,1542189660
16,19,Jits_Linear_5,1,5,80,127,1542199632
16,19,Jits_Linear_5,2,1,48,47,1542253576
16,19,Jits_Linear_5,3,5,56,103,1542270308
16,19,Jits_Linear_5,0,5,56,103,1542940128
16,19,Jits_Linear_5,1,1,48,49,1542962580
16,19,Jits_Linear_5,2,5,80,127,1542969724
16,19,Jits_Linear_5,3,5,63,98,1543020028
16,19,Jits_Linear_5,0,1,48,48,1543670808
16,19,Jits_Linear_5,1,5,63,98,1543720580
16,19,Jits_Linear_5,2,5,56,103,1543749956
16,19,Jits_Linear_5,3,5,80,127,1543753100
16,19,Jits_Linear_5,0,1,48,51,1544442028
16,19,Jits_Linear_5,1,5,63,98,1544459588
16,19,Jits_Linear_5,2,5,80,127,1544480120
16,19,Jits_Linear_5,3,5,56,103,1544490464
16,19,Jits_Linear_5,0,1,48,49,1545139680
16,19,Jits_Linear_5,1,5,56,103,1545210356
16,19,Jits_Linear_5,2,5,63,98,1545213348
16,19,Jits_Linear_5,3,5,80,127,1545229544
16,19,Jits_Linear_5,0,1,48,45,1545887064
16,19,Jits_Linear_5,1,5,56,103,1545909724
16,19,Jits_Linear_5,2,5,63,98,1545919772
16,19,Jits_Linear_5,3,5,80,127,1545949820
16,19,Jits_Linear_5,0,1,48,45,1546617600
16,19,Jits_Linear_5,1,5,63,98,1546679604
16,19,Jits_Linear_5,2,5,80,127,1546700288
16,19,Jits_Linear_5,3,5,56,103,1546739988
16,19,Jits_Linear_5,0,1,48,45,1547389072
16,19,Jits_Linear_5,1,5,56,103,1547459972
16,19,Jits_Linear_5,2,5,63,98,1547499820
16,19,Jits_Linear_5,3,5,80,127,1547503408
16,19,Jits_Linear_5,0,5,80,127,1548150204
16,19,Jits_Linear_5,1,5,56,103,1548189996
16,19,Jits_Linear_5,2,1,48,43,1548222860
16,19,Jits_Linear_5,3,5,63,98,1548240416
16,19,Jits_Linear_5,0,5,56,103,1548960108
16,19,Jits_Linear_5,1,5,80,127,1548970528
16,19,Jits_Linear_5,2,1,48,46,1548980020
16,19,Jits_Linear_5,3,5,63,98,1548999900
16,19,Jits_Linear_5,0,5,56,103,1549659624
16,19,Jits_Linear_5,1,1,48,47,1549692040
16,19,Jits_Linear_5,2,5,80,127,1549699632
16,19,Jits_Linear_5,3,5,63,98,1549749540
16,19,Jits_Linear_5,0,1,48,46,1550369296
16,19,Jits_Linear_5,1,5,56,103,1550420492
16,19,Jits_Linear_5,2,5,80,127,1550460664
16,19,Jits_Linear_5,3,5,63,98,1550509672
16,19,Jits_Linear_5,0,1,48,43,1551136684
16,19,Jits_Linear_5,1,5,80,127,1551169916
16,19,Jits_Linear_5,2,5,63,98,1551249804
16,19,Jits_Linear_5,3,5,56,103,1551259924
16,19,Jits_Linear_5,0,1,48,49,1551907916
16,19,Jits_Linear_5,1,5,80,127,1551979832
16,19,Jits_Linear_5,2,5,56,103,1551990252
16,19,Jits_Linear_5,3,5,63,98,1552009500
16,19,Jits_Linear_5,0,1,48,47,1552657116
16,19,Jits_Linear_5,1,5,63,98,1552710124
16,19,Jits_Linear_5,2,5,56,103,1552779744
16,19,Jits_Linear_5,3,5,80,127,1552782736
16,19,Jits_Linear_5,0,5,80,127,1553469888
16,19,Jits_Linear_5,1,1,48,50,1553492488
16,19,Jits_Linear_5,2,5,63,98,1553520112
16,19,Jits_Linear_5,3,5,56,103,1553559900
16,19,Jits_Linear_5,0,5,63,98,1554279740
16,19,Jits_Linear_5,1,1,48,48,1554283008
16,19,Jits_Linear_5,2,5,56,103,1554319824
16,19,Jits_Linear_5,3,5,80,127,1554329872
16,19,Jits_Linear_5,0,5,63,98,1555039732
16,19,Jits_Linear_5,1,5,56,103,1555059972
16,19,Jits_Linear_5,2,5,80,127,1555079684
16,19,Jits_Linear_5,3,1,48,49,1555098612
16,19,Jits_Linear_5,0,5,80,127,1555769584
16,19,Jits_Linear_5,1,5,56,103,1555780004
16,19,Jits_Linear_5,2,5,63,98,1555800536
16,19,Jits_Linear_5,3,1,48,40,1555869916
16,19,Jits_Linear_5,0,5,63,98,1556569368
16,19,Jits_Linear_5,1,5,56,103,1556610452
16,19,Jits_Linear_5,2,1,48,46,1556616036
16,19,Jits_Linear_5,3,5,80,127,1556640272
16,19,Jits_Linear_5,0,1,48,48,1557317324
16,19,Jits_Linear_5,1,5,56,103,1557349752
16,19,Jits_Linear_5,2,5,63,98,1557379356
16,19,Jits_Linear_5,3,5,80,127,1557410228
16,19,Jits_Linear_5,4,1,48,14,1557444644
16,19,Jits_Linear_5,0,5,80,127,1558100472
16,19,Jits_Linear_5,1,1,48,44,1558135384
16,19,Jits_Linear_5,2,5,56,103,1558170100
16,19,Jits_Linear_5,3,5,63,98,1558173244
16,19,Jits_Linear_5,0,5,56,103,1558900204
16,19,Jits_Linear_5,1,1,48,46,1558930600
16,19,Jits_Linear_5,2,5,63,98,1558950328
16,19,Jits_Linear_5,3,5,80,127,1558980152
16,19,Jits_Linear_5,0,5,63,98,1559660056
16,19,Jits_Linear_5,1,5,80,127,1559663272
16,19,Jits_Linear_5,2,1,48,50,1559685796
16,19,Jits_Linear_5,3,5,56,103,1559720440
16,19,Jits_Linear_5,0,1,48,50,1560391200
16,19,Jits_Linear_5,1,5,56,103,1560469776
16,19,Jits_Linear_5,2,5,80,127,1560480196
16,19,Jits_Linear_5,3,5,63,98,1560530308
16,19,Jits_Linear_5,0,1,48,47,1561222012
16,19,Jits_Linear_5,1,5,63,98,1561229612
16,19,Jits_Linear_5,2,5,56,103,1561239960
16,19,Jits_Linear_5,3,5,80,127,1561269560
16,19,Jits_Linear_5,0,1,48,48,1561982520
16,19,Jits_Linear_5,1,5,63,98,1562049980
16,19,Jits_Linear_5,2,5,80,127,1562053272
16,19,Jits_Linear_5,3,5,56,103,1562079568
16,19,Jits_Linear_5,0,1,48,51,1562755968
16,19,Jits_Linear_5,1,5,63,98,1562859840
16,19,Jits_Linear_5,2,5,56,103,1562880444
16,19,Jits_Linear_5,3,5,80,127,1562883512
16,19,Jits_Linear_5,0,1,48,45,1563570876
16,19,Jits_Linear_5,1,5,63,98,1563609416
16,19,Jits_Linear_5,2,5,56,103,1563680356
16,19,Jits_Linear_5,3,5,80,127,1563699544
16,19,Jits_Linear_5,0,5,56,103,1564389792
16,19,Jits_Linear_5,1,5,63,98,1564400284
16,19,Jits_Linear_5,2,1,48,44,1564410376
16,19,Jits_Linear_5,3,5,80,127,1564490188
16,19,Jits_Linear_5,0,5,56,103,1565199692
16,19,Jits_Linear_5,1,1,48,48,1565207600
16,19,Jits_Linear_5,2,5,80,127,1565239628
16,19,Jits_Linear_5,3,5,63,98,1565249824
16,19,Jits_Linear_5,0,5,56,103,1566020152
16,19,Jits_Linear_5,1,1,48,43,1566021044
16,19,Jits_Linear_5,2,5,63,98,1566049624
16,19,Jits_Linear_5,3,5,80,127,1566080496
16,19,Jits_Linear_5,0,5,80,127,1566779708
16,19,Jits_Linear_5,1,5,63,98,1566819676
16,19,Jits_Linear_5,2,1,48,50,1566837172
16,19,Jits_Linear_5,3,5,56,103,1566840276
16,19,Jits_Linear_5,0,1,48,47,1567617936
16,19,Jits_Linear_5,1,5,56,103,1567619368
16,19,Jits_Linear_5,2,5,80,127,1567640200
16,19,Jits_Linear_5,3,5,63,98,1567660436
16,19,Jits_Linear_5,0,5,63,98,1568389552
16,19,Jits_Linear_5,1,5,56,103,1568399676
16,19,Jits_Linear_5,2,1,48,46,1568413504
16,19,Jits_Linear_5,3,5,80,127,1568460356
16,19,Jits_Linear_5,0,1,48,51,1569173248
16,19,Jits_Linear_5,1,5,56,103,1569199428
16,19,Jits_Linear_5,2,5,63,98,1569270384
16,19,Jits_Linear_5,3,5,80,127,1569289488
16,19,Jits_Linear_5,0,1,48,43,1569964256
16,19,Jits_Linear_5,1,5,56,103,1570009392
16,19,Jits_Linear_5,2,5,63,98,1570040116
16,19,Jits_Linear_5,3,5,80,127,1570080412
16,19,Jits_Linear_5,0,1,48,48,1570756228
16,19,Jits_Linear_5,1,5,63,98,1570810284
16,19,Jits_Linear_5,2,5,56,103,1570860548
16,19,Jits_Linear_5,3,5,80,127,1570869552
16,19,Jits_Linear_5,0,1,48,46,1571547252
16,19,Jits_Linear_5,1,5,56,103,1571660240
16,19,Jits_Linear_5,2,5,63,98,1571710320
16,19,Jits_Linear_5,3,5,80,127,1571719468
16,19,Jits_Linear_5,0,1,48,44,1572395188
16,19,Jits_Linear_5,1,5,56,103,1572440400
16,19,Jits_Linear_5,2,5,63,98,1572449576
16,19,Jits_Linear_5,3,5,80,127,1572529508
16,19,Jits_Linear_5,0,9999,9999,9999,9999,1463638108
16,19,Jits_Linear_5,1,9999,9999,9999,9999,1464127560
16,19,Jits_Linear_5,2,9999,9999,9999,9999,1464607872
16,19,Jits_Linear_5,3,9999,9999,9999,9999,1465088092
16,19,Jits_Linear_5,4,9999,9999,9999,9999,1465577596
16,19,Jits_Linear_5,5,9999,9999,9999,9999,1466068088
16,19,Jits_Linear_5,6,9999,9999,9999,9999,1466557516
16,19,Jits_Linear_5,7,9999,9999,9999,9999,1467048004
16,19,Jits_Linear_5,8,9999,9999,9999,9999,1467537520
16,19,Jits_Linear_5,9,9999,9999,9999,9999,1468028008
16,19,Jits_Linear_5,10,9999,9999,9999,9999,1468527712
16,19,Jits_Linear_5,11,9999,9999,9999,9999,1469027412
16,19,Jits_Linear_5,12,9999,9999,9999,9999,1469527144
16,19,Jits_Linear_5,13,9999,9999,9999,9999,1470027872
16,19,Jits_Linear_5,14,9999,9999,9999,9999,1470527560
16,19,Jits_Linear_5,15,9999,9999,9999,9999,1471037528
16,19,Jits_Linear_5,16,9999,9999,9999,9999,1471547492
16,19,Jits_Linear_5,17,9999,9999,9999,9999,1472057444
16,19,Jits_Linear_5,18,9999,9999,9999,9999,1472567396
16,19,Jits_Linear_5,19,9999,9999,9999,9999,1473077352
16,19,Jits_Linear_5,20,9999,9999,9999,9999,1473597568
16,19,Jits_Linear_5,21,9999,9999,9999,9999,1474117708
16,19,Jits_Linear_5,22,9999,9999,9999,9999,1474637920
16,19,Jits_Linear_5,23,9999,9999,9999,9999,1475158076
16,19,Jits_Linear_5,24,9999,9999,9999,9999,1475687536
16,19,Jits_Linear_5,25,9999,9999,9999,9999,1476217944
16,19,Jits_Linear_5,26,9999,9999,9999,9999,1476747376
16,19,Jits_Linear_5,27,9999,9999,9999,9999,1477277772
16,19,Jits_Linear_5,28,9999,9999,9999,9999,1477807220
16,19,Jits_Linear_5,29,9999,9999,9999,9999,1478337636
16,19,Jits_Linear_5,30,9999,9999,9999,9999,1478877272
16,19,Jits_Linear_5,31,9999,9999,9999,9999,1479417940
16,19,Jits_Linear_5,32,9999,9999,9999,9999,1479957560
16,19,Jits_Linear_5,33,9999,9999,9999,9999,1480497252
16,19,Jits_Linear_5,34,9999,9999,9999,9999,1481037932
16,19,Jits_Linear_5,35,9999,9999,9999,9999,1481587784
16,19,Jits_Linear_5,36,9999,9999,9999,9999,1482137708
16,19,Jits_Linear_5,37,9999,9999,9999,9999,1482687592
16,19,Jits_Linear_5,38,9999,9999,9999,9999,1483237496
16,19,Jits_Linear_5,39,9999,9999,9999,9999,1483787384
16,19,Jits_Linear_5,40,9999,9999,9999,9999,1484347464
16,19,Jits_Linear_5,41,9999,9999,9999,9999,1484907648
16,19,Jits_Linear_5,42,9999,9999,9999,9999,1485467736
16,19,Jits_Linear_5,43,9999,9999,9999,9999,1486027880
16,19,Jits_Linear_5,44,9999,9999,9999,9999,1486588024
16,19,Jits_Linear_5,45,9999,9999,9999,9999,1487157324
16,19,Jits_Linear_5,46,9999,9999,9999,9999,1487727684
16,19,Jits_Linear_5,47,9999,9999,9999,9999,1488298104
16,19,Jits_Linear_5,48,9999,9999,9999,9999,1488867396
16,19,Jits_Linear_5,49,9999,9999,9999,9999,1489437752
16,19,Jits_Linear_5,50,9999,9999,9999,9999,1490017392
16,19,Jits_Linear_5,51,9999,9999,9999,9999,1490598008
16,19,Jits_Linear_5,52,9999,9999,9999,9999,1491177580
16,19,Jits_Linear_5,53,9999,9999,9999,9999,1491757152
16,19,Jits_Linear_5,54,9999,9999,9999,9999,1492337776
16,19,Jits_Linear_5,55,9999,9999,9999,9999,1492927608
16,19,Jits_Linear_5,56,9999,9999,9999,9999,1493517440
16,19,Jits_Linear_5,57,9999,9999,9999,9999,1494107192
16,19,Jits_Linear_5,58,9999,9999,9999,9999,1494698076
16,19,Jits_Linear_5,59,9999,9999,9999,9999,1495287884
16,19,Jits_Linear_5,60,9999,9999,9999,9999,1495887980
16,19,Jits_Linear_5,61,9999,9999,9999,9999,1496488056
16,19,Jits_Linear_5,62,9999,9999,9999,9999,1497088064
16,19,Jits_Linear_5,63,9999,9999,9999,9999,1497697384
16,19,Jits_Linear_5,64,9999,9999,9999,9999,1498297468
16,19,Jits_Linear_5,65,9999,9999,9999,9999,1498907736
16,19,Jits_Linear_5,66,9999,9999,9999,9999,1499518036
16,19,Jits_Linear_5,67,9999,9999,9999,9999,1500127320
16,19,Jits_Linear_5,68,9999,9999,9999,9999,1500737592
16,19,Jits_Linear_5,69,9999,9999,9999,9999,1501347968
16,19,Jits_Linear_5,70,9999,9999,9999,9999,1501967440
16,19,Jits_Linear_5,71,9999,9999,9999,9999,1502588012
16,19,Jits_Linear_5,72,9999,9999,9999,9999,1503207516
16,19,Jits_Linear_5,73,9999,9999,9999,9999,1503828052
16,19,Jits_Linear_5,74,9999,9999,9999,9999,1504447564
16,19,Jits_Linear_5,75,9999,9999,9999,9999,1505077360
16,19,Jits_Linear_5,76,9999,9999,9999,9999,1505707076
16,19,Jits_Linear_5,77,9999,9999,9999,9999,1506337876
16,19,Jits_Linear_5,78,9999,9999,9999,9999,1506967668
16,19,Jits_Linear_5,79,9999,9999,9999,9999,1507597420
16,19,Jits_Linear_5,80,9999,9999,9999,9999,1508237388
16,19,Jits_Linear_5,81,9999,9999,9999,9999,1508877400
16,19,Jits_Linear_5,82,9999,9999,9999,9999,1509517436
16,19,Jits_Linear_5,83,9999,9999,9999,9999,1510157376
16,19,Jits_Linear_5,84,9999,9999,9999,9999,1510797440
16,19,Jits_Linear_5,85,9999,9999,9999,9999,1511447636
16,19,Jits_Linear_5,86,9999,9999,9999,9999,1512097864
16,19,Jits_Linear_5,87,9999,9999,9999,9999,1512747112
16,19,Jits_Linear_5,88,9999,9999,9999,9999,1513397336
16,19,Jits_Linear_5,89,9999,9999,9999,9999,1514047616
16,19,Jits_Linear_5,90,9999,9999,9999,9999,1514708032
16,19,Jits_Linear_5,91,9999,9999,9999,9999,1515367488
16,19,Jits_Linear_5,92,9999,9999,9999,9999,1516027956
16,19,Jits_Linear_5,93,9999,9999,9999,9999,1516687476
16,19,Jits_Linear_5,94,9999,9999,9999,9999,1517347944
16,19,Jits_Linear_5,95,9999,9999,9999,9999,1518017588
16,19,Jits_Linear_5,96,9999,9999,9999,9999,1518687352
16,19,Jits_Linear_5,97,9999,9999,9999,9999,1519358076
16,19,Jits_Linear_5,98,9999,9999,9999,9999,1520027712
16,19,Jits_Linear_5,99,9999,9999,9999,9999,1520697408
16,19,Jits_Linear_5,100,9999,9999,9999,9999,1521377380
16,19,Jits_Linear_5,101,9999,9999,9999,9999,1522057296
16,19,Jits_Linear_5,102,9999,9999,9999,9999,1522737244
16,19,Jits_Linear_5,103,9999,9999,9999,9999,1523417144
16,19,Jits_Linear_5,104,9999,9999,9999,9999,1524097116
16,19,Jits_Linear_5,105,9999,9999,9999,9999,1524787320
16,19,Jits_Linear_5,106,9999,9999,9999,9999,1525477480
16,19,Jits_Linear_5,107,9999,9999,9999,9999,1526167640
16,19,Jits_Linear_5,108,9999,9999,9999,9999,1526857844
16,19,Jits_Linear_5,109,9999,9999,9999,9999,1527548004
16,19,Jits_Linear_5,110,9999,9999,9999,9999,1528247396
16,19,Jits_Linear_5,111,9999,9999,9999,9999,1528947836
16,19,Jits_Linear_5,112,9999,9999,9999,9999,1529647184
16,19,Jits_Linear_5,113,9999,9999,9999,9999,1530347612
16,19,Jits_Linear_5,114,9999,9999,9999,9999,1531048032
16,19,Jits_Linear_5,115,9999,9999,9999,9999,1531757672
16,19,Jits_Linear_5,116,9999,9999,9999,9999,1532467288
16,19,Jits_Linear_5,117,9999,9999,9999,9999,1533177916
16,19,Jits_Linear_5,118,9999,9999,9999,9999,1533887576
16,19,Jits_Linear_5,119,9999,9999,9999,9999,1534597212
16,19,Jits_Linear_5,120,9999,9999,9999,9999,1535318136
16,19,Jits_Linear_5,121,9999,9999,9999,9999,1536047180
16,19,Jits_Linear_5,122,9999,9999,9999,9999,1536768076
16,19,Jits_Linear_5,123,9999,9999,9999,9999,1537497212
16,19,Jits_Linear_5,124,9999,9999,9999,9999,1538218080
16,19,Jits_Linear_5,125,9999,9999,9999,9999,1538947180
16,19,Jits_Linear_5,126,9999,9999,9999,9999,1539677288
16,19,Jits_Linear_5,127,9999,9999,9999,9999,1540407352
16,19,Jits_Linear_5,128,9999,9999,9999,9999,1541137520
16,19,Jits_Linear_5,129,9999,9999,9999,9999,1541867632
16,19,Jits_Linear_5,130,9999,9999,9999,9999,1542607996
16,19,Jits_Linear_5,131,9999,9999,9999,9999,1543347308
16,19,Jits_Linear_5,132,9999,9999,9999,9999,1544087676
16,19,Jits_Linear_5,133,9999,9999,9999,9999,1544827960
16,19,Jits_Linear_5,134,9999,9999,9999,9999,1545567336
16,19,Jits_Linear_5,135,9999,9999,9999,9999,1546317932
16,19,Jits_Linear_5,136,9999,9999,9999,9999,1547067508
16,19,Jits_Linear_5,137,9999,9999,9999,9999,1547818052
16,19,Jits_Linear_5,138,9999,9999,9999,9999,1548567624
16,19,Jits_Linear_5,139,9999,9999,9999,9999,1549317220
16,19,Jits_Linear_5,140,9999,9999,9999,9999,1550078016
16,19,Jits_Linear_5,141,9999,9999,9999,9999,1550837868
16,19,Jits_Linear_5,142,9999,9999,9999,9999,1551597632
16,19,Jits_Linear_5,143,9999,9999,9999,9999,1552357472
16,19,Jits_Linear_5,144,9999,9999,9999,9999,1553117304
16,19,Jits_Linear_5,145,9999,9999,9999,9999,1553887332
16,19,Jits_Linear_5,146,9999,9999,9999,9999,1554657376
16,19,Jits_Linear_5,147,9999,9999,9999,9999,1555427408
16,19,Jits_Linear_5,148,9999,9999,9999,9999,1556197432
16,19,Jits_Linear_5,149,9999,9999,9999,9999,1556967480
16,19,Jits_Linear_5,150,9999,9999,9999,9999,1557747824
16,19,Jits_Linear_5,151,9999,9999,9999,9999,1558528096
16,19,Jits_Linear_5,152,9999,9999,9999,9999,1559317624
16,19,Jits_Linear_5,153,9999,9999,9999,9999,1560097912
16,19,Jits_Linear_5,154,9999,9999,9999,9999,1560877156
16,19,Jits_Linear_5,155,9999,9999,9999,9999,1561667708
16,19,Jits_Linear_5,156,9999,9999,9999,9999,1562457204
16,19,Jits_Linear_5,157,9999,9999,9999,9999,1563247696
16,19,Jits_Linear_5,158,9999,9999,9999,9999,1564037204
16,19,Jits_Linear_5,159,9999,9999,9999,9999,1564827760
16,19,Jits_Linear_5,160,9999,9999,9999,9999,1565627468
16,19,Jits_Linear_5,161,9999,9999,9999,9999,1566427260
16,19,Jits_Linear_5,162,9999,9999,9999,9999,1567228012
16,19,Jits_Linear_5,163,9999,9999,9999,9999,1568027724
16,19,Jits_Linear_5,164,9999,9999,9999,9999,1568827492
16,19,Jits_Linear_5,165,9999,9999,9999,9999,1569637480
16,19,Jits_Linear_5,166,9999,9999,9999,9999,1570447440
16,19,Jits_Linear_5,167,9999,9999,9999,9999,1571257400
16,19,Jits_Linear_5,168,9999,9999,9999,9999,1572067440
16,19,Jits_Linear_5,169,9999,9999,9999,9999,1572877404
17,18,Jits_Linear_8,0,5,56,103,1582504228
17,18,Jits_Linear_8,1,5,63,98,1582507332
17,18,Jits_Linear_8,2,5,80,127,1582510452
17,18,Jits_Linear_8,0,1,48,26,1583049076
17,18,Jits_Linear_8,1,5,56,103,1583323552
17,18,Jits_Linear_8,2,5,63,98,1583326572
17,18,Jits_Linear_8,3,5,80,127,1583329996
17,18,Jits_Linear_8,0,5,80,127,1584084288
17,18,Jits_Linear_8,1,5,63,98,1584173452
17,18,Jits_Linear_8,2,5,56,103,1584183796
17,18,Jits_Linear_8,3,1,48,23,1584332960
17,18,Jits_Linear_8,0,5,56,103,1584924140
17,18,Jits_Linear_8,1,5,63,98,1584934188
17,18,Jits_Linear_8,2,1,48,30,1584978584
17,18,Jits_Linear_8,3,5,80,127,1585024340
17,18,Jits_Linear_8,0,1,48,31,1585706416
17,18,Jits_Linear_8,1,5,63,98,1585713488
17,18,Jits_Linear_8,2,5,80,127,1585744212
17,18,Jits_Linear_8,3,5,56,103,1585774064
17,18,Jits_Linear_8,0,1,48,31,1586453652
17,18,Jits_Linear_8,1,5,56,103,1586533716
17,18,Jits_Linear_8,2,5,80,127,1586633952
17,18,Jits_Linear_8,3,5,63,98,1586684228
17,18,Jits_Linear_8,0,5,56,103,1587343892
17,18,Jits_Linear_8,1,5,80,127,1587393948
17,18,Jits_Linear_8,2,1,48,30,1587410320
17,18,Jits_Linear_8,3,5,63,98,1587433804
17,18,Jits_Linear_8,0,5,80,127,1588184416
17,18,Jits_Linear_8,1,5,63,98,1588214092
17,18,Jits_Linear_8,2,1,48,32,1588229116
17,18,Jits_Linear_8,3,5,56,103,1588283768
17,18,Jits_Linear_8,0,5,63,98,1589024048
17,18,Jits_Linear_8,1,5,56,103,1589053944
17,18,Jits_Linear_8,2,1,48,30,1589085860
17,18,Jits_Linear_8,3,5,80,127,1589114208
17,18,Jits_Linear_8,0,5,56,103,1589773828
17,18,Jits_Linear_8,1,5,80,127,1589776896
17,18,Jits_Linear_8,2,5,63,98,1589893504
17,18,Jits_Linear_8,3,1,48,31,1589918272
17,18,Jits_Linear_8,0,5,56,103,1590654452
17,18,Jits_Linear_8,1,1,48,27,1590685592
17,18,Jits_Linear_8,2,5,80,127,1590694160
17,18,Jits_Linear_8,3,5,63,98,1590703460
17,18,Jits_Linear_8,0,5,56,103,1591414068
17,18,Jits_Linear_8,1,5,80,127,1591433704
17,18,Jits_Linear_8,2,1,48,34,1591461240
17,18,Jits_Linear_8,3,5,63,98,1591513864
17,18,Jits_Linear_8,0,5,80,127,1592203872
17,18,Jits_Linear_8,1,1,48,34,1592231484
17,18,Jits_Linear_8,2,5,56,103,1592304192
17,18,Jits_Linear_8,3,5,63,98,1592314168
17,18,Jits_Linear_8,0,5,63,98,1592973828
17,18,Jits_Linear_8,1,5,80,127,1593034148
17,18,Jits_Linear_8,2,5,56,103,1593044268
17,18,Jits_Linear_8,3,1,48,28,1593048656
17,18,Jits_Linear_8,0,5,56,103,1593773284
17,18,Jits_Linear_8,1,1,48,35,1593800744
17,18,Jits_Linear_8,2,5,63,98,1593844156
17,18,Jits_Linear_8,3,5,80,127,1593847368
17,18,Jits_Linear_8,0,1,48,31,1594578916
17,18,Jits_Linear_8,1,5,63,98,1594603752
17,18,Jits_Linear_8,2,5,56,103,1594654176
17,18,Jits_Linear_8,3,5,80,127,1594657096
17,18,Jits_Linear_8,0,5,56,103,1595353672
17,18,Jits_Linear_8,1,5,80,127,1595356740
17,18,Jits_Linear_8,2,1,48,27,1595387960
17,18,Jits_Linear_8,3,5,63,98,1595443576
17,18,Jits_Linear_8,0,1,48,31,1596178116
17,18,Jits_Linear_8,1,5,63,98,1596183844
17,18,Jits_Linear_8,2,5,56,103,1596273916
17,18,Jits_Linear_8,3,5,80,127,1596303740
17,18,Jits_Linear_8,0,1,48,33,1596959144
17,18,Jits_Linear_8,1,5,56,103,1596964344
17,18,Jits_Linear_8,2,5,63,98,1597063632
17,18,Jits_Linear_8,3,5,80,127,1597094208
17,18,Jits_Linear_8,0,5,63,98,1597774376
17,18,Jits_Linear_8,1,5,56,103,1597784572
17,18,Jits_Linear_8,2,1,48,33,1597789288
17,18,Jits_Linear_8,3,5,80,127,1597873600
17,18,Jits_Linear_8,0,5,63,98,1598573860
17,18,Jits_Linear_8,1,1,48,30,1598580712
17,18,Jits_Linear_8,2,5,56,103,1598653948
17,18,Jits_Linear_8,3,5,80,127,1598657012
17,18,Jits_Linear_8,0,5,80,127,1599314248
17,18,Jits_Linear_8,1,5,63,98,1599333760
17,18,Jits_Linear_8,2,1,48,38,1599359648
17,18,Jits_Linear_8,3,5,56,103,1599394216
17,18,Jits_Linear_8,0,5,56,103,1600133672
17,18,Jits_Linear_8,1,1,48,34,1600134560
17,18,Jits_Linear_8,2,5,63,98,1600153900
17,18,Jits_Linear_8,3,5,80,127,1600157188
17,18,Jits_Linear_8,0,5,63,98,1600854508
17,18,Jits_Linear_8,1,1,48,32,1600877056
17,18,Jits_Linear_8,2,5,80,127,1600934248
17,18,Jits_Linear_8,3,5,56,103,1600943548
17,18,Jits_Linear_8,4,1,48,19,1600947252
17,18,Jits_Linear_8,0,5,63,98,1601654180
17,18,Jits_Linear_8,1,5,56,103,1601673672
17,18,Jits_Linear_8,2,5,80,127,1601723648
17,18,Jits_Linear_8,3,1,48,32,1601734860
17,18,Jits_Linear_8,0,5,80,127,1602434828
17,18,Jits_Linear_8,1,1,48,35,1602452340
17,18,Jits_Linear_8,2,5,63,98,1602474536
17,18,Jits_Linear_8,3,5,56,103,1602493800
17,18,Jits_Linear_8,0,5,56,103,1603244636
17,18,Jits_Linear_8,1,1,48,30,1603245600
17,18,Jits_Linear_8,2,5,63,98,1603253556
17,18,Jits_Linear_8,3,5,80,127,1603274088
17,18,Jits_Linear_8,0,5,56,103,1603943784
17,18,Jits_Linear_8,1,1,48,36,1603992388
17,18,Jits_Linear_8,2,5,63,98,1604033988
17,18,Jits_Linear_8,3,5,80,127,1604094288
17,18,Jits_Linear_8,0,5,80,127,1604743556
17,18,Jits_Linear_8,1,5,56,103,1604753752
17,18,Jits_Linear_8,2,1,48,36,1604780092
17,18,Jits_Linear_8,3,5,63,98,1604824844
17,18,Jits_Linear_8,0,5,63,98,1605544372
17,18,Jits_Linear_8,1,1,48,34,1605555512
17,18,Jits_Linear_8,2,5,80,127,1605634652
17,18,Jits_Linear_8,3,5,56,103,1605643652
17,18,Jits_Linear_8,0,5,63,98,1606243664
17,18,Jits_Linear_8,1,5,80,127,1606294016
17,18,Jits_Linear_8,2,1,48,38,1606334448
17,18,Jits_Linear_8,3,5,56,103,1606354476
17,18,Jits_Linear_8,0,5,56,103,1607034272
17,18,Jits_Linear_8,1,1,48,38,1607050872
17,18,Jits_Linear_8,2,5,80,127,1607084620
17,18,Jits_Linear_8,3,5,63,98,1607103808
17,18,Jits_Linear_8,0,5,56,103,1607764488
17,18,Jits_Linear_8,1,5,80,127,1607823712
17,18,Jits_Linear_8,2,1,48,38,1607828624
17,18,Jits_Linear_8,3,5,63,98,1607894580
17,18,Jits_Linear_8,0,5,56,103,1608524096
17,18,Jits_Linear_8,1,5,80,127,1608553796
17,18,Jits_Linear_8,2,5,63,98,1608583620
17,18,Jits_Linear_8,3,1,48,41,1608598724
17,18,Jits_Linear_8,0,5,56,103,1609324032
17,18,Jits_Linear_8,1,1,48,38,1609341452
17,18,Jits_Linear_8,2,5,80,127,1609344484
17,18,Jits_Linear_8,3,5,63,98,1609403756
17,18,Jits_Linear_8,0,1,48,32,1610086080
17,18,Jits_Linear_8,1,5,80,127,1610163728
17,18,Jits_Linear_8,2,5,56,103,1610174000
17,18,Jits_Linear_8,3,5,63,98,1610184108
17,18,Jits_Linear_8,0,5,56,103,1610874268
17,18,Jits_Linear_8,1,1,48,38,1610895292
17,18,Jits_Linear_8,2,5,80,127,1610914276
17,18,Jits_Linear_8,3,5,63,98,1610943876
17,18,Jits_Linear_8,0,5,56,103,1611594228
17,18,Jits_Linear_8,1,5,63,98,1611623780
17,18,Jits_Linear_8,2,5,80,127,1611663716
17,18,Jits_Linear_8,3,1,48,35,1611668476
17,18,Jits_Linear_8,0,5,80,127,1612293604
17,18,Jits_Linear_8,1,5,63,98,1612343660
17,18,Jits_Linear_8,2,5,56,103,1612364264
17,18,Jits_Linear_8,3,1,48,41,1612411600
17,18,Jits_Linear_8,0,5,56,103,1613073664
17,18,Jits_Linear_8,1,5,80,127,1613144544
17,18,Jits_Linear_8,2,1,48,41,1613148056
17,18,Jits_Linear_8,3,5,63,98,1613203756
17,18,Jits_Linear_8,0,5,80,127,1613814172
17,18,Jits_Linear_8,1,1,48,40,1613898804
17,18,Jits_Linear_8,2,5,63,98,1613904524
17,18,Jits_Linear_8,3,5,56,103,1613923588
17,18,Jits_Linear_8,0,5,63,98,1614573864
17,18,Jits_Linear_8,1,5,56,103,1614594472
17,18,Jits_Linear_8,2,5,80,127,1614634556
17,18,Jits_Linear_8,3,1,48,38,1614676928
17,18,Jits_Linear_8,0,5,80,127,1615274492
17,18,Jits_Linear_8,1,5,63,98,1615293756
17,18,Jits_Linear_8,2,1,48,38,1615363932
17,18,Jits_Linear_8,3,5,56,103,1615373548
17,18,Jits_Linear_8,0,5,63,98,1616003536
17,18,Jits_Linear_8,1,1,48,33,1616088092
17,18,Jits_Linear_8,2,5,56,103,1616114040
17,18,Jits_Linear_8,3,5,80,127,1616117108
17,18,Jits_Linear_8,0,5,63,98,1616764468
17,18,Jits_Linear_8,1,5,56,103,1616773544
17,18,Jits_Linear_8,2,5,80,127,1616776608
17,18,Jits_Linear_8,3,1,48,42,1616822064
17,18,Jits_Linear_8,0,5,56,103,1617484240
17,18,Jits_Linear_8,1,1,48,29,1617564860
17,18,Jits_Linear_8,2,5,80,127,1617603916
17,18,Jits_Linear_8,3,5,63,98,1617643928
17,18,Jits_Linear_8,0,5,56,103,1618233672
17,18,Jits_Linear_8,1,5,80,127,1618313644
17,18,Jits_Linear_8,2,1,48,41,1618327852
17,18,Jits_Linear_8,3,5,63,98,1618334244
17,18,Jits_Linear_8,0,5,56,103,1618963692
17,18,Jits_Linear_8,1,5,63,98,1619074376
17,18,Jits_Linear_8,2,5,80,127,1619077668
17,18,Jits_Linear_8,3,1,48,35,1619079384
17,18,Jits_Linear_8,0,5,56,103,1619723744
17,18,Jits_Linear_8,1,5,80,127,1619754396
17,18,Jits_Linear_8,2,5,63,98,1619773660
17,18,Jits_Linear_8,3,1,48,38,1619789360
17,18,Jits_Linear_8,0,5,63,98,1620434284
17,18,Jits_Linear_8,1,5,56,103,1620443436
17,18,Jits_Linear_8,2,5,80,127,1620453704
17,18,Jits_Linear_8,3,1,48,37,1620517500
17,18,Jits_Linear_8,0,5,80,127,1621143828
17,18,Jits_Linear_8,1,5,56,103,1621194180
17,18,Jits_Linear_8,2,1,48,37,1621200364
17,18,Jits_Linear_8,3,5,63,98,1621233964
17,18,Jits_Linear_8,0,5,80,127,1621884264
17,18,Jits_Linear_8,1,5,63,98,1621903824
17,18,Jits_Linear_8,2,1,48,31,1621938856
17,18,Jits_Linear_8,3,5,56,103,1621953872
17,18,Jits_Linear_8,0,5,80,127,1622614408
17,18,Jits_Linear_8,1,5,56,103,1622644332
17,18,Jits_Linear_8,2,1,48,33,1622650968
17,18,Jits_Linear_8,3,5,63,98,1622713784
17,18,Jits_Linear_8,0,5,56,103,1623384364
17,18,Jits_Linear_8,1,5,80,127,1623393760
17,18,Jits_Linear_8,2,1,48,24,1623413220
17,18,Jits_Linear_8,3,5,63,98,1623433692
17,18,Jits_Linear_8,0,5,56,103,1624014140
17,18,Jits_Linear_8,1,5,63,98,1624033628
17,18,Jits_Linear_8,2,5,80,127,1624104428
17,18,Jits_Linear_8,3,1,48,37,1624146060
17,18,Jits_Linear_8,0,5,63,98,1624753596
17,18,Jits_Linear_8,1,5,80,127,1624814064
17,18,Jits_Linear_8,2,5,56,103,1624834448
17,18,Jits_Linear_8,3,1,48,37,1624886184
17,18,Jits_Linear_8,0,5,80,127,1625454084
17,18,Jits_Linear_8,1,5,56,103,1625483612
17,18,Jits_Linear_8,2,5,63,98,1625514332
17,18,Jits_Linear_8,3,1,48,25,1625564124
17,18,Jits_Linear_8,0,5,56,103,1626163624
17,18,Jits_Linear_8,1,1,48,33,1626214424
17,18,Jits_Linear_8,2,5,63,98,1626224256
17,18,Jits_Linear_8,3,5,80,127,1626284352
17,18,Jits_Linear_8,0,5,80,127,1626893644
17,18,Jits_Linear_8,1,5,56,103,1626914328
17,18,Jits_Linear_8,2,1,48,37,1626925616
17,18,Jits_Linear_8,3,5,63,98,1626983728
17,18,Jits_Linear_8,0,5,80,127,1627604404
17,18,Jits_Linear_8,1,5,63,98,1627623892
17,18,Jits_Linear_8,2,1,48,31,1627624860
17,18,Jits_Linear_8,3,5,56,103,1627653412
17,18,Jits_Linear_8,0,5,80,127,1628293436
17,18,Jits_Linear_8,1,5,63,98,1628313972
17,18,Jits_Linear_8,2,1,48,40,1628349224
17,18,Jits_Linear_8,3,5,56,103,1628374356
17,18,Jits_Linear_8,0,5,80,127,1628993984
17,18,Jits_Linear_8,1,1,48,37,1629010356
17,18,Jits_Linear_8,2,5,56,103,1629094400
17,18,Jits_Linear_8,3,5,63,98,1629124064
17,18,Jits_Linear_8,0,5,63,98,1629684220
17,18,Jits_Linear_8,1,5,80,127,1629734276
17,18,Jits_Linear_8,2,5,56,103,1629753840
17,18,Jits_Linear_8,3,1,48,38,1629762960
17,18,Jits_Linear_8,0,1,48,42,1630414196
17,18,Jits_Linear_8,1,5,80,127,1630424408
17,18,Jits_Linear_8,2,5,56,103,1630454160
17,18,Jits_Linear_8,3,5,63,98,1630457228
17,18,Jits_Linear_8,0,1,48,43,1631107996
17,18,Jits_Linear_8,1,5,63,98,1631153436
17,18,Jits_Linear_8,2,5,56,103,1631193376
17,18,Jits_Linear_8,3,5,80,127,1631214116
17,18,Jits_Linear_8,0,5,80,127,1631793452
17,18,Jits_Linear_8,1,1,48,39,1631803544
17,18,Jits_Linear_8,2,5,63,98,1631874312
17,18,Jits_Linear_8,3,5,56,103,1631914236
17,18,Jits_Linear_8,0,5,63,98,1632504144
17,18,Jits_Linear_8,1,1,48,39,1632562416
17,18,Jits_Linear_8,2,5,80,127,1632584160
17,18,Jits_Linear_8,3,5,56,103,1632603448
17,18,Jits_Linear_8,0,5,56,103,1633234308
17,18,Jits_Linear_8,1,5,63,98,1633243456
17,18,Jits_Linear_8,2,5,80,127,1633283396
17,18,Jits_Linear_8,3,1,48,33,1633290100
17,18,Jits_Linear_8,0,5,56,103,1633843604
17,18,Jits_Linear_8,1,5,80,127,1633846600
17,18,Jits_Linear_8,2,1,48,36,1633967220
17,18,Jits_Linear_8,3,5,63,98,1633984100
17,18,Jits_Linear_8,0,5,56,103,1634523640
17,18,Jits_Linear_8,1,5,63,98,1634613704
17,18,Jits_Linear_8,2,1,48,43,1634635252
17,18,Jits_Linear_8,3,5,80,127,1634684224
17,18,Jits_Linear_8,0,5,63,98,1635284380
17,18,Jits_Linear_8,1,5,80,127,1635287820
17,18,Jits_Linear_8,2,1,48,43,1635289240
17,18,Jits_Linear_8,3,5,56,103,1635343868
17,18,Jits_Linear_8,0,1,48,42,1636004496
17,18,Jits_Linear_8,1,5,80,127,1636005912
17,18,Jits_Linear_8,2,5,56,103,1636023532
17,18,Jits_Linear_8,3,5,63,98,1636034024
17,18,Jits_Linear_8,0,5,56,103,1636594004
17,18,Jits_Linear_8,1,5,63,98,1636604128
17,18,Jits_Linear_8,2,5,80,127,1636674104
17,18,Jits_Linear_8,3,1,48,45,1636711028
17,18,Jits_Linear_8,0,5,80,127,1637273976
17,18,Jits_Linear_8,1,5,56,103,1637324180
17,18,Jits_Linear_8,2,1,48,39,1637360784
17,18,Jits_Linear_8,3,5,63,98,1637374300
17,18,Jits_Linear_8,0,5,56,103,1638033968
17,18,Jits_Linear_8,1,1,48,37,1638039032
17,18,Jits_Linear_8,2,5,63,98,1638044232
17,18,Jits_Linear_8,3,5,80,127,1638083872
17,18,Jits_Linear_8,0,5,56,103,1638654208
17,18,Jits_Linear_8,1,5,63,98,1638694152
17,18,Jits_Linear_8,2,1,48,43,1638739072
17,18,Jits_Linear_8,3,5,80,127,1638744420
17,18,Jits_Linear_8,0,5,80,127,1639284036
17,18,Jits_Linear_8,1,5,56,103,1639334240
17,18,Jits_Linear_8,2,5,63,98,1639353800
17,18,Jits_Linear_8,3,1,48,35,1639392440
17,18,Jits_Linear_8,0,5,80,127,1639963904
17,18,Jits_Linear_8,1,1,48,44,1640020064
17,18,Jits_Linear_8,2,5,63,98,1640024364
17,18,Jits_Linear_8,3,5,56,103,1640104160
17,18,Jits_Linear_8,0,5,80,127,1640614332
17,18,Jits_Linear_8,1,5,56,103,1640654272
17,18,Jits_Linear_8,2,5,63,98,1640673536
17,18,Jits_Linear_8,3,1,48,43,1640730960
17,18,Jits_Linear_8,0,5,56,103,1641334012
17,18,Jits_Linear_8,1,5,80,127,1641344356
17,18,Jits_Linear_8,2,5,63,98,1641384220
17,18,Jits_Linear_8,3,1,48,38,1641391988
17,18,Jits_Linear_8,0,1,48,40,1642032660
17,18,Jits_Linear_8,1,5,56,103,1642064224
17,18,Jits_Linear_8,2,5,63,98,1642104112
17,18,Jits_Linear_8,3,5,80,127,1642107328
17,18,Jits_Linear_8,0,5,63,98,1642614196
17,18,Jits_Linear_8,1,5,80,127,1642654060
17,18,Jits_Linear_8,2,5,56,103,1642723816
17,18,Jits_Linear_8,3,1,48,37,1642730224
17,18,Jits_Linear_8,0,5,63,98,1643264456
17,18,Jits_Linear_8,1,5,56,103,1643344176
17,18,Jits_Linear_8,2,5,80,127,1643403620
17,18,Jits_Linear_8,3,1,48,38,1643437156
17,18,Jits_Linear_8,0,5,80,127,1643934148
17,18,Jits_Linear_8,1,5,63,98,1643984128
17,18,Jits_Linear_8,2,5,56,103,1644013876
17,18,Jits_Linear_8,3,1,48,33,1644051144
17,18,Jits_Linear_8,0,5,56,103,1644584272
17,18,Jits_Linear_8,1,5,63,98,1644633452
17,18,Jits_Linear_8,2,5,80,127,1644644092
17,18,Jits_Linear_8,3,1,48,41,1644712696
17,18,Jits_Linear_8,0,5,56,103,1645254048
17,18,Jits_Linear_8,1,1,48,40,1645318600
17,18,Jits_Linear_8,2,5,63,98,1645363660
17,18,Jits_Linear_8,3,5,80,127,1645384044
17,18,Jits_Linear_8,0,5,63,98,1645904184
17,18,Jits_Linear_8,1,5,80,127,1645954484
17,18,Jits_Linear_8,2,1,48,43,1645980520
17,18,Jits_Linear_8,3,5,56,103,1646043488
17,18,Jits_Linear_8,4,1,48,19,1646071156
17,18,Jits_Linear_8,0,5,63,98,1646544104
17,18,Jits_Linear_8,1,5,80,127,1646573928
17,18,Jits_Linear_8,2,1,48,39,1646625224
17,18,Jits_Linear_8,3,5,56,103,1646663908
17,18,Jits_Linear_8,0,5,63,98,1647193716
17,18,Jits_Linear_8,1,5,56,103,1647203912
17,18,Jits_Linear_8,2,5,80,127,1647304084
17,18,Jits_Linear_8,3,1,48,38,1647332756
17,18,Jits_Linear_8,0,5,63,98,1647944000
17,18,Jits_Linear_8,1,1,48,36,1647974148
17,18,Jits_Linear_8,2,5,80,127,1647975412
17,18,Jits_Linear_8,3,5,56,103,1648003368
17,18,Jits_Linear_8,0,5,80,127,1648603664
17,18,Jits_Linear_8,1,5,63,98,1648613712
17,18,Jits_Linear_8,2,1,48,38,1648630012
17,18,Jits_Linear_8,3,5,56,103,1648643824
17,18,Jits_Linear_8,0,5,80,127,1649144040
17,18,Jits_Linear_8,1,5,63,98,1649163824
17,18,Jits_Linear_8,2,5,56,103,1649213800
17,18,Jits_Linear_8,3,1,48,34,1649304976
17,18,Jits_Linear_8,0,5,63,98,1649813968
17,18,Jits_Linear_8,1,5,80,127,1649874288
17,18,Jits_Linear_8,2,5,56,103,1649893924
17,18,Jits_Linear_8,3,1,48,33,1649946336
17,18,Jits_Linear_8,0,5,63,98,1650413888
17,18,Jits_Linear_8,1,5,56,103,1650464092
17,18,Jits_Linear_8,2,5,80,127,1650474288
17,18,Jits_Linear_8,3,1,48,42,1650623292
17,18,Jits_Linear_8,0,5,56,103,1651083880
17,18,Jits_Linear_8,1,5,80,127,1651093852
17,18,Jits_Linear_8,2,5,63,98,1651194100
17,18,Jits_Linear_8,3,1,48,37,1651213928
17,18,Jits_Linear_8,0,5,80,127,1651683736
17,18,Jits_Linear_8,1,5,63,98,1651694084
17,18,Jits_Linear_8,2,1,48,36,1651805188
17,18,Jits_Linear_8,3,5,56,103,1651843644
17,18,Jits_Linear_8,0,5,63,98,1652323928
17,18,Jits_Linear_8,1,5,80,127,1652363720
17,18,Jits_Linear_8,2,1,48,31,1652423108
17,18,Jits_Linear_8,3,5,56,103,1652443732
17,18,Jits_Linear_8,0,5,56,103,1652944224
17,18,Jits_Linear_8,1,5,80,127,1653043724
17,18,Jits_Linear_8,2,5,63,98,1653063960
17,18,Jits_Linear_8,3,1,48,37,1653097368
17,18,Jits_Linear_8,0,5,80,127,1653634604
17,18,Jits_Linear_8,1,5,56,103,1653643904
17,18,Jits_Linear_8,2,1,48,38,1653718716
17,18,Jits_Linear_8,3,5,63,98,1653733732
17,18,Jits_Linear_8,0,5,56,103,1654264140
17,18,Jits_Linear_8,1,5,63,98,1654283700
17,18,Jits_Linear_8,2,1,48,37,1654361324
17,18,Jits_Linear_8,3,5,80,127,1654363588
17,18,Jits_Linear_8,0,5,63,98,1654833732
17,18,Jits_Linear_8,1,5,56,103,1654923740
17,18,Jits_Linear_8,2,5,80,127,1654926660
17,18,Jits_Linear_8,3,1,48,34,1655023732
17,18,Jits_Linear_8,0,5,56,103,1655483788
17,18,Jits_Linear_8,1,5,80,127,1655544108
17,18,Jits_Linear_8,2,5,63,98,1655554376
17,18,Jits_Linear_8,3,1,48,33,1655670936
17,18,Jits_Linear_8,0,5,80,127,1656153428
17,18,Jits_Linear_8,1,5,56,103,1656163620
17,18,Jits_Linear_8,2,5,63,98,1656166836
17,18,Jits_Linear_8,3,1,48,35,1656327432
17,18,Jits_Linear_8,0,5,56,103,1656733948
17,18,Jits_Linear_8,1,5,80,127,1656744296
17,18,Jits_Linear_8,2,5,63,98,1656763708
17,18,Jits_Linear_8,3,1,48,37,1657005676
17,18,Jits_Linear_8,0,5,63,98,1657323916
17,18,Jits_Linear_8,1,5,80,127,1657384236
17,18,Jits_Linear_8,2,5,56,103,1657433416
17,18,Jits_Linear_8,3,1,48,30,1657650924
17,18,Jits_Linear_8,0,5,63,98,1658024408
17,18,Jits_Linear_8,1,5,56,103,1658033784
17,18,Jits_Linear_8,2,5,80,127,1658083684
17,18,Jits_Linear_8,0,1,48,33,1658386348
17,18,Jits_Linear_8,1,5,63,98,1658534212
17,18,Jits_Linear_8,2,5,80,127,1658553700
17,18,Jits_Linear_8,3,5,56,103,1658563968
17,18,Jits_Linear_8,0,5,63,98,1659143732
17,18,Jits_Linear_8,1,5,80,127,1659147020
17,18,Jits_Linear_8,2,1,48,32,1659171788
17,18,Jits_Linear_8,3,5,56,103,1659183588
17,18,Jits_Linear_8,0,1,48,33,1659790896
17,18,Jits_Linear_8,1,5,63,98,1659823672
17,18,Jits_Linear_8,2,5,80,127,1659854172
17,18,Jits_Linear_8,3,5,56,103,1659864668
17,18,Jits_Linear_8,0,5,56,103,1660383668
17,18,Jits_Linear_8,1,5,80,127,1660414316
17,18,Jits_Linear_8,2,5,63,98,1660443920
17,18,Jits_Linear_8,3,1,48,27,1660492664
17,18,Jits_Linear_8,0,5,63,98,1661084172
17,18,Jits_Linear_8,1,5,56,103,1661123960
17,18,Jits_Linear_8,2,5,80,127,1661127028
17,18,Jits_Linear_8,3,1,48,30,1661169476
17,18,Jits_Linear_8,0,5,80,127,1661583768
17,18,Jits_Linear_8,1,5,56,103,1661663716
17,18,Jits_Linear_8,2,5,63,98,1661713768
17,18,Jits_Linear_8,3,1,48,34,1661791464
17,18,Jits_Linear_8,0,5,80,127,1662164448
17,18,Jits_Linear_8,1,5,56,103,1662183712
17,18,Jits_Linear_8,2,5,63,98,1662273844
17,18,Jits_Linear_8,3,1,48,27,1662399168
17,18,Jits_Linear_8,0,5,80,127,1662804532
17,18,Jits_Linear_8,1,5,63,98,1662844352
17,18,Jits_Linear_8,2,5,56,103,1662884140
17,18,Jits_Linear_8,3,1,48,32,1662955584
17,18,Jits_Linear_8,0,5,63,98,1663373628
17,18,Jits_Linear_8,1,5,80,127,1663434096
17,18,Jits_Linear_8,2,5,56,103,1663463768
17,18,Jits_Linear_8,3,1,48,30,1663532968
17,18,Jits_Linear_8,0,5,56,103,1663973692
17,18,Jits_Linear_8,1,5,80,127,1664003520
17,18,Jits_Linear_8,2,5,63,98,1664093676
17,18,Jits_Linear_8,3,1,48,31,1664142124
17,18,Jits_Linear_8,0,5,56,103,1664573780
17,18,Jits_Linear_8,1,5,80,127,1664684616
17,18,Jits_Linear_8,2,1,48,21,1664698376
17,18,Jits_Linear_8,3,5,63,98,1664714208
17,18,Jits_Linear_8,0,5,56,103,1665213828
17,18,Jits_Linear_8,1,1,48,31,1665249460
17,18,Jits_Linear_8,2,5,63,98,1665274436
17,18,Jits_Linear_8,3,5,80,127,1665303964
17,18,Jits_Linear_8,0,5,56,103,1665773908
17,18,Jits_Linear_8,1,1,48,33,1665837264
17,18,Jits_Linear_8,2,5,63,98,1665843660
17,18,Jits_Linear_8,3,5,80,127,1665864196
17,18,Jits_Linear_8,0,5,80,127,1666334060
17,18,Jits_Linear_8,1,5,63,98,1666353696
17,18,Jits_Linear_8,2,1,48,28,1666386632
17,18,Jits_Linear_8,3,5,56,103,1666403844
17,18,Jits_Linear_8,0,5,63,98,1666934244
17,18,Jits_Linear_8,1,1,48,29,1666942548
17,18,Jits_Linear_8,2,5,80,127,1666944584
17,18,Jits_Linear_8,3,5,56,103,1666993588
17,18,Jits_Linear_8,0,5,63,98,1667513708
17,18,Jits_Linear_8,1,1,48,32,1667525296
17,18,Jits_Linear_8,2,5,80,127,1667584508
17,18,Jits_Linear_8,3,5,56,103,1667603772
17,18,Jits_Linear_8,0,5,63,98,1668123968
17,18,Jits_Linear_8,1,5,80,127,1668127404
17,18,Jits_Linear_8,2,1,48,34,1668139220
17,18,Jits_Linear_8,3,5,56,103,1668193588
17,18,Jits_Linear_8,0,5,80,127,1668653668
17,18,Jits_Linear_8,1,5,56,103,1668673828
17,18,Jits_Linear_8,2,5,63,98,1668684100
17,18,Jits_Linear_8,3,1,48,30,1668733172
17,18,Jits_Linear_8,0,5,56,103,1669253548
17,18,Jits_Linear_8,1,1,48,32,1669283568
17,18,Jits_Linear_8,2,5,63,98,1669343528
17,18,Jits_Linear_8,3,5,80,127,1669346892
17,18,Jits_Linear_8,0,5,80,127,1669804548
17,18,Jits_Linear_8,1,5,56,103,1669813548
17,18,Jits_Linear_8,2,5,63,98,1669834228
17,18,Jits_Linear_8,3,1,48,26,1669870680
17,18,Jits_Linear_8,0,5,63,98,1670373684
17,18,Jits_Linear_8,1,1,48,28,1670389836
17,18,Jits_Linear_8,2,5,80,127,1670434368
17,18,Jits_Linear_8,3,5,56,103,1670444636
17,18,Jits_Linear_8,0,1,48,30,1671013112
17,18,Jits_Linear_8,1,5,63,98,1671014676
17,18,Jits_Linear_8,2,5,80,127,1671043528
17,18,Jits_Linear_8,3,5,56,103,1671084364
17,18,Jits_Linear_8,0,1,48,27,1671521980
17,18,Jits_Linear_8,1,5,56,103,1671573848
17,18,Jits_Linear_8,2,5,80,127,1671584044
17,18,Jits_Linear_8,3,5,63,98,1671624044
17,18,Jits_Linear_8,0,5,80,127,1672104396
17,18,Jits_Linear_8,1,1,48,26,1672176516
17,18,Jits_Linear_8,2,5,56,103,1672184040
17,18,Jits_Linear_8,3,5,63,98,1672194680
17,18,Jits_Linear_8,0,5,80,127,1672713476
17,18,Jits_Linear_8,1,1,48,32,1672751592
17,18,Jits_Linear_8,2,5,56,103,1672793440
17,18,Jits_Linear_8,3,5,63,98,1672803564
17,18,Jits_Linear_8,0,5,80,127,1673233700
17,18,Jits_Linear_8,1,5,56,103,1673283980
17,18,Jits_Linear_8,2,5,63,98,1673334204
17,18,Jits_Linear_8,3,1,48,43,1673368184
17,18,Jits_Linear_8,0,5,56,103,1673854412
17,18,Jits_Linear_8,1,5,63,98,1673857480
17,18,Jits_Linear_8,2,1,48,40,1673900304
17,18,Jits_Linear_8,3,5,80,127,1673903560
17,18,Jits_Linear_8,0,1,48,41,1674411392
17,18,Jits_Linear_8,1,5,56,103,1674433888
17,18,Jits_Linear_8,2,5,63,98,1674463712
17,18,Jits_Linear_8,3,5,80,127,1674473832
17,18,Jits_Linear_8,0,5,63,98,1674903908
17,18,Jits_Linear_8,1,1,48,35,1674939088
17,18,Jits_Linear_8,2,5,56,103,1674973512
17,18,Jits_Linear_8,3,5,80,127,1675023712
17,18,Jits_Linear_8,0,1,48,42,1675477420
17,18,Jits_Linear_8,1,5,63,98,1675493712
17,18,Jits_Linear_8,2,5,56,103,1675504056
17,18,Jits_Linear_8,3,5,80,127,1675507420
17,18,Jits_Linear_8,0,1,48,39,1675977684
17,18,Jits_Linear_8,1,5,80,127,1675993452
17,18,Jits_Linear_8,2,5,56,103,1676053920
17,18,Jits_Linear_8,3,5,63,98,1676143988
17,18,Jits_Linear_8,0,1,48,40,1676541712
17,18,Jits_Linear_8,1,5,80,127,1676544300
17,18,Jits_Linear_8,2,5,56,103,1676643664
17,18,Jits_Linear_8,3,5,63,98,1676683600
17,18,Jits_Linear_8,0,5,56,103,1677144484
17,18,Jits_Linear_8,1,1,48,32,1677163968
17,18,Jits_Linear_8,2,5,63,98,1677165308
17,18,Jits_Linear_8,3,5,80,127,1677203676
17,18,Jits_Linear_8,0,5,63,98,1677663580
17,18,Jits_Linear_8,1,5,56,103,1677684188
17,18,Jits_Linear_8,2,1,48,38,1677705888
17,18,Jits_Linear_8,3,5,80,127,1677784428
17,18,Jits_Linear_8,0,5,63,98,1678194348
17,18,Jits_Linear_8,1,1,48,35,1678212388
17,18,Jits_Linear_8,2,5,80,127,1678303512
17,18,Jits_Linear_8,3,5,56,103,1678334440
17,18,Jits_Linear_8,0,1,48,35,1678752600
17,18,Jits_Linear_8,1,5,56,103,1678754332
17,18,Jits_Linear_8,2,5,63,98,1678783712
17,18,Jits_Linear_8,3,5,80,127,1678834284
17,18,Jits_Linear_8,0,5,63,98,1679264496
17,18,Jits_Linear_8,1,1,48,35,1679288968
17,18,Jits_Linear_8,2,5,56,103,1679293796
17,18,Jits_Linear_8,3,5,80,127,1679343848
17,18,Jits_Linear_8,0,1,48,39,1679791564
17,18,Jits_Linear_8,1,5,56,103,1679833468
17,18,Jits_Linear_8,2,5,63,98,1679853852
17,18,Jits_Linear_8,3,5,80,127,1679933856
17,18,Jits_Linear_8,0,1,48,40,1680325772
17,18,Jits_Linear_8,1,5,63,98,1680344524
17,18,Jits_Linear_8,2,5,56,103,1680403724
17,18,Jits_Linear_8,3,5,80,127,1680433460
17,18,Jits_Linear_8,0,1,48,39,1680894968
17,18,Jits_Linear_8,1,5,56,103,1680924216
17,18,Jits_Linear_8,2,5,80,127,1680984408
17,18,Jits_Linear_8,3,5,63,98,1681024332
17,18,Jits_Linear_8,0,5,63,98,1681434164
17,18,Jits_Linear_8,1,5,56,103,1681494724
17,18,Jits_Linear_8,2,1,48,42,1681502504
17,18,Jits_Linear_8,3,5,80,127,1681563952
17,18,Jits_Linear_8,0,1,48,35,1682032736
17,18,Jits_Linear_8,1,5,56,103,1682044216
17,18,Jits_Linear_8,2,5,63,98,1682053440
17,18,Jits_Linear_8,3,5,80,127,1682056728
17,18,Jits_Linear_8,0,5,63,98,1682514344
17,18,Jits_Linear_8,1,1,48,45,1682558172
17,18,Jits_Linear_8,2,5,56,103,1682573708
17,18,Jits_Linear_8,3,5,80,127,1682576924
17,18,Jits_Linear_8,0,5,63,98,1683024348
17,18,Jits_Linear_8,1,1,48,46,1683053604
17,18,Jits_Linear_8,2,5,80,127,1683055092
17,18,Jits_Linear_8,3,5,56,103,1683074356
17,18,Jits_Linear_8,0,5,56,103,1683553940
17,18,Jits_Linear_8,1,1,48,48,1683558180
17,18,Jits_Linear_8,2,5,63,98,1683603912
17,18,Jits_Linear_8,3,5,80,127,1683683620
17,18,Jits_Linear_8,0,5,80,127,1684054680
17,18,Jits_Linear_8,1,1,48,40,1684068368
17,18,Jits_Linear_8,2,5,63,98,1684094316
17,18,Jits_Linear_8,3,5,56,103,1684113876
17,18,Jits_Linear_8,0,1,48,42,1684554460
17,18,Jits_Linear_8,1,5,56,103,1684644268
17,18,Jits_Linear_8,2,5,80,127,1684653332
17,18,Jits_Linear_8,3,5,63,98,1684674012
17,18,Jits_Linear_8,0,1,48,37,1685133660
17,18,Jits_Linear_8,1,5,56,103,1685144168
17,18,Jits_Linear_8,2,5,63,98,1685194076
17,18,Jits_Linear_8,3,5,80,127,1685223752
17,18,Jits_Linear_8,0,5,56,103,1685614036
17,18,Jits_Linear_8,1,5,63,98,1685624160
17,18,Jits_Linear_8,2,5,80,127,1685674436
17,18,Jits_Linear_8,3,1,48,38,1685704980
17,18,Jits_Linear_8,0,5,56,103,1686123984
17,18,Jits_Linear_8,1,5,80,127,1686126976
17,18,Jits_Linear_8,2,1,48,42,1686196480
17,18,Jits_Linear_8,3,5,63,98,1686283560
17,18,Jits_Linear_8,0,5,63,98,1686654308
17,18,Jits_Linear_8,1,5,56,103,1686724216
17,18,Jits_Linear_8,2,1,48,38,1686751152
17,18,Jits_Linear_8,3,5,80,127,1686764076
17,18,Jits_Linear_8,0,5,63,98,1687204260
17,18,Jits_Linear_8,1,1,48,46,1687229776
17,18,Jits_Linear_8,2,5,56,103,1687294316
17,18,Jits_Linear_8,3,5,80,127,1687297532
17,18,Jits_Linear_8,0,5,56,103,1687693820
17,18,Jits_Linear_8,1,1,48,46,1687741208
17,18,Jits_Linear_8,2,5,63,98,1687783876
17,18,Jits_Linear_8,3,5,80,127,1687794148
17,18,Jits_Linear_8,0,5,56,103,1688174108
17,18,Jits_Linear_8,1,5,63,98,1688224312
17,18,Jits_Linear_8,2,1,48,42,1688247888
17,18,Jits_Linear_8,3,5,80,127,1688253764
17,18,Jits_Linear_8,0,1,48,46,1688725244
17,18,Jits_Linear_8,1,5,63,98,1688753668
17,18,Jits_Linear_8,2,5,80,127,1688763788
17,18,Jits_Linear_8,3,5,56,103,1688824164
17,18,Jits_Linear_8,0,5,63,98,1689174384
17,18,Jits_Linear_8,1,5,80,127,1689233880
17,18,Jits_Linear_8,2,1,48,46,1689258496
17,18,Jits_Linear_8,3,5,56,103,1689273664
17,18,Jits_Linear_8,0,5,56,103,1689773412
17,18,Jits_Linear_8,1,5,80,127,1689794172
17,18,Jits_Linear_8,2,1,48,42,1689798336
17,18,Jits_Linear_8,3,5,63,98,1689814400
17,18,Jits_Linear_8,0,5,63,98,1690194264
17,18,Jits_Linear_8,1,5,56,103,1690213704
17,18,Jits_Linear_8,2,5,80,127,1690253640
17,18,Jits_Linear_8,3,1,48,45,1690292428
17,18,Jits_Linear_8,0,5,63,98,1690704276
17,18,Jits_Linear_8,1,5,80,127,1690734052
17,18,Jits_Linear_8,2,1,48,45,1690745712
17,18,Jits_Linear_8,3,5,56,103,1690754360
17,18,Jits_Linear_8,0,5,80,127,1691174284
17,18,Jits_Linear_8,1,5,56,103,1691224360
17,18,Jits_Linear_8,2,1,48,44,1691238568
17,18,Jits_Linear_8,3,5,63,98,1691284072
17,18,Jits_Linear_8,0,5,63,98,1691653448
17,18,Jits_Linear_8,1,1,48,39,1691703548
17,18,Jits_Linear_8,2,5,56,103,1691774392
17,18,Jits_Linear_8,3,5,80,127,1691803980
17,18,Jits_Linear_8,0,5,80,127,1692184064
17,18,Jits_Linear_8,1,5,63,98,1692204376
17,18,Jits_Linear_8,2,1,48,39,1692208172
17,18,Jits_Linear_8,3,5,56,103,1692274148
17,18,Jits_Linear_8,0,5,63,98,1692694096
17,18,Jits_Linear_8,1,5,56,103,1692704068
17,18,Jits_Linear_8,2,1,48,36,1692712884
17,18,Jits_Linear_8,3,5,80,127,1692784256
17,18,Jits_Linear_8,0,1,48,42,1693186696
17,18,Jits_Linear_8,1,5,56,103,1693243744
17,18,Jits_Linear_8,2,5,80,127,1693273520
17,18,Jits_Linear_8,3,5,63,98,1693284016
17,18,Jits_Linear_8,0,9999,9999,9999,9999,1582911544
17,18,Jits_Linear_8,1,9999,9999,9999,9999,1583731784
17,18,Jits_Linear_8,2,9999,9999,9999,9999,1584551992
17,18,Jits_Linear_8,3,9999,9999,9999,9999,1585371244
17,18,Jits_Linear_8,4,9999,9999,9999,9999,1586191460
17,18,Jits_Linear_8,5,9999,9999,9999,9999,1587001408
17,18,Jits_Linear_8,6,9999,9999,9999,9999,1587811448
17,18,Jits_Linear_8,7,9999,9999,9999,9999,1588621404
17,18,Jits_Linear_8,8,9999,9999,9999,9999,1589431368
17,18,Jits_Linear_8,9,9999,9999,9999,9999,1590241372
17,18,Jits_Linear_8,10,9999,9999,9999,9999,1591041148
17,18,Jits_Linear_8,11,9999,9999,9999,9999,1591841892
17,18,Jits_Linear_8,12,9999,9999,9999,9999,1592641664
17,18,Jits_Linear_8,13,9999,9999,9999,9999,1593441380
17,18,Jits_Linear_8,14,9999,9999,9999,9999,1594241124
17,18,Jits_Linear_8,15,9999,9999,9999,9999,1595031668
17,18,Jits_Linear_8,16,9999,9999,9999,9999,1595821144
17,18,Jits_Linear_8,17,9999,9999,9999,9999,1596611700
17,18,Jits_Linear_8,18,9999,9999,9999,9999,1597401196
17,18,Jits_Linear_8,19,9999,9999,9999,9999,1598191736
17,18,Jits_Linear_8,20,9999,9999,9999,9999,1598972008
17,18,Jits_Linear_8,21,9999,9999,9999,9999,1599751236
17,18,Jits_Linear_8,22,9999,9999,9999,9999,1600531516
17,18,Jits_Linear_8,23,9999,9999,9999,9999,1601311852
17,18,Jits_Linear_8,24,9999,9999,9999,9999,1602091072
17,18,Jits_Linear_8,25,9999,9999,9999,9999,1602861156
17,18,Jits_Linear_8,26,9999,9999,9999,9999,1603631180
17,18,Jits_Linear_8,27,9999,9999,9999,9999,1604401280
17,18,Jits_Linear_8,28,9999,9999,9999,9999,1605171304
17,18,Jits_Linear_8,29,9999,9999,9999,9999,1605941336
17,18,Jits_Linear_8,30,9999,9999,9999,9999,1606701156
17,18,Jits_Linear_8,31,9999,9999,9999,9999,1607461944
17,18,Jits_Linear_8,32,9999,9999,9999,9999,1608221780
17,18,Jits_Linear_8,33,9999,9999,9999,9999,1608981604
17,18,Jits_Linear_8,34,9999,9999,9999,9999,1609741368
17,18,Jits_Linear_8,35,9999,9999,9999,9999,1610491996
17,18,Jits_Linear_8,36,9999,9999,9999,9999,1611241560
17,18,Jits_Linear_8,37,9999,9999,9999,9999,1611991136
17,18,Jits_Linear_8,38,9999,9999,9999,9999,1612741752
17,18,Jits_Linear_8,39,9999,9999,9999,9999,1613491324
17,18,Jits_Linear_8,40,9999,9999,9999,9999,1614231608
17,18,Jits_Linear_8,41,9999,9999,9999,9999,1614971968
17,18,Jits_Linear_8,42,9999,9999,9999,9999,1615711332
17,18,Jits_Linear_8,43,9999,9999,9999,9999,1616451656
17,18,Jits_Linear_8,44,9999,9999,9999,9999,1617192052
17,18,Jits_Linear_8,45,9999,9999,9999,9999,1617921088
17,18,Jits_Linear_8,46,9999,9999,9999,9999,1618651256
17,18,Jits_Linear_8,47,9999,9999,9999,9999,1619381344
17,18,Jits_Linear_8,48,9999,9999,9999,9999,1620111440
17,18,Jits_Linear_8,49,9999,9999,9999,9999,1620841600
17,18,Jits_Linear_8,50,9999,9999,9999,9999,1621561464
17,18,Jits_Linear_8,51,9999,9999,9999,9999,1622281296
17,18,Jits_Linear_8,52,9999,9999,9999,9999,1623001204
17,18,Jits_Linear_8,53,9999,9999,9999,9999,1623722088
17,18,Jits_Linear_8,54,9999,9999,9999,9999,1624441912
17,18,Jits_Linear_8,55,9999,9999,9999,9999,1625151604
17,18,Jits_Linear_8,56,9999,9999,9999,9999,1625861228
17,18,Jits_Linear_8,57,9999,9999,9999,9999,1626571844
17,18,Jits_Linear_8,58,9999,9999,9999,9999,1627281488
17,18,Jits_Linear_8,59,9999,9999,9999,9999,1627991100
17,18,Jits_Linear_8,60,9999,9999,9999,9999,1628691516
17,18,Jits_Linear_8,61,9999,9999,9999,9999,1629391948
17,18,Jits_Linear_8,62,9999,9999,9999,9999,1630091320
17,18,Jits_Linear_8,63,9999,9999,9999,9999,1630791772
17,18,Jits_Linear_8,64,9999,9999,9999,9999,1631491144
17,18,Jits_Linear_8,65,9999,9999,9999,9999,1632181368
17,18,Jits_Linear_8,66,9999,9999,9999,9999,1632871540
17,18,Jits_Linear_8,67,9999,9999,9999,9999,1633561668
17,18,Jits_Linear_8,68,9999,9999,9999,9999,1634251892
17,18,Jits_Linear_8,69,9999,9999,9999,9999,1634942056
17,18,Jits_Linear_8,70,9999,9999,9999,9999,1635621996
17,18,Jits_Linear_8,71,9999,9999,9999,9999,1636301896
17,18,Jits_Linear_8,72,9999,9999,9999,9999,1636981848
17,18,Jits_Linear_8,73,9999,9999,9999,9999,1637661796
17,18,Jits_Linear_8,74,9999,9999,9999,9999,1638341700
17,18,Jits_Linear_8,75,9999,9999,9999,9999,1639011392
17,18,Jits_Linear_8,76,9999,9999,9999,9999,1639681148
17,18,Jits_Linear_8,77,9999,9999,9999,9999,1640351804
17,18,Jits_Linear_8,78,9999,9999,9999,9999,1641021552
17,18,Jits_Linear_8,79,9999,9999,9999,9999,1641691260
17,18,Jits_Linear_8,80,9999,9999,9999,9999,1642351680
17,18,Jits_Linear_8,81,9999,9999,9999,9999,1643011156
17,18,Jits_Linear_8,82,9999,9999,9999,9999,1643671632
17,18,Jits_Linear_8,83,9999,9999,9999,9999,1644331108
17,18,Jits_Linear_8,84,9999,9999,9999,9999,1644991592
17,18,Jits_Linear_8,85,9999,9999,9999,9999,1645641800
17,18,Jits_Linear_8,86,9999,9999,9999,9999,1646292080
17,18,Jits_Linear_8,87,9999,9999,9999,9999,1646941240
17,18,Jits_Linear_8,88,9999,9999,9999,9999,1647591500
17,18,Jits_Linear_8,89,9999,9999,9999,9999,1648241720
17,18,Jits_Linear_8,90,9999,9999,9999,9999,1648881732
17,18,Jits_Linear_8,91,9999,9999,9999,9999,1649521768
17,18,Jits_Linear_8,92,9999,9999,9999,9999,1650161784
17,18,Jits_Linear_8,93,9999,9999,9999,9999,1650801732
17,18,Jits_Linear_8,94,9999,9999,9999,9999,1651441732
17,18,Jits_Linear_8,95,9999,9999,9999,9999,1652071508
17,18,Jits_Linear_8,96,9999,9999,9999,9999,1652701260
17,18,Jits_Linear_8,97,9999,9999,9999,9999,1653332048
17,18,Jits_Linear_8,98,9999,9999,9999,9999,1653961820
17,18,Jits_Linear_8,99,9999,9999,9999,9999,1654591576
17,18,Jits_Linear_8,100,9999,9999,9999,9999,1655211080
17,18,Jits_Linear_8,101,9999,9999,9999,9999,1655831676
17,18,Jits_Linear_8,102,9999,9999,9999,9999,1656451188
17,18,Jits_Linear_8,103,9999,9999,9999,9999,1657071736
17,18,Jits_Linear_8,104,9999,9999,9999,9999,1657691252
17,18,Jits_Linear_8,105,9999,9999,9999,9999,1658301528
17,18,Jits_Linear_8,106,9999,9999,9999,9999,1658911860
17,18,Jits_Linear_8,107,9999,9999,9999,9999,1659521080
17,18,Jits_Linear_8,108,9999,9999,9999,9999,1660131416
17,18,Jits_Linear_8,109,9999,9999,9999,9999,1660741744
17,18,Jits_Linear_8,110,9999,9999,9999,9999,1661341780
17,18,Jits_Linear_8,111,9999,9999,9999,9999,1661941852
17,18,Jits_Linear_8,112,9999,9999,9999,9999,1662541932
17,18,Jits_Linear_8,113,9999,9999,9999,9999,1663141960
17,18,Jits_Linear_8,114,9999,9999,9999,9999,1663742044
17,18,Jits_Linear_8,115,9999,9999,9999,9999,1664331848
17,18,Jits_Linear_8,116,9999,9999,9999,9999,1664921700
17,18,Jits_Linear_8,117,9999,9999,9999,9999,1665511528
17,18,Jits_Linear_8,118,9999,9999,9999,9999,1666101348
17,18,Jits_Linear_8,119,9999,9999,9999,9999,1666691188
17,18,Jits_Linear_8,120,9999,9999,9999,9999,1667271796
17,18,Jits_Linear_8,121,9999,9999,9999,9999,1667851336
17,18,Jits_Linear_8,122,9999,9999,9999,9999,1668431992
17,18,Jits_Linear_8,123,9999,9999,9999,9999,1669011544
17,18,Jits_Linear_8,124,9999,9999,9999,9999,1669591168
17,18,Jits_Linear_8,125,9999,9999,9999,9999,1670161500
17,18,Jits_Linear_8,126,9999,9999,9999,9999,1670731836
17,18,Jits_Linear_8,127,9999,9999,9999,9999,1671301220
17,18,Jits_Linear_8,128,9999,9999,9999,9999,1671871552
17,18,Jits_Linear_8,129,9999,9999,9999,9999,1672441952
17,18,Jits_Linear_8,130,9999,9999,9999,9999,1673002108
17,18,Jits_Linear_8,131,9999,9999,9999,9999,1673561164
17,18,Jits_Linear_8,132,9999,9999,9999,9999,1674121312
17,18,Jits_Linear_8,133,9999,9999,9999,9999,1674681472
17,18,Jits_Linear_8,134,9999,9999,9999,9999,1675241536
17,18,Jits_Linear_8,135,9999,9999,9999,9999,1675791480
17,18,Jits_Linear_8,136,9999,9999,9999,9999,1676341352
17,18,Jits_Linear_8,137,9999,9999,9999,9999,1676891252
17,18,Jits_Linear_8,138,9999,9999,9999,9999,1677441132
17,18,Jits_Linear_8,139,9999,9999,9999,9999,1677991992
17,18,Jits_Linear_8,140,9999,9999,9999,9999,1678531684
17,18,Jits_Linear_8,141,9999,9999,9999,9999,1679071292
17,18,Jits_Linear_8,142,9999,9999,9999,9999,1679612016
17,18,Jits_Linear_8,143,9999,9999,9999,9999,1680151620
17,18,Jits_Linear_8,144,9999,9999,9999,9999,1680691304
17,18,Jits_Linear_8,145,9999,9999,9999,9999,1681221700
17,18,Jits_Linear_8,146,9999,9999,9999,9999,1681751140
17,18,Jits_Linear_8,147,9999,9999,9999,9999,1682281528
17,18,Jits_Linear_8,148,9999,9999,9999,9999,1682811984
17,18,Jits_Linear_8,149,9999,9999,9999,9999,1683341400
17,18,Jits_Linear_8,150,9999,9999,9999,9999,1683861608
17,18,Jits_Linear_8,151,9999,9999,9999,9999,1684381824
17,18,Jits_Linear_8,152,9999,9999,9999,9999,1684901968
17,18,Jits_Linear_8,153,9999,9999,9999,9999,1685421128
17,18,Jits_Linear_8,154,9999,9999,9999,9999,1685941328
17,18,Jits_Linear_8,155,9999,9999,9999,9999,1686451272
17,18,Jits_Linear_8,156,9999,9999,9999,9999,1686961228
17,18,Jits_Linear_8,157,9999,9999,9999,9999,1687471164
17,18,Jits_Linear_8,158,9999,9999,9999,9999,1687981112
17,18,Jits_Linear_8,159,9999,9999,9999,9999,1688491068
17,18,Jits_Linear_8,160,9999,9999,9999,9999,1688991812
17,18,Jits_Linear_8,161,9999,9999,9999,9999,1689491564
17,18,Jits_Linear_8,162,9999,9999,9999,9999,1689991252
17,18,Jits_Linear_8,163,9999,9999,9999,9999,1690491984
17,18,Jits_Linear_8,164,9999,9999,9999,9999,1690991736
17,18,Jits_Linear_8,165,9999,9999,9999,9999,1691481148
17,18,Jits_Linear_8,166,9999,9999,9999,9999,1691971676
17,18,Jits_Linear_8,167,9999,9999,9999,9999,1692461164
17,18,Jits_Linear_8,168,9999,9999,9999,9999,1692951640
17,18,Jits_Linear_8,169,9999,9999,9999,9999,1693441136
18,17,Jits_Phase_5,0,5,56,103,1701496156
18,17,Jits_Phase_5,1,5,63,98,1701499252
18,17,Jits_Phase_5,2,5,80,127,1701502376
18,17,Jits_Phase_5,0,5,56,103,1701995864
18,17,Jits_Phase_5,1,5,63,98,1701999036
18,17,Jits_Phase_5,2,5,80,127,1702002160
18,17,Jits_Phase_5,3,1,48,38,1702062288
18,17,Jits_Phase_5,0,5,56,103,1702495772
18,17,Jits_Phase_5,1,5,80,127,1702505968
18,17,Jits_Phase_5,2,5,63,98,1702526204
18,17,Jits_Phase_5,3,1,48,40,1702548348
18,17,Jits_Phase_5,0,5,63,98,1702946216
18,17,Jits_Phase_5,1,5,80,127,1702975968
18,17,Jits_Phase_5,2,5,56,103,1702986012
18,17,Jits_Phase_5,3,1,48,41,1703048860
18,17,Jits_Phase_5,0,5,80,127,1703506268
18,17,Jits_Phase_5,1,5,56,103,1703515516
18,17,Jits_Phase_5,2,1,48,35,1703531888
18,17,Jits_Phase_5,3,5,63,98,1703546152
18,17,Jits_Phase_5,0,5,63,98,1703995696
18,17,Jits_Phase_5,1,5,56,103,1704025472
18,17,Jits_Phase_5,2,5,80,127,1704035964
18,17,Jits_Phase_5,3,1,48,30,1704044636
18,17,Jits_Phase_5,0,5,56,103,1704446296
18,17,Jits_Phase_5,1,5,63,98,1704495676
18,17,Jits_Phase_5,2,1,48,34,1704504352
18,17,Jits_Phase_5,3,5,80,127,1704515904
18,17,Jits_Phase_5,0,5,80,127,1704945984
18,17,Jits_Phase_5,1,5,63,98,1704996188
18,17,Jits_Phase_5,2,1,48,40,1704998272
18,17,Jits_Phase_5,3,5,56,103,1705036116
18,17,Jits_Phase_5,0,5,56,103,1705445824
18,17,Jits_Phase_5,1,5,63,98,1705475500
18,17,Jits_Phase_5,2,1,48,39,1705514136
18,17,Jits_Phase_5,3,5,80,127,1705546068
18,17,Jits_Phase_5,0,5,56,103,1705945588
18,17,Jits_Phase_5,1,1,48,42,1705989608
18,17,Jits_Phase_5,2,5,80,127,1706005820
18,17,Jits_Phase_5,3,5,63,98,1706035864
18,17,Jits_Phase_5,0,5,56,103,1706456364
18,17,Jits_Phase_5,1,5,63,98,1706465660
18,17,Jits_Phase_5,2,1,48,43,1706485636
18,17,Jits_Phase_5,3,5,80,127,1706505588
18,17,Jits_Phase_5,0,5,63,98,1706946008
18,17,Jits_Phase_5,1,1,48,46,1706975504
18,17,Jits_Phase_5,2,5,80,127,1707025868
18,17,Jits_Phase_5,3,5,56,103,1707036140
18,17,Jits_Phase_5,0,1,48,39,1707456668
18,17,Jits_Phase_5,1,5,63,98,1707495872
18,17,Jits_Phase_5,2,5,56,103,1707535884
18,17,Jits_Phase_5,3,5,80,127,1707538948
18,17,Jits_Phase_5,0,5,56,103,1707955540
18,17,Jits_Phase_5,1,5,63,98,1707965736
18,17,Jits_Phase_5,2,1,48,36,1707973488
18,17,Jits_Phase_5,3,5,80,127,1708005664
18,17,Jits_Phase_5,0,5,56,103,1708446080
18,17,Jits_Phase_5,1,5,63,98,1708449000
18,17,Jits_Phase_5,2,1,48,40,1708457888
18,17,Jits_Phase_5,3,5,80,127,1708465632
18,17,Jits_Phase_5,0,1,48,43,1708934936
18,17,Jits_Phase_5,1,5,80,127,1708955936
18,17,Jits_Phase_5,2,5,56,103,1708966132
18,17,Jits_Phase_5,3,5,63,98,1709035944
18,17,Jits_Phase_5,0,5,63,98,1709445428
18,17,Jits_Phase_5,1,1,48,38,1709456188
18,17,Jits_Phase_5,2,5,56,103,1709465952
18,17,Jits_Phase_5,3,5,80,127,1709545816
18,17,Jits_Phase_5,0,5,56,103,1709955588
18,17,Jits_Phase_5,1,1,48,42,1709961252
18,17,Jits_Phase_5,2,5,80,127,1709996568
18,17,Jits_Phase_5,3,5,63,98,1710005716
18,17,Jits_Phase_5,0,5,80,127,1710445908
18,17,Jits_Phase_5,1,1,48,43,1710466564
18,17,Jits_Phase_5,2,5,63,98,1710475652
18,17,Jits_Phase_5,3,5,56,103,1710515664
18,17,Jits_Phase_5,0,5,56,103,1710966196
18,17,Jits_Phase_5,1,1,48,42,1710973208
18,17,Jits_Phase_5,2,5,63,98,1710995792
18,17,Jits_Phase_5,3,5,80,127,1711046064
18,17,Jits_Phase_5,0,5,80,127,1711465740
18,17,Jits_Phase_5,1,1,48,37,1711479344
18,17,Jits_Phase_5,2,5,56,103,1711505744
18,17,Jits_Phase_5,3,5,63,98,1711515868
18,17,Jits_Phase_5,0,5,80,127,1711956632
18,17,Jits_Phase_5,1,1,48,45,1711990760
18,17,Jits_Phase_5,2,5,63,98,1711996264
18,17,Jits_Phase_5,3,5,56,103,1712055904
18,17,Jits_Phase_5,0,5,56,103,1712456148
18,17,Jits_Phase_5,1,5,80,127,1712466268
18,17,Jits_Phase_5,2,1,48,40,1712519232
18,17,Jits_Phase_5,3,5,63,98,1712546080
18,17,Jits_Phase_5,0,5,80,127,1712955832
18,17,Jits_Phase_5,1,5,63,98,1713016248
18,17,Jits_Phase_5,2,1,48,35,1713033388
18,17,Jits_Phase_5,3,5,56,103,1713045840
18,17,Jits_Phase_5,0,5,56,103,1713455524
18,17,Jits_Phase_5,1,5,80,127,1713515788
18,17,Jits_Phase_5,2,1,48,40,1713525808
18,17,Jits_Phase_5,3,5,63,98,1713555792
18,17,Jits_Phase_5,0,5,56,103,1714006484
18,17,Jits_Phase_5,1,5,63,98,1714015632
18,17,Jits_Phase_5,2,5,80,127,1714019072
18,17,Jits_Phase_5,3,1,48,30,1714044900
18,17,Jits_Phase_5,0,5,80,127,1714455864
18,17,Jits_Phase_5,1,1,48,36,1714515472
18,17,Jits_Phase_5,2,5,63,98,1714546012
18,17,Jits_Phase_5,3,5,56,103,1714556208
18,17,Jits_Phase_5,0,5,56,103,1714955608
18,17,Jits_Phase_5,1,5,63,98,1714958708
18,17,Jits_Phase_5,2,5,80,127,1714961908
18,17,Jits_Phase_5,3,1,48,33,1715039892
18,17,Jits_Phase_5,0,5,80,127,1715475744
18,17,Jits_Phase_5,1,5,63,98,1715526024
18,17,Jits_Phase_5,2,5,56,103,1715555796
18,17,Jits_Phase_5,3,1,48,38,1715561980
18,17,Jits_Phase_5,0,5,56,103,1715956032
18,17,Jits_Phase_5,1,5,80,127,1715966600
18,17,Jits_Phase_5,2,5,63,98,1716035976
18,17,Jits_Phase_5,3,1,48,36,1716058824
18,17,Jits_Phase_5,0,5,56,103,1716465908
18,17,Jits_Phase_5,1,5,63,98,1716485544
18,17,Jits_Phase_5,2,5,80,127,1716545856
18,17,Jits_Phase_5,3,1,48,32,1716555420
18,17,Jits_Phase_5,0,5,80,127,1716946416
18,17,Jits_Phase_5,1,5,63,98,1717015872
18,17,Jits_Phase_5,2,1,48,34,1717027684
18,17,Jits_Phase_5,3,5,56,103,1717036324
18,17,Jits_Phase_5,0,5,80,127,1717465584
18,17,Jits_Phase_5,1,5,56,103,1717475632
18,17,Jits_Phase_5,2,5,63,98,1717485904
18,17,Jits_Phase_5,3,1,48,34,1717535544
18,17,Jits_Phase_5,0,5,80,127,1717955904
18,17,Jits_Phase_5,1,5,56,103,1717976368
18,17,Jits_Phase_5,2,1,48,38,1718000528
18,17,Jits_Phase_5,3,5,63,98,1718046036
18,17,Jits_Phase_5,0,5,56,103,1718465832
18,17,Jits_Phase_5,1,5,80,127,1718495732
18,17,Jits_Phase_5,2,5,63,98,1718515968
18,17,Jits_Phase_5,3,1,48,40,1718540132
18,17,Jits_Phase_5,0,5,63,98,1718956680
18,17,Jits_Phase_5,1,1,48,31,1718983932
18,17,Jits_Phase_5,2,5,56,103,1719015792
18,17,Jits_Phase_5,3,5,80,127,1719045612
18,17,Jits_Phase_5,0,5,63,98,1719445944
18,17,Jits_Phase_5,1,5,80,127,1719449308
18,17,Jits_Phase_5,2,1,48,34,1719461196
18,17,Jits_Phase_5,3,5,56,103,1719535916
18,17,Jits_Phase_5,0,5,56,103,1719966136
18,17,Jits_Phase_5,1,1,48,33,1719980416
18,17,Jits_Phase_5,2,5,63,98,1719995804
18,17,Jits_Phase_5,3,5,80,127,1720035664
18,17,Jits_Phase_5,0,5,63,98,1720465676
18,17,Jits_Phase_5,1,1,48,37,1720500556
18,17,Jits_Phase_5,2,5,56,103,1720505832
18,17,Jits_Phase_5,3,5,80,127,1720526364
18,17,Jits_Phase_5,0,5,63,98,1720975760
18,17,Jits_Phase_5,1,1,48,39,1720982624
18,17,Jits_Phase_5,2,5,56,103,1721015620
18,17,Jits_Phase_5,3,5,80,127,1721025812
18,17,Jits_Phase_5,0,5,80,127,1721455956
18,17,Jits_Phase_5,1,1,48,36,1721489940
18,17,Jits_Phase_5,2,5,63,98,1721525704
18,17,Jits_Phase_5,3,5,56,103,1721546012
18,17,Jits_Phase_5,0,5,56,103,1721945608
18,17,Jits_Phase_5,1,5,80,127,1721965844
18,17,Jits_Phase_5,2,5,63,98,1722005852
18,17,Jits_Phase_5,3,1,48,31,1722014076
18,17,Jits_Phase_5,0,5,63,98,1722456380
18,17,Jits_Phase_5,1,5,80,127,1722475940
18,17,Jits_Phase_5,2,5,56,103,1722515800
18,17,Jits_Phase_5,3,1,48,29,1722526264
18,17,Jits_Phase_5,0,5,63,98,1722956100
18,17,Jits_Phase_5,1,5,56,103,1722975536
18,17,Jits_Phase_5,2,5,80,127,1722985956
18,17,Jits_Phase_5,3,1,48,29,1723054024
18,17,Jits_Phase_5,0,5,80,127,1723455916
18,17,Jits_Phase_5,1,5,56,103,1723476624
18,17,Jits_Phase_5,2,5,63,98,1723505928
18,17,Jits_Phase_5,3,1,48,31,1723516464
18,17,Jits_Phase_5,0,1,48,35,1724007216
18,17,Jits_Phase_5,1,5,56,103,1724026420
18,17,Jits_Phase_5,2,5,80,127,1724029484
18,17,Jits_Phase_5,3,5,63,98,1724045608
18,17,Jits_Phase_5,0,5,63,98,1724446060
18,17,Jits_Phase_5,1,5,56,103,1724475660
18,17,Jits_Phase_5,2,1,48,32,1724525176
18,17,Jits_Phase_5,3,5,80,127,1724536288
18,17,Jits_Phase_5,0,1,48,34,1724976344
18,17,Jits_Phase_5,1,5,63,98,1725025612
18,17,Jits_Phase_5,2,5,56,103,1725036036
18,17,Jits_Phase_5,3,5,80,127,1725046156
18,17,Jits_Phase_5,0,5,56,103,1725485344
18,17,Jits_Phase_5,1,1,48,37,1725494164
18,17,Jits_Phase_5,2,5,80,127,1725516136
18,17,Jits_Phase_5,3,5,63,98,1725526804
18,17,Jits_Phase_5,0,1,48,38,1726009796
18,17,Jits_Phase_5,1,5,63,98,1726026008
18,17,Jits_Phase_5,2,5,56,103,1726036600
18,17,Jits_Phase_5,3,5,80,127,1726055788
18,17,Jits_Phase_5,0,5,56,103,1726456240
18,17,Jits_Phase_5,1,1,48,42,1726510152
18,17,Jits_Phase_5,2,5,63,98,1726515648
18,17,Jits_Phase_5,3,5,80,127,1726519160
18,17,Jits_Phase_5,0,5,80,127,1726976596
18,17,Jits_Phase_5,1,1,48,38,1726985668
18,17,Jits_Phase_5,2,5,56,103,1726987084
18,17,Jits_Phase_5,3,5,63,98,1727056312
18,17,Jits_Phase_5,0,5,80,127,1727465796
18,17,Jits_Phase_5,1,1,48,38,1727503536
18,17,Jits_Phase_5,2,5,56,103,1727535620
18,17,Jits_Phase_5,3,5,63,98,1727545592
18,17,Jits_Phase_5,0,5,63,98,1728005644
18,17,Jits_Phase_5,1,5,56,103,1728015692
18,17,Jits_Phase_5,2,1,48,39,1728036744
18,17,Jits_Phase_5,3,5,80,127,1728037784
18,17,Jits_Phase_5,0,5,80,127,1728456020
18,17,Jits_Phase_5,1,5,63,98,1728515436
18,17,Jits_Phase_5,2,1,48,35,1728540648
18,17,Jits_Phase_5,3,5,56,103,1728556412
18,17,Jits_Phase_5,0,5,56,103,1728995788
18,17,Jits_Phase_5,1,5,63,98,1729005912
18,17,Jits_Phase_5,2,5,80,127,1729045920
18,17,Jits_Phase_5,3,1,48,41,1729071880
18,17,Jits_Phase_5,0,5,56,103,1729455548
18,17,Jits_Phase_5,1,5,80,127,1729486420
18,17,Jits_Phase_5,2,5,63,98,1729536544
18,17,Jits_Phase_5,3,1,48,37,1729538408
18,17,Jits_Phase_5,0,5,56,103,1729996364
18,17,Jits_Phase_5,1,1,48,35,1730024888
18,17,Jits_Phase_5,2,5,63,98,1730036068
18,17,Jits_Phase_5,3,5,80,127,1730039580
18,17,Jits_Phase_5,0,5,56,103,1730495748
18,17,Jits_Phase_5,1,5,63,98,1730506316
18,17,Jits_Phase_5,2,5,80,127,1730525504
18,17,Jits_Phase_5,3,1,48,35,1730529376
18,17,Jits_Phase_5,0,5,56,103,1730955580
18,17,Jits_Phase_5,1,5,80,127,1730958648
18,17,Jits_Phase_5,2,5,63,98,1730995444
18,17,Jits_Phase_5,3,1,48,40,1731016392
18,17,Jits_Phase_5,0,5,63,98,1731496384
18,17,Jits_Phase_5,1,1,48,42,1731522948
18,17,Jits_Phase_5,2,5,56,103,1731526128
18,17,Jits_Phase_5,3,5,80,127,1731545392
18,17,Jits_Phase_5,0,5,80,127,1731966316
18,17,Jits_Phase_5,1,5,56,103,1731975468
18,17,Jits_Phase_5,2,5,63,98,1731985660
18,17,Jits_Phase_5,3,1,48,41,1732012448
18,17,Jits_Phase_5,0,5,56,103,1732465928
18,17,Jits_Phase_5,1,1,48,40,1732488076
18,17,Jits_Phase_5,2,5,80,127,1732505860
18,17,Jits_Phase_5,3,5,63,98,1732535608
18,17,Jits_Phase_5,0,1,48,39,1732959736
18,17,Jits_Phase_5,1,5,63,98,1732975872
18,17,Jits_Phase_5,2,5,80,127,1732986440
18,17,Jits_Phase_5,3,5,56,103,1732995516
18,17,Jits_Phase_5,0,1,48,38,1733449048
18,17,Jits_Phase_5,1,5,56,103,1733465432
18,17,Jits_Phase_5,2,5,63,98,1733536084
18,17,Jits_Phase_5,3,5,80,127,1733546488
18,17,Jits_Phase_5,0,1,48,44,1733949240
18,17,Jits_Phase_5,1,5,80,127,1733976420
18,17,Jits_Phase_5,2,5,56,103,1733985716
18,17,Jits_Phase_5,3,5,63,98,1734035840
18,17,Jits_Phase_5,0,1,48,36,1734454836
18,17,Jits_Phase_5,1,5,80,127,1734486500
18,17,Jits_Phase_5,2,5,56,103,1734545768
18,17,Jits_Phase_5,3,5,63,98,1734575352
18,17,Jits_Phase_5,0,5,56,103,1734986532
18,17,Jits_Phase_5,1,5,80,127,1734989296
18,17,Jits_Phase_5,2,1,48,40,1734990260
18,17,Jits_Phase_5,3,5,63,98,1735025960
18,17,Jits_Phase_5,0,1,48,40,1735493208
18,17,Jits_Phase_5,1,5,56,103,1735515520
18,17,Jits_Phase_5,2,5,63,98,1735546392
18,17,Jits_Phase_5,3,5,80,127,1735555320
18,17,Jits_Phase_5,0,1,48,40,1735990420
18,17,Jits_Phase_5,1,5,63,98,1736025388
18,17,Jits_Phase_5,2,5,80,127,1736035580
18,17,Jits_Phase_5,3,5,56,103,1736046072
18,17,Jits_Phase_5,0,5,80,127,1736476116
18,17,Jits_Phase_5,1,1,48,47,1736496252
18,17,Jits_Phase_5,2,5,56,103,1736526308
18,17,Jits_Phase_5,3,5,63,98,1736529300
18,17,Jits_Phase_5,0,5,56,103,1737005292
18,17,Jits_Phase_5,1,5,80,127,1737026044
18,17,Jits_Phase_5,2,1,48,38,1737032380
18,17,Jits_Phase_5,3,5,63,98,1737036084
18,17,Jits_Phase_5,0,5,63,98,1737485648
18,17,Jits_Phase_5,1,5,56,103,1737516296
18,17,Jits_Phase_5,2,5,80,127,1737535780
18,17,Jits_Phase_5,3,1,48,34,1737551776
18,17,Jits_Phase_5,0,5,56,103,1737995584
18,17,Jits_Phase_5,1,5,80,127,1738005780
18,17,Jits_Phase_5,2,1,48,41,1738036916
18,17,Jits_Phase_5,3,5,63,98,1738075400
18,17,Jits_Phase_5,0,5,63,98,1738486276
18,17,Jits_Phase_5,1,1,48,40,1738520788
18,17,Jits_Phase_5,2,5,80,127,1738526208
18,17,Jits_Phase_5,3,5,56,103,1738566220
18,17,Jits_Phase_5,0,5,56,103,1738996588
18,17,Jits_Phase_5,1,1,48,47,1738997632
18,17,Jits_Phase_5,2,5,63,98,1739006556
18,17,Jits_Phase_5,3,5,80,127,1739025744
18,17,Jits_Phase_5,0,1,48,44,1739492496
18,17,Jits_Phase_5,1,5,63,98,1739535684
18,17,Jits_Phase_5,2,5,80,127,1739556364
18,17,Jits_Phase_5,3,5,56,103,1739575776
18,17,Jits_Phase_5,0,5,56,103,1739976252
18,17,Jits_Phase_5,1,1,48,38,1739990004
18,17,Jits_Phase_5,2,5,80,127,1740056188
18,17,Jits_Phase_5,3,5,63,98,1740066532
18,17,Jits_Phase_5,0,1,48,39,1740495996
18,17,Jits_Phase_5,1,5,80,127,1740515648
18,17,Jits_Phase_5,2,5,63,98,1740526140
18,17,Jits_Phase_5,3,5,56,103,1740555592
18,17,Jits_Phase_5,0,5,63,98,1740975476
18,17,Jits_Phase_5,1,1,48,44,1741003604
18,17,Jits_Phase_5,2,5,80,127,1741016380
18,17,Jits_Phase_5,3,5,56,103,1741075792
18,17,Jits_Phase_5,0,5,63,98,1741485484
18,17,Jits_Phase_5,1,1,48,48,1741532500
18,17,Jits_Phase_5,2,5,56,103,1741535532
18,17,Jits_Phase_5,3,5,80,127,1741566248
18,17,Jits_Phase_5,0,5,80,127,1741986132
18,17,Jits_Phase_5,1,5,63,98,1741996328
18,17,Jits_Phase_5,2,1,48,37,1742029560
18,17,Jits_Phase_5,3,5,56,103,1742066368
18,17,Jits_Phase_5,0,1,48,46,1742495012
18,17,Jits_Phase_5,1,5,80,127,1742546276
18,17,Jits_Phase_5,2,5,56,103,1742555500
18,17,Jits_Phase_5,3,5,63,98,1742558640
18,17,Jits_Phase_5,0,5,56,103,1742985572
18,17,Jits_Phase_5,1,5,80,127,1743006328
18,17,Jits_Phase_5,2,5,63,98,1743016448
18,17,Jits_Phase_5,3,1,48,48,1743036128
18,17,Jits_Phase_5,0,5,63,98,1743495448
18,17,Jits_Phase_5,1,1,48,43,1743500136
18,17,Jits_Phase_5,2,5,56,103,1743535380
18,17,Jits_Phase_5,3,5,80,127,1743556360
18,17,Jits_Phase_5,0,5,63,98,1743996248
18,17,Jits_Phase_5,1,1,48,42,1744013836
18,17,Jits_Phase_5,2,5,56,103,1744055804
18,17,Jits_Phase_5,3,5,80,127,1744059020
18,17,Jits_Phase_5,0,5,56,103,1744456036
18,17,Jits_Phase_5,1,5,80,127,1744475620
18,17,Jits_Phase_5,2,1,48,44,1744498440
18,17,Jits_Phase_5,3,5,63,98,1744515548
18,17,Jits_Phase_5,0,5,56,103,1744985412
18,17,Jits_Phase_5,1,1,48,47,1744996248
18,17,Jits_Phase_5,2,5,63,98,1745006160
18,17,Jits_Phase_5,3,5,80,127,1745016132
18,17,Jits_Phase_5,0,5,80,127,1745455408
18,17,Jits_Phase_5,1,5,56,103,1745486052
18,17,Jits_Phase_5,2,1,48,45,1745515120
18,17,Jits_Phase_5,3,5,63,98,1745526008
18,17,Jits_Phase_5,0,5,80,127,1745965356
18,17,Jits_Phase_5,1,5,56,103,1745986036
18,17,Jits_Phase_5,2,1,48,44,1745997028
18,17,Jits_Phase_5,3,5,63,98,1746046292
18,17,Jits_Phase_5,0,5,56,103,1746476272
18,17,Jits_Phase_5,1,5,80,127,1746496280
18,17,Jits_Phase_5,2,1,48,43,1746497920
18,17,Jits_Phase_5,3,5,63,98,1746556236
18,17,Jits_Phase_5,0,5,80,127,1746955588
18,17,Jits_Phase_5,1,5,56,103,1746966228
18,17,Jits_Phase_5,2,5,63,98,1747005792
18,17,Jits_Phase_5,3,1,48,38,1747013544
18,17,Jits_Phase_5,0,5,63,98,1747456244
18,17,Jits_Phase_5,1,5,56,103,1747496252
18,17,Jits_Phase_5,2,5,80,127,1747499392
18,17,Jits_Phase_5,3,1,48,27,1747538472
18,17,Jits_Phase_5,0,5,63,98,1747975432
18,17,Jits_Phase_5,1,5,80,127,1748015520
18,17,Jits_Phase_5,2,1,48,38,1748021332
18,17,Jits_Phase_5,3,5,56,103,1748046160
18,17,Jits_Phase_5,0,5,56,103,1748466116
18,17,Jits_Phase_5,1,5,63,98,1748476384
18,17,Jits_Phase_5,2,5,80,127,1748506132
18,17,Jits_Phase_5,3,1,48,42,1748530228
18,17,Jits_Phase_5,0,5,80,127,1748955464
18,17,Jits_Phase_5,1,1,48,36,1749025516
18,17,Jits_Phase_5,2,5,63,98,1749027008
18,17,Jits_Phase_5,3,5,56,103,1749036308
18,17,Jits_Phase_5,0,5,63,98,1749456204
18,17,Jits_Phase_5,1,1,48,45,1749515888
18,17,Jits_Phase_5,2,5,56,103,1749526024
18,17,Jits_Phase_5,3,5,80,127,1749536072
18,17,Jits_Phase_5,0,5,63,98,1749935500
18,17,Jits_Phase_5,1,5,56,103,1749956256
18,17,Jits_Phase_5,2,5,80,127,1749996044
18,17,Jits_Phase_5,3,1,48,43,1749999608
18,17,Jits_Phase_5,0,5,56,103,1750415844
18,17,Jits_Phase_5,1,5,63,98,1750426116
18,17,Jits_Phase_5,2,1,48,38,1750464448
18,17,Jits_Phase_5,3,5,80,127,1750506048
18,17,Jits_Phase_5,0,5,63,98,1750906168
18,17,Jits_Phase_5,1,1,48,40,1750920144
18,17,Jits_Phase_5,2,5,56,103,1750936132
18,17,Jits_Phase_5,3,5,80,127,1750975996
18,17,Jits_Phase_5,0,1,48,36,1751379136
18,17,Jits_Phase_5,1,5,56,103,1751406060
18,17,Jits_Phase_5,2,5,63,98,1751446072
18,17,Jits_Phase_5,3,5,80,127,1751485920
18,17,Jits_Phase_5,0,1,48,34,1751850088
18,17,Jits_Phase_5,1,5,80,127,1751905584
18,17,Jits_Phase_5,2,5,56,103,1751985440
18,17,Jits_Phase_5,3,5,63,98,1751995708
18,17,Jits_Phase_5,0,1,48,44,1752431448
18,17,Jits_Phase_5,1,5,56,103,1752446464
18,17,Jits_Phase_5,2,5,63,98,1752449380
18,17,Jits_Phase_5,3,5,80,127,1752455464
18,17,Jits_Phase_5,0,5,56,103,1752975656
18,17,Jits_Phase_5,1,1,48,36,1752989788
18,17,Jits_Phase_5,2,5,63,98,1752996184
18,17,Jits_Phase_5,3,5,80,127,1753005480
18,17,Jits_Phase_5,0,5,63,98,1753435644
18,17,Jits_Phase_5,1,5,80,127,1753446064
18,17,Jits_Phase_5,2,5,56,103,1753466148
18,17,Jits_Phase_5,3,1,48,34,1753485528
18,17,Jits_Phase_5,0,5,63,98,1753936188
18,17,Jits_Phase_5,1,1,48,38,1753959536
18,17,Jits_Phase_5,2,5,56,103,1754016048
18,17,Jits_Phase_5,3,5,80,127,1754019116
18,17,Jits_Phase_5,0,5,63,98,1754435980
18,17,Jits_Phase_5,1,5,56,103,1754456540
18,17,Jits_Phase_5,2,1,48,38,1754458024
18,17,Jits_Phase_5,3,5,80,127,1754486056
18,17,Jits_Phase_5,0,5,56,103,1754935656
18,17,Jits_Phase_5,1,1,48,34,1754950156
18,17,Jits_Phase_5,2,5,63,98,1754956180
18,17,Jits_Phase_5,3,5,80,127,1754966328
18,17,Jits_Phase_5,0,1,48,33,1755430576
18,17,Jits_Phase_5,1,5,56,103,1755466044
18,17,Jits_Phase_5,2,5,63,98,1755495816
18,17,Jits_Phase_5,3,5,80,127,1755499108
18,17,Jits_Phase_5,0,5,56,103,1755915524
18,17,Jits_Phase_5,1,1,48,38,1755919092
18,17,Jits_Phase_5,2,5,63,98,1755955532
18,17,Jits_Phase_5,3,5,80,127,1756016076
18,17,Jits_Phase_5,0,5,56,103,1756435968
18,17,Jits_Phase_5,1,5,63,98,1756446164
18,17,Jits_Phase_5,2,1,48,36,1756461936
18,17,Jits_Phase_5,3,5,80,127,1756505596
18,17,Jits_Phase_5,0,5,56,103,1756935504
18,17,Jits_Phase_5,1,1,48,23,1756938476
18,17,Jits_Phase_5,2,5,80,127,1756956104
18,17,Jits_Phase_5,3,5,63,98,1756986000
18,17,Jits_Phase_5,0,1,48,31,1757393864
18,17,Jits_Phase_5,1,5,80,127,1757436380
18,17,Jits_Phase_5,2,5,56,103,1757445456
18,17,Jits_Phase_5,3,5,63,98,1757466136
18,17,Jits_Phase_5,0,5,63,98,1757925872
18,17,Jits_Phase_5,1,1,48,38,1757943896
18,17,Jits_Phase_5,2,5,80,127,1758005584
18,17,Jits_Phase_5,3,5,56,103,1758016076
18,17,Jits_Phase_5,0,1,48,48,1758422812
18,17,Jits_Phase_5,1,5,80,127,1758515524
18,17,Jits_Phase_5,2,5,56,103,1758536112
18,17,Jits_Phase_5,3,5,63,98,1758539108
18,17,Jits_Phase_5,0,5,63,98,1759006204
18,17,Jits_Phase_5,1,5,80,127,1759009344
18,17,Jits_Phase_5,2,1,48,45,1759036896
18,17,Jits_Phase_5,3,5,56,103,1759065340
18,17,Jits_Phase_5,0,5,56,103,1759486320
18,17,Jits_Phase_5,1,5,80,127,1759495468
18,17,Jits_Phase_5,2,5,63,98,1759535408
18,17,Jits_Phase_5,3,1,48,43,1759567968
18,17,Jits_Phase_5,0,5,56,103,1759965484
18,17,Jits_Phase_5,1,5,63,98,1760025948
18,17,Jits_Phase_5,2,5,80,127,1760036140
18,17,Jits_Phase_5,3,1,48,44,1760049224
18,17,Jits_Phase_5,0,5,63,98,1760475364
18,17,Jits_Phase_5,1,1,48,46,1760501104
18,17,Jits_Phase_5,2,5,80,127,1760515296
18,17,Jits_Phase_5,3,5,56,103,1760556280
18,17,Jits_Phase_5,0,5,56,103,1760976280
18,17,Jits_Phase_5,1,1,48,45,1760999556
18,17,Jits_Phase_5,2,5,63,98,1761056068
18,17,Jits_Phase_5,3,5,80,127,1761059356
18,17,Jits_Phase_5,0,1,48,48,1761507476
18,17,Jits_Phase_5,1,5,80,127,1761536344
18,17,Jits_Phase_5,2,5,56,103,1761566164
18,17,Jits_Phase_5,3,5,63,98,1761569084
18,17,Jits_Phase_5,0,5,56,103,1761996164
18,17,Jits_Phase_5,1,5,80,127,1762015724
18,17,Jits_Phase_5,2,1,48,46,1762036376
18,17,Jits_Phase_5,3,5,63,98,1762055652
18,17,Jits_Phase_5,0,5,80,127,1762476520
18,17,Jits_Phase_5,1,5,63,98,1762495784
18,17,Jits_Phase_5,2,1,48,44,1762526996
18,17,Jits_Phase_5,3,5,56,103,1762556388
18,17,Jits_Phase_5,0,5,63,98,1762986324
18,17,Jits_Phase_5,1,5,56,103,1762995696
18,17,Jits_Phase_5,2,1,48,48,1763005116
18,17,Jits_Phase_5,3,5,80,127,1763045740
18,17,Jits_Phase_5,0,5,56,103,1763475956
18,17,Jits_Phase_5,1,5,63,98,1763496192
18,17,Jits_Phase_5,2,1,48,48,1763497160
18,17,Jits_Phase_5,3,5,80,127,1763505632
18,17,Jits_Phase_5,0,5,56,103,1763966196
18,17,Jits_Phase_5,1,5,63,98,1763969268
18,17,Jits_Phase_5,2,1,48,44,1763977268
18,17,Jits_Phase_5,3,5,80,127,1763985756
18,17,Jits_Phase_5,0,1,48,47,1764466220
18,17,Jits_Phase_5,1,5,63,98,1764506028
18,17,Jits_Phase_5,2,5,56,103,1764536000
18,17,Jits_Phase_5,3,5,80,127,1764566336
18,17,Jits_Phase_5,0,5,80,127,1764965928
18,17,Jits_Phase_5,1,1,48,51,1764970020
18,17,Jits_Phase_5,2,5,56,103,1765055900
18,17,Jits_Phase_5,3,5,63,98,1765059116
18,17,Jits_Phase_5,0,5,56,103,1765465764
18,17,Jits_Phase_5,1,5,80,127,1765468676
18,17,Jits_Phase_5,2,1,48,50,1765490376
18,17,Jits_Phase_5,3,5,63,98,1765546292
18,17,Jits_Phase_5,0,5,80,127,1765966088
18,17,Jits_Phase_5,1,1,48,47,1765980840
18,17,Jits_Phase_5,2,5,63,98,1766025820
18,17,Jits_Phase_5,3,5,56,103,1766056244
18,17,Jits_Phase_5,0,1,48,49,1766454956
18,17,Jits_Phase_5,1,5,63,98,1766465844
18,17,Jits_Phase_5,2,5,80,127,1766476112
18,17,Jits_Phase_5,3,5,56,103,1766545888
18,17,Jits_Phase_5,0,1,48,51,1766966764
18,17,Jits_Phase_5,1,5,56,103,1767026000
18,17,Jits_Phase_5,2,5,80,127,1767055676
18,17,Jits_Phase_5,3,5,63,98,1767105936
18,17,Jits_Phase_5,0,1,48,47,1767490100
18,17,Jits_Phase_5,1,5,63,98,1767615784
18,17,Jits_Phase_5,2,5,56,103,1767645680
18,17,Jits_Phase_5,3,5,80,127,1767648672
18,17,Jits_Phase_5,0,5,63,98,1768115696
18,17,Jits_Phase_5,1,5,80,127,1768136004
18,17,Jits_Phase_5,2,1,48,47,1768146272
18,17,Jits_Phase_5,3,5,56,103,1768147760
18,17,Jits_Phase_5,0,5,56,103,1768625636
18,17,Jits_Phase_5,1,5,63,98,1768628628
18,17,Jits_Phase_5,2,5,80,127,1768645868
18,17,Jits_Phase_5,3,1,48,38,1768656776
18,17,Jits_Phase_5,0,5,56,103,1769076020
18,17,Jits_Phase_5,1,5,63,98,1769086292
18,17,Jits_Phase_5,2,5,80,127,1769115964
18,17,Jits_Phase_5,3,1,48,36,1769169124
18,17,Jits_Phase_5,0,5,63,98,1769596232
18,17,Jits_Phase_5,1,5,80,127,1769615944
18,17,Jits_Phase_5,2,1,48,40,1769617356
18,17,Jits_Phase_5,3,5,56,103,1769655872
18,17,Jits_Phase_5,0,1,48,40,1770111972
18,17,Jits_Phase_5,1,5,56,103,1770125648
18,17,Jits_Phase_5,2,5,63,98,1770165808
18,17,Jits_Phase_5,3,5,80,127,1770169096
18,17,Jits_Phase_5,0,5,80,127,1770565964
18,17,Jits_Phase_5,1,5,56,103,1770606072
18,17,Jits_Phase_5,2,1,48,44,1770619900
18,17,Jits_Phase_5,3,5,63,98,1770656264
18,17,Jits_Phase_5,0,1,48,46,1771120180
18,17,Jits_Phase_5,1,5,56,103,1771126052
18,17,Jits_Phase_5,2,5,80,127,1771136324
18,17,Jits_Phase_5,3,5,63,98,1771165996
18,17,Jits_Phase_5,0,5,56,103,1771575592
18,17,Jits_Phase_5,1,5,80,127,1771615852
18,17,Jits_Phase_5,2,1,48,46,1771623232
18,17,Jits_Phase_5,3,5,63,98,1771665820
18,17,Jits_Phase_5,0,5,56,103,1772076628
18,17,Jits_Phase_5,1,5,80,127,1772116292
18,17,Jits_Phase_5,2,1,48,45,1772133656
18,17,Jits_Phase_5,3,5,63,98,1772165732
18,17,Jits_Phase_5,0,5,80,127,1772565752
18,17,Jits_Phase_5,1,1,48,46,1772619136
18,17,Jits_Phase_5,2,5,63,98,1772645712
18,17,Jits_Phase_5,3,5,56,103,1772656056
18,17,Jits_Phase_5,0,5,80,127,1773115784
18,17,Jits_Phase_5,1,1,48,43,1773124160
18,17,Jits_Phase_5,2,5,56,103,1773126048
18,17,Jits_Phase_5,3,5,63,98,1773145556
18,17,Jits_Phase_5,0,5,63,98,1773585732
18,17,Jits_Phase_5,1,1,48,43,1773603448
18,17,Jits_Phase_5,2,5,56,103,1773656548
18,17,Jits_Phase_5,3,5,80,127,1773659616
18,17,Jits_Phase_5,0,5,80,127,1774076256
18,17,Jits_Phase_5,1,1,48,47,1774106200
18,17,Jits_Phase_5,2,5,63,98,1774125552
18,17,Jits_Phase_5,3,5,56,103,1774166488
18,17,Jits_Phase_5,0,1,48,44,1774597568
18,17,Jits_Phase_5,1,5,63,98,1774615872
18,17,Jits_Phase_5,2,5,56,103,1774655884
18,17,Jits_Phase_5,3,5,80,127,1774666228
18,17,Jits_Phase_5,0,5,63,98,1775106344
18,17,Jits_Phase_5,1,1,48,46,1775121892
18,17,Jits_Phase_5,2,5,56,103,1775125820
18,17,Jits_Phase_5,3,5,80,127,1775146428
18,17,Jits_Phase_5,0,5,80,127,1775566160
18,17,Jits_Phase_5,1,5,56,103,1775576580
18,17,Jits_Phase_5,2,1,48,46,1775591684
18,17,Jits_Phase_5,3,5,63,98,1775595984
18,17,Jits_Phase_5,0,1,48,47,1776094000
18,17,Jits_Phase_5,1,5,63,98,1776095508
18,17,Jits_Phase_5,2,5,56,103,1776135520
18,17,Jits_Phase_5,3,5,80,127,1776166316
18,17,Jits_Phase_5,0,5,56,103,1776556532
18,17,Jits_Phase_5,1,1,48,46,1776561668
18,17,Jits_Phase_5,2,5,63,98,1776585976
18,17,Jits_Phase_5,3,5,80,127,1776615724
18,17,Jits_Phase_5,0,5,80,127,1776976340
18,17,Jits_Phase_5,1,5,56,103,1777045820
18,17,Jits_Phase_5,2,5,63,98,1777048888
18,17,Jits_Phase_5,3,1,48,40,1777055536
18,17,Jits_Phase_5,0,1,48,26,1777480404
18,17,Jits_Phase_5,1,5,56,103,1777486128
18,17,Jits_Phase_5,2,5,63,98,1777536356
18,17,Jits_Phase_5,3,5,80,127,1777566028
18,17,Jits_Phase_5,0,5,63,98,1777965432
18,17,Jits_Phase_5,1,5,80,127,1777968648
18,17,Jits_Phase_5,2,1,48,40,1778009180
18,17,Jits_Phase_5,3,5,56,103,1778025764
18,17,Jits_Phase_5,0,5,56,103,1778495812
18,17,Jits_Phase_5,1,1,48,45,1778501396
18,17,Jits_Phase_5,2,5,80,127,1778506224
18,17,Jits_Phase_5,3,5,63,98,1778556448
18,17,Jits_Phase_5,0,5,63,98,1778965828
18,17,Jits_Phase_5,1,5,56,103,1778976100
18,17,Jits_Phase_5,2,5,80,127,1779005696
18,17,Jits_Phase_5,3,1,48,44,1779013600
18,17,Jits_Phase_5,0,1,48,45,1779490036
18,17,Jits_Phase_5,1,5,63,98,1779496428
18,17,Jits_Phase_5,2,5,80,127,1779499720
18,17,Jits_Phase_5,3,5,56,103,1779525880
18,17,Jits_Phase_5,0,1,48,44,1779987004
18,17,Jits_Phase_5,1,5,63,98,1780015576
18,17,Jits_Phase_5,2,5,56,103,1780035884
18,17,Jits_Phase_5,3,5,80,127,1780039100
18,17,Jits_Phase_5,0,1,48,43,1780465848
18,17,Jits_Phase_5,1,5,63,98,1780476208
18,17,Jits_Phase_5,2,5,56,103,1780545964
18,17,Jits_Phase_5,3,5,80,127,1780566580
18,17,Jits_Phase_5,0,5,56,103,1780965632
18,17,Jits_Phase_5,1,5,63,98,1780976124
18,17,Jits_Phase_5,2,1,48,44,1781015280
18,17,Jits_Phase_5,3,5,80,127,1781066020
18,17,Jits_Phase_5,0,5,56,103,1781485920
18,17,Jits_Phase_5,1,5,80,127,1781525784
18,17,Jits_Phase_5,2,5,63,98,1781536052
18,17,Jits_Phase_5,3,1,48,45,1781537540
18,17,Jits_Phase_5,0,1,48,46,1781970364
18,17,Jits_Phase_5,1,5,56,103,1782006056
18,17,Jits_Phase_5,2,5,63,98,1782035732
18,17,Jits_Phase_5,3,5,80,127,1782065688
18,17,Jits_Phase_5,0,5,80,127,1782465808
18,17,Jits_Phase_5,1,1,48,46,1782468632
18,17,Jits_Phase_5,2,5,63,98,1782505888
18,17,Jits_Phase_5,3,5,56,103,1782526572
18,17,Jits_Phase_5,0,1,48,48,1782948984
18,17,Jits_Phase_5,1,5,56,103,1783005724
18,17,Jits_Phase_5,2,5,80,127,1783025960
18,17,Jits_Phase_5,3,5,63,98,1783045576
18,17,Jits_Phase_5,0,1,48,46,1783468880
18,17,Jits_Phase_5,1,5,63,98,1783475580
18,17,Jits_Phase_5,2,5,56,103,1783485924
18,17,Jits_Phase_5,3,5,80,127,1783546164
18,17,Jits_Phase_5,0,5,56,103,1783976380
18,17,Jits_Phase_5,1,1,48,48,1783983256
18,17,Jits_Phase_5,2,5,63,98,1784045904
18,17,Jits_Phase_5,3,5,80,127,1784066436
18,17,Jits_Phase_5,0,5,56,103,1784476072
18,17,Jits_Phase_5,1,1,48,50,1784490500
18,17,Jits_Phase_5,2,5,63,98,1784505740
18,17,Jits_Phase_5,3,5,80,127,1784545600
18,17,Jits_Phase_5,0,5,63,98,1784965568
18,17,Jits_Phase_5,1,1,48,48,1784988844
18,17,Jits_Phase_5,2,5,56,103,1785015688
18,17,Jits_Phase_5,3,5,80,127,1785026032
18,17,Jits_Phase_5,0,1,48,50,1785502812
18,17,Jits_Phase_5,1,5,56,103,1785506140
18,17,Jits_Phase_5,2,5,63,98,1785556416
18,17,Jits_Phase_5,3,5,80,127,1785565640
18,17,Jits_Phase_5,0,5,56,103,1785976604
18,17,Jits_Phase_5,1,5,63,98,1785986508
18,17,Jits_Phase_5,2,1,48,51,1785997420
18,17,Jits_Phase_5,3,5,80,127,1786066436
18,17,Jits_Phase_5,0,9999,9999,9999,9999,1701743736
18,17,Jits_Phase_5,1,9999,9999,9999,9999,1702243424
18,17,Jits_Phase_5,2,9999,9999,9999,9999,1702743116
18,17,Jits_Phase_5,3,9999,9999,9999,9999,1703243896
18,17,Jits_Phase_5,4,9999,9999,9999,9999,1703743568
18,17,Jits_Phase_5,5,9999,9999,9999,9999,1704243260
18,17,Jits_Phase_5,6,9999,9999,9999,9999,1704744056
18,17,Jits_Phase_5,7,9999,9999,9999,9999,1705243744
18,17,Jits_Phase_5,8,9999,9999,9999,9999,1705743432
18,17,Jits_Phase_5,9,9999,9999,9999,9999,1706243196
18,17,Jits_Phase_5,10,9999,9999,9999,9999,1706743928
18,17,Jits_Phase_5,11,9999,9999,9999,9999,1707243616
18,17,Jits_Phase_5,12,9999,9999,9999,9999,1707743288
18,17,Jits_Phase_5,13,9999,9999,9999,9999,1708244076
18,17,Jits_Phase_5,14,9999,9999,9999,9999,1708743752
18,17,Jits_Phase_5,15,9999,9999,9999,9999,1709243512
18,17,Jits_Phase_5,16,9999,9999,9999,9999,1709743184
18,17,Jits_Phase_5,17,9999,9999,9999,9999,1710243904
18,17,Jits_Phase_5,18,9999,9999,9999,9999,1710743664
18,17,Jits_Phase_5,19,9999,9999,9999,9999,1711243356
18,17,Jits_Phase_5,20,9999,9999,9999,9999,1711744092
18,17,Jits_Phase_5,21,9999,9999,9999,9999,1712254016
18,17,Jits_Phase_5,22,9999,9999,9999,9999,1712753780
18,17,Jits_Phase_5,23,9999,9999,9999,9999,1713253468
18,17,Jits_Phase_5,24,9999,9999,9999,9999,1713753160
18,17,Jits_Phase_5,25,9999,9999,9999,9999,1714253940
18,17,Jits_Phase_5,26,9999,9999,9999,9999,1714753624
18,17,Jits_Phase_5,27,9999,9999,9999,9999,1715253360
18,17,Jits_Phase_5,28,9999,9999,9999,9999,1715754100
18,17,Jits_Phase_5,29,9999,9999,9999,9999,1716253784
18,17,Jits_Phase_5,30,9999,9999,9999,9999,1716743288
18,17,Jits_Phase_5,31,9999,9999,9999,9999,1717244028
18,17,Jits_Phase_5,32,9999,9999,9999,9999,1717743708
18,17,Jits_Phase_5,33,9999,9999,9999,9999,1718243448
18,17,Jits_Phase_5,34,9999,9999,9999,9999,1718743140
18,17,Jits_Phase_5,35,9999,9999,9999,9999,1719243876
18,17,Jits_Phase_5,36,9999,9999,9999,9999,1719743540
18,17,Jits_Phase_5,37,9999,9999,9999,9999,1720243292
18,17,Jits_Phase_5,38,9999,9999,9999,9999,1720744028
18,17,Jits_Phase_5,39,9999,9999,9999,9999,1721243704
18,17,Jits_Phase_5,40,9999,9999,9999,9999,1721743452
18,17,Jits_Phase_5,41,9999,9999,9999,9999,1722243140
18,17,Jits_Phase_5,42,9999,9999,9999,9999,1722743872
18,17,Jits_Phase_5,43,9999,9999,9999,9999,1723243616
18,17,Jits_Phase_5,44,9999,9999,9999,9999,1723743288
18,17,Jits_Phase_5,45,9999,9999,9999,9999,1724244092
18,17,Jits_Phase_5,46,9999,9999,9999,9999,1724743740
18,17,Jits_Phase_5,47,9999,9999,9999,9999,1725243496
18,17,Jits_Phase_5,48,9999,9999,9999,9999,1725753436
18,17,Jits_Phase_5,49,9999,9999,9999,9999,1726253128
18,17,Jits_Phase_5,50,9999,9999,9999,9999,1726753912
18,17,Jits_Phase_5,51,9999,9999,9999,9999,1727253600
18,17,Jits_Phase_5,52,9999,9999,9999,9999,1727753292
18,17,Jits_Phase_5,53,9999,9999,9999,9999,1728254032
18,17,Jits_Phase_5,54,9999,9999,9999,9999,1728753776
18,17,Jits_Phase_5,55,9999,9999,9999,9999,1729253468
18,17,Jits_Phase_5,56,9999,9999,9999,9999,1729753156
18,17,Jits_Phase_5,57,9999,9999,9999,9999,1730253884
18,17,Jits_Phase_5,58,9999,9999,9999,9999,1730753652
18,17,Jits_Phase_5,59,9999,9999,9999,9999,1731253324
18,17,Jits_Phase_5,60,9999,9999,9999,9999,1731754064
18,17,Jits_Phase_5,61,9999,9999,9999,9999,1732253808
18,17,Jits_Phase_5,62,9999,9999,9999,9999,1732753496
18,17,Jits_Phase_5,63,9999,9999,9999,9999,1733253184
18,17,Jits_Phase_5,64,9999,9999,9999,9999,1733773384
18,17,Jits_Phase_5,65,9999,9999,9999,9999,1734273128
18,17,Jits_Phase_5,66,9999,9999,9999,9999,1734773852
18,17,Jits_Phase_5,67,9999,9999,9999,9999,1735273588
18,17,Jits_Phase_5,68,9999,9999,9999,9999,1735773280
18,17,Jits_Phase_5,69,9999,9999,9999,9999,1736273976
18,17,Jits_Phase_5,70,9999,9999,9999,9999,1736773688
18,17,Jits_Phase_5,71,9999,9999,9999,9999,1737273452
18,17,Jits_Phase_5,72,9999,9999,9999,9999,1737773140
18,17,Jits_Phase_5,73,9999,9999,9999,9999,1738273860
18,17,Jits_Phase_5,74,9999,9999,9999,9999,1738773624
18,17,Jits_Phase_5,75,9999,9999,9999,9999,1739273296
18,17,Jits_Phase_5,76,9999,9999,9999,9999,1739774040
18,17,Jits_Phase_5,77,9999,9999,9999,9999,1740273788
18,17,Jits_Phase_5,78,9999,9999,9999,9999,1740773480
18,17,Jits_Phase_5,79,9999,9999,9999,9999,1741273156
18,17,Jits_Phase_5,80,9999,9999,9999,9999,1741773952
18,17,Jits_Phase_5,81,9999,9999,9999,9999,1742253176
18,17,Jits_Phase_5,82,9999,9999,9999,9999,1742753912
18,17,Jits_Phase_5,83,9999,9999,9999,9999,1743253584
18,17,Jits_Phase_5,84,9999,9999,9999,9999,1743753280
18,17,Jits_Phase_5,85,9999,9999,9999,9999,1744254068
18,17,Jits_Phase_5,86,9999,9999,9999,9999,1744753740
18,17,Jits_Phase_5,87,9999,9999,9999,9999,1745253500
18,17,Jits_Phase_5,88,9999,9999,9999,9999,1745753184
18,17,Jits_Phase_5,89,9999,9999,9999,9999,1746253896
18,17,Jits_Phase_5,90,9999,9999,9999,9999,1746753652
18,17,Jits_Phase_5,91,9999,9999,9999,9999,1747253340
18,17,Jits_Phase_5,92,9999,9999,9999,9999,1747754108
18,17,Jits_Phase_5,93,9999,9999,9999,9999,1748253784
18,17,Jits_Phase_5,94,9999,9999,9999,9999,1748753532
18,17,Jits_Phase_5,95,9999,9999,9999,9999,1749253224
18,17,Jits_Phase_5,96,9999,9999,9999,9999,1749753960
18,17,Jits_Phase_5,97,9999,9999,9999,9999,1750203512
18,17,Jits_Phase_5,98,9999,9999,9999,9999,1750703188
18,17,Jits_Phase_5,99,9999,9999,9999,9999,1751203920
18,17,Jits_Phase_5,100,9999,9999,9999,9999,1751703672
18,17,Jits_Phase_5,101,9999,9999,9999,9999,1752203348
18,17,Jits_Phase_5,102,9999,9999,9999,9999,1752704060
18,17,Jits_Phase_5,103,9999,9999,9999,9999,1753214008
18,17,Jits_Phase_5,104,9999,9999,9999,9999,1753713768
18,17,Jits_Phase_5,105,9999,9999,9999,9999,1754213488
18,17,Jits_Phase_5,106,9999,9999,9999,9999,1754713160
18,17,Jits_Phase_5,107,9999,9999,9999,9999,1755213928
18,17,Jits_Phase_5,108,9999,9999,9999,9999,1755713608
18,17,Jits_Phase_5,109,9999,9999,9999,9999,1756213356
18,17,Jits_Phase_5,110,9999,9999,9999,9999,1756714092
18,17,Jits_Phase_5,111,9999,9999,9999,9999,1757213780
18,17,Jits_Phase_5,112,9999,9999,9999,9999,1757713468
18,17,Jits_Phase_5,113,9999,9999,9999,9999,1758213220
18,17,Jits_Phase_5,114,9999,9999,9999,9999,1758763084
18,17,Jits_Phase_5,115,9999,9999,9999,9999,1759263800
18,17,Jits_Phase_5,116,9999,9999,9999,9999,1759763548
18,17,Jits_Phase_5,117,9999,9999,9999,9999,1760263240
18,17,Jits_Phase_5,118,9999,9999,9999,9999,1760764028
18,17,Jits_Phase_5,119,9999,9999,9999,9999,1761263696
18,17,Jits_Phase_5,120,9999,9999,9999,9999,1761763456
18,17,Jits_Phase_5,121,9999,9999,9999,9999,1762263132
18,17,Jits_Phase_5,122,9999,9999,9999,9999,1762763868
18,17,Jits_Phase_5,123,9999,9999,9999,9999,1763263556
18,17,Jits_Phase_5,124,9999,9999,9999,9999,1763763300
18,17,Jits_Phase_5,125,9999,9999,9999,9999,1764264020
18,17,Jits_Phase_5,126,9999,9999,9999,9999,1764763712
18,17,Jits_Phase_5,127,9999,9999,9999,9999,1765263456
18,17,Jits_Phase_5,128,9999,9999,9999,9999,1765763136
18,17,Jits_Phase_5,129,9999,9999,9999,9999,1766263868
18,17,Jits_Phase_5,130,9999,9999,9999,9999,1766763632
18,17,Jits_Phase_5,131,9999,9999,9999,9999,1767363692
18,17,Jits_Phase_5,132,9999,9999,9999,9999,1767863360
18,17,Jits_Phase_5,133,9999,9999,9999,9999,1768363112
18,17,Jits_Phase_5,134,9999,9999,9999,9999,1768863824
18,17,Jits_Phase_5,135,9999,9999,9999,9999,1769363512
18,17,Jits_Phase_5,136,9999,9999,9999,9999,1769863276
18,17,Jits_Phase_5,137,9999,9999,9999,9999,1770363996
18,17,Jits_Phase_5,138,9999,9999,9999,9999,1770863672
18,17,Jits_Phase_5,139,9999,9999,9999,9999,1771363436
18,17,Jits_Phase_5,140,9999,9999,9999,9999,1771863112
18,17,Jits_Phase_5,141,9999,9999,9999,9999,1772363900
18,17,Jits_Phase_5,142,9999,9999,9999,9999,1772863580
18,17,Jits_Phase_5,143,9999,9999,9999,9999,1773363272
18,17,Jits_Phase_5,144,9999,9999,9999,9999,1773864000
18,17,Jits_Phase_5,145,9999,9999,9999,9999,1774363752
18,17,Jits_Phase_5,146,9999,9999,9999,9999,1774863448
18,17,Jits_Phase_5,147,9999,9999,9999,9999,1775363196
18,17,Jits_Phase_5,148,9999,9999,9999,9999,1775863912
18,17,Jits_Phase_5,149,9999,9999,9999,9999,1776363604
18,17,Jits_Phase_5,150,9999,9999,9999,9999,1776764020
18,17,Jits_Phase_5,151,9999,9999,9999,9999,1777263704
18,17,Jits_Phase_5,152,9999,9999,9999,9999,1777763392
18,17,Jits_Phase_5,153,9999,9999,9999,9999,1778263132
18,17,Jits_Phase_5,154,9999,9999,9999,9999,1778763900
18,17,Jits_Phase_5,155,9999,9999,9999,9999,1779263580
18,17,Jits_Phase_5,156,9999,9999,9999,9999,1779763320
18,17,Jits_Phase_5,157,9999,9999,9999,9999,1780264036
18,17,Jits_Phase_5,158,9999,9999,9999,9999,1780763712
18,17,Jits_Phase_5,159,9999,9999,9999,9999,1781263460
18,17,Jits_Phase_5,160,9999,9999,9999,9999,1781763152
18,17,Jits_Phase_5,161,9999,9999,9999,9999,1782263892
18,17,Jits_Phase_5,162,9999,9999,9999,9999,1782763640
18,17,Jits_Phase_5,163,9999,9999,9999,9999,1783263332
18,17,Jits_Phase_5,164,9999,9999,9999,9999,1783764052
18,17,Jits_Phase_5,165,9999,9999,9999,9999,1784263800
18,17,Jits_Phase_5,166,9999,9999,9999,9999,1784763488
18,17,Jits_Phase_5,167,9999,9999,9999,9999,1785263180
18,17,Jits_Phase_5,168,9999,9999,9999,9999,1785763904
18,17,Jits_Phase_5,169,9999,9999,9999,9999,1786263652
19,15,Jits_Phase_8,0,5,56,103,1795145328
19,15,Jits_Phase_8,1,5,63,98,1795148352
19,15,Jits_Phase_8,2,5,80,127,1795151396
19,15,Jits_Phase_8,0,1,48,38,1795731716
19,15,Jits_Phase_8,1,5,56,103,1795944744
19,15,Jits_Phase_8,2,5,63,98,1795948148
19,15,Jits_Phase_8,3,5,80,127,1795951120
19,15,Jits_Phase_8,0,5,80,127,1796685160
19,15,Jits_Phase_8,1,1,48,29,1796735136
19,15,Jits_Phase_8,2,5,63,98,1796775388
19,15,Jits_Phase_8,3,5,56,103,1796784464
19,15,Jits_Phase_8,0,5,56,103,1797505340
19,15,Jits_Phase_8,1,5,63,98,1797514636
19,15,Jits_Phase_8,2,1,48,34,1797588328
19,15,Jits_Phase_8,3,5,80,127,1797604612
19,15,Jits_Phase_8,0,5,63,98,1798274396
19,15,Jits_Phase_8,1,5,80,127,1798305268
19,15,Jits_Phase_8,2,5,56,103,1798334792
19,15,Jits_Phase_8,3,1,48,39,1798338588
19,15,Jits_Phase_8,0,1,48,40,1799069388
19,15,Jits_Phase_8,1,5,56,103,1799075412
19,15,Jits_Phase_8,2,5,80,127,1799174448
19,15,Jits_Phase_8,3,5,63,98,1799224648
19,15,Jits_Phase_8,0,5,56,103,1799875028
19,15,Jits_Phase_8,1,1,48,40,1799880840
19,15,Jits_Phase_8,2,5,80,127,1799925224
19,15,Jits_Phase_8,3,5,63,98,1799965308
19,15,Jits_Phase_8,0,1,48,36,1800700084
19,15,Jits_Phase_8,1,5,80,127,1800705360
19,15,Jits_Phase_8,2,5,63,98,1800735256
19,15,Jits_Phase_8,3,5,56,103,1800804724
19,15,Jits_Phase_8,0,1,48,44,1801518800
19,15,Jits_Phase_8,1,5,63,98,1801534936
19,15,Jits_Phase_8,2,5,56,103,1801564640
19,15,Jits_Phase_8,3,5,80,127,1801624936
19,15,Jits_Phase_8,0,5,56,103,1802275292
19,15,Jits_Phase_8,1,5,80,127,1802278284
19,15,Jits_Phase_8,2,1,48,38,1802341588
19,15,Jits_Phase_8,3,5,63,98,1802395184
19,15,Jits_Phase_8,0,1,48,40,1803138352
19,15,Jits_Phase_8,1,5,56,103,1803155088
19,15,Jits_Phase_8,2,5,80,127,1803194876
19,15,Jits_Phase_8,3,5,63,98,1803205148
19,15,Jits_Phase_8,0,5,56,103,1803914480
19,15,Jits_Phase_8,1,5,80,127,1803935088
19,15,Jits_Phase_8,2,1,48,46,1803950932
19,15,Jits_Phase_8,3,5,63,98,1804015096
19,15,Jits_Phase_8,0,5,80,127,1804705256
19,15,Jits_Phase_8,1,1,48,44,1804731072
19,15,Jits_Phase_8,2,5,56,103,1804804604
19,15,Jits_Phase_8,3,5,63,98,1804814872
19,15,Jits_Phase_8,0,5,63,98,1805475364
19,15,Jits_Phase_8,1,5,80,127,1805534560
19,15,Jits_Phase_8,2,5,56,103,1805544756
19,15,Jits_Phase_8,3,1,48,44,1805552360
19,15,Jits_Phase_8,0,5,56,103,1806275192
19,15,Jits_Phase_8,1,1,48,55,1806341012
19,15,Jits_Phase_8,2,5,63,98,1806344568
19,15,Jits_Phase_8,3,5,80,127,1806348156
19,15,Jits_Phase_8,0,1,48,44,1807098296
19,15,Jits_Phase_8,1,5,63,98,1807105368
19,15,Jits_Phase_8,2,5,56,103,1807154520
19,15,Jits_Phase_8,3,5,80,127,1807158032
19,15,Jits_Phase_8,0,1,48,49,1807821688
19,15,Jits_Phase_8,1,5,56,103,1807865096
19,15,Jits_Phase_8,2,5,80,127,1807868468
19,15,Jits_Phase_8,3,5,63,98,1807955244
19,15,Jits_Phase_8,0,1,48,50,1808580596
19,15,Jits_Phase_8,1,5,63,98,1808704912
19,15,Jits_Phase_8,2,5,56,103,1808795300
19,15,Jits_Phase_8,3,5,80,127,1808824600
19,15,Jits_Phase_8,0,1,48,43,1809469528
19,15,Jits_Phase_8,1,5,56,103,1809495352
19,15,Jits_Phase_8,2,5,63,98,1809594912
19,15,Jits_Phase_8,3,5,80,127,1809624436
19,15,Jits_Phase_8,0,5,63,98,1810314752
19,15,Jits_Phase_8,1,5,56,103,1810325020
19,15,Jits_Phase_8,2,1,48,47,1810329188
19,15,Jits_Phase_8,3,5,80,127,1810415144
19,15,Jits_Phase_8,0,1,48,46,1811125716
19,15,Jits_Phase_8,1,5,63,98,1811134884
19,15,Jits_Phase_8,2,5,56,103,1811214676
19,15,Jits_Phase_8,3,5,80,127,1811218552
19,15,Jits_Phase_8,0,5,80,127,1811894712
19,15,Jits_Phase_8,1,5,63,98,1811915096
19,15,Jits_Phase_8,2,1,48,44,1811941284
19,15,Jits_Phase_8,3,5,56,103,1811974432
19,15,Jits_Phase_8,0,1,48,49,1812731080
19,15,Jits_Phase_8,1,5,56,103,1812735308
19,15,Jits_Phase_8,2,5,63,98,1812754944
19,15,Jits_Phase_8,3,5,80,127,1812758232
19,15,Jits_Phase_8,0,5,63,98,1813474676
19,15,Jits_Phase_8,1,1,48,45,1813509108
19,15,Jits_Phase_8,2,5,80,127,1813554540
19,15,Jits_Phase_8,3,5,56,103,1813564884
19,15,Jits_Phase_8,0,1,48,41,1814292840
19,15,Jits_Phase_8,1,5,63,98,1814295028
19,15,Jits_Phase_8,2,5,56,103,1814315412
19,15,Jits_Phase_8,3,5,80,127,1814364516
19,15,Jits_Phase_8,0,1,48,41,1815077596
19,15,Jits_Phase_8,1,5,80,127,1815094784
19,15,Jits_Phase_8,2,5,63,98,1815134524
19,15,Jits_Phase_8,3,5,56,103,1815155056
19,15,Jits_Phase_8,4,1,48,13,1815192704
19,15,Jits_Phase_8,0,1,48,46,1815909320
19,15,Jits_Phase_8,1,5,56,103,1815935204
19,15,Jits_Phase_8,2,5,63,98,1815944576
19,15,Jits_Phase_8,3,5,80,127,1815964960
19,15,Jits_Phase_8,0,5,56,103,1816664540
19,15,Jits_Phase_8,1,1,48,42,1816739132
19,15,Jits_Phase_8,2,5,63,98,1816754596
19,15,Jits_Phase_8,3,5,80,127,1816814908
19,15,Jits_Phase_8,0,5,80,127,1817495032
19,15,Jits_Phase_8,1,5,56,103,1817505080
19,15,Jits_Phase_8,2,1,48,43,1817514052
19,15,Jits_Phase_8,3,5,63,98,1817574900
19,15,Jits_Phase_8,0,1,48,44,1818301956
19,15,Jits_Phase_8,1,5,63,98,1818325292
19,15,Jits_Phase_8,2,5,80,127,1818414588
19,15,Jits_Phase_8,3,5,56,103,1818425080
19,15,Jits_Phase_8,0,5,63,98,1819054416
19,15,Jits_Phase_8,1,5,80,127,1819104840
19,15,Jits_Phase_8,2,1,48,41,1819109904
19,15,Jits_Phase_8,3,5,56,103,1819165148
19,15,Jits_Phase_8,0,5,56,103,1819874920
19,15,Jits_Phase_8,1,1,48,39,1819903816
19,15,Jits_Phase_8,2,5,80,127,1819925040
19,15,Jits_Phase_8,3,5,63,98,1819945424
19,15,Jits_Phase_8,0,5,56,103,1820644648
19,15,Jits_Phase_8,1,1,48,38,1820663580
19,15,Jits_Phase_8,2,5,80,127,1820705256
19,15,Jits_Phase_8,3,5,63,98,1820774872
19,15,Jits_Phase_8,0,5,56,103,1821444420
19,15,Jits_Phase_8,1,5,80,127,1821475292
19,15,Jits_Phase_8,2,1,48,43,1821484040
19,15,Jits_Phase_8,3,5,63,98,1821504960
19,15,Jits_Phase_8,0,5,56,103,1822285092
19,15,Jits_Phase_8,1,1,48,39,1822286132
19,15,Jits_Phase_8,2,5,80,127,1822304896
19,15,Jits_Phase_8,3,5,63,98,1822365060
19,15,Jits_Phase_8,0,1,48,43,1823082224
19,15,Jits_Phase_8,1,5,80,127,1823164828
19,15,Jits_Phase_8,2,5,56,103,1823175156
19,15,Jits_Phase_8,3,5,63,98,1823185204
19,15,Jits_Phase_8,0,5,56,103,1823924740
19,15,Jits_Phase_8,1,1,48,42,1823927260
19,15,Jits_Phase_8,2,5,80,127,1823964672
19,15,Jits_Phase_8,3,5,63,98,1823995244
19,15,Jits_Phase_8,0,5,56,103,1824695000
19,15,Jits_Phase_8,1,5,63,98,1824725352
19,15,Jits_Phase_8,2,1,48,40,1824759780
19,15,Jits_Phase_8,3,5,80,127,1824765208
19,15,Jits_Phase_8,4,1,48,15,1824892828
19,15,Jits_Phase_8,0,5,80,127,1825445280
19,15,Jits_Phase_8,1,1,48,36,1825495032
19,15,Jits_Phase_8,2,5,63,98,1825496672
19,15,Jits_Phase_8,3,5,56,103,1825514812
19,15,Jits_Phase_8,0,5,56,103,1826274792
19,15,Jits_Phase_8,1,1,48,26,1826313656
19,15,Jits_Phase_8,2,5,80,127,1826345216
19,15,Jits_Phase_8,3,5,63,98,1826404804
19,15,Jits_Phase_8,0,5,80,127,1827074420
19,15,Jits_Phase_8,1,5,63,98,1827164652
19,15,Jits_Phase_8,2,5,56,103,1827185112
19,15,Jits_Phase_8,3,1,48,51,1827205088
19,15,Jits_Phase_8,0,5,63,98,1827894572
19,15,Jits_Phase_8,1,5,56,103,1827915108
19,15,Jits_Phase_8,2,5,80,127,1827954920
19,15,Jits_Phase_8,3,1,48,41,1828050696
19,15,Jits_Phase_8,0,5,80,127,1828654692
19,15,Jits_Phase_8,1,5,63,98,1828674856
19,15,Jits_Phase_8,2,5,56,103,1828754900
19,15,Jits_Phase_8,3,1,48,14,1828931280
19,15,Jits_Phase_8,0,5,63,98,1829444948
19,15,Jits_Phase_8,1,5,56,103,1829554660
19,15,Jits_Phase_8,2,5,80,127,1829557580
19,15,Jits_Phase_8,3,1,48,44,1829723220
19,15,Jits_Phase_8,0,5,63,98,1830265100
19,15,Jits_Phase_8,1,5,56,103,1830274544
19,15,Jits_Phase_8,2,5,80,127,1830277612
19,15,Jits_Phase_8,3,1,48,32,1830401116
19,15,Jits_Phase_8,0,5,56,103,1831044388
19,15,Jits_Phase_8,1,1,48,30,1831084152
19,15,Jits_Phase_8,2,5,80,127,1831165232
19,15,Jits_Phase_8,3,5,63,98,1831205152
19,15,Jits_Phase_8,0,5,56,103,1831864616
19,15,Jits_Phase_8,1,1,48,30,1831907444
19,15,Jits_Phase_8,2,5,80,127,1831944928
19,15,Jits_Phase_8,3,5,63,98,1831965088
19,15,Jits_Phase_8,0,5,56,103,1832664392
19,15,Jits_Phase_8,1,1,48,35,1832668336
19,15,Jits_Phase_8,2,5,63,98,1832774956
19,15,Jits_Phase_8,3,5,80,127,1832778544
19,15,Jits_Phase_8,0,1,48,38,1833401032
19,15,Jits_Phase_8,1,5,56,103,1833505268
19,15,Jits_Phase_8,2,5,80,127,1833534944
19,15,Jits_Phase_8,3,5,63,98,1833555280
19,15,Jits_Phase_8,0,1,48,36,1834247924
19,15,Jits_Phase_8,1,5,63,98,1834294780
19,15,Jits_Phase_8,2,5,56,103,1834304976
19,15,Jits_Phase_8,3,5,80,127,1834315096
19,15,Jits_Phase_8,0,1,48,37,1835056148
19,15,Jits_Phase_8,1,5,80,127,1835085164
19,15,Jits_Phase_8,2,5,56,103,1835135468
19,15,Jits_Phase_8,3,5,63,98,1835175240
19,15,Jits_Phase_8,0,5,80,127,1835905776
19,15,Jits_Phase_8,1,1,48,37,1835910696
19,15,Jits_Phase_8,2,5,63,98,1835924740
19,15,Jits_Phase_8,3,5,56,103,1835975160
19,15,Jits_Phase_8,0,1,48,43,1836702288
19,15,Jits_Phase_8,1,5,80,127,1836715508
19,15,Jits_Phase_8,2,5,56,103,1836744964
19,15,Jits_Phase_8,3,5,63,98,1836814776
19,15,Jits_Phase_8,0,1,48,36,1837496064
19,15,Jits_Phase_8,1,5,56,103,1837565244
19,15,Jits_Phase_8,2,5,80,127,1837574768
19,15,Jits_Phase_8,3,5,63,98,1837614540
19,15,Jits_Phase_8,0,5,56,103,1838274888
19,15,Jits_Phase_8,1,5,63,98,1838295720
19,15,Jits_Phase_8,2,1,48,39,1838341388
19,15,Jits_Phase_8,3,5,80,127,1838364944
19,15,Jits_Phase_8,0,1,48,39,1839086160
19,15,Jits_Phase_8,1,5,63,98,1839095100
19,15,Jits_Phase_8,2,5,80,127,1839154744
19,15,Jits_Phase_8,3,5,56,103,1839174980
19,15,Jits_Phase_8,0,5,80,127,1839884528
19,15,Jits_Phase_8,1,1,48,36,1839889668
19,15,Jits_Phase_8,2,5,56,103,1839915540
19,15,Jits_Phase_8,3,5,63,98,1839945216
19,15,Jits_Phase_8,0,1,48,34,1840681928
19,15,Jits_Phase_8,1,5,56,103,1840685636
19,15,Jits_Phase_8,2,5,63,98,1840744712
19,15,Jits_Phase_8,3,5,80,127,1840805456
19,15,Jits_Phase_8,0,1,48,40,1841485896
19,15,Jits_Phase_8,1,5,80,127,1841504652
19,15,Jits_Phase_8,2,5,56,103,1841524960
19,15,Jits_Phase_8,3,5,63,98,1841594700
19,15,Jits_Phase_8,0,1,48,42,1842283332
19,15,Jits_Phase_8,1,5,80,127,1842305828
19,15,Jits_Phase_8,2,5,63,98,1842324868
19,15,Jits_Phase_8,3,5,56,103,1842354692
19,15,Jits_Phase_8,0,1,48,42,1843073648
19,15,Jits_Phase_8,1,5,80,127,1843094872
19,15,Jits_Phase_8,2,5,63,98,1843115632
19,15,Jits_Phase_8,3,5,56,103,1843174732
19,15,Jits_Phase_8,0,1,48,41,1843841252
19,15,Jits_Phase_8,1,5,80,127,1843894628
19,15,Jits_Phase_8,2,5,56,103,1843994864
19,15,Jits_Phase_8,3,5,63,98,1844024688
19,15,Jits_Phase_8,0,5,63,98,1844685104
19,15,Jits_Phase_8,1,5,80,127,1844735604
19,15,Jits_Phase_8,2,5,56,103,1844754720
19,15,Jits_Phase_8,3,1,48,43,1844764740
19,15,Jits_Phase_8,0,1,48,38,1845517344
19,15,Jits_Phase_8,1,5,80,127,1845524860
19,15,Jits_Phase_8,2,5,56,103,1845554608
19,15,Jits_Phase_8,3,5,63,98,1845557528
19,15,Jits_Phase_8,0,1,48,35,1846288240
19,15,Jits_Phase_8,1,5,63,98,1846374756
19,15,Jits_Phase_8,2,5,56,103,1846414684
19,15,Jits_Phase_8,3,5,80,127,1846435364
19,15,Jits_Phase_8,0,5,80,127,1847134664
19,15,Jits_Phase_8,1,1,48,40,1847153596
19,15,Jits_Phase_8,2,5,63,98,1847214528
19,15,Jits_Phase_8,3,5,56,103,1847255720
19,15,Jits_Phase_8,0,5,63,98,1847954820
19,15,Jits_Phase_8,1,5,80,127,1848034692
19,15,Jits_Phase_8,2,1,48,40,1848047776
19,15,Jits_Phase_8,3,5,56,103,1848055588
19,15,Jits_Phase_8,0,5,56,103,1848794444
19,15,Jits_Phase_8,1,5,63,98,1848804864
19,15,Jits_Phase_8,2,1,48,43,1848836380
19,15,Jits_Phase_8,3,5,80,127,1848844720
19,15,Jits_Phase_8,0,5,56,103,1849515396
19,15,Jits_Phase_8,1,5,80,127,1849518536
19,15,Jits_Phase_8,2,1,48,40,1849624824
19,15,Jits_Phase_8,3,5,63,98,1849654664
19,15,Jits_Phase_8,0,5,56,103,1850304820
19,15,Jits_Phase_8,1,1,48,43,1850363164
19,15,Jits_Phase_8,2,5,63,98,1850395096
19,15,Jits_Phase_8,3,5,80,127,1850464560
19,15,Jits_Phase_8,0,1,48,37,1851148388
19,15,Jits_Phase_8,1,5,63,98,1851184524
19,15,Jits_Phase_8,2,5,80,127,1851187964
19,15,Jits_Phase_8,3,5,56,103,1851245520
19,15,Jits_Phase_8,0,1,48,44,1851928056
19,15,Jits_Phase_8,1,5,80,127,1852025284
19,15,Jits_Phase_8,2,5,56,103,1852044680
19,15,Jits_Phase_8,3,5,63,98,1852054876
19,15,Jits_Phase_8,0,5,56,103,1852734824
19,15,Jits_Phase_8,1,5,63,98,1852745396
19,15,Jits_Phase_8,2,1,48,38,1852792976
19,15,Jits_Phase_8,3,5,80,127,1852814720
19,15,Jits_Phase_8,0,1,48,43,1853497476
19,15,Jits_Phase_8,1,5,80,127,1853534464
19,15,Jits_Phase_8,2,5,56,103,1853584740
19,15,Jits_Phase_8,3,5,63,98,1853635372
19,15,Jits_Phase_8,0,1,48,42,1854323788
19,15,Jits_Phase_8,1,5,56,103,1854415360
19,15,Jits_Phase_8,2,5,63,98,1854424420
19,15,Jits_Phase_8,3,5,80,127,1854465480
19,15,Jits_Phase_8,0,5,56,103,1855154524
19,15,Jits_Phase_8,1,1,48,41,1855172168
19,15,Jits_Phase_8,2,5,63,98,1855194532
19,15,Jits_Phase_8,3,5,80,127,1855244584
19,15,Jits_Phase_8,0,5,80,127,1855915340
19,15,Jits_Phase_8,1,1,48,40,1855938908
19,15,Jits_Phase_8,2,5,56,103,1855964708
19,15,Jits_Phase_8,3,5,63,98,1855985092
19,15,Jits_Phase_8,0,1,48,41,1856695448
19,15,Jits_Phase_8,1,5,80,127,1856725364
19,15,Jits_Phase_8,2,5,63,98,1856784712
19,15,Jits_Phase_8,3,5,56,103,1856864736
19,15,Jits_Phase_8,0,1,48,41,1857480288
19,15,Jits_Phase_8,1,5,80,127,1857504672
19,15,Jits_Phase_8,2,5,56,103,1857544536
19,15,Jits_Phase_8,3,5,63,98,1857565292
19,15,Jits_Phase_8,0,1,48,44,1858270676
19,15,Jits_Phase_8,1,5,56,103,1858354620
19,15,Jits_Phase_8,2,5,80,127,1858364744
19,15,Jits_Phase_8,3,5,63,98,1858404616
19,15,Jits_Phase_8,0,1,48,41,1859121528
19,15,Jits_Phase_8,1,5,56,103,1859225036
19,15,Jits_Phase_8,2,5,63,98,1859265124
19,15,Jits_Phase_8,3,5,80,127,1859268416
19,15,Jits_Phase_8,0,5,63,98,1859894508
19,15,Jits_Phase_8,1,5,80,127,1859934548
19,15,Jits_Phase_8,2,1,48,37,1859992888
19,15,Jits_Phase_8,3,5,56,103,1860005264
19,15,Jits_Phase_8,0,5,63,98,1860664820
19,15,Jits_Phase_8,1,1,48,44,1860696056
19,15,Jits_Phase_8,2,5,56,103,1860744560
19,15,Jits_Phase_8,3,5,80,127,1860805084
19,15,Jits_Phase_8,0,1,48,43,1861465396
19,15,Jits_Phase_8,1,5,80,127,1861474784
19,15,Jits_Phase_8,2,5,63,98,1861525136
19,15,Jits_Phase_8,3,5,56,103,1861554512
19,15,Jits_Phase_8,0,5,56,103,1862265332
19,15,Jits_Phase_8,1,1,48,36,1862274600
19,15,Jits_Phase_8,2,5,63,98,1862315304
19,15,Jits_Phase_8,3,5,80,127,1862324604
19,15,Jits_Phase_8,0,1,48,43,1863052640
19,15,Jits_Phase_8,1,5,56,103,1863075132
19,15,Jits_Phase_8,2,5,63,98,1863184880
19,15,Jits_Phase_8,3,5,80,127,1863205192
19,15,Jits_Phase_8,0,5,63,98,1863875124
19,15,Jits_Phase_8,1,1,48,39,1863876092
19,15,Jits_Phase_8,2,5,80,127,1863925172
19,15,Jits_Phase_8,3,5,56,103,1864015164
19,15,Jits_Phase_8,0,1,48,45,1864617532
19,15,Jits_Phase_8,1,5,63,98,1864664540
19,15,Jits_Phase_8,2,5,80,127,1864695112
19,15,Jits_Phase_8,3,5,56,103,1864785404
19,15,Jits_Phase_8,0,1,48,40,1865385896
19,15,Jits_Phase_8,1,5,63,98,1865465268
19,15,Jits_Phase_8,2,5,56,103,1865474344
19,15,Jits_Phase_8,3,5,80,127,1865574896
19,15,Jits_Phase_8,0,1,48,40,1866165576
19,15,Jits_Phase_8,1,5,63,98,1866365204
19,15,Jits_Phase_8,2,5,80,127,1866395176
19,15,Jits_Phase_8,3,5,56,103,1866424776
19,15,Jits_Phase_8,0,1,48,46,1867144660
19,15,Jits_Phase_8,1,5,80,127,1867184540
19,15,Jits_Phase_8,2,5,63,98,1867194812
19,15,Jits_Phase_8,3,5,56,103,1867224340
19,15,Jits_Phase_8,0,5,80,127,1867885044
19,15,Jits_Phase_8,1,5,63,98,1867905356
19,15,Jits_Phase_8,2,5,56,103,1867954508
19,15,Jits_Phase_8,3,1,48,41,1867963924
19,15,Jits_Phase_8,0,5,63,98,1868715232
19,15,Jits_Phase_8,1,1,48,42,1868751012
19,15,Jits_Phase_8,2,5,80,127,1868774716
19,15,Jits_Phase_8,3,5,56,103,1868795100
19,15,Jits_Phase_8,0,5,63,98,1869475060
19,15,Jits_Phase_8,1,5,56,103,1869525336
19,15,Jits_Phase_8,2,1,48,42,1869530472
19,15,Jits_Phase_8,3,5,80,127,1869535072
19,15,Jits_Phase_8,0,1,48,41,1870299868
19,15,Jits_Phase_8,1,5,56,103,1870304548
19,15,Jits_Phase_8,2,5,80,127,1870314968
19,15,Jits_Phase_8,3,5,63,98,1870415220
19,15,Jits_Phase_8,0,1,48,43,1871052052
19,15,Jits_Phase_8,1,5,80,127,1871064300
19,15,Jits_Phase_8,2,5,63,98,1871074792
19,15,Jits_Phase_8,3,5,56,103,1871225240
19,15,Jits_Phase_8,0,1,48,40,1871836760
19,15,Jits_Phase_8,1,5,63,98,1871874472
19,15,Jits_Phase_8,2,5,80,127,1871915308
19,15,Jits_Phase_8,3,5,56,103,1871995336
19,15,Jits_Phase_8,0,5,56,103,1872625016
19,15,Jits_Phase_8,1,1,48,38,1872678404
19,15,Jits_Phase_8,2,5,80,127,1872725356
19,15,Jits_Phase_8,3,5,63,98,1872744992
19,15,Jits_Phase_8,0,5,80,127,1873445172
19,15,Jits_Phase_8,1,5,56,103,1873454472
19,15,Jits_Phase_8,2,1,48,37,1873486236
19,15,Jits_Phase_8,3,5,63,98,1873544692
19,15,Jits_Phase_8,0,1,48,42,1874225060
19,15,Jits_Phase_8,1,5,56,103,1874245092
19,15,Jits_Phase_8,2,5,63,98,1874264308
19,15,Jits_Phase_8,3,5,80,127,1874345428
19,15,Jits_Phase_8,0,5,63,98,1874994512
19,15,Jits_Phase_8,1,1,48,39,1874998004
19,15,Jits_Phase_8,2,5,56,103,1875084588
19,15,Jits_Phase_8,3,5,80,127,1875087804
19,15,Jits_Phase_8,0,1,48,41,1875792664
19,15,Jits_Phase_8,1,5,56,103,1875824920
19,15,Jits_Phase_8,2,5,80,127,1875885388
19,15,Jits_Phase_8,3,5,63,98,1875894820
19,15,Jits_Phase_8,0,1,48,40,1876575432
19,15,Jits_Phase_8,1,5,80,127,1876675012
19,15,Jits_Phase_8,2,5,56,103,1876685204
19,15,Jits_Phase_8,3,5,63,98,1876688420
19,15,Jits_Phase_8,0,1,48,42,1877388360
19,15,Jits_Phase_8,1,5,56,103,1877434764
19,15,Jits_Phase_8,2,5,80,127,1877445184
19,15,Jits_Phase_8,3,5,63,98,1877464372
19,15,Jits_Phase_8,0,1,48,40,1878160616
19,15,Jits_Phase_8,1,5,63,98,1878204776
19,15,Jits_Phase_8,2,5,80,127,1878265228
19,15,Jits_Phase_8,3,5,56,103,1878315356
19,15,Jits_Phase_8,0,1,48,40,1878917968
19,15,Jits_Phase_8,1,5,63,98,1879085360
19,15,Jits_Phase_8,2,5,56,103,1879094808
19,15,Jits_Phase_8,3,5,80,127,1879144808
19,15,Jits_Phase_8,0,1,48,37,1879738564
19,15,Jits_Phase_8,1,5,63,98,1879784968
19,15,Jits_Phase_8,2,5,80,127,1879805280
19,15,Jits_Phase_8,3,5,56,103,1879814504
19,15,Jits_Phase_8,0,1,48,42,1880553680
19,15,Jits_Phase_8,1,5,63,98,1880584492
19,15,Jits_Phase_8,2,5,80,127,1880587784
19,15,Jits_Phase_8,3,5,56,103,1880624432
19,15,Jits_Phase_8,0,1,48,33,1881284044
19,15,Jits_Phase_8,1,5,63,98,1881455048
19,15,Jits_Phase_8,2,5,80,127,1881484872
19,15,Jits_Phase_8,3,5,56,103,1881494992
19,15,Jits_Phase_8,0,1,48,41,1882155500
19,15,Jits_Phase_8,1,5,56,103,1882204476
19,15,Jits_Phase_8,2,5,80,127,1882235124
19,15,Jits_Phase_8,3,5,63,98,1882265008
19,15,Jits_Phase_8,0,1,48,35,1882944320
19,15,Jits_Phase_8,1,5,63,98,1883104908
19,15,Jits_Phase_8,2,5,56,103,1883144844
19,15,Jits_Phase_8,3,5,80,127,1883147764
19,15,Jits_Phase_8,0,1,48,41,1883780200
19,15,Jits_Phase_8,1,5,80,127,1883805032
19,15,Jits_Phase_8,2,5,56,103,1883885036
19,15,Jits_Phase_8,3,5,63,98,1883935012
19,15,Jits_Phase_8,0,5,80,127,1884585244
19,15,Jits_Phase_8,1,5,56,103,1884604952
19,15,Jits_Phase_8,2,1,48,36,1884660432
19,15,Jits_Phase_8,3,5,63,98,1884694852
19,15,Jits_Phase_8,0,5,80,127,1885425092
19,15,Jits_Phase_8,1,5,63,98,1885465032
19,15,Jits_Phase_8,2,1,48,45,1885467852
19,15,Jits_Phase_8,3,5,56,103,1885504888
19,15,Jits_Phase_8,0,5,63,98,1886234984
19,15,Jits_Phase_8,1,1,48,42,1886276236
19,15,Jits_Phase_8,2,5,80,127,1886295392
19,15,Jits_Phase_8,3,5,56,103,1886325140
19,15,Jits_Phase_8,0,5,56,103,1887074768
19,15,Jits_Phase_8,1,1,48,43,1887085980
19,15,Jits_Phase_8,2,5,80,127,1887105332
19,15,Jits_Phase_8,3,5,63,98,1887194700
19,15,Jits_Phase_8,0,1,48,51,1887858540
19,15,Jits_Phase_8,1,5,56,103,1887884720
19,15,Jits_Phase_8,2,5,80,127,1887995368
19,15,Jits_Phase_8,3,5,63,98,1888025044
19,15,Jits_Phase_8,0,1,48,50,1888651560
19,15,Jits_Phase_8,1,5,56,103,1888734608
19,15,Jits_Phase_8,2,5,63,98,1888795132
19,15,Jits_Phase_8,3,5,80,127,1888824808
19,15,Jits_Phase_8,0,1,48,48,1889475080
19,15,Jits_Phase_8,1,5,56,103,1889504848
19,15,Jits_Phase_8,2,5,63,98,1889575192
19,15,Jits_Phase_8,3,5,80,127,1889594752
19,15,Jits_Phase_8,0,5,80,127,1890274572
19,15,Jits_Phase_8,1,5,63,98,1890295256
19,15,Jits_Phase_8,2,1,48,43,1890311028
19,15,Jits_Phase_8,3,5,56,103,1890345672
19,15,Jits_Phase_8,0,1,48,45,1891086520
19,15,Jits_Phase_8,1,5,63,98,1891094936
19,15,Jits_Phase_8,2,5,80,127,1891105280
19,15,Jits_Phase_8,3,5,56,103,1891155208
19,15,Jits_Phase_8,0,5,63,98,1891894700
19,15,Jits_Phase_8,1,5,80,127,1891965228
19,15,Jits_Phase_8,2,1,48,55,1891970444
19,15,Jits_Phase_8,3,5,56,103,1891984708
19,15,Jits_Phase_8,0,5,63,98,1892725124
19,15,Jits_Phase_8,1,5,80,127,1892728636
19,15,Jits_Phase_8,2,5,56,103,1892794728
19,15,Jits_Phase_8,3,1,48,49,1892809604
19,15,Jits_Phase_8,0,5,80,127,1893474752
19,15,Jits_Phase_8,1,5,56,103,1893495212
19,15,Jits_Phase_8,2,5,63,98,1893505556
19,15,Jits_Phase_8,3,1,48,47,1893603672
19,15,Jits_Phase_8,0,5,56,103,1894294824
19,15,Jits_Phase_8,1,5,63,98,1894384956
19,15,Jits_Phase_8,2,5,80,127,1894388244
19,15,Jits_Phase_8,3,1,48,50,1894719508
19,15,Jits_Phase_8,0,5,80,127,1895064844
19,15,Jits_Phase_8,1,5,56,103,1895075116
19,15,Jits_Phase_8,2,5,63,98,1895094600
19,15,Jits_Phase_8,0,1,48,39,1895582640
19,15,Jits_Phase_8,1,5,63,98,1895864548
19,15,Jits_Phase_8,2,5,80,127,1895925092
19,15,Jits_Phase_8,3,5,56,103,1895935436
19,15,Jits_Phase_8,0,1,48,37,1896557824
19,15,Jits_Phase_8,1,5,63,98,1896735028
19,15,Jits_Phase_8,2,5,80,127,1896765004
19,15,Jits_Phase_8,3,5,56,103,1896804668
19,15,Jits_Phase_8,0,5,56,103,1897524476
19,15,Jits_Phase_8,1,5,80,127,1897534744
19,15,Jits_Phase_8,2,5,63,98,1897574856
19,15,Jits_Phase_8,3,1,48,37,1897578652
19,15,Jits_Phase_8,0,5,80,127,1898285664
19,15,Jits_Phase_8,1,5,56,103,1898365408
19,15,Jits_Phase_8,2,5,63,98,1898374560
19,15,Jits_Phase_8,3,1,48,41,1898426820
19,15,Jits_Phase_8,0,5,80,127,1899135432
19,15,Jits_Phase_8,1,5,56,103,1899215080
19,15,Jits_Phase_8,2,5,63,98,1899224380
19,15,Jits_Phase_8,3,1,48,40,1899333352
19,15,Jits_Phase_8,0,5,80,127,1899975004
19,15,Jits_Phase_8,1,5,56,103,1900025056
19,15,Jits_Phase_8,2,5,63,98,1900075332
19,15,Jits_Phase_8,3,1,48,39,1900155488
19,15,Jits_Phase_8,0,5,56,103,1900915044
19,15,Jits_Phase_8,1,5,63,98,1900918188
19,15,Jits_Phase_8,2,5,80,127,1900965320
19,15,Jits_Phase_8,3,1,48,37,1900997504
19,15,Jits_Phase_8,0,5,56,103,1901735564
19,15,Jits_Phase_8,1,5,63,98,1901764944
19,15,Jits_Phase_8,2,5,80,127,1901775364
19,15,Jits_Phase_8,3,1,48,35,1901872360
19,15,Jits_Phase_8,0,5,63,98,1902444844
19,15,Jits_Phase_8,1,5,56,103,1902514600
19,15,Jits_Phase_8,2,5,80,127,1902564652
19,15,Jits_Phase_8,3,1,48,37,1902623812
19,15,Jits_Phase_8,0,5,63,98,1903275320
19,15,Jits_Phase_8,1,1,48,34,1903282256
19,15,Jits_Phase_8,2,5,56,103,1903284684
19,15,Jits_Phase_8,3,5,80,127,1903287676
19,15,Jits_Phase_8,0,5,80,127,1904024944
19,15,Jits_Phase_8,1,1,48,30,1904066124
19,15,Jits_Phase_8,2,5,56,103,1904085400
19,15,Jits_Phase_8,3,5,63,98,1904174396
19,15,Jits_Phase_8,0,5,80,127,1904824568
19,15,Jits_Phase_8,1,1,48,29,1904834504
19,15,Jits_Phase_8,2,5,56,103,1904925032
19,15,Jits_Phase_8,3,5,63,98,1904965104
19,15,Jits_Phase_8,0,5,56,103,1905674536
19,15,Jits_Phase_8,1,1,48,36,1905685528
19,15,Jits_Phase_8,2,5,63,98,1905695212
19,15,Jits_Phase_8,3,5,80,127,1905735076
19,15,Jits_Phase_8,0,5,63,98,1906444564
19,15,Jits_Phase_8,1,5,56,103,1906465248
19,15,Jits_Phase_8,2,1,48,38,1906473096
19,15,Jits_Phase_8,3,5,80,127,1906564536
19,15,Jits_Phase_8,0,1,48,39,1907214396
19,15,Jits_Phase_8,1,5,63,98,1907235392
19,15,Jits_Phase_8,2,5,80,127,1907344644
19,15,Jits_Phase_8,3,5,56,103,1907374320
19,15,Jits_Phase_8,0,1,48,40,1907980952
19,15,Jits_Phase_8,1,5,56,103,1908055560
19,15,Jits_Phase_8,2,5,63,98,1908085144
19,15,Jits_Phase_8,3,5,80,127,1908135492
19,15,Jits_Phase_8,0,1,48,35,1908787832
19,15,Jits_Phase_8,1,5,63,98,1908824376
19,15,Jits_Phase_8,2,5,56,103,1908855320
19,15,Jits_Phase_8,3,5,80,127,1908905360
19,15,Jits_Phase_8,0,1,48,39,1909549892
19,15,Jits_Phase_8,1,5,56,103,1909654756
19,15,Jits_Phase_8,2,5,63,98,1909675436
19,15,Jits_Phase_8,3,5,80,127,1909755380
19,15,Jits_Phase_8,0,1,48,35,1910409320
19,15,Jits_Phase_8,1,5,63,98,1910425380
19,15,Jits_Phase_8,2,5,56,103,1910485472
19,15,Jits_Phase_8,3,5,80,127,1910514984
19,15,Jits_Phase_8,0,1,48,41,1911191612
19,15,Jits_Phase_8,1,5,56,103,1911264624
19,15,Jits_Phase_8,2,5,80,127,1911325220
19,15,Jits_Phase_8,3,5,63,98,1911365308
19,15,Jits_Phase_8,0,5,63,98,1912044836
19,15,Jits_Phase_8,1,5,56,103,1912105380
19,15,Jits_Phase_8,2,1,48,42,1912122964
19,15,Jits_Phase_8,3,5,80,127,1912174852
19,15,Jits_Phase_8,0,1,48,38,1912910808
19,15,Jits_Phase_8,1,5,56,103,1912924556
19,15,Jits_Phase_8,2,5,63,98,1912934824
19,15,Jits_Phase_8,3,5,80,127,1912938336
19,15,Jits_Phase_8,0,5,63,98,1913665024
19,15,Jits_Phase_8,1,1,48,38,1913711392
19,15,Jits_Phase_8,2,5,56,103,1913725360
19,15,Jits_Phase_8,3,5,80,127,1913728276
19,15,Jits_Phase_8,0,5,63,98,1914445316
19,15,Jits_Phase_8,1,5,80,127,1914474996
19,15,Jits_Phase_8,2,1,48,35,1914487404
19,15,Jits_Phase_8,3,5,56,103,1914495300
19,15,Jits_Phase_8,0,5,56,103,1915175148
19,15,Jits_Phase_8,1,5,63,98,1915224404
19,15,Jits_Phase_8,2,1,48,37,1915293908
19,15,Jits_Phase_8,3,5,80,127,1915305312
19,15,Jits_Phase_8,0,5,80,127,1915874692
19,15,Jits_Phase_8,1,5,63,98,1915914484
19,15,Jits_Phase_8,2,5,56,103,1915935316
19,15,Jits_Phase_8,3,1,48,37,1916055628
19,15,Jits_Phase_8,0,1,48,39,1916693312
19,15,Jits_Phase_8,1,5,56,103,1916745256
19,15,Jits_Phase_8,2,5,80,127,1916755328
19,15,Jits_Phase_8,3,5,63,98,1916774816
19,15,Jits_Phase_8,0,1,48,41,1917461220
19,15,Jits_Phase_8,1,5,56,103,1917525264
19,15,Jits_Phase_8,2,5,63,98,1917574408
19,15,Jits_Phase_8,3,5,80,127,1917605276
19,15,Jits_Phase_8,0,5,56,103,1918275108
19,15,Jits_Phase_8,1,1,48,38,1918284580
19,15,Jits_Phase_8,2,5,63,98,1918286220
19,15,Jits_Phase_8,3,5,80,127,1918335300
19,15,Jits_Phase_8,0,1,48,40,1919054268
19,15,Jits_Phase_8,1,5,56,103,1919064480
19,15,Jits_Phase_8,2,5,80,127,1919067620
19,15,Jits_Phase_8,3,5,63,98,1919225236
19,15,Jits_Phase_8,0,1,48,41,1919883248
19,15,Jits_Phase_8,1,5,63,98,1919884680
19,15,Jits_Phase_8,2,5,56,103,1919955184
19,15,Jits_Phase_8,3,5,80,127,1919995184
19,15,Jits_Phase_8,0,1,48,41,1920724452
19,15,Jits_Phase_8,1,5,63,98,1920726096
19,15,Jits_Phase_8,2,5,56,103,1920814508
19,15,Jits_Phase_8,3,5,80,127,1920817500
19,15,Jits_Phase_8,0,5,56,103,1921504656
19,15,Jits_Phase_8,1,1,48,40,1921513628
19,15,Jits_Phase_8,2,5,63,98,1921594784
19,15,Jits_Phase_8,3,5,80,127,1921605052
19,15,Jits_Phase_8,0,1,48,42,1922260112
19,15,Jits_Phase_8,1,5,56,103,1922274604
19,15,Jits_Phase_8,2,5,63,98,1922325032
19,15,Jits_Phase_8,3,5,80,127,1922354616
19,15,Jits_Phase_8,0,1,48,42,1923007728
19,15,Jits_Phase_8,1,5,63,98,1923155284
19,15,Jits_Phase_8,2,5,80,127,1923164508
19,15,Jits_Phase_8,3,5,56,103,1923225044
19,15,Jits_Phase_8,0,5,63,98,1923875104
19,15,Jits_Phase_8,1,1,48,44,1923907596
19,15,Jits_Phase_8,2,5,80,127,1923934468
19,15,Jits_Phase_8,3,5,56,103,1923974404
19,15,Jits_Phase_8,0,1,48,48,1924719728
19,15,Jits_Phase_8,1,5,56,103,1924775352
19,15,Jits_Phase_8,2,5,80,127,1924794688
19,15,Jits_Phase_8,3,5,63,98,1924815296
19,15,Jits_Phase_8,0,5,63,98,1925495184
19,15,Jits_Phase_8,1,5,56,103,1925514520
19,15,Jits_Phase_8,2,1,48,36,1925534952
19,15,Jits_Phase_8,3,5,80,127,1925554600
19,15,Jits_Phase_8,0,1,48,48,1926231588
19,15,Jits_Phase_8,1,5,63,98,1926305268
19,15,Jits_Phase_8,2,5,80,127,1926335080
19,15,Jits_Phase_8,3,5,56,103,1926355316
19,15,Jits_Phase_8,0,1,48,42,1927019212
19,15,Jits_Phase_8,1,5,80,127,1927075208
19,15,Jits_Phase_8,2,5,56,103,1927125248
19,15,Jits_Phase_8,3,5,63,98,1927184960
19,15,Jits_Phase_8,0,1,48,43,1927846616
19,15,Jits_Phase_8,1,5,63,98,1927864852
19,15,Jits_Phase_8,2,5,56,103,1927984492
19,15,Jits_Phase_8,3,5,80,127,1928015160
19,15,Jits_Phase_8,0,1,48,42,1928672684
19,15,Jits_Phase_8,1,5,80,127,1928705516
19,15,Jits_Phase_8,2,5,63,98,1928724780
19,15,Jits_Phase_8,3,5,56,103,1928794472
19,15,Jits_Phase_8,0,1,48,40,1929474688
19,15,Jits_Phase_8,1,5,63,98,1929524464
19,15,Jits_Phase_8,2,5,56,103,1929535032
19,15,Jits_Phase_8,3,5,80,127,1929614908
19,15,Jits_Phase_8,0,1,48,43,1930253772
19,15,Jits_Phase_8,1,5,56,103,1930384768
19,15,Jits_Phase_8,2,5,80,127,1930414444
19,15,Jits_Phase_8,3,5,63,98,1930424788
19,15,Jits_Phase_8,0,9999,9999,9999,9999,1795542092
19,15,Jits_Phase_8,1,9999,9999,9999,9999,1796342912
19,15,Jits_Phase_8,2,9999,9999,9999,9999,1797142592
19,15,Jits_Phase_8,3,9999,9999,9999,9999,1797942368
19,15,Jits_Phase_8,4,9999,9999,9999,9999,1798742084
19,15,Jits_Phase_8,5,9999,9999,9999,9999,1799542892
19,15,Jits_Phase_8,6,9999,9999,9999,9999,1800342644
19,15,Jits_Phase_8,7,9999,9999,9999,9999,1801142344
19,15,Jits_Phase_8,8,9999,9999,9999,9999,1801942108
19,15,Jits_Phase_8,9,9999,9999,9999,9999,1802742900
19,15,Jits_Phase_8,10,9999,9999,9999,9999,1803542604
19,15,Jits_Phase_8,11,9999,9999,9999,9999,1804342364
19,15,Jits_Phase_8,12,9999,9999,9999,9999,1805142092
19,15,Jits_Phase_8,13,9999,9999,9999,9999,1805942904
19,15,Jits_Phase_8,14,9999,9999,9999,9999,1806742652
19,15,Jits_Phase_8,15,9999,9999,9999,9999,1807542340
19,15,Jits_Phase_8,16,9999,9999,9999,9999,1808342080
19,15,Jits_Phase_8,17,9999,9999,9999,9999,1809142892
19,15,Jits_Phase_8,18,9999,9999,9999,9999,1809942656
19,15,Jits_Phase_8,19,9999,9999,9999,9999,1810742340
19,15,Jits_Phase_8,20,9999,9999,9999,9999,1811542120
19,15,Jits_Phase_8,21,9999,9999,9999,9999,1812342852
19,15,Jits_Phase_8,22,9999,9999,9999,9999,1813142612
19,15,Jits_Phase_8,23,9999,9999,9999,9999,1813942368
19,15,Jits_Phase_8,24,9999,9999,9999,9999,1814742124
19,15,Jits_Phase_8,25,9999,9999,9999,9999,1815542904
19,15,Jits_Phase_8,26,9999,9999,9999,9999,1816342640
19,15,Jits_Phase_8,27,9999,9999,9999,9999,1817142328
19,15,Jits_Phase_8,28,9999,9999,9999,9999,1817942124
19,15,Jits_Phase_8,29,9999,9999,9999,9999,1818742876
19,15,Jits_Phase_8,30,9999,9999,9999,9999,1819522104
19,15,Jits_Phase_8,31,9999,9999,9999,9999,1820322908
19,15,Jits_Phase_8,32,9999,9999,9999,9999,1821122680
19,15,Jits_Phase_8,33,9999,9999,9999,9999,1821922372
19,15,Jits_Phase_8,34,9999,9999,9999,9999,1822722144
19,15,Jits_Phase_8,35,9999,9999,9999,9999,1823522900
19,15,Jits_Phase_8,36,9999,9999,9999,9999,1824322664
19,15,Jits_Phase_8,37,9999,9999,9999,9999,1825122368
19,15,Jits_Phase_8,38,9999,9999,9999,9999,1825922112
19,15,Jits_Phase_8,39,9999,9999,9999,9999,1826722932
19,15,Jits_Phase_8,40,9999,9999,9999,9999,1827522636
19,15,Jits_Phase_8,41,9999,9999,9999,9999,1828322408
19,15,Jits_Phase_8,42,9999,9999,9999,9999,1829122160
19,15,Jits_Phase_8,43,9999,9999,9999,9999,1829922896
19,15,Jits_Phase_8,44,9999,9999,9999,9999,1830722636
19,15,Jits_Phase_8,45,9999,9999,9999,9999,1831522424
19,15,Jits_Phase_8,46,9999,9999,9999,9999,1832322124
19,15,Jits_Phase_8,47,9999,9999,9999,9999,1833122936
19,15,Jits_Phase_8,48,9999,9999,9999,9999,1833942116
19,15,Jits_Phase_8,49,9999,9999,9999,9999,1834742844
19,15,Jits_Phase_8,50,9999,9999,9999,9999,1835542600
19,15,Jits_Phase_8,51,9999,9999,9999,9999,1836342360
19,15,Jits_Phase_8,52,9999,9999,9999,9999,1837142084
19,15,Jits_Phase_8,53,9999,9999,9999,9999,1837942896
19,15,Jits_Phase_8,54,9999,9999,9999,9999,1838742652
19,15,Jits_Phase_8,55,9999,9999,9999,9999,1839542348
19,15,Jits_Phase_8,56,9999,9999,9999,9999,1840342104
19,15,Jits_Phase_8,57,9999,9999,9999,9999,1841142852
19,15,Jits_Phase_8,58,9999,9999,9999,9999,1841942584
19,15,Jits_Phase_8,59,9999,9999,9999,9999,1842742340
19,15,Jits_Phase_8,60,9999,9999,9999,9999,1843542120
19,15,Jits_Phase_8,61,9999,9999,9999,9999,1844342856
19,15,Jits_Phase_8,62,9999,9999,9999,9999,1845142608
19,15,Jits_Phase_8,63,9999,9999,9999,9999,1845942356
19,15,Jits_Phase_8,64,9999,9999,9999,9999,1846783096
19,15,Jits_Phase_8,65,9999,9999,9999,9999,1847582780
19,15,Jits_Phase_8,66,9999,9999,9999,9999,1848382560
19,15,Jits_Phase_8,67,9999,9999,9999,9999,1849182272
19,15,Jits_Phase_8,68,9999,9999,9999,9999,1849983076
19,15,Jits_Phase_8,69,9999,9999,9999,9999,1850782776
19,15,Jits_Phase_8,70,9999,9999,9999,9999,1851582544
19,15,Jits_Phase_8,71,9999,9999,9999,9999,1852382312
19,15,Jits_Phase_8,72,9999,9999,9999,9999,1853183036
19,15,Jits_Phase_8,73,9999,9999,9999,9999,1853982808
19,15,Jits_Phase_8,74,9999,9999,9999,9999,1854782576
19,15,Jits_Phase_8,75,9999,9999,9999,9999,1855582284
19,15,Jits_Phase_8,76,9999,9999,9999,9999,1856383100
19,15,Jits_Phase_8,77,9999,9999,9999,9999,1857182804
19,15,Jits_Phase_8,78,9999,9999,9999,9999,1857982556
19,15,Jits_Phase_8,79,9999,9999,9999,9999,1858782312
19,15,Jits_Phase_8,80,9999,9999,9999,9999,1859583044
19,15,Jits_Phase_8,81,9999,9999,9999,9999,1860342872
19,15,Jits_Phase_8,82,9999,9999,9999,9999,1861142628
19,15,Jits_Phase_8,83,9999,9999,9999,9999,1861942384
19,15,Jits_Phase_8,84,9999,9999,9999,9999,1862742088
19,15,Jits_Phase_8,85,9999,9999,9999,9999,1863542912
19,15,Jits_Phase_8,86,9999,9999,9999,9999,1864342596
19,15,Jits_Phase_8,87,9999,9999,9999,9999,1865142352
19,15,Jits_Phase_8,88,9999,9999,9999,9999,1865942108
19,15,Jits_Phase_8,89,9999,9999,9999,9999,1866742848
19,15,Jits_Phase_8,90,9999,9999,9999,9999,1867542616
19,15,Jits_Phase_8,91,9999,9999,9999,9999,1868342372
19,15,Jits_Phase_8,92,9999,9999,9999,9999,1869142096
19,15,Jits_Phase_8,93,9999,9999,9999,9999,1869942896
19,15,Jits_Phase_8,94,9999,9999,9999,9999,1870742580
19,15,Jits_Phase_8,95,9999,9999,9999,9999,1871542336
19,15,Jits_Phase_8,96,9999,9999,9999,9999,1872342096
19,15,Jits_Phase_8,97,9999,9999,9999,9999,1873062968
19,15,Jits_Phase_8,98,9999,9999,9999,9999,1873862744
19,15,Jits_Phase_8,99,9999,9999,9999,9999,1874662520
19,15,Jits_Phase_8,100,9999,9999,9999,9999,1875462268
19,15,Jits_Phase_8,101,9999,9999,9999,9999,1876263000
19,15,Jits_Phase_8,102,9999,9999,9999,9999,1877062752
19,15,Jits_Phase_8,103,9999,9999,9999,9999,1877862456
19,15,Jits_Phase_8,104,9999,9999,9999,9999,1878662212
19,15,Jits_Phase_8,105,9999,9999,9999,9999,1879463024
19,15,Jits_Phase_8,106,9999,9999,9999,9999,1880262776
19,15,Jits_Phase_8,107,9999,9999,9999,9999,1881062516
19,15,Jits_Phase_8,108,9999,9999,9999,9999,1881862204
19,15,Jits_Phase_8,109,9999,9999,9999,9999,1882663004
19,15,Jits_Phase_8,110,9999,9999,9999,9999,1883462764
19,15,Jits_Phase_8,111,9999,9999,9999,9999,1884262468
19,15,Jits_Phase_8,112,9999,9999,9999,9999,1885062220
19,15,Jits_Phase_8,113,9999,9999,9999,9999,1885862968
19,15,Jits_Phase_8,114,9999,9999,9999,9999,1886742600
19,15,Jits_Phase_8,115,9999,9999,9999,9999,1887542360
19,15,Jits_Phase_8,116,9999,9999,9999,9999,1888342088
19,15,Jits_Phase_8,117,9999,9999,9999,9999,1889142900
19,15,Jits_Phase_8,118,9999,9999,9999,9999,1889942584
19,15,Jits_Phase_8,119,9999,9999,9999,9999,1890742336
19,15,Jits_Phase_8,120,9999,9999,9999,9999,1891542108
19,15,Jits_Phase_8,121,9999,9999,9999,9999,1892342840
19,15,Jits_Phase_8,122,9999,9999,9999,9999,1893142588
19,15,Jits_Phase_8,123,9999,9999,9999,9999,1893942340
19,15,Jits_Phase_8,124,9999,9999,9999,9999,1894742072
19,15,Jits_Phase_8,125,9999,9999,9999,9999,1895542888
19,15,Jits_Phase_8,126,9999,9999,9999,9999,1896342600
19,15,Jits_Phase_8,127,9999,9999,9999,9999,1897142360
19,15,Jits_Phase_8,128,9999,9999,9999,9999,1897942124
19,15,Jits_Phase_8,129,9999,9999,9999,9999,1898742868
19,15,Jits_Phase_8,130,9999,9999,9999,9999,1899542648
19,15,Jits_Phase_8,131,9999,9999,9999,9999,1900502100
19,15,Jits_Phase_8,132,9999,9999,9999,9999,1901302844
19,15,Jits_Phase_8,133,9999,9999,9999,9999,1902102624
19,15,Jits_Phase_8,134,9999,9999,9999,9999,1902902324
19,15,Jits_Phase_8,135,9999,9999,9999,9999,1903702092
19,15,Jits_Phase_8,136,9999,9999,9999,9999,1904502900
19,15,Jits_Phase_8,137,9999,9999,9999,9999,1905302600
19,15,Jits_Phase_8,138,9999,9999,9999,9999,1906102372
19,15,Jits_Phase_8,139,9999,9999,9999,9999,1906902140
19,15,Jits_Phase_8,140,9999,9999,9999,9999,1907702872
19,15,Jits_Phase_8,141,9999,9999,9999,9999,1908502632
19,15,Jits_Phase_8,142,9999,9999,9999,9999,1909302384
19,15,Jits_Phase_8,143,9999,9999,9999,9999,1910102092
19,15,Jits_Phase_8,144,9999,9999,9999,9999,1910902896
19,15,Jits_Phase_8,145,9999,9999,9999,9999,1911702656
19,15,Jits_Phase_8,146,9999,9999,9999,9999,1912502344
19,15,Jits_Phase_8,147,9999,9999,9999,9999,1913302096
19,15,Jits_Phase_8,148,9999,9999,9999,9999,1914102892
19,15,Jits_Phase_8,149,9999,9999,9999,9999,1914902648
19,15,Jits_Phase_8,150,9999,9999,9999,9999,1915542612
19,15,Jits_Phase_8,151,9999,9999,9999,9999,1916342384
19,15,Jits_Phase_8,152,9999,9999,9999,9999,1917142084
19,15,Jits_Phase_8,153,9999,9999,9999,9999,1917942896
19,15,Jits_Phase_8,154,9999,9999,9999,9999,1918742648
19,15,Jits_Phase_8,155,9999,9999,9999,9999,1919542332
19,15,Jits_Phase_8,156,9999,9999,9999,9999,1920342120
19,15,Jits_Phase_8,157,9999,9999,9999,9999,1921142848
19,15,Jits_Phase_8,158,9999,9999,9999,9999,1921942608
19,15,Jits_Phase_8,159,9999,9999,9999,9999,1922742376
19,15,Jits_Phase_8,160,9999,9999,9999,9999,1923542140
19,15,Jits_Phase_8,161,9999,9999,9999,9999,1924342872
19,15,Jits_Phase_8,162,9999,9999,9999,9999,1925142636
19,15,Jits_Phase_8,163,9999,9999,9999,9999,1925942396
19,15,Jits_Phase_8,164,9999,9999,9999,9999,1926742104
19,15,Jits_Phase_8,165,9999,9999,9999,9999,1927542908
19,15,Jits_Phase_8,166,9999,9999,9999,9999,1928342596
19,15,Jits_Phase_8,167,9999,9999,9999,9999,1929142356
19,15,Jits_Phase_8,168,9999,9999,9999,9999,1929942116
19,15,Jits_Phase_8,169,9999,9999,9999,9999,1930742856
20,5,ISIP_5,0,5,42,127,1993184660
20,5,ISIP_5,1,5,42,127,1993685496
20,5,ISIP_5,2,5,42,127,1994185140
20,5,ISIP_5,3,5,42,127,1994684708
20,5,ISIP_5,4,1,48,26,1994773696
20,5,ISIP_5,5,5,42,127,1995184476
20,5,ISIP_5,6,1,48,29,1995263068
20,5,ISIP_5,7,5,42,127,1995685144
20,5,ISIP_5,8,1,48,29,1995743760
20,5,ISIP_5,9,5,42,127,1996184836
20,5,ISIP_5,10,1,48,30,1996240988
20,5,ISIP_5,11,5,42,127,1996684684
20,5,ISIP_5,12,1,48,27,1996741660
20,5,ISIP_5,13,5,42,127,1997185724
20,5,ISIP_5,14,1,48,26,1997225568
20,5,ISIP_5,15,5,42,127,1997685120
20,5,ISIP_5,16,1,48,27,1997708512
20,5,ISIP_5,17,5,42,127,1998184740
20,5,ISIP_5,18,1,48,30,1998204244
20,5,ISIP_5,19,5,42,127,1998684736
20,5,ISIP_5,20,1,48,32,1998693988
20,5,ISIP_5,21,5,42,127,1999185180
20,5,ISIP_5,22,1,48,28,1999186144
20,5,ISIP_5,23,5,42,127,1999685072
20,5,ISIP_5,24,1,48,26,1999695072
20,5,ISIP_5,25,5,42,127,2000184816
20,5,ISIP_5,26,1,48,29,2000189952
20,5,ISIP_5,27,5,42,127,2000685708
20,5,ISIP_5,28,1,48,24,2000700268
20,5,ISIP_5,29,5,42,127,2001185104
20,5,ISIP_5,30,1,48,29,2001197276
20,5,ISIP_5,31,5,42,127,2001684800
20,5,ISIP_5,32,1,48,27,2001688140
20,5,ISIP_5,33,5,42,127,2002184640
20,5,ISIP_5,34,1,48,29,2002204664
20,5,ISIP_5,35,5,42,127,2002685236
20,5,ISIP_5,36,1,48,31,2002702496
20,5,ISIP_5,37,5,42,127,2003185004
20,5,ISIP_5,38,1,48,30,2003205848
20,5,ISIP_5,39,5,42,127,2003684700
20,5,ISIP_5,40,1,48,29,2003695896
20,5,ISIP_5,41,5,42,127,2004184540
20,5,ISIP_5,42,1,48,37,2004225360
20,5,ISIP_5,43,5,42,127,2004685132
20,5,ISIP_5,44,1,48,33,2004717800
20,5,ISIP_5,45,5,42,127,2005184904
20,5,ISIP_5,46,1,48,30,2005223556
20,5,ISIP_5,47,5,42,127,2005684524
20,5,ISIP_5,48,1,48,29,2005691376
20,5,ISIP_5,49,5,42,127,2006185488
20,5,ISIP_5,50,1,48,36,2006199080
20,5,ISIP_5,51,5,42,127,2006684884
20,5,ISIP_5,52,1,48,29,2006697576
20,5,ISIP_5,53,5,42,127,2007184728
20,5,ISIP_5,54,1,48,30,2007219036
20,5,ISIP_5,55,5,42,127,2007684500
20,5,ISIP_5,56,1,48,33,2007705720
20,5,ISIP_5,57,5,42,127,2008185388
20,5,ISIP_5,58,1,48,26,2008207584
20,5,ISIP_5,59,5,42,127,2008684936
20,5,ISIP_5,60,1,48,30,2008716556
20,5,ISIP_5,61,5,42,127,2009184484
20,5,ISIP_5,62,1,48,24,2009208688
20,5,ISIP_5,63,5,42,127,2009685520
20,5,ISIP_5,64,1,48,27,2009713996
20,5,ISIP_5,65,5,42,127,2010184916
20,5,ISIP_5,66,1,48,30,2010241068
20,5,ISIP_5,67,5,42,127,2010684736
20,5,ISIP_5,68,1,48,28,2010761104
20,5,ISIP_5,69,5,42,127,2011184432
20,5,ISIP_5,70,1,48,25,2011255564
20,5,ISIP_5,71,5,42,127,2011685396
20,5,ISIP_5,72,1,48,30,2011707516
20,5,ISIP_5,73,5,42,127,2012184792
20,5,ISIP_5,74,1,48,28,2012215364
20,5,ISIP_5,75,5,42,127,2012684560
20,5,ISIP_5,76,1,48,26,2012714088
20,5,ISIP_5,77,1,48,29,2013195600
20,5,ISIP_5,78,1,48,32,2014282392
20,5,ISIP_5,79,1,48,33,2014823072
20,5,ISIP_5,80,1,48,32,2015312288
20,5,ISIP_5,81,1,48,33,2015815124
20,5,ISIP_5,82,1,48,32,2016311352
20,5,ISIP_5,83,1,48,34,2016810588
20,5,ISIP_5,84,1,48,35,2017305792
20,5,ISIP_5,85,1,48,32,2017818568
20,5,ISIP_5,86,1,48,33,2018315792
20,5,ISIP_5,87,1,48,34,2018833284
20,5,ISIP_5,88,1,48,29,2019333796
20,5,ISIP_5,89,1,48,32,2019863708
20,5,ISIP_5,90,1,48,29,2020349632
20,5,ISIP_5,91,1,48,35,2020836156
20,5,ISIP_5,92,1,48,34,2021328668
20,5,ISIP_5,93,1,48,34,2021823124
20,5,ISIP_5,94,1,48,31,2022350268
20,5,ISIP_5,95,1,48,32,2022841584
20,5,ISIP_5,96,1,48,32,2023336260
20,5,ISIP_5,97,1,48,35,2023843800
20,5,ISIP_5,98,1,48,38,2024369148
20,5,ISIP_5,99,1,48,38,2024855372
20,5,ISIP_5,100,1,48,40,2025380200
20,5,ISIP_5,101,1,48,39,2025847576
20,5,ISIP_5,102,1,48,35,2026350184
20,5,ISIP_5,103,1,48,37,2026857056
20,5,ISIP_5,104,1,48,40,2027380008
20,5,ISIP_5,105,1,48,37,2027881264
20,5,ISIP_5,106,1,48,30,2028401228
20,5,ISIP_5,107,1,48,35,2028894412
20,5,ISIP_5,108,1,48,37,2029416692
20,5,ISIP_5,109,1,48,35,2029942412
20,5,ISIP_5,110,1,48,38,2030437240
20,5,ISIP_5,111,1,48,35,2030937380
20,5,ISIP_5,112,1,48,40,2031462728
20,5,ISIP_5,113,1,48,39,2031971092
20,5,ISIP_5,114,1,48,42,2032493004
20,5,ISIP_5,115,1,48,33,2032997104
20,5,ISIP_5,116,1,48,42,2033529408
20,5,ISIP_5,117,1,48,34,2034034784
20,5,ISIP_5,118,1,48,43,2034554816
20,5,ISIP_5,119,1,48,43,2035059668
20,5,ISIP_5,120,1,48,41,2035596684
20,5,ISIP_5,121,1,48,44,2036072140
20,5,ISIP_5,122,1,48,43,2036583504
20,5,ISIP_5,123,1,48,47,2037093360
20,5,ISIP_5,124,1,48,43,2037610108
20,5,ISIP_5,125,1,48,39,2038130516
20,5,ISIP_5,126,1,48,42,2038648012
20,5,ISIP_5,127,1,48,39,2039158324
20,5,ISIP_5,128,1,48,40,2039666464
20,5,ISIP_5,129,1,48,42,2040178724
20,5,ISIP_5,130,1,48,45,2040686280
20,5,ISIP_5,131,1,48,43,2041201908
20,5,ISIP_5,132,1,48,41,2041721416
20,5,ISIP_5,133,1,48,43,2042243992
20,5,ISIP_5,134,1,48,44,2042741216
20,5,ISIP_5,135,1,48,46,2043258112
20,5,ISIP_5,136,1,48,42,2043797820
20,5,ISIP_5,137,1,48,44,2044285316
20,5,ISIP_5,138,1,48,41,2044828388
20,5,ISIP_5,139,1,48,53,2045344388
20,5,ISIP_5,140,1,48,47,2045845872
20,5,ISIP_5,141,1,48,44,2046367180
20,5,ISIP_5,142,1,48,52,2046877044
20,5,ISIP_5,143,1,48,43,2047380624
20,5,ISIP_5,144,1,48,41,2047900284
20,5,ISIP_5,145,1,48,22,2048443208
20,5,ISIP_5,146,1,48,46,2048947392
20,5,ISIP_5,147,1,48,44,2049485524
20,5,ISIP_5,148,1,48,48,2049977440
20,5,ISIP_5,149,1,48,46,2050473832
20,5,ISIP_5,150,1,48,45,2050976068
20,5,ISIP_5,151,1,48,40,2051504260
20,5,ISIP_5,152,1,48,44,2052049796
20,5,ISIP_5,153,1,48,46,2052564600
20,5,ISIP_5,154,1,48,51,2053059952
20,5,ISIP_5,155,1,48,45,2053598760
20,5,ISIP_5,156,1,48,44,2054105852
20,5,ISIP_5,157,1,48,44,2054604200
20,5,ISIP_5,158,1,48,51,2055075992
20,5,ISIP_5,159,1,48,46,2055597600
20,5,ISIP_5,160,1,48,47,2056125408
20,5,ISIP_5,161,1,48,46,2056617548
20,5,ISIP_5,162,1,48,45,2057143572
20,5,ISIP_5,163,1,48,50,2057680284
20,5,ISIP_5,164,1,48,47,2058192108
20,5,ISIP_5,165,1,48,46,2058721416
20,5,ISIP_5,166,1,48,42,2059200540
20,5,ISIP_5,167,1,48,48,2059720424
20,5,ISIP_5,168,1,48,43,2060256468
20,5,ISIP_5,169,1,48,54,2060744484
20,5,ISIP_5,170,1,48,48,2061260408
20,5,ISIP_5,171,1,48,45,2061767428
20,5,ISIP_5,172,1,48,45,2062309228
20,5,ISIP_5,173,1,48,46,2062826800
20,5,ISIP_5,174,1,48,51,2063315496
20,5,ISIP_5,175,1,48,46,2063820496
20,5,ISIP_5,176,1,48,50,2064350032
20,5,ISIP_5,177,1,48,44,2064863184
20,5,ISIP_5,178,1,48,50,2065344852
20,5,ISIP_5,179,1,48,57,2065891812
20,5,ISIP_5,180,1,48,53,2066390160
20,5,ISIP_5,181,1,48,49,2066929044
20,5,ISIP_5,182,1,48,47,2067441672
20,5,ISIP_5,183,1,48,51,2068007260
20,5,ISIP_5,184,1,48,52,2068548640
20,5,ISIP_5,185,1,48,51,2069029228
20,5,ISIP_5,186,1,48,50,2069528844
20,5,ISIP_5,187,1,48,51,2070051720
20,5,ISIP_5,188,1,48,49,2070573108
20,5,ISIP_5,189,1,48,63,2071092544
20,5,ISIP_5,190,1,48,46,2071616540
20,5,ISIP_5,191,1,48,62,2072114360
20,5,ISIP_5,192,1,48,61,2072667780
20,5,ISIP_5,193,1,48,56,2073147700
20,5,ISIP_5,0,9999,9999,9999,9999,1993182300
20,5,ISIP_5,1,9999,9999,9999,9999,1993683064
20,5,ISIP_5,2,9999,9999,9999,9999,1994182704
20,5,ISIP_5,3,9999,9999,9999,9999,1994682420
20,5,ISIP_5,4,9999,9999,9999,9999,1995182188
20,5,ISIP_5,5,9999,9999,9999,9999,1995682932
20,5,ISIP_5,6,9999,9999,9999,9999,1996182624
20,5,ISIP_5,7,9999,9999,9999,9999,1996682324
20,5,ISIP_5,8,9999,9999,9999,9999,1997183064
20,5,ISIP_5,9,9999,9999,9999,9999,1997682760
20,5,ISIP_5,10,9999,9999,9999,9999,1998182456
20,5,ISIP_5,11,9999,9999,9999,9999,1998682224
20,5,ISIP_5,12,9999,9999,9999,9999,1999182968
20,5,ISIP_5,13,9999,9999,9999,9999,1999682636
20,5,ISIP_5,14,9999,9999,9999,9999,2000182380
20,5,ISIP_5,15,9999,9999,9999,9999,2000683120
20,5,ISIP_5,16,9999,9999,9999,9999,2001182820
20,5,ISIP_5,17,9999,9999,9999,9999,2001682512
20,5,ISIP_5,18,9999,9999,9999,9999,2002182208
20,5,ISIP_5,19,9999,9999,9999,9999,2002682948
20,5,ISIP_5,20,9999,9999,9999,9999,2003182644
20,5,ISIP_5,21,9999,9999,9999,9999,2003682412
20,5,ISIP_5,22,9999,9999,9999,9999,2004182108
20,5,ISIP_5,23,9999,9999,9999,9999,2004682848
20,5,ISIP_5,24,9999,9999,9999,9999,2005182544
20,5,ISIP_5,25,9999,9999,9999,9999,2005682236
20,5,ISIP_5,26,9999,9999,9999,9999,2006182980
20,5,ISIP_5,27,9999,9999,9999,9999,2006682672
20,5,ISIP_5,28,9999,9999,9999,9999,2007182444
20,5,ISIP_5,29,9999,9999,9999,9999,2007682136
20,5,ISIP_5,30,9999,9999,9999,9999,2008182880
20,5,ISIP_5,31,9999,9999,9999,9999,2008682572
20,5,ISIP_5,32,9999,9999,9999,9999,2009182268
20,5,ISIP_5,33,9999,9999,9999,9999,2009683012
20,5,ISIP_5,34,9999,9999,9999,9999,2010182704
20,5,ISIP_5,35,9999,9999,9999,9999,2010682448
20,5,ISIP_5,36,9999,9999,9999,9999,2011182144
20,5,ISIP_5,37,9999,9999,9999,9999,2011682888
20,5,ISIP_5,38,9999,9999,9999,9999,2012182580
20,5,ISIP_5,39,9999,9999,9999,9999,2012682348
20,5,ISIP_5,40,9999,9999,9999,9999,2013183092
20,5,ISIP_5,41,9999,9999,9999,9999,2013682784
20,5,ISIP_5,42,9999,9999,9999,9999,2014182496
20,5,ISIP_5,43,9999,9999,9999,9999,2014682184
20,5,ISIP_5,44,9999,9999,9999,9999,2015182924
20,5,ISIP_5,45,9999,9999,9999,9999,2015682616
20,5,ISIP_5,46,9999,9999,9999,9999,2016182380
20,5,ISIP_5,47,9999,9999,9999,9999,2016683116
20,5,ISIP_5,48,9999,9999,9999,9999,2017182808
20,5,ISIP_5,49,9999,9999,9999,9999,2017682496
20,5,ISIP_5,50,9999,9999,9999,9999,2018182264
20,5,ISIP_5,51,9999,9999,9999,9999,2018683000
20,5,ISIP_5,52,9999,9999,9999,9999,2019182692
20,5,ISIP_5,53,9999,9999,9999,9999,2019682384
20,5,ISIP_5,54,9999,9999,9999,9999,2020182072
20,5,ISIP_5,55,9999,9999,9999,9999,2020682808
20,5,ISIP_5,56,9999,9999,9999,9999,2021182552
20,5,ISIP_5,57,9999,9999,9999,9999,2021682240
20,5,ISIP_5,58,9999,9999,9999,9999,2022182980
20,5,ISIP_5,59,9999,9999,9999,9999,2022682744
20,5,ISIP_5,60,9999,9999,9999,9999,2023182436
20,5,ISIP_5,61,9999,9999,9999,9999,2023682124
20,5,ISIP_5,62,9999,9999,9999,9999,2024182860
20,5,ISIP_5,63,9999,9999,9999,9999,2024682552
20,5,ISIP_5,64,9999,9999,9999,9999,2025182320
20,5,ISIP_5,65,9999,9999,9999,9999,2025683056
20,5,ISIP_5,66,9999,9999,9999,9999,2026182748
20,5,ISIP_5,67,9999,9999,9999,9999,2026682436
20,5,ISIP_5,68,9999,9999,9999,9999,2027182200
20,5,ISIP_5,69,9999,9999,9999,9999,2027682864
20,5,ISIP_5,70,9999,9999,9999,9999,2028182628
20,5,ISIP_5,71,9999,9999,9999,9999,2028682320
20,5,ISIP_5,72,9999,9999,9999,9999,2029183056
20,5,ISIP_5,73,9999,9999,9999,9999,2029682748
20,5,ISIP_5,74,9999,9999,9999,9999,2030182516
20,5,ISIP_5,75,9999,9999,9999,9999,2030682204
20,5,ISIP_5,76,9999,9999,9999,9999,2031182944
20,5,ISIP_5,77,9999,9999,9999,9999,2031682608
20,5,ISIP_5,78,9999,9999,9999,9999,2032182376
20,5,ISIP_5,79,9999,9999,9999,9999,2032683112
20,5,ISIP_5,80,9999,9999,9999,9999,2033182804
20,5,ISIP_5,81,9999,9999,9999,9999,2033682496
20,5,ISIP_5,82,9999,9999,9999,9999,2034182260
20,5,ISIP_5,83,9999,9999,9999,9999,2034682996
20,5,ISIP_5,84,9999,9999,9999,9999,2035182688
20,5,ISIP_5,85,9999,9999,9999,9999,2035682396
20,5,ISIP_5,86,9999,9999,9999,9999,2036182072
20,5,ISIP_5,87,9999,9999,9999,9999,2036682808
20,5,ISIP_5,88,9999,9999,9999,9999,2037182516
20,5,ISIP_5,89,9999,9999,9999,9999,2037682280
20,5,ISIP_5,90,9999,9999,9999,9999,2038183016
20,5,ISIP_5,91,9999,9999,9999,9999,2038682708
20,5,ISIP_5,92,9999,9999,9999,9999,2039182400
20,5,ISIP_5,93,9999,9999,9999,9999,2039682164
20,5,ISIP_5,94,9999,9999,9999,9999,2040182900
20,5,ISIP_5,95,9999,9999,9999,9999,2040682600
20,5,ISIP_5,96,9999,9999,9999,9999,2041182292
20,5,ISIP_5,97,9999,9999,9999,9999,2041683028
20,5,ISIP_5,98,9999,9999,9999,9999,2042182720
20,5,ISIP_5,99,9999,9999,9999,9999,2042682460
20,5,ISIP_5,100,9999,9999,9999,9999,2043182152
20,5,ISIP_5,101,9999,9999,9999,9999,2043682888
20,5,ISIP_5,102,9999,9999,9999,9999,2044182580
20,5,ISIP_5,103,9999,9999,9999,9999,2044682344
20,5,ISIP_5,104,9999,9999,9999,9999,2045183084
20,5,ISIP_5,105,9999,9999,9999,9999,2045682772
20,5,ISIP_5,106,9999,9999,9999,9999,2046182464
20,5,ISIP_5,107,9999,9999,9999,9999,2046682228
20,5,ISIP_5,108,9999,9999,9999,9999,2047182968
20,5,ISIP_5,109,9999,9999,9999,9999,2047682656
20,5,ISIP_5,110,9999,9999,9999,9999,2048182348
20,5,ISIP_5,111,9999,9999,9999,9999,2048683088
20,5,ISIP_5,112,9999,9999,9999,9999,2049182780
20,5,ISIP_5,113,9999,9999,9999,9999,2049682544
20,5,ISIP_5,114,9999,9999,9999,9999,2050182236
20,5,ISIP_5,115,9999,9999,9999,9999,2050682972
20,5,ISIP_5,116,9999,9999,9999,9999,2051182660
20,5,ISIP_5,117,9999,9999,9999,9999,2051682352
20,5,ISIP_5,118,9999,9999,9999,9999,2052182116
20,5,ISIP_5,119,9999,9999,9999,9999,2052682856
20,5,ISIP_5,120,9999,9999,9999,9999,2053182520
20,5,ISIP_5,121,9999,9999,9999,9999,2053682228
20,5,ISIP_5,122,9999,9999,9999,9999,2054182964
20,5,ISIP_5,123,9999,9999,9999,9999,2054682728
20,5,ISIP_5,124,9999,9999,9999,9999,2055182404
20,5,ISIP_5,125,9999,9999,9999,9999,2055682112
20,5,ISIP_5,126,9999,9999,9999,9999,2056182848
20,5,ISIP_5,127,9999,9999,9999,9999,2056682616
20,5,ISIP_5,128,9999,9999,9999,9999,2057182304
20,5,ISIP_5,129,9999,9999,9999,9999,2057683044
20,5,ISIP_5,130,9999,9999,9999,9999,2058182740
20,5,ISIP_5,131,9999,9999,9999,9999,2058682428
20,5,ISIP_5,132,9999,9999,9999,9999,2059182196
20,5,ISIP_5,133,9999,9999,9999,9999,2059682936
20,5,ISIP_5,134,9999,9999,9999,9999,2060182624
20,5,ISIP_5,135,9999,9999,9999,9999,2060682316
20,5,ISIP_5,136,9999,9999,9999,9999,2061183052
20,5,ISIP_5,137,9999,9999,9999,9999,2061682744
20,5,ISIP_5,138,9999,9999,9999,9999,2062182508
20,5,ISIP_5,139,9999,9999,9999,9999,2062682200
20,5,ISIP_5,140,9999,9999,9999,9999,2063182936
20,5,ISIP_5,141,9999,9999,9999,9999,2063682628
20,5,ISIP_5,142,9999,9999,9999,9999,2064182372
20,5,ISIP_5,143,9999,9999,9999,9999,2064683108
20,5,ISIP_5,144,9999,9999,9999,9999,2065182800
20,5,ISIP_5,145,9999,9999,9999,9999,2065682488
20,5,ISIP_5,146,9999,9999,9999,9999,2066182256
20,5,ISIP_5,147,9999,9999,9999,9999,2066682992
20,5,ISIP_5,148,9999,9999,9999,9999,2067182680
20,5,ISIP_5,149,9999,9999,9999,9999,2067682372
20,5,ISIP_5,150,9999,9999,9999,9999,2068182136
20,5,ISIP_5,151,9999,9999,9999,9999,2068682876
20,5,ISIP_5,152,9999,9999,9999,9999,2069182568
20,5,ISIP_5,153,9999,9999,9999,9999,2069682256
20,5,ISIP_5,154,9999,9999,9999,9999,2070182992
20,5,ISIP_5,155,9999,9999,9999,9999,2070682684
20,5,ISIP_5,156,9999,9999,9999,9999,2071182388
20,5,ISIP_5,157,9999,9999,9999,9999,2071682152
20,5,ISIP_5,158,9999,9999,9999,9999,2072182888
20,5,ISIP_5,159,9999,9999,9999,9999,2072682580
21,3,ISIP_8,0,5,42,127,2096401968
21,3,ISIP_8,1,5,42,127,2097201652
21,3,ISIP_8,2,1,48,23,2097285724
21,3,ISIP_8,3,1,48,31,2097985740
21,3,ISIP_8,4,5,42,127,2098002376
21,3,ISIP_8,5,1,48,33,2098713644
21,3,ISIP_8,6,5,42,127,2098802036
21,3,ISIP_8,7,1,48,30,2099529628
21,3,ISIP_8,8,5,42,127,2099601992
21,3,ISIP_8,9,1,48,30,2100306624
21,3,ISIP_8,10,5,42,127,2100401800
21,3,ISIP_8,11,1,48,29,2101111740
21,3,ISIP_8,12,5,42,127,2101202208
21,3,ISIP_8,13,1,48,29,2101881408
21,3,ISIP_8,14,5,42,127,2102002000
21,3,ISIP_8,15,1,48,27,2102677704
21,3,ISIP_8,16,5,42,127,2102801736
21,3,ISIP_8,17,1,48,33,2103519772
21,3,ISIP_8,18,5,42,127,2103601932
21,3,ISIP_8,19,1,48,23,2104288464
21,3,ISIP_8,20,5,42,127,2104402176
21,3,ISIP_8,21,1,48,26,2105118764
21,3,ISIP_8,22,5,42,127,2105201996
21,3,ISIP_8,23,1,48,32,2105914388
21,3,ISIP_8,24,5,42,127,2106001732
21,3,ISIP_8,25,1,48,32,2106715268
21,3,ISIP_8,26,5,42,127,2106801912
21,3,ISIP_8,27,1,48,22,2107548652
21,3,ISIP_8,28,5,42,127,2107602244
21,3,ISIP_8,29,1,48,23,2108344724
21,3,ISIP_8,30,5,42,127,2108401976
21,3,ISIP_8,31,1,48,29,2109161512
21,3,ISIP_8,32,5,42,127,2109201712
21,3,ISIP_8,33,1,48,27,2109973884
21,3,ISIP_8,34,5,42,127,2110001592
21,3,ISIP_8,35,1,48,32,2110774368
21,3,ISIP_8,36,5,42,127,2110802324
21,3,ISIP_8,37,5,42,127,2111601912
21,3,ISIP_8,38,1,48,34,2111612288
21,3,ISIP_8,39,5,42,127,2112401720
21,3,ISIP_8,40,1,48,33,2112406484
21,3,ISIP_8,41,5,42,127,2113201456
21,3,ISIP_8,42,1,48,30,2113221404
21,3,ISIP_8,43,5,42,127,2114002164
21,3,ISIP_8,44,1,48,37,2114032960
21,3,ISIP_8,45,5,42,127,2114802120
21,3,ISIP_8,46,1,48,36,2114821992
21,3,ISIP_8,47,5,42,127,2115601632
21,3,ISIP_8,48,1,48,31,2115624792
21,3,ISIP_8,49,1,48,43,2116394296
21,3,ISIP_8,50,5,42,127,2116401584
21,3,ISIP_8,51,5,42,127,2117202544
21,3,ISIP_8,52,1,48,38,2117221968
21,3,ISIP_8,53,1,48,19,2117292632
21,3,ISIP_8,54,5,42,127,2118002032
21,3,ISIP_8,55,1,48,36,2118040080
21,3,ISIP_8,56,5,42,127,2118801764
21,3,ISIP_8,57,1,48,38,2118805184
21,3,ISIP_8,58,1,48,40,2119599304
21,3,ISIP_8,59,5,42,127,2119601492
21,3,ISIP_8,60,1,48,38,2120380624
21,3,ISIP_8,61,1,48,38,2121458488
21,3,ISIP_8,62,1,48,38,2122272428
21,3,ISIP_8,63,1,48,36,2123085052
21,3,ISIP_8,64,1,48,36,2123900784
21,3,ISIP_8,65,1,48,36,2124705976
21,3,ISIP_8,66,1,48,34,2125510716
21,3,ISIP_8,67,1,48,29,2126304464
21,3,ISIP_8,68,1,48,40,2127094988
21,3,ISIP_8,69,1,48,40,2127902872
21,3,ISIP_8,70,1,48,41,2128701556
21,3,ISIP_8,71,1,48,43,2129543936
21,3,ISIP_8,72,1,48,39,2130294300
21,3,ISIP_8,73,1,48,46,2131078176
21,3,ISIP_8,74,1,48,43,2131841104
21,3,ISIP_8,75,1,48,40,2132683764
21,3,ISIP_8,76,1,48,44,2133480652
21,3,ISIP_8,77,1,48,41,2134269608
21,3,ISIP_8,78,1,48,47,2135022664
21,3,ISIP_8,79,1,48,50,2135785068
21,3,ISIP_8,80,1,48,48,2136540064
21,3,ISIP_8,81,1,48,48,2137265672
21,3,ISIP_8,82,1,48,49,2138006088
21,3,ISIP_8,83,1,48,41,2138817332
21,3,ISIP_8,84,1,48,41,2139617440
21,3,ISIP_8,85,1,48,43,2140395912
21,3,ISIP_8,86,1,48,47,2141139392
21,3,ISIP_8,87,1,48,47,2141943912
21,3,ISIP_8,88,1,48,44,2142701448
21,3,ISIP_8,89,1,48,45,2143499536
21,3,ISIP_8,90,1,48,44,2144259916
21,3,ISIP_8,91,1,48,53,2145069892
21,3,ISIP_8,92,1,48,44,2145857232
21,3,ISIP_8,93,1,48,52,2146586180
21,3,ISIP_8,94,1,48,29,2147380896
21,3,ISIP_8,95,1,48,49,2148088028
21,3,ISIP_8,96,1,48,44,2148913412
21,3,ISIP_8,97,1,48,48,2149677980
21,3,ISIP_8,98,1,48,48,2150459308
21,3,ISIP_8,99,1,48,50,2151235808
21,3,ISIP_8,100,1,48,61,2152028356
21,3,ISIP_8,101,1,48,57,2152821952
21,3,ISIP_8,102,1,48,43,2153557132
21,3,ISIP_8,103,1,48,55,2154301880
21,3,ISIP_8,104,1,48,50,2155072436
21,3,ISIP_8,105,1,48,58,2155842848
21,3,ISIP_8,106,1,48,43,2156632556
21,3,ISIP_8,107,1,48,41,2157366060
21,3,ISIP_8,108,1,48,51,2158133852
21,3,ISIP_8,109,1,48,51,2158919844
21,3,ISIP_8,110,1,48,56,2159740068
21,3,ISIP_8,111,1,48,53,2160490280
21,3,ISIP_8,112,1,48,51,2161229496
21,3,ISIP_8,113,1,48,54,2161998924
21,3,ISIP_8,114,1,48,49,2162749200
21,3,ISIP_8,115,1,48,48,2163543620
21,3,ISIP_8,116,1,48,54,2164307076
21,3,ISIP_8,117,1,48,64,2165072924
21,3,ISIP_8,118,1,48,57,2165796480
21,3,ISIP_8,119,1,48,56,2166591748
21,3,ISIP_8,120,1,48,54,2167369332
21,3,ISIP_8,121,1,48,44,2168178792
21,3,ISIP_8,122,1,48,49,2168921068
21,3,ISIP_8,123,1,48,47,2169696044
21,3,ISIP_8,124,1,48,59,2170466828
21,3,ISIP_8,125,1,48,54,2171229308
21,3,ISIP_8,126,1,48,60,2171979740
21,3,ISIP_8,127,1,48,61,2172754640
21,3,ISIP_8,128,1,48,60,2173531560
21,3,ISIP_8,129,1,48,58,2174332112
21,3,ISIP_8,130,1,48,56,2175081948
21,3,ISIP_8,131,1,48,54,2175839272
21,3,ISIP_8,132,1,48,57,2176646332
21,3,ISIP_8,133,1,48,61,2177399012
21,3,ISIP_8,134,1,48,60,2178160892
21,3,ISIP_8,135,1,48,54,2178935560
21,3,ISIP_8,136,1,48,62,2179707244
21,3,ISIP_8,137,1,48,59,2180457452
21,3,ISIP_8,138,1,48,57,2181219564
21,3,ISIP_8,139,1,48,48,2182037916
21,3,ISIP_8,140,1,48,54,2182811240
21,3,ISIP_8,141,1,48,59,2183560396
21,3,ISIP_8,142,1,48,48,2184300588
21,3,ISIP_8,143,1,48,59,2185079368
21,3,ISIP_8,144,1,48,50,2185871620
21,3,ISIP_8,145,1,48,60,2186653692
21,3,ISIP_8,146,1,48,57,2187395756
21,3,ISIP_8,147,1,48,54,2188173268
21,3,ISIP_8,148,1,48,53,2188989456
21,3,ISIP_8,149,1,48,53,2189748644
21,3,ISIP_8,150,1,48,59,2190501772
21,3,ISIP_8,151,1,48,57,2191265600
21,3,ISIP_8,152,1,48,59,2192050224
21,3,ISIP_8,153,1,48,54,2192802980
21,3,ISIP_8,154,1,48,58,2193568004
21,3,ISIP_8,155,1,48,59,2194379472
21,3,ISIP_8,156,1,48,54,2195154892
21,3,ISIP_8,157,1,48,57,2195923584
21,3,ISIP_8,158,1,48,59,2196644924
21,3,ISIP_8,159,1,48,55,2197445472
21,3,ISIP_8,160,1,48,48,2198239596
21,3,ISIP_8,161,1,48,54,2199086968
21,3,ISIP_8,162,1,48,53,2199793572
21,3,ISIP_8,163,1,48,54,2200534736
21,3,ISIP_8,164,1,48,51,2201357804
21,3,ISIP_8,165,1,48,50,2202057976
21,3,ISIP_8,166,1,48,52,2202760528
21,3,ISIP_8,167,1,48,53,2203521216
21,3,ISIP_8,168,1,48,55,2204291020
21,3,ISIP_8,169,1,48,46,2205043180
21,3,ISIP_8,170,1,48,54,2205796540
21,3,ISIP_8,171,1,48,59,2206595368
21,3,ISIP_8,172,1,48,43,2207408188
21,3,ISIP_8,173,1,48,56,2208044004
21,3,ISIP_8,174,1,48,54,2208796164
21,3,ISIP_8,175,1,48,54,2209605192
21,3,ISIP_8,176,1,48,50,2210361064
21,3,ISIP_8,177,1,48,57,2211093776
21,3,ISIP_8,178,1,48,59,2211837928
21,3,ISIP_8,179,1,48,59,2212581256
21,3,ISIP_8,180,1,48,49,2213320696
21,3,ISIP_8,181,1,48,57,2214041588
21,3,ISIP_8,182,1,48,51,2214867056
21,3,ISIP_8,183,1,48,51,2215646736
21,3,ISIP_8,184,1,48,46,2216396484
21,3,ISIP_8,0,9999,9999,9999,9999,2096399456
21,3,ISIP_8,1,9999,9999,9999,9999,2097199212
21,3,ISIP_8,2,9999,9999,9999,9999,2097999936
21,3,ISIP_8,3,9999,9999,9999,9999,2098799672
21,3,ISIP_8,4,9999,9999,9999,9999,2099599408
21,3,ISIP_8,5,9999,9999,9999,9999,2100399212
21,3,ISIP_8,6,9999,9999,9999,9999,2101199920
21,3,ISIP_8,7,9999,9999,9999,9999,2101999712
21,3,ISIP_8,8,9999,9999,9999,9999,2102799448
21,3,ISIP_8,9,9999,9999,9999,9999,2103599196
21,3,ISIP_8,10,9999,9999,9999,9999,2104399960
21,3,ISIP_8,11,9999,9999,9999,9999,2105199708
21,3,ISIP_8,12,9999,9999,9999,9999,2105999444
21,3,ISIP_8,13,9999,9999,9999,9999,2106799176
21,3,ISIP_8,14,9999,9999,9999,9999,2107599956
21,3,ISIP_8,15,9999,9999,9999,9999,2108399688
21,3,ISIP_8,16,9999,9999,9999,9999,2109199424
21,3,ISIP_8,17,9999,9999,9999,9999,2109999156
21,3,ISIP_8,18,9999,9999,9999,9999,2110799960
21,3,ISIP_8,19,9999,9999,9999,9999,2111599700
21,3,ISIP_8,20,9999,9999,9999,9999,2112399432
21,3,ISIP_8,21,9999,9999,9999,9999,2113199168
21,3,ISIP_8,22,9999,9999,9999,9999,2113999948
21,3,ISIP_8,23,9999,9999,9999,9999,2114799684
21,3,ISIP_8,24,9999,9999,9999,9999,2115599416
21,3,ISIP_8,25,9999,9999,9999,9999,2116399220
21,3,ISIP_8,26,9999,9999,9999,9999,2117199956
21,3,ISIP_8,27,9999,9999,9999,9999,2117999668
21,3,ISIP_8,28,9999,9999,9999,9999,2118799476
21,3,ISIP_8,29,9999,9999,9999,9999,2119599172
21,3,ISIP_8,30,9999,9999,9999,9999,2120399984
21,3,ISIP_8,31,9999,9999,9999,9999,2121199720
21,3,ISIP_8,32,9999,9999,9999,9999,2121999448
21,3,ISIP_8,33,9999,9999,9999,9999,2122799180
21,3,ISIP_8,34,9999,9999,9999,9999,2123599980
21,3,ISIP_8,35,9999,9999,9999,9999,2124399708
21,3,ISIP_8,36,9999,9999,9999,9999,2125199440
21,3,ISIP_8,37,9999,9999,9999,9999,2125999168
21,3,ISIP_8,38,9999,9999,9999,9999,2126799944
21,3,ISIP_8,39,9999,9999,9999,9999,2127599672
21,3,ISIP_8,40,9999,9999,9999,9999,2128399476
21,3,ISIP_8,41,9999,9999,9999,9999,2129199204
21,3,ISIP_8,42,9999,9999,9999,9999,2129999928
21,3,ISIP_8,43,9999,9999,9999,9999,2130799732
21,3,ISIP_8,44,9999,9999,9999,9999,2131599460
21,3,ISIP_8,45,9999,9999,9999,9999,2132399192
21,3,ISIP_8,46,9999,9999,9999,9999,2133199968
21,3,ISIP_8,47,9999,9999,9999,9999,2133999696
21,3,ISIP_8,48,9999,9999,9999,9999,2134799424
21,3,ISIP_8,49,9999,9999,9999,9999,2135599152
21,3,ISIP_8,50,9999,9999,9999,9999,2136399952
21,3,ISIP_8,51,9999,9999,9999,9999,2137199684
21,3,ISIP_8,52,9999,9999,9999,9999,2137999412
21,3,ISIP_8,53,9999,9999,9999,9999,2138799216
21,3,ISIP_8,54,9999,9999,9999,9999,2139599992
21,3,ISIP_8,55,9999,9999,9999,9999,2140399716
21,3,ISIP_8,56,9999,9999,9999,9999,2141199444
21,3,ISIP_8,57,9999,9999,9999,9999,2141999172
21,3,ISIP_8,58,9999,9999,9999,9999,2142799960
21,3,ISIP_8,59,9999,9999,9999,9999,2143599688
21,3,ISIP_8,60,9999,9999,9999,9999,2144399416
21,3,ISIP_8,61,9999,9999,9999,9999,2145199220
21,3,ISIP_8,62,9999,9999,9999,9999,2145999920
21,3,ISIP_8,63,9999,9999,9999,9999,2146799724
21,3,ISIP_8,64,9999,9999,9999,9999,2147599452
21,3,ISIP_8,65,9999,9999,9999,9999,2148399184
21,3,ISIP_8,66,9999,9999,9999,9999,2149199984
21,3,ISIP_8,67,9999,9999,9999,9999,2149999712
21,3,ISIP_8,68,9999,9999,9999,9999,2150799440
21,3,ISIP_8,69,9999,9999,9999,9999,2151599172
21,3,ISIP_8,70,9999,9999,9999,9999,2152399948
21,3,ISIP_8,71,9999,9999,9999,9999,2153199676
21,3,ISIP_8,72,9999,9999,9999,9999,2153999404
21,3,ISIP_8,73,9999,9999,9999,9999,2154799208
21,3,ISIP_8,74,9999,9999,9999,9999,2155599936
21,3,ISIP_8,75,9999,9999,9999,9999,2156399664
21,3,ISIP_8,76,9999,9999,9999,9999,2157199468
21,3,ISIP_8,77,9999,9999,9999,9999,2157999196
21,3,ISIP_8,78,9999,9999,9999,9999,2158799976
21,3,ISIP_8,79,9999,9999,9999,9999,2159599704
21,3,ISIP_8,80,9999,9999,9999,9999,2160399432
21,3,ISIP_8,81,9999,9999,9999,9999,2161199164
21,3,ISIP_8,82,9999,9999,9999,9999,2161999956
21,3,ISIP_8,83,9999,9999,9999,9999,2162799680
21,3,ISIP_8,84,9999,9999,9999,9999,2163599408
21,3,ISIP_8,85,9999,9999,9999,9999,2164399212
21,3,ISIP_8,86,9999,9999,9999,9999,2165199976
21,3,ISIP_8,87,9999,9999,9999,9999,2165999704
21,3,ISIP_8,88,9999,9999,9999,9999,2166799432
21,3,ISIP_8,89,9999,9999,9999,9999,2167599160
21,3,ISIP_8,90,9999,9999,9999,9999,2168399964
21,3,ISIP_8,91,9999,9999,9999,9999,2169199692
21,3,ISIP_8,92,9999,9999,9999,9999,2169999420
21,3,ISIP_8,93,9999,9999,9999,9999,2170799152
21,3,ISIP_8,94,9999,9999,9999,9999,2171599928
21,3,ISIP_8,95,9999,9999,9999,9999,2172399732
21,3,ISIP_8,96,9999,9999,9999,9999,2173199464
21,3,ISIP_8,97,9999,9999,9999,9999,2173999192
21,3,ISIP_8,98,9999,9999,9999,9999,2174799920
21,3,ISIP_8,99,9999,9999,9999,9999,2175599724
21,3,ISIP_8,100,9999,9999,9999,9999,2176399452
21,3,ISIP_8,101,9999,9999,9999,9999,2177199184
21,3,ISIP_8,102,9999,9999,9999,9999,2177999956
21,3,ISIP_8,103,9999,9999,9999,9999,2178799688
21,3,ISIP_8,104,9999,9999,9999,9999,2179599416
21,3,ISIP_8,105,9999,9999,9999,9999,2180399220
21,3,ISIP_8,106,9999,9999,9999,9999,2181199948
21,3,ISIP_8,107,9999,9999,9999,9999,2181999676
21,3,ISIP_8,108,9999,9999,9999,9999,2182799408
21,3,ISIP_8,109,9999,9999,9999,9999,2183599204
21,3,ISIP_8,110,9999,9999,9999,9999,2184399924
21,3,ISIP_8,111,9999,9999,9999,9999,2185199696
21,3,ISIP_8,112,9999,9999,9999,9999,2185999424
21,3,ISIP_8,113,9999,9999,9999,9999,2186799152
21,3,ISIP_8,114,9999,9999,9999,9999,2187599952
21,3,ISIP_8,115,9999,9999,9999,9999,2188399684
21,3,ISIP_8,116,9999,9999,9999,9999,2189199412
21,3,ISIP_8,117,9999,9999,9999,9999,2189999216
21,3,ISIP_8,118,9999,9999,9999,9999,2190799916
21,3,ISIP_8,119,9999,9999,9999,9999,2191599720
21,3,ISIP_8,120,9999,9999,9999,9999,2192399452
21,3,ISIP_8,121,9999,9999,9999,9999,2193199180
21,3,ISIP_8,122,9999,9999,9999,9999,2193999980
21,3,ISIP_8,123,9999,9999,9999,9999,2194799712
21,3,ISIP_8,124,9999,9999,9999,9999,2195599440
21,3,ISIP_8,125,9999,9999,9999,9999,2196399172
21,3,ISIP_8,126,9999,9999,9999,9999,2197199948
21,3,ISIP_8,127,9999,9999,9999,9999,2197999676
21,3,ISIP_8,128,9999,9999,9999,9999,2198799480
21,3,ISIP_8,129,9999,9999,9999,9999,2199599208
21,3,ISIP_8,130,9999,9999,9999,9999,2200399932
21,3,ISIP_8,131,9999,9999,9999,9999,2201199664
21,3,ISIP_8,132,9999,9999,9999,9999,2201999464
21,3,ISIP_8,133,9999,9999,9999,9999,2202799188
21,3,ISIP_8,134,9999,9999,9999,9999,2203599964
21,3,ISIP_8,135,9999,9999,9999,9999,2204399676
21,3,ISIP_8,136,9999,9999,9999,9999,2205199408
21,3,ISIP_8,137,9999,9999,9999,9999,2205999212
21,3,ISIP_8,138,9999,9999,9999,9999,2206799936
21,3,ISIP_8,139,9999,9999,9999,9999,2207599664
21,3,ISIP_8,140,9999,9999,9999,9999,2208399468
21,3,ISIP_8,141,9999,9999,9999,9999,2209199200
21,3,ISIP_8,142,9999,9999,9999,9999,2209999972
21,3,ISIP_8,143,9999,9999,9999,9999,2210799704
21,3,ISIP_8,144,9999,9999,9999,9999,2211599432
21,3,ISIP_8,145,9999,9999,9999,9999,2212399160
21,3,ISIP_8,146,9999,9999,9999,9999,2213199960
21,3,ISIP_8,147,9999,9999,9999,9999,2213999688
21,3,ISIP_8,148,9999,9999,9999,9999,2214799420
21,3,ISIP_8,149,9999,9999,9999,9999,2215599220
22,11,Pattern_Practice,0,5,42,127,2341746104
22,11,Pattern_Practice,1,5,42,127,2342245748
22,11,Pattern_Practice,2,5,42,127,2342745388
22,11,Pattern_Practice,3,5,42,127,2343246452
22,11,Pattern_Practice,4,5,42,127,2343746020
22,11,Pattern_Practice,5,1,48,30,2343815484
22,11,Pattern_Practice,6,5,42,127,2344245564
22,11,Pattern_Practice,7,1,48,36,2344279352
22,11,Pattern_Practice,8,5,42,127,2344746504
22,11,Pattern_Practice,9,1,38,41,2344819436
22,11,Pattern_Practice,10,5,42,127,2345246276
22,11,Pattern_Practice,11,1,38,52,2345316740
22,11,Pattern_Practice,12,5,42,127,2345745672
22,11,Pattern_Practice,13,1,48,42,2345805512
22,11,Pattern_Practice,14,5,42,127,2346245592
22,11,Pattern_Practice,15,1,48,48,2346305208
22,11,Pattern_Practice,16,1,48,48,2346725348
22,11,Pattern_Practice,17,5,42,127,2346746400
22,11,Pattern_Practice,18,1,38,49,2347224892
22,11,Pattern_Practice,19,5,42,127,2347245872
22,11,Pattern_Practice,20,1,48,48,2347389320
22,11,Pattern_Practice,21,1,38,55,2347554156
22,11,Pattern_Practice,22,5,42,127,2347745532
22,11,Pattern_Practice,23,1,48,49,2347762040
22,11,Pattern_Practice,24,1,38,56,2348224240
22,11,Pattern_Practice,25,5,42,127,2348246492
22,11,Pattern_Practice,26,5,42,127,2348746268
22,11,Pattern_Practice,27,1,38,58,2348774668
22,11,Pattern_Practice,28,5,42,127,2349245816
22,11,Pattern_Practice,29,1,38,59,2349252752
22,11,Pattern_Practice,30,1,48,68,2349630580
22,11,Pattern_Practice,31,5,42,127,2349745708
22,11,Pattern_Practice,32,1,38,65,2349764384
22,11,Pattern_Practice,33,1,48,65,2349917280
22,11,Pattern_Practice,34,5,42,127,2350246208
22,11,Pattern_Practice,35,1,38,68,2350267348
22,11,Pattern_Practice,36,5,42,127,2350746048
22,11,Pattern_Practice,37,1,38,56,2350781556
22,11,Pattern_Practice,38,5,42,127,2351245668
22,11,Pattern_Practice,39,1,38,59,2351278112
22,11,Pattern_Practice,40,1,48,54,2351632728
22,11,Pattern_Practice,41,1,38,51,2351730792
22,11,Pattern_Practice,42,5,42,127,2351746532
22,11,Pattern_Practice,43,1,48,63,2351919280
22,11,Pattern_Practice,44,1,38,64,2352054740
22,11,Pattern_Practice,45,5,42,127,2352246340
22,11,Pattern_Practice,46,1,38,70,2352483528
22,11,Pattern_Practice,47,5,42,127,2352745960
22,11,Pattern_Practice,48,1,38,53,2352985012
22,11,Pattern_Practice,49,5,42,127,2353245580
22,11,Pattern_Practice,50,1,38,54,2353526224
22,11,Pattern_Practice,51,5,42,127,2353746244
22,11,Pattern_Practice,52,1,48,65,2354015744
22,11,Pattern_Practice,53,5,42,127,2354246092
22,11,Pattern_Practice,54,1,48,68,2354510428
22,11,Pattern_Practice,55,5,42,127,2354745564
22,11,Pattern_Practice,56,1,38,64,2355011996
22,11,Pattern_Practice,57,5,42,127,2355245380
22,11,Pattern_Practice,58,1,38,72,2355542876
22,11,Pattern_Practice,59,5,42,127,2355746124
22,11,Pattern_Practice,60,1,48,51,2355987648
22,11,Pattern_Practice,61,5,42,127,2356245816
22,11,Pattern_Practice,62,1,48,50,2356517112
22,11,Pattern_Practice,63,5,42,127,2356745584
22,11,Pattern_Practice,64,1,48,61,2357020020
22,11,Pattern_Practice,65,5,42,127,2357246252
22,11,Pattern_Practice,66,1,48,27,2357433700
22,11,Pattern_Practice,67,1,48,51,2357577608
22,11,Pattern_Practice,68,5,42,127,2357746148
22,11,Pattern_Practice,69,1,48,61,2357913024
22,11,Pattern_Practice,70,1,48,81,2358162704
22,11,Pattern_Practice,71,5,42,127,2358245688
22,11,Pattern_Practice,72,1,38,66,2358709520
22,11,Pattern_Practice,73,5,42,127,2358745528
22,11,Pattern_Practice,74,1,38,59,2359244084
22,11,Pattern_Practice,75,5,42,127,2359247244
22,11,Pattern_Practice,76,5,42,127,2359745896
22,11,Pattern_Practice,77,1,38,51,2359784024
22,11,Pattern_Practice,78,1,38,60,2360191176
22,11,Pattern_Practice,79,5,42,127,2360245660
22,11,Pattern_Practice,80,1,38,50,2360335680
22,11,Pattern_Practice,81,1,38,34,2360372708
22,11,Pattern_Practice,82,1,38,66,2360713936
22,11,Pattern_Practice,83,5,42,127,2360746284
22,11,Pattern_Practice,84,1,38,66,2360928480
22,11,Pattern_Practice,85,5,42,127,2361246040
22,11,Pattern_Practice,86,1,38,61,2361307872
22,11,Pattern_Practice,87,1,38,52,2361465848
22,11,Pattern_Practice,88,5,42,127,2361745860
22,11,Pattern_Practice,89,1,38,61,2361941828
22,11,Pattern_Practice,90,5,42,127,2362245408
22,11,Pattern_Practice,91,1,48,74,2362590748
22,11,Pattern_Practice,92,5,42,127,2362746148
22,11,Pattern_Practice,93,1,48,64,2363114976
22,11,Pattern_Practice,94,5,42,127,2363245916
22,11,Pattern_Practice,95,1,48,61,2363621480
22,11,Pattern_Practice,96,5,42,127,2363745684
22,11,Pattern_Practice,97,1,48,73,2364098432
22,11,Pattern_Practice,98,5,42,127,2364246352
22,11,Pattern_Practice,99,1,48,67,2364565520
22,11,Pattern_Practice,100,5,42,127,2364746196
22,11,Pattern_Practice,101,1,38,72,2364988316
22,11,Pattern_Practice,102,5,42,127,2365245744
22,11,Pattern_Practice,103,1,38,65,2365402648
22,11,Pattern_Practice,104,1,48,62,2365620460
22,11,Pattern_Practice,105,1,48,38,2365710940
22,11,Pattern_Practice,106,5,42,127,2365745456
22,11,Pattern_Practice,107,1,38,67,2365912740
22,11,Pattern_Practice,108,1,48,71,2366109684
22,11,Pattern_Practice,109,5,42,127,2366246288
22,11,Pattern_Practice,110,1,38,70,2366373900
22,11,Pattern_Practice,111,1,38,32,2366433036
22,11,Pattern_Practice,112,1,38,91,2366623176
22,11,Pattern_Practice,113,1,38,33,2366680820
22,11,Pattern_Practice,114,5,42,127,2366746080
22,11,Pattern_Practice,115,1,38,33,2367095100
22,11,Pattern_Practice,116,5,42,127,2367245536
22,11,Pattern_Practice,117,1,38,75,2367578932
22,11,Pattern_Practice,118,1,38,46,2367645784
22,11,Pattern_Practice,119,5,42,127,2367746332
22,11,Pattern_Practice,120,1,38,67,2368155124
22,11,Pattern_Practice,121,5,42,127,2368246112
22,11,Pattern_Practice,122,1,38,59,2368373856
22,11,Pattern_Practice,123,1,38,47,2368528364
22,11,Pattern_Practice,124,1,38,44,2368670184
22,11,Pattern_Practice,125,5,42,127,2368745912
22,11,Pattern_Practice,126,1,38,41,2368756952
22,11,Pattern_Practice,127,1,38,72,2369230296
22,11,Pattern_Practice,128,5,42,127,2369245736
22,11,Pattern_Practice,129,5,42,127,2369746264
22,11,Pattern_Practice,130,1,38,67,2369776836
22,11,Pattern_Practice,131,5,42,127,2370245884
22,11,Pattern_Practice,132,1,38,81,2370301880
22,11,Pattern_Practice,133,1,38,58,2370490004
22,11,Pattern_Practice,134,1,38,71,2370658380
22,11,Pattern_Practice,135,1,38,41,2370696204
22,11,Pattern_Practice,136,5,42,127,2370745828
22,11,Pattern_Practice,137,1,38,49,2370828964
22,11,Pattern_Practice,138,5,42,127,2371245356
22,11,Pattern_Practice,139,1,38,75,2371332848
22,11,Pattern_Practice,140,5,42,127,2371746024
22,11,Pattern_Practice,141,1,38,73,2371853412
22,11,Pattern_Practice,142,5,42,127,2372245792
22,11,Pattern_Practice,143,1,48,57,2372311740
22,11,Pattern_Practice,144,1,48,54,2372531124
22,11,Pattern_Practice,145,1,48,47,2372674216
22,11,Pattern_Practice,146,5,42,127,2372745536
22,11,Pattern_Practice,147,1,48,54,2372875868
22,11,Pattern_Practice,148,5,42,127,2373246188
22,11,Pattern_Practice,149,1,38,71,2373303688
22,11,Pattern_Practice,150,5,42,127,2373745884
22,11,Pattern_Practice,151,1,48,49,2373765904
22,11,Pattern_Practice,152,5,42,127,2374246024
22,11,Pattern_Practice,153,1,38,57,2374274648
22,11,Pattern_Practice,154,1,48,58,2374716660
22,11,Pattern_Practice,155,5,42,127,2374745412
22,11,Pattern_Practice,156,1,38,57,2374908212
22,11,Pattern_Practice,157,1,48,57,2375069624
22,11,Pattern_Practice,158,1,38,57,2375242260
22,11,Pattern_Practice,159,5,42,127,2375246036
22,11,Pattern_Practice,160,1,48,67,2375691892
22,11,Pattern_Practice,161,5,42,127,2375745880
22,11,Pattern_Practice,162,1,48,65,2375886912
22,11,Pattern_Practice,163,5,42,127,2376245784
22,11,Pattern_Practice,164,1,48,58,2376346140
22,11,Pattern_Practice,165,5,42,127,2376746352
22,11,Pattern_Practice,166,1,38,55,2376878820
22,11,Pattern_Practice,167,5,42,127,2377245972
22,11,Pattern_Practice,168,1,38,54,2377435660
22,11,Pattern_Practice,169,5,42,127,2377745888
22,11,Pattern_Practice,170,1,38,67,2377949788
22,11,Pattern_Practice,171,5,42,127,2378245432
22,11,Pattern_Practice,172,1,38,79,2378480676
22,11,Pattern_Practice,173,5,42,127,2378746176
22,11,Pattern_Practice,174,1,48,58,2378932124
22,11,Pattern_Practice,175,1,48,49,2379107384
22,11,Pattern_Practice,176,5,42,127,2379245996
22,11,Pattern_Practice,177,1,48,36,2379257568
22,11,Pattern_Practice,178,1,38,66,2379727176
22,11,Pattern_Practice,179,5,42,127,2379745832
22,11,Pattern_Practice,180,5,42,127,2380246432
22,11,Pattern_Practice,181,1,48,46,2380251200
22,11,Pattern_Practice,182,1,38,79,2380397584
22,11,Pattern_Practice,183,5,42,127,2380746032
22,11,Pattern_Practice,184,1,48,78,2380853892
22,11,Pattern_Practice,185,1,48,54,2381096068
22,11,Pattern_Practice,186,5,42,127,2381245928
22,11,Pattern_Practice,187,1,38,64,2381526796
22,11,Pattern_Practice,0,9999,9999,9999,9999,2341743672
22,11,Pattern_Practice,1,9999,9999,9999,9999,2342243388
22,11,Pattern_Practice,2,9999,9999,9999,9999,2342743104
22,11,Pattern_Practice,3,9999,9999,9999,9999,2343243864
22,11,Pattern_Practice,4,9999,9999,9999,9999,2343743584
22,11,Pattern_Practice,5,9999,9999,9999,9999,2344243280
22,11,Pattern_Practice,6,9999,9999,9999,9999,2344743996
22,11,Pattern_Practice,7,9999,9999,9999,9999,2345243764
22,11,Pattern_Practice,8,9999,9999,9999,9999,2345743460
22,11,Pattern_Practice,9,9999,9999,9999,9999,2346243156
22,11,Pattern_Practice,10,9999,9999,9999,9999,2346743892
22,11,Pattern_Practice,11,9999,9999,9999,9999,2347243584
22,11,Pattern_Practice,12,9999,9999,9999,9999,2347743320
22,11,Pattern_Practice,13,9999,9999,9999,9999,2348244056
22,11,Pattern_Practice,14,9999,9999,9999,9999,2348743756
22,11,Pattern_Practice,15,9999,9999,9999,9999,2349243452
22,11,Pattern_Practice,16,9999,9999,9999,9999,2349743200
22,11,Pattern_Practice,17,9999,9999,9999,9999,2350243920
22,11,Pattern_Practice,18,9999,9999,9999,9999,2350743612
22,11,Pattern_Practice,19,9999,9999,9999,9999,2351243384
22,11,Pattern_Practice,20,9999,9999,9999,9999,2351744096
22,11,Pattern_Practice,21,9999,9999,9999,9999,2352243828
22,11,Pattern_Practice,22,9999,9999,9999,9999,2352743524
22,11,Pattern_Practice,23,9999,9999,9999,9999,2353243220
22,11,Pattern_Practice,24,9999,9999,9999,9999,2353743960
22,11,Pattern_Practice,25,9999,9999,9999,9999,2354243656
22,11,Pattern_Practice,26,9999,9999,9999,9999,2354743352
22,11,Pattern_Practice,27,9999,9999,9999,9999,2355243096
22,11,Pattern_Practice,28,9999,9999,9999,9999,2355743836
22,11,Pattern_Practice,29,9999,9999,9999,9999,2356243528
22,11,Pattern_Practice,30,9999,9999,9999,9999,2356743224
22,11,Pattern_Practice,31,9999,9999,9999,9999,2357243964
22,11,Pattern_Practice,32,9999,9999,9999,9999,2357743712
22,11,Pattern_Practice,33,9999,9999,9999,9999,2358243400
22,11,Pattern_Practice,34,9999,9999,9999,9999,2358743096
22,11,Pattern_Practice,35,9999,9999,9999,9999,2359243872
22,11,Pattern_Practice,36,9999,9999,9999,9999,2359743536
22,11,Pattern_Practice,37,9999,9999,9999,9999,2360243300
22,11,Pattern_Practice,38,9999,9999,9999,9999,2360744000
22,11,Pattern_Practice,39,9999,9999,9999,9999,2361243752
22,11,Pattern_Practice,40,9999,9999,9999,9999,2361743424
22,11,Pattern_Practice,41,9999,9999,9999,9999,2362243120
22,11,Pattern_Practice,42,9999,9999,9999,9999,2362743860
22,11,Pattern_Practice,43,9999,9999,9999,9999,2363243632
22,11,Pattern_Practice,44,9999,9999,9999,9999,2363743324
22,11,Pattern_Practice,45,9999,9999,9999,9999,2364244064
22,11,Pattern_Practice,46,9999,9999,9999,9999,2364743760
22,11,Pattern_Practice,47,9999,9999,9999,9999,2365243456
22,11,Pattern_Practice,48,9999,9999,9999,9999,2365743172
22,11,Pattern_Practice,49,9999,9999,9999,9999,2366243924
22,11,Pattern_Practice,50,9999,9999,9999,9999,2366743644
22,11,Pattern_Practice,51,9999,9999,9999,9999,2367243324
22,11,Pattern_Practice,52,9999,9999,9999,9999,2367744116
22,11,Pattern_Practice,53,9999,9999,9999,9999,2368243828
22,11,Pattern_Practice,54,9999,9999,9999,9999,2368743480
22,11,Pattern_Practice,55,9999,9999,9999,9999,2369243228
22,11,Pattern_Practice,56,9999,9999,9999,9999,2369743976
22,11,Pattern_Practice,57,9999,9999,9999,9999,2370243672
22,11,Pattern_Practice,58,9999,9999,9999,9999,2370743392
22,11,Pattern_Practice,59,9999,9999,9999,9999,2371243072
22,11,Pattern_Practice,60,9999,9999,9999,9999,2371743812
22,11,Pattern_Practice,61,9999,9999,9999,9999,2372243508
22,11,Pattern_Practice,62,9999,9999,9999,9999,2372743248
22,11,Pattern_Practice,63,9999,9999,9999,9999,2373243976
22,11,Pattern_Practice,64,9999,9999,9999,9999,2373743672
22,11,Pattern_Practice,65,9999,9999,9999,9999,2374243440
22,11,Pattern_Practice,66,9999,9999,9999,9999,2374743128
22,11,Pattern_Practice,67,9999,9999,9999,9999,2375243824
22,11,Pattern_Practice,68,9999,9999,9999,9999,2375743592
22,11,Pattern_Practice,69,9999,9999,9999,9999,2376243272
22,11,Pattern_Practice,70,9999,9999,9999,9999,2376743988
22,11,Pattern_Practice,71,9999,9999,9999,9999,2377243760
22,11,Pattern_Practice,72,9999,9999,9999,9999,2377743452
22,11,Pattern_Practice,73,9999,9999,9999,9999,2378243148
22,11,Pattern_Practice,74,9999,9999,9999,9999,2378743888
22,11,Pattern_Practice,75,9999,9999,9999,9999,2379243636
22,11,Pattern_Practice,76,9999,9999,9999,9999,2379743324
22,11,Pattern_Practice,77,9999,9999,9999,9999,2380244072
22,11,Pattern_Practice,78,9999,9999,9999,9999,2380743744
22,11,Pattern_Practice,79,9999,9999,9999,9999,2381243492
23,13,Improv_Metronome,0,5,42,127,2418377276
23,13,Improv_Metronome,1,5,42,127,2418876916
23,13,Improv_Metronome,2,5,42,127,2419376560
23,13,Improv_Metronome,3,1,38,35,2419416256
23,13,Improv_Metronome,4,5,42,127,2419877300
23,13,Improv_Metronome,5,1,38,43,2419942952
23,13,Improv_Metronome,6,5,42,127,2420376920
23,13,Improv_Metronome,7,1,38,45,2420466352
23,13,Improv_Metronome,8,5,42,127,2420876836
23,13,Improv_Metronome,9,1,48,49,2420877804
23,13,Improv_Metronome,10,1,48,46,2421032224
23,13,Improv_Metronome,11,1,48,43,2421160204
23,13,Improv_Metronome,12,1,48,47,2421308832
23,13,Improv_Metronome,13,5,42,127,2421377304
23,13,Improv_Metronome,14,1,38,50,2421814736
23,13,Improv_Metronome,15,5,42,127,2421877076
23,13,Improv_Metronome,16,1,38,52,2422328420
23,13,Improv_Metronome,17,5,42,127,2422376920
23,13,Improv_Metronome,18,1,38,42,2422820980
23,13,Improv_Metronome,19,5,42,127,2422876464
23,13,Improv_Metronome,20,1,38,57,2423007548
23,13,Improv_Metronome,21,1,38,17,2423119896
23,13,Improv_Metronome,22,1,38,46,2423320400
23,13,Improv_Metronome,23,5,42,127,2423377236
23,13,Improv_Metronome,24,5,42,127,2423877012
23,13,Improv_Metronome,25,1,48,33,2423886412
23,13,Improv_Metronome,26,5,42,127,2424376780
23,13,Improv_Metronome,27,1,48,51,2424401740
23,13,Improv_Metronome,28,5,42,127,2424877276
23,13,Improv_Metronome,29,1,38,54,2424938760
23,13,Improv_Metronome,30,1,38,54,2425107256
23,13,Improv_Metronome,31,1,38,63,2425285952
23,13,Improv_Metronome,32,5,42,127,2425377016
23,13,Improv_Metronome,33,1,38,66,2425465560
23,13,Improv_Metronome,34,1,38,44,2425503240
23,13,Improv_Metronome,35,5,42,127,2425876748
23,13,Improv_Metronome,36,1,48,46,2425941672
23,13,Improv_Metronome,37,5,42,127,2426376668
23,13,Improv_Metronome,38,1,48,48,2426423044
23,13,Improv_Metronome,39,5,42,127,2426877336
23,13,Improv_Metronome,40,1,48,43,2426901096
23,13,Improv_Metronome,41,1,48,42,2427371976
23,13,Improv_Metronome,42,5,42,127,2427377096
23,13,Improv_Metronome,43,5,42,127,2427876872
23,13,Improv_Metronome,44,1,48,52,2427879472
23,13,Improv_Metronome,45,1,38,51,2428371512
23,13,Improv_Metronome,46,5,42,127,2428376336
23,13,Improv_Metronome,47,1,38,53,2428535788
23,13,Improv_Metronome,48,1,38,52,2428733332
23,13,Improv_Metronome,49,5,42,127,2428877116
23,13,Improv_Metronome,50,1,38,75,2428910604
23,13,Improv_Metronome,51,1,48,53,2429289404
23,13,Improv_Metronome,52,5,42,127,2429377028
23,13,Improv_Metronome,53,1,48,51,2429452612
23,13,Improv_Metronome,54,1,38,60,2429870980
23,13,Improv_Metronome,55,5,42,127,2429876852
23,13,Improv_Metronome,56,1,48,45,2430321384
23,13,Improv_Metronome,57,5,42,127,2430377368
23,13,Improv_Metronome,58,1,48,39,2430475468
23,13,Improv_Metronome,59,5,42,127,2430876900
23,13,Improv_Metronome,60,1,38,54,2430911880
23,13,Improv_Metronome,61,1,48,49,2431293372
23,13,Improv_Metronome,62,5,42,127,2431376884
23,13,Improv_Metronome,63,1,48,38,2431441244
23,13,Improv_Metronome,64,5,42,127,2431876412
23,13,Improv_Metronome,65,1,38,48,2431883572
23,13,Improv_Metronome,66,1,38,34,2431921696
23,13,Improv_Metronome,67,5,42,127,2432377132
23,13,Improv_Metronome,68,1,38,57,2432393864
23,13,Improv_Metronome,69,5,42,127,2432876904
23,13,Improv_Metronome,70,1,38,65,2432921836
23,13,Improv_Metronome,71,1,48,49,2433347384
23,13,Improv_Metronome,72,5,42,127,2433376888
23,13,Improv_Metronome,73,1,48,51,2433497800
23,13,Improv_Metronome,74,1,48,26,2433626004
23,13,Improv_Metronome,75,1,48,36,2433841652
23,13,Improv_Metronome,76,5,42,127,2433877436
23,13,Improv_Metronome,77,1,48,40,2434370440
23,13,Improv_Metronome,78,5,42,127,2434377060
23,13,Improv_Metronome,79,5,42,127,2434876760
23,13,Improv_Metronome,80,1,38,54,2434905536
23,13,Improv_Metronome,81,1,38,63,2435364272
23,13,Improv_Metronome,82,5,42,127,2435376748
23,13,Improv_Metronome,83,5,42,127,2435877172
23,13,Improv_Metronome,84,1,38,59,2435918684
23,13,Improv_Metronome,85,5,42,127,2436376940
23,13,Improv_Metronome,86,1,38,53,2436398780
23,13,Improv_Metronome,87,1,38,31,2436459496
23,13,Improv_Metronome,88,1,48,46,2436475040
23,13,Improv_Metronome,89,1,38,49,2436740468
23,13,Improv_Metronome,90,5,42,127,2436876840
23,13,Improv_Metronome,91,1,38,52,2436921048
23,13,Improv_Metronome,92,1,38,53,2437288984
23,13,Improv_Metronome,93,5,42,127,2437377352
23,13,Improv_Metronome,94,1,38,53,2437422744
23,13,Improv_Metronome,95,1,48,51,2437863080
23,13,Improv_Metronome,96,5,42,127,2437877028
23,13,Improv_Metronome,97,5,42,127,2438376876
23,13,Improv_Metronome,98,1,48,66,2438388148
23,13,Improv_Metronome,99,5,42,127,2438876720
23,13,Improv_Metronome,100,1,48,61,2438878288
23,13,Improv_Metronome,101,5,42,127,2439377460
23,13,Improv_Metronome,102,1,38,69,2439390604
23,13,Improv_Metronome,103,1,38,67,2439580744
23,13,Improv_Metronome,104,1,38,49,2439787112
23,13,Improv_Metronome,105,5,42,127,2439876980
23,13,Improv_Metronome,106,1,38,57,2439968196
23,13,Improv_Metronome,107,5,42,127,2440376732
23,13,Improv_Metronome,108,1,38,51,2440479556
23,13,Improv_Metronome,109,1,48,35,2440491804
23,13,Improv_Metronome,110,5,42,127,2440877504
23,13,Improv_Metronome,111,1,38,53,2440992144
23,13,Improv_Metronome,112,1,38,35,2441034332
23,13,Improv_Metronome,113,5,42,127,2441377028
23,13,Improv_Metronome,114,1,38,65,2441494740
23,13,Improv_Metronome,115,5,42,127,2441876944
23,13,Improv_Metronome,116,1,38,66,2442018440
23,13,Improv_Metronome,117,5,42,127,2442376640
23,13,Improv_Metronome,118,1,48,49,2442502204
23,13,Improv_Metronome,119,1,48,56,2442649784
23,13,Improv_Metronome,120,1,48,45,2442788884
23,13,Improv_Metronome,121,5,42,127,2442877428
23,13,Improv_Metronome,122,1,48,57,2443318896
23,13,Improv_Metronome,123,5,42,127,2443376900
23,13,Improv_Metronome,124,1,48,54,2443876224
23,13,Improv_Metronome,125,5,42,127,2443877568
23,13,Improv_Metronome,126,5,42,127,2444376444
23,13,Improv_Metronome,127,1,48,54,2444404396
23,13,Improv_Metronome,128,5,42,127,2444877036
23,13,Improv_Metronome,129,1,48,72,2444921892
23,13,Improv_Metronome,130,1,38,68,2445370708
23,13,Improv_Metronome,131,5,42,127,2445376800
23,13,Improv_Metronome,132,1,38,58,2445455376
23,13,Improv_Metronome,133,1,38,63,2445678572
23,13,Improv_Metronome,134,1,38,62,2445793444
23,13,Improv_Metronome,135,5,42,127,2445876604
23,13,Improv_Metronome,136,1,38,72,2445951212
23,13,Improv_Metronome,137,1,38,91,2446343076
23,13,Improv_Metronome,138,5,42,127,2446377444
23,13,Improv_Metronome,139,1,38,41,2446405032
23,13,Improv_Metronome,140,1,38,64,2446871700
23,13,Improv_Metronome,141,5,42,127,2446876972
23,13,Improv_Metronome,142,5,42,127,2447376672
23,13,Improv_Metronome,143,1,48,79,2447415264
23,13,Improv_Metronome,144,1,38,55,2447540456
23,13,Improv_Metronome,145,1,38,57,2447743016
23,13,Improv_Metronome,146,5,42,127,2447876396
23,13,Improv_Metronome,147,1,38,57,2447919484
23,13,Improv_Metronome,148,1,38,62,2448359744
23,13,Improv_Metronome,149,5,42,127,2448377280
23,13,Improv_Metronome,150,1,38,43,2448391380
23,13,Improv_Metronome,151,5,42,127,2448876884
23,13,Improv_Metronome,152,1,38,82,2448894736
23,13,Improv_Metronome,153,1,48,66,2449376728
23,13,Improv_Metronome,154,5,42,127,2449377992
23,13,Improv_Metronome,155,1,48,51,2449586220
23,13,Improv_Metronome,156,1,48,57,2449718464
23,13,Improv_Metronome,157,5,42,127,2449877500
23,13,Improv_Metronome,158,1,48,59,2449879064
23,13,Improv_Metronome,159,1,48,33,2449934224
23,13,Improv_Metronome,160,5,42,127,2450377172
23,13,Improv_Metronome,161,1,48,62,2450378212
23,13,Improv_Metronome,162,5,42,127,2450876720
23,13,Improv_Metronome,163,1,48,65,2450907216
23,13,Improv_Metronome,164,5,42,127,2451376412
23,13,Improv_Metronome,165,1,38,71,2451417004
23,13,Improv_Metronome,166,1,38,56,2451580364
23,13,Improv_Metronome,167,1,38,59,2451732256
23,13,Improv_Metronome,168,1,38,54,2451872956
23,13,Improv_Metronome,169,5,42,127,2451877328
23,13,Improv_Metronome,170,5,42,127,2452376956
23,13,Improv_Metronome,171,1,38,64,2452409020
23,13,Improv_Metronome,172,5,42,127,2452876576
23,13,Improv_Metronome,173,1,38,64,2452912680
23,13,Improv_Metronome,174,5,42,127,2453377616
23,13,Improv_Metronome,175,1,38,58,2453423964
23,13,Improv_Metronome,176,1,38,48,2453561220
23,13,Improv_Metronome,177,1,38,42,2453617448
23,13,Improv_Metronome,178,1,38,49,2453781304
23,13,Improv_Metronome,179,5,42,127,2453877316
23,13,Improv_Metronome,180,1,38,62,2453988372
23,13,Improv_Metronome,181,1,38,45,2454015872
23,13,Improv_Metronome,182,5,42,127,2454376768
23,13,Improv_Metronome,183,1,38,61,2454492232
23,13,Improv_Metronome,184,5,42,127,2454876388
23,13,Improv_Metronome,185,1,38,91,2454956620
23,13,Improv_Metronome,186,5,42,127,2455377424
23,13,Improv_Metronome,187,1,48,71,2455491316
23,13,Improv_Metronome,188,1,48,67,2455686844
23,13,Improv_Metronome,189,1,48,62,2455823924
23,13,Improv_Metronome,190,5,42,127,2455877016
23,13,Improv_Metronome,191,1,48,40,2455955740
23,13,Improv_Metronome,192,5,42,127,2456376620
23,13,Improv_Metronome,193,1,48,36,2456438528
23,13,Improv_Metronome,194,1,38,16,2456446808
23,13,Improv_Metronome,195,5,42,127,2456877540
23,13,Improv_Metronome,196,1,48,71,2456957104
23,13,Improv_Metronome,197,5,42,127,2457377356
23,13,Improv_Metronome,198,1,48,73,2457452760
23,13,Improv_Metronome,199,1,48,53,2457678200
23,13,Improv_Metronome,200,1,48,53,2457811020
23,13,Improv_Metronome,201,5,42,127,2457876728
23,13,Improv_Metronome,202,1,48,53,2457905436
23,13,Improv_Metronome,203,5,42,127,2458376480
23,13,Improv_Metronome,204,1,48,72,2458445296
23,13,Improv_Metronome,205,5,42,127,2458877448
23,13,Improv_Metronome,206,1,48,64,2458915644
23,13,Improv_Metronome,207,5,42,127,2459377364
23,13,Improv_Metronome,208,1,48,67,2459410924
23,13,Improv_Metronome,209,1,48,61,2459539208
23,13,Improv_Metronome,210,1,48,46,2459659236
23,13,Improv_Metronome,211,1,48,35,2459739424
23,13,Improv_Metronome,212,5,42,127,2459876696
23,13,Improv_Metronome,213,1,48,76,2460324088
23,13,Improv_Metronome,214,5,42,127,2460376556
23,13,Improv_Metronome,215,1,48,84,2460863200
23,13,Improv_Metronome,216,5,42,127,2460877444
23,13,Improv_Metronome,217,5,42,127,2461377148
23,13,Improv_Metronome,218,1,38,75,2461404052
23,13,Improv_Metronome,219,1,38,74,2461554028
23,13,Improv_Metronome,220,1,38,51,2461693128
23,13,Improv_Metronome,221,1,38,45,2461874756
23,13,Improv_Metronome,222,5,42,127,2461876792
23,13,Improv_Metronome,223,5,42,127,2462377320
23,13,Improv_Metronome,224,1,38,80,2462390312
23,13,Improv_Metronome,225,5,42,127,2462877236
23,13,Improv_Metronome,226,1,38,94,2462888880
23,13,Improv_Metronome,227,5,42,127,2463376784
23,13,Improv_Metronome,228,1,38,77,2463412444
23,13,Improv_Metronome,229,1,38,88,2463813532
23,13,Improv_Metronome,230,1,38,46,2463856220
23,13,Improv_Metronome,231,5,42,127,2463876376
23,13,Improv_Metronome,232,1,38,68,2464353144
23,13,Improv_Metronome,233,5,42,127,2464377340
23,13,Improv_Metronome,234,1,38,73,2464814176
23,13,Improv_Metronome,235,5,42,127,2464877336
23,13,Improv_Metronome,236,1,38,49,2464978128
23,13,Improv_Metronome,237,1,38,46,2465142912
23,13,Improv_Metronome,238,1,38,79,2465343600
23,13,Improv_Metronome,239,1,38,48,2465376380
23,13,Improv_Metronome,240,5,42,127,2465378464
23,13,Improv_Metronome,241,5,42,127,2465877564
23,13,Improv_Metronome,242,1,38,80,2465878456
23,13,Improv_Metronome,243,5,42,127,2466377260
23,13,Improv_Metronome,244,1,38,89,2466384492
23,13,Improv_Metronome,245,5,42,127,2466876660
23,13,Improv_Metronome,246,1,38,75,2466921664
23,13,Improv_Metronome,247,1,38,58,2467091204
23,13,Improv_Metronome,248,1,38,70,2467291888
23,13,Improv_Metronome,249,5,42,127,2467376396
23,13,Improv_Metronome,250,1,38,65,2467452352
23,13,Improv_Metronome,251,5,42,127,2467877172
23,13,Improv_Metronome,252,1,38,80,2467977928
23,13,Improv_Metronome,253,5,42,127,2468377016
23,13,Improv_Metronome,254,1,38,76,2468468272
23,13,Improv_Metronome,255,5,42,127,2468876564
23,13,Improv_Metronome,256,1,48,53,2469005212
23,13,Improv_Metronome,257,1,48,72,2469149624
23,13,Improv_Metronome,258,1,48,56,2469298332
23,13,Improv_Metronome,259,1,48,36,2469339072
23,13,Improv_Metronome,260,5,42,127,2469377256
23,13,Improv_Metronome,261,5,42,127,2469877104
23,13,Improv_Metronome,262,1,48,74,2469918368
23,13,Improv_Metronome,263,5,42,127,2470376948
23,13,Improv_Metronome,264,1,48,62,2470478228
23,13,Improv_Metronome,265,5,42,127,2470876572
23,13,Improv_Metronome,266,1,48,46,2470987420
23,13,Improv_Metronome,267,1,48,67,2471100044
23,13,Improv_Metronome,268,1,48,39,2471230416
23,13,Improv_Metronome,269,1,48,38,2471296964
23,13,Improv_Metronome,270,5,42,127,2471377112
23,13,Improv_Metronome,271,5,42,127,2471876964
23,13,Improv_Metronome,272,1,48,66,2471894368
23,13,Improv_Metronome,273,5,42,127,2472376804
23,13,Improv_Metronome,274,1,48,49,2472414484
23,13,Improv_Metronome,275,5,42,127,2472877396
23,13,Improv_Metronome,276,1,48,59,2472928012
23,13,Improv_Metronome,277,1,48,55,2473093020
23,13,Improv_Metronome,278,1,48,59,2473227488
23,13,Improv_Metronome,279,1,48,50,2473368636
23,13,Improv_Metronome,280,5,42,127,2473377044
23,13,Improv_Metronome,281,5,42,127,2473876968
23,13,Improv_Metronome,282,1,48,89,2473914496
23,13,Improv_Metronome,283,5,42,127,2474376440
23,13,Improv_Metronome,284,1,48,65,2474426608
23,13,Improv_Metronome,285,5,42,127,2474877184
23,13,Improv_Metronome,286,1,38,76,2474923236
23,13,Improv_Metronome,287,1,38,68,2475106188
23,13,Improv_Metronome,288,1,38,64,2475268184
23,13,Improv_Metronome,289,1,38,40,2475304140
23,13,Improv_Metronome,290,5,42,127,2475376904
23,13,Improv_Metronome,291,1,38,60,2475443360
23,13,Improv_Metronome,292,5,42,127,2475876656
23,13,Improv_Metronome,293,1,38,89,2475905952
23,13,Improv_Metronome,294,5,42,127,2476376424
23,13,Improv_Metronome,295,1,38,92,2476423528
23,13,Improv_Metronome,296,5,42,127,2476877096
23,13,Improv_Metronome,297,1,38,69,2476898688
23,13,Improv_Metronome,298,1,38,88,2477348224
23,13,Improv_Metronome,299,5,42,127,2477376932
23,13,Improv_Metronome,300,1,38,61,2477844852
23,13,Improv_Metronome,301,5,42,127,2477876624
23,13,Improv_Metronome,302,1,38,64,2478365116
23,13,Improv_Metronome,303,5,42,127,2478377268
23,13,Improv_Metronome,304,5,42,127,2478877044
23,13,Improv_Metronome,305,1,38,75,2478882932
23,13,Improv_Metronome,306,1,38,52,2479133956
23,13,Improv_Metronome,307,1,38,46,2479282124
23,13,Improv_Metronome,308,5,42,127,2479376856
23,13,Improv_Metronome,309,1,38,47,2479383852
23,13,Improv_Metronome,310,1,38,59,2479876608
23,13,Improv_Metronome,311,5,42,127,2479879144
23,13,Improv_Metronome,312,1,38,70,2480354872
23,13,Improv_Metronome,313,5,42,127,2480377120
23,13,Improv_Metronome,314,5,42,127,2480876972
23,13,Improv_Metronome,315,1,48,63,2480881812
23,13,Improv_Metronome,316,1,48,53,2481005756
23,13,Improv_Metronome,317,1,48,60,2481188536
23,13,Improv_Metronome,318,5,42,127,2481376696
23,13,Improv_Metronome,319,1,48,85,2481414448
23,13,Improv_Metronome,320,5,42,127,2481877364
23,13,Improv_Metronome,321,1,48,72,2481915936
23,13,Improv_Metronome,322,5,42,127,2482376984
23,13,Improv_Metronome,323,1,48,74,2482415552
23,13,Improv_Metronome,324,5,42,127,2482876824
23,13,Improv_Metronome,325,1,48,78,2482918540
23,13,Improv_Metronome,326,1,48,65,2483098880
23,13,Improv_Metronome,327,1,48,69,2483260068
23,13,Improv_Metronome,328,5,42,127,2483376696
23,13,Improv_Metronome,329,1,48,68,2483421176
23,13,Improv_Metronome,330,5,42,127,2483877292
23,13,Improv_Metronome,331,1,48,78,2483886840
23,13,Improv_Metronome,332,5,42,127,2484376912
23,13,Improv_Metronome,333,1,48,86,2484412264
23,13,Improv_Metronome,334,1,48,74,2484874864
23,13,Improv_Metronome,335,5,42,127,2484876676
23,13,Improv_Metronome,336,1,48,44,2485085720
23,13,Improv_Metronome,337,1,48,59,2485256616
23,13,Improv_Metronome,338,5,42,127,2485377380
23,13,Improv_Metronome,339,1,48,59,2485411312
23,13,Improv_Metronome,340,1,48,52,2485566372
23,13,Improv_Metronome,341,5,42,127,2485876976
23,13,Improv_Metronome,342,1,48,69,2486019740
23,13,Improv_Metronome,343,5,42,127,2486376672
23,13,Improv_Metronome,344,1,48,70,2486485256
23,13,Improv_Metronome,345,5,42,127,2486876592
23,13,Improv_Metronome,346,1,38,67,2486991528
23,13,Improv_Metronome,347,1,38,55,2487165068
23,13,Improv_Metronome,348,5,42,127,2487377160
23,13,Improv_Metronome,349,1,38,62,2487382968
23,13,Improv_Metronome,350,1,38,77,2487578244
23,13,Improv_Metronome,351,5,42,127,2487876908
23,13,Improv_Metronome,352,1,38,75,2488038600
23,13,Improv_Metronome,0,9999,9999,9999,9999,2418374764
23,13,Improv_Metronome,1,9999,9999,9999,9999,2418874480
23,13,Improv_Metronome,2,9999,9999,9999,9999,2419374196
23,13,Improv_Metronome,3,9999,9999,9999,9999,2419874864
23,13,Improv_Metronome,4,9999,9999,9999,9999,2420374632
23,13,Improv_Metronome,5,9999,9999,9999,9999,2420874328
23,13,Improv_Metronome,6,9999,9999,9999,9999,2421375092
23,13,Improv_Metronome,7,9999,9999,9999,9999,2421874788
23,13,Improv_Metronome,8,9999,9999,9999,9999,2422374484
23,13,Improv_Metronome,9,9999,9999,9999,9999,2422874176
23,13,Improv_Metronome,10,9999,9999,9999,9999,2423374948
23,13,Improv_Metronome,11,9999,9999,9999,9999,2423874648
23,13,Improv_Metronome,12,9999,9999,9999,9999,2424374344
23,13,Improv_Metronome,13,9999,9999,9999,9999,2424875060
23,13,Improv_Metronome,14,9999,9999,9999,9999,2425374804
23,13,Improv_Metronome,15,9999,9999,9999,9999,2425874536
23,13,Improv_Metronome,16,9999,9999,9999,9999,2426374232
23,13,Improv_Metronome,17,9999,9999,9999,9999,2426874972
23,13,Improv_Metronome,18,9999,9999,9999,9999,2427374660
23,13,Improv_Metronome,19,9999,9999,9999,9999,2427874364
23,13,Improv_Metronome,20,9999,9999,9999,9999,2428374124
23,13,Improv_Metronome,21,9999,9999,9999,9999,2428874828
23,13,Improv_Metronome,22,9999,9999,9999,9999,2429374516
23,13,Improv_Metronome,23,9999,9999,9999,9999,2429874264
23,13,Improv_Metronome,24,9999,9999,9999,9999,2430375008
23,13,Improv_Metronome,25,9999,9999,9999,9999,2430874684
23,13,Improv_Metronome,26,9999,9999,9999,9999,2431374448
23,13,Improv_Metronome,27,9999,9999,9999,9999,2431874128
23,13,Improv_Metronome,28,9999,9999,9999,9999,2432374844
23,13,Improv_Metronome,29,9999,9999,9999,9999,2432874616
23,13,Improv_Metronome,30,9999,9999,9999,9999,2433374304
23,13,Improv_Metronome,31,9999,9999,9999,9999,2433875000
23,13,Improv_Metronome,32,9999,9999,9999,9999,2434374772
23,13,Improv_Metronome,33,9999,9999,9999,9999,2434874472
23,13,Improv_Metronome,34,9999,9999,9999,9999,2435374160
23,13,Improv_Metronome,35,9999,9999,9999,9999,2435874884
23,13,Improv_Metronome,36,9999,9999,9999,9999,2436374580
23,13,Improv_Metronome,37,9999,9999,9999,9999,2436874332
23,13,Improv_Metronome,38,9999,9999,9999,9999,2437375068
23,13,Improv_Metronome,39,9999,9999,9999,9999,2437874740
23,13,Improv_Metronome,40,9999,9999,9999,9999,2438374516
23,13,Improv_Metronome,41,9999,9999,9999,9999,2438874208
23,13,Improv_Metronome,42,9999,9999,9999,9999,2439374948
23,13,Improv_Metronome,43,9999,9999,9999,9999,2439874620
23,13,Improv_Metronome,44,9999,9999,9999,9999,2440374372
23,13,Improv_Metronome,45,9999,9999,9999,9999,2440875064
23,13,Improv_Metronome,46,9999,9999,9999,9999,2441374816
23,13,Improv_Metronome,47,9999,9999,9999,9999,2441874508
23,13,Improv_Metronome,48,9999,9999,9999,9999,2442374204
23,13,Improv_Metronome,49,9999,9999,9999,9999,2442874992
23,13,Improv_Metronome,50,9999,9999,9999,9999,2443374688
23,13,Improv_Metronome,51,9999,9999,9999,9999,2443874388
23,13,Improv_Metronome,52,9999,9999,9999,9999,2444374084
23,13,Improv_Metronome,53,9999,9999,9999,9999,2444874824
23,13,Improv_Metronome,54,9999,9999,9999,9999,2445374512
23,13,Improv_Metronome,55,9999,9999,9999,9999,2445874240
23,13,Improv_Metronome,56,9999,9999,9999,9999,2446375008
23,13,Improv_Metronome,57,9999,9999,9999,9999,2446874684
23,13,Improv_Metronome,58,9999,9999,9999,9999,2447374456
23,13,Improv_Metronome,59,9999,9999,9999,9999,2447874112
23,13,Improv_Metronome,60,9999,9999,9999,9999,2448374844
23,13,Improv_Metronome,61,9999,9999,9999,9999,2448874596
23,13,Improv_Metronome,62,9999,9999,9999,9999,2449374292
23,13,Improv_Metronome,63,9999,9999,9999,9999,2449875064
23,13,Improv_Metronome,64,9999,9999,9999,9999,2450374736
23,13,Improv_Metronome,65,9999,9999,9999,9999,2450874432
23,13,Improv_Metronome,66,9999,9999,9999,9999,2451374200
23,13,Improv_Metronome,67,9999,9999,9999,9999,2451874892
23,13,Improv_Metronome,68,9999,9999,9999,9999,2452374592
23,13,Improv_Metronome,69,9999,9999,9999,9999,2452874288
23,13,Improv_Metronome,70,9999,9999,9999,9999,2453375028
23,13,Improv_Metronome,71,9999,9999,9999,9999,2453874748
23,13,Improv_Metronome,72,9999,9999,9999,9999,2454374480
23,13,Improv_Metronome,73,9999,9999,9999,9999,2454874172
23,13,Improv_Metronome,74,9999,9999,9999,9999,2455374912
23,13,Improv_Metronome,75,9999,9999,9999,9999,2455874656
23,13,Improv_Metronome,76,9999,9999,9999,9999,2456374332
23,13,Improv_Metronome,77,9999,9999,9999,9999,2456875076
23,13,Improv_Metronome,78,9999,9999,9999,9999,2457374772
23,13,Improv_Metronome,79,9999,9999,9999,9999,2457874516
23,13,Improv_Metronome,80,9999,9999,9999,9999,2458374192
23,13,Improv_Metronome,81,9999,9999,9999,9999,2458874936
23,13,Improv_Metronome,82,9999,9999,9999,9999,2459374704
23,13,Improv_Metronome,83,9999,9999,9999,9999,2459874408
23,13,Improv_Metronome,84,9999,9999,9999,9999,2460374120
23,13,Improv_Metronome,85,9999,9999,9999,9999,2460874860
23,13,Improv_Metronome,86,9999,9999,9999,9999,2461374560
23,13,Improv_Metronome,87,9999,9999,9999,9999,2461874232
23,13,Improv_Metronome,88,9999,9999,9999,9999,2462375032
23,13,Improv_Metronome,89,9999,9999,9999,9999,2462874724
23,13,Improv_Metronome,90,9999,9999,9999,9999,2463374420
23,13,Improv_Metronome,91,9999,9999,9999,9999,2463874164
23,13,Improv_Metronome,92,9999,9999,9999,9999,2464374904
23,13,Improv_Metronome,93,9999,9999,9999,9999,2464874600
23,13,Improv_Metronome,94,9999,9999,9999,9999,2465374328
23,13,Improv_Metronome,95,9999,9999,9999,9999,2465875052
23,13,Improv_Metronome,96,9999,9999,9999,9999,2466374748
23,13,Improv_Metronome,97,9999,9999,9999,9999,2466874444
23,13,Improv_Metronome,98,9999,9999,9999,9999,2467374184
23,13,Improv_Metronome,99,9999,9999,9999,9999,2467874884
23,13,Improv_Metronome,100,9999,9999,9999,9999,2468374580
23,13,Improv_Metronome,101,9999,9999,9999,9999,2468874348
23,13,Improv_Metronome,102,9999,9999,9999,9999,2469375040
23,13,Improv_Metronome,103,9999,9999,9999,9999,2469874740
23,13,Improv_Metronome,104,9999,9999,9999,9999,2470374512
23,13,Improv_Metronome,105,9999,9999,9999,9999,2470874208
23,13,Improv_Metronome,106,9999,9999,9999,9999,2471374900
23,13,Improv_Metronome,107,9999,9999,9999,9999,2471874676
23,13,Improv_Metronome,108,9999,9999,9999,9999,2472374368
23,13,Improv_Metronome,109,9999,9999,9999,9999,2472875112
23,13,Improv_Metronome,110,9999,9999,9999,9999,2473374832
23,13,Improv_Metronome,111,9999,9999,9999,9999,2473874532
23,13,Improv_Metronome,112,9999,9999,9999,9999,2474374228
23,13,Improv_Metronome,113,9999,9999,9999,9999,2474874968
23,13,Improv_Metronome,114,9999,9999,9999,9999,2475374688
23,13,Improv_Metronome,115,9999,9999,9999,9999,2475874368
23,13,Improv_Metronome,116,9999,9999,9999,9999,2476374136
23,13,Improv_Metronome,117,9999,9999,9999,9999,2476874808
23,13,Improv_Metronome,118,9999,9999,9999,9999,2477374568
23,13,Improv_Metronome,119,9999,9999,9999,9999,2477874264
23,13,Improv_Metronome,120,9999,9999,9999,9999,2478374980
23,13,Improv_Metronome,121,9999,9999,9999,9999,2478874680
23,13,Improv_Metronome,122,9999,9999,9999,9999,2479374420
23,13,Improv_Metronome,123,9999,9999,9999,9999,2479874100
23,13,Improv_Metronome,124,9999,9999,9999,9999,2480374832
23,13,Improv_Metronome,125,9999,9999,9999,9999,2480874608
23,13,Improv_Metronome,126,9999,9999,9999,9999,2481374260
23,13,Improv_Metronome,127,9999,9999,9999,9999,2481875000
23,13,Improv_Metronome,128,9999,9999,9999,9999,2482374768
23,13,Improv_Metronome,129,9999,9999,9999,9999,2482874464
23,13,Improv_Metronome,130,9999,9999,9999,9999,2483374188
23,13,Improv_Metronome,131,9999,9999,9999,9999,2483874928
23,13,Improv_Metronome,132,9999,9999,9999,9999,2484374624
23,13,Improv_Metronome,133,9999,9999,9999,9999,2484874340
23,13,Improv_Metronome,134,9999,9999,9999,9999,2485375092
23,13,Improv_Metronome,135,9999,9999,9999,9999,2485874764
23,13,Improv_Metronome,136,9999,9999,9999,9999,2486374460
23,13,Improv_Metronome,137,9999,9999,9999,9999,2486874228
23,13,Improv_Metronome,138,9999,9999,9999,9999,2487374948
23,13,Improv_Metronome,139,9999,9999,9999,9999,2487874620
24,14,Improv_Melody,0,2,48,80,2556879348
24,14,Improv_Melody,1,2,72,80,2556881352
24,14,Improv_Melody,2,5,42,127,2556883960
24,14,Improv_Melody,3,5,42,110,2557376880
24,14,Improv_Melody,4,5,42,110,2557876600
24,14,Improv_Melody,5,5,42,110,2558377592
24,14,Improv_Melody,6,5,42,127,2558877092
24,14,Improv_Melody,7,5,42,110,2559376740
24,14,Improv_Melody,8,5,42,110,2559876536
24,14,Improv_Melody,9,5,42,110,2560377300
24,14,Improv_Melody,10,2,43,80,2560879456
24,14,Improv_Melody,11,2,67,80,2560881380
24,14,Improv_Melody,12,5,42,127,2560883848
24,14,Improv_Melody,13,1,48,42,2560976644
24,14,Improv_Melody,14,5,42,110,2561376588
24,14,Improv_Melody,15,1,48,41,2561425784
24,14,Improv_Melody,16,5,42,110,2561877336
24,14,Improv_Melody,17,1,48,39,2561896612
24,14,Improv_Melody,18,1,38,50,2562372500
24,14,Improv_Melody,19,5,42,110,2562377028
24,14,Improv_Melody,20,1,38,61,2562559420
24,14,Improv_Melody,21,1,38,50,2562707600
24,14,Improv_Melody,22,5,42,127,2562876768
24,14,Improv_Melody,23,1,48,47,2563374744
24,14,Improv_Melody,24,5,42,110,2563376408
24,14,Improv_Melody,25,5,42,110,2563877360
24,14,Improv_Melody,26,1,48,39,2563884520
24,14,Improv_Melody,27,5,42,110,2564376812
24,14,Improv_Melody,28,1,38,48,2564392740
24,14,Improv_Melody,29,1,38,47,2564577548
24,14,Improv_Melody,30,1,38,55,2564745696
24,14,Improv_Melody,31,2,45,80,2564878968
24,14,Improv_Melody,32,2,69,80,2564881344
24,14,Improv_Melody,33,1,38,45,2564883212
24,14,Improv_Melody,34,5,42,127,2564885824
24,14,Improv_Melody,35,5,42,110,2565377380
24,14,Improv_Melody,36,1,48,43,2565445748
24,14,Improv_Melody,37,5,42,110,2565877076
24,14,Improv_Melody,38,1,48,30,2565905776
24,14,Improv_Melody,39,5,42,110,2566376924
24,14,Improv_Melody,40,1,48,35,2566403160
24,14,Improv_Melody,41,5,42,127,2566876552
24,14,Improv_Melody,42,1,48,32,2566914304
24,14,Improv_Melody,43,5,42,110,2567377224
24,14,Improv_Melody,44,1,48,31,2567387672
24,14,Improv_Melody,45,5,42,110,2567877148
24,14,Improv_Melody,46,1,38,53,2567900684
24,14,Improv_Melody,47,1,38,32,2568093068
24,14,Improv_Melody,48,1,38,41,2568286944
24,14,Improv_Melody,49,5,42,110,2568376668
24,14,Improv_Melody,50,1,38,51,2568439088
24,14,Improv_Melody,51,2,41,80,2568879976
24,14,Improv_Melody,52,2,65,80,2568882128
24,14,Improv_Melody,53,5,42,127,2568884592
24,14,Improv_Melody,54,1,38,56,2568905964
24,14,Improv_Melody,55,1,38,40,2568941540
24,14,Improv_Melody,56,5,42,110,2569377316
24,14,Improv_Melody,57,1,38,56,2569446560
24,14,Improv_Melody,58,1,38,33,2569498296
24,14,Improv_Melody,59,5,42,110,2569876848
24,14,Improv_Melody,60,1,38,56,2569913024
24,14,Improv_Melody,61,1,38,23,2569979496
24,14,Improv_Melody,62,5,42,110,2570376672
24,14,Improv_Melody,63,1,38,47,2570430276
24,14,Improv_Melody,64,1,38,39,2570619444
24,14,Improv_Melody,65,1,38,40,2570767224
24,14,Improv_Melody,66,5,42,127,2570877228
24,14,Improv_Melody,67,1,38,46,2570899120
24,14,Improv_Melody,68,5,42,110,2571377076
24,14,Improv_Melody,69,1,38,63,2571399864
24,14,Improv_Melody,70,5,42,110,2571876704
24,14,Improv_Melody,71,1,38,54,2571894184
24,14,Improv_Melody,72,5,42,110,2572376548
24,14,Improv_Melody,73,1,48,39,2572403980
24,14,Improv_Melody,74,1,48,46,2572588880
24,14,Improv_Melody,75,1,48,41,2572746984
24,14,Improv_Melody,76,2,48,80,2572879736
24,14,Improv_Melody,77,2,72,80,2572881808
24,14,Improv_Melody,78,5,42,127,2572884424
24,14,Improv_Melody,79,1,48,46,2572890980
24,14,Improv_Melody,80,5,42,110,2573376872
24,14,Improv_Melody,81,1,48,36,2573456056
24,14,Improv_Melody,82,5,42,110,2573876644
24,14,Improv_Melody,83,1,48,34,2573969292
24,14,Improv_Melody,84,5,42,110,2574377392
24,14,Improv_Melody,85,1,48,39,2574380064
24,14,Improv_Melody,86,1,48,28,2574733860
24,14,Improv_Melody,87,1,48,30,2574850820
24,14,Improv_Melody,88,5,42,127,2574876968
24,14,Improv_Melody,89,1,48,39,2575310056
24,14,Improv_Melody,90,5,42,110,2575376888
24,14,Improv_Melody,91,1,48,40,2575812000
24,14,Improv_Melody,92,5,42,110,2575876588
24,14,Improv_Melody,93,1,48,37,2576278412
24,14,Improv_Melody,94,5,42,110,2576377168
24,14,Improv_Melody,95,1,48,33,2576451748
24,14,Improv_Melody,96,1,48,29,2576579104
24,14,Improv_Melody,97,1,48,40,2576721596
24,14,Improv_Melody,98,2,43,80,2576879636
24,14,Improv_Melody,99,2,67,80,2576881784
24,14,Improv_Melody,100,5,42,127,2576884244
24,14,Improv_Melody,101,5,42,110,2577376712
24,14,Improv_Melody,102,1,48,40,2577861128
24,14,Improv_Melody,103,5,42,110,2577877400
24,14,Improv_Melody,104,1,48,47,2578335172
24,14,Improv_Melody,105,5,42,110,2578377024
24,14,Improv_Melody,106,1,48,46,2578508504
24,14,Improv_Melody,107,1,48,48,2578627188
24,14,Improv_Melody,108,1,48,38,2578726744
24,14,Improv_Melody,109,5,42,127,2578876892
24,14,Improv_Melody,110,1,48,46,2579313064
24,14,Improv_Melody,111,5,42,110,2579376456
24,14,Improv_Melody,112,1,48,55,2579828996
24,14,Improv_Melody,113,5,42,110,2579877132
24,14,Improv_Melody,114,1,38,54,2580360632
24,14,Improv_Melody,115,5,42,110,2580377052
24,14,Improv_Melody,116,1,38,48,2580501476
24,14,Improv_Melody,117,1,38,27,2580553020
24,14,Improv_Melody,118,1,38,35,2580664668
24,14,Improv_Melody,119,1,38,55,2580875892
24,14,Improv_Melody,120,2,45,80,2580881284
24,14,Improv_Melody,121,2,69,80,2580883212
24,14,Improv_Melody,122,5,42,127,2580886048
24,14,Improv_Melody,123,5,42,110,2581377380
24,14,Improv_Melody,124,1,38,53,2581384392
24,14,Improv_Melody,125,1,38,32,2581438744
24,14,Improv_Melody,126,5,42,110,2581876984
24,14,Improv_Melody,127,1,38,49,2581886904
24,14,Improv_Melody,128,1,38,58,2582329592
24,14,Improv_Melody,129,5,42,110,2582376976
24,14,Improv_Melody,130,1,38,50,2582506788
24,14,Improv_Melody,131,1,38,46,2582614720
24,14,Improv_Melody,132,1,38,38,2582732504
24,14,Improv_Melody,133,5,42,127,2582876468
24,14,Improv_Melody,134,1,38,65,2583256368
24,14,Improv_Melody,135,5,42,110,2583377136
24,14,Improv_Melody,136,1,38,49,2583773716
24,14,Improv_Melody,137,5,42,110,2583877060
24,14,Improv_Melody,138,1,48,43,2584301988
24,14,Improv_Melody,139,5,42,110,2584376924
24,14,Improv_Melody,140,1,48,46,2584509656
24,14,Improv_Melody,141,1,48,45,2584663144
24,14,Improv_Melody,142,1,48,52,2584844656
24,14,Improv_Melody,143,2,41,80,2584880060
24,14,Improv_Melody,144,2,65,80,2584881984
24,14,Improv_Melody,145,5,42,127,2584884600
24,14,Improv_Melody,146,5,42,110,2585377100
24,14,Improv_Melody,147,1,48,50,2585396852
24,14,Improv_Melody,148,5,42,110,2585877172
24,14,Improv_Melody,149,1,48,49,2585908964
24,14,Improv_Melody,150,5,42,110,2586376504
24,14,Improv_Melody,151,1,48,34,2586409564
24,14,Improv_Melody,152,1,48,44,2586584796
24,14,Improv_Melody,153,1,48,40,2586738580
24,14,Improv_Melody,154,5,42,127,2586877356
24,14,Improv_Melody,155,1,48,45,2586909200
24,14,Improv_Melody,156,1,48,52,2587361000
24,14,Improv_Melody,157,5,42,110,2587376900
24,14,Improv_Melody,158,5,42,110,2587876908
24,14,Improv_Melody,159,1,48,49,2587883692
24,14,Improv_Melody,160,5,42,110,2588376384
24,14,Improv_Melody,161,1,48,53,2588380252
24,14,Improv_Melody,162,1,48,54,2588577944
24,14,Improv_Melody,163,1,48,47,2588744596
24,14,Improv_Melody,164,2,48,80,2588879896
24,14,Improv_Melody,165,2,72,80,2588881972
24,14,Improv_Melody,166,5,42,127,2588884432
24,14,Improv_Melody,167,1,48,54,2588926296
24,14,Improv_Melody,168,5,42,110,2589376876
24,14,Improv_Melody,169,1,48,43,2589425396
24,14,Improv_Melody,170,5,42,110,2589876872
24,14,Improv_Melody,171,1,48,51,2589911484
24,14,Improv_Melody,172,1,38,61,2590375732
24,14,Improv_Melody,173,5,42,110,2590378736
24,14,Improv_Melody,174,1,38,53,2590580904
24,14,Improv_Melody,175,1,38,23,2590770888
24,14,Improv_Melody,176,5,42,127,2590876980
24,14,Improv_Melody,177,1,38,49,2590964772
24,14,Improv_Melody,178,5,42,110,2591377124
24,14,Improv_Melody,179,1,38,52,2591476136
24,14,Improv_Melody,180,5,42,110,2591876824
24,14,Improv_Melody,181,1,38,45,2591891912
24,14,Improv_Melody,182,1,38,51,2592357708
24,14,Improv_Melody,183,5,42,110,2592377268
24,14,Improv_Melody,184,1,38,50,2592563872
24,14,Improv_Melody,185,1,38,47,2592774188
24,14,Improv_Melody,186,2,43,80,2592879204
24,14,Improv_Melody,187,2,67,80,2592881508
24,14,Improv_Melody,188,5,42,127,2592883900
24,14,Improv_Melody,189,1,38,36,2592905344
24,14,Improv_Melody,190,5,42,110,2593376792
24,14,Improv_Melody,191,1,48,67,2593457776
24,14,Improv_Melody,192,5,42,110,2593877316
24,14,Improv_Melody,193,1,48,50,2593912816
24,14,Improv_Melody,194,5,42,110,2594376940
24,14,Improv_Melody,195,1,48,54,2594395916
24,14,Improv_Melody,196,1,48,35,2594548784
24,14,Improv_Melody,197,1,48,33,2594681844
24,14,Improv_Melody,198,5,42,127,2594876896
24,14,Improv_Melody,199,1,48,48,2595309900
24,14,Improv_Melody,200,5,42,110,2595376756
24,14,Improv_Melody,201,1,48,62,2595868768
24,14,Improv_Melody,202,5,42,110,2595877108
24,14,Improv_Melody,203,1,38,62,2596363876
24,14,Improv_Melody,204,5,42,110,2596376932
24,14,Improv_Melody,205,1,38,50,2596556060
24,14,Improv_Melody,206,1,38,49,2596699600
24,14,Improv_Melody,207,1,38,56,2596869816
24,14,Improv_Melody,208,2,45,80,2596879168
24,14,Improv_Melody,209,2,69,80,2596881472
24,14,Improv_Melody,210,5,42,127,2596884232
24,14,Improv_Melody,211,1,38,52,2597375312
24,14,Improv_Melody,212,5,42,110,2597377948
24,14,Improv_Melody,213,1,38,54,2597850680
24,14,Improv_Melody,214,5,42,110,2597876976
24,14,Improv_Melody,215,1,48,43,2598326524
24,14,Improv_Melody,216,5,42,110,2598376752
24,14,Improv_Melody,217,1,48,44,2598549068
24,14,Improv_Melody,218,1,48,48,2598700984
24,14,Improv_Melody,219,5,42,127,2598876712
24,14,Improv_Melody,220,1,48,54,2598883424
24,14,Improv_Melody,221,1,48,57,2599366720
24,14,Improv_Melody,222,5,42,110,2599377304
24,14,Improv_Melody,223,1,48,69,2599865668
24,14,Improv_Melody,224,5,42,110,2599876852
24,14,Improv_Melody,225,1,38,53,2600352352
24,14,Improv_Melody,226,5,42,110,2600376552
24,14,Improv_Melody,227,1,38,27,2600420268
24,14,Improv_Melody,228,1,38,61,2600533296
24,14,Improv_Melody,229,1,38,48,2600692744
24,14,Improv_Melody,230,2,41,80,2600879888
24,14,Improv_Melody,231,2,65,80,2600882196
24,14,Improv_Melody,232,5,42,127,2600884732
24,14,Improv_Melody,233,1,38,43,2600909540
24,14,Improv_Melody,234,5,42,110,2601377104
24,14,Improv_Melody,235,1,48,61,2601430336
24,14,Improv_Melody,236,5,42,110,2601876728
24,14,Improv_Melody,237,1,48,66,2601919788
24,14,Improv_Melody,238,5,42,110,2602376576
24,14,Improv_Melody,239,1,48,58,2602409464
24,14,Improv_Melody,240,1,48,56,2602548888
24,14,Improv_Melody,241,1,48,48,2602649096
24,14,Improv_Melody,242,5,42,127,2602877204
24,14,Improv_Melody,243,1,48,50,2603326992
24,14,Improv_Melody,244,5,42,110,2603376920
24,14,Improv_Melody,245,1,48,71,2603857656
24,14,Improv_Melody,246,5,42,110,2603876844
24,14,Improv_Melody,247,1,38,70,2604353620
24,14,Improv_Melody,248,5,42,110,2604376544
24,14,Improv_Melody,249,1,38,53,2604522812
24,14,Improv_Melody,250,1,38,50,2604676968
24,14,Improv_Melody,251,1,38,57,2604873616
24,14,Improv_Melody,252,2,48,80,2604879824
24,14,Improv_Melody,253,2,72,80,2604881824
24,14,Improv_Melody,254,5,42,127,2604884516
24,14,Improv_Melody,255,5,42,110,2605376892
24,14,Improv_Melody,256,1,38,52,2605424364
24,14,Improv_Melody,257,1,38,57,2605862704
24,14,Improv_Melody,258,5,42,110,2605876660
24,14,Improv_Melody,259,5,42,110,2606377412
24,14,Improv_Melody,260,1,38,55,2606378380
24,14,Improv_Melody,261,1,38,45,2606559428
24,14,Improv_Melody,262,1,38,52,2606710592
24,14,Improv_Melody,263,5,42,127,2606876972
24,14,Improv_Melody,264,1,38,57,2606927988
24,14,Improv_Melody,265,5,42,110,2607376744
24,14,Improv_Melody,266,1,38,56,2607428956
24,14,Improv_Melody,267,1,38,60,2607871832
24,14,Improv_Melody,268,5,42,110,2607876436
24,14,Improv_Melody,269,1,38,19,2607959524
24,14,Improv_Melody,270,5,42,110,2608377240
24,14,Improv_Melody,271,1,48,52,2608378652
24,14,Improv_Melody,272,1,48,47,2608539908
24,14,Improv_Melody,273,1,48,58,2608738048
24,14,Improv_Melody,274,2,43,80,2608879552
24,14,Improv_Melody,275,2,67,80,2608881704
24,14,Improv_Melody,276,5,42,127,2608884316
24,14,Improv_Melody,277,1,48,46,2608916756
24,14,Improv_Melody,278,5,42,110,2609376536
24,14,Improv_Melody,279,1,48,63,2609487388
24,14,Improv_Melody,280,5,42,110,2609877580
24,14,Improv_Melody,281,1,48,59,2609961876
24,14,Improv_Melody,282,5,42,110,2610377280
24,14,Improv_Melody,283,1,48,72,2610474220
24,14,Improv_Melody,284,1,48,74,2610631800
24,14,Improv_Melody,285,1,48,59,2610759256
24,14,Improv_Melody,286,5,42,127,2610876716
24,14,Improv_Melody,287,1,48,15,2610927180
24,14,Improv_Melody,288,5,42,110,2611376416
24,14,Improv_Melody,289,1,48,67,2611413712
24,14,Improv_Melody,290,5,42,110,2611877456
24,14,Improv_Melody,291,1,48,54,2611885588
24,14,Improv_Melody,292,5,42,110,2612377008
24,14,Improv_Melody,293,1,38,75,2612384988
24,14,Improv_Melody,294,1,38,70,2612559792
24,14,Improv_Melody,295,1,38,50,2612717296
24,14,Improv_Melody,296,2,45,80,2612879316
24,14,Improv_Melody,297,2,69,80,2612881392
24,14,Improv_Melody,298,5,42,127,2612883856
24,14,Improv_Melody,299,1,38,48,2612889220
24,14,Improv_Melody,300,5,42,110,2613377500
24,14,Improv_Melody,301,1,38,76,2613403580
24,14,Improv_Melody,302,5,42,110,2613877424
24,14,Improv_Melody,303,1,38,81,2613902612
24,14,Improv_Melody,304,5,42,110,2614376900
24,14,Improv_Melody,305,1,38,80,2614382640
24,14,Improv_Melody,306,1,38,59,2614559888
24,14,Improv_Melody,307,1,38,57,2614720104
24,14,Improv_Melody,308,5,42,127,2614876484
24,14,Improv_Melody,309,1,38,83,2614963228
24,14,Improv_Melody,310,1,38,43,2615003744
24,14,Improv_Melody,311,5,42,110,2615377504
24,14,Improv_Melody,312,1,38,76,2615419668
24,14,Improv_Melody,313,1,38,73,2615860408
24,14,Improv_Melody,314,5,42,110,2615876904
24,14,Improv_Melody,315,1,38,43,2615920844
24,14,Improv_Melody,316,5,42,110,2616376588
24,14,Improv_Melody,317,1,48,48,2616403196
24,14,Improv_Melody,318,1,48,46,2616571016
24,14,Improv_Melody,319,1,48,36,2616772224
24,14,Improv_Melody,320,2,41,80,2616879716
24,14,Improv_Melody,321,2,65,80,2616882092
24,14,Improv_Melody,322,5,42,127,2616884484
24,14,Improv_Melody,323,1,48,44,2616954100
24,14,Improv_Melody,324,5,42,110,2617377500
24,14,Improv_Melody,325,1,48,52,2617478856
24,14,Improv_Melody,326,5,42,110,2617876828
24,14,Improv_Melody,327,1,48,52,2617923204
24,14,Improv_Melody,328,5,42,110,2618376456
24,14,Improv_Melody,329,1,48,58,2618458808
24,14,Improv_Melody,330,1,48,50,2618603600
24,14,Improv_Melody,331,1,48,38,2618733148
24,14,Improv_Melody,332,5,42,127,2618877460
24,14,Improv_Melody,333,1,48,42,2618940216
24,14,Improv_Melody,334,1,48,64,2619351828
24,14,Improv_Melody,335,5,42,110,2619377300
24,14,Improv_Melody,336,5,42,110,2619876712
24,14,Improv_Melody,337,1,48,62,2619896136
24,14,Improv_Melody,338,5,42,110,2620376408
24,14,Improv_Melody,339,1,38,72,2620378124
24,14,Improv_Melody,340,1,38,67,2620566828
24,14,Improv_Melody,341,1,38,27,2620780828
24,14,Improv_Melody,342,2,48,80,2620879768
24,14,Improv_Melody,343,2,72,80,2620881996
24,14,Improv_Melody,344,5,42,127,2620884456
24,14,Improv_Melody,345,1,38,54,2620984540
24,14,Improv_Melody,346,5,42,110,2621376828
24,14,Improv_Melody,347,1,38,54,2621479528
24,14,Improv_Melody,348,5,42,110,2621876676
24,14,Improv_Melody,349,1,38,56,2621922280
24,14,Improv_Melody,350,5,42,110,2622377276
24,14,Improv_Melody,351,1,38,53,2622386976
24,14,Improv_Melody,352,1,38,49,2622556176
24,14,Improv_Melody,353,5,42,127,2622877252
24,14,Improv_Melody,354,1,38,59,2623020196
24,14,Improv_Melody,355,1,38,36,2623060044
24,14,Improv_Melody,356,5,42,110,2623376708
24,14,Improv_Melody,357,1,38,62,2623477512
24,14,Improv_Melody,358,1,38,33,2623535556
24,14,Improv_Melody,359,5,42,110,2623876608
24,14,Improv_Melody,360,1,38,65,2623932232
24,14,Improv_Melody,361,1,38,39,2623972156
24,14,Improv_Melody,362,5,42,110,2624377336
24,14,Improv_Melody,363,1,38,54,2624404840
24,14,Improv_Melody,364,1,38,44,2624564240
24,14,Improv_Melody,365,1,38,59,2624760556
24,14,Improv_Melody,366,2,43,80,2624879496
24,14,Improv_Melody,367,2,67,80,2624881424
24,14,Improv_Melody,368,5,42,127,2624884336
24,14,Improv_Melody,369,1,38,68,2624952532
24,14,Improv_Melody,370,5,42,110,2625376484
24,14,Improv_Melody,371,1,48,80,2625451412
24,14,Improv_Melody,372,5,42,110,2625877380
24,14,Improv_Melody,373,1,48,64,2625907804
24,14,Improv_Melody,374,1,38,74,2626373368
24,14,Improv_Melody,375,5,42,110,2626377076
24,14,Improv_Melody,376,1,38,59,2626530292
24,14,Improv_Melody,377,1,38,61,2626715348
24,14,Improv_Melody,378,5,42,127,2626876884
24,14,Improv_Melody,379,1,38,72,2626902816
24,14,Improv_Melody,380,5,42,110,2627376512
24,14,Improv_Melody,381,1,48,88,2627388832
24,14,Improv_Melody,382,1,48,79,2627867536
24,14,Improv_Melody,383,5,42,110,2627877176
24,14,Improv_Melody,384,1,38,69,2628306128
24,14,Improv_Melody,385,5,42,110,2628377076
24,14,Improv_Melody,386,1,38,70,2628515808
24,14,Improv_Melody,387,1,38,65,2628669000
24,14,Improv_Melody,388,1,38,70,2628858368
24,14,Improv_Melody,389,2,45,80,2628879312
24,14,Improv_Melody,390,2,69,80,2628881312
24,14,Improv_Melody,391,5,42,127,2628884148
24,14,Improv_Melody,392,5,42,110,2629377352
24,14,Improv_Melody,393,1,48,84,2629400364
24,14,Improv_Melody,394,1,48,81,2629868328
24,14,Improv_Melody,395,5,42,110,2629877192
24,14,Improv_Melody,396,1,38,61,2630362124
24,14,Improv_Melody,397,5,42,110,2630376820
24,14,Improv_Melody,398,1,38,59,2630544580
24,14,Improv_Melody,399,1,38,48,2630713320
24,14,Improv_Melody,400,5,42,127,2630876484
24,14,Improv_Melody,401,1,38,52,2630903536
24,14,Improv_Melody,402,1,38,59,2631352428
24,14,Improv_Melody,403,5,42,110,2631377148
24,14,Improv_Melody,404,1,38,70,2631853248
24,14,Improv_Melody,405,5,42,110,2631877072
24,14,Improv_Melody,406,1,48,76,2632351752
24,14,Improv_Melody,407,5,42,110,2632376696
24,14,Improv_Melody,408,1,48,52,2632518128
24,14,Improv_Melody,409,1,48,55,2632683856
24,14,Improv_Melody,410,1,48,51,2632850280
24,14,Improv_Melody,411,2,41,80,2632879900
24,14,Improv_Melody,412,2,65,80,2632882056
24,14,Improv_Melody,413,5,42,127,2632884668
24,14,Improv_Melody,414,5,42,110,2633377048
24,14,Improv_Melody,415,1,48,62,2633395500
24,14,Improv_Melody,416,1,48,71,2633866304
24,14,Improv_Melody,417,5,42,110,2633876964
24,14,Improv_Melody,418,1,48,62,2634362940
24,14,Improv_Melody,419,5,42,110,2634376516
24,14,Improv_Melody,420,1,48,61,2634507972
24,14,Improv_Melody,421,1,48,60,2634634904
24,14,Improv_Melody,422,1,48,52,2634802904
24,14,Improv_Melody,423,5,42,127,2634877296
24,14,Improv_Melody,424,1,48,83,2635307764
24,14,Improv_Melody,425,5,42,110,2635376920
24,14,Improv_Melody,426,1,48,74,2635811800
24,14,Improv_Melody,427,5,42,110,2635876692
24,14,Improv_Melody,428,1,48,78,2636323620
24,14,Improv_Melody,429,5,42,110,2636376392
24,14,Improv_Melody,430,1,48,62,2636476284
24,14,Improv_Melody,431,1,48,57,2636640916
24,14,Improv_Melody,432,1,48,64,2636799688
24,14,Improv_Melody,433,2,48,80,2636879824
24,14,Improv_Melody,434,2,72,80,2636881896
24,14,Improv_Melody,435,5,42,127,2636884440
24,14,Improv_Melody,436,5,42,110,2637376964
24,14,Improv_Melody,437,1,48,103,2637395640
24,14,Improv_Melody,0,9999,9999,9999,9999,2556874808
24,14,Improv_Melody,1,9999,9999,9999,9999,2557374512
24,14,Improv_Melody,2,9999,9999,9999,9999,2557874232
24,14,Improv_Melody,3,9999,9999,9999,9999,2558375004
24,14,Improv_Melody,4,9999,9999,9999,9999,2558874724
24,14,Improv_Melody,5,9999,9999,9999,9999,2559374444
24,14,Improv_Melody,6,9999,9999,9999,9999,2559874168
24,14,Improv_Melody,7,9999,9999,9999,9999,2560374860
24,14,Improv_Melody,8,9999,9999,9999,9999,2560874584
24,14,Improv_Melody,9,9999,9999,9999,9999,2561374296
24,14,Improv_Melody,10,9999,9999,9999,9999,2561875044
24,14,Improv_Melody,11,9999,9999,9999,9999,2562374736
24,14,Improv_Melody,12,9999,9999,9999,9999,2562874472
24,14,Improv_Melody,13,9999,9999,9999,9999,2563374140
24,14,Improv_Melody,14,9999,9999,9999,9999,2563874916
24,14,Improv_Melody,15,9999,9999,9999,9999,2564374592
24,14,Improv_Melody,16,9999,9999,9999,9999,2564874324
24,14,Improv_Melody,17,9999,9999,9999,9999,2565375084
24,14,Improv_Melody,18,9999,9999,9999,9999,2565874784
24,14,Improv_Melody,19,9999,9999,9999,9999,2566374484
24,14,Improv_Melody,20,9999,9999,9999,9999,2566874184
24,14,Improv_Melody,21,9999,9999,9999,9999,2567374928
24,14,Improv_Melody,22,9999,9999,9999,9999,2567874628
24,14,Improv_Melody,23,9999,9999,9999,9999,2568374376
24,14,Improv_Melody,24,9999,9999,9999,9999,2568875104
24,14,Improv_Melody,25,9999,9999,9999,9999,2569374800
24,14,Improv_Melody,26,9999,9999,9999,9999,2569874552
24,14,Improv_Melody,27,9999,9999,9999,9999,2570374232
24,14,Improv_Melody,28,9999,9999,9999,9999,2570874936
24,14,Improv_Melody,29,9999,9999,9999,9999,2571374708
24,14,Improv_Melody,30,9999,9999,9999,9999,2571874408
24,14,Improv_Melody,31,9999,9999,9999,9999,2572374108
24,14,Improv_Melody,32,9999,9999,9999,9999,2572874864
24,14,Improv_Melody,33,9999,9999,9999,9999,2573374576
24,14,Improv_Melody,34,9999,9999,9999,9999,2573874276
24,14,Improv_Melody,35,9999,9999,9999,9999,2574375024
24,14,Improv_Melody,36,9999,9999,9999,9999,2574874672
24,14,Improv_Melody,37,9999,9999,9999,9999,2575374448
24,14,Improv_Melody,38,9999,9999,9999,9999,2575874148
24,14,Improv_Melody,39,9999,9999,9999,9999,2576374892
24,14,Improv_Melody,40,9999,9999,9999,9999,2576874608
24,14,Improv_Melody,41,9999,9999,9999,9999,2577374272
24,14,Improv_Melody,42,9999,9999,9999,9999,2577875032
24,14,Improv_Melody,43,9999,9999,9999,9999,2578374732
24,14,Improv_Melody,44,9999,9999,9999,9999,2578874448
24,14,Improv_Melody,45,9999,9999,9999,9999,2579374164
24,14,Improv_Melody,46,9999,9999,9999,9999,2579874912
24,14,Improv_Melody,47,9999,9999,9999,9999,2580374612
24,14,Improv_Melody,48,9999,9999,9999,9999,2580874328
24,14,Improv_Melody,49,9999,9999,9999,9999,2581375088
24,14,Improv_Melody,50,9999,9999,9999,9999,2581874764
24,14,Improv_Melody,51,9999,9999,9999,9999,2582374460
24,14,Improv_Melody,52,9999,9999,9999,9999,2582874172
24,14,Improv_Melody,53,9999,9999,9999,9999,2583374920
24,14,Improv_Melody,54,9999,9999,9999,9999,2583874620
24,14,Improv_Melody,55,9999,9999,9999,9999,2584374336
24,14,Improv_Melody,56,9999,9999,9999,9999,2584875112
24,14,Improv_Melody,57,9999,9999,9999,9999,2585374808
24,14,Improv_Melody,58,9999,9999,9999,9999,2585874508
24,14,Improv_Melody,59,9999,9999,9999,9999,2586374208
24,14,Improv_Melody,60,9999,9999,9999,9999,2586874992
24,14,Improv_Melody,61,9999,9999,9999,9999,2587374684
24,14,Improv_Melody,62,9999,9999,9999,9999,2587874392
24,14,Improv_Melody,63,9999,9999,9999,9999,2588374088
24,14,Improv_Melody,64,9999,9999,9999,9999,2588874872
24,14,Improv_Melody,65,9999,9999,9999,9999,2589374584
24,14,Improv_Melody,66,9999,9999,9999,9999,2589874284
24,14,Improv_Melody,67,9999,9999,9999,9999,2590375028
24,14,Improv_Melody,68,9999,9999,9999,9999,2590874688
24,14,Improv_Melody,69,9999,9999,9999,9999,2591374384
24,14,Improv_Melody,70,9999,9999,9999,9999,2591874160
24,14,Improv_Melody,71,9999,9999,9999,9999,2592374900
24,14,Improv_Melody,72,9999,9999,9999,9999,2592874560
24,14,Improv_Melody,73,9999,9999,9999,9999,2593374276
24,14,Improv_Melody,74,9999,9999,9999,9999,2593875020
24,14,Improv_Melody,75,9999,9999,9999,9999,2594374724
24,14,Improv_Melody,76,9999,9999,9999,9999,2594874456
24,14,Improv_Melody,77,9999,9999,9999,9999,2595374168
24,14,Improv_Melody,78,9999,9999,9999,9999,2595874888
24,14,Improv_Melody,79,9999,9999,9999,9999,2596374636
24,14,Improv_Melody,80,9999,9999,9999,9999,2596874300
24,14,Improv_Melody,81,9999,9999,9999,9999,2597375096
24,14,Improv_Melody,82,9999,9999,9999,9999,2597874760
24,14,Improv_Melody,83,9999,9999,9999,9999,2598374460
24,14,Improv_Melody,84,9999,9999,9999,9999,2598874196
24,14,Improv_Melody,85,9999,9999,9999,9999,2599374936
24,14,Improv_Melody,86,9999,9999,9999,9999,2599874636
24,14,Improv_Melody,87,9999,9999,9999,9999,2600374336
24,14,Improv_Melody,88,9999,9999,9999,9999,2600875096
24,14,Improv_Melody,89,9999,9999,9999,9999,2601374812
24,14,Improv_Melody,90,9999,9999,9999,9999,2601874508
24,14,Improv_Melody,91,9999,9999,9999,9999,2602374208
24,14,Improv_Melody,92,9999,9999,9999,9999,2602874988
24,14,Improv_Melody,93,9999,9999,9999,9999,2603374700
24,14,Improv_Melody,94,9999,9999,9999,9999,2603874400
24,14,Improv_Melody,95,9999,9999,9999,9999,2604374100
24,14,Improv_Melody,96,9999,9999,9999,9999,2604874804
24,14,Improv_Melody,97,9999,9999,9999,9999,2605374528
24,14,Improv_Melody,98,9999,9999,9999,9999,2605874292
24,14,Improv_Melody,99,9999,9999,9999,9999,2606374972
24,14,Improv_Melody,100,9999,9999,9999,9999,2606874676
24,14,Improv_Melody,101,9999,9999,9999,9999,2607374452
24,14,Improv_Melody,102,9999,9999,9999,9999,2607874144
24,14,Improv_Melody,103,9999,9999,9999,9999,2608374876
24,14,Improv_Melody,104,9999,9999,9999,9999,2608874604
24,14,Improv_Melody,105,9999,9999,9999,9999,2609374316
24,14,Improv_Melody,106,9999,9999,9999,9999,2609875064
24,14,Improv_Melody,107,9999,9999,9999,9999,2610374764
24,14,Improv_Melody,108,9999,9999,9999,9999,2610874420
24,14,Improv_Melody,109,9999,9999,9999,9999,2611374196
24,14,Improv_Melody,110,9999,9999,9999,9999,2611874868
24,14,Improv_Melody,111,9999,9999,9999,9999,2612374640
24,14,Improv_Melody,112,9999,9999,9999,9999,2612874296
24,14,Improv_Melody,113,9999,9999,9999,9999,2613375060
24,14,Improv_Melody,114,9999,9999,9999,9999,2613874760
24,14,Improv_Melody,115,9999,9999,9999,9999,2614374460
24,14,Improv_Melody,116,9999,9999,9999,9999,2614874192
24,14,Improv_Melody,117,9999,9999,9999,9999,2615374916
24,14,Improv_Melody,118,9999,9999,9999,9999,2615874608
24,14,Improv_Melody,119,9999,9999,9999,9999,2616374368
24,14,Improv_Melody,120,9999,9999,9999,9999,2616875072
24,14,Improv_Melody,121,9999,9999,9999,9999,2617374836
24,14,Improv_Melody,122,9999,9999,9999,9999,2617874536
24,14,Improv_Melody,123,9999,9999,9999,9999,2618374236
24,14,Improv_Melody,124,9999,9999,9999,9999,2618874944
24,14,Improv_Melody,125,9999,9999,9999,9999,2619374712
24,14,Improv_Melody,126,9999,9999,9999,9999,2619874416
24,14,Improv_Melody,127,9999,9999,9999,9999,2620374116
24,14,Improv_Melody,128,9999,9999,9999,9999,2620874820
24,14,Improv_Melody,129,9999,9999,9999,9999,2621374536
24,14,Improv_Melody,130,9999,9999,9999,9999,2621874236
24,14,Improv_Melody,131,9999,9999,9999,9999,2622374984
24,14,Improv_Melody,132,9999,9999,9999,9999,2622874736
24,14,Improv_Melody,133,9999,9999,9999,9999,2623374416
24,14,Improv_Melody,134,9999,9999,9999,9999,2623874168
24,14,Improv_Melody,135,9999,9999,9999,9999,2624374892
24,14,Improv_Melody,136,9999,9999,9999,9999,2624874552
24,14,Improv_Melody,137,9999,9999,9999,9999,2625374264
24,14,Improv_Melody,138,9999,9999,9999,9999,2625875012
24,14,Improv_Melody,139,9999,9999,9999,9999,2626374708
24,14,Improv_Melody,140,9999,9999,9999,9999,2626874444
24,14,Improv_Melody,141,9999,9999,9999,9999,2627374144
24,14,Improv_Melody,142,9999,9999,9999,9999,2627874936
24,14,Improv_Melody,143,9999,9999,9999,9999,2628374632
24,14,Improv_Melody,144,9999,9999,9999,9999,2628874292
24,14,Improv_Melody,145,9999,9999,9999,9999,2629375060
24,14,Improv_Melody,146,9999,9999,9999,9999,2629874752
24,14,Improv_Melody,147,9999,9999,9999,9999,2630374452
24,14,Improv_Melody,148,9999,9999,9999,9999,2630874192
24,14,Improv_Melody,149,9999,9999,9999,9999,2631374932
24,14,Improv_Melody,150,9999,9999,9999,9999,2631874632
24,14,Improv_Melody,151,9999,9999,9999,9999,2632374332
24,14,Improv_Melody,152,9999,9999,9999,9999,2632875108
24,14,Improv_Melody,153,9999,9999,9999,9999,2633374828
24,14,Improv_Melody,154,9999,9999,9999,9999,2633874524
24,14,Improv_Melody,155,9999,9999,9999,9999,2634374224
24,14,Improv_Melody,156,9999,9999,9999,9999,2634874928
24,14,Improv_Melody,157,9999,9999,9999,9999,2635374700
24,14,Improv_Melody,158,9999,9999,9999,9999,2635874400
24,14,Improv_Melody,159,9999,9999,9999,9999,2636374100
24,14,Improv_Melody,160,9999,9999,9999,9999,2636874804
24,14,Improv_Melody,161,9999,9999,9999,9999,2637374524
