pid,taskRunCount,taskID,taskName,i,channel,pitch,velocity,microseconds
1,1,Ticks_Pract_5,0,5,42,127,101032352
681,1,Ticks_Pract_5,1,5,42,127,101532144
681,1,Ticks_Pract_5,2,1,48,21,102022992
681,1,Ticks_Pract_5,3,5,42,127,102031704
681,1,Ticks_Pract_5,4,1,48,25,102466112
681,1,Ticks_Pract_5,5,5,42,127,102531324
681,1,Ticks_Pract_5,6,1,48,21,102987724
681,1,Ticks_Pract_5,7,5,42,127,103032288
681,1,Ticks_Pract_5,8,1,48,28,103481512
681,1,Ticks_Pract_5,9,5,42,127,103531832
681,1,Ticks_Pract_5,10,1,48,27,103999608
681,1,Ticks_Pract_5,11,5,42,127,104031576
681,1,Ticks_Pract_5,12,1,48,29,104490696
681,1,Ticks_Pract_5,13,5,42,127,104532316
681,1,Ticks_Pract_5,14,1,48,27,104984480
681,1,Ticks_Pract_5,15,5,42,127,105032160
681,1,Ticks_Pract_5,16,1,48,26,105499508
681,1,Ticks_Pract_5,17,5,42,127,105531632
681,1,Ticks_Pract_5,18,1,48,26,105969436
681,1,Ticks_Pract_5,19,5,42,127,106031476
681,1,Ticks_Pract_5,20,1,48,29,106464116
681,1,Ticks_Pract_5,21,5,42,127,106532144
681,1,Ticks_Pract_5,22,1,48,30,106962020
681,1,Ticks_Pract_5,23,5,42,127,107031988
681,1,Ticks_Pract_5,24,1,48,29,107485872
681,1,Ticks_Pract_5,25,5,42,127,107531536
681,1,Ticks_Pract_5,26,1,48,31,108002168
681,1,Ticks_Pract_5,27,5,42,127,108032276
681,1,Ticks_Pract_5,28,1,48,30,108501344
681,1,Ticks_Pract_5,29,5,42,127,108532264
681,1,Ticks_Pract_5,30,1,48,29,108990864
681,1,Ticks_Pract_5,31,5,42,127,109031736
681,1,Ticks_Pract_5,32,1,48,32,109503344
681,1,Ticks_Pract_5,33,5,42,127,109531504
681,1,Ticks_Pract_5,34,1,48,32,109997436
681,1,Ticks_Pract_5,35,5,42,127,110032248
681,1,Ticks_Pract_5,36,1,48,30,110494356
681,1,Ticks_Pract_5,37,5,42,127,110532316
681,1,Ticks_Pract_5,38,1,48,30,110995320
681,1,Ticks_Pract_5,39,5,42,127,111031636
681,1,Ticks_Pract_5,40,1,48,28,111504892
681,1,Ticks_Pract_5,41,5,42,127,111532304
681,1,Ticks_Pract_5,42,1,48,24,112019248
681,1,Ticks_Pract_5,43,5,42,127,112032220
681,1,Ticks_Pract_5,44,1,48,29,112513036
681,1,Ticks_Pract_5,45,5,42,127,112532136
681,1,Ticks_Pract_5,46,1,48,29,113014372
681,1,Ticks_Pract_5,47,5,42,127,113031460
681,1,Ticks_Pract_5,48,1,48,26,113499384
681,1,Ticks_Pract_5,49,5,42,127,113532276
681,1,Ticks_Pract_5,50,1,48,30,114002888
681,1,Ticks_Pract_5,51,5,42,127,114032196
681,1,Ticks_Pract_5,52,1,48,26,114502664
681,1,Ticks_Pract_5,53,5,42,127,114531668
681,1,Ticks_Pract_5,54,1,48,30,114960240
681,1,Ticks_Pract_5,55,5,42,127,115032384
681,1,Ticks_Pract_5,56,1,48,24,115517536
681,1,Ticks_Pract_5,57,5,42,127,115532228
681,1,Ticks_Pract_5,58,1,48,31,116019620
681,1,Ticks_Pract_5,59,5,42,127,116032068
681,1,Ticks_Pract_5,60,1,48,25,116503156
681,1,Ticks_Pract_5,61,5,42,127,116531540
681,1,Ticks_Pract_5,62,5,42,127,117032216
681,1,Ticks_Pract_5,63,1,48,17,117034152
681,1,Ticks_Pract_5,64,5,42,127,117532056
681,1,Ticks_Pract_5,65,1,48,21,117534500
681,1,Ticks_Pract_5,66,1,48,35,118006056
681,1,Ticks_Pract_5,67,5,42,127,118031748
681,1,Ticks_Pract_5,68,1,48,30,118516668
681,1,Ticks_Pract_5,69,5,42,127,118531292
681,1,Ticks_Pract_5,70,1,48,29,118991088
681,1,Ticks_Pract_5,71,5,42,127,119032256
681,1,Ticks_Pract_5,72,1,48,36,119505964
681,1,Ticks_Pract_5,73,5,42,127,119532176
681,1,Ticks_Pract_5,74,1,48,32,119982020
681,1,Ticks_Pract_5,75,5,42,127,120031572
681,1,Ticks_Pract_5,76,1,48,31,120503932
681,1,Ticks_Pract_5,77,5,42,127,120532312
681,1,Ticks_Pract_5,78,1,48,28,120954780
681,1,Ticks_Pract_5,0,9999,9999,9999,101029992
681,1,Ticks_Pract_5,1,9999,9999,9999,101529708
681,1,Ticks_Pract_5,2,9999,9999,9999,102029416
681,1,Ticks_Pract_5,3,9999,9999,9999,102529112
681,1,Ticks_Pract_5,4,9999,9999,9999,103029852
681,1,Ticks_Pract_5,5,9999,9999,9999,103529548
681,1,Ticks_Pract_5,6,9999,9999,9999,104029292
681,1,Ticks_Pract_5,7,9999,9999,9999,104530032
681,1,Ticks_Pract_5,8,9999,9999,9999,105029728
681,1,Ticks_Pract_5,9,9999,9999,9999,105529420
681,1,Ticks_Pract_5,10,9999,9999,9999,106029116
681,1,Ticks_Pract_5,11,9999,9999,9999,106529860
681,1,Ticks_Pract_5,12,9999,9999,9999,107029552
681,1,Ticks_Pract_5,13,9999,9999,9999,107529324
681,1,Ticks_Pract_5,14,9999,9999,9999,108030064
681,1,Ticks_Pract_5,15,9999,9999,9999,108529756
681,1,Ticks_Pract_5,16,9999,9999,9999,109029452
681,1,Ticks_Pract_5,17,9999,9999,9999,109529144
681,1,Ticks_Pract_5,18,9999,9999,9999,110029888
681,1,Ticks_Pract_5,19,9999,9999,9999,110529656
681,1,Ticks_Pract_5,20,9999,9999,9999,111029352
681,1,Ticks_Pract_5,21,9999,9999,9999,111530092
681,1,Ticks_Pract_5,22,9999,9999,9999,112029784
681,1,Ticks_Pract_5,23,9999,9999,9999,112529480
681,1,Ticks_Pract_5,24,9999,9999,9999,113029176
681,1,Ticks_Pract_5,25,9999,9999,9999,113529916
681,1,Ticks_Pract_5,26,9999,9999,9999,114029688
681,1,Ticks_Pract_5,27,9999,9999,9999,114529356
681,1,Ticks_Pract_5,28,9999,9999,9999,115030096
681,1,Ticks_Pract_5,29,9999,9999,9999,115529792
681,1,Ticks_Pract_5,30,9999,9999,9999,116029560
681,1,Ticks_Pract_5,31,9999,9999,9999,116529256
681,1,Ticks_Pract_5,32,9999,9999,9999,117030004
681,1,Ticks_Pract_5,33,9999,9999,9999,117529696
681,1,Ticks_Pract_5,34,9999,9999,9999,118029388
681,1,Ticks_Pract_5,35,9999,9999,9999,118529084
681,1,Ticks_Pract_5,36,9999,9999,9999,119029824
681,1,Ticks_Pract_5,37,9999,9999,9999,119529592
681,1,Ticks_Pract_5,38,9999,9999,9999,120029284
681,1,Ticks_Pract_5,39,9999,9999,9999,120530028
682,0,Ticks_Pract_8,0,5,42,127,138908972
682,0,Ticks_Pract_8,1,5,42,127,139708728
682,0,Ticks_Pract_8,2,1,48,27,139758820
682,0,Ticks_Pract_8,3,5,42,127,140508460
682,0,Ticks_Pract_8,4,1,48,25,140545088
682,0,Ticks_Pract_8,5,1,48,26,141307800
682,0,Ticks_Pract_8,6,5,42,127,141309384
682,0,Ticks_Pract_8,7,5,42,127,142108976
682,0,Ticks_Pract_8,8,1,48,28,142116724
682,0,Ticks_Pract_8,9,5,42,127,142908708
682,0,Ticks_Pract_8,10,1,48,34,142920880
682,0,Ticks_Pract_8,11,5,42,127,143708444
682,0,Ticks_Pract_8,12,1,48,32,143741356
682,0,Ticks_Pract_8,13,5,42,127,144509472
682,0,Ticks_Pract_8,14,1,48,27,144525752
682,0,Ticks_Pract_8,15,5,42,127,145309056
682,0,Ticks_Pract_8,16,1,48,27,145337388
682,0,Ticks_Pract_8,17,1,48,27,146105756
682,0,Ticks_Pract_8,18,5,42,127,146108784
682,0,Ticks_Pract_8,19,1,48,28,146887768
682,0,Ticks_Pract_8,20,5,42,127,146908592
682,0,Ticks_Pract_8,21,5,42,127,147709452
682,0,Ticks_Pract_8,22,1,48,28,147711896
682,0,Ticks_Pract_8,23,1,48,22,148469204
682,0,Ticks_Pract_8,24,5,42,127,148509180
682,0,Ticks_Pract_8,25,1,48,19,149291896
682,0,Ticks_Pract_8,26,5,42,127,149308764
682,0,Ticks_Pract_8,27,1,48,23,150083032
682,0,Ticks_Pract_8,28,5,42,127,150108572
682,0,Ticks_Pract_8,29,1,48,22,150883612
682,0,Ticks_Pract_8,30,5,42,127,150909524
682,0,Ticks_Pract_8,31,1,48,21,151688508
682,0,Ticks_Pract_8,32,5,42,127,151708964
682,0,Ticks_Pract_8,33,1,48,18,152491904
682,0,Ticks_Pract_8,34,5,42,127,152508772
682,0,Ticks_Pract_8,35,5,42,127,153308436
682,0,Ticks_Pract_8,36,1,48,21,153348056
682,0,Ticks_Pract_8,37,5,42,127,154109368
682,0,Ticks_Pract_8,38,1,48,17,154130812
682,0,Ticks_Pract_8,39,5,42,127,154909320
682,0,Ticks_Pract_8,40,1,48,17,154924112
682,0,Ticks_Pract_8,41,5,42,127,155708684
682,0,Ticks_Pract_8,42,5,42,127,156508584
682,0,Ticks_Pract_8,43,5,42,127,157309188
682,0,Ticks_Pract_8,44,1,48,28,157325844
682,0,Ticks_Pract_8,45,1,48,29,158108472
682,0,Ticks_Pract_8,46,5,42,127,158110040
682,0,Ticks_Pract_8,47,5,42,127,158908656
682,0,Ticks_Pract_8,48,1,48,25,158920376
682,0,Ticks_Pract_8,49,1,48,28,159680448
682,0,Ticks_Pract_8,50,5,42,127,159708460
682,0,Ticks_Pract_8,51,5,42,127,160509244
682,0,Ticks_Pract_8,52,1,48,23,160568688
682,0,Ticks_Pract_8,53,5,42,127,161309200
682,0,Ticks_Pract_8,54,1,48,19,161364304
682,0,Ticks_Pract_8,55,5,42,127,162108636
682,0,Ticks_Pract_8,56,1,48,30,162150824
682,0,Ticks_Pract_8,0,9999,9999,9999,138906680
682,0,Ticks_Pract_8,1,9999,9999,9999,139706440
682,0,Ticks_Pract_8,2,9999,9999,9999,140506172
682,0,Ticks_Pract_8,3,9999,9999,9999,141306952
682,0,Ticks_Pract_8,4,9999,9999,9999,142106688
682,0,Ticks_Pract_8,5,9999,9999,9999,142906420
682,0,Ticks_Pract_8,6,9999,9999,9999,143706228
682,0,Ticks_Pract_8,7,9999,9999,9999,144506960
682,0,Ticks_Pract_8,8,9999,9999,9999,145306692
682,0,Ticks_Pract_8,9,9999,9999,9999,146106420
682,0,Ticks_Pract_8,10,9999,9999,9999,146906228
682,0,Ticks_Pract_8,11,9999,9999,9999,147706940
682,0,Ticks_Pract_8,12,9999,9999,9999,148506744
682,0,Ticks_Pract_8,13,9999,9999,9999,149306476
682,0,Ticks_Pract_8,14,9999,9999,9999,150106212
682,0,Ticks_Pract_8,15,9999,9999,9999,150906940
682,0,Ticks_Pract_8,16,9999,9999,9999,151706676
682,0,Ticks_Pract_8,17,9999,9999,9999,152506484
682,0,Ticks_Pract_8,18,9999,9999,9999,153306224
682,0,Ticks_Pract_8,19,9999,9999,9999,154106928
682,0,Ticks_Pract_8,20,9999,9999,9999,154906736
682,0,Ticks_Pract_8,21,9999,9999,9999,155706468
682,0,Ticks_Pract_8,22,9999,9999,9999,156506224
682,0,Ticks_Pract_8,23,9999,9999,9999,157306976
682,0,Ticks_Pract_8,24,9999,9999,9999,158106708
682,0,Ticks_Pract_8,25,9999,9999,9999,158906444
682,0,Ticks_Pract_8,26,9999,9999,9999,159706172
682,0,Ticks_Pract_8,27,9999,9999,9999,160506956
682,0,Ticks_Pract_8,28,9999,9999,9999,161306688
682,0,Ticks_Pract_8,29,9999,9999,9999,162106424
683,4,T1_SMS_5,0,5,42,127,233977124
683,4,T1_SMS_5,1,5,42,127,234476916
683,4,T1_SMS_5,2,1,48,26,234703180
683,4,T1_SMS_5,3,5,42,127,234976688
683,4,T1_SMS_5,4,1,48,27,235114540
683,4,T1_SMS_5,5,5,42,127,235477576
683,4,T1_SMS_5,6,1,48,25,235539112
683,4,T1_SMS_5,7,1,48,24,235952916
683,4,T1_SMS_5,8,5,42,127,235977040
683,4,T1_SMS_5,9,1,48,26,236420376
683,4,T1_SMS_5,10,5,42,127,236476736
683,4,T1_SMS_5,11,1,48,21,236947148
683,4,T1_SMS_5,12,5,42,127,236976580
683,4,T1_SMS_5,13,1,48,20,237477400
683,4,T1_SMS_5,14,5,42,127,237478740
683,4,T1_SMS_5,15,5,42,127,237976872
683,4,T1_SMS_5,16,1,48,27,238003996
683,4,T1_SMS_5,17,5,42,127,238476568
683,4,T1_SMS_5,18,1,48,28,238496584
683,4,T1_SMS_5,19,5,42,127,238977608
683,4,T1_SMS_5,20,1,48,27,239000924
683,4,T1_SMS_5,21,5,42,127,239477004
683,4,T1_SMS_5,22,1,48,21,239488128
683,4,T1_SMS_5,23,5,42,127,239976776
683,4,T1_SMS_5,24,1,48,22,239978636
683,4,T1_SMS_5,25,5,42,127,240476616
683,4,T1_SMS_5,26,1,48,23,240493576
683,4,T1_SMS_5,27,5,42,127,240977484
683,4,T1_SMS_5,28,1,48,21,240986440
683,4,T1_SMS_5,29,1,48,26,241469732
683,4,T1_SMS_5,30,5,42,127,241477096
683,4,T1_SMS_5,31,1,48,23,241962544
683,4,T1_SMS_5,32,5,42,127,241976568
683,4,T1_SMS_5,33,1,48,28,242442420
683,4,T1_SMS_5,34,5,42,127,242477536
683,4,T1_SMS_5,35,1,48,24,242966196
683,4,T1_SMS_5,36,5,42,127,242977304
683,4,T1_SMS_5,37,5,42,127,243476856
683,4,T1_SMS_5,38,1,48,28,243484688
683,4,T1_SMS_5,39,5,42,127,243976624
683,4,T1_SMS_5,40,1,48,28,243992452
683,4,T1_SMS_5,41,1,48,27,244468800
683,4,T1_SMS_5,42,5,42,127,244477432
683,4,T1_SMS_5,43,5,42,127,244977132
683,4,T1_SMS_5,44,1,48,27,244985484
683,4,T1_SMS_5,45,5,42,127,245476680
683,4,T1_SMS_5,46,1,48,21,245489444
683,4,T1_SMS_5,47,5,42,127,245976448
683,4,T1_SMS_5,48,1,48,27,245981216
683,4,T1_SMS_5,49,1,48,28,246456356
683,4,T1_SMS_5,50,5,42,127,246477336
683,4,T1_SMS_5,51,1,48,27,246966900
683,4,T1_SMS_5,52,5,42,127,246976732
683,4,T1_SMS_5,53,5,42,127,247476580
683,4,T1_SMS_5,54,1,48,19,247480376
683,4,T1_SMS_5,55,1,48,28,247964340
683,4,T1_SMS_5,56,5,42,127,247977240
683,4,T1_SMS_5,57,1,48,26,248466580
683,4,T1_SMS_5,58,5,42,127,248477012
683,4,T1_SMS_5,59,1,48,22,248961488
683,4,T1_SMS_5,60,5,42,127,248976632
683,4,T1_SMS_5,61,1,48,19,249451008
683,4,T1_SMS_5,62,5,42,127,249476404
683,4,T1_SMS_5,63,1,48,25,249946788
683,4,T1_SMS_5,64,5,42,127,249977216
683,4,T1_SMS_5,65,1,48,28,250462740
683,4,T1_SMS_5,66,5,42,127,250476912
683,4,T1_SMS_5,67,1,48,29,250942288
683,4,T1_SMS_5,68,5,42,127,250976684
683,4,T1_SMS_5,69,1,48,28,251428668
683,4,T1_SMS_5,70,5,42,127,251477248
683,4,T1_SMS_5,71,5,42,127,251977172
683,4,T1_SMS_5,72,1,48,20,252410428
683,4,T1_SMS_5,73,5,42,127,252476660
683,4,T1_SMS_5,74,1,48,21,252956800
683,4,T1_SMS_5,75,5,42,127,252976504
683,4,T1_SMS_5,76,5,42,127,253477180
683,4,T1_SMS_5,77,1,48,21,253505204
683,4,T1_SMS_5,78,1,48,29,253970624
683,4,T1_SMS_5,79,5,42,127,253976944
683,4,T1_SMS_5,80,1,48,31,254465084
683,4,T1_SMS_5,81,5,42,127,254476636
683,4,T1_SMS_5,82,5,42,127,254977384
683,4,T1_SMS_5,83,1,48,29,254992768
683,4,T1_SMS_5,84,1,48,21,255476020
683,4,T1_SMS_5,85,5,42,127,255477516
683,4,T1_SMS_5,86,1,48,24,255965364
683,4,T1_SMS_5,87,5,42,127,255976768
683,4,T1_SMS_5,88,1,48,27,256451744
683,4,T1_SMS_5,89,5,42,127,256476460
683,4,T1_SMS_5,90,1,48,30,256937972
683,4,T1_SMS_5,91,5,42,127,256977204
683,4,T1_SMS_5,92,1,48,32,257444548
683,4,T1_SMS_5,93,5,42,127,257476900
683,4,T1_SMS_5,94,1,48,29,257974852
683,4,T1_SMS_5,95,5,42,127,257976592
683,4,T1_SMS_5,96,5,42,127,258477488
683,4,T1_SMS_5,97,1,48,25,258490408
683,4,T1_SMS_5,98,5,42,127,258977036
683,4,T1_SMS_5,99,1,48,21,259402788
683,4,T1_SMS_5,100,5,42,127,259476968
683,4,T1_SMS_5,101,1,48,29,259931900
683,4,T1_SMS_5,102,5,42,127,259976664
683,4,T1_SMS_5,103,1,48,29,260426784
683,4,T1_SMS_5,104,5,42,127,260477180
683,4,T1_SMS_5,105,1,48,29,260945844
683,4,T1_SMS_5,106,5,42,127,260977024
683,4,T1_SMS_5,107,1,48,25,261448088
683,4,T1_SMS_5,108,5,42,127,261476644
683,4,T1_SMS_5,109,1,48,33,261932816
683,4,T1_SMS_5,110,5,42,127,261976316
683,4,T1_SMS_5,111,1,48,33,262425408
683,4,T1_SMS_5,112,5,42,127,262477132
683,4,T1_SMS_5,113,1,48,35,262966696
683,4,T1_SMS_5,114,5,42,127,262976976
683,4,T1_SMS_5,115,1,48,34,263472296
683,4,T1_SMS_5,116,5,42,127,263476668
683,4,T1_SMS_5,117,1,48,30,263939232
683,4,T1_SMS_5,118,5,42,127,263977188
683,4,T1_SMS_5,119,5,42,127,264476888
683,4,T1_SMS_5,120,1,48,28,264477856
683,4,T1_SMS_5,121,5,42,127,264976880
683,4,T1_SMS_5,122,1,48,28,265043428
683,4,T1_SMS_5,123,5,42,127,265476428
683,4,T1_SMS_5,124,1,48,28,265564464
683,4,T1_SMS_5,125,5,42,127,265977244
683,4,T1_SMS_5,126,1,48,18,266081212
683,4,T1_SMS_5,127,5,42,127,266476788
683,4,T1_SMS_5,128,1,48,29,266545948
683,4,T1_SMS_5,129,5,42,127,266976632
683,4,T1_SMS_5,130,1,48,23,267004432
683,4,T1_SMS_5,131,5,42,127,267477300
683,4,T1_SMS_5,132,1,48,23,267479312
683,4,T1_SMS_5,133,5,42,127,267977072
683,4,T1_SMS_5,134,1,48,28,267988044
683,4,T1_SMS_5,135,1,48,29,268469472
683,4,T1_SMS_5,136,5,42,127,268476908
683,4,T1_SMS_5,137,5,42,127,268976612
683,4,T1_SMS_5,138,1,48,28,268983016
683,4,T1_SMS_5,139,5,42,127,269477128
683,4,T1_SMS_5,140,1,48,29,269492960
683,4,T1_SMS_5,141,5,42,127,269976900
683,4,T1_SMS_5,142,1,48,26,269982860
683,4,T1_SMS_5,143,1,48,25,270475912
683,4,T1_SMS_5,144,5,42,127,270477484
683,4,T1_SMS_5,145,5,42,127,270977260
683,4,T1_SMS_5,146,1,48,27,271007232
683,4,T1_SMS_5,147,5,42,127,271476956
683,4,T1_SMS_5,148,1,48,31,271481716
683,4,T1_SMS_5,149,5,42,127,271976948
683,4,T1_SMS_5,150,1,48,30,271986804
683,4,T1_SMS_5,151,1,48,31,272453840
683,4,T1_SMS_5,152,5,42,127,272476488
683,4,T1_SMS_5,153,1,48,29,272973500
683,4,T1_SMS_5,154,5,42,127,272977204
683,4,T1_SMS_5,155,5,42,127,273476908
683,4,T1_SMS_5,156,1,48,32,273492812
683,4,T1_SMS_5,157,5,42,127,273976900
683,4,T1_SMS_5,158,1,48,23,273993256
683,4,T1_SMS_5,159,1,48,26,274475060
683,4,T1_SMS_5,160,5,42,127,274477484
683,4,T1_SMS_5,161,1,48,26,274965324
683,4,T1_SMS_5,162,5,42,127,274977180
683,4,T1_SMS_5,163,1,48,27,275463824
683,4,T1_SMS_5,164,5,42,127,275476800
683,4,T1_SMS_5,165,1,48,25,275947288
683,4,T1_SMS_5,166,5,42,127,275976720
683,4,T1_SMS_5,167,1,48,26,276452372
683,4,T1_SMS_5,168,5,42,127,276477160
683,4,T1_SMS_5,169,1,48,26,276971060
683,4,T1_SMS_5,170,5,42,127,276976932
683,4,T1_SMS_5,171,5,42,127,277476856
683,4,T1_SMS_5,172,1,48,28,277480576
683,4,T1_SMS_5,173,1,48,30,277963944
683,4,T1_SMS_5,174,5,42,127,277976620
683,4,T1_SMS_5,175,1,48,25,278451144
683,4,T1_SMS_5,176,5,42,127,278477140
683,4,T1_SMS_5,177,5,42,127,278976840
683,4,T1_SMS_5,178,1,48,25,278991624
683,4,T1_SMS_5,179,1,48,28,279466468
683,4,T1_SMS_5,180,5,42,127,279476752
683,4,T1_SMS_5,181,1,48,24,279972000
683,4,T1_SMS_5,182,5,42,127,279977272
683,4,T1_SMS_5,183,1,48,24,280451500
683,4,T1_SMS_5,184,5,42,127,280477040
683,4,T1_SMS_5,185,5,42,127,280976744
683,4,T1_SMS_5,186,1,48,24,280981428
683,4,T1_SMS_5,187,5,42,127,281476812
683,4,T1_SMS_5,188,1,48,25,281497660
683,4,T1_SMS_5,189,5,42,127,281977104
683,4,T1_SMS_5,190,1,48,26,282013056
683,4,T1_SMS_5,191,5,42,127,282476948
683,4,T1_SMS_5,192,1,48,25,282500784
683,4,T1_SMS_5,193,1,48,13,282973684
683,4,T1_SMS_5,194,5,42,127,282976712
683,4,T1_SMS_5,195,1,48,30,283460264
683,4,T1_SMS_5,196,5,42,127,283477504
683,4,T1_SMS_5,197,1,48,21,283973568
683,4,T1_SMS_5,198,5,42,127,283977124
683,4,T1_SMS_5,199,1,48,24,284473336
683,4,T1_SMS_5,200,5,42,127,284476744
683,4,T1_SMS_5,201,1,48,26,284973708
683,4,T1_SMS_5,202,5,42,127,284976660
683,4,T1_SMS_5,203,1,48,22,285458296
683,4,T1_SMS_5,204,5,42,127,285477404
683,4,T1_SMS_5,205,1,48,29,285967640
683,4,T1_SMS_5,206,5,42,127,285976876
683,4,T1_SMS_5,207,1,48,26,286450956
683,4,T1_SMS_5,208,5,42,127,286476644
683,4,T1_SMS_5,209,1,48,22,286977172
683,4,T1_SMS_5,210,5,42,127,286978660
683,4,T1_SMS_5,211,5,42,127,287477088
683,4,T1_SMS_5,212,1,48,23,287486488
683,4,T1_SMS_5,213,1,48,29,287973296
683,4,T1_SMS_5,214,5,42,127,287976852
683,4,T1_SMS_5,215,5,42,127,288476552
683,4,T1_SMS_5,216,1,48,29,288481468
683,4,T1_SMS_5,217,1,48,34,288970668
683,4,T1_SMS_5,218,5,42,127,288977364
683,4,T1_SMS_5,219,1,48,26,289457356
683,4,T1_SMS_5,220,5,42,127,289476912
683,4,T1_SMS_5,221,5,42,127,289976612
683,4,T1_SMS_5,222,1,48,28,289997008
683,4,T1_SMS_5,223,5,42,127,290477428
683,4,T1_SMS_5,224,1,48,20,290493708
683,4,T1_SMS_5,225,5,42,127,290977048
683,4,T1_SMS_5,226,1,48,29,291012032
683,4,T1_SMS_5,227,5,42,127,291476892
683,4,T1_SMS_5,228,1,48,26,291498040
683,4,T1_SMS_5,229,5,42,127,291976664
683,4,T1_SMS_5,230,1,48,28,292000348
683,4,T1_SMS_5,231,5,42,127,292477404
683,4,T1_SMS_5,232,1,48,29,292494808
683,4,T1_SMS_5,233,5,42,127,292977100
683,4,T1_SMS_5,234,1,48,30,292988744
683,4,T1_SMS_5,235,5,42,127,293476572
683,4,T1_SMS_5,236,1,48,29,293488068
683,4,T1_SMS_5,237,5,42,127,293976316
683,4,T1_SMS_5,238,1,48,27,293988436
683,4,T1_SMS_5,239,1,48,27,294470356
683,4,T1_SMS_5,240,5,42,127,294477276
683,4,T1_SMS_5,241,5,42,127,294976828
683,4,T1_SMS_5,242,1,48,24,294981588
683,4,T1_SMS_5,243,1,48,30,295464284
683,4,T1_SMS_5,244,5,42,127,295476588
683,4,T1_SMS_5,245,5,42,127,295977412
683,4,T1_SMS_5,246,1,48,23,295997432
683,4,T1_SMS_5,247,1,48,27,296466596
683,4,T1_SMS_5,248,5,42,127,296477100
683,4,T1_SMS_5,249,1,48,25,296956188
683,4,T1_SMS_5,250,5,42,127,296976720
683,4,T1_SMS_5,251,1,48,24,297473312
683,4,T1_SMS_5,252,5,42,127,297476416
683,4,T1_SMS_5,253,1,48,28,297961260
683,4,T1_SMS_5,254,5,42,127,297977380
683,4,T1_SMS_5,255,1,48,17,298462308
683,4,T1_SMS_5,256,5,42,127,298476852
683,4,T1_SMS_5,257,1,48,28,298948840
683,4,T1_SMS_5,0,9999,9999,9999,233974832
683,4,T1_SMS_5,1,9999,9999,9999,234474552
683,4,T1_SMS_5,2,9999,9999,9999,234974320
683,4,T1_SMS_5,3,9999,9999,9999,235475060
683,4,T1_SMS_5,4,9999,9999,9999,235974752
683,4,T1_SMS_5,5,9999,9999,9999,236474444
683,4,T1_SMS_5,6,9999,9999,9999,236974140
683,4,T1_SMS_5,7,9999,9999,9999,237474888
683,4,T1_SMS_5,8,9999,9999,9999,237974580
683,4,T1_SMS_5,9,9999,9999,9999,238474352
683,4,T1_SMS_5,10,9999,9999,9999,238975096
683,4,T1_SMS_5,11,9999,9999,9999,239474788
683,4,T1_SMS_5,12,9999,9999,9999,239974484
683,4,T1_SMS_5,13,9999,9999,9999,240474228
683,4,T1_SMS_5,14,9999,9999,9999,240974968
683,4,T1_SMS_5,15,9999,9999,9999,241474656
683,4,T1_SMS_5,16,9999,9999,9999,241974352
683,4,T1_SMS_5,17,9999,9999,9999,242475096
683,4,T1_SMS_5,18,9999,9999,9999,242974792
683,4,T1_SMS_5,19,9999,9999,9999,243474492
683,4,T1_SMS_5,20,9999,9999,9999,243974260
683,4,T1_SMS_5,21,9999,9999,9999,244474992
683,4,T1_SMS_5,22,9999,9999,9999,244974696
683,4,T1_SMS_5,23,9999,9999,9999,245474388
683,4,T1_SMS_5,24,9999,9999,9999,245974084
683,4,T1_SMS_5,25,9999,9999,9999,246474820
683,4,T1_SMS_5,26,9999,9999,9999,246974516
683,4,T1_SMS_5,27,9999,9999,9999,247474292
683,4,T1_SMS_5,28,9999,9999,9999,247975028
683,4,T1_SMS_5,29,9999,9999,9999,248474720
683,4,T1_SMS_5,30,9999,9999,9999,248974416
683,4,T1_SMS_5,31,9999,9999,9999,249474112
683,4,T1_SMS_5,32,9999,9999,9999,249974852
683,4,T1_SMS_5,33,9999,9999,9999,250474548
683,4,T1_SMS_5,34,9999,9999,9999,250974316
683,4,T1_SMS_5,35,9999,9999,9999,251475032
683,4,T1_SMS_5,36,9999,9999,9999,251974736
683,4,T1_SMS_5,37,9999,9999,9999,252474444
683,4,T1_SMS_5,38,9999,9999,9999,252974140
683,4,T1_SMS_5,39,9999,9999,9999,253474888
683,4,T1_SMS_5,40,9999,9999,9999,253974576
683,4,T1_SMS_5,41,9999,9999,9999,254474348
683,4,T1_SMS_5,42,9999,9999,9999,254975096
683,4,T1_SMS_5,43,9999,9999,9999,255474788
683,4,T1_SMS_5,44,9999,9999,9999,255974476
683,4,T1_SMS_5,45,9999,9999,9999,256474172
683,4,T1_SMS_5,46,9999,9999,9999,256974912
683,4,T1_SMS_5,47,9999,9999,9999,257474608
683,4,T1_SMS_5,48,9999,9999,9999,257974328
683,4,T1_SMS_5,49,9999,9999,9999,258475124
683,4,T1_SMS_5,50,9999,9999,9999,258974820
683,4,T1_SMS_5,51,9999,9999,9999,259474528
683,4,T1_SMS_5,52,9999,9999,9999,259974224
683,4,T1_SMS_5,53,9999,9999,9999,260474964
683,4,T1_SMS_5,54,9999,9999,9999,260974660
683,4,T1_SMS_5,55,9999,9999,9999,261474356
683,4,T1_SMS_5,56,9999,9999,9999,261974100
683,4,T1_SMS_5,57,9999,9999,9999,262474840
683,4,T1_SMS_5,58,9999,9999,9999,262974536
683,4,T1_SMS_5,59,9999,9999,9999,263474228
683,4,T1_SMS_5,60,9999,9999,9999,263974972
683,4,T1_SMS_5,61,9999,9999,9999,264474672
683,4,T1_SMS_5,62,9999,9999,9999,264974444
683,4,T1_SMS_5,63,9999,9999,9999,265474136
683,4,T1_SMS_5,64,9999,9999,9999,265974880
683,4,T1_SMS_5,65,9999,9999,9999,266474572
683,4,T1_SMS_5,66,9999,9999,9999,266974268
683,4,T1_SMS_5,67,9999,9999,9999,267475012
683,4,T1_SMS_5,68,9999,9999,9999,267974704
683,4,T1_SMS_5,69,9999,9999,9999,268474468
683,4,T1_SMS_5,70,9999,9999,9999,268974172
683,4,T1_SMS_5,71,9999,9999,9999,269474912
683,4,T1_SMS_5,72,9999,9999,9999,269974608
683,4,T1_SMS_5,73,9999,9999,9999,270474304
683,4,T1_SMS_5,74,9999,9999,9999,270975044
683,4,T1_SMS_5,75,9999,9999,9999,271474740
683,4,T1_SMS_5,76,9999,9999,9999,271974508
683,4,T1_SMS_5,77,9999,9999,9999,272474196
683,4,T1_SMS_5,78,9999,9999,9999,272974916
683,4,T1_SMS_5,79,9999,9999,9999,273474616
683,4,T1_SMS_5,80,9999,9999,9999,273974384
683,4,T1_SMS_5,81,9999,9999,9999,274475120
683,4,T1_SMS_5,82,9999,9999,9999,274974816
683,4,T1_SMS_5,83,9999,9999,9999,275474508
683,4,T1_SMS_5,84,9999,9999,9999,275974208
683,4,T1_SMS_5,85,9999,9999,9999,276474948
683,4,T1_SMS_5,86,9999,9999,9999,276974640
683,4,T1_SMS_5,87,9999,9999,9999,277474416
683,4,T1_SMS_5,88,9999,9999,9999,277974108
683,4,T1_SMS_5,89,9999,9999,9999,278474848
683,4,T1_SMS_5,90,9999,9999,9999,278974552
683,4,T1_SMS_5,91,9999,9999,9999,279474240
683,4,T1_SMS_5,92,9999,9999,9999,279974980
683,4,T1_SMS_5,93,9999,9999,9999,280474676
683,4,T1_SMS_5,94,9999,9999,9999,280974452
683,4,T1_SMS_5,95,9999,9999,9999,281474148
683,4,T1_SMS_5,96,9999,9999,9999,281974888
683,4,T1_SMS_5,97,9999,9999,9999,282474584
683,4,T1_SMS_5,98,9999,9999,9999,282974276
683,4,T1_SMS_5,99,9999,9999,9999,283475064
683,4,T1_SMS_5,100,9999,9999,9999,283974760
683,4,T1_SMS_5,101,9999,9999,9999,284474452
683,4,T1_SMS_5,102,9999,9999,9999,284974148
683,4,T1_SMS_5,103,9999,9999,9999,285474892
683,4,T1_SMS_5,104,9999,9999,9999,285974584
683,4,T1_SMS_5,105,9999,9999,9999,286474356
683,4,T1_SMS_5,106,9999,9999,9999,286975028
683,4,T1_SMS_5,107,9999,9999,9999,287474800
683,4,T1_SMS_5,108,9999,9999,9999,287974488
683,4,T1_SMS_5,109,9999,9999,9999,288474188
683,4,T1_SMS_5,110,9999,9999,9999,288974924
683,4,T1_SMS_5,111,9999,9999,9999,289474620
683,4,T1_SMS_5,112,9999,9999,9999,289974320
683,4,T1_SMS_5,113,9999,9999,9999,290475064
683,4,T1_SMS_5,114,9999,9999,9999,290974832
683,4,T1_SMS_5,115,9999,9999,9999,291474528
683,4,T1_SMS_5,116,9999,9999,9999,291974224
683,4,T1_SMS_5,117,9999,9999,9999,292474964
683,4,T1_SMS_5,118,9999,9999,9999,292974660
683,4,T1_SMS_5,119,9999,9999,9999,293474356
683,4,T1_SMS_5,120,9999,9999,9999,293974100
683,4,T1_SMS_5,121,9999,9999,9999,294474836
683,4,T1_SMS_5,122,9999,9999,9999,294974536
683,4,T1_SMS_5,123,9999,9999,9999,295474224
683,4,T1_SMS_5,124,9999,9999,9999,295974972
683,4,T1_SMS_5,125,9999,9999,9999,296474736
683,4,T1_SMS_5,126,9999,9999,9999,296974432
683,4,T1_SMS_5,127,9999,9999,9999,297474124
683,4,T1_SMS_5,128,9999,9999,9999,297974864
683,4,T1_SMS_5,129,9999,9999,9999,298474560
684,2,T1_SMS_8,0,5,42,127,357394884
684,2,T1_SMS_8,1,1,48,16,358018600
684,2,T1_SMS_8,2,5,42,127,358194468
684,2,T1_SMS_8,3,1,48,20,358787888
684,2,T1_SMS_8,4,5,42,127,358995248
684,2,T1_SMS_8,5,1,48,25,359501036
684,2,T1_SMS_8,6,5,42,127,359795056
684,2,T1_SMS_8,7,1,48,27,360160524
684,2,T1_SMS_8,8,5,42,127,360595012
684,2,T1_SMS_8,9,1,48,18,360877304
684,2,T1_SMS_8,10,5,42,127,361394668
684,2,T1_SMS_8,11,1,48,20,361602688
684,2,T1_SMS_8,12,5,42,127,362195448
684,2,T1_SMS_8,13,1,48,21,362280028
684,2,T1_SMS_8,14,5,42,127,362994960
684,2,T1_SMS_8,15,1,48,21,362995924
684,2,T1_SMS_8,16,1,48,21,363774232
684,2,T1_SMS_8,17,5,42,127,363795056
684,2,T1_SMS_8,18,1,48,26,364586900
684,2,T1_SMS_8,19,5,42,127,364594420
684,2,T1_SMS_8,20,1,48,27,365376992
684,2,T1_SMS_8,21,5,42,127,365395348
684,2,T1_SMS_8,22,1,48,24,366180236
684,2,T1_SMS_8,23,5,42,127,366195008
684,2,T1_SMS_8,24,5,42,127,366994972
684,2,T1_SMS_8,25,1,48,22,367042748
684,2,T1_SMS_8,26,5,42,127,367794704
684,2,T1_SMS_8,27,1,48,19,367853848
684,2,T1_SMS_8,28,5,42,127,368595188
684,2,T1_SMS_8,29,1,48,22,368649692
684,2,T1_SMS_8,30,5,42,127,369394996
684,2,T1_SMS_8,31,1,48,24,369408736
684,2,T1_SMS_8,32,1,48,14,370177712
684,2,T1_SMS_8,33,5,42,127,370194796
684,2,T1_SMS_8,34,1,48,24,370994980
684,2,T1_SMS_8,35,5,42,127,370996096
684,2,T1_SMS_8,36,5,42,127,371795240
684,2,T1_SMS_8,37,1,48,17,371855532
684,2,T1_SMS_8,38,5,42,127,372595000
684,2,T1_SMS_8,39,1,48,23,372662672
684,2,T1_SMS_8,40,1,48,24,373392224
684,2,T1_SMS_8,41,5,42,127,373394728
684,2,T1_SMS_8,42,1,48,25,374190316
684,2,T1_SMS_8,43,5,42,127,374194760
684,2,T1_SMS_8,44,1,48,21,374964320
684,2,T1_SMS_8,45,5,42,127,374995316
684,2,T1_SMS_8,46,1,48,35,375769364
684,2,T1_SMS_8,47,5,42,127,375795048
684,2,T1_SMS_8,48,5,42,127,376594716
684,2,T1_SMS_8,49,1,48,18,376605088
684,2,T1_SMS_8,50,1,48,21,377389992
684,2,T1_SMS_8,51,5,42,127,377394592
684,2,T1_SMS_8,52,1,48,21,378157344
684,2,T1_SMS_8,53,5,42,127,378195444
684,2,T1_SMS_8,54,1,48,26,378963876
684,2,T1_SMS_8,55,5,42,127,378994956
684,2,T1_SMS_8,56,1,48,29,379771172
684,2,T1_SMS_8,57,5,42,127,379794764
684,2,T1_SMS_8,58,5,42,127,380594576
684,2,T1_SMS_8,59,1,48,26,380598744
684,2,T1_SMS_8,60,5,42,127,381395432
684,2,T1_SMS_8,61,1,48,28,381397072
684,2,T1_SMS_8,62,5,42,127,382195092
684,2,T1_SMS_8,63,1,48,24,382196724
684,2,T1_SMS_8,64,1,48,26,382982964
684,2,T1_SMS_8,65,5,42,127,382994744
684,2,T1_SMS_8,66,1,48,24,383743060
684,2,T1_SMS_8,67,5,42,127,383794400
684,2,T1_SMS_8,68,1,48,26,384520356
684,2,T1_SMS_8,69,5,42,127,384595552
684,2,T1_SMS_8,70,1,48,25,385356480
684,2,T1_SMS_8,71,5,42,127,385394988
684,2,T1_SMS_8,72,1,48,26,386158412
684,2,T1_SMS_8,73,5,42,127,386194720
684,2,T1_SMS_8,74,1,48,30,386973104
684,2,T1_SMS_8,75,5,42,127,386994532
684,2,T1_SMS_8,76,1,48,31,387795464
684,2,T1_SMS_8,77,5,42,127,387796800
684,2,T1_SMS_8,78,5,42,127,388595200
684,2,T1_SMS_8,79,1,48,29,388613132
684,2,T1_SMS_8,80,5,42,127,389394780
684,2,T1_SMS_8,81,1,48,30,389414356
684,2,T1_SMS_8,82,5,42,127,390194440
684,2,T1_SMS_8,83,1,48,25,390238428
684,2,T1_SMS_8,84,5,42,127,390995516
684,2,T1_SMS_8,85,1,48,29,391011952
684,2,T1_SMS_8,86,5,42,127,391795028
684,2,T1_SMS_8,87,1,48,29,391803984
684,2,T1_SMS_8,88,1,48,17,392587768
684,2,T1_SMS_8,89,5,42,127,392594680
684,2,T1_SMS_8,90,1,48,25,393359224
684,2,T1_SMS_8,91,5,42,127,393394560
684,2,T1_SMS_8,92,5,42,127,394195352
684,2,T1_SMS_8,93,1,48,29,394218520
684,2,T1_SMS_8,94,1,48,27,394992128
684,2,T1_SMS_8,95,5,42,127,394995300
684,2,T1_SMS_8,96,5,42,127,395794892
684,2,T1_SMS_8,97,1,48,29,395804820
684,2,T1_SMS_8,98,5,42,127,396594552
684,2,T1_SMS_8,99,1,48,25,396614800
684,2,T1_SMS_8,100,5,42,127,397395180
684,2,T1_SMS_8,101,1,48,29,397414608
684,2,T1_SMS_8,102,5,42,127,398195360
684,2,T1_SMS_8,103,1,48,29,398202524
684,2,T1_SMS_8,104,5,42,127,398994872
684,2,T1_SMS_8,105,1,48,26,399030384
684,2,T1_SMS_8,106,5,42,127,399794608
684,2,T1_SMS_8,107,1,48,25,399823752
684,2,T1_SMS_8,108,5,42,127,400595240
684,2,T1_SMS_8,109,1,48,29,400607412
684,2,T1_SMS_8,110,5,42,127,401395268
684,2,T1_SMS_8,111,1,48,22,401404820
684,2,T1_SMS_8,112,5,42,127,402194780
684,2,T1_SMS_8,113,1,48,28,402205228
684,2,T1_SMS_8,114,1,48,27,402989536
684,2,T1_SMS_8,115,5,42,127,402994728
684,2,T1_SMS_8,116,1,48,30,403746408
684,2,T1_SMS_8,117,5,42,127,403795384
684,2,T1_SMS_8,118,5,42,127,404595124
684,2,T1_SMS_8,119,1,48,23,404628988
684,2,T1_SMS_8,120,5,42,127,405395004
684,2,T1_SMS_8,121,1,48,31,405397452
684,2,T1_SMS_8,122,5,42,127,406194516
684,2,T1_SMS_8,123,1,48,25,406253664
684,2,T1_SMS_8,124,5,42,127,406995372
684,2,T1_SMS_8,125,1,48,30,407079052
684,2,T1_SMS_8,126,5,42,127,407795104
684,2,T1_SMS_8,127,1,48,25,407868540
684,2,T1_SMS_8,128,5,42,127,408594912
684,2,T1_SMS_8,129,1,48,26,408632888
684,2,T1_SMS_8,130,1,48,23,409384284
684,2,T1_SMS_8,131,5,42,127,409394564
684,2,T1_SMS_8,132,1,48,20,410178484
684,2,T1_SMS_8,133,5,42,127,410195296
684,2,T1_SMS_8,134,1,48,25,410989312
684,2,T1_SMS_8,135,5,42,127,410995028
684,2,T1_SMS_8,136,5,42,127,411794916
684,2,T1_SMS_8,137,1,48,29,411806488
684,2,T1_SMS_8,138,5,42,127,412594504
684,2,T1_SMS_8,139,1,48,27,412619844
684,2,T1_SMS_8,140,5,42,127,413395356
684,2,T1_SMS_8,141,1,48,17,413464752
684,2,T1_SMS_8,142,5,42,127,414194944
684,2,T1_SMS_8,143,1,48,26,414216008
684,2,T1_SMS_8,144,1,48,27,414965016
684,2,T1_SMS_8,145,5,42,127,414994744
684,2,T1_SMS_8,146,1,48,25,415755548
684,2,T1_SMS_8,147,5,42,127,415794552
684,2,T1_SMS_8,148,1,48,30,416550124
684,2,T1_SMS_8,149,5,42,127,416595356
684,2,T1_SMS_8,150,1,48,23,417377408
684,2,T1_SMS_8,151,5,42,127,417395088
684,2,T1_SMS_8,152,5,42,127,418194752
684,2,T1_SMS_8,153,1,48,27,418205804
684,2,T1_SMS_8,154,5,42,127,418994640
684,2,T1_SMS_8,155,1,48,29,419008452
684,2,T1_SMS_8,156,5,42,127,419795196
684,2,T1_SMS_8,157,1,48,29,419820004
684,2,T1_SMS_8,158,5,42,127,420595152
684,2,T1_SMS_8,159,1,48,28,420619440
684,2,T1_SMS_8,160,5,42,127,421394884
684,2,T1_SMS_8,161,1,48,25,421425076
684,2,T1_SMS_8,162,1,48,25,422189936
684,2,T1_SMS_8,163,5,42,127,422194684
684,2,T1_SMS_8,164,1,48,21,422918320
684,2,T1_SMS_8,165,5,42,127,422995264
684,2,T1_SMS_8,166,5,42,127,423794932
684,2,T1_SMS_8,167,1,48,29,424572432
684,2,T1_SMS_8,168,5,42,127,424594828
684,2,T1_SMS_8,169,1,48,17,425300508
684,2,T1_SMS_8,170,5,42,127,425395296
684,2,T1_SMS_8,171,1,48,29,426152152
684,2,T1_SMS_8,172,5,42,127,426195192
684,2,T1_SMS_8,173,5,42,127,426994932
684,2,T1_SMS_8,174,1,48,35,427000668
684,2,T1_SMS_8,175,1,48,31,427781688
684,2,T1_SMS_8,176,5,42,127,427794736
684,2,T1_SMS_8,177,1,48,26,428583588
684,2,T1_SMS_8,178,5,42,127,428594692
684,2,T1_SMS_8,179,1,48,29,429367616
684,2,T1_SMS_8,180,5,42,127,429395348
684,2,T1_SMS_8,181,1,48,26,430194332
684,2,T1_SMS_8,182,5,42,127,430195904
684,2,T1_SMS_8,183,5,42,127,430994748
684,2,T1_SMS_8,184,1,48,26,431021208
684,2,T1_SMS_8,185,1,48,34,431772752
684,2,T1_SMS_8,186,5,42,127,431794772
684,2,T1_SMS_8,187,1,48,29,432554160
684,2,T1_SMS_8,188,5,42,127,432595404
684,2,T1_SMS_8,189,5,42,127,433394992
684,2,T1_SMS_8,190,1,48,27,433430580
684,2,T1_SMS_8,191,5,42,127,434194728
684,2,T1_SMS_8,192,1,48,25,434227544
684,2,T1_SMS_8,193,5,42,127,434994536
684,2,T1_SMS_8,194,1,48,34,435020244
684,2,T1_SMS_8,195,5,42,127,435795340
684,2,T1_SMS_8,196,1,48,29,435844008
684,2,T1_SMS_8,197,5,42,127,436594996
684,2,T1_SMS_8,198,1,48,27,436632900
684,2,T1_SMS_8,199,5,42,127,437394656
684,2,T1_SMS_8,200,1,48,23,437428520
684,2,T1_SMS_8,201,5,42,127,438194464
684,2,T1_SMS_8,202,1,48,30,438204916
684,2,T1_SMS_8,203,5,42,127,438995248
684,2,T1_SMS_8,204,1,48,27,439018936
684,2,T1_SMS_8,205,5,42,127,439795128
684,2,T1_SMS_8,206,1,48,30,439796616
684,2,T1_SMS_8,207,1,48,27,440588616
684,2,T1_SMS_8,208,5,42,127,440594856
684,2,T1_SMS_8,209,5,42,127,441394520
684,2,T1_SMS_8,210,1,48,21,441439852
684,2,T1_SMS_8,211,1,48,24,442195104
684,2,T1_SMS_8,212,5,42,127,442196364
684,2,T1_SMS_8,213,1,48,35,442939872
684,2,T1_SMS_8,214,5,42,127,442994980
684,2,T1_SMS_8,215,1,48,28,443762664
684,2,T1_SMS_8,216,5,42,127,443794860
684,2,T1_SMS_8,217,1,48,30,444560008
684,2,T1_SMS_8,218,5,42,127,444594596
684,2,T1_SMS_8,219,5,42,127,445395380
684,2,T1_SMS_8,220,1,48,23,445397828
684,2,T1_SMS_8,221,5,42,127,446195192
684,2,T1_SMS_8,222,1,48,26,446228380
684,2,T1_SMS_8,223,5,42,127,446994776
684,2,T1_SMS_8,224,1,48,18,446998344
684,2,T1_SMS_8,225,5,42,127,447794584
684,2,T1_SMS_8,226,5,42,127,448595412
684,2,T1_SMS_8,227,5,42,127,449395092
684,2,T1_SMS_8,228,1,48,33,449431492
684,2,T1_SMS_8,229,1,48,19,450168160
684,2,T1_SMS_8,230,5,42,127,450194892
684,2,T1_SMS_8,231,5,42,127,450994560
684,2,T1_SMS_8,232,1,48,21,451023040
684,2,T1_SMS_8,233,1,48,17,451794440
684,2,T1_SMS_8,234,5,42,127,451796084
684,2,T1_SMS_8,235,5,42,127,452595300
684,2,T1_SMS_8,236,1,48,23,452617644
684,2,T1_SMS_8,0,9999,9999,9999,357392444
684,2,T1_SMS_8,1,9999,9999,9999,358192180
684,2,T1_SMS_8,2,9999,9999,9999,358992960
684,2,T1_SMS_8,3,9999,9999,9999,359792692
684,2,T1_SMS_8,4,9999,9999,9999,360592500
684,2,T1_SMS_8,5,9999,9999,9999,361392232
684,2,T1_SMS_8,6,9999,9999,9999,362193012
684,2,T1_SMS_8,7,9999,9999,9999,362992748
684,2,T1_SMS_8,8,9999,9999,9999,363792472
684,2,T1_SMS_8,9,9999,9999,9999,364592208
684,2,T1_SMS_8,10,9999,9999,9999,365392984
684,2,T1_SMS_8,11,9999,9999,9999,366192720
684,2,T1_SMS_8,12,9999,9999,9999,366992460
684,2,T1_SMS_8,13,9999,9999,9999,367792192
684,2,T1_SMS_8,14,9999,9999,9999,368592972
684,2,T1_SMS_8,15,9999,9999,9999,369392704
684,2,T1_SMS_8,16,9999,9999,9999,370192432
684,2,T1_SMS_8,17,9999,9999,9999,370992172
684,2,T1_SMS_8,18,9999,9999,9999,371792952
684,2,T1_SMS_8,19,9999,9999,9999,372592712
684,2,T1_SMS_8,20,9999,9999,9999,373392440
684,2,T1_SMS_8,21,9999,9999,9999,374192176
684,2,T1_SMS_8,22,9999,9999,9999,374992956
684,2,T1_SMS_8,23,9999,9999,9999,375792688
684,2,T1_SMS_8,24,9999,9999,9999,376592500
684,2,T1_SMS_8,25,9999,9999,9999,377392228
684,2,T1_SMS_8,26,9999,9999,9999,378193008
684,2,T1_SMS_8,27,9999,9999,9999,378992740
684,2,T1_SMS_8,28,9999,9999,9999,379792476
684,2,T1_SMS_8,29,9999,9999,9999,380592216
684,2,T1_SMS_8,30,9999,9999,9999,381392992
684,2,T1_SMS_8,31,9999,9999,9999,382192728
684,2,T1_SMS_8,32,9999,9999,9999,382992456
684,2,T1_SMS_8,33,9999,9999,9999,383792188
684,2,T1_SMS_8,34,9999,9999,9999,384592968
684,2,T1_SMS_8,35,9999,9999,9999,385392700
684,2,T1_SMS_8,36,9999,9999,9999,386192432
684,2,T1_SMS_8,37,9999,9999,9999,386992244
684,2,T1_SMS_8,38,9999,9999,9999,387792952
684,2,T1_SMS_8,39,9999,9999,9999,388592688
684,2,T1_SMS_8,40,9999,9999,9999,389392492
684,2,T1_SMS_8,41,9999,9999,9999,390192228
684,2,T1_SMS_8,42,9999,9999,9999,390993008
684,2,T1_SMS_8,43,9999,9999,9999,391792740
684,2,T1_SMS_8,44,9999,9999,9999,392592464
684,2,T1_SMS_8,45,9999,9999,9999,393392200
684,2,T1_SMS_8,46,9999,9999,9999,394192988
684,2,T1_SMS_8,47,9999,9999,9999,394992716
684,2,T1_SMS_8,48,9999,9999,9999,395792452
684,2,T1_SMS_8,49,9999,9999,9999,396592188
684,2,T1_SMS_8,50,9999,9999,9999,397392968
684,2,T1_SMS_8,51,9999,9999,9999,398192700
684,2,T1_SMS_8,52,9999,9999,9999,398992436
684,2,T1_SMS_8,53,9999,9999,9999,399792244
684,2,T1_SMS_8,54,9999,9999,9999,400592952
684,2,T1_SMS_8,55,9999,9999,9999,401392756
684,2,T1_SMS_8,56,9999,9999,9999,402192492
684,2,T1_SMS_8,57,9999,9999,9999,402992220
684,2,T1_SMS_8,58,9999,9999,9999,403792996
684,2,T1_SMS_8,59,9999,9999,9999,404592688
684,2,T1_SMS_8,60,9999,9999,9999,405392496
684,2,T1_SMS_8,61,9999,9999,9999,406192228
684,2,T1_SMS_8,62,9999,9999,9999,406993008
684,2,T1_SMS_8,63,9999,9999,9999,407792740
684,2,T1_SMS_8,64,9999,9999,9999,408592476
684,2,T1_SMS_8,65,9999,9999,9999,409392200
684,2,T1_SMS_8,66,9999,9999,9999,410192984
684,2,T1_SMS_8,67,9999,9999,9999,410992740
684,2,T1_SMS_8,68,9999,9999,9999,411792480
684,2,T1_SMS_8,69,9999,9999,9999,412592216
684,2,T1_SMS_8,70,9999,9999,9999,413392996
684,2,T1_SMS_8,71,9999,9999,9999,414192728
684,2,T1_SMS_8,72,9999,9999,9999,414992456
684,2,T1_SMS_8,73,9999,9999,9999,415792188
684,2,T1_SMS_8,74,9999,9999,9999,416592968
684,2,T1_SMS_8,75,9999,9999,9999,417392724
684,2,T1_SMS_8,76,9999,9999,9999,418192464
684,2,T1_SMS_8,77,9999,9999,9999,418992200
684,2,T1_SMS_8,78,9999,9999,9999,419792980
684,2,T1_SMS_8,79,9999,9999,9999,420592712
684,2,T1_SMS_8,80,9999,9999,9999,421392444
684,2,T1_SMS_8,81,9999,9999,9999,422192248
684,2,T1_SMS_8,82,9999,9999,9999,422992952
684,2,T1_SMS_8,83,9999,9999,9999,423792716
684,2,T1_SMS_8,84,9999,9999,9999,424592468
684,2,T1_SMS_8,85,9999,9999,9999,425392200
684,2,T1_SMS_8,86,9999,9999,9999,426192980
684,2,T1_SMS_8,87,9999,9999,9999,426992720
684,2,T1_SMS_8,88,9999,9999,9999,427792448
684,2,T1_SMS_8,89,9999,9999,9999,428592180
684,2,T1_SMS_8,90,9999,9999,9999,429392964
684,2,T1_SMS_8,91,9999,9999,9999,430192724
684,2,T1_SMS_8,92,9999,9999,9999,430992460
684,2,T1_SMS_8,93,9999,9999,9999,431792184
684,2,T1_SMS_8,94,9999,9999,9999,432592968
684,2,T1_SMS_8,95,9999,9999,9999,433392704
684,2,T1_SMS_8,96,9999,9999,9999,434192440
684,2,T1_SMS_8,97,9999,9999,9999,434992248
684,2,T1_SMS_8,98,9999,9999,9999,435792976
684,2,T1_SMS_8,99,9999,9999,9999,436592708
684,2,T1_SMS_8,100,9999,9999,9999,437392444
684,2,T1_SMS_8,101,9999,9999,9999,438192176
684,2,T1_SMS_8,102,9999,9999,9999,438992960
684,2,T1_SMS_8,103,9999,9999,9999,439792692
684,2,T1_SMS_8,104,9999,9999,9999,440592492
684,2,T1_SMS_8,105,9999,9999,9999,441392232
684,2,T1_SMS_8,106,9999,9999,9999,442192964
684,2,T1_SMS_8,107,9999,9999,9999,442992692
684,2,T1_SMS_8,108,9999,9999,9999,443792500
684,2,T1_SMS_8,109,9999,9999,9999,444592236
684,2,T1_SMS_8,110,9999,9999,9999,445392944
684,2,T1_SMS_8,111,9999,9999,9999,446192756
684,2,T1_SMS_8,112,9999,9999,9999,446992488
684,2,T1_SMS_8,113,9999,9999,9999,447792220
684,2,T1_SMS_8,114,9999,9999,9999,448592976
684,2,T1_SMS_8,115,9999,9999,9999,449392728
684,2,T1_SMS_8,116,9999,9999,9999,450192456
684,2,T1_SMS_8,117,9999,9999,9999,450992196
684,2,T1_SMS_8,118,9999,9999,9999,451792980
684,2,T1_SMS_8,119,9999,9999,9999,452592712
685,23,Ticks_Phase_5,0,5,42,127,464594228
685,23,Ticks_Phase_5,1,5,42,127,465094088
685,23,Ticks_Phase_5,2,1,48,25,465246484
685,23,Ticks_Phase_5,3,5,42,127,465593924
685,23,Ticks_Phase_5,4,1,48,27,465649460
685,23,Ticks_Phase_5,5,1,48,29,466059920
685,23,Ticks_Phase_5,6,5,42,127,466093356
685,23,Ticks_Phase_5,7,1,48,24,466547856
685,23,Ticks_Phase_5,8,5,42,127,466594240
685,23,Ticks_Phase_5,9,1,48,21,467054664
685,23,Ticks_Phase_5,10,5,42,127,467093928
685,23,Ticks_Phase_5,11,1,48,14,467584156
685,23,Ticks_Phase_5,12,5,42,127,467593768
685,23,Ticks_Phase_5,13,1,48,27,468076200
685,23,Ticks_Phase_5,14,5,42,127,468094352
685,23,Ticks_Phase_5,15,1,48,24,468568996
685,23,Ticks_Phase_5,16,5,42,127,468593968
685,23,Ticks_Phase_5,17,5,42,127,469093888
685,23,Ticks_Phase_5,18,1,48,23,469096636
685,23,Ticks_Phase_5,19,5,42,127,469593724
685,23,Ticks_Phase_5,20,1,48,24,469629196
685,23,Ticks_Phase_5,21,5,42,127,470094136
685,23,Ticks_Phase_5,22,1,48,21,470118548
685,23,Ticks_Phase_5,23,1,48,29,470589140
685,23,Ticks_Phase_5,24,5,42,127,470593968
685,23,Ticks_Phase_5,25,5,42,127,471093664
685,23,Ticks_Phase_5,26,1,48,15,471121736
685,23,Ticks_Phase_5,27,5,42,127,471594248
685,23,Ticks_Phase_5,28,1,48,24,471600956
685,23,Ticks_Phase_5,29,1,48,32,472092732
685,23,Ticks_Phase_5,30,5,42,127,472094376
685,23,Ticks_Phase_5,31,5,42,127,472593628
685,23,Ticks_Phase_5,32,1,48,19,472607676
685,23,Ticks_Phase_5,33,5,42,127,473093612
685,23,Ticks_Phase_5,34,1,48,18,473123544
685,23,Ticks_Phase_5,35,1,48,19,473582712
685,23,Ticks_Phase_5,36,5,42,127,473594192
685,23,Ticks_Phase_5,37,1,48,30,474065468
685,23,Ticks_Phase_5,38,5,42,127,474093880
685,23,Ticks_Phase_5,39,1,48,30,474566428
685,23,Ticks_Phase_5,40,5,42,127,474593716
685,23,Ticks_Phase_5,41,1,48,27,475090896
685,23,Ticks_Phase_5,42,5,42,127,475094528
685,23,Ticks_Phase_5,43,5,42,127,475594072
685,23,Ticks_Phase_5,44,1,48,32,475595788
685,23,Ticks_Phase_5,45,1,48,29,476072684
685,23,Ticks_Phase_5,46,5,42,127,476093680
685,23,Ticks_Phase_5,47,1,48,18,476588016
685,23,Ticks_Phase_5,48,5,42,127,476593740
685,23,Ticks_Phase_5,49,1,48,34,477074456
685,23,Ticks_Phase_5,50,5,42,127,477094400
685,23,Ticks_Phase_5,51,1,48,32,477582756
685,23,Ticks_Phase_5,52,5,42,127,477593940
685,23,Ticks_Phase_5,53,5,42,127,478093636
685,23,Ticks_Phase_5,54,1,48,31,478103124
685,23,Ticks_Phase_5,55,1,48,29,478587296
685,23,Ticks_Phase_5,56,5,42,127,478594588
685,23,Ticks_Phase_5,57,5,42,127,479104392
685,23,Ticks_Phase_5,58,1,48,33,479112684
685,23,Ticks_Phase_5,59,5,42,127,479593820
685,23,Ticks_Phase_5,60,1,48,28,479629064
685,23,Ticks_Phase_5,61,5,42,127,480093512
685,23,Ticks_Phase_5,62,1,48,36,480118872
685,23,Ticks_Phase_5,63,5,42,127,480594544
685,23,Ticks_Phase_5,64,1,48,35,480604408
685,23,Ticks_Phase_5,65,5,42,127,481093908
685,23,Ticks_Phase_5,66,1,48,32,481133524
685,23,Ticks_Phase_5,67,5,42,127,481593820
685,23,Ticks_Phase_5,68,1,48,36,481629464
685,23,Ticks_Phase_5,69,5,42,127,482093432
685,23,Ticks_Phase_5,70,1,48,21,482133128
685,23,Ticks_Phase_5,71,5,42,127,482594092
685,23,Ticks_Phase_5,72,1,48,34,482624552
685,23,Ticks_Phase_5,73,1,48,33,483089996
685,23,Ticks_Phase_5,74,5,42,127,483093996
685,23,Ticks_Phase_5,75,1,48,34,483586912
685,23,Ticks_Phase_5,76,5,42,127,483593536
685,23,Ticks_Phase_5,77,1,48,24,484081968
685,23,Ticks_Phase_5,78,5,42,127,484094644
685,23,Ticks_Phase_5,79,1,48,21,484565920
685,23,Ticks_Phase_5,80,5,42,127,484593888
685,23,Ticks_Phase_5,81,5,42,127,485093880
685,23,Ticks_Phase_5,82,1,48,26,485096476
685,23,Ticks_Phase_5,83,5,42,127,485593416
685,23,Ticks_Phase_5,84,1,48,21,485643192
685,23,Ticks_Phase_5,85,5,42,127,486094372
685,23,Ticks_Phase_5,86,1,48,29,486130892
685,23,Ticks_Phase_5,87,5,42,127,486594060
685,23,Ticks_Phase_5,88,1,48,24,486595028
685,23,Ticks_Phase_5,89,1,48,31,487051412
685,23,Ticks_Phase_5,90,5,42,127,487093520
685,23,Ticks_Phase_5,91,5,42,127,487594560
685,23,Ticks_Phase_5,92,1,48,29,487602928
685,23,Ticks_Phase_5,93,5,42,127,488094024
685,23,Ticks_Phase_5,94,1,48,34,488117064
685,23,Ticks_Phase_5,95,5,42,127,488603972
685,23,Ticks_Phase_5,96,1,48,36,488620344
685,23,Ticks_Phase_5,97,5,42,127,489103660
685,23,Ticks_Phase_5,98,1,48,20,489122888
685,23,Ticks_Phase_5,99,5,42,127,489603352
685,23,Ticks_Phase_5,100,1,48,28,489629528
685,23,Ticks_Phase_5,101,5,42,127,490104456
685,23,Ticks_Phase_5,102,1,48,30,490126296
685,23,Ticks_Phase_5,103,5,42,127,490603924
685,23,Ticks_Phase_5,104,1,48,24,490619924
685,23,Ticks_Phase_5,105,5,42,127,491103536
685,23,Ticks_Phase_5,106,1,48,32,491129044
685,23,Ticks_Phase_5,107,5,42,127,491604496
685,23,Ticks_Phase_5,108,1,48,30,491620496
685,23,Ticks_Phase_5,109,1,48,29,492079032
685,23,Ticks_Phase_5,110,5,42,127,492104304
685,23,Ticks_Phase_5,111,5,42,127,492603776
685,23,Ticks_Phase_5,112,1,48,29,492648404
685,23,Ticks_Phase_5,113,5,42,127,493103612
685,23,Ticks_Phase_5,114,1,48,31,493123588
685,23,Ticks_Phase_5,115,1,48,34,493599292
685,23,Ticks_Phase_5,116,5,42,127,493604492
685,23,Ticks_Phase_5,117,5,42,127,494104260
685,23,Ticks_Phase_5,118,1,48,34,494106048
685,23,Ticks_Phase_5,119,5,42,127,494603652
685,23,Ticks_Phase_5,120,1,48,34,494615908
685,23,Ticks_Phase_5,121,1,48,35,495075216
685,23,Ticks_Phase_5,122,5,42,127,495104456
685,23,Ticks_Phase_5,123,5,42,127,495604296
685,23,Ticks_Phase_5,124,1,48,36,495656544
685,23,Ticks_Phase_5,125,5,42,127,496103688
685,23,Ticks_Phase_5,126,1,48,27,496158252
685,23,Ticks_Phase_5,127,5,42,127,496623968
685,23,Ticks_Phase_5,128,1,48,34,496679060
685,23,Ticks_Phase_5,129,5,42,127,497123656
685,23,Ticks_Phase_5,130,1,48,25,497197620
685,23,Ticks_Phase_5,131,5,42,127,497624540
685,23,Ticks_Phase_5,132,1,48,32,497719844
685,23,Ticks_Phase_5,133,5,42,127,498134340
685,23,Ticks_Phase_5,134,1,48,29,498193176
685,23,Ticks_Phase_5,135,5,42,127,498634024
685,23,Ticks_Phase_5,136,1,48,28,498705968
685,23,Ticks_Phase_5,137,5,42,127,499133936
685,23,Ticks_Phase_5,138,1,48,30,499213220
685,23,Ticks_Phase_5,139,5,42,127,499633400
685,23,Ticks_Phase_5,140,1,48,28,499695760
685,23,Ticks_Phase_5,141,5,42,127,500134212
685,23,Ticks_Phase_5,142,1,48,29,500175376
685,23,Ticks_Phase_5,143,1,48,32,500611016
685,23,Ticks_Phase_5,144,5,42,127,500634044
685,23,Ticks_Phase_5,145,1,48,27,501113336
685,23,Ticks_Phase_5,146,5,42,127,501133808
685,23,Ticks_Phase_5,147,5,42,127,501634328
685,23,Ticks_Phase_5,148,1,48,29,501650772
685,23,Ticks_Phase_5,149,1,48,30,502143140
685,23,Ticks_Phase_5,150,5,42,127,502144636
685,23,Ticks_Phase_5,151,1,48,19,502627748
685,23,Ticks_Phase_5,152,5,42,127,502643956
685,23,Ticks_Phase_5,153,1,48,24,503131932
685,23,Ticks_Phase_5,154,5,42,127,503143864
685,23,Ticks_Phase_5,155,1,48,35,503618408
685,23,Ticks_Phase_5,156,5,42,127,503643552
685,23,Ticks_Phase_5,157,1,48,40,504125284
685,23,Ticks_Phase_5,158,5,42,127,504144360
685,23,Ticks_Phase_5,159,1,48,31,504624452
685,23,Ticks_Phase_5,160,5,42,127,504644024
685,23,Ticks_Phase_5,161,5,42,127,505124176
685,23,Ticks_Phase_5,162,1,48,32,505169256
685,23,Ticks_Phase_5,163,5,42,127,505624160
685,23,Ticks_Phase_5,164,1,48,32,505651924
685,23,Ticks_Phase_5,165,1,48,32,506117152
685,23,Ticks_Phase_5,166,5,42,127,506123544
685,23,Ticks_Phase_5,167,1,48,32,506591756
685,23,Ticks_Phase_5,168,5,42,127,506624504
685,23,Ticks_Phase_5,169,1,48,28,507122004
685,23,Ticks_Phase_5,170,5,42,127,507123968
685,23,Ticks_Phase_5,171,1,48,35,507618908
685,23,Ticks_Phase_5,172,5,42,127,507624104
685,23,Ticks_Phase_5,173,1,48,32,508114856
685,23,Ticks_Phase_5,174,5,42,127,508123424
685,23,Ticks_Phase_5,175,5,42,127,508624092
685,23,Ticks_Phase_5,176,1,48,33,508628632
685,23,Ticks_Phase_5,177,1,48,30,509110032
685,23,Ticks_Phase_5,178,5,42,127,509124068
685,23,Ticks_Phase_5,179,5,42,127,509623840
685,23,Ticks_Phase_5,180,1,48,27,509643892
685,23,Ticks_Phase_5,181,5,42,127,510124280
685,23,Ticks_Phase_5,182,1,48,36,510125320
685,23,Ticks_Phase_5,183,1,48,22,510611732
685,23,Ticks_Phase_5,184,5,42,127,510624184
685,23,Ticks_Phase_5,185,5,42,127,511124176
685,23,Ticks_Phase_5,186,1,48,30,511159872
685,23,Ticks_Phase_5,187,5,42,127,511623644
685,23,Ticks_Phase_5,188,1,48,21,511660312
685,23,Ticks_Phase_5,189,5,42,127,512124232
685,23,Ticks_Phase_5,190,1,48,30,512129964
685,23,Ticks_Phase_5,191,5,42,127,512624068
685,23,Ticks_Phase_5,192,1,48,33,512626816
685,23,Ticks_Phase_5,193,5,42,127,513073708
685,23,Ticks_Phase_5,194,1,48,25,513112356
685,23,Ticks_Phase_5,195,5,42,127,513574292
685,23,Ticks_Phase_5,196,1,48,21,513587448
685,23,Ticks_Phase_5,197,5,42,127,514073904
685,23,Ticks_Phase_5,198,1,48,34,514077248
685,23,Ticks_Phase_5,199,1,48,28,514526528
685,23,Ticks_Phase_5,200,5,42,127,514573960
685,23,Ticks_Phase_5,201,1,48,27,515058488
685,23,Ticks_Phase_5,202,5,42,127,515074472
685,23,Ticks_Phase_5,203,5,42,127,515584500
685,23,Ticks_Phase_5,204,5,42,127,516084208
685,23,Ticks_Phase_5,205,1,48,20,516093028
685,23,Ticks_Phase_5,206,5,42,127,516583896
685,23,Ticks_Phase_5,207,1,48,19,516618168
685,23,Ticks_Phase_5,208,5,42,127,517083736
685,23,Ticks_Phase_5,209,1,48,16,517111784
685,23,Ticks_Phase_5,210,5,42,127,517584248
685,23,Ticks_Phase_5,211,5,42,127,518083960
685,23,Ticks_Phase_5,212,5,42,127,518583892
685,23,Ticks_Phase_5,213,1,48,28,518825928
685,23,Ticks_Phase_5,214,5,42,127,519084408
685,23,Ticks_Phase_5,215,1,48,38,519307644
685,23,Ticks_Phase_5,216,5,42,127,519584168
685,23,Ticks_Phase_5,217,5,42,127,520083952
685,23,Ticks_Phase_5,218,1,48,29,520381396
685,23,Ticks_Phase_5,219,5,42,127,520583716
685,23,Ticks_Phase_5,220,1,48,27,520889248
685,23,Ticks_Phase_5,221,5,42,127,521084228
685,23,Ticks_Phase_5,222,1,48,21,521437548
685,23,Ticks_Phase_5,223,5,42,127,521634016
685,23,Ticks_Phase_5,224,5,42,127,522133876
685,23,Ticks_Phase_5,225,5,42,127,522633512
685,23,Ticks_Phase_5,226,1,48,26,522657900
685,23,Ticks_Phase_5,227,5,42,127,523134248
685,23,Ticks_Phase_5,228,1,48,25,523157516
685,23,Ticks_Phase_5,229,5,42,127,523634084
685,23,Ticks_Phase_5,230,1,48,31,523686932
685,23,Ticks_Phase_5,231,5,42,127,524133776
685,23,Ticks_Phase_5,232,1,48,29,524181368
685,23,Ticks_Phase_5,233,5,42,127,524633536
685,23,Ticks_Phase_5,234,1,48,30,524654032
685,23,Ticks_Phase_5,235,1,48,30,525119452
685,23,Ticks_Phase_5,236,5,42,127,525134340
685,23,Ticks_Phase_5,237,1,48,32,525624840
685,23,Ticks_Phase_5,238,5,42,127,525633852
685,23,Ticks_Phase_5,239,5,42,127,526133548
685,23,Ticks_Phase_5,240,1,48,28,526144080
685,23,Ticks_Phase_5,241,1,48,26,526615676
685,23,Ticks_Phase_5,242,5,42,127,526634572
685,23,Ticks_Phase_5,243,1,48,33,527107572
685,23,Ticks_Phase_5,244,5,42,127,527134040
685,23,Ticks_Phase_5,245,5,42,127,527633732
685,23,Ticks_Phase_5,246,1,48,24,527655796
685,23,Ticks_Phase_5,247,1,48,28,528132440
685,23,Ticks_Phase_5,248,5,42,127,528134012
685,23,Ticks_Phase_5,249,1,48,27,528634084
685,23,Ticks_Phase_5,250,5,42,127,528635644
685,23,Ticks_Phase_5,251,1,48,28,529130284
685,23,Ticks_Phase_5,252,5,42,127,529133988
685,23,Ticks_Phase_5,253,1,48,29,529625032
685,23,Ticks_Phase_5,254,5,42,127,529633604
685,23,Ticks_Phase_5,255,1,48,22,530149880
685,23,Ticks_Phase_5,256,5,42,127,530233788
685,23,Ticks_Phase_5,257,1,48,26,530706036
685,23,Ticks_Phase_5,258,5,42,127,530733776
685,23,Ticks_Phase_5,259,1,48,27,531231404
685,23,Ticks_Phase_5,260,5,42,127,531234064
685,23,Ticks_Phase_5,261,5,42,127,531733908
685,23,Ticks_Phase_5,262,1,48,28,531740916
685,23,Ticks_Phase_5,263,5,42,127,532233520
685,23,Ticks_Phase_5,264,1,48,20,532245176
685,23,Ticks_Phase_5,265,5,42,127,532734404
685,23,Ticks_Phase_5,266,1,48,24,532760436
685,23,Ticks_Phase_5,267,5,42,127,533234016
685,23,Ticks_Phase_5,268,1,48,23,533288208
685,23,Ticks_Phase_5,269,5,42,127,533733708
685,23,Ticks_Phase_5,270,1,48,20,533769624
685,23,Ticks_Phase_5,271,5,42,127,534233616
685,23,Ticks_Phase_5,272,1,48,22,534285936
685,23,Ticks_Phase_5,273,5,42,127,534734276
685,23,Ticks_Phase_5,274,1,48,28,534745412
685,23,Ticks_Phase_5,275,5,42,127,535233892
685,23,Ticks_Phase_5,276,1,48,32,535252444
685,23,Ticks_Phase_5,277,5,42,127,535733580
685,23,Ticks_Phase_5,278,1,48,29,535753176
685,23,Ticks_Phase_5,279,5,42,127,536234240
685,23,Ticks_Phase_5,280,1,48,26,536282448
685,23,Ticks_Phase_5,281,5,42,127,536734152
685,23,Ticks_Phase_5,282,5,42,127,537233860
685,23,Ticks_Phase_5,283,1,48,28,537255032
685,23,Ticks_Phase_5,284,5,42,127,537733476
685,23,Ticks_Phase_5,285,1,48,26,537778308
685,23,Ticks_Phase_5,286,5,42,127,538234360
685,23,Ticks_Phase_5,287,1,48,23,538295744
685,23,Ticks_Phase_5,288,5,42,127,538734048
685,23,Ticks_Phase_5,289,1,48,20,538817748
685,23,Ticks_Phase_5,290,5,42,127,539233512
685,23,Ticks_Phase_5,291,5,42,127,539633972
685,23,Ticks_Phase_5,292,5,42,127,540133756
685,23,Ticks_Phase_5,293,1,48,28,540321956
685,23,Ticks_Phase_5,294,5,42,127,540633592
685,23,Ticks_Phase_5,295,1,48,22,540816992
685,23,Ticks_Phase_5,296,5,42,127,541134400
685,23,Ticks_Phase_5,297,1,48,23,541265604
685,23,Ticks_Phase_5,298,5,42,127,541634016
685,23,Ticks_Phase_5,299,1,48,23,541714048
685,23,Ticks_Phase_5,300,5,42,127,542133480
685,23,Ticks_Phase_5,301,1,48,30,542190664
685,23,Ticks_Phase_5,302,5,42,127,542634292
685,23,Ticks_Phase_5,303,1,48,24,542709524
685,23,Ticks_Phase_5,304,5,42,127,543134352
685,23,Ticks_Phase_5,305,1,48,17,543216180
685,23,Ticks_Phase_5,306,5,42,127,543633964
685,23,Ticks_Phase_5,307,1,48,29,543683148
685,23,Ticks_Phase_5,308,5,42,127,544133432
685,23,Ticks_Phase_5,309,1,48,31,544166728
685,23,Ticks_Phase_5,310,5,42,127,544634392
685,23,Ticks_Phase_5,311,1,48,25,544657584
685,23,Ticks_Phase_5,312,1,48,33,545131964
685,23,Ticks_Phase_5,313,5,42,127,545133848
685,23,Ticks_Phase_5,314,5,42,127,545633544
685,23,Ticks_Phase_5,315,1,48,33,545647676
685,23,Ticks_Phase_5,316,5,42,127,546134352
685,23,Ticks_Phase_5,317,1,48,24,546589664
685,23,Ticks_Phase_5,318,5,42,127,546634180
685,23,Ticks_Phase_5,319,1,48,32,547126124
685,23,Ticks_Phase_5,320,5,42,127,547133868
685,23,Ticks_Phase_5,321,1,48,34,547624688
685,23,Ticks_Phase_5,322,5,42,127,547633480
685,23,Ticks_Phase_5,323,1,48,31,548129020
685,23,Ticks_Phase_5,324,5,42,127,548134292
685,23,Ticks_Phase_5,325,1,48,34,548621368
685,23,Ticks_Phase_5,326,5,42,127,548633908
685,23,Ticks_Phase_5,327,5,42,127,549133676
685,23,Ticks_Phase_5,0,9999,9999,9999,464591940
685,23,Ticks_Phase_5,1,9999,9999,9999,465091652
685,23,Ticks_Phase_5,2,9999,9999,9999,465591416
685,23,Ticks_Phase_5,3,9999,9999,9999,466091068
685,23,Ticks_Phase_5,4,9999,9999,9999,466591804
685,23,Ticks_Phase_5,5,9999,9999,9999,467091568
685,23,Ticks_Phase_5,6,9999,9999,9999,467591256
685,23,Ticks_Phase_5,7,9999,9999,9999,468091992
685,23,Ticks_Phase_5,8,9999,9999,9999,468591680
685,23,Ticks_Phase_5,9,9999,9999,9999,469091452
685,23,Ticks_Phase_5,10,9999,9999,9999,469591140
685,23,Ticks_Phase_5,11,9999,9999,9999,470091848
685,23,Ticks_Phase_5,12,9999,9999,9999,470591608
685,23,Ticks_Phase_5,13,9999,9999,9999,471091300
685,23,Ticks_Phase_5,14,9999,9999,9999,471592036
685,23,Ticks_Phase_5,15,9999,9999,9999,472091724
685,23,Ticks_Phase_5,16,9999,9999,9999,472591412
685,23,Ticks_Phase_5,17,9999,9999,9999,473091176
685,23,Ticks_Phase_5,18,9999,9999,9999,473591904
685,23,Ticks_Phase_5,19,9999,9999,9999,474091592
685,23,Ticks_Phase_5,20,9999,9999,9999,474591356
685,23,Ticks_Phase_5,21,9999,9999,9999,475092092
685,23,Ticks_Phase_5,22,9999,9999,9999,475591784
685,23,Ticks_Phase_5,23,9999,9999,9999,476091468
685,23,Ticks_Phase_5,24,9999,9999,9999,476591228
685,23,Ticks_Phase_5,25,9999,9999,9999,477091964
685,23,Ticks_Phase_5,26,9999,9999,9999,477591652
685,23,Ticks_Phase_5,27,9999,9999,9999,478091348
685,23,Ticks_Phase_5,28,9999,9999,9999,478592076
685,23,Ticks_Phase_5,29,9999,9999,9999,479102032
685,23,Ticks_Phase_5,30,9999,9999,9999,479591532
685,23,Ticks_Phase_5,31,9999,9999,9999,480091224
685,23,Ticks_Phase_5,32,9999,9999,9999,480591960
685,23,Ticks_Phase_5,33,9999,9999,9999,481091696
685,23,Ticks_Phase_5,34,9999,9999,9999,481591384
685,23,Ticks_Phase_5,35,9999,9999,9999,482091072
685,23,Ticks_Phase_5,36,9999,9999,9999,482591808
685,23,Ticks_Phase_5,37,9999,9999,9999,483091564
685,23,Ticks_Phase_5,38,9999,9999,9999,483591248
685,23,Ticks_Phase_5,39,9999,9999,9999,484091988
685,23,Ticks_Phase_5,40,9999,9999,9999,484591672
685,23,Ticks_Phase_5,41,9999,9999,9999,485091444
685,23,Ticks_Phase_5,42,9999,9999,9999,485591132
685,23,Ticks_Phase_5,43,9999,9999,9999,486091864
685,23,Ticks_Phase_5,44,9999,9999,9999,486591552
685,23,Ticks_Phase_5,45,9999,9999,9999,487091308
685,23,Ticks_Phase_5,46,9999,9999,9999,487592048
685,23,Ticks_Phase_5,47,9999,9999,9999,488091736
685,23,Ticks_Phase_5,48,9999,9999,9999,488601684
685,23,Ticks_Phase_5,49,9999,9999,9999,489101372
685,23,Ticks_Phase_5,50,9999,9999,9999,489601136
685,23,Ticks_Phase_5,51,9999,9999,9999,490101872
685,23,Ticks_Phase_5,52,9999,9999,9999,490601560
685,23,Ticks_Phase_5,53,9999,9999,9999,491101252
685,23,Ticks_Phase_5,54,9999,9999,9999,491601984
685,23,Ticks_Phase_5,55,9999,9999,9999,492101720
685,23,Ticks_Phase_5,56,9999,9999,9999,492601416
685,23,Ticks_Phase_5,57,9999,9999,9999,493101176
685,23,Ticks_Phase_5,58,9999,9999,9999,493601908
685,23,Ticks_Phase_5,59,9999,9999,9999,494101600
685,23,Ticks_Phase_5,60,9999,9999,9999,494601288
685,23,Ticks_Phase_5,61,9999,9999,9999,495102020
685,23,Ticks_Phase_5,62,9999,9999,9999,495601788
685,23,Ticks_Phase_5,63,9999,9999,9999,496101476
685,23,Ticks_Phase_5,64,9999,9999,9999,496621680
685,23,Ticks_Phase_5,65,9999,9999,9999,497121372
685,23,Ticks_Phase_5,66,9999,9999,9999,497622104
685,23,Ticks_Phase_5,67,9999,9999,9999,498132052
685,23,Ticks_Phase_5,68,9999,9999,9999,498631740
685,23,Ticks_Phase_5,69,9999,9999,9999,499131504
685,23,Ticks_Phase_5,70,9999,9999,9999,499631188
685,23,Ticks_Phase_5,71,9999,9999,9999,500131924
685,23,Ticks_Phase_5,72,9999,9999,9999,500631608
685,23,Ticks_Phase_5,73,9999,9999,9999,501131372
685,23,Ticks_Phase_5,74,9999,9999,9999,501632112
685,23,Ticks_Phase_5,75,9999,9999,9999,502142060
685,23,Ticks_Phase_5,76,9999,9999,9999,502641744
685,23,Ticks_Phase_5,77,9999,9999,9999,503141432
685,23,Ticks_Phase_5,78,9999,9999,9999,503641192
685,23,Ticks_Phase_5,79,9999,9999,9999,504141924
685,23,Ticks_Phase_5,80,9999,9999,9999,504641588
685,23,Ticks_Phase_5,81,9999,9999,9999,505121888
685,23,Ticks_Phase_5,82,9999,9999,9999,505621576
685,23,Ticks_Phase_5,83,9999,9999,9999,506121332
685,23,Ticks_Phase_5,84,9999,9999,9999,506622068
685,23,Ticks_Phase_5,85,9999,9999,9999,507121720
685,23,Ticks_Phase_5,86,9999,9999,9999,507621444
685,23,Ticks_Phase_5,87,9999,9999,9999,508121212
685,23,Ticks_Phase_5,88,9999,9999,9999,508621880
685,23,Ticks_Phase_5,89,9999,9999,9999,509121636
685,23,Ticks_Phase_5,90,9999,9999,9999,509621332
685,23,Ticks_Phase_5,91,9999,9999,9999,510122064
685,23,Ticks_Phase_5,92,9999,9999,9999,510621820
685,23,Ticks_Phase_5,93,9999,9999,9999,511121516
685,23,Ticks_Phase_5,94,9999,9999,9999,511621208
685,23,Ticks_Phase_5,95,9999,9999,9999,512121944
685,23,Ticks_Phase_5,96,9999,9999,9999,512621632
685,23,Ticks_Phase_5,97,9999,9999,9999,513071196
685,23,Ticks_Phase_5,98,9999,9999,9999,513571932
685,23,Ticks_Phase_5,99,9999,9999,9999,514071620
685,23,Ticks_Phase_5,100,9999,9999,9999,514571376
685,23,Ticks_Phase_5,101,9999,9999,9999,515072112
685,23,Ticks_Phase_5,102,9999,9999,9999,515582064
685,23,Ticks_Phase_5,103,9999,9999,9999,516081776
685,23,Ticks_Phase_5,104,9999,9999,9999,516581460
685,23,Ticks_Phase_5,105,9999,9999,9999,517081152
685,23,Ticks_Phase_5,106,9999,9999,9999,517581888
685,23,Ticks_Phase_5,107,9999,9999,9999,518081596
685,23,Ticks_Phase_5,108,9999,9999,9999,518581308
685,23,Ticks_Phase_5,109,9999,9999,9999,519082044
685,23,Ticks_Phase_5,110,9999,9999,9999,519581808
685,23,Ticks_Phase_5,111,9999,9999,9999,520081516
685,23,Ticks_Phase_5,112,9999,9999,9999,520581204
685,23,Ticks_Phase_5,113,9999,9999,9999,521081940
685,23,Ticks_Phase_5,114,9999,9999,9999,521631804
685,23,Ticks_Phase_5,115,9999,9999,9999,522131516
685,23,Ticks_Phase_5,116,9999,9999,9999,522631228
685,23,Ticks_Phase_5,117,9999,9999,9999,523131960
685,23,Ticks_Phase_5,118,9999,9999,9999,523631724
685,23,Ticks_Phase_5,119,9999,9999,9999,524131412
685,23,Ticks_Phase_5,120,9999,9999,9999,524631100
685,23,Ticks_Phase_5,121,9999,9999,9999,525131904
685,23,Ticks_Phase_5,122,9999,9999,9999,525631568
685,23,Ticks_Phase_5,123,9999,9999,9999,526131260
685,23,Ticks_Phase_5,124,9999,9999,9999,526632064
685,23,Ticks_Phase_5,125,9999,9999,9999,527131752
685,23,Ticks_Phase_5,126,9999,9999,9999,527631444
685,23,Ticks_Phase_5,127,9999,9999,9999,528131136
685,23,Ticks_Phase_5,128,9999,9999,9999,528631872
685,23,Ticks_Phase_5,129,9999,9999,9999,529131628
685,23,Ticks_Phase_5,130,9999,9999,9999,529631316
685,23,Ticks_Phase_5,131,9999,9999,9999,530231352
685,23,Ticks_Phase_5,132,9999,9999,9999,530731116
685,23,Ticks_Phase_5,133,9999,9999,9999,531231852
685,23,Ticks_Phase_5,134,9999,9999,9999,531731548
685,23,Ticks_Phase_5,135,9999,9999,9999,532231236
685,23,Ticks_Phase_5,136,9999,9999,9999,532731968
685,23,Ticks_Phase_5,137,9999,9999,9999,533231732
685,23,Ticks_Phase_5,138,9999,9999,9999,533731420
685,23,Ticks_Phase_5,139,9999,9999,9999,534231108
685,23,Ticks_Phase_5,140,9999,9999,9999,534731840
685,23,Ticks_Phase_5,141,9999,9999,9999,535231604
685,23,Ticks_Phase_5,142,9999,9999,9999,535731292
685,23,Ticks_Phase_5,143,9999,9999,9999,536232028
685,23,Ticks_Phase_5,144,9999,9999,9999,536731716
685,23,Ticks_Phase_5,145,9999,9999,9999,537231424
685,23,Ticks_Phase_5,146,9999,9999,9999,537731188
685,23,Ticks_Phase_5,147,9999,9999,9999,538231924
685,23,Ticks_Phase_5,148,9999,9999,9999,538731612
685,23,Ticks_Phase_5,149,9999,9999,9999,539231300
685,23,Ticks_Phase_5,150,9999,9999,9999,539631684
685,23,Ticks_Phase_5,151,9999,9999,9999,540131396
685,23,Ticks_Phase_5,152,9999,9999,9999,540631160
685,23,Ticks_Phase_5,153,9999,9999,9999,541131892
685,23,Ticks_Phase_5,154,9999,9999,9999,541631580
685,23,Ticks_Phase_5,155,9999,9999,9999,542131268
685,23,Ticks_Phase_5,156,9999,9999,9999,542632004
685,23,Ticks_Phase_5,157,9999,9999,9999,543131768
685,23,Ticks_Phase_5,158,9999,9999,9999,543631456
685,23,Ticks_Phase_5,159,9999,9999,9999,544131148
685,23,Ticks_Phase_5,160,9999,9999,9999,544631880
685,23,Ticks_Phase_5,161,9999,9999,9999,545131592
685,23,Ticks_Phase_5,162,9999,9999,9999,545631332
685,23,Ticks_Phase_5,163,9999,9999,9999,546132068
685,23,Ticks_Phase_5,164,9999,9999,9999,546631744
685,23,Ticks_Phase_5,165,9999,9999,9999,547131508
685,23,Ticks_Phase_5,166,9999,9999,9999,547631196
685,23,Ticks_Phase_5,167,9999,9999,9999,548131928
685,23,Ticks_Phase_5,168,9999,9999,9999,548631620
685,23,Ticks_Phase_5,169,9999,9999,9999,549131388
686,22,Ticks_Phase_8,0,5,42,127,562043288
686,22,Ticks_Phase_8,1,5,42,127,562842948
686,22,Ticks_Phase_8,2,1,48,16,563254676
686,22,Ticks_Phase_8,3,5,42,127,563642956
686,22,Ticks_Phase_8,4,1,48,21,563953292
686,22,Ticks_Phase_8,5,5,42,127,564442596
686,22,Ticks_Phase_8,6,1,48,18,564709040
686,22,Ticks_Phase_8,7,5,42,127,565243280
686,22,Ticks_Phase_8,8,1,48,23,565408780
686,22,Ticks_Phase_8,9,5,42,127,566042916
686,22,Ticks_Phase_8,10,1,48,27,566151284
686,22,Ticks_Phase_8,11,5,42,127,566842852
686,22,Ticks_Phase_8,12,1,48,23,566908748
686,22,Ticks_Phase_8,13,5,42,127,567642664
686,22,Ticks_Phase_8,14,1,48,29,568270916
686,22,Ticks_Phase_8,15,5,42,127,568443348
686,22,Ticks_Phase_8,16,1,48,21,569051836
686,22,Ticks_Phase_8,17,5,42,127,569242912
686,22,Ticks_Phase_8,18,1,48,28,569886892
686,22,Ticks_Phase_8,19,5,42,127,570042920
686,22,Ticks_Phase_8,20,1,48,23,570705648
686,22,Ticks_Phase_8,21,5,42,127,570842632
686,22,Ticks_Phase_8,22,1,48,27,571583320
686,22,Ticks_Phase_8,23,5,42,127,571643184
686,22,Ticks_Phase_8,24,1,48,25,572424816
686,22,Ticks_Phase_8,25,5,42,127,572442968
686,22,Ticks_Phase_8,26,5,42,127,573242612
686,22,Ticks_Phase_8,27,1,48,24,573271524
686,22,Ticks_Phase_8,28,5,42,127,574042796
686,22,Ticks_Phase_8,29,1,48,23,574068452
686,22,Ticks_Phase_8,30,5,42,127,574843256
686,22,Ticks_Phase_8,31,1,48,17,574870724
686,22,Ticks_Phase_8,32,5,42,127,575642896
686,22,Ticks_Phase_8,33,1,48,26,575660920
686,22,Ticks_Phase_8,34,5,42,127,576442608
686,22,Ticks_Phase_8,35,1,48,29,576480016
686,22,Ticks_Phase_8,36,5,42,127,577242616
686,22,Ticks_Phase_8,37,1,48,25,577336044
686,22,Ticks_Phase_8,38,5,42,127,578043372
686,22,Ticks_Phase_8,39,1,48,20,578147392
686,22,Ticks_Phase_8,40,5,42,127,578842860
686,22,Ticks_Phase_8,41,1,48,17,578951824
686,22,Ticks_Phase_8,42,5,42,127,579642872
686,22,Ticks_Phase_8,43,1,48,25,579666456
686,22,Ticks_Phase_8,44,1,48,27,580403080
686,22,Ticks_Phase_8,45,5,42,127,580442524
686,22,Ticks_Phase_8,46,1,48,25,581212104
686,22,Ticks_Phase_8,47,5,42,127,581243436
686,22,Ticks_Phase_8,48,1,48,29,581989344
686,22,Ticks_Phase_8,49,5,42,127,582042924
686,22,Ticks_Phase_8,50,1,48,27,582795800
686,22,Ticks_Phase_8,51,5,42,127,582842712
686,22,Ticks_Phase_8,52,1,48,20,583606968
686,22,Ticks_Phase_8,53,5,42,127,583642348
686,22,Ticks_Phase_8,54,1,48,17,584416936
686,22,Ticks_Phase_8,55,5,42,127,584443476
686,22,Ticks_Phase_8,56,1,48,27,585232080
686,22,Ticks_Phase_8,57,5,42,127,585242892
686,22,Ticks_Phase_8,58,1,48,29,585981324
686,22,Ticks_Phase_8,59,5,42,127,586023656
686,22,Ticks_Phase_8,60,5,42,127,586823296
686,22,Ticks_Phase_8,61,1,48,24,586844712
686,22,Ticks_Phase_8,62,5,42,127,587622804
686,22,Ticks_Phase_8,63,1,48,19,587646068
686,22,Ticks_Phase_8,64,5,42,127,588422444
686,22,Ticks_Phase_8,65,1,48,23,588466376
686,22,Ticks_Phase_8,66,1,48,25,589221080
686,22,Ticks_Phase_8,67,5,42,127,589223420
686,22,Ticks_Phase_8,68,1,48,21,590004308
686,22,Ticks_Phase_8,69,5,42,127,590023280
686,22,Ticks_Phase_8,70,1,48,27,590767620
686,22,Ticks_Phase_8,71,5,42,127,590822620
686,22,Ticks_Phase_8,72,1,48,26,591588452
686,22,Ticks_Phase_8,73,5,42,127,591622480
686,22,Ticks_Phase_8,74,5,42,127,592423172
686,22,Ticks_Phase_8,75,1,48,21,592461072
686,22,Ticks_Phase_8,76,5,42,127,593223256
686,22,Ticks_Phase_8,77,1,48,27,593238976
686,22,Ticks_Phase_8,78,1,48,25,594019732
686,22,Ticks_Phase_8,79,5,42,127,594022836
686,22,Ticks_Phase_8,80,1,48,24,594805820
686,22,Ticks_Phase_8,81,5,42,127,594822476
686,22,Ticks_Phase_8,82,1,48,24,595622944
686,22,Ticks_Phase_8,83,5,42,127,595624428
686,22,Ticks_Phase_8,84,1,48,27,596383600
686,22,Ticks_Phase_8,85,5,42,127,596423168
686,22,Ticks_Phase_8,86,1,48,23,597215660
686,22,Ticks_Phase_8,87,5,42,127,597222656
686,22,Ticks_Phase_8,88,1,48,27,598019264
686,22,Ticks_Phase_8,89,5,42,127,598022444
686,22,Ticks_Phase_8,90,5,42,127,598823208
686,22,Ticks_Phase_8,91,1,48,16,598892480
686,22,Ticks_Phase_8,92,1,48,20,599620332
686,22,Ticks_Phase_8,93,5,42,127,599622992
686,22,Ticks_Phase_8,94,1,48,22,600321804
686,22,Ticks_Phase_8,95,5,42,127,600443380
686,22,Ticks_Phase_8,96,5,42,127,601242964
686,22,Ticks_Phase_8,97,1,48,31,601635372
686,22,Ticks_Phase_8,98,5,42,127,602042676
686,22,Ticks_Phase_8,99,1,48,13,602379440
686,22,Ticks_Phase_8,100,5,42,127,602842536
686,22,Ticks_Phase_8,101,5,42,127,603643244
686,22,Ticks_Phase_8,102,5,42,127,604442976
686,22,Ticks_Phase_8,103,1,48,19,605045568
686,22,Ticks_Phase_8,104,5,42,127,605242984
686,22,Ticks_Phase_8,105,1,48,29,605740868
686,22,Ticks_Phase_8,106,5,42,127,606042348
686,22,Ticks_Phase_8,107,1,48,26,606477068
686,22,Ticks_Phase_8,108,5,42,127,606843180
686,22,Ticks_Phase_8,109,1,48,25,607256256
686,22,Ticks_Phase_8,110,5,42,127,607642968
686,22,Ticks_Phase_8,111,1,48,27,608024220
686,22,Ticks_Phase_8,112,5,42,127,608442828
686,22,Ticks_Phase_8,113,1,48,23,608845444
686,22,Ticks_Phase_8,114,5,42,127,609242760
686,22,Ticks_Phase_8,115,5,42,127,610043244
686,22,Ticks_Phase_8,116,1,48,26,610345416
686,22,Ticks_Phase_8,117,5,42,127,610843032
686,22,Ticks_Phase_8,118,1,48,28,611046948
686,22,Ticks_Phase_8,119,5,42,127,611642668
686,22,Ticks_Phase_8,120,1,48,27,611842396
686,22,Ticks_Phase_8,121,5,42,127,612442480
686,22,Ticks_Phase_8,122,1,48,27,612684892
686,22,Ticks_Phase_8,123,5,42,127,613283152
686,22,Ticks_Phase_8,124,1,48,27,613538440
686,22,Ticks_Phase_8,125,5,42,127,614083016
686,22,Ticks_Phase_8,126,1,48,29,614301768
686,22,Ticks_Phase_8,127,5,42,127,614882876
686,22,Ticks_Phase_8,128,1,48,17,615173592
686,22,Ticks_Phase_8,129,5,42,127,615682364
686,22,Ticks_Phase_8,130,5,42,127,616483072
686,22,Ticks_Phase_8,131,1,48,35,616662428
686,22,Ticks_Phase_8,132,5,42,127,617283008
686,22,Ticks_Phase_8,133,1,48,31,617450148
686,22,Ticks_Phase_8,134,5,42,127,618082744
686,22,Ticks_Phase_8,135,1,48,29,618245596
686,22,Ticks_Phase_8,136,5,42,127,618882676
686,22,Ticks_Phase_8,137,1,48,36,619653844
686,22,Ticks_Phase_8,138,5,42,127,619683228
686,22,Ticks_Phase_8,139,1,48,30,620445016
686,22,Ticks_Phase_8,140,5,42,127,620482864
686,22,Ticks_Phase_8,141,1,48,30,621244128
686,22,Ticks_Phase_8,142,5,42,127,621282652
686,22,Ticks_Phase_8,143,1,48,29,622047288
686,22,Ticks_Phase_8,144,5,42,127,622082736
686,22,Ticks_Phase_8,145,1,48,22,622875004
686,22,Ticks_Phase_8,146,5,42,127,622883120
686,22,Ticks_Phase_8,147,1,48,20,623624320
686,22,Ticks_Phase_8,148,5,42,127,623682908
686,22,Ticks_Phase_8,149,1,48,19,624454580
686,22,Ticks_Phase_8,150,5,42,127,624482544
686,22,Ticks_Phase_8,151,5,42,127,625282412
686,22,Ticks_Phase_8,152,1,48,25,625287848
686,22,Ticks_Phase_8,153,1,48,25,626053556
686,22,Ticks_Phase_8,154,5,42,127,626083164
686,22,Ticks_Phase_8,155,1,48,24,626818812
686,22,Ticks_Phase_8,156,5,42,127,626842960
686,22,Ticks_Phase_8,157,5,42,127,627642680
686,22,Ticks_Phase_8,158,1,48,19,627668560
686,22,Ticks_Phase_8,159,1,48,22,628442688
686,22,Ticks_Phase_8,160,5,42,127,628443880
686,22,Ticks_Phase_8,161,1,48,28,629208364
686,22,Ticks_Phase_8,162,5,42,127,629243440
686,22,Ticks_Phase_8,163,1,48,24,630033840
686,22,Ticks_Phase_8,164,5,42,127,630042856
686,22,Ticks_Phase_8,165,5,42,127,630842724
686,22,Ticks_Phase_8,166,1,48,29,630846820
686,22,Ticks_Phase_8,167,5,42,127,631642464
686,22,Ticks_Phase_8,168,1,48,28,631671720
686,22,Ticks_Phase_8,169,5,42,127,632443296
686,22,Ticks_Phase_8,170,1,48,16,632478688
686,22,Ticks_Phase_8,171,5,42,127,633242860
686,22,Ticks_Phase_8,172,1,48,18,633257656
686,22,Ticks_Phase_8,173,1,48,18,633990864
686,22,Ticks_Phase_8,174,5,42,127,634042712
686,22,Ticks_Phase_8,175,5,42,127,634842432
686,22,Ticks_Phase_8,176,1,48,28,635576676
686,22,Ticks_Phase_8,177,5,42,127,635643208
686,22,Ticks_Phase_8,178,1,48,27,636404468
686,22,Ticks_Phase_8,179,5,42,127,636443288
686,22,Ticks_Phase_8,180,5,42,127,637242636
686,22,Ticks_Phase_8,181,5,42,127,638042472
686,22,Ticks_Phase_8,182,1,48,29,638064688
686,22,Ticks_Phase_8,183,5,42,127,638843228
686,22,Ticks_Phase_8,184,5,42,127,639563356
686,22,Ticks_Phase_8,185,1,48,33,639572252
686,22,Ticks_Phase_8,186,5,42,127,640362772
686,22,Ticks_Phase_8,187,1,48,20,641132668
686,22,Ticks_Phase_8,188,5,42,127,641162572
686,22,Ticks_Phase_8,189,1,48,18,641912680
686,22,Ticks_Phase_8,190,5,42,127,641963480
686,22,Ticks_Phase_8,191,1,48,22,642631516
686,22,Ticks_Phase_8,192,5,42,127,642763252
686,22,Ticks_Phase_8,193,1,48,28,643443356
686,22,Ticks_Phase_8,194,5,42,127,643563040
686,22,Ticks_Phase_8,195,1,48,21,644257292
686,22,Ticks_Phase_8,196,5,42,127,644362676
686,22,Ticks_Phase_8,197,1,48,22,645091464
686,22,Ticks_Phase_8,198,5,42,127,645163448
686,22,Ticks_Phase_8,199,1,48,21,645905140
686,22,Ticks_Phase_8,200,5,42,127,645963084
686,22,Ticks_Phase_8,201,5,42,127,646763176
686,22,Ticks_Phase_8,202,1,48,18,646777908
686,22,Ticks_Phase_8,203,5,42,127,647562740
686,22,Ticks_Phase_8,204,1,48,23,647610652
686,22,Ticks_Phase_8,205,5,42,127,648363276
686,22,Ticks_Phase_8,206,1,48,27,648414096
686,22,Ticks_Phase_8,207,5,42,127,649163064
686,22,Ticks_Phase_8,208,5,42,127,649963092
686,22,Ticks_Phase_8,209,1,48,21,650554952
686,22,Ticks_Phase_8,210,5,42,127,650762880
686,22,Ticks_Phase_8,211,1,48,27,651359552
686,22,Ticks_Phase_8,212,5,42,127,651563340
686,22,Ticks_Phase_8,213,1,48,25,652101384
686,22,Ticks_Phase_8,214,5,42,127,652363152
686,22,Ticks_Phase_8,215,1,48,18,652993804
686,22,Ticks_Phase_8,216,5,42,127,653242844
686,22,Ticks_Phase_8,217,1,48,15,653883832
686,22,Ticks_Phase_8,218,5,42,127,654042408
686,22,Ticks_Phase_8,219,5,42,127,654843188
686,22,Ticks_Phase_8,220,5,42,127,655642996
686,22,Ticks_Phase_8,221,1,48,25,655661620
686,22,Ticks_Phase_8,222,5,42,127,656442780
686,22,Ticks_Phase_8,223,1,48,27,656467860
686,22,Ticks_Phase_8,224,5,42,127,657242592
686,22,Ticks_Phase_8,225,1,48,20,657246760
686,22,Ticks_Phase_8,226,1,48,29,657993440
686,22,Ticks_Phase_8,227,5,42,127,658043196
686,22,Ticks_Phase_8,228,5,42,127,658843060
686,22,Ticks_Phase_8,229,1,48,25,658864236
686,22,Ticks_Phase_8,230,5,42,127,659642776
686,22,Ticks_Phase_8,231,1,48,26,659646644
686,22,Ticks_Phase_8,232,5,42,127,660442412
686,22,Ticks_Phase_8,233,1,48,24,660474064
686,22,Ticks_Phase_8,234,5,42,127,661243244
686,22,Ticks_Phase_8,235,1,48,22,661314284
686,22,Ticks_Phase_8,236,5,42,127,662042880
686,22,Ticks_Phase_8,237,1,48,21,662088860
686,22,Ticks_Phase_8,238,1,48,24,662828768
686,22,Ticks_Phase_8,239,5,42,127,662842884
686,22,Ticks_Phase_8,240,5,42,127,663642476
686,22,Ticks_Phase_8,241,1,48,22,663675772
686,22,Ticks_Phase_8,242,5,42,127,664443384
686,22,Ticks_Phase_8,243,1,48,27,664464928
686,22,Ticks_Phase_8,244,1,48,19,665223816
686,22,Ticks_Phase_8,245,5,42,127,665243016
686,22,Ticks_Phase_8,246,1,48,25,666032372
686,22,Ticks_Phase_8,247,5,42,127,666042728
686,22,Ticks_Phase_8,248,1,48,33,666842416
686,22,Ticks_Phase_8,249,5,42,127,667003164
686,22,Ticks_Phase_8,250,1,48,32,667725720
686,22,Ticks_Phase_8,251,5,42,127,667802964
686,22,Ticks_Phase_8,252,1,48,29,668601928
686,22,Ticks_Phase_8,253,5,42,127,668603500
686,22,Ticks_Phase_8,254,5,42,127,669402616
686,22,Ticks_Phase_8,255,1,48,28,669421092
686,22,Ticks_Phase_8,256,5,42,127,670203524
686,22,Ticks_Phase_8,257,1,48,30,670264984
686,22,Ticks_Phase_8,258,5,42,127,671003016
686,22,Ticks_Phase_8,259,1,48,21,671089732
686,22,Ticks_Phase_8,260,5,42,127,671802724
686,22,Ticks_Phase_8,261,1,48,19,671920220
686,22,Ticks_Phase_8,262,5,42,127,672602612
686,22,Ticks_Phase_8,263,1,48,23,672718656
686,22,Ticks_Phase_8,264,5,42,127,673403368
686,22,Ticks_Phase_8,265,1,48,26,673532604
686,22,Ticks_Phase_8,266,5,42,127,674202932
686,22,Ticks_Phase_8,267,1,48,27,674273528
686,22,Ticks_Phase_8,268,5,42,127,675002792
686,22,Ticks_Phase_8,269,1,48,24,675083868
686,22,Ticks_Phase_8,270,5,42,127,675802652
686,22,Ticks_Phase_8,271,1,48,29,675848900
686,22,Ticks_Phase_8,272,5,42,127,676603408
686,22,Ticks_Phase_8,273,1,48,29,676619780
686,22,Ticks_Phase_8,274,1,48,21,677290000
686,22,Ticks_Phase_8,275,5,42,127,677402952
686,22,Ticks_Phase_8,276,1,48,21,678117048
686,22,Ticks_Phase_8,277,5,42,127,678202604
686,22,Ticks_Phase_8,278,1,48,21,678953904
686,22,Ticks_Phase_8,279,5,42,127,679002416
686,22,Ticks_Phase_8,280,1,48,27,679774084
686,22,Ticks_Phase_8,281,5,42,127,679803248
686,22,Ticks_Phase_8,282,5,42,127,680602968
686,22,Ticks_Phase_8,283,1,48,28,680626152
686,22,Ticks_Phase_8,284,5,42,127,681402604
686,22,Ticks_Phase_8,285,1,48,16,681479336
686,22,Ticks_Phase_8,286,5,42,127,682042856
686,22,Ticks_Phase_8,287,1,48,23,682234716
686,22,Ticks_Phase_8,288,5,42,127,682842444
686,22,Ticks_Phase_8,289,1,48,24,683526788
686,22,Ticks_Phase_8,290,5,42,127,683643424
686,22,Ticks_Phase_8,291,1,48,29,684254756
686,22,Ticks_Phase_8,292,5,42,127,684443208
686,22,Ticks_Phase_8,293,1,48,30,685048620
686,22,Ticks_Phase_8,294,5,42,127,685242700
686,22,Ticks_Phase_8,295,1,48,19,685850352
686,22,Ticks_Phase_8,296,5,42,127,686042336
686,22,Ticks_Phase_8,297,1,48,31,686773288
686,22,Ticks_Phase_8,298,5,42,127,686843408
686,22,Ticks_Phase_8,299,1,48,19,687611788
686,22,Ticks_Phase_8,300,5,42,127,687642968
686,22,Ticks_Phase_8,301,1,48,27,688413296
686,22,Ticks_Phase_8,302,5,42,127,688442680
686,22,Ticks_Phase_8,303,5,42,127,689242424
686,22,Ticks_Phase_8,304,1,48,28,689293244
686,22,Ticks_Phase_8,305,1,48,29,690028240
686,22,Ticks_Phase_8,306,5,42,127,690043328
686,22,Ticks_Phase_8,307,5,42,127,690843192
686,22,Ticks_Phase_8,308,1,48,25,690873356
686,22,Ticks_Phase_8,309,1,48,29,691638600
686,22,Ticks_Phase_8,310,5,42,127,691642900
686,22,Ticks_Phase_8,311,5,42,127,692442544
686,22,Ticks_Phase_8,312,1,48,21,693043840
686,22,Ticks_Phase_8,313,5,42,127,693243228
686,22,Ticks_Phase_8,314,1,48,28,693894724
686,22,Ticks_Phase_8,315,5,42,127,694043164
686,22,Ticks_Phase_8,316,1,48,24,694760868
686,22,Ticks_Phase_8,317,5,42,127,694842740
686,22,Ticks_Phase_8,318,1,48,29,695640364
686,22,Ticks_Phase_8,319,5,42,127,695642480
686,22,Ticks_Phase_8,320,5,42,127,696443244
686,22,Ticks_Phase_8,321,1,48,33,696473472
686,22,Ticks_Phase_8,322,5,42,127,697243180
686,22,Ticks_Phase_8,0,9999,9999,9999,562040928
686,22,Ticks_Phase_8,1,9999,9999,9999,562840660
686,22,Ticks_Phase_8,2,9999,9999,9999,563640444
686,22,Ticks_Phase_8,3,9999,9999,9999,564440160
686,22,Ticks_Phase_8,4,9999,9999,9999,565240920
686,22,Ticks_Phase_8,5,9999,9999,9999,566040632
686,22,Ticks_Phase_8,6,9999,9999,9999,566840416
686,22,Ticks_Phase_8,7,9999,9999,9999,567640152
686,22,Ticks_Phase_8,8,9999,9999,9999,568440912
686,22,Ticks_Phase_8,9,9999,9999,9999,569240700
686,22,Ticks_Phase_8,10,9999,9999,9999,570040412
686,22,Ticks_Phase_8,11,9999,9999,9999,570840124
686,22,Ticks_Phase_8,12,9999,9999,9999,571640896
686,22,Ticks_Phase_8,13,9999,9999,9999,572440680
686,22,Ticks_Phase_8,14,9999,9999,9999,573240400
686,22,Ticks_Phase_8,15,9999,9999,9999,574040136
686,22,Ticks_Phase_8,16,9999,9999,9999,574840896
686,22,Ticks_Phase_8,17,9999,9999,9999,575640684
686,22,Ticks_Phase_8,18,9999,9999,9999,576440392
686,22,Ticks_Phase_8,19,9999,9999,9999,577240180
686,22,Ticks_Phase_8,20,9999,9999,9999,578040936
686,22,Ticks_Phase_8,21,9999,9999,9999,578840648
686,22,Ticks_Phase_8,22,9999,9999,9999,579640436
686,22,Ticks_Phase_8,23,9999,9999,9999,580440164
686,22,Ticks_Phase_8,24,9999,9999,9999,581240924
686,22,Ticks_Phase_8,25,9999,9999,9999,582040636
686,22,Ticks_Phase_8,26,9999,9999,9999,582840424
686,22,Ticks_Phase_8,27,9999,9999,9999,583640136
686,22,Ticks_Phase_8,28,9999,9999,9999,584440892
686,22,Ticks_Phase_8,29,9999,9999,9999,585240680
686,22,Ticks_Phase_8,30,9999,9999,9999,586020920
686,22,Ticks_Phase_8,31,9999,9999,9999,586820716
686,22,Ticks_Phase_8,32,9999,9999,9999,587620444
686,22,Ticks_Phase_8,33,9999,9999,9999,588420156
686,22,Ticks_Phase_8,34,9999,9999,9999,589220952
686,22,Ticks_Phase_8,35,9999,9999,9999,590020696
686,22,Ticks_Phase_8,36,9999,9999,9999,590820408
686,22,Ticks_Phase_8,37,9999,9999,9999,591620196
686,22,Ticks_Phase_8,38,9999,9999,9999,592420960
686,22,Ticks_Phase_8,39,9999,9999,9999,593220672
686,22,Ticks_Phase_8,40,9999,9999,9999,594020476
686,22,Ticks_Phase_8,41,9999,9999,9999,594820188
686,22,Ticks_Phase_8,42,9999,9999,9999,595620952
686,22,Ticks_Phase_8,43,9999,9999,9999,596420732
686,22,Ticks_Phase_8,44,9999,9999,9999,597220448
686,22,Ticks_Phase_8,45,9999,9999,9999,598020156
686,22,Ticks_Phase_8,46,9999,9999,9999,598820920
686,22,Ticks_Phase_8,47,9999,9999,9999,599620704
686,22,Ticks_Phase_8,48,9999,9999,9999,600440944
686,22,Ticks_Phase_8,49,9999,9999,9999,601240680
686,22,Ticks_Phase_8,50,9999,9999,9999,602040392
686,22,Ticks_Phase_8,51,9999,9999,9999,602840176
686,22,Ticks_Phase_8,52,9999,9999,9999,603640956
686,22,Ticks_Phase_8,53,9999,9999,9999,604440688
686,22,Ticks_Phase_8,54,9999,9999,9999,605240400
686,22,Ticks_Phase_8,55,9999,9999,9999,606040136
686,22,Ticks_Phase_8,56,9999,9999,9999,606840896
686,22,Ticks_Phase_8,57,9999,9999,9999,607640680
686,22,Ticks_Phase_8,58,9999,9999,9999,608440392
686,22,Ticks_Phase_8,59,9999,9999,9999,609240176
686,22,Ticks_Phase_8,60,9999,9999,9999,610040956
686,22,Ticks_Phase_8,61,9999,9999,9999,610840668
686,22,Ticks_Phase_8,62,9999,9999,9999,611640380
686,22,Ticks_Phase_8,63,9999,9999,9999,612440192
686,22,Ticks_Phase_8,64,9999,9999,9999,613280864
686,22,Ticks_Phase_8,65,9999,9999,9999,614080580
686,22,Ticks_Phase_8,66,9999,9999,9999,614880364
686,22,Ticks_Phase_8,67,9999,9999,9999,615680076
686,22,Ticks_Phase_8,68,9999,9999,9999,616480860
686,22,Ticks_Phase_8,69,9999,9999,9999,617280572
686,22,Ticks_Phase_8,70,9999,9999,9999,618080380
686,22,Ticks_Phase_8,71,9999,9999,9999,618880092
686,22,Ticks_Phase_8,72,9999,9999,9999,619680868
686,22,Ticks_Phase_8,73,9999,9999,9999,620480580
686,22,Ticks_Phase_8,74,9999,9999,9999,621280364
686,22,Ticks_Phase_8,75,9999,9999,9999,622080076
686,22,Ticks_Phase_8,76,9999,9999,9999,622880836
686,22,Ticks_Phase_8,77,9999,9999,9999,623680620
686,22,Ticks_Phase_8,78,9999,9999,9999,624480336
686,22,Ticks_Phase_8,79,9999,9999,9999,625280124
686,22,Ticks_Phase_8,80,9999,9999,9999,626080876
686,22,Ticks_Phase_8,81,9999,9999,9999,626840672
686,22,Ticks_Phase_8,82,9999,9999,9999,627640392
686,22,Ticks_Phase_8,83,9999,9999,9999,628440180
686,22,Ticks_Phase_8,84,9999,9999,9999,629240932
686,22,Ticks_Phase_8,85,9999,9999,9999,630040644
686,22,Ticks_Phase_8,86,9999,9999,9999,630840440
686,22,Ticks_Phase_8,87,9999,9999,9999,631640176
686,22,Ticks_Phase_8,88,9999,9999,9999,632440936
686,22,Ticks_Phase_8,89,9999,9999,9999,633240648
686,22,Ticks_Phase_8,90,9999,9999,9999,634040428
686,22,Ticks_Phase_8,91,9999,9999,9999,634840144
686,22,Ticks_Phase_8,92,9999,9999,9999,635640920
686,22,Ticks_Phase_8,93,9999,9999,9999,636440632
686,22,Ticks_Phase_8,94,9999,9999,9999,637240424
686,22,Ticks_Phase_8,95,9999,9999,9999,638040184
686,22,Ticks_Phase_8,96,9999,9999,9999,638840940
686,22,Ticks_Phase_8,97,9999,9999,9999,639560772
686,22,Ticks_Phase_8,98,9999,9999,9999,640360560
686,22,Ticks_Phase_8,99,9999,9999,9999,641160288
686,22,Ticks_Phase_8,100,9999,9999,9999,641961044
686,22,Ticks_Phase_8,101,9999,9999,9999,642760816
686,22,Ticks_Phase_8,102,9999,9999,9999,643560528
686,22,Ticks_Phase_8,103,9999,9999,9999,644360316
686,22,Ticks_Phase_8,104,9999,9999,9999,645161016
686,22,Ticks_Phase_8,105,9999,9999,9999,645960800
686,22,Ticks_Phase_8,106,9999,9999,9999,646760516
686,22,Ticks_Phase_8,107,9999,9999,9999,647560304
686,22,Ticks_Phase_8,108,9999,9999,9999,648361064
686,22,Ticks_Phase_8,109,9999,9999,9999,649160776
686,22,Ticks_Phase_8,110,9999,9999,9999,649960508
686,22,Ticks_Phase_8,111,9999,9999,9999,650760296
686,22,Ticks_Phase_8,112,9999,9999,9999,651561052
686,22,Ticks_Phase_8,113,9999,9999,9999,652360788
686,22,Ticks_Phase_8,114,9999,9999,9999,653240408
686,22,Ticks_Phase_8,115,9999,9999,9999,654040120
686,22,Ticks_Phase_8,116,9999,9999,9999,654840900
686,22,Ticks_Phase_8,117,9999,9999,9999,655640636
686,22,Ticks_Phase_8,118,9999,9999,9999,656440420
686,22,Ticks_Phase_8,119,9999,9999,9999,657240156
686,22,Ticks_Phase_8,120,9999,9999,9999,658040908
686,22,Ticks_Phase_8,121,9999,9999,9999,658840700
686,22,Ticks_Phase_8,122,9999,9999,9999,659640416
686,22,Ticks_Phase_8,123,9999,9999,9999,660440124
686,22,Ticks_Phase_8,124,9999,9999,9999,661240956
686,22,Ticks_Phase_8,125,9999,9999,9999,662040668
686,22,Ticks_Phase_8,126,9999,9999,9999,662840372
686,22,Ticks_Phase_8,127,9999,9999,9999,663640192
686,22,Ticks_Phase_8,128,9999,9999,9999,664440948
686,22,Ticks_Phase_8,129,9999,9999,9999,665240656
686,22,Ticks_Phase_8,130,9999,9999,9999,666040444
686,22,Ticks_Phase_8,131,9999,9999,9999,667000948
686,22,Ticks_Phase_8,132,9999,9999,9999,667800676
686,22,Ticks_Phase_8,133,9999,9999,9999,668600396
686,22,Ticks_Phase_8,134,9999,9999,9999,669400180
686,22,Ticks_Phase_8,135,9999,9999,9999,670200940
686,22,Ticks_Phase_8,136,9999,9999,9999,671000652
686,22,Ticks_Phase_8,137,9999,9999,9999,671800440
686,22,Ticks_Phase_8,138,9999,9999,9999,672600176
686,22,Ticks_Phase_8,139,9999,9999,9999,673400932
686,22,Ticks_Phase_8,140,9999,9999,9999,674200644
686,22,Ticks_Phase_8,141,9999,9999,9999,675000432
686,22,Ticks_Phase_8,142,9999,9999,9999,675800140
686,22,Ticks_Phase_8,143,9999,9999,9999,676600900
686,22,Ticks_Phase_8,144,9999,9999,9999,677400664
686,22,Ticks_Phase_8,145,9999,9999,9999,678200392
686,22,Ticks_Phase_8,146,9999,9999,9999,679000128
686,22,Ticks_Phase_8,147,9999,9999,9999,679800888
686,22,Ticks_Phase_8,148,9999,9999,9999,680600680
686,22,Ticks_Phase_8,149,9999,9999,9999,681400392
686,22,Ticks_Phase_8,150,9999,9999,9999,682040420
686,22,Ticks_Phase_8,151,9999,9999,9999,682840156
686,22,Ticks_Phase_8,152,9999,9999,9999,683640916
686,22,Ticks_Phase_8,153,9999,9999,9999,684440700
686,22,Ticks_Phase_8,154,9999,9999,9999,685240412
686,22,Ticks_Phase_8,155,9999,9999,9999,686040124
686,22,Ticks_Phase_8,156,9999,9999,9999,686840896
686,22,Ticks_Phase_8,157,9999,9999,9999,687640684
686,22,Ticks_Phase_8,158,9999,9999,9999,688440396
686,22,Ticks_Phase_8,159,9999,9999,9999,689240140
686,22,Ticks_Phase_8,160,9999,9999,9999,690040892
686,22,Ticks_Phase_8,161,9999,9999,9999,690840684
686,22,Ticks_Phase_8,162,9999,9999,9999,691640392
686,22,Ticks_Phase_8,163,9999,9999,9999,692440180
686,22,Ticks_Phase_8,164,9999,9999,9999,693240940
686,22,Ticks_Phase_8,165,9999,9999,9999,694040652
686,22,Ticks_Phase_8,166,9999,9999,9999,694840380
686,22,Ticks_Phase_8,167,9999,9999,9999,695640156
686,22,Ticks_Phase_8,168,9999,9999,9999,696440956
686,22,Ticks_Phase_8,169,9999,9999,9999,697240668
687,21,Ticks_Linear_5,0,5,42,127,709171788
687,21,Ticks_Linear_5,1,5,42,127,709651816
687,21,Ticks_Linear_5,2,5,42,127,710131988
687,21,Ticks_Linear_5,3,1,48,18,710143644
687,21,Ticks_Linear_5,4,1,48,19,710606768
687,21,Ticks_Linear_5,5,5,42,127,710612284
687,21,Ticks_Linear_5,6,1,48,28,711067684
687,21,Ticks_Linear_5,7,5,42,127,711091692
687,21,Ticks_Linear_5,8,1,48,28,711544468
687,21,Ticks_Linear_5,9,5,42,127,711582028
687,21,Ticks_Linear_5,10,1,48,27,712022676
687,21,Ticks_Linear_5,11,5,42,127,712071544
687,21,Ticks_Linear_5,12,1,48,29,712518620
687,21,Ticks_Linear_5,13,5,42,127,712561956
687,21,Ticks_Linear_5,14,1,48,21,713020632
687,21,Ticks_Linear_5,15,5,42,127,713051696
687,21,Ticks_Linear_5,16,1,48,23,713500560
687,21,Ticks_Linear_5,17,5,42,127,713541888
687,21,Ticks_Linear_5,18,1,48,26,713979132
687,21,Ticks_Linear_5,19,5,42,127,714041708
687,21,Ticks_Linear_5,20,1,48,17,714492392
687,21,Ticks_Linear_5,21,5,42,127,714541708
687,21,Ticks_Linear_5,22,1,48,23,714992316
687,21,Ticks_Linear_5,23,5,42,127,715042156
687,21,Ticks_Linear_5,24,5,42,127,715541860
687,21,Ticks_Linear_5,25,1,48,22,715938860
687,21,Ticks_Linear_5,26,5,42,127,716041488
687,21,Ticks_Linear_5,27,1,48,18,716481628
687,21,Ticks_Linear_5,28,5,42,127,716551684
687,21,Ticks_Linear_5,29,1,48,28,716987540
687,21,Ticks_Linear_5,30,5,42,127,717061644
687,21,Ticks_Linear_5,31,1,48,25,717474284
687,21,Ticks_Linear_5,32,5,42,127,717571440
687,21,Ticks_Linear_5,33,1,48,24,718006332
687,21,Ticks_Linear_5,34,5,42,127,718082756
687,21,Ticks_Linear_5,35,1,48,22,718524376
687,21,Ticks_Linear_5,36,5,42,127,718601484
687,21,Ticks_Linear_5,37,1,48,21,719062800
687,21,Ticks_Linear_5,38,5,42,127,719121776
687,21,Ticks_Linear_5,39,1,48,29,719629456
687,21,Ticks_Linear_5,40,5,42,127,719641920
687,21,Ticks_Linear_5,41,1,48,28,720143676
687,21,Ticks_Linear_5,42,5,42,127,720162360
687,21,Ticks_Linear_5,43,5,42,127,720682436
687,21,Ticks_Linear_5,44,1,48,27,720687652
687,21,Ticks_Linear_5,45,1,48,26,721198784
687,21,Ticks_Linear_5,46,5,42,127,721201528
687,21,Ticks_Linear_5,47,1,48,28,721704852
687,21,Ticks_Linear_5,48,5,42,127,721731880
687,21,Ticks_Linear_5,49,1,48,20,722205152
687,21,Ticks_Linear_5,50,5,42,127,722262508
687,21,Ticks_Linear_5,51,1,48,22,722707996
687,21,Ticks_Linear_5,52,5,42,127,722791716
687,21,Ticks_Linear_5,53,1,48,23,723236448
687,21,Ticks_Linear_5,54,5,42,127,723322264
687,21,Ticks_Linear_5,55,1,48,21,723786716
687,21,Ticks_Linear_5,56,5,42,127,723851620
687,21,Ticks_Linear_5,57,5,42,127,724392512
687,21,Ticks_Linear_5,58,1,48,16,724746508
687,21,Ticks_Linear_5,59,5,42,127,724931904
687,21,Ticks_Linear_5,60,1,48,19,725281480
687,21,Ticks_Linear_5,61,5,42,127,725471592
687,21,Ticks_Linear_5,62,1,48,24,725807756
687,21,Ticks_Linear_5,63,5,42,127,726012328
687,21,Ticks_Linear_5,64,1,48,28,726278772
687,21,Ticks_Linear_5,65,5,42,127,726551796
687,21,Ticks_Linear_5,66,1,48,32,726814272
687,21,Ticks_Linear_5,67,5,42,127,727101668
687,21,Ticks_Linear_5,68,1,48,27,727327372
687,21,Ticks_Linear_5,69,5,42,127,727651644
687,21,Ticks_Linear_5,70,1,48,28,727796748
687,21,Ticks_Linear_5,71,5,42,127,728201516
687,21,Ticks_Linear_5,72,1,48,19,728310980
687,21,Ticks_Linear_5,73,5,42,127,728751464
687,21,Ticks_Linear_5,74,1,48,36,728814720
687,21,Ticks_Linear_5,75,1,48,34,729291480
687,21,Ticks_Linear_5,76,5,42,127,729302380
687,21,Ticks_Linear_5,77,1,48,29,729836032
687,21,Ticks_Linear_5,78,5,42,127,729861468
687,21,Ticks_Linear_5,79,1,48,27,730385760
687,21,Ticks_Linear_5,80,5,42,127,730421600
687,21,Ticks_Linear_5,81,1,48,28,730928216
687,21,Ticks_Linear_5,82,5,42,127,730981608
687,21,Ticks_Linear_5,83,1,48,28,731468524
687,21,Ticks_Linear_5,84,5,42,127,731541888
687,21,Ticks_Linear_5,85,1,48,27,732054804
687,21,Ticks_Linear_5,86,5,42,127,732102248
687,21,Ticks_Linear_5,87,1,48,15,732602132
687,21,Ticks_Linear_5,88,5,42,127,732672564
687,21,Ticks_Linear_5,89,1,48,27,733202108
687,21,Ticks_Linear_5,90,5,42,127,733241612
687,21,Ticks_Linear_5,91,1,48,28,733788248
687,21,Ticks_Linear_5,92,5,42,127,733812176
687,21,Ticks_Linear_5,93,1,48,23,734352200
687,21,Ticks_Linear_5,94,5,42,127,734381524
687,21,Ticks_Linear_5,95,1,48,27,734892788
687,21,Ticks_Linear_5,96,5,42,127,734951768
687,21,Ticks_Linear_5,97,1,48,29,735429940
687,21,Ticks_Linear_5,98,5,42,127,735532552
687,21,Ticks_Linear_5,99,1,48,23,735996800
687,21,Ticks_Linear_5,100,5,42,127,736112256
687,21,Ticks_Linear_5,101,1,48,27,736565328
687,21,Ticks_Linear_5,102,5,42,127,736691488
687,21,Ticks_Linear_5,103,1,48,23,737121144
687,21,Ticks_Linear_5,104,5,42,127,737272364
687,21,Ticks_Linear_5,105,1,48,28,737683672
687,21,Ticks_Linear_5,106,5,42,127,737852044
687,21,Ticks_Linear_5,107,1,48,27,738273760
687,21,Ticks_Linear_5,108,5,42,127,738441560
687,21,Ticks_Linear_5,109,1,48,26,738852316
687,21,Ticks_Linear_5,110,5,42,127,739032320
687,21,Ticks_Linear_5,111,1,48,33,739446612
687,21,Ticks_Linear_5,112,5,42,127,739631396
687,21,Ticks_Linear_5,113,1,48,29,740065468
687,21,Ticks_Linear_5,114,5,42,127,740222184
687,21,Ticks_Linear_5,115,1,48,31,740674828
687,21,Ticks_Linear_5,116,5,42,127,740812120
687,21,Ticks_Linear_5,117,1,48,28,741236980
687,21,Ticks_Linear_5,118,5,42,127,741412168
687,21,Ticks_Linear_5,119,1,48,30,741848556
687,21,Ticks_Linear_5,120,5,42,127,742012240
687,21,Ticks_Linear_5,121,1,48,33,742447856
687,21,Ticks_Linear_5,122,5,42,127,742612288
687,21,Ticks_Linear_5,123,1,48,13,743095860
687,21,Ticks_Linear_5,124,5,42,127,743212264
687,21,Ticks_Linear_5,125,1,48,38,743606420
687,21,Ticks_Linear_5,126,5,42,127,743811364
687,21,Ticks_Linear_5,127,1,48,22,744258308
687,21,Ticks_Linear_5,128,5,42,127,744421744
687,21,Ticks_Linear_5,129,1,48,28,744850508
687,21,Ticks_Linear_5,130,5,42,127,745032004
687,21,Ticks_Linear_5,131,1,48,28,745443060
687,21,Ticks_Linear_5,132,5,42,127,745642312
687,21,Ticks_Linear_5,133,1,48,32,746052872
687,21,Ticks_Linear_5,134,5,42,127,746252020
687,21,Ticks_Linear_5,135,1,48,29,746636888
687,21,Ticks_Linear_5,136,5,42,127,746862056
687,21,Ticks_Linear_5,137,1,48,30,747251176
687,21,Ticks_Linear_5,138,5,42,127,747481424
687,21,Ticks_Linear_5,139,1,48,32,747863452
687,21,Ticks_Linear_5,140,5,42,127,748102016
687,21,Ticks_Linear_5,141,1,48,29,748442232
687,21,Ticks_Linear_5,142,5,42,127,748721388
687,21,Ticks_Linear_5,143,1,48,23,749051864
687,21,Ticks_Linear_5,144,5,42,127,749341952
687,21,Ticks_Linear_5,145,1,48,13,749647736
687,21,Ticks_Linear_5,146,5,42,127,749961724
687,21,Ticks_Linear_5,147,1,48,35,750243376
687,21,Ticks_Linear_5,148,5,42,127,750592476
687,21,Ticks_Linear_5,149,1,48,40,750862596
687,21,Ticks_Linear_5,150,5,42,127,751222276
687,21,Ticks_Linear_5,151,1,48,35,751435700
687,21,Ticks_Linear_5,152,5,42,127,751851908
687,21,Ticks_Linear_5,153,1,48,26,752324392
687,21,Ticks_Linear_5,154,5,42,127,752481784
687,21,Ticks_Linear_5,155,1,48,30,752928860
687,21,Ticks_Linear_5,156,5,42,127,753112536
687,21,Ticks_Linear_5,157,1,48,31,753518672
687,21,Ticks_Linear_5,158,5,42,127,753752376
687,21,Ticks_Linear_5,159,1,48,34,754094164
687,21,Ticks_Linear_5,160,5,42,127,754392412
687,21,Ticks_Linear_5,161,1,48,25,754692488
687,21,Ticks_Linear_5,162,5,42,127,755032400
687,21,Ticks_Linear_5,163,1,48,28,755275408
687,21,Ticks_Linear_5,164,5,42,127,755672364
687,21,Ticks_Linear_5,165,1,48,29,755911184
687,21,Ticks_Linear_5,166,5,42,127,756312352
687,21,Ticks_Linear_5,167,1,48,32,756550276
687,21,Ticks_Linear_5,168,5,42,127,756971864
687,21,Ticks_Linear_5,169,1,48,38,757154888
687,21,Ticks_Linear_5,170,5,42,127,757622036
687,21,Ticks_Linear_5,171,1,48,33,757793056
687,21,Ticks_Linear_5,172,5,42,127,758272260
687,21,Ticks_Linear_5,173,1,48,32,758466508
687,21,Ticks_Linear_5,174,5,42,127,758921532
687,21,Ticks_Linear_5,175,1,48,24,759083416
687,21,Ticks_Linear_5,176,5,42,127,759571980
687,21,Ticks_Linear_5,177,1,48,25,759789296
687,21,Ticks_Linear_5,178,5,42,127,760232264
687,21,Ticks_Linear_5,179,1,48,22,760497660
687,21,Ticks_Linear_5,180,5,42,127,760891696
687,21,Ticks_Linear_5,181,1,48,35,761150664
687,21,Ticks_Linear_5,182,5,42,127,761552256
687,21,Ticks_Linear_5,183,1,48,36,761794592
687,21,Ticks_Linear_5,184,5,42,127,762211644
687,21,Ticks_Linear_5,185,1,48,29,762390604
687,21,Ticks_Linear_5,186,5,42,127,762872272
687,21,Ticks_Linear_5,187,1,48,22,763029768
687,21,Ticks_Linear_5,188,5,42,127,763541992
687,21,Ticks_Linear_5,189,1,48,31,763644412
687,21,Ticks_Linear_5,190,5,42,127,764211760
687,21,Ticks_Linear_5,191,1,48,33,764307836
687,21,Ticks_Linear_5,192,5,42,127,764882376
687,21,Ticks_Linear_5,193,1,48,32,764942112
687,21,Ticks_Linear_5,194,5,42,127,765551872
687,21,Ticks_Linear_5,195,1,48,28,765580904
687,21,Ticks_Linear_5,196,1,48,36,766206536
687,21,Ticks_Linear_5,197,5,42,127,766221636
687,21,Ticks_Linear_5,198,1,48,37,766865848
687,21,Ticks_Linear_5,199,5,42,127,766901688
687,21,Ticks_Linear_5,200,1,48,39,767551824
687,21,Ticks_Linear_5,201,5,42,127,767581444
687,21,Ticks_Linear_5,202,1,48,27,768227652
687,21,Ticks_Linear_5,203,5,42,127,768261396
687,21,Ticks_Linear_5,204,5,42,127,768941456
687,21,Ticks_Linear_5,205,1,48,34,768943172
687,21,Ticks_Linear_5,206,1,48,28,769604688
687,21,Ticks_Linear_5,207,5,42,127,769622552
687,21,Ticks_Linear_5,208,1,48,34,770233116
687,21,Ticks_Linear_5,209,5,42,127,770311492
687,21,Ticks_Linear_5,210,1,48,29,770886280
687,21,Ticks_Linear_5,211,5,42,127,771001788
687,21,Ticks_Linear_5,212,1,48,33,771512772
687,21,Ticks_Linear_5,213,5,42,127,771691876
687,21,Ticks_Linear_5,214,1,48,29,772227492
687,21,Ticks_Linear_5,215,5,42,127,772382088
687,21,Ticks_Linear_5,216,1,48,29,772850912
687,21,Ticks_Linear_5,217,5,42,127,773072400
687,21,Ticks_Linear_5,218,1,48,29,773505424
687,21,Ticks_Linear_5,219,5,42,127,773771700
687,21,Ticks_Linear_5,220,1,48,20,774170932
687,21,Ticks_Linear_5,221,5,42,127,774472196
687,21,Ticks_Linear_5,222,1,48,22,774838840
687,21,Ticks_Linear_5,223,5,42,127,775171548
687,21,Ticks_Linear_5,224,1,48,20,775443544
687,21,Ticks_Linear_5,225,5,42,127,775871824
687,21,Ticks_Linear_5,226,1,48,25,776099024
687,21,Ticks_Linear_5,227,5,42,127,776572392
687,21,Ticks_Linear_5,228,1,48,33,776652500
687,21,Ticks_Linear_5,229,5,42,127,777281804
687,21,Ticks_Linear_5,230,1,48,28,777298768
687,21,Ticks_Linear_5,231,1,48,28,777892736
687,21,Ticks_Linear_5,232,5,42,127,777991480
687,21,Ticks_Linear_5,233,1,48,27,778483648
687,21,Ticks_Linear_5,234,5,42,127,778702444
687,21,Ticks_Linear_5,235,1,48,27,779088212
687,21,Ticks_Linear_5,236,5,42,127,779411780
687,21,Ticks_Linear_5,237,1,48,32,779650600
687,21,Ticks_Linear_5,238,5,42,127,780121416
687,21,Ticks_Linear_5,239,1,48,16,780297520
687,21,Ticks_Linear_5,240,5,42,127,780842256
687,21,Ticks_Linear_5,241,5,42,127,781562320
687,21,Ticks_Linear_5,242,1,48,30,781920160
687,21,Ticks_Linear_5,243,5,42,127,782282064
687,21,Ticks_Linear_5,244,1,48,21,782627812
687,21,Ticks_Linear_5,245,5,42,127,783001956
687,21,Ticks_Linear_5,246,1,48,35,783296712
687,21,Ticks_Linear_5,247,5,42,127,783721776
687,21,Ticks_Linear_5,248,1,48,36,784122052
687,21,Ticks_Linear_5,249,5,42,127,784452152
687,21,Ticks_Linear_5,250,1,48,37,784793864
687,21,Ticks_Linear_5,251,5,42,127,785182132
687,21,Ticks_Linear_5,252,5,42,127,785912304
687,21,Ticks_Linear_5,253,1,48,40,786049952
687,21,Ticks_Linear_5,254,5,42,127,786642236
687,21,Ticks_Linear_5,255,1,48,37,786724432
687,21,Ticks_Linear_5,256,1,48,33,787350028
687,21,Ticks_Linear_5,257,5,42,127,787372452
687,21,Ticks_Linear_5,258,1,48,36,787971940
687,21,Ticks_Linear_5,259,5,42,127,788111804
687,21,Ticks_Linear_5,260,1,48,35,788706956
687,21,Ticks_Linear_5,261,5,42,127,788852140
687,21,Ticks_Linear_5,262,1,48,28,789396520
687,21,Ticks_Linear_5,263,5,42,127,789592328
687,21,Ticks_Linear_5,264,1,48,32,790120764
687,21,Ticks_Linear_5,265,5,42,127,790342176
687,21,Ticks_Linear_5,266,1,48,35,790824300
687,21,Ticks_Linear_5,267,5,42,127,791082340
687,21,Ticks_Linear_5,268,1,48,26,791461372
687,21,Ticks_Linear_5,269,5,42,127,791832112
687,21,Ticks_Linear_5,270,1,48,32,792221708
687,21,Ticks_Linear_5,271,5,42,127,792581436
687,21,Ticks_Linear_5,272,1,48,24,792879184
687,21,Ticks_Linear_5,273,5,42,127,793331956
687,21,Ticks_Linear_5,274,1,48,16,793936044
687,21,Ticks_Linear_5,275,5,42,127,794081804
687,21,Ticks_Linear_5,276,1,48,33,794763780
687,21,Ticks_Linear_5,277,5,42,127,794832192
687,21,Ticks_Linear_5,278,1,48,34,795544784
687,21,Ticks_Linear_5,279,5,42,127,795592004
687,21,Ticks_Linear_5,280,5,42,127,796352040
687,21,Ticks_Linear_5,281,1,48,29,796943676
687,21,Ticks_Linear_5,282,5,42,127,797111848
687,21,Ticks_Linear_5,283,1,48,34,797687676
687,21,Ticks_Linear_5,284,5,42,127,797871584
687,21,Ticks_Linear_5,285,1,48,33,798402860
687,21,Ticks_Linear_5,286,5,42,127,798632364
687,21,Ticks_Linear_5,287,1,48,31,799099008
687,21,Ticks_Linear_5,288,5,42,127,799402508
687,21,Ticks_Linear_5,289,1,48,29,799756196
687,21,Ticks_Linear_5,290,5,42,127,800172276
687,21,Ticks_Linear_5,291,1,48,39,800520804
687,21,Ticks_Linear_5,292,5,42,127,800941520
687,21,Ticks_Linear_5,293,1,48,24,801258284
687,21,Ticks_Linear_5,294,5,42,127,801711588
687,21,Ticks_Linear_5,295,5,42,127,802481828
687,21,Ticks_Linear_5,296,1,48,33,802647328
687,21,Ticks_Linear_5,297,5,42,127,803261784
687,21,Ticks_Linear_5,298,1,48,37,803270148
687,21,Ticks_Linear_5,299,1,48,38,803975784
687,21,Ticks_Linear_5,300,5,42,127,804042104
687,21,Ticks_Linear_5,301,1,48,29,804757156
687,21,Ticks_Linear_5,302,5,42,127,804822280
687,21,Ticks_Linear_5,303,1,48,38,805495476
687,21,Ticks_Linear_5,304,5,42,127,805601620
687,21,Ticks_Linear_5,305,1,48,31,806186584
687,21,Ticks_Linear_5,306,5,42,127,806381948
687,21,Ticks_Linear_5,307,1,48,24,806949164
687,21,Ticks_Linear_5,308,5,42,127,807171636
687,21,Ticks_Linear_5,309,1,48,30,807657972
687,21,Ticks_Linear_5,310,5,42,127,807961996
687,21,Ticks_Linear_5,311,1,48,23,808347536
687,21,Ticks_Linear_5,312,5,42,127,808751760
687,21,Ticks_Linear_5,313,1,48,35,809003084
687,21,Ticks_Linear_5,314,5,42,127,809541996
687,21,Ticks_Linear_5,315,1,48,28,809691228
687,21,Ticks_Linear_5,316,1,48,41,810311496
687,21,Ticks_Linear_5,317,5,42,127,810331528
687,21,Ticks_Linear_5,318,1,48,41,810988972
687,21,Ticks_Linear_5,319,5,42,127,811132360
687,21,Ticks_Linear_5,320,1,48,28,811700488
687,21,Ticks_Linear_5,321,5,42,127,811931936
687,21,Ticks_Linear_5,322,1,48,39,812371476
687,21,Ticks_Linear_5,323,5,42,127,812731880
687,21,Ticks_Linear_5,324,1,48,38,813016824
687,21,Ticks_Linear_5,325,5,42,127,813531608
687,21,Ticks_Linear_5,326,1,48,37,813665052
687,21,Ticks_Linear_5,327,1,48,32,814306716
687,21,Ticks_Linear_5,328,5,42,127,814332592
687,21,Ticks_Linear_5,329,1,48,36,814940572
687,21,Ticks_Linear_5,330,5,42,127,815142488
687,21,Ticks_Linear_5,331,1,48,34,815580388
687,21,Ticks_Linear_5,332,5,42,127,815952396
687,21,Ticks_Linear_5,333,1,48,31,816249392
687,21,Ticks_Linear_5,334,5,42,127,816762376
687,21,Ticks_Linear_5,335,1,48,32,816916464
687,21,Ticks_Linear_5,336,5,42,127,817572360
687,21,Ticks_Linear_5,337,1,48,28,817596748
687,21,Ticks_Linear_5,338,5,42,127,818382344
687,21,Ticks_Linear_5,0,9999,9999,9999,709169264
687,21,Ticks_Linear_5,1,9999,9999,9999,709649516
687,21,Ticks_Linear_5,2,9999,9999,9999,710129764
687,21,Ticks_Linear_5,3,9999,9999,9999,710609988
687,21,Ticks_Linear_5,4,9999,9999,9999,711089244
687,21,Ticks_Linear_5,5,9999,9999,9999,711579732
687,21,Ticks_Linear_5,6,9999,9999,9999,712069248
687,21,Ticks_Linear_5,7,9999,9999,9999,712559732
687,21,Ticks_Linear_5,8,9999,9999,9999,713049176
687,21,Ticks_Linear_5,9,9999,9999,9999,713539660
687,21,Ticks_Linear_5,10,9999,9999,9999,714039412
687,21,Ticks_Linear_5,11,9999,9999,9999,714539112
687,21,Ticks_Linear_5,12,9999,9999,9999,715039856
687,21,Ticks_Linear_5,13,9999,9999,9999,715539564
687,21,Ticks_Linear_5,14,9999,9999,9999,716039264
687,21,Ticks_Linear_5,15,9999,9999,9999,716549236
687,21,Ticks_Linear_5,16,9999,9999,9999,717059196
687,21,Ticks_Linear_5,17,9999,9999,9999,717569140
687,21,Ticks_Linear_5,18,9999,9999,9999,718080088
687,21,Ticks_Linear_5,19,9999,9999,9999,718599260
687,21,Ticks_Linear_5,20,9999,9999,9999,719119480
687,21,Ticks_Linear_5,21,9999,9999,9999,719639620
687,21,Ticks_Linear_5,22,9999,9999,9999,720159840
687,21,Ticks_Linear_5,23,9999,9999,9999,720679992
687,21,Ticks_Linear_5,24,9999,9999,9999,721199228
687,21,Ticks_Linear_5,25,9999,9999,9999,721729660
687,21,Ticks_Linear_5,26,9999,9999,9999,722260060
687,21,Ticks_Linear_5,27,9999,9999,9999,722789492
687,21,Ticks_Linear_5,28,9999,9999,9999,723319892
687,21,Ticks_Linear_5,29,9999,9999,9999,723849324
687,21,Ticks_Linear_5,30,9999,9999,9999,724389992
687,21,Ticks_Linear_5,31,9999,9999,9999,724929604
687,21,Ticks_Linear_5,32,9999,9999,9999,725469292
687,21,Ticks_Linear_5,33,9999,9999,9999,726009956
687,21,Ticks_Linear_5,34,9999,9999,9999,726549572
687,21,Ticks_Linear_5,35,9999,9999,9999,727099444
687,21,Ticks_Linear_5,36,9999,9999,9999,727649344
687,21,Ticks_Linear_5,37,9999,9999,9999,728199292
687,21,Ticks_Linear_5,38,9999,9999,9999,728749168
687,21,Ticks_Linear_5,39,9999,9999,9999,729300080
687,21,Ticks_Linear_5,40,9999,9999,9999,729859168
687,21,Ticks_Linear_5,41,9999,9999,9999,730419300
687,21,Ticks_Linear_5,42,9999,9999,9999,730979384
687,21,Ticks_Linear_5,43,9999,9999,9999,731539516
687,21,Ticks_Linear_5,44,9999,9999,9999,732099652
687,21,Ticks_Linear_5,45,9999,9999,9999,732670044
687,21,Ticks_Linear_5,46,9999,9999,9999,733239388
687,21,Ticks_Linear_5,47,9999,9999,9999,733809732
687,21,Ticks_Linear_5,48,9999,9999,9999,734379076
687,21,Ticks_Linear_5,49,9999,9999,9999,734949468
687,21,Ticks_Linear_5,50,9999,9999,9999,735530108
687,21,Ticks_Linear_5,51,9999,9999,9999,736109660
687,21,Ticks_Linear_5,52,9999,9999,9999,736689264
687,21,Ticks_Linear_5,53,9999,9999,9999,737269840
687,21,Ticks_Linear_5,54,9999,9999,9999,737849448
687,21,Ticks_Linear_5,55,9999,9999,9999,738439260
687,21,Ticks_Linear_5,56,9999,9999,9999,739030096
687,21,Ticks_Linear_5,57,9999,9999,9999,739629172
687,21,Ticks_Linear_5,58,9999,9999,9999,740219960
687,21,Ticks_Linear_5,59,9999,9999,9999,740809820
687,21,Ticks_Linear_5,60,9999,9999,9999,741409872
687,21,Ticks_Linear_5,61,9999,9999,9999,742009944
687,21,Ticks_Linear_5,62,9999,9999,9999,742609992
687,21,Ticks_Linear_5,63,9999,9999,9999,743210040
687,21,Ticks_Linear_5,64,9999,9999,9999,743809140
687,21,Ticks_Linear_5,65,9999,9999,9999,744419448
687,21,Ticks_Linear_5,66,9999,9999,9999,745029708
687,21,Ticks_Linear_5,67,9999,9999,9999,745640012
687,21,Ticks_Linear_5,68,9999,9999,9999,746249272
687,21,Ticks_Linear_5,69,9999,9999,9999,746859604
687,21,Ticks_Linear_5,70,9999,9999,9999,747479128
687,21,Ticks_Linear_5,71,9999,9999,9999,748099644
687,21,Ticks_Linear_5,72,9999,9999,9999,748719164
687,21,Ticks_Linear_5,73,9999,9999,9999,749339728
687,21,Ticks_Linear_5,74,9999,9999,9999,749959276
687,21,Ticks_Linear_5,75,9999,9999,9999,750590028
687,21,Ticks_Linear_5,76,9999,9999,9999,751219828
687,21,Ticks_Linear_5,77,9999,9999,9999,751849536
687,21,Ticks_Linear_5,78,9999,9999,9999,752479336
687,21,Ticks_Linear_5,79,9999,9999,9999,753110088
687,21,Ticks_Linear_5,80,9999,9999,9999,753750076
687,21,Ticks_Linear_5,81,9999,9999,9999,754390112
687,21,Ticks_Linear_5,82,9999,9999,9999,755030104
687,21,Ticks_Linear_5,83,9999,9999,9999,755670140
687,21,Ticks_Linear_5,84,9999,9999,9999,756310128
687,21,Ticks_Linear_5,85,9999,9999,9999,756969564
687,21,Ticks_Linear_5,86,9999,9999,9999,757619812
687,21,Ticks_Linear_5,87,9999,9999,9999,758270036
687,21,Ticks_Linear_5,88,9999,9999,9999,758919232
687,21,Ticks_Linear_5,89,9999,9999,9999,759569532
687,21,Ticks_Linear_5,90,9999,9999,9999,760229964
687,21,Ticks_Linear_5,91,9999,9999,9999,760889400
687,21,Ticks_Linear_5,92,9999,9999,9999,761549880
687,21,Ticks_Linear_5,93,9999,9999,9999,762209344
687,21,Ticks_Linear_5,94,9999,9999,9999,762869824
687,21,Ticks_Linear_5,95,9999,9999,9999,763539544
687,21,Ticks_Linear_5,96,9999,9999,9999,764209236
687,21,Ticks_Linear_5,97,9999,9999,9999,764879928
687,21,Ticks_Linear_5,98,9999,9999,9999,765549648
687,21,Ticks_Linear_5,99,9999,9999,9999,766219336
687,21,Ticks_Linear_5,100,9999,9999,9999,766899312
687,21,Ticks_Linear_5,101,9999,9999,9999,767579220
687,21,Ticks_Linear_5,102,9999,9999,9999,768259172
687,21,Ticks_Linear_5,103,9999,9999,9999,768939084
687,21,Ticks_Linear_5,104,9999,9999,9999,769620028
687,21,Ticks_Linear_5,105,9999,9999,9999,770309192
687,21,Ticks_Linear_5,106,9999,9999,9999,770999416
687,21,Ticks_Linear_5,107,9999,9999,9999,771689576
687,21,Ticks_Linear_5,108,9999,9999,9999,772379716
687,21,Ticks_Linear_5,109,9999,9999,9999,773069876
687,21,Ticks_Linear_5,110,9999,9999,9999,773769328
687,21,Ticks_Linear_5,111,9999,9999,9999,774469748
687,21,Ticks_Linear_5,112,9999,9999,9999,775169100
687,21,Ticks_Linear_5,113,9999,9999,9999,775869524
687,21,Ticks_Linear_5,114,9999,9999,9999,776569944
687,21,Ticks_Linear_5,115,9999,9999,9999,777279580
687,21,Ticks_Linear_5,116,9999,9999,9999,777989184
687,21,Ticks_Linear_5,117,9999,9999,9999,778699848
687,21,Ticks_Linear_5,118,9999,9999,9999,779409484
687,21,Ticks_Linear_5,119,9999,9999,9999,780119116
687,21,Ticks_Linear_5,120,9999,9999,9999,780840032
687,21,Ticks_Linear_5,121,9999,9999,9999,781559872
687,21,Ticks_Linear_5,122,9999,9999,9999,782279764
687,21,Ticks_Linear_5,123,9999,9999,9999,782999660
687,21,Ticks_Linear_5,124,9999,9999,9999,783719552
687,21,Ticks_Linear_5,125,9999,9999,9999,784449628
687,21,Ticks_Linear_5,126,9999,9999,9999,785179760
687,21,Ticks_Linear_5,127,9999,9999,9999,785909856
687,21,Ticks_Linear_5,128,9999,9999,9999,786639936
687,21,Ticks_Linear_5,129,9999,9999,9999,787370080
687,21,Ticks_Linear_5,130,9999,9999,9999,788109432
687,21,Ticks_Linear_5,131,9999,9999,9999,788849768
687,21,Ticks_Linear_5,132,9999,9999,9999,789590104
687,21,Ticks_Linear_5,133,9999,9999,9999,790339656
687,21,Ticks_Linear_5,134,9999,9999,9999,791080040
687,21,Ticks_Linear_5,135,9999,9999,9999,791829588
687,21,Ticks_Linear_5,136,9999,9999,9999,792579140
687,21,Ticks_Linear_5,137,9999,9999,9999,793329732
687,21,Ticks_Linear_5,138,9999,9999,9999,794079356
687,21,Ticks_Linear_5,139,9999,9999,9999,794829892
687,21,Ticks_Linear_5,140,9999,9999,9999,795589704
687,21,Ticks_Linear_5,141,9999,9999,9999,796349520
687,21,Ticks_Linear_5,142,9999,9999,9999,797109328
687,21,Ticks_Linear_5,143,9999,9999,9999,797869136
687,21,Ticks_Linear_5,144,9999,9999,9999,798629992
687,21,Ticks_Linear_5,145,9999,9999,9999,799400060
687,21,Ticks_Linear_5,146,9999,9999,9999,800170052
687,21,Ticks_Linear_5,147,9999,9999,9999,800939072
687,21,Ticks_Linear_5,148,9999,9999,9999,801709140
687,21,Ticks_Linear_5,149,9999,9999,9999,802479232
687,21,Ticks_Linear_5,150,9999,9999,9999,803259484
687,21,Ticks_Linear_5,151,9999,9999,9999,804039804
687,21,Ticks_Linear_5,152,9999,9999,9999,804820056
687,21,Ticks_Linear_5,153,9999,9999,9999,805599320
687,21,Ticks_Linear_5,154,9999,9999,9999,806379648
687,21,Ticks_Linear_5,155,9999,9999,9999,807169112
687,21,Ticks_Linear_5,156,9999,9999,9999,807959624
687,21,Ticks_Linear_5,157,9999,9999,9999,808749164
687,21,Ticks_Linear_5,158,9999,9999,9999,809539700
687,21,Ticks_Linear_5,159,9999,9999,9999,810329156
687,21,Ticks_Linear_5,160,9999,9999,9999,811129912
687,21,Ticks_Linear_5,161,9999,9999,9999,811929712
687,21,Ticks_Linear_5,162,9999,9999,9999,812729436
687,21,Ticks_Linear_5,163,9999,9999,9999,813529160
687,21,Ticks_Linear_5,164,9999,9999,9999,814329924
687,21,Ticks_Linear_5,165,9999,9999,9999,815139964
687,21,Ticks_Linear_5,166,9999,9999,9999,815949948
687,21,Ticks_Linear_5,167,9999,9999,9999,816759932
687,21,Ticks_Linear_5,168,9999,9999,9999,817569912
687,21,Ticks_Linear_5,169,9999,9999,9999,818379896
688,20,Ticks_Linear_8,0,5,42,127,831928644
688,20,Ticks_Linear_8,1,1,48,17,832597668
688,20,Ticks_Linear_8,2,5,42,127,832749112
688,20,Ticks_Linear_8,3,5,42,127,833569004
688,20,Ticks_Linear_8,4,1,48,15,833753072
688,20,Ticks_Linear_8,5,5,42,127,834389420
688,20,Ticks_Linear_8,6,1,48,27,834726332
688,20,Ticks_Linear_8,7,5,42,127,835208692
688,20,Ticks_Linear_8,8,1,48,26,835436568
688,20,Ticks_Linear_8,9,5,42,127,836018676
688,20,Ticks_Linear_8,10,1,48,24,836238244
688,20,Ticks_Linear_8,11,5,42,127,836828436
688,20,Ticks_Linear_8,12,1,48,25,837065896
688,20,Ticks_Linear_8,13,5,42,127,837638568
688,20,Ticks_Linear_8,14,1,48,20,838135164
688,20,Ticks_Linear_8,15,5,42,127,838448476
688,20,Ticks_Linear_8,16,1,48,24,838900892
688,20,Ticks_Linear_8,17,5,42,127,839258556
688,20,Ticks_Linear_8,18,1,48,23,839691028
688,20,Ticks_Linear_8,19,5,42,127,840059252
688,20,Ticks_Linear_8,20,5,42,127,840859148
688,20,Ticks_Linear_8,21,1,48,29,841415204
688,20,Ticks_Linear_8,22,5,42,127,841658872
688,20,Ticks_Linear_8,23,5,42,127,842458544
688,20,Ticks_Linear_8,24,1,48,23,842965844
688,20,Ticks_Linear_8,25,5,42,127,843259216
688,20,Ticks_Linear_8,26,1,48,23,843677944
688,20,Ticks_Linear_8,27,5,42,127,844049056
688,20,Ticks_Linear_8,28,1,48,23,844409812
688,20,Ticks_Linear_8,29,5,42,127,844839196
688,20,Ticks_Linear_8,30,1,48,24,845210136
688,20,Ticks_Linear_8,31,5,42,127,845628984
688,20,Ticks_Linear_8,32,5,42,127,846419368
688,20,Ticks_Linear_8,33,5,42,127,847208856
688,20,Ticks_Linear_8,34,5,42,127,847989128
688,20,Ticks_Linear_8,35,1,48,31,848024516
688,20,Ticks_Linear_8,36,5,42,127,848769380
688,20,Ticks_Linear_8,37,1,48,28,848772796
688,20,Ticks_Linear_8,38,5,42,127,849548812
688,20,Ticks_Linear_8,39,1,48,28,849573644
688,20,Ticks_Linear_8,40,5,42,127,850328840
688,20,Ticks_Linear_8,41,1,48,30,850398164
688,20,Ticks_Linear_8,42,5,42,127,851109168
688,20,Ticks_Linear_8,43,1,48,29,851180508
688,20,Ticks_Linear_8,44,5,42,127,851879236
688,20,Ticks_Linear_8,45,1,48,33,851958820
688,20,Ticks_Linear_8,46,5,42,127,852649304
688,20,Ticks_Linear_8,47,1,48,33,852708596
688,20,Ticks_Linear_8,48,5,42,127,853419668
688,20,Ticks_Linear_8,49,1,48,29,853432600
688,20,Ticks_Linear_8,50,5,42,127,854189588
688,20,Ticks_Linear_8,51,1,48,26,854225056
688,20,Ticks_Linear_8,52,5,42,127,854968644
688,20,Ticks_Linear_8,53,1,48,32,855000820
688,20,Ticks_Linear_8,54,5,42,127,855728600
688,20,Ticks_Linear_8,55,1,48,34,855776808
688,20,Ticks_Linear_8,56,5,42,127,856489532
688,20,Ticks_Linear_8,57,1,48,39,856562072
688,20,Ticks_Linear_8,58,5,42,127,857249040
688,20,Ticks_Linear_8,59,1,48,29,857292296
688,20,Ticks_Linear_8,60,5,42,127,858008924
688,20,Ticks_Linear_8,61,1,48,33,858027328
688,20,Ticks_Linear_8,62,5,42,127,858768736
688,20,Ticks_Linear_8,63,1,48,37,858792372
688,20,Ticks_Linear_8,64,5,42,127,859519484
688,20,Ticks_Linear_8,65,1,48,38,859557580
688,20,Ticks_Linear_8,66,5,42,127,860268956
688,20,Ticks_Linear_8,67,1,48,34,860359472
688,20,Ticks_Linear_8,68,5,42,127,861018656
688,20,Ticks_Linear_8,69,1,48,33,861098244
688,20,Ticks_Linear_8,70,5,42,127,861768956
688,20,Ticks_Linear_8,71,1,48,36,861787880
688,20,Ticks_Linear_8,72,5,42,127,862518780
688,20,Ticks_Linear_8,73,1,48,33,862536044
688,20,Ticks_Linear_8,74,5,42,127,863259016
688,20,Ticks_Linear_8,75,1,48,35,863291964
688,20,Ticks_Linear_8,76,5,42,127,863999652
688,20,Ticks_Linear_8,77,1,48,35,864109740
688,20,Ticks_Linear_8,78,5,42,127,864738572
688,20,Ticks_Linear_8,79,1,48,26,864861460
688,20,Ticks_Linear_8,80,5,42,127,865478908
688,20,Ticks_Linear_8,81,1,48,30,865570764
688,20,Ticks_Linear_8,82,5,42,127,866219468
688,20,Ticks_Linear_8,83,1,48,33,866245872
688,20,Ticks_Linear_8,84,5,42,127,866948496
688,20,Ticks_Linear_8,85,1,48,29,866990932
688,20,Ticks_Linear_8,86,5,42,127,867678500
688,20,Ticks_Linear_8,87,1,48,30,867708960
688,20,Ticks_Linear_8,88,5,42,127,868408628
688,20,Ticks_Linear_8,89,1,48,32,868456760
688,20,Ticks_Linear_8,90,5,42,127,869138756
688,20,Ticks_Linear_8,91,1,48,33,869180020
688,20,Ticks_Linear_8,92,5,42,127,869868908
688,20,Ticks_Linear_8,93,1,48,29,869881760
688,20,Ticks_Linear_8,94,5,42,127,870588728
688,20,Ticks_Linear_8,95,1,48,21,870601808
688,20,Ticks_Linear_8,96,1,48,29,871286024
688,20,Ticks_Linear_8,97,5,42,127,871308616
688,20,Ticks_Linear_8,98,1,48,38,871946372
688,20,Ticks_Linear_8,99,5,42,127,872028584
688,20,Ticks_Linear_8,100,1,48,35,872679212
688,20,Ticks_Linear_8,101,5,42,127,872749424
688,20,Ticks_Linear_8,102,1,48,39,873450708
688,20,Ticks_Linear_8,103,5,42,127,873478608
688,20,Ticks_Linear_8,104,5,42,127,874189368
688,20,Ticks_Linear_8,105,1,48,32,874208744
688,20,Ticks_Linear_8,106,1,48,30,874873040
688,20,Ticks_Linear_8,107,5,42,127,874898844
688,20,Ticks_Linear_8,108,5,42,127,875608560
688,20,Ticks_Linear_8,109,1,48,30,876147332
688,20,Ticks_Linear_8,110,5,42,127,876319292
688,20,Ticks_Linear_8,111,1,48,32,876843600
688,20,Ticks_Linear_8,112,5,42,127,877028628
688,20,Ticks_Linear_8,113,1,48,31,877546188
688,20,Ticks_Linear_8,114,5,42,127,877729276
688,20,Ticks_Linear_8,115,1,48,31,878295444
688,20,Ticks_Linear_8,116,5,42,127,878428576
688,20,Ticks_Linear_8,117,1,48,31,879086632
688,20,Ticks_Linear_8,118,5,42,127,879129140
688,20,Ticks_Linear_8,119,5,42,127,879829344
688,20,Ticks_Linear_8,120,1,48,34,879832008
688,20,Ticks_Linear_8,121,1,48,25,880497896
688,20,Ticks_Linear_8,122,5,42,127,880528716
688,20,Ticks_Linear_8,123,1,48,34,881186004
688,20,Ticks_Linear_8,124,5,42,127,881219024
688,20,Ticks_Linear_8,125,1,48,34,881885528
688,20,Ticks_Linear_8,126,5,42,127,881909240
688,20,Ticks_Linear_8,127,1,48,41,882535704
688,20,Ticks_Linear_8,128,5,42,127,882599256
688,20,Ticks_Linear_8,129,1,48,38,883223748
688,20,Ticks_Linear_8,130,5,42,127,883288372
688,20,Ticks_Linear_8,131,5,42,127,883978592
688,20,Ticks_Linear_8,132,1,48,29,883981336
688,20,Ticks_Linear_8,133,5,42,127,884658568
688,20,Ticks_Linear_8,134,1,48,22,884717784
688,20,Ticks_Linear_8,135,5,42,127,885338396
688,20,Ticks_Linear_8,136,1,48,33,885419624
688,20,Ticks_Linear_8,137,5,42,127,886018576
688,20,Ticks_Linear_8,138,1,48,32,886078488
688,20,Ticks_Linear_8,139,5,42,127,886699376
688,20,Ticks_Linear_8,140,1,48,35,886712456
688,20,Ticks_Linear_8,141,1,48,28,887369948
688,20,Ticks_Linear_8,142,5,42,127,887379500
688,20,Ticks_Linear_8,143,5,42,127,888048980
688,20,Ticks_Linear_8,144,1,48,33,888064672
688,20,Ticks_Linear_8,145,5,42,127,888718920
688,20,Ticks_Linear_8,146,1,48,24,888722716
688,20,Ticks_Linear_8,147,5,42,127,889389364
688,20,Ticks_Linear_8,148,1,48,35,889437144
688,20,Ticks_Linear_8,149,5,42,127,890069568
688,20,Ticks_Linear_8,150,1,48,34,890086924
688,20,Ticks_Linear_8,151,5,42,127,890739064
688,20,Ticks_Linear_8,152,1,48,29,890786804
688,20,Ticks_Linear_8,153,5,42,127,891398424
688,20,Ticks_Linear_8,154,1,48,31,891430004
688,20,Ticks_Linear_8,155,5,42,127,892059080
688,20,Ticks_Linear_8,156,1,48,34,892071188
688,20,Ticks_Linear_8,157,5,42,127,892718440
688,20,Ticks_Linear_8,158,1,48,38,892745844
688,20,Ticks_Linear_8,159,5,42,127,893378800
688,20,Ticks_Linear_8,160,1,48,35,893385652
688,20,Ticks_Linear_8,161,5,42,127,894039308
688,20,Ticks_Linear_8,162,1,48,29,894069464
688,20,Ticks_Linear_8,163,5,42,127,894688856
688,20,Ticks_Linear_8,164,1,48,34,894712196
688,20,Ticks_Linear_8,165,1,48,34,895330072
688,20,Ticks_Linear_8,166,5,42,127,895339096
688,20,Ticks_Linear_8,167,1,48,38,895928552
688,20,Ticks_Linear_8,168,5,42,127,895989100
688,20,Ticks_Linear_8,169,1,48,29,896598272
688,20,Ticks_Linear_8,170,5,42,127,896639272
688,20,Ticks_Linear_8,171,5,42,127,897288752
688,20,Ticks_Linear_8,172,1,48,28,897309172
688,20,Ticks_Linear_8,173,5,42,127,897928740
688,20,Ticks_Linear_8,174,1,48,32,897937256
688,20,Ticks_Linear_8,175,5,42,127,898568632
688,20,Ticks_Linear_8,176,1,48,29,898573320
688,20,Ticks_Linear_8,177,1,48,27,899204520
688,20,Ticks_Linear_8,178,5,42,127,899208688
688,20,Ticks_Linear_8,179,5,42,127,899848804
688,20,Ticks_Linear_8,180,1,48,33,899860236
688,20,Ticks_Linear_8,181,1,48,32,900488496
688,20,Ticks_Linear_8,182,5,42,127,900489984
688,20,Ticks_Linear_8,183,1,48,32,901095752
688,20,Ticks_Linear_8,184,5,42,127,901119388
688,20,Ticks_Linear_8,185,5,42,127,901748976
688,20,Ticks_Linear_8,186,1,48,31,901749944
688,20,Ticks_Linear_8,187,1,48,32,902358120
688,20,Ticks_Linear_8,188,5,42,127,902378824
688,20,Ticks_Linear_8,189,5,42,127,903008708
688,20,Ticks_Linear_8,190,1,48,28,903010648
688,20,Ticks_Linear_8,191,1,48,28,903628932
688,20,Ticks_Linear_8,192,5,42,127,903639380
688,20,Ticks_Linear_8,193,1,48,30,904226200
688,20,Ticks_Linear_8,194,5,42,127,904258924
688,20,Ticks_Linear_8,195,5,42,127,904878452
688,20,Ticks_Linear_8,196,1,48,20,904879416
688,20,Ticks_Linear_8,197,5,42,127,905498872
688,20,Ticks_Linear_8,198,1,48,30,905536452
688,20,Ticks_Linear_8,199,1,48,21,906091708
688,20,Ticks_Linear_8,200,5,42,127,906118780
688,20,Ticks_Linear_8,201,1,48,25,906708976
688,20,Ticks_Linear_8,202,5,42,127,906738976
688,20,Ticks_Linear_8,203,1,48,34,907295144
688,20,Ticks_Linear_8,204,5,42,127,907349508
688,20,Ticks_Linear_8,205,1,48,36,907940380
688,20,Ticks_Linear_8,206,5,42,127,907958692
688,20,Ticks_Linear_8,207,1,48,39,908530844
688,20,Ticks_Linear_8,208,5,42,127,908568928
688,20,Ticks_Linear_8,209,1,48,27,909172400
688,20,Ticks_Linear_8,210,5,42,127,909179332
688,20,Ticks_Linear_8,211,1,48,35,909764280
688,20,Ticks_Linear_8,212,5,42,127,909788520
688,20,Ticks_Linear_8,213,5,42,127,910388504
688,20,Ticks_Linear_8,214,1,48,33,910403676
688,20,Ticks_Linear_8,215,5,42,127,910988624
688,20,Ticks_Linear_8,216,1,48,29,911005516
688,20,Ticks_Linear_8,217,1,48,21,911585172
688,20,Ticks_Linear_8,218,5,42,127,911588816
688,20,Ticks_Linear_8,219,1,48,31,912183904
688,20,Ticks_Linear_8,220,5,42,127,912188668
688,20,Ticks_Linear_8,221,5,42,127,912788728
688,20,Ticks_Linear_8,222,1,48,32,912812956
688,20,Ticks_Linear_8,223,5,42,127,913378664
688,20,Ticks_Linear_8,224,1,48,32,913410012
688,20,Ticks_Linear_8,225,5,42,127,913968452
688,20,Ticks_Linear_8,226,1,48,34,913976772
688,20,Ticks_Linear_8,227,5,42,127,914559388
688,20,Ticks_Linear_8,228,1,48,38,914565424
688,20,Ticks_Linear_8,229,1,48,30,915143360
688,20,Ticks_Linear_8,230,5,42,127,915149396
688,20,Ticks_Linear_8,231,1,48,33,915729332
688,20,Ticks_Linear_8,232,5,42,127,915738888
688,20,Ticks_Linear_8,233,5,42,127,916318524
688,20,Ticks_Linear_8,234,1,48,16,916345376
688,20,Ticks_Linear_8,235,1,48,39,916871348
688,20,Ticks_Linear_8,236,5,42,127,916899540
688,20,Ticks_Linear_8,237,1,48,38,917428488
688,20,Ticks_Linear_8,238,5,42,127,917478852
688,20,Ticks_Linear_8,239,1,48,17,918031076
688,20,Ticks_Linear_8,240,5,42,127,918059428
688,20,Ticks_Linear_8,241,1,48,17,918629280
688,20,Ticks_Linear_8,242,5,42,127,918638908
688,20,Ticks_Linear_8,243,1,48,29,919199452
688,20,Ticks_Linear_8,244,5,42,127,919209228
688,20,Ticks_Linear_8,245,5,42,127,919778728
688,20,Ticks_Linear_8,246,1,48,30,919816828
688,20,Ticks_Linear_8,247,5,42,127,920349268
688,20,Ticks_Linear_8,248,1,48,33,920401096
688,20,Ticks_Linear_8,249,5,42,127,920919540
688,20,Ticks_Linear_8,250,1,48,34,920942880
688,20,Ticks_Linear_8,251,5,42,127,921488740
688,20,Ticks_Linear_8,252,1,48,39,921586896
688,20,Ticks_Linear_8,253,5,42,127,922049244
688,20,Ticks_Linear_8,254,1,48,33,922108164
688,20,Ticks_Linear_8,255,5,42,127,922609304
688,20,Ticks_Linear_8,256,1,48,39,922644320
688,20,Ticks_Linear_8,257,5,42,127,923169436
688,20,Ticks_Linear_8,258,1,48,34,923210252
688,20,Ticks_Linear_8,259,5,42,127,923729372
688,20,Ticks_Linear_8,260,1,48,22,923781320
688,20,Ticks_Linear_8,261,5,42,127,924289432
688,20,Ticks_Linear_8,262,1,48,37,924313668
688,20,Ticks_Linear_8,263,5,42,127,924839232
688,20,Ticks_Linear_8,264,1,48,34,924862044
688,20,Ticks_Linear_8,265,1,48,26,925366600
688,20,Ticks_Linear_8,266,5,42,127,925389100
688,20,Ticks_Linear_8,267,5,42,127,925939204
688,20,Ticks_Linear_8,268,1,48,30,925964036
688,20,Ticks_Linear_8,269,5,42,127,926489228
688,20,Ticks_Linear_8,270,1,48,32,926495116
688,20,Ticks_Linear_8,271,1,48,37,927012096
688,20,Ticks_Linear_8,272,5,42,127,927039048
688,20,Ticks_Linear_8,273,1,48,30,927551060
688,20,Ticks_Linear_8,274,5,42,127,927578364
688,20,Ticks_Linear_8,275,1,48,33,928107308
688,20,Ticks_Linear_8,276,5,42,127,928119252
688,20,Ticks_Linear_8,277,5,42,127,928658800
688,20,Ticks_Linear_8,278,1,48,36,928677648
688,20,Ticks_Linear_8,279,1,48,38,929189752
688,20,Ticks_Linear_8,280,5,42,127,929198332
688,20,Ticks_Linear_8,281,1,48,34,929737104
688,20,Ticks_Linear_8,282,5,42,127,929739072
688,20,Ticks_Linear_8,283,1,48,33,930243968
688,20,Ticks_Linear_8,284,5,42,127,930268652
688,20,Ticks_Linear_8,285,5,42,127,930799356
688,20,Ticks_Linear_8,286,1,48,31,930817012
688,20,Ticks_Linear_8,287,5,42,127,931329312
688,20,Ticks_Linear_8,288,1,48,33,931385320
688,20,Ticks_Linear_8,289,5,42,127,931858748
688,20,Ticks_Linear_8,290,1,48,35,931880808
688,20,Ticks_Linear_8,291,1,48,39,932387864
688,20,Ticks_Linear_8,292,5,42,127,932389144
688,20,Ticks_Linear_8,293,5,42,127,932909296
688,20,Ticks_Linear_8,294,1,48,29,932985900
688,20,Ticks_Linear_8,295,5,42,127,933439048
688,20,Ticks_Linear_8,296,1,48,34,933547916
688,20,Ticks_Linear_8,297,5,42,127,933958972
688,20,Ticks_Linear_8,298,1,48,21,934081532
688,20,Ticks_Linear_8,299,5,42,127,934479116
688,20,Ticks_Linear_8,300,1,48,35,934574936
688,20,Ticks_Linear_8,301,5,42,127,934999336
688,20,Ticks_Linear_8,302,1,48,33,935086264
688,20,Ticks_Linear_8,303,5,42,127,935509592
688,20,Ticks_Linear_8,304,1,48,32,935608500
688,20,Ticks_Linear_8,305,5,42,127,936019328
688,20,Ticks_Linear_8,306,1,48,28,936068732
688,20,Ticks_Linear_8,307,5,42,127,936529140
688,20,Ticks_Linear_8,308,1,48,37,936541768
688,20,Ticks_Linear_8,309,5,42,127,937039248
688,20,Ticks_Linear_8,310,1,48,33,937048808
688,20,Ticks_Linear_8,311,1,48,36,937521500
688,20,Ticks_Linear_8,312,5,42,127,937549128
688,20,Ticks_Linear_8,313,5,42,127,938048832
688,20,Ticks_Linear_8,314,1,48,35,938086164
688,20,Ticks_Linear_8,315,5,42,127,938548584
688,20,Ticks_Linear_8,316,1,48,27,938622020
688,20,Ticks_Linear_8,317,5,42,127,939049304
688,20,Ticks_Linear_8,318,1,48,38,939156084
688,20,Ticks_Linear_8,319,5,42,127,939548932
688,20,Ticks_Linear_8,320,1,48,30,939683272
688,20,Ticks_Linear_8,321,5,42,127,940048856
688,20,Ticks_Linear_8,322,1,48,37,940159836
688,20,Ticks_Linear_8,323,5,42,127,940539192
688,20,Ticks_Linear_8,324,1,48,40,940656308
688,20,Ticks_Linear_8,325,5,42,127,941028860
688,20,Ticks_Linear_8,326,1,48,35,941186800
688,20,Ticks_Linear_8,327,5,42,127,941519272
688,20,Ticks_Linear_8,328,1,48,24,941716068
688,20,Ticks_Linear_8,329,5,42,127,942008936
688,20,Ticks_Linear_8,330,1,48,39,942165740
688,20,Ticks_Linear_8,331,5,42,127,942499052
688,20,Ticks_Linear_8,0,9999,9999,9999,831926348
688,20,Ticks_Linear_8,1,9999,9999,9999,832746588
688,20,Ticks_Linear_8,2,9999,9999,9999,833566780
688,20,Ticks_Linear_8,3,9999,9999,9999,834387048
688,20,Ticks_Linear_8,4,9999,9999,9999,835206244
688,20,Ticks_Linear_8,5,9999,9999,9999,836016228
688,20,Ticks_Linear_8,6,9999,9999,9999,836826208
688,20,Ticks_Linear_8,7,9999,9999,9999,837636192
688,20,Ticks_Linear_8,8,9999,9999,9999,838446176
688,20,Ticks_Linear_8,9,9999,9999,9999,839256184
688,20,Ticks_Linear_8,10,9999,9999,9999,840056956
688,20,Ticks_Linear_8,11,9999,9999,9999,840856700
688,20,Ticks_Linear_8,12,9999,9999,9999,841656424
688,20,Ticks_Linear_8,13,9999,9999,9999,842456172
688,20,Ticks_Linear_8,14,9999,9999,9999,843256916
688,20,Ticks_Linear_8,15,9999,9999,9999,844046460
688,20,Ticks_Linear_8,16,9999,9999,9999,844836968
688,20,Ticks_Linear_8,17,9999,9999,9999,845626460
688,20,Ticks_Linear_8,18,9999,9999,9999,846416992
688,20,Ticks_Linear_8,19,9999,9999,9999,847206480
688,20,Ticks_Linear_8,20,9999,9999,9999,847986756
688,20,Ticks_Linear_8,21,9999,9999,9999,848767084
688,20,Ticks_Linear_8,22,9999,9999,9999,849546364
688,20,Ticks_Linear_8,23,9999,9999,9999,850326616
688,20,Ticks_Linear_8,24,9999,9999,9999,851106944
688,20,Ticks_Linear_8,25,9999,9999,9999,851876936
688,20,Ticks_Linear_8,26,9999,9999,9999,852647004
688,20,Ticks_Linear_8,27,9999,9999,9999,853417072
688,20,Ticks_Linear_8,28,9999,9999,9999,854187064
688,20,Ticks_Linear_8,29,9999,9999,9999,854966344
688,20,Ticks_Linear_8,30,9999,9999,9999,855726152
688,20,Ticks_Linear_8,31,9999,9999,9999,856487008
688,20,Ticks_Linear_8,32,9999,9999,9999,857246816
688,20,Ticks_Linear_8,33,9999,9999,9999,858006628
688,20,Ticks_Linear_8,34,9999,9999,9999,858766436
688,20,Ticks_Linear_8,35,9999,9999,9999,859517036
688,20,Ticks_Linear_8,36,9999,9999,9999,860266584
688,20,Ticks_Linear_8,37,9999,9999,9999,861016136
688,20,Ticks_Linear_8,38,9999,9999,9999,861766732
688,20,Ticks_Linear_8,39,9999,9999,9999,862516332
688,20,Ticks_Linear_8,40,9999,9999,9999,863256644
688,20,Ticks_Linear_8,41,9999,9999,9999,863997056
688,20,Ticks_Linear_8,42,9999,9999,9999,864736344
688,20,Ticks_Linear_8,43,9999,9999,9999,865476684
688,20,Ticks_Linear_8,44,9999,9999,9999,866217020
688,20,Ticks_Linear_8,45,9999,9999,9999,866946124
688,20,Ticks_Linear_8,46,9999,9999,9999,867676276
688,20,Ticks_Linear_8,47,9999,9999,9999,868406328
688,20,Ticks_Linear_8,48,9999,9999,9999,869136456
688,20,Ticks_Linear_8,49,9999,9999,9999,869866608
688,20,Ticks_Linear_8,50,9999,9999,9999,870586428
688,20,Ticks_Linear_8,51,9999,9999,9999,871306316
688,20,Ticks_Linear_8,52,9999,9999,9999,872026212
688,20,Ticks_Linear_8,53,9999,9999,9999,872747124
688,20,Ticks_Linear_8,54,9999,9999,9999,873476160
688,20,Ticks_Linear_8,55,9999,9999,9999,874186844
688,20,Ticks_Linear_8,56,9999,9999,9999,874896472
688,20,Ticks_Linear_8,57,9999,9999,9999,875606112
688,20,Ticks_Linear_8,58,9999,9999,9999,876316768
688,20,Ticks_Linear_8,59,9999,9999,9999,877026404
688,20,Ticks_Linear_8,60,9999,9999,9999,877726828
688,20,Ticks_Linear_8,61,9999,9999,9999,878426204
688,20,Ticks_Linear_8,62,9999,9999,9999,879126616
688,20,Ticks_Linear_8,63,9999,9999,9999,879827044
688,20,Ticks_Linear_8,64,9999,9999,9999,880526416
688,20,Ticks_Linear_8,65,9999,9999,9999,881216580
688,20,Ticks_Linear_8,66,9999,9999,9999,881906792
688,20,Ticks_Linear_8,67,9999,9999,9999,882596956
688,20,Ticks_Linear_8,68,9999,9999,9999,883286072
688,20,Ticks_Linear_8,69,9999,9999,9999,883976292
688,20,Ticks_Linear_8,70,9999,9999,9999,884656196
688,20,Ticks_Linear_8,71,9999,9999,9999,885336172
688,20,Ticks_Linear_8,72,9999,9999,9999,886016128
688,20,Ticks_Linear_8,73,9999,9999,9999,886697076
688,20,Ticks_Linear_8,74,9999,9999,9999,887376976
688,20,Ticks_Linear_8,75,9999,9999,9999,888046680
688,20,Ticks_Linear_8,76,9999,9999,9999,888716400
688,20,Ticks_Linear_8,77,9999,9999,9999,889387064
688,20,Ticks_Linear_8,78,9999,9999,9999,890067044
688,20,Ticks_Linear_8,79,9999,9999,9999,890736764
688,20,Ticks_Linear_8,80,9999,9999,9999,891396200
688,20,Ticks_Linear_8,81,9999,9999,9999,892056632
688,20,Ticks_Linear_8,82,9999,9999,9999,892716144
688,20,Ticks_Linear_8,83,9999,9999,9999,893376572
688,20,Ticks_Linear_8,84,9999,9999,9999,894037084
688,20,Ticks_Linear_8,85,9999,9999,9999,894686336
688,20,Ticks_Linear_8,86,9999,9999,9999,895336576
688,20,Ticks_Linear_8,87,9999,9999,9999,895986800
688,20,Ticks_Linear_8,88,9999,9999,9999,896637048
688,20,Ticks_Linear_8,89,9999,9999,9999,897286228
688,20,Ticks_Linear_8,90,9999,9999,9999,897926216
688,20,Ticks_Linear_8,91,9999,9999,9999,898566256
688,20,Ticks_Linear_8,92,9999,9999,9999,899206240
688,20,Ticks_Linear_8,93,9999,9999,9999,899846208
688,20,Ticks_Linear_8,94,9999,9999,9999,900486272
688,20,Ticks_Linear_8,95,9999,9999,9999,901117016
688,20,Ticks_Linear_8,96,9999,9999,9999,901746752
688,20,Ticks_Linear_8,97,9999,9999,9999,902376524
688,20,Ticks_Linear_8,98,9999,9999,9999,903006336
688,20,Ticks_Linear_8,99,9999,9999,9999,903637080
688,20,Ticks_Linear_8,100,9999,9999,9999,904256624
688,20,Ticks_Linear_8,101,9999,9999,9999,904876152
688,20,Ticks_Linear_8,102,9999,9999,9999,905496648
688,20,Ticks_Linear_8,103,9999,9999,9999,906116184
688,20,Ticks_Linear_8,104,9999,9999,9999,906736752
688,20,Ticks_Linear_8,105,9999,9999,9999,907347060
688,20,Ticks_Linear_8,106,9999,9999,9999,907956320
688,20,Ticks_Linear_8,107,9999,9999,9999,908566628
688,20,Ticks_Linear_8,108,9999,9999,9999,909176960
688,20,Ticks_Linear_8,109,9999,9999,9999,909786220
688,20,Ticks_Linear_8,110,9999,9999,9999,910386280
688,20,Ticks_Linear_8,111,9999,9999,9999,910986328
688,20,Ticks_Linear_8,112,9999,9999,9999,911586372
688,20,Ticks_Linear_8,113,9999,9999,9999,912186444
688,20,Ticks_Linear_8,114,9999,9999,9999,912786500
688,20,Ticks_Linear_8,115,9999,9999,9999,913376364
688,20,Ticks_Linear_8,116,9999,9999,9999,913966152
688,20,Ticks_Linear_8,117,9999,9999,9999,914557016
688,20,Ticks_Linear_8,118,9999,9999,9999,915146872
688,20,Ticks_Linear_8,119,9999,9999,9999,915736660
688,20,Ticks_Linear_8,120,9999,9999,9999,916316224
688,20,Ticks_Linear_8,121,9999,9999,9999,916896872
688,20,Ticks_Linear_8,122,9999,9999,9999,917476476
688,20,Ticks_Linear_8,123,9999,9999,9999,918057052
688,20,Ticks_Linear_8,124,9999,9999,9999,918636612
688,20,Ticks_Linear_8,125,9999,9999,9999,919207004
688,20,Ticks_Linear_8,126,9999,9999,9999,919776356
688,20,Ticks_Linear_8,127,9999,9999,9999,920346748
688,20,Ticks_Linear_8,128,9999,9999,9999,920917092
688,20,Ticks_Linear_8,129,9999,9999,9999,921486440
688,20,Ticks_Linear_8,130,9999,9999,9999,922046572
688,20,Ticks_Linear_8,131,9999,9999,9999,922606708
688,20,Ticks_Linear_8,132,9999,9999,9999,923166840
688,20,Ticks_Linear_8,133,9999,9999,9999,923726924
688,20,Ticks_Linear_8,134,9999,9999,9999,924287060
688,20,Ticks_Linear_8,135,9999,9999,9999,924836932
688,20,Ticks_Linear_8,136,9999,9999,9999,925386876
688,20,Ticks_Linear_8,137,9999,9999,9999,925936756
688,20,Ticks_Linear_8,138,9999,9999,9999,926486632
688,20,Ticks_Linear_8,139,9999,9999,9999,927036524
688,20,Ticks_Linear_8,140,9999,9999,9999,927576140
688,20,Ticks_Linear_8,141,9999,9999,9999,928116804
688,20,Ticks_Linear_8,142,9999,9999,9999,928656500
688,20,Ticks_Linear_8,143,9999,9999,9999,929196108
688,20,Ticks_Linear_8,144,9999,9999,9999,929736808
688,20,Ticks_Linear_8,145,9999,9999,9999,930266204
688,20,Ticks_Linear_8,146,9999,9999,9999,930796612
688,20,Ticks_Linear_8,147,9999,9999,9999,931327088
688,20,Ticks_Linear_8,148,9999,9999,9999,931856448
688,20,Ticks_Linear_8,149,9999,9999,9999,932386924
688,20,Ticks_Linear_8,150,9999,9999,9999,932907072
688,20,Ticks_Linear_8,151,9999,9999,9999,933436528
688,20,Ticks_Linear_8,152,9999,9999,9999,933956672
688,20,Ticks_Linear_8,153,9999,9999,9999,934476892
688,20,Ticks_Linear_8,154,9999,9999,9999,934997112
688,20,Ticks_Linear_8,155,9999,9999,9999,935507072
688,20,Ticks_Linear_8,156,9999,9999,9999,936016956
688,20,Ticks_Linear_8,157,9999,9999,9999,936526916
688,20,Ticks_Linear_8,158,9999,9999,9999,937036872
688,20,Ticks_Linear_8,159,9999,9999,9999,937546828
688,20,Ticks_Linear_8,160,9999,9999,9999,938046536
688,20,Ticks_Linear_8,161,9999,9999,9999,938546284
688,20,Ticks_Linear_8,162,9999,9999,9999,939047008
688,20,Ticks_Linear_8,163,9999,9999,9999,939546708
688,20,Ticks_Linear_8,164,9999,9999,9999,940046408
688,20,Ticks_Linear_8,165,9999,9999,9999,940536896
688,20,Ticks_Linear_8,166,9999,9999,9999,941026412
688,20,Ticks_Linear_8,167,9999,9999,9999,941516900
688,20,Ticks_Linear_8,168,9999,9999,9999,942006340
688,20,Ticks_Linear_8,169,9999,9999,9999,942496828
689,10,Ticks_ISO_T2_5,0,5,42,127,952241584
689,10,Ticks_ISO_T2_5,1,5,42,127,952742276
689,10,Ticks_ISO_T2_5,2,1,48,28,953227664
689,10,Ticks_ISO_T2_5,3,5,42,127,953242056
689,10,Ticks_ISO_T2_5,4,1,48,28,953730872
689,10,Ticks_ISO_T2_5,5,5,42,127,953741680
689,10,Ticks_ISO_T2_5,6,1,48,31,954195264
689,10,Ticks_ISO_T2_5,7,5,42,127,954242792
689,10,Ticks_ISO_T2_5,8,1,48,32,954717172
689,10,Ticks_ISO_T2_5,9,5,42,127,954742264
689,10,Ticks_ISO_T2_5,10,1,48,31,955188452
689,10,Ticks_ISO_T2_5,11,5,42,127,955241812
689,10,Ticks_ISO_T2_5,12,1,48,29,955653708
689,10,Ticks_ISO_T2_5,13,5,42,127,955741504
689,10,Ticks_ISO_T2_5,14,1,48,22,956188936
689,10,Ticks_ISO_T2_5,15,5,42,127,956242396
689,10,Ticks_ISO_T2_5,16,1,48,29,956686908
689,10,Ticks_ISO_T2_5,17,5,42,127,956741944
689,10,Ticks_ISO_T2_5,18,1,48,32,957177776
689,10,Ticks_ISO_T2_5,19,5,42,127,957241636
689,10,Ticks_ISO_T2_5,20,1,48,31,957699612
689,10,Ticks_ISO_T2_5,21,5,42,127,957741604
689,10,Ticks_ISO_T2_5,22,1,48,34,958181952
689,10,Ticks_ISO_T2_5,23,5,42,127,958242272
689,10,Ticks_ISO_T2_5,24,1,48,30,958688152
689,10,Ticks_ISO_T2_5,25,5,42,127,958741816
689,10,Ticks_ISO_T2_5,26,1,48,31,959183808
689,10,Ticks_ISO_T2_5,27,5,42,127,959241512
689,10,Ticks_ISO_T2_5,28,1,48,32,959682380
689,10,Ticks_ISO_T2_5,29,5,42,127,959742328
689,10,Ticks_ISO_T2_5,30,1,48,29,960193296
689,10,Ticks_ISO_T2_5,31,5,42,127,960241952
689,10,Ticks_ISO_T2_5,32,1,48,36,960688356
689,10,Ticks_ISO_T2_5,33,5,42,127,960741720
689,10,Ticks_ISO_T2_5,34,5,42,127,961241568
689,10,Ticks_ISO_T2_5,35,1,48,30,961244012
689,10,Ticks_ISO_T2_5,36,5,42,127,961742312
689,10,Ticks_ISO_T2_5,37,1,48,28,961749692
689,10,Ticks_ISO_T2_5,38,5,42,127,962241856
689,10,Ticks_ISO_T2_5,39,1,48,29,962726048
689,10,Ticks_ISO_T2_5,40,5,42,127,962741640
689,10,Ticks_ISO_T2_5,41,1,48,32,963232852
689,10,Ticks_ISO_T2_5,42,5,42,127,963242308
689,10,Ticks_ISO_T2_5,43,1,48,34,963741480
689,10,Ticks_ISO_T2_5,44,5,42,127,963743120
689,10,Ticks_ISO_T2_5,45,5,42,127,964241704
689,10,Ticks_ISO_T2_5,46,1,48,31,964253348
689,10,Ticks_ISO_T2_5,47,1,48,32,964734920
689,10,Ticks_ISO_T2_5,48,5,42,127,964741616
689,10,Ticks_ISO_T2_5,49,1,48,27,965230132
689,10,Ticks_ISO_T2_5,50,5,42,127,965242284
689,10,Ticks_ISO_T2_5,51,5,42,127,965742060
689,10,Ticks_ISO_T2_5,52,1,48,28,965748100
689,10,Ticks_ISO_T2_5,53,1,48,22,966201552
689,10,Ticks_ISO_T2_5,54,5,42,127,966241600
689,10,Ticks_ISO_T2_5,55,5,42,127,966742348
689,10,Ticks_ISO_T2_5,56,1,48,32,966744360
689,10,Ticks_ISO_T2_5,57,5,42,127,967242192
689,10,Ticks_ISO_T2_5,58,1,48,32,967258552
689,10,Ticks_ISO_T2_5,59,5,42,127,967741812
689,10,Ticks_ISO_T2_5,60,1,48,28,967760940
689,10,Ticks_ISO_T2_5,61,5,42,127,968241632
689,10,Ticks_ISO_T2_5,62,1,48,35,968262804
689,10,Ticks_ISO_T2_5,63,5,42,127,968742372
689,10,Ticks_ISO_T2_5,64,1,48,30,968772588
689,10,Ticks_ISO_T2_5,65,1,48,35,969241620
689,10,Ticks_ISO_T2_5,66,5,42,127,969243104
689,10,Ticks_ISO_T2_5,67,1,48,36,969719060
689,10,Ticks_ISO_T2_5,68,5,42,127,969741604
689,10,Ticks_ISO_T2_5,69,5,42,127,970242356
689,10,Ticks_ISO_T2_5,70,1,48,37,970247200
689,10,Ticks_ISO_T2_5,71,5,42,127,970742048
689,10,Ticks_ISO_T2_5,72,1,48,33,970744712
689,10,Ticks_ISO_T2_5,73,1,48,37,971236012
689,10,Ticks_ISO_T2_5,74,5,42,127,971241808
689,10,Ticks_ISO_T2_5,75,5,42,127,971741584
689,10,Ticks_ISO_T2_5,76,1,48,33,971795568
689,10,Ticks_ISO_T2_5,77,5,42,127,972242252
689,10,Ticks_ISO_T2_5,78,1,48,32,972282024
689,10,Ticks_ISO_T2_5,79,1,48,36,972738764
689,10,Ticks_ISO_T2_5,80,5,42,127,972742236
689,10,Ticks_ISO_T2_5,81,1,48,37,973236288
689,10,Ticks_ISO_T2_5,82,5,42,127,973241632
689,10,Ticks_ISO_T2_5,83,5,42,127,973741408
689,10,Ticks_ISO_T2_5,84,1,48,28,973756796
689,10,Ticks_ISO_T2_5,85,5,42,127,974242224
689,10,Ticks_ISO_T2_5,86,1,48,28,974269352
689,10,Ticks_ISO_T2_5,87,1,48,35,974736572
689,10,Ticks_ISO_T2_5,88,5,42,127,974741988
689,10,Ticks_ISO_T2_5,89,1,48,37,975230056
689,10,Ticks_ISO_T2_5,90,5,42,127,975241608
689,10,Ticks_ISO_T2_5,91,1,48,36,975721292
689,10,Ticks_ISO_T2_5,92,5,42,127,975742272
689,10,Ticks_ISO_T2_5,93,5,42,127,976241976
689,10,Ticks_ISO_T2_5,94,1,48,33,976247636
689,10,Ticks_ISO_T2_5,95,1,48,35,976737964
689,10,Ticks_ISO_T2_5,96,5,42,127,976741812
689,10,Ticks_ISO_T2_5,97,5,42,127,977241512
689,10,Ticks_ISO_T2_5,98,1,48,35,977242480
689,10,Ticks_ISO_T2_5,99,5,42,127,977742328
689,10,Ticks_ISO_T2_5,100,1,48,37,977770808
689,10,Ticks_ISO_T2_5,101,5,42,127,978242024
689,10,Ticks_ISO_T2_5,102,1,48,35,978267132
689,10,Ticks_ISO_T2_5,103,5,42,127,978741792
689,10,Ticks_ISO_T2_5,104,1,48,40,978788896
689,10,Ticks_ISO_T2_5,105,1,48,25,979232072
689,10,Ticks_ISO_T2_5,106,5,42,127,979242352
689,10,Ticks_ISO_T2_5,107,1,48,33,979705140
689,10,Ticks_ISO_T2_5,108,5,42,127,979742048
689,10,Ticks_ISO_T2_5,109,1,48,36,980204984
689,10,Ticks_ISO_T2_5,110,5,42,127,980241968
689,10,Ticks_ISO_T2_5,111,1,48,32,980698844
689,10,Ticks_ISO_T2_5,112,5,42,127,980741440
689,10,Ticks_ISO_T2_5,113,1,48,35,981203476
689,10,Ticks_ISO_T2_5,114,5,42,127,981242180
689,10,Ticks_ISO_T2_5,115,1,48,29,981711028
689,10,Ticks_ISO_T2_5,116,5,42,127,981742096
689,10,Ticks_ISO_T2_5,117,1,48,34,982240976
689,10,Ticks_ISO_T2_5,118,5,42,127,982242544
689,10,Ticks_ISO_T2_5,119,1,48,34,982725220
689,10,Ticks_ISO_T2_5,120,5,42,127,982742312
689,10,Ticks_ISO_T2_5,121,1,48,33,983231804
689,10,Ticks_ISO_T2_5,122,5,42,127,983242084
689,10,Ticks_ISO_T2_5,123,1,48,34,983720648
689,10,Ticks_ISO_T2_5,124,5,42,127,983742076
689,10,Ticks_ISO_T2_5,125,1,48,28,984229924
689,10,Ticks_ISO_T2_5,126,5,42,127,984241396
689,10,Ticks_ISO_T2_5,127,1,48,36,984730508
689,10,Ticks_ISO_T2_5,128,5,42,127,984742216
689,10,Ticks_ISO_T2_5,129,1,48,41,985177848
689,10,Ticks_ISO_T2_5,130,5,42,127,985241984
689,10,Ticks_ISO_T2_5,131,1,48,33,985692948
689,10,Ticks_ISO_T2_5,132,5,42,127,985741900
689,10,Ticks_ISO_T2_5,133,1,48,22,986220920
689,10,Ticks_ISO_T2_5,134,5,42,127,986242492
689,10,Ticks_ISO_T2_5,135,1,48,37,986681264
689,10,Ticks_ISO_T2_5,136,5,42,127,986742036
689,10,Ticks_ISO_T2_5,137,1,48,35,987197268
689,10,Ticks_ISO_T2_5,138,5,42,127,987241956
689,10,Ticks_ISO_T2_5,139,1,48,29,987686760
689,10,Ticks_ISO_T2_5,140,5,42,127,987741872
689,10,Ticks_ISO_T2_5,141,1,48,30,988226732
689,10,Ticks_ISO_T2_5,142,5,42,127,988242244
689,10,Ticks_ISO_T2_5,143,1,48,34,988715624
689,10,Ticks_ISO_T2_5,144,5,42,127,988741940
689,10,Ticks_ISO_T2_5,145,1,48,32,989190268
689,10,Ticks_ISO_T2_5,146,5,42,127,989241932
689,10,Ticks_ISO_T2_5,147,1,48,28,989709032
689,10,Ticks_ISO_T2_5,148,5,42,127,989741304
689,10,Ticks_ISO_T2_5,149,5,42,127,990242276
689,10,Ticks_ISO_T2_5,150,1,48,22,990687580
689,10,Ticks_ISO_T2_5,151,5,42,127,990741988
689,10,Ticks_ISO_T2_5,152,5,42,127,991241764
689,10,Ticks_ISO_T2_5,153,1,48,22,991316788
689,10,Ticks_ISO_T2_5,154,5,42,127,991742432
689,10,Ticks_ISO_T2_5,155,1,48,24,991828456
689,10,Ticks_ISO_T2_5,156,5,42,127,992241976
689,10,Ticks_ISO_T2_5,157,1,48,15,992301424
689,10,Ticks_ISO_T2_5,158,1,48,28,992738348
689,10,Ticks_ISO_T2_5,159,5,42,127,992741892
689,10,Ticks_ISO_T2_5,160,5,42,127,993241740
689,10,Ticks_ISO_T2_5,161,1,48,35,993242632
689,10,Ticks_ISO_T2_5,162,1,48,38,993734584
689,10,Ticks_ISO_T2_5,163,5,42,127,993742104
689,10,Ticks_ISO_T2_5,164,1,48,28,994203096
689,10,Ticks_ISO_T2_5,165,5,42,127,994242024
689,10,Ticks_ISO_T2_5,166,1,48,34,994737572
689,10,Ticks_ISO_T2_5,167,5,42,127,994741792
689,10,Ticks_ISO_T2_5,168,1,48,31,995214300
689,10,Ticks_ISO_T2_5,169,5,42,127,995242460
689,10,Ticks_ISO_T2_5,170,1,48,28,995721848
689,10,Ticks_ISO_T2_5,171,5,42,127,995741928
689,10,Ticks_ISO_T2_5,172,1,48,34,996192672
689,10,Ticks_ISO_T2_5,173,5,42,127,996241776
689,10,Ticks_ISO_T2_5,174,1,48,29,996691844
689,10,Ticks_ISO_T2_5,175,5,42,127,996741544
689,10,Ticks_ISO_T2_5,176,1,48,35,997174636
689,10,Ticks_ISO_T2_5,177,5,42,127,997242136
689,10,Ticks_ISO_T2_5,178,1,48,13,997715764
689,10,Ticks_ISO_T2_5,179,5,42,127,997742056
689,10,Ticks_ISO_T2_5,180,1,48,36,998161656
689,10,Ticks_ISO_T2_5,181,5,42,127,998241676
689,10,Ticks_ISO_T2_5,182,5,42,127,998742496
689,10,Ticks_ISO_T2_5,183,5,42,127,999242140
689,10,Ticks_ISO_T2_5,184,5,42,127,999741780
689,10,Ticks_ISO_T2_5,185,1,48,39,999977596
689,10,Ticks_ISO_T2_5,186,5,42,127,1000241696
689,10,Ticks_ISO_T2_5,187,1,48,30,1000456644
689,10,Ticks_ISO_T2_5,188,5,42,127,1000742340
689,10,Ticks_ISO_T2_5,189,1,48,35,1000957760
689,10,Ticks_ISO_T2_5,190,5,42,127,1001241884
689,10,Ticks_ISO_T2_5,191,1,48,33,1001458204
689,10,Ticks_ISO_T2_5,192,5,42,127,1001741580
689,10,Ticks_ISO_T2_5,193,1,48,38,1001940616
689,10,Ticks_ISO_T2_5,194,5,42,127,1002242468
689,10,Ticks_ISO_T2_5,195,1,48,35,1002449140
689,10,Ticks_ISO_T2_5,196,5,42,127,1002742164
689,10,Ticks_ISO_T2_5,197,1,48,38,1002901036
689,10,Ticks_ISO_T2_5,198,5,42,127,1003241932
689,10,Ticks_ISO_T2_5,199,1,48,39,1003375972
689,10,Ticks_ISO_T2_5,200,5,42,127,1003741404
689,10,Ticks_ISO_T2_5,201,1,48,39,1003840740
689,10,Ticks_ISO_T2_5,202,5,42,127,1004242296
689,10,Ticks_ISO_T2_5,203,1,48,37,1004333156
689,10,Ticks_ISO_T2_5,204,5,42,127,1004741916
689,10,Ticks_ISO_T2_5,205,1,48,29,1004811532
689,10,Ticks_ISO_T2_5,206,5,42,127,1005241832
689,10,Ticks_ISO_T2_5,207,1,48,31,1005286692
689,10,Ticks_ISO_T2_5,208,5,42,127,1005741304
689,10,Ticks_ISO_T2_5,209,1,48,36,1005772544
689,10,Ticks_ISO_T2_5,210,5,42,127,1006242344
689,10,Ticks_ISO_T2_5,211,1,48,37,1006248456
689,10,Ticks_ISO_T2_5,212,1,48,40,1006734740
689,10,Ticks_ISO_T2_5,213,5,42,127,1006741808
689,10,Ticks_ISO_T2_5,214,1,48,34,1007225460
689,10,Ticks_ISO_T2_5,215,5,42,127,1007241504
689,10,Ticks_ISO_T2_5,216,1,48,41,1007720596
689,10,Ticks_ISO_T2_5,217,5,42,127,1007742468
689,10,Ticks_ISO_T2_5,218,1,48,39,1008213256
689,10,Ticks_ISO_T2_5,219,5,42,127,1008242236
689,10,Ticks_ISO_T2_5,220,1,48,27,1008711756
689,10,Ticks_ISO_T2_5,221,5,42,127,1008741708
689,10,Ticks_ISO_T2_5,222,1,48,38,1009208304
689,10,Ticks_ISO_T2_5,223,5,42,127,1009241400
689,10,Ticks_ISO_T2_5,224,1,48,31,1009727528
689,10,Ticks_ISO_T2_5,225,5,42,127,1009742364
689,10,Ticks_ISO_T2_5,226,1,48,42,1010208420
689,10,Ticks_ISO_T2_5,227,5,42,127,1010241836
689,10,Ticks_ISO_T2_5,228,1,48,35,1010660692
689,10,Ticks_ISO_T2_5,229,5,42,127,1010741532
689,10,Ticks_ISO_T2_5,230,1,48,29,1011206984
689,10,Ticks_ISO_T2_5,231,5,42,127,1011242472
689,10,Ticks_ISO_T2_5,232,5,42,127,1011742472
689,10,Ticks_ISO_T2_5,233,1,48,26,1011758312
689,10,Ticks_ISO_T2_5,234,1,48,38,1012222456
689,10,Ticks_ISO_T2_5,235,5,42,127,1012241712
689,10,Ticks_ISO_T2_5,236,1,48,35,1012704196
689,10,Ticks_ISO_T2_5,237,5,42,127,1012741408
689,10,Ticks_ISO_T2_5,238,1,48,27,1013207708
689,10,Ticks_ISO_T2_5,239,5,42,127,1013242520
689,10,Ticks_ISO_T2_5,240,1,48,33,1013722660
689,10,Ticks_ISO_T2_5,241,5,42,127,1013742364
689,10,Ticks_ISO_T2_5,242,1,48,36,1014206196
689,10,Ticks_ISO_T2_5,243,5,42,127,1014241612
689,10,Ticks_ISO_T2_5,244,1,48,40,1014683976
689,10,Ticks_ISO_T2_5,245,5,42,127,1014742352
689,10,Ticks_ISO_T2_5,246,1,48,37,1015205360
689,10,Ticks_ISO_T2_5,247,5,42,127,1015242272
689,10,Ticks_ISO_T2_5,248,1,48,39,1015691144
689,10,Ticks_ISO_T2_5,249,5,42,127,1015741892
689,10,Ticks_ISO_T2_5,250,1,48,37,1016196152
689,10,Ticks_ISO_T2_5,251,5,42,127,1016241364
689,10,Ticks_ISO_T2_5,252,1,48,32,1016666152
689,10,Ticks_ISO_T2_5,253,5,42,127,1016742328
689,10,Ticks_ISO_T2_5,254,1,48,35,1017173476
689,10,Ticks_ISO_T2_5,0,9999,9999,9999,952239224
689,10,Ticks_ISO_T2_5,1,9999,9999,9999,952739912
689,10,Ticks_ISO_T2_5,2,9999,9999,9999,953239624
689,10,Ticks_ISO_T2_5,3,9999,9999,9999,953739316
689,10,Ticks_ISO_T2_5,4,9999,9999,9999,954240060
689,10,Ticks_ISO_T2_5,5,9999,9999,9999,954739832
689,10,Ticks_ISO_T2_5,6,9999,9999,9999,955239524
689,10,Ticks_ISO_T2_5,7,9999,9999,9999,955739220
689,10,Ticks_ISO_T2_5,8,9999,9999,9999,956239960
689,10,Ticks_ISO_T2_5,9,9999,9999,9999,956739656
689,10,Ticks_ISO_T2_5,10,9999,9999,9999,957239352
689,10,Ticks_ISO_T2_5,11,9999,9999,9999,957739096
689,10,Ticks_ISO_T2_5,12,9999,9999,9999,958239836
689,10,Ticks_ISO_T2_5,13,9999,9999,9999,958739532
689,10,Ticks_ISO_T2_5,14,9999,9999,9999,959239228
689,10,Ticks_ISO_T2_5,15,9999,9999,9999,959739968
689,10,Ticks_ISO_T2_5,16,9999,9999,9999,960239664
689,10,Ticks_ISO_T2_5,17,9999,9999,9999,960739432
689,10,Ticks_ISO_T2_5,18,9999,9999,9999,961239136
689,10,Ticks_ISO_T2_5,19,9999,9999,9999,961739876
689,10,Ticks_ISO_T2_5,20,9999,9999,9999,962239572
689,10,Ticks_ISO_T2_5,21,9999,9999,9999,962739280
689,10,Ticks_ISO_T2_5,22,9999,9999,9999,963240020
689,10,Ticks_ISO_T2_5,23,9999,9999,9999,963739720
689,10,Ticks_ISO_T2_5,24,9999,9999,9999,964239416
689,10,Ticks_ISO_T2_5,25,9999,9999,9999,964739180
689,10,Ticks_ISO_T2_5,26,9999,9999,9999,965239924
689,10,Ticks_ISO_T2_5,27,9999,9999,9999,965739624
689,10,Ticks_ISO_T2_5,28,9999,9999,9999,966239316
689,10,Ticks_ISO_T2_5,29,9999,9999,9999,966740060
689,10,Ticks_ISO_T2_5,30,9999,9999,9999,967239756
689,10,Ticks_ISO_T2_5,31,9999,9999,9999,967739448
689,10,Ticks_ISO_T2_5,32,9999,9999,9999,968239196
689,10,Ticks_ISO_T2_5,33,9999,9999,9999,968739936
689,10,Ticks_ISO_T2_5,34,9999,9999,9999,969239632
689,10,Ticks_ISO_T2_5,35,9999,9999,9999,969739320
689,10,Ticks_ISO_T2_5,36,9999,9999,9999,970240068
689,10,Ticks_ISO_T2_5,37,9999,9999,9999,970739760
689,10,Ticks_ISO_T2_5,38,9999,9999,9999,971239524
689,10,Ticks_ISO_T2_5,39,9999,9999,9999,971739224
689,10,Ticks_ISO_T2_5,40,9999,9999,9999,972239964
689,10,Ticks_ISO_T2_5,41,9999,9999,9999,972739652
689,10,Ticks_ISO_T2_5,42,9999,9999,9999,973239348
689,10,Ticks_ISO_T2_5,43,9999,9999,9999,973739124
689,10,Ticks_ISO_T2_5,44,9999,9999,9999,974239864
689,10,Ticks_ISO_T2_5,45,9999,9999,9999,974739552
689,10,Ticks_ISO_T2_5,46,9999,9999,9999,975239248
689,10,Ticks_ISO_T2_5,47,9999,9999,9999,975739988
689,10,Ticks_ISO_T2_5,48,9999,9999,9999,976239688
689,10,Ticks_ISO_T2_5,49,9999,9999,9999,976739376
689,10,Ticks_ISO_T2_5,50,9999,9999,9999,977239152
689,10,Ticks_ISO_T2_5,51,9999,9999,9999,977739892
689,10,Ticks_ISO_T2_5,52,9999,9999,9999,978239588
689,10,Ticks_ISO_T2_5,53,9999,9999,9999,978739284
689,10,Ticks_ISO_T2_5,54,9999,9999,9999,979239992
689,10,Ticks_ISO_T2_5,55,9999,9999,9999,979739764
689,10,Ticks_ISO_T2_5,56,9999,9999,9999,980239460
689,10,Ticks_ISO_T2_5,57,9999,9999,9999,980739152
689,10,Ticks_ISO_T2_5,58,9999,9999,9999,981239892
689,10,Ticks_ISO_T2_5,59,9999,9999,9999,981739588
689,10,Ticks_ISO_T2_5,60,9999,9999,9999,982239292
689,10,Ticks_ISO_T2_5,61,9999,9999,9999,982740024
689,10,Ticks_ISO_T2_5,62,9999,9999,9999,983239796
689,10,Ticks_ISO_T2_5,63,9999,9999,9999,983739492
689,10,Ticks_ISO_T2_5,64,9999,9999,9999,984239184
689,10,Ticks_ISO_T2_5,65,9999,9999,9999,984739928
689,10,Ticks_ISO_T2_5,66,9999,9999,9999,985239620
689,10,Ticks_ISO_T2_5,67,9999,9999,9999,985739316
689,10,Ticks_ISO_T2_5,68,9999,9999,9999,986240060
689,10,Ticks_ISO_T2_5,69,9999,9999,9999,986739824
689,10,Ticks_ISO_T2_5,70,9999,9999,9999,987239520
689,10,Ticks_ISO_T2_5,71,9999,9999,9999,987739212
689,10,Ticks_ISO_T2_5,72,9999,9999,9999,988239960
689,10,Ticks_ISO_T2_5,73,9999,9999,9999,988739652
689,10,Ticks_ISO_T2_5,74,9999,9999,9999,989239348
689,10,Ticks_ISO_T2_5,75,9999,9999,9999,989739092
689,10,Ticks_ISO_T2_5,76,9999,9999,9999,990239840
689,10,Ticks_ISO_T2_5,77,9999,9999,9999,990739552
689,10,Ticks_ISO_T2_5,78,9999,9999,9999,991239256
689,10,Ticks_ISO_T2_5,79,9999,9999,9999,991739996
689,10,Ticks_ISO_T2_5,80,9999,9999,9999,992239692
689,10,Ticks_ISO_T2_5,81,9999,9999,9999,992739384
689,10,Ticks_ISO_T2_5,82,9999,9999,9999,993239156
689,10,Ticks_ISO_T2_5,83,9999,9999,9999,993739892
689,10,Ticks_ISO_T2_5,84,9999,9999,9999,994239588
689,10,Ticks_ISO_T2_5,85,9999,9999,9999,994739280
689,10,Ticks_ISO_T2_5,86,9999,9999,9999,995240024
689,10,Ticks_ISO_T2_5,87,9999,9999,9999,995739716
689,10,Ticks_ISO_T2_5,88,9999,9999,9999,996239412
689,10,Ticks_ISO_T2_5,89,9999,9999,9999,996739184
689,10,Ticks_ISO_T2_5,90,9999,9999,9999,997239924
689,10,Ticks_ISO_T2_5,91,9999,9999,9999,997739620
689,10,Ticks_ISO_T2_5,92,9999,9999,9999,998239312
689,10,Ticks_ISO_T2_5,93,9999,9999,9999,998740060
689,10,Ticks_ISO_T2_5,94,9999,9999,9999,999239776
689,10,Ticks_ISO_T2_5,95,9999,9999,9999,999739492
689,10,Ticks_ISO_T2_5,96,9999,9999,9999,1000239164
689,10,Ticks_ISO_T2_5,97,9999,9999,9999,1000739904
689,10,Ticks_ISO_T2_5,98,9999,9999,9999,1001239672
689,10,Ticks_ISO_T2_5,99,9999,9999,9999,1001739368
689,10,Ticks_ISO_T2_5,100,9999,9999,9999,1002240108
689,10,Ticks_ISO_T2_5,101,9999,9999,9999,1002739804
689,10,Ticks_ISO_T2_5,102,9999,9999,9999,1003239500
689,10,Ticks_ISO_T2_5,103,9999,9999,9999,1003739192
689,10,Ticks_ISO_T2_5,104,9999,9999,9999,1004239932
689,10,Ticks_ISO_T2_5,105,9999,9999,9999,1004739704
689,10,Ticks_ISO_T2_5,106,9999,9999,9999,1005239396
689,10,Ticks_ISO_T2_5,107,9999,9999,9999,1005739092
689,10,Ticks_ISO_T2_5,108,9999,9999,9999,1006239836
689,10,Ticks_ISO_T2_5,109,9999,9999,9999,1006739520
689,10,Ticks_ISO_T2_5,110,9999,9999,9999,1007239216
689,10,Ticks_ISO_T2_5,111,9999,9999,9999,1007739956
689,10,Ticks_ISO_T2_5,112,9999,9999,9999,1008239728
689,10,Ticks_ISO_T2_5,113,9999,9999,9999,1008739420
689,10,Ticks_ISO_T2_5,114,9999,9999,9999,1009239116
689,10,Ticks_ISO_T2_5,115,9999,9999,9999,1009739856
689,10,Ticks_ISO_T2_5,116,9999,9999,9999,1010239552
689,10,Ticks_ISO_T2_5,117,9999,9999,9999,1010739320
689,10,Ticks_ISO_T2_5,118,9999,9999,9999,1011240036
689,10,Ticks_ISO_T2_5,119,9999,9999,9999,1011739736
689,10,Ticks_ISO_T2_5,120,9999,9999,9999,1012239424
689,10,Ticks_ISO_T2_5,121,9999,9999,9999,1012739120
689,10,Ticks_ISO_T2_5,122,9999,9999,9999,1013239860
689,10,Ticks_ISO_T2_5,123,9999,9999,9999,1013739632
689,10,Ticks_ISO_T2_5,124,9999,9999,9999,1014239324
689,10,Ticks_ISO_T2_5,125,9999,9999,9999,1014740068
689,10,Ticks_ISO_T2_5,126,9999,9999,9999,1015239764
689,10,Ticks_ISO_T2_5,127,9999,9999,9999,1015739456
689,10,Ticks_ISO_T2_5,128,9999,9999,9999,1016239152
689,10,Ticks_ISO_T2_5,129,9999,9999,9999,1016739892
6810,9,Ticks_ISO_T2_8,0,5,42,127,1028387292
6810,9,Ticks_ISO_T2_8,1,5,42,127,1029186848
6810,9,Ticks_ISO_T2_8,2,5,42,127,1029986680
6810,9,Ticks_ISO_T2_8,3,1,48,34,1030082844
6810,9,Ticks_ISO_T2_8,4,5,42,127,1030786340
6810,9,Ticks_ISO_T2_8,5,1,48,26,1030924320
6810,9,Ticks_ISO_T2_8,6,5,42,127,1031587192
6810,9,Ticks_ISO_T2_8,7,1,48,30,1031804036
6810,9,Ticks_ISO_T2_8,8,5,42,127,1032387004
6810,9,Ticks_ISO_T2_8,9,1,48,36,1032574968
6810,9,Ticks_ISO_T2_8,10,5,42,127,1033186812
6810,9,Ticks_ISO_T2_8,11,1,48,35,1033322868
6810,9,Ticks_ISO_T2_8,12,5,42,127,1033986544
6810,9,Ticks_ISO_T2_8,13,1,48,32,1034081764
6810,9,Ticks_ISO_T2_8,14,5,42,127,1034787176
6810,9,Ticks_ISO_T2_8,15,1,48,27,1034816800
6810,9,Ticks_ISO_T2_8,16,1,48,33,1035548948
6810,9,Ticks_ISO_T2_8,17,5,42,127,1035586852
6810,9,Ticks_ISO_T2_8,18,1,48,30,1036382512
6810,9,Ticks_ISO_T2_8,19,5,42,127,1036386808
6810,9,Ticks_ISO_T2_8,20,5,42,127,1037186400
6810,9,Ticks_ISO_T2_8,21,1,48,31,1037209488
6810,9,Ticks_ISO_T2_8,22,1,48,30,1037983472
6810,9,Ticks_ISO_T2_8,23,5,42,127,1037987176
6810,9,Ticks_ISO_T2_8,24,1,48,37,1038768548
6810,9,Ticks_ISO_T2_8,25,5,42,127,1038786908
6810,9,Ticks_ISO_T2_8,26,1,48,32,1039545392
6810,9,Ticks_ISO_T2_8,27,5,42,127,1039586788
6810,9,Ticks_ISO_T2_8,28,1,48,34,1040337868
6810,9,Ticks_ISO_T2_8,29,5,42,127,1040386600
6810,9,Ticks_ISO_T2_8,30,1,48,19,1041186772
6810,9,Ticks_ISO_T2_8,31,5,42,127,1041188268
6810,9,Ticks_ISO_T2_8,32,1,48,29,1041983508
6810,9,Ticks_ISO_T2_8,33,5,42,127,1041986908
6810,9,Ticks_ISO_T2_8,34,1,48,27,1042769848
6810,9,Ticks_ISO_T2_8,35,5,42,127,1042786788
6810,9,Ticks_ISO_T2_8,36,1,48,33,1043549912
6810,9,Ticks_ISO_T2_8,37,5,42,127,1043586372
6810,9,Ticks_ISO_T2_8,38,1,48,25,1044336552
6810,9,Ticks_ISO_T2_8,39,5,42,127,1044387304
6810,9,Ticks_ISO_T2_8,40,1,48,21,1045159772
6810,9,Ticks_ISO_T2_8,41,5,42,127,1045187036
6810,9,Ticks_ISO_T2_8,42,5,42,127,1045986628
6810,9,Ticks_ISO_T2_8,43,1,48,38,1046107576
6810,9,Ticks_ISO_T2_8,44,5,42,127,1046786584
6810,9,Ticks_ISO_T2_8,45,1,48,26,1046844028
6810,9,Ticks_ISO_T2_8,46,5,42,127,1047587140
6810,9,Ticks_ISO_T2_8,47,1,48,20,1047719756
6810,9,Ticks_ISO_T2_8,48,5,42,127,1048386900
6810,9,Ticks_ISO_T2_8,49,1,48,39,1048484484
6810,9,Ticks_ISO_T2_8,50,5,42,127,1049186560
6810,9,Ticks_ISO_T2_8,51,1,48,27,1049301276
6810,9,Ticks_ISO_T2_8,52,5,42,127,1049986516
6810,9,Ticks_ISO_T2_8,53,1,48,27,1050100112
6810,9,Ticks_ISO_T2_8,54,5,42,127,1050787076
6810,9,Ticks_ISO_T2_8,55,1,48,28,1050867012
6810,9,Ticks_ISO_T2_8,56,5,42,127,1051586808
6810,9,Ticks_ISO_T2_8,57,1,48,29,1051611984
6810,9,Ticks_ISO_T2_8,58,5,42,127,1052386612
6810,9,Ticks_ISO_T2_8,59,1,48,31,1052438496
6810,9,Ticks_ISO_T2_8,60,5,42,127,1053186496
6810,9,Ticks_ISO_T2_8,61,1,48,27,1053277824
6810,9,Ticks_ISO_T2_8,62,5,42,127,1053987128
6810,9,Ticks_ISO_T2_8,63,1,48,22,1054094464
6810,9,Ticks_ISO_T2_8,64,5,42,127,1054786812
6810,9,Ticks_ISO_T2_8,65,1,48,34,1054884616
6810,9,Ticks_ISO_T2_8,66,5,42,127,1055586544
6810,9,Ticks_ISO_T2_8,67,1,48,32,1055668424
6810,9,Ticks_ISO_T2_8,68,5,42,127,1056386352
6810,9,Ticks_ISO_T2_8,69,1,48,47,1056428068
6810,9,Ticks_ISO_T2_8,70,5,42,127,1057187352
6810,9,Ticks_ISO_T2_8,71,1,48,26,1057226000
6810,9,Ticks_ISO_T2_8,72,5,42,127,1057986788
6810,9,Ticks_ISO_T2_8,73,1,48,33,1057988728
6810,9,Ticks_ISO_T2_8,74,5,42,127,1058786524
6810,9,Ticks_ISO_T2_8,75,1,48,30,1058787488
6810,9,Ticks_ISO_T2_8,76,1,48,32,1059500940
6810,9,Ticks_ISO_T2_8,77,5,42,127,1059586472
6810,9,Ticks_ISO_T2_8,78,1,48,30,1060331044
6810,9,Ticks_ISO_T2_8,79,5,42,127,1060387180
6810,9,Ticks_ISO_T2_8,80,1,48,32,1061165780
6810,9,Ticks_ISO_T2_8,81,5,42,127,1061186912
6810,9,Ticks_ISO_T2_8,82,5,42,127,1061986656
6810,9,Ticks_ISO_T2_8,83,1,48,34,1062024924
6810,9,Ticks_ISO_T2_8,84,5,42,127,1062786388
6810,9,Ticks_ISO_T2_8,85,1,48,37,1062813436
6810,9,Ticks_ISO_T2_8,86,5,42,127,1063587316
6810,9,Ticks_ISO_T2_8,87,1,48,32,1063640252
6810,9,Ticks_ISO_T2_8,88,5,42,127,1064387048
6810,9,Ticks_ISO_T2_8,89,1,48,35,1064407672
6810,9,Ticks_ISO_T2_8,90,1,48,36,1065170960
6810,9,Ticks_ISO_T2_8,91,5,42,127,1065186628
6810,9,Ticks_ISO_T2_8,92,5,42,127,1065986368
6810,9,Ticks_ISO_T2_8,93,1,48,26,1066040144
6810,9,Ticks_ISO_T2_8,94,5,42,127,1066787296
6810,9,Ticks_ISO_T2_8,95,1,48,32,1066854764
6810,9,Ticks_ISO_T2_8,96,5,42,127,1067587128
6810,9,Ticks_ISO_T2_8,97,1,48,30,1067619120
6810,9,Ticks_ISO_T2_8,98,5,42,127,1068386564
6810,9,Ticks_ISO_T2_8,99,1,48,23,1068406212
6810,9,Ticks_ISO_T2_8,100,5,42,127,1069186372
6810,9,Ticks_ISO_T2_8,101,1,48,24,1069208336
6810,9,Ticks_ISO_T2_8,102,1,48,42,1069933032
6810,9,Ticks_ISO_T2_8,103,5,42,127,1069987148
6810,9,Ticks_ISO_T2_8,104,1,48,26,1070767696
6810,9,Ticks_ISO_T2_8,105,5,42,127,1070787104
6810,9,Ticks_ISO_T2_8,106,1,48,29,1071564816
6810,9,Ticks_ISO_T2_8,107,5,42,127,1071586688
6810,9,Ticks_ISO_T2_8,108,5,42,127,1072386356
6810,9,Ticks_ISO_T2_8,109,1,48,27,1072396880
6810,9,Ticks_ISO_T2_8,110,5,42,127,1073187136
6810,9,Ticks_ISO_T2_8,111,1,48,31,1073205084
6810,9,Ticks_ISO_T2_8,112,5,42,127,1073987116
6810,9,Ticks_ISO_T2_8,113,1,48,34,1074041096
6810,9,Ticks_ISO_T2_8,114,5,42,127,1074786996
6810,9,Ticks_ISO_T2_8,115,1,48,34,1074875760
6810,9,Ticks_ISO_T2_8,116,5,42,127,1075586432
6810,9,Ticks_ISO_T2_8,117,1,48,22,1075647520
6810,9,Ticks_ISO_T2_8,118,5,42,127,1076387140
6810,9,Ticks_ISO_T2_8,119,1,48,29,1076444856
6810,9,Ticks_ISO_T2_8,120,5,42,127,1077187020
6810,9,Ticks_ISO_T2_8,121,1,48,31,1077228284
6810,9,Ticks_ISO_T2_8,122,1,48,32,1077985088
6810,9,Ticks_ISO_T2_8,123,5,42,127,1077986824
6810,9,Ticks_ISO_T2_8,124,5,42,127,1078786268
6810,9,Ticks_ISO_T2_8,125,1,48,37,1078804644
6810,9,Ticks_ISO_T2_8,126,1,48,32,1079573616
6810,9,Ticks_ISO_T2_8,127,5,42,127,1079587336
6810,9,Ticks_ISO_T2_8,128,5,42,127,1080387028
6810,9,Ticks_ISO_T2_8,129,1,48,34,1080398672
6810,9,Ticks_ISO_T2_8,130,1,48,27,1081174604
6810,9,Ticks_ISO_T2_8,131,5,42,127,1081186832
6810,9,Ticks_ISO_T2_8,132,5,42,127,1081986348
6810,9,Ticks_ISO_T2_8,133,1,48,37,1082036132
6810,9,Ticks_ISO_T2_8,134,5,42,127,1082787128
6810,9,Ticks_ISO_T2_8,135,1,48,27,1082811112
6810,9,Ticks_ISO_T2_8,136,5,42,127,1083586860
6810,9,Ticks_ISO_T2_8,137,1,48,35,1083604784
6810,9,Ticks_ISO_T2_8,138,5,42,127,1084386744
6810,9,Ticks_ISO_T2_8,139,1,48,24,1084401528
6810,9,Ticks_ISO_T2_8,140,5,42,127,1085186624
6810,9,Ticks_ISO_T2_8,141,1,48,28,1085265608
6810,9,Ticks_ISO_T2_8,142,5,42,127,1085987032
6810,9,Ticks_ISO_T2_8,143,1,48,21,1086139400
6810,9,Ticks_ISO_T2_8,144,5,42,127,1086786940
6810,9,Ticks_ISO_T2_8,145,1,48,32,1086928960
6810,9,Ticks_ISO_T2_8,146,5,42,127,1087586672
6810,9,Ticks_ISO_T2_8,147,1,48,27,1087708044
6810,9,Ticks_ISO_T2_8,148,5,42,127,1088386704
6810,9,Ticks_ISO_T2_8,149,1,48,26,1088455488
6810,9,Ticks_ISO_T2_8,150,5,42,127,1089187036
6810,9,Ticks_ISO_T2_8,151,1,48,24,1089287916
6810,9,Ticks_ISO_T2_8,152,5,42,127,1089986920
6810,9,Ticks_ISO_T2_8,153,1,48,15,1090102104
6810,9,Ticks_ISO_T2_8,154,5,42,127,1090786576
6810,9,Ticks_ISO_T2_8,155,1,48,37,1090862792
6810,9,Ticks_ISO_T2_8,156,5,42,127,1091586532
6810,9,Ticks_ISO_T2_8,157,1,48,28,1091632460
6810,9,Ticks_ISO_T2_8,158,5,42,127,1092387240
6810,9,Ticks_ISO_T2_8,159,1,48,33,1092420828
6810,9,Ticks_ISO_T2_8,160,5,42,127,1093187072
6810,9,Ticks_ISO_T2_8,161,1,48,23,1093263188
6810,9,Ticks_ISO_T2_8,162,5,42,127,1093986804
6810,9,Ticks_ISO_T2_8,163,1,48,29,1094079608
6810,9,Ticks_ISO_T2_8,164,5,42,127,1094786464
6810,9,Ticks_ISO_T2_8,165,1,48,30,1094858324
6810,9,Ticks_ISO_T2_8,166,5,42,127,1095587320
6810,9,Ticks_ISO_T2_8,167,1,48,31,1095626560
6810,9,Ticks_ISO_T2_8,168,5,42,127,1096386904
6810,9,Ticks_ISO_T2_8,169,1,48,22,1096415000
6810,9,Ticks_ISO_T2_8,170,5,42,127,1097186784
6810,9,Ticks_ISO_T2_8,171,1,48,31,1097327036
6810,9,Ticks_ISO_T2_8,172,5,42,127,1097986372
6810,9,Ticks_ISO_T2_8,173,1,48,35,1098062664
6810,9,Ticks_ISO_T2_8,174,5,42,127,1098787448
6810,9,Ticks_ISO_T2_8,175,1,48,33,1098859036
6810,9,Ticks_ISO_T2_8,176,5,42,127,1099586836
6810,9,Ticks_ISO_T2_8,177,1,48,36,1099604832
6810,9,Ticks_ISO_T2_8,178,5,42,127,1100386644
6810,9,Ticks_ISO_T2_8,179,1,48,35,1100425884
6810,9,Ticks_ISO_T2_8,180,5,42,127,1101186452
6810,9,Ticks_ISO_T2_8,181,1,48,27,1101197648
6810,9,Ticks_ISO_T2_8,182,5,42,127,1101987380
6810,9,Ticks_ISO_T2_8,183,1,48,34,1102000524
6810,9,Ticks_ISO_T2_8,184,1,48,37,1102758648
6810,9,Ticks_ISO_T2_8,185,5,42,127,1102786884
6810,9,Ticks_ISO_T2_8,186,5,42,127,1103586548
6810,9,Ticks_ISO_T2_8,187,1,48,34,1103620188
6810,9,Ticks_ISO_T2_8,188,5,42,127,1104386284
6810,9,Ticks_ISO_T2_8,189,1,48,32,1104447392
6810,9,Ticks_ISO_T2_8,190,5,42,127,1105187360
6810,9,Ticks_ISO_T2_8,191,1,48,33,1105213164
6810,9,Ticks_ISO_T2_8,192,1,48,32,1105979600
6810,9,Ticks_ISO_T2_8,193,5,42,127,1105987184
6810,9,Ticks_ISO_T2_8,194,5,42,127,1106786776
6810,9,Ticks_ISO_T2_8,195,1,48,36,1106808372
6810,9,Ticks_ISO_T2_8,196,5,42,127,1107586512
6810,9,Ticks_ISO_T2_8,197,1,48,36,1107617228
6810,9,Ticks_ISO_T2_8,198,5,42,127,1108387292
6810,9,Ticks_ISO_T2_8,199,1,48,29,1108437532
6810,9,Ticks_ISO_T2_8,200,1,48,34,1109174040
6810,9,Ticks_ISO_T2_8,201,5,42,127,1109187164
6810,9,Ticks_ISO_T2_8,202,1,48,32,1109972504
6810,9,Ticks_ISO_T2_8,203,5,42,127,1109986600
6810,9,Ticks_ISO_T2_8,204,1,48,31,1110766708
6810,9,Ticks_ISO_T2_8,205,5,42,127,1110786408
6810,9,Ticks_ISO_T2_8,206,1,48,38,1111553420
6810,9,Ticks_ISO_T2_8,207,5,42,127,1111587112
6810,9,Ticks_ISO_T2_8,208,1,48,38,1112341108
6810,9,Ticks_ISO_T2_8,209,5,42,127,1112387096
6810,9,Ticks_ISO_T2_8,210,1,48,30,1113130444
6810,9,Ticks_ISO_T2_8,211,5,42,127,1113186652
6810,9,Ticks_ISO_T2_8,212,1,48,35,1113921580
6810,9,Ticks_ISO_T2_8,213,5,42,127,1113986388
6810,9,Ticks_ISO_T2_8,214,1,48,37,1114745172
6810,9,Ticks_ISO_T2_8,215,5,42,127,1114787244
6810,9,Ticks_ISO_T2_8,216,1,48,37,1115553884
6810,9,Ticks_ISO_T2_8,217,5,42,127,1115587052
6810,9,Ticks_ISO_T2_8,218,1,48,34,1116353840
6810,9,Ticks_ISO_T2_8,219,5,42,127,1116386636
6810,9,Ticks_ISO_T2_8,220,5,42,127,1117186376
6810,9,Ticks_ISO_T2_8,221,1,48,37,1117198168
6810,9,Ticks_ISO_T2_8,222,5,42,127,1117987080
6810,9,Ticks_ISO_T2_8,223,1,48,35,1118034056
6810,9,Ticks_ISO_T2_8,224,5,42,127,1118786988
6810,9,Ticks_ISO_T2_8,225,1,48,35,1118837832
6810,9,Ticks_ISO_T2_8,226,5,42,127,1119586648
6810,9,Ticks_ISO_T2_8,227,1,48,38,1119659552
6810,9,Ticks_ISO_T2_8,228,5,42,127,1120386456
6810,9,Ticks_ISO_T2_8,229,1,48,32,1120434896
6810,9,Ticks_ISO_T2_8,230,5,42,127,1121187312
6810,9,Ticks_ISO_T2_8,231,1,48,24,1121227084
6810,9,Ticks_ISO_T2_8,232,5,42,127,1121986896
6810,9,Ticks_ISO_T2_8,233,1,48,36,1122049552
6810,9,Ticks_ISO_T2_8,234,5,42,127,1122786780
6810,9,Ticks_ISO_T2_8,235,1,48,35,1122830136
6810,9,Ticks_ISO_T2_8,236,5,42,127,1123586512
6810,9,Ticks_ISO_T2_8,237,1,48,38,1123631912
6810,9,Ticks_ISO_T2_8,0,9999,9999,9999,1028384852
6810,9,Ticks_ISO_T2_8,1,9999,9999,9999,1029184556
6810,9,Ticks_ISO_T2_8,2,9999,9999,9999,1029984312
6810,9,Ticks_ISO_T2_8,3,9999,9999,9999,1030784048
6810,9,Ticks_ISO_T2_8,4,9999,9999,9999,1031584828
6810,9,Ticks_ISO_T2_8,5,9999,9999,9999,1032384564
6810,9,Ticks_ISO_T2_8,6,9999,9999,9999,1033184368
6810,9,Ticks_ISO_T2_8,7,9999,9999,9999,1033984104
6810,9,Ticks_ISO_T2_8,8,9999,9999,9999,1034784884
6810,9,Ticks_ISO_T2_8,9,9999,9999,9999,1035584560
6810,9,Ticks_ISO_T2_8,10,9999,9999,9999,1036384368
6810,9,Ticks_ISO_T2_8,11,9999,9999,9999,1037184108
6810,9,Ticks_ISO_T2_8,12,9999,9999,9999,1037984884
6810,9,Ticks_ISO_T2_8,13,9999,9999,9999,1038784616
6810,9,Ticks_ISO_T2_8,14,9999,9999,9999,1039584348
6810,9,Ticks_ISO_T2_8,15,9999,9999,9999,1040384084
6810,9,Ticks_ISO_T2_8,16,9999,9999,9999,1041184864
6810,9,Ticks_ISO_T2_8,17,9999,9999,9999,1041984616
6810,9,Ticks_ISO_T2_8,18,9999,9999,9999,1042784348
6810,9,Ticks_ISO_T2_8,19,9999,9999,9999,1043584084
6810,9,Ticks_ISO_T2_8,20,9999,9999,9999,1044384864
6810,9,Ticks_ISO_T2_8,21,9999,9999,9999,1045184596
6810,9,Ticks_ISO_T2_8,22,9999,9999,9999,1045984336
6810,9,Ticks_ISO_T2_8,23,9999,9999,9999,1046784068
6810,9,Ticks_ISO_T2_8,24,9999,9999,9999,1047584848
6810,9,Ticks_ISO_T2_8,25,9999,9999,9999,1048384608
6810,9,Ticks_ISO_T2_8,26,9999,9999,9999,1049184340
6810,9,Ticks_ISO_T2_8,27,9999,9999,9999,1049984076
6810,9,Ticks_ISO_T2_8,28,9999,9999,9999,1050784856
6810,9,Ticks_ISO_T2_8,29,9999,9999,9999,1051584588
6810,9,Ticks_ISO_T2_8,30,9999,9999,9999,1052384320
6810,9,Ticks_ISO_T2_8,31,9999,9999,9999,1053184056
6810,9,Ticks_ISO_T2_8,32,9999,9999,9999,1053984836
6810,9,Ticks_ISO_T2_8,33,9999,9999,9999,1054784592
6810,9,Ticks_ISO_T2_8,34,9999,9999,9999,1055584324
6810,9,Ticks_ISO_T2_8,35,9999,9999,9999,1056384060
6810,9,Ticks_ISO_T2_8,36,9999,9999,9999,1057184840
6810,9,Ticks_ISO_T2_8,37,9999,9999,9999,1057984572
6810,9,Ticks_ISO_T2_8,38,9999,9999,9999,1058784308
6810,9,Ticks_ISO_T2_8,39,9999,9999,9999,1059584108
6810,9,Ticks_ISO_T2_8,40,9999,9999,9999,1060384888
6810,9,Ticks_ISO_T2_8,41,9999,9999,9999,1061184620
6810,9,Ticks_ISO_T2_8,42,9999,9999,9999,1061984364
6810,9,Ticks_ISO_T2_8,43,9999,9999,9999,1062784096
6810,9,Ticks_ISO_T2_8,44,9999,9999,9999,1063584876
6810,9,Ticks_ISO_T2_8,45,9999,9999,9999,1064384608
6810,9,Ticks_ISO_T2_8,46,9999,9999,9999,1065184336
6810,9,Ticks_ISO_T2_8,47,9999,9999,9999,1065984076
6810,9,Ticks_ISO_T2_8,48,9999,9999,9999,1066784856
6810,9,Ticks_ISO_T2_8,49,9999,9999,9999,1067584612
6810,9,Ticks_ISO_T2_8,50,9999,9999,9999,1068384348
6810,9,Ticks_ISO_T2_8,51,9999,9999,9999,1069184080
6810,9,Ticks_ISO_T2_8,52,9999,9999,9999,1069984856
6810,9,Ticks_ISO_T2_8,53,9999,9999,9999,1070784588
6810,9,Ticks_ISO_T2_8,54,9999,9999,9999,1071584324
6810,9,Ticks_ISO_T2_8,55,9999,9999,9999,1072384064
6810,9,Ticks_ISO_T2_8,56,9999,9999,9999,1073184844
6810,9,Ticks_ISO_T2_8,57,9999,9999,9999,1073984600
6810,9,Ticks_ISO_T2_8,58,9999,9999,9999,1074784336
6810,9,Ticks_ISO_T2_8,59,9999,9999,9999,1075584068
6810,9,Ticks_ISO_T2_8,60,9999,9999,9999,1076384848
6810,9,Ticks_ISO_T2_8,61,9999,9999,9999,1077184580
6810,9,Ticks_ISO_T2_8,62,9999,9999,9999,1077984316
6810,9,Ticks_ISO_T2_8,63,9999,9999,9999,1078784048
6810,9,Ticks_ISO_T2_8,64,9999,9999,9999,1079584820
6810,9,Ticks_ISO_T2_8,65,9999,9999,9999,1080384588
6810,9,Ticks_ISO_T2_8,66,9999,9999,9999,1081184316
6810,9,Ticks_ISO_T2_8,67,9999,9999,9999,1081984056
6810,9,Ticks_ISO_T2_8,68,9999,9999,9999,1082784836
6810,9,Ticks_ISO_T2_8,69,9999,9999,9999,1083584568
6810,9,Ticks_ISO_T2_8,70,9999,9999,9999,1084384300
6810,9,Ticks_ISO_T2_8,71,9999,9999,9999,1085184108
6810,9,Ticks_ISO_T2_8,72,9999,9999,9999,1085984816
6810,9,Ticks_ISO_T2_8,73,9999,9999,9999,1086784572
6810,9,Ticks_ISO_T2_8,74,9999,9999,9999,1087584304
6810,9,Ticks_ISO_T2_8,75,9999,9999,9999,1088384112
6810,9,Ticks_ISO_T2_8,76,9999,9999,9999,1089184820
6810,9,Ticks_ISO_T2_8,77,9999,9999,9999,1089984628
6810,9,Ticks_ISO_T2_8,78,9999,9999,9999,1090784360
6810,9,Ticks_ISO_T2_8,79,9999,9999,9999,1091584092
6810,9,Ticks_ISO_T2_8,80,9999,9999,9999,1092384872
6810,9,Ticks_ISO_T2_8,81,9999,9999,9999,1093184632
6810,9,Ticks_ISO_T2_8,82,9999,9999,9999,1093984364
6810,9,Ticks_ISO_T2_8,83,9999,9999,9999,1094784100
6810,9,Ticks_ISO_T2_8,84,9999,9999,9999,1095584880
6810,9,Ticks_ISO_T2_8,85,9999,9999,9999,1096384612
6810,9,Ticks_ISO_T2_8,86,9999,9999,9999,1097184344
6810,9,Ticks_ISO_T2_8,87,9999,9999,9999,1097984080
6810,9,Ticks_ISO_T2_8,88,9999,9999,9999,1098784860
6810,9,Ticks_ISO_T2_8,89,9999,9999,9999,1099584616
6810,9,Ticks_ISO_T2_8,90,9999,9999,9999,1100384352
6810,9,Ticks_ISO_T2_8,91,9999,9999,9999,1101184084
6810,9,Ticks_ISO_T2_8,92,9999,9999,9999,1101984864
6810,9,Ticks_ISO_T2_8,93,9999,9999,9999,1102784592
6810,9,Ticks_ISO_T2_8,94,9999,9999,9999,1103584332
6810,9,Ticks_ISO_T2_8,95,9999,9999,9999,1104384064
6810,9,Ticks_ISO_T2_8,96,9999,9999,9999,1105184844
6810,9,Ticks_ISO_T2_8,97,9999,9999,9999,1105984596
6810,9,Ticks_ISO_T2_8,98,9999,9999,9999,1106784336
6810,9,Ticks_ISO_T2_8,99,9999,9999,9999,1107584068
6810,9,Ticks_ISO_T2_8,100,9999,9999,9999,1108384848
6810,9,Ticks_ISO_T2_8,101,9999,9999,9999,1109184576
6810,9,Ticks_ISO_T2_8,102,9999,9999,9999,1109984308
6810,9,Ticks_ISO_T2_8,103,9999,9999,9999,1110784116
6810,9,Ticks_ISO_T2_8,104,9999,9999,9999,1111584824
6810,9,Ticks_ISO_T2_8,105,9999,9999,9999,1112384580
6810,9,Ticks_ISO_T2_8,106,9999,9999,9999,1113184364
6810,9,Ticks_ISO_T2_8,107,9999,9999,9999,1113984096
6810,9,Ticks_ISO_T2_8,108,9999,9999,9999,1114784880
6810,9,Ticks_ISO_T2_8,109,9999,9999,9999,1115584612
6810,9,Ticks_ISO_T2_8,110,9999,9999,9999,1116384344
6810,9,Ticks_ISO_T2_8,111,9999,9999,9999,1117184084
6810,9,Ticks_ISO_T2_8,112,9999,9999,9999,1117984864
6810,9,Ticks_ISO_T2_8,113,9999,9999,9999,1118784624
6810,9,Ticks_ISO_T2_8,114,9999,9999,9999,1119584356
6810,9,Ticks_ISO_T2_8,115,9999,9999,9999,1120384088
6810,9,Ticks_ISO_T2_8,116,9999,9999,9999,1121184868
6810,9,Ticks_ISO_T2_8,117,9999,9999,9999,1121984604
6810,9,Ticks_ISO_T2_8,118,9999,9999,9999,1122784336
6810,9,Ticks_ISO_T2_8,119,9999,9999,9999,1123584072
6811,25,Jits_Pract_5,0,5,56,103,1163071968
6811,25,Jits_Pract_5,1,5,63,98,1163075068
6811,25,Jits_Pract_5,2,5,80,127,1163078192
6811,25,Jits_Pract_5,0,5,56,103,1163571548
6811,25,Jits_Pract_5,1,5,63,98,1163574716
6811,25,Jits_Pract_5,2,5,80,127,1163577992
6811,25,Jits_Pract_5,0,5,56,103,1164072260
6811,25,Jits_Pract_5,1,5,80,127,1164081632
6811,25,Jits_Pract_5,2,5,63,98,1164102016
6811,25,Jits_Pract_5,3,1,48,28,1164158244
6811,25,Jits_Pract_5,0,5,63,98,1164521816
6811,25,Jits_Pract_5,1,5,80,127,1164551416
6811,25,Jits_Pract_5,2,5,56,103,1164561984
6811,25,Jits_Pract_5,3,1,48,30,1164617488
6811,25,Jits_Pract_5,0,5,80,127,1165081964
6811,25,Jits_Pract_5,1,1,48,34,1165087928
6811,25,Jits_Pract_5,2,5,56,103,1165092228
6811,25,Jits_Pract_5,3,5,63,98,1165121776
6811,25,Jits_Pract_5,0,5,63,98,1165571408
6811,25,Jits_Pract_5,1,5,56,103,1165602056
6811,25,Jits_Pract_5,2,5,80,127,1165612352
6811,25,Jits_Pract_5,3,1,48,32,1165649772
6811,25,Jits_Pract_5,0,5,56,103,1166021952
6811,25,Jits_Pract_5,1,5,63,98,1166072228
6811,25,Jits_Pract_5,2,5,80,127,1166091788
6811,25,Jits_Pract_5,3,1,48,27,1166158008
6811,25,Jits_Pract_5,0,5,80,127,1166521880
6811,25,Jits_Pract_5,1,5,63,98,1166571860
6811,25,Jits_Pract_5,2,5,56,103,1166612020
6811,25,Jits_Pract_5,3,1,48,34,1166620316
6811,25,Jits_Pract_5,0,5,56,103,1167021364
6811,25,Jits_Pract_5,1,5,63,98,1167052160
6811,25,Jits_Pract_5,2,1,48,36,1167087716
6811,25,Jits_Pract_5,3,5,80,127,1167122056
6811,25,Jits_Pract_5,0,5,56,103,1167522192
6811,25,Jits_Pract_5,1,5,80,127,1167581684
6811,25,Jits_Pract_5,2,1,48,33,1167600540
6811,25,Jits_Pract_5,3,5,63,98,1167612400
6811,25,Jits_Pract_5,0,5,56,103,1168032088
6811,25,Jits_Pract_5,1,5,63,98,1168042432
6811,25,Jits_Pract_5,2,5,80,127,1168082444
6811,25,Jits_Pract_5,3,1,48,27,1168097324
6811,25,Jits_Pract_5,0,5,63,98,1168521448
6811,25,Jits_Pract_5,1,1,48,31,1168581736
6811,25,Jits_Pract_5,2,5,80,127,1168601536
6811,25,Jits_Pract_5,3,5,56,103,1168611956
6811,25,Jits_Pract_5,0,5,63,98,1169071640
6811,25,Jits_Pract_5,1,1,48,35,1169093040
6811,25,Jits_Pract_5,2,5,56,103,1169112392
6811,25,Jits_Pract_5,3,5,80,127,1169115680
6811,25,Jits_Pract_5,0,5,56,103,1169532216
6811,25,Jits_Pract_5,1,5,63,98,1169541364
6811,25,Jits_Pract_5,2,5,80,127,1169581300
6811,25,Jits_Pract_5,3,1,48,34,1169599244
6811,25,Jits_Pract_5,0,5,56,103,1170021804
6811,25,Jits_Pract_5,1,5,63,98,1170024944
6811,25,Jits_Pract_5,2,5,80,127,1170042112
6811,25,Jits_Pract_5,3,1,48,35,1170089868
6811,25,Jits_Pract_5,0,9999,9999,9999,1163319408
6811,25,Jits_Pract_5,1,9999,9999,9999,1163819060
6811,25,Jits_Pract_5,2,9999,9999,9999,1164319804
6811,25,Jits_Pract_5,3,9999,9999,9999,1164819576
6811,25,Jits_Pract_5,4,9999,9999,9999,1165319272
6811,25,Jits_Pract_5,5,9999,9999,9999,1165820024
6811,25,Jits_Pract_5,6,9999,9999,9999,1166319716
6811,25,Jits_Pract_5,7,9999,9999,9999,1166819424
6811,25,Jits_Pract_5,8,9999,9999,9999,1167319128
6811,25,Jits_Pract_5,9,9999,9999,9999,1167819880
6811,25,Jits_Pract_5,10,9999,9999,9999,1168319584
6811,25,Jits_Pract_5,11,9999,9999,9999,1168819292
6811,25,Jits_Pract_5,12,9999,9999,9999,1169320024
6811,25,Jits_Pract_5,13,9999,9999,9999,1169819712
6811,25,Jits_Pract_5,14,9999,9999,9999,1170319480
6812,25,Jits_Pract_5,0,5,56,103,1210880200
6812,25,Jits_Pract_5,1,5,63,98,1210883304
6812,25,Jits_Pract_5,2,5,80,127,1210886504
6812,25,Jits_Pract_5,0,5,56,103,1211380152
6812,25,Jits_Pract_5,1,5,63,98,1211383100
6812,25,Jits_Pract_5,2,5,80,127,1211386148
6812,25,Jits_Pract_5,3,1,48,18,1211481296
6812,25,Jits_Pract_5,0,5,56,103,1211879708
6812,25,Jits_Pract_5,1,5,80,127,1211889980
6812,25,Jits_Pract_5,2,5,63,98,1211909912
6812,25,Jits_Pract_5,3,1,48,24,1211950296
6812,25,Jits_Pract_5,0,5,63,98,1212330268
6812,25,Jits_Pract_5,1,5,80,127,1212359944
6812,25,Jits_Pract_5,2,5,56,103,1212370140
6812,25,Jits_Pract_5,3,1,48,29,1212453736
6812,25,Jits_Pract_5,0,5,80,127,1212889596
6812,25,Jits_Pract_5,1,5,56,103,1212899940
6812,25,Jits_Pract_5,2,1,48,30,1212912800
6812,25,Jits_Pract_5,3,5,63,98,1212930580
6812,25,Jits_Pract_5,0,5,63,98,1213379940
6812,25,Jits_Pract_5,1,5,56,103,1213409840
6812,25,Jits_Pract_5,2,5,80,127,1213419888
6812,25,Jits_Pract_5,3,1,48,34,1213431996
6812,25,Jits_Pract_5,0,5,56,103,1213829512
6812,25,Jits_Pract_5,1,5,63,98,1213879640
6812,25,Jits_Pract_5,2,5,80,127,1213900096
6812,25,Jits_Pract_5,3,1,48,33,1213938580
6812,25,Jits_Pract_5,0,5,80,127,1214330340
6812,25,Jits_Pract_5,1,5,63,98,1214380320
6812,25,Jits_Pract_5,2,5,56,103,1214420328
6812,25,Jits_Pract_5,3,1,48,32,1214438740
6812,25,Jits_Pract_5,0,5,56,103,1214829824
6812,25,Jits_Pract_5,1,5,63,98,1214859648
6812,25,Jits_Pract_5,2,1,48,34,1214930520
6812,25,Jits_Pract_5,3,5,80,127,1214931856
6812,25,Jits_Pract_5,0,5,56,103,1215329824
6812,25,Jits_Pract_5,1,1,48,37,1215389540
6812,25,Jits_Pract_5,2,5,80,127,1215390960
6812,25,Jits_Pract_5,3,5,63,98,1215419884
6812,25,Jits_Pract_5,0,5,56,103,1215840020
6812,25,Jits_Pract_5,1,5,63,98,1215849772
6812,25,Jits_Pract_5,2,5,80,127,1215889636
6812,25,Jits_Pract_5,3,1,48,34,1215897856
6812,25,Jits_Pract_5,0,5,63,98,1216340548
6812,25,Jits_Pract_5,1,1,48,38,1216390576
6812,25,Jits_Pract_5,2,5,80,127,1216420116
6812,25,Jits_Pract_5,3,5,56,103,1216429564
6812,25,Jits_Pract_5,0,5,63,98,1216890368
6812,25,Jits_Pract_5,1,1,48,31,1216915732
6812,25,Jits_Pract_5,2,5,56,103,1216930224
6812,25,Jits_Pract_5,3,5,80,127,1216933436
6812,25,Jits_Pract_5,0,5,56,103,1217350120
6812,25,Jits_Pract_5,1,5,63,98,1217360388
6812,25,Jits_Pract_5,2,5,80,127,1217400028
6812,25,Jits_Pract_5,3,1,48,37,1217432812
6812,25,Jits_Pract_5,0,5,56,103,1217839784
6812,25,Jits_Pract_5,1,5,63,98,1217842772
6812,25,Jits_Pract_5,2,5,80,127,1217859868
6812,25,Jits_Pract_5,3,1,48,38,1217938580
6812,25,Jits_Pract_5,0,9999,9999,9999,1211127868
6812,25,Jits_Pract_5,1,9999,9999,9999,1211627644
6812,25,Jits_Pract_5,2,9999,9999,9999,1212127352
6812,25,Jits_Pract_5,3,9999,9999,9999,1212628028
6812,25,Jits_Pract_5,4,9999,9999,9999,1213127800
6812,25,Jits_Pract_5,5,9999,9999,9999,1213627508
6812,25,Jits_Pract_5,6,9999,9999,9999,1214127200
6812,25,Jits_Pract_5,7,9999,9999,9999,1214627952
6812,25,Jits_Pract_5,8,9999,9999,9999,1215127660
6812,25,Jits_Pract_5,9,9999,9999,9999,1215627368
6812,25,Jits_Pract_5,10,9999,9999,9999,1216128120
6812,25,Jits_Pract_5,11,9999,9999,9999,1216638016
6812,25,Jits_Pract_5,12,9999,9999,9999,1217137780
6812,25,Jits_Pract_5,13,9999,9999,9999,1217637468
6812,25,Jits_Pract_5,14,9999,9999,9999,1218137160
6813,24,Jits_Pract_8,0,5,56,103,1225049704
6813,24,Jits_Pract_8,1,5,63,98,1225052728
6813,24,Jits_Pract_8,2,5,80,127,1225055848
6813,24,Jits_Pract_8,0,5,56,103,1225850392
6813,24,Jits_Pract_8,1,5,63,98,1225853492
6813,24,Jits_Pract_8,2,5,80,127,1225856688
6813,24,Jits_Pract_8,3,1,48,33,1226129532
6813,24,Jits_Pract_8,0,5,80,127,1226589476
6813,24,Jits_Pract_8,1,5,63,98,1226679760
6813,24,Jits_Pract_8,2,5,56,103,1226689808
6813,24,Jits_Pract_8,3,1,48,44,1226827484
6813,24,Jits_Pract_8,0,5,56,103,1227409780
6813,24,Jits_Pract_8,1,5,63,98,1227420048
6813,24,Jits_Pract_8,2,5,80,127,1227510104
6813,24,Jits_Pract_8,3,1,48,42,1227540796
6813,24,Jits_Pract_8,0,5,63,98,1228179804
6813,24,Jits_Pract_8,1,5,80,127,1228209480
6813,24,Jits_Pract_8,2,5,56,103,1228240428
6813,24,Jits_Pract_8,3,1,48,38,1228331816
6813,24,Jits_Pract_8,0,5,56,103,1228979784
6813,24,Jits_Pract_8,1,5,80,127,1229079956
6813,24,Jits_Pract_8,2,1,48,43,1229119964
6813,24,Jits_Pract_8,3,5,63,98,1229130176
6813,24,Jits_Pract_8,4,1,48,19,1229208652
6813,24,Jits_Pract_8,0,5,56,103,1229780556
6813,24,Jits_Pract_8,1,5,80,127,1229829340
6813,24,Jits_Pract_8,2,5,63,98,1229869452
6813,24,Jits_Pract_8,3,1,48,43,1229926048
6813,24,Jits_Pract_8,0,5,80,127,1230609772
6813,24,Jits_Pract_8,1,5,63,98,1230639396
6813,24,Jits_Pract_8,2,5,56,103,1230710496
6813,24,Jits_Pract_8,3,1,48,43,1230719168
6813,24,Jits_Pract_8,0,5,63,98,1231440360
6813,24,Jits_Pract_8,1,5,56,103,1231470036
6813,24,Jits_Pract_8,2,1,48,43,1231496376
6813,24,Jits_Pract_8,3,5,80,127,1231530492
6813,24,Jits_Pract_8,0,5,56,103,1232179508
6813,24,Jits_Pract_8,1,5,80,127,1232182500
6813,24,Jits_Pract_8,2,1,48,40,1232292528
6813,24,Jits_Pract_8,3,5,63,98,1232300424
6813,24,Jits_Pract_8,0,5,56,103,1233060260
6813,24,Jits_Pract_8,1,1,48,45,1233097680
6813,24,Jits_Pract_8,2,5,80,127,1233100268
6813,24,Jits_Pract_8,3,5,63,98,1233110240
6813,24,Jits_Pract_8,0,5,56,103,1233820176
6813,24,Jits_Pract_8,1,5,80,127,1233839516
6813,24,Jits_Pract_8,2,1,48,44,1233892976
6813,24,Jits_Pract_8,3,5,63,98,1233920276
6813,24,Jits_Pract_8,0,5,80,127,1234609536
6813,24,Jits_Pract_8,1,5,56,103,1234709860
6813,24,Jits_Pract_8,2,1,48,40,1234714924
6813,24,Jits_Pract_8,3,5,63,98,1234720344
6813,24,Jits_Pract_8,0,5,63,98,1235379492
6813,24,Jits_Pract_8,1,5,80,127,1235439960
6813,24,Jits_Pract_8,2,5,56,103,1235450156
6813,24,Jits_Pract_8,3,1,48,40,1235522592
6813,24,Jits_Pract_8,0,5,56,103,1236180440
6813,24,Jits_Pract_8,1,5,63,98,1236250120
6813,24,Jits_Pract_8,2,5,80,127,1236253332
6813,24,Jits_Pract_8,3,1,48,40,1236279264
6813,24,Jits_Pract_8,0,9999,9999,9999,1225447488
6813,24,Jits_Pract_8,1,9999,9999,9999,1226247256
6813,24,Jits_Pract_8,2,9999,9999,9999,1227048024
6813,24,Jits_Pract_8,3,9999,9999,9999,1227847800
6813,24,Jits_Pract_8,4,9999,9999,9999,1228647492
6813,24,Jits_Pract_8,5,9999,9999,9999,1229447232
6813,24,Jits_Pract_8,6,9999,9999,9999,1230248020
6813,24,Jits_Pract_8,7,9999,9999,9999,1231047796
6813,24,Jits_Pract_8,8,9999,9999,9999,1231847496
6813,24,Jits_Pract_8,9,9999,9999,9999,1232647244
6813,24,Jits_Pract_8,10,9999,9999,9999,1233448016
6813,24,Jits_Pract_8,11,9999,9999,9999,1234247788
6813,24,Jits_Pract_8,12,9999,9999,9999,1235047488
6813,24,Jits_Pract_8,13,9999,9999,9999,1235847256
6813,24,Jits_Pract_8,14,9999,9999,9999,1236648040
6814,17,Jits_Phase_5,0,5,56,103,1261553952
6814,17,Jits_Phase_5,1,5,63,98,1261556976
6814,17,Jits_Phase_5,2,5,80,127,1261560176
6814,17,Jits_Phase_5,0,5,56,103,1262053812
6814,17,Jits_Phase_5,1,5,63,98,1262056760
6814,17,Jits_Phase_5,2,5,80,127,1262060032
6814,17,Jits_Phase_5,3,1,48,29,1262196900
6814,17,Jits_Phase_5,0,5,56,103,1262553796
6814,17,Jits_Phase_5,1,5,80,127,1262563620
6814,17,Jits_Phase_5,2,5,63,98,1262584152
6814,17,Jits_Phase_5,3,1,48,35,1262600824
6814,17,Jits_Phase_5,0,5,63,98,1263003892
6814,17,Jits_Phase_5,1,5,80,127,1263033644
6814,17,Jits_Phase_5,2,5,56,103,1263043912
6814,17,Jits_Phase_5,3,1,48,37,1263054300
6814,17,Jits_Phase_5,0,1,48,35,1263522636
6814,17,Jits_Phase_5,1,5,80,127,1263564016
6814,17,Jits_Phase_5,2,5,56,103,1263574656
6814,17,Jits_Phase_5,3,5,63,98,1263604108
6814,17,Jits_Phase_5,0,5,63,98,1264053736
6814,17,Jits_Phase_5,1,1,48,31,1264065996
6814,17,Jits_Phase_5,2,5,56,103,1264084452
6814,17,Jits_Phase_5,3,5,80,127,1264093528
6814,17,Jits_Phase_5,0,5,56,103,1264504044
6814,17,Jits_Phase_5,1,5,63,98,1264554468
6814,17,Jits_Phase_5,2,5,80,127,1264573732
6814,17,Jits_Phase_5,3,1,48,39,1264588984
6814,17,Jits_Phase_5,0,5,80,127,1265003880
6814,17,Jits_Phase_5,1,5,63,98,1265054008
6814,17,Jits_Phase_5,2,5,56,103,1265094016
6814,17,Jits_Phase_5,3,1,48,40,1265099380
6814,17,Jits_Phase_5,0,5,56,103,1265503568
6814,17,Jits_Phase_5,1,5,63,98,1265534440
6814,17,Jits_Phase_5,2,5,80,127,1265604040
6814,17,Jits_Phase_5,3,1,48,38,1265622820
6814,17,Jits_Phase_5,0,5,56,103,1266004528
6814,17,Jits_Phase_5,1,5,80,127,1266063720
6814,17,Jits_Phase_5,2,5,63,98,1266093544
6814,17,Jits_Phase_5,3,1,48,35,1266117484
6814,17,Jits_Phase_5,0,5,56,103,1266514480
6814,17,Jits_Phase_5,1,5,63,98,1266523480
6814,17,Jits_Phase_5,2,5,80,127,1266563416
6814,17,Jits_Phase_5,3,1,48,37,1266608556
6814,17,Jits_Phase_5,0,5,63,98,1267003680
6814,17,Jits_Phase_5,1,1,48,37,1267079464
6814,17,Jits_Phase_5,2,5,80,127,1267083616
6814,17,Jits_Phase_5,3,5,56,103,1267093960
6814,17,Jits_Phase_5,0,5,63,98,1267553628
6814,17,Jits_Phase_5,1,1,48,36,1267584468
6814,17,Jits_Phase_5,2,5,56,103,1267593556
6814,17,Jits_Phase_5,3,5,80,127,1267596552
6814,17,Jits_Phase_5,0,5,56,103,1268013512
6814,17,Jits_Phase_5,1,5,63,98,1268023560
6814,17,Jits_Phase_5,2,5,80,127,1268063720
6814,17,Jits_Phase_5,3,1,48,38,1268090956
6814,17,Jits_Phase_5,0,5,56,103,1268504032
6814,17,Jits_Phase_5,1,5,63,98,1268507100
6814,17,Jits_Phase_5,2,5,80,127,1268524664
6814,17,Jits_Phase_5,3,1,48,38,1268610628
6814,17,Jits_Phase_5,0,5,80,127,1269013748
6814,17,Jits_Phase_5,1,5,56,103,1269024536
6814,17,Jits_Phase_5,2,5,63,98,1269093792
6814,17,Jits_Phase_5,3,1,48,38,1269131380
6814,17,Jits_Phase_5,0,5,63,98,1269504368
6814,17,Jits_Phase_5,1,5,56,103,1269523856
6814,17,Jits_Phase_5,2,5,80,127,1269603672
6814,17,Jits_Phase_5,3,1,48,35,1269659520
6814,17,Jits_Phase_5,0,5,56,103,1270014528
6814,17,Jits_Phase_5,1,5,80,127,1270054268
6814,17,Jits_Phase_5,2,5,63,98,1270063568
6814,17,Jits_Phase_5,3,1,48,38,1270169380
6814,17,Jits_Phase_5,0,5,80,127,1270503648
6814,17,Jits_Phase_5,1,5,63,98,1270533472
6814,17,Jits_Phase_5,2,5,56,103,1270573508
6814,17,Jits_Phase_5,3,1,48,32,1270675432
6814,17,Jits_Phase_5,0,5,56,103,1271023940
6814,17,Jits_Phase_5,1,5,63,98,1271053764
6814,17,Jits_Phase_5,2,5,80,127,1271103764
6814,17,Jits_Phase_5,3,1,48,35,1271125832
6814,17,Jits_Phase_5,0,5,80,127,1271523632
6814,17,Jits_Phase_5,1,5,56,103,1271563568
6814,17,Jits_Phase_5,2,5,63,98,1271573764
6814,17,Jits_Phase_5,3,1,48,41,1271597956
6814,17,Jits_Phase_5,0,5,80,127,1272003844
6814,17,Jits_Phase_5,1,5,63,98,1272043856
6814,17,Jits_Phase_5,2,1,48,32,1272085104
6814,17,Jits_Phase_5,3,5,56,103,1272104480
6814,17,Jits_Phase_5,0,5,56,103,1272503604
6814,17,Jits_Phase_5,1,5,80,127,1272513948
6814,17,Jits_Phase_5,2,1,48,37,1272584272
6814,17,Jits_Phase_5,3,5,63,98,1272593732
6814,17,Jits_Phase_5,0,5,80,127,1273004340
6814,17,Jits_Phase_5,1,5,63,98,1273063904
6814,17,Jits_Phase_5,2,1,48,35,1273073848
6814,17,Jits_Phase_5,3,5,56,103,1273093424
6814,17,Jits_Phase_5,0,5,56,103,1273514516
6814,17,Jits_Phase_5,1,5,80,127,1273573708
6814,17,Jits_Phase_5,2,1,48,29,1273586416
6814,17,Jits_Phase_5,3,5,63,98,1273613712
6814,17,Jits_Phase_5,0,5,56,103,1274064180
6814,17,Jits_Phase_5,1,5,63,98,1274073324
6814,17,Jits_Phase_5,2,5,80,127,1274076840
6814,17,Jits_Phase_5,3,1,48,27,1274115996
6814,17,Jits_Phase_5,0,5,80,127,1274513664
6814,17,Jits_Phase_5,1,1,48,31,1274581132
6814,17,Jits_Phase_5,2,5,63,98,1274603864
6814,17,Jits_Phase_5,3,5,56,103,1274614208
6814,17,Jits_Phase_5,0,5,56,103,1275013408
6814,17,Jits_Phase_5,1,5,63,98,1275016664
6814,17,Jits_Phase_5,2,5,80,127,1275019708
6814,17,Jits_Phase_5,3,1,48,29,1275087852
6814,17,Jits_Phase_5,0,5,80,127,1275533544
6814,17,Jits_Phase_5,1,1,48,24,1275559360
6814,17,Jits_Phase_5,2,5,63,98,1275583888
6814,17,Jits_Phase_5,3,5,56,103,1275613488
6814,17,Jits_Phase_5,0,5,56,103,1276014128
6814,17,Jits_Phase_5,1,5,80,127,1276024476
6814,17,Jits_Phase_5,2,1,48,40,1276064528
6814,17,Jits_Phase_5,3,5,63,98,1276093920
6814,17,Jits_Phase_5,0,5,56,103,1276523856
6814,17,Jits_Phase_5,1,5,63,98,1276544316
6814,17,Jits_Phase_5,2,1,48,41,1276555676
6814,17,Jits_Phase_5,3,5,80,127,1276603796
6814,17,Jits_Phase_5,0,5,80,127,1277004364
6814,17,Jits_Phase_5,1,1,48,32,1277067496
6814,17,Jits_Phase_5,2,5,63,98,1277073816
6814,17,Jits_Phase_5,3,5,56,103,1277094496
6814,17,Jits_Phase_5,0,5,80,127,1277524432
6814,17,Jits_Phase_5,1,5,56,103,1277533508
6814,17,Jits_Phase_5,2,5,63,98,1277543704
6814,17,Jits_Phase_5,3,1,48,39,1277587272
6814,17,Jits_Phase_5,0,5,80,127,1278013860
6814,17,Jits_Phase_5,1,5,56,103,1278034392
6814,17,Jits_Phase_5,2,1,48,38,1278102100
6814,17,Jits_Phase_5,3,5,63,98,1278103840
6814,17,Jits_Phase_5,0,5,56,103,1278523660
6814,17,Jits_Phase_5,1,5,80,127,1278553412
6814,17,Jits_Phase_5,2,5,63,98,1278573944
6814,17,Jits_Phase_5,3,1,48,35,1278631516
6814,17,Jits_Phase_5,0,5,63,98,1279014140
6814,17,Jits_Phase_5,1,5,56,103,1279073556
6814,17,Jits_Phase_5,2,5,80,127,1279104428
6814,17,Jits_Phase_5,3,1,48,30,1279166576
6814,17,Jits_Phase_5,0,5,63,98,1279503676
6814,17,Jits_Phase_5,1,5,80,127,1279507040
6814,17,Jits_Phase_5,2,5,56,103,1279593832
6814,17,Jits_Phase_5,3,1,48,31,1279665116
6814,17,Jits_Phase_5,0,5,56,103,1280023800
6814,17,Jits_Phase_5,1,5,63,98,1280053572
6814,17,Jits_Phase_5,2,5,80,127,1280093436
6814,17,Jits_Phase_5,3,1,48,28,1280118720
6814,17,Jits_Phase_5,0,5,63,98,1280523560
6814,17,Jits_Phase_5,1,5,56,103,1280563524
6814,17,Jits_Phase_5,2,5,80,127,1280584204
6814,17,Jits_Phase_5,3,1,48,29,1280626804
6814,17,Jits_Phase_5,0,5,63,98,1281033496
6814,17,Jits_Phase_5,1,5,56,103,1281073460
6814,17,Jits_Phase_5,2,5,80,127,1281084028
6814,17,Jits_Phase_5,3,1,48,36,1281120028
6814,17,Jits_Phase_5,0,5,80,127,1281513768
6814,17,Jits_Phase_5,1,5,63,98,1281583400
6814,17,Jits_Phase_5,2,5,56,103,1281604228
6814,17,Jits_Phase_5,3,1,48,36,1281615144
6814,17,Jits_Phase_5,0,5,56,103,1282004316
6814,17,Jits_Phase_5,1,5,80,127,1282023804
6814,17,Jits_Phase_5,2,5,63,98,1282063740
6814,17,Jits_Phase_5,3,1,48,28,1282115348
6814,17,Jits_Phase_5,0,5,63,98,1282514188
6814,17,Jits_Phase_5,1,5,80,127,1282533824
6814,17,Jits_Phase_5,2,5,56,103,1282573684
6814,17,Jits_Phase_5,3,1,48,35,1282625000
6814,17,Jits_Phase_5,0,5,63,98,1283014160
6814,17,Jits_Phase_5,1,5,56,103,1283033348
6814,17,Jits_Phase_5,2,5,80,127,1283044212
6814,17,Jits_Phase_5,3,1,48,41,1283123548
6814,17,Jits_Phase_5,0,5,80,127,1283513680
6814,17,Jits_Phase_5,1,5,56,103,1283534360
6814,17,Jits_Phase_5,2,5,63,98,1283564036
6814,17,Jits_Phase_5,3,1,48,28,1283654832
6814,17,Jits_Phase_5,0,5,56,103,1284084088
6814,17,Jits_Phase_5,1,5,80,127,1284087228
6814,17,Jits_Phase_5,2,5,63,98,1284103572
6814,17,Jits_Phase_5,3,1,48,32,1284149784
6814,17,Jits_Phase_5,0,5,63,98,1284504060
6814,17,Jits_Phase_5,1,5,56,103,1284533512
6814,17,Jits_Phase_5,2,5,80,127,1284594268
6814,17,Jits_Phase_5,3,1,48,29,1284627728
6814,17,Jits_Phase_5,0,5,63,98,1285083596
6814,17,Jits_Phase_5,1,5,56,103,1285093868
6814,17,Jits_Phase_5,2,5,80,127,1285104360
6814,17,Jits_Phase_5,3,1,48,39,1285134456
6814,17,Jits_Phase_5,0,5,56,103,1285544244
6814,17,Jits_Phase_5,1,5,80,127,1285574144
6814,17,Jits_Phase_5,2,5,63,98,1285584336
6814,17,Jits_Phase_5,3,1,48,33,1285649480
6814,17,Jits_Phase_5,0,5,63,98,1286084092
6814,17,Jits_Phase_5,1,5,56,103,1286094284
6814,17,Jits_Phase_5,2,5,80,127,1286113696
6814,17,Jits_Phase_5,3,1,48,38,1286146704
6814,17,Jits_Phase_5,0,5,56,103,1286514016
6814,17,Jits_Phase_5,1,5,63,98,1286573580
6814,17,Jits_Phase_5,2,5,80,127,1286576872
6814,17,Jits_Phase_5,3,1,48,37,1286644872
6814,17,Jits_Phase_5,0,5,80,127,1287034368
6814,17,Jits_Phase_5,1,5,56,103,1287043296
6814,17,Jits_Phase_5,2,5,63,98,1287114240
6814,17,Jits_Phase_5,3,1,48,41,1287129040
6814,17,Jits_Phase_5,0,5,80,127,1287523572
6814,17,Jits_Phase_5,1,5,56,103,1287594224
6814,17,Jits_Phase_5,2,5,63,98,1287603520
6814,17,Jits_Phase_5,3,1,48,33,1287623800
6814,17,Jits_Phase_5,0,5,63,98,1288064316
6814,17,Jits_Phase_5,1,5,56,103,1288073540
6814,17,Jits_Phase_5,2,5,80,127,1288094144
6814,17,Jits_Phase_5,3,1,48,44,1288115916
6814,17,Jits_Phase_5,0,5,80,127,1288514092
6814,17,Jits_Phase_5,1,1,48,36,1288568824
6814,17,Jits_Phase_5,2,5,63,98,1288574180
6814,17,Jits_Phase_5,3,5,56,103,1288614188
6814,17,Jits_Phase_5,0,5,56,103,1289053488
6814,17,Jits_Phase_5,1,1,48,38,1289061868
6814,17,Jits_Phase_5,2,5,63,98,1289063828
6814,17,Jits_Phase_5,3,5,80,127,1289103616
6814,17,Jits_Phase_5,0,5,56,103,1289514220
6814,17,Jits_Phase_5,1,5,80,127,1289544564
6814,17,Jits_Phase_5,2,1,48,39,1289577580
6814,17,Jits_Phase_5,3,5,63,98,1289594312
6814,17,Jits_Phase_5,0,5,56,103,1290054216
6814,17,Jits_Phase_5,1,1,48,40,1290074944
6814,17,Jits_Phase_5,2,5,63,98,1290094072
6814,17,Jits_Phase_5,3,5,80,127,1290097288
6814,17,Jits_Phase_5,0,5,56,103,1290553676
6814,17,Jits_Phase_5,1,5,63,98,1290564096
6814,17,Jits_Phase_5,2,5,80,127,1290584480
6814,17,Jits_Phase_5,3,1,48,39,1290613152
6814,17,Jits_Phase_5,0,5,56,103,1291013556
6814,17,Jits_Phase_5,1,5,80,127,1291016476
6814,17,Jits_Phase_5,2,5,63,98,1291053444
6814,17,Jits_Phase_5,3,1,48,39,1291129896
6814,17,Jits_Phase_5,0,5,63,98,1291554160
6814,17,Jits_Phase_5,1,1,48,40,1291577808
6814,17,Jits_Phase_5,2,5,56,103,1291583980
6814,17,Jits_Phase_5,3,5,80,127,1291604288
6814,17,Jits_Phase_5,0,5,80,127,1292024296
6814,17,Jits_Phase_5,1,5,56,103,1292034416
6814,17,Jits_Phase_5,2,5,63,98,1292043568
6814,17,Jits_Phase_5,3,1,48,41,1292089252
6814,17,Jits_Phase_5,0,5,56,103,1292523976
6814,17,Jits_Phase_5,1,1,48,27,1292559008
6814,17,Jits_Phase_5,2,5,80,127,1292563984
6814,17,Jits_Phase_5,3,5,63,98,1292593384
6814,17,Jits_Phase_5,0,5,63,98,1293033928
6814,17,Jits_Phase_5,1,5,80,127,1293044124
6814,17,Jits_Phase_5,2,5,56,103,1293054244
6814,17,Jits_Phase_5,3,1,48,42,1293058412
6814,17,Jits_Phase_5,0,5,56,103,1293533676
6814,17,Jits_Phase_5,1,1,48,35,1293575680
6814,17,Jits_Phase_5,2,5,63,98,1293604124
6814,17,Jits_Phase_5,3,5,80,127,1293613420
6814,17,Jits_Phase_5,0,5,80,127,1294043480
6814,17,Jits_Phase_5,1,5,56,103,1294054048
6814,17,Jits_Phase_5,2,5,63,98,1294103800
6814,17,Jits_Phase_5,3,1,48,40,1294104840
6814,17,Jits_Phase_5,0,5,80,127,1294553428
6814,17,Jits_Phase_5,1,1,48,36,1294601112
6814,17,Jits_Phase_5,2,5,56,103,1294614108
6814,17,Jits_Phase_5,3,5,63,98,1294643436
6814,17,Jits_Phase_5,0,5,56,103,1295054240
6814,17,Jits_Phase_5,1,5,80,127,1295057380
6814,17,Jits_Phase_5,2,5,63,98,1295094248
6814,17,Jits_Phase_5,3,1,48,41,1295104864
6814,17,Jits_Phase_5,0,5,56,103,1295583660
6814,17,Jits_Phase_5,1,1,48,38,1295602896
6814,17,Jits_Phase_5,2,5,63,98,1295614300
6814,17,Jits_Phase_5,3,5,80,127,1295623672
6814,17,Jits_Phase_5,0,5,63,98,1296093540
6814,17,Jits_Phase_5,1,5,80,127,1296103884
6814,17,Jits_Phase_5,2,5,56,103,1296114008
6814,17,Jits_Phase_5,0,5,80,127,1296554220
6814,17,Jits_Phase_5,1,1,48,38,1296585136
6814,17,Jits_Phase_5,2,5,56,103,1296603588
6814,17,Jits_Phase_5,3,5,63,98,1296606508
6814,17,Jits_Phase_5,0,5,56,103,1297083792
6814,17,Jits_Phase_5,1,1,48,38,1297097396
6814,17,Jits_Phase_5,2,5,80,127,1297104244
6814,17,Jits_Phase_5,3,5,63,98,1297113468
6814,17,Jits_Phase_5,0,5,63,98,1297564000
6814,17,Jits_Phase_5,1,5,56,103,1297593824
6814,17,Jits_Phase_5,2,1,48,44,1297597544
6814,17,Jits_Phase_5,3,5,80,127,1297614128
6814,17,Jits_Phase_5,0,5,56,103,1298073936
6814,17,Jits_Phase_5,1,5,80,127,1298084132
6814,17,Jits_Phase_5,2,1,48,36,1298093024
6814,17,Jits_Phase_5,3,5,63,98,1298153804
6814,17,Jits_Phase_5,0,5,63,98,1298563512
6814,17,Jits_Phase_5,1,1,48,46,1298602680
6814,17,Jits_Phase_5,2,5,80,127,1298604268
6814,17,Jits_Phase_5,3,5,56,103,1298644204
6814,17,Jits_Phase_5,0,5,56,103,1299074352
6814,17,Jits_Phase_5,1,5,63,98,1299083724
6814,17,Jits_Phase_5,2,5,80,127,1299104256
6814,17,Jits_Phase_5,3,1,48,41,1299120100
6814,17,Jits_Phase_5,0,5,63,98,1299614044
6814,17,Jits_Phase_5,1,5,80,127,1299633460
6814,17,Jits_Phase_5,2,1,48,43,1299639720
6814,17,Jits_Phase_5,3,5,56,103,1299654056
6814,17,Jits_Phase_5,0,5,56,103,1300054236
6814,17,Jits_Phase_5,1,5,80,127,1300134328
6814,17,Jits_Phase_5,2,5,63,98,1300143628
6814,17,Jits_Phase_5,3,1,48,36,1300201592
6814,17,Jits_Phase_5,0,5,80,127,1300604200
6814,17,Jits_Phase_5,1,5,63,98,1300613424
6814,17,Jits_Phase_5,2,5,56,103,1300644068
6814,17,Jits_Phase_5,3,1,48,28,1300711620
6814,17,Jits_Phase_5,0,5,63,98,1301063956
6814,17,Jits_Phase_5,1,5,80,127,1301103968
6814,17,Jits_Phase_5,2,5,56,103,1301164356
6814,17,Jits_Phase_5,3,1,48,28,1301231292
6814,17,Jits_Phase_5,0,5,63,98,1301574048
6814,17,Jits_Phase_5,1,5,56,103,1301624172
6814,17,Jits_Phase_5,2,5,80,127,1301653848
6814,17,Jits_Phase_5,3,1,48,36,1301745436
6814,17,Jits_Phase_5,0,5,80,127,1302073948
6814,17,Jits_Phase_5,1,5,63,98,1302083844
6814,17,Jits_Phase_5,2,5,56,103,1302153672
6814,17,Jits_Phase_5,3,1,48,37,1302223388
6814,17,Jits_Phase_5,0,5,80,127,1302633948
6814,17,Jits_Phase_5,1,5,56,103,1302644068
6814,17,Jits_Phase_5,2,5,63,98,1302647432
6814,17,Jits_Phase_5,3,1,48,43,1302710708
6814,17,Jits_Phase_5,0,5,56,103,1303074152
6814,17,Jits_Phase_5,1,5,80,127,1303093564
6814,17,Jits_Phase_5,2,5,63,98,1303103832
6814,17,Jits_Phase_5,3,1,48,38,1303191292
6814,17,Jits_Phase_5,0,5,63,98,1303584180
6814,17,Jits_Phase_5,1,5,56,103,1303623968
6814,17,Jits_Phase_5,2,5,80,127,1303643604
6814,17,Jits_Phase_5,3,1,48,20,1303672720
6814,17,Jits_Phase_5,0,5,63,98,1304083756
6814,17,Jits_Phase_5,1,5,56,103,1304144088
6814,17,Jits_Phase_5,2,5,80,127,1304147236
6814,17,Jits_Phase_5,3,1,48,40,1304163624
6814,17,Jits_Phase_5,0,5,56,103,1304543640
6814,17,Jits_Phase_5,1,5,80,127,1304564024
6814,17,Jits_Phase_5,2,5,63,98,1304604032
6814,17,Jits_Phase_5,3,1,48,38,1304694672
6814,17,Jits_Phase_5,0,5,56,103,1305073892
6814,17,Jits_Phase_5,1,5,63,98,1305093676
6814,17,Jits_Phase_5,2,5,80,127,1305103648
6814,17,Jits_Phase_5,3,1,48,34,1305203732
6814,17,Jits_Phase_5,0,5,80,127,1305544064
6814,17,Jits_Phase_5,1,5,56,103,1305573736
6814,17,Jits_Phase_5,2,5,63,98,1305613672
6814,17,Jits_Phase_5,3,1,48,40,1305695400
6814,17,Jits_Phase_5,0,5,80,127,1306054016
6814,17,Jits_Phase_5,1,5,56,103,1306073724
6814,17,Jits_Phase_5,2,5,63,98,1306133816
6814,17,Jits_Phase_5,3,1,48,16,1306161464
6814,17,Jits_Phase_5,0,5,56,103,1306563892
6814,17,Jits_Phase_5,1,5,80,127,1306584572
6814,17,Jits_Phase_5,2,5,63,98,1306643692
6814,17,Jits_Phase_5,3,1,48,40,1306651444
6814,17,Jits_Phase_5,0,5,80,127,1307044176
6814,17,Jits_Phase_5,1,5,56,103,1307053548
6814,17,Jits_Phase_5,2,5,63,98,1307094680
6814,17,Jits_Phase_5,3,1,48,38,1307149036
6814,17,Jits_Phase_5,0,5,63,98,1307543860
6814,17,Jits_Phase_5,1,5,56,103,1307583796
6814,17,Jits_Phase_5,2,5,80,127,1307587012
6814,17,Jits_Phase_5,3,1,48,37,1307637400
6814,17,Jits_Phase_5,0,5,63,98,1308063976
6814,17,Jits_Phase_5,1,1,48,40,1308081020
6814,17,Jits_Phase_5,2,5,80,127,1308104128
6814,17,Jits_Phase_5,3,5,56,103,1308133728
6814,17,Jits_Phase_5,0,5,56,103,1308553612
6814,17,Jits_Phase_5,1,5,63,98,1308563808
6814,17,Jits_Phase_5,2,5,80,127,1308593480
6814,17,Jits_Phase_5,0,1,48,42,1309027528
6814,17,Jits_Phase_5,1,5,80,127,1309044112
6814,17,Jits_Phase_5,2,5,63,98,1309113644
6814,17,Jits_Phase_5,3,5,56,103,1309124568
6814,17,Jits_Phase_5,0,5,63,98,1309543720
6814,17,Jits_Phase_5,1,1,48,36,1309557476
6814,17,Jits_Phase_5,2,5,56,103,1309613468
6814,17,Jits_Phase_5,3,5,80,127,1309623588
6814,17,Jits_Phase_5,0,5,63,98,1310023992
6814,17,Jits_Phase_5,1,5,56,103,1310043480
6814,17,Jits_Phase_5,2,1,48,38,1310047424
6814,17,Jits_Phase_5,3,5,80,127,1310083632
6814,17,Jits_Phase_5,0,5,56,103,1310504340
6814,17,Jits_Phase_5,1,5,63,98,1310513788
6814,17,Jits_Phase_5,2,1,48,43,1310536012
6814,17,Jits_Phase_5,3,5,80,127,1310594616
6814,17,Jits_Phase_5,0,5,63,98,1310993816
6814,17,Jits_Phase_5,1,5,56,103,1311023664
6814,17,Jits_Phase_5,2,1,48,42,1311062608
6814,17,Jits_Phase_5,3,5,80,127,1311064492
6814,17,Jits_Phase_5,0,5,56,103,1311493560
6814,17,Jits_Phase_5,1,5,63,98,1311533524
6814,17,Jits_Phase_5,2,5,80,127,1311574504
6814,17,Jits_Phase_5,3,1,48,36,1311575992
6814,17,Jits_Phase_5,0,5,80,127,1311994440
6814,17,Jits_Phase_5,1,1,48,33,1312059616
6814,17,Jits_Phase_5,2,5,56,103,1312074104
6814,17,Jits_Phase_5,3,5,63,98,1312084448
6814,17,Jits_Phase_5,0,5,56,103,1312533840
6814,17,Jits_Phase_5,1,5,63,98,1312537132
6814,17,Jits_Phase_5,2,5,80,127,1312544064
6814,17,Jits_Phase_5,3,1,48,40,1312556768
6814,17,Jits_Phase_5,0,1,48,34,1313045768
6814,17,Jits_Phase_5,1,5,56,103,1313054032
6814,17,Jits_Phase_5,2,5,63,98,1313073620
6814,17,Jits_Phase_5,3,5,80,127,1313083888
6814,17,Jits_Phase_5,0,5,63,98,1313514008
6814,17,Jits_Phase_5,1,5,80,127,1313524056
6814,17,Jits_Phase_5,2,5,56,103,1313543616
6814,17,Jits_Phase_5,3,1,48,36,1313567884
6814,17,Jits_Phase_5,0,5,63,98,1314023868
6814,17,Jits_Phase_5,1,1,48,37,1314048560
6814,17,Jits_Phase_5,2,5,56,103,1314103524
6814,17,Jits_Phase_5,3,5,80,127,1314106892
6814,17,Jits_Phase_5,0,5,63,98,1314523608
6814,17,Jits_Phase_5,1,5,56,103,1314543916
6814,17,Jits_Phase_5,2,1,48,35,1314568460
6814,17,Jits_Phase_5,3,5,80,127,1314573656
6814,17,Jits_Phase_5,0,5,56,103,1315024180
6814,17,Jits_Phase_5,1,5,63,98,1315043664
6814,17,Jits_Phase_5,2,5,80,127,1315053784
6814,17,Jits_Phase_5,3,1,48,34,1315065444
6814,17,Jits_Phase_5,0,5,56,103,1315553532
6814,17,Jits_Phase_5,1,1,48,36,1315576648
6814,17,Jits_Phase_5,2,5,63,98,1315584468
6814,17,Jits_Phase_5,3,5,80,127,1315587760
6814,17,Jits_Phase_5,0,5,56,103,1316004360
6814,17,Jits_Phase_5,1,5,63,98,1316044372
6814,17,Jits_Phase_5,2,1,48,37,1316047716
6814,17,Jits_Phase_5,3,5,80,127,1316103560
6814,17,Jits_Phase_5,0,5,56,103,1316524500
6814,17,Jits_Phase_5,1,5,63,98,1316533576
6814,17,Jits_Phase_5,2,1,48,41,1316543068
6814,17,Jits_Phase_5,3,5,80,127,1316593956
6814,17,Jits_Phase_5,0,5,56,103,1317024188
6814,17,Jits_Phase_5,1,5,80,127,1317043600
6814,17,Jits_Phase_5,2,1,48,32,1317062760
6814,17,Jits_Phase_5,3,5,63,98,1317074240
6814,17,Jits_Phase_5,0,5,80,127,1317523800
6814,17,Jits_Phase_5,1,5,56,103,1317533996
6814,17,Jits_Phase_5,2,5,63,98,1317553484
6814,17,Jits_Phase_5,3,1,48,30,1317560568
6814,17,Jits_Phase_5,0,5,63,98,1318014496
6814,17,Jits_Phase_5,1,1,48,34,1318061752
6814,17,Jits_Phase_5,2,5,80,127,1318094356
6814,17,Jits_Phase_5,3,5,56,103,1318104628
6814,17,Jits_Phase_5,0,1,48,35,1318566360
6814,17,Jits_Phase_5,1,5,80,127,1318604444
6814,17,Jits_Phase_5,2,5,56,103,1318623556
6814,17,Jits_Phase_5,3,5,63,98,1318626696
6814,17,Jits_Phase_5,0,1,48,37,1319064232
6814,17,Jits_Phase_5,1,5,63,98,1319093624
6814,17,Jits_Phase_5,2,5,80,127,1319096988
6814,17,Jits_Phase_5,3,5,56,103,1319153936
6814,17,Jits_Phase_5,0,5,56,103,1319573968
6814,17,Jits_Phase_5,1,5,80,127,1319584088
6814,17,Jits_Phase_5,2,1,48,41,1319589228
6814,17,Jits_Phase_5,3,5,63,98,1319624020
6814,17,Jits_Phase_5,0,5,56,103,1320054100
6814,17,Jits_Phase_5,1,1,48,38,1320096472
6814,17,Jits_Phase_5,2,5,63,98,1320113584
6814,17,Jits_Phase_5,3,5,80,127,1320123780
6814,17,Jits_Phase_5,0,5,63,98,1320564272
6814,17,Jits_Phase_5,1,5,80,127,1320604064
6814,17,Jits_Phase_5,2,1,48,35,1320616100
6814,17,Jits_Phase_5,3,5,56,103,1320643916
6814,17,Jits_Phase_5,0,5,56,103,1321063724
6814,17,Jits_Phase_5,1,1,48,36,1321119956
6814,17,Jits_Phase_5,2,5,63,98,1321143660
6814,17,Jits_Phase_5,3,5,80,127,1321146948
6814,17,Jits_Phase_5,0,1,48,41,1321612600
6814,17,Jits_Phase_5,1,5,80,127,1321623932
6814,17,Jits_Phase_5,2,5,56,103,1321653752
6814,17,Jits_Phase_5,3,5,63,98,1321656672
6814,17,Jits_Phase_5,0,5,56,103,1322083676
6814,17,Jits_Phase_5,1,1,48,28,1322087388
6814,17,Jits_Phase_5,2,5,80,127,1322104276
6814,17,Jits_Phase_5,3,5,63,98,1322144212
6814,17,Jits_Phase_5,0,5,80,127,1322563884
6814,17,Jits_Phase_5,1,5,63,98,1322584568
6814,17,Jits_Phase_5,2,1,48,33,1322610008
6814,17,Jits_Phase_5,3,5,56,103,1322643676
6814,17,Jits_Phase_5,0,5,63,98,1323073836
6814,17,Jits_Phase_5,1,5,56,103,1323084256
6814,17,Jits_Phase_5,2,1,48,35,1323105360
6814,17,Jits_Phase_5,3,5,80,127,1323134596
6814,17,Jits_Phase_5,0,5,56,103,1323564516
6814,17,Jits_Phase_5,1,5,63,98,1323583780
6814,17,Jits_Phase_5,2,5,80,127,1323594200
6814,17,Jits_Phase_5,3,1,48,43,1323606388
6814,17,Jits_Phase_5,0,5,56,103,1324054292
6814,17,Jits_Phase_5,1,5,63,98,1324057276
6814,17,Jits_Phase_5,2,5,80,127,1324074324
6814,17,Jits_Phase_5,3,1,48,36,1324085316
6814,17,Jits_Phase_5,0,1,48,41,1324555728
6814,17,Jits_Phase_5,1,5,63,98,1324593468
6814,17,Jits_Phase_5,2,5,56,103,1324624636
6814,17,Jits_Phase_5,3,5,80,127,1324653848
6814,17,Jits_Phase_5,0,5,80,127,1325054460
6814,17,Jits_Phase_5,1,1,48,38,1325085008
6814,17,Jits_Phase_5,2,5,56,103,1325144460
6814,17,Jits_Phase_5,3,5,63,98,1325147528
6814,17,Jits_Phase_5,0,5,56,103,1325554292
6814,17,Jits_Phase_5,1,5,80,127,1325557284
6814,17,Jits_Phase_5,2,1,48,41,1325584908
6814,17,Jits_Phase_5,3,5,63,98,1325634024
6814,17,Jits_Phase_5,0,1,48,37,1326046440
6814,17,Jits_Phase_5,1,5,80,127,1326053808
6814,17,Jits_Phase_5,2,5,63,98,1326114376
6814,17,Jits_Phase_5,3,5,56,103,1326143960
6814,17,Jits_Phase_5,0,5,63,98,1326553420
6814,17,Jits_Phase_5,1,1,48,42,1326561796
6814,17,Jits_Phase_5,2,5,80,127,1326563608
6814,17,Jits_Phase_5,3,5,56,103,1326634432
6814,17,Jits_Phase_5,0,1,48,36,1327079652
6814,17,Jits_Phase_5,1,5,56,103,1327113544
6814,17,Jits_Phase_5,2,5,80,127,1327144292
6814,17,Jits_Phase_5,3,5,63,98,1327193428
6814,17,Jits_Phase_5,0,1,48,39,1327615064
6814,17,Jits_Phase_5,1,5,63,98,1327704640
6814,17,Jits_Phase_5,2,5,56,103,1327734368
6814,17,Jits_Phase_5,3,5,80,127,1327737288
6814,17,Jits_Phase_5,0,1,48,35,1328154584
6814,17,Jits_Phase_5,1,5,63,98,1328204528
6814,17,Jits_Phase_5,2,5,80,127,1328223716
6814,17,Jits_Phase_5,3,5,56,103,1328233764
6814,17,Jits_Phase_5,0,1,48,29,1328663928
6814,17,Jits_Phase_5,1,5,56,103,1328714168
6814,17,Jits_Phase_5,2,5,63,98,1328717384
6814,17,Jits_Phase_5,3,5,80,127,1328733652
6814,17,Jits_Phase_5,0,5,56,103,1329163548
6814,17,Jits_Phase_5,1,5,63,98,1329173820
6814,17,Jits_Phase_5,2,1,48,30,1329184532
6814,17,Jits_Phase_5,3,5,80,127,1329203512
6814,17,Jits_Phase_5,0,1,48,34,1329671896
6814,17,Jits_Phase_5,1,5,63,98,1329683756
6814,17,Jits_Phase_5,2,5,80,127,1329704388
6814,17,Jits_Phase_5,3,5,56,103,1329744324
6814,17,Jits_Phase_5,0,1,48,29,1330162808
6814,17,Jits_Phase_5,1,5,56,103,1330214244
6814,17,Jits_Phase_5,2,5,63,98,1330254332
6814,17,Jits_Phase_5,3,5,80,127,1330257472
6814,17,Jits_Phase_5,0,5,80,127,1330653512
6814,17,Jits_Phase_5,1,1,48,33,1330682780
6814,17,Jits_Phase_5,2,5,56,103,1330693444
6814,17,Jits_Phase_5,3,5,63,98,1330743672
6814,17,Jits_Phase_5,0,5,56,103,1331213664
6814,17,Jits_Phase_5,1,1,48,27,1331218952
6814,17,Jits_Phase_5,2,5,80,127,1331223852
6814,17,Jits_Phase_5,3,5,63,98,1331253628
6814,17,Jits_Phase_5,0,5,56,103,1331664204
6814,17,Jits_Phase_5,1,5,80,127,1331704440
6814,17,Jits_Phase_5,2,1,48,28,1331708608
6814,17,Jits_Phase_5,3,5,63,98,1331754288
6814,17,Jits_Phase_5,0,5,56,103,1332164116
6814,17,Jits_Phase_5,1,1,48,32,1332197952
6814,17,Jits_Phase_5,2,5,80,127,1332203824
6814,17,Jits_Phase_5,3,5,63,98,1332254572
6814,17,Jits_Phase_5,0,5,80,127,1332653544
6814,17,Jits_Phase_5,1,1,48,32,1332690592
6814,17,Jits_Phase_5,2,5,63,98,1332734376
6814,17,Jits_Phase_5,3,5,56,103,1332743528
6814,17,Jits_Phase_5,0,5,80,127,1333204252
6814,17,Jits_Phase_5,1,1,48,35,1333206848
6814,17,Jits_Phase_5,2,5,56,103,1333213692
6814,17,Jits_Phase_5,3,5,63,98,1333234004
6814,17,Jits_Phase_5,0,5,63,98,1333674348
6814,17,Jits_Phase_5,1,1,48,37,1333720392
6814,17,Jits_Phase_5,2,5,56,103,1333744172
6814,17,Jits_Phase_5,3,5,80,127,1333747164
6814,17,Jits_Phase_5,0,5,80,127,1334163900
6814,17,Jits_Phase_5,1,1,48,36,1334207172
6814,17,Jits_Phase_5,2,5,63,98,1334214244
6814,17,Jits_Phase_5,3,5,56,103,1334254180
6814,17,Jits_Phase_5,0,5,63,98,1334703448
6814,17,Jits_Phase_5,1,1,48,35,1334716680
6814,17,Jits_Phase_5,2,5,56,103,1334744428
6814,17,Jits_Phase_5,3,5,80,127,1334753576
6814,17,Jits_Phase_5,0,5,63,98,1335194132
6814,17,Jits_Phase_5,1,5,56,103,1335213324
6814,17,Jits_Phase_5,2,1,48,38,1335234376
6814,17,Jits_Phase_5,3,5,80,127,1335235564
6814,17,Jits_Phase_5,0,5,80,127,1335653728
6814,17,Jits_Phase_5,1,5,56,103,1335664072
6814,17,Jits_Phase_5,2,5,63,98,1335683336
6814,17,Jits_Phase_5,3,1,48,36,1335720308
6814,17,Jits_Phase_5,0,5,63,98,1336184200
6814,17,Jits_Phase_5,1,5,56,103,1336224140
6814,17,Jits_Phase_5,2,1,48,32,1336233856
6814,17,Jits_Phase_5,3,5,80,127,1336253884
6814,17,Jits_Phase_5,0,5,56,103,1336644248
6814,17,Jits_Phase_5,1,5,63,98,1336673624
6814,17,Jits_Phase_5,2,5,80,127,1336704268
6814,17,Jits_Phase_5,3,1,48,37,1336737424
6814,17,Jits_Phase_5,0,5,80,127,1337063976
6814,17,Jits_Phase_5,1,5,56,103,1337133528
6814,17,Jits_Phase_5,2,5,63,98,1337136748
6814,17,Jits_Phase_5,3,1,48,38,1337204224
6814,17,Jits_Phase_5,0,5,56,103,1337573996
6814,17,Jits_Phase_5,1,5,63,98,1337624120
6814,17,Jits_Phase_5,2,5,80,127,1337653744
6814,17,Jits_Phase_5,3,1,48,39,1337661052
6814,17,Jits_Phase_5,0,5,63,98,1338053984
6814,17,Jits_Phase_5,1,5,80,127,1338057272
6814,17,Jits_Phase_5,2,5,56,103,1338114368
6814,17,Jits_Phase_5,3,1,48,13,1338131880
6814,17,Jits_Phase_5,0,5,56,103,1338584436
6814,17,Jits_Phase_5,1,5,80,127,1338593584
6814,17,Jits_Phase_5,2,1,48,35,1338604272
6814,17,Jits_Phase_5,3,5,63,98,1338644000
6814,17,Jits_Phase_5,0,5,63,98,1339053484
6814,17,Jits_Phase_5,1,5,56,103,1339063756
6814,17,Jits_Phase_5,2,5,80,127,1339094400
6814,17,Jits_Phase_5,3,1,48,39,1339126960
6814,17,Jits_Phase_5,0,5,63,98,1339584016
6814,17,Jits_Phase_5,1,5,80,127,1339587304
6814,17,Jits_Phase_5,2,1,48,40,1339604000
6814,17,Jits_Phase_5,3,5,56,103,1339613756
6814,17,Jits_Phase_5,0,1,48,39,1340099748
6814,17,Jits_Phase_5,1,5,63,98,1340104052
6814,17,Jits_Phase_5,2,5,56,103,1340123464
6814,17,Jits_Phase_5,3,5,80,127,1340126604
6814,17,Jits_Phase_5,0,1,48,36,1340554328
6814,17,Jits_Phase_5,1,5,63,98,1340563936
6814,17,Jits_Phase_5,2,5,56,103,1340633544
6814,17,Jits_Phase_5,3,5,80,127,1340654060
6814,17,Jits_Phase_5,0,5,56,103,1341054256
6814,17,Jits_Phase_5,1,5,63,98,1341063628
6814,17,Jits_Phase_5,2,1,48,38,1341082936
6814,17,Jits_Phase_5,3,5,80,127,1341153524
6814,17,Jits_Phase_5,0,5,56,103,1341573500
6814,17,Jits_Phase_5,1,1,48,36,1341609128
6814,17,Jits_Phase_5,2,5,80,127,1341613428
6814,17,Jits_Phase_5,3,5,63,98,1341623848
6814,17,Jits_Phase_5,0,5,56,103,1342093940
6814,17,Jits_Phase_5,1,1,48,39,1342113472
6814,17,Jits_Phase_5,2,5,63,98,1342124356
6814,17,Jits_Phase_5,3,5,80,127,1342154032
6814,17,Jits_Phase_5,0,5,80,127,1342553328
6814,17,Jits_Phase_5,1,5,63,98,1342594312
6814,17,Jits_Phase_5,2,1,48,36,1342605820
6814,17,Jits_Phase_5,3,5,56,103,1342614016
6814,17,Jits_Phase_5,0,5,56,103,1343094140
6814,17,Jits_Phase_5,1,5,80,127,1343113704
6814,17,Jits_Phase_5,2,1,48,44,1343121924
6814,17,Jits_Phase_5,3,5,63,98,1343134080
6814,17,Jits_Phase_5,0,5,63,98,1343564012
6814,17,Jits_Phase_5,1,5,56,103,1343574432
6814,17,Jits_Phase_5,2,1,48,44,1343625352
6814,17,Jits_Phase_5,3,5,80,127,1343633764
6814,17,Jits_Phase_5,0,5,56,103,1344063832
6814,17,Jits_Phase_5,1,5,63,98,1344133440
6814,17,Jits_Phase_5,2,1,48,46,1344138652
6814,17,Jits_Phase_5,3,5,80,127,1344153964
6814,17,Jits_Phase_5,0,5,56,103,1344563524
6814,17,Jits_Phase_5,1,5,63,98,1344594244
6814,17,Jits_Phase_5,2,1,48,44,1344615572
6814,17,Jits_Phase_5,3,5,80,127,1344634172
6814,17,Jits_Phase_5,0,5,63,98,1345054140
6814,17,Jits_Phase_5,1,5,56,103,1345104416
6814,17,Jits_Phase_5,2,5,80,127,1345113340
6814,17,Jits_Phase_5,3,1,48,36,1345146716
6814,17,Jits_Phase_5,0,5,56,103,1345593964
6814,17,Jits_Phase_5,1,5,63,98,1345643944
6814,17,Jits_Phase_5,2,1,48,39,1345649084
6814,17,Jits_Phase_5,3,5,80,127,1345654208
6814,17,Jits_Phase_5,0,5,56,103,1346063816
6814,17,Jits_Phase_5,1,5,63,98,1346074012
6814,17,Jits_Phase_5,2,1,48,41,1346152084
6814,17,Jits_Phase_5,3,5,80,127,1346153820
6814,17,Jits_Phase_5,0,9999,9999,9999,1261801536
6814,17,Jits_Phase_5,1,9999,9999,9999,1262301296
6814,17,Jits_Phase_5,2,9999,9999,9999,1262802036
6814,17,Jits_Phase_5,3,9999,9999,9999,1263301720
6814,17,Jits_Phase_5,4,9999,9999,9999,1263801400
6814,17,Jits_Phase_5,5,9999,9999,9999,1264301152
6814,17,Jits_Phase_5,6,9999,9999,9999,1264801872
6814,17,Jits_Phase_5,7,9999,9999,9999,1265301564
6814,17,Jits_Phase_5,8,9999,9999,9999,1265801324
6814,17,Jits_Phase_5,9,9999,9999,9999,1266302064
6814,17,Jits_Phase_5,10,9999,9999,9999,1266801748
6814,17,Jits_Phase_5,11,9999,9999,9999,1267301440
6814,17,Jits_Phase_5,12,9999,9999,9999,1267801184
6814,17,Jits_Phase_5,13,9999,9999,9999,1268301900
6814,17,Jits_Phase_5,14,9999,9999,9999,1268801652
6814,17,Jits_Phase_5,15,9999,9999,9999,1269301340
6814,17,Jits_Phase_5,16,9999,9999,9999,1269802076
6814,17,Jits_Phase_5,17,9999,9999,9999,1270301796
6814,17,Jits_Phase_5,18,9999,9999,9999,1270801480
6814,17,Jits_Phase_5,19,9999,9999,9999,1271301244
6814,17,Jits_Phase_5,20,9999,9999,9999,1271801912
6814,17,Jits_Phase_5,21,9999,9999,9999,1272301672
6814,17,Jits_Phase_5,22,9999,9999,9999,1272801360
6814,17,Jits_Phase_5,23,9999,9999,9999,1273302096
6814,17,Jits_Phase_5,24,9999,9999,9999,1273812052
6814,17,Jits_Phase_5,25,9999,9999,9999,1274311732
6814,17,Jits_Phase_5,26,9999,9999,9999,1274811500
6814,17,Jits_Phase_5,27,9999,9999,9999,1275311160
6814,17,Jits_Phase_5,28,9999,9999,9999,1275811900
6814,17,Jits_Phase_5,29,9999,9999,9999,1276311660
6814,17,Jits_Phase_5,30,9999,9999,9999,1276801088
6814,17,Jits_Phase_5,31,9999,9999,9999,1277301824
6814,17,Jits_Phase_5,32,9999,9999,9999,1277801588
6814,17,Jits_Phase_5,33,9999,9999,9999,1278301276
6814,17,Jits_Phase_5,34,9999,9999,9999,1278802016
6814,17,Jits_Phase_5,35,9999,9999,9999,1279301708
6814,17,Jits_Phase_5,36,9999,9999,9999,1279801452
6814,17,Jits_Phase_5,37,9999,9999,9999,1280301128
6814,17,Jits_Phase_5,38,9999,9999,9999,1280801864
6814,17,Jits_Phase_5,39,9999,9999,9999,1281301588
6814,17,Jits_Phase_5,40,9999,9999,9999,1281801340
6814,17,Jits_Phase_5,41,9999,9999,9999,1282302072
6814,17,Jits_Phase_5,42,9999,9999,9999,1282801756
6814,17,Jits_Phase_5,43,9999,9999,9999,1283301500
6814,17,Jits_Phase_5,44,9999,9999,9999,1283801172
6814,17,Jits_Phase_5,45,9999,9999,9999,1284301904
6814,17,Jits_Phase_5,46,9999,9999,9999,1284801592
6814,17,Jits_Phase_5,47,9999,9999,9999,1285301348
6814,17,Jits_Phase_5,48,9999,9999,9999,1285811284
6814,17,Jits_Phase_5,49,9999,9999,9999,1286312028
6814,17,Jits_Phase_5,50,9999,9999,9999,1286811764
6814,17,Jits_Phase_5,51,9999,9999,9999,1287311448
6814,17,Jits_Phase_5,52,9999,9999,9999,1287811140
6814,17,Jits_Phase_5,53,9999,9999,9999,1288311880
6814,17,Jits_Phase_5,54,9999,9999,9999,1288811628
6814,17,Jits_Phase_5,55,9999,9999,9999,1289311316
6814,17,Jits_Phase_5,56,9999,9999,9999,1289812052
6814,17,Jits_Phase_5,57,9999,9999,9999,1290311736
6814,17,Jits_Phase_5,58,9999,9999,9999,1290811504
6814,17,Jits_Phase_5,59,9999,9999,9999,1291311176
6814,17,Jits_Phase_5,60,9999,9999,9999,1291811916
6814,17,Jits_Phase_5,61,9999,9999,9999,1292311636
6814,17,Jits_Phase_5,62,9999,9999,9999,1292811320
6814,17,Jits_Phase_5,63,9999,9999,9999,1293312056
6814,17,Jits_Phase_5,64,9999,9999,9999,1293841472
6814,17,Jits_Phase_5,65,9999,9999,9999,1294341232
6814,17,Jits_Phase_5,66,9999,9999,9999,1294841972
6814,17,Jits_Phase_5,67,9999,9999,9999,1295341648
6814,17,Jits_Phase_5,68,9999,9999,9999,1295841340
6814,17,Jits_Phase_5,69,9999,9999,9999,1296342100
6814,17,Jits_Phase_5,70,9999,9999,9999,1296852040
6814,17,Jits_Phase_5,71,9999,9999,9999,1297351804
6814,17,Jits_Phase_5,72,9999,9999,9999,1297851492
6814,17,Jits_Phase_5,73,9999,9999,9999,1298351168
6814,17,Jits_Phase_5,74,9999,9999,9999,1298851908
6814,17,Jits_Phase_5,75,9999,9999,9999,1299351652
6814,17,Jits_Phase_5,76,9999,9999,9999,1299851348
6814,17,Jits_Phase_5,77,9999,9999,9999,1300352072
6814,17,Jits_Phase_5,78,9999,9999,9999,1300862028
6814,17,Jits_Phase_5,79,9999,9999,9999,1301361788
6814,17,Jits_Phase_5,80,9999,9999,9999,1301861468
6814,17,Jits_Phase_5,81,9999,9999,9999,1302341740
6814,17,Jits_Phase_5,82,9999,9999,9999,1302841428
6814,17,Jits_Phase_5,83,9999,9999,9999,1303341120
6814,17,Jits_Phase_5,84,9999,9999,9999,1303841860
6814,17,Jits_Phase_5,85,9999,9999,9999,1304341576
6814,17,Jits_Phase_5,86,9999,9999,9999,1304841320
6814,17,Jits_Phase_5,87,9999,9999,9999,1305342056
6814,17,Jits_Phase_5,88,9999,9999,9999,1305841740
6814,17,Jits_Phase_5,89,9999,9999,9999,1306341436
6814,17,Jits_Phase_5,90,9999,9999,9999,1306841200
6814,17,Jits_Phase_5,91,9999,9999,9999,1307341928
6814,17,Jits_Phase_5,92,9999,9999,9999,1307841604
6814,17,Jits_Phase_5,93,9999,9999,9999,1308341356
6814,17,Jits_Phase_5,94,9999,9999,9999,1308842096
6814,17,Jits_Phase_5,95,9999,9999,9999,1309341804
6814,17,Jits_Phase_5,96,9999,9999,9999,1309841480
6814,17,Jits_Phase_5,97,9999,9999,9999,1310292080
6814,17,Jits_Phase_5,98,9999,9999,9999,1310791760
6814,17,Jits_Phase_5,99,9999,9999,9999,1311291448
6814,17,Jits_Phase_5,100,9999,9999,9999,1311791192
6814,17,Jits_Phase_5,101,9999,9999,9999,1312291928
6814,17,Jits_Phase_5,102,9999,9999,9999,1312791656
6814,17,Jits_Phase_5,103,9999,9999,9999,1313291344
6814,17,Jits_Phase_5,104,9999,9999,9999,1313792060
6814,17,Jits_Phase_5,105,9999,9999,9999,1314302064
6814,17,Jits_Phase_5,106,9999,9999,9999,1314801736
6814,17,Jits_Phase_5,107,9999,9999,9999,1315301480
6814,17,Jits_Phase_5,108,9999,9999,9999,1315801160
6814,17,Jits_Phase_5,109,9999,9999,9999,1316301896
6814,17,Jits_Phase_5,110,9999,9999,9999,1316801656
6814,17,Jits_Phase_5,111,9999,9999,9999,1317301344
6814,17,Jits_Phase_5,112,9999,9999,9999,1317802076
6814,17,Jits_Phase_5,113,9999,9999,9999,1318301768
6814,17,Jits_Phase_5,114,9999,9999,9999,1318851708
6814,17,Jits_Phase_5,115,9999,9999,9999,1319351376
6814,17,Jits_Phase_5,116,9999,9999,9999,1319851124
6814,17,Jits_Phase_5,117,9999,9999,9999,1320351856
6814,17,Jits_Phase_5,118,9999,9999,9999,1320851544
6814,17,Jits_Phase_5,119,9999,9999,9999,1321351288
6814,17,Jits_Phase_5,120,9999,9999,9999,1321852016
6814,17,Jits_Phase_5,121,9999,9999,9999,1322351692
6814,17,Jits_Phase_5,122,9999,9999,9999,1322851456
6814,17,Jits_Phase_5,123,9999,9999,9999,1323351140
6814,17,Jits_Phase_5,124,9999,9999,9999,1323851860
6814,17,Jits_Phase_5,125,9999,9999,9999,1324351608
6814,17,Jits_Phase_5,126,9999,9999,9999,1324851300
6814,17,Jits_Phase_5,127,9999,9999,9999,1325352016
6814,17,Jits_Phase_5,128,9999,9999,9999,1325851740
6814,17,Jits_Phase_5,129,9999,9999,9999,1326351428
6814,17,Jits_Phase_5,130,9999,9999,9999,1326851176
6814,17,Jits_Phase_5,131,9999,9999,9999,1327451260
6814,17,Jits_Phase_5,132,9999,9999,9999,1327951976
6814,17,Jits_Phase_5,133,9999,9999,9999,1328451656
6814,17,Jits_Phase_5,134,9999,9999,9999,1328951392
6814,17,Jits_Phase_5,135,9999,9999,9999,1329451068
6814,17,Jits_Phase_5,136,9999,9999,9999,1329951800
6814,17,Jits_Phase_5,137,9999,9999,9999,1330451520
6814,17,Jits_Phase_5,138,9999,9999,9999,1330951272
6814,17,Jits_Phase_5,139,9999,9999,9999,1331452012
6814,17,Jits_Phase_5,140,9999,9999,9999,1331951700
6814,17,Jits_Phase_5,141,9999,9999,9999,1332451388
6814,17,Jits_Phase_5,142,9999,9999,9999,1332951152
6814,17,Jits_Phase_5,143,9999,9999,9999,1333451892
6814,17,Jits_Phase_5,144,9999,9999,9999,1333951572
6814,17,Jits_Phase_5,145,9999,9999,9999,1334451320
6814,17,Jits_Phase_5,146,9999,9999,9999,1334952060
6814,17,Jits_Phase_5,147,9999,9999,9999,1335451736
6814,17,Jits_Phase_5,148,9999,9999,9999,1335951480
6814,17,Jits_Phase_5,149,9999,9999,9999,1336451172
6814,17,Jits_Phase_5,150,9999,9999,9999,1336851564
6814,17,Jits_Phase_5,151,9999,9999,9999,1337351240
6814,17,Jits_Phase_5,152,9999,9999,9999,1337851976
6814,17,Jits_Phase_5,153,9999,9999,9999,1338351728
6814,17,Jits_Phase_5,154,9999,9999,9999,1338851404
6814,17,Jits_Phase_5,155,9999,9999,9999,1339351160
6814,17,Jits_Phase_5,156,9999,9999,9999,1339851872
6814,17,Jits_Phase_5,157,9999,9999,9999,1340351612
6814,17,Jits_Phase_5,158,9999,9999,9999,1340851292
6814,17,Jits_Phase_5,159,9999,9999,9999,1341352012
6814,17,Jits_Phase_5,160,9999,9999,9999,1341851704
6814,17,Jits_Phase_5,161,9999,9999,9999,1342351468
6814,17,Jits_Phase_5,162,9999,9999,9999,1342851156
6814,17,Jits_Phase_5,163,9999,9999,9999,1343351892
6814,17,Jits_Phase_5,164,9999,9999,9999,1343851580
6814,17,Jits_Phase_5,165,9999,9999,9999,1344351328
6814,17,Jits_Phase_5,166,9999,9999,9999,1344852060
6814,17,Jits_Phase_5,167,9999,9999,9999,1345351748
6814,17,Jits_Phase_5,168,9999,9999,9999,1345851496
6814,17,Jits_Phase_5,169,9999,9999,9999,1346351184
6815,15,Jits_Phase_8,0,5,56,103,1355950440
6815,15,Jits_Phase_8,1,5,63,98,1355953536
6815,15,Jits_Phase_8,2,5,80,127,1355956736
6815,15,Jits_Phase_8,0,5,56,103,1356751124
6815,15,Jits_Phase_8,1,5,63,98,1356754224
6815,15,Jits_Phase_8,2,5,80,127,1356757496
6815,15,Jits_Phase_8,3,1,48,22,1356833616
6815,15,Jits_Phase_8,0,5,80,127,1357490512
6815,15,Jits_Phase_8,1,5,63,98,1357580648
6815,15,Jits_Phase_8,2,5,56,103,1357590768
6815,15,Jits_Phase_8,3,1,48,33,1357647916
6815,15,Jits_Phase_8,0,5,56,103,1358310740
6815,15,Jits_Phase_8,1,5,63,98,1358320936
6815,15,Jits_Phase_8,2,5,80,127,1358411240
6815,15,Jits_Phase_8,3,1,48,36,1358452940
6815,15,Jits_Phase_8,0,5,63,98,1359080768
6815,15,Jits_Phase_8,1,5,80,127,1359110664
6815,15,Jits_Phase_8,2,5,56,103,1359141336
6815,15,Jits_Phase_8,3,1,48,29,1359223340
6815,15,Jits_Phase_8,0,5,56,103,1359880520
6815,15,Jits_Phase_8,1,5,80,127,1359980940
6815,15,Jits_Phase_8,2,1,48,31,1360004140
6815,15,Jits_Phase_8,3,5,63,98,1360031060
6815,15,Jits_Phase_8,0,5,56,103,1360681512
6815,15,Jits_Phase_8,1,5,80,127,1360730744
6815,15,Jits_Phase_8,2,5,63,98,1360770532
6815,15,Jits_Phase_8,3,1,48,35,1360825260
6815,15,Jits_Phase_8,0,5,80,127,1361510728
6815,15,Jits_Phase_8,1,5,63,98,1361540700
6815,15,Jits_Phase_8,2,1,48,30,1361597828
6815,15,Jits_Phase_8,3,5,56,103,1361610972
6815,15,Jits_Phase_8,0,5,63,98,1362341364
6815,15,Jits_Phase_8,1,5,56,103,1362370892
6815,15,Jits_Phase_8,2,1,48,26,1362402628
6815,15,Jits_Phase_8,3,5,80,127,1362431420
6815,15,Jits_Phase_8,0,5,56,103,1363080512
6815,15,Jits_Phase_8,1,5,80,127,1363083652
6815,15,Jits_Phase_8,2,1,48,36,1363144836
6815,15,Jits_Phase_8,3,5,63,98,1363201572
6815,15,Jits_Phase_8,0,1,48,38,1363934332
6815,15,Jits_Phase_8,1,5,56,103,1363961180
6815,15,Jits_Phase_8,2,5,80,127,1364001220
6815,15,Jits_Phase_8,3,5,63,98,1364011788
6815,15,Jits_Phase_8,0,5,56,103,1364720868
6815,15,Jits_Phase_8,1,5,80,127,1364740580
6815,15,Jits_Phase_8,2,1,48,35,1364747888
6815,15,Jits_Phase_8,3,5,63,98,1364821512
6815,15,Jits_Phase_8,0,5,80,127,1365510452
6815,15,Jits_Phase_8,1,1,48,42,1365581476
6815,15,Jits_Phase_8,2,5,56,103,1365610796
6815,15,Jits_Phase_8,3,5,63,98,1365620992
6815,15,Jits_Phase_8,0,5,63,98,1366280488
6815,15,Jits_Phase_8,1,5,80,127,1366340828
6815,15,Jits_Phase_8,2,5,56,103,1366351396
6815,15,Jits_Phase_8,3,1,48,35,1366430932
6815,15,Jits_Phase_8,0,5,56,103,1367081532
6815,15,Jits_Phase_8,1,5,63,98,1367151064
6815,15,Jits_Phase_8,2,5,80,127,1367154576
6815,15,Jits_Phase_8,3,1,48,37,1367196956
6815,15,Jits_Phase_8,0,5,63,98,1367910664
6815,15,Jits_Phase_8,1,5,56,103,1367961012
6815,15,Jits_Phase_8,2,5,80,127,1367963928
6815,15,Jits_Phase_8,3,1,48,38,1367969012
6815,15,Jits_Phase_8,0,5,56,103,1368670696
6815,15,Jits_Phase_8,1,5,80,127,1368673612
6815,15,Jits_Phase_8,2,5,63,98,1368760828
6815,15,Jits_Phase_8,3,1,48,39,1368792192
6815,15,Jits_Phase_8,0,5,63,98,1369511584
6815,15,Jits_Phase_8,1,5,56,103,1369601420
6815,15,Jits_Phase_8,2,1,48,27,1369617720
6815,15,Jits_Phase_8,3,5,80,127,1369631260
6815,15,Jits_Phase_8,0,5,56,103,1370300712
6815,15,Jits_Phase_8,1,1,48,30,1370384444
6815,15,Jits_Phase_8,2,5,63,98,1370401424
6815,15,Jits_Phase_8,3,5,80,127,1370430876
6815,15,Jits_Phase_8,0,5,63,98,1371120868
6815,15,Jits_Phase_8,1,5,56,103,1371131360
6815,15,Jits_Phase_8,2,1,48,30,1371206344
6815,15,Jits_Phase_8,3,5,80,127,1371221436
6815,15,Jits_Phase_8,0,5,63,98,1371941328
6815,15,Jits_Phase_8,1,1,48,35,1372002208
6815,15,Jits_Phase_8,2,5,56,103,1372021416
6815,15,Jits_Phase_8,3,5,80,127,1372024476
6815,15,Jits_Phase_8,0,5,80,127,1372701224
6815,15,Jits_Phase_8,1,5,63,98,1372720488
6815,15,Jits_Phase_8,2,1,48,32,1372763164
6815,15,Jits_Phase_8,3,5,56,103,1372780872
6815,15,Jits_Phase_8,0,5,56,103,1373540628
6815,15,Jits_Phase_8,1,5,63,98,1373561384
6815,15,Jits_Phase_8,2,5,80,127,1373564524
6815,15,Jits_Phase_8,3,1,48,43,1373567272
6815,15,Jits_Phase_8,0,5,63,98,1374281280
6815,15,Jits_Phase_8,1,5,80,127,1374361076
6815,15,Jits_Phase_8,2,5,56,103,1374371268
6815,15,Jits_Phase_8,3,1,48,40,1374387044
6815,15,Jits_Phase_8,0,5,63,98,1375101412
6815,15,Jits_Phase_8,1,5,56,103,1375120676
6815,15,Jits_Phase_8,2,5,80,127,1375171100
6815,15,Jits_Phase_8,3,1,48,32,1375193248
6815,15,Jits_Phase_8,0,5,80,127,1375901316
6815,15,Jits_Phase_8,1,5,63,98,1375941108
6815,15,Jits_Phase_8,2,5,56,103,1375960300
6815,15,Jits_Phase_8,3,1,48,30,1376026484
6815,15,Jits_Phase_8,0,5,56,103,1376740652
6815,15,Jits_Phase_8,1,5,63,98,1376751148
6815,15,Jits_Phase_8,2,5,80,127,1376770560
6815,15,Jits_Phase_8,3,1,48,31,1376875580
6815,15,Jits_Phase_8,0,5,56,103,1377471120
6815,15,Jits_Phase_8,1,5,63,98,1377561104
6815,15,Jits_Phase_8,2,5,80,127,1377621344
6815,15,Jits_Phase_8,3,1,48,40,1377705660
6815,15,Jits_Phase_8,0,5,80,127,1378301360
6815,15,Jits_Phase_8,1,5,56,103,1378310436
6815,15,Jits_Phase_8,2,5,63,98,1378381112
6815,15,Jits_Phase_8,3,1,48,41,1378535172
6815,15,Jits_Phase_8,0,5,63,98,1379130752
6815,15,Jits_Phase_8,1,5,80,127,1379220812
6815,15,Jits_Phase_8,2,5,56,103,1379231380
6815,15,Jits_Phase_8,3,1,48,38,1379451176
6815,15,Jits_Phase_8,0,5,63,98,1379860964
6815,15,Jits_Phase_8,1,5,80,127,1379911268
6815,15,Jits_Phase_8,2,5,56,103,1379970388
6815,15,Jits_Phase_8,3,1,48,34,1380252572
6815,15,Jits_Phase_8,0,5,56,103,1380681200
6815,15,Jits_Phase_8,1,5,80,127,1380731328
6815,15,Jits_Phase_8,2,5,63,98,1380750592
6815,15,Jits_Phase_8,3,1,48,38,1381087532
6815,15,Jits_Phase_8,0,5,56,103,1381451224
6815,15,Jits_Phase_8,1,5,80,127,1381510568
6815,15,Jits_Phase_8,2,5,63,98,1381581220
6815,15,Jits_Phase_8,3,1,48,33,1381908664
6815,15,Jits_Phase_8,0,5,56,103,1382250844
6815,15,Jits_Phase_8,1,5,80,127,1382280596
6815,15,Jits_Phase_8,2,5,63,98,1382311168
6815,15,Jits_Phase_8,0,1,48,42,1382924716
6815,15,Jits_Phase_8,1,5,56,103,1383090632
6815,15,Jits_Phase_8,2,5,80,127,1383111240
6815,15,Jits_Phase_8,3,5,63,98,1383170284
6815,15,Jits_Phase_8,0,1,48,36,1383830596
6815,15,Jits_Phase_8,1,5,80,127,1383971180
6815,15,Jits_Phase_8,2,5,56,103,1383981300
6815,15,Jits_Phase_8,3,5,63,98,1383990524
6815,15,Jits_Phase_8,0,1,48,36,1384704076
6815,15,Jits_Phase_8,1,5,56,103,1384731544
6815,15,Jits_Phase_8,2,5,80,127,1384770964
6815,15,Jits_Phase_8,3,5,63,98,1384801376
6815,15,Jits_Phase_8,0,5,56,103,1385501124
6815,15,Jits_Phase_8,1,5,63,98,1385531024
6815,15,Jits_Phase_8,2,1,48,32,1385550332
6815,15,Jits_Phase_8,3,5,80,127,1385570804
6815,15,Jits_Phase_8,0,5,80,127,1386250600
6815,15,Jits_Phase_8,1,5,63,98,1386301048
6815,15,Jits_Phase_8,2,5,56,103,1386321208
6815,15,Jits_Phase_8,3,1,48,31,1386360592
6815,15,Jits_Phase_8,0,5,56,103,1387081028
6815,15,Jits_Phase_8,1,5,80,127,1387150712
6815,15,Jits_Phase_8,2,1,48,39,1387151676
6815,15,Jits_Phase_8,3,5,63,98,1387211168
6815,15,Jits_Phase_8,0,5,80,127,1387880952
6815,15,Jits_Phase_8,1,5,63,98,1387971012
6815,15,Jits_Phase_8,2,1,48,37,1387976520
6815,15,Jits_Phase_8,3,5,56,103,1387991388
6815,15,Jits_Phase_8,0,5,63,98,1388701180
6815,15,Jits_Phase_8,1,5,56,103,1388720444
6815,15,Jits_Phase_8,2,5,80,127,1388760456
6815,15,Jits_Phase_8,3,1,48,27,1388772040
6815,15,Jits_Phase_8,0,5,80,127,1389460780
6815,15,Jits_Phase_8,1,5,63,98,1389481316
6815,15,Jits_Phase_8,2,1,48,27,1389561776
6815,15,Jits_Phase_8,3,5,56,103,1389562896
6815,15,Jits_Phase_8,0,5,63,98,1390251332
6815,15,Jits_Phase_8,1,1,48,38,1390297452
6815,15,Jits_Phase_8,2,5,56,103,1390361012
6815,15,Jits_Phase_8,3,5,80,127,1390364080
6815,15,Jits_Phase_8,0,5,63,98,1391070684
6815,15,Jits_Phase_8,1,5,56,103,1391080804
6815,15,Jits_Phase_8,2,5,80,127,1391083720
6815,15,Jits_Phase_8,3,1,48,35,1391103252
6815,15,Jits_Phase_8,0,5,56,103,1391850724
6815,15,Jits_Phase_8,1,1,48,28,1391942048
6815,15,Jits_Phase_8,2,5,80,127,1391970840
6815,15,Jits_Phase_8,3,5,63,98,1392010780
6815,15,Jits_Phase_8,0,5,56,103,1392671200
6815,15,Jits_Phase_8,1,5,80,127,1392750920
6815,15,Jits_Phase_8,2,5,63,98,1392770332
6815,15,Jits_Phase_8,3,1,48,30,1392771300
6815,15,Jits_Phase_8,0,5,56,103,1393470820
6815,15,Jits_Phase_8,1,1,48,35,1393570736
6815,15,Jits_Phase_8,2,5,63,98,1393581548
6815,15,Jits_Phase_8,3,5,80,127,1393584984
6815,15,Jits_Phase_8,0,5,56,103,1394310744
6815,15,Jits_Phase_8,1,5,80,127,1394341316
6815,15,Jits_Phase_8,2,5,63,98,1394360880
6815,15,Jits_Phase_8,3,1,48,37,1394377776
6815,15,Jits_Phase_8,0,5,63,98,1395100924
6815,15,Jits_Phase_8,1,5,56,103,1395111344
6815,15,Jits_Phase_8,2,5,80,127,1395120864
6815,15,Jits_Phase_8,3,1,48,28,1395172532
6815,15,Jits_Phase_8,0,5,80,127,1395890712
6815,15,Jits_Phase_8,1,5,56,103,1395940840
6815,15,Jits_Phase_8,2,1,48,37,1395955488
6815,15,Jits_Phase_8,3,5,63,98,1395980768
6815,15,Jits_Phase_8,0,5,80,127,1396710636
6815,15,Jits_Phase_8,1,5,63,98,1396731244
6815,15,Jits_Phase_8,2,1,48,38,1396769232
6815,15,Jits_Phase_8,3,5,56,103,1396781688
6815,15,Jits_Phase_8,0,5,80,127,1397520672
6815,15,Jits_Phase_8,1,5,56,103,1397550744
6815,15,Jits_Phase_8,2,1,48,39,1397582184
6815,15,Jits_Phase_8,3,5,63,98,1397621092
6815,15,Jits_Phase_8,0,5,56,103,1398370816
6815,15,Jits_Phase_8,1,5,80,127,1398380864
6815,15,Jits_Phase_8,2,5,63,98,1398420728
6815,15,Jits_Phase_8,3,1,48,36,1398460784
6815,15,Jits_Phase_8,0,5,56,103,1399081216
6815,15,Jits_Phase_8,1,5,63,98,1399100776
6815,15,Jits_Phase_8,2,5,80,127,1399170380
6815,15,Jits_Phase_8,3,1,48,39,1399281300
6815,15,Jits_Phase_8,0,5,63,98,1399900688
6815,15,Jits_Phase_8,1,5,80,127,1399960928
6815,15,Jits_Phase_8,2,5,56,103,1399981536
6815,15,Jits_Phase_8,3,1,48,35,1400109716
6815,15,Jits_Phase_8,0,5,80,127,1400691080
6815,15,Jits_Phase_8,1,5,56,103,1400720680
6815,15,Jits_Phase_8,2,5,63,98,1400750728
6815,15,Jits_Phase_8,3,1,48,35,1400861900
6815,15,Jits_Phase_8,0,5,56,103,1401490700
6815,15,Jits_Phase_8,1,5,63,98,1401551240
6815,15,Jits_Phase_8,2,5,80,127,1401610584
6815,15,Jits_Phase_8,3,1,48,29,1401613176
6815,15,Jits_Phase_8,0,5,80,127,1402310928
6815,15,Jits_Phase_8,1,5,56,103,1402330488
6815,15,Jits_Phase_8,2,1,48,35,1402358320
6815,15,Jits_Phase_8,3,5,63,98,1402401080
6815,15,Jits_Phase_8,0,5,80,127,1403110696
6815,15,Jits_Phase_8,1,5,63,98,1403131452
6815,15,Jits_Phase_8,2,1,48,35,1403152928
6815,15,Jits_Phase_8,3,5,56,103,1403160972
6815,15,Jits_Phase_8,0,5,80,127,1403901696
6815,15,Jits_Phase_8,1,5,63,98,1403920736
6815,15,Jits_Phase_8,2,1,48,36,1403953176
6815,15,Jits_Phase_8,3,5,56,103,1403981144
6815,15,Jits_Phase_8,0,5,80,127,1404700968
6815,15,Jits_Phase_8,1,1,48,38,1404720052
6815,15,Jits_Phase_8,2,5,56,103,1404801660
6815,15,Jits_Phase_8,3,5,63,98,1404831172
6815,15,Jits_Phase_8,0,5,63,98,1405490560
6815,15,Jits_Phase_8,1,5,80,127,1405540836
6815,15,Jits_Phase_8,2,5,56,103,1405561144
6815,15,Jits_Phase_8,3,1,48,33,1405576992
6815,15,Jits_Phase_8,0,5,80,127,1406331368
6815,15,Jits_Phase_8,1,1,48,32,1406360592
6815,15,Jits_Phase_8,2,5,56,103,1406361952
6815,15,Jits_Phase_8,3,5,63,98,1406364776
6815,15,Jits_Phase_8,0,1,48,41,1407128020
6815,15,Jits_Phase_8,1,5,63,98,1407181028
6815,15,Jits_Phase_8,2,5,56,103,1407221028
6815,15,Jits_Phase_8,3,5,80,127,1407240588
6815,15,Jits_Phase_8,0,5,80,127,1407940940
6815,15,Jits_Phase_8,1,1,48,42,1407950060
6815,15,Jits_Phase_8,2,5,63,98,1408020876
6815,15,Jits_Phase_8,3,5,56,103,1408060824
6815,15,Jits_Phase_8,0,5,63,98,1408761316
6815,15,Jits_Phase_8,1,1,48,40,1408836156
6815,15,Jits_Phase_8,2,5,80,127,1408841056
6815,15,Jits_Phase_8,3,5,56,103,1408860468
6815,15,Jits_Phase_8,0,5,56,103,1409600816
6815,15,Jits_Phase_8,1,5,63,98,1409611088
6815,15,Jits_Phase_8,2,1,48,30,1409626264
6815,15,Jits_Phase_8,3,5,80,127,1409651016
6815,15,Jits_Phase_8,0,5,56,103,1410320616
6815,15,Jits_Phase_8,1,5,80,127,1410323688
6815,15,Jits_Phase_8,2,1,48,23,1410421604
6815,15,Jits_Phase_8,3,5,63,98,1410461036
6815,15,Jits_Phase_8,0,5,56,103,1411111564
6815,15,Jits_Phase_8,1,1,48,35,1411150724
6815,15,Jits_Phase_8,2,5,63,98,1411201468
6815,15,Jits_Phase_8,3,5,80,127,1411270984
6815,15,Jits_Phase_8,0,1,48,40,1411947260
6815,15,Jits_Phase_8,1,5,63,98,1411990900
6815,15,Jits_Phase_8,2,5,80,127,1411994412
6815,15,Jits_Phase_8,3,5,56,103,1412051572
6815,15,Jits_Phase_8,0,1,48,37,1412809588
6815,15,Jits_Phase_8,1,5,80,127,1412830588
6815,15,Jits_Phase_8,2,5,56,103,1412851348
6815,15,Jits_Phase_8,3,5,63,98,1412861468
6815,15,Jits_Phase_8,0,5,56,103,1413541500
6815,15,Jits_Phase_8,1,5,63,98,1413550428
6815,15,Jits_Phase_8,2,5,80,127,1413621376
6815,15,Jits_Phase_8,3,1,48,40,1413654308
6815,15,Jits_Phase_8,0,5,80,127,1414341196
6815,15,Jits_Phase_8,1,5,56,103,1414391104
6815,15,Jits_Phase_8,2,5,63,98,1414441404
6815,15,Jits_Phase_8,3,1,48,32,1414467512
6815,15,Jits_Phase_8,0,5,56,103,1415220564
6815,15,Jits_Phase_8,1,1,48,37,1415226452
6815,15,Jits_Phase_8,2,5,63,98,1415230756
6815,15,Jits_Phase_8,3,5,80,127,1415270692
6815,15,Jits_Phase_8,0,5,56,103,1415960904
6815,15,Jits_Phase_8,1,5,63,98,1416000844
6815,15,Jits_Phase_8,2,1,48,29,1416045688
6815,15,Jits_Phase_8,3,5,80,127,1416051260
6815,15,Jits_Phase_8,0,5,80,127,1416720648
6815,15,Jits_Phase_8,1,5,56,103,1416770800
6815,15,Jits_Phase_8,2,5,63,98,1416791408
6815,15,Jits_Phase_8,3,1,48,33,1416826584
6815,15,Jits_Phase_8,0,5,80,127,1417530704
6815,15,Jits_Phase_8,1,5,63,98,1417591316
6815,15,Jits_Phase_8,2,1,48,23,1417625076
6815,15,Jits_Phase_8,3,5,56,103,1417670880
6815,15,Jits_Phase_8,0,5,80,127,1418311296
6815,15,Jits_Phase_8,1,5,56,103,1418350936
6815,15,Jits_Phase_8,2,5,63,98,1418370276
6815,15,Jits_Phase_8,3,1,48,28,1418409284
6815,15,Jits_Phase_8,0,1,48,37,1419154104
6815,15,Jits_Phase_8,1,5,56,103,1419161104
6815,15,Jits_Phase_8,2,5,80,127,1419171520
6815,15,Jits_Phase_8,3,5,63,98,1419211312
6815,15,Jits_Phase_8,0,1,48,37,1419945320
6815,15,Jits_Phase_8,1,5,56,103,1420031288
6815,15,Jits_Phase_8,2,5,63,98,1420071236
6815,15,Jits_Phase_8,3,5,80,127,1420074524
6815,15,Jits_Phase_8,0,5,63,98,1420701136
6815,15,Jits_Phase_8,1,5,80,127,1420741152
6815,15,Jits_Phase_8,2,1,48,29,1420780312
6815,15,Jits_Phase_8,3,5,56,103,1420810748
6815,15,Jits_Phase_8,0,5,63,98,1421471304
6815,15,Jits_Phase_8,1,5,56,103,1421551248
6815,15,Jits_Phase_8,2,1,48,34,1421568240
6815,15,Jits_Phase_8,3,5,80,127,1421611504
6815,15,Jits_Phase_8,0,5,80,127,1422281248
6815,15,Jits_Phase_8,1,5,63,98,1422331228
6815,15,Jits_Phase_8,2,5,56,103,1422361220
6815,15,Jits_Phase_8,3,1,48,37,1422368376
6815,15,Jits_Phase_8,0,5,56,103,1423070524
6815,15,Jits_Phase_8,1,5,63,98,1423120876
6815,15,Jits_Phase_8,2,1,48,38,1423129816
6815,15,Jits_Phase_8,3,5,80,127,1423131388
6815,15,Jits_Phase_8,0,5,56,103,1423880704
6815,15,Jits_Phase_8,1,1,48,23,1423885992
6815,15,Jits_Phase_8,2,5,63,98,1423991292
6815,15,Jits_Phase_8,3,5,80,127,1424010556
6815,15,Jits_Phase_8,0,5,63,98,1424681324
6815,15,Jits_Phase_8,1,1,48,25,1424696800
6815,15,Jits_Phase_8,2,5,80,127,1424730624
6815,15,Jits_Phase_8,3,5,56,103,1424820516
6815,15,Jits_Phase_8,0,5,63,98,1425470968
6815,15,Jits_Phase_8,1,1,48,39,1425482260
6815,15,Jits_Phase_8,2,5,80,127,1425500492
6815,15,Jits_Phase_8,3,5,56,103,1425590532
6815,15,Jits_Phase_8,0,5,63,98,1426270648
6815,15,Jits_Phase_8,1,5,56,103,1426280920
6815,15,Jits_Phase_8,2,1,48,37,1426301424
6815,15,Jits_Phase_8,3,5,80,127,1426381380
6815,15,Jits_Phase_8,0,1,48,29,1427106320
6815,15,Jits_Phase_8,1,5,63,98,1427170788
6815,15,Jits_Phase_8,2,5,80,127,1427201364
6815,15,Jits_Phase_8,3,5,56,103,1427230972
6815,15,Jits_Phase_8,0,1,48,29,1427924076
6815,15,Jits_Phase_8,1,5,80,127,1427991008
6815,15,Jits_Phase_8,2,5,63,98,1428001204
6815,15,Jits_Phase_8,3,5,56,103,1428030940
6815,15,Jits_Phase_8,0,5,80,127,1428691184
6815,15,Jits_Phase_8,1,5,63,98,1428710748
6815,15,Jits_Phase_8,2,1,48,32,1428751324
6815,15,Jits_Phase_8,3,5,56,103,1428761264
6815,15,Jits_Phase_8,0,5,63,98,1429520992
6815,15,Jits_Phase_8,1,1,48,32,1429536568
6815,15,Jits_Phase_8,2,5,80,127,1429581104
6815,15,Jits_Phase_8,3,5,56,103,1429600592
6815,15,Jits_Phase_8,0,5,63,98,1430280744
6815,15,Jits_Phase_8,1,1,48,35,1430307704
6815,15,Jits_Phase_8,2,5,56,103,1430331188
6815,15,Jits_Phase_8,3,5,80,127,1430341012
6815,15,Jits_Phase_8,0,5,56,103,1431111016
6815,15,Jits_Phase_8,1,5,80,127,1431121212
6815,15,Jits_Phase_8,2,1,48,31,1431130704
6815,15,Jits_Phase_8,3,5,63,98,1431220476
6815,15,Jits_Phase_8,0,5,80,127,1431870932
6815,15,Jits_Phase_8,1,5,63,98,1431881200
6815,15,Jits_Phase_8,2,1,48,31,1431885812
6815,15,Jits_Phase_8,3,5,56,103,1432030568
6815,15,Jits_Phase_8,0,5,63,98,1432680892
6815,15,Jits_Phase_8,1,1,48,31,1432686328
6815,15,Jits_Phase_8,2,5,80,127,1432720676
6815,15,Jits_Phase_8,3,5,56,103,1432800828
6815,15,Jits_Phase_8,0,1,48,28,1433392136
6815,15,Jits_Phase_8,1,5,56,103,1433431344
6815,15,Jits_Phase_8,2,5,80,127,1433530904
6815,15,Jits_Phase_8,3,5,63,98,1433551212
6815,15,Jits_Phase_8,0,1,48,31,1434153908
6815,15,Jits_Phase_8,1,5,80,127,1434250576
6815,15,Jits_Phase_8,2,5,56,103,1434261072
6815,15,Jits_Phase_8,3,5,63,98,1434351052
6815,15,Jits_Phase_8,0,1,48,27,1434966776
6815,15,Jits_Phase_8,1,5,56,103,1435051400
6815,15,Jits_Phase_8,2,5,63,98,1435071096
6815,15,Jits_Phase_8,3,5,80,127,1435150960
6815,15,Jits_Phase_8,0,1,48,27,1435723916
6815,15,Jits_Phase_8,1,5,63,98,1435800892
6815,15,Jits_Phase_8,2,5,56,103,1435891008
6815,15,Jits_Phase_8,3,5,80,127,1435894072
6815,15,Jits_Phase_8,0,1,48,31,1436417988
6815,15,Jits_Phase_8,1,5,56,103,1436631340
6815,15,Jits_Phase_8,2,5,80,127,1436690760
6815,15,Jits_Phase_8,3,5,63,98,1436700980
6815,15,Jits_Phase_8,0,1,48,37,1437110096
6815,15,Jits_Phase_8,1,5,80,127,1437481324
6815,15,Jits_Phase_8,2,5,56,103,1437490620
6815,15,Jits_Phase_8,3,5,63,98,1437493536
6815,15,Jits_Phase_8,4,1,48,26,1437838424
6815,15,Jits_Phase_8,0,5,56,103,1438241192
6815,15,Jits_Phase_8,1,5,80,127,1438251464
6815,15,Jits_Phase_8,2,5,63,98,1438271024
6815,15,Jits_Phase_8,3,1,48,18,1438545944
6815,15,Jits_Phase_8,0,5,63,98,1439011144
6815,15,Jits_Phase_8,1,5,80,127,1439070788
6815,15,Jits_Phase_8,2,5,56,103,1439120836
6815,15,Jits_Phase_8,3,1,48,23,1439250112
6815,15,Jits_Phase_8,0,5,63,98,1439890996
6815,15,Jits_Phase_8,1,5,56,103,1439901116
6815,15,Jits_Phase_8,2,1,48,22,1439933080
6815,15,Jits_Phase_8,3,5,80,127,1439951236
6815,15,Jits_Phase_8,0,5,63,98,1440591116
6815,15,Jits_Phase_8,1,5,80,127,1440610752
6815,15,Jits_Phase_8,2,5,56,103,1440620872
6815,15,Jits_Phase_8,3,1,48,21,1440639876
6815,15,Jits_Phase_8,0,1,48,35,1441329476
6815,15,Jits_Phase_8,1,5,63,98,1441391080
6815,15,Jits_Phase_8,2,5,80,127,1441394220
6815,15,Jits_Phase_8,3,5,56,103,1441430780
6815,15,Jits_Phase_8,0,1,48,31,1442096080
6815,15,Jits_Phase_8,1,5,63,98,1442261232
6815,15,Jits_Phase_8,2,5,80,127,1442291056
6815,15,Jits_Phase_8,3,5,56,103,1442301252
6815,15,Jits_Phase_8,0,1,48,24,1442962532
6815,15,Jits_Phase_8,1,5,56,103,1443010804
6815,15,Jits_Phase_8,2,5,80,127,1443040852
6815,15,Jits_Phase_8,3,5,63,98,1443071264
6815,15,Jits_Phase_8,0,1,48,29,1443711188
6815,15,Jits_Phase_8,1,5,63,98,1443911112
6815,15,Jits_Phase_8,2,5,56,103,1443950904
6815,15,Jits_Phase_8,3,5,80,127,1443953892
6815,15,Jits_Phase_8,0,1,48,22,1444508460
6815,15,Jits_Phase_8,1,5,80,127,1444610304
6815,15,Jits_Phase_8,2,5,56,103,1444691396
6815,15,Jits_Phase_8,3,5,63,98,1444740400
6815,15,Jits_Phase_8,0,1,48,25,1445255256
6815,15,Jits_Phase_8,1,5,80,127,1445390656
6815,15,Jits_Phase_8,2,5,56,103,1445411140
6815,15,Jits_Phase_8,3,5,63,98,1445501196
6815,15,Jits_Phase_8,0,1,48,28,1446068800
6815,15,Jits_Phase_8,1,5,80,127,1446231484
6815,15,Jits_Phase_8,2,5,63,98,1446271276
6815,15,Jits_Phase_8,3,5,56,103,1446311288
6815,15,Jits_Phase_8,0,1,48,23,1446883908
6815,15,Jits_Phase_8,1,5,63,98,1447041508
6815,15,Jits_Phase_8,2,5,80,127,1447100780
6815,15,Jits_Phase_8,3,5,56,103,1447130600
6815,15,Jits_Phase_8,0,1,48,26,1447630024
6815,15,Jits_Phase_8,1,5,56,103,1447881044
6815,15,Jits_Phase_8,2,5,80,127,1447910792
6815,15,Jits_Phase_8,3,5,63,98,1448000872
6815,15,Jits_Phase_8,0,1,48,24,1448420180
6815,15,Jits_Phase_8,1,5,56,103,1448691208
6815,15,Jits_Phase_8,2,5,80,127,1448800624
6815,15,Jits_Phase_8,3,5,63,98,1448831496
6815,15,Jits_Phase_8,0,1,48,28,1449242436
6815,15,Jits_Phase_8,1,5,56,103,1449541040
6815,15,Jits_Phase_8,2,5,63,98,1449601436
6815,15,Jits_Phase_8,3,5,80,127,1449631036
6815,15,Jits_Phase_8,0,1,48,27,1449996916
6815,15,Jits_Phase_8,1,5,56,103,1450311064
6815,15,Jits_Phase_8,2,5,63,98,1450380596
6815,15,Jits_Phase_8,3,5,80,127,1450401128
6815,15,Jits_Phase_8,0,1,48,34,1450806296
6815,15,Jits_Phase_8,1,5,80,127,1451081152
6815,15,Jits_Phase_8,2,5,63,98,1451100712
6815,15,Jits_Phase_8,3,5,56,103,1451150616
6815,15,Jits_Phase_8,0,1,48,34,1451762336
6815,15,Jits_Phase_8,1,5,63,98,1451901432
6815,15,Jits_Phase_8,2,5,80,127,1451910728
6815,15,Jits_Phase_8,3,5,56,103,1451960632
6815,15,Jits_Phase_8,0,1,48,29,1452612168
6815,15,Jits_Phase_8,1,5,63,98,1452701052
6815,15,Jits_Phase_8,2,5,80,127,1452770644
6815,15,Jits_Phase_8,3,5,56,103,1452791252
6815,15,Jits_Phase_8,0,1,48,27,1453447056
6815,15,Jits_Phase_8,1,5,63,98,1453530404
6815,15,Jits_Phase_8,2,5,80,127,1453533768
6815,15,Jits_Phase_8,3,5,56,103,1453600992
6815,15,Jits_Phase_8,0,5,80,127,1454281160
6815,15,Jits_Phase_8,1,1,48,33,1454292224
6815,15,Jits_Phase_8,2,5,56,103,1454300640
6815,15,Jits_Phase_8,3,5,63,98,1454310688
6815,15,Jits_Phase_8,0,5,56,103,1455101452
6815,15,Jits_Phase_8,1,1,48,32,1455110868
6815,15,Jits_Phase_8,2,5,63,98,1455191600
6815,15,Jits_Phase_8,3,5,80,127,1455194892
6815,15,Jits_Phase_8,0,5,80,127,1455871476
6815,15,Jits_Phase_8,1,5,56,103,1455880476
6815,15,Jits_Phase_8,2,5,63,98,1455901036
6815,15,Jits_Phase_8,3,1,48,29,1455945200
6815,15,Jits_Phase_8,0,5,63,98,1456671044
6815,15,Jits_Phase_8,1,1,48,26,1456698052
6815,15,Jits_Phase_8,2,5,80,127,1456730680
6815,15,Jits_Phase_8,3,5,56,103,1456740652
6815,15,Jits_Phase_8,0,1,48,29,1457458708
6815,15,Jits_Phase_8,1,5,63,98,1457540764
6815,15,Jits_Phase_8,2,5,80,127,1457571400
6815,15,Jits_Phase_8,3,5,56,103,1457611112
6815,15,Jits_Phase_8,0,1,48,27,1458260192
6815,15,Jits_Phase_8,1,5,56,103,1458330864
6815,15,Jits_Phase_8,2,5,80,127,1458341432
6815,15,Jits_Phase_8,3,5,63,98,1458381132
6815,15,Jits_Phase_8,0,1,48,26,1459012816
6815,15,Jits_Phase_8,1,5,80,127,1459090836
6815,15,Jits_Phase_8,2,5,56,103,1459170616
6815,15,Jits_Phase_8,3,5,63,98,1459180888
6815,15,Jits_Phase_8,0,1,48,32,1459794736
6815,15,Jits_Phase_8,1,5,80,127,1459940852
6815,15,Jits_Phase_8,2,5,56,103,1460020524
6815,15,Jits_Phase_8,3,5,63,98,1460030944
6815,15,Jits_Phase_8,0,1,48,26,1460605968
6815,15,Jits_Phase_8,1,5,80,127,1460781328
6815,15,Jits_Phase_8,2,5,56,103,1460830484
6815,15,Jits_Phase_8,3,5,63,98,1460880608
6815,15,Jits_Phase_8,0,1,48,28,1461388176
6815,15,Jits_Phase_8,1,5,56,103,1461720432
6815,15,Jits_Phase_8,2,5,63,98,1461723496
6815,15,Jits_Phase_8,3,5,80,127,1461770556
6815,15,Jits_Phase_8,0,1,48,31,1462209900
6815,15,Jits_Phase_8,1,5,56,103,1462540640
6815,15,Jits_Phase_8,2,5,63,98,1462571236
6815,15,Jits_Phase_8,3,5,80,127,1462580684
6815,15,Jits_Phase_8,0,1,48,22,1463019928
6815,15,Jits_Phase_8,1,5,63,98,1463251396
6815,15,Jits_Phase_8,2,5,56,103,1463320880
6815,15,Jits_Phase_8,3,5,80,127,1463371228
6815,15,Jits_Phase_8,0,1,48,28,1463823876
6815,15,Jits_Phase_8,1,5,63,98,1464080752
6815,15,Jits_Phase_8,2,5,56,103,1464091192
6815,15,Jits_Phase_8,3,5,80,127,1464093960
6815,15,Jits_Phase_8,0,1,48,35,1464637052
6815,15,Jits_Phase_8,1,5,80,127,1464831420
6815,15,Jits_Phase_8,2,5,56,103,1464890640
6815,15,Jits_Phase_8,3,5,63,98,1464980996
6815,15,Jits_Phase_8,0,1,48,18,1465569212
6815,15,Jits_Phase_8,1,5,80,127,1465631216
6815,15,Jits_Phase_8,2,5,56,103,1465730404
6815,15,Jits_Phase_8,3,5,63,98,1465771464
6815,15,Jits_Phase_8,0,1,48,31,1466419496
6815,15,Jits_Phase_8,1,5,56,103,1466480952
6815,15,Jits_Phase_8,2,5,63,98,1466500512
6815,15,Jits_Phase_8,3,5,80,127,1466541480
6815,15,Jits_Phase_8,0,1,48,24,1467239632
6815,15,Jits_Phase_8,1,5,63,98,1467251112
6815,15,Jits_Phase_8,2,5,56,103,1467270452
6815,15,Jits_Phase_8,3,5,80,127,1467370828
6815,15,Jits_Phase_8,0,1,48,29,1467995248
6815,15,Jits_Phase_8,1,5,63,98,1468040680
6815,15,Jits_Phase_8,2,5,80,127,1468151400
6815,15,Jits_Phase_8,3,5,56,103,1468180776
6815,15,Jits_Phase_8,0,1,48,31,1468744436
6815,15,Jits_Phase_8,1,5,56,103,1468860732
6815,15,Jits_Phase_8,2,5,63,98,1468890408
6815,15,Jits_Phase_8,3,5,80,127,1468940608
6815,15,Jits_Phase_8,0,1,48,32,1469565912
6815,15,Jits_Phase_8,1,5,63,98,1469630760
6815,15,Jits_Phase_8,2,5,56,103,1469660496
6815,15,Jits_Phase_8,3,5,80,127,1469710768
6815,15,Jits_Phase_8,0,1,48,27,1470317044
6815,15,Jits_Phase_8,1,5,56,103,1470461288
6815,15,Jits_Phase_8,2,5,63,98,1470480776
6815,15,Jits_Phase_8,3,5,80,127,1470560668
6815,15,Jits_Phase_8,0,1,48,35,1471135680
6815,15,Jits_Phase_8,1,5,63,98,1471232124
6815,15,Jits_Phase_8,2,5,56,103,1471290596
6815,15,Jits_Phase_8,3,5,80,127,1471320496
6815,15,Jits_Phase_8,0,1,48,29,1471969912
6815,15,Jits_Phase_8,1,5,56,103,1472071164
6815,15,Jits_Phase_8,2,5,80,127,1472130508
6815,15,Jits_Phase_8,3,5,63,98,1472171416
6815,15,Jits_Phase_8,0,1,48,30,1472777456
6815,15,Jits_Phase_8,1,5,63,98,1472851384
6815,15,Jits_Phase_8,2,5,56,103,1472910640
6815,15,Jits_Phase_8,3,5,80,127,1472981440
6815,15,Jits_Phase_8,0,1,48,34,1473607576
6815,15,Jits_Phase_8,1,5,56,103,1473731220
6815,15,Jits_Phase_8,2,5,63,98,1473741116
6815,15,Jits_Phase_8,3,5,80,127,1473744556
6815,15,Jits_Phase_8,0,1,48,31,1474423824
6815,15,Jits_Phase_8,1,5,63,98,1474471276
6815,15,Jits_Phase_8,2,5,56,103,1474530604
6815,15,Jits_Phase_8,3,5,80,127,1474533744
6815,15,Jits_Phase_8,0,1,48,27,1475173972
6815,15,Jits_Phase_8,1,5,63,98,1475250500
6815,15,Jits_Phase_8,2,5,80,127,1475281208
6815,15,Jits_Phase_8,3,5,56,103,1475300844
6815,15,Jits_Phase_8,0,1,48,32,1475908240
6815,15,Jits_Phase_8,1,5,56,103,1475980652
6815,15,Jits_Phase_8,2,5,63,98,1476030764
6815,15,Jits_Phase_8,3,5,80,127,1476110632
6815,15,Jits_Phase_8,0,1,48,32,1476649288
6815,15,Jits_Phase_8,1,5,80,127,1476681000
6815,15,Jits_Phase_8,2,5,63,98,1476721160
6815,15,Jits_Phase_8,3,5,56,103,1476740424
6815,15,Jits_Phase_8,0,1,48,25,1477425276
6815,15,Jits_Phase_8,1,5,56,103,1477550488
6815,15,Jits_Phase_8,2,5,80,127,1477560980
6815,15,Jits_Phase_8,3,5,63,98,1477581068
6815,15,Jits_Phase_8,0,1,48,30,1478124240
6815,15,Jits_Phase_8,1,5,56,103,1478330992
6815,15,Jits_Phase_8,2,5,63,98,1478381048
6815,15,Jits_Phase_8,3,5,80,127,1478410572
6815,15,Jits_Phase_8,0,1,48,23,1478910452
6815,15,Jits_Phase_8,1,5,56,103,1479081308
6815,15,Jits_Phase_8,2,5,63,98,1479090532
6815,15,Jits_Phase_8,3,5,80,127,1479140580
6815,15,Jits_Phase_8,0,1,48,26,1479699640
6815,15,Jits_Phase_8,1,5,56,103,1479871012
6815,15,Jits_Phase_8,2,5,80,127,1479874080
6815,15,Jits_Phase_8,3,5,63,98,1480030468
6815,15,Jits_Phase_8,0,1,48,26,1480516248
6815,15,Jits_Phase_8,1,5,63,98,1480690988
6815,15,Jits_Phase_8,2,5,56,103,1480760696
6815,15,Jits_Phase_8,3,5,80,127,1480800708
6815,15,Jits_Phase_8,0,1,48,24,1481241244
6815,15,Jits_Phase_8,1,5,63,98,1481530776
6815,15,Jits_Phase_8,2,5,56,103,1481621060
6815,15,Jits_Phase_8,3,5,80,127,1481624272
6815,15,Jits_Phase_8,0,1,48,24,1482080632
6815,15,Jits_Phase_8,1,5,56,103,1482311052
6815,15,Jits_Phase_8,2,5,63,98,1482401112
6815,15,Jits_Phase_8,3,5,80,127,1482411380
6815,15,Jits_Phase_8,0,1,48,21,1482900624
6815,15,Jits_Phase_8,1,5,56,103,1483081216
6815,15,Jits_Phase_8,2,5,63,98,1483131196
6815,15,Jits_Phase_8,3,5,80,127,1483160868
6815,15,Jits_Phase_8,0,5,63,98,1483960784
6815,15,Jits_Phase_8,1,5,80,127,1483970832
6815,15,Jits_Phase_8,2,1,48,38,1483996644
6815,15,Jits_Phase_8,3,5,56,103,1484031360
6815,15,Jits_Phase_8,0,5,63,98,1484680828
6815,15,Jits_Phase_8,1,5,80,127,1484741072
6815,15,Jits_Phase_8,2,5,56,103,1484781008
6815,15,Jits_Phase_8,3,1,48,37,1484818600
6815,15,Jits_Phase_8,0,1,48,21,1485554120
6815,15,Jits_Phase_8,1,5,56,103,1485580748
6815,15,Jits_Phase_8,2,5,80,127,1485601156
6815,15,Jits_Phase_8,3,5,63,98,1485620868
6815,15,Jits_Phase_8,0,5,63,98,1486300800
6815,15,Jits_Phase_8,1,1,48,25,1486316352
6815,15,Jits_Phase_8,2,5,56,103,1486321104
6815,15,Jits_Phase_8,3,5,80,127,1486361068
6815,15,Jits_Phase_8,0,1,48,28,1487075644
6815,15,Jits_Phase_8,1,5,63,98,1487110588
6815,15,Jits_Phase_8,2,5,80,127,1487141188
6815,15,Jits_Phase_8,3,5,56,103,1487160972
6815,15,Jits_Phase_8,0,1,48,26,1487840496
6815,15,Jits_Phase_8,1,5,80,127,1487880528
6815,15,Jits_Phase_8,2,5,56,103,1487931052
6815,15,Jits_Phase_8,3,5,63,98,1487991200
6815,15,Jits_Phase_8,0,1,48,32,1488593712
6815,15,Jits_Phase_8,1,5,63,98,1488670940
6815,15,Jits_Phase_8,2,5,56,103,1488790876
6815,15,Jits_Phase_8,3,5,80,127,1488820848
6815,15,Jits_Phase_8,0,1,48,19,1489391908
6815,15,Jits_Phase_8,1,5,80,127,1489510916
6815,15,Jits_Phase_8,2,5,63,98,1489531376
6815,15,Jits_Phase_8,3,5,56,103,1489600980
6815,15,Jits_Phase_8,0,1,48,25,1490111124
6815,15,Jits_Phase_8,1,5,63,98,1490331132
6815,15,Jits_Phase_8,2,5,56,103,1490341176
6815,15,Jits_Phase_8,3,5,80,127,1490420972
6815,15,Jits_Phase_8,0,1,48,30,1490883984
6815,15,Jits_Phase_8,1,5,56,103,1491191204
6815,15,Jits_Phase_8,2,5,80,127,1491220880
6815,15,Jits_Phase_8,3,5,63,98,1491231148
6815,15,Jits_Phase_8,0,9999,9999,9999,1356348476
6815,15,Jits_Phase_8,1,9999,9999,9999,1357148244
6815,15,Jits_Phase_8,2,9999,9999,9999,1357948988
6815,15,Jits_Phase_8,3,9999,9999,9999,1358748764
6815,15,Jits_Phase_8,4,9999,9999,9999,1359548528
6815,15,Jits_Phase_8,5,9999,9999,9999,1360348216
6815,15,Jits_Phase_8,6,9999,9999,9999,1361149028
6815,15,Jits_Phase_8,7,9999,9999,9999,1361948752
6815,15,Jits_Phase_8,8,9999,9999,9999,1362748524
6815,15,Jits_Phase_8,9,9999,9999,9999,1363548268
6815,15,Jits_Phase_8,10,9999,9999,9999,1364349020
6815,15,Jits_Phase_8,11,9999,9999,9999,1365148780
6815,15,Jits_Phase_8,12,9999,9999,9999,1365948484
6815,15,Jits_Phase_8,13,9999,9999,9999,1366748252
6815,15,Jits_Phase_8,14,9999,9999,9999,1367549040
6815,15,Jits_Phase_8,15,9999,9999,9999,1368348752
6815,15,Jits_Phase_8,16,9999,9999,9999,1369148492
6815,15,Jits_Phase_8,17,9999,9999,9999,1369948268
6815,15,Jits_Phase_8,18,9999,9999,9999,1370749004
6815,15,Jits_Phase_8,19,9999,9999,9999,1371548776
6815,15,Jits_Phase_8,20,9999,9999,9999,1372348532
6815,15,Jits_Phase_8,21,9999,9999,9999,1373148288
6815,15,Jits_Phase_8,22,9999,9999,9999,1373949024
6815,15,Jits_Phase_8,23,9999,9999,9999,1374748744
6815,15,Jits_Phase_8,24,9999,9999,9999,1375548500
6815,15,Jits_Phase_8,25,9999,9999,9999,1376348260
6815,15,Jits_Phase_8,26,9999,9999,9999,1377149004
6815,15,Jits_Phase_8,27,9999,9999,9999,1377948752
6815,15,Jits_Phase_8,28,9999,9999,9999,1378748524
6815,15,Jits_Phase_8,29,9999,9999,9999,1379548264
6815,15,Jits_Phase_8,30,9999,9999,9999,1380328524
6815,15,Jits_Phase_8,31,9999,9999,9999,1381128280
6815,15,Jits_Phase_8,32,9999,9999,9999,1381929044
6815,15,Jits_Phase_8,33,9999,9999,9999,1382728816
6815,15,Jits_Phase_8,34,9999,9999,9999,1383528528
6815,15,Jits_Phase_8,35,9999,9999,9999,1384328292
6815,15,Jits_Phase_8,36,9999,9999,9999,1385129028
6815,15,Jits_Phase_8,37,9999,9999,9999,1385928784
6815,15,Jits_Phase_8,38,9999,9999,9999,1386728548
6815,15,Jits_Phase_8,39,9999,9999,9999,1387528248
6815,15,Jits_Phase_8,40,9999,9999,9999,1388329020
6815,15,Jits_Phase_8,41,9999,9999,9999,1389128792
6815,15,Jits_Phase_8,42,9999,9999,9999,1389928544
6815,15,Jits_Phase_8,43,9999,9999,9999,1390728280
6815,15,Jits_Phase_8,44,9999,9999,9999,1391529068
6815,15,Jits_Phase_8,45,9999,9999,9999,1392328832
6815,15,Jits_Phase_8,46,9999,9999,9999,1393128528
6815,15,Jits_Phase_8,47,9999,9999,9999,1393928292
6815,15,Jits_Phase_8,48,9999,9999,9999,1394748540
6815,15,Jits_Phase_8,49,9999,9999,9999,1395548236
6815,15,Jits_Phase_8,50,9999,9999,9999,1396349036
6815,15,Jits_Phase_8,51,9999,9999,9999,1397148732
6815,15,Jits_Phase_8,52,9999,9999,9999,1397948508
6815,15,Jits_Phase_8,53,9999,9999,9999,1398748288
6815,15,Jits_Phase_8,54,9999,9999,9999,1399549024
6815,15,Jits_Phase_8,55,9999,9999,9999,1400348748
6815,15,Jits_Phase_8,56,9999,9999,9999,1401148504
6815,15,Jits_Phase_8,57,9999,9999,9999,1401948280
6815,15,Jits_Phase_8,58,9999,9999,9999,1402749020
6815,15,Jits_Phase_8,59,9999,9999,9999,1403548792
6815,15,Jits_Phase_8,60,9999,9999,9999,1404348488
6815,15,Jits_Phase_8,61,9999,9999,9999,1405148264
6815,15,Jits_Phase_8,62,9999,9999,9999,1405949008
6815,15,Jits_Phase_8,63,9999,9999,9999,1406748780
6815,15,Jits_Phase_8,64,9999,9999,9999,1407588420
6815,15,Jits_Phase_8,65,9999,9999,9999,1408388184
6815,15,Jits_Phase_8,66,9999,9999,9999,1409188932
6815,15,Jits_Phase_8,67,9999,9999,9999,1409988700
6815,15,Jits_Phase_8,68,9999,9999,9999,1410788456
6815,15,Jits_Phase_8,69,9999,9999,9999,1411588156
6815,15,Jits_Phase_8,70,9999,9999,9999,1412388920
6815,15,Jits_Phase_8,71,9999,9999,9999,1413188688
6815,15,Jits_Phase_8,72,9999,9999,9999,1413988444
6815,15,Jits_Phase_8,73,9999,9999,9999,1414788216
6815,15,Jits_Phase_8,74,9999,9999,9999,1415588968
6815,15,Jits_Phase_8,75,9999,9999,9999,1416388716
6815,15,Jits_Phase_8,76,9999,9999,9999,1417188412
6815,15,Jits_Phase_8,77,9999,9999,9999,1417988184
6815,15,Jits_Phase_8,78,9999,9999,9999,1418788948
6815,15,Jits_Phase_8,79,9999,9999,9999,1419588720
6815,15,Jits_Phase_8,80,9999,9999,9999,1420388404
6815,15,Jits_Phase_8,81,9999,9999,9999,1421148228
6815,15,Jits_Phase_8,82,9999,9999,9999,1421949036
6815,15,Jits_Phase_8,83,9999,9999,9999,1422748784
6815,15,Jits_Phase_8,84,9999,9999,9999,1423548476
6815,15,Jits_Phase_8,85,9999,9999,9999,1424348252
6815,15,Jits_Phase_8,86,9999,9999,9999,1425148996
6815,15,Jits_Phase_8,87,9999,9999,9999,1425948772
6815,15,Jits_Phase_8,88,9999,9999,9999,1426748528
6815,15,Jits_Phase_8,89,9999,9999,9999,1427548216
6815,15,Jits_Phase_8,90,9999,9999,9999,1428349008
6815,15,Jits_Phase_8,91,9999,9999,9999,1429148756
6815,15,Jits_Phase_8,92,9999,9999,9999,1429948532
6815,15,Jits_Phase_8,93,9999,9999,9999,1430748284
6815,15,Jits_Phase_8,94,9999,9999,9999,1431549012
6815,15,Jits_Phase_8,95,9999,9999,9999,1432348736
6815,15,Jits_Phase_8,96,9999,9999,9999,1433148508
6815,15,Jits_Phase_8,97,9999,9999,9999,1433868380
6815,15,Jits_Phase_8,98,9999,9999,9999,1434668096
6815,15,Jits_Phase_8,99,9999,9999,9999,1435468904
6815,15,Jits_Phase_8,100,9999,9999,9999,1436268652
6815,15,Jits_Phase_8,101,9999,9999,9999,1437068412
6815,15,Jits_Phase_8,102,9999,9999,9999,1437868084
6815,15,Jits_Phase_8,103,9999,9999,9999,1438668924
6815,15,Jits_Phase_8,104,9999,9999,9999,1439468624
6815,15,Jits_Phase_8,105,9999,9999,9999,1440268392
6815,15,Jits_Phase_8,106,9999,9999,9999,1441068092
6815,15,Jits_Phase_8,107,9999,9999,9999,1441868876
6815,15,Jits_Phase_8,108,9999,9999,9999,1442668636
6815,15,Jits_Phase_8,109,9999,9999,9999,1443468388
6815,15,Jits_Phase_8,110,9999,9999,9999,1444268144
6815,15,Jits_Phase_8,111,9999,9999,9999,1445068876
6815,15,Jits_Phase_8,112,9999,9999,9999,1445868628
6815,15,Jits_Phase_8,113,9999,9999,9999,1446668384
6815,15,Jits_Phase_8,114,9999,9999,9999,1447549000
6815,15,Jits_Phase_8,115,9999,9999,9999,1448348752
6815,15,Jits_Phase_8,116,9999,9999,9999,1449148512
6815,15,Jits_Phase_8,117,9999,9999,9999,1449948280
6815,15,Jits_Phase_8,118,9999,9999,9999,1450749012
6815,15,Jits_Phase_8,119,9999,9999,9999,1451548784
6815,15,Jits_Phase_8,120,9999,9999,9999,1452348540
6815,15,Jits_Phase_8,121,9999,9999,9999,1453148224
6815,15,Jits_Phase_8,122,9999,9999,9999,1453949020
6815,15,Jits_Phase_8,123,9999,9999,9999,1454748772
6815,15,Jits_Phase_8,124,9999,9999,9999,1455548540
6815,15,Jits_Phase_8,125,9999,9999,9999,1456348228
6815,15,Jits_Phase_8,126,9999,9999,9999,1457149044
6815,15,Jits_Phase_8,127,9999,9999,9999,1457948756
6815,15,Jits_Phase_8,128,9999,9999,9999,1458748516
6815,15,Jits_Phase_8,129,9999,9999,9999,1459548272
6815,15,Jits_Phase_8,130,9999,9999,9999,1460349012
6815,15,Jits_Phase_8,131,9999,9999,9999,1461308520
6815,15,Jits_Phase_8,132,9999,9999,9999,1462108276
6815,15,Jits_Phase_8,133,9999,9999,9999,1462909012
6815,15,Jits_Phase_8,134,9999,9999,9999,1463708772
6815,15,Jits_Phase_8,135,9999,9999,9999,1464508520
6815,15,Jits_Phase_8,136,9999,9999,9999,1465308280
6815,15,Jits_Phase_8,137,9999,9999,9999,1466109008
6815,15,Jits_Phase_8,138,9999,9999,9999,1466908792
6815,15,Jits_Phase_8,139,9999,9999,9999,1467708472
6815,15,Jits_Phase_8,140,9999,9999,9999,1468508232
6815,15,Jits_Phase_8,141,9999,9999,9999,1469309040
6815,15,Jits_Phase_8,142,9999,9999,9999,1470108792
6815,15,Jits_Phase_8,143,9999,9999,9999,1470908476
6815,15,Jits_Phase_8,144,9999,9999,9999,1471708232
6815,15,Jits_Phase_8,145,9999,9999,9999,1472509036
6815,15,Jits_Phase_8,146,9999,9999,9999,1473308748
6815,15,Jits_Phase_8,147,9999,9999,9999,1474108500
6815,15,Jits_Phase_8,148,9999,9999,9999,1474908252
6815,15,Jits_Phase_8,149,9999,9999,9999,1475709052
6815,15,Jits_Phase_8,150,9999,9999,9999,1476348992
6815,15,Jits_Phase_8,151,9999,9999,9999,1477148768
6815,15,Jits_Phase_8,152,9999,9999,9999,1477948528
6815,15,Jits_Phase_8,153,9999,9999,9999,1478748220
6815,15,Jits_Phase_8,154,9999,9999,9999,1479549012
6815,15,Jits_Phase_8,155,9999,9999,9999,1480348756
6815,15,Jits_Phase_8,156,9999,9999,9999,1481148512
6815,15,Jits_Phase_8,157,9999,9999,9999,1481948268
6815,15,Jits_Phase_8,158,9999,9999,9999,1482749000
6815,15,Jits_Phase_8,159,9999,9999,9999,1483548776
6815,15,Jits_Phase_8,160,9999,9999,9999,1484348540
6815,15,Jits_Phase_8,161,9999,9999,9999,1485148220
6815,15,Jits_Phase_8,162,9999,9999,9999,1485949032
6815,15,Jits_Phase_8,163,9999,9999,9999,1486748788
6815,15,Jits_Phase_8,164,9999,9999,9999,1487548544
6815,15,Jits_Phase_8,165,9999,9999,9999,1488348224
6815,15,Jits_Phase_8,166,9999,9999,9999,1489149028
6815,15,Jits_Phase_8,167,9999,9999,9999,1489948740
6815,15,Jits_Phase_8,168,9999,9999,9999,1490748500
6815,15,Jits_Phase_8,169,9999,9999,9999,1491548244
6816,19,Jits_Linear_5,0,5,56,103,1500545500
6816,19,Jits_Linear_5,1,5,63,98,1500548524
6816,19,Jits_Linear_5,2,5,80,127,1500551720
6816,19,Jits_Linear_5,0,5,56,103,1501024544
6816,19,Jits_Linear_5,1,5,63,98,1501027716
6816,19,Jits_Linear_5,2,5,80,127,1501030764
6816,19,Jits_Linear_5,3,1,48,29,1501161988
6816,19,Jits_Linear_5,0,5,56,103,1501504764
6816,19,Jits_Linear_5,1,5,80,127,1501515032
6816,19,Jits_Linear_5,2,5,63,98,1501534520
6816,19,Jits_Linear_5,3,1,48,31,1501568356
6816,19,Jits_Linear_5,0,5,63,98,1501934912
6816,19,Jits_Linear_5,1,5,80,127,1501964588
6816,19,Jits_Linear_5,2,5,56,103,1501974960
6816,19,Jits_Linear_5,3,1,48,20,1502053224
6816,19,Jits_Linear_5,0,5,80,127,1502474676
6816,19,Jits_Linear_5,1,5,56,103,1502484972
6816,19,Jits_Linear_5,2,5,63,98,1502514428
6816,19,Jits_Linear_5,3,1,48,24,1502523244
6816,19,Jits_Linear_5,0,5,63,98,1502954980
6816,19,Jits_Linear_5,1,5,56,103,1502984660
6816,19,Jits_Linear_5,2,5,80,127,1502994928
6816,19,Jits_Linear_5,3,1,48,24,1503000532
6816,19,Jits_Linear_5,0,5,56,103,1503395176
6816,19,Jits_Linear_5,1,5,63,98,1503445456
6816,19,Jits_Linear_5,2,1,48,29,1503464944
6816,19,Jits_Linear_5,3,5,80,127,1503466356
6816,19,Jits_Linear_5,0,5,80,127,1503884620
6816,19,Jits_Linear_5,1,5,63,98,1503934972
6816,19,Jits_Linear_5,2,1,48,29,1503940336
6816,19,Jits_Linear_5,3,5,56,103,1503974756
6816,19,Jits_Linear_5,0,5,56,103,1504375036
6816,19,Jits_Linear_5,1,5,63,98,1504404788
6816,19,Jits_Linear_5,2,1,48,35,1504418920
6816,19,Jits_Linear_5,3,5,80,127,1504474460
6816,19,Jits_Linear_5,0,5,56,103,1504864548
6816,19,Jits_Linear_5,1,1,48,29,1504889392
6816,19,Jits_Linear_5,2,5,80,127,1504925232
6816,19,Jits_Linear_5,3,5,63,98,1504954612
6816,19,Jits_Linear_5,0,5,56,103,1505365528
6816,19,Jits_Linear_5,1,1,48,34,1505371864
6816,19,Jits_Linear_5,2,5,63,98,1505374524
6816,19,Jits_Linear_5,3,5,80,127,1505414460
6816,19,Jits_Linear_5,0,1,48,30,1505840244
6816,19,Jits_Linear_5,1,5,63,98,1505854808
6816,19,Jits_Linear_5,2,5,80,127,1505934684
6816,19,Jits_Linear_5,3,5,56,103,1505944940
6816,19,Jits_Linear_5,0,1,48,36,1506330640
6816,19,Jits_Linear_5,1,5,63,98,1506404848
6816,19,Jits_Linear_5,2,5,56,103,1506444696
6816,19,Jits_Linear_5,3,5,80,127,1506447764
6816,19,Jits_Linear_5,0,1,48,35,1506833680
6816,19,Jits_Linear_5,1,5,56,103,1506864372
6816,19,Jits_Linear_5,2,5,63,98,1506874644
6816,19,Jits_Linear_5,3,5,80,127,1506914656
6816,19,Jits_Linear_5,0,1,48,32,1507324520
6816,19,Jits_Linear_5,1,5,56,103,1507355212
6816,19,Jits_Linear_5,2,5,63,98,1507358132
6816,19,Jits_Linear_5,3,5,80,127,1507374548
6816,19,Jits_Linear_5,0,1,48,31,1507819396
6816,19,Jits_Linear_5,1,5,80,127,1507875348
6816,19,Jits_Linear_5,2,5,56,103,1507885320
6816,19,Jits_Linear_5,3,5,63,98,1507955136
6816,19,Jits_Linear_5,0,1,48,38,1508328228
6816,19,Jits_Linear_5,1,5,63,98,1508374960
6816,19,Jits_Linear_5,2,5,56,103,1508395496
6816,19,Jits_Linear_5,3,5,80,127,1508475428
6816,19,Jits_Linear_5,0,1,48,31,1508833916
6816,19,Jits_Linear_5,1,5,56,103,1508895400
6816,19,Jits_Linear_5,2,5,80,127,1508934952
6816,19,Jits_Linear_5,3,5,63,98,1508945372
6816,19,Jits_Linear_5,0,1,48,36,1509348732
6816,19,Jits_Linear_5,1,5,80,127,1509394768
6816,19,Jits_Linear_5,2,5,63,98,1509424392
6816,19,Jits_Linear_5,3,5,56,103,1509464392
6816,19,Jits_Linear_5,0,1,48,29,1509864308
6816,19,Jits_Linear_5,1,5,56,103,1509925344
6816,19,Jits_Linear_5,2,5,63,98,1509954800
6816,19,Jits_Linear_5,3,5,80,127,1510005136
6816,19,Jits_Linear_5,0,1,48,30,1510355384
6816,19,Jits_Linear_5,1,5,80,127,1510435228
6816,19,Jits_Linear_5,2,5,56,103,1510475300
6816,19,Jits_Linear_5,3,5,63,98,1510485500
6816,19,Jits_Linear_5,0,1,48,32,1510911408
6816,19,Jits_Linear_5,1,5,80,127,1510934992
6816,19,Jits_Linear_5,2,5,63,98,1510974784
6816,19,Jits_Linear_5,3,5,56,103,1511035456
6816,19,Jits_Linear_5,0,1,48,35,1511419264
6816,19,Jits_Linear_5,1,5,56,103,1511455132
6816,19,Jits_Linear_5,2,5,80,127,1511465476
6816,19,Jits_Linear_5,3,5,63,98,1511545408
6816,19,Jits_Linear_5,0,1,48,34,1511959132
6816,19,Jits_Linear_5,1,5,80,127,1511975420
6816,19,Jits_Linear_5,2,5,63,98,1512034768
6816,19,Jits_Linear_5,3,5,56,103,1512065252
6816,19,Jits_Linear_5,0,1,48,36,1512457748
6816,19,Jits_Linear_5,1,5,56,103,1512494588
6816,19,Jits_Linear_5,2,5,80,127,1512554820
6816,19,Jits_Linear_5,3,5,63,98,1512594832
6816,19,Jits_Linear_5,0,1,48,32,1513001432
6816,19,Jits_Linear_5,1,5,56,103,1513075268
6816,19,Jits_Linear_5,2,5,63,98,1513085240
6816,19,Jits_Linear_5,3,5,80,127,1513088604
6816,19,Jits_Linear_5,0,1,48,30,1513528988
6816,19,Jits_Linear_5,1,5,80,127,1513555168
6816,19,Jits_Linear_5,2,5,63,98,1513645516
6816,19,Jits_Linear_5,3,5,56,103,1513654592
6816,19,Jits_Linear_5,0,1,48,32,1514035208
6816,19,Jits_Linear_5,1,5,56,103,1514084812
6816,19,Jits_Linear_5,2,5,63,98,1514088064
6816,19,Jits_Linear_5,3,5,80,127,1514091180
6816,19,Jits_Linear_5,0,1,48,28,1514507184
6816,19,Jits_Linear_5,1,5,80,127,1514634672
6816,19,Jits_Linear_5,2,5,63,98,1514684952
6816,19,Jits_Linear_5,3,5,56,103,1514714404
6816,19,Jits_Linear_5,0,1,48,29,1515038592
6816,19,Jits_Linear_5,1,5,56,103,1515144552
6816,19,Jits_Linear_5,2,5,80,127,1515154900
6816,19,Jits_Linear_5,3,5,63,98,1515224356
6816,19,Jits_Linear_5,0,1,48,35,1515573580
6816,19,Jits_Linear_5,1,5,56,103,1515694516
6816,19,Jits_Linear_5,2,5,63,98,1515715124
6816,19,Jits_Linear_5,3,5,80,127,1515775292
6816,19,Jits_Linear_5,0,1,48,35,1516086668
6816,19,Jits_Linear_5,1,5,80,127,1516224768
6816,19,Jits_Linear_5,2,5,63,98,1516294604
6816,19,Jits_Linear_5,3,5,56,103,1516315016
6816,19,Jits_Linear_5,0,1,48,27,1516617372
6816,19,Jits_Linear_5,1,5,80,127,1516785292
6816,19,Jits_Linear_5,2,5,56,103,1516795340
6816,19,Jits_Linear_5,3,5,63,98,1516804564
6816,19,Jits_Linear_5,0,1,48,35,1517122216
6816,19,Jits_Linear_5,1,5,80,127,1517314424
6816,19,Jits_Linear_5,2,5,56,103,1517334984
6816,19,Jits_Linear_5,3,5,63,98,1517404516
6816,19,Jits_Linear_5,0,1,48,27,1517666188
6816,19,Jits_Linear_5,1,5,56,103,1517865304
6816,19,Jits_Linear_5,2,5,80,127,1517895132
6816,19,Jits_Linear_5,3,5,63,98,1517914544
6816,19,Jits_Linear_5,4,1,48,35,1518152684
6816,19,Jits_Linear_5,0,5,63,98,1518405144
6816,19,Jits_Linear_5,1,5,56,103,1518465392
6816,19,Jits_Linear_5,2,5,80,127,1518495288
6816,19,Jits_Linear_5,3,1,48,35,1518690284
6816,19,Jits_Linear_5,0,5,63,98,1518944764
6816,19,Jits_Linear_5,1,5,80,127,1518948056
6816,19,Jits_Linear_5,2,5,56,103,1519034676
6816,19,Jits_Linear_5,3,1,48,34,1519196792
6816,19,Jits_Linear_5,0,5,56,103,1519515024
6816,19,Jits_Linear_5,1,5,63,98,1519544552
6816,19,Jits_Linear_5,2,5,80,127,1519584492
6816,19,Jits_Linear_5,3,1,48,33,1519704136
6816,19,Jits_Linear_5,0,5,63,98,1520065076
6816,19,Jits_Linear_5,1,5,56,103,1520104940
6816,19,Jits_Linear_5,2,5,80,127,1520125176
6816,19,Jits_Linear_5,3,1,48,32,1520202104
6816,19,Jits_Linear_5,0,5,63,98,1520625152
6816,19,Jits_Linear_5,1,5,56,103,1520665192
6816,19,Jits_Linear_5,2,5,80,127,1520675240
6816,19,Jits_Linear_5,3,1,48,34,1520725632
6816,19,Jits_Linear_5,0,5,80,127,1521154432
6816,19,Jits_Linear_5,1,1,48,36,1521205308
6816,19,Jits_Linear_5,2,5,63,98,1521225180
6816,19,Jits_Linear_5,3,5,56,103,1521244448
6816,19,Jits_Linear_5,0,5,56,103,1521705328
6816,19,Jits_Linear_5,1,5,80,127,1521724964
6816,19,Jits_Linear_5,2,1,48,35,1521736028
6816,19,Jits_Linear_5,3,5,63,98,1521764676
6816,19,Jits_Linear_5,0,1,48,40,1522243504
6816,19,Jits_Linear_5,1,5,63,98,1522274548
6816,19,Jits_Linear_5,2,5,80,127,1522295232
6816,19,Jits_Linear_5,3,5,56,103,1522335008
6816,19,Jits_Linear_5,0,1,48,38,1522795636
6816,19,Jits_Linear_5,1,5,63,98,1522834916
6816,19,Jits_Linear_5,2,5,56,103,1522855228
6816,19,Jits_Linear_5,3,5,80,127,1522864452
6816,19,Jits_Linear_5,0,1,48,34,1523312684
6816,19,Jits_Linear_5,1,5,80,127,1523395136
6816,19,Jits_Linear_5,2,5,56,103,1523415432
6816,19,Jits_Linear_5,3,5,63,98,1523445036
6816,19,Jits_Linear_5,0,1,48,37,1523852544
6816,19,Jits_Linear_5,1,5,56,103,1524034936
6816,19,Jits_Linear_5,2,5,80,127,1524038080
6816,19,Jits_Linear_5,3,5,63,98,1524055324
6816,19,Jits_Linear_5,0,1,48,33,1524393728
6816,19,Jits_Linear_5,1,5,63,98,1524525476
6816,19,Jits_Linear_5,2,5,56,103,1524555156
6816,19,Jits_Linear_5,3,5,80,127,1524614576
6816,19,Jits_Linear_5,0,1,48,29,1524964592
6816,19,Jits_Linear_5,1,5,63,98,1525174788
6816,19,Jits_Linear_5,2,5,56,103,1525185060
6816,19,Jits_Linear_5,3,5,80,127,1525195328
6816,19,Jits_Linear_5,0,1,48,24,1525490192
6816,19,Jits_Linear_5,1,5,56,103,1525694932
6816,19,Jits_Linear_5,2,5,80,127,1525724460
6816,19,Jits_Linear_5,3,5,63,98,1525735176
6816,19,Jits_Linear_5,0,1,48,22,1526080788
6816,19,Jits_Linear_5,1,5,63,98,1526305084
6816,19,Jits_Linear_5,2,5,56,103,1526315504
6816,19,Jits_Linear_5,3,5,80,127,1526334916
6816,19,Jits_Linear_5,0,1,48,27,1526644996
6816,19,Jits_Linear_5,1,5,56,103,1526805220
6816,19,Jits_Linear_5,2,5,63,98,1526865312
6816,19,Jits_Linear_5,3,5,80,127,1526868604
6816,19,Jits_Linear_5,0,1,48,35,1527216064
6816,19,Jits_Linear_5,1,5,80,127,1527404896
6816,19,Jits_Linear_5,2,5,56,103,1527415016
6816,19,Jits_Linear_5,3,5,63,98,1527485220
6816,19,Jits_Linear_5,0,1,48,27,1527835408
6816,19,Jits_Linear_5,1,5,80,127,1527984448
6816,19,Jits_Linear_5,2,5,56,103,1528055252
6816,19,Jits_Linear_5,3,5,63,98,1528065524
6816,19,Jits_Linear_5,0,1,48,31,1528356072
6816,19,Jits_Linear_5,1,5,63,98,1528604936
6816,19,Jits_Linear_5,2,5,56,103,1528615208
6816,19,Jits_Linear_5,3,5,80,127,1528634920
6816,19,Jits_Linear_5,4,1,48,27,1528891048
6816,19,Jits_Linear_5,0,5,80,127,1529134436
6816,19,Jits_Linear_5,1,5,63,98,1529195056
6816,19,Jits_Linear_5,2,5,56,103,1529234920
6816,19,Jits_Linear_5,3,1,48,32,1529447828
6816,19,Jits_Linear_5,0,5,56,103,1529765108
6816,19,Jits_Linear_5,1,5,63,98,1529774628
6816,19,Jits_Linear_5,2,5,80,127,1529815392
6816,19,Jits_Linear_5,3,1,48,30,1529973920
6816,19,Jits_Linear_5,0,5,56,103,1530315216
6816,19,Jits_Linear_5,1,5,80,127,1530344892
6816,19,Jits_Linear_5,2,5,63,98,1530394968
6816,19,Jits_Linear_5,3,1,48,36,1530467836
6816,19,Jits_Linear_5,0,5,56,103,1530945080
6816,19,Jits_Linear_5,1,1,48,39,1530967904
6816,19,Jits_Linear_5,2,5,63,98,1530984788
6816,19,Jits_Linear_5,3,5,80,127,1530988080
6816,19,Jits_Linear_5,0,1,48,38,1531481068
6816,19,Jits_Linear_5,1,5,56,103,1531534676
6816,19,Jits_Linear_5,2,5,63,98,1531544796
6816,19,Jits_Linear_5,3,5,80,127,1531565556
6816,19,Jits_Linear_5,0,1,48,36,1532026760
6816,19,Jits_Linear_5,1,5,56,103,1532084708
6816,19,Jits_Linear_5,2,5,80,127,1532087996
6816,19,Jits_Linear_5,3,5,63,98,1532124424
6816,19,Jits_Linear_5,0,1,48,36,1532595740
6816,19,Jits_Linear_5,1,5,63,98,1532715580
6816,19,Jits_Linear_5,2,5,56,103,1532745036
6816,19,Jits_Linear_5,3,5,80,127,1532764524
6816,19,Jits_Linear_5,0,1,48,33,1533124200
6816,19,Jits_Linear_5,1,5,80,127,1533284876
6816,19,Jits_Linear_5,2,5,56,103,1533294920
6816,19,Jits_Linear_5,3,5,63,98,1533305192
6816,19,Jits_Linear_5,0,1,48,34,1533650316
6816,19,Jits_Linear_5,1,5,56,103,1533884948
6816,19,Jits_Linear_5,2,5,80,127,1533924816
6816,19,Jits_Linear_5,3,5,63,98,1533954268
6816,19,Jits_Linear_5,4,1,48,38,1534212580
6816,19,Jits_Linear_5,0,5,63,98,1534495160
6816,19,Jits_Linear_5,1,5,80,127,1534505432
6816,19,Jits_Linear_5,2,5,56,103,1534514504
6816,19,Jits_Linear_5,3,1,48,38,1534715548
6816,19,Jits_Linear_5,0,5,56,103,1535074932
6816,19,Jits_Linear_5,1,5,63,98,1535145368
6816,19,Jits_Linear_5,2,5,80,127,1535154664
6816,19,Jits_Linear_5,3,1,48,37,1535228356
6816,19,Jits_Linear_5,0,5,80,127,1535685072
6816,19,Jits_Linear_5,1,5,56,103,1535695344
6816,19,Jits_Linear_5,2,5,63,98,1535745252
6816,19,Jits_Linear_5,3,1,48,37,1535772136
6816,19,Jits_Linear_5,0,1,48,33,1536302164
6816,19,Jits_Linear_5,1,5,80,127,1536304744
6816,19,Jits_Linear_5,2,5,56,103,1536364764
6816,19,Jits_Linear_5,3,5,63,98,1536395848
6816,19,Jits_Linear_5,0,1,48,30,1536852864
6816,19,Jits_Linear_5,1,5,56,103,1536914788
6816,19,Jits_Linear_5,2,5,80,127,1536917856
6816,19,Jits_Linear_5,3,5,63,98,1536954864
6816,19,Jits_Linear_5,0,1,48,36,1537399216
6816,19,Jits_Linear_5,1,5,56,103,1537554876
6816,19,Jits_Linear_5,2,5,63,98,1537584704
6816,19,Jits_Linear_5,3,5,80,127,1537594680
6816,19,Jits_Linear_5,0,1,48,24,1537922664
6816,19,Jits_Linear_5,1,5,63,98,1538175268
6816,19,Jits_Linear_5,2,5,80,127,1538184564
6816,19,Jits_Linear_5,3,5,56,103,1538194912
6816,19,Jits_Linear_5,0,1,48,33,1538504760
6816,19,Jits_Linear_5,1,5,80,127,1538734588
6816,19,Jits_Linear_5,2,5,56,103,1538784720
6816,19,Jits_Linear_5,3,5,63,98,1538787640
6816,19,Jits_Linear_5,4,1,48,35,1539013584
6816,19,Jits_Linear_5,0,5,56,103,1539384876
6816,19,Jits_Linear_5,1,5,80,127,1539405040
6816,19,Jits_Linear_5,2,5,63,98,1539415384
6816,19,Jits_Linear_5,3,1,48,29,1539545936
6816,19,Jits_Linear_5,0,5,63,98,1539984896
6816,19,Jits_Linear_5,1,5,56,103,1540014724
6816,19,Jits_Linear_5,2,5,80,127,1540034884
6816,19,Jits_Linear_5,3,1,48,28,1540118788
6816,19,Jits_Linear_5,0,5,56,103,1540614648
6816,19,Jits_Linear_5,1,5,80,127,1540624844
6816,19,Jits_Linear_5,2,1,48,31,1540627212
6816,19,Jits_Linear_5,3,5,63,98,1540695492
6816,19,Jits_Linear_5,0,1,48,28,1541184816
6816,19,Jits_Linear_5,1,5,63,98,1541224924
6816,19,Jits_Linear_5,2,5,80,127,1541264864
6816,19,Jits_Linear_5,3,5,56,103,1541304788
6816,19,Jits_Linear_5,0,1,48,37,1541743460
6816,19,Jits_Linear_5,1,5,56,103,1541864772
6816,19,Jits_Linear_5,2,5,63,98,1541875044
6816,19,Jits_Linear_5,3,5,80,127,1541894756
6816,19,Jits_Linear_5,0,1,48,33,1542283224
6816,19,Jits_Linear_5,1,5,63,98,1542534704
6816,19,Jits_Linear_5,2,5,80,127,1542555016
6816,19,Jits_Linear_5,3,5,56,103,1542574804
6816,19,Jits_Linear_5,0,1,48,30,1542864576
6816,19,Jits_Linear_5,1,5,56,103,1543104748
6816,19,Jits_Linear_5,2,5,80,127,1543184696
6816,19,Jits_Linear_5,3,5,63,98,1543194916
6816,19,Jits_Linear_5,0,1,48,29,1543473688
6816,19,Jits_Linear_5,1,5,80,127,1543774820
6816,19,Jits_Linear_5,2,5,63,98,1543784796
6816,19,Jits_Linear_5,3,5,56,103,1543814472
6816,19,Jits_Linear_5,4,1,48,38,1544004756
6816,19,Jits_Linear_5,0,5,63,98,1544365660
6816,19,Jits_Linear_5,1,5,80,127,1544405304
6816,19,Jits_Linear_5,2,5,56,103,1544464872
6816,19,Jits_Linear_5,3,1,48,38,1544517840
6816,19,Jits_Linear_5,0,5,63,98,1545005552
6816,19,Jits_Linear_5,1,5,56,103,1545054560
6816,19,Jits_Linear_5,2,1,48,31,1545059324
6816,19,Jits_Linear_5,3,5,80,127,1545085276
6816,19,Jits_Linear_5,0,1,48,29,1545628376
6816,19,Jits_Linear_5,1,5,80,127,1545654628
6816,19,Jits_Linear_5,2,5,63,98,1545664752
6816,19,Jits_Linear_5,3,5,56,103,1545734492
6816,19,Jits_Linear_5,0,1,48,34,1546190016
6816,19,Jits_Linear_5,1,5,80,127,1546365308
6816,19,Jits_Linear_5,2,5,56,103,1546374676
6816,19,Jits_Linear_5,3,5,63,98,1546377744
6816,19,Jits_Linear_5,0,1,48,29,1546762532
6816,19,Jits_Linear_5,1,5,56,103,1546944780
6816,19,Jits_Linear_5,2,5,80,127,1546965464
6816,19,Jits_Linear_5,3,5,63,98,1546974688
6816,19,Jits_Linear_5,0,1,48,29,1547363828
6816,19,Jits_Linear_5,1,5,63,98,1547595008
6816,19,Jits_Linear_5,2,5,56,103,1547635024
6816,19,Jits_Linear_5,3,5,80,127,1547654656
6816,19,Jits_Linear_5,0,1,48,34,1547933200
6816,19,Jits_Linear_5,1,5,63,98,1548245644
6816,19,Jits_Linear_5,2,5,56,103,1548304692
6816,19,Jits_Linear_5,3,5,80,127,1548307860
6816,19,Jits_Linear_5,4,1,48,22,1548505540
6816,19,Jits_Linear_5,0,5,56,103,1548854508
6816,19,Jits_Linear_5,1,5,80,127,1548875488
6816,19,Jits_Linear_5,2,5,63,98,1548915132
6816,19,Jits_Linear_5,3,1,48,31,1549059984
6816,19,Jits_Linear_5,0,5,56,103,1549534692
6816,19,Jits_Linear_5,1,5,63,98,1549555004
6816,19,Jits_Linear_5,2,5,80,127,1549565572
6816,19,Jits_Linear_5,3,1,48,15,1549663192
6816,19,Jits_Linear_5,0,5,80,127,1550155264
6816,19,Jits_Linear_5,1,1,48,29,1550176296
6816,19,Jits_Linear_5,2,5,56,103,1550184712
6816,19,Jits_Linear_5,3,5,63,98,1550224800
6816,19,Jits_Linear_5,0,1,48,30,1550711036
6816,19,Jits_Linear_5,1,5,80,127,1550814532
6816,19,Jits_Linear_5,2,5,56,103,1550834916
6816,19,Jits_Linear_5,3,5,63,98,1550894584
6816,19,Jits_Linear_5,0,1,48,36,1551272980
6816,19,Jits_Linear_5,1,5,56,103,1551475024
6816,19,Jits_Linear_5,2,5,80,127,1551494364
6816,19,Jits_Linear_5,3,5,63,98,1551555052
6816,19,Jits_Linear_5,0,1,48,31,1551866924
6816,19,Jits_Linear_5,1,5,80,127,1552115184
6816,19,Jits_Linear_5,2,5,56,103,1552125532
6816,19,Jits_Linear_5,3,5,63,98,1552165420
6816,19,Jits_Linear_5,4,1,48,30,1552462228
6816,19,Jits_Linear_5,0,5,63,98,1552774476
6816,19,Jits_Linear_5,1,5,56,103,1552814416
6816,19,Jits_Linear_5,2,5,80,127,1552817408
6816,19,Jits_Linear_5,3,1,48,30,1553002064
6816,19,Jits_Linear_5,0,5,63,98,1553454436
6816,19,Jits_Linear_5,1,5,80,127,1553495648
6816,19,Jits_Linear_5,2,5,56,103,1553525324
6816,19,Jits_Linear_5,3,1,48,28,1553683924
6816,19,Jits_Linear_5,0,5,56,103,1554104788
6816,19,Jits_Linear_5,1,5,63,98,1554114908
6816,19,Jits_Linear_5,2,5,80,127,1554144584
6816,19,Jits_Linear_5,3,1,48,35,1554284756
6816,19,Jits_Linear_5,0,5,80,127,1554765364
6816,19,Jits_Linear_5,1,5,63,98,1554834752
6816,19,Jits_Linear_5,2,1,48,31,1554845320
6816,19,Jits_Linear_5,3,5,56,103,1554846740
6816,19,Jits_Linear_5,0,1,48,27,1555418544
6816,19,Jits_Linear_5,1,5,63,98,1555434832
6816,19,Jits_Linear_5,2,5,56,103,1555504468
6816,19,Jits_Linear_5,3,5,80,127,1555514812
6816,19,Jits_Linear_5,0,1,48,32,1556003444
6816,19,Jits_Linear_5,1,5,63,98,1556104528
6816,19,Jits_Linear_5,2,5,56,103,1556125284
6816,19,Jits_Linear_5,3,5,80,127,1556165072
6816,19,Jits_Linear_5,0,1,48,29,1556624044
6816,19,Jits_Linear_5,1,5,56,103,1556784424
6816,19,Jits_Linear_5,2,5,63,98,1556794696
6816,19,Jits_Linear_5,3,5,80,127,1556874568
6816,19,Jits_Linear_5,0,1,48,25,1557213184
6816,19,Jits_Linear_5,1,5,63,98,1557445260
6816,19,Jits_Linear_5,2,5,56,103,1557474640
6816,19,Jits_Linear_5,3,5,80,127,1557514652
6816,19,Jits_Linear_5,0,1,48,26,1557834128
6816,19,Jits_Linear_5,1,5,56,103,1558114740
6816,19,Jits_Linear_5,2,5,63,98,1558154608
6816,19,Jits_Linear_5,3,5,80,127,1558194620
6816,19,Jits_Linear_5,4,1,48,27,1558408124
6816,19,Jits_Linear_5,0,5,80,127,1558794608
6816,19,Jits_Linear_5,1,5,56,103,1558874432
6816,19,Jits_Linear_5,2,5,63,98,1558884704
6816,19,Jits_Linear_5,3,1,48,28,1558988504
6816,19,Jits_Linear_5,0,5,56,103,1559514452
6816,19,Jits_Linear_5,1,5,63,98,1559517596
6816,19,Jits_Linear_5,2,5,80,127,1559524724
6816,19,Jits_Linear_5,3,1,48,27,1559585256
6816,19,Jits_Linear_5,0,1,48,26,1560181720
6816,19,Jits_Linear_5,1,5,56,103,1560214876
6816,19,Jits_Linear_5,2,5,63,98,1560235412
6816,19,Jits_Linear_5,3,5,80,127,1560244564
6816,19,Jits_Linear_5,0,1,48,28,1560831260
6816,19,Jits_Linear_5,1,5,63,98,1560854844
6816,19,Jits_Linear_5,2,5,80,127,1560865264
6816,19,Jits_Linear_5,3,5,56,103,1560884676
6816,19,Jits_Linear_5,0,1,48,30,1561455268
6816,19,Jits_Linear_5,1,5,63,98,1561545056
6816,19,Jits_Linear_5,2,5,56,103,1561625236
6816,19,Jits_Linear_5,3,5,80,127,1561628228
6816,19,Jits_Linear_5,0,1,48,32,1562080360
6816,19,Jits_Linear_5,1,5,63,98,1562235196
6816,19,Jits_Linear_5,2,5,56,103,1562254612
6816,19,Jits_Linear_5,3,5,80,127,1562285408
6816,19,Jits_Linear_5,0,1,48,34,1562728712
6816,19,Jits_Linear_5,1,5,56,103,1562925504
6816,19,Jits_Linear_5,2,5,63,98,1562944768
6816,19,Jits_Linear_5,3,5,80,127,1562955412
6816,19,Jits_Linear_5,0,1,48,27,1563401384
6816,19,Jits_Linear_5,1,5,56,103,1563645384
6816,19,Jits_Linear_5,2,5,63,98,1563675008
6816,19,Jits_Linear_5,3,5,80,127,1563678152
6816,19,Jits_Linear_5,0,1,48,26,1564054012
6816,19,Jits_Linear_5,1,5,56,103,1564285188
6816,19,Jits_Linear_5,2,5,63,98,1564325352
6816,19,Jits_Linear_5,3,5,80,127,1564384700
6816,19,Jits_Linear_5,0,1,48,28,1564728584
6816,19,Jits_Linear_5,1,5,56,103,1564995056
6816,19,Jits_Linear_5,2,5,63,98,1565005400
6816,19,Jits_Linear_5,3,5,80,127,1565064596
6816,19,Jits_Linear_5,4,1,48,38,1565344036
6816,19,Jits_Linear_5,0,5,56,103,1565695300
6816,19,Jits_Linear_5,1,5,80,127,1565714740
6816,19,Jits_Linear_5,2,5,63,98,1565744640
6816,19,Jits_Linear_5,3,1,48,30,1566027068
6816,19,Jits_Linear_5,0,5,80,127,1566394692
6816,19,Jits_Linear_5,1,5,56,103,1566405040
6816,19,Jits_Linear_5,2,5,63,98,1566424304
6816,19,Jits_Linear_5,3,1,48,32,1566708152
6816,19,Jits_Linear_5,0,5,63,98,1567085088
6816,19,Jits_Linear_5,1,5,80,127,1567164812
6816,19,Jits_Linear_5,2,5,56,103,1567175084
6816,19,Jits_Linear_5,3,1,48,27,1567364992
6816,19,Jits_Linear_5,0,5,80,127,1567844708
6816,19,Jits_Linear_5,1,5,56,103,1567865088
6816,19,Jits_Linear_5,2,5,63,98,1567868088
6816,19,Jits_Linear_5,0,1,48,29,1568462616
6816,19,Jits_Linear_5,1,5,63,98,1568524536
6816,19,Jits_Linear_5,2,5,80,127,1568528056
6816,19,Jits_Linear_5,3,5,56,103,1568585240
6816,19,Jits_Linear_5,0,1,48,26,1569099424
6816,19,Jits_Linear_5,1,5,56,103,1569215128
6816,19,Jits_Linear_5,2,5,80,127,1569225100
6816,19,Jits_Linear_5,3,5,63,98,1569265188
6816,19,Jits_Linear_5,0,1,48,37,1569746560
6816,19,Jits_Linear_5,1,5,56,103,1569905212
6816,19,Jits_Linear_5,2,5,63,98,1569965532
6816,19,Jits_Linear_5,3,5,80,127,1569974608
6816,19,Jits_Linear_5,0,1,48,38,1570394092
6816,19,Jits_Linear_5,1,5,63,98,1570624896
6816,19,Jits_Linear_5,2,5,80,127,1570664764
6816,19,Jits_Linear_5,3,5,56,103,1570704704
6816,19,Jits_Linear_5,0,1,48,34,1571043024
6816,19,Jits_Linear_5,1,5,56,103,1571334516
6816,19,Jits_Linear_5,2,5,63,98,1571415384
6816,19,Jits_Linear_5,3,5,80,127,1571418900
6816,19,Jits_Linear_5,4,1,48,31,1571658108
6816,19,Jits_Linear_5,0,5,80,127,1572104464
6816,19,Jits_Linear_5,1,5,56,103,1572135284
6816,19,Jits_Linear_5,2,5,63,98,1572138276
6816,19,Jits_Linear_5,3,1,48,31,1572293112
6816,19,Jits_Linear_5,0,5,56,103,1572784520
6816,19,Jits_Linear_5,1,5,80,127,1572805052
6816,19,Jits_Linear_5,2,5,63,98,1572845216
6816,19,Jits_Linear_5,3,1,48,29,1572946724
6816,19,Jits_Linear_5,0,5,80,127,1573495148
6816,19,Jits_Linear_5,1,5,63,98,1573514712
6816,19,Jits_Linear_5,2,1,48,33,1573564440
6816,19,Jits_Linear_5,3,5,56,103,1573575096
6816,19,Jits_Linear_5,0,1,48,37,1574204396
6816,19,Jits_Linear_5,1,5,63,98,1574225324
6816,19,Jits_Linear_5,2,5,56,103,1574234548
6816,19,Jits_Linear_5,3,5,80,127,1574284752
6816,19,Jits_Linear_5,0,1,48,37,1574841320
6816,19,Jits_Linear_5,1,5,56,103,1574934964
6816,19,Jits_Linear_5,2,5,63,98,1574955336
6816,19,Jits_Linear_5,3,5,80,127,1574964932
6816,19,Jits_Linear_5,0,1,48,37,1575469888
6816,19,Jits_Linear_5,1,5,56,103,1575655044
6816,19,Jits_Linear_5,2,5,63,98,1575658040
6816,19,Jits_Linear_5,3,5,80,127,1575675280
6816,19,Jits_Linear_5,0,1,48,32,1576154020
6816,19,Jits_Linear_5,1,5,63,98,1576424912
6816,19,Jits_Linear_5,2,5,56,103,1576454368
6816,19,Jits_Linear_5,3,5,80,127,1576485188
6816,19,Jits_Linear_5,0,1,48,33,1576802836
6816,19,Jits_Linear_5,1,5,80,127,1577114904
6816,19,Jits_Linear_5,2,5,56,103,1577205040
6816,19,Jits_Linear_5,3,5,63,98,1577208108
6816,19,Jits_Linear_5,4,1,48,30,1577419368
6816,19,Jits_Linear_5,0,5,56,103,1577845056
6816,19,Jits_Linear_5,1,5,80,127,1577848200
6816,19,Jits_Linear_5,2,5,63,98,1577924852
6816,19,Jits_Linear_5,3,1,48,28,1578055808
6816,19,Jits_Linear_5,0,5,80,127,1578575224
6816,19,Jits_Linear_5,1,5,63,98,1578634720
6816,19,Jits_Linear_5,2,1,48,22,1578663172
6816,19,Jits_Linear_5,3,5,56,103,1578665284
6816,19,Jits_Linear_5,0,1,48,35,1579290836
6816,19,Jits_Linear_5,1,5,63,98,1579305328
6816,19,Jits_Linear_5,2,5,80,127,1579314400
6816,19,Jits_Linear_5,3,5,56,103,1579385280
6816,19,Jits_Linear_5,0,1,48,34,1579913616
6816,19,Jits_Linear_5,1,5,56,103,1580055032
6816,19,Jits_Linear_5,2,5,80,127,1580084484
6816,19,Jits_Linear_5,3,5,63,98,1580134984
6816,19,Jits_Linear_5,0,1,48,26,1580552648
6816,19,Jits_Linear_5,1,5,63,98,1580835172
6816,19,Jits_Linear_5,2,5,56,103,1580864848
6816,19,Jits_Linear_5,3,5,80,127,1580867992
6816,19,Jits_Linear_5,4,1,48,21,1581195968
6816,19,Jits_Linear_5,0,5,63,98,1581574372
6816,19,Jits_Linear_5,1,5,80,127,1581594932
6816,19,Jits_Linear_5,2,5,56,103,1581605204
6816,19,Jits_Linear_5,3,1,48,33,1581800628
6816,19,Jits_Linear_5,0,5,56,103,1582325144
6816,19,Jits_Linear_5,1,5,63,98,1582328136
6816,19,Jits_Linear_5,2,5,80,127,1582344852
6816,19,Jits_Linear_5,3,1,48,33,1582442160
6816,19,Jits_Linear_5,0,5,56,103,1583024456
6816,19,Jits_Linear_5,1,5,63,98,1583034948
6816,19,Jits_Linear_5,2,1,48,29,1583047736
6816,19,Jits_Linear_5,3,5,80,127,1583064396
6816,19,Jits_Linear_5,0,1,48,36,1583659588
6816,19,Jits_Linear_5,1,5,63,98,1583794772
6816,19,Jits_Linear_5,2,5,80,127,1583814936
6816,19,Jits_Linear_5,3,5,56,103,1583854948
6816,19,Jits_Linear_5,0,1,48,31,1584346284
6816,19,Jits_Linear_5,1,5,56,103,1584574916
6816,19,Jits_Linear_5,2,5,63,98,1584614928
6816,19,Jits_Linear_5,3,5,80,127,1584618220
6816,19,Jits_Linear_5,0,1,48,38,1584944676
6816,19,Jits_Linear_5,1,5,80,127,1585265068
6816,19,Jits_Linear_5,2,5,56,103,1585305012
6816,19,Jits_Linear_5,3,5,63,98,1585355140
6816,19,Jits_Linear_5,4,1,48,31,1585583632
6816,19,Jits_Linear_5,0,5,56,103,1586075028
6816,19,Jits_Linear_5,1,5,80,127,1586085376
6816,19,Jits_Linear_5,2,5,63,98,1586114976
6816,19,Jits_Linear_5,3,1,48,26,1586252508
6816,19,Jits_Linear_5,0,5,56,103,1586775544
6816,19,Jits_Linear_5,1,5,80,127,1586815336
6816,19,Jits_Linear_5,2,5,63,98,1586864788
6816,19,Jits_Linear_5,3,1,48,21,1586895556
6816,19,Jits_Linear_5,0,1,48,20,1587517084
6816,19,Jits_Linear_5,1,5,56,103,1587535240
6816,19,Jits_Linear_5,2,5,80,127,1587575108
6816,19,Jits_Linear_5,3,5,63,98,1587625368
6816,19,Jits_Linear_5,0,1,48,27,1588168624
6816,19,Jits_Linear_5,1,5,80,127,1588284876
6816,19,Jits_Linear_5,2,5,63,98,1588364824
6816,19,Jits_Linear_5,3,5,56,103,1588374872
6816,19,Jits_Linear_5,0,1,48,28,1588856088
6816,19,Jits_Linear_5,1,5,80,127,1589094764
6816,19,Jits_Linear_5,2,5,56,103,1589104960
6816,19,Jits_Linear_5,3,5,63,98,1589124744
6816,19,Jits_Linear_5,0,1,48,27,1589563784
6816,19,Jits_Linear_5,1,5,63,98,1589825004
6816,19,Jits_Linear_5,2,5,56,103,1589894612
6816,19,Jits_Linear_5,3,5,80,127,1589897532
6816,19,Jits_Linear_5,0,1,48,30,1590269108
6816,19,Jits_Linear_5,1,5,80,127,1590584688
6816,19,Jits_Linear_5,2,5,63,98,1590634744
6816,19,Jits_Linear_5,3,5,56,103,1590674756
6816,19,Jits_Linear_5,0,1,48,36,1591012860
6816,19,Jits_Linear_5,1,5,63,98,1591394636
6816,19,Jits_Linear_5,2,5,56,103,1591434800
6816,19,Jits_Linear_5,3,5,80,127,1591445068
6816,19,Jits_Linear_5,0,1,48,35,1591801136
6816,19,Jits_Linear_5,1,5,63,98,1592154628
6816,19,Jits_Linear_5,2,5,56,103,1592174864
6816,19,Jits_Linear_5,3,5,80,127,1592194500
6816,19,Jits_Linear_5,0,1,48,29,1592562392
6816,19,Jits_Linear_5,1,5,80,127,1592884572
6816,19,Jits_Linear_5,2,5,56,103,1592894920
6816,19,Jits_Linear_5,3,5,63,98,1592915452
6816,19,Jits_Linear_5,4,1,48,32,1593262156
6816,19,Jits_Linear_5,0,5,63,98,1593685380
6816,19,Jits_Linear_5,1,5,56,103,1593725248
6816,19,Jits_Linear_5,2,5,80,127,1593754924
6816,19,Jits_Linear_5,3,1,48,16,1594054740
6816,19,Jits_Linear_5,0,5,56,103,1594464480
6816,19,Jits_Linear_5,1,5,63,98,1594495428
6816,19,Jits_Linear_5,2,5,80,127,1594525028
6816,19,Jits_Linear_5,0,1,48,36,1594900700
6816,19,Jits_Linear_5,1,5,80,127,1595215204
6816,19,Jits_Linear_5,2,5,56,103,1595284812
6816,19,Jits_Linear_5,3,5,63,98,1595287956
6816,19,Jits_Linear_5,0,1,48,20,1595691612
6816,19,Jits_Linear_5,1,5,56,103,1596004624
6816,19,Jits_Linear_5,2,5,63,98,1596054904
6816,19,Jits_Linear_5,3,5,80,127,1596084656
6816,19,Jits_Linear_5,0,1,48,13,1596505704
6816,19,Jits_Linear_5,1,5,63,98,1596764604
6816,19,Jits_Linear_5,2,5,80,127,1596767896
6816,19,Jits_Linear_5,3,5,56,103,1596824848
6816,19,Jits_Linear_5,0,1,48,35,1597213164
6816,19,Jits_Linear_5,1,5,56,103,1597574612
6816,19,Jits_Linear_5,2,5,80,127,1597584732
6816,19,Jits_Linear_5,3,5,63,98,1597634860
6816,19,Jits_Linear_5,4,1,48,24,1597969676
6816,19,Jits_Linear_5,0,5,63,98,1598335564
6816,19,Jits_Linear_5,1,5,56,103,1598344568
6816,19,Jits_Linear_5,2,5,80,127,1598375364
6816,19,Jits_Linear_5,3,1,48,35,1598695924
6816,19,Jits_Linear_5,0,5,63,98,1599154516
6816,19,Jits_Linear_5,1,5,80,127,1599157660
6816,19,Jits_Linear_5,2,5,56,103,1599185312
6816,19,Jits_Linear_5,3,1,48,32,1599522444
6816,19,Jits_Linear_5,0,5,63,98,1599964468
6816,19,Jits_Linear_5,1,5,56,103,1599985076
6816,19,Jits_Linear_5,2,5,80,127,1599988144
6816,19,Jits_Linear_5,3,1,48,30,1600306712
6816,19,Jits_Linear_5,0,5,63,98,1600715008
6816,19,Jits_Linear_5,1,5,56,103,1600784868
6816,19,Jits_Linear_5,2,5,80,127,1600805252
6816,19,Jits_Linear_5,3,1,48,29,1601094128
6816,19,Jits_Linear_5,0,5,56,103,1601495372
6816,19,Jits_Linear_5,1,5,63,98,1601504600
6816,19,Jits_Linear_5,2,5,80,127,1601594608
6816,19,Jits_Linear_5,0,1,48,35,1602080488
6816,19,Jits_Linear_5,1,5,56,103,1602305432
6816,19,Jits_Linear_5,2,5,80,127,1602345548
6816,19,Jits_Linear_5,3,5,63,98,1602354476
6816,19,Jits_Linear_5,0,1,48,32,1602810696
6816,19,Jits_Linear_5,1,5,56,103,1603124556
6816,19,Jits_Linear_5,2,5,63,98,1603155504
6816,19,Jits_Linear_5,3,5,80,127,1603184884
6816,19,Jits_Linear_5,0,1,48,31,1603577136
6816,19,Jits_Linear_5,1,5,80,127,1603885292
6816,19,Jits_Linear_5,2,5,63,98,1603925308
6816,19,Jits_Linear_5,3,5,56,103,1603944792
6816,19,Jits_Linear_5,4,1,48,33,1604299508
6816,19,Jits_Linear_5,0,5,56,103,1604725508
6816,19,Jits_Linear_5,1,5,80,127,1604744552
6816,19,Jits_Linear_5,2,5,63,98,1604765012
6816,19,Jits_Linear_5,3,1,48,34,1605109164
6816,19,Jits_Linear_5,0,5,63,98,1605495244
6816,19,Jits_Linear_5,1,5,56,103,1605505292
6816,19,Jits_Linear_5,2,5,80,127,1605564712
6816,19,Jits_Linear_5,3,1,48,37,1605827580
6816,19,Jits_Linear_5,0,5,56,103,1606305276
6816,19,Jits_Linear_5,1,5,63,98,1606374888
6816,19,Jits_Linear_5,2,5,80,127,1606395196
6816,19,Jits_Linear_5,3,1,48,30,1606642108
6816,19,Jits_Linear_5,0,5,56,103,1607115324
6816,19,Jits_Linear_5,1,5,63,98,1607144852
6816,19,Jits_Linear_5,2,5,80,127,1607184668
6816,19,Jits_Linear_5,0,1,48,30,1607635164
6816,19,Jits_Linear_5,1,5,63,98,1607914748
6816,19,Jits_Linear_5,2,5,56,103,1607965200
6816,19,Jits_Linear_5,3,5,80,127,1607975544
6816,19,Jits_Linear_5,4,1,48,24,1608355588
6816,19,Jits_Linear_5,0,5,56,103,1608764736
6816,19,Jits_Linear_5,1,5,63,98,1608814940
6816,19,Jits_Linear_5,2,5,80,127,1608825284
6816,19,Jits_Linear_5,3,1,48,28,1609151304
6816,19,Jits_Linear_5,0,5,56,103,1609555304
6816,19,Jits_Linear_5,1,5,63,98,1609564456
6816,19,Jits_Linear_5,2,5,80,127,1609645296
6816,19,Jits_Linear_5,3,1,48,37,1609938436
6816,19,Jits_Linear_5,0,9999,9999,9999,1500782688
6816,19,Jits_Linear_5,1,9999,9999,9999,1501262904
6816,19,Jits_Linear_5,2,9999,9999,9999,1501742156
6816,19,Jits_Linear_5,3,9999,9999,9999,1502222424
6816,19,Jits_Linear_5,4,9999,9999,9999,1502702708
6816,19,Jits_Linear_5,5,9999,9999,9999,1503192144
6816,19,Jits_Linear_5,6,9999,9999,9999,1503682620
6816,19,Jits_Linear_5,7,9999,9999,9999,1504172136
6816,19,Jits_Linear_5,8,9999,9999,9999,1504662624
6816,19,Jits_Linear_5,9,9999,9999,9999,1505152068
6816,19,Jits_Linear_5,10,9999,9999,9999,1505652816
6816,19,Jits_Linear_5,11,9999,9999,9999,1506152520
6816,19,Jits_Linear_5,12,9999,9999,9999,1506652280
6816,19,Jits_Linear_5,13,9999,9999,9999,1507153012
6816,19,Jits_Linear_5,14,9999,9999,9999,1507652688
6816,19,Jits_Linear_5,15,9999,9999,9999,1508162644
6816,19,Jits_Linear_5,16,9999,9999,9999,1508672596
6816,19,Jits_Linear_5,17,9999,9999,9999,1509182548
6816,19,Jits_Linear_5,18,9999,9999,9999,1509692500
6816,19,Jits_Linear_5,19,9999,9999,9999,1510202456
6816,19,Jits_Linear_5,20,9999,9999,9999,1510722672
6816,19,Jits_Linear_5,21,9999,9999,9999,1511242816
6816,19,Jits_Linear_5,22,9999,9999,9999,1511763028
6816,19,Jits_Linear_5,23,9999,9999,9999,1512282200
6816,19,Jits_Linear_5,24,9999,9999,9999,1512802416
6816,19,Jits_Linear_5,25,9999,9999,9999,1513332812
6816,19,Jits_Linear_5,26,9999,9999,9999,1513862248
6816,19,Jits_Linear_5,27,9999,9999,9999,1514392700
6816,19,Jits_Linear_5,28,9999,9999,9999,1514923108
6816,19,Jits_Linear_5,29,9999,9999,9999,1515462728
6816,19,Jits_Linear_5,30,9999,9999,9999,1516002428
6816,19,Jits_Linear_5,31,9999,9999,9999,1516543100
6816,19,Jits_Linear_5,32,9999,9999,9999,1517082740
6816,19,Jits_Linear_5,33,9999,9999,9999,1517622360
6816,19,Jits_Linear_5,34,9999,9999,9999,1518163024
6816,19,Jits_Linear_5,35,9999,9999,9999,1518712904
6816,19,Jits_Linear_5,36,9999,9999,9999,1519262780
6816,19,Jits_Linear_5,37,9999,9999,9999,1519812728
6816,19,Jits_Linear_5,38,9999,9999,9999,1520362552
6816,19,Jits_Linear_5,39,9999,9999,9999,1520912440
6816,19,Jits_Linear_5,40,9999,9999,9999,1521472612
6816,19,Jits_Linear_5,41,9999,9999,9999,1522032696
6816,19,Jits_Linear_5,42,9999,9999,9999,1522592856
6816,19,Jits_Linear_5,43,9999,9999,9999,1523153000
6816,19,Jits_Linear_5,44,9999,9999,9999,1523712100
6816,19,Jits_Linear_5,45,9999,9999,9999,1524282460
6816,19,Jits_Linear_5,46,9999,9999,9999,1524852796
6816,19,Jits_Linear_5,47,9999,9999,9999,1525422168
6816,19,Jits_Linear_5,48,9999,9999,9999,1525992508
6816,19,Jits_Linear_5,49,9999,9999,9999,1526562876
6816,19,Jits_Linear_5,50,9999,9999,9999,1527142492
6816,19,Jits_Linear_5,51,9999,9999,9999,1527723068
6816,19,Jits_Linear_5,52,9999,9999,9999,1528312888
6816,19,Jits_Linear_5,53,9999,9999,9999,1528892540
6816,19,Jits_Linear_5,54,9999,9999,9999,1529472088
6816,19,Jits_Linear_5,55,9999,9999,9999,1530062972
6816,19,Jits_Linear_5,56,9999,9999,9999,1530652796
6816,19,Jits_Linear_5,57,9999,9999,9999,1531242548
6816,19,Jits_Linear_5,58,9999,9999,9999,1531832384
6816,19,Jits_Linear_5,59,9999,9999,9999,1532422264
6816,19,Jits_Linear_5,60,9999,9999,9999,1533022296
6816,19,Jits_Linear_5,61,9999,9999,9999,1533622376
6816,19,Jits_Linear_5,62,9999,9999,9999,1534222448
6816,19,Jits_Linear_5,63,9999,9999,9999,1534822524
6816,19,Jits_Linear_5,64,9999,9999,9999,1535422532
6816,19,Jits_Linear_5,65,9999,9999,9999,1536032844
6816,19,Jits_Linear_5,66,9999,9999,9999,1536642160
6816,19,Jits_Linear_5,67,9999,9999,9999,1537252420
6816,19,Jits_Linear_5,68,9999,9999,9999,1537862716
6816,19,Jits_Linear_5,69,9999,9999,9999,1538473060
6816,19,Jits_Linear_5,70,9999,9999,9999,1539092556
6816,19,Jits_Linear_5,71,9999,9999,9999,1539712096
6816,19,Jits_Linear_5,72,9999,9999,9999,1540332644
6816,19,Jits_Linear_5,73,9999,9999,9999,1540952128
6816,19,Jits_Linear_5,74,9999,9999,9999,1541572676
6816,19,Jits_Linear_5,75,9999,9999,9999,1542202448
6816,19,Jits_Linear_5,76,9999,9999,9999,1542832208
6816,19,Jits_Linear_5,77,9999,9999,9999,1543463028
6816,19,Jits_Linear_5,78,9999,9999,9999,1544092764
6816,19,Jits_Linear_5,79,9999,9999,9999,1544722500
6816,19,Jits_Linear_5,80,9999,9999,9999,1545362516
6816,19,Jits_Linear_5,81,9999,9999,9999,1546002556
6816,19,Jits_Linear_5,82,9999,9999,9999,1546642492
6816,19,Jits_Linear_5,83,9999,9999,9999,1547282532
6816,19,Jits_Linear_5,84,9999,9999,9999,1547922548
6816,19,Jits_Linear_5,85,9999,9999,9999,1548572748
6816,19,Jits_Linear_5,86,9999,9999,9999,1549223004
6816,19,Jits_Linear_5,87,9999,9999,9999,1549872200
6816,19,Jits_Linear_5,88,9999,9999,9999,1550522488
6816,19,Jits_Linear_5,89,9999,9999,9999,1551172732
6816,19,Jits_Linear_5,90,9999,9999,9999,1551832156
6816,19,Jits_Linear_5,91,9999,9999,9999,1552492640
6816,19,Jits_Linear_5,92,9999,9999,9999,1553152100
6816,19,Jits_Linear_5,93,9999,9999,9999,1553812592
6816,19,Jits_Linear_5,94,9999,9999,9999,1554473080
6816,19,Jits_Linear_5,95,9999,9999,9999,1555142780
6816,19,Jits_Linear_5,96,9999,9999,9999,1555812428
6816,19,Jits_Linear_5,97,9999,9999,9999,1556482108
6816,19,Jits_Linear_5,98,9999,9999,9999,1557152864
6816,19,Jits_Linear_5,99,9999,9999,9999,1557822568
6816,19,Jits_Linear_5,100,9999,9999,9999,1558502508
6816,19,Jits_Linear_5,101,9999,9999,9999,1559182460
6816,19,Jits_Linear_5,102,9999,9999,9999,1559862360
6816,19,Jits_Linear_5,103,9999,9999,9999,1560542328
6816,19,Jits_Linear_5,104,9999,9999,9999,1561222220
6816,19,Jits_Linear_5,105,9999,9999,9999,1561912380
6816,19,Jits_Linear_5,106,9999,9999,9999,1562602588
6816,19,Jits_Linear_5,107,9999,9999,9999,1563292748
6816,19,Jits_Linear_5,108,9999,9999,9999,1563982904
6816,19,Jits_Linear_5,109,9999,9999,9999,1564672064
6816,19,Jits_Linear_5,110,9999,9999,9999,1565372484
6816,19,Jits_Linear_5,111,9999,9999,9999,1566072900
6816,19,Jits_Linear_5,112,9999,9999,9999,1566772292
6816,19,Jits_Linear_5,113,9999,9999,9999,1567472768
6816,19,Jits_Linear_5,114,9999,9999,9999,1568172088
6816,19,Jits_Linear_5,115,9999,9999,9999,1568882796
6816,19,Jits_Linear_5,116,9999,9999,9999,1569592436
6816,19,Jits_Linear_5,117,9999,9999,9999,1570303104
6816,19,Jits_Linear_5,118,9999,9999,9999,1571012672
6816,19,Jits_Linear_5,119,9999,9999,9999,1571722300
6816,19,Jits_Linear_5,120,9999,9999,9999,1572442184
6816,19,Jits_Linear_5,121,9999,9999,9999,1573163076
6816,19,Jits_Linear_5,122,9999,9999,9999,1573892188
6816,19,Jits_Linear_5,123,9999,9999,9999,1574613080
6816,19,Jits_Linear_5,124,9999,9999,9999,1575332980
6816,19,Jits_Linear_5,125,9999,9999,9999,1576063056
6816,19,Jits_Linear_5,126,9999,9999,9999,1576792184
6816,19,Jits_Linear_5,127,9999,9999,9999,1577522300
6816,19,Jits_Linear_5,128,9999,9999,9999,1578252352
6816,19,Jits_Linear_5,129,9999,9999,9999,1578982456
6816,19,Jits_Linear_5,130,9999,9999,9999,1579722824
6816,19,Jits_Linear_5,131,9999,9999,9999,1580462132
6816,19,Jits_Linear_5,132,9999,9999,9999,1581202548
6816,19,Jits_Linear_5,133,9999,9999,9999,1581942888
6816,19,Jits_Linear_5,134,9999,9999,9999,1582682192
6816,19,Jits_Linear_5,135,9999,9999,9999,1583432828
6816,19,Jits_Linear_5,136,9999,9999,9999,1584182344
6816,19,Jits_Linear_5,137,9999,9999,9999,1584932960
6816,19,Jits_Linear_5,138,9999,9999,9999,1585682528
6816,19,Jits_Linear_5,139,9999,9999,9999,1586432064
6816,19,Jits_Linear_5,140,9999,9999,9999,1587192888
6816,19,Jits_Linear_5,141,9999,9999,9999,1587952740
6816,19,Jits_Linear_5,142,9999,9999,9999,1588712504
6816,19,Jits_Linear_5,143,9999,9999,9999,1589472344
6816,19,Jits_Linear_5,144,9999,9999,9999,1590232172
6816,19,Jits_Linear_5,145,9999,9999,9999,1591002204
6816,19,Jits_Linear_5,146,9999,9999,9999,1591772220
6816,19,Jits_Linear_5,147,9999,9999,9999,1592542324
6816,19,Jits_Linear_5,148,9999,9999,9999,1593312340
6816,19,Jits_Linear_5,149,9999,9999,9999,1594082364
6816,19,Jits_Linear_5,150,9999,9999,9999,1594862664
6816,19,Jits_Linear_5,151,9999,9999,9999,1595642972
6816,19,Jits_Linear_5,152,9999,9999,9999,1596422216
6816,19,Jits_Linear_5,153,9999,9999,9999,1597202512
6816,19,Jits_Linear_5,154,9999,9999,9999,1597982776
6816,19,Jits_Linear_5,155,9999,9999,9999,1598772352
6816,19,Jits_Linear_5,156,9999,9999,9999,1599562820
6816,19,Jits_Linear_5,157,9999,9999,9999,1600352320
6816,19,Jits_Linear_5,158,9999,9999,9999,1601142880
6816,19,Jits_Linear_5,159,9999,9999,9999,1601932392
6816,19,Jits_Linear_5,160,9999,9999,9999,1602732112
6816,19,Jits_Linear_5,161,9999,9999,9999,1603532856
6816,19,Jits_Linear_5,162,9999,9999,9999,1604332612
6816,19,Jits_Linear_5,163,9999,9999,9999,1605132380
6816,19,Jits_Linear_5,164,9999,9999,9999,1605932088
6816,19,Jits_Linear_5,165,9999,9999,9999,1606742124
6816,19,Jits_Linear_5,166,9999,9999,9999,1607552120
6816,19,Jits_Linear_5,167,9999,9999,9999,1608363068
6816,19,Jits_Linear_5,168,9999,9999,9999,1609182316
6816,19,Jits_Linear_5,169,9999,9999,9999,1609992292
6817,18,Jits_Linear_8,0,5,56,103,1620495880
6817,18,Jits_Linear_8,1,5,63,98,1620498980
6817,18,Jits_Linear_8,2,5,80,127,1620502100
6817,18,Jits_Linear_8,0,5,56,103,1621316112
6817,18,Jits_Linear_8,1,5,63,98,1621318988
6817,18,Jits_Linear_8,2,5,80,127,1621322112
6817,18,Jits_Linear_8,0,5,80,127,1622075828
6817,18,Jits_Linear_8,1,5,63,98,1622165888
6817,18,Jits_Linear_8,2,5,56,103,1622176084
6817,18,Jits_Linear_8,3,1,48,20,1622197264
6817,18,Jits_Linear_8,0,5,56,103,1622915532
6817,18,Jits_Linear_8,1,5,63,98,1622925652
6817,18,Jits_Linear_8,2,1,48,31,1623000764
6817,18,Jits_Linear_8,3,5,80,127,1623016076
6817,18,Jits_Linear_8,0,5,63,98,1623706080
6817,18,Jits_Linear_8,1,5,80,127,1623735608
6817,18,Jits_Linear_8,2,5,56,103,1623766332
6817,18,Jits_Linear_8,3,1,48,28,1623773952
6817,18,Jits_Linear_8,0,5,56,103,1624526136
6817,18,Jits_Linear_8,1,1,48,32,1624574292
6817,18,Jits_Linear_8,2,5,80,127,1624625504
6817,18,Jits_Linear_8,3,5,63,98,1624675840
6817,18,Jits_Linear_8,0,5,56,103,1625336244
6817,18,Jits_Linear_8,1,5,80,127,1625386324
6817,18,Jits_Linear_8,2,1,48,33,1625420012
6817,18,Jits_Linear_8,3,5,63,98,1625426404
6817,18,Jits_Linear_8,0,5,80,127,1626175896
6817,18,Jits_Linear_8,1,1,48,34,1626186580
6817,18,Jits_Linear_8,2,5,63,98,1626205416
6817,18,Jits_Linear_8,3,5,56,103,1626276292
6817,18,Jits_Linear_8,0,1,48,29,1626997136
6817,18,Jits_Linear_8,1,5,63,98,1627015516
6817,18,Jits_Linear_8,2,5,56,103,1627046240
6817,18,Jits_Linear_8,3,5,80,127,1627105940
6817,18,Jits_Linear_8,0,5,56,103,1627766056
6817,18,Jits_Linear_8,1,5,80,127,1627769196
6817,18,Jits_Linear_8,2,1,48,27,1627836456
6817,18,Jits_Linear_8,3,5,63,98,1627885848
6817,18,Jits_Linear_8,0,5,56,103,1628645832
6817,18,Jits_Linear_8,1,1,48,29,1628674804
6817,18,Jits_Linear_8,2,5,80,127,1628685788
6817,18,Jits_Linear_8,3,5,63,98,1628695908
6817,18,Jits_Linear_8,0,5,56,103,1629405520
6817,18,Jits_Linear_8,1,5,80,127,1629425980
6817,18,Jits_Linear_8,2,1,48,33,1629485692
6817,18,Jits_Linear_8,3,5,63,98,1629505944
6817,18,Jits_Linear_8,0,5,80,127,1630196072
6817,18,Jits_Linear_8,1,1,48,36,1630275872
6817,18,Jits_Linear_8,2,5,56,103,1630296348
6817,18,Jits_Linear_8,3,5,63,98,1630305792
6817,18,Jits_Linear_8,0,5,63,98,1630966104
6817,18,Jits_Linear_8,1,5,80,127,1631025476
6817,18,Jits_Linear_8,2,5,56,103,1631035972
6817,18,Jits_Linear_8,3,1,48,33,1631047036
6817,18,Jits_Linear_8,0,5,56,103,1631765884
6817,18,Jits_Linear_8,1,1,48,37,1631797848
6817,18,Jits_Linear_8,2,5,63,98,1631835632
6817,18,Jits_Linear_8,3,5,80,127,1631838924
6817,18,Jits_Linear_8,0,1,48,39,1632566732
6817,18,Jits_Linear_8,1,5,63,98,1632596352
6817,18,Jits_Linear_8,2,5,56,103,1632645580
6817,18,Jits_Linear_8,3,5,80,127,1632648872
6817,18,Jits_Linear_8,0,5,56,103,1633345828
6817,18,Jits_Linear_8,1,5,80,127,1633348820
6817,18,Jits_Linear_8,2,1,48,33,1633389104
6817,18,Jits_Linear_8,3,5,63,98,1633435952
6817,18,Jits_Linear_8,0,1,48,35,1634148472
6817,18,Jits_Linear_8,1,5,63,98,1634185584
6817,18,Jits_Linear_8,2,5,56,103,1634275632
6817,18,Jits_Linear_8,3,5,80,127,1634306428
6817,18,Jits_Linear_8,0,5,56,103,1634965872
6817,18,Jits_Linear_8,1,1,48,34,1635016564
6817,18,Jits_Linear_8,2,5,63,98,1635066340
6817,18,Jits_Linear_8,3,5,80,127,1635096040
6817,18,Jits_Linear_8,0,5,63,98,1635775836
6817,18,Jits_Linear_8,1,5,56,103,1635785960
6817,18,Jits_Linear_8,2,1,48,37,1635808708
6817,18,Jits_Linear_8,3,5,80,127,1635876184
6817,18,Jits_Linear_8,0,5,63,98,1636575748
6817,18,Jits_Linear_8,1,1,48,30,1636587108
6817,18,Jits_Linear_8,2,5,56,103,1636655560
6817,18,Jits_Linear_8,3,5,80,127,1636658704
6817,18,Jits_Linear_8,0,5,80,127,1637315864
6817,18,Jits_Linear_8,1,5,63,98,1637336620
6817,18,Jits_Linear_8,2,1,48,30,1637391080
6817,18,Jits_Linear_8,3,5,56,103,1637395760
6817,18,Jits_Linear_8,0,5,56,103,1638136232
6817,18,Jits_Linear_8,1,5,63,98,1638155572
6817,18,Jits_Linear_8,2,5,80,127,1638158884
6817,18,Jits_Linear_8,3,1,48,38,1638159852
6817,18,Jits_Linear_8,0,5,63,98,1638855980
6817,18,Jits_Linear_8,1,5,80,127,1638935952
6817,18,Jits_Linear_8,2,5,56,103,1638946148
6817,18,Jits_Linear_8,3,1,48,37,1638966352
6817,18,Jits_Linear_8,0,5,63,98,1639655804
6817,18,Jits_Linear_8,1,5,56,103,1639676488
6817,18,Jits_Linear_8,2,5,80,127,1639725592
6817,18,Jits_Linear_8,3,1,48,30,1639779876
6817,18,Jits_Linear_8,0,5,80,127,1640436000
6817,18,Jits_Linear_8,1,5,63,98,1640475968
6817,18,Jits_Linear_8,2,5,56,103,1640495680
6817,18,Jits_Linear_8,3,1,48,28,1640503828
6817,18,Jits_Linear_8,0,5,56,103,1641246136
6817,18,Jits_Linear_8,1,5,63,98,1641256704
6817,18,Jits_Linear_8,2,1,48,30,1641258568
6817,18,Jits_Linear_8,3,5,80,127,1641275812
6817,18,Jits_Linear_8,0,5,56,103,1641945632
6817,18,Jits_Linear_8,1,1,48,27,1641970852
6817,18,Jits_Linear_8,2,5,63,98,1642035488
6817,18,Jits_Linear_8,3,5,80,127,1642095864
6817,18,Jits_Linear_8,0,1,48,27,1642736596
6817,18,Jits_Linear_8,1,5,80,127,1642746364
6817,18,Jits_Linear_8,2,5,56,103,1642755664
6817,18,Jits_Linear_8,3,5,63,98,1642826120
6817,18,Jits_Linear_8,0,1,48,32,1643529460
6817,18,Jits_Linear_8,1,5,63,98,1643545992
6817,18,Jits_Linear_8,2,5,80,127,1643635968
6817,18,Jits_Linear_8,3,5,56,103,1643646608
6817,18,Jits_Linear_8,0,5,63,98,1644246464
6817,18,Jits_Linear_8,1,5,80,127,1644295620
6817,18,Jits_Linear_8,2,5,56,103,1644355812
6817,18,Jits_Linear_8,3,1,48,33,1644367400
6817,18,Jits_Linear_8,0,5,56,103,1645035800
6817,18,Jits_Linear_8,1,5,80,127,1645086104
6817,18,Jits_Linear_8,2,5,63,98,1645105516
6817,18,Jits_Linear_8,3,1,48,36,1645119576
6817,18,Jits_Linear_8,0,5,56,103,1645766040
6817,18,Jits_Linear_8,1,5,80,127,1645826580
6817,18,Jits_Linear_8,2,1,48,33,1645853540
6817,18,Jits_Linear_8,3,5,63,98,1645896428
6817,18,Jits_Linear_8,0,5,56,103,1646525796
6817,18,Jits_Linear_8,1,5,80,127,1646555624
6817,18,Jits_Linear_8,2,1,48,34,1646583236
6817,18,Jits_Linear_8,3,5,63,98,1646586488
6817,18,Jits_Linear_8,0,1,48,36,1647310464
6817,18,Jits_Linear_8,1,5,56,103,1647325556
6817,18,Jits_Linear_8,2,5,80,127,1647346164
6817,18,Jits_Linear_8,3,5,63,98,1647405460
6817,18,Jits_Linear_8,0,1,48,35,1648028332
6817,18,Jits_Linear_8,1,5,80,127,1648166376
6817,18,Jits_Linear_8,2,5,56,103,1648175452
6817,18,Jits_Linear_8,3,5,63,98,1648185648
6817,18,Jits_Linear_8,0,1,48,29,1648856120
6817,18,Jits_Linear_8,1,5,56,103,1648886260
6817,18,Jits_Linear_8,2,5,80,127,1648926152
6817,18,Jits_Linear_8,3,5,63,98,1648955736
6817,18,Jits_Linear_8,0,5,56,103,1649606084
6817,18,Jits_Linear_8,1,5,63,98,1649635764
6817,18,Jits_Linear_8,2,1,48,32,1649639488
6817,18,Jits_Linear_8,3,5,80,127,1649675772
6817,18,Jits_Linear_8,0,5,80,127,1650306336
6817,18,Jits_Linear_8,1,5,63,98,1650355568
6817,18,Jits_Linear_8,2,5,56,103,1650376324
6817,18,Jits_Linear_8,3,1,48,29,1650416380
6817,18,Jits_Linear_8,0,5,56,103,1651085572
6817,18,Jits_Linear_8,1,5,80,127,1651156452
6817,18,Jits_Linear_8,2,1,48,25,1651157420
6817,18,Jits_Linear_8,3,5,63,98,1651215664
6817,18,Jits_Linear_8,0,5,80,127,1651826160
6817,18,Jits_Linear_8,1,1,48,20,1651904356
6817,18,Jits_Linear_8,2,5,63,98,1651916436
6817,18,Jits_Linear_8,3,5,56,103,1651935552
6817,18,Jits_Linear_8,0,5,63,98,1652585776
6817,18,Jits_Linear_8,1,1,48,20,1652602672
6817,18,Jits_Linear_8,2,5,56,103,1652606452
6817,18,Jits_Linear_8,3,5,80,127,1652646392
6817,18,Jits_Linear_8,0,1,48,32,1653247912
6817,18,Jits_Linear_8,1,5,80,127,1653286476
6817,18,Jits_Linear_8,2,5,63,98,1653305592
6817,18,Jits_Linear_8,3,5,56,103,1653385520
6817,18,Jits_Linear_8,0,1,48,14,1653963740
6817,18,Jits_Linear_8,1,5,63,98,1654016380
6817,18,Jits_Linear_8,2,5,56,103,1654125928
6817,18,Jits_Linear_8,3,5,80,127,1654129072
6817,18,Jits_Linear_8,0,1,48,17,1654564436
6817,18,Jits_Linear_8,1,5,63,98,1654776400
6817,18,Jits_Linear_8,2,5,56,103,1654786524
6817,18,Jits_Linear_8,3,5,80,127,1654789444
6817,18,Jits_Linear_8,0,1,48,26,1655289072
6817,18,Jits_Linear_8,1,5,56,103,1655495976
6817,18,Jits_Linear_8,2,5,80,127,1655615808
6817,18,Jits_Linear_8,3,5,63,98,1655655744
6817,18,Jits_Linear_8,4,1,48,32,1655920332
6817,18,Jits_Linear_8,0,5,56,103,1656245608
6817,18,Jits_Linear_8,1,5,80,127,1656325556
6817,18,Jits_Linear_8,2,5,63,98,1656345964
6817,18,Jits_Linear_8,3,1,48,36,1656636328
6817,18,Jits_Linear_8,0,5,56,103,1656975704
6817,18,Jits_Linear_8,1,5,63,98,1657086208
6817,18,Jits_Linear_8,2,5,80,127,1657089508
6817,18,Jits_Linear_8,3,1,48,44,1657353740
6817,18,Jits_Linear_8,0,5,56,103,1657735532
6817,18,Jits_Linear_8,1,5,80,127,1657766332
6817,18,Jits_Linear_8,2,5,63,98,1657785744
6817,18,Jits_Linear_8,3,1,48,46,1658082324
6817,18,Jits_Linear_8,0,5,63,98,1658446220
6817,18,Jits_Linear_8,1,5,56,103,1658456344
6817,18,Jits_Linear_8,2,5,80,127,1658465568
6817,18,Jits_Linear_8,3,1,48,40,1658805004
6817,18,Jits_Linear_8,0,5,80,127,1659155768
6817,18,Jits_Linear_8,1,5,56,103,1659206120
6817,18,Jits_Linear_8,2,5,63,98,1659246056
6817,18,Jits_Linear_8,3,1,48,42,1659504664
6817,18,Jits_Linear_8,0,5,80,127,1659896248
6817,18,Jits_Linear_8,1,5,63,98,1659915976
6817,18,Jits_Linear_8,2,5,56,103,1659965880
6817,18,Jits_Linear_8,3,1,48,40,1660249500
6817,18,Jits_Linear_8,0,5,80,127,1660626332
6817,18,Jits_Linear_8,1,5,56,103,1660656084
6817,18,Jits_Linear_8,2,5,63,98,1660725568
6817,18,Jits_Linear_8,3,1,48,40,1660999224
6817,18,Jits_Linear_8,0,5,56,103,1661405660
6817,18,Jits_Linear_8,1,5,80,127,1661415780
6817,18,Jits_Linear_8,2,5,63,98,1661455596
6817,18,Jits_Linear_8,0,1,48,30,1661773684
6817,18,Jits_Linear_8,1,5,56,103,1662036196
6817,18,Jits_Linear_8,2,5,63,98,1662055904
6817,18,Jits_Linear_8,3,5,80,127,1662125436
6817,18,Jits_Linear_8,0,1,48,39,1662505572
6817,18,Jits_Linear_8,1,5,63,98,1662775636
6817,18,Jits_Linear_8,2,5,80,127,1662836032
6817,18,Jits_Linear_8,3,5,56,103,1662855592
6817,18,Jits_Linear_8,0,1,48,44,1663194580
6817,18,Jits_Linear_8,1,5,80,127,1663486340
6817,18,Jits_Linear_8,2,5,56,103,1663516116
6817,18,Jits_Linear_8,3,5,63,98,1663545644
6817,18,Jits_Linear_8,0,1,48,37,1663904280
6817,18,Jits_Linear_8,1,5,56,103,1664196116
6817,18,Jits_Linear_8,2,5,63,98,1664256360
6817,18,Jits_Linear_8,3,5,80,127,1664315952
6817,18,Jits_Linear_8,0,1,48,37,1664613832
6817,18,Jits_Linear_8,1,5,80,127,1664926200
6817,18,Jits_Linear_8,2,5,56,103,1664945464
6817,18,Jits_Linear_8,3,5,63,98,1665016040
6817,18,Jits_Linear_8,4,1,48,37,1665275320
6817,18,Jits_Linear_8,0,5,80,127,1665635820
6817,18,Jits_Linear_8,1,5,63,98,1665656132
6817,18,Jits_Linear_8,2,5,56,103,1665686108
6817,18,Jits_Linear_8,0,1,48,33,1666052228
6817,18,Jits_Linear_8,1,5,80,127,1666325992
6817,18,Jits_Linear_8,2,5,63,98,1666346304
6817,18,Jits_Linear_8,3,5,56,103,1666405648
6817,18,Jits_Linear_8,0,1,48,36,1666786736
6817,18,Jits_Linear_8,1,5,80,127,1667026224
6817,18,Jits_Linear_8,2,5,56,103,1667125676
6817,18,Jits_Linear_8,3,5,63,98,1667156400
6817,18,Jits_Linear_8,0,1,48,37,1667553368
6817,18,Jits_Linear_8,1,5,63,98,1667715400
6817,18,Jits_Linear_8,2,5,80,127,1667765608
6817,18,Jits_Linear_8,3,5,56,103,1667786212
6817,18,Jits_Linear_8,0,1,48,39,1668305856
6817,18,Jits_Linear_8,1,5,80,127,1668455964
6817,18,Jits_Linear_8,2,5,56,103,1668485492
6817,18,Jits_Linear_8,3,5,63,98,1668488636
6817,18,Jits_Linear_8,0,5,63,98,1669186136
6817,18,Jits_Linear_8,1,5,56,103,1669225928
6817,18,Jits_Linear_8,2,5,80,127,1669246384
6817,18,Jits_Linear_8,3,1,48,26,1669248980
6817,18,Jits_Linear_8,0,5,80,127,1669825988
6817,18,Jits_Linear_8,1,5,63,98,1669905888
6817,18,Jits_Linear_8,2,5,56,103,1669945676
6817,18,Jits_Linear_8,3,1,48,29,1670005360
6817,18,Jits_Linear_8,0,5,63,98,1670535484
6817,18,Jits_Linear_8,1,5,80,127,1670616332
6817,18,Jits_Linear_8,2,5,56,103,1670636040
6817,18,Jits_Linear_8,3,1,48,32,1670749980
6817,18,Jits_Linear_8,0,5,56,103,1671265500
6817,18,Jits_Linear_8,1,5,63,98,1671276068
6817,18,Jits_Linear_8,2,5,80,127,1671316080
6817,18,Jits_Linear_8,3,1,48,37,1671489584
6817,18,Jits_Linear_8,0,5,56,103,1671876068
6817,18,Jits_Linear_8,1,5,80,127,1671879136
6817,18,Jits_Linear_8,2,5,63,98,1672016120
6817,18,Jits_Linear_8,3,1,48,35,1672250820
6817,18,Jits_Linear_8,0,5,56,103,1672556028
6817,18,Jits_Linear_8,1,5,63,98,1672645940
6817,18,Jits_Linear_8,2,5,80,127,1672715796
6817,18,Jits_Linear_8,0,5,63,98,1673315976
6817,18,Jits_Linear_8,1,5,80,127,1673319268
6817,18,Jits_Linear_8,2,5,56,103,1673376068
6817,18,Jits_Linear_8,3,1,48,20,1673558036
6817,18,Jits_Linear_8,0,5,80,127,1674035552
6817,18,Jits_Linear_8,1,5,56,103,1674056088
6817,18,Jits_Linear_8,2,5,63,98,1674066432
6817,18,Jits_Linear_8,3,1,48,24,1674281432
6817,18,Jits_Linear_8,0,5,56,103,1674626348
6817,18,Jits_Linear_8,1,5,63,98,1674635572
6817,18,Jits_Linear_8,2,5,80,127,1674706300
6817,18,Jits_Linear_8,0,5,80,127,1675306344
6817,18,Jits_Linear_8,1,5,56,103,1675355500
6817,18,Jits_Linear_8,2,5,63,98,1675405776
6817,18,Jits_Linear_8,0,1,48,37,1675982016
6817,18,Jits_Linear_8,1,5,56,103,1676066136
6817,18,Jits_Linear_8,2,5,63,98,1676076544
6817,18,Jits_Linear_8,3,5,80,127,1676116256
6817,18,Jits_Linear_8,0,5,56,103,1676685920
6817,18,Jits_Linear_8,1,5,63,98,1676725712
6817,18,Jits_Linear_8,2,1,48,39,1676749360
6817,18,Jits_Linear_8,3,5,80,127,1676775908
6817,18,Jits_Linear_8,0,5,80,127,1677325888
6817,18,Jits_Linear_8,1,5,56,103,1677376016
6817,18,Jits_Linear_8,2,5,63,98,1677396328
6817,18,Jits_Linear_8,3,1,48,32,1677448444
6817,18,Jits_Linear_8,0,5,80,127,1678005908
6817,18,Jits_Linear_8,1,5,63,98,1678066004
6817,18,Jits_Linear_8,2,5,56,103,1678146044
6817,18,Jits_Linear_8,3,1,48,37,1678150212
6817,18,Jits_Linear_8,0,5,80,127,1678655760
6817,18,Jits_Linear_8,1,5,56,103,1678695924
6817,18,Jits_Linear_8,2,5,63,98,1678716308
6817,18,Jits_Linear_8,3,1,48,33,1678889956
6817,18,Jits_Linear_8,0,5,56,103,1679375664
6817,18,Jits_Linear_8,1,5,80,127,1679386084
6817,18,Jits_Linear_8,2,5,63,98,1679425872
6817,18,Jits_Linear_8,3,1,48,29,1679655708
6817,18,Jits_Linear_8,0,5,56,103,1680105808
6817,18,Jits_Linear_8,1,5,63,98,1680145920
6817,18,Jits_Linear_8,2,5,80,127,1680149136
6817,18,Jits_Linear_8,0,1,48,19,1680405968
6817,18,Jits_Linear_8,1,5,63,98,1680655724
6817,18,Jits_Linear_8,2,5,80,127,1680695960
6817,18,Jits_Linear_8,3,5,56,103,1680766316
6817,18,Jits_Linear_8,0,5,63,98,1681305852
6817,18,Jits_Linear_8,1,5,56,103,1681385876
6817,18,Jits_Linear_8,2,5,80,127,1681446216
6817,18,Jits_Linear_8,0,5,80,127,1681975876
6817,18,Jits_Linear_8,1,1,48,46,1682001768
6817,18,Jits_Linear_8,2,5,63,98,1682025928
6817,18,Jits_Linear_8,3,5,56,103,1682055676
6817,18,Jits_Linear_8,0,5,56,103,1682626000
6817,18,Jits_Linear_8,1,5,63,98,1682675984
6817,18,Jits_Linear_8,2,5,80,127,1682686180
6817,18,Jits_Linear_8,3,1,48,34,1682747836
6817,18,Jits_Linear_8,0,5,56,103,1683295704
6817,18,Jits_Linear_8,1,5,63,98,1683406072
6817,18,Jits_Linear_8,2,5,80,127,1683425632
6817,18,Jits_Linear_8,3,1,48,32,1683494036
6817,18,Jits_Linear_8,0,5,63,98,1683945840
6817,18,Jits_Linear_8,1,5,80,127,1683996144
6817,18,Jits_Linear_8,2,5,56,103,1684086200
6817,18,Jits_Linear_8,3,1,48,34,1684194128
6817,18,Jits_Linear_8,0,5,63,98,1684585788
6817,18,Jits_Linear_8,1,5,80,127,1684615464
6817,18,Jits_Linear_8,2,5,56,103,1684705820
6817,18,Jits_Linear_8,3,1,48,40,1684905996
6817,18,Jits_Linear_8,0,5,63,98,1685236048
6817,18,Jits_Linear_8,1,5,56,103,1685246392
6817,18,Jits_Linear_8,2,5,80,127,1685345840
6817,18,Jits_Linear_8,0,1,48,35,1685754148
6817,18,Jits_Linear_8,1,5,63,98,1685985616
6817,18,Jits_Linear_8,2,5,80,127,1686016416
6817,18,Jits_Linear_8,3,5,56,103,1686045968
6817,18,Jits_Linear_8,0,1,48,33,1686502352
6817,18,Jits_Linear_8,1,5,80,127,1686646176
6817,18,Jits_Linear_8,2,5,63,98,1686656376
6817,18,Jits_Linear_8,3,5,56,103,1686686048
6817,18,Jits_Linear_8,0,5,80,127,1687185812
6817,18,Jits_Linear_8,1,5,63,98,1687206196
6817,18,Jits_Linear_8,2,1,48,28,1687227676
6817,18,Jits_Linear_8,3,5,56,103,1687256540
6817,18,Jits_Linear_8,0,5,63,98,1687855592
6817,18,Jits_Linear_8,1,5,80,127,1687915984
6817,18,Jits_Linear_8,2,1,48,37,1687922244
6817,18,Jits_Linear_8,3,5,56,103,1687936584
6817,18,Jits_Linear_8,0,5,63,98,1688455808
6817,18,Jits_Linear_8,1,5,56,103,1688505716
6817,18,Jits_Linear_8,2,5,80,127,1688515984
6817,18,Jits_Linear_8,3,1,48,38,1688662804
6817,18,Jits_Linear_8,0,5,56,103,1689126396
6817,18,Jits_Linear_8,1,5,80,127,1689135468
6817,18,Jits_Linear_8,2,5,63,98,1689235940
6817,18,Jits_Linear_8,3,1,48,30,1689382092
6817,18,Jits_Linear_8,0,5,80,127,1689726404
6817,18,Jits_Linear_8,1,5,63,98,1689735628
6817,18,Jits_Linear_8,2,5,56,103,1689886092
6817,18,Jits_Linear_8,3,1,48,29,1690080392
6817,18,Jits_Linear_8,0,5,63,98,1690366260
6817,18,Jits_Linear_8,1,5,80,127,1690406372
6817,18,Jits_Linear_8,2,5,56,103,1690486092
6817,18,Jits_Linear_8,0,1,48,26,1690828388
6817,18,Jits_Linear_8,1,5,56,103,1690985840
6817,18,Jits_Linear_8,2,5,80,127,1691086092
6817,18,Jits_Linear_8,3,5,63,98,1691105652
6817,18,Jits_Linear_8,0,1,48,23,1691534204
6817,18,Jits_Linear_8,1,5,80,127,1691675920
6817,18,Jits_Linear_8,2,5,56,103,1691686192
6817,18,Jits_Linear_8,3,5,63,98,1691776400
6817,18,Jits_Linear_8,0,5,56,103,1692305680
6817,18,Jits_Linear_8,1,5,63,98,1692326364
6817,18,Jits_Linear_8,2,1,48,26,1692347992
6817,18,Jits_Linear_8,3,5,80,127,1692406004
6817,18,Jits_Linear_8,0,5,63,98,1692876020
6817,18,Jits_Linear_8,1,5,56,103,1692966328
6817,18,Jits_Linear_8,2,5,80,127,1692969324
6817,18,Jits_Linear_8,3,1,48,32,1692977396
6817,18,Jits_Linear_8,0,5,56,103,1693526376
6817,18,Jits_Linear_8,1,5,80,127,1693585796
6817,18,Jits_Linear_8,2,5,63,98,1693596064
6817,18,Jits_Linear_8,3,1,48,29,1693611320
6817,18,Jits_Linear_8,0,5,80,127,1694196136
6817,18,Jits_Linear_8,1,5,56,103,1694206480
6817,18,Jits_Linear_8,2,5,63,98,1694209548
6817,18,Jits_Linear_8,0,5,56,103,1694775520
6817,18,Jits_Linear_8,1,5,80,127,1694786012
6817,18,Jits_Linear_8,2,5,63,98,1694806548
6817,18,Jits_Linear_8,0,5,63,98,1695365588
6817,18,Jits_Linear_8,1,5,80,127,1695425760
6817,18,Jits_Linear_8,2,5,56,103,1695475960
6817,18,Jits_Linear_8,0,1,48,36,1696037384
6817,18,Jits_Linear_8,1,5,63,98,1696065884
6817,18,Jits_Linear_8,2,5,56,103,1696076004
6817,18,Jits_Linear_8,3,5,80,127,1696126504
6817,18,Jits_Linear_8,0,5,63,98,1696575904
6817,18,Jits_Linear_8,1,5,80,127,1696596440
6817,18,Jits_Linear_8,2,5,56,103,1696605516
6817,18,Jits_Linear_8,3,1,48,40,1696713280
6817,18,Jits_Linear_8,0,5,63,98,1697186156
6817,18,Jits_Linear_8,1,5,80,127,1697189520
6817,18,Jits_Linear_8,2,5,56,103,1697226016
6817,18,Jits_Linear_8,3,1,48,31,1697405288
6817,18,Jits_Linear_8,0,5,63,98,1697866100
6817,18,Jits_Linear_8,1,5,80,127,1697895776
6817,18,Jits_Linear_8,2,5,56,103,1697905972
6817,18,Jits_Linear_8,3,1,48,34,1698006560
6817,18,Jits_Linear_8,0,5,56,103,1698426312
6817,18,Jits_Linear_8,1,5,80,127,1698455840
6817,18,Jits_Linear_8,2,5,63,98,1698485516
6817,18,Jits_Linear_8,3,1,48,36,1698628372
6817,18,Jits_Linear_8,0,5,63,98,1699125544
6817,18,Jits_Linear_8,1,5,56,103,1699165480
6817,18,Jits_Linear_8,2,5,80,127,1699168548
6817,18,Jits_Linear_8,3,1,48,31,1699303060
6817,18,Jits_Linear_8,0,5,80,127,1699626484
6817,18,Jits_Linear_8,1,5,56,103,1699706356
6817,18,Jits_Linear_8,2,5,63,98,1699756484
6817,18,Jits_Linear_8,3,1,48,32,1699871100
6817,18,Jits_Linear_8,0,5,80,127,1700205892
6817,18,Jits_Linear_8,1,5,56,103,1700226352
6817,18,Jits_Linear_8,2,5,63,98,1700315512
6817,18,Jits_Linear_8,3,1,48,29,1700498528
6817,18,Jits_Linear_8,0,5,80,127,1700845904
6817,18,Jits_Linear_8,1,5,63,98,1700885868
6817,18,Jits_Linear_8,2,5,56,103,1700925808
6817,18,Jits_Linear_8,3,1,48,29,1701180280
6817,18,Jits_Linear_8,0,5,63,98,1701416340
6817,18,Jits_Linear_8,1,5,80,127,1701475836
6817,18,Jits_Linear_8,2,5,56,103,1701506412
6817,18,Jits_Linear_8,0,1,48,36,1701877852
6817,18,Jits_Linear_8,1,5,56,103,1702016496
6817,18,Jits_Linear_8,2,5,80,127,1702046172
6817,18,Jits_Linear_8,3,5,63,98,1702136376
6817,18,Jits_Linear_8,0,1,48,26,1702561548
6817,18,Jits_Linear_8,1,5,56,103,1702616504
6817,18,Jits_Linear_8,2,5,80,127,1702725904
6817,18,Jits_Linear_8,3,5,63,98,1702755804
6817,18,Jits_Linear_8,0,1,48,33,1703214852
6817,18,Jits_Linear_8,1,5,56,103,1703256388
6817,18,Jits_Linear_8,2,5,63,98,1703315792
6817,18,Jits_Linear_8,3,5,80,127,1703345464
6817,18,Jits_Linear_8,0,1,48,34,1703807884
6817,18,Jits_Linear_8,1,5,56,103,1703815404
6817,18,Jits_Linear_8,2,5,63,98,1703886432
6817,18,Jits_Linear_8,3,5,80,127,1703905608
6817,18,Jits_Linear_8,0,5,80,127,1704375552
6817,18,Jits_Linear_8,1,1,48,32,1704380692
6817,18,Jits_Linear_8,2,5,63,98,1704396304
6817,18,Jits_Linear_8,3,5,56,103,1704446432
6817,18,Jits_Linear_8,0,5,63,98,1704975804
6817,18,Jits_Linear_8,1,5,80,127,1704986152
6817,18,Jits_Linear_8,2,1,48,26,1705030396
6817,18,Jits_Linear_8,3,5,56,103,1705036272
6817,18,Jits_Linear_8,0,5,63,98,1705556240
6817,18,Jits_Linear_8,1,1,48,20,1705611652
6817,18,Jits_Linear_8,2,5,80,127,1705625920
6817,18,Jits_Linear_8,3,5,56,103,1705645332
6817,18,Jits_Linear_8,0,5,63,98,1706165600
6817,18,Jits_Linear_8,1,5,80,127,1706168820
6817,18,Jits_Linear_8,2,1,48,32,1706187672
6817,18,Jits_Linear_8,3,5,56,103,1706236248
6817,18,Jits_Linear_8,0,5,80,127,1706696204
6817,18,Jits_Linear_8,1,5,56,103,1706715468
6817,18,Jits_Linear_8,2,5,63,98,1706725740
6817,18,Jits_Linear_8,3,1,48,32,1706770536
6817,18,Jits_Linear_8,0,5,56,103,1707296308
6817,18,Jits_Linear_8,1,1,48,19,1707328052
6817,18,Jits_Linear_8,2,5,63,98,1707386360
6817,18,Jits_Linear_8,3,5,80,127,1707389652
6817,18,Jits_Linear_8,0,5,80,127,1707846112
6817,18,Jits_Linear_8,1,5,56,103,1707856380
6817,18,Jits_Linear_8,2,5,63,98,1707875572
6817,18,Jits_Linear_8,3,1,48,29,1707886480
6817,18,Jits_Linear_8,0,5,63,98,1708416368
6817,18,Jits_Linear_8,1,1,48,35,1708446312
6817,18,Jits_Linear_8,2,5,80,127,1708475632
6817,18,Jits_Linear_8,3,5,56,103,1708486200
6817,18,Jits_Linear_8,0,1,48,29,1709013024
6817,18,Jits_Linear_8,1,5,63,98,1709056288
6817,18,Jits_Linear_8,2,5,80,127,1709086436
6817,18,Jits_Linear_8,3,5,56,103,1709126208
6817,18,Jits_Linear_8,0,5,56,103,1709615564
6817,18,Jits_Linear_8,1,1,48,29,1709625608
6817,18,Jits_Linear_8,2,5,80,127,1709627024
6817,18,Jits_Linear_8,3,5,63,98,1709665540
6817,18,Jits_Linear_8,0,5,80,127,1710146192
6817,18,Jits_Linear_8,1,1,48,34,1710193976
6817,18,Jits_Linear_8,2,5,56,103,1710225984
6817,18,Jits_Linear_8,3,5,63,98,1710236108
6817,18,Jits_Linear_8,0,5,80,127,1710756392
6817,18,Jits_Linear_8,1,1,48,33,1710780716
6817,18,Jits_Linear_8,2,5,56,103,1710836336
6817,18,Jits_Linear_8,3,5,63,98,1710846532
6817,18,Jits_Linear_8,0,5,80,127,1711276472
6817,18,Jits_Linear_8,1,1,48,34,1711325100
6817,18,Jits_Linear_8,2,5,56,103,1711326520
6817,18,Jits_Linear_8,3,5,63,98,1711375700
6817,18,Jits_Linear_8,0,1,48,30,1711870084
6817,18,Jits_Linear_8,1,5,56,103,1711896204
6817,18,Jits_Linear_8,2,5,63,98,1711899052
6817,18,Jits_Linear_8,3,5,80,127,1711946332
6817,18,Jits_Linear_8,0,1,48,34,1712423192
6817,18,Jits_Linear_8,1,5,56,103,1712475600
6817,18,Jits_Linear_8,2,5,63,98,1712506176
6817,18,Jits_Linear_8,3,5,80,127,1712515532
6817,18,Jits_Linear_8,0,5,63,98,1712945544
6817,18,Jits_Linear_8,1,1,48,33,1712994144
6817,18,Jits_Linear_8,2,5,56,103,1713016268
6817,18,Jits_Linear_8,3,5,80,127,1713066396
6817,18,Jits_Linear_8,0,5,63,98,1713536328
6817,18,Jits_Linear_8,1,5,56,103,1713545700
6817,18,Jits_Linear_8,2,5,80,127,1713548692
6817,18,Jits_Linear_8,3,1,48,35,1713568520
6817,18,Jits_Linear_8,0,5,80,127,1714036364
6817,18,Jits_Linear_8,1,5,56,103,1714095560
6817,18,Jits_Linear_8,2,1,48,36,1714097576
6817,18,Jits_Linear_8,3,5,63,98,1714185488
6817,18,Jits_Linear_8,0,5,80,127,1714586248
6817,18,Jits_Linear_8,1,1,48,26,1714646688
6817,18,Jits_Linear_8,2,5,56,103,1714686268
6817,18,Jits_Linear_8,3,5,63,98,1714726232
6817,18,Jits_Linear_8,0,1,48,27,1715153700
6817,18,Jits_Linear_8,1,5,56,103,1715186028
6817,18,Jits_Linear_8,2,5,63,98,1715205592
6817,18,Jits_Linear_8,3,5,80,127,1715245336
6817,18,Jits_Linear_8,0,1,48,27,1715689652
6817,18,Jits_Linear_8,1,5,63,98,1715706164
6817,18,Jits_Linear_8,2,5,56,103,1715725676
6817,18,Jits_Linear_8,3,5,80,127,1715826132
6817,18,Jits_Linear_8,0,1,48,23,1716225148
6817,18,Jits_Linear_8,1,5,63,98,1716235532
6817,18,Jits_Linear_8,2,5,80,127,1716346184
6817,18,Jits_Linear_8,3,5,56,103,1716376008
6817,18,Jits_Linear_8,0,1,48,27,1716749344
6817,18,Jits_Linear_8,1,5,56,103,1716795896
6817,18,Jits_Linear_8,2,5,63,98,1716825500
6817,18,Jits_Linear_8,3,5,80,127,1716875760
6817,18,Jits_Linear_8,0,1,48,29,1717281976
6817,18,Jits_Linear_8,1,5,63,98,1717305684
6817,18,Jits_Linear_8,2,5,56,103,1717336408
6817,18,Jits_Linear_8,3,5,80,127,1717385696
6817,18,Jits_Linear_8,0,1,48,33,1717812360
6817,18,Jits_Linear_8,1,5,56,103,1717876228
6817,18,Jits_Linear_8,2,5,63,98,1717895420
6817,18,Jits_Linear_8,3,5,80,127,1717976392
6817,18,Jits_Linear_8,0,1,48,29,1718380292
6817,18,Jits_Linear_8,1,5,63,98,1718386168
6817,18,Jits_Linear_8,2,5,56,103,1718445364
6817,18,Jits_Linear_8,3,5,80,127,1718477488
6817,18,Jits_Linear_8,0,1,48,28,1718884920
6817,18,Jits_Linear_8,1,5,56,103,1718965484
6817,18,Jits_Linear_8,2,5,80,127,1719026236
6817,18,Jits_Linear_8,3,5,63,98,1719066048
6817,18,Jits_Linear_8,0,1,48,31,1719460412
6817,18,Jits_Linear_8,1,5,63,98,1719475504
6817,18,Jits_Linear_8,2,5,56,103,1719536116
6817,18,Jits_Linear_8,3,5,80,127,1719605736
6817,18,Jits_Linear_8,0,1,48,31,1719992000
6817,18,Jits_Linear_8,1,5,56,103,1720085940
6817,18,Jits_Linear_8,2,5,63,98,1720096196
6817,18,Jits_Linear_8,3,5,80,127,1720099336
6817,18,Jits_Linear_8,0,1,48,33,1720494900
6817,18,Jits_Linear_8,1,5,63,98,1720555912
6817,18,Jits_Linear_8,2,5,56,103,1720616312
6817,18,Jits_Linear_8,3,5,80,127,1720619456
6817,18,Jits_Linear_8,0,1,48,33,1721048212
6817,18,Jits_Linear_8,1,5,63,98,1721065916
6817,18,Jits_Linear_8,2,5,80,127,1721095592
6817,18,Jits_Linear_8,3,5,56,103,1721116000
6817,18,Jits_Linear_8,0,1,48,30,1721576348
6817,18,Jits_Linear_8,1,5,56,103,1721596232
6817,18,Jits_Linear_8,2,5,63,98,1721645412
6817,18,Jits_Linear_8,3,5,80,127,1721726388
6817,18,Jits_Linear_8,0,5,80,127,1722096064
6817,18,Jits_Linear_8,1,1,48,33,1722134368
6817,18,Jits_Linear_8,2,5,63,98,1722135948
6817,18,Jits_Linear_8,3,5,56,103,1722156336
6817,18,Jits_Linear_8,0,1,48,35,1722677932
6817,18,Jits_Linear_8,1,5,56,103,1722685900
6817,18,Jits_Linear_8,2,5,80,127,1722696096
6817,18,Jits_Linear_8,3,5,63,98,1722715436
6817,18,Jits_Linear_8,0,5,56,103,1723185516
6817,18,Jits_Linear_8,1,1,48,31,1723228116
6817,18,Jits_Linear_8,2,5,63,98,1723235936
6817,18,Jits_Linear_8,3,5,80,127,1723266436
6817,18,Jits_Linear_8,0,5,56,103,1723655444
6817,18,Jits_Linear_8,1,5,63,98,1723666108
6817,18,Jits_Linear_8,2,5,80,127,1723715940
6817,18,Jits_Linear_8,3,1,48,26,1723786488
6817,18,Jits_Linear_8,0,5,56,103,1724165464
6817,18,Jits_Linear_8,1,5,80,127,1724168928
6817,18,Jits_Linear_8,2,1,48,32,1724287204
6817,18,Jits_Linear_8,3,5,63,98,1724326184
6817,18,Jits_Linear_8,0,5,63,98,1724695888
6817,18,Jits_Linear_8,1,5,56,103,1724765424
6817,18,Jits_Linear_8,2,5,80,127,1724805364
6817,18,Jits_Linear_8,3,1,48,32,1724823848
6817,18,Jits_Linear_8,0,5,63,98,1725245916
6817,18,Jits_Linear_8,1,1,48,35,1725305828
6817,18,Jits_Linear_8,2,5,56,103,1725335968
6817,18,Jits_Linear_8,3,5,80,127,1725338888
6817,18,Jits_Linear_8,0,5,56,103,1725736296
6817,18,Jits_Linear_8,1,1,48,32,1725817412
6817,18,Jits_Linear_8,2,5,63,98,1725826580
6817,18,Jits_Linear_8,3,5,80,127,1725835728
6817,18,Jits_Linear_8,0,5,56,103,1726215516
6817,18,Jits_Linear_8,1,5,63,98,1726265720
6817,18,Jits_Linear_8,2,5,80,127,1726296296
6817,18,Jits_Linear_8,3,1,48,29,1726368336
6817,18,Jits_Linear_8,0,5,63,98,1726796124
6817,18,Jits_Linear_8,1,5,80,127,1726806400
6817,18,Jits_Linear_8,2,5,56,103,1726865964
6817,18,Jits_Linear_8,3,1,48,28,1726902040
6817,18,Jits_Linear_8,0,5,63,98,1727215988
6817,18,Jits_Linear_8,1,5,80,127,1727276336
6817,18,Jits_Linear_8,2,5,56,103,1727316272
6817,18,Jits_Linear_8,3,1,48,27,1727411904
6817,18,Jits_Linear_8,0,5,56,103,1727815940
6817,18,Jits_Linear_8,1,5,80,127,1727835652
6817,18,Jits_Linear_8,2,5,63,98,1727856036
6817,18,Jits_Linear_8,3,1,48,30,1727868520
6817,18,Jits_Linear_8,0,5,63,98,1728235968
6817,18,Jits_Linear_8,1,5,56,103,1728256508
6817,18,Jits_Linear_8,2,5,80,127,1728296248
6817,18,Jits_Linear_8,3,1,48,31,1728344696
6817,18,Jits_Linear_8,0,5,63,98,1728745912
6817,18,Jits_Linear_8,1,5,80,127,1728775664
6817,18,Jits_Linear_8,2,5,56,103,1728796120
6817,18,Jits_Linear_8,3,1,48,36,1728837596
6817,18,Jits_Linear_8,0,5,80,127,1729215816
6817,18,Jits_Linear_8,1,5,56,103,1729266096
6817,18,Jits_Linear_8,2,5,63,98,1729325464
6817,18,Jits_Linear_8,3,1,48,31,1729376008
6817,18,Jits_Linear_8,0,5,63,98,1729696032
6817,18,Jits_Linear_8,1,5,56,103,1729815864
6817,18,Jits_Linear_8,2,5,80,127,1729845760
6817,18,Jits_Linear_8,3,1,48,26,1729907844
6817,18,Jits_Linear_8,0,5,80,127,1730225380
6817,18,Jits_Linear_8,1,5,63,98,1730246140
6817,18,Jits_Linear_8,2,5,56,103,1730315696
6817,18,Jits_Linear_8,3,1,48,31,1730393216
6817,18,Jits_Linear_8,0,5,63,98,1730735636
6817,18,Jits_Linear_8,1,5,56,103,1730745984
6817,18,Jits_Linear_8,2,5,80,127,1730825732
6817,18,Jits_Linear_8,3,1,48,30,1730883004
6817,18,Jits_Linear_8,0,5,56,103,1731286344
6817,18,Jits_Linear_8,1,5,80,127,1731316020
6817,18,Jits_Linear_8,2,5,63,98,1731326288
6817,18,Jits_Linear_8,3,1,48,20,1731388544
6817,18,Jits_Linear_8,0,9999,9999,9999,1620904012
6817,18,Jits_Linear_8,1,9999,9999,9999,1621723200
6817,18,Jits_Linear_8,2,9999,9999,9999,1622543456
6817,18,Jits_Linear_8,3,9999,9999,9999,1623363680
6817,18,Jits_Linear_8,4,9999,9999,9999,1624183892
6817,18,Jits_Linear_8,5,9999,9999,9999,1624993916
6817,18,Jits_Linear_8,6,9999,9999,9999,1625803872
6817,18,Jits_Linear_8,7,9999,9999,9999,1626613828
6817,18,Jits_Linear_8,8,9999,9999,9999,1627423816
6817,18,Jits_Linear_8,9,9999,9999,9999,1628233820
6817,18,Jits_Linear_8,10,9999,9999,9999,1629033596
6817,18,Jits_Linear_8,11,9999,9999,9999,1629833292
6817,18,Jits_Linear_8,12,9999,9999,9999,1630634040
6817,18,Jits_Linear_8,13,9999,9999,9999,1631433808
6817,18,Jits_Linear_8,14,9999,9999,9999,1632233548
6817,18,Jits_Linear_8,15,9999,9999,9999,1633024092
6817,18,Jits_Linear_8,16,9999,9999,9999,1633823856
6817,18,Jits_Linear_8,17,9999,9999,9999,1634613368
6817,18,Jits_Linear_8,18,9999,9999,9999,1635403836
6817,18,Jits_Linear_8,19,9999,9999,9999,1636193344
6817,18,Jits_Linear_8,20,9999,9999,9999,1636973696
6817,18,Jits_Linear_8,21,9999,9999,9999,1637753972
6817,18,Jits_Linear_8,22,9999,9999,9999,1638533204
6817,18,Jits_Linear_8,23,9999,9999,9999,1639313492
6817,18,Jits_Linear_8,24,9999,9999,9999,1640093764
6817,18,Jits_Linear_8,25,9999,9999,9999,1640863848
6817,18,Jits_Linear_8,26,9999,9999,9999,1641633872
6817,18,Jits_Linear_8,27,9999,9999,9999,1642403900
6817,18,Jits_Linear_8,28,9999,9999,9999,1643173992
6817,18,Jits_Linear_8,29,9999,9999,9999,1643944012
6817,18,Jits_Linear_8,30,9999,9999,9999,1644703828
6817,18,Jits_Linear_8,31,9999,9999,9999,1645463648
6817,18,Jits_Linear_8,32,9999,9999,9999,1646223480
6817,18,Jits_Linear_8,33,9999,9999,9999,1646983236
6817,18,Jits_Linear_8,34,9999,9999,9999,1647744120
6817,18,Jits_Linear_8,35,9999,9999,9999,1648503872
6817,18,Jits_Linear_8,36,9999,9999,9999,1649253436
6817,18,Jits_Linear_8,37,9999,9999,9999,1650004096
6817,18,Jits_Linear_8,38,9999,9999,9999,1650753660
6817,18,Jits_Linear_8,39,9999,9999,9999,1651503160
6817,18,Jits_Linear_8,40,9999,9999,9999,1652243524
6817,18,Jits_Linear_8,41,9999,9999,9999,1652983932
6817,18,Jits_Linear_8,42,9999,9999,9999,1653723224
6817,18,Jits_Linear_8,43,9999,9999,9999,1654463556
6817,18,Jits_Linear_8,44,9999,9999,9999,1655203956
6817,18,Jits_Linear_8,45,9999,9999,9999,1655934032
6817,18,Jits_Linear_8,46,9999,9999,9999,1656663136
6817,18,Jits_Linear_8,47,9999,9999,9999,1657393224
6817,18,Jits_Linear_8,48,9999,9999,9999,1658123316
6817,18,Jits_Linear_8,49,9999,9999,9999,1658853456
6817,18,Jits_Linear_8,50,9999,9999,9999,1659573340
6817,18,Jits_Linear_8,51,9999,9999,9999,1660293240
6817,18,Jits_Linear_8,52,9999,9999,9999,1661014120
6817,18,Jits_Linear_8,53,9999,9999,9999,1661743180
6817,18,Jits_Linear_8,54,9999,9999,9999,1662464112
6817,18,Jits_Linear_8,55,9999,9999,9999,1663183928
6817,18,Jits_Linear_8,56,9999,9999,9999,1663893608
6817,18,Jits_Linear_8,57,9999,9999,9999,1664603256
6817,18,Jits_Linear_8,58,9999,9999,9999,1665313908
6817,18,Jits_Linear_8,59,9999,9999,9999,1666023512
6817,18,Jits_Linear_8,60,9999,9999,9999,1666723944
6817,18,Jits_Linear_8,61,9999,9999,9999,1667423312
6817,18,Jits_Linear_8,62,9999,9999,9999,1668123716
6817,18,Jits_Linear_8,63,9999,9999,9999,1668823120
6817,18,Jits_Linear_8,64,9999,9999,9999,1669523536
6817,18,Jits_Linear_8,65,9999,9999,9999,1670213688
6817,18,Jits_Linear_8,66,9999,9999,9999,1670903904
6817,18,Jits_Linear_8,67,9999,9999,9999,1671594056
6817,18,Jits_Linear_8,68,9999,9999,9999,1672283248
6817,18,Jits_Linear_8,69,9999,9999,9999,1672973416
6817,18,Jits_Linear_8,70,9999,9999,9999,1673653312
6817,18,Jits_Linear_8,71,9999,9999,9999,1674333264
6817,18,Jits_Linear_8,72,9999,9999,9999,1675013216
6817,18,Jits_Linear_8,73,9999,9999,9999,1675693140
6817,18,Jits_Linear_8,74,9999,9999,9999,1676374100
6817,18,Jits_Linear_8,75,9999,9999,9999,1677054036
6817,18,Jits_Linear_8,76,9999,9999,9999,1677723744
6817,18,Jits_Linear_8,77,9999,9999,9999,1678393456
6817,18,Jits_Linear_8,78,9999,9999,9999,1679063132
6817,18,Jits_Linear_8,79,9999,9999,9999,1679733828
6817,18,Jits_Linear_8,80,9999,9999,9999,1680393328
6817,18,Jits_Linear_8,81,9999,9999,9999,1681053752
6817,18,Jits_Linear_8,82,9999,9999,9999,1681713276
6817,18,Jits_Linear_8,83,9999,9999,9999,1682373736
6817,18,Jits_Linear_8,84,9999,9999,9999,1683033176
6817,18,Jits_Linear_8,85,9999,9999,9999,1683683380
6817,18,Jits_Linear_8,86,9999,9999,9999,1684333684
6817,18,Jits_Linear_8,87,9999,9999,9999,1684983888
6817,18,Jits_Linear_8,88,9999,9999,9999,1685633128
6817,18,Jits_Linear_8,89,9999,9999,9999,1686283360
6817,18,Jits_Linear_8,90,9999,9999,9999,1686923368
6817,18,Jits_Linear_8,91,9999,9999,9999,1687563388
6817,18,Jits_Linear_8,92,9999,9999,9999,1688203332
6817,18,Jits_Linear_8,93,9999,9999,9999,1688843352
6817,18,Jits_Linear_8,94,9999,9999,9999,1689483356
6817,18,Jits_Linear_8,95,9999,9999,9999,1690113120
6817,18,Jits_Linear_8,96,9999,9999,9999,1690743864
6817,18,Jits_Linear_8,97,9999,9999,9999,1691373688
6817,18,Jits_Linear_8,98,9999,9999,9999,1692003456
6817,18,Jits_Linear_8,99,9999,9999,9999,1692633196
6817,18,Jits_Linear_8,100,9999,9999,9999,1693253744
6817,18,Jits_Linear_8,101,9999,9999,9999,1693873216
6817,18,Jits_Linear_8,102,9999,9999,9999,1694493792
6817,18,Jits_Linear_8,103,9999,9999,9999,1695113312
6817,18,Jits_Linear_8,104,9999,9999,9999,1695733880
6817,18,Jits_Linear_8,105,9999,9999,9999,1696343132
6817,18,Jits_Linear_8,106,9999,9999,9999,1696953460
6817,18,Jits_Linear_8,107,9999,9999,9999,1697563724
6817,18,Jits_Linear_8,108,9999,9999,9999,1698174060
6817,18,Jits_Linear_8,109,9999,9999,9999,1698783340
6817,18,Jits_Linear_8,110,9999,9999,9999,1699383388
6817,18,Jits_Linear_8,111,9999,9999,9999,1699983444
6817,18,Jits_Linear_8,112,9999,9999,9999,1700583536
6817,18,Jits_Linear_8,113,9999,9999,9999,1701183572
6817,18,Jits_Linear_8,114,9999,9999,9999,1701783656
6817,18,Jits_Linear_8,115,9999,9999,9999,1702373472
6817,18,Jits_Linear_8,116,9999,9999,9999,1702963308
6817,18,Jits_Linear_8,117,9999,9999,9999,1703553116
6817,18,Jits_Linear_8,118,9999,9999,9999,1704143972
6817,18,Jits_Linear_8,119,9999,9999,9999,1704733804
6817,18,Jits_Linear_8,120,9999,9999,9999,1705313360
6817,18,Jits_Linear_8,121,9999,9999,9999,1705893944
6817,18,Jits_Linear_8,122,9999,9999,9999,1706473552
6817,18,Jits_Linear_8,123,9999,9999,9999,1707053108
6817,18,Jits_Linear_8,124,9999,9999,9999,1707633780
6817,18,Jits_Linear_8,125,9999,9999,9999,1708203064
6817,18,Jits_Linear_8,126,9999,9999,9999,1708773472
6817,18,Jits_Linear_8,127,9999,9999,9999,1709343828
6817,18,Jits_Linear_8,128,9999,9999,9999,1709913184
6817,18,Jits_Linear_8,129,9999,9999,9999,1710483524
6817,18,Jits_Linear_8,130,9999,9999,9999,1711043684
6817,18,Jits_Linear_8,131,9999,9999,9999,1711603836
6817,18,Jits_Linear_8,132,9999,9999,9999,1712163936
6817,18,Jits_Linear_8,133,9999,9999,9999,1712724084
6817,18,Jits_Linear_8,134,9999,9999,9999,1713283176
6817,18,Jits_Linear_8,135,9999,9999,9999,1713834088
6817,18,Jits_Linear_8,136,9999,9999,9999,1714383960
6817,18,Jits_Linear_8,137,9999,9999,9999,1714933848
6817,18,Jits_Linear_8,138,9999,9999,9999,1715483760
6817,18,Jits_Linear_8,139,9999,9999,9999,1716033636
6817,18,Jits_Linear_8,140,9999,9999,9999,1716573248
6817,18,Jits_Linear_8,141,9999,9999,9999,1717113976
6817,18,Jits_Linear_8,142,9999,9999,9999,1717653580
6817,18,Jits_Linear_8,143,9999,9999,9999,1718193260
6817,18,Jits_Linear_8,144,9999,9999,9999,1718733912
6817,18,Jits_Linear_8,145,9999,9999,9999,1719263340
6817,18,Jits_Linear_8,146,9999,9999,9999,1719793736
6817,18,Jits_Linear_8,147,9999,9999,9999,1720323152
6817,18,Jits_Linear_8,148,9999,9999,9999,1720853560
6817,18,Jits_Linear_8,149,9999,9999,9999,1721384020
6817,18,Jits_Linear_8,150,9999,9999,9999,1721903180
6817,18,Jits_Linear_8,151,9999,9999,9999,1722423380
6817,18,Jits_Linear_8,152,9999,9999,9999,1722943600
6817,18,Jits_Linear_8,153,9999,9999,9999,1723463736
6817,18,Jits_Linear_8,154,9999,9999,9999,1723983952
6817,18,Jits_Linear_8,155,9999,9999,9999,1724493896
6817,18,Jits_Linear_8,156,9999,9999,9999,1725003852
6817,18,Jits_Linear_8,157,9999,9999,9999,1725513792
6817,18,Jits_Linear_8,158,9999,9999,9999,1726023736
6817,18,Jits_Linear_8,159,9999,9999,9999,1726533740
6817,18,Jits_Linear_8,160,9999,9999,9999,1727033444
6817,18,Jits_Linear_8,161,9999,9999,9999,1727533116
6817,18,Jits_Linear_8,162,9999,9999,9999,1728033852
6817,18,Jits_Linear_8,163,9999,9999,9999,1728533620
6817,18,Jits_Linear_8,164,9999,9999,9999,1729033344
6817,18,Jits_Linear_8,165,9999,9999,9999,1729523780
6817,18,Jits_Linear_8,166,9999,9999,9999,1730013288
6817,18,Jits_Linear_8,167,9999,9999,9999,1730503748
6817,18,Jits_Linear_8,168,9999,9999,9999,1730993260
6817,18,Jits_Linear_8,169,9999,9999,9999,1731483744
6818,16,Jits_ISO_5,0,5,56,103,1739468068
6818,16,Jits_ISO_5,1,5,63,98,1739471240
6818,16,Jits_ISO_5,2,5,80,127,1739474660
6818,16,Jits_ISO_5,0,5,56,103,1739967864
6818,16,Jits_ISO_5,1,5,63,98,1739970960
6818,16,Jits_ISO_5,2,5,80,127,1739974084
6818,16,Jits_ISO_5,3,1,48,27,1740045244
6818,16,Jits_ISO_5,0,5,56,103,1740467468
6818,16,Jits_ISO_5,1,5,80,127,1740477736
6818,16,Jits_ISO_5,2,5,63,98,1740498192
6818,16,Jits_ISO_5,3,1,48,25,1740539740
6818,16,Jits_ISO_5,0,5,63,98,1740918068
6818,16,Jits_ISO_5,1,5,80,127,1740947816
6818,16,Jits_ISO_5,2,5,56,103,1740957936
6818,16,Jits_ISO_5,3,1,48,24,1741027056
6818,16,Jits_ISO_5,0,1,48,24,1741478624
6818,16,Jits_ISO_5,1,5,80,127,1741479888
6818,16,Jits_ISO_5,2,5,56,103,1741487696
6818,16,Jits_ISO_5,3,5,63,98,1741518116
6818,16,Jits_ISO_5,0,5,63,98,1741967724
6818,16,Jits_ISO_5,1,1,48,20,1741996120
6818,16,Jits_ISO_5,2,5,56,103,1741997692
6818,16,Jits_ISO_5,3,5,80,127,1742007588
6818,16,Jits_ISO_5,0,5,56,103,1742418388
6818,16,Jits_ISO_5,1,5,63,98,1742467392
6818,16,Jits_ISO_5,2,5,80,127,1742487848
6818,16,Jits_ISO_5,3,1,48,26,1742501232
6818,16,Jits_ISO_5,0,5,80,127,1742918060
6818,16,Jits_ISO_5,1,5,63,98,1742968036
6818,16,Jits_ISO_5,2,1,48,30,1742974224
6818,16,Jits_ISO_5,3,5,56,103,1743007968
6818,16,Jits_ISO_5,0,5,56,103,1743417732
6818,16,Jits_ISO_5,1,5,63,98,1743448604
6818,16,Jits_ISO_5,2,1,48,29,1743470376
6818,16,Jits_ISO_5,3,5,80,127,1743518348
6818,16,Jits_ISO_5,0,5,56,103,1743917556
6818,16,Jits_ISO_5,1,1,48,31,1743955576
6818,16,Jits_ISO_5,2,5,80,127,1743977716
6818,16,Jits_ISO_5,3,5,63,98,1744007688
6818,16,Jits_ISO_5,0,5,56,103,1744428540
6818,16,Jits_ISO_5,1,5,63,98,1744437688
6818,16,Jits_ISO_5,2,1,48,31,1744455708
6818,16,Jits_ISO_5,3,5,80,127,1744477620
6818,16,Jits_ISO_5,0,1,48,33,1744914612
6818,16,Jits_ISO_5,1,5,63,98,1744918016
6818,16,Jits_ISO_5,2,5,80,127,1744997884
6818,16,Jits_ISO_5,3,5,56,103,1745008064
6818,16,Jits_ISO_5,0,1,48,32,1745391172
6818,16,Jits_ISO_5,1,5,63,98,1745467720
6818,16,Jits_ISO_5,2,5,56,103,1745507792
6818,16,Jits_ISO_5,3,5,80,127,1745510856
6818,16,Jits_ISO_5,0,1,48,25,1745919672
6818,16,Jits_ISO_5,1,5,56,103,1745927592
6818,16,Jits_ISO_5,2,5,63,98,1745937860
6818,16,Jits_ISO_5,3,5,80,127,1745977572
6818,16,Jits_ISO_5,0,5,56,103,1746418084
6818,16,Jits_ISO_5,1,1,48,32,1746418992
6818,16,Jits_ISO_5,2,5,63,98,1746422488
6818,16,Jits_ISO_5,3,5,80,127,1746437564
6818,16,Jits_ISO_5,0,1,48,29,1746899356
6818,16,Jits_ISO_5,1,5,80,127,1746928000
6818,16,Jits_ISO_5,2,5,56,103,1746938344
6818,16,Jits_ISO_5,3,5,63,98,1747007808
6818,16,Jits_ISO_5,0,1,48,31,1747390992
6818,16,Jits_ISO_5,1,5,63,98,1747417320
6818,16,Jits_ISO_5,2,5,56,103,1747438000
6818,16,Jits_ISO_5,3,5,80,127,1747517728
6818,16,Jits_ISO_5,0,1,48,32,1747883372
6818,16,Jits_ISO_5,1,5,56,103,1747928356
6818,16,Jits_ISO_5,2,5,80,127,1747968516
6818,16,Jits_ISO_5,3,5,63,98,1747977540
6818,16,Jits_ISO_5,0,1,48,35,1748385344
6818,16,Jits_ISO_5,1,5,80,127,1748417900
6818,16,Jits_ISO_5,2,5,63,98,1748447648
6818,16,Jits_ISO_5,3,5,56,103,1748487444
6818,16,Jits_ISO_5,0,1,48,31,1748888380
6818,16,Jits_ISO_5,1,5,56,103,1748938004
6818,16,Jits_ISO_5,2,5,63,98,1748967904
6818,16,Jits_ISO_5,3,5,80,127,1749018260
6818,16,Jits_ISO_5,0,1,48,26,1749401824
6818,16,Jits_ISO_5,1,5,80,127,1749437744
6818,16,Jits_ISO_5,2,5,56,103,1749477756
6818,16,Jits_ISO_5,3,5,63,98,1749487952
6818,16,Jits_ISO_5,0,1,48,28,1749899088
6818,16,Jits_ISO_5,1,5,80,127,1749917920
6818,16,Jits_ISO_5,2,5,63,98,1749957932
6818,16,Jits_ISO_5,3,5,56,103,1750018452
6818,16,Jits_ISO_5,0,1,48,31,1750407440
6818,16,Jits_ISO_5,1,5,56,103,1750417804
6818,16,Jits_ISO_5,2,5,80,127,1750428220
6818,16,Jits_ISO_5,3,5,63,98,1750508444
6818,16,Jits_ISO_5,0,5,80,127,1750917540
6818,16,Jits_ISO_5,1,1,48,31,1750924400
6818,16,Jits_ISO_5,2,5,63,98,1750977776
6818,16,Jits_ISO_5,3,5,56,103,1751007524
6818,16,Jits_ISO_5,0,5,56,103,1751418412
6818,16,Jits_ISO_5,1,1,48,35,1751421528
6818,16,Jits_ISO_5,2,5,80,127,1751477524
6818,16,Jits_ISO_5,3,5,63,98,1751517460
6818,16,Jits_ISO_5,0,1,48,32,1751908092
6818,16,Jits_ISO_5,1,5,56,103,1751968276
6818,16,Jits_ISO_5,2,5,63,98,1751978468
6818,16,Jits_ISO_5,3,5,80,127,1751981908
6818,16,Jits_ISO_5,0,5,80,127,1752417588
6818,16,Jits_ISO_5,1,1,48,35,1752418704
6818,16,Jits_ISO_5,2,5,63,98,1752507716
6818,16,Jits_ISO_5,3,5,56,103,1752518192
6818,16,Jits_ISO_5,0,5,56,103,1752918444
6818,16,Jits_ISO_5,1,5,63,98,1752921464
6818,16,Jits_ISO_5,2,5,80,127,1752924664
6818,16,Jits_ISO_5,3,1,48,31,1752930864
6818,16,Jits_ISO_5,0,1,48,35,1753419948
6818,16,Jits_ISO_5,1,5,80,127,1753447920
6818,16,Jits_ISO_5,2,5,63,98,1753498048
6818,16,Jits_ISO_5,3,5,56,103,1753527632
6818,16,Jits_ISO_5,0,1,48,35,1753912784
6818,16,Jits_ISO_5,1,5,56,103,1753928100
6818,16,Jits_ISO_5,2,5,80,127,1753938220
6818,16,Jits_ISO_5,3,5,63,98,1754008108
6818,16,Jits_ISO_5,0,1,48,34,1754417324
6818,16,Jits_ISO_5,1,5,56,103,1754437944
6818,16,Jits_ISO_5,2,5,63,98,1754457432
6818,16,Jits_ISO_5,3,5,80,127,1754517804
6818,16,Jits_ISO_5,0,1,48,30,1754927792
6818,16,Jits_ISO_5,1,5,80,127,1754928908
6818,16,Jits_ISO_5,2,5,63,98,1754998216
6818,16,Jits_ISO_5,3,5,56,103,1755017552
6818,16,Jits_ISO_5,0,1,48,33,1755416040
6818,16,Jits_ISO_5,1,5,80,127,1755447604
6818,16,Jits_ISO_5,2,5,56,103,1755458020
6818,16,Jits_ISO_5,3,5,63,98,1755468440
6818,16,Jits_ISO_5,0,1,48,33,1755912316
6818,16,Jits_ISO_5,1,5,80,127,1755938116
6818,16,Jits_ISO_5,2,5,56,103,1755957604
6818,16,Jits_ISO_5,3,5,63,98,1756028236
6818,16,Jits_ISO_5,0,1,48,32,1756394260
6818,16,Jits_ISO_5,1,5,56,103,1756448188
6818,16,Jits_ISO_5,2,5,80,127,1756477788
6818,16,Jits_ISO_5,3,5,63,98,1756498156
6818,16,Jits_ISO_5,0,1,48,30,1756932428
6818,16,Jits_ISO_5,1,5,63,98,1756937656
6818,16,Jits_ISO_5,2,5,56,103,1756998192
6818,16,Jits_ISO_5,3,5,80,127,1757027644
6818,16,Jits_ISO_5,0,5,63,98,1757428228
6818,16,Jits_ISO_5,1,5,80,127,1757431516
6818,16,Jits_ISO_5,2,1,48,30,1757439364
6818,16,Jits_ISO_5,3,5,56,103,1757518224
6818,16,Jits_ISO_5,0,1,48,37,1757893520
6818,16,Jits_ISO_5,1,5,56,103,1757948320
6818,16,Jits_ISO_5,2,5,63,98,1757978244
6818,16,Jits_ISO_5,3,5,80,127,1758017796
6818,16,Jits_ISO_5,0,1,48,28,1758386456
6818,16,Jits_ISO_5,1,5,63,98,1758448056
6818,16,Jits_ISO_5,2,5,56,103,1758488080
6818,16,Jits_ISO_5,3,5,80,127,1758508312
6818,16,Jits_ISO_5,0,1,48,34,1758900344
6818,16,Jits_ISO_5,1,5,63,98,1758958056
6818,16,Jits_ISO_5,2,5,56,103,1758998080
6818,16,Jits_ISO_5,3,5,80,127,1759008276
6818,16,Jits_ISO_5,0,1,48,27,1759380600
6818,16,Jits_ISO_5,1,5,80,127,1759438088
6818,16,Jits_ISO_5,2,5,63,98,1759507704
6818,16,Jits_ISO_5,3,5,56,103,1759528384
6818,16,Jits_ISO_5,0,1,48,33,1759906560
6818,16,Jits_ISO_5,1,5,56,103,1759927560
6818,16,Jits_ISO_5,2,5,80,127,1759948096
6818,16,Jits_ISO_5,3,5,63,98,1759988252
6818,16,Jits_ISO_5,0,1,48,31,1760403132
6818,16,Jits_ISO_5,1,5,63,98,1760437480
6818,16,Jits_ISO_5,2,5,80,127,1760458088
6818,16,Jits_ISO_5,3,5,56,103,1760498024
6818,16,Jits_ISO_5,0,1,48,30,1760898900
6818,16,Jits_ISO_5,1,5,63,98,1760947548
6818,16,Jits_ISO_5,2,5,56,103,1760968156
6818,16,Jits_ISO_5,3,5,80,127,1760978204
6818,16,Jits_ISO_5,0,1,48,31,1761392104
6818,16,Jits_ISO_5,1,5,80,127,1761448176
6818,16,Jits_ISO_5,2,5,56,103,1761467960
6818,16,Jits_ISO_5,3,5,63,98,1761497324
6818,16,Jits_ISO_5,0,1,48,25,1761917540
6818,16,Jits_ISO_5,1,5,56,103,1762017716
6818,16,Jits_ISO_5,2,5,80,127,1762020632
6818,16,Jits_ISO_5,3,5,63,98,1762038248
6818,16,Jits_ISO_5,0,5,63,98,1762437452
6818,16,Jits_ISO_5,1,1,48,30,1762446648
6818,16,Jits_ISO_5,2,5,56,103,1762468168
6818,16,Jits_ISO_5,3,5,80,127,1762527656
6818,16,Jits_ISO_5,0,1,48,33,1762967724
6818,16,Jits_ISO_5,1,5,63,98,1763018088
6818,16,Jits_ISO_5,2,5,56,103,1763028360
6818,16,Jits_ISO_5,3,5,80,127,1763037508
6818,16,Jits_ISO_5,0,5,56,103,1763467488
6818,16,Jits_ISO_5,1,1,48,37,1763477500
6818,16,Jits_ISO_5,2,5,80,127,1763498276
6818,16,Jits_ISO_5,3,5,63,98,1763507576
6818,16,Jits_ISO_5,0,1,48,35,1764004580
6818,16,Jits_ISO_5,1,5,63,98,1764008288
6818,16,Jits_ISO_5,2,5,56,103,1764017508
6818,16,Jits_ISO_5,3,5,80,127,1764038116
6818,16,Jits_ISO_5,0,5,56,103,1764438280
6818,16,Jits_ISO_5,1,5,63,98,1764498068
6818,16,Jits_ISO_5,2,5,80,127,1764501280
6818,16,Jits_ISO_5,3,1,48,37,1764517448
6818,16,Jits_ISO_5,0,5,80,127,1764967908
6818,16,Jits_ISO_5,1,5,56,103,1764978032
6818,16,Jits_ISO_5,2,1,48,38,1765004892
6818,16,Jits_ISO_5,3,5,63,98,1765047628
6818,16,Jits_ISO_5,0,5,80,127,1765458364
6818,16,Jits_ISO_5,1,1,48,35,1765461556
6818,16,Jits_ISO_5,2,5,56,103,1765528040
6818,16,Jits_ISO_5,3,5,63,98,1765538084
6818,16,Jits_ISO_5,0,1,48,34,1765984296
6818,16,Jits_ISO_5,1,5,63,98,1765998188
6818,16,Jits_ISO_5,2,5,56,103,1766008164
6818,16,Jits_ISO_5,3,5,80,127,1766027500
6818,16,Jits_ISO_5,0,5,80,127,1766447440
6818,16,Jits_ISO_5,1,1,48,28,1766469436
6818,16,Jits_ISO_5,2,5,63,98,1766507972
6818,16,Jits_ISO_5,3,5,56,103,1766547980
6818,16,Jits_ISO_5,0,1,48,32,1766984080
6818,16,Jits_ISO_5,1,5,56,103,1766988232
6818,16,Jits_ISO_5,2,5,63,98,1766998356
6818,16,Jits_ISO_5,3,5,80,127,1767038216
6818,16,Jits_ISO_5,0,1,48,37,1767444104
6818,16,Jits_ISO_5,1,5,56,103,1767447884
6818,16,Jits_ISO_5,2,5,80,127,1767477560
6818,16,Jits_ISO_5,3,5,63,98,1767527760
6818,16,Jits_ISO_5,0,1,48,36,1767947068
6818,16,Jits_ISO_5,1,5,56,103,1767987552
6818,16,Jits_ISO_5,2,5,63,98,1768027560
6818,16,Jits_ISO_5,3,5,80,127,1768030924
6818,16,Jits_ISO_5,0,1,48,29,1768441072
6818,16,Jits_ISO_5,1,5,56,103,1768488252
6818,16,Jits_ISO_5,2,5,63,98,1768497472
6818,16,Jits_ISO_5,3,5,80,127,1768517932
6818,16,Jits_ISO_5,0,1,48,34,1768938860
6818,16,Jits_ISO_5,1,5,56,103,1768948096
6818,16,Jits_ISO_5,2,5,80,127,1768951236
6818,16,Jits_ISO_5,3,5,63,98,1768988132
6818,16,Jits_ISO_5,0,1,48,31,1769403884
6818,16,Jits_ISO_5,1,5,63,98,1769488076
6818,16,Jits_ISO_5,2,5,56,103,1769517436
6818,16,Jits_ISO_5,3,5,80,127,1769537968
6818,16,Jits_ISO_5,0,5,80,127,1769957752
6818,16,Jits_ISO_5,1,5,56,103,1769968096
6818,16,Jits_ISO_5,2,1,48,25,1769977920
6818,16,Jits_ISO_5,3,5,63,98,1769979332
6818,16,Jits_ISO_5,0,5,56,103,1770457424
6818,16,Jits_ISO_5,1,1,48,27,1770471776
6818,16,Jits_ISO_5,2,5,80,127,1770498324
6818,16,Jits_ISO_5,3,5,63,98,1770528096
6818,16,Jits_ISO_5,0,5,63,98,1770968480
6818,16,Jits_ISO_5,1,1,48,29,1770975812
6818,16,Jits_ISO_5,2,5,80,127,1770977700
6818,16,Jits_ISO_5,3,5,56,103,1770987968
6818,16,Jits_ISO_5,0,5,56,103,1771447684
6818,16,Jits_ISO_5,1,1,48,32,1771457324
6818,16,Jits_ISO_5,2,5,63,98,1771518328
6818,16,Jits_ISO_5,3,5,80,127,1771527428
6818,16,Jits_ISO_5,0,5,80,127,1771948332
6818,16,Jits_ISO_5,1,1,48,32,1771955184
6818,16,Jits_ISO_5,2,5,56,103,1771957620
6818,16,Jits_ISO_5,3,5,63,98,1772008040
6818,16,Jits_ISO_5,0,1,48,27,1772463692
6818,16,Jits_ISO_5,1,5,80,127,1772467476
6818,16,Jits_ISO_5,2,5,56,103,1772528088
6818,16,Jits_ISO_5,3,5,63,98,1772557920
6818,16,Jits_ISO_5,0,5,56,103,1772968260
6818,16,Jits_ISO_5,1,5,80,127,1772971328
6818,16,Jits_ISO_5,2,1,48,27,1772972664
6818,16,Jits_ISO_5,3,5,63,98,1773008116
6818,16,Jits_ISO_5,0,1,48,29,1773473876
6818,16,Jits_ISO_5,1,5,56,103,1773498032
6818,16,Jits_ISO_5,2,5,63,98,1773528308
6818,16,Jits_ISO_5,3,5,80,127,1773537604
6818,16,Jits_ISO_5,0,1,48,35,1773979312
6818,16,Jits_ISO_5,1,5,63,98,1774007884
6818,16,Jits_ISO_5,2,5,80,127,1774018080
6818,16,Jits_ISO_5,3,5,56,103,1774028124
6818,16,Jits_ISO_5,0,5,80,127,1774458252
6818,16,Jits_ISO_5,1,1,48,28,1774474328
6818,16,Jits_ISO_5,2,5,56,103,1774508444
6818,16,Jits_ISO_5,3,5,63,98,1774511508
6818,16,Jits_ISO_5,0,1,48,32,1774963712
6818,16,Jits_ISO_5,1,5,56,103,1774987724
6818,16,Jits_ISO_5,2,5,80,127,1775008180
6818,16,Jits_ISO_5,3,5,63,98,1775018304
6818,16,Jits_ISO_5,0,1,48,31,1775446976
6818,16,Jits_ISO_5,1,5,63,98,1775467900
6818,16,Jits_ISO_5,2,5,56,103,1775497800
6818,16,Jits_ISO_5,3,5,80,127,1775518184
6818,16,Jits_ISO_5,0,1,48,35,1775929772
6818,16,Jits_ISO_5,1,5,56,103,1775977824
6818,16,Jits_ISO_5,2,5,80,127,1775988020
6818,16,Jits_ISO_5,3,5,63,98,1776057828
6818,16,Jits_ISO_5,0,1,48,27,1776437976
6818,16,Jits_ISO_5,1,5,63,98,1776477632
6818,16,Jits_ISO_5,2,5,80,127,1776517424
6818,16,Jits_ISO_5,3,5,56,103,1776557420
6818,16,Jits_ISO_5,0,1,48,30,1776943396
6818,16,Jits_ISO_5,1,5,56,103,1776987484
6818,16,Jits_ISO_5,2,5,63,98,1776997900
6818,16,Jits_ISO_5,3,5,80,127,1777018212
6818,16,Jits_ISO_5,0,1,48,22,1777443352
6818,16,Jits_ISO_5,1,5,63,98,1777528048
6818,16,Jits_ISO_5,2,5,80,127,1777547740
6818,16,Jits_ISO_5,3,5,56,103,1777568048
6818,16,Jits_ISO_5,0,1,48,20,1777964960
6818,16,Jits_ISO_5,1,5,56,103,1777967620
6818,16,Jits_ISO_5,2,5,80,127,1778048240
6818,16,Jits_ISO_5,3,5,63,98,1778058868
6818,16,Jits_ISO_5,0,1,48,28,1778435992
6818,16,Jits_ISO_5,1,5,80,127,1778508112
6818,16,Jits_ISO_5,2,5,63,98,1778518308
6818,16,Jits_ISO_5,3,5,56,103,1778548040
6818,16,Jits_ISO_5,0,1,48,28,1778910844
6818,16,Jits_ISO_5,1,5,63,98,1778968060
6818,16,Jits_ISO_5,2,5,80,127,1779008000
6818,16,Jits_ISO_5,3,5,56,103,1779068220
6818,16,Jits_ISO_5,0,1,48,25,1779408408
6818,16,Jits_ISO_5,1,5,63,98,1779477760
6818,16,Jits_ISO_5,2,5,56,103,1779527948
6818,16,Jits_ISO_5,3,5,80,127,1779557692
6818,16,Jits_ISO_5,0,1,48,24,1779914276
6818,16,Jits_ISO_5,1,5,80,127,1779987756
6818,16,Jits_ISO_5,2,5,63,98,1779997952
6818,16,Jits_ISO_5,3,5,56,103,1780067912
6818,16,Jits_ISO_5,0,1,48,24,1780446088
6818,16,Jits_ISO_5,1,5,80,127,1780558128
6818,16,Jits_ISO_5,2,5,56,103,1780568396
6818,16,Jits_ISO_5,3,5,63,98,1780571536
6818,16,Jits_ISO_5,0,1,48,19,1780957132
6818,16,Jits_ISO_5,1,5,56,103,1780997488
6818,16,Jits_ISO_5,2,5,80,127,1781018020
6818,16,Jits_ISO_5,3,5,63,98,1781028288
6818,16,Jits_ISO_5,0,1,48,32,1781458732
6818,16,Jits_ISO_5,1,5,63,98,1781507608
6818,16,Jits_ISO_5,2,5,56,103,1781548392
6818,16,Jits_ISO_5,3,5,80,127,1781567788
6818,16,Jits_ISO_5,0,1,48,27,1781971800
6818,16,Jits_ISO_5,1,5,63,98,1782008168
6818,16,Jits_ISO_5,2,5,56,103,1782067816
6818,16,Jits_ISO_5,3,5,80,127,1782070880
6818,16,Jits_ISO_5,0,5,56,103,1782467972
6818,16,Jits_ISO_5,1,1,48,31,1782481128
6818,16,Jits_ISO_5,2,5,80,127,1782488720
6818,16,Jits_ISO_5,3,5,63,98,1782528432
6818,16,Jits_ISO_5,0,1,48,32,1782996688
6818,16,Jits_ISO_5,1,5,56,103,1782998352
6818,16,Jits_ISO_5,2,5,63,98,1783017912
6818,16,Jits_ISO_5,3,5,80,127,1783028036
6818,16,Jits_ISO_5,0,5,80,127,1783468496
6818,16,Jits_ISO_5,1,1,48,33,1783492740
6818,16,Jits_ISO_5,2,5,56,103,1783498016
6818,16,Jits_ISO_5,3,5,63,98,1783537952
6818,16,Jits_ISO_5,0,1,48,24,1783970456
6818,16,Jits_ISO_5,1,5,80,127,1783987716
6818,16,Jits_ISO_5,2,5,56,103,1784008024
6818,16,Jits_ISO_5,3,5,63,98,1784067572
6818,16,Jits_ISO_5,0,1,48,24,1784438952
6818,16,Jits_ISO_5,1,5,56,103,1784497712
6818,16,Jits_ISO_5,2,5,80,127,1784518020
6818,16,Jits_ISO_5,3,5,63,98,1784578540
6818,16,Jits_ISO_5,0,1,48,26,1784929444
6818,16,Jits_ISO_5,1,5,80,127,1784977644
6818,16,Jits_ISO_5,2,5,56,103,1784988136
6818,16,Jits_ISO_5,3,5,63,98,1785027908
6818,16,Jits_ISO_5,0,1,48,26,1785411480
6818,16,Jits_ISO_5,1,5,63,98,1785477596
6818,16,Jits_ISO_5,2,5,56,103,1785517588
6818,16,Jits_ISO_5,3,5,80,127,1785520656
6818,16,Jits_ISO_5,0,1,48,27,1785934572
6818,16,Jits_ISO_5,1,5,63,98,1785997544
6818,16,Jits_ISO_5,2,5,80,127,1786037616
6818,16,Jits_ISO_5,3,5,56,103,1786068188
6818,16,Jits_ISO_5,0,1,48,35,1786399028
6818,16,Jits_ISO_5,1,5,56,103,1786488284
6818,16,Jits_ISO_5,2,5,63,98,1786498612
6818,16,Jits_ISO_5,3,5,80,127,1786528212
6818,16,Jits_ISO_5,0,1,48,30,1786882692
6818,16,Jits_ISO_5,1,5,80,127,1786978632
6818,16,Jits_ISO_5,2,5,63,98,1787048536
6818,16,Jits_ISO_5,3,5,56,103,1787057608
6818,16,Jits_ISO_5,0,1,48,27,1787409052
6818,16,Jits_ISO_5,1,5,63,98,1787478824
6818,16,Jits_ISO_5,2,5,56,103,1787548116
6818,16,Jits_ISO_5,3,5,80,127,1787558756
6818,16,Jits_ISO_5,0,1,48,32,1787932080
6818,16,Jits_ISO_5,1,5,63,98,1787988596
6818,16,Jits_ISO_5,2,5,56,103,1788007788
6818,16,Jits_ISO_5,3,5,80,127,1788047632
6818,16,Jits_ISO_5,0,1,48,30,1788431884
6818,16,Jits_ISO_5,1,5,56,103,1788498516
6818,16,Jits_ISO_5,2,5,63,98,1788507592
6818,16,Jits_ISO_5,3,5,80,127,1788588564
6818,16,Jits_ISO_5,0,1,48,32,1788922080
6818,16,Jits_ISO_5,1,5,63,98,1788987764
6818,16,Jits_ISO_5,2,5,56,103,1789017660
6818,16,Jits_ISO_5,3,5,80,127,1789058704
6818,16,Jits_ISO_5,0,1,48,24,1789422784
6818,16,Jits_ISO_5,1,5,56,103,1789487496
6818,16,Jits_ISO_5,2,5,63,98,1789528540
6818,16,Jits_ISO_5,3,5,80,127,1789568400
6818,16,Jits_ISO_5,0,1,48,30,1789909408
6818,16,Jits_ISO_5,1,5,80,127,1789988648
6818,16,Jits_ISO_5,2,5,56,103,1790068056
6818,16,Jits_ISO_5,3,5,63,98,1790078472
6818,16,Jits_ISO_5,0,1,48,31,1790414528
6818,16,Jits_ISO_5,1,5,56,103,1790527852
6818,16,Jits_ISO_5,2,5,63,98,1790530844
6818,16,Jits_ISO_5,3,5,80,127,1790538048
6818,16,Jits_ISO_5,0,1,48,30,1790954564
6818,16,Jits_ISO_5,1,5,56,103,1791047956
6818,16,Jits_ISO_5,2,5,63,98,1791067516
6818,16,Jits_ISO_5,3,5,80,127,1791077712
6818,16,Jits_ISO_5,0,1,48,32,1791445976
6818,16,Jits_ISO_5,1,5,63,98,1791507776
6818,16,Jits_ISO_5,2,5,80,127,1791518048
6818,16,Jits_ISO_5,3,5,56,103,1791538712
6818,16,Jits_ISO_5,0,1,48,32,1791950072
6818,16,Jits_ISO_5,1,5,63,98,1792007660
6818,16,Jits_ISO_5,2,5,56,103,1792088484
6818,16,Jits_ISO_5,3,5,80,127,1792091624
6818,16,Jits_ISO_5,0,1,48,28,1792472568
6818,16,Jits_ISO_5,1,5,63,98,1792508488
6818,16,Jits_ISO_5,2,5,56,103,1792527776
6818,16,Jits_ISO_5,3,5,80,127,1792557524
6818,16,Jits_ISO_5,0,1,48,32,1792946164
6818,16,Jits_ISO_5,1,5,56,103,1793007996
6818,16,Jits_ISO_5,2,5,63,98,1793027632
6818,16,Jits_ISO_5,3,5,80,127,1793037676
6818,16,Jits_ISO_5,0,1,48,31,1793489996
6818,16,Jits_ISO_5,1,5,56,103,1793538492
6818,16,Jits_ISO_5,2,5,63,98,1793568088
6818,16,Jits_ISO_5,3,5,80,127,1793571600
6818,16,Jits_ISO_5,0,1,48,31,1793972156
6818,16,Jits_ISO_5,1,5,56,103,1793988072
6818,16,Jits_ISO_5,2,5,63,98,1794027860
6818,16,Jits_ISO_5,3,5,80,127,1794088404
6818,16,Jits_ISO_5,0,1,48,25,1794474656
6818,16,Jits_ISO_5,1,5,56,103,1794508332
6818,16,Jits_ISO_5,2,5,63,98,1794518452
6818,16,Jits_ISO_5,3,5,80,127,1794577652
6818,16,Jits_ISO_5,0,1,48,32,1794966312
6818,16,Jits_ISO_5,1,5,56,103,1795007916
6818,16,Jits_ISO_5,2,5,80,127,1795028372
6818,16,Jits_ISO_5,3,5,63,98,1795058420
6818,16,Jits_ISO_5,0,1,48,35,1795450604
6818,16,Jits_ISO_5,1,5,80,127,1795517836
6818,16,Jits_ISO_5,2,5,56,103,1795527960
6818,16,Jits_ISO_5,3,5,63,98,1795547728
6818,16,Jits_ISO_5,0,1,48,29,1795946600
6818,16,Jits_ISO_5,1,5,63,98,1796008648
6818,16,Jits_ISO_5,2,5,80,127,1796088208
6818,16,Jits_ISO_5,3,5,56,103,1796098400
6818,16,Jits_ISO_5,0,5,80,127,1796568628
6818,16,Jits_ISO_5,1,5,56,103,1796587964
6818,16,Jits_ISO_5,2,5,63,98,1796590956
6818,16,Jits_ISO_5,0,1,48,39,1796890244
6818,16,Jits_ISO_5,1,5,63,98,1797037548
6818,16,Jits_ISO_5,2,5,80,127,1797040836
6818,16,Jits_ISO_5,3,5,56,103,1797097788
6818,16,Jits_ISO_5,0,1,48,27,1797426540
6818,16,Jits_ISO_5,1,5,56,103,1797517664
6818,16,Jits_ISO_5,2,5,80,127,1797528068
6818,16,Jits_ISO_5,3,5,63,98,1797567780
6818,16,Jits_ISO_5,0,1,48,37,1797962740
6818,16,Jits_ISO_5,1,5,56,103,1797997916
6818,16,Jits_ISO_5,2,5,63,98,1798058456
6818,16,Jits_ISO_5,3,5,80,127,1798067440
6818,16,Jits_ISO_5,0,1,48,40,1798461428
6818,16,Jits_ISO_5,1,5,63,98,1798507912
6818,16,Jits_ISO_5,2,5,80,127,1798547776
6818,16,Jits_ISO_5,3,5,56,103,1798587772
6818,16,Jits_ISO_5,0,1,48,38,1798959372
6818,16,Jits_ISO_5,1,5,56,103,1799007572
6818,16,Jits_ISO_5,2,5,63,98,1799087572
6818,16,Jits_ISO_5,3,5,80,127,1799090712
6818,16,Jits_ISO_5,0,9999,9999,9999,1739715644
6818,16,Jits_ISO_5,1,9999,9999,9999,1740215420
6818,16,Jits_ISO_5,2,9999,9999,9999,1740715096
6818,16,Jits_ISO_5,3,9999,9999,9999,1741215816
6818,16,Jits_ISO_5,4,9999,9999,9999,1741715552
6818,16,Jits_ISO_5,5,9999,9999,9999,1742215284
6818,16,Jits_ISO_5,6,9999,9999,9999,1742715988
6818,16,Jits_ISO_5,7,9999,9999,9999,1743215736
6818,16,Jits_ISO_5,8,9999,9999,9999,1743715412
6818,16,Jits_ISO_5,9,9999,9999,9999,1744215160
6818,16,Jits_ISO_5,10,9999,9999,9999,1744715876
6818,16,Jits_ISO_5,11,9999,9999,9999,1745215552
6818,16,Jits_ISO_5,12,9999,9999,9999,1745715276
6818,16,Jits_ISO_5,13,9999,9999,9999,1746216056
6818,16,Jits_ISO_5,14,9999,9999,9999,1746715700
6818,16,Jits_ISO_5,15,9999,9999,9999,1747215444
6818,16,Jits_ISO_5,16,9999,9999,9999,1747715152
6818,16,Jits_ISO_5,17,9999,9999,9999,1748215924
6818,16,Jits_ISO_5,18,9999,9999,9999,1748715580
6818,16,Jits_ISO_5,19,9999,9999,9999,1749215316
6818,16,Jits_ISO_5,20,9999,9999,9999,1749716020
6818,16,Jits_ISO_5,21,9999,9999,9999,1750215752
6818,16,Jits_ISO_5,22,9999,9999,9999,1750715484
6818,16,Jits_ISO_5,23,9999,9999,9999,1751215220
6818,16,Jits_ISO_5,24,9999,9999,9999,1751715940
6818,16,Jits_ISO_5,25,9999,9999,9999,1752215608
6818,16,Jits_ISO_5,26,9999,9999,9999,1752715344
6818,16,Jits_ISO_5,27,9999,9999,9999,1753216112
6818,16,Jits_ISO_5,28,9999,9999,9999,1753726052
6818,16,Jits_ISO_5,29,9999,9999,9999,1754225784
6818,16,Jits_ISO_5,30,9999,9999,9999,1754725440
6818,16,Jits_ISO_5,31,9999,9999,9999,1755225176
6818,16,Jits_ISO_5,32,9999,9999,9999,1755725880
6818,16,Jits_ISO_5,33,9999,9999,9999,1756225612
6818,16,Jits_ISO_5,34,9999,9999,9999,1756725344
6818,16,Jits_ISO_5,35,9999,9999,9999,1757226048
6818,16,Jits_ISO_5,36,9999,9999,9999,1757725768
6818,16,Jits_ISO_5,37,9999,9999,9999,1758225504
6818,16,Jits_ISO_5,38,9999,9999,9999,1758725212
6818,16,Jits_ISO_5,39,9999,9999,9999,1759225924
6818,16,Jits_ISO_5,40,9999,9999,9999,1759725660
6818,16,Jits_ISO_5,41,9999,9999,9999,1760225388
6818,16,Jits_ISO_5,42,9999,9999,9999,1760726096
6818,16,Jits_ISO_5,43,9999,9999,9999,1761236088
6818,16,Jits_ISO_5,44,9999,9999,9999,1761735744
6818,16,Jits_ISO_5,45,9999,9999,9999,1762235472
6818,16,Jits_ISO_5,46,9999,9999,9999,1762735204
6818,16,Jits_ISO_5,47,9999,9999,9999,1763235916
6818,16,Jits_ISO_5,48,9999,9999,9999,1763735648
6818,16,Jits_ISO_5,49,9999,9999,9999,1764235328
6818,16,Jits_ISO_5,50,9999,9999,9999,1764736096
6818,16,Jits_ISO_5,51,9999,9999,9999,1765246036
6818,16,Jits_ISO_5,52,9999,9999,9999,1765745780
6818,16,Jits_ISO_5,53,9999,9999,9999,1766245456
6818,16,Jits_ISO_5,54,9999,9999,9999,1766745192
6818,16,Jits_ISO_5,55,9999,9999,9999,1767245912
6818,16,Jits_ISO_5,56,9999,9999,9999,1767745644
6818,16,Jits_ISO_5,57,9999,9999,9999,1768245372
6818,16,Jits_ISO_5,58,9999,9999,9999,1768746076
6818,16,Jits_ISO_5,59,9999,9999,9999,1769245796
6818,16,Jits_ISO_5,60,9999,9999,9999,1769745532
6818,16,Jits_ISO_5,61,9999,9999,9999,1770245188
6818,16,Jits_ISO_5,62,9999,9999,9999,1770745956
6818,16,Jits_ISO_5,63,9999,9999,9999,1771245628
6818,16,Jits_ISO_5,64,9999,9999,9999,1771745364
6818,16,Jits_ISO_5,65,9999,9999,9999,1772246080
6818,16,Jits_ISO_5,66,9999,9999,9999,1772756020
6818,16,Jits_ISO_5,67,9999,9999,9999,1773255740
6818,16,Jits_ISO_5,68,9999,9999,9999,1773755492
6818,16,Jits_ISO_5,69,9999,9999,9999,1774255224
6818,16,Jits_ISO_5,70,9999,9999,9999,1774755916
6818,16,Jits_ISO_5,71,9999,9999,9999,1775255664
6818,16,Jits_ISO_5,72,9999,9999,9999,1775755324
6818,16,Jits_ISO_5,73,9999,9999,9999,1776256104
6818,16,Jits_ISO_5,74,9999,9999,9999,1776766028
6818,16,Jits_ISO_5,75,9999,9999,9999,1777265760
6818,16,Jits_ISO_5,76,9999,9999,9999,1777765500
6818,16,Jits_ISO_5,77,9999,9999,9999,1778265160
6818,16,Jits_ISO_5,78,9999,9999,9999,1778765936
6818,16,Jits_ISO_5,79,9999,9999,9999,1779265596
6818,16,Jits_ISO_5,80,9999,9999,9999,1779765332
6818,16,Jits_ISO_5,81,9999,9999,9999,1780266036
6818,16,Jits_ISO_5,82,9999,9999,9999,1780765772
6818,16,Jits_ISO_5,83,9999,9999,9999,1781265504
6818,16,Jits_ISO_5,84,9999,9999,9999,1781765240
6818,16,Jits_ISO_5,85,9999,9999,9999,1782265916
6818,16,Jits_ISO_5,86,9999,9999,9999,1782765644
6818,16,Jits_ISO_5,87,9999,9999,9999,1783265396
6818,16,Jits_ISO_5,88,9999,9999,9999,1783766100
6818,16,Jits_ISO_5,89,9999,9999,9999,1784276032
6818,16,Jits_ISO_5,90,9999,9999,9999,1784775744
6818,16,Jits_ISO_5,91,9999,9999,9999,1785275472
6818,16,Jits_ISO_5,92,9999,9999,9999,1785775192
6818,16,Jits_ISO_5,93,9999,9999,9999,1786275900
6818,16,Jits_ISO_5,94,9999,9999,9999,1786775624
6818,16,Jits_ISO_5,95,9999,9999,9999,1787275360
6818,16,Jits_ISO_5,96,9999,9999,9999,1787776064
6818,16,Jits_ISO_5,97,9999,9999,9999,1788286056
6818,16,Jits_ISO_5,98,9999,9999,9999,1788785716
6818,16,Jits_ISO_5,99,9999,9999,9999,1789285448
6818,16,Jits_ISO_5,100,9999,9999,9999,1789785180
6818,16,Jits_ISO_5,101,9999,9999,9999,1790285888
6818,16,Jits_ISO_5,102,9999,9999,9999,1790785612
6818,16,Jits_ISO_5,103,9999,9999,9999,1791285348
6818,16,Jits_ISO_5,104,9999,9999,9999,1791786052
6818,16,Jits_ISO_5,105,9999,9999,9999,1792285784
6818,16,Jits_ISO_5,106,9999,9999,9999,1792785520
6818,16,Jits_ISO_5,107,9999,9999,9999,1793285228
6818,16,Jits_ISO_5,108,9999,9999,9999,1793785948
6818,16,Jits_ISO_5,109,9999,9999,9999,1794285684
6818,16,Jits_ISO_5,110,9999,9999,9999,1794785340
6818,16,Jits_ISO_5,111,9999,9999,9999,1795286120
6818,16,Jits_ISO_5,112,9999,9999,9999,1795796040
6818,16,Jits_ISO_5,113,9999,9999,9999,1796295776
6818,16,Jits_ISO_5,114,9999,9999,9999,1796795452
6818,16,Jits_ISO_5,115,9999,9999,9999,1797295164
6818,16,Jits_ISO_5,116,9999,9999,9999,1797795940
6818,16,Jits_ISO_5,117,9999,9999,9999,1798295676
6818,16,Jits_ISO_5,118,9999,9999,9999,1798795336
6818,16,Jits_ISO_5,119,9999,9999,9999,1799296108
6819,7,Jits_ISO_8,0,5,56,103,1810627192
6819,7,Jits_ISO_8,1,5,63,98,1810630216
6819,7,Jits_ISO_8,2,5,80,127,1810633260
6819,7,Jits_ISO_8,0,5,56,103,1811426668
6819,7,Jits_ISO_8,1,5,63,98,1811429992
6819,7,Jits_ISO_8,2,5,80,127,1811433036
6819,7,Jits_ISO_8,3,1,48,26,1811580324
6819,7,Jits_ISO_8,0,5,80,127,1812166972
6819,7,Jits_ISO_8,1,5,63,98,1812257212
6819,7,Jits_ISO_8,2,5,56,103,1812267408
6819,7,Jits_ISO_8,3,1,48,30,1812274804
6819,7,Jits_ISO_8,0,5,56,103,1812987152
6819,7,Jits_ISO_8,1,5,63,98,1812996552
6819,7,Jits_ISO_8,2,1,48,33,1813022064
6819,7,Jits_ISO_8,3,5,80,127,1813086600
6819,7,Jits_ISO_8,0,5,63,98,1813757356
6819,7,Jits_ISO_8,1,1,48,34,1813774820
6819,7,Jits_ISO_8,2,5,80,127,1813786976
6819,7,Jits_ISO_8,3,5,56,103,1813816948
6819,7,Jits_ISO_8,0,5,56,103,1814557160
6819,7,Jits_ISO_8,1,1,48,38,1814572932
6819,7,Jits_ISO_8,2,5,80,127,1814657404
6819,7,Jits_ISO_8,3,5,63,98,1814706544
6819,7,Jits_ISO_8,0,5,56,103,1815356960
6819,7,Jits_ISO_8,1,5,80,127,1815406940
6819,7,Jits_ISO_8,2,5,63,98,1815447176
6819,7,Jits_ISO_8,3,1,48,34,1815454704
6819,7,Jits_ISO_8,0,5,80,127,1816187248
6819,7,Jits_ISO_8,1,1,48,35,1816188436
6819,7,Jits_ISO_8,2,5,63,98,1816216920
6819,7,Jits_ISO_8,3,5,56,103,1816286584
6819,7,Jits_ISO_8,0,1,48,37,1817016644
6819,7,Jits_ISO_8,1,5,63,98,1817018056
6819,7,Jits_ISO_8,2,5,56,103,1817047360
6819,7,Jits_ISO_8,3,5,80,127,1817106876
6819,7,Jits_ISO_8,0,5,56,103,1817757164
6819,7,Jits_ISO_8,1,5,80,127,1817760080
6819,7,Jits_ISO_8,2,1,48,37,1817806584
6819,7,Jits_ISO_8,3,5,63,98,1817877052
6819,7,Jits_ISO_8,0,1,48,34,1818581556
6819,7,Jits_ISO_8,1,5,56,103,1818636984
6819,7,Jits_ISO_8,2,5,80,127,1818676772
6819,7,Jits_ISO_8,3,5,63,98,1818686880
6819,7,Jits_ISO_8,0,5,56,103,1819396400
6819,7,Jits_ISO_8,1,5,80,127,1819416936
6819,7,Jits_ISO_8,2,1,48,37,1819424932
6819,7,Jits_ISO_8,3,5,63,98,1819496944
6819,7,Jits_ISO_8,0,5,80,127,1820186980
6819,7,Jits_ISO_8,1,1,48,37,1820284344
6819,7,Jits_ISO_8,2,5,56,103,1820287300
6819,7,Jits_ISO_8,3,5,63,98,1820296600
6819,7,Jits_ISO_8,0,5,63,98,1820957040
6819,7,Jits_ISO_8,1,5,80,127,1821016460
6819,7,Jits_ISO_8,2,5,56,103,1821027028
6819,7,Jits_ISO_8,3,1,48,38,1821072240
6819,7,Jits_ISO_8,0,5,56,103,1821756968
6819,7,Jits_ISO_8,1,1,48,32,1821811404
6819,7,Jits_ISO_8,2,5,63,98,1821826496
6819,7,Jits_ISO_8,3,5,80,127,1821830080
6819,7,Jits_ISO_8,0,5,63,98,1822587248
6819,7,Jits_ISO_8,1,1,48,28,1822596144
6819,7,Jits_ISO_8,2,5,56,103,1822637288
6819,7,Jits_ISO_8,3,5,80,127,1822640360
6819,7,Jits_ISO_8,0,5,56,103,1823347012
6819,7,Jits_ISO_8,1,5,80,127,1823350152
6819,7,Jits_ISO_8,2,1,48,33,1823389012
6819,7,Jits_ISO_8,3,5,63,98,1823437136
6819,7,Jits_ISO_8,0,5,63,98,1824186804
6819,7,Jits_ISO_8,1,1,48,39,1824210524
6819,7,Jits_ISO_8,2,5,56,103,1824276960
6819,7,Jits_ISO_8,3,5,80,127,1824306636
6819,7,Jits_ISO_8,0,5,56,103,1824977376
6819,7,Jits_ISO_8,1,1,48,30,1825015564
6819,7,Jits_ISO_8,2,5,63,98,1825076748
6819,7,Jits_ISO_8,3,5,80,127,1825107244
6819,7,Jits_ISO_8,0,5,63,98,1825796612
6819,7,Jits_ISO_8,1,5,56,103,1825806732
6819,7,Jits_ISO_8,2,1,48,35,1825831496
6819,7,Jits_ISO_8,3,5,80,127,1825896932
6819,7,Jits_ISO_8,0,5,63,98,1826616776
6819,7,Jits_ISO_8,1,1,48,29,1826667700
6819,7,Jits_ISO_8,2,5,56,103,1826696640
6819,7,Jits_ISO_8,3,5,80,127,1826699628
6819,7,Jits_ISO_8,0,5,80,127,1827376696
6819,7,Jits_ISO_8,1,5,63,98,1827396932
6819,7,Jits_ISO_8,2,5,56,103,1827457396
6819,7,Jits_ISO_8,3,1,48,40,1827488088
6819,7,Jits_ISO_8,0,5,56,103,1828217172
6819,7,Jits_ISO_8,1,5,63,98,1828236660
6819,7,Jits_ISO_8,2,5,80,127,1828240024
6819,7,Jits_ISO_8,3,1,48,43,1828302472
6819,7,Jits_ISO_8,0,5,63,98,1828956724
6819,7,Jits_ISO_8,1,5,80,127,1829037572
6819,7,Jits_ISO_8,2,5,56,103,1829046720
6819,7,Jits_ISO_8,3,1,48,36,1829076212
6819,7,Jits_ISO_8,0,5,63,98,1829776812
6819,7,Jits_ISO_8,1,5,56,103,1829797196
6819,7,Jits_ISO_8,2,1,48,36,1829836280
6819,7,Jits_ISO_8,3,5,80,127,1829847540
6819,7,Jits_ISO_8,0,5,80,127,1830576668
6819,7,Jits_ISO_8,1,5,63,98,1830616608
6819,7,Jits_ISO_8,2,5,56,103,1830636844
6819,7,Jits_ISO_8,3,1,48,41,1830678868
6819,7,Jits_ISO_8,0,5,56,103,1831417224
6819,7,Jits_ISO_8,1,5,63,98,1831426548
6819,7,Jits_ISO_8,2,1,48,43,1831440152
6819,7,Jits_ISO_8,3,5,80,127,1831446776
6819,7,Jits_ISO_8,0,5,56,103,1832147272
6819,7,Jits_ISO_8,1,5,63,98,1832237876
6819,7,Jits_ISO_8,2,5,80,127,1832296776
6819,7,Jits_ISO_8,3,1,48,37,1832314716
6819,7,Jits_ISO_8,0,5,80,127,1832976692
6819,7,Jits_ISO_8,1,5,56,103,1832986960
6819,7,Jits_ISO_8,2,5,63,98,1833056492
6819,7,Jits_ISO_8,3,1,48,38,1833123056
6819,7,Jits_ISO_8,0,5,63,98,1833807128
6819,7,Jits_ISO_8,1,5,80,127,1833897264
6819,7,Jits_ISO_8,2,5,56,103,1833906784
6819,7,Jits_ISO_8,3,1,48,43,1833912452
6819,7,Jits_ISO_8,0,5,63,98,1834546680
6819,7,Jits_ISO_8,1,5,80,127,1834596812
6819,7,Jits_ISO_8,2,5,56,103,1834657200
6819,7,Jits_ISO_8,3,1,48,37,1834704360
6819,7,Jits_ISO_8,0,5,56,103,1835377032
6819,7,Jits_ISO_8,1,5,80,127,1835427312
6819,7,Jits_ISO_8,2,5,63,98,1835446500
6819,7,Jits_ISO_8,3,1,48,25,1835513508
6819,7,Jits_ISO_8,0,5,56,103,1836146936
6819,7,Jits_ISO_8,1,5,80,127,1836206576
6819,7,Jits_ISO_8,2,1,48,32,1836274888
6819,7,Jits_ISO_8,3,5,63,98,1836277000
6819,7,Jits_ISO_8,0,5,56,103,1836946732
6819,7,Jits_ISO_8,1,5,80,127,1836976704
6819,7,Jits_ISO_8,2,5,63,98,1837007504
6819,7,Jits_ISO_8,3,1,48,30,1837070952
6819,7,Jits_ISO_8,0,5,56,103,1837786608
6819,7,Jits_ISO_8,1,5,80,127,1837806844
6819,7,Jits_ISO_8,2,1,48,27,1837820896
6819,7,Jits_ISO_8,3,5,63,98,1837867548
6819,7,Jits_ISO_8,0,1,48,26,1838646640
6819,7,Jits_ISO_8,1,5,80,127,1838667188
6819,7,Jits_ISO_8,2,5,56,103,1838677312
6819,7,Jits_ISO_8,3,5,63,98,1838686460
6819,7,Jits_ISO_8,0,5,56,103,1839426980
6819,7,Jits_ISO_8,1,5,80,127,1839466844
6819,7,Jits_ISO_8,2,5,63,98,1839496520
6819,7,Jits_ISO_8,3,1,48,27,1839501204
6819,7,Jits_ISO_8,0,5,56,103,1840197036
6819,7,Jits_ISO_8,1,5,63,98,1840226712
6819,7,Jits_ISO_8,2,5,80,127,1840266576
6819,7,Jits_ISO_8,3,1,48,34,1840309848
6819,7,Jits_ISO_8,0,5,80,127,1840946640
6819,7,Jits_ISO_8,1,5,63,98,1840996768
6819,7,Jits_ISO_8,2,5,56,103,1841017152
6819,7,Jits_ISO_8,3,1,48,30,1841111660
6819,7,Jits_ISO_8,0,5,56,103,1841777000
6819,7,Jits_ISO_8,1,5,80,127,1841846536
6819,7,Jits_ISO_8,2,1,48,35,1841893168
6819,7,Jits_ISO_8,3,5,63,98,1841907140
6819,7,Jits_ISO_8,0,5,80,127,1842576652
6819,7,Jits_ISO_8,1,5,63,98,1842666860
6819,7,Jits_ISO_8,2,5,56,103,1842687544
6819,7,Jits_ISO_8,3,1,48,44,1842724144
6819,7,Jits_ISO_8,0,5,63,98,1843396880
6819,7,Jits_ISO_8,1,5,56,103,1843416516
6819,7,Jits_ISO_8,2,5,80,127,1843457676
6819,7,Jits_ISO_8,3,1,48,38,1843519452
6819,7,Jits_ISO_8,0,5,80,127,1844156724
6819,7,Jits_ISO_8,1,5,63,98,1844177260
6819,7,Jits_ISO_8,2,5,56,103,1844257304
6819,7,Jits_ISO_8,3,1,48,39,1844285604
6819,7,Jits_ISO_8,0,5,63,98,1844947524
6819,7,Jits_ISO_8,1,1,48,37,1844994732
6819,7,Jits_ISO_8,2,5,56,103,1845057008
6819,7,Jits_ISO_8,3,5,80,127,1845059928
6819,7,Jits_ISO_8,0,5,63,98,1845766432
6819,7,Jits_ISO_8,1,5,56,103,1845776852
6819,7,Jits_ISO_8,2,5,80,127,1845779768
6819,7,Jits_ISO_8,3,1,48,35,1845807468
6819,7,Jits_ISO_8,0,1,48,33,1846542324
6819,7,Jits_ISO_8,1,5,56,103,1846546856
6819,7,Jits_ISO_8,2,5,80,127,1846666572
6819,7,Jits_ISO_8,3,5,63,98,1846706512
6819,7,Jits_ISO_8,0,1,48,38,1847340016
6819,7,Jits_ISO_8,1,5,56,103,1847367168
6819,7,Jits_ISO_8,2,5,80,127,1847447028
6819,7,Jits_ISO_8,3,5,63,98,1847467264
6819,7,Jits_ISO_8,0,1,48,43,1848155020
6819,7,Jits_ISO_8,1,5,56,103,1848166728
6819,7,Jits_ISO_8,2,5,63,98,1848277304
6819,7,Jits_ISO_8,3,5,80,127,1848280740
6819,7,Jits_ISO_8,0,1,48,38,1848952160
6819,7,Jits_ISO_8,1,5,56,103,1848997148
6819,7,Jits_ISO_8,2,5,80,127,1849026972
6819,7,Jits_ISO_8,3,5,63,98,1849047492
6819,7,Jits_ISO_8,0,1,48,40,1849771276
6819,7,Jits_ISO_8,1,5,63,98,1849776552
6819,7,Jits_ISO_8,2,5,56,103,1849786676
6819,7,Jits_ISO_8,3,5,80,127,1849797092
6819,7,Jits_ISO_8,0,1,48,33,1850555704
6819,7,Jits_ISO_8,1,5,80,127,1850567112
6819,7,Jits_ISO_8,2,5,56,103,1850617164
6819,7,Jits_ISO_8,3,5,63,98,1850657336
6819,7,Jits_ISO_8,0,1,48,37,1851365372
6819,7,Jits_ISO_8,1,5,80,127,1851387420
6819,7,Jits_ISO_8,2,5,63,98,1851406636
6819,7,Jits_ISO_8,3,5,56,103,1851456912
6819,7,Jits_ISO_8,0,1,48,40,1852146052
6819,7,Jits_ISO_8,1,5,80,127,1852197268
6819,7,Jits_ISO_8,2,5,56,103,1852226944
6819,7,Jits_ISO_8,3,5,63,98,1852296464
6819,7,Jits_ISO_8,0,1,48,40,1852966016
6819,7,Jits_ISO_8,1,5,56,103,1853047104
6819,7,Jits_ISO_8,2,5,80,127,1853057452
6819,7,Jits_ISO_8,3,5,63,98,1853097300
6819,7,Jits_ISO_8,0,5,56,103,1853756768
6819,7,Jits_ISO_8,1,5,63,98,1853777228
6819,7,Jits_ISO_8,2,1,48,40,1853792556
6819,7,Jits_ISO_8,3,5,80,127,1853846828
6819,7,Jits_ISO_8,0,5,63,98,1854577164
6819,7,Jits_ISO_8,1,1,48,43,1854587184
6819,7,Jits_ISO_8,2,5,80,127,1854637328
6819,7,Jits_ISO_8,3,5,56,103,1854657332
6819,7,Jits_ISO_8,0,5,80,127,1855366536
6819,7,Jits_ISO_8,1,5,56,103,1855397336
6819,7,Jits_ISO_8,2,1,48,25,1855419560
6819,7,Jits_ISO_8,3,5,63,98,1855427004
6819,7,Jits_ISO_8,0,5,56,103,1856167228
6819,7,Jits_ISO_8,1,1,48,24,1856196124
6819,7,Jits_ISO_8,2,5,63,98,1856226640
6819,7,Jits_ISO_8,3,5,80,127,1856287280
6819,7,Jits_ISO_8,0,5,80,127,1856986432
6819,7,Jits_ISO_8,1,1,48,38,1856987844
6819,7,Jits_ISO_8,2,5,56,103,1857007108
6819,7,Jits_ISO_8,3,5,63,98,1857076592
6819,7,Jits_ISO_8,0,1,48,34,1857785996
6819,7,Jits_ISO_8,1,5,80,127,1857787492
6819,7,Jits_ISO_8,2,5,63,98,1857806780
6819,7,Jits_ISO_8,3,5,56,103,1857837352
6819,7,Jits_ISO_8,0,1,48,40,1858564876
6819,7,Jits_ISO_8,1,5,80,127,1858576884
6819,7,Jits_ISO_8,2,5,63,98,1858597196
6819,7,Jits_ISO_8,3,5,56,103,1858657044
6819,7,Jits_ISO_8,0,1,48,40,1859359104
6819,7,Jits_ISO_8,1,5,80,127,1859376368
6819,7,Jits_ISO_8,2,5,56,103,1859477196
6819,7,Jits_ISO_8,3,5,63,98,1859506500
6819,7,Jits_ISO_8,0,5,63,98,1860167168
6819,7,Jits_ISO_8,1,1,48,36,1860176880
6819,7,Jits_ISO_8,2,5,80,127,1860217288
6819,7,Jits_ISO_8,3,5,56,103,1860236628
6819,7,Jits_ISO_8,0,1,48,44,1860960992
6819,7,Jits_ISO_8,1,5,80,127,1861006804
6819,7,Jits_ISO_8,2,5,56,103,1861037524
6819,7,Jits_ISO_8,3,5,63,98,1861040368
6819,7,Jits_ISO_8,0,1,48,35,1861746692
6819,7,Jits_ISO_8,1,5,63,98,1861837148
6819,7,Jits_ISO_8,2,5,56,103,1861877000
6819,7,Jits_ISO_8,3,5,80,127,1861896584
6819,7,Jits_ISO_8,0,1,48,41,1862566336
6819,7,Jits_ISO_8,1,5,80,127,1862576552
6819,7,Jits_ISO_8,2,5,63,98,1862657272
6819,7,Jits_ISO_8,3,5,56,103,1862697196
6819,7,Jits_ISO_8,0,1,48,43,1863341168
6819,7,Jits_ISO_8,1,5,63,98,1863396864
6819,7,Jits_ISO_8,2,5,80,127,1863476524
6819,7,Jits_ISO_8,3,5,56,103,1863497132
6819,7,Jits_ISO_8,0,1,48,38,1864137064
6819,7,Jits_ISO_8,1,5,56,103,1864237420
6819,7,Jits_ISO_8,2,5,63,98,1864246796
6819,7,Jits_ISO_8,3,5,80,127,1864286584
6819,7,Jits_ISO_8,0,5,56,103,1864957336
6819,7,Jits_ISO_8,1,5,80,127,1864960428
6819,7,Jits_ISO_8,2,1,48,36,1864968204
6819,7,Jits_ISO_8,3,5,63,98,1865096916
6819,7,Jits_ISO_8,0,5,56,103,1865746740
6819,7,Jits_ISO_8,1,1,48,36,1865821024
6819,7,Jits_ISO_8,2,5,63,98,1865836868
6819,7,Jits_ISO_8,3,5,80,127,1865906400
6819,7,Jits_ISO_8,0,1,48,38,1866605396
6819,7,Jits_ISO_8,1,5,63,98,1866626396
6819,7,Jits_ISO_8,2,5,80,127,1866629980
6819,7,Jits_ISO_8,3,5,56,103,1866686860
6819,7,Jits_ISO_8,0,1,48,40,1867378124
6819,7,Jits_ISO_8,1,5,80,127,1867467084
6819,7,Jits_ISO_8,2,5,56,103,1867486556
6819,7,Jits_ISO_8,3,5,63,98,1867497196
6819,7,Jits_ISO_8,0,1,48,43,1868153700
6819,7,Jits_ISO_8,1,5,56,103,1868176964
6819,7,Jits_ISO_8,2,5,63,98,1868187012
6819,7,Jits_ISO_8,3,5,80,127,1868256828
6819,7,Jits_ISO_8,0,5,80,127,1868976380
6819,7,Jits_ISO_8,1,1,48,35,1868986172
6819,7,Jits_ISO_8,2,5,56,103,1869026728
6819,7,Jits_ISO_8,3,5,63,98,1869076880
6819,7,Jits_ISO_8,0,1,48,40,1869771492
6819,7,Jits_ISO_8,1,5,56,103,1869857040
6819,7,Jits_ISO_8,2,5,63,98,1869867312
6819,7,Jits_ISO_8,3,5,80,127,1869907308
6819,7,Jits_ISO_8,0,5,56,103,1870596452
6819,7,Jits_ISO_8,1,5,63,98,1870637364
6819,7,Jits_ISO_8,2,1,48,30,1870657868
6819,7,Jits_ISO_8,3,5,80,127,1870686512
6819,7,Jits_ISO_8,0,5,80,127,1871357412
6819,7,Jits_ISO_8,1,5,56,103,1871406668
6819,7,Jits_ISO_8,2,5,63,98,1871426904
6819,7,Jits_ISO_8,3,1,48,32,1871462832
6819,7,Jits_ISO_8,0,5,80,127,1872167500
6819,7,Jits_ISO_8,1,5,63,98,1872226848
6819,7,Jits_ISO_8,2,1,48,28,1872250640
6819,7,Jits_ISO_8,3,5,56,103,1872306860
6819,7,Jits_ISO_8,0,5,80,127,1872946700
6819,7,Jits_ISO_8,1,5,56,103,1872986788
6819,7,Jits_ISO_8,2,5,63,98,1873006880
6819,7,Jits_ISO_8,3,1,48,33,1873060112
6819,7,Jits_ISO_8,0,5,56,103,1873796768
6819,7,Jits_ISO_8,1,5,80,127,1873806964
6819,7,Jits_ISO_8,2,1,48,25,1873814196
6819,7,Jits_ISO_8,3,5,63,98,1873846820
6819,7,Jits_ISO_8,0,1,48,41,1874600352
6819,7,Jits_ISO_8,1,5,56,103,1874666988
6819,7,Jits_ISO_8,2,5,63,98,1874707012
6819,7,Jits_ISO_8,3,5,80,127,1874710080
6819,7,Jits_ISO_8,0,5,63,98,1875357020
6819,7,Jits_ISO_8,1,1,48,38,1875381860
6819,7,Jits_ISO_8,2,5,80,127,1875396952
6819,7,Jits_ISO_8,3,5,56,103,1875466584
6819,7,Jits_ISO_8,0,5,63,98,1876146612
6819,7,Jits_ISO_8,1,5,56,103,1876226508
6819,7,Jits_ISO_8,2,1,48,36,1876257352
6819,7,Jits_ISO_8,3,5,80,127,1876286816
6819,7,Jits_ISO_8,0,5,80,127,1876956584
6819,7,Jits_ISO_8,1,5,63,98,1877006888
6819,7,Jits_ISO_8,2,5,56,103,1877037384
6819,7,Jits_ISO_8,3,1,48,35,1877046052
6819,7,Jits_ISO_8,0,5,56,103,1877747088
6819,7,Jits_ISO_8,1,5,63,98,1877797168
6819,7,Jits_ISO_8,2,5,80,127,1877806612
6819,7,Jits_ISO_8,3,1,48,31,1877810260
6819,7,Jits_ISO_8,0,5,56,103,1878557020
6819,7,Jits_ISO_8,1,1,48,37,1878606972
6819,7,Jits_ISO_8,2,5,63,98,1878666632
6819,7,Jits_ISO_8,3,5,80,127,1878687016
6819,7,Jits_ISO_8,0,5,63,98,1879356896
6819,7,Jits_ISO_8,1,5,80,127,1879407024
6819,7,Jits_ISO_8,2,5,56,103,1879496932
6819,7,Jits_ISO_8,3,1,48,36,1879499980
6819,7,Jits_ISO_8,0,5,63,98,1880147240
6819,7,Jits_ISO_8,1,5,80,127,1880176992
6819,7,Jits_ISO_8,2,1,48,32,1880267496
6819,7,Jits_ISO_8,3,5,56,103,1880268612
6819,7,Jits_ISO_8,0,5,63,98,1880947024
6819,7,Jits_ISO_8,1,5,56,103,1880957292
6819,7,Jits_ISO_8,2,1,48,28,1881046648
6819,7,Jits_ISO_8,3,5,80,127,1881056636
6819,7,Jits_ISO_8,0,1,48,26,1881778836
6819,7,Jits_ISO_8,1,5,63,98,1881847492
6819,7,Jits_ISO_8,2,5,80,127,1881877928
6819,7,Jits_ISO_8,3,5,56,103,1881906484
6819,7,Jits_ISO_8,0,1,48,33,1882559224
6819,7,Jits_ISO_8,1,5,80,127,1882667600
6819,7,Jits_ISO_8,2,5,63,98,1882676528
6819,7,Jits_ISO_8,3,5,56,103,1882707396
6819,7,Jits_ISO_8,0,1,48,32,1883361112
6819,7,Jits_ISO_8,1,5,80,127,1883366840
6819,7,Jits_ISO_8,2,5,63,98,1883387224
6819,7,Jits_ISO_8,3,5,56,103,1883437524
6819,7,Jits_ISO_8,0,1,48,29,1884156032
6819,7,Jits_ISO_8,1,5,63,98,1884197136
6819,7,Jits_ISO_8,2,5,80,127,1884256620
6819,7,Jits_ISO_8,3,5,56,103,1884277004
6819,7,Jits_ISO_8,0,5,63,98,1884957000
6819,7,Jits_ISO_8,1,5,56,103,1885007352
6819,7,Jits_ISO_8,2,5,80,127,1885016576
6819,7,Jits_ISO_8,3,1,48,32,1885024872
6819,7,Jits_ISO_8,0,5,56,103,1885786452
6819,7,Jits_ISO_8,1,5,80,127,1885796576
6819,7,Jits_ISO_8,2,1,48,35,1885805020
6819,7,Jits_ISO_8,3,5,63,98,1885897172
6819,7,Jits_ISO_8,0,5,80,127,1886547512
6819,7,Jits_ISO_8,1,5,63,98,1886556588
6819,7,Jits_ISO_8,2,1,48,32,1886608252
6819,7,Jits_ISO_8,3,5,56,103,1886707020
6819,7,Jits_ISO_8,0,5,63,98,1887357496
6819,7,Jits_ISO_8,1,5,80,127,1887397364
6819,7,Jits_ISO_8,2,1,48,33,1887398400
6819,7,Jits_ISO_8,3,5,56,103,1887477372
6819,7,Jits_ISO_8,0,5,56,103,1888146716
6819,7,Jits_ISO_8,1,1,48,33,1888192232
6819,7,Jits_ISO_8,2,5,80,127,1888247112
6819,7,Jits_ISO_8,3,5,63,98,1888266624
6819,7,Jits_ISO_8,0,1,48,32,1888953212
6819,7,Jits_ISO_8,1,5,80,127,1889006896
6819,7,Jits_ISO_8,2,5,56,103,1889017392
6819,7,Jits_ISO_8,3,5,63,98,1889107532
6819,7,Jits_ISO_8,0,1,48,42,1889716224
6819,7,Jits_ISO_8,1,5,56,103,1889806636
6819,7,Jits_ISO_8,2,5,63,98,1889827228
6819,7,Jits_ISO_8,3,5,80,127,1889906948
6819,7,Jits_ISO_8,0,1,48,33,1890484400
6819,7,Jits_ISO_8,1,5,63,98,1890557464
6819,7,Jits_ISO_8,2,5,56,103,1890647304
6819,7,Jits_ISO_8,3,5,80,127,1890650452
6819,7,Jits_ISO_8,0,1,48,31,1891265508
6819,7,Jits_ISO_8,1,5,56,103,1891386696
6819,7,Jits_ISO_8,2,5,80,127,1891447236
6819,7,Jits_ISO_8,3,5,63,98,1891457360
6819,7,Jits_ISO_8,0,1,48,29,1892010292
6819,7,Jits_ISO_8,1,5,80,127,1892236752
6819,7,Jits_ISO_8,2,5,56,103,1892247024
6819,7,Jits_ISO_8,3,5,63,98,1892250312
6819,7,Jits_ISO_8,0,1,48,26,1892859444
6819,7,Jits_ISO_8,1,5,56,103,1892996596
6819,7,Jits_ISO_8,2,5,80,127,1893006792
6819,7,Jits_ISO_8,3,5,63,98,1893027176
6819,7,Jits_ISO_8,0,1,48,31,1893659852
6819,7,Jits_ISO_8,1,5,63,98,1893766556
6819,7,Jits_ISO_8,2,5,80,127,1893826876
6819,7,Jits_ISO_8,3,5,56,103,1893877224
6819,7,Jits_ISO_8,0,1,48,27,1894479116
6819,7,Jits_ISO_8,1,5,63,98,1894647332
6819,7,Jits_ISO_8,2,5,56,103,1894657404
6819,7,Jits_ISO_8,3,5,80,127,1894706560
6819,7,Jits_ISO_8,0,1,48,25,1895289468
6819,7,Jits_ISO_8,1,5,63,98,1895346668
6819,7,Jits_ISO_8,2,5,80,127,1895367348
6819,7,Jits_ISO_8,3,5,56,103,1895377172
6819,7,Jits_ISO_8,0,1,48,34,1896051476
6819,7,Jits_ISO_8,1,5,63,98,1896147264
6819,7,Jits_ISO_8,2,5,80,127,1896151360
6819,7,Jits_ISO_8,3,5,56,103,1896187484
6819,7,Jits_ISO_8,0,1,48,30,1896902336
6819,7,Jits_ISO_8,1,5,63,98,1897016568
6819,7,Jits_ISO_8,2,5,80,127,1897047440
6819,7,Jits_ISO_8,3,5,56,103,1897056664
6819,7,Jits_ISO_8,0,1,48,29,1897745472
6819,7,Jits_ISO_8,1,5,56,103,1897767296
6819,7,Jits_ISO_8,2,5,80,127,1897797192
6819,7,Jits_ISO_8,3,5,63,98,1897826644
6819,7,Jits_ISO_8,0,1,48,33,1898527116
6819,7,Jits_ISO_8,1,5,63,98,1898667456
6819,7,Jits_ISO_8,2,5,56,103,1898707244
6819,7,Jits_ISO_8,3,5,80,127,1898710236
6819,7,Jits_ISO_8,0,1,48,26,1899335664
6819,7,Jits_ISO_8,1,5,80,127,1899366784
6819,7,Jits_ISO_8,2,5,56,103,1899446644
6819,7,Jits_ISO_8,3,5,63,98,1899496696
6819,7,Jits_ISO_8,0,1,48,29,1900124296
6819,7,Jits_ISO_8,1,5,80,127,1900147240
6819,7,Jits_ISO_8,2,5,56,103,1900166428
6819,7,Jits_ISO_8,3,5,63,98,1900256620
6819,7,Jits_ISO_8,0,1,48,33,1900898068
6819,7,Jits_ISO_8,1,5,80,127,1900986732
6819,7,Jits_ISO_8,2,5,63,98,1901026732
6819,7,Jits_ISO_8,3,5,56,103,1901066692
6819,7,Jits_ISO_8,0,1,48,33,1901654920
6819,7,Jits_ISO_8,1,5,63,98,1901756680
6819,7,Jits_ISO_8,2,5,80,127,1901817372
6819,7,Jits_ISO_8,3,5,56,103,1901846996
6819,7,Jits_ISO_8,0,1,48,32,1902432664
6819,7,Jits_ISO_8,1,5,56,103,1902556460
6819,7,Jits_ISO_8,2,5,80,127,1902587260
6819,7,Jits_ISO_8,3,5,63,98,1902677340
6819,7,Jits_ISO_8,0,1,48,33,1903245572
6819,7,Jits_ISO_8,1,5,56,103,1903366456
6819,7,Jits_ISO_8,2,5,80,127,1903477120
6819,7,Jits_ISO_8,3,5,63,98,1903506796
6819,7,Jits_ISO_8,0,1,48,30,1904054108
6819,7,Jits_ISO_8,1,5,56,103,1904216444
6819,7,Jits_ISO_8,2,5,63,98,1904276912
6819,7,Jits_ISO_8,3,5,80,127,1904306512
6819,7,Jits_ISO_8,0,1,48,31,1904825820
6819,7,Jits_ISO_8,1,5,56,103,1904986416
6819,7,Jits_ISO_8,2,5,63,98,1905057368
6819,7,Jits_ISO_8,3,5,80,127,1905076556
6819,7,Jits_ISO_8,0,1,48,34,1905595708
6819,7,Jits_ISO_8,1,5,80,127,1905756456
6819,7,Jits_ISO_8,2,5,63,98,1905777064
6819,7,Jits_ISO_8,3,5,56,103,1905827188
6819,7,Jits_ISO_8,0,9999,9999,9999,1811025008
6819,7,Jits_ISO_8,1,9999,9999,9999,1811824764
6819,7,Jits_ISO_8,2,9999,9999,9999,1812624488
6819,7,Jits_ISO_8,3,9999,9999,9999,1813424212
6819,7,Jits_ISO_8,4,9999,9999,9999,1814224972
6819,7,Jits_ISO_8,5,9999,9999,9999,1815024764
6819,7,Jits_ISO_8,6,9999,9999,9999,1815824436
6819,7,Jits_ISO_8,7,9999,9999,9999,1816624232
6819,7,Jits_ISO_8,8,9999,9999,9999,1817425008
6819,7,Jits_ISO_8,9,9999,9999,9999,1818224700
6819,7,Jits_ISO_8,10,9999,9999,9999,1819024504
6819,7,Jits_ISO_8,11,9999,9999,9999,1819824216
6819,7,Jits_ISO_8,12,9999,9999,9999,1820624992
6819,7,Jits_ISO_8,13,9999,9999,9999,1821424712
6819,7,Jits_ISO_8,14,9999,9999,9999,1822224508
6819,7,Jits_ISO_8,15,9999,9999,9999,1823024220
6819,7,Jits_ISO_8,16,9999,9999,9999,1823824960
6819,7,Jits_ISO_8,17,9999,9999,9999,1824624692
6819,7,Jits_ISO_8,18,9999,9999,9999,1825424480
6819,7,Jits_ISO_8,19,9999,9999,9999,1826224204
6819,7,Jits_ISO_8,20,9999,9999,9999,1827024956
6819,7,Jits_ISO_8,21,9999,9999,9999,1827824736
6819,7,Jits_ISO_8,22,9999,9999,9999,1828624476
6819,7,Jits_ISO_8,23,9999,9999,9999,1829424200
6819,7,Jits_ISO_8,24,9999,9999,9999,1830224952
6819,7,Jits_ISO_8,25,9999,9999,9999,1831024736
6819,7,Jits_ISO_8,26,9999,9999,9999,1831824464
6819,7,Jits_ISO_8,27,9999,9999,9999,1832624188
6819,7,Jits_ISO_8,28,9999,9999,9999,1833424956
6819,7,Jits_ISO_8,29,9999,9999,9999,1834224760
6819,7,Jits_ISO_8,30,9999,9999,9999,1835024492
6819,7,Jits_ISO_8,31,9999,9999,9999,1835824204
6819,7,Jits_ISO_8,32,9999,9999,9999,1836624972
6819,7,Jits_ISO_8,33,9999,9999,9999,1837424764
6819,7,Jits_ISO_8,34,9999,9999,9999,1838224488
6819,7,Jits_ISO_8,35,9999,9999,9999,1839024216
6819,7,Jits_ISO_8,36,9999,9999,9999,1839824980
6819,7,Jits_ISO_8,37,9999,9999,9999,1840624704
6819,7,Jits_ISO_8,38,9999,9999,9999,1841424448
6819,7,Jits_ISO_8,39,9999,9999,9999,1842224248
6819,7,Jits_ISO_8,40,9999,9999,9999,1843024996
6819,7,Jits_ISO_8,41,9999,9999,9999,1843824720
6819,7,Jits_ISO_8,42,9999,9999,9999,1844624496
6819,7,Jits_ISO_8,43,9999,9999,9999,1845424212
6819,7,Jits_ISO_8,44,9999,9999,9999,1846224948
6819,7,Jits_ISO_8,45,9999,9999,9999,1847024732
6819,7,Jits_ISO_8,46,9999,9999,9999,1847824464
6819,7,Jits_ISO_8,47,9999,9999,9999,1848624240
6819,7,Jits_ISO_8,48,9999,9999,9999,1849424996
6819,7,Jits_ISO_8,49,9999,9999,9999,1850224696
6819,7,Jits_ISO_8,50,9999,9999,9999,1851024480
6819,7,Jits_ISO_8,51,9999,9999,9999,1851824188
6819,7,Jits_ISO_8,52,9999,9999,9999,1852624948
6819,7,Jits_ISO_8,53,9999,9999,9999,1853424736
6819,7,Jits_ISO_8,54,9999,9999,9999,1854224464
6819,7,Jits_ISO_8,55,9999,9999,9999,1855024188
6819,7,Jits_ISO_8,56,9999,9999,9999,1855825016
6819,7,Jits_ISO_8,57,9999,9999,9999,1856624740
6819,7,Jits_ISO_8,58,9999,9999,9999,1857424460
6819,7,Jits_ISO_8,59,9999,9999,9999,1858224180
6819,7,Jits_ISO_8,60,9999,9999,9999,1859025008
6819,7,Jits_ISO_8,61,9999,9999,9999,1859824720
6819,7,Jits_ISO_8,62,9999,9999,9999,1860624452
6819,7,Jits_ISO_8,63,9999,9999,9999,1861424228
6819,7,Jits_ISO_8,64,9999,9999,9999,1862224992
6819,7,Jits_ISO_8,65,9999,9999,9999,1863024704
6819,7,Jits_ISO_8,66,9999,9999,9999,1863824492
6819,7,Jits_ISO_8,67,9999,9999,9999,1864624208
6819,7,Jits_ISO_8,68,9999,9999,9999,1865424952
6819,7,Jits_ISO_8,69,9999,9999,9999,1866224752
6819,7,Jits_ISO_8,70,9999,9999,9999,1867024492
6819,7,Jits_ISO_8,71,9999,9999,9999,1867824212
6819,7,Jits_ISO_8,72,9999,9999,9999,1868624964
6819,7,Jits_ISO_8,73,9999,9999,9999,1869424752
6819,7,Jits_ISO_8,74,9999,9999,9999,1870224484
6819,7,Jits_ISO_8,75,9999,9999,9999,1871024196
6819,7,Jits_ISO_8,76,9999,9999,9999,1871824964
6819,7,Jits_ISO_8,77,9999,9999,9999,1872624692
6819,7,Jits_ISO_8,78,9999,9999,9999,1873424436
6819,7,Jits_ISO_8,79,9999,9999,9999,1874224236
6819,7,Jits_ISO_8,80,9999,9999,9999,1875025008
6819,7,Jits_ISO_8,81,9999,9999,9999,1875824716
6819,7,Jits_ISO_8,82,9999,9999,9999,1876624500
6819,7,Jits_ISO_8,83,9999,9999,9999,1877424208
6819,7,Jits_ISO_8,84,9999,9999,9999,1878224972
6819,7,Jits_ISO_8,85,9999,9999,9999,1879024700
6819,7,Jits_ISO_8,86,9999,9999,9999,1879824448
6819,7,Jits_ISO_8,87,9999,9999,9999,1880624232
6819,7,Jits_ISO_8,88,9999,9999,9999,1881424984
6819,7,Jits_ISO_8,89,9999,9999,9999,1882224704
6819,7,Jits_ISO_8,90,9999,9999,9999,1883024496
6819,7,Jits_ISO_8,91,9999,9999,9999,1883824204
6819,7,Jits_ISO_8,92,9999,9999,9999,1884624964
6819,7,Jits_ISO_8,93,9999,9999,9999,1885424748
6819,7,Jits_ISO_8,94,9999,9999,9999,1886224480
6819,7,Jits_ISO_8,95,9999,9999,9999,1887024204
6819,7,Jits_ISO_8,96,9999,9999,9999,1887824972
6819,7,Jits_ISO_8,97,9999,9999,9999,1888624756
6819,7,Jits_ISO_8,98,9999,9999,9999,1889424484
6819,7,Jits_ISO_8,99,9999,9999,9999,1890224196
6819,7,Jits_ISO_8,100,9999,9999,9999,1891025012
6819,7,Jits_ISO_8,101,9999,9999,9999,1891824724
6819,7,Jits_ISO_8,102,9999,9999,9999,1892624452
6819,7,Jits_ISO_8,103,9999,9999,9999,1893424232
6819,7,Jits_ISO_8,104,9999,9999,9999,1894224988
6819,7,Jits_ISO_8,105,9999,9999,9999,1895024704
6819,7,Jits_ISO_8,106,9999,9999,9999,1895824480
6819,7,Jits_ISO_8,107,9999,9999,9999,1896624244
6819,7,Jits_ISO_8,108,9999,9999,9999,1897425004
6819,7,Jits_ISO_8,109,9999,9999,9999,1898224708
6819,7,Jits_ISO_8,110,9999,9999,9999,1899024444
6819,7,Jits_ISO_8,111,9999,9999,9999,1899824232
6819,7,Jits_ISO_8,112,9999,9999,9999,1900624980
6819,7,Jits_ISO_8,113,9999,9999,9999,1901424692
6819,7,Jits_ISO_8,114,9999,9999,9999,1902224472
6819,7,Jits_ISO_8,115,9999,9999,9999,1903024180
6819,7,Jits_ISO_8,116,9999,9999,9999,1903825016
6819,7,Jits_ISO_8,117,9999,9999,9999,1904624732
6819,7,Jits_ISO_8,118,9999,9999,9999,1905424468
6819,7,Jits_ISO_8,119,9999,9999,9999,1906224244
6821,5,ISIP_5,0,5,42,127,2044113236
6821,5,ISIP_5,1,5,42,127,2044613100
6821,5,ISIP_5,2,1,48,19,2044687456
6821,5,ISIP_5,3,5,42,127,2045112648
6821,5,ISIP_5,4,1,48,21,2045148076
6821,5,ISIP_5,5,5,42,127,2045613316
6821,5,ISIP_5,6,1,48,27,2045632360
6821,5,ISIP_5,7,5,42,127,2046113084
6821,5,ISIP_5,8,1,48,22,2046124136
6821,5,ISIP_5,9,5,42,127,2046613000
6821,5,ISIP_5,10,1,48,25,2046640432
6821,5,ISIP_5,11,1,48,25,2047108320
6821,5,ISIP_5,12,5,42,127,2047112540
6821,5,ISIP_5,13,1,48,25,2047595368
6821,5,ISIP_5,14,5,42,127,2047613208
6821,5,ISIP_5,15,1,48,32,2048091252
6821,5,ISIP_5,16,5,42,127,2048112976
6821,5,ISIP_5,17,5,42,127,2048612824
6821,5,ISIP_5,18,1,48,19,2048618488
6821,5,ISIP_5,19,1,48,27,2049107620
6821,5,ISIP_5,20,5,42,127,2049112364
6821,5,ISIP_5,21,5,42,127,2049613112
6821,5,ISIP_5,22,1,48,28,2049622516
6821,5,ISIP_5,23,1,48,32,2050110224
6821,5,ISIP_5,24,5,42,127,2050113024
6821,5,ISIP_5,25,1,48,31,2050603784
6821,5,ISIP_5,26,5,42,127,2050612568
6821,5,ISIP_5,27,1,48,28,2051091588
6821,5,ISIP_5,28,5,42,127,2051113236
6821,5,ISIP_5,29,1,48,29,2051599884
6821,5,ISIP_5,30,5,42,127,2051613156
6821,5,ISIP_5,31,1,48,32,2052087836
6821,5,ISIP_5,32,5,42,127,2052112848
6821,5,ISIP_5,33,1,48,25,2052611648
6821,5,ISIP_5,34,5,42,127,2052613220
6821,5,ISIP_5,35,1,48,29,2053097148
6821,5,ISIP_5,36,5,42,127,2053113212
6821,5,ISIP_5,37,5,42,127,2053612812
6821,5,ISIP_5,38,1,48,26,2053615556
6821,5,ISIP_5,39,1,48,27,2054108432
6821,5,ISIP_5,40,5,42,127,2054112800
6821,5,ISIP_5,41,1,48,26,2054610072
6821,5,ISIP_5,42,5,42,127,2054613468
6821,5,ISIP_5,43,5,42,127,2055113020
6821,5,ISIP_5,44,1,48,29,2055126912
6821,5,ISIP_5,45,5,42,127,2055612940
6821,5,ISIP_5,46,1,48,28,2055623240
6821,5,ISIP_5,47,1,48,25,2056112560
6821,5,ISIP_5,48,5,42,127,2056113896
6821,5,ISIP_5,49,1,48,24,2056589776
6821,5,ISIP_5,50,5,42,127,2056613296
6821,5,ISIP_5,51,1,48,29,2057084084
6821,5,ISIP_5,52,5,42,127,2057112988
6821,5,ISIP_5,53,1,48,29,2057612544
6821,5,ISIP_5,54,5,42,127,2057613880
6821,5,ISIP_5,55,5,42,127,2058113436
6821,5,ISIP_5,56,1,48,26,2058130316
6821,5,ISIP_5,57,5,42,127,2058613052
6821,5,ISIP_5,58,1,48,28,2058643248
6821,5,ISIP_5,59,1,48,36,2059095952
6821,5,ISIP_5,60,5,42,127,2059112744
6821,5,ISIP_5,61,1,48,27,2059583304
6821,5,ISIP_5,62,5,42,127,2059612588
6821,5,ISIP_5,63,1,48,33,2060083000
6821,5,ISIP_5,64,5,42,127,2060113256
6821,5,ISIP_5,65,5,42,127,2060612884
6821,5,ISIP_5,66,1,48,32,2060668140
6821,5,ISIP_5,67,5,42,127,2061112728
6821,5,ISIP_5,68,1,48,30,2061141204
6821,5,ISIP_5,69,5,42,127,2061613620
6821,5,ISIP_5,70,1,48,29,2061661692
6821,5,ISIP_5,71,5,42,127,2062113092
6821,5,ISIP_5,72,1,48,22,2062144636
6821,5,ISIP_5,73,5,42,127,2062612932
6821,5,ISIP_5,74,1,48,28,2062645528
6821,5,ISIP_5,75,1,48,27,2063110968
6821,5,ISIP_5,76,5,42,127,2063112552
6821,5,ISIP_5,77,1,48,34,2063590048
6821,5,ISIP_5,78,5,42,127,2063613220
6821,5,ISIP_5,79,1,48,33,2064114140
6821,5,ISIP_5,80,1,48,28,2064609776
6821,5,ISIP_5,81,1,48,27,2065112620
6821,5,ISIP_5,82,1,48,25,2065641108
6821,5,ISIP_5,83,1,48,28,2066113272
6821,5,ISIP_5,84,1,48,28,2066607416
6821,5,ISIP_5,85,1,48,28,2067128440
6821,5,ISIP_5,86,1,48,26,2067605748
6821,5,ISIP_5,87,1,48,27,2068118992
6821,5,ISIP_5,88,1,48,27,2068629004
6821,5,ISIP_5,89,1,48,27,2069135048
6821,5,ISIP_5,90,1,48,28,2069647084
6821,5,ISIP_5,91,1,48,25,2070147152
6821,5,ISIP_5,92,1,48,28,2070641004
6821,5,ISIP_5,93,1,48,26,2071155652
6821,5,ISIP_5,94,1,48,31,2071647644
6821,5,ISIP_5,95,1,48,31,2072106328
6821,5,ISIP_5,96,1,48,21,2072616800
6821,5,ISIP_5,97,1,48,21,2073142524
6821,5,ISIP_5,98,1,48,23,2073652240
6821,5,ISIP_5,99,1,48,25,2074140712
6821,5,ISIP_5,100,1,48,20,2074646536
6821,5,ISIP_5,101,1,48,30,2075123760
6821,5,ISIP_5,102,1,48,30,2075578832
6821,5,ISIP_5,103,1,48,29,2076092204
6821,5,ISIP_5,104,1,48,24,2076627296
6821,5,ISIP_5,105,1,48,27,2077110676
6821,5,ISIP_5,106,1,48,24,2077603920
6821,5,ISIP_5,107,1,48,26,2078096436
6821,5,ISIP_5,108,1,48,32,2078563132
6821,5,ISIP_5,109,1,48,27,2079048240
6821,5,ISIP_5,110,1,48,28,2079542544
6821,5,ISIP_5,111,1,48,30,2080009476
6821,5,ISIP_5,112,1,48,25,2080518296
6821,5,ISIP_5,113,1,48,27,2081020748
6821,5,ISIP_5,114,1,48,21,2081512336
6821,5,ISIP_5,115,1,48,28,2081972156
6821,5,ISIP_5,116,1,48,27,2082453752
6821,5,ISIP_5,117,1,48,31,2082931376
6821,5,ISIP_5,118,1,48,30,2083413040
6821,5,ISIP_5,119,1,48,29,2083896728
6821,5,ISIP_5,120,1,48,29,2084399556
6821,5,ISIP_5,121,1,48,32,2084870672
6821,5,ISIP_5,122,1,48,29,2085344156
6821,5,ISIP_5,123,1,48,28,2085818268
6821,5,ISIP_5,124,1,48,34,2086296196
6821,5,ISIP_5,125,1,48,33,2086773968
6821,5,ISIP_5,126,1,48,30,2087269168
6821,5,ISIP_5,127,1,48,34,2087762132
6821,5,ISIP_5,128,1,48,27,2088258904
6821,5,ISIP_5,129,1,48,27,2088754932
6821,5,ISIP_5,130,1,48,34,2089197152
6821,5,ISIP_5,131,1,48,33,2089673280
6821,5,ISIP_5,132,1,48,27,2090187556
6821,5,ISIP_5,133,1,48,32,2090651940
6821,5,ISIP_5,134,1,48,35,2091143256
6821,5,ISIP_5,135,1,48,28,2091636436
6821,5,ISIP_5,136,1,48,29,2092135976
6821,5,ISIP_5,137,1,48,32,2092606636
6821,5,ISIP_5,138,1,48,27,2093109540
6821,5,ISIP_5,139,1,48,27,2093599504
6821,5,ISIP_5,140,1,48,30,2094098604
6821,5,ISIP_5,141,1,48,32,2094589464
6821,5,ISIP_5,142,1,48,30,2095073120
6821,5,ISIP_5,143,1,48,32,2095571544
6821,5,ISIP_5,144,1,48,28,2096053128
6821,5,ISIP_5,145,1,48,33,2096520216
6821,5,ISIP_5,146,1,48,27,2096983180
6821,5,ISIP_5,147,1,48,28,2097462820
6821,5,ISIP_5,148,1,48,25,2097935588
6821,5,ISIP_5,149,1,48,21,2098430488
6821,5,ISIP_5,150,1,48,26,2098909884
6821,5,ISIP_5,151,1,48,34,2099370680
6821,5,ISIP_5,152,1,48,31,2099858180
6821,5,ISIP_5,153,1,48,28,2100322112
6821,5,ISIP_5,154,1,48,29,2100816048
6821,5,ISIP_5,155,1,48,31,2101276616
6821,5,ISIP_5,156,1,48,26,2101775184
6821,5,ISIP_5,157,1,48,34,2102248000
6821,5,ISIP_5,158,1,48,29,2102735128
6821,5,ISIP_5,159,1,48,27,2103202724
6821,5,ISIP_5,160,1,48,27,2103673172
6821,5,ISIP_5,161,1,48,27,2104137484
6821,5,ISIP_5,162,1,48,32,2104612268
6821,5,ISIP_5,163,1,48,32,2105060608
6821,5,ISIP_5,164,1,48,32,2105555212
6821,5,ISIP_5,165,1,48,32,2106017056
6821,5,ISIP_5,166,1,48,25,2106484132
6821,5,ISIP_5,167,1,48,25,2106946200
6821,5,ISIP_5,168,1,48,28,2107417540
6821,5,ISIP_5,169,1,48,29,2107876448
6821,5,ISIP_5,170,1,48,32,2108364840
6821,5,ISIP_5,171,1,48,31,2108873880
6821,5,ISIP_5,172,1,48,29,2109385388
6821,5,ISIP_5,173,1,48,28,2109877220
6821,5,ISIP_5,174,1,48,24,2110358888
6821,5,ISIP_5,175,1,48,32,2110835768
6821,5,ISIP_5,176,1,48,29,2111304864
6821,5,ISIP_5,177,1,48,32,2111799916
6821,5,ISIP_5,178,1,48,28,2112295864
6821,5,ISIP_5,179,1,48,28,2112758984
6821,5,ISIP_5,180,1,48,31,2113231124
6821,5,ISIP_5,181,1,48,33,2113716676
6821,5,ISIP_5,182,1,48,28,2114202600
6821,5,ISIP_5,183,1,48,33,2114656668
6821,5,ISIP_5,184,1,48,33,2115128532
6821,5,ISIP_5,185,1,48,28,2115617080
6821,5,ISIP_5,186,1,48,38,2116076260
6821,5,ISIP_5,187,1,48,33,2116528608
6821,5,ISIP_5,188,1,48,34,2117011240
6821,5,ISIP_5,189,1,48,37,2117481540
6821,5,ISIP_5,190,1,48,32,2117923932
6821,5,ISIP_5,191,1,48,24,2118420328
6821,5,ISIP_5,192,1,48,33,2118878264
6821,5,ISIP_5,193,1,48,30,2119358728
6821,5,ISIP_5,194,1,48,33,2119838596
6821,5,ISIP_5,195,1,48,35,2120302456
6821,5,ISIP_5,196,1,48,28,2120796016
6821,5,ISIP_5,197,1,48,31,2121270652
6821,5,ISIP_5,198,1,48,31,2121735712
6821,5,ISIP_5,199,1,48,37,2122208224
6821,5,ISIP_5,200,1,48,33,2122674032
6821,5,ISIP_5,201,1,48,29,2123168864
6821,5,ISIP_5,202,1,48,37,2123649552
6821,5,ISIP_5,0,9999,9999,9999,2044110948
6821,5,ISIP_5,1,9999,9999,9999,2044610664
6821,5,ISIP_5,2,9999,9999,9999,2045110360
6821,5,ISIP_5,3,9999,9999,9999,2045611100
6821,5,ISIP_5,4,9999,9999,9999,2046110796
6821,5,ISIP_5,5,9999,9999,9999,2046610488
6821,5,ISIP_5,6,9999,9999,9999,2047110252
6821,5,ISIP_5,7,9999,9999,9999,2047610996
6821,5,ISIP_5,8,9999,9999,9999,2048110688
6821,5,ISIP_5,9,9999,9999,9999,2048610392
6821,5,ISIP_5,10,9999,9999,9999,2049110080
6821,5,ISIP_5,11,9999,9999,9999,2049610824
6821,5,ISIP_5,12,9999,9999,9999,2050110516
6821,5,ISIP_5,13,9999,9999,9999,2050610284
6821,5,ISIP_5,14,9999,9999,9999,2051111024
6821,5,ISIP_5,15,9999,9999,9999,2051610720
6821,5,ISIP_5,16,9999,9999,9999,2052110412
6821,5,ISIP_5,17,9999,9999,9999,2052610116
6821,5,ISIP_5,18,9999,9999,9999,2053110852
6821,5,ISIP_5,19,9999,9999,9999,2053610600
6821,5,ISIP_5,20,9999,9999,9999,2054110292
6821,5,ISIP_5,21,9999,9999,9999,2054611032
6821,5,ISIP_5,22,9999,9999,9999,2055110736
6821,5,ISIP_5,23,9999,9999,9999,2055610428
6821,5,ISIP_5,24,9999,9999,9999,2056110196
6821,5,ISIP_5,25,9999,9999,9999,2056610932
6821,5,ISIP_5,26,9999,9999,9999,2057110628
6821,5,ISIP_5,27,9999,9999,9999,2057610328
6821,5,ISIP_5,28,9999,9999,9999,2058111072
6821,5,ISIP_5,29,9999,9999,9999,2058610768
6821,5,ISIP_5,30,9999,9999,9999,2059110456
6821,5,ISIP_5,31,9999,9999,9999,2059610228
6821,5,ISIP_5,32,9999,9999,9999,2060110968
6821,5,ISIP_5,33,9999,9999,9999,2060610672
6821,5,ISIP_5,34,9999,9999,9999,2061110368
6821,5,ISIP_5,35,9999,9999,9999,2061611108
6821,5,ISIP_5,36,9999,9999,9999,2062110804
6821,5,ISIP_5,37,9999,9999,9999,2062610500
6821,5,ISIP_5,38,9999,9999,9999,2063110196
6821,5,ISIP_5,39,9999,9999,9999,2063610932
6821,5,ISIP_5,40,9999,9999,9999,2064110680
6821,5,ISIP_5,41,9999,9999,9999,2064610364
6821,5,ISIP_5,42,9999,9999,9999,2065110136
6821,5,ISIP_5,43,9999,9999,9999,2065610872
6821,5,ISIP_5,44,9999,9999,9999,2066110564
6821,5,ISIP_5,45,9999,9999,9999,2066610248
6821,5,ISIP_5,46,9999,9999,9999,2067110992
6821,5,ISIP_5,47,9999,9999,9999,2067610676
6821,5,ISIP_5,48,9999,9999,9999,2068110444
6821,5,ISIP_5,49,9999,9999,9999,2068610136
6821,5,ISIP_5,50,9999,9999,9999,2069110872
6821,5,ISIP_5,51,9999,9999,9999,2069610564
6821,5,ISIP_5,52,9999,9999,9999,2070110256
6821,5,ISIP_5,53,9999,9999,9999,2070610992
6821,5,ISIP_5,54,9999,9999,9999,2071110760
6821,5,ISIP_5,55,9999,9999,9999,2071610452
6821,5,ISIP_5,56,9999,9999,9999,2072110132
6821,5,ISIP_5,57,9999,9999,9999,2072610880
6821,5,ISIP_5,58,9999,9999,9999,2073110644
6821,5,ISIP_5,59,9999,9999,9999,2073610332
6821,5,ISIP_5,60,9999,9999,9999,2074111072
6821,5,ISIP_5,61,9999,9999,9999,2074610736
6821,5,ISIP_5,62,9999,9999,9999,2075110504
6821,5,ISIP_5,63,9999,9999,9999,2075610164
6821,5,ISIP_5,64,9999,9999,9999,2076110900
6821,5,ISIP_5,65,9999,9999,9999,2076610672
6821,5,ISIP_5,66,9999,9999,9999,2077110392
6821,5,ISIP_5,67,9999,9999,9999,2077611092
6821,5,ISIP_5,68,9999,9999,9999,2078110784
6821,5,ISIP_5,69,9999,9999,9999,2078610548
6821,5,ISIP_5,70,9999,9999,9999,2079110240
6821,5,ISIP_5,71,9999,9999,9999,2079610976
6821,5,ISIP_5,72,9999,9999,9999,2080110652
6821,5,ISIP_5,73,9999,9999,9999,2080610360
6821,5,ISIP_5,74,9999,9999,9999,2081110124
6821,5,ISIP_5,75,9999,9999,9999,2081610848
6821,5,ISIP_5,76,9999,9999,9999,2082110540
6821,5,ISIP_5,77,9999,9999,9999,2082610228
6821,5,ISIP_5,78,9999,9999,9999,2083110964
6821,5,ISIP_5,79,9999,9999,9999,2083610732
6821,5,ISIP_5,80,9999,9999,9999,2084110420
6821,5,ISIP_5,81,9999,9999,9999,2084610112
6821,5,ISIP_5,82,9999,9999,9999,2085110848
6821,5,ISIP_5,83,9999,9999,9999,2085610588
6821,5,ISIP_5,84,9999,9999,9999,2086110280
6821,5,ISIP_5,85,9999,9999,9999,2086611016
6821,5,ISIP_5,86,9999,9999,9999,2087110708
6821,5,ISIP_5,87,9999,9999,9999,2087610472
6821,5,ISIP_5,88,9999,9999,9999,2088110164
6821,5,ISIP_5,89,9999,9999,9999,2088610904
6821,5,ISIP_5,90,9999,9999,9999,2089110592
6821,5,ISIP_5,91,9999,9999,9999,2089610360
6821,5,ISIP_5,92,9999,9999,9999,2090111096
6821,5,ISIP_5,93,9999,9999,9999,2090610784
6821,5,ISIP_5,94,9999,9999,9999,2091110476
6821,5,ISIP_5,95,9999,9999,9999,2091610168
6821,5,ISIP_5,96,9999,9999,9999,2092110904
6821,5,ISIP_5,97,9999,9999,9999,2092610664
6821,5,ISIP_5,98,9999,9999,9999,2093110352
6821,5,ISIP_5,99,9999,9999,9999,2093611092
6821,5,ISIP_5,100,9999,9999,9999,2094110784
6821,5,ISIP_5,101,9999,9999,9999,2094610548
6821,5,ISIP_5,102,9999,9999,9999,2095110240
6821,5,ISIP_5,103,9999,9999,9999,2095610980
6821,5,ISIP_5,104,9999,9999,9999,2096110644
6821,5,ISIP_5,105,9999,9999,9999,2096610364
6821,5,ISIP_5,106,9999,9999,9999,2097110084
6821,5,ISIP_5,107,9999,9999,9999,2097610820
6821,5,ISIP_5,108,9999,9999,9999,2098110516
6821,5,ISIP_5,109,9999,9999,9999,2098610280
6821,5,ISIP_5,110,9999,9999,9999,2099111016
6821,5,ISIP_5,111,9999,9999,9999,2099610708
6821,5,ISIP_5,112,9999,9999,9999,2100110396
6821,5,ISIP_5,113,9999,9999,9999,2100610164
6821,5,ISIP_5,114,9999,9999,9999,2101110900
6821,5,ISIP_5,115,9999,9999,9999,2101610592
6821,5,ISIP_5,116,9999,9999,9999,2102110284
6821,5,ISIP_5,117,9999,9999,9999,2102611020
6821,5,ISIP_5,118,9999,9999,9999,2103110712
6821,5,ISIP_5,119,9999,9999,9999,2103610476
6821,5,ISIP_5,120,9999,9999,9999,2104110164
6821,5,ISIP_5,121,9999,9999,9999,2104610904
6821,5,ISIP_5,122,9999,9999,9999,2105110588
6821,5,ISIP_5,123,9999,9999,9999,2105610352
6821,5,ISIP_5,124,9999,9999,9999,2106111036
6821,5,ISIP_5,125,9999,9999,9999,2106610768
6821,5,ISIP_5,126,9999,9999,9999,2107110508
6821,5,ISIP_5,127,9999,9999,9999,2107610196
6821,5,ISIP_5,128,9999,9999,9999,2108110932
6821,5,ISIP_5,129,9999,9999,9999,2108610624
6821,5,ISIP_5,130,9999,9999,9999,2109110388
6821,5,ISIP_5,131,9999,9999,9999,2109611124
6821,5,ISIP_5,132,9999,9999,9999,2110110816
6821,5,ISIP_5,133,9999,9999,9999,2110610504
6821,5,ISIP_5,134,9999,9999,9999,2111110196
6821,5,ISIP_5,135,9999,9999,9999,2111610936
6821,5,ISIP_5,136,9999,9999,9999,2112110700
6821,5,ISIP_5,137,9999,9999,9999,2112610392
6821,5,ISIP_5,138,9999,9999,9999,2113110080
6821,5,ISIP_5,139,9999,9999,9999,2113610820
6821,5,ISIP_5,140,9999,9999,9999,2114110584
6821,5,ISIP_5,141,9999,9999,9999,2114610272
6821,5,ISIP_5,142,9999,9999,9999,2115111012
6821,5,ISIP_5,143,9999,9999,9999,2115610704
6821,5,ISIP_5,144,9999,9999,9999,2116110384
6821,5,ISIP_5,145,9999,9999,9999,2116610152
6821,5,ISIP_5,146,9999,9999,9999,2117110872
6821,5,ISIP_5,147,9999,9999,9999,2117610612
6821,5,ISIP_5,148,9999,9999,9999,2118110304
6821,5,ISIP_5,149,9999,9999,9999,2118611040
6821,5,ISIP_5,150,9999,9999,9999,2119110732
6821,5,ISIP_5,151,9999,9999,9999,2119610424
6821,5,ISIP_5,152,9999,9999,9999,2120110188
6821,5,ISIP_5,153,9999,9999,9999,2120610928
6821,5,ISIP_5,154,9999,9999,9999,2121110620
6821,5,ISIP_5,155,9999,9999,9999,2121610308
6821,5,ISIP_5,156,9999,9999,9999,2122111048
6821,5,ISIP_5,157,9999,9999,9999,2122610736
6821,5,ISIP_5,158,9999,9999,9999,2123110504
6821,5,ISIP_5,159,9999,9999,9999,2123610192
6822,3,ISIP_8,0,5,42,127,2150573484
6822,3,ISIP_8,1,5,42,127,2151373088
6822,3,ISIP_8,2,1,48,30,2151529944
6822,3,ISIP_8,3,5,42,127,2152173048
6822,3,ISIP_8,4,1,48,38,2152231320
6822,3,ISIP_8,5,5,42,127,2152972880
6822,3,ISIP_8,6,1,48,37,2153009440
6822,3,ISIP_8,7,5,42,127,2153773292
6822,3,ISIP_8,8,1,48,29,2153787560
6822,3,ISIP_8,9,5,42,127,2154573248
6822,3,ISIP_8,10,1,48,38,2154577488
6822,3,ISIP_8,11,5,42,127,2155372908
6822,3,ISIP_8,12,1,48,34,2155407816
6822,3,ISIP_8,13,5,42,127,2156172564
6822,3,ISIP_8,14,1,48,36,2156175232
6822,3,ISIP_8,15,5,42,127,2156973348
6822,3,ISIP_8,16,1,48,35,2156980580
6822,3,ISIP_8,17,5,42,127,2157773152
6822,3,ISIP_8,18,1,48,34,2157779116
6822,3,ISIP_8,19,5,42,127,2158572812
6822,3,ISIP_8,20,1,48,30,2158637960
6822,3,ISIP_8,21,5,42,127,2159372644
6822,3,ISIP_8,22,1,48,32,2159437768
6822,3,ISIP_8,23,5,42,127,2160173352
6822,3,ISIP_8,24,1,48,33,2160250592
6822,3,ISIP_8,25,5,42,127,2160973232
6822,3,ISIP_8,26,1,48,30,2161046360
6822,3,ISIP_8,27,5,42,127,2161772888
6822,3,ISIP_8,28,1,48,35,2161834500
6822,3,ISIP_8,29,5,42,127,2162572620
6822,3,ISIP_8,30,1,48,35,2162640740
6822,3,ISIP_8,31,5,42,127,2163373776
6822,3,ISIP_8,32,1,48,34,2163433216
6822,3,ISIP_8,33,5,42,127,2164173284
6822,3,ISIP_8,34,1,48,33,2164211212
6822,3,ISIP_8,35,5,42,127,2164972792
6822,3,ISIP_8,36,1,48,32,2165003292
6822,3,ISIP_8,37,5,42,127,2165772600
6822,3,ISIP_8,38,1,48,38,2165798012
6822,3,ISIP_8,39,5,42,127,2166573604
6822,3,ISIP_8,40,1,48,36,2166614500
6822,3,ISIP_8,41,5,42,127,2167373264
6822,3,ISIP_8,42,1,48,38,2167394340
6822,3,ISIP_8,43,5,42,127,2168172776
6822,3,ISIP_8,44,1,48,40,2168202448
6822,3,ISIP_8,45,5,42,127,2168972508
6822,3,ISIP_8,46,1,48,43,2168997692
6822,3,ISIP_8,47,5,42,127,2169773512
6822,3,ISIP_8,48,1,48,42,2169800944
6822,3,ISIP_8,49,5,42,127,2170573392
6822,3,ISIP_8,50,1,48,32,2170612968
6822,3,ISIP_8,51,1,48,35,2171366204
6822,3,ISIP_8,52,5,42,127,2171372972
6822,3,ISIP_8,53,1,48,35,2172154348
6822,3,ISIP_8,54,5,42,127,2172172632
6822,3,ISIP_8,55,1,48,39,2172924760
6822,3,ISIP_8,56,5,42,127,2172973340
6822,3,ISIP_8,57,1,48,37,2173770420
6822,3,ISIP_8,58,5,42,127,2173773444
6822,3,ISIP_8,59,1,48,32,2174576976
6822,3,ISIP_8,60,1,48,28,2175456960
6822,3,ISIP_8,61,1,48,28,2176232228
6822,3,ISIP_8,62,1,48,29,2177064972
6822,3,ISIP_8,63,1,48,34,2177826104
6822,3,ISIP_8,64,1,48,32,2178645208
6822,3,ISIP_8,65,1,48,34,2179436256
6822,3,ISIP_8,66,1,48,34,2180259324
6822,3,ISIP_8,67,1,48,34,2181056736
6822,3,ISIP_8,68,1,48,35,2181860724
6822,3,ISIP_8,69,1,48,25,2182683740
6822,3,ISIP_8,70,1,48,35,2183430136
6822,3,ISIP_8,71,1,48,34,2184226956
6822,3,ISIP_8,72,1,48,38,2185025932
6822,3,ISIP_8,73,1,48,40,2185825812
6822,3,ISIP_8,74,1,48,39,2186624048
6822,3,ISIP_8,75,1,48,36,2187443892
6822,3,ISIP_8,76,1,48,41,2188299748
6822,3,ISIP_8,77,1,48,43,2189132088
6822,3,ISIP_8,78,1,48,39,2189961136
6822,3,ISIP_8,79,1,48,34,2190801852
6822,3,ISIP_8,80,1,48,31,2191663244
6822,3,ISIP_8,81,1,48,37,2192500444
6822,3,ISIP_8,82,1,48,42,2193328072
6822,3,ISIP_8,83,1,48,43,2194131172
6822,3,ISIP_8,84,1,48,38,2194929500
6822,3,ISIP_8,85,1,48,32,2195713228
6822,3,ISIP_8,86,1,48,35,2196583036
6822,3,ISIP_8,87,1,48,42,2197315152
6822,3,ISIP_8,88,1,48,28,2198171204
6822,3,ISIP_8,89,1,48,32,2198923364
6822,3,ISIP_8,90,1,48,43,2199811900
6822,3,ISIP_8,91,1,48,43,2200682912
6822,3,ISIP_8,92,1,48,43,2201547264
6822,3,ISIP_8,93,1,48,42,2202354424
6822,3,ISIP_8,94,1,48,34,2203213392
6822,3,ISIP_8,95,1,48,35,2204040204
6822,3,ISIP_8,96,1,48,38,2204870748
6822,3,ISIP_8,97,1,48,41,2205685984
6822,3,ISIP_8,98,1,48,26,2206515928
6822,3,ISIP_8,99,1,48,39,2207318280
6822,3,ISIP_8,100,1,48,41,2208145980
6822,3,ISIP_8,101,1,48,41,2208920576
6822,3,ISIP_8,102,1,48,38,2209735720
6822,3,ISIP_8,103,1,48,40,2210506196
6822,3,ISIP_8,104,1,48,34,2211360628
6822,3,ISIP_8,105,1,48,39,2212133956
6822,3,ISIP_8,106,1,48,38,2212974612
6822,3,ISIP_8,107,1,48,28,2213739772
6822,3,ISIP_8,108,1,48,45,2214567844
6822,3,ISIP_8,109,1,48,42,2215358676
6822,3,ISIP_8,110,1,48,37,2216170612
6822,3,ISIP_8,111,1,48,41,2216967056
6822,3,ISIP_8,112,1,48,39,2217804648
6822,3,ISIP_8,113,1,48,39,2218591588
6822,3,ISIP_8,114,1,48,35,2220178352
6822,3,ISIP_8,115,1,48,35,2220980476
6822,3,ISIP_8,116,1,48,35,2221814188
6822,3,ISIP_8,117,1,48,38,2222617660
6822,3,ISIP_8,118,1,48,39,2223472584
6822,3,ISIP_8,119,1,48,37,2224278448
6822,3,ISIP_8,120,1,48,15,2225097928
6822,3,ISIP_8,121,1,48,18,2225811408
6822,3,ISIP_8,122,1,48,30,2226781408
6822,3,ISIP_8,123,1,48,29,2227643520
6822,3,ISIP_8,124,1,48,29,2228467732
6822,3,ISIP_8,125,1,48,30,2229232524
6822,3,ISIP_8,126,1,48,29,2230091496
6822,3,ISIP_8,127,1,48,34,2230872232
6822,3,ISIP_8,128,1,48,36,2231676000
6822,3,ISIP_8,129,1,48,38,2232475424
6822,3,ISIP_8,130,1,48,40,2233305524
6822,3,ISIP_8,131,1,48,38,2234107820
6822,3,ISIP_8,132,1,48,43,2234938068
6822,3,ISIP_8,133,1,48,32,2235730464
6822,3,ISIP_8,134,1,48,48,2236532436
6822,3,ISIP_8,135,1,48,46,2237272852
6822,3,ISIP_8,136,1,48,45,2238050368
6822,3,ISIP_8,137,1,48,46,2238800956
6822,3,ISIP_8,138,1,48,46,2239629856
6822,3,ISIP_8,139,1,48,43,2240409840
6822,3,ISIP_8,140,1,48,42,2241236940
6822,3,ISIP_8,141,1,48,44,2242047616
6822,3,ISIP_8,142,1,48,39,2242874344
6822,3,ISIP_8,143,1,48,39,2243686572
6822,3,ISIP_8,144,1,48,39,2244556980
6822,3,ISIP_8,145,1,48,49,2245327612
6822,3,ISIP_8,146,1,48,37,2246142176
6822,3,ISIP_8,147,1,48,47,2246917448
6822,3,ISIP_8,148,1,48,39,2247765124
6822,3,ISIP_8,149,1,48,41,2248564176
6822,3,ISIP_8,150,1,48,42,2249392332
6822,3,ISIP_8,151,1,48,48,2250224996
6822,3,ISIP_8,152,1,48,49,2251077908
6822,3,ISIP_8,153,1,48,44,2251934108
6822,3,ISIP_8,154,1,48,37,2252757920
6822,3,ISIP_8,155,1,48,30,2253543440
6822,3,ISIP_8,156,1,48,38,2254344316
6822,3,ISIP_8,157,1,48,24,2255122200
6822,3,ISIP_8,158,1,48,29,2255920732
6822,3,ISIP_8,159,1,48,36,2256648132
6822,3,ISIP_8,160,1,48,32,2257478380
6822,3,ISIP_8,161,1,48,29,2258260236
6822,3,ISIP_8,162,1,48,28,2259089732
6822,3,ISIP_8,163,1,48,41,2259855128
6822,3,ISIP_8,164,1,48,31,2260700484
6822,3,ISIP_8,165,1,48,29,2261522824
6822,3,ISIP_8,166,1,48,31,2262265260
6822,3,ISIP_8,167,1,48,33,2263066112
6822,3,ISIP_8,168,1,48,34,2263871224
6822,3,ISIP_8,169,1,48,40,2264626380
6822,3,ISIP_8,170,1,48,38,2265446452
6822,3,ISIP_8,171,1,48,41,2266200480
6822,3,ISIP_8,172,1,48,25,2267076128
6822,3,ISIP_8,173,1,48,33,2267837260
6822,3,ISIP_8,174,1,48,24,2268715624
6822,3,ISIP_8,175,1,48,25,2269533308
6822,3,ISIP_8,176,1,48,32,2270423764
6822,3,ISIP_8,0,9999,9999,9999,2150571120
6822,3,ISIP_8,1,9999,9999,9999,2151370800
6822,3,ISIP_8,2,9999,9999,9999,2152170612
6822,3,ISIP_8,3,9999,9999,9999,2152970296
6822,3,ISIP_8,4,9999,9999,9999,2153771076
6822,3,ISIP_8,5,9999,9999,9999,2154570808
6822,3,ISIP_8,6,9999,9999,9999,2155370544
6822,3,ISIP_8,7,9999,9999,9999,2156170352
6822,3,ISIP_8,8,9999,9999,9999,2156971056
6822,3,ISIP_8,9,9999,9999,9999,2157770864
6822,3,ISIP_8,10,9999,9999,9999,2158570596
6822,3,ISIP_8,11,9999,9999,9999,2159370356
6822,3,ISIP_8,12,9999,9999,9999,2160171060
6822,3,ISIP_8,13,9999,9999,9999,2160970868
6822,3,ISIP_8,14,9999,9999,9999,2161770600
6822,3,ISIP_8,15,9999,9999,9999,2162570332
6822,3,ISIP_8,16,9999,9999,9999,2163371112
6822,3,ISIP_8,17,9999,9999,9999,2164170848
6822,3,ISIP_8,18,9999,9999,9999,2164970580
6822,3,ISIP_8,19,9999,9999,9999,2165770312
6822,3,ISIP_8,20,9999,9999,9999,2166571092
6822,3,ISIP_8,21,9999,9999,9999,2167370824
6822,3,ISIP_8,22,9999,9999,9999,2168170564
6822,3,ISIP_8,23,9999,9999,9999,2168970296
6822,3,ISIP_8,24,9999,9999,9999,2169771076
6822,3,ISIP_8,25,9999,9999,9999,2170570808
6822,3,ISIP_8,26,9999,9999,9999,2171370608
6822,3,ISIP_8,27,9999,9999,9999,2172170344
6822,3,ISIP_8,28,9999,9999,9999,2172971124
6822,3,ISIP_8,29,9999,9999,9999,2173770860
6822,3,ISIP_8,30,9999,9999,9999,2174570596
6822,3,ISIP_8,31,9999,9999,9999,2175370328
6822,3,ISIP_8,32,9999,9999,9999,2176171104
6822,3,ISIP_8,33,9999,9999,9999,2176970832
6822,3,ISIP_8,34,9999,9999,9999,2177770560
6822,3,ISIP_8,35,9999,9999,9999,2178570312
6822,3,ISIP_8,36,9999,9999,9999,2179371088
6822,3,ISIP_8,37,9999,9999,9999,2180170820
6822,3,ISIP_8,38,9999,9999,9999,2180970548
6822,3,ISIP_8,39,9999,9999,9999,2181770352
6822,3,ISIP_8,40,9999,9999,9999,2182571124
6822,3,ISIP_8,41,9999,9999,9999,2183370856
6822,3,ISIP_8,42,9999,9999,9999,2184170584
6822,3,ISIP_8,43,9999,9999,9999,2184970340
6822,3,ISIP_8,44,9999,9999,9999,2185771116
6822,3,ISIP_8,45,9999,9999,9999,2186570844
6822,3,ISIP_8,46,9999,9999,9999,2187370576
6822,3,ISIP_8,47,9999,9999,9999,2188170304
6822,3,ISIP_8,48,9999,9999,9999,2188971080
6822,3,ISIP_8,49,9999,9999,9999,2189770808
6822,3,ISIP_8,50,9999,9999,9999,2190570612
6822,3,ISIP_8,51,9999,9999,9999,2191370292
6822,3,ISIP_8,52,9999,9999,9999,2192171068
6822,3,ISIP_8,53,9999,9999,9999,2192970796
6822,3,ISIP_8,54,9999,9999,9999,2193770600
6822,3,ISIP_8,55,9999,9999,9999,2194570328
6822,3,ISIP_8,56,9999,9999,9999,2195371104
6822,3,ISIP_8,57,9999,9999,9999,2196170836
6822,3,ISIP_8,58,9999,9999,9999,2196970564
6822,3,ISIP_8,59,9999,9999,9999,2197770320
6822,3,ISIP_8,60,9999,9999,9999,2198571096
6822,3,ISIP_8,61,9999,9999,9999,2199370824
6822,3,ISIP_8,62,9999,9999,9999,2200170556
6822,3,ISIP_8,63,9999,9999,9999,2200970356
6822,3,ISIP_8,64,9999,9999,9999,2201771060
6822,3,ISIP_8,65,9999,9999,9999,2202570860
6822,3,ISIP_8,66,9999,9999,9999,2203370592
6822,3,ISIP_8,67,9999,9999,9999,2204170348
6822,3,ISIP_8,68,9999,9999,9999,2204971120
6822,3,ISIP_8,69,9999,9999,9999,2205770868
6822,3,ISIP_8,70,9999,9999,9999,2206570596
6822,3,ISIP_8,71,9999,9999,9999,2207370328
6822,3,ISIP_8,72,9999,9999,9999,2208171104
6822,3,ISIP_8,73,9999,9999,9999,2208970832
6822,3,ISIP_8,74,9999,9999,9999,2209770560
6822,3,ISIP_8,75,9999,9999,9999,2210570312
6822,3,ISIP_8,76,9999,9999,9999,2211371088
6822,3,ISIP_8,77,9999,9999,9999,2212170820
6822,3,ISIP_8,78,9999,9999,9999,2212970556
6822,3,ISIP_8,79,9999,9999,9999,2213770352
6822,3,ISIP_8,80,9999,9999,9999,2214571128
6822,3,ISIP_8,81,9999,9999,9999,2215370856
6822,3,ISIP_8,82,9999,9999,9999,2216170556
6822,3,ISIP_8,83,9999,9999,9999,2216970340
6822,3,ISIP_8,84,9999,9999,9999,2217771120
6822,3,ISIP_8,85,9999,9999,9999,2218570848
6822,3,ISIP_8,86,9999,9999,9999,2219370580
6822,3,ISIP_8,87,9999,9999,9999,2220170332
6822,3,ISIP_8,88,9999,9999,9999,2220971108
6822,3,ISIP_8,89,9999,9999,9999,2221770836
6822,3,ISIP_8,90,9999,9999,9999,2222570568
6822,3,ISIP_8,91,9999,9999,9999,2223370320
6822,3,ISIP_8,92,9999,9999,9999,2224171096
6822,3,ISIP_8,93,9999,9999,9999,2224970824
6822,3,ISIP_8,94,9999,9999,9999,2225770556
6822,3,ISIP_8,95,9999,9999,9999,2226570356
6822,3,ISIP_8,96,9999,9999,9999,2227371060
6822,3,ISIP_8,97,9999,9999,9999,2228170864
6822,3,ISIP_8,98,9999,9999,9999,2228970592
6822,3,ISIP_8,99,9999,9999,9999,2229770348
6822,3,ISIP_8,100,9999,9999,9999,2230571124
6822,3,ISIP_8,101,9999,9999,9999,2231370852
6822,3,ISIP_8,102,9999,9999,9999,2232170584
6822,3,ISIP_8,103,9999,9999,9999,2232970312
6822,3,ISIP_8,104,9999,9999,9999,2233771088
6822,3,ISIP_8,105,9999,9999,9999,2234570816
6822,3,ISIP_8,106,9999,9999,9999,2235370572
6822,3,ISIP_8,107,9999,9999,9999,2236170300
6822,3,ISIP_8,108,9999,9999,9999,2236971076
6822,3,ISIP_8,109,9999,9999,9999,2237770804
6822,3,ISIP_8,110,9999,9999,9999,2238570608
6822,3,ISIP_8,111,9999,9999,9999,2239370340
6822,3,ISIP_8,112,9999,9999,9999,2240171116
6822,3,ISIP_8,113,9999,9999,9999,2240970840
6822,3,ISIP_8,114,9999,9999,9999,2241770596
6822,3,ISIP_8,115,9999,9999,9999,2242570324
6822,3,ISIP_8,116,9999,9999,9999,2243371100
6822,3,ISIP_8,117,9999,9999,9999,2244170832
6822,3,ISIP_8,118,9999,9999,9999,2244970560
6822,3,ISIP_8,119,9999,9999,9999,2245770288
6822,3,ISIP_8,120,9999,9999,9999,2246571064
6822,3,ISIP_8,121,9999,9999,9999,2247370868
6822,3,ISIP_8,122,9999,9999,9999,2248170548
6822,3,ISIP_8,123,9999,9999,9999,2248970352
6822,3,ISIP_8,124,9999,9999,9999,2249771128
6822,3,ISIP_8,125,9999,9999,9999,2250570856
6822,3,ISIP_8,126,9999,9999,9999,2251370588
6822,3,ISIP_8,127,9999,9999,9999,2252170316
6822,3,ISIP_8,128,9999,9999,9999,2252971092
6822,3,ISIP_8,129,9999,9999,9999,2253770820
6822,3,ISIP_8,130,9999,9999,9999,2254570576
6822,3,ISIP_8,131,9999,9999,9999,2255370304
6822,3,ISIP_8,132,9999,9999,9999,2256171080
6822,3,ISIP_8,133,9999,9999,9999,2256970812
6822,3,ISIP_8,134,9999,9999,9999,2257770616
6822,3,ISIP_8,135,9999,9999,9999,2258570344
6822,3,ISIP_8,136,9999,9999,9999,2259371120
6822,3,ISIP_8,137,9999,9999,9999,2260170848
6822,3,ISIP_8,138,9999,9999,9999,2260970600
6822,3,ISIP_8,139,9999,9999,9999,2261770332
6822,3,ISIP_8,140,9999,9999,9999,2262571104
6822,3,ISIP_8,141,9999,9999,9999,2263370836
6822,3,ISIP_8,142,9999,9999,9999,2264170564
6822,3,ISIP_8,143,9999,9999,9999,2264970292
6822,3,ISIP_8,144,9999,9999,9999,2265771072
6822,3,ISIP_8,145,9999,9999,9999,2266570800
6822,3,ISIP_8,146,9999,9999,9999,2267370552
6822,3,ISIP_8,147,9999,9999,9999,2268170356
6822,3,ISIP_8,148,9999,9999,9999,2268971060
6822,3,ISIP_8,149,9999,9999,9999,2269770860
6823,11,Pattern_Practice,0,5,42,127,2365232416
6823,11,Pattern_Practice,1,5,42,127,2365733256
6823,11,Pattern_Practice,2,5,42,127,2366233196
6823,11,Pattern_Practice,3,5,42,127,2366732616
6823,11,Pattern_Practice,4,5,42,127,2367233376
6823,11,Pattern_Practice,5,1,38,33,2367273744
6823,11,Pattern_Practice,6,1,38,14,2367538684
6823,11,Pattern_Practice,7,1,38,32,2367720220
6823,11,Pattern_Practice,8,5,42,127,2367733116
6823,11,Pattern_Practice,9,5,42,127,2368232968
6823,11,Pattern_Practice,10,5,42,127,2368732512
6823,11,Pattern_Practice,11,1,38,42,2369203016
6823,11,Pattern_Practice,12,1,48,13,2369217660
6823,11,Pattern_Practice,13,5,42,127,2369233396
6823,11,Pattern_Practice,14,1,38,31,2369469344
6823,11,Pattern_Practice,15,1,38,41,2369682820
6823,11,Pattern_Practice,16,5,42,127,2369733116
6823,11,Pattern_Practice,17,5,42,127,2370232964
6823,11,Pattern_Practice,18,5,42,127,2370733432
6823,11,Pattern_Practice,19,1,48,44,2371230040
6823,11,Pattern_Practice,20,5,42,127,2371233064
6823,11,Pattern_Practice,21,5,42,127,2371733064
6823,11,Pattern_Practice,22,5,42,127,2372232408
6823,11,Pattern_Practice,23,5,42,127,2372733320
6823,11,Pattern_Practice,24,1,38,39,2373176900
6823,11,Pattern_Practice,25,5,42,127,2373232956
6823,11,Pattern_Practice,26,1,38,38,2373468556
6823,11,Pattern_Practice,27,1,38,45,2373682852
6823,11,Pattern_Practice,28,5,42,127,2373733000
6823,11,Pattern_Practice,29,5,42,127,2374232404
6823,11,Pattern_Practice,30,5,42,127,2374733020
6823,11,Pattern_Practice,31,5,42,127,2375233032
6823,11,Pattern_Practice,32,1,38,47,2375703912
6823,11,Pattern_Practice,33,5,42,127,2375732520
6823,11,Pattern_Practice,34,1,38,46,2376025036
6823,11,Pattern_Practice,35,5,42,127,2376233244
6823,11,Pattern_Practice,36,1,38,57,2376241600
6823,11,Pattern_Practice,37,5,42,127,2376733012
6823,11,Pattern_Practice,38,5,42,127,2377232732
6823,11,Pattern_Practice,39,5,42,127,2377732596
6823,11,Pattern_Practice,40,1,38,20,2377774240
6823,11,Pattern_Practice,41,1,48,47,2378215796
6823,11,Pattern_Practice,42,5,42,127,2378233180
6823,11,Pattern_Practice,43,5,42,127,2378732808
6823,11,Pattern_Practice,44,5,42,127,2379232724
6823,11,Pattern_Practice,45,5,42,127,2379733388
6823,11,Pattern_Practice,46,5,42,127,2380233032
6823,11,Pattern_Practice,47,1,38,56,2380269612
6823,11,Pattern_Practice,48,1,38,53,2380529308
6823,11,Pattern_Practice,49,1,38,56,2380706260
6823,11,Pattern_Practice,50,5,42,127,2380732772
6823,11,Pattern_Practice,51,5,42,127,2381232548
6823,11,Pattern_Practice,52,1,48,52,2381237764
6823,11,Pattern_Practice,53,5,42,127,2381733212
6823,11,Pattern_Practice,54,5,42,127,2382232932
6823,11,Pattern_Practice,55,1,38,57,2382712488
6823,11,Pattern_Practice,56,5,42,127,2382732640
6823,11,Pattern_Practice,57,1,38,36,2383046932
6823,11,Pattern_Practice,58,1,38,64,2383184556
6823,11,Pattern_Practice,59,5,42,127,2383233660
6823,11,Pattern_Practice,60,5,42,127,2383733212
6823,11,Pattern_Practice,61,1,48,58,2383760336
6823,11,Pattern_Practice,62,5,42,127,2384232756
6823,11,Pattern_Practice,63,5,42,127,2384732620
6823,11,Pattern_Practice,64,1,38,45,2385208440
6823,11,Pattern_Practice,65,5,42,127,2385233452
6823,11,Pattern_Practice,66,1,38,55,2385467860
6823,11,Pattern_Practice,67,1,38,61,2385645804
6823,11,Pattern_Practice,68,5,42,127,2385732976
6823,11,Pattern_Practice,69,1,48,56,2386152532
6823,11,Pattern_Practice,70,5,42,127,2386232672
6823,11,Pattern_Practice,71,1,38,64,2386671372
6823,11,Pattern_Practice,72,1,38,43,2386705760
6823,11,Pattern_Practice,73,5,42,127,2386733616
6823,11,Pattern_Practice,74,1,48,54,2387191840
6823,11,Pattern_Practice,75,5,42,127,2387233012
6823,11,Pattern_Practice,76,1,48,59,2387391620
6823,11,Pattern_Practice,77,1,48,57,2387635388
6823,11,Pattern_Practice,78,5,42,127,2387733716
6823,11,Pattern_Practice,79,5,42,127,2388232532
6823,11,Pattern_Practice,80,5,42,127,2388733444
6823,11,Pattern_Practice,81,5,42,127,2389232864
6823,11,Pattern_Practice,82,5,42,127,2389732800
6823,11,Pattern_Practice,83,1,38,60,2390188624
6823,11,Pattern_Practice,84,5,42,127,2390232412
6823,11,Pattern_Practice,85,1,38,53,2390563476
6823,11,Pattern_Practice,86,5,42,127,2390733140
6823,11,Pattern_Practice,87,1,38,59,2390739328
6823,11,Pattern_Practice,88,1,48,54,2391232832
6823,11,Pattern_Practice,89,5,42,127,2391234320
6823,11,Pattern_Practice,90,5,42,127,2391732528
6823,11,Pattern_Practice,91,5,42,127,2392233512
6823,11,Pattern_Practice,92,1,38,61,2392322452
6823,11,Pattern_Practice,93,1,38,51,2392678720
6823,11,Pattern_Practice,94,5,42,127,2392732904
6823,11,Pattern_Practice,95,1,38,69,2392883908
6823,11,Pattern_Practice,96,5,42,127,2393232808
6823,11,Pattern_Practice,97,1,48,57,2393372984
6823,11,Pattern_Practice,98,5,42,127,2393732576
6823,11,Pattern_Practice,99,1,48,58,2393823436
6823,11,Pattern_Practice,100,5,42,127,2394233392
6823,11,Pattern_Practice,101,1,38,64,2394335472
6823,11,Pattern_Practice,102,1,38,65,2394629976
6823,11,Pattern_Practice,103,5,42,127,2394732768
6823,11,Pattern_Practice,104,1,38,84,2394843672
6823,11,Pattern_Practice,105,5,42,127,2395232612
6823,11,Pattern_Practice,106,1,48,78,2395362688
6823,11,Pattern_Practice,107,5,42,127,2395733652
6823,11,Pattern_Practice,108,1,48,65,2395879740
6823,11,Pattern_Practice,109,5,42,127,2396233496
6823,11,Pattern_Practice,110,1,38,73,2396421320
6823,11,Pattern_Practice,111,5,42,127,2396732820
6823,11,Pattern_Practice,112,1,38,64,2396789568
6823,11,Pattern_Practice,113,1,38,87,2396992648
6823,11,Pattern_Practice,114,5,42,127,2397232416
6823,11,Pattern_Practice,115,1,48,66,2397531460
6823,11,Pattern_Practice,116,5,42,127,2397733456
6823,11,Pattern_Practice,117,1,48,67,2398042000
6823,11,Pattern_Practice,118,5,42,127,2398232928
6823,11,Pattern_Practice,119,5,42,127,2398732644
6823,11,Pattern_Practice,120,5,42,127,2399233480
6823,11,Pattern_Practice,121,5,42,127,2399733344
6823,11,Pattern_Practice,122,1,38,54,2400101504
6823,11,Pattern_Practice,123,5,42,127,2400232816
6823,11,Pattern_Practice,124,1,38,59,2400522884
6823,11,Pattern_Practice,125,5,42,127,2400732488
6823,11,Pattern_Practice,126,1,38,65,2400761436
6823,11,Pattern_Practice,127,5,42,127,2401233528
6823,11,Pattern_Practice,128,1,48,68,2401273620
6823,11,Pattern_Practice,129,5,42,127,2401733372
6823,11,Pattern_Practice,130,5,42,127,2402232568
6823,11,Pattern_Practice,131,1,38,62,2402271588
6823,11,Pattern_Practice,132,1,38,50,2402559068
6823,11,Pattern_Practice,133,5,42,127,2402733436
6823,11,Pattern_Practice,134,1,38,59,2402757572
6823,11,Pattern_Practice,135,5,42,127,2403233204
6823,11,Pattern_Practice,136,1,48,63,2403274996
6823,11,Pattern_Practice,137,1,48,63,2403676760
6823,11,Pattern_Practice,138,5,42,127,2403732964
6823,11,Pattern_Practice,139,5,42,127,2404232592
6823,11,Pattern_Practice,140,1,38,57,2404324824
6823,11,Pattern_Practice,141,5,42,127,2404733336
6823,11,Pattern_Practice,142,1,38,51,2404776544
6823,11,Pattern_Practice,0,9999,9999,9999,2365230132
6823,11,Pattern_Practice,1,9999,9999,9999,2365730892
6823,11,Pattern_Practice,2,9999,9999,9999,2366230612
6823,11,Pattern_Practice,3,9999,9999,9999,2366730328
6823,11,Pattern_Practice,4,9999,9999,9999,2367231088
6823,11,Pattern_Practice,5,9999,9999,9999,2367730756
6823,11,Pattern_Practice,6,9999,9999,9999,2368230460
6823,11,Pattern_Practice,7,9999,9999,9999,2368730224
6823,11,Pattern_Practice,8,9999,9999,9999,2369230964
6823,11,Pattern_Practice,9,9999,9999,9999,2369730680
6823,11,Pattern_Practice,10,9999,9999,9999,2370230380
6823,11,Pattern_Practice,11,9999,9999,9999,2370731072
6823,11,Pattern_Practice,12,9999,9999,9999,2371230780
6823,11,Pattern_Practice,13,9999,9999,9999,2371730480
6823,11,Pattern_Practice,14,9999,9999,9999,2372230196
6823,11,Pattern_Practice,15,9999,9999,9999,2372730960
6823,11,Pattern_Practice,16,9999,9999,9999,2373230672
6823,11,Pattern_Practice,17,9999,9999,9999,2373730416
6823,11,Pattern_Practice,18,9999,9999,9999,2374230116
6823,11,Pattern_Practice,19,9999,9999,9999,2374730808
6823,11,Pattern_Practice,20,9999,9999,9999,2375230524
6823,11,Pattern_Practice,21,9999,9999,9999,2375730232
6823,11,Pattern_Practice,22,9999,9999,9999,2376231032
6823,11,Pattern_Practice,23,9999,9999,9999,2376730728
6823,11,Pattern_Practice,24,9999,9999,9999,2377230444
6823,11,Pattern_Practice,25,9999,9999,9999,2377730160
6823,11,Pattern_Practice,26,9999,9999,9999,2378230896
6823,11,Pattern_Practice,27,9999,9999,9999,2378730596
6823,11,Pattern_Practice,28,9999,9999,9999,2379230288
6823,11,Pattern_Practice,29,9999,9999,9999,2379731024
6823,11,Pattern_Practice,30,9999,9999,9999,2380230744
6823,11,Pattern_Practice,31,9999,9999,9999,2380730484
6823,11,Pattern_Practice,32,9999,9999,9999,2381230184
6823,11,Pattern_Practice,33,9999,9999,9999,2381730928
6823,11,Pattern_Practice,34,9999,9999,9999,2382230644
6823,11,Pattern_Practice,35,9999,9999,9999,2382730356
6823,11,Pattern_Practice,36,9999,9999,9999,2383231072
6823,11,Pattern_Practice,37,9999,9999,9999,2383730776
6823,11,Pattern_Practice,38,9999,9999,9999,2384230468
6823,11,Pattern_Practice,39,9999,9999,9999,2384730184
6823,11,Pattern_Practice,40,9999,9999,9999,2385230944
6823,11,Pattern_Practice,41,9999,9999,9999,2385730616
6823,11,Pattern_Practice,42,9999,9999,9999,2386230384
6823,11,Pattern_Practice,43,9999,9999,9999,2386731104
6823,11,Pattern_Practice,44,9999,9999,9999,2387230800
6823,11,Pattern_Practice,45,9999,9999,9999,2387730544
6823,11,Pattern_Practice,46,9999,9999,9999,2388230248
6823,11,Pattern_Practice,47,9999,9999,9999,2388730932
6823,11,Pattern_Practice,48,9999,9999,9999,2389230652
6823,11,Pattern_Practice,49,9999,9999,9999,2389730364
6823,11,Pattern_Practice,50,9999,9999,9999,2390230124
6823,11,Pattern_Practice,51,9999,9999,9999,2390730852
6823,11,Pattern_Practice,52,9999,9999,9999,2391230544
6823,11,Pattern_Practice,53,9999,9999,9999,2391730240
6823,11,Pattern_Practice,54,9999,9999,9999,2392231004
6823,11,Pattern_Practice,55,9999,9999,9999,2392730692
6823,11,Pattern_Practice,56,9999,9999,9999,2393230448
6823,11,Pattern_Practice,57,9999,9999,9999,2393730140
6823,11,Pattern_Practice,58,9999,9999,9999,2394230884
6823,11,Pattern_Practice,59,9999,9999,9999,2394730556
6823,11,Pattern_Practice,60,9999,9999,9999,2395230324
6823,11,Pattern_Practice,61,9999,9999,9999,2395730992
6823,11,Pattern_Practice,62,9999,9999,9999,2396230764
6823,11,Pattern_Practice,63,9999,9999,9999,2396730456
6823,11,Pattern_Practice,64,9999,9999,9999,2397230132
6823,11,Pattern_Practice,65,9999,9999,9999,2397730872
6823,11,Pattern_Practice,66,9999,9999,9999,2398230640
6823,11,Pattern_Practice,67,9999,9999,9999,2398730356
6823,11,Pattern_Practice,68,9999,9999,9999,2399231044
6823,11,Pattern_Practice,69,9999,9999,9999,2399730764
6823,11,Pattern_Practice,70,9999,9999,9999,2400230456
6823,11,Pattern_Practice,71,9999,9999,9999,2400730200
6823,11,Pattern_Practice,72,9999,9999,9999,2401230940
6823,11,Pattern_Practice,73,9999,9999,9999,2401730636
6823,11,Pattern_Practice,74,9999,9999,9999,2402230356
6823,11,Pattern_Practice,75,9999,9999,9999,2402731076
6823,11,Pattern_Practice,76,9999,9999,9999,2403230768
6823,11,Pattern_Practice,77,9999,9999,9999,2403730532
6823,11,Pattern_Practice,78,9999,9999,9999,2404230232
6823,11,Pattern_Practice,79,9999,9999,9999,2404730972
6824,13,Improv_Metronome,0,5,42,127,2432247144
6824,13,Improv_Metronome,1,5,42,127,2432747008
6824,13,Improv_Metronome,2,5,42,127,2433246476
6824,13,Improv_Metronome,3,1,38,60,2433309908
6824,13,Improv_Metronome,4,1,38,54,2433672600
6824,13,Improv_Metronome,5,5,42,127,2433747432
6824,13,Improv_Metronome,6,1,38,58,2433838600
6824,13,Improv_Metronome,7,5,42,127,2434246964
6824,13,Improv_Metronome,8,1,48,39,2434369932
6824,13,Improv_Metronome,9,5,42,127,2434746732
6824,13,Improv_Metronome,10,1,48,47,2434890492
6824,13,Improv_Metronome,11,5,42,127,2435246500
6824,13,Improv_Metronome,12,1,38,60,2435456684
6824,13,Improv_Metronome,13,5,42,127,2435747168
6824,13,Improv_Metronome,14,1,38,65,2435836700
6824,13,Improv_Metronome,15,1,38,63,2436047988
6824,13,Improv_Metronome,16,5,42,127,2436246916
6824,13,Improv_Metronome,17,1,48,57,2436671496
6824,13,Improv_Metronome,18,5,42,127,2436746700
6824,13,Improv_Metronome,19,1,48,55,2437223172
6824,13,Improv_Metronome,20,5,42,127,2437247592
6824,13,Improv_Metronome,21,5,42,127,2437746996
6824,13,Improv_Metronome,22,5,42,127,2438246640
6824,13,Improv_Metronome,23,1,38,60,2438704876
6824,13,Improv_Metronome,24,5,42,127,2438746572
6824,13,Improv_Metronome,25,1,38,54,2439060708
6824,13,Improv_Metronome,26,5,42,127,2439247372
6824,13,Improv_Metronome,27,1,38,68,2439265380
6824,13,Improv_Metronome,28,5,42,127,2439746920
6824,13,Improv_Metronome,29,1,48,58,2439798728
6824,13,Improv_Metronome,30,1,48,38,2440093360
6824,13,Improv_Metronome,31,5,42,127,2440246520
6824,13,Improv_Metronome,32,1,48,48,2440343880
6824,13,Improv_Metronome,33,5,42,127,2440747556
6824,13,Improv_Metronome,34,1,38,57,2440962972
6824,13,Improv_Metronome,35,5,42,127,2441247324
6824,13,Improv_Metronome,36,1,38,64,2441467756
6824,13,Improv_Metronome,37,5,42,127,2441746724
6824,13,Improv_Metronome,38,1,48,51,2442014800
6824,13,Improv_Metronome,39,5,42,127,2442246492
6824,13,Improv_Metronome,40,1,48,44,2442288804
6824,13,Improv_Metronome,41,1,48,54,2442539676
6824,13,Improv_Metronome,42,5,42,127,2442747436
6824,13,Improv_Metronome,43,1,38,45,2443060088
6824,13,Improv_Metronome,44,1,38,32,2443109960
6824,13,Improv_Metronome,45,5,42,127,2443246808
6824,13,Improv_Metronome,46,1,38,62,2443587364
6824,13,Improv_Metronome,47,5,42,127,2443746652
6824,13,Improv_Metronome,48,1,38,63,2444163500
6824,13,Improv_Metronome,49,5,42,127,2444247460
6824,13,Improv_Metronome,50,5,42,127,2444747384
6824,13,Improv_Metronome,51,1,48,60,2444800568
6824,13,Improv_Metronome,52,5,42,127,2445246780
6824,13,Improv_Metronome,53,1,48,58,2445303252
6824,13,Improv_Metronome,54,5,42,127,2445746552
6824,13,Improv_Metronome,55,1,48,53,2445773008
6824,13,Improv_Metronome,56,5,42,127,2446247516
6824,13,Improv_Metronome,57,1,38,50,2446372504
6824,13,Improv_Metronome,58,1,38,54,2446628688
6824,13,Improv_Metronome,59,5,42,127,2446747188
6824,13,Improv_Metronome,60,1,38,71,2446882948
6824,13,Improv_Metronome,61,5,42,127,2447246732
6824,13,Improv_Metronome,62,1,48,64,2447452208
6824,13,Improv_Metronome,63,5,42,127,2447746356
6824,13,Improv_Metronome,64,1,48,60,2447962068
6824,13,Improv_Metronome,65,5,42,127,2448247396
6824,13,Improv_Metronome,66,1,38,63,2448537240
6824,13,Improv_Metronome,67,5,42,127,2448746940
6824,13,Improv_Metronome,68,1,38,57,2448876792
6824,13,Improv_Metronome,69,1,38,70,2449060692
6824,13,Improv_Metronome,70,5,42,127,2449246464
6824,13,Improv_Metronome,71,1,48,69,2449634236
6824,13,Improv_Metronome,72,5,42,127,2449747276
6824,13,Improv_Metronome,73,1,48,66,2450124260
6824,13,Improv_Metronome,74,5,42,127,2450247196
6824,13,Improv_Metronome,75,1,38,58,2450738572
6824,13,Improv_Metronome,76,5,42,127,2450746684
6824,13,Improv_Metronome,77,1,38,61,2451022672
6824,13,Improv_Metronome,78,5,42,127,2451246440
6824,13,Improv_Metronome,79,1,38,62,2451249184
6824,13,Improv_Metronome,80,5,42,127,2451747256
6824,13,Improv_Metronome,81,1,48,60,2451799292
6824,13,Improv_Metronome,82,5,42,127,2452247172
6824,13,Improv_Metronome,83,1,48,73,2452291352
6824,13,Improv_Metronome,84,5,42,127,2452746496
6824,13,Improv_Metronome,85,1,48,59,2452856952
6824,13,Improv_Metronome,86,5,42,127,2453247240
6824,13,Improv_Metronome,87,1,48,62,2453370332
6824,13,Improv_Metronome,88,5,42,127,2453747156
6824,13,Improv_Metronome,89,1,38,62,2453908244
6824,13,Improv_Metronome,90,5,42,127,2454246848
6824,13,Improv_Metronome,91,1,38,70,2454361788
6824,13,Improv_Metronome,92,5,42,127,2454746444
6824,13,Improv_Metronome,93,1,38,77,2454905316
6824,13,Improv_Metronome,94,5,42,127,2455247112
6824,13,Improv_Metronome,95,1,48,70,2455553512
6824,13,Improv_Metronome,96,5,42,127,2455747032
6824,13,Improv_Metronome,97,1,48,71,2455870896
6824,13,Improv_Metronome,98,1,48,67,2456099036
6824,13,Improv_Metronome,99,5,42,127,2456246632
6824,13,Improv_Metronome,100,1,38,68,2456677492
6824,13,Improv_Metronome,101,5,42,127,2456747236
6824,13,Improv_Metronome,102,1,38,78,2457222136
6824,13,Improv_Metronome,103,5,42,127,2457247156
6824,13,Improv_Metronome,104,5,42,127,2457747080
6824,13,Improv_Metronome,105,1,48,68,2457801584
6824,13,Improv_Metronome,106,5,42,127,2458246556
6824,13,Improv_Metronome,107,1,48,53,2458280416
6824,13,Improv_Metronome,108,5,42,127,2458747296
6824,13,Improv_Metronome,109,1,38,56,2458825812
6824,13,Improv_Metronome,110,5,42,127,2459246988
6824,13,Improv_Metronome,111,1,38,74,2459264472
6824,13,Improv_Metronome,112,5,42,127,2459746832
6824,13,Improv_Metronome,113,1,38,61,2459772240
6824,13,Improv_Metronome,114,5,42,127,2460247352
6824,13,Improv_Metronome,115,1,38,64,2460256076
6824,13,Improv_Metronome,116,5,42,127,2460747048
6824,13,Improv_Metronome,117,1,48,58,2460783000
6824,13,Improv_Metronome,118,5,42,127,2461246964
6824,13,Improv_Metronome,119,1,48,63,2461280380
6824,13,Improv_Metronome,120,5,42,127,2461746512
6824,13,Improv_Metronome,121,5,42,127,2462247204
6824,13,Improv_Metronome,122,5,42,127,2462746992
6824,13,Improv_Metronome,123,1,38,69,2462755496
6824,13,Improv_Metronome,124,1,38,45,2463116096
6824,13,Improv_Metronome,125,5,42,127,2463246888
6824,13,Improv_Metronome,126,1,38,47,2463261900
6824,13,Improv_Metronome,127,5,42,127,2463746360
6824,13,Improv_Metronome,128,1,48,58,2463798992
6824,13,Improv_Metronome,129,5,42,127,2464247176
6824,13,Improv_Metronome,130,1,48,65,2464264880
6824,13,Improv_Metronome,131,5,42,127,2464746796
6824,13,Improv_Metronome,132,1,38,68,2464805340
6824,13,Improv_Metronome,133,1,38,60,2465182924
6824,13,Improv_Metronome,134,5,42,127,2465246708
6824,13,Improv_Metronome,135,1,38,65,2465364404
6824,13,Improv_Metronome,136,5,42,127,2465747260
6824,13,Improv_Metronome,137,1,48,67,2465873372
6824,13,Improv_Metronome,138,5,42,127,2466246956
6824,13,Improv_Metronome,139,1,48,57,2466359752
6824,13,Improv_Metronome,140,5,42,127,2466746876
6824,13,Improv_Metronome,141,1,38,62,2466834544
6824,13,Improv_Metronome,142,1,38,59,2467111664
6824,13,Improv_Metronome,143,5,42,127,2467246324
6824,13,Improv_Metronome,144,1,38,47,2467342812
6824,13,Improv_Metronome,145,5,42,127,2467747064
6824,13,Improv_Metronome,146,1,48,55,2467862476
6824,13,Improv_Metronome,147,5,42,127,2468246760
6824,13,Improv_Metronome,148,1,48,63,2468355064
6824,13,Improv_Metronome,149,5,42,127,2468746676
6824,13,Improv_Metronome,150,1,38,67,2468858648
6824,13,Improv_Metronome,151,1,38,69,2469215588
6824,13,Improv_Metronome,152,5,42,127,2469247336
6824,13,Improv_Metronome,153,1,38,67,2469405072
6824,13,Improv_Metronome,154,5,42,127,2469747092
6824,13,Improv_Metronome,155,1,48,61,2469946276
6824,13,Improv_Metronome,156,5,42,127,2470246784
6824,13,Improv_Metronome,157,1,48,57,2470462052
6824,13,Improv_Metronome,158,5,42,127,2470746480
6824,13,Improv_Metronome,159,1,48,50,2471017996
6824,13,Improv_Metronome,160,5,42,127,2471247148
6824,13,Improv_Metronome,161,1,48,51,2471472216
6824,13,Improv_Metronome,162,1,48,53,2471717180
6824,13,Improv_Metronome,163,5,42,127,2471746984
6824,13,Improv_Metronome,164,5,42,127,2472246760
6824,13,Improv_Metronome,165,1,38,58,2472341656
6824,13,Improv_Metronome,166,5,42,127,2472747352
6824,13,Improv_Metronome,167,1,38,68,2472804700
6824,13,Improv_Metronome,168,5,42,127,2473246972
6824,13,Improv_Metronome,169,1,48,64,2473470172
6824,13,Improv_Metronome,170,5,42,127,2473746740
6824,13,Improv_Metronome,171,5,42,127,2474246532
6824,13,Improv_Metronome,172,1,38,72,2474358332
6824,13,Improv_Metronome,173,1,38,59,2474606140
6824,13,Improv_Metronome,174,5,42,127,2474747256
6824,13,Improv_Metronome,175,1,38,70,2475055128
6824,13,Improv_Metronome,176,5,42,127,2475246948
6824,13,Improv_Metronome,177,1,38,68,2475536720
6824,13,Improv_Metronome,178,5,42,127,2475746792
6824,13,Improv_Metronome,179,1,48,71,2476095276
6824,13,Improv_Metronome,180,5,42,127,2476247660
6824,13,Improv_Metronome,181,1,48,60,2476501300
6824,13,Improv_Metronome,182,5,42,127,2476746980
6824,13,Improv_Metronome,183,5,42,127,2477246772
6824,13,Improv_Metronome,184,1,38,85,2477471088
6824,13,Improv_Metronome,185,5,42,127,2477746612
6824,13,Improv_Metronome,186,1,38,72,2477924712
6824,13,Improv_Metronome,187,1,38,66,2478214852
6824,13,Improv_Metronome,188,5,42,127,2478247204
6824,13,Improv_Metronome,189,5,42,127,2478746980
6824,13,Improv_Metronome,190,1,38,62,2478757648
6824,13,Improv_Metronome,191,1,38,61,2479243712
6824,13,Improv_Metronome,192,5,42,127,2479246740
6824,13,Improv_Metronome,193,5,42,127,2479746740
6824,13,Improv_Metronome,194,1,48,57,2479757036
6824,13,Improv_Metronome,195,1,48,56,2480201288
6824,13,Improv_Metronome,196,5,42,127,2480247028
6824,13,Improv_Metronome,197,5,42,127,2480746876
6824,13,Improv_Metronome,198,5,42,127,2481246668
6824,13,Improv_Metronome,199,1,38,59,2481258912
6824,13,Improv_Metronome,200,1,38,56,2481647140
6824,13,Improv_Metronome,201,5,42,127,2481747312
6824,13,Improv_Metronome,202,1,38,57,2481861280
6824,13,Improv_Metronome,203,5,42,127,2482246936
6824,13,Improv_Metronome,204,1,48,51,2482420316
6824,13,Improv_Metronome,205,5,42,127,2482746852
6824,13,Improv_Metronome,206,1,48,55,2482942596
6824,13,Improv_Metronome,207,5,42,127,2483246620
6824,13,Improv_Metronome,208,1,38,55,2483518140
6824,13,Improv_Metronome,209,5,42,127,2483747288
6824,13,Improv_Metronome,210,1,38,58,2483907856
6824,13,Improv_Metronome,211,1,38,65,2484111680
6824,13,Improv_Metronome,212,5,42,127,2484246812
6824,13,Improv_Metronome,213,1,48,71,2484652812
6824,13,Improv_Metronome,214,5,42,127,2484747552
6824,13,Improv_Metronome,215,1,48,51,2485157000
6824,13,Improv_Metronome,216,5,42,127,2485248592
6824,13,Improv_Metronome,217,1,38,60,2485682568
6824,13,Improv_Metronome,218,5,42,127,2485747032
6824,13,Improv_Metronome,219,1,38,47,2486084956
6824,13,Improv_Metronome,220,5,42,127,2486246712
6824,13,Improv_Metronome,221,1,38,53,2486290892
6824,13,Improv_Metronome,222,5,42,127,2486746532
6824,13,Improv_Metronome,223,1,48,63,2486827140
6824,13,Improv_Metronome,224,5,42,127,2487247320
6824,13,Improv_Metronome,225,1,48,56,2487319580
6824,13,Improv_Metronome,226,5,42,127,2487746868
6824,13,Improv_Metronome,227,5,42,127,2488246732
6824,13,Improv_Metronome,228,5,42,127,2488747348
6824,13,Improv_Metronome,229,1,38,56,2488774852
6824,13,Improv_Metronome,230,1,38,50,2489193596
6824,13,Improv_Metronome,231,5,42,127,2489247184
6824,13,Improv_Metronome,232,5,42,127,2489746736
6824,13,Improv_Metronome,233,1,48,63,2489924832
6824,13,Improv_Metronome,234,5,42,127,2490246580
6824,13,Improv_Metronome,235,1,48,67,2490376508
6824,13,Improv_Metronome,236,5,42,127,2490747396
6824,13,Improv_Metronome,237,1,38,48,2491181844
6824,13,Improv_Metronome,238,5,42,127,2491246808
6824,13,Improv_Metronome,239,1,38,68,2491615120
6824,13,Improv_Metronome,240,5,42,127,2491746708
6824,13,Improv_Metronome,241,5,42,127,2492247324
6824,13,Improv_Metronome,242,1,48,58,2492324944
6824,13,Improv_Metronome,243,5,42,127,2492747168
6824,13,Improv_Metronome,244,1,48,63,2492752232
6824,13,Improv_Metronome,245,5,42,127,2493246788
6824,13,Improv_Metronome,246,1,38,52,2493537384
6824,13,Improv_Metronome,247,5,42,127,2493746632
6824,13,Improv_Metronome,248,1,38,68,2493913856
6824,13,Improv_Metronome,249,1,38,66,2494155156
6824,13,Improv_Metronome,250,5,42,127,2494248620
6824,13,Improv_Metronome,251,1,48,70,2494675568
6824,13,Improv_Metronome,252,5,42,127,2494747208
6824,13,Improv_Metronome,253,1,48,66,2495198552
6824,13,Improv_Metronome,254,5,42,127,2495246680
6824,13,Improv_Metronome,255,5,42,127,2495746308
6824,13,Improv_Metronome,256,1,38,59,2495781880
6824,13,Improv_Metronome,257,1,38,60,2496142936
6824,13,Improv_Metronome,258,5,42,127,2496247248
6824,13,Improv_Metronome,259,1,38,55,2496356204
6824,13,Improv_Metronome,260,5,42,127,2496746868
6824,13,Improv_Metronome,261,1,48,67,2496917612
6824,13,Improv_Metronome,262,5,42,127,2497246712
6824,13,Improv_Metronome,263,1,48,69,2497389104
6824,13,Improv_Metronome,264,5,42,127,2497747204
6824,13,Improv_Metronome,265,1,38,58,2497976392
6824,13,Improv_Metronome,266,5,42,127,2498247048
6824,13,Improv_Metronome,267,1,38,51,2498322744
6824,13,Improv_Metronome,268,1,38,67,2498545048
6824,13,Improv_Metronome,269,5,42,127,2498746872
6824,13,Improv_Metronome,270,1,48,67,2499068980
6824,13,Improv_Metronome,271,5,42,127,2499246564
6824,13,Improv_Metronome,272,1,48,67,2499566200
6824,13,Improv_Metronome,273,5,42,127,2499747156
6824,13,Improv_Metronome,274,1,38,70,2500119976
6824,13,Improv_Metronome,275,5,42,127,2500247000
6824,13,Improv_Metronome,276,1,38,69,2500514552
6824,13,Improv_Metronome,277,1,38,54,2500745412
6824,13,Improv_Metronome,278,5,42,127,2500748336
6824,13,Improv_Metronome,279,5,42,127,2501247436
6824,13,Improv_Metronome,280,1,48,55,2501339268
6824,13,Improv_Metronome,281,5,42,127,2501747032
6824,13,Improv_Metronome,282,1,48,58,2501837436
6824,13,Improv_Metronome,0,9999,9999,9999,2432244856
6824,13,Improv_Metronome,1,9999,9999,9999,2432744572
6824,13,Improv_Metronome,2,9999,9999,9999,2433244264
6824,13,Improv_Metronome,3,9999,9999,9999,2433744996
6824,13,Improv_Metronome,4,9999,9999,9999,2434244676
6824,13,Improv_Metronome,5,9999,9999,9999,2434744372
6824,13,Improv_Metronome,6,9999,9999,9999,2435244140
6824,13,Improv_Metronome,7,9999,9999,9999,2435744880
6824,13,Improv_Metronome,8,9999,9999,9999,2436244552
6824,13,Improv_Metronome,9,9999,9999,9999,2436744264
6824,13,Improv_Metronome,10,9999,9999,9999,2437245008
6824,13,Improv_Metronome,11,9999,9999,9999,2437744708
6824,13,Improv_Metronome,12,9999,9999,9999,2438244424
6824,13,Improv_Metronome,13,9999,9999,9999,2438744136
6824,13,Improv_Metronome,14,9999,9999,9999,2439244860
6824,13,Improv_Metronome,15,9999,9999,9999,2439744632
6824,13,Improv_Metronome,16,9999,9999,9999,2440244304
6824,13,Improv_Metronome,17,9999,9999,9999,2440745044
6824,13,Improv_Metronome,18,9999,9999,9999,2441244740
6824,13,Improv_Metronome,19,9999,9999,9999,2441744436
6824,13,Improv_Metronome,20,9999,9999,9999,2442244204
6824,13,Improv_Metronome,21,9999,9999,9999,2442744924
6824,13,Improv_Metronome,22,9999,9999,9999,2443244596
6824,13,Improv_Metronome,23,9999,9999,9999,2443744364
6824,13,Improv_Metronome,24,9999,9999,9999,2444245096
6824,13,Improv_Metronome,25,9999,9999,9999,2444744800
6824,13,Improv_Metronome,26,9999,9999,9999,2445244492
6824,13,Improv_Metronome,27,9999,9999,9999,2445744188
6824,13,Improv_Metronome,28,9999,9999,9999,2446244928
6824,13,Improv_Metronome,29,9999,9999,9999,2446744676
6824,13,Improv_Metronome,30,9999,9999,9999,2447244372
6824,13,Improv_Metronome,31,9999,9999,9999,2447744068
6824,13,Improv_Metronome,32,9999,9999,9999,2448244808
6824,13,Improv_Metronome,33,9999,9999,9999,2448744504
6824,13,Improv_Metronome,34,9999,9999,9999,2449244252
6824,13,Improv_Metronome,35,9999,9999,9999,2449744992
6824,13,Improv_Metronome,36,9999,9999,9999,2450244684
6824,13,Improv_Metronome,37,9999,9999,9999,2450744396
6824,13,Improv_Metronome,38,9999,9999,9999,2451244152
6824,13,Improv_Metronome,39,9999,9999,9999,2451744820
6824,13,Improv_Metronome,40,9999,9999,9999,2452244588
6824,13,Improv_Metronome,41,9999,9999,9999,2452744284
6824,13,Improv_Metronome,42,9999,9999,9999,2453245024
6824,13,Improv_Metronome,43,9999,9999,9999,2453744720
6824,13,Improv_Metronome,44,9999,9999,9999,2454244412
6824,13,Improv_Metronome,45,9999,9999,9999,2454744156
6824,13,Improv_Metronome,46,9999,9999,9999,2455244900
6824,13,Improv_Metronome,47,9999,9999,9999,2455744596
6824,13,Improv_Metronome,48,9999,9999,9999,2456244344
6824,13,Improv_Metronome,49,9999,9999,9999,2456745024
6824,13,Improv_Metronome,50,9999,9999,9999,2457244720
6824,13,Improv_Metronome,51,9999,9999,9999,2457744496
6824,13,Improv_Metronome,52,9999,9999,9999,2458244192
6824,13,Improv_Metronome,53,9999,9999,9999,2458744936
6824,13,Improv_Metronome,54,9999,9999,9999,2459244628
6824,13,Improv_Metronome,55,9999,9999,9999,2459744324
6824,13,Improv_Metronome,56,9999,9999,9999,2460245064
6824,13,Improv_Metronome,57,9999,9999,9999,2460744760
6824,13,Improv_Metronome,58,9999,9999,9999,2461244528
6824,13,Improv_Metronome,59,9999,9999,9999,2461744224
6824,13,Improv_Metronome,60,9999,9999,9999,2462244916
6824,13,Improv_Metronome,61,9999,9999,9999,2462744632
6824,13,Improv_Metronome,62,9999,9999,9999,2463244376
6824,13,Improv_Metronome,63,9999,9999,9999,2463744072
6824,13,Improv_Metronome,64,9999,9999,9999,2464244812
6824,13,Improv_Metronome,65,9999,9999,9999,2464744508
6824,13,Improv_Metronome,66,9999,9999,9999,2465244248
6824,13,Improv_Metronome,67,9999,9999,9999,2465744972
6824,13,Improv_Metronome,68,9999,9999,9999,2466244668
6824,13,Improv_Metronome,69,9999,9999,9999,2466744440
6824,13,Improv_Metronome,70,9999,9999,9999,2467244112
6824,13,Improv_Metronome,71,9999,9999,9999,2467744852
6824,13,Improv_Metronome,72,9999,9999,9999,2468244548
6824,13,Improv_Metronome,73,9999,9999,9999,2468744316
6824,13,Improv_Metronome,74,9999,9999,9999,2469245052
6824,13,Improv_Metronome,75,9999,9999,9999,2469744728
6824,13,Improv_Metronome,76,9999,9999,9999,2470244424
6824,13,Improv_Metronome,77,9999,9999,9999,2470744120
6824,13,Improv_Metronome,78,9999,9999,9999,2471244860
6824,13,Improv_Metronome,79,9999,9999,9999,2471744624
6824,13,Improv_Metronome,80,9999,9999,9999,2472244324
6824,13,Improv_Metronome,81,9999,9999,9999,2472745064
6824,13,Improv_Metronome,82,9999,9999,9999,2473244760
6824,13,Improv_Metronome,83,9999,9999,9999,2473744452
6824,13,Improv_Metronome,84,9999,9999,9999,2474244172
6824,13,Improv_Metronome,85,9999,9999,9999,2474744892
6824,13,Improv_Metronome,86,9999,9999,9999,2475244660
6824,13,Improv_Metronome,87,9999,9999,9999,2475744356
6824,13,Improv_Metronome,88,9999,9999,9999,2476245072
6824,13,Improv_Metronome,89,9999,9999,9999,2476744768
6824,13,Improv_Metronome,90,9999,9999,9999,2477244484
6824,13,Improv_Metronome,91,9999,9999,9999,2477744252
6824,13,Improv_Metronome,92,9999,9999,9999,2478244912
6824,13,Improv_Metronome,93,9999,9999,9999,2478744692
6824,13,Improv_Metronome,94,9999,9999,9999,2479244376
6824,13,Improv_Metronome,95,9999,9999,9999,2479744080
6824,13,Improv_Metronome,96,9999,9999,9999,2480244812
6824,13,Improv_Metronome,97,9999,9999,9999,2480744512
6824,13,Improv_Metronome,98,9999,9999,9999,2481244232
6824,13,Improv_Metronome,99,9999,9999,9999,2481744952
6824,13,Improv_Metronome,100,9999,9999,9999,2482244720
6824,13,Improv_Metronome,101,9999,9999,9999,2482744416
6824,13,Improv_Metronome,102,9999,9999,9999,2483244112
6824,13,Improv_Metronome,103,9999,9999,9999,2483744852
6824,13,Improv_Metronome,104,9999,9999,9999,2484244600
6824,13,Improv_Metronome,105,9999,9999,9999,2484744308
6824,13,Improv_Metronome,106,9999,9999,9999,2485245048
6824,13,Improv_Metronome,107,9999,9999,9999,2485744744
6824,13,Improv_Metronome,108,9999,9999,9999,2486244424
6824,13,Improv_Metronome,109,9999,9999,9999,2486744168
6824,13,Improv_Metronome,110,9999,9999,9999,2487244884
6824,13,Improv_Metronome,111,9999,9999,9999,2487744580
6824,13,Improv_Metronome,112,9999,9999,9999,2488244296
6824,13,Improv_Metronome,113,9999,9999,9999,2488745060
6824,13,Improv_Metronome,114,9999,9999,9999,2489244748
6824,13,Improv_Metronome,115,9999,9999,9999,2489744448
6824,13,Improv_Metronome,116,9999,9999,9999,2490244216
6824,13,Improv_Metronome,117,9999,9999,9999,2490744884
6824,13,Improv_Metronome,118,9999,9999,9999,2491244592
6824,13,Improv_Metronome,119,9999,9999,9999,2491744348
6824,13,Improv_Metronome,120,9999,9999,9999,2492245112
6824,13,Improv_Metronome,121,9999,9999,9999,2492744808
6824,13,Improv_Metronome,122,9999,9999,9999,2493244500
6824,13,Improv_Metronome,123,9999,9999,9999,2493744196
6824,13,Improv_Metronome,124,9999,9999,9999,2494244928
6824,13,Improv_Metronome,125,9999,9999,9999,2494744700
6824,13,Improv_Metronome,126,9999,9999,9999,2495244392
6824,13,Improv_Metronome,127,9999,9999,9999,2495744092
6824,13,Improv_Metronome,128,9999,9999,9999,2496244812
6824,13,Improv_Metronome,129,9999,9999,9999,2496744508
6824,13,Improv_Metronome,130,9999,9999,9999,2497244276
6824,13,Improv_Metronome,131,9999,9999,9999,2497744992
6824,13,Improv_Metronome,132,9999,9999,9999,2498244688
6824,13,Improv_Metronome,133,9999,9999,9999,2498744436
6824,13,Improv_Metronome,134,9999,9999,9999,2499244128
6824,13,Improv_Metronome,135,9999,9999,9999,2499744868
6824,13,Improv_Metronome,136,9999,9999,9999,2500244564
6824,13,Improv_Metronome,137,9999,9999,9999,2500744256
6824,13,Improv_Metronome,138,9999,9999,9999,2501245000
6824,13,Improv_Metronome,139,9999,9999,9999,2501744744
6825,14,Improv_Melody,0,2,48,80,2547841304
6825,14,Improv_Melody,1,2,72,80,2547843968
6825,14,Improv_Melody,2,5,42,127,2547845536
6825,14,Improv_Melody,3,5,42,110,2548338004
6825,14,Improv_Melody,4,5,42,110,2548837948
6825,14,Improv_Melody,5,5,42,110,2549337448
6825,14,Improv_Melody,6,5,42,127,2549838068
6825,14,Improv_Melody,7,5,42,110,2550338012
6825,14,Improv_Melody,8,5,42,110,2550837584
6825,14,Improv_Melody,9,5,42,110,2551338204
6825,14,Improv_Melody,10,2,43,80,2551840500
6825,14,Improv_Melody,11,2,67,80,2551842652
6825,14,Improv_Melody,12,5,42,127,2551845268
6825,14,Improv_Melody,13,5,42,110,2552337812
6825,14,Improv_Melody,14,5,42,110,2552837384
6825,14,Improv_Melody,15,5,42,110,2553338076
6825,14,Improv_Melody,16,5,42,127,2553837800
6825,14,Improv_Melody,17,5,42,110,2554337668
6825,14,Improv_Melody,18,5,42,110,2554838336
6825,14,Improv_Melody,19,5,42,110,2555338108
6825,14,Improv_Melody,20,2,45,80,2555840336
6825,14,Improv_Melody,21,2,69,80,2555842484
6825,14,Improv_Melody,22,5,42,127,2555845172
6825,14,Improv_Melody,23,5,42,110,2556337640
6825,14,Improv_Melody,24,5,42,110,2556838184
6825,14,Improv_Melody,25,5,42,110,2557337908
6825,14,Improv_Melody,26,5,42,127,2557837776
6825,14,Improv_Melody,27,5,42,110,2558338396
6825,14,Improv_Melody,28,5,42,110,2558838268
6825,14,Improv_Melody,29,5,42,110,2559337764
6825,14,Improv_Melody,30,2,41,80,2559839988
6825,14,Improv_Melody,31,2,65,80,2559842288
6825,14,Improv_Melody,32,5,42,127,2559844828
6825,14,Improv_Melody,33,5,42,110,2560338268
6825,14,Improv_Melody,34,5,42,110,2560837916
6825,14,Improv_Melody,35,5,42,110,2561337636
6825,14,Improv_Melody,36,5,42,127,2561837508
6825,14,Improv_Melody,37,5,42,110,2562338276
6825,14,Improv_Melody,38,5,42,110,2562837852
6825,14,Improv_Melody,39,1,38,51,2562871488
6825,14,Improv_Melody,40,5,42,110,2563337700
6825,14,Improv_Melody,41,2,48,80,2563840972
6825,14,Improv_Melody,42,2,72,80,2563843352
6825,14,Improv_Melody,43,5,42,127,2563845660
6825,14,Improv_Melody,44,1,48,37,2563851696
6825,14,Improv_Melody,45,1,48,41,2564282308
6825,14,Improv_Melody,46,5,42,110,2564338100
6825,14,Improv_Melody,47,5,42,110,2564837732
6825,14,Improv_Melody,48,1,38,59,2565274704
6825,14,Improv_Melody,49,5,42,110,2565337520
6825,14,Improv_Melody,50,5,42,127,2565838176
6825,14,Improv_Melody,51,1,48,35,2566268288
6825,14,Improv_Melody,52,5,42,110,2566337888
6825,14,Improv_Melody,53,1,48,41,2566792372
6825,14,Improv_Melody,54,5,42,110,2566837664
6825,14,Improv_Melody,55,5,42,110,2567338640
6825,14,Improv_Melody,56,2,43,80,2567840720
6825,14,Improv_Melody,57,2,67,80,2567842572
6825,14,Improv_Melody,58,5,42,127,2567845188
6825,14,Improv_Melody,59,1,38,51,2567874480
6825,14,Improv_Melody,60,5,42,110,2568337708
6825,14,Improv_Melody,61,5,42,110,2568837428
6825,14,Improv_Melody,62,1,48,46,2568883256
6825,14,Improv_Melody,63,5,42,110,2569338248
6825,14,Improv_Melody,64,1,48,47,2569356480
6825,14,Improv_Melody,65,5,42,127,2569837876
6825,14,Improv_Melody,66,1,48,52,2569845256
6825,14,Improv_Melody,67,5,42,110,2570337500
6825,14,Improv_Melody,68,1,38,62,2570758264
6825,14,Improv_Melody,69,5,42,110,2570838560
6825,14,Improv_Melody,70,5,42,110,2571338040
6825,14,Improv_Melody,71,1,48,60,2571762392
6825,14,Improv_Melody,72,2,45,80,2571840412
6825,14,Improv_Melody,73,2,69,80,2571842336
6825,14,Improv_Melody,74,5,42,127,2571845024
6825,14,Improv_Melody,75,1,48,51,2572331372
6825,14,Improv_Melody,76,5,42,110,2572337620
6825,14,Improv_Melody,77,1,48,52,2572831072
6825,14,Improv_Melody,78,5,42,110,2572838292
6825,14,Improv_Melody,79,5,42,110,2573337924
6825,14,Improv_Melody,80,1,38,51,2573783272
6825,14,Improv_Melody,81,5,42,127,2573837616
6825,14,Improv_Melody,82,5,42,110,2574338368
6825,14,Improv_Melody,83,1,48,57,2574806452
6825,14,Improv_Melody,84,5,42,110,2574838008
6825,14,Improv_Melody,85,1,48,57,2575308248
6825,14,Improv_Melody,86,5,42,110,2575337708
6825,14,Improv_Melody,87,1,48,57,2575808320
6825,14,Improv_Melody,88,2,41,80,2575839832
6825,14,Improv_Melody,89,2,65,80,2575842208
6825,14,Improv_Melody,90,5,42,127,2575844600
6825,14,Improv_Melody,91,5,42,110,2576338372
6825,14,Improv_Melody,92,5,42,110,2576837872
6825,14,Improv_Melody,93,1,48,51,2576892400
6825,14,Improv_Melody,94,5,42,110,2577337648
6825,14,Improv_Melody,95,1,48,47,2577737244
6825,14,Improv_Melody,96,5,42,127,2577837496
6825,14,Improv_Melody,97,5,42,110,2578338116
6825,14,Improv_Melody,98,1,48,46,2578754840
6825,14,Improv_Melody,99,5,42,110,2578837904
6825,14,Improv_Melody,100,5,42,110,2579337460
6825,14,Improv_Melody,101,2,48,80,2579840732
6825,14,Improv_Melody,102,2,72,80,2579842956
6825,14,Improv_Melody,103,5,42,127,2579845500
6825,14,Improv_Melody,104,1,38,42,2580205976
6825,14,Improv_Melody,105,1,38,23,2580278584
6825,14,Improv_Melody,106,5,42,110,2580338012
6825,14,Improv_Melody,107,5,42,110,2580837792
6825,14,Improv_Melody,108,1,48,48,2581243444
6825,14,Improv_Melody,109,5,42,110,2581337432
6825,14,Improv_Melody,110,1,48,44,2581735216
6825,14,Improv_Melody,111,5,42,127,2581838240
6825,14,Improv_Melody,112,5,42,110,2582337888
6825,14,Improv_Melody,113,1,38,40,2582835020
6825,14,Improv_Melody,114,5,42,110,2582837676
6825,14,Improv_Melody,115,5,42,110,2583338280
6825,14,Improv_Melody,116,2,43,80,2583840504
6825,14,Improv_Melody,117,2,67,80,2583842732
6825,14,Improv_Melody,118,5,42,127,2583845344
6825,14,Improv_Melody,119,1,48,43,2583860732
6825,14,Improv_Melody,120,5,42,110,2584337864
6825,14,Improv_Melody,121,1,48,52,2584367392
6825,14,Improv_Melody,122,5,42,110,2584837492
6825,14,Improv_Melody,123,5,42,110,2585338184
6825,14,Improv_Melody,124,5,42,127,2585838056
6825,14,Improv_Melody,125,1,38,42,2585885080
6825,14,Improv_Melody,126,5,42,110,2586337608
6825,14,Improv_Melody,127,5,42,110,2586838276
6825,14,Improv_Melody,128,1,48,44,2586949400
6825,14,Improv_Melody,129,5,42,110,2587338172
6825,14,Improv_Melody,130,1,48,44,2587419480
6825,14,Improv_Melody,131,2,45,80,2587840300
6825,14,Improv_Melody,132,2,69,80,2587842608
6825,14,Improv_Melody,133,5,42,127,2587845216
6825,14,Improv_Melody,134,5,42,110,2588337460
6825,14,Improv_Melody,135,1,48,53,2588824796
6825,14,Improv_Melody,136,5,42,110,2588838220
6825,14,Improv_Melody,137,5,42,110,2589338152
6825,14,Improv_Melody,138,1,38,39,2589780312
6825,14,Improv_Melody,139,5,42,127,2589837720
6825,14,Improv_Melody,140,5,42,110,2590338400
6825,14,Improv_Melody,141,5,42,110,2590838120
6825,14,Improv_Melody,142,5,42,110,2591337992
6825,14,Improv_Melody,143,2,41,80,2591839992
6825,14,Improv_Melody,144,2,65,80,2591842216
6825,14,Improv_Melody,145,5,42,127,2591844832
6825,14,Improv_Melody,146,5,42,110,2592338200
6825,14,Improv_Melody,147,1,38,46,2592741904
6825,14,Improv_Melody,148,5,42,110,2592838044
6825,14,Improv_Melody,149,5,42,110,2593337844
6825,14,Improv_Melody,150,1,48,55,2593695376
6825,14,Improv_Melody,151,5,42,127,2593837392
6825,14,Improv_Melody,152,1,48,49,2594194028
6825,14,Improv_Melody,153,5,42,110,2594338140
6825,14,Improv_Melody,154,1,48,50,2594667472
6825,14,Improv_Melody,155,5,42,110,2594837840
6825,14,Improv_Melody,156,5,42,110,2595337484
6825,14,Improv_Melody,157,1,48,52,2595774756
6825,14,Improv_Melody,158,2,48,80,2595840976
6825,14,Improv_Melody,159,2,72,80,2595842976
6825,14,Improv_Melody,160,5,42,127,2595845592
6825,14,Improv_Melody,161,5,42,110,2596337968
6825,14,Improv_Melody,162,1,38,35,2596816376
6825,14,Improv_Melody,163,5,42,110,2596837904
6825,14,Improv_Melody,164,5,42,110,2597337392
6825,14,Improv_Melody,165,5,42,127,2597838136
6825,14,Improv_Melody,166,5,42,110,2598338004
6825,14,Improv_Melody,167,5,42,110,2598837876
6825,14,Improv_Melody,168,5,42,110,2599338268
6825,14,Improv_Melody,169,2,43,80,2599840416
6825,14,Improv_Melody,170,2,67,80,2599842792
6825,14,Improv_Melody,171,5,42,127,2599845112
6825,14,Improv_Melody,172,1,48,20,2599967256
6825,14,Improv_Melody,173,5,42,110,2600337928
6825,14,Improv_Melody,174,1,48,46,2600409812
6825,14,Improv_Melody,175,5,42,110,2600837776
6825,14,Improv_Melody,176,1,38,42,2601280684
6825,14,Improv_Melody,177,5,42,110,2601338092
6825,14,Improv_Melody,178,5,42,127,2601837876
6825,14,Improv_Melody,179,5,42,110,2602337892
6825,14,Improv_Melody,180,5,42,110,2602838364
6825,14,Improv_Melody,181,5,42,110,2603338088
6825,14,Improv_Melody,182,2,45,80,2603840160
6825,14,Improv_Melody,183,2,69,80,2603842616
6825,14,Improv_Melody,184,5,42,127,2603845004
6825,14,Improv_Melody,185,1,48,49,2603939376
6825,14,Improv_Melody,186,5,42,110,2604337672
6825,14,Improv_Melody,187,1,48,59,2604368920
6825,14,Improv_Melody,188,5,42,110,2604838120
6825,14,Improv_Melody,189,5,42,110,2605337916
6825,14,Improv_Melody,190,1,38,53,2605341108
6825,14,Improv_Melody,191,5,42,127,2605837768
6825,14,Improv_Melody,192,5,42,110,2606338532
6825,14,Improv_Melody,193,5,42,110,2606838108
6825,14,Improv_Melody,194,5,42,110,2607337752
6825,14,Improv_Melody,195,2,41,80,2607840284
6825,14,Improv_Melody,196,2,65,80,2607842504
6825,14,Improv_Melody,197,5,42,127,2607844816
6825,14,Improv_Melody,198,1,48,54,2608058568
6825,14,Improv_Melody,199,5,42,110,2608338284
6825,14,Improv_Melody,200,1,48,59,2608480024
6825,14,Improv_Melody,201,5,42,110,2608837908
6825,14,Improv_Melody,202,5,42,110,2609337856
6825,14,Improv_Melody,203,1,38,54,2609449084
6825,14,Improv_Melody,204,5,42,127,2609837704
6825,14,Improv_Melody,205,5,42,110,2610338024
6825,14,Improv_Melody,206,5,42,110,2610837748
6825,14,Improv_Melody,207,5,42,110,2611337616
6825,14,Improv_Melody,208,2,48,80,2611840812
6825,14,Improv_Melody,209,2,72,80,2611843120
6825,14,Improv_Melody,210,5,42,127,2611845580
6825,14,Improv_Melody,211,1,48,43,2612259836
6825,14,Improv_Melody,212,5,42,110,2612337968
6825,14,Improv_Melody,213,1,48,44,2612690920
6825,14,Improv_Melody,214,5,42,110,2612837652
6825,14,Improv_Melody,215,5,42,110,2613337448
6825,14,Improv_Melody,216,1,38,48,2613607168
6825,14,Improv_Melody,217,5,42,127,2613838344
6825,14,Improv_Melody,218,5,42,110,2614337840
6825,14,Improv_Melody,219,5,42,110,2614837564
6825,14,Improv_Melody,220,5,42,110,2615338480
6825,14,Improv_Melody,221,2,43,80,2615840784
6825,14,Improv_Melody,222,2,67,80,2615842860
6825,14,Improv_Melody,223,5,42,127,2615845544
6825,14,Improv_Melody,224,1,48,44,2615908504
6825,14,Improv_Melody,225,5,42,110,2616337912
6825,14,Improv_Melody,226,1,48,54,2616386208
6825,14,Improv_Melody,227,5,42,110,2616837612
6825,14,Improv_Melody,228,1,38,49,2617301904
6825,14,Improv_Melody,229,5,42,110,2617338300
6825,14,Improv_Melody,230,5,42,127,2617837860
6825,14,Improv_Melody,231,5,42,110,2618337580
6825,14,Improv_Melody,232,5,42,110,2618838348
6825,14,Improv_Melody,233,5,42,110,2619338044
6825,14,Improv_Melody,234,1,48,50,2619359736
6825,14,Improv_Melody,235,2,45,80,2619840324
6825,14,Improv_Melody,236,2,69,80,2619842472
6825,14,Improv_Melody,237,5,42,127,2619845236
6825,14,Improv_Melody,238,1,48,43,2620217084
6825,14,Improv_Melody,239,5,42,110,2620337464
6825,14,Improv_Melody,240,5,42,110,2620838304
6825,14,Improv_Melody,241,5,42,110,2621338248
6825,14,Improv_Melody,242,1,38,48,2621370312
6825,14,Improv_Melody,243,5,42,127,2621837652
6825,14,Improv_Melody,244,5,42,110,2622338348
6825,14,Improv_Melody,245,5,42,110,2622838516
6825,14,Improv_Melody,246,5,42,110,2623337716
6825,14,Improv_Melody,247,1,48,39,2623408528
6825,14,Improv_Melody,248,2,41,80,2623840144
6825,14,Improv_Melody,249,2,65,80,2623842216
6825,14,Improv_Melody,250,5,42,127,2623844908
6825,14,Improv_Melody,251,1,48,44,2623919460
6825,14,Improv_Melody,252,5,42,110,2624338400
6825,14,Improv_Melody,253,5,42,110,2624838268
6825,14,Improv_Melody,254,1,38,51,2625201340
6825,14,Improv_Melody,255,5,42,110,2625337672
6825,14,Improv_Melody,256,5,42,127,2625837540
6825,14,Improv_Melody,257,5,42,110,2626338308
6825,14,Improv_Melody,258,5,42,110,2626837736
6825,14,Improv_Melody,259,5,42,110,2627337604
6825,14,Improv_Melody,260,2,48,80,2627840724
6825,14,Improv_Melody,261,2,72,80,2627843108
6825,14,Improv_Melody,262,5,42,127,2627845416
6825,14,Improv_Melody,263,5,42,110,2628338256
6825,14,Improv_Melody,264,1,48,48,2628371596
6825,14,Improv_Melody,0,9999,9999,9999,2547836024
6825,14,Improv_Melody,1,9999,9999,9999,2548335712
6825,14,Improv_Melody,2,9999,9999,9999,2548835432
6825,14,Improv_Melody,3,9999,9999,9999,2549335156
6825,14,Improv_Melody,4,9999,9999,9999,2549835848
6825,14,Improv_Melody,5,9999,9999,9999,2550335572
6825,14,Improv_Melody,6,9999,9999,9999,2550835292
6825,14,Improv_Melody,7,9999,9999,9999,2551335984
6825,14,Improv_Melody,8,9999,9999,9999,2551835708
6825,14,Improv_Melody,9,9999,9999,9999,2552335444
6825,14,Improv_Melody,10,9999,9999,9999,2552835164
6825,14,Improv_Melody,11,9999,9999,9999,2553335856
6825,14,Improv_Melody,12,9999,9999,9999,2553835580
6825,14,Improv_Melody,13,9999,9999,9999,2554335300
6825,14,Improv_Melody,14,9999,9999,9999,2554836044
6825,14,Improv_Melody,15,9999,9999,9999,2555335740
6825,14,Improv_Melody,16,9999,9999,9999,2555835464
6825,14,Improv_Melody,17,9999,9999,9999,2556335196
6825,14,Improv_Melody,18,9999,9999,9999,2556835892
6825,14,Improv_Melody,19,9999,9999,9999,2557335612
6825,14,Improv_Melody,20,9999,9999,9999,2557835336
6825,14,Improv_Melody,21,9999,9999,9999,2558336104
6825,14,Improv_Melody,22,9999,9999,9999,2558835824
6825,14,Improv_Melody,23,9999,9999,9999,2559335472
6825,14,Improv_Melody,24,9999,9999,9999,2559835192
6825,14,Improv_Melody,25,9999,9999,9999,2560335976
6825,14,Improv_Melody,26,9999,9999,9999,2560835696
6825,14,Improv_Melody,27,9999,9999,9999,2561335344
6825,14,Improv_Melody,28,9999,9999,9999,2561835068
6825,14,Improv_Melody,29,9999,9999,9999,2562335836
6825,14,Improv_Melody,30,9999,9999,9999,2562835560
6825,14,Improv_Melody,31,9999,9999,9999,2563335256
6825,14,Improv_Melody,32,9999,9999,9999,2563835952
6825,14,Improv_Melody,33,9999,9999,9999,2564335732
6825,14,Improv_Melody,34,9999,9999,9999,2564835436
6825,14,Improv_Melody,35,9999,9999,9999,2565335128
6825,14,Improv_Melody,36,9999,9999,9999,2565835884
6825,14,Improv_Melody,37,9999,9999,9999,2566335596
6825,14,Improv_Melody,38,9999,9999,9999,2566835296
6825,14,Improv_Melody,39,9999,9999,9999,2567336048
6825,14,Improv_Melody,40,9999,9999,9999,2567835700
6825,14,Improv_Melody,41,9999,9999,9999,2568335412
6825,14,Improv_Melody,42,9999,9999,9999,2568835136
6825,14,Improv_Melody,43,9999,9999,9999,2569335880
6825,14,Improv_Melody,44,9999,9999,9999,2569835584
6825,14,Improv_Melody,45,9999,9999,9999,2570335280
6825,14,Improv_Melody,46,9999,9999,9999,2570836044
6825,14,Improv_Melody,47,9999,9999,9999,2571335748
6825,14,Improv_Melody,48,9999,9999,9999,2571835464
6825,14,Improv_Melody,49,9999,9999,9999,2572335180
6825,14,Improv_Melody,50,9999,9999,9999,2572835924
6825,14,Improv_Melody,51,9999,9999,9999,2573335632
6825,14,Improv_Melody,52,9999,9999,9999,2573835320
6825,14,Improv_Melody,53,9999,9999,9999,2574336076
6825,14,Improv_Melody,54,9999,9999,9999,2574835788
6825,14,Improv_Melody,55,9999,9999,9999,2575335488
6825,14,Improv_Melody,56,9999,9999,9999,2575835188
6825,14,Improv_Melody,57,9999,9999,9999,2576335932
6825,14,Improv_Melody,58,9999,9999,9999,2576835652
6825,14,Improv_Melody,59,9999,9999,9999,2577335356
6825,14,Improv_Melody,60,9999,9999,9999,2577835128
6825,14,Improv_Melody,61,9999,9999,9999,2578335824
6825,14,Improv_Melody,62,9999,9999,9999,2578835536
6825,14,Improv_Melody,63,9999,9999,9999,2579335244
6825,14,Improv_Melody,64,9999,9999,9999,2579836012
6825,14,Improv_Melody,65,9999,9999,9999,2580335720
6825,14,Improv_Melody,66,9999,9999,9999,2580835424
6825,14,Improv_Melody,67,9999,9999,9999,2581335140
6825,14,Improv_Melody,68,9999,9999,9999,2581835872
6825,14,Improv_Melody,69,9999,9999,9999,2582335596
6825,14,Improv_Melody,70,9999,9999,9999,2582835312
6825,14,Improv_Melody,71,9999,9999,9999,2583335988
6825,14,Improv_Melody,72,9999,9999,9999,2583835712
6825,14,Improv_Melody,73,9999,9999,9999,2584335424
6825,14,Improv_Melody,74,9999,9999,9999,2584835124
6825,14,Improv_Melody,75,9999,9999,9999,2585335892
6825,14,Improv_Melody,76,9999,9999,9999,2585835612
6825,14,Improv_Melody,77,9999,9999,9999,2586335312
6825,14,Improv_Melody,78,9999,9999,9999,2586836056
6825,14,Improv_Melody,79,9999,9999,9999,2587335732
6825,14,Improv_Melody,80,9999,9999,9999,2587835504
6825,14,Improv_Melody,81,9999,9999,9999,2588335168
6825,14,Improv_Melody,82,9999,9999,9999,2588835928
6825,14,Improv_Melody,83,9999,9999,9999,2589335636
6825,14,Improv_Melody,84,9999,9999,9999,2589835352
6825,14,Improv_Melody,85,9999,9999,9999,2590336108
6825,14,Improv_Melody,86,9999,9999,9999,2590835828
6825,14,Improv_Melody,87,9999,9999,9999,2591335476
6825,14,Improv_Melody,88,9999,9999,9999,2591835196
6825,14,Improv_Melody,89,9999,9999,9999,2592335980
6825,14,Improv_Melody,90,9999,9999,9999,2592835680
6825,14,Improv_Melody,91,9999,9999,9999,2593335400
6825,14,Improv_Melody,92,9999,9999,9999,2593835100
6825,14,Improv_Melody,93,9999,9999,9999,2594335844
6825,14,Improv_Melody,94,9999,9999,9999,2594835544
6825,14,Improv_Melody,95,9999,9999,9999,2595335268
6825,14,Improv_Melody,96,9999,9999,9999,2595835956
6825,14,Improv_Melody,97,9999,9999,9999,2596335676
6825,14,Improv_Melody,98,9999,9999,9999,2596835388
6825,14,Improv_Melody,99,9999,9999,9999,2597335096
6825,14,Improv_Melody,100,9999,9999,9999,2597835840
6825,14,Improv_Melody,101,9999,9999,9999,2598335564
6825,14,Improv_Melody,102,9999,9999,9999,2598835284
6825,14,Improv_Melody,103,9999,9999,9999,2599336052
6825,14,Improv_Melody,104,9999,9999,9999,2599835700
6825,14,Improv_Melody,105,9999,9999,9999,2600335412
6825,14,Improv_Melody,106,9999,9999,9999,2600835188
6825,14,Improv_Melody,107,9999,9999,9999,2601335876
6825,14,Improv_Melody,108,9999,9999,9999,2601835584
6825,14,Improv_Melody,109,9999,9999,9999,2602335304
6825,14,Improv_Melody,110,9999,9999,9999,2602836072
6825,14,Improv_Melody,111,9999,9999,9999,2603335796
6825,14,Improv_Melody,112,9999,9999,9999,2603835444
6825,14,Improv_Melody,113,9999,9999,9999,2604335156
6825,14,Improv_Melody,114,9999,9999,9999,2604835904
6825,14,Improv_Melody,115,9999,9999,9999,2605335624
6825,14,Improv_Melody,116,9999,9999,9999,2605835324
6825,14,Improv_Melody,117,9999,9999,9999,2606336092
6825,14,Improv_Melody,118,9999,9999,9999,2606835812
6825,14,Improv_Melody,119,9999,9999,9999,2607335536
6825,14,Improv_Melody,120,9999,9999,9999,2607835256
6825,14,Improv_Melody,121,9999,9999,9999,2608335992
6825,14,Improv_Melody,122,9999,9999,9999,2608835688
6825,14,Improv_Melody,123,9999,9999,9999,2609335412
6825,14,Improv_Melody,124,9999,9999,9999,2609835112
6825,14,Improv_Melody,125,9999,9999,9999,2610335808
6825,14,Improv_Melody,126,9999,9999,9999,2610835528
6825,14,Improv_Melody,127,9999,9999,9999,2611335248
6825,14,Improv_Melody,128,9999,9999,9999,2611836020
6825,14,Improv_Melody,129,9999,9999,9999,2612335676
6825,14,Improv_Melody,130,9999,9999,9999,2612835432
6825,14,Improv_Melody,131,9999,9999,9999,2613335156
6825,14,Improv_Melody,132,9999,9999,9999,2613835828
6825,14,Improv_Melody,133,9999,9999,9999,2614335548
6825,14,Improv_Melody,134,9999,9999,9999,2614835268
6825,14,Improv_Melody,135,9999,9999,9999,2615336036
6825,14,Improv_Melody,136,9999,9999,9999,2615835760
6825,14,Improv_Melody,137,9999,9999,9999,2616335472
6825,14,Improv_Melody,138,9999,9999,9999,2616835172
6825,14,Improv_Melody,139,9999,9999,9999,2617335860
6825,14,Improv_Melody,140,9999,9999,9999,2617835640
6825,14,Improv_Melody,141,9999,9999,9999,2618335288
6825,14,Improv_Melody,142,9999,9999,9999,2618836032
6825,14,Improv_Melody,143,9999,9999,9999,2619335752
6825,14,Improv_Melody,144,9999,9999,9999,2619835452
6825,14,Improv_Melody,145,9999,9999,9999,2620335168
6825,14,Improv_Melody,146,9999,9999,9999,2620835936
6825,14,Improv_Melody,147,9999,9999,9999,2621335660
6825,14,Improv_Melody,148,9999,9999,9999,2621835360
6825,14,Improv_Melody,149,9999,9999,9999,2622336056
6825,14,Improv_Melody,150,9999,9999,9999,2622835776
6825,14,Improv_Melody,151,9999,9999,9999,2623335496
6825,14,Improv_Melody,152,9999,9999,9999,2623835196
6825,14,Improv_Melody,153,9999,9999,9999,2624335956
6825,14,Improv_Melody,154,9999,9999,9999,2624835676
6825,14,Improv_Melody,155,9999,9999,9999,2625335376
6825,14,Improv_Melody,156,9999,9999,9999,2625835100
6825,14,Improv_Melody,157,9999,9999,9999,2626335792
6825,14,Improv_Melody,158,9999,9999,9999,2626835516
6825,14,Improv_Melody,159,9999,9999,9999,2627335236
6825,14,Improv_Melody,160,9999,9999,9999,2627836004
6825,14,Improv_Melody,161,9999,9999,9999,2628335668
68