pid,taskRunCount,taskID,taskName,i,channel,pitch,velocity,microseconds
65,1,0,Ticks_Pract_8,0,5,42,127,62255500
65,1,0,Ticks_Pract_8,1,5,42,127,63056300
65,1,0,Ticks_Pract_8,2,1,38,40,63602056
65,1,0,Ticks_Pract_8,3,5,42,127,63856108
65,1,0,Ticks_Pract_8,4,1,38,41,64207588
65,1,0,Ticks_Pract_8,5,5,42,127,64655692
65,1,0,Ticks_Pract_8,6,1,38,33,65026324
65,1,0,Ticks_Pract_8,7,5,42,127,65455576
65,1,0,Ticks_Pract_8,8,1,38,29,65805408
65,1,0,Ticks_Pract_8,9,5,42,127,66256204
65,1,0,Ticks_Pract_8,10,5,42,127,67055960
65,1,0,Ticks_Pract_8,11,5,42,127,67855940
65,1,0,Ticks_Pract_8,12,1,38,25,68472108
65,1,0,Ticks_Pract_8,13,5,42,127,68655476
65,1,0,Ticks_Pract_8,14,1,38,31,69339308
65,1,0,Ticks_Pract_8,15,5,42,127,69456184
65,1,0,Ticks_Pract_8,16,1,38,31,70193816
65,1,0,Ticks_Pract_8,17,5,42,127,70256004
65,1,0,Ticks_Pract_8,18,1,38,34,70981808
65,1,0,Ticks_Pract_8,19,5,42,127,71055812
65,1,0,Ticks_Pract_8,20,1,38,33,71836212
65,1,0,Ticks_Pract_8,21,5,42,127,71855472
65,1,0,Ticks_Pract_8,22,1,38,39,72632584
65,1,0,Ticks_Pract_8,23,5,42,127,72656176
65,1,0,Ticks_Pract_8,24,1,38,39,73419748
65,1,0,Ticks_Pract_8,25,5,42,127,73455912
65,1,0,Ticks_Pract_8,26,1,38,37,74194576
65,1,0,Ticks_Pract_8,27,5,42,127,74255644
65,1,0,Ticks_Pract_8,28,1,38,32,74955712
65,1,0,Ticks_Pract_8,29,5,42,127,75055464
65,1,0,Ticks_Pract_8,30,1,38,32,75836932
65,1,0,Ticks_Pract_8,31,5,42,127,75856260
65,1,0,Ticks_Pract_8,32,5,42,127,76656072
65,1,0,Ticks_Pract_8,33,1,38,27,76692028
65,1,0,Ticks_Pract_8,34,5,42,127,77455732
65,1,0,Ticks_Pract_8,35,1,38,34,77510088
65,1,0,Ticks_Pract_8,36,5,42,127,78255388
65,1,0,Ticks_Pract_8,37,1,38,39,78362952
65,1,0,Ticks_Pract_8,38,5,42,127,79056172
65,1,0,Ticks_Pract_8,39,1,38,30,79092724
65,1,0,Ticks_Pract_8,40,1,38,43,79826616
65,1,0,Ticks_Pract_8,41,5,42,127,79856120
65,1,0,Ticks_Pract_8,42,5,42,127,80655640
65,1,0,Ticks_Pract_8,43,1,38,42,80674564
65,1,0,Ticks_Pract_8,44,1,38,46,81427512
65,1,0,Ticks_Pract_8,45,5,42,127,81455316
65,1,0,Ticks_Pract_8,46,1,38,38,82156404
65,1,0,Ticks_Pract_8,47,5,42,127,82256228
65,1,0,Ticks_Pract_8,48,5,42,127,83055984
65,1,0,Ticks_Pract_8,49,5,42,127,83855664
65,1,0,Ticks_Pract_8,50,5,42,127,84655492
65,1,0,Ticks_Pract_8,51,5,42,127,85456148
65,1,0,Ticks_Pract_8,0,9999,9999,9999,62253136
65,1,0,Ticks_Pract_8,1,9999,9999,9999,63053940
65,1,0,Ticks_Pract_8,2,9999,9999,9999,63853672
65,1,0,Ticks_Pract_8,3,9999,9999,9999,64653404
65,1,0,Ticks_Pract_8,4,9999,9999,9999,65453140
65,1,0,Ticks_Pract_8,5,9999,9999,9999,66253916
65,1,0,Ticks_Pract_8,6,9999,9999,9999,67053672
65,1,0,Ticks_Pract_8,7,9999,9999,9999,67853428
65,1,0,Ticks_Pract_8,8,9999,9999,9999,68653112
65,1,0,Ticks_Pract_8,9,9999,9999,9999,69453892
65,1,0,Ticks_Pract_8,10,9999,9999,9999,70253644
65,1,0,Ticks_Pract_8,11,9999,9999,9999,71053376
65,1,0,Ticks_Pract_8,12,9999,9999,9999,71853108
65,1,0,Ticks_Pract_8,13,9999,9999,9999,72653892
65,1,0,Ticks_Pract_8,14,9999,9999,9999,73453624
65,1,0,Ticks_Pract_8,15,9999,9999,9999,74253356
65,1,0,Ticks_Pract_8,16,9999,9999,9999,75053176
65,1,0,Ticks_Pract_8,17,9999,9999,9999,75853896
65,1,0,Ticks_Pract_8,18,9999,9999,9999,76653636
65,1,0,Ticks_Pract_8,19,9999,9999,9999,77453368
65,1,0,Ticks_Pract_8,20,9999,9999,9999,78253100
65,1,0,Ticks_Pract_8,21,9999,9999,9999,79053884
65,1,0,Ticks_Pract_8,22,9999,9999,9999,79853684
65,1,0,Ticks_Pract_8,23,9999,9999,9999,80653424
65,1,0,Ticks_Pract_8,24,9999,9999,9999,81453104
65,1,0,Ticks_Pract_8,25,9999,9999,9999,82253940
65,1,0,Ticks_Pract_8,26,9999,9999,9999,83053620
65,1,0,Ticks_Pract_8,27,9999,9999,9999,83853376
65,1,0,Ticks_Pract_8,28,9999,9999,9999,84653132
65,1,0,Ticks_Pract_8,29,9999,9999,9999,85453932
65,2,0,Ticks_Pract_8,0,5,42,127,105267652
65,2,0,Ticks_Pract_8,1,5,42,127,106068228
65,2,0,Ticks_Pract_8,2,1,48,43,106090796
65,2,0,Ticks_Pract_8,3,1,48,36,106828352
65,2,0,Ticks_Pract_8,4,5,42,127,106868252
65,2,0,Ticks_Pract_8,5,1,48,44,107613204
65,2,0,Ticks_Pract_8,6,5,42,127,107667764
65,2,0,Ticks_Pract_8,7,1,48,39,108398276
65,2,0,Ticks_Pract_8,8,5,42,127,108467424
65,2,0,Ticks_Pract_8,9,1,48,41,109212444
65,2,0,Ticks_Pract_8,10,5,42,127,109268280
65,2,0,Ticks_Pract_8,11,1,48,41,110020036
65,2,0,Ticks_Pract_8,12,5,42,127,110068164
65,2,0,Ticks_Pract_8,13,1,48,45,110803984
65,2,0,Ticks_Pract_8,14,5,42,127,110867672
65,2,0,Ticks_Pract_8,15,1,48,28,111653604
65,2,0,Ticks_Pract_8,16,5,42,127,111667556
65,2,0,Ticks_Pract_8,17,5,42,127,112468268
65,2,0,Ticks_Pract_8,18,1,48,42,112501748
65,2,0,Ticks_Pract_8,19,5,42,127,113268072
65,2,0,Ticks_Pract_8,20,1,48,33,113319584
65,2,0,Ticks_Pract_8,21,5,42,127,114067808
65,2,0,Ticks_Pract_8,22,1,48,27,114086336
65,2,0,Ticks_Pract_8,23,5,42,127,114867544
65,2,0,Ticks_Pract_8,24,1,48,32,114927960
65,2,0,Ticks_Pract_8,25,1,48,32,115653396
65,2,0,Ticks_Pract_8,26,5,42,127,115668316
65,2,0,Ticks_Pract_8,27,1,48,47,116433384
65,2,0,Ticks_Pract_8,28,5,42,127,116468200
65,2,0,Ticks_Pract_8,29,1,48,25,116493368
65,2,0,Ticks_Pract_8,30,5,42,127,117268240
65,2,0,Ticks_Pract_8,31,1,48,42,117284976
65,2,0,Ticks_Pract_8,32,5,42,127,118067604
65,2,0,Ticks_Pract_8,33,1,48,33,118075584
65,2,0,Ticks_Pract_8,34,5,42,127,118868308
65,2,0,Ticks_Pract_8,35,1,48,42,118872104
65,2,0,Ticks_Pract_8,36,1,48,47,119644516
65,2,0,Ticks_Pract_8,37,5,42,127,119668184
65,2,0,Ticks_Pract_8,38,1,48,47,120459732
65,2,0,Ticks_Pract_8,39,5,42,127,120467772
65,2,0,Ticks_Pract_8,40,1,48,50,121247496
65,2,0,Ticks_Pract_8,41,5,42,127,121267428
65,2,0,Ticks_Pract_8,42,5,42,127,122068292
65,2,0,Ticks_Pract_8,43,1,48,52,122075072
65,2,0,Ticks_Pract_8,44,5,42,127,122867952
65,2,0,Ticks_Pract_8,45,1,48,48,122876748
65,2,0,Ticks_Pract_8,46,1,48,46,123598008
65,2,0,Ticks_Pract_8,47,5,42,127,123667924
65,2,0,Ticks_Pract_8,48,1,48,44,124378064
65,2,0,Ticks_Pract_8,49,5,42,127,124467436
65,2,0,Ticks_Pract_8,50,1,48,45,125218216
65,2,0,Ticks_Pract_8,51,5,42,127,125268288
65,2,0,Ticks_Pract_8,52,5,42,127,126068104
65,2,0,Ticks_Pract_8,53,1,48,48,126092540
65,2,0,Ticks_Pract_8,54,5,42,127,126867912
65,2,0,Ticks_Pract_8,55,1,48,40,126931912
65,2,0,Ticks_Pract_8,56,5,42,127,127667572
65,2,0,Ticks_Pract_8,57,1,48,44,127715864
65,2,0,Ticks_Pract_8,58,1,48,43,128433824
65,2,0,Ticks_Pract_8,59,5,42,127,128468196
65,2,0,Ticks_Pract_8,60,1,48,46,129157116
65,2,0,Ticks_Pract_8,0,9999,9999,9999,105265212
65,2,0,Ticks_Pract_8,1,9999,9999,9999,106066012
65,2,0,Ticks_Pract_8,2,9999,9999,9999,106865740
65,2,0,Ticks_Pract_8,3,9999,9999,9999,107665472
65,2,0,Ticks_Pract_8,4,9999,9999,9999,108465208
65,2,0,Ticks_Pract_8,5,9999,9999,9999,109265988
65,2,0,Ticks_Pract_8,6,9999,9999,9999,110065724
65,2,0,Ticks_Pract_8,7,9999,9999,9999,110865456
65,2,0,Ticks_Pract_8,8,9999,9999,9999,111665264
65,2,0,Ticks_Pract_8,9,9999,9999,9999,112465976
65,2,0,Ticks_Pract_8,10,9999,9999,9999,113265780
65,2,0,Ticks_Pract_8,11,9999,9999,9999,114065516
65,2,0,Ticks_Pract_8,12,9999,9999,9999,114865252
65,2,0,Ticks_Pract_8,13,9999,9999,9999,115666024
65,2,0,Ticks_Pract_8,14,9999,9999,9999,116465760
65,2,0,Ticks_Pract_8,15,9999,9999,9999,117265476
65,2,0,Ticks_Pract_8,16,9999,9999,9999,118065236
65,2,0,Ticks_Pract_8,17,9999,9999,9999,118866016
65,2,0,Ticks_Pract_8,18,9999,9999,9999,119665744
65,2,0,Ticks_Pract_8,19,9999,9999,9999,120465480
65,2,0,Ticks_Pract_8,20,9999,9999,9999,121265212
65,2,0,Ticks_Pract_8,21,9999,9999,9999,122066000
65,2,0,Ticks_Pract_8,22,9999,9999,9999,122865732
65,2,0,Ticks_Pract_8,23,9999,9999,9999,123665460
65,2,0,Ticks_Pract_8,24,9999,9999,9999,124465216
65,2,0,Ticks_Pract_8,25,9999,9999,9999,125265996
65,2,0,Ticks_Pract_8,26,9999,9999,9999,126065736
65,2,0,Ticks_Pract_8,27,9999,9999,9999,126865472
65,2,0,Ticks_Pract_8,28,9999,9999,9999,127665204
65,2,0,Ticks_Pract_8,29,9999,9999,9999,128465976
65,3,1,Ticks_Pract_5,0,5,42,127,155232584
65,3,1,Ticks_Pract_5,1,5,42,127,155733348
65,3,1,Ticks_Pract_5,2,5,42,127,156232988
65,3,1,Ticks_Pract_5,3,5,42,127,156732780
65,3,1,Ticks_Pract_5,4,1,48,53,156748536
65,3,1,Ticks_Pract_5,5,1,48,48,157228768
65,3,1,Ticks_Pract_5,6,5,42,127,157232464
65,3,1,Ticks_Pract_5,7,1,48,48,157711904
65,3,1,Ticks_Pract_5,8,5,42,127,157733428
65,3,1,Ticks_Pract_5,9,1,48,46,158219080
65,3,1,Ticks_Pract_5,10,5,42,127,158233124
65,3,1,Ticks_Pract_5,11,1,48,44,158700224
65,3,1,Ticks_Pract_5,12,5,42,127,158732572
65,3,1,Ticks_Pract_5,13,5,42,127,159233468
65,3,1,Ticks_Pract_5,14,1,48,49,159244592
65,3,1,Ticks_Pract_5,15,5,42,127,159733240
65,3,1,Ticks_Pract_5,16,1,48,51,159748480
65,3,1,Ticks_Pract_5,17,1,48,49,160227736
65,3,1,Ticks_Pract_5,18,5,42,127,160232928
65,3,1,Ticks_Pract_5,19,5,42,127,160732556
65,3,1,Ticks_Pract_5,20,1,48,48,160743680
65,3,1,Ticks_Pract_5,21,5,42,127,161233220
65,3,1,Ticks_Pract_5,22,1,48,42,161242400
65,3,1,Ticks_Pract_5,23,1,48,37,161716348
65,3,1,Ticks_Pract_5,24,5,42,127,161733132
65,3,1,Ticks_Pract_5,25,1,48,45,162232836
65,3,1,Ticks_Pract_5,26,5,42,127,162234248
65,3,1,Ticks_Pract_5,27,5,42,127,162733352
65,3,1,Ticks_Pract_5,28,1,48,51,162736176
65,3,1,Ticks_Pract_5,29,5,42,127,163233124
65,3,1,Ticks_Pract_5,30,1,48,49,163268780
65,3,1,Ticks_Pract_5,31,5,42,127,163733040
65,3,1,Ticks_Pract_5,32,1,48,48,163764132
65,3,1,Ticks_Pract_5,33,5,42,127,164232436
65,3,1,Ticks_Pract_5,34,1,48,49,164248496
65,3,1,Ticks_Pract_5,35,5,42,127,164733252
65,3,1,Ticks_Pract_5,36,1,48,48,164770856
65,3,1,Ticks_Pract_5,37,5,42,127,165233168
65,3,1,Ticks_Pract_5,38,1,48,45,165250576
65,3,1,Ticks_Pract_5,39,5,42,127,165732644
65,3,1,Ticks_Pract_5,40,1,48,52,165751024
65,3,1,Ticks_Pract_5,41,1,48,47,166218984
65,3,1,Ticks_Pract_5,42,5,42,127,166232404
65,3,1,Ticks_Pract_5,43,5,42,127,166733376
65,3,1,Ticks_Pract_5,44,1,48,54,166756240
65,3,1,Ticks_Pract_5,45,5,42,127,167232996
65,3,1,Ticks_Pract_5,46,1,48,49,167251820
65,3,1,Ticks_Pract_5,47,5,42,127,167732692
65,3,1,Ticks_Pract_5,48,1,48,44,167743360
65,3,1,Ticks_Pract_5,49,5,42,127,168233280
65,3,1,Ticks_Pract_5,50,1,48,48,168238044
65,3,1,Ticks_Pract_5,51,5,42,127,168733276
65,3,1,Ticks_Pract_5,52,1,48,44,168735800
65,3,1,Ticks_Pract_5,53,5,42,127,169232796
65,3,1,Ticks_Pract_5,54,1,48,51,169247284
65,3,1,Ticks_Pract_5,55,1,48,41,169721580
65,3,1,Ticks_Pract_5,56,5,42,127,169732384
65,3,1,Ticks_Pract_5,57,5,42,127,170233356
65,3,1,Ticks_Pract_5,58,1,48,49,170262832
65,3,1,Ticks_Pract_5,59,1,48,45,170727252
65,3,1,Ticks_Pract_5,60,5,42,127,170733192
65,3,1,Ticks_Pract_5,61,1,48,48,171230852
65,3,1,Ticks_Pract_5,62,5,42,127,171232516
65,3,1,Ticks_Pract_5,63,5,42,127,171733340
65,3,1,Ticks_Pract_5,64,1,48,47,171746560
65,3,1,Ticks_Pract_5,65,1,48,45,172232204
65,3,1,Ticks_Pract_5,66,5,42,127,172233692
65,3,1,Ticks_Pract_5,67,5,42,127,172732652
65,3,1,Ticks_Pract_5,68,1,48,44,172762400
65,3,1,Ticks_Pract_5,69,5,42,127,173232420
65,3,1,Ticks_Pract_5,70,1,48,41,173244064
65,3,1,Ticks_Pract_5,71,5,42,127,173733236
65,3,1,Ticks_Pract_5,72,1,48,46,173746828
65,3,1,Ticks_Pract_5,73,5,42,127,174233228
65,3,1,Ticks_Pract_5,74,1,48,42,174244056
65,3,1,Ticks_Pract_5,75,1,48,39,174666240
65,3,1,Ticks_Pract_5,76,5,42,127,174732692
65,3,1,Ticks_Pract_5,77,1,48,43,175222480
65,3,1,Ticks_Pract_5,0,9999,9999,9999,155230296
65,3,1,Ticks_Pract_5,1,9999,9999,9999,155731060
65,3,1,Ticks_Pract_5,2,9999,9999,9999,156230776
65,3,1,Ticks_Pract_5,3,9999,9999,9999,156730420
65,3,1,Ticks_Pract_5,4,9999,9999,9999,157230180
65,3,1,Ticks_Pract_5,5,9999,9999,9999,157730920
65,3,1,Ticks_Pract_5,6,9999,9999,9999,158230616
65,3,1,Ticks_Pract_5,7,9999,9999,9999,158730360
65,3,1,Ticks_Pract_5,8,9999,9999,9999,159231032
65,3,1,Ticks_Pract_5,9,9999,9999,9999,159730804
65,3,1,Ticks_Pract_5,10,9999,9999,9999,160230492
65,3,1,Ticks_Pract_5,11,9999,9999,9999,160730196
65,3,1,Ticks_Pract_5,12,9999,9999,9999,161230936
65,3,1,Ticks_Pract_5,13,9999,9999,9999,161730624
65,3,1,Ticks_Pract_5,14,9999,9999,9999,162230324
65,3,1,Ticks_Pract_5,15,9999,9999,9999,162731068
65,3,1,Ticks_Pract_5,16,9999,9999,9999,163230836
65,3,1,Ticks_Pract_5,17,9999,9999,9999,163730532
65,3,1,Ticks_Pract_5,18,9999,9999,9999,164230224
65,3,1,Ticks_Pract_5,19,9999,9999,9999,164730968
65,3,1,Ticks_Pract_5,20,9999,9999,9999,165230660
65,3,1,Ticks_Pract_5,21,9999,9999,9999,165730356
65,3,1,Ticks_Pract_5,22,9999,9999,9999,166230120
65,3,1,Ticks_Pract_5,23,9999,9999,9999,166730864
65,3,1,Ticks_Pract_5,24,9999,9999,9999,167230560
65,3,1,Ticks_Pract_5,25,9999,9999,9999,167730256
65,3,1,Ticks_Pract_5,26,9999,9999,9999,168230996
65,3,1,Ticks_Pract_5,27,9999,9999,9999,168730692
65,3,1,Ticks_Pract_5,28,9999,9999,9999,169230436
65,3,1,Ticks_Pract_5,29,9999,9999,9999,169730100
65,3,1,Ticks_Pract_5,30,9999,9999,9999,170230848
65,3,1,Ticks_Pract_5,31,9999,9999,9999,170730608
65,3,1,Ticks_Pract_5,32,9999,9999,9999,171230328
65,3,1,Ticks_Pract_5,33,9999,9999,9999,171731052
65,3,1,Ticks_Pract_5,34,9999,9999,9999,172230744
65,3,1,Ticks_Pract_5,35,9999,9999,9999,172730440
65,3,1,Ticks_Pract_5,36,9999,9999,9999,173230136
65,3,1,Ticks_Pract_5,37,9999,9999,9999,173730876
65,3,1,Ticks_Pract_5,38,9999,9999,9999,174230644
65,3,1,Ticks_Pract_5,39,9999,9999,9999,174730332
65,4,2,T1_SMS_8,0,5,42,127,268008796
65,4,2,T1_SMS_8,1,1,48,26,268684572
65,4,2,T1_SMS_8,2,5,42,127,268808532
65,4,2,T1_SMS_8,3,1,48,34,269478396
65,4,2,T1_SMS_8,4,5,42,127,269609408
65,4,2,T1_SMS_8,5,5,42,127,270409240
65,4,2,T1_SMS_8,6,1,48,24,270433900
65,4,2,T1_SMS_8,7,5,42,127,271208900
65,4,2,T1_SMS_8,8,1,48,42,271223608
65,4,2,T1_SMS_8,9,1,48,35,271961396
65,4,2,T1_SMS_8,10,5,42,127,272008552
65,4,2,T1_SMS_8,11,1,48,41,272738164
65,4,2,T1_SMS_8,12,5,42,127,272809332
65,4,2,T1_SMS_8,13,1,48,40,273518604
65,4,2,T1_SMS_8,14,5,42,127,273609216
65,4,2,T1_SMS_8,15,1,48,44,274312876
65,4,2,T1_SMS_8,16,5,42,127,274408860
65,4,2,T1_SMS_8,17,1,48,40,275120612
65,4,2,T1_SMS_8,18,5,42,127,275208684
65,4,2,T1_SMS_8,19,1,48,38,275982000
65,4,2,T1_SMS_8,20,5,42,127,276009264
65,4,2,T1_SMS_8,21,1,48,37,276792880
65,4,2,T1_SMS_8,22,5,42,127,276809148
65,4,2,T1_SMS_8,23,5,42,127,277608664
65,4,2,T1_SMS_8,24,1,48,43,277613728
65,4,2,T1_SMS_8,25,1,48,38,278386816
65,4,2,T1_SMS_8,26,5,42,127,278408540
65,4,2,T1_SMS_8,27,1,48,40,279169344
65,4,2,T1_SMS_8,28,5,42,127,279209320
65,4,2,T1_SMS_8,29,1,48,38,279960924
65,4,2,T1_SMS_8,30,5,42,127,280009276
65,4,2,T1_SMS_8,31,1,48,36,280781152
65,4,2,T1_SMS_8,32,5,42,127,280808860
65,4,2,T1_SMS_8,33,1,48,40,281576624
65,4,2,T1_SMS_8,34,5,42,127,281608592
65,4,2,T1_SMS_8,35,1,48,37,282402260
65,4,2,T1_SMS_8,36,5,42,127,282409248
65,4,2,T1_SMS_8,37,5,42,127,283209212
65,4,2,T1_SMS_8,38,1,48,39,283226172
65,4,2,T1_SMS_8,39,5,42,127,284008724
65,4,2,T1_SMS_8,40,1,48,40,284081700
65,4,2,T1_SMS_8,41,5,42,127,284808604
65,4,2,T1_SMS_8,42,1,48,35,284862664
65,4,2,T1_SMS_8,43,1,48,35,285609612
65,4,2,T1_SMS_8,44,5,42,127,285610800
65,4,2,T1_SMS_8,45,1,48,40,286385520
65,4,2,T1_SMS_8,46,5,42,127,286409264
65,4,2,T1_SMS_8,47,1,48,37,287198492
65,4,2,T1_SMS_8,48,5,42,127,287208920
65,4,2,T1_SMS_8,49,1,48,35,287989176
65,4,2,T1_SMS_8,50,5,42,127,288008580
65,4,2,T1_SMS_8,51,5,42,127,288809444
65,4,2,T1_SMS_8,52,1,48,41,288810408
65,4,2,T1_SMS_8,53,1,48,42,289602548
65,4,2,T1_SMS_8,54,5,42,127,289609316
65,4,2,T1_SMS_8,55,5,42,127,290408908
65,4,2,T1_SMS_8,56,1,48,34,290437536
65,4,2,T1_SMS_8,57,5,42,127,291208492
65,4,2,T1_SMS_8,58,1,48,41,291252148
65,4,2,T1_SMS_8,59,5,42,127,292009200
65,4,2,T1_SMS_8,60,1,48,35,292049120
65,4,2,T1_SMS_8,61,5,42,127,292809304
65,4,2,T1_SMS_8,62,1,48,38,292826264
65,4,2,T1_SMS_8,63,5,42,127,293608964
65,4,2,T1_SMS_8,64,1,48,35,293626664
65,4,2,T1_SMS_8,65,5,42,127,294408624
65,4,2,T1_SMS_8,66,1,48,37,294464320
65,4,2,T1_SMS_8,67,5,42,127,295209180
65,4,2,T1_SMS_8,68,1,48,36,295259348
65,4,2,T1_SMS_8,69,5,42,127,296009064
65,4,2,T1_SMS_8,70,1,48,39,296058704
65,4,2,T1_SMS_8,71,5,42,127,296809020
65,4,2,T1_SMS_8,72,1,48,36,296884692
65,4,2,T1_SMS_8,73,5,42,127,297608528
65,4,2,T1_SMS_8,74,1,48,38,297627504
65,4,2,T1_SMS_8,75,1,48,36,298390192
65,4,2,T1_SMS_8,76,5,42,127,298409300
65,4,2,T1_SMS_8,77,1,48,43,299207912
65,4,2,T1_SMS_8,78,5,42,127,299209332
65,4,2,T1_SMS_8,79,5,42,127,300009072
65,4,2,T1_SMS_8,80,1,48,34,300029620
65,4,2,T1_SMS_8,81,5,42,127,300808436
65,4,2,T1_SMS_8,82,1,48,45,300908668
65,4,2,T1_SMS_8,83,5,42,127,301609388
65,4,2,T1_SMS_8,84,1,48,29,301739736
65,4,2,T1_SMS_8,85,5,42,127,302409120
65,4,2,T1_SMS_8,86,1,48,18,302477688
65,4,2,T1_SMS_8,87,5,42,127,303208852
65,4,2,T1_SMS_8,88,1,48,29,303264932
65,4,2,T1_SMS_8,89,5,42,127,304008736
65,4,2,T1_SMS_8,90,1,48,39,304081048
65,4,2,T1_SMS_8,91,1,48,40,304796012
65,4,2,T1_SMS_8,92,5,42,127,304809288
65,4,2,T1_SMS_8,93,1,48,39,305541148
65,4,2,T1_SMS_8,94,5,42,127,305608948
65,4,2,T1_SMS_8,95,1,48,38,306380296
65,4,2,T1_SMS_8,96,5,42,127,306408756
65,4,2,T1_SMS_8,97,5,42,127,307208496
65,4,2,T1_SMS_8,98,1,48,39,307213056
65,4,2,T1_SMS_8,99,1,48,46,307946400
65,4,2,T1_SMS_8,100,5,42,127,308009296
65,4,2,T1_SMS_8,101,1,48,43,308724972
65,4,2,T1_SMS_8,102,5,42,127,308809028
65,4,2,T1_SMS_8,103,1,48,32,309578888
65,4,2,T1_SMS_8,104,5,42,127,309608760
65,4,2,T1_SMS_8,105,1,48,36,310370164
65,4,2,T1_SMS_8,106,5,42,127,310408644
65,4,2,T1_SMS_8,107,5,42,127,311209280
65,4,2,T1_SMS_8,108,1,48,43,311325664
65,4,2,T1_SMS_8,109,5,42,127,312009016
65,4,2,T1_SMS_8,110,1,48,27,312075060
65,4,2,T1_SMS_8,111,5,42,127,312808824
65,4,2,T1_SMS_8,112,1,48,33,312821516
65,4,2,T1_SMS_8,113,5,42,127,313608632
65,4,2,T1_SMS_8,114,1,48,39,313610216
65,4,2,T1_SMS_8,115,1,48,38,314376388
65,4,2,T1_SMS_8,116,5,42,127,314409428
65,4,2,T1_SMS_8,117,1,48,34,315180780
65,4,2,T1_SMS_8,118,5,42,127,315209088
65,4,2,T1_SMS_8,119,1,48,29,315994128
65,4,2,T1_SMS_8,120,5,42,127,316008820
65,4,2,T1_SMS_8,121,1,48,35,316807660
65,4,2,T1_SMS_8,122,5,42,127,316809228
65,4,2,T1_SMS_8,123,1,48,32,317587308
65,4,2,T1_SMS_8,124,5,42,127,317609336
65,4,2,T1_SMS_8,125,1,48,28,318356604
65,4,2,T1_SMS_8,126,5,42,127,318408920
65,4,2,T1_SMS_8,127,1,48,29,319126944
65,4,2,T1_SMS_8,128,5,42,127,319208804
65,4,2,T1_SMS_8,129,5,42,127,320008544
65,4,2,T1_SMS_8,130,1,48,25,320018572
65,4,2,T1_SMS_8,131,1,48,36,320807156
65,4,2,T1_SMS_8,132,5,42,127,320809640
65,4,2,T1_SMS_8,133,5,42,127,321609008
65,4,2,T1_SMS_8,134,1,48,43,321622372
65,4,2,T1_SMS_8,135,1,48,46,322402864
65,4,2,T1_SMS_8,136,5,42,127,322408812
65,4,2,T1_SMS_8,137,1,48,42,323161608
65,4,2,T1_SMS_8,138,5,42,127,323208616
65,4,2,T1_SMS_8,139,1,48,34,323941748
65,4,2,T1_SMS_8,140,5,42,127,324009620
65,4,2,T1_SMS_8,141,1,48,39,324773192
65,4,2,T1_SMS_8,142,5,42,127,324809056
65,4,2,T1_SMS_8,143,5,42,127,325608796
65,4,2,T1_SMS_8,144,1,48,46,325610732
65,4,2,T1_SMS_8,145,1,48,36,326390164
65,4,2,T1_SMS_8,146,5,42,127,326408524
65,4,2,T1_SMS_8,147,1,48,34,327168924
65,4,2,T1_SMS_8,148,5,42,127,327209448
65,4,2,T1_SMS_8,149,1,48,36,327940388
65,4,2,T1_SMS_8,150,5,42,127,328009036
65,4,2,T1_SMS_8,151,1,48,39,328775596
65,4,2,T1_SMS_8,152,5,42,127,328808768
65,4,2,T1_SMS_8,153,1,48,43,329556776
65,4,2,T1_SMS_8,154,5,42,127,329608576
65,4,2,T1_SMS_8,155,1,48,32,330345144
65,4,2,T1_SMS_8,156,5,42,127,330409432
65,4,2,T1_SMS_8,157,1,48,38,331149216
65,4,2,T1_SMS_8,158,5,42,127,331209092
65,4,2,T1_SMS_8,159,1,48,41,331942296
65,4,2,T1_SMS_8,160,5,42,127,332008828
65,4,2,T1_SMS_8,161,1,48,38,332711288
65,4,2,T1_SMS_8,162,5,42,127,332808868
65,4,2,T1_SMS_8,163,1,48,35,333555976
65,4,2,T1_SMS_8,164,5,42,127,333609440
65,4,2,T1_SMS_8,165,1,48,31,334329828
65,4,2,T1_SMS_8,166,5,42,127,334408952
65,4,2,T1_SMS_8,167,1,48,35,335136172
65,4,2,T1_SMS_8,168,5,42,127,335208760
65,4,2,T1_SMS_8,169,1,48,39,336000456
65,4,2,T1_SMS_8,170,5,42,127,336008496
65,4,2,T1_SMS_8,171,5,42,127,336809284
65,4,2,T1_SMS_8,172,1,48,34,336826308
65,4,2,T1_SMS_8,173,5,42,127,337609016
65,4,2,T1_SMS_8,174,1,48,34,337609908
65,4,2,T1_SMS_8,175,1,48,34,338400104
65,4,2,T1_SMS_8,176,5,42,127,338408668
65,4,2,T1_SMS_8,177,1,48,35,339197668
65,4,2,T1_SMS_8,178,5,42,127,339208648
65,4,2,T1_SMS_8,179,1,48,37,340000124
65,4,2,T1_SMS_8,180,5,42,127,340009208
65,4,2,T1_SMS_8,181,1,48,27,340765372
65,4,2,T1_SMS_8,182,5,42,127,340809168
65,4,2,T1_SMS_8,183,5,42,127,341608684
65,4,2,T1_SMS_8,184,1,48,34,341634012
65,4,2,T1_SMS_8,185,5,42,127,342408564
65,4,2,T1_SMS_8,186,1,48,26,342432928
65,4,2,T1_SMS_8,187,5,42,127,343209344
65,4,2,T1_SMS_8,188,1,48,29,343238268
65,4,2,T1_SMS_8,189,5,42,127,344009152
65,4,2,T1_SMS_8,190,1,48,30,344045552
65,4,2,T1_SMS_8,191,1,48,38,344802340
65,4,2,T1_SMS_8,192,5,42,127,344808804
65,4,2,T1_SMS_8,193,1,48,35,345566164
65,4,2,T1_SMS_8,194,5,42,127,345608488
65,4,2,T1_SMS_8,195,1,48,38,346355728
65,4,2,T1_SMS_8,196,5,42,127,346409268
65,4,2,T1_SMS_8,197,1,48,37,347136388
65,4,2,T1_SMS_8,198,5,42,127,347209148
65,4,2,T1_SMS_8,199,1,48,36,347954692
65,4,2,T1_SMS_8,200,5,42,127,348008808
65,4,2,T1_SMS_8,201,1,48,43,348707676
65,4,2,T1_SMS_8,202,5,42,127,348808528
65,4,2,T1_SMS_8,203,1,48,35,349597392
65,4,2,T1_SMS_8,204,5,42,127,349609320
65,4,2,T1_SMS_8,205,1,48,41,350374460
65,4,2,T1_SMS_8,206,5,42,127,350409276
65,4,2,T1_SMS_8,207,5,42,127,351208792
65,4,2,T1_SMS_8,208,1,48,30,351219168
65,4,2,T1_SMS_8,209,5,42,127,352008700
65,4,2,T1_SMS_8,210,1,48,26,352068216
65,4,2,T1_SMS_8,211,5,42,127,352809332
65,4,2,T1_SMS_8,212,1,48,36,352894352
65,4,2,T1_SMS_8,213,5,42,127,353609212
65,4,2,T1_SMS_8,214,1,48,28,353611888
65,4,2,T1_SMS_8,215,5,42,127,354408872
65,4,2,T1_SMS_8,216,1,48,36,354416624
65,4,2,T1_SMS_8,217,1,48,43,355181116
65,4,2,T1_SMS_8,218,5,42,127,355208452
65,4,2,T1_SMS_8,219,1,48,31,355957288
65,4,2,T1_SMS_8,220,5,42,127,356009308
65,4,2,T1_SMS_8,221,1,48,36,356733756
65,4,2,T1_SMS_8,222,5,42,127,356809336
65,4,2,T1_SMS_8,223,1,48,41,357503796
65,4,2,T1_SMS_8,224,5,42,127,357609056
65,4,2,T1_SMS_8,225,1,48,37,358348484
65,4,2,T1_SMS_8,226,5,42,127,358408532
65,4,2,T1_SMS_8,227,1,48,40,359168116
65,4,2,T1_SMS_8,228,5,42,127,359209312
65,4,2,T1_SMS_8,229,1,48,31,359974004
65,4,2,T1_SMS_8,230,5,42,127,360009268
65,4,2,T1_SMS_8,231,1,48,23,360753544
65,4,2,T1_SMS_8,232,5,42,127,360809076
65,4,2,T1_SMS_8,233,1,48,39,361508248
65,4,2,T1_SMS_8,234,5,42,127,361608420
65,4,2,T1_SMS_8,235,1,48,45,362394820
65,4,2,T1_SMS_8,236,5,42,127,362409292
65,4,2,T1_SMS_8,237,1,48,49,363173828
65,4,2,T1_SMS_8,238,5,42,127,363209024
65,4,2,T1_SMS_8,0,9999,9999,9999,268006508
65,4,2,T1_SMS_8,1,9999,9999,9999,268806244
65,4,2,T1_SMS_8,2,9999,9999,9999,269606972
65,4,2,T1_SMS_8,3,9999,9999,9999,270406728
65,4,2,T1_SMS_8,4,9999,9999,9999,271206460
65,4,2,T1_SMS_8,5,9999,9999,9999,272006264
65,4,2,T1_SMS_8,6,9999,9999,9999,272806972
65,4,2,T1_SMS_8,7,9999,9999,9999,273606780
65,4,2,T1_SMS_8,8,9999,9999,9999,274406456
65,4,2,T1_SMS_8,9,9999,9999,9999,275206244
65,4,2,T1_SMS_8,10,9999,9999,9999,276006976
65,4,2,T1_SMS_8,11,9999,9999,9999,276806712
65,4,2,T1_SMS_8,12,9999,9999,9999,277606452
65,4,2,T1_SMS_8,13,9999,9999,9999,278406252
65,4,2,T1_SMS_8,14,9999,9999,9999,279207032
65,4,2,T1_SMS_8,15,9999,9999,9999,280006764
65,4,2,T1_SMS_8,16,9999,9999,9999,280806500
65,4,2,T1_SMS_8,17,9999,9999,9999,281606232
65,4,2,T1_SMS_8,18,9999,9999,9999,282406964
65,4,2,T1_SMS_8,19,9999,9999,9999,283206776
65,4,2,T1_SMS_8,20,9999,9999,9999,284006508
65,4,2,T1_SMS_8,21,9999,9999,9999,284806244
65,4,2,T1_SMS_8,22,9999,9999,9999,285607024
65,4,2,T1_SMS_8,23,9999,9999,9999,286406752
65,4,2,T1_SMS_8,24,9999,9999,9999,287206484
65,4,2,T1_SMS_8,25,9999,9999,9999,288006220
65,4,2,T1_SMS_8,26,9999,9999,9999,288807004
65,4,2,T1_SMS_8,27,9999,9999,9999,289606732
65,4,2,T1_SMS_8,28,9999,9999,9999,290406472
65,4,2,T1_SMS_8,29,9999,9999,9999,291206204
65,4,2,T1_SMS_8,30,9999,9999,9999,292006984
65,4,2,T1_SMS_8,31,9999,9999,9999,292806720
65,4,2,T1_SMS_8,32,9999,9999,9999,293606452
65,4,2,T1_SMS_8,33,9999,9999,9999,294406260
65,4,2,T1_SMS_8,34,9999,9999,9999,295206968
65,4,2,T1_SMS_8,35,9999,9999,9999,296006776
65,4,2,T1_SMS_8,36,9999,9999,9999,296806508
65,4,2,T1_SMS_8,37,9999,9999,9999,297606240
65,4,2,T1_SMS_8,38,9999,9999,9999,298407012
65,4,2,T1_SMS_8,39,9999,9999,9999,299206752
65,4,2,T1_SMS_8,40,9999,9999,9999,300006488
65,4,2,T1_SMS_8,41,9999,9999,9999,300806220
65,4,2,T1_SMS_8,42,9999,9999,9999,301607024
65,4,2,T1_SMS_8,43,9999,9999,9999,302406760
65,4,2,T1_SMS_8,44,9999,9999,9999,303206492
65,4,2,T1_SMS_8,45,9999,9999,9999,304006228
65,4,2,T1_SMS_8,46,9999,9999,9999,304807000
65,4,2,T1_SMS_8,47,9999,9999,9999,305606732
65,4,2,T1_SMS_8,48,9999,9999,9999,306406468
65,4,2,T1_SMS_8,49,9999,9999,9999,307206208
65,4,2,T1_SMS_8,50,9999,9999,9999,308007008
65,4,2,T1_SMS_8,51,9999,9999,9999,308806740
65,4,2,T1_SMS_8,52,9999,9999,9999,309606476
65,4,2,T1_SMS_8,53,9999,9999,9999,310406208
65,4,2,T1_SMS_8,54,9999,9999,9999,311206992
65,4,2,T1_SMS_8,55,9999,9999,9999,312006728
65,4,2,T1_SMS_8,56,9999,9999,9999,312806460
65,4,2,T1_SMS_8,57,9999,9999,9999,313606192
65,4,2,T1_SMS_8,58,9999,9999,9999,314406992
65,4,2,T1_SMS_8,59,9999,9999,9999,315206724
65,4,2,T1_SMS_8,60,9999,9999,9999,316006460
65,4,2,T1_SMS_8,61,9999,9999,9999,316806200
65,4,2,T1_SMS_8,62,9999,9999,9999,317606972
65,4,2,T1_SMS_8,63,9999,9999,9999,318406708
65,4,2,T1_SMS_8,64,9999,9999,9999,319206516
65,4,2,T1_SMS_8,65,9999,9999,9999,320006256
65,4,2,T1_SMS_8,66,9999,9999,9999,320807024
65,4,2,T1_SMS_8,67,9999,9999,9999,321606720
65,4,2,T1_SMS_8,68,9999,9999,9999,322406520
65,4,2,T1_SMS_8,69,9999,9999,9999,323206256
65,4,2,T1_SMS_8,70,9999,9999,9999,324007036
65,4,2,T1_SMS_8,71,9999,9999,9999,324806768
65,4,2,T1_SMS_8,72,9999,9999,9999,325606508
65,4,2,T1_SMS_8,73,9999,9999,9999,326406236
65,4,2,T1_SMS_8,74,9999,9999,9999,327207012
65,4,2,T1_SMS_8,75,9999,9999,9999,328006748
65,4,2,T1_SMS_8,76,9999,9999,9999,328806480
65,4,2,T1_SMS_8,77,9999,9999,9999,329606212
65,4,2,T1_SMS_8,78,9999,9999,9999,330406992
65,4,2,T1_SMS_8,79,9999,9999,9999,331206728
65,4,2,T1_SMS_8,80,9999,9999,9999,332006464
65,4,2,T1_SMS_8,81,9999,9999,9999,332806256
65,4,2,T1_SMS_8,82,9999,9999,9999,333607004
65,4,2,T1_SMS_8,83,9999,9999,9999,334406740
65,4,2,T1_SMS_8,84,9999,9999,9999,335206472
65,4,2,T1_SMS_8,85,9999,9999,9999,336006208
65,4,2,T1_SMS_8,86,9999,9999,9999,336806996
65,4,2,T1_SMS_8,87,9999,9999,9999,337606728
65,4,2,T1_SMS_8,88,9999,9999,9999,338406456
65,4,2,T1_SMS_8,89,9999,9999,9999,339206260
65,4,2,T1_SMS_8,90,9999,9999,9999,340006996
65,4,2,T1_SMS_8,91,9999,9999,9999,340806728
65,4,2,T1_SMS_8,92,9999,9999,9999,341606468
65,4,2,T1_SMS_8,93,9999,9999,9999,342406204
65,4,2,T1_SMS_8,94,9999,9999,9999,343206980
65,4,2,T1_SMS_8,95,9999,9999,9999,344006716
65,4,2,T1_SMS_8,96,9999,9999,9999,344806516
65,4,2,T1_SMS_8,97,9999,9999,9999,345606248
65,4,2,T1_SMS_8,98,9999,9999,9999,346406980
65,4,2,T1_SMS_8,99,9999,9999,9999,347206712
65,4,2,T1_SMS_8,100,9999,9999,9999,348006520
65,4,2,T1_SMS_8,101,9999,9999,9999,348806240
65,4,2,T1_SMS_8,102,9999,9999,9999,349607032
65,4,2,T1_SMS_8,103,9999,9999,9999,350406768
65,4,2,T1_SMS_8,104,9999,9999,9999,351206504
65,4,2,T1_SMS_8,105,9999,9999,9999,352006240
65,4,2,T1_SMS_8,106,9999,9999,9999,352806972
65,4,2,T1_SMS_8,107,9999,9999,9999,353606776
65,4,2,T1_SMS_8,108,9999,9999,9999,354406512
65,4,2,T1_SMS_8,109,9999,9999,9999,355206240
65,4,2,T1_SMS_8,110,9999,9999,9999,356007020
65,4,2,T1_SMS_8,111,9999,9999,9999,356806752
65,4,2,T1_SMS_8,112,9999,9999,9999,357606468
65,4,2,T1_SMS_8,113,9999,9999,9999,358406220
65,4,2,T1_SMS_8,114,9999,9999,9999,359207024
65,4,2,T1_SMS_8,115,9999,9999,9999,360006756
65,4,2,T1_SMS_8,116,9999,9999,9999,360806488
65,4,2,T1_SMS_8,117,9999,9999,9999,361606208
65,4,2,T1_SMS_8,118,9999,9999,9999,362407004
65,4,2,T1_SMS_8,119,9999,9999,9999,363206736
65,5,4,T1_SMS_5,0,5,42,127,434404972
65,5,4,T1_SMS_5,1,5,42,127,434904688
65,5,4,T1_SMS_5,2,1,48,43,435399132
65,5,4,T1_SMS_5,3,5,42,127,435405296
65,5,4,T1_SMS_5,4,1,48,40,435893664
65,5,4,T1_SMS_5,5,5,42,127,435904916
65,5,4,T1_SMS_5,6,1,48,36,436379148
65,5,4,T1_SMS_5,7,5,42,127,436404984
65,5,4,T1_SMS_5,8,1,48,33,436870840
65,5,4,T1_SMS_5,9,5,42,127,436905356
65,5,4,T1_SMS_5,10,1,48,36,437352660
65,5,4,T1_SMS_5,11,5,42,127,437404976
65,5,4,T1_SMS_5,12,5,42,127,437904900
65,5,4,T1_SMS_5,13,1,48,43,437923800
65,5,4,T1_SMS_5,14,5,42,127,438404644
65,5,4,T1_SMS_5,15,1,48,42,438431552
65,5,4,T1_SMS_5,16,5,42,127,438905164
65,5,4,T1_SMS_5,17,1,48,38,438916884
65,5,4,T1_SMS_5,18,1,48,39,439375420
65,5,4,T1_SMS_5,19,5,42,127,439404852
65,5,4,T1_SMS_5,20,5,42,127,439904776
65,5,4,T1_SMS_5,21,1,48,42,439940732
65,5,4,T1_SMS_5,22,1,48,43,440404088
65,5,4,T1_SMS_5,23,5,42,127,440405732
65,5,4,T1_SMS_5,24,5,42,127,440905064
65,5,4,T1_SMS_5,25,1,48,37,440908484
65,5,4,T1_SMS_5,26,1,48,27,441399784
65,5,4,T1_SMS_5,27,5,42,127,441404900
65,5,4,T1_SMS_5,28,5,42,127,441904676
65,5,4,T1_SMS_5,29,1,48,41,441918648
65,5,4,T1_SMS_5,30,1,48,44,442371572
65,5,4,T1_SMS_5,31,5,42,127,442405188
65,5,4,T1_SMS_5,32,1,48,41,442901860
65,5,4,T1_SMS_5,33,5,42,127,442904884
65,5,4,T1_SMS_5,34,1,48,30,443377748
65,5,4,T1_SMS_5,35,5,42,127,443404580
65,5,4,T1_SMS_5,36,1,48,47,443897556
65,5,4,T1_SMS_5,37,5,42,127,443905516
65,5,4,T1_SMS_5,38,1,48,37,444373320
65,5,4,T1_SMS_5,39,5,42,127,444405068
65,5,4,T1_SMS_5,40,5,42,127,444904768
65,5,4,T1_SMS_5,41,1,48,46,444921424
65,5,4,T1_SMS_5,42,1,48,45,445386172
65,5,4,T1_SMS_5,43,5,42,127,445404680
65,5,4,T1_SMS_5,44,1,48,45,445888336
65,5,4,T1_SMS_5,45,5,42,127,445905272
65,5,4,T1_SMS_5,46,1,48,42,446380924
65,5,4,T1_SMS_5,47,5,42,127,446404896
65,5,4,T1_SMS_5,48,1,48,47,446894308
65,5,4,T1_SMS_5,49,5,42,127,446904664
65,5,4,T1_SMS_5,50,1,48,42,447383756
65,5,4,T1_SMS_5,51,5,42,127,447405628
65,5,4,T1_SMS_5,52,1,48,42,447854424
65,5,4,T1_SMS_5,53,5,42,127,447905024
65,5,4,T1_SMS_5,54,5,42,127,448404876
65,5,4,T1_SMS_5,55,1,48,39,448418540
65,5,4,T1_SMS_5,56,1,48,46,448885752
65,5,4,T1_SMS_5,57,5,42,127,448904492
65,5,4,T1_SMS_5,58,1,48,32,449340576
65,5,4,T1_SMS_5,59,5,42,127,449405380
65,5,4,T1_SMS_5,60,1,48,43,449868392
65,5,4,T1_SMS_5,61,5,42,127,449905000
65,5,4,T1_SMS_5,62,1,48,40,450383492
65,5,4,T1_SMS_5,63,5,42,127,450404696
65,5,4,T1_SMS_5,64,5,42,127,450904472
65,5,4,T1_SMS_5,65,1,48,46,450924196
65,5,4,T1_SMS_5,66,1,48,40,451365752
65,5,4,T1_SMS_5,67,5,42,127,451405060
65,5,4,T1_SMS_5,68,1,48,51,451886916
65,5,4,T1_SMS_5,69,5,42,127,451904904
65,5,4,T1_SMS_5,70,1,48,35,452375392
65,5,4,T1_SMS_5,71,5,42,127,452404524
65,5,4,T1_SMS_5,72,1,48,42,452868360
65,5,4,T1_SMS_5,73,5,42,127,452905636
65,5,4,T1_SMS_5,74,1,48,42,453392436
65,5,4,T1_SMS_5,75,5,42,127,453405032
65,5,4,T1_SMS_5,76,5,42,127,453904736
65,5,4,T1_SMS_5,77,1,48,46,453907484
65,5,4,T1_SMS_5,78,5,42,127,454404428
65,5,4,T1_SMS_5,79,1,48,44,454421912
65,5,4,T1_SMS_5,80,1,48,46,454876684
65,5,4,T1_SMS_5,81,5,42,127,454905064
65,5,4,T1_SMS_5,82,1,48,40,455372412
65,5,4,T1_SMS_5,83,5,42,127,455404760
65,5,4,T1_SMS_5,84,1,48,46,455896420
65,5,4,T1_SMS_5,85,5,42,127,455904528
65,5,4,T1_SMS_5,86,1,48,38,456396040
65,5,4,T1_SMS_5,87,5,42,127,456405568
65,5,4,T1_SMS_5,88,1,48,45,456878384
65,5,4,T1_SMS_5,89,5,42,127,456905264
65,5,4,T1_SMS_5,90,1,48,38,457356536
65,5,4,T1_SMS_5,91,5,42,127,457404736
65,5,4,T1_SMS_5,92,1,48,48,457881432
65,5,4,T1_SMS_5,93,5,42,127,457904356
65,5,4,T1_SMS_5,94,5,42,127,458405548
65,5,4,T1_SMS_5,95,1,48,44,458422884
65,5,4,T1_SMS_5,96,1,48,45,458897352
65,5,4,T1_SMS_5,97,5,42,127,458904940
65,5,4,T1_SMS_5,98,1,48,43,459391660
65,5,4,T1_SMS_5,99,5,42,127,459404712
65,5,4,T1_SMS_5,100,1,48,42,459895844
65,5,4,T1_SMS_5,101,5,42,127,459905524
65,5,4,T1_SMS_5,102,1,48,38,460377664
65,5,4,T1_SMS_5,103,5,42,127,460405296
65,5,4,T1_SMS_5,104,5,42,127,460904848
65,5,4,T1_SMS_5,105,1,48,35,460912304
65,5,4,T1_SMS_5,106,1,48,42,461383036
65,5,4,T1_SMS_5,107,5,42,127,461404388
65,5,4,T1_SMS_5,108,5,42,127,461905508
65,5,4,T1_SMS_5,109,1,48,42,461936680
65,5,4,T1_SMS_5,110,1,48,40,462396788
65,5,4,T1_SMS_5,111,5,42,127,462404900
65,5,4,T1_SMS_5,112,5,42,127,462904676
65,5,4,T1_SMS_5,113,1,48,40,462923200
65,5,4,T1_SMS_5,114,1,48,39,463384208
65,5,4,T1_SMS_5,115,5,42,127,463405484
65,5,4,T1_SMS_5,116,5,42,127,463905408
65,5,4,T1_SMS_5,117,1,48,49,463926028
65,5,4,T1_SMS_5,118,5,42,127,464404880
65,5,4,T1_SMS_5,119,1,48,38,464442108
65,5,4,T1_SMS_5,120,1,48,46,464904652
65,5,4,T1_SMS_5,121,5,42,127,464906136
65,5,4,T1_SMS_5,122,1,48,35,465398744
65,5,4,T1_SMS_5,123,5,42,127,465405436
65,5,4,T1_SMS_5,124,5,42,127,465905284
65,5,4,T1_SMS_5,125,1,48,48,465924664
65,5,4,T1_SMS_5,126,1,48,40,466383928
65,5,4,T1_SMS_5,127,5,42,127,466404604
65,5,4,T1_SMS_5,128,1,48,50,466884292
65,5,4,T1_SMS_5,129,5,42,127,466904372
65,5,4,T1_SMS_5,130,1,48,42,467381300
65,5,4,T1_SMS_5,131,5,42,127,467405264
65,5,4,T1_SMS_5,132,1,48,49,467873212
65,5,4,T1_SMS_5,133,5,42,127,467904812
65,5,4,T1_SMS_5,134,5,42,127,468404588
65,5,4,T1_SMS_5,135,1,48,36,468419976
65,5,4,T1_SMS_5,136,1,48,53,468898936
65,5,4,T1_SMS_5,137,5,42,127,468905248
65,5,4,T1_SMS_5,138,1,48,40,469393388
65,5,4,T1_SMS_5,139,5,42,127,469405092
65,5,4,T1_SMS_5,140,5,42,127,469904944
65,5,4,T1_SMS_5,141,1,48,53,469914420
65,5,4,T1_SMS_5,142,5,42,127,470404416
65,5,4,T1_SMS_5,143,1,48,39,470420324
65,5,4,T1_SMS_5,144,1,48,54,470875644
65,5,4,T1_SMS_5,145,5,42,127,470905148
65,5,4,T1_SMS_5,146,5,42,127,471404852
65,5,4,T1_SMS_5,147,1,48,38,471408196
65,5,4,T1_SMS_5,148,5,42,127,471904472
65,5,4,T1_SMS_5,149,1,48,50,471916116
65,5,4,T1_SMS_5,150,1,48,37,472386848
65,5,4,T1_SMS_5,151,5,42,127,472405204
65,5,4,T1_SMS_5,152,1,48,48,472903468
65,5,4,T1_SMS_5,153,5,42,127,472905052
65,5,4,T1_SMS_5,154,1,48,39,473395884
65,5,4,T1_SMS_5,155,5,42,127,473404748
65,5,4,T1_SMS_5,156,5,42,127,473904524
65,5,4,T1_SMS_5,157,1,48,43,473949532
65,5,4,T1_SMS_5,158,1,48,40,474388468
65,5,4,T1_SMS_5,159,5,42,127,474405108
65,5,4,T1_SMS_5,160,1,48,49,474879388
65,5,4,T1_SMS_5,161,5,42,127,474904952
65,5,4,T1_SMS_5,162,5,42,127,475404504
65,5,4,T1_SMS_5,163,1,48,37,475407176
65,5,4,T1_SMS_5,164,5,42,127,475905544
65,5,4,T1_SMS_5,165,1,48,50,475908292
65,5,4,T1_SMS_5,166,1,48,42,476384308
65,5,4,T1_SMS_5,167,5,42,127,476405056
65,5,4,T1_SMS_5,168,1,48,50,476848700
65,5,4,T1_SMS_5,169,5,42,127,476904976
65,5,4,T1_SMS_5,170,5,42,127,477404456
65,5,4,T1_SMS_5,171,1,48,37,477433752
65,5,4,T1_SMS_5,172,5,42,127,477905124
65,5,4,T1_SMS_5,173,1,48,56,477927164
65,5,4,T1_SMS_5,174,1,48,39,478404284
65,5,4,T1_SMS_5,175,5,42,127,478405856
65,5,4,T1_SMS_5,176,1,48,48,478896248
65,5,4,T1_SMS_5,177,5,42,127,478904580
65,5,4,T1_SMS_5,178,1,48,41,479380832
65,5,4,T1_SMS_5,179,5,42,127,479405396
65,5,4,T1_SMS_5,180,5,42,127,479905096
65,5,4,T1_SMS_5,181,1,48,46,479944344
65,5,4,T1_SMS_5,182,1,48,40,480387552
65,5,4,T1_SMS_5,183,5,42,127,480404936
65,5,4,T1_SMS_5,184,5,42,127,480904488
65,5,4,T1_SMS_5,185,1,48,46,480914040
65,5,4,T1_SMS_5,186,1,48,25,481368012
65,5,4,T1_SMS_5,187,5,42,127,481405224
65,5,4,T1_SMS_5,188,1,48,58,481875860
65,5,4,T1_SMS_5,189,5,42,127,481904992
65,5,4,T1_SMS_5,190,1,48,43,482371744
65,5,4,T1_SMS_5,191,5,42,127,482404836
65,5,4,T1_SMS_5,192,1,48,50,482888048
65,5,4,T1_SMS_5,193,5,42,127,482904384
65,5,4,T1_SMS_5,194,1,48,41,483361040
65,5,4,T1_SMS_5,195,5,42,127,483405052
65,5,4,T1_SMS_5,196,1,48,51,483898352
65,5,4,T1_SMS_5,197,5,42,127,483905044
65,5,4,T1_SMS_5,198,5,42,127,484404524
65,5,4,T1_SMS_5,199,1,48,46,484424172
65,5,4,T1_SMS_5,200,1,48,51,484898348
65,5,4,T1_SMS_5,201,5,42,127,484905484
65,5,4,T1_SMS_5,202,1,48,47,485403904
65,5,4,T1_SMS_5,203,5,42,127,485405400
65,5,4,T1_SMS_5,204,1,48,50,485881184
65,5,4,T1_SMS_5,205,5,42,127,485904872
65,5,4,T1_SMS_5,206,1,48,42,486385960
65,5,4,T1_SMS_5,207,5,42,127,486404420
65,5,4,T1_SMS_5,208,1,48,51,486903324
65,5,4,T1_SMS_5,209,5,42,127,486905140
65,5,4,T1_SMS_5,210,1,48,47,487389020
65,5,4,T1_SMS_5,211,5,42,127,487404908
65,5,4,T1_SMS_5,212,1,48,52,487869716
65,5,4,T1_SMS_5,213,5,42,127,487904752
65,5,4,T1_SMS_5,214,1,48,42,488387812
65,5,4,T1_SMS_5,215,5,42,127,488405272
65,5,4,T1_SMS_5,216,5,42,127,488904972
65,5,4,T1_SMS_5,217,1,48,56,488906988
65,5,4,T1_SMS_5,218,5,42,127,489404744
65,5,4,T1_SMS_5,219,1,48,43,489415264
65,5,4,T1_SMS_5,220,1,48,54,489892880
65,5,4,T1_SMS_5,221,5,42,127,489904504
65,5,4,T1_SMS_5,222,1,48,43,490343128
65,5,4,T1_SMS_5,223,5,42,127,490405248
65,5,4,T1_SMS_5,224,5,42,127,490904800
65,5,4,T1_SMS_5,225,1,48,48,490911064
65,5,4,T1_SMS_5,226,5,42,127,491404644
65,5,4,T1_SMS_5,227,1,48,43,491415168
65,5,4,T1_SMS_5,228,5,42,127,491905388
65,5,4,T1_SMS_5,229,1,48,51,491929228
65,5,4,T1_SMS_5,230,1,48,47,492380436
65,5,4,T1_SMS_5,231,5,42,127,492405076
65,5,4,T1_SMS_5,232,1,48,51,492881848
65,5,4,T1_SMS_5,233,5,42,127,492904996
65,5,4,T1_SMS_5,234,1,48,41,493402580
65,5,4,T1_SMS_5,235,5,42,127,493404392
65,5,4,T1_SMS_5,236,1,48,52,493900092
65,5,4,T1_SMS_5,237,5,42,127,493905284
65,5,4,T1_SMS_5,238,5,42,127,494404912
65,5,4,T1_SMS_5,239,1,48,51,494407884
65,5,4,T1_SMS_5,240,1,48,51,494871428
65,5,4,T1_SMS_5,241,5,42,127,494904896
65,5,4,T1_SMS_5,242,5,42,127,495405276
65,5,4,T1_SMS_5,243,1,48,42,495419016
65,5,4,T1_SMS_5,244,1,48,51,495901636
65,5,4,T1_SMS_5,245,5,42,127,495905184
65,5,4,T1_SMS_5,246,1,48,45,496386824
65,5,4,T1_SMS_5,247,5,42,127,496404956
65,5,4,T1_SMS_5,248,5,42,127,496904508
65,5,4,T1_SMS_5,249,1,48,54,496936052
65,5,4,T1_SMS_5,250,1,48,41,497399276
65,5,4,T1_SMS_5,251,5,42,127,497405216
65,5,4,T1_SMS_5,252,5,42,127,497904996
65,5,4,T1_SMS_5,253,1,48,56,497911404
65,5,4,T1_SMS_5,254,1,48,42,498393280
65,5,4,T1_SMS_5,255,5,42,127,498404980
65,5,4,T1_SMS_5,256,1,48,58,498875696
65,5,4,T1_SMS_5,257,5,42,127,498904452
65,5,4,T1_SMS_5,258,1,48,43,499381748
65,5,4,T1_SMS_5,0,9999,9999,9999,434402388
65,5,4,T1_SMS_5,1,9999,9999,9999,434902104
65,5,4,T1_SMS_5,2,9999,9999,9999,435402864
65,5,4,T1_SMS_5,3,9999,9999,9999,435902556
65,5,4,T1_SMS_5,4,9999,9999,9999,436402252
65,5,4,T1_SMS_5,5,9999,9999,9999,436902996
65,5,4,T1_SMS_5,6,9999,9999,9999,437402688
65,5,4,T1_SMS_5,7,9999,9999,9999,437902392
65,5,4,T1_SMS_5,8,9999,9999,9999,438402132
65,5,4,T1_SMS_5,9,9999,9999,9999,438902876
65,5,4,T1_SMS_5,10,9999,9999,9999,439402564
65,5,4,T1_SMS_5,11,9999,9999,9999,439902268
65,5,4,T1_SMS_5,12,9999,9999,9999,440403008
65,5,4,T1_SMS_5,13,9999,9999,9999,440902776
65,5,4,T1_SMS_5,14,9999,9999,9999,441402464
65,5,4,T1_SMS_5,15,9999,9999,9999,441902168
65,5,4,T1_SMS_5,16,9999,9999,9999,442402900
65,5,4,T1_SMS_5,17,9999,9999,9999,442902596
65,5,4,T1_SMS_5,18,9999,9999,9999,443402292
65,5,4,T1_SMS_5,19,9999,9999,9999,443903080
65,5,4,T1_SMS_5,20,9999,9999,9999,444402780
65,5,4,T1_SMS_5,21,9999,9999,9999,444902480
65,5,4,T1_SMS_5,22,9999,9999,9999,445402168
65,5,4,T1_SMS_5,23,9999,9999,9999,445902912
65,5,4,T1_SMS_5,24,9999,9999,9999,446402608
65,5,4,T1_SMS_5,25,9999,9999,9999,446902376
65,5,4,T1_SMS_5,26,9999,9999,9999,447403120
65,5,4,T1_SMS_5,27,9999,9999,9999,447902812
65,5,4,T1_SMS_5,28,9999,9999,9999,448402516
65,5,4,T1_SMS_5,29,9999,9999,9999,448902204
65,5,4,T1_SMS_5,30,9999,9999,9999,449402944
65,5,4,T1_SMS_5,31,9999,9999,9999,449902640
65,5,4,T1_SMS_5,32,9999,9999,9999,450402408
65,5,4,T1_SMS_5,33,9999,9999,9999,450902112
65,5,4,T1_SMS_5,34,9999,9999,9999,451402848
65,5,4,T1_SMS_5,35,9999,9999,9999,451902540
65,5,4,T1_SMS_5,36,9999,9999,9999,452402236
65,5,4,T1_SMS_5,37,9999,9999,9999,452902980
65,5,4,T1_SMS_5,38,9999,9999,9999,453402672
65,5,4,T1_SMS_5,39,9999,9999,9999,453902448
65,5,4,T1_SMS_5,40,9999,9999,9999,454402144
65,5,4,T1_SMS_5,41,9999,9999,9999,454902852
65,5,4,T1_SMS_5,42,9999,9999,9999,455402548
65,5,4,T1_SMS_5,43,9999,9999,9999,455902316
65,5,4,T1_SMS_5,44,9999,9999,9999,456403060
65,5,4,T1_SMS_5,45,9999,9999,9999,456902756
65,5,4,T1_SMS_5,46,9999,9999,9999,457402448
65,5,4,T1_SMS_5,47,9999,9999,9999,457902144
65,5,4,T1_SMS_5,48,9999,9999,9999,458402892
65,5,4,T1_SMS_5,49,9999,9999,9999,458902580
65,5,4,T1_SMS_5,50,9999,9999,9999,459402348
65,5,4,T1_SMS_5,51,9999,9999,9999,459903092
65,5,4,T1_SMS_5,52,9999,9999,9999,460402784
65,5,4,T1_SMS_5,53,9999,9999,9999,460902488
65,5,4,T1_SMS_5,54,9999,9999,9999,461402176
65,5,4,T1_SMS_5,55,9999,9999,9999,461902924
65,5,4,T1_SMS_5,56,9999,9999,9999,462402612
65,5,4,T1_SMS_5,57,9999,9999,9999,462902388
65,5,4,T1_SMS_5,58,9999,9999,9999,463403124
65,5,4,T1_SMS_5,59,9999,9999,9999,463902824
65,5,4,T1_SMS_5,60,9999,9999,9999,464402520
65,5,4,T1_SMS_5,61,9999,9999,9999,464902216
65,5,4,T1_SMS_5,62,9999,9999,9999,465403000
65,5,4,T1_SMS_5,63,9999,9999,9999,465902700
65,5,4,T1_SMS_5,64,9999,9999,9999,466402392
65,5,4,T1_SMS_5,65,9999,9999,9999,466902088
65,5,4,T1_SMS_5,66,9999,9999,9999,467402832
65,5,4,T1_SMS_5,67,9999,9999,9999,467902524
65,5,4,T1_SMS_5,68,9999,9999,9999,468402228
65,5,4,T1_SMS_5,69,9999,9999,9999,468902964
65,5,4,T1_SMS_5,70,9999,9999,9999,469402732
65,5,4,T1_SMS_5,71,9999,9999,9999,469902432
65,5,4,T1_SMS_5,72,9999,9999,9999,470402128
65,5,4,T1_SMS_5,73,9999,9999,9999,470902864
65,5,4,T1_SMS_5,74,9999,9999,9999,471402564
65,5,4,T1_SMS_5,75,9999,9999,9999,471902260
65,5,4,T1_SMS_5,76,9999,9999,9999,472402992
65,5,4,T1_SMS_5,77,9999,9999,9999,472902776
65,5,4,T1_SMS_5,78,9999,9999,9999,473402460
65,5,4,T1_SMS_5,79,9999,9999,9999,473902160
65,5,4,T1_SMS_5,80,9999,9999,9999,474402896
65,5,4,T1_SMS_5,81,9999,9999,9999,474902592
65,5,4,T1_SMS_5,82,9999,9999,9999,475402292
65,5,4,T1_SMS_5,83,9999,9999,9999,475903084
65,5,4,T1_SMS_5,84,9999,9999,9999,476402772
65,5,4,T1_SMS_5,85,9999,9999,9999,476902468
65,5,4,T1_SMS_5,86,9999,9999,9999,477402168
65,5,4,T1_SMS_5,87,9999,9999,9999,477902912
65,5,4,T1_SMS_5,88,9999,9999,9999,478402680
65,5,4,T1_SMS_5,89,9999,9999,9999,478902368
65,5,4,T1_SMS_5,90,9999,9999,9999,479403108
65,5,4,T1_SMS_5,91,9999,9999,9999,479902808
65,5,4,T1_SMS_5,92,9999,9999,9999,480402500
65,5,4,T1_SMS_5,93,9999,9999,9999,480902200
65,5,4,T1_SMS_5,94,9999,9999,9999,481402936
65,5,4,T1_SMS_5,95,9999,9999,9999,481902708
65,5,4,T1_SMS_5,96,9999,9999,9999,482402400
65,5,4,T1_SMS_5,97,9999,9999,9999,482902100
65,5,4,T1_SMS_5,98,9999,9999,9999,483402840
65,5,4,T1_SMS_5,99,9999,9999,9999,483902536
65,5,4,T1_SMS_5,100,9999,9999,9999,484402236
65,5,4,T1_SMS_5,101,9999,9999,9999,484902976
65,5,4,T1_SMS_5,102,9999,9999,9999,485402676
65,5,4,T1_SMS_5,103,9999,9999,9999,485902440
65,5,4,T1_SMS_5,104,9999,9999,9999,486402132
65,5,4,T1_SMS_5,105,9999,9999,9999,486902876
65,5,4,T1_SMS_5,106,9999,9999,9999,487402548
65,5,4,T1_SMS_5,107,9999,9999,9999,487902316
65,5,4,T1_SMS_5,108,9999,9999,9999,488403060
65,5,4,T1_SMS_5,109,9999,9999,9999,488902760
65,5,4,T1_SMS_5,110,9999,9999,9999,489402456
65,5,4,T1_SMS_5,111,9999,9999,9999,489902144
65,5,4,T1_SMS_5,112,9999,9999,9999,490402884
65,5,4,T1_SMS_5,113,9999,9999,9999,490902588
65,5,4,T1_SMS_5,114,9999,9999,9999,491402360
65,5,4,T1_SMS_5,115,9999,9999,9999,491903024
65,5,4,T1_SMS_5,116,9999,9999,9999,492402788
65,5,4,T1_SMS_5,117,9999,9999,9999,492902488
65,5,4,T1_SMS_5,118,9999,9999,9999,493402204
65,5,4,T1_SMS_5,119,9999,9999,9999,493902924
65,5,4,T1_SMS_5,120,9999,9999,9999,494402624
65,5,4,T1_SMS_5,121,9999,9999,9999,494902388
65,5,4,T1_SMS_5,122,9999,9999,9999,495403060
65,5,4,T1_SMS_5,123,9999,9999,9999,495902824
65,5,4,T1_SMS_5,124,9999,9999,9999,496402520
65,5,4,T1_SMS_5,125,9999,9999,9999,496902224
65,5,4,T1_SMS_5,126,9999,9999,9999,497402932
65,5,4,T1_SMS_5,127,9999,9999,9999,497902708
65,5,4,T1_SMS_5,128,9999,9999,9999,498402396
65,5,4,T1_SMS_5,129,9999,9999,9999,498902092
65,6,9,Ticks_ISO_T2_8,0,5,42,127,510655868
65,6,9,Ticks_ISO_T2_8,1,5,42,127,511455696
65,6,9,Ticks_ISO_T2_8,2,1,48,31,511665732
65,6,9,Ticks_ISO_T2_8,3,5,42,127,512256428
65,6,9,Ticks_ISO_T2_8,4,1,48,42,512436820
65,6,9,Ticks_ISO_T2_8,5,5,42,127,513056084
65,6,9,Ticks_ISO_T2_8,6,1,48,39,513246428
65,6,9,Ticks_ISO_T2_8,7,5,42,127,513855892
65,6,9,Ticks_ISO_T2_8,8,1,48,38,514099592
65,6,9,Ticks_ISO_T2_8,9,5,42,127,514655552
65,6,9,Ticks_ISO_T2_8,10,1,48,35,514914432
65,6,9,Ticks_ISO_T2_8,11,5,42,127,515456488
65,6,9,Ticks_ISO_T2_8,12,1,48,37,515714012
65,6,9,Ticks_ISO_T2_8,13,5,42,127,516256068
65,6,9,Ticks_ISO_T2_8,14,1,48,38,516646092
65,6,9,Ticks_ISO_T2_8,15,5,42,127,517055800
65,6,9,Ticks_ISO_T2_8,16,5,42,127,517855556
65,6,9,Ticks_ISO_T2_8,17,1,48,40,518394572
65,6,9,Ticks_ISO_T2_8,18,5,42,127,518656512
65,6,9,Ticks_ISO_T2_8,19,1,48,39,519136188
65,6,9,Ticks_ISO_T2_8,20,5,42,127,519456244
65,6,9,Ticks_ISO_T2_8,21,1,48,34,519887828
65,6,9,Ticks_ISO_T2_8,22,5,42,127,520255752
65,6,9,Ticks_ISO_T2_8,23,1,48,39,520739796
65,6,9,Ticks_ISO_T2_8,24,5,42,127,521055560
65,6,9,Ticks_ISO_T2_8,25,5,42,127,521856588
65,6,9,Ticks_ISO_T2_8,26,1,48,43,522004840
65,6,9,Ticks_ISO_T2_8,27,5,42,127,522656020
65,6,9,Ticks_ISO_T2_8,28,5,42,127,523455700
65,6,9,Ticks_ISO_T2_8,29,1,48,38,524135288
65,6,9,Ticks_ISO_T2_8,30,5,42,127,524255732
65,6,9,Ticks_ISO_T2_8,31,1,48,40,524941080
65,6,9,Ticks_ISO_T2_8,32,5,42,127,525056464
65,6,9,Ticks_ISO_T2_8,33,1,48,43,525838380
65,6,9,Ticks_ISO_T2_8,34,5,42,127,525856208
65,6,9,Ticks_ISO_T2_8,35,1,48,41,526647836
65,6,9,Ticks_ISO_T2_8,36,5,42,127,526655720
65,6,9,Ticks_ISO_T2_8,37,1,48,41,527422512
65,6,9,Ticks_ISO_T2_8,38,5,42,127,527455604
65,6,9,Ticks_ISO_T2_8,39,5,42,127,528256468
65,6,9,Ticks_ISO_T2_8,40,1,48,38,528270204
65,6,9,Ticks_ISO_T2_8,41,5,42,127,529056420
65,6,9,Ticks_ISO_T2_8,42,1,48,40,529144212
65,6,9,Ticks_ISO_T2_8,43,5,42,127,529855780
65,6,9,Ticks_ISO_T2_8,44,1,48,40,529930508
65,6,9,Ticks_ISO_T2_8,45,5,42,127,530655516
65,6,9,Ticks_ISO_T2_8,46,1,48,45,530734876
65,6,9,Ticks_ISO_T2_8,47,5,42,127,531456324
65,6,9,Ticks_ISO_T2_8,48,1,48,42,531497364
65,6,9,Ticks_ISO_T2_8,49,1,48,47,532240228
65,6,9,Ticks_ISO_T2_8,50,5,42,127,532256344
65,6,9,Ticks_ISO_T2_8,51,5,42,127,533055788
65,6,9,Ticks_ISO_T2_8,52,1,48,47,533080524
65,6,9,Ticks_ISO_T2_8,53,5,42,127,533855592
65,6,9,Ticks_ISO_T2_8,54,1,48,42,533895216
65,6,9,Ticks_ISO_T2_8,55,5,42,127,534656304
65,6,9,Ticks_ISO_T2_8,56,1,48,47,534674528
65,6,9,Ticks_ISO_T2_8,57,1,48,45,535449336
65,6,9,Ticks_ISO_T2_8,58,5,42,127,535456324
65,6,9,Ticks_ISO_T2_8,59,1,48,45,536252588
65,6,9,Ticks_ISO_T2_8,60,5,42,127,536256204
65,6,9,Ticks_ISO_T2_8,61,1,48,47,537041028
65,6,9,Ticks_ISO_T2_8,62,5,42,127,537055568
65,6,9,Ticks_ISO_T2_8,63,1,48,43,537800068
65,6,9,Ticks_ISO_T2_8,64,5,42,127,537856448
65,6,9,Ticks_ISO_T2_8,65,1,48,42,538620072
65,6,9,Ticks_ISO_T2_8,66,5,42,127,538656104
65,6,9,Ticks_ISO_T2_8,67,1,48,49,539439576
65,6,9,Ticks_ISO_T2_8,68,5,42,127,539456060
65,6,9,Ticks_ISO_T2_8,69,1,48,30,539487140
65,6,9,Ticks_ISO_T2_8,70,5,42,127,540255628
65,6,9,Ticks_ISO_T2_8,71,1,48,49,540294428
65,6,9,Ticks_ISO_T2_8,72,1,48,50,541028320
65,6,9,Ticks_ISO_T2_8,73,5,42,127,541056332
65,6,9,Ticks_ISO_T2_8,74,1,48,42,541842644
65,6,9,Ticks_ISO_T2_8,75,5,42,127,541855988
65,6,9,Ticks_ISO_T2_8,76,1,48,49,542589048
65,6,9,Ticks_ISO_T2_8,77,5,42,127,542656092
65,6,9,Ticks_ISO_T2_8,78,1,48,45,543411516
65,6,9,Ticks_ISO_T2_8,79,5,42,127,543455528
65,6,9,Ticks_ISO_T2_8,80,1,48,32,544209676
65,6,9,Ticks_ISO_T2_8,81,5,42,127,544256264
65,6,9,Ticks_ISO_T2_8,82,5,42,127,545056076
65,6,9,Ticks_ISO_T2_8,83,1,48,43,545062264
65,6,9,Ticks_ISO_T2_8,84,5,42,127,545855956
65,6,9,Ticks_ISO_T2_8,85,1,48,49,545930516
65,6,9,Ticks_ISO_T2_8,86,5,42,127,546655544
65,6,9,Ticks_ISO_T2_8,87,1,48,40,546685812
65,6,9,Ticks_ISO_T2_8,88,1,48,38,547444688
65,6,9,Ticks_ISO_T2_8,89,5,42,127,547456320
65,6,9,Ticks_ISO_T2_8,90,1,48,56,548186076
65,6,9,Ticks_ISO_T2_8,91,5,42,127,548256048
65,6,9,Ticks_ISO_T2_8,92,1,48,49,549019176
65,6,9,Ticks_ISO_T2_8,93,5,42,127,549055932
65,6,9,Ticks_ISO_T2_8,94,1,48,42,549752784
65,6,9,Ticks_ISO_T2_8,95,5,42,127,549855500
65,6,9,Ticks_ISO_T2_8,96,1,48,43,550520804
65,6,9,Ticks_ISO_T2_8,97,5,42,127,550656384
65,6,9,Ticks_ISO_T2_8,98,1,48,40,551346940
65,6,9,Ticks_ISO_T2_8,99,5,42,127,551456040
65,6,9,Ticks_ISO_T2_8,100,1,48,47,552157524
65,6,9,Ticks_ISO_T2_8,101,5,42,127,552255848
65,6,9,Ticks_ISO_T2_8,102,1,48,48,552992812
65,6,9,Ticks_ISO_T2_8,103,5,42,127,553055520
65,6,9,Ticks_ISO_T2_8,104,1,48,43,553823056
65,6,9,Ticks_ISO_T2_8,105,5,42,127,553856304
65,6,9,Ticks_ISO_T2_8,106,1,48,50,554611200
65,6,9,Ticks_ISO_T2_8,107,5,42,127,554656036
65,6,9,Ticks_ISO_T2_8,108,1,48,41,555393872
65,6,9,Ticks_ISO_T2_8,109,5,42,127,555455768
65,6,9,Ticks_ISO_T2_8,110,1,48,45,556166612
65,6,9,Ticks_ISO_T2_8,111,5,42,127,556255576
65,6,9,Ticks_ISO_T2_8,112,1,48,40,557009276
65,6,9,Ticks_ISO_T2_8,113,5,42,127,557056308
65,6,9,Ticks_ISO_T2_8,114,1,48,40,557853164
65,6,9,Ticks_ISO_T2_8,115,5,42,127,557856116
65,6,9,Ticks_ISO_T2_8,116,1,48,48,558637040
65,6,9,Ticks_ISO_T2_8,117,5,42,127,558655772
65,6,9,Ticks_ISO_T2_8,118,1,48,49,559404092
65,6,9,Ticks_ISO_T2_8,119,5,42,127,559455656
65,6,9,Ticks_ISO_T2_8,120,1,48,43,560210256
65,6,9,Ticks_ISO_T2_8,121,5,42,127,560256292
65,6,9,Ticks_ISO_T2_8,122,1,48,45,561045140
65,6,9,Ticks_ISO_T2_8,123,5,42,127,561056244
65,6,9,Ticks_ISO_T2_8,124,1,48,35,561811892
65,6,9,Ticks_ISO_T2_8,125,5,42,127,561855976
65,6,9,Ticks_ISO_T2_8,126,1,48,41,562646108
65,6,9,Ticks_ISO_T2_8,127,5,42,127,562655712
65,6,9,Ticks_ISO_T2_8,128,1,48,41,563427816
65,6,9,Ticks_ISO_T2_8,129,5,42,127,563456296
65,6,9,Ticks_ISO_T2_8,130,1,48,46,564229664
65,6,9,Ticks_ISO_T2_8,131,5,42,127,564256100
65,6,9,Ticks_ISO_T2_8,132,1,48,46,564971704
65,6,9,Ticks_ISO_T2_8,133,5,42,127,565055832
65,6,9,Ticks_ISO_T2_8,134,1,48,46,565720048
65,6,9,Ticks_ISO_T2_8,135,5,42,127,565855548
65,6,9,Ticks_ISO_T2_8,136,1,48,43,566496748
65,6,9,Ticks_ISO_T2_8,137,5,42,127,566656260
65,6,9,Ticks_ISO_T2_8,138,1,48,47,567274564
65,6,9,Ticks_ISO_T2_8,139,5,42,127,567456136
65,6,9,Ticks_ISO_T2_8,140,1,48,38,568058288
65,6,9,Ticks_ISO_T2_8,141,5,42,127,568255796
65,6,9,Ticks_ISO_T2_8,142,1,48,48,568873156
65,6,9,Ticks_ISO_T2_8,143,5,42,127,569055752
65,6,9,Ticks_ISO_T2_8,144,1,48,42,569717616
65,6,9,Ticks_ISO_T2_8,145,5,42,127,569856412
65,6,9,Ticks_ISO_T2_8,146,1,48,42,570570456
65,6,9,Ticks_ISO_T2_8,147,5,42,127,570656008
65,6,9,Ticks_ISO_T2_8,148,5,42,127,571455748
65,6,9,Ticks_ISO_T2_8,149,1,48,37,571461484
65,6,9,Ticks_ISO_T2_8,150,5,42,127,572255852
65,6,9,Ticks_ISO_T2_8,151,1,48,46,572317688
65,6,9,Ticks_ISO_T2_8,152,5,42,127,573056264
65,6,9,Ticks_ISO_T2_8,153,1,48,28,573103884
65,6,9,Ticks_ISO_T2_8,154,5,42,127,573855996
65,6,9,Ticks_ISO_T2_8,155,1,48,48,573879160
65,6,9,Ticks_ISO_T2_8,156,1,48,36,574639684
65,6,9,Ticks_ISO_T2_8,157,5,42,127,574655724
65,6,9,Ticks_ISO_T2_8,158,5,42,127,575455836
65,6,9,Ticks_ISO_T2_8,159,1,48,45,575466584
65,6,9,Ticks_ISO_T2_8,160,1,48,22,576248648
65,6,9,Ticks_ISO_T2_8,161,5,42,127,576256488
65,6,9,Ticks_ISO_T2_8,162,1,48,41,577039584
65,6,9,Ticks_ISO_T2_8,163,5,42,127,577056216
65,6,9,Ticks_ISO_T2_8,164,1,48,32,577848588
65,6,9,Ticks_ISO_T2_8,165,5,42,127,577855800
65,6,9,Ticks_ISO_T2_8,166,1,48,52,578648920
65,6,9,Ticks_ISO_T2_8,167,5,42,127,578655608
65,6,9,Ticks_ISO_T2_8,168,1,48,40,579358520
65,6,9,Ticks_ISO_T2_8,169,5,42,127,579456452
65,6,9,Ticks_ISO_T2_8,170,1,48,38,580224672
65,6,9,Ticks_ISO_T2_8,171,5,42,127,580256120
65,6,9,Ticks_ISO_T2_8,172,1,48,43,580987832
65,6,9,Ticks_ISO_T2_8,173,5,42,127,581055856
65,6,9,Ticks_ISO_T2_8,174,1,48,46,581813372
65,6,9,Ticks_ISO_T2_8,175,5,42,127,581855664
65,6,9,Ticks_ISO_T2_8,176,1,48,34,582617444
65,6,9,Ticks_ISO_T2_8,177,5,42,127,582656324
65,6,9,Ticks_ISO_T2_8,178,1,48,40,583377236
65,6,9,Ticks_ISO_T2_8,179,5,42,127,583456128
65,6,9,Ticks_ISO_T2_8,180,1,48,37,584177120
65,6,9,Ticks_ISO_T2_8,181,5,42,127,584255936
65,6,9,Ticks_ISO_T2_8,182,1,48,42,584933396
65,6,9,Ticks_ISO_T2_8,183,5,42,127,585055580
65,6,9,Ticks_ISO_T2_8,184,1,48,33,585702756
65,6,9,Ticks_ISO_T2_8,185,5,42,127,585856584
65,6,9,Ticks_ISO_T2_8,186,1,48,38,586528324
65,6,9,Ticks_ISO_T2_8,187,5,42,127,586656240
65,6,9,Ticks_ISO_T2_8,188,1,48,34,587355876
65,6,9,Ticks_ISO_T2_8,189,5,42,127,587455828
65,6,9,Ticks_ISO_T2_8,190,1,48,45,588200120
65,6,9,Ticks_ISO_T2_8,191,5,42,127,588255572
65,6,9,Ticks_ISO_T2_8,192,1,48,37,589015332
65,6,9,Ticks_ISO_T2_8,193,5,42,127,589056532
65,6,9,Ticks_ISO_T2_8,194,1,48,47,589807512
65,6,9,Ticks_ISO_T2_8,195,5,42,127,589856260
65,6,9,Ticks_ISO_T2_8,196,5,42,127,590655704
65,6,9,Ticks_ISO_T2_8,197,1,48,35,590683208
65,6,9,Ticks_ISO_T2_8,198,1,48,43,591451584
65,6,9,Ticks_ISO_T2_8,199,5,42,127,591455728
65,6,9,Ticks_ISO_T2_8,200,5,42,127,592256596
65,6,9,Ticks_ISO_T2_8,201,1,48,30,592316180
65,6,9,Ticks_ISO_T2_8,202,5,42,127,593056324
65,6,9,Ticks_ISO_T2_8,203,1,48,44,593087048
65,6,9,Ticks_ISO_T2_8,204,5,42,127,593855832
65,6,9,Ticks_ISO_T2_8,205,1,48,27,593881172
65,6,9,Ticks_ISO_T2_8,206,1,48,42,594651040
65,6,9,Ticks_ISO_T2_8,207,5,42,127,594655560
65,6,9,Ticks_ISO_T2_8,208,1,48,32,595364380
65,6,9,Ticks_ISO_T2_8,209,5,42,127,595456372
65,6,9,Ticks_ISO_T2_8,210,1,48,40,596174436
65,6,9,Ticks_ISO_T2_8,211,5,42,127,596256396
65,6,9,Ticks_ISO_T2_8,212,1,48,35,596983072
65,6,9,Ticks_ISO_T2_8,213,5,42,127,597055980
65,6,9,Ticks_ISO_T2_8,214,1,48,32,597836756
65,6,9,Ticks_ISO_T2_8,215,5,42,127,597855640
65,6,9,Ticks_ISO_T2_8,216,1,48,43,598610612
65,6,9,Ticks_ISO_T2_8,217,5,42,127,598656276
65,6,9,Ticks_ISO_T2_8,218,1,48,39,599381920
65,6,9,Ticks_ISO_T2_8,219,5,42,127,599456304
65,6,9,Ticks_ISO_T2_8,220,1,48,39,600202972
65,6,9,Ticks_ISO_T2_8,221,5,42,127,600255960
65,6,9,Ticks_ISO_T2_8,222,1,48,35,600968748
65,6,9,Ticks_ISO_T2_8,223,5,42,127,601055620
65,6,9,Ticks_ISO_T2_8,224,1,48,39,601776932
65,6,9,Ticks_ISO_T2_8,225,5,42,127,601856352
65,6,9,Ticks_ISO_T2_8,226,1,48,33,602556552
65,6,9,Ticks_ISO_T2_8,227,5,42,127,602656068
65,6,9,Ticks_ISO_T2_8,228,1,48,45,603372136
65,6,9,Ticks_ISO_T2_8,229,5,42,127,603456040
65,6,9,Ticks_ISO_T2_8,230,1,48,32,604131176
65,6,9,Ticks_ISO_T2_8,231,5,42,127,604255460
65,6,9,Ticks_ISO_T2_8,232,1,48,42,604939392
65,6,9,Ticks_ISO_T2_8,233,5,42,127,605056468
65,6,9,Ticks_ISO_T2_8,234,1,48,36,605739644
65,6,9,Ticks_ISO_T2_8,235,5,42,127,605856196
65,6,9,Ticks_ISO_T2_8,236,1,48,40,606546928
65,6,9,Ticks_ISO_T2_8,0,9999,9999,9999,510653504
65,6,9,Ticks_ISO_T2_8,1,9999,9999,9999,511453260
65,6,9,Ticks_ISO_T2_8,2,9999,9999,9999,512254040
65,6,9,Ticks_ISO_T2_8,3,9999,9999,9999,513053796
65,6,9,Ticks_ISO_T2_8,4,9999,9999,9999,513853528
65,6,9,Ticks_ISO_T2_8,5,9999,9999,9999,514653264
65,6,9,Ticks_ISO_T2_8,6,9999,9999,9999,515454044
65,6,9,Ticks_ISO_T2_8,7,9999,9999,9999,516253780
65,6,9,Ticks_ISO_T2_8,8,9999,9999,9999,517053512
65,6,9,Ticks_ISO_T2_8,9,9999,9999,9999,517853268
65,6,9,Ticks_ISO_T2_8,10,9999,9999,9999,518654048
65,6,9,Ticks_ISO_T2_8,11,9999,9999,9999,519453808
65,6,9,Ticks_ISO_T2_8,12,9999,9999,9999,520253536
65,6,9,Ticks_ISO_T2_8,13,9999,9999,9999,521053272
65,6,9,Ticks_ISO_T2_8,14,9999,9999,9999,521854000
65,6,9,Ticks_ISO_T2_8,15,9999,9999,9999,522653804
65,6,9,Ticks_ISO_T2_8,16,9999,9999,9999,523453488
65,6,9,Ticks_ISO_T2_8,17,9999,9999,9999,524253292
65,6,9,Ticks_ISO_T2_8,18,9999,9999,9999,525054000
65,6,9,Ticks_ISO_T2_8,19,9999,9999,9999,525853772
65,6,9,Ticks_ISO_T2_8,20,9999,9999,9999,526653508
65,6,9,Ticks_ISO_T2_8,21,9999,9999,9999,527453240
65,6,9,Ticks_ISO_T2_8,22,9999,9999,9999,528254028
65,6,9,Ticks_ISO_T2_8,23,9999,9999,9999,529053760
65,6,9,Ticks_ISO_T2_8,24,9999,9999,9999,529853492
65,6,9,Ticks_ISO_T2_8,25,9999,9999,9999,530653300
65,6,9,Ticks_ISO_T2_8,26,9999,9999,9999,531454032
65,6,9,Ticks_ISO_T2_8,27,9999,9999,9999,532253756
65,6,9,Ticks_ISO_T2_8,28,9999,9999,9999,533053500
65,6,9,Ticks_ISO_T2_8,29,9999,9999,9999,533853232
65,6,9,Ticks_ISO_T2_8,30,9999,9999,9999,534654012
65,6,9,Ticks_ISO_T2_8,31,9999,9999,9999,535453812
65,6,9,Ticks_ISO_T2_8,32,9999,9999,9999,536253544
65,6,9,Ticks_ISO_T2_8,33,9999,9999,9999,537053280
65,6,9,Ticks_ISO_T2_8,34,9999,9999,9999,537854008
65,6,9,Ticks_ISO_T2_8,35,9999,9999,9999,538653816
65,6,9,Ticks_ISO_T2_8,36,9999,9999,9999,539453548
65,6,9,Ticks_ISO_T2_8,37,9999,9999,9999,540253264
65,6,9,Ticks_ISO_T2_8,38,9999,9999,9999,541054040
65,6,9,Ticks_ISO_T2_8,39,9999,9999,9999,541853772
65,6,9,Ticks_ISO_T2_8,40,9999,9999,9999,542653508
65,6,9,Ticks_ISO_T2_8,41,9999,9999,9999,543453240
65,6,9,Ticks_ISO_T2_8,42,9999,9999,9999,544254048
65,6,9,Ticks_ISO_T2_8,43,9999,9999,9999,545053788
65,6,9,Ticks_ISO_T2_8,44,9999,9999,9999,545853520
65,6,9,Ticks_ISO_T2_8,45,9999,9999,9999,546653256
65,6,9,Ticks_ISO_T2_8,46,9999,9999,9999,547454028
65,6,9,Ticks_ISO_T2_8,47,9999,9999,9999,548253760
65,6,9,Ticks_ISO_T2_8,48,9999,9999,9999,549053496
65,6,9,Ticks_ISO_T2_8,49,9999,9999,9999,549853288
65,6,9,Ticks_ISO_T2_8,50,9999,9999,9999,550654016
65,6,9,Ticks_ISO_T2_8,51,9999,9999,9999,551453752
65,6,9,Ticks_ISO_T2_8,52,9999,9999,9999,552253560
65,6,9,Ticks_ISO_T2_8,53,9999,9999,9999,553053232
65,6,9,Ticks_ISO_T2_8,54,9999,9999,9999,553854012
65,6,9,Ticks_ISO_T2_8,55,9999,9999,9999,554653748
65,6,9,Ticks_ISO_T2_8,56,9999,9999,9999,555453556
65,6,9,Ticks_ISO_T2_8,57,9999,9999,9999,556253288
65,6,9,Ticks_ISO_T2_8,58,9999,9999,9999,557054016
65,6,9,Ticks_ISO_T2_8,59,9999,9999,9999,557853752
65,6,9,Ticks_ISO_T2_8,60,9999,9999,9999,558653484
65,6,9,Ticks_ISO_T2_8,61,9999,9999,9999,559453296
65,6,9,Ticks_ISO_T2_8,62,9999,9999,9999,560254000
65,6,9,Ticks_ISO_T2_8,63,9999,9999,9999,561053808
65,6,9,Ticks_ISO_T2_8,64,9999,9999,9999,561853540
65,6,9,Ticks_ISO_T2_8,65,9999,9999,9999,562653276
65,6,9,Ticks_ISO_T2_8,66,9999,9999,9999,563454004
65,6,9,Ticks_ISO_T2_8,67,9999,9999,9999,564253812
65,6,9,Ticks_ISO_T2_8,68,9999,9999,9999,565053544
65,6,9,Ticks_ISO_T2_8,69,9999,9999,9999,565853260
65,6,9,Ticks_ISO_T2_8,70,9999,9999,9999,566654040
65,6,9,Ticks_ISO_T2_8,71,9999,9999,9999,567453776
65,6,9,Ticks_ISO_T2_8,72,9999,9999,9999,568253508
65,6,9,Ticks_ISO_T2_8,73,9999,9999,9999,569053240
65,6,9,Ticks_ISO_T2_8,74,9999,9999,9999,569854044
65,6,9,Ticks_ISO_T2_8,75,9999,9999,9999,570653792
65,6,9,Ticks_ISO_T2_8,76,9999,9999,9999,571453532
65,6,9,Ticks_ISO_T2_8,77,9999,9999,9999,572253268
65,6,9,Ticks_ISO_T2_8,78,9999,9999,9999,573054048
65,6,9,Ticks_ISO_T2_8,79,9999,9999,9999,573853784
65,6,9,Ticks_ISO_T2_8,80,9999,9999,9999,574653508
65,6,9,Ticks_ISO_T2_8,81,9999,9999,9999,575453248
65,6,9,Ticks_ISO_T2_8,82,9999,9999,9999,576254044
65,6,9,Ticks_ISO_T2_8,83,9999,9999,9999,577053780
65,6,9,Ticks_ISO_T2_8,84,9999,9999,9999,577853512
65,6,9,Ticks_ISO_T2_8,85,9999,9999,9999,578653248
65,6,9,Ticks_ISO_T2_8,86,9999,9999,9999,579454012
65,6,9,Ticks_ISO_T2_8,87,9999,9999,9999,580253760
65,6,9,Ticks_ISO_T2_8,88,9999,9999,9999,581053496
65,6,9,Ticks_ISO_T2_8,89,9999,9999,9999,581853300
65,6,9,Ticks_ISO_T2_8,90,9999,9999,9999,582654032
65,6,9,Ticks_ISO_T2_8,91,9999,9999,9999,583453764
65,6,9,Ticks_ISO_T2_8,92,9999,9999,9999,584253500
65,6,9,Ticks_ISO_T2_8,93,9999,9999,9999,585053292
65,6,9,Ticks_ISO_T2_8,94,9999,9999,9999,585854068
65,6,9,Ticks_ISO_T2_8,95,9999,9999,9999,586653804
65,6,9,Ticks_ISO_T2_8,96,9999,9999,9999,587453540
65,6,9,Ticks_ISO_T2_8,97,9999,9999,9999,588253288
65,6,9,Ticks_ISO_T2_8,98,9999,9999,9999,589054016
65,6,9,Ticks_ISO_T2_8,99,9999,9999,9999,589853748
65,6,9,Ticks_ISO_T2_8,100,9999,9999,9999,590653492
65,6,9,Ticks_ISO_T2_8,101,9999,9999,9999,591453292
65,6,9,Ticks_ISO_T2_8,102,9999,9999,9999,592254004
65,6,9,Ticks_ISO_T2_8,103,9999,9999,9999,593053812
65,6,9,Ticks_ISO_T2_8,104,9999,9999,9999,593853544
65,6,9,Ticks_ISO_T2_8,105,9999,9999,9999,594653272
65,6,9,Ticks_ISO_T2_8,106,9999,9999,9999,595454004
65,6,9,Ticks_ISO_T2_8,107,9999,9999,9999,596253812
65,6,9,Ticks_ISO_T2_8,108,9999,9999,9999,597053544
65,6,9,Ticks_ISO_T2_8,109,9999,9999,9999,597853280
65,6,9,Ticks_ISO_T2_8,110,9999,9999,9999,598654060
65,6,9,Ticks_ISO_T2_8,111,9999,9999,9999,599453792
65,6,9,Ticks_ISO_T2_8,112,9999,9999,9999,600253524
65,6,9,Ticks_ISO_T2_8,113,9999,9999,9999,601053260
65,6,9,Ticks_ISO_T2_8,114,9999,9999,9999,601854060
65,6,9,Ticks_ISO_T2_8,115,9999,9999,9999,602653780
65,6,9,Ticks_ISO_T2_8,116,9999,9999,9999,603453528
65,6,9,Ticks_ISO_T2_8,117,9999,9999,9999,604253244
65,6,9,Ticks_ISO_T2_8,118,9999,9999,9999,605054024
65,6,9,Ticks_ISO_T2_8,119,9999,9999,9999,605853756
65,7,10,Ticks_ISO_T2_5,0,5,42,127,618073396
65,7,10,Ticks_ISO_T2_5,1,5,42,127,618574084
65,7,10,Ticks_ISO_T2_5,2,5,42,127,619073872
65,7,10,Ticks_ISO_T2_5,3,1,48,37,619108108
65,7,10,Ticks_ISO_T2_5,4,5,42,127,619573496
65,7,10,Ticks_ISO_T2_5,5,1,48,34,619624036
65,7,10,Ticks_ISO_T2_5,6,5,42,127,620074312
65,7,10,Ticks_ISO_T2_5,7,1,48,31,620099796
65,7,10,Ticks_ISO_T2_5,8,5,42,127,620573932
65,7,10,Ticks_ISO_T2_5,9,1,48,36,620593356
65,7,10,Ticks_ISO_T2_5,10,5,42,127,621073848
65,7,10,Ticks_ISO_T2_5,11,1,48,33,621076896
65,7,10,Ticks_ISO_T2_5,12,5,42,127,621573396
65,7,10,Ticks_ISO_T2_5,13,1,48,34,621577636
65,7,10,Ticks_ISO_T2_5,14,5,42,127,622074212
65,7,10,Ticks_ISO_T2_5,15,1,48,32,622100068
65,7,10,Ticks_ISO_T2_5,16,5,42,127,622573880
65,7,10,Ticks_ISO_T2_5,17,1,48,32,622579244
65,7,10,Ticks_ISO_T2_5,18,5,42,127,623073576
65,7,10,Ticks_ISO_T2_5,19,1,48,36,623077596
65,7,10,Ticks_ISO_T2_5,20,1,48,35,623568220
65,7,10,Ticks_ISO_T2_5,21,5,42,127,623574312
65,7,10,Ticks_ISO_T2_5,22,5,42,127,624074164
65,7,10,Ticks_ISO_T2_5,23,1,48,38,624083636
65,7,10,Ticks_ISO_T2_5,24,5,42,127,624573784
65,7,10,Ticks_ISO_T2_5,25,1,48,39,624587744
65,7,10,Ticks_ISO_T2_5,26,1,48,40,625071432
65,7,10,Ticks_ISO_T2_5,27,5,42,127,625073472
65,7,10,Ticks_ISO_T2_5,28,5,42,127,625574220
65,7,10,Ticks_ISO_T2_5,29,1,48,31,625580480
65,7,10,Ticks_ISO_T2_5,30,5,42,127,626073840
65,7,10,Ticks_ISO_T2_5,31,1,48,44,626075176
65,7,10,Ticks_ISO_T2_5,32,5,42,127,626573756
65,7,10,Ticks_ISO_T2_5,33,1,48,45,626618764
65,7,10,Ticks_ISO_T2_5,34,5,42,127,627074348
65,7,10,Ticks_ISO_T2_5,35,1,48,34,627090632
65,7,10,Ticks_ISO_T2_5,36,5,42,127,627574044
65,7,10,Ticks_ISO_T2_5,37,1,48,42,627587708
65,7,10,Ticks_ISO_T2_5,38,5,42,127,628073888
65,7,10,Ticks_ISO_T2_5,39,1,48,41,628074776
65,7,10,Ticks_ISO_T2_5,40,5,42,127,628573728
65,7,10,Ticks_ISO_T2_5,41,1,48,42,628591960
65,7,10,Ticks_ISO_T2_5,42,1,48,38,629072504
65,7,10,Ticks_ISO_T2_5,43,5,42,127,629074240
65,7,10,Ticks_ISO_T2_5,44,1,48,41,629570688
65,7,10,Ticks_ISO_T2_5,45,5,42,127,629573936
65,7,10,Ticks_ISO_T2_5,46,1,48,44,630065592
65,7,10,Ticks_ISO_T2_5,47,5,42,127,630073928
65,7,10,Ticks_ISO_T2_5,48,1,48,36,630548232
65,7,10,Ticks_ISO_T2_5,49,5,42,127,630573324
65,7,10,Ticks_ISO_T2_5,50,1,48,42,631044564
65,7,10,Ticks_ISO_T2_5,51,5,42,127,631074140
65,7,10,Ticks_ISO_T2_5,52,1,48,35,631506532
65,7,10,Ticks_ISO_T2_5,53,5,42,127,631573836
65,7,10,Ticks_ISO_T2_5,54,1,48,37,632054468
65,7,10,Ticks_ISO_T2_5,55,5,42,127,632073752
65,7,10,Ticks_ISO_T2_5,56,5,42,127,632574276
65,7,10,Ticks_ISO_T2_5,57,1,48,37,632585848
65,7,10,Ticks_ISO_T2_5,58,5,42,127,633074024
65,7,10,Ticks_ISO_T2_5,59,1,48,37,633084124
65,7,10,Ticks_ISO_T2_5,60,1,48,32,633567696
65,7,10,Ticks_ISO_T2_5,61,5,42,127,633573860
65,7,10,Ticks_ISO_T2_5,62,5,42,127,634073412
65,7,10,Ticks_ISO_T2_5,63,1,48,39,634095228
65,7,10,Ticks_ISO_T2_5,64,5,42,127,634574080
65,7,10,Ticks_ISO_T2_5,65,1,48,36,634601060
65,7,10,Ticks_ISO_T2_5,66,5,42,127,635073924
65,7,10,Ticks_ISO_T2_5,67,1,48,36,635078092
65,7,10,Ticks_ISO_T2_5,68,5,42,127,635573692
65,7,10,Ticks_ISO_T2_5,69,1,48,34,635574656
65,7,10,Ticks_ISO_T2_5,70,5,42,127,636074504
65,7,10,Ticks_ISO_T2_5,71,1,48,40,636113452
65,7,10,Ticks_ISO_T2_5,72,5,42,127,636574200
65,7,10,Ticks_ISO_T2_5,73,1,48,38,636611656
65,7,10,Ticks_ISO_T2_5,74,1,48,36,637049024
65,7,10,Ticks_ISO_T2_5,75,5,42,127,637073888
65,7,10,Ticks_ISO_T2_5,76,5,42,127,637573812
65,7,10,Ticks_ISO_T2_5,77,1,48,32,637585084
65,7,10,Ticks_ISO_T2_5,78,5,42,127,638074108
65,7,10,Ticks_ISO_T2_5,79,1,48,36,638114028
65,7,10,Ticks_ISO_T2_5,80,5,42,127,638573876
65,7,10,Ticks_ISO_T2_5,81,1,48,30,638591432
65,7,10,Ticks_ISO_T2_5,82,5,42,127,639073720
65,7,10,Ticks_ISO_T2_5,83,1,48,39,639077140
65,7,10,Ticks_ISO_T2_5,84,1,48,36,639562528
65,7,10,Ticks_ISO_T2_5,85,5,42,127,639574528
65,7,10,Ticks_ISO_T2_5,86,1,48,43,640033720
65,7,10,Ticks_ISO_T2_5,87,5,42,127,640074072
65,7,10,Ticks_ISO_T2_5,88,5,42,127,640573776
65,7,10,Ticks_ISO_T2_5,89,1,48,37,640575408
65,7,10,Ticks_ISO_T2_5,90,1,48,41,641030200
65,7,10,Ticks_ISO_T2_5,91,5,42,127,641073764
65,7,10,Ticks_ISO_T2_5,92,1,48,33,641535424
65,7,10,Ticks_ISO_T2_5,93,5,42,127,641574204
65,7,10,Ticks_ISO_T2_5,94,5,42,127,642074056
65,7,10,Ticks_ISO_T2_5,95,1,48,34,642083012
65,7,10,Ticks_ISO_T2_5,96,5,42,127,642573676
65,7,10,Ticks_ISO_T2_5,97,1,48,40,642610604
65,7,10,Ticks_ISO_T2_5,98,1,48,37,643072600
65,7,10,Ticks_ISO_T2_5,99,5,42,127,643074412
65,7,10,Ticks_ISO_T2_5,100,5,42,127,643574016
65,7,10,Ticks_ISO_T2_5,101,1,48,38,643578060
65,7,10,Ticks_ISO_T2_5,102,5,42,127,644073784
65,7,10,Ticks_ISO_T2_5,103,1,48,41,644090168
65,7,10,Ticks_ISO_T2_5,104,1,48,35,644569700
65,7,10,Ticks_ISO_T2_5,105,5,42,127,644573472
65,7,10,Ticks_ISO_T2_5,106,5,42,127,645074444
65,7,10,Ticks_ISO_T2_5,107,1,48,38,645105536
65,7,10,Ticks_ISO_T2_5,108,5,42,127,645574064
65,7,10,Ticks_ISO_T2_5,109,1,48,43,645579352
65,7,10,Ticks_ISO_T2_5,110,5,42,127,646073684
65,7,10,Ticks_ISO_T2_5,111,1,48,36,646082040
65,7,10,Ticks_ISO_T2_5,112,5,42,127,646573528
65,7,10,Ticks_ISO_T2_5,113,1,48,44,646597968
65,7,10,Ticks_ISO_T2_5,114,5,42,127,647074048
65,7,10,Ticks_ISO_T2_5,115,1,48,40,647080904
65,7,10,Ticks_ISO_T2_5,116,5,42,127,647573816
65,7,10,Ticks_ISO_T2_5,117,1,48,33,647587556
65,7,10,Ticks_ISO_T2_5,118,5,42,127,648073584
65,7,10,Ticks_ISO_T2_5,119,1,48,39,648089196
65,7,10,Ticks_ISO_T2_5,120,1,48,31,648550504
65,7,10,Ticks_ISO_T2_5,121,5,42,127,648574396
65,7,10,Ticks_ISO_T2_5,122,5,42,127,649074020
65,7,10,Ticks_ISO_T2_5,123,1,48,43,649104140
65,7,10,Ticks_ISO_T2_5,124,1,48,36,649559092
65,7,10,Ticks_ISO_T2_5,125,5,42,127,649573784
65,7,10,Ticks_ISO_T2_5,126,1,48,44,650011964
65,7,10,Ticks_ISO_T2_5,127,5,42,127,650073404
65,7,10,Ticks_ISO_T2_5,128,5,42,127,650574300
65,7,10,Ticks_ISO_T2_5,129,1,48,32,650624988
65,7,10,Ticks_ISO_T2_5,130,1,48,39,651071264
65,7,10,Ticks_ISO_T2_5,131,5,42,127,651073916
65,7,10,Ticks_ISO_T2_5,132,5,42,127,651573468
65,7,10,Ticks_ISO_T2_5,133,1,48,37,651576208
65,7,10,Ticks_ISO_T2_5,134,5,42,127,652074508
65,7,10,Ticks_ISO_T2_5,135,1,48,35,652094008
65,7,10,Ticks_ISO_T2_5,136,5,42,127,652574200
65,7,10,Ticks_ISO_T2_5,137,1,48,37,652580092
65,7,10,Ticks_ISO_T2_5,138,5,42,127,653073824
65,7,10,Ticks_ISO_T2_5,139,1,48,33,653087268
65,7,10,Ticks_ISO_T2_5,140,5,42,127,653573368
65,7,10,Ticks_ISO_T2_5,141,1,48,38,653583216
65,7,10,Ticks_ISO_T2_5,142,1,48,32,654057816
65,7,10,Ticks_ISO_T2_5,143,5,42,127,654074476
65,7,10,Ticks_ISO_T2_5,144,5,42,127,654574076
65,7,10,Ticks_ISO_T2_5,145,1,48,41,654599888
65,7,10,Ticks_ISO_T2_5,146,1,48,35,655065728
65,7,10,Ticks_ISO_T2_5,147,5,42,127,655073616
65,7,10,Ticks_ISO_T2_5,148,1,48,31,655545904
65,7,10,Ticks_ISO_T2_5,149,5,42,127,655574508
65,7,10,Ticks_ISO_T2_5,150,5,42,127,656074356
65,7,10,Ticks_ISO_T2_5,151,1,48,45,656092516
65,7,10,Ticks_ISO_T2_5,152,5,42,127,656573828
65,7,10,Ticks_ISO_T2_5,153,1,48,41,656576420
65,7,10,Ticks_ISO_T2_5,154,1,48,41,657057700
65,7,10,Ticks_ISO_T2_5,155,5,42,127,657073444
65,7,10,Ticks_ISO_T2_5,156,1,48,40,657564952
65,7,10,Ticks_ISO_T2_5,157,5,42,127,657574632
65,7,10,Ticks_ISO_T2_5,158,1,48,49,658060312
65,7,10,Ticks_ISO_T2_5,159,5,42,127,658074028
65,7,10,Ticks_ISO_T2_5,160,5,42,127,658573580
65,7,10,Ticks_ISO_T2_5,161,1,48,38,658594128
65,7,10,Ticks_ISO_T2_5,162,1,48,47,659051768
65,7,10,Ticks_ISO_T2_5,163,5,42,127,659074540
65,7,10,Ticks_ISO_T2_5,164,1,48,40,659566876
65,7,10,Ticks_ISO_T2_5,165,5,42,127,659574532
65,7,10,Ticks_ISO_T2_5,166,5,42,127,660073936
65,7,10,Ticks_ISO_T2_5,167,1,48,40,660076984
65,7,10,Ticks_ISO_T2_5,168,5,42,127,660573556
65,7,10,Ticks_ISO_T2_5,169,1,48,37,660621176
65,7,10,Ticks_ISO_T2_5,170,1,48,39,661065504
65,7,10,Ticks_ISO_T2_5,171,5,42,127,661074440
65,7,10,Ticks_ISO_T2_5,172,5,42,127,661574288
65,7,10,Ticks_ISO_T2_5,173,1,48,40,661613384
65,7,10,Ticks_ISO_T2_5,174,5,42,127,662073688
65,7,10,Ticks_ISO_T2_5,175,1,48,39,662079420
65,7,10,Ticks_ISO_T2_5,176,5,42,127,662573304
65,7,10,Ticks_ISO_T2_5,177,1,48,36,662594972
65,7,10,Ticks_ISO_T2_5,178,1,48,40,663070416
65,7,10,Ticks_ISO_T2_5,179,5,42,127,663074564
65,7,10,Ticks_ISO_T2_5,180,1,48,35,663564728
65,7,10,Ticks_ISO_T2_5,181,5,42,127,663573812
65,7,10,Ticks_ISO_T2_5,182,1,48,43,664065244
65,7,10,Ticks_ISO_T2_5,183,5,42,127,664073504
65,7,10,Ticks_ISO_T2_5,184,1,48,36,664571668
65,7,10,Ticks_ISO_T2_5,185,5,42,127,664574396
65,7,10,Ticks_ISO_T2_5,186,5,42,127,665074296
65,7,10,Ticks_ISO_T2_5,187,1,48,46,665090088
65,7,10,Ticks_ISO_T2_5,188,5,42,127,665573692
65,7,10,Ticks_ISO_T2_5,189,1,48,41,665578456
65,7,10,Ticks_ISO_T2_5,190,5,42,127,666073536
65,7,10,Ticks_ISO_T2_5,191,1,48,40,666080996
65,7,10,Ticks_ISO_T2_5,192,5,42,127,666574428
65,7,10,Ticks_ISO_T2_5,193,1,48,40,666593928
65,7,10,Ticks_ISO_T2_5,194,1,48,23,667063232
65,7,10,Ticks_ISO_T2_5,195,5,42,127,667074188
65,7,10,Ticks_ISO_T2_5,196,1,48,42,667571548
65,7,10,Ticks_ISO_T2_5,197,5,42,127,667573512
65,7,10,Ticks_ISO_T2_5,198,1,48,46,668072140
65,7,10,Ticks_ISO_T2_5,199,5,42,127,668074252
65,7,10,Ticks_ISO_T2_5,200,5,42,127,668574104
65,7,10,Ticks_ISO_T2_5,201,1,48,33,668578200
65,7,10,Ticks_ISO_T2_5,202,1,48,41,669062540
65,7,10,Ticks_ISO_T2_5,203,5,42,127,669073796
65,7,10,Ticks_ISO_T2_5,204,1,48,43,669537104
65,7,10,Ticks_ISO_T2_5,205,5,42,127,669573340
65,7,10,Ticks_ISO_T2_5,206,1,48,42,670043456
65,7,10,Ticks_ISO_T2_5,207,5,42,127,670074156
65,7,10,Ticks_ISO_T2_5,208,5,42,127,670574004
65,7,10,Ticks_ISO_T2_5,209,1,48,34,670599268
65,7,10,Ticks_ISO_T2_5,210,1,48,46,671031400
65,7,10,Ticks_ISO_T2_5,211,5,42,127,671073692
65,7,10,Ticks_ISO_T2_5,212,5,42,127,671574516
65,7,10,Ticks_ISO_T2_5,213,1,48,40,671578684
65,7,10,Ticks_ISO_T2_5,214,5,42,127,672074212
65,7,10,Ticks_ISO_T2_5,215,1,48,48,672077780
65,7,10,Ticks_ISO_T2_5,216,1,48,45,672537068
65,7,10,Ticks_ISO_T2_5,217,5,42,127,672573676
65,7,10,Ticks_ISO_T2_5,218,1,48,48,673032200
65,7,10,Ticks_ISO_T2_5,219,5,42,127,673073372
65,7,10,Ticks_ISO_T2_5,220,5,42,127,673574192
65,7,10,Ticks_ISO_T2_5,221,1,48,35,673625628
65,7,10,Ticks_ISO_T2_5,222,1,48,44,673997084
65,7,10,Ticks_ISO_T2_5,223,5,42,127,674074028
65,7,10,Ticks_ISO_T2_5,224,5,42,127,674573580
65,7,10,Ticks_ISO_T2_5,225,1,48,35,674578272
65,7,10,Ticks_ISO_T2_5,226,1,48,45,675045464
65,7,10,Ticks_ISO_T2_5,227,5,42,127,675074392
65,7,10,Ticks_ISO_T2_5,228,1,48,39,675543508
65,7,10,Ticks_ISO_T2_5,229,5,42,127,675574208
65,7,10,Ticks_ISO_T2_5,230,1,48,42,676058688
65,7,10,Ticks_ISO_T2_5,231,5,42,127,676073828
65,7,10,Ticks_ISO_T2_5,232,5,42,127,676573456
65,7,10,Ticks_ISO_T2_5,233,1,48,38,676577024
65,7,10,Ticks_ISO_T2_5,234,1,48,47,677056656
65,7,10,Ticks_ISO_T2_5,235,5,42,127,677074188
65,7,10,Ticks_ISO_T2_5,236,1,48,43,677566292
65,7,10,Ticks_ISO_T2_5,237,5,42,127,677574180
65,7,10,Ticks_ISO_T2_5,238,1,48,40,678053868
65,7,10,Ticks_ISO_T2_5,239,5,42,127,678073652
65,7,10,Ticks_ISO_T2_5,240,5,42,127,678573352
65,7,10,Ticks_ISO_T2_5,241,1,48,37,678595020
65,7,10,Ticks_ISO_T2_5,242,5,42,127,679074096
65,7,10,Ticks_ISO_T2_5,243,1,48,46,679097416
65,7,10,Ticks_ISO_T2_5,244,5,42,127,679574012
65,7,10,Ticks_ISO_T2_5,245,1,48,35,679576532
65,7,10,Ticks_ISO_T2_5,246,1,48,47,680071888
65,7,10,Ticks_ISO_T2_5,247,5,42,127,680073552
65,7,10,Ticks_ISO_T2_5,248,5,42,127,680574300
65,7,10,Ticks_ISO_T2_5,249,1,48,26,680594024
65,7,10,Ticks_ISO_T2_5,250,5,42,127,681074144
65,7,10,Ticks_ISO_T2_5,251,1,48,43,681097012
65,7,10,Ticks_ISO_T2_5,252,5,42,127,681573688
65,7,10,Ticks_ISO_T2_5,253,1,48,32,681604112
65,7,10,Ticks_ISO_T2_5,254,1,48,38,682071640
65,7,10,Ticks_ISO_T2_5,255,5,42,127,682073452
65,7,10,Ticks_ISO_T2_5,256,5,42,127,682574052
65,7,10,Ticks_ISO_T2_5,257,1,48,29,682595648
65,7,10,Ticks_ISO_T2_5,258,1,48,36,683070940
65,7,10,Ticks_ISO_T2_5,0,9999,9999,9999,618071108
65,7,10,Ticks_ISO_T2_5,1,9999,9999,9999,618571872
65,7,10,Ticks_ISO_T2_5,2,9999,9999,9999,619071588
65,7,10,Ticks_ISO_T2_5,3,9999,9999,9999,619571284
65,7,10,Ticks_ISO_T2_5,4,9999,9999,9999,620072024
65,7,10,Ticks_ISO_T2_5,5,9999,9999,9999,620571720
65,7,10,Ticks_ISO_T2_5,6,9999,9999,9999,621071416
65,7,10,Ticks_ISO_T2_5,7,9999,9999,9999,621571184
65,7,10,Ticks_ISO_T2_5,8,9999,9999,9999,622071900
65,7,10,Ticks_ISO_T2_5,9,9999,9999,9999,622571596
65,7,10,Ticks_ISO_T2_5,10,9999,9999,9999,623071288
65,7,10,Ticks_ISO_T2_5,11,9999,9999,9999,623572024
65,7,10,Ticks_ISO_T2_5,12,9999,9999,9999,624071800
65,7,10,Ticks_ISO_T2_5,13,9999,9999,9999,624571496
65,7,10,Ticks_ISO_T2_5,14,9999,9999,9999,625071224
65,7,10,Ticks_ISO_T2_5,15,9999,9999,9999,625571932
65,7,10,Ticks_ISO_T2_5,16,9999,9999,9999,626071628
65,7,10,Ticks_ISO_T2_5,17,9999,9999,9999,626571320
65,7,10,Ticks_ISO_T2_5,18,9999,9999,9999,627072060
65,7,10,Ticks_ISO_T2_5,19,9999,9999,9999,627571832
65,7,10,Ticks_ISO_T2_5,20,9999,9999,9999,628071524
65,7,10,Ticks_ISO_T2_5,21,9999,9999,9999,628571220
65,7,10,Ticks_ISO_T2_5,22,9999,9999,9999,629071980
65,7,10,Ticks_ISO_T2_5,23,9999,9999,9999,629571652
65,7,10,Ticks_ISO_T2_5,24,9999,9999,9999,630071344
65,7,10,Ticks_ISO_T2_5,25,9999,9999,9999,630571112
65,7,10,Ticks_ISO_T2_5,26,9999,9999,9999,631071856
65,7,10,Ticks_ISO_T2_5,27,9999,9999,9999,631571548
65,7,10,Ticks_ISO_T2_5,28,9999,9999,9999,632071244
65,7,10,Ticks_ISO_T2_5,29,9999,9999,9999,632571992
65,7,10,Ticks_ISO_T2_5,30,9999,9999,9999,633071736
65,7,10,Ticks_ISO_T2_5,31,9999,9999,9999,633571424
65,7,10,Ticks_ISO_T2_5,32,9999,9999,9999,634071124
65,7,10,Ticks_ISO_T2_5,33,9999,9999,9999,634571868
65,7,10,Ticks_ISO_T2_5,34,9999,9999,9999,635071560
65,7,10,Ticks_ISO_T2_5,35,9999,9999,9999,635571256
65,7,10,Ticks_ISO_T2_5,36,9999,9999,9999,636071996
65,7,10,Ticks_ISO_T2_5,37,9999,9999,9999,636571764
65,7,10,Ticks_ISO_T2_5,38,9999,9999,9999,637071452
65,7,10,Ticks_ISO_T2_5,39,9999,9999,9999,637571156
65,7,10,Ticks_ISO_T2_5,40,9999,9999,9999,638071896
65,7,10,Ticks_ISO_T2_5,41,9999,9999,9999,638571588
65,7,10,Ticks_ISO_T2_5,42,9999,9999,9999,639071284
65,7,10,Ticks_ISO_T2_5,43,9999,9999,9999,639572020
65,7,10,Ticks_ISO_T2_5,44,9999,9999,9999,640071788
65,7,10,Ticks_ISO_T2_5,45,9999,9999,9999,640571488
65,7,10,Ticks_ISO_T2_5,46,9999,9999,9999,641071180
65,7,10,Ticks_ISO_T2_5,47,9999,9999,9999,641571920
65,7,10,Ticks_ISO_T2_5,48,9999,9999,9999,642071624
65,7,10,Ticks_ISO_T2_5,49,9999,9999,9999,642571316
65,7,10,Ticks_ISO_T2_5,50,9999,9999,9999,643072076
65,7,10,Ticks_ISO_T2_5,51,9999,9999,9999,643571804
65,7,10,Ticks_ISO_T2_5,52,9999,9999,9999,644071496
65,7,10,Ticks_ISO_T2_5,53,9999,9999,9999,644571188
65,7,10,Ticks_ISO_T2_5,54,9999,9999,9999,645071936
65,7,10,Ticks_ISO_T2_5,55,9999,9999,9999,645571704
65,7,10,Ticks_ISO_T2_5,56,9999,9999,9999,646071396
65,7,10,Ticks_ISO_T2_5,57,9999,9999,9999,646571092
65,7,10,Ticks_ISO_T2_5,58,9999,9999,9999,647071836
65,7,10,Ticks_ISO_T2_5,59,9999,9999,9999,647571528
65,7,10,Ticks_ISO_T2_5,60,9999,9999,9999,648071224
65,7,10,Ticks_ISO_T2_5,61,9999,9999,9999,648571960
65,7,10,Ticks_ISO_T2_5,62,9999,9999,9999,649071736
65,7,10,Ticks_ISO_T2_5,63,9999,9999,9999,649571424
65,7,10,Ticks_ISO_T2_5,64,9999,9999,9999,650071120
65,7,10,Ticks_ISO_T2_5,65,9999,9999,9999,650571868
65,7,10,Ticks_ISO_T2_5,66,9999,9999,9999,651071556
65,7,10,Ticks_ISO_T2_5,67,9999,9999,9999,651571256
65,7,10,Ticks_ISO_T2_5,68,9999,9999,9999,652071996
65,7,10,Ticks_ISO_T2_5,69,9999,9999,9999,652571768
65,7,10,Ticks_ISO_T2_5,70,9999,9999,9999,653071460
65,7,10,Ticks_ISO_T2_5,71,9999,9999,9999,653571156
65,7,10,Ticks_ISO_T2_5,72,9999,9999,9999,654071892
65,7,10,Ticks_ISO_T2_5,73,9999,9999,9999,654571568
65,7,10,Ticks_ISO_T2_5,74,9999,9999,9999,655071332
65,7,10,Ticks_ISO_T2_5,75,9999,9999,9999,655572076
65,7,10,Ticks_ISO_T2_5,76,9999,9999,9999,656071776
65,7,10,Ticks_ISO_T2_5,77,9999,9999,9999,656571468
65,7,10,Ticks_ISO_T2_5,78,9999,9999,9999,657071156
65,7,10,Ticks_ISO_T2_5,79,9999,9999,9999,657571900
65,7,10,Ticks_ISO_T2_5,80,9999,9999,9999,658071668
65,7,10,Ticks_ISO_T2_5,81,9999,9999,9999,658571368
65,7,10,Ticks_ISO_T2_5,82,9999,9999,9999,659072104
65,7,10,Ticks_ISO_T2_5,83,9999,9999,9999,659571800
65,7,10,Ticks_ISO_T2_5,84,9999,9999,9999,660071500
65,7,10,Ticks_ISO_T2_5,85,9999,9999,9999,660571196
65,7,10,Ticks_ISO_T2_5,86,9999,9999,9999,661071932
65,7,10,Ticks_ISO_T2_5,87,9999,9999,9999,661571704
65,7,10,Ticks_ISO_T2_5,88,9999,9999,9999,662071400
65,7,10,Ticks_ISO_T2_5,89,9999,9999,9999,662571092
65,7,10,Ticks_ISO_T2_5,90,9999,9999,9999,663071832
65,7,10,Ticks_ISO_T2_5,91,9999,9999,9999,663571524
65,7,10,Ticks_ISO_T2_5,92,9999,9999,9999,664071220
65,7,10,Ticks_ISO_T2_5,93,9999,9999,9999,664571960
65,7,10,Ticks_ISO_T2_5,94,9999,9999,9999,665071712
65,7,10,Ticks_ISO_T2_5,95,9999,9999,9999,665571408
65,7,10,Ticks_ISO_T2_5,96,9999,9999,9999,666071100
65,7,10,Ticks_ISO_T2_5,97,9999,9999,9999,666571844
65,7,10,Ticks_ISO_T2_5,98,9999,9999,9999,667071604
65,7,10,Ticks_ISO_T2_5,99,9999,9999,9999,667571264
65,7,10,Ticks_ISO_T2_5,100,9999,9999,9999,668072004
65,7,10,Ticks_ISO_T2_5,101,9999,9999,9999,668571744
65,7,10,Ticks_ISO_T2_5,102,9999,9999,9999,669071432
65,7,10,Ticks_ISO_T2_5,103,9999,9999,9999,669571128
65,7,10,Ticks_ISO_T2_5,104,9999,9999,9999,670071868
65,7,10,Ticks_ISO_T2_5,105,9999,9999,9999,670571568
65,7,10,Ticks_ISO_T2_5,106,9999,9999,9999,671071332
65,7,10,Ticks_ISO_T2_5,107,9999,9999,9999,671572080
65,7,10,Ticks_ISO_T2_5,108,9999,9999,9999,672071776
65,7,10,Ticks_ISO_T2_5,109,9999,9999,9999,672571464
65,7,10,Ticks_ISO_T2_5,110,9999,9999,9999,673071160
65,7,10,Ticks_ISO_T2_5,111,9999,9999,9999,673571908
65,7,10,Ticks_ISO_T2_5,112,9999,9999,9999,674071668
65,7,10,Ticks_ISO_T2_5,113,9999,9999,9999,674571368
65,7,10,Ticks_ISO_T2_5,114,9999,9999,9999,675072104
65,7,10,Ticks_ISO_T2_5,115,9999,9999,9999,675571776
65,7,10,Ticks_ISO_T2_5,116,9999,9999,9999,676071544
65,7,10,Ticks_ISO_T2_5,117,9999,9999,9999,676571244
65,7,10,Ticks_ISO_T2_5,118,9999,9999,9999,677071976
65,7,10,Ticks_ISO_T2_5,119,9999,9999,9999,677571672
65,7,10,Ticks_ISO_T2_5,120,9999,9999,9999,678071368
65,7,10,Ticks_ISO_T2_5,121,9999,9999,9999,678571068
65,7,10,Ticks_ISO_T2_5,122,9999,9999,9999,679071808
65,7,10,Ticks_ISO_T2_5,123,9999,9999,9999,679571504
65,7,10,Ticks_ISO_T2_5,124,9999,9999,9999,680071288
65,7,10,Ticks_ISO_T2_5,125,9999,9999,9999,680572012
65,7,10,Ticks_ISO_T2_5,126,9999,9999,9999,681071708
65,7,10,Ticks_ISO_T2_5,127,9999,9999,9999,681571404
65,7,10,Ticks_ISO_T2_5,128,9999,9999,9999,682071116
65,7,10,Ticks_ISO_T2_5,129,9999,9999,9999,682571840
65,8,20,Ticks_Linear_8,0,5,42,127,694094088
65,8,20,Ticks_Linear_8,1,5,42,127,694914280
65,8,20,Ticks_Linear_8,2,5,42,127,695743828
65,8,20,Ticks_Linear_8,3,1,48,45,695825080
65,8,20,Ticks_Linear_8,4,1,48,42,696541712
65,8,20,Ticks_Linear_8,5,5,42,127,696563988
65,8,20,Ticks_Linear_8,6,5,42,127,697384312
65,8,20,Ticks_Linear_8,7,1,48,40,697386904
65,8,20,Ticks_Linear_8,8,1,48,42,698164968
65,8,20,Ticks_Linear_8,9,5,42,127,698194216
65,8,20,Ticks_Linear_8,10,1,48,29,698962820
65,8,20,Ticks_Linear_8,11,5,42,127,699004496
65,8,20,Ticks_Linear_8,12,1,48,39,699805080
65,8,20,Ticks_Linear_8,13,5,42,127,699814328
65,8,20,Ticks_Linear_8,14,1,48,38,700614612
65,8,20,Ticks_Linear_8,15,5,42,127,700624164
65,8,20,Ticks_Linear_8,16,1,48,39,701418528
65,8,20,Ticks_Linear_8,17,5,42,127,701434172
65,8,20,Ticks_Linear_8,18,1,48,44,702184404
65,8,20,Ticks_Linear_8,19,5,42,127,702233896
65,8,20,Ticks_Linear_8,20,1,48,44,703007968
65,8,20,Ticks_Linear_8,21,5,42,127,703033620
65,8,20,Ticks_Linear_8,22,5,42,127,703833648
65,8,20,Ticks_Linear_8,23,1,48,37,703901688
65,8,20,Ticks_Linear_8,24,5,42,127,704634196
65,8,20,Ticks_Linear_8,25,1,48,30,704655368
65,8,20,Ticks_Linear_8,26,5,42,127,705433996
65,8,20,Ticks_Linear_8,27,1,48,37,705460996
65,8,20,Ticks_Linear_8,28,5,42,127,706223608
65,8,20,Ticks_Linear_8,29,1,48,30,706224500
65,8,20,Ticks_Linear_8,30,5,42,127,707013896
65,8,20,Ticks_Linear_8,31,1,48,28,707020008
65,8,20,Ticks_Linear_8,32,1,48,29,707776276
65,8,20,Ticks_Linear_8,33,5,42,127,707803580
65,8,20,Ticks_Linear_8,34,5,42,127,708593948
65,8,20,Ticks_Linear_8,35,1,48,39,708596540
65,8,20,Ticks_Linear_8,36,1,48,24,709355352
65,8,20,Ticks_Linear_8,37,5,42,127,709383580
65,8,20,Ticks_Linear_8,38,5,42,127,710163688
65,8,20,Ticks_Linear_8,39,1,48,43,710187624
65,8,20,Ticks_Linear_8,40,5,42,127,710944088
65,8,20,Ticks_Linear_8,41,1,48,43,710959264
65,8,20,Ticks_Linear_8,42,1,48,35,711707896
65,8,20,Ticks_Linear_8,43,5,42,127,711724484
65,8,20,Ticks_Linear_8,44,5,42,127,712503696
65,8,20,Ticks_Linear_8,45,1,48,44,712568744
65,8,20,Ticks_Linear_8,46,5,42,127,713283952
65,8,20,Ticks_Linear_8,47,1,48,39,713331172
65,8,20,Ticks_Linear_8,48,1,48,43,714041620
65,8,20,Ticks_Linear_8,49,5,42,127,714053864
65,8,20,Ticks_Linear_8,50,1,48,41,714809732
65,8,20,Ticks_Linear_8,51,5,42,127,714824004
65,8,20,Ticks_Linear_8,52,1,48,41,715531656
65,8,20,Ticks_Linear_8,53,5,42,127,715594148
65,8,20,Ticks_Linear_8,54,1,48,39,716336840
65,8,20,Ticks_Linear_8,55,5,42,127,716364436
65,8,20,Ticks_Linear_8,56,1,48,35,717106388
65,8,20,Ticks_Linear_8,57,5,42,127,717134360
65,8,20,Ticks_Linear_8,58,1,48,42,717869784
65,8,20,Ticks_Linear_8,59,5,42,127,717894020
65,8,20,Ticks_Linear_8,60,1,48,35,718633716
65,8,20,Ticks_Linear_8,61,5,42,127,718653752
65,8,20,Ticks_Linear_8,62,1,48,31,719394424
65,8,20,Ticks_Linear_8,63,5,42,127,719413560
65,8,20,Ticks_Linear_8,64,5,42,127,720173524
65,8,20,Ticks_Linear_8,65,1,48,39,720182264
65,8,20,Ticks_Linear_8,66,1,48,37,720925048
65,8,20,Ticks_Linear_8,67,5,42,127,720934596
65,8,20,Ticks_Linear_8,68,1,48,43,721634060
65,8,20,Ticks_Linear_8,69,5,42,127,721683776
65,8,20,Ticks_Linear_8,70,5,42,127,722434452
65,8,20,Ticks_Linear_8,71,1,48,47,722439372
65,8,20,Ticks_Linear_8,72,1,48,41,723174424
65,8,20,Ticks_Linear_8,73,5,42,127,723194404
65,8,20,Ticks_Linear_8,74,1,48,32,723904196
65,8,20,Ticks_Linear_8,75,5,42,127,723943780
65,8,20,Ticks_Linear_8,76,1,48,35,724651136
65,8,20,Ticks_Linear_8,77,5,42,127,724694376
65,8,20,Ticks_Linear_8,78,1,48,38,725406512
65,8,20,Ticks_Linear_8,79,5,42,127,725433740
65,8,20,Ticks_Linear_8,80,5,42,127,726174088
65,8,20,Ticks_Linear_8,81,1,48,44,726194212
65,8,20,Ticks_Linear_8,82,1,48,36,726889812
65,8,20,Ticks_Linear_8,83,5,42,127,726914416
65,8,20,Ticks_Linear_8,84,1,48,49,727626032
65,8,20,Ticks_Linear_8,85,5,42,127,727664192
65,8,20,Ticks_Linear_8,86,1,48,50,728375360
65,8,20,Ticks_Linear_8,87,5,42,127,728404380
65,8,20,Ticks_Linear_8,88,1,48,40,729095704
65,8,20,Ticks_Linear_8,89,5,42,127,729133412
65,8,20,Ticks_Linear_8,90,1,48,41,729818412
65,8,20,Ticks_Linear_8,91,5,42,127,729863564
65,8,20,Ticks_Linear_8,92,1,48,45,730560168
65,8,20,Ticks_Linear_8,93,5,42,127,730593692
65,8,20,Ticks_Linear_8,94,1,48,40,731310544
65,8,20,Ticks_Linear_8,95,5,42,127,731323920
65,8,20,Ticks_Linear_8,96,1,48,37,732012248
65,8,20,Ticks_Linear_8,97,5,42,127,732053996
65,8,20,Ticks_Linear_8,98,5,42,127,732773676
65,8,20,Ticks_Linear_8,99,1,48,42,732827120
65,8,20,Ticks_Linear_8,100,5,42,127,733493716
65,8,20,Ticks_Linear_8,101,1,48,34,733505972
65,8,20,Ticks_Linear_8,102,1,48,38,734196792
65,8,20,Ticks_Linear_8,103,5,42,127,734213456
65,8,20,Ticks_Linear_8,104,1,48,37,734889320
65,8,20,Ticks_Linear_8,105,5,42,127,734934372
65,8,20,Ticks_Linear_8,106,1,48,33,735604276
65,8,20,Ticks_Linear_8,107,5,42,127,735654268
65,8,20,Ticks_Linear_8,108,1,48,27,736357944
65,8,20,Ticks_Linear_8,109,5,42,127,736363752
65,8,20,Ticks_Linear_8,110,1,48,33,737064656
65,8,20,Ticks_Linear_8,111,5,42,127,737073536
65,8,20,Ticks_Linear_8,112,1,48,36,737756892
65,8,20,Ticks_Linear_8,113,5,42,127,737784216
65,8,20,Ticks_Linear_8,114,5,42,127,738493980
65,8,20,Ticks_Linear_8,115,1,48,42,738567520
65,8,20,Ticks_Linear_8,116,1,48,47,739193312
65,8,20,Ticks_Linear_8,117,5,42,127,739203388
65,8,20,Ticks_Linear_8,118,5,42,127,739904112
65,8,20,Ticks_Linear_8,119,1,48,43,739924536
65,8,20,Ticks_Linear_8,120,5,42,127,740604388
65,8,20,Ticks_Linear_8,121,1,48,41,740619260
65,8,20,Ticks_Linear_8,122,5,42,127,741303736
65,8,20,Ticks_Linear_8,123,1,48,45,741329616
65,8,20,Ticks_Linear_8,124,5,42,127,742004008
65,8,20,Ticks_Linear_8,125,1,48,39,742011760
65,8,20,Ticks_Linear_8,126,1,48,39,742689104
65,8,20,Ticks_Linear_8,127,5,42,127,742703452
65,8,20,Ticks_Linear_8,128,1,48,37,743358500
65,8,20,Ticks_Linear_8,129,5,42,127,743393740
65,8,20,Ticks_Linear_8,130,5,42,127,744083984
65,8,20,Ticks_Linear_8,131,1,48,40,744164840
65,8,20,Ticks_Linear_8,132,5,42,127,744774072
65,8,20,Ticks_Linear_8,133,1,48,37,744785284
65,8,20,Ticks_Linear_8,134,5,42,127,745464160
65,8,20,Ticks_Linear_8,135,1,48,43,745467284
65,8,20,Ticks_Linear_8,136,5,42,127,746154300
65,8,20,Ticks_Linear_8,137,1,48,39,746164836
65,8,20,Ticks_Linear_8,138,1,48,34,746820520
65,8,20,Ticks_Linear_8,139,5,42,127,746834196
65,8,20,Ticks_Linear_8,140,5,42,127,747514184
65,8,20,Ticks_Linear_8,141,1,48,36,747529952
65,8,20,Ticks_Linear_8,142,1,48,41,748164056
65,8,20,Ticks_Linear_8,143,5,42,127,748194204
65,8,20,Ticks_Linear_8,144,1,48,43,748851756
65,8,20,Ticks_Linear_8,145,5,42,127,748874036
65,8,20,Ticks_Linear_8,146,1,48,41,749530800
65,8,20,Ticks_Linear_8,147,5,42,127,749553988
65,8,20,Ticks_Linear_8,148,1,48,40,750144960
65,8,20,Ticks_Linear_8,149,5,42,127,750223708
65,8,20,Ticks_Linear_8,150,1,48,43,750838792
65,8,20,Ticks_Linear_8,151,5,42,127,750893576
65,8,20,Ticks_Linear_8,152,1,48,39,751486020
65,8,20,Ticks_Linear_8,153,5,42,127,751564168
65,8,20,Ticks_Linear_8,154,1,48,45,752154692
65,8,20,Ticks_Linear_8,155,5,42,127,752234036
65,8,20,Ticks_Linear_8,156,1,48,43,752829920
65,8,20,Ticks_Linear_8,157,5,42,127,752903608
65,8,20,Ticks_Linear_8,158,1,48,34,753525404
65,8,20,Ticks_Linear_8,159,5,42,127,753563940
65,8,20,Ticks_Linear_8,160,1,48,41,754195576
65,8,20,Ticks_Linear_8,161,5,42,127,754223400
65,8,20,Ticks_Linear_8,162,1,48,44,754856132
65,8,20,Ticks_Linear_8,163,5,42,127,754883956
65,8,20,Ticks_Linear_8,164,1,48,39,755496120
65,8,20,Ticks_Linear_8,165,5,42,127,755544388
65,8,20,Ticks_Linear_8,166,1,48,38,756189024
65,8,20,Ticks_Linear_8,167,5,42,127,756214032
65,8,20,Ticks_Linear_8,168,1,48,43,756814344
65,8,20,Ticks_Linear_8,169,5,42,127,756864260
65,8,20,Ticks_Linear_8,170,1,48,31,757461040
65,8,20,Ticks_Linear_8,171,5,42,127,757513680
65,8,20,Ticks_Linear_8,172,1,48,30,758151740
65,8,20,Ticks_Linear_8,173,5,42,127,758163832
65,8,20,Ticks_Linear_8,174,1,48,31,758787232
65,8,20,Ticks_Linear_8,175,5,42,127,758814004
65,8,20,Ticks_Linear_8,176,1,48,35,759430556
65,8,20,Ticks_Linear_8,177,5,42,127,759464228
65,8,20,Ticks_Linear_8,178,1,48,44,760074000
65,8,20,Ticks_Linear_8,179,5,42,127,760104292
65,8,20,Ticks_Linear_8,180,5,42,127,760744188
65,8,20,Ticks_Linear_8,181,1,48,25,760752104
65,8,20,Ticks_Linear_8,182,5,42,127,761384252
65,8,20,Ticks_Linear_8,183,1,48,40,761387820
65,8,20,Ticks_Linear_8,184,5,42,127,762024292
65,8,20,Ticks_Linear_8,185,1,48,45,762035124
65,8,20,Ticks_Linear_8,186,5,42,127,762664208
65,8,20,Ticks_Linear_8,187,1,48,46,762671604
65,8,20,Ticks_Linear_8,188,1,48,35,763276036
65,8,20,Ticks_Linear_8,189,5,42,127,763294052
65,8,20,Ticks_Linear_8,190,5,42,127,763923940
65,8,20,Ticks_Linear_8,191,5,42,127,764553740
65,8,20,Ticks_Linear_8,192,1,48,55,764859348
65,8,20,Ticks_Linear_8,193,5,42,127,765184516
65,8,20,Ticks_Linear_8,194,1,48,44,765384820
65,8,20,Ticks_Linear_8,195,5,42,127,765814144
65,8,20,Ticks_Linear_8,196,1,48,48,765955236
65,8,20,Ticks_Linear_8,197,5,42,127,766433664
65,8,20,Ticks_Linear_8,198,1,48,45,766443604
65,8,20,Ticks_Linear_8,199,1,48,57,767009720
65,8,20,Ticks_Linear_8,200,5,42,127,767054176
65,8,20,Ticks_Linear_8,201,1,48,46,767588132
65,8,20,Ticks_Linear_8,202,5,42,127,767673700
65,8,20,Ticks_Linear_8,203,5,42,127,768294296
65,8,20,Ticks_Linear_8,204,1,48,47,768320776
65,8,20,Ticks_Linear_8,205,5,42,127,768913816
65,8,20,Ticks_Linear_8,206,1,48,43,768926372
65,8,20,Ticks_Linear_8,207,5,42,127,769524000
65,8,20,Ticks_Linear_8,208,1,48,54,769528764
65,8,20,Ticks_Linear_8,209,1,48,48,770119428
65,8,20,Ticks_Linear_8,210,5,42,127,770134452
65,8,20,Ticks_Linear_8,211,5,42,127,770743572
65,8,20,Ticks_Linear_8,212,1,48,44,770757320
65,8,20,Ticks_Linear_8,213,1,48,56,771336332
65,8,20,Ticks_Linear_8,214,5,42,127,771353896
65,8,20,Ticks_Linear_8,215,1,48,51,771926792
65,8,20,Ticks_Linear_8,216,5,42,127,771964500
65,8,20,Ticks_Linear_8,217,5,42,127,772564484
65,8,20,Ticks_Linear_8,218,1,48,38,772596608
65,8,20,Ticks_Linear_8,219,1,48,52,773146164
65,8,20,Ticks_Linear_8,220,5,42,127,773164628
65,8,20,Ticks_Linear_8,221,1,48,54,773761596
65,8,20,Ticks_Linear_8,222,5,42,127,773763556
65,8,20,Ticks_Linear_8,223,5,42,127,774363536
65,8,20,Ticks_Linear_8,224,1,48,45,774385756
65,8,20,Ticks_Linear_8,225,1,48,45,774945636
65,8,20,Ticks_Linear_8,226,5,42,127,774963656
65,8,20,Ticks_Linear_8,227,1,48,54,775536100
65,8,20,Ticks_Linear_8,228,5,42,127,775554640
65,8,20,Ticks_Linear_8,229,1,48,48,776149184
65,8,20,Ticks_Linear_8,230,5,42,127,776153644
65,8,20,Ticks_Linear_8,231,1,48,52,776688648
65,8,20,Ticks_Linear_8,232,5,42,127,776744576
65,8,20,Ticks_Linear_8,233,1,48,50,777302656
65,8,20,Ticks_Linear_8,234,5,42,127,777334068
65,8,20,Ticks_Linear_8,235,1,48,36,777911916
65,8,20,Ticks_Linear_8,236,5,42,127,777923860
65,8,20,Ticks_Linear_8,237,5,42,127,778503568
65,8,20,Ticks_Linear_8,238,1,48,46,778532304
65,8,20,Ticks_Linear_8,239,5,42,127,779084148
65,8,20,Ticks_Linear_8,240,1,48,52,779110480
65,8,20,Ticks_Linear_8,241,1,48,50,779646480
65,8,20,Ticks_Linear_8,242,5,42,127,779663596
65,8,20,Ticks_Linear_8,243,5,42,127,780244552
65,8,20,Ticks_Linear_8,244,1,48,56,780254716
65,8,20,Ticks_Linear_8,245,1,48,35,780293664
65,8,20,Ticks_Linear_8,246,1,48,48,780811540
65,8,20,Ticks_Linear_8,247,5,42,127,780823784
65,8,20,Ticks_Linear_8,248,1,48,57,781387692
65,8,20,Ticks_Linear_8,249,5,42,127,781394400
65,8,20,Ticks_Linear_8,250,1,48,52,781912340
65,8,20,Ticks_Linear_8,251,5,42,127,781963596
65,8,20,Ticks_Linear_8,252,1,48,55,782510132
65,8,20,Ticks_Linear_8,253,5,42,127,782533988
65,8,20,Ticks_Linear_8,254,5,42,127,783104416
65,8,20,Ticks_Linear_8,255,1,48,58,783121772
65,8,20,Ticks_Linear_8,256,5,42,127,783673688
65,8,20,Ticks_Linear_8,257,1,48,46,783684748
65,8,20,Ticks_Linear_8,258,1,48,54,784221872
65,8,20,Ticks_Linear_8,259,5,42,127,784233816
65,8,20,Ticks_Linear_8,260,1,48,49,784765524
65,8,20,Ticks_Linear_8,261,5,42,127,784793948
65,8,20,Ticks_Linear_8,262,1,48,50,785334500
65,8,20,Ticks_Linear_8,263,5,42,127,785354232
65,8,20,Ticks_Linear_8,264,1,48,51,785904440
65,8,20,Ticks_Linear_8,265,5,42,127,785914392
65,8,20,Ticks_Linear_8,266,1,48,39,786437936
65,8,20,Ticks_Linear_8,267,5,42,127,786474228
65,8,20,Ticks_Linear_8,268,5,42,127,787024256
65,8,20,Ticks_Linear_8,269,1,48,55,787045948
65,8,20,Ticks_Linear_8,270,5,42,127,787574356
65,8,20,Ticks_Linear_8,271,1,48,57,787595748
65,8,20,Ticks_Linear_8,272,5,42,127,788124228
65,8,20,Ticks_Linear_8,273,1,48,54,788133568
65,8,20,Ticks_Linear_8,274,5,42,127,788673804
65,8,20,Ticks_Linear_8,275,1,48,54,788676472
65,8,20,Ticks_Linear_8,276,1,48,55,789190520
65,8,20,Ticks_Linear_8,277,5,42,127,789223896
65,8,20,Ticks_Linear_8,278,5,42,127,789763396
65,8,20,Ticks_Linear_8,279,1,48,54,789812276
65,8,20,Ticks_Linear_8,280,5,42,127,790304132
65,8,20,Ticks_Linear_8,281,1,48,49,790305920
65,8,20,Ticks_Linear_8,282,5,42,127,790843748
65,8,20,Ticks_Linear_8,283,1,48,47,790901228
65,8,20,Ticks_Linear_8,284,1,48,47,791341756
65,8,20,Ticks_Linear_8,285,5,42,127,791384476
65,8,20,Ticks_Linear_8,286,1,48,41,791931308
65,8,20,Ticks_Linear_8,287,5,42,127,791934352
65,8,20,Ticks_Linear_8,288,5,42,127,792463716
65,8,20,Ticks_Linear_8,289,1,48,49,792478068
65,8,20,Ticks_Linear_8,290,1,48,44,792976244
65,8,20,Ticks_Linear_8,291,5,42,127,792994112
65,8,20,Ticks_Linear_8,292,1,48,42,793490548
65,8,20,Ticks_Linear_8,293,5,42,127,793523544
65,8,20,Ticks_Linear_8,294,1,48,44,794001940
65,8,20,Ticks_Linear_8,295,5,42,127,794054168
65,8,20,Ticks_Linear_8,296,1,48,44,794543644
65,8,20,Ticks_Linear_8,297,5,42,127,794584352
65,8,20,Ticks_Linear_8,298,1,48,46,795051736
65,8,20,Ticks_Linear_8,299,5,42,127,795113932
65,8,20,Ticks_Linear_8,300,5,42,127,795634256
65,8,20,Ticks_Linear_8,301,1,48,43,795651080
65,8,20,Ticks_Linear_8,302,5,42,127,796154176
65,8,20,Ticks_Linear_8,303,1,48,47,796194664
65,8,20,Ticks_Linear_8,304,1,48,42,796593372
65,8,20,Ticks_Linear_8,305,5,42,127,796674312
65,8,20,Ticks_Linear_8,306,1,48,41,797165480
65,8,20,Ticks_Linear_8,307,5,42,127,797204040
65,8,20,Ticks_Linear_8,308,1,48,39,797710060
65,8,20,Ticks_Linear_8,309,5,42,127,797714224
65,8,20,Ticks_Linear_8,310,1,48,43,798220844
65,8,20,Ticks_Linear_8,311,5,42,127,798223588
65,8,20,Ticks_Linear_8,312,1,48,33,798718008
65,8,20,Ticks_Linear_8,313,5,42,127,798733628
65,8,20,Ticks_Linear_8,314,1,48,45,799194320
65,8,20,Ticks_Linear_8,315,5,42,127,799243584
65,8,20,Ticks_Linear_8,316,1,48,41,799703384
65,8,20,Ticks_Linear_8,317,5,42,127,799753544
65,8,20,Ticks_Linear_8,318,1,48,44,800240068
65,8,20,Ticks_Linear_8,319,5,42,127,800254216
65,8,20,Ticks_Linear_8,320,1,48,42,800743448
65,8,20,Ticks_Linear_8,321,5,42,127,800754212
65,8,20,Ticks_Linear_8,322,1,48,44,801197384
65,8,20,Ticks_Linear_8,323,5,42,127,801253816
65,8,20,Ticks_Linear_8,324,1,48,40,801753668
65,8,20,Ticks_Linear_8,325,5,42,127,801754932
65,8,20,Ticks_Linear_8,326,1,48,42,802220964
65,8,20,Ticks_Linear_8,327,5,42,127,802254188
65,8,20,Ticks_Linear_8,328,1,48,44,802690784
65,8,20,Ticks_Linear_8,329,5,42,127,802743628
65,8,20,Ticks_Linear_8,330,1,48,45,803185848
65,8,20,Ticks_Linear_8,331,5,42,127,803234044
65,8,20,Ticks_Linear_8,332,1,48,40,803682708
65,8,20,Ticks_Linear_8,333,5,42,127,803723560
65,8,20,Ticks_Linear_8,334,1,48,43,804139712
65,8,20,Ticks_Linear_8,335,5,42,127,804214268
65,8,20,Ticks_Linear_8,336,1,48,46,804626540
65,8,20,Ticks_Linear_8,337,5,42,127,804703488
65,8,20,Ticks_Linear_8,0,9999,9999,9999,694091864
65,8,20,Ticks_Linear_8,1,9999,9999,9999,694912052
65,8,20,Ticks_Linear_8,2,9999,9999,9999,695741532
65,8,20,Ticks_Linear_8,3,9999,9999,9999,696561764
65,8,20,Ticks_Linear_8,4,9999,9999,9999,697382012
65,8,20,Ticks_Linear_8,5,9999,9999,9999,698191992
65,8,20,Ticks_Linear_8,6,9999,9999,9999,699001976
65,8,20,Ticks_Linear_8,7,9999,9999,9999,699811956
65,8,20,Ticks_Linear_8,8,9999,9999,9999,700621940
65,8,20,Ticks_Linear_8,9,9999,9999,9999,701431872
65,8,20,Ticks_Linear_8,10,9999,9999,9999,702231672
65,8,20,Ticks_Linear_8,11,9999,9999,9999,703031396
65,8,20,Ticks_Linear_8,12,9999,9999,9999,703831128
65,8,20,Ticks_Linear_8,13,9999,9999,9999,704631896
65,8,20,Ticks_Linear_8,14,9999,9999,9999,705431620
65,8,20,Ticks_Linear_8,15,9999,9999,9999,706221160
65,8,20,Ticks_Linear_8,16,9999,9999,9999,707011672
65,8,20,Ticks_Linear_8,17,9999,9999,9999,707801204
65,8,20,Ticks_Linear_8,18,9999,9999,9999,708591724
65,8,20,Ticks_Linear_8,19,9999,9999,9999,709381204
65,8,20,Ticks_Linear_8,20,9999,9999,9999,710161464
65,8,20,Ticks_Linear_8,21,9999,9999,9999,710941792
65,8,20,Ticks_Linear_8,22,9999,9999,9999,711722036
65,8,20,Ticks_Linear_8,23,9999,9999,9999,712501324
65,8,20,Ticks_Linear_8,24,9999,9999,9999,713281652
65,8,20,Ticks_Linear_8,25,9999,9999,9999,714051640
65,8,20,Ticks_Linear_8,26,9999,9999,9999,714821708
65,8,20,Ticks_Linear_8,27,9999,9999,9999,715591776
65,8,20,Ticks_Linear_8,28,9999,9999,9999,716361844
65,8,20,Ticks_Linear_8,29,9999,9999,9999,717131836
65,8,20,Ticks_Linear_8,30,9999,9999,9999,717891644
65,8,20,Ticks_Linear_8,31,9999,9999,9999,718651452
65,8,20,Ticks_Linear_8,32,9999,9999,9999,719411260
65,8,20,Ticks_Linear_8,33,9999,9999,9999,720171076
65,8,20,Ticks_Linear_8,34,9999,9999,9999,720931924
65,8,20,Ticks_Linear_8,35,9999,9999,9999,721681476
65,8,20,Ticks_Linear_8,36,9999,9999,9999,722432080
65,8,20,Ticks_Linear_8,37,9999,9999,9999,723191884
65,8,20,Ticks_Linear_8,38,9999,9999,9999,723941480
65,8,20,Ticks_Linear_8,39,9999,9999,9999,724692076
65,8,20,Ticks_Linear_8,40,9999,9999,9999,725431368
65,8,20,Ticks_Linear_8,41,9999,9999,9999,726171716
65,8,20,Ticks_Linear_8,42,9999,9999,9999,726912120
65,8,20,Ticks_Linear_8,43,9999,9999,9999,727661668
65,8,20,Ticks_Linear_8,44,9999,9999,9999,728402008
65,8,20,Ticks_Linear_8,45,9999,9999,9999,729131116
65,8,20,Ticks_Linear_8,46,9999,9999,9999,729861192
65,8,20,Ticks_Linear_8,47,9999,9999,9999,730591320
65,8,20,Ticks_Linear_8,48,9999,9999,9999,731321472
65,8,20,Ticks_Linear_8,49,9999,9999,9999,732051548
65,8,20,Ticks_Linear_8,50,9999,9999,9999,732771452
65,8,20,Ticks_Linear_8,51,9999,9999,9999,733491272
65,8,20,Ticks_Linear_8,52,9999,9999,9999,734211160
65,8,20,Ticks_Linear_8,53,9999,9999,9999,734932072
65,8,20,Ticks_Linear_8,54,9999,9999,9999,735651968
65,8,20,Ticks_Linear_8,55,9999,9999,9999,736361528
65,8,20,Ticks_Linear_8,56,9999,9999,9999,737071164
65,8,20,Ticks_Linear_8,57,9999,9999,9999,737781844
65,8,20,Ticks_Linear_8,58,9999,9999,9999,738491460
65,8,20,Ticks_Linear_8,59,9999,9999,9999,739201088
65,8,20,Ticks_Linear_8,60,9999,9999,9999,739901516
65,8,20,Ticks_Linear_8,61,9999,9999,9999,740601940
65,8,20,Ticks_Linear_8,62,9999,9999,9999,741301364
65,8,20,Ticks_Linear_8,63,9999,9999,9999,742001784
65,8,20,Ticks_Linear_8,64,9999,9999,9999,742701156
65,8,20,Ticks_Linear_8,65,9999,9999,9999,743391292
65,8,20,Ticks_Linear_8,66,9999,9999,9999,744081464
65,8,20,Ticks_Linear_8,67,9999,9999,9999,744771700
65,8,20,Ticks_Linear_8,68,9999,9999,9999,745461864
65,8,20,Ticks_Linear_8,69,9999,9999,9999,746152004
65,8,20,Ticks_Linear_8,70,9999,9999,9999,746831972
65,8,20,Ticks_Linear_8,71,9999,9999,9999,747511884
65,8,20,Ticks_Linear_8,72,9999,9999,9999,748191832
65,8,20,Ticks_Linear_8,73,9999,9999,9999,748871736
65,8,20,Ticks_Linear_8,74,9999,9999,9999,749551688
65,8,20,Ticks_Linear_8,75,9999,9999,9999,750221408
65,8,20,Ticks_Linear_8,76,9999,9999,9999,750891128
65,8,20,Ticks_Linear_8,77,9999,9999,9999,751561796
65,8,20,Ticks_Linear_8,78,9999,9999,9999,752231512
65,8,20,Ticks_Linear_8,79,9999,9999,9999,752901232
65,8,20,Ticks_Linear_8,80,9999,9999,9999,753561716
65,8,20,Ticks_Linear_8,81,9999,9999,9999,754221176
65,8,20,Ticks_Linear_8,82,9999,9999,9999,754881660
65,8,20,Ticks_Linear_8,83,9999,9999,9999,755542092
65,8,20,Ticks_Linear_8,84,9999,9999,9999,756211808
65,8,20,Ticks_Linear_8,85,9999,9999,9999,756862032
65,8,20,Ticks_Linear_8,86,9999,9999,9999,757511236
65,8,20,Ticks_Linear_8,87,9999,9999,9999,758161532
65,8,20,Ticks_Linear_8,88,9999,9999,9999,758811708
65,8,20,Ticks_Linear_8,89,9999,9999,9999,759462004
65,8,20,Ticks_Linear_8,90,9999,9999,9999,760101996
65,8,20,Ticks_Linear_8,91,9999,9999,9999,760741964
65,8,20,Ticks_Linear_8,92,9999,9999,9999,761381952
65,8,20,Ticks_Linear_8,93,9999,9999,9999,762021992
65,8,20,Ticks_Linear_8,94,9999,9999,9999,762661980
65,8,20,Ticks_Linear_8,95,9999,9999,9999,763291756
65,8,20,Ticks_Linear_8,96,9999,9999,9999,763921492
65,8,20,Ticks_Linear_8,97,9999,9999,9999,764551292
65,8,20,Ticks_Linear_8,98,9999,9999,9999,765182068
65,8,20,Ticks_Linear_8,99,9999,9999,9999,765811772
65,8,20,Ticks_Linear_8,100,9999,9999,9999,766431292
65,8,20,Ticks_Linear_8,101,9999,9999,9999,767051880
65,8,20,Ticks_Linear_8,102,9999,9999,9999,767671400
65,8,20,Ticks_Linear_8,103,9999,9999,9999,768291924
65,8,20,Ticks_Linear_8,104,9999,9999,9999,768911444
65,8,20,Ticks_Linear_8,105,9999,9999,9999,769521776
65,8,20,Ticks_Linear_8,106,9999,9999,9999,770132080
65,8,20,Ticks_Linear_8,107,9999,9999,9999,770741344
65,8,20,Ticks_Linear_8,108,9999,9999,9999,771351672
65,8,20,Ticks_Linear_8,109,9999,9999,9999,771961976
65,8,20,Ticks_Linear_8,110,9999,9999,9999,772562036
65,8,20,Ticks_Linear_8,111,9999,9999,9999,773162108
65,8,20,Ticks_Linear_8,112,9999,9999,9999,773761132
65,8,20,Ticks_Linear_8,113,9999,9999,9999,774361164
65,8,20,Ticks_Linear_8,114,9999,9999,9999,774961208
65,8,20,Ticks_Linear_8,115,9999,9999,9999,775552116
65,8,20,Ticks_Linear_8,116,9999,9999,9999,776151120
65,8,20,Ticks_Linear_8,117,9999,9999,9999,776741980
65,8,20,Ticks_Linear_8,118,9999,9999,9999,777331772
65,8,20,Ticks_Linear_8,119,9999,9999,9999,777921636
65,8,20,Ticks_Linear_8,120,9999,9999,9999,778501196
65,8,20,Ticks_Linear_8,121,9999,9999,9999,779081848
65,8,20,Ticks_Linear_8,122,9999,9999,9999,779661372
65,8,20,Ticks_Linear_8,123,9999,9999,9999,780242032
65,8,20,Ticks_Linear_8,124,9999,9999,9999,780821560
65,8,20,Ticks_Linear_8,125,9999,9999,9999,781391952
65,8,20,Ticks_Linear_8,126,9999,9999,9999,781961300
65,8,20,Ticks_Linear_8,127,9999,9999,9999,782531692
65,8,20,Ticks_Linear_8,128,9999,9999,9999,783102040
65,8,20,Ticks_Linear_8,129,9999,9999,9999,783671388
65,8,20,Ticks_Linear_8,130,9999,9999,9999,784231516
65,8,20,Ticks_Linear_8,131,9999,9999,9999,784791652
65,8,20,Ticks_Linear_8,132,9999,9999,9999,785351784
65,8,20,Ticks_Linear_8,133,9999,9999,9999,785911868
65,8,20,Ticks_Linear_8,134,9999,9999,9999,786472000
65,8,20,Ticks_Linear_8,135,9999,9999,9999,787021884
65,8,20,Ticks_Linear_8,136,9999,9999,9999,787571832
65,8,20,Ticks_Linear_8,137,9999,9999,9999,788121708
65,8,20,Ticks_Linear_8,138,9999,9999,9999,788671580
65,8,20,Ticks_Linear_8,139,9999,9999,9999,789221448
65,8,20,Ticks_Linear_8,140,9999,9999,9999,789761096
65,8,20,Ticks_Linear_8,141,9999,9999,9999,790301760
65,8,20,Ticks_Linear_8,142,9999,9999,9999,790841448
65,8,20,Ticks_Linear_8,143,9999,9999,9999,791382104
65,8,20,Ticks_Linear_8,144,9999,9999,9999,791931980
65,8,20,Ticks_Linear_8,145,9999,9999,9999,792461416
65,8,20,Ticks_Linear_8,146,9999,9999,9999,792991812
65,8,20,Ticks_Linear_8,147,9999,9999,9999,793521244
65,8,20,Ticks_Linear_8,148,9999,9999,9999,794051648
65,8,20,Ticks_Linear_8,149,9999,9999,9999,794582124
65,8,20,Ticks_Linear_8,150,9999,9999,9999,795111484
65,8,20,Ticks_Linear_8,151,9999,9999,9999,795631708
65,8,20,Ticks_Linear_8,152,9999,9999,9999,796151876
65,8,20,Ticks_Linear_8,153,9999,9999,9999,796672088
65,8,20,Ticks_Linear_8,154,9999,9999,9999,797201520
65,8,20,Ticks_Linear_8,155,9999,9999,9999,797711480
65,8,20,Ticks_Linear_8,156,9999,9999,9999,798221364
65,8,20,Ticks_Linear_8,157,9999,9999,9999,798731328
65,8,20,Ticks_Linear_8,158,9999,9999,9999,799241288
65,8,20,Ticks_Linear_8,159,9999,9999,9999,799751244
65,8,20,Ticks_Linear_8,160,9999,9999,9999,800251992
65,8,20,Ticks_Linear_8,161,9999,9999,9999,800751740
65,8,20,Ticks_Linear_8,162,9999,9999,9999,801251440
65,8,20,Ticks_Linear_8,163,9999,9999,9999,801751148
65,8,20,Ticks_Linear_8,164,9999,9999,9999,802251888
65,8,20,Ticks_Linear_8,165,9999,9999,9999,802741332
65,8,20,Ticks_Linear_8,166,9999,9999,9999,803231816
65,8,20,Ticks_Linear_8,167,9999,9999,9999,803721336
65,8,20,Ticks_Linear_8,168,9999,9999,9999,804211820
65,8,20,Ticks_Linear_8,169,9999,9999,9999,804701264
65,9,21,Ticks_Linear_5,0,5,42,127,815343048
65,9,21,Ticks_Linear_5,1,5,42,127,815823224
65,9,21,Ticks_Linear_5,2,5,42,127,816302504
65,9,21,Ticks_Linear_5,3,1,48,41,816319848
65,9,21,Ticks_Linear_5,4,5,42,127,816782880
65,9,21,Ticks_Linear_5,5,1,48,44,816790336
65,9,21,Ticks_Linear_5,6,5,42,127,817262888
65,9,21,Ticks_Linear_5,7,1,48,37,817273272
65,9,21,Ticks_Linear_5,8,1,48,41,817728832
65,9,21,Ticks_Linear_5,9,5,42,127,817752544
65,9,21,Ticks_Linear_5,10,1,48,41,818215504
65,9,21,Ticks_Linear_5,11,5,42,127,818242956
65,9,21,Ticks_Linear_5,12,1,48,47,818694084
65,9,21,Ticks_Linear_5,13,5,42,127,818733444
65,9,21,Ticks_Linear_5,14,1,48,48,819184052
65,9,21,Ticks_Linear_5,15,5,42,127,819233068
65,9,21,Ticks_Linear_5,16,1,48,47,819672572
65,9,21,Ticks_Linear_5,17,5,42,127,819722880
65,9,21,Ticks_Linear_5,18,1,48,49,820155864
65,9,21,Ticks_Linear_5,19,5,42,127,820223256
65,9,21,Ticks_Linear_5,20,1,48,52,820695700
65,9,21,Ticks_Linear_5,21,5,42,127,820723104
65,9,21,Ticks_Linear_5,22,1,48,46,821166200
65,9,21,Ticks_Linear_5,23,5,42,127,821222928
65,9,21,Ticks_Linear_5,24,1,48,46,821690300
65,9,21,Ticks_Linear_5,25,5,42,127,821722700
65,9,21,Ticks_Linear_5,26,1,48,45,822194800
65,9,21,Ticks_Linear_5,27,5,42,127,822223300
65,9,21,Ticks_Linear_5,28,5,42,127,822733116
65,9,21,Ticks_Linear_5,29,1,48,46,822742004
65,9,21,Ticks_Linear_5,30,1,48,47,823238156
65,9,21,Ticks_Linear_5,31,5,42,127,823243140
65,9,21,Ticks_Linear_5,32,1,48,46,823721092
65,9,21,Ticks_Linear_5,33,5,42,127,823753024
65,9,21,Ticks_Linear_5,34,1,48,37,824234040
65,9,21,Ticks_Linear_5,35,5,42,127,824263060
65,9,21,Ticks_Linear_5,36,1,48,46,824758072
65,9,21,Ticks_Linear_5,37,5,42,127,824772872
65,9,21,Ticks_Linear_5,38,1,48,33,825219356
65,9,21,Ticks_Linear_5,39,5,42,127,825293240
65,9,21,Ticks_Linear_5,40,1,48,49,825780996
65,9,21,Ticks_Linear_5,41,5,42,127,825813308
65,9,21,Ticks_Linear_5,42,1,48,45,826288476
65,9,21,Ticks_Linear_5,43,5,42,127,826332628
65,9,21,Ticks_Linear_5,44,5,42,127,826852928
65,9,21,Ticks_Linear_5,45,1,48,46,826863644
65,9,21,Ticks_Linear_5,46,1,48,35,827338048
65,9,21,Ticks_Linear_5,47,5,42,127,827373064
65,9,21,Ticks_Linear_5,48,1,48,44,827868728
65,9,21,Ticks_Linear_5,49,5,42,127,827903544
65,9,21,Ticks_Linear_5,50,1,48,35,828432460
65,9,21,Ticks_Linear_5,51,5,42,127,828433944
65,9,21,Ticks_Linear_5,52,1,48,45,828936228
65,9,21,Ticks_Linear_5,53,5,42,127,828963376
65,9,21,Ticks_Linear_5,54,1,48,31,829481612
65,9,21,Ticks_Linear_5,55,5,42,127,829492732
65,9,21,Ticks_Linear_5,56,1,48,45,830008488
65,9,21,Ticks_Linear_5,57,5,42,127,830022988
65,9,21,Ticks_Linear_5,58,1,48,40,830503400
65,9,21,Ticks_Linear_5,59,5,42,127,830562676
65,9,21,Ticks_Linear_5,60,1,48,47,831097156
65,9,21,Ticks_Linear_5,61,5,42,127,831103484
65,9,21,Ticks_Linear_5,62,1,48,38,831595956
65,9,21,Ticks_Linear_5,63,5,42,127,831642880
65,9,21,Ticks_Linear_5,64,5,42,127,832182724
65,9,21,Ticks_Linear_5,65,1,48,42,832201720
65,9,21,Ticks_Linear_5,66,5,42,127,832723460
65,9,21,Ticks_Linear_5,67,1,48,37,832754092
65,9,21,Ticks_Linear_5,68,1,48,46,833244080
65,9,21,Ticks_Linear_5,69,5,42,127,833273204
65,9,21,Ticks_Linear_5,70,1,48,40,833780196
65,9,21,Ticks_Linear_5,71,5,42,127,833823152
65,9,21,Ticks_Linear_5,72,1,48,42,834268112
65,9,21,Ticks_Linear_5,73,5,42,127,834372936
65,9,21,Ticks_Linear_5,74,1,48,36,834898144
65,9,21,Ticks_Linear_5,75,5,42,127,834922824
65,9,21,Ticks_Linear_5,76,1,48,46,835403912
65,9,21,Ticks_Linear_5,77,5,42,127,835472700
65,9,21,Ticks_Linear_5,78,1,48,38,835967040
65,9,21,Ticks_Linear_5,79,5,42,127,836032832
65,9,21,Ticks_Linear_5,80,1,48,45,836511600
65,9,21,Ticks_Linear_5,81,5,42,127,836593140
65,9,21,Ticks_Linear_5,82,1,48,38,837057272
65,9,21,Ticks_Linear_5,83,5,42,127,837153036
65,9,21,Ticks_Linear_5,84,1,48,42,837625816
65,9,21,Ticks_Linear_5,85,5,42,127,837713480
65,9,21,Ticks_Linear_5,86,1,48,40,838194420
65,9,21,Ticks_Linear_5,87,5,42,127,838273836
65,9,21,Ticks_Linear_5,88,1,48,40,838783760
65,9,21,Ticks_Linear_5,89,5,42,127,838842884
65,9,21,Ticks_Linear_5,90,1,48,36,839386204
65,9,21,Ticks_Linear_5,91,5,42,127,839413228
65,9,21,Ticks_Linear_5,92,1,48,40,839954000
65,9,21,Ticks_Linear_5,93,5,42,127,839982424
65,9,21,Ticks_Linear_5,94,1,48,37,840535696
65,9,21,Ticks_Linear_5,95,5,42,127,840552740
65,9,21,Ticks_Linear_5,96,1,48,41,841088196
65,9,21,Ticks_Linear_5,97,5,42,127,841123060
65,9,21,Ticks_Linear_5,98,1,48,31,841635372
65,9,21,Ticks_Linear_5,99,5,42,127,841702740
65,9,21,Ticks_Linear_5,100,5,42,127,842283572
65,9,21,Ticks_Linear_5,101,1,48,43,842333872
65,9,21,Ticks_Linear_5,102,1,48,36,842845680
65,9,21,Ticks_Linear_5,103,5,42,127,842863096
65,9,21,Ticks_Linear_5,104,1,48,41,843397948
65,9,21,Ticks_Linear_5,105,5,42,127,843442552
65,9,21,Ticks_Linear_5,106,1,48,37,843977476
65,9,21,Ticks_Linear_5,107,5,42,127,844023376
65,9,21,Ticks_Linear_5,108,1,48,43,844538532
65,9,21,Ticks_Linear_5,109,5,42,127,844612944
65,9,21,Ticks_Linear_5,110,1,48,35,845179924
65,9,21,Ticks_Linear_5,111,5,42,127,845202808
65,9,21,Ticks_Linear_5,112,1,48,37,845758176
65,9,21,Ticks_Linear_5,113,5,42,127,845792524
65,9,21,Ticks_Linear_5,114,1,48,36,846318640
65,9,21,Ticks_Linear_5,115,5,42,127,846382412
65,9,21,Ticks_Linear_5,116,5,42,127,846973476
65,9,21,Ticks_Linear_5,117,1,48,42,846980796
65,9,21,Ticks_Linear_5,118,1,48,32,847522860
65,9,21,Ticks_Linear_5,119,5,42,127,847573372
65,9,21,Ticks_Linear_5,120,1,48,40,848161352
65,9,21,Ticks_Linear_5,121,5,42,127,848173444
65,9,21,Ticks_Linear_5,122,1,48,34,848764316
65,9,21,Ticks_Linear_5,123,5,42,127,848782852
65,9,21,Ticks_Linear_5,124,1,48,40,849323700
65,9,21,Ticks_Linear_5,125,5,42,127,849382752
65,9,21,Ticks_Linear_5,126,1,48,35,849983056
65,9,21,Ticks_Linear_5,127,5,42,127,849984392
65,9,21,Ticks_Linear_5,128,1,48,40,850552956
65,9,21,Ticks_Linear_5,129,5,42,127,850593432
65,9,21,Ticks_Linear_5,130,5,42,127,851202500
65,9,21,Ticks_Linear_5,131,1,48,38,851203836
65,9,21,Ticks_Linear_5,132,1,48,43,851795684
65,9,21,Ticks_Linear_5,133,5,42,127,851812800
65,9,21,Ticks_Linear_5,134,1,48,34,852399176
65,9,21,Ticks_Linear_5,135,5,42,127,852423256
65,9,21,Ticks_Linear_5,136,1,48,38,853005240
65,9,21,Ticks_Linear_5,137,5,42,127,853033364
65,9,21,Ticks_Linear_5,138,1,48,27,853618844
65,9,21,Ticks_Linear_5,139,5,42,127,853652736
65,9,21,Ticks_Linear_5,140,5,42,127,854273336
65,9,21,Ticks_Linear_5,141,1,48,36,854279596
65,9,21,Ticks_Linear_5,142,1,48,38,854857984
65,9,21,Ticks_Linear_5,143,5,42,127,854892996
65,9,21,Ticks_Linear_5,144,1,48,36,855470160
65,9,21,Ticks_Linear_5,145,5,42,127,855512444
65,9,21,Ticks_Linear_5,146,1,48,32,856090152
65,9,21,Ticks_Linear_5,147,5,42,127,856133184
65,9,21,Ticks_Linear_5,148,1,48,44,856690348
65,9,21,Ticks_Linear_5,149,5,42,127,856762664
65,9,21,Ticks_Linear_5,150,1,48,38,857357752
65,9,21,Ticks_Linear_5,151,5,42,127,857392468
65,9,21,Ticks_Linear_5,152,1,48,42,857967608
65,9,21,Ticks_Linear_5,153,5,42,127,858023144
65,9,21,Ticks_Linear_5,154,1,48,32,858572232
65,9,21,Ticks_Linear_5,155,5,42,127,858653172
65,9,21,Ticks_Linear_5,156,1,48,47,859168700
65,9,21,Ticks_Linear_5,157,5,42,127,859282936
65,9,21,Ticks_Linear_5,158,5,42,127,859922796
65,9,21,Ticks_Linear_5,159,1,48,39,859936928
65,9,21,Ticks_Linear_5,160,5,42,127,860562912
65,9,21,Ticks_Linear_5,161,1,48,43,860565584
65,9,21,Ticks_Linear_5,162,1,48,37,861164184
65,9,21,Ticks_Linear_5,163,5,42,127,861202968
65,9,21,Ticks_Linear_5,164,1,48,41,861777584
65,9,21,Ticks_Linear_5,165,5,42,127,861842856
65,9,21,Ticks_Linear_5,166,1,48,35,862414776
65,9,21,Ticks_Linear_5,167,5,42,127,862482768
65,9,21,Ticks_Linear_5,168,1,48,42,863052976
65,9,21,Ticks_Linear_5,169,5,42,127,863132992
65,9,21,Ticks_Linear_5,170,1,48,36,863719216
65,9,21,Ticks_Linear_5,171,5,42,127,863783388
65,9,21,Ticks_Linear_5,172,5,42,127,864432572
65,9,21,Ticks_Linear_5,173,1,48,46,864499512
65,9,21,Ticks_Linear_5,174,1,48,36,865036936
65,9,21,Ticks_Linear_5,175,5,42,127,865082740
65,9,21,Ticks_Linear_5,176,1,48,43,865684020
65,9,21,Ticks_Linear_5,177,5,42,127,865733036
65,9,21,Ticks_Linear_5,178,1,48,35,866277476
65,9,21,Ticks_Linear_5,179,5,42,127,866392332
65,9,21,Ticks_Linear_5,180,1,48,44,867047692
65,9,21,Ticks_Linear_5,181,5,42,127,867053124
65,9,21,Ticks_Linear_5,182,1,48,39,867712864
65,9,21,Ticks_Linear_5,183,5,42,127,867714356
65,9,21,Ticks_Linear_5,184,1,48,40,868311452
65,9,21,Ticks_Linear_5,185,5,42,127,868373140
65,9,21,Ticks_Linear_5,186,1,48,29,868978312
65,9,21,Ticks_Linear_5,187,5,42,127,869033400
65,9,21,Ticks_Linear_5,188,1,48,43,869630728
65,9,21,Ticks_Linear_5,189,5,42,127,869703120
65,9,21,Ticks_Linear_5,190,1,48,32,870355172
65,9,21,Ticks_Linear_5,191,5,42,127,870373108
65,9,21,Ticks_Linear_5,192,1,48,41,871009232
65,9,21,Ticks_Linear_5,193,5,42,127,871042380
65,9,21,Ticks_Linear_5,194,1,48,40,871622100
65,9,21,Ticks_Linear_5,195,5,42,127,871713072
65,9,21,Ticks_Linear_5,196,1,48,45,872339136
65,9,21,Ticks_Linear_5,197,5,42,127,872383068
65,9,21,Ticks_Linear_5,198,1,48,29,873001080
65,9,21,Ticks_Linear_5,199,5,42,127,873063044
65,9,21,Ticks_Linear_5,200,1,48,44,873683572
65,9,21,Ticks_Linear_5,201,5,42,127,873742796
65,9,21,Ticks_Linear_5,202,1,48,36,874364596
65,9,21,Ticks_Linear_5,203,5,42,127,874422676
65,9,21,Ticks_Linear_5,204,1,48,45,875048992
65,9,21,Ticks_Linear_5,205,5,42,127,875102728
65,9,21,Ticks_Linear_5,206,1,48,33,875737032
65,9,21,Ticks_Linear_5,207,5,42,127,875782484
65,9,21,Ticks_Linear_5,208,1,48,36,876372904
65,9,21,Ticks_Linear_5,209,5,42,127,876472828
65,9,21,Ticks_Linear_5,210,1,48,33,877029784
65,9,21,Ticks_Linear_5,211,5,42,127,877162768
65,9,21,Ticks_Linear_5,212,1,48,44,877823176
65,9,21,Ticks_Linear_5,213,5,42,127,877853096
65,9,21,Ticks_Linear_5,214,1,48,33,878477064
65,9,21,Ticks_Linear_5,215,5,42,127,878543160
65,9,21,Ticks_Linear_5,216,1,48,43,879167604
65,9,21,Ticks_Linear_5,217,5,42,127,879233324
65,9,21,Ticks_Linear_5,218,1,48,38,879822772
65,9,21,Ticks_Linear_5,219,5,42,127,879932908
65,9,21,Ticks_Linear_5,220,1,48,45,880547528
65,9,21,Ticks_Linear_5,221,5,42,127,880633344
65,9,21,Ticks_Linear_5,222,1,48,36,881285324
65,9,21,Ticks_Linear_5,223,5,42,127,881332768
65,9,21,Ticks_Linear_5,224,1,48,48,881975036
65,9,21,Ticks_Linear_5,225,5,42,127,882032968
65,9,21,Ticks_Linear_5,226,1,48,38,882614700
65,9,21,Ticks_Linear_5,227,5,42,127,882733300
65,9,21,Ticks_Linear_5,228,1,48,46,883326800
65,9,21,Ticks_Linear_5,229,5,42,127,883453268
65,9,21,Ticks_Linear_5,230,1,48,33,884033072
65,9,21,Ticks_Linear_5,231,5,42,127,884162804
65,9,21,Ticks_Linear_5,232,1,48,40,884756860
65,9,21,Ticks_Linear_5,233,5,42,127,884872736
65,9,21,Ticks_Linear_5,234,1,48,38,885457032
65,9,21,Ticks_Linear_5,235,5,42,127,885583344
65,9,21,Ticks_Linear_5,236,1,48,40,886116568
65,9,21,Ticks_Linear_5,237,5,42,127,886292828
65,9,21,Ticks_Linear_5,238,1,48,31,886892632
65,9,21,Ticks_Linear_5,239,5,42,127,887012696
65,9,21,Ticks_Linear_5,240,1,48,38,887671608
65,9,21,Ticks_Linear_5,241,5,42,127,887732756
65,9,21,Ticks_Linear_5,242,1,48,38,888330624
65,9,21,Ticks_Linear_5,243,5,42,127,888452560
65,9,21,Ticks_Linear_5,244,1,48,48,889025620
65,9,21,Ticks_Linear_5,245,5,42,127,889173352
65,9,21,Ticks_Linear_5,246,1,48,32,889779880
65,9,21,Ticks_Linear_5,247,5,42,127,889893172
65,9,21,Ticks_Linear_5,248,1,48,43,890487720
65,9,21,Ticks_Linear_5,249,5,42,127,890623620
65,9,21,Ticks_Linear_5,250,1,48,36,891162388
65,9,21,Ticks_Linear_5,251,5,42,127,891352628
65,9,21,Ticks_Linear_5,252,1,48,40,891963012
65,9,21,Ticks_Linear_5,253,5,42,127,892082484
65,9,21,Ticks_Linear_5,254,1,48,38,892732856
65,9,21,Ticks_Linear_5,255,5,42,127,892812648
65,9,21,Ticks_Linear_5,256,1,48,43,893478128
65,9,21,Ticks_Linear_5,257,5,42,127,893542728
65,9,21,Ticks_Linear_5,258,1,48,29,894264000
65,9,21,Ticks_Linear_5,259,5,42,127,894283064
65,9,21,Ticks_Linear_5,260,1,48,37,894994376
65,9,21,Ticks_Linear_5,261,5,42,127,895022576
65,9,21,Ticks_Linear_5,262,1,48,24,895693652
65,9,21,Ticks_Linear_5,263,5,42,127,895762692
65,9,21,Ticks_Linear_5,264,1,48,40,896366820
65,9,21,Ticks_Linear_5,265,5,42,127,896503236
65,9,21,Ticks_Linear_5,266,1,48,33,897099964
65,9,21,Ticks_Linear_5,267,5,42,127,897242728
65,9,21,Ticks_Linear_5,268,1,48,39,897836108
65,9,21,Ticks_Linear_5,269,5,42,127,897992952
65,9,21,Ticks_Linear_5,270,1,48,31,898657328
65,9,21,Ticks_Linear_5,271,5,42,127,898742588
65,9,21,Ticks_Linear_5,272,1,48,41,899400816
65,9,21,Ticks_Linear_5,273,5,42,127,899493184
65,9,21,Ticks_Linear_5,274,1,48,39,900089320
65,9,21,Ticks_Linear_5,275,5,42,127,900242868
65,9,21,Ticks_Linear_5,276,1,48,47,900808888
65,9,21,Ticks_Linear_5,277,5,42,127,900993388
65,9,21,Ticks_Linear_5,278,1,48,33,901542196
65,9,21,Ticks_Linear_5,279,5,42,127,901753272
65,9,21,Ticks_Linear_5,280,1,48,48,902331584
65,9,21,Ticks_Linear_5,281,5,42,127,902513004
65,9,21,Ticks_Linear_5,282,1,48,30,903062856
65,9,21,Ticks_Linear_5,283,5,42,127,903272888
65,9,21,Ticks_Linear_5,284,1,48,39,903836140
65,9,21,Ticks_Linear_5,285,5,42,127,904032548
65,9,21,Ticks_Linear_5,286,1,48,33,904581280
65,9,21,Ticks_Linear_5,287,5,42,127,904792356
65,9,21,Ticks_Linear_5,288,1,48,43,905367360
65,9,21,Ticks_Linear_5,289,5,42,127,905562648
65,9,21,Ticks_Linear_5,290,1,48,38,906121636
65,9,21,Ticks_Linear_5,291,5,42,127,906332416
65,9,21,Ticks_Linear_5,292,1,48,43,906859568
65,9,21,Ticks_Linear_5,293,5,42,127,907102560
65,9,21,Ticks_Linear_5,294,1,48,31,907699284
65,9,21,Ticks_Linear_5,295,5,42,127,907872624
65,9,21,Ticks_Linear_5,296,1,48,40,908420532
65,9,21,Ticks_Linear_5,297,5,42,127,908642620
65,9,21,Ticks_Linear_5,298,1,48,30,909194712
65,9,21,Ticks_Linear_5,299,5,42,127,909422936
65,9,21,Ticks_Linear_5,300,1,48,39,909947024
65,9,21,Ticks_Linear_5,301,5,42,127,910203340
65,9,21,Ticks_Linear_5,302,1,48,30,910842408
65,9,21,Ticks_Linear_5,303,5,42,127,910982544
65,9,21,Ticks_Linear_5,304,1,48,33,911599284
65,9,21,Ticks_Linear_5,305,5,42,127,911762720
65,9,21,Ticks_Linear_5,306,1,48,23,912382168
65,9,21,Ticks_Linear_5,307,5,42,127,912543272
65,9,21,Ticks_Linear_5,308,1,48,46,913156204
65,9,21,Ticks_Linear_5,309,5,42,127,913332664
65,9,21,Ticks_Linear_5,310,1,48,32,914038824
65,9,21,Ticks_Linear_5,311,5,42,127,914123116
65,9,21,Ticks_Linear_5,312,1,48,43,914793992
65,9,21,Ticks_Linear_5,313,5,42,127,914912640
65,9,21,Ticks_Linear_5,314,1,48,35,915519196
65,9,21,Ticks_Linear_5,315,5,42,127,915703248
65,9,21,Ticks_Linear_5,316,1,48,42,916258484
65,9,21,Ticks_Linear_5,317,5,42,127,916492640
65,9,21,Ticks_Linear_5,318,1,48,37,917058588
65,9,21,Ticks_Linear_5,319,5,42,127,917293484
65,9,21,Ticks_Linear_5,320,1,48,33,917860936
65,9,21,Ticks_Linear_5,321,5,42,127,918103392
65,9,21,Ticks_Linear_5,322,1,48,31,918676004
65,9,21,Ticks_Linear_5,323,5,42,127,918903116
65,9,21,Ticks_Linear_5,324,1,48,36,919509648
65,9,21,Ticks_Linear_5,325,5,42,127,919702844
65,9,21,Ticks_Linear_5,326,1,48,28,920447868
65,9,21,Ticks_Linear_5,327,5,42,127,920502508
65,9,21,Ticks_Linear_5,328,1,48,36,921259872
65,9,21,Ticks_Linear_5,329,5,42,127,921312716
65,9,21,Ticks_Linear_5,330,1,48,27,922066116
65,9,21,Ticks_Linear_5,331,5,42,127,922122572
65,9,21,Ticks_Linear_5,332,1,48,33,922866308
65,9,21,Ticks_Linear_5,333,5,42,127,922932480
65,9,21,Ticks_Linear_5,334,1,48,32,923642076
65,9,21,Ticks_Linear_5,335,5,42,127,923742524
65,9,21,Ticks_Linear_5,336,1,48,43,924369796
65,9,21,Ticks_Linear_5,337,5,42,127,924552652
65,9,21,Ticks_Linear_5,0,9999,9999,9999,815340600
65,9,21,Ticks_Linear_5,1,9999,9999,9999,815820928
65,9,21,Ticks_Linear_5,2,9999,9999,9999,816300132
65,9,21,Ticks_Linear_5,3,9999,9999,9999,816780360
65,9,21,Ticks_Linear_5,4,9999,9999,9999,817260660
65,9,21,Ticks_Linear_5,5,9999,9999,9999,817750096
65,9,21,Ticks_Linear_5,6,9999,9999,9999,818240584
65,9,21,Ticks_Linear_5,7,9999,9999,9999,818731072
65,9,21,Ticks_Linear_5,8,9999,9999,9999,819230844
65,9,21,Ticks_Linear_5,9,9999,9999,9999,819720288
65,9,21,Ticks_Linear_5,10,9999,9999,9999,820221032
65,9,21,Ticks_Linear_5,11,9999,9999,9999,820720732
65,9,21,Ticks_Linear_5,12,9999,9999,9999,821220408
65,9,21,Ticks_Linear_5,13,9999,9999,9999,821720180
65,9,21,Ticks_Linear_5,14,9999,9999,9999,822220928
65,9,21,Ticks_Linear_5,15,9999,9999,9999,822730816
65,9,21,Ticks_Linear_5,16,9999,9999,9999,823240768
65,9,21,Ticks_Linear_5,17,9999,9999,9999,823750728
65,9,21,Ticks_Linear_5,18,9999,9999,9999,824260688
65,9,21,Ticks_Linear_5,19,9999,9999,9999,824770648
65,9,21,Ticks_Linear_5,20,9999,9999,9999,825290868
65,9,21,Ticks_Linear_5,21,9999,9999,9999,825811008
65,9,21,Ticks_Linear_5,22,9999,9999,9999,826330180
65,9,21,Ticks_Linear_5,23,9999,9999,9999,826850408
65,9,21,Ticks_Linear_5,24,9999,9999,9999,827370616
65,9,21,Ticks_Linear_5,25,9999,9999,9999,827901020
65,9,21,Ticks_Linear_5,26,9999,9999,9999,828430456
65,9,21,Ticks_Linear_5,27,9999,9999,9999,828960852
65,9,21,Ticks_Linear_5,28,9999,9999,9999,829490284
65,9,21,Ticks_Linear_5,29,9999,9999,9999,830020688
65,9,21,Ticks_Linear_5,30,9999,9999,9999,830560376
65,9,21,Ticks_Linear_5,31,9999,9999,9999,831101040
65,9,21,Ticks_Linear_5,32,9999,9999,9999,831640656
65,9,21,Ticks_Linear_5,33,9999,9999,9999,832180348
65,9,21,Ticks_Linear_5,34,9999,9999,9999,832721012
65,9,21,Ticks_Linear_5,35,9999,9999,9999,833270904
65,9,21,Ticks_Linear_5,36,9999,9999,9999,833820780
65,9,21,Ticks_Linear_5,37,9999,9999,9999,834370636
65,9,21,Ticks_Linear_5,38,9999,9999,9999,834920528
65,9,21,Ticks_Linear_5,39,9999,9999,9999,835470400
65,9,21,Ticks_Linear_5,40,9999,9999,9999,836030536
65,9,21,Ticks_Linear_5,41,9999,9999,9999,836590692
65,9,21,Ticks_Linear_5,42,9999,9999,9999,837150832
65,9,21,Ticks_Linear_5,43,9999,9999,9999,837710960
65,9,21,Ticks_Linear_5,44,9999,9999,9999,838271092
65,9,21,Ticks_Linear_5,45,9999,9999,9999,838840440
65,9,21,Ticks_Linear_5,46,9999,9999,9999,839410780
65,9,21,Ticks_Linear_5,47,9999,9999,9999,839980124
65,9,21,Ticks_Linear_5,48,9999,9999,9999,840550516
65,9,21,Ticks_Linear_5,49,9999,9999,9999,841120836
65,9,21,Ticks_Linear_5,50,9999,9999,9999,841700440
65,9,21,Ticks_Linear_5,51,9999,9999,9999,842281048
65,9,21,Ticks_Linear_5,52,9999,9999,9999,842860648
65,9,21,Ticks_Linear_5,53,9999,9999,9999,843440252
65,9,21,Ticks_Linear_5,54,9999,9999,9999,844020852
65,9,21,Ticks_Linear_5,55,9999,9999,9999,844610644
65,9,21,Ticks_Linear_5,56,9999,9999,9999,845200512
65,9,21,Ticks_Linear_5,57,9999,9999,9999,845790300
65,9,21,Ticks_Linear_5,58,9999,9999,9999,846380112
65,9,21,Ticks_Linear_5,59,9999,9999,9999,846970956
65,9,21,Ticks_Linear_5,60,9999,9999,9999,847570996
65,9,21,Ticks_Linear_5,61,9999,9999,9999,848171072
65,9,21,Ticks_Linear_5,62,9999,9999,9999,848780404
65,9,21,Ticks_Linear_5,63,9999,9999,9999,849380452
65,9,21,Ticks_Linear_5,64,9999,9999,9999,849980532
65,9,21,Ticks_Linear_5,65,9999,9999,9999,850590836
65,9,21,Ticks_Linear_5,66,9999,9999,9999,851200052
65,9,21,Ticks_Linear_5,67,9999,9999,9999,851810428
65,9,21,Ticks_Linear_5,68,9999,9999,9999,852420660
65,9,21,Ticks_Linear_5,69,9999,9999,9999,853030992
65,9,21,Ticks_Linear_5,70,9999,9999,9999,853650516
65,9,21,Ticks_Linear_5,71,9999,9999,9999,854271036
65,9,21,Ticks_Linear_5,72,9999,9999,9999,854890552
65,9,21,Ticks_Linear_5,73,9999,9999,9999,855510072
65,9,21,Ticks_Linear_5,74,9999,9999,9999,856130660
65,9,21,Ticks_Linear_5,75,9999,9999,9999,856760440
65,9,21,Ticks_Linear_5,76,9999,9999,9999,857390172
65,9,21,Ticks_Linear_5,77,9999,9999,9999,858020920
65,9,21,Ticks_Linear_5,78,9999,9999,9999,858650724
65,9,21,Ticks_Linear_5,79,9999,9999,9999,859280488
65,9,21,Ticks_Linear_5,80,9999,9999,9999,859920500
65,9,21,Ticks_Linear_5,81,9999,9999,9999,860560464
65,9,21,Ticks_Linear_5,82,9999,9999,9999,861200448
65,9,21,Ticks_Linear_5,83,9999,9999,9999,861840484
65,9,21,Ticks_Linear_5,84,9999,9999,9999,862480472
65,9,21,Ticks_Linear_5,85,9999,9999,9999,863130696
65,9,21,Ticks_Linear_5,86,9999,9999,9999,863780944
65,9,21,Ticks_Linear_5,87,9999,9999,9999,864430200
65,9,21,Ticks_Linear_5,88,9999,9999,9999,865080440
65,9,21,Ticks_Linear_5,89,9999,9999,9999,865730664
65,9,21,Ticks_Linear_5,90,9999,9999,9999,866390108
65,9,21,Ticks_Linear_5,91,9999,9999,9999,867050604
65,9,21,Ticks_Linear_5,92,9999,9999,9999,867711092
65,9,21,Ticks_Linear_5,93,9999,9999,9999,868370548
65,9,21,Ticks_Linear_5,94,9999,9999,9999,869031024
65,9,21,Ticks_Linear_5,95,9999,9999,9999,869700672
65,9,21,Ticks_Linear_5,96,9999,9999,9999,870370364
65,9,21,Ticks_Linear_5,97,9999,9999,9999,871040084
65,9,21,Ticks_Linear_5,98,9999,9999,9999,871710776
65,9,21,Ticks_Linear_5,99,9999,9999,9999,872380472
65,9,21,Ticks_Linear_5,100,9999,9999,9999,873060448
65,9,21,Ticks_Linear_5,101,9999,9999,9999,873740352
65,9,21,Ticks_Linear_5,102,9999,9999,9999,874420304
65,9,21,Ticks_Linear_5,103,9999,9999,9999,875100280
65,9,21,Ticks_Linear_5,104,9999,9999,9999,875780184
65,9,21,Ticks_Linear_5,105,9999,9999,9999,876470380
65,9,21,Ticks_Linear_5,106,9999,9999,9999,877160544
65,9,21,Ticks_Linear_5,107,9999,9999,9999,877850720
65,9,21,Ticks_Linear_5,108,9999,9999,9999,878540860
65,9,21,Ticks_Linear_5,109,9999,9999,9999,879231100
65,9,21,Ticks_Linear_5,110,9999,9999,9999,879930460
65,9,21,Ticks_Linear_5,111,9999,9999,9999,880630896
65,9,21,Ticks_Linear_5,112,9999,9999,9999,881330248
65,9,21,Ticks_Linear_5,113,9999,9999,9999,882030668
65,9,21,Ticks_Linear_5,114,9999,9999,9999,882731076
65,9,21,Ticks_Linear_5,115,9999,9999,9999,883450968
65,9,21,Ticks_Linear_5,116,9999,9999,9999,884160580
65,9,21,Ticks_Linear_5,117,9999,9999,9999,884870212
65,9,21,Ticks_Linear_5,118,9999,9999,9999,885580896
65,9,21,Ticks_Linear_5,119,9999,9999,9999,886290528
65,9,21,Ticks_Linear_5,120,9999,9999,9999,887010396
65,9,21,Ticks_Linear_5,121,9999,9999,9999,887730236
65,9,21,Ticks_Linear_5,122,9999,9999,9999,888450112
65,9,21,Ticks_Linear_5,123,9999,9999,9999,889171052
65,9,21,Ticks_Linear_5,124,9999,9999,9999,889890872
65,9,21,Ticks_Linear_5,125,9999,9999,9999,890621024
65,9,21,Ticks_Linear_5,126,9999,9999,9999,891350104
65,9,21,Ticks_Linear_5,127,9999,9999,9999,892080184
65,9,21,Ticks_Linear_5,128,9999,9999,9999,892810352
65,9,21,Ticks_Linear_5,129,9999,9999,9999,893540428
65,9,21,Ticks_Linear_5,130,9999,9999,9999,894280768
65,9,21,Ticks_Linear_5,131,9999,9999,9999,895020128
65,9,21,Ticks_Linear_5,132,9999,9999,9999,895760468
65,9,21,Ticks_Linear_5,133,9999,9999,9999,896500788
65,9,21,Ticks_Linear_5,134,9999,9999,9999,897240132
65,9,21,Ticks_Linear_5,135,9999,9999,9999,897990724
65,9,21,Ticks_Linear_5,136,9999,9999,9999,898740292
65,9,21,Ticks_Linear_5,137,9999,9999,9999,899490888
65,9,21,Ticks_Linear_5,138,9999,9999,9999,900240496
65,9,21,Ticks_Linear_5,139,9999,9999,9999,900991092
65,9,21,Ticks_Linear_5,140,9999,9999,9999,901750900
65,9,21,Ticks_Linear_5,141,9999,9999,9999,902510708
65,9,21,Ticks_Linear_5,142,9999,9999,9999,903270516
65,9,21,Ticks_Linear_5,143,9999,9999,9999,904030324
65,9,21,Ticks_Linear_5,144,9999,9999,9999,904790132
65,9,21,Ticks_Linear_5,145,9999,9999,9999,905560124
65,9,21,Ticks_Linear_5,146,9999,9999,9999,906330192
65,9,21,Ticks_Linear_5,147,9999,9999,9999,907100260
65,9,21,Ticks_Linear_5,148,9999,9999,9999,907870328
65,9,21,Ticks_Linear_5,149,9999,9999,9999,908640320
65,9,21,Ticks_Linear_5,150,9999,9999,9999,909420640
65,9,21,Ticks_Linear_5,151,9999,9999,9999,910200892
65,9,21,Ticks_Linear_5,152,9999,9999,9999,910980172
65,9,21,Ticks_Linear_5,153,9999,9999,9999,911760496
65,9,21,Ticks_Linear_5,154,9999,9999,9999,912540748
65,9,21,Ticks_Linear_5,155,9999,9999,9999,913330288
65,9,21,Ticks_Linear_5,156,9999,9999,9999,914120816
65,9,21,Ticks_Linear_5,157,9999,9999,9999,914910264
65,9,21,Ticks_Linear_5,158,9999,9999,9999,915700804
65,9,21,Ticks_Linear_5,159,9999,9999,9999,916490340
65,9,21,Ticks_Linear_5,160,9999,9999,9999,917291112
65,9,21,Ticks_Linear_5,161,9999,9999,9999,918101096
65,9,21,Ticks_Linear_5,162,9999,9999,9999,918900816
65,9,21,Ticks_Linear_5,163,9999,9999,9999,919700544
65,9,21,Ticks_Linear_5,164,9999,9999,9999,920500284
65,9,21,Ticks_Linear_5,165,9999,9999,9999,921310268
65,9,21,Ticks_Linear_5,166,9999,9999,9999,922120276
65,9,21,Ticks_Linear_5,167,9999,9999,9999,922930256
65,9,21,Ticks_Linear_5,168,9999,9999,9999,923740224
65,9,21,Ticks_Linear_5,169,9999,9999,9999,924550204
65,10,22,Ticks_Phase_8,0,5,42,127,934700540
65,10,22,Ticks_Phase_8,1,1,48,24,935376860
65,10,22,Ticks_Phase_8,2,5,42,127,935500024
65,10,22,Ticks_Phase_8,3,1,48,27,936206856
65,10,22,Ticks_Phase_8,4,5,42,127,936299976
65,10,22,Ticks_Phase_8,5,1,48,33,937051052
65,10,22,Ticks_Phase_8,6,5,42,127,937099760
65,10,22,Ticks_Phase_8,7,1,48,33,937898936
65,10,22,Ticks_Phase_8,8,5,42,127,937900372
65,10,22,Ticks_Phase_8,9,1,48,30,938673988
65,10,22,Ticks_Phase_8,10,5,42,127,938700232
65,10,22,Ticks_Phase_8,11,1,48,32,939477816
65,10,22,Ticks_Phase_8,12,5,42,127,939499968
65,10,22,Ticks_Phase_8,13,5,42,127,940299612
65,10,22,Ticks_Phase_8,14,1,48,41,940312240
65,10,22,Ticks_Phase_8,15,1,48,39,941072928
65,10,22,Ticks_Phase_8,16,5,42,127,941100292
65,10,22,Ticks_Phase_8,17,1,48,36,941860136
65,10,22,Ticks_Phase_8,18,5,42,127,941900152
65,10,22,Ticks_Phase_8,19,1,48,30,942587796
65,10,22,Ticks_Phase_8,20,5,42,127,942699852
65,10,22,Ticks_Phase_8,21,1,48,32,943480152
65,10,22,Ticks_Phase_8,22,5,42,127,943499800
65,10,22,Ticks_Phase_8,23,1,48,39,944273268
65,10,22,Ticks_Phase_8,24,5,42,127,944300412
65,10,22,Ticks_Phase_8,25,1,48,43,945029772
65,10,22,Ticks_Phase_8,26,5,42,127,945100124
65,10,22,Ticks_Phase_8,27,1,48,39,945823792
65,10,22,Ticks_Phase_8,28,5,42,127,945899932
65,10,22,Ticks_Phase_8,29,1,48,39,946582616
65,10,22,Ticks_Phase_8,30,5,42,127,946699780
65,10,22,Ticks_Phase_8,31,1,48,36,947364272
65,10,22,Ticks_Phase_8,32,5,42,127,947500536
65,10,22,Ticks_Phase_8,33,1,48,34,948158004
65,10,22,Ticks_Phase_8,34,5,42,127,948300248
65,10,22,Ticks_Phase_8,35,1,48,27,949031200
65,10,22,Ticks_Phase_8,36,5,42,127,949099752
65,10,22,Ticks_Phase_8,37,5,42,127,949899768
65,10,22,Ticks_Phase_8,38,1,48,40,949913668
65,10,22,Ticks_Phase_8,39,5,42,127,950700600
65,10,22,Ticks_Phase_8,40,1,48,28,950779012
65,10,22,Ticks_Phase_8,41,1,48,33,951484168
65,10,22,Ticks_Phase_8,42,5,42,127,951500152
65,10,22,Ticks_Phase_8,43,1,48,33,952239184
65,10,22,Ticks_Phase_8,44,5,42,127,952299816
65,10,22,Ticks_Phase_8,45,1,48,42,953050200
65,10,22,Ticks_Phase_8,46,5,42,127,953099604
65,10,22,Ticks_Phase_8,47,1,48,42,953893888
65,10,22,Ticks_Phase_8,48,5,42,127,953900512
65,10,22,Ticks_Phase_8,49,1,48,40,954676824
65,10,22,Ticks_Phase_8,50,5,42,127,954700076
65,10,22,Ticks_Phase_8,51,1,48,36,955437236
65,10,22,Ticks_Phase_8,52,5,42,127,955499860
65,10,22,Ticks_Phase_8,53,1,48,38,956193276
65,10,22,Ticks_Phase_8,54,5,42,127,956299560
65,10,22,Ticks_Phase_8,55,1,48,34,957054840
65,10,22,Ticks_Phase_8,56,5,42,127,957100480
65,10,22,Ticks_Phase_8,57,5,42,127,957900348
65,10,22,Ticks_Phase_8,58,1,48,45,957934120
65,10,22,Ticks_Phase_8,59,5,42,127,958680740
65,10,22,Ticks_Phase_8,60,1,48,35,958682308
65,10,22,Ticks_Phase_8,61,1,48,34,959432636
65,10,22,Ticks_Phase_8,62,5,42,127,959490656
65,10,22,Ticks_Phase_8,63,1,48,26,960238520
65,10,22,Ticks_Phase_8,64,5,42,127,960300552
65,10,22,Ticks_Phase_8,65,1,48,39,961021748
65,10,22,Ticks_Phase_8,66,5,42,127,961100264
65,10,22,Ticks_Phase_8,67,1,48,38,961828508
65,10,22,Ticks_Phase_8,68,5,42,127,961900048
65,10,22,Ticks_Phase_8,69,1,48,32,962638404
65,10,22,Ticks_Phase_8,70,5,42,127,962699760
65,10,22,Ticks_Phase_8,71,5,42,127,963500600
65,10,22,Ticks_Phase_8,72,1,48,29,963526784
65,10,22,Ticks_Phase_8,73,5,42,127,964300312
65,10,22,Ticks_Phase_8,74,1,48,24,964308532
65,10,22,Ticks_Phase_8,75,1,48,28,965069216
65,10,22,Ticks_Phase_8,76,5,42,127,965099892
65,10,22,Ticks_Phase_8,77,1,48,37,965852068
65,10,22,Ticks_Phase_8,78,5,42,127,965899680
65,10,22,Ticks_Phase_8,79,5,42,127,966700516
65,10,22,Ticks_Phase_8,80,1,48,32,966711128
65,10,22,Ticks_Phase_8,81,1,48,37,967454960
65,10,22,Ticks_Phase_8,82,5,42,127,967500296
65,10,22,Ticks_Phase_8,83,1,48,32,968205544
65,10,22,Ticks_Phase_8,84,5,42,127,968300012
65,10,22,Ticks_Phase_8,85,1,48,27,968967376
65,10,22,Ticks_Phase_8,86,5,42,127,969099708
65,10,22,Ticks_Phase_8,87,1,48,27,969786620
65,10,22,Ticks_Phase_8,88,5,42,127,969900392
65,10,22,Ticks_Phase_8,89,1,48,32,970624224
65,10,22,Ticks_Phase_8,90,5,42,127,970700340
65,10,22,Ticks_Phase_8,91,1,48,40,971379160
65,10,22,Ticks_Phase_8,92,5,42,127,971499840
65,10,22,Ticks_Phase_8,93,5,42,127,972299500
65,10,22,Ticks_Phase_8,94,1,48,45,972544152
65,10,22,Ticks_Phase_8,95,5,42,127,973119804
65,10,22,Ticks_Phase_8,96,1,48,35,973171004
65,10,22,Ticks_Phase_8,97,1,48,42,973846152
65,10,22,Ticks_Phase_8,98,5,42,127,973919656
65,10,22,Ticks_Phase_8,99,1,48,32,974637028
65,10,22,Ticks_Phase_8,100,5,42,127,974720344
65,10,22,Ticks_Phase_8,101,1,48,35,975411440
65,10,22,Ticks_Phase_8,102,5,42,127,975520336
65,10,22,Ticks_Phase_8,103,1,48,51,976235476
65,10,22,Ticks_Phase_8,104,5,42,127,976320136
65,10,22,Ticks_Phase_8,105,1,48,42,976957992
65,10,22,Ticks_Phase_8,106,5,42,127,977119540
65,10,22,Ticks_Phase_8,107,1,48,50,977685656
65,10,22,Ticks_Phase_8,108,5,42,127,977920396
65,10,22,Ticks_Phase_8,109,1,48,45,978491512
65,10,22,Ticks_Phase_8,110,5,42,127,978720256
65,10,22,Ticks_Phase_8,111,1,48,51,979283504
65,10,22,Ticks_Phase_8,112,5,42,127,979520264
65,10,22,Ticks_Phase_8,113,1,48,35,980102616
65,10,22,Ticks_Phase_8,114,5,42,127,980319604
65,10,22,Ticks_Phase_8,115,1,48,35,980944936
65,10,22,Ticks_Phase_8,116,5,42,127,981120364
65,10,22,Ticks_Phase_8,117,1,48,26,981797760
65,10,22,Ticks_Phase_8,118,5,42,127,981920148
65,10,22,Ticks_Phase_8,119,1,48,45,982592984
65,10,22,Ticks_Phase_8,120,1,48,32,982638500
65,10,22,Ticks_Phase_8,121,5,42,127,982720076
65,10,22,Ticks_Phase_8,122,1,48,38,983452136
65,10,22,Ticks_Phase_8,123,5,42,127,983519568
65,10,22,Ticks_Phase_8,124,1,48,44,984226604
65,10,22,Ticks_Phase_8,125,5,42,127,984320412
65,10,22,Ticks_Phase_8,126,1,48,46,985038984
65,10,22,Ticks_Phase_8,127,5,42,127,985120064
65,10,22,Ticks_Phase_8,128,1,48,50,985938324
65,10,22,Ticks_Phase_8,129,5,42,127,985959988
65,10,22,Ticks_Phase_8,130,5,42,127,986759484
65,10,22,Ticks_Phase_8,131,1,48,41,986777496
65,10,22,Ticks_Phase_8,132,5,42,127,987560244
65,10,22,Ticks_Phase_8,133,1,48,43,987589352
65,10,22,Ticks_Phase_8,134,1,48,47,988311464
65,10,22,Ticks_Phase_8,135,5,42,127,988360096
65,10,22,Ticks_Phase_8,136,1,48,35,989044224
65,10,22,Ticks_Phase_8,137,5,42,127,989160040
65,10,22,Ticks_Phase_8,138,1,48,37,989913136
65,10,22,Ticks_Phase_8,139,5,42,127,989959692
65,10,22,Ticks_Phase_8,140,1,48,48,990688440
65,10,22,Ticks_Phase_8,141,5,42,127,990760228
65,10,22,Ticks_Phase_8,142,1,48,48,991472512
65,10,22,Ticks_Phase_8,143,5,42,127,991559940
65,10,22,Ticks_Phase_8,144,1,48,46,992297532
65,10,22,Ticks_Phase_8,145,5,42,127,992359948
65,10,22,Ticks_Phase_8,146,1,48,38,993087136
65,10,22,Ticks_Phase_8,147,5,42,127,993159588
65,10,22,Ticks_Phase_8,148,1,48,44,993912988
65,10,22,Ticks_Phase_8,149,5,42,127,993960420
65,10,22,Ticks_Phase_8,150,1,48,43,994675100
65,10,22,Ticks_Phase_8,151,5,42,127,994759908
65,10,22,Ticks_Phase_8,152,1,48,48,995488076
65,10,22,Ticks_Phase_8,153,5,42,127,995559864
65,10,22,Ticks_Phase_8,154,5,42,127,996359880
65,10,22,Ticks_Phase_8,155,1,48,47,996453164
65,10,22,Ticks_Phase_8,156,5,42,127,997160196
65,10,22,Ticks_Phase_8,157,1,48,37,997226432
65,10,22,Ticks_Phase_8,158,1,48,44,997884528
65,10,22,Ticks_Phase_8,159,5,42,127,997959900
65,10,22,Ticks_Phase_8,160,1,48,35,998682972
65,10,22,Ticks_Phase_8,161,5,42,127,998759760
65,10,22,Ticks_Phase_8,162,1,48,38,999469212
65,10,22,Ticks_Phase_8,163,5,42,127,999519708
65,10,22,Ticks_Phase_8,164,1,48,36,1000235732
65,10,22,Ticks_Phase_8,165,5,42,127,1000320392
65,10,22,Ticks_Phase_8,166,1,48,41,1001082332
65,10,22,Ticks_Phase_8,167,5,42,127,1001120104
65,10,22,Ticks_Phase_8,168,1,48,36,1001912596
65,10,22,Ticks_Phase_8,169,5,42,127,1001919964
65,10,22,Ticks_Phase_8,170,1,48,37,1002647836
65,10,22,Ticks_Phase_8,171,5,42,127,1002719676
65,10,22,Ticks_Phase_8,172,1,48,39,1003479372
65,10,22,Ticks_Phase_8,173,5,42,127,1003520460
65,10,22,Ticks_Phase_8,174,1,48,45,1004235488
65,10,22,Ticks_Phase_8,175,5,42,127,1004320172
65,10,22,Ticks_Phase_8,176,1,48,31,1005006664
65,10,22,Ticks_Phase_8,177,5,42,127,1005119796
65,10,22,Ticks_Phase_8,178,1,48,44,1005758456
65,10,22,Ticks_Phase_8,179,5,42,127,1005919580
65,10,22,Ticks_Phase_8,180,1,48,29,1006592416
65,10,22,Ticks_Phase_8,181,5,42,127,1006720636
65,10,22,Ticks_Phase_8,182,1,48,39,1007458408
65,10,22,Ticks_Phase_8,183,5,42,127,1007520064
65,10,22,Ticks_Phase_8,184,1,48,46,1008256088
65,10,22,Ticks_Phase_8,185,5,42,127,1008320072
65,10,22,Ticks_Phase_8,186,1,48,38,1009097584
65,10,22,Ticks_Phase_8,187,5,42,127,1009119788
65,10,22,Ticks_Phase_8,188,1,48,41,1009919224
65,10,22,Ticks_Phase_8,189,5,42,127,1009920644
65,10,22,Ticks_Phase_8,190,1,48,29,1010708504
65,10,22,Ticks_Phase_8,191,5,42,127,1010719984
65,10,22,Ticks_Phase_8,192,1,48,46,1011454212
65,10,22,Ticks_Phase_8,193,5,42,127,1011519772
65,10,22,Ticks_Phase_8,194,1,48,29,1011549468
65,10,22,Ticks_Phase_8,195,5,42,127,1012239788
65,10,22,Ticks_Phase_8,196,1,48,36,1012316672
65,10,22,Ticks_Phase_8,197,1,48,48,1013021640
65,10,22,Ticks_Phase_8,198,5,42,127,1013039496
65,10,22,Ticks_Phase_8,199,1,48,46,1013724572
65,10,22,Ticks_Phase_8,200,5,42,127,1013840164
65,10,22,Ticks_Phase_8,201,1,48,43,1014614100
65,10,22,Ticks_Phase_8,202,5,42,127,1014640040
65,10,22,Ticks_Phase_8,203,1,48,38,1015416720
65,10,22,Ticks_Phase_8,204,5,42,127,1015439752
65,10,22,Ticks_Phase_8,205,1,48,51,1016210756
65,10,22,Ticks_Phase_8,206,5,42,127,1016239540
65,10,22,Ticks_Phase_8,207,1,48,38,1016243764
65,10,22,Ticks_Phase_8,208,1,48,49,1017023020
65,10,22,Ticks_Phase_8,209,5,42,127,1017040572
65,10,22,Ticks_Phase_8,210,5,42,127,1017840092
65,10,22,Ticks_Phase_8,211,1,48,40,1017846276
65,10,22,Ticks_Phase_8,212,1,48,29,1018612812
65,10,22,Ticks_Phase_8,213,5,42,127,1018639652
65,10,22,Ticks_Phase_8,214,1,48,44,1019428476
65,10,22,Ticks_Phase_8,215,5,42,127,1019439360
65,10,22,Ticks_Phase_8,216,1,48,47,1020181828
65,10,22,Ticks_Phase_8,217,5,42,127,1020240492
65,10,22,Ticks_Phase_8,218,1,48,44,1020997036
65,10,22,Ticks_Phase_8,219,5,42,127,1021039980
65,10,22,Ticks_Phase_8,220,1,48,26,1021793004
65,10,22,Ticks_Phase_8,221,5,42,127,1021839764
65,10,22,Ticks_Phase_8,222,5,42,127,1022639560
65,10,22,Ticks_Phase_8,223,1,48,33,1022659456
65,10,22,Ticks_Phase_8,224,1,48,52,1023400516
65,10,22,Ticks_Phase_8,225,5,42,127,1023440532
65,10,22,Ticks_Phase_8,226,5,42,127,1024240056
65,10,22,Ticks_Phase_8,227,1,48,35,1024266536
65,10,22,Ticks_Phase_8,228,1,48,25,1025011420
65,10,22,Ticks_Phase_8,229,5,42,127,1025039836
65,10,22,Ticks_Phase_8,230,1,48,43,1025920508
65,10,22,Ticks_Phase_8,231,5,42,127,1025921844
65,10,22,Ticks_Phase_8,232,1,48,50,1026720592
65,10,22,Ticks_Phase_8,233,5,42,127,1026721704
65,10,22,Ticks_Phase_8,234,5,42,127,1027519856
65,10,22,Ticks_Phase_8,235,1,48,37,1027554872
65,10,22,Ticks_Phase_8,236,1,48,39,1028224120
65,10,22,Ticks_Phase_8,237,5,42,127,1028319560
65,10,22,Ticks_Phase_8,238,1,48,41,1029094772
65,10,22,Ticks_Phase_8,239,5,42,127,1029120568
65,10,22,Ticks_Phase_8,240,1,48,45,1029807972
65,10,22,Ticks_Phase_8,241,5,42,127,1029920040
65,10,22,Ticks_Phase_8,242,1,48,42,1030637200
65,10,22,Ticks_Phase_8,243,5,42,127,1030719840
65,10,22,Ticks_Phase_8,244,1,48,49,1031407404
65,10,22,Ticks_Phase_8,245,5,42,127,1031519536
65,10,22,Ticks_Phase_8,246,1,48,29,1032162616
65,10,22,Ticks_Phase_8,247,5,42,127,1032320444
65,10,22,Ticks_Phase_8,248,1,48,45,1032979580
65,10,22,Ticks_Phase_8,249,5,42,127,1033120304
65,10,22,Ticks_Phase_8,250,1,48,47,1033668736
65,10,22,Ticks_Phase_8,251,5,42,127,1033919868
65,10,22,Ticks_Phase_8,252,1,48,40,1034687056
65,10,22,Ticks_Phase_8,253,5,42,127,1034719668
65,10,22,Ticks_Phase_8,254,1,48,34,1035490292
65,10,22,Ticks_Phase_8,255,5,42,127,1035520304
65,10,22,Ticks_Phase_8,256,1,48,35,1036268168
65,10,22,Ticks_Phase_8,257,5,42,127,1036320388
65,10,22,Ticks_Phase_8,258,1,48,39,1037012728
65,10,22,Ticks_Phase_8,259,5,42,127,1037119788
65,10,22,Ticks_Phase_8,260,1,48,31,1037870508
65,10,22,Ticks_Phase_8,261,5,42,127,1037919588
65,10,22,Ticks_Phase_8,262,5,42,127,1038720352
65,10,22,Ticks_Phase_8,263,1,48,29,1038764356
65,10,22,Ticks_Phase_8,264,1,48,32,1039574540
65,10,22,Ticks_Phase_8,265,5,42,127,1039680024
65,10,22,Ticks_Phase_8,266,5,42,127,1040479608
65,10,22,Ticks_Phase_8,267,1,48,32,1040627280
65,10,22,Ticks_Phase_8,268,1,48,21,1041161184
65,10,22,Ticks_Phase_8,269,5,42,127,1041280348
65,10,22,Ticks_Phase_8,270,5,42,127,1042080232
65,10,22,Ticks_Phase_8,271,1,48,26,1042188600
65,10,22,Ticks_Phase_8,272,1,48,29,1042869648
65,10,22,Ticks_Phase_8,273,5,42,127,1042879936
65,10,22,Ticks_Phase_8,274,1,48,27,1043570580
65,10,22,Ticks_Phase_8,275,5,42,127,1043679556
65,10,22,Ticks_Phase_8,276,1,48,23,1044335240
65,10,22,Ticks_Phase_8,277,5,42,127,1044480340
65,10,22,Ticks_Phase_8,278,5,42,127,1045280148
65,10,22,Ticks_Phase_8,279,1,48,27,1045289044
65,10,22,Ticks_Phase_8,280,5,42,127,1046080008
65,10,22,Ticks_Phase_8,281,1,48,33,1046110764
65,10,22,Ticks_Phase_8,282,1,48,28,1046874588
65,10,22,Ticks_Phase_8,283,5,42,127,1046879492
65,10,22,Ticks_Phase_8,284,5,42,127,1047680404
65,10,22,Ticks_Phase_8,285,1,48,27,1047720976
65,10,22,Ticks_Phase_8,286,1,48,25,1048441440
65,10,22,Ticks_Phase_8,287,5,42,127,1048479960
65,10,22,Ticks_Phase_8,288,5,42,127,1049280128
65,10,22,Ticks_Phase_8,289,1,48,32,1049351044
65,10,22,Ticks_Phase_8,290,5,42,127,1050079468
65,10,22,Ticks_Phase_8,291,1,48,28,1050161392
65,10,22,Ticks_Phase_8,292,5,42,127,1050880248
65,10,22,Ticks_Phase_8,293,1,48,34,1050894376
65,10,22,Ticks_Phase_8,294,1,48,31,1051620016
65,10,22,Ticks_Phase_8,295,5,42,127,1051680028
65,10,22,Ticks_Phase_8,296,1,48,40,1052399808
65,10,22,Ticks_Phase_8,297,5,42,127,1052479964
65,10,22,Ticks_Phase_8,298,1,48,40,1053193072
65,10,22,Ticks_Phase_8,299,5,42,127,1053279600
65,10,22,Ticks_Phase_8,300,1,48,36,1054078172
65,10,22,Ticks_Phase_8,301,5,42,127,1054080284
65,10,22,Ticks_Phase_8,302,5,42,127,1054720344
65,10,22,Ticks_Phase_8,303,1,48,49,1054897360
65,10,22,Ticks_Phase_8,304,5,42,127,1055520056
65,10,22,Ticks_Phase_8,305,1,48,42,1055596408
65,10,22,Ticks_Phase_8,306,1,48,41,1056257880
65,10,22,Ticks_Phase_8,307,5,42,127,1056319836
65,10,22,Ticks_Phase_8,308,1,48,41,1057096444
65,10,22,Ticks_Phase_8,309,5,42,127,1057119772
65,10,22,Ticks_Phase_8,310,5,42,127,1057920312
65,10,22,Ticks_Phase_8,311,1,48,41,1057924996
65,10,22,Ticks_Phase_8,312,5,42,127,1058720100
65,10,22,Ticks_Phase_8,313,1,48,39,1058726132
65,10,22,Ticks_Phase_8,314,5,42,127,1059519808
65,10,22,Ticks_Phase_8,315,1,48,42,1059580916
65,10,22,Ticks_Phase_8,316,1,48,41,1060272076
65,10,22,Ticks_Phase_8,317,5,42,127,1060319736
65,10,22,Ticks_Phase_8,318,1,48,45,1061110088
65,10,22,Ticks_Phase_8,319,5,42,127,1061120296
65,10,22,Ticks_Phase_8,320,5,42,127,1061920164
65,10,22,Ticks_Phase_8,321,1,48,46,1061921652
65,10,22,Ticks_Phase_8,322,5,42,127,1062719952
65,10,22,Ticks_Phase_8,323,1,48,42,1062748168
65,10,22,Ticks_Phase_8,324,1,48,42,1063487880
65,10,22,Ticks_Phase_8,325,5,42,127,1063519580
65,10,22,Ticks_Phase_8,326,1,48,42,1064304428
65,10,22,Ticks_Phase_8,327,5,42,127,1064320636
65,10,22,Ticks_Phase_8,328,1,48,41,1065116720
65,10,22,Ticks_Phase_8,329,5,42,127,1065120124
65,10,22,Ticks_Phase_8,330,5,42,127,1065919920
65,10,22,Ticks_Phase_8,331,1,48,38,1065972636
65,10,22,Ticks_Phase_8,332,1,48,41,1066649276
65,10,22,Ticks_Phase_8,333,5,42,127,1066719700
65,10,22,Ticks_Phase_8,334,1,48,39,1067513560
65,10,22,Ticks_Phase_8,335,5,42,127,1067520628
65,10,22,Ticks_Phase_8,336,5,42,127,1068320052
65,10,22,Ticks_Phase_8,337,1,48,38,1068335224
65,10,22,Ticks_Phase_8,338,1,48,35,1069066172
65,10,22,Ticks_Phase_8,339,5,42,127,1069119832
65,10,22,Ticks_Phase_8,340,5,42,127,1069919548
65,10,22,Ticks_Phase_8,0,9999,9999,9999,934698100
65,10,22,Ticks_Phase_8,1,9999,9999,9999,935497812
65,10,22,Ticks_Phase_8,2,9999,9999,9999,936297540
65,10,22,Ticks_Phase_8,3,9999,9999,9999,937097328
65,10,22,Ticks_Phase_8,4,9999,9999,9999,937898092
65,10,22,Ticks_Phase_8,5,9999,9999,9999,938697796
65,10,22,Ticks_Phase_8,6,9999,9999,9999,939497532
65,10,22,Ticks_Phase_8,7,9999,9999,9999,940297328
65,10,22,Ticks_Phase_8,8,9999,9999,9999,941098080
65,10,22,Ticks_Phase_8,9,9999,9999,9999,941897792
65,10,22,Ticks_Phase_8,10,9999,9999,9999,942697564
65,10,22,Ticks_Phase_8,11,9999,9999,9999,943497292
65,10,22,Ticks_Phase_8,12,9999,9999,9999,944298048
65,10,22,Ticks_Phase_8,13,9999,9999,9999,945097836
65,10,22,Ticks_Phase_8,14,9999,9999,9999,945897572
65,10,22,Ticks_Phase_8,15,9999,9999,9999,946697344
65,10,22,Ticks_Phase_8,16,9999,9999,9999,947498100
65,10,22,Ticks_Phase_8,17,9999,9999,9999,948297812
65,10,22,Ticks_Phase_8,18,9999,9999,9999,949097540
65,10,22,Ticks_Phase_8,19,9999,9999,9999,949897332
65,10,22,Ticks_Phase_8,20,9999,9999,9999,950698088
65,10,22,Ticks_Phase_8,21,9999,9999,9999,951497792
65,10,22,Ticks_Phase_8,22,9999,9999,9999,952297532
65,10,22,Ticks_Phase_8,23,9999,9999,9999,953097316
65,10,22,Ticks_Phase_8,24,9999,9999,9999,953898076
65,10,22,Ticks_Phase_8,25,9999,9999,9999,954697788
65,10,22,Ticks_Phase_8,26,9999,9999,9999,955497576
65,10,22,Ticks_Phase_8,27,9999,9999,9999,956297272
65,10,22,Ticks_Phase_8,28,9999,9999,9999,957098048
65,10,22,Ticks_Phase_8,29,9999,9999,9999,957897840
65,10,22,Ticks_Phase_8,30,9999,9999,9999,958678080
65,10,22,Ticks_Phase_8,31,9999,9999,9999,959488072
65,10,22,Ticks_Phase_8,32,9999,9999,9999,960298040
65,10,22,Ticks_Phase_8,33,9999,9999,9999,961097828
65,10,22,Ticks_Phase_8,34,9999,9999,9999,961897540
65,10,22,Ticks_Phase_8,35,9999,9999,9999,962697328
65,10,22,Ticks_Phase_8,36,9999,9999,9999,963498092
65,10,22,Ticks_Phase_8,37,9999,9999,9999,964297804
65,10,22,Ticks_Phase_8,38,9999,9999,9999,965097532
65,10,22,Ticks_Phase_8,39,9999,9999,9999,965897316
65,10,22,Ticks_Phase_8,40,9999,9999,9999,966698084
65,10,22,Ticks_Phase_8,41,9999,9999,9999,967497788
65,10,22,Ticks_Phase_8,42,9999,9999,9999,968297576
65,10,22,Ticks_Phase_8,43,9999,9999,9999,969097272
65,10,22,Ticks_Phase_8,44,9999,9999,9999,969898104
65,10,22,Ticks_Phase_8,45,9999,9999,9999,970697832
65,10,22,Ticks_Phase_8,46,9999,9999,9999,971497552
65,10,22,Ticks_Phase_8,47,9999,9999,9999,972297284
65,10,22,Ticks_Phase_8,48,9999,9999,9999,973117516
65,10,22,Ticks_Phase_8,49,9999,9999,9999,973917296
65,10,22,Ticks_Phase_8,50,9999,9999,9999,974718056
65,10,22,Ticks_Phase_8,51,9999,9999,9999,975517752
65,10,22,Ticks_Phase_8,52,9999,9999,9999,976317556
65,10,22,Ticks_Phase_8,53,9999,9999,9999,977117252
65,10,22,Ticks_Phase_8,54,9999,9999,9999,977918036
65,10,22,Ticks_Phase_8,55,9999,9999,9999,978717820
65,10,22,Ticks_Phase_8,56,9999,9999,9999,979517532
65,10,22,Ticks_Phase_8,57,9999,9999,9999,980317244
65,10,22,Ticks_Phase_8,58,9999,9999,9999,981118076
65,10,22,Ticks_Phase_8,59,9999,9999,9999,981917788
65,10,22,Ticks_Phase_8,60,9999,9999,9999,982717492
65,10,22,Ticks_Phase_8,61,9999,9999,9999,983517280
65,10,22,Ticks_Phase_8,62,9999,9999,9999,984318048
65,10,22,Ticks_Phase_8,63,9999,9999,9999,985117776
65,10,22,Ticks_Phase_8,64,9999,9999,9999,985957480
65,10,22,Ticks_Phase_8,65,9999,9999,9999,986757200
65,10,22,Ticks_Phase_8,66,9999,9999,9999,987557956
65,10,22,Ticks_Phase_8,67,9999,9999,9999,988357736
65,10,22,Ticks_Phase_8,68,9999,9999,9999,989157432
65,10,22,Ticks_Phase_8,69,9999,9999,9999,989957184
65,10,22,Ticks_Phase_8,70,9999,9999,9999,990757944
65,10,22,Ticks_Phase_8,71,9999,9999,9999,991557728
65,10,22,Ticks_Phase_8,72,9999,9999,9999,992357440
65,10,22,Ticks_Phase_8,73,9999,9999,9999,993157228
65,10,22,Ticks_Phase_8,74,9999,9999,9999,993957984
65,10,22,Ticks_Phase_8,75,9999,9999,9999,994757696
65,10,22,Ticks_Phase_8,76,9999,9999,9999,995557480
65,10,22,Ticks_Phase_8,77,9999,9999,9999,996357224
65,10,22,Ticks_Phase_8,78,9999,9999,9999,997157980
65,10,22,Ticks_Phase_8,79,9999,9999,9999,997957688
65,10,22,Ticks_Phase_8,80,9999,9999,9999,998757476
65,10,22,Ticks_Phase_8,81,9999,9999,9999,999517272
65,10,22,Ticks_Phase_8,82,9999,9999,9999,1000318032
65,10,22,Ticks_Phase_8,83,9999,9999,9999,1001117816
65,10,22,Ticks_Phase_8,84,9999,9999,9999,1001917528
65,10,22,Ticks_Phase_8,85,9999,9999,9999,1002717240
65,10,22,Ticks_Phase_8,86,9999,9999,9999,1003518024
65,10,22,Ticks_Phase_8,87,9999,9999,9999,1004317812
65,10,22,Ticks_Phase_8,88,9999,9999,9999,1005117508
65,10,22,Ticks_Phase_8,89,9999,9999,9999,1005917292
65,10,22,Ticks_Phase_8,90,9999,9999,9999,1006718052
65,10,22,Ticks_Phase_8,91,9999,9999,9999,1007517776
65,10,22,Ticks_Phase_8,92,9999,9999,9999,1008317564
65,10,22,Ticks_Phase_8,93,9999,9999,9999,1009117276
65,10,22,Ticks_Phase_8,94,9999,9999,9999,1009918068
65,10,22,Ticks_Phase_8,95,9999,9999,9999,1010717772
65,10,22,Ticks_Phase_8,96,9999,9999,9999,1011517560
65,10,22,Ticks_Phase_8,97,9999,9999,9999,1012237428
65,10,22,Ticks_Phase_8,98,9999,9999,9999,1013037132
65,10,22,Ticks_Phase_8,99,9999,9999,9999,1013837876
65,10,22,Ticks_Phase_8,100,9999,9999,9999,1014637680
65,10,22,Ticks_Phase_8,101,9999,9999,9999,1015437392
65,10,22,Ticks_Phase_8,102,9999,9999,9999,1016237176
65,10,22,Ticks_Phase_8,103,9999,9999,9999,1017037916
65,10,22,Ticks_Phase_8,104,9999,9999,9999,1017837660
65,10,22,Ticks_Phase_8,105,9999,9999,9999,1018637440
65,10,22,Ticks_Phase_8,106,9999,9999,9999,1019437148
65,10,22,Ticks_Phase_8,107,9999,9999,9999,1020237908
65,10,22,Ticks_Phase_8,108,9999,9999,9999,1021037692
65,10,22,Ticks_Phase_8,109,9999,9999,9999,1021837404
65,10,22,Ticks_Phase_8,110,9999,9999,9999,1022637124
65,10,22,Ticks_Phase_8,111,9999,9999,9999,1023437948
65,10,22,Ticks_Phase_8,112,9999,9999,9999,1024237692
65,10,22,Ticks_Phase_8,113,9999,9999,9999,1025037400
65,10,22,Ticks_Phase_8,114,9999,9999,9999,1025918068
65,10,22,Ticks_Phase_8,115,9999,9999,9999,1026717784
65,10,22,Ticks_Phase_8,116,9999,9999,9999,1027517492
65,10,22,Ticks_Phase_8,117,9999,9999,9999,1028317272
65,10,22,Ticks_Phase_8,118,9999,9999,9999,1029118056
65,10,22,Ticks_Phase_8,119,9999,9999,9999,1029917752
65,10,22,Ticks_Phase_8,120,9999,9999,9999,1030717552
65,10,22,Ticks_Phase_8,121,9999,9999,9999,1031517248
65,10,22,Ticks_Phase_8,122,9999,9999,9999,1032318008
65,10,22,Ticks_Phase_8,123,9999,9999,9999,1033117792
65,10,22,Ticks_Phase_8,124,9999,9999,9999,1033917504
65,10,22,Ticks_Phase_8,125,9999,9999,9999,1034717308
65,10,22,Ticks_Phase_8,126,9999,9999,9999,1035518016
65,10,22,Ticks_Phase_8,127,9999,9999,9999,1036317804
65,10,22,Ticks_Phase_8,128,9999,9999,9999,1037117500
65,10,22,Ticks_Phase_8,129,9999,9999,9999,1037917300
65,10,22,Ticks_Phase_8,130,9999,9999,9999,1038718064
65,10,22,Ticks_Phase_8,131,9999,9999,9999,1039677516
65,10,22,Ticks_Phase_8,132,9999,9999,9999,1040477248
65,10,22,Ticks_Phase_8,133,9999,9999,9999,1041278060
65,10,22,Ticks_Phase_8,134,9999,9999,9999,1042077796
65,10,22,Ticks_Phase_8,135,9999,9999,9999,1042877500
65,10,22,Ticks_Phase_8,136,9999,9999,9999,1043677272
65,10,22,Ticks_Phase_8,137,9999,9999,9999,1044478052
65,10,22,Ticks_Phase_8,138,9999,9999,9999,1045277788
65,10,22,Ticks_Phase_8,139,9999,9999,9999,1046077500
65,10,22,Ticks_Phase_8,140,9999,9999,9999,1046877280
65,10,22,Ticks_Phase_8,141,9999,9999,9999,1047678044
65,10,22,Ticks_Phase_8,142,9999,9999,9999,1048477748
65,10,22,Ticks_Phase_8,143,9999,9999,9999,1049277544
65,10,22,Ticks_Phase_8,144,9999,9999,9999,1050077256
65,10,22,Ticks_Phase_8,145,9999,9999,9999,1050878036
65,10,22,Ticks_Phase_8,146,9999,9999,9999,1051677816
65,10,22,Ticks_Phase_8,147,9999,9999,9999,1052477528
65,10,22,Ticks_Phase_8,148,9999,9999,9999,1053277240
65,10,22,Ticks_Phase_8,149,9999,9999,9999,1054078036
65,10,22,Ticks_Phase_8,150,9999,9999,9999,1054718056
65,10,22,Ticks_Phase_8,151,9999,9999,9999,1055517768
65,10,22,Ticks_Phase_8,152,9999,9999,9999,1056317552
65,10,22,Ticks_Phase_8,153,9999,9999,9999,1057117264
65,10,22,Ticks_Phase_8,154,9999,9999,9999,1057918024
65,10,22,Ticks_Phase_8,155,9999,9999,9999,1058717812
65,10,22,Ticks_Phase_8,156,9999,9999,9999,1059517520
65,10,22,Ticks_Phase_8,157,9999,9999,9999,1060317304
65,10,22,Ticks_Phase_8,158,9999,9999,9999,1061118012
65,10,22,Ticks_Phase_8,159,9999,9999,9999,1061917804
65,10,22,Ticks_Phase_8,160,9999,9999,9999,1062717516
65,10,22,Ticks_Phase_8,161,9999,9999,9999,1063517296
65,10,22,Ticks_Phase_8,162,9999,9999,9999,1064318052
65,10,22,Ticks_Phase_8,163,9999,9999,9999,1065117764
65,10,22,Ticks_Phase_8,164,9999,9999,9999,1065917556
65,10,22,Ticks_Phase_8,165,9999,9999,9999,1066717264
65,10,22,Ticks_Phase_8,166,9999,9999,9999,1067518044
65,10,22,Ticks_Phase_8,167,9999,9999,9999,1068317764
65,10,22,Ticks_Phase_8,168,9999,9999,9999,1069117544
65,10,22,Ticks_Phase_8,169,9999,9999,9999,1069917260
65,11,23,Ticks_Phase_5,0,5,42,127,1081022836
65,11,23,Ticks_Phase_5,1,5,42,127,1081522472
65,11,23,Ticks_Phase_5,2,5,42,127,1082023304
65,11,23,Ticks_Phase_5,3,5,42,127,1082522940
65,11,23,Ticks_Phase_5,4,1,48,52,1082570764
65,11,23,Ticks_Phase_5,5,5,42,127,1083022704
65,11,23,Ticks_Phase_5,6,1,48,44,1083047016
65,11,23,Ticks_Phase_5,7,1,48,43,1083499208
65,11,23,Ticks_Phase_5,8,5,42,127,1083522608
65,11,23,Ticks_Phase_5,9,1,48,44,1083997328
65,11,23,Ticks_Phase_5,10,5,42,127,1084023192
65,11,23,Ticks_Phase_5,11,1,48,39,1084484064
65,11,23,Ticks_Phase_5,12,5,42,127,1084522736
65,11,23,Ticks_Phase_5,13,5,42,127,1085022504
65,11,23,Ticks_Phase_5,14,1,48,32,1085057672
65,11,23,Ticks_Phase_5,15,5,42,127,1085523388
65,11,23,Ticks_Phase_5,16,1,48,38,1085552872
65,11,23,Ticks_Phase_5,17,5,42,127,1086023152
65,11,23,Ticks_Phase_5,18,1,48,43,1086044916
65,11,23,Ticks_Phase_5,19,5,42,127,1086522764
65,11,23,Ticks_Phase_5,20,1,48,41,1086530220
65,11,23,Ticks_Phase_5,21,5,42,127,1087022304
65,11,23,Ticks_Phase_5,22,1,48,48,1087028492
65,11,23,Ticks_Phase_5,23,5,42,127,1087523336
65,11,23,Ticks_Phase_5,24,1,48,47,1087530644
65,11,23,Ticks_Phase_5,25,5,42,127,1088022800
65,11,23,Ticks_Phase_5,26,1,48,44,1088031168
65,11,23,Ticks_Phase_5,27,1,48,38,1088510316
65,11,23,Ticks_Phase_5,28,5,42,127,1088522708
65,11,23,Ticks_Phase_5,29,5,42,127,1089023372
65,11,23,Ticks_Phase_5,30,1,48,41,1089068504
65,11,23,Ticks_Phase_5,31,5,42,127,1089523208
65,11,23,Ticks_Phase_5,32,1,48,51,1089565196
65,11,23,Ticks_Phase_5,33,5,42,127,1090022748
65,11,23,Ticks_Phase_5,34,1,48,48,1090030352
65,11,23,Ticks_Phase_5,35,1,48,49,1090506420
65,11,23,Ticks_Phase_5,36,5,42,127,1090522404
65,11,23,Ticks_Phase_5,37,1,48,43,1090985516
65,11,23,Ticks_Phase_5,38,5,42,127,1091023364
65,11,23,Ticks_Phase_5,39,1,48,46,1091489540
65,11,23,Ticks_Phase_5,40,5,42,127,1091523128
65,11,23,Ticks_Phase_5,41,5,42,127,1092022600
65,11,23,Ticks_Phase_5,42,1,48,44,1092028932
65,11,23,Ticks_Phase_5,43,1,48,47,1092514608
65,11,23,Ticks_Phase_5,44,5,42,127,1092523252
65,11,23,Ticks_Phase_5,45,1,48,46,1092996848
65,11,23,Ticks_Phase_5,46,5,42,127,1093023016
65,11,23,Ticks_Phase_5,47,1,48,46,1093519148
65,11,23,Ticks_Phase_5,48,5,42,127,1093522780
65,11,23,Ticks_Phase_5,49,1,48,39,1094018096
65,11,23,Ticks_Phase_5,50,5,42,127,1094022396
65,11,23,Ticks_Phase_5,51,5,42,127,1094523212
65,11,23,Ticks_Phase_5,52,1,48,51,1094555160
65,11,23,Ticks_Phase_5,53,1,48,40,1095015820
65,11,23,Ticks_Phase_5,54,5,42,127,1095023040
65,11,23,Ticks_Phase_5,55,1,48,48,1095501288
65,11,23,Ticks_Phase_5,56,5,42,127,1095522656
65,11,23,Ticks_Phase_5,57,1,48,41,1095990568
65,11,23,Ticks_Phase_5,58,5,42,127,1096013432
65,11,23,Ticks_Phase_5,59,1,48,45,1096494296
65,11,23,Ticks_Phase_5,60,5,42,127,1096512748
65,11,23,Ticks_Phase_5,61,1,48,40,1096967992
65,11,23,Ticks_Phase_5,62,5,42,127,1097012512
65,11,23,Ticks_Phase_5,63,5,42,127,1097513328
65,11,23,Ticks_Phase_5,64,1,48,52,1097526484
65,11,23,Ticks_Phase_5,65,5,42,127,1098013236
65,11,23,Ticks_Phase_5,66,1,48,45,1098019052
65,11,23,Ticks_Phase_5,67,1,48,55,1098512628
65,11,23,Ticks_Phase_5,68,5,42,127,1098514112
65,11,23,Ticks_Phase_5,69,5,42,127,1099012392
65,11,23,Ticks_Phase_5,70,1,48,48,1099016484
65,11,23,Ticks_Phase_5,71,5,42,127,1099513272
65,11,23,Ticks_Phase_5,72,1,48,53,1099518116
65,11,23,Ticks_Phase_5,73,1,48,52,1100007232
65,11,23,Ticks_Phase_5,74,5,42,127,1100013252
65,11,23,Ticks_Phase_5,75,1,48,52,1100508840
65,11,23,Ticks_Phase_5,76,5,42,127,1100512620
65,11,23,Ticks_Phase_5,77,5,42,127,1101013336
65,11,23,Ticks_Phase_5,78,1,48,50,1101014820
65,11,23,Ticks_Phase_5,79,1,48,51,1101500860
65,11,23,Ticks_Phase_5,80,5,42,127,1101513240
65,11,23,Ticks_Phase_5,81,1,48,49,1101996948
65,11,23,Ticks_Phase_5,82,5,42,127,1102013004
65,11,23,Ticks_Phase_5,83,5,42,127,1102512476
65,11,23,Ticks_Phase_5,84,1,48,52,1102524204
65,11,23,Ticks_Phase_5,85,5,42,127,1103013136
65,11,23,Ticks_Phase_5,86,1,48,55,1103078808
65,11,23,Ticks_Phase_5,87,1,48,46,1103465084
65,11,23,Ticks_Phase_5,88,5,42,127,1103513116
65,11,23,Ticks_Phase_5,89,1,48,34,1103977800
65,11,23,Ticks_Phase_5,90,5,42,127,1104012580
65,11,23,Ticks_Phase_5,91,1,48,36,1104454276
65,11,23,Ticks_Phase_5,92,5,42,127,1104513316
65,11,23,Ticks_Phase_5,93,5,42,127,1105023420
65,11,23,Ticks_Phase_5,94,1,48,47,1105063988
65,11,23,Ticks_Phase_5,95,1,48,40,1105453052
65,11,23,Ticks_Phase_5,96,5,42,127,1105523100
65,11,23,Ticks_Phase_5,97,1,48,38,1105982172
65,11,23,Ticks_Phase_5,98,5,42,127,1106022716
65,11,23,Ticks_Phase_5,99,1,48,40,1106501184
65,11,23,Ticks_Phase_5,100,5,42,127,1106522480
65,11,23,Ticks_Phase_5,101,1,48,42,1106987984
65,11,23,Ticks_Phase_5,102,5,42,127,1107023140
65,11,23,Ticks_Phase_5,103,1,48,41,1107510824
65,11,23,Ticks_Phase_5,104,5,42,127,1107523128
65,11,23,Ticks_Phase_5,105,1,48,39,1107983172
65,11,23,Ticks_Phase_5,106,5,42,127,1108022592
65,11,23,Ticks_Phase_5,107,1,48,43,1108505544
65,11,23,Ticks_Phase_5,108,5,42,127,1108523400
65,11,23,Ticks_Phase_5,109,1,48,36,1108953912
65,11,23,Ticks_Phase_5,110,5,42,127,1109023016
65,11,23,Ticks_Phase_5,111,5,42,127,1109523080
65,11,23,Ticks_Phase_5,112,1,48,43,1109548292
65,11,23,Ticks_Phase_5,113,1,48,37,1110016296
65,11,23,Ticks_Phase_5,114,5,42,127,1110022468
65,11,23,Ticks_Phase_5,115,1,48,41,1110505344
65,11,23,Ticks_Phase_5,116,5,42,127,1110523200
65,11,23,Ticks_Phase_5,117,1,48,34,1110973936
65,11,23,Ticks_Phase_5,118,5,42,127,1111023036
65,11,23,Ticks_Phase_5,119,1,48,42,1111517876
65,11,23,Ticks_Phase_5,120,5,42,127,1111522728
65,11,23,Ticks_Phase_5,121,1,48,30,1112016364
65,11,23,Ticks_Phase_5,122,5,42,127,1112023288
65,11,23,Ticks_Phase_5,123,5,42,127,1112523060
65,11,23,Ticks_Phase_5,124,1,48,46,1112533000
65,11,23,Ticks_Phase_5,125,1,48,38,1113000236
65,11,23,Ticks_Phase_5,126,5,42,127,1113043260
65,11,23,Ticks_Phase_5,127,5,42,127,1113543028
65,11,23,Ticks_Phase_5,128,1,48,49,1113552368
65,11,23,Ticks_Phase_5,129,1,48,36,1114025456
65,11,23,Ticks_Phase_5,130,5,42,127,1114042936
65,11,23,Ticks_Phase_5,131,5,42,127,1114542404
65,11,23,Ticks_Phase_5,132,1,48,51,1114553688
65,11,23,Ticks_Phase_5,133,5,42,127,1115043140
65,11,23,Ticks_Phase_5,134,1,48,41,1115057640
65,11,23,Ticks_Phase_5,135,1,48,54,1115520332
65,11,23,Ticks_Phase_5,136,5,42,127,1115543044
65,11,23,Ticks_Phase_5,137,1,48,53,1116020008
65,11,23,Ticks_Phase_5,138,5,42,127,1116042880
65,11,23,Ticks_Phase_5,139,1,48,54,1116516404
65,11,23,Ticks_Phase_5,140,5,42,127,1116543320
65,11,23,Ticks_Phase_5,141,1,48,46,1117013400
65,11,23,Ticks_Phase_5,142,5,42,127,1117043156
65,11,23,Ticks_Phase_5,143,1,48,54,1117507092
65,11,23,Ticks_Phase_5,144,5,42,127,1117542996
65,11,23,Ticks_Phase_5,145,1,48,46,1118012776
65,11,23,Ticks_Phase_5,146,5,42,127,1118042684
65,11,23,Ticks_Phase_5,147,1,48,49,1118500924
65,11,23,Ticks_Phase_5,148,5,42,127,1118543344
65,11,23,Ticks_Phase_5,149,1,48,48,1119032376
65,11,23,Ticks_Phase_5,150,5,42,127,1119042884
65,11,23,Ticks_Phase_5,151,1,48,48,1119488248
65,11,23,Ticks_Phase_5,152,5,42,127,1119542944
65,11,23,Ticks_Phase_5,153,1,48,46,1120032572
65,11,23,Ticks_Phase_5,154,5,42,127,1120043308
65,11,23,Ticks_Phase_5,155,1,48,55,1120521260
65,11,23,Ticks_Phase_5,156,5,42,127,1120542996
65,11,23,Ticks_Phase_5,157,1,48,46,1121026180
65,11,23,Ticks_Phase_5,158,5,42,127,1121042832
65,11,23,Ticks_Phase_5,159,1,48,58,1121500000
65,11,23,Ticks_Phase_5,160,5,42,127,1121522976
65,11,23,Ticks_Phase_5,161,1,48,50,1121997900
65,11,23,Ticks_Phase_5,162,5,42,127,1122022816
65,11,23,Ticks_Phase_5,163,1,48,58,1122466652
65,11,23,Ticks_Phase_5,164,5,42,127,1122522628
65,11,23,Ticks_Phase_5,165,5,42,127,1123023292
65,11,23,Ticks_Phase_5,166,1,48,51,1123028584
65,11,23,Ticks_Phase_5,167,1,48,51,1123485952
65,11,23,Ticks_Phase_5,168,5,42,127,1123522904
65,11,23,Ticks_Phase_5,169,1,48,52,1123989608
65,11,23,Ticks_Phase_5,170,5,42,127,1124022592
65,11,23,Ticks_Phase_5,171,1,48,56,1124516852
65,11,23,Ticks_Phase_5,172,5,42,127,1124523624
65,11,23,Ticks_Phase_5,173,1,48,56,1125012804
65,11,23,Ticks_Phase_5,174,5,42,127,1125023016
65,11,23,Ticks_Phase_5,175,1,48,51,1125449576
65,11,23,Ticks_Phase_5,176,5,42,127,1125522852
65,11,23,Ticks_Phase_5,177,1,48,49,1125947248
65,11,23,Ticks_Phase_5,178,5,42,127,1126022692
65,11,23,Ticks_Phase_5,179,1,48,46,1126479436
65,11,23,Ticks_Phase_5,180,5,42,127,1126523204
65,11,23,Ticks_Phase_5,181,1,48,52,1126975232
65,11,23,Ticks_Phase_5,182,5,42,127,1127022892
65,11,23,Ticks_Phase_5,183,1,48,43,1127468180
65,11,23,Ticks_Phase_5,184,5,42,127,1127522580
65,11,23,Ticks_Phase_5,185,5,42,127,1128023616
65,11,23,Ticks_Phase_5,186,1,48,57,1128031612
65,11,23,Ticks_Phase_5,187,1,48,48,1128505596
65,11,23,Ticks_Phase_5,188,5,42,127,1128523152
65,11,23,Ticks_Phase_5,189,1,48,60,1128981924
65,11,23,Ticks_Phase_5,190,5,42,127,1129022840
65,11,23,Ticks_Phase_5,191,1,48,48,1129465728
65,11,23,Ticks_Phase_5,192,5,42,127,1129473328
65,11,23,Ticks_Phase_5,193,1,48,56,1129916572
65,11,23,Ticks_Phase_5,194,5,42,127,1129973088
65,11,23,Ticks_Phase_5,195,1,48,44,1130384732
65,11,23,Ticks_Phase_5,196,5,42,127,1130472776
65,11,23,Ticks_Phase_5,197,1,48,52,1130906280
65,11,23,Ticks_Phase_5,198,5,42,127,1130972516
65,11,23,Ticks_Phase_5,199,1,48,49,1131404096
65,11,23,Ticks_Phase_5,200,5,42,127,1131473472
65,11,23,Ticks_Phase_5,201,1,48,58,1131890076
65,11,23,Ticks_Phase_5,202,5,42,127,1131973012
65,11,23,Ticks_Phase_5,203,1,48,53,1132424372
65,11,23,Ticks_Phase_5,204,5,42,127,1132472776
65,11,23,Ticks_Phase_5,205,1,48,56,1132910192
65,11,23,Ticks_Phase_5,206,5,42,127,1132973656
65,11,23,Ticks_Phase_5,207,1,48,46,1133382036
65,11,23,Ticks_Phase_5,208,5,42,127,1133483516
65,11,23,Ticks_Phase_5,209,1,48,56,1133915272
65,11,23,Ticks_Phase_5,210,5,42,127,1133983144
65,11,23,Ticks_Phase_5,211,1,48,43,1134421624
65,11,23,Ticks_Phase_5,212,5,42,127,1134482832
65,11,23,Ticks_Phase_5,213,1,48,43,1134948712
65,11,23,Ticks_Phase_5,214,5,42,127,1134982596
65,11,23,Ticks_Phase_5,215,1,48,43,1135448624
65,11,23,Ticks_Phase_5,216,5,42,127,1135483404
65,11,23,Ticks_Phase_5,217,1,48,55,1135966960
65,11,23,Ticks_Phase_5,218,5,42,127,1135982872
65,11,23,Ticks_Phase_5,219,1,48,45,1136457068
65,11,23,Ticks_Phase_5,220,5,42,127,1136482708
65,11,23,Ticks_Phase_5,221,1,48,50,1136945964
65,11,23,Ticks_Phase_5,222,5,42,127,1136983592
65,11,23,Ticks_Phase_5,223,1,48,50,1137445208
65,11,23,Ticks_Phase_5,224,5,42,127,1137483204
65,11,23,Ticks_Phase_5,225,1,48,51,1137938456
65,11,23,Ticks_Phase_5,226,5,42,127,1138033144
65,11,23,Ticks_Phase_5,227,1,48,51,1138498052
65,11,23,Ticks_Phase_5,228,5,42,127,1138532608
65,11,23,Ticks_Phase_5,229,1,48,57,1138993776
65,11,23,Ticks_Phase_5,230,5,42,127,1139032596
65,11,23,Ticks_Phase_5,231,1,48,52,1139467924
65,11,23,Ticks_Phase_5,232,5,42,127,1139533036
65,11,23,Ticks_Phase_5,233,1,48,49,1140003264
65,11,23,Ticks_Phase_5,234,5,42,127,1140032944
65,11,23,Ticks_Phase_5,235,1,48,42,1140470820
65,11,23,Ticks_Phase_5,236,5,42,127,1140532560
65,11,23,Ticks_Phase_5,237,1,48,56,1141016484
65,11,23,Ticks_Phase_5,238,5,42,127,1141033592
65,11,23,Ticks_Phase_5,239,1,48,47,1141507860
65,11,23,Ticks_Phase_5,240,5,42,127,1141533132
65,11,23,Ticks_Phase_5,241,1,48,42,1142007776
65,11,23,Ticks_Phase_5,242,5,42,127,1142032748
65,11,23,Ticks_Phase_5,243,1,48,55,1142512188
65,11,23,Ticks_Phase_5,244,5,42,127,1142532508
65,11,23,Ticks_Phase_5,245,1,48,49,1143033104
65,11,23,Ticks_Phase_5,246,5,42,127,1143034440
65,11,23,Ticks_Phase_5,247,1,48,52,1143506968
65,11,23,Ticks_Phase_5,248,5,42,127,1143532784
65,11,23,Ticks_Phase_5,249,1,48,49,1143977744
65,11,23,Ticks_Phase_5,250,5,42,127,1144032696
65,11,23,Ticks_Phase_5,251,1,48,55,1144487468
65,11,23,Ticks_Phase_5,252,5,42,127,1144533332
65,11,23,Ticks_Phase_5,253,1,48,57,1144984236
65,11,23,Ticks_Phase_5,254,5,42,127,1145033168
65,11,23,Ticks_Phase_5,255,1,48,52,1145466548
65,11,23,Ticks_Phase_5,256,5,42,127,1145532708
65,11,23,Ticks_Phase_5,257,1,48,51,1145996264
65,11,23,Ticks_Phase_5,258,5,42,127,1146032544
65,11,23,Ticks_Phase_5,259,1,48,54,1146474312
65,11,23,Ticks_Phase_5,260,5,42,127,1146632516
65,11,23,Ticks_Phase_5,261,1,48,41,1147112576
65,11,23,Ticks_Phase_5,262,5,42,127,1147133416
65,11,23,Ticks_Phase_5,263,5,42,127,1147633188
65,11,23,Ticks_Phase_5,264,1,48,46,1147641032
65,11,23,Ticks_Phase_5,265,5,42,127,1148132724
65,11,23,Ticks_Phase_5,266,1,48,46,1148159728
65,11,23,Ticks_Phase_5,267,1,48,47,1148604044
65,11,23,Ticks_Phase_5,268,5,42,127,1148632308
65,11,23,Ticks_Phase_5,269,1,48,37,1149076848
65,11,23,Ticks_Phase_5,270,5,42,127,1149133340
65,11,23,Ticks_Phase_5,271,5,42,127,1149632888
65,11,23,Ticks_Phase_5,272,1,48,43,1149652856
65,11,23,Ticks_Phase_5,273,1,48,43,1150115612
65,11,23,Ticks_Phase_5,274,5,42,127,1150132568
65,11,23,Ticks_Phase_5,275,1,48,43,1150601676
65,11,23,Ticks_Phase_5,276,5,42,127,1150633304
65,11,23,Ticks_Phase_5,277,1,48,33,1151120836
65,11,23,Ticks_Phase_5,278,5,42,127,1151133140
65,11,23,Ticks_Phase_5,279,1,48,45,1151599468
65,11,23,Ticks_Phase_5,280,5,42,127,1151632604
65,11,23,Ticks_Phase_5,281,1,48,40,1152070544
65,11,23,Ticks_Phase_5,282,5,42,127,1152132444
65,11,23,Ticks_Phase_5,283,1,48,40,1152599592
65,11,23,Ticks_Phase_5,284,5,42,127,1152633328
65,11,23,Ticks_Phase_5,285,1,48,35,1153080184
65,11,23,Ticks_Phase_5,286,5,42,127,1153132792
65,11,23,Ticks_Phase_5,287,1,48,46,1153576876
65,11,23,Ticks_Phase_5,288,5,42,127,1153632556
65,11,23,Ticks_Phase_5,289,1,48,40,1154054480
65,11,23,Ticks_Phase_5,290,5,42,127,1154133440
65,11,23,Ticks_Phase_5,291,1,48,51,1154551472
65,11,23,Ticks_Phase_5,292,5,42,127,1154633424
65,11,23,Ticks_Phase_5,293,1,48,39,1155071904
65,11,23,Ticks_Phase_5,294,5,42,127,1155132740
65,11,23,Ticks_Phase_5,295,1,48,52,1155586492
65,11,23,Ticks_Phase_5,296,5,42,127,1155632432
65,11,23,Ticks_Phase_5,297,5,42,127,1156033096
65,11,23,Ticks_Phase_5,298,1,48,43,1156081108
65,11,23,Ticks_Phase_5,299,1,48,52,1156499868
65,11,23,Ticks_Phase_5,300,5,42,127,1156532480
65,11,23,Ticks_Phase_5,301,1,48,35,1156899284
65,11,23,Ticks_Phase_5,302,5,42,127,1157033352
65,11,23,Ticks_Phase_5,303,5,42,127,1157533060
65,11,23,Ticks_Phase_5,304,1,48,43,1157535000
65,11,23,Ticks_Phase_5,305,1,48,33,1158029188
65,11,23,Ticks_Phase_5,306,5,42,127,1158032968
65,11,23,Ticks_Phase_5,307,1,48,37,1158486940
65,11,23,Ticks_Phase_5,308,5,42,127,1158532432
65,11,23,Ticks_Phase_5,309,1,48,37,1158991132
65,11,23,Ticks_Phase_5,310,5,42,127,1159033168
65,11,23,Ticks_Phase_5,311,5,42,127,1159533084
65,11,23,Ticks_Phase_5,312,1,48,34,1159535684
65,11,23,Ticks_Phase_5,313,1,48,38,1160014688
65,11,23,Ticks_Phase_5,314,5,42,127,1160032544
65,11,23,Ticks_Phase_5,315,1,48,38,1160489508
65,11,23,Ticks_Phase_5,316,5,42,127,1160533276
65,11,23,Ticks_Phase_5,317,1,48,46,1160999160
65,11,23,Ticks_Phase_5,318,5,42,127,1161033040
65,11,23,Ticks_Phase_5,319,1,48,40,1161478256
65,11,23,Ticks_Phase_5,320,5,42,127,1161532656
65,11,23,Ticks_Phase_5,321,1,48,41,1161998984
65,11,23,Ticks_Phase_5,322,5,42,127,1162032568
65,11,23,Ticks_Phase_5,323,1,48,36,1162462584
65,11,23,Ticks_Phase_5,324,5,42,127,1162533228
65,11,23,Ticks_Phase_5,325,1,48,44,1162997464
65,11,23,Ticks_Phase_5,326,5,42,127,1163032992
65,11,23,Ticks_Phase_5,327,1,48,44,1163486140
65,11,23,Ticks_Phase_5,328,5,42,127,1163532608
65,11,23,Ticks_Phase_5,329,1,48,46,1163975996
65,11,23,Ticks_Phase_5,330,5,42,127,1164033412
65,11,23,Ticks_Phase_5,331,1,48,46,1164462732
65,11,23,Ticks_Phase_5,332,5,42,127,1164533100
65,11,23,Ticks_Phase_5,333,1,48,50,1164974104
65,11,23,Ticks_Phase_5,334,5,42,127,1165033012
65,11,23,Ticks_Phase_5,335,1,48,45,1165465468
65,11,23,Ticks_Phase_5,336,5,42,127,1165532528
65,11,23,Ticks_Phase_5,0,9999,9999,9999,1081020476
65,11,23,Ticks_Phase_5,1,9999,9999,9999,1081520188
65,11,23,Ticks_Phase_5,2,9999,9999,9999,1082020944
65,11,23,Ticks_Phase_5,3,9999,9999,9999,1082520652
65,11,23,Ticks_Phase_5,4,9999,9999,9999,1083020340
65,11,23,Ticks_Phase_5,5,9999,9999,9999,1083520100
65,11,23,Ticks_Phase_5,6,9999,9999,9999,1084020832
65,11,23,Ticks_Phase_5,7,9999,9999,9999,1084520520
65,11,23,Ticks_Phase_5,8,9999,9999,9999,1085020216
65,11,23,Ticks_Phase_5,9,9999,9999,9999,1085520952
65,11,23,Ticks_Phase_5,10,9999,9999,9999,1086020712
65,11,23,Ticks_Phase_5,11,9999,9999,9999,1086520404
65,11,23,Ticks_Phase_5,12,9999,9999,9999,1087020092
65,11,23,Ticks_Phase_5,13,9999,9999,9999,1087520828
65,11,23,Ticks_Phase_5,14,9999,9999,9999,1088020588
65,11,23,Ticks_Phase_5,15,9999,9999,9999,1088520272
65,11,23,Ticks_Phase_5,16,9999,9999,9999,1089021012
65,11,23,Ticks_Phase_5,17,9999,9999,9999,1089520700
65,11,23,Ticks_Phase_5,18,9999,9999,9999,1090020460
65,11,23,Ticks_Phase_5,19,9999,9999,9999,1090520120
65,11,23,Ticks_Phase_5,20,9999,9999,9999,1091020856
65,11,23,Ticks_Phase_5,21,9999,9999,9999,1091520616
65,11,23,Ticks_Phase_5,22,9999,9999,9999,1092020312
65,11,23,Ticks_Phase_5,23,9999,9999,9999,1092521040
65,11,23,Ticks_Phase_5,24,9999,9999,9999,1093020728
65,11,23,Ticks_Phase_5,25,9999,9999,9999,1093520492
65,11,23,Ticks_Phase_5,26,9999,9999,9999,1094020184
65,11,23,Ticks_Phase_5,27,9999,9999,9999,1094520924
65,11,23,Ticks_Phase_5,28,9999,9999,9999,1095020604
65,11,23,Ticks_Phase_5,29,9999,9999,9999,1095520368
65,11,23,Ticks_Phase_5,30,9999,9999,9999,1096010844
65,11,23,Ticks_Phase_5,31,9999,9999,9999,1096510536
65,11,23,Ticks_Phase_5,32,9999,9999,9999,1097010300
65,11,23,Ticks_Phase_5,33,9999,9999,9999,1097511040
65,11,23,Ticks_Phase_5,34,9999,9999,9999,1098010728
65,11,23,Ticks_Phase_5,35,9999,9999,9999,1098510416
65,11,23,Ticks_Phase_5,36,9999,9999,9999,1099010104
65,11,23,Ticks_Phase_5,37,9999,9999,9999,1099510840
65,11,23,Ticks_Phase_5,38,9999,9999,9999,1100010592
65,11,23,Ticks_Phase_5,39,9999,9999,9999,1100510332
65,11,23,Ticks_Phase_5,40,9999,9999,9999,1101011048
65,11,23,Ticks_Phase_5,41,9999,9999,9999,1101510728
65,11,23,Ticks_Phase_5,42,9999,9999,9999,1102010496
65,11,23,Ticks_Phase_5,43,9999,9999,9999,1102510188
65,11,23,Ticks_Phase_5,44,9999,9999,9999,1103010924
65,11,23,Ticks_Phase_5,45,9999,9999,9999,1103510604
65,11,23,Ticks_Phase_5,46,9999,9999,9999,1104010368
65,11,23,Ticks_Phase_5,47,9999,9999,9999,1104511104
65,11,23,Ticks_Phase_5,48,9999,9999,9999,1105020984
65,11,23,Ticks_Phase_5,49,9999,9999,9999,1105520740
65,11,23,Ticks_Phase_5,50,9999,9999,9999,1106020428
65,11,23,Ticks_Phase_5,51,9999,9999,9999,1106520120
65,11,23,Ticks_Phase_5,52,9999,9999,9999,1107020856
65,11,23,Ticks_Phase_5,53,9999,9999,9999,1107520620
65,11,23,Ticks_Phase_5,54,9999,9999,9999,1108020304
65,11,23,Ticks_Phase_5,55,9999,9999,9999,1108521040
65,11,23,Ticks_Phase_5,56,9999,9999,9999,1109020728
65,11,23,Ticks_Phase_5,57,9999,9999,9999,1109520496
65,11,23,Ticks_Phase_5,58,9999,9999,9999,1110020180
65,11,23,Ticks_Phase_5,59,9999,9999,9999,1110520912
65,11,23,Ticks_Phase_5,60,9999,9999,9999,1111020604
65,11,23,Ticks_Phase_5,61,9999,9999,9999,1111520364
65,11,23,Ticks_Phase_5,62,9999,9999,9999,1112021076
65,11,23,Ticks_Phase_5,63,9999,9999,9999,1112520772
65,11,23,Ticks_Phase_5,64,9999,9999,9999,1113040972
65,11,23,Ticks_Phase_5,65,9999,9999,9999,1113540668
65,11,23,Ticks_Phase_5,66,9999,9999,9999,1114040424
65,11,23,Ticks_Phase_5,67,9999,9999,9999,1114540120
65,11,23,Ticks_Phase_5,68,9999,9999,9999,1115040852
65,11,23,Ticks_Phase_5,69,9999,9999,9999,1115540536
65,11,23,Ticks_Phase_5,70,9999,9999,9999,1116040296
65,11,23,Ticks_Phase_5,71,9999,9999,9999,1116541032
65,11,23,Ticks_Phase_5,72,9999,9999,9999,1117040720
65,11,23,Ticks_Phase_5,73,9999,9999,9999,1117540412
65,11,23,Ticks_Phase_5,74,9999,9999,9999,1118040172
65,11,23,Ticks_Phase_5,75,9999,9999,9999,1118540908
65,11,23,Ticks_Phase_5,76,9999,9999,9999,1119040596
65,11,23,Ticks_Phase_5,77,9999,9999,9999,1119540284
65,11,23,Ticks_Phase_5,78,9999,9999,9999,1120041020
65,11,23,Ticks_Phase_5,79,9999,9999,9999,1120540784
65,11,23,Ticks_Phase_5,80,9999,9999,9999,1121040472
65,11,23,Ticks_Phase_5,81,9999,9999,9999,1121520764
65,11,23,Ticks_Phase_5,82,9999,9999,9999,1122020456
65,11,23,Ticks_Phase_5,83,9999,9999,9999,1122520192
65,11,23,Ticks_Phase_5,84,9999,9999,9999,1123020860
65,11,23,Ticks_Phase_5,85,9999,9999,9999,1123520616
65,11,23,Ticks_Phase_5,86,9999,9999,9999,1124020304
65,11,23,Ticks_Phase_5,87,9999,9999,9999,1124521040
65,11,23,Ticks_Phase_5,88,9999,9999,9999,1125020728
65,11,23,Ticks_Phase_5,89,9999,9999,9999,1125520492
65,11,23,Ticks_Phase_5,90,9999,9999,9999,1126020184
65,11,23,Ticks_Phase_5,91,9999,9999,9999,1126520916
65,11,23,Ticks_Phase_5,92,9999,9999,9999,1127020604
65,11,23,Ticks_Phase_5,93,9999,9999,9999,1127520368
65,11,23,Ticks_Phase_5,94,9999,9999,9999,1128021108
65,11,23,Ticks_Phase_5,95,9999,9999,9999,1128520788
65,11,23,Ticks_Phase_5,96,9999,9999,9999,1129020476
65,11,23,Ticks_Phase_5,97,9999,9999,9999,1129471040
65,11,23,Ticks_Phase_5,98,9999,9999,9999,1129970804
65,11,23,Ticks_Phase_5,99,9999,9999,9999,1130470488
65,11,23,Ticks_Phase_5,100,9999,9999,9999,1130970228
65,11,23,Ticks_Phase_5,101,9999,9999,9999,1131470964
65,11,23,Ticks_Phase_5,102,9999,9999,9999,1131970652
65,11,23,Ticks_Phase_5,103,9999,9999,9999,1132470340
65,11,23,Ticks_Phase_5,104,9999,9999,9999,1132971072
65,11,23,Ticks_Phase_5,105,9999,9999,9999,1133481080
65,11,23,Ticks_Phase_5,106,9999,9999,9999,1133980784
65,11,23,Ticks_Phase_5,107,9999,9999,9999,1134480472
65,11,23,Ticks_Phase_5,108,9999,9999,9999,1134980160
65,11,23,Ticks_Phase_5,109,9999,9999,9999,1135480896
65,11,23,Ticks_Phase_5,110,9999,9999,9999,1135980660
65,11,23,Ticks_Phase_5,111,9999,9999,9999,1136480348
65,11,23,Ticks_Phase_5,112,9999,9999,9999,1136981080
65,11,23,Ticks_Phase_5,113,9999,9999,9999,1137480768
65,11,23,Ticks_Phase_5,114,9999,9999,9999,1138030708
65,11,23,Ticks_Phase_5,115,9999,9999,9999,1138530396
65,11,23,Ticks_Phase_5,116,9999,9999,9999,1139030088
65,11,23,Ticks_Phase_5,117,9999,9999,9999,1139530824
65,11,23,Ticks_Phase_5,118,9999,9999,9999,1140030584
65,11,23,Ticks_Phase_5,119,9999,9999,9999,1140530272
65,11,23,Ticks_Phase_5,120,9999,9999,9999,1141031008
65,11,23,Ticks_Phase_5,121,9999,9999,9999,1141530696
65,11,23,Ticks_Phase_5,122,9999,9999,9999,1142030460
65,11,23,Ticks_Phase_5,123,9999,9999,9999,1142530148
65,11,23,Ticks_Phase_5,124,9999,9999,9999,1143030892
65,11,23,Ticks_Phase_5,125,9999,9999,9999,1143530572
65,11,23,Ticks_Phase_5,126,9999,9999,9999,1144030336
65,11,23,Ticks_Phase_5,127,9999,9999,9999,1144531044
65,11,23,Ticks_Phase_5,128,9999,9999,9999,1145030732
65,11,23,Ticks_Phase_5,129,9999,9999,9999,1145530496
65,11,23,Ticks_Phase_5,130,9999,9999,9999,1146030184
65,11,23,Ticks_Phase_5,131,9999,9999,9999,1146630232
65,11,23,Ticks_Phase_5,132,9999,9999,9999,1147130980
65,11,23,Ticks_Phase_5,133,9999,9999,9999,1147630676
65,11,23,Ticks_Phase_5,134,9999,9999,9999,1148130364
65,11,23,Ticks_Phase_5,135,9999,9999,9999,1148630096
65,11,23,Ticks_Phase_5,136,9999,9999,9999,1149130832
65,11,23,Ticks_Phase_5,137,9999,9999,9999,1149630524
65,11,23,Ticks_Phase_5,138,9999,9999,9999,1150130284
65,11,23,Ticks_Phase_5,139,9999,9999,9999,1150631016
65,11,23,Ticks_Phase_5,140,9999,9999,9999,1151130704
65,11,23,Ticks_Phase_5,141,9999,9999,9999,1151630392
65,11,23,Ticks_Phase_5,142,9999,9999,9999,1152130156
65,11,23,Ticks_Phase_5,143,9999,9999,9999,1152630892
65,11,23,Ticks_Phase_5,144,9999,9999,9999,1153130580
65,11,23,Ticks_Phase_5,145,9999,9999,9999,1153630268
65,11,23,Ticks_Phase_5,146,9999,9999,9999,1154131004
65,11,23,Ticks_Phase_5,147,9999,9999,9999,1154630768
65,11,23,Ticks_Phase_5,148,9999,9999,9999,1155130456
65,11,23,Ticks_Phase_5,149,9999,9999,9999,1155630144
65,11,23,Ticks_Phase_5,150,9999,9999,9999,1156030584
65,11,23,Ticks_Phase_5,151,9999,9999,9999,1156530268
65,11,23,Ticks_Phase_5,152,9999,9999,9999,1157030988
65,11,23,Ticks_Phase_5,153,9999,9999,9999,1157530700
65,11,23,Ticks_Phase_5,154,9999,9999,9999,1158030456
65,11,23,Ticks_Phase_5,155,9999,9999,9999,1158530144
65,11,23,Ticks_Phase_5,156,9999,9999,9999,1159030880
65,11,23,Ticks_Phase_5,157,9999,9999,9999,1159530576
65,11,23,Ticks_Phase_5,158,9999,9999,9999,1160030332
65,11,23,Ticks_Phase_5,159,9999,9999,9999,1160531064
65,11,23,Ticks_Phase_5,160,9999,9999,9999,1161030752
65,11,23,Ticks_Phase_5,161,9999,9999,9999,1161530444
65,11,23,Ticks_Phase_5,162,9999,9999,9999,1162030208
65,11,23,Ticks_Phase_5,163,9999,9999,9999,1162530940
65,11,23,Ticks_Phase_5,164,9999,9999,9999,1163030632
65,11,23,Ticks_Phase_5,165,9999,9999,9999,1163530320
65,11,23,Ticks_Phase_5,166,9999,9999,9999,1164031052
65,11,23,Ticks_Phase_5,167,9999,9999,9999,1164530816
65,11,23,Ticks_Phase_5,168,9999,9999,9999,1165030504
65,11,23,Ticks_Phase_5,169,9999,9999,9999,1165530168
65,12,25,Jits_Pract_5,0,5,56,103,1217436176
65,12,25,Jits_Pract_5,1,5,63,98,1217439120
65,12,25,Jits_Pract_5,2,5,80,127,1217442320
65,12,25,Jits_Pract_5,0,5,56,103,1217936052
65,12,25,Jits_Pract_5,1,5,63,98,1217939000
65,12,25,Jits_Pract_5,2,5,80,127,1217942120
65,12,25,Jits_Pract_5,0,5,56,103,1218435344
65,12,25,Jits_Pract_5,1,5,80,127,1218445612
65,12,25,Jits_Pract_5,2,5,63,98,1218466144
65,12,25,Jits_Pract_5,0,5,63,98,1218886160
65,12,25,Jits_Pract_5,1,5,80,127,1218915836
65,12,25,Jits_Pract_5,2,5,56,103,1218926032
65,12,25,Jits_Pract_5,0,5,80,127,1219446348
65,12,25,Jits_Pract_5,1,5,56,103,1219456324
65,12,25,Jits_Pract_5,2,5,63,98,1219485996
65,12,25,Jits_Pract_5,0,5,63,98,1219935684
65,12,25,Jits_Pract_5,1,5,56,103,1219966332
65,12,25,Jits_Pract_5,2,5,80,127,1219975484
65,12,25,Jits_Pract_5,0,5,56,103,1220386192
65,12,25,Jits_Pract_5,1,5,63,98,1220436468
65,12,25,Jits_Pract_5,2,5,80,127,1220455956
65,12,25,Jits_Pract_5,0,5,80,127,1220886084
65,12,25,Jits_Pract_5,1,5,63,98,1220935988
65,12,25,Jits_Pract_5,2,5,56,103,1220975928
65,12,25,Jits_Pract_5,0,5,56,103,1221385604
65,12,25,Jits_Pract_5,1,5,63,98,1221416400
65,12,25,Jits_Pract_5,2,5,80,127,1221485856
65,12,25,Jits_Pract_5,0,5,56,103,1221886244
65,12,25,Jits_Pract_5,1,5,80,127,1221945964
65,12,25,Jits_Pract_5,2,5,63,98,1221976312
65,12,25,Jits_Pract_5,0,5,56,103,1222396180
65,12,25,Jits_Pract_5,1,5,63,98,1222405404
65,12,25,Jits_Pract_5,2,5,80,127,1222445492
65,12,25,Jits_Pract_5,0,5,63,98,1222886032
65,12,25,Jits_Pract_5,1,5,80,127,1222965608
65,12,25,Jits_Pract_5,2,5,56,103,1222975804
65,12,25,Jits_Pract_5,0,5,63,98,1223435740
65,12,25,Jits_Pract_5,1,5,56,103,1223475528
65,12,25,Jits_Pract_5,2,5,80,127,1223478520
65,12,25,Jits_Pract_5,0,5,56,103,1223896404
65,12,25,Jits_Pract_5,1,5,63,98,1223905848
65,12,25,Jits_Pract_5,2,5,80,127,1223945788
65,12,25,Jits_Pract_5,0,5,56,103,1224386000
65,12,25,Jits_Pract_5,1,5,63,98,1224388920
65,12,25,Jits_Pract_5,2,5,80,127,1224406312
65,12,25,Jits_Pract_5,0,9999,9999,9999,1217683540
65,12,25,Jits_Pract_5,1,9999,9999,9999,1218183264
65,12,25,Jits_Pract_5,2,9999,9999,9999,1218683980
65,12,25,Jits_Pract_5,3,9999,9999,9999,1219183720
65,12,25,Jits_Pract_5,4,9999,9999,9999,1219683380
65,12,25,Jits_Pract_5,5,9999,9999,9999,1220183128
65,12,25,Jits_Pract_5,6,9999,9999,9999,1220683828
65,12,25,Jits_Pract_5,7,9999,9999,9999,1221183572
65,12,25,Jits_Pract_5,8,9999,9999,9999,1221683316
65,12,25,Jits_Pract_5,9,9999,9999,9999,1222184032
65,12,25,Jits_Pract_5,10,9999,9999,9999,1222683704
65,12,25,Jits_Pract_5,11,9999,9999,9999,1223183448
65,12,25,Jits_Pract_5,12,9999,9999,9999,1223683172
65,12,25,Jits_Pract_5,13,9999,9999,9999,1224183920
65,12,25,Jits_Pract_5,14,9999,9999,9999,1224683576
65,13,24,Jits_Pract_8,0,5,56,103,1267973604
65,13,24,Jits_Pract_8,1,5,63,98,1267976552
65,13,24,Jits_Pract_8,2,5,80,127,1267979676
65,13,24,Jits_Pract_8,0,5,56,103,1268774292
65,13,24,Jits_Pract_8,1,5,63,98,1268777316
65,13,24,Jits_Pract_8,2,5,80,127,1268780588
65,13,24,Jits_Pract_8,0,5,80,127,1269513716
65,13,24,Jits_Pract_8,1,1,48,47,1269599468
65,13,24,Jits_Pract_8,2,5,63,98,1269603844
65,13,24,Jits_Pract_8,3,5,56,103,1269614116
65,13,24,Jits_Pract_8,0,5,56,103,1270334008
65,13,24,Jits_Pract_8,1,5,63,98,1270343984
65,13,24,Jits_Pract_8,2,1,48,59,1270376244
65,13,24,Jits_Pract_8,3,5,80,127,1270434108
65,13,24,Jits_Pract_8,0,5,63,98,1271103964
65,13,24,Jits_Pract_8,1,1,48,54,1271113680
65,13,24,Jits_Pract_8,2,5,80,127,1271133484
65,13,24,Jits_Pract_8,3,5,56,103,1271164132
65,13,24,Jits_Pract_8,0,5,56,103,1271903492
65,13,24,Jits_Pract_8,1,1,48,55,1271908856
65,13,24,Jits_Pract_8,2,5,80,127,1272004092
65,13,24,Jits_Pract_8,3,5,63,98,1272054020
65,13,24,Jits_Pract_8,0,5,56,103,1272704240
65,13,24,Jits_Pract_8,1,5,80,127,1272753396
65,13,24,Jits_Pract_8,2,1,48,46,1272771336
65,13,24,Jits_Pract_8,3,5,63,98,1272793572
65,13,24,Jits_Pract_8,0,5,80,127,1273533752
65,13,24,Jits_Pract_8,1,5,63,98,1273563376
65,13,24,Jits_Pract_8,2,1,48,48,1273592948
65,13,24,Jits_Pract_8,3,5,56,103,1273634244
65,13,24,Jits_Pract_8,0,5,63,98,1274364192
65,13,24,Jits_Pract_8,1,1,48,49,1274381928
65,13,24,Jits_Pract_8,2,5,56,103,1274394084
65,13,24,Jits_Pract_8,3,5,80,127,1274454396
65,13,24,Jits_Pract_8,0,5,56,103,1275103564
65,13,24,Jits_Pract_8,1,5,80,127,1275106556
65,13,24,Jits_Pract_8,2,1,48,44,1275137696
65,13,24,Jits_Pract_8,3,5,63,98,1275224400
65,13,24,Jits_Pract_8,0,1,48,44,1275910176
65,13,24,Jits_Pract_8,1,5,56,103,1275984156
65,13,24,Jits_Pract_8,2,5,80,127,1276024156
65,13,24,Jits_Pract_8,3,5,63,98,1276034352
65,13,24,Jits_Pract_8,0,1,48,48,1276622936
65,13,24,Jits_Pract_8,1,1,48,30,1276678300
65,13,24,Jits_Pract_8,2,5,56,103,1276744032
65,13,24,Jits_Pract_8,3,5,80,127,1276763448
65,13,24,Jits_Pract_8,4,5,63,98,1276844420
65,13,24,Jits_Pract_8,0,5,80,127,1277533444
65,13,24,Jits_Pract_8,1,1,48,52,1277627588
65,13,24,Jits_Pract_8,2,5,56,103,1277634060
65,13,24,Jits_Pract_8,3,5,63,98,1277644032
65,13,24,Jits_Pract_8,0,5,63,98,1278303552
65,13,24,Jits_Pract_8,1,5,80,127,1278363940
65,13,24,Jits_Pract_8,2,5,56,103,1278374212
65,13,24,Jits_Pract_8,3,1,48,51,1278413968
65,13,24,Jits_Pract_8,0,1,48,46,1279081776
65,13,24,Jits_Pract_8,1,5,56,103,1279104420
65,13,24,Jits_Pract_8,2,5,63,98,1279173948
65,13,24,Jits_Pract_8,3,5,80,127,1279177240
65,13,24,Jits_Pract_8,0,9999,9999,9999,1268371540
65,13,24,Jits_Pract_8,1,9999,9999,9999,1269171256
65,13,24,Jits_Pract_8,2,9999,9999,9999,1269972092
65,13,24,Jits_Pract_8,3,9999,9999,9999,1270771808
65,13,24,Jits_Pract_8,4,9999,9999,9999,1271571576
65,13,24,Jits_Pract_8,5,9999,9999,9999,1272371260
65,13,24,Jits_Pract_8,6,9999,9999,9999,1273172076
65,13,24,Jits_Pract_8,7,9999,9999,9999,1273971772
65,13,24,Jits_Pract_8,8,9999,9999,9999,1274771548
65,13,24,Jits_Pract_8,9,9999,9999,9999,1275571292
65,13,24,Jits_Pract_8,10,9999,9999,9999,1276372044
65,13,24,Jits_Pract_8,11,9999,9999,9999,1277171804
65,13,24,Jits_Pract_8,12,9999,9999,9999,1277971544
65,13,24,Jits_Pract_8,13,9999,9999,9999,1278771312
65,13,24,Jits_Pract_8,14,9999,9999,9999,1279572028
65,14,25,Jits_Pract_5,0,5,56,103,1287451968
65,14,25,Jits_Pract_5,1,5,63,98,1287455064
65,14,25,Jits_Pract_5,2,5,80,127,1287458188
65,14,25,Jits_Pract_5,0,5,56,103,1287951768
65,14,25,Jits_Pract_5,1,5,63,98,1287954788
65,14,25,Jits_Pract_5,2,5,80,127,1287957912
65,14,25,Jits_Pract_5,3,1,48,39,1288184304
65,14,25,Jits_Pract_5,0,5,56,103,1288451548
65,14,25,Jits_Pract_5,1,5,80,127,1288461816
65,14,25,Jits_Pract_5,2,5,63,98,1288482200
65,14,25,Jits_Pract_5,0,1,48,39,1288725108
65,14,25,Jits_Pract_5,1,5,63,98,1288901944
65,14,25,Jits_Pract_5,2,5,80,127,1288931720
65,14,25,Jits_Pract_5,3,5,56,103,1288942064
65,14,25,Jits_Pract_5,0,1,48,41,1289241136
65,14,25,Jits_Pract_5,1,5,80,127,1289462116
65,14,25,Jits_Pract_5,2,5,56,103,1289472312
65,14,25,Jits_Pract_5,3,5,63,98,1289502060
65,14,25,Jits_Pract_5,0,5,63,98,1289951644
65,14,25,Jits_Pract_5,1,1,48,42,1289964876
65,14,25,Jits_Pract_5,2,5,56,103,1289982288
65,14,25,Jits_Pract_5,3,5,80,127,1289991732
65,14,25,Jits_Pract_5,0,5,56,103,1290402016
65,14,25,Jits_Pract_5,1,5,63,98,1290452664
65,14,25,Jits_Pract_5,2,5,80,127,1290471704
65,14,25,Jits_Pract_5,3,1,48,44,1290507336
65,14,25,Jits_Pract_5,0,5,80,127,1290901772
65,14,25,Jits_Pract_5,1,5,63,98,1290951900
65,14,25,Jits_Pract_5,2,1,48,37,1290963484
65,14,25,Jits_Pract_5,3,5,56,103,1290991932
65,14,25,Jits_Pract_5,0,5,56,103,1291401552
65,14,25,Jits_Pract_5,1,5,63,98,1291432424
65,14,25,Jits_Pract_5,2,1,48,30,1291496392
65,14,25,Jits_Pract_5,3,5,80,127,1291501896
65,14,25,Jits_Pract_5,0,1,48,50,1291878740
65,14,25,Jits_Pract_5,1,5,56,103,1291902300
65,14,25,Jits_Pract_5,2,5,80,127,1291961568
65,14,25,Jits_Pract_5,3,5,63,98,1291992452
65,14,25,Jits_Pract_5,0,5,56,103,1292412260
65,14,25,Jits_Pract_5,1,5,63,98,1292421708
65,14,25,Jits_Pract_5,2,1,48,41,1292459300
65,14,25,Jits_Pract_5,3,5,80,127,1292461416
65,14,25,Jits_Pract_5,0,5,63,98,1292901848
65,14,25,Jits_Pract_5,1,1,48,47,1292918224
65,14,25,Jits_Pract_5,2,5,80,127,1292981712
65,14,25,Jits_Pract_5,3,5,56,103,1292991984
65,14,25,Jits_Pract_5,0,5,63,98,1293451740
65,14,25,Jits_Pract_5,1,1,48,44,1293482208
65,14,25,Jits_Pract_5,2,5,56,103,1293491744
65,14,25,Jits_Pract_5,3,5,80,127,1293494808
65,14,25,Jits_Pract_5,0,5,56,103,1293912464
65,14,25,Jits_Pract_5,1,5,63,98,1293921760
65,14,25,Jits_Pract_5,2,5,80,127,1293961700
65,14,25,Jits_Pract_5,3,1,48,43,1293987964
65,14,25,Jits_Pract_5,0,5,56,103,1294401976
65,14,25,Jits_Pract_5,1,5,63,98,1294404968
65,14,25,Jits_Pract_5,2,5,80,127,1294422360
65,14,25,Jits_Pract_5,3,1,48,47,1294428620
65,14,25,Jits_Pract_5,0,9999,9999,9999,1287699556
65,14,25,Jits_Pract_5,1,9999,9999,9999,1288199272
65,14,25,Jits_Pract_5,2,9999,9999,9999,1288699960
65,14,25,Jits_Pract_5,3,9999,9999,9999,1289199676
65,14,25,Jits_Pract_5,4,9999,9999,9999,1289699444
65,14,25,Jits_Pract_5,5,9999,9999,9999,1290199140
65,14,25,Jits_Pract_5,6,9999,9999,9999,1290699828
65,14,25,Jits_Pract_5,7,9999,9999,9999,1291199608
65,14,25,Jits_Pract_5,8,9999,9999,9999,1291699316
65,14,25,Jits_Pract_5,9,9999,9999,9999,1292199996
65,14,25,Jits_Pract_5,10,9999,9999,9999,1292699760
65,14,25,Jits_Pract_5,11,9999,9999,9999,1293199464
65,14,25,Jits_Pract_5,12,9999,9999,9999,1293699152
65,14,25,Jits_Pract_5,13,9999,9999,9999,1294199884
65,14,25,Jits_Pract_5,14,9999,9999,9999,1294699576
65,15,7,Jits_ISO_8,0,5,56,103,1324623240
65,15,7,Jits_ISO_8,1,5,63,98,1324626336
65,15,7,Jits_ISO_8,2,5,80,127,1324629536
65,15,7,Jits_ISO_8,0,1,48,39,1325240916
65,15,7,Jits_ISO_8,1,5,56,103,1325422920
65,15,7,Jits_ISO_8,2,5,63,98,1325426088
65,15,7,Jits_ISO_8,3,5,80,127,1325429140
65,15,7,Jits_ISO_8,0,1,48,55,1326140112
65,15,7,Jits_ISO_8,1,5,80,127,1326163372
65,15,7,Jits_ISO_8,2,5,63,98,1326253348
65,15,7,Jits_ISO_8,3,5,56,103,1326262644
65,15,7,Jits_ISO_8,0,1,48,47,1326967248
65,15,7,Jits_ISO_8,1,5,56,103,1326982564
65,15,7,Jits_ISO_8,2,5,63,98,1326992836
65,15,7,Jits_ISO_8,3,5,80,127,1327083204
65,15,7,Jits_ISO_8,0,1,48,54,1327748072
65,15,7,Jits_ISO_8,1,5,63,98,1327752456
65,15,7,Jits_ISO_8,2,5,80,127,1327783180
65,15,7,Jits_ISO_8,3,1,48,33,1327794528
65,15,7,Jits_ISO_8,4,5,56,103,1327812980
65,15,7,Jits_ISO_8,0,1,48,41,1328535868
65,15,7,Jits_ISO_8,1,5,56,103,1328553352
65,15,7,Jits_ISO_8,2,5,80,127,1328652868
65,15,7,Jits_ISO_8,3,5,63,98,1328703068
65,15,7,Jits_ISO_8,0,5,56,103,1329352924
65,15,7,Jits_ISO_8,1,1,48,47,1329392036
65,15,7,Jits_ISO_8,2,5,80,127,1329403148
65,15,7,Jits_ISO_8,3,5,63,98,1329443160
65,15,7,Jits_ISO_8,0,1,48,49,1330161632
65,15,7,Jits_ISO_8,1,5,80,127,1330182412
65,15,7,Jits_ISO_8,2,5,63,98,1330213136
65,15,7,Jits_ISO_8,3,5,56,103,1330282948
65,15,7,Jits_ISO_8,0,5,63,98,1331012920
65,15,7,Jits_ISO_8,1,1,48,50,1331040476
65,15,7,Jits_ISO_8,2,5,56,103,1331042960
65,15,7,Jits_ISO_8,3,1,48,30,1331089516
65,15,7,Jits_ISO_8,4,5,80,127,1331103184
65,15,7,Jits_ISO_8,0,5,56,103,1331753292
65,15,7,Jits_ISO_8,1,5,80,127,1331756284
65,15,7,Jits_ISO_8,2,1,48,44,1331844064
65,15,7,Jits_ISO_8,3,5,63,98,1331873088
65,15,7,Jits_ISO_8,0,1,48,50,1332589824
65,15,7,Jits_ISO_8,1,5,56,103,1332632940
65,15,7,Jits_ISO_8,2,1,48,26,1332646680
65,15,7,Jits_ISO_8,3,5,80,127,1332672784
65,15,7,Jits_ISO_8,4,5,63,98,1332683056
65,15,7,Jits_ISO_8,0,5,56,103,1333392652
65,15,7,Jits_ISO_8,1,1,48,41,1333406784
65,15,7,Jits_ISO_8,2,5,80,127,1333413180
65,15,7,Jits_ISO_8,3,5,63,98,1333493148
65,15,7,Jits_ISO_8,0,5,80,127,1334183160
65,15,7,Jits_ISO_8,1,1,48,51,1334262500
65,15,7,Jits_ISO_8,2,5,56,103,1334282900
65,15,7,Jits_ISO_8,3,5,63,98,1334292948
65,15,7,Jits_ISO_8,0,5,63,98,1334953212
65,15,7,Jits_ISO_8,1,5,80,127,1335012808
65,15,7,Jits_ISO_8,2,1,48,51,1335019140
65,15,7,Jits_ISO_8,3,5,56,103,1335022848
65,15,7,Jits_ISO_8,0,1,48,42,1335714300
65,15,7,Jits_ISO_8,1,5,56,103,1335753060
65,15,7,Jits_ISO_8,2,5,63,98,1335822752
65,15,7,Jits_ISO_8,3,5,80,127,1335826116
65,15,7,Jits_ISO_8,0,1,48,47,1336426932
65,15,7,Jits_ISO_8,1,5,63,98,1336582664
65,15,7,Jits_ISO_8,2,5,56,103,1336632716
65,15,7,Jits_ISO_8,3,5,80,127,1336635856
65,15,7,Jits_ISO_8,0,1,48,46,1337153284
65,15,7,Jits_ISO_8,1,5,56,103,1337343548
65,15,7,Jits_ISO_8,2,5,80,127,1337346616
65,15,7,Jits_ISO_8,3,5,63,98,1337432560
65,15,7,Jits_ISO_8,0,1,48,38,1338105840
65,15,7,Jits_ISO_8,1,5,63,98,1338182968
65,15,7,Jits_ISO_8,2,5,56,103,1338273088
65,15,7,Jits_ISO_8,3,5,80,127,1338302840
65,15,7,Jits_ISO_8,0,1,48,49,1338968032
65,15,7,Jits_ISO_8,1,5,56,103,1338972788
65,15,7,Jits_ISO_8,2,1,48,31,1339011784
65,15,7,Jits_ISO_8,3,5,63,98,1339072796
65,15,7,Jits_ISO_8,4,5,80,127,1339102792
65,15,7,Jits_ISO_8,0,1,48,50,1339790144
65,15,7,Jits_ISO_8,1,5,63,98,1339792880
65,15,7,Jits_ISO_8,2,5,56,103,1339802928
65,15,7,Jits_ISO_8,3,5,80,127,1339893068
65,15,7,Jits_ISO_8,0,1,48,49,1340546184
65,15,7,Jits_ISO_8,1,5,63,98,1340613044
65,15,7,Jits_ISO_8,2,5,56,103,1340692852
65,15,7,Jits_ISO_8,3,5,80,127,1340695992
65,15,7,Jits_ISO_8,0,1,48,48,1341336520
65,15,7,Jits_ISO_8,1,5,80,127,1341372740
65,15,7,Jits_ISO_8,2,5,63,98,1341393200
65,15,7,Jits_ISO_8,3,5,56,103,1341452704
65,15,7,Jits_ISO_8,0,1,48,50,1342189820
65,15,7,Jits_ISO_8,1,5,56,103,1342212560
65,15,7,Jits_ISO_8,2,5,63,98,1342232940
65,15,7,Jits_ISO_8,3,5,80,127,1342236232
65,15,7,Jits_ISO_8,0,5,63,98,1342952700
65,15,7,Jits_ISO_8,1,1,48,46,1342999040
65,15,7,Jits_ISO_8,2,5,80,127,1343032568
65,15,7,Jits_ISO_8,3,5,56,103,1343043060
65,15,7,Jits_ISO_8,0,5,63,98,1343773160
65,15,7,Jits_ISO_8,1,1,48,44,1343780540
65,15,7,Jits_ISO_8,2,5,56,103,1343792788
65,15,7,Jits_ISO_8,3,5,80,127,1343842696
65,15,7,Jits_ISO_8,0,5,80,127,1344572868
65,15,7,Jits_ISO_8,1,1,48,40,1344590888
65,15,7,Jits_ISO_8,2,5,63,98,1344612876
65,15,7,Jits_ISO_8,3,5,56,103,1344633184
65,15,7,Jits_ISO_8,0,5,56,103,1345412596
65,15,7,Jits_ISO_8,1,5,63,98,1345422716
65,15,7,Jits_ISO_8,2,1,48,42,1345431688
65,15,7,Jits_ISO_8,3,5,80,127,1345443316
65,15,7,Jits_ISO_8,0,5,56,103,1346142492
65,15,7,Jits_ISO_8,1,1,48,39,1346177668
65,15,7,Jits_ISO_8,2,5,63,98,1346232696
65,15,7,Jits_ISO_8,3,5,80,127,1346293092
65,15,7,Jits_ISO_8,0,1,48,43,1346966072
65,15,7,Jits_ISO_8,1,5,80,127,1346972996
65,15,7,Jits_ISO_8,2,5,56,103,1346983416
65,15,7,Jits_ISO_8,3,5,63,98,1347052824
65,15,7,Jits_ISO_8,0,1,48,53,1347750636
65,15,7,Jits_ISO_8,1,5,63,98,1347802696
65,15,7,Jits_ISO_8,2,1,48,27,1347809320
65,15,7,Jits_ISO_8,3,5,80,127,1347892588
65,15,7,Jits_ISO_8,4,5,56,103,1347902768
65,15,7,Jits_ISO_8,0,5,63,98,1348542900
65,15,7,Jits_ISO_8,1,5,80,127,1348592904
65,15,7,Jits_ISO_8,2,1,48,37,1348605684
65,15,7,Jits_ISO_8,3,5,56,103,1348653584
65,15,7,Jits_ISO_8,0,5,56,103,1349373496
65,15,7,Jits_ISO_8,1,5,80,127,1349422652
65,15,7,Jits_ISO_8,2,1,48,51,1349441608
65,15,7,Jits_ISO_8,3,5,63,98,1349443104
65,15,7,Jits_ISO_8,0,5,56,103,1350143624
65,15,7,Jits_ISO_8,1,5,80,127,1350202672
65,15,7,Jits_ISO_8,2,5,63,98,1350273548
65,15,7,Jits_ISO_8,3,1,48,50,1350276372
65,15,7,Jits_ISO_8,0,5,56,103,1350943196
65,15,7,Jits_ISO_8,1,5,80,127,1350972872
65,15,7,Jits_ISO_8,2,5,63,98,1351002696
65,15,7,Jits_ISO_8,3,1,48,40,1351076604
65,15,7,Jits_ISO_8,0,5,56,103,1351782848
65,15,7,Jits_ISO_8,1,5,80,127,1351803380
65,15,7,Jits_ISO_8,2,1,48,48,1351837140
65,15,7,Jits_ISO_8,3,5,63,98,1351862568
65,15,7,Jits_ISO_8,0,1,48,43,1352578260
65,15,7,Jits_ISO_8,1,5,80,127,1352663576
65,15,7,Jits_ISO_8,2,5,56,103,1352672640
65,15,7,Jits_ISO_8,3,5,63,98,1352682908
65,15,7,Jits_ISO_8,0,5,56,103,1353423264
65,15,7,Jits_ISO_8,1,1,48,56,1353425860
65,15,7,Jits_ISO_8,2,5,80,127,1353463524
65,15,7,Jits_ISO_8,3,1,48,27,1353489628
65,15,7,Jits_ISO_8,4,5,63,98,1353492808
65,15,7,Jits_ISO_8,0,5,56,103,1354193400
65,15,7,Jits_ISO_8,1,1,48,49,1354206412
65,15,7,Jits_ISO_8,2,5,63,98,1354223068
65,15,7,Jits_ISO_8,3,5,80,127,1354262936
65,15,7,Jits_ISO_8,0,5,80,127,1354942976
65,15,7,Jits_ISO_8,1,1,48,53,1354977808
65,15,7,Jits_ISO_8,2,5,63,98,1354993124
65,15,7,Jits_ISO_8,3,5,56,103,1355012684
65,15,7,Jits_ISO_8,4,1,48,28,1355030460
65,15,7,Jits_ISO_8,0,1,48,50,1355705496
65,15,7,Jits_ISO_8,1,5,56,103,1355773500
65,15,7,Jits_ISO_8,2,5,80,127,1355842872
65,15,7,Jits_ISO_8,3,5,63,98,1355903560
65,15,7,Jits_ISO_8,0,1,48,54,1356517288
65,15,7,Jits_ISO_8,1,5,80,127,1356572992
65,15,7,Jits_ISO_8,2,5,63,98,1356663412
65,15,7,Jits_ISO_8,3,5,56,103,1356682600
65,15,7,Jits_ISO_8,0,1,48,54,1357309728
65,15,7,Jits_ISO_8,1,1,48,33,1357350916
65,15,7,Jits_ISO_8,2,5,63,98,1357393284
65,15,7,Jits_ISO_8,3,5,56,103,1357412696
65,15,7,Jits_ISO_8,4,5,80,127,1357452544
65,15,7,Jits_ISO_8,0,1,48,51,1358119772
65,15,7,Jits_ISO_8,1,5,80,127,1358153004
65,15,7,Jits_ISO_8,2,5,63,98,1358172640
65,15,7,Jits_ISO_8,3,5,56,103,1358253392
65,15,7,Jits_ISO_8,0,1,48,46,1358911324
65,15,7,Jits_ISO_8,1,5,63,98,1358942520
65,15,7,Jits_ISO_8,2,5,56,103,1359053164
65,15,7,Jits_ISO_8,3,5,80,127,1359056452
65,15,7,Jits_ISO_8,0,1,48,50,1359691096
65,15,7,Jits_ISO_8,1,1,48,29,1359750020
65,15,7,Jits_ISO_8,2,5,63,98,1359762796
65,15,7,Jits_ISO_8,3,5,56,103,1359772992
65,15,7,Jits_ISO_8,4,5,80,127,1359776204
65,15,7,Jits_ISO_8,0,1,48,49,1360452420
65,15,7,Jits_ISO_8,1,5,56,103,1360543328
65,15,7,Jits_ISO_8,2,5,80,127,1360662772
65,15,7,Jits_ISO_8,3,5,63,98,1360702712
65,15,7,Jits_ISO_8,0,5,56,103,1361363524
65,15,7,Jits_ISO_8,1,1,48,49,1361443172
65,15,7,Jits_ISO_8,2,5,80,127,1361444508
65,15,7,Jits_ISO_8,3,5,63,98,1361462580
65,15,7,Jits_ISO_8,0,5,56,103,1362163248
65,15,7,Jits_ISO_8,1,1,48,43,1362260684
65,15,7,Jits_ISO_8,2,5,63,98,1362272556
65,15,7,Jits_ISO_8,3,5,80,127,1362275772
65,15,7,Jits_ISO_8,0,5,56,103,1362992560
65,15,7,Jits_ISO_8,1,5,80,127,1363023432
65,15,7,Jits_ISO_8,2,5,63,98,1363042692
65,15,7,Jits_ISO_8,3,1,48,48,1363043732
65,15,7,Jits_ISO_8,0,5,63,98,1363772728
65,15,7,Jits_ISO_8,1,5,56,103,1363783220
65,15,7,Jits_ISO_8,2,5,80,127,1363793416
65,15,7,Jits_ISO_8,3,1,48,47,1363796088
65,15,7,Jits_ISO_8,0,5,80,127,1364563360
65,15,7,Jits_ISO_8,1,1,48,49,1364584164
65,15,7,Jits_ISO_8,2,5,56,103,1364612512
65,15,7,Jits_ISO_8,3,5,63,98,1364653424
65,15,7,Jits_ISO_8,0,1,48,51,1365332632
65,15,7,Jits_ISO_8,1,5,80,127,1365382480
65,15,7,Jits_ISO_8,2,5,63,98,1365402940
65,15,7,Jits_ISO_8,3,5,56,103,1365453200
65,15,7,Jits_ISO_8,0,1,48,54,1366108728
65,15,7,Jits_ISO_8,1,5,80,127,1366192452
65,15,7,Jits_ISO_8,2,5,56,103,1366223456
65,15,7,Jits_ISO_8,3,5,63,98,1366292868
65,15,7,Jits_ISO_8,0,1,48,47,1366945980
65,15,7,Jits_ISO_8,1,5,56,103,1367043344
65,15,7,Jits_ISO_8,2,5,80,127,1367052716
65,15,7,Jits_ISO_8,3,5,63,98,1367092580
65,15,7,Jits_ISO_8,0,5,56,103,1367753144
65,15,7,Jits_ISO_8,1,5,63,98,1367772584
65,15,7,Jits_ISO_8,2,5,80,127,1367843236
65,15,7,Jits_ISO_8,3,1,48,51,1367885984
65,15,7,Jits_ISO_8,0,5,63,98,1368573268
65,15,7,Jits_ISO_8,1,5,80,127,1368632540
65,15,7,Jits_ISO_8,2,1,48,51,1368646820
65,15,7,Jits_ISO_8,3,5,56,103,1368653216
65,15,7,Jits_ISO_8,0,5,80,127,1369362864
65,15,7,Jits_ISO_8,1,5,56,103,1369392392
65,15,7,Jits_ISO_8,2,5,63,98,1369423336
65,15,7,Jits_ISO_8,3,1,48,55,1369476276
65,15,7,Jits_ISO_8,0,5,56,103,1370162436
65,15,7,Jits_ISO_8,1,5,63,98,1370222900
65,15,7,Jits_ISO_8,2,1,48,56,1370277408
65,15,7,Jits_ISO_8,3,5,80,127,1370283432
65,15,7,Jits_ISO_8,4,1,48,31,1370323868
65,15,7,Jits_ISO_8,0,5,80,127,1370982756
65,15,7,Jits_ISO_8,1,5,56,103,1371003292
65,15,7,Jits_ISO_8,2,5,63,98,1371072824
65,15,7,Jits_ISO_8,3,1,48,52,1371094176
65,15,7,Jits_ISO_8,4,1,48,24,1371159092
65,15,7,Jits_ISO_8,0,5,80,127,1371782404
65,15,7,Jits_ISO_8,1,5,63,98,1371803236
65,15,7,Jits_ISO_8,2,5,56,103,1371832764
65,15,7,Jits_ISO_8,3,1,48,54,1371924452
65,15,7,Jits_ISO_8,0,5,80,127,1372572984
65,15,7,Jits_ISO_8,1,5,63,98,1372592544
65,15,7,Jits_ISO_8,2,5,56,103,1372653108
65,15,7,Jits_ISO_8,3,1,48,56,1372707764
65,15,7,Jits_ISO_8,0,5,80,127,1373372852
65,15,7,Jits_ISO_8,1,1,48,54,1373404016
65,15,7,Jits_ISO_8,2,5,56,103,1373473048
65,15,7,Jits_ISO_8,3,5,63,98,1373502708
65,15,7,Jits_ISO_8,0,5,63,98,1374163388
65,15,7,Jits_ISO_8,1,1,48,54,1374202104
65,15,7,Jits_ISO_8,2,5,80,127,1374212536
65,15,7,Jits_ISO_8,3,5,56,103,1374232996
65,15,7,Jits_ISO_8,4,1,48,34,1374242100
65,15,7,Jits_ISO_8,0,1,48,55,1374976912
65,15,7,Jits_ISO_8,1,5,80,127,1375003244
65,15,7,Jits_ISO_8,2,5,56,103,1375032540
65,15,7,Jits_ISO_8,3,5,63,98,1375035612
65,15,7,Jits_ISO_8,0,1,48,60,1375728136
65,15,7,Jits_ISO_8,1,1,48,39,1375766028
65,15,7,Jits_ISO_8,2,5,63,98,1375832444
65,15,7,Jits_ISO_8,3,5,56,103,1375873416
65,15,7,Jits_ISO_8,4,5,80,127,1375893048
65,15,7,Jits_ISO_8,0,1,48,57,1376493620
65,15,7,Jits_ISO_8,1,5,80,127,1376572764
65,15,7,Jits_ISO_8,2,5,63,98,1376652624
65,15,7,Jits_ISO_8,3,5,56,103,1376692488
65,15,7,Jits_ISO_8,0,1,48,56,1377297364
65,15,7,Jits_ISO_8,1,1,48,33,1377344852
65,15,7,Jits_ISO_8,2,5,63,98,1377393052
65,15,7,Jits_ISO_8,3,5,80,127,1377472984
65,15,7,Jits_ISO_8,4,5,56,103,1377493244
65,15,7,Jits_ISO_8,0,1,48,60,1378100984
65,15,7,Jits_ISO_8,1,1,48,40,1378141044
65,15,7,Jits_ISO_8,2,5,56,103,1378232624
65,15,7,Jits_ISO_8,3,5,63,98,1378243104
65,15,7,Jits_ISO_8,4,5,80,127,1378282992
65,15,7,Jits_ISO_8,0,5,56,103,1378952412
65,15,7,Jits_ISO_8,1,5,80,127,1378955480
65,15,7,Jits_ISO_8,2,1,48,65,1378962280
65,15,7,Jits_ISO_8,3,1,48,40,1379004512
65,15,7,Jits_ISO_8,4,5,63,98,1379092960
65,15,7,Jits_ISO_8,0,5,56,103,1379743208
65,15,7,Jits_ISO_8,1,1,48,62,1379760572
65,15,7,Jits_ISO_8,2,1,48,39,1379799072
65,15,7,Jits_ISO_8,3,5,63,98,1379833116
65,15,7,Jits_ISO_8,4,5,80,127,1379902856
65,15,7,Jits_ISO_8,0,1,48,61,1380606080
65,15,7,Jits_ISO_8,1,5,63,98,1380622664
65,15,7,Jits_ISO_8,2,5,80,127,1380626104
65,15,7,Jits_ISO_8,3,1,48,32,1380651548
65,15,7,Jits_ISO_8,4,5,56,103,1380683108
65,15,7,Jits_ISO_8,0,1,48,63,1381403836
65,15,7,Jits_ISO_8,1,1,48,32,1381451320
65,15,7,Jits_ISO_8,2,5,80,127,1381463476
65,15,7,Jits_ISO_8,3,5,56,103,1381482964
65,15,7,Jits_ISO_8,4,5,63,98,1381493012
65,15,7,Jits_ISO_8,0,5,56,103,1382173092
65,15,7,Jits_ISO_8,1,5,63,98,1382183212
65,15,7,Jits_ISO_8,2,1,48,61,1382187976
65,15,7,Jits_ISO_8,3,1,48,37,1382232616
65,15,7,Jits_ISO_8,4,5,80,127,1382253088
65,15,7,Jits_ISO_8,0,1,48,54,1382960028
65,15,7,Jits_ISO_8,1,5,80,127,1382972804
65,15,7,Jits_ISO_8,2,1,48,30,1383009616
65,15,7,Jits_ISO_8,3,5,56,103,1383022988
65,15,7,Jits_ISO_8,4,5,63,98,1383073040
65,15,7,Jits_ISO_8,0,1,48,48,1383734048
65,15,7,Jits_ISO_8,1,5,56,103,1383853412
65,15,7,Jits_ISO_8,2,5,63,98,1383862564
65,15,7,Jits_ISO_8,3,5,80,127,1383902676
65,15,7,Jits_ISO_8,0,5,56,103,1384592836
65,15,7,Jits_ISO_8,1,1,48,53,1384617160
65,15,7,Jits_ISO_8,2,5,63,98,1384632548
65,15,7,Jits_ISO_8,3,1,48,33,1384667812
65,15,7,Jits_ISO_8,4,5,80,127,1384682828
65,15,7,Jits_ISO_8,0,5,80,127,1385352476
65,15,7,Jits_ISO_8,1,5,56,103,1385402828
65,15,7,Jits_ISO_8,2,1,48,50,1385420248
65,15,7,Jits_ISO_8,3,5,63,98,1385423208
65,15,7,Jits_ISO_8,0,1,48,54,1386159420
65,15,7,Jits_ISO_8,1,5,80,127,1386162676
65,15,7,Jits_ISO_8,2,5,63,98,1386222868
65,15,7,Jits_ISO_8,3,5,56,103,1386302948
65,15,7,Jits_ISO_8,0,5,80,127,1386942984
65,15,7,Jits_ISO_8,1,1,48,59,1386961324
65,15,7,Jits_ISO_8,2,5,56,103,1386982844
65,15,7,Jits_ISO_8,3,5,63,98,1387003156
65,15,7,Jits_ISO_8,4,1,48,34,1387011212
65,15,7,Jits_ISO_8,0,1,48,57,1387731140
65,15,7,Jits_ISO_8,1,5,56,103,1387792892
65,15,7,Jits_ISO_8,2,5,80,127,1387803016
65,15,7,Jits_ISO_8,3,5,63,98,1387842940
65,15,7,Jits_ISO_8,0,1,48,51,1388517340
65,15,7,Jits_ISO_8,1,5,56,103,1388663016
65,15,7,Jits_ISO_8,2,5,63,98,1388703104
65,15,7,Jits_ISO_8,3,5,80,127,1388706392
65,15,7,Jits_ISO_8,0,1,48,48,1389341416
65,15,7,Jits_ISO_8,1,5,63,98,1389353200
65,15,7,Jits_ISO_8,2,5,80,127,1389393216
65,15,7,Jits_ISO_8,3,5,56,103,1389463032
65,15,7,Jits_ISO_8,0,5,63,98,1390143172
65,15,7,Jits_ISO_8,1,1,48,46,1390148460
65,15,7,Jits_ISO_8,2,5,56,103,1390222892
65,15,7,Jits_ISO_8,3,5,80,127,1390283044
65,15,7,Jits_ISO_8,0,5,80,127,1390952996
65,15,7,Jits_ISO_8,1,1,48,44,1390972984
65,15,7,Jits_ISO_8,2,5,63,98,1391002896
65,15,7,Jits_ISO_8,3,5,56,103,1391032868
65,15,7,Jits_ISO_8,0,5,56,103,1391743276
65,15,7,Jits_ISO_8,1,1,48,41,1391767600
65,15,7,Jits_ISO_8,2,5,63,98,1391792428
65,15,7,Jits_ISO_8,3,5,80,127,1391802848
65,15,7,Jits_ISO_8,0,1,48,51,1392530516
65,15,7,Jits_ISO_8,1,5,56,103,1392553328
65,15,7,Jits_ISO_8,2,5,63,98,1392662956
65,15,7,Jits_ISO_8,3,5,80,127,1392683340
65,15,7,Jits_ISO_8,0,1,48,51,1393321552
65,15,7,Jits_ISO_8,1,5,63,98,1393353040
65,15,7,Jits_ISO_8,2,5,80,127,1393403120
65,15,7,Jits_ISO_8,3,5,56,103,1393493312
65,15,7,Jits_ISO_8,0,1,48,51,1394094652
65,15,7,Jits_ISO_8,1,5,63,98,1394142732
65,15,7,Jits_ISO_8,2,5,80,127,1394173232
65,15,7,Jits_ISO_8,3,5,56,103,1394263348
65,15,7,Jits_ISO_8,0,1,48,54,1394917228
65,15,7,Jits_ISO_8,1,5,63,98,1394943332
65,15,7,Jits_ISO_8,2,5,56,103,1394952556
65,15,7,Jits_ISO_8,3,5,80,127,1395052864
65,15,7,Jits_ISO_8,0,1,48,54,1395697152
65,15,7,Jits_ISO_8,1,5,63,98,1395842448
65,15,7,Jits_ISO_8,2,5,80,127,1395873244
65,15,7,Jits_ISO_8,3,5,56,103,1395902996
65,15,7,Jits_ISO_8,0,1,48,55,1396578908
65,15,7,Jits_ISO_8,1,5,80,127,1396662932
65,15,7,Jits_ISO_8,2,5,63,98,1396672756
65,15,7,Jits_ISO_8,3,5,56,103,1396702592
65,15,7,Jits_ISO_8,0,5,80,127,1397363008
65,15,7,Jits_ISO_8,1,5,63,98,1397382568
65,15,7,Jits_ISO_8,2,5,56,103,1397432772
65,15,7,Jits_ISO_8,3,1,48,43,1397438508
65,15,7,Jits_ISO_8,0,5,63,98,1398192472
65,15,7,Jits_ISO_8,1,1,48,60,1398246636
65,15,7,Jits_ISO_8,2,5,80,127,1398252808
65,15,7,Jits_ISO_8,3,5,56,103,1398273268
65,15,7,Jits_ISO_8,0,5,63,98,1398953368
65,15,7,Jits_ISO_8,1,5,56,103,1399002552
65,15,7,Jits_ISO_8,2,1,48,51,1399008664
65,15,7,Jits_ISO_8,3,5,80,127,1399012892
65,15,7,Jits_ISO_8,0,5,56,103,1399782844
65,15,7,Jits_ISO_8,1,5,80,127,1399792968
65,15,7,Jits_ISO_8,2,1,48,50,1399815640
65,15,7,Jits_ISO_8,3,5,63,98,1399893280
65,15,7,Jits_ISO_8,0,5,80,127,1400542780
65,15,7,Jits_ISO_8,1,5,63,98,1400552756
65,15,7,Jits_ISO_8,2,1,48,57,1400564264
65,15,7,Jits_ISO_8,3,5,56,103,1400703396
65,15,7,Jits_ISO_8,0,1,48,49,1401305756
65,15,7,Jits_ISO_8,1,5,63,98,1401352760
65,15,7,Jits_ISO_8,2,5,80,127,1401392480
65,15,7,Jits_ISO_8,3,5,56,103,1401473380
65,15,7,Jits_ISO_8,0,1,48,60,1402033588
65,15,7,Jits_ISO_8,1,5,56,103,1402143160
65,15,7,Jits_ISO_8,2,5,80,127,1402242292
65,15,7,Jits_ISO_8,3,5,63,98,1402262900
65,15,7,Jits_ISO_8,0,1,48,55,1402819276
65,15,7,Jits_ISO_8,1,5,80,127,1403003184
65,15,7,Jits_ISO_8,2,5,56,103,1403012484
65,15,7,Jits_ISO_8,3,5,63,98,1403102792
65,15,7,Jits_ISO_8,0,1,48,50,1403793972
65,15,7,Jits_ISO_8,1,5,56,103,1403802988
65,15,7,Jits_ISO_8,2,5,63,98,1403822624
65,15,7,Jits_ISO_8,3,5,80,127,1403903548
65,15,7,Jits_ISO_8,0,5,63,98,1404552732
65,15,7,Jits_ISO_8,1,1,48,56,1404615864
65,15,7,Jits_ISO_8,2,5,56,103,1404642580
65,15,7,Jits_ISO_8,3,5,80,127,1404645876
65,15,7,Jits_ISO_8,0,5,56,103,1405383000
65,15,7,Jits_ISO_8,1,5,80,127,1405442592
65,15,7,Jits_ISO_8,2,5,63,98,1405452640
65,15,7,Jits_ISO_8,3,1,48,54,1405477332
65,15,7,Jits_ISO_8,0,5,80,127,1406232876
65,15,7,Jits_ISO_8,1,5,56,103,1406243144
65,15,7,Jits_ISO_8,2,5,63,98,1406246284
65,15,7,Jits_ISO_8,3,1,48,52,1406286944
65,15,7,Jits_ISO_8,0,5,56,103,1406992884
65,15,7,Jits_ISO_8,1,5,80,127,1407003008
65,15,7,Jits_ISO_8,2,1,48,53,1407013696
65,15,7,Jits_ISO_8,3,5,63,98,1407022560
65,15,7,Jits_ISO_8,0,5,63,98,1407762788
65,15,7,Jits_ISO_8,1,5,80,127,1407823476
65,15,7,Jits_ISO_8,2,1,48,48,1407830652
65,15,7,Jits_ISO_8,3,5,56,103,1407873672
65,15,7,Jits_ISO_8,0,1,48,54,1408596772
65,15,7,Jits_ISO_8,1,5,63,98,1408642508
65,15,7,Jits_ISO_8,2,5,56,103,1408652632
65,15,7,Jits_ISO_8,3,5,80,127,1408702816
65,15,7,Jits_ISO_8,0,5,63,98,1409342880
65,15,7,Jits_ISO_8,1,5,80,127,1409363268
65,15,7,Jits_ISO_8,2,5,56,103,1409372716
65,15,7,Jits_ISO_8,3,1,48,54,1409500600
65,15,7,Jits_ISO_8,0,5,63,98,1410142580
65,15,7,Jits_ISO_8,1,5,80,127,1410145720
65,15,7,Jits_ISO_8,2,5,56,103,1410182668
65,15,7,Jits_ISO_8,3,1,48,49,1410272940
65,15,7,Jits_ISO_8,0,5,63,98,1411013000
65,15,7,Jits_ISO_8,1,1,48,53,1411042100
65,15,7,Jits_ISO_8,2,5,80,127,1411043668
65,15,7,Jits_ISO_8,3,5,56,103,1411052816
65,15,7,Jits_ISO_8,0,5,56,103,1411762512
65,15,7,Jits_ISO_8,1,1,48,56,1411768400
65,15,7,Jits_ISO_8,2,5,80,127,1411793180
65,15,7,Jits_ISO_8,3,1,48,35,1411806620
65,15,7,Jits_ISO_8,4,5,63,98,1411822984
65,15,7,Jits_ISO_8,0,1,48,55,1412541600
65,15,7,Jits_ISO_8,1,5,63,98,1412662704
65,15,7,Jits_ISO_8,2,5,56,103,1412702644
65,15,7,Jits_ISO_8,3,5,80,127,1412705708
65,15,7,Jits_ISO_8,0,5,80,127,1413363012
65,15,7,Jits_ISO_8,1,1,48,53,1413414604
65,15,7,Jits_ISO_8,2,5,56,103,1413442804
65,15,7,Jits_ISO_8,3,5,63,98,1413493004
65,15,7,Jits_ISO_8,0,5,80,127,1414143628
65,15,7,Jits_ISO_8,1,5,56,103,1414162744
65,15,7,Jits_ISO_8,2,1,48,58,1414224452
65,15,7,Jits_ISO_8,3,5,63,98,1414252872
65,15,7,Jits_ISO_8,0,5,80,127,1414982912
65,15,7,Jits_ISO_8,1,5,63,98,1415022928
65,15,7,Jits_ISO_8,2,1,48,52,1415051748
65,15,7,Jits_ISO_8,3,5,56,103,1415062860
65,15,7,Jits_ISO_8,0,5,63,98,1415753116
65,15,7,Jits_ISO_8,1,5,80,127,1415812536
65,15,7,Jits_ISO_8,2,5,56,103,1415843556
65,15,7,Jits_ISO_8,3,1,48,57,1415893676
65,15,7,Jits_ISO_8,0,5,56,103,1416552748
65,15,7,Jits_ISO_8,1,5,80,127,1416582576
65,15,7,Jits_ISO_8,2,5,63,98,1416672508
65,15,7,Jits_ISO_8,3,1,48,41,1416756232
65,15,7,Jits_ISO_8,0,5,56,103,1417362660
65,15,7,Jits_ISO_8,1,1,48,45,1417470532
65,15,7,Jits_ISO_8,2,5,80,127,1417473712
65,15,7,Jits_ISO_8,3,5,63,98,1417503240
65,15,7,Jits_ISO_8,0,1,48,43,1418181764
65,15,7,Jits_ISO_8,1,5,56,103,1418212824
65,15,7,Jits_ISO_8,2,5,63,98,1418273292
65,15,7,Jits_ISO_8,3,5,80,127,1418302804
65,15,7,Jits_ISO_8,0,5,56,103,1418982652
65,15,7,Jits_ISO_8,1,1,48,51,1418996628
65,15,7,Jits_ISO_8,2,5,63,98,1419053376
65,15,7,Jits_ISO_8,3,5,80,127,1419072788
65,15,7,Jits_ISO_8,0,5,80,127,1419752856
65,15,7,Jits_ISO_8,1,5,63,98,1419773540
65,15,7,Jits_ISO_8,2,1,48,57,1419794644
65,15,7,Jits_ISO_8,3,5,56,103,1419822540
65,15,7,Jits_ISO_8,4,1,48,26,1419859276
65,15,7,Jits_ISO_8,0,9999,9999,9999,1325020232
65,15,7,Jits_ISO_8,1,9999,9999,9999,1325821036
65,15,7,Jits_ISO_8,2,9999,9999,9999,1326620744
65,15,7,Jits_ISO_8,3,9999,9999,9999,1327420528
65,15,7,Jits_ISO_8,4,9999,9999,9999,1328220284
65,15,7,Jits_ISO_8,5,9999,9999,9999,1329020988
65,15,7,Jits_ISO_8,6,9999,9999,9999,1329820772
65,15,7,Jits_ISO_8,7,9999,9999,9999,1330620500
65,15,7,Jits_ISO_8,8,9999,9999,9999,1331420216
65,15,7,Jits_ISO_8,9,9999,9999,9999,1332220984
65,15,7,Jits_ISO_8,10,9999,9999,9999,1333020764
65,15,7,Jits_ISO_8,11,9999,9999,9999,1333820492
65,15,7,Jits_ISO_8,12,9999,9999,9999,1334620220
65,15,7,Jits_ISO_8,13,9999,9999,9999,1335420984
65,15,7,Jits_ISO_8,14,9999,9999,9999,1336220756
65,15,7,Jits_ISO_8,15,9999,9999,9999,1337020532
65,15,7,Jits_ISO_8,16,9999,9999,9999,1337820252
65,15,7,Jits_ISO_8,17,9999,9999,9999,1338621008
65,15,7,Jits_ISO_8,18,9999,9999,9999,1339420772
65,15,7,Jits_ISO_8,19,9999,9999,9999,1340220504
65,15,7,Jits_ISO_8,20,9999,9999,9999,1341020212
65,15,7,Jits_ISO_8,21,9999,9999,9999,1341821040
65,15,7,Jits_ISO_8,22,9999,9999,9999,1342620744
65,15,7,Jits_ISO_8,23,9999,9999,9999,1343420524
65,15,7,Jits_ISO_8,24,9999,9999,9999,1344220260
65,15,7,Jits_ISO_8,25,9999,9999,9999,1345021008
65,15,7,Jits_ISO_8,26,9999,9999,9999,1345820732
65,15,7,Jits_ISO_8,27,9999,9999,9999,1346620528
65,15,7,Jits_ISO_8,28,9999,9999,9999,1347420248
65,15,7,Jits_ISO_8,29,9999,9999,9999,1348220988
65,15,7,Jits_ISO_8,30,9999,9999,9999,1349020784
65,15,7,Jits_ISO_8,31,9999,9999,9999,1349820496
65,15,7,Jits_ISO_8,32,9999,9999,9999,1350620244
65,15,7,Jits_ISO_8,33,9999,9999,9999,1351421004
65,15,7,Jits_ISO_8,34,9999,9999,9999,1352220728
65,15,7,Jits_ISO_8,35,9999,9999,9999,1353020532
65,15,7,Jits_ISO_8,36,9999,9999,9999,1353820228
65,15,7,Jits_ISO_8,37,9999,9999,9999,1354620996
65,15,7,Jits_ISO_8,38,9999,9999,9999,1355420764
65,15,7,Jits_ISO_8,39,9999,9999,9999,1356220512
65,15,7,Jits_ISO_8,40,9999,9999,9999,1357020248
65,15,7,Jits_ISO_8,41,9999,9999,9999,1357820984
65,15,7,Jits_ISO_8,42,9999,9999,9999,1358620780
65,15,7,Jits_ISO_8,43,9999,9999,9999,1359420480
65,15,7,Jits_ISO_8,44,9999,9999,9999,1360220224
65,15,7,Jits_ISO_8,45,9999,9999,9999,1361021004
65,15,7,Jits_ISO_8,46,9999,9999,9999,1361820788
65,15,7,Jits_ISO_8,47,9999,9999,9999,1362620504
65,15,7,Jits_ISO_8,48,9999,9999,9999,1363420252
65,15,7,Jits_ISO_8,49,9999,9999,9999,1364221016
65,15,7,Jits_ISO_8,50,9999,9999,9999,1365020796
65,15,7,Jits_ISO_8,51,9999,9999,9999,1365820516
65,15,7,Jits_ISO_8,52,9999,9999,9999,1366620228
65,15,7,Jits_ISO_8,53,9999,9999,9999,1367420988
65,15,7,Jits_ISO_8,54,9999,9999,9999,1368220768
65,15,7,Jits_ISO_8,55,9999,9999,9999,1369020492
65,15,7,Jits_ISO_8,56,9999,9999,9999,1369820224
65,15,7,Jits_ISO_8,57,9999,9999,9999,1370621044
65,15,7,Jits_ISO_8,58,9999,9999,9999,1371420764
65,15,7,Jits_ISO_8,59,9999,9999,9999,1372220508
65,15,7,Jits_ISO_8,60,9999,9999,9999,1373020228
65,15,7,Jits_ISO_8,61,9999,9999,9999,1373821004
65,15,7,Jits_ISO_8,62,9999,9999,9999,1374620776
65,15,7,Jits_ISO_8,63,9999,9999,9999,1375420496
65,15,7,Jits_ISO_8,64,9999,9999,9999,1376220212
65,15,7,Jits_ISO_8,65,9999,9999,9999,1377020992
65,15,7,Jits_ISO_8,66,9999,9999,9999,1377820756
65,15,7,Jits_ISO_8,67,9999,9999,9999,1378620540
65,15,7,Jits_ISO_8,68,9999,9999,9999,1379420232
65,15,7,Jits_ISO_8,69,9999,9999,9999,1380221000
65,15,7,Jits_ISO_8,70,9999,9999,9999,1381020792
65,15,7,Jits_ISO_8,71,9999,9999,9999,1381820508
65,15,7,Jits_ISO_8,72,9999,9999,9999,1382620240
65,15,7,Jits_ISO_8,73,9999,9999,9999,1383421012
65,15,7,Jits_ISO_8,74,9999,9999,9999,1384220748
65,15,7,Jits_ISO_8,75,9999,9999,9999,1385020512
65,15,7,Jits_ISO_8,76,9999,9999,9999,1385820248
65,15,7,Jits_ISO_8,77,9999,9999,9999,1386621020
65,15,7,Jits_ISO_8,78,9999,9999,9999,1387420748
65,15,7,Jits_ISO_8,79,9999,9999,9999,1388220492
65,15,7,Jits_ISO_8,80,9999,9999,9999,1389020224
65,15,7,Jits_ISO_8,81,9999,9999,9999,1389820980
65,15,7,Jits_ISO_8,82,9999,9999,9999,1390620768
65,15,7,Jits_ISO_8,83,9999,9999,9999,1391420472
65,15,7,Jits_ISO_8,84,9999,9999,9999,1392220264
65,15,7,Jits_ISO_8,85,9999,9999,9999,1393021036
65,15,7,Jits_ISO_8,86,9999,9999,9999,1393820748
65,15,7,Jits_ISO_8,87,9999,9999,9999,1394620528
65,15,7,Jits_ISO_8,88,9999,9999,9999,1395420252
65,15,7,Jits_ISO_8,89,9999,9999,9999,1396221016
65,15,7,Jits_ISO_8,90,9999,9999,9999,1397020736
65,15,7,Jits_ISO_8,91,9999,9999,9999,1397820512
65,15,7,Jits_ISO_8,92,9999,9999,9999,1398620240
65,15,7,Jits_ISO_8,93,9999,9999,9999,1399420992
65,15,7,Jits_ISO_8,94,9999,9999,9999,1400220776
65,15,7,Jits_ISO_8,95,9999,9999,9999,1401020496
65,15,7,Jits_ISO_8,96,9999,9999,9999,1401820244
65,15,7,Jits_ISO_8,97,9999,9999,9999,1402621000
65,15,7,Jits_ISO_8,98,9999,9999,9999,1403420788
65,15,7,Jits_ISO_8,99,9999,9999,9999,1404220500
65,15,7,Jits_ISO_8,100,9999,9999,9999,1405020272
65,15,7,Jits_ISO_8,101,9999,9999,9999,1405821032
65,15,7,Jits_ISO_8,102,9999,9999,9999,1406620752
65,15,7,Jits_ISO_8,103,9999,9999,9999,1407420476
65,15,7,Jits_ISO_8,104,9999,9999,9999,1408220224
65,15,7,Jits_ISO_8,105,9999,9999,9999,1409020988
65,15,7,Jits_ISO_8,106,9999,9999,9999,1409820764
65,15,7,Jits_ISO_8,107,9999,9999,9999,1410620528
65,15,7,Jits_ISO_8,108,9999,9999,9999,1411420240
65,15,7,Jits_ISO_8,109,9999,9999,9999,1412221044
65,15,7,Jits_ISO_8,110,9999,9999,9999,1413020788
65,15,7,Jits_ISO_8,111,9999,9999,9999,1413820500
65,15,7,Jits_ISO_8,112,9999,9999,9999,1414620244
65,15,7,Jits_ISO_8,113,9999,9999,9999,1415421020
65,15,7,Jits_ISO_8,114,9999,9999,9999,1416220740
65,15,7,Jits_ISO_8,115,9999,9999,9999,1417020520
65,15,7,Jits_ISO_8,116,9999,9999,9999,1417820248
65,15,7,Jits_ISO_8,117,9999,9999,9999,1418621024
65,15,7,Jits_ISO_8,118,9999,9999,9999,1419420736
65,15,7,Jits_ISO_8,119,9999,9999,9999,1420220508
65,16,16,Jits_ISO_5,0,5,56,103,1430484168
65,16,16,Jits_ISO_5,1,5,63,98,1430487196
65,16,16,Jits_ISO_5,2,5,80,127,1430490324
65,16,16,Jits_ISO_5,0,5,56,103,1430984164
65,16,16,Jits_ISO_5,1,5,63,98,1430987184
65,16,16,Jits_ISO_5,2,5,80,127,1430990160
65,16,16,Jits_ISO_5,3,1,48,44,1431159908
65,16,16,Jits_ISO_5,0,5,56,103,1431483688
65,16,16,Jits_ISO_5,1,5,80,127,1431494032
65,16,16,Jits_ISO_5,2,5,63,98,1431513392
65,16,16,Jits_ISO_5,3,1,48,48,1431623336
65,16,16,Jits_ISO_5,0,5,63,98,1431934212
65,16,16,Jits_ISO_5,1,5,80,127,1431964036
65,16,16,Jits_ISO_5,2,5,56,103,1431974304
65,16,16,Jits_ISO_5,3,1,48,46,1432051156
65,16,16,Jits_ISO_5,0,5,80,127,1432493356
65,16,16,Jits_ISO_5,1,1,48,43,1432495064
65,16,16,Jits_ISO_5,2,5,56,103,1432503772
65,16,16,Jits_ISO_5,3,5,63,98,1432534368
65,16,16,Jits_ISO_5,0,5,63,98,1432984040
65,16,16,Jits_ISO_5,1,1,48,43,1433001016
65,16,16,Jits_ISO_5,2,5,56,103,1433013560
65,16,16,Jits_ISO_5,3,5,80,127,1433023832
65,16,16,Jits_ISO_5,0,5,56,103,1433433436
65,16,16,Jits_ISO_5,1,5,63,98,1433483712
65,16,16,Jits_ISO_5,2,1,48,43,1433487204
65,16,16,Jits_ISO_5,3,5,80,127,1433504236
65,16,16,Jits_ISO_5,0,5,80,127,1433934232
65,16,16,Jits_ISO_5,1,5,63,98,1433984360
65,16,16,Jits_ISO_5,2,1,48,43,1434003520
65,16,16,Jits_ISO_5,3,5,56,103,1434024364
65,16,16,Jits_ISO_5,0,5,56,103,1434433976
65,16,16,Jits_ISO_5,1,5,63,98,1434463576
65,16,16,Jits_ISO_5,2,1,48,48,1434487900
65,16,16,Jits_ISO_5,3,5,80,127,1434534220
65,16,16,Jits_ISO_5,0,5,56,103,1434933648
65,16,16,Jits_ISO_5,1,1,48,45,1434973708
65,16,16,Jits_ISO_5,2,5,80,127,1434993956
65,16,16,Jits_ISO_5,3,5,63,98,1435023704
65,16,16,Jits_ISO_5,0,5,56,103,1435443584
65,16,16,Jits_ISO_5,1,5,63,98,1435453784
65,16,16,Jits_ISO_5,2,1,48,47,1435475332
65,16,16,Jits_ISO_5,3,5,80,127,1435493784
65,16,16,Jits_ISO_5,0,5,63,98,1435934036
65,16,16,Jits_ISO_5,1,1,48,47,1435944948
65,16,16,Jits_ISO_5,2,5,80,127,1436014196
65,16,16,Jits_ISO_5,3,5,56,103,1436024168
65,16,16,Jits_ISO_5,0,5,63,98,1436484044
65,16,16,Jits_ISO_5,1,1,48,50,1436506192
65,16,16,Jits_ISO_5,2,5,56,103,1436524044
65,16,16,Jits_ISO_5,3,5,80,127,1436527260
65,16,16,Jits_ISO_5,0,5,56,103,1436943764
65,16,16,Jits_ISO_5,1,5,63,98,1436954332
65,16,16,Jits_ISO_5,2,1,48,49,1436988840
65,16,16,Jits_ISO_5,3,5,80,127,1436994036
65,16,16,Jits_ISO_5,0,5,56,103,1437434136
65,16,16,Jits_ISO_5,1,5,63,98,1437437132
65,16,16,Jits_ISO_5,2,1,48,46,1437453100
65,16,16,Jits_ISO_5,3,5,80,127,1437454592
65,16,16,Jits_ISO_5,0,5,80,127,1437944140
65,16,16,Jits_ISO_5,1,1,48,48,1437946580
65,16,16,Jits_ISO_5,2,5,56,103,1437954328
65,16,16,Jits_ISO_5,3,5,63,98,1438024152
65,16,16,Jits_ISO_5,0,5,63,98,1438433620
65,16,16,Jits_ISO_5,1,5,56,103,1438454228
65,16,16,Jits_ISO_5,2,1,48,48,1438487312
65,16,16,Jits_ISO_5,3,5,80,127,1438533940
65,16,16,Jits_ISO_5,0,5,56,103,1438943472
65,16,16,Jits_ISO_5,1,1,48,45,1438944436
65,16,16,Jits_ISO_5,2,5,80,127,1438983624
65,16,16,Jits_ISO_5,3,5,63,98,1438993744
65,16,16,Jits_ISO_5,0,1,48,49,1439418728
65,16,16,Jits_ISO_5,1,5,80,127,1439444256
65,16,16,Jits_ISO_5,2,5,63,98,1439474156
65,16,16,Jits_ISO_5,3,5,56,103,1439514224
65,16,16,Jits_ISO_5,0,1,48,51,1439939132
65,16,16,Jits_ISO_5,1,5,56,103,1439963540
65,16,16,Jits_ISO_5,2,5,63,98,1439994264
65,16,16,Jits_ISO_5,3,5,80,127,1440044372
65,16,16,Jits_ISO_5,0,1,48,47,1440439620
65,16,16,Jits_ISO_5,1,5,80,127,1440464176
65,16,16,Jits_ISO_5,2,5,56,103,1440504112
65,16,16,Jits_ISO_5,3,5,63,98,1440514308
65,16,16,Jits_ISO_5,0,5,80,127,1440943440
65,16,16,Jits_ISO_5,1,1,48,45,1440969180
65,16,16,Jits_ISO_5,2,5,63,98,1440984444
65,16,16,Jits_ISO_5,3,5,56,103,1441044004
65,16,16,Jits_ISO_5,0,5,56,103,1441444236
65,16,16,Jits_ISO_5,1,5,80,127,1441453384
65,16,16,Jits_ISO_5,2,1,48,46,1441456124
65,16,16,Jits_ISO_5,3,5,63,98,1441534312
65,16,16,Jits_ISO_5,0,5,80,127,1441944056
65,16,16,Jits_ISO_5,1,1,48,46,1441999856
65,16,16,Jits_ISO_5,2,5,63,98,1442004312
65,16,16,Jits_ISO_5,3,5,56,103,1442034136
65,16,16,Jits_ISO_5,0,5,56,103,1442443500
65,16,16,Jits_ISO_5,1,5,80,127,1442504040
65,16,16,Jits_ISO_5,2,1,48,47,1442506484
65,16,16,Jits_ISO_5,3,5,63,98,1442543920
65,16,16,Jits_ISO_5,0,5,56,103,1442993444
65,16,16,Jits_ISO_5,1,1,48,46,1442994484
65,16,16,Jits_ISO_5,2,5,63,98,1443003856
65,16,16,Jits_ISO_5,3,5,80,127,1443007072
65,16,16,Jits_ISO_5,0,5,80,127,1443444108
65,16,16,Jits_ISO_5,1,1,48,40,1443487084
65,16,16,Jits_ISO_5,2,5,63,98,1443534160
65,16,16,Jits_ISO_5,3,5,56,103,1443544304
65,16,16,Jits_ISO_5,0,5,56,103,1443943912
65,16,16,Jits_ISO_5,1,5,63,98,1443946860
65,16,16,Jits_ISO_5,2,5,80,127,1443950056
65,16,16,Jits_ISO_5,3,1,48,48,1444036260
65,16,16,Jits_ISO_5,0,5,80,127,1444464104
65,16,16,Jits_ISO_5,1,5,63,98,1444514228
65,16,16,Jits_ISO_5,2,1,48,38,1444529704
65,16,16,Jits_ISO_5,3,5,56,103,1444543896
65,16,16,Jits_ISO_5,0,5,56,103,1444944220
65,16,16,Jits_ISO_5,1,5,80,127,1444953444
65,16,16,Jits_ISO_5,2,1,48,43,1445020008
65,16,16,Jits_ISO_5,3,5,63,98,1445024160
65,16,16,Jits_ISO_5,0,5,56,103,1445454156
65,16,16,Jits_ISO_5,1,5,63,98,1445473864
65,16,16,Jits_ISO_5,2,1,48,46,1445491656
65,16,16,Jits_ISO_5,3,5,80,127,1445534020
65,16,16,Jits_ISO_5,0,1,48,47,1445908688
65,16,16,Jits_ISO_5,1,5,80,127,1445943780
65,16,16,Jits_ISO_5,2,5,63,98,1446014340
65,16,16,Jits_ISO_5,3,5,56,103,1446034052
65,16,16,Jits_ISO_5,0,5,80,127,1446464044
65,16,16,Jits_ISO_5,1,5,56,103,1446474092
65,16,16,Jits_ISO_5,2,1,48,42,1446475132
65,16,16,Jits_ISO_5,3,5,63,98,1446484280
65,16,16,Jits_ISO_5,0,5,80,127,1446963564
65,16,16,Jits_ISO_5,1,1,48,46,1446972760
65,16,16,Jits_ISO_5,2,5,56,103,1446983940
65,16,16,Jits_ISO_5,3,5,63,98,1447053692
65,16,16,Jits_ISO_5,0,5,56,103,1447473648
65,16,16,Jits_ISO_5,1,1,48,43,1447477888
65,16,16,Jits_ISO_5,2,5,80,127,1447504212
65,16,16,Jits_ISO_5,3,5,63,98,1447523848
65,16,16,Jits_ISO_5,0,5,63,98,1447964176
65,16,16,Jits_ISO_5,1,1,48,46,1447971188
65,16,16,Jits_ISO_5,2,5,56,103,1448024336
65,16,16,Jits_ISO_5,3,5,80,127,1448054156
65,16,16,Jits_ISO_5,0,5,63,98,1448453572
65,16,16,Jits_ISO_5,1,5,80,127,1448456860
65,16,16,Jits_ISO_5,2,1,48,43,1448475120
65,16,16,Jits_ISO_5,3,5,56,103,1448543616
65,16,16,Jits_ISO_5,0,1,48,47,1448967192
65,16,16,Jits_ISO_5,1,5,56,103,1448974036
65,16,16,Jits_ISO_5,2,5,63,98,1449004384
65,16,16,Jits_ISO_5,3,5,80,127,1449044320
65,16,16,Jits_ISO_5,0,1,48,42,1449436128
65,16,16,Jits_ISO_5,1,5,63,98,1449474440
65,16,16,Jits_ISO_5,2,5,56,103,1449514304
65,16,16,Jits_ISO_5,3,5,80,127,1449534088
65,16,16,Jits_ISO_5,0,1,48,45,1449963512
65,16,16,Jits_ISO_5,1,5,63,98,1449984364
65,16,16,Jits_ISO_5,2,5,56,103,1450024228
65,16,16,Jits_ISO_5,3,5,80,127,1450033524
65,16,16,Jits_ISO_5,0,5,80,127,1450463804
65,16,16,Jits_ISO_5,1,1,48,43,1450472848
65,16,16,Jits_ISO_5,2,5,63,98,1450534224
65,16,16,Jits_ISO_5,3,5,56,103,1450553860
65,16,16,Jits_ISO_5,0,5,56,103,1450964304
65,16,16,Jits_ISO_5,1,5,80,127,1450983940
65,16,16,Jits_ISO_5,2,1,48,40,1450984904
65,16,16,Jits_ISO_5,3,5,63,98,1451023720
65,16,16,Jits_ISO_5,0,1,48,44,1451463320
65,16,16,Jits_ISO_5,1,5,63,98,1451474304
65,16,16,Jits_ISO_5,2,5,80,127,1451493716
65,16,16,Jits_ISO_5,3,5,56,103,1451533876
65,16,16,Jits_ISO_5,0,5,63,98,1451973944
65,16,16,Jits_ISO_5,1,1,48,33,1451990792
65,16,16,Jits_ISO_5,2,5,56,103,1451993524
65,16,16,Jits_ISO_5,3,5,80,127,1452003872
65,16,16,Jits_ISO_5,0,5,80,127,1452473976
65,16,16,Jits_ISO_5,1,5,56,103,1452494140
65,16,16,Jits_ISO_5,2,5,63,98,1452523740
65,16,16,Jits_ISO_5,3,1,48,54,1452529396
65,16,16,Jits_ISO_5,0,1,48,48,1453014972
65,16,16,Jits_ISO_5,1,5,56,103,1453044140
65,16,16,Jits_ISO_5,2,5,80,127,1453047060
65,16,16,Jits_ISO_5,3,5,63,98,1453063480
65,16,16,Jits_ISO_5,0,1,48,48,1453456692
65,16,16,Jits_ISO_5,1,5,63,98,1453463836
65,16,16,Jits_ISO_5,2,5,56,103,1453493732
65,16,16,Jits_ISO_5,3,5,80,127,1453554648
65,16,16,Jits_ISO_5,0,1,48,46,1453947800
65,16,16,Jits_ISO_5,1,5,63,98,1454043832
65,16,16,Jits_ISO_5,2,5,56,103,1454053864
65,16,16,Jits_ISO_5,3,5,80,127,1454063836
65,16,16,Jits_ISO_5,0,5,56,103,1454494180
65,16,16,Jits_ISO_5,1,1,48,45,1454517600
65,16,16,Jits_ISO_5,2,5,80,127,1454523776
65,16,16,Jits_ISO_5,3,5,63,98,1454534120
65,16,16,Jits_ISO_5,0,1,48,47,1454983784
65,16,16,Jits_ISO_5,1,5,63,98,1455033928
65,16,16,Jits_ISO_5,2,5,56,103,1455043900
65,16,16,Jits_ISO_5,3,5,80,127,1455064460
65,16,16,Jits_ISO_5,0,5,56,103,1455463776
65,16,16,Jits_ISO_5,1,1,48,47,1455482184
65,16,16,Jits_ISO_5,2,5,63,98,1455524076
65,16,16,Jits_ISO_5,3,5,80,127,1455527296
65,16,16,Jits_ISO_5,0,5,80,127,1455983964
65,16,16,Jits_ISO_5,1,1,48,48,1455991792
65,16,16,Jits_ISO_5,2,5,56,103,1455994152
65,16,16,Jits_ISO_5,3,5,63,98,1456063756
65,16,16,Jits_ISO_5,0,5,80,127,1456473752
65,16,16,Jits_ISO_5,1,1,48,49,1456487132
65,16,16,Jits_ISO_5,2,5,56,103,1456544100
65,16,16,Jits_ISO_5,3,5,63,98,1456554220
65,16,16,Jits_ISO_5,0,5,63,98,1457014180
65,16,16,Jits_ISO_5,1,1,48,44,1457019320
65,16,16,Jits_ISO_5,2,5,56,103,1457024372
65,16,16,Jits_ISO_5,3,5,80,127,1457043780
65,16,16,Jits_ISO_5,0,1,48,47,1457446676
65,16,16,Jits_ISO_5,1,5,80,127,1457463788
65,16,16,Jits_ISO_5,2,5,63,98,1457524032
65,16,16,Jits_ISO_5,3,5,56,103,1457563952
65,16,16,Jits_ISO_5,0,1,48,43,1457988744
65,16,16,Jits_ISO_5,1,5,56,103,1458004428
65,16,16,Jits_ISO_5,2,5,63,98,1458013504
65,16,16,Jits_ISO_5,3,5,80,127,1458053736
65,16,16,Jits_ISO_5,0,1,48,49,1458472608
65,16,16,Jits_ISO_5,1,5,56,103,1458474344
65,16,16,Jits_ISO_5,2,5,80,127,1458504020
65,16,16,Jits_ISO_5,3,5,63,98,1458554516
65,16,16,Jits_ISO_5,0,1,48,43,1458971196
65,16,16,Jits_ISO_5,1,5,56,103,1459013936
65,16,16,Jits_ISO_5,2,5,63,98,1459053872
65,16,16,Jits_ISO_5,3,5,80,127,1459057164
65,16,16,Jits_ISO_5,0,1,48,50,1459458120
65,16,16,Jits_ISO_5,1,5,56,103,1459513592
65,16,16,Jits_ISO_5,2,5,63,98,1459524084
65,16,16,Jits_ISO_5,3,5,80,127,1459544544
65,16,16,Jits_ISO_5,0,5,56,103,1459973620
65,16,16,Jits_ISO_5,1,5,80,127,1459976540
65,16,16,Jits_ISO_5,2,1,48,40,1460000108
65,16,16,Jits_ISO_5,3,5,63,98,1460013552
65,16,16,Jits_ISO_5,0,1,48,45,1460500432
65,16,16,Jits_ISO_5,1,5,63,98,1460514104
65,16,16,Jits_ISO_5,2,5,56,103,1460543856
65,16,16,Jits_ISO_5,3,5,80,127,1460564312
65,16,16,Jits_ISO_5,0,1,48,48,1460969904
65,16,16,Jits_ISO_5,1,5,80,127,1460984172
65,16,16,Jits_ISO_5,2,5,56,103,1460994516
65,16,16,Jits_ISO_5,3,5,63,98,1461003664
65,16,16,Jits_ISO_5,0,1,48,53,1461479220
65,16,16,Jits_ISO_5,1,5,56,103,1461484048
65,16,16,Jits_ISO_5,2,5,80,127,1461523764
65,16,16,Jits_ISO_5,3,5,63,98,1461553808
65,16,16,Jits_ISO_5,0,1,48,44,1461931148
65,16,16,Jits_ISO_5,1,5,63,98,1461993896
65,16,16,Jits_ISO_5,2,5,80,127,1462004016
65,16,16,Jits_ISO_5,3,5,56,103,1462014212
65,16,16,Jits_ISO_5,0,1,48,48,1462352960
65,16,16,Jits_ISO_5,1,5,56,103,1462484468
65,16,16,Jits_ISO_5,2,5,63,98,1462553928
65,16,16,Jits_ISO_5,3,5,80,127,1462564196
65,16,16,Jits_ISO_5,0,1,48,47,1462951644
65,16,16,Jits_ISO_5,1,5,80,127,1462983972
65,16,16,Jits_ISO_5,2,5,56,103,1462994268
65,16,16,Jits_ISO_5,3,5,63,98,1463043568
65,16,16,Jits_ISO_5,0,1,48,57,1463451840
65,16,16,Jits_ISO_5,1,5,80,127,1463493964
65,16,16,Jits_ISO_5,2,5,56,103,1463554512
65,16,16,Jits_ISO_5,3,5,63,98,1463584040
65,16,16,Jits_ISO_5,0,5,56,103,1463993852
65,16,16,Jits_ISO_5,1,5,80,127,1463996844
65,16,16,Jits_ISO_5,2,1,48,44,1464024568
65,16,16,Jits_ISO_5,3,5,63,98,1464033732
65,16,16,Jits_ISO_5,0,1,48,49,1464496628
65,16,16,Jits_ISO_5,1,5,56,103,1464524076
65,16,16,Jits_ISO_5,2,5,63,98,1464553776
65,16,16,Jits_ISO_5,3,5,80,127,1464564044
65,16,16,Jits_ISO_5,0,1,48,36,1464972168
65,16,16,Jits_ISO_5,1,5,63,98,1465034076
65,16,16,Jits_ISO_5,2,5,80,127,1465044444
65,16,16,Jits_ISO_5,3,5,56,103,1465053892
65,16,16,Jits_ISO_5,0,5,80,127,1465483620
65,16,16,Jits_ISO_5,1,1,48,52,1465493564
65,16,16,Jits_ISO_5,2,5,56,103,1465533740
65,16,16,Jits_ISO_5,3,5,63,98,1465536804
65,16,16,Jits_ISO_5,0,1,48,38,1465990360
65,16,16,Jits_ISO_5,1,5,56,103,1466014068
65,16,16,Jits_ISO_5,2,5,80,127,1466033480
65,16,16,Jits_ISO_5,3,5,63,98,1466043748
65,16,16,Jits_ISO_5,0,1,48,55,1466479600
65,16,16,Jits_ISO_5,1,5,63,98,1466494396
65,16,16,Jits_ISO_5,2,5,56,103,1466523996
65,16,16,Jits_ISO_5,3,5,80,127,1466543484
65,16,16,Jits_ISO_5,0,1,48,46,1467004472
65,16,16,Jits_ISO_5,1,5,56,103,1467005664
65,16,16,Jits_ISO_5,2,5,80,127,1467013468
65,16,16,Jits_ISO_5,3,5,63,98,1467084564
65,16,16,Jits_ISO_5,0,1,48,48,1467489108
65,16,16,Jits_ISO_5,1,5,63,98,1467493716
65,16,16,Jits_ISO_5,2,5,80,127,1467533728
65,16,16,Jits_ISO_5,3,5,56,103,1467573664
65,16,16,Jits_ISO_5,0,1,48,55,1468003044
65,16,16,Jits_ISO_5,1,5,56,103,1468004612
65,16,16,Jits_ISO_5,2,5,63,98,1468014060
65,16,16,Jits_ISO_5,3,5,80,127,1468034592
65,16,16,Jits_ISO_5,0,1,48,52,1468535864
65,16,16,Jits_ISO_5,1,5,63,98,1468544500
65,16,16,Jits_ISO_5,2,5,80,127,1468563840
65,16,16,Jits_ISO_5,3,5,56,103,1468584520
65,16,16,Jits_ISO_5,0,5,56,103,1468983564
65,16,16,Jits_ISO_5,1,1,48,47,1469046840
65,16,16,Jits_ISO_5,2,5,80,127,1469063648
65,16,16,Jits_ISO_5,3,5,63,98,1469073696
65,16,16,Jits_ISO_5,0,1,48,53,1469482308
65,16,16,Jits_ISO_5,1,5,80,127,1469524508
65,16,16,Jits_ISO_5,2,5,63,98,1469533656
65,16,16,Jits_ISO_5,3,5,56,103,1469564376
65,16,16,Jits_ISO_5,0,5,63,98,1469994280
65,16,16,Jits_ISO_5,1,1,48,51,1470012016
65,16,16,Jits_ISO_5,2,5,80,127,1470034584
65,16,16,Jits_ISO_5,3,5,56,103,1470093624
65,16,16,Jits_ISO_5,0,5,63,98,1470504496
65,16,16,Jits_ISO_5,1,1,48,57,1470535264
65,16,16,Jits_ISO_5,2,5,56,103,1470553424
65,16,16,Jits_ISO_5,3,5,80,127,1470584144
65,16,16,Jits_ISO_5,0,5,80,127,1471014196
65,16,16,Jits_ISO_5,1,5,63,98,1471023568
65,16,16,Jits_ISO_5,2,1,48,51,1471031496
65,16,16,Jits_ISO_5,3,5,56,103,1471093992
65,16,16,Jits_ISO_5,0,1,48,54,1471528296
65,16,16,Jits_ISO_5,1,5,80,127,1471583768
65,16,16,Jits_ISO_5,2,5,56,103,1471593960
65,16,16,Jits_ISO_5,3,5,63,98,1471596876
65,16,16,Jits_ISO_5,0,5,56,103,1472023792
65,16,16,Jits_ISO_5,1,5,80,127,1472044772
65,16,16,Jits_ISO_5,2,5,63,98,1472053548
65,16,16,Jits_ISO_5,3,1,48,56,1472059956
65,16,16,Jits_ISO_5,0,5,63,98,1472533800
65,16,16,Jits_ISO_5,1,1,48,61,1472567036
65,16,16,Jits_ISO_5,2,5,56,103,1472573660
65,16,16,Jits_ISO_5,3,5,80,127,1472594564
65,16,16,Jits_ISO_5,0,5,63,98,1473033612
65,16,16,Jits_ISO_5,1,1,48,55,1473070364
65,16,16,Jits_ISO_5,2,5,56,103,1473093992
65,16,16,Jits_ISO_5,3,5,80,127,1473097060
65,16,16,Jits_ISO_5,0,5,56,103,1473494380
65,16,16,Jits_ISO_5,1,5,80,127,1473513864
65,16,16,Jits_ISO_5,2,5,63,98,1473553652
65,16,16,Jits_ISO_5,3,1,48,35,1473560436
65,16,16,Jits_ISO_5,0,1,48,57,1473983136
65,16,16,Jits_ISO_5,1,5,56,103,1474033980
65,16,16,Jits_ISO_5,2,5,63,98,1474053464
65,16,16,Jits_ISO_5,3,5,80,127,1474063660
65,16,16,Jits_ISO_5,0,5,80,127,1474504024
65,16,16,Jits_ISO_5,1,1,48,67,1474504988
65,16,16,Jits_ISO_5,2,5,56,103,1474533716
65,16,16,Jits_ISO_5,3,5,63,98,1474573652
65,16,16,Jits_ISO_5,0,1,48,45,1474978484
65,16,16,Jits_ISO_5,1,5,80,127,1475013880
65,16,16,Jits_ISO_5,2,5,56,103,1475033464
65,16,16,Jits_ISO_5,3,5,63,98,1475093764
65,16,16,Jits_ISO_5,0,5,56,103,1475523880
65,16,16,Jits_ISO_5,1,1,48,62,1475535860
65,16,16,Jits_ISO_5,2,5,80,127,1475544580
65,16,16,Jits_ISO_5,3,5,63,98,1475603848
65,16,16,Jits_ISO_5,0,5,80,127,1476004372
65,16,16,Jits_ISO_5,1,1,48,59,1476009360
65,16,16,Jits_ISO_5,2,5,56,103,1476013664
65,16,16,Jits_ISO_5,3,5,63,98,1476054448
65,16,16,Jits_ISO_5,0,1,48,48,1476466616
65,16,16,Jits_ISO_5,1,5,63,98,1476503808
65,16,16,Jits_ISO_5,2,5,56,103,1476543740
65,16,16,Jits_ISO_5,3,5,80,127,1476546888
65,16,16,Jits_ISO_5,0,1,48,57,1476993016
65,16,16,Jits_ISO_5,1,5,63,98,1477023984
65,16,16,Jits_ISO_5,2,5,80,127,1477063996
65,16,16,Jits_ISO_5,3,5,56,103,1477093680
65,16,16,Jits_ISO_5,0,5,56,103,1477513536
65,16,16,Jits_ISO_5,1,1,48,41,1477523956
65,16,16,Jits_ISO_5,2,5,63,98,1477525292
65,16,16,Jits_ISO_5,3,5,80,127,1477553400
65,16,16,Jits_ISO_5,0,5,80,127,1478004140
65,16,16,Jits_ISO_5,1,1,48,62,1478015872
65,16,16,Jits_ISO_5,2,5,63,98,1478073664
65,16,16,Jits_ISO_5,3,5,56,103,1478083936
65,16,16,Jits_ISO_5,0,5,63,98,1478503660
65,16,16,Jits_ISO_5,1,1,48,59,1478528872
65,16,16,Jits_ISO_5,2,5,56,103,1478573484
65,16,16,Jits_ISO_5,3,5,80,127,1478583604
65,16,16,Jits_ISO_5,0,5,63,98,1479003468
65,16,16,Jits_ISO_5,1,5,56,103,1479023852
65,16,16,Jits_ISO_5,2,1,48,55,1479029436
65,16,16,Jits_ISO_5,3,5,80,127,1479063856
65,16,16,Jits_ISO_5,0,1,48,54,1479491168
65,16,16,Jits_ISO_5,1,5,56,103,1479513456
65,16,16,Jits_ISO_5,2,5,63,98,1479523648
65,16,16,Jits_ISO_5,3,5,80,127,1479603500
65,16,16,Jits_ISO_5,0,1,48,51,1479990896
65,16,16,Jits_ISO_5,1,5,63,98,1480003892
65,16,16,Jits_ISO_5,2,5,56,103,1480033568
65,16,16,Jits_ISO_5,3,5,80,127,1480073508
65,16,16,Jits_ISO_5,0,5,56,103,1480503780
65,16,16,Jits_ISO_5,1,1,48,30,1480504748
65,16,16,Jits_ISO_5,2,5,63,98,1480543712
65,16,16,Jits_ISO_5,3,5,80,127,1480583500
65,16,16,Jits_ISO_5,0,1,48,63,1480997792
65,16,16,Jits_ISO_5,1,5,80,127,1481004268
65,16,16,Jits_ISO_5,2,5,56,103,1481084364
65,16,16,Jits_ISO_5,3,5,63,98,1481093440
65,16,16,Jits_ISO_5,0,1,48,45,1481543768
65,16,16,Jits_ISO_5,1,5,56,103,1481554500
65,16,16,Jits_ISO_5,2,5,63,98,1481557564
65,16,16,Jits_ISO_5,3,5,80,127,1481563500
65,16,16,Jits_ISO_5,0,1,48,69,1482003328
65,16,16,Jits_ISO_5,1,5,56,103,1482073408
65,16,16,Jits_ISO_5,2,5,63,98,1482094088
65,16,16,Jits_ISO_5,3,5,80,127,1482104420
65,16,16,Jits_ISO_5,0,5,63,98,1482534412
65,16,16,Jits_ISO_5,1,5,80,127,1482543412
65,16,16,Jits_ISO_5,2,1,48,50,1482554848
65,16,16,Jits_ISO_5,3,5,56,103,1482563864
65,16,16,Jits_ISO_5,0,1,48,54,1482996352
65,16,16,Jits_ISO_5,1,5,63,98,1483034064
65,16,16,Jits_ISO_5,2,5,56,103,1483113768
65,16,16,Jits_ISO_5,3,5,80,127,1483116836
65,16,16,Jits_ISO_5,0,1,48,61,1483519524
65,16,16,Jits_ISO_5,1,5,63,98,1483533792
65,16,16,Jits_ISO_5,2,5,56,103,1483554324
65,16,16,Jits_ISO_5,3,5,80,127,1483583852
65,16,16,Jits_ISO_5,0,1,48,65,1484018508
65,16,16,Jits_ISO_5,1,5,56,103,1484034348
65,16,16,Jits_ISO_5,2,5,63,98,1484054280
65,16,16,Jits_ISO_5,3,5,80,127,1484064252
65,16,16,Jits_ISO_5,0,1,48,61,1484486448
65,16,16,Jits_ISO_5,1,5,56,103,1484563824
65,16,16,Jits_ISO_5,2,5,63,98,1484593480
65,16,16,Jits_ISO_5,3,5,80,127,1484596772
65,16,16,Jits_ISO_5,0,5,56,103,1485014332
65,16,16,Jits_ISO_5,1,1,48,54,1485035808
65,16,16,Jits_ISO_5,2,5,63,98,1485054412
65,16,16,Jits_ISO_5,3,5,80,127,1485113604
65,16,16,Jits_ISO_5,0,1,48,52,1485506976
65,16,16,Jits_ISO_5,1,5,56,103,1485543668
65,16,16,Jits_ISO_5,2,5,63,98,1485554308
65,16,16,Jits_ISO_5,3,5,80,127,1485613412
65,16,16,Jits_ISO_5,0,1,48,56,1486013756
65,16,16,Jits_ISO_5,1,5,56,103,1486043400
65,16,16,Jits_ISO_5,2,5,80,127,1486064080
65,16,16,Jits_ISO_5,3,5,63,98,1486093608
65,16,16,Jits_ISO_5,0,1,48,49,1486503596
65,16,16,Jits_ISO_5,1,5,80,127,1486544328
65,16,16,Jits_ISO_5,2,5,56,103,1486553400
65,16,16,Jits_ISO_5,3,5,63,98,1486574156
65,16,16,Jits_ISO_5,0,5,63,98,1487033700
65,16,16,Jits_ISO_5,1,1,48,52,1487034668
65,16,16,Jits_ISO_5,2,5,80,127,1487113516
65,16,16,Jits_ISO_5,3,5,56,103,1487123784
65,16,16,Jits_ISO_5,0,1,48,57,1487552068
65,16,16,Jits_ISO_5,1,5,80,127,1487593696
65,16,16,Jits_ISO_5,2,5,56,103,1487614376
65,16,16,Jits_ISO_5,3,5,63,98,1487617292
65,16,16,Jits_ISO_5,0,5,63,98,1488063808
65,16,16,Jits_ISO_5,1,5,80,127,1488067396
65,16,16,Jits_ISO_5,2,1,48,62,1488087332
65,16,16,Jits_ISO_5,3,5,56,103,1488124364
65,16,16,Jits_ISO_5,0,5,56,103,1488544204
65,16,16,Jits_ISO_5,1,5,80,127,1488554324
65,16,16,Jits_ISO_5,2,5,63,98,1488594140
65,16,16,Jits_ISO_5,3,1,48,37,1488601312
65,16,16,Jits_ISO_5,0,5,56,103,1489024320
65,16,16,Jits_ISO_5,1,5,63,98,1489083888
65,16,16,Jits_ISO_5,2,5,80,127,1489093936
65,16,16,Jits_ISO_5,3,1,48,56,1489127268
65,16,16,Jits_ISO_5,0,5,63,98,1489534332
65,16,16,Jits_ISO_5,1,1,48,40,1489535892
65,16,16,Jits_ISO_5,2,5,80,127,1489574268
65,16,16,Jits_ISO_5,3,5,56,103,1489614452
65,16,16,Jits_ISO_5,0,5,56,103,1490034144
65,16,16,Jits_ISO_5,1,1,48,50,1490044460
65,16,16,Jits_ISO_5,2,5,63,98,1490113856
65,16,16,Jits_ISO_5,3,5,80,127,1490117444
65,16,16,Jits_ISO_5,0,9999,9999,9999,1430731880
65,16,16,Jits_ISO_5,1,9999,9999,9999,1431231588
65,16,16,Jits_ISO_5,2,9999,9999,9999,1431731320
65,16,16,Jits_ISO_5,3,9999,9999,9999,1432232036
65,16,16,Jits_ISO_5,4,9999,9999,9999,1432731704
65,16,16,Jits_ISO_5,5,9999,9999,9999,1433231456
65,16,16,Jits_ISO_5,6,9999,9999,9999,1433731188
65,16,16,Jits_ISO_5,7,9999,9999,9999,1434231912
65,16,16,Jits_ISO_5,8,9999,9999,9999,1434731584
65,16,16,Jits_ISO_5,9,9999,9999,9999,1435231328
65,16,16,Jits_ISO_5,10,9999,9999,9999,1435732044
65,16,16,Jits_ISO_5,11,9999,9999,9999,1436231792
65,16,16,Jits_ISO_5,12,9999,9999,9999,1436731448
65,16,16,Jits_ISO_5,13,9999,9999,9999,1437231176
65,16,16,Jits_ISO_5,14,9999,9999,9999,1437731956
65,16,16,Jits_ISO_5,15,9999,9999,9999,1438231628
65,16,16,Jits_ISO_5,16,9999,9999,9999,1438731376
65,16,16,Jits_ISO_5,17,9999,9999,9999,1439232080
65,16,16,Jits_ISO_5,18,9999,9999,9999,1439742016
65,16,16,Jits_ISO_5,19,9999,9999,9999,1440241748
65,16,16,Jits_ISO_5,20,9999,9999,9999,1440741484
65,16,16,Jits_ISO_5,21,9999,9999,9999,1441241144
65,16,16,Jits_ISO_5,22,9999,9999,9999,1441741912
65,16,16,Jits_ISO_5,23,9999,9999,9999,1442241660
65,16,16,Jits_ISO_5,24,9999,9999,9999,1442741332
65,16,16,Jits_ISO_5,25,9999,9999,9999,1443242040
65,16,16,Jits_ISO_5,26,9999,9999,9999,1443741788
65,16,16,Jits_ISO_5,27,9999,9999,9999,1444241508
65,16,16,Jits_ISO_5,28,9999,9999,9999,1444741184
65,16,16,Jits_ISO_5,29,9999,9999,9999,1445241972
65,16,16,Jits_ISO_5,30,9999,9999,9999,1445741644
65,16,16,Jits_ISO_5,31,9999,9999,9999,1446241392
65,16,16,Jits_ISO_5,32,9999,9999,9999,1446742092
65,16,16,Jits_ISO_5,33,9999,9999,9999,1447252024
65,16,16,Jits_ISO_5,34,9999,9999,9999,1447751772
65,16,16,Jits_ISO_5,35,9999,9999,9999,1448251444
65,16,16,Jits_ISO_5,36,9999,9999,9999,1448751164
65,16,16,Jits_ISO_5,37,9999,9999,9999,1449251944
65,16,16,Jits_ISO_5,38,9999,9999,9999,1449751676
65,16,16,Jits_ISO_5,39,9999,9999,9999,1450251336
65,16,16,Jits_ISO_5,40,9999,9999,9999,1450752120
65,16,16,Jits_ISO_5,41,9999,9999,9999,1451262052
65,16,16,Jits_ISO_5,42,9999,9999,9999,1451761724
65,16,16,Jits_ISO_5,43,9999,9999,9999,1452261460
65,16,16,Jits_ISO_5,44,9999,9999,9999,1452761168
65,16,16,Jits_ISO_5,45,9999,9999,9999,1453261888
65,16,16,Jits_ISO_5,46,9999,9999,9999,1453761592
65,16,16,Jits_ISO_5,47,9999,9999,9999,1454261336
65,16,16,Jits_ISO_5,48,9999,9999,9999,1454762044
65,16,16,Jits_ISO_5,49,9999,9999,9999,1455261796
65,16,16,Jits_ISO_5,50,9999,9999,9999,1455761520
65,16,16,Jits_ISO_5,51,9999,9999,9999,1456261196
65,16,16,Jits_ISO_5,52,9999,9999,9999,1456761916
65,16,16,Jits_ISO_5,53,9999,9999,9999,1457261668
65,16,16,Jits_ISO_5,54,9999,9999,9999,1457761400
65,16,16,Jits_ISO_5,55,9999,9999,9999,1458262108
65,16,16,Jits_ISO_5,56,9999,9999,9999,1458772032
65,16,16,Jits_ISO_5,57,9999,9999,9999,1459271760
65,16,16,Jits_ISO_5,58,9999,9999,9999,1459771496
65,16,16,Jits_ISO_5,59,9999,9999,9999,1460271216
65,16,16,Jits_ISO_5,60,9999,9999,9999,1460771936
65,16,16,Jits_ISO_5,61,9999,9999,9999,1461271664
65,16,16,Jits_ISO_5,62,9999,9999,9999,1461771324
65,16,16,Jits_ISO_5,63,9999,9999,9999,1462272100
65,16,16,Jits_ISO_5,64,9999,9999,9999,1462782024
65,16,16,Jits_ISO_5,65,9999,9999,9999,1463281752
65,16,16,Jits_ISO_5,66,9999,9999,9999,1463781488
65,16,16,Jits_ISO_5,67,9999,9999,9999,1464281208
65,16,16,Jits_ISO_5,68,9999,9999,9999,1464781932
65,16,16,Jits_ISO_5,69,9999,9999,9999,1465281644
65,16,16,Jits_ISO_5,70,9999,9999,9999,1465781364
65,16,16,Jits_ISO_5,71,9999,9999,9999,1466282084
65,16,16,Jits_ISO_5,72,9999,9999,9999,1466781820
65,16,16,Jits_ISO_5,73,9999,9999,9999,1467281476
65,16,16,Jits_ISO_5,74,9999,9999,9999,1467781212
65,16,16,Jits_ISO_5,75,9999,9999,9999,1468281920
65,16,16,Jits_ISO_5,76,9999,9999,9999,1468781656
65,16,16,Jits_ISO_5,77,9999,9999,9999,1469281392
65,16,16,Jits_ISO_5,78,9999,9999,9999,1469782112
65,16,16,Jits_ISO_5,79,9999,9999,9999,1470292032
65,16,16,Jits_ISO_5,80,9999,9999,9999,1470791768
65,16,16,Jits_ISO_5,81,9999,9999,9999,1471291500
65,16,16,Jits_ISO_5,82,9999,9999,9999,1471791172
65,16,16,Jits_ISO_5,83,9999,9999,9999,1472291952
65,16,16,Jits_ISO_5,84,9999,9999,9999,1472791628
65,16,16,Jits_ISO_5,85,9999,9999,9999,1473291352
65,16,16,Jits_ISO_5,86,9999,9999,9999,1473792056
65,16,16,Jits_ISO_5,87,9999,9999,9999,1474302068
65,16,16,Jits_ISO_5,88,9999,9999,9999,1474801728
65,16,16,Jits_ISO_5,89,9999,9999,9999,1475301476
65,16,16,Jits_ISO_5,90,9999,9999,9999,1475801208
65,16,16,Jits_ISO_5,91,9999,9999,9999,1476301924
65,16,16,Jits_ISO_5,92,9999,9999,9999,1476801632
65,16,16,Jits_ISO_5,93,9999,9999,9999,1477301368
65,16,16,Jits_ISO_5,94,9999,9999,9999,1477802068
65,16,16,Jits_ISO_5,95,9999,9999,9999,1478301816
65,16,16,Jits_ISO_5,96,9999,9999,9999,1478801488
65,16,16,Jits_ISO_5,97,9999,9999,9999,1479301216
65,16,16,Jits_ISO_5,98,9999,9999,9999,1479801920
65,16,16,Jits_ISO_5,99,9999,9999,9999,1480301652
65,16,16,Jits_ISO_5,100,9999,9999,9999,1480801384
65,16,16,Jits_ISO_5,101,9999,9999,9999,1481302108
65,16,16,Jits_ISO_5,102,9999,9999,9999,1481812020
65,16,16,Jits_ISO_5,103,9999,9999,9999,1482311756
65,16,16,Jits_ISO_5,104,9999,9999,9999,1482811492
65,16,16,Jits_ISO_5,105,9999,9999,9999,1483311216
65,16,16,Jits_ISO_5,106,9999,9999,9999,1483811920
65,16,16,Jits_ISO_5,107,9999,9999,9999,1484311656
65,16,16,Jits_ISO_5,108,9999,9999,9999,1484811380
65,16,16,Jits_ISO_5,109,9999,9999,9999,1485312084
65,16,16,Jits_ISO_5,110,9999,9999,9999,1485822020
65,16,16,Jits_ISO_5,111,9999,9999,9999,1486321752
65,16,16,Jits_ISO_5,112,9999,9999,9999,1486821484
65,16,16,Jits_ISO_5,113,9999,9999,9999,1487321148
65,16,16,Jits_ISO_5,114,9999,9999,9999,1487821924
65,16,16,Jits_ISO_5,115,9999,9999,9999,1488321624
65,16,16,Jits_ISO_5,116,9999,9999,9999,1488821356
65,16,16,Jits_ISO_5,117,9999,9999,9999,1489322076
65,16,16,Jits_ISO_5,118,9999,9999,9999,1489821752
65,16,16,Jits_ISO_5,119,9999,9999,9999,1490321480
65,17,18,Jits_Linear_8,0,5,56,103,1500498216
65,17,18,Jits_Linear_8,1,5,63,98,1500501312
65,17,18,Jits_Linear_8,2,5,80,127,1500504288
65,17,18,Jits_Linear_8,0,1,48,38,1501266972
65,17,18,Jits_Linear_8,1,5,56,103,1501317472
65,17,18,Jits_Linear_8,2,5,63,98,1501320648
65,17,18,Jits_Linear_8,3,5,80,127,1501323916
65,17,18,Jits_Linear_8,0,5,80,127,1502078196
65,17,18,Jits_Linear_8,1,1,48,51,1502094568
65,17,18,Jits_Linear_8,2,5,63,98,1502168424
65,17,18,Jits_Linear_8,3,5,56,103,1502177648
65,17,18,Jits_Linear_8,0,5,56,103,1502918044
65,17,18,Jits_Linear_8,1,5,63,98,1502928120
65,17,18,Jits_Linear_8,2,1,48,51,1502946976
65,17,18,Jits_Linear_8,3,5,80,127,1503018316
65,17,18,Jits_Linear_8,0,1,48,47,1503694720
65,17,18,Jits_Linear_8,1,5,63,98,1503707568
65,17,18,Jits_Linear_8,2,5,80,127,1503738292
65,17,18,Jits_Linear_8,3,5,56,103,1503767892
65,17,18,Jits_Linear_8,0,1,48,47,1504508340
65,17,18,Jits_Linear_8,1,5,56,103,1504527768
65,17,18,Jits_Linear_8,2,5,80,127,1504628156
65,17,18,Jits_Linear_8,3,5,63,98,1504678284
65,17,18,Jits_Linear_8,0,5,56,103,1505337872
65,17,18,Jits_Linear_8,1,5,80,127,1505387928
65,17,18,Jits_Linear_8,2,5,63,98,1505428088
65,17,18,Jits_Linear_8,3,1,48,54,1505446500
65,17,18,Jits_Linear_8,0,1,48,47,1506146076
65,17,18,Jits_Linear_8,1,5,80,127,1506178316
65,17,18,Jits_Linear_8,2,5,63,98,1506207992
65,17,18,Jits_Linear_8,3,5,56,103,1506277832
65,17,18,Jits_Linear_8,0,5,63,98,1507018164
65,17,18,Jits_Linear_8,1,1,48,45,1507030596
65,17,18,Jits_Linear_8,2,5,56,103,1507047784
65,17,18,Jits_Linear_8,3,5,80,127,1507108320
65,17,18,Jits_Linear_8,0,5,56,103,1507767796
65,17,18,Jits_Linear_8,1,5,80,127,1507770940
65,17,18,Jits_Linear_8,2,1,48,51,1507861744
65,17,18,Jits_Linear_8,3,5,63,98,1507887468
65,17,18,Jits_Linear_8,0,1,48,49,1508644040
65,17,18,Jits_Linear_8,1,5,56,103,1508648268
65,17,18,Jits_Linear_8,2,5,80,127,1508688208
65,17,18,Jits_Linear_8,3,5,63,98,1508697504
65,17,18,Jits_Linear_8,0,5,56,103,1509408096
65,17,18,Jits_Linear_8,1,5,80,127,1509427436
65,17,18,Jits_Linear_8,2,1,48,46,1509483440
65,17,18,Jits_Linear_8,3,5,63,98,1509507448
65,17,18,Jits_Linear_8,0,5,80,127,1510197828
65,17,18,Jits_Linear_8,1,1,48,48,1510262752
65,17,18,Jits_Linear_8,2,5,56,103,1510297920
65,17,18,Jits_Linear_8,3,5,63,98,1510308120
65,17,18,Jits_Linear_8,0,5,63,98,1510967632
65,17,18,Jits_Linear_8,1,5,80,127,1511027952
65,17,18,Jits_Linear_8,2,5,56,103,1511038296
65,17,18,Jits_Linear_8,3,1,48,52,1511122644
65,17,18,Jits_Linear_8,0,5,56,103,1511768504
65,17,18,Jits_Linear_8,1,1,48,47,1511795984
65,17,18,Jits_Linear_8,2,5,63,98,1511838104
65,17,18,Jits_Linear_8,3,5,80,127,1511841696
65,17,18,Jits_Linear_8,0,1,48,49,1512536320
65,17,18,Jits_Linear_8,1,5,63,98,1512597856
65,17,18,Jits_Linear_8,2,5,56,103,1512648116
65,17,18,Jits_Linear_8,3,5,80,127,1512651504
65,17,18,Jits_Linear_8,0,1,48,48,1513325260
65,17,18,Jits_Linear_8,1,5,56,103,1513347548
65,17,18,Jits_Linear_8,2,5,80,127,1513350612
65,17,18,Jits_Linear_8,3,5,63,98,1513437764
65,17,18,Jits_Linear_8,0,1,48,54,1514171760
65,17,18,Jits_Linear_8,1,5,63,98,1514177932
65,17,18,Jits_Linear_8,2,5,56,103,1514268900
65,17,18,Jits_Linear_8,3,5,80,127,1514297904
65,17,18,Jits_Linear_8,0,5,56,103,1514958168
65,17,18,Jits_Linear_8,1,1,48,34,1514980396
65,17,18,Jits_Linear_8,2,5,63,98,1515057664
65,17,18,Jits_Linear_8,3,5,80,127,1515088148
65,17,18,Jits_Linear_8,0,5,63,98,1515768208
65,17,18,Jits_Linear_8,1,5,56,103,1515778700
65,17,18,Jits_Linear_8,2,1,48,45,1515822800
65,17,18,Jits_Linear_8,3,5,80,127,1515867632
65,17,18,Jits_Linear_8,0,1,48,48,1516516236
65,17,18,Jits_Linear_8,1,5,63,98,1516567884
65,17,18,Jits_Linear_8,2,5,56,103,1516647812
65,17,18,Jits_Linear_8,3,5,80,127,1516650880
65,17,18,Jits_Linear_8,0,5,80,127,1517308300
65,17,18,Jits_Linear_8,1,5,63,98,1517327864
65,17,18,Jits_Linear_8,2,1,48,46,1517344912
65,17,18,Jits_Linear_8,3,5,56,103,1517388096
65,17,18,Jits_Linear_8,0,1,48,43,1518111260
65,17,18,Jits_Linear_8,1,5,56,103,1518127472
65,17,18,Jits_Linear_8,2,5,63,98,1518148004
65,17,18,Jits_Linear_8,3,5,80,127,1518151444
65,17,18,Jits_Linear_8,0,5,63,98,1518848328
65,17,18,Jits_Linear_8,1,1,48,43,1518906148
65,17,18,Jits_Linear_8,2,5,80,127,1518928120
65,17,18,Jits_Linear_8,3,5,56,103,1518937568
65,17,18,Jits_Linear_8,0,1,48,48,1519547928
65,17,18,Jits_Linear_8,1,5,63,98,1519648060
65,17,18,Jits_Linear_8,2,5,56,103,1519667620
65,17,18,Jits_Linear_8,3,5,80,127,1519717672
65,17,18,Jits_Linear_8,0,5,80,127,1520428356
65,17,18,Jits_Linear_8,1,1,48,43,1520437096
65,17,18,Jits_Linear_8,2,5,63,98,1520468288
65,17,18,Jits_Linear_8,3,5,56,103,1520487776
65,17,18,Jits_Linear_8,0,1,48,41,1521245640
65,17,18,Jits_Linear_8,1,5,56,103,1521247528
65,17,18,Jits_Linear_8,2,5,63,98,1521257944
65,17,18,Jits_Linear_8,3,5,80,127,1521278256
65,17,18,Jits_Linear_8,0,5,56,103,1521948088
65,17,18,Jits_Linear_8,1,5,63,98,1522038224
65,17,18,Jits_Linear_8,2,1,48,45,1522040160
65,17,18,Jits_Linear_8,3,5,80,127,1522097636
65,17,18,Jits_Linear_8,0,5,80,127,1522747708
65,17,18,Jits_Linear_8,1,5,56,103,1522757908
65,17,18,Jits_Linear_8,2,1,48,45,1522768816
65,17,18,Jits_Linear_8,3,5,63,98,1522827728
65,17,18,Jits_Linear_8,0,5,63,98,1523547700
65,17,18,Jits_Linear_8,1,1,48,39,1523585448
65,17,18,Jits_Linear_8,2,5,80,127,1523637756
65,17,18,Jits_Linear_8,3,5,56,103,1523647804
65,17,18,Jits_Linear_8,0,5,63,98,1524247892
65,17,18,Jits_Linear_8,1,5,80,127,1524298244
65,17,18,Jits_Linear_8,2,1,48,57,1524354252
65,17,18,Jits_Linear_8,3,5,56,103,1524357580
65,17,18,Jits_Linear_8,0,5,56,103,1525037676
65,17,18,Jits_Linear_8,1,1,48,48,1525068296
65,17,18,Jits_Linear_8,2,5,80,127,1525087800
65,17,18,Jits_Linear_8,3,5,63,98,1525108036
65,17,18,Jits_Linear_8,0,5,56,103,1525767692
65,17,18,Jits_Linear_8,1,5,80,127,1525827936
65,17,18,Jits_Linear_8,2,1,48,56,1525837800
65,17,18,Jits_Linear_8,3,5,63,98,1525897684
65,17,18,Jits_Linear_8,0,5,56,103,1526528496
65,17,18,Jits_Linear_8,1,5,80,127,1526558024
65,17,18,Jits_Linear_8,2,5,63,98,1526587776
65,17,18,Jits_Linear_8,3,1,48,46,1526609924
65,17,18,Jits_Linear_8,0,1,48,51,1527322080
65,17,18,Jits_Linear_8,1,5,56,103,1527328180
65,17,18,Jits_Linear_8,2,5,80,127,1527347740
65,17,18,Jits_Linear_8,3,5,63,98,1527407984
65,17,18,Jits_Linear_8,0,1,48,49,1528104892
65,17,18,Jits_Linear_8,1,5,80,127,1528167644
65,17,18,Jits_Linear_8,2,5,56,103,1528178212
65,17,18,Jits_Linear_8,3,5,63,98,1528188780
65,17,18,Jits_Linear_8,0,5,56,103,1528877508
65,17,18,Jits_Linear_8,1,1,48,44,1528905488
65,17,18,Jits_Linear_8,2,5,80,127,1528918488
65,17,18,Jits_Linear_8,3,5,63,98,1528948160
65,17,18,Jits_Linear_8,0,5,56,103,1529598536
65,17,18,Jits_Linear_8,1,5,63,98,1529628216
65,17,18,Jits_Linear_8,2,5,80,127,1529667932
65,17,18,Jits_Linear_8,3,1,48,54,1529710080
65,17,18,Jits_Linear_8,0,5,80,127,1530297792
65,17,18,Jits_Linear_8,1,5,63,98,1530347872
65,17,18,Jits_Linear_8,2,5,56,103,1530368556
65,17,18,Jits_Linear_8,3,1,48,54,1530411308
65,17,18,Jits_Linear_8,0,1,48,48,1531059916
65,17,18,Jits_Linear_8,1,5,56,103,1531077852
65,17,18,Jits_Linear_8,2,5,80,127,1531147560
65,17,18,Jits_Linear_8,3,5,63,98,1531208012
65,17,18,Jits_Linear_8,0,5,80,127,1531818504
65,17,18,Jits_Linear_8,1,5,63,98,1531907620
65,17,18,Jits_Linear_8,2,5,56,103,1531928004
65,17,18,Jits_Linear_8,3,1,48,51,1531941012
65,17,18,Jits_Linear_8,0,5,63,98,1532578348
65,17,18,Jits_Linear_8,1,5,56,103,1532597684
65,17,18,Jits_Linear_8,2,5,80,127,1532637648
65,17,18,Jits_Linear_8,3,1,48,51,1532703020
65,17,18,Jits_Linear_8,0,5,80,127,1533277632
65,17,18,Jits_Linear_8,1,5,63,98,1533298092
65,17,18,Jits_Linear_8,2,1,48,43,1533374248
65,17,18,Jits_Linear_8,3,5,56,103,1533377956
65,17,18,Jits_Linear_8,0,5,63,98,1534007648
65,17,18,Jits_Linear_8,1,1,48,45,1534020280
65,17,18,Jits_Linear_8,2,5,56,103,1534118592
65,17,18,Jits_Linear_8,3,5,80,127,1534121504
65,17,18,Jits_Linear_8,0,1,48,45,1534704184
65,17,18,Jits_Linear_8,1,5,63,98,1534767456
65,17,18,Jits_Linear_8,2,5,56,103,1534777568
65,17,18,Jits_Linear_8,3,5,80,127,1534780716
65,17,18,Jits_Linear_8,0,1,48,45,1535444956
65,17,18,Jits_Linear_8,1,5,56,103,1535488376
65,17,18,Jits_Linear_8,2,5,80,127,1535608392
65,17,18,Jits_Linear_8,3,5,63,98,1535648108
65,17,18,Jits_Linear_8,0,5,56,103,1536237800
65,17,18,Jits_Linear_8,1,5,80,127,1536317676
65,17,18,Jits_Linear_8,2,5,63,98,1536338432
65,17,18,Jits_Linear_8,3,1,48,51,1536384692
65,17,18,Jits_Linear_8,0,5,56,103,1536967940
65,17,18,Jits_Linear_8,1,5,63,98,1537077560
65,17,18,Jits_Linear_8,2,5,80,127,1537080996
65,17,18,Jits_Linear_8,3,1,48,47,1537100228
65,17,18,Jits_Linear_8,0,5,56,103,1537727824
65,17,18,Jits_Linear_8,1,5,80,127,1537757524
65,17,18,Jits_Linear_8,2,1,48,45,1537776852
65,17,18,Jits_Linear_8,3,5,63,98,1537778272
65,17,18,Jits_Linear_8,0,5,63,98,1538437464
65,17,18,Jits_Linear_8,1,5,56,103,1538447660
65,17,18,Jits_Linear_8,2,5,80,127,1538457928
65,17,18,Jits_Linear_8,3,1,48,45,1538477760
65,17,18,Jits_Linear_8,0,5,80,127,1539148280
65,17,18,Jits_Linear_8,1,1,48,45,1539189536
65,17,18,Jits_Linear_8,2,5,56,103,1539198476
65,17,18,Jits_Linear_8,3,5,63,98,1539238268
65,17,18,Jits_Linear_8,0,5,80,127,1539887440
65,17,18,Jits_Linear_8,1,5,63,98,1539907900
65,17,18,Jits_Linear_8,2,1,48,49,1539932224
65,17,18,Jits_Linear_8,3,5,56,103,1539958320
65,17,18,Jits_Linear_8,0,5,80,127,1540617536
65,17,18,Jits_Linear_8,1,5,56,103,1540648408
65,17,18,Jits_Linear_8,2,1,48,41,1540663060
65,17,18,Jits_Linear_8,3,5,63,98,1540717860
65,17,18,Jits_Linear_8,0,1,48,44,1541341600
65,17,18,Jits_Linear_8,1,5,56,103,1541387708
65,17,18,Jits_Linear_8,2,5,80,127,1541397828
65,17,18,Jits_Linear_8,3,5,63,98,1541438800
65,17,18,Jits_Linear_8,0,5,56,103,1542018424
65,17,18,Jits_Linear_8,1,5,63,98,1542037764
65,17,18,Jits_Linear_8,2,5,80,127,1542107472
65,17,18,Jits_Linear_8,3,1,48,28,1542214264
65,17,18,Jits_Linear_8,0,1,48,44,1542732744
65,17,18,Jits_Linear_8,1,5,63,98,1542757652
65,17,18,Jits_Linear_8,2,5,80,127,1542818344
65,17,18,Jits_Linear_8,3,5,56,103,1542837664
65,17,18,Jits_Linear_8,0,1,48,51,1543424384
65,17,18,Jits_Linear_8,1,5,80,127,1543458508
65,17,18,Jits_Linear_8,2,5,56,103,1543487964
65,17,18,Jits_Linear_8,3,5,63,98,1543517416
65,17,18,Jits_Linear_8,0,1,48,52,1544157844
65,17,18,Jits_Linear_8,1,5,56,103,1544167836
65,17,18,Jits_Linear_8,2,5,63,98,1544228228
65,17,18,Jits_Linear_8,3,5,80,127,1544287632
65,17,18,Jits_Linear_8,0,1,48,46,1544872012
65,17,18,Jits_Linear_8,1,5,80,127,1544897892
65,17,18,Jits_Linear_8,2,5,56,103,1544918300
65,17,18,Jits_Linear_8,3,5,63,98,1544988192
65,17,18,Jits_Linear_8,0,1,48,49,1545578576
65,17,18,Jits_Linear_8,1,5,80,127,1545617856
65,17,18,Jits_Linear_8,2,5,63,98,1545638240
65,17,18,Jits_Linear_8,3,5,56,103,1545667916
65,17,18,Jits_Linear_8,0,5,80,127,1546307936
65,17,18,Jits_Linear_8,1,1,48,47,1546310452
65,17,18,Jits_Linear_8,2,5,63,98,1546328612
65,17,18,Jits_Linear_8,3,5,56,103,1546387804
65,17,18,Jits_Linear_8,0,5,80,127,1547008432
65,17,18,Jits_Linear_8,1,1,48,45,1547014768
65,17,18,Jits_Linear_8,2,5,56,103,1547107632
65,17,18,Jits_Linear_8,3,5,63,98,1547138560
65,17,18,Jits_Linear_8,0,5,63,98,1547697452
65,17,18,Jits_Linear_8,1,5,80,127,1547747604
65,17,18,Jits_Linear_8,2,1,48,44,1547756348
65,17,18,Jits_Linear_8,3,5,56,103,1547768280
65,17,18,Jits_Linear_8,0,1,48,50,1548413328
65,17,18,Jits_Linear_8,1,5,80,127,1548437860
65,17,18,Jits_Linear_8,2,5,56,103,1548467456
65,17,18,Jits_Linear_8,3,5,63,98,1548470528
65,17,18,Jits_Linear_8,0,1,48,45,1549099500
65,17,18,Jits_Linear_8,1,5,63,98,1549168008
65,17,18,Jits_Linear_8,2,5,56,103,1549207860
65,17,18,Jits_Linear_8,3,5,80,127,1549228464
65,17,18,Jits_Linear_8,0,5,80,127,1549808112
65,17,18,Jits_Linear_8,1,1,48,42,1549828016
65,17,18,Jits_Linear_8,2,5,63,98,1549887980
65,17,18,Jits_Linear_8,3,5,56,103,1549927828
65,17,18,Jits_Linear_8,0,5,63,98,1550517660
65,17,18,Jits_Linear_8,1,1,48,44,1550536516
65,17,18,Jits_Linear_8,2,5,80,127,1550597404
65,17,18,Jits_Linear_8,3,5,56,103,1550618160
65,17,18,Jits_Linear_8,0,1,48,45,1551220216
65,17,18,Jits_Linear_8,1,5,56,103,1551247740
65,17,18,Jits_Linear_8,2,5,63,98,1551258084
65,17,18,Jits_Linear_8,3,5,80,127,1551297876
65,17,18,Jits_Linear_8,0,5,56,103,1551858104
65,17,18,Jits_Linear_8,1,5,80,127,1551861244
65,17,18,Jits_Linear_8,2,1,48,41,1551916816
65,17,18,Jits_Linear_8,3,5,63,98,1551998276
65,17,18,Jits_Linear_8,0,5,56,103,1552538116
65,17,18,Jits_Linear_8,1,5,63,98,1552628056
65,17,18,Jits_Linear_8,2,1,48,45,1552632076
65,17,18,Jits_Linear_8,3,5,80,127,1552697728
65,17,18,Jits_Linear_8,0,1,48,45,1553287144
65,17,18,Jits_Linear_8,1,5,63,98,1553297880
65,17,18,Jits_Linear_8,2,5,80,127,1553301244
65,17,18,Jits_Linear_8,3,5,56,103,1553358068
65,17,18,Jits_Linear_8,0,1,48,42,1553945352
65,17,18,Jits_Linear_8,1,5,80,127,1554017692
65,17,18,Jits_Linear_8,2,5,56,103,1554038208
65,17,18,Jits_Linear_8,3,5,63,98,1554048332
65,17,18,Jits_Linear_8,0,5,56,103,1554607432
65,17,18,Jits_Linear_8,1,5,63,98,1554617852
65,17,18,Jits_Linear_8,2,1,48,43,1554667824
65,17,18,Jits_Linear_8,3,5,80,127,1554688448
65,17,18,Jits_Linear_8,0,5,80,127,1555288372
65,17,18,Jits_Linear_8,1,1,48,43,1555290312
65,17,18,Jits_Linear_8,2,5,56,103,1555337596
65,17,18,Jits_Linear_8,3,5,63,98,1555387724
65,17,18,Jits_Linear_8,0,1,48,42,1555956932
65,17,18,Jits_Linear_8,1,5,56,103,1556048208
65,17,18,Jits_Linear_8,2,5,63,98,1556057416
65,17,18,Jits_Linear_8,3,5,80,127,1556098328
65,17,18,Jits_Linear_8,0,5,56,103,1556667772
65,17,18,Jits_Linear_8,1,1,48,30,1556669408
65,17,18,Jits_Linear_8,2,5,63,98,1556707732
65,17,18,Jits_Linear_8,3,5,80,127,1556758080
65,17,18,Jits_Linear_8,0,5,80,127,1557297548
65,17,18,Jits_Linear_8,1,5,56,103,1557347676
65,17,18,Jits_Linear_8,2,5,63,98,1557368212
65,17,18,Jits_Linear_8,3,1,48,50,1557391932
65,17,18,Jits_Linear_8,0,5,80,127,1557977588
65,17,18,Jits_Linear_8,1,1,48,40,1558032848
65,17,18,Jits_Linear_8,2,5,63,98,1558038120
65,17,18,Jits_Linear_8,3,5,56,103,1558117696
65,17,18,Jits_Linear_8,0,5,80,127,1558627644
65,17,18,Jits_Linear_8,1,5,56,103,1558667512
65,17,18,Jits_Linear_8,2,5,63,98,1558688044
65,17,18,Jits_Linear_8,3,1,48,47,1558698064
65,17,18,Jits_Linear_8,0,1,48,36,1559338820
65,17,18,Jits_Linear_8,1,5,56,103,1559347540
65,17,18,Jits_Linear_8,2,5,80,127,1559357960
65,17,18,Jits_Linear_8,3,5,63,98,1559397824
65,17,18,Jits_Linear_8,0,1,48,47,1559956052
65,17,18,Jits_Linear_8,1,5,56,103,1560077536
65,17,18,Jits_Linear_8,2,5,63,98,1560117472
65,17,18,Jits_Linear_8,3,5,80,127,1560121140
65,17,18,Jits_Linear_8,0,5,63,98,1560627652
65,17,18,Jits_Linear_8,1,5,80,127,1560667592
65,17,18,Jits_Linear_8,2,1,48,42,1560734684
65,17,18,Jits_Linear_8,3,5,56,103,1560738092
65,17,18,Jits_Linear_8,0,1,48,48,1561218312
65,17,18,Jits_Linear_8,1,5,63,98,1561277828
65,17,18,Jits_Linear_8,2,5,56,103,1561357636
65,17,18,Jits_Linear_8,3,5,80,127,1561418100
65,17,18,Jits_Linear_8,0,1,48,43,1561882232
65,17,18,Jits_Linear_8,1,5,80,127,1561957860
65,17,18,Jits_Linear_8,2,5,63,98,1562007900
65,17,18,Jits_Linear_8,3,5,56,103,1562037648
65,17,18,Jits_Linear_8,0,1,48,54,1562583612
65,17,18,Jits_Linear_8,1,5,56,103,1562608068
65,17,18,Jits_Linear_8,2,5,63,98,1562658124
65,17,18,Jits_Linear_8,3,5,80,127,1562668472
65,17,18,Jits_Linear_8,0,1,48,44,1563270884
65,17,18,Jits_Linear_8,1,5,56,103,1563277880
65,17,18,Jits_Linear_8,2,5,63,98,1563388256
65,17,18,Jits_Linear_8,3,5,80,127,1563407820
65,17,18,Jits_Linear_8,0,5,63,98,1563928032
65,17,18,Jits_Linear_8,1,1,48,53,1563967120
65,17,18,Jits_Linear_8,2,5,80,127,1563978152
65,17,18,Jits_Linear_8,3,5,56,103,1564068120
65,17,18,Jits_Linear_8,0,5,63,98,1564567884
65,17,18,Jits_Linear_8,1,1,48,48,1564581860
65,17,18,Jits_Linear_8,2,5,80,127,1564597704
65,17,18,Jits_Linear_8,3,5,56,103,1564687996
65,17,18,Jits_Linear_8,0,1,48,51,1565170936
65,17,18,Jits_Linear_8,1,5,63,98,1565218016
65,17,18,Jits_Linear_8,2,5,56,103,1565228512
65,17,18,Jits_Linear_8,3,5,80,127,1565327768
65,17,18,Jits_Linear_8,0,1,48,44,1565779612
65,17,18,Jits_Linear_8,1,5,63,98,1565967860
65,17,18,Jits_Linear_8,2,5,80,127,1565997316
65,17,18,Jits_Linear_8,3,5,56,103,1566028108
65,17,18,Jits_Linear_8,0,5,80,127,1566628268
65,17,18,Jits_Linear_8,1,5,63,98,1566637344
65,17,18,Jits_Linear_8,2,1,48,48,1566661364
65,17,18,Jits_Linear_8,3,5,56,103,1566668084
65,17,18,Jits_Linear_8,0,5,80,127,1567168044
65,17,18,Jits_Linear_8,1,5,63,98,1567188232
65,17,18,Jits_Linear_8,2,5,56,103,1567237536
65,17,18,Jits_Linear_8,3,1,48,42,1567357600
65,17,18,Jits_Linear_8,0,1,48,45,1567815684
65,17,18,Jits_Linear_8,1,5,63,98,1567837672
65,17,18,Jits_Linear_8,2,5,80,127,1567897916
65,17,18,Jits_Linear_8,3,5,56,103,1567917312
65,17,18,Jits_Linear_8,0,1,48,40,1568421232
65,17,18,Jits_Linear_8,1,5,63,98,1568437816
65,17,18,Jits_Linear_8,2,5,56,103,1568487968
65,17,18,Jits_Linear_8,3,5,80,127,1568498164
65,17,18,Jits_Linear_8,0,1,48,46,1569000336
65,17,18,Jits_Linear_8,1,1,48,22,1569067752
65,17,18,Jits_Linear_8,2,5,56,103,1569108236
65,17,18,Jits_Linear_8,3,5,80,127,1569117760
65,17,18,Jits_Linear_8,4,5,63,98,1569217840
65,17,18,Jits_Linear_8,0,5,80,127,1569708380
65,17,18,Jits_Linear_8,1,5,63,98,1569717604
65,17,18,Jits_Linear_8,2,1,48,46,1569786308
65,17,18,Jits_Linear_8,3,5,56,103,1569868212
65,17,18,Jits_Linear_8,0,1,48,55,1570327788
65,17,18,Jits_Linear_8,1,5,63,98,1570348264
65,17,18,Jits_Linear_8,2,5,80,127,1570388204
65,17,18,Jits_Linear_8,3,5,56,103,1570468208
65,17,18,Jits_Linear_8,0,1,48,48,1570933988
65,17,18,Jits_Linear_8,1,5,56,103,1570968032
65,17,18,Jits_Linear_8,2,5,80,127,1571068220
65,17,18,Jits_Linear_8,3,5,63,98,1571087708
65,17,18,Jits_Linear_8,0,1,48,56,1571641828
65,17,18,Jits_Linear_8,1,5,80,127,1571658112
65,17,18,Jits_Linear_8,2,5,56,103,1571668532
65,17,18,Jits_Linear_8,3,5,63,98,1571757304
65,17,18,Jits_Linear_8,0,5,56,103,1572287716
65,17,18,Jits_Linear_8,1,5,63,98,1572308348
65,17,18,Jits_Linear_8,2,1,48,49,1572331168
65,17,18,Jits_Linear_8,3,5,80,127,1572388060
65,17,18,Jits_Linear_8,0,5,63,98,1572858156
65,17,18,Jits_Linear_8,1,1,48,53,1572919864
65,17,18,Jits_Linear_8,2,5,56,103,1572948284
65,17,18,Jits_Linear_8,3,5,80,127,1572951424
65,17,18,Jits_Linear_8,0,1,48,38,1573482756
65,17,18,Jits_Linear_8,1,5,56,103,1573507732
65,17,18,Jits_Linear_8,2,5,80,127,1573567900
65,17,18,Jits_Linear_8,3,5,63,98,1573578272
65,17,18,Jits_Linear_8,0,1,48,52,1574096944
65,17,18,Jits_Linear_8,1,5,80,127,1574178104
65,17,18,Jits_Linear_8,2,5,56,103,1574188524
65,17,18,Jits_Linear_8,3,5,63,98,1574192252
65,17,18,Jits_Linear_8,0,5,56,103,1574757940
65,17,18,Jits_Linear_8,1,5,80,127,1574767840
65,17,18,Jits_Linear_8,2,1,48,49,1574783020
65,17,18,Jits_Linear_8,3,5,63,98,1574787396
65,17,18,Jits_Linear_8,0,1,48,43,1575332732
65,17,18,Jits_Linear_8,1,5,63,98,1575347748
65,17,18,Jits_Linear_8,2,5,80,127,1575407868
65,17,18,Jits_Linear_8,3,5,56,103,1575458056
65,17,18,Jits_Linear_8,0,1,48,48,1575949764
65,17,18,Jits_Linear_8,1,5,63,98,1576048000
65,17,18,Jits_Linear_8,2,5,56,103,1576058196
65,17,18,Jits_Linear_8,3,5,80,127,1576108252
65,17,18,Jits_Linear_8,0,5,63,98,1576557964
65,17,18,Jits_Linear_8,1,5,80,127,1576578500
65,17,18,Jits_Linear_8,2,5,56,103,1576587652
65,17,18,Jits_Linear_8,3,1,48,46,1576617592
65,17,18,Jits_Linear_8,0,1,48,47,1577164008
65,17,18,Jits_Linear_8,1,5,63,98,1577168232
65,17,18,Jits_Linear_8,2,5,80,127,1577171744
65,17,18,Jits_Linear_8,3,5,56,103,1577208172
65,17,18,Jits_Linear_8,0,1,48,42,1577712736
65,17,18,Jits_Linear_8,1,5,63,98,1577848212
65,17,18,Jits_Linear_8,2,5,80,127,1577877892
65,17,18,Jits_Linear_8,3,5,56,103,1577888312
65,17,18,Jits_Linear_8,0,5,56,103,1578408296
65,17,18,Jits_Linear_8,1,5,80,127,1578437900
65,17,18,Jits_Linear_8,2,5,63,98,1578467672
65,17,18,Jits_Linear_8,3,1,48,48,1578475204
65,17,18,Jits_Linear_8,0,1,48,46,1579071832
65,17,18,Jits_Linear_8,1,5,63,98,1579107672
65,17,18,Jits_Linear_8,2,5,56,103,1579147612
65,17,18,Jits_Linear_8,3,5,80,127,1579150756
65,17,18,Jits_Linear_8,0,5,80,127,1579608552
65,17,18,Jits_Linear_8,1,5,56,103,1579688276
65,17,18,Jits_Linear_8,2,1,48,42,1579696868
65,17,18,Jits_Linear_8,3,5,63,98,1579737672
65,17,18,Jits_Linear_8,0,5,80,127,1580187952
65,17,18,Jits_Linear_8,1,5,56,103,1580207740
65,17,18,Jits_Linear_8,2,1,48,46,1580265808
65,17,18,Jits_Linear_8,3,5,63,98,1580297740
65,17,18,Jits_Linear_8,0,5,80,127,1580827992
65,17,18,Jits_Linear_8,1,5,63,98,1580867932
65,17,18,Jits_Linear_8,2,1,48,46,1580871348
65,17,18,Jits_Linear_8,3,5,56,103,1580907864
65,17,18,Jits_Linear_8,0,5,63,98,1581398480
65,17,18,Jits_Linear_8,1,5,80,127,1581457824
65,17,18,Jits_Linear_8,2,1,48,49,1581463040
65,17,18,Jits_Linear_8,3,5,56,103,1581487644
65,17,18,Jits_Linear_8,0,5,56,103,1581997644
65,17,18,Jits_Linear_8,1,1,48,42,1582007364
65,17,18,Jits_Linear_8,2,5,80,127,1582028012
65,17,18,Jits_Linear_8,3,5,63,98,1582118204
65,17,18,Jits_Linear_8,0,5,56,103,1582597528
65,17,18,Jits_Linear_8,1,1,48,46,1582640284
65,17,18,Jits_Linear_8,2,5,80,127,1582708036
65,17,18,Jits_Linear_8,3,5,63,98,1582737788
65,17,18,Jits_Linear_8,0,5,56,103,1583237552
65,17,18,Jits_Linear_8,1,1,48,42,1583288848
65,17,18,Jits_Linear_8,2,5,63,98,1583298016
65,17,18,Jits_Linear_8,3,5,80,127,1583327712
65,17,18,Jits_Linear_8,0,5,56,103,1583797636
65,17,18,Jits_Linear_8,1,1,48,46,1583825196
65,17,18,Jits_Linear_8,2,5,63,98,1583868384
65,17,18,Jits_Linear_8,3,5,80,127,1583887796
65,17,18,Jits_Linear_8,0,5,80,127,1584357668
65,17,18,Jits_Linear_8,1,5,63,98,1584378352
65,17,18,Jits_Linear_8,2,1,48,53,1584405436
65,17,18,Jits_Linear_8,3,5,56,103,1584428544
65,17,18,Jits_Linear_8,0,5,63,98,1584957748
65,17,18,Jits_Linear_8,1,5,80,127,1584968016
65,17,18,Jits_Linear_8,2,1,48,48,1584977436
65,17,18,Jits_Linear_8,3,5,56,103,1585018436
65,17,18,Jits_Linear_8,0,5,63,98,1585538708
65,17,18,Jits_Linear_8,1,1,48,44,1585579368
65,17,18,Jits_Linear_8,2,5,80,127,1585608112
65,17,18,Jits_Linear_8,3,5,56,103,1585627448
65,17,18,Jits_Linear_8,0,1,48,40,1586074304
65,17,18,Jits_Linear_8,1,5,63,98,1586147640
65,17,18,Jits_Linear_8,2,5,80,127,1586150780
65,17,18,Jits_Linear_8,3,5,56,103,1586218500
65,17,18,Jits_Linear_8,0,5,80,127,1586678104
65,17,18,Jits_Linear_8,1,5,56,103,1586697740
65,17,18,Jits_Linear_8,2,5,63,98,1586707864
65,17,18,Jits_Linear_8,3,1,48,46,1586763192
65,17,18,Jits_Linear_8,0,1,48,44,1587239412
65,17,18,Jits_Linear_8,1,5,56,103,1587278396
65,17,18,Jits_Linear_8,2,5,63,98,1587368592
65,17,18,Jits_Linear_8,3,5,80,127,1587371884
65,17,18,Jits_Linear_8,0,5,80,127,1587828048
65,17,18,Jits_Linear_8,1,5,56,103,1587838540
65,17,18,Jits_Linear_8,2,5,63,98,1587857732
65,17,18,Jits_Linear_8,3,1,48,48,1587938712
65,17,18,Jits_Linear_8,0,1,48,43,1588311656
65,17,18,Jits_Linear_8,1,5,63,98,1588397700
65,17,18,Jits_Linear_8,2,5,80,127,1588457728
65,17,18,Jits_Linear_8,3,5,56,103,1588468296
65,17,18,Jits_Linear_8,0,1,48,48,1588922812
65,17,18,Jits_Linear_8,1,5,63,98,1589037412
65,17,18,Jits_Linear_8,2,5,80,127,1589068288
65,17,18,Jits_Linear_8,3,5,56,103,1589108152
65,17,18,Jits_Linear_8,0,1,48,46,1589594540
65,17,18,Jits_Linear_8,1,5,56,103,1589597644
65,17,18,Jits_Linear_8,2,5,80,127,1589607840
65,17,18,Jits_Linear_8,3,5,63,98,1589647632
65,17,18,Jits_Linear_8,0,1,48,43,1590128492
65,17,18,Jits_Linear_8,1,5,80,127,1590129604
65,17,18,Jits_Linear_8,2,5,56,103,1590207836
65,17,18,Jits_Linear_8,3,5,63,98,1590217984
65,17,18,Jits_Linear_8,0,1,48,42,1590705612
65,17,18,Jits_Linear_8,1,5,80,127,1590738620
65,17,18,Jits_Linear_8,2,5,56,103,1590818032
65,17,18,Jits_Linear_8,3,5,63,98,1590828524
65,17,18,Jits_Linear_8,0,5,80,127,1591257340
65,17,18,Jits_Linear_8,1,5,56,103,1591307544
65,17,18,Jits_Linear_8,2,1,48,50,1591308956
65,17,18,Jits_Linear_8,3,5,63,98,1591357812
65,17,18,Jits_Linear_8,0,1,48,42,1591836496
65,17,18,Jits_Linear_8,1,5,56,103,1591877948
65,17,18,Jits_Linear_8,2,5,63,98,1591881016
65,17,18,Jits_Linear_8,3,5,80,127,1591928520
65,17,18,Jits_Linear_8,0,1,48,40,1592393848
65,17,18,Jits_Linear_8,1,5,56,103,1592457640
65,17,18,Jits_Linear_8,2,5,63,98,1592488588
65,17,18,Jits_Linear_8,3,5,80,127,1592497572
65,17,18,Jits_Linear_8,0,5,63,98,1592927512
65,17,18,Jits_Linear_8,1,1,48,50,1592970788
65,17,18,Jits_Linear_8,2,5,56,103,1592998460
65,17,18,Jits_Linear_8,3,5,80,127,1593048536
65,17,18,Jits_Linear_8,0,1,48,41,1593496844
65,17,18,Jits_Linear_8,1,5,63,98,1593517544
65,17,18,Jits_Linear_8,2,5,56,103,1593527736
65,17,18,Jits_Linear_8,3,5,80,127,1593530732
65,17,18,Jits_Linear_8,0,1,48,48,1594003540
65,17,18,Jits_Linear_8,1,5,80,127,1594018328
65,17,18,Jits_Linear_8,2,5,56,103,1594077404
65,17,18,Jits_Linear_8,3,5,63,98,1594167744
65,17,18,Jits_Linear_8,0,5,80,127,1594568084
65,17,18,Jits_Linear_8,1,1,48,35,1594660732
65,17,18,Jits_Linear_8,2,5,56,103,1594668404
65,17,18,Jits_Linear_8,3,5,63,98,1594708416
65,17,18,Jits_Linear_8,0,5,56,103,1595168248
65,17,18,Jits_Linear_8,1,1,48,49,1595178860
65,17,18,Jits_Linear_8,2,5,63,98,1595187432
65,17,18,Jits_Linear_8,3,5,80,127,1595227444
65,17,18,Jits_Linear_8,0,5,63,98,1595688540
65,17,18,Jits_Linear_8,1,1,48,43,1595696316
65,17,18,Jits_Linear_8,2,5,56,103,1595707724
65,17,18,Jits_Linear_8,3,5,80,127,1595808324
65,17,18,Jits_Linear_8,0,5,63,98,1596217664
65,17,18,Jits_Linear_8,1,1,48,48,1596221608
65,17,18,Jits_Linear_8,2,5,80,127,1596328380
65,17,18,Jits_Linear_8,3,5,56,103,1596358132
65,17,18,Jits_Linear_8,0,1,48,43,1596734904
65,17,18,Jits_Linear_8,1,5,56,103,1596777796
65,17,18,Jits_Linear_8,2,5,63,98,1596807548
65,17,18,Jits_Linear_8,3,5,80,127,1596857660
65,17,18,Jits_Linear_8,0,1,48,51,1597231064
65,17,18,Jits_Linear_8,1,5,63,98,1597287664
65,17,18,Jits_Linear_8,2,5,56,103,1597317416
65,17,18,Jits_Linear_8,3,5,80,127,1597367604
65,17,18,Jits_Linear_8,0,1,48,41,1597777492
65,17,18,Jits_Linear_8,1,5,56,103,1597858280
65,17,18,Jits_Linear_8,2,5,63,98,1597877532
65,17,18,Jits_Linear_8,3,5,80,127,1597957352
65,17,18,Jits_Linear_8,0,1,48,40,1598353580
65,17,18,Jits_Linear_8,1,5,63,98,1598368372
65,17,18,Jits_Linear_8,2,5,56,103,1598427592
65,17,18,Jits_Linear_8,3,5,80,127,1598458300
65,17,18,Jits_Linear_8,0,1,48,34,1598892888
65,17,18,Jits_Linear_8,1,5,56,103,1598947640
65,17,18,Jits_Linear_8,2,5,80,127,1599008392
65,17,18,Jits_Linear_8,3,5,63,98,1599048032
65,17,18,Jits_Linear_8,0,5,63,98,1599457668
65,17,18,Jits_Linear_8,1,5,56,103,1599518284
65,17,18,Jits_Linear_8,2,1,48,45,1599581488
65,17,18,Jits_Linear_8,3,5,80,127,1599587808
65,17,18,Jits_Linear_8,0,1,48,38,1600005420
65,17,18,Jits_Linear_8,1,5,56,103,1600068224
65,17,18,Jits_Linear_8,2,5,63,98,1600078272
65,17,18,Jits_Linear_8,3,5,80,127,1600081632
65,17,18,Jits_Linear_8,0,5,63,98,1600538152
65,17,18,Jits_Linear_8,1,1,48,34,1600557168
65,17,18,Jits_Linear_8,2,5,56,103,1600598464
65,17,18,Jits_Linear_8,3,5,80,127,1600601532
65,17,18,Jits_Linear_8,0,5,63,98,1601047864
65,17,18,Jits_Linear_8,1,5,80,127,1601077468
65,17,18,Jits_Linear_8,2,1,48,41,1601090996
65,17,18,Jits_Linear_8,3,5,56,103,1601098216
65,17,18,Jits_Linear_8,0,1,48,41,1601581368
65,17,18,Jits_Linear_8,1,5,56,103,1601587688
65,17,18,Jits_Linear_8,2,5,63,98,1601637816
65,17,18,Jits_Linear_8,3,5,80,127,1601717668
65,17,18,Jits_Linear_8,0,5,80,127,1602088272
65,17,18,Jits_Linear_8,1,5,63,98,1602128432
65,17,18,Jits_Linear_8,2,1,48,33,1602129400
65,17,18,Jits_Linear_8,3,5,56,103,1602147764
65,17,18,Jits_Linear_8,0,1,48,39,1602631376
65,17,18,Jits_Linear_8,1,5,56,103,1602678236
65,17,18,Jits_Linear_8,2,5,80,127,1602688504
65,17,18,Jits_Linear_8,3,5,63,98,1602707772
65,17,18,Jits_Linear_8,0,5,56,103,1603177696
65,17,18,Jits_Linear_8,1,1,48,33,1603191304
65,17,18,Jits_Linear_8,2,5,63,98,1603228116
65,17,18,Jits_Linear_8,3,5,80,127,1603257644
65,17,18,Jits_Linear_8,0,5,56,103,1603658284
65,17,18,Jits_Linear_8,1,5,63,98,1603668256
65,17,18,Jits_Linear_8,2,1,48,43,1603702092
65,17,18,Jits_Linear_8,3,5,80,127,1603717552
65,17,18,Jits_Linear_8,0,5,56,103,1604168152
65,17,18,Jits_Linear_8,1,1,48,33,1604169436
65,17,18,Jits_Linear_8,2,5,80,127,1604172336
65,17,18,Jits_Linear_8,3,5,63,98,1604327888
65,17,18,Jits_Linear_8,0,5,63,98,1604697580
65,17,18,Jits_Linear_8,1,5,56,103,1604768384
65,17,18,Jits_Linear_8,2,1,48,45,1604770756
65,17,18,Jits_Linear_8,3,5,80,127,1604808192
65,17,18,Jits_Linear_8,0,1,48,27,1605111360
65,17,18,Jits_Linear_8,1,5,63,98,1605248264
65,17,18,Jits_Linear_8,2,5,56,103,1605337596
65,17,18,Jits_Linear_8,3,5,80,127,1605340588
65,17,18,Jits_Linear_8,0,5,56,103,1605737920
65,17,18,Jits_Linear_8,1,1,48,41,1605780672
65,17,18,Jits_Linear_8,2,5,63,98,1605828196
65,17,18,Jits_Linear_8,3,5,80,127,1605838172
65,17,18,Jits_Linear_8,0,5,56,103,1606218184
65,17,18,Jits_Linear_8,1,5,63,98,1606268460
65,17,18,Jits_Linear_8,2,5,80,127,1606298060
65,17,18,Jits_Linear_8,3,1,48,24,1606301332
65,17,18,Jits_Linear_8,0,1,48,38,1606682620
65,17,18,Jits_Linear_8,1,5,63,98,1606797648
65,17,18,Jits_Linear_8,2,5,80,127,1606807844
65,17,18,Jits_Linear_8,3,5,56,103,1606868332
65,17,18,Jits_Linear_8,0,5,63,98,1607217632
65,17,18,Jits_Linear_8,1,5,80,127,1607277876
65,17,18,Jits_Linear_8,2,5,56,103,1607317740
65,17,18,Jits_Linear_8,3,1,48,38,1607337568
65,17,18,Jits_Linear_8,0,1,48,43,1607673736
65,17,18,Jits_Linear_8,1,5,56,103,1607817536
65,17,18,Jits_Linear_8,2,5,80,127,1607838292
65,17,18,Jits_Linear_8,3,5,63,98,1607857408
65,17,18,Jits_Linear_8,0,5,63,98,1608237376
65,17,18,Jits_Linear_8,1,5,56,103,1608258060
65,17,18,Jits_Linear_8,2,5,80,127,1608297776
65,17,18,Jits_Linear_8,3,1,48,36,1608346148
65,17,18,Jits_Linear_8,0,1,48,42,1608723300
65,17,18,Jits_Linear_8,1,5,63,98,1608748504
65,17,18,Jits_Linear_8,2,5,80,127,1608778180
65,17,18,Jits_Linear_8,3,5,56,103,1608797444
65,17,18,Jits_Linear_8,0,1,48,36,1609206132
65,17,18,Jits_Linear_8,1,5,80,127,1609218364
65,17,18,Jits_Linear_8,2,5,56,103,1609267744
65,17,18,Jits_Linear_8,3,5,63,98,1609328340
65,17,18,Jits_Linear_8,0,5,63,98,1609697744
65,17,18,Jits_Linear_8,1,1,48,39,1609720340
65,17,18,Jits_Linear_8,2,5,56,103,1609817396
65,17,18,Jits_Linear_8,3,5,80,127,1609848100
65,17,18,Jits_Linear_8,0,5,80,127,1610228220
65,17,18,Jits_Linear_8,1,5,63,98,1610247556
65,17,18,Jits_Linear_8,2,1,48,28,1610293896
65,17,18,Jits_Linear_8,3,5,56,103,1610318056
65,17,18,Jits_Linear_8,0,5,63,98,1610738028
65,17,18,Jits_Linear_8,1,5,56,103,1610748224
65,17,18,Jits_Linear_8,2,1,48,47,1610794936
65,17,18,Jits_Linear_8,3,5,80,127,1610828236
65,17,18,Jits_Linear_8,0,1,48,35,1611249888
65,17,18,Jits_Linear_8,1,5,56,103,1611287976
65,17,18,Jits_Linear_8,2,5,80,127,1611317728
65,17,18,Jits_Linear_8,3,5,63,98,1611328296
65,17,18,Jits_Linear_8,0,9999,9999,9999,1500905552
65,17,18,Jits_Linear_8,1,9999,9999,9999,1501725764
65,17,18,Jits_Linear_8,2,9999,9999,9999,1502546044
65,17,18,Jits_Linear_8,3,9999,9999,9999,1503365220
65,17,18,Jits_Linear_8,4,9999,9999,9999,1504185436
65,17,18,Jits_Linear_8,5,9999,9999,9999,1504995408
65,17,18,Jits_Linear_8,6,9999,9999,9999,1505805424
65,17,18,Jits_Linear_8,7,9999,9999,9999,1506615384
65,17,18,Jits_Linear_8,8,9999,9999,9999,1507425336
65,17,18,Jits_Linear_8,9,9999,9999,9999,1508235340
65,17,18,Jits_Linear_8,10,9999,9999,9999,1509035116
65,17,18,Jits_Linear_8,11,9999,9999,9999,1509835868
65,17,18,Jits_Linear_8,12,9999,9999,9999,1510635644
65,17,18,Jits_Linear_8,13,9999,9999,9999,1511435336
65,17,18,Jits_Linear_8,14,9999,9999,9999,1512235076
65,17,18,Jits_Linear_8,15,9999,9999,9999,1513025620
65,17,18,Jits_Linear_8,16,9999,9999,9999,1513815096
65,17,18,Jits_Linear_8,17,9999,9999,9999,1514605640
65,17,18,Jits_Linear_8,18,9999,9999,9999,1515395136
65,17,18,Jits_Linear_8,19,9999,9999,9999,1516185692
65,17,18,Jits_Linear_8,20,9999,9999,9999,1516965964
65,17,18,Jits_Linear_8,21,9999,9999,9999,1517745264
65,17,18,Jits_Linear_8,22,9999,9999,9999,1518525544
65,17,18,Jits_Linear_8,23,9999,9999,9999,1519305820
65,17,18,Jits_Linear_8,24,9999,9999,9999,1520086112
65,17,18,Jits_Linear_8,25,9999,9999,9999,1520865340
65,17,18,Jits_Linear_8,26,9999,9999,9999,1521635444
65,17,18,Jits_Linear_8,27,9999,9999,9999,1522405456
65,17,18,Jits_Linear_8,28,9999,9999,9999,1523175480
65,17,18,Jits_Linear_8,29,9999,9999,9999,1523945588
65,17,18,Jits_Linear_8,30,9999,9999,9999,1524705408
65,17,18,Jits_Linear_8,31,9999,9999,9999,1525465152
65,17,18,Jits_Linear_8,32,9999,9999,9999,1526226032
65,17,18,Jits_Linear_8,33,9999,9999,9999,1526985860
65,17,18,Jits_Linear_8,34,9999,9999,9999,1527745596
65,17,18,Jits_Linear_8,35,9999,9999,9999,1528495160
65,17,18,Jits_Linear_8,36,9999,9999,9999,1529245772
65,17,18,Jits_Linear_8,37,9999,9999,9999,1529995324
65,17,18,Jits_Linear_8,38,9999,9999,9999,1530745944
65,17,18,Jits_Linear_8,39,9999,9999,9999,1531495520
65,17,18,Jits_Linear_8,40,9999,9999,9999,1532235868
65,17,18,Jits_Linear_8,41,9999,9999,9999,1532975180
65,17,18,Jits_Linear_8,42,9999,9999,9999,1533715516
65,17,18,Jits_Linear_8,43,9999,9999,9999,1534455864
65,17,18,Jits_Linear_8,44,9999,9999,9999,1535195220
65,17,18,Jits_Linear_8,45,9999,9999,9999,1535925352
65,17,18,Jits_Linear_8,46,9999,9999,9999,1536655436
65,17,18,Jits_Linear_8,47,9999,9999,9999,1537385572
65,17,18,Jits_Linear_8,48,9999,9999,9999,1538115664
65,17,18,Jits_Linear_8,49,9999,9999,9999,1538845752
65,17,18,Jits_Linear_8,50,9999,9999,9999,1539565640
65,17,18,Jits_Linear_8,51,9999,9999,9999,1540285520
65,17,18,Jits_Linear_8,52,9999,9999,9999,1541005428
65,17,18,Jits_Linear_8,53,9999,9999,9999,1541725264
65,17,18,Jits_Linear_8,54,9999,9999,9999,1542445152
65,17,18,Jits_Linear_8,55,9999,9999,9999,1543155764
65,17,18,Jits_Linear_8,56,9999,9999,9999,1543865440
65,17,18,Jits_Linear_8,57,9999,9999,9999,1544576112
65,17,18,Jits_Linear_8,58,9999,9999,9999,1545295932
65,17,18,Jits_Linear_8,59,9999,9999,9999,1546005628
65,17,18,Jits_Linear_8,60,9999,9999,9999,1546706040
65,17,18,Jits_Linear_8,61,9999,9999,9999,1547405396
65,17,18,Jits_Linear_8,62,9999,9999,9999,1548105816
65,17,18,Jits_Linear_8,63,9999,9999,9999,1548805248
65,17,18,Jits_Linear_8,64,9999,9999,9999,1549505640
65,17,18,Jits_Linear_8,65,9999,9999,9999,1550195788
65,17,18,Jits_Linear_8,66,9999,9999,9999,1550885952
65,17,18,Jits_Linear_8,67,9999,9999,9999,1551575136
65,17,18,Jits_Linear_8,68,9999,9999,9999,1552265320
65,17,18,Jits_Linear_8,69,9999,9999,9999,1552955484
65,17,18,Jits_Linear_8,70,9999,9999,9999,1553635452
65,17,18,Jits_Linear_8,71,9999,9999,9999,1554315392
65,17,18,Jits_Linear_8,72,9999,9999,9999,1554995272
65,17,18,Jits_Linear_8,73,9999,9999,9999,1555675244
65,17,18,Jits_Linear_8,74,9999,9999,9999,1556355128
65,17,18,Jits_Linear_8,75,9999,9999,9999,1557025872
65,17,18,Jits_Linear_8,76,9999,9999,9999,1557695552
65,17,18,Jits_Linear_8,77,9999,9999,9999,1558365260
65,17,18,Jits_Linear_8,78,9999,9999,9999,1559036012
65,17,18,Jits_Linear_8,79,9999,9999,9999,1559705696
65,17,18,Jits_Linear_8,80,9999,9999,9999,1560365132
65,17,18,Jits_Linear_8,81,9999,9999,9999,1561025660
65,17,18,Jits_Linear_8,82,9999,9999,9999,1561686132
65,17,18,Jits_Linear_8,83,9999,9999,9999,1562355824
65,17,18,Jits_Linear_8,84,9999,9999,9999,1563015224
65,17,18,Jits_Linear_8,85,9999,9999,9999,1563665516
65,17,18,Jits_Linear_8,86,9999,9999,9999,1564315704
65,17,18,Jits_Linear_8,87,9999,9999,9999,1564965992
65,17,18,Jits_Linear_8,88,9999,9999,9999,1565615204
65,17,18,Jits_Linear_8,89,9999,9999,9999,1566265428
65,17,18,Jits_Linear_8,90,9999,9999,9999,1566905440
65,17,18,Jits_Linear_8,91,9999,9999,9999,1567545404
65,17,18,Jits_Linear_8,92,9999,9999,9999,1568185420
65,17,18,Jits_Linear_8,93,9999,9999,9999,1568825440
65,17,18,Jits_Linear_8,94,9999,9999,9999,1569465424
65,17,18,Jits_Linear_8,95,9999,9999,9999,1570095180
65,17,18,Jits_Linear_8,96,9999,9999,9999,1570725976
65,17,18,Jits_Linear_8,97,9999,9999,9999,1571355740
65,17,18,Jits_Linear_8,98,9999,9999,9999,1571985484
65,17,18,Jits_Linear_8,99,9999,9999,9999,1572615252
65,17,18,Jits_Linear_8,100,9999,9999,9999,1573235780
65,17,18,Jits_Linear_8,101,9999,9999,9999,1573855356
65,17,18,Jits_Linear_8,102,9999,9999,9999,1574475868
65,17,18,Jits_Linear_8,103,9999,9999,9999,1575095416
65,17,18,Jits_Linear_8,104,9999,9999,9999,1575715900
65,17,18,Jits_Linear_8,105,9999,9999,9999,1576325192
65,17,18,Jits_Linear_8,106,9999,9999,9999,1576935540
65,17,18,Jits_Linear_8,107,9999,9999,9999,1577545784
65,17,18,Jits_Linear_8,108,9999,9999,9999,1578155072
65,17,18,Jits_Linear_8,109,9999,9999,9999,1578765424
65,17,18,Jits_Linear_8,110,9999,9999,9999,1579365436
65,17,18,Jits_Linear_8,111,9999,9999,9999,1579965512
65,17,18,Jits_Linear_8,112,9999,9999,9999,1580565608
65,17,18,Jits_Linear_8,113,9999,9999,9999,1581165692
65,17,18,Jits_Linear_8,114,9999,9999,9999,1581765700
65,17,18,Jits_Linear_8,115,9999,9999,9999,1582355524
65,17,18,Jits_Linear_8,116,9999,9999,9999,1582945352
65,17,18,Jits_Linear_8,117,9999,9999,9999,1583535180
65,17,18,Jits_Linear_8,118,9999,9999,9999,1584126076
65,17,18,Jits_Linear_8,119,9999,9999,9999,1584715892
65,17,18,Jits_Linear_8,120,9999,9999,9999,1585295448
65,17,18,Jits_Linear_8,121,9999,9999,9999,1585876060
65,17,18,Jits_Linear_8,122,9999,9999,9999,1586455672
65,17,18,Jits_Linear_8,123,9999,9999,9999,1587035204
65,17,18,Jits_Linear_8,124,9999,9999,9999,1587615804
65,17,18,Jits_Linear_8,125,9999,9999,9999,1588185172
65,17,18,Jits_Linear_8,126,9999,9999,9999,1588755508
65,17,18,Jits_Linear_8,127,9999,9999,9999,1589325916
65,17,18,Jits_Linear_8,128,9999,9999,9999,1589895272
65,17,18,Jits_Linear_8,129,9999,9999,9999,1590465600
65,17,18,Jits_Linear_8,130,9999,9999,9999,1591025764
65,17,18,Jits_Linear_8,131,9999,9999,9999,1591585904
65,17,18,Jits_Linear_8,132,9999,9999,9999,1592145976
65,17,18,Jits_Linear_8,133,9999,9999,9999,1592705076
65,17,18,Jits_Linear_8,134,9999,9999,9999,1593265220
65,17,18,Jits_Linear_8,135,9999,9999,9999,1593815108
65,17,18,Jits_Linear_8,136,9999,9999,9999,1594366032
65,17,18,Jits_Linear_8,137,9999,9999,9999,1594915904
65,17,18,Jits_Linear_8,138,9999,9999,9999,1595465792
65,17,18,Jits_Linear_8,139,9999,9999,9999,1596015680
65,17,18,Jits_Linear_8,140,9999,9999,9999,1596555372
65,17,18,Jits_Linear_8,141,9999,9999,9999,1597096028
65,17,18,Jits_Linear_8,142,9999,9999,9999,1597635712
65,17,18,Jits_Linear_8,143,9999,9999,9999,1598175340
65,17,18,Jits_Linear_8,144,9999,9999,9999,1598715996
65,17,18,Jits_Linear_8,145,9999,9999,9999,1599245420
65,17,18,Jits_Linear_8,146,9999,9999,9999,1599775820
65,17,18,Jits_Linear_8,147,9999,9999,9999,1600305236
65,17,18,Jits_Linear_8,148,9999,9999,9999,1600835696
65,17,18,Jits_Linear_8,149,9999,9999,9999,1601366084
65,17,18,Jits_Linear_8,150,9999,9999,9999,1601895508
65,17,18,Jits_Linear_8,151,9999,9999,9999,1602415708
65,17,18,Jits_Linear_8,152,9999,9999,9999,1602935932
65,17,18,Jits_Linear_8,153,9999,9999,9999,1603456068
65,17,18,Jits_Linear_8,154,9999,9999,9999,1603985492
65,17,18,Jits_Linear_8,155,9999,9999,9999,1604495436
65,17,18,Jits_Linear_8,156,9999,9999,9999,1605005392
65,17,18,Jits_Linear_8,157,9999,9999,9999,1605515336
65,17,18,Jits_Linear_8,158,9999,9999,9999,1606025332
65,17,18,Jits_Linear_8,159,9999,9999,9999,1606535284
65,17,18,Jits_Linear_8,160,9999,9999,9999,1607036032
65,17,18,Jits_Linear_8,161,9999,9999,9999,1607535708
65,17,18,Jits_Linear_8,162,9999,9999,9999,1608035396
65,17,18,Jits_Linear_8,163,9999,9999,9999,1608535148
65,17,18,Jits_Linear_8,164,9999,9999,9999,1609035868
65,17,18,Jits_Linear_8,165,9999,9999,9999,1609525360
65,17,18,Jits_Linear_8,166,9999,9999,9999,1610015828
65,17,18,Jits_Linear_8,167,9999,9999,9999,1610505316
65,17,18,Jits_Linear_8,168,9999,9999,9999,1610995796
65,17,18,Jits_Linear_8,169,9999,9999,9999,1611485296
65,18,19,Jits_Linear_5,0,5,56,103,1620721068
65,18,19,Jits_Linear_5,1,5,63,98,1620724016
65,18,19,Jits_Linear_5,2,5,80,127,1620727140
65,18,19,Jits_Linear_5,0,5,56,103,1621201232
65,18,19,Jits_Linear_5,1,5,63,98,1621204404
65,18,19,Jits_Linear_5,2,5,80,127,1621207748
65,18,19,Jits_Linear_5,3,1,48,37,1621324228
65,18,19,Jits_Linear_5,0,5,56,103,1621680524
65,18,19,Jits_Linear_5,1,5,80,127,1621690944
65,18,19,Jits_Linear_5,2,5,63,98,1621711280
65,18,19,Jits_Linear_5,3,1,48,36,1621748780
65,18,19,Jits_Linear_5,0,5,63,98,1622110852
65,18,19,Jits_Linear_5,1,5,80,127,1622141204
65,18,19,Jits_Linear_5,2,5,56,103,1622150576
65,18,19,Jits_Linear_5,3,1,48,38,1622217916
65,18,19,Jits_Linear_5,0,1,48,35,1622585848
65,18,19,Jits_Linear_5,1,5,80,127,1622651140
65,18,19,Jits_Linear_5,2,5,56,103,1622660440
65,18,19,Jits_Linear_5,3,5,63,98,1622691296
65,18,19,Jits_Linear_5,0,5,63,98,1623130540
65,18,19,Jits_Linear_5,1,5,56,103,1623161188
65,18,19,Jits_Linear_5,2,5,80,127,1623170412
65,18,19,Jits_Linear_5,3,1,48,28,1623221856
65,18,19,Jits_Linear_5,0,5,56,103,1623570816
65,18,19,Jits_Linear_5,1,5,63,98,1623620948
65,18,19,Jits_Linear_5,2,5,80,127,1623640284
65,18,19,Jits_Linear_5,3,1,48,34,1623672620
65,18,19,Jits_Linear_5,0,5,80,127,1624061300
65,18,19,Jits_Linear_5,1,5,63,98,1624110388
65,18,19,Jits_Linear_5,2,1,48,36,1624123316
65,18,19,Jits_Linear_5,3,5,56,103,1624151516
65,18,19,Jits_Linear_5,0,5,56,103,1624550968
65,18,19,Jits_Linear_5,1,5,63,98,1624580348
65,18,19,Jits_Linear_5,2,1,48,34,1624641608
65,18,19,Jits_Linear_5,3,5,80,127,1624651068
65,18,19,Jits_Linear_5,0,5,56,103,1625041304
65,18,19,Jits_Linear_5,1,1,48,34,1625088416
65,18,19,Jits_Linear_5,2,5,80,127,1625100796
65,18,19,Jits_Linear_5,3,5,63,98,1625131520
65,18,19,Jits_Linear_5,0,5,56,103,1625540912
65,18,19,Jits_Linear_5,1,5,63,98,1625551332
65,18,19,Jits_Linear_5,2,5,80,127,1625591124
65,18,19,Jits_Linear_5,3,1,48,35,1625625552
65,18,19,Jits_Linear_5,0,5,63,98,1626030400
65,18,19,Jits_Linear_5,1,1,48,29,1626058556
65,18,19,Jits_Linear_5,2,5,80,127,1626111340
65,18,19,Jits_Linear_5,3,5,56,103,1626120864
65,18,19,Jits_Linear_5,0,5,63,98,1626581732
65,18,19,Jits_Linear_5,1,1,48,41,1626586048
65,18,19,Jits_Linear_5,2,5,56,103,1626621440
65,18,19,Jits_Linear_5,3,5,80,127,1626624656
65,18,19,Jits_Linear_5,0,5,56,103,1627041084
65,18,19,Jits_Linear_5,1,5,63,98,1627051356
65,18,19,Jits_Linear_5,2,5,80,127,1627091244
65,18,19,Jits_Linear_5,3,1,48,34,1627103508
65,18,19,Jits_Linear_5,0,5,56,103,1627530736
65,18,19,Jits_Linear_5,1,5,63,98,1627533652
65,18,19,Jits_Linear_5,2,1,48,35,1627534620
65,18,19,Jits_Linear_5,3,5,80,127,1627550964
65,18,19,Jits_Linear_5,0,1,48,37,1628011436
65,18,19,Jits_Linear_5,1,5,80,127,1628050948
65,18,19,Jits_Linear_5,2,5,56,103,1628061072
65,18,19,Jits_Linear_5,3,5,63,98,1628130840
65,18,19,Jits_Linear_5,0,5,63,98,1628550720
65,18,19,Jits_Linear_5,1,5,56,103,1628570956
65,18,19,Jits_Linear_5,2,1,48,35,1628619432
65,18,19,Jits_Linear_5,3,5,80,127,1628650920
65,18,19,Jits_Linear_5,0,5,56,103,1629070788
65,18,19,Jits_Linear_5,1,1,48,40,1629091740
65,18,19,Jits_Linear_5,2,5,80,127,1629110872
65,18,19,Jits_Linear_5,3,5,63,98,1629120920
65,18,19,Jits_Linear_5,0,5,80,127,1629570340
65,18,19,Jits_Linear_5,1,1,48,39,1629589420
65,18,19,Jits_Linear_5,2,5,63,98,1629601060
65,18,19,Jits_Linear_5,3,5,56,103,1629640948
65,18,19,Jits_Linear_5,0,5,56,103,1630100912
65,18,19,Jits_Linear_5,1,5,63,98,1630130736
65,18,19,Jits_Linear_5,2,1,48,41,1630138116
65,18,19,Jits_Linear_5,3,5,80,127,1630180884
65,18,19,Jits_Linear_5,0,1,48,32,1630592044
65,18,19,Jits_Linear_5,1,5,80,127,1630620916
65,18,19,Jits_Linear_5,2,5,56,103,1630660856
65,18,19,Jits_Linear_5,3,5,63,98,1630671128
65,18,19,Jits_Linear_5,0,5,80,127,1631120872
65,18,19,Jits_Linear_5,1,1,48,34,1631123620
65,18,19,Jits_Linear_5,2,5,63,98,1631160660
65,18,19,Jits_Linear_5,3,5,56,103,1631221060
65,18,19,Jits_Linear_5,0,5,56,103,1631640956
65,18,19,Jits_Linear_5,1,5,80,127,1631651076
65,18,19,Jits_Linear_5,2,1,48,44,1631688524
65,18,19,Jits_Linear_5,3,5,63,98,1631730968
65,18,19,Jits_Linear_5,0,5,80,127,1632161184
65,18,19,Jits_Linear_5,1,1,48,35,1632220708
65,18,19,Jits_Linear_5,2,5,63,98,1632221972
65,18,19,Jits_Linear_5,3,5,56,103,1632251124
65,18,19,Jits_Linear_5,0,5,56,103,1632681268
65,18,19,Jits_Linear_5,1,1,48,47,1632741236
65,18,19,Jits_Linear_5,2,5,80,127,1632742348
65,18,19,Jits_Linear_5,3,5,63,98,1632780572
65,18,19,Jits_Linear_5,0,5,56,103,1633260940
65,18,19,Jits_Linear_5,1,5,63,98,1633271284
65,18,19,Jits_Linear_5,2,5,80,127,1633274648
65,18,19,Jits_Linear_5,3,1,48,46,1633291188
65,18,19,Jits_Linear_5,0,5,80,127,1633741152
65,18,19,Jits_Linear_5,1,1,48,38,1633777008
65,18,19,Jits_Linear_5,2,5,63,98,1633831212
65,18,19,Jits_Linear_5,3,5,56,103,1633840584
65,18,19,Jits_Linear_5,0,5,56,103,1634270660
65,18,19,Jits_Linear_5,1,5,63,98,1634273912
65,18,19,Jits_Linear_5,2,5,80,127,1634277028
65,18,19,Jits_Linear_5,3,1,48,50,1634313648
65,18,19,Jits_Linear_5,0,1,48,53,1634816396
65,18,19,Jits_Linear_5,1,5,80,127,1634820624
65,18,19,Jits_Linear_5,2,5,63,98,1634870828
65,18,19,Jits_Linear_5,3,5,56,103,1634901548
65,18,19,Jits_Linear_5,0,5,56,103,1635330360
65,18,19,Jits_Linear_5,1,5,80,127,1635340856
65,18,19,Jits_Linear_5,2,1,48,51,1635366296
65,18,19,Jits_Linear_5,3,5,63,98,1635411576
65,18,19,Jits_Linear_5,0,5,56,103,1635870968
65,18,19,Jits_Linear_5,1,1,48,51,1635890976
65,18,19,Jits_Linear_5,2,5,63,98,1635892168
65,18,19,Jits_Linear_5,3,5,80,127,1635950840
65,18,19,Jits_Linear_5,0,5,80,127,1636400636
65,18,19,Jits_Linear_5,1,1,48,52,1636404728
65,18,19,Jits_Linear_5,2,5,63,98,1636471288
65,18,19,Jits_Linear_5,3,5,56,103,1636490700
65,18,19,Jits_Linear_5,0,5,80,127,1636960652
65,18,19,Jits_Linear_5,1,5,56,103,1636970848
65,18,19,Jits_Linear_5,2,5,63,98,1636981048
65,18,19,Jits_Linear_5,3,1,48,50,1636996224
65,18,19,Jits_Linear_5,0,5,80,127,1637491068
65,18,19,Jits_Linear_5,1,5,56,103,1637510708
65,18,19,Jits_Linear_5,2,1,48,49,1637514276
65,18,19,Jits_Linear_5,3,5,63,98,1637581304
65,18,19,Jits_Linear_5,0,5,56,103,1638040824
65,18,19,Jits_Linear_5,1,1,48,50,1638052856
65,18,19,Jits_Linear_5,2,5,80,127,1638070716
65,18,19,Jits_Linear_5,3,5,63,98,1638090980
65,18,19,Jits_Linear_5,4,1,48,28,1638105692
65,18,19,Jits_Linear_5,0,5,63,98,1638580724
65,18,19,Jits_Linear_5,1,5,56,103,1638641068
65,18,19,Jits_Linear_5,2,5,80,127,1638670748
65,18,19,Jits_Linear_5,3,1,48,52,1638690724
65,18,19,Jits_Linear_5,0,5,63,98,1639121340
65,18,19,Jits_Linear_5,1,5,80,127,1639124632
65,18,19,Jits_Linear_5,2,1,48,51,1639186788
65,18,19,Jits_Linear_5,3,5,56,103,1639211320
65,18,19,Jits_Linear_5,0,1,48,43,1639688028
65,18,19,Jits_Linear_5,1,5,56,103,1639690840
65,18,19,Jits_Linear_5,2,5,63,98,1639721488
65,18,19,Jits_Linear_5,3,5,80,127,1639761132
65,18,19,Jits_Linear_5,0,1,48,48,1640205924
65,18,19,Jits_Linear_5,1,5,63,98,1640240500
65,18,19,Jits_Linear_5,2,5,56,103,1640280440
65,18,19,Jits_Linear_5,3,5,80,127,1640300812
65,18,19,Jits_Linear_5,0,5,63,98,1640800508
65,18,19,Jits_Linear_5,1,1,48,54,1640801548
65,18,19,Jits_Linear_5,2,5,56,103,1640840440
65,18,19,Jits_Linear_5,3,5,80,127,1640850932
65,18,19,Jits_Linear_5,0,1,48,47,1641325472
65,18,19,Jits_Linear_5,1,5,80,127,1641331124
65,18,19,Jits_Linear_5,2,5,63,98,1641400664
65,18,19,Jits_Linear_5,3,5,56,103,1641421056
65,18,19,Jits_Linear_5,0,5,56,103,1641881016
65,18,19,Jits_Linear_5,1,5,80,127,1641901552
65,18,19,Jits_Linear_5,2,5,63,98,1641941440
65,18,19,Jits_Linear_5,3,1,48,48,1641978564
65,18,19,Jits_Linear_5,0,5,63,98,1642451392
65,18,19,Jits_Linear_5,1,5,80,127,1642470728
65,18,19,Jits_Linear_5,2,5,56,103,1642510668
65,18,19,Jits_Linear_5,3,1,48,46,1642525396
65,18,19,Jits_Linear_5,0,5,63,98,1643010636
65,18,19,Jits_Linear_5,1,5,56,103,1643030800
65,18,19,Jits_Linear_5,2,5,80,127,1643040996
65,18,19,Jits_Linear_5,3,1,48,52,1643074756
65,18,19,Jits_Linear_5,0,5,80,127,1643570628
65,18,19,Jits_Linear_5,1,1,48,51,1643585808
65,18,19,Jits_Linear_5,2,5,56,103,1643591084
65,18,19,Jits_Linear_5,3,5,63,98,1643620836
65,18,19,Jits_Linear_5,0,1,48,47,1644112328
65,18,19,Jits_Linear_5,1,1,48,29,1644171424
65,18,19,Jits_Linear_5,2,5,56,103,1644210632
65,18,19,Jits_Linear_5,3,5,80,127,1644213624
65,18,19,Jits_Linear_5,4,5,63,98,1644231040
65,18,19,Jits_Linear_5,0,5,63,98,1644701100
65,18,19,Jits_Linear_5,1,5,56,103,1644730776
65,18,19,Jits_Linear_5,2,5,80,127,1644791116
65,18,19,Jits_Linear_5,3,1,48,51,1644819492
65,18,19,Jits_Linear_5,0,1,48,49,1645320804
65,18,19,Jits_Linear_5,1,5,63,98,1645360392
65,18,19,Jits_Linear_5,2,5,56,103,1645370736
65,18,19,Jits_Linear_5,3,5,80,127,1645380932
65,18,19,Jits_Linear_5,0,1,48,51,1645855696
65,18,19,Jits_Linear_5,1,5,56,103,1645880684
65,18,19,Jits_Linear_5,2,5,80,127,1645911704
65,18,19,Jits_Linear_5,3,5,63,98,1645920556
65,18,19,Jits_Linear_5,0,1,48,49,1646432112
65,18,19,Jits_Linear_5,1,5,63,98,1646490956
65,18,19,Jits_Linear_5,2,5,56,103,1646501376
65,18,19,Jits_Linear_5,3,5,80,127,1646520640
65,18,19,Jits_Linear_5,0,5,56,103,1646990652
65,18,19,Jits_Linear_5,1,1,48,46,1647022392
65,18,19,Jits_Linear_5,2,5,63,98,1647051208
65,18,19,Jits_Linear_5,3,5,80,127,1647054648
65,18,19,Jits_Linear_5,0,5,80,127,1647590764
65,18,19,Jits_Linear_5,1,1,48,53,1647594404
65,18,19,Jits_Linear_5,2,5,56,103,1647600952
65,18,19,Jits_Linear_5,3,5,63,98,1647670636
65,18,19,Jits_Linear_5,0,5,80,127,1648161036
65,18,19,Jits_Linear_5,1,1,48,52,1648192704
65,18,19,Jits_Linear_5,2,5,56,103,1648230864
65,18,19,Jits_Linear_5,3,5,63,98,1648241060
65,18,19,Jits_Linear_5,0,5,63,98,1648780616
65,18,19,Jits_Linear_5,1,5,56,103,1648790888
65,18,19,Jits_Linear_5,2,5,80,127,1648811572
65,18,19,Jits_Linear_5,3,1,48,48,1648814544
65,18,19,Jits_Linear_5,0,5,80,127,1649310944
65,18,19,Jits_Linear_5,1,5,63,98,1649370468
65,18,19,Jits_Linear_5,2,1,48,52,1649403180
65,18,19,Jits_Linear_5,3,5,56,103,1649410548
65,18,19,Jits_Linear_5,0,5,56,103,1649940812
65,18,19,Jits_Linear_5,1,5,63,98,1649951012
65,18,19,Jits_Linear_5,2,1,48,51,1649965140
65,18,19,Jits_Linear_5,3,5,80,127,1649991016
65,18,19,Jits_Linear_5,0,5,56,103,1650490636
65,18,19,Jits_Linear_5,1,1,48,54,1650518264
65,18,19,Jits_Linear_5,2,5,80,127,1650520380
65,18,19,Jits_Linear_5,3,5,63,98,1650570580
65,18,19,Jits_Linear_5,0,5,56,103,1651120400
65,18,19,Jits_Linear_5,1,1,48,46,1651128624
65,18,19,Jits_Linear_5,2,5,63,98,1651160580
65,18,19,Jits_Linear_5,3,5,80,127,1651163796
65,18,19,Jits_Linear_5,0,5,56,103,1651711596
65,18,19,Jits_Linear_5,1,5,63,98,1651720524
65,18,19,Jits_Linear_5,2,5,80,127,1651741132
65,18,19,Jits_Linear_5,3,1,48,50,1651756160
65,18,19,Jits_Linear_5,0,5,56,103,1652261196
65,18,19,Jits_Linear_5,1,5,80,127,1652264484
65,18,19,Jits_Linear_5,2,5,63,98,1652301356
65,18,19,Jits_Linear_5,3,1,48,47,1652314516
65,18,19,Jits_Linear_5,0,5,63,98,1652890948
65,18,19,Jits_Linear_5,1,1,48,50,1652900736
65,18,19,Jits_Linear_5,2,5,56,103,1652920544
65,18,19,Jits_Linear_5,3,5,80,127,1652941328
65,18,19,Jits_Linear_5,0,5,80,127,1653461236
65,18,19,Jits_Linear_5,1,5,56,103,1653470532
65,18,19,Jits_Linear_5,2,5,63,98,1653480804
65,18,19,Jits_Linear_5,3,1,48,43,1653502876
65,18,19,Jits_Linear_5,0,1,48,48,1654052304
65,18,19,Jits_Linear_5,1,5,56,103,1654061616
65,18,19,Jits_Linear_5,2,5,80,127,1654101484
65,18,19,Jits_Linear_5,3,5,63,98,1654131312
65,18,19,Jits_Linear_5,0,5,63,98,1654670776
65,18,19,Jits_Linear_5,1,1,48,48,1654674940
65,18,19,Jits_Linear_5,2,5,80,127,1654680892
65,18,19,Jits_Linear_5,3,5,56,103,1654691608
65,18,19,Jits_Linear_5,0,1,48,48,1655244468
65,18,19,Jits_Linear_5,1,5,56,103,1655251464
65,18,19,Jits_Linear_5,2,5,63,98,1655321000
65,18,19,Jits_Linear_5,3,5,80,127,1655331268
65,18,19,Jits_Linear_5,0,5,80,127,1655860692
65,18,19,Jits_Linear_5,1,5,56,103,1655870816
65,18,19,Jits_Linear_5,2,1,48,52,1655892812
65,18,19,Jits_Linear_5,3,5,63,98,1655921012
65,18,19,Jits_Linear_5,4,1,48,21,1655967260
65,18,19,Jits_Linear_5,0,5,80,127,1656481212
65,18,19,Jits_Linear_5,1,1,48,54,1656510636
65,18,19,Jits_Linear_5,2,5,56,103,1656540428
65,18,19,Jits_Linear_5,3,5,63,98,1656571524
65,18,19,Jits_Linear_5,0,5,56,103,1657090400
65,18,19,Jits_Linear_5,1,5,80,127,1657093544
65,18,19,Jits_Linear_5,2,1,48,46,1657130784
65,18,19,Jits_Linear_5,3,5,63,98,1657132356
65,18,19,Jits_Linear_5,0,5,56,103,1657730344
65,18,19,Jits_Linear_5,1,1,48,47,1657745600
65,18,19,Jits_Linear_5,2,5,63,98,1657761284
65,18,19,Jits_Linear_5,3,5,80,127,1657771484
65,18,19,Jits_Linear_5,0,1,48,43,1658330512
65,18,19,Jits_Linear_5,1,5,63,98,1658350916
65,18,19,Jits_Linear_5,2,5,80,127,1658361336
65,18,19,Jits_Linear_5,3,5,56,103,1658370408
65,18,19,Jits_Linear_5,0,5,80,127,1658911292
65,18,19,Jits_Linear_5,1,5,56,103,1658961196
65,18,19,Jits_Linear_5,2,5,63,98,1658964412
65,18,19,Jits_Linear_5,3,1,48,36,1659057432
65,18,19,Jits_Linear_5,0,5,56,103,1659561424
65,18,19,Jits_Linear_5,1,5,80,127,1659580688
65,18,19,Jits_Linear_5,2,5,63,98,1659591284
65,18,19,Jits_Linear_5,3,1,48,45,1659597996
65,18,19,Jits_Linear_5,0,5,63,98,1660161544
65,18,19,Jits_Linear_5,1,1,48,43,1660187580
65,18,19,Jits_Linear_5,2,5,56,103,1660191284
65,18,19,Jits_Linear_5,3,5,80,127,1660210400
65,18,19,Jits_Linear_5,0,5,56,103,1660791212
65,18,19,Jits_Linear_5,1,1,48,36,1660795828
65,18,19,Jits_Linear_5,2,5,80,127,1660801480
65,18,19,Jits_Linear_5,3,5,63,98,1660871260
65,18,19,Jits_Linear_5,0,5,63,98,1661400476
65,18,19,Jits_Linear_5,1,1,48,43,1661407856
65,18,19,Jits_Linear_5,2,5,80,127,1661441460
65,18,19,Jits_Linear_5,3,5,56,103,1661481248
65,18,19,Jits_Linear_5,0,1,48,47,1662016028
65,18,19,Jits_Linear_5,1,5,56,103,1662040560
65,18,19,Jits_Linear_5,2,5,63,98,1662050756
65,18,19,Jits_Linear_5,3,5,80,127,1662071288
65,18,19,Jits_Linear_5,0,1,48,48,1662596324
65,18,19,Jits_Linear_5,1,5,63,98,1662711076
65,18,19,Jits_Linear_5,2,5,80,127,1662730640
65,18,19,Jits_Linear_5,3,5,56,103,1662751320
65,18,19,Jits_Linear_5,0,5,56,103,1663290652
65,18,19,Jits_Linear_5,1,1,48,47,1663325608
65,18,19,Jits_Linear_5,2,5,80,127,1663370516
65,18,19,Jits_Linear_5,3,5,63,98,1663380716
65,18,19,Jits_Linear_5,0,1,48,48,1663970188
65,18,19,Jits_Linear_5,1,5,80,127,1663971608
65,18,19,Jits_Linear_5,2,5,63,98,1663981056
65,18,19,Jits_Linear_5,3,5,56,103,1664010584
65,18,19,Jits_Linear_5,0,5,63,98,1664570724
65,18,19,Jits_Linear_5,1,1,48,45,1664596096
65,18,19,Jits_Linear_5,2,5,80,127,1664610664
65,18,19,Jits_Linear_5,3,5,56,103,1664671052
65,18,19,Jits_Linear_5,0,1,48,48,1665217892
65,18,19,Jits_Linear_5,1,5,63,98,1665231212
65,18,19,Jits_Linear_5,2,5,56,103,1665281492
65,18,19,Jits_Linear_5,3,5,80,127,1665311020
65,18,19,Jits_Linear_5,0,1,48,49,1665860868
65,18,19,Jits_Linear_5,1,5,80,127,1665880300
65,18,19,Jits_Linear_5,2,5,63,98,1665890792
65,18,19,Jits_Linear_5,3,5,56,103,1665961280
65,18,19,Jits_Linear_5,0,1,48,40,1666494508
65,18,19,Jits_Linear_5,1,5,80,127,1666591140
65,18,19,Jits_Linear_5,2,5,56,103,1666601320
65,18,19,Jits_Linear_5,3,5,63,98,1666604532
65,18,19,Jits_Linear_5,0,5,56,103,1667170768
65,18,19,Jits_Linear_5,1,1,48,49,1667189260
65,18,19,Jits_Linear_5,2,5,80,127,1667191072
65,18,19,Jits_Linear_5,3,5,63,98,1667201496
65,18,19,Jits_Linear_5,0,1,48,43,1667795352
65,18,19,Jits_Linear_5,1,5,63,98,1667821228
65,18,19,Jits_Linear_5,2,5,56,103,1667860944
65,18,19,Jits_Linear_5,3,5,80,127,1667881256
65,18,19,Jits_Linear_5,0,1,48,52,1668444884
65,18,19,Jits_Linear_5,1,5,63,98,1668461172
65,18,19,Jits_Linear_5,2,5,56,103,1668521268
65,18,19,Jits_Linear_5,3,5,80,127,1668524332
65,18,19,Jits_Linear_5,0,5,56,103,1669080528
65,18,19,Jits_Linear_5,1,5,80,127,1669100916
65,18,19,Jits_Linear_5,2,1,48,40,1669107548
65,18,19,Jits_Linear_5,3,5,63,98,1669141072
65,18,19,Jits_Linear_5,0,1,48,44,1669712280
65,18,19,Jits_Linear_5,1,5,56,103,1669761380
65,18,19,Jits_Linear_5,2,5,63,98,1669781092
65,18,19,Jits_Linear_5,3,5,80,127,1669791288
65,18,19,Jits_Linear_5,0,1,48,43,1670378532
65,18,19,Jits_Linear_5,1,5,80,127,1670381112
65,18,19,Jits_Linear_5,2,5,56,103,1670410788
65,18,19,Jits_Linear_5,3,5,63,98,1670450656
65,18,19,Jits_Linear_5,0,5,80,127,1671041364
65,18,19,Jits_Linear_5,1,5,56,103,1671060924
65,18,19,Jits_Linear_5,2,1,48,46,1671088012
65,18,19,Jits_Linear_5,3,5,63,98,1671121188
65,18,19,Jits_Linear_5,0,5,56,103,1671701124
65,18,19,Jits_Linear_5,1,5,80,127,1671721212
65,18,19,Jits_Linear_5,2,1,48,43,1671753852
65,18,19,Jits_Linear_5,3,5,63,98,1671780996
65,18,19,Jits_Linear_5,0,5,80,127,1672341000
65,18,19,Jits_Linear_5,1,5,56,103,1672351124
65,18,19,Jits_Linear_5,2,5,63,98,1672391160
65,18,19,Jits_Linear_5,3,1,48,43,1672403124
65,18,19,Jits_Linear_5,0,1,48,50,1672979896
65,18,19,Jits_Linear_5,1,5,63,98,1673001348
65,18,19,Jits_Linear_5,2,5,56,103,1673041288
65,18,19,Jits_Linear_5,3,5,80,127,1673044352
65,18,19,Jits_Linear_5,0,1,48,34,1673617108
65,18,19,Jits_Linear_5,1,5,63,98,1673681308
65,18,19,Jits_Linear_5,2,5,80,127,1673721308
65,18,19,Jits_Linear_5,3,5,56,103,1673750832
65,18,19,Jits_Linear_5,0,1,48,51,1674300020
65,18,19,Jits_Linear_5,1,5,56,103,1674330536
65,18,19,Jits_Linear_5,2,5,63,98,1674341104
65,18,19,Jits_Linear_5,3,5,80,127,1674370484
65,18,19,Jits_Linear_5,0,1,48,39,1674960804
65,18,19,Jits_Linear_5,1,5,80,127,1674990952
65,18,19,Jits_Linear_5,2,5,63,98,1675060696
65,18,19,Jits_Linear_5,3,5,56,103,1675070968
65,18,19,Jits_Linear_5,0,1,48,49,1675570996
65,18,19,Jits_Linear_5,1,5,63,98,1675660636
65,18,19,Jits_Linear_5,2,5,56,103,1675731304
65,18,19,Jits_Linear_5,3,5,80,127,1675740528
65,18,19,Jits_Linear_5,0,1,48,36,1676290388
65,18,19,Jits_Linear_5,1,5,63,98,1676331320
65,18,19,Jits_Linear_5,2,5,56,103,1676351104
65,18,19,Jits_Linear_5,3,5,80,127,1676390880
65,18,19,Jits_Linear_5,0,1,48,44,1676914428
65,18,19,Jits_Linear_5,1,5,56,103,1677011420
65,18,19,Jits_Linear_5,2,5,63,98,1677020572
65,18,19,Jits_Linear_5,3,5,80,127,1677101492
65,18,19,Jits_Linear_5,0,1,48,29,1677610812
65,18,19,Jits_Linear_5,1,5,63,98,1677670856
65,18,19,Jits_Linear_5,2,5,56,103,1677700460
65,18,19,Jits_Linear_5,3,5,80,127,1677741432
65,18,19,Jits_Linear_5,0,1,48,43,1678259896
65,18,19,Jits_Linear_5,1,5,56,103,1678340488
65,18,19,Jits_Linear_5,2,5,63,98,1678381464
65,18,19,Jits_Linear_5,3,5,80,127,1678421328
65,18,19,Jits_Linear_5,0,1,48,34,1678935732
65,18,19,Jits_Linear_5,1,5,80,127,1679021408
65,18,19,Jits_Linear_5,2,5,56,103,1679101292
65,18,19,Jits_Linear_5,3,5,63,98,1679110516
65,18,19,Jits_Linear_5,0,1,48,46,1679704944
65,18,19,Jits_Linear_5,1,5,56,103,1679741312
65,18,19,Jits_Linear_5,2,5,63,98,1679744676
65,18,19,Jits_Linear_5,3,5,80,127,1679750460
65,18,19,Jits_Linear_5,0,1,48,27,1680379888
65,18,19,Jits_Linear_5,1,5,56,103,1680440828
65,18,19,Jits_Linear_5,2,5,63,98,1680461216
65,18,19,Jits_Linear_5,3,5,80,127,1680471412
65,18,19,Jits_Linear_5,0,5,63,98,1681080776
65,18,19,Jits_Linear_5,1,5,80,127,1681090996
65,18,19,Jits_Linear_5,2,1,48,47,1681099440
65,18,19,Jits_Linear_5,3,5,56,103,1681111376
65,18,19,Jits_Linear_5,0,1,48,32,1681747212
65,18,19,Jits_Linear_5,1,5,63,98,1681770848
65,18,19,Jits_Linear_5,2,5,56,103,1681851004
65,18,19,Jits_Linear_5,3,5,80,127,1681854072
65,18,19,Jits_Linear_5,0,1,48,48,1682413320
65,18,19,Jits_Linear_5,1,5,63,98,1682461076
65,18,19,Jits_Linear_5,2,5,56,103,1682480416
65,18,19,Jits_Linear_5,3,5,80,127,1682511344
65,18,19,Jits_Linear_5,0,1,48,30,1683103528
65,18,19,Jits_Linear_5,1,5,56,103,1683151160
65,18,19,Jits_Linear_5,2,5,63,98,1683171096
65,18,19,Jits_Linear_5,3,5,80,127,1683180996
65,18,19,Jits_Linear_5,0,1,48,47,1683750164
65,18,19,Jits_Linear_5,1,5,56,103,1683871024
65,18,19,Jits_Linear_5,2,5,63,98,1683900776
65,18,19,Jits_Linear_5,3,5,80,127,1683904212
65,18,19,Jits_Linear_5,0,1,48,32,1684509992
65,18,19,Jits_Linear_5,1,5,56,103,1684511564
65,18,19,Jits_Linear_5,2,5,63,98,1684550988
65,18,19,Jits_Linear_5,3,5,80,127,1684610392
65,18,19,Jits_Linear_5,0,5,56,103,1685220916
65,18,19,Jits_Linear_5,1,5,63,98,1685230964
65,18,19,Jits_Linear_5,2,1,48,25,1685262480
65,18,19,Jits_Linear_5,3,5,80,127,1685291348
65,18,19,Jits_Linear_5,0,5,56,103,1685921100
65,18,19,Jits_Linear_5,1,5,80,127,1685940664
65,18,19,Jits_Linear_5,2,5,63,98,1685971264
65,18,19,Jits_Linear_5,3,1,48,40,1685976552
65,18,19,Jits_Linear_5,0,1,48,32,1686608604
65,18,19,Jits_Linear_5,1,5,80,127,1686620632
65,18,19,Jits_Linear_5,2,5,56,103,1686630756
65,18,19,Jits_Linear_5,3,5,63,98,1686651140
65,18,19,Jits_Linear_5,0,1,48,40,1687293008
65,18,19,Jits_Linear_5,1,5,63,98,1687310716
65,18,19,Jits_Linear_5,2,5,80,127,1687391400
65,18,19,Jits_Linear_5,3,5,56,103,1687400844
65,18,19,Jits_Linear_5,0,1,48,40,1688061096
65,18,19,Jits_Linear_5,1,5,80,127,1688070632
65,18,19,Jits_Linear_5,2,5,56,103,1688090944
65,18,19,Jits_Linear_5,3,5,63,98,1688094012
65,18,19,Jits_Linear_5,0,1,48,28,1688709196
65,18,19,Jits_Linear_5,1,5,63,98,1688750572
65,18,19,Jits_Linear_5,2,5,80,127,1688754012
65,18,19,Jits_Linear_5,3,5,56,103,1688810824
65,18,19,Jits_Linear_5,0,5,56,103,1689440580
65,18,19,Jits_Linear_5,1,5,80,127,1689450852
65,18,19,Jits_Linear_5,2,5,63,98,1689490940
65,18,19,Jits_Linear_5,3,1,48,48,1689511520
65,18,19,Jits_Linear_5,0,5,56,103,1690130756
65,18,19,Jits_Linear_5,1,1,48,49,1690178440
65,18,19,Jits_Linear_5,2,5,63,98,1690191216
65,18,19,Jits_Linear_5,3,5,80,127,1690200516
65,18,19,Jits_Linear_5,0,1,48,50,1690818876
65,18,19,Jits_Linear_5,1,5,63,98,1690850740
65,18,19,Jits_Linear_5,2,5,80,127,1690890756
65,18,19,Jits_Linear_5,3,5,56,103,1690930828
65,18,19,Jits_Linear_5,0,5,56,103,1691561408
65,18,19,Jits_Linear_5,1,5,63,98,1691641160
65,18,19,Jits_Linear_5,2,5,80,127,1691644376
65,18,19,Jits_Linear_5,3,1,48,40,1691660616
65,18,19,Jits_Linear_5,0,1,48,50,1692313732
65,18,19,Jits_Linear_5,1,5,80,127,1692331368
65,18,19,Jits_Linear_5,2,5,56,103,1692361216
65,18,19,Jits_Linear_5,3,5,63,98,1692364060
65,18,19,Jits_Linear_5,0,5,56,103,1693011184
65,18,19,Jits_Linear_5,1,5,80,127,1693030748
65,18,19,Jits_Linear_5,2,1,48,49,1693031712
65,18,19,Jits_Linear_5,3,5,63,98,1693070680
65,18,19,Jits_Linear_5,0,1,48,49,1693666248
65,18,19,Jits_Linear_5,1,5,80,127,1693710792
65,18,19,Jits_Linear_5,2,5,63,98,1693731104
65,18,19,Jits_Linear_5,3,5,56,103,1693790656
65,18,19,Jits_Linear_5,0,1,48,48,1694390784
65,18,19,Jits_Linear_5,1,5,63,98,1694440884
65,18,19,Jits_Linear_5,2,5,56,103,1694451156
65,18,19,Jits_Linear_5,3,5,80,127,1694501192
65,18,19,Jits_Linear_5,0,1,48,49,1695110088
65,18,19,Jits_Linear_5,1,5,56,103,1695150500
65,18,19,Jits_Linear_5,2,5,63,98,1695170836
65,18,19,Jits_Linear_5,3,5,80,127,1695181256
65,18,19,Jits_Linear_5,0,1,48,47,1695857624
65,18,19,Jits_Linear_5,1,5,56,103,1695871520
65,18,19,Jits_Linear_5,2,5,63,98,1695874436
65,18,19,Jits_Linear_5,3,5,80,127,1695890784
65,18,19,Jits_Linear_5,0,1,48,48,1696529576
65,18,19,Jits_Linear_5,1,5,63,98,1696641596
65,18,19,Jits_Linear_5,2,5,56,103,1696671048
65,18,19,Jits_Linear_5,3,5,80,127,1696700948
65,18,19,Jits_Linear_5,0,5,80,127,1697330656
65,18,19,Jits_Linear_5,1,1,48,48,1697376700
65,18,19,Jits_Linear_5,2,5,56,103,1697420636
65,18,19,Jits_Linear_5,3,5,63,98,1697423776
65,18,19,Jits_Linear_5,0,5,56,103,1698060824
65,18,19,Jits_Linear_5,1,5,80,127,1698063816
65,18,19,Jits_Linear_5,2,1,48,38,1698109276
65,18,19,Jits_Linear_5,3,5,63,98,1698140616
65,18,19,Jits_Linear_5,0,5,80,127,1698790624
65,18,19,Jits_Linear_5,1,5,63,98,1698851164
65,18,19,Jits_Linear_5,2,1,48,46,1698852652
65,18,19,Jits_Linear_5,3,5,56,103,1698880836
65,18,19,Jits_Linear_5,0,5,63,98,1699520780
65,18,19,Jits_Linear_5,1,5,80,127,1699531052
65,18,19,Jits_Linear_5,2,1,48,47,1699534020
65,18,19,Jits_Linear_5,3,5,56,103,1699600728
65,18,19,Jits_Linear_5,0,5,56,103,1700270548
65,18,19,Jits_Linear_5,1,5,80,127,1700301220
65,18,19,Jits_Linear_5,2,1,48,53,1700347784
65,18,19,Jits_Linear_5,3,5,63,98,1700351564
65,18,19,Jits_Linear_5,0,5,63,98,1701050628
65,18,19,Jits_Linear_5,1,1,48,43,1701077888
65,18,19,Jits_Linear_5,2,5,56,103,1701080548
65,18,19,Jits_Linear_5,3,5,80,127,1701083764
65,18,19,Jits_Linear_5,0,5,63,98,1701801392
65,18,19,Jits_Linear_5,1,5,80,127,1701820804
65,18,19,Jits_Linear_5,2,5,56,103,1701830876
65,18,19,Jits_Linear_5,3,1,48,53,1701846204
65,18,19,Jits_Linear_5,0,1,48,50,1702476152
65,18,19,Jits_Linear_5,1,5,56,103,1702550804
65,18,19,Jits_Linear_5,2,5,63,98,1702553876
65,18,19,Jits_Linear_5,3,5,80,127,1702571496
65,18,19,Jits_Linear_5,0,5,56,103,1703251384
65,18,19,Jits_Linear_5,1,5,63,98,1703260608
65,18,19,Jits_Linear_5,2,5,80,127,1703291184
65,18,19,Jits_Linear_5,3,1,48,52,1703295200
65,18,19,Jits_Linear_5,0,1,48,52,1703984748
65,18,19,Jits_Linear_5,1,5,63,98,1704021488
65,18,19,Jits_Linear_5,2,5,80,127,1704040756
65,18,19,Jits_Linear_5,3,5,56,103,1704080680
65,18,19,Jits_Linear_5,0,1,48,54,1704743388
65,18,19,Jits_Linear_5,1,1,48,31,1704791020
65,18,19,Jits_Linear_5,2,5,56,103,1704800488
65,18,19,Jits_Linear_5,3,5,63,98,1704840420
65,18,19,Jits_Linear_5,4,5,80,127,1704843792
65,18,19,Jits_Linear_5,0,1,48,50,1705442432
65,18,19,Jits_Linear_5,1,5,80,127,1705490708
65,18,19,Jits_Linear_5,2,5,56,103,1705530652
65,18,19,Jits_Linear_5,3,5,63,98,1705580764
65,18,19,Jits_Linear_5,0,1,48,50,1706266468
65,18,19,Jits_Linear_5,1,5,56,103,1706300672
65,18,19,Jits_Linear_5,2,5,80,127,1706311164
65,18,19,Jits_Linear_5,3,5,63,98,1706340616
65,18,19,Jits_Linear_5,0,5,56,103,1707001324
65,18,19,Jits_Linear_5,1,1,48,50,1707014556
65,18,19,Jits_Linear_5,2,5,80,127,1707041108
65,18,19,Jits_Linear_5,3,5,63,98,1707091536
65,18,19,Jits_Linear_5,0,5,56,103,1707760952
65,18,19,Jits_Linear_5,1,1,48,57,1707796512
65,18,19,Jits_Linear_5,2,5,80,127,1707800812
65,18,19,Jits_Linear_5,3,5,63,98,1707851088
65,18,19,Jits_Linear_5,0,1,48,44,1708477952
65,18,19,Jits_Linear_5,1,5,80,127,1708510532
65,18,19,Jits_Linear_5,2,5,63,98,1708590540
65,18,19,Jits_Linear_5,3,5,56,103,1708600736
65,18,19,Jits_Linear_5,0,5,80,127,1709320504
65,18,19,Jits_Linear_5,1,5,56,103,1709330852
65,18,19,Jits_Linear_5,2,5,63,98,1709351460
65,18,19,Jits_Linear_5,3,1,48,51,1709355400
65,18,19,Jits_Linear_5,0,5,63,98,1710050536
65,18,19,Jits_Linear_5,1,1,48,51,1710081604
65,18,19,Jits_Linear_5,2,5,56,103,1710121408
65,18,19,Jits_Linear_5,3,5,80,127,1710124624
65,18,19,Jits_Linear_5,0,5,80,127,1710810444
65,18,19,Jits_Linear_5,1,1,48,51,1710818964
65,18,19,Jits_Linear_5,2,5,63,98,1710860568
65,18,19,Jits_Linear_5,3,5,56,103,1710900728
65,18,19,Jits_Linear_5,0,1,48,47,1711528860
65,18,19,Jits_Linear_5,1,5,63,98,1711620560
65,18,19,Jits_Linear_5,2,5,56,103,1711661464
65,18,19,Jits_Linear_5,3,5,80,127,1711670536
65,18,19,Jits_Linear_5,0,1,48,48,1712294260
65,18,19,Jits_Linear_5,1,5,63,98,1712381372
65,18,19,Jits_Linear_5,2,5,56,103,1712400696
65,18,19,Jits_Linear_5,3,5,80,127,1712421452
65,18,19,Jits_Linear_5,0,1,48,54,1713039188
65,18,19,Jits_Linear_5,1,5,80,127,1713111392
65,18,19,Jits_Linear_5,2,5,56,103,1713120540
65,18,19,Jits_Linear_5,3,5,63,98,1713141208
65,18,19,Jits_Linear_5,0,1,48,52,1713829364
65,18,19,Jits_Linear_5,1,5,63,98,1713911228
65,18,19,Jits_Linear_5,2,5,56,103,1713951228
65,18,19,Jits_Linear_5,3,5,80,127,1713980680
65,18,19,Jits_Linear_5,0,1,48,44,1714555696
65,18,19,Jits_Linear_5,1,5,56,103,1714690460
65,18,19,Jits_Linear_5,2,5,63,98,1714721260
65,18,19,Jits_Linear_5,3,5,80,127,1714750788
65,18,19,Jits_Linear_5,0,1,48,51,1715369944
65,18,19,Jits_Linear_5,1,5,80,127,1715441096
65,18,19,Jits_Linear_5,2,5,56,103,1715510616
65,18,19,Jits_Linear_5,3,5,63,98,1715513756
65,18,19,Jits_Linear_5,0,1,48,38,1716190108
65,18,19,Jits_Linear_5,1,5,56,103,1716230444
65,18,19,Jits_Linear_5,2,5,63,98,1716280728
65,18,19,Jits_Linear_5,3,5,80,127,1716311360
65,18,19,Jits_Linear_5,0,5,63,98,1716991408
65,18,19,Jits_Linear_5,1,5,80,127,1716994476
65,18,19,Jits_Linear_5,2,1,48,54,1717027412
65,18,19,Jits_Linear_5,3,5,56,103,1717050672
65,18,19,Jits_Linear_5,0,1,48,53,1717712316
65,18,19,Jits_Linear_5,1,5,56,103,1717801428
65,18,19,Jits_Linear_5,2,5,80,127,1717810636
65,18,19,Jits_Linear_5,3,5,63,98,1717860692
65,18,19,Jits_Linear_5,0,5,63,98,1718561348
65,18,19,Jits_Linear_5,1,5,56,103,1718571324
65,18,19,Jits_Linear_5,2,5,80,127,1718601144
65,18,19,Jits_Linear_5,3,1,48,60,1718609968
65,18,19,Jits_Linear_5,0,5,63,98,1719381488
65,18,19,Jits_Linear_5,1,5,80,127,1719384628
65,18,19,Jits_Linear_5,2,1,48,45,1719399452
65,18,19,Jits_Linear_5,3,5,56,103,1719411232
65,18,19,Jits_Linear_5,0,1,48,56,1720129152
65,18,19,Jits_Linear_5,1,5,63,98,1720191436
65,18,19,Jits_Linear_5,2,5,56,103,1720210692
65,18,19,Jits_Linear_5,3,5,80,127,1720213840
65,18,19,Jits_Linear_5,0,1,48,41,1720927404
65,18,19,Jits_Linear_5,1,5,63,98,1720940848
65,18,19,Jits_Linear_5,2,5,56,103,1721010536
65,18,19,Jits_Linear_5,3,5,80,127,1721031228
65,18,19,Jits_Linear_5,0,5,56,103,1721721144
65,18,19,Jits_Linear_5,1,5,63,98,1721730444
65,18,19,Jits_Linear_5,2,1,48,56,1721803412
65,18,19,Jits_Linear_5,3,5,80,127,1721820448
65,18,19,Jits_Linear_5,0,5,56,103,1722531120
65,18,19,Jits_Linear_5,1,5,80,127,1722571308
65,18,19,Jits_Linear_5,2,1,48,49,1722580372
65,18,19,Jits_Linear_5,3,5,63,98,1722582024
65,18,19,Jits_Linear_5,0,5,56,103,1723351456
65,18,19,Jits_Linear_5,1,1,48,56,1723375928
65,18,19,Jits_Linear_5,2,5,63,98,1723381276
65,18,19,Jits_Linear_5,3,5,80,127,1723410728
65,18,19,Jits_Linear_5,0,5,80,127,1724111384
65,18,19,Jits_Linear_5,1,5,63,98,1724151100
65,18,19,Jits_Linear_5,2,1,48,22,1724162984
65,18,19,Jits_Linear_5,3,5,56,103,1724170508
65,18,19,Jits_Linear_5,0,1,48,54,1724886696
65,18,19,Jits_Linear_5,1,1,48,38,1724919504
65,18,19,Jits_Linear_5,2,5,56,103,1724951292
65,18,19,Jits_Linear_5,3,5,80,127,1724971236
65,18,19,Jits_Linear_5,4,5,63,98,1724991020
65,18,19,Jits_Linear_5,0,5,63,98,1725721024
65,18,19,Jits_Linear_5,1,5,56,103,1725731148
65,18,19,Jits_Linear_5,2,1,48,43,1725767596
65,18,19,Jits_Linear_5,3,5,80,127,1725790556
65,18,19,Jits_Linear_5,0,1,48,51,1726477064
65,18,19,Jits_Linear_5,1,5,56,103,1726531048
65,18,19,Jits_Linear_5,2,5,63,98,1726600420
65,18,19,Jits_Linear_5,3,5,80,127,1726621176
65,18,19,Jits_Linear_5,0,1,48,53,1727251600
65,18,19,Jits_Linear_5,1,5,56,103,1727340860
65,18,19,Jits_Linear_5,2,5,63,98,1727370596
65,18,19,Jits_Linear_5,3,5,80,127,1727410608
65,18,19,Jits_Linear_5,0,1,48,56,1728109660
65,18,19,Jits_Linear_5,1,5,63,98,1728140628
65,18,19,Jits_Linear_5,2,5,56,103,1728191052
65,18,19,Jits_Linear_5,3,5,80,127,1728201704
65,18,19,Jits_Linear_5,0,1,48,47,1728896972
65,18,19,Jits_Linear_5,1,5,56,103,1728990468
65,18,19,Jits_Linear_5,2,5,63,98,1729040804
65,18,19,Jits_Linear_5,3,5,80,127,1729051076
65,18,19,Jits_Linear_5,0,1,48,55,1729716972
65,18,19,Jits_Linear_5,1,5,56,103,1729771128
65,18,19,Jits_Linear_5,2,5,63,98,1729781028
65,18,19,Jits_Linear_5,3,5,80,127,1729861032
65,18,19,Jits_Linear_5,0,9999,9999,9999,1620958328
65,18,19,Jits_Linear_5,1,9999,9999,9999,1621438520
65,18,19,Jits_Linear_5,2,9999,9999,9999,1621918816
65,18,19,Jits_Linear_5,3,9999,9999,9999,1622399036
65,18,19,Jits_Linear_5,4,9999,9999,9999,1622878280
65,18,19,Jits_Linear_5,5,9999,9999,9999,1623368828
65,18,19,Jits_Linear_5,6,9999,9999,9999,1623858256
65,18,19,Jits_Linear_5,7,9999,9999,9999,1624348744
65,18,19,Jits_Linear_5,8,9999,9999,9999,1624838260
65,18,19,Jits_Linear_5,9,9999,9999,9999,1625328748
65,18,19,Jits_Linear_5,10,9999,9999,9999,1625828424
65,18,19,Jits_Linear_5,11,9999,9999,9999,1626328132
65,18,19,Jits_Linear_5,12,9999,9999,9999,1626828860
65,18,19,Jits_Linear_5,13,9999,9999,9999,1627328596
65,18,19,Jits_Linear_5,14,9999,9999,9999,1627828276
65,18,19,Jits_Linear_5,15,9999,9999,9999,1628338248
65,18,19,Jits_Linear_5,16,9999,9999,9999,1628848200
65,18,19,Jits_Linear_5,17,9999,9999,9999,1629358152
65,18,19,Jits_Linear_5,18,9999,9999,9999,1629868116
65,18,19,Jits_Linear_5,19,9999,9999,9999,1630379132
65,18,19,Jits_Linear_5,20,9999,9999,9999,1630908484
65,18,19,Jits_Linear_5,21,9999,9999,9999,1631428716
65,18,19,Jits_Linear_5,22,9999,9999,9999,1631948868
65,18,19,Jits_Linear_5,23,9999,9999,9999,1632469100
65,18,19,Jits_Linear_5,24,9999,9999,9999,1632988288
65,18,19,Jits_Linear_5,25,9999,9999,9999,1633518700
65,18,19,Jits_Linear_5,26,9999,9999,9999,1634048076
65,18,19,Jits_Linear_5,27,9999,9999,9999,1634578544
65,18,19,Jits_Linear_5,28,9999,9999,9999,1635108968
65,18,19,Jits_Linear_5,29,9999,9999,9999,1635638324
65,18,19,Jits_Linear_5,30,9999,9999,9999,1636179008
65,18,19,Jits_Linear_5,31,9999,9999,9999,1636718720
65,18,19,Jits_Linear_5,32,9999,9999,9999,1637258352
65,18,19,Jits_Linear_5,33,9999,9999,9999,1637799032
65,18,19,Jits_Linear_5,34,9999,9999,9999,1638338648
65,18,19,Jits_Linear_5,35,9999,9999,9999,1638888568
65,18,19,Jits_Linear_5,36,9999,9999,9999,1639438436
65,18,19,Jits_Linear_5,37,9999,9999,9999,1639988324
65,18,19,Jits_Linear_5,38,9999,9999,9999,1640538208
65,18,19,Jits_Linear_5,39,9999,9999,9999,1641088092
65,18,19,Jits_Linear_5,40,9999,9999,9999,1641648240
65,18,19,Jits_Linear_5,41,9999,9999,9999,1642208336
65,18,19,Jits_Linear_5,42,9999,9999,9999,1642768496
65,18,19,Jits_Linear_5,43,9999,9999,9999,1643328636
65,18,19,Jits_Linear_5,44,9999,9999,9999,1643888708
65,18,19,Jits_Linear_5,45,9999,9999,9999,1644459108
65,18,19,Jits_Linear_5,46,9999,9999,9999,1645038680
65,18,19,Jits_Linear_5,47,9999,9999,9999,1645609024
65,18,19,Jits_Linear_5,48,9999,9999,9999,1646178392
65,18,19,Jits_Linear_5,49,9999,9999,9999,1646748732
65,18,19,Jits_Linear_5,50,9999,9999,9999,1647328372
65,18,19,Jits_Linear_5,51,9999,9999,9999,1647908988
65,18,19,Jits_Linear_5,52,9999,9999,9999,1648488556
65,18,19,Jits_Linear_5,53,9999,9999,9999,1649068128
65,18,19,Jits_Linear_5,54,9999,9999,9999,1649648752
65,18,19,Jits_Linear_5,55,9999,9999,9999,1650238588
65,18,19,Jits_Linear_5,56,9999,9999,9999,1650828416
65,18,19,Jits_Linear_5,57,9999,9999,9999,1651418188
65,18,19,Jits_Linear_5,58,9999,9999,9999,1652009068
65,18,19,Jits_Linear_5,59,9999,9999,9999,1652598888
65,18,19,Jits_Linear_5,60,9999,9999,9999,1653198936
65,18,19,Jits_Linear_5,61,9999,9999,9999,1653799012
65,18,19,Jits_Linear_5,62,9999,9999,9999,1654399032
65,18,19,Jits_Linear_5,63,9999,9999,9999,1654998088
65,18,19,Jits_Linear_5,64,9999,9999,9999,1655598172
65,18,19,Jits_Linear_5,65,9999,9999,9999,1656208492
65,18,19,Jits_Linear_5,66,9999,9999,9999,1656818796
65,18,19,Jits_Linear_5,67,9999,9999,9999,1657429068
65,18,19,Jits_Linear_5,68,9999,9999,9999,1658038384
65,18,19,Jits_Linear_5,69,9999,9999,9999,1658648692
65,18,19,Jits_Linear_5,70,9999,9999,9999,1659268168
65,18,19,Jits_Linear_5,71,9999,9999,9999,1659888740
65,18,19,Jits_Linear_5,72,9999,9999,9999,1660508240
65,18,19,Jits_Linear_5,73,9999,9999,9999,1661128796
65,18,19,Jits_Linear_5,74,9999,9999,9999,1661748296
65,18,19,Jits_Linear_5,75,9999,9999,9999,1662379092
65,18,19,Jits_Linear_5,76,9999,9999,9999,1663019132
65,18,19,Jits_Linear_5,77,9999,9999,9999,1663659076
65,18,19,Jits_Linear_5,78,9999,9999,9999,1664299132
65,18,19,Jits_Linear_5,79,9999,9999,9999,1664939072
65,18,19,Jits_Linear_5,80,9999,9999,9999,1665579116
65,18,19,Jits_Linear_5,81,9999,9999,9999,1666219128
65,18,19,Jits_Linear_5,82,9999,9999,9999,1666859092
65,18,19,Jits_Linear_5,83,9999,9999,9999,1667499108
65,18,19,Jits_Linear_5,84,9999,9999,9999,1668139088
65,18,19,Jits_Linear_5,85,9999,9999,9999,1668798580
65,18,19,Jits_Linear_5,86,9999,9999,9999,1669448796
65,18,19,Jits_Linear_5,87,9999,9999,9999,1670099040
65,18,19,Jits_Linear_5,88,9999,9999,9999,1670748272
65,18,19,Jits_Linear_5,89,9999,9999,9999,1671398500
65,18,19,Jits_Linear_5,90,9999,9999,9999,1672058980
65,18,19,Jits_Linear_5,91,9999,9999,9999,1672718436
65,18,19,Jits_Linear_5,92,9999,9999,9999,1673378904
65,18,19,Jits_Linear_5,93,9999,9999,9999,1674038348
65,18,19,Jits_Linear_5,94,9999,9999,9999,1674698836
65,18,19,Jits_Linear_5,95,9999,9999,9999,1675368520
65,18,19,Jits_Linear_5,96,9999,9999,9999,1676038228
65,18,19,Jits_Linear_5,97,9999,9999,9999,1676708960
65,18,19,Jits_Linear_5,98,9999,9999,9999,1677378668
65,18,19,Jits_Linear_5,99,9999,9999,9999,1678048372
65,18,19,Jits_Linear_5,100,9999,9999,9999,1678728248
65,18,19,Jits_Linear_5,101,9999,9999,9999,1679408216
65,18,19,Jits_Linear_5,102,9999,9999,9999,1680088180
65,18,19,Jits_Linear_5,103,9999,9999,9999,1680768128
65,18,19,Jits_Linear_5,104,9999,9999,9999,1681449064
65,18,19,Jits_Linear_5,105,9999,9999,9999,1682138172
65,18,19,Jits_Linear_5,106,9999,9999,9999,1682828380
65,18,19,Jits_Linear_5,107,9999,9999,9999,1683518536
65,18,19,Jits_Linear_5,108,9999,9999,9999,1684208740
65,18,19,Jits_Linear_5,109,9999,9999,9999,1684898876
65,18,19,Jits_Linear_5,110,9999,9999,9999,1685598324
65,18,19,Jits_Linear_5,111,9999,9999,9999,1686298688
65,18,19,Jits_Linear_5,112,9999,9999,9999,1686998072
65,18,19,Jits_Linear_5,113,9999,9999,9999,1687698552
65,18,19,Jits_Linear_5,114,9999,9999,9999,1688398968
65,18,19,Jits_Linear_5,115,9999,9999,9999,1689108604
65,18,19,Jits_Linear_5,116,9999,9999,9999,1689818164
65,18,19,Jits_Linear_5,117,9999,9999,9999,1690528840
65,18,19,Jits_Linear_5,118,9999,9999,9999,1691238496
65,18,19,Jits_Linear_5,119,9999,9999,9999,1691948128
65,18,19,Jits_Linear_5,120,9999,9999,9999,1692669016
65,18,19,Jits_Linear_5,121,9999,9999,9999,1693388916
65,18,19,Jits_Linear_5,122,9999,9999,9999,1694108736
65,18,19,Jits_Linear_5,123,9999,9999,9999,1694828640
65,18,19,Jits_Linear_5,124,9999,9999,9999,1695548540
65,18,19,Jits_Linear_5,125,9999,9999,9999,1696278620
65,18,19,Jits_Linear_5,126,9999,9999,9999,1697008712
65,18,19,Jits_Linear_5,127,9999,9999,9999,1697738872
65,18,19,Jits_Linear_5,128,9999,9999,9999,1698468944
65,18,19,Jits_Linear_5,129,9999,9999,9999,1699199048
65,18,19,Jits_Linear_5,130,9999,9999,9999,1699938416
65,18,19,Jits_Linear_5,131,9999,9999,9999,1700678772
65,18,19,Jits_Linear_5,132,9999,9999,9999,1701419136
65,18,19,Jits_Linear_5,133,9999,9999,9999,1702168636
65,18,19,Jits_Linear_5,134,9999,9999,9999,1702908988
65,18,19,Jits_Linear_5,135,9999,9999,9999,1703658560
65,18,19,Jits_Linear_5,136,9999,9999,9999,1704408148
65,18,19,Jits_Linear_5,137,9999,9999,9999,1705158744
65,18,19,Jits_Linear_5,138,9999,9999,9999,1705908284
65,18,19,Jits_Linear_5,139,9999,9999,9999,1706658908
65,18,19,Jits_Linear_5,140,9999,9999,9999,1707418740
65,18,19,Jits_Linear_5,141,9999,9999,9999,1708178516
65,18,19,Jits_Linear_5,142,9999,9999,9999,1708938296
65,18,19,Jits_Linear_5,143,9999,9999,9999,1709698136
65,18,19,Jits_Linear_5,144,9999,9999,9999,1710458952
65,18,19,Jits_Linear_5,145,9999,9999,9999,1711229056
65,18,19,Jits_Linear_5,146,9999,9999,9999,1711999100
65,18,19,Jits_Linear_5,147,9999,9999,9999,1712768080
65,18,19,Jits_Linear_5,148,9999,9999,9999,1713538172
65,18,19,Jits_Linear_5,149,9999,9999,9999,1714308200
65,18,19,Jits_Linear_5,150,9999,9999,9999,1715088496
65,18,19,Jits_Linear_5,151,9999,9999,9999,1715868776
65,18,19,Jits_Linear_5,152,9999,9999,9999,1716649068
65,18,19,Jits_Linear_5,153,9999,9999,9999,1717428296
65,18,19,Jits_Linear_5,154,9999,9999,9999,1718208612
65,18,19,Jits_Linear_5,155,9999,9999,9999,1718998116
65,18,19,Jits_Linear_5,156,9999,9999,9999,1719788656
65,18,19,Jits_Linear_5,157,9999,9999,9999,1720578156
65,18,19,Jits_Linear_5,158,9999,9999,9999,1721368636
65,18,19,Jits_Linear_5,159,9999,9999,9999,1722158144
65,18,19,Jits_Linear_5,160,9999,9999,9999,1722958972
65,18,19,Jits_Linear_5,161,9999,9999,9999,1723758684
65,18,19,Jits_Linear_5,162,9999,9999,9999,1724558392
65,18,19,Jits_Linear_5,163,9999,9999,9999,1725358156
65,18,19,Jits_Linear_5,164,9999,9999,9999,1726158916
65,18,19,Jits_Linear_5,165,9999,9999,9999,1726968948
65,18,19,Jits_Linear_5,166,9999,9999,9999,1727778908
65,18,19,Jits_Linear_5,167,9999,9999,9999,1728588864
65,18,19,Jits_Linear_5,168,9999,9999,9999,1729398896
65,18,19,Jits_Linear_5,169,9999,9999,9999,1730208852
65,19,15,Jits_Phase_8,0,5,56,103,1743860008
65,19,15,Jits_Phase_8,1,5,63,98,1743863104
65,19,15,Jits_Phase_8,2,5,80,127,1743866156
65,19,15,Jits_Phase_8,0,1,48,27,1744537172
65,19,15,Jits_Phase_8,1,5,56,103,1744659772
65,19,15,Jits_Phase_8,2,5,63,98,1744662876
65,19,15,Jits_Phase_8,3,5,80,127,1744666000
65,19,15,Jits_Phase_8,0,5,80,127,1745400216
65,19,15,Jits_Phase_8,1,1,48,27,1745403336
65,19,15,Jits_Phase_8,2,5,63,98,1745490492
65,19,15,Jits_Phase_8,3,5,56,103,1745499924
65,19,15,Jits_Phase_8,0,5,56,103,1746220292
65,19,15,Jits_Phase_8,1,5,63,98,1746229812
65,19,15,Jits_Phase_8,2,1,48,26,1746272188
65,19,15,Jits_Phase_8,3,5,80,127,1746319864
65,19,15,Jits_Phase_8,0,5,63,98,1746989572
65,19,15,Jits_Phase_8,1,5,80,127,1747020220
65,19,15,Jits_Phase_8,2,1,48,36,1747031804
65,19,15,Jits_Phase_8,3,5,56,103,1747049736
65,19,15,Jits_Phase_8,0,5,56,103,1747790296
65,19,15,Jits_Phase_8,1,1,48,34,1747828704
65,19,15,Jits_Phase_8,2,5,80,127,1747889788
65,19,15,Jits_Phase_8,3,5,63,98,1747939776
65,19,15,Jits_Phase_8,0,5,56,103,1748589996
65,19,15,Jits_Phase_8,1,5,80,127,1748640052
65,19,15,Jits_Phase_8,2,1,48,32,1748674280
65,19,15,Jits_Phase_8,3,5,63,98,1748680004
65,19,15,Jits_Phase_8,0,5,80,127,1749420336
65,19,15,Jits_Phase_8,1,5,63,98,1749449960
65,19,15,Jits_Phase_8,2,1,48,49,1749463568
65,19,15,Jits_Phase_8,3,5,56,103,1749519708
65,19,15,Jits_Phase_8,0,5,63,98,1750249880
65,19,15,Jits_Phase_8,1,5,56,103,1750279704
65,19,15,Jits_Phase_8,2,1,48,50,1750289724
65,19,15,Jits_Phase_8,3,5,80,127,1750339936
65,19,15,Jits_Phase_8,0,5,56,103,1750990152
65,19,15,Jits_Phase_8,1,5,80,127,1750993220
65,19,15,Jits_Phase_8,2,1,48,45,1751086832
65,19,15,Jits_Phase_8,3,5,63,98,1751109940
65,19,15,Jits_Phase_8,0,1,48,43,1751824716
65,19,15,Jits_Phase_8,1,5,56,103,1751869848
65,19,15,Jits_Phase_8,2,5,80,127,1751909788
65,19,15,Jits_Phase_8,3,5,63,98,1751920056
65,19,15,Jits_Phase_8,0,5,56,103,1752629684
65,19,15,Jits_Phase_8,1,1,48,47,1752635124
65,19,15,Jits_Phase_8,2,5,80,127,1752650064
65,19,15,Jits_Phase_8,3,5,63,98,1752730080
65,19,15,Jits_Phase_8,0,5,80,127,1753420096
65,19,15,Jits_Phase_8,1,5,56,103,1753519740
65,19,15,Jits_Phase_8,2,5,63,98,1753529640
65,19,15,Jits_Phase_8,3,1,48,54,1753530532
65,19,15,Jits_Phase_8,0,5,63,98,1754190128
65,19,15,Jits_Phase_8,1,5,80,127,1754249472
65,19,15,Jits_Phase_8,2,5,56,103,1754259964
65,19,15,Jits_Phase_8,3,1,48,52,1754349040
65,19,15,Jits_Phase_8,0,5,56,103,1754989808
65,19,15,Jits_Phase_8,1,1,48,44,1755051588
65,19,15,Jits_Phase_8,2,5,63,98,1755059628
65,19,15,Jits_Phase_8,3,5,80,127,1755062920
65,19,15,Jits_Phase_8,0,1,48,35,1755805936
65,19,15,Jits_Phase_8,1,5,63,98,1755820500
65,19,15,Jits_Phase_8,2,5,56,103,1755869680
65,19,15,Jits_Phase_8,3,5,80,127,1755872824
65,19,15,Jits_Phase_8,0,5,56,103,1756580092
65,19,15,Jits_Phase_8,1,5,80,127,1756583316
65,19,15,Jits_Phase_8,2,1,48,44,1756612460
65,19,15,Jits_Phase_8,3,5,63,98,1756670544
65,19,15,Jits_Phase_8,0,1,48,49,1757400456
65,19,15,Jits_Phase_8,1,5,63,98,1757419956
65,19,15,Jits_Phase_8,2,5,56,103,1757510000
65,19,15,Jits_Phase_8,3,5,80,127,1757539676
65,19,15,Jits_Phase_8,0,5,56,103,1758210508
65,19,15,Jits_Phase_8,1,1,48,38,1758245020
65,19,15,Jits_Phase_8,2,5,63,98,1758309704
65,19,15,Jits_Phase_8,3,5,80,127,1758339736
65,19,15,Jits_Phase_8,0,1,48,49,1758999992
65,19,15,Jits_Phase_8,1,5,63,98,1759029760
65,19,15,Jits_Phase_8,2,5,56,103,1759039956
65,19,15,Jits_Phase_8,3,5,80,127,1759129924
65,19,15,Jits_Phase_8,0,1,48,51,1759804916
65,19,15,Jits_Phase_8,1,5,63,98,1759849972
65,19,15,Jits_Phase_8,2,5,56,103,1759929752
65,19,15,Jits_Phase_8,3,5,80,127,1759932896
65,19,15,Jits_Phase_8,0,5,80,127,1760609728
65,19,15,Jits_Phase_8,1,1,48,43,1760619748
65,19,15,Jits_Phase_8,2,5,63,98,1760630036
65,19,15,Jits_Phase_8,3,5,56,103,1760689524
65,19,15,Jits_Phase_8,0,1,48,41,1761428728
65,19,15,Jits_Phase_8,1,5,56,103,1761450324
65,19,15,Jits_Phase_8,2,5,63,98,1761469736
65,19,15,Jits_Phase_8,3,5,80,127,1761473104
65,19,15,Jits_Phase_8,0,5,63,98,1762189596
65,19,15,Jits_Phase_8,1,5,80,127,1762269568
65,19,15,Jits_Phase_8,2,1,48,52,1762274708
65,19,15,Jits_Phase_8,3,5,56,103,1762279980
65,19,15,Jits_Phase_8,0,5,63,98,1763009756
65,19,15,Jits_Phase_8,1,5,56,103,1763030440
65,19,15,Jits_Phase_8,2,1,48,51,1763048396
65,19,15,Jits_Phase_8,3,5,80,127,1763079588
65,19,15,Jits_Phase_8,0,5,80,127,1763809512
65,19,15,Jits_Phase_8,1,1,48,52,1763818404
65,19,15,Jits_Phase_8,2,5,63,98,1763849516
65,19,15,Jits_Phase_8,3,5,56,103,1763870200
65,19,15,Jits_Phase_8,0,1,48,43,1764637784
65,19,15,Jits_Phase_8,1,5,56,103,1764650332
65,19,15,Jits_Phase_8,2,5,63,98,1764659556
65,19,15,Jits_Phase_8,3,5,80,127,1764680088
65,19,15,Jits_Phase_8,0,5,56,103,1765379444
65,19,15,Jits_Phase_8,1,5,63,98,1765469504
65,19,15,Jits_Phase_8,2,5,80,127,1765529892
65,19,15,Jits_Phase_8,3,1,48,60,1765543052
65,19,15,Jits_Phase_8,0,5,80,127,1766209932
65,19,15,Jits_Phase_8,1,5,56,103,1766220352
65,19,15,Jits_Phase_8,2,5,63,98,1766289732
65,19,15,Jits_Phase_8,3,1,48,52,1766343968
65,19,15,Jits_Phase_8,0,5,63,98,1767040344
65,19,15,Jits_Phase_8,1,5,80,127,1767129308
65,19,15,Jits_Phase_8,2,1,48,50,1767135940
65,19,15,Jits_Phase_8,3,5,56,103,1767139720
65,19,15,Jits_Phase_8,0,5,63,98,1767769308
65,19,15,Jits_Phase_8,1,5,80,127,1767819512
65,19,15,Jits_Phase_8,2,5,56,103,1767880000
65,19,15,Jits_Phase_8,3,1,48,57,1767930916
65,19,15,Jits_Phase_8,0,5,56,103,1768589668
65,19,15,Jits_Phase_8,1,5,80,127,1768639972
65,19,15,Jits_Phase_8,2,5,63,98,1768660208
65,19,15,Jits_Phase_8,3,1,48,57,1768710676
65,19,15,Jits_Phase_8,0,5,56,103,1769359696
65,19,15,Jits_Phase_8,1,5,80,127,1769420260
65,19,15,Jits_Phase_8,2,1,48,57,1769478076
65,19,15,Jits_Phase_8,3,5,63,98,1769489708
65,19,15,Jits_Phase_8,0,5,56,103,1770159468
65,19,15,Jits_Phase_8,1,5,80,127,1770190512
65,19,15,Jits_Phase_8,2,5,63,98,1770219964
65,19,15,Jits_Phase_8,3,1,48,49,1770325632
65,19,15,Jits_Phase_8,0,5,56,103,1771000388
65,19,15,Jits_Phase_8,1,5,80,127,1771019504
65,19,15,Jits_Phase_8,2,1,48,51,1771039856
65,19,15,Jits_Phase_8,3,5,63,98,1771080256
65,19,15,Jits_Phase_8,0,1,48,30,1771849724
65,19,15,Jits_Phase_8,1,5,80,127,1771879720
65,19,15,Jits_Phase_8,2,5,56,103,1771889992
65,19,15,Jits_Phase_8,3,5,63,98,1771900264
65,19,15,Jits_Phase_8,0,5,56,103,1772639560
65,19,15,Jits_Phase_8,1,5,80,127,1772679500
65,19,15,Jits_Phase_8,2,5,63,98,1772710516
65,19,15,Jits_Phase_8,3,1,48,66,1772761388
65,19,15,Jits_Phase_8,0,5,56,103,1773409668
65,19,15,Jits_Phase_8,1,5,63,98,1773440540
65,19,15,Jits_Phase_8,2,1,48,57,1773469064
65,19,15,Jits_Phase_8,3,5,80,127,1773480396
65,19,15,Jits_Phase_8,0,5,80,127,1774160288
65,19,15,Jits_Phase_8,1,5,63,98,1774210344
65,19,15,Jits_Phase_8,2,5,56,103,1774229756
65,19,15,Jits_Phase_8,3,1,48,50,1774231844
65,19,15,Jits_Phase_8,0,5,56,103,1774989648
65,19,15,Jits_Phase_8,1,1,48,53,1775016212
65,19,15,Jits_Phase_8,2,5,80,127,1775060248
65,19,15,Jits_Phase_8,3,5,63,98,1775119724
65,19,15,Jits_Phase_8,0,1,48,63,1775731780
65,19,15,Jits_Phase_8,1,5,80,127,1775789492
65,19,15,Jits_Phase_8,2,5,63,98,1775879488
65,19,15,Jits_Phase_8,3,5,56,103,1775900172
65,19,15,Jits_Phase_8,0,5,63,98,1776609668
65,19,15,Jits_Phase_8,1,1,48,54,1776613388
65,19,15,Jits_Phase_8,2,5,56,103,1776630268
65,19,15,Jits_Phase_8,3,5,80,127,1776670280
65,19,15,Jits_Phase_8,0,5,80,127,1777369416
65,19,15,Jits_Phase_8,1,1,48,60,1777377568
65,19,15,Jits_Phase_8,2,5,63,98,1777389872
65,19,15,Jits_Phase_8,3,5,56,103,1777470392
65,19,15,Jits_Phase_8,0,5,63,98,1778160120
65,19,15,Jits_Phase_8,1,1,48,56,1778174328
65,19,15,Jits_Phase_8,2,5,56,103,1778269500
65,19,15,Jits_Phase_8,3,5,80,127,1778273452
65,19,15,Jits_Phase_8,0,5,63,98,1778980096
65,19,15,Jits_Phase_8,1,5,56,103,1778989464
65,19,15,Jits_Phase_8,2,5,80,127,1778992608
65,19,15,Jits_Phase_8,3,1,48,49,1779007332
65,19,15,Jits_Phase_8,0,5,56,103,1779759456
65,19,15,Jits_Phase_8,1,1,48,58,1779849412
65,19,15,Jits_Phase_8,2,5,80,127,1779880300
65,19,15,Jits_Phase_8,3,5,63,98,1779920112
65,19,15,Jits_Phase_8,0,5,56,103,1780579684
65,19,15,Jits_Phase_8,1,1,48,46,1780628360
65,19,15,Jits_Phase_8,2,5,80,127,1780659476
65,19,15,Jits_Phase_8,3,5,63,98,1780680256
65,19,15,Jits_Phase_8,0,5,56,103,1781379384
65,19,15,Jits_Phase_8,1,1,48,53,1781439096
65,19,15,Jits_Phase_8,2,5,63,98,1781490136
65,19,15,Jits_Phase_8,3,5,80,127,1781493428
65,19,15,Jits_Phase_8,0,1,48,60,1782167648
65,19,15,Jits_Phase_8,1,5,56,103,1782220372
65,19,15,Jits_Phase_8,2,5,80,127,1782249976
65,19,15,Jits_Phase_8,3,5,63,98,1782270344
65,19,15,Jits_Phase_8,0,1,48,57,1782978156
65,19,15,Jits_Phase_8,1,5,63,98,1783009572
65,19,15,Jits_Phase_8,2,5,56,103,1783020064
65,19,15,Jits_Phase_8,3,5,80,127,1783030188
65,19,15,Jits_Phase_8,0,1,48,53,1783736664
65,19,15,Jits_Phase_8,1,5,80,127,1783800108
65,19,15,Jits_Phase_8,2,5,56,103,1783850444
65,19,15,Jits_Phase_8,3,5,63,98,1783890380
65,19,15,Jits_Phase_8,0,1,48,57,1784573164
65,19,15,Jits_Phase_8,1,5,80,127,1784620392
65,19,15,Jits_Phase_8,2,5,63,98,1784639880
65,19,15,Jits_Phase_8,3,5,56,103,1784690064
65,19,15,Jits_Phase_8,0,5,80,127,1785430272
65,19,15,Jits_Phase_8,1,1,48,62,1785433168
65,19,15,Jits_Phase_8,2,5,56,103,1785460164
65,19,15,Jits_Phase_8,3,5,63,98,1785529900
65,19,15,Jits_Phase_8,0,5,56,103,1786280392
65,19,15,Jits_Phase_8,1,5,80,127,1786289468
65,19,15,Jits_Phase_8,2,1,48,59,1786315232
65,19,15,Jits_Phase_8,3,5,63,98,1786329424
65,19,15,Jits_Phase_8,0,5,56,103,1786989964
65,19,15,Jits_Phase_8,1,5,63,98,1787010500
65,19,15,Jits_Phase_8,2,5,80,127,1787079980
65,19,15,Jits_Phase_8,3,1,48,66,1787179292
65,19,15,Jits_Phase_8,0,5,63,98,1787810188
65,19,15,Jits_Phase_8,1,5,80,127,1787869632
65,19,15,Jits_Phase_8,2,5,56,103,1787890016
65,19,15,Jits_Phase_8,3,1,48,54,1787950744
65,19,15,Jits_Phase_8,0,5,80,127,1788599532
65,19,15,Jits_Phase_8,1,5,56,103,1788630280
65,19,15,Jits_Phase_8,2,5,63,98,1788660176
65,19,15,Jits_Phase_8,3,1,48,54,1788747564
65,19,15,Jits_Phase_8,0,5,56,103,1789400376
65,19,15,Jits_Phase_8,1,1,48,50,1789423496
65,19,15,Jits_Phase_8,2,5,63,98,1789459936
65,19,15,Jits_Phase_8,3,5,80,127,1789520160
65,19,15,Jits_Phase_8,0,5,80,127,1790219628
65,19,15,Jits_Phase_8,1,5,56,103,1790240088
65,19,15,Jits_Phase_8,2,1,48,52,1790262688
65,19,15,Jits_Phase_8,3,5,63,98,1790309836
65,19,15,Jits_Phase_8,0,5,80,127,1791020448
65,19,15,Jits_Phase_8,1,5,63,98,1791040156
65,19,15,Jits_Phase_8,2,1,48,59,1791064332
65,19,15,Jits_Phase_8,3,5,56,103,1791069676
65,19,15,Jits_Phase_8,0,5,80,127,1791809956
65,19,15,Jits_Phase_8,1,5,63,98,1791830344
65,19,15,Jits_Phase_8,2,1,48,47,1791875632
65,19,15,Jits_Phase_8,3,5,56,103,1791889972
65,19,15,Jits_Phase_8,0,5,80,127,1792609804
65,19,15,Jits_Phase_8,1,1,48,49,1792673384
65,19,15,Jits_Phase_8,2,5,56,103,1792709996
65,19,15,Jits_Phase_8,3,5,63,98,1792739896
65,19,15,Jits_Phase_8,0,5,63,98,1793400064
65,19,15,Jits_Phase_8,1,5,80,127,1793450340
65,19,15,Jits_Phase_8,2,5,56,103,1793469852
65,19,15,Jits_Phase_8,3,1,48,60,1793575152
65,19,15,Jits_Phase_8,0,5,80,127,1794240076
65,19,15,Jits_Phase_8,1,1,48,56,1794251660
65,19,15,Jits_Phase_8,2,5,56,103,1794269592
65,19,15,Jits_Phase_8,3,5,63,98,1794272588
65,19,15,Jits_Phase_8,0,1,48,62,1795034704
65,19,15,Jits_Phase_8,1,5,63,98,1795089880
65,19,15,Jits_Phase_8,2,5,56,103,1795129728
65,19,15,Jits_Phase_8,3,5,80,127,1795150264
65,19,15,Jits_Phase_8,0,1,48,60,1795794016
65,19,15,Jits_Phase_8,1,1,48,41,1795831832
65,19,15,Jits_Phase_8,2,5,80,127,1795849536
65,19,15,Jits_Phase_8,3,5,63,98,1795929408
65,19,15,Jits_Phase_8,4,5,56,103,1795970376
65,19,15,Jits_Phase_8,0,5,63,98,1796670032
65,19,15,Jits_Phase_8,1,1,48,57,1796711216
65,19,15,Jits_Phase_8,2,5,80,127,1796749972
65,19,15,Jits_Phase_8,3,5,56,103,1796770208
65,19,15,Jits_Phase_8,0,5,56,103,1797509508
65,19,15,Jits_Phase_8,1,5,63,98,1797520000
65,19,15,Jits_Phase_8,2,1,48,65,1797539680
65,19,15,Jits_Phase_8,3,5,80,127,1797560080
65,19,15,Jits_Phase_8,0,5,56,103,1798230236
65,19,15,Jits_Phase_8,1,5,80,127,1798233308
65,19,15,Jits_Phase_8,2,5,63,98,1798369912
65,19,15,Jits_Phase_8,3,1,48,71,1798380524
65,19,15,Jits_Phase_8,0,5,56,103,1799019816
65,19,15,Jits_Phase_8,1,5,63,98,1799110124
65,19,15,Jits_Phase_8,2,1,48,66,1799157284
65,19,15,Jits_Phase_8,3,5,80,127,1799179796
65,19,15,Jits_Phase_8,0,5,63,98,1799899628
65,19,15,Jits_Phase_8,1,5,80,127,1799902772
65,19,15,Jits_Phase_8,2,1,48,63,1799913236
65,19,15,Jits_Phase_8,3,5,56,103,1799959860
65,19,15,Jits_Phase_8,0,1,48,65,1800737104
65,19,15,Jits_Phase_8,1,5,80,127,1800740280
65,19,15,Jits_Phase_8,2,5,56,103,1800759844
65,19,15,Jits_Phase_8,3,5,63,98,1800769964
65,19,15,Jits_Phase_8,0,5,56,103,1801449776
65,19,15,Jits_Phase_8,1,5,63,98,1801460268
65,19,15,Jits_Phase_8,2,1,48,57,1801497936
65,19,15,Jits_Phase_8,3,5,80,127,1801529868
65,19,15,Jits_Phase_8,0,5,80,127,1802249844
65,19,15,Jits_Phase_8,1,1,48,63,1802250884
65,19,15,Jits_Phase_8,2,5,56,103,1802299888
65,19,15,Jits_Phase_8,3,5,63,98,1802349852
65,19,15,Jits_Phase_8,0,1,48,60,1803046796
65,19,15,Jits_Phase_8,1,5,56,103,1803130148
65,19,15,Jits_Phase_8,2,5,63,98,1803139372
65,19,15,Jits_Phase_8,3,5,80,127,1803180268
65,19,15,Jits_Phase_8,0,5,56,103,1803869756
65,19,15,Jits_Phase_8,1,1,48,59,1803897736
65,19,15,Jits_Phase_8,2,5,63,98,1803909612
65,19,15,Jits_Phase_8,3,5,80,127,1803959740
65,19,15,Jits_Phase_8,0,5,80,127,1804630496
65,19,15,Jits_Phase_8,1,5,56,103,1804679724
65,19,15,Jits_Phase_8,2,5,63,98,1804699960
65,19,15,Jits_Phase_8,3,1,48,60,1804706592
65,19,15,Jits_Phase_8,0,5,80,127,1805440304
65,19,15,Jits_Phase_8,1,5,63,98,1805500044
65,19,15,Jits_Phase_8,2,1,48,62,1805510136
65,19,15,Jits_Phase_8,3,5,56,103,1805579684
65,19,15,Jits_Phase_8,0,5,80,127,1806219696
65,19,15,Jits_Phase_8,1,5,56,103,1806259936
65,19,15,Jits_Phase_8,2,5,63,98,1806280048
65,19,15,Jits_Phase_8,3,1,48,70,1806366088
65,19,15,Jits_Phase_8,0,5,56,103,1807069832
65,19,15,Jits_Phase_8,1,5,80,127,1807079732
65,19,15,Jits_Phase_8,2,1,48,67,1807113420
65,19,15,Jits_Phase_8,3,5,63,98,1807119888
65,19,15,Jits_Phase_8,0,1,48,61,1807911528
65,19,15,Jits_Phase_8,1,5,56,103,1807939876
65,19,15,Jits_Phase_8,2,5,63,98,1807979812
65,19,15,Jits_Phase_8,3,5,80,127,1807983180
65,19,15,Jits_Phase_8,0,5,63,98,1808609580
65,19,15,Jits_Phase_8,1,5,80,127,1808649668
65,19,15,Jits_Phase_8,2,5,56,103,1808720244
65,19,15,Jits_Phase_8,3,1,48,70,1808771388
65,19,15,Jits_Phase_8,0,5,63,98,1809379892
65,19,15,Jits_Phase_8,1,5,56,103,1809459688
65,19,15,Jits_Phase_8,2,5,80,127,1809520004
65,19,15,Jits_Phase_8,3,1,48,63,1809534656
65,19,15,Jits_Phase_8,0,5,80,127,1810189840
65,19,15,Jits_Phase_8,1,5,63,98,1810239820
65,19,15,Jits_Phase_8,2,1,48,53,1810255668
65,19,15,Jits_Phase_8,3,5,56,103,1810269784
65,19,15,Jits_Phase_8,4,1,48,30,1810326516
65,19,15,Jits_Phase_8,0,5,56,103,1810980196
65,19,15,Jits_Phase_8,1,5,63,98,1811030696
65,19,15,Jits_Phase_8,2,5,80,127,1811039548
65,19,15,Jits_Phase_8,3,1,48,66,1811066480
65,19,15,Jits_Phase_8,0,1,48,62,1811765616
65,19,15,Jits_Phase_8,1,5,56,103,1811790144
65,19,15,Jits_Phase_8,2,1,48,30,1811817608
65,19,15,Jits_Phase_8,3,5,63,98,1811899836
65,19,15,Jits_Phase_8,4,5,80,127,1811920132
65,19,15,Jits_Phase_8,0,1,48,63,1812563680
65,19,15,Jits_Phase_8,1,5,63,98,1812589860
65,19,15,Jits_Phase_8,2,1,48,35,1812625476
65,19,15,Jits_Phase_8,3,5,80,127,1812640040
65,19,15,Jits_Phase_8,4,5,56,103,1812730328
65,19,15,Jits_Phase_8,0,1,48,60,1813373064
65,19,15,Jits_Phase_8,1,5,63,98,1813379756
65,19,15,Jits_Phase_8,2,5,80,127,1813410032
65,19,15,Jits_Phase_8,3,5,56,103,1813500392
65,19,15,Jits_Phase_8,0,5,63,98,1814180120
65,19,15,Jits_Phase_8,1,5,56,103,1814189640
65,19,15,Jits_Phase_8,2,1,48,59,1814221332
65,19,15,Jits_Phase_8,3,5,80,127,1814289828
65,19,15,Jits_Phase_8,0,1,48,70,1814981740
65,19,15,Jits_Phase_8,1,5,63,98,1815080420
65,19,15,Jits_Phase_8,2,5,80,127,1815110096
65,19,15,Jits_Phase_8,3,5,56,103,1815139768
65,19,15,Jits_Phase_8,0,1,48,69,1815773560
65,19,15,Jits_Phase_8,1,5,80,127,1815899592
65,19,15,Jits_Phase_8,2,5,63,98,1815909712
65,19,15,Jits_Phase_8,3,5,56,103,1815939536
65,19,15,Jits_Phase_8,0,1,48,65,1816583064
65,19,15,Jits_Phase_8,1,5,80,127,1816599876
65,19,15,Jits_Phase_8,2,5,63,98,1816620336
65,19,15,Jits_Phase_8,3,5,56,103,1816669488
65,19,15,Jits_Phase_8,0,1,48,59,1817408748
65,19,15,Jits_Phase_8,1,5,63,98,1817430716
65,19,15,Jits_Phase_8,2,5,80,127,1817489692
65,19,15,Jits_Phase_8,3,5,56,103,1817510356
65,19,15,Jits_Phase_8,0,5,63,98,1818190256
65,19,15,Jits_Phase_8,1,1,48,60,1818223492
65,19,15,Jits_Phase_8,2,5,56,103,1818240528
65,19,15,Jits_Phase_8,3,5,80,127,1818249528
65,19,15,Jits_Phase_8,0,5,56,103,1819019604
65,19,15,Jits_Phase_8,1,5,80,127,1819029948
65,19,15,Jits_Phase_8,2,1,48,62,1819041164
65,19,15,Jits_Phase_8,3,5,63,98,1819130360
65,19,15,Jits_Phase_8,0,5,80,127,1819779668
65,19,15,Jits_Phase_8,1,5,63,98,1819789644
65,19,15,Jits_Phase_8,2,1,48,69,1819849352
65,19,15,Jits_Phase_8,3,5,56,103,1819940320
65,19,15,Jits_Phase_8,0,5,63,98,1820589556
65,19,15,Jits_Phase_8,1,5,80,127,1820630568
65,19,15,Jits_Phase_8,2,1,48,65,1820640736
65,19,15,Jits_Phase_8,3,5,56,103,1820710280
65,19,15,Jits_Phase_8,0,5,56,103,1821340016
65,19,15,Jits_Phase_8,1,1,48,60,1821417172
65,19,15,Jits_Phase_8,2,5,80,127,1821440432
65,19,15,Jits_Phase_8,3,5,63,98,1821459844
65,19,15,Jits_Phase_8,0,5,80,127,1822160348
65,19,15,Jits_Phase_8,1,5,56,103,1822169496
65,19,15,Jits_Phase_8,2,1,48,68,1822176432
65,19,15,Jits_Phase_8,3,5,63,98,1822259548
65,19,15,Jits_Phase_8,0,5,56,103,1822959976
65,19,15,Jits_Phase_8,1,5,63,98,1822979312
65,19,15,Jits_Phase_8,2,1,48,68,1822988204
65,19,15,Jits_Phase_8,3,5,80,127,1823060440
65,19,15,Jits_Phase_8,0,5,63,98,1823709556
65,19,15,Jits_Phase_8,1,1,48,59,1823750664
65,19,15,Jits_Phase_8,2,5,56,103,1823799608
65,19,15,Jits_Phase_8,3,5,80,127,1823802824
65,19,15,Jits_Phase_8,0,1,48,67,1824529648
65,19,15,Jits_Phase_8,1,5,56,103,1824540084
65,19,15,Jits_Phase_8,2,5,80,127,1824600400
65,19,15,Jits_Phase_8,3,5,63,98,1824609772
65,19,15,Jits_Phase_8,0,1,48,67,1825294108
65,19,15,Jits_Phase_8,1,5,80,127,1825389800
65,19,15,Jits_Phase_8,2,5,56,103,1825400364
65,19,15,Jits_Phase_8,3,5,63,98,1825403360
65,19,15,Jits_Phase_8,0,5,56,103,1826149936
65,19,15,Jits_Phase_8,1,1,48,57,1826154104
65,19,15,Jits_Phase_8,2,5,80,127,1826160200
65,19,15,Jits_Phase_8,3,5,63,98,1826179612
65,19,15,Jits_Phase_8,0,1,48,72,1826916176
65,19,15,Jits_Phase_8,1,5,63,98,1826919732
65,19,15,Jits_Phase_8,2,5,80,127,1826980348
65,19,15,Jits_Phase_8,3,5,56,103,1827030260
65,19,15,Jits_Phase_8,0,1,48,66,1827705148
65,19,15,Jits_Phase_8,1,5,63,98,1827801540
65,19,15,Jits_Phase_8,2,5,56,103,1827809788
65,19,15,Jits_Phase_8,3,5,80,127,1827859912
65,19,15,Jits_Phase_8,0,1,48,65,1828496820
65,19,15,Jits_Phase_8,1,5,63,98,1828499848
65,19,15,Jits_Phase_8,2,5,80,127,1828520236
65,19,15,Jits_Phase_8,3,5,56,103,1828529460
65,19,15,Jits_Phase_8,0,1,48,63,1829277308
65,19,15,Jits_Phase_8,1,5,63,98,1829299596
65,19,15,Jits_Phase_8,2,5,80,127,1829302888
65,19,15,Jits_Phase_8,3,5,56,103,1829339408
65,19,15,Jits_Phase_8,0,1,48,69,1830048440
65,19,15,Jits_Phase_8,1,5,63,98,1830169848
65,19,15,Jits_Phase_8,2,5,80,127,1830199524
65,19,15,Jits_Phase_8,3,5,56,103,1830209796
65,19,15,Jits_Phase_8,0,5,56,103,1830919576
65,19,15,Jits_Phase_8,1,1,48,71,1830927576
65,19,15,Jits_Phase_8,2,5,80,127,1830950440
65,19,15,Jits_Phase_8,3,5,63,98,1830980040
65,19,15,Jits_Phase_8,0,1,48,57,1831760000
65,19,15,Jits_Phase_8,1,5,63,98,1831819660
65,19,15,Jits_Phase_8,2,5,56,103,1831860416
65,19,15,Jits_Phase_8,3,5,80,127,1831863396
65,19,15,Jits_Phase_8,0,5,80,127,1832520224
65,19,15,Jits_Phase_8,1,1,48,64,1832559160
65,19,15,Jits_Phase_8,2,5,56,103,1832599940
65,19,15,Jits_Phase_8,3,5,63,98,1832650240
65,19,15,Jits_Phase_8,0,5,80,127,1833300368
65,19,15,Jits_Phase_8,1,5,56,103,1833319932
65,19,15,Jits_Phase_8,2,1,48,60,1833375636
65,19,15,Jits_Phase_8,3,5,63,98,1833410004
65,19,15,Jits_Phase_8,0,5,80,127,1834140296
65,19,15,Jits_Phase_8,1,5,63,98,1834180040
65,19,15,Jits_Phase_8,2,1,48,64,1834183532
65,19,15,Jits_Phase_8,3,5,56,103,1834219968
65,19,15,Jits_Phase_8,0,5,63,98,1834950288
65,19,15,Jits_Phase_8,1,5,80,127,1835010456
65,19,15,Jits_Phase_8,2,1,48,58,1835022116
65,19,15,Jits_Phase_8,3,5,56,103,1835040196
65,19,15,Jits_Phase_8,0,5,56,103,1835789676
65,19,15,Jits_Phase_8,1,1,48,57,1835818204
65,19,15,Jits_Phase_8,2,5,80,127,1835820392
65,19,15,Jits_Phase_8,3,5,63,98,1835909460
65,19,15,Jits_Phase_8,0,5,56,103,1836599636
65,19,15,Jits_Phase_8,1,1,48,65,1836630256
65,19,15,Jits_Phase_8,2,5,80,127,1836710364
65,19,15,Jits_Phase_8,3,5,63,98,1836739900
65,19,15,Jits_Phase_8,0,1,48,69,1837424852
65,19,15,Jits_Phase_8,1,5,56,103,1837449456
65,19,15,Jits_Phase_8,2,5,63,98,1837510168
65,19,15,Jits_Phase_8,3,5,80,127,1837539604
65,19,15,Jits_Phase_8,0,5,56,103,1838219556
65,19,15,Jits_Phase_8,1,1,48,64,1838248232
65,19,15,Jits_Phase_8,2,5,63,98,1838290228
65,19,15,Jits_Phase_8,3,5,80,127,1838309788
65,19,15,Jits_Phase_8,0,5,80,127,1838989812
65,19,15,Jits_Phase_8,1,5,63,98,1839010268
65,19,15,Jits_Phase_8,2,1,48,57,1839056040
65,19,15,Jits_Phase_8,3,5,56,103,1839060264
65,19,15,Jits_Phase_8,0,5,63,98,1839809908
65,19,15,Jits_Phase_8,1,5,80,127,1839820180
65,19,15,Jits_Phase_8,2,1,48,57,1839850648
65,19,15,Jits_Phase_8,3,5,56,103,1839870296
65,19,15,Jits_Phase_8,0,5,63,98,1840609592
65,19,15,Jits_Phase_8,1,1,48,59,1840649500
65,19,15,Jits_Phase_8,2,5,80,127,1840680164
65,19,15,Jits_Phase_8,3,5,56,103,1840700020
65,19,15,Jits_Phase_8,0,5,63,98,1841440064
65,19,15,Jits_Phase_8,1,5,80,127,1841443428
65,19,15,Jits_Phase_8,2,1,48,55,1841470608
65,19,15,Jits_Phase_8,3,5,56,103,1841509736
65,19,15,Jits_Phase_8,0,5,80,127,1842189544
65,19,15,Jits_Phase_8,1,5,56,103,1842210152
65,19,15,Jits_Phase_8,2,5,63,98,1842220272
65,19,15,Jits_Phase_8,3,1,48,60,1842259204
65,19,15,Jits_Phase_8,0,5,56,103,1843010056
65,19,15,Jits_Phase_8,1,1,48,64,1843044792
65,19,15,Jits_Phase_8,2,5,63,98,1843100112
65,19,15,Jits_Phase_8,3,5,80,127,1843103400
65,19,15,Jits_Phase_8,0,5,80,127,1843780156
65,19,15,Jits_Phase_8,1,5,56,103,1843790128
65,19,15,Jits_Phase_8,2,5,63,98,1843809612
65,19,15,Jits_Phase_8,3,1,48,57,1843840452
65,19,15,Jits_Phase_8,0,5,63,98,1844579916
65,19,15,Jits_Phase_8,1,1,48,57,1844622144
65,19,15,Jits_Phase_8,2,5,80,127,1844640152
65,19,15,Jits_Phase_8,3,5,56,103,1844650572
65,19,15,Jits_Phase_8,0,1,48,57,1845406900
65,19,15,Jits_Phase_8,1,5,63,98,1845449964
65,19,15,Jits_Phase_8,2,5,80,127,1845479864
65,19,15,Jits_Phase_8,3,5,56,103,1845519936
65,19,15,Jits_Phase_8,0,5,56,103,1846239696
65,19,15,Jits_Phase_8,1,1,48,59,1846247620
65,19,15,Jits_Phase_8,2,5,80,127,1846249884
65,19,15,Jits_Phase_8,3,5,63,98,1846289896
65,19,15,Jits_Phase_8,0,5,80,127,1847000356
65,19,15,Jits_Phase_8,1,5,56,103,1847080300
65,19,15,Jits_Phase_8,2,1,48,60,1847085516
65,19,15,Jits_Phase_8,3,5,63,98,1847089520
65,19,15,Jits_Phase_8,0,5,80,127,1847850400
65,19,15,Jits_Phase_8,1,1,48,59,1847920652
65,19,15,Jits_Phase_8,2,5,56,103,1847930116
65,19,15,Jits_Phase_8,3,5,63,98,1847939336
65,19,15,Jits_Phase_8,0,5,80,127,1848689964
65,19,15,Jits_Phase_8,1,5,56,103,1848740316
65,19,15,Jits_Phase_8,2,1,48,63,1848764884
65,19,15,Jits_Phase_8,3,5,63,98,1848790312
65,19,15,Jits_Phase_8,0,5,56,103,1849630080
65,19,15,Jits_Phase_8,1,1,48,57,1849631064
65,19,15,Jits_Phase_8,2,5,63,98,1849634112
65,19,15,Jits_Phase_8,3,5,80,127,1849680344
65,19,15,Jits_Phase_8,0,5,56,103,1850450300
65,19,15,Jits_Phase_8,1,5,63,98,1850479976
65,19,15,Jits_Phase_8,2,5,80,127,1850490172
65,19,15,Jits_Phase_8,3,1,48,61,1850541240
65,19,15,Jits_Phase_8,0,5,63,98,1851160024
65,19,15,Jits_Phase_8,1,5,56,103,1851229480
65,19,15,Jits_Phase_8,2,5,80,127,1851279904
65,19,15,Jits_Phase_8,3,1,48,65,1851334812
65,19,15,Jits_Phase_8,0,5,63,98,1851990348
65,19,15,Jits_Phase_8,1,5,56,103,1851999568
65,19,15,Jits_Phase_8,2,5,80,127,1852002636
65,19,15,Jits_Phase_8,3,1,48,64,1852154112
65,19,15,Jits_Phase_8,0,5,80,127,1852739824
65,19,15,Jits_Phase_8,1,5,56,103,1852800292
65,19,15,Jits_Phase_8,2,1,48,57,1852849788
65,19,15,Jits_Phase_8,3,5,63,98,1852889468
65,19,15,Jits_Phase_8,0,5,80,127,1853539972
65,19,15,Jits_Phase_8,1,5,56,103,1853640020
65,19,15,Jits_Phase_8,2,1,48,38,1853650932
65,19,15,Jits_Phase_8,3,5,63,98,1853679880
65,19,15,Jits_Phase_8,0,5,56,103,1854389720
65,19,15,Jits_Phase_8,1,5,63,98,1854410052
65,19,15,Jits_Phase_8,2,5,80,127,1854449916
65,19,15,Jits_Phase_8,3,1,48,61,1854473412
65,19,15,Jits_Phase_8,0,5,63,98,1855159972
65,19,15,Jits_Phase_8,1,5,56,103,1855180084
65,19,15,Jits_Phase_8,2,1,48,54,1855194144
65,19,15,Jits_Phase_8,3,5,80,127,1855279724
65,19,15,Jits_Phase_8,0,5,63,98,1855950168
65,19,15,Jits_Phase_8,1,1,48,68,1855989328
65,19,15,Jits_Phase_8,2,5,80,127,1856059772
65,19,15,Jits_Phase_8,3,5,56,103,1856089584
65,19,15,Jits_Phase_8,0,5,56,103,1856770532
65,19,15,Jits_Phase_8,1,1,48,59,1856773132
65,19,15,Jits_Phase_8,2,5,63,98,1856799976
65,19,15,Jits_Phase_8,3,5,80,127,1856850324
65,19,15,Jits_Phase_8,0,1,48,61,1857535124
65,19,15,Jits_Phase_8,1,5,63,98,1857539724
65,19,15,Jits_Phase_8,2,5,56,103,1857570224
65,19,15,Jits_Phase_8,3,5,80,127,1857620276
65,19,15,Jits_Phase_8,0,1,48,59,1858278320
65,19,15,Jits_Phase_8,1,5,56,103,1858369900
65,19,15,Jits_Phase_8,2,5,63,98,1858390344
65,19,15,Jits_Phase_8,3,5,80,127,1858470212
65,19,15,Jits_Phase_8,0,1,48,62,1859068416
65,19,15,Jits_Phase_8,1,5,63,98,1859139988
65,19,15,Jits_Phase_8,2,5,56,103,1859200292
65,19,15,Jits_Phase_8,3,5,80,127,1859230036
65,19,15,Jits_Phase_8,0,1,48,60,1859852952
65,19,15,Jits_Phase_8,1,5,56,103,1859979808
65,19,15,Jits_Phase_8,2,5,80,127,1860040076
65,19,15,Jits_Phase_8,3,5,63,98,1860079940
65,19,15,Jits_Phase_8,0,1,48,54,1860727624
65,19,15,Jits_Phase_8,1,5,63,98,1860759804
65,19,15,Jits_Phase_8,2,5,56,103,1860820444
65,19,15,Jits_Phase_8,3,5,80,127,1860889960
65,19,15,Jits_Phase_8,0,1,48,35,1861560516
65,19,15,Jits_Phase_8,1,5,56,103,1861639656
65,19,15,Jits_Phase_8,2,5,63,98,1861649848
65,19,15,Jits_Phase_8,3,5,80,127,1861653140
65,19,15,Jits_Phase_8,0,5,63,98,1862379852
65,19,15,Jits_Phase_8,1,5,56,103,1862440240
65,19,15,Jits_Phase_8,2,5,80,127,1862443532
65,19,15,Jits_Phase_8,3,1,48,61,1862545684
65,19,15,Jits_Phase_8,0,5,63,98,1863160044
65,19,15,Jits_Phase_8,1,5,80,127,1863189944
65,19,15,Jits_Phase_8,2,5,56,103,1863210552
65,19,15,Jits_Phase_8,3,1,48,54,1863232852
65,19,15,Jits_Phase_8,0,5,56,103,1863890420
65,19,15,Jits_Phase_8,1,5,63,98,1863939724
65,19,15,Jits_Phase_8,2,1,48,56,1864010196
65,19,15,Jits_Phase_8,3,5,80,127,1864020704
65,19,15,Jits_Phase_8,0,5,80,127,1864589712
65,19,15,Jits_Phase_8,1,5,63,98,1864629648
65,19,15,Jits_Phase_8,2,1,48,60,1864648168
65,19,15,Jits_Phase_8,3,5,56,103,1864650052
65,19,15,Jits_Phase_8,0,1,48,57,1865327472
65,19,15,Jits_Phase_8,1,5,56,103,1865460204
65,19,15,Jits_Phase_8,2,5,80,127,1865470476
65,19,15,Jits_Phase_8,3,5,63,98,1865489736
65,19,15,Jits_Phase_8,0,1,48,44,1866194244
65,19,15,Jits_Phase_8,1,5,56,103,1866240424
65,19,15,Jits_Phase_8,2,5,63,98,1866289640
65,19,15,Jits_Phase_8,3,5,80,127,1866320212
65,19,15,Jits_Phase_8,0,5,56,103,1866990068
65,19,15,Jits_Phase_8,1,5,63,98,1867000192
65,19,15,Jits_Phase_8,2,5,80,127,1867050468
65,19,15,Jits_Phase_8,3,1,48,62,1867068432
65,19,15,Jits_Phase_8,0,5,56,103,1867779644
65,19,15,Jits_Phase_8,1,5,80,127,1867782640
65,19,15,Jits_Phase_8,2,1,48,59,1867856928
65,19,15,Jits_Phase_8,3,5,63,98,1867940264
65,19,15,Jits_Phase_8,0,5,63,98,1868599784
65,19,15,Jits_Phase_8,1,5,56,103,1868670440
65,19,15,Jits_Phase_8,2,5,80,127,1868710304
65,19,15,Jits_Phase_8,3,1,48,69,1868727664
65,19,15,Jits_Phase_8,0,5,63,98,1869440524
65,19,15,Jits_Phase_8,1,1,48,64,1869489124
65,19,15,Jits_Phase_8,2,5,56,103,1869529404
65,19,15,Jits_Phase_8,3,5,80,127,1869532548
65,19,15,Jits_Phase_8,0,5,56,103,1870219748
65,19,15,Jits_Phase_8,1,1,48,64,1870239884
65,19,15,Jits_Phase_8,2,5,63,98,1870309680
65,19,15,Jits_Phase_8,3,5,80,127,1870319948
65,19,15,Jits_Phase_8,0,5,56,103,1870989708
65,19,15,Jits_Phase_8,1,1,48,65,1871015448
65,19,15,Jits_Phase_8,2,5,63,98,1871039928
65,19,15,Jits_Phase_8,3,5,80,127,1871069604
65,19,15,Jits_Phase_8,0,1,48,65,1871804372
65,19,15,Jits_Phase_8,1,5,63,98,1871870412
65,19,15,Jits_Phase_8,2,5,80,127,1871879708
65,19,15,Jits_Phase_8,3,5,56,103,1871939936
65,19,15,Jits_Phase_8,0,5,63,98,1872590392
65,19,15,Jits_Phase_8,1,5,80,127,1872649588
65,19,15,Jits_Phase_8,2,1,48,62,1872681324
65,19,15,Jits_Phase_8,3,5,56,103,1872689740
65,19,15,Jits_Phase_8,0,5,56,103,1873490392
65,19,15,Jits_Phase_8,1,1,48,63,1873494040
65,19,15,Jits_Phase_8,2,5,80,127,1873509872
65,19,15,Jits_Phase_8,3,5,63,98,1873530480
65,19,15,Jits_Phase_8,0,5,63,98,1874210356
65,19,15,Jits_Phase_8,1,5,56,103,1874229472
65,19,15,Jits_Phase_8,2,5,80,127,1874269408
65,19,15,Jits_Phase_8,3,1,48,62,1874323016
65,19,15,Jits_Phase_8,0,5,63,98,1875020152
65,19,15,Jits_Phase_8,1,5,80,127,1875049828
65,19,15,Jits_Phase_8,2,5,56,103,1875070508
65,19,15,Jits_Phase_8,3,1,48,47,1875089068
65,19,15,Jits_Phase_8,0,5,80,127,1875790464
65,19,15,Jits_Phase_8,1,5,56,103,1875840592
65,19,15,Jits_Phase_8,2,5,63,98,1875899736
65,19,15,Jits_Phase_8,3,1,48,77,1875967720
65,19,15,Jits_Phase_8,0,5,63,98,1876579676
65,19,15,Jits_Phase_8,1,5,56,103,1876699580
65,19,15,Jits_Phase_8,2,5,80,127,1876730448
65,19,15,Jits_Phase_8,3,1,48,57,1876736560
65,19,15,Jits_Phase_8,0,5,80,127,1877420568
65,19,15,Jits_Phase_8,1,5,63,98,1877439928
65,19,15,Jits_Phase_8,2,1,48,67,1877454960
65,19,15,Jits_Phase_8,3,1,48,35,1877501836
65,19,15,Jits_Phase_8,4,5,56,103,1877509580
65,19,15,Jits_Phase_8,0,5,63,98,1878239728
65,19,15,Jits_Phase_8,1,5,56,103,1878249776
65,19,15,Jits_Phase_8,2,1,48,65,1878262864
65,19,15,Jits_Phase_8,3,5,80,127,1878329636
65,19,15,Jits_Phase_8,0,1,48,61,1879041780
65,19,15,Jits_Phase_8,1,5,56,103,1879099800
65,19,15,Jits_Phase_8,2,5,80,127,1879129548
65,19,15,Jits_Phase_8,3,5,63,98,1879139656
65,19,15,Jits_Phase_8,0,9999,9999,9999,1744257120
65,19,15,Jits_Phase_8,1,9999,9999,9999,1745057860
65,19,15,Jits_Phase_8,2,9999,9999,9999,1745857644
65,19,15,Jits_Phase_8,3,9999,9999,9999,1746657344
65,19,15,Jits_Phase_8,4,9999,9999,9999,1747457108
65,19,15,Jits_Phase_8,5,9999,9999,9999,1748257920
65,19,15,Jits_Phase_8,6,9999,9999,9999,1749057612
65,19,15,Jits_Phase_8,7,9999,9999,9999,1749857388
65,19,15,Jits_Phase_8,8,9999,9999,9999,1750657092
65,19,15,Jits_Phase_8,9,9999,9999,9999,1751457884
65,19,15,Jits_Phase_8,10,9999,9999,9999,1752257612
65,19,15,Jits_Phase_8,11,9999,9999,9999,1753057372
65,19,15,Jits_Phase_8,12,9999,9999,9999,1753857152
65,19,15,Jits_Phase_8,13,9999,9999,9999,1754657892
65,19,15,Jits_Phase_8,14,9999,9999,9999,1755457636
65,19,15,Jits_Phase_8,15,9999,9999,9999,1756257400
65,19,15,Jits_Phase_8,16,9999,9999,9999,1757057144
65,19,15,Jits_Phase_8,17,9999,9999,9999,1757857892
65,19,15,Jits_Phase_8,18,9999,9999,9999,1758657604
65,19,15,Jits_Phase_8,19,9999,9999,9999,1759457380
65,19,15,Jits_Phase_8,20,9999,9999,9999,1760257136
65,19,15,Jits_Phase_8,21,9999,9999,9999,1761057868
65,19,15,Jits_Phase_8,22,9999,9999,9999,1761857608
65,19,15,Jits_Phase_8,23,9999,9999,9999,1762657364
65,19,15,Jits_Phase_8,24,9999,9999,9999,1763457120
65,19,15,Jits_Phase_8,25,9999,9999,9999,1764257844
65,19,15,Jits_Phase_8,26,9999,9999,9999,1765057644
65,19,15,Jits_Phase_8,27,9999,9999,9999,1765857400
65,19,15,Jits_Phase_8,28,9999,9999,9999,1766657096
65,19,15,Jits_Phase_8,29,9999,9999,9999,1767457848
65,19,15,Jits_Phase_8,30,9999,9999,9999,1768237148
65,19,15,Jits_Phase_8,31,9999,9999,9999,1769037880
65,19,15,Jits_Phase_8,32,9999,9999,9999,1769837652
65,19,15,Jits_Phase_8,33,9999,9999,9999,1770637416
65,19,15,Jits_Phase_8,34,9999,9999,9999,1771437112
65,19,15,Jits_Phase_8,35,9999,9999,9999,1772237892
65,19,15,Jits_Phase_8,36,9999,9999,9999,1773037652
65,19,15,Jits_Phase_8,37,9999,9999,9999,1773837428
65,19,15,Jits_Phase_8,38,9999,9999,9999,1774637120
65,19,15,Jits_Phase_8,39,9999,9999,9999,1775437940
65,19,15,Jits_Phase_8,40,9999,9999,9999,1776237640
65,19,15,Jits_Phase_8,41,9999,9999,9999,1777037400
65,19,15,Jits_Phase_8,42,9999,9999,9999,1777837156
65,19,15,Jits_Phase_8,43,9999,9999,9999,1778637916
65,19,15,Jits_Phase_8,44,9999,9999,9999,1779437656
65,19,15,Jits_Phase_8,45,9999,9999,9999,1780237416
65,19,15,Jits_Phase_8,46,9999,9999,9999,1781037116
65,19,15,Jits_Phase_8,47,9999,9999,9999,1781837928
65,19,15,Jits_Phase_8,48,9999,9999,9999,1782657108
65,19,15,Jits_Phase_8,49,9999,9999,9999,1783457912
65,19,15,Jits_Phase_8,50,9999,9999,9999,1784257616
65,19,15,Jits_Phase_8,51,9999,9999,9999,1785057372
65,19,15,Jits_Phase_8,52,9999,9999,9999,1785857136
65,19,15,Jits_Phase_8,53,9999,9999,9999,1786657888
65,19,15,Jits_Phase_8,54,9999,9999,9999,1787457652
65,19,15,Jits_Phase_8,55,9999,9999,9999,1788257352
65,19,15,Jits_Phase_8,56,9999,9999,9999,1789057108
65,19,15,Jits_Phase_8,57,9999,9999,9999,1789857856
65,19,15,Jits_Phase_8,58,9999,9999,9999,1790657652
65,19,15,Jits_Phase_8,59,9999,9999,9999,1791457348
65,19,15,Jits_Phase_8,60,9999,9999,9999,1792257120
65,19,15,Jits_Phase_8,61,9999,9999,9999,1793057872
65,19,15,Jits_Phase_8,62,9999,9999,9999,1793857640
65,19,15,Jits_Phase_8,63,9999,9999,9999,1794657388
65,19,15,Jits_Phase_8,64,9999,9999,9999,1795498068
65,19,15,Jits_Phase_8,65,9999,9999,9999,1796297836
65,19,15,Jits_Phase_8,66,9999,9999,9999,1797097576
65,19,15,Jits_Phase_8,67,9999,9999,9999,1797897340
65,19,15,Jits_Phase_8,68,9999,9999,9999,1798698072
65,19,15,Jits_Phase_8,69,9999,9999,9999,1799497848
65,19,15,Jits_Phase_8,70,9999,9999,9999,1800297540
65,19,15,Jits_Phase_8,71,9999,9999,9999,1801097308
65,19,15,Jits_Phase_8,72,9999,9999,9999,1801898108
65,19,15,Jits_Phase_8,73,9999,9999,9999,1802697832
65,19,15,Jits_Phase_8,74,9999,9999,9999,1803497536
65,19,15,Jits_Phase_8,75,9999,9999,9999,1804297296
65,19,15,Jits_Phase_8,76,9999,9999,9999,1805098112
65,19,15,Jits_Phase_8,77,9999,9999,9999,1805897812
65,19,15,Jits_Phase_8,78,9999,9999,9999,1806697576
65,19,15,Jits_Phase_8,79,9999,9999,9999,1807497272
65,19,15,Jits_Phase_8,80,9999,9999,9999,1808298092
65,19,15,Jits_Phase_8,81,9999,9999,9999,1809057916
65,19,15,Jits_Phase_8,82,9999,9999,9999,1809857628
65,19,15,Jits_Phase_8,83,9999,9999,9999,1810657360
65,19,15,Jits_Phase_8,84,9999,9999,9999,1811457100
65,19,15,Jits_Phase_8,85,9999,9999,9999,1812257900
65,19,15,Jits_Phase_8,86,9999,9999,9999,1813057612
65,19,15,Jits_Phase_8,87,9999,9999,9999,1813857344
65,19,15,Jits_Phase_8,88,9999,9999,9999,1814657100
65,19,15,Jits_Phase_8,89,9999,9999,9999,1815457908
65,19,15,Jits_Phase_8,90,9999,9999,9999,1816257628
65,19,15,Jits_Phase_8,91,9999,9999,9999,1817057380
65,19,15,Jits_Phase_8,92,9999,9999,9999,1817857144
65,19,15,Jits_Phase_8,93,9999,9999,9999,1818657872
65,19,15,Jits_Phase_8,94,9999,9999,9999,1819457628
65,19,15,Jits_Phase_8,95,9999,9999,9999,1820257404
65,19,15,Jits_Phase_8,96,9999,9999,9999,1821057100
65,19,15,Jits_Phase_8,97,9999,9999,9999,1821778044
65,19,15,Jits_Phase_8,98,9999,9999,9999,1822577748
65,19,15,Jits_Phase_8,99,9999,9999,9999,1823377524
65,19,15,Jits_Phase_8,100,9999,9999,9999,1824177212
65,19,15,Jits_Phase_8,101,9999,9999,9999,1824978036
65,19,15,Jits_Phase_8,102,9999,9999,9999,1825777788
65,19,15,Jits_Phase_8,103,9999,9999,9999,1826577472
65,19,15,Jits_Phase_8,104,9999,9999,9999,1827377244
65,19,15,Jits_Phase_8,105,9999,9999,9999,1828177980
65,19,15,Jits_Phase_8,106,9999,9999,9999,1828977732
65,19,15,Jits_Phase_8,107,9999,9999,9999,1829777468
65,19,15,Jits_Phase_8,108,9999,9999,9999,1830577228
65,19,15,Jits_Phase_8,109,9999,9999,9999,1831377972
65,19,15,Jits_Phase_8,110,9999,9999,9999,1832177748
65,19,15,Jits_Phase_8,111,9999,9999,9999,1832977504
65,19,15,Jits_Phase_8,112,9999,9999,9999,1833777276
65,19,15,Jits_Phase_8,113,9999,9999,9999,1834578024
65,19,15,Jits_Phase_8,114,9999,9999,9999,1835457608
65,19,15,Jits_Phase_8,115,9999,9999,9999,1836257368
65,19,15,Jits_Phase_8,116,9999,9999,9999,1837057144
65,19,15,Jits_Phase_8,117,9999,9999,9999,1837857896
65,19,15,Jits_Phase_8,118,9999,9999,9999,1838657656
65,19,15,Jits_Phase_8,119,9999,9999,9999,1839457352
65,19,15,Jits_Phase_8,120,9999,9999,9999,1840257120
65,19,15,Jits_Phase_8,121,9999,9999,9999,1841057852
65,19,15,Jits_Phase_8,122,9999,9999,9999,1841857628
65,19,15,Jits_Phase_8,123,9999,9999,9999,1842657376
65,19,15,Jits_Phase_8,124,9999,9999,9999,1843457144
65,19,15,Jits_Phase_8,125,9999,9999,9999,1844257880
65,19,15,Jits_Phase_8,126,9999,9999,9999,1845057644
65,19,15,Jits_Phase_8,127,9999,9999,9999,1845857408
65,19,15,Jits_Phase_8,128,9999,9999,9999,1846657092
65,19,15,Jits_Phase_8,129,9999,9999,9999,1847457908
65,19,15,Jits_Phase_8,130,9999,9999,9999,1848257640
65,19,15,Jits_Phase_8,131,9999,9999,9999,1849217136
65,19,15,Jits_Phase_8,132,9999,9999,9999,1850017876
65,19,15,Jits_Phase_8,133,9999,9999,9999,1850817608
65,19,15,Jits_Phase_8,134,9999,9999,9999,1851617380
65,19,15,Jits_Phase_8,135,9999,9999,9999,1852417124
65,19,15,Jits_Phase_8,136,9999,9999,9999,1853217856
65,19,15,Jits_Phase_8,137,9999,9999,9999,1854017632
65,19,15,Jits_Phase_8,138,9999,9999,9999,1854817404
65,19,15,Jits_Phase_8,139,9999,9999,9999,1855617104
65,19,15,Jits_Phase_8,140,9999,9999,9999,1856417912
65,19,15,Jits_Phase_8,141,9999,9999,9999,1857217620
65,19,15,Jits_Phase_8,142,9999,9999,9999,1858017384
65,19,15,Jits_Phase_8,143,9999,9999,9999,1858817144
65,19,15,Jits_Phase_8,144,9999,9999,9999,1859617872
65,19,15,Jits_Phase_8,145,9999,9999,9999,1860417632
65,19,15,Jits_Phase_8,146,9999,9999,9999,1861217392
65,19,15,Jits_Phase_8,147,9999,9999,9999,1862017120
65,19,15,Jits_Phase_8,148,9999,9999,9999,1862817916
65,19,15,Jits_Phase_8,149,9999,9999,9999,1863617620
65,19,15,Jits_Phase_8,150,9999,9999,9999,1864257632
65,19,15,Jits_Phase_8,151,9999,9999,9999,1865057400
65,19,15,Jits_Phase_8,152,9999,9999,9999,1865857100
65,19,15,Jits_Phase_8,153,9999,9999,9999,1866657908
65,19,15,Jits_Phase_8,154,9999,9999,9999,1867457608
65,19,15,Jits_Phase_8,155,9999,9999,9999,1868257368
65,19,15,Jits_Phase_8,156,9999,9999,9999,1869057140
65,19,15,Jits_Phase_8,157,9999,9999,9999,1869857868
65,19,15,Jits_Phase_8,158,9999,9999,9999,1870657628
65,19,15,Jits_Phase_8,159,9999,9999,9999,1871457400
65,19,15,Jits_Phase_8,160,9999,9999,9999,1872257104
65,19,15,Jits_Phase_8,161,9999,9999,9999,1873057908
65,19,15,Jits_Phase_8,162,9999,9999,9999,1873857600
65,19,15,Jits_Phase_8,163,9999,9999,9999,1874657372
65,19,15,Jits_Phase_8,164,9999,9999,9999,1875457128
65,19,15,Jits_Phase_8,165,9999,9999,9999,1876257860
65,19,15,Jits_Phase_8,166,9999,9999,9999,1877057636
65,19,15,Jits_Phase_8,167,9999,9999,9999,1877857372
65,19,15,Jits_Phase_8,168,9999,9999,9999,1878657128
65,19,15,Jits_Phase_8,169,9999,9999,9999,1879457872
65,20,17,Jits_Phase_5,0,5,56,103,1888955940
65,20,17,Jits_Phase_5,1,5,63,98,1888958884
65,20,17,Jits_Phase_5,2,5,80,127,1888962160
65,20,17,Jits_Phase_5,0,5,56,103,1889455468
65,20,17,Jits_Phase_5,1,5,63,98,1889458640
65,20,17,Jits_Phase_5,2,5,80,127,1889461836
65,20,17,Jits_Phase_5,3,1,48,53,1889597804
65,20,17,Jits_Phase_5,0,5,56,103,1889956348
65,20,17,Jits_Phase_5,1,5,80,127,1889965496
65,20,17,Jits_Phase_5,2,5,63,98,1889985980
65,20,17,Jits_Phase_5,3,1,48,56,1890014200
65,20,17,Jits_Phase_5,0,5,63,98,1890405620
65,20,17,Jits_Phase_5,1,5,80,127,1890435368
65,20,17,Jits_Phase_5,2,5,56,103,1890445640
65,20,17,Jits_Phase_5,3,1,48,56,1890528484
65,20,17,Jits_Phase_5,0,1,48,53,1890954932
65,20,17,Jits_Phase_5,1,5,80,127,1890966264
65,20,17,Jits_Phase_5,2,5,56,103,1890976088
65,20,17,Jits_Phase_5,3,5,63,98,1891006008
65,20,17,Jits_Phase_5,0,5,63,98,1891456360
65,20,17,Jits_Phase_5,1,5,56,103,1891486184
65,20,17,Jits_Phase_5,2,5,80,127,1891496232
65,20,17,Jits_Phase_5,3,1,48,54,1891513228
65,20,17,Jits_Phase_5,0,5,56,103,1891906068
65,20,17,Jits_Phase_5,1,5,63,98,1891956268
65,20,17,Jits_Phase_5,2,5,80,127,1891975528
65,20,17,Jits_Phase_5,3,1,48,53,1892004124
65,20,17,Jits_Phase_5,0,5,80,127,1892405756
65,20,17,Jits_Phase_5,1,1,48,56,1892451872
65,20,17,Jits_Phase_5,2,5,63,98,1892455728
65,20,17,Jits_Phase_5,3,1,48,37,1892487228
65,20,17,Jits_Phase_5,4,5,56,103,1892495788
65,20,17,Jits_Phase_5,0,5,56,103,1892906372
65,20,17,Jits_Phase_5,1,5,63,98,1892936124
65,20,17,Jits_Phase_5,2,1,48,57,1893005948
65,20,17,Jits_Phase_5,3,5,80,127,1893007136
65,20,17,Jits_Phase_5,0,5,56,103,1893406284
65,20,17,Jits_Phase_5,1,1,48,63,1893463736
65,20,17,Jits_Phase_5,2,5,80,127,1893465472
65,20,17,Jits_Phase_5,3,5,63,98,1893496044
65,20,17,Jits_Phase_5,0,5,56,103,1893916088
65,20,17,Jits_Phase_5,1,5,63,98,1893926212
65,20,17,Jits_Phase_5,2,5,80,127,1893966148
65,20,17,Jits_Phase_5,3,1,48,63,1893974148
65,20,17,Jits_Phase_5,0,5,63,98,1894405440
65,20,17,Jits_Phase_5,1,5,80,127,1894486280
65,20,17,Jits_Phase_5,2,5,56,103,1894495504
65,20,17,Jits_Phase_5,3,1,48,62,1894497444
65,20,17,Jits_Phase_5,0,5,63,98,1894956432
65,20,17,Jits_Phase_5,1,5,56,103,1894996292
65,20,17,Jits_Phase_5,2,5,80,127,1894999508
65,20,17,Jits_Phase_5,3,1,48,58,1895011092
65,20,17,Jits_Phase_5,0,5,56,103,1895416168
65,20,17,Jits_Phase_5,1,5,63,98,1895426512
65,20,17,Jits_Phase_5,2,5,80,127,1895466300
65,20,17,Jits_Phase_5,3,1,48,52,1895508816
65,20,17,Jits_Phase_5,0,5,56,103,1895905664
65,20,17,Jits_Phase_5,1,5,63,98,1895908652
65,20,17,Jits_Phase_5,2,5,80,127,1895926120
65,20,17,Jits_Phase_5,3,1,48,57,1895944528
65,20,17,Jits_Phase_5,0,1,48,48,1896407104
65,20,17,Jits_Phase_5,1,5,80,127,1896415668
65,20,17,Jits_Phase_5,2,5,56,103,1896426012
65,20,17,Jits_Phase_5,3,5,63,98,1896495468
65,20,17,Jits_Phase_5,0,5,63,98,1896916468
65,20,17,Jits_Phase_5,1,5,56,103,1896935660
65,20,17,Jits_Phase_5,2,1,48,59,1896940872
65,20,17,Jits_Phase_5,3,5,80,127,1897015664
65,20,17,Jits_Phase_5,0,1,48,47,1897425732
65,20,17,Jits_Phase_5,1,5,56,103,1897427224
65,20,17,Jits_Phase_5,2,5,80,127,1897466188
65,20,17,Jits_Phase_5,3,5,63,98,1897475340
65,20,17,Jits_Phase_5,0,1,48,52,1897915448
65,20,17,Jits_Phase_5,1,5,80,127,1897916936
65,20,17,Jits_Phase_5,2,5,63,98,1897945488
65,20,17,Jits_Phase_5,3,5,56,103,1897986396
65,20,17,Jits_Phase_5,0,5,56,103,1898435948
65,20,17,Jits_Phase_5,1,1,48,46,1898453220
65,20,17,Jits_Phase_5,2,5,63,98,1898465616
65,20,17,Jits_Phase_5,3,5,80,127,1898515964
65,20,17,Jits_Phase_5,0,5,80,127,1898935564
65,20,17,Jits_Phase_5,1,1,48,55,1898960628
65,20,17,Jits_Phase_5,2,5,56,103,1898975572
65,20,17,Jits_Phase_5,3,5,63,98,1898985840
65,20,17,Jits_Phase_5,0,5,80,127,1899416196
65,20,17,Jits_Phase_5,1,1,48,42,1899441268
65,20,17,Jits_Phase_5,2,5,63,98,1899456004
65,20,17,Jits_Phase_5,3,5,56,103,1899516240
65,20,17,Jits_Phase_5,0,5,56,103,1899915736
65,20,17,Jits_Phase_5,1,1,48,56,1899919904
65,20,17,Jits_Phase_5,2,5,80,127,1899925852
65,20,17,Jits_Phase_5,3,5,63,98,1900005892
65,20,17,Jits_Phase_5,0,5,80,127,1900416400
65,20,17,Jits_Phase_5,1,1,48,51,1900467916
65,20,17,Jits_Phase_5,2,5,63,98,1900475688
65,20,17,Jits_Phase_5,3,5,56,103,1900505584
65,20,17,Jits_Phase_5,0,5,56,103,1900916164
65,20,17,Jits_Phase_5,1,1,48,55,1900973844
65,20,17,Jits_Phase_5,2,5,80,127,1900975428
65,20,17,Jits_Phase_5,3,5,63,98,1901016436
65,20,17,Jits_Phase_5,0,1,48,42,1901420612
65,20,17,Jits_Phase_5,1,5,56,103,1901466268
65,20,17,Jits_Phase_5,2,5,63,98,1901476236
65,20,17,Jits_Phase_5,3,5,80,127,1901479600
65,20,17,Jits_Phase_5,0,5,80,127,1901915448
65,20,17,Jits_Phase_5,1,1,48,54,1901941936
65,20,17,Jits_Phase_5,2,5,63,98,1902005796
65,20,17,Jits_Phase_5,3,5,56,103,1902015940
65,20,17,Jits_Phase_5,0,5,56,103,1902416164
65,20,17,Jits_Phase_5,1,5,63,98,1902419340
65,20,17,Jits_Phase_5,2,5,80,127,1902422388
65,20,17,Jits_Phase_5,3,1,48,46,1902491284
65,20,17,Jits_Phase_5,0,5,80,127,1902936524
65,20,17,Jits_Phase_5,1,5,63,98,1902985456
65,20,17,Jits_Phase_5,2,1,48,53,1903016248
65,20,17,Jits_Phase_5,3,5,56,103,1903017588
65,20,17,Jits_Phase_5,0,5,56,103,1903415840
65,20,17,Jits_Phase_5,1,5,80,127,1903425888
65,20,17,Jits_Phase_5,2,1,48,42,1903473048
65,20,17,Jits_Phase_5,3,5,63,98,1903495632
65,20,17,Jits_Phase_5,0,1,48,59,1903893308
65,20,17,Jits_Phase_5,1,5,56,103,1903925784
65,20,17,Jits_Phase_5,2,5,63,98,1903946020
65,20,17,Jits_Phase_5,3,5,80,127,1904005348
65,20,17,Jits_Phase_5,0,1,48,47,1904382724
65,20,17,Jits_Phase_5,1,5,80,127,1904406056
65,20,17,Jits_Phase_5,2,5,63,98,1904475440
65,20,17,Jits_Phase_5,3,5,56,103,1904495956
65,20,17,Jits_Phase_5,0,5,80,127,1904926044
65,20,17,Jits_Phase_5,1,5,56,103,1904936240
65,20,17,Jits_Phase_5,2,5,63,98,1904945460
65,20,17,Jits_Phase_5,3,1,48,61,1904953288
65,20,17,Jits_Phase_5,0,5,80,127,1905415540
65,20,17,Jits_Phase_5,1,1,48,47,1905426608
65,20,17,Jits_Phase_5,2,5,56,103,1905436144
65,20,17,Jits_Phase_5,3,5,63,98,1905505820
65,20,17,Jits_Phase_5,0,1,48,52,1905893388
65,20,17,Jits_Phase_5,1,5,56,103,1905925416
65,20,17,Jits_Phase_5,2,5,80,127,1905956136
65,20,17,Jits_Phase_5,3,5,63,98,1905976068
65,20,17,Jits_Phase_5,0,1,48,50,1906413364
65,20,17,Jits_Phase_5,1,5,63,98,1906416024
65,20,17,Jits_Phase_5,2,5,56,103,1906476264
65,20,17,Jits_Phase_5,3,5,80,127,1906505996
65,20,17,Jits_Phase_5,0,5,63,98,1906905588
65,20,17,Jits_Phase_5,1,5,80,127,1906908876
65,20,17,Jits_Phase_5,2,1,48,48,1906957176
65,20,17,Jits_Phase_5,3,5,56,103,1906995708
65,20,17,Jits_Phase_5,0,5,56,103,1907425856
65,20,17,Jits_Phase_5,1,5,63,98,1907456356
65,20,17,Jits_Phase_5,2,1,48,52,1907457320
65,20,17,Jits_Phase_5,3,5,80,127,1907496432
65,20,17,Jits_Phase_5,0,5,63,98,1907926816
65,20,17,Jits_Phase_5,1,1,48,57,1907930684
65,20,17,Jits_Phase_5,2,5,56,103,1907966300
65,20,17,Jits_Phase_5,3,5,80,127,1907986012
65,20,17,Jits_Phase_5,0,1,48,52,1908426316
65,20,17,Jits_Phase_5,1,5,63,98,1908436304
65,20,17,Jits_Phase_5,2,5,56,103,1908476244
65,20,17,Jits_Phase_5,3,5,80,127,1908485540
65,20,17,Jits_Phase_5,0,5,80,127,1908915508
65,20,17,Jits_Phase_5,1,1,48,50,1908938204
65,20,17,Jits_Phase_5,2,5,63,98,1908986180
65,20,17,Jits_Phase_5,3,5,56,103,1909005740
65,20,17,Jits_Phase_5,0,5,56,103,1909405984
65,20,17,Jits_Phase_5,1,5,80,127,1909425620
65,20,17,Jits_Phase_5,2,1,48,53,1909456188
65,20,17,Jits_Phase_5,3,5,63,98,1909465572
65,20,17,Jits_Phase_5,0,1,48,51,1909889972
65,20,17,Jits_Phase_5,1,5,63,98,1909916004
65,20,17,Jits_Phase_5,2,5,80,127,1909935340
65,20,17,Jits_Phase_5,3,5,56,103,1909976348
65,20,17,Jits_Phase_5,0,1,48,54,1910415384
65,20,17,Jits_Phase_5,1,5,63,98,1910416872
65,20,17,Jits_Phase_5,2,5,56,103,1910436132
65,20,17,Jits_Phase_5,3,5,80,127,1910445356
65,20,17,Jits_Phase_5,0,5,80,127,1910915496
65,20,17,Jits_Phase_5,1,1,48,53,1910931416
65,20,17,Jits_Phase_5,2,5,56,103,1910936020
65,20,17,Jits_Phase_5,3,5,63,98,1910965548
65,20,17,Jits_Phase_5,0,1,48,48,1911416400
65,20,17,Jits_Phase_5,1,5,56,103,1911485896
65,20,17,Jits_Phase_5,2,5,80,127,1911488888
65,20,17,Jits_Phase_5,3,5,63,98,1911506356
65,20,17,Jits_Phase_5,0,5,63,98,1911905688
65,20,17,Jits_Phase_5,1,5,56,103,1911936484
65,20,17,Jits_Phase_5,2,1,48,51,1911967548
65,20,17,Jits_Phase_5,3,5,80,127,1911995916
65,20,17,Jits_Phase_5,0,1,48,68,1912424516
65,20,17,Jits_Phase_5,1,5,63,98,1912486120
65,20,17,Jits_Phase_5,2,5,56,103,1912495716
65,20,17,Jits_Phase_5,3,5,80,127,1912505860
65,20,17,Jits_Phase_5,0,5,56,103,1912946024
65,20,17,Jits_Phase_5,1,1,48,51,1912962772
65,20,17,Jits_Phase_5,2,5,80,127,1912975692
65,20,17,Jits_Phase_5,3,5,63,98,1912985964
65,20,17,Jits_Phase_5,0,1,48,54,1913460584
65,20,17,Jits_Phase_5,1,5,63,98,1913495908
65,20,17,Jits_Phase_5,2,5,56,103,1913506100
65,20,17,Jits_Phase_5,3,5,80,127,1913525736
65,20,17,Jits_Phase_5,0,5,56,103,1913925968
65,20,17,Jits_Phase_5,1,5,63,98,1913986356
65,20,17,Jits_Phase_5,2,5,80,127,1913989644
65,20,17,Jits_Phase_5,3,1,48,53,1913994652
65,20,17,Jits_Phase_5,0,5,80,127,1914446172
65,20,17,Jits_Phase_5,1,5,56,103,1914456368
65,20,17,Jits_Phase_5,2,1,48,59,1914499268
65,20,17,Jits_Phase_5,3,5,63,98,1914525964
65,20,17,Jits_Phase_5,0,5,80,127,1914935900
65,20,17,Jits_Phase_5,1,1,48,61,1914991908
65,20,17,Jits_Phase_5,2,5,56,103,1915006248
65,20,17,Jits_Phase_5,3,5,63,98,1915015692
65,20,17,Jits_Phase_5,0,5,63,98,1915476348
65,20,17,Jits_Phase_5,1,5,56,103,1915485720
65,20,17,Jits_Phase_5,2,5,80,127,1915506028
65,20,17,Jits_Phase_5,3,1,48,48,1915516716
65,20,17,Jits_Phase_5,0,5,80,127,1915925828
65,20,17,Jits_Phase_5,1,5,63,98,1915986220
65,20,17,Jits_Phase_5,2,1,48,62,1915998848
65,20,17,Jits_Phase_5,3,5,56,103,1916026220
65,20,17,Jits_Phase_5,0,5,56,103,1916465528
65,20,17,Jits_Phase_5,1,5,63,98,1916475652
65,20,17,Jits_Phase_5,2,1,48,53,1916510976
65,20,17,Jits_Phase_5,3,5,80,127,1916515728
65,20,17,Jits_Phase_5,0,5,56,103,1916926336
65,20,17,Jits_Phase_5,1,5,80,127,1916956012
65,20,17,Jits_Phase_5,2,5,63,98,1917006212
65,20,17,Jits_Phase_5,3,1,48,60,1917020640
65,20,17,Jits_Phase_5,0,1,48,49,1917447720
65,20,17,Jits_Phase_5,1,5,56,103,1917465956
65,20,17,Jits_Phase_5,2,5,63,98,1917506040
65,20,17,Jits_Phase_5,3,5,80,127,1917509256
65,20,17,Jits_Phase_5,0,5,56,103,1917965708
65,20,17,Jits_Phase_5,1,1,48,64,1917968148
65,20,17,Jits_Phase_5,2,5,63,98,1917975972
65,20,17,Jits_Phase_5,3,5,80,127,1917996280
65,20,17,Jits_Phase_5,0,5,56,103,1918425388
65,20,17,Jits_Phase_5,1,5,80,127,1918428604
65,20,17,Jits_Phase_5,2,5,63,98,1918466372
65,20,17,Jits_Phase_5,3,1,48,59,1918489940
65,20,17,Jits_Phase_5,0,1,48,69,1918957544
65,20,17,Jits_Phase_5,1,5,63,98,1918966188
65,20,17,Jits_Phase_5,2,5,56,103,1918995792
65,20,17,Jits_Phase_5,3,5,80,127,1919016324
65,20,17,Jits_Phase_5,0,5,80,127,1919436132
65,20,17,Jits_Phase_5,1,5,56,103,1919446476
65,20,17,Jits_Phase_5,2,5,63,98,1919455700
65,20,17,Jits_Phase_5,3,1,48,52,1919477396
65,20,17,Jits_Phase_5,0,5,56,103,1919935968
65,20,17,Jits_Phase_5,1,1,48,67,1919963124
65,20,17,Jits_Phase_5,2,5,80,127,1919975900
65,20,17,Jits_Phase_5,3,5,63,98,1920005648
65,20,17,Jits_Phase_5,0,5,63,98,1920445852
65,20,17,Jits_Phase_5,1,5,80,127,1920455972
65,20,17,Jits_Phase_5,2,1,48,60,1920465036
65,20,17,Jits_Phase_5,3,5,56,103,1920466680
65,20,17,Jits_Phase_5,0,5,56,103,1920936280
65,20,17,Jits_Phase_5,1,1,48,57,1920950736
65,20,17,Jits_Phase_5,2,5,63,98,1921005904
65,20,17,Jits_Phase_5,3,5,80,127,1921016396
65,20,17,Jits_Phase_5,0,5,80,127,1921446232
65,20,17,Jits_Phase_5,1,5,56,103,1921455604
65,20,17,Jits_Phase_5,2,1,48,50,1921474112
65,20,17,Jits_Phase_5,3,5,63,98,1921505748
65,20,17,Jits_Phase_5,0,1,48,60,1921956628
65,20,17,Jits_Phase_5,1,5,80,127,1921957816
65,20,17,Jits_Phase_5,2,5,56,103,1922015616
65,20,17,Jits_Phase_5,3,5,63,98,1922046412
65,20,17,Jits_Phase_5,0,5,56,103,1922455856
65,20,17,Jits_Phase_5,1,5,80,127,1922458996
65,20,17,Jits_Phase_5,2,5,63,98,1922495820
65,20,17,Jits_Phase_5,3,1,48,56,1922517368
65,20,17,Jits_Phase_5,0,1,48,59,1922979548
65,20,17,Jits_Phase_5,1,5,56,103,1922986544
65,20,17,Jits_Phase_5,2,5,63,98,1923016020
65,20,17,Jits_Phase_5,3,5,80,127,1923026216
65,20,17,Jits_Phase_5,0,5,63,98,1923496264
65,20,17,Jits_Phase_5,1,5,80,127,1923505636
65,20,17,Jits_Phase_5,2,1,48,52,1923506600
65,20,17,Jits_Phase_5,3,5,56,103,1923515700
65,20,17,Jits_Phase_5,0,5,80,127,1923945816
65,20,17,Jits_Phase_5,1,5,56,103,1923995940
65,20,17,Jits_Phase_5,2,5,63,98,1923999008
65,20,17,Jits_Phase_5,3,1,48,62,1924002052
65,20,17,Jits_Phase_5,0,5,56,103,1924476284
65,20,17,Jits_Phase_5,1,5,80,127,1924495844
65,20,17,Jits_Phase_5,2,5,63,98,1924506116
65,20,17,Jits_Phase_5,3,1,48,53,1924524452
65,20,17,Jits_Phase_5,0,5,63,98,1924955668
65,20,17,Jits_Phase_5,1,5,56,103,1924986092
65,20,17,Jits_Phase_5,2,5,80,127,1925005652
65,20,17,Jits_Phase_5,3,1,48,73,1925006620
65,20,17,Jits_Phase_5,0,5,56,103,1925465460
65,20,17,Jits_Phase_5,1,5,80,127,1925475580
65,20,17,Jits_Phase_5,2,1,48,57,1925511056
65,20,17,Jits_Phase_5,3,5,63,98,1925546520
65,20,17,Jits_Phase_5,0,5,63,98,1925956008
65,20,17,Jits_Phase_5,1,1,48,63,1925989396
65,20,17,Jits_Phase_5,2,5,80,127,1925995940
65,20,17,Jits_Phase_5,3,5,56,103,1926035952
65,20,17,Jits_Phase_5,0,5,56,103,1926465796
65,20,17,Jits_Phase_5,1,5,63,98,1926476144
65,20,17,Jits_Phase_5,2,5,80,127,1926495552
65,20,17,Jits_Phase_5,3,1,48,59,1926546692
65,20,17,Jits_Phase_5,0,1,48,67,1926977060
65,20,17,Jits_Phase_5,1,5,63,98,1927005780
65,20,17,Jits_Phase_5,2,5,80,127,1927025944
65,20,17,Jits_Phase_5,3,5,56,103,1927045652
65,20,17,Jits_Phase_5,0,5,56,103,1927445756
65,20,17,Jits_Phase_5,1,5,80,127,1927525848
65,20,17,Jits_Phase_5,2,1,48,43,1927535216
65,20,17,Jits_Phase_5,3,5,63,98,1927536860
65,20,17,Jits_Phase_5,0,1,48,71,1927954636
65,20,17,Jits_Phase_5,1,5,80,127,1927985448
65,20,17,Jits_Phase_5,2,5,63,98,1927995940
65,20,17,Jits_Phase_5,3,5,56,103,1928025392
65,20,17,Jits_Phase_5,0,5,63,98,1928446396
65,20,17,Jits_Phase_5,1,5,80,127,1928486484
65,20,17,Jits_Phase_5,2,1,48,50,1928507884
65,20,17,Jits_Phase_5,3,5,56,103,1928545592
65,20,17,Jits_Phase_5,0,5,63,98,1928956484
65,20,17,Jits_Phase_5,1,5,56,103,1929005564
65,20,17,Jits_Phase_5,2,1,48,70,1929010628
65,20,17,Jits_Phase_5,3,5,80,127,1929036204
65,20,17,Jits_Phase_5,0,5,80,127,1929455864
65,20,17,Jits_Phase_5,1,5,63,98,1929466432
65,20,17,Jits_Phase_5,2,1,48,44,1929487084
65,20,17,Jits_Phase_5,3,5,56,103,1929535880
65,20,17,Jits_Phase_5,0,1,48,68,1929976800
65,20,17,Jits_Phase_5,1,5,80,127,1930016012
65,20,17,Jits_Phase_5,2,5,56,103,1930026504
65,20,17,Jits_Phase_5,3,5,63,98,1930029496
65,20,17,Jits_Phase_5,0,5,56,103,1930456500
65,20,17,Jits_Phase_5,1,5,80,127,1930475840
65,20,17,Jits_Phase_5,2,5,63,98,1930486036
65,20,17,Jits_Phase_5,3,1,48,46,1930499712
65,20,17,Jits_Phase_5,0,1,48,65,1930937204
65,20,17,Jits_Phase_5,1,5,63,98,1930966376
65,20,17,Jits_Phase_5,2,5,56,103,1931006388
65,20,17,Jits_Phase_5,3,5,80,127,1931025872
65,20,17,Jits_Phase_5,0,1,48,48,1931460248
65,20,17,Jits_Phase_5,1,5,63,98,1931465976
65,20,17,Jits_Phase_5,2,5,56,103,1931525616
65,20,17,Jits_Phase_5,3,5,80,127,1931528608
65,20,17,Jits_Phase_5,0,5,56,103,1931925772
65,20,17,Jits_Phase_5,1,5,80,127,1931946452
65,20,17,Jits_Phase_5,2,5,63,98,1931986564
65,20,17,Jits_Phase_5,3,1,48,74,1931991480
65,20,17,Jits_Phase_5,0,1,48,55,1932430284
65,20,17,Jits_Phase_5,1,5,56,103,1932456464
65,20,17,Jits_Phase_5,2,5,63,98,1932475752
65,20,17,Jits_Phase_5,3,5,80,127,1932485948
65,20,17,Jits_Phase_5,0,5,80,127,1932926552
65,20,17,Jits_Phase_5,1,1,48,66,1932932368
65,20,17,Jits_Phase_5,2,5,56,103,1932955996
65,20,17,Jits_Phase_5,3,5,63,98,1932995884
65,20,17,Jits_Phase_5,0,1,48,58,1933424940
65,20,17,Jits_Phase_5,1,5,80,127,1933436272
65,20,17,Jits_Phase_5,2,5,56,103,1933455684
65,20,17,Jits_Phase_5,3,5,63,98,1933516096
65,20,17,Jits_Phase_5,0,5,56,103,1933946292
65,20,17,Jits_Phase_5,1,1,48,67,1933949336
65,20,17,Jits_Phase_5,2,5,80,127,1933965772
65,20,17,Jits_Phase_5,3,5,63,98,1934026108
65,20,17,Jits_Phase_5,0,5,80,127,1934425380
65,20,17,Jits_Phase_5,1,1,48,56,1934428576
65,20,17,Jits_Phase_5,2,5,56,103,1934435648
65,20,17,Jits_Phase_5,3,5,63,98,1934475508
65,20,17,Jits_Phase_5,0,5,63,98,1934926488
65,20,17,Jits_Phase_5,1,1,48,70,1934927752
65,20,17,Jits_Phase_5,2,5,56,103,1934966196
65,20,17,Jits_Phase_5,3,5,80,127,1934969332
65,20,17,Jits_Phase_5,0,1,48,59,1935437580
65,20,17,Jits_Phase_5,1,5,63,98,1935446372
65,20,17,Jits_Phase_5,2,5,80,127,1935486536
65,20,17,Jits_Phase_5,3,5,56,103,1935516136
65,20,17,Jits_Phase_5,0,5,56,103,1935935720
65,20,17,Jits_Phase_5,1,5,63,98,1935946064
65,20,17,Jits_Phase_5,2,5,80,127,1935975736
65,20,17,Jits_Phase_5,3,1,48,65,1936001176
65,20,17,Jits_Phase_5,0,5,80,127,1936426560
65,20,17,Jits_Phase_5,1,1,48,61,1936458452
65,20,17,Jits_Phase_5,2,5,63,98,1936495940
65,20,17,Jits_Phase_5,3,5,56,103,1936506208
65,20,17,Jits_Phase_5,0,5,63,98,1936926252
65,20,17,Jits_Phase_5,1,1,48,53,1936976796
65,20,17,Jits_Phase_5,2,5,56,103,1936995628
65,20,17,Jits_Phase_5,3,5,80,127,1937006120
65,20,17,Jits_Phase_5,0,5,63,98,1937406372
65,20,17,Jits_Phase_5,1,5,56,103,1937425712
65,20,17,Jits_Phase_5,2,5,80,127,1937465648
65,20,17,Jits_Phase_5,3,1,48,63,1937511760
65,20,17,Jits_Phase_5,0,5,56,103,1937885604
65,20,17,Jits_Phase_5,1,5,63,98,1937895724
65,20,17,Jits_Phase_5,2,1,48,51,1937910452
65,20,17,Jits_Phase_5,3,5,80,127,1937975656
65,20,17,Jits_Phase_5,0,1,48,65,1938367424
65,20,17,Jits_Phase_5,1,5,63,98,1938376144
65,20,17,Jits_Phase_5,2,5,56,103,1938405672
65,20,17,Jits_Phase_5,3,5,80,127,1938445608
65,20,17,Jits_Phase_5,0,1,48,54,1938854568
65,20,17,Jits_Phase_5,1,5,56,103,1938875892
65,20,17,Jits_Phase_5,2,5,63,98,1938915756
65,20,17,Jits_Phase_5,3,5,80,127,1938955604
65,20,17,Jits_Phase_5,0,1,48,58,1939373732
65,20,17,Jits_Phase_5,1,5,80,127,1939375396
65,20,17,Jits_Phase_5,2,5,56,103,1939456336
65,20,17,Jits_Phase_5,3,5,63,98,1939465708
65,20,17,Jits_Phase_5,0,1,48,49,1939915772
65,20,17,Jits_Phase_5,1,5,56,103,1939917212
65,20,17,Jits_Phase_5,2,5,63,98,1939920112
65,20,17,Jits_Phase_5,3,5,80,127,1939926492
65,20,17,Jits_Phase_5,0,1,48,63,1940425680
65,20,17,Jits_Phase_5,1,5,56,103,1940436416
65,20,17,Jits_Phase_5,2,5,63,98,1940455680
65,20,17,Jits_Phase_5,3,5,80,127,1940466248
65,20,17,Jits_Phase_5,0,5,63,98,1940896292
65,20,17,Jits_Phase_5,1,5,80,127,1940906416
65,20,17,Jits_Phase_5,2,5,56,103,1940925704
65,20,17,Jits_Phase_5,3,1,48,48,1940949420
65,20,17,Jits_Phase_5,0,1,48,64,1941376904
65,20,17,Jits_Phase_5,1,5,63,98,1941395884
65,20,17,Jits_Phase_5,2,5,56,103,1941475764
65,20,17,Jits_Phase_5,3,5,80,127,1941478828
65,20,17,Jits_Phase_5,0,5,63,98,1941895484
65,20,17,Jits_Phase_5,1,5,56,103,1941915940
65,20,17,Jits_Phase_5,2,1,48,60,1941933824
65,20,17,Jits_Phase_5,3,5,80,127,1941945632
65,20,17,Jits_Phase_5,0,5,56,103,1942396200
65,20,17,Jits_Phase_5,1,5,63,98,1942415616
65,20,17,Jits_Phase_5,2,5,80,127,1942426328
65,20,17,Jits_Phase_5,3,1,48,62,1942436720
65,20,17,Jits_Phase_5,0,1,48,53,1942917808
65,20,17,Jits_Phase_5,1,5,56,103,1942925556
65,20,17,Jits_Phase_5,2,5,63,98,1942956424
65,20,17,Jits_Phase_5,3,5,80,127,1942959936
65,20,17,Jits_Phase_5,0,5,56,103,1943376380
65,20,17,Jits_Phase_5,1,1,48,65,1943408416
65,20,17,Jits_Phase_5,2,5,63,98,1943416160
65,20,17,Jits_Phase_5,3,5,80,127,1943475428
65,20,17,Jits_Phase_5,0,1,48,46,1943816996
65,20,17,Jits_Phase_5,1,5,56,103,1943896292
65,20,17,Jits_Phase_5,2,5,63,98,1943905664
65,20,17,Jits_Phase_5,3,5,80,127,1943966260
65,20,17,Jits_Phase_5,0,5,56,103,1944396272
65,20,17,Jits_Phase_5,1,1,48,62,1944402012
65,20,17,Jits_Phase_5,2,5,80,127,1944415604
65,20,17,Jits_Phase_5,3,5,63,98,1944446396
65,20,17,Jits_Phase_5,0,5,80,127,1944895812
65,20,17,Jits_Phase_5,1,5,56,103,1944906380
65,20,17,Jits_Phase_5,2,5,63,98,1944925492
65,20,17,Jits_Phase_5,3,1,48,55,1944935132
65,20,17,Jits_Phase_5,0,5,63,98,1945395428
65,20,17,Jits_Phase_5,1,1,48,51,1945401688
65,20,17,Jits_Phase_5,2,5,80,127,1945475512
65,20,17,Jits_Phase_5,3,5,56,103,1945485632
65,20,17,Jits_Phase_5,0,1,48,48,1945980324
65,20,17,Jits_Phase_5,1,5,80,127,1945986424
65,20,17,Jits_Phase_5,2,5,56,103,1946005756
65,20,17,Jits_Phase_5,3,5,63,98,1946008752
65,20,17,Jits_Phase_5,0,5,63,98,1946475908
65,20,17,Jits_Phase_5,1,5,80,127,1946479196
65,20,17,Jits_Phase_5,2,1,48,57,1946497084
65,20,17,Jits_Phase_5,3,5,56,103,1946536360
65,20,17,Jits_Phase_5,0,5,56,103,1946956244
65,20,17,Jits_Phase_5,1,5,80,127,1946966516
65,20,17,Jits_Phase_5,2,5,63,98,1947006304
65,20,17,Jits_Phase_5,3,1,48,57,1947045756
65,20,17,Jits_Phase_5,0,5,56,103,1947436452
65,20,17,Jits_Phase_5,1,5,63,98,1947495944
65,20,17,Jits_Phase_5,2,5,80,127,1947506288
65,20,17,Jits_Phase_5,3,1,48,41,1947509784
65,20,17,Jits_Phase_5,0,1,48,53,1947931684
65,20,17,Jits_Phase_5,1,5,63,98,1947955540
65,20,17,Jits_Phase_5,2,5,80,127,1947995480
65,20,17,Jits_Phase_5,3,5,56,103,1948035328
65,20,17,Jits_Phase_5,0,5,56,103,1948456272
65,20,17,Jits_Phase_5,1,1,48,68,1948532208
65,20,17,Jits_Phase_5,2,5,63,98,1948536280
65,20,17,Jits_Phase_5,3,5,80,127,1948539572
65,20,17,Jits_Phase_5,0,1,48,58,1949009340
65,20,17,Jits_Phase_5,1,5,80,127,1949016408
65,20,17,Jits_Phase_5,2,5,56,103,1949046084
65,20,17,Jits_Phase_5,3,5,63,98,1949049372
65,20,17,Jits_Phase_5,0,5,56,103,1949476232
65,20,17,Jits_Phase_5,1,5,80,127,1949495868
65,20,17,Jits_Phase_5,2,1,48,55,1949526928
65,20,17,Jits_Phase_5,3,5,63,98,1949535720
65,20,17,Jits_Phase_5,0,5,80,127,1949955372
65,20,17,Jits_Phase_5,1,1,48,50,1949960512
65,20,17,Jits_Phase_5,2,5,63,98,1949975900
65,20,17,Jits_Phase_5,3,5,56,103,1950036288
65,20,17,Jits_Phase_5,0,5,63,98,1950466372
65,20,17,Jits_Phase_5,1,1,48,55,1950475372
65,20,17,Jits_Phase_5,2,5,56,103,1950476784
65,20,17,Jits_Phase_5,3,5,80,127,1950526008
65,20,17,Jits_Phase_5,0,5,56,103,1950956080
65,20,17,Jits_Phase_5,1,1,48,43,1950961820
65,20,17,Jits_Phase_5,2,5,63,98,1950976456
65,20,17,Jits_Phase_5,3,5,80,127,1950985604
65,20,17,Jits_Phase_5,0,1,48,56,1951426140
65,20,17,Jits_Phase_5,1,5,56,103,1951446236
65,20,17,Jits_Phase_5,2,5,63,98,1951449384
65,20,17,Jits_Phase_5,3,5,80,127,1951465952
65,20,17,Jits_Phase_5,0,1,48,47,1951888012
65,20,17,Jits_Phase_5,1,5,63,98,1951996308
65,20,17,Jits_Phase_5,2,5,56,103,1952026060
65,20,17,Jits_Phase_5,3,5,80,127,1952055804
65,20,17,Jits_Phase_5,0,1,48,54,1952454028
65,20,17,Jits_Phase_5,1,5,80,127,1952456144
65,20,17,Jits_Phase_5,2,5,56,103,1952547176
65,20,17,Jits_Phase_5,3,5,63,98,1952550076
65,20,17,Jits_Phase_5,0,5,56,103,1952955964
65,20,17,Jits_Phase_5,1,5,80,127,1952959104
65,20,17,Jits_Phase_5,2,5,63,98,1953035832
65,20,17,Jits_Phase_5,3,1,48,49,1953060668
65,20,17,Jits_Phase_5,0,1,48,56,1953451984
65,20,17,Jits_Phase_5,1,5,80,127,1953455616
65,20,17,Jits_Phase_5,2,5,63,98,1953516252
65,20,17,Jits_Phase_5,3,5,56,103,1953545556
65,20,17,Jits_Phase_5,0,5,63,98,1953956196
65,20,17,Jits_Phase_5,1,1,48,54,1953959240
65,20,17,Jits_Phase_5,2,5,80,127,1953965340
65,20,17,Jits_Phase_5,3,5,56,103,1954036164
65,20,17,Jits_Phase_5,0,5,56,103,1954516204
65,20,17,Jits_Phase_5,1,1,48,51,1954544136
65,20,17,Jits_Phase_5,2,5,80,127,1954545948
65,20,17,Jits_Phase_5,3,5,63,98,1954596220
65,20,17,Jits_Phase_5,0,1,48,44,1955060424
65,20,17,Jits_Phase_5,1,5,63,98,1955106236
65,20,17,Jits_Phase_5,2,5,56,103,1955136132
65,20,17,Jits_Phase_5,3,5,80,127,1955139124
65,20,17,Jits_Phase_5,0,5,63,98,1955605988
65,20,17,Jits_Phase_5,1,5,80,127,1955626300
65,20,17,Jits_Phase_5,2,5,56,103,1955635524
65,20,17,Jits_Phase_5,3,1,48,55,1955662084
65,20,17,Jits_Phase_5,0,5,56,103,1956115928
65,20,17,Jits_Phase_5,1,5,63,98,1956118920
65,20,17,Jits_Phase_5,2,5,80,127,1956136236
65,20,17,Jits_Phase_5,3,1,48,52,1956156816
65,20,17,Jits_Phase_5,0,5,56,103,1956566320
65,20,17,Jits_Phase_5,1,5,63,98,1956575916
65,20,17,Jits_Phase_5,2,5,80,127,1956606264
65,20,17,Jits_Phase_5,3,1,48,52,1956626388
65,20,17,Jits_Phase_5,0,1,48,45,1957026688
65,20,17,Jits_Phase_5,1,5,63,98,1957085628
65,20,17,Jits_Phase_5,2,5,80,127,1957106160
65,20,17,Jits_Phase_5,3,5,56,103,1957146232
65,20,17,Jits_Phase_5,0,1,48,56,1957593524
65,20,17,Jits_Phase_5,1,5,56,103,1957615944
65,20,17,Jits_Phase_5,2,5,63,98,1957656256
65,20,17,Jits_Phase_5,3,5,80,127,1957659468
65,20,17,Jits_Phase_5,0,5,80,127,1958056336
65,20,17,Jits_Phase_5,1,5,56,103,1958096224
65,20,17,Jits_Phase_5,2,1,48,60,1958102040
65,20,17,Jits_Phase_5,3,5,63,98,1958146344
65,20,17,Jits_Phase_5,0,1,48,52,1958571568
65,20,17,Jits_Phase_5,1,5,56,103,1958616428
65,20,17,Jits_Phase_5,2,5,80,127,1958625576
65,20,17,Jits_Phase_5,3,5,63,98,1958656372
65,20,17,Jits_Phase_5,0,5,56,103,1959065968
65,20,17,Jits_Phase_5,1,5,80,127,1959105932
65,20,17,Jits_Phase_5,2,1,48,50,1959141412
65,20,17,Jits_Phase_5,3,5,63,98,1959156124
65,20,17,Jits_Phase_5,0,5,56,103,1959565656
65,20,17,Jits_Phase_5,1,1,48,57,1959579264
65,20,17,Jits_Phase_5,2,5,80,127,1959605764
65,20,17,Jits_Phase_5,3,5,63,98,1959656112
65,20,17,Jits_Phase_5,0,5,80,127,1960056124
65,20,17,Jits_Phase_5,1,1,48,32,1960063952
65,20,17,Jits_Phase_5,2,5,63,98,1960135940
65,20,17,Jits_Phase_5,3,5,56,103,1960146284
65,20,17,Jits_Phase_5,0,5,80,127,1960606160
65,20,17,Jits_Phase_5,1,1,48,60,1960607128
65,20,17,Jits_Phase_5,2,5,56,103,1960616200
65,20,17,Jits_Phase_5,3,5,63,98,1960635860
65,20,17,Jits_Phase_5,0,5,63,98,1961076036
65,20,17,Jits_Phase_5,1,1,48,49,1961136320
65,20,17,Jits_Phase_5,2,5,56,103,1961145956
65,20,17,Jits_Phase_5,3,5,80,127,1961149020
65,20,17,Jits_Phase_5,0,5,80,127,1961565516
65,20,17,Jits_Phase_5,1,1,48,55,1961612976
65,20,17,Jits_Phase_5,2,5,63,98,1961615932
65,20,17,Jits_Phase_5,3,5,56,103,1961655892
65,20,17,Jits_Phase_5,0,5,63,98,1962106188
65,20,17,Jits_Phase_5,1,1,48,48,1962107600
65,20,17,Jits_Phase_5,2,5,56,103,1962146192
65,20,17,Jits_Phase_5,3,5,80,127,1962156536
65,20,17,Jits_Phase_5,0,1,48,58,1962594852
65,20,17,Jits_Phase_5,1,5,63,98,1962596344
65,20,17,Jits_Phase_5,2,5,56,103,1962616056
65,20,17,Jits_Phase_5,3,5,80,127,1962635768
65,20,17,Jits_Phase_5,0,5,80,127,1963055576
65,20,17,Jits_Phase_5,1,5,56,103,1963065696
65,20,17,Jits_Phase_5,2,5,63,98,1963086156
65,20,17,Jits_Phase_5,3,1,48,39,1963114372
65,20,17,Jits_Phase_5,0,1,48,60,1963555532
65,20,17,Jits_Phase_5,1,5,63,98,1963586120
65,20,17,Jits_Phase_5,2,5,56,103,1963625836
65,20,17,Jits_Phase_5,3,5,80,127,1963655568
65,20,17,Jits_Phase_5,0,5,56,103,1964045800
65,20,17,Jits_Phase_5,1,5,63,98,1964076300
65,20,17,Jits_Phase_5,2,1,48,54,1964090880
65,20,17,Jits_Phase_5,3,5,80,127,1964106116
65,20,17,Jits_Phase_5,0,5,80,127,1964465540
65,20,17,Jits_Phase_5,1,5,56,103,1964536132
65,20,17,Jits_Phase_5,2,5,63,98,1964539200
65,20,17,Jits_Phase_5,3,1,48,62,1964543588
65,20,17,Jits_Phase_5,0,5,56,103,1964975404
65,20,17,Jits_Phase_5,1,5,63,98,1965025928
65,20,17,Jits_Phase_5,2,1,48,49,1965028748
65,20,17,Jits_Phase_5,3,5,80,127,1965056272
65,20,17,Jits_Phase_5,0,5,63,98,1965455688
65,20,17,Jits_Phase_5,1,5,80,127,1965458904
65,20,17,Jits_Phase_5,2,1,48,56,1965471988
65,20,17,Jits_Phase_5,3,5,56,103,1965516168
65,20,17,Jits_Phase_5,0,1,48,44,1965961680
65,20,17,Jits_Phase_5,1,5,56,103,1965986064
65,20,17,Jits_Phase_5,2,5,80,127,1965996408
65,20,17,Jits_Phase_5,3,5,63,98,1966045656
65,20,17,Jits_Phase_5,0,1,48,56,1966374308
65,20,17,Jits_Phase_5,1,5,63,98,1966456064
65,20,17,Jits_Phase_5,2,5,56,103,1966466336
65,20,17,Jits_Phase_5,3,5,80,127,1966495996
65,20,17,Jits_Phase_5,0,1,48,47,1966941768
65,20,17,Jits_Phase_5,1,5,63,98,1966985700
65,20,17,Jits_Phase_5,2,5,80,127,1966989064
65,20,17,Jits_Phase_5,3,5,56,103,1967016272
65,20,17,Jits_Phase_5,0,1,48,59,1967473884
65,20,17,Jits_Phase_5,1,5,63,98,1967505892
65,20,17,Jits_Phase_5,2,5,56,103,1967526120
65,20,17,Jits_Phase_5,3,5,80,127,1967529340
65,20,17,Jits_Phase_5,0,1,48,50,1967955412
65,20,17,Jits_Phase_5,1,5,63,98,1967965476
65,20,17,Jits_Phase_5,2,5,56,103,1968036128
65,20,17,Jits_Phase_5,3,5,80,127,1968055772
65,20,17,Jits_Phase_5,0,5,56,103,1968456016
65,20,17,Jits_Phase_5,1,5,63,98,1968466212
65,20,17,Jits_Phase_5,2,1,48,54,1968485744
65,20,17,Jits_Phase_5,3,5,80,127,1968556332
65,20,17,Jits_Phase_5,0,5,56,103,1968976228
65,20,17,Jits_Phase_5,1,1,48,49,1968978820
65,20,17,Jits_Phase_5,2,5,80,127,1969016160
65,20,17,Jits_Phase_5,3,5,63,98,1969026356
65,20,17,Jits_Phase_5,0,1,48,53,1969473556
65,20,17,Jits_Phase_5,1,5,56,103,1969496516
65,20,17,Jits_Phase_5,2,5,63,98,1969526116
65,20,17,Jits_Phase_5,3,5,80,127,1969555716
65,20,17,Jits_Phase_5,0,1,48,46,1969942744
65,20,17,Jits_Phase_5,1,5,80,127,1969956188
65,20,17,Jits_Phase_5,2,5,63,98,1969996124
65,20,17,Jits_Phase_5,3,5,56,103,1970015688
65,20,17,Jits_Phase_5,0,1,48,54,1970465056
65,20,17,Jits_Phase_5,1,5,56,103,1970495868
65,20,17,Jits_Phase_5,2,5,80,127,1970516324
65,20,17,Jits_Phase_5,3,5,63,98,1970536036
65,20,17,Jits_Phase_5,0,5,63,98,1970965884
65,20,17,Jits_Phase_5,1,5,56,103,1970976076
65,20,17,Jits_Phase_5,2,1,48,46,1970991256
65,20,17,Jits_Phase_5,3,5,80,127,1971035708
65,20,17,Jits_Phase_5,0,5,56,103,1971465780
65,20,17,Jits_Phase_5,1,1,48,59,1971494824
65,20,17,Jits_Phase_5,2,5,63,98,1971536200
65,20,17,Jits_Phase_5,3,5,80,127,1971555684
65,20,17,Jits_Phase_5,0,5,56,103,1971966216
65,20,17,Jits_Phase_5,1,1,48,48,1971982668
65,20,17,Jits_Phase_5,2,5,63,98,1971996036
65,20,17,Jits_Phase_5,3,5,80,127,1972036044
65,20,17,Jits_Phase_5,0,5,63,98,1972455644
65,20,17,Jits_Phase_5,1,1,48,53,1972485812
65,20,17,Jits_Phase_5,2,5,56,103,1972505912
65,20,17,Jits_Phase_5,3,5,80,127,1972516256
65,20,17,Jits_Phase_5,0,1,48,50,1972983144
65,20,17,Jits_Phase_5,1,5,56,103,1972995616
65,20,17,Jits_Phase_5,2,5,63,98,1973045816
65,20,17,Jits_Phase_5,3,5,80,127,1973055864
65,20,17,Jits_Phase_5,0,5,56,103,1973465556
65,20,17,Jits_Phase_5,1,5,63,98,1973475976
65,20,17,Jits_Phase_5,2,1,48,57,1973495580
65,20,17,Jits_Phase_5,3,5,80,127,1973555832
65,20,17,Jits_Phase_5,0,9999,9999,9999,1889203272
65,20,17,Jits_Phase_5,1,9999,9999,9999,1889703996
65,20,17,Jits_Phase_5,2,9999,9999,9999,1890203764
65,20,17,Jits_Phase_5,3,9999,9999,9999,1890703448
65,20,17,Jits_Phase_5,4,9999,9999,9999,1891203124
65,20,17,Jits_Phase_5,5,9999,9999,9999,1891703928
65,20,17,Jits_Phase_5,6,9999,9999,9999,1892203600
65,20,17,Jits_Phase_5,7,9999,9999,9999,1892703340
65,20,17,Jits_Phase_5,8,9999,9999,9999,1893204056
65,20,17,Jits_Phase_5,9,9999,9999,9999,1893703744
65,20,17,Jits_Phase_5,10,9999,9999,9999,1894203508
65,20,17,Jits_Phase_5,11,9999,9999,9999,1894703200
65,20,17,Jits_Phase_5,12,9999,9999,9999,1895203912
65,20,17,Jits_Phase_5,13,9999,9999,9999,1895703660
65,20,17,Jits_Phase_5,14,9999,9999,9999,1896203332
65,20,17,Jits_Phase_5,15,9999,9999,9999,1896704068
65,20,17,Jits_Phase_5,16,9999,9999,9999,1897214076
65,20,17,Jits_Phase_5,17,9999,9999,9999,1897713752
65,20,17,Jits_Phase_5,18,9999,9999,9999,1898213500
65,20,17,Jits_Phase_5,19,9999,9999,9999,1898713180
65,20,17,Jits_Phase_5,20,9999,9999,9999,1899213916
65,20,17,Jits_Phase_5,21,9999,9999,9999,1899713608
65,20,17,Jits_Phase_5,22,9999,9999,9999,1900213344
65,20,17,Jits_Phase_5,23,9999,9999,9999,1900714084
65,20,17,Jits_Phase_5,24,9999,9999,9999,1901213776
65,20,17,Jits_Phase_5,25,9999,9999,9999,1901713528
65,20,17,Jits_Phase_5,26,9999,9999,9999,1902213208
65,20,17,Jits_Phase_5,27,9999,9999,9999,1902713916
65,20,17,Jits_Phase_5,28,9999,9999,9999,1903213684
65,20,17,Jits_Phase_5,29,9999,9999,9999,1903713372
65,20,17,Jits_Phase_5,30,9999,9999,9999,1904203848
65,20,17,Jits_Phase_5,31,9999,9999,9999,1904703596
65,20,17,Jits_Phase_5,32,9999,9999,9999,1905203272
65,20,17,Jits_Phase_5,33,9999,9999,9999,1905704008
65,20,17,Jits_Phase_5,34,9999,9999,9999,1906203772
65,20,17,Jits_Phase_5,35,9999,9999,9999,1906703452
65,20,17,Jits_Phase_5,36,9999,9999,9999,1907203188
65,20,17,Jits_Phase_5,37,9999,9999,9999,1907703912
65,20,17,Jits_Phase_5,38,9999,9999,9999,1908203600
65,20,17,Jits_Phase_5,39,9999,9999,9999,1908703352
65,20,17,Jits_Phase_5,40,9999,9999,9999,1909204080
65,20,17,Jits_Phase_5,41,9999,9999,9999,1909703764
65,20,17,Jits_Phase_5,42,9999,9999,9999,1910203452
65,20,17,Jits_Phase_5,43,9999,9999,9999,1910703172
65,20,17,Jits_Phase_5,44,9999,9999,9999,1911203936
65,20,17,Jits_Phase_5,45,9999,9999,9999,1911703620
65,20,17,Jits_Phase_5,46,9999,9999,9999,1912203368
65,20,17,Jits_Phase_5,47,9999,9999,9999,1912704100
65,20,17,Jits_Phase_5,48,9999,9999,9999,1913223256
65,20,17,Jits_Phase_5,49,9999,9999,9999,1913723972
65,20,17,Jits_Phase_5,50,9999,9999,9999,1914223716
65,20,17,Jits_Phase_5,51,9999,9999,9999,1914723404
65,20,17,Jits_Phase_5,52,9999,9999,9999,1915223096
65,20,17,Jits_Phase_5,53,9999,9999,9999,1915723836
65,20,17,Jits_Phase_5,54,9999,9999,9999,1916223588
65,20,17,Jits_Phase_5,55,9999,9999,9999,1916723280
65,20,17,Jits_Phase_5,56,9999,9999,9999,1917224020
65,20,17,Jits_Phase_5,57,9999,9999,9999,1917723704
65,20,17,Jits_Phase_5,58,9999,9999,9999,1918223456
65,20,17,Jits_Phase_5,59,9999,9999,9999,1918723132
65,20,17,Jits_Phase_5,60,9999,9999,9999,1919223876
65,20,17,Jits_Phase_5,61,9999,9999,9999,1919723620
65,20,17,Jits_Phase_5,62,9999,9999,9999,1920223312
65,20,17,Jits_Phase_5,63,9999,9999,9999,1920724052
65,20,17,Jits_Phase_5,64,9999,9999,9999,1921243204
65,20,17,Jits_Phase_5,65,9999,9999,9999,1921743936
65,20,17,Jits_Phase_5,66,9999,9999,9999,1922243700
65,20,17,Jits_Phase_5,67,9999,9999,9999,1922743368
65,20,17,Jits_Phase_5,68,9999,9999,9999,1923243108
65,20,17,Jits_Phase_5,69,9999,9999,9999,1923743824
65,20,17,Jits_Phase_5,70,9999,9999,9999,1924243560
65,20,17,Jits_Phase_5,71,9999,9999,9999,1924743252
65,20,17,Jits_Phase_5,72,9999,9999,9999,1925243988
65,20,17,Jits_Phase_5,73,9999,9999,9999,1925743740
65,20,17,Jits_Phase_5,74,9999,9999,9999,1926243428
65,20,17,Jits_Phase_5,75,9999,9999,9999,1926743100
65,20,17,Jits_Phase_5,76,9999,9999,9999,1927243840
65,20,17,Jits_Phase_5,77,9999,9999,9999,1927743592
65,20,17,Jits_Phase_5,78,9999,9999,9999,1928243280
65,20,17,Jits_Phase_5,79,9999,9999,9999,1928744004
65,20,17,Jits_Phase_5,80,9999,9999,9999,1929243756
65,20,17,Jits_Phase_5,81,9999,9999,9999,1929724028
65,20,17,Jits_Phase_5,82,9999,9999,9999,1930223720
65,20,17,Jits_Phase_5,83,9999,9999,9999,1930723396
65,20,17,Jits_Phase_5,84,9999,9999,9999,1931223160
65,20,17,Jits_Phase_5,85,9999,9999,9999,1931723880
65,20,17,Jits_Phase_5,86,9999,9999,9999,1932223552
65,20,17,Jits_Phase_5,87,9999,9999,9999,1932723288
65,20,17,Jits_Phase_5,88,9999,9999,9999,1933224012
65,20,17,Jits_Phase_5,89,9999,9999,9999,1933723772
65,20,17,Jits_Phase_5,90,9999,9999,9999,1934223448
65,20,17,Jits_Phase_5,91,9999,9999,9999,1934723136
65,20,17,Jits_Phase_5,92,9999,9999,9999,1935223860
65,20,17,Jits_Phase_5,93,9999,9999,9999,1935723612
65,20,17,Jits_Phase_5,94,9999,9999,9999,1936223356
65,20,17,Jits_Phase_5,95,9999,9999,9999,1936724024
65,20,17,Jits_Phase_5,96,9999,9999,9999,1937223788
65,20,17,Jits_Phase_5,97,9999,9999,9999,1937673340
65,20,17,Jits_Phase_5,98,9999,9999,9999,1938174068
65,20,17,Jits_Phase_5,99,9999,9999,9999,1938673756
65,20,17,Jits_Phase_5,100,9999,9999,9999,1939173432
65,20,17,Jits_Phase_5,101,9999,9999,9999,1939673184
65,20,17,Jits_Phase_5,102,9999,9999,9999,1940173896
65,20,17,Jits_Phase_5,103,9999,9999,9999,1940673652
65,20,17,Jits_Phase_5,104,9999,9999,9999,1941173324
65,20,17,Jits_Phase_5,105,9999,9999,9999,1941674088
65,20,17,Jits_Phase_5,106,9999,9999,9999,1942173760
65,20,17,Jits_Phase_5,107,9999,9999,9999,1942673508
65,20,17,Jits_Phase_5,108,9999,9999,9999,1943173192
65,20,17,Jits_Phase_5,109,9999,9999,9999,1943673912
65,20,17,Jits_Phase_5,110,9999,9999,9999,1944173676
65,20,17,Jits_Phase_5,111,9999,9999,9999,1944673352
65,20,17,Jits_Phase_5,112,9999,9999,9999,1945174088
65,20,17,Jits_Phase_5,113,9999,9999,9999,1945684044
65,20,17,Jits_Phase_5,114,9999,9999,9999,1946233908
65,20,17,Jits_Phase_5,115,9999,9999,9999,1946733652
65,20,17,Jits_Phase_5,116,9999,9999,9999,1947233400
65,20,17,Jits_Phase_5,117,9999,9999,9999,1947734136
65,20,17,Jits_Phase_5,118,9999,9999,9999,1948244088
65,20,17,Jits_Phase_5,119,9999,9999,9999,1948743760
65,20,17,Jits_Phase_5,120,9999,9999,9999,1949243448
65,20,17,Jits_Phase_5,121,9999,9999,9999,1949743176
65,20,17,Jits_Phase_5,122,9999,9999,9999,1950243916
65,20,17,Jits_Phase_5,123,9999,9999,9999,1950743676
65,20,17,Jits_Phase_5,124,9999,9999,9999,1951243348
65,20,17,Jits_Phase_5,125,9999,9999,9999,1951744068
65,20,17,Jits_Phase_5,126,9999,9999,9999,1952254012
65,20,17,Jits_Phase_5,127,9999,9999,9999,1952753752
65,20,17,Jits_Phase_5,128,9999,9999,9999,1953253492
65,20,17,Jits_Phase_5,129,9999,9999,9999,1953753180
65,20,17,Jits_Phase_5,130,9999,9999,9999,1954253904
65,20,17,Jits_Phase_5,131,9999,9999,9999,1954853964
65,20,17,Jits_Phase_5,132,9999,9999,9999,1955353724
65,20,17,Jits_Phase_5,133,9999,9999,9999,1955853404
65,20,17,Jits_Phase_5,134,9999,9999,9999,1956353148
65,20,17,Jits_Phase_5,135,9999,9999,9999,1956853884
65,20,17,Jits_Phase_5,136,9999,9999,9999,1957353572
65,20,17,Jits_Phase_5,137,9999,9999,9999,1957853244
65,20,17,Jits_Phase_5,138,9999,9999,9999,1958354044
65,20,17,Jits_Phase_5,139,9999,9999,9999,1958853736
65,20,17,Jits_Phase_5,140,9999,9999,9999,1959353412
65,20,17,Jits_Phase_5,141,9999,9999,9999,1959853152
65,20,17,Jits_Phase_5,142,9999,9999,9999,1960353884
65,20,17,Jits_Phase_5,143,9999,9999,9999,1960853576
65,20,17,Jits_Phase_5,144,9999,9999,9999,1961353332
65,20,17,Jits_Phase_5,145,9999,9999,9999,1961854056
65,20,17,Jits_Phase_5,146,9999,9999,9999,1962353752
65,20,17,Jits_Phase_5,147,9999,9999,9999,1962853432
65,20,17,Jits_Phase_5,148,9999,9999,9999,1963353176
65,20,17,Jits_Phase_5,149,9999,9999,9999,1963853920
65,20,17,Jits_Phase_5,150,9999,9999,9999,1964253292
65,20,17,Jits_Phase_5,151,9999,9999,9999,1964754016
65,20,17,Jits_Phase_5,152,9999,9999,9999,1965253708
65,20,17,Jits_Phase_5,153,9999,9999,9999,1965753460
65,20,17,Jits_Phase_5,154,9999,9999,9999,1966253112
65,20,17,Jits_Phase_5,155,9999,9999,9999,1966753900
65,20,17,Jits_Phase_5,156,9999,9999,9999,1967253564
65,20,17,Jits_Phase_5,157,9999,9999,9999,1967753304
65,20,17,Jits_Phase_5,158,9999,9999,9999,1968254028
65,20,17,Jits_Phase_5,159,9999,9999,9999,1968753772
65,20,17,Jits_Phase_5,160,9999,9999,9999,1969253460
65,20,17,Jits_Phase_5,161,9999,9999,9999,1969753152
65,20,17,Jits_Phase_5,162,9999,9999,9999,1970253948
65,20,17,Jits_Phase_5,163,9999,9999,9999,1970753628
65,20,17,Jits_Phase_5,164,9999,9999,9999,1971253372
65,20,17,Jits_Phase_5,165,9999,9999,9999,1971754096
65,20,17,Jits_Phase_5,166,9999,9999,9999,1972253784
65,20,17,Jits_Phase_5,167,9999,9999,9999,1972753476
65,20,17,Jits_Phase_5,168,9999,9999,9999,1973253228
65,20,17,Jits_Phase_5,169,9999,9999,9999,1973753948
65,21,3,ISIP_8,0,5,42,127,2044040644
65,21,3,ISIP_8,1,5,42,127,2044841296
65,21,3,ISIP_8,2,5,42,127,2045641228
65,21,3,ISIP_8,3,1,48,37,2045694988
65,21,3,ISIP_8,4,1,48,42,2046424244
65,21,3,ISIP_8,5,5,42,127,2046440728
65,21,3,ISIP_8,6,1,48,43,2047188444
65,21,3,ISIP_8,7,5,42,127,2047240536
65,21,3,ISIP_8,8,1,48,47,2048002764
65,21,3,ISIP_8,9,5,42,127,2048041316
65,21,3,ISIP_8,10,1,48,49,2048787468
65,21,3,ISIP_8,11,5,42,127,2048841276
65,21,3,ISIP_8,12,1,48,51,2049548452
65,21,3,ISIP_8,13,5,42,127,2049641672
65,21,3,ISIP_8,14,1,48,45,2050417076
65,21,3,ISIP_8,15,5,42,127,2050440592
65,21,3,ISIP_8,16,1,48,47,2051139464
65,21,3,ISIP_8,17,5,42,127,2051241360
65,21,3,ISIP_8,18,1,48,46,2051985348
65,21,3,ISIP_8,19,5,42,127,2052041204
65,21,3,ISIP_8,20,1,48,48,2052735196
65,21,3,ISIP_8,21,1,48,35,2052773616
65,21,3,ISIP_8,22,5,42,127,2052840992
65,21,3,ISIP_8,23,1,48,50,2053574644
65,21,3,ISIP_8,24,5,42,127,2053640428
65,21,3,ISIP_8,25,1,48,42,2054386948
65,21,3,ISIP_8,26,5,42,127,2054441280
65,21,3,ISIP_8,27,1,48,45,2055205600
65,21,3,ISIP_8,28,5,42,127,2055241016
65,21,3,ISIP_8,29,1,48,46,2055958136
65,21,3,ISIP_8,30,5,42,127,2056040748
65,21,3,ISIP_8,31,5,42,127,2056840488
65,21,3,ISIP_8,32,1,48,40,2056844952
65,21,3,ISIP_8,33,5,42,127,2057641268
65,21,3,ISIP_8,34,1,48,46,2057679268
65,21,3,ISIP_8,35,1,48,49,2058429168
65,21,3,ISIP_8,36,5,42,127,2058441020
65,21,3,ISIP_8,37,1,48,45,2059221200
65,21,3,ISIP_8,38,5,42,127,2059240828
65,21,3,ISIP_8,39,1,48,48,2060037164
65,21,3,ISIP_8,40,5,42,127,2060040412
65,21,3,ISIP_8,41,1,48,46,2060801368
65,21,3,ISIP_8,42,5,42,127,2060841340
65,21,3,ISIP_8,43,1,48,46,2061588308
65,21,3,ISIP_8,44,5,42,127,2061641076
65,21,3,ISIP_8,45,1,48,51,2062390956
65,21,3,ISIP_8,46,5,42,127,2062440956
65,21,3,ISIP_8,47,1,48,47,2063211712
65,21,3,ISIP_8,48,5,42,127,2063240616
65,21,3,ISIP_8,49,1,48,49,2063975240
65,21,3,ISIP_8,50,5,42,127,2064041320
65,21,3,ISIP_8,51,1,48,42,2064810800
65,21,3,ISIP_8,52,5,42,127,2064840932
65,21,3,ISIP_8,53,1,48,34,2065603608
65,21,3,ISIP_8,54,5,42,127,2065640888
65,21,3,ISIP_8,55,1,48,46,2066435352
65,21,3,ISIP_8,56,5,42,127,2066440696
65,21,3,ISIP_8,57,1,48,35,2067220420
65,21,3,ISIP_8,58,5,42,127,2067241400
65,21,3,ISIP_8,59,1,48,31,2067991064
65,21,3,ISIP_8,60,1,48,43,2068826548
65,21,3,ISIP_8,61,1,48,33,2069607504
65,21,3,ISIP_8,62,1,48,42,2070450048
65,21,3,ISIP_8,63,1,48,38,2071249184
65,21,3,ISIP_8,64,1,48,33,2072093796
65,21,3,ISIP_8,65,1,48,43,2072933764
65,21,3,ISIP_8,66,1,48,35,2073736408
65,21,3,ISIP_8,67,1,48,47,2074647612
65,21,3,ISIP_8,68,1,48,44,2075468956
65,21,3,ISIP_8,69,1,48,41,2076320220
65,21,3,ISIP_8,70,1,48,37,2077153560
65,21,3,ISIP_8,71,1,48,40,2077978644
65,21,3,ISIP_8,72,1,48,43,2078757800
65,21,3,ISIP_8,73,1,48,46,2079599344
65,21,3,ISIP_8,74,1,48,38,2080430216
65,21,3,ISIP_8,75,1,48,40,2081230996
65,21,3,ISIP_8,76,1,48,37,2082068120
65,21,3,ISIP_8,77,1,48,36,2082946240
65,21,3,ISIP_8,78,1,48,40,2083821164
65,21,3,ISIP_8,79,1,48,40,2084630544
65,21,3,ISIP_8,80,1,48,37,2085429600
65,21,3,ISIP_8,81,1,48,47,2086245488
65,21,3,ISIP_8,82,1,48,40,2087080516
65,21,3,ISIP_8,83,1,48,37,2087925972
65,21,3,ISIP_8,84,1,48,40,2088751656
65,21,3,ISIP_8,85,1,48,40,2089615112
65,21,3,ISIP_8,86,1,48,37,2090456244
65,21,3,ISIP_8,87,1,48,41,2091299576
65,21,3,ISIP_8,88,1,48,40,2092082184
65,21,3,ISIP_8,89,1,48,35,2093028760
65,21,3,ISIP_8,90,1,48,42,2093784808
65,21,3,ISIP_8,91,1,48,38,2094715212
65,21,3,ISIP_8,92,1,48,47,2095530344
65,21,3,ISIP_8,93,1,48,44,2096360692
65,21,3,ISIP_8,94,1,48,42,2097182484
65,21,3,ISIP_8,95,1,48,48,2098076312
65,21,3,ISIP_8,96,1,48,40,2098983920
65,21,3,ISIP_8,97,1,48,36,2099893704
65,21,3,ISIP_8,98,1,48,37,2100896972
65,21,3,ISIP_8,99,1,48,45,2101729184
65,21,3,ISIP_8,100,1,48,29,2102668416
65,21,3,ISIP_8,101,1,48,34,2103536684
65,21,3,ISIP_8,102,1,48,37,2104497400
65,21,3,ISIP_8,103,1,48,36,2105486816
65,21,3,ISIP_8,104,1,48,40,2106385080
65,21,3,ISIP_8,105,1,48,40,2107292908
65,21,3,ISIP_8,106,1,48,35,2108257960
65,21,3,ISIP_8,107,1,48,40,2109190260
65,21,3,ISIP_8,108,1,48,32,2110036284
65,21,3,ISIP_8,109,1,48,49,2111056920
65,21,3,ISIP_8,110,1,48,44,2111956448
65,21,3,ISIP_8,111,1,48,43,2112903472
65,21,3,ISIP_8,112,1,48,38,2113781088
65,21,3,ISIP_8,113,1,48,42,2114752052
65,21,3,ISIP_8,114,1,48,39,2115731676
65,21,3,ISIP_8,115,1,48,33,2116731732
65,21,3,ISIP_8,116,1,48,30,2117643848
65,21,3,ISIP_8,117,1,48,38,2118587664
65,21,3,ISIP_8,118,1,48,35,2119651076
65,21,3,ISIP_8,119,1,48,41,2120629524
65,21,3,ISIP_8,120,1,48,45,2121506220
65,21,3,ISIP_8,121,1,48,39,2122437920
65,21,3,ISIP_8,122,1,48,38,2123287324
65,21,3,ISIP_8,123,1,48,43,2124154672
65,21,3,ISIP_8,124,1,48,39,2125016212
65,21,3,ISIP_8,125,1,48,47,2125954540
65,21,3,ISIP_8,126,1,48,41,2126985792
65,21,3,ISIP_8,127,1,48,35,2127929900
65,21,3,ISIP_8,128,1,48,44,2128888612
65,21,3,ISIP_8,129,1,48,42,2129752748
65,21,3,ISIP_8,130,1,48,41,2130692596
65,21,3,ISIP_8,131,1,48,44,2131555976
65,21,3,ISIP_8,132,1,48,41,2132465456
65,21,3,ISIP_8,133,1,48,43,2133396232
65,21,3,ISIP_8,134,1,48,43,2134404156
65,21,3,ISIP_8,135,1,48,32,2135309756
65,21,3,ISIP_8,136,1,48,40,2136160276
65,21,3,ISIP_8,137,1,48,42,2137056068
65,21,3,ISIP_8,138,1,48,41,2138009132
65,21,3,ISIP_8,139,1,48,38,2138904404
65,21,3,ISIP_8,140,1,48,35,2139757616
65,21,3,ISIP_8,141,1,48,38,2140608756
65,21,3,ISIP_8,142,1,48,35,2141514244
65,21,3,ISIP_8,143,1,48,43,2142507440
65,21,3,ISIP_8,144,1,48,49,2143347260
65,21,3,ISIP_8,145,1,48,25,2143406948
65,21,3,ISIP_8,146,1,48,46,2144275268
65,21,3,ISIP_8,147,1,48,40,2145292908
65,21,3,ISIP_8,148,1,48,37,2146255868
65,21,3,ISIP_8,149,1,48,38,2147176848
65,21,3,ISIP_8,150,1,48,45,2148122100
65,21,3,ISIP_8,151,1,48,42,2149095308
65,21,3,ISIP_8,152,1,48,40,2150017628
65,21,3,ISIP_8,153,1,48,46,2150896672
65,21,3,ISIP_8,154,1,48,32,2152102512
65,21,3,ISIP_8,155,1,48,42,2152978932
65,21,3,ISIP_8,156,1,48,38,2153912504
65,21,3,ISIP_8,157,1,48,29,2154783660
65,21,3,ISIP_8,158,1,48,40,2155742588
65,21,3,ISIP_8,159,1,48,37,2156643140
65,21,3,ISIP_8,160,1,48,44,2157513056
65,21,3,ISIP_8,161,1,48,47,2158441004
65,21,3,ISIP_8,162,1,48,39,2159413544
65,21,3,ISIP_8,163,1,48,39,2160394828
65,21,3,ISIP_8,164,1,48,37,2161311244
65,21,3,ISIP_8,165,1,48,35,2162249148
65,21,3,ISIP_8,166,1,48,36,2163138284
65,21,3,ISIP_8,0,9999,9999,9999,2044038208
65,21,3,ISIP_8,1,9999,9999,9999,2044839008
65,21,3,ISIP_8,2,9999,9999,9999,2045638712
65,21,3,ISIP_8,3,9999,9999,9999,2046438516
65,21,3,ISIP_8,4,9999,9999,9999,2047238248
65,21,3,ISIP_8,5,9999,9999,9999,2048039028
65,21,3,ISIP_8,6,9999,9999,9999,2048838764
65,21,3,ISIP_8,7,9999,9999,9999,2049638496
65,21,3,ISIP_8,8,9999,9999,9999,2050438232
65,21,3,ISIP_8,9,9999,9999,9999,2051238996
65,21,3,ISIP_8,10,9999,9999,9999,2052038768
65,21,3,ISIP_8,11,9999,9999,9999,2052838480
65,21,3,ISIP_8,12,9999,9999,9999,2053638212
65,21,3,ISIP_8,13,9999,9999,9999,2054438992
65,21,3,ISIP_8,14,9999,9999,9999,2055238724
65,21,3,ISIP_8,15,9999,9999,9999,2056038460
65,21,3,ISIP_8,16,9999,9999,9999,2056838200
65,21,3,ISIP_8,17,9999,9999,9999,2057638980
65,21,3,ISIP_8,18,9999,9999,9999,2058438732
65,21,3,ISIP_8,19,9999,9999,9999,2059238464
65,21,3,ISIP_8,20,9999,9999,9999,2060038196
65,21,3,ISIP_8,21,9999,9999,9999,2060838976
65,21,3,ISIP_8,22,9999,9999,9999,2061638712
65,21,3,ISIP_8,23,9999,9999,9999,2062438520
65,21,3,ISIP_8,24,9999,9999,9999,2063238252
65,21,3,ISIP_8,25,9999,9999,9999,2064039032
65,21,3,ISIP_8,26,9999,9999,9999,2064838716
65,21,3,ISIP_8,27,9999,9999,9999,2065638448
65,21,3,ISIP_8,28,9999,9999,9999,2066438256
65,21,3,ISIP_8,29,9999,9999,9999,2067238964
65,21,3,ISIP_8,30,9999,9999,9999,2068038772
65,21,3,ISIP_8,31,9999,9999,9999,2068838500
65,21,3,ISIP_8,32,9999,9999,9999,2069638232
65,21,3,ISIP_8,33,9999,9999,9999,2070439012
65,21,3,ISIP_8,34,9999,9999,9999,2071238768
65,21,3,ISIP_8,35,9999,9999,9999,2072038496
65,21,3,ISIP_8,36,9999,9999,9999,2072838228
65,21,3,ISIP_8,37,9999,9999,9999,2073639004
65,21,3,ISIP_8,38,9999,9999,9999,2074438732
65,21,3,ISIP_8,39,9999,9999,9999,2075238460
65,21,3,ISIP_8,40,9999,9999,9999,2076038264
65,21,3,ISIP_8,41,9999,9999,9999,2076838964
65,21,3,ISIP_8,42,9999,9999,9999,2077638720
65,21,3,ISIP_8,43,9999,9999,9999,2078438448
65,21,3,ISIP_8,44,9999,9999,9999,2079238252
65,21,3,ISIP_8,45,9999,9999,9999,2080039028
65,21,3,ISIP_8,46,9999,9999,9999,2080838760
65,21,3,ISIP_8,47,9999,9999,9999,2081638488
65,21,3,ISIP_8,48,9999,9999,9999,2082438216
65,21,3,ISIP_8,49,9999,9999,9999,2083238996
65,21,3,ISIP_8,50,9999,9999,9999,2084038748
65,21,3,ISIP_8,51,9999,9999,9999,2084838476
65,21,3,ISIP_8,52,9999,9999,9999,2085638208
65,21,3,ISIP_8,53,9999,9999,9999,2086438984
65,21,3,ISIP_8,54,9999,9999,9999,2087238712
65,21,3,ISIP_8,55,9999,9999,9999,2088038516
65,21,3,ISIP_8,56,9999,9999,9999,2088838260
65,21,3,ISIP_8,57,9999,9999,9999,2089638964
65,21,3,ISIP_8,58,9999,9999,9999,2090438720
65,21,3,ISIP_8,59,9999,9999,9999,2091238452
65,21,3,ISIP_8,60,9999,9999,9999,2092038256
65,21,3,ISIP_8,61,9999,9999,9999,2092839032
65,21,3,ISIP_8,62,9999,9999,9999,2093638760
65,21,3,ISIP_8,63,9999,9999,9999,2094438488
65,21,3,ISIP_8,64,9999,9999,9999,2095238220
65,21,3,ISIP_8,65,9999,9999,9999,2096038992
65,21,3,ISIP_8,66,9999,9999,9999,2096838748
65,21,3,ISIP_8,67,9999,9999,9999,2097638476
65,21,3,ISIP_8,68,9999,9999,9999,2098438204
65,21,3,ISIP_8,69,9999,9999,9999,2099238980
65,21,3,ISIP_8,70,9999,9999,9999,2100038708
65,21,3,ISIP_8,71,9999,9999,9999,2100838460
65,21,3,ISIP_8,72,9999,9999,9999,2101638192
65,21,3,ISIP_8,73,9999,9999,9999,2102438964
65,21,3,ISIP_8,74,9999,9999,9999,2103238720
65,21,3,ISIP_8,75,9999,9999,9999,2104038448
65,21,3,ISIP_8,76,9999,9999,9999,2104838252
65,21,3,ISIP_8,77,9999,9999,9999,2105639028
65,21,3,ISIP_8,78,9999,9999,9999,2106438772
65,21,3,ISIP_8,79,9999,9999,9999,2107238508
65,21,3,ISIP_8,80,9999,9999,9999,2108038236
65,21,3,ISIP_8,81,9999,9999,9999,2108839012
65,21,3,ISIP_8,82,9999,9999,9999,2109638764
65,21,3,ISIP_8,83,9999,9999,9999,2110438496
65,21,3,ISIP_8,84,9999,9999,9999,2111238224
65,21,3,ISIP_8,85,9999,9999,9999,2112039012
65,21,3,ISIP_8,86,9999,9999,9999,2112838748
65,21,3,ISIP_8,87,9999,9999,9999,2113638480
65,21,3,ISIP_8,88,9999,9999,9999,2114438208
65,21,3,ISIP_8,89,9999,9999,9999,2115238984
65,21,3,ISIP_8,90,9999,9999,9999,2116038740
65,21,3,ISIP_8,91,9999,9999,9999,2116838468
65,21,3,ISIP_8,92,9999,9999,9999,2117638220
65,21,3,ISIP_8,93,9999,9999,9999,2118438996
65,21,3,ISIP_8,94,9999,9999,9999,2119238724
65,21,3,ISIP_8,95,9999,9999,9999,2120038452
65,21,3,ISIP_8,96,9999,9999,9999,2120838256
65,21,3,ISIP_8,97,9999,9999,9999,2121638960
65,21,3,ISIP_8,98,9999,9999,9999,2122438728
65,21,3,ISIP_8,99,9999,9999,9999,2123238464
65,21,3,ISIP_8,100,9999,9999,9999,2124038192
65,21,3,ISIP_8,101,9999,9999,9999,2124838968
65,21,3,ISIP_8,102,9999,9999,9999,2125638772
65,21,3,ISIP_8,103,9999,9999,9999,2126438500
65,21,3,ISIP_8,104,9999,9999,9999,2127238232
65,21,3,ISIP_8,105,9999,9999,9999,2128039004
65,21,3,ISIP_8,106,9999,9999,9999,2128838708
65,21,3,ISIP_8,107,9999,9999,9999,2129638512
65,21,3,ISIP_8,108,9999,9999,9999,2130438240
65,21,3,ISIP_8,109,9999,9999,9999,2131239016
65,21,3,ISIP_8,110,9999,9999,9999,2132038744
65,21,3,ISIP_8,111,9999,9999,9999,2132838472
65,21,3,ISIP_8,112,9999,9999,9999,2133638204
65,21,3,ISIP_8,113,9999,9999,9999,2134438996
65,21,3,ISIP_8,114,9999,9999,9999,2135238756
65,21,3,ISIP_8,115,9999,9999,9999,2136038484
65,21,3,ISIP_8,116,9999,9999,9999,2136838216
65,21,3,ISIP_8,117,9999,9999,9999,2137638992
65,21,3,ISIP_8,118,9999,9999,9999,2138438720
65,21,3,ISIP_8,119,9999,9999,9999,2139238448
65,21,3,ISIP_8,120,9999,9999,9999,2140038252
65,21,3,ISIP_8,121,9999,9999,9999,2140839028
65,21,3,ISIP_8,122,9999,9999,9999,2141638708
65,21,3,ISIP_8,123,9999,9999,9999,2142438456
65,21,3,ISIP_8,124,9999,9999,9999,2143238260
65,21,3,ISIP_8,125,9999,9999,9999,2144039012
65,21,3,ISIP_8,126,9999,9999,9999,2144838744
65,21,3,ISIP_8,127,9999,9999,9999,2145638472
65,21,3,ISIP_8,128,9999,9999,9999,2146438200
65,21,3,ISIP_8,129,9999,9999,9999,2147238996
65,21,3,ISIP_8,130,9999,9999,9999,2148038752
65,21,3,ISIP_8,131,9999,9999,9999,2148838484
65,21,3,ISIP_8,132,9999,9999,9999,2149638212
65,21,3,ISIP_8,133,9999,9999,9999,2150438988
65,21,3,ISIP_8,134,9999,9999,9999,2151238716
65,21,3,ISIP_8,135,9999,9999,9999,2152038468
65,21,3,ISIP_8,136,9999,9999,9999,2152838196
65,21,3,ISIP_8,137,9999,9999,9999,2153638972
65,21,3,ISIP_8,138,9999,9999,9999,2154438724
65,21,3,ISIP_8,139,9999,9999,9999,2155238456
65,21,3,ISIP_8,140,9999,9999,9999,2156038256
65,21,3,ISIP_8,141,9999,9999,9999,2156838960
65,21,3,ISIP_8,142,9999,9999,9999,2157638764
65,21,3,ISIP_8,143,9999,9999,9999,2158438516
65,21,3,ISIP_8,144,9999,9999,9999,2159238248
65,21,3,ISIP_8,145,9999,9999,9999,2160039020
65,21,3,ISIP_8,146,9999,9999,9999,2160838704
65,21,3,ISIP_8,147,9999,9999,9999,2161638508
65,21,3,ISIP_8,148,9999,9999,9999,2162438236
65,21,3,ISIP_8,149,9999,9999,9999,2163239012
65,22,5,ISIP_5,0,5,42,127,2217983216
65,22,5,ISIP_5,1,5,42,127,2218483156
65,22,5,ISIP_5,2,1,48,42,2218675088
65,22,5,ISIP_5,3,5,42,127,2218982776
65,22,5,ISIP_5,4,1,48,43,2219145440
65,22,5,ISIP_5,5,5,42,127,2219482620
65,22,5,ISIP_5,6,1,48,43,2219605416
65,22,5,ISIP_5,7,5,42,127,2219983136
65,22,5,ISIP_5,8,1,48,41,2220069956
65,22,5,ISIP_5,9,5,42,127,2220482980
65,22,5,ISIP_5,10,1,48,37,2220584236
65,22,5,ISIP_5,11,5,42,127,2220982752
65,22,5,ISIP_5,12,1,48,30,2220992828
65,22,5,ISIP_5,13,5,42,127,2221483496
65,22,5,ISIP_5,14,1,48,31,2221496260
65,22,5,ISIP_5,15,5,42,127,2221983088
65,22,5,ISIP_5,16,1,48,27,2222005904
65,22,5,ISIP_5,17,5,42,127,2222482932
65,22,5,ISIP_5,18,1,48,35,2222533800
65,22,5,ISIP_5,19,5,42,127,2222982776
65,22,5,ISIP_5,20,1,48,35,2223045012
65,22,5,ISIP_5,21,1,48,28,2223439720
65,22,5,ISIP_5,22,5,42,127,2223483212
65,22,5,ISIP_5,23,5,42,127,2223982916
65,22,5,ISIP_5,24,1,48,38,2224058836
65,22,5,ISIP_5,25,5,42,127,2224482832
65,22,5,ISIP_5,26,1,48,34,2224512952
65,22,5,ISIP_5,27,5,42,127,2224983280
65,22,5,ISIP_5,28,1,48,37,2225013848
65,22,5,ISIP_5,29,5,42,127,2225482972
65,22,5,ISIP_5,30,1,48,33,2225492300
65,22,5,ISIP_5,31,5,42,127,2225982816
65,22,5,ISIP_5,32,1,48,42,2225993636
65,22,5,ISIP_5,33,5,42,127,2226482732
65,22,5,ISIP_5,34,1,48,33,2226485852
65,22,5,ISIP_5,35,5,42,127,2226983400
65,22,5,ISIP_5,36,1,48,39,2227027060
65,22,5,ISIP_5,37,1,48,37,2227477292
65,22,5,ISIP_5,38,5,42,127,2227483088
65,22,5,ISIP_5,39,5,42,127,2227982864
65,22,5,ISIP_5,40,1,48,42,2227996452
65,22,5,ISIP_5,41,5,42,127,2228482412
65,22,5,ISIP_5,42,1,48,40,2228483676
65,22,5,ISIP_5,43,5,42,127,2228983152
65,22,5,ISIP_5,44,1,48,38,2229002200
65,22,5,ISIP_5,45,5,42,127,2229482848
65,22,5,ISIP_5,46,1,48,41,2229489104
65,22,5,ISIP_5,47,5,42,127,2229982840
65,22,5,ISIP_5,48,1,48,45,2229993740
65,22,5,ISIP_5,49,1,48,46,2230475388
65,22,5,ISIP_5,50,5,42,127,2230483204
65,22,5,ISIP_5,51,5,42,127,2230982980
65,22,5,ISIP_5,52,1,48,42,2231039800
65,22,5,ISIP_5,53,5,42,127,2231482824
65,22,5,ISIP_5,54,1,48,40,2231490956
65,22,5,ISIP_5,55,5,42,127,2231982592
65,22,5,ISIP_5,56,1,48,45,2232008372
65,22,5,ISIP_5,57,5,42,127,2232483088
65,22,5,ISIP_5,58,1,48,42,2232496628
65,22,5,ISIP_5,59,5,42,127,2232982856
65,22,5,ISIP_5,60,1,48,46,2232984568
65,22,5,ISIP_5,61,5,42,127,2233482848
65,22,5,ISIP_5,62,1,48,39,2233490152
65,22,5,ISIP_5,63,5,42,127,2233983440
65,22,5,ISIP_5,64,1,48,51,2234023236
65,22,5,ISIP_5,65,1,48,51,2234473972
65,22,5,ISIP_5,66,5,42,127,2234482980
65,22,5,ISIP_5,67,1,48,40,2234964836
65,22,5,ISIP_5,68,5,42,127,2234982820
65,22,5,ISIP_5,69,1,48,48,2235467744
65,22,5,ISIP_5,70,5,42,127,2235482664
65,22,5,ISIP_5,71,1,48,39,2235941112
65,22,5,ISIP_5,72,5,42,127,2235983332
65,22,5,ISIP_5,73,1,48,46,2236460184
65,22,5,ISIP_5,74,5,42,127,2236483028
65,22,5,ISIP_5,75,1,48,40,2236938336
65,22,5,ISIP_5,76,5,42,127,2236982724
65,22,5,ISIP_5,77,1,48,43,2237450372
65,22,5,ISIP_5,78,5,42,127,2237483464
65,22,5,ISIP_5,79,1,48,40,2237974076
65,22,5,ISIP_5,80,1,48,41,2238487992
65,22,5,ISIP_5,81,1,48,40,2238961940
65,22,5,ISIP_5,82,1,48,35,2239456544
65,22,5,ISIP_5,83,1,48,40,2239978896
65,22,5,ISIP_5,84,1,48,39,2240495580
65,22,5,ISIP_5,85,1,48,36,2241010676
65,22,5,ISIP_5,86,1,48,45,2241502592
65,22,5,ISIP_5,87,1,48,35,2242019488
65,22,5,ISIP_5,88,1,48,45,2242501148
65,22,5,ISIP_5,89,1,48,34,2243016848
65,22,5,ISIP_5,90,1,48,36,2243520348
65,22,5,ISIP_5,91,1,48,40,2244044056
65,22,5,ISIP_5,92,1,48,41,2244532072
65,22,5,ISIP_5,93,1,48,42,2245057420
65,22,5,ISIP_5,94,1,48,40,2245564744
65,22,5,ISIP_5,95,1,48,40,2246063684
65,22,5,ISIP_5,96,1,48,40,2246571080
65,22,5,ISIP_5,97,1,48,37,2247069244
65,22,5,ISIP_5,98,1,48,46,2247555700
65,22,5,ISIP_5,99,1,48,44,2248088752
65,22,5,ISIP_5,100,1,48,44,2248605340
65,22,5,ISIP_5,101,1,48,42,2249099196
65,22,5,ISIP_5,102,1,48,40,2249592828
65,22,5,ISIP_5,103,1,48,35,2250125280
65,22,5,ISIP_5,104,1,48,39,2250655192
65,22,5,ISIP_5,105,1,48,40,2251170288
65,22,5,ISIP_5,106,1,48,37,2251632208
65,22,5,ISIP_5,107,1,48,41,2252164660
65,22,5,ISIP_5,108,1,48,41,2252668236
65,22,5,ISIP_5,109,1,48,38,2253183784
65,22,5,ISIP_5,110,1,48,44,2253663052
65,22,5,ISIP_5,111,1,48,40,2254169848
65,22,5,ISIP_5,112,1,48,39,2254698484
65,22,5,ISIP_5,113,1,48,42,2255210892
65,22,5,ISIP_5,114,1,48,37,2255720304
65,22,5,ISIP_5,115,1,48,41,2256268016
65,22,5,ISIP_5,116,1,48,39,2256829064
65,22,5,ISIP_5,117,1,48,40,2257311676
65,22,5,ISIP_5,118,1,48,38,2257835480
65,22,5,ISIP_5,119,1,48,41,2258344372
65,22,5,ISIP_5,120,1,48,43,2258863660
65,22,5,ISIP_5,121,1,48,45,2259400592
65,22,5,ISIP_5,122,1,48,46,2259904104
65,22,5,ISIP_5,123,1,48,44,2260442392
65,22,5,ISIP_5,124,1,48,37,2260946492
65,22,5,ISIP_5,125,1,48,45,2261494892
65,22,5,ISIP_5,126,1,48,44,2261981272
65,22,5,ISIP_5,127,1,48,43,2262514696
65,22,5,ISIP_5,128,1,48,41,2263067040
65,22,5,ISIP_5,129,1,48,44,2263581688
65,22,5,ISIP_5,130,1,48,38,2264065376
65,22,5,ISIP_5,131,1,48,44,2264551456
65,22,5,ISIP_5,132,1,48,42,2265096020
65,22,5,ISIP_5,133,1,48,40,2265657792
65,22,5,ISIP_5,134,1,48,44,2266158752
65,22,5,ISIP_5,135,1,48,43,2266693004
65,22,5,ISIP_5,136,1,48,36,2267249240
65,22,5,ISIP_5,137,1,48,41,2267806000
65,22,5,ISIP_5,138,1,48,36,2268354860
65,22,5,ISIP_5,139,1,48,42,2268889552
65,22,5,ISIP_5,140,1,48,38,2269414456
65,22,5,ISIP_5,141,1,48,41,2269974356
65,22,5,ISIP_5,142,1,48,42,2270503160
65,22,5,ISIP_5,143,1,48,36,2271019228
65,22,5,ISIP_5,144,1,48,42,2271570452
65,22,5,ISIP_5,145,1,48,45,2272181396
65,22,5,ISIP_5,146,1,48,42,2272711976
65,22,5,ISIP_5,147,1,48,43,2273223112
65,22,5,ISIP_5,148,1,48,46,2273744420
65,22,5,ISIP_5,149,1,48,46,2274309480
65,22,5,ISIP_5,150,1,48,43,2274776856
65,22,5,ISIP_5,151,1,48,42,2275280068
65,22,5,ISIP_5,152,1,48,47,2275797856
65,22,5,ISIP_5,153,1,48,39,2276330980
65,22,5,ISIP_5,154,1,48,48,2276825364
65,22,5,ISIP_5,155,1,48,36,2277315708
65,22,5,ISIP_5,156,1,48,42,2277803948
65,22,5,ISIP_5,157,1,48,37,2278307752
65,22,5,ISIP_5,158,1,48,48,2278785952
65,22,5,ISIP_5,159,1,48,43,2279275172
65,22,5,ISIP_5,160,1,48,47,2279766932
65,22,5,ISIP_5,161,1,48,45,2280241792
65,22,5,ISIP_5,162,1,48,40,2280654492
65,22,5,ISIP_5,163,1,48,35,2281101580
65,22,5,ISIP_5,164,1,48,40,2281639216
65,22,5,ISIP_5,165,1,48,46,2282184532
65,22,5,ISIP_5,166,1,48,42,2282723116
65,22,5,ISIP_5,167,1,48,44,2283210168
65,22,5,ISIP_5,168,1,48,41,2283783464
65,22,5,ISIP_5,169,1,48,39,2284315016
65,22,5,ISIP_5,170,1,48,40,2284832284
65,22,5,ISIP_5,171,1,48,36,2285360772
65,22,5,ISIP_5,172,1,48,40,2285922472
65,22,5,ISIP_5,173,1,48,40,2286447744
65,22,5,ISIP_5,174,1,48,40,2286988808
65,22,5,ISIP_5,175,1,48,29,2287502332
65,22,5,ISIP_5,176,1,48,43,2288068544
65,22,5,ISIP_5,177,1,48,44,2288571904
65,22,5,ISIP_5,178,1,48,38,2289131132
65,22,5,ISIP_5,179,1,48,43,2289627004
65,22,5,ISIP_5,180,1,48,42,2290207408
65,22,5,ISIP_5,181,1,48,41,2290726768
65,22,5,ISIP_5,182,1,48,40,2291275832
65,22,5,ISIP_5,183,1,48,35,2291777164
65,22,5,ISIP_5,184,1,48,42,2292364744
65,22,5,ISIP_5,185,1,48,43,2292878348
65,22,5,ISIP_5,186,1,48,46,2293421296
65,22,5,ISIP_5,187,1,48,39,2293951424
65,22,5,ISIP_5,188,1,48,38,2294491448
65,22,5,ISIP_5,189,1,48,40,2295033924
65,22,5,ISIP_5,190,1,48,39,2295549096
65,22,5,ISIP_5,191,1,48,41,2296062252
65,22,5,ISIP_5,192,1,48,37,2296626416
65,22,5,ISIP_5,193,1,48,42,2297168812
65,22,5,ISIP_5,194,1,48,40,2297675612
65,22,5,ISIP_5,0,9999,9999,9999,2217981004
65,22,5,ISIP_5,1,9999,9999,9999,2218480720
65,22,5,ISIP_5,2,9999,9999,9999,2218980412
65,22,5,ISIP_5,3,9999,9999,9999,2219480180
65,22,5,ISIP_5,4,9999,9999,9999,2219980848
65,22,5,ISIP_5,5,9999,9999,9999,2220480620
65,22,5,ISIP_5,6,9999,9999,9999,2220980316
65,22,5,ISIP_5,7,9999,9999,9999,2221481056
65,22,5,ISIP_5,8,9999,9999,9999,2221980728
65,22,5,ISIP_5,9,9999,9999,9999,2222480496
65,22,5,ISIP_5,10,9999,9999,9999,2222980192
65,22,5,ISIP_5,11,9999,9999,9999,2223480928
65,22,5,ISIP_5,12,9999,9999,9999,2223980628
65,22,5,ISIP_5,13,9999,9999,9999,2224480320
65,22,5,ISIP_5,14,9999,9999,9999,2224981064
65,22,5,ISIP_5,15,9999,9999,9999,2225480756
65,22,5,ISIP_5,16,9999,9999,9999,2225980528
65,22,5,ISIP_5,17,9999,9999,9999,2226480220
65,22,5,ISIP_5,18,9999,9999,9999,2226980960
65,22,5,ISIP_5,19,9999,9999,9999,2227480652
65,22,5,ISIP_5,20,9999,9999,9999,2227980352
65,22,5,ISIP_5,21,9999,9999,9999,2228480124
65,22,5,ISIP_5,22,9999,9999,9999,2228980788
65,22,5,ISIP_5,23,9999,9999,9999,2229480556
65,22,5,ISIP_5,24,9999,9999,9999,2229980252
65,22,5,ISIP_5,25,9999,9999,9999,2230480988
65,22,5,ISIP_5,26,9999,9999,9999,2230980692
65,22,5,ISIP_5,27,9999,9999,9999,2231480388
65,22,5,ISIP_5,28,9999,9999,9999,2231980080
65,22,5,ISIP_5,29,9999,9999,9999,2232480872
65,22,5,ISIP_5,30,9999,9999,9999,2232980568
65,22,5,ISIP_5,31,9999,9999,9999,2233480264
65,22,5,ISIP_5,32,9999,9999,9999,2233981004
65,22,5,ISIP_5,33,9999,9999,9999,2234480692
65,22,5,ISIP_5,34,9999,9999,9999,2234980460
65,22,5,ISIP_5,35,9999,9999,9999,2235480156
65,22,5,ISIP_5,36,9999,9999,9999,2235980896
65,22,5,ISIP_5,37,9999,9999,9999,2236480592
65,22,5,ISIP_5,38,9999,9999,9999,2236980288
65,22,5,ISIP_5,39,9999,9999,9999,2237481028
65,22,5,ISIP_5,40,9999,9999,9999,2237980724
65,22,5,ISIP_5,41,9999,9999,9999,2238480496
65,22,5,ISIP_5,42,9999,9999,9999,2238980180
65,22,5,ISIP_5,43,9999,9999,9999,2239480916
65,22,5,ISIP_5,44,9999,9999,9999,2239980608
65,22,5,ISIP_5,45,9999,9999,9999,2240480304
65,22,5,ISIP_5,46,9999,9999,9999,2240981044
65,22,5,ISIP_5,47,9999,9999,9999,2241480808
65,22,5,ISIP_5,48,9999,9999,9999,2241980500
65,22,5,ISIP_5,49,9999,9999,9999,2242480192
65,22,5,ISIP_5,50,9999,9999,9999,2242980928
65,22,5,ISIP_5,51,9999,9999,9999,2243480668
65,22,5,ISIP_5,52,9999,9999,9999,2243980360
65,22,5,ISIP_5,53,9999,9999,9999,2244480048
65,22,5,ISIP_5,54,9999,9999,9999,2244980788
65,22,5,ISIP_5,55,9999,9999,9999,2245480552
65,22,5,ISIP_5,56,9999,9999,9999,2245980244
65,22,5,ISIP_5,57,9999,9999,9999,2246480980
65,22,5,ISIP_5,58,9999,9999,9999,2246980668
65,22,5,ISIP_5,59,9999,9999,9999,2247480436
65,22,5,ISIP_5,60,9999,9999,9999,2247980124
65,22,5,ISIP_5,61,9999,9999,9999,2248480864
65,22,5,ISIP_5,62,9999,9999,9999,2248980552
65,22,5,ISIP_5,63,9999,9999,9999,2249480244
65,22,5,ISIP_5,64,9999,9999,9999,2249980980
65,22,5,ISIP_5,65,9999,9999,9999,2250480744
65,22,5,ISIP_5,66,9999,9999,9999,2250980436
65,22,5,ISIP_5,67,9999,9999,9999,2251480128
65,22,5,ISIP_5,68,9999,9999,9999,2251980864
65,22,5,ISIP_5,69,9999,9999,9999,2252480628
65,22,5,ISIP_5,70,9999,9999,9999,2252980320
65,22,5,ISIP_5,71,9999,9999,9999,2253481056
65,22,5,ISIP_5,72,9999,9999,9999,2253980796
65,22,5,ISIP_5,73,9999,9999,9999,2254480488
65,22,5,ISIP_5,74,9999,9999,9999,2254980176
65,22,5,ISIP_5,75,9999,9999,9999,2255480912
65,22,5,ISIP_5,76,9999,9999,9999,2255980604
65,22,5,ISIP_5,77,9999,9999,9999,2256480368
65,22,5,ISIP_5,78,9999,9999,9999,2256981104
65,22,5,ISIP_5,79,9999,9999,9999,2257480796
65,22,5,ISIP_5,80,9999,9999,9999,2257980488
65,22,5,ISIP_5,81,9999,9999,9999,2258480180
65,22,5,ISIP_5,82,9999,9999,9999,2258980916
65,22,5,ISIP_5,83,9999,9999,9999,2259480696
65,22,5,ISIP_5,84,9999,9999,9999,2259980388
65,22,5,ISIP_5,85,9999,9999,9999,2260480080
65,22,5,ISIP_5,86,9999,9999,9999,2260980816
65,22,5,ISIP_5,87,9999,9999,9999,2261480512
65,22,5,ISIP_5,88,9999,9999,9999,2261980280
65,22,5,ISIP_5,89,9999,9999,9999,2262481016
65,22,5,ISIP_5,90,9999,9999,9999,2262980708
65,22,5,ISIP_5,91,9999,9999,9999,2263480400
65,22,5,ISIP_5,92,9999,9999,9999,2263980088
65,22,5,ISIP_5,93,9999,9999,9999,2264480876
65,22,5,ISIP_5,94,9999,9999,9999,2264980568
65,22,5,ISIP_5,95,9999,9999,9999,2265480256
65,22,5,ISIP_5,96,9999,9999,9999,2265980996
65,22,5,ISIP_5,97,9999,9999,9999,2266480760
65,22,5,ISIP_5,98,9999,9999,9999,2266980448
65,22,5,ISIP_5,99,9999,9999,9999,2267480140
65,22,5,ISIP_5,100,9999,9999,9999,2267980876
65,22,5,ISIP_5,101,9999,9999,9999,2268480568
65,22,5,ISIP_5,102,9999,9999,9999,2268980276
65,22,5,ISIP_5,103,9999,9999,9999,2269481016
65,22,5,ISIP_5,104,9999,9999,9999,2269980780
65,22,5,ISIP_5,105,9999,9999,9999,2270480476
65,22,5,ISIP_5,106,9999,9999,9999,2270980168
65,22,5,ISIP_5,107,9999,9999,9999,2271480904
65,22,5,ISIP_5,108,9999,9999,9999,2271980596
65,22,5,ISIP_5,109,9999,9999,9999,2272480360
65,22,5,ISIP_5,110,9999,9999,9999,2272981100
65,22,5,ISIP_5,111,9999,9999,9999,2273480788
65,22,5,ISIP_5,112,9999,9999,9999,2273980480
65,22,5,ISIP_5,113,9999,9999,9999,2274480244
65,22,5,ISIP_5,114,9999,9999,9999,2274980980
65,22,5,ISIP_5,115,9999,9999,9999,2275480648
65,22,5,ISIP_5,116,9999,9999,9999,2275980340
65,22,5,ISIP_5,117,9999,9999,9999,2276480104
65,22,5,ISIP_5,118,9999,9999,9999,2276980844
65,22,5,ISIP_5,119,9999,9999,9999,2277480532
65,22,5,ISIP_5,120,9999,9999,9999,2277980224
65,22,5,ISIP_5,121,9999,9999,9999,2278480964
65,22,5,ISIP_5,122,9999,9999,9999,2278980728
65,22,5,ISIP_5,123,9999,9999,9999,2279480420
65,22,5,ISIP_5,124,9999,9999,9999,2279980108
65,22,5,ISIP_5,125,9999,9999,9999,2280480844
65,22,5,ISIP_5,126,9999,9999,9999,2280980536
65,22,5,ISIP_5,127,9999,9999,9999,2281480304
65,22,5,ISIP_5,128,9999,9999,9999,2281981040
65,22,5,ISIP_5,129,9999,9999,9999,2282480732
65,22,5,ISIP_5,130,9999,9999,9999,2282980420
65,22,5,ISIP_5,131,9999,9999,9999,2283480116
65,22,5,ISIP_5,132,9999,9999,9999,2283980852
65,22,5,ISIP_5,133,9999,9999,9999,2284480620
65,22,5,ISIP_5,134,9999,9999,9999,2284980312
65,22,5,ISIP_5,135,9999,9999,9999,2285481048
65,22,5,ISIP_5,136,9999,9999,9999,2285980728
65,22,5,ISIP_5,137,9999,9999,9999,2286480496
65,22,5,ISIP_5,138,9999,9999,9999,2286980192
65,22,5,ISIP_5,139,9999,9999,9999,2287480928
65,22,5,ISIP_5,140,9999,9999,9999,2287980616
65,22,5,ISIP_5,141,9999,9999,9999,2288480308
65,22,5,ISIP_5,142,9999,9999,9999,2288981048
65,22,5,ISIP_5,143,9999,9999,9999,2289480812
65,22,5,ISIP_5,144,9999,9999,9999,2289980504
65,22,5,ISIP_5,145,9999,9999,9999,2290480196
65,22,5,ISIP_5,146,9999,9999,9999,2290980932
65,22,5,ISIP_5,147,9999,9999,9999,2291480624
65,22,5,ISIP_5,148,9999,9999,9999,2291980388
65,22,5,ISIP_5,149,9999,9999,9999,2292480080
65,22,5,ISIP_5,150,9999,9999,9999,2292980816
65,22,5,ISIP_5,151,9999,9999,9999,2293480524
65,22,5,ISIP_5,152,9999,9999,9999,2293980216
65,22,5,ISIP_5,153,9999,9999,9999,2294480960
65,22,5,ISIP_5,154,9999,9999,9999,2294980724
65,22,5,ISIP_5,155,9999,9999,9999,2295480416
65,22,5,ISIP_5,156,9999,9999,9999,2295980104
65,22,5,ISIP_5,157,9999,9999,9999,2296480844
65,22,5,ISIP_5,158,9999,9999,9999,2296980584
65,22,5,ISIP_5,159,9999,9999,9999,2297480272
65,23,11,Pattern_Practice,0,5,42,127,2406612384
65,23,11,Pattern_Practice,1,5,42,127,2407112248
65,23,11,Pattern_Practice,2,5,42,127,2407611668
65,23,11,Pattern_Practice,3,5,42,127,2408111460
65,23,11,Pattern_Practice,4,5,42,127,2408612148
65,23,11,Pattern_Practice,5,1,48,50,2408628128
65,23,11,Pattern_Practice,6,1,48,42,2408800140
65,23,11,Pattern_Practice,7,1,48,70,2409110428
65,23,11,Pattern_Practice,8,5,42,127,2409112012
65,23,11,Pattern_Practice,9,5,42,127,2409611564
65,23,11,Pattern_Practice,10,1,38,27,2409650836
65,23,11,Pattern_Practice,11,1,38,36,2409720376
65,23,11,Pattern_Practice,12,1,38,64,2410090780
65,23,11,Pattern_Practice,13,5,42,127,2410112352
65,23,11,Pattern_Practice,14,1,38,40,2410123464
65,23,11,Pattern_Practice,15,1,38,51,2410203944
65,23,11,Pattern_Practice,16,5,42,127,2410612160
65,23,11,Pattern_Practice,17,1,48,50,2410631132
65,23,11,Pattern_Practice,18,5,42,127,2411111780
65,23,11,Pattern_Practice,19,1,38,78,2411122228
65,23,11,Pattern_Practice,20,1,38,51,2411153696
65,23,11,Pattern_Practice,21,5,42,127,2411611524
65,23,11,Pattern_Practice,22,1,48,50,2411652936
65,23,11,Pattern_Practice,23,1,48,46,2411874568
65,23,11,Pattern_Practice,24,5,42,127,2412112320
65,23,11,Pattern_Practice,25,1,38,50,2412185900
65,23,11,Pattern_Practice,26,5,42,127,2412612088
65,23,11,Pattern_Practice,27,1,48,53,2412650516
65,23,11,Pattern_Practice,28,5,42,127,2413111636
65,23,11,Pattern_Practice,29,1,38,83,2413115052
65,23,11,Pattern_Practice,30,1,38,55,2413148172
65,23,11,Pattern_Practice,31,5,42,127,2413612504
65,23,11,Pattern_Practice,32,1,48,49,2413643152
65,23,11,Pattern_Practice,33,1,48,50,2413849672
65,23,11,Pattern_Practice,34,5,42,127,2414112176
65,23,11,Pattern_Practice,35,1,38,63,2414172220
65,23,11,Pattern_Practice,36,1,38,39,2414206456
65,23,11,Pattern_Practice,37,5,42,127,2414611928
65,23,11,Pattern_Practice,38,1,48,60,2414614604
65,23,11,Pattern_Practice,39,5,42,127,2415111400
65,23,11,Pattern_Practice,40,1,48,73,2415128128
65,23,11,Pattern_Practice,41,5,42,127,2415612216
65,23,11,Pattern_Practice,42,1,48,67,2415655724
65,23,11,Pattern_Practice,43,1,48,52,2415888572
65,23,11,Pattern_Practice,44,5,42,127,2416112036
65,23,11,Pattern_Practice,45,1,48,59,2416156296
65,23,11,Pattern_Practice,46,5,42,127,2416611808
65,23,11,Pattern_Practice,47,1,38,88,2416645368
65,23,11,Pattern_Practice,48,1,38,53,2416676756
65,23,11,Pattern_Practice,49,5,42,127,2417112304
65,23,11,Pattern_Practice,50,1,38,58,2417140928
65,23,11,Pattern_Practice,51,1,38,79,2417590260
65,23,11,Pattern_Practice,52,5,42,127,2417611992
65,23,11,Pattern_Practice,53,1,38,48,2417620180
65,23,11,Pattern_Practice,54,1,38,55,2417836720
65,23,11,Pattern_Practice,55,1,38,94,2418103456
65,23,11,Pattern_Practice,56,5,42,127,2418111940
65,23,11,Pattern_Practice,57,1,38,54,2418127532
65,23,11,Pattern_Practice,58,5,42,127,2418611544
65,23,11,Pattern_Practice,59,1,48,58,2418627152
65,23,11,Pattern_Practice,60,1,38,51,2418849752
65,23,11,Pattern_Practice,61,5,42,127,2419112192
65,23,11,Pattern_Practice,62,1,48,55,2419127432
65,23,11,Pattern_Practice,63,1,38,54,2419385860
65,23,11,Pattern_Practice,64,5,42,127,2419611940
65,23,11,Pattern_Practice,65,1,48,60,2419661804
65,23,11,Pattern_Practice,66,1,48,51,2419905652
65,23,11,Pattern_Practice,67,5,42,127,2420111888
65,23,11,Pattern_Practice,68,1,38,61,2420194692
65,23,11,Pattern_Practice,69,5,42,127,2420611432
65,23,11,Pattern_Practice,70,1,48,64,2420731260
65,23,11,Pattern_Practice,71,1,48,52,2420883528
65,23,11,Pattern_Practice,72,5,42,127,2421112076
65,23,11,Pattern_Practice,73,1,48,68,2421233028
65,23,11,Pattern_Practice,74,1,48,49,2421400928
65,23,11,Pattern_Practice,75,5,42,127,2421611900
65,23,11,Pattern_Practice,76,1,38,54,2421834276
65,23,11,Pattern_Practice,77,1,38,61,2422000324
65,23,11,Pattern_Practice,78,1,38,36,2422036960
65,23,11,Pattern_Practice,79,5,42,127,2422111640
65,23,11,Pattern_Practice,80,1,38,54,2422353000
65,23,11,Pattern_Practice,81,1,38,59,2422535288
65,23,11,Pattern_Practice,82,5,42,127,2422612288
65,23,11,Pattern_Practice,83,1,48,67,2422924628
65,23,11,Pattern_Practice,84,5,42,127,2423112040
65,23,11,Pattern_Practice,85,1,48,51,2423120836
65,23,11,Pattern_Practice,86,1,48,64,2423483492
65,23,11,Pattern_Practice,87,5,42,127,2423612008
65,23,11,Pattern_Practice,88,1,48,52,2423637864
65,23,11,Pattern_Practice,89,1,38,59,2424004404
65,23,11,Pattern_Practice,90,5,42,127,2424111384
65,23,11,Pattern_Practice,91,1,38,57,2424207100
65,23,11,Pattern_Practice,92,1,38,38,2424243236
65,23,11,Pattern_Practice,93,1,38,55,2424546916
65,23,11,Pattern_Practice,94,5,42,127,2424612320
65,23,11,Pattern_Practice,95,1,38,66,2424744848
65,23,11,Pattern_Practice,96,5,42,127,2425112000
65,23,11,Pattern_Practice,97,1,48,59,2425249776
65,23,11,Pattern_Practice,98,1,48,52,2425483876
65,23,11,Pattern_Practice,99,5,42,127,2425611820
65,23,11,Pattern_Practice,100,1,38,59,2425772564
65,23,11,Pattern_Practice,101,1,38,36,2425820268
65,23,11,Pattern_Practice,102,5,42,127,2426112244
65,23,11,Pattern_Practice,103,1,48,65,2426314800
65,23,11,Pattern_Practice,104,1,48,55,2426569264
65,23,11,Pattern_Practice,105,5,42,127,2426612008
65,23,11,Pattern_Practice,106,1,38,57,2426877600
65,23,11,Pattern_Practice,107,5,42,127,2427112060
65,23,11,Pattern_Practice,108,1,48,60,2427420228
65,23,11,Pattern_Practice,109,1,38,46,2427483568
65,23,11,Pattern_Practice,110,5,42,127,2427611720
65,23,11,Pattern_Practice,111,1,38,52,2427979724
65,23,11,Pattern_Practice,112,1,48,58,2428003572
65,23,11,Pattern_Practice,113,5,42,127,2428112268
65,23,11,Pattern_Practice,114,1,38,54,2428521492
65,23,11,Pattern_Practice,115,1,48,48,2428544804
65,23,11,Pattern_Practice,116,5,42,127,2428611956
65,23,11,Pattern_Practice,117,1,38,34,2428793128
65,23,11,Pattern_Practice,118,1,48,43,2428800512
65,23,11,Pattern_Practice,119,1,38,58,2429091924
65,23,11,Pattern_Practice,120,5,42,127,2429111852
65,23,11,Pattern_Practice,121,1,48,57,2429138456
65,23,11,Pattern_Practice,122,5,42,127,2429612344
65,23,11,Pattern_Practice,123,1,48,56,2429643064
65,23,11,Pattern_Practice,124,5,42,127,2430112040
65,23,11,Pattern_Practice,125,1,38,60,2430144104
65,23,11,Pattern_Practice,126,1,38,40,2430179008
65,23,11,Pattern_Practice,127,5,42,127,2430611908
65,23,11,Pattern_Practice,128,1,48,51,2430634576
65,23,11,Pattern_Practice,129,1,48,46,2430895400
65,23,11,Pattern_Practice,130,5,42,127,2431111732
65,23,11,Pattern_Practice,131,1,38,55,2431192740
65,23,11,Pattern_Practice,132,5,42,127,2431612176
65,23,11,Pattern_Practice,133,1,38,53,2431702460
65,23,11,Pattern_Practice,134,1,48,50,2431715976
65,23,11,Pattern_Practice,135,5,42,127,2432111972
65,23,11,Pattern_Practice,136,1,38,52,2432181316
65,23,11,Pattern_Practice,137,1,48,47,2432209640
65,23,11,Pattern_Practice,138,5,42,127,2432611916
65,23,11,Pattern_Practice,139,1,38,42,2432707812
65,23,11,Pattern_Practice,140,1,48,47,2432725892
65,23,11,Pattern_Practice,141,1,38,43,2432924984
65,23,11,Pattern_Practice,142,1,48,46,2432941272
65,23,11,Pattern_Practice,143,5,42,127,2433112324
65,23,11,Pattern_Practice,144,1,38,56,2433213976
65,23,11,Pattern_Practice,145,1,48,44,2433240432
65,23,11,Pattern_Practice,146,5,42,127,2433612340
65,23,11,Pattern_Practice,147,1,38,59,2433674776
65,23,11,Pattern_Practice,148,1,48,60,2433679620
65,23,11,Pattern_Practice,149,5,42,127,2434111912
65,23,11,Pattern_Practice,150,1,48,74,2434198132
65,23,11,Pattern_Practice,151,5,42,127,2434611756
65,23,11,Pattern_Practice,152,1,48,54,2434636196
65,23,11,Pattern_Practice,153,1,48,48,2434814292
65,23,11,Pattern_Practice,154,5,42,127,2435112400
65,23,11,Pattern_Practice,155,1,48,54,2435161672
65,23,11,Pattern_Practice,156,1,48,59,2435291672
65,23,11,Pattern_Practice,157,5,42,127,2435611924
65,23,11,Pattern_Practice,158,1,38,50,2435744764
65,23,11,Pattern_Practice,159,1,38,50,2435934956
65,23,11,Pattern_Practice,160,5,42,127,2436111896
65,23,11,Pattern_Practice,161,1,38,50,2436281540
65,23,11,Pattern_Practice,162,1,38,47,2436414660
65,23,11,Pattern_Practice,163,5,42,127,2436611344
65,23,11,Pattern_Practice,164,1,38,57,2437044376
65,23,11,Pattern_Practice,165,5,42,127,2437112176
65,23,11,Pattern_Practice,166,1,38,62,2437178256
65,23,11,Pattern_Practice,167,1,38,51,2437557208
65,23,11,Pattern_Practice,168,5,42,127,2437611848
65,23,11,Pattern_Practice,169,1,38,67,2437746896
65,23,11,Pattern_Practice,170,5,42,127,2438111600
65,23,11,Pattern_Practice,171,1,48,67,2438306672
65,23,11,Pattern_Practice,172,1,48,50,2438497084
65,23,11,Pattern_Practice,173,5,42,127,2438612468
65,23,11,Pattern_Practice,174,1,48,59,2438872468
65,23,11,Pattern_Practice,175,1,48,47,2439036032
65,23,11,Pattern_Practice,176,5,42,127,2439112156
65,23,11,Pattern_Practice,177,5,42,127,2439611632
65,23,11,Pattern_Practice,178,1,48,60,2439614604
65,23,11,Pattern_Practice,179,1,48,48,2439815192
65,23,11,Pattern_Practice,180,5,42,127,2440111608
65,23,11,Pattern_Practice,181,1,48,61,2440198868
65,23,11,Pattern_Practice,182,1,48,58,2440315312
65,23,11,Pattern_Practice,183,5,42,127,2440612324
65,23,11,Pattern_Practice,184,1,38,59,2440848592
65,23,11,Pattern_Practice,185,1,38,59,2441032668
65,23,11,Pattern_Practice,186,1,38,39,2441073632
65,23,11,Pattern_Practice,187,5,42,127,2441112044
65,23,11,Pattern_Practice,188,1,38,53,2441391872
65,23,11,Pattern_Practice,189,1,38,60,2441552216
65,23,11,Pattern_Practice,190,5,42,127,2441611640
65,23,11,Pattern_Practice,191,1,38,55,2442067768
65,23,11,Pattern_Practice,192,5,42,127,2442112456
65,23,11,Pattern_Practice,193,1,38,57,2442255536
65,23,11,Pattern_Practice,194,5,42,127,2442612136
65,23,11,Pattern_Practice,195,1,38,52,2442670184
65,23,11,Pattern_Practice,196,1,38,73,2442855584
65,23,11,Pattern_Practice,197,1,38,46,2442891912
65,23,11,Pattern_Practice,198,5,42,127,2443111712
65,23,11,Pattern_Practice,199,1,48,46,2443535620
65,23,11,Pattern_Practice,200,1,38,55,2443547264
65,23,11,Pattern_Practice,201,5,42,127,2443611628
65,23,11,Pattern_Practice,202,5,42,127,2444112272
65,23,11,Pattern_Practice,203,1,38,69,2444114868
65,23,11,Pattern_Practice,204,1,48,51,2444127040
65,23,11,Pattern_Practice,205,5,42,127,2444611920
65,23,11,Pattern_Practice,206,1,38,45,2444661488
65,23,11,Pattern_Practice,207,1,48,43,2444692432
65,23,11,Pattern_Practice,208,1,38,48,2444927648
65,23,11,Pattern_Practice,209,1,48,44,2444949244
65,23,11,Pattern_Practice,210,5,42,127,2445111648
65,23,11,Pattern_Practice,211,1,38,50,2445228040
65,23,11,Pattern_Practice,212,1,48,58,2445244696
65,23,11,Pattern_Practice,213,5,42,127,2445612492
65,23,11,Pattern_Practice,214,1,38,61,2445772040
65,23,11,Pattern_Practice,215,1,48,58,2445796776
65,23,11,Pattern_Practice,216,5,42,127,2446112064
65,23,11,Pattern_Practice,217,1,38,52,2446339228
65,23,11,Pattern_Practice,218,1,48,51,2446350800
65,23,11,Pattern_Practice,0,9999,9999,9999,2406610020
65,23,11,Pattern_Practice,1,9999,9999,9999,2407109736
65,23,11,Pattern_Practice,2,9999,9999,9999,2407609456
65,23,11,Pattern_Practice,3,9999,9999,9999,2408109172
65,23,11,Pattern_Practice,4,9999,9999,9999,2408609860
65,23,11,Pattern_Practice,5,9999,9999,9999,2409109584
65,23,11,Pattern_Practice,6,9999,9999,9999,2409609276
65,23,11,Pattern_Practice,7,9999,9999,9999,2410110064
65,23,11,Pattern_Practice,8,9999,9999,9999,2410609720
65,23,11,Pattern_Practice,9,9999,9999,9999,2411109488
65,23,11,Pattern_Practice,10,9999,9999,9999,2411609164
65,23,11,Pattern_Practice,11,9999,9999,9999,2412109880
65,23,11,Pattern_Practice,12,9999,9999,9999,2412609652
65,23,11,Pattern_Practice,13,9999,9999,9999,2413109348
65,23,11,Pattern_Practice,14,9999,9999,9999,2413610068
65,23,11,Pattern_Practice,15,9999,9999,9999,2414109816
65,23,11,Pattern_Practice,16,9999,9999,9999,2414609488
65,23,11,Pattern_Practice,17,9999,9999,9999,2415109184
65,23,11,Pattern_Practice,18,9999,9999,9999,2415609928
65,23,11,Pattern_Practice,19,9999,9999,9999,2416109672
65,23,11,Pattern_Practice,20,9999,9999,9999,2416609368
65,23,11,Pattern_Practice,21,9999,9999,9999,2417110088
65,23,11,Pattern_Practice,22,9999,9999,9999,2417609776
65,23,11,Pattern_Practice,23,9999,9999,9999,2418109500
65,23,11,Pattern_Practice,24,9999,9999,9999,2418609256
65,23,11,Pattern_Practice,25,9999,9999,9999,2419109976
65,23,11,Pattern_Practice,26,9999,9999,9999,2419609652
65,23,11,Pattern_Practice,27,9999,9999,9999,2420109376
65,23,11,Pattern_Practice,28,9999,9999,9999,2420609144
65,23,11,Pattern_Practice,29,9999,9999,9999,2421109864
65,23,11,Pattern_Practice,30,9999,9999,9999,2421609536
65,23,11,Pattern_Practice,31,9999,9999,9999,2422109276
65,23,11,Pattern_Practice,32,9999,9999,9999,2422609996
65,23,11,Pattern_Practice,33,9999,9999,9999,2423109748
65,23,11,Pattern_Practice,34,9999,9999,9999,2423609424
65,23,11,Pattern_Practice,35,9999,9999,9999,2424109172
65,23,11,Pattern_Practice,36,9999,9999,9999,2424609884
65,23,11,Pattern_Practice,37,9999,9999,9999,2425109564
65,23,11,Pattern_Practice,38,9999,9999,9999,2425609308
65,23,11,Pattern_Practice,39,9999,9999,9999,2426110028
65,23,11,Pattern_Practice,40,9999,9999,9999,2426609720
65,23,11,Pattern_Practice,41,9999,9999,9999,2427109472
65,23,11,Pattern_Practice,42,9999,9999,9999,2427609208
65,23,11,Pattern_Practice,43,9999,9999,9999,2428109904
65,23,11,Pattern_Practice,44,9999,9999,9999,2428609596
65,23,11,Pattern_Practice,45,9999,9999,9999,2429109340
65,23,11,Pattern_Practice,46,9999,9999,9999,2429610052
65,23,11,Pattern_Practice,47,9999,9999,9999,2430109748
65,23,11,Pattern_Practice,48,9999,9999,9999,2430609472
65,23,11,Pattern_Practice,49,9999,9999,9999,2431109220
65,23,11,Pattern_Practice,50,9999,9999,9999,2431609960
65,23,11,Pattern_Practice,51,9999,9999,9999,2432109684
65,23,11,Pattern_Practice,52,9999,9999,9999,2432609332
65,23,11,Pattern_Practice,53,9999,9999,9999,2433110108
65,23,11,Pattern_Practice,54,9999,9999,9999,2433609828
65,23,11,Pattern_Practice,55,9999,9999,9999,2434109552
65,23,11,Pattern_Practice,56,9999,9999,9999,2434609244
65,23,11,Pattern_Practice,57,9999,9999,9999,2435109964
65,23,11,Pattern_Practice,58,9999,9999,9999,2435609712
65,23,11,Pattern_Practice,59,9999,9999,9999,2436109384
65,23,11,Pattern_Practice,60,9999,9999,9999,2436609128
65,23,11,Pattern_Practice,61,9999,9999,9999,2437109812
65,23,11,Pattern_Practice,62,9999,9999,9999,2437609560
65,23,11,Pattern_Practice,63,9999,9999,9999,2438109236
65,23,11,Pattern_Practice,64,9999,9999,9999,2438610032
65,23,11,Pattern_Practice,65,9999,9999,9999,2439109716
65,23,11,Pattern_Practice,66,9999,9999,9999,2439609420
65,23,11,Pattern_Practice,67,9999,9999,9999,2440109168
65,23,11,Pattern_Practice,68,9999,9999,9999,2440609888
65,23,11,Pattern_Practice,69,9999,9999,9999,2441109604
65,23,11,Pattern_Practice,70,9999,9999,9999,2441609276
65,23,11,Pattern_Practice,71,9999,9999,9999,2442110020
65,23,11,Pattern_Practice,72,9999,9999,9999,2442609772
65,23,11,Pattern_Practice,73,9999,9999,9999,2443109496
65,23,11,Pattern_Practice,74,9999,9999,9999,2443609188
65,23,11,Pattern_Practice,75,9999,9999,9999,2444109912
65,23,11,Pattern_Practice,76,9999,9999,9999,2444609632
65,23,11,Pattern_Practice,77,9999,9999,9999,2445109360
65,23,11,Pattern_Practice,78,9999,9999,9999,2445610052
65,23,11,Pattern_Practice,79,9999,9999,9999,2446109776
65,24,13,Improv_Metronome,0,5,42,127,2487313832
65,24,13,Improv_Metronome,1,5,42,127,2487813696
65,24,13,Improv_Metronome,2,5,42,127,2488314164
65,24,13,Improv_Metronome,3,5,42,127,2488813952
65,24,13,Improv_Metronome,4,1,38,66,2488861500
65,24,13,Improv_Metronome,5,1,38,61,2489300516
65,24,13,Improv_Metronome,6,5,42,127,2489313716
65,24,13,Improv_Metronome,7,1,38,63,2489795348
65,24,13,Improv_Metronome,8,5,42,127,2489814456
65,24,13,Improv_Metronome,9,1,38,70,2490285320
65,24,13,Improv_Metronome,10,5,42,127,2490314000
65,24,13,Improv_Metronome,11,1,38,55,2490807380
65,24,13,Improv_Metronome,12,5,42,127,2490813772
65,24,13,Improv_Metronome,13,1,38,65,2491031488
65,24,13,Improv_Metronome,14,5,42,127,2491313600
65,24,13,Improv_Metronome,15,1,38,61,2491317468
65,24,13,Improv_Metronome,16,1,38,77,2491788992
65,24,13,Improv_Metronome,17,5,42,127,2491814260
65,24,13,Improv_Metronome,18,5,42,127,2492313960
65,24,13,Improv_Metronome,19,1,38,67,2492325984
65,24,13,Improv_Metronome,20,1,48,67,2492798852
65,24,13,Improv_Metronome,21,5,42,127,2492813624
65,24,13,Improv_Metronome,22,1,48,73,2493272296
65,24,13,Improv_Metronome,23,1,48,43,2493308620
65,24,13,Improv_Metronome,24,5,42,127,2493314568
65,24,13,Improv_Metronome,25,1,48,75,2493805548
65,24,13,Improv_Metronome,26,5,42,127,2493814188
65,24,13,Improv_Metronome,27,1,48,78,2494286996
65,24,13,Improv_Metronome,28,5,42,127,2494313732
65,24,13,Improv_Metronome,29,1,48,73,2494800672
65,24,13,Improv_Metronome,30,5,42,127,2494813428
65,24,13,Improv_Metronome,31,1,48,69,2495051268
65,24,13,Improv_Metronome,32,1,48,44,2495083564
65,24,13,Improv_Metronome,33,1,48,67,2495302872
65,24,13,Improv_Metronome,34,5,42,127,2495314572
65,24,13,Improv_Metronome,35,5,42,127,2495813976
65,24,13,Improv_Metronome,36,1,48,82,2495821356
65,24,13,Improv_Metronome,37,5,42,127,2496313672
65,24,13,Improv_Metronome,38,1,48,76,2496322624
65,24,13,Improv_Metronome,39,1,48,50,2496349824
65,24,13,Improv_Metronome,40,5,42,127,2496813416
65,24,13,Improv_Metronome,41,1,38,54,2496835612
65,24,13,Improv_Metronome,42,1,48,72,2496864088
65,24,13,Improv_Metronome,43,1,38,39,2496868776
65,24,13,Improv_Metronome,44,1,48,58,2497074300
65,24,13,Improv_Metronome,45,1,38,50,2497077568
65,24,13,Improv_Metronome,46,1,38,73,2497312352
65,24,13,Improv_Metronome,47,5,42,127,2497314840
65,24,13,Improv_Metronome,48,1,48,66,2497335312
65,24,13,Improv_Metronome,49,1,38,65,2497798828
65,24,13,Improv_Metronome,50,5,42,127,2497813748
65,24,13,Improv_Metronome,51,1,48,65,2497814716
65,24,13,Improv_Metronome,52,1,38,22,2497961944
65,24,13,Improv_Metronome,53,1,48,50,2497978008
65,24,13,Improv_Metronome,54,1,38,76,2498306868
65,24,13,Improv_Metronome,55,5,42,127,2498313488
65,24,13,Improv_Metronome,56,1,48,74,2498326556
65,24,13,Improv_Metronome,57,1,38,57,2498810568
65,24,13,Improv_Metronome,58,5,42,127,2498814496
65,24,13,Improv_Metronome,59,1,48,55,2498830176
65,24,13,Improv_Metronome,60,1,38,65,2499307692
65,24,13,Improv_Metronome,61,5,42,127,2499314080
65,24,13,Improv_Metronome,62,1,48,63,2499321612
65,24,13,Improv_Metronome,63,5,42,127,2499813676
65,24,13,Improv_Metronome,64,1,38,52,2499834668
65,24,13,Improv_Metronome,65,1,48,63,2499837860
65,24,13,Improv_Metronome,66,1,38,48,2500068816
65,24,13,Improv_Metronome,67,1,48,49,2500072612
65,24,13,Improv_Metronome,68,5,42,127,2500313400
65,24,13,Improv_Metronome,69,1,38,52,2500338960
65,24,13,Improv_Metronome,70,1,48,59,2500344924
65,24,13,Improv_Metronome,71,5,42,127,2500814468
65,24,13,Improv_Metronome,72,1,38,59,2500835540
65,24,13,Improv_Metronome,73,1,48,67,2500862000
65,24,13,Improv_Metronome,74,1,48,53,2501076344
65,24,13,Improv_Metronome,75,1,38,39,2501079760
65,24,13,Improv_Metronome,76,5,42,127,2501313824
65,24,13,Improv_Metronome,77,1,38,59,2501373336
65,24,13,Improv_Metronome,78,1,48,71,2501388272
65,24,13,Improv_Metronome,79,5,42,127,2501813620
65,24,13,Improv_Metronome,80,1,38,66,2501956232
65,24,13,Improv_Metronome,81,1,48,26,2502003788
65,24,13,Improv_Metronome,82,5,42,127,2502314536
65,24,13,Improv_Metronome,83,1,38,86,2502422444
65,24,13,Improv_Metronome,84,1,48,62,2502446884
65,24,13,Improv_Metronome,85,5,42,127,2502814332
65,24,13,Improv_Metronome,86,1,38,46,2503004300
65,24,13,Improv_Metronome,87,1,48,52,2503007424
65,24,13,Improv_Metronome,88,1,38,48,2503260660
65,24,13,Improv_Metronome,89,1,48,51,2503288992
65,24,13,Improv_Metronome,90,5,42,127,2503313708
65,24,13,Improv_Metronome,91,1,38,57,2503606452
65,24,13,Improv_Metronome,92,1,48,21,2503662004
65,24,13,Improv_Metronome,93,5,42,127,2503813464
65,24,13,Improv_Metronome,94,1,38,74,2504132500
65,24,13,Improv_Metronome,95,1,48,75,2504148636
65,24,13,Improv_Metronome,96,5,42,127,2504314528
65,24,13,Improv_Metronome,97,1,38,62,2504702532
65,24,13,Improv_Metronome,98,1,48,67,2504722488
65,24,13,Improv_Metronome,99,1,38,41,2504736900
65,24,13,Improv_Metronome,100,5,42,127,2504813972
65,24,13,Improv_Metronome,101,1,48,63,2505238072
65,24,13,Improv_Metronome,102,1,38,62,2505250844
65,24,13,Improv_Metronome,103,5,42,127,2505313560
65,24,13,Improv_Metronome,104,1,38,58,2505501784
65,24,13,Improv_Metronome,105,1,48,41,2505505056
65,24,13,Improv_Metronome,106,1,48,59,2505776768
65,24,13,Improv_Metronome,107,1,38,62,2505796944
65,24,13,Improv_Metronome,108,5,42,127,2505814332
65,24,13,Improv_Metronome,109,5,42,127,2506314168
65,24,13,Improv_Metronome,110,1,48,63,2506397344
65,24,13,Improv_Metronome,111,1,38,54,2506406076
65,24,13,Improv_Metronome,112,5,42,127,2506813740
65,24,13,Improv_Metronome,113,1,38,62,2506870188
65,24,13,Improv_Metronome,114,1,48,56,2506887596
65,24,13,Improv_Metronome,115,5,42,127,2507313464
65,24,13,Improv_Metronome,116,1,38,52,2507384720
65,24,13,Improv_Metronome,117,1,48,47,2507400032
65,24,13,Improv_Metronome,118,5,42,127,2507814304
65,24,13,Improv_Metronome,119,1,38,48,2507901048
65,24,13,Improv_Metronome,120,1,48,54,2507911652
65,24,13,Improv_Metronome,121,5,42,127,2508313880
65,24,13,Improv_Metronome,122,1,48,49,2508363148
65,24,13,Improv_Metronome,123,1,48,53,2508587764
65,24,13,Improv_Metronome,124,5,42,127,2508813772
65,24,13,Improv_Metronome,125,1,38,66,2508876580
65,24,13,Improv_Metronome,126,5,42,127,2509314368
65,24,13,Improv_Metronome,127,1,48,52,2509368648
65,24,13,Improv_Metronome,128,1,48,56,2509601048
65,24,13,Improv_Metronome,129,5,42,127,2509814340
65,24,13,Improv_Metronome,130,1,38,62,2509891428
65,24,13,Improv_Metronome,131,5,42,127,2510313808
65,24,13,Improv_Metronome,132,1,48,61,2510378780
65,24,13,Improv_Metronome,133,1,48,57,2510621652
65,24,13,Improv_Metronome,134,5,42,127,2510813484
65,24,13,Improv_Metronome,135,1,38,63,2510897308
65,24,13,Improv_Metronome,136,5,42,127,2511314300
65,24,13,Improv_Metronome,137,1,38,67,2511673324
65,24,13,Improv_Metronome,138,5,42,127,2511814068
65,24,13,Improv_Metronome,139,1,38,72,2511906268
65,24,13,Improv_Metronome,140,1,48,83,2512191928
65,24,13,Improv_Metronome,141,5,42,127,2512313668
65,24,13,Improv_Metronome,142,1,38,46,2512709120
65,24,13,Improv_Metronome,143,5,42,127,2512813360
65,24,13,Improv_Metronome,144,1,38,95,2512964428
65,24,13,Improv_Metronome,145,1,38,63,2512984232
65,24,13,Improv_Metronome,146,1,48,73,2513273844
65,24,13,Improv_Metronome,147,5,42,127,2513314220
65,24,13,Improv_Metronome,148,1,38,73,2513765312
65,24,13,Improv_Metronome,149,5,42,127,2513813844
65,24,13,Improv_Metronome,150,1,38,57,2514003636
65,24,13,Improv_Metronome,151,5,42,127,2514314016
65,24,13,Improv_Metronome,152,1,48,77,2514379764
65,24,13,Improv_Metronome,153,1,48,56,2514400912
65,24,13,Improv_Metronome,154,5,42,127,2514814292
65,24,13,Improv_Metronome,155,1,38,51,2514868296
65,24,13,Improv_Metronome,156,1,48,56,2514898940
65,24,13,Improv_Metronome,157,1,48,39,2515092620
65,24,13,Improv_Metronome,158,1,38,43,2515105476
65,24,13,Improv_Metronome,159,5,42,127,2515314080
65,24,13,Improv_Metronome,160,1,38,67,2515354396
65,24,13,Improv_Metronome,161,1,48,65,2515376964
65,24,13,Improv_Metronome,162,5,42,127,2515813800
65,24,13,Improv_Metronome,163,1,38,67,2515948212
65,24,13,Improv_Metronome,164,1,48,38,2515962852
65,24,13,Improv_Metronome,165,5,42,127,2516313452
65,24,13,Improv_Metronome,166,1,38,72,2516395060
65,24,13,Improv_Metronome,167,1,48,72,2516410668
65,24,13,Improv_Metronome,168,5,42,127,2516814144
65,24,13,Improv_Metronome,169,1,38,68,2516869844
65,24,13,Improv_Metronome,170,1,48,42,2516895968
65,24,13,Improv_Metronome,171,5,42,127,2517314100
65,24,13,Improv_Metronome,172,1,38,56,2517327096
65,24,13,Improv_Metronome,173,1,48,59,2517360884
65,24,13,Improv_Metronome,174,1,38,57,2517795984
65,24,13,Improv_Metronome,175,5,42,127,2517813668
65,24,13,Improv_Metronome,176,1,38,71,2518019424
65,24,13,Improv_Metronome,177,1,38,55,2518281212
65,24,13,Improv_Metronome,178,5,42,127,2518314240
65,24,13,Improv_Metronome,179,1,38,68,2518499272
65,24,13,Improv_Metronome,180,1,38,43,2518531788
65,24,13,Improv_Metronome,181,1,38,57,2518755064
65,24,13,Improv_Metronome,182,5,42,127,2518813964
65,24,13,Improv_Metronome,183,1,38,58,2518947684
65,24,13,Improv_Metronome,184,1,38,67,2519281288
65,24,13,Improv_Metronome,185,5,42,127,2519313860
65,24,13,Improv_Metronome,186,1,48,59,2519759068
65,24,13,Improv_Metronome,187,5,42,127,2519813480
65,24,13,Improv_Metronome,188,1,48,57,2519881960
65,24,13,Improv_Metronome,189,1,48,48,2520208224
65,24,13,Improv_Metronome,190,5,42,127,2520314112
65,24,13,Improv_Metronome,191,1,48,60,2520473208
65,24,13,Improv_Metronome,192,1,48,70,2520759836
65,24,13,Improv_Metronome,193,1,48,42,2520804696
65,24,13,Improv_Metronome,194,5,42,127,2520814076
65,24,13,Improv_Metronome,195,1,48,62,2521034120
65,24,13,Improv_Metronome,196,1,48,86,2521310576
65,24,13,Improv_Metronome,197,5,42,127,2521313752
65,24,13,Improv_Metronome,198,1,48,43,2521344976
65,24,13,Improv_Metronome,199,5,42,127,2521814328
65,24,13,Improv_Metronome,200,1,38,61,2521853276
65,24,13,Improv_Metronome,201,1,38,78,2522074900
65,24,13,Improv_Metronome,202,1,38,45,2522124920
65,24,13,Improv_Metronome,203,5,42,127,2522314052
65,24,13,Improv_Metronome,204,1,38,55,2522335348
65,24,13,Improv_Metronome,205,1,38,72,2522551140
65,24,13,Improv_Metronome,206,1,38,55,2522794240
65,24,13,Improv_Metronome,207,5,42,127,2522813944
65,24,13,Improv_Metronome,208,1,38,67,2522997012
65,24,13,Improv_Metronome,209,5,42,127,2523313400
65,24,13,Improv_Metronome,210,1,38,71,2523341876
65,24,13,Improv_Metronome,211,1,48,58,2523812772
65,24,13,Improv_Metronome,212,5,42,127,2523814132
65,24,13,Improv_Metronome,213,1,48,77,2523982688
65,24,13,Improv_Metronome,214,5,42,127,2524314036
65,24,13,Improv_Metronome,215,1,48,56,2524315076
65,24,13,Improv_Metronome,216,1,48,66,2524470916
65,24,13,Improv_Metronome,217,5,42,127,2524813832
65,24,13,Improv_Metronome,218,1,48,71,2524821460
65,24,13,Improv_Metronome,219,1,48,44,2524857872
65,24,13,Improv_Metronome,220,1,48,70,2525050672
65,24,13,Improv_Metronome,221,5,42,127,2525314456
65,24,13,Improv_Metronome,222,1,48,71,2525432044
65,24,13,Improv_Metronome,223,1,48,78,2525613876
65,24,13,Improv_Metronome,224,5,42,127,2525813980
65,24,13,Improv_Metronome,225,1,48,69,2525990132
65,24,13,Improv_Metronome,226,1,38,57,2526009256
65,24,13,Improv_Metronome,227,5,42,127,2526314012
65,24,13,Improv_Metronome,228,1,38,88,2526589196
65,24,13,Improv_Metronome,229,1,38,46,2526622936
65,24,13,Improv_Metronome,230,1,48,67,2526639148
65,24,13,Improv_Metronome,231,5,42,127,2526813492
65,24,13,Improv_Metronome,232,1,38,64,2527153844
65,24,13,Improv_Metronome,233,1,48,65,2527169304
65,24,13,Improv_Metronome,234,1,38,41,2527191280
65,24,13,Improv_Metronome,235,5,42,127,2527314312
65,24,13,Improv_Metronome,236,1,38,51,2527673816
65,24,13,Improv_Metronome,237,1,48,62,2527706108
65,24,13,Improv_Metronome,238,5,42,127,2527814036
65,24,13,Improv_Metronome,239,1,38,43,2527924368
65,24,13,Improv_Metronome,240,1,48,55,2527937356
65,24,13,Improv_Metronome,241,1,38,55,2528205632
65,24,13,Improv_Metronome,242,1,48,59,2528233964
65,24,13,Improv_Metronome,243,5,42,127,2528313792
65,24,13,Improv_Metronome,244,1,38,64,2528699832
65,24,13,Improv_Metronome,245,5,42,127,2528813396
65,24,13,Improv_Metronome,246,1,38,65,2528852864
65,24,13,Improv_Metronome,247,1,38,73,2529190380
65,24,13,Improv_Metronome,248,5,42,127,2529314044
65,24,13,Improv_Metronome,249,1,38,43,2529350516
65,24,13,Improv_Metronome,250,1,38,67,2529649040
65,24,13,Improv_Metronome,251,5,42,127,2529813940
65,24,13,Improv_Metronome,252,1,38,56,2529868820
65,24,13,Improv_Metronome,253,1,38,78,2530212992
65,24,13,Improv_Metronome,254,5,42,127,2530313536
65,24,13,Improv_Metronome,255,1,38,86,2530407008
65,24,13,Improv_Metronome,256,1,38,51,2530435636
65,24,13,Improv_Metronome,257,1,48,105,2530746224
65,24,13,Improv_Metronome,258,5,42,127,2530814252
65,24,13,Improv_Metronome,259,5,42,127,2531314176
65,24,13,Improv_Metronome,260,1,38,71,2531373100
65,24,13,Improv_Metronome,261,1,38,62,2531530324
65,24,13,Improv_Metronome,262,5,42,127,2531814000
65,24,13,Improv_Metronome,263,1,38,68,2531864768
65,24,13,Improv_Metronome,264,1,38,61,2532064556
65,24,13,Improv_Metronome,265,5,42,127,2532313524
65,24,13,Improv_Metronome,266,1,38,73,2532415976
65,24,13,Improv_Metronome,267,1,38,64,2532608728
65,24,13,Improv_Metronome,268,1,38,41,2532639972
65,24,13,Improv_Metronome,269,5,42,127,2532814220
65,24,13,Improv_Metronome,270,1,38,73,2532954448
65,24,13,Improv_Metronome,271,1,38,78,2533167396
65,24,13,Improv_Metronome,272,1,38,51,2533192280
65,24,13,Improv_Metronome,273,5,42,127,2533313872
65,24,13,Improv_Metronome,274,1,48,82,2533528016
65,24,13,Improv_Metronome,275,5,42,127,2533813864
65,24,13,Improv_Metronome,276,1,48,80,2534229964
65,24,13,Improv_Metronome,277,5,42,127,2534314472
65,24,13,Improv_Metronome,278,1,48,78,2534425580
65,24,13,Improv_Metronome,279,1,48,51,2534450168
65,24,13,Improv_Metronome,280,1,48,69,2534794020
65,24,13,Improv_Metronome,281,5,42,127,2534814052
65,24,13,Improv_Metronome,282,1,48,56,2534997860
65,24,13,Improv_Metronome,283,5,42,127,2535314004
65,24,13,Improv_Metronome,284,1,48,69,2535364772
65,24,13,Improv_Metronome,285,1,48,69,2535548744
65,24,13,Improv_Metronome,286,5,42,127,2535813352
65,24,13,Improv_Metronome,287,1,48,62,2535888448
65,24,13,Improv_Metronome,288,1,48,74,2536066076
65,24,13,Improv_Metronome,289,5,42,127,2536314296
65,24,13,Improv_Metronome,290,1,38,66,2536417372
65,24,13,Improv_Metronome,291,1,38,44,2536449212
65,24,13,Improv_Metronome,292,5,42,127,2536813896
65,24,13,Improv_Metronome,293,1,48,70,2536970600
65,24,13,Improv_Metronome,294,1,48,87,2537141516
65,24,13,Improv_Metronome,295,1,48,47,2537174700
65,24,13,Improv_Metronome,296,5,42,127,2537313844
65,24,13,Improv_Metronome,297,1,48,66,2537520808
65,24,13,Improv_Metronome,298,1,48,66,2537726880
65,24,13,Improv_Metronome,299,5,42,127,2537814580
65,24,13,Improv_Metronome,300,1,48,67,2538110992
65,24,13,Improv_Metronome,301,1,48,62,2538312448
65,24,13,Improv_Metronome,302,5,42,127,2538313956
65,24,13,Improv_Metronome,303,1,48,71,2538676660
65,24,13,Improv_Metronome,304,5,42,127,2538813784
65,24,13,Improv_Metronome,305,1,48,76,2538846524
65,24,13,Improv_Metronome,306,1,38,82,2539217468
65,24,13,Improv_Metronome,307,1,38,45,2539249088
65,24,13,Improv_Metronome,308,5,42,127,2539313748
65,24,13,Improv_Metronome,309,1,38,71,2539787752
65,24,13,Improv_Metronome,310,5,42,127,2539814192
65,24,13,Improv_Metronome,311,1,48,65,2539820076
65,24,13,Improv_Metronome,312,1,38,48,2540080276
65,24,13,Improv_Metronome,313,1,48,54,2540083992
65,24,13,Improv_Metronome,314,5,42,127,2540313952
65,24,13,Improv_Metronome,315,1,38,74,2540388348
65,24,13,Improv_Metronome,316,1,48,73,2540403216
65,24,13,Improv_Metronome,317,5,42,127,2540813744
65,24,13,Improv_Metronome,318,1,38,58,2540910508
65,24,13,Improv_Metronome,319,1,48,67,2540921412
65,24,13,Improv_Metronome,320,5,42,127,2541314592
65,24,13,Improv_Metronome,321,1,48,70,2541428784
65,24,13,Improv_Metronome,322,1,38,82,2541433772
65,24,13,Improv_Metronome,323,1,38,46,2541464516
65,24,13,Improv_Metronome,324,5,42,127,2541814068
65,24,13,Improv_Metronome,325,1,38,67,2542012132
65,24,13,Improv_Metronome,326,1,48,59,2542035228
65,24,13,Improv_Metronome,327,1,48,29,2542089580
65,24,13,Improv_Metronome,328,1,48,44,2542278564
65,24,13,Improv_Metronome,329,1,38,52,2542284984
65,24,13,Improv_Metronome,330,5,42,127,2542313964
65,24,13,Improv_Metronome,331,1,48,53,2542550360
65,24,13,Improv_Metronome,332,1,38,63,2542556844
65,24,13,Improv_Metronome,333,5,42,127,2542813720
65,24,13,Improv_Metronome,334,1,38,76,2543035720
65,24,13,Improv_Metronome,335,1,48,81,2543044448
65,24,13,Improv_Metronome,336,1,38,47,2543066868
65,24,13,Improv_Metronome,337,5,42,127,2543314240
65,24,13,Improv_Metronome,338,1,38,67,2543559804
65,24,13,Improv_Metronome,339,1,48,60,2543587008
65,24,13,Improv_Metronome,340,1,38,45,2543588932
65,24,13,Improv_Metronome,341,5,42,127,2543814092
65,24,13,Improv_Metronome,342,1,48,60,2544142152
65,24,13,Improv_Metronome,343,5,42,127,2544313712
65,24,13,Improv_Metronome,344,1,48,63,2544392972
65,24,13,Improv_Metronome,345,1,48,31,2544451440
65,24,13,Improv_Metronome,346,1,48,57,2544685712
65,24,13,Improv_Metronome,347,5,42,127,2544813660
65,24,13,Improv_Metronome,348,1,48,51,2544899804
65,24,13,Improv_Metronome,349,1,48,66,2545181120
65,24,13,Improv_Metronome,350,5,42,127,2545314080
65,24,13,Improv_Metronome,351,1,48,39,2545442632
65,24,13,Improv_Metronome,352,1,48,70,2545753724
65,24,13,Improv_Metronome,353,5,42,127,2545813844
65,24,13,Improv_Metronome,354,5,42,127,2546313668
65,24,13,Improv_Metronome,355,1,38,63,2546381360
65,24,13,Improv_Metronome,356,1,38,64,2546621164
65,24,13,Improv_Metronome,357,5,42,127,2546814312
65,24,13,Improv_Metronome,358,1,38,57,2546891728
65,24,13,Improv_Metronome,359,1,38,51,2547134828
65,24,13,Improv_Metronome,360,5,42,127,2547313988
65,24,13,Improv_Metronome,361,1,38,59,2547384600
65,24,13,Improv_Metronome,362,1,38,59,2547634652
65,24,13,Improv_Metronome,363,5,42,127,2547813736
65,24,13,Improv_Metronome,364,1,38,70,2547945756
65,24,13,Improv_Metronome,365,5,42,127,2548313580
65,24,13,Improv_Metronome,366,1,48,25,2548421436
65,24,13,Improv_Metronome,367,1,48,84,2548582080
65,24,13,Improv_Metronome,368,5,42,127,2548814224
65,24,13,Improv_Metronome,369,1,38,83,2549105636
65,24,13,Improv_Metronome,370,1,38,67,2549280440
65,24,13,Improv_Metronome,371,5,42,127,2549313912
65,24,13,Improv_Metronome,372,1,38,38,2549321952
65,24,13,Improv_Metronome,373,1,48,84,2549720872
65,24,13,Improv_Metronome,374,5,42,127,2549813732
65,24,13,Improv_Metronome,375,1,48,72,2549942896
65,24,13,Improv_Metronome,376,1,48,42,2550001816
65,24,13,Improv_Metronome,377,5,42,127,2550314364
65,24,13,Improv_Metronome,378,1,38,88,2550487448
65,24,13,Improv_Metronome,379,1,38,74,2550691876
65,24,13,Improv_Metronome,380,1,38,51,2550731120
65,24,13,Improv_Metronome,381,5,42,127,2550814032
65,24,13,Improv_Metronome,382,1,48,65,2551063696
65,24,13,Improv_Metronome,383,1,48,96,2551259664
65,24,13,Improv_Metronome,384,1,48,45,2551299660
65,24,13,Improv_Metronome,385,5,42,127,2551313832
65,24,13,Improv_Metronome,386,1,38,83,2551709000
65,24,13,Improv_Metronome,387,5,42,127,2551813440
65,24,13,Improv_Metronome,388,1,38,85,2551909004
65,24,13,Improv_Metronome,389,1,38,47,2551946532
65,24,13,Improv_Metronome,390,5,42,127,2552314304
65,24,13,Improv_Metronome,391,1,38,76,2552350260
65,24,13,Improv_Metronome,392,1,38,110,2552516536
65,24,13,Improv_Metronome,393,1,38,58,2552548304
65,24,13,Improv_Metronome,394,5,42,127,2552813808
65,24,13,Improv_Metronome,395,1,48,90,2552902420
65,24,13,Improv_Metronome,396,1,48,70,2553088372
65,24,13,Improv_Metronome,397,5,42,127,2553313556
65,24,13,Improv_Metronome,398,1,38,82,2553548344
65,24,13,Improv_Metronome,399,1,38,79,2553748280
65,24,13,Improv_Metronome,400,1,38,53,2553784016
65,24,13,Improv_Metronome,401,5,42,127,2553814420
65,24,13,Improv_Metronome,402,1,48,74,2554185548
65,24,13,Improv_Metronome,403,5,42,127,2554314096
65,24,13,Improv_Metronome,404,1,48,72,2554359924
65,24,13,Improv_Metronome,405,1,48,41,2554399320
65,24,13,Improv_Metronome,406,1,38,89,2554787400
65,24,13,Improv_Metronome,407,5,42,127,2554813840
65,24,13,Improv_Metronome,408,1,38,62,2554929364
65,24,13,Improv_Metronome,409,1,38,73,2555248572
65,24,13,Improv_Metronome,410,5,42,127,2555313412
65,24,13,Improv_Metronome,411,1,48,80,2555460348
65,24,13,Improv_Metronome,412,5,42,127,2555814436
65,24,13,Improv_Metronome,413,1,48,62,2555943512
65,24,13,Improv_Metronome,414,1,48,62,2556150108
65,24,13,Improv_Metronome,415,5,42,127,2556313884
65,24,13,Improv_Metronome,416,1,38,76,2556606196
65,24,13,Improv_Metronome,417,1,38,49,2556645444
65,24,13,Improv_Metronome,418,1,38,87,2556760088
65,24,13,Improv_Metronome,419,5,42,127,2556813528
65,24,13,Improv_Metronome,0,9999,9999,9999,2487311472
65,24,13,Improv_Metronome,1,9999,9999,9999,2487811188
65,24,13,Improv_Metronome,2,9999,9999,9999,2488311876
65,24,13,Improv_Metronome,3,9999,9999,9999,2488811592
65,24,13,Improv_Metronome,4,9999,9999,9999,2489311352
65,24,13,Improv_Metronome,5,9999,9999,9999,2489812020
65,24,13,Improv_Metronome,6,9999,9999,9999,2490311788
65,24,13,Improv_Metronome,7,9999,9999,9999,2490811484
65,24,13,Improv_Metronome,8,9999,9999,9999,2491311164
65,24,13,Improv_Metronome,9,9999,9999,9999,2491811900
65,24,13,Improv_Metronome,10,9999,9999,9999,2492311672
65,24,13,Improv_Metronome,11,9999,9999,9999,2492811336
65,24,13,Improv_Metronome,12,9999,9999,9999,2493312056
65,24,13,Improv_Metronome,13,9999,9999,9999,2493811824
65,24,13,Improv_Metronome,14,9999,9999,9999,2494311520
65,24,13,Improv_Metronome,15,9999,9999,9999,2494811216
65,24,13,Improv_Metronome,16,9999,9999,9999,2495311988
65,24,13,Improv_Metronome,17,9999,9999,9999,2495811688
65,24,13,Improv_Metronome,18,9999,9999,9999,2496311384
65,24,13,Improv_Metronome,19,9999,9999,9999,2496811132
65,24,13,Improv_Metronome,20,9999,9999,9999,2497311824
65,24,13,Improv_Metronome,21,9999,9999,9999,2497811536
65,24,13,Improv_Metronome,22,9999,9999,9999,2498311276
65,24,13,Improv_Metronome,23,9999,9999,9999,2498811984
65,24,13,Improv_Metronome,24,9999,9999,9999,2499311720
65,24,13,Improv_Metronome,25,9999,9999,9999,2499811388
65,24,13,Improv_Metronome,26,9999,9999,9999,2500311116
65,24,13,Improv_Metronome,27,9999,9999,9999,2500811884
65,24,13,Improv_Metronome,28,9999,9999,9999,2501311608
65,24,13,Improv_Metronome,29,9999,9999,9999,2501811256
65,24,13,Improv_Metronome,30,9999,9999,9999,2502312028
65,24,13,Improv_Metronome,31,9999,9999,9999,2502811748
65,24,13,Improv_Metronome,32,9999,9999,9999,2503311420
65,24,13,Improv_Metronome,33,9999,9999,9999,2503811176
65,24,13,Improv_Metronome,34,9999,9999,9999,2504311868
65,24,13,Improv_Metronome,35,9999,9999,9999,2504811612
65,24,13,Improv_Metronome,36,9999,9999,9999,2505311348
65,24,13,Improv_Metronome,37,9999,9999,9999,2505812044
65,24,13,Improv_Metronome,38,9999,9999,9999,2506311732
65,24,13,Improv_Metronome,39,9999,9999,9999,2506811452
65,24,13,Improv_Metronome,40,9999,9999,9999,2507311176
65,24,13,Improv_Metronome,41,9999,9999,9999,2507811944
65,24,13,Improv_Metronome,42,9999,9999,9999,2508311664
65,24,13,Improv_Metronome,43,9999,9999,9999,2508811336
65,24,13,Improv_Metronome,44,9999,9999,9999,2509312080
65,24,13,Improv_Metronome,45,9999,9999,9999,2509811828
65,24,13,Improv_Metronome,46,9999,9999,9999,2510311520
65,24,13,Improv_Metronome,47,9999,9999,9999,2510811196
65,24,13,Improv_Metronome,48,9999,9999,9999,2511311936
65,24,13,Improv_Metronome,49,9999,9999,9999,2511811704
65,24,13,Improv_Metronome,50,9999,9999,9999,2512311376
65,24,13,Improv_Metronome,51,9999,9999,9999,2512811072
65,24,13,Improv_Metronome,52,9999,9999,9999,2513311860
65,24,13,Improv_Metronome,53,9999,9999,9999,2513811532
65,24,13,Improv_Metronome,54,9999,9999,9999,2514311284
65,24,13,Improv_Metronome,55,9999,9999,9999,2514812004
65,24,13,Improv_Metronome,56,9999,9999,9999,2515311716
65,24,13,Improv_Metronome,57,9999,9999,9999,2515811440
65,24,13,Improv_Metronome,58,9999,9999,9999,2516311164
65,24,13,Improv_Metronome,59,9999,9999,9999,2516811856
65,24,13,Improv_Metronome,60,9999,9999,9999,2517311592
65,24,13,Improv_Metronome,61,9999,9999,9999,2517811308
65,24,13,Improv_Metronome,62,9999,9999,9999,2518312024
65,24,13,Improv_Metronome,63,9999,9999,9999,2518811752
65,24,13,Improv_Metronome,64,9999,9999,9999,2519311424
65,24,13,Improv_Metronome,65,9999,9999,9999,2519811192
65,24,13,Improv_Metronome,66,9999,9999,9999,2520311896
65,24,13,Improv_Metronome,67,9999,9999,9999,2520811640
65,24,13,Improv_Metronome,68,9999,9999,9999,2521311312
65,24,13,Improv_Metronome,69,9999,9999,9999,2521812040
65,24,13,Improv_Metronome,70,9999,9999,9999,2522311764
65,24,13,Improv_Metronome,71,9999,9999,9999,2522811508
65,24,13,Improv_Metronome,72,9999,9999,9999,2523311188
65,24,13,Improv_Metronome,73,9999,9999,9999,2523811928
65,24,13,Improv_Metronome,74,9999,9999,9999,2524311676
65,24,13,Improv_Metronome,75,9999,9999,9999,2524811324
65,24,13,Improv_Metronome,76,9999,9999,9999,2525312096
65,24,13,Improv_Metronome,77,9999,9999,9999,2525811768
65,24,13,Improv_Metronome,78,9999,9999,9999,2526311504
65,24,13,Improv_Metronome,79,9999,9999,9999,2526811204
65,24,13,Improv_Metronome,80,9999,9999,9999,2527311948
65,24,13,Improv_Metronome,81,9999,9999,9999,2527811672
65,24,13,Improv_Metronome,82,9999,9999,9999,2528311356
65,24,13,Improv_Metronome,83,9999,9999,9999,2528811108
65,24,13,Improv_Metronome,84,9999,9999,9999,2529311828
65,24,13,Improv_Metronome,85,9999,9999,9999,2529811576
65,24,13,Improv_Metronome,86,9999,9999,9999,2530311284
65,24,13,Improv_Metronome,87,9999,9999,9999,2530811964
65,24,13,Improv_Metronome,88,9999,9999,9999,2531311668
65,24,13,Improv_Metronome,89,9999,9999,9999,2531811416
65,24,13,Improv_Metronome,90,9999,9999,9999,2532311160
65,24,13,Improv_Metronome,91,9999,9999,9999,2532811860
65,24,13,Improv_Metronome,92,9999,9999,9999,2533311584
65,24,13,Improv_Metronome,93,9999,9999,9999,2533811280
65,24,13,Improv_Metronome,94,9999,9999,9999,2534312036
65,24,13,Improv_Metronome,95,9999,9999,9999,2534811764
65,24,13,Improv_Metronome,96,9999,9999,9999,2535311416
65,24,13,Improv_Metronome,97,9999,9999,9999,2535811140
65,24,13,Improv_Metronome,98,9999,9999,9999,2536311860
65,24,13,Improv_Metronome,99,9999,9999,9999,2536811608
65,24,13,Improv_Metronome,100,9999,9999,9999,2537311332
65,24,13,Improv_Metronome,101,9999,9999,9999,2537812072
65,24,13,Improv_Metronome,102,9999,9999,9999,2538311748
65,24,13,Improv_Metronome,103,9999,9999,9999,2538811496
65,24,13,Improv_Metronome,104,9999,9999,9999,2539311164
65,24,13,Improv_Metronome,105,9999,9999,9999,2539811904
65,24,13,Improv_Metronome,106,9999,9999,9999,2540311664
65,24,13,Improv_Metronome,107,9999,9999,9999,2540811384
65,24,13,Improv_Metronome,108,9999,9999,9999,2541312080
65,24,13,Improv_Metronome,109,9999,9999,9999,2541811780
65,24,13,Improv_Metronome,110,9999,9999,9999,2542311528
65,24,13,Improv_Metronome,111,9999,9999,9999,2542811208
65,24,13,Improv_Metronome,112,9999,9999,9999,2543311956
65,24,13,Improv_Metronome,113,9999,9999,9999,2543811652
65,24,13,Improv_Metronome,114,9999,9999,9999,2544311348
65,24,13,Improv_Metronome,115,9999,9999,9999,2544811072
65,24,13,Improv_Metronome,116,9999,9999,9999,2545311792
65,24,13,Improv_Metronome,117,9999,9999,9999,2545811556
65,24,13,Improv_Metronome,118,9999,9999,9999,2546311232
65,24,13,Improv_Metronome,119,9999,9999,9999,2546812024
65,24,13,Improv_Metronome,120,9999,9999,9999,2547311700
65,24,13,Improv_Metronome,121,9999,9999,9999,2547811448
65,24,13,Improv_Metronome,122,9999,9999,9999,2548311144
65,24,13,Improv_Metronome,123,9999,9999,9999,2548811860
65,24,13,Improv_Metronome,124,9999,9999,9999,2549311552
65,24,13,Improv_Metronome,125,9999,9999,9999,2549811296
65,24,13,Improv_Metronome,126,9999,9999,9999,2550312000
65,24,13,Improv_Metronome,127,9999,9999,9999,2550811744
65,24,13,Improv_Metronome,128,9999,9999,9999,2551311472
65,24,13,Improv_Metronome,129,9999,9999,9999,2551811152
65,24,13,Improv_Metronome,130,9999,9999,9999,2552311868
65,24,13,Improv_Metronome,131,9999,9999,9999,2552811596
65,24,13,Improv_Metronome,132,9999,9999,9999,2553311344
65,24,13,Improv_Metronome,133,9999,9999,9999,2553812056
65,24,13,Improv_Metronome,134,9999,9999,9999,2554311736
65,24,13,Improv_Metronome,135,9999,9999,9999,2554811476
65,24,13,Improv_Metronome,136,9999,9999,9999,2555311200
65,24,13,Improv_Metronome,137,9999,9999,9999,2555811924
65,24,13,Improv_Metronome,138,9999,9999,9999,2556311672
65,24,13,Improv_Metronome,139,9999,9999,9999,2556811312
65,25,14,Improv_Melody,0,2,48,80,2610225396
65,25,14,Improv_Melody,1,2,72,80,2610228212
65,25,14,Improv_Melody,2,5,42,127,2610229704
65,25,14,Improv_Melody,3,5,42,110,2610723292
65,25,14,Improv_Melody,4,5,42,110,2611222792
65,25,14,Improv_Melody,5,5,42,110,2611722736
65,25,14,Improv_Melody,6,5,42,127,2612223356
65,25,14,Improv_Melody,7,5,42,110,2612723152
65,25,14,Improv_Melody,8,5,42,110,2613222872
65,25,14,Improv_Melody,9,5,42,110,2613722372
65,25,14,Improv_Melody,10,2,43,80,2614225716
65,25,14,Improv_Melody,11,2,67,80,2614227940
65,25,14,Improv_Melody,12,5,42,127,2614230484
65,25,14,Improv_Melody,13,5,42,110,2614723024
65,25,14,Improv_Melody,14,5,42,110,2615222596
65,25,14,Improv_Melody,15,5,42,110,2615723364
65,25,14,Improv_Melody,16,5,42,127,2616223236
65,25,14,Improv_Melody,17,5,42,110,2616722880
65,25,14,Improv_Melody,18,5,42,110,2617222432
65,25,14,Improv_Melody,19,5,42,110,2617723124
65,25,14,Improv_Melody,20,2,45,80,2618225420
65,25,14,Improv_Melody,21,2,69,80,2618227728
65,25,14,Improv_Melody,22,5,42,127,2618230188
65,25,14,Improv_Melody,23,5,42,110,2618722580
65,25,14,Improv_Melody,24,5,42,110,2619223348
65,25,14,Improv_Melody,25,5,42,110,2619723220
65,25,14,Improv_Melody,26,5,42,127,2620222720
65,25,14,Improv_Melody,27,5,42,110,2620722516
65,25,14,Improv_Melody,28,5,42,110,2621223356
65,25,14,Improv_Melody,29,5,42,110,2621723304
65,25,14,Improv_Melody,30,2,41,80,2622225380
65,25,14,Improv_Melody,31,2,65,80,2622227536
65,25,14,Improv_Melody,32,5,42,127,2622230068
65,25,14,Improv_Melody,33,5,42,110,2622722388
65,25,14,Improv_Melody,34,5,42,110,2623223156
65,25,14,Improv_Melody,35,5,42,110,2623723100
65,25,14,Improv_Melody,36,5,42,127,2624222452
65,25,14,Improv_Melody,37,5,42,110,2624723292
65,25,14,Improv_Melody,38,5,42,110,2625223016
65,25,14,Improv_Melody,39,5,42,110,2625722884
65,25,14,Improv_Melody,40,1,38,50,2626204536
65,25,14,Improv_Melody,41,2,48,80,2626225108
65,25,14,Improv_Melody,42,2,72,80,2626227104
65,25,14,Improv_Melody,43,5,42,127,2626229868
65,25,14,Improv_Melody,44,5,42,110,2626723144
65,25,14,Improv_Melody,45,1,38,58,2626729404
65,25,14,Improv_Melody,46,1,38,54,2627208860
65,25,14,Improv_Melody,47,5,42,110,2627223060
65,25,14,Improv_Melody,48,1,38,61,2627701380
65,25,14,Improv_Melody,49,5,42,110,2627722588
65,25,14,Improv_Melody,50,5,42,127,2628223344
65,25,14,Improv_Melody,51,1,38,50,2628251020
65,25,14,Improv_Melody,52,1,38,45,2628719032
65,25,14,Improv_Melody,53,5,42,110,2628723036
65,25,14,Improv_Melody,54,5,42,110,2629222964
65,25,14,Improv_Melody,55,1,38,57,2629248228
65,25,14,Improv_Melody,56,5,42,110,2629722368
65,25,14,Improv_Melody,57,1,38,51,2629736256
65,25,14,Improv_Melody,58,2,43,80,2630225768
65,25,14,Improv_Melody,59,2,67,80,2630227840
65,25,14,Improv_Melody,60,5,42,127,2630230308
65,25,14,Improv_Melody,61,1,48,63,2630233204
65,25,14,Improv_Melody,62,5,42,110,2630722900
65,25,14,Improv_Melody,63,1,48,51,2630732304
65,25,14,Improv_Melody,64,5,42,110,2631222896
65,25,14,Improv_Melody,65,1,48,68,2631224540
65,25,14,Improv_Melody,66,5,42,110,2631723272
65,25,14,Improv_Melody,67,1,48,55,2631734324
65,25,14,Improv_Melody,68,1,48,68,2632199736
65,25,14,Improv_Melody,69,5,42,127,2632223116
65,25,14,Improv_Melody,70,1,48,59,2632686420
65,25,14,Improv_Melody,71,5,42,110,2632722888
65,25,14,Improv_Melody,72,1,48,63,2633216940
65,25,14,Improv_Melody,73,5,42,110,2633222368
65,25,14,Improv_Melody,74,5,42,110,2633723120
65,25,14,Improv_Melody,75,1,48,62,2633731552
65,25,14,Improv_Melody,76,2,45,80,2634225320
65,25,14,Improv_Melody,77,2,69,80,2634227620
65,25,14,Improv_Melody,78,5,42,127,2634230160
65,25,14,Improv_Melody,79,1,38,58,2634246968
65,25,14,Improv_Melody,80,1,48,59,2634289584
65,25,14,Improv_Melody,81,1,38,53,2634544772
65,25,14,Improv_Melody,82,1,48,46,2634547964
65,25,14,Improv_Melody,83,5,42,110,2634722936
65,25,14,Improv_Melody,84,1,38,54,2634867728
65,25,14,Improv_Melody,85,1,48,65,2634871444
65,25,14,Improv_Melody,86,5,42,110,2635223340
65,25,14,Improv_Melody,87,1,48,32,2635403280
65,25,14,Improv_Melody,88,1,38,50,2635406812
65,25,14,Improv_Melody,89,1,38,42,2635687576
65,25,14,Improv_Melody,90,1,48,33,2635691372
65,25,14,Improv_Melody,91,5,42,110,2635723052
65,25,14,Improv_Melody,92,5,42,127,2636222728
65,25,14,Improv_Melody,93,1,38,51,2636384348
65,25,14,Improv_Melody,94,5,42,110,2636722580
65,25,14,Improv_Melody,95,1,38,55,2636971136
65,25,14,Improv_Melody,96,5,42,110,2637223400
65,25,14,Improv_Melody,97,1,38,53,2637487512
65,25,14,Improv_Melody,98,5,42,110,2637722952
65,25,14,Improv_Melody,99,1,38,57,2638041220
65,25,14,Improv_Melody,100,2,41,80,2638225076
65,25,14,Improv_Melody,101,2,65,80,2638227304
65,25,14,Improv_Melody,102,5,42,127,2638230064
65,25,14,Improv_Melody,103,1,38,52,2638618420
65,25,14,Improv_Melody,104,5,42,110,2638722488
65,25,14,Improv_Melody,105,1,38,59,2639199120
65,25,14,Improv_Melody,106,5,42,110,2639223100
65,25,14,Improv_Melody,107,5,42,110,2639722732
65,25,14,Improv_Melody,108,1,38,53,2639763124
65,25,14,Improv_Melody,109,5,42,127,2640222656
65,25,14,Improv_Melody,110,1,38,60,2640280852
65,25,14,Improv_Melody,111,5,42,110,2640723180
65,25,14,Improv_Melody,112,1,48,42,2640789604
65,25,14,Improv_Melody,113,5,42,110,2641223028
65,25,14,Improv_Melody,114,1,48,65,2641362304
65,25,14,Improv_Melody,115,5,42,110,2641722728
65,25,14,Improv_Melody,116,1,48,54,2641839636
65,25,14,Improv_Melody,117,2,48,80,2642225084
65,25,14,Improv_Melody,118,2,72,80,2642227236
65,25,14,Improv_Melody,119,5,42,127,2642229916
65,25,14,Improv_Melody,120,1,48,57,2642374504
65,25,14,Improv_Melody,121,5,42,110,2642723040
65,25,14,Improv_Melody,122,1,38,49,2642881836
65,25,14,Improv_Melody,123,5,42,110,2643222812
65,25,14,Improv_Melody,124,1,38,76,2643349672
65,25,14,Improv_Melody,125,5,42,110,2643722512
65,25,14,Improv_Melody,126,1,38,66,2643891632
65,25,14,Improv_Melody,127,5,42,127,2644223484
65,25,14,Improv_Melody,128,1,38,71,2644376448
65,25,14,Improv_Melody,129,1,38,49,2644406348
65,25,14,Improv_Melody,130,5,42,110,2644723160
65,25,14,Improv_Melody,131,1,38,63,2644907096
65,25,14,Improv_Melody,132,5,42,110,2645222712
65,25,14,Improv_Melody,133,1,48,61,2645380512
65,25,14,Improv_Melody,134,5,42,110,2645722488
65,25,14,Improv_Melody,135,1,48,71,2645922124
65,25,14,Improv_Melody,136,2,43,80,2646225660
65,25,14,Improv_Melody,137,2,67,80,2646227736
65,25,14,Improv_Melody,138,5,42,127,2646230500
65,25,14,Improv_Melody,139,1,48,70,2646418920
65,25,14,Improv_Melody,140,5,42,110,2646722800
65,25,14,Improv_Melody,141,1,48,64,2646977336
65,25,14,Improv_Melody,142,5,42,110,2647222720
65,25,14,Improv_Melody,143,1,38,61,2647485188
65,25,14,Improv_Melody,144,1,38,40,2647519872
65,25,14,Improv_Melody,145,1,38,59,2647525912
65,25,14,Improv_Melody,146,5,42,110,2647723648
65,25,14,Improv_Melody,147,1,38,46,2647776132
65,25,14,Improv_Melody,148,1,38,56,2648064484
65,25,14,Improv_Melody,149,1,38,57,2648086976
65,25,14,Improv_Melody,150,5,42,127,2648223084
65,25,14,Improv_Melody,151,1,48,47,2648608664
65,25,14,Improv_Melody,152,5,42,110,2648722780
65,25,14,Improv_Melody,153,1,48,56,2649187728
65,25,14,Improv_Melody,154,1,48,52,2649211488
65,25,14,Improv_Melody,155,5,42,110,2649222452
65,25,14,Improv_Melody,156,5,42,110,2649723500
65,25,14,Improv_Melody,157,1,38,60,2649773620
65,25,14,Improv_Melody,158,1,38,40,2650008860
65,25,14,Improv_Melody,159,2,45,80,2650225456
65,25,14,Improv_Melody,160,2,69,80,2650227532
65,25,14,Improv_Melody,161,5,42,127,2650230368
65,25,14,Improv_Melody,162,1,38,61,2650350652
65,25,14,Improv_Melody,163,5,42,110,2650722744
65,25,14,Improv_Melody,164,1,48,51,2650850796
65,25,14,Improv_Melody,165,1,48,48,2650870148
65,25,14,Improv_Melody,166,5,42,110,2651223540
65,25,14,Improv_Melody,167,1,48,51,2651372168
65,25,14,Improv_Melody,168,1,48,56,2651388524
65,25,14,Improv_Melody,169,5,42,110,2651723368
65,25,14,Improv_Melody,170,1,38,38,2651942008
65,25,14,Improv_Melody,171,1,38,35,2652203356
65,25,14,Improv_Melody,172,5,42,127,2652222764
65,25,14,Improv_Melody,173,1,38,62,2652495364
65,25,14,Improv_Melody,174,1,38,53,2652517256
65,25,14,Improv_Melody,175,5,42,110,2652722404
65,25,14,Improv_Melody,176,1,48,52,2653022568
65,25,14,Improv_Melody,177,5,42,110,2653223448
65,25,14,Improv_Melody,178,1,48,48,2653581056
65,25,14,Improv_Melody,179,1,48,52,2653608488
65,25,14,Improv_Melody,180,5,42,110,2653723324
65,25,14,Improv_Melody,181,1,48,48,2654165632
65,25,14,Improv_Melody,182,2,41,80,2654225552
65,25,14,Improv_Melody,183,2,65,80,2654227476
65,25,14,Improv_Melody,184,5,42,127,2654230156
65,25,14,Improv_Melody,185,5,42,110,2654722388
65,25,14,Improv_Melody,186,1,48,55,2654755648
65,25,14,Improv_Melody,187,5,42,110,2655223356
65,25,14,Improv_Melody,188,1,48,65,2655303072
65,25,14,Improv_Melody,189,5,42,110,2655722832
65,25,14,Improv_Melody,190,1,48,47,2655756396
65,25,14,Improv_Melody,191,5,42,127,2656222680
65,25,14,Improv_Melody,192,1,48,59,2656312040
65,25,14,Improv_Melody,193,5,42,110,2656723428
65,25,14,Improv_Melody,194,1,48,55,2656803140
65,25,14,Improv_Melody,195,5,42,110,2657223204
65,25,14,Improv_Melody,196,1,48,56,2657312712
65,25,14,Improv_Melody,197,5,42,110,2657722904
65,25,14,Improv_Melody,198,1,38,59,2657867988
65,25,14,Improv_Melody,199,2,48,80,2658224956
65,25,14,Improv_Melody,200,2,72,80,2658227032
65,25,14,Improv_Melody,201,5,42,127,2658229568
65,25,14,Improv_Melody,202,1,38,49,2658375704
65,25,14,Improv_Melody,203,5,42,110,2658723360
65,25,14,Improv_Melody,204,1,38,64,2658922224
65,25,14,Improv_Melody,205,5,42,110,2659222760
65,25,14,Improv_Melody,206,1,38,56,2659450716
65,25,14,Improv_Melody,207,5,42,110,2659722584
65,25,14,Improv_Melody,208,1,38,58,2660034044
65,25,14,Improv_Melody,209,5,42,127,2660223308
65,25,14,Improv_Melody,210,1,38,57,2660552368
65,25,14,Improv_Melody,211,5,42,110,2660723084
65,25,14,Improv_Melody,212,1,38,52,2661083412
65,25,14,Improv_Melody,213,5,42,110,2661222632
65,25,14,Improv_Melody,214,1,38,60,2661644672
65,25,14,Improv_Melody,215,5,42,110,2661722348
65,25,14,Improv_Melody,216,1,38,49,2662150280
65,25,14,Improv_Melody,217,2,43,80,2662225596
65,25,14,Improv_Melody,218,2,67,80,2662227820
65,25,14,Improv_Melody,219,5,42,127,2662230436
65,25,14,Improv_Melody,220,5,42,110,2662723036
65,25,14,Improv_Melody,221,1,48,62,2662746876
65,25,14,Improv_Melody,222,5,42,110,2663222588
65,25,14,Improv_Melody,223,1,48,45,2663233864
65,25,14,Improv_Melody,224,5,42,110,2663723336
65,25,14,Improv_Melody,225,1,48,61,2663770212
65,25,14,Improv_Melody,226,5,42,127,2664223112
65,25,14,Improv_Melody,227,1,48,49,2664227276
65,25,14,Improv_Melody,228,5,42,110,2664722736
65,25,14,Improv_Melody,229,1,48,53,2664760256
65,25,14,Improv_Melody,230,5,42,110,2665222508
65,25,14,Improv_Melody,231,1,48,55,2665259364
65,25,14,Improv_Melody,232,5,42,110,2665723184
65,25,14,Improv_Melody,233,1,48,57,2665765048
65,25,14,Improv_Melody,234,2,45,80,2666225692
65,25,14,Improv_Melody,235,2,69,80,2666227840
65,25,14,Improv_Melody,236,5,42,127,2666230444
65,25,14,Improv_Melody,237,1,48,58,2666250772
65,25,14,Improv_Melody,238,5,42,110,2666722820
65,25,14,Improv_Melody,239,1,38,52,2666820708
65,25,14,Improv_Melody,240,1,38,58,2667070684
65,25,14,Improv_Melody,241,5,42,110,2667223544
65,25,14,Improv_Melody,242,1,38,59,2667392044
65,25,14,Improv_Melody,243,5,42,110,2667723092
65,25,14,Improv_Melody,244,1,38,64,2667890092
65,25,14,Improv_Melody,245,5,42,127,2668222944
65,25,14,Improv_Melody,246,1,38,71,2668261064
65,25,14,Improv_Melody,247,1,38,68,2668496828
65,25,14,Improv_Melody,248,1,38,46,2668524336
65,25,14,Improv_Melody,249,5,42,110,2668722448
65,25,14,Improv_Melody,250,1,48,59,2669090380
65,25,14,Improv_Melody,251,5,42,110,2669223272
65,25,14,Improv_Melody,252,1,48,50,2669382792
65,25,14,Improv_Melody,253,1,48,55,2669674956
65,25,14,Improv_Melody,254,5,42,110,2669722964
65,25,14,Improv_Melody,255,1,48,56,2670204572
65,25,14,Improv_Melody,256,2,41,80,2670225316
65,25,14,Improv_Melody,257,2,65,80,2670227472
65,25,14,Improv_Melody,258,5,42,127,2670230080
65,25,14,Improv_Melody,259,1,48,55,2670613480
65,25,14,Improv_Melody,260,5,42,110,2670722412
65,25,14,Improv_Melody,261,1,48,55,2670908736
65,25,14,Improv_Melody,262,5,42,110,2671223232
65,25,14,Improv_Melody,263,1,38,58,2671433488
65,25,14,Improv_Melody,264,1,38,45,2671686084
65,25,14,Improv_Melody,265,5,42,110,2671722852
65,25,14,Improv_Melody,266,1,38,64,2672007140
65,25,14,Improv_Melody,267,5,42,127,2672222460
65,25,14,Improv_Melody,268,1,38,58,2672561620
65,25,14,Improv_Melody,269,1,38,65,2672586880
65,25,14,Improv_Melody,270,5,42,110,2672723260
65,25,14,Improv_Melody,271,1,38,51,2673136168
65,25,14,Improv_Melody,272,1,38,58,2673152976
65,25,14,Improv_Melody,273,5,42,110,2673222880
65,25,14,Improv_Melody,274,1,48,51,2673670100
65,25,14,Improv_Melody,275,5,42,110,2673722728
65,25,14,Improv_Melody,276,1,48,41,2673926760
65,25,14,Improv_Melody,277,2,48,80,2674225140
65,25,14,Improv_Melody,278,2,72,80,2674227296
65,25,14,Improv_Melody,279,5,42,127,2674229976
65,25,14,Improv_Melody,280,1,48,57,2674248956
65,25,14,Improv_Melody,281,5,42,110,2674723244
65,25,14,Improv_Melody,282,1,48,57,2674745212
65,25,14,Improv_Melody,283,1,48,51,2674780120
65,25,14,Improv_Melody,284,5,42,110,2675222776
65,25,14,Improv_Melody,285,1,48,54,2675299420
65,25,14,Improv_Melody,286,5,42,110,2675722548
65,25,14,Improv_Melody,287,1,38,47,2675837784
65,25,14,Improv_Melody,288,5,42,127,2676223296
65,25,14,Improv_Melody,289,1,48,39,2676353348
65,25,14,Improv_Melody,290,1,48,65,2676369728
65,25,14,Improv_Melody,291,5,42,110,2676723120
65,25,14,Improv_Melody,292,1,38,32,2676919988
65,25,14,Improv_Melody,293,1,38,74,2677170492
65,25,14,Improv_Melody,294,1,38,48,2677196572
65,25,14,Improv_Melody,295,5,42,110,2677222792
65,25,14,Improv_Melody,296,1,48,45,2677523544
65,25,14,Improv_Melody,297,1,48,75,2677544760
65,25,14,Improv_Melody,298,5,42,110,2677722384
65,25,14,Improv_Melody,299,1,38,65,2678076556
65,25,14,Improv_Melody,300,1,48,60,2678120136
65,25,14,Improv_Melody,301,2,43,80,2678225812
65,25,14,Improv_Melody,302,2,67,80,2678227960
65,25,14,Improv_Melody,303,5,42,127,2678230572
65,25,14,Improv_Melody,304,1,38,53,2678683804
65,25,14,Improv_Melody,305,1,48,61,2678686324
65,25,14,Improv_Melody,306,5,42,110,2678723016
65,25,14,Improv_Melody,307,5,42,110,2679222768
65,25,14,Improv_Melody,308,1,38,38,2679230824
65,25,14,Improv_Melody,309,1,48,64,2679286304
65,25,14,Improv_Melody,310,5,42,110,2679723244
65,25,14,Improv_Melody,311,1,38,47,2679814548
65,25,14,Improv_Melody,312,1,48,57,2679847064
65,25,14,Improv_Melody,313,5,42,127,2680222968
65,25,14,Improv_Melody,314,1,38,48,2680299988
65,25,14,Improv_Melody,315,1,48,61,2680344776
65,25,14,Improv_Melody,316,5,42,110,2680722696
65,25,14,Improv_Melody,317,1,48,73,2680838608
65,25,14,Improv_Melody,318,1,38,56,2680857288
65,25,14,Improv_Melody,319,5,42,110,2681222620
65,25,14,Improv_Melody,320,1,38,50,2681367204
65,25,14,Improv_Melody,321,1,48,64,2681414088
65,25,14,Improv_Melody,322,5,42,110,2681723184
65,25,14,Improv_Melody,323,1,38,53,2681925140
65,25,14,Improv_Melody,324,1,48,64,2681966260
65,25,14,Improv_Melody,325,2,45,80,2682225796
65,25,14,Improv_Melody,326,2,69,80,2682227720
65,25,14,Improv_Melody,327,5,42,127,2682230176
65,25,14,Improv_Melody,328,1,48,75,2682473424
65,25,14,Improv_Melody,329,5,42,110,2682722848
65,25,14,Improv_Melody,330,1,48,75,2682782464
65,25,14,Improv_Melody,331,1,38,59,2683045236
65,25,14,Improv_Melody,332,5,42,110,2683223352
65,25,14,Improv_Melody,333,1,48,68,2683594672
65,25,14,Improv_Melody,334,5,42,110,2683723048
65,25,14,Improv_Melody,335,1,48,66,2683903908
65,25,14,Improv_Melody,336,5,42,127,2684222824
65,25,14,Improv_Melody,337,1,38,54,2684228636
65,25,14,Improv_Melody,338,5,42,110,2684722672
65,25,14,Improv_Melody,339,1,48,50,2684799612
65,25,14,Improv_Melody,340,1,48,48,2685028652
65,25,14,Improv_Melody,341,5,42,110,2685223320
65,25,14,Improv_Melody,342,1,38,56,2685386160
65,25,14,Improv_Melody,343,5,42,110,2685723020
65,25,14,Improv_Melody,344,1,48,38,2685910836
65,25,14,Improv_Melody,345,2,41,80,2686225072
65,25,14,Improv_Melody,346,2,65,80,2686227372
65,25,14,Improv_Melody,347,5,42,127,2686229912
65,25,14,Improv_Melody,348,1,48,57,2686231252
65,25,14,Improv_Melody,349,1,38,59,2686515324
65,25,14,Improv_Melody,350,5,42,110,2686722708
65,25,14,Improv_Melody,351,1,38,55,2687090944
65,25,14,Improv_Melody,352,5,42,110,2687223084
65,25,14,Improv_Melody,353,1,38,69,2687376720
65,25,14,Improv_Melody,354,1,48,56,2687673744
65,25,14,Improv_Melody,355,5,42,110,2687722852
65,25,14,Improv_Melody,356,1,38,58,2688216080
65,25,14,Improv_Melody,357,5,42,127,2688222924
65,25,14,Improv_Melody,358,1,38,49,2688491664
65,25,14,Improv_Melody,359,5,42,110,2688723432
65,25,14,Improv_Melody,360,1,48,52,2688821696
65,25,14,Improv_Melody,361,5,42,110,2689222984
65,25,14,Improv_Melody,362,1,38,48,2689334256
65,25,14,Improv_Melody,363,1,38,41,2689579300
65,25,14,Improv_Melody,364,5,42,110,2689722736
65,25,14,Improv_Melody,365,1,48,70,2689921748
65,25,14,Improv_Melody,366,2,48,80,2690225088
65,25,14,Improv_Melody,367,2,72,80,2690227392
65,25,14,Improv_Melody,368,5,42,127,2690229776
65,25,14,Improv_Melody,369,1,38,34,2690403056
65,25,14,Improv_Melody,370,1,38,69,2690514436
65,25,14,Improv_Melody,371,1,38,75,2690691088
65,25,14,Improv_Melody,372,5,42,110,2690723088
65,25,14,Improv_Melody,373,1,38,74,2690923208
65,25,14,Improv_Melody,0,9999,9999,9999,2610220116
65,25,14,Improv_Melody,1,9999,9999,9999,2610720852
65,25,14,Improv_Melody,2,9999,9999,9999,2611220572
65,25,14,Improv_Melody,3,9999,9999,9999,2611720292
65,25,14,Improv_Melody,4,9999,9999,9999,2612220988
65,25,14,Improv_Melody,5,9999,9999,9999,2612720708
65,25,14,Improv_Melody,6,9999,9999,9999,2613220432
65,25,14,Improv_Melody,7,9999,9999,9999,2613720152
65,25,14,Improv_Melody,8,9999,9999,9999,2614220920
65,25,14,Improv_Melody,9,9999,9999,9999,2614720584
65,25,14,Improv_Melody,10,9999,9999,9999,2615220304
65,25,14,Improv_Melody,11,9999,9999,9999,2615721072
65,25,14,Improv_Melody,12,9999,9999,9999,2616220792
65,25,14,Improv_Melody,13,9999,9999,9999,2616720440
65,25,14,Improv_Melody,14,9999,9999,9999,2617220212
65,25,14,Improv_Melody,15,9999,9999,9999,2617720904
65,25,14,Improv_Melody,16,9999,9999,9999,2618220628
65,25,14,Improv_Melody,17,9999,9999,9999,2618720360
65,25,14,Improv_Melody,18,9999,9999,9999,2619221056
65,25,14,Improv_Melody,19,9999,9999,9999,2619720776
65,25,14,Improv_Melody,20,9999,9999,9999,2620220500
65,25,14,Improv_Melody,21,9999,9999,9999,2620720220
65,25,14,Improv_Melody,22,9999,9999,9999,2621220916
65,25,14,Improv_Melody,23,9999,9999,9999,2621720636
65,25,14,Improv_Melody,24,9999,9999,9999,2622220360
65,25,14,Improv_Melody,25,9999,9999,9999,2622720096
65,25,14,Improv_Melody,26,9999,9999,9999,2623220788
65,25,14,Improv_Melody,27,9999,9999,9999,2623720512
65,25,14,Improv_Melody,28,9999,9999,9999,2624220232
65,25,14,Improv_Melody,29,9999,9999,9999,2624721000
65,25,14,Improv_Melody,30,9999,9999,9999,2625220724
65,25,14,Improv_Melody,31,9999,9999,9999,2625720368
65,25,14,Improv_Melody,32,9999,9999,9999,2626220084
65,25,14,Improv_Melody,33,9999,9999,9999,2626720852
65,25,14,Improv_Melody,34,9999,9999,9999,2627220544
65,25,14,Improv_Melody,35,9999,9999,9999,2627720296
65,25,14,Improv_Melody,36,9999,9999,9999,2628221048
65,25,14,Improv_Melody,37,9999,9999,9999,2628720740
65,25,14,Improv_Melody,38,9999,9999,9999,2629220448
65,25,14,Improv_Melody,39,9999,9999,9999,2629720148
65,25,14,Improv_Melody,40,9999,9999,9999,2630220896
65,25,14,Improv_Melody,41,9999,9999,9999,2630720608
65,25,14,Improv_Melody,42,9999,9999,9999,2631220308
65,25,14,Improv_Melody,43,9999,9999,9999,2631721052
65,25,14,Improv_Melody,44,9999,9999,9999,2632220748
65,25,14,Improv_Melody,45,9999,9999,9999,2632720448
65,25,14,Improv_Melody,46,9999,9999,9999,2633220148
65,25,14,Improv_Melody,47,9999,9999,9999,2633720900
65,25,14,Improv_Melody,48,9999,9999,9999,2634220600
65,25,14,Improv_Melody,49,9999,9999,9999,2634720348
65,25,14,Improv_Melody,50,9999,9999,9999,2635221044
65,25,14,Improv_Melody,51,9999,9999,9999,2635720760
65,25,14,Improv_Melody,52,9999,9999,9999,2636220512
65,25,14,Improv_Melody,53,9999,9999,9999,2636720208
65,25,14,Improv_Melody,54,9999,9999,9999,2637220956
65,25,14,Improv_Melody,55,9999,9999,9999,2637720660
65,25,14,Improv_Melody,56,9999,9999,9999,2638220408
65,25,14,Improv_Melody,57,9999,9999,9999,2638720120
65,25,14,Improv_Melody,58,9999,9999,9999,2639220808
65,25,14,Improv_Melody,59,9999,9999,9999,2639720512
65,25,14,Improv_Melody,60,9999,9999,9999,2640220216
65,25,14,Improv_Melody,61,9999,9999,9999,2640720960
65,25,14,Improv_Melody,62,9999,9999,9999,2641220660
65,25,14,Improv_Melody,63,9999,9999,9999,2641720436
65,25,14,Improv_Melody,64,9999,9999,9999,2642220136
65,25,14,Improv_Melody,65,9999,9999,9999,2642720820
65,25,14,Improv_Melody,66,9999,9999,9999,2643220596
65,25,14,Improv_Melody,67,9999,9999,9999,2643720296
65,25,14,Improv_Melody,68,9999,9999,9999,2644221044
65,25,14,Improv_Melody,69,9999,9999,9999,2644720720
65,25,14,Improv_Melody,70,9999,9999,9999,2645220420
65,25,14,Improv_Melody,71,9999,9999,9999,2645720120
65,25,14,Improv_Melody,72,9999,9999,9999,2646220864
65,25,14,Improv_Melody,73,9999,9999,9999,2646720580
65,25,14,Improv_Melody,74,9999,9999,9999,2647220280
65,25,14,Improv_Melody,75,9999,9999,9999,2647721056
65,25,14,Improv_Melody,76,9999,9999,9999,2648220788
65,25,14,Improv_Melody,77,9999,9999,9999,2648720488
65,25,14,Improv_Melody,78,9999,9999,9999,2649220156
65,25,14,Improv_Melody,79,9999,9999,9999,2649720912
65,25,14,Improv_Melody,80,9999,9999,9999,2650220660
65,25,14,Improv_Melody,81,9999,9999,9999,2650720376
65,25,14,Improv_Melody,82,9999,9999,9999,2651221100
65,25,14,Improv_Melody,83,9999,9999,9999,2651720776
65,25,14,Improv_Melody,84,9999,9999,9999,2652220472
65,25,14,Improv_Melody,85,9999,9999,9999,2652720184
65,25,14,Improv_Melody,86,9999,9999,9999,2653220932
65,25,14,Improv_Melody,87,9999,9999,9999,2653720660
65,25,14,Improv_Melody,88,9999,9999,9999,2654220376
65,25,14,Improv_Melody,89,9999,9999,9999,2654720096
65,25,14,Improv_Melody,90,9999,9999,9999,2655220840
65,25,14,Improv_Melody,91,9999,9999,9999,2655720540
65,25,14,Improv_Melody,92,9999,9999,9999,2656220240
65,25,14,Improv_Melody,93,9999,9999,9999,2656720984
65,25,14,Improv_Melody,94,9999,9999,9999,2657220688
65,25,14,Improv_Melody,95,9999,9999,9999,2657720388
65,25,14,Improv_Melody,96,9999,9999,9999,2658220084
65,25,14,Improv_Melody,97,9999,9999,9999,2658720844
65,25,14,Improv_Melody,98,9999,9999,9999,2659220544
65,25,14,Improv_Melody,99,9999,9999,9999,2659720292
65,25,14,Improv_Melody,100,9999,9999,9999,2660221012
65,25,14,Improv_Melody,101,9999,9999,9999,2660720716
65,25,14,Improv_Melody,102,9999,9999,9999,2661220416
65,25,14,Improv_Melody,103,9999,9999,9999,2661720132
65,25,14,Improv_Melody,104,9999,9999,9999,2662220876
65,25,14,Improv_Melody,105,9999,9999,9999,2662720596
65,25,14,Improv_Melody,106,9999,9999,9999,2663220296
65,25,14,Improv_Melody,107,9999,9999,9999,2663721044
65,25,14,Improv_Melody,108,9999,9999,9999,2664220744
65,25,14,Improv_Melody,109,9999,9999,9999,2664720444
65,25,14,Improv_Melody,110,9999,9999,9999,2665220216
65,25,14,Improv_Melody,111,9999,9999,9999,2665720888
65,25,14,Improv_Melody,112,9999,9999,9999,2666220664
65,25,14,Improv_Melody,113,9999,9999,9999,2666720376
65,25,14,Improv_Melody,114,9999,9999,9999,2667221100
65,25,14,Improv_Melody,115,9999,9999,9999,2667720800
65,25,14,Improv_Melody,116,9999,9999,9999,2668220500
65,25,14,Improv_Melody,117,9999,9999,9999,2668720232
65,25,14,Improv_Melody,118,9999,9999,9999,2669220980
65,25,14,Improv_Melody,119,9999,9999,9999,2669720672
65,25,14,Improv_Melody,120,9999,9999,9999,2670220368
65,25,14,Improv_Melody,121,9999,9999,9999,2670720120
65,25,14,Improv_Melody,122,9999,9999,9999,2671220792
65,25,14,Improv_Melody,123,9999,9999,9999,2671720556
65,25,14,Improv_Melody,124,9999,9999,9999,2672220240
65,25,14,Improv_Melody,125,9999,9999,9999,2672720964
65,25,14,Improv_Melody,126,9999,9999,9999,2673220660
65,25,14,Improv_Melody,127,9999,9999,9999,2673720436
65,25,14,Improv_Melody,128,9999,9999,9999,2674220120
65,25,14,Improv_Melody,129,9999,9999,9999,2674720880
65,25,14,Improv_Melody,130,9999,9999,9999,2675220556
65,25,14,Improv_Melody,131,9999,9999,9999,2675720256
65,25,14,Improv_Melody,132,9999,9999,9999,2676221004
65,25,14,Improv_Melody,133,9999,9999,9999,2676720752
65,25,14,Improv_Melody,134,9999,9999,9999,2677220428
65,25,14,Improv_Melody,135,9999,9999,9999,2677720164
65,25,14,Improv_Melody,136,9999,9999,9999,2678220864
65,25,14,Improv_Melody,137,9999,9999,9999,2678720572
65,25,14,Improv_Melody,138,9999,9999,9999,2679220324
65,25,14,Improv_Melody,139,9999,9999,9999,2679721024
65,25,14,Improv_Melody,140,9999,9999,9999,2680220752
65,25,14,Improv_Melody,141,9999,9999,9999,2680720476
65,25,14,Improv_Melody,142,9999,9999,9999,2681220180
65,25,14,Improv_Melody,143,9999,9999,9999,2681720892
65,25,14,Improv_Melody,144,9999,9999,9999,2682220616
65,25,14,Improv_Melody,145,9999,9999,9999,2682720332
65,25,14,Improv_Melody,146,9999,9999,9999,2683221056
65,25,14,Improv_Melody,147,9999,9999,9999,2683720756
65,25,14,Improv_Melody,148,9999,9999,9999,2684220532
65,25,14,Improv_Melody,149,9999,9999,9999,2684720228
65,25,14,Improv_Melody,150,9999,9999,9999,2685220952
65,25,14,Improv_Melody,151,9999,9999,9999,2685720652
65,25,14,Improv_Melody,152,9999,9999,9999,2686220352
65,25,14,Improv_Melody,153,9999,9999,9999,2686720120
65,25,14,Improv_Melody,154,9999,9999,9999,2687220788
65,25,14,Improv_Melody,155,9999,9999,9999,2687720556
65,25,14,Improv_Melody,156,9999,9999,9999,2688220256
65,25,14,Improv_Melody,157,9999,9999,9999,2688720988
65,25,14,Improv_Melody,158,9999,9999,9999,2689220692
65,25,14,Improv_Melody,159,9999,9999,9999,2689720444
65,25,14,Improv_Melody,160,9999,9999,9999,2690220140
65,25,14,Improv_Melody,161,9999,9999,9999,2690720872
