pid,taskRunCount,taskID,taskName,i,channel,pitch,velocity,microseconds
1,0,Ticks_Pract_8,0,5,42,127,98073900
601,0,Ticks_Pract_8,1,5,42,127,98873656
601,0,Ticks_Pract_8,2,5,42,127,99673364
601,0,Ticks_Pract_8,3,5,42,127,100474240
601,0,Ticks_Pract_8,4,5,42,127,101273848
601,0,Ticks_Pract_8,5,1,48,78,101303964
601,0,Ticks_Pract_8,6,1,48,58,102041228
601,0,Ticks_Pract_8,7,5,42,127,102073796
601,0,Ticks_Pract_8,8,1,48,70,102836020
601,0,Ticks_Pract_8,9,5,42,127,102873380
601,0,Ticks_Pract_8,10,1,48,76,103648848
601,0,Ticks_Pract_8,11,5,42,127,103674384
601,0,Ticks_Pract_8,12,1,48,67,104461372
601,0,Ticks_Pract_8,13,5,42,127,104473968
601,0,Ticks_Pract_8,14,5,42,127,105273636
601,0,Ticks_Pract_8,15,1,48,68,105311036
601,0,Ticks_Pract_8,16,5,42,127,106073320
601,0,Ticks_Pract_8,17,1,48,63,106113612
601,0,Ticks_Pract_8,18,5,42,127,106874396
601,0,Ticks_Pract_8,19,1,48,59,106903396
601,0,Ticks_Pract_8,20,5,42,127,107673908
601,0,Ticks_Pract_8,21,1,48,64,107680616
601,0,Ticks_Pract_8,22,5,42,127,108473792
601,0,Ticks_Pract_8,23,1,48,69,108482296
601,0,Ticks_Pract_8,24,1,48,65,109261440
601,0,Ticks_Pract_8,25,5,42,127,109273368
601,0,Ticks_Pract_8,26,1,48,62,110048236
601,0,Ticks_Pract_8,27,5,42,127,110074296
601,0,Ticks_Pract_8,28,1,48,60,110848568
601,0,Ticks_Pract_8,29,5,42,127,110874256
601,0,Ticks_Pract_8,30,1,48,65,111647032
601,0,Ticks_Pract_8,31,5,42,127,111673616
601,0,Ticks_Pract_8,32,1,48,62,112433748
601,0,Ticks_Pract_8,33,5,42,127,112473304
601,0,Ticks_Pract_8,34,1,48,58,113261184
601,0,Ticks_Pract_8,35,5,42,127,113274380
601,0,Ticks_Pract_8,36,5,42,127,114074196
601,0,Ticks_Pract_8,37,1,48,55,114127804
601,0,Ticks_Pract_8,38,5,42,127,114873632
601,0,Ticks_Pract_8,39,1,48,50,114885572
601,0,Ticks_Pract_8,40,1,48,54,115671004
601,0,Ticks_Pract_8,41,5,42,127,115673508
601,0,Ticks_Pract_8,42,5,42,127,116474220
601,0,Ticks_Pract_8,43,1,48,48,116479508
601,0,Ticks_Pract_8,44,1,48,55,117273500
601,0,Ticks_Pract_8,45,5,42,127,117275140
601,0,Ticks_Pract_8,46,1,48,54,118017548
601,0,Ticks_Pract_8,47,5,42,127,118073680
601,0,Ticks_Pract_8,48,1,48,48,118855300
601,0,Ticks_Pract_8,49,5,42,127,118873436
601,0,Ticks_Pract_8,50,1,48,54,119641500
601,0,Ticks_Pract_8,51,5,42,127,119674220
601,0,Ticks_Pract_8,52,1,48,58,120424400
601,0,Ticks_Pract_8,53,5,42,127,120474100
601,0,Ticks_Pract_8,54,1,48,50,121238196
601,0,Ticks_Pract_8,55,5,42,127,121273984
601,0,Ticks_Pract_8,56,1,48,53,122070172
601,0,Ticks_Pract_8,0,9999,9999,9999,98071612
601,0,Ticks_Pract_8,1,9999,9999,9999,98871368
601,0,Ticks_Pract_8,2,9999,9999,9999,99671148
601,0,Ticks_Pract_8,3,9999,9999,9999,100471876
601,0,Ticks_Pract_8,4,9999,9999,9999,101271632
601,0,Ticks_Pract_8,5,9999,9999,9999,102071360
601,0,Ticks_Pract_8,6,9999,9999,9999,102871092
601,0,Ticks_Pract_8,7,9999,9999,9999,103671872
601,0,Ticks_Pract_8,8,9999,9999,9999,104471608
601,0,Ticks_Pract_8,9,9999,9999,9999,105271344
601,0,Ticks_Pract_8,10,9999,9999,9999,106071104
601,0,Ticks_Pract_8,11,9999,9999,9999,106871884
601,0,Ticks_Pract_8,12,9999,9999,9999,107671620
601,0,Ticks_Pract_8,13,9999,9999,9999,108471352
601,0,Ticks_Pract_8,14,9999,9999,9999,109271156
601,0,Ticks_Pract_8,15,9999,9999,9999,110071860
601,0,Ticks_Pract_8,16,9999,9999,9999,110871668
601,0,Ticks_Pract_8,17,9999,9999,9999,111671404
601,0,Ticks_Pract_8,18,9999,9999,9999,112471088
601,0,Ticks_Pract_8,19,9999,9999,9999,113271868
601,0,Ticks_Pract_8,20,9999,9999,9999,114071608
601,0,Ticks_Pract_8,21,9999,9999,9999,114871344
601,0,Ticks_Pract_8,22,9999,9999,9999,115671144
601,0,Ticks_Pract_8,23,9999,9999,9999,116471856
601,0,Ticks_Pract_8,24,9999,9999,9999,117271664
601,0,Ticks_Pract_8,25,9999,9999,9999,118071392
601,0,Ticks_Pract_8,26,9999,9999,9999,118871148
601,0,Ticks_Pract_8,27,9999,9999,9999,119671856
601,0,Ticks_Pract_8,28,9999,9999,9999,120471664
601,0,Ticks_Pract_8,29,9999,9999,9999,121271396
602,1,Ticks_Pract_5,0,5,42,127,171714880
602,1,Ticks_Pract_5,1,5,42,127,172214744
602,1,Ticks_Pract_5,2,5,42,127,172715508
602,1,Ticks_Pract_5,3,1,48,55,172739648
602,1,Ticks_Pract_5,4,1,48,64,173206864
602,1,Ticks_Pract_5,5,5,42,127,173215120
602,1,Ticks_Pract_5,6,1,48,65,173709328
602,1,Ticks_Pract_5,7,5,42,127,173714668
602,1,Ticks_Pract_5,8,5,42,127,174214668
602,1,Ticks_Pract_5,9,1,48,65,174215556
602,1,Ticks_Pract_5,10,1,48,68,174707068
602,1,Ticks_Pract_5,11,5,42,127,174715252
602,1,Ticks_Pract_5,12,1,48,71,175187836
602,1,Ticks_Pract_5,13,5,42,127,175214872
602,1,Ticks_Pract_5,14,1,48,73,175679056
602,1,Ticks_Pract_5,15,5,42,127,175714716
602,1,Ticks_Pract_5,16,1,48,62,176162512
602,1,Ticks_Pract_5,17,5,42,127,176215380
602,1,Ticks_Pract_5,18,1,48,63,176647552
602,1,Ticks_Pract_5,19,5,42,127,176715224
602,1,Ticks_Pract_5,20,1,48,53,177131688
602,1,Ticks_Pract_5,21,5,42,127,177214820
602,1,Ticks_Pract_5,22,1,48,59,177647388
602,1,Ticks_Pract_5,23,5,42,127,177714660
602,1,Ticks_Pract_5,24,1,48,58,178121648
602,1,Ticks_Pract_5,25,5,42,127,178215404
602,1,Ticks_Pract_5,26,1,48,64,178623284
602,1,Ticks_Pract_5,27,5,42,127,178714948
602,1,Ticks_Pract_5,28,1,48,71,179133460
602,1,Ticks_Pract_5,29,5,42,127,179214644
602,1,Ticks_Pract_5,30,1,48,61,179612732
602,1,Ticks_Pract_5,31,5,42,127,179714476
602,1,Ticks_Pract_5,32,1,48,63,180166576
602,1,Ticks_Pract_5,33,5,42,127,180215228
602,1,Ticks_Pract_5,34,1,48,55,180670312
602,1,Ticks_Pract_5,35,5,42,127,180714776
602,1,Ticks_Pract_5,36,1,48,52,181159016
602,1,Ticks_Pract_5,37,5,42,127,181214696
602,1,Ticks_Pract_5,38,1,48,51,181671868
602,1,Ticks_Pract_5,39,5,42,127,181715436
602,1,Ticks_Pract_5,40,1,48,60,182159380
602,1,Ticks_Pract_5,41,5,42,127,182215204
602,1,Ticks_Pract_5,42,1,48,56,182645604
602,1,Ticks_Pract_5,43,5,42,127,182714676
602,1,Ticks_Pract_5,44,1,48,59,183133108
602,1,Ticks_Pract_5,45,5,42,127,183214520
602,1,Ticks_Pract_5,46,1,48,63,183617600
602,1,Ticks_Pract_5,47,5,42,127,183715396
602,1,Ticks_Pract_5,48,1,48,55,184117516
602,1,Ticks_Pract_5,49,5,42,127,184214868
602,1,Ticks_Pract_5,50,1,48,61,184621620
602,1,Ticks_Pract_5,51,5,42,127,184714500
602,1,Ticks_Pract_5,52,1,48,40,185188808
602,1,Ticks_Pract_5,53,5,42,127,185215316
602,1,Ticks_Pract_5,54,1,48,42,185690744
602,1,Ticks_Pract_5,55,5,42,127,185715160
602,1,Ticks_Pract_5,56,1,48,37,186164460
602,1,Ticks_Pract_5,57,5,42,127,186214856
602,1,Ticks_Pract_5,58,1,48,42,186663032
602,1,Ticks_Pract_5,59,5,42,127,186714472
602,1,Ticks_Pract_5,60,1,48,42,187148140
602,1,Ticks_Pract_5,61,5,42,127,187215140
602,1,Ticks_Pract_5,62,1,48,45,187630104
602,1,Ticks_Pract_5,63,5,42,127,187715132
602,1,Ticks_Pract_5,64,1,48,35,188126056
602,1,Ticks_Pract_5,65,5,42,127,188214652
602,1,Ticks_Pract_5,66,1,48,36,188648496
602,1,Ticks_Pract_5,67,5,42,127,188715244
602,1,Ticks_Pract_5,68,1,48,48,189159708
602,1,Ticks_Pract_5,69,5,42,127,189215460
602,1,Ticks_Pract_5,70,1,48,48,189641076
602,1,Ticks_Pract_5,71,5,42,127,189714784
602,1,Ticks_Pract_5,72,1,48,48,190147956
602,1,Ticks_Pract_5,73,5,42,127,190214480
602,1,Ticks_Pract_5,74,1,48,47,190678244
602,1,Ticks_Pract_5,75,5,42,127,190715368
602,1,Ticks_Pract_5,76,1,48,47,191166792
602,1,Ticks_Pract_5,77,5,42,127,191215140
602,1,Ticks_Pract_5,78,1,48,47,191667156
602,1,Ticks_Pract_5,0,9999,9999,9999,171712592
602,1,Ticks_Pract_5,1,9999,9999,9999,172212308
602,1,Ticks_Pract_5,2,9999,9999,9999,172713072
602,1,Ticks_Pract_5,3,9999,9999,9999,173212760
602,1,Ticks_Pract_5,4,9999,9999,9999,173712456
602,1,Ticks_Pract_5,5,9999,9999,9999,174212156
602,1,Ticks_Pract_5,6,9999,9999,9999,174712892
602,1,Ticks_Pract_5,7,9999,9999,9999,175212660
602,1,Ticks_Pract_5,8,9999,9999,9999,175712356
602,1,Ticks_Pract_5,9,9999,9999,9999,176213092
602,1,Ticks_Pract_5,10,9999,9999,9999,176712788
602,1,Ticks_Pract_5,11,9999,9999,9999,177212532
602,1,Ticks_Pract_5,12,9999,9999,9999,177712228
602,1,Ticks_Pract_5,13,9999,9999,9999,178212968
602,1,Ticks_Pract_5,14,9999,9999,9999,178712664
602,1,Ticks_Pract_5,15,9999,9999,9999,179212360
602,1,Ticks_Pract_5,16,9999,9999,9999,179712112
602,1,Ticks_Pract_5,17,9999,9999,9999,180212796
602,1,Ticks_Pract_5,18,9999,9999,9999,180712564
602,1,Ticks_Pract_5,19,9999,9999,9999,181212260
602,1,Ticks_Pract_5,20,9999,9999,9999,181713000
602,1,Ticks_Pract_5,21,9999,9999,9999,182212696
602,1,Ticks_Pract_5,22,9999,9999,9999,182712392
602,1,Ticks_Pract_5,23,9999,9999,9999,183212088
602,1,Ticks_Pract_5,24,9999,9999,9999,183712888
602,1,Ticks_Pract_5,25,9999,9999,9999,184212580
602,1,Ticks_Pract_5,26,9999,9999,9999,184712288
602,1,Ticks_Pract_5,27,9999,9999,9999,185213032
602,1,Ticks_Pract_5,28,9999,9999,9999,185712724
602,1,Ticks_Pract_5,29,9999,9999,9999,186212420
602,1,Ticks_Pract_5,30,9999,9999,9999,186712112
602,1,Ticks_Pract_5,31,9999,9999,9999,187212856
602,1,Ticks_Pract_5,32,9999,9999,9999,187712600
602,1,Ticks_Pract_5,33,9999,9999,9999,188212292
602,1,Ticks_Pract_5,34,9999,9999,9999,188713036
602,1,Ticks_Pract_5,35,9999,9999,9999,189212728
602,1,Ticks_Pract_5,36,9999,9999,9999,189712496
602,1,Ticks_Pract_5,37,9999,9999,9999,190212196
602,1,Ticks_Pract_5,38,9999,9999,9999,190712936
602,1,Ticks_Pract_5,39,9999,9999,9999,191212632
603,2,T1_SMS_8,0,5,42,127,294482476
603,2,T1_SMS_8,1,1,48,31,294965300
603,2,T1_SMS_8,2,5,42,127,295281912
603,2,T1_SMS_8,3,5,42,127,296081816
603,2,T1_SMS_8,4,5,42,127,296881496
603,2,T1_SMS_8,5,1,48,46,296952604
603,2,T1_SMS_8,6,5,42,127,297682424
603,2,T1_SMS_8,7,1,48,40,297698184
603,2,T1_SMS_8,8,1,48,40,298413752
603,2,T1_SMS_8,9,5,42,127,298482300
603,2,T1_SMS_8,10,1,48,42,299155596
603,2,T1_SMS_8,11,5,42,127,299281648
603,2,T1_SMS_8,12,1,48,29,299977096
603,2,T1_SMS_8,13,5,42,127,300081380
603,2,T1_SMS_8,14,1,48,22,300805920
603,2,T1_SMS_8,15,5,42,127,300882348
603,2,T1_SMS_8,16,1,48,27,301590244
603,2,T1_SMS_8,17,5,42,127,301682304
603,2,T1_SMS_8,18,1,48,35,302363728
603,2,T1_SMS_8,19,5,42,127,302481652
603,2,T1_SMS_8,20,1,48,29,303168944
603,2,T1_SMS_8,21,5,42,127,303281384
603,2,T1_SMS_8,22,1,48,27,303989924
603,2,T1_SMS_8,23,5,42,127,304082252
603,2,T1_SMS_8,24,1,48,26,304749040
603,2,T1_SMS_8,25,5,42,127,304882272
603,2,T1_SMS_8,26,1,48,21,305571888
603,2,T1_SMS_8,27,5,42,127,305681632
603,2,T1_SMS_8,28,1,48,29,306379172
603,2,T1_SMS_8,29,5,42,127,306481516
603,2,T1_SMS_8,30,1,48,33,307158040
603,2,T1_SMS_8,31,5,42,127,307282320
603,2,T1_SMS_8,32,1,48,33,308005192
603,2,T1_SMS_8,33,5,42,127,308082216
603,2,T1_SMS_8,34,1,48,29,308815492
603,2,T1_SMS_8,35,5,42,127,308881724
603,2,T1_SMS_8,36,1,48,22,309669380
603,2,T1_SMS_8,37,5,42,127,309681456
603,2,T1_SMS_8,38,1,48,29,310439496
603,2,T1_SMS_8,39,5,42,127,310482236
603,2,T1_SMS_8,40,1,48,29,311184700
603,2,T1_SMS_8,41,5,42,127,311282104
603,2,T1_SMS_8,42,1,48,27,312010164
603,2,T1_SMS_8,43,5,42,127,312082000
603,2,T1_SMS_8,44,1,48,33,312834876
603,2,T1_SMS_8,45,5,42,127,312881512
603,2,T1_SMS_8,46,1,48,29,313624508
603,2,T1_SMS_8,47,5,42,127,313682168
603,2,T1_SMS_8,48,1,48,26,314365380
603,2,T1_SMS_8,49,5,42,127,314481884
603,2,T1_SMS_8,50,1,48,26,315170796
603,2,T1_SMS_8,51,5,42,127,315281840
603,2,T1_SMS_8,52,1,48,24,316045728
603,2,T1_SMS_8,53,5,42,127,316081592
603,2,T1_SMS_8,54,1,48,29,316851300
603,2,T1_SMS_8,55,5,42,127,316882444
603,2,T1_SMS_8,56,1,48,33,317589396
603,2,T1_SMS_8,57,5,42,127,317681956
603,2,T1_SMS_8,58,5,42,127,318481844
603,2,T1_SMS_8,59,1,48,14,318515704
603,2,T1_SMS_8,60,1,48,31,319252292
603,2,T1_SMS_8,61,5,42,127,319281496
603,2,T1_SMS_8,62,1,48,33,320006996
603,2,T1_SMS_8,63,5,42,127,320082224
603,2,T1_SMS_8,64,1,48,30,320815556
603,2,T1_SMS_8,65,5,42,127,320881884
603,2,T1_SMS_8,66,1,48,39,321599536
603,2,T1_SMS_8,67,5,42,127,321681840
603,2,T1_SMS_8,68,1,48,44,322375328
603,2,T1_SMS_8,69,5,42,127,322481484
603,2,T1_SMS_8,70,1,48,46,323218748
603,2,T1_SMS_8,71,5,42,127,323282204
603,2,T1_SMS_8,72,1,48,43,324012940
603,2,T1_SMS_8,73,5,42,127,324082160
603,2,T1_SMS_8,74,1,48,42,324809984
603,2,T1_SMS_8,75,5,42,127,324881820
603,2,T1_SMS_8,76,1,48,46,325524744
603,2,T1_SMS_8,77,5,42,127,325681612
603,2,T1_SMS_8,78,1,48,35,326386864
603,2,T1_SMS_8,79,5,42,127,326482136
603,2,T1_SMS_8,80,5,42,127,327281952
603,2,T1_SMS_8,81,1,48,27,327283512
603,2,T1_SMS_8,82,1,48,36,328039460
603,2,T1_SMS_8,83,5,42,127,328081752
603,2,T1_SMS_8,84,1,48,36,328850564
603,2,T1_SMS_8,85,5,42,127,328881708
603,2,T1_SMS_8,86,1,48,33,329627408
603,2,T1_SMS_8,87,5,42,127,329682264
603,2,T1_SMS_8,88,1,48,35,330453912
603,2,T1_SMS_8,89,5,42,127,330481924
603,2,T1_SMS_8,90,1,48,26,331255968
603,2,T1_SMS_8,91,5,42,127,331281732
603,2,T1_SMS_8,92,1,48,43,331995936
603,2,T1_SMS_8,93,5,42,127,332081464
603,2,T1_SMS_8,94,1,48,38,332772488
603,2,T1_SMS_8,95,5,42,127,332882480
603,2,T1_SMS_8,96,1,48,25,333620088
603,2,T1_SMS_8,97,5,42,127,333682004
603,2,T1_SMS_8,98,5,42,127,334481744
603,2,T1_SMS_8,99,5,42,127,335281500
603,2,T1_SMS_8,100,1,48,37,335285140
603,2,T1_SMS_8,101,1,48,36,336046492
603,2,T1_SMS_8,102,5,42,127,336082496
603,2,T1_SMS_8,103,5,42,127,336882016
603,2,T1_SMS_8,104,1,48,31,336887528
603,2,T1_SMS_8,105,5,42,127,337681744
603,2,T1_SMS_8,106,1,48,26,337738520
603,2,T1_SMS_8,107,5,42,127,338481404
603,2,T1_SMS_8,108,1,48,33,338545580
603,2,T1_SMS_8,109,5,42,127,339282212
603,2,T1_SMS_8,110,1,48,29,339287800
603,2,T1_SMS_8,111,1,48,29,340054000
603,2,T1_SMS_8,112,5,42,127,340082384
603,2,T1_SMS_8,113,1,48,29,340830628
603,2,T1_SMS_8,114,5,42,127,340881672
603,2,T1_SMS_8,115,1,48,23,341581892
603,2,T1_SMS_8,116,5,42,127,341681464
603,2,T1_SMS_8,117,1,48,27,342417228
603,2,T1_SMS_8,118,5,42,127,342482260
603,2,T1_SMS_8,119,1,48,17,343187340
603,2,T1_SMS_8,120,5,42,127,343282200
603,2,T1_SMS_8,121,1,48,20,343994404
603,2,T1_SMS_8,122,5,42,127,344081800
603,2,T1_SMS_8,123,1,48,14,344807228
603,2,T1_SMS_8,124,5,42,127,344881388
603,2,T1_SMS_8,125,1,48,16,345570832
603,2,T1_SMS_8,126,5,42,127,345682176
603,2,T1_SMS_8,127,1,48,17,346383204
603,2,T1_SMS_8,128,5,42,127,346482204
603,2,T1_SMS_8,129,1,48,24,347230536
603,2,T1_SMS_8,130,5,42,127,347281732
603,2,T1_SMS_8,131,5,42,127,348081396
603,2,T1_SMS_8,132,5,42,127,348882200
603,2,T1_SMS_8,133,1,48,18,349540772
603,2,T1_SMS_8,134,5,42,127,349682228
603,2,T1_SMS_8,135,1,48,29,350283956
603,2,T1_SMS_8,136,5,42,127,350481964
603,2,T1_SMS_8,137,1,48,30,351193568
603,2,T1_SMS_8,138,5,42,127,351281488
603,2,T1_SMS_8,139,1,48,39,352030228
603,2,T1_SMS_8,140,5,42,127,352082268
603,2,T1_SMS_8,141,1,48,19,352869628
603,2,T1_SMS_8,142,5,42,127,352882000
603,2,T1_SMS_8,143,1,48,33,353606452
603,2,T1_SMS_8,144,5,42,127,353681884
603,2,T1_SMS_8,145,1,48,21,354391000
603,2,T1_SMS_8,146,5,42,127,354481616
603,2,T1_SMS_8,147,1,48,28,355208764
603,2,T1_SMS_8,148,5,42,127,355282324
603,2,T1_SMS_8,149,1,48,28,355996524
603,2,T1_SMS_8,150,5,42,127,356082056
603,2,T1_SMS_8,151,1,48,41,356796036
603,2,T1_SMS_8,152,5,42,127,356881788
603,2,T1_SMS_8,153,1,48,29,357648276
603,2,T1_SMS_8,154,5,42,127,357681448
603,2,T1_SMS_8,155,1,48,28,358466888
603,2,T1_SMS_8,156,5,42,127,358482180
603,2,T1_SMS_8,157,1,48,29,359260264
603,2,T1_SMS_8,158,5,42,127,359281988
603,2,T1_SMS_8,159,1,48,28,360073384
603,2,T1_SMS_8,160,5,42,127,360081944
603,2,T1_SMS_8,161,1,48,31,360872888
603,2,T1_SMS_8,162,5,42,127,360881380
603,2,T1_SMS_8,163,1,48,44,361649516
603,2,T1_SMS_8,164,5,42,127,361682232
603,2,T1_SMS_8,165,5,42,127,362482048
603,2,T1_SMS_8,166,1,48,38,362496760
603,2,T1_SMS_8,167,1,48,32,363276584
603,2,T1_SMS_8,168,5,42,127,363281776
603,2,T1_SMS_8,169,1,48,39,364000092
603,2,T1_SMS_8,170,5,42,127,364081732
603,2,T1_SMS_8,171,5,42,127,364882244
603,2,T1_SMS_8,172,1,48,35,365663108
603,2,T1_SMS_8,173,5,42,127,365681992
603,2,T1_SMS_8,174,1,48,42,366426272
603,2,T1_SMS_8,175,5,42,127,366481948
603,2,T1_SMS_8,176,1,48,35,367190472
603,2,T1_SMS_8,177,5,42,127,367281608
603,2,T1_SMS_8,178,1,48,39,367988408
603,2,T1_SMS_8,179,5,42,127,368082164
603,2,T1_SMS_8,180,1,48,38,368804820
603,2,T1_SMS_8,181,5,42,127,368881972
603,2,T1_SMS_8,182,1,48,31,369640684
603,2,T1_SMS_8,183,5,42,127,369681708
603,2,T1_SMS_8,184,1,48,29,370442436
603,2,T1_SMS_8,185,5,42,127,370481588
603,2,T1_SMS_8,186,1,48,38,371232744
603,2,T1_SMS_8,187,5,42,127,371282692
603,2,T1_SMS_8,188,1,48,43,372053224
603,2,T1_SMS_8,189,5,42,127,372082052
603,2,T1_SMS_8,190,5,42,127,372881720
603,2,T1_SMS_8,191,1,48,36,372896056
603,2,T1_SMS_8,192,5,42,127,373681452
603,2,T1_SMS_8,193,1,48,34,373713740
603,2,T1_SMS_8,194,1,48,29,374479424
603,2,T1_SMS_8,195,5,42,127,374482448
603,2,T1_SMS_8,196,1,48,39,375274524
603,2,T1_SMS_8,197,5,42,127,375282108
603,2,T1_SMS_8,198,5,42,127,376081776
603,2,T1_SMS_8,199,1,48,32,376115712
603,2,T1_SMS_8,200,1,48,38,376847516
603,2,T1_SMS_8,201,5,42,127,376881504
603,2,T1_SMS_8,202,1,48,43,377678460
603,2,T1_SMS_8,203,5,42,127,377682308
603,2,T1_SMS_8,204,1,48,41,378443260
603,2,T1_SMS_8,205,5,42,127,378481892
603,2,T1_SMS_8,206,1,48,40,379232452
603,2,T1_SMS_8,207,5,42,127,379281624
603,2,T1_SMS_8,208,1,48,40,380063368
603,2,T1_SMS_8,209,5,42,127,380081580
603,2,T1_SMS_8,210,5,42,127,380882220
603,2,T1_SMS_8,211,1,48,37,380897228
603,2,T1_SMS_8,212,5,42,127,381681952
603,2,T1_SMS_8,213,1,48,47,381687688
603,2,T1_SMS_8,214,1,48,37,382438860
603,2,T1_SMS_8,215,5,42,127,382481680
603,2,T1_SMS_8,216,1,48,30,383217880
603,2,T1_SMS_8,217,5,42,127,383281416
603,2,T1_SMS_8,218,1,48,27,384035936
603,2,T1_SMS_8,219,5,42,127,384082220
603,2,T1_SMS_8,220,1,48,33,384832104
603,2,T1_SMS_8,221,5,42,127,384882100
603,2,T1_SMS_8,222,5,42,127,385681768
603,2,T1_SMS_8,223,1,48,50,386330892
603,2,T1_SMS_8,224,5,42,127,386481500
603,2,T1_SMS_8,225,1,48,41,387127360
603,2,T1_SMS_8,226,5,42,127,387282352
603,2,T1_SMS_8,227,1,48,33,387908840
603,2,T1_SMS_8,228,5,42,127,388082236
603,2,T1_SMS_8,229,1,48,36,388695924
603,2,T1_SMS_8,230,5,42,127,388881744
603,2,T1_SMS_8,231,1,48,38,389508456
603,2,T1_SMS_8,232,5,42,127,389681480
603,2,T1_SMS_8,233,1,48,35,390388148
603,2,T1_SMS_8,0,9999,9999,9999,294479964
603,2,T1_SMS_8,1,9999,9999,9999,295279700
603,2,T1_SMS_8,2,9999,9999,9999,296079452
603,2,T1_SMS_8,3,9999,9999,9999,296879208
603,2,T1_SMS_8,4,9999,9999,9999,297679988
603,2,T1_SMS_8,5,9999,9999,9999,298479716
603,2,T1_SMS_8,6,9999,9999,9999,299279432
603,2,T1_SMS_8,7,9999,9999,9999,300079168
603,2,T1_SMS_8,8,9999,9999,9999,300879988
603,2,T1_SMS_8,9,9999,9999,9999,301679720
603,2,T1_SMS_8,10,9999,9999,9999,302479436
603,2,T1_SMS_8,11,9999,9999,9999,303279172
603,2,T1_SMS_8,12,9999,9999,9999,304079964
603,2,T1_SMS_8,13,9999,9999,9999,304879684
603,2,T1_SMS_8,14,9999,9999,9999,305679416
603,2,T1_SMS_8,15,9999,9999,9999,306479152
603,2,T1_SMS_8,16,9999,9999,9999,307279956
603,2,T1_SMS_8,17,9999,9999,9999,308079704
603,2,T1_SMS_8,18,9999,9999,9999,308879436
603,2,T1_SMS_8,19,9999,9999,9999,309679168
603,2,T1_SMS_8,20,9999,9999,9999,310479948
603,2,T1_SMS_8,21,9999,9999,9999,311279700
603,2,T1_SMS_8,22,9999,9999,9999,312079416
603,2,T1_SMS_8,23,9999,9999,9999,312879148
603,2,T1_SMS_8,24,9999,9999,9999,313679952
603,2,T1_SMS_8,25,9999,9999,9999,314479672
603,2,T1_SMS_8,26,9999,9999,9999,315279480
603,2,T1_SMS_8,27,9999,9999,9999,316079156
603,2,T1_SMS_8,28,9999,9999,9999,316879936
603,2,T1_SMS_8,29,9999,9999,9999,317679668
603,2,T1_SMS_8,30,9999,9999,9999,318479408
603,2,T1_SMS_8,31,9999,9999,9999,319279208
603,2,T1_SMS_8,32,9999,9999,9999,320079940
603,2,T1_SMS_8,33,9999,9999,9999,320879672
603,2,T1_SMS_8,34,9999,9999,9999,321679480
603,2,T1_SMS_8,35,9999,9999,9999,322479196
603,2,T1_SMS_8,36,9999,9999,9999,323279920
603,2,T1_SMS_8,37,9999,9999,9999,324079724
603,2,T1_SMS_8,38,9999,9999,9999,324879460
603,2,T1_SMS_8,39,9999,9999,9999,325679176
603,2,T1_SMS_8,40,9999,9999,9999,326479924
603,2,T1_SMS_8,41,9999,9999,9999,327279664
603,2,T1_SMS_8,42,9999,9999,9999,328079464
603,2,T1_SMS_8,43,9999,9999,9999,328879200
603,2,T1_SMS_8,44,9999,9999,9999,329679980
603,2,T1_SMS_8,45,9999,9999,9999,330479712
603,2,T1_SMS_8,46,9999,9999,9999,331279444
603,2,T1_SMS_8,47,9999,9999,9999,332079180
603,2,T1_SMS_8,48,9999,9999,9999,332879972
603,2,T1_SMS_8,49,9999,9999,9999,333679716
603,2,T1_SMS_8,50,9999,9999,9999,334479456
603,2,T1_SMS_8,51,9999,9999,9999,335279212
603,2,T1_SMS_8,52,9999,9999,9999,336079988
603,2,T1_SMS_8,53,9999,9999,9999,336879728
603,2,T1_SMS_8,54,9999,9999,9999,337679456
603,2,T1_SMS_8,55,9999,9999,9999,338479192
603,2,T1_SMS_8,56,9999,9999,9999,339279924
603,2,T1_SMS_8,57,9999,9999,9999,340079724
603,2,T1_SMS_8,58,9999,9999,9999,340879460
603,2,T1_SMS_8,59,9999,9999,9999,341679176
603,2,T1_SMS_8,60,9999,9999,9999,342479972
603,2,T1_SMS_8,61,9999,9999,9999,343279704
603,2,T1_SMS_8,62,9999,9999,9999,344079440
603,2,T1_SMS_8,63,9999,9999,9999,344879172
603,2,T1_SMS_8,64,9999,9999,9999,345679960
603,2,T1_SMS_8,65,9999,9999,9999,346479696
603,2,T1_SMS_8,66,9999,9999,9999,347279444
603,2,T1_SMS_8,67,9999,9999,9999,348079184
603,2,T1_SMS_8,68,9999,9999,9999,348879984
603,2,T1_SMS_8,69,9999,9999,9999,349679716
603,2,T1_SMS_8,70,9999,9999,9999,350479452
603,2,T1_SMS_8,71,9999,9999,9999,351279200
603,2,T1_SMS_8,72,9999,9999,9999,352079980
603,2,T1_SMS_8,73,9999,9999,9999,352879712
603,2,T1_SMS_8,74,9999,9999,9999,353679448
603,2,T1_SMS_8,75,9999,9999,9999,354479180
603,2,T1_SMS_8,76,9999,9999,9999,355279960
603,2,T1_SMS_8,77,9999,9999,9999,356079692
603,2,T1_SMS_8,78,9999,9999,9999,356879428
603,2,T1_SMS_8,79,9999,9999,9999,357679160
603,2,T1_SMS_8,80,9999,9999,9999,358479964
603,2,T1_SMS_8,81,9999,9999,9999,359279700
603,2,T1_SMS_8,82,9999,9999,9999,360079432
603,2,T1_SMS_8,83,9999,9999,9999,360879164
603,2,T1_SMS_8,84,9999,9999,9999,361679944
603,2,T1_SMS_8,85,9999,9999,9999,362479684
603,2,T1_SMS_8,86,9999,9999,9999,363279412
603,2,T1_SMS_8,87,9999,9999,9999,364079220
603,2,T1_SMS_8,88,9999,9999,9999,364879956
603,2,T1_SMS_8,89,9999,9999,9999,365679704
603,2,T1_SMS_8,90,9999,9999,9999,366479440
603,2,T1_SMS_8,91,9999,9999,9999,367279172
603,2,T1_SMS_8,92,9999,9999,9999,368079952
603,2,T1_SMS_8,93,9999,9999,9999,368879684
603,2,T1_SMS_8,94,9999,9999,9999,369679420
603,2,T1_SMS_8,95,9999,9999,9999,370479152
603,2,T1_SMS_8,96,9999,9999,9999,371279956
603,2,T1_SMS_8,97,9999,9999,9999,372079688
603,2,T1_SMS_8,98,9999,9999,9999,372879432
603,2,T1_SMS_8,99,9999,9999,9999,373679164
603,2,T1_SMS_8,100,9999,9999,9999,374479936
603,2,T1_SMS_8,101,9999,9999,9999,375279672
603,2,T1_SMS_8,102,9999,9999,9999,376079412
603,2,T1_SMS_8,103,9999,9999,9999,376879216
603,2,T1_SMS_8,104,9999,9999,9999,377679944
603,2,T1_SMS_8,105,9999,9999,9999,378479680
603,2,T1_SMS_8,106,9999,9999,9999,379279412
603,2,T1_SMS_8,107,9999,9999,9999,380079220
603,2,T1_SMS_8,108,9999,9999,9999,380879932
603,2,T1_SMS_8,109,9999,9999,9999,381679664
603,2,T1_SMS_8,110,9999,9999,9999,382479464
603,2,T1_SMS_8,111,9999,9999,9999,383279200
603,2,T1_SMS_8,112,9999,9999,9999,384079932
603,2,T1_SMS_8,113,9999,9999,9999,384879664
603,2,T1_SMS_8,114,9999,9999,9999,385679480
603,2,T1_SMS_8,115,9999,9999,9999,386479212
603,2,T1_SMS_8,116,9999,9999,9999,387279992
603,2,T1_SMS_8,117,9999,9999,9999,388079724
603,2,T1_SMS_8,118,9999,9999,9999,388879456
603,2,T1_SMS_8,119,9999,9999,9999,389679192
604,4,T1_SMS_5,0,5,42,127,439835116
604,4,T1_SMS_5,1,5,42,127,440334832
604,4,T1_SMS_5,2,5,42,127,440834328
604,4,T1_SMS_5,3,1,48,59,440891100
604,4,T1_SMS_5,4,5,42,127,441335292
604,4,T1_SMS_5,5,1,48,71,441370200
604,4,T1_SMS_5,6,5,42,127,441834836
604,4,T1_SMS_5,7,1,48,47,441853216
604,4,T1_SMS_5,8,1,48,40,442333016
604,4,T1_SMS_5,9,5,42,127,442334524
604,4,T1_SMS_5,10,5,42,127,442835272
604,4,T1_SMS_5,11,1,48,38,442844228
604,4,T1_SMS_5,12,1,48,39,443332688
604,4,T1_SMS_5,13,5,42,127,443335036
604,4,T1_SMS_5,14,1,48,47,443805596
604,4,T1_SMS_5,15,5,42,127,443834656
604,4,T1_SMS_5,16,1,48,49,444296548
604,4,T1_SMS_5,17,5,42,127,444334648
604,4,T1_SMS_5,18,1,48,56,444777764
604,4,T1_SMS_5,19,5,42,127,444835312
604,4,T1_SMS_5,20,1,48,60,445271104
604,4,T1_SMS_5,21,5,42,127,445334788
604,4,T1_SMS_5,22,1,48,62,445796076
604,4,T1_SMS_5,23,5,42,127,445834780
604,4,T1_SMS_5,24,1,48,58,446303024
604,4,T1_SMS_5,25,5,42,127,446335296
604,4,T1_SMS_5,26,5,42,127,446835000
604,4,T1_SMS_5,27,1,48,43,446842680
604,4,T1_SMS_5,28,5,42,127,447334768
604,4,T1_SMS_5,29,1,48,57,447341404
604,4,T1_SMS_5,30,5,42,127,447834612
604,4,T1_SMS_5,31,1,48,50,447846712
604,4,T1_SMS_5,32,1,48,57,448327460
604,4,T1_SMS_5,33,5,42,127,448335124
604,4,T1_SMS_5,34,5,42,127,448834900
604,4,T1_SMS_5,35,1,48,56,448842504
604,4,T1_SMS_5,36,5,42,127,449334596
604,4,T1_SMS_5,37,1,48,45,449336080
604,4,T1_SMS_5,38,1,48,53,449825248
604,4,T1_SMS_5,39,5,42,127,449835752
604,4,T1_SMS_5,40,1,48,49,450312456
604,4,T1_SMS_5,41,5,42,127,450335520
604,4,T1_SMS_5,42,1,48,55,450808408
604,4,T1_SMS_5,43,5,42,127,450834772
604,4,T1_SMS_5,44,1,48,54,451285960
604,4,T1_SMS_5,45,5,42,127,451334468
604,4,T1_SMS_5,46,1,48,47,451791264
604,4,T1_SMS_5,47,5,42,127,451835200
604,4,T1_SMS_5,48,1,48,58,452255880
604,4,T1_SMS_5,49,5,42,127,452334824
604,4,T1_SMS_5,50,1,48,62,452774792
604,4,T1_SMS_5,51,5,42,127,452834740
604,4,T1_SMS_5,52,1,48,61,453296260
604,4,T1_SMS_5,53,5,42,127,453335556
604,4,T1_SMS_5,54,1,48,56,453758852
604,4,T1_SMS_5,55,5,42,127,453835028
604,4,T1_SMS_5,56,1,48,52,454261608
604,4,T1_SMS_5,57,5,42,127,454334796
604,4,T1_SMS_5,58,1,48,54,454757644
604,4,T1_SMS_5,59,5,42,127,454834492
604,4,T1_SMS_5,60,1,48,56,455276936
604,4,T1_SMS_5,61,5,42,127,455335532
604,4,T1_SMS_5,62,1,48,58,455779696
604,4,T1_SMS_5,63,5,42,127,455835004
604,4,T1_SMS_5,64,1,48,54,456287472
604,4,T1_SMS_5,65,5,42,127,456334700
604,4,T1_SMS_5,66,1,48,65,456804136
604,4,T1_SMS_5,67,5,42,127,456834392
604,4,T1_SMS_5,68,1,48,59,457297184
604,4,T1_SMS_5,69,5,42,127,457335436
604,4,T1_SMS_5,70,1,48,62,457785056
604,4,T1_SMS_5,71,5,42,127,457834832
604,4,T1_SMS_5,72,1,48,57,458252864
604,4,T1_SMS_5,73,5,42,127,458334528
604,4,T1_SMS_5,74,1,48,51,458810404
604,4,T1_SMS_5,75,5,42,127,458835416
604,4,T1_SMS_5,76,1,48,54,459319524
604,4,T1_SMS_5,77,5,42,127,459334964
604,4,T1_SMS_5,78,1,48,47,459802436
604,4,T1_SMS_5,79,5,42,127,459834808
604,4,T1_SMS_5,80,1,48,42,460312904
604,4,T1_SMS_5,81,5,42,127,460334552
604,4,T1_SMS_5,82,1,48,55,460811920
604,4,T1_SMS_5,83,5,42,127,460835292
604,4,T1_SMS_5,84,1,48,48,461322616
604,4,T1_SMS_5,85,5,42,127,461334840
604,4,T1_SMS_5,86,1,48,52,461821040
604,4,T1_SMS_5,87,5,42,127,461834684
604,4,T1_SMS_5,88,1,48,51,462315492
604,4,T1_SMS_5,89,5,42,127,462335200
604,4,T1_SMS_5,90,1,48,54,462833308
604,4,T1_SMS_5,91,5,42,127,462835044
604,4,T1_SMS_5,92,5,42,127,463334748
604,4,T1_SMS_5,93,1,48,51,463346920
604,4,T1_SMS_5,94,5,42,127,463834440
604,4,T1_SMS_5,95,1,48,55,463843092
604,4,T1_SMS_5,96,1,48,53,464317716
604,4,T1_SMS_5,97,5,42,127,464335248
604,4,T1_SMS_5,98,1,48,53,464832068
604,4,T1_SMS_5,99,5,42,127,464835092
604,4,T1_SMS_5,100,1,48,56,465331912
604,4,T1_SMS_5,101,5,42,127,465334488
604,4,T1_SMS_5,102,5,42,127,465835388
604,4,T1_SMS_5,103,1,48,54,465851820
604,4,T1_SMS_5,104,1,48,59,466320980
604,4,T1_SMS_5,105,5,42,127,466335224
604,4,T1_SMS_5,106,1,48,53,466828308
604,4,T1_SMS_5,107,5,42,127,466834992
604,4,T1_SMS_5,108,1,48,57,467315508
604,4,T1_SMS_5,109,5,42,127,467334468
604,4,T1_SMS_5,110,1,48,62,467810716
604,4,T1_SMS_5,111,5,42,127,467835280
604,4,T1_SMS_5,112,1,48,54,468306000
604,4,T1_SMS_5,113,5,42,127,468335128
604,4,T1_SMS_5,114,5,42,127,468834756
604,4,T1_SMS_5,115,1,48,48,468836772
604,4,T1_SMS_5,116,1,48,60,469298060
604,4,T1_SMS_5,117,5,42,127,469335416
604,4,T1_SMS_5,118,1,48,60,469788980
604,4,T1_SMS_5,119,5,42,127,469835184
604,4,T1_SMS_5,120,1,48,57,470261072
604,4,T1_SMS_5,121,5,42,127,470334952
604,4,T1_SMS_5,122,1,48,57,470751416
604,4,T1_SMS_5,123,5,42,127,470834572
604,4,T1_SMS_5,124,1,48,58,471308180
604,4,T1_SMS_5,125,5,42,127,471335288
604,4,T1_SMS_5,126,1,48,59,471807800
604,4,T1_SMS_5,127,5,42,127,471834984
604,4,T1_SMS_5,128,1,48,53,472315496
604,4,T1_SMS_5,129,5,42,127,472334604
604,4,T1_SMS_5,130,1,48,56,472793724
604,4,T1_SMS_5,131,5,42,127,472834372
604,4,T1_SMS_5,132,1,48,53,473307260
604,4,T1_SMS_5,133,5,42,127,473335264
604,4,T1_SMS_5,134,1,48,57,473803360
604,4,T1_SMS_5,135,5,42,127,473834960
604,4,T1_SMS_5,136,1,48,53,474330360
604,4,T1_SMS_5,137,5,42,127,474334504
604,4,T1_SMS_5,138,5,42,127,474835252
604,4,T1_SMS_5,139,1,48,59,474841516
604,4,T1_SMS_5,140,1,48,60,475326300
604,4,T1_SMS_5,141,5,42,127,475335016
604,4,T1_SMS_5,142,1,48,71,475830260
604,4,T1_SMS_5,143,5,42,127,475834856
604,4,T1_SMS_5,144,5,42,127,476334336
604,4,T1_SMS_5,145,1,48,63,476349652
604,4,T1_SMS_5,146,1,48,61,476823144
604,4,T1_SMS_5,147,5,42,127,476835220
604,4,T1_SMS_5,148,1,48,58,477333408
604,4,T1_SMS_5,149,5,42,127,477334920
604,4,T1_SMS_5,150,5,42,127,477834548
604,4,T1_SMS_5,151,1,48,62,477865784
604,4,T1_SMS_5,152,5,42,127,478335288
604,4,T1_SMS_5,153,1,48,59,478365556
604,4,T1_SMS_5,154,5,42,127,478835056
604,4,T1_SMS_5,155,1,48,72,478848500
604,4,T1_SMS_5,156,1,48,68,479320132
604,4,T1_SMS_5,157,5,42,127,479334896
604,4,T1_SMS_5,158,1,48,62,479827676
604,4,T1_SMS_5,159,5,42,127,479834440
604,4,T1_SMS_5,160,5,42,127,480335260
604,4,T1_SMS_5,161,1,48,66,480352144
604,4,T1_SMS_5,162,5,42,127,480834956
604,4,T1_SMS_5,163,1,48,62,480845108
604,4,T1_SMS_5,164,5,42,127,481334800
604,4,T1_SMS_5,165,1,48,61,481370164
604,4,T1_SMS_5,166,5,42,127,481835444
604,4,T1_SMS_5,167,1,48,63,481842332
604,4,T1_SMS_5,168,5,42,127,482335068
604,4,T1_SMS_5,169,1,48,57,482361848
604,4,T1_SMS_5,170,1,48,60,482803604
604,4,T1_SMS_5,171,5,42,127,482834832
604,4,T1_SMS_5,172,1,48,46,483326784
604,4,T1_SMS_5,173,5,42,127,483334752
604,4,T1_SMS_5,174,1,48,52,483830976
604,4,T1_SMS_5,175,5,42,127,483835196
604,4,T1_SMS_5,176,1,48,53,484321544
604,4,T1_SMS_5,177,5,42,127,484334816
604,4,T1_SMS_5,178,1,48,45,484818996
604,4,T1_SMS_5,179,5,42,127,484834880
604,4,T1_SMS_5,180,1,48,54,485327944
604,4,T1_SMS_5,181,5,42,127,485335524
604,4,T1_SMS_5,182,1,48,53,485806468
604,4,T1_SMS_5,183,5,42,127,485835072
604,4,T1_SMS_5,184,1,48,54,486309748
604,4,T1_SMS_5,185,5,42,127,486334916
604,4,T1_SMS_5,186,1,48,61,486826868
604,4,T1_SMS_5,187,5,42,127,486834760
604,4,T1_SMS_5,188,1,48,59,487322156
604,4,T1_SMS_5,189,5,42,127,487335204
604,4,T1_SMS_5,190,1,48,51,487822072
604,4,T1_SMS_5,191,5,42,127,487834900
604,4,T1_SMS_5,192,5,42,127,488334748
604,4,T1_SMS_5,193,1,48,45,488348940
604,4,T1_SMS_5,194,5,42,127,488834592
604,4,T1_SMS_5,195,1,48,48,488837716
604,4,T1_SMS_5,196,5,42,127,489335036
604,4,T1_SMS_5,197,1,48,54,489341224
604,4,T1_SMS_5,198,5,42,127,489834880
604,4,T1_SMS_5,199,1,48,51,489849668
604,4,T1_SMS_5,200,5,42,127,490334948
604,4,T1_SMS_5,201,1,48,48,490359536
604,4,T1_SMS_5,202,5,42,127,490835316
604,4,T1_SMS_5,203,1,48,52,490850708
604,4,T1_SMS_5,204,1,48,51,491303828
604,4,T1_SMS_5,205,5,42,127,491335008
604,4,T1_SMS_5,206,1,48,46,491803524
604,4,T1_SMS_5,207,5,42,127,491834700
604,4,T1_SMS_5,208,1,48,64,492289684
604,4,T1_SMS_5,209,5,42,127,492334592
604,4,T1_SMS_5,210,1,48,59,492805584
604,4,T1_SMS_5,211,5,42,127,492835384
604,4,T1_SMS_5,212,1,48,61,493325476
604,4,T1_SMS_5,213,5,42,127,493334784
604,4,T1_SMS_5,214,5,42,127,493834636
604,4,T1_SMS_5,215,1,48,61,493842692
604,4,T1_SMS_5,216,1,48,56,494294644
604,4,T1_SMS_5,217,5,42,127,494335368
604,4,T1_SMS_5,218,1,48,61,494808552
604,4,T1_SMS_5,219,5,42,127,494835064
604,4,T1_SMS_5,220,1,48,71,495316324
604,4,T1_SMS_5,221,5,42,127,495334760
604,4,T1_SMS_5,222,1,48,66,495803152
604,4,T1_SMS_5,223,5,42,127,495834676
604,4,T1_SMS_5,224,1,48,59,496330152
604,4,T1_SMS_5,225,5,42,127,496335344
604,4,T1_SMS_5,226,1,48,63,496813316
604,4,T1_SMS_5,227,5,42,127,496834964
604,4,T1_SMS_5,228,1,48,58,497322432
604,4,T1_SMS_5,229,5,42,127,497334584
604,4,T1_SMS_5,230,1,48,52,497826240
604,4,T1_SMS_5,231,5,42,127,497835476
604,4,T1_SMS_5,232,1,48,59,498295268
604,4,T1_SMS_5,233,5,42,127,498335168
604,4,T1_SMS_5,234,1,48,54,498818824
604,4,T1_SMS_5,235,5,42,127,498834716
604,4,T1_SMS_5,236,1,48,57,499310364
604,4,T1_SMS_5,237,5,42,127,499334412
604,4,T1_SMS_5,238,1,48,59,499825772
604,4,T1_SMS_5,239,5,42,127,499835228
604,4,T1_SMS_5,240,1,48,53,500312156
604,4,T1_SMS_5,241,5,42,127,500334924
604,4,T1_SMS_5,242,1,48,57,500810800
604,4,T1_SMS_5,243,5,42,127,500834616
604,4,T1_SMS_5,244,1,48,60,501301816
604,4,T1_SMS_5,245,5,42,127,501335360
604,4,T1_SMS_5,246,1,48,57,501831204
604,4,T1_SMS_5,247,5,42,127,501835052
604,4,T1_SMS_5,248,5,42,127,502334756
604,4,T1_SMS_5,249,1,48,51,502349920
604,4,T1_SMS_5,250,5,42,127,502834600
604,4,T1_SMS_5,251,1,48,53,502844828
604,4,T1_SMS_5,252,5,42,127,503335244
604,4,T1_SMS_5,253,1,48,44,503364564
604,4,T1_SMS_5,254,5,42,127,503835160
604,4,T1_SMS_5,255,1,48,45,503852048
604,4,T1_SMS_5,256,1,48,48,504319932
604,4,T1_SMS_5,257,5,42,127,504334776
604,4,T1_SMS_5,0,9999,9999,9999,439832680
604,4,T1_SMS_5,1,9999,9999,9999,440332396
604,4,T1_SMS_5,2,9999,9999,9999,440832112
604,4,T1_SMS_5,3,9999,9999,9999,441332856
604,4,T1_SMS_5,4,9999,9999,9999,441832552
604,4,T1_SMS_5,5,9999,9999,9999,442332244
604,4,T1_SMS_5,6,9999,9999,9999,442832984
604,4,T1_SMS_5,7,9999,9999,9999,443332748
604,4,T1_SMS_5,8,9999,9999,9999,443832368
604,4,T1_SMS_5,9,9999,9999,9999,444332140
604,4,T1_SMS_5,10,9999,9999,9999,444832880
604,4,T1_SMS_5,11,9999,9999,9999,445332576
604,4,T1_SMS_5,12,9999,9999,9999,445832272
604,4,T1_SMS_5,13,9999,9999,9999,446333012
604,4,T1_SMS_5,14,9999,9999,9999,446832712
604,4,T1_SMS_5,15,9999,9999,9999,447332408
604,4,T1_SMS_5,16,9999,9999,9999,447832176
604,4,T1_SMS_5,17,9999,9999,9999,448332912
604,4,T1_SMS_5,18,9999,9999,9999,448832612
604,4,T1_SMS_5,19,9999,9999,9999,449332308
604,4,T1_SMS_5,20,9999,9999,9999,449833020
604,4,T1_SMS_5,21,9999,9999,9999,450332788
604,4,T1_SMS_5,22,9999,9999,9999,450832484
604,4,T1_SMS_5,23,9999,9999,9999,451332180
604,4,T1_SMS_5,24,9999,9999,9999,451832916
604,4,T1_SMS_5,25,9999,9999,9999,452332612
604,4,T1_SMS_5,26,9999,9999,9999,452832304
604,4,T1_SMS_5,27,9999,9999,9999,453333048
604,4,T1_SMS_5,28,9999,9999,9999,453832816
604,4,T1_SMS_5,29,9999,9999,9999,454332512
604,4,T1_SMS_5,30,9999,9999,9999,454832208
604,4,T1_SMS_5,31,9999,9999,9999,455332948
604,4,T1_SMS_5,32,9999,9999,9999,455832644
604,4,T1_SMS_5,33,9999,9999,9999,456332336
604,4,T1_SMS_5,34,9999,9999,9999,456832104
604,4,T1_SMS_5,35,9999,9999,9999,457332852
604,4,T1_SMS_5,36,9999,9999,9999,457832548
604,4,T1_SMS_5,37,9999,9999,9999,458332240
604,4,T1_SMS_5,38,9999,9999,9999,458832980
604,4,T1_SMS_5,39,9999,9999,9999,459332676
604,4,T1_SMS_5,40,9999,9999,9999,459832372
604,4,T1_SMS_5,41,9999,9999,9999,460332116
604,4,T1_SMS_5,42,9999,9999,9999,460832856
604,4,T1_SMS_5,43,9999,9999,9999,461332552
604,4,T1_SMS_5,44,9999,9999,9999,461832248
604,4,T1_SMS_5,45,9999,9999,9999,462332988
604,4,T1_SMS_5,46,9999,9999,9999,462832708
604,4,T1_SMS_5,47,9999,9999,9999,463332460
604,4,T1_SMS_5,48,9999,9999,9999,463832152
604,4,T1_SMS_5,49,9999,9999,9999,464332888
604,4,T1_SMS_5,50,9999,9999,9999,464832584
604,4,T1_SMS_5,51,9999,9999,9999,465332276
604,4,T1_SMS_5,52,9999,9999,9999,465833024
604,4,T1_SMS_5,53,9999,9999,9999,466332788
604,4,T1_SMS_5,54,9999,9999,9999,466832484
604,4,T1_SMS_5,55,9999,9999,9999,467332180
604,4,T1_SMS_5,56,9999,9999,9999,467832920
604,4,T1_SMS_5,57,9999,9999,9999,468332616
604,4,T1_SMS_5,58,9999,9999,9999,468832320
604,4,T1_SMS_5,59,9999,9999,9999,469333056
604,4,T1_SMS_5,60,9999,9999,9999,469832824
604,4,T1_SMS_5,61,9999,9999,9999,470332516
604,4,T1_SMS_5,62,9999,9999,9999,470832188
604,4,T1_SMS_5,63,9999,9999,9999,471332928
604,4,T1_SMS_5,64,9999,9999,9999,471832696
604,4,T1_SMS_5,65,9999,9999,9999,472332392
604,4,T1_SMS_5,66,9999,9999,9999,472832088
604,4,T1_SMS_5,67,9999,9999,9999,473332828
604,4,T1_SMS_5,68,9999,9999,9999,473832524
604,4,T1_SMS_5,69,9999,9999,9999,474332220
604,4,T1_SMS_5,70,9999,9999,9999,474832964
604,4,T1_SMS_5,71,9999,9999,9999,475332728
604,4,T1_SMS_5,72,9999,9999,9999,475832424
604,4,T1_SMS_5,73,9999,9999,9999,476332124
604,4,T1_SMS_5,74,9999,9999,9999,476832860
604,4,T1_SMS_5,75,9999,9999,9999,477332564
604,4,T1_SMS_5,76,9999,9999,9999,477832260
604,4,T1_SMS_5,77,9999,9999,9999,478333000
604,4,T1_SMS_5,78,9999,9999,9999,478832696
604,4,T1_SMS_5,79,9999,9999,9999,479332460
604,4,T1_SMS_5,80,9999,9999,9999,479832152
604,4,T1_SMS_5,81,9999,9999,9999,480332900
604,4,T1_SMS_5,82,9999,9999,9999,480832596
604,4,T1_SMS_5,83,9999,9999,9999,481332292
604,4,T1_SMS_5,84,9999,9999,9999,481833008
604,4,T1_SMS_5,85,9999,9999,9999,482332780
604,4,T1_SMS_5,86,9999,9999,9999,482832472
604,4,T1_SMS_5,87,9999,9999,9999,483332164
604,4,T1_SMS_5,88,9999,9999,9999,483832908
604,4,T1_SMS_5,89,9999,9999,9999,484332604
604,4,T1_SMS_5,90,9999,9999,9999,484832372
604,4,T1_SMS_5,91,9999,9999,9999,485333088
604,4,T1_SMS_5,92,9999,9999,9999,485832784
604,4,T1_SMS_5,93,9999,9999,9999,486332480
604,4,T1_SMS_5,94,9999,9999,9999,486832248
604,4,T1_SMS_5,95,9999,9999,9999,487332916
604,4,T1_SMS_5,96,9999,9999,9999,487832688
604,4,T1_SMS_5,97,9999,9999,9999,488332388
604,4,T1_SMS_5,98,9999,9999,9999,488832080
604,4,T1_SMS_5,99,9999,9999,9999,489332824
604,4,T1_SMS_5,100,9999,9999,9999,489832520
604,4,T1_SMS_5,101,9999,9999,9999,490332212
604,4,T1_SMS_5,102,9999,9999,9999,490832956
604,4,T1_SMS_5,103,9999,9999,9999,491332720
604,4,T1_SMS_5,104,9999,9999,9999,491832412
604,4,T1_SMS_5,105,9999,9999,9999,492332084
604,4,T1_SMS_5,106,9999,9999,9999,492832876
604,4,T1_SMS_5,107,9999,9999,9999,493332572
604,4,T1_SMS_5,108,9999,9999,9999,493832272
604,4,T1_SMS_5,109,9999,9999,9999,494333008
604,4,T1_SMS_5,110,9999,9999,9999,494832704
604,4,T1_SMS_5,111,9999,9999,9999,495332472
604,4,T1_SMS_5,112,9999,9999,9999,495832168
604,4,T1_SMS_5,113,9999,9999,9999,496332908
604,4,T1_SMS_5,114,9999,9999,9999,496832600
604,4,T1_SMS_5,115,9999,9999,9999,497332296
604,4,T1_SMS_5,116,9999,9999,9999,497833040
604,4,T1_SMS_5,117,9999,9999,9999,498332732
604,4,T1_SMS_5,118,9999,9999,9999,498832504
604,4,T1_SMS_5,119,9999,9999,9999,499332200
604,4,T1_SMS_5,120,9999,9999,9999,499832940
604,4,T1_SMS_5,121,9999,9999,9999,500332636
604,4,T1_SMS_5,122,9999,9999,9999,500832332
604,4,T1_SMS_5,123,9999,9999,9999,501333072
604,4,T1_SMS_5,124,9999,9999,9999,501832768
604,4,T1_SMS_5,125,9999,9999,9999,502332468
604,4,T1_SMS_5,126,9999,9999,9999,502832240
604,4,T1_SMS_5,127,9999,9999,9999,503332956
604,4,T1_SMS_5,128,9999,9999,9999,503832652
604,4,T1_SMS_5,129,9999,9999,9999,504332340
605,20,Ticks_Linear_8,0,5,42,127,517620184
605,20,Ticks_Linear_8,1,5,42,127,518440300
605,20,Ticks_Linear_8,2,5,42,127,519259468
605,20,Ticks_Linear_8,3,1,48,64,519333356
605,20,Ticks_Linear_8,4,5,42,127,520080008
605,20,Ticks_Linear_8,5,1,48,49,520112032
605,20,Ticks_Linear_8,6,5,42,127,520900028
605,20,Ticks_Linear_8,7,1,48,54,520901292
605,20,Ticks_Linear_8,8,1,48,52,521705912
605,20,Ticks_Linear_8,9,5,42,127,521710152
605,20,Ticks_Linear_8,10,1,48,51,522486016
605,20,Ticks_Linear_8,11,5,42,127,522520064
605,20,Ticks_Linear_8,12,1,48,48,523314748
605,20,Ticks_Linear_8,13,5,42,127,523329848
605,20,Ticks_Linear_8,14,1,48,47,524130276
605,20,Ticks_Linear_8,15,5,42,127,524139756
605,20,Ticks_Linear_8,16,5,42,127,524949748
605,20,Ticks_Linear_8,17,1,48,51,524954812
605,20,Ticks_Linear_8,18,1,48,49,525745896
605,20,Ticks_Linear_8,19,5,42,127,525749612
605,20,Ticks_Linear_8,20,5,42,127,526550540
605,20,Ticks_Linear_8,21,1,48,48,526570212
605,20,Ticks_Linear_8,22,5,42,127,527350040
605,20,Ticks_Linear_8,23,1,48,46,527353604
605,20,Ticks_Linear_8,24,1,48,43,528119240
605,20,Ticks_Linear_8,25,5,42,127,528149904
605,20,Ticks_Linear_8,26,1,48,48,528918292
605,20,Ticks_Linear_8,27,5,42,127,528949656
605,20,Ticks_Linear_8,28,1,48,46,529736300
605,20,Ticks_Linear_8,29,5,42,127,529740020
605,20,Ticks_Linear_8,30,1,48,43,530518812
605,20,Ticks_Linear_8,31,5,42,127,530529708
605,20,Ticks_Linear_8,32,5,42,127,531320228
605,20,Ticks_Linear_8,33,1,48,49,531334652
605,20,Ticks_Linear_8,34,5,42,127,532109768
605,20,Ticks_Linear_8,35,1,48,45,532110656
605,20,Ticks_Linear_8,36,1,48,50,532868708
605,20,Ticks_Linear_8,37,5,42,127,532900124
605,20,Ticks_Linear_8,38,1,48,51,533679784
605,20,Ticks_Linear_8,39,5,42,127,533681120
605,20,Ticks_Linear_8,40,5,42,127,534459664
605,20,Ticks_Linear_8,41,1,48,44,534527924
605,20,Ticks_Linear_8,42,5,42,127,535239916
605,20,Ticks_Linear_8,43,1,48,47,535332524
605,20,Ticks_Linear_8,44,5,42,127,536020616
605,20,Ticks_Linear_8,45,1,48,53,536029580
605,20,Ticks_Linear_8,46,5,42,127,536799596
605,20,Ticks_Linear_8,47,1,48,45,536812152
605,20,Ticks_Linear_8,48,5,42,127,537569592
605,20,Ticks_Linear_8,49,1,48,43,537596144
605,20,Ticks_Linear_8,50,5,42,127,538339584
605,20,Ticks_Linear_8,51,1,48,48,538340552
605,20,Ticks_Linear_8,52,5,42,127,539109728
605,20,Ticks_Linear_8,53,1,48,49,539128428
605,20,Ticks_Linear_8,54,5,42,127,539879796
605,20,Ticks_Linear_8,55,1,48,52,539886652
605,20,Ticks_Linear_8,56,5,42,127,540649788
605,20,Ticks_Linear_8,57,1,48,52,540650904
605,20,Ticks_Linear_8,58,5,42,127,541409596
605,20,Ticks_Linear_8,59,1,48,55,541426116
605,20,Ticks_Linear_8,60,5,42,127,542169480
605,20,Ticks_Linear_8,61,1,48,34,542170520
605,20,Ticks_Linear_8,62,1,48,42,542906164
605,20,Ticks_Linear_8,63,5,42,127,542930404
605,20,Ticks_Linear_8,64,1,48,48,543662312
605,20,Ticks_Linear_8,65,5,42,127,543690064
605,20,Ticks_Linear_8,66,1,48,44,544420104
605,20,Ticks_Linear_8,67,5,42,127,544449948
605,20,Ticks_Linear_8,68,1,48,45,545181032
605,20,Ticks_Linear_8,69,5,42,127,545199572
605,20,Ticks_Linear_8,70,1,48,45,545948512
605,20,Ticks_Linear_8,71,5,42,127,545950020
605,20,Ticks_Linear_8,72,5,42,127,546699576
605,20,Ticks_Linear_8,73,1,48,50,546701364
605,20,Ticks_Linear_8,74,5,42,127,547450172
605,20,Ticks_Linear_8,75,1,48,57,547458240
605,20,Ticks_Linear_8,76,5,42,127,548199944
605,20,Ticks_Linear_8,77,1,48,51,548238192
605,20,Ticks_Linear_8,78,5,42,127,548940136
605,20,Ticks_Linear_8,79,1,48,55,549007432
605,20,Ticks_Linear_8,80,5,42,127,549679352
605,20,Ticks_Linear_8,81,1,48,52,549789336
605,20,Ticks_Linear_8,82,5,42,127,550419888
605,20,Ticks_Linear_8,83,1,48,49,550521360
605,20,Ticks_Linear_8,84,5,42,127,551160296
605,20,Ticks_Linear_8,85,1,48,47,551171732
605,20,Ticks_Linear_8,86,1,48,51,551857684
605,20,Ticks_Linear_8,87,5,42,127,551899656
605,20,Ticks_Linear_8,88,1,48,49,552528228
605,20,Ticks_Linear_8,89,5,42,127,552629496
605,20,Ticks_Linear_8,90,1,48,49,553274320
605,20,Ticks_Linear_8,91,5,42,127,553360260
605,20,Ticks_Linear_8,92,1,48,46,554006772
605,20,Ticks_Linear_8,93,5,42,127,554089964
605,20,Ticks_Linear_8,94,1,48,50,554750708
605,20,Ticks_Linear_8,95,5,42,127,554820044
605,20,Ticks_Linear_8,96,1,48,54,555499212
605,20,Ticks_Linear_8,97,5,42,127,555550172
605,20,Ticks_Linear_8,98,1,48,46,556268484
605,20,Ticks_Linear_8,99,5,42,127,556270140
605,20,Ticks_Linear_8,100,5,42,127,556989968
605,20,Ticks_Linear_8,101,1,48,42,557012928
605,20,Ticks_Linear_8,102,5,42,127,557709564
605,20,Ticks_Linear_8,103,1,48,49,557794228
605,20,Ticks_Linear_8,104,5,42,127,558429456
605,20,Ticks_Linear_8,105,1,48,40,558497644
605,20,Ticks_Linear_8,106,5,42,127,559149428
605,20,Ticks_Linear_8,107,1,48,45,559201820
605,20,Ticks_Linear_8,108,5,42,127,559860012
605,20,Ticks_Linear_8,109,1,48,43,559931152
605,20,Ticks_Linear_8,110,1,48,42,560561212
605,20,Ticks_Linear_8,111,5,42,127,560569860
605,20,Ticks_Linear_8,112,1,48,41,561272636
605,20,Ticks_Linear_8,113,5,42,127,561280320
605,20,Ticks_Linear_8,114,1,48,44,561929904
605,20,Ticks_Linear_8,115,5,42,127,561989952
605,20,Ticks_Linear_8,116,1,48,45,562617136
605,20,Ticks_Linear_8,117,5,42,127,562699640
605,20,Ticks_Linear_8,118,1,48,43,563318544
605,20,Ticks_Linear_8,119,5,42,127,563399912
605,20,Ticks_Linear_8,120,1,48,48,564026672
605,20,Ticks_Linear_8,121,5,42,127,564099436
605,20,Ticks_Linear_8,122,1,48,47,564718388
605,20,Ticks_Linear_8,123,5,42,127,564800004
605,20,Ticks_Linear_8,124,1,48,51,565426220
605,20,Ticks_Linear_8,125,5,42,127,565500252
605,20,Ticks_Linear_8,126,1,48,47,566144764
605,20,Ticks_Linear_8,127,5,42,127,566199776
605,20,Ticks_Linear_8,128,5,42,127,566889724
605,20,Ticks_Linear_8,129,1,48,55,566891064
605,20,Ticks_Linear_8,130,1,48,56,567567540
605,20,Ticks_Linear_8,131,5,42,127,567580004
605,20,Ticks_Linear_8,132,5,42,127,568270172
605,20,Ticks_Linear_8,133,1,48,55,568296804
605,20,Ticks_Linear_8,134,1,48,53,568953024
605,20,Ticks_Linear_8,135,5,42,127,568960256
605,20,Ticks_Linear_8,136,5,42,127,569649676
605,20,Ticks_Linear_8,137,1,48,55,569664552
605,20,Ticks_Linear_8,138,5,42,127,570329556
605,20,Ticks_Linear_8,139,1,48,54,570356704
605,20,Ticks_Linear_8,140,1,48,48,570993308
605,20,Ticks_Linear_8,141,5,42,127,571010572
605,20,Ticks_Linear_8,142,1,48,55,571663452
605,20,Ticks_Linear_8,143,5,42,127,571699764
605,20,Ticks_Linear_8,144,1,48,52,572354284
605,20,Ticks_Linear_8,145,5,42,127,572379720
605,20,Ticks_Linear_8,146,1,48,54,573003264
605,20,Ticks_Linear_8,147,5,42,127,573059696
605,20,Ticks_Linear_8,148,1,48,48,573640984
605,20,Ticks_Linear_8,149,5,42,127,573730292
605,20,Ticks_Linear_8,150,1,48,50,574345144
605,20,Ticks_Linear_8,151,5,42,127,574399860
605,20,Ticks_Linear_8,152,1,48,58,575021088
605,20,Ticks_Linear_8,153,5,42,127,575069656
605,20,Ticks_Linear_8,154,1,48,48,575709056
605,20,Ticks_Linear_8,155,5,42,127,575740172
605,20,Ticks_Linear_8,156,5,42,127,576410048
605,20,Ticks_Linear_8,157,1,48,55,576411016
605,20,Ticks_Linear_8,158,5,42,127,577069660
605,20,Ticks_Linear_8,159,1,48,56,577082212
605,20,Ticks_Linear_8,160,5,42,127,577729844
605,20,Ticks_Linear_8,161,1,48,58,577753628
605,20,Ticks_Linear_8,162,1,48,53,578381916
605,20,Ticks_Linear_8,163,5,42,127,578390340
605,20,Ticks_Linear_8,164,1,48,54,579038580
605,20,Ticks_Linear_8,165,5,42,127,579049776
605,20,Ticks_Linear_8,166,1,48,53,579697504
605,20,Ticks_Linear_8,167,5,42,127,579710360
605,20,Ticks_Linear_8,168,5,42,127,580359468
605,20,Ticks_Linear_8,169,1,48,62,580397444
605,20,Ticks_Linear_8,170,5,42,127,581009716
605,20,Ticks_Linear_8,171,1,48,55,581011656
605,20,Ticks_Linear_8,172,1,48,42,581648136
605,20,Ticks_Linear_8,173,5,42,127,581660004
605,20,Ticks_Linear_8,174,1,48,50,582286240
605,20,Ticks_Linear_8,175,5,42,127,582310400
605,20,Ticks_Linear_8,176,1,48,47,582904416
605,20,Ticks_Linear_8,177,5,42,127,582959456
605,20,Ticks_Linear_8,178,1,48,54,583574212
605,20,Ticks_Linear_8,179,5,42,127,583599348
605,20,Ticks_Linear_8,180,5,42,127,584239416
605,20,Ticks_Linear_8,181,1,48,49,584267020
605,20,Ticks_Linear_8,182,5,42,127,584879456
605,20,Ticks_Linear_8,183,1,48,48,584936936
605,20,Ticks_Linear_8,184,5,42,127,585519444
605,20,Ticks_Linear_8,185,1,48,52,585609436
605,20,Ticks_Linear_8,186,5,42,127,586159484
605,20,Ticks_Linear_8,187,1,48,56,586179080
605,20,Ticks_Linear_8,188,1,48,49,586789176
605,20,Ticks_Linear_8,189,5,42,127,586790748
605,20,Ticks_Linear_8,190,1,48,47,587411228
605,20,Ticks_Linear_8,191,5,42,127,587420180
605,20,Ticks_Linear_8,192,1,48,45,587990240
605,20,Ticks_Linear_8,193,5,42,127,588050184
605,20,Ticks_Linear_8,194,1,48,35,588667360
605,20,Ticks_Linear_8,195,5,42,127,588679468
605,20,Ticks_Linear_8,196,5,42,127,589310300
605,20,Ticks_Linear_8,197,1,48,40,589323004
605,20,Ticks_Linear_8,198,5,42,127,589930144
605,20,Ticks_Linear_8,199,1,48,41,589952216
605,20,Ticks_Linear_8,200,1,48,48,590417360
605,20,Ticks_Linear_8,201,1,48,40,590546220
605,20,Ticks_Linear_8,202,5,42,127,590550460
605,20,Ticks_Linear_8,203,1,48,24,590686204
605,20,Ticks_Linear_8,204,1,48,49,591107468
605,20,Ticks_Linear_8,205,5,42,127,591169980
605,20,Ticks_Linear_8,206,1,48,19,591768344
605,20,Ticks_Linear_8,207,5,42,127,591789428
605,20,Ticks_Linear_8,208,5,42,127,592410076
605,20,Ticks_Linear_8,209,1,48,32,592415212
605,20,Ticks_Linear_8,210,5,42,127,593020260
605,20,Ticks_Linear_8,211,1,48,36,593096608
605,20,Ticks_Linear_8,212,5,42,127,593629520
605,20,Ticks_Linear_8,213,1,48,31,593714812
605,20,Ticks_Linear_8,214,5,42,127,594240076
605,20,Ticks_Linear_8,215,1,48,31,594266028
605,20,Ticks_Linear_8,216,1,48,31,594842848
605,20,Ticks_Linear_8,217,5,42,127,594850156
605,20,Ticks_Linear_8,218,1,48,32,595430020
605,20,Ticks_Linear_8,219,5,42,127,595459492
605,20,Ticks_Linear_8,220,1,48,29,596034204
605,20,Ticks_Linear_8,221,5,42,127,596059412
605,20,Ticks_Linear_8,222,5,42,127,596659468
605,20,Ticks_Linear_8,223,1,48,35,596660436
605,20,Ticks_Linear_8,224,5,42,127,597259664
605,20,Ticks_Linear_8,225,1,48,36,597263460
605,20,Ticks_Linear_8,226,5,42,127,597859668
605,20,Ticks_Linear_8,227,1,48,34,597917448
605,20,Ticks_Linear_8,228,5,42,127,598459864
605,20,Ticks_Linear_8,229,1,48,33,598539824
605,20,Ticks_Linear_8,230,1,48,35,599004444
605,20,Ticks_Linear_8,231,5,42,127,599049720
605,20,Ticks_Linear_8,232,1,48,33,599540172
605,20,Ticks_Linear_8,233,5,42,127,599640420
605,20,Ticks_Linear_8,234,1,48,36,600165924
605,20,Ticks_Linear_8,235,5,42,127,600239360
605,20,Ticks_Linear_8,236,1,48,34,600783868
605,20,Ticks_Linear_8,237,5,42,127,600830272
605,20,Ticks_Linear_8,238,1,48,36,601400652
605,20,Ticks_Linear_8,239,5,42,127,601420016
605,20,Ticks_Linear_8,240,1,48,35,601994260
605,20,Ticks_Linear_8,241,5,42,127,601999844
605,20,Ticks_Linear_8,242,5,42,127,602580280
605,20,Ticks_Linear_8,243,1,48,32,602606760
605,20,Ticks_Linear_8,244,5,42,127,603159880
605,20,Ticks_Linear_8,245,1,48,42,603171164
605,20,Ticks_Linear_8,246,5,42,127,603739512
605,20,Ticks_Linear_8,247,1,48,35,603783292
605,20,Ticks_Linear_8,248,5,42,127,604320088
605,20,Ticks_Linear_8,249,1,48,38,604348828
605,20,Ticks_Linear_8,250,5,42,127,604889808
605,20,Ticks_Linear_8,251,1,48,37,604910528
605,20,Ticks_Linear_8,252,1,48,35,605459904
605,20,Ticks_Linear_8,253,5,42,127,605461240
605,20,Ticks_Linear_8,254,1,48,43,606008116
605,20,Ticks_Linear_8,255,5,42,127,606030168
605,20,Ticks_Linear_8,256,1,48,45,606548020
605,20,Ticks_Linear_8,257,5,42,127,606599740
605,20,Ticks_Linear_8,258,1,48,43,607131448
605,20,Ticks_Linear_8,259,5,42,127,607169980
605,20,Ticks_Linear_8,260,1,48,44,607715912
605,20,Ticks_Linear_8,261,5,42,127,607730040
605,20,Ticks_Linear_8,262,1,48,44,608267676
605,20,Ticks_Linear_8,263,5,42,127,608290100
605,20,Ticks_Linear_8,264,1,48,39,608838612
605,20,Ticks_Linear_8,265,5,42,127,608850260
605,20,Ticks_Linear_8,266,1,48,41,609386304
605,20,Ticks_Linear_8,267,5,42,127,609410544
605,20,Ticks_Linear_8,268,1,48,39,609976996
605,20,Ticks_Linear_8,269,5,42,127,609979668
605,20,Ticks_Linear_8,270,5,42,127,610529772
605,20,Ticks_Linear_8,271,1,48,35,610549144
605,20,Ticks_Linear_8,272,5,42,127,611079716
605,20,Ticks_Linear_8,273,1,48,29,611119932
605,20,Ticks_Linear_8,274,5,42,127,611629616
605,20,Ticks_Linear_8,275,1,48,38,611636480
605,20,Ticks_Linear_8,276,1,48,35,612126768
605,20,Ticks_Linear_8,277,5,42,127,612180752
605,20,Ticks_Linear_8,278,1,48,35,612673972
605,20,Ticks_Linear_8,279,5,42,127,612730184
605,20,Ticks_Linear_8,280,1,48,29,613241152
605,20,Ticks_Linear_8,281,5,42,127,613270020
605,20,Ticks_Linear_8,282,1,48,37,613766756
605,20,Ticks_Linear_8,283,5,42,127,613809636
605,20,Ticks_Linear_8,284,1,48,40,614303976
605,20,Ticks_Linear_8,285,5,42,127,614350076
605,20,Ticks_Linear_8,286,1,48,39,614850564
605,20,Ticks_Linear_8,287,5,42,127,614889768
605,20,Ticks_Linear_8,288,1,48,44,615379544
605,20,Ticks_Linear_8,289,5,42,127,615429612
605,20,Ticks_Linear_8,290,1,48,44,615922756
605,20,Ticks_Linear_8,291,5,42,127,615959792
605,20,Ticks_Linear_8,292,1,48,46,616457436
605,20,Ticks_Linear_8,293,5,42,127,616490664
605,20,Ticks_Linear_8,294,5,42,127,617019728
605,20,Ticks_Linear_8,295,1,48,41,617038208
605,20,Ticks_Linear_8,296,5,42,127,617550280
605,20,Ticks_Linear_8,297,1,48,43,617565604
605,20,Ticks_Linear_8,298,5,42,127,618079640
605,20,Ticks_Linear_8,299,1,48,40,618135320
605,20,Ticks_Linear_8,300,1,48,38,618597032
605,20,Ticks_Linear_8,301,5,42,127,618599704
605,20,Ticks_Linear_8,302,1,48,36,619098540
605,20,Ticks_Linear_8,303,5,42,127,619119920
605,20,Ticks_Linear_8,304,1,48,33,619598168
605,20,Ticks_Linear_8,305,5,42,127,619640212
605,20,Ticks_Linear_8,306,1,48,33,620142120
605,20,Ticks_Linear_8,307,5,42,127,620160508
605,20,Ticks_Linear_8,308,1,48,34,620662336
605,20,Ticks_Linear_8,309,5,42,127,620679532
605,20,Ticks_Linear_8,310,1,48,38,621151104
605,20,Ticks_Linear_8,311,5,42,127,621189492
605,20,Ticks_Linear_8,312,1,48,41,621673868
605,20,Ticks_Linear_8,313,5,42,127,621699452
605,20,Ticks_Linear_8,314,1,48,43,622182556
605,20,Ticks_Linear_8,315,5,42,127,622210308
605,20,Ticks_Linear_8,316,1,48,37,622712212
605,20,Ticks_Linear_8,317,5,42,127,622729628
605,20,Ticks_Linear_8,318,1,48,38,623217676
605,20,Ticks_Linear_8,319,5,42,127,623239516
605,20,Ticks_Linear_8,320,1,48,40,623718356
605,20,Ticks_Linear_8,321,5,42,127,623740260
605,20,Ticks_Linear_8,322,5,42,127,624239968
605,20,Ticks_Linear_8,323,1,48,38,624246980
605,20,Ticks_Linear_8,324,1,48,46,624737928
605,20,Ticks_Linear_8,325,5,42,127,624739588
605,20,Ticks_Linear_8,326,5,42,127,625240416
605,20,Ticks_Linear_8,327,1,48,41,625285016
605,20,Ticks_Linear_8,328,5,42,127,625750376
605,20,Ticks_Linear_8,329,1,48,44,625756264
605,20,Ticks_Linear_8,330,5,42,127,626239816
605,20,Ticks_Linear_8,331,1,48,36,626253044
605,20,Ticks_Linear_8,332,1,48,33,626722220
605,20,Ticks_Linear_8,333,5,42,127,626730224
605,20,Ticks_Linear_8,334,1,48,38,627169504
605,20,Ticks_Linear_8,335,5,42,127,627219792
605,20,Ticks_Linear_8,336,1,48,32,627651228
605,20,Ticks_Linear_8,337,5,42,127,627710352
605,20,Ticks_Linear_8,338,1,48,33,628144780
605,20,Ticks_Linear_8,339,5,42,127,628199872
605,20,Ticks_Linear_8,0,9999,9999,9999,517617736
605,20,Ticks_Linear_8,1,9999,9999,9999,518438000
605,20,Ticks_Linear_8,2,9999,9999,9999,519257168
605,20,Ticks_Linear_8,3,9999,9999,9999,520077412
605,20,Ticks_Linear_8,4,9999,9999,9999,520897656
605,20,Ticks_Linear_8,5,9999,9999,9999,521707632
605,20,Ticks_Linear_8,6,9999,9999,9999,522517616
605,20,Ticks_Linear_8,7,9999,9999,9999,523327548
605,20,Ticks_Linear_8,8,9999,9999,9999,524137532
605,20,Ticks_Linear_8,9,9999,9999,9999,524947524
605,20,Ticks_Linear_8,10,9999,9999,9999,525747316
605,20,Ticks_Linear_8,11,9999,9999,9999,526548092
605,20,Ticks_Linear_8,12,9999,9999,9999,527347816
605,20,Ticks_Linear_8,13,9999,9999,9999,528147532
605,20,Ticks_Linear_8,14,9999,9999,9999,528947284
605,20,Ticks_Linear_8,15,9999,9999,9999,529737796
605,20,Ticks_Linear_8,16,9999,9999,9999,530527336
605,20,Ticks_Linear_8,17,9999,9999,9999,531317852
605,20,Ticks_Linear_8,18,9999,9999,9999,532107320
605,20,Ticks_Linear_8,19,9999,9999,9999,532897900
605,20,Ticks_Linear_8,20,9999,9999,9999,533677112
605,20,Ticks_Linear_8,21,9999,9999,9999,534457440
605,20,Ticks_Linear_8,22,9999,9999,9999,535237688
605,20,Ticks_Linear_8,23,9999,9999,9999,536018016
605,20,Ticks_Linear_8,24,9999,9999,9999,536797300
605,20,Ticks_Linear_8,25,9999,9999,9999,537567292
605,20,Ticks_Linear_8,26,9999,9999,9999,538337360
605,20,Ticks_Linear_8,27,9999,9999,9999,539107428
605,20,Ticks_Linear_8,28,9999,9999,9999,539877496
605,20,Ticks_Linear_8,29,9999,9999,9999,540647488
605,20,Ticks_Linear_8,30,9999,9999,9999,541407300
605,20,Ticks_Linear_8,31,9999,9999,9999,542167104
605,20,Ticks_Linear_8,32,9999,9999,9999,542927956
605,20,Ticks_Linear_8,33,9999,9999,9999,543687764
605,20,Ticks_Linear_8,34,9999,9999,9999,544447572
605,20,Ticks_Linear_8,35,9999,9999,9999,545197124
605,20,Ticks_Linear_8,36,9999,9999,9999,545947728
605,20,Ticks_Linear_8,37,9999,9999,9999,546697276
605,20,Ticks_Linear_8,38,9999,9999,9999,547447872
605,20,Ticks_Linear_8,39,9999,9999,9999,548197496
605,20,Ticks_Linear_8,40,9999,9999,9999,548937836
605,20,Ticks_Linear_8,41,9999,9999,9999,549677128
605,20,Ticks_Linear_8,42,9999,9999,9999,550417516
605,20,Ticks_Linear_8,43,9999,9999,9999,551157852
605,20,Ticks_Linear_8,44,9999,9999,9999,551897208
605,20,Ticks_Linear_8,45,9999,9999,9999,552627272
605,20,Ticks_Linear_8,46,9999,9999,9999,553357368
605,20,Ticks_Linear_8,47,9999,9999,9999,554087520
605,20,Ticks_Linear_8,48,9999,9999,9999,554817596
605,20,Ticks_Linear_8,49,9999,9999,9999,555547724
605,20,Ticks_Linear_8,50,9999,9999,9999,556267624
605,20,Ticks_Linear_8,51,9999,9999,9999,556987448
605,20,Ticks_Linear_8,52,9999,9999,9999,557707340
605,20,Ticks_Linear_8,53,9999,9999,9999,558427232
605,20,Ticks_Linear_8,54,9999,9999,9999,559147104
605,20,Ticks_Linear_8,55,9999,9999,9999,559857784
605,20,Ticks_Linear_8,56,9999,9999,9999,560567412
605,20,Ticks_Linear_8,57,9999,9999,9999,561278020
605,20,Ticks_Linear_8,58,9999,9999,9999,561987656
605,20,Ticks_Linear_8,59,9999,9999,9999,562697340
605,20,Ticks_Linear_8,60,9999,9999,9999,563397688
605,20,Ticks_Linear_8,61,9999,9999,9999,564097136
605,20,Ticks_Linear_8,62,9999,9999,9999,564797556
605,20,Ticks_Linear_8,63,9999,9999,9999,565497956
605,20,Ticks_Linear_8,64,9999,9999,9999,566197328
605,20,Ticks_Linear_8,65,9999,9999,9999,566887500
605,20,Ticks_Linear_8,66,9999,9999,9999,567577708
605,20,Ticks_Linear_8,67,9999,9999,9999,568267876
605,20,Ticks_Linear_8,68,9999,9999,9999,568958032
605,20,Ticks_Linear_8,69,9999,9999,9999,569647228
605,20,Ticks_Linear_8,70,9999,9999,9999,570327108
605,20,Ticks_Linear_8,71,9999,9999,9999,571008128
605,20,Ticks_Linear_8,72,9999,9999,9999,571697240
605,20,Ticks_Linear_8,73,9999,9999,9999,572377196
605,20,Ticks_Linear_8,74,9999,9999,9999,573057100
605,20,Ticks_Linear_8,75,9999,9999,9999,573727844
605,20,Ticks_Linear_8,76,9999,9999,9999,574397564
605,20,Ticks_Linear_8,77,9999,9999,9999,575067208
605,20,Ticks_Linear_8,78,9999,9999,9999,575737948
605,20,Ticks_Linear_8,79,9999,9999,9999,576407676
605,20,Ticks_Linear_8,80,9999,9999,9999,577067136
605,20,Ticks_Linear_8,81,9999,9999,9999,577727544
605,20,Ticks_Linear_8,82,9999,9999,9999,578388044
605,20,Ticks_Linear_8,83,9999,9999,9999,579047480
605,20,Ticks_Linear_8,84,9999,9999,9999,579707984
605,20,Ticks_Linear_8,85,9999,9999,9999,580357244
605,20,Ticks_Linear_8,86,9999,9999,9999,581007420
605,20,Ticks_Linear_8,87,9999,9999,9999,581657708
605,20,Ticks_Linear_8,88,9999,9999,9999,582307956
605,20,Ticks_Linear_8,89,9999,9999,9999,582957156
605,20,Ticks_Linear_8,90,9999,9999,9999,583597124
605,20,Ticks_Linear_8,91,9999,9999,9999,584237116
605,20,Ticks_Linear_8,92,9999,9999,9999,584877156
605,20,Ticks_Linear_8,93,9999,9999,9999,585517144
605,20,Ticks_Linear_8,94,9999,9999,9999,586157184
605,20,Ticks_Linear_8,95,9999,9999,9999,586787936
605,20,Ticks_Linear_8,96,9999,9999,9999,587417660
605,20,Ticks_Linear_8,97,9999,9999,9999,588047436
605,20,Ticks_Linear_8,98,9999,9999,9999,588677244
605,20,Ticks_Linear_8,99,9999,9999,9999,589308000
605,20,Ticks_Linear_8,100,9999,9999,9999,589927548
605,20,Ticks_Linear_8,101,9999,9999,9999,590548088
605,20,Ticks_Linear_8,102,9999,9999,9999,591167608
605,20,Ticks_Linear_8,103,9999,9999,9999,591787128
605,20,Ticks_Linear_8,104,9999,9999,9999,592407628
605,20,Ticks_Linear_8,105,9999,9999,9999,593017960
605,20,Ticks_Linear_8,106,9999,9999,9999,593627220
605,20,Ticks_Linear_8,107,9999,9999,9999,594237552
605,20,Ticks_Linear_8,108,9999,9999,9999,594847856
605,20,Ticks_Linear_8,109,9999,9999,9999,595457116
605,20,Ticks_Linear_8,110,9999,9999,9999,596057188
605,20,Ticks_Linear_8,111,9999,9999,9999,596657244
605,20,Ticks_Linear_8,112,9999,9999,9999,597257292
605,20,Ticks_Linear_8,113,9999,9999,9999,597857368
605,20,Ticks_Linear_8,114,9999,9999,9999,598457416
605,20,Ticks_Linear_8,115,9999,9999,9999,599047276
605,20,Ticks_Linear_8,116,9999,9999,9999,599638120
605,20,Ticks_Linear_8,117,9999,9999,9999,600237136
605,20,Ticks_Linear_8,118,9999,9999,9999,600827972
605,20,Ticks_Linear_8,119,9999,9999,9999,601417788
605,20,Ticks_Linear_8,120,9999,9999,9999,601997396
605,20,Ticks_Linear_8,121,9999,9999,9999,602577980
605,20,Ticks_Linear_8,122,9999,9999,9999,603157584
605,20,Ticks_Linear_8,123,9999,9999,9999,603737212
605,20,Ticks_Linear_8,124,9999,9999,9999,604317792
605,20,Ticks_Linear_8,125,9999,9999,9999,604887140
605,20,Ticks_Linear_8,126,9999,9999,9999,605457532
605,20,Ticks_Linear_8,127,9999,9999,9999,606027868
605,20,Ticks_Linear_8,128,9999,9999,9999,606597216
605,20,Ticks_Linear_8,129,9999,9999,9999,607167608
605,20,Ticks_Linear_8,130,9999,9999,9999,607727744
605,20,Ticks_Linear_8,131,9999,9999,9999,608287800
605,20,Ticks_Linear_8,132,9999,9999,9999,608847960
605,20,Ticks_Linear_8,133,9999,9999,9999,609408096
605,20,Ticks_Linear_8,134,9999,9999,9999,609977440
605,20,Ticks_Linear_8,135,9999,9999,9999,610527324
605,20,Ticks_Linear_8,136,9999,9999,9999,611077196
605,20,Ticks_Linear_8,137,9999,9999,9999,611627096
605,20,Ticks_Linear_8,138,9999,9999,9999,612178008
605,20,Ticks_Linear_8,139,9999,9999,9999,612727884
605,20,Ticks_Linear_8,140,9999,9999,9999,613267576
605,20,Ticks_Linear_8,141,9999,9999,9999,613807192
605,20,Ticks_Linear_8,142,9999,9999,9999,614347852
605,20,Ticks_Linear_8,143,9999,9999,9999,614887544
605,20,Ticks_Linear_8,144,9999,9999,9999,615427160
605,20,Ticks_Linear_8,145,9999,9999,9999,615957568
605,20,Ticks_Linear_8,146,9999,9999,9999,616488044
605,20,Ticks_Linear_8,147,9999,9999,9999,617017432
605,20,Ticks_Linear_8,148,9999,9999,9999,617547832
605,20,Ticks_Linear_8,149,9999,9999,9999,618077264
605,20,Ticks_Linear_8,150,9999,9999,9999,618597480
605,20,Ticks_Linear_8,151,9999,9999,9999,619117620
605,20,Ticks_Linear_8,152,9999,9999,9999,619637840
605,20,Ticks_Linear_8,153,9999,9999,9999,620158060
605,20,Ticks_Linear_8,154,9999,9999,9999,620677232
605,20,Ticks_Linear_8,155,9999,9999,9999,621187192
605,20,Ticks_Linear_8,156,9999,9999,9999,621697076
605,20,Ticks_Linear_8,157,9999,9999,9999,622208084
605,20,Ticks_Linear_8,158,9999,9999,9999,622727256
605,20,Ticks_Linear_8,159,9999,9999,9999,623237216
605,20,Ticks_Linear_8,160,9999,9999,9999,623737964
605,20,Ticks_Linear_8,161,9999,9999,9999,624237668
605,20,Ticks_Linear_8,162,9999,9999,9999,624737388
605,20,Ticks_Linear_8,163,9999,9999,9999,625238120
605,20,Ticks_Linear_8,164,9999,9999,9999,625748076
605,20,Ticks_Linear_8,165,9999,9999,9999,626237520
605,20,Ticks_Linear_8,166,9999,9999,9999,626728000
605,20,Ticks_Linear_8,167,9999,9999,9999,627217492
605,20,Ticks_Linear_8,168,9999,9999,9999,627707980
605,20,Ticks_Linear_8,169,9999,9999,9999,628197496
606,21,Ticks_Linear_5,0,5,42,127,638111092
606,21,Ticks_Linear_5,1,5,42,127,638591268
606,21,Ticks_Linear_5,2,1,48,39,638649884
606,21,Ticks_Linear_5,3,5,42,127,639070524
606,21,Ticks_Linear_5,4,1,48,45,639100604
606,21,Ticks_Linear_5,5,5,42,127,639551048
606,21,Ticks_Linear_5,6,1,48,40,639569080
606,21,Ticks_Linear_5,7,1,48,42,640016824
606,21,Ticks_Linear_5,8,5,42,127,640031172
606,21,Ticks_Linear_5,9,1,48,41,640455340
606,21,Ticks_Linear_5,10,5,42,127,640520612
606,21,Ticks_Linear_5,11,1,48,39,640939176
606,21,Ticks_Linear_5,12,5,42,127,641011176
606,21,Ticks_Linear_5,13,1,48,35,641461180
606,21,Ticks_Linear_5,14,5,42,127,641500616
606,21,Ticks_Linear_5,15,1,48,31,641950928
606,21,Ticks_Linear_5,16,5,42,127,641991104
606,21,Ticks_Linear_5,17,1,48,27,642471220
606,21,Ticks_Linear_5,18,5,42,127,642480620
606,21,Ticks_Linear_5,19,1,48,29,642962304
606,21,Ticks_Linear_5,20,5,42,127,642981144
606,21,Ticks_Linear_5,21,1,48,29,643475856
606,21,Ticks_Linear_5,22,5,42,127,643481068
606,21,Ticks_Linear_5,23,1,48,29,643970692
606,21,Ticks_Linear_5,24,5,42,127,643980768
606,21,Ticks_Linear_5,25,1,48,29,644468660
606,21,Ticks_Linear_5,26,5,42,127,644481512
606,21,Ticks_Linear_5,27,1,48,26,644942308
606,21,Ticks_Linear_5,28,5,42,127,644981068
606,21,Ticks_Linear_5,29,1,48,32,645446948
606,21,Ticks_Linear_5,30,5,42,127,645491024
606,21,Ticks_Linear_5,31,1,48,32,645953840
606,21,Ticks_Linear_5,32,5,42,127,646000912
606,21,Ticks_Linear_5,33,1,48,30,646482296
606,21,Ticks_Linear_5,34,5,42,127,646510944
606,21,Ticks_Linear_5,35,1,48,33,646958784
606,21,Ticks_Linear_5,36,5,42,127,647020828
606,21,Ticks_Linear_5,37,1,48,28,647475328
606,21,Ticks_Linear_5,38,5,42,127,647530864
606,21,Ticks_Linear_5,39,1,48,27,647964664
606,21,Ticks_Linear_5,40,5,42,127,648051004
606,21,Ticks_Linear_5,41,1,48,23,648532616
606,21,Ticks_Linear_5,42,5,42,127,648571148
606,21,Ticks_Linear_5,43,1,48,26,649032464
606,21,Ticks_Linear_5,44,5,42,127,649090396
606,21,Ticks_Linear_5,45,1,48,23,649552828
606,21,Ticks_Linear_5,46,5,42,127,649610684
606,21,Ticks_Linear_5,47,1,48,27,650079044
606,21,Ticks_Linear_5,48,5,42,127,650130756
606,21,Ticks_Linear_5,49,1,48,29,650574172
606,21,Ticks_Linear_5,50,5,42,127,650661160
606,21,Ticks_Linear_5,51,1,48,28,651104352
606,21,Ticks_Linear_5,52,5,42,127,651190884
606,21,Ticks_Linear_5,53,1,48,29,651687844
606,21,Ticks_Linear_5,54,5,42,127,651720992
606,21,Ticks_Linear_5,55,1,48,31,652230768
606,21,Ticks_Linear_5,56,5,42,127,652250572
606,21,Ticks_Linear_5,57,1,48,32,652748724
606,21,Ticks_Linear_5,58,5,42,127,652780900
606,21,Ticks_Linear_5,59,1,48,31,653285576
606,21,Ticks_Linear_5,60,5,42,127,653320740
606,21,Ticks_Linear_5,61,1,48,32,653814856
606,21,Ticks_Linear_5,62,5,42,127,653861332
606,21,Ticks_Linear_5,63,1,48,33,654352604
606,21,Ticks_Linear_5,64,5,42,127,654400744
606,21,Ticks_Linear_5,65,1,48,29,654903548
606,21,Ticks_Linear_5,66,5,42,127,654940508
606,21,Ticks_Linear_5,67,1,48,30,655449832
606,21,Ticks_Linear_5,68,5,42,127,655481320
606,21,Ticks_Linear_5,69,1,48,27,655996772
606,21,Ticks_Linear_5,70,5,42,127,656030968
606,21,Ticks_Linear_5,71,1,48,27,656519920
606,21,Ticks_Linear_5,72,5,42,127,656580920
606,21,Ticks_Linear_5,73,1,48,28,657071740
606,21,Ticks_Linear_5,74,5,42,127,657130940
606,21,Ticks_Linear_5,75,1,48,27,657637332
606,21,Ticks_Linear_5,76,5,42,127,657680668
606,21,Ticks_Linear_5,77,1,48,27,658215464
606,21,Ticks_Linear_5,78,5,42,127,658230640
606,21,Ticks_Linear_5,79,1,48,32,658739292
606,21,Ticks_Linear_5,80,5,42,127,658790700
606,21,Ticks_Linear_5,81,1,48,40,659280696
606,21,Ticks_Linear_5,82,5,42,127,659350908
606,21,Ticks_Linear_5,83,1,48,27,659858884
606,21,Ticks_Linear_5,84,5,42,127,659911040
606,21,Ticks_Linear_5,85,1,48,33,660385604
606,21,Ticks_Linear_5,86,5,42,127,660471320
606,21,Ticks_Linear_5,87,1,48,29,660958092
606,21,Ticks_Linear_5,88,5,42,127,661031328
606,21,Ticks_Linear_5,89,1,48,26,661570156
606,21,Ticks_Linear_5,90,5,42,127,661600672
606,21,Ticks_Linear_5,91,1,48,32,662118456
606,21,Ticks_Linear_5,92,5,42,127,662170996
606,21,Ticks_Linear_5,93,1,48,33,662705920
606,21,Ticks_Linear_5,94,5,42,127,662741460
606,21,Ticks_Linear_5,95,5,42,127,663310592
606,21,Ticks_Linear_5,96,1,48,31,663332060
606,21,Ticks_Linear_5,97,1,48,34,663859624
606,21,Ticks_Linear_5,98,5,42,127,663881300
606,21,Ticks_Linear_5,99,1,48,28,664423416
606,21,Ticks_Linear_5,100,5,42,127,664460608
606,21,Ticks_Linear_5,101,1,48,29,665004372
606,21,Ticks_Linear_5,102,5,42,127,665041332
606,21,Ticks_Linear_5,103,1,48,28,665611688
606,21,Ticks_Linear_5,104,5,42,127,665620712
606,21,Ticks_Linear_5,105,1,48,35,666190268
606,21,Ticks_Linear_5,106,5,42,127,666200568
606,21,Ticks_Linear_5,107,1,48,27,666762228
606,21,Ticks_Linear_5,108,5,42,127,666780996
606,21,Ticks_Linear_5,109,1,48,28,667370792
606,21,Ticks_Linear_5,110,5,42,127,667372276
606,21,Ticks_Linear_5,111,1,48,29,667928320
606,21,Ticks_Linear_5,112,5,42,127,667960744
606,21,Ticks_Linear_5,113,1,48,32,668473132
606,21,Ticks_Linear_5,114,5,42,127,668550460
606,21,Ticks_Linear_5,115,1,48,30,669114744
606,21,Ticks_Linear_5,116,5,42,127,669141296
606,21,Ticks_Linear_5,117,1,48,32,669730640
606,21,Ticks_Linear_5,118,5,42,127,669732132
606,21,Ticks_Linear_5,119,1,48,33,670331436
606,21,Ticks_Linear_5,120,5,42,127,670332848
606,21,Ticks_Linear_5,121,5,42,127,670931340
606,21,Ticks_Linear_5,122,1,48,33,670943144
606,21,Ticks_Linear_5,123,1,48,28,671494568
606,21,Ticks_Linear_5,124,5,42,127,671531404
606,21,Ticks_Linear_5,125,1,48,34,672098840
606,21,Ticks_Linear_5,126,5,42,127,672130404
606,21,Ticks_Linear_5,127,5,42,127,672730384
606,21,Ticks_Linear_5,128,1,48,22,672748100
606,21,Ticks_Linear_5,129,5,42,127,673340720
606,21,Ticks_Linear_5,130,1,48,29,673352900
606,21,Ticks_Linear_5,131,1,48,29,673894132
606,21,Ticks_Linear_5,132,5,42,127,673951244
606,21,Ticks_Linear_5,133,1,48,33,674519132
606,21,Ticks_Linear_5,134,5,42,127,674561328
606,21,Ticks_Linear_5,135,1,48,30,675110440
606,21,Ticks_Linear_5,136,5,42,127,675170536
606,21,Ticks_Linear_5,137,1,48,30,675719552
606,21,Ticks_Linear_5,138,5,42,127,675780996
606,21,Ticks_Linear_5,139,5,42,127,676400548
606,21,Ticks_Linear_5,140,1,48,25,676406808
606,21,Ticks_Linear_5,141,1,48,17,677002424
606,21,Ticks_Linear_5,142,5,42,127,677021184
606,21,Ticks_Linear_5,143,1,48,23,677583596
606,21,Ticks_Linear_5,144,5,42,127,677640552
606,21,Ticks_Linear_5,145,1,48,20,678217512
606,21,Ticks_Linear_5,146,5,42,127,678261072
606,21,Ticks_Linear_5,147,1,48,23,678858080
606,21,Ticks_Linear_5,148,5,42,127,678880520
606,21,Ticks_Linear_5,149,1,48,24,679478072
606,21,Ticks_Linear_5,150,5,42,127,679511444
606,21,Ticks_Linear_5,151,1,48,27,680116468
606,21,Ticks_Linear_5,152,5,42,127,680141148
606,21,Ticks_Linear_5,153,5,42,127,680771032
606,21,Ticks_Linear_5,154,1,48,22,680771924
606,21,Ticks_Linear_5,155,5,42,127,681400960
606,21,Ticks_Linear_5,156,1,48,21,681417932
606,21,Ticks_Linear_5,157,5,42,127,682030392
606,21,Ticks_Linear_5,158,1,48,22,682042576
606,21,Ticks_Linear_5,159,5,42,127,682670432
606,21,Ticks_Linear_5,160,1,48,21,682673176
606,21,Ticks_Linear_5,161,1,48,22,683275668
606,21,Ticks_Linear_5,162,5,42,127,683310336
606,21,Ticks_Linear_5,163,1,48,24,683878356
606,21,Ticks_Linear_5,164,5,42,127,683950524
606,21,Ticks_Linear_5,165,1,48,23,684558996
606,21,Ticks_Linear_5,166,5,42,127,684590436
606,21,Ticks_Linear_5,167,1,48,25,685186016
606,21,Ticks_Linear_5,168,5,42,127,685230400
606,21,Ticks_Linear_5,169,5,42,127,685880804
606,21,Ticks_Linear_5,170,1,48,20,685887888
606,21,Ticks_Linear_5,171,1,48,24,686494652
606,21,Ticks_Linear_5,172,5,42,127,686530872
606,21,Ticks_Linear_5,173,1,48,30,687119724
606,21,Ticks_Linear_5,174,5,42,127,687181192
606,21,Ticks_Linear_5,175,1,48,15,687754688
606,21,Ticks_Linear_5,176,5,42,127,687831564
606,21,Ticks_Linear_5,177,1,48,30,688396748
606,21,Ticks_Linear_5,178,5,42,127,688481060
606,21,Ticks_Linear_5,179,1,48,25,689107948
606,21,Ticks_Linear_5,180,5,42,127,689141096
606,21,Ticks_Linear_5,181,1,48,23,689770040
606,21,Ticks_Linear_5,182,5,42,127,689800632
606,21,Ticks_Linear_5,183,1,48,27,690406924
606,21,Ticks_Linear_5,184,5,42,127,690461112
606,21,Ticks_Linear_5,185,1,48,28,691079868
606,21,Ticks_Linear_5,186,5,42,127,691120644
606,21,Ticks_Linear_5,187,1,48,19,691758576
606,21,Ticks_Linear_5,188,5,42,127,691780856
606,21,Ticks_Linear_5,189,1,48,25,692397032
606,21,Ticks_Linear_5,190,5,42,127,692450624
606,21,Ticks_Linear_5,191,1,48,29,693041224
606,21,Ticks_Linear_5,192,5,42,127,693121612
606,21,Ticks_Linear_5,193,1,48,27,693728132
606,21,Ticks_Linear_5,194,5,42,127,693791236
606,21,Ticks_Linear_5,195,1,48,21,694439204
606,21,Ticks_Linear_5,196,5,42,127,694460732
606,21,Ticks_Linear_5,197,1,48,28,695085176
606,21,Ticks_Linear_5,198,5,42,127,695130600
606,21,Ticks_Linear_5,199,1,48,29,695776284
606,21,Ticks_Linear_5,200,5,42,127,695810552
606,21,Ticks_Linear_5,201,1,48,29,696465396
606,21,Ticks_Linear_5,202,5,42,127,696491504
606,21,Ticks_Linear_5,203,1,48,33,697104092
606,21,Ticks_Linear_5,204,5,42,127,697171260
606,21,Ticks_Linear_5,205,1,48,42,697757480
606,21,Ticks_Linear_5,206,5,42,127,697851360
606,21,Ticks_Linear_5,207,1,48,42,698496024
606,21,Ticks_Linear_5,208,5,42,127,698531340
606,21,Ticks_Linear_5,209,1,48,30,699155756
606,21,Ticks_Linear_5,210,5,42,127,699221424
606,21,Ticks_Linear_5,211,1,48,32,699854828
606,21,Ticks_Linear_5,212,5,42,127,699910516
606,21,Ticks_Linear_5,213,1,48,36,700506576
606,21,Ticks_Linear_5,214,5,42,127,700600592
606,21,Ticks_Linear_5,215,1,48,47,701223180
606,21,Ticks_Linear_5,216,5,42,127,701290768
606,21,Ticks_Linear_5,217,1,48,40,701946264
606,21,Ticks_Linear_5,218,5,42,127,701980984
606,21,Ticks_Linear_5,219,5,42,127,702680588
606,21,Ticks_Linear_5,220,1,48,45,702694492
606,21,Ticks_Linear_5,221,1,48,40,703291028
606,21,Ticks_Linear_5,222,5,42,127,703380784
606,21,Ticks_Linear_5,223,1,48,38,703991424
606,21,Ticks_Linear_5,224,5,42,127,704081500
606,21,Ticks_Linear_5,225,1,48,38,704667496
606,21,Ticks_Linear_5,226,5,42,127,704780684
606,21,Ticks_Linear_5,227,1,48,42,705397724
606,21,Ticks_Linear_5,228,5,42,127,705481052
606,21,Ticks_Linear_5,229,1,48,38,706169232
606,21,Ticks_Linear_5,230,5,42,127,706190684
606,21,Ticks_Linear_5,231,1,48,36,706846700
606,21,Ticks_Linear_5,232,5,42,127,706901588
606,21,Ticks_Linear_5,233,1,48,35,707516344
606,21,Ticks_Linear_5,234,5,42,127,707610900
606,21,Ticks_Linear_5,235,1,48,35,708297348
606,21,Ticks_Linear_5,236,5,42,127,708320608
606,21,Ticks_Linear_5,237,1,48,28,709015968
606,21,Ticks_Linear_5,238,5,42,127,709031440
606,21,Ticks_Linear_5,239,1,48,28,709744324
606,21,Ticks_Linear_5,240,5,42,127,709751260
606,21,Ticks_Linear_5,241,1,48,32,710457408
606,21,Ticks_Linear_5,242,5,42,127,710471300
606,21,Ticks_Linear_5,243,1,48,31,711130180
606,21,Ticks_Linear_5,244,5,42,127,711191096
606,21,Ticks_Linear_5,245,1,48,35,711856504
606,21,Ticks_Linear_5,246,5,42,127,711910916
606,21,Ticks_Linear_5,247,1,48,38,712586280
606,21,Ticks_Linear_5,248,5,42,127,712630584
606,21,Ticks_Linear_5,249,1,48,38,713304156
606,21,Ticks_Linear_5,250,5,42,127,713360740
606,21,Ticks_Linear_5,251,1,48,38,714006416
606,21,Ticks_Linear_5,252,5,42,127,714090816
606,21,Ticks_Linear_5,253,1,48,35,714716204
606,21,Ticks_Linear_5,254,5,42,127,714821176
606,21,Ticks_Linear_5,255,5,42,127,715551100
606,21,Ticks_Linear_5,256,1,48,27,715612056
606,21,Ticks_Linear_5,257,1,48,29,716238808
606,21,Ticks_Linear_5,258,5,42,127,716281172
606,21,Ticks_Linear_5,259,1,48,32,716947176
606,21,Ticks_Linear_5,260,5,42,127,717020388
606,21,Ticks_Linear_5,261,1,48,27,717701896
606,21,Ticks_Linear_5,262,5,42,127,717761096
606,21,Ticks_Linear_5,263,1,48,21,718424856
606,21,Ticks_Linear_5,264,5,42,127,718501284
606,21,Ticks_Linear_5,265,1,48,23,719224428
606,21,Ticks_Linear_5,266,5,42,127,719240572
606,21,Ticks_Linear_5,267,1,48,31,719913172
606,21,Ticks_Linear_5,268,5,42,127,719981208
606,21,Ticks_Linear_5,269,1,48,28,720713712
606,21,Ticks_Linear_5,270,5,42,127,720730388
606,21,Ticks_Linear_5,271,1,48,28,721448136
606,21,Ticks_Linear_5,272,5,42,127,721481204
606,21,Ticks_Linear_5,273,1,48,25,722189204
606,21,Ticks_Linear_5,274,5,42,127,722230752
606,21,Ticks_Linear_5,275,1,48,26,722938072
606,21,Ticks_Linear_5,276,5,42,127,722981200
606,21,Ticks_Linear_5,277,1,48,28,723709124
606,21,Ticks_Linear_5,278,5,42,127,723731024
606,21,Ticks_Linear_5,279,1,48,20,724476480
606,21,Ticks_Linear_5,280,5,42,127,724490608
606,21,Ticks_Linear_5,281,1,48,25,725237636
606,21,Ticks_Linear_5,282,5,42,127,725250416
606,21,Ticks_Linear_5,283,1,48,27,725974164
606,21,Ticks_Linear_5,284,5,42,127,726011124
606,21,Ticks_Linear_5,285,1,48,24,726741236
606,21,Ticks_Linear_5,286,5,42,127,726770932
606,21,Ticks_Linear_5,287,1,48,19,727524556
606,21,Ticks_Linear_5,288,5,42,127,727530816
606,21,Ticks_Linear_5,289,1,48,24,728292904
606,21,Ticks_Linear_5,290,5,42,127,728300884
606,21,Ticks_Linear_5,291,1,48,26,728984936
606,21,Ticks_Linear_5,292,5,42,127,729070948
606,21,Ticks_Linear_5,293,1,48,26,729752456
606,21,Ticks_Linear_5,294,5,42,127,729841020
606,21,Ticks_Linear_5,295,1,48,30,730557496
606,21,Ticks_Linear_5,296,5,42,127,730610936
606,21,Ticks_Linear_5,297,1,48,27,731316852
606,21,Ticks_Linear_5,298,5,42,127,731381080
606,21,Ticks_Linear_5,299,1,48,28,732045660
606,21,Ticks_Linear_5,300,5,42,127,732161464
606,21,Ticks_Linear_5,301,1,48,27,732785920
606,21,Ticks_Linear_5,302,5,42,127,732940816
606,21,Ticks_Linear_5,303,1,48,18,733648548
606,21,Ticks_Linear_5,304,5,42,127,733720936
606,21,Ticks_Linear_5,305,1,48,41,734427160
606,21,Ticks_Linear_5,306,5,42,127,734501140
606,21,Ticks_Linear_5,307,1,48,38,734939448
606,21,Ticks_Linear_5,308,1,48,38,735130480
606,21,Ticks_Linear_5,309,5,42,127,735280608
606,21,Ticks_Linear_5,310,1,48,34,735849328
606,21,Ticks_Linear_5,311,5,42,127,736070968
606,21,Ticks_Linear_5,312,1,48,30,736565992
606,21,Ticks_Linear_5,313,5,42,127,736860508
606,21,Ticks_Linear_5,314,5,42,127,737651040
606,21,Ticks_Linear_5,315,1,48,35,737653708
606,21,Ticks_Linear_5,316,1,48,27,738344524
606,21,Ticks_Linear_5,317,5,42,127,738440648
606,21,Ticks_Linear_5,318,1,48,25,739184308
606,21,Ticks_Linear_5,319,5,42,127,739231008
606,21,Ticks_Linear_5,320,1,48,23,739995792
606,21,Ticks_Linear_5,321,5,42,127,740030808
606,21,Ticks_Linear_5,322,1,48,21,740770508
606,21,Ticks_Linear_5,323,5,42,127,740830532
606,21,Ticks_Linear_5,324,1,48,24,741534576
606,21,Ticks_Linear_5,325,5,42,127,741631436
606,21,Ticks_Linear_5,326,1,48,26,742337672
606,21,Ticks_Linear_5,327,5,42,127,742431160
606,21,Ticks_Linear_5,328,1,48,48,742933132
606,21,Ticks_Linear_5,329,1,48,38,743091972
606,21,Ticks_Linear_5,330,1,48,27,743194092
606,21,Ticks_Linear_5,331,5,42,127,743230856
606,21,Ticks_Linear_5,332,1,48,18,743856696
606,21,Ticks_Linear_5,333,5,42,127,744040824
606,21,Ticks_Linear_5,334,1,48,21,744776264
606,21,Ticks_Linear_5,335,5,42,127,744850824
606,21,Ticks_Linear_5,336,1,48,25,745650808
606,21,Ticks_Linear_5,337,5,42,127,745660660
606,21,Ticks_Linear_5,338,5,42,127,746470720
606,21,Ticks_Linear_5,339,1,48,28,746492940
606,21,Ticks_Linear_5,340,1,48,25,747267324
606,21,Ticks_Linear_5,341,5,42,127,747280848
606,21,Ticks_Linear_5,0,9999,9999,9999,638108792
606,21,Ticks_Linear_5,1,9999,9999,9999,638589044
606,21,Ticks_Linear_5,2,9999,9999,9999,639068224
606,21,Ticks_Linear_5,3,9999,9999,9999,639548528
606,21,Ticks_Linear_5,4,9999,9999,9999,640028800
606,21,Ticks_Linear_5,5,9999,9999,9999,640518240
606,21,Ticks_Linear_5,6,9999,9999,9999,641008728
606,21,Ticks_Linear_5,7,9999,9999,9999,641498168
606,21,Ticks_Linear_5,8,9999,9999,9999,641988732
606,21,Ticks_Linear_5,9,9999,9999,9999,642478172
606,21,Ticks_Linear_5,10,9999,9999,9999,642978920
606,21,Ticks_Linear_5,11,9999,9999,9999,643478620
606,21,Ticks_Linear_5,12,9999,9999,9999,643978320
606,21,Ticks_Linear_5,13,9999,9999,9999,644479068
606,21,Ticks_Linear_5,14,9999,9999,9999,644978768
606,21,Ticks_Linear_5,15,9999,9999,9999,645488728
606,21,Ticks_Linear_5,16,9999,9999,9999,645998688
606,21,Ticks_Linear_5,17,9999,9999,9999,646508648
606,21,Ticks_Linear_5,18,9999,9999,9999,647018604
606,21,Ticks_Linear_5,19,9999,9999,9999,647528564
606,21,Ticks_Linear_5,20,9999,9999,9999,648048708
606,21,Ticks_Linear_5,21,9999,9999,9999,648568924
606,21,Ticks_Linear_5,22,9999,9999,9999,649088096
606,21,Ticks_Linear_5,23,9999,9999,9999,649608312
606,21,Ticks_Linear_5,24,9999,9999,9999,650128456
606,21,Ticks_Linear_5,25,9999,9999,9999,650658936
606,21,Ticks_Linear_5,26,9999,9999,9999,651188292
606,21,Ticks_Linear_5,27,9999,9999,9999,651718768
606,21,Ticks_Linear_5,28,9999,9999,9999,652248128
606,21,Ticks_Linear_5,29,9999,9999,9999,652778604
606,21,Ticks_Linear_5,30,9999,9999,9999,653318220
606,21,Ticks_Linear_5,31,9999,9999,9999,653858884
606,21,Ticks_Linear_5,32,9999,9999,9999,654398520
606,21,Ticks_Linear_5,33,9999,9999,9999,654938212
606,21,Ticks_Linear_5,34,9999,9999,9999,655478872
606,21,Ticks_Linear_5,35,9999,9999,9999,656028748
606,21,Ticks_Linear_5,36,9999,9999,9999,656578620
606,21,Ticks_Linear_5,37,9999,9999,9999,657128568
606,21,Ticks_Linear_5,38,9999,9999,9999,657678440
606,21,Ticks_Linear_5,39,9999,9999,9999,658228340
606,21,Ticks_Linear_5,40,9999,9999,9999,658788476
606,21,Ticks_Linear_5,41,9999,9999,9999,659348536
606,21,Ticks_Linear_5,42,9999,9999,9999,659908668
606,21,Ticks_Linear_5,43,9999,9999,9999,660468800
606,21,Ticks_Linear_5,44,9999,9999,9999,661028932
606,21,Ticks_Linear_5,45,9999,9999,9999,661598300
606,21,Ticks_Linear_5,46,9999,9999,9999,662168696
606,21,Ticks_Linear_5,47,9999,9999,9999,662739016
606,21,Ticks_Linear_5,48,9999,9999,9999,663308368
606,21,Ticks_Linear_5,49,9999,9999,9999,663878780
606,21,Ticks_Linear_5,50,9999,9999,9999,664458308
606,21,Ticks_Linear_5,51,9999,9999,9999,665038960
606,21,Ticks_Linear_5,52,9999,9999,9999,665618492
606,21,Ticks_Linear_5,53,9999,9999,9999,666198120
606,21,Ticks_Linear_5,54,9999,9999,9999,666778696
606,21,Ticks_Linear_5,55,9999,9999,9999,667368568
606,21,Ticks_Linear_5,56,9999,9999,9999,667958372
606,21,Ticks_Linear_5,57,9999,9999,9999,668548164
606,21,Ticks_Linear_5,58,9999,9999,9999,669139000
606,21,Ticks_Linear_5,59,9999,9999,9999,669728868
606,21,Ticks_Linear_5,60,9999,9999,9999,670328916
606,21,Ticks_Linear_5,61,9999,9999,9999,670928964
606,21,Ticks_Linear_5,62,9999,9999,9999,671529032
606,21,Ticks_Linear_5,63,9999,9999,9999,672128108
606,21,Ticks_Linear_5,64,9999,9999,9999,672728160
606,21,Ticks_Linear_5,65,9999,9999,9999,673338496
606,21,Ticks_Linear_5,66,9999,9999,9999,673948796
606,21,Ticks_Linear_5,67,9999,9999,9999,674559104
606,21,Ticks_Linear_5,68,9999,9999,9999,675168312
606,21,Ticks_Linear_5,69,9999,9999,9999,675778620
606,21,Ticks_Linear_5,70,9999,9999,9999,676398176
606,21,Ticks_Linear_5,71,9999,9999,9999,677018736
606,21,Ticks_Linear_5,72,9999,9999,9999,677638256
606,21,Ticks_Linear_5,73,9999,9999,9999,678258772
606,21,Ticks_Linear_5,74,9999,9999,9999,678878292
606,21,Ticks_Linear_5,75,9999,9999,9999,679509072
606,21,Ticks_Linear_5,76,9999,9999,9999,680138852
606,21,Ticks_Linear_5,77,9999,9999,9999,680768584
606,21,Ticks_Linear_5,78,9999,9999,9999,681398364
606,21,Ticks_Linear_5,79,9999,9999,9999,682028092
606,21,Ticks_Linear_5,80,9999,9999,9999,682668132
606,21,Ticks_Linear_5,81,9999,9999,9999,683308112
606,21,Ticks_Linear_5,82,9999,9999,9999,683948152
606,21,Ticks_Linear_5,83,9999,9999,9999,684588140
606,21,Ticks_Linear_5,84,9999,9999,9999,685228104
606,21,Ticks_Linear_5,85,9999,9999,9999,685878356
606,21,Ticks_Linear_5,86,9999,9999,9999,686528572
606,21,Ticks_Linear_5,87,9999,9999,9999,687178820
606,21,Ticks_Linear_5,88,9999,9999,9999,687829116
606,21,Ticks_Linear_5,89,9999,9999,9999,688478316
606,21,Ticks_Linear_5,90,9999,9999,9999,689138800
606,21,Ticks_Linear_5,91,9999,9999,9999,689798256
606,21,Ticks_Linear_5,92,9999,9999,9999,690458740
606,21,Ticks_Linear_5,93,9999,9999,9999,691118200
606,21,Ticks_Linear_5,94,9999,9999,9999,691778632
606,21,Ticks_Linear_5,95,9999,9999,9999,692448328
606,21,Ticks_Linear_5,96,9999,9999,9999,693119092
606,21,Ticks_Linear_5,97,9999,9999,9999,693788788
606,21,Ticks_Linear_5,98,9999,9999,9999,694458436
606,21,Ticks_Linear_5,99,9999,9999,9999,695128152
606,21,Ticks_Linear_5,100,9999,9999,9999,695808108
606,21,Ticks_Linear_5,101,9999,9999,9999,696489060
606,21,Ticks_Linear_5,102,9999,9999,9999,697168960
606,21,Ticks_Linear_5,103,9999,9999,9999,697848916
606,21,Ticks_Linear_5,104,9999,9999,9999,698528892
606,21,Ticks_Linear_5,105,9999,9999,9999,699219052
606,21,Ticks_Linear_5,106,9999,9999,9999,699908220
606,21,Ticks_Linear_5,107,9999,9999,9999,700598368
606,21,Ticks_Linear_5,108,9999,9999,9999,701288544
606,21,Ticks_Linear_5,109,9999,9999,9999,701978684
606,21,Ticks_Linear_5,110,9999,9999,9999,702678144
606,21,Ticks_Linear_5,111,9999,9999,9999,703378560
606,21,Ticks_Linear_5,112,9999,9999,9999,704078904
606,21,Ticks_Linear_5,113,9999,9999,9999,704778312
606,21,Ticks_Linear_5,114,9999,9999,9999,705478752
606,21,Ticks_Linear_5,115,9999,9999,9999,706188384
606,21,Ticks_Linear_5,116,9999,9999,9999,706899068
606,21,Ticks_Linear_5,117,9999,9999,9999,707608676
606,21,Ticks_Linear_5,118,9999,9999,9999,708318312
606,21,Ticks_Linear_5,119,9999,9999,9999,709028916
606,21,Ticks_Linear_5,120,9999,9999,9999,709748812
606,21,Ticks_Linear_5,121,9999,9999,9999,710468704
606,21,Ticks_Linear_5,122,9999,9999,9999,711188572
606,21,Ticks_Linear_5,123,9999,9999,9999,711908468
606,21,Ticks_Linear_5,124,9999,9999,9999,712628288
606,21,Ticks_Linear_5,125,9999,9999,9999,713358440
606,21,Ticks_Linear_5,126,9999,9999,9999,714088516
606,21,Ticks_Linear_5,127,9999,9999,9999,714818652
606,21,Ticks_Linear_5,128,9999,9999,9999,715548728
606,21,Ticks_Linear_5,129,9999,9999,9999,716278872
606,21,Ticks_Linear_5,130,9999,9999,9999,717018164
606,21,Ticks_Linear_5,131,9999,9999,9999,717758576
606,21,Ticks_Linear_5,132,9999,9999,9999,718498912
606,21,Ticks_Linear_5,133,9999,9999,9999,719238200
606,21,Ticks_Linear_5,134,9999,9999,9999,719978612
606,21,Ticks_Linear_5,135,9999,9999,9999,720728164
606,21,Ticks_Linear_5,136,9999,9999,9999,721478760
606,21,Ticks_Linear_5,137,9999,9999,9999,722228308
606,21,Ticks_Linear_5,138,9999,9999,9999,722978904
606,21,Ticks_Linear_5,139,9999,9999,9999,723728500
606,21,Ticks_Linear_5,140,9999,9999,9999,724488312
606,21,Ticks_Linear_5,141,9999,9999,9999,725248120
606,21,Ticks_Linear_5,142,9999,9999,9999,726008900
606,21,Ticks_Linear_5,143,9999,9999,9999,726768708
606,21,Ticks_Linear_5,144,9999,9999,9999,727528516
606,21,Ticks_Linear_5,145,9999,9999,9999,728298584
606,21,Ticks_Linear_5,146,9999,9999,9999,729068652
606,21,Ticks_Linear_5,147,9999,9999,9999,729838644
606,21,Ticks_Linear_5,148,9999,9999,9999,730608712
606,21,Ticks_Linear_5,149,9999,9999,9999,731378780
606,21,Ticks_Linear_5,150,9999,9999,9999,732159092
606,21,Ticks_Linear_5,151,9999,9999,9999,732938296
606,21,Ticks_Linear_5,152,9999,9999,9999,733718640
606,21,Ticks_Linear_5,153,9999,9999,9999,734498916
606,21,Ticks_Linear_5,154,9999,9999,9999,735278156
606,21,Ticks_Linear_5,155,9999,9999,9999,736068668
606,21,Ticks_Linear_5,156,9999,9999,9999,736858212
606,21,Ticks_Linear_5,157,9999,9999,9999,737648744
606,21,Ticks_Linear_5,158,9999,9999,9999,738438200
606,21,Ticks_Linear_5,159,9999,9999,9999,739228784
606,21,Ticks_Linear_5,160,9999,9999,9999,740028512
606,21,Ticks_Linear_5,161,9999,9999,9999,740828232
606,21,Ticks_Linear_5,162,9999,9999,9999,741628988
606,21,Ticks_Linear_5,163,9999,9999,9999,742428728
606,21,Ticks_Linear_5,164,9999,9999,9999,743228484
606,21,Ticks_Linear_5,165,9999,9999,9999,744038524
606,21,Ticks_Linear_5,166,9999,9999,9999,744848452
606,21,Ticks_Linear_5,167,9999,9999,9999,745658436
606,21,Ticks_Linear_5,168,9999,9999,9999,746468424
606,21,Ticks_Linear_5,169,9999,9999,9999,747278400
607,22,Ticks_Phase_8,0,5,42,127,758324628
607,22,Ticks_Phase_8,1,5,42,127,759125256
607,22,Ticks_Phase_8,2,5,42,127,759925068
607,22,Ticks_Phase_8,3,1,48,45,759948180
607,22,Ticks_Phase_8,4,1,48,47,760706544
607,22,Ticks_Phase_8,5,5,42,127,760725140
607,22,Ticks_Phase_8,6,1,48,49,761501908
607,22,Ticks_Phase_8,7,5,42,127,761524556
607,22,Ticks_Phase_8,8,1,48,42,762294436
607,22,Ticks_Phase_8,9,5,42,127,762325240
607,22,Ticks_Phase_8,10,1,48,42,763119680
607,22,Ticks_Phase_8,11,5,42,127,763125100
607,22,Ticks_Phase_8,12,5,42,127,763925116
607,22,Ticks_Phase_8,13,1,48,42,763927412
607,22,Ticks_Phase_8,14,5,42,127,764724556
607,22,Ticks_Phase_8,15,1,48,48,764741972
607,22,Ticks_Phase_8,16,1,48,39,765523872
607,22,Ticks_Phase_8,17,5,42,127,765525308
607,22,Ticks_Phase_8,18,5,42,127,766325100
607,22,Ticks_Phase_8,19,1,48,35,766344848
607,22,Ticks_Phase_8,20,5,42,127,767125108
607,22,Ticks_Phase_8,21,1,48,30,767142896
607,22,Ticks_Phase_8,22,1,48,37,767875288
607,22,Ticks_Phase_8,23,5,42,127,767924816
607,22,Ticks_Phase_8,24,1,48,29,768705176
607,22,Ticks_Phase_8,25,5,42,127,768725348
607,22,Ticks_Phase_8,26,1,48,43,769481216
607,22,Ticks_Phase_8,27,5,42,127,769525136
607,22,Ticks_Phase_8,28,1,48,38,770227688
607,22,Ticks_Phase_8,29,5,42,127,770324904
607,22,Ticks_Phase_8,30,1,48,42,771054212
607,22,Ticks_Phase_8,31,5,42,127,771124804
607,22,Ticks_Phase_8,32,1,48,40,771915880
607,22,Ticks_Phase_8,33,5,42,127,771925416
607,22,Ticks_Phase_8,34,5,42,127,772725060
607,22,Ticks_Phase_8,35,1,48,42,772728700
607,22,Ticks_Phase_8,36,1,48,42,773494780
607,22,Ticks_Phase_8,37,5,42,127,773524764
607,22,Ticks_Phase_8,38,5,42,127,774324780
607,22,Ticks_Phase_8,39,1,48,46,774325744
607,22,Ticks_Phase_8,40,5,42,127,775125316
607,22,Ticks_Phase_8,41,1,48,39,775196356
607,22,Ticks_Phase_8,42,5,42,127,775925028
607,22,Ticks_Phase_8,43,1,48,37,775944776
607,22,Ticks_Phase_8,44,1,48,37,776695496
607,22,Ticks_Phase_8,45,5,42,127,776724880
607,22,Ticks_Phase_8,46,1,48,29,777492508
607,22,Ticks_Phase_8,47,5,42,127,777524620
607,22,Ticks_Phase_8,48,5,42,127,778325456
607,22,Ticks_Phase_8,49,1,48,33,778332332
607,22,Ticks_Phase_8,50,5,42,127,779125020
607,22,Ticks_Phase_8,51,1,48,33,779131876
607,22,Ticks_Phase_8,52,5,42,127,779924808
607,22,Ticks_Phase_8,53,1,48,35,779956688
607,22,Ticks_Phase_8,54,1,48,36,780699392
607,22,Ticks_Phase_8,55,5,42,127,780724588
607,22,Ticks_Phase_8,56,1,48,36,781489224
607,22,Ticks_Phase_8,57,5,42,127,781525568
607,22,Ticks_Phase_8,58,1,48,35,782284968
607,22,Ticks_Phase_8,59,5,42,127,782304692
607,22,Ticks_Phase_8,60,5,42,127,783105680
607,22,Ticks_Phase_8,61,1,48,24,783133220
607,22,Ticks_Phase_8,62,5,42,127,783905344
607,22,Ticks_Phase_8,63,5,42,127,784704852
607,22,Ticks_Phase_8,64,1,48,24,784736808
607,22,Ticks_Phase_8,65,1,48,34,785432844
607,22,Ticks_Phase_8,66,5,42,127,785504708
607,22,Ticks_Phase_8,67,1,48,28,786236312
607,22,Ticks_Phase_8,68,5,42,127,786305612
607,22,Ticks_Phase_8,69,1,48,42,787043372
607,22,Ticks_Phase_8,70,5,42,127,787105400
607,22,Ticks_Phase_8,71,1,48,36,787800092
607,22,Ticks_Phase_8,72,5,42,127,787904876
607,22,Ticks_Phase_8,73,1,48,45,788624144
607,22,Ticks_Phase_8,74,5,42,127,788704748
607,22,Ticks_Phase_8,75,1,48,39,789429168
607,22,Ticks_Phase_8,76,5,42,127,789505436
607,22,Ticks_Phase_8,77,1,48,42,790281524
607,22,Ticks_Phase_8,78,5,42,127,790305468
607,22,Ticks_Phase_8,79,1,48,40,791085088
607,22,Ticks_Phase_8,80,5,42,127,791104808
607,22,Ticks_Phase_8,81,1,48,43,791866296
607,22,Ticks_Phase_8,82,5,42,127,791904596
607,22,Ticks_Phase_8,83,5,42,127,792705508
607,22,Ticks_Phase_8,84,1,48,37,792726532
607,22,Ticks_Phase_8,85,5,42,127,793505296
607,22,Ticks_Phase_8,86,1,48,46,793510288
607,22,Ticks_Phase_8,87,1,48,36,794299508
607,22,Ticks_Phase_8,88,5,42,127,794304780
607,22,Ticks_Phase_8,89,1,48,46,795047396
607,22,Ticks_Phase_8,90,5,42,127,795104564
607,22,Ticks_Phase_8,91,1,48,41,795842156
607,22,Ticks_Phase_8,92,5,42,127,795905400
607,22,Ticks_Phase_8,93,1,48,43,796649288
607,22,Ticks_Phase_8,94,5,42,127,796724460
607,22,Ticks_Phase_8,95,1,48,40,797444812
607,22,Ticks_Phase_8,96,5,42,127,797525292
607,22,Ticks_Phase_8,97,1,48,41,798279216
607,22,Ticks_Phase_8,98,5,42,127,798325152
607,22,Ticks_Phase_8,99,1,48,39,799112560
607,22,Ticks_Phase_8,100,5,42,127,799125160
607,22,Ticks_Phase_8,101,1,48,32,799883812
607,22,Ticks_Phase_8,102,5,42,127,799924500
607,22,Ticks_Phase_8,103,1,48,44,800669584
607,22,Ticks_Phase_8,104,5,42,127,800725332
607,22,Ticks_Phase_8,105,1,48,33,801442556
607,22,Ticks_Phase_8,106,5,42,127,801525048
607,22,Ticks_Phase_8,107,1,48,36,802300536
607,22,Ticks_Phase_8,108,5,42,127,802325204
607,22,Ticks_Phase_8,109,1,48,45,803110532
607,22,Ticks_Phase_8,110,5,42,127,803124572
607,22,Ticks_Phase_8,111,1,48,43,803901708
607,22,Ticks_Phase_8,112,5,42,127,803925476
607,22,Ticks_Phase_8,113,1,48,48,804691012
607,22,Ticks_Phase_8,114,5,42,127,804725044
607,22,Ticks_Phase_8,115,5,42,127,805524908
607,22,Ticks_Phase_8,116,1,48,47,805531772
607,22,Ticks_Phase_8,117,5,42,127,806324920
607,22,Ticks_Phase_8,118,1,48,32,806346916
607,22,Ticks_Phase_8,119,5,42,127,807125304
607,22,Ticks_Phase_8,120,1,48,41,807143784
607,22,Ticks_Phase_8,121,1,48,41,807904988
607,22,Ticks_Phase_8,122,5,42,127,807925232
607,22,Ticks_Phase_8,123,1,48,40,808711208
607,22,Ticks_Phase_8,124,5,42,127,808724868
607,22,Ticks_Phase_8,125,1,48,45,809503916
607,22,Ticks_Phase_8,126,5,42,127,809564672
607,22,Ticks_Phase_8,127,1,48,43,810316572
607,22,Ticks_Phase_8,128,5,42,127,810365208
607,22,Ticks_Phase_8,129,1,48,39,811132160
607,22,Ticks_Phase_8,130,5,42,127,811164992
607,22,Ticks_Phase_8,131,1,48,43,811891808
607,22,Ticks_Phase_8,132,5,42,127,811965004
607,22,Ticks_Phase_8,133,1,48,46,812743644
607,22,Ticks_Phase_8,134,5,42,127,812764788
607,22,Ticks_Phase_8,135,5,42,127,813565184
607,22,Ticks_Phase_8,136,1,48,54,813566224
607,22,Ticks_Phase_8,137,1,48,50,814346812
607,22,Ticks_Phase_8,138,5,42,127,814364964
607,22,Ticks_Phase_8,139,5,42,127,815164756
607,22,Ticks_Phase_8,140,1,48,49,815187868
607,22,Ticks_Phase_8,141,5,42,127,815964768
607,22,Ticks_Phase_8,142,1,48,45,815970952
607,22,Ticks_Phase_8,143,5,42,127,816765152
607,22,Ticks_Phase_8,144,1,48,43,816792604
607,22,Ticks_Phase_8,145,5,42,127,817564936
607,22,Ticks_Phase_8,146,1,48,53,817582740
607,22,Ticks_Phase_8,147,1,48,46,818320576
607,22,Ticks_Phase_8,148,5,42,127,818364720
607,22,Ticks_Phase_8,149,1,48,54,819085092
607,22,Ticks_Phase_8,150,5,42,127,819164728
607,22,Ticks_Phase_8,151,1,48,41,819955200
607,22,Ticks_Phase_8,152,5,42,127,819965260
607,22,Ticks_Phase_8,153,5,42,127,820765080
607,22,Ticks_Phase_8,154,1,48,51,820799504
607,22,Ticks_Phase_8,155,1,48,41,821539812
607,22,Ticks_Phase_8,156,5,42,127,821564784
607,22,Ticks_Phase_8,157,1,48,38,822335712
607,22,Ticks_Phase_8,158,5,42,127,822364572
607,22,Ticks_Phase_8,159,5,42,127,823125572
607,22,Ticks_Phase_8,160,1,48,28,823202004
607,22,Ticks_Phase_8,161,1,48,41,823901580
607,22,Ticks_Phase_8,162,5,42,127,823925204
607,22,Ticks_Phase_8,163,1,48,38,824705492
607,22,Ticks_Phase_8,164,5,42,127,824724768
607,22,Ticks_Phase_8,165,5,42,127,825524708
607,22,Ticks_Phase_8,166,1,48,42,825532776
607,22,Ticks_Phase_8,167,5,42,127,826325540
607,22,Ticks_Phase_8,168,1,48,39,826377864
607,22,Ticks_Phase_8,169,1,48,44,827119900
607,22,Ticks_Phase_8,170,5,42,127,827125392
607,22,Ticks_Phase_8,171,1,48,41,827917444
607,22,Ticks_Phase_8,172,5,42,127,827924808
607,22,Ticks_Phase_8,173,5,42,127,828724552
607,22,Ticks_Phase_8,174,1,48,44,828732008
607,22,Ticks_Phase_8,175,5,42,127,829525308
607,22,Ticks_Phase_8,176,1,48,52,829527324
607,22,Ticks_Phase_8,177,1,48,36,830318696
607,22,Ticks_Phase_8,178,5,42,127,830325460
607,22,Ticks_Phase_8,179,1,48,37,831059764
607,22,Ticks_Phase_8,180,5,42,127,831124800
607,22,Ticks_Phase_8,181,5,42,127,831924444
607,22,Ticks_Phase_8,182,1,48,19,831932888
607,22,Ticks_Phase_8,183,5,42,127,832725352
607,22,Ticks_Phase_8,184,1,48,41,832747572
607,22,Ticks_Phase_8,185,1,48,46,833510944
607,22,Ticks_Phase_8,186,5,42,127,833525280
607,22,Ticks_Phase_8,187,1,48,51,834324776
607,22,Ticks_Phase_8,188,5,42,127,834326188
607,22,Ticks_Phase_8,189,1,48,56,835115492
607,22,Ticks_Phase_8,190,5,42,127,835124656
607,22,Ticks_Phase_8,191,5,42,127,835844520
607,22,Ticks_Phase_8,192,1,48,47,835929888
607,22,Ticks_Phase_8,193,1,48,44,836626072
607,22,Ticks_Phase_8,194,5,42,127,836645220
607,22,Ticks_Phase_8,195,1,48,44,837439212
607,22,Ticks_Phase_8,196,5,42,127,837445160
607,22,Ticks_Phase_8,197,1,48,53,838209268
607,22,Ticks_Phase_8,198,5,42,127,838244720
607,22,Ticks_Phase_8,199,5,42,127,839044516
607,22,Ticks_Phase_8,200,1,48,40,839054152
607,22,Ticks_Phase_8,201,1,48,36,839834528
607,22,Ticks_Phase_8,202,5,42,127,839845264
607,22,Ticks_Phase_8,203,1,48,37,840627352
607,22,Ticks_Phase_8,204,5,42,127,840645272
607,22,Ticks_Phase_8,205,5,42,127,841444844
607,22,Ticks_Phase_8,206,1,48,41,841450660
607,22,Ticks_Phase_8,207,5,42,127,842244332
607,22,Ticks_Phase_8,208,1,48,44,842251116
607,22,Ticks_Phase_8,209,1,48,43,843015028
607,22,Ticks_Phase_8,210,5,42,127,843045260
607,22,Ticks_Phase_8,211,5,42,127,843845128
607,22,Ticks_Phase_8,212,1,48,40,843851016
607,22,Ticks_Phase_8,213,5,42,127,844645136
607,22,Ticks_Phase_8,214,1,48,45,844675964
607,22,Ticks_Phase_8,215,1,48,44,845423176
607,22,Ticks_Phase_8,216,5,42,127,845444320
607,22,Ticks_Phase_8,217,5,42,127,846245084
607,22,Ticks_Phase_8,218,1,48,30,846291632
607,22,Ticks_Phase_8,219,5,42,127,847044944
607,22,Ticks_Phase_8,220,1,48,39,847078992
607,22,Ticks_Phase_8,221,5,42,127,847844880
607,22,Ticks_Phase_8,222,1,48,21,847845844
607,22,Ticks_Phase_8,223,5,42,127,848644592
607,22,Ticks_Phase_8,224,1,48,24,848667356
607,22,Ticks_Phase_8,225,1,48,39,849480836
607,22,Ticks_Phase_8,226,5,42,127,849525128
607,22,Ticks_Phase_8,227,1,48,35,850296956
607,22,Ticks_Phase_8,228,5,42,127,850324836
607,22,Ticks_Phase_8,229,5,42,127,851124704
607,22,Ticks_Phase_8,230,1,48,38,851146248
607,22,Ticks_Phase_8,231,5,42,127,851925316
607,22,Ticks_Phase_8,232,1,48,38,851962800
607,22,Ticks_Phase_8,233,5,42,127,852725176
607,22,Ticks_Phase_8,234,1,48,27,852729788
607,22,Ticks_Phase_8,235,1,48,40,853515868
607,22,Ticks_Phase_8,236,5,42,127,853524956
607,22,Ticks_Phase_8,237,1,48,39,854294088
607,22,Ticks_Phase_8,238,5,42,127,854324692
607,22,Ticks_Phase_8,239,1,48,40,855040472
607,22,Ticks_Phase_8,240,5,42,127,855125376
607,22,Ticks_Phase_8,241,5,42,127,855925244
607,22,Ticks_Phase_8,242,1,48,40,855958168
607,22,Ticks_Phase_8,243,5,42,127,856724952
607,22,Ticks_Phase_8,244,1,48,35,856731888
607,22,Ticks_Phase_8,245,5,42,127,857524592
607,22,Ticks_Phase_8,246,1,48,36,857565384
607,22,Ticks_Phase_8,247,5,42,127,858325648
607,22,Ticks_Phase_8,248,1,48,37,858339176
607,22,Ticks_Phase_8,249,1,48,36,859108100
607,22,Ticks_Phase_8,250,5,42,127,859125056
607,22,Ticks_Phase_8,251,1,48,42,859903920
607,22,Ticks_Phase_8,252,5,42,127,859924768
607,22,Ticks_Phase_8,253,1,48,41,860706724
607,22,Ticks_Phase_8,254,5,42,127,860724580
607,22,Ticks_Phase_8,255,1,48,30,861489440
607,22,Ticks_Phase_8,256,5,42,127,861525636
607,22,Ticks_Phase_8,257,1,48,33,862306000
607,22,Ticks_Phase_8,258,5,42,127,862325052
607,22,Ticks_Phase_8,259,1,48,36,863131924
607,22,Ticks_Phase_8,260,5,42,127,863284664
607,22,Ticks_Phase_8,261,5,42,127,864085592
607,22,Ticks_Phase_8,262,1,48,40,864309284
607,22,Ticks_Phase_8,263,5,42,127,864885228
607,22,Ticks_Phase_8,264,1,48,19,865108616
607,22,Ticks_Phase_8,265,5,42,127,865684716
607,22,Ticks_Phase_8,266,1,48,25,865800540
607,22,Ticks_Phase_8,267,1,48,38,866471876
607,22,Ticks_Phase_8,268,5,42,127,866484648
607,22,Ticks_Phase_8,269,1,48,40,867222616
607,22,Ticks_Phase_8,270,5,42,127,867285628
607,22,Ticks_Phase_8,271,1,48,36,868049736
607,22,Ticks_Phase_8,272,5,42,127,868085340
607,22,Ticks_Phase_8,273,1,48,35,868824148
607,22,Ticks_Phase_8,274,5,42,127,868884832
607,22,Ticks_Phase_8,275,1,48,38,869624376
607,22,Ticks_Phase_8,276,5,42,127,869684492
607,22,Ticks_Phase_8,277,1,48,32,870445084
607,22,Ticks_Phase_8,278,5,42,127,870485324
607,22,Ticks_Phase_8,279,1,48,36,871222704
607,22,Ticks_Phase_8,280,5,42,127,871285332
607,22,Ticks_Phase_8,281,1,48,43,872031840
607,22,Ticks_Phase_8,282,5,42,127,872084748
607,22,Ticks_Phase_8,283,1,48,30,872874324
607,22,Ticks_Phase_8,284,5,42,127,872884608
607,22,Ticks_Phase_8,285,1,48,40,873675600
607,22,Ticks_Phase_8,286,5,42,127,873685292
607,22,Ticks_Phase_8,287,1,48,39,874472700
607,22,Ticks_Phase_8,288,5,42,127,874485300
607,22,Ticks_Phase_8,289,1,48,45,875247840
607,22,Ticks_Phase_8,290,5,42,127,875284788
607,22,Ticks_Phase_8,291,1,48,38,876034152
607,22,Ticks_Phase_8,292,5,42,127,876084600
607,22,Ticks_Phase_8,293,1,48,40,876867504
607,22,Ticks_Phase_8,294,5,42,127,876885284
607,22,Ticks_Phase_8,295,1,48,34,877665192
607,22,Ticks_Phase_8,296,5,42,127,877685068
607,22,Ticks_Phase_8,297,5,42,127,878325104
607,22,Ticks_Phase_8,298,1,48,43,878417516
607,22,Ticks_Phase_8,299,1,48,36,879043756
607,22,Ticks_Phase_8,300,5,42,127,879124956
607,22,Ticks_Phase_8,301,1,48,37,879804524
607,22,Ticks_Phase_8,302,5,42,127,879924604
607,22,Ticks_Phase_8,303,1,48,42,880593824
607,22,Ticks_Phase_8,304,5,42,127,880725288
607,22,Ticks_Phase_8,305,1,48,29,881440356
607,22,Ticks_Phase_8,306,5,42,127,881525012
607,22,Ticks_Phase_8,307,1,48,35,882243600
607,22,Ticks_Phase_8,308,5,42,127,882324800
607,22,Ticks_Phase_8,309,1,48,33,883100140
607,22,Ticks_Phase_8,310,5,42,127,883124736
607,22,Ticks_Phase_8,311,5,42,127,883925352
607,22,Ticks_Phase_8,312,1,48,27,883932972
607,22,Ticks_Phase_8,313,1,48,33,884720904
607,22,Ticks_Phase_8,314,5,42,127,884725132
607,22,Ticks_Phase_8,315,1,48,40,885514636
607,22,Ticks_Phase_8,316,5,42,127,885524844
607,22,Ticks_Phase_8,317,1,48,32,886313620
607,22,Ticks_Phase_8,318,5,42,127,886324728
607,22,Ticks_Phase_8,319,1,48,40,887122828
607,22,Ticks_Phase_8,320,5,42,127,887125412
607,22,Ticks_Phase_8,321,1,48,40,887907124
607,22,Ticks_Phase_8,322,5,42,127,887924976
607,22,Ticks_Phase_8,323,5,42,127,888724916
607,22,Ticks_Phase_8,324,1,48,36,888732836
607,22,Ticks_Phase_8,325,5,42,127,889524704
607,22,Ticks_Phase_8,326,1,48,40,889557852
607,22,Ticks_Phase_8,327,5,42,127,890325460
607,22,Ticks_Phase_8,328,1,48,40,890347680
607,22,Ticks_Phase_8,329,1,48,43,891110608
607,22,Ticks_Phase_8,330,5,42,127,891125092
607,22,Ticks_Phase_8,331,1,48,41,891917960
607,22,Ticks_Phase_8,332,5,42,127,891924804
607,22,Ticks_Phase_8,333,1,48,44,892699048
607,22,Ticks_Phase_8,334,5,42,127,892724688
607,22,Ticks_Phase_8,335,1,48,24,893497936
607,22,Ticks_Phase_8,336,5,42,127,893525444
607,22,Ticks_Phase_8,0,9999,9999,9999,758322264
607,22,Ticks_Phase_8,1,9999,9999,9999,759123044
607,22,Ticks_Phase_8,2,9999,9999,9999,759922780
607,22,Ticks_Phase_8,3,9999,9999,9999,760722560
607,22,Ticks_Phase_8,4,9999,9999,9999,761522268
607,22,Ticks_Phase_8,5,9999,9999,9999,762323028
607,22,Ticks_Phase_8,6,9999,9999,9999,763122812
607,22,Ticks_Phase_8,7,9999,9999,9999,763922532
607,22,Ticks_Phase_8,8,9999,9999,9999,764722268
607,22,Ticks_Phase_8,9,9999,9999,9999,765523028
607,22,Ticks_Phase_8,10,9999,9999,9999,766322812
607,22,Ticks_Phase_8,11,9999,9999,9999,767122524
607,22,Ticks_Phase_8,12,9999,9999,9999,767922232
607,22,Ticks_Phase_8,13,9999,9999,9999,768723060
607,22,Ticks_Phase_8,14,9999,9999,9999,769522776
607,22,Ticks_Phase_8,15,9999,9999,9999,770322544
607,22,Ticks_Phase_8,16,9999,9999,9999,771122296
607,22,Ticks_Phase_8,17,9999,9999,9999,771923056
607,22,Ticks_Phase_8,18,9999,9999,9999,772722772
607,22,Ticks_Phase_8,19,9999,9999,9999,773522552
607,22,Ticks_Phase_8,20,9999,9999,9999,774322272
607,22,Ticks_Phase_8,21,9999,9999,9999,775123028
607,22,Ticks_Phase_8,22,9999,9999,9999,775922740
607,22,Ticks_Phase_8,23,9999,9999,9999,776722520
607,22,Ticks_Phase_8,24,9999,9999,9999,777522256
607,22,Ticks_Phase_8,25,9999,9999,9999,778323024
607,22,Ticks_Phase_8,26,9999,9999,9999,779122808
607,22,Ticks_Phase_8,27,9999,9999,9999,779922520
607,22,Ticks_Phase_8,28,9999,9999,9999,780722300
607,22,Ticks_Phase_8,29,9999,9999,9999,781523060
607,22,Ticks_Phase_8,30,9999,9999,9999,782302328
607,22,Ticks_Phase_8,31,9999,9999,9999,783103096
607,22,Ticks_Phase_8,32,9999,9999,9999,783902832
607,22,Ticks_Phase_8,33,9999,9999,9999,784702564
607,22,Ticks_Phase_8,34,9999,9999,9999,785502272
607,22,Ticks_Phase_8,35,9999,9999,9999,786303028
607,22,Ticks_Phase_8,36,9999,9999,9999,787102816
607,22,Ticks_Phase_8,37,9999,9999,9999,787902588
607,22,Ticks_Phase_8,38,9999,9999,9999,788702316
607,22,Ticks_Phase_8,39,9999,9999,9999,789503072
607,22,Ticks_Phase_8,40,9999,9999,9999,790302808
607,22,Ticks_Phase_8,41,9999,9999,9999,791102524
607,22,Ticks_Phase_8,42,9999,9999,9999,791902308
607,22,Ticks_Phase_8,43,9999,9999,9999,792703072
607,22,Ticks_Phase_8,44,9999,9999,9999,793502788
607,22,Ticks_Phase_8,45,9999,9999,9999,794302568
607,22,Ticks_Phase_8,46,9999,9999,9999,795102280
607,22,Ticks_Phase_8,47,9999,9999,9999,795903036
607,22,Ticks_Phase_8,48,9999,9999,9999,796722244
607,22,Ticks_Phase_8,49,9999,9999,9999,797523004
607,22,Ticks_Phase_8,50,9999,9999,9999,798322792
607,22,Ticks_Phase_8,51,9999,9999,9999,799122504
607,22,Ticks_Phase_8,52,9999,9999,9999,799922288
607,22,Ticks_Phase_8,53,9999,9999,9999,800723048
607,22,Ticks_Phase_8,54,9999,9999,9999,801522760
607,22,Ticks_Phase_8,55,9999,9999,9999,802322544
607,22,Ticks_Phase_8,56,9999,9999,9999,803122284
607,22,Ticks_Phase_8,57,9999,9999,9999,803923044
607,22,Ticks_Phase_8,58,9999,9999,9999,804722756
607,22,Ticks_Phase_8,59,9999,9999,9999,805522548
607,22,Ticks_Phase_8,60,9999,9999,9999,806322260
607,22,Ticks_Phase_8,61,9999,9999,9999,807123016
607,22,Ticks_Phase_8,62,9999,9999,9999,807922796
607,22,Ticks_Phase_8,63,9999,9999,9999,808722508
607,22,Ticks_Phase_8,64,9999,9999,9999,809562236
607,22,Ticks_Phase_8,65,9999,9999,9999,810362996
607,22,Ticks_Phase_8,66,9999,9999,9999,811162708
607,22,Ticks_Phase_8,67,9999,9999,9999,811962496
607,22,Ticks_Phase_8,68,9999,9999,9999,812762208
607,22,Ticks_Phase_8,69,9999,9999,9999,813562972
607,22,Ticks_Phase_8,70,9999,9999,9999,814362676
607,22,Ticks_Phase_8,71,9999,9999,9999,815162468
607,22,Ticks_Phase_8,72,9999,9999,9999,815962184
607,22,Ticks_Phase_8,73,9999,9999,9999,816762940
607,22,Ticks_Phase_8,74,9999,9999,9999,817562724
607,22,Ticks_Phase_8,75,9999,9999,9999,818362432
607,22,Ticks_Phase_8,76,9999,9999,9999,819162216
607,22,Ticks_Phase_8,77,9999,9999,9999,819962976
607,22,Ticks_Phase_8,78,9999,9999,9999,820762692
607,22,Ticks_Phase_8,79,9999,9999,9999,821562424
607,22,Ticks_Phase_8,80,9999,9999,9999,822362212
607,22,Ticks_Phase_8,81,9999,9999,9999,823123060
607,22,Ticks_Phase_8,82,9999,9999,9999,823922768
607,22,Ticks_Phase_8,83,9999,9999,9999,824722556
607,22,Ticks_Phase_8,84,9999,9999,9999,825522272
607,22,Ticks_Phase_8,85,9999,9999,9999,826323028
607,22,Ticks_Phase_8,86,9999,9999,9999,827122808
607,22,Ticks_Phase_8,87,9999,9999,9999,827922520
607,22,Ticks_Phase_8,88,9999,9999,9999,828722264
607,22,Ticks_Phase_8,89,9999,9999,9999,829523024
607,22,Ticks_Phase_8,90,9999,9999,9999,830322800
607,22,Ticks_Phase_8,91,9999,9999,9999,831122516
607,22,Ticks_Phase_8,92,9999,9999,9999,831922232
607,22,Ticks_Phase_8,93,9999,9999,9999,832723064
607,22,Ticks_Phase_8,94,9999,9999,9999,833522772
607,22,Ticks_Phase_8,95,9999,9999,9999,834322488
607,22,Ticks_Phase_8,96,9999,9999,9999,835122292
607,22,Ticks_Phase_8,97,9999,9999,9999,835842160
607,22,Ticks_Phase_8,98,9999,9999,9999,836642936
607,22,Ticks_Phase_8,99,9999,9999,9999,837442648
607,22,Ticks_Phase_8,100,9999,9999,9999,838242360
607,22,Ticks_Phase_8,101,9999,9999,9999,839042152
607,22,Ticks_Phase_8,102,9999,9999,9999,839842904
607,22,Ticks_Phase_8,103,9999,9999,9999,840642616
607,22,Ticks_Phase_8,104,9999,9999,9999,841442408
607,22,Ticks_Phase_8,105,9999,9999,9999,842242120
607,22,Ticks_Phase_8,106,9999,9999,9999,843042896
607,22,Ticks_Phase_8,107,9999,9999,9999,843842616
607,22,Ticks_Phase_8,108,9999,9999,9999,844642404
607,22,Ticks_Phase_8,109,9999,9999,9999,845442108
607,22,Ticks_Phase_8,110,9999,9999,9999,846242872
607,22,Ticks_Phase_8,111,9999,9999,9999,847042660
607,22,Ticks_Phase_8,112,9999,9999,9999,847842372
607,22,Ticks_Phase_8,113,9999,9999,9999,848642156
607,22,Ticks_Phase_8,114,9999,9999,9999,849522764
607,22,Ticks_Phase_8,115,9999,9999,9999,850322552
607,22,Ticks_Phase_8,116,9999,9999,9999,851122268
607,22,Ticks_Phase_8,117,9999,9999,9999,851923032
607,22,Ticks_Phase_8,118,9999,9999,9999,852722740
607,22,Ticks_Phase_8,119,9999,9999,9999,853522520
607,22,Ticks_Phase_8,120,9999,9999,9999,854322256
607,22,Ticks_Phase_8,121,9999,9999,9999,855123012
607,22,Ticks_Phase_8,122,9999,9999,9999,855922808
607,22,Ticks_Phase_8,123,9999,9999,9999,856722520
607,22,Ticks_Phase_8,124,9999,9999,9999,857522232
607,22,Ticks_Phase_8,125,9999,9999,9999,858323060
607,22,Ticks_Phase_8,126,9999,9999,9999,859122768
607,22,Ticks_Phase_8,127,9999,9999,9999,859922556
607,22,Ticks_Phase_8,128,9999,9999,9999,860722292
607,22,Ticks_Phase_8,129,9999,9999,9999,861523052
607,22,Ticks_Phase_8,130,9999,9999,9999,862322764
607,22,Ticks_Phase_8,131,9999,9999,9999,863282300
607,22,Ticks_Phase_8,132,9999,9999,9999,864083008
607,22,Ticks_Phase_8,133,9999,9999,9999,864882796
607,22,Ticks_Phase_8,134,9999,9999,9999,865682504
607,22,Ticks_Phase_8,135,9999,9999,9999,866482288
607,22,Ticks_Phase_8,136,9999,9999,9999,867283044
607,22,Ticks_Phase_8,137,9999,9999,9999,868082756
607,22,Ticks_Phase_8,138,9999,9999,9999,868882544
607,22,Ticks_Phase_8,139,9999,9999,9999,869682280
607,22,Ticks_Phase_8,140,9999,9999,9999,870483036
607,22,Ticks_Phase_8,141,9999,9999,9999,871282748
607,22,Ticks_Phase_8,142,9999,9999,9999,872082536
607,22,Ticks_Phase_8,143,9999,9999,9999,872882248
607,22,Ticks_Phase_8,144,9999,9999,9999,873683004
607,22,Ticks_Phase_8,145,9999,9999,9999,874482792
607,22,Ticks_Phase_8,146,9999,9999,9999,875282504
607,22,Ticks_Phase_8,147,9999,9999,9999,876082240
607,22,Ticks_Phase_8,148,9999,9999,9999,876882996
607,22,Ticks_Phase_8,149,9999,9999,9999,877682784
607,22,Ticks_Phase_8,150,9999,9999,9999,878322812
607,22,Ticks_Phase_8,151,9999,9999,9999,879122524
607,22,Ticks_Phase_8,152,9999,9999,9999,879922244
607,22,Ticks_Phase_8,153,9999,9999,9999,880723000
607,22,Ticks_Phase_8,154,9999,9999,9999,881522800
607,22,Ticks_Phase_8,155,9999,9999,9999,882322512
607,22,Ticks_Phase_8,156,9999,9999,9999,883122300
607,22,Ticks_Phase_8,157,9999,9999,9999,883923068
607,22,Ticks_Phase_8,158,9999,9999,9999,884722772
607,22,Ticks_Phase_8,159,9999,9999,9999,885522560
607,22,Ticks_Phase_8,160,9999,9999,9999,886322292
607,22,Ticks_Phase_8,161,9999,9999,9999,887123052
607,22,Ticks_Phase_8,162,9999,9999,9999,887922764
607,22,Ticks_Phase_8,163,9999,9999,9999,888722556
607,22,Ticks_Phase_8,164,9999,9999,9999,889522268
607,22,Ticks_Phase_8,165,9999,9999,9999,890323024
607,22,Ticks_Phase_8,166,9999,9999,9999,891122804
607,22,Ticks_Phase_8,167,9999,9999,9999,891922516
607,22,Ticks_Phase_8,168,9999,9999,9999,892722252
607,22,Ticks_Phase_8,169,9999,9999,9999,893523012
608,23,Ticks_Phase_5,0,5,42,127,905443596
608,23,Ticks_Phase_5,1,5,42,127,905944428
608,23,Ticks_Phase_5,2,1,48,44,906406504
608,23,Ticks_Phase_5,3,5,42,127,906454536
608,23,Ticks_Phase_5,4,1,48,22,906483336
608,23,Ticks_Phase_5,5,1,48,31,906948932
608,23,Ticks_Phase_5,6,5,42,127,906954352
608,23,Ticks_Phase_5,7,5,42,127,907453752
608,23,Ticks_Phase_5,8,1,48,30,907487572
608,23,Ticks_Phase_5,9,5,42,127,907953436
608,23,Ticks_Phase_5,10,1,48,28,907959172
608,23,Ticks_Phase_5,11,1,48,29,908439904
608,23,Ticks_Phase_5,12,5,42,127,908454536
608,23,Ticks_Phase_5,13,1,48,33,908928880
608,23,Ticks_Phase_5,14,5,42,127,908954076
608,23,Ticks_Phase_5,15,1,48,31,909408800
608,23,Ticks_Phase_5,16,5,42,127,909453688
608,23,Ticks_Phase_5,17,1,48,35,909909088
608,23,Ticks_Phase_5,18,5,42,127,909954424
608,23,Ticks_Phase_5,19,1,48,32,910420232
608,23,Ticks_Phase_5,20,5,42,127,910464448
608,23,Ticks_Phase_5,21,1,48,32,910944936
608,23,Ticks_Phase_5,22,5,42,127,910964284
608,23,Ticks_Phase_5,23,1,48,35,911401108
608,23,Ticks_Phase_5,24,5,42,127,911463676
608,23,Ticks_Phase_5,25,1,48,31,911920716
608,23,Ticks_Phase_5,26,5,42,127,911963440
608,23,Ticks_Phase_5,27,1,48,32,912442204
608,23,Ticks_Phase_5,28,5,42,127,912464396
608,23,Ticks_Phase_5,29,1,48,35,912931324
608,23,Ticks_Phase_5,30,5,42,127,912964160
608,23,Ticks_Phase_5,31,1,48,35,913453860
608,23,Ticks_Phase_5,32,5,42,127,913463624
608,23,Ticks_Phase_5,33,1,48,32,913964440
608,23,Ticks_Phase_5,34,5,42,127,913965776
608,23,Ticks_Phase_5,35,5,42,127,914464352
608,23,Ticks_Phase_5,36,1,48,31,914479156
608,23,Ticks_Phase_5,37,5,42,127,914964088
608,23,Ticks_Phase_5,38,1,48,27,915002136
608,23,Ticks_Phase_5,39,1,48,28,915441268
608,23,Ticks_Phase_5,40,5,42,127,915463548
608,23,Ticks_Phase_5,41,1,48,31,915903224
608,23,Ticks_Phase_5,42,5,42,127,915964208
608,23,Ticks_Phase_5,43,1,48,30,916411360
608,23,Ticks_Phase_5,44,5,42,127,916464120
608,23,Ticks_Phase_5,45,1,48,27,916921700
608,23,Ticks_Phase_5,46,5,42,127,916963584
608,23,Ticks_Phase_5,47,1,48,35,917408024
608,23,Ticks_Phase_5,48,5,42,127,917464444
608,23,Ticks_Phase_5,49,1,48,45,917934000
608,23,Ticks_Phase_5,50,5,42,127,917974392
608,23,Ticks_Phase_5,51,1,48,49,918430012
608,23,Ticks_Phase_5,52,5,42,127,918474228
608,23,Ticks_Phase_5,53,1,48,42,918914724
608,23,Ticks_Phase_5,54,5,42,127,918973768
608,23,Ticks_Phase_5,55,1,48,42,919440092
608,23,Ticks_Phase_5,56,5,42,127,919473456
608,23,Ticks_Phase_5,57,1,48,51,919967568
608,23,Ticks_Phase_5,58,5,42,127,919974264
608,23,Ticks_Phase_5,59,5,42,127,920463852
608,23,Ticks_Phase_5,60,1,48,54,920476404
608,23,Ticks_Phase_5,61,5,42,127,920963464
608,23,Ticks_Phase_5,62,1,48,49,921001700
608,23,Ticks_Phase_5,63,5,42,127,921464200
608,23,Ticks_Phase_5,64,1,48,38,921473612
608,23,Ticks_Phase_5,65,1,48,40,921937712
608,23,Ticks_Phase_5,66,5,42,127,921964104
608,23,Ticks_Phase_5,67,1,48,36,922435452
608,23,Ticks_Phase_5,68,5,42,127,922463716
608,23,Ticks_Phase_5,69,1,48,43,922896176
608,23,Ticks_Phase_5,70,5,42,127,922964376
608,23,Ticks_Phase_5,71,1,48,33,923434160
608,23,Ticks_Phase_5,72,5,42,127,923463992
608,23,Ticks_Phase_5,73,1,48,40,923921544
608,23,Ticks_Phase_5,74,5,42,127,923963900
608,23,Ticks_Phase_5,75,1,48,42,924420844
608,23,Ticks_Phase_5,76,5,42,127,924463516
608,23,Ticks_Phase_5,77,1,48,47,924927132
608,23,Ticks_Phase_5,78,5,42,127,924964104
608,23,Ticks_Phase_5,79,1,48,42,925432888
608,23,Ticks_Phase_5,80,5,42,127,925463936
608,23,Ticks_Phase_5,81,5,42,127,925963608
608,23,Ticks_Phase_5,82,1,48,41,925964944
608,23,Ticks_Phase_5,83,5,42,127,926464344
608,23,Ticks_Phase_5,84,1,48,42,926491520
608,23,Ticks_Phase_5,85,1,48,45,926963352
608,23,Ticks_Phase_5,86,5,42,127,926964924
608,23,Ticks_Phase_5,87,5,42,127,927463868
608,23,Ticks_Phase_5,88,1,48,43,927480016
608,23,Ticks_Phase_5,89,5,42,127,927963632
608,23,Ticks_Phase_5,90,1,48,36,928000816
608,23,Ticks_Phase_5,91,5,42,127,928464216
608,23,Ticks_Phase_5,92,1,48,41,928523880
608,23,Ticks_Phase_5,93,5,42,127,928963904
608,23,Ticks_Phase_5,94,1,48,44,928992940
608,23,Ticks_Phase_5,95,5,42,127,929473776
608,23,Ticks_Phase_5,96,1,48,44,929476900
608,23,Ticks_Phase_5,97,5,42,127,929973688
608,23,Ticks_Phase_5,98,1,48,38,929980476
608,23,Ticks_Phase_5,99,5,42,127,930474348
608,23,Ticks_Phase_5,100,1,48,35,930475240
608,23,Ticks_Phase_5,101,1,48,41,930964120
608,23,Ticks_Phase_5,102,5,42,127,930974104
608,23,Ticks_Phase_5,103,5,42,127,931473876
608,23,Ticks_Phase_5,104,1,48,39,931476392
608,23,Ticks_Phase_5,105,5,42,127,931973416
608,23,Ticks_Phase_5,106,1,48,33,931982604
608,23,Ticks_Phase_5,107,5,42,127,932474148
608,23,Ticks_Phase_5,108,1,48,41,932508796
608,23,Ticks_Phase_5,109,5,42,127,932973912
608,23,Ticks_Phase_5,110,1,48,28,933004592
608,23,Ticks_Phase_5,111,5,42,127,933473824
608,23,Ticks_Phase_5,112,1,48,32,933477916
608,23,Ticks_Phase_5,113,1,48,42,933973056
608,23,Ticks_Phase_5,114,5,42,127,933974624
608,23,Ticks_Phase_5,115,1,48,40,934455788
608,23,Ticks_Phase_5,116,5,42,127,934474092
608,23,Ticks_Phase_5,117,1,48,44,934936004
608,23,Ticks_Phase_5,118,5,42,127,934974000
608,23,Ticks_Phase_5,119,1,48,39,935459576
608,23,Ticks_Phase_5,120,5,42,127,935473616
608,23,Ticks_Phase_5,121,1,48,38,935965040
608,23,Ticks_Phase_5,122,5,42,127,935974128
608,23,Ticks_Phase_5,123,1,48,44,936444184
608,23,Ticks_Phase_5,124,5,42,127,936474040
608,23,Ticks_Phase_5,125,5,42,127,936973784
608,23,Ticks_Phase_5,126,1,48,43,936984344
608,23,Ticks_Phase_5,127,1,48,42,937486164
608,23,Ticks_Phase_5,128,5,42,127,937493936
608,23,Ticks_Phase_5,129,5,42,127,937993532
608,23,Ticks_Phase_5,130,1,48,43,938007608
608,23,Ticks_Phase_5,131,5,42,127,938494264
608,23,Ticks_Phase_5,132,1,48,46,938509592
608,23,Ticks_Phase_5,133,5,42,127,938994028
608,23,Ticks_Phase_5,134,1,48,41,938996692
608,23,Ticks_Phase_5,135,1,48,45,939489560
608,23,Ticks_Phase_5,136,5,42,127,939493860
608,23,Ticks_Phase_5,137,1,48,45,939968128
608,23,Ticks_Phase_5,138,5,42,127,939993548
608,23,Ticks_Phase_5,139,1,48,52,940451560
608,23,Ticks_Phase_5,140,5,42,127,940494132
608,23,Ticks_Phase_5,141,1,48,48,940963020
608,23,Ticks_Phase_5,142,5,42,127,940993896
608,23,Ticks_Phase_5,143,1,48,46,941455660
608,23,Ticks_Phase_5,144,5,42,127,941493508
608,23,Ticks_Phase_5,145,1,48,47,941960060
608,23,Ticks_Phase_5,146,5,42,127,941994468
608,23,Ticks_Phase_5,147,1,48,49,942468588
608,23,Ticks_Phase_5,148,5,42,127,942494008
608,23,Ticks_Phase_5,149,1,48,49,942955700
608,23,Ticks_Phase_5,150,5,42,127,942993772
608,23,Ticks_Phase_5,151,1,48,53,943464972
608,23,Ticks_Phase_5,152,5,42,127,943493460
608,23,Ticks_Phase_5,153,1,48,49,943974620
608,23,Ticks_Phase_5,154,5,42,127,943994416
608,23,Ticks_Phase_5,155,1,48,49,944463676
608,23,Ticks_Phase_5,156,5,42,127,944493956
608,23,Ticks_Phase_5,157,1,48,47,944969876
608,23,Ticks_Phase_5,158,5,42,127,944993644
608,23,Ticks_Phase_5,159,1,48,57,945475476
608,23,Ticks_Phase_5,160,5,42,127,945494604
608,23,Ticks_Phase_5,161,1,48,49,945959964
608,23,Ticks_Phase_5,162,5,42,127,945973552
608,23,Ticks_Phase_5,163,1,48,55,946450408
608,23,Ticks_Phase_5,164,5,42,127,946474656
608,23,Ticks_Phase_5,165,1,48,49,946934908
608,23,Ticks_Phase_5,166,5,42,127,946974048
608,23,Ticks_Phase_5,167,1,48,46,947420056
608,23,Ticks_Phase_5,168,5,42,127,947473712
608,23,Ticks_Phase_5,169,1,48,48,947927092
608,23,Ticks_Phase_5,170,5,42,127,947973620
608,23,Ticks_Phase_5,171,1,48,47,948407752
608,23,Ticks_Phase_5,172,5,42,127,948474284
608,23,Ticks_Phase_5,173,1,48,56,948896504
608,23,Ticks_Phase_5,174,5,42,127,948973972
608,23,Ticks_Phase_5,175,1,48,39,949415816
608,23,Ticks_Phase_5,176,5,42,127,949473736
608,23,Ticks_Phase_5,177,1,48,49,949934900
608,23,Ticks_Phase_5,178,5,42,127,949974320
608,23,Ticks_Phase_5,179,1,48,54,950433320
608,23,Ticks_Phase_5,180,5,42,127,950474232
608,23,Ticks_Phase_5,181,1,48,57,950952552
608,23,Ticks_Phase_5,182,5,42,127,950973772
608,23,Ticks_Phase_5,183,1,48,57,951453660
608,23,Ticks_Phase_5,184,5,42,127,951473384
608,23,Ticks_Phase_5,185,1,48,54,951952900
608,23,Ticks_Phase_5,186,5,42,127,951974340
608,23,Ticks_Phase_5,187,1,48,63,952462476
608,23,Ticks_Phase_5,188,5,42,127,952474104
608,23,Ticks_Phase_5,189,5,42,127,952973724
608,23,Ticks_Phase_5,190,1,48,58,952975284
608,23,Ticks_Phase_5,191,5,42,127,953474384
608,23,Ticks_Phase_5,192,1,48,58,953488284
608,23,Ticks_Phase_5,193,1,48,53,953923116
608,23,Ticks_Phase_5,194,5,42,127,953934300
608,23,Ticks_Phase_5,195,5,42,127,954434072
608,23,Ticks_Phase_5,196,1,48,59,954435332
608,23,Ticks_Phase_5,197,5,42,127,954933684
608,23,Ticks_Phase_5,198,1,48,47,954961964
608,23,Ticks_Phase_5,199,5,42,127,955434420
608,23,Ticks_Phase_5,200,1,48,50,955437468
608,23,Ticks_Phase_5,201,1,48,54,955858112
608,23,Ticks_Phase_5,202,5,42,127,955934248
608,23,Ticks_Phase_5,203,1,48,61,956346644
608,23,Ticks_Phase_5,204,5,42,127,956433688
608,23,Ticks_Phase_5,205,1,48,53,956831044
608,23,Ticks_Phase_5,206,5,42,127,956933512
608,23,Ticks_Phase_5,207,1,48,57,957379556
608,23,Ticks_Phase_5,208,5,42,127,957434260
608,23,Ticks_Phase_5,209,1,48,53,957889956
608,23,Ticks_Phase_5,210,5,42,127,957934096
608,23,Ticks_Phase_5,211,1,48,52,958411208
608,23,Ticks_Phase_5,212,5,42,127,958433636
608,23,Ticks_Phase_5,213,1,48,53,958906108
608,23,Ticks_Phase_5,214,5,42,127,958934296
608,23,Ticks_Phase_5,215,1,48,55,959420020
608,23,Ticks_Phase_5,216,5,42,127,959434208
608,23,Ticks_Phase_5,217,5,42,127,959933976
608,23,Ticks_Phase_5,218,1,48,44,959950124
608,23,Ticks_Phase_5,219,1,48,52,960419768
608,23,Ticks_Phase_5,220,5,42,127,960433584
608,23,Ticks_Phase_5,221,1,48,44,960878420
608,23,Ticks_Phase_5,222,5,42,127,960934172
608,23,Ticks_Phase_5,223,1,48,54,961410756
608,23,Ticks_Phase_5,224,5,42,127,961434156
608,23,Ticks_Phase_5,225,1,48,52,961907380
608,23,Ticks_Phase_5,226,5,42,127,961933696
608,23,Ticks_Phase_5,227,1,48,47,962420096
608,23,Ticks_Phase_5,228,5,42,127,962483636
608,23,Ticks_Phase_5,229,1,48,46,962950340
608,23,Ticks_Phase_5,230,5,42,127,962984296
608,23,Ticks_Phase_5,231,1,48,54,963473476
608,23,Ticks_Phase_5,232,5,42,127,963483984
608,23,Ticks_Phase_5,233,1,48,61,963959976
608,23,Ticks_Phase_5,234,5,42,127,963983896
608,23,Ticks_Phase_5,235,1,48,51,964468804
608,23,Ticks_Phase_5,236,5,42,127,964483436
608,23,Ticks_Phase_5,237,1,48,51,964973436
608,23,Ticks_Phase_5,238,5,42,127,964984096
608,23,Ticks_Phase_5,239,1,48,52,965459340
608,23,Ticks_Phase_5,240,5,42,127,965483860
608,23,Ticks_Phase_5,241,1,48,60,965958204
608,23,Ticks_Phase_5,242,5,42,127,965983772
608,23,Ticks_Phase_5,243,1,48,53,966435956
608,23,Ticks_Phase_5,244,5,42,127,966484360
608,23,Ticks_Phase_5,245,1,48,53,966931192
608,23,Ticks_Phase_5,246,5,42,127,966983900
608,23,Ticks_Phase_5,247,1,48,53,967432464
608,23,Ticks_Phase_5,248,5,42,127,967483736
608,23,Ticks_Phase_5,249,1,48,54,967907952
608,23,Ticks_Phase_5,250,5,42,127,967983572
608,23,Ticks_Phase_5,251,1,48,48,968390488
608,23,Ticks_Phase_5,252,5,42,127,968484156
608,23,Ticks_Phase_5,253,1,48,50,968916392
608,23,Ticks_Phase_5,254,5,42,127,968983844
608,23,Ticks_Phase_5,255,1,48,46,969446484
608,23,Ticks_Phase_5,256,5,42,127,969483880
608,23,Ticks_Phase_5,257,1,48,50,969973652
608,23,Ticks_Phase_5,258,5,42,127,969984244
608,23,Ticks_Phase_5,259,5,42,127,970484088
608,23,Ticks_Phase_5,260,1,48,46,970489448
608,23,Ticks_Phase_5,261,1,48,59,970969052
608,23,Ticks_Phase_5,262,5,42,127,971084276
608,23,Ticks_Phase_5,263,1,48,50,971525216
608,23,Ticks_Phase_5,264,5,42,127,971583904
608,23,Ticks_Phase_5,265,5,42,127,972083820
608,23,Ticks_Phase_5,266,1,48,52,972095476
608,23,Ticks_Phase_5,267,5,42,127,972584184
608,23,Ticks_Phase_5,268,1,48,48,972613068
608,23,Ticks_Phase_5,269,5,42,127,973083948
608,23,Ticks_Phase_5,270,1,48,48,973104064
608,23,Ticks_Phase_5,271,5,42,127,973583908
608,23,Ticks_Phase_5,272,1,48,49,973585244
608,23,Ticks_Phase_5,273,1,48,50,974082468
608,23,Ticks_Phase_5,274,5,42,127,974084036
608,23,Ticks_Phase_5,275,5,42,127,974584108
608,23,Ticks_Phase_5,276,1,48,52,974585896
608,23,Ticks_Phase_5,277,1,48,51,975041140
608,23,Ticks_Phase_5,278,5,42,127,975084012
608,23,Ticks_Phase_5,279,5,42,127,975583780
608,23,Ticks_Phase_5,280,1,48,62,975585120
608,23,Ticks_Phase_5,281,1,48,57,976081552
608,23,Ticks_Phase_5,282,5,42,127,976084584
608,23,Ticks_Phase_5,283,5,42,127,976583980
608,23,Ticks_Phase_5,284,1,48,58,976585020
608,23,Ticks_Phase_5,285,1,48,57,977065804
608,23,Ticks_Phase_5,286,5,42,127,977083736
608,23,Ticks_Phase_5,287,1,48,47,977552472
608,23,Ticks_Phase_5,288,5,42,127,977583720
608,23,Ticks_Phase_5,289,1,48,54,978073272
608,23,Ticks_Phase_5,290,5,42,127,978084232
608,23,Ticks_Phase_5,291,1,48,57,978552148
608,23,Ticks_Phase_5,292,5,42,127,978583924
608,23,Ticks_Phase_5,293,5,42,127,979083544
608,23,Ticks_Phase_5,294,1,48,54,979089876
608,23,Ticks_Phase_5,295,1,48,57,979577352
608,23,Ticks_Phase_5,296,5,42,127,979584496
608,23,Ticks_Phase_5,297,5,42,127,980084116
608,23,Ticks_Phase_5,298,1,48,50,980087460
608,23,Ticks_Phase_5,299,5,42,127,980483728
608,23,Ticks_Phase_5,300,1,48,54,980619276
608,23,Ticks_Phase_5,301,5,42,127,980984316
608,23,Ticks_Phase_5,302,1,48,46,981116044
608,23,Ticks_Phase_5,303,5,42,127,981483928
608,23,Ticks_Phase_5,304,1,48,54,981546904
608,23,Ticks_Phase_5,305,5,42,127,981983616
608,23,Ticks_Phase_5,306,1,48,48,982018116
608,23,Ticks_Phase_5,307,5,42,127,982484352
608,23,Ticks_Phase_5,308,1,48,51,982563732
608,23,Ticks_Phase_5,309,5,42,127,982984260
608,23,Ticks_Phase_5,310,1,48,49,983042876
608,23,Ticks_Phase_5,311,5,42,127,983483652
608,23,Ticks_Phase_5,312,1,48,52,983489916
608,23,Ticks_Phase_5,313,5,42,127,983983564
608,23,Ticks_Phase_5,314,1,48,58,983998812
608,23,Ticks_Phase_5,315,1,48,60,984484000
608,23,Ticks_Phase_5,316,5,42,127,984485340
608,23,Ticks_Phase_5,317,1,48,23,984552256
608,23,Ticks_Phase_5,318,1,48,57,984977336
608,23,Ticks_Phase_5,319,5,42,127,984983960
608,23,Ticks_Phase_5,320,1,48,50,985478672
608,23,Ticks_Phase_5,321,5,42,127,985483572
608,23,Ticks_Phase_5,322,1,48,29,985548456
608,23,Ticks_Phase_5,323,1,48,53,985965312
608,23,Ticks_Phase_5,324,5,42,127,985984360
608,23,Ticks_Phase_5,325,5,42,127,986484056
608,23,Ticks_Phase_5,326,1,48,50,986488448
608,23,Ticks_Phase_5,327,5,42,127,986983820
608,23,Ticks_Phase_5,328,1,48,48,986986484
608,23,Ticks_Phase_5,329,1,48,51,987482680
608,23,Ticks_Phase_5,330,5,42,127,987484324
608,23,Ticks_Phase_5,331,5,42,127,987984316
608,23,Ticks_Phase_5,332,1,48,45,987987440
608,23,Ticks_Phase_5,333,5,42,127,988483860
608,23,Ticks_Phase_5,334,1,48,45,988488472
608,23,Ticks_Phase_5,335,5,42,127,988983620
608,23,Ticks_Phase_5,336,1,48,53,989000740
608,23,Ticks_Phase_5,337,5,42,127,989484280
608,23,Ticks_Phase_5,338,1,48,47,989520948
608,23,Ticks_Phase_5,339,1,48,47,989982076
608,23,Ticks_Phase_5,340,5,42,127,989984188
608,23,Ticks_Phase_5,0,9999,9999,9999,905441384
608,23,Ticks_Phase_5,1,9999,9999,9999,905942140
608,23,Ticks_Phase_5,2,9999,9999,9999,906452028
608,23,Ticks_Phase_5,3,9999,9999,9999,906951768
608,23,Ticks_Phase_5,4,9999,9999,9999,907451464
608,23,Ticks_Phase_5,5,9999,9999,9999,907951224
608,23,Ticks_Phase_5,6,9999,9999,9999,908451952
608,23,Ticks_Phase_5,7,9999,9999,9999,908951640
608,23,Ticks_Phase_5,8,9999,9999,9999,909451328
608,23,Ticks_Phase_5,9,9999,9999,9999,909952064
608,23,Ticks_Phase_5,10,9999,9999,9999,910462012
608,23,Ticks_Phase_5,11,9999,9999,9999,910961776
608,23,Ticks_Phase_5,12,9999,9999,9999,911461464
608,23,Ticks_Phase_5,13,9999,9999,9999,911961152
608,23,Ticks_Phase_5,14,9999,9999,9999,912461888
608,23,Ticks_Phase_5,15,9999,9999,9999,912961648
608,23,Ticks_Phase_5,16,9999,9999,9999,913461336
608,23,Ticks_Phase_5,17,9999,9999,9999,913962080
608,23,Ticks_Phase_5,18,9999,9999,9999,914461764
608,23,Ticks_Phase_5,19,9999,9999,9999,914961504
608,23,Ticks_Phase_5,20,9999,9999,9999,915461188
608,23,Ticks_Phase_5,21,9999,9999,9999,915961920
608,23,Ticks_Phase_5,22,9999,9999,9999,916461684
608,23,Ticks_Phase_5,23,9999,9999,9999,916961372
608,23,Ticks_Phase_5,24,9999,9999,9999,917462084
608,23,Ticks_Phase_5,25,9999,9999,9999,917972032
608,23,Ticks_Phase_5,26,9999,9999,9999,918471792
608,23,Ticks_Phase_5,27,9999,9999,9999,918971480
608,23,Ticks_Phase_5,28,9999,9999,9999,919471168
608,23,Ticks_Phase_5,29,9999,9999,9999,919971900
608,23,Ticks_Phase_5,30,9999,9999,9999,920461416
608,23,Ticks_Phase_5,31,9999,9999,9999,920961104
608,23,Ticks_Phase_5,32,9999,9999,9999,921461840
608,23,Ticks_Phase_5,33,9999,9999,9999,921961596
608,23,Ticks_Phase_5,34,9999,9999,9999,922461284
608,23,Ticks_Phase_5,35,9999,9999,9999,922962016
608,23,Ticks_Phase_5,36,9999,9999,9999,923461704
608,23,Ticks_Phase_5,37,9999,9999,9999,923961468
608,23,Ticks_Phase_5,38,9999,9999,9999,924461156
608,23,Ticks_Phase_5,39,9999,9999,9999,924961888
608,23,Ticks_Phase_5,40,9999,9999,9999,925461628
608,23,Ticks_Phase_5,41,9999,9999,9999,925961320
608,23,Ticks_Phase_5,42,9999,9999,9999,926462056
608,23,Ticks_Phase_5,43,9999,9999,9999,926961744
608,23,Ticks_Phase_5,44,9999,9999,9999,927461436
608,23,Ticks_Phase_5,45,9999,9999,9999,927961196
608,23,Ticks_Phase_5,46,9999,9999,9999,928461928
608,23,Ticks_Phase_5,47,9999,9999,9999,928961616
608,23,Ticks_Phase_5,48,9999,9999,9999,929471564
608,23,Ticks_Phase_5,49,9999,9999,9999,929971252
608,23,Ticks_Phase_5,50,9999,9999,9999,930472060
608,23,Ticks_Phase_5,51,9999,9999,9999,930971744
608,23,Ticks_Phase_5,52,9999,9999,9999,931471440
608,23,Ticks_Phase_5,53,9999,9999,9999,931971128
608,23,Ticks_Phase_5,54,9999,9999,9999,932471864
608,23,Ticks_Phase_5,55,9999,9999,9999,932971624
608,23,Ticks_Phase_5,56,9999,9999,9999,933471312
608,23,Ticks_Phase_5,57,9999,9999,9999,933972048
608,23,Ticks_Phase_5,58,9999,9999,9999,934471804
608,23,Ticks_Phase_5,59,9999,9999,9999,934971492
608,23,Ticks_Phase_5,60,9999,9999,9999,935471180
608,23,Ticks_Phase_5,61,9999,9999,9999,935971916
608,23,Ticks_Phase_5,62,9999,9999,9999,936471680
608,23,Ticks_Phase_5,63,9999,9999,9999,936971348
608,23,Ticks_Phase_5,64,9999,9999,9999,937491548
608,23,Ticks_Phase_5,65,9999,9999,9999,937991244
608,23,Ticks_Phase_5,66,9999,9999,9999,938491980
608,23,Ticks_Phase_5,67,9999,9999,9999,938991740
608,23,Ticks_Phase_5,68,9999,9999,9999,939491424
608,23,Ticks_Phase_5,69,9999,9999,9999,939991112
608,23,Ticks_Phase_5,70,9999,9999,9999,940491848
608,23,Ticks_Phase_5,71,9999,9999,9999,940991608
608,23,Ticks_Phase_5,72,9999,9999,9999,941491296
608,23,Ticks_Phase_5,73,9999,9999,9999,941992032
608,23,Ticks_Phase_5,74,9999,9999,9999,942491720
608,23,Ticks_Phase_5,75,9999,9999,9999,942991484
608,23,Ticks_Phase_5,76,9999,9999,9999,943491172
608,23,Ticks_Phase_5,77,9999,9999,9999,943991908
608,23,Ticks_Phase_5,78,9999,9999,9999,944491596
608,23,Ticks_Phase_5,79,9999,9999,9999,944991360
608,23,Ticks_Phase_5,80,9999,9999,9999,945492092
608,23,Ticks_Phase_5,81,9999,9999,9999,945971264
608,23,Ticks_Phase_5,82,9999,9999,9999,946472000
608,23,Ticks_Phase_5,83,9999,9999,9999,946971760
608,23,Ticks_Phase_5,84,9999,9999,9999,947471424
608,23,Ticks_Phase_5,85,9999,9999,9999,947971188
608,23,Ticks_Phase_5,86,9999,9999,9999,948471920
608,23,Ticks_Phase_5,87,9999,9999,9999,948971608
608,23,Ticks_Phase_5,88,9999,9999,9999,949471300
608,23,Ticks_Phase_5,89,9999,9999,9999,949972036
608,23,Ticks_Phase_5,90,9999,9999,9999,950471796
608,23,Ticks_Phase_5,91,9999,9999,9999,950971484
608,23,Ticks_Phase_5,92,9999,9999,9999,951471172
608,23,Ticks_Phase_5,93,9999,9999,9999,951971908
608,23,Ticks_Phase_5,94,9999,9999,9999,952471668
608,23,Ticks_Phase_5,95,9999,9999,9999,952971364
608,23,Ticks_Phase_5,96,9999,9999,9999,953472096
608,23,Ticks_Phase_5,97,9999,9999,9999,953931864
608,23,Ticks_Phase_5,98,9999,9999,9999,954431560
608,23,Ticks_Phase_5,99,9999,9999,9999,954931324
608,23,Ticks_Phase_5,100,9999,9999,9999,955432060
608,23,Ticks_Phase_5,101,9999,9999,9999,955931740
608,23,Ticks_Phase_5,102,9999,9999,9999,956431476
608,23,Ticks_Phase_5,103,9999,9999,9999,956931152
608,23,Ticks_Phase_5,104,9999,9999,9999,957431900
608,23,Ticks_Phase_5,105,9999,9999,9999,957931588
608,23,Ticks_Phase_5,106,9999,9999,9999,958431348
608,23,Ticks_Phase_5,107,9999,9999,9999,958932084
608,23,Ticks_Phase_5,108,9999,9999,9999,959431772
608,23,Ticks_Phase_5,109,9999,9999,9999,959931468
608,23,Ticks_Phase_5,110,9999,9999,9999,960431224
608,23,Ticks_Phase_5,111,9999,9999,9999,960931960
608,23,Ticks_Phase_5,112,9999,9999,9999,961431648
608,23,Ticks_Phase_5,113,9999,9999,9999,961931336
608,23,Ticks_Phase_5,114,9999,9999,9999,962481272
608,23,Ticks_Phase_5,115,9999,9999,9999,962982008
608,23,Ticks_Phase_5,116,9999,9999,9999,963481696
608,23,Ticks_Phase_5,117,9999,9999,9999,963981384
608,23,Ticks_Phase_5,118,9999,9999,9999,964481148
608,23,Ticks_Phase_5,119,9999,9999,9999,964981884
608,23,Ticks_Phase_5,120,9999,9999,9999,965481572
608,23,Ticks_Phase_5,121,9999,9999,9999,965981264
608,23,Ticks_Phase_5,122,9999,9999,9999,966482000
608,23,Ticks_Phase_5,123,9999,9999,9999,966981688
608,23,Ticks_Phase_5,124,9999,9999,9999,967481448
608,23,Ticks_Phase_5,125,9999,9999,9999,967981136
608,23,Ticks_Phase_5,126,9999,9999,9999,968481872
608,23,Ticks_Phase_5,127,9999,9999,9999,968981560
608,23,Ticks_Phase_5,128,9999,9999,9999,969481296
608,23,Ticks_Phase_5,129,9999,9999,9999,969982028
608,23,Ticks_Phase_5,130,9999,9999,9999,970481724
608,23,Ticks_Phase_5,131,9999,9999,9999,971081836
608,23,Ticks_Phase_5,132,9999,9999,9999,971581540
608,23,Ticks_Phase_5,133,9999,9999,9999,972081236
608,23,Ticks_Phase_5,134,9999,9999,9999,972581972
608,23,Ticks_Phase_5,135,9999,9999,9999,973081660
608,23,Ticks_Phase_5,136,9999,9999,9999,973581396
608,23,Ticks_Phase_5,137,9999,9999,9999,974081084
608,23,Ticks_Phase_5,138,9999,9999,9999,974581820
608,23,Ticks_Phase_5,139,9999,9999,9999,975081576
608,23,Ticks_Phase_5,140,9999,9999,9999,975581272
608,23,Ticks_Phase_5,141,9999,9999,9999,976082000
608,23,Ticks_Phase_5,142,9999,9999,9999,976581692
608,23,Ticks_Phase_5,143,9999,9999,9999,977081448
608,23,Ticks_Phase_5,144,9999,9999,9999,977581136
608,23,Ticks_Phase_5,145,9999,9999,9999,978081872
608,23,Ticks_Phase_5,146,9999,9999,9999,978581560
608,23,Ticks_Phase_5,147,9999,9999,9999,979081328
608,23,Ticks_Phase_5,148,9999,9999,9999,979582060
608,23,Ticks_Phase_5,149,9999,9999,9999,980081752
608,23,Ticks_Phase_5,150,9999,9999,9999,980481144
608,23,Ticks_Phase_5,151,9999,9999,9999,980981880
608,23,Ticks_Phase_5,152,9999,9999,9999,981481568
608,23,Ticks_Phase_5,153,9999,9999,9999,981981256
608,23,Ticks_Phase_5,154,9999,9999,9999,982481988
608,23,Ticks_Phase_5,155,9999,9999,9999,982981752
608,23,Ticks_Phase_5,156,9999,9999,9999,983481440
608,23,Ticks_Phase_5,157,9999,9999,9999,983981128
608,23,Ticks_Phase_5,158,9999,9999,9999,984481864
608,23,Ticks_Phase_5,159,9999,9999,9999,984981600
608,23,Ticks_Phase_5,160,9999,9999,9999,985481288
608,23,Ticks_Phase_5,161,9999,9999,9999,985982076
608,23,Ticks_Phase_5,162,9999,9999,9999,986481772
608,23,Ticks_Phase_5,163,9999,9999,9999,986981460
608,23,Ticks_Phase_5,164,9999,9999,9999,987481148
608,23,Ticks_Phase_5,165,9999,9999,9999,987981884
608,23,Ticks_Phase_5,166,9999,9999,9999,988481644
608,23,Ticks_Phase_5,167,9999,9999,9999,988981336
608,23,Ticks_Phase_5,168,9999,9999,9999,989482068
608,23,Ticks_Phase_5,169,9999,9999,9999,989981792
609,9,Ticks_ISO_T2_8,0,5,42,127,1001844968
609,9,Ticks_ISO_T2_8,1,1,48,39,1002309560
609,9,Ticks_ISO_T2_8,2,5,42,127,1002644924
609,9,Ticks_ISO_T2_8,3,5,42,127,1003444680
609,9,Ticks_ISO_T2_8,4,5,42,127,1004245332
609,9,Ticks_ISO_T2_8,5,1,48,41,1004264760
609,9,Ticks_ISO_T2_8,6,1,48,39,1005034108
609,9,Ticks_ISO_T2_8,7,5,42,127,1005045060
609,9,Ticks_ISO_T2_8,8,1,48,42,1005843312
609,9,Ticks_ISO_T2_8,9,5,42,127,1005844820
609,9,Ticks_ISO_T2_8,10,1,48,47,1006633004
609,9,Ticks_ISO_T2_8,11,5,42,127,1006644552
609,9,Ticks_ISO_T2_8,12,1,48,45,1007444208
609,9,Ticks_ISO_T2_8,13,5,42,127,1007445852
609,9,Ticks_ISO_T2_8,14,1,48,46,1008230972
609,9,Ticks_ISO_T2_8,15,5,42,127,1008245216
609,9,Ticks_ISO_T2_8,16,1,48,51,1008981640
609,9,Ticks_ISO_T2_8,17,5,42,127,1009044952
609,9,Ticks_ISO_T2_8,18,1,48,51,1009799772
609,9,Ticks_ISO_T2_8,19,5,42,127,1009844684
609,9,Ticks_ISO_T2_8,20,1,48,43,1010623816
609,9,Ticks_ISO_T2_8,21,5,42,127,1010645316
609,9,Ticks_ISO_T2_8,22,5,42,127,1011445056
609,9,Ticks_ISO_T2_8,23,1,48,50,1011449148
609,9,Ticks_ISO_T2_8,24,5,42,127,1012244740
609,9,Ticks_ISO_T2_8,25,1,48,43,1012290720
609,9,Ticks_ISO_T2_8,26,1,48,38,1012995192
609,9,Ticks_ISO_T2_8,27,5,42,127,1013044764
609,9,Ticks_ISO_T2_8,28,1,48,48,1013783732
609,9,Ticks_ISO_T2_8,29,5,42,127,1013845396
609,9,Ticks_ISO_T2_8,30,1,48,39,1014577708
609,9,Ticks_ISO_T2_8,31,5,42,127,1014645204
609,9,Ticks_ISO_T2_8,32,1,48,35,1015378412
609,9,Ticks_ISO_T2_8,33,5,42,127,1015444792
609,9,Ticks_ISO_T2_8,34,1,48,34,1016208888
609,9,Ticks_ISO_T2_8,35,5,42,127,1016244672
609,9,Ticks_ISO_T2_8,36,5,42,127,1017045536
609,9,Ticks_ISO_T2_8,37,1,48,40,1017075884
609,9,Ticks_ISO_T2_8,38,5,42,127,1017845048
609,9,Ticks_ISO_T2_8,39,1,48,42,1017852280
609,9,Ticks_ISO_T2_8,40,5,42,127,1018644952
609,9,Ticks_ISO_T2_8,41,1,48,38,1018651740
609,9,Ticks_ISO_T2_8,42,5,42,127,1019444684
609,9,Ticks_ISO_T2_8,43,1,48,38,1019451472
609,9,Ticks_ISO_T2_8,44,1,48,41,1020208180
609,9,Ticks_ISO_T2_8,45,5,42,127,1020245680
609,9,Ticks_ISO_T2_8,46,1,48,45,1020994220
609,9,Ticks_ISO_T2_8,47,5,42,127,1021045192
609,9,Ticks_ISO_T2_8,48,1,48,45,1021803156
609,9,Ticks_ISO_T2_8,49,5,42,127,1021844704
609,9,Ticks_ISO_T2_8,50,1,48,44,1022602664
609,9,Ticks_ISO_T2_8,51,5,42,127,1022644584
609,9,Ticks_ISO_T2_8,52,1,48,48,1023398136
609,9,Ticks_ISO_T2_8,53,5,42,127,1023445440
609,9,Ticks_ISO_T2_8,54,1,48,46,1024216420
609,9,Ticks_ISO_T2_8,55,5,42,127,1024244948
609,9,Ticks_ISO_T2_8,56,5,42,127,1025044792
609,9,Ticks_ISO_T2_8,57,1,48,44,1025052320
609,9,Ticks_ISO_T2_8,58,1,48,47,1025841420
609,9,Ticks_ISO_T2_8,59,5,42,127,1025844516
609,9,Ticks_ISO_T2_8,60,5,42,127,1026645304
609,9,Ticks_ISO_T2_8,61,1,48,32,1026659268
609,9,Ticks_ISO_T2_8,62,1,48,42,1027441108
609,9,Ticks_ISO_T2_8,63,5,42,127,1027445032
609,9,Ticks_ISO_T2_8,64,5,42,127,1028244696
609,9,Ticks_ISO_T2_8,65,1,48,40,1028253572
609,9,Ticks_ISO_T2_8,66,5,42,127,1029044580
609,9,Ticks_ISO_T2_8,67,1,48,37,1029051516
609,9,Ticks_ISO_T2_8,68,5,42,127,1029845432
609,9,Ticks_ISO_T2_8,69,1,48,46,1029857976
609,9,Ticks_ISO_T2_8,70,1,48,50,1030631136
609,9,Ticks_ISO_T2_8,71,5,42,127,1030645160
609,9,Ticks_ISO_T2_8,72,5,42,127,1031444700
609,9,Ticks_ISO_T2_8,73,1,48,51,1031452308
609,9,Ticks_ISO_T2_8,74,5,42,127,1032244508
609,9,Ticks_ISO_T2_8,75,1,48,55,1032256228
609,9,Ticks_ISO_T2_8,76,1,48,46,1033029540
609,9,Ticks_ISO_T2_8,77,5,42,127,1033045356
609,9,Ticks_ISO_T2_8,78,1,48,54,1033817008
609,9,Ticks_ISO_T2_8,79,5,42,127,1033845168
609,9,Ticks_ISO_T2_8,80,1,48,46,1034631100
609,9,Ticks_ISO_T2_8,81,5,42,127,1034644824
609,9,Ticks_ISO_T2_8,82,1,48,54,1035408552
609,9,Ticks_ISO_T2_8,83,5,42,127,1035444560
609,9,Ticks_ISO_T2_8,84,1,48,48,1036240220
609,9,Ticks_ISO_T2_8,85,5,42,127,1036245412
609,9,Ticks_ISO_T2_8,86,1,48,61,1037017888
609,9,Ticks_ISO_T2_8,87,5,42,127,1037045072
609,9,Ticks_ISO_T2_8,88,1,48,51,1037836244
609,9,Ticks_ISO_T2_8,89,5,42,127,1037844980
609,9,Ticks_ISO_T2_8,90,1,48,54,1038641688
609,9,Ticks_ISO_T2_8,91,5,42,127,1038644564
609,9,Ticks_ISO_T2_8,92,1,48,57,1039435140
609,9,Ticks_ISO_T2_8,93,5,42,127,1039445268
609,9,Ticks_ISO_T2_8,94,1,48,63,1040222532
609,9,Ticks_ISO_T2_8,95,5,42,127,1040245224
609,9,Ticks_ISO_T2_8,96,5,42,127,1041044816
609,9,Ticks_ISO_T2_8,97,1,48,52,1041067532
609,9,Ticks_ISO_T2_8,98,5,42,127,1041844552
609,9,Ticks_ISO_T2_8,99,1,48,46,1041865924
609,9,Ticks_ISO_T2_8,100,1,48,43,1042635416
609,9,Ticks_ISO_T2_8,101,5,42,127,1042645472
609,9,Ticks_ISO_T2_8,102,1,48,48,1043439412
609,9,Ticks_ISO_T2_8,103,5,42,127,1043445132
609,9,Ticks_ISO_T2_8,104,1,48,48,1044239472
609,9,Ticks_ISO_T2_8,105,5,42,127,1044244816
609,9,Ticks_ISO_T2_8,106,5,42,127,1045044704
609,9,Ticks_ISO_T2_8,107,1,48,55,1045049920
609,9,Ticks_ISO_T2_8,108,5,42,127,1045845484
609,9,Ticks_ISO_T2_8,109,1,48,49,1045854368
609,9,Ticks_ISO_T2_8,110,5,42,127,1046645068
609,9,Ticks_ISO_T2_8,111,1,48,55,1046650960
609,9,Ticks_ISO_T2_8,112,1,48,49,1047430332
609,9,Ticks_ISO_T2_8,113,5,42,127,1047444724
609,9,Ticks_ISO_T2_8,114,1,48,60,1048238060
609,9,Ticks_ISO_T2_8,115,5,42,127,1048244680
609,9,Ticks_ISO_T2_8,116,1,48,58,1049010720
609,9,Ticks_ISO_T2_8,117,5,42,127,1049045236
609,9,Ticks_ISO_T2_8,118,1,48,57,1049837908
609,9,Ticks_ISO_T2_8,119,5,42,127,1049845044
609,9,Ticks_ISO_T2_8,120,1,48,55,1050587824
609,9,Ticks_ISO_T2_8,121,5,42,127,1050644804
609,9,Ticks_ISO_T2_8,122,1,48,60,1051388828
609,9,Ticks_ISO_T2_8,123,5,42,127,1051444684
609,9,Ticks_ISO_T2_8,124,1,48,50,1052202276
609,9,Ticks_ISO_T2_8,125,5,42,127,1052245316
609,9,Ticks_ISO_T2_8,126,1,48,53,1053014724
609,9,Ticks_ISO_T2_8,127,5,42,127,1053045052
609,9,Ticks_ISO_T2_8,128,1,48,50,1053840568
609,9,Ticks_ISO_T2_8,129,5,42,127,1053844860
609,9,Ticks_ISO_T2_8,130,5,42,127,1054644676
609,9,Ticks_ISO_T2_8,131,1,48,46,1054664696
609,9,Ticks_ISO_T2_8,132,1,48,55,1055387752
609,9,Ticks_ISO_T2_8,133,5,42,127,1055445300
609,9,Ticks_ISO_T2_8,134,1,48,55,1056197352
609,9,Ticks_ISO_T2_8,135,5,42,127,1056245032
609,9,Ticks_ISO_T2_8,136,1,48,58,1056978164
609,9,Ticks_ISO_T2_8,137,5,42,127,1057044940
609,9,Ticks_ISO_T2_8,138,1,48,56,1057788444
609,9,Ticks_ISO_T2_8,139,5,42,127,1057844748
609,9,Ticks_ISO_T2_8,140,5,42,127,1058645460
609,9,Ticks_ISO_T2_8,141,1,48,49,1058649028
609,9,Ticks_ISO_T2_8,142,5,42,127,1059445048
609,9,Ticks_ISO_T2_8,143,1,48,53,1059480476
609,9,Ticks_ISO_T2_8,144,1,48,59,1060228360
609,9,Ticks_ISO_T2_8,145,5,42,127,1060244772
609,9,Ticks_ISO_T2_8,146,1,48,57,1061017772
609,9,Ticks_ISO_T2_8,147,5,42,127,1061044580
609,9,Ticks_ISO_T2_8,148,1,48,67,1061791620
609,9,Ticks_ISO_T2_8,149,5,42,127,1061845360
609,9,Ticks_ISO_T2_8,150,1,48,69,1062598460
609,9,Ticks_ISO_T2_8,151,5,42,127,1062645392
609,9,Ticks_ISO_T2_8,152,1,48,74,1063402160
609,9,Ticks_ISO_T2_8,153,5,42,127,1063444776
609,9,Ticks_ISO_T2_8,154,1,48,69,1064191492
609,9,Ticks_ISO_T2_8,155,5,42,127,1064244656
609,9,Ticks_ISO_T2_8,156,1,48,64,1064985564
609,9,Ticks_ISO_T2_8,157,5,42,127,1065045288
609,9,Ticks_ISO_T2_8,158,1,48,66,1065810060
609,9,Ticks_ISO_T2_8,159,5,42,127,1065845172
609,9,Ticks_ISO_T2_8,160,1,48,59,1066617648
609,9,Ticks_ISO_T2_8,161,5,42,127,1066644760
609,9,Ticks_ISO_T2_8,162,1,48,55,1067395540
609,9,Ticks_ISO_T2_8,163,5,42,127,1067444492
609,9,Ticks_ISO_T2_8,164,1,48,59,1068197740
609,9,Ticks_ISO_T2_8,165,5,42,127,1068245420
609,9,Ticks_ISO_T2_8,166,1,48,63,1068984388
609,9,Ticks_ISO_T2_8,167,5,42,127,1069045304
609,9,Ticks_ISO_T2_8,168,1,48,65,1069738644
609,9,Ticks_ISO_T2_8,169,5,42,127,1069844824
609,9,Ticks_ISO_T2_8,170,1,48,69,1070568968
609,9,Ticks_ISO_T2_8,171,5,42,127,1070644496
609,9,Ticks_ISO_T2_8,172,1,48,58,1071437688
609,9,Ticks_ISO_T2_8,173,5,42,127,1071445280
609,9,Ticks_ISO_T2_8,174,1,48,63,1072227552
609,9,Ticks_ISO_T2_8,175,5,42,127,1072245084
609,9,Ticks_ISO_T2_8,176,1,48,65,1073032300
609,9,Ticks_ISO_T2_8,177,5,42,127,1073045044
609,9,Ticks_ISO_T2_8,178,1,48,52,1073833304
609,9,Ticks_ISO_T2_8,179,5,42,127,1073844480
609,9,Ticks_ISO_T2_8,180,5,42,127,1074645416
609,9,Ticks_ISO_T2_8,181,1,48,52,1074658932
609,9,Ticks_ISO_T2_8,182,5,42,127,1075445152
609,9,Ticks_ISO_T2_8,183,1,48,52,1075448872
609,9,Ticks_ISO_T2_8,184,5,42,127,1076244980
609,9,Ticks_ISO_T2_8,185,1,48,55,1076245948
609,9,Ticks_ISO_T2_8,186,5,42,127,1077044492
609,9,Ticks_ISO_T2_8,187,1,48,49,1077064440
609,9,Ticks_ISO_T2_8,188,1,48,77,1077826688
609,9,Ticks_ISO_T2_8,189,5,42,127,1077845268
609,9,Ticks_ISO_T2_8,190,1,48,54,1078627392
609,9,Ticks_ISO_T2_8,191,5,42,127,1078645000
609,9,Ticks_ISO_T2_8,192,1,48,65,1079426380
609,9,Ticks_ISO_T2_8,193,5,42,127,1079445032
609,9,Ticks_ISO_T2_8,194,1,48,63,1080211752
609,9,Ticks_ISO_T2_8,195,5,42,127,1080244468
609,9,Ticks_ISO_T2_8,196,5,42,127,1081045480
609,9,Ticks_ISO_T2_8,197,1,48,70,1081077252
609,9,Ticks_ISO_T2_8,198,1,48,73,1081825580
609,9,Ticks_ISO_T2_8,199,5,42,127,1081845132
609,9,Ticks_ISO_T2_8,200,1,48,58,1082587392
609,9,Ticks_ISO_T2_8,201,5,42,127,1082644964
609,9,Ticks_ISO_T2_8,202,1,48,56,1083369844
609,9,Ticks_ISO_T2_8,203,5,42,127,1083444700
609,9,Ticks_ISO_T2_8,204,1,48,65,1084174392
609,9,Ticks_ISO_T2_8,205,5,42,127,1084245404
609,9,Ticks_ISO_T2_8,206,1,48,43,1085041212
609,9,Ticks_ISO_T2_8,207,5,42,127,1085045212
609,9,Ticks_ISO_T2_8,208,5,42,127,1085844732
609,9,Ticks_ISO_T2_8,209,1,48,51,1085877844
609,9,Ticks_ISO_T2_8,210,5,42,127,1086644464
609,9,Ticks_ISO_T2_8,211,1,48,59,1086647132
609,9,Ticks_ISO_T2_8,212,5,42,127,1087445392
609,9,Ticks_ISO_T2_8,213,1,48,52,1087451280
609,9,Ticks_ISO_T2_8,214,1,48,57,1088206116
609,9,Ticks_ISO_T2_8,215,5,42,127,1088244968
609,9,Ticks_ISO_T2_8,216,1,48,56,1088994924
609,9,Ticks_ISO_T2_8,217,5,42,127,1089044948
609,9,Ticks_ISO_T2_8,218,1,48,53,1089794508
609,9,Ticks_ISO_T2_8,219,5,42,127,1089844756
609,9,Ticks_ISO_T2_8,220,1,48,70,1090563280
609,9,Ticks_ISO_T2_8,221,5,42,127,1090645312
609,9,Ticks_ISO_T2_8,222,1,48,60,1091370812
609,9,Ticks_ISO_T2_8,223,5,42,127,1091445120
609,9,Ticks_ISO_T2_8,224,1,48,63,1092199120
609,9,Ticks_ISO_T2_8,225,5,42,127,1092244780
609,9,Ticks_ISO_T2_8,226,1,48,57,1092965340
609,9,Ticks_ISO_T2_8,227,5,42,127,1093044588
609,9,Ticks_ISO_T2_8,228,1,48,51,1093835912
609,9,Ticks_ISO_T2_8,229,5,42,127,1093845296
609,9,Ticks_ISO_T2_8,230,1,48,57,1094639836
609,9,Ticks_ISO_T2_8,231,5,42,127,1094645176
609,9,Ticks_ISO_T2_8,232,5,42,127,1095444796
609,9,Ticks_ISO_T2_8,233,1,48,51,1095462572
609,9,Ticks_ISO_T2_8,234,5,42,127,1096244824
609,9,Ticks_ISO_T2_8,235,1,48,61,1096258644
609,9,Ticks_ISO_T2_8,236,5,42,127,1097045456
609,9,Ticks_ISO_T2_8,237,1,48,51,1097096068
609,9,Ticks_ISO_T2_8,238,1,48,53,1097812688
609,9,Ticks_ISO_T2_8,0,9999,9999,9999,1001842756
609,9,Ticks_ISO_T2_8,1,9999,9999,9999,1002642488
609,9,Ticks_ISO_T2_8,2,9999,9999,9999,1003442244
609,9,Ticks_ISO_T2_8,3,9999,9999,9999,1004243044
609,9,Ticks_ISO_T2_8,4,9999,9999,9999,1005042772
609,9,Ticks_ISO_T2_8,5,9999,9999,9999,1005842536
609,9,Ticks_ISO_T2_8,6,9999,9999,9999,1006642264
609,9,Ticks_ISO_T2_8,7,9999,9999,9999,1007443052
609,9,Ticks_ISO_T2_8,8,9999,9999,9999,1008242780
609,9,Ticks_ISO_T2_8,9,9999,9999,9999,1009042516
609,9,Ticks_ISO_T2_8,10,9999,9999,9999,1009842248
609,9,Ticks_ISO_T2_8,11,9999,9999,9999,1010643028
609,9,Ticks_ISO_T2_8,12,9999,9999,9999,1011442768
609,9,Ticks_ISO_T2_8,13,9999,9999,9999,1012242524
609,9,Ticks_ISO_T2_8,14,9999,9999,9999,1013042252
609,9,Ticks_ISO_T2_8,15,9999,9999,9999,1013843036
609,9,Ticks_ISO_T2_8,16,9999,9999,9999,1014642768
609,9,Ticks_ISO_T2_8,17,9999,9999,9999,1015442504
609,9,Ticks_ISO_T2_8,18,9999,9999,9999,1016242236
609,9,Ticks_ISO_T2_8,19,9999,9999,9999,1017043024
609,9,Ticks_ISO_T2_8,20,9999,9999,9999,1017842760
609,9,Ticks_ISO_T2_8,21,9999,9999,9999,1018642516
609,9,Ticks_ISO_T2_8,22,9999,9999,9999,1019442248
609,9,Ticks_ISO_T2_8,23,9999,9999,9999,1020243020
609,9,Ticks_ISO_T2_8,24,9999,9999,9999,1021042756
609,9,Ticks_ISO_T2_8,25,9999,9999,9999,1021842488
609,9,Ticks_ISO_T2_8,26,9999,9999,9999,1022642224
609,9,Ticks_ISO_T2_8,27,9999,9999,9999,1023443004
609,9,Ticks_ISO_T2_8,28,9999,9999,9999,1024242736
609,9,Ticks_ISO_T2_8,29,9999,9999,9999,1025042504
609,9,Ticks_ISO_T2_8,30,9999,9999,9999,1025842228
609,9,Ticks_ISO_T2_8,31,9999,9999,9999,1026643016
609,9,Ticks_ISO_T2_8,32,9999,9999,9999,1027442744
609,9,Ticks_ISO_T2_8,33,9999,9999,9999,1028242480
609,9,Ticks_ISO_T2_8,34,9999,9999,9999,1029042292
609,9,Ticks_ISO_T2_8,35,9999,9999,9999,1029842996
609,9,Ticks_ISO_T2_8,36,9999,9999,9999,1030642796
609,9,Ticks_ISO_T2_8,37,9999,9999,9999,1031442488
609,9,Ticks_ISO_T2_8,38,9999,9999,9999,1032242220
609,9,Ticks_ISO_T2_8,39,9999,9999,9999,1033042996
609,9,Ticks_ISO_T2_8,40,9999,9999,9999,1033842804
609,9,Ticks_ISO_T2_8,41,9999,9999,9999,1034642536
609,9,Ticks_ISO_T2_8,42,9999,9999,9999,1035442272
609,9,Ticks_ISO_T2_8,43,9999,9999,9999,1036243048
609,9,Ticks_ISO_T2_8,44,9999,9999,9999,1037042784
609,9,Ticks_ISO_T2_8,45,9999,9999,9999,1037842544
609,9,Ticks_ISO_T2_8,46,9999,9999,9999,1038642276
609,9,Ticks_ISO_T2_8,47,9999,9999,9999,1039443056
609,9,Ticks_ISO_T2_8,48,9999,9999,9999,1040242788
609,9,Ticks_ISO_T2_8,49,9999,9999,9999,1041042528
609,9,Ticks_ISO_T2_8,50,9999,9999,9999,1041842264
609,9,Ticks_ISO_T2_8,51,9999,9999,9999,1042643036
609,9,Ticks_ISO_T2_8,52,9999,9999,9999,1043442768
609,9,Ticks_ISO_T2_8,53,9999,9999,9999,1044242528
609,9,Ticks_ISO_T2_8,54,9999,9999,9999,1045042268
609,9,Ticks_ISO_T2_8,55,9999,9999,9999,1045843048
609,9,Ticks_ISO_T2_8,56,9999,9999,9999,1046642780
609,9,Ticks_ISO_T2_8,57,9999,9999,9999,1047442508
609,9,Ticks_ISO_T2_8,58,9999,9999,9999,1048242244
609,9,Ticks_ISO_T2_8,59,9999,9999,9999,1049043024
609,9,Ticks_ISO_T2_8,60,9999,9999,9999,1049842756
609,9,Ticks_ISO_T2_8,61,9999,9999,9999,1050642516
609,9,Ticks_ISO_T2_8,62,9999,9999,9999,1051442248
609,9,Ticks_ISO_T2_8,63,9999,9999,9999,1052243028
609,9,Ticks_ISO_T2_8,64,9999,9999,9999,1053042764
609,9,Ticks_ISO_T2_8,65,9999,9999,9999,1053842500
609,9,Ticks_ISO_T2_8,66,9999,9999,9999,1054642240
609,9,Ticks_ISO_T2_8,67,9999,9999,9999,1055443012
609,9,Ticks_ISO_T2_8,68,9999,9999,9999,1056242744
609,9,Ticks_ISO_T2_8,69,9999,9999,9999,1057042504
609,9,Ticks_ISO_T2_8,70,9999,9999,9999,1057842240
609,9,Ticks_ISO_T2_8,71,9999,9999,9999,1058643024
609,9,Ticks_ISO_T2_8,72,9999,9999,9999,1059442760
609,9,Ticks_ISO_T2_8,73,9999,9999,9999,1060242484
609,9,Ticks_ISO_T2_8,74,9999,9999,9999,1061042292
609,9,Ticks_ISO_T2_8,75,9999,9999,9999,1061843000
609,9,Ticks_ISO_T2_8,76,9999,9999,9999,1062642808
609,9,Ticks_ISO_T2_8,77,9999,9999,9999,1063442488
609,9,Ticks_ISO_T2_8,78,9999,9999,9999,1064242220
609,9,Ticks_ISO_T2_8,79,9999,9999,9999,1065043000
609,9,Ticks_ISO_T2_8,80,9999,9999,9999,1065842736
609,9,Ticks_ISO_T2_8,81,9999,9999,9999,1066642544
609,9,Ticks_ISO_T2_8,82,9999,9999,9999,1067442280
609,9,Ticks_ISO_T2_8,83,9999,9999,9999,1068243056
609,9,Ticks_ISO_T2_8,84,9999,9999,9999,1069042792
609,9,Ticks_ISO_T2_8,85,9999,9999,9999,1069842536
609,9,Ticks_ISO_T2_8,86,9999,9999,9999,1070642284
609,9,Ticks_ISO_T2_8,87,9999,9999,9999,1071442992
609,9,Ticks_ISO_T2_8,88,9999,9999,9999,1072242796
609,9,Ticks_ISO_T2_8,89,9999,9999,9999,1073042532
609,9,Ticks_ISO_T2_8,90,9999,9999,9999,1073842268
609,9,Ticks_ISO_T2_8,91,9999,9999,9999,1074643052
609,9,Ticks_ISO_T2_8,92,9999,9999,9999,1075442788
609,9,Ticks_ISO_T2_8,93,9999,9999,9999,1076242544
609,9,Ticks_ISO_T2_8,94,9999,9999,9999,1077042280
609,9,Ticks_ISO_T2_8,95,9999,9999,9999,1077843056
609,9,Ticks_ISO_T2_8,96,9999,9999,9999,1078642788
609,9,Ticks_ISO_T2_8,97,9999,9999,9999,1079442524
609,9,Ticks_ISO_T2_8,98,9999,9999,9999,1080242256
609,9,Ticks_ISO_T2_8,99,9999,9999,9999,1081043044
609,9,Ticks_ISO_T2_8,100,9999,9999,9999,1081842772
609,9,Ticks_ISO_T2_8,101,9999,9999,9999,1082642528
609,9,Ticks_ISO_T2_8,102,9999,9999,9999,1083442260
609,9,Ticks_ISO_T2_8,103,9999,9999,9999,1084243040
609,9,Ticks_ISO_T2_8,104,9999,9999,9999,1085042776
609,9,Ticks_ISO_T2_8,105,9999,9999,9999,1085842516
609,9,Ticks_ISO_T2_8,106,9999,9999,9999,1086642248
609,9,Ticks_ISO_T2_8,107,9999,9999,9999,1087443028
609,9,Ticks_ISO_T2_8,108,9999,9999,9999,1088242752
609,9,Ticks_ISO_T2_8,109,9999,9999,9999,1089042512
609,9,Ticks_ISO_T2_8,110,9999,9999,9999,1089842244
609,9,Ticks_ISO_T2_8,111,9999,9999,9999,1090643024
609,9,Ticks_ISO_T2_8,112,9999,9999,9999,1091442760
609,9,Ticks_ISO_T2_8,113,9999,9999,9999,1092242492
609,9,Ticks_ISO_T2_8,114,9999,9999,9999,1093042228
609,9,Ticks_ISO_T2_8,115,9999,9999,9999,1093843008
609,9,Ticks_ISO_T2_8,116,9999,9999,9999,1094642740
609,9,Ticks_ISO_T2_8,117,9999,9999,9999,1095442508
609,9,Ticks_ISO_T2_8,118,9999,9999,9999,1096242240
609,9,Ticks_ISO_T2_8,119,9999,9999,9999,1097043020
6010,10,Ticks_ISO_T2_5,0,5,42,127,1117371868
6010,10,Ticks_ISO_T2_5,1,5,42,127,1117871436
6010,10,Ticks_ISO_T2_5,2,5,42,127,1118372196
6010,10,Ticks_ISO_T2_5,3,5,42,127,1118871992
6010,10,Ticks_ISO_T2_5,4,1,48,71,1118875108
6010,10,Ticks_ISO_T2_5,5,1,48,70,1119353540
6010,10,Ticks_ISO_T2_5,6,5,42,127,1119371604
6010,10,Ticks_ISO_T2_5,7,1,48,54,1119871596
6010,10,Ticks_ISO_T2_5,8,5,42,127,1119873168
6010,10,Ticks_ISO_T2_5,9,1,48,59,1120366020
6010,10,Ticks_ISO_T2_5,10,5,42,127,1120372112
6010,10,Ticks_ISO_T2_5,11,5,42,127,1120871964
6010,10,Ticks_ISO_T2_5,12,1,48,75,1120877176
6010,10,Ticks_ISO_T2_5,13,1,48,67,1121364956
6010,10,Ticks_ISO_T2_5,14,5,42,127,1121371504
6010,10,Ticks_ISO_T2_5,15,5,42,127,1121872176
6010,10,Ticks_ISO_T2_5,16,1,48,71,1121883672
6010,10,Ticks_ISO_T2_5,17,5,42,127,1122372020
6010,10,Ticks_ISO_T2_5,18,1,48,61,1122379180
6010,10,Ticks_ISO_T2_5,19,5,42,127,1122871864
6010,10,Ticks_ISO_T2_5,20,1,48,58,1122890168
6010,10,Ticks_ISO_T2_5,21,1,48,74,1123370488
6010,10,Ticks_ISO_T2_5,22,5,42,127,1123372304
6010,10,Ticks_ISO_T2_5,23,1,48,70,1123842016
6010,10,Ticks_ISO_T2_5,24,5,42,127,1123872220
6010,10,Ticks_ISO_T2_5,25,1,48,37,1124021556
6010,10,Ticks_ISO_T2_5,26,1,48,25,1124109596
6010,10,Ticks_ISO_T2_5,27,5,42,127,1124372028
6010,10,Ticks_ISO_T2_5,28,1,48,57,1124609860
6010,10,Ticks_ISO_T2_5,29,5,42,127,1124871400
6010,10,Ticks_ISO_T2_5,30,1,48,55,1125055104
6010,10,Ticks_ISO_T2_5,31,5,42,127,1125372216
6010,10,Ticks_ISO_T2_5,32,1,48,49,1125447612
6010,10,Ticks_ISO_T2_5,33,5,42,127,1125871912
6010,10,Ticks_ISO_T2_5,34,1,48,41,1125876596
6010,10,Ticks_ISO_T2_5,35,1,48,48,1126358176
6010,10,Ticks_ISO_T2_5,36,5,42,127,1126371896
6010,10,Ticks_ISO_T2_5,37,1,48,54,1126858316
6010,10,Ticks_ISO_T2_5,38,5,42,127,1126872416
6010,10,Ticks_ISO_T2_5,39,5,42,127,1127372192
6010,10,Ticks_ISO_T2_5,40,1,48,52,1127378080
6010,10,Ticks_ISO_T2_5,41,1,48,64,1127861072
6010,10,Ticks_ISO_T2_5,42,5,42,127,1127871880
6010,10,Ticks_ISO_T2_5,43,1,48,40,1127971792
6010,10,Ticks_ISO_T2_5,44,1,48,46,1128060484
6010,10,Ticks_ISO_T2_5,45,5,42,127,1128371984
6010,10,Ticks_ISO_T2_5,46,1,48,61,1128445488
6010,10,Ticks_ISO_T2_5,47,5,42,127,1128872424
6010,10,Ticks_ISO_T2_5,48,1,48,41,1128920796
6010,10,Ticks_ISO_T2_5,49,5,42,127,1129372120
6010,10,Ticks_ISO_T2_5,50,1,48,32,1129377780
6010,10,Ticks_ISO_T2_5,51,1,48,55,1129788000
6010,10,Ticks_ISO_T2_5,52,5,42,127,1129871884
6010,10,Ticks_ISO_T2_5,53,1,48,34,1129935052
6010,10,Ticks_ISO_T2_5,54,1,48,34,1130037600
6010,10,Ticks_ISO_T2_5,55,5,42,127,1130371764
6010,10,Ticks_ISO_T2_5,56,1,48,52,1130449680
6010,10,Ticks_ISO_T2_5,57,5,42,127,1130872132
6010,10,Ticks_ISO_T2_5,58,1,48,27,1130938604
6010,10,Ticks_ISO_T2_5,59,5,42,127,1131371900
6010,10,Ticks_ISO_T2_5,60,1,48,16,1131420640
6010,10,Ticks_ISO_T2_5,61,5,42,127,1131871744
6010,10,Ticks_ISO_T2_5,62,1,48,26,1131902684
6010,10,Ticks_ISO_T2_5,63,5,42,127,1132372188
6010,10,Ticks_ISO_T2_5,64,1,48,43,1132404624
6010,10,Ticks_ISO_T2_5,65,5,42,127,1132872028
6010,10,Ticks_ISO_T2_5,66,1,48,44,1132881208
6010,10,Ticks_ISO_T2_5,67,5,42,127,1133371724
6010,10,Ticks_ISO_T2_5,68,1,48,47,1133391076
6010,10,Ticks_ISO_T2_5,69,5,42,127,1133871940
6010,10,Ticks_ISO_T2_5,70,1,48,49,1133879328
6010,10,Ticks_ISO_T2_5,71,5,42,127,1134372088
6010,10,Ticks_ISO_T2_5,72,1,48,48,1134387992
6010,10,Ticks_ISO_T2_5,73,1,48,44,1134870724
6010,10,Ticks_ISO_T2_5,74,5,42,127,1134872296
6010,10,Ticks_ISO_T2_5,75,5,42,127,1135371700
6010,10,Ticks_ISO_T2_5,76,1,48,59,1135376392
6010,10,Ticks_ISO_T2_5,77,1,48,50,1135854348
6010,10,Ticks_ISO_T2_5,78,5,42,127,1135872484
6010,10,Ticks_ISO_T2_5,79,5,42,127,1136371964
6010,10,Ticks_ISO_T2_5,80,1,48,54,1136377624
6010,10,Ticks_ISO_T2_5,81,5,42,127,1136871732
6010,10,Ticks_ISO_T2_5,82,1,48,58,1136873820
6010,10,Ticks_ISO_T2_5,83,1,48,53,1137364428
6010,10,Ticks_ISO_T2_5,84,5,42,127,1137371572
6010,10,Ticks_ISO_T2_5,85,1,48,60,1137863376
6010,10,Ticks_ISO_T2_5,86,5,42,127,1137872164
6010,10,Ticks_ISO_T2_5,87,1,48,54,1138341676
6010,10,Ticks_ISO_T2_5,88,5,42,127,1138371932
6010,10,Ticks_ISO_T2_5,89,1,48,58,1138861716
6010,10,Ticks_ISO_T2_5,90,5,42,127,1138871776
6010,10,Ticks_ISO_T2_5,91,1,48,54,1139345828
6010,10,Ticks_ISO_T2_5,92,5,42,127,1139372492
6010,10,Ticks_ISO_T2_5,93,5,42,127,1139872044
6010,10,Ticks_ISO_T2_5,94,1,48,62,1139885112
6010,10,Ticks_ISO_T2_5,95,1,48,60,1140371964
6010,10,Ticks_ISO_T2_5,96,5,42,127,1140373372
6010,10,Ticks_ISO_T2_5,97,1,48,61,1140839528
6010,10,Ticks_ISO_T2_5,98,5,42,127,1140871500
6010,10,Ticks_ISO_T2_5,99,5,42,127,1141372324
6010,10,Ticks_ISO_T2_5,100,1,48,61,1141385012
6010,10,Ticks_ISO_T2_5,101,5,42,127,1141872092
6010,10,Ticks_ISO_T2_5,102,1,48,58,1141905508
6010,10,Ticks_ISO_T2_5,103,5,42,127,1142371640
6010,10,Ticks_ISO_T2_5,104,1,48,60,1142415372
6010,10,Ticks_ISO_T2_5,105,5,42,127,1142872528
6010,10,Ticks_ISO_T2_5,106,1,48,57,1142891880
6010,10,Ticks_ISO_T2_5,107,5,42,127,1143372224
6010,10,Ticks_ISO_T2_5,108,1,48,50,1143378928
6010,10,Ticks_ISO_T2_5,109,1,48,60,1143860056
6010,10,Ticks_ISO_T2_5,110,5,42,127,1143871764
6010,10,Ticks_ISO_T2_5,111,1,48,62,1144355488
6010,10,Ticks_ISO_T2_5,112,5,42,127,1144371460
6010,10,Ticks_ISO_T2_5,113,5,42,127,1144872504
6010,10,Ticks_ISO_T2_5,114,1,48,57,1144874948
6010,10,Ticks_ISO_T2_5,115,5,42,127,1145372276
6010,10,Ticks_ISO_T2_5,116,1,48,62,1145393872
6010,10,Ticks_ISO_T2_5,117,5,42,127,1145871676
6010,10,Ticks_ISO_T2_5,118,1,48,62,1145878084
6010,10,Ticks_ISO_T2_5,119,5,42,127,1146371420
6010,10,Ticks_ISO_T2_5,120,1,48,60,1146388552
6010,10,Ticks_ISO_T2_5,121,1,48,59,1146864264
6010,10,Ticks_ISO_T2_5,122,5,42,127,1146872376
6010,10,Ticks_ISO_T2_5,123,1,48,60,1147352368
6010,10,Ticks_ISO_T2_5,124,5,42,127,1147371996
6010,10,Ticks_ISO_T2_5,125,1,48,53,1147832688
6010,10,Ticks_ISO_T2_5,126,5,42,127,1147871544
6010,10,Ticks_ISO_T2_5,127,1,48,60,1148324008
6010,10,Ticks_ISO_T2_5,128,5,42,127,1148372432
6010,10,Ticks_ISO_T2_5,129,1,48,54,1148872504
6010,10,Ticks_ISO_T2_5,130,5,42,127,1148873620
6010,10,Ticks_ISO_T2_5,131,1,48,55,1149360116
6010,10,Ticks_ISO_T2_5,132,5,42,127,1149371748
6010,10,Ticks_ISO_T2_5,133,1,48,54,1149852556
6010,10,Ticks_ISO_T2_5,134,5,42,127,1149871516
6010,10,Ticks_ISO_T2_5,135,1,48,47,1150340212
6010,10,Ticks_ISO_T2_5,136,5,42,127,1150372408
6010,10,Ticks_ISO_T2_5,137,1,48,54,1150764212
6010,10,Ticks_ISO_T2_5,138,5,42,127,1150872308
6010,10,Ticks_ISO_T2_5,139,1,48,46,1151267644
6010,10,Ticks_ISO_T2_5,140,5,42,127,1151371556
6010,10,Ticks_ISO_T2_5,141,1,48,54,1151851184
6010,10,Ticks_ISO_T2_5,142,5,42,127,1151872388
6010,10,Ticks_ISO_T2_5,143,5,42,127,1152372240
6010,10,Ticks_ISO_T2_5,144,1,48,68,1152374840
6010,10,Ticks_ISO_T2_5,145,5,42,127,1152871784
6010,10,Ticks_ISO_T2_5,146,1,48,67,1152887692
6010,10,Ticks_ISO_T2_5,147,5,42,127,1153371408
6010,10,Ticks_ISO_T2_5,148,1,48,63,1153376620
6010,10,Ticks_ISO_T2_5,149,5,42,127,1153872372
6010,10,Ticks_ISO_T2_5,150,1,48,32,1153889332
6010,10,Ticks_ISO_T2_5,151,5,42,127,1154372212
6010,10,Ticks_ISO_T2_5,152,1,48,51,1154401444
6010,10,Ticks_ISO_T2_5,153,1,48,54,1154862152
6010,10,Ticks_ISO_T2_5,154,5,42,127,1154871680
6010,10,Ticks_ISO_T2_5,155,5,42,127,1155372352
6010,10,Ticks_ISO_T2_5,156,1,48,59,1155421328
6010,10,Ticks_ISO_T2_5,157,5,42,127,1155872200
6010,10,Ticks_ISO_T2_5,158,1,48,60,1155903292
6010,10,Ticks_ISO_T2_5,159,1,48,58,1156366768
6010,10,Ticks_ISO_T2_5,160,5,42,127,1156372036
6010,10,Ticks_ISO_T2_5,161,1,48,59,1156856412
6010,10,Ticks_ISO_T2_5,162,5,42,127,1156871484
6010,10,Ticks_ISO_T2_5,163,1,48,57,1157346084
6010,10,Ticks_ISO_T2_5,164,5,42,127,1157372224
6010,10,Ticks_ISO_T2_5,165,5,42,127,1157872152
6010,10,Ticks_ISO_T2_5,166,1,48,66,1157885516
6010,10,Ticks_ISO_T2_5,167,5,42,127,1158371920
6010,10,Ticks_ISO_T2_5,168,1,48,70,1158377428
6010,10,Ticks_ISO_T2_5,169,1,48,65,1158860204
6010,10,Ticks_ISO_T2_5,170,5,42,127,1158872356
6010,10,Ticks_ISO_T2_5,171,1,48,68,1159372132
6010,10,Ticks_ISO_T2_5,172,5,42,127,1159373540
6010,10,Ticks_ISO_T2_5,173,5,42,127,1159872124
6010,10,Ticks_ISO_T2_5,174,1,48,57,1159881372
6010,10,Ticks_ISO_T2_5,175,5,42,127,1160371592
6010,10,Ticks_ISO_T2_5,176,1,48,62,1160400740
6010,10,Ticks_ISO_T2_5,177,5,42,127,1160872184
6010,10,Ticks_ISO_T2_5,178,1,48,51,1160884428
6010,10,Ticks_ISO_T2_5,179,1,48,54,1161358748
6010,10,Ticks_ISO_T2_5,180,5,42,127,1161371948
6010,10,Ticks_ISO_T2_5,181,1,48,58,1161826656
6010,10,Ticks_ISO_T2_5,182,5,42,127,1161871864
6010,10,Ticks_ISO_T2_5,183,1,48,57,1162322088
6010,10,Ticks_ISO_T2_5,184,5,42,127,1162371560
6010,10,Ticks_ISO_T2_5,185,1,48,54,1162784680
6010,10,Ticks_ISO_T2_5,186,5,42,127,1162872156
6010,10,Ticks_ISO_T2_5,187,1,48,49,1163324988
6010,10,Ticks_ISO_T2_5,188,5,42,127,1163371772
6010,10,Ticks_ISO_T2_5,189,1,48,52,1163862532
6010,10,Ticks_ISO_T2_5,190,5,42,127,1163871768
6010,10,Ticks_ISO_T2_5,191,5,42,127,1164372216
6010,10,Ticks_ISO_T2_5,192,1,48,51,1164397400
6010,10,Ticks_ISO_T2_5,193,5,42,127,1164872060
6010,10,Ticks_ISO_T2_5,194,1,48,49,1164881536
6010,10,Ticks_ISO_T2_5,195,5,42,127,1165371828
6010,10,Ticks_ISO_T2_5,196,1,48,52,1165408908
6010,10,Ticks_ISO_T2_5,197,5,42,127,1165871452
6010,10,Ticks_ISO_T2_5,198,1,48,61,1165918552
6010,10,Ticks_ISO_T2_5,199,5,42,127,1166372192
6010,10,Ticks_ISO_T2_5,200,1,48,59,1166395056
6010,10,Ticks_ISO_T2_5,201,1,48,55,1166852972
6010,10,Ticks_ISO_T2_5,202,5,42,127,1166871956
6010,10,Ticks_ISO_T2_5,203,1,48,55,1167360964
6010,10,Ticks_ISO_T2_5,204,5,42,127,1167371648
6010,10,Ticks_ISO_T2_5,205,5,42,127,1167872300
6010,10,Ticks_ISO_T2_5,206,1,48,45,1167904684
6010,10,Ticks_ISO_T2_5,207,5,42,127,1168372068
6010,10,Ticks_ISO_T2_5,208,1,48,57,1168399672
6010,10,Ticks_ISO_T2_5,209,5,42,127,1168871764
6010,10,Ticks_ISO_T2_5,210,1,48,61,1168938040
6010,10,Ticks_ISO_T2_5,211,5,42,127,1169371460
6010,10,Ticks_ISO_T2_5,212,1,48,55,1169463464
6010,10,Ticks_ISO_T2_5,213,5,42,127,1169872124
6010,10,Ticks_ISO_T2_5,214,1,48,62,1170002052
6010,10,Ticks_ISO_T2_5,215,5,42,127,1170372044
6010,10,Ticks_ISO_T2_5,216,1,48,48,1170502720
6010,10,Ticks_ISO_T2_5,217,5,42,127,1170871736
6010,10,Ticks_ISO_T2_5,218,1,48,53,1171011612
6010,10,Ticks_ISO_T2_5,219,5,42,127,1171372624
6010,10,Ticks_ISO_T2_5,220,1,48,53,1171487740
6010,10,Ticks_ISO_T2_5,221,5,42,127,1171872096
6010,10,Ticks_ISO_T2_5,222,5,42,127,1172371888
6010,10,Ticks_ISO_T2_5,223,1,48,58,1172385476
6010,10,Ticks_ISO_T2_5,224,1,48,57,1172841848
6010,10,Ticks_ISO_T2_5,225,5,42,127,1172871652
6010,10,Ticks_ISO_T2_5,226,1,48,50,1173348124
6010,10,Ticks_ISO_T2_5,227,5,42,127,1173372392
6010,10,Ticks_ISO_T2_5,228,1,48,53,1173838996
6010,10,Ticks_ISO_T2_5,229,5,42,127,1173871940
6010,10,Ticks_ISO_T2_5,230,1,48,59,1174340556
6010,10,Ticks_ISO_T2_5,231,5,42,127,1174371560
6010,10,Ticks_ISO_T2_5,232,1,48,54,1174842048
6010,10,Ticks_ISO_T2_5,233,5,42,127,1174872600
6010,10,Ticks_ISO_T2_5,234,1,48,65,1175332320
6010,10,Ticks_ISO_T2_5,235,5,42,127,1175372144
6010,10,Ticks_ISO_T2_5,236,1,48,58,1175831568
6010,10,Ticks_ISO_T2_5,237,5,42,127,1175871768
6010,10,Ticks_ISO_T2_5,238,1,48,61,1176336500
6010,10,Ticks_ISO_T2_5,239,5,42,127,1176371612
6010,10,Ticks_ISO_T2_5,240,1,48,60,1176855712
6010,10,Ticks_ISO_T2_5,241,5,42,127,1176872500
6010,10,Ticks_ISO_T2_5,242,5,42,127,1177371980
6010,10,Ticks_ISO_T2_5,243,1,48,60,1177376820
6010,10,Ticks_ISO_T2_5,244,5,42,127,1177871824
6010,10,Ticks_ISO_T2_5,245,1,48,64,1177872716
6010,10,Ticks_ISO_T2_5,246,1,48,61,1178364272
6010,10,Ticks_ISO_T2_5,247,5,42,127,1178371416
6010,10,Ticks_ISO_T2_5,248,1,48,58,1178850276
6010,10,Ticks_ISO_T2_5,249,5,42,127,1178872452
6010,10,Ticks_ISO_T2_5,250,5,42,127,1179371856
6010,10,Ticks_ISO_T2_5,251,1,48,65,1179378940
6010,10,Ticks_ISO_T2_5,252,5,42,127,1179871552
6010,10,Ticks_ISO_T2_5,253,1,48,70,1179901972
6010,10,Ticks_ISO_T2_5,254,5,42,127,1180372516
6010,10,Ticks_ISO_T2_5,255,1,48,69,1180377580
6010,10,Ticks_ISO_T2_5,256,1,48,62,1180866332
6010,10,Ticks_ISO_T2_5,257,5,42,127,1180871904
6010,10,Ticks_ISO_T2_5,258,5,42,127,1181371684
6010,10,Ticks_ISO_T2_5,259,1,48,64,1181387516
6010,10,Ticks_ISO_T2_5,260,1,48,58,1181841940
6010,10,Ticks_ISO_T2_5,261,5,42,127,1181871372
6010,10,Ticks_ISO_T2_5,262,1,48,60,1182352252
6010,10,Ticks_ISO_T2_5,0,9999,9999,9999,1117369432
6010,10,Ticks_ISO_T2_5,1,9999,9999,9999,1117869148
6010,10,Ticks_ISO_T2_5,2,9999,9999,9999,1118369908
6010,10,Ticks_ISO_T2_5,3,9999,9999,9999,1118869552
6010,10,Ticks_ISO_T2_5,4,9999,9999,9999,1119369316
6010,10,Ticks_ISO_T2_5,5,9999,9999,9999,1119870064
6010,10,Ticks_ISO_T2_5,6,9999,9999,9999,1120369752
6010,10,Ticks_ISO_T2_5,7,9999,9999,9999,1120869452
6010,10,Ticks_ISO_T2_5,8,9999,9999,9999,1121369140
6010,10,Ticks_ISO_T2_5,9,9999,9999,9999,1121869888
6010,10,Ticks_ISO_T2_5,10,9999,9999,9999,1122369584
6010,10,Ticks_ISO_T2_5,11,9999,9999,9999,1122869356
6010,10,Ticks_ISO_T2_5,12,9999,9999,9999,1123370040
6010,10,Ticks_ISO_T2_5,13,9999,9999,9999,1123869784
6010,10,Ticks_ISO_T2_5,14,9999,9999,9999,1124369516
6010,10,Ticks_ISO_T2_5,15,9999,9999,9999,1124869188
6010,10,Ticks_ISO_T2_5,16,9999,9999,9999,1125369928
6010,10,Ticks_ISO_T2_5,17,9999,9999,9999,1125869624
6010,10,Ticks_ISO_T2_5,18,9999,9999,9999,1126369384
6010,10,Ticks_ISO_T2_5,19,9999,9999,9999,1126870128
6010,10,Ticks_ISO_T2_5,20,9999,9999,9999,1127369828
6010,10,Ticks_ISO_T2_5,21,9999,9999,9999,1127869516
6010,10,Ticks_ISO_T2_5,22,9999,9999,9999,1128369252
6010,10,Ticks_ISO_T2_5,23,9999,9999,9999,1128869988
6010,10,Ticks_ISO_T2_5,24,9999,9999,9999,1129369684
6010,10,Ticks_ISO_T2_5,25,9999,9999,9999,1129869372
6010,10,Ticks_ISO_T2_5,26,9999,9999,9999,1130369104
6010,10,Ticks_ISO_T2_5,27,9999,9999,9999,1130869844
6010,10,Ticks_ISO_T2_5,28,9999,9999,9999,1131369536
6010,10,Ticks_ISO_T2_5,29,9999,9999,9999,1131869232
6010,10,Ticks_ISO_T2_5,30,9999,9999,9999,1132369972
6010,10,Ticks_ISO_T2_5,31,9999,9999,9999,1132869744
6010,10,Ticks_ISO_T2_5,32,9999,9999,9999,1133369440
6010,10,Ticks_ISO_T2_5,33,9999,9999,9999,1133869132
6010,10,Ticks_ISO_T2_5,34,9999,9999,9999,1134369872
6010,10,Ticks_ISO_T2_5,35,9999,9999,9999,1134869568
6010,10,Ticks_ISO_T2_5,36,9999,9999,9999,1135369336
6010,10,Ticks_ISO_T2_5,37,9999,9999,9999,1135870048
6010,10,Ticks_ISO_T2_5,38,9999,9999,9999,1136369752
6010,10,Ticks_ISO_T2_5,39,9999,9999,9999,1136869444
6010,10,Ticks_ISO_T2_5,40,9999,9999,9999,1137369208
6010,10,Ticks_ISO_T2_5,41,9999,9999,9999,1137869876
6010,10,Ticks_ISO_T2_5,42,9999,9999,9999,1138369644
6010,10,Ticks_ISO_T2_5,43,9999,9999,9999,1138869340
6010,10,Ticks_ISO_T2_5,44,9999,9999,9999,1139370056
6010,10,Ticks_ISO_T2_5,45,9999,9999,9999,1139869756
6010,10,Ticks_ISO_T2_5,46,9999,9999,9999,1140369524
6010,10,Ticks_ISO_T2_5,47,9999,9999,9999,1140869212
6010,10,Ticks_ISO_T2_5,48,9999,9999,9999,1141369960
6010,10,Ticks_ISO_T2_5,49,9999,9999,9999,1141869656
6010,10,Ticks_ISO_T2_5,50,9999,9999,9999,1142369352
6010,10,Ticks_ISO_T2_5,51,9999,9999,9999,1142870092
6010,10,Ticks_ISO_T2_5,52,9999,9999,9999,1143369788
6010,10,Ticks_ISO_T2_5,53,9999,9999,9999,1143869548
6010,10,Ticks_ISO_T2_5,54,9999,9999,9999,1144369244
6010,10,Ticks_ISO_T2_5,55,9999,9999,9999,1144869992
6010,10,Ticks_ISO_T2_5,56,9999,9999,9999,1145369692
6010,10,Ticks_ISO_T2_5,57,9999,9999,9999,1145869388
6010,10,Ticks_ISO_T2_5,58,9999,9999,9999,1146369132
6010,10,Ticks_ISO_T2_5,59,9999,9999,9999,1146869864
6010,10,Ticks_ISO_T2_5,60,9999,9999,9999,1147369560
6010,10,Ticks_ISO_T2_5,61,9999,9999,9999,1147869256
6010,10,Ticks_ISO_T2_5,62,9999,9999,9999,1148369996
6010,10,Ticks_ISO_T2_5,63,9999,9999,9999,1148869696
6010,10,Ticks_ISO_T2_5,64,9999,9999,9999,1149369460
6010,10,Ticks_ISO_T2_5,65,9999,9999,9999,1149869156
6010,10,Ticks_ISO_T2_5,66,9999,9999,9999,1150369896
6010,10,Ticks_ISO_T2_5,67,9999,9999,9999,1150869576
6010,10,Ticks_ISO_T2_5,68,9999,9999,9999,1151369268
6010,10,Ticks_ISO_T2_5,69,9999,9999,9999,1151870028
6010,10,Ticks_ISO_T2_5,70,9999,9999,9999,1152369728
6010,10,Ticks_ISO_T2_5,71,9999,9999,9999,1152869424
6010,10,Ticks_ISO_T2_5,72,9999,9999,9999,1153369192
6010,10,Ticks_ISO_T2_5,73,9999,9999,9999,1153869936
6010,10,Ticks_ISO_T2_5,74,9999,9999,9999,1154369628
6010,10,Ticks_ISO_T2_5,75,9999,9999,9999,1154869320
6010,10,Ticks_ISO_T2_5,76,9999,9999,9999,1155370064
6010,10,Ticks_ISO_T2_5,77,9999,9999,9999,1155869764
6010,10,Ticks_ISO_T2_5,78,9999,9999,9999,1156369528
6010,10,Ticks_ISO_T2_5,79,9999,9999,9999,1156869196
6010,10,Ticks_ISO_T2_5,80,9999,9999,9999,1157369940
6010,10,Ticks_ISO_T2_5,81,9999,9999,9999,1157869640
6010,10,Ticks_ISO_T2_5,82,9999,9999,9999,1158369332
6010,10,Ticks_ISO_T2_5,83,9999,9999,9999,1158870068
6010,10,Ticks_ISO_T2_5,84,9999,9999,9999,1159369840
6010,10,Ticks_ISO_T2_5,85,9999,9999,9999,1159869536
6010,10,Ticks_ISO_T2_5,86,9999,9999,9999,1160369232
6010,10,Ticks_ISO_T2_5,87,9999,9999,9999,1160869972
6010,10,Ticks_ISO_T2_5,88,9999,9999,9999,1161369660
6010,10,Ticks_ISO_T2_5,89,9999,9999,9999,1161869428
6010,10,Ticks_ISO_T2_5,90,9999,9999,9999,1162369124
6010,10,Ticks_ISO_T2_5,91,9999,9999,9999,1162869868
6010,10,Ticks_ISO_T2_5,92,9999,9999,9999,1163369560
6010,10,Ticks_ISO_T2_5,93,9999,9999,9999,1163869256
6010,10,Ticks_ISO_T2_5,94,9999,9999,9999,1164370004
6010,10,Ticks_ISO_T2_5,95,9999,9999,9999,1164869700
6010,10,Ticks_ISO_T2_5,96,9999,9999,9999,1165369392
6010,10,Ticks_ISO_T2_5,97,9999,9999,9999,1165869164
6010,10,Ticks_ISO_T2_5,98,9999,9999,9999,1166369904
6010,10,Ticks_ISO_T2_5,99,9999,9999,9999,1166869592
6010,10,Ticks_ISO_T2_5,100,9999,9999,9999,1167369288
6010,10,Ticks_ISO_T2_5,101,9999,9999,9999,1167870012
6010,10,Ticks_ISO_T2_5,102,9999,9999,9999,1168369780
6010,10,Ticks_ISO_T2_5,103,9999,9999,9999,1168869476
6010,10,Ticks_ISO_T2_5,104,9999,9999,9999,1169369172
6010,10,Ticks_ISO_T2_5,105,9999,9999,9999,1169869912
6010,10,Ticks_ISO_T2_5,106,9999,9999,9999,1170369604
6010,10,Ticks_ISO_T2_5,107,9999,9999,9999,1170869300
6010,10,Ticks_ISO_T2_5,108,9999,9999,9999,1171370040
6010,10,Ticks_ISO_T2_5,109,9999,9999,9999,1171869812
6010,10,Ticks_ISO_T2_5,110,9999,9999,9999,1172369528
6010,10,Ticks_ISO_T2_5,111,9999,9999,9999,1172869216
6010,10,Ticks_ISO_T2_5,112,9999,9999,9999,1173369956
6010,10,Ticks_ISO_T2_5,113,9999,9999,9999,1173869652
6010,10,Ticks_ISO_T2_5,114,9999,9999,9999,1174369348
6010,10,Ticks_ISO_T2_5,115,9999,9999,9999,1174870088
6010,10,Ticks_ISO_T2_5,116,9999,9999,9999,1175369784
6010,10,Ticks_ISO_T2_5,117,9999,9999,9999,1175869552
6010,10,Ticks_ISO_T2_5,118,9999,9999,9999,1176369248
6010,10,Ticks_ISO_T2_5,119,9999,9999,9999,1176869988
6010,10,Ticks_ISO_T2_5,120,9999,9999,9999,1177369692
6010,10,Ticks_ISO_T2_5,121,9999,9999,9999,1177869388
6010,10,Ticks_ISO_T2_5,122,9999,9999,9999,1178369128
6010,10,Ticks_ISO_T2_5,123,9999,9999,9999,1178869868
6010,10,Ticks_ISO_T2_5,124,9999,9999,9999,1179369568
6010,10,Ticks_ISO_T2_5,125,9999,9999,9999,1179869264
6010,10,Ticks_ISO_T2_5,126,9999,9999,9999,1180370004
6010,10,Ticks_ISO_T2_5,127,9999,9999,9999,1180869692
6010,10,Ticks_ISO_T2_5,128,9999,9999,9999,1181369392
6010,10,Ticks_ISO_T2_5,129,9999,9999,9999,1181869156
6011,25,Jits_Pract_5,0,5,56,103,1225691600
6011,25,Jits_Pract_5,1,5,63,98,1225694776
6011,25,Jits_Pract_5,2,5,80,127,1225697892
6011,25,Jits_Pract_5,0,5,56,103,1226192372
6011,25,Jits_Pract_5,1,5,63,98,1226195316
6011,25,Jits_Pract_5,2,5,80,127,1226198368
6011,25,Jits_Pract_5,0,5,56,103,1226691968
6011,25,Jits_Pract_5,1,5,80,127,1226702088
6011,25,Jits_Pract_5,2,5,63,98,1226721652
6011,25,Jits_Pract_5,0,5,63,98,1227141368
6011,25,Jits_Pract_5,1,5,80,127,1227172092
6011,25,Jits_Pract_5,2,5,56,103,1227181392
6011,25,Jits_Pract_5,0,5,80,127,1227701708
6011,25,Jits_Pract_5,1,5,56,103,1227711828
6011,25,Jits_Pract_5,2,5,63,98,1227741652
6011,25,Jits_Pract_5,0,5,63,98,1228192164
6011,25,Jits_Pract_5,1,5,56,103,1228221988
6011,25,Jits_Pract_5,2,5,80,127,1228232332
6011,25,Jits_Pract_5,0,5,56,103,1228641700
6011,25,Jits_Pract_5,1,5,63,98,1228691900
6011,25,Jits_Pract_5,2,5,80,127,1228712212
6011,25,Jits_Pract_5,0,5,80,127,1229142340
6011,25,Jits_Pract_5,1,5,63,98,1229191572
6011,25,Jits_Pract_5,2,5,56,103,1229231360
6011,25,Jits_Pract_5,0,5,56,103,1229652276
6011,25,Jits_Pract_5,1,5,63,98,1229682100
6011,25,Jits_Pract_5,2,5,80,127,1229751704
6011,25,Jits_Pract_5,0,5,56,103,1230151940
6011,25,Jits_Pract_5,1,5,80,127,1230211360
6011,25,Jits_Pract_5,2,5,63,98,1230242156
6011,25,Jits_Pract_5,0,5,56,103,1230662248
6011,25,Jits_Pract_5,1,5,63,98,1230672220
6011,25,Jits_Pract_5,2,5,80,127,1230712160
6011,25,Jits_Pract_5,0,5,63,98,1231151500
6011,25,Jits_Pract_5,1,5,80,127,1231232272
6011,25,Jits_Pract_5,2,5,56,103,1231241716
6011,25,Jits_Pract_5,0,5,63,98,1231702328
6011,25,Jits_Pract_5,1,5,56,103,1231742264
6011,25,Jits_Pract_5,2,5,80,127,1231745332
6011,25,Jits_Pract_5,0,5,56,103,1232162268
6011,25,Jits_Pract_5,1,5,63,98,1232172464
6011,25,Jits_Pract_5,2,5,80,127,1232212328
6011,25,Jits_Pract_5,0,5,56,103,1232651592
6011,25,Jits_Pract_5,1,5,63,98,1232654732
6011,25,Jits_Pract_5,2,5,80,127,1232672052
6011,25,Jits_Pract_5,0,9999,9999,9999,1225940084
6011,25,Jits_Pract_5,1,9999,9999,9999,1226439732
6011,25,Jits_Pract_5,2,9999,9999,9999,1226939484
6011,25,Jits_Pract_5,3,9999,9999,9999,1227439224
6011,25,Jits_Pract_5,4,9999,9999,9999,1227939932
6011,25,Jits_Pract_5,5,9999,9999,9999,1228439608
6011,25,Jits_Pract_5,6,9999,9999,9999,1228939332
6011,25,Jits_Pract_5,7,9999,9999,9999,1229440052
6011,25,Jits_Pract_5,8,9999,9999,9999,1229950060
6011,25,Jits_Pract_5,9,9999,9999,9999,1230449728
6011,25,Jits_Pract_5,10,9999,9999,9999,1230949468
6011,25,Jits_Pract_5,11,9999,9999,9999,1231449140
6011,25,Jits_Pract_5,12,9999,9999,9999,1231949912
6011,25,Jits_Pract_5,13,9999,9999,9999,1232449640
6011,25,Jits_Pract_5,14,9999,9999,9999,1232949368
6012,24,Jits_Pract_8,0,5,56,103,1341288948
6012,24,Jits_Pract_8,1,5,63,98,1341292048
6012,24,Jits_Pract_8,2,5,80,127,1341295240
6012,24,Jits_Pract_8,0,5,56,103,1342088512
6012,24,Jits_Pract_8,1,5,63,98,1342091680
6012,24,Jits_Pract_8,2,5,80,127,1342094880
6012,24,Jits_Pract_8,0,5,80,127,1342829200
6012,24,Jits_Pract_8,1,5,63,98,1342918964
6012,24,Jits_Pract_8,2,5,56,103,1342929156
6012,24,Jits_Pract_8,0,5,56,103,1343649088
6012,24,Jits_Pract_8,1,5,63,98,1343659432
6012,24,Jits_Pract_8,2,5,80,127,1343748392
6012,24,Jits_Pract_8,0,5,63,98,1344419076
6012,24,Jits_Pract_8,1,5,80,127,1344449052
6012,24,Jits_Pract_8,2,5,56,103,1344478724
6012,24,Jits_Pract_8,0,5,56,103,1345219012
6012,24,Jits_Pract_8,1,5,80,127,1345319212
6012,24,Jits_Pract_8,2,5,63,98,1345368364
6012,24,Jits_Pract_8,0,5,56,103,1346019044
6012,24,Jits_Pract_8,1,5,80,127,1346068900
6012,24,Jits_Pract_8,2,5,63,98,1346108908
6012,24,Jits_Pract_8,0,5,80,127,1346848992
6012,24,Jits_Pract_8,1,5,63,98,1346878744
6012,24,Jits_Pract_8,2,5,56,103,1346948420
6012,24,Jits_Pract_8,0,5,63,98,1347678544
6012,24,Jits_Pract_8,1,5,56,103,1347709192
6012,24,Jits_Pract_8,2,5,80,127,1347768904
6012,24,Jits_Pract_8,0,5,56,103,1348418992
6012,24,Jits_Pract_8,1,5,80,127,1348422060
6012,24,Jits_Pract_8,2,5,63,98,1348538940
6012,24,Jits_Pract_8,0,5,56,103,1349298580
6012,24,Jits_Pract_8,1,5,80,127,1349338372
6012,24,Jits_Pract_8,2,5,63,98,1349349012
6012,24,Jits_Pract_8,0,5,56,103,1350059360
6012,24,Jits_Pract_8,1,5,80,127,1350078772
6012,24,Jits_Pract_8,2,5,63,98,1350158960
6012,24,Jits_Pract_8,0,5,80,127,1350848828
6012,24,Jits_Pract_8,1,5,56,103,1350949252
6012,24,Jits_Pract_8,2,5,63,98,1350958404
6012,24,Jits_Pract_8,0,5,63,98,1351618900
6012,24,Jits_Pract_8,1,5,80,127,1351679316
6012,24,Jits_Pract_8,2,5,56,103,1351688540
6012,24,Jits_Pract_8,0,5,56,103,1352418840
6012,24,Jits_Pract_8,1,5,63,98,1352489440
6012,24,Jits_Pract_8,2,5,80,127,1352492956
6012,24,Jits_Pract_8,0,9999,9999,9999,1341686880
6012,24,Jits_Pract_8,1,9999,9999,9999,1342486616
6012,24,Jits_Pract_8,2,9999,9999,9999,1343286348
6012,24,Jits_Pract_8,3,9999,9999,9999,1344086080
6012,24,Jits_Pract_8,4,9999,9999,9999,1344886856
6012,24,Jits_Pract_8,5,9999,9999,9999,1345686652
6012,24,Jits_Pract_8,6,9999,9999,9999,1346486380
6012,24,Jits_Pract_8,7,9999,9999,9999,1347286112
6012,24,Jits_Pract_8,8,9999,9999,9999,1348086892
6012,24,Jits_Pract_8,9,9999,9999,9999,1348886620
6012,24,Jits_Pract_8,10,9999,9999,9999,1349686356
6012,24,Jits_Pract_8,11,9999,9999,9999,1350486092
6012,24,Jits_Pract_8,12,9999,9999,9999,1351286876
6012,24,Jits_Pract_8,13,9999,9999,9999,1352086608
6012,24,Jits_Pract_8,14,9999,9999,9999,1352886388
6013,24,Jits_Pract_8,0,5,56,103,1418596832
6013,24,Jits_Pract_8,1,5,63,98,1418599932
6013,24,Jits_Pract_8,2,5,80,127,1418603200
6013,24,Jits_Pract_8,0,5,56,103,1419396540
6013,24,Jits_Pract_8,1,5,63,98,1419399560
6013,24,Jits_Pract_8,2,5,80,127,1419402908
6013,24,Jits_Pract_8,0,5,80,127,1420136932
6013,24,Jits_Pract_8,1,1,48,49,1420189872
6013,24,Jits_Pract_8,2,5,63,98,1420226908
6013,24,Jits_Pract_8,3,5,56,103,1420237032
6013,24,Jits_Pract_8,0,5,56,103,1420956932
6013,24,Jits_Pract_8,1,5,63,98,1420967204
6013,24,Jits_Pract_8,2,1,48,48,1420980288
6013,24,Jits_Pract_8,3,5,80,127,1421057352
6013,24,Jits_Pract_8,0,5,63,98,1421727180
6013,24,Jits_Pract_8,1,1,48,57,1421754040
6013,24,Jits_Pract_8,2,5,80,127,1421756996
6013,24,Jits_Pract_8,3,5,56,103,1421786596
6013,24,Jits_Pract_8,0,5,56,103,1422527004
6013,24,Jits_Pract_8,1,1,48,54,1422541804
6013,24,Jits_Pract_8,2,5,80,127,1422627272
6013,24,Jits_Pract_8,3,5,63,98,1422677384
6013,24,Jits_Pract_8,0,5,56,103,1423326776
6013,24,Jits_Pract_8,1,5,80,127,1423376784
6013,24,Jits_Pract_8,2,1,48,41,1423384164
6013,24,Jits_Pract_8,3,5,63,98,1423416788
6013,24,Jits_Pract_8,0,5,80,127,1424157140
6013,24,Jits_Pract_8,1,5,63,98,1424186668
6013,24,Jits_Pract_8,2,1,48,47,1424205900
6013,24,Jits_Pract_8,3,5,56,103,1424257608
6013,24,Jits_Pract_8,0,5,63,98,1424986580
6013,24,Jits_Pract_8,1,1,48,36,1424998620
6013,24,Jits_Pract_8,2,5,56,103,1425017148
6013,24,Jits_Pract_8,3,5,80,127,1425076788
6013,24,Jits_Pract_8,0,5,56,103,1425726920
6013,24,Jits_Pract_8,1,5,80,127,1425730060
6013,24,Jits_Pract_8,2,1,48,46,1425844124
6013,24,Jits_Pract_8,3,5,63,98,1425846636
6013,24,Jits_Pract_8,0,1,48,42,1426562972
6013,24,Jits_Pract_8,1,5,56,103,1426606392
6013,24,Jits_Pract_8,2,5,80,127,1426647380
6013,24,Jits_Pract_8,3,5,63,98,1426657180
6013,24,Jits_Pract_8,0,5,56,103,1427367272
6013,24,Jits_Pract_8,1,1,48,50,1427369136
6013,24,Jits_Pract_8,2,5,80,127,1427386608
6013,24,Jits_Pract_8,3,5,63,98,1427466944
6013,24,Jits_Pract_8,0,5,80,127,1428156856
6013,24,Jits_Pract_8,1,1,48,44,1428190320
6013,24,Jits_Pract_8,2,5,56,103,1428257052
6013,24,Jits_Pract_8,3,5,63,98,1428267468
6013,24,Jits_Pract_8,0,5,63,98,1428926888
6013,24,Jits_Pract_8,1,1,48,47,1428971356
6013,24,Jits_Pract_8,2,5,80,127,1428987224
6013,24,Jits_Pract_8,3,5,56,103,1428996444
6013,24,Jits_Pract_8,0,5,56,103,1429726712
6013,24,Jits_Pract_8,1,5,63,98,1429797464
6013,24,Jits_Pract_8,2,5,80,127,1429800604
6013,24,Jits_Pract_8,3,1,48,23,1429921868
6013,24,Jits_Pract_8,0,9999,9999,9999,1418994764
6013,24,Jits_Pract_8,1,9999,9999,9999,1419794496
6013,24,Jits_Pract_8,2,9999,9999,9999,1420594284
6013,24,Jits_Pract_8,3,9999,9999,9999,1421395024
6013,24,Jits_Pract_8,4,9999,9999,9999,1422194788
6013,24,Jits_Pract_8,5,9999,9999,9999,1422994548
6013,24,Jits_Pract_8,6,9999,9999,9999,1423794240
6013,24,Jits_Pract_8,7,9999,9999,9999,1424595060
6013,24,Jits_Pract_8,8,9999,9999,9999,1425394764
6013,24,Jits_Pract_8,9,9999,9999,9999,1426194524
6013,24,Jits_Pract_8,10,9999,9999,9999,1426994228
6013,24,Jits_Pract_8,11,9999,9999,9999,1427795032
6013,24,Jits_Pract_8,12,9999,9999,9999,1428594804
6013,24,Jits_Pract_8,13,9999,9999,9999,1429394500
6013,24,Jits_Pract_8,14,9999,9999,9999,1430194240
6014,25,Jits_Pract_5,0,5,56,103,1438337344
6014,25,Jits_Pract_5,1,5,63,98,1438340512
6014,25,Jits_Pract_5,2,5,80,127,1438343712
6014,25,Jits_Pract_5,0,5,56,103,1438837216
6014,25,Jits_Pract_5,1,5,63,98,1438840464
6014,25,Jits_Pract_5,2,5,80,127,1438843512
6014,25,Jits_Pract_5,0,5,56,103,1439336808
6014,25,Jits_Pract_5,1,5,80,127,1439347156
6014,25,Jits_Pract_5,2,5,63,98,1439366492
6014,25,Jits_Pract_5,0,5,63,98,1439787332
6014,25,Jits_Pract_5,1,5,80,127,1439817228
6014,25,Jits_Pract_5,2,5,56,103,1439827348
6014,25,Jits_Pract_5,3,1,48,55,1439903880
6014,25,Jits_Pract_5,0,1,48,41,1440330136
6014,25,Jits_Pract_5,1,5,80,127,1440346576
6014,25,Jits_Pract_5,2,5,56,103,1440356920
6014,25,Jits_Pract_5,3,5,63,98,1440386520
6014,25,Jits_Pract_5,0,5,63,98,1440836912
6014,25,Jits_Pract_5,1,1,48,56,1440851188
6014,25,Jits_Pract_5,2,5,56,103,1440866656
6014,25,Jits_Pract_5,3,5,80,127,1440876776
6014,25,Jits_Pract_5,0,5,56,103,1441286412
6014,25,Jits_Pract_5,1,5,63,98,1441336612
6014,25,Jits_Pract_5,2,1,48,62,1441348348
6014,25,Jits_Pract_5,3,5,80,127,1441357140
6014,25,Jits_Pract_5,0,5,80,127,1441787236
6014,25,Jits_Pract_5,1,1,48,60,1441824732
6014,25,Jits_Pract_5,2,5,63,98,1441837356
6014,25,Jits_Pract_5,3,5,56,103,1441877300
6014,25,Jits_Pract_5,0,5,56,103,1442287068
6014,25,Jits_Pract_5,1,5,63,98,1442316620
6014,25,Jits_Pract_5,2,1,48,62,1442322508
6014,25,Jits_Pract_5,3,5,80,127,1442387268
6014,25,Jits_Pract_5,0,5,56,103,1442786552
6014,25,Jits_Pract_5,1,1,48,62,1442791616
6014,25,Jits_Pract_5,2,5,80,127,1442847184
6014,25,Jits_Pract_5,3,5,63,98,1442876784
6014,25,Jits_Pract_5,0,5,56,103,1443296668
6014,25,Jits_Pract_5,1,5,63,98,1443307084
6014,25,Jits_Pract_5,2,1,48,48,1443319000
6014,25,Jits_Pract_5,3,5,80,127,1443346744
6014,25,Jits_Pract_5,0,5,63,98,1443787228
6014,25,Jits_Pract_5,1,1,48,69,1443794088
6014,25,Jits_Pract_5,2,5,80,127,1443867044
6014,25,Jits_Pract_5,3,5,56,103,1443877316
6014,25,Jits_Pract_5,0,1,48,50,1444294444
6014,25,Jits_Pract_5,1,5,63,98,1444336964
6014,25,Jits_Pract_5,2,5,56,103,1444377152
6014,25,Jits_Pract_5,3,5,80,127,1444380216
6014,25,Jits_Pract_5,0,5,56,103,1444796720
6014,25,Jits_Pract_5,1,5,63,98,1444807140
6014,25,Jits_Pract_5,2,1,48,60,1444818724
6014,25,Jits_Pract_5,3,5,80,127,1444847072
6014,25,Jits_Pract_5,0,5,56,103,1445287128
6014,25,Jits_Pract_5,1,5,63,98,1445290196
6014,25,Jits_Pract_5,2,1,48,55,1445297748
6014,25,Jits_Pract_5,3,5,80,127,1445306764
6014,25,Jits_Pract_5,0,9999,9999,9999,1438584928
6014,25,Jits_Pract_5,1,9999,9999,9999,1439084652
6014,25,Jits_Pract_5,2,9999,9999,9999,1439584324
6014,25,Jits_Pract_5,3,9999,9999,9999,1440085088
6014,25,Jits_Pract_5,4,9999,9999,9999,1440584784
6014,25,Jits_Pract_5,5,9999,9999,9999,1441084480
6014,25,Jits_Pract_5,6,9999,9999,9999,1441584248
6014,25,Jits_Pract_5,7,9999,9999,9999,1442084928
6014,25,Jits_Pract_5,8,9999,9999,9999,1442584632
6014,25,Jits_Pract_5,9,9999,9999,9999,1443084336
6014,25,Jits_Pract_5,10,9999,9999,9999,1443584116
6014,25,Jits_Pract_5,11,9999,9999,9999,1444084844
6014,25,Jits_Pract_5,12,9999,9999,9999,1444584532
6014,25,Jits_Pract_5,13,9999,9999,9999,1445084220
6014,25,Jits_Pract_5,14,9999,9999,9999,1445584960
6015,18,Jits_Linear_8,0,5,56,103,1476569408
6015,18,Jits_Linear_8,1,5,63,98,1476572504
6015,18,Jits_Linear_8,2,5,80,127,1476575700
6015,18,Jits_Linear_8,0,5,56,103,1477389592
6015,18,Jits_Linear_8,1,5,63,98,1477392688
6015,18,Jits_Linear_8,2,5,80,127,1477395740
6015,18,Jits_Linear_8,0,5,80,127,1478149456
6015,18,Jits_Linear_8,1,5,63,98,1478239592
6015,18,Jits_Linear_8,2,5,56,103,1478249788
6015,18,Jits_Linear_8,3,1,48,45,1478284212
6015,18,Jits_Linear_8,0,5,56,103,1478990200
6015,18,Jits_Linear_8,1,5,63,98,1479000400
6015,18,Jits_Linear_8,2,5,80,127,1479089484
6015,18,Jits_Linear_8,3,1,48,48,1479115592
6015,18,Jits_Linear_8,0,5,63,98,1479779700
6015,18,Jits_Linear_8,1,5,80,127,1479810500
6015,18,Jits_Linear_8,2,5,56,103,1479840172
6015,18,Jits_Linear_8,3,1,48,40,1479859704
6015,18,Jits_Linear_8,0,5,56,103,1480600124
6015,18,Jits_Linear_8,1,1,48,43,1480631644
6015,18,Jits_Linear_8,2,5,80,127,1480700320
6015,18,Jits_Linear_8,3,5,63,98,1480749312
6015,18,Jits_Linear_8,0,5,56,103,1481410160
6015,18,Jits_Linear_8,1,5,80,127,1481460240
6015,18,Jits_Linear_8,2,1,48,44,1481471232
6015,18,Jits_Linear_8,3,5,63,98,1481500024
6015,18,Jits_Linear_8,0,5,80,127,1482249512
6015,18,Jits_Linear_8,1,5,63,98,1482280236
6015,18,Jits_Linear_8,2,1,48,45,1482284104
6015,18,Jits_Linear_8,3,5,56,103,1482350280
6015,18,Jits_Linear_8,0,5,63,98,1483090264
6015,18,Jits_Linear_8,1,5,56,103,1483120236
6015,18,Jits_Linear_8,2,1,48,41,1483134292
6015,18,Jits_Linear_8,3,5,80,127,1483180396
6015,18,Jits_Linear_8,0,5,56,103,1483839888
6015,18,Jits_Linear_8,1,5,80,127,1483842956
6015,18,Jits_Linear_8,2,1,48,37,1483954780
6015,18,Jits_Linear_8,3,5,63,98,1483959608
6015,18,Jits_Linear_8,0,5,56,103,1484719516
6015,18,Jits_Linear_8,1,1,48,47,1484754844
6015,18,Jits_Linear_8,2,5,80,127,1484760424
6015,18,Jits_Linear_8,3,5,63,98,1484769796
6015,18,Jits_Linear_8,0,5,56,103,1485480256
6015,18,Jits_Linear_8,1,5,80,127,1485499744
6015,18,Jits_Linear_8,2,1,48,59,1485560504
6015,18,Jits_Linear_8,3,5,63,98,1485579708
6015,18,Jits_Linear_8,0,5,80,127,1486269908
6015,18,Jits_Linear_8,1,1,48,51,1486355016
6015,18,Jits_Linear_8,2,5,56,103,1486370108
6015,18,Jits_Linear_8,3,5,63,98,1486380452
6015,18,Jits_Linear_8,0,5,63,98,1487040088
6015,18,Jits_Linear_8,1,5,80,127,1487100136
6015,18,Jits_Linear_8,2,5,56,103,1487109432
6015,18,Jits_Linear_8,3,1,48,53,1487194428
6015,18,Jits_Linear_8,0,5,56,103,1487839540
6015,18,Jits_Linear_8,1,5,63,98,1487910220
6015,18,Jits_Linear_8,2,5,80,127,1487913956
6015,18,Jits_Linear_8,3,1,48,60,1487965848
6015,18,Jits_Linear_8,0,5,63,98,1488670112
6015,18,Jits_Linear_8,1,5,56,103,1488720316
6015,18,Jits_Linear_8,2,5,80,127,1488723308
6015,18,Jits_Linear_8,3,1,48,54,1488771828
6015,18,Jits_Linear_8,0,5,56,103,1489419584
6015,18,Jits_Linear_8,1,5,80,127,1489422872
6015,18,Jits_Linear_8,2,5,63,98,1489509864
6015,18,Jits_Linear_8,3,1,48,54,1489567980
6015,18,Jits_Linear_8,0,5,63,98,1490250132
6015,18,Jits_Linear_8,1,5,56,103,1490340192
6015,18,Jits_Linear_8,2,5,80,127,1490370092
6015,18,Jits_Linear_8,3,1,48,44,1490372536
6015,18,Jits_Linear_8,0,5,56,103,1491030260
6015,18,Jits_Linear_8,1,5,63,98,1491129984
6015,18,Jits_Linear_8,2,1,48,63,1491156028
6015,18,Jits_Linear_8,3,5,80,127,1491160328
6015,18,Jits_Linear_8,0,5,63,98,1491840296
6015,18,Jits_Linear_8,1,5,56,103,1491849448
6015,18,Jits_Linear_8,2,1,48,53,1491927196
6015,18,Jits_Linear_8,3,5,80,127,1491939872
6015,18,Jits_Linear_8,0,5,63,98,1492640052
6015,18,Jits_Linear_8,1,1,48,53,1492703412
6015,18,Jits_Linear_8,2,5,56,103,1492719920
6015,18,Jits_Linear_8,3,5,80,127,1492722984
6015,18,Jits_Linear_8,0,5,80,127,1493379468
6015,18,Jits_Linear_8,1,5,63,98,1493399852
6015,18,Jits_Linear_8,2,5,56,103,1493460316
6015,18,Jits_Linear_8,3,1,48,57,1493471004
6015,18,Jits_Linear_8,0,5,56,103,1494199764
6015,18,Jits_Linear_8,1,5,63,98,1494219992
6015,18,Jits_Linear_8,2,5,80,127,1494223436
6015,18,Jits_Linear_8,3,1,48,59,1494226108
6015,18,Jits_Linear_8,0,5,63,98,1494919436
6015,18,Jits_Linear_8,1,1,48,52,1494980696
6015,18,Jits_Linear_8,2,5,80,127,1495000348
6015,18,Jits_Linear_8,3,5,56,103,1495009868
6015,18,Jits_Linear_8,0,1,48,51,1495710536
6015,18,Jits_Linear_8,1,5,63,98,1495720524
6015,18,Jits_Linear_8,2,5,56,103,1495739864
6015,18,Jits_Linear_8,3,5,80,127,1495789916
6015,18,Jits_Linear_8,0,1,48,63,1496490812
6015,18,Jits_Linear_8,1,5,80,127,1496499976
6015,18,Jits_Linear_8,2,5,63,98,1496539620
6015,18,Jits_Linear_8,3,5,56,103,1496559928
6015,18,Jits_Linear_8,0,1,48,60,1497278512
6015,18,Jits_Linear_8,1,5,56,103,1497309772
6015,18,Jits_Linear_8,2,5,63,98,1497319896
6015,18,Jits_Linear_8,3,5,80,127,1497340304
6015,18,Jits_Linear_8,0,5,56,103,1498009964
6015,18,Jits_Linear_8,1,1,48,52,1498094220
6015,18,Jits_Linear_8,2,5,63,98,1498100044
6015,18,Jits_Linear_8,3,5,80,127,1498159612
6015,18,Jits_Linear_8,0,5,80,127,1498809880
6015,18,Jits_Linear_8,1,5,56,103,1498819928
6015,18,Jits_Linear_8,2,1,48,55,1498877604
6015,18,Jits_Linear_8,3,5,63,98,1498889776
6015,18,Jits_Linear_8,0,5,63,98,1499609576
6015,18,Jits_Linear_8,1,1,48,54,1499658284
6015,18,Jits_Linear_8,2,5,80,127,1499699804
6015,18,Jits_Linear_8,3,5,56,103,1499709776
6015,18,Jits_Linear_8,0,5,63,98,1500309916
6015,18,Jits_Linear_8,1,5,80,127,1500360120
6015,18,Jits_Linear_8,2,5,56,103,1500419560
6015,18,Jits_Linear_8,3,1,48,51,1500437672
6015,18,Jits_Linear_8,0,5,56,103,1501100676
6015,18,Jits_Linear_8,1,5,80,127,1501149536
6015,18,Jits_Linear_8,2,5,63,98,1501170068
6015,18,Jits_Linear_8,3,1,48,45,1501171184
6015,18,Jits_Linear_8,0,5,56,103,1501829696
6015,18,Jits_Linear_8,1,5,80,127,1501889868
6015,18,Jits_Linear_8,2,1,48,53,1501907364
6015,18,Jits_Linear_8,3,5,63,98,1501959716
6015,18,Jits_Linear_8,0,5,56,103,1502590280
6015,18,Jits_Linear_8,1,5,80,127,1502620104
6015,18,Jits_Linear_8,2,5,63,98,1502649708
6015,18,Jits_Linear_8,3,1,48,53,1502656116
6015,18,Jits_Linear_8,0,5,56,103,1503389972
6015,18,Jits_Linear_8,1,5,80,127,1503409536
6015,18,Jits_Linear_8,2,1,48,40,1503424260
6015,18,Jits_Linear_8,3,5,63,98,1503469920
6015,18,Jits_Linear_8,0,1,48,40,1504150304
6015,18,Jits_Linear_8,1,5,80,127,1504229600
6015,18,Jits_Linear_8,2,5,56,103,1504239872
6015,18,Jits_Linear_8,3,5,63,98,1504250076
6015,18,Jits_Linear_8,0,1,48,45,1504932760
6015,18,Jits_Linear_8,1,5,56,103,1504940580
6015,18,Jits_Linear_8,2,5,80,127,1504980592
6015,18,Jits_Linear_8,3,5,63,98,1505009972
6015,18,Jits_Linear_8,0,1,48,35,1505645584
6015,18,Jits_Linear_8,1,5,56,103,1505660672
6015,18,Jits_Linear_8,2,5,63,98,1505690052
6015,18,Jits_Linear_8,3,5,80,127,1505730064
6015,18,Jits_Linear_8,0,5,80,127,1506359596
6015,18,Jits_Linear_8,1,1,48,33,1506401004
6015,18,Jits_Linear_8,2,5,63,98,1506409872
6015,18,Jits_Linear_8,3,5,56,103,1506430480
6015,18,Jits_Linear_8,0,1,48,41,1507133108
6015,18,Jits_Linear_8,1,5,56,103,1507139956
6015,18,Jits_Linear_8,2,5,80,127,1507209564
6015,18,Jits_Linear_8,3,5,63,98,1507270088
6015,18,Jits_Linear_8,0,5,80,127,1507880236
6015,18,Jits_Linear_8,1,1,48,42,1507900144
6015,18,Jits_Linear_8,2,5,63,98,1507970368
6015,18,Jits_Linear_8,3,5,56,103,1507989856
6015,18,Jits_Linear_8,0,5,63,98,1508640228
6015,18,Jits_Linear_8,1,5,56,103,1508659716
6015,18,Jits_Linear_8,2,1,48,33,1508695496
6015,18,Jits_Linear_8,3,5,80,127,1508699720
6015,18,Jits_Linear_8,0,5,80,127,1509339636
6015,18,Jits_Linear_8,1,5,63,98,1509359944
6015,18,Jits_Linear_8,2,1,48,24,1509386288
6015,18,Jits_Linear_8,3,5,56,103,1509439884
6015,18,Jits_Linear_8,0,5,63,98,1510069628
6015,18,Jits_Linear_8,1,1,48,43,1510090132
6015,18,Jits_Linear_8,2,5,56,103,1510180380
6015,18,Jits_Linear_8,3,5,80,127,1510183448
6015,18,Jits_Linear_8,0,1,48,57,1510801308
6015,18,Jits_Linear_8,1,5,63,98,1510829584
6015,18,Jits_Linear_8,2,5,56,103,1510839552
6015,18,Jits_Linear_8,3,5,80,127,1510842700
6015,18,Jits_Linear_8,0,1,48,54,1511500432
6015,18,Jits_Linear_8,1,5,56,103,1511550652
6015,18,Jits_Linear_8,2,5,80,127,1511670396
6015,18,Jits_Linear_8,3,5,63,98,1511710184
6015,18,Jits_Linear_8,0,1,48,54,1512293368
6015,18,Jits_Linear_8,1,5,56,103,1512299920
6015,18,Jits_Linear_8,2,5,80,127,1512379720
6015,18,Jits_Linear_8,3,5,63,98,1512400312
6015,18,Jits_Linear_8,0,5,56,103,1513030084
6015,18,Jits_Linear_8,1,1,48,55,1513058464
6015,18,Jits_Linear_8,2,1,48,21,1513139140
6015,18,Jits_Linear_8,3,5,63,98,1513140284
6015,18,Jits_Linear_8,4,5,80,127,1513143488
6015,18,Jits_Linear_8,0,5,56,103,1513789732
6015,18,Jits_Linear_8,1,5,80,127,1513819484
6015,18,Jits_Linear_8,2,1,48,54,1513824700
6015,18,Jits_Linear_8,3,5,63,98,1513840012
6015,18,Jits_Linear_8,0,5,63,98,1514499376
6015,18,Jits_Linear_8,1,5,56,103,1514509572
6015,18,Jits_Linear_8,2,5,80,127,1514519844
6015,18,Jits_Linear_8,3,1,48,59,1514577044
6015,18,Jits_Linear_8,0,5,80,127,1515210164
6015,18,Jits_Linear_8,1,5,56,103,1515260320
6015,18,Jits_Linear_8,2,5,63,98,1515300408
6015,18,Jits_Linear_8,3,1,48,45,1515305844
6015,18,Jits_Linear_8,0,5,80,127,1515949404
6015,18,Jits_Linear_8,1,1,48,50,1515970084
6015,18,Jits_Linear_8,2,5,63,98,1515971348
6015,18,Jits_Linear_8,3,5,56,103,1516020008
6015,18,Jits_Linear_8,0,1,48,53,1516668676
6015,18,Jits_Linear_8,1,5,80,127,1516679564
6015,18,Jits_Linear_8,2,5,56,103,1516710136
6015,18,Jits_Linear_8,3,5,63,98,1516780100
6015,18,Jits_Linear_8,0,1,48,43,1517412392
6015,18,Jits_Linear_8,1,5,56,103,1517449508
6015,18,Jits_Linear_8,2,5,80,127,1517459776
6015,18,Jits_Linear_8,3,5,63,98,1517499640
6015,18,Jits_Linear_8,0,5,56,103,1518080324
6015,18,Jits_Linear_8,1,5,63,98,1518099812
6015,18,Jits_Linear_8,2,1,48,45,1518145928
6015,18,Jits_Linear_8,3,5,80,127,1518169412
6015,18,Jits_Linear_8,0,1,48,47,1518788708
6015,18,Jits_Linear_8,1,5,63,98,1518819672
6015,18,Jits_Linear_8,2,5,80,127,1518880448
6015,18,Jits_Linear_8,3,5,56,103,1518899564
6015,18,Jits_Linear_8,0,1,48,46,1519512188
6015,18,Jits_Linear_8,1,5,80,127,1519520232
6015,18,Jits_Linear_8,2,5,56,103,1519549984
6015,18,Jits_Linear_8,3,5,63,98,1519579512
6015,18,Jits_Linear_8,0,1,48,44,1520188632
6015,18,Jits_Linear_8,1,5,56,103,1520229708
6015,18,Jits_Linear_8,2,5,63,98,1520290088
6015,18,Jits_Linear_8,3,5,80,127,1520349580
6015,18,Jits_Linear_8,0,1,48,45,1520915704
6015,18,Jits_Linear_8,1,5,80,127,1520959716
6015,18,Jits_Linear_8,2,5,56,103,1520980400
6015,18,Jits_Linear_8,3,5,63,98,1521050140
6015,18,Jits_Linear_8,0,1,48,57,1521650960
6015,18,Jits_Linear_8,1,5,80,127,1521669416
6015,18,Jits_Linear_8,2,5,63,98,1521690172
6015,18,Jits_Linear_8,3,5,56,103,1521719624
6015,18,Jits_Linear_8,0,5,80,127,1522359620
6015,18,Jits_Linear_8,1,5,63,98,1522380228
6015,18,Jits_Linear_8,2,1,48,49,1522386120
6015,18,Jits_Linear_8,3,5,56,103,1522439516
6015,18,Jits_Linear_8,0,5,80,127,1523060344
6015,18,Jits_Linear_8,1,1,48,42,1523064508
6015,18,Jits_Linear_8,2,5,56,103,1523160424
6015,18,Jits_Linear_8,3,5,63,98,1523190272
6015,18,Jits_Linear_8,0,5,63,98,1523750136
6015,18,Jits_Linear_8,1,1,48,43,1523792368
6015,18,Jits_Linear_8,2,5,80,127,1523800336
6015,18,Jits_Linear_8,3,5,56,103,1523820044
6015,18,Jits_Linear_8,0,1,48,45,1524445464
6015,18,Jits_Linear_8,1,5,80,127,1524489500
6015,18,Jits_Linear_8,2,5,56,103,1524520372
6015,18,Jits_Linear_8,3,5,63,98,1524523588
6015,18,Jits_Linear_8,0,1,48,48,1525136572
6015,18,Jits_Linear_8,1,5,63,98,1525219772
6015,18,Jits_Linear_8,2,5,56,103,1525259548
6015,18,Jits_Linear_8,3,5,80,127,1525280080
6015,18,Jits_Linear_8,0,1,48,49,1525836660
6015,18,Jits_Linear_8,1,5,80,127,1525859624
6015,18,Jits_Linear_8,2,5,63,98,1525939484
6015,18,Jits_Linear_8,3,5,56,103,1525979424
6015,18,Jits_Linear_8,0,5,63,98,1526570304
6015,18,Jits_Linear_8,1,1,48,28,1526587052
6015,18,Jits_Linear_8,2,5,80,127,1526650172
6015,18,Jits_Linear_8,3,5,56,103,1526669808
6015,18,Jits_Linear_8,0,1,48,46,1527268944
6015,18,Jits_Linear_8,1,5,56,103,1527299336
6015,18,Jits_Linear_8,2,5,63,98,1527309532
6015,18,Jits_Linear_8,3,5,80,127,1527349548
6015,18,Jits_Linear_8,0,5,56,103,1527909676
6015,18,Jits_Linear_8,1,5,80,127,1527912816
6015,18,Jits_Linear_8,2,1,48,51,1528003364
6015,18,Jits_Linear_8,3,5,63,98,1528050020
6015,18,Jits_Linear_8,0,5,56,103,1528589788
6015,18,Jits_Linear_8,1,1,48,50,1528677656
6015,18,Jits_Linear_8,2,5,63,98,1528679768
6015,18,Jits_Linear_8,3,5,80,127,1528749300
6015,18,Jits_Linear_8,0,5,63,98,1529349400
6015,18,Jits_Linear_8,1,5,80,127,1529352920
6015,18,Jits_Linear_8,2,1,48,48,1529374692
6015,18,Jits_Linear_8,3,5,56,103,1529409864
6015,18,Jits_Linear_8,0,1,48,59,1530060472
6015,18,Jits_Linear_8,1,5,80,127,1530070460
6015,18,Jits_Linear_8,2,5,56,103,1530090024
6015,18,Jits_Linear_8,3,5,63,98,1530099948
6015,18,Jits_Linear_8,0,5,56,103,1530669372
6015,18,Jits_Linear_8,1,5,63,98,1530679868
6015,18,Jits_Linear_8,2,5,80,127,1530750296
6015,18,Jits_Linear_8,3,1,48,46,1530773572
6015,18,Jits_Linear_8,0,5,80,127,1531350368
6015,18,Jits_Linear_8,1,5,56,103,1531399772
6015,18,Jits_Linear_8,2,1,48,43,1531402668
6015,18,Jits_Linear_8,3,5,63,98,1531449968
6015,18,Jits_Linear_8,0,1,48,54,1532071444
6015,18,Jits_Linear_8,1,5,56,103,1532110132
6015,18,Jits_Linear_8,2,5,63,98,1532120404
6015,18,Jits_Linear_8,3,5,80,127,1532160292
6015,18,Jits_Linear_8,0,5,56,103,1532729796
6015,18,Jits_Linear_8,1,1,48,50,1532752544
6015,18,Jits_Linear_8,2,5,63,98,1532769876
6015,18,Jits_Linear_8,3,5,80,127,1532819780
6015,18,Jits_Linear_8,0,5,80,127,1533359476
6015,18,Jits_Linear_8,1,5,56,103,1533409828
6015,18,Jits_Linear_8,2,1,48,45,1533430012
6015,18,Jits_Linear_8,3,5,63,98,1533431500
6015,18,Jits_Linear_8,0,5,80,127,1534040568
6015,18,Jits_Linear_8,1,5,63,98,1534099768
6015,18,Jits_Linear_8,2,1,48,54,1534108508
6015,18,Jits_Linear_8,3,5,56,103,1534179776
6015,18,Jits_Linear_8,0,5,80,127,1534689580
6015,18,Jits_Linear_8,1,5,56,103,1534729692
6015,18,Jits_Linear_8,2,5,63,98,1534750076
6015,18,Jits_Linear_8,3,1,48,54,1534793800
6015,18,Jits_Linear_8,0,5,56,103,1535409704
6015,18,Jits_Linear_8,1,5,80,127,1535419976
6015,18,Jits_Linear_8,2,1,48,51,1535423020
6015,18,Jits_Linear_8,3,5,63,98,1535459984
6015,18,Jits_Linear_8,0,1,48,45,1536100364
6015,18,Jits_Linear_8,1,5,56,103,1536139872
6015,18,Jits_Linear_8,2,5,63,98,1536179584
6015,18,Jits_Linear_8,3,5,80,127,1536182876
6015,18,Jits_Linear_8,0,5,63,98,1536689744
6015,18,Jits_Linear_8,1,5,80,127,1536729384
6015,18,Jits_Linear_8,2,5,56,103,1536800064
6015,18,Jits_Linear_8,3,1,48,45,1536807220
6015,18,Jits_Linear_8,0,5,63,98,1537339880
6015,18,Jits_Linear_8,1,1,48,51,1537387888
6015,18,Jits_Linear_8,2,5,56,103,1537419820
6015,18,Jits_Linear_8,3,5,80,127,1537480944
6015,18,Jits_Linear_8,0,5,80,127,1538009624
6015,18,Jits_Linear_8,1,1,48,48,1538056140
6015,18,Jits_Linear_8,2,5,63,98,1538059848
6015,18,Jits_Linear_8,3,5,56,103,1538090496
6015,18,Jits_Linear_8,0,5,56,103,1538659848
6015,18,Jits_Linear_8,1,5,63,98,1538709828
6015,18,Jits_Linear_8,2,5,80,127,1538720024
6015,18,Jits_Linear_8,3,1,48,56,1538720992
6015,18,Jits_Linear_8,0,5,56,103,1539330376
6015,18,Jits_Linear_8,1,1,48,48,1539372004
6015,18,Jits_Linear_8,2,5,63,98,1539439984
6015,18,Jits_Linear_8,3,5,80,127,1539459624
6015,18,Jits_Linear_8,0,5,63,98,1539979908
6015,18,Jits_Linear_8,1,1,48,48,1540029740
6015,18,Jits_Linear_8,2,5,80,127,1540031224
6015,18,Jits_Linear_8,3,5,56,103,1540119888
6015,18,Jits_Linear_8,0,5,63,98,1540619560
6015,18,Jits_Linear_8,1,5,80,127,1540650360
6015,18,Jits_Linear_8,2,1,48,49,1540689000
6015,18,Jits_Linear_8,3,5,56,103,1540739440
6015,18,Jits_Linear_8,0,5,63,98,1541269972
6015,18,Jits_Linear_8,1,5,56,103,1541280096
6015,18,Jits_Linear_8,2,1,48,56,1541332584
6015,18,Jits_Linear_8,3,5,80,127,1541379608
6015,18,Jits_Linear_8,0,1,48,51,1542006904
6015,18,Jits_Linear_8,1,5,63,98,1542019528
6015,18,Jits_Linear_8,2,5,80,127,1542050028
6015,18,Jits_Linear_8,3,5,56,103,1542080000
6015,18,Jits_Linear_8,0,1,48,48,1542666420
6015,18,Jits_Linear_8,1,5,80,127,1542679792
6015,18,Jits_Linear_8,2,5,63,98,1542690136
6015,18,Jits_Linear_8,3,5,56,103,1542719812
6015,18,Jits_Linear_8,0,5,80,127,1543219852
6015,18,Jits_Linear_8,1,5,63,98,1543240016
6015,18,Jits_Linear_8,2,5,56,103,1543290292
6015,18,Jits_Linear_8,3,1,48,46,1543317224
6015,18,Jits_Linear_8,0,5,63,98,1543890508
6015,18,Jits_Linear_8,1,1,48,48,1543923248
6015,18,Jits_Linear_8,2,5,80,127,1543949648
6015,18,Jits_Linear_8,3,5,56,103,1543970108
6015,18,Jits_Linear_8,0,5,63,98,1544490676
6015,18,Jits_Linear_8,1,5,56,103,1544539760
6015,18,Jits_Linear_8,2,5,80,127,1544549880
6015,18,Jits_Linear_8,3,1,48,41,1544560568
6015,18,Jits_Linear_8,0,1,48,45,1545150424
6015,18,Jits_Linear_8,1,5,56,103,1545160040
6015,18,Jits_Linear_8,2,5,80,127,1545170236
6015,18,Jits_Linear_8,3,5,63,98,1545269668
6015,18,Jits_Linear_8,0,1,48,44,1545755828
6015,18,Jits_Linear_8,1,5,80,127,1545760204
6015,18,Jits_Linear_8,2,5,63,98,1545770476
6015,18,Jits_Linear_8,3,5,56,103,1545919708
6015,18,Jits_Linear_8,0,5,63,98,1546399992
6015,18,Jits_Linear_8,1,5,80,127,1546440008
6015,18,Jits_Linear_8,2,1,48,42,1546448676
6015,18,Jits_Linear_8,3,5,56,103,1546519820
6015,18,Jits_Linear_8,0,5,56,103,1547019568
6015,18,Jits_Linear_8,1,1,48,49,1547072808
6015,18,Jits_Linear_8,2,5,80,127,1547119960
6015,18,Jits_Linear_8,3,5,63,98,1547139520
6015,18,Jits_Linear_8,0,5,80,127,1547709780
6015,18,Jits_Linear_8,1,1,48,36,1547720496
6015,18,Jits_Linear_8,2,5,56,103,1547721684
6015,18,Jits_Linear_8,3,5,63,98,1547810204
6015,18,Jits_Linear_8,0,5,56,103,1548339640
6015,18,Jits_Linear_8,1,5,63,98,1548360024
6015,18,Jits_Linear_8,2,1,48,48,1548414904
6015,18,Jits_Linear_8,3,5,80,127,1548439888
6015,18,Jits_Linear_8,0,5,63,98,1548909904
6015,18,Jits_Linear_8,1,5,56,103,1549000188
6015,18,Jits_Linear_8,2,5,80,127,1549003404
6015,18,Jits_Linear_8,3,1,48,49,1549040268
6015,18,Jits_Linear_8,0,5,56,103,1549560032
6015,18,Jits_Linear_8,1,5,80,127,1549619528
6015,18,Jits_Linear_8,2,5,63,98,1549629796
6015,18,Jits_Linear_8,3,1,48,45,1549670224
6015,18,Jits_Linear_8,0,5,80,127,1550230020
6015,18,Jits_Linear_8,1,5,56,103,1550240360
6015,18,Jits_Linear_8,2,5,63,98,1550243352
6015,18,Jits_Linear_8,3,1,48,48,1550312328
6015,18,Jits_Linear_8,0,5,56,103,1550809640
6015,18,Jits_Linear_8,1,5,80,127,1550819616
6015,18,Jits_Linear_8,2,5,63,98,1550840324
6015,18,Jits_Linear_8,3,1,48,48,1550901200
6015,18,Jits_Linear_8,0,5,63,98,1551400456
6015,18,Jits_Linear_8,1,5,80,127,1551459656
6015,18,Jits_Linear_8,2,5,56,103,1551509928
6015,18,Jits_Linear_8,3,1,48,43,1551537012
6015,18,Jits_Linear_8,0,5,63,98,1552099576
6015,18,Jits_Linear_8,1,5,56,103,1552110072
6015,18,Jits_Linear_8,2,1,48,31,1552126396
6015,18,Jits_Linear_8,3,5,80,127,1552160216
6015,18,Jits_Linear_8,0,5,63,98,1552609520
6015,18,Jits_Linear_8,1,5,80,127,1552630376
6015,18,Jits_Linear_8,2,5,56,103,1552640496
6015,18,Jits_Linear_8,3,1,48,44,1552744148
6015,18,Jits_Linear_8,0,5,63,98,1553220012
6015,18,Jits_Linear_8,1,5,80,127,1553223376
6015,18,Jits_Linear_8,2,5,56,103,1553259952
6015,18,Jits_Linear_8,3,1,48,52,1553367660
6015,18,Jits_Linear_8,0,5,63,98,1553899860
6015,18,Jits_Linear_8,1,5,80,127,1553929564
6015,18,Jits_Linear_8,2,5,56,103,1553939760
6015,18,Jits_Linear_8,3,1,48,60,1553965720
6015,18,Jits_Linear_8,0,5,56,103,1554459872
6015,18,Jits_Linear_8,1,5,80,127,1554489624
6015,18,Jits_Linear_8,2,5,63,98,1554520420
6015,18,Jits_Linear_8,3,1,48,53,1554593432
6015,18,Jits_Linear_8,0,5,63,98,1555160352
6015,18,Jits_Linear_8,1,1,48,54,1555165940
6015,18,Jits_Linear_8,2,5,56,103,1555200460
6015,18,Jits_Linear_8,3,5,80,127,1555203600
6015,18,Jits_Linear_8,0,5,80,127,1555660252
6015,18,Jits_Linear_8,1,5,56,103,1555740148
6015,18,Jits_Linear_8,2,1,48,52,1555788924
6015,18,Jits_Linear_8,3,5,63,98,1555790420
6015,18,Jits_Linear_8,0,5,80,127,1556239692
6015,18,Jits_Linear_8,1,5,56,103,1556260372
6015,18,Jits_Linear_8,2,5,63,98,1556350356
6015,18,Jits_Linear_8,3,1,48,51,1556366808
6015,18,Jits_Linear_8,0,5,80,127,1556879704
6015,18,Jits_Linear_8,1,5,63,98,1556919720
6015,18,Jits_Linear_8,2,1,48,51,1556921280
6015,18,Jits_Linear_8,3,5,56,103,1556959652
6015,18,Jits_Linear_8,0,5,63,98,1557450340
6015,18,Jits_Linear_8,1,1,48,52,1557508208
6015,18,Jits_Linear_8,2,5,80,127,1557509556
6015,18,Jits_Linear_8,3,5,56,103,1557540204
6015,18,Jits_Linear_8,0,5,56,103,1558050212
6015,18,Jits_Linear_8,1,5,80,127,1558079812
6015,18,Jits_Linear_8,2,1,48,48,1558086148
6015,18,Jits_Linear_8,3,5,63,98,1558170088
6015,18,Jits_Linear_8,0,5,56,103,1558650368
6015,18,Jits_Linear_8,1,1,48,46,1558703012
6015,18,Jits_Linear_8,2,5,80,127,1558759908
6015,18,Jits_Linear_8,3,5,63,98,1558789460
6015,18,Jits_Linear_8,0,1,48,51,1559279680
6015,18,Jits_Linear_8,1,5,56,103,1559290336
6015,18,Jits_Linear_8,2,5,63,98,1559349608
6015,18,Jits_Linear_8,3,5,80,127,1559380468
6015,18,Jits_Linear_8,0,5,56,103,1559859480
6015,18,Jits_Linear_8,1,1,48,55,1559866788
6015,18,Jits_Linear_8,2,5,63,98,1559930204
6015,18,Jits_Linear_8,3,5,80,127,1559949544
6015,18,Jits_Linear_8,0,5,80,127,1560419556
6015,18,Jits_Linear_8,1,5,63,98,1560440388
6015,18,Jits_Linear_8,2,1,48,46,1560469436
6015,18,Jits_Linear_8,3,5,56,103,1560490360
6015,18,Jits_Linear_8,0,5,63,98,1561019712
6015,18,Jits_Linear_8,1,5,80,127,1561030280
6015,18,Jits_Linear_8,2,1,48,45,1561032880
6015,18,Jits_Linear_8,3,5,56,103,1561080352
6015,18,Jits_Linear_8,0,5,63,98,1561600328
6015,18,Jits_Linear_8,1,1,48,44,1561610864
6015,18,Jits_Linear_8,2,5,80,127,1561670076
6015,18,Jits_Linear_8,3,5,56,103,1561689416
6015,18,Jits_Linear_8,0,5,63,98,1562209608
6015,18,Jits_Linear_8,1,1,48,30,1562213272
6015,18,Jits_Linear_8,2,5,80,127,1562214388
6015,18,Jits_Linear_8,3,5,56,103,1562280332
6015,18,Jits_Linear_8,0,5,80,127,1562740072
6015,18,Jits_Linear_8,1,5,56,103,1562759408
6015,18,Jits_Linear_8,2,5,63,98,1562770052
6015,18,Jits_Linear_8,3,1,48,49,1562807100
6015,18,Jits_Linear_8,0,5,56,103,1563340220
6015,18,Jits_Linear_8,1,1,48,50,1563357364
6015,18,Jits_Linear_8,2,5,63,98,1563430372
6015,18,Jits_Linear_8,3,5,80,127,1563433588
6015,18,Jits_Linear_8,0,5,80,127,1563890200
6015,18,Jits_Linear_8,1,5,56,103,1563900248
6015,18,Jits_Linear_8,2,1,48,46,1563912132
6015,18,Jits_Linear_8,3,5,63,98,1563919656
6015,18,Jits_Linear_8,0,5,63,98,1564460384
6015,18,Jits_Linear_8,1,1,48,43,1564472572
6015,18,Jits_Linear_8,2,5,80,127,1564519652
6015,18,Jits_Linear_8,3,5,56,103,1564530292
6015,18,Jits_Linear_8,0,1,48,48,1565030756
6015,18,Jits_Linear_8,1,5,63,98,1565100532
6015,18,Jits_Linear_8,2,5,80,127,1565129988
6015,18,Jits_Linear_8,3,5,56,103,1565170012
6015,18,Jits_Linear_8,0,1,48,45,1565612696
6015,18,Jits_Linear_8,1,5,56,103,1565659552
6015,18,Jits_Linear_8,2,5,80,127,1565669900
6015,18,Jits_Linear_8,3,5,63,98,1565709788
6015,18,Jits_Linear_8,0,5,80,127,1566190028
6015,18,Jits_Linear_8,1,1,48,46,1566216016
6015,18,Jits_Linear_8,2,5,56,103,1566269916
6015,18,Jits_Linear_8,3,5,63,98,1566280264
6015,18,Jits_Linear_8,0,1,48,44,1566762760
6015,18,Jits_Linear_8,1,5,80,127,1566800176
6015,18,Jits_Linear_8,2,5,56,103,1566880184
6015,18,Jits_Linear_8,3,5,63,98,1566890456
6015,18,Jits_Linear_8,0,5,80,127,1567320468
6015,18,Jits_Linear_8,1,1,48,42,1567361276
6015,18,Jits_Linear_8,2,5,56,103,1567369544
6015,18,Jits_Linear_8,3,5,63,98,1567420044
6015,18,Jits_Linear_8,0,1,48,47,1567911608
6015,18,Jits_Linear_8,1,5,56,103,1567939880
6015,18,Jits_Linear_8,2,5,63,98,1567942948
6015,18,Jits_Linear_8,3,5,80,127,1567990180
6015,18,Jits_Linear_8,0,1,48,43,1568473688
6015,18,Jits_Linear_8,1,5,56,103,1568519672
6015,18,Jits_Linear_8,2,5,63,98,1568550248
6015,18,Jits_Linear_8,3,5,80,127,1568559696
6015,18,Jits_Linear_8,0,5,63,98,1569000004
6015,18,Jits_Linear_8,1,1,48,46,1569033936
6015,18,Jits_Linear_8,2,5,56,103,1569069408
6015,18,Jits_Linear_8,3,5,80,127,1569119536
6015,18,Jits_Linear_8,0,5,63,98,1569589912
6015,18,Jits_Linear_8,1,5,56,103,1569600032
6015,18,Jits_Linear_8,2,5,80,127,1569603176
6015,18,Jits_Linear_8,3,1,48,46,1569609376
6015,18,Jits_Linear_8,0,5,80,127,1570090324
6015,18,Jits_Linear_8,1,1,48,47,1570133600
6015,18,Jits_Linear_8,2,5,56,103,1570149964
6015,18,Jits_Linear_8,3,5,63,98,1570239856
6015,18,Jits_Linear_8,0,5,80,127,1570640288
6015,18,Jits_Linear_8,1,1,48,43,1570720880
6015,18,Jits_Linear_8,2,5,56,103,1570739708
6015,18,Jits_Linear_8,3,5,63,98,1570779424
6015,18,Jits_Linear_8,0,5,56,103,1571240300
6015,18,Jits_Linear_8,1,5,63,98,1571259936
6015,18,Jits_Linear_8,2,1,48,44,1571294968
6015,18,Jits_Linear_8,3,5,80,127,1571299868
6015,18,Jits_Linear_8,0,5,63,98,1571759400
6015,18,Jits_Linear_8,1,5,56,103,1571780008
6015,18,Jits_Linear_8,2,1,48,41,1571840912
6015,18,Jits_Linear_8,3,5,80,127,1571880420
6015,18,Jits_Linear_8,0,5,63,98,1572290016
6015,18,Jits_Linear_8,1,1,48,42,1572343656
6015,18,Jits_Linear_8,2,5,80,127,1572399580
6015,18,Jits_Linear_8,3,5,56,103,1572430152
6015,18,Jits_Linear_8,0,5,56,103,1572850108
6015,18,Jits_Linear_8,1,5,63,98,1572879860
6015,18,Jits_Linear_8,2,1,48,45,1572922392
6015,18,Jits_Linear_8,3,5,80,127,1572930056
6015,18,Jits_Linear_8,0,5,63,98,1573359992
6015,18,Jits_Linear_8,1,5,56,103,1573389892
6015,18,Jits_Linear_8,2,1,48,44,1573439344
6015,18,Jits_Linear_8,3,5,80,127,1573440908
6015,18,Jits_Linear_8,0,5,56,103,1573930388
6015,18,Jits_Linear_8,1,5,63,98,1573949804
6015,18,Jits_Linear_8,2,1,48,49,1574001616
6015,18,Jits_Linear_8,3,5,80,127,1574029740
6015,18,Jits_Linear_8,0,5,63,98,1574440340
6015,18,Jits_Linear_8,1,5,56,103,1574499688
6015,18,Jits_Linear_8,2,1,48,45,1574526696
6015,18,Jits_Linear_8,3,5,80,127,1574530404
6015,18,Jits_Linear_8,0,5,56,103,1575019884
6015,18,Jits_Linear_8,1,1,48,44,1575057008
6015,18,Jits_Linear_8,2,5,80,127,1575080344
6015,18,Jits_Linear_8,3,5,63,98,1575120284
6015,18,Jits_Linear_8,0,5,63,98,1575529916
6015,18,Jits_Linear_8,1,5,56,103,1575590308
6015,18,Jits_Linear_8,2,5,80,127,1575659916
6015,18,Jits_Linear_8,3,1,48,35,1575677856
6015,18,Jits_Linear_8,0,5,56,103,1576140156
6015,18,Jits_Linear_8,1,5,63,98,1576150352
6015,18,Jits_Linear_8,2,5,80,127,1576153936
6015,18,Jits_Linear_8,3,1,48,51,1576172948
6015,18,Jits_Linear_8,0,5,63,98,1576610172
6015,18,Jits_Linear_8,1,1,48,46,1576648816
6015,18,Jits_Linear_8,2,5,56,103,1576669808
6015,18,Jits_Linear_8,3,5,80,127,1576672800
6015,18,Jits_Linear_8,0,5,63,98,1577120108
6015,18,Jits_Linear_8,1,5,80,127,1577149784
6015,18,Jits_Linear_8,2,5,56,103,1577170244
6015,18,Jits_Linear_8,3,1,48,45,1577180408
6015,18,Jits_Linear_8,0,1,48,50,1577648168
6015,18,Jits_Linear_8,1,5,56,103,1577649812
6015,18,Jits_Linear_8,2,5,63,98,1577699796
6015,18,Jits_Linear_8,3,5,80,127,1577779672
6015,18,Jits_Linear_8,0,5,80,127,1578150392
6015,18,Jits_Linear_8,1,1,48,46,1578180560
6015,18,Jits_Linear_8,2,5,63,98,1578190400
6015,18,Jits_Linear_8,3,5,56,103,1578209736
6015,18,Jits_Linear_8,4,1,48,37,1578351380
6015,18,Jits_Linear_8,0,5,56,103,1578739988
6015,18,Jits_Linear_8,1,5,80,127,1578750256
6015,18,Jits_Linear_8,2,5,63,98,1578769744
6015,18,Jits_Linear_8,3,1,48,53,1578786716
6015,18,Jits_Linear_8,0,5,56,103,1579239880
6015,18,Jits_Linear_8,1,5,63,98,1579290036
6015,18,Jits_Linear_8,2,1,48,42,1579293080
6015,18,Jits_Linear_8,3,5,80,127,1579319780
6015,18,Jits_Linear_8,0,5,56,103,1579709908
6015,18,Jits_Linear_8,1,5,63,98,1579720104
6015,18,Jits_Linear_8,2,5,80,127,1579770184
6015,18,Jits_Linear_8,3,1,48,44,1579825216
6015,18,Jits_Linear_8,0,5,56,103,1580219708
6015,18,Jits_Linear_8,1,5,80,127,1580222776
6015,18,Jits_Linear_8,2,1,48,40,1580297088
6015,18,Jits_Linear_8,3,5,63,98,1580379908
6015,18,Jits_Linear_8,0,5,63,98,1580750184
6015,18,Jits_Linear_8,1,5,56,103,1580819896
6015,18,Jits_Linear_8,2,1,48,44,1580844812
6015,18,Jits_Linear_8,3,5,80,127,1580859752
6015,18,Jits_Linear_8,0,5,63,98,1581300016
6015,18,Jits_Linear_8,1,1,48,47,1581335420
6015,18,Jits_Linear_8,2,5,56,103,1581390216
6015,18,Jits_Linear_8,3,5,80,127,1581393360
6015,18,Jits_Linear_8,0,5,56,103,1581789696
6015,18,Jits_Linear_8,1,1,48,40,1581855544
6015,18,Jits_Linear_8,2,5,63,98,1581879852
6015,18,Jits_Linear_8,3,5,80,127,1581890048
6015,18,Jits_Linear_8,0,5,56,103,1582279952
6015,18,Jits_Linear_8,1,5,63,98,1582330552
6015,18,Jits_Linear_8,2,1,48,40,1582358492
6015,18,Jits_Linear_8,3,5,80,127,1582360072
6015,18,Jits_Linear_8,0,1,48,44,1582824564
6015,18,Jits_Linear_8,1,5,63,98,1582859832
6015,18,Jits_Linear_8,2,5,80,127,1582870028
6015,18,Jits_Linear_8,3,5,56,103,1582930404
6015,18,Jits_Linear_8,0,5,63,98,1583279552
6015,18,Jits_Linear_8,1,5,80,127,1583339872
6015,18,Jits_Linear_8,2,1,48,40,1583350056
6015,18,Jits_Linear_8,3,5,56,103,1583379896
6015,18,Jits_Linear_8,0,1,48,38,1583844068
6015,18,Jits_Linear_8,1,5,56,103,1583879792
6015,18,Jits_Linear_8,2,5,80,127,1583899952
6015,18,Jits_Linear_8,3,5,63,98,1583919664
6015,18,Jits_Linear_8,0,5,63,98,1584300488
6015,18,Jits_Linear_8,1,5,56,103,1584319900
6015,18,Jits_Linear_8,2,5,80,127,1584359916
6015,18,Jits_Linear_8,3,1,48,32,1584361400
6015,18,Jits_Linear_8,0,5,63,98,1584819720
6015,18,Jits_Linear_8,1,1,48,42,1584850444
6015,18,Jits_Linear_8,2,5,80,127,1584851780
6015,18,Jits_Linear_8,3,5,56,103,1584869700
6015,18,Jits_Linear_8,0,5,80,127,1585289576
6015,18,Jits_Linear_8,1,1,48,40,1585337264
6015,18,Jits_Linear_8,2,5,56,103,1585339772
6015,18,Jits_Linear_8,3,5,63,98,1585400040
6015,18,Jits_Linear_8,0,5,63,98,1585769788
6015,18,Jits_Linear_8,1,1,48,43,1585886484
6015,18,Jits_Linear_8,2,5,56,103,1585889740
6015,18,Jits_Linear_8,3,5,80,127,1585920560
6015,18,Jits_Linear_8,0,5,80,127,1586300412
6015,18,Jits_Linear_8,1,5,63,98,1586319680
6015,18,Jits_Linear_8,2,5,56,103,1586390628
6015,18,Jits_Linear_8,3,1,48,38,1586406632
6015,18,Jits_Linear_8,0,5,63,98,1586810224
6015,18,Jits_Linear_8,1,5,56,103,1586819596
6015,18,Jits_Linear_8,2,1,48,40,1586883472
6015,18,Jits_Linear_8,3,5,80,127,1586900508
6015,18,Jits_Linear_8,0,5,56,103,1587360032
6015,18,Jits_Linear_8,1,5,80,127,1587389860
6015,18,Jits_Linear_8,2,1,48,41,1587395148
6015,18,Jits_Linear_8,3,5,63,98,1587399972
6015,18,Jits_Linear_8,0,9999,9999,9999,1476977788
6015,18,Jits_Linear_8,1,9999,9999,9999,1477797948
6015,18,Jits_Linear_8,2,9999,9999,9999,1478617208
6015,18,Jits_Linear_8,3,9999,9999,9999,1479437376
6015,18,Jits_Linear_8,4,9999,9999,9999,1480257664
6015,18,Jits_Linear_8,5,9999,9999,9999,1481067608
6015,18,Jits_Linear_8,6,9999,9999,9999,1481877564
6015,18,Jits_Linear_8,7,9999,9999,9999,1482687596
6015,18,Jits_Linear_8,8,9999,9999,9999,1483497560
6015,18,Jits_Linear_8,9,9999,9999,9999,1484307580
6015,18,Jits_Linear_8,10,9999,9999,9999,1485107284
6015,18,Jits_Linear_8,11,9999,9999,9999,1485908032
6015,18,Jits_Linear_8,12,9999,9999,9999,1486707800
6015,18,Jits_Linear_8,13,9999,9999,9999,1487507568
6015,18,Jits_Linear_8,14,9999,9999,9999,1488307308
6015,18,Jits_Linear_8,15,9999,9999,9999,1489097848
6015,18,Jits_Linear_8,16,9999,9999,9999,1489887324
6015,18,Jits_Linear_8,17,9999,9999,9999,1490677832
6015,18,Jits_Linear_8,18,9999,9999,9999,1491467328
6015,18,Jits_Linear_8,19,9999,9999,9999,1492257880
6015,18,Jits_Linear_8,20,9999,9999,9999,1493037156
6015,18,Jits_Linear_8,21,9999,9999,9999,1493817424
6015,18,Jits_Linear_8,22,9999,9999,9999,1494597704
6015,18,Jits_Linear_8,23,9999,9999,9999,1495377996
6015,18,Jits_Linear_8,24,9999,9999,9999,1496157296
6015,18,Jits_Linear_8,25,9999,9999,9999,1496927308
6015,18,Jits_Linear_8,26,9999,9999,9999,1497697396
6015,18,Jits_Linear_8,27,9999,9999,9999,1498467408
6015,18,Jits_Linear_8,28,9999,9999,9999,1499237504
6015,18,Jits_Linear_8,29,9999,9999,9999,1500007536
6015,18,Jits_Linear_8,30,9999,9999,9999,1500767352
6015,18,Jits_Linear_8,31,9999,9999,9999,1501527152
6015,18,Jits_Linear_8,32,9999,9999,9999,1502287964
6015,18,Jits_Linear_8,33,9999,9999,9999,1503047792
6015,18,Jits_Linear_8,34,9999,9999,9999,1503807556
6015,18,Jits_Linear_8,35,9999,9999,9999,1504557140
6015,18,Jits_Linear_8,36,9999,9999,9999,1505307728
6015,18,Jits_Linear_8,37,9999,9999,9999,1506057292
6015,18,Jits_Linear_8,38,9999,9999,9999,1506807896
6015,18,Jits_Linear_8,39,9999,9999,9999,1507557452
6015,18,Jits_Linear_8,40,9999,9999,9999,1508297800
6015,18,Jits_Linear_8,41,9999,9999,9999,1509037108
6015,18,Jits_Linear_8,42,9999,9999,9999,1509777496
6015,18,Jits_Linear_8,43,9999,9999,9999,1510517844
6015,18,Jits_Linear_8,44,9999,9999,9999,1511257200
6015,18,Jits_Linear_8,45,9999,9999,9999,1511987284
6015,18,Jits_Linear_8,46,9999,9999,9999,1512717364
6015,18,Jits_Linear_8,47,9999,9999,9999,1513447540
6015,18,Jits_Linear_8,48,9999,9999,9999,1514177624
6015,18,Jits_Linear_8,49,9999,9999,9999,1514907716
6015,18,Jits_Linear_8,50,9999,9999,9999,1515627604
6015,18,Jits_Linear_8,51,9999,9999,9999,1516347504
6015,18,Jits_Linear_8,52,9999,9999,9999,1517067340
6015,18,Jits_Linear_8,53,9999,9999,9999,1517787212
6015,18,Jits_Linear_8,54,9999,9999,9999,1518507096
6015,18,Jits_Linear_8,55,9999,9999,9999,1519217784
6015,18,Jits_Linear_8,56,9999,9999,9999,1519927412
6015,18,Jits_Linear_8,57,9999,9999,9999,1520638012
6015,18,Jits_Linear_8,58,9999,9999,9999,1521347688
6015,18,Jits_Linear_8,59,9999,9999,9999,1522057316
6015,18,Jits_Linear_8,60,9999,9999,9999,1522757724
6015,18,Jits_Linear_8,61,9999,9999,9999,1523457112
6015,18,Jits_Linear_8,62,9999,9999,9999,1524157508
6015,18,Jits_Linear_8,63,9999,9999,9999,1524857984
6015,18,Jits_Linear_8,64,9999,9999,9999,1525557328
6015,18,Jits_Linear_8,65,9999,9999,9999,1526247528
6015,18,Jits_Linear_8,66,9999,9999,9999,1526937676
6015,18,Jits_Linear_8,67,9999,9999,9999,1527627900
6015,18,Jits_Linear_8,68,9999,9999,9999,1528318036
6015,18,Jits_Linear_8,69,9999,9999,9999,1529007204
6015,18,Jits_Linear_8,70,9999,9999,9999,1529687096
6015,18,Jits_Linear_8,71,9999,9999,9999,1530368112
6015,18,Jits_Linear_8,72,9999,9999,9999,1531057264
6015,18,Jits_Linear_8,73,9999,9999,9999,1531737168
6015,18,Jits_Linear_8,74,9999,9999,9999,1532417076
6015,18,Jits_Linear_8,75,9999,9999,9999,1533087800
6015,18,Jits_Linear_8,76,9999,9999,9999,1533757504
6015,18,Jits_Linear_8,77,9999,9999,9999,1534427196
6015,18,Jits_Linear_8,78,9999,9999,9999,1535097944
6015,18,Jits_Linear_8,79,9999,9999,9999,1535767656
6015,18,Jits_Linear_8,80,9999,9999,9999,1536427080
6015,18,Jits_Linear_8,81,9999,9999,9999,1537087552
6015,18,Jits_Linear_8,82,9999,9999,9999,1537748080
6015,18,Jits_Linear_8,83,9999,9999,9999,1538407508
6015,18,Jits_Linear_8,84,9999,9999,9999,1539067992
6015,18,Jits_Linear_8,85,9999,9999,9999,1539717228
6015,18,Jits_Linear_8,86,9999,9999,9999,1540367456
6015,18,Jits_Linear_8,87,9999,9999,9999,1541017720
6015,18,Jits_Linear_8,88,9999,9999,9999,1541667928
6015,18,Jits_Linear_8,89,9999,9999,9999,1542317152
6015,18,Jits_Linear_8,90,9999,9999,9999,1542957116
6015,18,Jits_Linear_8,91,9999,9999,9999,1543597112
6015,18,Jits_Linear_8,92,9999,9999,9999,1544237152
6015,18,Jits_Linear_8,93,9999,9999,9999,1544877152
6015,18,Jits_Linear_8,94,9999,9999,9999,1545517176
6015,18,Jits_Linear_8,95,9999,9999,9999,1546147960
6015,18,Jits_Linear_8,96,9999,9999,9999,1546777724
6015,18,Jits_Linear_8,97,9999,9999,9999,1547407464
6015,18,Jits_Linear_8,98,9999,9999,9999,1548037244
6015,18,Jits_Linear_8,99,9999,9999,9999,1548667976
6015,18,Jits_Linear_8,100,9999,9999,9999,1549287528
6015,18,Jits_Linear_8,101,9999,9999,9999,1549908072
6015,18,Jits_Linear_8,102,9999,9999,9999,1550527552
6015,18,Jits_Linear_8,103,9999,9999,9999,1551147068
6015,18,Jits_Linear_8,104,9999,9999,9999,1551767676
6015,18,Jits_Linear_8,105,9999,9999,9999,1552377968
6015,18,Jits_Linear_8,106,9999,9999,9999,1552987244
6015,18,Jits_Linear_8,107,9999,9999,9999,1553597556
6015,18,Jits_Linear_8,108,9999,9999,9999,1554207840
6015,18,Jits_Linear_8,109,9999,9999,9999,1554817124
6015,18,Jits_Linear_8,110,9999,9999,9999,1555417212
6015,18,Jits_Linear_8,111,9999,9999,9999,1556017240
6015,18,Jits_Linear_8,112,9999,9999,9999,1556617320
6015,18,Jits_Linear_8,113,9999,9999,9999,1557217408
6015,18,Jits_Linear_8,114,9999,9999,9999,1557817436
6015,18,Jits_Linear_8,115,9999,9999,9999,1558407244
6015,18,Jits_Linear_8,116,9999,9999,9999,1558998116
6015,18,Jits_Linear_8,117,9999,9999,9999,1559597112
6015,18,Jits_Linear_8,118,9999,9999,9999,1560187968
6015,18,Jits_Linear_8,119,9999,9999,9999,1560777784
6015,18,Jits_Linear_8,120,9999,9999,9999,1561357436
6015,18,Jits_Linear_8,121,9999,9999,9999,1561938028
6015,18,Jits_Linear_8,122,9999,9999,9999,1562517560
6015,18,Jits_Linear_8,123,9999,9999,9999,1563097172
6015,18,Jits_Linear_8,124,9999,9999,9999,1563677792
6015,18,Jits_Linear_8,125,9999,9999,9999,1564247152
6015,18,Jits_Linear_8,126,9999,9999,9999,1564817492
6015,18,Jits_Linear_8,127,9999,9999,9999,1565387900
6015,18,Jits_Linear_8,128,9999,9999,9999,1565957208
6015,18,Jits_Linear_8,129,9999,9999,9999,1566527608
6015,18,Jits_Linear_8,130,9999,9999,9999,1567087696
6015,18,Jits_Linear_8,131,9999,9999,9999,1567647836
6015,18,Jits_Linear_8,132,9999,9999,9999,1568207980
6015,18,Jits_Linear_8,133,9999,9999,9999,1568768080
6015,18,Jits_Linear_8,134,9999,9999,9999,1569337436
6015,18,Jits_Linear_8,135,9999,9999,9999,1569887300
6015,18,Jits_Linear_8,136,9999,9999,9999,1570437248
6015,18,Jits_Linear_8,137,9999,9999,9999,1570987060
6015,18,Jits_Linear_8,138,9999,9999,9999,1571537996
6015,18,Jits_Linear_8,139,9999,9999,9999,1572087908
6015,18,Jits_Linear_8,140,9999,9999,9999,1572627528
6015,18,Jits_Linear_8,141,9999,9999,9999,1573167212
6015,18,Jits_Linear_8,142,9999,9999,9999,1573707880
6015,18,Jits_Linear_8,143,9999,9999,9999,1574247492
6015,18,Jits_Linear_8,144,9999,9999,9999,1574787184
6015,18,Jits_Linear_8,145,9999,9999,9999,1575317584
6015,18,Jits_Linear_8,146,9999,9999,9999,1575848040
6015,18,Jits_Linear_8,147,9999,9999,9999,1576377460
6015,18,Jits_Linear_8,148,9999,9999,9999,1576907860
6015,18,Jits_Linear_8,149,9999,9999,9999,1577437280
6015,18,Jits_Linear_8,150,9999,9999,9999,1577957488
6015,18,Jits_Linear_8,151,9999,9999,9999,1578477684
6015,18,Jits_Linear_8,152,9999,9999,9999,1578997828
6015,18,Jits_Linear_8,153,9999,9999,9999,1579518056
6015,18,Jits_Linear_8,154,9999,9999,9999,1580037220
6015,18,Jits_Linear_8,155,9999,9999,9999,1580547168
6015,18,Jits_Linear_8,156,9999,9999,9999,1581057128
6015,18,Jits_Linear_8,157,9999,9999,9999,1581568112
6015,18,Jits_Linear_8,158,9999,9999,9999,1582087276
6015,18,Jits_Linear_8,159,9999,9999,9999,1582597232
6015,18,Jits_Linear_8,160,9999,9999,9999,1583097980
6015,18,Jits_Linear_8,161,9999,9999,9999,1583597648
6015,18,Jits_Linear_8,162,9999,9999,9999,1584097388
6015,18,Jits_Linear_8,163,9999,9999,9999,1584598108
6015,18,Jits_Linear_8,164,9999,9999,9999,1585108052
6015,18,Jits_Linear_8,165,9999,9999,9999,1585597540
6015,18,Jits_Linear_8,166,9999,9999,9999,1586088020
6015,18,Jits_Linear_8,167,9999,9999,9999,1586577512
6015,18,Jits_Linear_8,168,9999,9999,9999,1587067992
6015,18,Jits_Linear_8,169,9999,9999,9999,1587557496
6016,19,Jits_Linear_5,0,5,56,103,1597721908
6016,19,Jits_Linear_5,1,5,63,98,1597725304
6016,19,Jits_Linear_5,2,5,80,127,1597728348
6016,19,Jits_Linear_5,0,5,56,103,1598202144
6016,19,Jits_Linear_5,1,5,63,98,1598205316
6016,19,Jits_Linear_5,2,5,80,127,1598208440
6016,19,Jits_Linear_5,0,5,56,103,1598681544
6016,19,Jits_Linear_5,1,5,80,127,1598691892
6016,19,Jits_Linear_5,2,5,63,98,1598712376
6016,19,Jits_Linear_5,0,5,63,98,1599111532
6016,19,Jits_Linear_5,1,5,80,127,1599142256
6016,19,Jits_Linear_5,2,5,56,103,1599151404
6016,19,Jits_Linear_5,0,5,80,127,1599652304
6016,19,Jits_Linear_5,1,5,56,103,1599661308
6016,19,Jits_Linear_5,2,5,63,98,1599692180
6016,19,Jits_Linear_5,0,5,63,98,1600131372
6016,19,Jits_Linear_5,1,5,56,103,1600162320
6016,19,Jits_Linear_5,2,5,80,127,1600172368
6016,19,Jits_Linear_5,0,5,56,103,1600571680
6016,19,Jits_Linear_5,1,5,63,98,1600622032
6016,19,Jits_Linear_5,2,5,80,127,1600642344
6016,19,Jits_Linear_5,0,5,80,127,1601062124
6016,19,Jits_Linear_5,1,5,63,98,1601112400
6016,19,Jits_Linear_5,2,5,56,103,1601152416
6016,19,Jits_Linear_5,0,5,56,103,1601551596
6016,19,Jits_Linear_5,1,5,63,98,1601581420
6016,19,Jits_Linear_5,2,1,48,57,1601590236
6016,19,Jits_Linear_5,3,5,80,127,1601652368
6016,19,Jits_Linear_5,0,5,56,103,1602042304
6016,19,Jits_Linear_5,1,1,48,50,1602059280
6016,19,Jits_Linear_5,2,5,80,127,1602101720
6016,19,Jits_Linear_5,3,5,63,98,1602132292
6016,19,Jits_Linear_5,0,5,56,103,1602542232
6016,19,Jits_Linear_5,1,5,63,98,1602552280
6016,19,Jits_Linear_5,2,5,80,127,1602592368
6016,19,Jits_Linear_5,3,1,48,39,1602597208
6016,19,Jits_Linear_5,0,5,63,98,1603032468
6016,19,Jits_Linear_5,1,1,48,26,1603094500
6016,19,Jits_Linear_5,2,5,80,127,1603112360
6016,19,Jits_Linear_5,3,5,56,103,1603121512
6016,19,Jits_Linear_5,0,1,48,50,1603552056
6016,19,Jits_Linear_5,1,5,63,98,1603582304
6016,19,Jits_Linear_5,2,5,56,103,1603622160
6016,19,Jits_Linear_5,3,5,80,127,1603625456
6016,19,Jits_Linear_5,0,1,48,52,1604015544
6016,19,Jits_Linear_5,1,5,56,103,1604042244
6016,19,Jits_Linear_5,2,5,63,98,1604052220
6016,19,Jits_Linear_5,3,5,80,127,1604092256
6016,19,Jits_Linear_5,0,1,48,55,1604484208
6016,19,Jits_Linear_5,1,5,56,103,1604531584
6016,19,Jits_Linear_5,2,5,63,98,1604534724
6016,19,Jits_Linear_5,3,5,80,127,1604552192
6016,19,Jits_Linear_5,4,1,48,32,1604719300
6016,19,Jits_Linear_5,0,1,48,35,1604859084
6016,19,Jits_Linear_5,1,5,80,127,1605051964
6016,19,Jits_Linear_5,2,5,56,103,1605062088
6016,19,Jits_Linear_5,3,5,63,98,1605131572
6016,19,Jits_Linear_5,0,1,48,29,1605382908
6016,19,Jits_Linear_5,1,5,63,98,1605551432
6016,19,Jits_Linear_5,2,5,56,103,1605572040
6016,19,Jits_Linear_5,3,5,80,127,1605652008
6016,19,Jits_Linear_5,0,1,48,38,1606006968
6016,19,Jits_Linear_5,1,5,56,103,1606071584
6016,19,Jits_Linear_5,2,5,80,127,1606111588
6016,19,Jits_Linear_5,3,5,63,98,1606121856
6016,19,Jits_Linear_5,0,1,48,46,1606531660
6016,19,Jits_Linear_5,1,5,80,127,1606572516
6016,19,Jits_Linear_5,2,5,63,98,1606602268
6016,19,Jits_Linear_5,3,5,56,103,1606642144
6016,19,Jits_Linear_5,0,1,48,44,1607095776
6016,19,Jits_Linear_5,1,5,56,103,1607102024
6016,19,Jits_Linear_5,2,5,63,98,1607131480
6016,19,Jits_Linear_5,3,5,80,127,1607181708
6016,19,Jits_Linear_5,0,5,80,127,1607621952
6016,19,Jits_Linear_5,1,1,48,46,1607662436
6016,19,Jits_Linear_5,2,5,56,103,1607663552
6016,19,Jits_Linear_5,3,5,63,98,1607672180
6016,19,Jits_Linear_5,0,5,80,127,1608121648
6016,19,Jits_Linear_5,1,5,63,98,1608161512
6016,19,Jits_Linear_5,2,1,48,52,1608213804
6016,19,Jits_Linear_5,3,5,56,103,1608221996
6016,19,Jits_Linear_5,0,5,56,103,1608642020
6016,19,Jits_Linear_5,1,5,80,127,1608652292
6016,19,Jits_Linear_5,2,5,63,98,1608732188
6016,19,Jits_Linear_5,3,1,48,51,1608754192
6016,19,Jits_Linear_5,0,5,80,127,1609162028
6016,19,Jits_Linear_5,1,5,63,98,1609221400
6016,19,Jits_Linear_5,2,1,48,33,1609231264
6016,19,Jits_Linear_5,3,5,56,103,1609252192
6016,19,Jits_Linear_5,0,5,56,103,1609682256
6016,19,Jits_Linear_5,1,5,80,127,1609741628
6016,19,Jits_Linear_5,2,1,48,46,1609770524
6016,19,Jits_Linear_5,3,5,63,98,1609781784
6016,19,Jits_Linear_5,0,5,56,103,1610262004
6016,19,Jits_Linear_5,1,5,63,98,1610271968
6016,19,Jits_Linear_5,2,5,80,127,1610275412
6016,19,Jits_Linear_5,3,1,48,40,1610282960
6016,19,Jits_Linear_5,0,5,80,127,1610742216
6016,19,Jits_Linear_5,1,1,48,43,1610800932
6016,19,Jits_Linear_5,2,5,63,98,1610832124
6016,19,Jits_Linear_5,3,5,56,103,1610841572
6016,19,Jits_Linear_5,0,5,56,103,1611271500
6016,19,Jits_Linear_5,1,5,63,98,1611274748
6016,19,Jits_Linear_5,2,5,80,127,1611277868
6016,19,Jits_Linear_5,3,1,48,41,1611316580
6016,19,Jits_Linear_5,0,5,80,127,1611821392
6016,19,Jits_Linear_5,1,1,48,35,1611863472
6016,19,Jits_Linear_5,2,5,63,98,1611871888
6016,19,Jits_Linear_5,3,5,56,103,1611902316
6016,19,Jits_Linear_5,0,5,56,103,1612332332
6016,19,Jits_Linear_5,1,5,80,127,1612341556
6016,19,Jits_Linear_5,2,5,63,98,1612412212
6016,19,Jits_Linear_5,3,1,48,35,1612451072
6016,19,Jits_Linear_5,0,5,56,103,1612872116
6016,19,Jits_Linear_5,1,5,63,98,1612891380
6016,19,Jits_Linear_5,2,5,80,127,1612951848
6016,19,Jits_Linear_5,3,1,48,18,1612981420
6016,19,Jits_Linear_5,0,5,80,127,1613401412
6016,19,Jits_Linear_5,1,5,63,98,1613472068
6016,19,Jits_Linear_5,2,5,56,103,1613491780
6016,19,Jits_Linear_5,3,1,48,41,1613524788
6016,19,Jits_Linear_5,0,5,80,127,1613961724
6016,19,Jits_Linear_5,1,5,56,103,1613971772
6016,19,Jits_Linear_5,2,5,63,98,1613981972
6016,19,Jits_Linear_5,3,1,48,62,1614030416
6016,19,Jits_Linear_5,0,5,80,127,1614491992
6016,19,Jits_Linear_5,1,5,56,103,1614511480
6016,19,Jits_Linear_5,2,1,48,28,1614543740
6016,19,Jits_Linear_5,3,5,63,98,1614582076
6016,19,Jits_Linear_5,0,5,56,103,1615041964
6016,19,Jits_Linear_5,1,1,48,42,1615067556
6016,19,Jits_Linear_5,2,5,80,127,1615071708
6016,19,Jits_Linear_5,3,5,63,98,1615091968
6016,19,Jits_Linear_5,0,1,48,42,1615563656
6016,19,Jits_Linear_5,1,5,63,98,1615581668
6016,19,Jits_Linear_5,2,5,56,103,1615642088
6016,19,Jits_Linear_5,3,5,80,127,1615671824
6016,19,Jits_Linear_5,0,5,63,98,1616122296
6016,19,Jits_Linear_5,1,5,80,127,1616125660
6016,19,Jits_Linear_5,2,1,48,38,1616133288
6016,19,Jits_Linear_5,3,5,56,103,1616212272
6016,19,Jits_Linear_5,0,5,56,103,1616691728
6016,19,Jits_Linear_5,1,1,48,44,1616693368
6016,19,Jits_Linear_5,2,5,63,98,1616722296
6016,19,Jits_Linear_5,3,5,80,127,1616762232
6016,19,Jits_Linear_5,0,1,48,46,1617222336
6016,19,Jits_Linear_5,1,5,63,98,1617241548
6016,19,Jits_Linear_5,2,5,56,103,1617282384
6016,19,Jits_Linear_5,3,5,80,127,1617301872
6016,19,Jits_Linear_5,0,5,63,98,1617801776
6016,19,Jits_Linear_5,1,1,48,30,1617808184
6016,19,Jits_Linear_5,2,5,56,103,1617841636
6016,19,Jits_Linear_5,3,5,80,127,1617851908
6016,19,Jits_Linear_5,0,5,80,127,1618332032
6016,19,Jits_Linear_5,1,1,48,47,1618334700
6016,19,Jits_Linear_5,2,5,63,98,1618401712
6016,19,Jits_Linear_5,3,5,56,103,1618422048
6016,19,Jits_Linear_5,0,5,56,103,1618881860
6016,19,Jits_Linear_5,1,5,80,127,1618902396
6016,19,Jits_Linear_5,2,5,63,98,1618942284
6016,19,Jits_Linear_5,3,1,48,41,1618949144
6016,19,Jits_Linear_5,0,5,63,98,1619452160
6016,19,Jits_Linear_5,1,1,48,53,1619460976
6016,19,Jits_Linear_5,2,5,80,127,1619471644
6016,19,Jits_Linear_5,3,5,56,103,1619511804
6016,19,Jits_Linear_5,0,1,48,50,1619982976
6016,19,Jits_Linear_5,1,5,63,98,1620012524
6016,19,Jits_Linear_5,2,5,56,103,1620031788
6016,19,Jits_Linear_5,3,5,80,127,1620042060
6016,19,Jits_Linear_5,0,1,48,42,1620541780
6016,19,Jits_Linear_5,1,5,80,127,1620571772
6016,19,Jits_Linear_5,2,5,56,103,1620591860
6016,19,Jits_Linear_5,3,5,63,98,1620621832
6016,19,Jits_Linear_5,0,1,48,44,1621108728
6016,19,Jits_Linear_5,1,5,56,103,1621211624
6016,19,Jits_Linear_5,2,5,80,127,1621214912
6016,19,Jits_Linear_5,3,5,63,98,1621231960
6016,19,Jits_Linear_5,0,5,63,98,1621702036
6016,19,Jits_Linear_5,1,5,56,103,1621731716
6016,19,Jits_Linear_5,2,1,48,28,1621758672
6016,19,Jits_Linear_5,3,5,80,127,1621792048
6016,19,Jits_Linear_5,0,1,48,41,1622305704
6016,19,Jits_Linear_5,1,5,63,98,1622352116
6016,19,Jits_Linear_5,2,5,56,103,1622361564
6016,19,Jits_Linear_5,3,5,80,127,1622371836
6016,19,Jits_Linear_5,0,5,56,103,1622872568
6016,19,Jits_Linear_5,1,5,80,127,1622902096
6016,19,Jits_Linear_5,2,5,63,98,1622912664
6016,19,Jits_Linear_5,3,1,48,46,1622914604
6016,19,Jits_Linear_5,0,1,48,43,1623472340
6016,19,Jits_Linear_5,1,5,63,98,1623481656
6016,19,Jits_Linear_5,2,5,56,103,1623492000
6016,19,Jits_Linear_5,3,5,80,127,1623512532
6016,19,Jits_Linear_5,0,5,56,103,1623981500
6016,19,Jits_Linear_5,1,5,63,98,1624041816
6016,19,Jits_Linear_5,2,5,80,127,1624045132
6016,19,Jits_Linear_5,3,1,48,47,1624050284
6016,19,Jits_Linear_5,0,1,48,38,1624573860
6016,19,Jits_Linear_5,1,5,80,127,1624591720
6016,19,Jits_Linear_5,2,5,56,103,1624601844
6016,19,Jits_Linear_5,3,5,63,98,1624671600
6016,19,Jits_Linear_5,0,5,80,127,1625161992
6016,19,Jits_Linear_5,1,1,48,44,1625170508
6016,19,Jits_Linear_5,2,5,56,103,1625231596
6016,19,Jits_Linear_5,3,5,63,98,1625242092
6016,19,Jits_Linear_5,0,1,48,50,1625779756
6016,19,Jits_Linear_5,1,5,63,98,1625781568
6016,19,Jits_Linear_5,2,5,56,103,1625791764
6016,19,Jits_Linear_5,3,5,80,127,1625812444
6016,19,Jits_Linear_5,0,5,80,127,1626322240
6016,19,Jits_Linear_5,1,1,48,49,1626329020
6016,19,Jits_Linear_5,2,5,63,98,1626381680
6016,19,Jits_Linear_5,3,5,56,103,1626421472
6016,19,Jits_Linear_5,0,1,48,52,1626931252
6016,19,Jits_Linear_5,1,5,56,103,1626952024
6016,19,Jits_Linear_5,2,5,63,98,1626962224
6016,19,Jits_Linear_5,3,5,80,127,1627002308
6016,19,Jits_Linear_5,0,5,56,103,1627501988
6016,19,Jits_Linear_5,1,5,80,127,1627531520
6016,19,Jits_Linear_5,2,1,48,46,1627547744
6016,19,Jits_Linear_5,3,5,63,98,1627581788
6016,19,Jits_Linear_5,0,5,56,103,1628131608
6016,19,Jits_Linear_5,1,1,48,46,1628132944
6016,19,Jits_Linear_5,2,5,63,98,1628171568
6016,19,Jits_Linear_5,3,5,80,127,1628174932
6016,19,Jits_Linear_5,0,1,48,52,1628706288
6016,19,Jits_Linear_5,1,5,56,103,1628721380
6016,19,Jits_Linear_5,2,5,63,98,1628731728
6016,19,Jits_Linear_5,3,5,80,127,1628752336
6016,19,Jits_Linear_5,0,5,56,103,1629272312
6016,19,Jits_Linear_5,1,5,80,127,1629275384
6016,19,Jits_Linear_5,2,1,48,47,1629282256
6016,19,Jits_Linear_5,3,5,63,98,1629312472
6016,19,Jits_Linear_5,0,1,48,50,1629865252
6016,19,Jits_Linear_5,1,5,63,98,1629902292
6016,19,Jits_Linear_5,2,5,56,103,1629931772
6016,19,Jits_Linear_5,3,5,80,127,1629952452
6016,19,Jits_Linear_5,0,5,80,127,1630471612
6016,19,Jits_Linear_5,1,5,56,103,1630481660
6016,19,Jits_Linear_5,2,1,48,54,1630489560
6016,19,Jits_Linear_5,3,5,63,98,1630492072
6016,19,Jits_Linear_5,0,5,56,103,1631071556
6016,19,Jits_Linear_5,1,1,48,44,1631098864
6016,19,Jits_Linear_5,2,5,80,127,1631111492
6016,19,Jits_Linear_5,3,5,63,98,1631142364
6016,19,Jits_Linear_5,0,5,63,98,1631681844
6016,19,Jits_Linear_5,1,1,48,49,1631686456
6016,19,Jits_Linear_5,2,5,80,127,1631692332
6016,19,Jits_Linear_5,3,5,56,103,1631702380
6016,19,Jits_Linear_5,0,1,48,45,1632257112
6016,19,Jits_Linear_5,1,5,56,103,1632261712
6016,19,Jits_Linear_5,2,5,63,98,1632332072
6016,19,Jits_Linear_5,3,5,80,127,1632342416
6016,19,Jits_Linear_5,0,1,48,46,1632864160
6016,19,Jits_Linear_5,1,5,80,127,1632871760
6016,19,Jits_Linear_5,2,5,56,103,1632882180
6016,19,Jits_Linear_5,3,5,63,98,1632932380
6016,19,Jits_Linear_5,0,1,48,43,1633478992
6016,19,Jits_Linear_5,1,5,80,127,1633492512
6016,19,Jits_Linear_5,2,5,56,103,1633551588
6016,19,Jits_Linear_5,3,5,63,98,1633581472
6016,19,Jits_Linear_5,0,5,56,103,1634101620
6016,19,Jits_Linear_5,1,5,80,127,1634104760
6016,19,Jits_Linear_5,2,5,63,98,1634141484
6016,19,Jits_Linear_5,3,1,48,35,1634161460
6016,19,Jits_Linear_5,0,1,48,38,1634734936
6016,19,Jits_Linear_5,1,5,56,103,1634741484
6016,19,Jits_Linear_5,2,5,63,98,1634772508
6016,19,Jits_Linear_5,3,5,80,127,1634781508
6016,19,Jits_Linear_5,0,1,48,49,1635360236
6016,19,Jits_Linear_5,1,5,63,98,1635362344
6016,19,Jits_Linear_5,2,5,80,127,1635372468
6016,19,Jits_Linear_5,3,5,56,103,1635381544
6016,19,Jits_Linear_5,0,5,80,127,1635922428
6016,19,Jits_Linear_5,1,5,56,103,1635971356
6016,19,Jits_Linear_5,2,5,63,98,1635974500
6016,19,Jits_Linear_5,3,1,48,49,1635980404
6016,19,Jits_Linear_5,0,5,56,103,1636571512
6016,19,Jits_Linear_5,1,5,80,127,1636591924
6016,19,Jits_Linear_5,2,1,48,36,1636594820
6016,19,Jits_Linear_5,3,5,63,98,1636602336
6016,19,Jits_Linear_5,0,5,63,98,1637171560
6016,19,Jits_Linear_5,1,5,56,103,1637202284
6016,19,Jits_Linear_5,2,1,48,44,1637210580
6016,19,Jits_Linear_5,3,5,80,127,1637221836
6016,19,Jits_Linear_5,0,1,48,37,1637796692
6016,19,Jits_Linear_5,1,5,56,103,1637802496
6016,19,Jits_Linear_5,2,5,80,127,1637811572
6016,19,Jits_Linear_5,3,5,63,98,1637882328
6016,19,Jits_Linear_5,0,5,63,98,1638411528
6016,19,Jits_Linear_5,1,1,48,45,1638446632
6016,19,Jits_Linear_5,2,5,80,127,1638451460
6016,19,Jits_Linear_5,3,5,56,103,1638491476
6016,19,Jits_Linear_5,0,1,48,34,1639045360
6016,19,Jits_Linear_5,1,5,56,103,1639051604
6016,19,Jits_Linear_5,2,5,63,98,1639062100
6016,19,Jits_Linear_5,3,5,80,127,1639082336
6016,19,Jits_Linear_5,0,1,48,33,1639697224
6016,19,Jits_Linear_5,1,5,63,98,1639722356
6016,19,Jits_Linear_5,2,5,80,127,1639741772
6016,19,Jits_Linear_5,3,5,56,103,1639762308
6016,19,Jits_Linear_5,0,5,56,103,1640291656
6016,19,Jits_Linear_5,1,1,48,42,1640329848
6016,19,Jits_Linear_5,2,5,80,127,1640371452
6016,19,Jits_Linear_5,3,5,63,98,1640381944
6016,19,Jits_Linear_5,0,1,48,24,1640876428
6016,19,Jits_Linear_5,1,5,80,127,1640962348
6016,19,Jits_Linear_5,2,5,63,98,1640971560
6016,19,Jits_Linear_5,3,5,56,103,1641002284
6016,19,Jits_Linear_5,0,5,63,98,1641552320
6016,19,Jits_Linear_5,1,1,48,40,1641555144
6016,19,Jits_Linear_5,2,5,80,127,1641592256
6016,19,Jits_Linear_5,3,5,56,103,1641651508
6016,19,Jits_Linear_5,0,5,63,98,1642192188
6016,19,Jits_Linear_5,1,1,48,46,1642195008
6016,19,Jits_Linear_5,2,5,56,103,1642242484
6016,19,Jits_Linear_5,3,5,80,127,1642272084
6016,19,Jits_Linear_5,0,1,48,59,1642813612
6016,19,Jits_Linear_5,1,5,80,127,1642841584
6016,19,Jits_Linear_5,2,5,63,98,1642851704
6016,19,Jits_Linear_5,3,5,56,103,1642922272
6016,19,Jits_Linear_5,0,1,48,54,1643448816
6016,19,Jits_Linear_5,1,5,80,127,1643552332
6016,19,Jits_Linear_5,2,5,56,103,1643562304
6016,19,Jits_Linear_5,3,5,63,98,1643565520
6016,19,Jits_Linear_5,0,5,56,103,1644131604
6016,19,Jits_Linear_5,1,5,80,127,1644152284
6016,19,Jits_Linear_5,2,5,63,98,1644162332
6016,19,Jits_Linear_5,3,1,48,48,1644204112
6016,19,Jits_Linear_5,0,5,63,98,1644781920
6016,19,Jits_Linear_5,1,1,48,48,1644821564
6016,19,Jits_Linear_5,2,5,56,103,1644823048
6016,19,Jits_Linear_5,3,5,80,127,1644842388
6016,19,Jits_Linear_5,0,5,63,98,1645432276
6016,19,Jits_Linear_5,1,1,48,53,1645434440
6016,19,Jits_Linear_5,2,5,56,103,1645491540
6016,19,Jits_Linear_5,3,5,80,127,1645494684
6016,19,Jits_Linear_5,0,5,56,103,1646041492
6016,19,Jits_Linear_5,1,5,80,127,1646062128
6016,19,Jits_Linear_5,2,1,48,45,1646082560
6016,19,Jits_Linear_5,3,5,63,98,1646101912
6016,19,Jits_Linear_5,0,1,48,38,1646692752
6016,19,Jits_Linear_5,1,5,56,103,1646722296
6016,19,Jits_Linear_5,2,5,63,98,1646742008
6016,19,Jits_Linear_5,3,5,80,127,1646752204
6016,19,Jits_Linear_5,0,1,48,46,1647336652
6016,19,Jits_Linear_5,1,5,80,127,1647341952
6016,19,Jits_Linear_5,2,5,56,103,1647371632
6016,19,Jits_Linear_5,3,5,63,98,1647411424
6016,19,Jits_Linear_5,0,5,80,127,1648002428
6016,19,Jits_Linear_5,1,1,48,50,1648017304
6016,19,Jits_Linear_5,2,5,56,103,1648021980
6016,19,Jits_Linear_5,3,5,63,98,1648082300
6016,19,Jits_Linear_5,0,5,56,103,1648661952
6016,19,Jits_Linear_5,1,5,80,127,1648682412
6016,19,Jits_Linear_5,2,1,48,42,1648696240
6016,19,Jits_Linear_5,3,5,63,98,1648741900
6016,19,Jits_Linear_5,0,5,80,127,1649301976
6016,19,Jits_Linear_5,1,5,56,103,1649312100
6016,19,Jits_Linear_5,2,5,63,98,1649352112
6016,19,Jits_Linear_5,3,1,48,33,1649359568
6016,19,Jits_Linear_5,0,5,63,98,1649962404
6016,19,Jits_Linear_5,1,1,48,47,1649976832
6016,19,Jits_Linear_5,2,5,56,103,1650002264
6016,19,Jits_Linear_5,3,5,80,127,1650005256
6016,19,Jits_Linear_5,0,1,48,50,1650598908
6016,19,Jits_Linear_5,1,5,63,98,1650642328
6016,19,Jits_Linear_5,2,5,80,127,1650682148
6016,19,Jits_Linear_5,3,5,56,103,1650711884
6016,19,Jits_Linear_5,0,5,56,103,1651291444
6016,19,Jits_Linear_5,1,5,63,98,1651301864
6016,19,Jits_Linear_5,2,1,48,52,1651328128
6016,19,Jits_Linear_5,3,5,80,127,1651331384
6016,19,Jits_Linear_5,0,5,80,127,1651952096
6016,19,Jits_Linear_5,1,1,48,45,1651972380
6016,19,Jits_Linear_5,2,5,63,98,1652021776
6016,19,Jits_Linear_5,3,5,56,103,1652031824
6016,19,Jits_Linear_5,0,5,63,98,1652621796
6016,19,Jits_Linear_5,1,1,48,47,1652667316
6016,19,Jits_Linear_5,2,5,56,103,1652692224
6016,19,Jits_Linear_5,3,5,80,127,1652701820
6016,19,Jits_Linear_5,0,5,63,98,1653292404
6016,19,Jits_Linear_5,1,5,56,103,1653311892
6016,19,Jits_Linear_5,2,1,48,46,1653336212
6016,19,Jits_Linear_5,3,5,80,127,1653351748
6016,19,Jits_Linear_5,0,1,48,48,1653963472
6016,19,Jits_Linear_5,1,5,56,103,1653972416
6016,19,Jits_Linear_5,2,5,63,98,1653981416
6016,19,Jits_Linear_5,3,5,80,127,1654061296
6016,19,Jits_Linear_5,0,5,63,98,1654631940
6016,19,Jits_Linear_5,1,1,48,27,1654649140
6016,19,Jits_Linear_5,2,5,56,103,1654661612
6016,19,Jits_Linear_5,3,5,80,127,1654701328
6016,19,Jits_Linear_5,0,5,56,103,1655301492
6016,19,Jits_Linear_5,1,1,48,45,1655306260
6016,19,Jits_Linear_5,2,5,63,98,1655341280
6016,19,Jits_Linear_5,3,5,80,127,1655382340
6016,19,Jits_Linear_5,0,1,48,56,1655977068
6016,19,Jits_Linear_5,1,5,80,127,1655981448
6016,19,Jits_Linear_5,2,5,56,103,1656062244
6016,19,Jits_Linear_5,3,5,63,98,1656072120
6016,19,Jits_Linear_5,0,1,48,15,1656562868
6016,19,Jits_Linear_5,1,1,38,13,1656565388
6016,19,Jits_Linear_5,2,5,56,103,1656702412
6016,19,Jits_Linear_5,3,5,63,98,1656705404
6016,19,Jits_Linear_5,4,5,80,127,1656711784
6016,19,Jits_Linear_5,5,1,48,17,1656723220
6016,19,Jits_Linear_5,0,1,48,47,1657317324
6016,19,Jits_Linear_5,1,5,56,103,1657401900
6016,19,Jits_Linear_5,2,5,63,98,1657422048
6016,19,Jits_Linear_5,3,5,80,127,1657432320
6016,19,Jits_Linear_5,0,1,48,47,1658030952
6016,19,Jits_Linear_5,1,5,63,98,1658041692
6016,19,Jits_Linear_5,2,5,80,127,1658051964
6016,19,Jits_Linear_5,3,5,56,103,1658072500
6016,19,Jits_Linear_5,0,1,48,50,1658692940
6016,19,Jits_Linear_5,1,5,63,98,1658731780
6016,19,Jits_Linear_5,2,5,56,103,1658811860
6016,19,Jits_Linear_5,3,5,80,127,1658814776
6016,19,Jits_Linear_5,0,1,48,19,1659415684
6016,19,Jits_Linear_5,1,5,63,98,1659422008
6016,19,Jits_Linear_5,2,5,56,103,1659441644
6016,19,Jits_Linear_5,3,5,80,127,1659472220
6016,19,Jits_Linear_5,0,1,48,53,1660096224
6016,19,Jits_Linear_5,1,5,56,103,1660112364
6016,19,Jits_Linear_5,2,5,63,98,1660131628
6016,19,Jits_Linear_5,3,5,80,127,1660141848
6016,19,Jits_Linear_5,0,1,48,46,1660742112
6016,19,Jits_Linear_5,1,5,56,103,1660832044
6016,19,Jits_Linear_5,2,5,63,98,1660861700
6016,19,Jits_Linear_5,3,5,80,127,1660864996
6016,19,Jits_Linear_5,0,1,48,58,1661445300
6016,19,Jits_Linear_5,1,5,56,103,1661472000
6016,19,Jits_Linear_5,2,5,63,98,1661512092
6016,19,Jits_Linear_5,3,5,80,127,1661571492
6016,19,Jits_Linear_5,0,1,48,49,1662177160
6016,19,Jits_Linear_5,1,5,56,103,1662181692
6016,19,Jits_Linear_5,2,5,63,98,1662191912
6016,19,Jits_Linear_5,3,5,80,127,1662252676
6016,19,Jits_Linear_5,0,5,56,103,1662882196
6016,19,Jits_Linear_5,1,5,80,127,1662901608
6016,19,Jits_Linear_5,2,1,48,44,1662902872
6016,19,Jits_Linear_5,3,5,63,98,1662932548
6016,19,Jits_Linear_5,0,1,48,48,1663566712
6016,19,Jits_Linear_5,1,5,80,127,1663581656
6016,19,Jits_Linear_5,2,5,56,103,1663591776
6016,19,Jits_Linear_5,3,5,63,98,1663612164
6016,19,Jits_Linear_5,0,1,48,43,1664272120
6016,19,Jits_Linear_5,1,5,63,98,1664273236
6016,19,Jits_Linear_5,2,5,80,127,1664351692
6016,19,Jits_Linear_5,3,5,56,103,1664361812
6016,19,Jits_Linear_5,0,1,48,50,1664971148
6016,19,Jits_Linear_5,1,5,80,127,1665031732
6016,19,Jits_Linear_5,2,5,56,103,1665052044
6016,19,Jits_Linear_5,3,5,63,98,1665055260
6016,19,Jits_Linear_5,0,1,48,44,1665705648
6016,19,Jits_Linear_5,1,5,63,98,1665711748
6016,19,Jits_Linear_5,2,5,80,127,1665714960
6016,19,Jits_Linear_5,3,5,56,103,1665771864
6016,19,Jits_Linear_5,0,5,56,103,1666401684
6016,19,Jits_Linear_5,1,5,80,127,1666411880
6016,19,Jits_Linear_5,2,1,48,32,1666444744
6016,19,Jits_Linear_5,3,5,63,98,1666451736
6016,19,Jits_Linear_5,0,5,56,103,1667092224
6016,19,Jits_Linear_5,1,1,48,38,1667103816
6016,19,Jits_Linear_5,2,5,63,98,1667152388
6016,19,Jits_Linear_5,3,5,80,127,1667161612
6016,19,Jits_Linear_5,0,5,63,98,1667811748
6016,19,Jits_Linear_5,1,1,48,44,1667819224
6016,19,Jits_Linear_5,2,5,80,127,1667851556
6016,19,Jits_Linear_5,3,5,56,103,1667891496
6016,19,Jits_Linear_5,0,1,48,19,1668514536
6016,19,Jits_Linear_5,1,5,56,103,1668522432
6016,19,Jits_Linear_5,2,5,63,98,1668602252
6016,19,Jits_Linear_5,3,5,80,127,1668605544
6016,19,Jits_Linear_5,0,1,48,40,1669235260
6016,19,Jits_Linear_5,1,5,80,127,1669292456
6016,19,Jits_Linear_5,2,5,56,103,1669322056
6016,19,Jits_Linear_5,3,5,63,98,1669325196
6016,19,Jits_Linear_5,0,1,48,35,1669972500
6016,19,Jits_Linear_5,1,5,56,103,1669973836
6016,19,Jits_Linear_5,2,5,80,127,1669991832
6016,19,Jits_Linear_5,3,5,63,98,1670031844
6016,19,Jits_Linear_5,0,5,80,127,1670671728
6016,19,Jits_Linear_5,1,5,63,98,1670692484
6016,19,Jits_Linear_5,2,1,48,53,1670701532
6016,19,Jits_Linear_5,3,5,56,103,1670751600
6016,19,Jits_Linear_5,0,1,48,55,1671358536
6016,19,Jits_Linear_5,1,5,63,98,1671401752
6016,19,Jits_Linear_5,2,5,56,103,1671412172
6016,19,Jits_Linear_5,3,5,80,127,1671462360
6016,19,Jits_Linear_5,0,1,48,41,1672079876
6016,19,Jits_Linear_5,1,5,56,103,1672111444
6016,19,Jits_Linear_5,2,5,63,98,1672132348
6016,19,Jits_Linear_5,3,5,80,127,1672142472
6016,19,Jits_Linear_5,0,1,48,46,1672773624
6016,19,Jits_Linear_5,1,5,56,103,1672832392
6016,19,Jits_Linear_5,2,5,63,98,1672835460
6016,19,Jits_Linear_5,3,5,80,127,1672851880
6016,19,Jits_Linear_5,0,1,48,50,1673470592
6016,19,Jits_Linear_5,1,5,63,98,1673602468
6016,19,Jits_Linear_5,2,5,56,103,1673632296
6016,19,Jits_Linear_5,3,5,80,127,1673661672
6016,19,Jits_Linear_5,0,1,48,50,1674233504
6016,19,Jits_Linear_5,1,5,80,127,1674291524
6016,19,Jits_Linear_5,2,5,56,103,1674381648
6016,19,Jits_Linear_5,3,5,63,98,1674384712
6016,19,Jits_Linear_5,0,5,56,103,1675021540
6016,19,Jits_Linear_5,1,5,80,127,1675024760
6016,19,Jits_Linear_5,2,1,48,25,1675098300
6016,19,Jits_Linear_5,3,5,63,98,1675101480
6016,19,Jits_Linear_5,0,5,80,127,1675751692
6016,19,Jits_Linear_5,1,1,48,35,1675759368
6016,19,Jits_Linear_5,2,5,63,98,1675812300
6016,19,Jits_Linear_5,3,5,56,103,1675841828
6016,19,Jits_Linear_5,0,1,48,40,1676461144
6016,19,Jits_Linear_5,1,5,63,98,1676492260
6016,19,Jits_Linear_5,2,5,80,127,1676502456
6016,19,Jits_Linear_5,3,5,56,103,1676572220
6016,19,Jits_Linear_5,0,1,48,26,1677176684
6016,19,Jits_Linear_5,1,5,56,103,1677241680
6016,19,Jits_Linear_5,2,5,80,127,1677272536
6016,19,Jits_Linear_5,3,5,63,98,1677321568
6016,19,Jits_Linear_5,0,1,48,27,1677937420
6016,19,Jits_Linear_5,1,5,63,98,1678022272
6016,19,Jits_Linear_5,2,5,56,103,1678051708
6016,19,Jits_Linear_5,3,5,80,127,1678054848
6016,19,Jits_Linear_5,0,1,48,42,1678758244
6016,19,Jits_Linear_5,1,5,63,98,1678762472
6016,19,Jits_Linear_5,2,5,80,127,1678781660
6016,19,Jits_Linear_5,3,5,56,103,1678792228
6016,19,Jits_Linear_5,0,5,56,103,1679512200
6016,19,Jits_Linear_5,1,5,63,98,1679515192
6016,19,Jits_Linear_5,2,5,80,127,1679532288
6016,19,Jits_Linear_5,0,5,56,103,1680212288
6016,19,Jits_Linear_5,1,5,63,98,1680221512
6016,19,Jits_Linear_5,2,1,48,42,1680224484
6016,19,Jits_Linear_5,3,5,80,127,1680252232
6016,19,Jits_Linear_5,0,1,48,59,1680875444
6016,19,Jits_Linear_5,1,5,63,98,1680982380
6016,19,Jits_Linear_5,2,5,80,127,1681002016
6016,19,Jits_Linear_5,3,5,56,103,1681041880
6016,19,Jits_Linear_5,0,1,48,51,1681628804
6016,19,Jits_Linear_5,1,5,56,103,1681761548
6016,19,Jits_Linear_5,2,5,63,98,1681801480
6016,19,Jits_Linear_5,3,5,80,127,1681805000
6016,19,Jits_Linear_5,0,5,80,127,1682452016
6016,19,Jits_Linear_5,1,1,48,55,1682484284
6016,19,Jits_Linear_5,2,5,56,103,1682491652
6016,19,Jits_Linear_5,3,5,63,98,1682542080
6016,19,Jits_Linear_5,0,1,48,44,1683254236
6016,19,Jits_Linear_5,1,5,56,103,1683261760
6016,19,Jits_Linear_5,2,5,80,127,1683272256
6016,19,Jits_Linear_5,3,5,63,98,1683301856
6016,19,Jits_Linear_5,0,5,56,103,1683962340
6016,19,Jits_Linear_5,1,5,80,127,1684002132
6016,19,Jits_Linear_5,2,1,48,43,1684026604
6016,19,Jits_Linear_5,3,5,63,98,1684052404
6016,19,Jits_Linear_5,0,1,48,55,1684703104
6016,19,Jits_Linear_5,1,5,56,103,1684722188
6016,19,Jits_Linear_5,2,5,80,127,1684762128
6016,19,Jits_Linear_5,3,5,63,98,1684812240
6016,19,Jits_Linear_5,0,5,80,127,1685471520
6016,19,Jits_Linear_5,1,1,48,49,1685472484
6016,19,Jits_Linear_5,2,5,63,98,1685551488
6016,19,Jits_Linear_5,3,5,56,103,1685561684
6016,19,Jits_Linear_5,0,1,48,48,1686237096
6016,19,Jits_Linear_5,1,5,80,127,1686281440
6016,19,Jits_Linear_5,2,5,56,103,1686291932
6016,19,Jits_Linear_5,3,5,63,98,1686312244
6016,19,Jits_Linear_5,0,1,48,51,1687005264
6016,19,Jits_Linear_5,1,5,63,98,1687011808
6016,19,Jits_Linear_5,2,5,56,103,1687082340
6016,19,Jits_Linear_5,3,5,80,127,1687085408
6016,19,Jits_Linear_5,0,5,80,127,1687771500
6016,19,Jits_Linear_5,1,1,48,43,1687791280
6016,19,Jits_Linear_5,2,5,63,98,1687821648
6016,19,Jits_Linear_5,3,5,56,103,1687861660
6016,19,Jits_Linear_5,0,1,48,43,1688515656
6016,19,Jits_Linear_5,1,5,63,98,1688581492
6016,19,Jits_Linear_5,2,5,56,103,1688621644
6016,19,Jits_Linear_5,3,5,80,127,1688631764
6016,19,Jits_Linear_5,0,1,48,41,1689309204
6016,19,Jits_Linear_5,1,5,63,98,1689342304
6016,19,Jits_Linear_5,2,5,56,103,1689361868
6016,19,Jits_Linear_5,3,5,80,127,1689382328
6016,19,Jits_Linear_5,0,1,48,40,1690050996
6016,19,Jits_Linear_5,1,5,80,127,1690081512
6016,19,Jits_Linear_5,2,5,56,103,1690092108
6016,19,Jits_Linear_5,3,5,63,98,1690112344
6016,19,Jits_Linear_5,0,1,48,40,1690807368
6016,19,Jits_Linear_5,1,5,63,98,1690882276
6016,19,Jits_Linear_5,2,5,56,103,1690922276
6016,19,Jits_Linear_5,3,5,80,127,1690952024
6016,19,Jits_Linear_5,0,1,48,49,1691567204
6016,19,Jits_Linear_5,1,5,56,103,1691661876
6016,19,Jits_Linear_5,2,5,63,98,1691692376
6016,19,Jits_Linear_5,3,5,80,127,1691722128
6016,19,Jits_Linear_5,0,1,48,47,1692371032
6016,19,Jits_Linear_5,1,5,80,127,1692412360
6016,19,Jits_Linear_5,2,5,56,103,1692481956
6016,19,Jits_Linear_5,3,5,63,98,1692485096
6016,19,Jits_Linear_5,0,1,48,55,1693178444
6016,19,Jits_Linear_5,1,5,56,103,1693201856
6016,19,Jits_Linear_5,2,5,63,98,1693251912
6016,19,Jits_Linear_5,3,5,80,127,1693281876
6016,19,Jits_Linear_5,0,5,63,98,1693961776
6016,19,Jits_Linear_5,1,5,80,127,1693965068
6016,19,Jits_Linear_5,2,1,48,59,1693966032
6016,19,Jits_Linear_5,3,5,56,103,1694021864
6016,19,Jits_Linear_5,0,1,48,66,1694732880
6016,19,Jits_Linear_5,1,5,56,103,1694771716
6016,19,Jits_Linear_5,2,5,80,127,1694782060
6016,19,Jits_Linear_5,3,5,63,98,1694832024
6016,19,Jits_Linear_5,0,1,48,57,1695507768
6016,19,Jits_Linear_5,1,5,63,98,1695532300
6016,19,Jits_Linear_5,2,5,56,103,1695541824
6016,19,Jits_Linear_5,3,5,80,127,1695572248
6016,19,Jits_Linear_5,0,1,48,60,1696282284
6016,19,Jits_Linear_5,1,5,63,98,1696351836
6016,19,Jits_Linear_5,2,5,80,127,1696355052
6016,19,Jits_Linear_5,3,5,56,103,1696382324
6016,19,Jits_Linear_5,0,1,48,57,1697077988
6016,19,Jits_Linear_5,1,5,63,98,1697161864
6016,19,Jits_Linear_5,2,5,56,103,1697182084
6016,19,Jits_Linear_5,3,5,80,127,1697185372
6016,19,Jits_Linear_5,0,1,48,69,1697875360
6016,19,Jits_Linear_5,1,5,63,98,1697912104
6016,19,Jits_Linear_5,2,5,56,103,1697981924
6016,19,Jits_Linear_5,3,5,80,127,1698002160
6016,19,Jits_Linear_5,0,1,48,57,1698676548
6016,19,Jits_Linear_5,1,5,56,103,1698691420
6016,19,Jits_Linear_5,2,5,63,98,1698701692
6016,19,Jits_Linear_5,3,5,80,127,1698791908
6016,19,Jits_Linear_5,0,1,48,63,1699494752
6016,19,Jits_Linear_5,1,5,56,103,1699501528
6016,19,Jits_Linear_5,2,5,80,127,1699542368
6016,19,Jits_Linear_5,3,5,63,98,1699551816
6016,19,Jits_Linear_5,0,1,48,55,1700237872
6016,19,Jits_Linear_5,1,5,56,103,1700321676
6016,19,Jits_Linear_5,2,5,63,98,1700352336
6016,19,Jits_Linear_5,3,5,80,127,1700382088
6016,19,Jits_Linear_5,4,1,48,46,1700402888
6016,19,Jits_Linear_5,0,1,48,59,1700998728
6016,19,Jits_Linear_5,1,5,80,127,1701081412
6016,19,Jits_Linear_5,2,5,63,98,1701122556
6016,19,Jits_Linear_5,3,5,56,103,1701141820
6016,19,Jits_Linear_5,0,1,48,52,1701810496
6016,19,Jits_Linear_5,1,5,56,103,1701922244
6016,19,Jits_Linear_5,2,5,80,127,1701941656
6016,19,Jits_Linear_5,3,5,63,98,1701962116
6016,19,Jits_Linear_5,0,1,48,38,1702629752
6016,19,Jits_Linear_5,1,5,63,98,1702692060
6016,19,Jits_Linear_5,2,5,56,103,1702701508
6016,19,Jits_Linear_5,3,5,80,127,1702761812
6016,19,Jits_Linear_5,0,1,48,48,1703375636
6016,19,Jits_Linear_5,1,5,56,103,1703502152
6016,19,Jits_Linear_5,2,5,63,98,1703571764
6016,19,Jits_Linear_5,3,1,48,54,1703575708
6016,19,Jits_Linear_5,4,5,80,127,1703592440
6016,19,Jits_Linear_5,0,1,48,41,1704218556
6016,19,Jits_Linear_5,1,5,56,103,1704312104
6016,19,Jits_Linear_5,2,5,63,98,1704341988
6016,19,Jits_Linear_5,3,5,80,127,1704381704
6016,19,Jits_Linear_5,0,1,48,50,1704966704
6016,19,Jits_Linear_5,1,5,63,98,1705112004
6016,19,Jits_Linear_5,2,5,56,103,1705162060
6016,19,Jits_Linear_5,3,5,80,127,1705172404
6016,19,Jits_Linear_5,0,1,48,44,1705727280
6016,19,Jits_Linear_5,1,5,56,103,1705961920
6016,19,Jits_Linear_5,2,5,63,98,1706012124
6016,19,Jits_Linear_5,3,5,80,127,1706022692
6016,19,Jits_Linear_5,0,1,48,53,1706527576
6016,19,Jits_Linear_5,1,1,48,42,1706700644
6016,19,Jits_Linear_5,2,5,56,103,1706742276
6016,19,Jits_Linear_5,3,5,63,98,1706752548
6016,19,Jits_Linear_5,4,5,80,127,1706832476
6016,19,Jits_Linear_5,0,9999,9999,9999,1597959244
6016,19,Jits_Linear_5,1,9999,9999,9999,1598439528
6016,19,Jits_Linear_5,2,9999,9999,9999,1598919784
6016,19,Jits_Linear_5,3,9999,9999,9999,1599400036
6016,19,Jits_Linear_5,4,9999,9999,9999,1599879236
6016,19,Jits_Linear_5,5,9999,9999,9999,1600369760
6016,19,Jits_Linear_5,6,9999,9999,9999,1600859216
6016,19,Jits_Linear_5,7,9999,9999,9999,1601349732
6016,19,Jits_Linear_5,8,9999,9999,9999,1601839184
6016,19,Jits_Linear_5,9,9999,9999,9999,1602329668
6016,19,Jits_Linear_5,10,9999,9999,9999,1602829372
6016,19,Jits_Linear_5,11,9999,9999,9999,1603329152
6016,19,Jits_Linear_5,12,9999,9999,9999,1603829880
6016,19,Jits_Linear_5,13,9999,9999,9999,1604329540
6016,19,Jits_Linear_5,14,9999,9999,9999,1604829256
6016,19,Jits_Linear_5,15,9999,9999,9999,1605339204
6016,19,Jits_Linear_5,16,9999,9999,9999,1605849156
6016,19,Jits_Linear_5,17,9999,9999,9999,1606359152
6016,19,Jits_Linear_5,18,9999,9999,9999,1606870080
6016,19,Jits_Linear_5,19,9999,9999,9999,1607389248
6016,19,Jits_Linear_5,20,9999,9999,9999,1607909464
6016,19,Jits_Linear_5,21,9999,9999,9999,1608429636
6016,19,Jits_Linear_5,22,9999,9999,9999,1608949864
6016,19,Jits_Linear_5,23,9999,9999,9999,1609470020
6016,19,Jits_Linear_5,24,9999,9999,9999,1609989204
6016,19,Jits_Linear_5,25,9999,9999,9999,1610519616
6016,19,Jits_Linear_5,26,9999,9999,9999,1611050108
6016,19,Jits_Linear_5,27,9999,9999,9999,1611579460
6016,19,Jits_Linear_5,28,9999,9999,9999,1612109880
6016,19,Jits_Linear_5,29,9999,9999,9999,1612639324
6016,19,Jits_Linear_5,30,9999,9999,9999,1613180004
6016,19,Jits_Linear_5,31,9999,9999,9999,1613719640
6016,19,Jits_Linear_5,32,9999,9999,9999,1614259272
6016,19,Jits_Linear_5,33,9999,9999,9999,1614799952
6016,19,Jits_Linear_5,34,9999,9999,9999,1615339612
6016,19,Jits_Linear_5,35,9999,9999,9999,1615889520
6016,19,Jits_Linear_5,36,9999,9999,9999,1616439396
6016,19,Jits_Linear_5,37,9999,9999,9999,1616989280
6016,19,Jits_Linear_5,38,9999,9999,9999,1617539180
6016,19,Jits_Linear_5,39,9999,9999,9999,1618090040
6016,19,Jits_Linear_5,40,9999,9999,9999,1618649144
6016,19,Jits_Linear_5,41,9999,9999,9999,1619209324
6016,19,Jits_Linear_5,42,9999,9999,9999,1619769412
6016,19,Jits_Linear_5,43,9999,9999,9999,1620329560
6016,19,Jits_Linear_5,44,9999,9999,9999,1620889704
6016,19,Jits_Linear_5,45,9999,9999,9999,1621460040
6016,19,Jits_Linear_5,46,9999,9999,9999,1622029432
6016,19,Jits_Linear_5,47,9999,9999,9999,1622599776
6016,19,Jits_Linear_5,48,9999,9999,9999,1623169144
6016,19,Jits_Linear_5,49,9999,9999,9999,1623739504
6016,19,Jits_Linear_5,50,9999,9999,9999,1624320120
6016,19,Jits_Linear_5,51,9999,9999,9999,1624909880
6016,19,Jits_Linear_5,52,9999,9999,9999,1625489512
6016,19,Jits_Linear_5,53,9999,9999,9999,1626070132
6016,19,Jits_Linear_5,54,9999,9999,9999,1626659900
6016,19,Jits_Linear_5,55,9999,9999,9999,1627249728
6016,19,Jits_Linear_5,56,9999,9999,9999,1627839544
6016,19,Jits_Linear_5,57,9999,9999,9999,1628429400
6016,19,Jits_Linear_5,58,9999,9999,9999,1629019236
6016,19,Jits_Linear_5,59,9999,9999,9999,1629610084
6016,19,Jits_Linear_5,60,9999,9999,9999,1630209088
6016,19,Jits_Linear_5,61,9999,9999,9999,1630809168
6016,19,Jits_Linear_5,62,9999,9999,9999,1631409264
6016,19,Jits_Linear_5,63,9999,9999,9999,1632009308
6016,19,Jits_Linear_5,64,9999,9999,9999,1632609392
6016,19,Jits_Linear_5,65,9999,9999,9999,1633219656
6016,19,Jits_Linear_5,66,9999,9999,9999,1633829952
6016,19,Jits_Linear_5,67,9999,9999,9999,1634439240
6016,19,Jits_Linear_5,68,9999,9999,9999,1635049528
6016,19,Jits_Linear_5,69,9999,9999,9999,1635659904
6016,19,Jits_Linear_5,70,9999,9999,9999,1636279380
6016,19,Jits_Linear_5,71,9999,9999,9999,1636899952
6016,19,Jits_Linear_5,72,9999,9999,9999,1637519452
6016,19,Jits_Linear_5,73,9999,9999,9999,1638140008
6016,19,Jits_Linear_5,74,9999,9999,9999,1638759496
6016,19,Jits_Linear_5,75,9999,9999,9999,1639389240
6016,19,Jits_Linear_5,76,9999,9999,9999,1640020068
6016,19,Jits_Linear_5,77,9999,9999,9999,1640649816
6016,19,Jits_Linear_5,78,9999,9999,9999,1641279608
6016,19,Jits_Linear_5,79,9999,9999,9999,1641909360
6016,19,Jits_Linear_5,80,9999,9999,9999,1642549320
6016,19,Jits_Linear_5,81,9999,9999,9999,1643189332
6016,19,Jits_Linear_5,82,9999,9999,9999,1643829368
6016,19,Jits_Linear_5,83,9999,9999,9999,1644469308
6016,19,Jits_Linear_5,84,9999,9999,9999,1645109364
6016,19,Jits_Linear_5,85,9999,9999,9999,1645759560
6016,19,Jits_Linear_5,86,9999,9999,9999,1646409788
6016,19,Jits_Linear_5,87,9999,9999,9999,1647060080
6016,19,Jits_Linear_5,88,9999,9999,9999,1647709260
6016,19,Jits_Linear_5,89,9999,9999,9999,1648359536
6016,19,Jits_Linear_5,90,9999,9999,9999,1649019960
6016,19,Jits_Linear_5,91,9999,9999,9999,1649679484
6016,19,Jits_Linear_5,92,9999,9999,9999,1650339956
6016,19,Jits_Linear_5,93,9999,9999,9999,1650999400
6016,19,Jits_Linear_5,94,9999,9999,9999,1651659864
6016,19,Jits_Linear_5,95,9999,9999,9999,1652329588
6016,19,Jits_Linear_5,96,9999,9999,9999,1652999236
6016,19,Jits_Linear_5,97,9999,9999,9999,1653669960
6016,19,Jits_Linear_5,98,9999,9999,9999,1654339668
6016,19,Jits_Linear_5,99,9999,9999,9999,1655009356
6016,19,Jits_Linear_5,100,9999,9999,9999,1655689320
6016,19,Jits_Linear_5,101,9999,9999,9999,1656369232
6016,19,Jits_Linear_5,102,9999,9999,9999,1657049172
6016,19,Jits_Linear_5,103,9999,9999,9999,1657729124
6016,19,Jits_Linear_5,104,9999,9999,9999,1658410068
6016,19,Jits_Linear_5,105,9999,9999,9999,1659099224
6016,19,Jits_Linear_5,106,9999,9999,9999,1659789384
6016,19,Jits_Linear_5,107,9999,9999,9999,1660479544
6016,19,Jits_Linear_5,108,9999,9999,9999,1661169772
6016,19,Jits_Linear_5,109,9999,9999,9999,1661859908
6016,19,Jits_Linear_5,110,9999,9999,9999,1662559356
6016,19,Jits_Linear_5,111,9999,9999,9999,1663259704
6016,19,Jits_Linear_5,112,9999,9999,9999,1663959144
6016,19,Jits_Linear_5,113,9999,9999,9999,1664659576
6016,19,Jits_Linear_5,114,9999,9999,9999,1665359992
6016,19,Jits_Linear_5,115,9999,9999,9999,1666069628
6016,19,Jits_Linear_5,116,9999,9999,9999,1666779240
6016,19,Jits_Linear_5,117,9999,9999,9999,1667489868
6016,19,Jits_Linear_5,118,9999,9999,9999,1668199520
6016,19,Jits_Linear_5,119,9999,9999,9999,1668909160
6016,19,Jits_Linear_5,120,9999,9999,9999,1669630032
6016,19,Jits_Linear_5,121,9999,9999,9999,1670349908
6016,19,Jits_Linear_5,122,9999,9999,9999,1671069812
6016,19,Jits_Linear_5,123,9999,9999,9999,1671789656
6016,19,Jits_Linear_5,124,9999,9999,9999,1672509560
6016,19,Jits_Linear_5,125,9999,9999,9999,1673239640
6016,19,Jits_Linear_5,126,9999,9999,9999,1673969740
6016,19,Jits_Linear_5,127,9999,9999,9999,1674699876
6016,19,Jits_Linear_5,128,9999,9999,9999,1675429960
6016,19,Jits_Linear_5,129,9999,9999,9999,1676160116
6016,19,Jits_Linear_5,130,9999,9999,9999,1676909628
6016,19,Jits_Linear_5,131,9999,9999,9999,1677649988
6016,19,Jits_Linear_5,132,9999,9999,9999,1678389368
6016,19,Jits_Linear_5,133,9999,9999,9999,1679129724
6016,19,Jits_Linear_5,134,9999,9999,9999,1679870020
6016,19,Jits_Linear_5,135,9999,9999,9999,1680619612
6016,19,Jits_Linear_5,136,9999,9999,9999,1681369176
6016,19,Jits_Linear_5,137,9999,9999,9999,1682119792
6016,19,Jits_Linear_5,138,9999,9999,9999,1682869360
6016,19,Jits_Linear_5,139,9999,9999,9999,1683619920
6016,19,Jits_Linear_5,140,9999,9999,9999,1684379764
6016,19,Jits_Linear_5,141,9999,9999,9999,1685139540
6016,19,Jits_Linear_5,142,9999,9999,9999,1685899376
6016,19,Jits_Linear_5,143,9999,9999,9999,1686659156
6016,19,Jits_Linear_5,144,9999,9999,9999,1687419960
6016,19,Jits_Linear_5,145,9999,9999,9999,1688190060
6016,19,Jits_Linear_5,146,9999,9999,9999,1688960108
6016,19,Jits_Linear_5,147,9999,9999,9999,1689739348
6016,19,Jits_Linear_5,148,9999,9999,9999,1690509368
6016,19,Jits_Linear_5,149,9999,9999,9999,1691279468
6016,19,Jits_Linear_5,150,9999,9999,9999,1692059760
6016,19,Jits_Linear_5,151,9999,9999,9999,1692840036
6016,19,Jits_Linear_5,152,9999,9999,9999,1693619284
6016,19,Jits_Linear_5,153,9999,9999,9999,1694399560
6016,19,Jits_Linear_5,154,9999,9999,9999,1695179848
6016,19,Jits_Linear_5,155,9999,9999,9999,1695969348
6016,19,Jits_Linear_5,156,9999,9999,9999,1696759912
6016,19,Jits_Linear_5,157,9999,9999,9999,1697549408
6016,19,Jits_Linear_5,158,9999,9999,9999,1698339964
6016,19,Jits_Linear_5,159,9999,9999,9999,1699129468
6016,19,Jits_Linear_5,160,9999,9999,9999,1699929164
6016,19,Jits_Linear_5,161,9999,9999,9999,1700729960
6016,19,Jits_Linear_5,162,9999,9999,9999,1701529720
6016,19,Jits_Linear_5,163,9999,9999,9999,1702329416
6016,19,Jits_Linear_5,164,9999,9999,9999,1703129184
6016,19,Jits_Linear_5,165,9999,9999,9999,1703939152
6016,19,Jits_Linear_5,166,9999,9999,9999,1704749176
6016,19,Jits_Linear_5,167,9999,9999,9999,1705559132
6016,19,Jits_Linear_5,168,9999,9999,9999,1706369092
6016,19,Jits_Linear_5,169,9999,9999,9999,1707179104
601,15,Jits_Phase_8,0,5,56,103,13783344
601,15,Jits_Phase_8,1,5,63,98,13786448
601,15,Jits_Phase_8,2,5,80,127,13789720
601,15,Jits_Phase_8,0,5,56,103,14583252
601,15,Jits_Phase_8,1,5,63,98,14586196
601,15,Jits_Phase_8,2,5,80,127,14589248
601,15,Jits_Phase_8,0,5,80,127,15322480
601,15,Jits_Phase_8,1,5,63,98,15412836
601,15,Jits_Phase_8,2,5,56,103,15422812
601,15,Jits_Phase_8,0,5,56,103,16142632
601,15,Jits_Phase_8,1,5,63,98,16153124
601,15,Jits_Phase_8,2,5,80,127,16243032
601,15,Jits_Phase_8,0,5,63,98,16912656
601,15,Jits_Phase_8,1,5,80,127,16942556
601,15,Jits_Phase_8,2,1,48,46,16963508
601,15,Jits_Phase_8,3,5,56,103,16973048
601,15,Jits_Phase_8,0,1,48,55,17682636
601,15,Jits_Phase_8,1,5,56,103,17712552
601,15,Jits_Phase_8,2,5,80,127,17812784
601,15,Jits_Phase_8,3,5,63,98,17863008
601,15,Jits_Phase_8,0,1,48,51,18509884
601,15,Jits_Phase_8,1,5,56,103,18513136
601,15,Jits_Phase_8,2,5,80,127,18562664
601,15,Jits_Phase_8,3,5,63,98,18603484
601,15,Jits_Phase_8,0,1,48,50,19314512
601,15,Jits_Phase_8,1,5,80,127,19342640
601,15,Jits_Phase_8,2,5,63,98,19373508
601,15,Jits_Phase_8,3,5,56,103,19443052
601,15,Jits_Phase_8,0,1,48,34,20144472
601,15,Jits_Phase_8,1,5,63,98,20173068
601,15,Jits_Phase_8,2,5,56,103,20202820
601,15,Jits_Phase_8,3,5,80,127,20263492
601,15,Jits_Phase_8,0,5,56,103,20912504
601,15,Jits_Phase_8,1,5,80,127,20915568
601,15,Jits_Phase_8,2,1,48,50,20948980
601,15,Jits_Phase_8,3,5,63,98,21033440
601,15,Jits_Phase_8,0,1,48,43,21737580
601,15,Jits_Phase_8,1,5,56,103,21793124
601,15,Jits_Phase_8,2,5,80,127,21833064
601,15,Jits_Phase_8,3,5,63,98,21843544
601,15,Jits_Phase_8,0,1,48,48,22532632
601,15,Jits_Phase_8,1,5,56,103,22552808
601,15,Jits_Phase_8,2,5,80,127,22573640
601,15,Jits_Phase_8,3,5,63,98,22653492
601,15,Jits_Phase_8,0,5,80,127,23342388
601,15,Jits_Phase_8,1,1,48,48,23393908
601,15,Jits_Phase_8,2,5,56,103,23442780
601,15,Jits_Phase_8,3,5,63,98,23452904
601,15,Jits_Phase_8,0,5,63,98,24112428
601,15,Jits_Phase_8,1,1,48,45,24148060
601,15,Jits_Phase_8,2,5,80,127,24173036
601,15,Jits_Phase_8,3,5,56,103,24183228
601,15,Jits_Phase_8,0,5,56,103,24913376
601,15,Jits_Phase_8,1,1,48,47,24933512
601,15,Jits_Phase_8,2,5,63,98,24982748
601,15,Jits_Phase_8,3,5,80,127,24986120
601,15,Jits_Phase_8,0,1,48,49,25731396
601,15,Jits_Phase_8,1,5,63,98,25742580
601,15,Jits_Phase_8,2,5,56,103,25792880
601,15,Jits_Phase_8,3,5,80,127,25795948
601,15,Jits_Phase_8,0,5,56,103,26502476
601,15,Jits_Phase_8,1,5,80,127,26505540
601,15,Jits_Phase_8,2,1,48,41,26526340
601,15,Jits_Phase_8,3,5,63,98,26592552
601,15,Jits_Phase_8,0,1,48,36,27305048
601,15,Jits_Phase_8,1,5,63,98,27343456
601,15,Jits_Phase_8,2,5,56,103,27433428
601,15,Jits_Phase_8,3,5,80,127,27462956
601,15,Jits_Phase_8,0,1,48,48,28116296
601,15,Jits_Phase_8,1,5,56,103,28132660
601,15,Jits_Phase_8,2,5,63,98,28233192
601,15,Jits_Phase_8,3,5,80,127,28262792
601,15,Jits_Phase_8,0,1,48,38,28916960
601,15,Jits_Phase_8,1,5,63,98,28952956
601,15,Jits_Phase_8,2,5,56,103,28963448
601,15,Jits_Phase_8,3,5,80,127,29053268
601,15,Jits_Phase_8,0,1,48,46,29694844
601,15,Jits_Phase_8,1,5,63,98,29773392
601,15,Jits_Phase_8,2,5,56,103,29853320
601,15,Jits_Phase_8,3,5,80,127,29856460
601,15,Jits_Phase_8,0,1,48,46,30462468
601,15,Jits_Phase_8,1,5,80,127,30532996
601,15,Jits_Phase_8,2,5,63,98,30552336
601,15,Jits_Phase_8,3,5,56,103,30612856
601,15,Jits_Phase_8,0,1,48,43,31311008
601,15,Jits_Phase_8,1,5,56,103,31372540
601,15,Jits_Phase_8,2,5,63,98,31393220
601,15,Jits_Phase_8,3,5,80,127,31396360
601,15,Jits_Phase_8,0,5,63,98,32113108
601,15,Jits_Phase_8,1,1,48,46,32143804
601,15,Jits_Phase_8,2,5,80,127,32192776
601,15,Jits_Phase_8,3,5,56,103,32203196
601,15,Jits_Phase_8,0,1,48,49,32878360
601,15,Jits_Phase_8,1,5,63,98,32933168
601,15,Jits_Phase_8,2,5,56,103,32952728
601,15,Jits_Phase_8,3,5,80,127,33003080
601,15,Jits_Phase_8,0,1,48,38,33694300
601,15,Jits_Phase_8,1,5,80,127,33733164
601,15,Jits_Phase_8,2,5,63,98,33773028
601,15,Jits_Phase_8,3,5,56,103,33793336
601,15,Jits_Phase_8,0,1,48,34,34504876
601,15,Jits_Phase_8,1,5,56,103,34572632
601,15,Jits_Phase_8,2,5,63,98,34582756
601,15,Jits_Phase_8,3,5,80,127,34603420
601,15,Jits_Phase_8,0,1,48,41,35302268
601,15,Jits_Phase_8,1,5,56,103,35303832
601,15,Jits_Phase_8,2,5,63,98,35392996
601,15,Jits_Phase_8,3,5,80,127,35453296
601,15,Jits_Phase_8,0,1,48,51,36091884
601,15,Jits_Phase_8,1,5,80,127,36133340
601,15,Jits_Phase_8,2,5,56,103,36142416
601,15,Jits_Phase_8,3,5,63,98,36213052
601,15,Jits_Phase_8,0,1,48,53,36881532
601,15,Jits_Phase_8,1,5,63,98,36962620
601,15,Jits_Phase_8,2,5,80,127,37052764
601,15,Jits_Phase_8,3,5,56,103,37062960
601,15,Jits_Phase_8,0,5,63,98,37692716
601,15,Jits_Phase_8,1,1,48,45,37740252
601,15,Jits_Phase_8,2,5,80,127,37743208
601,15,Jits_Phase_8,3,5,56,103,37803524
601,15,Jits_Phase_8,0,5,56,103,38513004
601,15,Jits_Phase_8,1,5,80,127,38563208
601,15,Jits_Phase_8,2,1,48,54,38565220
601,15,Jits_Phase_8,3,5,63,98,38582612
601,15,Jits_Phase_8,0,5,56,103,39282960
601,15,Jits_Phase_8,1,5,80,127,39342528
601,15,Jits_Phase_8,2,1,48,46,39346620
601,15,Jits_Phase_8,3,5,63,98,39413196
601,15,Jits_Phase_8,0,1,48,56,40080140
601,15,Jits_Phase_8,1,5,56,103,40082876
601,15,Jits_Phase_8,2,5,80,127,40112476
601,15,Jits_Phase_8,3,5,63,98,40143224
601,15,Jits_Phase_8,0,1,48,52,40859144
601,15,Jits_Phase_8,1,5,56,103,40922364
601,15,Jits_Phase_8,2,5,80,127,40943048
601,15,Jits_Phase_8,3,5,63,98,41003420
601,15,Jits_Phase_8,0,1,48,63,41664180
601,15,Jits_Phase_8,1,5,80,127,41803172
601,15,Jits_Phase_8,2,5,56,103,41813444
601,15,Jits_Phase_8,3,5,63,98,41822664
601,15,Jits_Phase_8,0,1,48,49,42486864
601,15,Jits_Phase_8,1,5,56,103,42563312
601,15,Jits_Phase_8,2,5,80,127,42603016
601,15,Jits_Phase_8,3,5,63,98,42632764
601,15,Jits_Phase_8,0,1,48,47,43261168
601,15,Jits_Phase_8,1,5,56,103,43332964
601,15,Jits_Phase_8,2,5,63,98,43362624
601,15,Jits_Phase_8,3,5,80,127,43402564
601,15,Jits_Phase_8,0,1,48,52,44060536
601,15,Jits_Phase_8,1,5,80,127,44082456
601,15,Jits_Phase_8,2,5,63,98,44132656
601,15,Jits_Phase_8,3,5,56,103,44153192
601,15,Jits_Phase_8,0,1,48,50,44840440
601,15,Jits_Phase_8,1,5,56,103,44913000
601,15,Jits_Phase_8,2,5,80,127,44982520
601,15,Jits_Phase_8,3,5,63,98,45043156
601,15,Jits_Phase_8,0,1,48,50,45693784
601,15,Jits_Phase_8,1,5,80,127,45712840
601,15,Jits_Phase_8,2,5,63,98,45803060
601,15,Jits_Phase_8,3,5,56,103,45823220
601,15,Jits_Phase_8,0,1,48,57,46500880
601,15,Jits_Phase_8,1,5,63,98,46532860
601,15,Jits_Phase_8,2,5,56,103,46552420
601,15,Jits_Phase_8,3,5,80,127,46593392
601,15,Jits_Phase_8,0,1,48,62,47277492
601,15,Jits_Phase_8,1,5,80,127,47292904
601,15,Jits_Phase_8,2,5,63,98,47313292
601,15,Jits_Phase_8,3,5,56,103,47393144
601,15,Jits_Phase_8,0,5,63,98,48083304
601,15,Jits_Phase_8,1,1,48,40,48094816
601,15,Jits_Phase_8,2,5,56,103,48192972
601,15,Jits_Phase_8,3,5,80,127,48196188
601,15,Jits_Phase_8,0,1,48,45,48868556
601,15,Jits_Phase_8,1,5,63,98,48902452
601,15,Jits_Phase_8,2,5,56,103,48912868
601,15,Jits_Phase_8,3,5,80,127,48915784
601,15,Jits_Phase_8,0,1,48,54,49635036
601,15,Jits_Phase_8,1,5,56,103,49683012
601,15,Jits_Phase_8,2,5,80,127,49802804
601,15,Jits_Phase_8,3,5,63,98,49842516
601,15,Jits_Phase_8,0,1,48,48,50480592
601,15,Jits_Phase_8,1,5,56,103,50503012
601,15,Jits_Phase_8,2,5,80,127,50582792
601,15,Jits_Phase_8,3,5,63,98,50603252
601,15,Jits_Phase_8,0,1,48,47,51277044
601,15,Jits_Phase_8,1,5,56,103,51302920
601,15,Jits_Phase_8,2,5,63,98,51413368
601,15,Jits_Phase_8,3,5,80,127,51416732
601,15,Jits_Phase_8,0,1,48,50,52074704
601,15,Jits_Phase_8,1,5,56,103,52142312
601,15,Jits_Phase_8,2,5,80,127,52173132
601,15,Jits_Phase_8,3,5,63,98,52192904
601,15,Jits_Phase_8,0,1,48,49,52902784
601,15,Jits_Phase_8,1,5,63,98,52933104
601,15,Jits_Phase_8,2,5,56,103,52943300
601,15,Jits_Phase_8,3,5,80,127,52952376
601,15,Jits_Phase_8,0,1,48,45,53691556
601,15,Jits_Phase_8,1,5,80,127,53722668
601,15,Jits_Phase_8,2,5,56,103,53772872
601,15,Jits_Phase_8,3,5,63,98,53812868
601,15,Jits_Phase_8,0,1,48,48,54513264
601,15,Jits_Phase_8,1,5,80,127,54542660
601,15,Jits_Phase_8,2,5,63,98,54563192
601,15,Jits_Phase_8,3,5,56,103,54613456
601,15,Jits_Phase_8,0,1,48,49,55334824
601,15,Jits_Phase_8,1,5,80,127,55352760
601,15,Jits_Phase_8,2,5,56,103,55383332
601,15,Jits_Phase_8,3,5,63,98,55453000
601,15,Jits_Phase_8,0,1,48,42,56174000
601,15,Jits_Phase_8,1,5,56,103,56203092
601,15,Jits_Phase_8,2,5,80,127,56212992
601,15,Jits_Phase_8,3,5,63,98,56252732
601,15,Jits_Phase_8,0,5,56,103,56913184
601,15,Jits_Phase_8,1,5,63,98,56932676
601,15,Jits_Phase_8,2,1,48,42,56969124
601,15,Jits_Phase_8,3,5,80,127,57003468
601,15,Jits_Phase_8,0,1,48,43,57711580
601,15,Jits_Phase_8,1,5,63,98,57732656
601,15,Jits_Phase_8,2,5,80,127,57792848
601,15,Jits_Phase_8,3,5,56,103,57813216
601,15,Jits_Phase_8,0,5,80,127,58522908
601,15,Jits_Phase_8,1,1,48,42,58536588
601,15,Jits_Phase_8,2,5,56,103,58552652
601,15,Jits_Phase_8,3,5,63,98,58583524
601,15,Jits_Phase_8,0,1,48,44,59284256
601,15,Jits_Phase_8,1,5,56,103,59322748
601,15,Jits_Phase_8,2,5,63,98,59383124
601,15,Jits_Phase_8,3,5,80,127,59442764
601,15,Jits_Phase_8,0,1,48,56,60039132
601,15,Jits_Phase_8,1,5,80,127,60143020
601,15,Jits_Phase_8,2,5,56,103,60162436
601,15,Jits_Phase_8,3,5,63,98,60232940
601,15,Jits_Phase_8,0,1,48,52,60837028
601,15,Jits_Phase_8,1,5,80,127,60942636
601,15,Jits_Phase_8,2,5,63,98,60963168
601,15,Jits_Phase_8,3,5,56,103,60992844
601,15,Jits_Phase_8,0,1,48,43,61646104
601,15,Jits_Phase_8,1,5,80,127,61733116
601,15,Jits_Phase_8,2,5,63,98,61752588
601,15,Jits_Phase_8,3,5,56,103,61813124
601,15,Jits_Phase_8,0,1,48,42,62482804
601,15,Jits_Phase_8,1,5,80,127,62532876
601,15,Jits_Phase_8,2,5,56,103,62633404
601,15,Jits_Phase_8,3,5,63,98,62662956
601,15,Jits_Phase_8,0,5,63,98,63322680
601,15,Jits_Phase_8,1,5,80,127,63372508
601,15,Jits_Phase_8,2,5,56,103,63393116
601,15,Jits_Phase_8,3,1,48,46,63460548
601,15,Jits_Phase_8,0,1,48,45,64162972
601,15,Jits_Phase_8,1,5,80,127,64164460
601,15,Jits_Phase_8,2,5,56,103,64192816
601,15,Jits_Phase_8,3,5,63,98,64195808
601,15,Jits_Phase_8,0,1,48,48,64922608
601,15,Jits_Phase_8,1,5,63,98,65013016
601,15,Jits_Phase_8,2,5,56,103,65052940
601,15,Jits_Phase_8,3,5,80,127,65072576
601,15,Jits_Phase_8,0,1,48,52,65726816
601,15,Jits_Phase_8,1,5,80,127,65772844
601,15,Jits_Phase_8,2,5,63,98,65852704
601,15,Jits_Phase_8,3,5,56,103,65892640
601,15,Jits_Phase_8,0,1,48,55,66518260
601,15,Jits_Phase_8,1,5,63,98,66592988
601,15,Jits_Phase_8,2,5,80,127,66673144
601,15,Jits_Phase_8,3,5,56,103,66692404
601,15,Jits_Phase_8,0,1,48,47,67374448
601,15,Jits_Phase_8,1,5,56,103,67432840
601,15,Jits_Phase_8,2,5,63,98,67443036
601,15,Jits_Phase_8,3,5,80,127,67483032
601,15,Jits_Phase_8,0,5,56,103,68152740
601,15,Jits_Phase_8,1,5,80,127,68155660
601,15,Jits_Phase_8,2,1,48,53,68199532
601,15,Jits_Phase_8,3,5,63,98,68292916
601,15,Jits_Phase_8,0,1,48,50,68940104
601,15,Jits_Phase_8,1,5,56,103,68943432
601,15,Jits_Phase_8,2,5,63,98,69033404
601,15,Jits_Phase_8,3,5,80,127,69102956
601,15,Jits_Phase_8,0,1,48,43,69788416
601,15,Jits_Phase_8,1,5,63,98,69822788
601,15,Jits_Phase_8,2,5,80,127,69826372
601,15,Jits_Phase_8,3,5,56,103,69884428
601,15,Jits_Phase_8,0,1,48,41,70612332
601,15,Jits_Phase_8,1,5,80,127,70662552
601,15,Jits_Phase_8,2,5,56,103,70683084
601,15,Jits_Phase_8,3,5,63,98,70693652
601,15,Jits_Phase_8,0,5,56,103,71373392
601,15,Jits_Phase_8,1,1,48,36,71379876
601,15,Jits_Phase_8,2,5,63,98,71383584
601,15,Jits_Phase_8,3,5,80,127,71453116
601,15,Jits_Phase_8,0,5,80,127,72172872
601,15,Jits_Phase_8,1,1,48,46,72177040
601,15,Jits_Phase_8,2,5,56,103,72223292
601,15,Jits_Phase_8,3,5,63,98,72273476
601,15,Jits_Phase_8,0,1,48,45,72947140
601,15,Jits_Phase_8,1,5,56,103,73052420
601,15,Jits_Phase_8,2,5,63,98,73062764
601,15,Jits_Phase_8,3,5,80,127,73102628
601,15,Jits_Phase_8,0,1,48,43,73789384
601,15,Jits_Phase_8,1,5,56,103,73792940
601,15,Jits_Phase_8,2,5,63,98,73832804
601,15,Jits_Phase_8,3,5,80,127,73883068
601,15,Jits_Phase_8,0,5,80,127,74552628
601,15,Jits_Phase_8,1,1,48,47,74596580
601,15,Jits_Phase_8,2,5,56,103,74602828
601,15,Jits_Phase_8,3,5,63,98,74623660
601,15,Jits_Phase_8,0,5,80,127,75362668
601,15,Jits_Phase_8,1,1,48,45,75397180
601,15,Jits_Phase_8,2,5,63,98,75423276
601,15,Jits_Phase_8,3,5,56,103,75502856
601,15,Jits_Phase_8,0,5,80,127,76142816
601,15,Jits_Phase_8,1,1,48,46,76167660
601,15,Jits_Phase_8,2,5,56,103,76182824
601,15,Jits_Phase_8,3,5,63,98,76203504
601,15,Jits_Phase_8,0,1,48,51,76934760
601,15,Jits_Phase_8,1,5,56,103,76992804
601,15,Jits_Phase_8,2,5,80,127,77003444
601,15,Jits_Phase_8,3,5,63,98,77043144
601,15,Jits_Phase_8,0,1,48,47,77748896
601,15,Jits_Phase_8,1,5,56,103,77863420
601,15,Jits_Phase_8,2,5,63,98,77903356
601,15,Jits_Phase_8,3,5,80,127,77906644
601,15,Jits_Phase_8,0,5,63,98,78533064
601,15,Jits_Phase_8,1,5,80,127,78573080
601,15,Jits_Phase_8,2,1,48,47,78586756
601,15,Jits_Phase_8,3,5,56,103,78642676
601,15,Jits_Phase_8,0,5,63,98,79303232
601,15,Jits_Phase_8,1,1,48,44,79356620
601,15,Jits_Phase_8,2,5,56,103,79382872
601,15,Jits_Phase_8,3,5,80,127,79443264
601,15,Jits_Phase_8,0,5,80,127,80113108
601,15,Jits_Phase_8,1,1,48,45,80139376
601,15,Jits_Phase_8,2,5,63,98,80163304
601,15,Jits_Phase_8,3,5,56,103,80192980
601,15,Jits_Phase_8,0,5,56,103,80902616
601,15,Jits_Phase_8,1,1,48,46,80939444
601,15,Jits_Phase_8,2,5,63,98,80952664
601,15,Jits_Phase_8,3,5,80,127,80962860
601,15,Jits_Phase_8,0,5,56,103,81712500
601,15,Jits_Phase_8,1,1,48,37,81720796
601,15,Jits_Phase_8,2,5,63,98,81823288
601,15,Jits_Phase_8,3,5,80,127,81842624
601,15,Jits_Phase_8,0,1,48,46,82507296
601,15,Jits_Phase_8,1,5,63,98,82513320
601,15,Jits_Phase_8,2,5,80,127,82562404
601,15,Jits_Phase_8,3,5,56,103,82652396
601,15,Jits_Phase_8,0,1,48,44,83296644
601,15,Jits_Phase_8,1,5,63,98,83302744
601,15,Jits_Phase_8,2,5,80,127,83332420
601,15,Jits_Phase_8,3,5,56,103,83422560
601,15,Jits_Phase_8,0,1,48,41,84073556
601,15,Jits_Phase_8,1,5,63,98,84102572
601,15,Jits_Phase_8,2,5,56,103,84112916
601,15,Jits_Phase_8,3,5,80,127,84213172
601,15,Jits_Phase_8,0,1,48,46,84916756
601,15,Jits_Phase_8,1,5,63,98,85002600
601,15,Jits_Phase_8,2,5,80,127,85033232
601,15,Jits_Phase_8,3,5,56,103,85063056
601,15,Jits_Phase_8,0,1,48,50,85769296
601,15,Jits_Phase_8,1,5,80,127,85823044
601,15,Jits_Phase_8,2,5,63,98,85833164
601,15,Jits_Phase_8,3,5,56,103,85862912
601,15,Jits_Phase_8,0,5,80,127,86523396
601,15,Jits_Phase_8,1,5,63,98,86542808
601,15,Jits_Phase_8,2,5,56,103,86593304
601,15,Jits_Phase_8,3,1,48,48,86599196
601,15,Jits_Phase_8,0,1,48,48,87348680
601,15,Jits_Phase_8,1,5,63,98,87352904
601,15,Jits_Phase_8,2,5,80,127,87413148
601,15,Jits_Phase_8,3,5,56,103,87432636
601,15,Jits_Phase_8,0,5,63,98,88112516
601,15,Jits_Phase_8,1,1,48,45,88133248
601,15,Jits_Phase_8,2,5,56,103,88162936
601,15,Jits_Phase_8,3,5,80,127,88172908
601,15,Jits_Phase_8,0,1,48,48,88929016
601,15,Jits_Phase_8,1,5,56,103,88942912
601,15,Jits_Phase_8,2,5,80,127,88953108
601,15,Jits_Phase_8,3,5,63,98,89052464
601,15,Jits_Phase_8,0,5,80,127,89702968
601,15,Jits_Phase_8,1,5,63,98,89713088
601,15,Jits_Phase_8,2,1,48,46,89719424
601,15,Jits_Phase_8,3,5,56,103,89862484
601,15,Jits_Phase_8,0,1,48,48,90471844
601,15,Jits_Phase_8,1,5,63,98,90512920
601,15,Jits_Phase_8,2,5,80,127,90552812
601,15,Jits_Phase_8,3,5,56,103,90632592
601,15,Jits_Phase_8,0,5,56,103,91263388
601,15,Jits_Phase_8,1,1,48,43,91273408
601,15,Jits_Phase_8,2,5,80,127,91362760
601,15,Jits_Phase_8,3,5,63,98,91383128
601,15,Jits_Phase_8,0,1,48,48,92061644
601,15,Jits_Phase_8,1,5,80,127,92082424
601,15,Jits_Phase_8,2,5,56,103,92093088
601,15,Jits_Phase_8,3,5,63,98,92182836
601,15,Jits_Phase_8,0,1,48,39,92813384
601,15,Jits_Phase_8,1,5,56,103,92883260
601,15,Jits_Phase_8,2,5,63,98,92903044
601,15,Jits_Phase_8,3,5,80,127,92982824
601,15,Jits_Phase_8,0,1,48,37,93614792
601,15,Jits_Phase_8,1,5,63,98,93632900
601,15,Jits_Phase_8,2,5,56,103,93722944
601,15,Jits_Phase_8,3,5,80,127,93726008
601,15,Jits_Phase_8,0,1,48,30,94402284
601,15,Jits_Phase_8,1,5,56,103,94463296
601,15,Jits_Phase_8,2,5,80,127,94522996
601,15,Jits_Phase_8,3,5,63,98,94532972
601,15,Jits_Phase_8,0,1,48,37,95155264
601,15,Jits_Phase_8,1,5,80,127,95313232
601,15,Jits_Phase_8,2,5,56,103,95322376
601,15,Jits_Phase_8,3,5,63,98,95325596
601,15,Jits_Phase_8,0,1,48,39,96034084
601,15,Jits_Phase_8,1,5,56,103,96073216
601,15,Jits_Phase_8,2,5,80,127,96083264
601,15,Jits_Phase_8,3,5,63,98,96102976
601,15,Jits_Phase_8,0,1,48,35,96775848
601,15,Jits_Phase_8,1,5,63,98,96843084
601,15,Jits_Phase_8,2,5,80,127,96902784
601,15,Jits_Phase_8,3,5,56,103,96952864
601,15,Jits_Phase_8,0,1,48,34,97566996
601,15,Jits_Phase_8,1,5,63,98,97722944
601,15,Jits_Phase_8,2,5,56,103,97732920
601,15,Jits_Phase_8,3,5,80,127,97783196
601,15,Jits_Phase_8,0,1,48,43,98416508
601,15,Jits_Phase_8,1,5,63,98,98423060
601,15,Jits_Phase_8,2,5,80,127,98442772
601,15,Jits_Phase_8,3,5,56,103,98452744
601,15,Jits_Phase_8,0,1,48,45,99185920
601,15,Jits_Phase_8,1,5,63,98,99222960
601,15,Jits_Phase_8,2,5,80,127,99226324
601,15,Jits_Phase_8,3,5,56,103,99262920
601,15,Jits_Phase_8,0,1,48,22,100092860
601,15,Jits_Phase_8,1,5,63,98,100094428
601,15,Jits_Phase_8,2,5,80,127,100122984
601,15,Jits_Phase_8,3,5,56,103,100133180
601,15,Jits_Phase_8,0,5,56,103,100842880
601,15,Jits_Phase_8,1,5,80,127,100872704
601,15,Jits_Phase_8,2,5,63,98,100903428
601,15,Jits_Phase_8,3,1,48,34,100906248
601,15,Jits_Phase_8,0,5,63,98,101742896
601,15,Jits_Phase_8,1,5,56,103,101782836
601,15,Jits_Phase_8,2,5,80,127,101785976
601,15,Jits_Phase_8,0,5,80,127,102443528
601,15,Jits_Phase_8,1,1,48,42,102501044
601,15,Jits_Phase_8,2,5,56,103,102523392
601,15,Jits_Phase_8,3,5,63,98,102573664
601,15,Jits_Phase_8,0,5,80,127,103222848
601,15,Jits_Phase_8,1,5,56,103,103243160
601,15,Jits_Phase_8,2,1,48,45,103292284
601,15,Jits_Phase_8,3,5,63,98,103333208
601,15,Jits_Phase_8,0,1,48,54,104054652
601,15,Jits_Phase_8,1,5,80,127,104063596
601,15,Jits_Phase_8,2,5,63,98,104103384
601,15,Jits_Phase_8,3,5,56,103,104143276
601,15,Jits_Phase_8,0,1,48,51,104827292
601,15,Jits_Phase_8,1,5,63,98,104873620
601,15,Jits_Phase_8,2,5,80,127,104932680
601,15,Jits_Phase_8,3,5,56,103,104962580
601,15,Jits_Phase_8,0,1,48,53,105611624
601,15,Jits_Phase_8,1,5,56,103,105712948
601,15,Jits_Phase_8,2,5,80,127,105742700
601,15,Jits_Phase_8,3,5,63,98,105832904
601,15,Jits_Phase_8,0,1,48,34,106476732
601,15,Jits_Phase_8,1,5,56,103,106523060
601,15,Jits_Phase_8,2,5,80,127,106632660
601,15,Jits_Phase_8,3,5,63,98,106663236
601,15,Jits_Phase_8,0,1,48,41,107308044
601,15,Jits_Phase_8,1,5,56,103,107372956
601,15,Jits_Phase_8,2,5,63,98,107433408
601,15,Jits_Phase_8,3,5,80,127,107462956
601,15,Jits_Phase_8,0,5,56,103,108142912
601,15,Jits_Phase_8,1,1,48,35,108151360
601,15,Jits_Phase_8,2,5,63,98,108212736
601,15,Jits_Phase_8,3,5,80,127,108233072
601,15,Jits_Phase_8,0,5,80,127,108912868
601,15,Jits_Phase_8,1,5,63,98,108932656
601,15,Jits_Phase_8,2,1,48,41,108941252
601,15,Jits_Phase_8,3,5,56,103,108982724
601,15,Jits_Phase_8,0,1,48,34,109717624
601,15,Jits_Phase_8,1,5,63,98,109733384
601,15,Jits_Phase_8,2,5,80,127,109742684
601,15,Jits_Phase_8,3,5,56,103,109792760
601,15,Jits_Phase_8,0,1,48,42,110520864
601,15,Jits_Phase_8,1,5,63,98,110532948
601,15,Jits_Phase_8,2,5,80,127,110602480
601,15,Jits_Phase_8,3,5,56,103,110623296
601,15,Jits_Phase_8,0,1,48,37,111351200
601,15,Jits_Phase_8,1,5,63,98,111362532
601,15,Jits_Phase_8,2,5,80,127,111365892
601,15,Jits_Phase_8,3,5,56,103,111433032
601,15,Jits_Phase_8,0,5,80,127,112112992
601,15,Jits_Phase_8,1,5,56,103,112132708
601,15,Jits_Phase_8,2,5,63,98,112142756
601,15,Jits_Phase_8,3,1,48,43,112154412
601,15,Jits_Phase_8,0,1,48,37,112863584
601,15,Jits_Phase_8,1,5,56,103,112933364
601,15,Jits_Phase_8,2,5,63,98,113023556
601,15,Jits_Phase_8,3,5,80,127,113026848
601,15,Jits_Phase_8,0,1,48,40,113670320
601,15,Jits_Phase_8,1,5,80,127,113703448
601,15,Jits_Phase_8,2,5,56,103,113712596
601,15,Jits_Phase_8,3,5,63,98,113732908
601,15,Jits_Phase_8,0,1,48,32,114469452
601,15,Jits_Phase_8,1,5,63,98,114503200
601,15,Jits_Phase_8,2,5,80,127,114562904
601,15,Jits_Phase_8,3,5,56,103,114572652
601,15,Jits_Phase_8,0,1,48,29,115252368
601,15,Jits_Phase_8,1,5,63,98,115373596
601,15,Jits_Phase_8,2,5,80,127,115403596
601,15,Jits_Phase_8,3,5,56,103,115442940
601,15,Jits_Phase_8,0,1,48,34,116135736
601,15,Jits_Phase_8,1,5,56,103,116163064
601,15,Jits_Phase_8,2,5,80,127,116173336
601,15,Jits_Phase_8,3,5,63,98,116213348
601,15,Jits_Phase_8,0,5,80,127,116922752
601,15,Jits_Phase_8,1,1,48,34,116928264
601,15,Jits_Phase_8,2,5,56,103,117002544
601,15,Jits_Phase_8,3,5,63,98,117012740
601,15,Jits_Phase_8,0,1,48,25,117757260
601,15,Jits_Phase_8,1,5,80,127,117772796
601,15,Jits_Phase_8,2,5,56,103,117852504
601,15,Jits_Phase_8,3,5,63,98,117862776
601,15,Jits_Phase_8,0,1,48,33,118584608
601,15,Jits_Phase_8,1,5,80,127,118613252
601,15,Jits_Phase_8,2,5,56,103,118662408
601,15,Jits_Phase_8,3,5,63,98,118712544
601,15,Jits_Phase_8,0,1,48,24,119454188
601,15,Jits_Phase_8,1,5,56,103,119553868
601,15,Jits_Phase_8,2,5,63,98,119556856
601,15,Jits_Phase_8,3,5,80,127,119602496
601,15,Jits_Phase_8,0,1,48,19,120267452
601,15,Jits_Phase_8,1,5,56,103,120372660
601,15,Jits_Phase_8,2,5,63,98,120403308
601,15,Jits_Phase_8,3,5,80,127,120412380
601,15,Jits_Phase_8,0,5,63,98,121083220
601,15,Jits_Phase_8,1,5,56,103,121152752
601,15,Jits_Phase_8,2,1,48,35,121168080
601,15,Jits_Phase_8,3,5,80,127,121203168
601,15,Jits_Phase_8,0,1,48,41,121873212
601,15,Jits_Phase_8,1,5,63,98,121912648
601,15,Jits_Phase_8,2,5,56,103,121923136
601,15,Jits_Phase_8,3,5,80,127,121926128
601,15,Jits_Phase_8,0,5,80,127,122663328
601,15,Jits_Phase_8,1,1,48,27,122680224
601,15,Jits_Phase_8,2,5,56,103,122722668
601,15,Jits_Phase_8,3,5,63,98,122812732
601,15,Jits_Phase_8,0,1,48,35,123451096
601,15,Jits_Phase_8,1,5,80,127,123463104
601,15,Jits_Phase_8,2,5,56,103,123563336
601,15,Jits_Phase_8,3,5,63,98,123603300
601,15,Jits_Phase_8,0,1,48,18,124283816
601,15,Jits_Phase_8,1,5,56,103,124313064
601,15,Jits_Phase_8,2,5,63,98,124333300
601,15,Jits_Phase_8,3,5,80,127,124373336
601,15,Jits_Phase_8,0,1,48,46,125053764
601,15,Jits_Phase_8,1,5,63,98,125083160
601,15,Jits_Phase_8,2,5,56,103,125102424
601,15,Jits_Phase_8,3,5,80,127,125202828
601,15,Jits_Phase_8,0,1,48,52,125816140
601,15,Jits_Phase_8,1,5,63,98,125872512
601,15,Jits_Phase_8,2,5,80,127,125983256
601,15,Jits_Phase_8,3,5,56,103,126012860
601,15,Jits_Phase_8,0,1,48,59,126652276
601,15,Jits_Phase_8,1,5,56,103,126692684
601,15,Jits_Phase_8,2,5,63,98,126722288
601,15,Jits_Phase_8,3,5,80,127,126772624
601,15,Jits_Phase_8,0,5,63,98,127462860
601,15,Jits_Phase_8,1,5,56,103,127492612
601,15,Jits_Phase_8,2,1,48,31,127493576
601,15,Jits_Phase_8,3,5,80,127,127542656
601,15,Jits_Phase_8,0,1,48,52,128223556
601,15,Jits_Phase_8,1,5,56,103,128293180
601,15,Jits_Phase_8,2,5,63,98,128312892
601,15,Jits_Phase_8,3,5,80,127,128392520
601,15,Jits_Phase_8,0,1,48,47,129016488
601,15,Jits_Phase_8,1,5,63,98,129063348
601,15,Jits_Phase_8,2,5,56,103,129122528
601,15,Jits_Phase_8,3,5,80,127,129153324
601,15,Jits_Phase_8,0,1,48,46,129837452
601,15,Jits_Phase_8,1,5,56,103,129903040
601,15,Jits_Phase_8,2,5,80,127,129963340
601,15,Jits_Phase_8,3,5,63,98,130003380
601,15,Jits_Phase_8,0,1,48,49,130672512
601,15,Jits_Phase_8,1,5,63,98,130683248
601,15,Jits_Phase_8,2,5,56,103,130742544
601,15,Jits_Phase_8,3,5,80,127,130813328
601,15,Jits_Phase_8,0,1,48,45,131457588
601,15,Jits_Phase_8,1,5,56,103,131562820
601,15,Jits_Phase_8,2,5,63,98,131573008
601,15,Jits_Phase_8,3,5,80,127,131576376
601,15,Jits_Phase_8,0,1,48,48,132278868
601,15,Jits_Phase_8,1,5,63,98,132303324
601,15,Jits_Phase_8,2,5,56,103,132362668
601,15,Jits_Phase_8,3,5,80,127,132365584
601,15,Jits_Phase_8,0,5,63,98,133082560
601,15,Jits_Phase_8,1,1,48,48,133088300
601,15,Jits_Phase_8,2,5,80,127,133113052
601,15,Jits_Phase_8,3,5,56,103,133132760
601,15,Jits_Phase_8,0,5,56,103,133812788
601,15,Jits_Phase_8,1,5,63,98,133862916
601,15,Jits_Phase_8,2,1,48,33,133905364
601,15,Jits_Phase_8,3,5,80,127,133942776
601,15,Jits_Phase_8,0,5,80,127,134512908
601,15,Jits_Phase_8,1,5,63,98,134552996
601,15,Jits_Phase_8,2,5,56,103,134573456
601,15,Jits_Phase_8,3,1,48,51,134598772
601,15,Jits_Phase_8,0,1,48,41,135299228
601,15,Jits_Phase_8,1,5,56,103,135383420
601,15,Jits_Phase_8,2,5,80,127,135392572
601,15,Jits_Phase_8,3,5,63,98,135413016
601,15,Jits_Phase_8,0,1,48,48,136054792
601,15,Jits_Phase_8,1,5,56,103,136162716
601,15,Jits_Phase_8,2,5,63,98,136212844
601,15,Jits_Phase_8,3,5,80,127,136242520
601,15,Jits_Phase_8,0,5,56,103,136913128
601,15,Jits_Phase_8,1,1,48,54,136920836
601,15,Jits_Phase_8,2,5,63,98,136922420
601,15,Jits_Phase_8,3,5,80,127,136972844
601,15,Jits_Phase_8,0,5,56,103,137702780
601,15,Jits_Phase_8,1,5,80,127,137705920
601,15,Jits_Phase_8,2,1,48,45,137722088
601,15,Jits_Phase_8,3,5,63,98,137862636
601,15,Jits_Phase_8,0,1,48,48,138472552
601,15,Jits_Phase_8,1,5,63,98,138522920
601,15,Jits_Phase_8,2,5,56,103,138592736
601,15,Jits_Phase_8,3,5,80,127,138632524
601,15,Jits_Phase_8,0,1,48,49,139263840
601,15,Jits_Phase_8,1,5,63,98,139362824
601,15,Jits_Phase_8,2,5,56,103,139452836
601,15,Jits_Phase_8,3,5,80,127,139455972
601,15,Jits_Phase_8,0,1,48,42,140114772
601,15,Jits_Phase_8,1,5,56,103,140142896
601,15,Jits_Phase_8,2,5,63,98,140233116
601,15,Jits_Phase_8,3,5,80,127,140243384
601,15,Jits_Phase_8,0,5,56,103,140912924
601,15,Jits_Phase_8,1,1,48,51,140921816
601,15,Jits_Phase_8,2,5,63,98,140963124
601,15,Jits_Phase_8,3,5,80,127,140992896
601,15,Jits_Phase_8,0,1,48,54,141663516
601,15,Jits_Phase_8,1,5,63,98,141792792
601,15,Jits_Phase_8,2,5,80,127,141802840
601,15,Jits_Phase_8,3,5,56,103,141863152
601,15,Jits_Phase_8,0,1,48,48,142461712
601,15,Jits_Phase_8,1,5,63,98,142512756
601,15,Jits_Phase_8,2,5,80,127,142572864
601,15,Jits_Phase_8,3,5,56,103,142612952
601,15,Jits_Phase_8,0,1,48,47,143294688
601,15,Jits_Phase_8,1,5,56,103,143412628
601,15,Jits_Phase_8,2,5,80,127,143433016
601,15,Jits_Phase_8,3,5,63,98,143452800
601,15,Jits_Phase_8,0,1,48,40,144092064
601,15,Jits_Phase_8,1,5,63,98,144132400
601,15,Jits_Phase_8,2,5,56,103,144153008
601,15,Jits_Phase_8,3,5,80,127,144192856
601,15,Jits_Phase_8,0,1,48,52,144853536
601,15,Jits_Phase_8,1,5,63,98,144942720
601,15,Jits_Phase_8,2,5,80,127,144973132
601,15,Jits_Phase_8,3,5,56,103,144992620
601,15,Jits_Phase_8,0,1,48,53,145611644
601,15,Jits_Phase_8,1,5,80,127,145712572
601,15,Jits_Phase_8,2,5,56,103,145762776
601,15,Jits_Phase_8,3,5,63,98,145823016
601,15,Jits_Phase_8,0,1,48,55,146414472
601,15,Jits_Phase_8,1,5,63,98,146502912
601,15,Jits_Phase_8,2,5,56,103,146622800
601,15,Jits_Phase_8,3,5,80,127,146652696
601,15,Jits_Phase_8,0,1,48,47,147276420
601,15,Jits_Phase_8,1,5,80,127,147342836
601,15,Jits_Phase_8,2,5,63,98,147363148
601,15,Jits_Phase_8,3,5,56,103,147432764
601,15,Jits_Phase_8,0,1,48,48,148068244
601,15,Jits_Phase_8,1,5,63,98,148162856
601,15,Jits_Phase_8,2,5,56,103,148173112
601,15,Jits_Phase_8,3,5,80,127,148252904
601,15,Jits_Phase_8,0,1,48,52,148857596
601,15,Jits_Phase_8,1,5,56,103,149023068
601,15,Jits_Phase_8,2,5,80,127,149052668
601,15,Jits_Phase_8,3,5,63,98,149063012
601,15,Jits_Phase_8,0,9999,9999,9999,14180460
601,15,Jits_Phase_8,1,9999,9999,9999,14980212
601,15,Jits_Phase_8,2,9999,9999,9999,15780952
601,15,Jits_Phase_8,3,9999,9999,9999,16580676
601,15,Jits_Phase_8,4,9999,9999,9999,17380416
601,15,Jits_Phase_8,5,9999,9999,9999,18180180
601,15,Jits_Phase_8,6,9999,9999,9999,18980984
601,15,Jits_Phase_8,7,9999,9999,9999,19780668
601,15,Jits_Phase_8,8,9999,9999,9999,20580436
601,15,Jits_Phase_8,9,9999,9999,9999,21380184
601,15,Jits_Phase_8,10,9999,9999,9999,22180940
601,15,Jits_Phase_8,11,9999,9999,9999,22980728
601,15,Jits_Phase_8,12,9999,9999,9999,23780420
601,15,Jits_Phase_8,13,9999,9999,9999,24580188
601,15,Jits_Phase_8,14,9999,9999,9999,25380984
601,15,Jits_Phase_8,15,9999,9999,9999,26180676
601,15,Jits_Phase_8,16,9999,9999,9999,26980420
601,15,Jits_Phase_8,17,9999,9999,9999,27780200
601,15,Jits_Phase_8,18,9999,9999,9999,28580932
601,15,Jits_Phase_8,19,9999,9999,9999,29380720
601,15,Jits_Phase_8,20,9999,9999,9999,30180404
601,15,Jits_Phase_8,21,9999,9999,9999,30980168
601,15,Jits_Phase_8,22,9999,9999,9999,31780968
601,15,Jits_Phase_8,23,9999,9999,9999,32580724
601,15,Jits_Phase_8,24,9999,9999,9999,33380476
601,15,Jits_Phase_8,25,9999,9999,9999,34180160
601,15,Jits_Phase_8,26,9999,9999,9999,34980968
601,15,Jits_Phase_8,27,9999,9999,9999,35780676
601,15,Jits_Phase_8,28,9999,9999,9999,36580436
601,15,Jits_Phase_8,29,9999,9999,9999,37380204
601,15,Jits_Phase_8,30,9999,9999,9999,38160484
601,15,Jits_Phase_8,31,9999,9999,9999,38960248
601,15,Jits_Phase_8,32,9999,9999,9999,39760988
601,15,Jits_Phase_8,33,9999,9999,9999,40560760
601,15,Jits_Phase_8,34,9999,9999,9999,41360440
601,15,Jits_Phase_8,35,9999,9999,9999,42160212
601,15,Jits_Phase_8,36,9999,9999,9999,42960968
601,15,Jits_Phase_8,37,9999,9999,9999,43760732
601,15,Jits_Phase_8,38,9999,9999,9999,44560488
601,15,Jits_Phase_8,39,9999,9999,9999,45360252
601,15,Jits_Phase_8,40,9999,9999,9999,46160988
601,15,Jits_Phase_8,41,9999,9999,9999,46960748
601,15,Jits_Phase_8,42,9999,9999,9999,47760504
601,15,Jits_Phase_8,43,9999,9999,9999,48560184
601,15,Jits_Phase_8,44,9999,9999,9999,49360992
601,15,Jits_Phase_8,45,9999,9999,9999,50160760
601,15,Jits_Phase_8,46,9999,9999,9999,50960448
601,15,Jits_Phase_8,47,9999,9999,9999,51760204
601,15,Jits_Phase_8,48,9999,9999,9999,52580416
601,15,Jits_Phase_8,49,9999,9999,9999,53380172
601,15,Jits_Phase_8,50,9999,9999,9999,54180976
601,15,Jits_Phase_8,51,9999,9999,9999,54980692
601,15,Jits_Phase_8,52,9999,9999,9999,55780452
601,15,Jits_Phase_8,53,9999,9999,9999,56580220
601,15,Jits_Phase_8,54,9999,9999,9999,57380948
601,15,Jits_Phase_8,55,9999,9999,9999,58180724
601,15,Jits_Phase_8,56,9999,9999,9999,58980460
601,15,Jits_Phase_8,57,9999,9999,9999,59780160
601,15,Jits_Phase_8,58,9999,9999,9999,60580968
601,15,Jits_Phase_8,59,9999,9999,9999,61380676
601,15,Jits_Phase_8,60,9999,9999,9999,62180436
601,15,Jits_Phase_8,61,9999,9999,9999,62980200
601,15,Jits_Phase_8,62,9999,9999,9999,63780928
601,15,Jits_Phase_8,63,9999,9999,9999,64580684
601,15,Jits_Phase_8,64,9999,9999,9999,65420380
601,15,Jits_Phase_8,65,9999,9999,9999,66220144
601,15,Jits_Phase_8,66,9999,9999,9999,67020908
601,15,Jits_Phase_8,67,9999,9999,9999,67820600
601,15,Jits_Phase_8,68,9999,9999,9999,68620348
601,15,Jits_Phase_8,69,9999,9999,9999,69420124
601,15,Jits_Phase_8,70,9999,9999,9999,70220852
601,15,Jits_Phase_8,71,9999,9999,9999,71020624
601,15,Jits_Phase_8,72,9999,9999,9999,71820384
601,15,Jits_Phase_8,73,9999,9999,9999,72620088
601,15,Jits_Phase_8,74,9999,9999,9999,73420868
601,15,Jits_Phase_8,75,9999,9999,9999,74220636
601,15,Jits_Phase_8,76,9999,9999,9999,75020396
601,15,Jits_Phase_8,77,9999,9999,9999,75820096
601,15,Jits_Phase_8,78,9999,9999,9999,76620916
601,15,Jits_Phase_8,79,9999,9999,9999,77420616
601,15,Jits_Phase_8,80,9999,9999,9999,78220376
601,15,Jits_Phase_8,81,9999,9999,9999,78980204
601,15,Jits_Phase_8,82,9999,9999,9999,79780940
601,15,Jits_Phase_8,83,9999,9999,9999,80580724
601,15,Jits_Phase_8,84,9999,9999,9999,81380420
601,15,Jits_Phase_8,85,9999,9999,9999,82180196
601,15,Jits_Phase_8,86,9999,9999,9999,82980948
601,15,Jits_Phase_8,87,9999,9999,9999,83780700
601,15,Jits_Phase_8,88,9999,9999,9999,84580456
601,15,Jits_Phase_8,89,9999,9999,9999,85380148
601,15,Jits_Phase_8,90,9999,9999,9999,86180964
601,15,Jits_Phase_8,91,9999,9999,9999,86980672
601,15,Jits_Phase_8,92,9999,9999,9999,87780452
601,15,Jits_Phase_8,93,9999,9999,9999,88580208
601,15,Jits_Phase_8,94,9999,9999,9999,89380940
601,15,Jits_Phase_8,95,9999,9999,9999,90180696
601,15,Jits_Phase_8,96,9999,9999,9999,90980472
601,15,Jits_Phase_8,97,9999,9999,9999,91700296
601,15,Jits_Phase_8,98,9999,9999,9999,92501052
601,15,Jits_Phase_8,99,9999,9999,9999,93300812
601,15,Jits_Phase_8,100,9999,9999,9999,94100564
601,15,Jits_Phase_8,101,9999,9999,9999,94900328
601,15,Jits_Phase_8,102,9999,9999,9999,95701076
601,15,Jits_Phase_8,103,9999,9999,9999,96500836
601,15,Jits_Phase_8,104,9999,9999,9999,97300596
601,15,Jits_Phase_8,105,9999,9999,9999,98100292
601,15,Jits_Phase_8,106,9999,9999,9999,98901088
601,15,Jits_Phase_8,107,9999,9999,9999,99700832
601,15,Jits_Phase_8,108,9999,9999,9999,100500600
601,15,Jits_Phase_8,109,9999,9999,9999,101300284
601,15,Jits_Phase_8,110,9999,9999,9999,102101076
601,15,Jits_Phase_8,111,9999,9999,9999,102900808
601,15,Jits_Phase_8,112,9999,9999,9999,103700580
601,15,Jits_Phase_8,113,9999,9999,9999,104500284
601,15,Jits_Phase_8,114,9999,9999,9999,105380952
601,15,Jits_Phase_8,115,9999,9999,9999,106180664
601,15,Jits_Phase_8,116,9999,9999,9999,106980428
601,15,Jits_Phase_8,117,9999,9999,9999,107780200
601,15,Jits_Phase_8,118,9999,9999,9999,108580936
601,15,Jits_Phase_8,119,9999,9999,9999,109380704
601,15,Jits_Phase_8,120,9999,9999,9999,110180404
601,15,Jits_Phase_8,121,9999,9999,9999,110980172
601,15,Jits_Phase_8,122,9999,9999,9999,111780972
601,15,Jits_Phase_8,123,9999,9999,9999,112580680
601,15,Jits_Phase_8,124,9999,9999,9999,113380452
601,15,Jits_Phase_8,125,9999,9999,9999,114180208
601,15,Jits_Phase_8,126,9999,9999,9999,114980936
601,15,Jits_Phase_8,127,9999,9999,9999,115780704
601,15,Jits_Phase_8,128,9999,9999,9999,116580468
601,15,Jits_Phase_8,129,9999,9999,9999,117380156
601,15,Jits_Phase_8,130,9999,9999,9999,118180992
601,15,Jits_Phase_8,131,9999,9999,9999,119140432
601,15,Jits_Phase_8,132,9999,9999,9999,119940192
601,15,Jits_Phase_8,133,9999,9999,9999,120740932
601,15,Jits_Phase_8,134,9999,9999,9999,121540724
601,15,Jits_Phase_8,135,9999,9999,9999,122340472
601,15,Jits_Phase_8,136,9999,9999,9999,123140164
601,15,Jits_Phase_8,137,9999,9999,9999,123940920
601,15,Jits_Phase_8,138,9999,9999,9999,124740684
601,15,Jits_Phase_8,139,9999,9999,9999,125540448
601,15,Jits_Phase_8,140,9999,9999,9999,126340216
601,15,Jits_Phase_8,141,9999,9999,9999,127140952
601,15,Jits_Phase_8,142,9999,9999,9999,127940660
601,15,Jits_Phase_8,143,9999,9999,9999,128740424
601,15,Jits_Phase_8,144,9999,9999,9999,129540184
601,15,Jits_Phase_8,145,9999,9999,9999,130340920
601,15,Jits_Phase_8,146,9999,9999,9999,131140688
601,15,Jits_Phase_8,147,9999,9999,9999,131940448
601,15,Jits_Phase_8,148,9999,9999,9999,132740200
601,15,Jits_Phase_8,149,9999,9999,9999,133540932
601,15,Jits_Phase_8,150,9999,9999,9999,134180972
601,15,Jits_Phase_8,151,9999,9999,9999,134980672
601,15,Jits_Phase_8,152,9999,9999,9999,135780448
601,15,Jits_Phase_8,153,9999,9999,9999,136580212
601,15,Jits_Phase_8,154,9999,9999,9999,137380936
601,15,Jits_Phase_8,155,9999,9999,9999,138180728
601,15,Jits_Phase_8,156,9999,9999,9999,138980432
601,15,Jits_Phase_8,157,9999,9999,9999,139780188
601,15,Jits_Phase_8,158,9999,9999,9999,140580932
601,15,Jits_Phase_8,159,9999,9999,9999,141380688
601,15,Jits_Phase_8,160,9999,9999,9999,142180468
601,15,Jits_Phase_8,161,9999,9999,9999,142980160
601,15,Jits_Phase_8,162,9999,9999,9999,143780976
601,15,Jits_Phase_8,163,9999,9999,9999,144580688
601,15,Jits_Phase_8,164,9999,9999,9999,145380452
601,15,Jits_Phase_8,165,9999,9999,9999,146180212
601,15,Jits_Phase_8,166,9999,9999,9999,146980952
601,15,Jits_Phase_8,167,9999,9999,9999,147780716
601,15,Jits_Phase_8,168,9999,9999,9999,148580412
601,15,Jits_Phase_8,169,9999,9999,9999,149380180
602,17,Jits_Phase_5,0,5,56,103,160161228
602,17,Jits_Phase_5,1,5,63,98,160164248
602,17,Jits_Phase_5,2,5,80,127,160167448
602,17,Jits_Phase_5,0,5,56,103,160660892
602,17,Jits_Phase_5,1,5,63,98,160664068
602,17,Jits_Phase_5,2,5,80,127,160667412
602,17,Jits_Phase_5,0,5,56,103,161160500
602,17,Jits_Phase_5,1,5,80,127,161170844
602,17,Jits_Phase_5,2,5,63,98,161191528
602,17,Jits_Phase_5,0,5,63,98,161611260
602,17,Jits_Phase_5,1,5,80,127,161640860
602,17,Jits_Phase_5,2,5,56,103,161651132
602,17,Jits_Phase_5,0,5,80,127,162171388
602,17,Jits_Phase_5,1,5,56,103,162180388
602,17,Jits_Phase_5,2,5,63,98,162211260
602,17,Jits_Phase_5,0,5,63,98,162660596
602,17,Jits_Phase_5,1,5,56,103,162690416
602,17,Jits_Phase_5,2,5,80,127,162700540
602,17,Jits_Phase_5,0,5,56,103,163111340
602,17,Jits_Phase_5,1,5,63,98,163160572
602,17,Jits_Phase_5,2,5,80,127,163180880
602,17,Jits_Phase_5,0,5,80,127,163611100
602,17,Jits_Phase_5,1,5,63,98,163661304
602,17,Jits_Phase_5,2,5,56,103,163701388
602,17,Jits_Phase_5,0,5,56,103,164110564
602,17,Jits_Phase_5,1,5,63,98,164141360
602,17,Jits_Phase_5,2,5,80,127,164211560
602,17,Jits_Phase_5,3,1,48,42,164248700
602,17,Jits_Phase_5,0,5,56,103,164610480
602,17,Jits_Phase_5,1,5,80,127,164670720
602,17,Jits_Phase_5,2,5,63,98,164700468
602,17,Jits_Phase_5,3,1,48,39,164705308
602,17,Jits_Phase_5,0,5,56,103,165121412
602,17,Jits_Phase_5,1,5,63,98,165130484
602,17,Jits_Phase_5,2,5,80,127,165170496
602,17,Jits_Phase_5,3,1,48,41,165224480
602,17,Jits_Phase_5,0,5,63,98,165610836
602,17,Jits_Phase_5,1,5,80,127,165690632
602,17,Jits_Phase_5,2,5,56,103,165701348
602,17,Jits_Phase_5,3,1,48,35,165737272
602,17,Jits_Phase_5,0,5,63,98,166160712
602,17,Jits_Phase_5,1,5,56,103,166200648
602,17,Jits_Phase_5,2,5,80,127,166203716
602,17,Jits_Phase_5,3,1,48,35,166261152
602,17,Jits_Phase_5,0,5,56,103,166620456
602,17,Jits_Phase_5,1,5,63,98,166630728
602,17,Jits_Phase_5,2,5,80,127,166670660
602,17,Jits_Phase_5,3,1,48,34,166787636
602,17,Jits_Phase_5,0,5,56,103,167111148
602,17,Jits_Phase_5,1,5,63,98,167114216
602,17,Jits_Phase_5,2,5,80,127,167130412
602,17,Jits_Phase_5,3,1,48,35,167287684
602,17,Jits_Phase_5,0,5,80,127,167621172
602,17,Jits_Phase_5,1,5,56,103,167631292
602,17,Jits_Phase_5,2,5,63,98,167700968
602,17,Jits_Phase_5,3,1,48,31,167789564
602,17,Jits_Phase_5,0,5,63,98,168110500
602,17,Jits_Phase_5,1,5,56,103,168131208
602,17,Jits_Phase_5,2,5,80,127,168211072
602,17,Jits_Phase_5,3,1,48,33,168298160
602,17,Jits_Phase_5,0,5,56,103,168621488
602,17,Jits_Phase_5,1,5,80,127,168661300
602,17,Jits_Phase_5,2,5,63,98,168670524
602,17,Jits_Phase_5,3,1,48,34,168797536
602,17,Jits_Phase_5,0,5,80,127,169110992
602,17,Jits_Phase_5,1,5,63,98,169140544
602,17,Jits_Phase_5,2,5,56,103,169180476
602,17,Jits_Phase_5,3,1,48,28,169273260
602,17,Jits_Phase_5,0,5,56,103,169631060
602,17,Jits_Phase_5,1,5,63,98,169660836
602,17,Jits_Phase_5,2,5,80,127,169711180
602,17,Jits_Phase_5,3,1,48,29,169783524
602,17,Jits_Phase_5,0,5,80,127,170130684
602,17,Jits_Phase_5,1,5,56,103,170170644
602,17,Jits_Phase_5,2,5,63,98,170180916
602,17,Jits_Phase_5,3,1,48,26,170303360
602,17,Jits_Phase_5,0,5,80,127,170611040
602,17,Jits_Phase_5,1,5,63,98,170651424
602,17,Jits_Phase_5,2,5,56,103,170711388
602,17,Jits_Phase_5,3,1,48,26,170797652
602,17,Jits_Phase_5,0,5,56,103,171110732
602,17,Jits_Phase_5,1,5,80,127,171121000
602,17,Jits_Phase_5,2,5,63,98,171201116
602,17,Jits_Phase_5,3,1,48,25,171277116
602,17,Jits_Phase_5,0,5,80,127,171610496
602,17,Jits_Phase_5,1,5,63,98,171671036
602,17,Jits_Phase_5,2,5,56,103,171700588
602,17,Jits_Phase_5,3,1,48,15,171759292
602,17,Jits_Phase_5,0,5,56,103,172111164
602,17,Jits_Phase_5,1,5,80,127,172170580
602,17,Jits_Phase_5,2,5,63,98,172210616
602,17,Jits_Phase_5,3,1,48,26,172253884
602,17,Jits_Phase_5,0,5,56,103,172661204
602,17,Jits_Phase_5,1,5,63,98,172671324
602,17,Jits_Phase_5,2,5,80,127,172674908
602,17,Jits_Phase_5,3,1,48,33,172716984
602,17,Jits_Phase_5,0,5,80,127,173110844
602,17,Jits_Phase_5,1,5,63,98,173200824
602,17,Jits_Phase_5,2,5,56,103,173211320
602,17,Jits_Phase_5,3,1,48,34,173236032
602,17,Jits_Phase_5,0,5,56,103,173611348
602,17,Jits_Phase_5,1,5,63,98,173614596
602,17,Jits_Phase_5,2,5,80,127,173617864
602,17,Jits_Phase_5,3,1,48,36,173739732
602,17,Jits_Phase_5,0,5,80,127,174130440
602,17,Jits_Phase_5,1,5,63,98,174180864
602,17,Jits_Phase_5,2,5,56,103,174210388
602,17,Jits_Phase_5,3,1,48,31,174250368
602,17,Jits_Phase_5,0,5,56,103,174610876
602,17,Jits_Phase_5,1,5,80,127,174621000
602,17,Jits_Phase_5,2,5,63,98,174690600
602,17,Jits_Phase_5,3,1,48,38,174758284
602,17,Jits_Phase_5,0,5,56,103,175120684
602,17,Jits_Phase_5,1,5,63,98,175141216
602,17,Jits_Phase_5,2,5,80,127,175200556
602,17,Jits_Phase_5,3,1,48,37,175234832
602,17,Jits_Phase_5,0,5,80,127,175601120
602,17,Jits_Phase_5,1,5,63,98,175670728
602,17,Jits_Phase_5,2,5,56,103,175691112
602,17,Jits_Phase_5,3,1,48,36,175715948
602,17,Jits_Phase_5,0,5,80,127,176121192
602,17,Jits_Phase_5,1,5,56,103,176130344
602,17,Jits_Phase_5,2,5,63,98,176140540
602,17,Jits_Phase_5,3,1,48,35,176226432
602,17,Jits_Phase_5,0,5,80,127,176610624
602,17,Jits_Phase_5,1,5,56,103,176631008
602,17,Jits_Phase_5,2,5,63,98,176700760
602,17,Jits_Phase_5,3,1,48,32,176710176
602,17,Jits_Phase_5,0,5,56,103,177120808
602,17,Jits_Phase_5,1,5,80,127,177151308
602,17,Jits_Phase_5,2,5,63,98,177171016
602,17,Jits_Phase_5,3,1,48,36,177205372
602,17,Jits_Phase_5,0,5,63,98,177611064
602,17,Jits_Phase_5,1,1,48,39,177666916
602,17,Jits_Phase_5,2,5,56,103,177670548
602,17,Jits_Phase_5,3,5,80,127,177701120
602,17,Jits_Phase_5,0,5,63,98,178100704
602,17,Jits_Phase_5,1,5,80,127,178104068
602,17,Jits_Phase_5,2,5,56,103,178190904
602,17,Jits_Phase_5,3,1,48,30,178196192
602,17,Jits_Phase_5,0,5,56,103,178620828
602,17,Jits_Phase_5,1,5,63,98,178650428
602,17,Jits_Phase_5,2,1,48,29,178680148
602,17,Jits_Phase_5,3,5,80,127,178690436
602,17,Jits_Phase_5,0,5,63,98,179120500
602,17,Jits_Phase_5,1,1,48,31,179155256
602,17,Jits_Phase_5,2,5,56,103,179160456
602,17,Jits_Phase_5,3,5,80,127,179180916
602,17,Jits_Phase_5,0,5,63,98,179630372
602,17,Jits_Phase_5,1,1,48,30,179653516
602,17,Jits_Phase_5,2,5,56,103,179671300
602,17,Jits_Phase_5,3,5,80,127,179680748
602,17,Jits_Phase_5,0,5,80,127,180110872
602,17,Jits_Phase_5,1,1,48,32,180138556
602,17,Jits_Phase_5,2,5,63,98,180181468
602,17,Jits_Phase_5,3,5,56,103,180200804
602,17,Jits_Phase_5,0,5,56,103,180601272
602,17,Jits_Phase_5,1,5,80,127,180620684
602,17,Jits_Phase_5,2,5,63,98,180660572
602,17,Jits_Phase_5,3,1,48,27,180665560
602,17,Jits_Phase_5,0,5,63,98,181111228
602,17,Jits_Phase_5,1,5,80,127,181130712
602,17,Jits_Phase_5,2,1,48,28,181151364
602,17,Jits_Phase_5,3,5,56,103,181170444
602,17,Jits_Phase_5,0,5,63,98,181610976
602,17,Jits_Phase_5,1,5,56,103,181631212
602,17,Jits_Phase_5,2,1,48,25,181637844
602,17,Jits_Phase_5,3,5,80,127,181640580
602,17,Jits_Phase_5,0,1,48,26,182101036
602,17,Jits_Phase_5,1,5,80,127,182110796
602,17,Jits_Phase_5,2,5,56,103,182130960
602,17,Jits_Phase_5,3,5,63,98,182161004
602,17,Jits_Phase_5,0,1,48,27,182573364
602,17,Jits_Phase_5,1,5,56,103,182680804
602,17,Jits_Phase_5,2,5,80,127,182684100
602,17,Jits_Phase_5,3,5,63,98,182701416
602,17,Jits_Phase_5,0,5,63,98,183100944
602,17,Jits_Phase_5,1,5,56,103,183130472
602,17,Jits_Phase_5,2,1,48,27,183131732
602,17,Jits_Phase_5,3,5,80,127,183190776
602,17,Jits_Phase_5,0,1,48,25,183615192
602,17,Jits_Phase_5,1,5,63,98,183681380
602,17,Jits_Phase_5,2,5,56,103,183690680
602,17,Jits_Phase_5,3,5,80,127,183700800
602,17,Jits_Phase_5,0,5,56,103,184141144
602,17,Jits_Phase_5,1,5,80,127,184170968
602,17,Jits_Phase_5,2,5,63,98,184181236
602,17,Jits_Phase_5,3,1,48,27,184185476
602,17,Jits_Phase_5,0,5,63,98,184680772
602,17,Jits_Phase_5,1,1,48,25,184682184
602,17,Jits_Phase_5,2,5,56,103,184691260
602,17,Jits_Phase_5,3,5,80,127,184710596
602,17,Jits_Phase_5,0,5,56,103,185111008
602,17,Jits_Phase_5,1,5,63,98,185171244
602,17,Jits_Phase_5,2,5,80,127,185174608
602,17,Jits_Phase_5,3,1,48,23,185217208
602,17,Jits_Phase_5,0,5,80,127,185631144
602,17,Jits_Phase_5,1,5,56,103,185641264
602,17,Jits_Phase_5,2,1,48,29,185655616
602,17,Jits_Phase_5,3,5,63,98,185710932
602,17,Jits_Phase_5,0,5,80,127,186120724
602,17,Jits_Phase_5,1,1,48,27,186172312
602,17,Jits_Phase_5,2,5,56,103,186191296
602,17,Jits_Phase_5,3,5,63,98,186200368
602,17,Jits_Phase_5,0,5,63,98,186661176
602,17,Jits_Phase_5,1,5,56,103,186670400
602,17,Jits_Phase_5,2,5,80,127,186690856
602,17,Jits_Phase_5,3,1,48,23,186695024
602,17,Jits_Phase_5,0,5,80,127,187110884
602,17,Jits_Phase_5,1,5,63,98,187171200
602,17,Jits_Phase_5,2,1,48,25,187194400
602,17,Jits_Phase_5,3,5,56,103,187211132
602,17,Jits_Phase_5,0,1,48,36,187638952
602,17,Jits_Phase_5,1,5,56,103,187650360
602,17,Jits_Phase_5,2,5,63,98,187660928
602,17,Jits_Phase_5,3,5,80,127,187700712
602,17,Jits_Phase_5,4,1,48,16,187748304
602,17,Jits_Phase_5,0,5,56,103,188111176
602,17,Jits_Phase_5,1,5,80,127,188141004
602,17,Jits_Phase_5,2,1,48,25,188189232
602,17,Jits_Phase_5,3,5,63,98,188191044
602,17,Jits_Phase_5,0,5,56,103,188650952
602,17,Jits_Phase_5,1,5,63,98,188690816
602,17,Jits_Phase_5,2,5,80,127,188694176
602,17,Jits_Phase_5,3,1,48,26,188707708
602,17,Jits_Phase_5,0,5,56,103,189150644
602,17,Jits_Phase_5,1,5,63,98,189160768
602,17,Jits_Phase_5,2,5,80,127,189181224
602,17,Jits_Phase_5,3,1,48,28,189186736
602,17,Jits_Phase_5,0,5,56,103,189611504
602,17,Jits_Phase_5,1,5,80,127,189614348
602,17,Jits_Phase_5,2,5,63,98,189651464
602,17,Jits_Phase_5,3,1,48,38,189672568
602,17,Jits_Phase_5,0,5,63,98,190150996
602,17,Jits_Phase_5,1,1,48,24,190177856
602,17,Jits_Phase_5,2,5,56,103,190180888
602,17,Jits_Phase_5,3,5,80,127,190201196
602,17,Jits_Phase_5,0,5,80,127,190620984
602,17,Jits_Phase_5,1,5,56,103,190631256
602,17,Jits_Phase_5,2,5,63,98,190640628
602,17,Jits_Phase_5,3,1,48,35,190679560
602,17,Jits_Phase_5,0,5,56,103,191120876
602,17,Jits_Phase_5,1,5,80,127,191160688
602,17,Jits_Phase_5,2,1,48,47,191165528
602,17,Jits_Phase_5,3,5,63,98,191191624
602,17,Jits_Phase_5,0,5,63,98,191630684
602,17,Jits_Phase_5,1,5,80,127,191640956
602,17,Jits_Phase_5,2,5,56,103,191651224
602,17,Jits_Phase_5,3,1,48,32,191698484
602,17,Jits_Phase_5,0,5,56,103,192121076
602,17,Jits_Phase_5,1,1,48,42,192168536
602,17,Jits_Phase_5,2,5,63,98,192190772
602,17,Jits_Phase_5,3,5,80,127,192201044
602,17,Jits_Phase_5,0,5,80,127,192631024
602,17,Jits_Phase_5,1,5,56,103,192641668
602,17,Jits_Phase_5,2,1,48,29,192677072
602,17,Jits_Phase_5,3,5,63,98,192690836
602,17,Jits_Phase_5,0,5,80,127,193141056
602,17,Jits_Phase_5,1,1,48,41,193181112
602,17,Jits_Phase_5,2,5,56,103,193200688
602,17,Jits_Phase_5,3,5,63,98,193231112
602,17,Jits_Phase_5,0,5,56,103,193640948
602,17,Jits_Phase_5,1,5,80,127,193643864
602,17,Jits_Phase_5,2,5,63,98,193680736
602,17,Jits_Phase_5,3,1,48,35,193698008
602,17,Jits_Phase_5,0,5,56,103,194171348
602,17,Jits_Phase_5,1,5,63,98,194200876
602,17,Jits_Phase_5,2,5,80,127,194211144
602,17,Jits_Phase_5,3,1,48,23,194259168
602,17,Jits_Phase_5,0,5,63,98,194681164
602,17,Jits_Phase_5,1,5,80,127,194690608
602,17,Jits_Phase_5,2,5,56,103,194700728
602,17,Jits_Phase_5,3,1,48,42,194732836
602,17,Jits_Phase_5,0,5,80,127,195130720
602,17,Jits_Phase_5,1,5,56,103,195180848
602,17,Jits_Phase_5,2,5,63,98,195183836
602,17,Jits_Phase_5,3,1,48,35,195248548
602,17,Jits_Phase_5,0,5,56,103,195661100
602,17,Jits_Phase_5,1,5,80,127,195680736
602,17,Jits_Phase_5,2,5,63,98,195690780
602,17,Jits_Phase_5,3,1,48,41,195719228
602,17,Jits_Phase_5,0,5,63,98,196141688
602,17,Jits_Phase_5,1,5,56,103,196171064
602,17,Jits_Phase_5,2,1,48,38,196189108
602,17,Jits_Phase_5,3,5,80,127,196190616
602,17,Jits_Phase_5,0,5,56,103,196651628
602,17,Jits_Phase_5,1,5,80,127,196660628
602,17,Jits_Phase_5,2,1,48,33,196676180
602,17,Jits_Phase_5,3,5,63,98,196731348
602,17,Jits_Phase_5,0,5,63,98,197140836
602,17,Jits_Phase_5,1,1,48,36,197179568
602,17,Jits_Phase_5,2,5,80,127,197180992
602,17,Jits_Phase_5,3,5,56,103,197220628
602,17,Jits_Phase_5,0,5,56,103,197650852
602,17,Jits_Phase_5,1,5,63,98,197660972
602,17,Jits_Phase_5,2,5,80,127,197680608
602,17,Jits_Phase_5,3,1,48,34,197682020
602,17,Jits_Phase_5,0,1,48,40,198169628
602,17,Jits_Phase_5,1,5,63,98,198190696
602,17,Jits_Phase_5,2,5,80,127,198210932
602,17,Jits_Phase_5,3,5,56,103,198231388
602,17,Jits_Phase_5,0,5,56,103,198630900
602,17,Jits_Phase_5,1,1,48,37,198683388
602,17,Jits_Phase_5,2,5,80,127,198710760
602,17,Jits_Phase_5,3,5,63,98,198720956
602,17,Jits_Phase_5,0,5,80,127,199170528
602,17,Jits_Phase_5,1,1,48,37,199174172
602,17,Jits_Phase_5,2,5,63,98,199180644
602,17,Jits_Phase_5,3,5,56,103,199211660
602,17,Jits_Phase_5,0,5,63,98,199631192
602,17,Jits_Phase_5,1,1,48,38,199662184
602,17,Jits_Phase_5,2,5,80,127,199671272
602,17,Jits_Phase_5,3,5,56,103,199730760
602,17,Jits_Phase_5,0,5,63,98,200141288
602,17,Jits_Phase_5,1,1,48,29,200163440
602,17,Jits_Phase_5,2,5,56,103,200191556
602,17,Jits_Phase_5,3,5,80,127,200221156
602,17,Jits_Phase_5,0,5,80,127,200640892
602,17,Jits_Phase_5,1,5,63,98,200651536
602,17,Jits_Phase_5,2,1,48,37,200660656
602,17,Jits_Phase_5,3,5,56,103,200720612
602,17,Jits_Phase_5,0,1,48,42,201156960
602,17,Jits_Phase_5,1,5,80,127,201200968
602,17,Jits_Phase_5,2,5,56,103,201211616
602,17,Jits_Phase_5,3,5,63,98,201214676
602,17,Jits_Phase_5,0,5,56,103,201641440
602,17,Jits_Phase_5,1,5,80,127,201660652
602,17,Jits_Phase_5,2,5,63,98,201671220
602,17,Jits_Phase_5,3,1,48,41,201676884
602,17,Jits_Phase_5,0,5,63,98,202151472
602,17,Jits_Phase_5,1,1,48,32,202175740
602,17,Jits_Phase_5,2,5,56,103,202191352
602,17,Jits_Phase_5,3,5,80,127,202210540
602,17,Jits_Phase_5,0,5,63,98,202651004
602,17,Jits_Phase_5,1,1,48,32,202708528
602,17,Jits_Phase_5,2,5,56,103,202711484
602,17,Jits_Phase_5,3,5,80,127,202714400
602,17,Jits_Phase_5,0,5,56,103,203110896
602,17,Jits_Phase_5,1,5,80,127,203131280
602,17,Jits_Phase_5,2,5,63,98,203171216
602,17,Jits_Phase_5,3,1,48,45,203201784
602,17,Jits_Phase_5,0,5,56,103,203641232
602,17,Jits_Phase_5,1,1,48,34,203650128
602,17,Jits_Phase_5,2,5,63,98,203660564
602,17,Jits_Phase_5,3,5,80,127,203670832
602,17,Jits_Phase_5,0,5,80,127,204111332
602,17,Jits_Phase_5,1,1,48,38,204131540
602,17,Jits_Phase_5,2,5,56,103,204140928
602,17,Jits_Phase_5,3,5,63,98,204180792
602,17,Jits_Phase_5,0,1,48,38,204592344
602,17,Jits_Phase_5,1,5,80,127,204621284
602,17,Jits_Phase_5,2,5,56,103,204640548
602,17,Jits_Phase_5,3,5,63,98,204701216
602,17,Jits_Phase_5,0,1,48,32,205110384
602,17,Jits_Phase_5,1,5,56,103,205131304
602,17,Jits_Phase_5,2,5,80,127,205150644
602,17,Jits_Phase_5,3,5,63,98,205210864
602,17,Jits_Phase_5,0,5,80,127,205611364
602,17,Jits_Phase_5,1,5,56,103,205620660
602,17,Jits_Phase_5,2,1,48,34,205623776
602,17,Jits_Phase_5,3,5,63,98,205660664
602,17,Jits_Phase_5,0,5,63,98,206111352
602,17,Jits_Phase_5,1,1,48,35,206126828
602,17,Jits_Phase_5,2,5,56,103,206151280
602,17,Jits_Phase_5,3,5,80,127,206154344
602,17,Jits_Phase_5,0,1,48,31,206628060
602,17,Jits_Phase_5,1,5,63,98,206631240
602,17,Jits_Phase_5,2,5,80,127,206671476
602,17,Jits_Phase_5,3,5,56,103,206700852
602,17,Jits_Phase_5,0,5,56,103,207120888
602,17,Jits_Phase_5,1,1,48,27,207125424
602,17,Jits_Phase_5,2,5,63,98,207130852
602,17,Jits_Phase_5,3,5,80,127,207160824
602,17,Jits_Phase_5,0,1,48,29,207606300
602,17,Jits_Phase_5,1,5,80,127,207611428
602,17,Jits_Phase_5,2,5,63,98,207680812
602,17,Jits_Phase_5,3,5,56,103,207691156
602,17,Jits_Phase_5,0,5,63,98,208110892
602,17,Jits_Phase_5,1,1,48,28,208134464
602,17,Jits_Phase_5,2,5,56,103,208180568
602,17,Jits_Phase_5,3,5,80,127,208190912
602,17,Jits_Phase_5,0,5,63,98,208591244
602,17,Jits_Phase_5,1,5,56,103,208610656
602,17,Jits_Phase_5,2,1,48,30,208638932
602,17,Jits_Phase_5,3,5,80,127,208650584
602,17,Jits_Phase_5,0,5,56,103,209070448
602,17,Jits_Phase_5,1,5,63,98,209080820
602,17,Jits_Phase_5,2,1,48,28,209114352
602,17,Jits_Phase_5,3,5,80,127,209160600
602,17,Jits_Phase_5,0,5,63,98,209561148
602,17,Jits_Phase_5,1,1,48,24,209566064
602,17,Jits_Phase_5,2,5,56,103,209590696
602,17,Jits_Phase_5,3,5,80,127,209630628
602,17,Jits_Phase_5,0,5,56,103,210060680
602,17,Jits_Phase_5,1,1,48,32,210097904
602,17,Jits_Phase_5,2,5,63,98,210100488
602,17,Jits_Phase_5,3,5,80,127,210140572
602,17,Jits_Phase_5,0,5,80,127,210561348
602,17,Jits_Phase_5,1,1,48,27,210584244
602,17,Jits_Phase_5,2,5,56,103,210641232
602,17,Jits_Phase_5,3,5,63,98,210650456
602,17,Jits_Phase_5,0,5,56,103,211111376
602,17,Jits_Phase_5,1,5,63,98,211114440
602,17,Jits_Phase_5,2,1,48,29,211117636
602,17,Jits_Phase_5,3,5,80,127,211120392
602,17,Jits_Phase_5,0,1,48,27,211596252
602,17,Jits_Phase_5,1,5,56,103,211630528
602,17,Jits_Phase_5,2,5,63,98,211650864
602,17,Jits_Phase_5,3,5,80,127,211661284
602,17,Jits_Phase_5,0,5,63,98,212091332
602,17,Jits_Phase_5,1,5,80,127,212100336
602,17,Jits_Phase_5,2,5,56,103,212121164
602,17,Jits_Phase_5,3,1,48,27,212143084
602,17,Jits_Phase_5,0,5,63,98,212591160
602,17,Jits_Phase_5,1,1,48,20,212624244
602,17,Jits_Phase_5,2,5,56,103,212671116
602,17,Jits_Phase_5,3,5,80,127,212674108
602,17,Jits_Phase_5,0,5,63,98,213090536
602,17,Jits_Phase_5,1,5,56,103,213111292
602,17,Jits_Phase_5,2,5,80,127,213140820
602,17,Jits_Phase_5,3,1,48,27,213142608
602,17,Jits_Phase_5,0,1,48,30,213589364
602,17,Jits_Phase_5,1,5,56,103,213591332
602,17,Jits_Phase_5,2,5,63,98,213610816
602,17,Jits_Phase_5,3,5,80,127,213621236
602,17,Jits_Phase_5,0,1,48,25,214109940
602,17,Jits_Phase_5,1,5,56,103,214120828
602,17,Jits_Phase_5,2,5,63,98,214150652
602,17,Jits_Phase_5,3,5,80,127,214153940
602,17,Jits_Phase_5,0,5,56,103,214571436
602,17,Jits_Phase_5,1,1,48,38,214611152
602,17,Jits_Phase_5,2,5,63,98,214612636
602,17,Jits_Phase_5,3,5,80,127,214670780
602,17,Jits_Phase_5,0,1,48,37,215064496
602,17,Jits_Phase_5,1,5,56,103,215090452
602,17,Jits_Phase_5,2,5,63,98,215100724
602,17,Jits_Phase_5,3,5,80,127,215161184
602,17,Jits_Phase_5,0,5,56,103,215591260
602,17,Jits_Phase_5,1,1,48,35,215595276
602,17,Jits_Phase_5,2,5,80,127,215610740
602,17,Jits_Phase_5,3,5,63,98,215640488
602,17,Jits_Phase_5,0,5,80,127,216091032
602,17,Jits_Phase_5,1,5,56,103,216101152
602,17,Jits_Phase_5,2,1,48,34,216102640
602,17,Jits_Phase_5,3,5,63,98,216120708
602,17,Jits_Phase_5,0,5,63,98,216580464
602,17,Jits_Phase_5,1,1,48,29,216631980
602,17,Jits_Phase_5,2,5,80,127,216661296
602,17,Jits_Phase_5,3,5,56,103,216670520
602,17,Jits_Phase_5,0,1,48,30,217153832
602,17,Jits_Phase_5,1,5,80,127,217171240
602,17,Jits_Phase_5,2,5,56,103,217191252
602,17,Jits_Phase_5,3,5,63,98,217194164
602,17,Jits_Phase_5,0,5,63,98,217660804
602,17,Jits_Phase_5,1,5,80,127,217664020
602,17,Jits_Phase_5,2,1,48,27,217671796
602,17,Jits_Phase_5,3,5,56,103,217721112
602,17,Jits_Phase_5,0,5,56,103,218141076
602,17,Jits_Phase_5,1,5,80,127,218151420
602,17,Jits_Phase_5,2,5,63,98,218191208
602,17,Jits_Phase_5,3,1,48,22,218263316
602,17,Jits_Phase_5,0,5,56,103,218621288
602,17,Jits_Phase_5,1,5,63,98,218680556
602,17,Jits_Phase_5,2,5,80,127,218691272
602,17,Jits_Phase_5,3,1,48,24,218712672
602,17,Jits_Phase_5,0,5,63,98,219131248
602,17,Jits_Phase_5,1,1,48,22,219165672
602,17,Jits_Phase_5,2,5,80,127,219171176
602,17,Jits_Phase_5,3,5,56,103,219211264
602,17,Jits_Phase_5,0,5,56,103,219631228
602,17,Jits_Phase_5,1,1,48,21,219687532
602,17,Jits_Phase_5,2,5,63,98,219711012
602,17,Jits_Phase_5,3,5,80,127,219714228
602,17,Jits_Phase_5,0,1,48,26,220146460
602,17,Jits_Phase_5,1,5,80,127,220191072
602,17,Jits_Phase_5,2,5,56,103,220220748
602,17,Jits_Phase_5,3,5,63,98,220223812
602,17,Jits_Phase_5,0,5,56,103,220651048
602,17,Jits_Phase_5,1,5,80,127,220671436
602,17,Jits_Phase_5,2,1,48,24,220706916
602,17,Jits_Phase_5,3,5,63,98,220711216
602,17,Jits_Phase_5,0,5,80,127,221131120
602,17,Jits_Phase_5,1,5,63,98,221150680
602,17,Jits_Phase_5,2,1,48,23,221178888
602,17,Jits_Phase_5,3,5,56,103,221210984
602,17,Jits_Phase_5,0,5,63,98,221641000
602,17,Jits_Phase_5,1,5,56,103,221651196
602,17,Jits_Phase_5,2,1,48,22,221691180
602,17,Jits_Phase_5,3,5,80,127,221700344
602,17,Jits_Phase_5,0,5,56,103,222130492
602,17,Jits_Phase_5,1,5,63,98,222151024
602,17,Jits_Phase_5,2,5,80,127,222161372
602,17,Jits_Phase_5,3,1,48,26,222173408
602,17,Jits_Phase_5,0,5,56,103,222621016
602,17,Jits_Phase_5,1,5,63,98,222624084
602,17,Jits_Phase_5,2,5,80,127,222640452
602,17,Jits_Phase_5,3,1,48,24,222698172
602,17,Jits_Phase_5,0,1,48,23,223159828
602,17,Jits_Phase_5,1,5,63,98,223161400
602,17,Jits_Phase_5,2,5,56,103,223191448
602,17,Jits_Phase_5,3,5,80,127,223221196
602,17,Jits_Phase_5,0,5,80,127,223620460
602,17,Jits_Phase_5,1,1,48,26,223642608
602,17,Jits_Phase_5,2,5,56,103,223710684
602,17,Jits_Phase_5,3,5,63,98,223713824
602,17,Jits_Phase_5,0,5,56,103,224121268
602,17,Jits_Phase_5,1,5,80,127,224124408
602,17,Jits_Phase_5,2,1,48,25,224168432
602,17,Jits_Phase_5,3,5,63,98,224201004
602,17,Jits_Phase_5,0,5,80,127,224621104
602,17,Jits_Phase_5,1,1,48,22,224660564
602,17,Jits_Phase_5,2,5,63,98,224681336
602,17,Jits_Phase_5,3,5,56,103,224710960
602,17,Jits_Phase_5,0,5,63,98,225120800
602,17,Jits_Phase_5,1,5,80,127,225131068
602,17,Jits_Phase_5,2,1,48,22,225137032
602,17,Jits_Phase_5,3,5,56,103,225200392
602,17,Jits_Phase_5,0,5,56,103,225681008
602,17,Jits_Phase_5,1,1,48,17,225693196
602,17,Jits_Phase_5,2,5,80,127,225710380
602,17,Jits_Phase_5,3,5,63,98,225760976
602,17,Jits_Phase_5,0,1,48,26,226224588
602,17,Jits_Phase_5,1,5,63,98,226270696
602,17,Jits_Phase_5,2,5,56,103,226301340
602,17,Jits_Phase_5,3,5,80,127,226304480
602,17,Jits_Phase_5,0,5,63,98,226771200
602,17,Jits_Phase_5,1,5,80,127,226790908
602,17,Jits_Phase_5,2,5,56,103,226800956
602,17,Jits_Phase_5,0,5,56,103,227281208
602,17,Jits_Phase_5,1,5,63,98,227284276
602,17,Jits_Phase_5,2,5,80,127,227300768
602,17,Jits_Phase_5,3,1,48,21,227329364
602,17,Jits_Phase_5,0,5,56,103,227730752
602,17,Jits_Phase_5,1,5,63,98,227741172
602,17,Jits_Phase_5,2,5,80,127,227770868
602,17,Jits_Phase_5,3,1,48,21,227877656
602,17,Jits_Phase_5,0,5,63,98,228250976
602,17,Jits_Phase_5,1,5,80,127,228270312
602,17,Jits_Phase_5,2,5,56,103,228311320
602,17,Jits_Phase_5,3,1,48,33,228361560
602,17,Jits_Phase_5,0,5,56,103,228781808
602,17,Jits_Phase_5,1,5,63,98,228821472
602,17,Jits_Phase_5,2,5,80,127,228824688
602,17,Jits_Phase_5,3,1,48,29,228846012
602,17,Jits_Phase_5,0,5,80,127,229220820
602,17,Jits_Phase_5,1,5,56,103,229260832
602,17,Jits_Phase_5,2,5,63,98,229310684
602,17,Jits_Phase_5,3,1,48,29,229350136
602,17,Jits_Phase_5,0,5,56,103,229780824
602,17,Jits_Phase_5,1,5,80,127,229791096
602,17,Jits_Phase_5,2,5,63,98,229820868
602,17,Jits_Phase_5,3,1,48,28,229856040
602,17,Jits_Phase_5,0,5,56,103,230231300
602,17,Jits_Phase_5,1,5,80,127,230271236
602,17,Jits_Phase_5,2,5,63,98,230320784
602,17,Jits_Phase_5,3,1,48,26,230369312
602,17,Jits_Phase_5,0,5,56,103,230730996
602,17,Jits_Phase_5,1,5,80,127,230770932
602,17,Jits_Phase_5,2,5,63,98,230821280
602,17,Jits_Phase_5,3,1,48,22,230892744
602,17,Jits_Phase_5,0,5,80,127,231220724
602,17,Jits_Phase_5,1,5,63,98,231300592
602,17,Jits_Phase_5,2,5,56,103,231310788
602,17,Jits_Phase_5,3,1,48,20,231452892
602,17,Jits_Phase_5,0,5,80,127,231770764
602,17,Jits_Phase_5,1,5,56,103,231780736
602,17,Jits_Phase_5,2,5,63,98,231801192
602,17,Jits_Phase_5,3,1,48,27,231911308
602,17,Jits_Phase_5,0,5,63,98,232240716
602,17,Jits_Phase_5,1,5,56,103,232311216
602,17,Jits_Phase_5,2,5,80,127,232314284
602,17,Jits_Phase_5,3,1,48,17,232349552
602,17,Jits_Phase_5,0,5,80,127,232731100
602,17,Jits_Phase_5,1,5,63,98,232781152
602,17,Jits_Phase_5,2,1,48,20,232807412
602,17,Jits_Phase_5,3,5,56,103,232821084
602,17,Jits_Phase_5,0,5,63,98,233270804
602,17,Jits_Phase_5,1,5,56,103,233310668
602,17,Jits_Phase_5,2,5,80,127,233320940
602,17,Jits_Phase_5,3,1,48,15,233338136
602,17,Jits_Phase_5,0,5,63,98,233761200
602,17,Jits_Phase_5,1,5,56,103,233780536
602,17,Jits_Phase_5,2,1,48,24,233783580
602,17,Jits_Phase_5,3,5,80,127,233801064
602,17,Jits_Phase_5,0,5,80,127,234220800
602,17,Jits_Phase_5,1,5,56,103,234231144
602,17,Jits_Phase_5,2,5,63,98,234250628
602,17,Jits_Phase_5,3,1,48,29,234284904
602,17,Jits_Phase_5,0,1,48,21,234743672
602,17,Jits_Phase_5,1,5,63,98,234751196
602,17,Jits_Phase_5,2,5,56,103,234791208
602,17,Jits_Phase_5,3,5,80,127,234820956
602,17,Jits_Phase_5,0,5,56,103,235211180
602,17,Jits_Phase_5,1,1,48,28,235216992
602,17,Jits_Phase_5,2,5,63,98,235240700
602,17,Jits_Phase_5,3,5,80,127,235270744
602,17,Jits_Phase_5,0,5,80,127,235630924
602,17,Jits_Phase_5,1,5,56,103,235700776
602,17,Jits_Phase_5,2,5,63,98,235703840
602,17,Jits_Phase_5,3,1,48,32,235725612
602,17,Jits_Phase_5,0,5,56,103,236140948
602,17,Jits_Phase_5,1,5,63,98,236191076
602,17,Jits_Phase_5,2,5,80,127,236220848
602,17,Jits_Phase_5,3,1,48,19,236229292
602,17,Jits_Phase_5,0,5,63,98,236621240
602,17,Jits_Phase_5,1,5,80,127,236624676
602,17,Jits_Phase_5,2,5,56,103,236680652
602,17,Jits_Phase_5,3,1,48,24,236698148
602,17,Jits_Phase_5,0,5,56,103,237150724
602,17,Jits_Phase_5,1,5,80,127,237160772
602,17,Jits_Phase_5,2,1,48,24,237200152
602,17,Jits_Phase_5,3,5,63,98,237211036
602,17,Jits_Phase_5,0,5,63,98,237620528
602,17,Jits_Phase_5,1,5,56,103,237630796
602,17,Jits_Phase_5,2,5,80,127,237660472
602,17,Jits_Phase_5,3,1,48,23,237675120
602,17,Jits_Phase_5,0,5,63,98,238151064
602,17,Jits_Phase_5,1,5,80,127,238154428
602,17,Jits_Phase_5,2,1,48,22,238167588
602,17,Jits_Phase_5,3,5,56,103,238180580
602,17,Jits_Phase_5,0,5,63,98,238671264
602,17,Jits_Phase_5,1,1,48,18,238688692
602,17,Jits_Phase_5,2,5,56,103,238690584
602,17,Jits_Phase_5,3,5,80,127,238693508
602,17,Jits_Phase_5,0,5,63,98,239130928
602,17,Jits_Phase_5,1,5,56,103,239200684
602,17,Jits_Phase_5,2,5,80,127,239220992
602,17,Jits_Phase_5,3,1,48,20,239225676
602,17,Jits_Phase_5,0,5,56,103,239620572
602,17,Jits_Phase_5,1,5,63,98,239630692
602,17,Jits_Phase_5,2,1,48,29,239699444
602,17,Jits_Phase_5,3,5,80,127,239720812
602,17,Jits_Phase_5,0,5,56,103,240140644
602,17,Jits_Phase_5,1,1,48,35,240155748
602,17,Jits_Phase_5,2,5,80,127,240180576
602,17,Jits_Phase_5,3,5,63,98,240190920
602,17,Jits_Phase_5,0,1,48,30,240648552
602,17,Jits_Phase_5,1,5,56,103,240660860
602,17,Jits_Phase_5,2,5,63,98,240690532
602,17,Jits_Phase_5,3,5,80,127,240721328
602,17,Jits_Phase_5,0,5,80,127,241120764
602,17,Jits_Phase_5,1,5,63,98,241160700
602,17,Jits_Phase_5,2,1,48,26,241173784
602,17,Jits_Phase_5,3,5,56,103,241181080
602,17,Jits_Phase_5,0,5,56,103,241661436
602,17,Jits_Phase_5,1,5,80,127,241680772
602,17,Jits_Phase_5,2,1,48,37,241684940
602,17,Jits_Phase_5,3,5,63,98,241701224
602,17,Jits_Phase_5,0,5,63,98,242131392
602,17,Jits_Phase_5,1,5,56,103,242140540
602,17,Jits_Phase_5,2,1,48,35,242151976
602,17,Jits_Phase_5,3,5,80,127,242200920
602,17,Jits_Phase_5,0,5,56,103,242631148
602,17,Jits_Phase_5,1,1,48,29,242676436
602,17,Jits_Phase_5,2,5,63,98,242700672
602,17,Jits_Phase_5,3,5,80,127,242721276
602,17,Jits_Phase_5,0,5,56,103,243130696
602,17,Jits_Phase_5,1,5,63,98,243160592
602,17,Jits_Phase_5,2,5,80,127,243201576
602,17,Jits_Phase_5,3,1,48,27,243205592
602,17,Jits_Phase_5,0,5,63,98,243621448
602,17,Jits_Phase_5,1,1,48,33,243669632
602,17,Jits_Phase_5,2,5,56,103,243671520
602,17,Jits_Phase_5,3,5,80,127,243680520
602,17,Jits_Phase_5,0,1,48,24,244149972
602,17,Jits_Phase_5,1,5,56,103,244160856
602,17,Jits_Phase_5,2,5,63,98,244210908
602,17,Jits_Phase_5,3,5,80,127,244221400
602,17,Jits_Phase_5,0,5,56,103,244630780
602,17,Jits_Phase_5,1,5,63,98,244641124
602,17,Jits_Phase_5,2,1,48,29,244681056
602,17,Jits_Phase_5,3,5,80,127,244720932
602,17,Jits_Phase_5,0,9999,9999,9999,160408660
602,17,Jits_Phase_5,1,9999,9999,9999,160908400
602,17,Jits_Phase_5,2,9999,9999,9999,161408084
602,17,Jits_Phase_5,3,9999,9999,9999,161908816
602,17,Jits_Phase_5,4,9999,9999,9999,162408564
602,17,Jits_Phase_5,5,9999,9999,9999,162908252
602,17,Jits_Phase_5,6,9999,9999,9999,163408968
602,17,Jits_Phase_5,7,9999,9999,9999,163908728
602,17,Jits_Phase_5,8,9999,9999,9999,164408396
602,17,Jits_Phase_5,9,9999,9999,9999,164908088
602,17,Jits_Phase_5,10,9999,9999,9999,165408828
602,17,Jits_Phase_5,11,9999,9999,9999,165908596
602,17,Jits_Phase_5,12,9999,9999,9999,166408268
602,17,Jits_Phase_5,13,9999,9999,9999,166908992
602,17,Jits_Phase_5,14,9999,9999,9999,167408744
602,17,Jits_Phase_5,15,9999,9999,9999,167908440
602,17,Jits_Phase_5,16,9999,9999,9999,168408132
602,17,Jits_Phase_5,17,9999,9999,9999,168908852
602,17,Jits_Phase_5,18,9999,9999,9999,169408620
602,17,Jits_Phase_5,19,9999,9999,9999,169908320
602,17,Jits_Phase_5,20,9999,9999,9999,170409032
602,17,Jits_Phase_5,21,9999,9999,9999,170908792
602,17,Jits_Phase_5,22,9999,9999,9999,171408488
602,17,Jits_Phase_5,23,9999,9999,9999,171908180
602,17,Jits_Phase_5,24,9999,9999,9999,172408920
602,17,Jits_Phase_5,25,9999,9999,9999,172908608
602,17,Jits_Phase_5,26,9999,9999,9999,173408380
602,17,Jits_Phase_5,27,9999,9999,9999,173909096
602,17,Jits_Phase_5,28,9999,9999,9999,174408792
602,17,Jits_Phase_5,29,9999,9999,9999,174908480
602,17,Jits_Phase_5,30,9999,9999,9999,175399036
602,17,Jits_Phase_5,31,9999,9999,9999,175898728
602,17,Jits_Phase_5,32,9999,9999,9999,176398420
602,17,Jits_Phase_5,33,9999,9999,9999,176898116
602,17,Jits_Phase_5,34,9999,9999,9999,177398864
602,17,Jits_Phase_5,35,9999,9999,9999,177898560
602,17,Jits_Phase_5,36,9999,9999,9999,178398300
602,17,Jits_Phase_5,37,9999,9999,9999,178899032
602,17,Jits_Phase_5,38,9999,9999,9999,179398728
602,17,Jits_Phase_5,39,9999,9999,9999,179898488
602,17,Jits_Phase_5,40,9999,9999,9999,180398144
602,17,Jits_Phase_5,41,9999,9999,9999,180898876
602,17,Jits_Phase_5,42,9999,9999,9999,181398640
602,17,Jits_Phase_5,43,9999,9999,9999,181898320
602,17,Jits_Phase_5,44,9999,9999,9999,182399044
602,17,Jits_Phase_5,45,9999,9999,9999,182898796
602,17,Jits_Phase_5,46,9999,9999,9999,183398476
602,17,Jits_Phase_5,47,9999,9999,9999,183898236
602,17,Jits_Phase_5,48,9999,9999,9999,184408184
602,17,Jits_Phase_5,49,9999,9999,9999,184908860
602,17,Jits_Phase_5,50,9999,9999,9999,185408600
602,17,Jits_Phase_5,51,9999,9999,9999,185908300
602,17,Jits_Phase_5,52,9999,9999,9999,186409040
602,17,Jits_Phase_5,53,9999,9999,9999,186908740
602,17,Jits_Phase_5,54,9999,9999,9999,187408496
602,17,Jits_Phase_5,55,9999,9999,9999,187908168
602,17,Jits_Phase_5,56,9999,9999,9999,188408932
602,17,Jits_Phase_5,57,9999,9999,9999,188908624
602,17,Jits_Phase_5,58,9999,9999,9999,189408320
602,17,Jits_Phase_5,59,9999,9999,9999,189909048
602,17,Jits_Phase_5,60,9999,9999,9999,190408820
602,17,Jits_Phase_5,61,9999,9999,9999,190908476
602,17,Jits_Phase_5,62,9999,9999,9999,191408220
602,17,Jits_Phase_5,63,9999,9999,9999,191908960
602,17,Jits_Phase_5,64,9999,9999,9999,192428120
602,17,Jits_Phase_5,65,9999,9999,9999,192928852
602,17,Jits_Phase_5,66,9999,9999,9999,193428600
602,17,Jits_Phase_5,67,9999,9999,9999,193928284
602,17,Jits_Phase_5,68,9999,9999,9999,194429028
602,17,Jits_Phase_5,69,9999,9999,9999,194928724
602,17,Jits_Phase_5,70,9999,9999,9999,195428444
602,17,Jits_Phase_5,71,9999,9999,9999,195928140
602,17,Jits_Phase_5,72,9999,9999,9999,196428880
602,17,Jits_Phase_5,73,9999,9999,9999,196928636
602,17,Jits_Phase_5,74,9999,9999,9999,197428328
602,17,Jits_Phase_5,75,9999,9999,9999,197929056
602,17,Jits_Phase_5,76,9999,9999,9999,198428752
602,17,Jits_Phase_5,77,9999,9999,9999,198928512
602,17,Jits_Phase_5,78,9999,9999,9999,199428208
602,17,Jits_Phase_5,79,9999,9999,9999,199928948
602,17,Jits_Phase_5,80,9999,9999,9999,200428632
602,17,Jits_Phase_5,81,9999,9999,9999,200908908
602,17,Jits_Phase_5,82,9999,9999,9999,201408600
602,17,Jits_Phase_5,83,9999,9999,9999,201908280
602,17,Jits_Phase_5,84,9999,9999,9999,202409076
602,17,Jits_Phase_5,85,9999,9999,9999,202908748
602,17,Jits_Phase_5,86,9999,9999,9999,203408500
602,17,Jits_Phase_5,87,9999,9999,9999,203908200
602,17,Jits_Phase_5,88,9999,9999,9999,204408940
602,17,Jits_Phase_5,89,9999,9999,9999,204908636
602,17,Jits_Phase_5,90,9999,9999,9999,205408316
602,17,Jits_Phase_5,91,9999,9999,9999,205909116
602,17,Jits_Phase_5,92,9999,9999,9999,206408796
602,17,Jits_Phase_5,93,9999,9999,9999,206908476
602,17,Jits_Phase_5,94,9999,9999,9999,207408228
602,17,Jits_Phase_5,95,9999,9999,9999,207908968
602,17,Jits_Phase_5,96,9999,9999,9999,208408648
602,17,Jits_Phase_5,97,9999,9999,9999,208858208
602,17,Jits_Phase_5,98,9999,9999,9999,209358940
602,17,Jits_Phase_5,99,9999,9999,9999,209858632
602,17,Jits_Phase_5,100,9999,9999,9999,210358388
602,17,Jits_Phase_5,101,9999,9999,9999,210859104
602,17,Jits_Phase_5,102,9999,9999,9999,211369044
602,17,Jits_Phase_5,103,9999,9999,9999,211868736
602,17,Jits_Phase_5,104,9999,9999,9999,212368488
602,17,Jits_Phase_5,105,9999,9999,9999,212868160
602,17,Jits_Phase_5,106,9999,9999,9999,213368888
602,17,Jits_Phase_5,107,9999,9999,9999,213868640
602,17,Jits_Phase_5,108,9999,9999,9999,214368316
602,17,Jits_Phase_5,109,9999,9999,9999,214869116
602,17,Jits_Phase_5,110,9999,9999,9999,215368812
602,17,Jits_Phase_5,111,9999,9999,9999,215868488
602,17,Jits_Phase_5,112,9999,9999,9999,216368188
602,17,Jits_Phase_5,113,9999,9999,9999,216868932
602,17,Jits_Phase_5,114,9999,9999,9999,217418876
602,17,Jits_Phase_5,115,9999,9999,9999,217918552
602,17,Jits_Phase_5,116,9999,9999,9999,218418304
602,17,Jits_Phase_5,117,9999,9999,9999,218918968
602,17,Jits_Phase_5,118,9999,9999,9999,219418740
602,17,Jits_Phase_5,119,9999,9999,9999,219918416
602,17,Jits_Phase_5,120,9999,9999,9999,220418108
602,17,Jits_Phase_5,121,9999,9999,9999,220918840
602,17,Jits_Phase_5,122,9999,9999,9999,221418608
602,17,Jits_Phase_5,123,9999,9999,9999,221918304
602,17,Jits_Phase_5,124,9999,9999,9999,222419028
602,17,Jits_Phase_5,125,9999,9999,9999,222918712
602,17,Jits_Phase_5,126,9999,9999,9999,223418484
602,17,Jits_Phase_5,127,9999,9999,9999,223918136
602,17,Jits_Phase_5,128,9999,9999,9999,224418940
602,17,Jits_Phase_5,129,9999,9999,9999,224918636
602,17,Jits_Phase_5,130,9999,9999,9999,225418328
602,17,Jits_Phase_5,131,9999,9999,9999,226018420
602,17,Jits_Phase_5,132,9999,9999,9999,226518108
602,17,Jits_Phase_5,133,9999,9999,9999,227018860
602,17,Jits_Phase_5,134,9999,9999,9999,227518576
602,17,Jits_Phase_5,135,9999,9999,9999,228018268
602,17,Jits_Phase_5,136,9999,9999,9999,228518988
602,17,Jits_Phase_5,137,9999,9999,9999,229018732
602,17,Jits_Phase_5,138,9999,9999,9999,229518428
602,17,Jits_Phase_5,139,9999,9999,9999,230018128
602,17,Jits_Phase_5,140,9999,9999,9999,230518868
602,17,Jits_Phase_5,141,9999,9999,9999,231018564
602,17,Jits_Phase_5,142,9999,9999,9999,231518276
602,17,Jits_Phase_5,143,9999,9999,9999,232019000
602,17,Jits_Phase_5,144,9999,9999,9999,232518764
602,17,Jits_Phase_5,145,9999,9999,9999,233018448
602,17,Jits_Phase_5,146,9999,9999,9999,233518148
602,17,Jits_Phase_5,147,9999,9999,9999,234018876
602,17,Jits_Phase_5,148,9999,9999,9999,234518624
602,17,Jits_Phase_5,149,9999,9999,9999,235018320
602,17,Jits_Phase_5,150,9999,9999,9999,235418720
602,17,Jits_Phase_5,151,9999,9999,9999,235918408
602,17,Jits_Phase_5,152,9999,9999,9999,236418108
602,17,Jits_Phase_5,153,9999,9999,9999,236918908
602,17,Jits_Phase_5,154,9999,9999,9999,237418588
602,17,Jits_Phase_5,155,9999,9999,9999,237918280
602,17,Jits_Phase_5,156,9999,9999,9999,238419068
602,17,Jits_Phase_5,157,9999,9999,9999,238918740
602,17,Jits_Phase_5,158,9999,9999,9999,239418424
602,17,Jits_Phase_5,159,9999,9999,9999,239918180
602,17,Jits_Phase_5,160,9999,9999,9999,240418920
602,17,Jits_Phase_5,161,9999,9999,9999,240918616
602,17,Jits_Phase_5,162,9999,9999,9999,241418296
602,17,Jits_Phase_5,163,9999,9999,9999,241919040
602,17,Jits_Phase_5,164,9999,9999,9999,242418808
602,17,Jits_Phase_5,165,9999,9999,9999,242918492
602,17,Jits_Phase_5,166,9999,9999,9999,243418188
602,17,Jits_Phase_5,167,9999,9999,9999,243918932
602,17,Jits_Phase_5,168,9999,9999,9999,244418616
602,17,Jits_Phase_5,169,9999,9999,9999,244918372
603,7,Jits_ISO_8,0,5,56,103,255206748
603,7,Jits_ISO_8,1,5,63,98,255209844
603,7,Jits_ISO_8,2,5,80,127,255213044
603,7,Jits_ISO_8,0,5,56,103,256006476
603,7,Jits_ISO_8,1,5,63,98,256009572
603,7,Jits_ISO_8,2,5,80,127,256012548
603,7,Jits_ISO_8,0,5,80,127,256746728
603,7,Jits_ISO_8,1,5,63,98,256837084
603,7,Jits_ISO_8,2,5,56,103,256847280
603,7,Jits_ISO_8,0,5,56,103,257567224
603,7,Jits_ISO_8,1,5,63,98,257577496
603,7,Jits_ISO_8,2,5,80,127,257666356
603,7,Jits_ISO_8,0,5,63,98,258337224
603,7,Jits_ISO_8,1,1,48,32,258362444
603,7,Jits_ISO_8,2,5,80,127,258366968
603,7,Jits_ISO_8,3,5,56,103,258396568
603,7,Jits_ISO_8,0,1,48,38,259110524
603,7,Jits_ISO_8,1,5,56,103,259137000
603,7,Jits_ISO_8,2,5,80,127,259237236
603,7,Jits_ISO_8,3,5,63,98,259287388
603,7,Jits_ISO_8,0,5,56,103,259936652
603,7,Jits_ISO_8,1,1,48,26,259968168
603,7,Jits_ISO_8,2,5,80,127,259987072
603,7,Jits_ISO_8,3,5,63,98,260026884
603,7,Jits_ISO_8,4,1,48,25,260142876
603,7,Jits_ISO_8,0,5,80,127,260767224
603,7,Jits_ISO_8,1,5,63,98,260797148
603,7,Jits_ISO_8,2,5,56,103,260866308
603,7,Jits_ISO_8,0,5,63,98,261596520
603,7,Jits_ISO_8,1,5,56,103,261627320
603,7,Jits_ISO_8,2,5,80,127,261686512
603,7,Jits_ISO_8,3,1,48,49,261725520
603,7,Jits_ISO_8,0,5,56,103,262336896
603,7,Jits_ISO_8,1,5,80,127,262340036
603,7,Jits_ISO_8,2,1,48,42,262443396
603,7,Jits_ISO_8,3,5,63,98,262456840
603,7,Jits_ISO_8,0,1,48,40,263192092
603,7,Jits_ISO_8,1,5,56,103,263216476
603,7,Jits_ISO_8,2,5,80,127,263256416
603,7,Jits_ISO_8,3,5,63,98,263266612
603,7,Jits_ISO_8,0,5,56,103,263977388
603,7,Jits_ISO_8,1,5,80,127,263997024
603,7,Jits_ISO_8,2,1,48,36,264025552
603,7,Jits_ISO_8,3,5,63,98,264076816
603,7,Jits_ISO_8,0,5,80,127,264766932
603,7,Jits_ISO_8,1,1,48,43,264780464
603,7,Jits_ISO_8,2,5,56,103,264867176
603,7,Jits_ISO_8,3,5,63,98,264877380
603,7,Jits_ISO_8,0,5,63,98,265536848
603,7,Jits_ISO_8,1,5,80,127,265597240
603,7,Jits_ISO_8,2,5,56,103,265606464
603,7,Jits_ISO_8,3,1,48,40,265640520
603,7,Jits_ISO_8,0,5,56,103,266336704
603,7,Jits_ISO_8,1,1,48,45,266399164
603,7,Jits_ISO_8,2,5,63,98,266407352
603,7,Jits_ISO_8,3,5,80,127,266410644
603,7,Jits_ISO_8,0,1,48,39,267148948
603,7,Jits_ISO_8,1,5,63,98,267166960
603,7,Jits_ISO_8,2,5,56,103,267217408
603,7,Jits_ISO_8,3,5,80,127,267220400
603,7,Jits_ISO_8,0,5,56,103,267927028
603,7,Jits_ISO_8,1,5,80,127,267930096
603,7,Jits_ISO_8,2,1,48,39,267973316
603,7,Jits_ISO_8,3,5,63,98,268016880
603,7,Jits_ISO_8,0,1,48,36,268708280
603,7,Jits_ISO_8,1,5,63,98,268766696
603,7,Jits_ISO_8,2,5,56,103,268856744
603,7,Jits_ISO_8,3,5,80,127,268887464
603,7,Jits_ISO_8,0,5,56,103,269557056
603,7,Jits_ISO_8,1,1,48,37,269604664
603,7,Jits_ISO_8,2,5,63,98,269656624
603,7,Jits_ISO_8,3,5,80,127,269687048
603,7,Jits_ISO_8,0,1,48,37,270363264
603,7,Jits_ISO_8,1,5,63,98,270377308
603,7,Jits_ISO_8,2,5,56,103,270386684
603,7,Jits_ISO_8,3,5,80,127,270476652
603,7,Jits_ISO_8,0,1,48,39,271137440
603,7,Jits_ISO_8,1,5,63,98,271196580
603,7,Jits_ISO_8,2,5,56,103,271277352
603,7,Jits_ISO_8,3,5,80,127,271280724
603,7,Jits_ISO_8,0,5,80,127,271957488
603,7,Jits_ISO_8,1,1,48,36,271958824
603,7,Jits_ISO_8,2,5,63,98,271976820
603,7,Jits_ISO_8,3,5,56,103,272037356
603,7,Jits_ISO_8,0,1,48,41,272773660
603,7,Jits_ISO_8,1,5,56,103,272796996
603,7,Jits_ISO_8,2,5,63,98,272816580
603,7,Jits_ISO_8,3,5,80,127,272819944
603,7,Jits_ISO_8,0,5,63,98,273537440
603,7,Jits_ISO_8,1,1,48,29,273568808
603,7,Jits_ISO_8,2,5,80,127,273617180
603,7,Jits_ISO_8,3,5,56,103,273626404
603,7,Jits_ISO_8,0,1,48,34,274348608
603,7,Jits_ISO_8,1,5,63,98,274356580
603,7,Jits_ISO_8,2,5,56,103,274377036
603,7,Jits_ISO_8,3,5,80,127,274427240
603,7,Jits_ISO_8,0,1,48,30,275155148
603,7,Jits_ISO_8,1,5,80,127,275157264
603,7,Jits_ISO_8,2,5,63,98,275197204
603,7,Jits_ISO_8,3,5,56,103,275216768
603,7,Jits_ISO_8,0,1,48,31,275984760
603,7,Jits_ISO_8,1,5,56,103,275996916
603,7,Jits_ISO_8,2,5,63,98,276007188
603,7,Jits_ISO_8,3,5,80,127,276026820
603,7,Jits_ISO_8,0,1,48,38,276724068
603,7,Jits_ISO_8,1,5,56,103,276727248
603,7,Jits_ISO_8,2,5,63,98,276817164
603,7,Jits_ISO_8,3,5,80,127,276876860
603,7,Jits_ISO_8,0,1,48,40,277523036
603,7,Jits_ISO_8,1,5,80,127,277556712
603,7,Jits_ISO_8,2,5,56,103,277566832
603,7,Jits_ISO_8,3,5,63,98,277636868
603,7,Jits_ISO_8,0,1,48,35,278339764
603,7,Jits_ISO_8,1,5,63,98,278386916
603,7,Jits_ISO_8,2,5,80,127,278477288
603,7,Jits_ISO_8,3,5,56,103,278487336
603,7,Jits_ISO_8,0,5,63,98,279127604
603,7,Jits_ISO_8,1,5,80,127,279176540
603,7,Jits_ISO_8,2,1,48,35,279218716
603,7,Jits_ISO_8,3,5,56,103,279236872
603,7,Jits_ISO_8,0,5,56,103,279956840
603,7,Jits_ISO_8,1,1,48,27,279996172
603,7,Jits_ISO_8,2,5,80,127,280007060
603,7,Jits_ISO_8,3,5,63,98,280026620
603,7,Jits_ISO_8,0,5,56,103,280726820
603,7,Jits_ISO_8,1,1,48,41,280768100
603,7,Jits_ISO_8,2,5,80,127,280787604
603,7,Jits_ISO_8,3,5,63,98,280856912
603,7,Jits_ISO_8,0,5,56,103,281526652
603,7,Jits_ISO_8,1,5,80,127,281557300
603,7,Jits_ISO_8,2,1,48,29,281561912
603,7,Jits_ISO_8,3,5,63,98,281587116
603,7,Jits_ISO_8,0,1,48,38,282306336
603,7,Jits_ISO_8,1,5,56,103,282367272
603,7,Jits_ISO_8,2,5,80,127,282386908
603,7,Jits_ISO_8,3,5,63,98,282447136
603,7,Jits_ISO_8,0,1,48,38,283135648
603,7,Jits_ISO_8,1,5,80,127,283247064
603,7,Jits_ISO_8,2,5,56,103,283257112
603,7,Jits_ISO_8,3,5,63,98,283266636
603,7,Jits_ISO_8,0,1,48,38,283986916
603,7,Jits_ISO_8,1,5,56,103,284006724
603,7,Jits_ISO_8,2,5,80,127,284046664
603,7,Jits_ISO_8,3,5,63,98,284077408
603,7,Jits_ISO_8,0,5,56,103,284776928
603,7,Jits_ISO_8,1,5,63,98,284806680
603,7,Jits_ISO_8,2,1,48,28,284842532
603,7,Jits_ISO_8,3,5,80,127,284846636
603,7,Jits_ISO_8,0,5,80,127,285527360
603,7,Jits_ISO_8,1,5,63,98,285576664
603,7,Jits_ISO_8,2,1,48,41,285592964
603,7,Jits_ISO_8,3,5,56,103,285597044
603,7,Jits_ISO_8,0,5,56,103,286356976
603,7,Jits_ISO_8,1,1,48,27,286384480
603,7,Jits_ISO_8,2,5,80,127,286426456
603,7,Jits_ISO_8,3,5,63,98,286486832
603,7,Jits_ISO_8,0,1,48,42,287152424
603,7,Jits_ISO_8,1,5,80,127,287156652
603,7,Jits_ISO_8,2,5,63,98,287246640
603,7,Jits_ISO_8,3,5,56,103,287267308
603,7,Jits_ISO_8,0,1,48,45,287902368
603,7,Jits_ISO_8,1,5,63,98,287976752
603,7,Jits_ISO_8,2,5,56,103,287997496
603,7,Jits_ISO_8,3,5,80,127,288037432
603,7,Jits_ISO_8,0,1,48,46,288682824
603,7,Jits_ISO_8,1,5,80,127,288736608
603,7,Jits_ISO_8,2,5,63,98,288757068
603,7,Jits_ISO_8,3,5,56,103,288836924
603,7,Jits_ISO_8,0,1,48,34,289494196
603,7,Jits_ISO_8,1,5,63,98,289527328
603,7,Jits_ISO_8,2,5,56,103,289636704
603,7,Jits_ISO_8,3,5,80,127,289639920
603,7,Jits_ISO_8,0,1,48,45,290300480
603,7,Jits_ISO_8,1,5,63,98,290347412
603,7,Jits_ISO_8,2,5,56,103,290356560
603,7,Jits_ISO_8,3,5,80,127,290359700
603,7,Jits_ISO_8,0,5,56,103,291126592
603,7,Jits_ISO_8,1,1,48,39,291131880
603,7,Jits_ISO_8,2,5,80,127,291246476
603,7,Jits_ISO_8,3,5,63,98,291287312
603,7,Jits_ISO_8,0,1,48,47,291908456
603,7,Jits_ISO_8,1,5,56,103,291946920
603,7,Jits_ISO_8,2,5,80,127,292026656
603,7,Jits_ISO_8,3,5,63,98,292047412
603,7,Jits_ISO_8,0,1,48,38,292685400
603,7,Jits_ISO_8,1,5,56,103,292746560
603,7,Jits_ISO_8,2,5,63,98,292857456
603,7,Jits_ISO_8,3,5,80,127,292860672
603,7,Jits_ISO_8,0,1,48,31,293537624
603,7,Jits_ISO_8,1,5,56,103,293577160
603,7,Jits_ISO_8,2,5,80,127,293606912
603,7,Jits_ISO_8,3,5,63,98,293627520
603,7,Jits_ISO_8,0,1,48,29,294342524
603,7,Jits_ISO_8,1,5,63,98,294357468
603,7,Jits_ISO_8,2,5,56,103,294366620
603,7,Jits_ISO_8,3,5,80,127,294376888
603,7,Jits_ISO_8,0,1,48,28,295139772
603,7,Jits_ISO_8,1,5,80,127,295146844
603,7,Jits_ISO_8,2,5,56,103,295196896
603,7,Jits_ISO_8,3,5,63,98,295237264
603,7,Jits_ISO_8,0,1,48,47,295937092
603,7,Jits_ISO_8,1,5,80,127,295967232
603,7,Jits_ISO_8,2,5,63,98,295986424
603,7,Jits_ISO_8,3,5,56,103,296036608
603,7,Jits_ISO_8,0,1,48,36,296686156
603,7,Jits_ISO_8,1,5,80,127,296777136
603,7,Jits_ISO_8,2,5,56,103,296806724
603,7,Jits_ISO_8,3,5,63,98,296877552
603,7,Jits_ISO_8,0,1,48,43,297504512
603,7,Jits_ISO_8,1,5,56,103,297626964
603,7,Jits_ISO_8,2,5,80,127,297637460
603,7,Jits_ISO_8,3,5,63,98,297677420
603,7,Jits_ISO_8,0,5,56,103,298336572
603,7,Jits_ISO_8,1,5,63,98,298357184
603,7,Jits_ISO_8,2,1,48,29,298400908
603,7,Jits_ISO_8,3,5,80,127,298426808
603,7,Jits_ISO_8,0,1,48,43,299122920
603,7,Jits_ISO_8,1,5,63,98,299156968
603,7,Jits_ISO_8,2,5,80,127,299217388
603,7,Jits_ISO_8,3,5,56,103,299236636
603,7,Jits_ISO_8,0,1,48,30,299912968
603,7,Jits_ISO_8,1,5,80,127,299947420
603,7,Jits_ISO_8,2,5,56,103,299977020
603,7,Jits_ISO_8,3,5,63,98,300006696
603,7,Jits_ISO_8,0,1,48,42,300713208
603,7,Jits_ISO_8,1,5,56,103,300747352
603,7,Jits_ISO_8,2,5,63,98,300806624
603,7,Jits_ISO_8,3,5,80,127,300866924
603,7,Jits_ISO_8,0,1,48,46,301531532
603,7,Jits_ISO_8,1,5,80,127,301567224
603,7,Jits_ISO_8,2,5,56,103,301586936
603,7,Jits_ISO_8,3,5,63,98,301656380
603,7,Jits_ISO_8,0,1,48,45,302341508
603,7,Jits_ISO_8,1,5,80,127,302367016
603,7,Jits_ISO_8,2,5,63,98,302386576
603,7,Jits_ISO_8,3,5,56,103,302417372
603,7,Jits_ISO_8,0,5,80,127,303156696
603,7,Jits_ISO_8,1,5,63,98,303177004
603,7,Jits_ISO_8,2,1,48,35,303210840
603,7,Jits_ISO_8,3,5,56,103,303236564
603,7,Jits_ISO_8,0,5,80,127,303957468
603,7,Jits_ISO_8,1,1,48,38,303966444
603,7,Jits_ISO_8,2,5,56,103,304056692
603,7,Jits_ISO_8,3,5,63,98,304087400
603,7,Jits_ISO_8,0,5,63,98,304746940
603,7,Jits_ISO_8,1,5,80,127,304797148
603,7,Jits_ISO_8,2,1,48,43,304799160
603,7,Jits_ISO_8,3,5,56,103,304816428
603,7,Jits_ISO_8,0,5,80,127,305586616
603,7,Jits_ISO_8,1,1,48,30,305593476
603,7,Jits_ISO_8,2,5,56,103,305617256
603,7,Jits_ISO_8,3,5,63,98,305620320
603,7,Jits_ISO_8,0,1,48,39,306366300
603,7,Jits_ISO_8,1,5,63,98,306416972
603,7,Jits_ISO_8,2,5,56,103,306457288
603,7,Jits_ISO_8,3,5,80,127,306477360
603,7,Jits_ISO_8,0,1,48,43,307141672
603,7,Jits_ISO_8,1,5,80,127,307157284
603,7,Jits_ISO_8,2,5,63,98,307237736
603,7,Jits_ISO_8,3,5,56,103,307277156
603,7,Jits_ISO_8,0,1,48,51,307949936
603,7,Jits_ISO_8,1,5,63,98,307976636
603,7,Jits_ISO_8,2,5,80,127,308056496
603,7,Jits_ISO_8,3,5,56,103,308077180
603,7,Jits_ISO_8,0,1,48,39,308769288
603,7,Jits_ISO_8,1,5,56,103,308817192
603,7,Jits_ISO_8,2,5,63,98,308826416
603,7,Jits_ISO_8,3,5,80,127,308866340
603,7,Jits_ISO_8,0,5,56,103,309537120
603,7,Jits_ISO_8,1,5,80,127,309540188
603,7,Jits_ISO_8,2,1,48,42,309577032
603,7,Jits_ISO_8,3,5,63,98,309677376
603,7,Jits_ISO_8,0,1,48,52,310317028
603,7,Jits_ISO_8,1,5,56,103,310326572
603,7,Jits_ISO_8,2,5,63,98,310416840
603,7,Jits_ISO_8,3,5,80,127,310487296
603,7,Jits_ISO_8,0,1,48,40,311177060
603,7,Jits_ISO_8,1,5,63,98,311207352
603,7,Jits_ISO_8,2,5,80,127,311210664
603,7,Jits_ISO_8,3,5,56,103,311266644
603,7,Jits_ISO_8,0,1,48,48,311962900
603,7,Jits_ISO_8,1,5,80,127,312047172
603,7,Jits_ISO_8,2,5,56,103,312066496
603,7,Jits_ISO_8,3,5,63,98,312076620
603,7,Jits_ISO_8,0,5,56,103,312756548
603,7,Jits_ISO_8,1,5,63,98,312767112
603,7,Jits_ISO_8,2,1,48,53,312772548
603,7,Jits_ISO_8,3,5,80,127,312836340
603,7,Jits_ISO_8,0,5,80,127,313557396
603,7,Jits_ISO_8,1,1,48,45,313561036
603,7,Jits_ISO_8,2,5,56,103,313606696
603,7,Jits_ISO_8,3,5,63,98,313656896
603,7,Jits_ISO_8,0,1,48,35,314332516
603,7,Jits_ISO_8,1,5,56,103,314436904
603,7,Jits_ISO_8,2,5,63,98,314447248
603,7,Jits_ISO_8,3,5,80,127,314487112
603,7,Jits_ISO_8,0,5,56,103,315177232
603,7,Jits_ISO_8,1,1,48,19,315215888
603,7,Jits_ISO_8,2,5,63,98,315217388
603,7,Jits_ISO_8,3,5,80,127,315266472
603,7,Jits_ISO_8,0,5,80,127,315937108
603,7,Jits_ISO_8,1,1,48,45,315984792
603,7,Jits_ISO_8,2,5,56,103,315987376
603,7,Jits_ISO_8,3,5,63,98,316006940
603,7,Jits_ISO_8,0,1,48,46,316706984
603,7,Jits_ISO_8,1,5,80,127,316747088
603,7,Jits_ISO_8,2,5,63,98,316806420
603,7,Jits_ISO_8,3,5,56,103,316887360
603,7,Jits_ISO_8,0,5,80,127,317527408
603,7,Jits_ISO_8,1,5,56,103,317567200
603,7,Jits_ISO_8,2,1,48,55,317570244
603,7,Jits_ISO_8,3,5,63,98,317587052
603,7,Jits_ISO_8,0,5,56,103,318377256
603,7,Jits_ISO_8,1,5,80,127,318386556
603,7,Jits_ISO_8,2,5,63,98,318426420
603,7,Jits_ISO_8,3,1,48,33,318514260
603,7,Jits_ISO_8,0,1,48,23,319218164
603,7,Jits_ISO_8,1,5,56,103,319246808
603,7,Jits_ISO_8,2,5,63,98,319286820
603,7,Jits_ISO_8,3,5,80,127,319289964
603,7,Jits_ISO_8,0,5,63,98,319936772
603,7,Jits_ISO_8,1,1,48,35,319960344
603,7,Jits_ISO_8,2,5,80,127,319976928
603,7,Jits_ISO_8,3,5,56,103,320046308
603,7,Jits_ISO_8,0,5,63,98,320727340
603,7,Jits_ISO_8,1,1,48,54,320764688
603,7,Jits_ISO_8,2,5,56,103,320807208
603,7,Jits_ISO_8,3,5,80,127,320866684
603,7,Jits_ISO_8,0,1,48,60,321527324
603,7,Jits_ISO_8,1,5,80,127,321537460
603,7,Jits_ISO_8,2,5,63,98,321586620
603,7,Jits_ISO_8,3,5,56,103,321617192
603,7,Jits_ISO_8,0,5,56,103,322326768
603,7,Jits_ISO_8,1,1,48,53,322349888
603,7,Jits_ISO_8,2,5,63,98,322376964
603,7,Jits_ISO_8,3,5,80,127,322387236
603,7,Jits_ISO_8,0,1,48,59,323115152
603,7,Jits_ISO_8,1,5,56,103,323136824
603,7,Jits_ISO_8,2,5,63,98,323246300
603,7,Jits_ISO_8,3,5,80,127,323266908
603,7,Jits_ISO_8,0,5,63,98,323936772
603,7,Jits_ISO_8,1,1,48,35,323948736
603,7,Jits_ISO_8,2,5,80,127,323986896
603,7,Jits_ISO_8,3,5,56,103,324076964
603,7,Jits_ISO_8,0,5,63,98,324727196
603,7,Jits_ISO_8,1,5,80,127,324756800
603,7,Jits_ISO_8,2,1,48,36,324835620
603,7,Jits_ISO_8,3,5,56,103,324846952
603,7,Jits_ISO_8,0,5,63,98,325526988
603,7,Jits_ISO_8,1,5,56,103,325537108
603,7,Jits_ISO_8,2,1,48,31,325577564
603,7,Jits_ISO_8,3,5,80,127,325636624
603,7,Jits_ISO_8,0,1,48,28,326358004
603,7,Jits_ISO_8,1,5,63,98,326426964
603,7,Jits_ISO_8,2,5,80,127,326456628
603,7,Jits_ISO_8,3,5,56,103,326487572
603,7,Jits_ISO_8,0,1,48,40,327175272
603,7,Jits_ISO_8,1,5,80,127,327247216
603,7,Jits_ISO_8,2,5,63,98,327256516
603,7,Jits_ISO_8,3,5,56,103,327287148
603,7,Jits_ISO_8,0,5,80,127,327946700
603,7,Jits_ISO_8,1,5,63,98,327967088
603,7,Jits_ISO_8,2,1,48,43,327997560
603,7,Jits_ISO_8,3,5,56,103,328017208
603,7,Jits_ISO_8,0,1,48,46,328724276
603,7,Jits_ISO_8,1,5,63,98,328777136
603,7,Jits_ISO_8,2,5,80,127,328836544
603,7,Jits_ISO_8,3,5,56,103,328857000
603,7,Jits_ISO_8,0,1,48,43,329493128
603,7,Jits_ISO_8,1,5,63,98,329536920
603,7,Jits_ISO_8,2,5,56,103,329587184
603,7,Jits_ISO_8,3,5,80,127,329597452
603,7,Jits_ISO_8,0,1,48,46,330272164
603,7,Jits_ISO_8,1,5,56,103,330368528
603,7,Jits_ISO_8,2,5,80,127,330376632
603,7,Jits_ISO_8,3,5,63,98,330476828
603,7,Jits_ISO_8,0,1,48,50,331086496
603,7,Jits_ISO_8,1,5,80,127,331127128
603,7,Jits_ISO_8,2,5,63,98,331137624
603,7,Jits_ISO_8,3,5,56,103,331286952
603,7,Jits_ISO_8,0,1,48,42,331878640
603,7,Jits_ISO_8,1,5,63,98,331937032
603,7,Jits_ISO_8,2,5,80,127,331976984
603,7,Jits_ISO_8,3,5,56,103,332057076
603,7,Jits_ISO_8,0,1,48,44,332692956
603,7,Jits_ISO_8,1,5,56,103,332726580
603,7,Jits_ISO_8,2,5,80,127,332827040
603,7,Jits_ISO_8,3,5,63,98,332846452
603,7,Jits_ISO_8,0,1,48,38,333541628
603,7,Jits_ISO_8,1,5,80,127,333586760
603,7,Jits_ISO_8,2,5,56,103,333597032
603,7,Jits_ISO_8,3,5,63,98,333687148
603,7,Jits_ISO_8,0,1,48,43,334325392
603,7,Jits_ISO_8,1,5,56,103,334386480
603,7,Jits_ISO_8,2,5,63,98,334407012
603,7,Jits_ISO_8,3,5,80,127,334486872
603,7,Jits_ISO_8,0,1,48,38,335105632
603,7,Jits_ISO_8,1,5,63,98,335137048
603,7,Jits_ISO_8,2,5,56,103,335227388
603,7,Jits_ISO_8,3,5,80,127,335230532
603,7,Jits_ISO_8,0,1,48,38,335924816
603,7,Jits_ISO_8,1,5,56,103,335966648
603,7,Jits_ISO_8,2,5,80,127,336026952
603,7,Jits_ISO_8,3,5,63,98,336037368
603,7,Jits_ISO_8,0,1,48,43,336740032
603,7,Jits_ISO_8,1,5,80,127,336816656
603,7,Jits_ISO_8,2,5,56,103,336826924
603,7,Jits_ISO_8,3,5,63,98,336830068
603,7,Jits_ISO_8,0,1,48,44,337571652
603,7,Jits_ISO_8,1,5,56,103,337577628
603,7,Jits_ISO_8,2,5,80,127,337586480
603,7,Jits_ISO_8,3,5,63,98,337607084
603,7,Jits_ISO_8,0,5,63,98,338347600
603,7,Jits_ISO_8,1,1,48,50,338368328
603,7,Jits_ISO_8,2,5,80,127,338406640
603,7,Jits_ISO_8,3,5,56,103,338456916
603,7,Jits_ISO_8,0,1,48,51,339161292
603,7,Jits_ISO_8,1,5,63,98,339227176
603,7,Jits_ISO_8,2,5,56,103,339237372
603,7,Jits_ISO_8,3,5,80,127,339287560
603,7,Jits_ISO_8,0,5,63,98,339927408
603,7,Jits_ISO_8,1,5,80,127,339946820
603,7,Jits_ISO_8,2,5,56,103,339957092
603,7,Jits_ISO_8,3,1,48,47,339984100
603,7,Jits_ISO_8,0,1,48,43,340677184
603,7,Jits_ISO_8,1,5,63,98,340727328
603,7,Jits_ISO_8,2,5,80,127,340730692
603,7,Jits_ISO_8,3,5,56,103,340767264
603,7,Jits_ISO_8,0,1,48,46,341427728
603,7,Jits_ISO_8,1,5,63,98,341596468
603,7,Jits_ISO_8,2,5,80,127,341627196
603,7,Jits_ISO_8,3,5,56,103,341636420
603,7,Jits_ISO_8,0,1,48,51,342225872
603,7,Jits_ISO_8,1,5,56,103,342347408
603,7,Jits_ISO_8,2,5,80,127,342376788
603,7,Jits_ISO_8,3,5,63,98,342406464
603,7,Jits_ISO_8,0,1,48,46,343008728
603,7,Jits_ISO_8,1,5,63,98,343247244
603,7,Jits_ISO_8,2,5,56,103,343287332
603,7,Jits_ISO_8,3,5,80,127,343290400
603,7,Jits_ISO_8,0,1,48,49,343797428
603,7,Jits_ISO_8,1,5,80,127,343946468
603,7,Jits_ISO_8,2,5,56,103,344026516
603,7,Jits_ISO_8,3,5,63,98,344076568
603,7,Jits_ISO_8,0,1,48,43,344637908
603,7,Jits_ISO_8,1,5,80,127,344726868
603,7,Jits_ISO_8,2,5,56,103,344747412
603,7,Jits_ISO_8,3,5,63,98,344836424
603,7,Jits_ISO_8,0,1,48,47,345422472
603,7,Jits_ISO_8,1,5,80,127,345566448
603,7,Jits_ISO_8,2,5,63,98,345606388
603,7,Jits_ISO_8,3,5,56,103,345646400
603,7,Jits_ISO_8,0,1,48,52,346230136
603,7,Jits_ISO_8,1,5,63,98,346336568
603,7,Jits_ISO_8,2,5,80,127,346397032
603,7,Jits_ISO_8,3,5,56,103,346426784
603,7,Jits_ISO_8,0,1,48,48,347019732
603,7,Jits_ISO_8,1,5,56,103,347137400
603,7,Jits_ISO_8,2,5,80,127,347167300
603,7,Jits_ISO_8,3,5,63,98,347257208
603,7,Jits_ISO_8,0,1,48,53,347787976
603,7,Jits_ISO_8,1,5,56,103,347947300
603,7,Jits_ISO_8,2,5,80,127,348056916
603,7,Jits_ISO_8,3,5,63,98,348086544
603,7,Jits_ISO_8,0,1,48,47,348624200
603,7,Jits_ISO_8,1,5,56,103,348797444
603,7,Jits_ISO_8,2,5,63,98,348856592
603,7,Jits_ISO_8,3,5,80,127,348887388
603,7,Jits_ISO_8,0,1,48,48,349410888
603,7,Jits_ISO_8,1,5,56,103,349567196
603,7,Jits_ISO_8,2,5,63,98,349637128
603,7,Jits_ISO_8,3,5,80,127,349656392
603,7,Jits_ISO_8,0,1,48,53,350156592
603,7,Jits_ISO_8,1,5,80,127,350337468
603,7,Jits_ISO_8,2,5,63,98,350356808
603,7,Jits_ISO_8,3,5,56,103,350407256
603,7,Jits_ISO_8,0,9999,9999,9999,255604840
603,7,Jits_ISO_8,1,9999,9999,9999,256404568
603,7,Jits_ISO_8,2,9999,9999,9999,257204336
603,7,Jits_ISO_8,3,9999,9999,9999,258005052
603,7,Jits_ISO_8,4,9999,9999,9999,258804844
603,7,Jits_ISO_8,5,9999,9999,9999,259604564
603,7,Jits_ISO_8,6,9999,9999,9999,260404324
603,7,Jits_ISO_8,7,9999,9999,9999,261205056
603,7,Jits_ISO_8,8,9999,9999,9999,262004860
603,7,Jits_ISO_8,9,9999,9999,9999,262804560
603,7,Jits_ISO_8,10,9999,9999,9999,263604320
603,7,Jits_ISO_8,11,9999,9999,9999,264405084
603,7,Jits_ISO_8,12,9999,9999,9999,265204820
603,7,Jits_ISO_8,13,9999,9999,9999,266004544
603,7,Jits_ISO_8,14,9999,9999,9999,266804296
603,7,Jits_ISO_8,15,9999,9999,9999,267605060
603,7,Jits_ISO_8,16,9999,9999,9999,268404828
603,7,Jits_ISO_8,17,9999,9999,9999,269204564
603,7,Jits_ISO_8,18,9999,9999,9999,270004308
603,7,Jits_ISO_8,19,9999,9999,9999,270805084
603,7,Jits_ISO_8,20,9999,9999,9999,271604796
603,7,Jits_ISO_8,21,9999,9999,9999,272404580
603,7,Jits_ISO_8,22,9999,9999,9999,273204304
603,7,Jits_ISO_8,23,9999,9999,9999,274005064
603,7,Jits_ISO_8,24,9999,9999,9999,274804852
603,7,Jits_ISO_8,25,9999,9999,9999,275604568
603,7,Jits_ISO_8,26,9999,9999,9999,276404312
603,7,Jits_ISO_8,27,9999,9999,9999,277205072
603,7,Jits_ISO_8,28,9999,9999,9999,278004860
603,7,Jits_ISO_8,29,9999,9999,9999,278804584
603,7,Jits_ISO_8,30,9999,9999,9999,279604296
603,7,Jits_ISO_8,31,9999,9999,9999,280405056
603,7,Jits_ISO_8,32,9999,9999,9999,281204860
603,7,Jits_ISO_8,33,9999,9999,9999,282004584
603,7,Jits_ISO_8,34,9999,9999,9999,282804336
603,7,Jits_ISO_8,35,9999,9999,9999,283605108
603,7,Jits_ISO_8,36,9999,9999,9999,284404828
603,7,Jits_ISO_8,37,9999,9999,9999,285204548
603,7,Jits_ISO_8,38,9999,9999,9999,286004348
603,7,Jits_ISO_8,39,9999,9999,9999,286805048
603,7,Jits_ISO_8,40,9999,9999,9999,287604860
603,7,Jits_ISO_8,41,9999,9999,9999,288404572
603,7,Jits_ISO_8,42,9999,9999,9999,289204312
603,7,Jits_ISO_8,43,9999,9999,9999,290005064
603,7,Jits_ISO_8,44,9999,9999,9999,290804840
603,7,Jits_ISO_8,45,9999,9999,9999,291604560
603,7,Jits_ISO_8,46,9999,9999,9999,292404288
603,7,Jits_ISO_8,47,9999,9999,9999,293205044
603,7,Jits_ISO_8,48,9999,9999,9999,294004836
603,7,Jits_ISO_8,49,9999,9999,9999,294804544
603,7,Jits_ISO_8,50,9999,9999,9999,295604284
603,7,Jits_ISO_8,51,9999,9999,9999,296405044
603,7,Jits_ISO_8,52,9999,9999,9999,297204836
603,7,Jits_ISO_8,53,9999,9999,9999,298004560
603,7,Jits_ISO_8,54,9999,9999,9999,298804344
603,7,Jits_ISO_8,55,9999,9999,9999,299605048
603,7,Jits_ISO_8,56,9999,9999,9999,300404832
603,7,Jits_ISO_8,57,9999,9999,9999,301204548
603,7,Jits_ISO_8,58,9999,9999,9999,302004288
603,7,Jits_ISO_8,59,9999,9999,9999,302805048
603,7,Jits_ISO_8,60,9999,9999,9999,303604836
603,7,Jits_ISO_8,61,9999,9999,9999,304404572
603,7,Jits_ISO_8,62,9999,9999,9999,305204304
603,7,Jits_ISO_8,63,9999,9999,9999,306005056
603,7,Jits_ISO_8,64,9999,9999,9999,306804796
603,7,Jits_ISO_8,65,9999,9999,9999,307604592
603,7,Jits_ISO_8,66,9999,9999,9999,308404340
603,7,Jits_ISO_8,67,9999,9999,9999,309205108
603,7,Jits_ISO_8,68,9999,9999,9999,310004812
603,7,Jits_ISO_8,69,9999,9999,9999,310804544
603,7,Jits_ISO_8,70,9999,9999,9999,311604328
603,7,Jits_ISO_8,71,9999,9999,9999,312405100
603,7,Jits_ISO_8,72,9999,9999,9999,313204812
603,7,Jits_ISO_8,73,9999,9999,9999,314004544
603,7,Jits_ISO_8,74,9999,9999,9999,314804312
603,7,Jits_ISO_8,75,9999,9999,9999,315605076
603,7,Jits_ISO_8,76,9999,9999,9999,316404804
603,7,Jits_ISO_8,77,9999,9999,9999,317204536
603,7,Jits_ISO_8,78,9999,9999,9999,318004320
603,7,Jits_ISO_8,79,9999,9999,9999,318805072
603,7,Jits_ISO_8,80,9999,9999,9999,319604804
603,7,Jits_ISO_8,81,9999,9999,9999,320404592
603,7,Jits_ISO_8,82,9999,9999,9999,321204332
603,7,Jits_ISO_8,83,9999,9999,9999,322005092
603,7,Jits_ISO_8,84,9999,9999,9999,322804800
603,7,Jits_ISO_8,85,9999,9999,9999,323604532
603,7,Jits_ISO_8,86,9999,9999,9999,324404324
603,7,Jits_ISO_8,87,9999,9999,9999,325205084
603,7,Jits_ISO_8,88,9999,9999,9999,326004796
603,7,Jits_ISO_8,89,9999,9999,9999,326804596
603,7,Jits_ISO_8,90,9999,9999,9999,327604348
603,7,Jits_ISO_8,91,9999,9999,9999,328405108
603,7,Jits_ISO_8,92,9999,9999,9999,329204840
603,7,Jits_ISO_8,93,9999,9999,9999,330004548
603,7,Jits_ISO_8,94,9999,9999,9999,330804340
603,7,Jits_ISO_8,95,9999,9999,9999,331605100
603,7,Jits_ISO_8,96,9999,9999,9999,332404816
603,7,Jits_ISO_8,97,9999,9999,9999,333204604
603,7,Jits_ISO_8,98,9999,9999,9999,334004272
603,7,Jits_ISO_8,99,9999,9999,9999,334805112
603,7,Jits_ISO_8,100,9999,9999,9999,335604820
603,7,Jits_ISO_8,101,9999,9999,9999,336404536
603,7,Jits_ISO_8,102,9999,9999,9999,337204316
603,7,Jits_ISO_8,103,9999,9999,9999,338005076
603,7,Jits_ISO_8,104,9999,9999,9999,338804788
603,7,Jits_ISO_8,105,9999,9999,9999,339604584
603,7,Jits_ISO_8,106,9999,9999,9999,340404316
603,7,Jits_ISO_8,107,9999,9999,9999,341205060
603,7,Jits_ISO_8,108,9999,9999,9999,342004856
603,7,Jits_ISO_8,109,9999,9999,9999,342804564
603,7,Jits_ISO_8,110,9999,9999,9999,343604284
603,7,Jits_ISO_8,111,9999,9999,9999,344405048
603,7,Jits_ISO_8,112,9999,9999,9999,345204836
603,7,Jits_ISO_8,113,9999,9999,9999,346004552
603,7,Jits_ISO_8,114,9999,9999,9999,346804288
603,7,Jits_ISO_8,115,9999,9999,9999,347605044
603,7,Jits_ISO_8,116,9999,9999,9999,348404836
603,7,Jits_ISO_8,117,9999,9999,9999,349204560
603,7,Jits_ISO_8,118,9999,9999,9999,350004280
603,7,Jits_ISO_8,119,9999,9999,9999,350805112
604,16,Jits_ISO_5,0,5,56,103,359807288
604,16,Jits_ISO_5,1,5,63,98,359810460
604,16,Jits_ISO_5,2,5,80,127,359813508
604,16,Jits_ISO_5,0,5,56,103,360307188
604,16,Jits_ISO_5,1,5,63,98,360310136
604,16,Jits_ISO_5,2,5,80,127,360313256
604,16,Jits_ISO_5,0,5,56,103,360806952
604,16,Jits_ISO_5,1,5,80,127,360817000
604,16,Jits_ISO_5,2,5,63,98,360836336
604,16,Jits_ISO_5,0,5,63,98,361257272
604,16,Jits_ISO_5,1,5,80,127,361287172
604,16,Jits_ISO_5,2,5,56,103,361297368
604,16,Jits_ISO_5,0,1,48,37,361746504
604,16,Jits_ISO_5,1,5,80,127,361816428
604,16,Jits_ISO_5,2,5,56,103,361826920
604,16,Jits_ISO_5,3,5,63,98,361857328
604,16,Jits_ISO_5,0,1,48,43,362213800
604,16,Jits_ISO_5,1,5,63,98,362307036
604,16,Jits_ISO_5,2,5,56,103,362336768
604,16,Jits_ISO_5,3,5,80,127,362346964
604,16,Jits_ISO_5,0,5,56,103,362756520
604,16,Jits_ISO_5,1,1,48,50,362778824
604,16,Jits_ISO_5,2,5,63,98,362806568
604,16,Jits_ISO_5,3,5,80,127,362827100
604,16,Jits_ISO_5,0,5,80,127,363257252
604,16,Jits_ISO_5,1,1,48,50,363298728
604,16,Jits_ISO_5,2,5,63,98,363307372
604,16,Jits_ISO_5,3,5,56,103,363347308
604,16,Jits_ISO_5,0,5,56,103,363757016
604,16,Jits_ISO_5,1,5,63,98,363786688
604,16,Jits_ISO_5,2,1,48,48,363812204
604,16,Jits_ISO_5,3,5,80,127,363857332
604,16,Jits_ISO_5,0,1,48,44,364246628
604,16,Jits_ISO_5,1,5,56,103,364256840
604,16,Jits_ISO_5,2,5,80,127,364317008
604,16,Jits_ISO_5,3,5,63,98,364346812
604,16,Jits_ISO_5,0,5,56,103,364766560
604,16,Jits_ISO_5,1,5,63,98,364776752
604,16,Jits_ISO_5,2,1,48,35,364778620
604,16,Jits_ISO_5,3,5,80,127,364816908
604,16,Jits_ISO_5,0,1,48,40,365247252
604,16,Jits_ISO_5,1,5,63,98,365257020
604,16,Jits_ISO_5,2,5,80,127,365337036
604,16,Jits_ISO_5,3,5,56,103,365347292
604,16,Jits_ISO_5,0,1,48,37,365783480
604,16,Jits_ISO_5,1,5,63,98,365806888
604,16,Jits_ISO_5,2,5,56,103,365846900
604,16,Jits_ISO_5,3,5,80,127,365849892
604,16,Jits_ISO_5,0,5,56,103,366267076
604,16,Jits_ISO_5,1,5,63,98,366276972
604,16,Jits_ISO_5,2,1,48,42,366289084
604,16,Jits_ISO_5,3,5,80,127,366316976
604,16,Jits_ISO_5,0,5,56,103,366757136
604,16,Jits_ISO_5,1,5,63,98,366760212
604,16,Jits_ISO_5,2,5,80,127,366776704
604,16,Jits_ISO_5,3,1,48,37,366787392
604,16,Jits_ISO_5,0,5,80,127,367267128
604,16,Jits_ISO_5,1,5,56,103,367277348
604,16,Jits_ISO_5,2,1,48,45,367280988
604,16,Jits_ISO_5,3,5,63,98,367346948
604,16,Jits_ISO_5,0,1,48,45,367753060
604,16,Jits_ISO_5,1,5,63,98,367756844
604,16,Jits_ISO_5,2,5,56,103,367777004
604,16,Jits_ISO_5,3,5,80,127,367856952
604,16,Jits_ISO_5,0,1,48,44,368237984
604,16,Jits_ISO_5,1,5,56,103,368266776
604,16,Jits_ISO_5,2,5,80,127,368306664
604,16,Jits_ISO_5,3,5,63,98,368316860
604,16,Jits_ISO_5,0,1,48,48,368753228
604,16,Jits_ISO_5,1,5,80,127,368767344
604,16,Jits_ISO_5,2,5,63,98,368797020
604,16,Jits_ISO_5,3,5,56,103,368836980
604,16,Jits_ISO_5,0,5,56,103,369286652
604,16,Jits_ISO_5,1,1,48,48,369295472
604,16,Jits_ISO_5,2,5,63,98,369317216
604,16,Jits_ISO_5,3,5,80,127,369367364
604,16,Jits_ISO_5,0,5,80,127,369787232
604,16,Jits_ISO_5,1,1,48,43,369793864
604,16,Jits_ISO_5,2,5,56,103,369827164
604,16,Jits_ISO_5,3,5,63,98,369837384
604,16,Jits_ISO_5,0,5,80,127,370266764
604,16,Jits_ISO_5,1,1,48,41,370298428
604,16,Jits_ISO_5,2,5,63,98,370306472
604,16,Jits_ISO_5,3,5,56,103,370366808
604,16,Jits_ISO_5,0,1,48,36,370756980
604,16,Jits_ISO_5,1,5,56,103,370767268
604,16,Jits_ISO_5,2,5,80,127,370776640
604,16,Jits_ISO_5,3,5,63,98,370858012
604,16,Jits_ISO_5,0,5,80,127,371266792
604,16,Jits_ISO_5,1,1,48,44,371278304
604,16,Jits_ISO_5,2,5,63,98,371327252
604,16,Jits_ISO_5,3,5,56,103,371357076
604,16,Jits_ISO_5,0,5,56,103,371766776
604,16,Jits_ISO_5,1,1,48,43,371798444
604,16,Jits_ISO_5,2,5,80,127,371827160
604,16,Jits_ISO_5,3,5,63,98,371867020
604,16,Jits_ISO_5,0,1,48,44,372268604
604,16,Jits_ISO_5,1,5,56,103,372316876
604,16,Jits_ISO_5,2,5,63,98,372326772
604,16,Jits_ISO_5,3,5,80,127,372330136
604,16,Jits_ISO_5,0,5,80,127,372767024
604,16,Jits_ISO_5,1,1,48,48,372822432
604,16,Jits_ISO_5,2,5,63,98,372857372
604,16,Jits_ISO_5,3,5,56,103,372866448
604,16,Jits_ISO_5,0,5,56,103,373266768
604,16,Jits_ISO_5,1,5,63,98,373269864
604,16,Jits_ISO_5,2,5,80,127,373272916
604,16,Jits_ISO_5,3,1,48,42,373329156
604,16,Jits_ISO_5,0,1,48,39,373779820
604,16,Jits_ISO_5,1,5,80,127,373787040
604,16,Jits_ISO_5,2,5,63,98,373837316
604,16,Jits_ISO_5,3,5,56,103,373866840
604,16,Jits_ISO_5,0,1,48,46,374252140
604,16,Jits_ISO_5,1,5,56,103,374267380
604,16,Jits_ISO_5,2,5,80,127,374276756
604,16,Jits_ISO_5,3,5,63,98,374347164
604,16,Jits_ISO_5,0,1,48,40,374762148
604,16,Jits_ISO_5,1,5,56,103,374777168
604,16,Jits_ISO_5,2,5,63,98,374796652
604,16,Jits_ISO_5,3,5,80,127,374857172
604,16,Jits_ISO_5,0,1,48,33,375262568
604,16,Jits_ISO_5,1,5,80,127,375266796
604,16,Jits_ISO_5,2,5,63,98,375337452
604,16,Jits_ISO_5,3,5,56,103,375357892
604,16,Jits_ISO_5,0,5,80,127,375786932
604,16,Jits_ISO_5,1,5,56,103,375797052
604,16,Jits_ISO_5,2,1,48,38,375801812
604,16,Jits_ISO_5,3,5,63,98,375807464
604,16,Jits_ISO_5,0,1,48,41,376275884
604,16,Jits_ISO_5,1,5,80,127,376277468
604,16,Jits_ISO_5,2,5,56,103,376296732
604,16,Jits_ISO_5,3,5,63,98,376366556
604,16,Jits_ISO_5,0,5,56,103,376787260
604,16,Jits_ISO_5,1,1,48,47,376798696
604,16,Jits_ISO_5,2,5,80,127,376817076
604,16,Jits_ISO_5,3,5,63,98,376836784
604,16,Jits_ISO_5,0,5,63,98,377276756
604,16,Jits_ISO_5,1,1,48,44,377294252
604,16,Jits_ISO_5,2,5,56,103,377337064
604,16,Jits_ISO_5,3,5,80,127,377367036
604,16,Jits_ISO_5,0,5,63,98,377767436
604,16,Jits_ISO_5,1,5,80,127,377770576
604,16,Jits_ISO_5,2,1,48,43,377801640
604,16,Jits_ISO_5,3,5,56,103,377857632
604,16,Jits_ISO_5,0,1,48,47,378270184
604,16,Jits_ISO_5,1,5,56,103,378286644
604,16,Jits_ISO_5,2,5,63,98,378317068
604,16,Jits_ISO_5,3,5,80,127,378357004
604,16,Jits_ISO_5,0,5,63,98,378787344
604,16,Jits_ISO_5,1,1,48,32,378800676
604,16,Jits_ISO_5,2,5,56,103,378827300
604,16,Jits_ISO_5,3,5,80,127,378846712
604,16,Jits_ISO_5,0,1,48,47,379258812
604,16,Jits_ISO_5,1,5,63,98,379297124
604,16,Jits_ISO_5,2,5,56,103,379337016
604,16,Jits_ISO_5,3,5,80,127,379347432
604,16,Jits_ISO_5,0,5,80,127,379777476
604,16,Jits_ISO_5,1,1,48,47,379782764
604,16,Jits_ISO_5,2,5,63,98,379847024
604,16,Jits_ISO_5,3,5,56,103,379866584
604,16,Jits_ISO_5,0,5,56,103,380266824
604,16,Jits_ISO_5,1,5,80,127,380287504
604,16,Jits_ISO_5,2,1,48,53,380325396
604,16,Jits_ISO_5,3,5,63,98,380327232
604,16,Jits_ISO_5,0,5,63,98,380776768
604,16,Jits_ISO_5,1,1,48,54,380779588
604,16,Jits_ISO_5,2,5,80,127,380797588
604,16,Jits_ISO_5,3,5,56,103,380837452
604,16,Jits_ISO_5,0,1,48,50,381273248
604,16,Jits_ISO_5,1,5,63,98,381276580
604,16,Jits_ISO_5,2,5,56,103,381296964
604,16,Jits_ISO_5,3,5,80,127,381307532
604,16,Jits_ISO_5,0,1,48,50,381774864
604,16,Jits_ISO_5,1,5,80,127,381777372
604,16,Jits_ISO_5,2,5,56,103,381796636
604,16,Jits_ISO_5,3,5,63,98,381826384
604,16,Jits_ISO_5,0,1,48,59,382260236
604,16,Jits_ISO_5,1,5,56,103,382346488
604,16,Jits_ISO_5,2,5,80,127,382349708
604,16,Jits_ISO_5,3,5,63,98,382367084
604,16,Jits_ISO_5,0,5,63,98,382766452
604,16,Jits_ISO_5,1,5,56,103,382797248
604,16,Jits_ISO_5,2,1,48,46,382798288
604,16,Jits_ISO_5,3,5,80,127,382856584
604,16,Jits_ISO_5,0,1,48,56,383284376
604,16,Jits_ISO_5,1,5,63,98,383347252
604,16,Jits_ISO_5,2,5,56,103,383357596
604,16,Jits_ISO_5,3,5,80,127,383366448
604,16,Jits_ISO_5,0,1,48,56,383793028
604,16,Jits_ISO_5,1,5,56,103,383796588
604,16,Jits_ISO_5,2,5,80,127,383827456
604,16,Jits_ISO_5,3,5,63,98,383836532
604,16,Jits_ISO_5,0,1,48,46,384281320
604,16,Jits_ISO_5,1,5,63,98,384337316
604,16,Jits_ISO_5,2,5,56,103,384346764
604,16,Jits_ISO_5,3,5,80,127,384366996
604,16,Jits_ISO_5,0,5,56,103,384767548
604,16,Jits_ISO_5,1,5,63,98,384826740
604,16,Jits_ISO_5,2,5,80,127,384830028
604,16,Jits_ISO_5,3,1,48,47,384834268
604,16,Jits_ISO_5,0,5,80,127,385286632
604,16,Jits_ISO_5,1,5,56,103,385296976
604,16,Jits_ISO_5,2,1,48,49,385321816
604,16,Jits_ISO_5,3,5,63,98,385367544
604,16,Jits_ISO_5,0,1,48,47,385770548
604,16,Jits_ISO_5,1,5,80,127,385776868
604,16,Jits_ISO_5,2,5,56,103,385846700
604,16,Jits_ISO_5,3,5,63,98,385856896
604,16,Jits_ISO_5,0,1,48,45,386270816
604,16,Jits_ISO_5,1,5,63,98,386316700
604,16,Jits_ISO_5,2,5,56,103,386326896
604,16,Jits_ISO_5,3,5,80,127,386347352
604,16,Jits_ISO_5,0,5,80,127,386767308
604,16,Jits_ISO_5,1,1,48,39,386791100
604,16,Jits_ISO_5,2,5,63,98,386826492
604,16,Jits_ISO_5,3,5,56,103,386866504
604,16,Jits_ISO_5,0,1,48,43,387298200
604,16,Jits_ISO_5,1,5,56,103,387306772
604,16,Jits_ISO_5,2,5,63,98,387317484
604,16,Jits_ISO_5,3,5,80,127,387356976
604,16,Jits_ISO_5,0,5,56,103,387766592
604,16,Jits_ISO_5,1,5,80,127,387797312
604,16,Jits_ISO_5,2,1,48,40,387803868
604,16,Jits_ISO_5,3,5,63,98,387846456
604,16,Jits_ISO_5,0,1,48,35,388283388
604,16,Jits_ISO_5,1,5,56,103,388307472
604,16,Jits_ISO_5,2,5,63,98,388347332
604,16,Jits_ISO_5,3,5,80,127,388350548
604,16,Jits_ISO_5,0,1,48,44,388794288
604,16,Jits_ISO_5,1,5,56,103,388807212
604,16,Jits_ISO_5,2,5,63,98,388817480
604,16,Jits_ISO_5,3,5,80,127,388836596
604,16,Jits_ISO_5,0,5,56,103,389266932
604,16,Jits_ISO_5,1,5,80,127,389269852
604,16,Jits_ISO_5,2,5,63,98,389306820
604,16,Jits_ISO_5,3,1,48,43,389329416
604,16,Jits_ISO_5,0,1,48,44,389795200
604,16,Jits_ISO_5,1,5,63,98,389806408
604,16,Jits_ISO_5,2,5,56,103,389837352
604,16,Jits_ISO_5,3,5,80,127,389856688
604,16,Jits_ISO_5,0,5,80,127,390276396
604,16,Jits_ISO_5,1,5,56,103,390286812
604,16,Jits_ISO_5,2,5,63,98,390297156
604,16,Jits_ISO_5,3,1,48,51,390309192
604,16,Jits_ISO_5,0,5,56,103,390777172
604,16,Jits_ISO_5,1,5,80,127,390817332
604,16,Jits_ISO_5,2,5,63,98,390846956
604,16,Jits_ISO_5,3,1,48,52,390864376
604,16,Jits_ISO_5,0,5,63,98,391287268
604,16,Jits_ISO_5,1,1,48,42,391292036
604,16,Jits_ISO_5,2,5,80,127,391297308
604,16,Jits_ISO_5,3,5,56,103,391306532
604,16,Jits_ISO_5,0,5,56,103,391767312
604,16,Jits_ISO_5,1,1,48,44,391804360
604,16,Jits_ISO_5,2,5,63,98,391837060
604,16,Jits_ISO_5,3,5,80,127,391847280
604,16,Jits_ISO_5,0,5,80,127,392267296
604,16,Jits_ISO_5,1,5,56,103,392277344
604,16,Jits_ISO_5,2,5,63,98,392326496
604,16,Jits_ISO_5,3,1,48,45,392329616
604,16,Jits_ISO_5,0,1,48,45,392766276
604,16,Jits_ISO_5,1,5,80,127,392777236
604,16,Jits_ISO_5,2,5,56,103,392836504
604,16,Jits_ISO_5,3,5,63,98,392867284
604,16,Jits_ISO_5,0,5,56,103,393276816
604,16,Jits_ISO_5,1,5,80,127,393279812
604,16,Jits_ISO_5,2,1,48,42,393290200
604,16,Jits_ISO_5,3,5,63,98,393316676
604,16,Jits_ISO_5,0,1,48,40,393799532
604,16,Jits_ISO_5,1,5,56,103,393807204
604,16,Jits_ISO_5,2,5,63,98,393837028
604,16,Jits_ISO_5,3,5,80,127,393847224
604,16,Jits_ISO_5,0,5,63,98,394317444
604,16,Jits_ISO_5,1,5,80,127,394327344
604,16,Jits_ISO_5,2,1,48,35,394333456
604,16,Jits_ISO_5,3,5,56,103,394336560
604,16,Jits_ISO_5,0,5,80,127,394766628
604,16,Jits_ISO_5,1,5,56,103,394817128
604,16,Jits_ISO_5,2,1,48,49,394820188
604,16,Jits_ISO_5,3,5,63,98,394821376
604,16,Jits_ISO_5,0,1,48,45,395271656
604,16,Jits_ISO_5,1,5,56,103,395297084
604,16,Jits_ISO_5,2,5,80,127,395316644
604,16,Jits_ISO_5,3,5,63,98,395326916
604,16,Jits_ISO_5,0,5,63,98,395777356
604,16,Jits_ISO_5,1,5,56,103,395807104
604,16,Jits_ISO_5,2,1,48,48,395824076
604,16,Jits_ISO_5,3,5,80,127,395826584
604,16,Jits_ISO_5,0,1,48,40,396271592
604,16,Jits_ISO_5,1,5,56,103,396287208
604,16,Jits_ISO_5,2,5,80,127,396296508
604,16,Jits_ISO_5,3,5,63,98,396367216
604,16,Jits_ISO_5,0,5,63,98,396776924
604,16,Jits_ISO_5,1,5,80,127,396816860
604,16,Jits_ISO_5,2,1,48,51,396821104
604,16,Jits_ISO_5,3,5,56,103,396856644
604,16,Jits_ISO_5,0,1,48,46,397273856
604,16,Jits_ISO_5,1,5,56,103,397286632
604,16,Jits_ISO_5,2,5,63,98,397297124
604,16,Jits_ISO_5,3,5,80,127,397316388
604,16,Jits_ISO_5,0,1,48,43,397748368
604,16,Jits_ISO_5,1,5,63,98,397826456
604,16,Jits_ISO_5,2,5,80,127,397847420
604,16,Jits_ISO_5,3,5,56,103,397867508
604,16,Jits_ISO_5,0,5,56,103,398267172
604,16,Jits_ISO_5,1,1,48,39,398327836
604,16,Jits_ISO_5,2,5,80,127,398346588
604,16,Jits_ISO_5,3,5,63,98,398356932
604,16,Jits_ISO_5,0,1,48,42,398782560
604,16,Jits_ISO_5,1,5,80,127,398807536
604,16,Jits_ISO_5,2,5,63,98,398816536
604,16,Jits_ISO_5,3,5,56,103,398847332
604,16,Jits_ISO_5,0,5,63,98,399267332
604,16,Jits_ISO_5,1,1,48,48,399290156
604,16,Jits_ISO_5,2,5,80,127,399307264
604,16,Jits_ISO_5,3,5,56,103,399366456
604,16,Jits_ISO_5,0,5,63,98,399777172
604,16,Jits_ISO_5,1,1,48,44,399794784
604,16,Jits_ISO_5,2,5,56,103,399827240
604,16,Jits_ISO_5,3,5,80,127,399856916
604,16,Jits_ISO_5,0,1,48,46,400278232
604,16,Jits_ISO_5,1,5,80,127,400286952
604,16,Jits_ISO_5,2,5,63,98,400297396
604,16,Jits_ISO_5,3,5,56,103,400367072
604,16,Jits_ISO_5,0,1,48,46,400812460
604,16,Jits_ISO_5,1,5,80,127,400856548
604,16,Jits_ISO_5,2,5,56,103,400866888
604,16,Jits_ISO_5,3,5,63,98,400869880
604,16,Jits_ISO_5,0,5,56,103,401296932
604,16,Jits_ISO_5,1,5,80,127,401317344
604,16,Jits_ISO_5,2,5,63,98,401326420
604,16,Jits_ISO_5,3,1,48,45,401337180
604,16,Jits_ISO_5,0,1,48,38,401807028
604,16,Jits_ISO_5,1,5,63,98,401808288
604,16,Jits_ISO_5,2,5,56,103,401846612
604,16,Jits_ISO_5,3,5,80,127,401867068
604,16,Jits_ISO_5,0,5,63,98,402306332
604,16,Jits_ISO_5,1,1,48,39,402339192
604,16,Jits_ISO_5,2,5,56,103,402366808
604,16,Jits_ISO_5,3,5,80,127,402369952
604,16,Jits_ISO_5,0,5,56,103,402767260
604,16,Jits_ISO_5,1,5,80,127,402786524
604,16,Jits_ISO_5,2,5,63,98,402826608
604,16,Jits_ISO_5,3,1,48,37,402836848
604,16,Jits_ISO_5,0,5,56,103,403296760
604,16,Jits_ISO_5,1,1,48,33,403305204
604,16,Jits_ISO_5,2,5,63,98,403317064
604,16,Jits_ISO_5,3,5,80,127,403327260
604,16,Jits_ISO_5,0,5,80,127,403766852
604,16,Jits_ISO_5,1,1,48,44,403784816
604,16,Jits_ISO_5,2,5,56,103,403797344
604,16,Jits_ISO_5,3,5,63,98,403837428
604,16,Jits_ISO_5,0,5,80,127,404276576
604,16,Jits_ISO_5,1,1,48,39,404294516
604,16,Jits_ISO_5,2,5,56,103,404297176
604,16,Jits_ISO_5,3,5,63,98,404356444
604,16,Jits_ISO_5,0,5,56,103,404786672
604,16,Jits_ISO_5,1,1,48,34,404803048
604,16,Jits_ISO_5,2,5,80,127,404806900
604,16,Jits_ISO_5,3,5,63,98,404866388
604,16,Jits_ISO_5,0,5,80,127,405267028
604,16,Jits_ISO_5,1,5,56,103,405277004
604,16,Jits_ISO_5,2,1,48,46,405278940
604,16,Jits_ISO_5,3,5,63,98,405317004
604,16,Jits_ISO_5,0,5,63,98,405766488
604,16,Jits_ISO_5,1,1,48,36,405790208
604,16,Jits_ISO_5,2,5,56,103,405806340
604,16,Jits_ISO_5,3,5,80,127,405809484
604,16,Jits_ISO_5,0,1,48,35,406287268
604,16,Jits_ISO_5,1,5,63,98,406288380
604,16,Jits_ISO_5,2,5,80,127,406326676
604,16,Jits_ISO_5,3,5,56,103,406357248
604,16,Jits_ISO_5,0,5,56,103,406777204
604,16,Jits_ISO_5,1,5,63,98,406786280
604,16,Jits_ISO_5,2,1,48,33,406787244
604,16,Jits_ISO_5,3,5,80,127,406817068
604,16,Jits_ISO_5,0,5,80,127,407266624
604,16,Jits_ISO_5,1,1,48,34,407295148
604,16,Jits_ISO_5,2,5,63,98,407337416
604,16,Jits_ISO_5,3,5,56,103,407346492
604,16,Jits_ISO_5,0,5,63,98,407767356
604,16,Jits_ISO_5,1,1,48,48,407817304
604,16,Jits_ISO_5,2,5,56,103,407837104
604,16,Jits_ISO_5,3,5,80,127,407847224
604,16,Jits_ISO_5,0,5,63,98,408267104
604,16,Jits_ISO_5,1,5,56,103,408286516
604,16,Jits_ISO_5,2,1,48,39,408311880
604,16,Jits_ISO_5,3,5,80,127,408326444
604,16,Jits_ISO_5,0,5,56,103,408777112
604,16,Jits_ISO_5,1,5,63,98,408787456
604,16,Jits_ISO_5,2,1,48,36,408825196
604,16,Jits_ISO_5,3,5,80,127,408867092
604,16,Jits_ISO_5,0,5,63,98,409266464
604,16,Jits_ISO_5,1,5,56,103,409297260
604,16,Jits_ISO_5,2,1,48,32,409321128
604,16,Jits_ISO_5,3,5,80,127,409337188
604,16,Jits_ISO_5,0,5,56,103,409767256
604,16,Jits_ISO_5,1,1,48,40,409790076
604,16,Jits_ISO_5,2,5,63,98,409807260
604,16,Jits_ISO_5,3,5,80,127,409847196
604,16,Jits_ISO_5,0,5,80,127,410267136
604,16,Jits_ISO_5,1,1,48,31,410312672
604,16,Jits_ISO_5,2,5,56,103,410347020
604,16,Jits_ISO_5,3,5,63,98,410357068
604,16,Jits_ISO_5,0,5,56,103,410806772
604,16,Jits_ISO_5,1,5,63,98,410809916
604,16,Jits_ISO_5,2,5,80,127,410816968
604,16,Jits_ISO_5,3,1,48,42,410832816
604,16,Jits_ISO_5,0,1,48,40,411323940
604,16,Jits_ISO_5,1,5,56,103,411326896
604,16,Jits_ISO_5,2,5,63,98,411347356
604,16,Jits_ISO_5,3,5,80,127,411356656
604,16,Jits_ISO_5,0,5,63,98,411786992
604,16,Jits_ISO_5,1,5,80,127,411797112
604,16,Jits_ISO_5,2,5,56,103,411817224
604,16,Jits_ISO_5,3,1,48,34,411818192
604,16,Jits_ISO_5,0,5,63,98,412287256
604,16,Jits_ISO_5,1,1,48,28,412309252
604,16,Jits_ISO_5,2,5,56,103,412367060
604,16,Jits_ISO_5,3,5,80,127,412370356
604,16,Jits_ISO_5,0,5,63,98,412787068
604,16,Jits_ISO_5,1,5,56,103,412806480
604,16,Jits_ISO_5,2,1,48,47,412827280
604,16,Jits_ISO_5,3,5,80,127,412837368
604,16,Jits_ISO_5,0,5,56,103,413286888
604,16,Jits_ISO_5,1,5,63,98,413307348
604,16,Jits_ISO_5,2,5,80,127,413316348
604,16,Jits_ISO_5,3,1,48,40,413334756
604,16,Jits_ISO_5,0,1,48,48,413814696
604,16,Jits_ISO_5,1,5,56,103,413817208
604,16,Jits_ISO_5,2,5,63,98,413846956
604,16,Jits_ISO_5,3,5,80,127,413850320
604,16,Jits_ISO_5,0,5,56,103,414266756
604,16,Jits_ISO_5,1,5,63,98,414306620
604,16,Jits_ISO_5,2,1,48,46,414339256
604,16,Jits_ISO_5,3,5,80,127,414367000
604,16,Jits_ISO_5,0,5,56,103,414786896
604,16,Jits_ISO_5,1,5,63,98,414797316
604,16,Jits_ISO_5,2,1,48,48,414855224
604,16,Jits_ISO_5,3,5,80,127,414856796
604,16,Jits_ISO_5,0,5,56,103,415286804
604,16,Jits_ISO_5,1,5,80,127,415307112
604,16,Jits_ISO_5,2,1,48,41,415332924
604,16,Jits_ISO_5,3,5,63,98,415336704
604,16,Jits_ISO_5,0,5,80,127,415787312
604,16,Jits_ISO_5,1,5,56,103,415796832
604,16,Jits_ISO_5,2,5,63,98,415817064
604,16,Jits_ISO_5,3,1,48,49,415852840
604,16,Jits_ISO_5,0,5,63,98,416276880
604,16,Jits_ISO_5,1,1,48,40,416341504
604,16,Jits_ISO_5,2,5,80,127,416356816
604,16,Jits_ISO_5,3,5,56,103,416366936
604,16,Jits_ISO_5,0,5,80,127,416836864
604,16,Jits_ISO_5,1,5,56,103,416856644
604,16,Jits_ISO_5,2,5,63,98,416859712
604,16,Jits_ISO_5,3,1,48,40,416871220
604,16,Jits_ISO_5,0,5,63,98,417306864
604,16,Jits_ISO_5,1,5,80,127,417310384
604,16,Jits_ISO_5,2,1,48,44,417364960
604,16,Jits_ISO_5,3,5,56,103,417367548
604,16,Jits_ISO_5,0,5,56,103,417787204
604,16,Jits_ISO_5,1,5,80,127,417796728
604,16,Jits_ISO_5,2,5,63,98,417837560
604,16,Jits_ISO_5,3,1,48,37,417856044
604,16,Jits_ISO_5,0,5,56,103,418266588
604,16,Jits_ISO_5,1,5,63,98,418326752
604,16,Jits_ISO_5,2,5,80,127,418337248
604,16,Jits_ISO_5,3,1,48,39,418356172
604,16,Jits_ISO_5,0,5,63,98,418776460
604,16,Jits_ISO_5,1,5,80,127,418817372
604,16,Jits_ISO_5,2,5,56,103,418857232
604,16,Jits_ISO_5,3,1,48,45,418885600
604,16,Jits_ISO_5,0,5,56,103,419277252
604,16,Jits_ISO_5,1,5,63,98,419356972
604,16,Jits_ISO_5,2,5,80,127,419360408
604,16,Jits_ISO_5,3,1,48,47,419382632
604,16,Jits_ISO_5,0,9999,9999,9999,360054868
604,16,Jits_ISO_5,1,9999,9999,9999,360554616
604,16,Jits_ISO_5,2,9999,9999,9999,361054312
604,16,Jits_ISO_5,3,9999,9999,9999,361555044
604,16,Jits_ISO_5,4,9999,9999,9999,362054780
604,16,Jits_ISO_5,5,9999,9999,9999,362554452
604,16,Jits_ISO_5,6,9999,9999,9999,363054200
604,16,Jits_ISO_5,7,9999,9999,9999,363554932
604,16,Jits_ISO_5,8,9999,9999,9999,364054616
604,16,Jits_ISO_5,9,9999,9999,9999,364554304
604,16,Jits_ISO_5,10,9999,9999,9999,365055092
604,16,Jits_ISO_5,11,9999,9999,9999,365554780
604,16,Jits_ISO_5,12,9999,9999,9999,366054520
604,16,Jits_ISO_5,13,9999,9999,9999,366554188
604,16,Jits_ISO_5,14,9999,9999,9999,367054956
604,16,Jits_ISO_5,15,9999,9999,9999,367554644
604,16,Jits_ISO_5,16,9999,9999,9999,368054328
604,16,Jits_ISO_5,17,9999,9999,9999,368555120
604,16,Jits_ISO_5,18,9999,9999,9999,369065056
604,16,Jits_ISO_5,19,9999,9999,9999,369564772
604,16,Jits_ISO_5,20,9999,9999,9999,370064460
604,16,Jits_ISO_5,21,9999,9999,9999,370564220
604,16,Jits_ISO_5,22,9999,9999,9999,371064948
604,16,Jits_ISO_5,23,9999,9999,9999,371564624
604,16,Jits_ISO_5,24,9999,9999,9999,372064308
604,16,Jits_ISO_5,25,9999,9999,9999,372565108
604,16,Jits_ISO_5,26,9999,9999,9999,373064780
604,16,Jits_ISO_5,27,9999,9999,9999,373564512
604,16,Jits_ISO_5,28,9999,9999,9999,374064200
604,16,Jits_ISO_5,29,9999,9999,9999,374564916
604,16,Jits_ISO_5,30,9999,9999,9999,375064660
604,16,Jits_ISO_5,31,9999,9999,9999,375564412
604,16,Jits_ISO_5,32,9999,9999,9999,376064080
604,16,Jits_ISO_5,33,9999,9999,9999,376564812
604,16,Jits_ISO_5,34,9999,9999,9999,377064560
604,16,Jits_ISO_5,35,9999,9999,9999,377564248
604,16,Jits_ISO_5,36,9999,9999,9999,378064956
604,16,Jits_ISO_5,37,9999,9999,9999,378564700
604,16,Jits_ISO_5,38,9999,9999,9999,379064372
604,16,Jits_ISO_5,39,9999,9999,9999,379564124
604,16,Jits_ISO_5,40,9999,9999,9999,380064820
604,16,Jits_ISO_5,41,9999,9999,9999,380564572
604,16,Jits_ISO_5,42,9999,9999,9999,381064252
604,16,Jits_ISO_5,43,9999,9999,9999,381565044
604,16,Jits_ISO_5,44,9999,9999,9999,382064716
604,16,Jits_ISO_5,45,9999,9999,9999,382564460
604,16,Jits_ISO_5,46,9999,9999,9999,383064128
604,16,Jits_ISO_5,47,9999,9999,9999,383564856
604,16,Jits_ISO_5,48,9999,9999,9999,384064604
604,16,Jits_ISO_5,49,9999,9999,9999,384564284
604,16,Jits_ISO_5,50,9999,9999,9999,385065068
604,16,Jits_ISO_5,51,9999,9999,9999,385564756
604,16,Jits_ISO_5,52,9999,9999,9999,386064440
604,16,Jits_ISO_5,53,9999,9999,9999,386564192
604,16,Jits_ISO_5,54,9999,9999,9999,387064912
604,16,Jits_ISO_5,55,9999,9999,9999,387564600
604,16,Jits_ISO_5,56,9999,9999,9999,388064340
604,16,Jits_ISO_5,57,9999,9999,9999,388565068
604,16,Jits_ISO_5,58,9999,9999,9999,389064816
604,16,Jits_ISO_5,59,9999,9999,9999,389564472
604,16,Jits_ISO_5,60,9999,9999,9999,390064236
604,16,Jits_ISO_5,61,9999,9999,9999,390564980
604,16,Jits_ISO_5,62,9999,9999,9999,391064660
604,16,Jits_ISO_5,63,9999,9999,9999,391564344
604,16,Jits_ISO_5,64,9999,9999,9999,392064092
604,16,Jits_ISO_5,65,9999,9999,9999,392564824
604,16,Jits_ISO_5,66,9999,9999,9999,393064560
604,16,Jits_ISO_5,67,9999,9999,9999,393564224
604,16,Jits_ISO_5,68,9999,9999,9999,394064960
604,16,Jits_ISO_5,69,9999,9999,9999,394564708
604,16,Jits_ISO_5,70,9999,9999,9999,395064440
604,16,Jits_ISO_5,71,9999,9999,9999,395564128
604,16,Jits_ISO_5,72,9999,9999,9999,396064844
604,16,Jits_ISO_5,73,9999,9999,9999,396564592
604,16,Jits_ISO_5,74,9999,9999,9999,397064264
604,16,Jits_ISO_5,75,9999,9999,9999,397564984
604,16,Jits_ISO_5,76,9999,9999,9999,398064732
604,16,Jits_ISO_5,77,9999,9999,9999,398564408
604,16,Jits_ISO_5,78,9999,9999,9999,399064168
604,16,Jits_ISO_5,79,9999,9999,9999,399564864
604,16,Jits_ISO_5,80,9999,9999,9999,400064612
604,16,Jits_ISO_5,81,9999,9999,9999,400564284
604,16,Jits_ISO_5,82,9999,9999,9999,401065072
604,16,Jits_ISO_5,83,9999,9999,9999,401564792
604,16,Jits_ISO_5,84,9999,9999,9999,402064480
604,16,Jits_ISO_5,85,9999,9999,9999,402564148
604,16,Jits_ISO_5,86,9999,9999,9999,403064936
604,16,Jits_ISO_5,87,9999,9999,9999,403564624
604,16,Jits_ISO_5,88,9999,9999,9999,404064380
604,16,Jits_ISO_5,89,9999,9999,9999,404565112
604,16,Jits_ISO_5,90,9999,9999,9999,405064796
604,16,Jits_ISO_5,91,9999,9999,9999,405564480
604,16,Jits_ISO_5,92,9999,9999,9999,406064228
604,16,Jits_ISO_5,93,9999,9999,9999,406564948
604,16,Jits_ISO_5,94,9999,9999,9999,407064688
604,16,Jits_ISO_5,95,9999,9999,9999,407564376
604,16,Jits_ISO_5,96,9999,9999,9999,408064064
604,16,Jits_ISO_5,97,9999,9999,9999,408564852
604,16,Jits_ISO_5,98,9999,9999,9999,409064528
604,16,Jits_ISO_5,99,9999,9999,9999,409564212
604,16,Jits_ISO_5,100,9999,9999,9999,410065008
604,16,Jits_ISO_5,101,9999,9999,9999,410564692
604,16,Jits_ISO_5,102,9999,9999,9999,411064436
604,16,Jits_ISO_5,103,9999,9999,9999,411564128
604,16,Jits_ISO_5,104,9999,9999,9999,412064892
604,16,Jits_ISO_5,105,9999,9999,9999,412564548
604,16,Jits_ISO_5,106,9999,9999,9999,413064296
604,16,Jits_ISO_5,107,9999,9999,9999,413565012
604,16,Jits_ISO_5,108,9999,9999,9999,414064692
604,16,Jits_ISO_5,109,9999,9999,9999,414564436
604,16,Jits_ISO_5,110,9999,9999,9999,415064120
604,16,Jits_ISO_5,111,9999,9999,9999,415564852
604,16,Jits_ISO_5,112,9999,9999,9999,416064608
604,16,Jits_ISO_5,113,9999,9999,9999,416564296
604,16,Jits_ISO_5,114,9999,9999,9999,417065084
604,16,Jits_ISO_5,115,9999,9999,9999,417564760
604,16,Jits_ISO_5,116,9999,9999,9999,418064504
604,16,Jits_ISO_5,117,9999,9999,9999,418564192
604,16,Jits_ISO_5,118,9999,9999,9999,419064924
604,16,Jits_ISO_5,119,9999,9999,9999,419564660
605,3,ISIP_8,0,5,42,127,479735356
605,3,ISIP_8,1,5,42,127,480534744
605,3,ISIP_8,2,5,42,127,481334496
605,3,ISIP_8,3,1,48,60,481352948
605,3,ISIP_8,4,1,48,30,481450116
605,3,ISIP_8,5,5,42,127,482135256
605,3,ISIP_8,6,1,48,57,482206068
605,3,ISIP_8,7,5,42,127,482935136
605,3,ISIP_8,8,1,48,56,483011208
605,3,ISIP_8,9,5,42,127,483735020
605,3,ISIP_8,10,1,48,47,483801064
605,3,ISIP_8,11,5,42,127,484534776
605,3,ISIP_8,12,1,48,54,484537748
605,3,ISIP_8,13,1,48,57,485333360
605,3,ISIP_8,14,5,42,127,485335328
605,3,ISIP_8,15,1,48,48,486122612
605,3,ISIP_8,16,5,42,127,486135212
605,3,ISIP_8,17,1,48,53,486912320
605,3,ISIP_8,18,5,42,127,486935020
605,3,ISIP_8,19,1,48,52,487708316
605,3,ISIP_8,20,5,42,127,487734604
605,3,ISIP_8,21,1,48,54,488510964
605,3,ISIP_8,22,5,42,127,488535384
605,3,ISIP_8,23,1,48,54,489318028
605,3,ISIP_8,24,5,42,127,489335116
605,3,ISIP_8,25,1,48,52,490118588
605,3,ISIP_8,26,5,42,127,490135000
605,3,ISIP_8,27,1,48,35,490917972
605,3,ISIP_8,28,5,42,127,490934684
605,3,ISIP_8,29,1,48,52,491691672
605,3,ISIP_8,30,5,42,127,491735316
605,3,ISIP_8,31,1,48,53,492464708
605,3,ISIP_8,32,5,42,127,492535128
605,3,ISIP_8,33,1,48,59,493305356
605,3,ISIP_8,34,5,42,127,493334932
605,3,ISIP_8,35,5,42,127,494134748
605,3,ISIP_8,36,1,48,51,494151180
605,3,ISIP_8,37,5,42,127,494935456
605,3,ISIP_8,38,1,48,54,494959672
605,3,ISIP_8,39,5,42,127,495735188
605,3,ISIP_8,40,1,48,54,495779172
605,3,ISIP_8,41,1,48,55,496500852
605,3,ISIP_8,42,5,42,127,496535064
605,3,ISIP_8,43,1,48,52,497289516
605,3,ISIP_8,44,5,42,127,497334748
605,3,ISIP_8,45,5,42,127,498135464
605,3,ISIP_8,46,1,48,54,498147636
605,3,ISIP_8,47,1,48,52,498924084
605,3,ISIP_8,48,5,42,127,498935188
605,3,ISIP_8,49,1,48,59,499727784
605,3,ISIP_8,50,5,42,127,499734996
605,3,ISIP_8,51,5,42,127,500534888
605,3,ISIP_8,52,1,48,57,500566284
605,3,ISIP_8,53,5,42,127,501335592
605,3,ISIP_8,54,1,48,52,501353444
605,3,ISIP_8,55,5,42,127,502135176
605,3,ISIP_8,56,1,48,51,502154304
605,3,ISIP_8,57,5,42,127,502934836
605,3,ISIP_8,58,1,48,55,502986148
605,3,ISIP_8,59,1,48,55,503755656
605,3,ISIP_8,60,1,48,59,504543868
605,3,ISIP_8,61,1,48,62,505340308
605,3,ISIP_8,62,1,48,65,506165620
605,3,ISIP_8,63,1,48,59,506997288
605,3,ISIP_8,64,1,48,52,507834664
605,3,ISIP_8,65,1,48,56,508645012
605,3,ISIP_8,66,1,48,56,509484464
605,3,ISIP_8,67,1,48,53,510319344
605,3,ISIP_8,68,1,48,55,511178488
605,3,ISIP_8,69,1,48,47,512009632
605,3,ISIP_8,70,1,48,65,512803376
605,3,ISIP_8,71,1,48,58,513623228
605,3,ISIP_8,72,1,48,49,514468828
605,3,ISIP_8,73,1,48,60,515268336
605,3,ISIP_8,74,1,48,63,516075992
605,3,ISIP_8,75,1,48,57,516906760
605,3,ISIP_8,76,1,48,58,517736564
605,3,ISIP_8,77,1,48,58,518531052
605,3,ISIP_8,78,1,48,54,519367384
605,3,ISIP_8,79,1,48,58,520141312
605,3,ISIP_8,80,1,48,60,520969012
605,3,ISIP_8,81,1,48,65,521756776
605,3,ISIP_8,82,1,48,54,522570416
605,3,ISIP_8,83,1,48,57,523380844
605,3,ISIP_8,84,1,48,50,524183936
605,3,ISIP_8,85,1,48,56,524966784
605,3,ISIP_8,86,1,48,58,525789480
605,3,ISIP_8,87,1,48,72,526574544
605,3,ISIP_8,88,1,48,66,527405912
605,3,ISIP_8,89,1,48,60,528208560
605,3,ISIP_8,90,1,48,54,528984952
605,3,ISIP_8,91,1,48,56,529805700
605,3,ISIP_8,92,1,48,65,530652124
605,3,ISIP_8,93,1,48,71,531502720
605,3,ISIP_8,94,1,48,63,532356156
605,3,ISIP_8,95,1,48,59,533244468
605,3,ISIP_8,96,1,48,66,534104112
605,3,ISIP_8,97,1,48,63,534964540
605,3,ISIP_8,98,1,48,63,535779604
605,3,ISIP_8,99,1,48,69,536629144
605,3,ISIP_8,100,1,48,64,537545212
605,3,ISIP_8,101,1,48,61,538388700
605,3,ISIP_8,102,1,48,73,539213036
605,3,ISIP_8,103,1,48,62,540037148
605,3,ISIP_8,104,1,48,58,540856720
605,3,ISIP_8,105,1,48,51,541705888
605,3,ISIP_8,106,1,48,53,542510112
605,3,ISIP_8,107,1,48,63,543342972
605,3,ISIP_8,108,1,48,66,544175784
605,3,ISIP_8,109,1,48,57,544979628
605,3,ISIP_8,110,1,48,58,545792076
605,3,ISIP_8,111,1,48,66,546658000
605,3,ISIP_8,112,1,48,58,547505848
605,3,ISIP_8,113,1,48,53,548356740
605,3,ISIP_8,114,1,48,49,549204040
605,3,ISIP_8,115,1,48,59,550048744
605,3,ISIP_8,116,1,48,52,550921628
605,3,ISIP_8,117,1,48,59,551740596
605,3,ISIP_8,118,1,48,57,552550548
605,3,ISIP_8,119,1,48,57,553360220
605,3,ISIP_8,120,1,48,55,554165136
605,3,ISIP_8,121,1,48,54,554996808
605,3,ISIP_8,122,1,48,56,555841788
605,3,ISIP_8,123,1,48,40,556655880
605,3,ISIP_8,124,1,48,54,557459652
605,3,ISIP_8,125,1,48,67,558230728
605,3,ISIP_8,126,1,48,69,559034672
605,3,ISIP_8,127,1,48,61,559871128
605,3,ISIP_8,128,1,48,53,560711244
605,3,ISIP_8,129,1,48,59,561576596
605,3,ISIP_8,130,1,48,57,562439236
605,3,ISIP_8,131,1,48,68,563298352
605,3,ISIP_8,132,1,48,69,564193096
605,3,ISIP_8,133,1,48,59,565048404
605,3,ISIP_8,134,1,48,60,565860172
605,3,ISIP_8,135,1,48,56,566694632
605,3,ISIP_8,136,1,48,59,567527500
605,3,ISIP_8,137,1,48,57,568354600
605,3,ISIP_8,138,1,48,60,569129056
605,3,ISIP_8,139,1,48,60,569915468
605,3,ISIP_8,140,1,48,51,570788672
605,3,ISIP_8,141,1,48,56,571616380
605,3,ISIP_8,142,1,48,57,572412964
605,3,ISIP_8,143,1,48,53,573282480
605,3,ISIP_8,144,1,48,54,574162204
605,3,ISIP_8,145,1,48,48,575067024
605,3,ISIP_8,146,1,48,36,575964912
605,3,ISIP_8,147,1,48,52,576841012
605,3,ISIP_8,148,1,48,52,577671032
605,3,ISIP_8,149,1,48,53,578507588
605,3,ISIP_8,150,1,48,39,579386152
605,3,ISIP_8,151,1,48,54,580201364
605,3,ISIP_8,152,1,48,64,581012616
605,3,ISIP_8,153,1,48,56,581838320
605,3,ISIP_8,154,1,48,62,582650616
605,3,ISIP_8,155,1,48,70,583459548
605,3,ISIP_8,156,1,48,57,584298096
605,3,ISIP_8,157,1,48,67,585159932
605,3,ISIP_8,158,1,48,65,585982920
605,3,ISIP_8,159,1,48,60,586779664
605,3,ISIP_8,160,1,48,57,587615816
605,3,ISIP_8,161,1,48,62,588407760
605,3,ISIP_8,162,1,48,58,589230184
605,3,ISIP_8,163,1,48,73,590014424
605,3,ISIP_8,164,1,48,53,590845124
605,3,ISIP_8,165,1,48,56,591661828
605,3,ISIP_8,166,1,48,56,592484148
605,3,ISIP_8,167,1,48,67,593305492
605,3,ISIP_8,168,1,48,63,594152136
605,3,ISIP_8,169,1,48,58,595025912
605,3,ISIP_8,170,1,48,51,595837992
605,3,ISIP_8,171,1,48,62,596708048
605,3,ISIP_8,172,1,48,70,597510696
605,3,ISIP_8,173,1,48,54,598363384
605,3,ISIP_8,174,1,48,63,599194548
605,3,ISIP_8,0,9999,9999,9999,479732844
605,3,ISIP_8,1,9999,9999,9999,480532528
605,3,ISIP_8,2,9999,9999,9999,481332284
605,3,ISIP_8,3,9999,9999,9999,482133040
605,3,ISIP_8,4,9999,9999,9999,482932848
605,3,ISIP_8,5,9999,9999,9999,483732580
605,3,ISIP_8,6,9999,9999,9999,484532340
605,3,ISIP_8,7,9999,9999,9999,485333076
605,3,ISIP_8,8,9999,9999,9999,486132848
605,3,ISIP_8,9,9999,9999,9999,486932580
605,3,ISIP_8,10,9999,9999,9999,487732316
605,3,ISIP_8,11,9999,9999,9999,488533092
605,3,ISIP_8,12,9999,9999,9999,489332828
605,3,ISIP_8,13,9999,9999,9999,490132560
605,3,ISIP_8,14,9999,9999,9999,490932320
605,3,ISIP_8,15,9999,9999,9999,491733100
605,3,ISIP_8,16,9999,9999,9999,492532836
605,3,ISIP_8,17,9999,9999,9999,493332568
605,3,ISIP_8,18,9999,9999,9999,494132308
605,3,ISIP_8,19,9999,9999,9999,494933088
605,3,ISIP_8,20,9999,9999,9999,495732824
605,3,ISIP_8,21,9999,9999,9999,496532552
605,3,ISIP_8,22,9999,9999,9999,497332308
605,3,ISIP_8,23,9999,9999,9999,498133100
605,3,ISIP_8,24,9999,9999,9999,498932828
605,3,ISIP_8,25,9999,9999,9999,499732560
605,3,ISIP_8,26,9999,9999,9999,500532300
605,3,ISIP_8,27,9999,9999,9999,501333080
605,3,ISIP_8,28,9999,9999,9999,502132812
605,3,ISIP_8,29,9999,9999,9999,502932548
605,3,ISIP_8,30,9999,9999,9999,503732304
605,3,ISIP_8,31,9999,9999,9999,504533080
605,3,ISIP_8,32,9999,9999,9999,505332812
605,3,ISIP_8,33,9999,9999,9999,506132540
605,3,ISIP_8,34,9999,9999,9999,506932344
605,3,ISIP_8,35,9999,9999,9999,507733044
605,3,ISIP_8,36,9999,9999,9999,508532848
605,3,ISIP_8,37,9999,9999,9999,509332576
605,3,ISIP_8,38,9999,9999,9999,510132332
605,3,ISIP_8,39,9999,9999,9999,510933108
605,3,ISIP_8,40,9999,9999,9999,511732836
605,3,ISIP_8,41,9999,9999,9999,512532568
605,3,ISIP_8,42,9999,9999,9999,513332296
605,3,ISIP_8,43,9999,9999,9999,514133072
605,3,ISIP_8,44,9999,9999,9999,514932800
605,3,ISIP_8,45,9999,9999,9999,515732528
605,3,ISIP_8,46,9999,9999,9999,516532284
605,3,ISIP_8,47,9999,9999,9999,517333060
605,3,ISIP_8,48,9999,9999,9999,518132788
605,3,ISIP_8,49,9999,9999,9999,518932592
605,3,ISIP_8,50,9999,9999,9999,519732324
605,3,ISIP_8,51,9999,9999,9999,520533100
605,3,ISIP_8,52,9999,9999,9999,521332828
605,3,ISIP_8,53,9999,9999,9999,522132556
605,3,ISIP_8,54,9999,9999,9999,522932312
605,3,ISIP_8,55,9999,9999,9999,523733088
605,3,ISIP_8,56,9999,9999,9999,524532816
605,3,ISIP_8,57,9999,9999,9999,525332544
605,3,ISIP_8,58,9999,9999,9999,526132276
605,3,ISIP_8,59,9999,9999,9999,526933052
605,3,ISIP_8,60,9999,9999,9999,527732856
605,3,ISIP_8,61,9999,9999,9999,528532584
605,3,ISIP_8,62,9999,9999,9999,529332336
605,3,ISIP_8,63,9999,9999,9999,530133036
605,3,ISIP_8,64,9999,9999,9999,530932840
605,3,ISIP_8,65,9999,9999,9999,531732572
605,3,ISIP_8,66,9999,9999,9999,532532300
605,3,ISIP_8,67,9999,9999,9999,533333092
605,3,ISIP_8,68,9999,9999,9999,534132820
605,3,ISIP_8,69,9999,9999,9999,534932556
605,3,ISIP_8,70,9999,9999,9999,535732312
605,3,ISIP_8,71,9999,9999,9999,536533088
605,3,ISIP_8,72,9999,9999,9999,537332816
605,3,ISIP_8,73,9999,9999,9999,538132544
605,3,ISIP_8,74,9999,9999,9999,538932276
605,3,ISIP_8,75,9999,9999,9999,539733048
605,3,ISIP_8,76,9999,9999,9999,540532852
605,3,ISIP_8,77,9999,9999,9999,541332580
605,3,ISIP_8,78,9999,9999,9999,542132336
605,3,ISIP_8,79,9999,9999,9999,542933040
605,3,ISIP_8,80,9999,9999,9999,543732840
605,3,ISIP_8,81,9999,9999,9999,544532572
605,3,ISIP_8,82,9999,9999,9999,545332300
605,3,ISIP_8,83,9999,9999,9999,546133076
605,3,ISIP_8,84,9999,9999,9999,546932804
605,3,ISIP_8,85,9999,9999,9999,547732532
605,3,ISIP_8,86,9999,9999,9999,548532288
605,3,ISIP_8,87,9999,9999,9999,549333064
605,3,ISIP_8,88,9999,9999,9999,550132808
605,3,ISIP_8,89,9999,9999,9999,550932540
605,3,ISIP_8,90,9999,9999,9999,551732272
605,3,ISIP_8,91,9999,9999,9999,552533100
605,3,ISIP_8,92,9999,9999,9999,553332828
605,3,ISIP_8,93,9999,9999,9999,554132556
605,3,ISIP_8,94,9999,9999,9999,554932312
605,3,ISIP_8,95,9999,9999,9999,555733088
605,3,ISIP_8,96,9999,9999,9999,556532816
605,3,ISIP_8,97,9999,9999,9999,557332544
605,3,ISIP_8,98,9999,9999,9999,558132276
605,3,ISIP_8,99,9999,9999,9999,558933052
605,3,ISIP_8,100,9999,9999,9999,559732856
605,3,ISIP_8,101,9999,9999,9999,560532584
605,3,ISIP_8,102,9999,9999,9999,561332340
605,3,ISIP_8,103,9999,9999,9999,562133040
605,3,ISIP_8,104,9999,9999,9999,562932848
605,3,ISIP_8,105,9999,9999,9999,563732576
605,3,ISIP_8,106,9999,9999,9999,564532304
605,3,ISIP_8,107,9999,9999,9999,565333080
605,3,ISIP_8,108,9999,9999,9999,566132808
605,3,ISIP_8,109,9999,9999,9999,566932540
605,3,ISIP_8,110,9999,9999,9999,567732292
605,3,ISIP_8,111,9999,9999,9999,568533068
605,3,ISIP_8,112,9999,9999,9999,569332800
605,3,ISIP_8,113,9999,9999,9999,570132528
605,3,ISIP_8,114,9999,9999,9999,570932332
605,3,ISIP_8,115,9999,9999,9999,571733108
605,3,ISIP_8,116,9999,9999,9999,572532836
605,3,ISIP_8,117,9999,9999,9999,573332580
605,3,ISIP_8,118,9999,9999,9999,574132340
605,3,ISIP_8,119,9999,9999,9999,574933044
605,3,ISIP_8,120,9999,9999,9999,575732848
605,3,ISIP_8,121,9999,9999,9999,576532576
605,3,ISIP_8,122,9999,9999,9999,577332304
605,3,ISIP_8,123,9999,9999,9999,578133084
605,3,ISIP_8,124,9999,9999,9999,578932812
605,3,ISIP_8,125,9999,9999,9999,579732540
605,3,ISIP_8,126,9999,9999,9999,580532296
605,3,ISIP_8,127,9999,9999,9999,581333068
605,3,ISIP_8,128,9999,9999,9999,582132800
605,3,ISIP_8,129,9999,9999,9999,582932528
605,3,ISIP_8,130,9999,9999,9999,583732332
605,3,ISIP_8,131,9999,9999,9999,584533108
605,3,ISIP_8,132,9999,9999,9999,585332836
605,3,ISIP_8,133,9999,9999,9999,586132568
605,3,ISIP_8,134,9999,9999,9999,586932320
605,3,ISIP_8,135,9999,9999,9999,587733096
605,3,ISIP_8,136,9999,9999,9999,588532824
605,3,ISIP_8,137,9999,9999,9999,589332552
605,3,ISIP_8,138,9999,9999,9999,590132284
605,3,ISIP_8,139,9999,9999,9999,590933076
605,3,ISIP_8,140,9999,9999,9999,591732804
605,3,ISIP_8,141,9999,9999,9999,592532532
605,3,ISIP_8,142,9999,9999,9999,593332336
605,3,ISIP_8,143,9999,9999,9999,594133044
605,3,ISIP_8,144,9999,9999,9999,594932852
605,3,ISIP_8,145,9999,9999,9999,595732580
605,3,ISIP_8,146,9999,9999,9999,596532308
605,3,ISIP_8,147,9999,9999,9999,597333084
605,3,ISIP_8,148,9999,9999,9999,598132812
605,3,ISIP_8,149,9999,9999,9999,598932544
606,5,ISIP_5,0,5,42,127,625364396
606,5,ISIP_5,1,5,42,127,625864112
606,5,ISIP_5,2,5,42,127,626363904
606,5,ISIP_5,3,5,42,127,626863396
606,5,ISIP_5,4,5,42,127,627364308
606,5,ISIP_5,5,5,42,127,627864000
606,5,ISIP_5,6,5,42,127,628363768
606,5,ISIP_5,7,5,42,127,628864384
606,5,ISIP_5,8,5,42,127,629364096
606,5,ISIP_5,9,1,48,59,629377764
606,5,ISIP_5,10,1,48,61,629845500
606,5,ISIP_5,11,5,42,127,629864008
606,5,ISIP_5,12,5,42,127,630363416
606,5,ISIP_5,13,1,48,67,630368176
606,5,ISIP_5,14,5,42,127,630864380
606,5,ISIP_5,15,1,48,66,630884028
606,5,ISIP_5,16,5,42,127,631364148
606,5,ISIP_5,17,1,48,64,631369436
606,5,ISIP_5,18,5,42,127,631863768
606,5,ISIP_5,19,1,48,67,631874364
606,5,ISIP_5,20,5,42,127,632364288
606,5,ISIP_5,21,1,48,74,632413104
606,5,ISIP_5,22,1,48,60,632864056
606,5,ISIP_5,23,5,42,127,632865468
606,5,ISIP_5,24,5,42,127,633363972
606,5,ISIP_5,25,1,48,71,633372476
606,5,ISIP_5,26,5,42,127,633863516
606,5,ISIP_5,27,1,48,72,633878304
606,5,ISIP_5,28,1,48,71,634360108
606,5,ISIP_5,29,5,42,127,634364252
606,5,ISIP_5,30,5,42,127,634864028
606,5,ISIP_5,31,1,48,62,634865896
606,5,ISIP_5,32,5,42,127,635363576
606,5,ISIP_5,33,1,48,68,635392724
606,5,ISIP_5,34,1,48,68,635847524
606,5,ISIP_5,35,5,42,127,635864388
606,5,ISIP_5,36,1,48,64,636351932
606,5,ISIP_5,37,5,42,127,636364080
606,5,ISIP_5,38,5,42,127,636864008
606,5,ISIP_5,39,1,48,60,636868100
606,5,ISIP_5,40,1,48,67,637340548
606,5,ISIP_5,41,5,42,127,637363472
606,5,ISIP_5,42,5,42,127,637864368
606,5,ISIP_5,43,1,48,68,637881852
606,5,ISIP_5,44,5,42,127,638363916
606,5,ISIP_5,45,1,48,65,638372272
606,5,ISIP_5,46,5,42,127,638863956
606,5,ISIP_5,47,1,48,65,638874736
606,5,ISIP_5,48,5,42,127,639363504
606,5,ISIP_5,49,1,48,70,639376344
606,5,ISIP_5,50,5,42,127,639864172
606,5,ISIP_5,51,1,48,54,639872080
606,5,ISIP_5,52,1,48,55,640358964
606,5,ISIP_5,53,5,42,127,640364080
606,5,ISIP_5,54,1,48,53,640863484
606,5,ISIP_5,55,5,42,127,640864896
606,5,ISIP_5,56,1,48,59,641353264
606,5,ISIP_5,57,5,42,127,641364292
606,5,ISIP_5,58,5,42,127,641863920
606,5,ISIP_5,59,1,48,62,641882300
606,5,ISIP_5,60,5,42,127,642363988
606,5,ISIP_5,61,1,48,62,642382736
606,5,ISIP_5,62,1,48,61,642848084
606,5,ISIP_5,63,5,42,127,642863824
606,5,ISIP_5,64,1,48,64,643353536
606,5,ISIP_5,65,5,42,127,643364120
606,5,ISIP_5,66,5,42,127,643863820
606,5,ISIP_5,67,1,48,62,643864788
606,5,ISIP_5,68,5,42,127,644363812
606,5,ISIP_5,69,1,48,67,644398128
606,5,ISIP_5,70,1,48,59,644847240
606,5,ISIP_5,71,5,42,127,644864328
606,5,ISIP_5,72,1,48,57,645374696
606,5,ISIP_5,73,1,48,57,645879104
606,5,ISIP_5,74,1,48,64,646410804
606,5,ISIP_5,75,1,48,59,646909744
606,5,ISIP_5,76,1,48,57,647448108
606,5,ISIP_5,77,1,48,61,647965152
606,5,ISIP_5,78,1,48,54,648462220
606,5,ISIP_5,79,1,48,62,648999168
606,5,ISIP_5,80,1,48,59,649484500
606,5,ISIP_5,81,1,48,65,649989572
606,5,ISIP_5,82,1,48,57,650490088
606,5,ISIP_5,83,1,48,69,650971824
606,5,ISIP_5,84,1,48,64,651489092
606,5,ISIP_5,85,1,48,51,651970832
606,5,ISIP_5,86,1,48,55,652467384
606,5,ISIP_5,87,1,48,54,652939968
606,5,ISIP_5,88,1,48,51,653415576
606,5,ISIP_5,89,1,48,66,653946456
606,5,ISIP_5,90,1,48,62,654432608
606,5,ISIP_5,91,1,48,68,654930356
606,5,ISIP_5,92,1,48,62,655402964
606,5,ISIP_5,93,1,48,58,655888296
606,5,ISIP_5,94,1,48,59,656397564
606,5,ISIP_5,95,1,48,65,656881096
606,5,ISIP_5,96,1,48,63,657367848
606,5,ISIP_5,97,1,48,59,657866636
606,5,ISIP_5,98,1,48,59,658352480
606,5,ISIP_5,99,1,48,62,658836664
606,5,ISIP_5,100,1,48,68,659333436
606,5,ISIP_5,101,1,48,65,659785252
606,5,ISIP_5,102,1,48,57,660284120
606,5,ISIP_5,103,1,48,59,660746184
606,5,ISIP_5,104,1,48,66,661213192
606,5,ISIP_5,105,1,48,56,661697924
606,5,ISIP_5,106,1,48,62,662186988
606,5,ISIP_5,107,1,48,63,662669608
606,5,ISIP_5,108,1,48,74,663163684
606,5,ISIP_5,109,1,48,65,663639740
606,5,ISIP_5,110,1,48,57,664149304
606,5,ISIP_5,111,1,48,72,664624164
606,5,ISIP_5,112,1,48,52,665119512
606,5,ISIP_5,113,1,48,61,665597216
606,5,ISIP_5,114,1,48,63,666094284
606,5,ISIP_5,115,1,48,75,666577448
606,5,ISIP_5,116,1,48,60,667050064
606,5,ISIP_5,117,1,48,72,667525568
606,5,ISIP_5,118,1,48,61,668040744
606,5,ISIP_5,119,1,48,78,668510664
606,5,ISIP_5,120,1,48,73,668989712
606,5,ISIP_5,121,1,48,59,669444224
606,5,ISIP_5,122,1,48,79,669963956
606,5,ISIP_5,123,1,48,73,670493268
606,5,ISIP_5,124,1,48,64,670959904
606,5,ISIP_5,125,1,48,81,671422264
606,5,ISIP_5,126,1,48,67,671890292
606,5,ISIP_5,127,1,48,66,672360272
606,5,ISIP_5,128,1,48,57,672835504
606,5,ISIP_5,129,1,48,77,673312232
606,5,ISIP_5,130,1,48,63,673790160
606,5,ISIP_5,131,1,48,72,674246020
606,5,ISIP_5,132,1,48,68,674701332
606,5,ISIP_5,133,1,48,70,675144924
606,5,ISIP_5,134,1,48,71,675621348
606,5,ISIP_5,135,1,48,74,676066888
606,5,ISIP_5,136,1,48,72,676530228
606,5,ISIP_5,137,1,48,69,677020944
606,5,ISIP_5,138,1,48,79,677482536
606,5,ISIP_5,139,1,48,69,677935328
606,5,ISIP_5,140,1,48,81,678406444
606,5,ISIP_5,141,1,48,72,678852116
606,5,ISIP_5,142,1,48,73,679339172
606,5,ISIP_5,143,1,48,78,679786324
606,5,ISIP_5,144,1,48,67,680272476
606,5,ISIP_5,145,1,48,80,680707244
606,5,ISIP_5,146,1,48,56,681198632
606,5,ISIP_5,147,1,48,67,681666232
606,5,ISIP_5,148,1,48,77,682144604
606,5,ISIP_5,149,1,48,67,682570596
606,5,ISIP_5,150,1,48,51,683063408
606,5,ISIP_5,151,1,48,60,683536844
606,5,ISIP_5,152,1,48,76,683981332
606,5,ISIP_5,153,1,48,78,684428260
606,5,ISIP_5,154,1,48,65,684891900
606,5,ISIP_5,155,1,48,63,685357248
606,5,ISIP_5,156,1,48,66,685792760
606,5,ISIP_5,157,1,48,69,686213516
606,5,ISIP_5,158,1,48,63,686674160
606,5,ISIP_5,159,1,48,67,687139444
606,5,ISIP_5,160,1,48,69,687608464
606,5,ISIP_5,161,1,48,65,688058868
606,5,ISIP_5,162,1,48,51,688547264
606,5,ISIP_5,163,1,48,66,688997260
606,5,ISIP_5,164,1,48,66,689443620
606,5,ISIP_5,165,1,48,73,689906584
606,5,ISIP_5,166,1,48,70,690376812
606,5,ISIP_5,167,1,48,56,690822900
606,5,ISIP_5,168,1,48,62,691289904
606,5,ISIP_5,169,1,48,63,691776356
606,5,ISIP_5,170,1,48,59,692243664
606,5,ISIP_5,171,1,48,58,692688228
606,5,ISIP_5,172,1,48,56,693167124
606,5,ISIP_5,173,1,48,59,693645400
606,5,ISIP_5,174,1,48,53,694120852
606,5,ISIP_5,175,1,48,59,694609472
606,5,ISIP_5,176,1,48,58,695076400
606,5,ISIP_5,177,1,48,63,695551188
606,5,ISIP_5,178,1,48,50,696026196
606,5,ISIP_5,179,1,48,60,696514664
606,5,ISIP_5,180,1,48,66,696998720
606,5,ISIP_5,181,1,48,67,697463752
606,5,ISIP_5,182,1,48,54,697938760
606,5,ISIP_5,183,1,48,53,698399860
606,5,ISIP_5,184,1,48,53,698872848
606,5,ISIP_5,185,1,48,54,699361616
606,5,ISIP_5,186,1,48,67,699811700
606,5,ISIP_5,187,1,48,53,700266788
606,5,ISIP_5,188,1,48,55,700734388
606,5,ISIP_5,189,1,48,62,701186956
606,5,ISIP_5,190,1,48,63,701646108
606,5,ISIP_5,191,1,48,62,702138548
606,5,ISIP_5,192,1,48,61,702592656
606,5,ISIP_5,193,1,48,52,703058316
606,5,ISIP_5,194,1,48,59,703524716
606,5,ISIP_5,195,1,48,54,703998308
606,5,ISIP_5,196,1,48,58,704449980
606,5,ISIP_5,197,1,48,57,704888012
606,5,ISIP_5,198,1,48,53,705359040
606,5,ISIP_5,0,9999,9999,9999,625362036
606,5,ISIP_5,1,9999,9999,9999,625861752
606,5,ISIP_5,2,9999,9999,9999,626361392
606,5,ISIP_5,3,9999,9999,9999,626861112
606,5,ISIP_5,4,9999,9999,9999,627361872
606,5,ISIP_5,5,9999,9999,9999,627861564
606,5,ISIP_5,6,9999,9999,9999,628361332
606,5,ISIP_5,7,9999,9999,9999,628862020
606,5,ISIP_5,8,9999,9999,9999,629361736
606,5,ISIP_5,9,9999,9999,9999,629861424
606,5,ISIP_5,10,9999,9999,9999,630361204
606,5,ISIP_5,11,9999,9999,9999,630861944
606,5,ISIP_5,12,9999,9999,9999,631361636
606,5,ISIP_5,13,9999,9999,9999,631861332
606,5,ISIP_5,14,9999,9999,9999,632362072
606,5,ISIP_5,15,9999,9999,9999,632861768
606,5,ISIP_5,16,9999,9999,9999,633361464
606,5,ISIP_5,17,9999,9999,9999,633861232
606,5,ISIP_5,18,9999,9999,9999,634361968
606,5,ISIP_5,19,9999,9999,9999,634861668
606,5,ISIP_5,20,9999,9999,9999,635361364
606,5,ISIP_5,21,9999,9999,9999,635862100
606,5,ISIP_5,22,9999,9999,9999,636361796
606,5,ISIP_5,23,9999,9999,9999,636861496
606,5,ISIP_5,24,9999,9999,9999,637361260
606,5,ISIP_5,25,9999,9999,9999,637862008
606,5,ISIP_5,26,9999,9999,9999,638361704
606,5,ISIP_5,27,9999,9999,9999,638861372
606,5,ISIP_5,28,9999,9999,9999,639361144
606,5,ISIP_5,29,9999,9999,9999,639861808
606,5,ISIP_5,30,9999,9999,9999,640361572
606,5,ISIP_5,31,9999,9999,9999,640861272
606,5,ISIP_5,32,9999,9999,9999,641362008
606,5,ISIP_5,33,9999,9999,9999,641861708
606,5,ISIP_5,34,9999,9999,9999,642361404
606,5,ISIP_5,35,9999,9999,9999,642861164
606,5,ISIP_5,36,9999,9999,9999,643361908
606,5,ISIP_5,37,9999,9999,9999,643861608
606,5,ISIP_5,38,9999,9999,9999,644361304
606,5,ISIP_5,39,9999,9999,9999,644862040
606,5,ISIP_5,40,9999,9999,9999,645361744
606,5,ISIP_5,41,9999,9999,9999,645861432
606,5,ISIP_5,42,9999,9999,9999,646361196
606,5,ISIP_5,43,9999,9999,9999,646861936
606,5,ISIP_5,44,9999,9999,9999,647361624
606,5,ISIP_5,45,9999,9999,9999,647861316
606,5,ISIP_5,46,9999,9999,9999,648362052
606,5,ISIP_5,47,9999,9999,9999,648861744
606,5,ISIP_5,48,9999,9999,9999,649361488
606,5,ISIP_5,49,9999,9999,9999,649861176
606,5,ISIP_5,50,9999,9999,9999,650361916
606,5,ISIP_5,51,9999,9999,9999,650861680
606,5,ISIP_5,52,9999,9999,9999,651361372
606,5,ISIP_5,53,9999,9999,9999,651862108
606,5,ISIP_5,54,9999,9999,9999,652361796
606,5,ISIP_5,55,9999,9999,9999,652861492
606,5,ISIP_5,56,9999,9999,9999,653361256
606,5,ISIP_5,57,9999,9999,9999,653861992
606,5,ISIP_5,58,9999,9999,9999,654361684
606,5,ISIP_5,59,9999,9999,9999,654861372
606,5,ISIP_5,60,9999,9999,9999,655361140
606,5,ISIP_5,61,9999,9999,9999,655861876
606,5,ISIP_5,62,9999,9999,9999,656361568
606,5,ISIP_5,63,9999,9999,9999,656861256
606,5,ISIP_5,64,9999,9999,9999,657361996
606,5,ISIP_5,65,9999,9999,9999,657861688
606,5,ISIP_5,66,9999,9999,9999,658361448
606,5,ISIP_5,67,9999,9999,9999,658861136
606,5,ISIP_5,68,9999,9999,9999,659361872
606,5,ISIP_5,69,9999,9999,9999,659861620
606,5,ISIP_5,70,9999,9999,9999,660361304
606,5,ISIP_5,71,9999,9999,9999,660862024
606,5,ISIP_5,72,9999,9999,9999,661361716
606,5,ISIP_5,73,9999,9999,9999,661861480
606,5,ISIP_5,74,9999,9999,9999,662361172
606,5,ISIP_5,75,9999,9999,9999,662861908
606,5,ISIP_5,76,9999,9999,9999,663361600
606,5,ISIP_5,77,9999,9999,9999,663861364
606,5,ISIP_5,78,9999,9999,9999,664362104
606,5,ISIP_5,79,9999,9999,9999,664861792
606,5,ISIP_5,80,9999,9999,9999,665361488
606,5,ISIP_5,81,9999,9999,9999,665861176
606,5,ISIP_5,82,9999,9999,9999,666361916
606,5,ISIP_5,83,9999,9999,9999,666861680
606,5,ISIP_5,84,9999,9999,9999,667361372
606,5,ISIP_5,85,9999,9999,9999,667862108
606,5,ISIP_5,86,9999,9999,9999,668361800
606,5,ISIP_5,87,9999,9999,9999,668861488
606,5,ISIP_5,88,9999,9999,9999,669361256
606,5,ISIP_5,89,9999,9999,9999,669861992
606,5,ISIP_5,90,9999,9999,9999,670361684
606,5,ISIP_5,91,9999,9999,9999,670861424
606,5,ISIP_5,92,9999,9999,9999,671361116
606,5,ISIP_5,93,9999,9999,9999,671861856
606,5,ISIP_5,94,9999,9999,9999,672361536
606,5,ISIP_5,95,9999,9999,9999,672861304
606,5,ISIP_5,96,9999,9999,9999,673362040
606,5,ISIP_5,97,9999,9999,9999,673861732
606,5,ISIP_5,98,9999,9999,9999,674361408
606,5,ISIP_5,99,9999,9999,9999,674861172
606,5,ISIP_5,100,9999,9999,9999,675361908
606,5,ISIP_5,101,9999,9999,9999,675861600
606,5,ISIP_5,102,9999,9999,9999,676361292
606,5,ISIP_5,103,9999,9999,9999,676862028
606,5,ISIP_5,104,9999,9999,9999,677361720
606,5,ISIP_5,105,9999,9999,9999,677861484
606,5,ISIP_5,106,9999,9999,9999,678361176
606,5,ISIP_5,107,9999,9999,9999,678861908
606,5,ISIP_5,108,9999,9999,9999,679361600
606,5,ISIP_5,109,9999,9999,9999,679861364
606,5,ISIP_5,110,9999,9999,9999,680362100
606,5,ISIP_5,111,9999,9999,9999,680861776
606,5,ISIP_5,112,9999,9999,9999,681361516
606,5,ISIP_5,113,9999,9999,9999,681861208
606,5,ISIP_5,114,9999,9999,9999,682361944
606,5,ISIP_5,115,9999,9999,9999,682861636
606,5,ISIP_5,116,9999,9999,9999,683361400
606,5,ISIP_5,117,9999,9999,9999,683862136
606,5,ISIP_5,118,9999,9999,9999,684361828
606,5,ISIP_5,119,9999,9999,9999,684861516
606,5,ISIP_5,120,9999,9999,9999,685361204
606,5,ISIP_5,121,9999,9999,9999,685861940
606,5,ISIP_5,122,9999,9999,9999,686361688
606,5,ISIP_5,123,9999,9999,9999,686861380
606,5,ISIP_5,124,9999,9999,9999,687361144
606,5,ISIP_5,125,9999,9999,9999,687861808
606,5,ISIP_5,126,9999,9999,9999,688361572
606,5,ISIP_5,127,9999,9999,9999,688861264
606,5,ISIP_5,128,9999,9999,9999,689362000
606,5,ISIP_5,129,9999,9999,9999,689861692
606,5,ISIP_5,130,9999,9999,9999,690361456
606,5,ISIP_5,131,9999,9999,9999,690861140
606,5,ISIP_5,132,9999,9999,9999,691361876
606,5,ISIP_5,133,9999,9999,9999,691861568
606,5,ISIP_5,134,9999,9999,9999,692361292
606,5,ISIP_5,135,9999,9999,9999,692862032
606,5,ISIP_5,136,9999,9999,9999,693361724
606,5,ISIP_5,137,9999,9999,9999,693861488
606,5,ISIP_5,138,9999,9999,9999,694361176
606,5,ISIP_5,139,9999,9999,9999,694861916
606,5,ISIP_5,140,9999,9999,9999,695361608
606,5,ISIP_5,141,9999,9999,9999,695861296
606,5,ISIP_5,142,9999,9999,9999,696362036
606,5,ISIP_5,143,9999,9999,9999,696861800
606,5,ISIP_5,144,9999,9999,9999,697361492
606,5,ISIP_5,145,9999,9999,9999,697861180
606,5,ISIP_5,146,9999,9999,9999,698361920
606,5,ISIP_5,147,9999,9999,9999,698861684
606,5,ISIP_5,148,9999,9999,9999,699361332
606,5,ISIP_5,149,9999,9999,9999,699862104
606,5,ISIP_5,150,9999,9999,9999,700361796
606,5,ISIP_5,151,9999,9999,9999,700861548
606,5,ISIP_5,152,9999,9999,9999,701361240
606,5,ISIP_5,153,9999,9999,9999,701861976
606,5,ISIP_5,154,9999,9999,9999,702361668
606,5,ISIP_5,155,9999,9999,9999,702861404
606,5,ISIP_5,156,9999,9999,9999,703361096
606,5,ISIP_5,157,9999,9999,9999,703861836
606,5,ISIP_5,158,9999,9999,9999,704361524
606,5,ISIP_5,159,9999,9999,9999,704861292
607,11,Pattern_Practice,0,5,42,127,821178780
607,11,Pattern_Practice,1,5,42,127,821678644
607,11,Pattern_Practice,2,5,42,127,822179036
607,11,Pattern_Practice,3,5,42,127,822678900
607,11,Pattern_Practice,4,1,38,87,823166432
607,11,Pattern_Practice,5,5,42,127,823178808
607,11,Pattern_Practice,6,1,38,34,823292908
607,11,Pattern_Practice,7,1,38,69,823385120
607,11,Pattern_Practice,8,5,42,127,823679412
607,11,Pattern_Practice,9,1,38,68,823683504
607,11,Pattern_Practice,10,1,48,21,823695716
607,11,Pattern_Practice,11,5,42,127,824179000
607,11,Pattern_Practice,12,5,42,127,824678720
607,11,Pattern_Practice,13,1,38,99,825161864
607,11,Pattern_Practice,14,5,42,127,825178724
607,11,Pattern_Practice,15,1,38,77,825287616
607,11,Pattern_Practice,16,1,38,93,825448640
607,11,Pattern_Practice,17,5,42,127,825679132
607,11,Pattern_Practice,18,1,38,118,825786472
607,11,Pattern_Practice,19,5,42,127,826178828
607,11,Pattern_Practice,20,1,38,101,826542816
607,11,Pattern_Practice,21,1,38,94,826660676
607,11,Pattern_Practice,22,5,42,127,826678588
607,11,Pattern_Practice,23,1,38,87,826890256
607,11,Pattern_Practice,24,5,42,127,827179316
607,11,Pattern_Practice,25,1,38,127,827217436
607,11,Pattern_Practice,26,1,38,100,827569612
607,11,Pattern_Practice,27,5,42,127,827679284
607,11,Pattern_Practice,28,1,38,127,827943620
607,11,Pattern_Practice,29,5,42,127,828178756
607,11,Pattern_Practice,30,1,38,98,828294744
607,11,Pattern_Practice,31,1,38,127,828659560
607,11,Pattern_Practice,32,5,42,127,828678444
607,11,Pattern_Practice,33,1,38,127,829025716
607,11,Pattern_Practice,34,5,42,127,829179316
607,11,Pattern_Practice,35,1,48,79,829380828
607,11,Pattern_Practice,36,1,48,59,829491356
607,11,Pattern_Practice,37,1,38,19,829498360
607,11,Pattern_Practice,38,5,42,127,829678944
607,11,Pattern_Practice,39,1,48,86,829753716
607,11,Pattern_Practice,40,1,48,64,830094220
607,11,Pattern_Practice,41,1,38,19,830101536
607,11,Pattern_Practice,42,5,42,127,830178612
607,11,Pattern_Practice,43,1,48,41,830502000
607,11,Pattern_Practice,44,5,42,127,830679384
607,11,Pattern_Practice,45,5,42,127,831179028
607,11,Pattern_Practice,46,1,48,66,831631952
607,11,Pattern_Practice,47,5,42,127,831678736
607,11,Pattern_Practice,48,1,38,66,831916208
607,11,Pattern_Practice,49,1,38,31,832141272
607,11,Pattern_Practice,50,5,42,127,832178484
607,11,Pattern_Practice,51,1,48,73,832359908
607,11,Pattern_Practice,52,1,38,31,832570468
607,11,Pattern_Practice,53,5,42,127,832679340
607,11,Pattern_Practice,54,1,48,62,833140320
607,11,Pattern_Practice,55,5,42,127,833178904
607,11,Pattern_Practice,56,1,38,60,833627676
607,11,Pattern_Practice,57,5,42,127,833678672
607,11,Pattern_Practice,58,1,38,43,834112256
607,11,Pattern_Practice,59,5,42,127,834178340
607,11,Pattern_Practice,60,1,38,65,834604400
607,11,Pattern_Practice,61,5,42,127,834679008
607,11,Pattern_Practice,62,1,48,62,834998980
607,11,Pattern_Practice,63,5,42,127,835178888
607,11,Pattern_Practice,64,1,48,67,835202352
607,11,Pattern_Practice,65,1,48,81,835422336
607,11,Pattern_Practice,66,1,38,27,835627876
607,11,Pattern_Practice,67,5,42,127,835678552
607,11,Pattern_Practice,68,1,38,65,835890592
607,11,Pattern_Practice,69,1,38,24,835963868
607,11,Pattern_Practice,70,1,48,74,836130900
607,11,Pattern_Practice,71,5,42,127,836179252
607,11,Pattern_Practice,72,1,48,76,836319932
607,11,Pattern_Practice,73,1,38,70,836588012
607,11,Pattern_Practice,74,1,38,45,836642144
607,11,Pattern_Practice,75,5,42,127,836679128
607,11,Pattern_Practice,76,1,48,60,837110644
607,11,Pattern_Practice,77,5,42,127,837178744
607,11,Pattern_Practice,78,1,48,73,837628220
607,11,Pattern_Practice,79,5,42,127,837678592
607,11,Pattern_Practice,80,1,48,78,838126188
607,11,Pattern_Practice,81,5,42,127,838179408
607,11,Pattern_Practice,82,1,48,65,838635084
607,11,Pattern_Practice,83,5,42,127,838679324
607,11,Pattern_Practice,84,1,48,64,838843340
607,11,Pattern_Practice,85,1,38,57,839058016
607,11,Pattern_Practice,86,1,38,42,839095768
607,11,Pattern_Practice,87,5,42,127,839178456
607,11,Pattern_Practice,88,1,48,107,839320332
607,11,Pattern_Practice,89,1,48,87,839526372
607,11,Pattern_Practice,90,5,42,127,839679456
607,11,Pattern_Practice,91,1,38,59,839770616
607,11,Pattern_Practice,92,1,48,95,840052528
607,11,Pattern_Practice,93,5,42,127,840179204
607,11,Pattern_Practice,94,1,48,81,840608644
607,11,Pattern_Practice,95,5,42,127,840678696
607,11,Pattern_Practice,96,1,48,81,841127268
607,11,Pattern_Practice,97,5,42,127,841178388
607,11,Pattern_Practice,98,1,48,77,841646336
607,11,Pattern_Practice,99,5,42,127,841679352
607,11,Pattern_Practice,100,1,38,91,842064396
607,11,Pattern_Practice,101,5,42,127,842179104
607,11,Pattern_Practice,102,1,38,54,842322768
607,11,Pattern_Practice,103,1,48,81,842604532
607,11,Pattern_Practice,104,5,42,127,842678644
607,11,Pattern_Practice,105,1,48,76,843117096
607,11,Pattern_Practice,106,5,42,127,843179312
607,11,Pattern_Practice,107,1,38,65,843546476
607,11,Pattern_Practice,108,5,42,127,843679364
607,11,Pattern_Practice,109,1,38,67,843779500
607,11,Pattern_Practice,110,1,48,87,844061716
607,11,Pattern_Practice,111,5,42,127,844178664
607,11,Pattern_Practice,112,1,48,88,844541732
607,11,Pattern_Practice,113,1,38,70,844640220
607,11,Pattern_Practice,114,5,42,127,844678540
607,11,Pattern_Practice,115,1,38,32,844700892
607,11,Pattern_Practice,116,1,48,54,844747320
607,11,Pattern_Practice,117,1,38,71,845035568
607,11,Pattern_Practice,118,1,38,36,845091120
607,11,Pattern_Practice,119,5,42,127,845179264
607,11,Pattern_Practice,120,1,48,92,845301172
607,11,Pattern_Practice,121,1,48,77,845549204
607,11,Pattern_Practice,122,5,42,127,845679148
607,11,Pattern_Practice,123,1,38,82,846006188
607,11,Pattern_Practice,124,1,38,26,846081340
607,11,Pattern_Practice,125,5,42,127,846178524
607,11,Pattern_Practice,126,1,48,83,846468144
607,11,Pattern_Practice,127,1,48,56,846613624
607,11,Pattern_Practice,128,5,42,127,846679404
607,11,Pattern_Practice,129,1,38,68,846801988
607,11,Pattern_Practice,130,1,38,38,846854248
607,11,Pattern_Practice,131,1,48,67,847157180
607,11,Pattern_Practice,132,5,42,127,847179208
607,11,Pattern_Practice,133,5,42,127,847679056
607,11,Pattern_Practice,134,1,38,64,847684192
607,11,Pattern_Practice,135,1,38,44,847740496
607,11,Pattern_Practice,136,1,48,56,848161556
607,11,Pattern_Practice,137,5,42,127,848178500
607,11,Pattern_Practice,138,1,38,60,848278788
607,11,Pattern_Practice,139,1,38,36,848328732
607,11,Pattern_Practice,140,1,38,68,848515552
607,11,Pattern_Practice,141,5,42,127,848679180
607,11,Pattern_Practice,142,1,48,83,848690972
607,11,Pattern_Practice,143,1,38,67,849107548
607,11,Pattern_Practice,144,1,38,54,849151880
607,11,Pattern_Practice,145,5,42,127,849179144
607,11,Pattern_Practice,146,1,48,65,849242980
607,11,Pattern_Practice,147,1,38,64,849585956
607,11,Pattern_Practice,148,1,38,38,849639940
607,11,Pattern_Practice,149,5,42,127,849679016
607,11,Pattern_Practice,150,1,48,67,849719012
607,11,Pattern_Practice,151,1,48,63,849916092
607,11,Pattern_Practice,152,5,42,127,850178452
607,11,Pattern_Practice,153,1,38,70,850186508
607,11,Pattern_Practice,154,1,38,48,850240864
607,11,Pattern_Practice,155,1,48,78,850644348
607,11,Pattern_Practice,156,5,42,127,850679236
607,11,Pattern_Practice,157,1,38,72,850784292
607,11,Pattern_Practice,158,1,38,54,850833436
607,11,Pattern_Practice,159,1,48,76,851102112
607,11,Pattern_Practice,160,5,42,127,851179036
607,11,Pattern_Practice,161,1,38,71,851299124
607,11,Pattern_Practice,162,1,38,51,851356420
607,11,Pattern_Practice,163,5,42,127,851678696
607,11,Pattern_Practice,164,1,48,76,851690488
607,11,Pattern_Practice,165,1,38,64,851812012
607,11,Pattern_Practice,166,1,38,43,851866696
607,11,Pattern_Practice,167,1,38,74,852027036
607,11,Pattern_Practice,168,1,38,38,852094556
607,11,Pattern_Practice,169,1,48,83,852172588
607,11,Pattern_Practice,170,5,42,127,852179284
607,11,Pattern_Practice,171,1,38,57,852620048
607,11,Pattern_Practice,172,5,42,127,852678952
607,11,Pattern_Practice,173,1,38,92,853141664
607,11,Pattern_Practice,174,5,42,127,853178720
607,11,Pattern_Practice,175,1,38,42,853225428
607,11,Pattern_Practice,176,1,38,54,853642504
607,11,Pattern_Practice,177,5,42,127,853678516
607,11,Pattern_Practice,178,1,48,76,854079344
607,11,Pattern_Practice,179,1,38,87,854135720
607,11,Pattern_Practice,180,5,42,127,854179076
607,11,Pattern_Practice,181,1,38,50,854203192
607,11,Pattern_Practice,182,1,48,75,854281268
607,11,Pattern_Practice,183,1,38,62,854511692
607,11,Pattern_Practice,184,5,42,127,854678836
607,11,Pattern_Practice,185,1,48,77,854692348
607,11,Pattern_Practice,186,1,38,60,855078680
607,11,Pattern_Practice,187,1,38,49,855131020
607,11,Pattern_Practice,188,5,42,127,855178476
607,11,Pattern_Practice,189,1,48,83,855545872
607,11,Pattern_Practice,190,1,38,77,855625504
607,11,Pattern_Practice,191,1,38,54,855674004
607,11,Pattern_Practice,192,5,42,127,855679272
607,11,Pattern_Practice,193,1,48,81,855749960
607,11,Pattern_Practice,194,1,38,55,855903840
607,11,Pattern_Practice,195,1,38,44,855931568
607,11,Pattern_Practice,196,1,48,26,856093884
607,11,Pattern_Practice,197,5,42,127,856179112
607,11,Pattern_Practice,198,5,42,127,856678888
607,11,Pattern_Practice,199,1,38,77,856990000
607,11,Pattern_Practice,200,1,38,55,857116836
607,11,Pattern_Practice,201,1,38,64,857177656
607,11,Pattern_Practice,202,5,42,127,857180200
607,11,Pattern_Practice,203,1,38,83,857330080
607,11,Pattern_Practice,204,5,42,127,857679208
607,11,Pattern_Practice,205,1,48,56,857937556
607,11,Pattern_Practice,206,1,48,59,857977624
607,11,Pattern_Practice,207,1,48,43,858106132
607,11,Pattern_Practice,208,1,48,76,858118380
607,11,Pattern_Practice,209,1,38,18,858126440
607,11,Pattern_Practice,210,5,42,127,858178904
607,11,Pattern_Practice,211,1,48,70,858347612
607,11,Pattern_Practice,212,5,42,127,858678632
607,11,Pattern_Practice,213,1,48,84,858913568
607,11,Pattern_Practice,214,1,48,77,859093688
607,11,Pattern_Practice,215,5,42,127,859179440
607,11,Pattern_Practice,216,1,48,82,859292896
607,11,Pattern_Practice,217,1,38,92,859626872
607,11,Pattern_Practice,218,5,42,127,859679040
607,11,Pattern_Practice,219,1,38,41,859685880
607,11,Pattern_Practice,220,1,48,46,860104032
607,11,Pattern_Practice,221,5,42,127,860178788
607,11,Pattern_Practice,222,1,38,127,860649424
607,11,Pattern_Practice,223,5,42,127,860678632
607,11,Pattern_Practice,224,1,48,77,861167368
607,11,Pattern_Practice,0,9999,9999,9999,821176420
607,11,Pattern_Practice,1,9999,9999,9999,821676136
607,11,Pattern_Practice,2,9999,9999,9999,822176824
607,11,Pattern_Practice,3,9999,9999,9999,822676540
607,11,Pattern_Practice,4,9999,9999,9999,823176300
607,11,Pattern_Practice,5,9999,9999,9999,823677052
607,11,Pattern_Practice,6,9999,9999,9999,824176712
607,11,Pattern_Practice,7,9999,9999,9999,824676432
607,11,Pattern_Practice,8,9999,9999,9999,825176140
607,11,Pattern_Practice,9,9999,9999,9999,825676916
607,11,Pattern_Practice,10,9999,9999,9999,826176612
607,11,Pattern_Practice,11,9999,9999,9999,826676300
607,11,Pattern_Practice,12,9999,9999,9999,827177028
607,11,Pattern_Practice,13,9999,9999,9999,827676772
607,11,Pattern_Practice,14,9999,9999,9999,828176468
607,11,Pattern_Practice,15,9999,9999,9999,828676156
607,11,Pattern_Practice,16,9999,9999,9999,829176880
607,11,Pattern_Practice,17,9999,9999,9999,829676656
607,11,Pattern_Practice,18,9999,9999,9999,830176324
607,11,Pattern_Practice,19,9999,9999,9999,830677096
607,11,Pattern_Practice,20,9999,9999,9999,831176816
607,11,Pattern_Practice,21,9999,9999,9999,831676524
607,11,Pattern_Practice,22,9999,9999,9999,832176196
607,11,Pattern_Practice,23,9999,9999,9999,832676980
607,11,Pattern_Practice,24,9999,9999,9999,833176688
607,11,Pattern_Practice,25,9999,9999,9999,833676384
607,11,Pattern_Practice,26,9999,9999,9999,834176056
607,11,Pattern_Practice,27,9999,9999,9999,834676796
607,11,Pattern_Practice,28,9999,9999,9999,835176528
607,11,Pattern_Practice,29,9999,9999,9999,835676264
607,11,Pattern_Practice,30,9999,9999,9999,836176964
607,11,Pattern_Practice,31,9999,9999,9999,836676692
607,11,Pattern_Practice,32,9999,9999,9999,837176384
607,11,Pattern_Practice,33,9999,9999,9999,837676156
607,11,Pattern_Practice,34,9999,9999,9999,838176820
607,11,Pattern_Practice,35,9999,9999,9999,838676588
607,11,Pattern_Practice,36,9999,9999,9999,839176244
607,11,Pattern_Practice,37,9999,9999,9999,839677020
607,11,Pattern_Practice,38,9999,9999,9999,840176696
607,11,Pattern_Practice,39,9999,9999,9999,840676408
607,11,Pattern_Practice,40,9999,9999,9999,841176176
607,11,Pattern_Practice,41,9999,9999,9999,841676916
607,11,Pattern_Practice,42,9999,9999,9999,842176596
607,11,Pattern_Practice,43,9999,9999,9999,842676284
607,11,Pattern_Practice,44,9999,9999,9999,843177024
607,11,Pattern_Practice,45,9999,9999,9999,843676776
607,11,Pattern_Practice,46,9999,9999,9999,844176452
607,11,Pattern_Practice,47,9999,9999,9999,844676176
607,11,Pattern_Practice,48,9999,9999,9999,845176904
607,11,Pattern_Practice,49,9999,9999,9999,845676636
607,11,Pattern_Practice,50,9999,9999,9999,846176312
607,11,Pattern_Practice,51,9999,9999,9999,846677044
607,11,Pattern_Practice,52,9999,9999,9999,847176772
607,11,Pattern_Practice,53,9999,9999,9999,847676472
607,11,Pattern_Practice,54,9999,9999,9999,848176212
607,11,Pattern_Practice,55,9999,9999,9999,848676968
607,11,Pattern_Practice,56,9999,9999,9999,849176632
607,11,Pattern_Practice,57,9999,9999,9999,849676356
607,11,Pattern_Practice,58,9999,9999,9999,850176088
607,11,Pattern_Practice,59,9999,9999,9999,850676804
607,11,Pattern_Practice,60,9999,9999,9999,851176528
607,11,Pattern_Practice,61,9999,9999,9999,851676256
607,11,Pattern_Practice,62,9999,9999,9999,852176996
607,11,Pattern_Practice,63,9999,9999,9999,852676664
607,11,Pattern_Practice,64,9999,9999,9999,853176432
607,11,Pattern_Practice,65,9999,9999,9999,853676080
607,11,Pattern_Practice,66,9999,9999,9999,854176860
607,11,Pattern_Practice,67,9999,9999,9999,854676548
607,11,Pattern_Practice,68,9999,9999,9999,855176264
607,11,Pattern_Practice,69,9999,9999,9999,855676984
607,11,Pattern_Practice,70,9999,9999,9999,856176748
607,11,Pattern_Practice,71,9999,9999,9999,856676452
607,11,Pattern_Practice,72,9999,9999,9999,857176156
607,11,Pattern_Practice,73,9999,9999,9999,857676920
607,11,Pattern_Practice,74,9999,9999,9999,858176616
607,11,Pattern_Practice,75,9999,9999,9999,858676344
607,11,Pattern_Practice,76,9999,9999,9999,859177080
607,11,Pattern_Practice,77,9999,9999,9999,859676752
607,11,Pattern_Practice,78,9999,9999,9999,860176500
607,11,Pattern_Practice,79,9999,9999,9999,860676196
608,13,Improv_Metronome,0,5,42,127,886001244
608,13,Improv_Metronome,1,5,42,127,886500592
608,13,Improv_Metronome,2,5,42,127,887000532
608,13,Improv_Metronome,3,5,42,127,887501296
608,13,Improv_Metronome,4,5,42,127,888001160
608,13,Improv_Metronome,5,5,42,127,888500504
608,13,Improv_Metronome,6,5,42,127,889001268
608,13,Improv_Metronome,7,5,42,127,889501280
608,13,Improv_Metronome,8,1,38,18,889727300
608,13,Improv_Metronome,9,1,48,82,889951844
608,13,Improv_Metronome,10,5,42,127,890000744
608,13,Improv_Metronome,11,1,48,99,890063240
608,13,Improv_Metronome,12,1,48,74,890296468
608,13,Improv_Metronome,13,1,48,111,890452916
608,13,Improv_Metronome,14,5,42,127,890500524
608,13,Improv_Metronome,15,1,48,57,890893744
608,13,Improv_Metronome,16,1,38,17,890902028
608,13,Improv_Metronome,17,5,42,127,891001276
608,13,Improv_Metronome,18,1,48,86,891437228
608,13,Improv_Metronome,19,5,42,127,891501136
608,13,Improv_Metronome,20,1,48,77,891903264
608,13,Improv_Metronome,21,5,42,127,892000816
608,13,Improv_Metronome,22,1,48,58,892006556
608,13,Improv_Metronome,23,1,48,46,892216964
608,13,Improv_Metronome,24,1,48,81,892342552
608,13,Improv_Metronome,25,5,42,127,892501364
608,13,Improv_Metronome,26,1,48,83,892825264
608,13,Improv_Metronome,27,5,42,127,893001060
608,13,Improv_Metronome,28,1,48,86,893304436
608,13,Improv_Metronome,29,5,42,127,893500904
608,13,Improv_Metronome,30,1,48,86,893732328
608,13,Improv_Metronome,31,1,48,44,893867120
608,13,Improv_Metronome,32,5,42,127,894000576
608,13,Improv_Metronome,33,1,48,85,894163932
608,13,Improv_Metronome,34,1,48,102,894353480
608,13,Improv_Metronome,35,5,42,127,894501444
608,13,Improv_Metronome,36,1,48,55,894798616
608,13,Improv_Metronome,37,1,38,16,894807128
608,13,Improv_Metronome,38,5,42,127,895001016
608,13,Improv_Metronome,39,1,48,71,895294900
608,13,Improv_Metronome,40,5,42,127,895500712
608,13,Improv_Metronome,41,1,48,82,895716132
608,13,Improv_Metronome,42,1,48,78,895838104
608,13,Improv_Metronome,43,5,42,127,896001432
608,13,Improv_Metronome,44,1,48,53,896010084
608,13,Improv_Metronome,45,1,48,88,896177640
608,13,Improv_Metronome,46,5,42,127,896500956
608,13,Improv_Metronome,47,1,48,82,896639164
608,13,Improv_Metronome,48,5,42,127,897000876
608,13,Improv_Metronome,49,1,48,79,897133468
608,13,Improv_Metronome,50,5,42,127,897500496
608,13,Improv_Metronome,51,1,48,81,897530764
608,13,Improv_Metronome,52,1,48,61,897659924
608,13,Improv_Metronome,53,1,38,21,897666856
608,13,Improv_Metronome,54,1,48,89,897954748
608,13,Improv_Metronome,55,5,42,127,898001160
608,13,Improv_Metronome,56,1,48,82,898137032
608,13,Improv_Metronome,57,5,42,127,898501064
608,13,Improv_Metronome,58,1,48,100,898574720
608,13,Improv_Metronome,59,5,42,127,899000760
608,13,Improv_Metronome,60,1,48,98,899048984
608,13,Improv_Metronome,61,1,48,100,899479172
608,13,Improv_Metronome,62,5,42,127,899501420
608,13,Improv_Metronome,63,1,48,95,899612456
608,13,Improv_Metronome,64,1,38,22,899620068
608,13,Improv_Metronome,65,1,48,91,899870092
608,13,Improv_Metronome,66,5,42,127,900001032
608,13,Improv_Metronome,67,1,48,91,900067728
608,13,Improv_Metronome,68,5,42,127,900500800
608,13,Improv_Metronome,69,1,38,48,900527852
608,13,Improv_Metronome,70,5,42,127,901000568
608,13,Improv_Metronome,71,1,38,45,901014160
608,13,Improv_Metronome,72,1,48,19,901026704
608,13,Improv_Metronome,73,1,48,90,901432460
608,13,Improv_Metronome,74,5,42,127,901501232
608,13,Improv_Metronome,75,1,48,76,901554924
608,13,Improv_Metronome,76,1,38,24,901562608
608,13,Improv_Metronome,77,1,48,108,901829384
608,13,Improv_Metronome,78,1,38,127,901956368
608,13,Improv_Metronome,79,5,42,127,902001132
608,13,Improv_Metronome,80,1,48,32,902409840
608,13,Improv_Metronome,81,1,48,54,902414304
608,13,Improv_Metronome,82,1,38,21,902418248
608,13,Improv_Metronome,83,5,42,127,902500860
608,13,Improv_Metronome,84,1,48,72,902891664
608,13,Improv_Metronome,85,1,38,20,902900468
608,13,Improv_Metronome,86,5,42,127,903001216
608,13,Improv_Metronome,87,1,38,116,903364604
608,13,Improv_Metronome,88,1,48,92,903414548
608,13,Improv_Metronome,89,5,42,127,903501112
608,13,Improv_Metronome,90,1,38,54,903734240
608,13,Improv_Metronome,91,1,48,56,903847640
608,13,Improv_Metronome,92,5,42,127,904000768
608,13,Improv_Metronome,93,1,48,57,904311108
608,13,Improv_Metronome,94,1,38,19,904318416
608,13,Improv_Metronome,95,5,42,127,904500564
608,13,Improv_Metronome,96,1,48,80,904810080
608,13,Improv_Metronome,97,5,42,127,905001304
608,13,Improv_Metronome,98,1,48,93,905238644
608,13,Improv_Metronome,99,1,48,54,905325084
608,13,Improv_Metronome,100,5,42,127,905500904
608,13,Improv_Metronome,101,1,48,53,905502316
608,13,Improv_Metronome,102,1,38,15,905515756
608,13,Improv_Metronome,103,1,48,68,905698616
608,13,Improv_Metronome,104,5,42,127,906000692
608,13,Improv_Metronome,105,1,38,114,906177964
608,13,Improv_Metronome,106,5,42,127,906500388
608,13,Improv_Metronome,107,1,38,127,906657092
608,13,Improv_Metronome,108,5,42,127,907001056
608,13,Improv_Metronome,109,1,48,68,907092360
608,13,Improv_Metronome,110,1,38,18,907100864
608,13,Improv_Metronome,111,1,48,83,907196836
608,13,Improv_Metronome,112,1,38,20,907204744
608,13,Improv_Metronome,113,1,48,105,907497852
608,13,Improv_Metronome,114,5,42,127,907500952
608,13,Improv_Metronome,115,1,48,59,907612956
608,13,Improv_Metronome,116,1,38,23,907621396
608,13,Improv_Metronome,117,5,42,127,908000808
608,13,Improv_Metronome,118,1,38,95,908053592
608,13,Improv_Metronome,119,5,42,127,908501472
608,13,Improv_Metronome,120,1,38,55,908515368
608,13,Improv_Metronome,121,1,48,19,908527384
608,13,Improv_Metronome,122,1,48,77,908907484
608,13,Improv_Metronome,123,5,42,127,909001044
608,13,Improv_Metronome,124,1,48,88,909020452
608,13,Improv_Metronome,125,1,38,23,909028208
608,13,Improv_Metronome,126,1,48,92,909263948
608,13,Improv_Metronome,127,1,48,49,909417408
608,13,Improv_Metronome,128,5,42,127,909500720
608,13,Improv_Metronome,129,1,38,127,909877540
608,13,Improv_Metronome,130,5,42,127,910000696
608,13,Improv_Metronome,131,1,38,84,910334816
608,13,Improv_Metronome,132,5,42,127,910501216
608,13,Improv_Metronome,133,1,48,69,910770636
608,13,Improv_Metronome,134,1,48,52,910870468
608,13,Improv_Metronome,135,1,38,17,910877480
608,13,Improv_Metronome,136,5,42,127,911000916
608,13,Improv_Metronome,137,1,48,117,911160660
608,13,Improv_Metronome,138,1,48,59,911284900
608,13,Improv_Metronome,139,5,42,127,911500736
608,13,Improv_Metronome,140,1,38,88,911729368
608,13,Improv_Metronome,141,5,42,127,912001380
608,13,Improv_Metronome,142,1,38,127,912188676
608,13,Improv_Metronome,143,5,42,127,912501072
608,13,Improv_Metronome,144,1,48,53,912614920
608,13,Improv_Metronome,145,1,38,18,912623276
608,13,Improv_Metronome,146,1,48,59,912723980
608,13,Improv_Metronome,147,1,38,21,912731064
608,13,Improv_Metronome,148,1,48,92,912976672
608,13,Improv_Metronome,149,5,42,127,913000796
608,13,Improv_Metronome,150,1,48,66,913113048
608,13,Improv_Metronome,151,5,42,127,913500476
608,13,Improv_Metronome,152,1,38,80,913575124
608,13,Improv_Metronome,153,5,42,127,914001288
608,13,Improv_Metronome,154,1,38,102,914024680
608,13,Improv_Metronome,155,1,48,66,914447760
608,13,Improv_Metronome,156,5,42,127,914500976
608,13,Improv_Metronome,157,1,48,65,914541104
608,13,Improv_Metronome,158,1,48,110,914835984
608,13,Improv_Metronome,159,1,48,87,914915400
608,13,Improv_Metronome,160,5,42,127,915000704
608,13,Improv_Metronome,161,1,38,127,915375452
608,13,Improv_Metronome,162,5,42,127,915501576
608,13,Improv_Metronome,163,1,38,71,915833604
608,13,Improv_Metronome,164,1,48,20,915846076
608,13,Improv_Metronome,165,5,42,127,916001000
608,13,Improv_Metronome,166,1,48,96,916248660
608,13,Improv_Metronome,167,1,48,69,916343256
608,13,Improv_Metronome,168,5,42,127,916500824
608,13,Improv_Metronome,169,1,48,103,916649300
608,13,Improv_Metronome,170,1,48,56,916756688
608,13,Improv_Metronome,171,1,38,23,916764972
608,13,Improv_Metronome,172,5,42,127,917000748
608,13,Improv_Metronome,173,1,38,80,917194100
608,13,Improv_Metronome,174,5,42,127,917501264
608,13,Improv_Metronome,175,1,38,68,917645552
608,13,Improv_Metronome,176,1,48,18,917658100
608,13,Improv_Metronome,177,5,42,127,918001060
608,13,Improv_Metronome,178,1,48,127,918048012
608,13,Improv_Metronome,179,1,48,73,918215112
608,13,Improv_Metronome,180,5,42,127,918500736
608,13,Improv_Metronome,181,1,38,127,918606696
608,13,Improv_Metronome,182,5,42,127,919000576
608,13,Improv_Metronome,183,1,48,127,919121280
608,13,Improv_Metronome,184,1,48,103,919279032
608,13,Improv_Metronome,185,1,38,26,919286264
608,13,Improv_Metronome,186,5,42,127,919501248
608,13,Improv_Metronome,187,1,48,77,919586568
608,13,Improv_Metronome,188,1,38,75,919720836
608,13,Improv_Metronome,189,5,42,127,920000924
608,13,Improv_Metronome,190,1,48,127,920068816
608,13,Improv_Metronome,191,1,48,101,920339288
608,13,Improv_Metronome,192,5,42,127,920500744
608,13,Improv_Metronome,193,1,38,127,920659744
608,13,Improv_Metronome,194,5,42,127,921001336
608,13,Improv_Metronome,195,1,48,82,921142080
608,13,Improv_Metronome,196,1,38,22,921151040
608,13,Improv_Metronome,197,1,38,122,921283104
608,13,Improv_Metronome,198,5,42,127,921500964
608,13,Improv_Metronome,199,1,38,94,921592640
608,13,Improv_Metronome,200,1,48,113,921853760
608,13,Improv_Metronome,201,5,42,127,922000856
608,13,Improv_Metronome,202,1,38,124,922172872
608,13,Improv_Metronome,203,5,42,127,922500676
608,13,Improv_Metronome,204,1,38,127,922734492
608,13,Improv_Metronome,205,1,38,115,922954928
608,13,Improv_Metronome,206,5,42,127,923001260
608,13,Improv_Metronome,207,1,48,127,923239780
608,13,Improv_Metronome,208,1,38,127,923497536
608,13,Improv_Metronome,209,5,42,127,923500784
608,13,Improv_Metronome,210,1,38,127,923760020
608,13,Improv_Metronome,211,5,42,127,924000612
608,13,Improv_Metronome,212,1,48,83,924063968
608,13,Improv_Metronome,213,1,48,103,924296964
608,13,Improv_Metronome,214,5,42,127,924501332
608,13,Improv_Metronome,215,1,38,108,924561920
608,13,Improv_Metronome,216,5,42,127,925000952
608,13,Improv_Metronome,217,1,38,44,925080764
608,13,Improv_Metronome,218,5,42,127,925500720
608,13,Improv_Metronome,219,1,38,127,925600128
608,13,Improv_Metronome,220,5,42,127,926000636
608,13,Improv_Metronome,221,1,48,70,926073920
608,13,Improv_Metronome,222,1,48,93,926158516
608,13,Improv_Metronome,223,1,48,95,926495336
608,13,Improv_Metronome,224,5,42,127,926501428
608,13,Improv_Metronome,225,5,42,127,927000904
608,13,Improv_Metronome,226,1,38,112,927073512
608,13,Improv_Metronome,227,5,42,127,927500524
608,13,Improv_Metronome,228,1,48,54,927561836
608,13,Improv_Metronome,229,1,48,68,927663412
608,13,Improv_Metronome,230,1,48,79,927980484
608,13,Improv_Metronome,231,5,42,127,928001240
608,13,Improv_Metronome,232,1,38,46,928142816
608,13,Improv_Metronome,233,5,42,127,928501140
608,13,Improv_Metronome,234,1,48,89,928606884
608,13,Improv_Metronome,235,5,42,127,929000836
608,13,Improv_Metronome,236,1,48,90,929105456
608,13,Improv_Metronome,237,5,42,127,929500532
608,13,Improv_Metronome,238,1,48,110,929526608
608,13,Improv_Metronome,239,1,48,57,929622704
608,13,Improv_Metronome,240,1,38,22,929630244
608,13,Improv_Metronome,241,1,48,118,929987024
608,13,Improv_Metronome,242,5,42,127,930001344
608,13,Improv_Metronome,243,5,42,127,930500972
608,13,Improv_Metronome,244,1,48,87,930521520
608,13,Improv_Metronome,245,5,42,127,931000744
608,13,Improv_Metronome,246,1,48,92,931017248
608,13,Improv_Metronome,247,1,48,91,931440832
608,13,Improv_Metronome,248,5,42,127,931501476
608,13,Improv_Metronome,249,1,48,60,931583936
608,13,Improv_Metronome,250,1,38,24,931591180
608,13,Improv_Metronome,251,1,48,124,931916740
608,13,Improv_Metronome,252,5,42,127,932001100
608,13,Improv_Metronome,253,1,48,83,932484652
608,13,Improv_Metronome,254,5,42,127,932500792
608,13,Improv_Metronome,255,1,48,98,932965576
608,13,Improv_Metronome,256,5,42,127,933000488
608,13,Improv_Metronome,257,5,42,127,933501436
608,13,Improv_Metronome,258,1,48,24,933640340
608,13,Improv_Metronome,259,5,42,127,934001056
608,13,Improv_Metronome,260,1,48,78,934060300
608,13,Improv_Metronome,261,5,42,127,934500748
608,13,Improv_Metronome,262,1,48,65,934505664
608,13,Improv_Metronome,263,1,48,75,934961956
608,13,Improv_Metronome,264,5,42,127,935000364
608,13,Improv_Metronome,265,1,48,84,935384388
608,13,Improv_Metronome,266,1,48,77,935483396
608,13,Improv_Metronome,267,5,42,127,935501232
608,13,Improv_Metronome,268,1,48,52,935512264
608,13,Improv_Metronome,269,1,48,106,935773608
608,13,Improv_Metronome,270,1,48,100,935888500
608,13,Improv_Metronome,271,1,48,64,935916004
608,13,Improv_Metronome,272,5,42,127,936000860
608,13,Improv_Metronome,273,1,48,110,936037476
608,13,Improv_Metronome,274,1,38,52,936415152
608,13,Improv_Metronome,275,5,42,127,936500532
608,13,Improv_Metronome,276,1,48,78,936870344
608,13,Improv_Metronome,277,5,42,127,937001184
608,13,Improv_Metronome,278,1,48,98,937331564
608,13,Improv_Metronome,279,1,48,71,937430456
608,13,Improv_Metronome,280,1,48,56,937466632
608,13,Improv_Metronome,281,5,42,127,937501148
608,13,Improv_Metronome,282,1,48,70,937684912
608,13,Improv_Metronome,283,1,48,90,937844284
608,13,Improv_Metronome,284,1,48,51,937881692
608,13,Improv_Metronome,285,5,42,127,938000936
608,13,Improv_Metronome,286,1,48,99,938312244
608,13,Improv_Metronome,287,5,42,127,938500332
608,13,Improv_Metronome,288,1,48,74,938792568
608,13,Improv_Metronome,289,5,42,127,939001148
608,13,Improv_Metronome,290,1,48,56,939208340
608,13,Improv_Metronome,291,1,48,84,939312956
608,13,Improv_Metronome,292,1,48,57,939340092
608,13,Improv_Metronome,293,5,42,127,939500948
608,13,Improv_Metronome,294,1,48,78,939657876
608,13,Improv_Metronome,295,1,48,60,939682012
608,13,Improv_Metronome,296,1,48,54,939707648
608,13,Improv_Metronome,297,5,42,127,940000676
608,13,Improv_Metronome,298,1,48,85,940142244
608,13,Improv_Metronome,299,5,42,127,940501268
608,13,Improv_Metronome,300,1,48,78,940618228
608,13,Improv_Metronome,301,5,42,127,941000960
608,13,Improv_Metronome,302,1,48,80,941020984
608,13,Improv_Metronome,303,1,48,66,941116632
608,13,Improv_Metronome,304,1,48,43,941346260
608,13,Improv_Metronome,305,1,48,91,941500612
608,13,Improv_Metronome,306,5,42,127,941502248
608,13,Improv_Metronome,307,1,48,72,941977080
608,13,Improv_Metronome,308,5,42,127,942000524
608,13,Improv_Metronome,309,1,48,47,942432620
608,13,Improv_Metronome,310,5,42,127,942501264
608,13,Improv_Metronome,311,1,48,86,942868208
608,13,Improv_Metronome,312,5,42,127,943001168
608,13,Improv_Metronome,313,1,48,73,943008552
608,13,Improv_Metronome,314,1,48,45,943041516
608,13,Improv_Metronome,315,1,48,68,943343852
608,13,Improv_Metronome,316,1,48,58,943371284
608,13,Improv_Metronome,317,5,42,127,943500652
608,13,Improv_Metronome,318,1,48,55,943561584
608,13,Improv_Metronome,319,1,48,82,943984196
608,13,Improv_Metronome,320,5,42,127,944001360
608,13,Improv_Metronome,321,1,48,62,944448664
608,13,Improv_Metronome,322,5,42,127,944501128
608,13,Improv_Metronome,323,1,48,77,944873108
608,13,Improv_Metronome,324,1,48,69,944961576
608,13,Improv_Metronome,325,5,42,127,945001172
608,13,Improv_Metronome,326,1,48,34,945006444
608,13,Improv_Metronome,327,1,48,98,945294672
608,13,Improv_Metronome,328,1,48,73,945428912
608,13,Improv_Metronome,329,5,42,127,945500528
608,13,Improv_Metronome,330,1,48,62,945871236
608,13,Improv_Metronome,331,5,42,127,946001400
608,13,Improv_Metronome,332,1,48,46,946368616
608,13,Improv_Metronome,333,5,42,127,946501096
608,13,Improv_Metronome,334,1,48,89,946789448
608,13,Improv_Metronome,335,1,48,71,946919144
608,13,Improv_Metronome,336,5,42,127,947000708
608,13,Improv_Metronome,337,1,48,84,947183876
608,13,Improv_Metronome,338,1,48,80,947340360
608,13,Improv_Metronome,339,5,42,127,947501488
608,13,Improv_Metronome,340,1,48,75,947774504
608,13,Improv_Metronome,341,5,42,127,948001256
608,13,Improv_Metronome,342,1,48,79,948254148
608,13,Improv_Metronome,343,5,42,127,948501100
608,13,Improv_Metronome,344,1,48,93,948689000
608,13,Improv_Metronome,345,1,48,81,948750836
608,13,Improv_Metronome,346,5,42,127,949000404
608,13,Improv_Metronome,347,1,48,29,949097696
608,13,Improv_Metronome,348,1,48,100,949167704
608,13,Improv_Metronome,349,5,42,127,949501200
608,13,Improv_Metronome,350,1,48,75,949620400
608,13,Improv_Metronome,351,5,42,127,950001040
608,13,Improv_Metronome,352,1,48,60,950097060
608,13,Improv_Metronome,353,1,48,78,950482668
608,13,Improv_Metronome,354,5,42,127,950501024
608,13,Improv_Metronome,355,1,48,80,950622388
608,13,Improv_Metronome,356,1,48,42,950684616
608,13,Improv_Metronome,357,1,48,59,950947312
608,13,Improv_Metronome,358,5,42,127,951000304
608,13,Improv_Metronome,359,1,48,83,951048060
608,13,Improv_Metronome,360,5,42,127,951501252
608,13,Improv_Metronome,361,1,48,78,951543940
608,13,Improv_Metronome,362,5,42,127,952001024
608,13,Improv_Metronome,363,1,48,83,952022244
608,13,Improv_Metronome,364,1,48,83,952428700
608,13,Improv_Metronome,365,5,42,127,952500860
608,13,Improv_Metronome,366,1,48,78,952558192
608,13,Improv_Metronome,367,1,48,40,952599836
608,13,Improv_Metronome,368,1,48,62,952820192
608,13,Improv_Metronome,369,1,48,81,952970316
608,13,Improv_Metronome,370,5,42,127,953001240
608,13,Improv_Metronome,371,1,48,93,953437820
608,13,Improv_Metronome,372,5,42,127,953500936
608,13,Improv_Metronome,373,1,48,79,953924124
608,13,Improv_Metronome,374,5,42,127,954000924
608,13,Improv_Metronome,375,1,48,74,954344684
608,13,Improv_Metronome,376,1,48,62,954447508
608,13,Improv_Metronome,377,5,42,127,954500724
608,13,Improv_Metronome,378,1,48,53,954775292
608,13,Improv_Metronome,379,1,48,114,954903996
608,13,Improv_Metronome,380,5,42,127,955001104
608,13,Improv_Metronome,381,1,48,111,955366068
608,13,Improv_Metronome,382,5,42,127,955501024
608,13,Improv_Metronome,383,1,48,109,955858584
608,13,Improv_Metronome,0,9999,9999,9999,885998660
608,13,Improv_Metronome,1,9999,9999,9999,886498380
608,13,Improv_Metronome,2,9999,9999,9999,886998096
608,13,Improv_Metronome,3,9999,9999,9999,887498860
608,13,Improv_Metronome,4,9999,9999,9999,887998576
608,13,Improv_Metronome,5,9999,9999,9999,888498292
608,13,Improv_Metronome,6,9999,9999,9999,888998980
608,13,Improv_Metronome,7,9999,9999,9999,889498700
608,13,Improv_Metronome,8,9999,9999,9999,889998384
608,13,Improv_Metronome,9,9999,9999,9999,890498164
608,13,Improv_Metronome,10,9999,9999,9999,890998844
608,13,Improv_Metronome,11,9999,9999,9999,891498552
608,13,Improv_Metronome,12,9999,9999,9999,891998308
608,13,Improv_Metronome,13,9999,9999,9999,892499004
608,13,Improv_Metronome,14,9999,9999,9999,892998772
608,13,Improv_Metronome,15,9999,9999,9999,893498468
608,13,Improv_Metronome,16,9999,9999,9999,893998140
608,13,Improv_Metronome,17,9999,9999,9999,894498936
608,13,Improv_Metronome,18,9999,9999,9999,894998584
608,13,Improv_Metronome,19,9999,9999,9999,895498352
608,13,Improv_Metronome,20,9999,9999,9999,895999072
608,13,Improv_Metronome,21,9999,9999,9999,896498744
608,13,Improv_Metronome,22,9999,9999,9999,896998516
608,13,Improv_Metronome,23,9999,9999,9999,897498212
608,13,Improv_Metronome,24,9999,9999,9999,897998952
608,13,Improv_Metronome,25,9999,9999,9999,898498632
608,13,Improv_Metronome,26,9999,9999,9999,898998324
608,13,Improv_Metronome,27,9999,9999,9999,899499060
608,13,Improv_Metronome,28,9999,9999,9999,899998820
608,13,Improv_Metronome,29,9999,9999,9999,900498512
608,13,Improv_Metronome,30,9999,9999,9999,900998256
608,13,Improv_Metronome,31,9999,9999,9999,901498948
608,13,Improv_Metronome,32,9999,9999,9999,901998696
608,13,Improv_Metronome,33,9999,9999,9999,902498428
608,13,Improv_Metronome,34,9999,9999,9999,902998132
608,13,Improv_Metronome,35,9999,9999,9999,903498824
608,13,Improv_Metronome,36,9999,9999,9999,903998556
608,13,Improv_Metronome,37,9999,9999,9999,904498280
608,13,Improv_Metronome,38,9999,9999,9999,904999020
608,13,Improv_Metronome,39,9999,9999,9999,905498692
608,13,Improv_Metronome,40,9999,9999,9999,905998404
608,13,Improv_Metronome,41,9999,9999,9999,906498100
608,13,Improv_Metronome,42,9999,9999,9999,906998844
608,13,Improv_Metronome,43,9999,9999,9999,907498592
608,13,Improv_Metronome,44,9999,9999,9999,907998296
608,13,Improv_Metronome,45,9999,9999,9999,908499040
608,13,Improv_Metronome,46,9999,9999,9999,908998756
608,13,Improv_Metronome,47,9999,9999,9999,909498436
608,13,Improv_Metronome,48,9999,9999,9999,909998188
608,13,Improv_Metronome,49,9999,9999,9999,910498928
608,13,Improv_Metronome,50,9999,9999,9999,910998628
608,13,Improv_Metronome,51,9999,9999,9999,911498300
608,13,Improv_Metronome,52,9999,9999,9999,911999092
608,13,Improv_Metronome,53,9999,9999,9999,912498788
608,13,Improv_Metronome,54,9999,9999,9999,912998508
608,13,Improv_Metronome,55,9999,9999,9999,913498188
608,13,Improv_Metronome,56,9999,9999,9999,913998928
608,13,Improv_Metronome,57,9999,9999,9999,914498616
608,13,Improv_Metronome,58,9999,9999,9999,914998340
608,13,Improv_Metronome,59,9999,9999,9999,915499068
608,13,Improv_Metronome,60,9999,9999,9999,915998788
608,13,Improv_Metronome,61,9999,9999,9999,916498536
608,13,Improv_Metronome,62,9999,9999,9999,916998236
608,13,Improv_Metronome,63,9999,9999,9999,917498980
608,13,Improv_Metronome,64,9999,9999,9999,917998700
608,13,Improv_Metronome,65,9999,9999,9999,918498372
608,13,Improv_Metronome,66,9999,9999,9999,918998068
608,13,Improv_Metronome,67,9999,9999,9999,919498816
608,13,Improv_Metronome,68,9999,9999,9999,919998564
608,13,Improv_Metronome,69,9999,9999,9999,920498236
608,13,Improv_Metronome,70,9999,9999,9999,920998976
608,13,Improv_Metronome,71,9999,9999,9999,921498676
608,13,Improv_Metronome,72,9999,9999,9999,921998424
608,13,Improv_Metronome,73,9999,9999,9999,922498164
608,13,Improv_Metronome,74,9999,9999,9999,922998900
608,13,Improv_Metronome,75,9999,9999,9999,923498572
608,13,Improv_Metronome,76,9999,9999,9999,923998328
608,13,Improv_Metronome,77,9999,9999,9999,924499044
608,13,Improv_Metronome,78,9999,9999,9999,924998740
608,13,Improv_Metronome,79,9999,9999,9999,925498436
608,13,Improv_Metronome,80,9999,9999,9999,925998204
608,13,Improv_Metronome,81,9999,9999,9999,926498916
608,13,Improv_Metronome,82,9999,9999,9999,926998620
608,13,Improv_Metronome,83,9999,9999,9999,927498312
608,13,Improv_Metronome,84,9999,9999,9999,927999028
608,13,Improv_Metronome,85,9999,9999,9999,928498780
608,13,Improv_Metronome,86,9999,9999,9999,928998476
608,13,Improv_Metronome,87,9999,9999,9999,929498172
608,13,Improv_Metronome,88,9999,9999,9999,929998908
608,13,Improv_Metronome,89,9999,9999,9999,930498612
608,13,Improv_Metronome,90,9999,9999,9999,930998380
608,13,Improv_Metronome,91,9999,9999,9999,931499116
608,13,Improv_Metronome,92,9999,9999,9999,931998816
608,13,Improv_Metronome,93,9999,9999,9999,932498508
608,13,Improv_Metronome,94,9999,9999,9999,932998204
608,13,Improv_Metronome,95,9999,9999,9999,933499000
608,13,Improv_Metronome,96,9999,9999,9999,933998696
608,13,Improv_Metronome,97,9999,9999,9999,934498388
608,13,Improv_Metronome,98,9999,9999,9999,934998076
608,13,Improv_Metronome,99,9999,9999,9999,935498872
608,13,Improv_Metronome,100,9999,9999,9999,935998572
608,13,Improv_Metronome,101,9999,9999,9999,936498248
608,13,Improv_Metronome,102,9999,9999,9999,936998972
608,13,Improv_Metronome,103,9999,9999,9999,937498716
608,13,Improv_Metronome,104,9999,9999,9999,937998424
608,13,Improv_Metronome,105,9999,9999,9999,938498120
608,13,Improv_Metronome,106,9999,9999,9999,938998860
608,13,Improv_Metronome,107,9999,9999,9999,939498588
608,13,Improv_Metronome,108,9999,9999,9999,939998312
608,13,Improv_Metronome,109,9999,9999,9999,940499056
608,13,Improv_Metronome,110,9999,9999,9999,940998748
608,13,Improv_Metronome,111,9999,9999,9999,941498476
608,13,Improv_Metronome,112,9999,9999,9999,941998164
608,13,Improv_Metronome,113,9999,9999,9999,942498904
608,13,Improv_Metronome,114,9999,9999,9999,942998584
608,13,Improv_Metronome,115,9999,9999,9999,943498288
608,13,Improv_Metronome,116,9999,9999,9999,943999072
608,13,Improv_Metronome,117,9999,9999,9999,944498768
608,13,Improv_Metronome,118,9999,9999,9999,944998516
608,13,Improv_Metronome,119,9999,9999,9999,945498164
608,13,Improv_Metronome,120,9999,9999,9999,945998964
608,13,Improv_Metronome,121,9999,9999,9999,946498660
608,13,Improv_Metronome,122,9999,9999,9999,946998348
608,13,Improv_Metronome,123,9999,9999,9999,947499128
608,13,Improv_Metronome,124,9999,9999,9999,947998820
608,13,Improv_Metronome,125,9999,9999,9999,948498516
608,13,Improv_Metronome,126,9999,9999,9999,948998192
608,13,Improv_Metronome,127,9999,9999,9999,949498988
608,13,Improv_Metronome,128,9999,9999,9999,949998680
608,13,Improv_Metronome,129,9999,9999,9999,950498368
608,13,Improv_Metronome,130,9999,9999,9999,950998092
608,13,Improv_Metronome,131,9999,9999,9999,951498816
608,13,Improv_Metronome,132,9999,9999,9999,951998512
608,13,Improv_Metronome,133,9999,9999,9999,952498276
608,13,Improv_Metronome,134,9999,9999,9999,952999028
608,13,Improv_Metronome,135,9999,9999,9999,953498724
608,13,Improv_Metronome,136,9999,9999,9999,953998416
608,13,Improv_Metronome,137,9999,9999,9999,954498140
608,13,Improv_Metronome,138,9999,9999,9999,954998892
608,13,Improv_Metronome,139,9999,9999,9999,955498588
609,14,Improv_Melody,0,2,48,80,1007764668
609,14,Improv_Melody,1,2,72,80,1007767412
609,14,Improv_Melody,2,5,42,127,1007768828
609,14,Improv_Melody,3,5,42,110,1008261740
609,14,Improv_Melody,4,5,42,110,1008762260
609,14,Improv_Melody,5,5,42,110,1009261832
609,14,Improv_Melody,6,5,42,127,1009761704
609,14,Improv_Melody,7,5,42,110,1010262476
609,14,Improv_Melody,8,5,42,110,1010762048
609,14,Improv_Melody,9,5,42,110,1011261916
609,14,Improv_Melody,10,2,43,80,1011763992
609,14,Improv_Melody,11,2,67,80,1011766220
609,14,Improv_Melody,12,5,42,127,1011768760
609,14,Improv_Melody,13,5,42,110,1012262272
609,14,Improv_Melody,14,5,42,110,1012761920
609,14,Improv_Melody,15,5,42,110,1013261792
609,14,Improv_Melody,16,5,42,127,1013762412
609,14,Improv_Melody,17,5,42,110,1014261984
609,14,Improv_Melody,18,5,42,110,1014761928
609,14,Improv_Melody,19,5,42,110,1015261504
609,14,Improv_Melody,20,2,45,80,1015764924
609,14,Improv_Melody,21,2,69,80,1015767080
609,14,Improv_Melody,22,5,42,127,1015769688
609,14,Improv_Melody,23,5,42,110,1016261932
609,14,Improv_Melody,24,5,42,110,1016761800
609,14,Improv_Melody,25,5,42,110,1017261372
609,14,Improv_Melody,26,5,42,127,1017762292
609,14,Improv_Melody,27,5,42,110,1018261792
609,14,Improv_Melody,28,5,42,110,1018761512
609,14,Improv_Melody,29,5,42,110,1019262404
609,14,Improv_Melody,30,2,41,80,1019764556
609,14,Improv_Melody,31,2,65,80,1019766704
609,14,Improv_Melody,32,5,42,127,1019769396
609,14,Improv_Melody,33,5,42,110,1020261636
609,14,Improv_Melody,34,5,42,110,1020761360
609,14,Improv_Melody,35,5,42,110,1021262348
609,14,Improv_Melody,36,5,42,127,1021762000
609,14,Improv_Melody,37,5,42,110,1022261496
609,14,Improv_Melody,38,5,42,110,1022762264
609,14,Improv_Melody,39,5,42,110,1023262208
609,14,Improv_Melody,40,2,48,80,1023764288
609,14,Improv_Melody,41,2,72,80,1023766436
609,14,Improv_Melody,42,5,42,127,1023769052
609,14,Improv_Melody,43,1,48,127,1023790868
609,14,Improv_Melody,44,5,42,110,1024261568
609,14,Improv_Melody,45,5,42,110,1024762264
609,14,Improv_Melody,46,1,48,127,1025166272
609,14,Improv_Melody,47,5,42,110,1025262260
609,14,Improv_Melody,48,1,48,74,1025466540
609,14,Improv_Melody,49,1,48,127,1025642668
609,14,Improv_Melody,50,5,42,127,1025761864
609,14,Improv_Melody,51,5,42,110,1026262340
609,14,Improv_Melody,52,5,42,110,1026762284
609,14,Improv_Melody,53,5,42,110,1027262004
609,14,Improv_Melody,54,1,48,127,1027754648
609,14,Improv_Melody,55,1,38,28,1027763620
609,14,Improv_Melody,56,2,43,80,1027766320
609,14,Improv_Melody,57,2,67,80,1027768164
609,14,Improv_Melody,58,5,42,127,1027770780
609,14,Improv_Melody,59,5,42,110,1028262228
609,14,Improv_Melody,60,5,42,110,1028762248
609,14,Improv_Melody,61,1,48,127,1029195328
609,14,Improv_Melody,62,1,38,32,1029204284
609,14,Improv_Melody,63,5,42,110,1029261644
609,14,Improv_Melody,64,1,48,127,1029525568
609,14,Improv_Melody,65,1,48,127,1029694588
609,14,Improv_Melody,66,1,38,31,1029702796
609,14,Improv_Melody,67,5,42,127,1029762472
609,14,Improv_Melody,68,5,42,110,1030262124
609,14,Improv_Melody,69,5,42,110,1030762216
609,14,Improv_Melody,70,5,42,110,1031261492
609,14,Improv_Melody,71,1,48,127,1031714120
609,14,Improv_Melody,72,2,45,80,1031764980
609,14,Improv_Melody,73,2,69,80,1031766984
609,14,Improv_Melody,74,5,42,127,1031769300
609,14,Improv_Melody,75,5,42,110,1032262124
609,14,Improv_Melody,76,5,42,110,1032761992
609,14,Improv_Melody,77,1,48,45,1033162040
609,14,Improv_Melody,78,1,38,32,1033170768
609,14,Improv_Melody,79,5,42,110,1033261376
609,14,Improv_Melody,80,1,48,52,1033492788
609,14,Improv_Melody,81,1,48,127,1033671932
609,14,Improv_Melody,82,1,38,35,1033680364
609,14,Improv_Melody,83,5,42,127,1033762228
609,14,Improv_Melody,84,5,42,110,1034262056
609,14,Improv_Melody,85,5,42,110,1034761480
609,14,Improv_Melody,86,5,42,110,1035262324
609,14,Improv_Melody,87,1,48,69,1035682488
609,14,Improv_Melody,88,1,38,36,1035691148
609,14,Improv_Melody,89,2,41,80,1035764828
609,14,Improv_Melody,90,2,65,80,1035766828
609,14,Improv_Melody,91,5,42,127,1035769216
609,14,Improv_Melody,92,5,42,110,1036262008
609,14,Improv_Melody,93,5,42,110,1036761360
609,14,Improv_Melody,94,1,48,127,1037220344
609,14,Improv_Melody,95,5,42,110,1037262120
609,14,Improv_Melody,96,1,48,58,1037573492
609,14,Improv_Melody,97,1,48,127,1037724208
609,14,Improv_Melody,98,1,38,30,1037732568
609,14,Improv_Melody,99,5,42,127,1037762152
609,14,Improv_Melody,100,5,42,110,1038261904
609,14,Improv_Melody,101,5,42,110,1038762300
609,14,Improv_Melody,102,5,42,110,1039262172
609,14,Improv_Melody,103,1,48,122,1039760796
609,14,Improv_Melody,104,2,48,80,1039765144
609,14,Improv_Melody,105,2,72,80,1039767072
609,14,Improv_Melody,106,1,38,31,1039769308
609,14,Improv_Melody,107,5,42,127,1039771844
609,14,Improv_Melody,108,5,42,110,1040261352
609,14,Improv_Melody,109,5,42,110,1040762168
609,14,Improv_Melody,110,1,48,122,1041248384
609,14,Improv_Melody,111,1,38,34,1041256516
609,14,Improv_Melody,112,5,42,110,1041262012
609,14,Improv_Melody,113,1,48,127,1041576744
609,14,Improv_Melody,114,1,48,121,1041719440
609,14,Improv_Melody,115,1,38,37,1041727724
609,14,Improv_Melody,116,5,42,127,1041761792
609,14,Improv_Melody,117,5,42,110,1042262296
609,14,Improv_Melody,118,5,42,110,1042762092
609,14,Improv_Melody,119,5,42,110,1043261740
609,14,Improv_Melody,120,2,43,80,1043763960
609,14,Improv_Melody,121,2,67,80,1043766264
609,14,Improv_Melody,122,5,42,127,1043768880
609,14,Improv_Melody,123,1,48,127,1043783068
609,14,Improv_Melody,124,1,38,36,1043791500
609,14,Improv_Melody,125,5,42,110,1044262472
609,14,Improv_Melody,126,5,42,110,1044761896
609,14,Improv_Melody,127,1,48,127,1045212504
609,14,Improv_Melody,128,5,42,110,1045261684
609,14,Improv_Melody,129,1,48,63,1045561160
609,14,Improv_Melody,130,5,42,127,1045762492
609,14,Improv_Melody,131,1,48,127,1045780648
609,14,Improv_Melody,132,1,38,32,1045788932
609,14,Improv_Melody,133,5,42,110,1046262072
609,14,Improv_Melody,134,5,42,110,1046761868
609,14,Improv_Melody,135,5,42,110,1047261664
609,14,Improv_Melody,136,1,48,127,1047747728
609,14,Improv_Melody,137,1,38,31,1047756308
609,14,Improv_Melody,138,2,45,80,1047764908
609,14,Improv_Melody,139,2,69,80,1047767140
609,14,Improv_Melody,140,5,42,127,1047769824
609,14,Improv_Melody,141,5,42,110,1048261948
609,14,Improv_Melody,142,5,42,110,1048761744
609,14,Improv_Melody,143,1,48,127,1049223048
609,14,Improv_Melody,144,1,38,32,1049231560
609,14,Improv_Melody,145,5,42,110,1049261368
609,14,Improv_Melody,146,1,48,51,1049543236
609,14,Improv_Melody,147,1,48,127,1049699696
609,14,Improv_Melody,148,1,38,33,1049707448
609,14,Improv_Melody,149,5,42,127,1049762120
609,14,Improv_Melody,150,5,42,110,1050261796
609,14,Improv_Melody,151,5,42,110,1050761668
609,14,Improv_Melody,152,5,42,110,1051262188
609,14,Improv_Melody,153,2,41,80,1051764564
609,14,Improv_Melody,154,2,65,80,1051766564
609,14,Improv_Melody,155,1,48,59,1051768280
609,14,Improv_Melody,156,5,42,127,1051770516
609,14,Improv_Melody,157,1,38,30,1051777552
609,14,Improv_Melody,158,5,42,110,1052261664
609,14,Improv_Melody,159,5,42,110,1052761608
609,14,Improv_Melody,160,1,48,127,1053256348
609,14,Improv_Melody,161,5,42,110,1053262592
609,14,Improv_Melody,162,1,48,85,1053540460
609,14,Improv_Melody,163,1,48,127,1053709804
609,14,Improv_Melody,164,5,42,127,1053761976
609,14,Improv_Melody,165,1,38,127,1054193796
609,14,Improv_Melody,166,1,38,127,1054242916
609,14,Improv_Melody,167,5,42,110,1054261728
609,14,Improv_Melody,168,1,38,80,1054404804
609,14,Improv_Melody,169,1,38,67,1054551756
609,14,Improv_Melody,170,1,38,127,1054703972
609,14,Improv_Melody,171,5,42,110,1054762652
609,14,Improv_Melody,172,1,38,127,1055031468
609,14,Improv_Melody,173,1,38,64,1055176424
609,14,Improv_Melody,174,1,48,26,1055184184
609,14,Improv_Melody,175,5,42,110,1055262012
609,14,Improv_Melody,176,1,38,127,1055477840
609,14,Improv_Melody,177,1,38,127,1055749284
609,14,Improv_Melody,178,2,48,80,1055764544
609,14,Improv_Melody,179,2,72,80,1055766696
609,14,Improv_Melody,180,5,42,127,1055769304
609,14,Improv_Melody,181,5,42,110,1056261460
609,14,Improv_Melody,182,1,48,127,1056383596
609,14,Improv_Melody,183,1,38,29,1056391968
609,14,Improv_Melody,184,5,42,110,1056762388
609,14,Improv_Melody,185,5,42,110,1057262036
609,14,Improv_Melody,186,1,48,127,1057746304
609,14,Improv_Melody,187,5,42,127,1057761528
609,14,Improv_Melody,188,1,48,127,1058041852
609,14,Improv_Melody,189,1,48,127,1058191228
609,14,Improv_Melody,190,1,38,34,1058199512
609,14,Improv_Melody,191,5,42,110,1058262604
609,14,Improv_Melody,192,5,42,110,1058761984
609,14,Improv_Melody,193,5,42,110,1059261856
609,14,Improv_Melody,194,2,43,80,1059764084
609,14,Improv_Melody,195,2,67,80,1059766232
609,14,Improv_Melody,196,5,42,127,1059768772
609,14,Improv_Melody,197,1,48,127,1060255728
609,14,Improv_Melody,198,5,42,110,1060262428
609,14,Improv_Melody,199,5,42,110,1060762136
609,14,Improv_Melody,200,5,42,110,1061261560
609,14,Improv_Melody,201,1,48,122,1061702564
609,14,Improv_Melody,202,1,38,30,1061711152
609,14,Improv_Melody,203,5,42,127,1061762448
609,14,Improv_Melody,204,1,48,65,1061989168
609,14,Improv_Melody,205,1,48,127,1062165920
609,14,Improv_Melody,206,5,42,110,1062262504
609,14,Improv_Melody,207,5,42,110,1062761704
609,14,Improv_Melody,208,5,42,110,1063261500
609,14,Improv_Melody,209,2,45,80,1063765080
609,14,Improv_Melody,210,2,69,80,1063767228
609,14,Improv_Melody,211,5,42,127,1063769764
609,14,Improv_Melody,212,5,42,110,1064262004
609,14,Improv_Melody,213,1,48,127,1064278664
609,14,Improv_Melody,214,5,42,110,1064761780
609,14,Improv_Melody,215,5,42,110,1065261428
609,14,Improv_Melody,216,1,48,127,1065707996
609,14,Improv_Melody,217,5,42,127,1065762188
609,14,Improv_Melody,218,1,48,89,1066024788
609,14,Improv_Melody,219,1,38,36,1066037636
609,14,Improv_Melody,220,1,48,127,1066168956
609,14,Improv_Melody,221,5,42,110,1066261880
609,14,Improv_Melody,222,5,42,110,1066761528
609,14,Improv_Melody,223,5,42,110,1067262296
609,14,Improv_Melody,224,2,41,80,1067764596
609,14,Improv_Melody,225,2,65,80,1067766828
609,14,Improv_Melody,226,5,42,127,1067769360
609,14,Improv_Melody,227,5,42,110,1068261604
609,14,Improv_Melody,228,1,48,127,1068278036
609,14,Improv_Melody,229,1,38,34,1068287068
609,14,Improv_Melody,230,5,42,110,1068761480
609,14,Improv_Melody,231,5,42,110,1069262172
609,14,Improv_Melody,232,1,48,127,1069721384
609,14,Improv_Melody,233,1,38,34,1069730044
609,14,Improv_Melody,234,5,42,127,1069761796
609,14,Improv_Melody,235,1,48,53,1070019956
609,14,Improv_Melody,236,1,38,33,1070033396
609,14,Improv_Melody,237,1,48,127,1070179276
609,14,Improv_Melody,238,1,38,38,1070187040
609,14,Improv_Melody,239,5,42,110,1070261600
609,14,Improv_Melody,240,5,42,110,1070762324
609,14,Improv_Melody,241,5,42,110,1071262196
609,14,Improv_Melody,242,2,48,80,1071764424
609,14,Improv_Melody,243,2,72,80,1071766576
609,14,Improv_Melody,244,5,42,127,1071769112
609,14,Improv_Melody,245,1,48,108,1072239144
609,14,Improv_Melody,246,1,38,34,1072247876
609,14,Improv_Melody,247,5,42,110,1072261476
609,14,Improv_Melody,248,1,38,127,1072751136
609,14,Improv_Melody,249,5,42,110,1072762244
609,14,Improv_Melody,250,1,38,127,1072984236
609,14,Improv_Melody,251,5,42,110,1073262080
609,14,Improv_Melody,252,1,38,75,1073269764
609,14,Improv_Melody,253,5,42,127,1073761852
609,14,Improv_Melody,254,1,38,127,1073781204
609,14,Improv_Melody,255,5,42,110,1074262304
609,14,Improv_Melody,256,1,38,127,1074302224
609,14,Improv_Melody,257,5,42,110,1074762052
609,14,Improv_Melody,258,1,48,82,1074837372
609,14,Improv_Melody,259,1,38,27,1074845808
609,14,Improv_Melody,260,1,48,118,1075052124
609,14,Improv_Melody,261,5,42,110,1075261832
609,14,Improv_Melody,262,1,38,127,1075326904
609,14,Improv_Melody,263,1,48,29,1075335192
609,14,Improv_Melody,264,2,43,80,1075764136
609,14,Improv_Melody,265,2,67,80,1075766136
609,14,Improv_Melody,266,5,42,127,1075768680
609,14,Improv_Melody,267,1,38,127,1075864120
609,14,Improv_Melody,268,5,42,110,1076262316
609,14,Improv_Melody,269,1,48,114,1076379904
609,14,Improv_Melody,270,1,38,33,1076388336
609,14,Improv_Melody,271,5,42,110,1076762044
609,14,Improv_Melody,272,1,38,127,1076873720
609,14,Improv_Melody,273,1,38,82,1077123920
609,14,Improv_Melody,274,5,42,110,1077261724
609,14,Improv_Melody,275,1,48,127,1077406604
609,14,Improv_Melody,276,1,48,57,1077451840
609,14,Improv_Melody,277,5,42,127,1077762300
609,14,Improv_Melody,278,1,38,46,1077903216
609,14,Improv_Melody,279,1,38,85,1077907760
609,14,Improv_Melody,280,1,48,26,1077912004
609,14,Improv_Melody,281,5,42,110,1078262228
609,14,Improv_Melody,282,1,48,120,1078407784
609,14,Improv_Melody,283,1,38,25,1078416292
609,14,Improv_Melody,284,5,42,110,1078761804
609,14,Improv_Melody,285,1,38,127,1078926736
609,14,Improv_Melody,286,1,38,58,1079163300
609,14,Improv_Melody,287,5,42,110,1079261408
609,14,Improv_Melody,288,1,48,127,1079444888
609,14,Improv_Melody,289,2,45,80,1079764808
609,14,Improv_Melody,290,2,69,80,1079766960
609,14,Improv_Melody,291,5,42,127,1079769572
609,14,Improv_Melody,292,1,38,94,1079982524
609,14,Improv_Melody,293,5,42,110,1080261940
609,14,Improv_Melody,294,1,38,127,1080503912
609,14,Improv_Melody,295,5,42,110,1080761644
609,14,Improv_Melody,296,1,38,103,1081031964
609,14,Improv_Melody,297,5,42,110,1081261340
609,14,Improv_Melody,298,1,38,101,1081272464
609,14,Improv_Melody,299,1,38,114,1081551912
609,14,Improv_Melody,300,5,42,127,1081762140
609,14,Improv_Melody,301,1,38,116,1082074648
609,14,Improv_Melody,302,5,42,110,1082261992
609,14,Improv_Melody,303,1,38,109,1082610176
609,14,Improv_Melody,304,5,42,110,1082761688
609,14,Improv_Melody,305,1,38,102,1083132836
609,14,Improv_Melody,306,5,42,110,1083262212
609,14,Improv_Melody,307,1,38,58,1083377980
609,14,Improv_Melody,308,1,48,23,1083386336
609,14,Improv_Melody,309,1,38,81,1083659096
609,14,Improv_Melody,310,2,41,80,1083764468
609,14,Improv_Melody,311,2,65,80,1083766624
609,14,Improv_Melody,312,5,42,127,1083769236
609,14,Improv_Melody,313,1,38,127,1084172872
609,14,Improv_Melody,314,5,42,110,1084261844
609,14,Improv_Melody,315,1,38,127,1084690600
609,14,Improv_Melody,316,5,42,110,1084761396
609,14,Improv_Melody,317,1,38,127,1085232336
609,14,Improv_Melody,318,5,42,110,1085262140
609,14,Improv_Melody,319,1,38,43,1085470968
609,14,Improv_Melody,320,5,42,127,1085761828
609,14,Improv_Melody,321,1,38,127,1085775344
609,14,Improv_Melody,322,5,42,110,1086261676
609,14,Improv_Melody,323,1,38,85,1086284464
609,14,Improv_Melody,324,5,42,110,1086762348
609,14,Improv_Melody,325,1,38,41,1086794188
609,14,Improv_Melody,326,1,38,115,1086798652
609,14,Improv_Melody,327,5,42,110,1087261948
609,14,Improv_Melody,328,1,38,127,1087311664
609,14,Improv_Melody,329,1,38,72,1087572936
609,14,Improv_Melody,330,1,48,20,1087585636
609,14,Improv_Melody,331,2,48,80,1087764228
609,14,Improv_Melody,332,2,72,80,1087766456
609,14,Improv_Melody,333,5,42,127,1087769072
609,14,Improv_Melody,334,1,38,92,1087835916
609,14,Improv_Melody,335,5,42,110,1088261440
609,14,Improv_Melody,336,1,38,60,1088285428
609,14,Improv_Melody,0,9999,9999,9999,1007759464
609,14,Improv_Melody,1,9999,9999,9999,1008259152
609,14,Improv_Melody,2,9999,9999,9999,1008759896
609,14,Improv_Melody,3,9999,9999,9999,1009259616
609,14,Improv_Melody,4,9999,9999,9999,1009759340
609,14,Improv_Melody,5,9999,9999,9999,1010260036
609,14,Improv_Melody,6,9999,9999,9999,1010759756
609,14,Improv_Melody,7,9999,9999,9999,1011259476
609,14,Improv_Melody,8,9999,9999,9999,1011759200
609,14,Improv_Melody,9,9999,9999,9999,1012259904
609,14,Improv_Melody,10,9999,9999,9999,1012759628
609,14,Improv_Melody,11,9999,9999,9999,1013259348
609,14,Improv_Melody,12,9999,9999,9999,1013760120
609,14,Improv_Melody,13,9999,9999,9999,1014259764
609,14,Improv_Melody,14,9999,9999,9999,1014759488
609,14,Improv_Melody,15,9999,9999,9999,1015259212
609,14,Improv_Melody,16,9999,9999,9999,1015759980
609,14,Improv_Melody,17,9999,9999,9999,1016259640
609,14,Improv_Melody,18,9999,9999,9999,1016759360
609,14,Improv_Melody,19,9999,9999,9999,1017259080
609,14,Improv_Melody,20,9999,9999,9999,1017759852
609,14,Improv_Melody,21,9999,9999,9999,1018259572
609,14,Improv_Melody,22,9999,9999,9999,1018759220
609,14,Improv_Melody,23,9999,9999,9999,1019259964
609,14,Improv_Melody,24,9999,9999,9999,1019759684
609,14,Improv_Melody,25,9999,9999,9999,1020259420
609,14,Improv_Melody,26,9999,9999,9999,1020759144
609,14,Improv_Melody,27,9999,9999,9999,1021259836
609,14,Improv_Melody,28,9999,9999,9999,1021759556
609,14,Improv_Melody,29,9999,9999,9999,1022259280
609,14,Improv_Melody,30,9999,9999,9999,1022760048
609,14,Improv_Melody,31,9999,9999,9999,1023259768
609,14,Improv_Melody,32,9999,9999,9999,1023759416
609,14,Improv_Melody,33,9999,9999,9999,1024259128
609,14,Improv_Melody,34,9999,9999,9999,1024759896
609,14,Improv_Melody,35,9999,9999,9999,1025259644
609,14,Improv_Melody,36,9999,9999,9999,1025759352
609,14,Improv_Melody,37,9999,9999,9999,1026260048
609,14,Improv_Melody,38,9999,9999,9999,1026759768
609,14,Improv_Melody,39,9999,9999,9999,1027259488
609,14,Improv_Melody,40,9999,9999,9999,1027759204
609,14,Improv_Melody,41,9999,9999,9999,1028259936
609,14,Improv_Melody,42,9999,9999,9999,1028759660
609,14,Improv_Melody,43,9999,9999,9999,1029259352
609,14,Improv_Melody,44,9999,9999,9999,1029760080
609,14,Improv_Melody,45,9999,9999,9999,1030259832
609,14,Improv_Melody,46,9999,9999,9999,1030759480
609,14,Improv_Melody,47,9999,9999,9999,1031259200
609,14,Improv_Melody,48,9999,9999,9999,1031759964
609,14,Improv_Melody,49,9999,9999,9999,1032259684
609,14,Improv_Melody,50,9999,9999,9999,1032759404
609,14,Improv_Melody,51,9999,9999,9999,1033259084
609,14,Improv_Melody,52,9999,9999,9999,1033759864
609,14,Improv_Melody,53,9999,9999,9999,1034259544
609,14,Improv_Melody,54,9999,9999,9999,1034759264
609,14,Improv_Melody,55,9999,9999,9999,1035259960
609,14,Improv_Melody,56,9999,9999,9999,1035759728
609,14,Improv_Melody,57,9999,9999,9999,1036259420
609,14,Improv_Melody,58,9999,9999,9999,1036759144
609,14,Improv_Melody,59,9999,9999,9999,1037259828
609,14,Improv_Melody,60,9999,9999,9999,1037759564
609,14,Improv_Melody,61,9999,9999,9999,1038259316
609,14,Improv_Melody,62,9999,9999,9999,1038760008
609,14,Improv_Melody,63,9999,9999,9999,1039259732
609,14,Improv_Melody,64,9999,9999,9999,1039759456
609,14,Improv_Melody,65,9999,9999,9999,1040259136
609,14,Improv_Melody,66,9999,9999,9999,1040759876
609,14,Improv_Melody,67,9999,9999,9999,1041259572
609,14,Improv_Melody,68,9999,9999,9999,1041759352
609,14,Improv_Melody,69,9999,9999,9999,1042260080
609,14,Improv_Melody,70,9999,9999,9999,1042759800
609,14,Improv_Melody,71,9999,9999,9999,1043259448
609,14,Improv_Melody,72,9999,9999,9999,1043759168
609,14,Improv_Melody,73,9999,9999,9999,1044259956
609,14,Improv_Melody,74,9999,9999,9999,1044759604
609,14,Improv_Melody,75,9999,9999,9999,1045259320
609,14,Improv_Melody,76,9999,9999,9999,1045760052
609,14,Improv_Melody,77,9999,9999,9999,1046259780
609,14,Improv_Melody,78,9999,9999,9999,1046759500
609,14,Improv_Melody,79,9999,9999,9999,1047259224
609,14,Improv_Melody,80,9999,9999,9999,1047759964
609,14,Improv_Melody,81,9999,9999,9999,1048259656
609,14,Improv_Melody,82,9999,9999,9999,1048759376
609,14,Improv_Melody,83,9999,9999,9999,1049259076
609,14,Improv_Melody,84,9999,9999,9999,1049759828
609,14,Improv_Melody,85,9999,9999,9999,1050259504
609,14,Improv_Melody,86,9999,9999,9999,1050759228
609,14,Improv_Melody,87,9999,9999,9999,1051259972
609,14,Improv_Melody,88,9999,9999,9999,1051759692
609,14,Improv_Melody,89,9999,9999,9999,1052259444
609,14,Improv_Melody,90,9999,9999,9999,1052759092
609,14,Improv_Melody,91,9999,9999,9999,1053259856
609,14,Improv_Melody,92,9999,9999,9999,1053759608
609,14,Improv_Melody,93,9999,9999,9999,1054259288
609,14,Improv_Melody,94,9999,9999,9999,1054759988
609,14,Improv_Melody,95,9999,9999,9999,1055259720
609,14,Improv_Melody,96,9999,9999,9999,1055759448
609,14,Improv_Melody,97,9999,9999,9999,1056259168
609,14,Improv_Melody,98,9999,9999,9999,1056759872
609,14,Improv_Melody,99,9999,9999,9999,1057259596
609,14,Improv_Melody,100,9999,9999,9999,1057759308
609,14,Improv_Melody,101,9999,9999,9999,1058260016
609,14,Improv_Melody,102,9999,9999,9999,1058759768
609,14,Improv_Melody,103,9999,9999,9999,1059259488
609,14,Improv_Melody,104,9999,9999,9999,1059759212
609,14,Improv_Melody,105,9999,9999,9999,1060259912
609,14,Improv_Melody,106,9999,9999,9999,1060759620
609,14,Improv_Melody,107,9999,9999,9999,1061259340
609,14,Improv_Melody,108,9999,9999,9999,1061760084
609,14,Improv_Melody,109,9999,9999,9999,1062259784
609,14,Improv_Melody,110,9999,9999,9999,1062759488
609,14,Improv_Melody,111,9999,9999,9999,1063259208
609,14,Improv_Melody,112,9999,9999,9999,1063759976
609,14,Improv_Melody,113,9999,9999,9999,1064259640
609,14,Improv_Melody,114,9999,9999,9999,1064759416
609,14,Improv_Melody,115,9999,9999,9999,1065259060
609,14,Improv_Melody,116,9999,9999,9999,1065759824
609,14,Improv_Melody,117,9999,9999,9999,1066259536
609,14,Improv_Melody,118,9999,9999,9999,1066759236
609,14,Improv_Melody,119,9999,9999,9999,1067260004
609,14,Improv_Melody,120,9999,9999,9999,1067759724
609,14,Improv_Melody,121,9999,9999,9999,1068259388
609,14,Improv_Melody,122,9999,9999,9999,1068759112
609,14,Improv_Melody,123,9999,9999,9999,1069259880
609,14,Improv_Melody,124,9999,9999,9999,1069759576
609,14,Improv_Melody,125,9999,9999,9999,1070259312
609,14,Improv_Melody,126,9999,9999,9999,1070760032
609,14,Improv_Melody,127,9999,9999,9999,1071259756
609,14,Improv_Melody,128,9999,9999,9999,1071759476
609,14,Improv_Melody,129,9999,9999,9999,1072259184
609,14,Improv_Melody,130,9999,9999,9999,1072759880
609,14,Improv_Melody,131,9999,9999,9999,1073259636
609,14,Improv_Melody,132,9999,9999,9999,1073759340
609,14,Improv_Melody,133,9999,9999,9999,1074260084
609,14,Improv_Melody,134,9999,9999,9999,1074759760
609,14,Improv_Melody,135,9999,9999,9999,1075259464
609,14,Improv_Melody,136,9999,9999,9999,1075759192
609,14,Improv_Melody,137,9999,9999,9999,1076259952
609,14,Improv_Melody,138,9999,9999,9999,1076759604
609,14,Improv_Melody,139,9999,9999,9999,1077259356
609,14,Improv_Melody,140,9999,9999,9999,1077760080
609,14,Improv_Melody,141,9999,9999,9999,1078259784
609,14,Improv_Melody,142,9999,9999,9999,1078759512
609,14,Improv_Melody,143,9999,9999,9999,1079259192
609,14,Improv_Melody,144,9999,9999,9999,1079759936
609,14,Improv_Melody,145,9999,9999,9999,1080259648
609,14,Improv_Melody,146,9999,9999,9999,1080759348
609,14,Improv_Melody,147,9999,9999,9999,1081259124
609,14,Improv_Melody,148,9999,9999,9999,1081759848
609,14,Improv_Melody,149,9999,9999,9999,1082259552
609,14,Improv_Melody,150,9999,9999,9999,1082759248
609,14,Improv_Melody,151,9999,9999,9999,1083259972
609,14,Improv_Melody,152,9999,9999,9999,1083759676
609,14,Improv_Melody,153,9999,9999,9999,1084259404
609,14,Improv_Melody,154,9999,9999,9999,1084759104
609,14,Improv_Melody,155,9999,9999,9999,1085259852
609,14,Improv_Melody,156,9999,9999,9999,1085759536
609,14,Improv_Melody,157,9999,9999,9999,1086259312
609,14,Improv_Melody,158,9999,9999,9999,1086760056
609,14,Improv_Melody,159,9999,9999,9999,1087259732
609,14,Improv_Melody,160,9999,9999,9999,1087759436
609,14,Improv_Melody,161,9999,9999,9999,1088259148
60