pid,taskRunCount,taskID,taskName,i,channel,pitch,velocity,microseconds
1,1,Ticks_Pract_5,0,5,42,127,72579468
761,1,Ticks_Pract_5,1,5,42,127,73080308
761,1,Ticks_Pract_5,2,5,42,127,73580020
761,1,Ticks_Pract_5,3,5,42,127,74079588
761,1,Ticks_Pract_5,4,5,42,127,74580576
761,1,Ticks_Pract_5,5,1,48,47,74585268
761,1,Ticks_Pract_5,6,1,48,26,74666028
761,1,Ticks_Pract_5,7,1,48,48,75046472
761,1,Ticks_Pract_5,8,5,42,127,75080092
761,1,Ticks_Pract_5,9,1,48,25,75107204
761,1,Ticks_Pract_5,10,5,42,127,75579772
761,1,Ticks_Pract_5,11,1,48,48,75593584
761,1,Ticks_Pract_5,12,1,48,52,76020632
761,1,Ticks_Pract_5,13,5,42,127,76079384
761,1,Ticks_Pract_5,14,5,42,127,76580356
761,1,Ticks_Pract_5,15,1,48,58,76587296
761,1,Ticks_Pract_5,16,1,48,28,76642472
761,1,Ticks_Pract_5,17,5,42,127,77079808
761,1,Ticks_Pract_5,18,1,48,52,77092948
761,1,Ticks_Pract_5,19,1,48,22,77176324
761,1,Ticks_Pract_5,20,1,48,56,77575548
761,1,Ticks_Pract_5,21,5,42,127,77579772
761,1,Ticks_Pract_5,22,1,48,23,77648028
761,1,Ticks_Pract_5,23,1,48,43,78026828
761,1,Ticks_Pract_5,24,5,42,127,78080492
761,1,Ticks_Pract_5,25,1,48,47,78561900
761,1,Ticks_Pract_5,26,5,42,127,78579964
761,1,Ticks_Pract_5,27,5,42,127,79079812
761,1,Ticks_Pract_5,28,1,48,55,79085172
761,1,Ticks_Pract_5,29,1,48,53,79570564
761,1,Ticks_Pract_5,30,5,42,127,79579352
761,1,Ticks_Pract_5,31,1,48,20,79662268
761,1,Ticks_Pract_5,32,5,42,127,80080524
761,1,Ticks_Pract_5,33,1,48,52,80087088
761,1,Ticks_Pract_5,34,1,48,24,80156104
761,1,Ticks_Pract_5,35,1,48,53,80575044
761,1,Ticks_Pract_5,36,5,42,127,80579868
761,1,Ticks_Pract_5,37,1,48,48,81061056
761,1,Ticks_Pract_5,38,5,42,127,81079640
761,1,Ticks_Pract_5,39,1,48,16,81160336
761,1,Ticks_Pract_5,40,5,42,127,81580364
761,1,Ticks_Pract_5,41,1,48,43,81586848
761,1,Ticks_Pract_5,42,1,48,46,82042096
761,1,Ticks_Pract_5,43,5,42,127,82080276
761,1,Ticks_Pract_5,44,1,38,41,82555180
761,1,Ticks_Pract_5,45,5,42,127,82579748
761,1,Ticks_Pract_5,46,1,38,53,83038420
761,1,Ticks_Pract_5,47,5,42,127,83079516
761,1,Ticks_Pract_5,48,1,38,53,83569080
761,1,Ticks_Pract_5,49,5,42,127,83580408
761,1,Ticks_Pract_5,50,1,38,30,83624496
761,1,Ticks_Pract_5,51,5,42,127,84080012
761,1,Ticks_Pract_5,52,1,38,52,84099512
761,1,Ticks_Pract_5,53,1,38,23,84172588
761,1,Ticks_Pract_5,54,1,38,52,84552340
761,1,Ticks_Pract_5,55,5,42,127,84579676
761,1,Ticks_Pract_5,56,1,38,30,84600884
761,1,Ticks_Pract_5,57,1,38,54,85069292
761,1,Ticks_Pract_5,58,5,42,127,85080620
761,1,Ticks_Pract_5,59,1,38,27,85136608
761,1,Ticks_Pract_5,60,5,42,127,85580296
761,1,Ticks_Pract_5,61,1,38,58,85603160
761,1,Ticks_Pract_5,62,1,38,20,85697912
761,1,Ticks_Pract_5,63,1,38,56,86078232
761,1,Ticks_Pract_5,64,5,42,127,86081160
761,1,Ticks_Pract_5,65,1,38,29,86149340
761,1,Ticks_Pract_5,66,1,38,54,86577980
761,1,Ticks_Pract_5,67,5,42,127,86580684
761,1,Ticks_Pract_5,68,1,38,31,86635848
761,1,Ticks_Pract_5,69,5,42,127,87080436
761,1,Ticks_Pract_5,70,1,38,56,87093200
761,1,Ticks_Pract_5,71,1,38,22,87177852
761,1,Ticks_Pract_5,72,1,38,59,87547988
761,1,Ticks_Pract_5,73,5,42,127,87580180
761,1,Ticks_Pract_5,74,1,38,30,87620456
761,1,Ticks_Pract_5,75,5,42,127,88079784
761,1,Ticks_Pract_5,76,1,38,53,88091576
761,1,Ticks_Pract_5,77,1,38,30,88158200
761,1,Ticks_Pract_5,78,5,42,127,88579456
761,1,Ticks_Pract_5,79,1,38,53,88598056
761,1,Ticks_Pract_5,80,1,38,33,88655476
761,1,Ticks_Pract_5,81,5,42,127,89080396
761,1,Ticks_Pract_5,82,1,38,53,89081436
761,1,Ticks_Pract_5,83,1,38,21,89166816
761,1,Ticks_Pract_5,84,5,42,127,89579848
761,1,Ticks_Pract_5,85,1,38,54,89610640
761,1,Ticks_Pract_5,86,1,38,27,89682948
761,1,Ticks_Pract_5,87,5,42,127,90079668
761,1,Ticks_Pract_5,88,1,38,49,90093108
761,1,Ticks_Pract_5,89,1,38,49,90543620
761,1,Ticks_Pract_5,90,5,42,127,90580256
761,1,Ticks_Pract_5,91,1,38,26,90595996
761,1,Ticks_Pract_5,92,1,38,40,90962960
761,1,Ticks_Pract_5,93,5,42,127,91080136
761,1,Ticks_Pract_5,94,1,38,50,91527580
761,1,Ticks_Pract_5,95,5,42,127,91579968
761,1,Ticks_Pract_5,96,1,38,27,91588160
761,1,Ticks_Pract_5,97,1,38,58,92067712
761,1,Ticks_Pract_5,98,5,42,127,92079492
761,1,Ticks_Pract_5,99,1,38,28,92146952
761,1,Ticks_Pract_5,100,1,38,54,92550032
761,1,Ticks_Pract_5,0,9999,9999,9999,72577108
761,1,Ticks_Pract_5,1,9999,9999,9999,73077872
761,1,Ticks_Pract_5,2,9999,9999,9999,73577588
761,1,Ticks_Pract_5,3,9999,9999,9999,74077304
761,1,Ticks_Pract_5,4,9999,9999,9999,74577992
761,1,Ticks_Pract_5,5,9999,9999,9999,75077732
761,1,Ticks_Pract_5,6,9999,9999,9999,75577412
761,1,Ticks_Pract_5,7,9999,9999,9999,76077176
761,1,Ticks_Pract_5,8,9999,9999,9999,76577848
761,1,Ticks_Pract_5,9,9999,9999,9999,77077596
761,1,Ticks_Pract_5,10,9999,9999,9999,77577336
761,1,Ticks_Pract_5,11,9999,9999,9999,78078056
761,1,Ticks_Pract_5,12,9999,9999,9999,78577752
761,1,Ticks_Pract_5,13,9999,9999,9999,79077452
761,1,Ticks_Pract_5,14,9999,9999,9999,79577140
761,1,Ticks_Pract_5,15,9999,9999,9999,80077940
761,1,Ticks_Pract_5,16,9999,9999,9999,80577656
761,1,Ticks_Pract_5,17,9999,9999,9999,81077352
761,1,Ticks_Pract_5,18,9999,9999,9999,81578080
761,1,Ticks_Pract_5,19,9999,9999,9999,82077768
761,1,Ticks_Pract_5,20,9999,9999,9999,82577464
761,1,Ticks_Pract_5,21,9999,9999,9999,83077232
761,1,Ticks_Pract_5,22,9999,9999,9999,83577972
761,1,Ticks_Pract_5,23,9999,9999,9999,84077648
761,1,Ticks_Pract_5,24,9999,9999,9999,84577392
761,1,Ticks_Pract_5,25,9999,9999,9999,85078108
761,1,Ticks_Pract_5,26,9999,9999,9999,85577788
761,1,Ticks_Pract_5,27,9999,9999,9999,86077536
761,1,Ticks_Pract_5,28,9999,9999,9999,86577208
761,1,Ticks_Pract_5,29,9999,9999,9999,87078000
761,1,Ticks_Pract_5,30,9999,9999,9999,87577668
761,1,Ticks_Pract_5,31,9999,9999,9999,88077420
761,1,Ticks_Pract_5,32,9999,9999,9999,88577096
761,1,Ticks_Pract_5,33,9999,9999,9999,89077812
761,1,Ticks_Pract_5,34,9999,9999,9999,89577560
761,1,Ticks_Pract_5,35,9999,9999,9999,90077236
761,1,Ticks_Pract_5,36,9999,9999,9999,90577968
761,1,Ticks_Pract_5,37,9999,9999,9999,91077752
761,1,Ticks_Pract_5,38,9999,9999,9999,91577460
761,1,Ticks_Pract_5,39,9999,9999,9999,92077132
762,0,Ticks_Pract_8,0,5,42,127,117548576
762,0,Ticks_Pract_8,1,5,42,127,118348188
762,0,Ticks_Pract_8,2,1,48,57,119128380
762,0,Ticks_Pract_8,3,5,42,127,119147860
762,0,Ticks_Pract_8,4,1,48,31,119184548
762,0,Ticks_Pract_8,5,1,48,61,119941924
762,0,Ticks_Pract_8,6,5,42,127,119947496
762,0,Ticks_Pract_8,7,5,42,127,120748656
762,0,Ticks_Pract_8,8,1,48,59,120765688
762,0,Ticks_Pract_8,9,1,48,54,121521044
762,0,Ticks_Pract_8,10,5,42,127,121548180
762,0,Ticks_Pract_8,11,1,48,57,122328584
762,0,Ticks_Pract_8,12,5,42,127,122347844
762,0,Ticks_Pract_8,13,5,42,127,123147584
762,0,Ticks_Pract_8,14,1,48,49,123155332
762,0,Ticks_Pract_8,15,1,48,60,123896556
762,0,Ticks_Pract_8,16,5,42,127,123948580
762,0,Ticks_Pract_8,17,5,42,127,124748020
762,0,Ticks_Pract_8,18,1,48,61,124752632
762,0,Ticks_Pract_8,19,5,42,127,125547976
762,0,Ticks_Pract_8,20,1,48,59,125561564
762,0,Ticks_Pract_8,21,5,42,127,126347564
762,0,Ticks_Pract_8,22,1,48,62,126350156
762,0,Ticks_Pract_8,23,1,48,52,127143140
762,0,Ticks_Pract_8,24,5,42,127,127148560
762,0,Ticks_Pract_8,25,1,48,63,127945064
762,0,Ticks_Pract_8,26,5,42,127,127948392
762,0,Ticks_Pract_8,27,1,48,51,128695256
762,0,Ticks_Pract_8,28,5,42,127,128747900
762,0,Ticks_Pract_8,29,1,48,57,129516480
762,0,Ticks_Pract_8,30,5,42,127,129547708
762,0,Ticks_Pract_8,31,1,48,55,130299316
762,0,Ticks_Pract_8,32,5,42,127,130348344
762,0,Ticks_Pract_8,33,1,48,51,131070400
762,0,Ticks_Pract_8,34,5,42,127,131148300
762,0,Ticks_Pract_8,35,1,48,57,131870884
762,0,Ticks_Pract_8,36,5,42,127,131947808
762,0,Ticks_Pract_8,37,1,48,58,132709440
762,0,Ticks_Pract_8,38,5,42,127,132747616
762,0,Ticks_Pract_8,39,1,48,53,133528392
762,0,Ticks_Pract_8,40,5,42,127,133548324
762,0,Ticks_Pract_8,41,1,48,56,134327080
762,0,Ticks_Pract_8,42,5,42,127,134348308
762,0,Ticks_Pract_8,43,1,48,47,135128264
762,0,Ticks_Pract_8,44,5,42,127,135147816
762,0,Ticks_Pract_8,45,1,48,61,135916024
762,0,Ticks_Pract_8,46,5,42,127,135947552
762,0,Ticks_Pract_8,47,1,48,60,136705136
762,0,Ticks_Pract_8,48,5,42,127,136748332
762,0,Ticks_Pract_8,49,1,48,60,137505464
762,0,Ticks_Pract_8,50,5,42,127,137548284
762,0,Ticks_Pract_8,51,1,48,53,138279396
762,0,Ticks_Pract_8,52,5,42,127,138348020
762,0,Ticks_Pract_8,53,1,48,51,139119676
762,0,Ticks_Pract_8,54,5,42,127,139147608
762,0,Ticks_Pract_8,55,1,48,61,139946424
762,0,Ticks_Pract_8,56,5,42,127,139948312
762,0,Ticks_Pract_8,57,1,48,58,140732976
762,0,Ticks_Pract_8,58,5,42,127,140748220
762,0,Ticks_Pract_8,59,1,48,57,141497180
762,0,Ticks_Pract_8,0,9999,9999,9999,117546060
762,0,Ticks_Pract_8,1,9999,9999,9999,118345820
762,0,Ticks_Pract_8,2,9999,9999,9999,119145568
762,0,Ticks_Pract_8,3,9999,9999,9999,119945280
762,0,Ticks_Pract_8,4,9999,9999,9999,120746064
762,0,Ticks_Pract_8,5,9999,9999,9999,121545816
762,0,Ticks_Pract_8,6,9999,9999,9999,122345548
762,0,Ticks_Pract_8,7,9999,9999,9999,123145292
762,0,Ticks_Pract_8,8,9999,9999,9999,123946064
762,0,Ticks_Pract_8,9,9999,9999,9999,124745804
762,0,Ticks_Pract_8,10,9999,9999,9999,125545536
762,0,Ticks_Pract_8,11,9999,9999,9999,126345272
762,0,Ticks_Pract_8,12,9999,9999,9999,127146044
762,0,Ticks_Pract_8,13,9999,9999,9999,127945800
762,0,Ticks_Pract_8,14,9999,9999,9999,128745536
762,0,Ticks_Pract_8,15,9999,9999,9999,129545268
762,0,Ticks_Pract_8,16,9999,9999,9999,130346052
762,0,Ticks_Pract_8,17,9999,9999,9999,131145784
762,0,Ticks_Pract_8,18,9999,9999,9999,131945592
762,0,Ticks_Pract_8,19,9999,9999,9999,132745324
762,0,Ticks_Pract_8,20,9999,9999,9999,133546032
762,0,Ticks_Pract_8,21,9999,9999,9999,134345792
762,0,Ticks_Pract_8,22,9999,9999,9999,135145524
762,0,Ticks_Pract_8,23,9999,9999,9999,135945332
762,0,Ticks_Pract_8,24,9999,9999,9999,136746040
762,0,Ticks_Pract_8,25,9999,9999,9999,137545844
762,0,Ticks_Pract_8,26,9999,9999,9999,138345580
762,0,Ticks_Pract_8,27,9999,9999,9999,139145316
762,0,Ticks_Pract_8,28,9999,9999,9999,139946052
762,0,Ticks_Pract_8,29,9999,9999,9999,140745780
763,4,T1_SMS_5,0,1,48,23,213424576
763,4,T1_SMS_5,1,5,42,127,213926264
763,4,T1_SMS_5,2,5,42,127,214425984
763,4,T1_SMS_5,3,5,42,127,214925848
763,4,T1_SMS_5,4,1,48,52,215398224
763,4,T1_SMS_5,5,5,42,127,215426384
763,4,T1_SMS_5,6,1,48,56,215882888
763,4,T1_SMS_5,7,5,42,127,215926004
763,4,T1_SMS_5,8,1,48,51,216383928
763,4,T1_SMS_5,9,5,42,127,216425996
763,4,T1_SMS_5,10,1,48,50,216891480
763,4,T1_SMS_5,11,5,42,127,216925840
763,4,T1_SMS_5,12,1,48,51,217381972
763,4,T1_SMS_5,13,5,42,127,217426208
763,4,T1_SMS_5,14,1,48,54,217886672
763,4,T1_SMS_5,15,5,42,127,217925980
763,4,T1_SMS_5,16,1,48,57,218373880
763,4,T1_SMS_5,17,5,42,127,218425824
763,4,T1_SMS_5,18,1,48,54,218868488
763,4,T1_SMS_5,19,5,42,127,218925664
763,4,T1_SMS_5,20,1,48,60,219391076
763,4,T1_SMS_5,21,5,42,127,219426112
763,4,T1_SMS_5,22,1,48,49,219894808
763,4,T1_SMS_5,23,5,42,127,219925880
763,4,T1_SMS_5,24,1,48,54,220393376
763,4,T1_SMS_5,25,5,42,127,220425796
763,4,T1_SMS_5,26,1,48,57,220871232
763,4,T1_SMS_5,27,5,42,127,220926464
763,4,T1_SMS_5,28,1,48,51,221371428
763,4,T1_SMS_5,29,5,42,127,221426084
763,4,T1_SMS_5,30,1,48,51,221895004
763,4,T1_SMS_5,31,5,42,127,221925780
763,4,T1_SMS_5,32,1,48,56,222388840
763,4,T1_SMS_5,33,5,42,127,222425624
763,4,T1_SMS_5,34,1,48,51,222872524
763,4,T1_SMS_5,35,5,42,127,222926140
763,4,T1_SMS_5,36,1,48,53,223381800
763,4,T1_SMS_5,37,5,42,127,223425984
763,4,T1_SMS_5,38,1,48,64,223874164
763,4,T1_SMS_5,39,5,42,127,223925728
763,4,T1_SMS_5,40,1,48,52,224390540
763,4,T1_SMS_5,41,5,42,127,224426544
763,4,T1_SMS_5,42,1,48,48,224905716
763,4,T1_SMS_5,43,5,42,127,224925944
763,4,T1_SMS_5,44,1,48,57,225372276
763,4,T1_SMS_5,45,5,42,127,225425936
763,4,T1_SMS_5,46,1,48,51,225886780
763,4,T1_SMS_5,47,5,42,127,225925632
763,4,T1_SMS_5,48,1,48,56,226400760
763,4,T1_SMS_5,49,5,42,127,226426376
763,4,T1_SMS_5,50,1,48,52,226894544
763,4,T1_SMS_5,51,5,42,127,226925920
763,4,T1_SMS_5,52,1,48,55,227423504
763,4,T1_SMS_5,53,5,42,127,227425544
763,4,T1_SMS_5,54,5,42,127,227926444
763,4,T1_SMS_5,55,1,48,52,227948564
763,4,T1_SMS_5,56,5,42,127,228425984
763,4,T1_SMS_5,57,1,48,50,228429032
763,4,T1_SMS_5,58,1,48,51,228916292
763,4,T1_SMS_5,59,5,42,127,228925748
763,4,T1_SMS_5,60,1,48,46,229417108
763,4,T1_SMS_5,61,5,42,127,229425516
763,4,T1_SMS_5,62,1,48,51,229925588
763,4,T1_SMS_5,63,5,42,127,229926932
763,4,T1_SMS_5,64,1,48,53,230423004
763,4,T1_SMS_5,65,5,42,127,230426100
763,4,T1_SMS_5,66,5,42,127,230925656
763,4,T1_SMS_5,67,1,48,61,230933112
763,4,T1_SMS_5,68,1,48,57,231410128
763,4,T1_SMS_5,69,5,42,127,231426468
763,4,T1_SMS_5,70,5,42,127,231926088
763,4,T1_SMS_5,71,1,48,59,231952996
763,4,T1_SMS_5,72,5,42,127,232425860
763,4,T1_SMS_5,73,1,48,49,232433244
763,4,T1_SMS_5,74,1,48,49,232918932
763,4,T1_SMS_5,75,5,42,127,232925552
763,4,T1_SMS_5,76,1,48,54,233419376
763,4,T1_SMS_5,77,5,42,127,233426364
763,4,T1_SMS_5,78,1,48,21,233502176
763,4,T1_SMS_5,79,1,48,56,233917080
763,4,T1_SMS_5,80,5,42,127,233925892
763,4,T1_SMS_5,81,5,42,127,234425716
763,4,T1_SMS_5,82,1,48,62,234457956
763,4,T1_SMS_5,83,5,42,127,234925408
763,4,T1_SMS_5,84,1,48,49,234926452
763,4,T1_SMS_5,85,1,48,46,235401728
763,4,T1_SMS_5,86,5,42,127,235426292
763,4,T1_SMS_5,87,1,48,53,235925016
763,4,T1_SMS_5,88,5,42,127,235926432
763,4,T1_SMS_5,89,1,48,59,236411964
763,4,T1_SMS_5,90,5,42,127,236425684
763,4,T1_SMS_5,91,1,48,60,236898496
763,4,T1_SMS_5,92,5,42,127,236926576
763,4,T1_SMS_5,93,1,48,55,237403352
763,4,T1_SMS_5,94,5,42,127,237426192
763,4,T1_SMS_5,95,1,48,52,237898480
763,4,T1_SMS_5,96,5,42,127,237925668
763,4,T1_SMS_5,97,1,48,50,238381572
763,4,T1_SMS_5,98,5,42,127,238425584
763,4,T1_SMS_5,99,1,48,49,238876624
763,4,T1_SMS_5,100,5,42,127,238926400
763,4,T1_SMS_5,101,1,48,54,239393528
763,4,T1_SMS_5,102,5,42,127,239426024
763,4,T1_SMS_5,103,1,48,55,239884772
763,4,T1_SMS_5,104,5,42,127,239925644
763,4,T1_SMS_5,105,1,48,48,240376236
763,4,T1_SMS_5,106,5,42,127,240426384
763,4,T1_SMS_5,107,1,48,55,240883940
763,4,T1_SMS_5,108,5,42,127,240926228
763,4,T1_SMS_5,109,1,48,58,241374952
763,4,T1_SMS_5,110,5,42,127,241425700
763,4,T1_SMS_5,111,1,48,50,241888936
763,4,T1_SMS_5,112,5,42,127,241925472
763,4,T1_SMS_5,113,5,42,127,242426368
763,4,T1_SMS_5,114,1,48,49,242428088
763,4,T1_SMS_5,115,1,48,51,242913684
763,4,T1_SMS_5,116,5,42,127,242926280
763,4,T1_SMS_5,117,1,48,58,243395948
763,4,T1_SMS_5,118,5,42,127,243425752
763,4,T1_SMS_5,119,1,48,54,243902900
763,4,T1_SMS_5,120,5,42,127,243926424
763,4,T1_SMS_5,121,5,42,127,244426344
763,4,T1_SMS_5,122,1,48,55,244429616
763,4,T1_SMS_5,123,1,48,50,244920372
763,4,T1_SMS_5,124,5,42,127,244925712
763,4,T1_SMS_5,125,1,48,45,245422232
763,4,T1_SMS_5,126,5,42,127,245425404
763,4,T1_SMS_5,127,1,48,51,245877272
763,4,T1_SMS_5,128,5,42,127,245926368
763,4,T1_SMS_5,129,1,48,50,246396040
763,4,T1_SMS_5,130,5,42,127,246426360
763,4,T1_SMS_5,131,1,48,54,246882496
763,4,T1_SMS_5,132,5,42,127,246925608
763,4,T1_SMS_5,133,1,48,53,247382488
763,4,T1_SMS_5,134,5,42,127,247426356
763,4,T1_SMS_5,135,1,48,56,247878892
763,4,T1_SMS_5,136,5,42,127,247926268
763,4,T1_SMS_5,137,1,48,56,248373872
763,4,T1_SMS_5,138,5,42,127,248426112
763,4,T1_SMS_5,139,1,48,53,248896156
763,4,T1_SMS_5,140,5,42,127,248925584
763,4,T1_SMS_5,141,1,48,53,249400492
763,4,T1_SMS_5,142,5,42,127,249426252
763,4,T1_SMS_5,143,1,48,50,249870492
763,4,T1_SMS_5,144,5,42,127,249926244
763,4,T1_SMS_5,145,1,48,48,250384920
763,4,T1_SMS_5,146,5,42,127,250425792
763,4,T1_SMS_5,147,1,48,51,250863076
763,4,T1_SMS_5,148,5,42,127,250925340
763,4,T1_SMS_5,149,1,48,57,251354764
763,4,T1_SMS_5,150,5,42,127,251426156
763,4,T1_SMS_5,151,1,48,57,251838056
763,4,T1_SMS_5,152,5,42,127,251926048
763,4,T1_SMS_5,153,1,48,53,252339744
763,4,T1_SMS_5,154,5,42,127,252425596
763,4,T1_SMS_5,155,1,48,50,252849088
763,4,T1_SMS_5,156,5,42,127,252926188
763,4,T1_SMS_5,157,1,48,56,253384632
763,4,T1_SMS_5,158,5,42,127,253425956
763,4,T1_SMS_5,159,1,48,49,253851168
763,4,T1_SMS_5,160,5,42,127,253925872
763,4,T1_SMS_5,161,1,48,50,254379064
763,4,T1_SMS_5,162,5,42,127,254425420
763,4,T1_SMS_5,163,1,48,54,254875840
763,4,T1_SMS_5,164,5,42,127,254926232
763,4,T1_SMS_5,165,1,48,52,255383160
763,4,T1_SMS_5,166,5,42,127,255426004
763,4,T1_SMS_5,167,1,48,58,255873064
763,4,T1_SMS_5,168,5,42,127,255925748
763,4,T1_SMS_5,169,1,48,49,256382256
763,4,T1_SMS_5,170,5,42,127,256426340
763,4,T1_SMS_5,171,1,48,55,256891448
763,4,T1_SMS_5,172,5,42,127,256926036
763,4,T1_SMS_5,173,1,48,57,257386128
763,4,T1_SMS_5,174,5,42,127,257425880
763,4,T1_SMS_5,175,1,48,53,257896524
763,4,T1_SMS_5,176,5,42,127,257925428
763,4,T1_SMS_5,177,1,48,55,258392700
763,4,T1_SMS_5,178,5,42,127,258426168
763,4,T1_SMS_5,179,1,48,54,258878860
763,4,T1_SMS_5,180,5,42,127,258926012
763,4,T1_SMS_5,181,1,48,57,259397852
763,4,T1_SMS_5,182,5,42,127,259425636
763,4,T1_SMS_5,183,1,48,53,259921036
763,4,T1_SMS_5,184,5,42,127,259926528
763,4,T1_SMS_5,185,1,48,51,260416312
763,4,T1_SMS_5,186,5,42,127,260426144
763,4,T1_SMS_5,187,1,48,53,260914960
763,4,T1_SMS_5,188,5,42,127,260925916
763,4,T1_SMS_5,189,1,48,52,261416896
763,4,T1_SMS_5,190,5,42,127,261425460
763,4,T1_SMS_5,191,5,42,127,261926208
763,4,T1_SMS_5,192,1,48,54,261930452
763,4,T1_SMS_5,193,5,42,127,262425904
763,4,T1_SMS_5,194,1,48,49,262438600
763,4,T1_SMS_5,195,5,42,127,262925672
763,4,T1_SMS_5,196,1,48,50,262946296
763,4,T1_SMS_5,197,5,42,127,263426272
763,4,T1_SMS_5,198,1,48,51,263441580
763,4,T1_SMS_5,199,5,42,127,263926036
763,4,T1_SMS_5,200,1,48,59,263931104
763,4,T1_SMS_5,201,1,48,57,264414620
763,4,T1_SMS_5,202,5,42,127,264425800
763,4,T1_SMS_5,203,1,48,19,264537664
763,4,T1_SMS_5,204,1,48,53,264925632
763,4,T1_SMS_5,205,5,42,127,264926972
763,4,T1_SMS_5,206,1,48,54,265416680
763,4,T1_SMS_5,207,5,42,127,265426216
763,4,T1_SMS_5,208,1,48,58,265920572
763,4,T1_SMS_5,209,5,42,127,265925988
763,4,T1_SMS_5,210,1,48,54,266416504
763,4,T1_SMS_5,211,5,42,127,266425884
763,4,T1_SMS_5,212,5,42,127,266925360
763,4,T1_SMS_5,213,1,48,58,266926924
763,4,T1_SMS_5,214,5,42,127,267426028
763,4,T1_SMS_5,215,1,48,54,267432440
763,4,T1_SMS_5,216,5,42,127,267925796
763,4,T1_SMS_5,217,1,48,50,267929512
763,4,T1_SMS_5,218,5,42,127,268425712
763,4,T1_SMS_5,219,1,48,53,268426684
763,4,T1_SMS_5,220,1,48,48,268924488
763,4,T1_SMS_5,221,5,42,127,268926224
763,4,T1_SMS_5,222,1,48,51,269424184
763,4,T1_SMS_5,223,5,42,127,269425996
763,4,T1_SMS_5,224,1,48,57,269916536
763,4,T1_SMS_5,225,5,42,127,269925764
763,4,T1_SMS_5,226,5,42,127,270425616
763,4,T1_SMS_5,227,1,48,53,270426956
763,4,T1_SMS_5,228,1,48,48,270873732
763,4,T1_SMS_5,229,5,42,127,270926196
763,4,T1_SMS_5,230,5,42,127,271425824
763,4,T1_SMS_5,231,1,48,50,271429020
763,4,T1_SMS_5,232,1,48,53,271900272
763,4,T1_SMS_5,233,5,42,127,271925736
763,4,T1_SMS_5,234,1,48,56,272398624
763,4,T1_SMS_5,235,5,42,127,272426328
763,4,T1_SMS_5,236,1,48,53,272884700
763,4,T1_SMS_5,237,5,42,127,272926024
763,4,T1_SMS_5,238,1,48,55,273397488
763,4,T1_SMS_5,239,5,42,127,273425644
763,4,T1_SMS_5,240,1,48,62,273906080
763,4,T1_SMS_5,241,5,42,127,273925564
763,4,T1_SMS_5,242,1,48,60,274400620
763,4,T1_SMS_5,243,5,42,127,274426156
763,4,T1_SMS_5,244,5,42,127,274925856
763,4,T1_SMS_5,245,1,48,56,274930472
763,4,T1_SMS_5,246,1,48,57,275419456
763,4,T1_SMS_5,247,5,42,127,275425620
763,4,T1_SMS_5,248,1,48,55,275918696
763,4,T1_SMS_5,249,5,42,127,275926588
763,4,T1_SMS_5,250,1,48,55,276424392
763,4,T1_SMS_5,251,5,42,127,276426056
763,4,T1_SMS_5,252,1,48,57,276918064
763,4,T1_SMS_5,253,5,42,127,276925752
763,4,T1_SMS_5,254,1,48,58,277425648
763,4,T1_SMS_5,255,5,42,127,277426916
763,4,T1_SMS_5,256,1,48,54,277925184
763,4,T1_SMS_5,257,5,42,127,277926832
763,4,T1_SMS_5,258,1,48,57,278425488
763,4,T1_SMS_5,259,5,42,127,278426984
763,4,T1_SMS_5,0,9999,9999,9999,213923904
763,4,T1_SMS_5,1,9999,9999,9999,214423620
763,4,T1_SMS_5,2,9999,9999,9999,214923336
763,4,T1_SMS_5,3,9999,9999,9999,215424096
763,4,T1_SMS_5,4,9999,9999,9999,215923792
763,4,T1_SMS_5,5,9999,9999,9999,216423488
763,4,T1_SMS_5,6,9999,9999,9999,216923256
763,4,T1_SMS_5,7,9999,9999,9999,217423924
763,4,T1_SMS_5,8,9999,9999,9999,217923692
763,4,T1_SMS_5,9,9999,9999,9999,218423388
763,4,T1_SMS_5,10,9999,9999,9999,218923080
763,4,T1_SMS_5,11,9999,9999,9999,219423824
763,4,T1_SMS_5,12,9999,9999,9999,219923520
763,4,T1_SMS_5,13,9999,9999,9999,220423288
763,4,T1_SMS_5,14,9999,9999,9999,220923956
763,4,T1_SMS_5,15,9999,9999,9999,221423724
763,4,T1_SMS_5,16,9999,9999,9999,221923420
763,4,T1_SMS_5,17,9999,9999,9999,222423116
763,4,T1_SMS_5,18,9999,9999,9999,222923856
763,4,T1_SMS_5,19,9999,9999,9999,223423552
763,4,T1_SMS_5,20,9999,9999,9999,223923296
763,4,T1_SMS_5,21,9999,9999,9999,224424036
763,4,T1_SMS_5,22,9999,9999,9999,224923732
763,4,T1_SMS_5,23,9999,9999,9999,225423428
763,4,T1_SMS_5,24,9999,9999,9999,225923120
763,4,T1_SMS_5,25,9999,9999,9999,226423864
763,4,T1_SMS_5,26,9999,9999,9999,226923636
763,4,T1_SMS_5,27,9999,9999,9999,227423292
763,4,T1_SMS_5,28,9999,9999,9999,227924080
763,4,T1_SMS_5,29,9999,9999,9999,228423772
763,4,T1_SMS_5,30,9999,9999,9999,228923460
763,4,T1_SMS_5,31,9999,9999,9999,229423156
763,4,T1_SMS_5,32,9999,9999,9999,229923904
763,4,T1_SMS_5,33,9999,9999,9999,230423668
763,4,T1_SMS_5,34,9999,9999,9999,230923368
763,4,T1_SMS_5,35,9999,9999,9999,231424104
763,4,T1_SMS_5,36,9999,9999,9999,231923804
763,4,T1_SMS_5,37,9999,9999,9999,232423500
763,4,T1_SMS_5,38,9999,9999,9999,232923188
763,4,T1_SMS_5,39,9999,9999,9999,233423932
763,4,T1_SMS_5,40,9999,9999,9999,233923680
763,4,T1_SMS_5,41,9999,9999,9999,234423356
763,4,T1_SMS_5,42,9999,9999,9999,234923124
763,4,T1_SMS_5,43,9999,9999,9999,235423860
763,4,T1_SMS_5,44,9999,9999,9999,235923560
763,4,T1_SMS_5,45,9999,9999,9999,236423248
763,4,T1_SMS_5,46,9999,9999,9999,236923988
763,4,T1_SMS_5,47,9999,9999,9999,237423684
763,4,T1_SMS_5,48,9999,9999,9999,237923380
763,4,T1_SMS_5,49,9999,9999,9999,238423152
763,4,T1_SMS_5,50,9999,9999,9999,238923892
763,4,T1_SMS_5,51,9999,9999,9999,239423588
763,4,T1_SMS_5,52,9999,9999,9999,239923284
763,4,T1_SMS_5,53,9999,9999,9999,240424024
763,4,T1_SMS_5,54,9999,9999,9999,240923720
763,4,T1_SMS_5,55,9999,9999,9999,241423412
763,4,T1_SMS_5,56,9999,9999,9999,241923184
763,4,T1_SMS_5,57,9999,9999,9999,242423860
763,4,T1_SMS_5,58,9999,9999,9999,242923620
763,4,T1_SMS_5,59,9999,9999,9999,243423316
763,4,T1_SMS_5,60,9999,9999,9999,243924060
763,4,T1_SMS_5,61,9999,9999,9999,244423760
763,4,T1_SMS_5,62,9999,9999,9999,244923500
763,4,T1_SMS_5,63,9999,9999,9999,245423192
763,4,T1_SMS_5,64,9999,9999,9999,245923936
763,4,T1_SMS_5,65,9999,9999,9999,246423628
763,4,T1_SMS_5,66,9999,9999,9999,246923324
763,4,T1_SMS_5,67,9999,9999,9999,247424064
763,4,T1_SMS_5,68,9999,9999,9999,247923832
763,4,T1_SMS_5,69,9999,9999,9999,248423528
763,4,T1_SMS_5,70,9999,9999,9999,248923224
763,4,T1_SMS_5,71,9999,9999,9999,249423964
763,4,T1_SMS_5,72,9999,9999,9999,249923664
763,4,T1_SMS_5,73,9999,9999,9999,250423356
763,4,T1_SMS_5,74,9999,9999,9999,250923128
763,4,T1_SMS_5,75,9999,9999,9999,251423796
763,4,T1_SMS_5,76,9999,9999,9999,251923540
763,4,T1_SMS_5,77,9999,9999,9999,252423232
763,4,T1_SMS_5,78,9999,9999,9999,252923976
763,4,T1_SMS_5,79,9999,9999,9999,253423668
763,4,T1_SMS_5,80,9999,9999,9999,253923440
763,4,T1_SMS_5,81,9999,9999,9999,254423132
763,4,T1_SMS_5,82,9999,9999,9999,254923872
763,4,T1_SMS_5,83,9999,9999,9999,255423568
763,4,T1_SMS_5,84,9999,9999,9999,255923316
763,4,T1_SMS_5,85,9999,9999,9999,256424056
763,4,T1_SMS_5,86,9999,9999,9999,256923752
763,4,T1_SMS_5,87,9999,9999,9999,257423444
763,4,T1_SMS_5,88,9999,9999,9999,257923140
763,4,T1_SMS_5,89,9999,9999,9999,258423880
763,4,T1_SMS_5,90,9999,9999,9999,258923576
763,4,T1_SMS_5,91,9999,9999,9999,259423348
763,4,T1_SMS_5,92,9999,9999,9999,259924088
763,4,T1_SMS_5,93,9999,9999,9999,260423784
763,4,T1_SMS_5,94,9999,9999,9999,260923480
763,4,T1_SMS_5,95,9999,9999,9999,261423176
763,4,T1_SMS_5,96,9999,9999,9999,261923924
763,4,T1_SMS_5,97,9999,9999,9999,262423620
763,4,T1_SMS_5,98,9999,9999,9999,262923312
763,4,T1_SMS_5,99,9999,9999,9999,263424056
763,4,T1_SMS_5,100,9999,9999,9999,263923824
763,4,T1_SMS_5,101,9999,9999,9999,264423512
763,4,T1_SMS_5,102,9999,9999,9999,264923196
763,4,T1_SMS_5,103,9999,9999,9999,265423932
763,4,T1_SMS_5,104,9999,9999,9999,265923700
763,4,T1_SMS_5,105,9999,9999,9999,266423372
763,4,T1_SMS_5,106,9999,9999,9999,266923072
763,4,T1_SMS_5,107,9999,9999,9999,267423816
763,4,T1_SMS_5,108,9999,9999,9999,267923508
763,4,T1_SMS_5,109,9999,9999,9999,268423280
763,4,T1_SMS_5,110,9999,9999,9999,268923964
763,4,T1_SMS_5,111,9999,9999,9999,269423732
763,4,T1_SMS_5,112,9999,9999,9999,269923404
763,4,T1_SMS_5,113,9999,9999,9999,270423108
763,4,T1_SMS_5,114,9999,9999,9999,270923836
763,4,T1_SMS_5,115,9999,9999,9999,271423536
763,4,T1_SMS_5,116,9999,9999,9999,271923300
763,4,T1_SMS_5,117,9999,9999,9999,272424040
763,4,T1_SMS_5,118,9999,9999,9999,272923740
763,4,T1_SMS_5,119,9999,9999,9999,273423432
763,4,T1_SMS_5,120,9999,9999,9999,273923128
763,4,T1_SMS_5,121,9999,9999,9999,274423868
763,4,T1_SMS_5,122,9999,9999,9999,274923572
763,4,T1_SMS_5,123,9999,9999,9999,275423332
763,4,T1_SMS_5,124,9999,9999,9999,275924072
763,4,T1_SMS_5,125,9999,9999,9999,276423792
763,4,T1_SMS_5,126,9999,9999,9999,276923440
763,4,T1_SMS_5,127,9999,9999,9999,277423216
763,4,T1_SMS_5,128,9999,9999,9999,277923956
763,4,T1_SMS_5,129,9999,9999,9999,278423652
764,2,T1_SMS_8,0,5,42,127,334661944
764,2,T1_SMS_8,1,1,48,46,335158408
764,2,T1_SMS_8,2,5,42,127,335461676
764,2,T1_SMS_8,3,1,48,50,335989180
764,2,T1_SMS_8,4,5,42,127,336261484
764,2,T1_SMS_8,5,1,48,49,336848252
764,2,T1_SMS_8,6,5,42,127,337062340
764,2,T1_SMS_8,7,1,48,50,337569800
764,2,T1_SMS_8,8,5,42,127,337861948
764,2,T1_SMS_8,9,1,48,54,337991176
764,2,T1_SMS_8,10,1,48,33,338445896
764,2,T1_SMS_8,11,5,42,127,338661884
764,2,T1_SMS_8,12,5,42,127,339461416
764,2,T1_SMS_8,13,1,48,45,339515844
764,2,T1_SMS_8,14,1,48,65,340253476
764,2,T1_SMS_8,15,5,42,127,340262484
764,2,T1_SMS_8,16,1,48,63,340997192
764,2,T1_SMS_8,17,5,42,127,341061920
764,2,T1_SMS_8,18,1,48,61,341821828
764,2,T1_SMS_8,19,5,42,127,341861652
764,2,T1_SMS_8,20,1,48,58,342611316
764,2,T1_SMS_8,21,5,42,127,342661464
764,2,T1_SMS_8,22,1,48,55,343390924
764,2,T1_SMS_8,23,5,42,127,343462540
764,2,T1_SMS_8,24,1,48,60,344226784
764,2,T1_SMS_8,25,5,42,127,344261852
764,2,T1_SMS_8,26,1,48,64,345034848
764,2,T1_SMS_8,27,5,42,127,345061808
764,2,T1_SMS_8,28,1,48,62,345808400
764,2,T1_SMS_8,29,5,42,127,345861616
764,2,T1_SMS_8,30,1,48,58,346609108
764,2,T1_SMS_8,31,5,42,127,346662468
764,2,T1_SMS_8,32,1,48,50,347437416
764,2,T1_SMS_8,33,5,42,127,347461980
764,2,T1_SMS_8,34,1,48,59,348199152
764,2,T1_SMS_8,35,5,42,127,348261712
764,2,T1_SMS_8,36,1,48,52,349040320
764,2,T1_SMS_8,37,5,42,127,349061448
764,2,T1_SMS_8,38,1,48,53,349782532
764,2,T1_SMS_8,39,5,42,127,349862228
764,2,T1_SMS_8,40,1,48,57,350625100
764,2,T1_SMS_8,41,5,42,127,350662404
764,2,T1_SMS_8,42,1,48,45,351431892
764,2,T1_SMS_8,43,5,42,127,351461692
764,2,T1_SMS_8,44,1,48,52,352221304
764,2,T1_SMS_8,45,5,42,127,352261428
764,2,T1_SMS_8,46,1,48,55,353029936
764,2,T1_SMS_8,47,5,42,127,353062356
764,2,T1_SMS_8,48,1,48,44,353794736
764,2,T1_SMS_8,49,5,42,127,353862240
764,2,T1_SMS_8,50,1,48,55,354604124
764,2,T1_SMS_8,51,5,42,127,354661748
764,2,T1_SMS_8,52,1,48,48,355408640
764,2,T1_SMS_8,53,5,42,127,355461408
764,2,T1_SMS_8,54,1,48,64,356205080
764,2,T1_SMS_8,55,5,42,127,356262112
764,2,T1_SMS_8,56,1,48,52,356982004
764,2,T1_SMS_8,57,5,42,127,357061948
764,2,T1_SMS_8,58,5,42,127,357861684
764,2,T1_SMS_8,59,1,48,48,357866296
764,2,T1_SMS_8,60,1,48,47,358659752
764,2,T1_SMS_8,61,5,42,127,358661412
764,2,T1_SMS_8,62,1,48,54,359453556
764,2,T1_SMS_8,63,5,42,127,359462196
764,2,T1_SMS_8,64,5,42,127,360261932
764,2,T1_SMS_8,65,1,48,49,360275672
764,2,T1_SMS_8,66,5,42,127,361061744
764,2,T1_SMS_8,67,1,48,43,361080124
764,2,T1_SMS_8,68,5,42,127,361861476
764,2,T1_SMS_8,69,1,48,45,361868488
764,2,T1_SMS_8,70,5,42,127,362662108
764,2,T1_SMS_8,71,1,48,68,362679364
764,2,T1_SMS_8,72,5,42,127,363462012
764,2,T1_SMS_8,73,1,48,48,363506048
764,2,T1_SMS_8,74,1,48,56,364247496
764,2,T1_SMS_8,75,5,42,127,364261816
764,2,T1_SMS_8,76,1,48,56,365030852
764,2,T1_SMS_8,77,5,42,127,365061552
764,2,T1_SMS_8,78,1,48,54,365845168
764,2,T1_SMS_8,79,5,42,127,365862108
764,2,T1_SMS_8,80,1,48,51,366617008
764,2,T1_SMS_8,81,5,42,127,366662064
764,2,T1_SMS_8,82,1,48,54,367426308
764,2,T1_SMS_8,83,5,42,127,367461948
764,2,T1_SMS_8,84,1,48,57,368245940
764,2,T1_SMS_8,85,5,42,127,368261384
764,2,T1_SMS_8,86,1,48,54,369022788
764,2,T1_SMS_8,87,5,42,127,369062164
764,2,T1_SMS_8,88,1,48,53,369841968
764,2,T1_SMS_8,89,5,42,127,369861996
764,2,T1_SMS_8,90,1,48,57,370651604
764,2,T1_SMS_8,91,5,42,127,370661880
764,2,T1_SMS_8,92,1,48,56,371447448
764,2,T1_SMS_8,93,5,42,127,371461392
764,2,T1_SMS_8,94,1,48,56,372244408
764,2,T1_SMS_8,95,5,42,127,372262100
764,2,T1_SMS_8,96,1,48,53,373033896
764,2,T1_SMS_8,97,5,42,127,373061980
764,2,T1_SMS_8,98,1,48,47,373814632
764,2,T1_SMS_8,99,5,42,127,373861864
764,2,T1_SMS_8,100,1,48,64,374658276
764,2,T1_SMS_8,101,5,42,127,374661448
764,2,T1_SMS_8,102,1,48,51,375407296
764,2,T1_SMS_8,103,5,42,127,375462156
764,2,T1_SMS_8,104,1,48,65,376233432
764,2,T1_SMS_8,105,5,42,127,376262064
764,2,T1_SMS_8,106,5,42,127,377061876
764,2,T1_SMS_8,107,1,48,56,377073972
764,2,T1_SMS_8,108,5,42,127,377861608
764,2,T1_SMS_8,109,1,48,63,377908488
764,2,T1_SMS_8,110,5,42,127,378662168
764,2,T1_SMS_8,111,1,48,46,378666108
764,2,T1_SMS_8,112,5,42,127,379462048
764,2,T1_SMS_8,113,1,48,57,379477808
764,2,T1_SMS_8,114,5,42,127,380261856
764,2,T1_SMS_8,115,1,48,59,380279636
764,2,T1_SMS_8,116,1,48,51,381023556
764,2,T1_SMS_8,117,5,42,127,381061436
764,2,T1_SMS_8,118,1,48,59,381857396
764,2,T1_SMS_8,119,5,42,127,381862140
764,2,T1_SMS_8,120,1,48,54,382647728
764,2,T1_SMS_8,121,5,42,127,382661972
764,2,T1_SMS_8,122,1,48,56,383443644
764,2,T1_SMS_8,123,5,42,127,383461780
764,2,T1_SMS_8,124,1,48,57,384218548
764,2,T1_SMS_8,125,5,42,127,384261588
764,2,T1_SMS_8,126,1,48,56,385029648
764,2,T1_SMS_8,127,5,42,127,385062144
764,2,T1_SMS_8,128,1,48,60,385810008
764,2,T1_SMS_8,129,5,42,127,385861876
764,2,T1_SMS_8,130,1,48,52,386606528
764,2,T1_SMS_8,131,5,42,127,386661832
764,2,T1_SMS_8,132,1,48,53,387418600
764,2,T1_SMS_8,133,5,42,127,387461644
764,2,T1_SMS_8,134,1,48,54,388210108
764,2,T1_SMS_8,135,5,42,127,388262348
764,2,T1_SMS_8,136,1,48,51,389003408
764,2,T1_SMS_8,137,5,42,127,389061956
764,2,T1_SMS_8,138,1,48,54,389822012
764,2,T1_SMS_8,139,5,42,127,389861688
764,2,T1_SMS_8,140,1,48,54,390656456
764,2,T1_SMS_8,141,5,42,127,390661796
764,2,T1_SMS_8,142,1,48,57,391446692
764,2,T1_SMS_8,143,5,42,127,391462204
764,2,T1_SMS_8,144,5,42,127,392262092
764,2,T1_SMS_8,145,1,48,49,392274264
764,2,T1_SMS_8,146,1,48,59,393054656
764,2,T1_SMS_8,147,5,42,127,393061796
764,2,T1_SMS_8,148,1,48,62,393845188
764,2,T1_SMS_8,149,5,42,127,393861604
764,2,T1_SMS_8,150,1,48,57,394648816
764,2,T1_SMS_8,151,5,42,127,394662312
764,2,T1_SMS_8,152,1,48,52,395446224
764,2,T1_SMS_8,153,5,42,127,395461968
764,2,T1_SMS_8,154,1,48,54,396233544
764,2,T1_SMS_8,155,5,42,127,396261632
764,2,T1_SMS_8,156,1,48,58,397037244
764,2,T1_SMS_8,157,5,42,127,397061512
764,2,T1_SMS_8,158,1,48,65,397824932
764,2,T1_SMS_8,159,5,42,127,397862368
764,2,T1_SMS_8,160,1,48,53,398633496
764,2,T1_SMS_8,161,5,42,127,398661952
764,2,T1_SMS_8,162,1,48,59,399439440
764,2,T1_SMS_8,163,5,42,127,399461688
764,2,T1_SMS_8,164,5,42,127,400261428
764,2,T1_SMS_8,165,1,48,62,400262392
764,2,T1_SMS_8,166,1,48,47,401044288
764,2,T1_SMS_8,167,5,42,127,401062424
764,2,T1_SMS_8,168,5,42,127,401862040
764,2,T1_SMS_8,169,1,48,67,401866356
764,2,T1_SMS_8,170,1,48,51,402639076
764,2,T1_SMS_8,171,5,42,127,402661768
764,2,T1_SMS_8,172,5,42,127,403461508
764,2,T1_SMS_8,173,1,48,62,403493128
764,2,T1_SMS_8,174,5,42,127,404262516
764,2,T1_SMS_8,175,1,48,57,404280068
764,2,T1_SMS_8,176,5,42,127,405061952
764,2,T1_SMS_8,177,1,48,54,405085492
764,2,T1_SMS_8,178,1,48,55,405849232
764,2,T1_SMS_8,179,5,42,127,405861680
764,2,T1_SMS_8,180,1,48,56,406658316
764,2,T1_SMS_8,181,5,42,127,406661560
764,2,T1_SMS_8,182,5,42,127,407462424
764,2,T1_SMS_8,183,1,48,52,407469660
764,2,T1_SMS_8,184,5,42,127,408262180
764,2,T1_SMS_8,185,1,48,59,408271660
764,2,T1_SMS_8,186,5,42,127,409061768
764,2,T1_SMS_8,187,1,48,57,409069152
764,2,T1_SMS_8,188,5,42,127,409861428
764,2,T1_SMS_8,189,1,48,54,409891172
764,2,T1_SMS_8,190,5,42,127,410662280
764,2,T1_SMS_8,191,1,48,50,410683272
764,2,T1_SMS_8,192,5,42,127,411462164
764,2,T1_SMS_8,193,1,48,51,411493328
764,2,T1_SMS_8,194,5,42,127,412261600
764,2,T1_SMS_8,195,1,48,56,412277884
764,2,T1_SMS_8,196,5,42,127,413061404
764,2,T1_SMS_8,197,1,48,53,413085316
764,2,T1_SMS_8,198,5,42,127,413862108
764,2,T1_SMS_8,199,1,48,54,413891732
764,2,T1_SMS_8,200,1,48,63,414658164
764,2,T1_SMS_8,201,5,42,127,414662384
764,2,T1_SMS_8,202,1,48,59,415456024
764,2,T1_SMS_8,203,5,42,127,415461672
764,2,T1_SMS_8,204,5,42,127,416261484
764,2,T1_SMS_8,205,1,48,57,416264000
764,2,T1_SMS_8,206,1,48,60,417040160
764,2,T1_SMS_8,207,5,42,127,417062260
764,2,T1_SMS_8,208,1,48,56,417833388
764,2,T1_SMS_8,209,5,42,127,417862216
764,2,T1_SMS_8,210,1,48,53,418629684
764,2,T1_SMS_8,211,5,42,127,418661652
764,2,T1_SMS_8,212,1,48,54,419433152
764,2,T1_SMS_8,213,5,42,127,419461464
764,2,T1_SMS_8,214,1,48,45,420220620
764,2,T1_SMS_8,215,5,42,127,420262168
764,2,T1_SMS_8,216,1,48,46,421055832
764,2,T1_SMS_8,217,5,42,127,421061928
764,2,T1_SMS_8,218,5,42,127,421862040
764,2,T1_SMS_8,219,1,48,53,421872636
764,2,T1_SMS_8,220,1,48,57,422632864
764,2,T1_SMS_8,221,5,42,127,422661468
764,2,T1_SMS_8,222,1,48,44,423459744
764,2,T1_SMS_8,223,5,42,127,423462248
764,2,T1_SMS_8,224,5,42,127,424261912
764,2,T1_SMS_8,225,1,48,50,424262880
764,2,T1_SMS_8,226,1,48,53,425055248
764,2,T1_SMS_8,227,5,42,127,425061940
764,2,T1_SMS_8,228,1,48,52,425846008
764,2,T1_SMS_8,229,5,42,127,425861452
764,2,T1_SMS_8,230,1,48,44,426643420
764,2,T1_SMS_8,231,5,42,127,426662232
764,2,T1_SMS_8,232,1,48,53,427458216
764,2,T1_SMS_8,233,5,42,127,427461916
764,2,T1_SMS_8,234,1,48,62,428174824
764,2,T1_SMS_8,235,5,42,127,428261872
764,2,T1_SMS_8,236,1,48,42,429026424
764,2,T1_SMS_8,237,5,42,127,429061384
764,2,T1_SMS_8,238,1,48,46,429786512
764,2,T1_SMS_8,239,5,42,127,429862236
764,2,T1_SMS_8,0,9999,9999,9999,334659656
764,2,T1_SMS_8,1,9999,9999,9999,335459388
764,2,T1_SMS_8,2,9999,9999,9999,336259124
764,2,T1_SMS_8,3,9999,9999,9999,337059904
764,2,T1_SMS_8,4,9999,9999,9999,337859660
764,2,T1_SMS_8,5,9999,9999,9999,338659448
764,2,T1_SMS_8,6,9999,9999,9999,339459128
764,2,T1_SMS_8,7,9999,9999,9999,340259900
764,2,T1_SMS_8,8,9999,9999,9999,341059632
764,2,T1_SMS_8,9,9999,9999,9999,341859440
764,2,T1_SMS_8,10,9999,9999,9999,342659176
764,2,T1_SMS_8,11,9999,9999,9999,343459956
764,2,T1_SMS_8,12,9999,9999,9999,344259636
764,2,T1_SMS_8,13,9999,9999,9999,345059448
764,2,T1_SMS_8,14,9999,9999,9999,345859180
764,2,T1_SMS_8,15,9999,9999,9999,346659960
764,2,T1_SMS_8,16,9999,9999,9999,347459692
764,2,T1_SMS_8,17,9999,9999,9999,348259424
764,2,T1_SMS_8,18,9999,9999,9999,349059160
764,2,T1_SMS_8,19,9999,9999,9999,349859940
764,2,T1_SMS_8,20,9999,9999,9999,350659672
764,2,T1_SMS_8,21,9999,9999,9999,351459404
764,2,T1_SMS_8,22,9999,9999,9999,352259140
764,2,T1_SMS_8,23,9999,9999,9999,353059920
764,2,T1_SMS_8,24,9999,9999,9999,353859652
764,2,T1_SMS_8,25,9999,9999,9999,354659388
764,2,T1_SMS_8,26,9999,9999,9999,355459120
764,2,T1_SMS_8,27,9999,9999,9999,356259900
764,2,T1_SMS_8,28,9999,9999,9999,357059660
764,2,T1_SMS_8,29,9999,9999,9999,357859396
764,2,T1_SMS_8,30,9999,9999,9999,358659148
764,2,T1_SMS_8,31,9999,9999,9999,359459908
764,2,T1_SMS_8,32,9999,9999,9999,360259644
764,2,T1_SMS_8,33,9999,9999,9999,361059380
764,2,T1_SMS_8,34,9999,9999,9999,361859188
764,2,T1_SMS_8,35,9999,9999,9999,362659892
764,2,T1_SMS_8,36,9999,9999,9999,363459652
764,2,T1_SMS_8,37,9999,9999,9999,364259380
764,2,T1_SMS_8,38,9999,9999,9999,365059188
764,2,T1_SMS_8,39,9999,9999,9999,365859896
764,2,T1_SMS_8,40,9999,9999,9999,366659704
764,2,T1_SMS_8,41,9999,9999,9999,367459436
764,2,T1_SMS_8,42,9999,9999,9999,368259172
764,2,T1_SMS_8,43,9999,9999,9999,369059952
764,2,T1_SMS_8,44,9999,9999,9999,369859636
764,2,T1_SMS_8,45,9999,9999,9999,370659444
764,2,T1_SMS_8,46,9999,9999,9999,371459180
764,2,T1_SMS_8,47,9999,9999,9999,372259884
764,2,T1_SMS_8,48,9999,9999,9999,373059692
764,2,T1_SMS_8,49,9999,9999,9999,373859428
764,2,T1_SMS_8,50,9999,9999,9999,374659160
764,2,T1_SMS_8,51,9999,9999,9999,375459944
764,2,T1_SMS_8,52,9999,9999,9999,376259700
764,2,T1_SMS_8,53,9999,9999,9999,377059440
764,2,T1_SMS_8,54,9999,9999,9999,377859172
764,2,T1_SMS_8,55,9999,9999,9999,378659952
764,2,T1_SMS_8,56,9999,9999,9999,379459688
764,2,T1_SMS_8,57,9999,9999,9999,380259420
764,2,T1_SMS_8,58,9999,9999,9999,381059148
764,2,T1_SMS_8,59,9999,9999,9999,381859928
764,2,T1_SMS_8,60,9999,9999,9999,382659684
764,2,T1_SMS_8,61,9999,9999,9999,383459420
764,2,T1_SMS_8,62,9999,9999,9999,384259152
764,2,T1_SMS_8,63,9999,9999,9999,385059932
764,2,T1_SMS_8,64,9999,9999,9999,385859664
764,2,T1_SMS_8,65,9999,9999,9999,386659396
764,2,T1_SMS_8,66,9999,9999,9999,387459132
764,2,T1_SMS_8,67,9999,9999,9999,388259912
764,2,T1_SMS_8,68,9999,9999,9999,389059668
764,2,T1_SMS_8,69,9999,9999,9999,389859404
764,2,T1_SMS_8,70,9999,9999,9999,390659136
764,2,T1_SMS_8,71,9999,9999,9999,391459920
764,2,T1_SMS_8,72,9999,9999,9999,392259656
764,2,T1_SMS_8,73,9999,9999,9999,393059436
764,2,T1_SMS_8,74,9999,9999,9999,393859168
764,2,T1_SMS_8,75,9999,9999,9999,394659948
764,2,T1_SMS_8,76,9999,9999,9999,395459680
764,2,T1_SMS_8,77,9999,9999,9999,396259416
764,2,T1_SMS_8,78,9999,9999,9999,397059152
764,2,T1_SMS_8,79,9999,9999,9999,397859932
764,2,T1_SMS_8,80,9999,9999,9999,398659664
764,2,T1_SMS_8,81,9999,9999,9999,399459400
764,2,T1_SMS_8,82,9999,9999,9999,400259140
764,2,T1_SMS_8,83,9999,9999,9999,401059912
764,2,T1_SMS_8,84,9999,9999,9999,401859676
764,2,T1_SMS_8,85,9999,9999,9999,402659408
764,2,T1_SMS_8,86,9999,9999,9999,403459148
764,2,T1_SMS_8,87,9999,9999,9999,404259928
764,2,T1_SMS_8,88,9999,9999,9999,405059664
764,2,T1_SMS_8,89,9999,9999,9999,405859392
764,2,T1_SMS_8,90,9999,9999,9999,406659124
764,2,T1_SMS_8,91,9999,9999,9999,407459912
764,2,T1_SMS_8,92,9999,9999,9999,408259668
764,2,T1_SMS_8,93,9999,9999,9999,409059404
764,2,T1_SMS_8,94,9999,9999,9999,409859140
764,2,T1_SMS_8,95,9999,9999,9999,410659920
764,2,T1_SMS_8,96,9999,9999,9999,411459652
764,2,T1_SMS_8,97,9999,9999,9999,412259384
764,2,T1_SMS_8,98,9999,9999,9999,413059116
764,2,T1_SMS_8,99,9999,9999,9999,413859896
764,2,T1_SMS_8,100,9999,9999,9999,414659648
764,2,T1_SMS_8,101,9999,9999,9999,415459384
764,2,T1_SMS_8,102,9999,9999,9999,416259120
764,2,T1_SMS_8,103,9999,9999,9999,417059896
764,2,T1_SMS_8,104,9999,9999,9999,417859632
764,2,T1_SMS_8,105,9999,9999,9999,418659440
764,2,T1_SMS_8,106,9999,9999,9999,419459176
764,2,T1_SMS_8,107,9999,9999,9999,420259952
764,2,T1_SMS_8,108,9999,9999,9999,421059640
764,2,T1_SMS_8,109,9999,9999,9999,421859380
764,2,T1_SMS_8,110,9999,9999,9999,422659180
764,2,T1_SMS_8,111,9999,9999,9999,423459888
764,2,T1_SMS_8,112,9999,9999,9999,424259700
764,2,T1_SMS_8,113,9999,9999,9999,425059428
764,2,T1_SMS_8,114,9999,9999,9999,425859160
764,2,T1_SMS_8,115,9999,9999,9999,426659944
764,2,T1_SMS_8,116,9999,9999,9999,427459704
764,2,T1_SMS_8,117,9999,9999,9999,428259436
764,2,T1_SMS_8,118,9999,9999,9999,429059168
764,2,T1_SMS_8,119,9999,9999,9999,429859948
765,23,Ticks_Phase_5,0,5,42,127,440464864
765,23,Ticks_Phase_5,1,5,42,127,440964648
765,23,Ticks_Phase_5,2,5,42,127,441465180
765,23,Ticks_Phase_5,3,5,42,127,441965040
765,23,Ticks_Phase_5,4,1,48,59,442027252
765,23,Ticks_Phase_5,5,5,42,127,442464800
765,23,Ticks_Phase_5,6,1,48,54,442503048
765,23,Ticks_Phase_5,7,5,42,127,442965240
765,23,Ticks_Phase_5,8,1,48,48,442996896
765,23,Ticks_Phase_5,9,5,42,127,443465000
765,23,Ticks_Phase_5,10,1,48,46,443492004
765,23,Ticks_Phase_5,11,5,42,127,443964764
765,23,Ticks_Phase_5,12,1,48,46,443998884
765,23,Ticks_Phase_5,13,5,42,127,444464748
765,23,Ticks_Phase_5,14,1,48,47,444472892
765,23,Ticks_Phase_5,15,5,42,127,444965408
765,23,Ticks_Phase_5,16,1,48,57,444990844
765,23,Ticks_Phase_5,17,5,42,127,445464876
765,23,Ticks_Phase_5,18,1,48,50,445486572
765,23,Ticks_Phase_5,19,5,42,127,445964640
765,23,Ticks_Phase_5,20,1,48,52,445980336
765,23,Ticks_Phase_5,21,5,42,127,446465372
765,23,Ticks_Phase_5,22,1,48,42,446497104
765,23,Ticks_Phase_5,23,1,48,61,446958960
765,23,Ticks_Phase_5,24,5,42,127,446965056
765,23,Ticks_Phase_5,25,1,48,53,447448464
765,23,Ticks_Phase_5,26,5,42,127,447464892
765,23,Ticks_Phase_5,27,1,48,51,447957288
765,23,Ticks_Phase_5,28,5,42,127,447964804
765,23,Ticks_Phase_5,29,1,48,53,448445448
765,23,Ticks_Phase_5,30,5,42,127,448465240
765,23,Ticks_Phase_5,31,1,48,53,448953968
765,23,Ticks_Phase_5,32,5,42,127,448965004
765,23,Ticks_Phase_5,33,5,42,127,449464624
765,23,Ticks_Phase_5,34,1,48,55,449471632
765,23,Ticks_Phase_5,35,1,48,51,449948900
765,23,Ticks_Phase_5,36,5,42,127,449965624
765,23,Ticks_Phase_5,37,1,48,51,450474380
765,23,Ticks_Phase_5,38,5,42,127,450475944
765,23,Ticks_Phase_5,39,5,42,127,450975192
765,23,Ticks_Phase_5,40,1,48,60,450978240
765,23,Ticks_Phase_5,41,1,48,55,451459564
765,23,Ticks_Phase_5,42,5,42,127,451474872
765,23,Ticks_Phase_5,43,5,42,127,451974644
765,23,Ticks_Phase_5,44,1,48,49,451979708
765,23,Ticks_Phase_5,45,1,48,54,452462916
765,23,Ticks_Phase_5,46,5,42,127,452475296
765,23,Ticks_Phase_5,47,5,42,127,452974916
765,23,Ticks_Phase_5,48,1,48,58,452978788
765,23,Ticks_Phase_5,49,1,48,53,453463564
765,23,Ticks_Phase_5,50,5,42,127,453474748
765,23,Ticks_Phase_5,51,1,48,51,453959204
765,23,Ticks_Phase_5,52,5,42,127,453975336
765,23,Ticks_Phase_5,53,1,48,53,454463312
765,23,Ticks_Phase_5,54,5,42,127,454475020
765,23,Ticks_Phase_5,55,5,42,127,454974792
765,23,Ticks_Phase_5,56,1,48,48,454990868
765,23,Ticks_Phase_5,57,5,42,127,455465344
765,23,Ticks_Phase_5,58,1,48,46,455492736
765,23,Ticks_Phase_5,59,5,42,127,455964956
765,23,Ticks_Phase_5,60,1,48,47,455965924
765,23,Ticks_Phase_5,61,1,48,48,456464868
765,23,Ticks_Phase_5,62,5,42,127,456466356
765,23,Ticks_Phase_5,63,1,48,49,456957108
765,23,Ticks_Phase_5,64,5,42,127,456964328
765,23,Ticks_Phase_5,65,5,42,127,457465216
765,23,Ticks_Phase_5,66,1,48,57,457468488
765,23,Ticks_Phase_5,67,5,42,127,457964980
765,23,Ticks_Phase_5,68,1,48,52,457988396
765,23,Ticks_Phase_5,69,1,48,58,458456772
765,23,Ticks_Phase_5,70,5,42,127,458464588
765,23,Ticks_Phase_5,71,5,42,127,458965480
765,23,Ticks_Phase_5,72,1,48,55,458968000
765,23,Ticks_Phase_5,73,5,42,127,459465092
765,23,Ticks_Phase_5,74,1,48,51,459495324
765,23,Ticks_Phase_5,75,5,42,127,459964708
765,23,Ticks_Phase_5,76,1,48,54,459974044
765,23,Ticks_Phase_5,77,5,42,127,460464444
765,23,Ticks_Phase_5,78,1,48,47,460476504
765,23,Ticks_Phase_5,79,5,42,127,460965400
765,23,Ticks_Phase_5,80,1,48,47,460983004
765,23,Ticks_Phase_5,81,5,42,127,461465016
765,23,Ticks_Phase_5,82,1,48,54,461479368
765,23,Ticks_Phase_5,83,5,42,127,461964704
765,23,Ticks_Phase_5,84,1,48,52,461971188
765,23,Ticks_Phase_5,85,1,48,55,462448476
765,23,Ticks_Phase_5,86,5,42,127,462465580
765,23,Ticks_Phase_5,87,1,48,50,462955280
765,23,Ticks_Phase_5,88,5,42,127,462965344
765,23,Ticks_Phase_5,89,5,42,127,463464888
765,23,Ticks_Phase_5,90,1,48,54,463471520
765,23,Ticks_Phase_5,91,5,42,127,463964504
765,23,Ticks_Phase_5,92,1,48,52,463987392
765,23,Ticks_Phase_5,93,5,42,127,464474452
765,23,Ticks_Phase_5,94,1,48,48,464484392
765,23,Ticks_Phase_5,95,1,48,56,464971696
765,23,Ticks_Phase_5,96,5,42,127,464975328
765,23,Ticks_Phase_5,97,1,48,54,465447428
765,23,Ticks_Phase_5,98,5,42,127,465474792
765,23,Ticks_Phase_5,99,1,48,57,465902864
765,23,Ticks_Phase_5,100,5,42,127,465974780
765,23,Ticks_Phase_5,101,1,48,47,466457212
765,23,Ticks_Phase_5,102,5,42,127,466475364
765,23,Ticks_Phase_5,103,5,42,127,466975284
765,23,Ticks_Phase_5,104,1,48,49,466983204
765,23,Ticks_Phase_5,105,1,48,56,467455392
765,23,Ticks_Phase_5,106,5,42,127,467474740
765,23,Ticks_Phase_5,107,1,48,58,467944292
765,23,Ticks_Phase_5,108,5,42,127,467974576
765,23,Ticks_Phase_5,109,5,42,127,468475392
765,23,Ticks_Phase_5,110,1,48,54,468501420
765,23,Ticks_Phase_5,111,1,48,40,468960440
765,23,Ticks_Phase_5,112,5,42,127,468975300
765,23,Ticks_Phase_5,113,1,48,48,469463284
765,23,Ticks_Phase_5,114,5,42,127,469474616
765,23,Ticks_Phase_5,115,5,42,127,469975284
765,23,Ticks_Phase_5,116,1,48,45,469984696
765,23,Ticks_Phase_5,117,1,48,44,470466396
765,23,Ticks_Phase_5,118,5,42,127,470475336
765,23,Ticks_Phase_5,119,1,48,51,470974660
765,23,Ticks_Phase_5,120,5,42,127,470976148
765,23,Ticks_Phase_5,121,5,42,127,471474796
765,23,Ticks_Phase_5,122,1,48,51,471480760
765,23,Ticks_Phase_5,123,5,42,127,471975208
765,23,Ticks_Phase_5,124,1,48,47,472000068
765,23,Ticks_Phase_5,125,1,48,43,472484076
765,23,Ticks_Phase_5,126,5,42,127,472494436
765,23,Ticks_Phase_5,127,5,42,127,472995176
765,23,Ticks_Phase_5,128,1,48,43,473014948
765,23,Ticks_Phase_5,129,5,42,127,473495088
765,23,Ticks_Phase_5,130,1,48,46,473516112
765,23,Ticks_Phase_5,131,1,48,48,473985684
765,23,Ticks_Phase_5,132,5,42,127,473994696
765,23,Ticks_Phase_5,133,1,48,54,474482440
765,23,Ticks_Phase_5,134,5,42,127,474495208
765,23,Ticks_Phase_5,135,5,42,127,474994980
765,23,Ticks_Phase_5,136,1,48,50,475020788
765,23,Ticks_Phase_5,137,5,42,127,475494964
765,23,Ticks_Phase_5,138,1,48,46,475505500
765,23,Ticks_Phase_5,139,5,42,127,475994428
765,23,Ticks_Phase_5,140,1,48,46,476009004
765,23,Ticks_Phase_5,141,1,48,47,476477304
765,23,Ticks_Phase_5,142,5,42,127,476495304
765,23,Ticks_Phase_5,143,5,42,127,476994924
765,23,Ticks_Phase_5,144,1,48,51,477004864
765,23,Ticks_Phase_5,145,5,42,127,477494540
765,23,Ticks_Phase_5,146,1,48,50,477516908
765,23,Ticks_Phase_5,147,5,42,127,477995348
765,23,Ticks_Phase_5,148,1,48,48,478014420
765,23,Ticks_Phase_5,149,5,42,127,478494960
765,23,Ticks_Phase_5,150,1,48,43,478516432
765,23,Ticks_Phase_5,151,5,42,127,478994948
765,23,Ticks_Phase_5,152,1,48,47,479023904
765,23,Ticks_Phase_5,153,5,42,127,479494488
765,23,Ticks_Phase_5,154,1,48,37,479536400
765,23,Ticks_Phase_5,155,5,42,127,479995220
765,23,Ticks_Phase_5,156,1,48,37,480003216
765,23,Ticks_Phase_5,157,5,42,127,480495208
765,23,Ticks_Phase_5,158,1,48,60,480524320
765,23,Ticks_Phase_5,159,5,42,127,480975348
765,23,Ticks_Phase_5,160,1,48,57,481060396
765,23,Ticks_Phase_5,161,5,42,127,481475112
765,23,Ticks_Phase_5,162,1,48,53,481530352
765,23,Ticks_Phase_5,163,5,42,127,481974580
765,23,Ticks_Phase_5,164,1,48,46,482036188
765,23,Ticks_Phase_5,165,5,42,127,482475364
765,23,Ticks_Phase_5,166,1,48,41,482501492
765,23,Ticks_Phase_5,167,5,42,127,482975052
765,23,Ticks_Phase_5,168,1,48,48,483012340
765,23,Ticks_Phase_5,169,5,42,127,483474892
765,23,Ticks_Phase_5,170,1,48,52,483541688
765,23,Ticks_Phase_5,171,5,42,127,483974508
765,23,Ticks_Phase_5,172,1,48,47,483990952
765,23,Ticks_Phase_5,173,5,42,127,484475388
765,23,Ticks_Phase_5,174,1,48,51,484495884
765,23,Ticks_Phase_5,175,5,42,127,484974928
765,23,Ticks_Phase_5,176,1,48,54,485008300
765,23,Ticks_Phase_5,177,5,42,127,485474616
765,23,Ticks_Phase_5,178,1,48,47,485478488
765,23,Ticks_Phase_5,179,1,48,51,485973836
765,23,Ticks_Phase_5,180,5,42,127,485975272
765,23,Ticks_Phase_5,181,5,42,127,486475112
765,23,Ticks_Phase_5,182,1,48,51,486479356
765,23,Ticks_Phase_5,183,1,48,52,486940988
765,23,Ticks_Phase_5,184,5,42,127,486974944
765,23,Ticks_Phase_5,185,1,48,43,487470704
765,23,Ticks_Phase_5,186,5,42,127,487474484
765,23,Ticks_Phase_5,187,5,42,127,487975148
765,23,Ticks_Phase_5,188,1,48,50,487989576
765,23,Ticks_Phase_5,189,1,48,47,488464024
765,23,Ticks_Phase_5,190,5,42,127,488475132
765,23,Ticks_Phase_5,191,5,42,127,488924580
765,23,Ticks_Phase_5,192,1,48,48,488979068
765,23,Ticks_Phase_5,193,5,42,127,489425312
765,23,Ticks_Phase_5,194,1,48,43,489469844
765,23,Ticks_Phase_5,195,5,42,127,489925004
765,23,Ticks_Phase_5,196,1,48,45,489958680
765,23,Ticks_Phase_5,197,5,42,127,490424764
765,23,Ticks_Phase_5,198,1,48,45,490437924
765,23,Ticks_Phase_5,199,5,42,127,490925328
765,23,Ticks_Phase_5,200,1,48,46,490944204
765,23,Ticks_Phase_5,201,5,42,127,491435500
765,23,Ticks_Phase_5,202,1,48,51,491459764
765,23,Ticks_Phase_5,203,1,48,51,491904824
765,23,Ticks_Phase_5,204,5,42,127,491935108
765,23,Ticks_Phase_5,205,1,48,46,492432360
765,23,Ticks_Phase_5,206,5,42,127,492434944
765,23,Ticks_Phase_5,207,1,48,51,492933284
765,23,Ticks_Phase_5,208,5,42,127,492934856
765,23,Ticks_Phase_5,209,5,42,127,493435224
765,23,Ticks_Phase_5,210,1,48,50,493438868
765,23,Ticks_Phase_5,211,5,42,127,493934916
765,23,Ticks_Phase_5,212,1,48,45,493947320
765,23,Ticks_Phase_5,213,5,42,127,494434824
765,23,Ticks_Phase_5,214,1,48,49,494458316
765,23,Ticks_Phase_5,215,5,42,127,494935264
765,23,Ticks_Phase_5,216,1,48,43,494942120
765,23,Ticks_Phase_5,217,5,42,127,495435028
765,23,Ticks_Phase_5,218,1,48,44,495457092
765,23,Ticks_Phase_5,219,5,42,127,495934940
765,23,Ticks_Phase_5,220,1,48,48,495940300
765,23,Ticks_Phase_5,221,5,42,127,496434776
765,23,Ticks_Phase_5,222,1,48,46,496441936
765,23,Ticks_Phase_5,223,5,42,127,496935212
765,23,Ticks_Phase_5,224,1,48,47,496958556
765,23,Ticks_Phase_5,225,1,48,45,497451708
765,23,Ticks_Phase_5,226,5,42,127,497485144
765,23,Ticks_Phase_5,227,1,48,50,497958592
765,23,Ticks_Phase_5,228,5,42,127,497984908
765,23,Ticks_Phase_5,229,1,48,45,498460224
765,23,Ticks_Phase_5,230,5,42,127,498484748
765,23,Ticks_Phase_5,231,5,42,127,498985192
765,23,Ticks_Phase_5,232,1,48,45,499003140
765,23,Ticks_Phase_5,233,5,42,127,499485028
765,23,Ticks_Phase_5,234,1,48,47,499514284
765,23,Ticks_Phase_5,235,5,42,127,499984716
765,23,Ticks_Phase_5,236,1,48,42,499987836
765,23,Ticks_Phase_5,237,5,42,127,500484556
765,23,Ticks_Phase_5,238,1,48,44,500491416
765,23,Ticks_Phase_5,239,5,42,127,500985212
765,23,Ticks_Phase_5,240,1,48,42,500992164
765,23,Ticks_Phase_5,241,5,42,127,501484828
765,23,Ticks_Phase_5,242,1,48,45,501500748
765,23,Ticks_Phase_5,243,1,48,29,501980360
765,23,Ticks_Phase_5,244,5,42,127,501984732
765,23,Ticks_Phase_5,245,5,42,127,502485548
765,23,Ticks_Phase_5,246,1,48,38,502498180
765,23,Ticks_Phase_5,247,5,42,127,502985164
765,23,Ticks_Phase_5,248,1,48,39,503004688
765,23,Ticks_Phase_5,249,5,42,127,503484704
765,23,Ticks_Phase_5,250,1,48,41,503500476
765,23,Ticks_Phase_5,251,1,48,39,503977144
765,23,Ticks_Phase_5,252,5,42,127,503984436
765,23,Ticks_Phase_5,253,1,48,47,504482340
765,23,Ticks_Phase_5,254,5,42,127,504485220
765,23,Ticks_Phase_5,255,1,48,40,504967432
765,23,Ticks_Phase_5,256,5,42,127,504984908
765,23,Ticks_Phase_5,257,1,48,37,505456936
765,23,Ticks_Phase_5,258,5,42,127,505484672
765,23,Ticks_Phase_5,259,1,48,43,505971368
765,23,Ticks_Phase_5,260,5,42,127,506084720
765,23,Ticks_Phase_5,261,1,48,48,506556984
765,23,Ticks_Phase_5,262,5,42,127,506584720
765,23,Ticks_Phase_5,263,5,42,127,507085388
765,23,Ticks_Phase_5,264,1,48,30,507144752
765,23,Ticks_Phase_5,265,5,42,127,507584928
765,23,Ticks_Phase_5,266,1,48,47,507672904
765,23,Ticks_Phase_5,267,5,42,127,508084688
765,23,Ticks_Phase_5,268,1,48,28,508297348
765,23,Ticks_Phase_5,269,5,42,127,508585400
765,23,Ticks_Phase_5,270,1,48,49,508979852
765,23,Ticks_Phase_5,271,5,42,127,509085164
765,23,Ticks_Phase_5,272,5,42,127,509584724
765,23,Ticks_Phase_5,273,1,48,49,509608364
765,23,Ticks_Phase_5,274,5,42,127,510084636
765,23,Ticks_Phase_5,275,1,48,30,510204236
765,23,Ticks_Phase_5,276,5,42,127,510585368
765,23,Ticks_Phase_5,277,1,48,49,510839608
765,23,Ticks_Phase_5,278,5,42,127,511084832
765,23,Ticks_Phase_5,279,1,48,44,511494348
765,23,Ticks_Phase_5,280,5,42,127,511584684
765,23,Ticks_Phase_5,281,1,48,44,512079472
765,23,Ticks_Phase_5,282,5,42,127,512085496
765,23,Ticks_Phase_5,283,5,42,127,512585040
765,23,Ticks_Phase_5,284,1,48,44,512615196
765,23,Ticks_Phase_5,285,1,48,32,513065524
765,23,Ticks_Phase_5,286,5,42,127,513084724
765,23,Ticks_Phase_5,287,1,48,44,513548956
765,23,Ticks_Phase_5,288,5,42,127,513584560
765,23,Ticks_Phase_5,289,1,48,43,514065872
765,23,Ticks_Phase_5,290,5,42,127,514085368
765,23,Ticks_Phase_5,291,1,48,48,514557696
765,23,Ticks_Phase_5,292,5,42,127,514584836
765,23,Ticks_Phase_5,293,1,48,52,515033948
765,23,Ticks_Phase_5,294,5,42,127,515084600
765,23,Ticks_Phase_5,295,5,42,127,515484896
765,23,Ticks_Phase_5,296,1,48,42,515527132
765,23,Ticks_Phase_5,297,5,42,127,515984804
765,23,Ticks_Phase_5,298,1,48,47,516002984
765,23,Ticks_Phase_5,299,5,42,127,516484568
765,23,Ticks_Phase_5,300,1,48,51,516497504
765,23,Ticks_Phase_5,301,1,48,49,516971408
765,23,Ticks_Phase_5,302,5,42,127,516985296
765,23,Ticks_Phase_5,303,1,48,54,517466464
765,23,Ticks_Phase_5,304,5,42,127,517484836
765,23,Ticks_Phase_5,305,1,48,50,517937244
765,23,Ticks_Phase_5,306,5,42,127,517984524
765,23,Ticks_Phase_5,307,1,48,54,518454456
765,23,Ticks_Phase_5,308,5,42,127,518485332
765,23,Ticks_Phase_5,309,1,48,51,518962832
765,23,Ticks_Phase_5,310,5,42,127,518985172
765,23,Ticks_Phase_5,311,1,48,51,519456372
765,23,Ticks_Phase_5,312,5,42,127,519484712
765,23,Ticks_Phase_5,313,1,48,33,519897200
765,23,Ticks_Phase_5,314,5,42,127,519984472
765,23,Ticks_Phase_5,315,1,48,37,520433812
765,23,Ticks_Phase_5,316,5,42,127,520485284
765,23,Ticks_Phase_5,317,1,48,36,520934472
765,23,Ticks_Phase_5,318,5,42,127,520985120
765,23,Ticks_Phase_5,319,1,48,47,521446060
765,23,Ticks_Phase_5,320,5,42,127,521484660
765,23,Ticks_Phase_5,321,1,48,38,521948672
765,23,Ticks_Phase_5,322,5,42,127,521985320
765,23,Ticks_Phase_5,323,1,48,45,522447236
765,23,Ticks_Phase_5,324,5,42,127,522485232
765,23,Ticks_Phase_5,325,1,48,45,522951336
765,23,Ticks_Phase_5,326,5,42,127,522984772
765,23,Ticks_Phase_5,327,1,48,46,523481428
765,23,Ticks_Phase_5,328,5,42,127,523484460
765,23,Ticks_Phase_5,329,5,42,127,523985200
765,23,Ticks_Phase_5,330,1,48,53,523995288
765,23,Ticks_Phase_5,331,1,48,46,524484816
765,23,Ticks_Phase_5,332,5,42,127,524486376
765,23,Ticks_Phase_5,333,1,48,53,524978096
765,23,Ticks_Phase_5,334,5,42,127,524984644
765,23,Ticks_Phase_5,0,9999,9999,9999,440462428
765,23,Ticks_Phase_5,1,9999,9999,9999,440962140
765,23,Ticks_Phase_5,2,9999,9999,9999,441462896
765,23,Ticks_Phase_5,3,9999,9999,9999,441962604
765,23,Ticks_Phase_5,4,9999,9999,9999,442462292
765,23,Ticks_Phase_5,5,9999,9999,9999,442963028
765,23,Ticks_Phase_5,6,9999,9999,9999,443462716
765,23,Ticks_Phase_5,7,9999,9999,9999,443962476
765,23,Ticks_Phase_5,8,9999,9999,9999,444462164
765,23,Ticks_Phase_5,9,9999,9999,9999,444962900
765,23,Ticks_Phase_5,10,9999,9999,9999,445462588
765,23,Ticks_Phase_5,11,9999,9999,9999,445962352
765,23,Ticks_Phase_5,12,9999,9999,9999,446463084
765,23,Ticks_Phase_5,13,9999,9999,9999,446962768
765,23,Ticks_Phase_5,14,9999,9999,9999,447462456
765,23,Ticks_Phase_5,15,9999,9999,9999,447962220
765,23,Ticks_Phase_5,16,9999,9999,9999,448462956
765,23,Ticks_Phase_5,17,9999,9999,9999,448962640
765,23,Ticks_Phase_5,18,9999,9999,9999,449462336
765,23,Ticks_Phase_5,19,9999,9999,9999,449963116
765,23,Ticks_Phase_5,20,9999,9999,9999,450473068
765,23,Ticks_Phase_5,21,9999,9999,9999,450972756
765,23,Ticks_Phase_5,22,9999,9999,9999,451472440
765,23,Ticks_Phase_5,23,9999,9999,9999,451972208
765,23,Ticks_Phase_5,24,9999,9999,9999,452472936
765,23,Ticks_Phase_5,25,9999,9999,9999,452972628
765,23,Ticks_Phase_5,26,9999,9999,9999,453472312
765,23,Ticks_Phase_5,27,9999,9999,9999,453973048
765,23,Ticks_Phase_5,28,9999,9999,9999,454472808
765,23,Ticks_Phase_5,29,9999,9999,9999,454972504
765,23,Ticks_Phase_5,30,9999,9999,9999,455462984
765,23,Ticks_Phase_5,31,9999,9999,9999,455962744
765,23,Ticks_Phase_5,32,9999,9999,9999,456462432
765,23,Ticks_Phase_5,33,9999,9999,9999,456962116
765,23,Ticks_Phase_5,34,9999,9999,9999,457462856
765,23,Ticks_Phase_5,35,9999,9999,9999,457962620
765,23,Ticks_Phase_5,36,9999,9999,9999,458462300
765,23,Ticks_Phase_5,37,9999,9999,9999,458963044
765,23,Ticks_Phase_5,38,9999,9999,9999,459462732
765,23,Ticks_Phase_5,39,9999,9999,9999,459962492
765,23,Ticks_Phase_5,40,9999,9999,9999,460462156
765,23,Ticks_Phase_5,41,9999,9999,9999,460962892
765,23,Ticks_Phase_5,42,9999,9999,9999,461462652
765,23,Ticks_Phase_5,43,9999,9999,9999,461962340
765,23,Ticks_Phase_5,44,9999,9999,9999,462463068
765,23,Ticks_Phase_5,45,9999,9999,9999,462962760
765,23,Ticks_Phase_5,46,9999,9999,9999,463462452
765,23,Ticks_Phase_5,47,9999,9999,9999,463962216
765,23,Ticks_Phase_5,48,9999,9999,9999,464472164
765,23,Ticks_Phase_5,49,9999,9999,9999,464972892
765,23,Ticks_Phase_5,50,9999,9999,9999,465472580
765,23,Ticks_Phase_5,51,9999,9999,9999,465972344
765,23,Ticks_Phase_5,52,9999,9999,9999,466473076
765,23,Ticks_Phase_5,53,9999,9999,9999,466972772
765,23,Ticks_Phase_5,54,9999,9999,9999,467472456
765,23,Ticks_Phase_5,55,9999,9999,9999,467972216
765,23,Ticks_Phase_5,56,9999,9999,9999,468472956
765,23,Ticks_Phase_5,57,9999,9999,9999,468972640
765,23,Ticks_Phase_5,58,9999,9999,9999,469472328
765,23,Ticks_Phase_5,59,9999,9999,9999,469973072
765,23,Ticks_Phase_5,60,9999,9999,9999,470472828
765,23,Ticks_Phase_5,61,9999,9999,9999,470972524
765,23,Ticks_Phase_5,62,9999,9999,9999,471472188
765,23,Ticks_Phase_5,63,9999,9999,9999,471972920
765,23,Ticks_Phase_5,64,9999,9999,9999,472492152
765,23,Ticks_Phase_5,65,9999,9999,9999,472992892
765,23,Ticks_Phase_5,66,9999,9999,9999,473492580
765,23,Ticks_Phase_5,67,9999,9999,9999,473992264
765,23,Ticks_Phase_5,68,9999,9999,9999,474492996
765,23,Ticks_Phase_5,69,9999,9999,9999,474992768
765,23,Ticks_Phase_5,70,9999,9999,9999,475492456
765,23,Ticks_Phase_5,71,9999,9999,9999,475992140
765,23,Ticks_Phase_5,72,9999,9999,9999,476492868
765,23,Ticks_Phase_5,73,9999,9999,9999,476992636
765,23,Ticks_Phase_5,74,9999,9999,9999,477492328
765,23,Ticks_Phase_5,75,9999,9999,9999,477993060
765,23,Ticks_Phase_5,76,9999,9999,9999,478492748
765,23,Ticks_Phase_5,77,9999,9999,9999,478992512
765,23,Ticks_Phase_5,78,9999,9999,9999,479492200
765,23,Ticks_Phase_5,79,9999,9999,9999,479992932
765,23,Ticks_Phase_5,80,9999,9999,9999,480492624
765,23,Ticks_Phase_5,81,9999,9999,9999,480972912
765,23,Ticks_Phase_5,82,9999,9999,9999,481472604
765,23,Ticks_Phase_5,83,9999,9999,9999,481972292
765,23,Ticks_Phase_5,84,9999,9999,9999,482473076
765,23,Ticks_Phase_5,85,9999,9999,9999,482972768
765,23,Ticks_Phase_5,86,9999,9999,9999,483472456
765,23,Ticks_Phase_5,87,9999,9999,9999,483972220
765,23,Ticks_Phase_5,88,9999,9999,9999,484472952
765,23,Ticks_Phase_5,89,9999,9999,9999,484972640
765,23,Ticks_Phase_5,90,9999,9999,9999,485472328
765,23,Ticks_Phase_5,91,9999,9999,9999,485973064
765,23,Ticks_Phase_5,92,9999,9999,9999,486472828
765,23,Ticks_Phase_5,93,9999,9999,9999,486972508
765,23,Ticks_Phase_5,94,9999,9999,9999,487472196
765,23,Ticks_Phase_5,95,9999,9999,9999,487972936
765,23,Ticks_Phase_5,96,9999,9999,9999,488472696
765,23,Ticks_Phase_5,97,9999,9999,9999,488922216
765,23,Ticks_Phase_5,98,9999,9999,9999,489422952
765,23,Ticks_Phase_5,99,9999,9999,9999,489922640
765,23,Ticks_Phase_5,100,9999,9999,9999,490422328
765,23,Ticks_Phase_5,101,9999,9999,9999,490923116
765,23,Ticks_Phase_5,102,9999,9999,9999,491433064
765,23,Ticks_Phase_5,103,9999,9999,9999,491932748
765,23,Ticks_Phase_5,104,9999,9999,9999,492432508
765,23,Ticks_Phase_5,105,9999,9999,9999,492932204
765,23,Ticks_Phase_5,106,9999,9999,9999,493432940
765,23,Ticks_Phase_5,107,9999,9999,9999,493932628
765,23,Ticks_Phase_5,108,9999,9999,9999,494432316
765,23,Ticks_Phase_5,109,9999,9999,9999,494933052
765,23,Ticks_Phase_5,110,9999,9999,9999,495432812
765,23,Ticks_Phase_5,111,9999,9999,9999,495932500
765,23,Ticks_Phase_5,112,9999,9999,9999,496432192
765,23,Ticks_Phase_5,113,9999,9999,9999,496932928
765,23,Ticks_Phase_5,114,9999,9999,9999,497482860
765,23,Ticks_Phase_5,115,9999,9999,9999,497982548
765,23,Ticks_Phase_5,116,9999,9999,9999,498482236
765,23,Ticks_Phase_5,117,9999,9999,9999,498982980
765,23,Ticks_Phase_5,118,9999,9999,9999,499482740
765,23,Ticks_Phase_5,119,9999,9999,9999,499982428
765,23,Ticks_Phase_5,120,9999,9999,9999,500482120
765,23,Ticks_Phase_5,121,9999,9999,9999,500982852
765,23,Ticks_Phase_5,122,9999,9999,9999,501482616
765,23,Ticks_Phase_5,123,9999,9999,9999,501982296
765,23,Ticks_Phase_5,124,9999,9999,9999,502483040
765,23,Ticks_Phase_5,125,9999,9999,9999,502982728
765,23,Ticks_Phase_5,126,9999,9999,9999,503482492
765,23,Ticks_Phase_5,127,9999,9999,9999,503982148
765,23,Ticks_Phase_5,128,9999,9999,9999,504482932
765,23,Ticks_Phase_5,129,9999,9999,9999,504982620
765,23,Ticks_Phase_5,130,9999,9999,9999,505482312
765,23,Ticks_Phase_5,131,9999,9999,9999,506082432
765,23,Ticks_Phase_5,132,9999,9999,9999,506582136
765,23,Ticks_Phase_5,133,9999,9999,9999,507082876
765,23,Ticks_Phase_5,134,9999,9999,9999,507582568
765,23,Ticks_Phase_5,135,9999,9999,9999,508082256
765,23,Ticks_Phase_5,136,9999,9999,9999,508583040
765,23,Ticks_Phase_5,137,9999,9999,9999,509082728
765,23,Ticks_Phase_5,138,9999,9999,9999,509582436
765,23,Ticks_Phase_5,139,9999,9999,9999,510082124
765,23,Ticks_Phase_5,140,9999,9999,9999,510582860
765,23,Ticks_Phase_5,141,9999,9999,9999,511082620
765,23,Ticks_Phase_5,142,9999,9999,9999,511582324
765,23,Ticks_Phase_5,143,9999,9999,9999,512083060
765,23,Ticks_Phase_5,144,9999,9999,9999,512582756
765,23,Ticks_Phase_5,145,9999,9999,9999,513082436
765,23,Ticks_Phase_5,146,9999,9999,9999,513582200
765,23,Ticks_Phase_5,147,9999,9999,9999,514082932
765,23,Ticks_Phase_5,148,9999,9999,9999,514582624
765,23,Ticks_Phase_5,149,9999,9999,9999,515082312
765,23,Ticks_Phase_5,150,9999,9999,9999,515482680
765,23,Ticks_Phase_5,151,9999,9999,9999,515982444
765,23,Ticks_Phase_5,152,9999,9999,9999,516482132
765,23,Ticks_Phase_5,153,9999,9999,9999,516982860
765,23,Ticks_Phase_5,154,9999,9999,9999,517482548
765,23,Ticks_Phase_5,155,9999,9999,9999,517982312
765,23,Ticks_Phase_5,156,9999,9999,9999,518483044
765,23,Ticks_Phase_5,157,9999,9999,9999,518982736
765,23,Ticks_Phase_5,158,9999,9999,9999,519482424
765,23,Ticks_Phase_5,159,9999,9999,9999,519982184
765,23,Ticks_Phase_5,160,9999,9999,9999,520482920
765,23,Ticks_Phase_5,161,9999,9999,9999,520982608
765,23,Ticks_Phase_5,162,9999,9999,9999,521482300
765,23,Ticks_Phase_5,163,9999,9999,9999,521983032
765,23,Ticks_Phase_5,164,9999,9999,9999,522482796
765,23,Ticks_Phase_5,165,9999,9999,9999,522982484
765,23,Ticks_Phase_5,166,9999,9999,9999,523482172
765,23,Ticks_Phase_5,167,9999,9999,9999,523982912
765,23,Ticks_Phase_5,168,9999,9999,9999,524482676
765,23,Ticks_Phase_5,169,9999,9999,9999,524982360
766,22,Ticks_Phase_8,0,5,42,127,535715172
766,22,Ticks_Phase_8,1,1,48,28,536191324
766,22,Ticks_Phase_8,2,5,42,127,536514908
766,22,Ticks_Phase_8,3,1,48,31,536852340
766,22,Ticks_Phase_8,4,5,42,127,537314620
766,22,Ticks_Phase_8,5,1,48,28,537619636
766,22,Ticks_Phase_8,6,1,48,27,538062916
766,22,Ticks_Phase_8,7,5,42,127,538114548
766,22,Ticks_Phase_8,8,1,48,35,538465156
766,22,Ticks_Phase_8,9,1,48,40,538886504
766,22,Ticks_Phase_8,10,5,42,127,538915136
766,22,Ticks_Phase_8,11,1,48,41,539617468
766,22,Ticks_Phase_8,12,5,42,127,539715128
766,22,Ticks_Phase_8,13,1,48,44,540425564
766,22,Ticks_Phase_8,14,5,42,127,540514560
766,22,Ticks_Phase_8,15,1,48,44,541225648
766,22,Ticks_Phase_8,16,5,42,127,541314496
766,22,Ticks_Phase_8,17,1,48,46,542050892
766,22,Ticks_Phase_8,18,5,42,127,542115180
766,22,Ticks_Phase_8,19,1,48,46,542871496
766,22,Ticks_Phase_8,20,5,42,127,542915064
766,22,Ticks_Phase_8,21,1,48,41,543661772
766,22,Ticks_Phase_8,22,5,42,127,543714628
766,22,Ticks_Phase_8,23,1,48,45,544481052
766,22,Ticks_Phase_8,24,5,42,127,544514264
766,22,Ticks_Phase_8,25,1,48,50,545270580
766,22,Ticks_Phase_8,26,5,42,127,545315172
766,22,Ticks_Phase_8,27,1,48,46,546101744
766,22,Ticks_Phase_8,28,5,42,127,546115032
766,22,Ticks_Phase_8,29,1,48,47,546889400
766,22,Ticks_Phase_8,30,5,42,127,546914968
766,22,Ticks_Phase_8,31,5,42,127,547714312
766,22,Ticks_Phase_8,32,1,48,44,547733164
766,22,Ticks_Phase_8,33,5,42,127,548515072
766,22,Ticks_Phase_8,34,1,48,43,548523960
766,22,Ticks_Phase_8,35,1,48,52,549271904
766,22,Ticks_Phase_8,36,5,42,127,549314948
766,22,Ticks_Phase_8,37,1,48,53,550066028
766,22,Ticks_Phase_8,38,5,42,127,550114884
766,22,Ticks_Phase_8,39,1,48,54,550853536
766,22,Ticks_Phase_8,40,5,42,127,550914376
766,22,Ticks_Phase_8,41,1,48,39,551646512
766,22,Ticks_Phase_8,42,5,42,127,551715060
766,22,Ticks_Phase_8,43,1,48,51,552443748
766,22,Ticks_Phase_8,44,5,42,127,552514920
766,22,Ticks_Phase_8,45,1,48,52,553262336
766,22,Ticks_Phase_8,46,5,42,127,553314852
766,22,Ticks_Phase_8,47,1,48,50,554044820
766,22,Ticks_Phase_8,48,5,42,127,554114416
766,22,Ticks_Phase_8,49,1,48,59,554847672
766,22,Ticks_Phase_8,50,5,42,127,554915100
766,22,Ticks_Phase_8,51,1,48,46,555648060
766,22,Ticks_Phase_8,52,5,42,127,555715132
766,22,Ticks_Phase_8,53,1,48,58,556453464
766,22,Ticks_Phase_8,54,5,42,127,556514696
766,22,Ticks_Phase_8,55,1,48,50,557271388
766,22,Ticks_Phase_8,56,5,42,127,557314408
766,22,Ticks_Phase_8,57,1,48,56,558055376
766,22,Ticks_Phase_8,58,5,42,127,558115164
766,22,Ticks_Phase_8,59,1,48,46,558865196
766,22,Ticks_Phase_8,60,5,42,127,558914804
766,22,Ticks_Phase_8,61,1,48,46,559605672
766,22,Ticks_Phase_8,62,5,42,127,559695120
766,22,Ticks_Phase_8,63,5,42,127,560494912
766,22,Ticks_Phase_8,64,1,48,53,560528812
766,22,Ticks_Phase_8,65,5,42,127,561294772
766,22,Ticks_Phase_8,66,1,48,52,561328548
766,22,Ticks_Phase_8,67,5,42,127,562094440
766,22,Ticks_Phase_8,68,1,48,41,562113740
766,22,Ticks_Phase_8,69,5,42,127,562895120
766,22,Ticks_Phase_8,70,1,48,48,562906704
766,22,Ticks_Phase_8,71,5,42,127,563694908
766,22,Ticks_Phase_8,72,1,48,55,563701244
766,22,Ticks_Phase_8,73,1,48,40,564478928
766,22,Ticks_Phase_8,74,5,42,127,564494764
766,22,Ticks_Phase_8,75,1,48,46,565289496
766,22,Ticks_Phase_8,76,5,42,127,565294548
766,22,Ticks_Phase_8,77,1,48,49,566087044
766,22,Ticks_Phase_8,78,5,42,127,566095380
766,22,Ticks_Phase_8,79,1,48,40,566858292
766,22,Ticks_Phase_8,80,5,42,127,566895016
766,22,Ticks_Phase_8,81,1,48,42,567688264
766,22,Ticks_Phase_8,82,5,42,127,567694656
766,22,Ticks_Phase_8,83,1,48,41,568469624
766,22,Ticks_Phase_8,84,5,42,127,568494616
766,22,Ticks_Phase_8,85,1,48,44,569267340
766,22,Ticks_Phase_8,86,5,42,127,569295448
766,22,Ticks_Phase_8,87,5,42,127,570094940
766,22,Ticks_Phase_8,88,1,48,44,570096500
766,22,Ticks_Phase_8,89,1,48,54,570887052
766,22,Ticks_Phase_8,90,5,42,127,570894720
766,22,Ticks_Phase_8,91,1,48,51,571676352
766,22,Ticks_Phase_8,92,5,42,127,571694356
766,22,Ticks_Phase_8,93,5,42,127,572495420
766,22,Ticks_Phase_8,94,1,48,43,572499660
766,22,Ticks_Phase_8,95,1,48,46,573284616
766,22,Ticks_Phase_8,96,5,42,127,573294900
766,22,Ticks_Phase_8,97,1,48,48,574093912
766,22,Ticks_Phase_8,98,5,42,127,574115432
766,22,Ticks_Phase_8,99,5,42,127,574914800
766,22,Ticks_Phase_8,100,1,48,45,574917848
766,22,Ticks_Phase_8,101,5,42,127,575714660
766,22,Ticks_Phase_8,102,1,48,41,575738004
766,22,Ticks_Phase_8,103,1,48,44,576514224
766,22,Ticks_Phase_8,104,5,42,127,576515488
766,22,Ticks_Phase_8,105,5,42,127,577315356
766,22,Ticks_Phase_8,106,1,48,57,577324696
766,22,Ticks_Phase_8,107,5,42,127,578114844
766,22,Ticks_Phase_8,108,1,48,34,578139604
766,22,Ticks_Phase_8,109,5,42,127,578914628
766,22,Ticks_Phase_8,110,1,48,50,578959160
766,22,Ticks_Phase_8,111,5,42,127,579714340
766,22,Ticks_Phase_8,112,1,48,42,579768336
766,22,Ticks_Phase_8,113,5,42,127,580515172
766,22,Ticks_Phase_8,114,1,48,48,580539812
766,22,Ticks_Phase_8,115,5,42,127,581315208
766,22,Ticks_Phase_8,116,1,48,45,581327244
766,22,Ticks_Phase_8,117,1,48,47,582106128
766,22,Ticks_Phase_8,118,5,42,127,582114692
766,22,Ticks_Phase_8,119,5,42,127,582914408
766,22,Ticks_Phase_8,120,1,48,40,582933636
766,22,Ticks_Phase_8,121,1,48,50,583682104
766,22,Ticks_Phase_8,122,5,42,127,583715088
766,22,Ticks_Phase_8,123,1,48,47,584509224
766,22,Ticks_Phase_8,124,5,42,127,584515244
766,22,Ticks_Phase_8,125,5,42,127,585314740
766,22,Ticks_Phase_8,126,1,48,46,585321000
766,22,Ticks_Phase_8,127,5,42,127,586114380
766,22,Ticks_Phase_8,128,1,48,55,586116976
766,22,Ticks_Phase_8,129,1,48,48,586904396
766,22,Ticks_Phase_8,130,5,42,127,586955300
766,22,Ticks_Phase_8,131,1,48,48,587734468
766,22,Ticks_Phase_8,132,5,42,127,587755160
766,22,Ticks_Phase_8,133,1,48,51,588514256
766,22,Ticks_Phase_8,134,5,42,127,588554648
766,22,Ticks_Phase_8,135,1,48,40,589336584
766,22,Ticks_Phase_8,136,5,42,127,589355332
766,22,Ticks_Phase_8,137,1,48,42,590150140
766,22,Ticks_Phase_8,138,5,42,127,590155264
766,22,Ticks_Phase_8,139,5,42,127,590955136
766,22,Ticks_Phase_8,140,1,48,51,591011568
766,22,Ticks_Phase_8,141,1,48,45,591753492
766,22,Ticks_Phase_8,142,5,42,127,591755136
766,22,Ticks_Phase_8,143,5,42,127,592555456
766,22,Ticks_Phase_8,144,1,48,51,592558452
766,22,Ticks_Phase_8,145,1,48,49,593342196
766,22,Ticks_Phase_8,146,5,42,127,593355260
766,22,Ticks_Phase_8,147,1,48,47,594150000
766,22,Ticks_Phase_8,148,5,42,127,594155120
766,22,Ticks_Phase_8,149,1,48,45,594928972
766,22,Ticks_Phase_8,150,5,42,127,594954464
766,22,Ticks_Phase_8,151,1,48,46,595747180
766,22,Ticks_Phase_8,152,5,42,127,595755368
766,22,Ticks_Phase_8,153,1,48,44,596543000
766,22,Ticks_Phase_8,154,5,42,127,596555232
766,22,Ticks_Phase_8,155,5,42,127,597354948
766,22,Ticks_Phase_8,156,1,48,40,597377012
766,22,Ticks_Phase_8,157,1,48,46,598124748
766,22,Ticks_Phase_8,158,5,42,127,598154504
766,22,Ticks_Phase_8,159,5,42,127,598955568
766,22,Ticks_Phase_8,160,1,48,49,598972924
766,22,Ticks_Phase_8,161,1,48,40,599721588
766,22,Ticks_Phase_8,162,5,42,127,599755048
766,22,Ticks_Phase_8,163,5,42,127,600514928
766,22,Ticks_Phase_8,164,1,48,40,600531976
766,22,Ticks_Phase_8,165,5,42,127,601314788
766,22,Ticks_Phase_8,166,1,48,51,601316200
766,22,Ticks_Phase_8,167,1,48,41,602104212
766,22,Ticks_Phase_8,168,5,42,127,602114272
766,22,Ticks_Phase_8,169,5,42,127,602915036
766,22,Ticks_Phase_8,170,1,48,55,602930212
766,22,Ticks_Phase_8,171,1,48,52,603680112
766,22,Ticks_Phase_8,172,5,42,127,603715040
766,22,Ticks_Phase_8,173,1,48,46,604508732
766,22,Ticks_Phase_8,174,5,42,127,604514604
766,22,Ticks_Phase_8,175,1,48,58,605308592
766,22,Ticks_Phase_8,176,5,42,127,605314388
766,22,Ticks_Phase_8,177,1,48,51,606086588
766,22,Ticks_Phase_8,178,5,42,127,606115220
766,22,Ticks_Phase_8,179,5,42,127,606914888
766,22,Ticks_Phase_8,180,1,48,45,606919056
766,22,Ticks_Phase_8,181,1,48,36,607685064
766,22,Ticks_Phase_8,182,5,42,127,607714820
766,22,Ticks_Phase_8,183,5,42,127,608514464
766,22,Ticks_Phase_8,184,1,48,41,608526720
766,22,Ticks_Phase_8,185,5,42,127,609315144
766,22,Ticks_Phase_8,186,1,48,42,609316632
766,22,Ticks_Phase_8,187,1,48,35,610108376
766,22,Ticks_Phase_8,188,5,42,127,610115148
766,22,Ticks_Phase_8,189,1,48,39,610844964
766,22,Ticks_Phase_8,190,5,42,127,610914860
766,22,Ticks_Phase_8,191,1,48,38,611640476
766,22,Ticks_Phase_8,192,5,42,127,611714496
766,22,Ticks_Phase_8,193,5,42,127,612515188
766,22,Ticks_Phase_8,194,1,48,40,612520032
766,22,Ticks_Phase_8,195,5,42,127,613234996
766,22,Ticks_Phase_8,196,1,48,42,613346804
766,22,Ticks_Phase_8,197,1,48,39,614032736
766,22,Ticks_Phase_8,198,5,42,127,614034776
766,22,Ticks_Phase_8,199,1,48,40,614776564
766,22,Ticks_Phase_8,200,5,42,127,614834584
766,22,Ticks_Phase_8,201,1,48,46,615577400
766,22,Ticks_Phase_8,202,5,42,127,615635416
766,22,Ticks_Phase_8,203,1,48,42,616381324
766,22,Ticks_Phase_8,204,5,42,127,616435056
766,22,Ticks_Phase_8,205,1,48,37,617201108
766,22,Ticks_Phase_8,206,5,42,127,617234916
766,22,Ticks_Phase_8,207,1,48,45,618017228
766,22,Ticks_Phase_8,208,5,42,127,618034628
766,22,Ticks_Phase_8,209,1,48,46,618801504
766,22,Ticks_Phase_8,210,5,42,127,618835236
766,22,Ticks_Phase_8,211,1,48,46,619611920
766,22,Ticks_Phase_8,212,5,42,127,619635096
766,22,Ticks_Phase_8,213,5,42,127,620434744
766,22,Ticks_Phase_8,214,1,48,49,620436608
766,22,Ticks_Phase_8,215,1,48,42,621218760
766,22,Ticks_Phase_8,216,5,42,127,621234620
766,22,Ticks_Phase_8,217,1,48,47,621984552
766,22,Ticks_Phase_8,218,5,42,127,622035524
766,22,Ticks_Phase_8,219,1,48,51,622829744
766,22,Ticks_Phase_8,220,5,42,127,622835164
766,22,Ticks_Phase_8,221,1,48,43,623627436
766,22,Ticks_Phase_8,222,5,42,127,623634724
766,22,Ticks_Phase_8,223,5,42,127,624434520
766,22,Ticks_Phase_8,224,1,48,41,624461744
766,22,Ticks_Phase_8,225,1,48,43,625209176
766,22,Ticks_Phase_8,226,5,42,127,625235492
766,22,Ticks_Phase_8,227,1,48,44,626010612
766,22,Ticks_Phase_8,228,5,42,127,626035056
766,22,Ticks_Phase_8,229,1,48,42,626814520
766,22,Ticks_Phase_8,230,5,42,127,626914756
766,22,Ticks_Phase_8,231,5,42,127,627714492
766,22,Ticks_Phase_8,232,1,48,43,627852100
766,22,Ticks_Phase_8,233,1,48,38,628447444
766,22,Ticks_Phase_8,234,5,42,127,628515316
766,22,Ticks_Phase_8,235,1,48,42,629294632
766,22,Ticks_Phase_8,236,5,42,127,629314880
766,22,Ticks_Phase_8,237,1,48,48,630090520
766,22,Ticks_Phase_8,238,5,42,127,630114668
766,22,Ticks_Phase_8,239,1,48,49,630896152
766,22,Ticks_Phase_8,240,5,42,127,630914304
766,22,Ticks_Phase_8,241,1,48,43,631689044
766,22,Ticks_Phase_8,242,5,42,127,631715360
766,22,Ticks_Phase_8,243,1,48,46,632511544
766,22,Ticks_Phase_8,244,5,42,127,632514872
766,22,Ticks_Phase_8,245,1,48,43,633297628
766,22,Ticks_Phase_8,246,5,42,127,633314584
766,22,Ticks_Phase_8,247,1,48,46,634093604
766,22,Ticks_Phase_8,248,5,42,127,634114372
766,22,Ticks_Phase_8,249,1,48,44,634900568
766,22,Ticks_Phase_8,250,5,42,127,634915352
766,22,Ticks_Phase_8,251,1,48,54,635682600
766,22,Ticks_Phase_8,252,5,42,127,635714988
766,22,Ticks_Phase_8,253,5,42,127,636514632
766,22,Ticks_Phase_8,254,1,48,48,636519320
766,22,Ticks_Phase_8,255,1,48,46,637313368
766,22,Ticks_Phase_8,256,5,42,127,637314932
766,22,Ticks_Phase_8,257,5,42,127,638115400
766,22,Ticks_Phase_8,258,1,48,43,638120836
766,22,Ticks_Phase_8,259,1,48,40,638908440
766,22,Ticks_Phase_8,260,5,42,127,638915204
766,22,Ticks_Phase_8,261,1,48,44,639700208
766,22,Ticks_Phase_8,262,5,42,127,639714624
766,22,Ticks_Phase_8,263,1,48,38,640550996
766,22,Ticks_Phase_8,264,5,42,127,640675472
766,22,Ticks_Phase_8,265,5,42,127,641474860
766,22,Ticks_Phase_8,266,1,48,44,641596752
766,22,Ticks_Phase_8,267,1,48,37,642220164
766,22,Ticks_Phase_8,268,5,42,127,642274640
766,22,Ticks_Phase_8,269,1,48,41,643004152
766,22,Ticks_Phase_8,270,5,42,127,643074424
766,22,Ticks_Phase_8,271,1,48,41,643827600
766,22,Ticks_Phase_8,272,5,42,127,643875332
766,22,Ticks_Phase_8,273,1,48,36,644622900
766,22,Ticks_Phase_8,274,5,42,127,644675120
766,22,Ticks_Phase_8,275,1,48,41,645405676
766,22,Ticks_Phase_8,276,5,42,127,645474532
766,22,Ticks_Phase_8,277,1,48,37,646238492
766,22,Ticks_Phase_8,278,5,42,127,646274392
766,22,Ticks_Phase_8,279,1,48,38,647062996
766,22,Ticks_Phase_8,280,5,42,127,647075152
766,22,Ticks_Phase_8,281,1,48,34,647870512
766,22,Ticks_Phase_8,282,5,42,127,647875112
766,22,Ticks_Phase_8,283,1,48,42,648636608
766,22,Ticks_Phase_8,284,5,42,127,648674748
766,22,Ticks_Phase_8,285,1,48,39,649436012
766,22,Ticks_Phase_8,286,5,42,127,649474312
766,22,Ticks_Phase_8,287,1,48,38,650243892
766,22,Ticks_Phase_8,288,5,42,127,650275292
766,22,Ticks_Phase_8,289,1,48,43,651015296
766,22,Ticks_Phase_8,290,5,42,127,651075156
766,22,Ticks_Phase_8,291,1,48,40,651862028
766,22,Ticks_Phase_8,292,5,42,127,651874644
766,22,Ticks_Phase_8,293,1,48,46,652670652
766,22,Ticks_Phase_8,294,5,42,127,652674356
766,22,Ticks_Phase_8,295,1,48,49,653427084
766,22,Ticks_Phase_8,296,5,42,127,653475264
766,22,Ticks_Phase_8,297,1,48,51,654234508
766,22,Ticks_Phase_8,298,5,42,127,654275000
766,22,Ticks_Phase_8,299,1,48,45,655011076
766,22,Ticks_Phase_8,300,5,42,127,655075012
766,22,Ticks_Phase_8,301,5,42,127,655714596
766,22,Ticks_Phase_8,302,1,48,46,655838684
766,22,Ticks_Phase_8,303,5,42,127,656514532
766,22,Ticks_Phase_8,304,1,48,36,656530976
766,22,Ticks_Phase_8,305,1,48,46,657226512
766,22,Ticks_Phase_8,306,5,42,127,657315132
766,22,Ticks_Phase_8,307,1,48,34,657970804
766,22,Ticks_Phase_8,308,5,42,127,658114860
766,22,Ticks_Phase_8,309,1,48,35,658786096
766,22,Ticks_Phase_8,310,5,42,127,658914792
766,22,Ticks_Phase_8,311,1,48,43,659691340
766,22,Ticks_Phase_8,312,5,42,127,659714296
766,22,Ticks_Phase_8,313,1,48,45,660498172
766,22,Ticks_Phase_8,314,5,42,127,660515276
766,22,Ticks_Phase_8,315,1,48,45,661305076
766,22,Ticks_Phase_8,316,5,42,127,661314988
766,22,Ticks_Phase_8,317,1,48,48,662114560
766,22,Ticks_Phase_8,318,5,42,127,662116048
766,22,Ticks_Phase_8,319,1,48,47,662908616
766,22,Ticks_Phase_8,320,5,42,127,662914264
766,22,Ticks_Phase_8,321,1,48,48,663714352
766,22,Ticks_Phase_8,322,5,42,127,663715996
766,22,Ticks_Phase_8,323,1,48,46,664507168
766,22,Ticks_Phase_8,324,5,42,127,664514912
766,22,Ticks_Phase_8,325,1,48,52,665301704
766,22,Ticks_Phase_8,326,5,42,127,665314768
766,22,Ticks_Phase_8,327,1,48,53,666066976
766,22,Ticks_Phase_8,328,5,42,127,666114332
766,22,Ticks_Phase_8,329,1,48,54,666871320
766,22,Ticks_Phase_8,330,5,42,127,666915092
766,22,Ticks_Phase_8,331,1,48,46,667667748
766,22,Ticks_Phase_8,332,5,42,127,667714876
766,22,Ticks_Phase_8,333,1,48,50,668468876
766,22,Ticks_Phase_8,334,5,42,127,668514812
766,22,Ticks_Phase_8,335,1,48,50,669247920
766,22,Ticks_Phase_8,336,5,42,127,669314376
766,22,Ticks_Phase_8,337,5,42,127,670115140
766,22,Ticks_Phase_8,338,1,48,47,670145024
766,22,Ticks_Phase_8,339,1,48,38,670906904
766,22,Ticks_Phase_8,340,5,42,127,670914944
766,22,Ticks_Phase_8,0,9999,9999,9999,535712884
766,22,Ticks_Phase_8,1,9999,9999,9999,536512620
766,22,Ticks_Phase_8,2,9999,9999,9999,537312332
766,22,Ticks_Phase_8,3,9999,9999,9999,538112112
766,22,Ticks_Phase_8,4,9999,9999,9999,538912848
766,22,Ticks_Phase_8,5,9999,9999,9999,539712620
766,22,Ticks_Phase_8,6,9999,9999,9999,540512348
766,22,Ticks_Phase_8,7,9999,9999,9999,541312060
766,22,Ticks_Phase_8,8,9999,9999,9999,542112892
766,22,Ticks_Phase_8,9,9999,9999,9999,542912628
766,22,Ticks_Phase_8,10,9999,9999,9999,543712340
766,22,Ticks_Phase_8,11,9999,9999,9999,544512052
766,22,Ticks_Phase_8,12,9999,9999,9999,545312884
766,22,Ticks_Phase_8,13,9999,9999,9999,546112596
766,22,Ticks_Phase_8,14,9999,9999,9999,546912384
766,22,Ticks_Phase_8,15,9999,9999,9999,547712100
766,22,Ticks_Phase_8,16,9999,9999,9999,548512860
766,22,Ticks_Phase_8,17,9999,9999,9999,549312588
766,22,Ticks_Phase_8,18,9999,9999,9999,550112376
766,22,Ticks_Phase_8,19,9999,9999,9999,550912088
766,22,Ticks_Phase_8,20,9999,9999,9999,551712848
766,22,Ticks_Phase_8,21,9999,9999,9999,552512632
766,22,Ticks_Phase_8,22,9999,9999,9999,553312344
766,22,Ticks_Phase_8,23,9999,9999,9999,554112056
766,22,Ticks_Phase_8,24,9999,9999,9999,554912888
766,22,Ticks_Phase_8,25,9999,9999,9999,555712624
766,22,Ticks_Phase_8,26,9999,9999,9999,556512336
766,22,Ticks_Phase_8,27,9999,9999,9999,557312120
766,22,Ticks_Phase_8,28,9999,9999,9999,558112880
766,22,Ticks_Phase_8,29,9999,9999,9999,558912592
766,22,Ticks_Phase_8,30,9999,9999,9999,559692908
766,22,Ticks_Phase_8,31,9999,9999,9999,560492628
766,22,Ticks_Phase_8,32,9999,9999,9999,561292412
766,22,Ticks_Phase_8,33,9999,9999,9999,562092128
766,22,Ticks_Phase_8,34,9999,9999,9999,562892908
766,22,Ticks_Phase_8,35,9999,9999,9999,563692620
766,22,Ticks_Phase_8,36,9999,9999,9999,564492400
766,22,Ticks_Phase_8,37,9999,9999,9999,565292112
766,22,Ticks_Phase_8,38,9999,9999,9999,566092872
766,22,Ticks_Phase_8,39,9999,9999,9999,566892656
766,22,Ticks_Phase_8,40,9999,9999,9999,567692368
766,22,Ticks_Phase_8,41,9999,9999,9999,568492156
766,22,Ticks_Phase_8,42,9999,9999,9999,569292864
766,22,Ticks_Phase_8,43,9999,9999,9999,570092656
766,22,Ticks_Phase_8,44,9999,9999,9999,570892360
766,22,Ticks_Phase_8,45,9999,9999,9999,571692144
766,22,Ticks_Phase_8,46,9999,9999,9999,572492912
766,22,Ticks_Phase_8,47,9999,9999,9999,573292616
766,22,Ticks_Phase_8,48,9999,9999,9999,574112844
766,22,Ticks_Phase_8,49,9999,9999,9999,574912588
766,22,Ticks_Phase_8,50,9999,9999,9999,575712376
766,22,Ticks_Phase_8,51,9999,9999,9999,576512088
766,22,Ticks_Phase_8,52,9999,9999,9999,577312844
766,22,Ticks_Phase_8,53,9999,9999,9999,578112632
766,22,Ticks_Phase_8,54,9999,9999,9999,578912340
766,22,Ticks_Phase_8,55,9999,9999,9999,579712056
766,22,Ticks_Phase_8,56,9999,9999,9999,580512888
766,22,Ticks_Phase_8,57,9999,9999,9999,581312624
766,22,Ticks_Phase_8,58,9999,9999,9999,582112328
766,22,Ticks_Phase_8,59,9999,9999,9999,582912120
766,22,Ticks_Phase_8,60,9999,9999,9999,583712876
766,22,Ticks_Phase_8,61,9999,9999,9999,584512588
766,22,Ticks_Phase_8,62,9999,9999,9999,585312380
766,22,Ticks_Phase_8,63,9999,9999,9999,586112092
766,22,Ticks_Phase_8,64,9999,9999,9999,586952788
766,22,Ticks_Phase_8,65,9999,9999,9999,587752576
766,22,Ticks_Phase_8,66,9999,9999,9999,588552288
766,22,Ticks_Phase_8,67,9999,9999,9999,589353044
766,22,Ticks_Phase_8,68,9999,9999,9999,590152828
766,22,Ticks_Phase_8,69,9999,9999,9999,590952552
766,22,Ticks_Phase_8,70,9999,9999,9999,591752260
766,22,Ticks_Phase_8,71,9999,9999,9999,592553020
766,22,Ticks_Phase_8,72,9999,9999,9999,593352824
766,22,Ticks_Phase_8,73,9999,9999,9999,594152540
766,22,Ticks_Phase_8,74,9999,9999,9999,594952252
766,22,Ticks_Phase_8,75,9999,9999,9999,595753084
766,22,Ticks_Phase_8,76,9999,9999,9999,596552796
766,22,Ticks_Phase_8,77,9999,9999,9999,597352512
766,22,Ticks_Phase_8,78,9999,9999,9999,598152292
766,22,Ticks_Phase_8,79,9999,9999,9999,598953056
766,22,Ticks_Phase_8,80,9999,9999,9999,599752764
766,22,Ticks_Phase_8,81,9999,9999,9999,600512568
766,22,Ticks_Phase_8,82,9999,9999,9999,601312352
766,22,Ticks_Phase_8,83,9999,9999,9999,602112060
766,22,Ticks_Phase_8,84,9999,9999,9999,602912824
766,22,Ticks_Phase_8,85,9999,9999,9999,603712604
766,22,Ticks_Phase_8,86,9999,9999,9999,604512316
766,22,Ticks_Phase_8,87,9999,9999,9999,605312104
766,22,Ticks_Phase_8,88,9999,9999,9999,606112860
766,22,Ticks_Phase_8,89,9999,9999,9999,606912604
766,22,Ticks_Phase_8,90,9999,9999,9999,607712384
766,22,Ticks_Phase_8,91,9999,9999,9999,608512100
766,22,Ticks_Phase_8,92,9999,9999,9999,609312860
766,22,Ticks_Phase_8,93,9999,9999,9999,610112640
766,22,Ticks_Phase_8,94,9999,9999,9999,610912348
766,22,Ticks_Phase_8,95,9999,9999,9999,611712060
766,22,Ticks_Phase_8,96,9999,9999,9999,612512828
766,22,Ticks_Phase_8,97,9999,9999,9999,613232708
766,22,Ticks_Phase_8,98,9999,9999,9999,614032452
766,22,Ticks_Phase_8,99,9999,9999,9999,614832224
766,22,Ticks_Phase_8,100,9999,9999,9999,615632980
766,22,Ticks_Phase_8,101,9999,9999,9999,616432696
766,22,Ticks_Phase_8,102,9999,9999,9999,617232480
766,22,Ticks_Phase_8,103,9999,9999,9999,618032192
766,22,Ticks_Phase_8,104,9999,9999,9999,618832952
766,22,Ticks_Phase_8,105,9999,9999,9999,619632736
766,22,Ticks_Phase_8,106,9999,9999,9999,620432456
766,22,Ticks_Phase_8,107,9999,9999,9999,621232184
766,22,Ticks_Phase_8,108,9999,9999,9999,622033016
766,22,Ticks_Phase_8,109,9999,9999,9999,622832728
766,22,Ticks_Phase_8,110,9999,9999,9999,623632440
766,22,Ticks_Phase_8,111,9999,9999,9999,624432232
766,22,Ticks_Phase_8,112,9999,9999,9999,625232984
766,22,Ticks_Phase_8,113,9999,9999,9999,626032696
766,22,Ticks_Phase_8,114,9999,9999,9999,626912368
766,22,Ticks_Phase_8,115,9999,9999,9999,627712056
766,22,Ticks_Phase_8,116,9999,9999,9999,628512880
766,22,Ticks_Phase_8,117,9999,9999,9999,629312592
766,22,Ticks_Phase_8,118,9999,9999,9999,630112380
766,22,Ticks_Phase_8,119,9999,9999,9999,630912092
766,22,Ticks_Phase_8,120,9999,9999,9999,631712852
766,22,Ticks_Phase_8,121,9999,9999,9999,632512588
766,22,Ticks_Phase_8,122,9999,9999,9999,633312372
766,22,Ticks_Phase_8,123,9999,9999,9999,634112084
766,22,Ticks_Phase_8,124,9999,9999,9999,634912840
766,22,Ticks_Phase_8,125,9999,9999,9999,635712628
766,22,Ticks_Phase_8,126,9999,9999,9999,636512348
766,22,Ticks_Phase_8,127,9999,9999,9999,637312056
766,22,Ticks_Phase_8,128,9999,9999,9999,638112888
766,22,Ticks_Phase_8,129,9999,9999,9999,638912620
766,22,Ticks_Phase_8,130,9999,9999,9999,639712332
766,22,Ticks_Phase_8,131,9999,9999,9999,640672888
766,22,Ticks_Phase_8,132,9999,9999,9999,641472572
766,22,Ticks_Phase_8,133,9999,9999,9999,642272352
766,22,Ticks_Phase_8,134,9999,9999,9999,643072064
766,22,Ticks_Phase_8,135,9999,9999,9999,643872824
766,22,Ticks_Phase_8,136,9999,9999,9999,644672608
766,22,Ticks_Phase_8,137,9999,9999,9999,645472320
766,22,Ticks_Phase_8,138,9999,9999,9999,646272104
766,22,Ticks_Phase_8,139,9999,9999,9999,647072864
766,22,Ticks_Phase_8,140,9999,9999,9999,647872600
766,22,Ticks_Phase_8,141,9999,9999,9999,648672312
766,22,Ticks_Phase_8,142,9999,9999,9999,649472100
766,22,Ticks_Phase_8,143,9999,9999,9999,650272860
766,22,Ticks_Phase_8,144,9999,9999,9999,651072572
766,22,Ticks_Phase_8,145,9999,9999,9999,651872356
766,22,Ticks_Phase_8,146,9999,9999,9999,652672072
766,22,Ticks_Phase_8,147,9999,9999,9999,653472828
766,22,Ticks_Phase_8,148,9999,9999,9999,654272640
766,22,Ticks_Phase_8,149,9999,9999,9999,655072352
766,22,Ticks_Phase_8,150,9999,9999,9999,655712308
766,22,Ticks_Phase_8,151,9999,9999,9999,656512096
766,22,Ticks_Phase_8,152,9999,9999,9999,657312848
766,22,Ticks_Phase_8,153,9999,9999,9999,658112572
766,22,Ticks_Phase_8,154,9999,9999,9999,658912356
766,22,Ticks_Phase_8,155,9999,9999,9999,659712084
766,22,Ticks_Phase_8,156,9999,9999,9999,660512844
766,22,Ticks_Phase_8,157,9999,9999,9999,661312628
766,22,Ticks_Phase_8,158,9999,9999,9999,662112348
766,22,Ticks_Phase_8,159,9999,9999,9999,662912056
766,22,Ticks_Phase_8,160,9999,9999,9999,663712892
766,22,Ticks_Phase_8,161,9999,9999,9999,664512624
766,22,Ticks_Phase_8,162,9999,9999,9999,665312336
766,22,Ticks_Phase_8,163,9999,9999,9999,666112120
766,22,Ticks_Phase_8,164,9999,9999,9999,666912880
766,22,Ticks_Phase_8,165,9999,9999,9999,667712592
766,22,Ticks_Phase_8,166,9999,9999,9999,668512380
766,22,Ticks_Phase_8,167,9999,9999,9999,669312088
766,22,Ticks_Phase_8,168,9999,9999,9999,670112852
766,22,Ticks_Phase_8,169,9999,9999,9999,670912584
767,21,Ticks_Linear_5,0,5,42,127,681235712
767,21,Ticks_Linear_5,1,5,42,127,681716184
767,21,Ticks_Linear_5,2,1,48,39,681973956
767,21,Ticks_Linear_5,3,5,42,127,682196488
767,21,Ticks_Linear_5,4,1,48,33,682418152
767,21,Ticks_Linear_5,5,5,42,127,682675444
767,21,Ticks_Linear_5,6,1,48,38,682868032
767,21,Ticks_Linear_5,7,5,42,127,683155724
767,21,Ticks_Linear_5,8,1,48,41,683395140
767,21,Ticks_Linear_5,9,5,42,127,683646356
767,21,Ticks_Linear_5,10,1,48,38,683816948
767,21,Ticks_Linear_5,11,5,42,127,684135796
767,21,Ticks_Linear_5,12,1,48,42,684303776
767,21,Ticks_Linear_5,13,1,48,36,684510836
767,21,Ticks_Linear_5,14,5,42,127,684626412
767,21,Ticks_Linear_5,15,1,48,14,684769072
767,21,Ticks_Linear_5,16,1,48,33,684995916
767,21,Ticks_Linear_5,17,5,42,127,685115760
767,21,Ticks_Linear_5,18,1,48,43,685250328
767,21,Ticks_Linear_5,19,5,42,127,685606544
767,21,Ticks_Linear_5,20,1,48,37,685637004
767,21,Ticks_Linear_5,21,1,48,41,686096916
767,21,Ticks_Linear_5,22,5,42,127,686106164
767,21,Ticks_Linear_5,23,1,48,50,686588448
767,21,Ticks_Linear_5,24,5,42,127,686605564
767,21,Ticks_Linear_5,25,1,48,46,687083576
767,21,Ticks_Linear_5,26,5,42,127,687106612
767,21,Ticks_Linear_5,27,1,48,52,687589496
767,21,Ticks_Linear_5,28,5,42,127,687616644
767,21,Ticks_Linear_5,29,1,48,47,688080956
767,21,Ticks_Linear_5,30,5,42,127,688115972
767,21,Ticks_Linear_5,31,1,48,51,688607252
767,21,Ticks_Linear_5,32,5,42,127,688626008
767,21,Ticks_Linear_5,33,1,48,54,689105004
767,21,Ticks_Linear_5,34,5,42,127,689135968
767,21,Ticks_Linear_5,35,1,48,49,689605372
767,21,Ticks_Linear_5,36,5,42,127,689646076
767,21,Ticks_Linear_5,37,1,48,48,690111356
767,21,Ticks_Linear_5,38,5,42,127,690155884
767,21,Ticks_Linear_5,39,1,48,49,690630452
767,21,Ticks_Linear_5,40,5,42,127,690665768
767,21,Ticks_Linear_5,41,1,48,47,691121688
767,21,Ticks_Linear_5,42,5,42,127,691185912
767,21,Ticks_Linear_5,43,1,48,37,691636524
767,21,Ticks_Linear_5,44,5,42,127,691706428
767,21,Ticks_Linear_5,45,1,48,48,692187368
767,21,Ticks_Linear_5,46,5,42,127,692226424
767,21,Ticks_Linear_5,47,1,48,47,692681820
767,21,Ticks_Linear_5,48,5,42,127,692755704
767,21,Ticks_Linear_5,49,1,48,40,693224812
767,21,Ticks_Linear_5,50,5,42,127,693276144
767,21,Ticks_Linear_5,51,1,48,43,693743516
767,21,Ticks_Linear_5,52,5,42,127,693805424
767,21,Ticks_Linear_5,53,1,48,44,694278500
767,21,Ticks_Linear_5,54,5,42,127,694335752
767,21,Ticks_Linear_5,55,1,48,45,694846048
767,21,Ticks_Linear_5,56,5,42,127,694866528
767,21,Ticks_Linear_5,57,1,48,42,695380264
767,21,Ticks_Linear_5,58,5,42,127,695395660
767,21,Ticks_Linear_5,59,5,42,127,695926368
767,21,Ticks_Linear_5,60,1,48,47,695932704
767,21,Ticks_Linear_5,61,1,48,45,696430068
767,21,Ticks_Linear_5,62,5,42,127,696465756
767,21,Ticks_Linear_5,63,1,48,43,696936132
767,21,Ticks_Linear_5,64,5,42,127,697005396
767,21,Ticks_Linear_5,65,1,48,42,697484888
767,21,Ticks_Linear_5,66,5,42,127,697546280
767,21,Ticks_Linear_5,67,1,48,43,698013784
767,21,Ticks_Linear_5,68,5,42,127,698085672
767,21,Ticks_Linear_5,69,1,48,40,698563768
767,21,Ticks_Linear_5,70,5,42,127,698626408
767,21,Ticks_Linear_5,71,1,48,36,699135728
767,21,Ticks_Linear_5,72,5,42,127,699185492
767,21,Ticks_Linear_5,73,1,48,30,699729332
767,21,Ticks_Linear_5,74,5,42,127,699736416
767,21,Ticks_Linear_5,75,5,42,127,700295508
767,21,Ticks_Linear_5,76,1,48,34,700302516
767,21,Ticks_Linear_5,77,5,42,127,700845328
767,21,Ticks_Linear_5,78,1,48,35,700860432
767,21,Ticks_Linear_5,79,5,42,127,701396472
767,21,Ticks_Linear_5,80,1,48,36,701411724
767,21,Ticks_Linear_5,81,5,42,127,701955340
767,21,Ticks_Linear_5,82,1,48,30,701961600
767,21,Ticks_Linear_5,83,5,42,127,702515620
767,21,Ticks_Linear_5,84,1,48,33,702537612
767,21,Ticks_Linear_5,85,5,42,127,703075580
767,21,Ticks_Linear_5,86,1,48,38,703101312
767,21,Ticks_Linear_5,87,1,48,37,703619340
767,21,Ticks_Linear_5,88,5,42,127,703635704
767,21,Ticks_Linear_5,89,1,48,43,704179644
767,21,Ticks_Linear_5,90,5,42,127,704196236
767,21,Ticks_Linear_5,91,1,48,39,704759768
767,21,Ticks_Linear_5,92,5,42,127,704766256
767,21,Ticks_Linear_5,93,1,48,33,705332180
767,21,Ticks_Linear_5,94,5,42,127,705335824
767,21,Ticks_Linear_5,95,1,48,36,705902652
767,21,Ticks_Linear_5,96,5,42,127,705906216
767,21,Ticks_Linear_5,97,5,42,127,706476344
767,21,Ticks_Linear_5,98,1,48,42,706489720
767,21,Ticks_Linear_5,99,5,42,127,707045612
767,21,Ticks_Linear_5,100,1,48,42,707076296
767,21,Ticks_Linear_5,101,1,48,39,707625960
767,21,Ticks_Linear_5,102,5,42,127,707627380
767,21,Ticks_Linear_5,103,5,42,127,708206164
767,21,Ticks_Linear_5,104,1,48,29,708231304
767,21,Ticks_Linear_5,105,1,48,40,708785944
767,21,Ticks_Linear_5,106,5,42,127,708787132
767,21,Ticks_Linear_5,107,5,42,127,709366076
767,21,Ticks_Linear_5,108,1,48,43,709400196
767,21,Ticks_Linear_5,109,5,42,127,709945608
767,21,Ticks_Linear_5,110,1,48,36,709992604
767,21,Ticks_Linear_5,111,5,42,127,710535544
767,21,Ticks_Linear_5,112,1,48,38,710584820
767,21,Ticks_Linear_5,113,1,48,38,711070684
767,21,Ticks_Linear_5,114,5,42,127,711126324
767,21,Ticks_Linear_5,115,1,48,46,711682444
767,21,Ticks_Linear_5,116,5,42,127,711716112
767,21,Ticks_Linear_5,117,1,48,47,712282120
767,21,Ticks_Linear_5,118,5,42,127,712306052
767,21,Ticks_Linear_5,119,1,48,44,712891324
767,21,Ticks_Linear_5,120,5,42,127,712896160
767,21,Ticks_Linear_5,121,5,42,127,713495920
767,21,Ticks_Linear_5,122,1,48,37,713503080
767,21,Ticks_Linear_5,123,1,48,41,714048072
767,21,Ticks_Linear_5,124,5,42,127,714096260
767,21,Ticks_Linear_5,125,1,48,47,714655836
767,21,Ticks_Linear_5,126,5,42,127,714696184
767,21,Ticks_Linear_5,127,1,48,44,715272968
767,21,Ticks_Linear_5,128,5,42,127,715296084
767,21,Ticks_Linear_5,129,5,42,127,715896140
767,21,Ticks_Linear_5,130,1,48,48,715921648
767,21,Ticks_Linear_5,131,1,48,38,716470248
767,21,Ticks_Linear_5,132,5,42,127,716505568
767,21,Ticks_Linear_5,133,1,48,43,717070900
767,21,Ticks_Linear_5,134,5,42,127,717115952
767,21,Ticks_Linear_5,135,1,48,46,717657772
767,21,Ticks_Linear_5,136,5,42,127,717726032
767,21,Ticks_Linear_5,137,1,48,48,718249084
767,21,Ticks_Linear_5,138,5,42,127,718336440
767,21,Ticks_Linear_5,139,1,48,54,718865460
767,21,Ticks_Linear_5,140,5,42,127,718945848
767,21,Ticks_Linear_5,141,1,48,46,719537424
767,21,Ticks_Linear_5,142,5,42,127,719566216
767,21,Ticks_Linear_5,143,1,48,46,720158812
767,21,Ticks_Linear_5,144,5,42,127,720185736
767,21,Ticks_Linear_5,145,1,48,40,720737140
767,21,Ticks_Linear_5,146,5,42,127,720806176
767,21,Ticks_Linear_5,147,1,48,45,721375636
767,21,Ticks_Linear_5,148,5,42,127,721425920
767,21,Ticks_Linear_5,149,5,42,127,722046272
767,21,Ticks_Linear_5,150,1,48,42,722099668
767,21,Ticks_Linear_5,151,1,48,39,722638360
767,21,Ticks_Linear_5,152,5,42,127,722676072
767,21,Ticks_Linear_5,153,1,48,36,723257056
767,21,Ticks_Linear_5,154,5,42,127,723305848
767,21,Ticks_Linear_5,155,1,48,38,723881912
767,21,Ticks_Linear_5,156,5,42,127,723935652
767,21,Ticks_Linear_5,157,1,48,40,724509152
767,21,Ticks_Linear_5,158,5,42,127,724566408
767,21,Ticks_Linear_5,159,1,48,37,725150384
767,21,Ticks_Linear_5,160,5,42,127,725196208
767,21,Ticks_Linear_5,161,1,48,41,725801676
767,21,Ticks_Linear_5,162,5,42,127,725836020
767,21,Ticks_Linear_5,163,1,48,41,726434756
767,21,Ticks_Linear_5,164,5,42,127,726476084
767,21,Ticks_Linear_5,165,1,48,39,727096468
767,21,Ticks_Linear_5,166,5,42,127,727116196
767,21,Ticks_Linear_5,167,1,48,39,727739820
767,21,Ticks_Linear_5,168,5,42,127,727756112
767,21,Ticks_Linear_5,169,1,48,44,728383524
767,21,Ticks_Linear_5,170,5,42,127,728396148
767,21,Ticks_Linear_5,171,1,48,36,729025840
767,21,Ticks_Linear_5,172,5,42,127,729046324
767,21,Ticks_Linear_5,173,1,48,35,729686248
767,21,Ticks_Linear_5,174,5,42,127,729695720
767,21,Ticks_Linear_5,175,1,48,38,730310128
767,21,Ticks_Linear_5,176,5,42,127,730345744
767,21,Ticks_Linear_5,177,5,42,127,730995976
767,21,Ticks_Linear_5,178,1,48,33,731003208
767,21,Ticks_Linear_5,179,5,42,127,731646296
767,21,Ticks_Linear_5,180,1,48,30,731658928
767,21,Ticks_Linear_5,181,1,48,35,732293020
767,21,Ticks_Linear_5,182,5,42,127,732305800
767,21,Ticks_Linear_5,183,5,42,127,732966388
767,21,Ticks_Linear_5,184,1,48,36,732967356
767,21,Ticks_Linear_5,185,1,48,45,733618760
767,21,Ticks_Linear_5,186,5,42,127,733625840
767,21,Ticks_Linear_5,187,1,48,43,734219708
767,21,Ticks_Linear_5,188,5,42,127,734286100
767,21,Ticks_Linear_5,189,1,48,35,734902528
767,21,Ticks_Linear_5,190,5,42,127,734945708
767,21,Ticks_Linear_5,191,1,48,39,735599860
767,21,Ticks_Linear_5,192,5,42,127,735616376
767,21,Ticks_Linear_5,193,1,48,29,736201424
767,21,Ticks_Linear_5,194,5,42,127,736285944
767,21,Ticks_Linear_5,195,1,48,30,736935108
767,21,Ticks_Linear_5,196,5,42,127,736955884
767,21,Ticks_Linear_5,197,1,48,36,737566156
767,21,Ticks_Linear_5,198,5,42,127,737625728
767,21,Ticks_Linear_5,199,1,48,39,738208964
767,21,Ticks_Linear_5,200,5,42,127,738296048
767,21,Ticks_Linear_5,201,1,48,26,738921736
767,21,Ticks_Linear_5,202,5,42,127,738976076
767,21,Ticks_Linear_5,203,1,48,41,739574916
767,21,Ticks_Linear_5,204,5,42,127,739655980
767,21,Ticks_Linear_5,205,1,48,52,740275032
767,21,Ticks_Linear_5,206,5,42,127,740336104
767,21,Ticks_Linear_5,207,1,48,43,740959176
767,21,Ticks_Linear_5,208,5,42,127,741015908
767,21,Ticks_Linear_5,209,1,48,46,741664100
767,21,Ticks_Linear_5,210,5,42,127,741695960
767,21,Ticks_Linear_5,211,5,42,127,742385980
767,21,Ticks_Linear_5,212,1,48,48,742388652
767,21,Ticks_Linear_5,213,5,42,127,743076512
767,21,Ticks_Linear_5,214,1,48,38,743107268
767,21,Ticks_Linear_5,215,5,42,127,743766504
767,21,Ticks_Linear_5,216,1,48,41,743815976
767,21,Ticks_Linear_5,217,5,42,127,744455692
767,21,Ticks_Linear_5,218,1,48,49,744463376
767,21,Ticks_Linear_5,219,1,48,44,745106092
767,21,Ticks_Linear_5,220,5,42,127,745145848
767,21,Ticks_Linear_5,221,1,48,48,745810776
767,21,Ticks_Linear_5,222,5,42,127,745846020
767,21,Ticks_Linear_5,223,1,48,44,746488140
767,21,Ticks_Linear_5,224,5,42,127,746545468
767,21,Ticks_Linear_5,225,1,48,42,747208784
767,21,Ticks_Linear_5,226,5,42,127,747245964
767,21,Ticks_Linear_5,227,1,48,35,747934420
767,21,Ticks_Linear_5,228,5,42,127,747946388
767,21,Ticks_Linear_5,229,1,48,35,748641124
767,21,Ticks_Linear_5,230,5,42,127,748645888
767,21,Ticks_Linear_5,231,1,48,34,749346572
767,21,Ticks_Linear_5,232,5,42,127,749356424
767,21,Ticks_Linear_5,233,1,48,38,750031636
767,21,Ticks_Linear_5,234,5,42,127,750066056
767,21,Ticks_Linear_5,235,5,42,127,750775696
767,21,Ticks_Linear_5,236,1,48,53,750798888
767,21,Ticks_Linear_5,237,1,48,40,751418828
767,21,Ticks_Linear_5,238,5,42,127,751486492
767,21,Ticks_Linear_5,239,1,48,38,752162380
767,21,Ticks_Linear_5,240,5,42,127,752195980
767,21,Ticks_Linear_5,241,1,48,43,752839220
767,21,Ticks_Linear_5,242,5,42,127,752915872
767,21,Ticks_Linear_5,243,1,48,40,753527268
767,21,Ticks_Linear_5,244,5,42,127,753635676
767,21,Ticks_Linear_5,245,1,48,40,754240192
767,21,Ticks_Linear_5,246,5,42,127,754355720
767,21,Ticks_Linear_5,247,1,48,44,754958816
767,21,Ticks_Linear_5,248,5,42,127,755075364
767,21,Ticks_Linear_5,249,1,48,42,755786616
767,21,Ticks_Linear_5,250,5,42,127,755796320
767,21,Ticks_Linear_5,251,5,42,127,756525432
767,21,Ticks_Linear_5,252,1,48,46,756539784
767,21,Ticks_Linear_5,253,1,48,40,757216220
767,21,Ticks_Linear_5,254,5,42,127,757255432
767,21,Ticks_Linear_5,255,1,48,42,757971384
767,21,Ticks_Linear_5,256,5,42,127,757985584
767,21,Ticks_Linear_5,257,1,48,44,758711272
767,21,Ticks_Linear_5,258,5,42,127,758715888
767,21,Ticks_Linear_5,259,5,42,127,759445872
767,21,Ticks_Linear_5,260,1,48,39,759466544
767,21,Ticks_Linear_5,261,1,48,44,760148272
767,21,Ticks_Linear_5,262,5,42,127,760186352
767,21,Ticks_Linear_5,263,1,48,39,760914444
767,21,Ticks_Linear_5,264,5,42,127,760925640
767,21,Ticks_Linear_5,265,1,48,44,761637932
767,21,Ticks_Linear_5,266,5,42,127,761665904
767,21,Ticks_Linear_5,267,5,42,127,762406396
767,21,Ticks_Linear_5,268,1,48,39,762424948
767,21,Ticks_Linear_5,269,1,48,42,763136284
767,21,Ticks_Linear_5,270,5,42,127,763145532
767,21,Ticks_Linear_5,271,1,48,55,763823676
767,21,Ticks_Linear_5,272,5,42,127,763896200
767,21,Ticks_Linear_5,273,1,48,43,764581452
767,21,Ticks_Linear_5,274,5,42,127,764645824
767,21,Ticks_Linear_5,275,1,48,37,765378784
767,21,Ticks_Linear_5,276,5,42,127,765396420
767,21,Ticks_Linear_5,277,1,48,32,766137172
767,21,Ticks_Linear_5,278,5,42,127,766146048
767,21,Ticks_Linear_5,279,5,42,127,766895384
767,21,Ticks_Linear_5,280,1,48,34,766907568
767,21,Ticks_Linear_5,281,1,48,36,767632796
767,21,Ticks_Linear_5,282,5,42,127,767656308
767,21,Ticks_Linear_5,283,1,48,36,768342652
767,21,Ticks_Linear_5,284,5,42,127,768416240
767,21,Ticks_Linear_5,285,1,48,45,769105096
767,21,Ticks_Linear_5,286,5,42,127,769176048
767,21,Ticks_Linear_5,287,5,42,127,769935640
767,21,Ticks_Linear_5,288,1,48,43,769978024
767,21,Ticks_Linear_5,289,1,48,45,770651060
767,21,Ticks_Linear_5,290,5,42,127,770695440
767,21,Ticks_Linear_5,291,1,48,46,771405708
767,21,Ticks_Linear_5,292,5,42,127,771465512
767,21,Ticks_Linear_5,293,1,48,48,772174504
767,21,Ticks_Linear_5,294,5,42,127,772235576
767,21,Ticks_Linear_5,295,1,48,42,772962236
767,21,Ticks_Linear_5,296,5,42,127,773005868
767,21,Ticks_Linear_5,297,1,48,43,773750060
767,21,Ticks_Linear_5,298,5,42,127,773775936
767,21,Ticks_Linear_5,299,5,42,127,774545936
767,21,Ticks_Linear_5,300,1,48,44,774552124
767,21,Ticks_Linear_5,301,5,42,127,775326188
767,21,Ticks_Linear_5,302,1,48,42,775330356
767,21,Ticks_Linear_5,303,1,48,46,776085928
767,21,Ticks_Linear_5,304,5,42,127,776106360
767,21,Ticks_Linear_5,305,1,48,48,776810084
767,21,Ticks_Linear_5,306,5,42,127,776885492
767,21,Ticks_Linear_5,307,1,48,43,777643392
767,21,Ticks_Linear_5,308,5,42,127,777665816
767,21,Ticks_Linear_5,309,1,48,47,778442724
767,21,Ticks_Linear_5,310,5,42,127,778446292
767,21,Ticks_Linear_5,311,1,48,55,779205992
767,21,Ticks_Linear_5,312,5,42,127,779235832
767,21,Ticks_Linear_5,313,1,48,46,779924960
767,21,Ticks_Linear_5,314,5,42,127,780026256
767,21,Ticks_Linear_5,315,1,48,55,780811348
767,21,Ticks_Linear_5,316,5,42,127,780815732
767,21,Ticks_Linear_5,317,5,42,127,781606252
767,21,Ticks_Linear_5,318,1,48,53,781655584
767,21,Ticks_Linear_5,319,1,48,44,782270980
767,21,Ticks_Linear_5,320,5,42,127,782396068
767,21,Ticks_Linear_5,321,1,48,41,783153148
767,21,Ticks_Linear_5,322,5,42,127,783195584
767,21,Ticks_Linear_5,323,1,48,45,783989200
767,21,Ticks_Linear_5,324,5,42,127,783996280
767,21,Ticks_Linear_5,325,5,42,127,784795936
767,21,Ticks_Linear_5,326,1,48,54,784817508
767,21,Ticks_Linear_5,327,5,42,127,785595908
767,21,Ticks_Linear_5,328,1,48,53,785616552
767,21,Ticks_Linear_5,329,1,48,48,786394728
767,21,Ticks_Linear_5,330,5,42,127,786396304
767,21,Ticks_Linear_5,331,1,48,40,787154648
767,21,Ticks_Linear_5,332,5,42,127,787205608
767,21,Ticks_Linear_5,333,1,48,39,787944864
767,21,Ticks_Linear_5,334,5,42,127,788015592
767,21,Ticks_Linear_5,335,1,48,48,788768764
767,21,Ticks_Linear_5,336,5,42,127,788825572
767,21,Ticks_Linear_5,337,1,48,46,789582192
767,21,Ticks_Linear_5,338,5,42,127,789635408
767,21,Ticks_Linear_5,339,1,48,43,790385440
767,21,Ticks_Linear_5,340,5,42,127,790445416
767,21,Ticks_Linear_5,0,9999,9999,9999,681233488
767,21,Ticks_Linear_5,1,9999,9999,9999,681713736
767,21,Ticks_Linear_5,2,9999,9999,9999,682194040
767,21,Ticks_Linear_5,3,9999,9999,9999,682673220
767,21,Ticks_Linear_5,4,9999,9999,9999,683153496
767,21,Ticks_Linear_5,5,9999,9999,9999,683643984
767,21,Ticks_Linear_5,6,9999,9999,9999,684133500
767,21,Ticks_Linear_5,7,9999,9999,9999,684623964
767,21,Ticks_Linear_5,8,9999,9999,9999,685113460
767,21,Ticks_Linear_5,9,9999,9999,9999,685603948
767,21,Ticks_Linear_5,10,9999,9999,9999,686103640
767,21,Ticks_Linear_5,11,9999,9999,9999,686603340
767,21,Ticks_Linear_5,12,9999,9999,9999,687104088
767,21,Ticks_Linear_5,13,9999,9999,9999,687614048
767,21,Ticks_Linear_5,14,9999,9999,9999,688113748
767,21,Ticks_Linear_5,15,9999,9999,9999,688623712
767,21,Ticks_Linear_5,16,9999,9999,9999,689133668
767,21,Ticks_Linear_5,17,9999,9999,9999,689643628
767,21,Ticks_Linear_5,18,9999,9999,9999,690153588
767,21,Ticks_Linear_5,19,9999,9999,9999,690663544
767,21,Ticks_Linear_5,20,9999,9999,9999,691183688
767,21,Ticks_Linear_5,21,9999,9999,9999,691703908
767,21,Ticks_Linear_5,22,9999,9999,9999,692224124
767,21,Ticks_Linear_5,23,9999,9999,9999,692753480
767,21,Ticks_Linear_5,24,9999,9999,9999,693273696
767,21,Ticks_Linear_5,25,9999,9999,9999,693803128
767,21,Ticks_Linear_5,26,9999,9999,9999,694333528
767,21,Ticks_Linear_5,27,9999,9999,9999,694863932
767,21,Ticks_Linear_5,28,9999,9999,9999,695393360
767,21,Ticks_Linear_5,29,9999,9999,9999,695923772
767,21,Ticks_Linear_5,30,9999,9999,9999,696463456
767,21,Ticks_Linear_5,31,9999,9999,9999,697003096
767,21,Ticks_Linear_5,32,9999,9999,9999,697543756
767,21,Ticks_Linear_5,33,9999,9999,9999,698083448
767,21,Ticks_Linear_5,34,9999,9999,9999,698624108
767,21,Ticks_Linear_5,35,9999,9999,9999,699183192
767,21,Ticks_Linear_5,36,9999,9999,9999,699734116
767,21,Ticks_Linear_5,37,9999,9999,9999,700293208
767,21,Ticks_Linear_5,38,9999,9999,9999,700843104
767,21,Ticks_Linear_5,39,9999,9999,9999,701394024
767,21,Ticks_Linear_5,40,9999,9999,9999,701953116
767,21,Ticks_Linear_5,41,9999,9999,9999,702513248
767,21,Ticks_Linear_5,42,9999,9999,9999,703073356
767,21,Ticks_Linear_5,43,9999,9999,9999,703633484
767,21,Ticks_Linear_5,44,9999,9999,9999,704193640
767,21,Ticks_Linear_5,45,9999,9999,9999,704764032
767,21,Ticks_Linear_5,46,9999,9999,9999,705333304
767,21,Ticks_Linear_5,47,9999,9999,9999,705903692
767,21,Ticks_Linear_5,48,9999,9999,9999,706474044
767,21,Ticks_Linear_5,49,9999,9999,9999,707043388
767,21,Ticks_Linear_5,50,9999,9999,9999,707624040
767,21,Ticks_Linear_5,51,9999,9999,9999,708203644
767,21,Ticks_Linear_5,52,9999,9999,9999,708783200
767,21,Ticks_Linear_5,53,9999,9999,9999,709363776
767,21,Ticks_Linear_5,54,9999,9999,9999,709943380
767,21,Ticks_Linear_5,55,9999,9999,9999,710533244
767,21,Ticks_Linear_5,56,9999,9999,9999,711124024
767,21,Ticks_Linear_5,57,9999,9999,9999,711713888
767,21,Ticks_Linear_5,58,9999,9999,9999,712303676
767,21,Ticks_Linear_5,59,9999,9999,9999,712893564
767,21,Ticks_Linear_5,60,9999,9999,9999,713493624
767,21,Ticks_Linear_5,61,9999,9999,9999,714093664
767,21,Ticks_Linear_5,62,9999,9999,9999,714693736
767,21,Ticks_Linear_5,63,9999,9999,9999,715293784
767,21,Ticks_Linear_5,64,9999,9999,9999,715893840
767,21,Ticks_Linear_5,65,9999,9999,9999,716503120
767,21,Ticks_Linear_5,66,9999,9999,9999,717113428
767,21,Ticks_Linear_5,67,9999,9999,9999,717723736
767,21,Ticks_Linear_5,68,9999,9999,9999,718334068
767,21,Ticks_Linear_5,69,9999,9999,9999,718943328
767,21,Ticks_Linear_5,70,9999,9999,9999,719563844
767,21,Ticks_Linear_5,71,9999,9999,9999,720183364
767,21,Ticks_Linear_5,72,9999,9999,9999,720803928
767,21,Ticks_Linear_5,73,9999,9999,9999,721423476
767,21,Ticks_Linear_5,74,9999,9999,9999,722043972
767,21,Ticks_Linear_5,75,9999,9999,9999,722673772
767,21,Ticks_Linear_5,76,9999,9999,9999,723303552
767,21,Ticks_Linear_5,77,9999,9999,9999,723933280
767,21,Ticks_Linear_5,78,9999,9999,9999,724564032
767,21,Ticks_Linear_5,79,9999,9999,9999,725193836
767,21,Ticks_Linear_5,80,9999,9999,9999,725833796
767,21,Ticks_Linear_5,81,9999,9999,9999,726473788
767,21,Ticks_Linear_5,82,9999,9999,9999,727113824
767,21,Ticks_Linear_5,83,9999,9999,9999,727753812
767,21,Ticks_Linear_5,84,9999,9999,9999,728393848
767,21,Ticks_Linear_5,85,9999,9999,9999,729044024
767,21,Ticks_Linear_5,86,9999,9999,9999,729693272
767,21,Ticks_Linear_5,87,9999,9999,9999,730343520
767,21,Ticks_Linear_5,88,9999,9999,9999,730993748
767,21,Ticks_Linear_5,89,9999,9999,9999,731643996
767,21,Ticks_Linear_5,90,9999,9999,9999,732303428
767,21,Ticks_Linear_5,91,9999,9999,9999,732963940
767,21,Ticks_Linear_5,92,9999,9999,9999,733623392
767,21,Ticks_Linear_5,93,9999,9999,9999,734283876
767,21,Ticks_Linear_5,94,9999,9999,9999,734943336
767,21,Ticks_Linear_5,95,9999,9999,9999,735614076
767,21,Ticks_Linear_5,96,9999,9999,9999,736283720
767,21,Ticks_Linear_5,97,9999,9999,9999,736953440
767,21,Ticks_Linear_5,98,9999,9999,9999,737623132
767,21,Ticks_Linear_5,99,9999,9999,9999,738293824
767,21,Ticks_Linear_5,100,9999,9999,9999,738973776
767,21,Ticks_Linear_5,101,9999,9999,9999,739653756
767,21,Ticks_Linear_5,102,9999,9999,9999,740333656
767,21,Ticks_Linear_5,103,9999,9999,9999,741013608
767,21,Ticks_Linear_5,104,9999,9999,9999,741693512
767,21,Ticks_Linear_5,105,9999,9999,9999,742383684
767,21,Ticks_Linear_5,106,9999,9999,9999,743073896
767,21,Ticks_Linear_5,107,9999,9999,9999,743764052
767,21,Ticks_Linear_5,108,9999,9999,9999,744453244
767,21,Ticks_Linear_5,109,9999,9999,9999,745143400
767,21,Ticks_Linear_5,110,9999,9999,9999,745843796
767,21,Ticks_Linear_5,111,9999,9999,9999,746543172
767,21,Ticks_Linear_5,112,9999,9999,9999,747243592
767,21,Ticks_Linear_5,113,9999,9999,9999,747944016
767,21,Ticks_Linear_5,114,9999,9999,9999,748643440
767,21,Ticks_Linear_5,115,9999,9999,9999,749354048
767,21,Ticks_Linear_5,116,9999,9999,9999,750063684
767,21,Ticks_Linear_5,117,9999,9999,9999,750773324
767,21,Ticks_Linear_5,118,9999,9999,9999,751483972
767,21,Ticks_Linear_5,119,9999,9999,9999,752193604
767,21,Ticks_Linear_5,120,9999,9999,9999,752913500
767,21,Ticks_Linear_5,121,9999,9999,9999,753633380
767,21,Ticks_Linear_5,122,9999,9999,9999,754353272
767,21,Ticks_Linear_5,123,9999,9999,9999,755073140
767,21,Ticks_Linear_5,124,9999,9999,9999,755794020
767,21,Ticks_Linear_5,125,9999,9999,9999,756523136
767,21,Ticks_Linear_5,126,9999,9999,9999,757253208
767,21,Ticks_Linear_5,127,9999,9999,9999,757983284
767,21,Ticks_Linear_5,128,9999,9999,9999,758713440
767,21,Ticks_Linear_5,129,9999,9999,9999,759443572
767,21,Ticks_Linear_5,130,9999,9999,9999,760183904
767,21,Ticks_Linear_5,131,9999,9999,9999,760923196
767,21,Ticks_Linear_5,132,9999,9999,9999,761663604
767,21,Ticks_Linear_5,133,9999,9999,9999,762403948
767,21,Ticks_Linear_5,134,9999,9999,9999,763143232
767,21,Ticks_Linear_5,135,9999,9999,9999,763893828
767,21,Ticks_Linear_5,136,9999,9999,9999,764643452
767,21,Ticks_Linear_5,137,9999,9999,9999,765393972
767,21,Ticks_Linear_5,138,9999,9999,9999,766143600
767,21,Ticks_Linear_5,139,9999,9999,9999,766893160
767,21,Ticks_Linear_5,140,9999,9999,9999,767654008
767,21,Ticks_Linear_5,141,9999,9999,9999,768413792
767,21,Ticks_Linear_5,142,9999,9999,9999,769173600
767,21,Ticks_Linear_5,143,9999,9999,9999,769933416
767,21,Ticks_Linear_5,144,9999,9999,9999,770693216
767,21,Ticks_Linear_5,145,9999,9999,9999,771463288
767,21,Ticks_Linear_5,146,9999,9999,9999,772233280
767,21,Ticks_Linear_5,147,9999,9999,9999,773003348
767,21,Ticks_Linear_5,148,9999,9999,9999,773773416
767,21,Ticks_Linear_5,149,9999,9999,9999,774543416
767,21,Ticks_Linear_5,150,9999,9999,9999,775323740
767,21,Ticks_Linear_5,151,9999,9999,9999,776104060
767,21,Ticks_Linear_5,152,9999,9999,9999,776883268
767,21,Ticks_Linear_5,153,9999,9999,9999,777663592
767,21,Ticks_Linear_5,154,9999,9999,9999,778443844
767,21,Ticks_Linear_5,155,9999,9999,9999,779233384
767,21,Ticks_Linear_5,156,9999,9999,9999,780023880
767,21,Ticks_Linear_5,157,9999,9999,9999,780813436
767,21,Ticks_Linear_5,158,9999,9999,9999,781603952
767,21,Ticks_Linear_5,159,9999,9999,9999,782393472
767,21,Ticks_Linear_5,160,9999,9999,9999,783193212
767,21,Ticks_Linear_5,161,9999,9999,9999,783993984
767,21,Ticks_Linear_5,162,9999,9999,9999,784793712
767,21,Ticks_Linear_5,163,9999,9999,9999,785593460
767,21,Ticks_Linear_5,164,9999,9999,9999,786393184
767,21,Ticks_Linear_5,165,9999,9999,9999,787203160
767,21,Ticks_Linear_5,166,9999,9999,9999,788013144
767,21,Ticks_Linear_5,167,9999,9999,9999,788823128
767,21,Ticks_Linear_5,168,9999,9999,9999,789633108
767,21,Ticks_Linear_5,169,9999,9999,9999,790443116
768,20,Ticks_Linear_8,0,5,42,127,800600556
768,20,Ticks_Linear_8,1,1,48,42,801370676
768,20,Ticks_Linear_8,2,5,42,127,801429876
768,20,Ticks_Linear_8,3,1,48,53,802192936
768,20,Ticks_Linear_8,4,5,42,127,802250144
768,20,Ticks_Linear_8,5,1,48,52,802955884
768,20,Ticks_Linear_8,6,5,42,127,803070592
768,20,Ticks_Linear_8,7,1,48,54,803886240
768,20,Ticks_Linear_8,8,5,42,127,803889504
768,20,Ticks_Linear_8,9,1,48,46,804696372
768,20,Ticks_Linear_8,10,5,42,127,804699712
768,20,Ticks_Linear_8,11,1,48,44,805504484
768,20,Ticks_Linear_8,12,5,42,127,805509472
768,20,Ticks_Linear_8,13,5,42,127,806319336
768,20,Ticks_Linear_8,14,1,48,46,806320676
768,20,Ticks_Linear_8,15,5,42,127,807129396
768,20,Ticks_Linear_8,16,1,48,48,807154080
768,20,Ticks_Linear_8,17,1,48,49,807900012
768,20,Ticks_Linear_8,18,5,42,127,807939448
768,20,Ticks_Linear_8,19,5,42,127,808740300
768,20,Ticks_Linear_8,20,1,48,48,808753900
768,20,Ticks_Linear_8,21,1,48,43,809534656
768,20,Ticks_Linear_8,22,5,42,127,809540092
768,20,Ticks_Linear_8,23,1,48,39,810332732
768,20,Ticks_Linear_8,24,5,42,127,810339816
768,20,Ticks_Linear_8,25,5,42,127,811139544
768,20,Ticks_Linear_8,26,1,48,31,811142516
768,20,Ticks_Linear_8,27,1,48,22,811195608
768,20,Ticks_Linear_8,28,1,48,47,811911416
768,20,Ticks_Linear_8,29,5,42,127,811940536
768,20,Ticks_Linear_8,30,1,48,28,812694060
768,20,Ticks_Linear_8,31,5,42,127,812729628
768,20,Ticks_Linear_8,32,1,48,54,813505864
768,20,Ticks_Linear_8,33,5,42,127,813520364
768,20,Ticks_Linear_8,34,5,42,127,814309684
768,20,Ticks_Linear_8,35,1,48,51,814350924
768,20,Ticks_Linear_8,36,5,42,127,815100420
768,20,Ticks_Linear_8,37,1,48,42,815132444
768,20,Ticks_Linear_8,38,5,42,127,815889664
768,20,Ticks_Linear_8,39,1,48,49,815907008
768,20,Ticks_Linear_8,40,5,42,127,816670064
768,20,Ticks_Linear_8,41,1,48,48,816691680
768,20,Ticks_Linear_8,42,5,42,127,817450464
768,20,Ticks_Linear_8,43,1,48,54,817477544
768,20,Ticks_Linear_8,44,5,42,127,818229672
768,20,Ticks_Linear_8,45,1,48,48,818250540
768,20,Ticks_Linear_8,46,1,48,53,818989660
768,20,Ticks_Linear_8,47,5,42,127,819010068
768,20,Ticks_Linear_8,48,1,48,46,819778752
768,20,Ticks_Linear_8,49,5,42,127,819790172
768,20,Ticks_Linear_8,50,5,42,127,820560396
768,20,Ticks_Linear_8,51,1,48,53,820575192
768,20,Ticks_Linear_8,52,5,42,127,821330312
768,20,Ticks_Linear_8,53,1,48,47,821359876
768,20,Ticks_Linear_8,54,5,42,127,822100384
768,20,Ticks_Linear_8,55,1,48,37,822147084
768,20,Ticks_Linear_8,56,5,42,127,822870452
768,20,Ticks_Linear_8,57,1,48,42,822895956
768,20,Ticks_Linear_8,58,5,42,127,823640372
768,20,Ticks_Linear_8,59,1,48,45,823676960
768,20,Ticks_Linear_8,60,5,42,127,824409464
768,20,Ticks_Linear_8,61,1,48,44,824445676
768,20,Ticks_Linear_8,62,1,48,42,825166976
768,20,Ticks_Linear_8,63,5,42,127,825170240
768,20,Ticks_Linear_8,64,1,48,46,825869876
768,20,Ticks_Linear_8,65,5,42,127,825930124
768,20,Ticks_Linear_8,66,1,48,44,826631184
768,20,Ticks_Linear_8,67,5,42,127,826690008
768,20,Ticks_Linear_8,68,1,48,34,827415920
768,20,Ticks_Linear_8,69,5,42,127,827449592
768,20,Ticks_Linear_8,70,5,42,127,828200272
768,20,Ticks_Linear_8,71,1,48,43,828221288
768,20,Ticks_Linear_8,72,5,42,127,828949820
768,20,Ticks_Linear_8,73,1,48,45,828958788
768,20,Ticks_Linear_8,74,5,42,127,829699592
768,20,Ticks_Linear_8,75,1,48,43,829700484
768,20,Ticks_Linear_8,76,1,48,42,830422880
768,20,Ticks_Linear_8,77,5,42,127,830449964
768,20,Ticks_Linear_8,78,1,48,45,831165764
768,20,Ticks_Linear_8,79,5,42,127,831199736
768,20,Ticks_Linear_8,80,1,48,45,831923332
768,20,Ticks_Linear_8,81,5,42,127,831939924
768,20,Ticks_Linear_8,82,5,42,127,832680192
768,20,Ticks_Linear_8,83,1,48,45,832683164
768,20,Ticks_Linear_8,84,1,48,46,833411916
768,20,Ticks_Linear_8,85,5,42,127,833419600
768,20,Ticks_Linear_8,86,1,48,47,834142968
768,20,Ticks_Linear_8,87,5,42,127,834160012
768,20,Ticks_Linear_8,88,5,42,127,834900280
768,20,Ticks_Linear_8,89,1,48,54,834909400
768,20,Ticks_Linear_8,90,5,42,127,835629316
768,20,Ticks_Linear_8,91,1,48,42,835642016
768,20,Ticks_Linear_8,92,1,48,46,836349684
768,20,Ticks_Linear_8,93,5,42,127,836359980
768,20,Ticks_Linear_8,94,1,48,44,837053392
768,20,Ticks_Linear_8,95,5,42,127,837089836
768,20,Ticks_Linear_8,96,1,48,45,837812156
768,20,Ticks_Linear_8,97,5,42,127,837819836
768,20,Ticks_Linear_8,98,1,48,45,838531652
768,20,Ticks_Linear_8,99,5,42,127,838550044
768,20,Ticks_Linear_8,100,1,48,41,839261360
768,20,Ticks_Linear_8,101,5,42,127,839269712
768,20,Ticks_Linear_8,102,1,48,52,839989616
768,20,Ticks_Linear_8,103,5,42,127,839990952
768,20,Ticks_Linear_8,104,5,42,127,840709436
768,20,Ticks_Linear_8,105,1,48,47,840712852
768,20,Ticks_Linear_8,106,1,48,43,841425528
768,20,Ticks_Linear_8,107,5,42,127,841430444
768,20,Ticks_Linear_8,108,1,48,45,842115224
768,20,Ticks_Linear_8,109,5,42,127,842150264
768,20,Ticks_Linear_8,110,5,42,127,842859808
768,20,Ticks_Linear_8,111,1,48,50,842871916
768,20,Ticks_Linear_8,112,1,48,43,843558612
768,20,Ticks_Linear_8,113,5,42,127,843569732
768,20,Ticks_Linear_8,114,5,42,127,844280124
768,20,Ticks_Linear_8,115,1,48,42,844290212
768,20,Ticks_Linear_8,116,1,48,51,844943476
768,20,Ticks_Linear_8,117,5,42,127,844990048
768,20,Ticks_Linear_8,118,1,48,48,845692200
768,20,Ticks_Linear_8,119,5,42,127,845699360
768,20,Ticks_Linear_8,120,5,42,127,846399788
768,20,Ticks_Linear_8,121,1,48,48,846415708
768,20,Ticks_Linear_8,122,1,48,45,847091852
768,20,Ticks_Linear_8,123,5,42,127,847100204
768,20,Ticks_Linear_8,124,5,42,127,847799736
768,20,Ticks_Linear_8,125,1,48,56,847823520
768,20,Ticks_Linear_8,126,1,48,43,848462564
768,20,Ticks_Linear_8,127,5,42,127,848500052
768,20,Ticks_Linear_8,128,5,42,127,849199732
768,20,Ticks_Linear_8,129,1,48,52,849206140
768,20,Ticks_Linear_8,130,5,42,127,849889820
768,20,Ticks_Linear_8,131,1,48,49,849923496
768,20,Ticks_Linear_8,132,5,42,127,850579812
768,20,Ticks_Linear_8,133,1,48,40,850605416
768,20,Ticks_Linear_8,134,1,48,46,851267148
768,20,Ticks_Linear_8,135,5,42,127,851269968
768,20,Ticks_Linear_8,136,5,42,127,851960064
768,20,Ticks_Linear_8,137,1,48,52,851982728
768,20,Ticks_Linear_8,138,1,48,44,852639248
768,20,Ticks_Linear_8,139,5,42,127,852650516
768,20,Ticks_Linear_8,140,1,48,42,853272916
768,20,Ticks_Linear_8,141,5,42,127,853330320
768,20,Ticks_Linear_8,142,1,48,38,853965396
768,20,Ticks_Linear_8,143,5,42,127,854010152
768,20,Ticks_Linear_8,144,1,48,50,854624008
768,20,Ticks_Linear_8,145,5,42,127,854690056
768,20,Ticks_Linear_8,146,1,48,49,855310584
768,20,Ticks_Linear_8,147,5,42,127,855370084
768,20,Ticks_Linear_8,148,1,48,40,856004860
768,20,Ticks_Linear_8,149,5,42,127,856049988
768,20,Ticks_Linear_8,150,5,42,127,856719616
768,20,Ticks_Linear_8,151,1,48,43,856723704
768,20,Ticks_Linear_8,152,5,42,127,857389856
768,20,Ticks_Linear_8,153,1,48,43,857432892
768,20,Ticks_Linear_8,154,1,48,40,858056904
768,20,Ticks_Linear_8,155,5,42,127,858060096
768,20,Ticks_Linear_8,156,1,48,43,858695592
768,20,Ticks_Linear_8,157,5,42,127,858729716
768,20,Ticks_Linear_8,158,1,48,42,859396988
768,20,Ticks_Linear_8,159,5,42,127,859399656
768,20,Ticks_Linear_8,160,5,42,127,860060072
768,20,Ticks_Linear_8,161,1,48,38,860092320
768,20,Ticks_Linear_8,162,1,48,48,860710772
768,20,Ticks_Linear_8,163,5,42,127,860719576
768,20,Ticks_Linear_8,164,1,48,52,861369932
768,20,Ticks_Linear_8,165,5,42,127,861380080
768,20,Ticks_Linear_8,166,5,42,127,862040572
768,20,Ticks_Linear_8,167,1,48,43,862048792
768,20,Ticks_Linear_8,168,1,48,42,862684256
768,20,Ticks_Linear_8,169,5,42,127,862710212
768,20,Ticks_Linear_8,170,5,42,127,863360516
768,20,Ticks_Linear_8,171,1,48,42,863363032
768,20,Ticks_Linear_8,172,5,42,127,864009640
768,20,Ticks_Linear_8,173,1,48,37,864013732
768,20,Ticks_Linear_8,174,1,48,43,864649708
768,20,Ticks_Linear_8,175,5,42,127,864659708
768,20,Ticks_Linear_8,176,5,42,127,865310260
768,20,Ticks_Linear_8,177,1,48,42,865338776
768,20,Ticks_Linear_8,178,5,42,127,865960364
768,20,Ticks_Linear_8,179,1,48,36,865983176
768,20,Ticks_Linear_8,180,1,48,35,866596228
768,20,Ticks_Linear_8,181,5,42,127,866600396
768,20,Ticks_Linear_8,182,1,48,42,867226836
768,20,Ticks_Linear_8,183,5,42,127,867240608
768,20,Ticks_Linear_8,184,5,42,127,867880508
768,20,Ticks_Linear_8,185,1,48,40,867891640
768,20,Ticks_Linear_8,186,5,42,127,868520348
768,20,Ticks_Linear_8,187,1,48,42,868523392
768,20,Ticks_Linear_8,188,1,48,40,869157336
768,20,Ticks_Linear_8,189,5,42,127,869160304
768,20,Ticks_Linear_8,190,5,42,127,869790116
768,20,Ticks_Linear_8,191,1,48,36,869811212
768,20,Ticks_Linear_8,192,5,42,127,870419744
768,20,Ticks_Linear_8,193,1,48,32,870471768
768,20,Ticks_Linear_8,194,5,42,127,871049452
768,20,Ticks_Linear_8,195,1,48,38,871083668
768,20,Ticks_Linear_8,196,1,48,36,871657872
768,20,Ticks_Linear_8,197,5,42,127,871680444
768,20,Ticks_Linear_8,198,1,48,50,872296244
768,20,Ticks_Linear_8,199,5,42,127,872310300
768,20,Ticks_Linear_8,200,5,42,127,872929552
768,20,Ticks_Linear_8,201,1,48,45,872946972
768,20,Ticks_Linear_8,202,5,42,127,873550196
768,20,Ticks_Linear_8,203,1,48,43,873560136
768,20,Ticks_Linear_8,204,5,42,127,874169592
768,20,Ticks_Linear_8,205,1,48,50,874180124
768,20,Ticks_Linear_8,206,1,48,41,874785088
768,20,Ticks_Linear_8,207,5,42,127,874790372
768,20,Ticks_Linear_8,208,1,48,41,875383340
768,20,Ticks_Linear_8,209,5,42,127,875409744
768,20,Ticks_Linear_8,210,5,42,127,876020308
768,20,Ticks_Linear_8,211,1,48,49,876031224
768,20,Ticks_Linear_8,212,5,42,127,876630320
768,20,Ticks_Linear_8,213,1,48,46,876635236
768,20,Ticks_Linear_8,214,5,42,127,877239608
768,20,Ticks_Linear_8,215,1,48,45,877254328
768,20,Ticks_Linear_8,216,5,42,127,877850060
768,20,Ticks_Linear_8,217,1,48,43,877860596
768,20,Ticks_Linear_8,218,1,48,51,878446160
768,20,Ticks_Linear_8,219,5,42,127,878460364
768,20,Ticks_Linear_8,220,5,42,127,879060296
768,20,Ticks_Linear_8,221,1,48,42,879090080
768,20,Ticks_Linear_8,222,5,42,127,879660272
768,20,Ticks_Linear_8,223,1,48,50,879729072
768,20,Ticks_Linear_8,224,5,42,127,880259348
768,20,Ticks_Linear_8,225,1,48,41,880280596
768,20,Ticks_Linear_8,226,1,48,47,880849640
768,20,Ticks_Linear_8,227,5,42,127,880859564
768,20,Ticks_Linear_8,228,1,48,53,881414932
768,20,Ticks_Linear_8,229,5,42,127,881459616
768,20,Ticks_Linear_8,230,1,48,47,882024796
768,20,Ticks_Linear_8,231,5,42,127,882050304
768,20,Ticks_Linear_8,232,1,48,46,882606068
768,20,Ticks_Linear_8,233,5,42,127,882649480
768,20,Ticks_Linear_8,234,1,48,41,883239648
768,20,Ticks_Linear_8,235,5,42,127,883241288
768,20,Ticks_Linear_8,236,1,48,51,883827920
768,20,Ticks_Linear_8,237,5,42,127,883830328
768,20,Ticks_Linear_8,238,5,42,127,884420080
768,20,Ticks_Linear_8,239,1,48,46,884435624
768,20,Ticks_Linear_8,240,5,42,127,884999536
768,20,Ticks_Linear_8,241,1,48,39,885012384
768,20,Ticks_Linear_8,242,5,42,127,885580112
768,20,Ticks_Linear_8,243,1,48,45,885581448
768,20,Ticks_Linear_8,244,5,42,127,886159716
768,20,Ticks_Linear_8,245,1,48,38,886183600
768,20,Ticks_Linear_8,246,5,42,127,886740320
768,20,Ticks_Linear_8,247,1,48,44,886763584
768,20,Ticks_Linear_8,248,5,42,127,887320000
768,20,Ticks_Linear_8,249,1,48,42,887332180
768,20,Ticks_Linear_8,250,5,42,127,887890392
768,20,Ticks_Linear_8,251,1,48,43,887936940
768,20,Ticks_Linear_8,252,5,42,127,888459740
768,20,Ticks_Linear_8,253,1,48,48,888526828
768,20,Ticks_Linear_8,254,5,42,127,889030156
768,20,Ticks_Linear_8,255,1,48,46,889083672
768,20,Ticks_Linear_8,256,1,48,43,889537288
768,20,Ticks_Linear_8,257,5,42,127,889600392
768,20,Ticks_Linear_8,258,1,48,42,890095476
768,20,Ticks_Linear_8,259,5,42,127,890169816
768,20,Ticks_Linear_8,260,1,48,39,890694628
768,20,Ticks_Linear_8,261,5,42,127,890730096
768,20,Ticks_Linear_8,262,1,48,43,891277764
768,20,Ticks_Linear_8,263,5,42,127,891290156
768,20,Ticks_Linear_8,264,5,42,127,891850248
768,20,Ticks_Linear_8,265,1,48,40,891880028
768,20,Ticks_Linear_8,266,5,42,127,892410232
768,20,Ticks_Linear_8,267,1,48,38,892451468
768,20,Ticks_Linear_8,268,5,42,127,892970440
768,20,Ticks_Linear_8,269,1,48,43,893030176
768,20,Ticks_Linear_8,270,5,42,127,893520240
768,20,Ticks_Linear_8,271,1,48,35,893560280
768,20,Ticks_Linear_8,272,1,48,40,894037112
768,20,Ticks_Linear_8,273,5,42,127,894070032
768,20,Ticks_Linear_8,274,1,48,41,894604660
768,20,Ticks_Linear_8,275,5,42,127,894619980
768,20,Ticks_Linear_8,276,1,48,42,895153860
768,20,Ticks_Linear_8,277,5,42,127,895170156
768,20,Ticks_Linear_8,278,1,48,44,895703808
768,20,Ticks_Linear_8,279,5,42,127,895720176
768,20,Ticks_Linear_8,280,1,48,46,896236304
768,20,Ticks_Linear_8,281,5,42,127,896259420
768,20,Ticks_Linear_8,282,1,48,44,896795916
768,20,Ticks_Linear_8,283,5,42,127,896800084
768,20,Ticks_Linear_8,284,5,42,127,897339856
768,20,Ticks_Linear_8,285,1,48,38,897349868
768,20,Ticks_Linear_8,286,1,48,40,897872528
768,20,Ticks_Linear_8,287,5,42,127,897880436
768,20,Ticks_Linear_8,288,1,48,41,898405700
768,20,Ticks_Linear_8,289,5,42,127,898430384
768,20,Ticks_Linear_8,290,1,48,43,898935428
768,20,Ticks_Linear_8,291,5,42,127,898959816
768,20,Ticks_Linear_8,292,1,48,44,899435056
768,20,Ticks_Linear_8,293,5,42,127,899490320
768,20,Ticks_Linear_8,294,1,48,30,899943448
768,20,Ticks_Linear_8,295,5,42,127,900019672
768,20,Ticks_Linear_8,296,1,48,37,900443148
768,20,Ticks_Linear_8,297,5,42,127,900549988
768,20,Ticks_Linear_8,298,1,48,40,900976388
768,20,Ticks_Linear_8,299,5,42,127,901080320
768,20,Ticks_Linear_8,300,1,48,44,901504476
768,20,Ticks_Linear_8,301,5,42,127,901609972
768,20,Ticks_Linear_8,302,1,48,48,901984556
768,20,Ticks_Linear_8,303,5,42,127,902130116
768,20,Ticks_Linear_8,304,1,48,34,902558128
768,20,Ticks_Linear_8,305,5,42,127,902650196
768,20,Ticks_Linear_8,306,1,48,31,903121472
768,20,Ticks_Linear_8,307,5,42,127,903170564
768,20,Ticks_Linear_8,308,1,48,30,903672920
768,20,Ticks_Linear_8,309,5,42,127,903699772
768,20,Ticks_Linear_8,310,1,48,41,904207848
768,20,Ticks_Linear_8,311,5,42,127,904209732
768,20,Ticks_Linear_8,312,5,42,127,904719624
768,20,Ticks_Linear_8,313,1,48,38,904763480
768,20,Ticks_Linear_8,314,5,42,127,905229732
768,20,Ticks_Linear_8,315,1,48,36,905255164
768,20,Ticks_Linear_8,316,1,48,40,905713428
768,20,Ticks_Linear_8,317,5,42,127,905739832
768,20,Ticks_Linear_8,318,1,48,40,906240168
768,20,Ticks_Linear_8,319,5,42,127,906249868
768,20,Ticks_Linear_8,320,5,42,127,906750248
768,20,Ticks_Linear_8,321,1,48,46,906764896
768,20,Ticks_Linear_8,322,5,42,127,907250020
768,20,Ticks_Linear_8,323,1,48,42,907282196
768,20,Ticks_Linear_8,324,5,42,127,907749872
768,20,Ticks_Linear_8,325,1,48,41,907778980
768,20,Ticks_Linear_8,326,5,42,127,908249644
768,20,Ticks_Linear_8,327,1,48,43,908260632
768,20,Ticks_Linear_8,328,1,48,43,908746896
768,20,Ticks_Linear_8,329,5,42,127,908750088
768,20,Ticks_Linear_8,330,1,48,42,909234616
768,20,Ticks_Linear_8,331,5,42,127,909239828
768,20,Ticks_Linear_8,332,5,42,127,909730024
768,20,Ticks_Linear_8,333,1,48,40,909749020
768,20,Ticks_Linear_8,334,5,42,127,910219664
768,20,Ticks_Linear_8,335,1,48,43,910230196
768,20,Ticks_Linear_8,336,1,48,36,910700892
768,20,Ticks_Linear_8,337,5,42,127,910710144
768,20,Ticks_Linear_8,338,1,48,39,911170408
768,20,Ticks_Linear_8,339,5,42,127,911199808
768,20,Ticks_Linear_8,0,9999,9999,9999,800598108
768,20,Ticks_Linear_8,1,9999,9999,9999,801427580
768,20,Ticks_Linear_8,2,9999,9999,9999,802247768
768,20,Ticks_Linear_8,3,9999,9999,9999,803067996
768,20,Ticks_Linear_8,4,9999,9999,9999,803887208
768,20,Ticks_Linear_8,5,9999,9999,9999,804697192
768,20,Ticks_Linear_8,6,9999,9999,9999,805507176
768,20,Ticks_Linear_8,7,9999,9999,9999,806317112
768,20,Ticks_Linear_8,8,9999,9999,9999,807127096
768,20,Ticks_Linear_8,9,9999,9999,9999,807937148
768,20,Ticks_Linear_8,10,9999,9999,9999,808737852
768,20,Ticks_Linear_8,11,9999,9999,9999,809537644
768,20,Ticks_Linear_8,12,9999,9999,9999,810337368
768,20,Ticks_Linear_8,13,9999,9999,9999,811137096
768,20,Ticks_Linear_8,14,9999,9999,9999,811937864
768,20,Ticks_Linear_8,15,9999,9999,9999,812727404
768,20,Ticks_Linear_8,16,9999,9999,9999,813517916
768,20,Ticks_Linear_8,17,9999,9999,9999,814307388
768,20,Ticks_Linear_8,18,9999,9999,9999,815097972
768,20,Ticks_Linear_8,19,9999,9999,9999,815887436
768,20,Ticks_Linear_8,20,9999,9999,9999,816667764
768,20,Ticks_Linear_8,21,9999,9999,9999,817448020
768,20,Ticks_Linear_8,22,9999,9999,9999,818227300
768,20,Ticks_Linear_8,23,9999,9999,9999,819007544
768,20,Ticks_Linear_8,24,9999,9999,9999,819787872
768,20,Ticks_Linear_8,25,9999,9999,9999,820557948
768,20,Ticks_Linear_8,26,9999,9999,9999,821327940
768,20,Ticks_Linear_8,27,9999,9999,9999,822098008
768,20,Ticks_Linear_8,28,9999,9999,9999,822868076
768,20,Ticks_Linear_8,29,9999,9999,9999,823638072
768,20,Ticks_Linear_8,30,9999,9999,9999,824407164
768,20,Ticks_Linear_8,31,9999,9999,9999,825167940
768,20,Ticks_Linear_8,32,9999,9999,9999,825927752
768,20,Ticks_Linear_8,33,9999,9999,9999,826687560
768,20,Ticks_Linear_8,34,9999,9999,9999,827447368
768,20,Ticks_Linear_8,35,9999,9999,9999,828197972
768,20,Ticks_Linear_8,36,9999,9999,9999,828947524
768,20,Ticks_Linear_8,37,9999,9999,9999,829697144
768,20,Ticks_Linear_8,38,9999,9999,9999,830447740
768,20,Ticks_Linear_8,39,9999,9999,9999,831197288
768,20,Ticks_Linear_8,40,9999,9999,9999,831937628
768,20,Ticks_Linear_8,41,9999,9999,9999,832677968
768,20,Ticks_Linear_8,42,9999,9999,9999,833417300
768,20,Ticks_Linear_8,43,9999,9999,9999,834157640
768,20,Ticks_Linear_8,44,9999,9999,9999,834897984
768,20,Ticks_Linear_8,45,9999,9999,9999,835627088
768,20,Ticks_Linear_8,46,9999,9999,9999,836357236
768,20,Ticks_Linear_8,47,9999,9999,9999,837087316
768,20,Ticks_Linear_8,48,9999,9999,9999,837817464
768,20,Ticks_Linear_8,49,9999,9999,9999,838547520
768,20,Ticks_Linear_8,50,9999,9999,9999,839267416
768,20,Ticks_Linear_8,51,9999,9999,9999,839987316
768,20,Ticks_Linear_8,52,9999,9999,9999,840707136
768,20,Ticks_Linear_8,53,9999,9999,9999,841428072
768,20,Ticks_Linear_8,54,9999,9999,9999,842147968
768,20,Ticks_Linear_8,55,9999,9999,9999,842857584
768,20,Ticks_Linear_8,56,9999,9999,9999,843567212
768,20,Ticks_Linear_8,57,9999,9999,9999,844277824
768,20,Ticks_Linear_8,58,9999,9999,9999,844987452
768,20,Ticks_Linear_8,59,9999,9999,9999,845697136
768,20,Ticks_Linear_8,60,9999,9999,9999,846397564
768,20,Ticks_Linear_8,61,9999,9999,9999,847097980
768,20,Ticks_Linear_8,62,9999,9999,9999,847797364
768,20,Ticks_Linear_8,63,9999,9999,9999,848497752
768,20,Ticks_Linear_8,64,9999,9999,9999,849197136
768,20,Ticks_Linear_8,65,9999,9999,9999,849887300
768,20,Ticks_Linear_8,66,9999,9999,9999,850577512
768,20,Ticks_Linear_8,67,9999,9999,9999,851267668
768,20,Ticks_Linear_8,68,9999,9999,9999,851957836
768,20,Ticks_Linear_8,69,9999,9999,9999,852647996
768,20,Ticks_Linear_8,70,9999,9999,9999,853327948
768,20,Ticks_Linear_8,71,9999,9999,9999,854007928
768,20,Ticks_Linear_8,72,9999,9999,9999,854687832
768,20,Ticks_Linear_8,73,9999,9999,9999,855367784
768,20,Ticks_Linear_8,74,9999,9999,9999,856047688
768,20,Ticks_Linear_8,75,9999,9999,9999,856717392
768,20,Ticks_Linear_8,76,9999,9999,9999,857387112
768,20,Ticks_Linear_8,77,9999,9999,9999,858057796
768,20,Ticks_Linear_8,78,9999,9999,9999,858727492
768,20,Ticks_Linear_8,79,9999,9999,9999,859397208
768,20,Ticks_Linear_8,80,9999,9999,9999,860057700
768,20,Ticks_Linear_8,81,9999,9999,9999,860717128
768,20,Ticks_Linear_8,82,9999,9999,9999,861377636
768,20,Ticks_Linear_8,83,9999,9999,9999,862038124
768,20,Ticks_Linear_8,84,9999,9999,9999,862707840
768,20,Ticks_Linear_8,85,9999,9999,9999,863358068
768,20,Ticks_Linear_8,86,9999,9999,9999,864007268
768,20,Ticks_Linear_8,87,9999,9999,9999,864657484
768,20,Ticks_Linear_8,88,9999,9999,9999,865307740
768,20,Ticks_Linear_8,89,9999,9999,9999,865957988
768,20,Ticks_Linear_8,90,9999,9999,9999,866597948
768,20,Ticks_Linear_8,91,9999,9999,9999,867238012
768,20,Ticks_Linear_8,92,9999,9999,9999,867877984
768,20,Ticks_Linear_8,93,9999,9999,9999,868517972
768,20,Ticks_Linear_8,94,9999,9999,9999,869158004
768,20,Ticks_Linear_8,95,9999,9999,9999,869787716
768,20,Ticks_Linear_8,96,9999,9999,9999,870417520
768,20,Ticks_Linear_8,97,9999,9999,9999,871047228
768,20,Ticks_Linear_8,98,9999,9999,9999,871678072
768,20,Ticks_Linear_8,99,9999,9999,9999,872307776
768,20,Ticks_Linear_8,100,9999,9999,9999,872927328
768,20,Ticks_Linear_8,101,9999,9999,9999,873547896
768,20,Ticks_Linear_8,102,9999,9999,9999,874167364
768,20,Ticks_Linear_8,103,9999,9999,9999,874787924
768,20,Ticks_Linear_8,104,9999,9999,9999,875407444
768,20,Ticks_Linear_8,105,9999,9999,9999,876017788
768,20,Ticks_Linear_8,106,9999,9999,9999,876628020
768,20,Ticks_Linear_8,107,9999,9999,9999,877237308
768,20,Ticks_Linear_8,108,9999,9999,9999,877847612
768,20,Ticks_Linear_8,109,9999,9999,9999,878457916
768,20,Ticks_Linear_8,110,9999,9999,9999,879057996
768,20,Ticks_Linear_8,111,9999,9999,9999,879658048
768,20,Ticks_Linear_8,112,9999,9999,9999,880257124
768,20,Ticks_Linear_8,113,9999,9999,9999,880857192
768,20,Ticks_Linear_8,114,9999,9999,9999,881457240
768,20,Ticks_Linear_8,115,9999,9999,9999,882048080
768,20,Ticks_Linear_8,116,9999,9999,9999,882647104
768,20,Ticks_Linear_8,117,9999,9999,9999,883237948
768,20,Ticks_Linear_8,118,9999,9999,9999,883827772
768,20,Ticks_Linear_8,119,9999,9999,9999,884417628
768,20,Ticks_Linear_8,120,9999,9999,9999,884997236
768,20,Ticks_Linear_8,121,9999,9999,9999,885577812
768,20,Ticks_Linear_8,122,9999,9999,9999,886157416
768,20,Ticks_Linear_8,123,9999,9999,9999,886738020
768,20,Ticks_Linear_8,124,9999,9999,9999,887317624
768,20,Ticks_Linear_8,125,9999,9999,9999,887887944
768,20,Ticks_Linear_8,126,9999,9999,9999,888457292
768,20,Ticks_Linear_8,127,9999,9999,9999,889027708
768,20,Ticks_Linear_8,128,9999,9999,9999,889598020
768,20,Ticks_Linear_8,129,9999,9999,9999,890167368
768,20,Ticks_Linear_8,130,9999,9999,9999,890727500
768,20,Ticks_Linear_8,131,9999,9999,9999,891287632
768,20,Ticks_Linear_8,132,9999,9999,9999,891847800
768,20,Ticks_Linear_8,133,9999,9999,9999,892407932
768,20,Ticks_Linear_8,134,9999,9999,9999,892967992
768,20,Ticks_Linear_8,135,9999,9999,9999,893517940
768,20,Ticks_Linear_8,136,9999,9999,9999,894067808
768,20,Ticks_Linear_8,137,9999,9999,9999,894617684
768,20,Ticks_Linear_8,138,9999,9999,9999,895167556
768,20,Ticks_Linear_8,139,9999,9999,9999,895717432
768,20,Ticks_Linear_8,140,9999,9999,9999,896257120
768,20,Ticks_Linear_8,141,9999,9999,9999,896797784
768,20,Ticks_Linear_8,142,9999,9999,9999,897337404
768,20,Ticks_Linear_8,143,9999,9999,9999,897878136
768,20,Ticks_Linear_8,144,9999,9999,9999,898428012
768,20,Ticks_Linear_8,145,9999,9999,9999,898957368
768,20,Ticks_Linear_8,146,9999,9999,9999,899487872
768,20,Ticks_Linear_8,147,9999,9999,9999,900017228
768,20,Ticks_Linear_8,148,9999,9999,9999,900547688
768,20,Ticks_Linear_8,149,9999,9999,9999,901078092
768,20,Ticks_Linear_8,150,9999,9999,9999,901607524
768,20,Ticks_Linear_8,151,9999,9999,9999,902127740
768,20,Ticks_Linear_8,152,9999,9999,9999,902647900
768,20,Ticks_Linear_8,153,9999,9999,9999,903168116
768,20,Ticks_Linear_8,154,9999,9999,9999,903697476
768,20,Ticks_Linear_8,155,9999,9999,9999,904207464
768,20,Ticks_Linear_8,156,9999,9999,9999,904717400
768,20,Ticks_Linear_8,157,9999,9999,9999,905227360
768,20,Ticks_Linear_8,158,9999,9999,9999,905737312
768,20,Ticks_Linear_8,159,9999,9999,9999,906247272
768,20,Ticks_Linear_8,160,9999,9999,9999,906748024
768,20,Ticks_Linear_8,161,9999,9999,9999,907247724
768,20,Ticks_Linear_8,162,9999,9999,9999,907747424
768,20,Ticks_Linear_8,163,9999,9999,9999,908247124
768,20,Ticks_Linear_8,164,9999,9999,9999,908747864
768,20,Ticks_Linear_8,165,9999,9999,9999,909237304
768,20,Ticks_Linear_8,166,9999,9999,9999,909727800
768,20,Ticks_Linear_8,167,9999,9999,9999,910217288
768,20,Ticks_Linear_8,168,9999,9999,9999,910707772
768,20,Ticks_Linear_8,169,9999,9999,9999,911197284
769,10,Ticks_ISO_T2_5,0,5,42,127,919966000
769,10,Ticks_ISO_T2_5,1,5,42,127,920465916
769,10,Ticks_ISO_T2_5,2,1,48,29,920486484
769,10,Ticks_ISO_T2_5,3,5,42,127,920965384
769,10,Ticks_ISO_T2_5,4,1,48,41,920993888
769,10,Ticks_ISO_T2_5,5,1,48,49,921454792
769,10,Ticks_ISO_T2_5,6,5,42,127,921466344
769,10,Ticks_ISO_T2_5,7,1,48,44,921957708
769,10,Ticks_ISO_T2_5,8,5,42,127,921965888
769,10,Ticks_ISO_T2_5,9,1,48,45,922446400
769,10,Ticks_ISO_T2_5,10,5,42,127,922465732
769,10,Ticks_ISO_T2_5,11,1,48,47,922953876
769,10,Ticks_ISO_T2_5,12,5,42,127,922966328
769,10,Ticks_ISO_T2_5,13,1,48,46,923440480
769,10,Ticks_ISO_T2_5,14,5,42,127,923465948
769,10,Ticks_ISO_T2_5,15,1,48,53,923943244
769,10,Ticks_ISO_T2_5,16,5,42,127,923965864
769,10,Ticks_ISO_T2_5,17,1,48,44,924413320
769,10,Ticks_ISO_T2_5,18,5,42,127,924465484
769,10,Ticks_ISO_T2_5,19,1,48,44,924907476
769,10,Ticks_ISO_T2_5,20,5,42,127,924966448
769,10,Ticks_ISO_T2_5,21,1,48,42,925409716
769,10,Ticks_ISO_T2_5,22,5,42,127,925465920
769,10,Ticks_ISO_T2_5,23,1,48,34,925915764
769,10,Ticks_ISO_T2_5,24,5,42,127,925965540
769,10,Ticks_ISO_T2_5,25,1,48,37,926452188
769,10,Ticks_ISO_T2_5,26,5,42,127,926466360
769,10,Ticks_ISO_T2_5,27,5,42,127,926966060
769,10,Ticks_ISO_T2_5,28,1,48,43,926984436
769,10,Ticks_ISO_T2_5,29,1,48,36,927463096
769,10,Ticks_ISO_T2_5,30,5,42,127,927466044
769,10,Ticks_ISO_T2_5,31,1,48,42,927957704
769,10,Ticks_ISO_T2_5,32,5,42,127,927965440
769,10,Ticks_ISO_T2_5,33,1,48,48,928460020
769,10,Ticks_ISO_T2_5,34,5,42,127,928466256
769,10,Ticks_ISO_T2_5,35,5,42,127,928966108
769,10,Ticks_ISO_T2_5,36,1,48,46,928975960
769,10,Ticks_ISO_T2_5,37,5,42,127,929465656
769,10,Ticks_ISO_T2_5,38,1,48,43,929468324
769,10,Ticks_ISO_T2_5,39,1,48,45,929955656
769,10,Ticks_ISO_T2_5,40,5,42,127,929965268
769,10,Ticks_ISO_T2_5,41,5,42,127,930466388
769,10,Ticks_ISO_T2_5,42,1,48,37,930471676
769,10,Ticks_ISO_T2_5,43,5,42,127,930966280
769,10,Ticks_ISO_T2_5,44,1,48,45,930974964
769,10,Ticks_ISO_T2_5,45,1,48,45,931456292
769,10,Ticks_ISO_T2_5,46,5,42,127,931465672
769,10,Ticks_ISO_T2_5,47,5,42,127,931966272
769,10,Ticks_ISO_T2_5,48,1,48,46,931967164
769,10,Ticks_ISO_T2_5,49,1,48,53,932449096
769,10,Ticks_ISO_T2_5,50,5,42,127,932466256
769,10,Ticks_ISO_T2_5,51,1,48,41,932956044
769,10,Ticks_ISO_T2_5,52,5,42,127,932965728
769,10,Ticks_ISO_T2_5,53,5,42,127,933465356
769,10,Ticks_ISO_T2_5,54,1,48,48,933470496
769,10,Ticks_ISO_T2_5,55,1,48,42,933951920
769,10,Ticks_ISO_T2_5,56,5,42,127,933966312
769,10,Ticks_ISO_T2_5,57,1,48,47,934429548
769,10,Ticks_ISO_T2_5,58,5,42,127,934465860
769,10,Ticks_ISO_T2_5,59,1,48,48,934951312
769,10,Ticks_ISO_T2_5,60,5,42,127,934965704
769,10,Ticks_ISO_T2_5,61,1,48,41,935405152
769,10,Ticks_ISO_T2_5,62,5,42,127,935466296
769,10,Ticks_ISO_T2_5,63,1,48,54,935932744
769,10,Ticks_ISO_T2_5,64,5,42,127,935966212
769,10,Ticks_ISO_T2_5,65,1,48,56,936445156
769,10,Ticks_ISO_T2_5,66,5,42,127,936465832
769,10,Ticks_ISO_T2_5,67,1,48,40,936916948
769,10,Ticks_ISO_T2_5,68,5,42,127,936965600
769,10,Ticks_ISO_T2_5,69,1,48,47,937439392
769,10,Ticks_ISO_T2_5,70,5,42,127,937466272
769,10,Ticks_ISO_T2_5,71,1,48,48,937935712
769,10,Ticks_ISO_T2_5,72,5,42,127,937966116
769,10,Ticks_ISO_T2_5,73,1,48,45,938429652
769,10,Ticks_ISO_T2_5,74,5,42,127,938465512
769,10,Ticks_ISO_T2_5,75,1,48,45,938912736
769,10,Ticks_ISO_T2_5,76,5,42,127,938966404
769,10,Ticks_ISO_T2_5,77,1,48,43,939439364
769,10,Ticks_ISO_T2_5,78,5,42,127,939466396
769,10,Ticks_ISO_T2_5,79,1,48,45,939936964
769,10,Ticks_ISO_T2_5,80,5,42,127,939965792
769,10,Ticks_ISO_T2_5,81,1,48,41,940427808
769,10,Ticks_ISO_T2_5,82,5,42,127,940465708
769,10,Ticks_ISO_T2_5,83,1,48,48,940930416
769,10,Ticks_ISO_T2_5,84,5,42,127,940966152
769,10,Ticks_ISO_T2_5,85,1,48,35,941442528
769,10,Ticks_ISO_T2_5,86,5,42,127,941466220
769,10,Ticks_ISO_T2_5,87,1,48,42,941933468
769,10,Ticks_ISO_T2_5,88,5,42,127,941965592
769,10,Ticks_ISO_T2_5,89,1,48,46,942430996
769,10,Ticks_ISO_T2_5,90,5,42,127,942466484
769,10,Ticks_ISO_T2_5,91,1,48,44,942920220
769,10,Ticks_ISO_T2_5,92,5,42,127,942966180
769,10,Ticks_ISO_T2_5,93,5,42,127,943466028
769,10,Ticks_ISO_T2_5,94,1,48,33,943467516
769,10,Ticks_ISO_T2_5,95,1,48,39,943940252
769,10,Ticks_ISO_T2_5,96,5,42,127,943965644
769,10,Ticks_ISO_T2_5,97,1,48,33,944453188
769,10,Ticks_ISO_T2_5,98,5,42,127,944466160
769,10,Ticks_ISO_T2_5,99,1,48,46,944926324
769,10,Ticks_ISO_T2_5,100,5,42,127,944966152
769,10,Ticks_ISO_T2_5,101,1,48,43,945457060
769,10,Ticks_ISO_T2_5,102,5,42,127,945465700
769,10,Ticks_ISO_T2_5,103,1,48,44,945931776
769,10,Ticks_ISO_T2_5,104,5,42,127,945965392
769,10,Ticks_ISO_T2_5,105,1,48,45,946422796
769,10,Ticks_ISO_T2_5,106,5,42,127,946466132
769,10,Ticks_ISO_T2_5,107,1,48,41,946938272
769,10,Ticks_ISO_T2_5,108,5,42,127,946965976
769,10,Ticks_ISO_T2_5,109,1,48,43,947461156
769,10,Ticks_ISO_T2_5,110,5,42,127,947465448
769,10,Ticks_ISO_T2_5,111,1,48,40,947960848
769,10,Ticks_ISO_T2_5,112,5,42,127,947966188
769,10,Ticks_ISO_T2_5,113,5,42,127,948465964
769,10,Ticks_ISO_T2_5,114,1,48,38,948472600
769,10,Ticks_ISO_T2_5,115,1,48,44,948964376
769,10,Ticks_ISO_T2_5,116,5,42,127,948965952
769,10,Ticks_ISO_T2_5,117,5,42,127,949465428
769,10,Ticks_ISO_T2_5,118,1,48,41,949480968
769,10,Ticks_ISO_T2_5,119,1,48,40,949948560
769,10,Ticks_ISO_T2_5,120,5,42,127,949966240
769,10,Ticks_ISO_T2_5,121,5,42,127,950466016
769,10,Ticks_ISO_T2_5,122,1,48,40,950468460
769,10,Ticks_ISO_T2_5,123,5,42,127,950965708
769,10,Ticks_ISO_T2_5,124,1,48,46,950973092
769,10,Ticks_ISO_T2_5,125,5,42,127,951466304
769,10,Ticks_ISO_T2_5,126,1,48,46,951470996
769,10,Ticks_ISO_T2_5,127,5,42,127,951966000
769,10,Ticks_ISO_T2_5,128,1,48,48,951981092
769,10,Ticks_ISO_T2_5,129,1,48,40,952465892
769,10,Ticks_ISO_T2_5,130,5,42,127,952467160
769,10,Ticks_ISO_T2_5,131,1,48,43,952958444
769,10,Ticks_ISO_T2_5,132,5,42,127,952965356
769,10,Ticks_ISO_T2_5,133,1,48,45,953452004
769,10,Ticks_ISO_T2_5,134,5,42,127,953466176
769,10,Ticks_ISO_T2_5,135,1,48,46,953963440
769,10,Ticks_ISO_T2_5,136,5,42,127,953965944
769,10,Ticks_ISO_T2_5,137,1,48,45,954458280
769,10,Ticks_ISO_T2_5,138,5,42,127,954465788
769,10,Ticks_ISO_T2_5,139,1,48,48,954961856
769,10,Ticks_ISO_T2_5,140,5,42,127,954966308
769,10,Ticks_ISO_T2_5,141,1,48,46,955449364
769,10,Ticks_ISO_T2_5,142,5,42,127,955466076
769,10,Ticks_ISO_T2_5,143,1,48,47,955942696
769,10,Ticks_ISO_T2_5,144,5,42,127,955965916
769,10,Ticks_ISO_T2_5,145,5,42,127,956465396
769,10,Ticks_ISO_T2_5,146,1,48,51,956466960
769,10,Ticks_ISO_T2_5,147,5,42,127,956966212
769,10,Ticks_ISO_T2_5,148,1,48,46,956991700
769,10,Ticks_ISO_T2_5,149,1,48,44,957460184
769,10,Ticks_ISO_T2_5,150,5,42,127,957465976
769,10,Ticks_ISO_T2_5,151,1,48,42,957958980
769,10,Ticks_ISO_T2_5,152,5,42,127,957965672
769,10,Ticks_ISO_T2_5,153,5,42,127,958466420
769,10,Ticks_ISO_T2_5,154,1,48,43,958498784
769,10,Ticks_ISO_T2_5,155,5,42,127,958966264
769,10,Ticks_ISO_T2_5,156,1,48,47,958971848
769,10,Ticks_ISO_T2_5,157,1,48,44,959456868
769,10,Ticks_ISO_T2_5,158,5,42,127,959465728
769,10,Ticks_ISO_T2_5,159,1,48,47,959959704
769,10,Ticks_ISO_T2_5,160,5,42,127,959965644
769,10,Ticks_ISO_T2_5,161,5,42,127,960466244
769,10,Ticks_ISO_T2_5,162,1,48,49,960471980
769,10,Ticks_ISO_T2_5,163,5,42,127,960965940
769,10,Ticks_ISO_T2_5,164,1,48,52,960982820
769,10,Ticks_ISO_T2_5,165,5,42,127,961465636
769,10,Ticks_ISO_T2_5,166,1,48,47,961519092
769,10,Ticks_ISO_T2_5,167,5,42,127,961965476
769,10,Ticks_ISO_T2_5,168,1,48,45,962017964
769,10,Ticks_ISO_T2_5,169,5,42,127,962466144
769,10,Ticks_ISO_T2_5,170,1,48,49,962484896
769,10,Ticks_ISO_T2_5,171,1,48,49,962950964
769,10,Ticks_ISO_T2_5,172,5,42,127,962965808
769,10,Ticks_ISO_T2_5,173,5,42,127,963465584
769,10,Ticks_ISO_T2_5,174,1,48,48,963484580
769,10,Ticks_ISO_T2_5,175,1,48,47,963959776
769,10,Ticks_ISO_T2_5,176,5,42,127,963966244
769,10,Ticks_ISO_T2_5,177,5,42,127,964465944
769,10,Ticks_ISO_T2_5,178,1,48,45,964487988
769,10,Ticks_ISO_T2_5,179,5,42,127,964965788
769,10,Ticks_ISO_T2_5,180,1,48,46,964987828
769,10,Ticks_ISO_T2_5,181,1,48,42,965457292
769,10,Ticks_ISO_T2_5,182,5,42,127,965465552
769,10,Ticks_ISO_T2_5,183,5,42,127,965966152
769,10,Ticks_ISO_T2_5,184,1,48,47,965971736
769,10,Ticks_ISO_T2_5,185,1,48,48,966461316
769,10,Ticks_ISO_T2_5,186,5,42,127,966465836
769,10,Ticks_ISO_T2_5,187,1,48,48,966959064
769,10,Ticks_ISO_T2_5,188,5,42,127,966965608
769,10,Ticks_ISO_T2_5,189,5,42,127,967466356
769,10,Ticks_ISO_T2_5,190,1,48,47,967472016
769,10,Ticks_ISO_T2_5,191,1,48,45,967945136
769,10,Ticks_ISO_T2_5,192,5,42,127,967966188
769,10,Ticks_ISO_T2_5,193,1,48,51,968445284
769,10,Ticks_ISO_T2_5,194,5,42,127,968465884
769,10,Ticks_ISO_T2_5,195,1,48,48,968944604
769,10,Ticks_ISO_T2_5,196,5,42,127,968965432
769,10,Ticks_ISO_T2_5,197,1,48,46,969450660
769,10,Ticks_ISO_T2_5,198,5,42,127,969466100
769,10,Ticks_ISO_T2_5,199,1,48,47,969948264
769,10,Ticks_ISO_T2_5,200,5,42,127,969965868
769,10,Ticks_ISO_T2_5,201,5,42,127,970465720
769,10,Ticks_ISO_T2_5,202,1,48,44,970468692
769,10,Ticks_ISO_T2_5,203,1,48,48,970953108
769,10,Ticks_ISO_T2_5,204,5,42,127,970966456
769,10,Ticks_ISO_T2_5,205,1,48,39,971457436
769,10,Ticks_ISO_T2_5,206,5,42,127,971466148
769,10,Ticks_ISO_T2_5,207,1,48,46,971951600
769,10,Ticks_ISO_T2_5,208,5,42,127,971965916
769,10,Ticks_ISO_T2_5,209,1,48,40,972450544
769,10,Ticks_ISO_T2_5,210,5,42,127,972465688
769,10,Ticks_ISO_T2_5,211,1,48,45,972945948
769,10,Ticks_ISO_T2_5,212,5,42,127,972966428
769,10,Ticks_ISO_T2_5,213,5,42,127,973465980
769,10,Ticks_ISO_T2_5,214,1,48,46,973467696
769,10,Ticks_ISO_T2_5,215,1,48,52,973946760
769,10,Ticks_ISO_T2_5,216,5,42,127,973965720
769,10,Ticks_ISO_T2_5,217,5,42,127,974466544
769,10,Ticks_ISO_T2_5,218,1,48,49,974468032
769,10,Ticks_ISO_T2_5,219,5,42,127,974966016
769,10,Ticks_ISO_T2_5,220,1,48,44,974966984
769,10,Ticks_ISO_T2_5,221,1,48,48,975458260
769,10,Ticks_ISO_T2_5,222,5,42,127,975465852
769,10,Ticks_ISO_T2_5,223,5,42,127,975965704
769,10,Ticks_ISO_T2_5,224,1,48,47,975979820
769,10,Ticks_ISO_T2_5,225,5,42,127,976466368
769,10,Ticks_ISO_T2_5,226,1,48,40,976503448
769,10,Ticks_ISO_T2_5,227,1,48,40,976961836
769,10,Ticks_ISO_T2_5,228,5,42,127,976966056
769,10,Ticks_ISO_T2_5,229,5,42,127,977465684
769,10,Ticks_ISO_T2_5,230,1,48,44,977476056
769,10,Ticks_ISO_T2_5,231,5,42,127,977965676
769,10,Ticks_ISO_T2_5,232,1,48,45,977984804
769,10,Ticks_ISO_T2_5,233,5,42,127,978466120
769,10,Ticks_ISO_T2_5,234,1,48,50,978475524
769,10,Ticks_ISO_T2_5,235,5,42,127,978965888
769,10,Ticks_ISO_T2_5,236,1,48,47,978978212
769,10,Ticks_ISO_T2_5,237,5,42,127,979465736
769,10,Ticks_ISO_T2_5,238,1,48,48,979483516
769,10,Ticks_ISO_T2_5,239,1,48,47,979954700
769,10,Ticks_ISO_T2_5,240,5,42,127,979966396
769,10,Ticks_ISO_T2_5,241,5,42,127,980466024
769,10,Ticks_ISO_T2_5,242,1,48,44,980477300
769,10,Ticks_ISO_T2_5,243,1,48,38,980959024
769,10,Ticks_ISO_T2_5,244,5,42,127,980965716
769,10,Ticks_ISO_T2_5,245,5,42,127,981465564
769,10,Ticks_ISO_T2_5,246,1,48,47,981480656
769,10,Ticks_ISO_T2_5,247,5,42,127,981966380
769,10,Ticks_ISO_T2_5,248,1,48,44,981983788
769,10,Ticks_ISO_T2_5,249,1,48,42,982454216
769,10,Ticks_ISO_T2_5,250,5,42,127,982465920
769,10,Ticks_ISO_T2_5,251,1,48,43,982964268
769,10,Ticks_ISO_T2_5,252,5,42,127,982965764
769,10,Ticks_ISO_T2_5,253,5,42,127,983466292
769,10,Ticks_ISO_T2_5,254,1,48,49,983490428
769,10,Ticks_ISO_T2_5,255,5,42,127,983966060
769,10,Ticks_ISO_T2_5,256,1,48,39,983967028
769,10,Ticks_ISO_T2_5,257,5,42,127,984465732
769,10,Ticks_ISO_T2_5,258,1,48,36,984466852
769,10,Ticks_ISO_T2_5,259,1,48,42,984960896
769,10,Ticks_ISO_T2_5,0,9999,9999,9999,919963712
769,10,Ticks_ISO_T2_5,1,9999,9999,9999,920463480
769,10,Ticks_ISO_T2_5,2,9999,9999,9999,920963172
769,10,Ticks_ISO_T2_5,3,9999,9999,9999,921463908
769,10,Ticks_ISO_T2_5,4,9999,9999,9999,921963604
769,10,Ticks_ISO_T2_5,5,9999,9999,9999,922463296
769,10,Ticks_ISO_T2_5,6,9999,9999,9999,922964040
769,10,Ticks_ISO_T2_5,7,9999,9999,9999,923463736
769,10,Ticks_ISO_T2_5,8,9999,9999,9999,923963504
769,10,Ticks_ISO_T2_5,9,9999,9999,9999,924463200
769,10,Ticks_ISO_T2_5,10,9999,9999,9999,924963940
769,10,Ticks_ISO_T2_5,11,9999,9999,9999,925463636
769,10,Ticks_ISO_T2_5,12,9999,9999,9999,925963328
769,10,Ticks_ISO_T2_5,13,9999,9999,9999,926464072
769,10,Ticks_ISO_T2_5,14,9999,9999,9999,926963772
769,10,Ticks_ISO_T2_5,15,9999,9999,9999,927463536
769,10,Ticks_ISO_T2_5,16,9999,9999,9999,927963228
769,10,Ticks_ISO_T2_5,17,9999,9999,9999,928463972
769,10,Ticks_ISO_T2_5,18,9999,9999,9999,928963672
769,10,Ticks_ISO_T2_5,19,9999,9999,9999,929463368
769,10,Ticks_ISO_T2_5,20,9999,9999,9999,929963056
769,10,Ticks_ISO_T2_5,21,9999,9999,9999,930463804
769,10,Ticks_ISO_T2_5,22,9999,9999,9999,930963548
769,10,Ticks_ISO_T2_5,23,9999,9999,9999,931463236
769,10,Ticks_ISO_T2_5,24,9999,9999,9999,931963984
769,10,Ticks_ISO_T2_5,25,9999,9999,9999,932463672
769,10,Ticks_ISO_T2_5,26,9999,9999,9999,932963444
769,10,Ticks_ISO_T2_5,27,9999,9999,9999,933463144
769,10,Ticks_ISO_T2_5,28,9999,9999,9999,933963880
769,10,Ticks_ISO_T2_5,29,9999,9999,9999,934463572
769,10,Ticks_ISO_T2_5,30,9999,9999,9999,934963268
769,10,Ticks_ISO_T2_5,31,9999,9999,9999,935464008
769,10,Ticks_ISO_T2_5,32,9999,9999,9999,935963704
769,10,Ticks_ISO_T2_5,33,9999,9999,9999,936463472
769,10,Ticks_ISO_T2_5,34,9999,9999,9999,936963168
769,10,Ticks_ISO_T2_5,35,9999,9999,9999,937463912
769,10,Ticks_ISO_T2_5,36,9999,9999,9999,937963604
769,10,Ticks_ISO_T2_5,37,9999,9999,9999,938463300
769,10,Ticks_ISO_T2_5,38,9999,9999,9999,938964040
769,10,Ticks_ISO_T2_5,39,9999,9999,9999,939463736
769,10,Ticks_ISO_T2_5,40,9999,9999,9999,939963504
769,10,Ticks_ISO_T2_5,41,9999,9999,9999,940463200
769,10,Ticks_ISO_T2_5,42,9999,9999,9999,940963940
769,10,Ticks_ISO_T2_5,43,9999,9999,9999,941463612
769,10,Ticks_ISO_T2_5,44,9999,9999,9999,941963380
769,10,Ticks_ISO_T2_5,45,9999,9999,9999,942464120
769,10,Ticks_ISO_T2_5,46,9999,9999,9999,942963816
769,10,Ticks_ISO_T2_5,47,9999,9999,9999,943463520
769,10,Ticks_ISO_T2_5,48,9999,9999,9999,943963208
769,10,Ticks_ISO_T2_5,49,9999,9999,9999,944463948
769,10,Ticks_ISO_T2_5,50,9999,9999,9999,944963644
769,10,Ticks_ISO_T2_5,51,9999,9999,9999,945463412
769,10,Ticks_ISO_T2_5,52,9999,9999,9999,945963108
769,10,Ticks_ISO_T2_5,53,9999,9999,9999,946463848
769,10,Ticks_ISO_T2_5,54,9999,9999,9999,946963544
769,10,Ticks_ISO_T2_5,55,9999,9999,9999,947463236
769,10,Ticks_ISO_T2_5,56,9999,9999,9999,947963976
769,10,Ticks_ISO_T2_5,57,9999,9999,9999,948463680
769,10,Ticks_ISO_T2_5,58,9999,9999,9999,948963448
769,10,Ticks_ISO_T2_5,59,9999,9999,9999,949463144
769,10,Ticks_ISO_T2_5,60,9999,9999,9999,949963880
769,10,Ticks_ISO_T2_5,61,9999,9999,9999,950463580
769,10,Ticks_ISO_T2_5,62,9999,9999,9999,950963276
769,10,Ticks_ISO_T2_5,63,9999,9999,9999,951464020
769,10,Ticks_ISO_T2_5,64,9999,9999,9999,951963712
769,10,Ticks_ISO_T2_5,65,9999,9999,9999,952463456
769,10,Ticks_ISO_T2_5,66,9999,9999,9999,952963144
769,10,Ticks_ISO_T2_5,67,9999,9999,9999,953463888
769,10,Ticks_ISO_T2_5,68,9999,9999,9999,953963584
769,10,Ticks_ISO_T2_5,69,9999,9999,9999,954463352
769,10,Ticks_ISO_T2_5,70,9999,9999,9999,954964020
769,10,Ticks_ISO_T2_5,71,9999,9999,9999,955463788
769,10,Ticks_ISO_T2_5,72,9999,9999,9999,955963484
769,10,Ticks_ISO_T2_5,73,9999,9999,9999,956463184
769,10,Ticks_ISO_T2_5,74,9999,9999,9999,956963924
769,10,Ticks_ISO_T2_5,75,9999,9999,9999,957463616
769,10,Ticks_ISO_T2_5,76,9999,9999,9999,957963384
769,10,Ticks_ISO_T2_5,77,9999,9999,9999,958464056
769,10,Ticks_ISO_T2_5,78,9999,9999,9999,958963828
769,10,Ticks_ISO_T2_5,79,9999,9999,9999,959463516
769,10,Ticks_ISO_T2_5,80,9999,9999,9999,959963212
769,10,Ticks_ISO_T2_5,81,9999,9999,9999,960463960
769,10,Ticks_ISO_T2_5,82,9999,9999,9999,960963652
769,10,Ticks_ISO_T2_5,83,9999,9999,9999,961463348
769,10,Ticks_ISO_T2_5,84,9999,9999,9999,961963116
769,10,Ticks_ISO_T2_5,85,9999,9999,9999,962463856
769,10,Ticks_ISO_T2_5,86,9999,9999,9999,962963520
769,10,Ticks_ISO_T2_5,87,9999,9999,9999,963463224
769,10,Ticks_ISO_T2_5,88,9999,9999,9999,963963956
769,10,Ticks_ISO_T2_5,89,9999,9999,9999,964463732
769,10,Ticks_ISO_T2_5,90,9999,9999,9999,964963428
769,10,Ticks_ISO_T2_5,91,9999,9999,9999,965463116
769,10,Ticks_ISO_T2_5,92,9999,9999,9999,965963864
769,10,Ticks_ISO_T2_5,93,9999,9999,9999,966463552
769,10,Ticks_ISO_T2_5,94,9999,9999,9999,966963320
769,10,Ticks_ISO_T2_5,95,9999,9999,9999,967463992
769,10,Ticks_ISO_T2_5,96,9999,9999,9999,967963756
769,10,Ticks_ISO_T2_5,97,9999,9999,9999,968463452
769,10,Ticks_ISO_T2_5,98,9999,9999,9999,968963148
769,10,Ticks_ISO_T2_5,99,9999,9999,9999,969463888
769,10,Ticks_ISO_T2_5,100,9999,9999,9999,969963584
769,10,Ticks_ISO_T2_5,101,9999,9999,9999,970463284
769,10,Ticks_ISO_T2_5,102,9999,9999,9999,970964020
769,10,Ticks_ISO_T2_5,103,9999,9999,9999,971463788
769,10,Ticks_ISO_T2_5,104,9999,9999,9999,971963484
769,10,Ticks_ISO_T2_5,105,9999,9999,9999,972463176
769,10,Ticks_ISO_T2_5,106,9999,9999,9999,972963916
769,10,Ticks_ISO_T2_5,107,9999,9999,9999,973463620
769,10,Ticks_ISO_T2_5,108,9999,9999,9999,973963360
769,10,Ticks_ISO_T2_5,109,9999,9999,9999,974464104
769,10,Ticks_ISO_T2_5,110,9999,9999,9999,974963800
769,10,Ticks_ISO_T2_5,111,9999,9999,9999,975463492
769,10,Ticks_ISO_T2_5,112,9999,9999,9999,975963192
769,10,Ticks_ISO_T2_5,113,9999,9999,9999,976463932
769,10,Ticks_ISO_T2_5,114,9999,9999,9999,976963696
769,10,Ticks_ISO_T2_5,115,9999,9999,9999,977463396
769,10,Ticks_ISO_T2_5,116,9999,9999,9999,977963092
769,10,Ticks_ISO_T2_5,117,9999,9999,9999,978463832
769,10,Ticks_ISO_T2_5,118,9999,9999,9999,978963528
769,10,Ticks_ISO_T2_5,119,9999,9999,9999,979463224
769,10,Ticks_ISO_T2_5,120,9999,9999,9999,979963960
769,10,Ticks_ISO_T2_5,121,9999,9999,9999,980463664
769,10,Ticks_ISO_T2_5,122,9999,9999,9999,980963428
769,10,Ticks_ISO_T2_5,123,9999,9999,9999,981463128
769,10,Ticks_ISO_T2_5,124,9999,9999,9999,981963872
769,10,Ticks_ISO_T2_5,125,9999,9999,9999,982463560
769,10,Ticks_ISO_T2_5,126,9999,9999,9999,982963264
769,10,Ticks_ISO_T2_5,127,9999,9999,9999,983464004
769,10,Ticks_ISO_T2_5,128,9999,9999,9999,983963700
769,10,Ticks_ISO_T2_5,129,9999,9999,9999,984463444
7610,9,Ticks_ISO_T2_8,0,5,42,127,994804208
7610,9,Ticks_ISO_T2_8,1,1,48,37,995405236
7610,9,Ticks_ISO_T2_8,2,5,42,127,995603868
7610,9,Ticks_ISO_T2_8,3,1,48,44,996392512
7610,9,Ticks_ISO_T2_8,4,5,42,127,996403468
7610,9,Ticks_ISO_T2_8,5,1,48,48,997141012
7610,9,Ticks_ISO_T2_8,6,5,42,127,997204396
7610,9,Ticks_ISO_T2_8,7,1,48,44,997904840
7610,9,Ticks_ISO_T2_8,8,5,42,127,998004044
7610,9,Ticks_ISO_T2_8,9,1,48,43,998769052
7610,9,Ticks_ISO_T2_8,10,5,42,127,998803792
7610,9,Ticks_ISO_T2_8,11,5,42,127,999603480
7610,9,Ticks_ISO_T2_8,12,1,48,48,999618872
7610,9,Ticks_ISO_T2_8,13,1,48,51,1000363004
7610,9,Ticks_ISO_T2_8,14,5,42,127,1000404256
7610,9,Ticks_ISO_T2_8,15,1,48,47,1001195500
7610,9,Ticks_ISO_T2_8,16,5,42,127,1001204064
7610,9,Ticks_ISO_T2_8,17,1,48,45,1001997780
7610,9,Ticks_ISO_T2_8,18,5,42,127,1002003944
7610,9,Ticks_ISO_T2_8,19,1,48,40,1002780684
7610,9,Ticks_ISO_T2_8,20,5,42,127,1002803528
7610,9,Ticks_ISO_T2_8,21,1,48,36,1003528132
7610,9,Ticks_ISO_T2_8,22,5,42,127,1003604384
7610,9,Ticks_ISO_T2_8,23,1,48,48,1004312084
7610,9,Ticks_ISO_T2_8,24,5,42,127,1004403968
7610,9,Ticks_ISO_T2_8,25,1,48,47,1005119296
7610,9,Ticks_ISO_T2_8,26,5,42,127,1005203852
7610,9,Ticks_ISO_T2_8,27,1,48,47,1005936984
7610,9,Ticks_ISO_T2_8,28,5,42,127,1006003460
7610,9,Ticks_ISO_T2_8,29,1,48,49,1006691836
7610,9,Ticks_ISO_T2_8,30,5,42,127,1006804300
7610,9,Ticks_ISO_T2_8,31,1,48,43,1007537748
7610,9,Ticks_ISO_T2_8,32,5,42,127,1007604196
7610,9,Ticks_ISO_T2_8,33,1,48,48,1008307860
7610,9,Ticks_ISO_T2_8,34,5,42,127,1008403856
7610,9,Ticks_ISO_T2_8,35,1,48,43,1009174540
7610,9,Ticks_ISO_T2_8,36,5,42,127,1009203516
7610,9,Ticks_ISO_T2_8,37,5,42,127,1010004452
7610,9,Ticks_ISO_T2_8,38,1,48,41,1010029716
7610,9,Ticks_ISO_T2_8,39,5,42,127,1010804036
7610,9,Ticks_ISO_T2_8,40,1,48,41,1010851312
7610,9,Ticks_ISO_T2_8,41,1,48,42,1011551744
7610,9,Ticks_ISO_T2_8,42,5,42,127,1011603912
7610,9,Ticks_ISO_T2_8,43,1,48,46,1012384840
7610,9,Ticks_ISO_T2_8,44,5,42,127,1012403420
7610,9,Ticks_ISO_T2_8,45,1,48,39,1013182100
7610,9,Ticks_ISO_T2_8,46,5,42,127,1013204424
7610,9,Ticks_ISO_T2_8,47,5,42,127,1014004016
7610,9,Ticks_ISO_T2_8,48,1,48,44,1014021424
7610,9,Ticks_ISO_T2_8,49,1,48,41,1014778208
7610,9,Ticks_ISO_T2_8,50,5,42,127,1014804040
7610,9,Ticks_ISO_T2_8,51,1,48,49,1015578988
7610,9,Ticks_ISO_T2_8,52,5,42,127,1015603552
7610,9,Ticks_ISO_T2_8,53,5,42,127,1016404192
7610,9,Ticks_ISO_T2_8,54,1,48,49,1016427056
7610,9,Ticks_ISO_T2_8,55,1,48,42,1017191016
7610,9,Ticks_ISO_T2_8,56,5,42,127,1017203992
7610,9,Ticks_ISO_T2_8,57,1,48,33,1017974592
7610,9,Ticks_ISO_T2_8,58,5,42,127,1018003948
7610,9,Ticks_ISO_T2_8,59,1,48,32,1018708484
7610,9,Ticks_ISO_T2_8,60,5,42,127,1018803888
7610,9,Ticks_ISO_T2_8,61,1,48,31,1019586176
7610,9,Ticks_ISO_T2_8,62,5,42,127,1019604464
7610,9,Ticks_ISO_T2_8,63,1,48,26,1020403224
7610,9,Ticks_ISO_T2_8,64,5,42,127,1020404868
7610,9,Ticks_ISO_T2_8,65,1,48,33,1021149816
7610,9,Ticks_ISO_T2_8,66,5,42,127,1021203928
7610,9,Ticks_ISO_T2_8,67,1,48,42,1021982236
7610,9,Ticks_ISO_T2_8,68,5,42,127,1022003736
7610,9,Ticks_ISO_T2_8,69,5,42,127,1022804300
7610,9,Ticks_ISO_T2_8,70,1,48,30,1022812580
7610,9,Ticks_ISO_T2_8,71,1,48,36,1023549472
7610,9,Ticks_ISO_T2_8,72,5,42,127,1023604028
7610,9,Ticks_ISO_T2_8,73,1,48,40,1024352268
7610,9,Ticks_ISO_T2_8,74,5,42,127,1024403832
7610,9,Ticks_ISO_T2_8,75,1,48,44,1025159628
7610,9,Ticks_ISO_T2_8,76,5,42,127,1025203740
7610,9,Ticks_ISO_T2_8,77,5,42,127,1026004228
7610,9,Ticks_ISO_T2_8,78,1,48,31,1026022156
7610,9,Ticks_ISO_T2_8,79,1,48,43,1026781180
7610,9,Ticks_ISO_T2_8,80,5,42,127,1026804028
7610,9,Ticks_ISO_T2_8,81,5,42,127,1027603920
7610,9,Ticks_ISO_T2_8,82,1,48,33,1027625512
7610,9,Ticks_ISO_T2_8,83,1,48,32,1028386404
7610,9,Ticks_ISO_T2_8,84,5,42,127,1028403720
7610,9,Ticks_ISO_T2_8,85,1,48,30,1029162728
7610,9,Ticks_ISO_T2_8,86,5,42,127,1029204424
7610,9,Ticks_ISO_T2_8,87,1,48,40,1029963812
7610,9,Ticks_ISO_T2_8,88,5,42,127,1030003936
7610,9,Ticks_ISO_T2_8,89,1,48,39,1030785756
7610,9,Ticks_ISO_T2_8,90,5,42,127,1030803820
7610,9,Ticks_ISO_T2_8,91,1,48,39,1031551908
7610,9,Ticks_ISO_T2_8,92,5,42,127,1031603652
7610,9,Ticks_ISO_T2_8,93,1,48,35,1032339528
7610,9,Ticks_ISO_T2_8,94,5,42,127,1032404428
7610,9,Ticks_ISO_T2_8,95,1,48,37,1033102980
7610,9,Ticks_ISO_T2_8,96,5,42,127,1033203928
7610,9,Ticks_ISO_T2_8,97,1,48,46,1033957040
7610,9,Ticks_ISO_T2_8,98,5,42,127,1034003900
7610,9,Ticks_ISO_T2_8,99,1,48,54,1034789312
7610,9,Ticks_ISO_T2_8,100,5,42,127,1034803556
7610,9,Ticks_ISO_T2_8,101,1,48,46,1035578800
7610,9,Ticks_ISO_T2_8,102,5,42,127,1035604560
7610,9,Ticks_ISO_T2_8,103,1,48,43,1036333432
7610,9,Ticks_ISO_T2_8,104,5,42,127,1036403924
7610,9,Ticks_ISO_T2_8,105,1,48,40,1037138104
7610,9,Ticks_ISO_T2_8,106,5,42,127,1037203808
7610,9,Ticks_ISO_T2_8,107,1,48,46,1037985428
7610,9,Ticks_ISO_T2_8,108,5,42,127,1038003416
7610,9,Ticks_ISO_T2_8,109,1,48,36,1038747388
7610,9,Ticks_ISO_T2_8,110,5,42,127,1038804492
7610,9,Ticks_ISO_T2_8,111,1,48,38,1039579736
7610,9,Ticks_ISO_T2_8,112,5,42,127,1039603928
7610,9,Ticks_ISO_T2_8,113,1,48,43,1040339228
7610,9,Ticks_ISO_T2_8,114,5,42,127,1040403812
7610,9,Ticks_ISO_T2_8,115,1,48,46,1041093480
7610,9,Ticks_ISO_T2_8,116,5,42,127,1041203528
7610,9,Ticks_ISO_T2_8,117,5,42,127,1042004480
7610,9,Ticks_ISO_T2_8,118,1,48,42,1042013360
7610,9,Ticks_ISO_T2_8,119,1,48,40,1042803684
7610,9,Ticks_ISO_T2_8,120,5,42,127,1042805252
7610,9,Ticks_ISO_T2_8,121,1,48,39,1043562464
7610,9,Ticks_ISO_T2_8,122,5,42,127,1043603716
7610,9,Ticks_ISO_T2_8,123,5,42,127,1044403480
7610,9,Ticks_ISO_T2_8,124,1,48,28,1044422832
7610,9,Ticks_ISO_T2_8,125,1,48,42,1045197116
7610,9,Ticks_ISO_T2_8,126,5,42,127,1045204476
7610,9,Ticks_ISO_T2_8,127,5,42,127,1046004292
7610,9,Ticks_ISO_T2_8,128,1,48,48,1046763544
7610,9,Ticks_ISO_T2_8,129,5,42,127,1046803964
7610,9,Ticks_ISO_T2_8,130,1,48,43,1047565892
7610,9,Ticks_ISO_T2_8,131,5,42,127,1047603552
7610,9,Ticks_ISO_T2_8,132,1,48,43,1048369516
7610,9,Ticks_ISO_T2_8,133,5,42,127,1048404256
7610,9,Ticks_ISO_T2_8,134,1,48,43,1049158708
7610,9,Ticks_ISO_T2_8,135,5,42,127,1049204288
7610,9,Ticks_ISO_T2_8,136,1,48,42,1049972052
7610,9,Ticks_ISO_T2_8,137,5,42,127,1050003796
7610,9,Ticks_ISO_T2_8,138,1,48,32,1050757620
7610,9,Ticks_ISO_T2_8,139,5,42,127,1050803456
7610,9,Ticks_ISO_T2_8,140,1,48,46,1051568748
7610,9,Ticks_ISO_T2_8,141,5,42,127,1051604384
7610,9,Ticks_ISO_T2_8,142,1,48,44,1052384636
7610,9,Ticks_ISO_T2_8,143,5,42,127,1052404192
7610,9,Ticks_ISO_T2_8,144,1,48,42,1053185640
7610,9,Ticks_ISO_T2_8,145,5,42,127,1053203924
7610,9,Ticks_ISO_T2_8,146,5,42,127,1054003444
7610,9,Ticks_ISO_T2_8,147,1,48,42,1054017032
7610,9,Ticks_ISO_T2_8,148,5,42,127,1054804220
7610,9,Ticks_ISO_T2_8,149,1,48,46,1054807192
7610,9,Ticks_ISO_T2_8,150,1,48,24,1054939060
7610,9,Ticks_ISO_T2_8,151,5,42,127,1055604232
7610,9,Ticks_ISO_T2_8,152,1,48,48,1055620064
7610,9,Ticks_ISO_T2_8,153,5,42,127,1056404060
7610,9,Ticks_ISO_T2_8,154,1,48,38,1056412344
7610,9,Ticks_ISO_T2_8,155,5,42,127,1057203648
7610,9,Ticks_ISO_T2_8,156,1,48,43,1057265784
7610,9,Ticks_ISO_T2_8,157,1,48,45,1057989880
7610,9,Ticks_ISO_T2_8,158,5,42,127,1058004272
7610,9,Ticks_ISO_T2_8,159,1,48,42,1058763504
7610,9,Ticks_ISO_T2_8,160,5,42,127,1058804156
7610,9,Ticks_ISO_T2_8,161,1,48,39,1059542596
7610,9,Ticks_ISO_T2_8,162,5,42,127,1059603816
7610,9,Ticks_ISO_T2_8,163,1,48,47,1060353920
7610,9,Ticks_ISO_T2_8,164,5,42,127,1060403472
7610,9,Ticks_ISO_T2_8,165,1,48,35,1061127104
7610,9,Ticks_ISO_T2_8,166,5,42,127,1061204256
7610,9,Ticks_ISO_T2_8,167,1,48,40,1061987652
7610,9,Ticks_ISO_T2_8,168,5,42,127,1062004212
7610,9,Ticks_ISO_T2_8,169,1,48,42,1062790600
7610,9,Ticks_ISO_T2_8,170,5,42,127,1062804044
7610,9,Ticks_ISO_T2_8,171,1,48,34,1063596044
7610,9,Ticks_ISO_T2_8,172,5,42,127,1063603484
7610,9,Ticks_ISO_T2_8,173,1,48,40,1064393604
7610,9,Ticks_ISO_T2_8,174,5,42,127,1064404188
7610,9,Ticks_ISO_T2_8,175,1,48,42,1065173964
7610,9,Ticks_ISO_T2_8,176,5,42,127,1065203996
7610,9,Ticks_ISO_T2_8,177,1,48,37,1065986272
7610,9,Ticks_ISO_T2_8,178,5,42,127,1066003952
7610,9,Ticks_ISO_T2_8,179,1,48,46,1066768652
7610,9,Ticks_ISO_T2_8,180,5,42,127,1066803536
7610,9,Ticks_ISO_T2_8,181,1,48,38,1067571600
7610,9,Ticks_ISO_T2_8,182,5,42,127,1067604244
7610,9,Ticks_ISO_T2_8,183,1,48,49,1068385296
7610,9,Ticks_ISO_T2_8,184,5,42,127,1068404024
7610,9,Ticks_ISO_T2_8,185,1,48,36,1069177472
7610,9,Ticks_ISO_T2_8,186,5,42,127,1069203936
7610,9,Ticks_ISO_T2_8,187,1,48,40,1069967488
7610,9,Ticks_ISO_T2_8,188,5,42,127,1070003668
7610,9,Ticks_ISO_T2_8,189,1,48,38,1070740988
7610,9,Ticks_ISO_T2_8,190,5,42,127,1070804300
7610,9,Ticks_ISO_T2_8,191,5,42,127,1071604040
7610,9,Ticks_ISO_T2_8,192,1,48,49,1071611348
7610,9,Ticks_ISO_T2_8,193,1,48,36,1072343892
7610,9,Ticks_ISO_T2_8,194,5,42,127,1072403768
7610,9,Ticks_ISO_T2_8,195,1,48,45,1073189632
7610,9,Ticks_ISO_T2_8,196,5,42,127,1073203724
7610,9,Ticks_ISO_T2_8,197,1,48,46,1073984352
7610,9,Ticks_ISO_T2_8,198,5,42,127,1074004356
7610,9,Ticks_ISO_T2_8,199,1,48,44,1074775780
7610,9,Ticks_ISO_T2_8,200,5,42,127,1074804016
7610,9,Ticks_ISO_T2_8,201,1,48,47,1075556144
7610,9,Ticks_ISO_T2_8,202,5,42,127,1075604072
7610,9,Ticks_ISO_T2_8,203,1,48,45,1076389860
7610,9,Ticks_ISO_T2_8,204,5,42,127,1076403656
7610,9,Ticks_ISO_T2_8,205,5,42,127,1077204220
7610,9,Ticks_ISO_T2_8,206,1,48,34,1077224620
7610,9,Ticks_ISO_T2_8,207,1,48,31,1077993892
7610,9,Ticks_ISO_T2_8,208,5,42,127,1078004172
7610,9,Ticks_ISO_T2_8,209,1,48,33,1078752264
7610,9,Ticks_ISO_T2_8,210,5,42,127,1078803904
7610,9,Ticks_ISO_T2_8,211,1,48,34,1079530532
7610,9,Ticks_ISO_T2_8,212,5,42,127,1079603716
7610,9,Ticks_ISO_T2_8,213,1,48,38,1080357192
7610,9,Ticks_ISO_T2_8,214,5,42,127,1080404272
7610,9,Ticks_ISO_T2_8,215,1,48,48,1081111444
7610,9,Ticks_ISO_T2_8,216,5,42,127,1081204080
7610,9,Ticks_ISO_T2_8,217,1,48,44,1081984108
7610,9,Ticks_ISO_T2_8,218,5,42,127,1082003912
7610,9,Ticks_ISO_T2_8,219,1,48,41,1082796284
7610,9,Ticks_ISO_T2_8,220,5,42,127,1082803792
7610,9,Ticks_ISO_T2_8,221,1,48,46,1083591900
7610,9,Ticks_ISO_T2_8,222,5,42,127,1083604200
7610,9,Ticks_ISO_T2_8,223,1,48,41,1084398068
7610,9,Ticks_ISO_T2_8,224,5,42,127,1084404008
7610,9,Ticks_ISO_T2_8,225,1,48,40,1085152992
7610,9,Ticks_ISO_T2_8,226,5,42,127,1085203816
7610,9,Ticks_ISO_T2_8,227,1,48,43,1086000000
7610,9,Ticks_ISO_T2_8,228,5,42,127,1086003920
7610,9,Ticks_ISO_T2_8,229,1,48,44,1086791580
7610,9,Ticks_ISO_T2_8,230,5,42,127,1086804180
7610,9,Ticks_ISO_T2_8,231,5,42,127,1087604068
7610,9,Ticks_ISO_T2_8,232,1,48,40,1087609804
7610,9,Ticks_ISO_T2_8,233,1,48,32,1088345944
7610,9,Ticks_ISO_T2_8,234,5,42,127,1088403748
7610,9,Ticks_ISO_T2_8,235,1,48,39,1089159520
7610,9,Ticks_ISO_T2_8,236,5,42,127,1089203704
7610,9,Ticks_ISO_T2_8,237,1,48,34,1089989344
7610,9,Ticks_ISO_T2_8,238,5,42,127,1090004336
7610,9,Ticks_ISO_T2_8,239,1,48,40,1090788856
7610,9,Ticks_ISO_T2_8,0,9999,9999,9999,994801772
7610,9,Ticks_ISO_T2_8,1,9999,9999,9999,995601504
7610,9,Ticks_ISO_T2_8,2,9999,9999,9999,996401252
7610,9,Ticks_ISO_T2_8,3,9999,9999,9999,997202036
7610,9,Ticks_ISO_T2_8,4,9999,9999,9999,998001768
7610,9,Ticks_ISO_T2_8,5,9999,9999,9999,998801504
7610,9,Ticks_ISO_T2_8,6,9999,9999,9999,999601268
7610,9,Ticks_ISO_T2_8,7,9999,9999,9999,1000401968
7610,9,Ticks_ISO_T2_8,8,9999,9999,9999,1001201776
7610,9,Ticks_ISO_T2_8,9,9999,9999,9999,1002001508
7610,9,Ticks_ISO_T2_8,10,9999,9999,9999,1002801240
7610,9,Ticks_ISO_T2_8,11,9999,9999,9999,1003602020
7610,9,Ticks_ISO_T2_8,12,9999,9999,9999,1004401752
7610,9,Ticks_ISO_T2_8,13,9999,9999,9999,1005201488
7610,9,Ticks_ISO_T2_8,14,9999,9999,9999,1006001248
7610,9,Ticks_ISO_T2_8,15,9999,9999,9999,1006802012
7610,9,Ticks_ISO_T2_8,16,9999,9999,9999,1007601760
7610,9,Ticks_ISO_T2_8,17,9999,9999,9999,1008401496
7610,9,Ticks_ISO_T2_8,18,9999,9999,9999,1009201228
7610,9,Ticks_ISO_T2_8,19,9999,9999,9999,1010002016
7610,9,Ticks_ISO_T2_8,20,9999,9999,9999,1010801748
7610,9,Ticks_ISO_T2_8,21,9999,9999,9999,1011601476
7610,9,Ticks_ISO_T2_8,22,9999,9999,9999,1012401208
7610,9,Ticks_ISO_T2_8,23,9999,9999,9999,1013201988
7610,9,Ticks_ISO_T2_8,24,9999,9999,9999,1014001728
7610,9,Ticks_ISO_T2_8,25,9999,9999,9999,1014801456
7610,9,Ticks_ISO_T2_8,26,9999,9999,9999,1015601264
7610,9,Ticks_ISO_T2_8,27,9999,9999,9999,1016401976
7610,9,Ticks_ISO_T2_8,28,9999,9999,9999,1017201776
7610,9,Ticks_ISO_T2_8,29,9999,9999,9999,1018001512
7610,9,Ticks_ISO_T2_8,30,9999,9999,9999,1018801228
7610,9,Ticks_ISO_T2_8,31,9999,9999,9999,1019602024
7610,9,Ticks_ISO_T2_8,32,9999,9999,9999,1020401764
7610,9,Ticks_ISO_T2_8,33,9999,9999,9999,1021201492
7610,9,Ticks_ISO_T2_8,34,9999,9999,9999,1022001224
7610,9,Ticks_ISO_T2_8,35,9999,9999,9999,1022802012
7610,9,Ticks_ISO_T2_8,36,9999,9999,9999,1023601740
7610,9,Ticks_ISO_T2_8,37,9999,9999,9999,1024401472
7610,9,Ticks_ISO_T2_8,38,9999,9999,9999,1025201228
7610,9,Ticks_ISO_T2_8,39,9999,9999,9999,1026002016
7610,9,Ticks_ISO_T2_8,40,9999,9999,9999,1026801740
7610,9,Ticks_ISO_T2_8,41,9999,9999,9999,1027601480
7610,9,Ticks_ISO_T2_8,42,9999,9999,9999,1028401208
7610,9,Ticks_ISO_T2_8,43,9999,9999,9999,1029201988
7610,9,Ticks_ISO_T2_8,44,9999,9999,9999,1030001724
7610,9,Ticks_ISO_T2_8,45,9999,9999,9999,1030801456
7610,9,Ticks_ISO_T2_8,46,9999,9999,9999,1031601216
7610,9,Ticks_ISO_T2_8,47,9999,9999,9999,1032401992
7610,9,Ticks_ISO_T2_8,48,9999,9999,9999,1033201712
7610,9,Ticks_ISO_T2_8,49,9999,9999,9999,1034001460
7610,9,Ticks_ISO_T2_8,50,9999,9999,9999,1034801268
7610,9,Ticks_ISO_T2_8,51,9999,9999,9999,1035601976
7610,9,Ticks_ISO_T2_8,52,9999,9999,9999,1036401708
7610,9,Ticks_ISO_T2_8,53,9999,9999,9999,1037201520
7610,9,Ticks_ISO_T2_8,54,9999,9999,9999,1038001204
7610,9,Ticks_ISO_T2_8,55,9999,9999,9999,1038801980
7610,9,Ticks_ISO_T2_8,56,9999,9999,9999,1039601716
7610,9,Ticks_ISO_T2_8,57,9999,9999,9999,1040401524
7610,9,Ticks_ISO_T2_8,58,9999,9999,9999,1041201240
7610,9,Ticks_ISO_T2_8,59,9999,9999,9999,1042001968
7610,9,Ticks_ISO_T2_8,60,9999,9999,9999,1042801776
7610,9,Ticks_ISO_T2_8,61,9999,9999,9999,1043601504
7610,9,Ticks_ISO_T2_8,62,9999,9999,9999,1044401268
7610,9,Ticks_ISO_T2_8,63,9999,9999,9999,1045201964
7610,9,Ticks_ISO_T2_8,64,9999,9999,9999,1046001780
7610,9,Ticks_ISO_T2_8,65,9999,9999,9999,1046801452
7610,9,Ticks_ISO_T2_8,66,9999,9999,9999,1047601264
7610,9,Ticks_ISO_T2_8,67,9999,9999,9999,1048401968
7610,9,Ticks_ISO_T2_8,68,9999,9999,9999,1049201776
7610,9,Ticks_ISO_T2_8,69,9999,9999,9999,1050001508
7610,9,Ticks_ISO_T2_8,70,9999,9999,9999,1050801240
7610,9,Ticks_ISO_T2_8,71,9999,9999,9999,1051602020
7610,9,Ticks_ISO_T2_8,72,9999,9999,9999,1052401752
7610,9,Ticks_ISO_T2_8,73,9999,9999,9999,1053201488
7610,9,Ticks_ISO_T2_8,74,9999,9999,9999,1054001228
7610,9,Ticks_ISO_T2_8,75,9999,9999,9999,1054802008
7610,9,Ticks_ISO_T2_8,76,9999,9999,9999,1055601720
7610,9,Ticks_ISO_T2_8,77,9999,9999,9999,1056401524
7610,9,Ticks_ISO_T2_8,78,9999,9999,9999,1057201208
7610,9,Ticks_ISO_T2_8,79,9999,9999,9999,1058001984
7610,9,Ticks_ISO_T2_8,80,9999,9999,9999,1058801720
7610,9,Ticks_ISO_T2_8,81,9999,9999,9999,1059601528
7610,9,Ticks_ISO_T2_8,82,9999,9999,9999,1060401260
7610,9,Ticks_ISO_T2_8,83,9999,9999,9999,1061201968
7610,9,Ticks_ISO_T2_8,84,9999,9999,9999,1062001776
7610,9,Ticks_ISO_T2_8,85,9999,9999,9999,1062801508
7610,9,Ticks_ISO_T2_8,86,9999,9999,9999,1063601268
7610,9,Ticks_ISO_T2_8,87,9999,9999,9999,1064401972
7610,9,Ticks_ISO_T2_8,88,9999,9999,9999,1065201780
7610,9,Ticks_ISO_T2_8,89,9999,9999,9999,1066001516
7610,9,Ticks_ISO_T2_8,90,9999,9999,9999,1066801248
7610,9,Ticks_ISO_T2_8,91,9999,9999,9999,1067602028
7610,9,Ticks_ISO_T2_8,92,9999,9999,9999,1068401740
7610,9,Ticks_ISO_T2_8,93,9999,9999,9999,1069201472
7610,9,Ticks_ISO_T2_8,94,9999,9999,9999,1070001232
7610,9,Ticks_ISO_T2_8,95,9999,9999,9999,1070802012
7610,9,Ticks_ISO_T2_8,96,9999,9999,9999,1071601752
7610,9,Ticks_ISO_T2_8,97,9999,9999,9999,1072401480
7610,9,Ticks_ISO_T2_8,98,9999,9999,9999,1073201216
7610,9,Ticks_ISO_T2_8,99,9999,9999,9999,1074001996
7610,9,Ticks_ISO_T2_8,100,9999,9999,9999,1074801728
7610,9,Ticks_ISO_T2_8,101,9999,9999,9999,1075601464
7610,9,Ticks_ISO_T2_8,102,9999,9999,9999,1076401220
7610,9,Ticks_ISO_T2_8,103,9999,9999,9999,1077202008
7610,9,Ticks_ISO_T2_8,104,9999,9999,9999,1078001736
7610,9,Ticks_ISO_T2_8,105,9999,9999,9999,1078801468
7610,9,Ticks_ISO_T2_8,106,9999,9999,9999,1079601204
7610,9,Ticks_ISO_T2_8,107,9999,9999,9999,1080401984
7610,9,Ticks_ISO_T2_8,108,9999,9999,9999,1081201716
7610,9,Ticks_ISO_T2_8,109,9999,9999,9999,1082001524
7610,9,Ticks_ISO_T2_8,110,9999,9999,9999,1082801208
7610,9,Ticks_ISO_T2_8,111,9999,9999,9999,1083601988
7610,9,Ticks_ISO_T2_8,112,9999,9999,9999,1084401720
7610,9,Ticks_ISO_T2_8,113,9999,9999,9999,1085201456
7610,9,Ticks_ISO_T2_8,114,9999,9999,9999,1086001260
7610,9,Ticks_ISO_T2_8,115,9999,9999,9999,1086801968
7610,9,Ticks_ISO_T2_8,116,9999,9999,9999,1087601780
7610,9,Ticks_ISO_T2_8,117,9999,9999,9999,1088401460
7610,9,Ticks_ISO_T2_8,118,9999,9999,9999,1089201268
7610,9,Ticks_ISO_T2_8,119,9999,9999,9999,1090001976
7611,25,Jits_Pract_5,0,5,56,103,1133826608
7611,25,Jits_Pract_5,1,5,63,98,1133829712
7611,25,Jits_Pract_5,2,5,80,127,1133832904
7611,25,Jits_Pract_5,0,5,56,103,1134326184
7611,25,Jits_Pract_5,1,5,63,98,1134329208
7611,25,Jits_Pract_5,2,5,80,127,1134332256
7611,25,Jits_Pract_5,0,5,56,103,1134825852
7611,25,Jits_Pract_5,1,5,80,127,1134836120
7611,25,Jits_Pract_5,2,5,63,98,1134855756
7611,25,Jits_Pract_5,0,5,63,98,1135276520
7611,25,Jits_Pract_5,1,5,80,127,1135306044
7611,25,Jits_Pract_5,2,5,56,103,1135316240
7611,25,Jits_Pract_5,0,5,80,127,1135845848
7611,25,Jits_Pract_5,1,5,56,103,1135856044
7611,25,Jits_Pract_5,2,5,63,98,1135885720
7611,25,Jits_Pract_5,0,5,63,98,1136336152
7611,25,Jits_Pract_5,1,5,56,103,1136365828
7611,25,Jits_Pract_5,2,5,80,127,1136376176
7611,25,Jits_Pract_5,0,5,56,103,1136785912
7611,25,Jits_Pract_5,1,5,63,98,1136835892
7611,25,Jits_Pract_5,2,5,80,127,1136856500
7611,25,Jits_Pract_5,0,5,80,127,1137285704
7611,25,Jits_Pract_5,1,5,63,98,1137335784
7611,25,Jits_Pract_5,2,5,56,103,1137375648
7611,25,Jits_Pract_5,0,5,56,103,1137786196
7611,25,Jits_Pract_5,1,5,63,98,1137815896
7611,25,Jits_Pract_5,2,5,80,127,1137885576
7611,25,Jits_Pract_5,0,5,56,103,1138285792
7611,25,Jits_Pract_5,1,5,80,127,1138346208
7611,25,Jits_Pract_5,2,5,63,98,1138376032
7611,25,Jits_Pract_5,0,5,56,103,1138795948
7611,25,Jits_Pract_5,1,5,63,98,1138806068
7611,25,Jits_Pract_5,2,5,80,127,1138845956
7611,25,Jits_Pract_5,0,5,63,98,1139286316
7611,25,Jits_Pract_5,1,5,80,127,1139366360
7611,25,Jits_Pract_5,2,5,56,103,1139375436
7611,25,Jits_Pract_5,0,5,63,98,1139845684
7611,25,Jits_Pract_5,1,5,56,103,1139885500
7611,25,Jits_Pract_5,2,5,80,127,1139888568
7611,25,Jits_Pract_5,0,5,56,103,1140306148
7611,25,Jits_Pract_5,1,5,63,98,1140315668
7611,25,Jits_Pract_5,2,5,80,127,1140355680
7611,25,Jits_Pract_5,0,5,56,103,1140795700
7611,25,Jits_Pract_5,1,5,63,98,1140798916
7611,25,Jits_Pract_5,2,5,80,127,1140816528
7611,25,Jits_Pract_5,0,9999,9999,9999,1134073972
7611,25,Jits_Pract_5,1,9999,9999,9999,1134573620
7611,25,Jits_Pract_5,2,9999,9999,9999,1135073368
7611,25,Jits_Pract_5,3,9999,9999,9999,1135574076
7611,25,Jits_Pract_5,4,9999,9999,9999,1136084076
7611,25,Jits_Pract_5,5,9999,9999,9999,1136583748
7611,25,Jits_Pract_5,6,9999,9999,9999,1137083476
7611,25,Jits_Pract_5,7,9999,9999,9999,1137583220
7611,25,Jits_Pract_5,8,9999,9999,9999,1138083932
7611,25,Jits_Pract_5,9,9999,9999,9999,1138583604
7611,25,Jits_Pract_5,10,9999,9999,9999,1139083316
7611,25,Jits_Pract_5,11,9999,9999,9999,1139584104
7611,25,Jits_Pract_5,12,9999,9999,9999,1140094016
7611,25,Jits_Pract_5,13,9999,9999,9999,1140593744
7611,25,Jits_Pract_5,14,9999,9999,9999,1141093472
7612,25,Jits_Pract_5,0,5,56,103,1188017648
7612,25,Jits_Pract_5,1,5,63,98,1188020748
7612,25,Jits_Pract_5,2,5,80,127,1188023868
7612,25,Jits_Pract_5,0,5,56,103,1188518196
7612,25,Jits_Pract_5,1,5,63,98,1188521520
7612,25,Jits_Pract_5,2,5,80,127,1188524636
7612,25,Jits_Pract_5,0,1,48,32,1188959588
7612,25,Jits_Pract_5,1,5,56,103,1189017856
7612,25,Jits_Pract_5,2,5,80,127,1189028124
7612,25,Jits_Pract_5,3,5,63,98,1189047832
7612,25,Jits_Pract_5,0,5,63,98,1189467632
7612,25,Jits_Pract_5,1,5,80,127,1189498132
7612,25,Jits_Pract_5,2,1,48,39,1189499616
7612,25,Jits_Pract_5,3,5,56,103,1189507720
7612,25,Jits_Pract_5,0,1,48,37,1189974684
7612,25,Jits_Pract_5,1,5,80,127,1190027696
7612,25,Jits_Pract_5,2,5,56,103,1190037916
7612,25,Jits_Pract_5,3,5,63,98,1190068020
7612,25,Jits_Pract_5,0,1,48,32,1190492296
7612,25,Jits_Pract_5,1,5,63,98,1190518024
7612,25,Jits_Pract_5,2,5,56,103,1190547872
7612,25,Jits_Pract_5,3,5,80,127,1190557996
7612,25,Jits_Pract_5,0,5,56,103,1190967676
7612,25,Jits_Pract_5,1,1,48,35,1190995136
7612,25,Jits_Pract_5,2,5,63,98,1191017800
7612,25,Jits_Pract_5,3,5,80,127,1191038404
7612,25,Jits_Pract_5,0,1,48,35,1191460600
7612,25,Jits_Pract_5,1,5,80,127,1191468868
7612,25,Jits_Pract_5,2,5,63,98,1191517500
7612,25,Jits_Pract_5,3,5,56,103,1191557664
7612,25,Jits_Pract_5,0,5,56,103,1191978312
7612,25,Jits_Pract_5,1,1,48,39,1192003076
7612,25,Jits_Pract_5,2,5,63,98,1192007904
7612,25,Jits_Pract_5,3,5,80,127,1192077684
7612,25,Jits_Pract_5,0,5,56,103,1192478016
7612,25,Jits_Pract_5,1,1,48,26,1192484052
7612,25,Jits_Pract_5,2,5,80,127,1192537580
7612,25,Jits_Pract_5,3,5,63,98,1192568076
7612,25,Jits_Pract_5,0,1,48,28,1192952960
7612,25,Jits_Pract_5,1,5,56,103,1192988056
7612,25,Jits_Pract_5,2,5,63,98,1192998552
7612,25,Jits_Pract_5,3,5,80,127,1193038636
7612,25,Jits_Pract_5,0,1,48,38,1193457376
7612,25,Jits_Pract_5,1,5,63,98,1193477484
7612,25,Jits_Pract_5,2,5,80,127,1193558460
7612,25,Jits_Pract_5,3,5,56,103,1193567684
7612,25,Jits_Pract_5,0,1,48,28,1193988388
7612,25,Jits_Pract_5,1,5,63,98,1194028568
7612,25,Jits_Pract_5,2,5,56,103,1194068432
7612,25,Jits_Pract_5,3,5,80,127,1194071348
7612,25,Jits_Pract_5,0,5,56,103,1194488328
7612,25,Jits_Pract_5,1,1,48,44,1194492492
7612,25,Jits_Pract_5,2,5,63,98,1194498368
7612,25,Jits_Pract_5,3,5,80,127,1194538528
7612,25,Jits_Pract_5,0,5,56,103,1194977764
7612,25,Jits_Pract_5,1,5,63,98,1194980684
7612,25,Jits_Pract_5,2,1,48,42,1194983504
7612,25,Jits_Pract_5,3,5,80,127,1194997996
7612,25,Jits_Pract_5,0,9999,9999,9999,1188266056
7612,25,Jits_Pract_5,1,9999,9999,9999,1188765776
7612,25,Jits_Pract_5,2,9999,9999,9999,1189265500
7612,25,Jits_Pract_5,3,9999,9999,9999,1189765240
7612,25,Jits_Pract_5,4,9999,9999,9999,1190265976
7612,25,Jits_Pract_5,5,9999,9999,9999,1190765672
7612,25,Jits_Pract_5,6,9999,9999,9999,1191265360
7612,25,Jits_Pract_5,7,9999,9999,9999,1191766116
7612,25,Jits_Pract_5,8,9999,9999,9999,1192276068
7612,25,Jits_Pract_5,9,9999,9999,9999,1192775780
7612,25,Jits_Pract_5,10,9999,9999,9999,1193275488
7612,25,Jits_Pract_5,11,9999,9999,9999,1193775176
7612,25,Jits_Pract_5,12,9999,9999,9999,1194275912
7612,25,Jits_Pract_5,13,9999,9999,9999,1194775672
7612,25,Jits_Pract_5,14,9999,9999,9999,1195275364
7613,24,Jits_Pract_8,0,5,56,103,1203196216
7613,24,Jits_Pract_8,1,5,63,98,1203199388
7613,24,Jits_Pract_8,2,5,80,127,1203202512
7613,24,Jits_Pract_8,0,1,48,23,1203745876
7613,24,Jits_Pract_8,1,5,56,103,1203996280
7613,24,Jits_Pract_8,2,5,63,98,1203999456
7613,24,Jits_Pract_8,3,5,80,127,1204002500
7613,24,Jits_Pract_8,0,1,48,33,1204705524
7613,24,Jits_Pract_8,1,5,80,127,1204736488
7613,24,Jits_Pract_8,2,5,63,98,1204825560
7613,24,Jits_Pract_8,3,5,56,103,1204835756
7613,24,Jits_Pract_8,0,1,48,42,1205500704
7613,24,Jits_Pract_8,1,5,56,103,1205555580
7613,24,Jits_Pract_8,2,5,63,98,1205565776
7613,24,Jits_Pract_8,3,5,80,127,1205655840
7613,24,Jits_Pract_8,0,1,48,41,1206315452
7613,24,Jits_Pract_8,1,5,63,98,1206325592
7613,24,Jits_Pract_8,2,5,80,127,1206356240
7613,24,Jits_Pract_8,3,5,56,103,1206386212
7613,24,Jits_Pract_8,0,1,48,37,1207094308
7613,24,Jits_Pract_8,1,5,56,103,1207126464
7613,24,Jits_Pract_8,2,5,80,127,1207225824
7613,24,Jits_Pract_8,3,5,63,98,1207275800
7613,24,Jits_Pract_8,0,5,56,103,1207926304
7613,24,Jits_Pract_8,1,1,48,44,1207933240
7613,24,Jits_Pract_8,2,5,80,127,1207976524
7613,24,Jits_Pract_8,3,5,63,98,1208016236
7613,24,Jits_Pract_8,0,1,48,49,1208704244
7613,24,Jits_Pract_8,1,5,80,127,1208755460
7613,24,Jits_Pract_8,2,5,63,98,1208786260
7613,24,Jits_Pract_8,3,5,56,103,1208855772
7613,24,Jits_Pract_8,0,1,48,41,1209492920
7613,24,Jits_Pract_8,1,5,63,98,1209586160
7613,24,Jits_Pract_8,2,5,56,103,1209615672
7613,24,Jits_Pract_8,3,5,80,127,1209676208
7613,24,Jits_Pract_8,0,1,48,52,1210309092
7613,24,Jits_Pract_8,1,5,56,103,1210326424
7613,24,Jits_Pract_8,2,5,80,127,1210329420
7613,24,Jits_Pract_8,3,5,63,98,1210446356
7613,24,Jits_Pract_8,0,1,48,52,1211050844
7613,24,Jits_Pract_8,1,5,56,103,1211206248
7613,24,Jits_Pract_8,2,5,80,127,1211246188
7613,24,Jits_Pract_8,3,5,63,98,1211256312
7613,24,Jits_Pract_8,0,1,48,47,1211936328
7613,24,Jits_Pract_8,1,5,56,103,1211965800
7613,24,Jits_Pract_8,2,5,80,127,1211986184
7613,24,Jits_Pract_8,3,5,63,98,1212066284
7613,24,Jits_Pract_8,0,1,48,13,1212670452
7613,24,Jits_Pract_8,1,5,80,127,1212756264
7613,24,Jits_Pract_8,2,5,56,103,1212855628
7613,24,Jits_Pract_8,3,5,63,98,1212866120
7613,24,Jits_Pract_8,0,1,48,45,1213458224
7613,24,Jits_Pract_8,1,5,63,98,1213526432
7613,24,Jits_Pract_8,2,5,80,127,1213585860
7613,24,Jits_Pract_8,3,5,56,103,1213596056
7613,24,Jits_Pract_8,0,1,48,43,1214260448
7613,24,Jits_Pract_8,1,5,56,103,1214326256
7613,24,Jits_Pract_8,2,5,63,98,1214395872
7613,24,Jits_Pract_8,3,5,80,127,1214399312
7613,24,Jits_Pract_8,0,9999,9999,9999,1203593328
7613,24,Jits_Pract_8,1,9999,9999,9999,1204394088
7613,24,Jits_Pract_8,2,9999,9999,9999,1205193848
7613,24,Jits_Pract_8,3,9999,9999,9999,1205993528
7613,24,Jits_Pract_8,4,9999,9999,9999,1206793284
7613,24,Jits_Pract_8,5,9999,9999,9999,1207594088
7613,24,Jits_Pract_8,6,9999,9999,9999,1208393840
7613,24,Jits_Pract_8,7,9999,9999,9999,1209193536
7613,24,Jits_Pract_8,8,9999,9999,9999,1209993300
7613,24,Jits_Pract_8,9,9999,9999,9999,1210794036
7613,24,Jits_Pract_8,10,9999,9999,9999,1211593804
7613,24,Jits_Pract_8,11,9999,9999,9999,1212393564
7613,24,Jits_Pract_8,12,9999,9999,9999,1213193324
7613,24,Jits_Pract_8,13,9999,9999,9999,1213994048
7613,24,Jits_Pract_8,14,9999,9999,9999,1214793792
7614,17,Jits_Phase_5,0,5,56,103,1240419636
7614,17,Jits_Phase_5,1,5,63,98,1240422804
7614,17,Jits_Phase_5,2,5,80,127,1240425928
7614,17,Jits_Phase_5,0,5,56,103,1240920612
7614,17,Jits_Phase_5,1,5,63,98,1240923712
7614,17,Jits_Phase_5,2,5,80,127,1240926756
7614,17,Jits_Phase_5,3,1,48,44,1241082428
7614,17,Jits_Phase_5,0,5,56,103,1241420228
7614,17,Jits_Phase_5,1,5,80,127,1241430720
7614,17,Jits_Phase_5,2,1,48,41,1241442980
7614,17,Jits_Phase_5,3,5,63,98,1241449828
7614,17,Jits_Phase_5,0,5,63,98,1241869648
7614,17,Jits_Phase_5,1,1,48,43,1241882280
7614,17,Jits_Phase_5,2,5,80,127,1241900512
7614,17,Jits_Phase_5,3,5,56,103,1241909736
7614,17,Jits_Phase_5,0,1,48,40,1242382472
7614,17,Jits_Phase_5,1,5,80,127,1242429920
7614,17,Jits_Phase_5,2,5,56,103,1242440044
7614,17,Jits_Phase_5,3,5,63,98,1242469716
7614,17,Jits_Phase_5,0,1,48,45,1242905440
7614,17,Jits_Phase_5,1,5,63,98,1242920236
7614,17,Jits_Phase_5,2,5,56,103,1242949912
7614,17,Jits_Phase_5,3,5,80,127,1242960104
7614,17,Jits_Phase_5,0,5,56,103,1243369800
7614,17,Jits_Phase_5,1,1,48,46,1243416436
7614,17,Jits_Phase_5,2,5,63,98,1243420068
7614,17,Jits_Phase_5,3,5,80,127,1243439556
7614,17,Jits_Phase_5,0,5,80,127,1243869488
7614,17,Jits_Phase_5,1,1,48,47,1243886012
7614,17,Jits_Phase_5,2,5,63,98,1243919684
7614,17,Jits_Phase_5,3,5,56,103,1243959620
7614,17,Jits_Phase_5,0,5,56,103,1244370596
7614,17,Jits_Phase_5,1,5,63,98,1244399976
7614,17,Jits_Phase_5,2,1,48,53,1244418164
7614,17,Jits_Phase_5,3,5,80,127,1244469724
7614,17,Jits_Phase_5,0,5,56,103,1244869916
7614,17,Jits_Phase_5,1,1,48,46,1244902628
7614,17,Jits_Phase_5,2,5,80,127,1244930672
7614,17,Jits_Phase_5,3,5,63,98,1244960048
7614,17,Jits_Phase_5,0,5,56,103,1245380020
7614,17,Jits_Phase_5,1,5,63,98,1245390068
7614,17,Jits_Phase_5,2,1,48,48,1245395284
7614,17,Jits_Phase_5,3,5,80,127,1245430072
7614,17,Jits_Phase_5,0,1,48,56,1245869296
7614,17,Jits_Phase_5,1,5,63,98,1245870780
7614,17,Jits_Phase_5,2,5,80,127,1245950276
7614,17,Jits_Phase_5,3,5,56,103,1245959428
7614,17,Jits_Phase_5,0,1,48,51,1246406608
7614,17,Jits_Phase_5,1,5,63,98,1246420428
7614,17,Jits_Phase_5,2,5,56,103,1246460364
7614,17,Jits_Phase_5,3,5,80,127,1246463504
7614,17,Jits_Phase_5,0,5,56,103,1246880100
7614,17,Jits_Phase_5,1,5,63,98,1246890296
7614,17,Jits_Phase_5,2,1,48,46,1246908484
7614,17,Jits_Phase_5,3,5,80,127,1246930448
7614,17,Jits_Phase_5,0,5,56,103,1247369668
7614,17,Jits_Phase_5,1,5,63,98,1247372660
7614,17,Jits_Phase_5,2,1,48,48,1247374672
7614,17,Jits_Phase_5,3,5,80,127,1247389968
7614,17,Jits_Phase_5,0,5,80,127,1247879584
7614,17,Jits_Phase_5,1,5,56,103,1247889728
7614,17,Jits_Phase_5,2,1,48,44,1247891740
7614,17,Jits_Phase_5,3,5,63,98,1247960444
7614,17,Jits_Phase_5,0,5,63,98,1248369980
7614,17,Jits_Phase_5,1,5,56,103,1248389616
7614,17,Jits_Phase_5,2,1,48,46,1248416952
7614,17,Jits_Phase_5,3,5,80,127,1248470472
7614,17,Jits_Phase_5,0,5,56,103,1248879916
7614,17,Jits_Phase_5,1,1,48,47,1248901244
7614,17,Jits_Phase_5,2,5,80,127,1248919796
7614,17,Jits_Phase_5,3,5,63,98,1248930068
7614,17,Jits_Phase_5,0,5,80,127,1249369564
7614,17,Jits_Phase_5,1,5,63,98,1249400136
7614,17,Jits_Phase_5,2,1,48,48,1249406324
7614,17,Jits_Phase_5,3,5,56,103,1249440164
7614,17,Jits_Phase_5,0,5,56,103,1249889620
7614,17,Jits_Phase_5,1,1,48,46,1249890588
7614,17,Jits_Phase_5,2,5,63,98,1249920484
7614,17,Jits_Phase_5,3,5,80,127,1249969512
7614,17,Jits_Phase_5,0,5,80,127,1250390580
7614,17,Jits_Phase_5,1,1,48,53,1250412584
7614,17,Jits_Phase_5,2,5,56,103,1250430512
7614,17,Jits_Phase_5,3,5,63,98,1250439512
7614,17,Jits_Phase_5,0,5,80,127,1250869596
7614,17,Jits_Phase_5,1,1,48,49,1250909756
7614,17,Jits_Phase_5,2,5,63,98,1250911092
7614,17,Jits_Phase_5,3,5,56,103,1250969940
7614,17,Jits_Phase_5,0,5,56,103,1251370556
7614,17,Jits_Phase_5,1,5,80,127,1251379484
7614,17,Jits_Phase_5,2,1,48,47,1251401032
7614,17,Jits_Phase_5,3,5,63,98,1251459488
7614,17,Jits_Phase_5,0,5,80,127,1251870020
7614,17,Jits_Phase_5,1,1,48,48,1251880264
7614,17,Jits_Phase_5,2,5,63,98,1251929656
7614,17,Jits_Phase_5,3,5,56,103,1251960300
7614,17,Jits_Phase_5,0,5,56,103,1252369712
7614,17,Jits_Phase_5,1,1,48,46,1252395076
7614,17,Jits_Phase_5,2,5,80,127,1252430392
7614,17,Jits_Phase_5,3,5,63,98,1252470256
7614,17,Jits_Phase_5,0,1,48,51,1252885544
7614,17,Jits_Phase_5,1,5,56,103,1252919592
7614,17,Jits_Phase_5,2,5,63,98,1252929932
7614,17,Jits_Phase_5,3,5,80,127,1252933372
7614,17,Jits_Phase_5,0,5,80,127,1253370264
7614,17,Jits_Phase_5,1,1,48,48,1253387008
7614,17,Jits_Phase_5,2,5,63,98,1253460464
7614,17,Jits_Phase_5,3,5,56,103,1253469688
7614,17,Jits_Phase_5,0,5,56,103,1253869940
7614,17,Jits_Phase_5,1,5,63,98,1253872888
7614,17,Jits_Phase_5,2,5,80,127,1253876088
7614,17,Jits_Phase_5,3,1,48,49,1253902960
7614,17,Jits_Phase_5,0,1,48,48,1254382400
7614,17,Jits_Phase_5,1,5,80,127,1254390072
7614,17,Jits_Phase_5,2,5,63,98,1254440496
7614,17,Jits_Phase_5,3,5,56,103,1254469872
7614,17,Jits_Phase_5,0,5,56,103,1254870424
7614,17,Jits_Phase_5,1,5,80,127,1254879648
7614,17,Jits_Phase_5,2,1,48,49,1254911312
7614,17,Jits_Phase_5,3,5,63,98,1254950440
7614,17,Jits_Phase_5,0,5,56,103,1255380524
7614,17,Jits_Phase_5,1,1,48,47,1255396752
7614,17,Jits_Phase_5,2,5,63,98,1255399932
7614,17,Jits_Phase_5,3,5,80,127,1255460464
7614,17,Jits_Phase_5,0,5,80,127,1255869880
7614,17,Jits_Phase_5,1,1,48,40,1255909336
7614,17,Jits_Phase_5,2,5,63,98,1255939480
7614,17,Jits_Phase_5,3,5,56,103,1255959864
7614,17,Jits_Phase_5,0,5,80,127,1256389948
7614,17,Jits_Phase_5,1,5,56,103,1256400440
7614,17,Jits_Phase_5,2,5,63,98,1256409516
7614,17,Jits_Phase_5,3,1,48,54,1256425888
7614,17,Jits_Phase_5,0,5,80,127,1256879524
7614,17,Jits_Phase_5,1,1,48,51,1256895444
7614,17,Jits_Phase_5,2,5,56,103,1256899824
7614,17,Jits_Phase_5,3,5,63,98,1256969580
7614,17,Jits_Phase_5,0,5,56,103,1257389480
7614,17,Jits_Phase_5,1,1,48,52,1257415440
7614,17,Jits_Phase_5,2,5,80,127,1257420340
7614,17,Jits_Phase_5,3,5,63,98,1257439604
7614,17,Jits_Phase_5,0,5,63,98,1257879880
7614,17,Jits_Phase_5,1,1,48,54,1257901876
7614,17,Jits_Phase_5,2,5,56,103,1257940484
7614,17,Jits_Phase_5,3,5,80,127,1257970008
7614,17,Jits_Phase_5,0,5,63,98,1258370536
7614,17,Jits_Phase_5,1,5,80,127,1258373604
7614,17,Jits_Phase_5,2,1,48,52,1258405440
7614,17,Jits_Phase_5,3,5,56,103,1258459488
7614,17,Jits_Phase_5,0,1,48,49,1258882232
7614,17,Jits_Phase_5,1,5,56,103,1258889476
7614,17,Jits_Phase_5,2,5,63,98,1258920272
7614,17,Jits_Phase_5,3,5,80,127,1258960508
7614,17,Jits_Phase_5,0,1,48,49,1259385344
7614,17,Jits_Phase_5,1,5,63,98,1259390472
7614,17,Jits_Phase_5,2,5,56,103,1259430360
7614,17,Jits_Phase_5,3,5,80,127,1259449844
7614,17,Jits_Phase_5,0,1,48,39,1259889976
7614,17,Jits_Phase_5,1,5,63,98,1259900488
7614,17,Jits_Phase_5,2,5,56,103,1259940300
7614,17,Jits_Phase_5,3,5,80,127,1259949376
7614,17,Jits_Phase_5,0,5,80,127,1260379640
7614,17,Jits_Phase_5,1,1,48,46,1260400296
7614,17,Jits_Phase_5,2,5,63,98,1260450388
7614,17,Jits_Phase_5,3,5,56,103,1260469504
7614,17,Jits_Phase_5,0,5,56,103,1260870116
7614,17,Jits_Phase_5,1,5,80,127,1260889456
7614,17,Jits_Phase_5,2,1,48,42,1260894140
7614,17,Jits_Phase_5,3,5,63,98,1260930356
7614,17,Jits_Phase_5,0,1,48,47,1261372840
7614,17,Jits_Phase_5,1,5,63,98,1261380136
7614,17,Jits_Phase_5,2,5,80,127,1261400444
7614,17,Jits_Phase_5,3,5,56,103,1261440380
7614,17,Jits_Phase_5,0,5,63,98,1261879592
7614,17,Jits_Phase_5,1,5,56,103,1261900420
7614,17,Jits_Phase_5,2,5,80,127,1261910320
7614,17,Jits_Phase_5,3,1,48,47,1261911284
7614,17,Jits_Phase_5,0,5,80,127,1262380460
7614,17,Jits_Phase_5,1,5,56,103,1262399796
7614,17,Jits_Phase_5,2,1,48,48,1262409964
7614,17,Jits_Phase_5,3,5,63,98,1262429612
7614,17,Jits_Phase_5,0,1,48,41,1262921920
7614,17,Jits_Phase_5,1,5,56,103,1262949816
7614,17,Jits_Phase_5,2,5,80,127,1262952952
7614,17,Jits_Phase_5,3,5,63,98,1262970420
7614,17,Jits_Phase_5,0,5,63,98,1263369700
7614,17,Jits_Phase_5,1,5,56,103,1263400424
7614,17,Jits_Phase_5,2,1,48,45,1263440332
7614,17,Jits_Phase_5,3,5,80,127,1263459904
7614,17,Jits_Phase_5,0,1,48,50,1263931076
7614,17,Jits_Phase_5,1,5,63,98,1263950356
7614,17,Jits_Phase_5,2,5,56,103,1263960404
7614,17,Jits_Phase_5,3,5,80,127,1263969552
7614,17,Jits_Phase_5,0,1,48,49,1264408684
7614,17,Jits_Phase_5,1,5,56,103,1264410332
7614,17,Jits_Phase_5,2,5,80,127,1264439784
7614,17,Jits_Phase_5,3,5,63,98,1264449904
7614,17,Jits_Phase_5,0,1,48,50,1264927896
7614,17,Jits_Phase_5,1,5,63,98,1264949564
7614,17,Jits_Phase_5,2,5,56,103,1264959836
7614,17,Jits_Phase_5,3,5,80,127,1264980220
7614,17,Jits_Phase_5,0,5,56,103,1265379576
7614,17,Jits_Phase_5,1,1,48,49,1265436776
7614,17,Jits_Phase_5,2,5,63,98,1265440180
7614,17,Jits_Phase_5,3,5,80,127,1265443616
7614,17,Jits_Phase_5,0,5,80,127,1265900152
7614,17,Jits_Phase_5,1,5,56,103,1265910420
7614,17,Jits_Phase_5,2,1,48,49,1265921560
7614,17,Jits_Phase_5,3,5,63,98,1265979648
7614,17,Jits_Phase_5,0,5,80,127,1266390404
7614,17,Jits_Phase_5,1,1,48,53,1266425884
7614,17,Jits_Phase_5,2,5,56,103,1266460376
7614,17,Jits_Phase_5,3,5,63,98,1266470348
7614,17,Jits_Phase_5,0,1,48,52,1266915904
7614,17,Jits_Phase_5,1,5,63,98,1266930244
7614,17,Jits_Phase_5,2,5,56,103,1266940216
7614,17,Jits_Phase_5,3,5,80,127,1266959704
7614,17,Jits_Phase_5,0,5,80,127,1267379508
7614,17,Jits_Phase_5,1,1,48,47,1267414612
7614,17,Jits_Phase_5,2,5,63,98,1267440116
7614,17,Jits_Phase_5,3,5,56,103,1267480052
7614,17,Jits_Phase_5,0,5,56,103,1267920180
7614,17,Jits_Phase_5,1,1,48,50,1267925840
7614,17,Jits_Phase_5,2,5,63,98,1267929472
7614,17,Jits_Phase_5,3,5,80,127,1267970456
7614,17,Jits_Phase_5,0,5,56,103,1268380236
7614,17,Jits_Phase_5,1,5,80,127,1268409912
7614,17,Jits_Phase_5,2,1,48,51,1268435276
7614,17,Jits_Phase_5,3,5,63,98,1268460324
7614,17,Jits_Phase_5,0,5,56,103,1268919560
7614,17,Jits_Phase_5,1,1,48,53,1268929496
7614,17,Jits_Phase_5,2,5,63,98,1268959564
7614,17,Jits_Phase_5,3,5,80,127,1268963148
7614,17,Jits_Phase_5,0,5,56,103,1269420288
7614,17,Jits_Phase_5,1,5,63,98,1269429588
7614,17,Jits_Phase_5,2,1,48,48,1269437412
7614,17,Jits_Phase_5,3,5,80,127,1269450188
7614,17,Jits_Phase_5,0,5,56,103,1269880168
7614,17,Jits_Phase_5,1,5,80,127,1269883160
7614,17,Jits_Phase_5,2,1,48,50,1269915520
7614,17,Jits_Phase_5,3,5,63,98,1269920344
7614,17,Jits_Phase_5,0,1,48,46,1270410104
7614,17,Jits_Phase_5,1,5,63,98,1270419796
7614,17,Jits_Phase_5,2,5,56,103,1270449396
7614,17,Jits_Phase_5,3,5,80,127,1270470228
7614,17,Jits_Phase_5,0,5,80,127,1270889936
7614,17,Jits_Phase_5,1,5,56,103,1270900352
7614,17,Jits_Phase_5,2,5,63,98,1270910252
7614,17,Jits_Phase_5,3,1,48,48,1270925380
7614,17,Jits_Phase_5,0,5,56,103,1271389544
7614,17,Jits_Phase_5,1,1,48,49,1271406584
7614,17,Jits_Phase_5,2,5,80,127,1271429476
7614,17,Jits_Phase_5,3,5,63,98,1271460292
7614,17,Jits_Phase_5,0,5,63,98,1271899492
7614,17,Jits_Phase_5,1,5,80,127,1271909688
7614,17,Jits_Phase_5,2,1,48,44,1271911700
7614,17,Jits_Phase_5,3,5,56,103,1271920248
7614,17,Jits_Phase_5,0,5,56,103,1272390172
7614,17,Jits_Phase_5,1,1,48,44,1272411204
7614,17,Jits_Phase_5,2,5,63,98,1272459724
7614,17,Jits_Phase_5,3,5,80,127,1272470140
7614,17,Jits_Phase_5,0,5,80,127,1272900048
7614,17,Jits_Phase_5,1,5,56,103,1272910396
7614,17,Jits_Phase_5,2,1,48,48,1272923028
7614,17,Jits_Phase_5,3,5,63,98,1272960440
7614,17,Jits_Phase_5,0,5,80,127,1273410296
7614,17,Jits_Phase_5,1,1,48,51,1273427940
7614,17,Jits_Phase_5,2,5,56,103,1273470308
7614,17,Jits_Phase_5,3,5,63,98,1273500084
7614,17,Jits_Phase_5,0,5,56,103,1273909616
7614,17,Jits_Phase_5,1,5,80,127,1273912904
7614,17,Jits_Phase_5,2,5,63,98,1273949552
7614,17,Jits_Phase_5,3,1,48,44,1273956564
7614,17,Jits_Phase_5,0,5,56,103,1274450276
7614,17,Jits_Phase_5,1,1,48,42,1274458048
7614,17,Jits_Phase_5,2,5,63,98,1274480244
7614,17,Jits_Phase_5,3,5,80,127,1274490216
7614,17,Jits_Phase_5,0,5,63,98,1274960160
7614,17,Jits_Phase_5,1,1,48,38,1274969160
7614,17,Jits_Phase_5,2,5,80,127,1274970644
7614,17,Jits_Phase_5,3,5,56,103,1274979796
7614,17,Jits_Phase_5,0,5,80,127,1275410008
7614,17,Jits_Phase_5,1,1,48,50,1275453280
7614,17,Jits_Phase_5,2,5,56,103,1275459980
7614,17,Jits_Phase_5,3,5,63,98,1275462896
7614,17,Jits_Phase_5,0,1,48,52,1275925532
7614,17,Jits_Phase_5,1,5,56,103,1275940172
7614,17,Jits_Phase_5,2,5,80,127,1275959884
7614,17,Jits_Phase_5,3,5,63,98,1275970228
7614,17,Jits_Phase_5,0,5,63,98,1276419480
7614,17,Jits_Phase_5,1,5,56,103,1276450200
7614,17,Jits_Phase_5,2,1,48,56,1276465528
7614,17,Jits_Phase_5,3,5,80,127,1276470052
7614,17,Jits_Phase_5,0,5,56,103,1276930536
7614,17,Jits_Phase_5,1,5,80,127,1276939612
7614,17,Jits_Phase_5,2,1,48,48,1276979224
7614,17,Jits_Phase_5,3,5,63,98,1277010404
7614,17,Jits_Phase_5,0,5,63,98,1277420112
7614,17,Jits_Phase_5,1,5,80,127,1277459976
7614,17,Jits_Phase_5,2,1,48,49,1277462496
7614,17,Jits_Phase_5,3,5,56,103,1277499980
7614,17,Jits_Phase_5,0,5,56,103,1277930128
7614,17,Jits_Phase_5,1,5,63,98,1277940104
7614,17,Jits_Phase_5,2,1,48,50,1277948400
7614,17,Jits_Phase_5,3,5,80,127,1277959656
7614,17,Jits_Phase_5,0,1,48,45,1278475636
7614,17,Jits_Phase_5,1,5,63,98,1278480016
7614,17,Jits_Phase_5,2,5,80,127,1278500252
7614,17,Jits_Phase_5,3,5,56,103,1278519660
7614,17,Jits_Phase_5,0,5,56,103,1278920136
7614,17,Jits_Phase_5,1,5,80,127,1279000008
7614,17,Jits_Phase_5,2,5,63,98,1279010204
7614,17,Jits_Phase_5,3,1,48,48,1279019100
7614,17,Jits_Phase_5,0,5,80,127,1279459908
7614,17,Jits_Phase_5,1,5,63,98,1279470108
7614,17,Jits_Phase_5,2,1,48,44,1279498804
7614,17,Jits_Phase_5,3,5,56,103,1279500220
7614,17,Jits_Phase_5,0,5,63,98,1279919520
7614,17,Jits_Phase_5,1,1,48,41,1279958312
7614,17,Jits_Phase_5,2,5,80,127,1279960352
7614,17,Jits_Phase_5,3,5,56,103,1280019764
7614,17,Jits_Phase_5,4,1,48,22,1280037096
7614,17,Jits_Phase_5,0,5,63,98,1280429416
7614,17,Jits_Phase_5,1,5,56,103,1280479544
7614,17,Jits_Phase_5,2,1,48,45,1280501392
7614,17,Jits_Phase_5,3,5,80,127,1280510256
7614,17,Jits_Phase_5,0,5,80,127,1280930136
7614,17,Jits_Phase_5,1,5,63,98,1280940260
7614,17,Jits_Phase_5,2,1,48,44,1281000312
7614,17,Jits_Phase_5,3,5,56,103,1281009928
7614,17,Jits_Phase_5,0,1,48,48,1281462904
7614,17,Jits_Phase_5,1,5,80,127,1281490208
7614,17,Jits_Phase_5,2,5,56,103,1281499428
7614,17,Jits_Phase_5,3,5,63,98,1281502496
7614,17,Jits_Phase_5,0,5,56,103,1281929572
7614,17,Jits_Phase_5,1,5,80,127,1281950108
7614,17,Jits_Phase_5,2,1,48,43,1281954348
7614,17,Jits_Phase_5,3,5,63,98,1281960296
7614,17,Jits_Phase_5,0,1,48,39,1282434444
7614,17,Jits_Phase_5,1,5,63,98,1282439812
7614,17,Jits_Phase_5,2,5,56,103,1282479452
7614,17,Jits_Phase_5,3,5,80,127,1282500060
7614,17,Jits_Phase_5,0,1,48,43,1282921380
7614,17,Jits_Phase_5,1,5,63,98,1282940288
7614,17,Jits_Phase_5,2,5,56,103,1282999876
7614,17,Jits_Phase_5,3,5,80,127,1283003016
7614,17,Jits_Phase_5,0,5,56,103,1283400024
7614,17,Jits_Phase_5,1,1,48,38,1283414824
7614,17,Jits_Phase_5,2,5,80,127,1283419504
7614,17,Jits_Phase_5,3,5,63,98,1283459292
7614,17,Jits_Phase_5,0,5,56,103,1283929452
7614,17,Jits_Phase_5,1,5,63,98,1283949836
7614,17,Jits_Phase_5,2,5,80,127,1283960104
7614,17,Jits_Phase_5,3,1,48,41,1283969228
7614,17,Jits_Phase_5,0,5,80,127,1284399472
7614,17,Jits_Phase_5,1,5,56,103,1284430044
7614,17,Jits_Phase_5,2,1,48,36,1284460660
7614,17,Jits_Phase_5,3,5,63,98,1284470200
7614,17,Jits_Phase_5,0,1,48,27,1284909720
7614,17,Jits_Phase_5,1,5,80,127,1284910908
7614,17,Jits_Phase_5,2,5,56,103,1284930024
7614,17,Jits_Phase_5,3,5,63,98,1284990336
7614,17,Jits_Phase_5,0,5,56,103,1285420332
7614,17,Jits_Phase_5,1,5,80,127,1285440040
7614,17,Jits_Phase_5,2,1,48,38,1285446376
7614,17,Jits_Phase_5,3,5,63,98,1285500200
7614,17,Jits_Phase_5,0,5,80,127,1285899792
7614,17,Jits_Phase_5,1,5,56,103,1285909836
7614,17,Jits_Phase_5,2,5,63,98,1285949772
7614,17,Jits_Phase_5,3,1,48,38,1285956032
7614,17,Jits_Phase_5,0,5,63,98,1286400300
7614,17,Jits_Phase_5,1,5,56,103,1286440236
7614,17,Jits_Phase_5,2,5,80,127,1286443300
7614,17,Jits_Phase_5,3,1,48,49,1286491152
7614,17,Jits_Phase_5,0,5,63,98,1286919660
7614,17,Jits_Phase_5,1,5,80,127,1286959452
7614,17,Jits_Phase_5,2,5,56,103,1286990172
7614,17,Jits_Phase_5,3,1,48,42,1286992992
7614,17,Jits_Phase_5,0,5,56,103,1287409968
7614,17,Jits_Phase_5,1,5,63,98,1287420316
7614,17,Jits_Phase_5,2,5,80,127,1287449916
7614,17,Jits_Phase_5,3,1,48,41,1287499860
7614,17,Jits_Phase_5,0,5,80,127,1287899616
7614,17,Jits_Phase_5,1,1,48,40,1287952180
7614,17,Jits_Phase_5,2,5,63,98,1287970192
7614,17,Jits_Phase_5,3,5,56,103,1287980388
7614,17,Jits_Phase_5,0,5,63,98,1288400280
7614,17,Jits_Phase_5,1,5,56,103,1288469812
7614,17,Jits_Phase_5,2,5,80,127,1288480080
7614,17,Jits_Phase_5,3,1,48,36,1288486268
7614,17,Jits_Phase_5,0,5,63,98,1288879428
7614,17,Jits_Phase_5,1,5,56,103,1288899960
7614,17,Jits_Phase_5,2,5,80,127,1288939972
7614,17,Jits_Phase_5,3,1,48,32,1288981896
7614,17,Jits_Phase_5,0,5,56,103,1289359924
7614,17,Jits_Phase_5,1,5,63,98,1289369896
7614,17,Jits_Phase_5,2,1,48,46,1289441488
7614,17,Jits_Phase_5,3,5,80,127,1289449904
7614,17,Jits_Phase_5,0,5,63,98,1289850148
7614,17,Jits_Phase_5,1,5,56,103,1289879920
7614,17,Jits_Phase_5,2,5,80,127,1289919708
7614,17,Jits_Phase_5,3,1,48,53,1289957668
7614,17,Jits_Phase_5,0,5,56,103,1290349896
7614,17,Jits_Phase_5,1,5,63,98,1290389856
7614,17,Jits_Phase_5,2,5,80,127,1290430092
7614,17,Jits_Phase_5,3,1,48,49,1290482352
7614,17,Jits_Phase_5,0,5,80,127,1290849660
7614,17,Jits_Phase_5,1,5,56,103,1290929776
7614,17,Jits_Phase_5,2,5,63,98,1290940044
7614,17,Jits_Phase_5,3,1,48,46,1290962936
7614,17,Jits_Phase_5,0,5,56,103,1291390324
7614,17,Jits_Phase_5,1,5,63,98,1291393316
7614,17,Jits_Phase_5,2,5,80,127,1291399648
7614,17,Jits_Phase_5,3,1,48,45,1291425012
7614,17,Jits_Phase_5,0,5,56,103,1291919844
7614,17,Jits_Phase_5,1,1,48,47,1291934872
7614,17,Jits_Phase_5,2,5,63,98,1291940144
7614,17,Jits_Phase_5,3,5,80,127,1291949296
7614,17,Jits_Phase_5,0,5,63,98,1292379720
7614,17,Jits_Phase_5,1,5,80,127,1292389916
7614,17,Jits_Phase_5,2,5,56,103,1292410152
7614,17,Jits_Phase_5,3,1,48,47,1292463784
7614,17,Jits_Phase_5,0,5,63,98,1292880216
7614,17,Jits_Phase_5,1,5,56,103,1292960184
7614,17,Jits_Phase_5,2,5,80,127,1292963248
7614,17,Jits_Phase_5,3,1,48,48,1292970796
7614,17,Jits_Phase_5,0,5,63,98,1293380032
7614,17,Jits_Phase_5,1,5,56,103,1293400416
7614,17,Jits_Phase_5,2,5,80,127,1293430088
7614,17,Jits_Phase_5,3,1,48,44,1293485368
7614,17,Jits_Phase_5,0,5,56,103,1293879852
7614,17,Jits_Phase_5,1,5,63,98,1293900088
7614,17,Jits_Phase_5,2,5,80,127,1293910508
7614,17,Jits_Phase_5,3,1,48,40,1294000924
7614,17,Jits_Phase_5,0,5,56,103,1294410032
7614,17,Jits_Phase_5,1,5,63,98,1294439780
7614,17,Jits_Phase_5,2,5,80,127,1294443072
7614,17,Jits_Phase_5,3,1,48,44,1294528476
7614,17,Jits_Phase_5,0,5,56,103,1294859668
7614,17,Jits_Phase_5,1,5,63,98,1294899680
7614,17,Jits_Phase_5,2,5,80,127,1294959920
7614,17,Jits_Phase_5,3,1,48,49,1295033404
7614,17,Jits_Phase_5,0,5,56,103,1295379956
7614,17,Jits_Phase_5,1,5,63,98,1295389932
7614,17,Jits_Phase_5,2,5,80,127,1295449864
7614,17,Jits_Phase_5,3,1,48,43,1295534364
7614,17,Jits_Phase_5,0,5,56,103,1295879720
7614,17,Jits_Phase_5,1,5,80,127,1295899956
7614,17,Jits_Phase_5,2,5,63,98,1295929852
7614,17,Jits_Phase_5,3,1,48,46,1295998452
7614,17,Jits_Phase_5,0,5,80,127,1296380232
7614,17,Jits_Phase_5,1,5,56,103,1296389676
7614,17,Jits_Phase_5,2,5,63,98,1296409840
7614,17,Jits_Phase_5,3,1,48,39,1296525420
7614,17,Jits_Phase_5,0,5,63,98,1296869728
7614,17,Jits_Phase_5,1,5,80,127,1296949820
7614,17,Jits_Phase_5,2,5,56,103,1296959792
7614,17,Jits_Phase_5,3,1,48,45,1297055592
7614,17,Jits_Phase_5,0,5,80,127,1297459760
7614,17,Jits_Phase_5,1,5,56,103,1297479916
7614,17,Jits_Phase_5,2,5,63,98,1297482988
7614,17,Jits_Phase_5,3,1,48,43,1297513900
7614,17,Jits_Phase_5,0,5,63,98,1297950076
7614,17,Jits_Phase_5,1,5,80,127,1297953288
7614,17,Jits_Phase_5,2,1,48,44,1297998744
7614,17,Jits_Phase_5,3,5,56,103,1298009632
7614,17,Jits_Phase_5,0,5,56,103,1298430264
7614,17,Jits_Phase_5,1,5,80,127,1298439636
7614,17,Jits_Phase_5,2,5,63,98,1298479648
7614,17,Jits_Phase_5,3,1,48,43,1298483812
7614,17,Jits_Phase_5,0,5,56,103,1298909576
7614,17,Jits_Phase_5,1,5,63,98,1298970116
7614,17,Jits_Phase_5,2,5,80,127,1298980532
7614,17,Jits_Phase_5,3,1,48,46,1298984032
7614,17,Jits_Phase_5,0,5,63,98,1299419528
7614,17,Jits_Phase_5,1,5,80,127,1299459612
7614,17,Jits_Phase_5,2,1,48,48,1299483332
7614,17,Jits_Phase_5,3,5,56,103,1299500516
7614,17,Jits_Phase_5,0,5,56,103,1299920324
7614,17,Jits_Phase_5,1,1,48,43,1299982480
7614,17,Jits_Phase_5,2,5,63,98,1300000036
7614,17,Jits_Phase_5,3,5,80,127,1300003472
7614,17,Jits_Phase_5,0,5,80,127,1300480540
7614,17,Jits_Phase_5,1,1,48,45,1300481508
7614,17,Jits_Phase_5,2,5,56,103,1300510132
7614,17,Jits_Phase_5,3,5,63,98,1300513272
7614,17,Jits_Phase_5,0,5,56,103,1300940144
7614,17,Jits_Phase_5,1,5,80,127,1300959852
7614,17,Jits_Phase_5,2,1,48,48,1300979088
7614,17,Jits_Phase_5,3,5,63,98,1300999636
7614,17,Jits_Phase_5,0,5,80,127,1301420652
7614,17,Jits_Phase_5,1,5,63,98,1301439844
7614,17,Jits_Phase_5,2,1,48,47,1301478408
7614,17,Jits_Phase_5,3,5,56,103,1301500148
7614,17,Jits_Phase_5,0,5,63,98,1301930308
7614,17,Jits_Phase_5,1,5,56,103,1301939604
7614,17,Jits_Phase_5,2,1,48,44,1301980188
7614,17,Jits_Phase_5,3,5,80,127,1301989724
7614,17,Jits_Phase_5,0,5,56,103,1302419796
7614,17,Jits_Phase_5,1,5,63,98,1302440404
7614,17,Jits_Phase_5,2,5,80,127,1302449700
7614,17,Jits_Phase_5,3,1,48,50,1302485328
7614,17,Jits_Phase_5,0,5,56,103,1302910612
7614,17,Jits_Phase_5,1,5,63,98,1302913532
7614,17,Jits_Phase_5,2,5,80,127,1302929824
7614,17,Jits_Phase_5,3,1,48,44,1302961560
7614,17,Jits_Phase_5,0,5,63,98,1303449948
7614,17,Jits_Phase_5,1,5,56,103,1303479700
7614,17,Jits_Phase_5,2,1,48,40,1303505364
7614,17,Jits_Phase_5,3,5,80,127,1303510488
7614,17,Jits_Phase_5,0,5,80,127,1303909668
7614,17,Jits_Phase_5,1,1,48,43,1303993268
7614,17,Jits_Phase_5,2,5,56,103,1303999820
7614,17,Jits_Phase_5,3,5,63,98,1304002884
7614,17,Jits_Phase_5,0,5,56,103,1304409952
7614,17,Jits_Phase_5,1,5,80,127,1304412864
7614,17,Jits_Phase_5,2,5,63,98,1304490512
7614,17,Jits_Phase_5,3,1,48,48,1304524716
7614,17,Jits_Phase_5,0,5,80,127,1304910072
7614,17,Jits_Phase_5,1,5,63,98,1304969736
7614,17,Jits_Phase_5,2,5,56,103,1305000236
7614,17,Jits_Phase_5,3,1,48,46,1305023732
7614,17,Jits_Phase_5,0,5,63,98,1305409912
7614,17,Jits_Phase_5,1,5,80,127,1305420108
7614,17,Jits_Phase_5,2,5,56,103,1305489736
7614,17,Jits_Phase_5,3,1,48,41,1305514576
7614,17,Jits_Phase_5,0,5,56,103,1305969972
7614,17,Jits_Phase_5,1,1,48,46,1305992224
7614,17,Jits_Phase_5,2,5,80,127,1305999740
7614,17,Jits_Phase_5,3,5,63,98,1306049864
7614,17,Jits_Phase_5,0,1,48,47,1306494860
7614,17,Jits_Phase_5,1,5,63,98,1306559876
7614,17,Jits_Phase_5,2,5,56,103,1306589696
7614,17,Jits_Phase_5,3,5,80,127,1306592688
7614,17,Jits_Phase_5,0,5,63,98,1307059552
7614,17,Jits_Phase_5,1,1,48,46,1307064764
7614,17,Jits_Phase_5,2,5,80,127,1307080152
7614,17,Jits_Phase_5,3,5,56,103,1307090496
7614,17,Jits_Phase_5,0,1,48,49,1307544656
7614,17,Jits_Phase_5,1,5,56,103,1307569484
7614,17,Jits_Phase_5,2,5,63,98,1307572548
7614,17,Jits_Phase_5,3,5,80,127,1307589868
7614,17,Jits_Phase_5,0,5,56,103,1308019988
7614,17,Jits_Phase_5,1,5,63,98,1308030484
7614,17,Jits_Phase_5,2,1,48,47,1308055648
7614,17,Jits_Phase_5,3,5,80,127,1308059876
7614,17,Jits_Phase_5,0,5,63,98,1308540204
7614,17,Jits_Phase_5,1,1,48,45,1308544296
7614,17,Jits_Phase_5,2,5,80,127,1308559708
7614,17,Jits_Phase_5,3,5,56,103,1308599720
7614,17,Jits_Phase_5,0,1,48,43,1309063620
7614,17,Jits_Phase_5,1,5,56,103,1309069792
7614,17,Jits_Phase_5,2,5,63,98,1309109580
7614,17,Jits_Phase_5,3,5,80,127,1309113240
7614,17,Jits_Phase_5,0,5,80,127,1309509952
7614,17,Jits_Phase_5,1,5,56,103,1309549892
7614,17,Jits_Phase_5,2,1,48,46,1309577300
7614,17,Jits_Phase_5,3,5,63,98,1309600108
7614,17,Jits_Phase_5,0,5,56,103,1310070252
7614,17,Jits_Phase_5,1,1,48,42,1310077184
7614,17,Jits_Phase_5,2,5,80,127,1310080516
7614,17,Jits_Phase_5,3,5,63,98,1310109992
7614,17,Jits_Phase_5,0,5,56,103,1310519676
7614,17,Jits_Phase_5,1,5,80,127,1310559540
7614,17,Jits_Phase_5,2,1,48,42,1310583860
7614,17,Jits_Phase_5,3,5,63,98,1310609684
7614,17,Jits_Phase_5,0,5,56,103,1311020416
7614,17,Jits_Phase_5,1,5,80,127,1311060576
7614,17,Jits_Phase_5,2,1,48,46,1311079736
7614,17,Jits_Phase_5,3,5,63,98,1311109576
7614,17,Jits_Phase_5,0,5,80,127,1311509816
7614,17,Jits_Phase_5,1,1,48,42,1311588628
7614,17,Jits_Phase_5,2,5,63,98,1311590348
7614,17,Jits_Phase_5,3,5,56,103,1311600024
7614,17,Jits_Phase_5,0,5,80,127,1312059704
7614,17,Jits_Phase_5,1,5,56,103,1312069900
7614,17,Jits_Phase_5,2,5,63,98,1312089532
7614,17,Jits_Phase_5,3,1,48,36,1312096392
7614,17,Jits_Phase_5,0,5,63,98,1312529720
7614,17,Jits_Phase_5,1,1,48,37,1312590304
7614,17,Jits_Phase_5,2,5,56,103,1312600364
7614,17,Jits_Phase_5,3,5,80,127,1312603432
7614,17,Jits_Phase_5,0,5,80,127,1313020392
7614,17,Jits_Phase_5,1,5,63,98,1313069472
7614,17,Jits_Phase_5,2,1,48,39,1313100460
7614,17,Jits_Phase_5,3,5,56,103,1313110300
7614,17,Jits_Phase_5,0,5,63,98,1313559940
7614,17,Jits_Phase_5,1,5,56,103,1313599952
7614,17,Jits_Phase_5,2,5,80,127,1313610224
7614,17,Jits_Phase_5,3,1,48,45,1313611636
7614,17,Jits_Phase_5,0,5,63,98,1314050552
7614,17,Jits_Phase_5,1,5,56,103,1314069740
7614,17,Jits_Phase_5,2,5,80,127,1314090420
7614,17,Jits_Phase_5,3,1,48,47,1314114436
7614,17,Jits_Phase_5,0,5,80,127,1314510444
7614,17,Jits_Phase_5,1,5,56,103,1314520492
7614,17,Jits_Phase_5,2,5,63,98,1314539900
7614,17,Jits_Phase_5,3,1,48,41,1314613956
7614,17,Jits_Phase_5,0,5,63,98,1315039572
7614,17,Jits_Phase_5,1,5,56,103,1315079436
7614,17,Jits_Phase_5,2,5,80,127,1315110304
7614,17,Jits_Phase_5,3,1,48,38,1315112820
7614,17,Jits_Phase_5,0,5,56,103,1315500588
7614,17,Jits_Phase_5,1,5,63,98,1315530040
7614,17,Jits_Phase_5,2,5,80,127,1315559860
7614,17,Jits_Phase_5,3,1,48,43,1315613244
7614,17,Jits_Phase_5,0,5,80,127,1315920316
7614,17,Jits_Phase_5,1,5,56,103,1315989948
7614,17,Jits_Phase_5,2,5,63,98,1315992864
7614,17,Jits_Phase_5,3,1,48,59,1316126848
7614,17,Jits_Phase_5,0,5,56,103,1316430484
7614,17,Jits_Phase_5,1,5,63,98,1316480388
7614,17,Jits_Phase_5,2,5,80,127,1316510312
7614,17,Jits_Phase_5,3,1,48,52,1316691936
7614,17,Jits_Phase_5,0,5,63,98,1316909424
7614,17,Jits_Phase_5,1,5,80,127,1316912712
7614,17,Jits_Phase_5,2,5,56,103,1316969736
7614,17,Jits_Phase_5,0,1,48,48,1317239668
7614,17,Jits_Phase_5,1,5,56,103,1317439740
7614,17,Jits_Phase_5,2,5,80,127,1317450384
7614,17,Jits_Phase_5,3,5,63,98,1317500436
7614,17,Jits_Phase_5,0,5,63,98,1317909768
7614,17,Jits_Phase_5,1,5,56,103,1317920116
7614,17,Jits_Phase_5,2,1,48,51,1317924728
7614,17,Jits_Phase_5,3,5,80,127,1317949856
7614,17,Jits_Phase_5,0,1,48,41,1318369248
7614,17,Jits_Phase_5,1,5,63,98,1318440592
7614,17,Jits_Phase_5,2,5,80,127,1318443660
7614,17,Jits_Phase_5,3,5,56,103,1318469880
7614,17,Jits_Phase_5,0,1,48,42,1318933864
7614,17,Jits_Phase_5,1,5,63,98,1318959516
7614,17,Jits_Phase_5,2,5,56,103,1318979976
7614,17,Jits_Phase_5,3,5,80,127,1318983116
7614,17,Jits_Phase_5,0,1,48,44,1319398552
7614,17,Jits_Phase_5,1,5,63,98,1319420220
7614,17,Jits_Phase_5,2,5,56,103,1319489976
7614,17,Jits_Phase_5,3,5,80,127,1319510420
7614,17,Jits_Phase_5,0,5,56,103,1319909788
7614,17,Jits_Phase_5,1,5,63,98,1319920132
7614,17,Jits_Phase_5,2,1,48,43,1319921472
7614,17,Jits_Phase_5,3,5,80,127,1320010256
7614,17,Jits_Phase_5,0,5,56,103,1320430076
7614,17,Jits_Phase_5,1,1,48,43,1320454248
7614,17,Jits_Phase_5,2,5,80,127,1320469860
7614,17,Jits_Phase_5,3,5,63,98,1320480352
7614,17,Jits_Phase_5,0,5,56,103,1320950292
7614,17,Jits_Phase_5,1,1,48,50,1320953936
7614,17,Jits_Phase_5,2,5,63,98,1320979812
7614,17,Jits_Phase_5,3,5,80,127,1321009412
7614,17,Jits_Phase_5,0,5,80,127,1321409980
7614,17,Jits_Phase_5,1,1,48,46,1321444112
7614,17,Jits_Phase_5,2,5,63,98,1321449912
7614,17,Jits_Phase_5,3,5,56,103,1321470296
7614,17,Jits_Phase_5,0,1,48,45,1321927076
7614,17,Jits_Phase_5,1,5,56,103,1321949592
7614,17,Jits_Phase_5,2,5,80,127,1321969976
7614,17,Jits_Phase_5,3,5,63,98,1321989536
7614,17,Jits_Phase_5,0,5,63,98,1322419528
7614,17,Jits_Phase_5,1,5,56,103,1322429876
7614,17,Jits_Phase_5,2,1,48,38,1322457276
7614,17,Jits_Phase_5,3,5,80,127,1322490256
7614,17,Jits_Phase_5,0,5,56,103,1322920396
7614,17,Jits_Phase_5,1,1,48,36,1322974388
7614,17,Jits_Phase_5,2,5,63,98,1322990072
7614,17,Jits_Phase_5,3,5,80,127,1323010380
7614,17,Jits_Phase_5,0,5,56,103,1323420236
7614,17,Jits_Phase_5,1,5,63,98,1323449688
7614,17,Jits_Phase_5,2,5,80,127,1323489628
7614,17,Jits_Phase_5,3,1,48,40,1323491036
7614,17,Jits_Phase_5,0,5,63,98,1323909660
7614,17,Jits_Phase_5,1,5,56,103,1323959564
7614,17,Jits_Phase_5,2,5,80,127,1323969912
7614,17,Jits_Phase_5,3,1,48,44,1323976168
7614,17,Jits_Phase_5,0,5,56,103,1324450312
7614,17,Jits_Phase_5,1,1,48,37,1324481376
7614,17,Jits_Phase_5,2,5,63,98,1324500360
7614,17,Jits_Phase_5,3,5,80,127,1324509508
7614,17,Jits_Phase_5,0,5,56,103,1324920160
7614,17,Jits_Phase_5,1,5,63,98,1324930356
7614,17,Jits_Phase_5,2,1,48,41,1324998236
7614,17,Jits_Phase_5,3,5,80,127,1325010316
7614,17,Jits_Phase_5,0,9999,9999,9999,1240667216
7614,17,Jits_Phase_5,1,9999,9999,9999,1241167964
7614,17,Jits_Phase_5,2,9999,9999,9999,1241667640
7614,17,Jits_Phase_5,3,9999,9999,9999,1242167404
7614,17,Jits_Phase_5,4,9999,9999,9999,1242667080
7614,17,Jits_Phase_5,5,9999,9999,9999,1243167808
7614,17,Jits_Phase_5,6,9999,9999,9999,1243667556
7614,17,Jits_Phase_5,7,9999,9999,9999,1244167248
7614,17,Jits_Phase_5,8,9999,9999,9999,1244667984
7614,17,Jits_Phase_5,9,9999,9999,9999,1245167676
7614,17,Jits_Phase_5,10,9999,9999,9999,1245667440
7614,17,Jits_Phase_5,11,9999,9999,9999,1246167128
7614,17,Jits_Phase_5,12,9999,9999,9999,1246667844
7614,17,Jits_Phase_5,13,9999,9999,9999,1247167592
7614,17,Jits_Phase_5,14,9999,9999,9999,1247667264
7614,17,Jits_Phase_5,15,9999,9999,9999,1248167996
7614,17,Jits_Phase_5,16,9999,9999,9999,1248667760
7614,17,Jits_Phase_5,17,9999,9999,9999,1249167432
7614,17,Jits_Phase_5,18,9999,9999,9999,1249667168
7614,17,Jits_Phase_5,19,9999,9999,9999,1250167900
7614,17,Jits_Phase_5,20,9999,9999,9999,1250667588
7614,17,Jits_Phase_5,21,9999,9999,9999,1251167352
7614,17,Jits_Phase_5,22,9999,9999,9999,1251668088
7614,17,Jits_Phase_5,23,9999,9999,9999,1252167780
7614,17,Jits_Phase_5,24,9999,9999,9999,1252667468
7614,17,Jits_Phase_5,25,9999,9999,9999,1253167224
7614,17,Jits_Phase_5,26,9999,9999,9999,1253667948
7614,17,Jits_Phase_5,27,9999,9999,9999,1254167616
7614,17,Jits_Phase_5,28,9999,9999,9999,1254667384
7614,17,Jits_Phase_5,29,9999,9999,9999,1255168104
7614,17,Jits_Phase_5,30,9999,9999,9999,1255667796
7614,17,Jits_Phase_5,31,9999,9999,9999,1256167488
7614,17,Jits_Phase_5,32,9999,9999,9999,1256667252
7614,17,Jits_Phase_5,33,9999,9999,9999,1257167988
7614,17,Jits_Phase_5,34,9999,9999,9999,1257667680
7614,17,Jits_Phase_5,35,9999,9999,9999,1258167376
7614,17,Jits_Phase_5,36,9999,9999,9999,1258667112
7614,17,Jits_Phase_5,37,9999,9999,9999,1259167836
7614,17,Jits_Phase_5,38,9999,9999,9999,1259667512
7614,17,Jits_Phase_5,39,9999,9999,9999,1260167240
7614,17,Jits_Phase_5,40,9999,9999,9999,1260667964
7614,17,Jits_Phase_5,41,9999,9999,9999,1261167724
7614,17,Jits_Phase_5,42,9999,9999,9999,1261667412
7614,17,Jits_Phase_5,43,9999,9999,9999,1262167156
7614,17,Jits_Phase_5,44,9999,9999,9999,1262667876
7614,17,Jits_Phase_5,45,9999,9999,9999,1263167564
7614,17,Jits_Phase_5,46,9999,9999,9999,1263667312
7614,17,Jits_Phase_5,47,9999,9999,9999,1264168036
7614,17,Jits_Phase_5,48,9999,9999,9999,1264677980
7614,17,Jits_Phase_5,49,9999,9999,9999,1265177656
7614,17,Jits_Phase_5,50,9999,9999,9999,1265677396
7614,17,Jits_Phase_5,51,9999,9999,9999,1266177088
7614,17,Jits_Phase_5,52,9999,9999,9999,1266677824
7614,17,Jits_Phase_5,53,9999,9999,9999,1267177592
7614,17,Jits_Phase_5,54,9999,9999,9999,1267677268
7614,17,Jits_Phase_5,55,9999,9999,9999,1268178008
7614,17,Jits_Phase_5,56,9999,9999,9999,1268677696
7614,17,Jits_Phase_5,57,9999,9999,9999,1269177452
7614,17,Jits_Phase_5,58,9999,9999,9999,1269677140
7614,17,Jits_Phase_5,59,9999,9999,9999,1270177864
7614,17,Jits_Phase_5,60,9999,9999,9999,1270677632
7614,17,Jits_Phase_5,61,9999,9999,9999,1271177300
7614,17,Jits_Phase_5,62,9999,9999,9999,1271678008
7614,17,Jits_Phase_5,63,9999,9999,9999,1272177764
7614,17,Jits_Phase_5,64,9999,9999,9999,1272697968
7614,17,Jits_Phase_5,65,9999,9999,9999,1273197656
7614,17,Jits_Phase_5,66,9999,9999,9999,1273697348
7614,17,Jits_Phase_5,67,9999,9999,9999,1274198076
7614,17,Jits_Phase_5,68,9999,9999,9999,1274708028
7614,17,Jits_Phase_5,69,9999,9999,9999,1275207796
7614,17,Jits_Phase_5,70,9999,9999,9999,1275707460
7614,17,Jits_Phase_5,71,9999,9999,9999,1276207224
7614,17,Jits_Phase_5,72,9999,9999,9999,1276707944
7614,17,Jits_Phase_5,73,9999,9999,9999,1277207620
7614,17,Jits_Phase_5,74,9999,9999,9999,1277707384
7614,17,Jits_Phase_5,75,9999,9999,9999,1278208112
7614,17,Jits_Phase_5,76,9999,9999,9999,1278718072
7614,17,Jits_Phase_5,77,9999,9999,9999,1279217748
7614,17,Jits_Phase_5,78,9999,9999,9999,1279717440
7614,17,Jits_Phase_5,79,9999,9999,9999,1280217180
7614,17,Jits_Phase_5,80,9999,9999,9999,1280717884
7614,17,Jits_Phase_5,81,9999,9999,9999,1281197180
7614,17,Jits_Phase_5,82,9999,9999,9999,1281697912
7614,17,Jits_Phase_5,83,9999,9999,9999,1282197588
7614,17,Jits_Phase_5,84,9999,9999,9999,1282697276
7614,17,Jits_Phase_5,85,9999,9999,9999,1283198040
7614,17,Jits_Phase_5,86,9999,9999,9999,1283697780
7614,17,Jits_Phase_5,87,9999,9999,9999,1284197464
7614,17,Jits_Phase_5,88,9999,9999,9999,1284697152
7614,17,Jits_Phase_5,89,9999,9999,9999,1285197888
7614,17,Jits_Phase_5,90,9999,9999,9999,1285697636
7614,17,Jits_Phase_5,91,9999,9999,9999,1286197320
7614,17,Jits_Phase_5,92,9999,9999,9999,1286698044
7614,17,Jits_Phase_5,93,9999,9999,9999,1287197788
7614,17,Jits_Phase_5,94,9999,9999,9999,1287697464
7614,17,Jits_Phase_5,95,9999,9999,9999,1288197228
7614,17,Jits_Phase_5,96,9999,9999,9999,1288697964
7614,17,Jits_Phase_5,97,9999,9999,9999,1289147516
7614,17,Jits_Phase_5,98,9999,9999,9999,1289647192
7614,17,Jits_Phase_5,99,9999,9999,9999,1290147928
7614,17,Jits_Phase_5,100,9999,9999,9999,1290647676
7614,17,Jits_Phase_5,101,9999,9999,9999,1291147368
7614,17,Jits_Phase_5,102,9999,9999,9999,1291648068
7614,17,Jits_Phase_5,103,9999,9999,9999,1292158016
7614,17,Jits_Phase_5,104,9999,9999,9999,1292657772
7614,17,Jits_Phase_5,105,9999,9999,9999,1293157440
7614,17,Jits_Phase_5,106,9999,9999,9999,1293657188
7614,17,Jits_Phase_5,107,9999,9999,9999,1294157904
7614,17,Jits_Phase_5,108,9999,9999,9999,1294657664
7614,17,Jits_Phase_5,109,9999,9999,9999,1295157352
7614,17,Jits_Phase_5,110,9999,9999,9999,1295658088
7614,17,Jits_Phase_5,111,9999,9999,9999,1296157772
7614,17,Jits_Phase_5,112,9999,9999,9999,1296657536
7614,17,Jits_Phase_5,113,9999,9999,9999,1297157224
7614,17,Jits_Phase_5,114,9999,9999,9999,1297707092
7614,17,Jits_Phase_5,115,9999,9999,9999,1298207820
7614,17,Jits_Phase_5,116,9999,9999,9999,1298707564
7614,17,Jits_Phase_5,117,9999,9999,9999,1299207256
7614,17,Jits_Phase_5,118,9999,9999,9999,1299707992
7614,17,Jits_Phase_5,119,9999,9999,9999,1300207736
7614,17,Jits_Phase_5,120,9999,9999,9999,1300707424
7614,17,Jits_Phase_5,121,9999,9999,9999,1301207116
7614,17,Jits_Phase_5,122,9999,9999,9999,1301707848
7614,17,Jits_Phase_5,123,9999,9999,9999,1302207616
7614,17,Jits_Phase_5,124,9999,9999,9999,1302707284
7614,17,Jits_Phase_5,125,9999,9999,9999,1303208008
7614,17,Jits_Phase_5,126,9999,9999,9999,1303707704
7614,17,Jits_Phase_5,127,9999,9999,9999,1304207444
7614,17,Jits_Phase_5,128,9999,9999,9999,1304707172
7614,17,Jits_Phase_5,129,9999,9999,9999,1305207904
7614,17,Jits_Phase_5,130,9999,9999,9999,1305707592
7614,17,Jits_Phase_5,131,9999,9999,9999,1306307680
7614,17,Jits_Phase_5,132,9999,9999,9999,1306807364
7614,17,Jits_Phase_5,133,9999,9999,9999,1307307116
7614,17,Jits_Phase_5,134,9999,9999,9999,1307807832
7614,17,Jits_Phase_5,135,9999,9999,9999,1308307580
7614,17,Jits_Phase_5,136,9999,9999,9999,1308807272
7614,17,Jits_Phase_5,137,9999,9999,9999,1309307964
7614,17,Jits_Phase_5,138,9999,9999,9999,1309807708
7614,17,Jits_Phase_5,139,9999,9999,9999,1310307404
7614,17,Jits_Phase_5,140,9999,9999,9999,1310807096
7614,17,Jits_Phase_5,141,9999,9999,9999,1311307884
7614,17,Jits_Phase_5,142,9999,9999,9999,1311807576
7614,17,Jits_Phase_5,143,9999,9999,9999,1312307264
7614,17,Jits_Phase_5,144,9999,9999,9999,1312807992
7614,17,Jits_Phase_5,145,9999,9999,9999,1313307740
7614,17,Jits_Phase_5,146,9999,9999,9999,1313807432
7614,17,Jits_Phase_5,147,9999,9999,9999,1314307184
7614,17,Jits_Phase_5,148,9999,9999,9999,1314807896
7614,17,Jits_Phase_5,149,9999,9999,9999,1315307584
7614,17,Jits_Phase_5,150,9999,9999,9999,1315707980
7614,17,Jits_Phase_5,151,9999,9999,9999,1316207744
7614,17,Jits_Phase_5,152,9999,9999,9999,1316707436
7614,17,Jits_Phase_5,153,9999,9999,9999,1317207116
7614,17,Jits_Phase_5,154,9999,9999,9999,1317707852
7614,17,Jits_Phase_5,155,9999,9999,9999,1318207600
7614,17,Jits_Phase_5,156,9999,9999,9999,1318707260
7614,17,Jits_Phase_5,157,9999,9999,9999,1319208048
7614,17,Jits_Phase_5,158,9999,9999,9999,1319707724
7614,17,Jits_Phase_5,159,9999,9999,9999,1320207468
7614,17,Jits_Phase_5,160,9999,9999,9999,1320707160
7614,17,Jits_Phase_5,161,9999,9999,9999,1321207900
7614,17,Jits_Phase_5,162,9999,9999,9999,1321707584
7614,17,Jits_Phase_5,163,9999,9999,9999,1322207348
7614,17,Jits_Phase_5,164,9999,9999,9999,1322708068
7614,17,Jits_Phase_5,165,9999,9999,9999,1323207744
7614,17,Jits_Phase_5,166,9999,9999,9999,1323707508
7614,17,Jits_Phase_5,167,9999,9999,9999,1324207192
7614,17,Jits_Phase_5,168,9999,9999,9999,1324707920
7614,17,Jits_Phase_5,169,9999,9999,9999,1325207680
7615,15,Jits_Phase_8,0,5,56,103,1334722004
7615,15,Jits_Phase_8,1,5,63,98,1334725108
7615,15,Jits_Phase_8,2,5,80,127,1334728300
7615,15,Jits_Phase_8,0,1,48,31,1335201244
7615,15,Jits_Phase_8,1,5,56,103,1335521924
7615,15,Jits_Phase_8,2,5,63,98,1335525100
7615,15,Jits_Phase_8,3,5,80,127,1335528296
7615,15,Jits_Phase_8,0,1,48,37,1336036564
7615,15,Jits_Phase_8,1,5,80,127,1336262120
7615,15,Jits_Phase_8,2,5,63,98,1336352176
7615,15,Jits_Phase_8,3,5,56,103,1336362300
7615,15,Jits_Phase_8,0,1,48,42,1337012192
7615,15,Jits_Phase_8,1,5,56,103,1337082196
7615,15,Jits_Phase_8,2,5,63,98,1337091644
7615,15,Jits_Phase_8,3,5,80,127,1337181460
7615,15,Jits_Phase_8,0,1,48,45,1337773812
7615,15,Jits_Phase_8,1,5,63,98,1337852208
7615,15,Jits_Phase_8,2,5,80,127,1337881868
7615,15,Jits_Phase_8,3,5,56,103,1337911692
7615,15,Jits_Phase_8,0,1,48,40,1338522844
7615,15,Jits_Phase_8,1,5,56,103,1338652168
7615,15,Jits_Phase_8,2,5,80,127,1338752416
7615,15,Jits_Phase_8,3,5,63,98,1338801448
7615,15,Jits_Phase_8,0,1,48,44,1339354148
7615,15,Jits_Phase_8,1,5,56,103,1339451852
7615,15,Jits_Phase_8,2,5,80,127,1339501908
7615,15,Jits_Phase_8,3,5,63,98,1339541944
7615,15,Jits_Phase_8,0,1,48,48,1340179216
7615,15,Jits_Phase_8,1,5,80,127,1340282252
7615,15,Jits_Phase_8,2,5,63,98,1340311880
7615,15,Jits_Phase_8,3,5,56,103,1340381484
7615,15,Jits_Phase_8,0,1,48,52,1341001536
7615,15,Jits_Phase_8,1,5,63,98,1341111856
7615,15,Jits_Phase_8,2,5,56,103,1341142356
7615,15,Jits_Phase_8,3,5,80,127,1341201924
7615,15,Jits_Phase_8,0,1,48,43,1341820708
7615,15,Jits_Phase_8,1,5,56,103,1341852144
7615,15,Jits_Phase_8,2,5,80,127,1341854988
7615,15,Jits_Phase_8,3,5,63,98,1341972076
7615,15,Jits_Phase_8,0,1,48,42,1342635004
7615,15,Jits_Phase_8,1,5,56,103,1342731760
7615,15,Jits_Phase_8,2,5,80,127,1342771612
7615,15,Jits_Phase_8,3,5,63,98,1342782104
7615,15,Jits_Phase_8,0,1,48,50,1343404356
7615,15,Jits_Phase_8,1,5,56,103,1343491296
7615,15,Jits_Phase_8,2,5,80,127,1343512036
7615,15,Jits_Phase_8,3,5,63,98,1343592052
7615,15,Jits_Phase_8,0,1,48,51,1344199688
7615,15,Jits_Phase_8,1,5,80,127,1344281912
7615,15,Jits_Phase_8,2,5,56,103,1344382368
7615,15,Jits_Phase_8,3,5,63,98,1344391616
7615,15,Jits_Phase_8,0,1,48,49,1345028068
7615,15,Jits_Phase_8,1,5,63,98,1345052004
7615,15,Jits_Phase_8,2,5,80,127,1345112468
7615,15,Jits_Phase_8,3,5,56,103,1345121828
7615,15,Jits_Phase_8,0,1,48,50,1345801384
7615,15,Jits_Phase_8,1,5,56,103,1345851976
7615,15,Jits_Phase_8,2,5,63,98,1345922392
7615,15,Jits_Phase_8,3,5,80,127,1345925856
7615,15,Jits_Phase_8,0,1,48,50,1346588004
7615,15,Jits_Phase_8,1,5,63,98,1346682288
7615,15,Jits_Phase_8,2,5,56,103,1346732500
7615,15,Jits_Phase_8,3,5,80,127,1346735640
7615,15,Jits_Phase_8,0,1,48,43,1347404312
7615,15,Jits_Phase_8,1,5,56,103,1347441944
7615,15,Jits_Phase_8,2,5,80,127,1347445164
7615,15,Jits_Phase_8,3,5,63,98,1347532236
7615,15,Jits_Phase_8,0,1,48,49,1348238308
7615,15,Jits_Phase_8,1,5,63,98,1348281872
7615,15,Jits_Phase_8,2,5,56,103,1348371768
7615,15,Jits_Phase_8,3,5,80,127,1348401668
7615,15,Jits_Phase_8,0,1,48,39,1349054336
7615,15,Jits_Phase_8,1,5,56,103,1349072196
7615,15,Jits_Phase_8,2,5,63,98,1349171756
7615,15,Jits_Phase_8,3,5,80,127,1349202256
7615,15,Jits_Phase_8,0,1,48,48,1349851412
7615,15,Jits_Phase_8,1,5,63,98,1349891440
7615,15,Jits_Phase_8,2,5,56,103,1349901788
7615,15,Jits_Phase_8,3,5,80,127,1349991976
7615,15,Jits_Phase_8,0,1,48,48,1350624116
7615,15,Jits_Phase_8,1,5,63,98,1350711804
7615,15,Jits_Phase_8,2,5,56,103,1350791460
7615,15,Jits_Phase_8,3,5,80,127,1350794748
7615,15,Jits_Phase_8,0,1,48,45,1351432788
7615,15,Jits_Phase_8,1,5,80,127,1351471700
7615,15,Jits_Phase_8,2,5,63,98,1351491936
7615,15,Jits_Phase_8,3,5,56,103,1351552456
7615,15,Jits_Phase_8,0,1,48,49,1352183244
7615,15,Jits_Phase_8,1,5,56,103,1352312196
7615,15,Jits_Phase_8,2,5,63,98,1352331560
7615,15,Jits_Phase_8,3,5,80,127,1352334924
7615,15,Jits_Phase_8,0,1,48,40,1352940068
7615,15,Jits_Phase_8,1,5,63,98,1353051708
7615,15,Jits_Phase_8,2,5,80,127,1353132352
7615,15,Jits_Phase_8,3,5,56,103,1353141576
7615,15,Jits_Phase_8,0,1,48,34,1353740120
7615,15,Jits_Phase_8,1,5,63,98,1353871940
7615,15,Jits_Phase_8,2,5,56,103,1353892176
7615,15,Jits_Phase_8,3,5,80,127,1353942600
7615,15,Jits_Phase_8,0,1,48,40,1354502188
7615,15,Jits_Phase_8,1,5,80,127,1354671844
7615,15,Jits_Phase_8,2,5,63,98,1354712532
7615,15,Jits_Phase_8,3,5,56,103,1354731944
7615,15,Jits_Phase_8,0,1,48,43,1355335500
7615,15,Jits_Phase_8,1,5,56,103,1355512060
7615,15,Jits_Phase_8,2,5,63,98,1355522700
7615,15,Jits_Phase_8,3,5,80,127,1355541740
7615,15,Jits_Phase_8,0,1,48,47,1356137504
7615,15,Jits_Phase_8,1,5,56,103,1356242436
7615,15,Jits_Phase_8,2,5,63,98,1356332344
7615,15,Jits_Phase_8,3,5,80,127,1356391688
7615,15,Jits_Phase_8,0,1,48,47,1357014832
7615,15,Jits_Phase_8,1,5,80,127,1357071656
7615,15,Jits_Phase_8,2,5,56,103,1357081924
7615,15,Jits_Phase_8,3,5,63,98,1357151592
7615,15,Jits_Phase_8,0,1,48,45,1357776004
7615,15,Jits_Phase_8,1,5,63,98,1357902112
7615,15,Jits_Phase_8,2,5,80,127,1357992196
7615,15,Jits_Phase_8,3,5,56,103,1358001796
7615,15,Jits_Phase_8,0,1,48,41,1358578084
7615,15,Jits_Phase_8,1,5,63,98,1358632212
7615,15,Jits_Phase_8,2,5,80,127,1358681724
7615,15,Jits_Phase_8,3,5,56,103,1358741916
7615,15,Jits_Phase_8,0,1,48,48,1359393208
7615,15,Jits_Phase_8,1,5,56,103,1359451524
7615,15,Jits_Phase_8,2,5,80,127,1359501712
7615,15,Jits_Phase_8,3,5,63,98,1359522096
7615,15,Jits_Phase_8,0,1,48,46,1360151356
7615,15,Jits_Phase_8,1,5,56,103,1360221584
7615,15,Jits_Phase_8,2,5,80,127,1360281836
7615,15,Jits_Phase_8,3,5,63,98,1360351588
7615,15,Jits_Phase_8,0,1,48,48,1361007444
7615,15,Jits_Phase_8,1,5,56,103,1361022608
7615,15,Jits_Phase_8,2,5,80,127,1361052012
7615,15,Jits_Phase_8,3,5,63,98,1361081688
7615,15,Jits_Phase_8,0,1,48,50,1361794688
7615,15,Jits_Phase_8,1,5,56,103,1361861944
7615,15,Jits_Phase_8,2,5,80,127,1361881732
7615,15,Jits_Phase_8,3,5,63,98,1361941880
7615,15,Jits_Phase_8,0,1,48,46,1362533456
7615,15,Jits_Phase_8,1,5,80,127,1362741700
7615,15,Jits_Phase_8,2,5,56,103,1362751744
7615,15,Jits_Phase_8,3,5,63,98,1362762016
7615,15,Jits_Phase_8,0,1,48,52,1363400080
7615,15,Jits_Phase_8,1,5,56,103,1363501680
7615,15,Jits_Phase_8,2,5,80,127,1363542516
7615,15,Jits_Phase_8,3,5,63,98,1363571968
7615,15,Jits_Phase_8,0,1,48,50,1364242616
7615,15,Jits_Phase_8,1,5,56,103,1364271560
7615,15,Jits_Phase_8,2,5,63,98,1364302132
7615,15,Jits_Phase_8,3,5,80,127,1364343176
7615,15,Jits_Phase_8,0,1,48,43,1364975688
7615,15,Jits_Phase_8,1,5,80,127,1365022092
7615,15,Jits_Phase_8,2,5,63,98,1365072368
7615,15,Jits_Phase_8,3,5,56,103,1365091616
7615,15,Jits_Phase_8,0,1,48,45,1365778272
7615,15,Jits_Phase_8,1,5,56,103,1365851360
7615,15,Jits_Phase_8,2,5,80,127,1365922248
7615,15,Jits_Phase_8,3,5,63,98,1365981444
7615,15,Jits_Phase_8,0,1,48,45,1366541036
7615,15,Jits_Phase_8,1,5,80,127,1366652452
7615,15,Jits_Phase_8,2,5,63,98,1366742460
7615,15,Jits_Phase_8,3,5,56,103,1366761724
7615,15,Jits_Phase_8,0,1,48,53,1367361396
7615,15,Jits_Phase_8,1,5,63,98,1367471420
7615,15,Jits_Phase_8,2,5,56,103,1367492024
7615,15,Jits_Phase_8,3,5,80,127,1367531964
7615,15,Jits_Phase_8,0,1,48,50,1368171572
7615,15,Jits_Phase_8,1,5,80,127,1368232376
7615,15,Jits_Phase_8,2,5,63,98,1368251716
7615,15,Jits_Phase_8,3,5,56,103,1368331568
7615,15,Jits_Phase_8,0,1,48,48,1368937360
7615,15,Jits_Phase_8,1,5,63,98,1369021712
7615,15,Jits_Phase_8,2,5,56,103,1369132652
7615,15,Jits_Phase_8,3,5,80,127,1369135644
7615,15,Jits_Phase_8,0,1,48,43,1369784496
7615,15,Jits_Phase_8,1,5,63,98,1369841988
7615,15,Jits_Phase_8,2,5,56,103,1369852552
7615,15,Jits_Phase_8,3,5,80,127,1369855544
7615,15,Jits_Phase_8,0,1,48,49,1370510964
7615,15,Jits_Phase_8,1,5,56,103,1370622452
7615,15,Jits_Phase_8,2,5,80,127,1370742104
7615,15,Jits_Phase_8,3,5,63,98,1370781992
7615,15,Jits_Phase_8,0,1,48,45,1371355444
7615,15,Jits_Phase_8,1,5,56,103,1371441556
7615,15,Jits_Phase_8,2,5,80,127,1371522464
7615,15,Jits_Phase_8,3,5,63,98,1371541800
7615,15,Jits_Phase_8,0,1,48,47,1372122812
7615,15,Jits_Phase_8,1,5,56,103,1372242396
7615,15,Jits_Phase_8,2,5,63,98,1372351732
7615,15,Jits_Phase_8,3,5,80,127,1372355028
7615,15,Jits_Phase_8,0,1,48,48,1372949152
7615,15,Jits_Phase_8,1,5,56,103,1373081888
7615,15,Jits_Phase_8,2,5,80,127,1373111636
7615,15,Jits_Phase_8,3,5,63,98,1373132320
7615,15,Jits_Phase_8,0,1,48,48,1373777236
7615,15,Jits_Phase_8,1,5,63,98,1373871544
7615,15,Jits_Phase_8,2,5,56,103,1373881652
7615,15,Jits_Phase_8,3,5,80,127,1373892072
7615,15,Jits_Phase_8,0,1,48,53,1374544700
7615,15,Jits_Phase_8,1,5,80,127,1374661916
7615,15,Jits_Phase_8,2,5,56,103,1374712268
7615,15,Jits_Phase_8,3,5,63,98,1374752056
7615,15,Jits_Phase_8,0,1,48,50,1375385456
7615,15,Jits_Phase_8,1,5,80,127,1375482572
7615,15,Jits_Phase_8,2,5,63,98,1375501612
7615,15,Jits_Phase_8,3,5,56,103,1375551960
7615,15,Jits_Phase_8,0,1,48,53,1376270260
7615,15,Jits_Phase_8,1,5,80,127,1376292532
7615,15,Jits_Phase_8,2,5,56,103,1376321988
7615,15,Jits_Phase_8,3,5,63,98,1376391676
7615,15,Jits_Phase_8,0,1,48,47,1377089408
7615,15,Jits_Phase_8,1,5,56,103,1377142268
7615,15,Jits_Phase_8,2,5,80,127,1377152312
7615,15,Jits_Phase_8,3,5,63,98,1377192260
7615,15,Jits_Phase_8,0,5,56,103,1377851976
7615,15,Jits_Phase_8,1,5,63,98,1377872288
7615,15,Jits_Phase_8,2,1,48,50,1377909880
7615,15,Jits_Phase_8,3,5,80,127,1377942132
7615,15,Jits_Phase_8,0,1,48,50,1378639640
7615,15,Jits_Phase_8,1,5,63,98,1378672340
7615,15,Jits_Phase_8,2,5,80,127,1378732460
7615,15,Jits_Phase_8,3,5,56,103,1378751856
7615,15,Jits_Phase_8,0,1,48,43,1379427264
7615,15,Jits_Phase_8,1,5,80,127,1379461488
7615,15,Jits_Phase_8,2,5,56,103,1379492360
7615,15,Jits_Phase_8,3,5,63,98,1379522036
7615,15,Jits_Phase_8,0,1,48,45,1380243980
7615,15,Jits_Phase_8,1,5,56,103,1380262140
7615,15,Jits_Phase_8,2,5,63,98,1380321704
7615,15,Jits_Phase_8,3,5,80,127,1380382152
7615,15,Jits_Phase_8,0,1,48,39,1381077744
7615,15,Jits_Phase_8,1,5,80,127,1381081452
7615,15,Jits_Phase_8,2,5,56,103,1381102060
7615,15,Jits_Phase_8,3,5,63,98,1381171724
7615,15,Jits_Phase_8,0,1,48,44,1381872492
7615,15,Jits_Phase_8,1,5,80,127,1381882108
7615,15,Jits_Phase_8,2,5,63,98,1381901744
7615,15,Jits_Phase_8,3,5,56,103,1381932392
7615,15,Jits_Phase_8,0,1,48,49,1382641308
7615,15,Jits_Phase_8,1,5,80,127,1382671676
7615,15,Jits_Phase_8,2,5,63,98,1382692136
7615,15,Jits_Phase_8,3,5,56,103,1382751460
7615,15,Jits_Phase_8,0,1,48,48,1383432668
7615,15,Jits_Phase_8,1,5,80,127,1383471356
7615,15,Jits_Phase_8,2,5,56,103,1383571688
7615,15,Jits_Phase_8,3,5,63,98,1383601664
7615,15,Jits_Phase_8,0,5,63,98,1384262056
7615,15,Jits_Phase_8,1,1,48,52,1384306376
7615,15,Jits_Phase_8,2,5,80,127,1384312400
7615,15,Jits_Phase_8,3,5,56,103,1384331764
7615,15,Jits_Phase_8,0,1,48,45,1385024388
7615,15,Jits_Phase_8,1,5,80,127,1385101764
7615,15,Jits_Phase_8,2,5,56,103,1385132396
7615,15,Jits_Phase_8,3,5,63,98,1385135460
7615,15,Jits_Phase_8,0,1,48,52,1385836196
7615,15,Jits_Phase_8,1,5,63,98,1385951692
7615,15,Jits_Phase_8,2,5,56,103,1385991484
7615,15,Jits_Phase_8,3,5,80,127,1386012092
7615,15,Jits_Phase_8,0,1,48,45,1386686024
7615,15,Jits_Phase_8,1,5,80,127,1386712428
7615,15,Jits_Phase_8,2,5,63,98,1386792208
7615,15,Jits_Phase_8,3,5,56,103,1386832296
7615,15,Jits_Phase_8,0,5,63,98,1387531600
7615,15,Jits_Phase_8,1,1,48,48,1387587084
7615,15,Jits_Phase_8,2,5,80,127,1387611468
7615,15,Jits_Phase_8,3,5,56,103,1387632224
7615,15,Jits_Phase_8,0,5,56,103,1388372416
7615,15,Jits_Phase_8,1,5,63,98,1388381492
7615,15,Jits_Phase_8,2,1,48,51,1388412556
7615,15,Jits_Phase_8,3,5,80,127,1388421520
7615,15,Jits_Phase_8,0,5,56,103,1389092248
7615,15,Jits_Phase_8,1,5,80,127,1389095240
7615,15,Jits_Phase_8,2,1,48,48,1389146312
7615,15,Jits_Phase_8,3,5,63,98,1389231468
7615,15,Jits_Phase_8,0,5,56,103,1389881744
7615,15,Jits_Phase_8,1,1,48,44,1389956808
7615,15,Jits_Phase_8,2,5,63,98,1389971972
7615,15,Jits_Phase_8,3,5,80,127,1390041504
7615,15,Jits_Phase_8,0,5,63,98,1390762228
7615,15,Jits_Phase_8,1,5,80,127,1390765596
7615,15,Jits_Phase_8,2,1,48,41,1390768940
7615,15,Jits_Phase_8,3,5,56,103,1390821864
7615,15,Jits_Phase_8,0,1,48,50,1391552436
7615,15,Jits_Phase_8,1,5,80,127,1391602136
7615,15,Jits_Phase_8,2,5,56,103,1391621400
7615,15,Jits_Phase_8,3,5,63,98,1391631596
7615,15,Jits_Phase_8,0,5,56,103,1392311628
7615,15,Jits_Phase_8,1,5,63,98,1392322196
7615,15,Jits_Phase_8,2,1,48,54,1392375212
7615,15,Jits_Phase_8,3,5,80,127,1392391424
7615,15,Jits_Phase_8,0,5,80,127,1393112516
7615,15,Jits_Phase_8,1,5,56,103,1393161524
7615,15,Jits_Phase_8,2,1,48,60,1393164568
7615,15,Jits_Phase_8,3,5,63,98,1393211868
7615,15,Jits_Phase_8,0,1,48,44,1393963504
7615,15,Jits_Phase_8,1,5,56,103,1393992076
7615,15,Jits_Phase_8,2,5,63,98,1394002272
7615,15,Jits_Phase_8,3,5,80,127,1394042136
7615,15,Jits_Phase_8,0,1,48,48,1394729692
7615,15,Jits_Phase_8,1,5,56,103,1394732352
7615,15,Jits_Phase_8,2,5,63,98,1394772288
7615,15,Jits_Phase_8,3,5,80,127,1394821472
7615,15,Jits_Phase_8,0,5,80,127,1395492184
7615,15,Jits_Phase_8,1,1,48,47,1395494932
7615,15,Jits_Phase_8,2,5,56,103,1395542304
7615,15,Jits_Phase_8,3,5,63,98,1395562012
7615,15,Jits_Phase_8,0,1,48,53,1396249652
7615,15,Jits_Phase_8,1,5,80,127,1396302280
7615,15,Jits_Phase_8,2,5,63,98,1396361564
7615,15,Jits_Phase_8,3,5,56,103,1396441356
7615,15,Jits_Phase_8,0,1,48,45,1397022824
7615,15,Jits_Phase_8,1,5,80,127,1397081364
7615,15,Jits_Phase_8,2,5,56,103,1397122436
7615,15,Jits_Phase_8,3,5,63,98,1397142144
7615,15,Jits_Phase_8,0,1,48,49,1397799856
7615,15,Jits_Phase_8,1,5,56,103,1397932292
7615,15,Jits_Phase_8,2,5,80,127,1397941740
7615,15,Jits_Phase_8,3,5,63,98,1397981456
7615,15,Jits_Phase_8,0,1,48,41,1398656708
7615,15,Jits_Phase_8,1,5,56,103,1398801804
7615,15,Jits_Phase_8,2,5,63,98,1398841812
7615,15,Jits_Phase_8,3,5,80,127,1398845176
7615,15,Jits_Phase_8,0,5,63,98,1399471512
7615,15,Jits_Phase_8,1,5,80,127,1399512496
7615,15,Jits_Phase_8,2,1,48,39,1399553156
7615,15,Jits_Phase_8,3,5,56,103,1399582168
7615,15,Jits_Phase_8,0,5,63,98,1400241672
7615,15,Jits_Phase_8,1,1,48,41,1400274988
7615,15,Jits_Phase_8,2,5,56,103,1400322364
7615,15,Jits_Phase_8,3,5,80,127,1400381984
7615,15,Jits_Phase_8,0,1,48,40,1400983032
7615,15,Jits_Phase_8,1,5,80,127,1401051612
7615,15,Jits_Phase_8,2,5,63,98,1401101804
7615,15,Jits_Phase_8,3,5,56,103,1401132376
7615,15,Jits_Phase_8,0,1,48,45,1401820184
7615,15,Jits_Phase_8,1,5,56,103,1401842004
7615,15,Jits_Phase_8,2,5,63,98,1401892204
7615,15,Jits_Phase_8,3,5,80,127,1401901280
7615,15,Jits_Phase_8,0,1,48,44,1402510244
7615,15,Jits_Phase_8,1,5,56,103,1402652004
7615,15,Jits_Phase_8,2,5,63,98,1402761788
7615,15,Jits_Phase_8,3,5,80,127,1402782024
7615,15,Jits_Phase_8,0,5,63,98,1403452004
7615,15,Jits_Phase_8,1,1,48,47,1403460376
7615,15,Jits_Phase_8,2,5,80,127,1403501832
7615,15,Jits_Phase_8,3,5,56,103,1403591972
7615,15,Jits_Phase_8,0,5,63,98,1404242324
7615,15,Jits_Phase_8,1,5,80,127,1404271928
7615,15,Jits_Phase_8,2,1,48,57,1404303692
7615,15,Jits_Phase_8,3,5,56,103,1404362148
7615,15,Jits_Phase_8,0,5,63,98,1405042004
7615,15,Jits_Phase_8,1,5,56,103,1405052200
7615,15,Jits_Phase_8,2,1,48,52,1405066356
7615,15,Jits_Phase_8,3,5,80,127,1405151788
7615,15,Jits_Phase_8,0,1,48,41,1405863252
7615,15,Jits_Phase_8,1,1,48,24,1405919180
7615,15,Jits_Phase_8,2,5,63,98,1405941996
7615,15,Jits_Phase_8,3,5,80,127,1405971972
7615,15,Jits_Phase_8,4,5,56,103,1406001720
7615,15,Jits_Phase_8,0,1,48,50,1406695036
7615,15,Jits_Phase_8,1,5,80,127,1406762416
7615,15,Jits_Phase_8,2,5,63,98,1406771864
7615,15,Jits_Phase_8,3,5,56,103,1406802348
7615,15,Jits_Phase_8,0,5,80,127,1407461872
7615,15,Jits_Phase_8,1,5,63,98,1407482184
7615,15,Jits_Phase_8,2,1,48,51,1407491824
7615,15,Jits_Phase_8,3,5,56,103,1407532376
7615,15,Jits_Phase_8,0,1,48,48,1408255312
7615,15,Jits_Phase_8,1,5,63,98,1408292200
7615,15,Jits_Phase_8,2,5,80,127,1408351752
7615,15,Jits_Phase_8,3,5,56,103,1408372064
7615,15,Jits_Phase_8,0,5,63,98,1409052036
7615,15,Jits_Phase_8,1,1,48,51,1409069476
7615,15,Jits_Phase_8,2,5,56,103,1409102308
7615,15,Jits_Phase_8,3,5,80,127,1409112724
7615,15,Jits_Phase_8,0,1,48,37,1409873184
7615,15,Jits_Phase_8,1,5,56,103,1409881448
7615,15,Jits_Phase_8,2,5,80,127,1409891792
7615,15,Jits_Phase_8,3,5,63,98,1409992124
7615,15,Jits_Phase_8,0,1,48,52,1410628424
7615,15,Jits_Phase_8,1,5,80,127,1410642244
7615,15,Jits_Phase_8,2,5,63,98,1410651468
7615,15,Jits_Phase_8,3,5,56,103,1410801916
7615,15,Jits_Phase_8,0,1,48,50,1411449156
7615,15,Jits_Phase_8,1,5,63,98,1411452484
7615,15,Jits_Phase_8,2,5,80,127,1411492152
7615,15,Jits_Phase_8,3,5,56,103,1411572152
7615,15,Jits_Phase_8,0,5,56,103,1412201828
7615,15,Jits_Phase_8,1,5,80,127,1412302252
7615,15,Jits_Phase_8,2,5,63,98,1412321664
7615,15,Jits_Phase_8,3,1,48,65,1412328972
7615,15,Jits_Phase_8,0,5,80,127,1413022012
7615,15,Jits_Phase_8,1,5,56,103,1413032580
7615,15,Jits_Phase_8,2,5,63,98,1413122712
7615,15,Jits_Phase_8,3,1,48,38,1413149964
7615,15,Jits_Phase_8,0,5,56,103,1413821716
7615,15,Jits_Phase_8,1,5,63,98,1413842472
7615,15,Jits_Phase_8,2,5,80,127,1413922192
7615,15,Jits_Phase_8,3,1,48,44,1414008012
7615,15,Jits_Phase_8,0,5,63,98,1414572640
7615,15,Jits_Phase_8,1,5,56,103,1414661652
7615,15,Jits_Phase_8,2,5,80,127,1414664716
7615,15,Jits_Phase_8,3,1,48,47,1414687764
7615,15,Jits_Phase_8,0,1,48,50,1415404872
7615,15,Jits_Phase_8,1,5,56,103,1415412016
7615,15,Jits_Phase_8,2,5,80,127,1415471732
7615,15,Jits_Phase_8,3,5,63,98,1415481856
7615,15,Jits_Phase_8,0,1,48,47,1416206048
7615,15,Jits_Phase_8,1,5,80,127,1416261900
7615,15,Jits_Phase_8,2,5,56,103,1416272168
7615,15,Jits_Phase_8,3,5,63,98,1416275160
7615,15,Jits_Phase_8,0,1,48,49,1416980336
7615,15,Jits_Phase_8,1,5,56,103,1417021792
7615,15,Jits_Phase_8,2,5,80,127,1417031988
7615,15,Jits_Phase_8,3,5,63,98,1417051772
7615,15,Jits_Phase_8,0,1,48,53,1417771624
7615,15,Jits_Phase_8,1,5,63,98,1417791800
7615,15,Jits_Phase_8,2,5,80,127,1417852264
7615,15,Jits_Phase_8,3,5,56,103,1417901504
7615,15,Jits_Phase_8,0,1,48,52,1418640036
7615,15,Jits_Phase_8,1,5,63,98,1418671672
7615,15,Jits_Phase_8,2,5,56,103,1418681720
7615,15,Jits_Phase_8,3,5,80,127,1418731920
7615,15,Jits_Phase_8,0,5,63,98,1419371848
7615,15,Jits_Phase_8,1,5,80,127,1419392628
7615,15,Jits_Phase_8,2,5,56,103,1419401628
7615,15,Jits_Phase_8,3,1,48,52,1419430376
7615,15,Jits_Phase_8,0,1,48,48,1420121444
7615,15,Jits_Phase_8,1,5,63,98,1420171832
7615,15,Jits_Phase_8,2,5,80,127,1420175048
7615,15,Jits_Phase_8,3,5,56,103,1420211696
7615,15,Jits_Phase_8,0,1,48,41,1420888724
7615,15,Jits_Phase_8,1,5,63,98,1421041912
7615,15,Jits_Phase_8,2,5,80,127,1421071664
7615,15,Jits_Phase_8,3,5,56,103,1421082080
7615,15,Jits_Phase_8,0,1,48,44,1421737880
7615,15,Jits_Phase_8,1,5,56,103,1421791712
7615,15,Jits_Phase_8,2,5,80,127,1421822508
7615,15,Jits_Phase_8,3,5,63,98,1421852096
7615,15,Jits_Phase_8,0,1,48,45,1422579664
7615,15,Jits_Phase_8,1,5,63,98,1422691548
7615,15,Jits_Phase_8,2,5,56,103,1422731736
7615,15,Jits_Phase_8,3,5,80,127,1422734800
7615,15,Jits_Phase_8,0,5,80,127,1423392204
7615,15,Jits_Phase_8,1,1,48,42,1423433912
7615,15,Jits_Phase_8,2,5,56,103,1423472068
7615,15,Jits_Phase_8,3,5,63,98,1423522296
7615,15,Jits_Phase_8,0,5,80,127,1424172424
7615,15,Jits_Phase_8,1,5,56,103,1424191912
7615,15,Jits_Phase_8,2,1,48,60,1424260240
7615,15,Jits_Phase_8,3,5,63,98,1424281908
7615,15,Jits_Phase_8,0,1,48,42,1424994784
7615,15,Jits_Phase_8,1,5,80,127,1425012116
7615,15,Jits_Phase_8,2,5,63,98,1425051932
7615,15,Jits_Phase_8,3,5,56,103,1425091856
7615,15,Jits_Phase_8,0,1,48,41,1425746068
7615,15,Jits_Phase_8,1,5,63,98,1425822016
7615,15,Jits_Phase_8,2,5,80,127,1425881716
7615,15,Jits_Phase_8,3,5,56,103,1425912140
7615,15,Jits_Phase_8,0,1,48,40,1426595892
7615,15,Jits_Phase_8,1,5,56,103,1426661852
7615,15,Jits_Phase_8,2,5,80,127,1426691660
7615,15,Jits_Phase_8,3,5,63,98,1426781492
7615,15,Jits_Phase_8,0,1,48,44,1427409720
7615,15,Jits_Phase_8,1,5,56,103,1427471796
7615,15,Jits_Phase_8,2,5,80,127,1427582588
7615,15,Jits_Phase_8,3,5,63,98,1427611916
7615,15,Jits_Phase_8,0,1,48,48,1428257888
7615,15,Jits_Phase_8,1,5,56,103,1428321828
7615,15,Jits_Phase_8,2,5,63,98,1428381932
7615,15,Jits_Phase_8,3,5,80,127,1428411828
7615,15,Jits_Phase_8,0,1,48,54,1429033680
7615,15,Jits_Phase_8,1,5,56,103,1429091700
7615,15,Jits_Phase_8,2,5,63,98,1429162436
7615,15,Jits_Phase_8,3,5,80,127,1429181700
7615,15,Jits_Phase_8,0,1,48,38,1429799264
7615,15,Jits_Phase_8,1,5,80,127,1429861784
7615,15,Jits_Phase_8,2,5,63,98,1429882320
7615,15,Jits_Phase_8,3,5,56,103,1429932380
7615,15,Jits_Phase_8,0,1,48,48,1430613932
7615,15,Jits_Phase_8,1,5,63,98,1430681944
7615,15,Jits_Phase_8,2,5,80,127,1430692288
7615,15,Jits_Phase_8,3,5,56,103,1430742472
7615,15,Jits_Phase_8,0,1,48,51,1431472460
7615,15,Jits_Phase_8,1,5,63,98,1431481776
7615,15,Jits_Phase_8,2,5,80,127,1431552352
7615,15,Jits_Phase_8,3,5,56,103,1431571900
7615,15,Jits_Phase_8,0,1,48,48,1432292664
7615,15,Jits_Phase_8,1,5,63,98,1432312388
7615,15,Jits_Phase_8,2,5,80,127,1432315604
7615,15,Jits_Phase_8,3,5,56,103,1432381696
7615,15,Jits_Phase_8,0,5,80,127,1433061876
7615,15,Jits_Phase_8,1,5,56,103,1433082412
7615,15,Jits_Phase_8,2,5,63,98,1433091560
7615,15,Jits_Phase_8,3,1,48,49,1433100456
7615,15,Jits_Phase_8,0,1,48,49,1433863856
7615,15,Jits_Phase_8,1,5,56,103,1433881940
7615,15,Jits_Phase_8,2,5,63,98,1433972284
7615,15,Jits_Phase_8,3,5,80,127,1433975572
7615,15,Jits_Phase_8,0,5,80,127,1434652104
7615,15,Jits_Phase_8,1,5,56,103,1434662520
7615,15,Jits_Phase_8,2,5,63,98,1434681784
7615,15,Jits_Phase_8,3,1,48,28,1434687072
7615,15,Jits_Phase_8,0,1,48,47,1435373460
7615,15,Jits_Phase_8,1,5,63,98,1435451636
7615,15,Jits_Phase_8,2,5,80,127,1435512312
7615,15,Jits_Phase_8,3,5,56,103,1435522456
7615,15,Jits_Phase_8,0,1,48,44,1436277572
7615,15,Jits_Phase_8,1,5,63,98,1436322212
7615,15,Jits_Phase_8,2,5,80,127,1436351960
7615,15,Jits_Phase_8,3,5,56,103,1436391884
7615,15,Jits_Phase_8,0,5,56,103,1437111644
7615,15,Jits_Phase_8,1,5,80,127,1437121764
7615,15,Jits_Phase_8,2,1,48,37,1437129664
7615,15,Jits_Phase_8,3,5,63,98,1437161916
7615,15,Jits_Phase_8,0,1,48,38,1437865896
7615,15,Jits_Phase_8,1,5,80,127,1437871400
7615,15,Jits_Phase_8,2,5,56,103,1437952464
7615,15,Jits_Phase_8,3,5,63,98,1437961616
7615,15,Jits_Phase_8,0,1,48,51,1438670380
7615,15,Jits_Phase_8,1,5,80,127,1438722396
7615,15,Jits_Phase_8,2,5,56,103,1438802324
7615,15,Jits_Phase_8,3,5,63,98,1438811548
7615,15,Jits_Phase_8,0,1,48,48,1439446312
7615,15,Jits_Phase_8,1,5,80,127,1439562304
7615,15,Jits_Phase_8,2,5,56,103,1439612436
7615,15,Jits_Phase_8,3,5,63,98,1439661540
7615,15,Jits_Phase_8,0,1,48,49,1440318132
7615,15,Jits_Phase_8,1,5,56,103,1440502260
7615,15,Jits_Phase_8,2,5,63,98,1440505324
7615,15,Jits_Phase_8,3,5,80,127,1440552460
7615,15,Jits_Phase_8,0,1,48,54,1441267976
7615,15,Jits_Phase_8,1,5,56,103,1441322400
7615,15,Jits_Phase_8,2,5,63,98,1441352300
7615,15,Jits_Phase_8,3,5,80,127,1441363304
7615,15,Jits_Phase_8,0,5,63,98,1442032116
7615,15,Jits_Phase_8,1,5,56,103,1442101500
7615,15,Jits_Phase_8,2,1,48,55,1442110992
7615,15,Jits_Phase_8,3,5,80,127,1442151844
7615,15,Jits_Phase_8,0,5,63,98,1442861396
7615,15,Jits_Phase_8,1,5,56,103,1442871588
7615,15,Jits_Phase_8,2,5,80,127,1442874656
7615,15,Jits_Phase_8,3,1,48,55,1442948884
7615,15,Jits_Phase_8,0,1,48,36,1443526912
7615,15,Jits_Phase_8,1,5,80,127,1443612204
7615,15,Jits_Phase_8,2,5,56,103,1443672360
7615,15,Jits_Phase_8,3,5,63,98,1443761392
7615,15,Jits_Phase_8,0,1,48,49,1444397248
7615,15,Jits_Phase_8,1,5,80,127,1444411740
7615,15,Jits_Phase_8,2,5,56,103,1444512220
7615,15,Jits_Phase_8,3,5,63,98,1444552456
7615,15,Jits_Phase_8,0,1,48,54,1445210204
7615,15,Jits_Phase_8,1,5,56,103,1445261792
7615,15,Jits_Phase_8,2,5,63,98,1445282176
7615,15,Jits_Phase_8,3,5,80,127,1445322172
7615,15,Jits_Phase_8,0,5,63,98,1446031588
7615,15,Jits_Phase_8,1,1,48,51,1446048336
7615,15,Jits_Phase_8,2,5,56,103,1446052340
7615,15,Jits_Phase_8,3,5,80,127,1446151596
7615,15,Jits_Phase_8,0,5,63,98,1446822204
7615,15,Jits_Phase_8,1,1,48,54,1446832740
7615,15,Jits_Phase_8,2,5,80,127,1446931720
7615,15,Jits_Phase_8,3,5,56,103,1446961544
7615,15,Jits_Phase_8,0,5,56,103,1447641588
7615,15,Jits_Phase_8,1,5,63,98,1447672308
7615,15,Jits_Phase_8,2,1,48,54,1447705540
7615,15,Jits_Phase_8,3,5,80,127,1447722428
7615,15,Jits_Phase_8,0,5,63,98,1448411388
7615,15,Jits_Phase_8,1,5,56,103,1448442260
7615,15,Jits_Phase_8,2,1,48,57,1448470336
7615,15,Jits_Phase_8,3,5,80,127,1448492456
7615,15,Jits_Phase_8,0,5,56,103,1449242452
7615,15,Jits_Phase_8,1,1,48,38,1449258380
7615,15,Jits_Phase_8,2,5,63,98,1449261488
7615,15,Jits_Phase_8,3,5,80,127,1449342328
7615,15,Jits_Phase_8,0,5,63,98,1450012008
7615,15,Jits_Phase_8,1,1,48,55,1450071340
7615,15,Jits_Phase_8,2,5,56,103,1450072836
7615,15,Jits_Phase_8,3,5,80,127,1450102064
7615,15,Jits_Phase_8,0,5,56,103,1450851616
7615,15,Jits_Phase_8,1,1,48,54,1450860136
7615,15,Jits_Phase_8,2,5,80,127,1450912248
7615,15,Jits_Phase_8,3,5,63,98,1450952184
7615,15,Jits_Phase_8,0,5,63,98,1451632208
7615,15,Jits_Phase_8,1,5,56,103,1451692252
7615,15,Jits_Phase_8,2,1,48,41,1451701072
7615,15,Jits_Phase_8,3,5,80,127,1451762076
7615,15,Jits_Phase_8,0,1,48,43,1452472268
7615,15,Jits_Phase_8,1,5,56,103,1452511480
7615,15,Jits_Phase_8,2,5,63,98,1452521972
7615,15,Jits_Phase_8,3,5,80,127,1452525116
7615,15,Jits_Phase_8,0,5,63,98,1453252196
7615,15,Jits_Phase_8,1,5,56,103,1453312440
7615,15,Jits_Phase_8,2,5,80,127,1453315432
7615,15,Jits_Phase_8,3,1,48,37,1453321632
7615,15,Jits_Phase_8,0,5,63,98,1454032240
7615,15,Jits_Phase_8,1,5,80,127,1454062136
7615,15,Jits_Phase_8,2,5,56,103,1454082524
7615,15,Jits_Phase_8,3,1,48,27,1454142204
7615,15,Jits_Phase_8,0,5,56,103,1454762312
7615,15,Jits_Phase_8,1,5,63,98,1454811472
7615,15,Jits_Phase_8,2,1,48,27,1454850632
7615,15,Jits_Phase_8,3,5,80,127,1454892380
7615,15,Jits_Phase_8,0,5,80,127,1455461608
7615,15,Jits_Phase_8,1,5,63,98,1455501648
7615,15,Jits_Phase_8,2,5,56,103,1455522104
7615,15,Jits_Phase_8,3,1,48,42,1455638412
7615,15,Jits_Phase_8,0,5,56,103,1456332276
7615,15,Jits_Phase_8,1,1,48,45,1456338092
7615,15,Jits_Phase_8,2,5,80,127,1456342316
7615,15,Jits_Phase_8,3,5,63,98,1456362028
7615,15,Jits_Phase_8,0,1,48,44,1457071564
7615,15,Jits_Phase_8,1,5,56,103,1457112416
7615,15,Jits_Phase_8,2,5,63,98,1457161572
7615,15,Jits_Phase_8,3,5,80,127,1457192352
7615,15,Jits_Phase_8,0,5,56,103,1457861984
7615,15,Jits_Phase_8,1,5,63,98,1457872252
7615,15,Jits_Phase_8,2,1,48,57,1457917172
7615,15,Jits_Phase_8,3,5,80,127,1457922448
7615,15,Jits_Phase_8,0,1,48,52,1458629488
7615,15,Jits_Phase_8,1,5,56,103,1458651552
7615,15,Jits_Phase_8,2,5,80,127,1458654472
7615,15,Jits_Phase_8,3,5,63,98,1458812164
7615,15,Jits_Phase_8,0,1,48,51,1459374380
7615,15,Jits_Phase_8,1,5,63,98,1459471804
7615,15,Jits_Phase_8,2,5,56,103,1459542520
7615,15,Jits_Phase_8,3,5,80,127,1459582556
7615,15,Jits_Phase_8,0,1,48,46,1460185520
7615,15,Jits_Phase_8,1,5,63,98,1460312380
7615,15,Jits_Phase_8,2,5,56,103,1460401564
7615,15,Jits_Phase_8,3,5,80,127,1460404632
7615,15,Jits_Phase_8,0,1,48,46,1460942496
7615,15,Jits_Phase_8,1,5,56,103,1461091904
7615,15,Jits_Phase_8,2,5,63,98,1461181840
7615,15,Jits_Phase_8,3,5,80,127,1461192032
7615,15,Jits_Phase_8,0,1,48,43,1461822948
7615,15,Jits_Phase_8,1,5,56,103,1461861860
7615,15,Jits_Phase_8,2,5,63,98,1461911788
7615,15,Jits_Phase_8,3,5,80,127,1461941596
7615,15,Jits_Phase_8,0,1,48,44,1462607336
7615,15,Jits_Phase_8,1,5,63,98,1462742312
7615,15,Jits_Phase_8,2,5,80,127,1462751536
7615,15,Jits_Phase_8,3,5,56,103,1462812004
7615,15,Jits_Phase_8,0,5,63,98,1463462160
7615,15,Jits_Phase_8,1,1,48,49,1463503340
7615,15,Jits_Phase_8,2,5,80,127,1463521944
7615,15,Jits_Phase_8,3,5,56,103,1463561656
7615,15,Jits_Phase_8,0,1,48,50,1464255424
7615,15,Jits_Phase_8,1,5,56,103,1464362284
7615,15,Jits_Phase_8,2,5,80,127,1464382068
7615,15,Jits_Phase_8,3,5,63,98,1464402228
7615,15,Jits_Phase_8,0,5,63,98,1465082352
7615,15,Jits_Phase_8,1,5,56,103,1465101620
7615,15,Jits_Phase_8,2,5,80,127,1465142004
7615,15,Jits_Phase_8,3,1,48,53,1465148412
7615,15,Jits_Phase_8,0,1,48,54,1465873016
7615,15,Jits_Phase_8,1,5,63,98,1465892072
7615,15,Jits_Phase_8,2,5,80,127,1465921820
7615,15,Jits_Phase_8,3,5,56,103,1465942280
7615,15,Jits_Phase_8,0,5,80,127,1466662240
7615,15,Jits_Phase_8,1,1,48,55,1466687004
7615,15,Jits_Phase_8,2,5,56,103,1466712360
7615,15,Jits_Phase_8,3,5,63,98,1466771948
7615,15,Jits_Phase_8,0,5,63,98,1467451968
7615,15,Jits_Phase_8,1,1,48,59,1467499356
7615,15,Jits_Phase_8,2,5,56,103,1467571788
7615,15,Jits_Phase_8,3,5,80,127,1467602200
7615,15,Jits_Phase_8,0,5,80,127,1468291388
7615,15,Jits_Phase_8,1,5,63,98,1468311776
7615,15,Jits_Phase_8,2,1,48,58,1468348972
7615,15,Jits_Phase_8,3,5,56,103,1468381744
7615,15,Jits_Phase_8,0,5,63,98,1469111688
7615,15,Jits_Phase_8,1,5,56,103,1469121884
7615,15,Jits_Phase_8,2,1,48,59,1469125680
7615,15,Jits_Phase_8,3,5,80,127,1469201896
7615,15,Jits_Phase_8,0,1,48,65,1469951204
7615,15,Jits_Phase_8,1,5,56,103,1469971904
7615,15,Jits_Phase_8,2,5,80,127,1470001656
7615,15,Jits_Phase_8,3,5,63,98,1470011852
7615,15,Jits_Phase_8,0,9999,9999,9999,1335119944
7615,15,Jits_Phase_8,1,9999,9999,9999,1335919712
7615,15,Jits_Phase_8,2,9999,9999,9999,1336719420
7615,15,Jits_Phase_8,3,9999,9999,9999,1337519180
7615,15,Jits_Phase_8,4,9999,9999,9999,1338319980
7615,15,Jits_Phase_8,5,9999,9999,9999,1339119736
7615,15,Jits_Phase_8,6,9999,9999,9999,1339919420
7615,15,Jits_Phase_8,7,9999,9999,9999,1340719180
7615,15,Jits_Phase_8,8,9999,9999,9999,1341519988
7615,15,Jits_Phase_8,9,9999,9999,9999,1342319736
7615,15,Jits_Phase_8,10,9999,9999,9999,1343119452
7615,15,Jits_Phase_8,11,9999,9999,9999,1343919212
7615,15,Jits_Phase_8,12,9999,9999,9999,1344719948
7615,15,Jits_Phase_8,13,9999,9999,9999,1345519700
7615,15,Jits_Phase_8,14,9999,9999,9999,1346319444
7615,15,Jits_Phase_8,15,9999,9999,9999,1347119188
7615,15,Jits_Phase_8,16,9999,9999,9999,1347919972
7615,15,Jits_Phase_8,17,9999,9999,9999,1348719736
7615,15,Jits_Phase_8,18,9999,9999,9999,1349519452
7615,15,Jits_Phase_8,19,9999,9999,9999,1350319208
7615,15,Jits_Phase_8,20,9999,9999,9999,1351119940
7615,15,Jits_Phase_8,21,9999,9999,9999,1351919692
7615,15,Jits_Phase_8,22,9999,9999,9999,1352719444
7615,15,Jits_Phase_8,23,9999,9999,9999,1353519200
7615,15,Jits_Phase_8,24,9999,9999,9999,1354320000
7615,15,Jits_Phase_8,25,9999,9999,9999,1355119680
7615,15,Jits_Phase_8,26,9999,9999,9999,1355919460
7615,15,Jits_Phase_8,27,9999,9999,9999,1356719220
7615,15,Jits_Phase_8,28,9999,9999,9999,1357519948
7615,15,Jits_Phase_8,29,9999,9999,9999,1358319712
7615,15,Jits_Phase_8,30,9999,9999,9999,1359099984
7615,15,Jits_Phase_8,31,9999,9999,9999,1359899716
7615,15,Jits_Phase_8,32,9999,9999,9999,1360699472
7615,15,Jits_Phase_8,33,9999,9999,9999,1361499224
7615,15,Jits_Phase_8,34,9999,9999,9999,1362300028
7615,15,Jits_Phase_8,35,9999,9999,9999,1363099736
7615,15,Jits_Phase_8,36,9999,9999,9999,1363899496
7615,15,Jits_Phase_8,37,9999,9999,9999,1364699252
7615,15,Jits_Phase_8,38,9999,9999,9999,1365499976
7615,15,Jits_Phase_8,39,9999,9999,9999,1366299736
7615,15,Jits_Phase_8,40,9999,9999,9999,1367099492
7615,15,Jits_Phase_8,41,9999,9999,9999,1367899248
7615,15,Jits_Phase_8,42,9999,9999,9999,1368699976
7615,15,Jits_Phase_8,43,9999,9999,9999,1369499740
7615,15,Jits_Phase_8,44,9999,9999,9999,1370299480
7615,15,Jits_Phase_8,45,9999,9999,9999,1371099236
7615,15,Jits_Phase_8,46,9999,9999,9999,1371900016
7615,15,Jits_Phase_8,47,9999,9999,9999,1372699768
7615,15,Jits_Phase_8,48,9999,9999,9999,1373519980
7615,15,Jits_Phase_8,49,9999,9999,9999,1374319736
7615,15,Jits_Phase_8,50,9999,9999,9999,1375119440
7615,15,Jits_Phase_8,51,9999,9999,9999,1375919196
7615,15,Jits_Phase_8,52,9999,9999,9999,1376719932
7615,15,Jits_Phase_8,53,9999,9999,9999,1377519696
7615,15,Jits_Phase_8,54,9999,9999,9999,1378319444
7615,15,Jits_Phase_8,55,9999,9999,9999,1379119220
7615,15,Jits_Phase_8,56,9999,9999,9999,1379919940
7615,15,Jits_Phase_8,57,9999,9999,9999,1380719700
7615,15,Jits_Phase_8,58,9999,9999,9999,1381519480
7615,15,Jits_Phase_8,59,9999,9999,9999,1382319164
7615,15,Jits_Phase_8,60,9999,9999,9999,1383119968
7615,15,Jits_Phase_8,61,9999,9999,9999,1383919728
7615,15,Jits_Phase_8,62,9999,9999,9999,1384719484
7615,15,Jits_Phase_8,63,9999,9999,9999,1385519156
7615,15,Jits_Phase_8,64,9999,9999,9999,1386359896
7615,15,Jits_Phase_8,65,9999,9999,9999,1387159676
7615,15,Jits_Phase_8,66,9999,9999,9999,1387959364
7615,15,Jits_Phase_8,67,9999,9999,9999,1388759124
7615,15,Jits_Phase_8,68,9999,9999,9999,1389559932
7615,15,Jits_Phase_8,69,9999,9999,9999,1390359632
7615,15,Jits_Phase_8,70,9999,9999,9999,1391159396
7615,15,Jits_Phase_8,71,9999,9999,9999,1391959160
7615,15,Jits_Phase_8,72,9999,9999,9999,1392759888
7615,15,Jits_Phase_8,73,9999,9999,9999,1393559608
7615,15,Jits_Phase_8,74,9999,9999,9999,1394359388
7615,15,Jits_Phase_8,75,9999,9999,9999,1395159148
7615,15,Jits_Phase_8,76,9999,9999,9999,1395959872
7615,15,Jits_Phase_8,77,9999,9999,9999,1396759648
7615,15,Jits_Phase_8,78,9999,9999,9999,1397559396
7615,15,Jits_Phase_8,79,9999,9999,9999,1398359152
7615,15,Jits_Phase_8,80,9999,9999,9999,1399159880
7615,15,Jits_Phase_8,81,9999,9999,9999,1399919696
7615,15,Jits_Phase_8,82,9999,9999,9999,1400719480
7615,15,Jits_Phase_8,83,9999,9999,9999,1401519164
7615,15,Jits_Phase_8,84,9999,9999,9999,1402319960
7615,15,Jits_Phase_8,85,9999,9999,9999,1403119720
7615,15,Jits_Phase_8,86,9999,9999,9999,1403919476
7615,15,Jits_Phase_8,87,9999,9999,9999,1404719156
7615,15,Jits_Phase_8,88,9999,9999,9999,1405519956
7615,15,Jits_Phase_8,89,9999,9999,9999,1406319700
7615,15,Jits_Phase_8,90,9999,9999,9999,1407119468
7615,15,Jits_Phase_8,91,9999,9999,9999,1407919224
7615,15,Jits_Phase_8,92,9999,9999,9999,1408719972
7615,15,Jits_Phase_8,93,9999,9999,9999,1409519724
7615,15,Jits_Phase_8,94,9999,9999,9999,1410319480
7615,15,Jits_Phase_8,95,9999,9999,9999,1411119160
7615,15,Jits_Phase_8,96,9999,9999,9999,1411919960
7615,15,Jits_Phase_8,97,9999,9999,9999,1412639860
7615,15,Jits_Phase_8,98,9999,9999,9999,1413439564
7615,15,Jits_Phase_8,99,9999,9999,9999,1414239340
7615,15,Jits_Phase_8,100,9999,9999,9999,1415040100
7615,15,Jits_Phase_8,101,9999,9999,9999,1415850048
7615,15,Jits_Phase_8,102,9999,9999,9999,1416649800
7615,15,Jits_Phase_8,103,9999,9999,9999,1417449552
7615,15,Jits_Phase_8,104,9999,9999,9999,1418249312
7615,15,Jits_Phase_8,105,9999,9999,9999,1419050048
7615,15,Jits_Phase_8,106,9999,9999,9999,1419849796
7615,15,Jits_Phase_8,107,9999,9999,9999,1420649532
7615,15,Jits_Phase_8,108,9999,9999,9999,1421449316
7615,15,Jits_Phase_8,109,9999,9999,9999,1422250044
7615,15,Jits_Phase_8,110,9999,9999,9999,1423049804
7615,15,Jits_Phase_8,111,9999,9999,9999,1423849560
7615,15,Jits_Phase_8,112,9999,9999,9999,1424649328
7615,15,Jits_Phase_8,113,9999,9999,9999,1425450072
7615,15,Jits_Phase_8,114,9999,9999,9999,1426329716
7615,15,Jits_Phase_8,115,9999,9999,9999,1427129400
7615,15,Jits_Phase_8,116,9999,9999,9999,1427929160
7615,15,Jits_Phase_8,117,9999,9999,9999,1428729968
7615,15,Jits_Phase_8,118,9999,9999,9999,1429529656
7615,15,Jits_Phase_8,119,9999,9999,9999,1430329404
7615,15,Jits_Phase_8,120,9999,9999,9999,1431129164
7615,15,Jits_Phase_8,121,9999,9999,9999,1431929968
7615,15,Jits_Phase_8,122,9999,9999,9999,1432729664
7615,15,Jits_Phase_8,123,9999,9999,9999,1433529416
7615,15,Jits_Phase_8,124,9999,9999,9999,1434329184
7615,15,Jits_Phase_8,125,9999,9999,9999,1435129976
7615,15,Jits_Phase_8,126,9999,9999,9999,1435929668
7615,15,Jits_Phase_8,127,9999,9999,9999,1436729428
7615,15,Jits_Phase_8,128,9999,9999,9999,1437529188
7615,15,Jits_Phase_8,129,9999,9999,9999,1438329932
7615,15,Jits_Phase_8,130,9999,9999,9999,1439129716
7615,15,Jits_Phase_8,131,9999,9999,9999,1440089200
7615,15,Jits_Phase_8,132,9999,9999,9999,1440889928
7615,15,Jits_Phase_8,133,9999,9999,9999,1441689712
7615,15,Jits_Phase_8,134,9999,9999,9999,1442489400
7615,15,Jits_Phase_8,135,9999,9999,9999,1443289216
7615,15,Jits_Phase_8,136,9999,9999,9999,1444089944
7615,15,Jits_Phase_8,137,9999,9999,9999,1444889700
7615,15,Jits_Phase_8,138,9999,9999,9999,1445689460
7615,15,Jits_Phase_8,139,9999,9999,9999,1446489216
7615,15,Jits_Phase_8,140,9999,9999,9999,1447289948
7615,15,Jits_Phase_8,141,9999,9999,9999,1448089724
7615,15,Jits_Phase_8,142,9999,9999,9999,1448889412
7615,15,Jits_Phase_8,143,9999,9999,9999,1449689148
7615,15,Jits_Phase_8,144,9999,9999,9999,1450489960
7615,15,Jits_Phase_8,145,9999,9999,9999,1451289716
7615,15,Jits_Phase_8,146,9999,9999,9999,1452089416
7615,15,Jits_Phase_8,147,9999,9999,9999,1452889168
7615,15,Jits_Phase_8,148,9999,9999,9999,1453689964
7615,15,Jits_Phase_8,149,9999,9999,9999,1454489664
7615,15,Jits_Phase_8,150,9999,9999,9999,1455129676
7615,15,Jits_Phase_8,151,9999,9999,9999,1455929448
7615,15,Jits_Phase_8,152,9999,9999,9999,1456729148
7615,15,Jits_Phase_8,153,9999,9999,9999,1457529972
7615,15,Jits_Phase_8,154,9999,9999,9999,1458329672
7615,15,Jits_Phase_8,155,9999,9999,9999,1459129408
7615,15,Jits_Phase_8,156,9999,9999,9999,1459929168
7615,15,Jits_Phase_8,157,9999,9999,9999,1460729968
7615,15,Jits_Phase_8,158,9999,9999,9999,1461529656
7615,15,Jits_Phase_8,159,9999,9999,9999,1462329408
7615,15,Jits_Phase_8,160,9999,9999,9999,1463129172
7615,15,Jits_Phase_8,161,9999,9999,9999,1463929972
7615,15,Jits_Phase_8,162,9999,9999,9999,1464729688
7615,15,Jits_Phase_8,163,9999,9999,9999,1465529444
7615,15,Jits_Phase_8,164,9999,9999,9999,1466329200
7615,15,Jits_Phase_8,165,9999,9999,9999,1467129932
7615,15,Jits_Phase_8,166,9999,9999,9999,1467929704
7615,15,Jits_Phase_8,167,9999,9999,9999,1468729464
7615,15,Jits_Phase_8,168,9999,9999,9999,1469529164
7615,15,Jits_Phase_8,169,9999,9999,9999,1470329976
7616,19,Jits_Linear_5,0,5,56,103,1479399784
7616,19,Jits_Linear_5,1,5,63,98,1479402804
7616,19,Jits_Linear_5,2,5,80,127,1479405852
7616,19,Jits_Linear_5,0,5,56,103,1479890284
7616,19,Jits_Linear_5,1,5,63,98,1479893380
7616,19,Jits_Linear_5,2,5,80,127,1479896576
7616,19,Jits_Linear_5,3,1,48,47,1480031340
7616,19,Jits_Linear_5,0,5,56,103,1480369680
7616,19,Jits_Linear_5,1,5,80,127,1480379724
7616,19,Jits_Linear_5,2,5,63,98,1480400260
7616,19,Jits_Linear_5,3,1,48,47,1480451108
7616,19,Jits_Linear_5,0,5,63,98,1480799676
7616,19,Jits_Linear_5,1,5,80,127,1480830724
7616,19,Jits_Linear_5,2,5,56,103,1480839500
7616,19,Jits_Linear_5,3,1,48,49,1480884272
7616,19,Jits_Linear_5,0,1,48,50,1481342436
7616,19,Jits_Linear_5,1,5,80,127,1481349584
7616,19,Jits_Linear_5,2,5,56,103,1481359704
7616,19,Jits_Linear_5,3,5,63,98,1481389456
7616,19,Jits_Linear_5,0,5,63,98,1481829628
7616,19,Jits_Linear_5,1,1,48,54,1481845404
7616,19,Jits_Linear_5,2,5,56,103,1481859696
7616,19,Jits_Linear_5,3,5,80,127,1481869820
7616,19,Jits_Linear_5,0,5,56,103,1482270204
7616,19,Jits_Linear_5,1,5,63,98,1482320260
7616,19,Jits_Linear_5,2,5,80,127,1482339672
7616,19,Jits_Linear_5,3,1,48,54,1482349388
7616,19,Jits_Linear_5,0,5,80,127,1482759640
7616,19,Jits_Linear_5,1,1,48,54,1482786652
7616,19,Jits_Linear_5,2,5,63,98,1482809692
7616,19,Jits_Linear_5,3,5,56,103,1482849632
7616,19,Jits_Linear_5,0,5,56,103,1483249980
7616,19,Jits_Linear_5,1,5,63,98,1483279584
7616,19,Jits_Linear_5,2,1,48,52,1483318744
7616,19,Jits_Linear_5,3,5,80,127,1483350528
7616,19,Jits_Linear_5,0,5,56,103,1483739640
7616,19,Jits_Linear_5,1,1,48,54,1483795724
7616,19,Jits_Linear_5,2,5,80,127,1483799880
7616,19,Jits_Linear_5,3,5,63,98,1483829628
7616,19,Jits_Linear_5,0,5,56,103,1484240392
7616,19,Jits_Linear_5,1,5,63,98,1484249616
7616,19,Jits_Linear_5,2,1,48,59,1484266288
7616,19,Jits_Linear_5,3,5,80,127,1484290596
7616,19,Jits_Linear_5,0,5,63,98,1484729680
7616,19,Jits_Linear_5,1,1,48,55,1484776548
7616,19,Jits_Linear_5,2,5,80,127,1484809624
7616,19,Jits_Linear_5,3,5,56,103,1484819744
7616,19,Jits_Linear_5,0,1,48,55,1485256076
7616,19,Jits_Linear_5,1,5,63,98,1485279564
7616,19,Jits_Linear_5,2,5,56,103,1485319728
7616,19,Jits_Linear_5,3,5,80,127,1485322716
7616,19,Jits_Linear_5,0,1,48,52,1485727132
7616,19,Jits_Linear_5,1,5,56,103,1485740432
7616,19,Jits_Linear_5,2,5,63,98,1485749656
7616,19,Jits_Linear_5,3,5,80,127,1485789668
7616,19,Jits_Linear_5,0,1,48,46,1486201776
7616,19,Jits_Linear_5,1,5,56,103,1486229852
7616,19,Jits_Linear_5,2,5,63,98,1486232916
7616,19,Jits_Linear_5,3,5,80,127,1486250456
7616,19,Jits_Linear_5,0,1,48,51,1486742980
7616,19,Jits_Linear_5,1,5,80,127,1486750128
7616,19,Jits_Linear_5,2,5,56,103,1486760472
7616,19,Jits_Linear_5,3,5,63,98,1486829860
7616,19,Jits_Linear_5,0,5,63,98,1487249748
7616,19,Jits_Linear_5,1,1,48,54,1487267392
7616,19,Jits_Linear_5,2,5,56,103,1487270500
7616,19,Jits_Linear_5,3,5,80,127,1487350444
7616,19,Jits_Linear_5,0,1,48,46,1487692280
7616,19,Jits_Linear_5,1,5,56,103,1487769884
7616,19,Jits_Linear_5,2,5,80,127,1487809884
7616,19,Jits_Linear_5,3,5,63,98,1487820080
7616,19,Jits_Linear_5,0,1,48,51,1488220592
7616,19,Jits_Linear_5,1,5,80,127,1488269792
7616,19,Jits_Linear_5,2,5,63,98,1488300368
7616,19,Jits_Linear_5,3,5,56,103,1488340512
7616,19,Jits_Linear_5,0,1,48,52,1488710460
7616,19,Jits_Linear_5,1,5,56,103,1488800196
7616,19,Jits_Linear_5,2,5,63,98,1488829708
7616,19,Jits_Linear_5,3,5,80,127,1488879836
7616,19,Jits_Linear_5,0,1,48,45,1489193360
7616,19,Jits_Linear_5,1,5,80,127,1489309984
7616,19,Jits_Linear_5,2,5,56,103,1489350000
7616,19,Jits_Linear_5,3,5,63,98,1489360344
7616,19,Jits_Linear_5,0,1,48,47,1489759364
7616,19,Jits_Linear_5,1,5,80,127,1489809760
7616,19,Jits_Linear_5,2,5,63,98,1489849776
7616,19,Jits_Linear_5,3,5,56,103,1489910372
7616,19,Jits_Linear_5,0,1,48,51,1490249456
7616,19,Jits_Linear_5,1,5,56,103,1490329900
7616,19,Jits_Linear_5,2,5,80,127,1490341572
7616,19,Jits_Linear_5,3,5,63,98,1490419952
7616,19,Jits_Linear_5,0,1,48,38,1490766884
7616,19,Jits_Linear_5,1,5,80,127,1490850336
7616,19,Jits_Linear_5,2,5,63,98,1490909672
7616,19,Jits_Linear_5,3,5,56,103,1490940244
7616,19,Jits_Linear_5,0,1,48,27,1491356884
7616,19,Jits_Linear_5,1,5,56,103,1491379548
7616,19,Jits_Linear_5,2,5,80,127,1491439944
7616,19,Jits_Linear_5,3,5,63,98,1491479792
7616,19,Jits_Linear_5,0,1,48,33,1491905272
7616,19,Jits_Linear_5,1,5,56,103,1491960376
7616,19,Jits_Linear_5,2,5,63,98,1491970648
7616,19,Jits_Linear_5,3,5,80,127,1491974012
7616,19,Jits_Linear_5,0,1,48,46,1492417088
7616,19,Jits_Linear_5,1,5,80,127,1492440352
7616,19,Jits_Linear_5,2,5,63,98,1492529428
7616,19,Jits_Linear_5,3,5,56,103,1492539700
7616,19,Jits_Linear_5,0,1,48,54,1492905912
7616,19,Jits_Linear_5,1,5,56,103,1492969772
7616,19,Jits_Linear_5,2,5,63,98,1492972792
7616,19,Jits_Linear_5,3,5,80,127,1492976064
7616,19,Jits_Linear_5,0,1,48,53,1493417488
7616,19,Jits_Linear_5,1,5,80,127,1493519636
7616,19,Jits_Linear_5,2,5,63,98,1493569840
7616,19,Jits_Linear_5,3,5,56,103,1493599740
7616,19,Jits_Linear_5,0,5,56,103,1494029760
7616,19,Jits_Linear_5,1,1,48,57,1494034072
7616,19,Jits_Linear_5,2,5,80,127,1494039948
7616,19,Jits_Linear_5,3,5,63,98,1494109556
7616,19,Jits_Linear_5,0,5,56,103,1494570292
7616,19,Jits_Linear_5,1,5,63,98,1494589928
7616,19,Jits_Linear_5,2,1,48,51,1494595140
7616,19,Jits_Linear_5,3,5,80,127,1494650536
7616,19,Jits_Linear_5,0,5,80,127,1495099788
7616,19,Jits_Linear_5,1,1,48,51,1495136764
7616,19,Jits_Linear_5,2,5,63,98,1495170388
7616,19,Jits_Linear_5,3,5,56,103,1495189876
7616,19,Jits_Linear_5,0,5,80,127,1495659872
7616,19,Jits_Linear_5,1,5,56,103,1495670288
7616,19,Jits_Linear_5,2,5,63,98,1495680364
7616,19,Jits_Linear_5,3,1,48,50,1495701540
7616,19,Jits_Linear_5,0,5,80,127,1496190384
7616,19,Jits_Linear_5,1,1,48,49,1496206384
7616,19,Jits_Linear_5,2,5,56,103,1496209716
7616,19,Jits_Linear_5,3,5,63,98,1496280444
7616,19,Jits_Linear_5,0,5,56,103,1496740208
7616,19,Jits_Linear_5,1,5,80,127,1496769812
7616,19,Jits_Linear_5,2,1,48,43,1496772404
7616,19,Jits_Linear_5,3,5,63,98,1496790412
7616,19,Jits_Linear_5,0,5,63,98,1497279844
7616,19,Jits_Linear_5,1,1,48,51,1497301916
7616,19,Jits_Linear_5,2,5,56,103,1497340156
7616,19,Jits_Linear_5,3,5,80,127,1497369984
7616,19,Jits_Linear_5,0,5,63,98,1497819468
7616,19,Jits_Linear_5,1,5,80,127,1497822760
7616,19,Jits_Linear_5,2,1,48,53,1497874056
7616,19,Jits_Linear_5,3,5,56,103,1497909596
7616,19,Jits_Linear_5,0,5,56,103,1498389800
7616,19,Jits_Linear_5,1,1,48,56,1498391360
7616,19,Jits_Linear_5,2,5,63,98,1498419472
7616,19,Jits_Linear_5,3,5,80,127,1498459484
7616,19,Jits_Linear_5,0,5,63,98,1498939776
7616,19,Jits_Linear_5,1,1,48,54,1498940888
7616,19,Jits_Linear_5,2,5,56,103,1498979636
7616,19,Jits_Linear_5,3,5,80,127,1499000168
7616,19,Jits_Linear_5,0,1,48,51,1499494500
7616,19,Jits_Linear_5,1,5,63,98,1499499848
7616,19,Jits_Linear_5,2,5,56,103,1499539812
7616,19,Jits_Linear_5,3,5,80,127,1499550456
7616,19,Jits_Linear_5,0,5,80,127,1500030284
7616,19,Jits_Linear_5,1,1,48,51,1500066732
7616,19,Jits_Linear_5,2,5,63,98,1500100260
7616,19,Jits_Linear_5,3,5,56,103,1500120420
7616,19,Jits_Linear_5,0,5,56,103,1500580332
7616,19,Jits_Linear_5,1,5,80,127,1500599524
7616,19,Jits_Linear_5,2,1,48,53,1500606228
7616,19,Jits_Linear_5,3,5,63,98,1500639604
7616,19,Jits_Linear_5,0,1,48,50,1501134240
7616,19,Jits_Linear_5,1,5,63,98,1501149480
7616,19,Jits_Linear_5,2,5,80,127,1501170312
7616,19,Jits_Linear_5,3,5,56,103,1501210028
7616,19,Jits_Linear_5,0,1,48,48,1501691688
7616,19,Jits_Linear_5,1,5,63,98,1501709628
7616,19,Jits_Linear_5,2,5,56,103,1501730384
7616,19,Jits_Linear_5,3,5,80,127,1501740580
7616,19,Jits_Linear_5,0,1,48,52,1502223812
7616,19,Jits_Linear_5,1,5,80,127,1502269924
7616,19,Jits_Linear_5,2,5,56,103,1502290308
7616,19,Jits_Linear_5,3,5,63,98,1502320116
7616,19,Jits_Linear_5,0,1,48,46,1502782016
7616,19,Jits_Linear_5,1,5,56,103,1502909948
7616,19,Jits_Linear_5,2,5,80,127,1502912940
7616,19,Jits_Linear_5,3,5,63,98,1502930332
7616,19,Jits_Linear_5,0,1,48,47,1503392088
7616,19,Jits_Linear_5,1,5,63,98,1503400204
7616,19,Jits_Linear_5,2,5,56,103,1503430180
7616,19,Jits_Linear_5,3,5,80,127,1503490704
7616,19,Jits_Linear_5,0,1,48,47,1503944436
7616,19,Jits_Linear_5,1,5,63,98,1504049500
7616,19,Jits_Linear_5,2,5,56,103,1504059700
7616,19,Jits_Linear_5,3,5,80,127,1504070044
7616,19,Jits_Linear_5,0,1,48,50,1504560352
7616,19,Jits_Linear_5,1,5,56,103,1504569664
7616,19,Jits_Linear_5,2,5,80,127,1504600388
7616,19,Jits_Linear_5,3,5,63,98,1504609688
7616,19,Jits_Linear_5,0,1,48,49,1505138936
7616,19,Jits_Linear_5,1,5,63,98,1505180188
7616,19,Jits_Linear_5,2,5,56,103,1505190236
7616,19,Jits_Linear_5,3,5,80,127,1505209724
7616,19,Jits_Linear_5,0,5,56,103,1505679664
7616,19,Jits_Linear_5,1,1,48,44,1505730588
7616,19,Jits_Linear_5,2,5,63,98,1505740272
7616,19,Jits_Linear_5,3,5,80,127,1505743412
7616,19,Jits_Linear_5,0,5,80,127,1506279676
7616,19,Jits_Linear_5,1,1,48,51,1506287576
7616,19,Jits_Linear_5,2,5,56,103,1506290164
7616,19,Jits_Linear_5,3,5,63,98,1506359620
7616,19,Jits_Linear_5,0,5,80,127,1506850104
7616,19,Jits_Linear_5,1,1,48,44,1506867764
7616,19,Jits_Linear_5,2,5,56,103,1506920152
7616,19,Jits_Linear_5,3,5,63,98,1506930348
7616,19,Jits_Linear_5,0,1,48,50,1507453264
7616,19,Jits_Linear_5,1,5,63,98,1507469704
7616,19,Jits_Linear_5,2,5,56,103,1507480048
7616,19,Jits_Linear_5,3,5,80,127,1507500284
7616,19,Jits_Linear_5,0,5,80,127,1508000336
7616,19,Jits_Linear_5,1,1,48,47,1508010576
7616,19,Jits_Linear_5,2,5,63,98,1508059600
7616,19,Jits_Linear_5,3,5,56,103,1508099464
7616,19,Jits_Linear_5,0,1,48,47,1508613508
7616,19,Jits_Linear_5,1,5,56,103,1508630168
7616,19,Jits_Linear_5,2,5,63,98,1508640068
7616,19,Jits_Linear_5,3,5,80,127,1508680156
7616,19,Jits_Linear_5,0,5,56,103,1509179836
7616,19,Jits_Linear_5,1,5,80,127,1509209440
7616,19,Jits_Linear_5,2,1,48,45,1509217960
7616,19,Jits_Linear_5,3,5,63,98,1509259736
7616,19,Jits_Linear_5,0,1,48,51,1509787184
7616,19,Jits_Linear_5,1,5,56,103,1509809476
7616,19,Jits_Linear_5,2,5,63,98,1509849488
7616,19,Jits_Linear_5,3,5,80,127,1509852852
7616,19,Jits_Linear_5,0,1,48,39,1510340968
7616,19,Jits_Linear_5,1,5,56,103,1510400260
7616,19,Jits_Linear_5,2,5,63,98,1510409484
7616,19,Jits_Linear_5,3,5,80,127,1510430316
7616,19,Jits_Linear_5,0,1,48,47,1510942400
7616,19,Jits_Linear_5,1,5,56,103,1510950136
7616,19,Jits_Linear_5,2,5,80,127,1510953208
7616,19,Jits_Linear_5,3,5,63,98,1510990160
7616,19,Jits_Linear_5,0,1,48,40,1511511816
7616,19,Jits_Linear_5,1,5,63,98,1511579980
7616,19,Jits_Linear_5,2,5,56,103,1511609864
7616,19,Jits_Linear_5,3,5,80,127,1511630176
7616,19,Jits_Linear_5,0,1,48,46,1512108340
7616,19,Jits_Linear_5,1,5,80,127,1512150392
7616,19,Jits_Linear_5,2,5,56,103,1512159468
7616,19,Jits_Linear_5,3,5,63,98,1512170036
7616,19,Jits_Linear_5,0,1,48,49,1512739804
7616,19,Jits_Linear_5,1,5,56,103,1512749496
7616,19,Jits_Linear_5,2,5,80,127,1512790260
7616,19,Jits_Linear_5,3,5,63,98,1512820236
7616,19,Jits_Linear_5,0,1,48,45,1513359696
7616,19,Jits_Linear_5,1,5,63,98,1513370128
7616,19,Jits_Linear_5,2,5,80,127,1513380176
7616,19,Jits_Linear_5,3,5,56,103,1513389404
7616,19,Jits_Linear_5,0,5,56,103,1513949464
7616,19,Jits_Linear_5,1,1,48,56,1513996704
7616,19,Jits_Linear_5,2,5,63,98,1514020188
7616,19,Jits_Linear_5,3,5,80,127,1514029340
7616,19,Jits_Linear_5,0,5,80,127,1514560124
7616,19,Jits_Linear_5,1,1,48,46,1514568656
7616,19,Jits_Linear_5,2,5,56,103,1514570236
7616,19,Jits_Linear_5,3,5,63,98,1514620240
7616,19,Jits_Linear_5,0,5,80,127,1515180320
7616,19,Jits_Linear_5,1,1,48,49,1515188764
7616,19,Jits_Linear_5,2,5,56,103,1515239956
7616,19,Jits_Linear_5,3,5,63,98,1515269632
7616,19,Jits_Linear_5,0,5,56,103,1515789632
7616,19,Jits_Linear_5,1,5,80,127,1515792772
7616,19,Jits_Linear_5,2,5,63,98,1515829868
7616,19,Jits_Linear_5,3,1,48,42,1515843548
7616,19,Jits_Linear_5,0,1,48,49,1516400700
7616,19,Jits_Linear_5,1,5,56,103,1516429896
7616,19,Jits_Linear_5,2,5,63,98,1516460396
7616,19,Jits_Linear_5,3,5,80,127,1516469696
7616,19,Jits_Linear_5,0,1,48,47,1517019616
7616,19,Jits_Linear_5,1,5,63,98,1517050280
7616,19,Jits_Linear_5,2,5,80,127,1517059580
7616,19,Jits_Linear_5,3,5,56,103,1517069852
7616,19,Jits_Linear_5,0,5,80,127,1517610212
7616,19,Jits_Linear_5,1,5,56,103,1517659592
7616,19,Jits_Linear_5,2,5,63,98,1517662508
7616,19,Jits_Linear_5,3,1,48,44,1517696068
7616,19,Jits_Linear_5,0,5,56,103,1518259472
7616,19,Jits_Linear_5,1,5,80,127,1518280080
7616,19,Jits_Linear_5,2,1,48,42,1518285296
7616,19,Jits_Linear_5,3,5,63,98,1518290568
7616,19,Jits_Linear_5,0,5,63,98,1518859568
7616,19,Jits_Linear_5,1,5,56,103,1518890292
7616,19,Jits_Linear_5,2,1,48,44,1518903452
7616,19,Jits_Linear_5,3,5,80,127,1518909920
7616,19,Jits_Linear_5,0,1,48,44,1519490688
7616,19,Jits_Linear_5,1,5,56,103,1519492024
7616,19,Jits_Linear_5,2,5,80,127,1519499608
7616,19,Jits_Linear_5,3,5,63,98,1519570260
7616,19,Jits_Linear_5,0,5,63,98,1520099688
7616,19,Jits_Linear_5,1,1,48,46,1520114264
7616,19,Jits_Linear_5,2,5,80,127,1520139844
7616,19,Jits_Linear_5,3,5,56,103,1520179484
7616,19,Jits_Linear_5,0,1,48,46,1520705796
7616,19,Jits_Linear_5,1,5,56,103,1520739844
7616,19,Jits_Linear_5,2,5,63,98,1520749892
7616,19,Jits_Linear_5,3,5,80,127,1520770376
7616,19,Jits_Linear_5,0,1,48,51,1521315708
7616,19,Jits_Linear_5,1,5,63,98,1521410360
7616,19,Jits_Linear_5,2,5,80,127,1521429924
7616,19,Jits_Linear_5,3,5,56,103,1521450308
7616,19,Jits_Linear_5,0,1,48,47,1521937688
7616,19,Jits_Linear_5,1,5,56,103,1521979744
7616,19,Jits_Linear_5,2,5,80,127,1522059628
7616,19,Jits_Linear_5,3,5,63,98,1522070120
7616,19,Jits_Linear_5,0,1,48,48,1522611588
7616,19,Jits_Linear_5,1,5,80,127,1522649452
7616,19,Jits_Linear_5,2,5,63,98,1522659872
7616,19,Jits_Linear_5,3,5,56,103,1522690372
7616,19,Jits_Linear_5,0,1,48,45,1523231076
7616,19,Jits_Linear_5,1,5,63,98,1523240168
7616,19,Jits_Linear_5,2,5,80,127,1523280108
7616,19,Jits_Linear_5,3,5,56,103,1523339912
7616,19,Jits_Linear_5,0,1,48,45,1523869024
7616,19,Jits_Linear_5,1,5,63,98,1523880284
7616,19,Jits_Linear_5,2,5,56,103,1523929588
7616,19,Jits_Linear_5,3,5,80,127,1523960164
7616,19,Jits_Linear_5,0,1,48,48,1524499748
7616,19,Jits_Linear_5,1,5,80,127,1524529812
7616,19,Jits_Linear_5,2,5,63,98,1524540008
7616,19,Jits_Linear_5,3,5,56,103,1524610376
7616,19,Jits_Linear_5,0,1,48,45,1525167584
7616,19,Jits_Linear_5,1,5,80,127,1525240132
7616,19,Jits_Linear_5,2,5,56,103,1525250548
7616,19,Jits_Linear_5,3,5,63,98,1525253764
7616,19,Jits_Linear_5,0,1,48,47,1525785176
7616,19,Jits_Linear_5,1,5,56,103,1525819900
7616,19,Jits_Linear_5,2,5,80,127,1525840212
7616,19,Jits_Linear_5,3,5,63,98,1525849436
7616,19,Jits_Linear_5,0,1,48,46,1526401544
7616,19,Jits_Linear_5,1,5,63,98,1526469980
7616,19,Jits_Linear_5,2,5,56,103,1526509908
7616,19,Jits_Linear_5,3,5,80,127,1526530516
7616,19,Jits_Linear_5,0,1,48,51,1527067704
7616,19,Jits_Linear_5,1,5,63,98,1527120264
7616,19,Jits_Linear_5,2,5,56,103,1527179768
7616,19,Jits_Linear_5,3,5,80,127,1527182756
7616,19,Jits_Linear_5,0,5,56,103,1527729660
7616,19,Jits_Linear_5,1,5,80,127,1527750120
7616,19,Jits_Linear_5,2,1,48,52,1527777128
7616,19,Jits_Linear_5,3,5,63,98,1527789904
7616,19,Jits_Linear_5,0,1,48,43,1528399548
7616,19,Jits_Linear_5,1,5,56,103,1528409688
7616,19,Jits_Linear_5,2,5,63,98,1528429848
7616,19,Jits_Linear_5,3,5,80,127,1528440044
7616,19,Jits_Linear_5,0,1,48,50,1529028284
7616,19,Jits_Linear_5,1,5,80,127,1529029872
7616,19,Jits_Linear_5,2,5,56,103,1529059624
7616,19,Jits_Linear_5,3,5,63,98,1529099860
7616,19,Jits_Linear_5,0,1,48,44,1529681248
7616,19,Jits_Linear_5,1,5,80,127,1529689588
7616,19,Jits_Linear_5,2,5,56,103,1529709976
7616,19,Jits_Linear_5,3,5,63,98,1529770464
7616,19,Jits_Linear_5,0,1,48,45,1530320016
7616,19,Jits_Linear_5,1,5,56,103,1530349932
7616,19,Jits_Linear_5,2,5,80,127,1530370692
7616,19,Jits_Linear_5,3,5,63,98,1530429872
7616,19,Jits_Linear_5,0,5,80,127,1530990028
7616,19,Jits_Linear_5,1,5,56,103,1531000224
7616,19,Jits_Linear_5,2,1,48,40,1531011292
7616,19,Jits_Linear_5,3,5,63,98,1531040008
7616,19,Jits_Linear_5,0,1,48,45,1531564156
7616,19,Jits_Linear_5,1,5,63,98,1531650424
7616,19,Jits_Linear_5,2,5,56,103,1531690424
7616,19,Jits_Linear_5,3,5,80,127,1531693636
7616,19,Jits_Linear_5,0,1,48,52,1532188652
7616,19,Jits_Linear_5,1,5,63,98,1532330368
7616,19,Jits_Linear_5,2,5,80,127,1532370308
7616,19,Jits_Linear_5,3,5,56,103,1532399912
7616,19,Jits_Linear_5,0,1,48,38,1532886372
7616,19,Jits_Linear_5,1,5,56,103,1532979764
7616,19,Jits_Linear_5,2,5,63,98,1532989948
7616,19,Jits_Linear_5,3,5,80,127,1533019624
7616,19,Jits_Linear_5,0,1,48,47,1533583956
7616,19,Jits_Linear_5,1,5,80,127,1533640108
7616,19,Jits_Linear_5,2,5,63,98,1533709852
7616,19,Jits_Linear_5,3,5,56,103,1533719824
7616,19,Jits_Linear_5,0,5,63,98,1534309724
7616,19,Jits_Linear_5,1,1,48,41,1534317872
7616,19,Jits_Linear_5,2,5,56,103,1534380696
7616,19,Jits_Linear_5,3,5,80,127,1534389696
7616,19,Jits_Linear_5,0,5,63,98,1534979660
7616,19,Jits_Linear_5,1,1,48,49,1534998992
7616,19,Jits_Linear_5,2,5,56,103,1535000712
7616,19,Jits_Linear_5,3,5,80,127,1535039832
7616,19,Jits_Linear_5,0,1,48,47,1535612840
7616,19,Jits_Linear_5,1,5,56,103,1535660520
7616,19,Jits_Linear_5,2,5,63,98,1535669820
7616,19,Jits_Linear_5,3,5,80,127,1535749604
7616,19,Jits_Linear_5,0,1,48,47,1536295332
7616,19,Jits_Linear_5,1,5,63,98,1536319792
7616,19,Jits_Linear_5,2,5,56,103,1536349916
7616,19,Jits_Linear_5,3,5,80,127,1536389584
7616,19,Jits_Linear_5,0,1,48,41,1536987836
7616,19,Jits_Linear_5,1,5,56,103,1536989500
7616,19,Jits_Linear_5,2,5,63,98,1537029736
7616,19,Jits_Linear_5,3,5,80,127,1537069452
7616,19,Jits_Linear_5,0,1,48,56,1537658036
7616,19,Jits_Linear_5,1,5,80,127,1537669816
7616,19,Jits_Linear_5,2,5,56,103,1537750588
7616,19,Jits_Linear_5,3,5,63,98,1537759648
7616,19,Jits_Linear_5,0,1,48,52,1538339700
7616,19,Jits_Linear_5,1,5,56,103,1538390672
7616,19,Jits_Linear_5,2,5,63,98,1538393740
7616,19,Jits_Linear_5,3,5,80,127,1538399596
7616,19,Jits_Linear_5,0,1,48,47,1539047000
7616,19,Jits_Linear_5,1,5,56,103,1539089744
7616,19,Jits_Linear_5,2,5,63,98,1539110204
7616,19,Jits_Linear_5,3,5,80,127,1539119504
7616,19,Jits_Linear_5,0,5,63,98,1539729868
7616,19,Jits_Linear_5,1,5,80,127,1539739988
7616,19,Jits_Linear_5,2,5,56,103,1539759696
7616,19,Jits_Linear_5,3,1,48,50,1539764240
7616,19,Jits_Linear_5,0,1,48,52,1540411504
7616,19,Jits_Linear_5,1,5,63,98,1540419920
7616,19,Jits_Linear_5,2,5,56,103,1540499820
7616,19,Jits_Linear_5,3,5,80,127,1540503108
7616,19,Jits_Linear_5,0,5,63,98,1541110156
7616,19,Jits_Linear_5,1,5,56,103,1541129572
7616,19,Jits_Linear_5,2,5,80,127,1541160292
7616,19,Jits_Linear_5,3,1,48,49,1541213904
7616,19,Jits_Linear_5,0,1,48,38,1541733724
7616,19,Jits_Linear_5,1,5,56,103,1541800460
7616,19,Jits_Linear_5,2,5,63,98,1541819648
7616,19,Jits_Linear_5,3,5,80,127,1541829980
7616,19,Jits_Linear_5,0,1,48,38,1542417752
7616,19,Jits_Linear_5,1,5,56,103,1542520028
7616,19,Jits_Linear_5,2,5,63,98,1542549852
7616,19,Jits_Linear_5,3,5,80,127,1542553144
7616,19,Jits_Linear_5,0,1,48,38,1543159528
7616,19,Jits_Linear_5,1,5,56,103,1543160944
7616,19,Jits_Linear_5,2,5,63,98,1543199988
7616,19,Jits_Linear_5,3,5,80,127,1543259468
7616,19,Jits_Linear_5,0,5,56,103,1543869700
7616,19,Jits_Linear_5,1,5,63,98,1543879972
7616,19,Jits_Linear_5,2,1,48,44,1543880936
7616,19,Jits_Linear_5,3,5,80,127,1543939604
7616,19,Jits_Linear_5,0,5,56,103,1544570508
7616,19,Jits_Linear_5,1,5,80,127,1544589552
7616,19,Jits_Linear_5,2,1,48,38,1544618532
7616,19,Jits_Linear_5,3,5,63,98,1544620492
7616,19,Jits_Linear_5,0,1,48,44,1545247900
7616,19,Jits_Linear_5,1,5,80,127,1545269720
7616,19,Jits_Linear_5,2,5,56,103,1545279992
7616,19,Jits_Linear_5,3,5,63,98,1545300448
7616,19,Jits_Linear_5,0,1,48,37,1545923956
7616,19,Jits_Linear_5,1,5,63,98,1545959800
7616,19,Jits_Linear_5,2,5,80,127,1546039812
7616,19,Jits_Linear_5,3,5,56,103,1546050084
7616,19,Jits_Linear_5,0,1,48,38,1546628516
7616,19,Jits_Linear_5,1,5,80,127,1546719500
7616,19,Jits_Linear_5,2,5,56,103,1546740016
7616,19,Jits_Linear_5,3,5,63,98,1546743084
7616,19,Jits_Linear_5,0,1,48,39,1547301484
7616,19,Jits_Linear_5,1,5,63,98,1547399596
7616,19,Jits_Linear_5,2,5,80,127,1547402812
7616,19,Jits_Linear_5,3,5,56,103,1547459840
7616,19,Jits_Linear_5,0,1,48,26,1547952072
7616,19,Jits_Linear_5,1,5,56,103,1548089728
7616,19,Jits_Linear_5,2,5,80,127,1548100144
7616,19,Jits_Linear_5,3,5,63,98,1548139936
7616,19,Jits_Linear_5,0,1,48,30,1548634788
7616,19,Jits_Linear_5,1,5,56,103,1548779884
7616,19,Jits_Linear_5,2,5,63,98,1548840652
7616,19,Jits_Linear_5,3,5,80,127,1548849576
7616,19,Jits_Linear_5,0,1,48,35,1549464556
7616,19,Jits_Linear_5,1,5,63,98,1549499808
7616,19,Jits_Linear_5,2,5,80,127,1549539748
7616,19,Jits_Linear_5,3,5,56,103,1549579596
7616,19,Jits_Linear_5,0,5,56,103,1550210576
7616,19,Jits_Linear_5,1,1,48,44,1550244636
7616,19,Jits_Linear_5,2,5,63,98,1550290368
7616,19,Jits_Linear_5,3,5,80,127,1550293880
7616,19,Jits_Linear_5,0,1,48,38,1550966316
7616,19,Jits_Linear_5,1,5,80,127,1550979340
7616,19,Jits_Linear_5,2,5,56,103,1551010360
7616,19,Jits_Linear_5,3,5,63,98,1551013276
7616,19,Jits_Linear_5,0,5,56,103,1551669552
7616,19,Jits_Linear_5,1,5,80,127,1551690160
7616,19,Jits_Linear_5,2,1,48,36,1551695668
7616,19,Jits_Linear_5,3,5,63,98,1551730016
7616,19,Jits_Linear_5,0,1,48,34,1552370284
7616,19,Jits_Linear_5,1,5,80,127,1552371548
7616,19,Jits_Linear_5,2,5,63,98,1552389396
7616,19,Jits_Linear_5,3,5,56,103,1552449936
7616,19,Jits_Linear_5,0,1,48,49,1553092104
7616,19,Jits_Linear_5,1,5,63,98,1553110340
7616,19,Jits_Linear_5,2,5,56,103,1553119492
7616,19,Jits_Linear_5,3,5,80,127,1553169692
7616,19,Jits_Linear_5,0,1,48,47,1553761708
7616,19,Jits_Linear_5,1,5,56,103,1553819976
7616,19,Jits_Linear_5,2,5,63,98,1553839464
7616,19,Jits_Linear_5,3,5,80,127,1553849736
7616,19,Jits_Linear_5,0,1,48,55,1554475088
7616,19,Jits_Linear_5,1,5,56,103,1554540004
7616,19,Jits_Linear_5,2,5,63,98,1554542920
7616,19,Jits_Linear_5,3,5,80,127,1554560264
7616,19,Jits_Linear_5,0,1,48,52,1555178508
7616,19,Jits_Linear_5,1,5,63,98,1555310004
7616,19,Jits_Linear_5,2,5,56,103,1555339484
7616,19,Jits_Linear_5,3,5,80,127,1555370356
7616,19,Jits_Linear_5,0,5,80,127,1556000264
7616,19,Jits_Linear_5,1,1,48,48,1556002940
7616,19,Jits_Linear_5,2,5,56,103,1556090420
7616,19,Jits_Linear_5,3,5,63,98,1556093412
7616,19,Jits_Linear_5,0,5,56,103,1556730364
7616,19,Jits_Linear_5,1,5,80,127,1556733504
7616,19,Jits_Linear_5,2,1,48,41,1556764948
7616,19,Jits_Linear_5,3,5,63,98,1556810228
7616,19,Jits_Linear_5,0,1,48,40,1557431808
7616,19,Jits_Linear_5,1,5,80,127,1557460380
7616,19,Jits_Linear_5,2,5,63,98,1557519880
7616,19,Jits_Linear_5,3,5,56,103,1557549392
7616,19,Jits_Linear_5,0,1,48,36,1558162352
7616,19,Jits_Linear_5,1,5,63,98,1558189356
7616,19,Jits_Linear_5,2,5,80,127,1558199552
7616,19,Jits_Linear_5,3,5,56,103,1558270268
7616,19,Jits_Linear_5,0,5,56,103,1558940128
7616,19,Jits_Linear_5,1,5,80,127,1558969732
7616,19,Jits_Linear_5,2,1,48,39,1558974944
7616,19,Jits_Linear_5,3,5,63,98,1559019852
7616,19,Jits_Linear_5,0,1,48,36,1559693276
7616,19,Jits_Linear_5,1,5,63,98,1559720432
7616,19,Jits_Linear_5,2,5,56,103,1559750032
7616,19,Jits_Linear_5,3,5,80,127,1559752948
7616,19,Jits_Linear_5,0,5,63,98,1560459596
7616,19,Jits_Linear_5,1,5,80,127,1560480356
7616,19,Jits_Linear_5,2,5,56,103,1560490476
7616,19,Jits_Linear_5,3,1,48,37,1560491440
7616,19,Jits_Linear_5,0,1,48,28,1561198180
7616,19,Jits_Linear_5,1,5,56,103,1561210132
7616,19,Jits_Linear_5,2,5,63,98,1561213128
7616,19,Jits_Linear_5,3,5,80,127,1561229548
7616,19,Jits_Linear_5,0,1,48,41,1561899936
7616,19,Jits_Linear_5,1,5,56,103,1561909480
7616,19,Jits_Linear_5,2,5,63,98,1561919824
7616,19,Jits_Linear_5,3,5,80,127,1561949428
7616,19,Jits_Linear_5,0,1,48,39,1562590248
7616,19,Jits_Linear_5,1,5,63,98,1562679804
7616,19,Jits_Linear_5,2,5,80,127,1562700100
7616,19,Jits_Linear_5,3,5,56,103,1562740484
7616,19,Jits_Linear_5,0,1,48,38,1563340044
7616,19,Jits_Linear_5,1,5,56,103,1563460084
7616,19,Jits_Linear_5,2,5,63,98,1563500024
7616,19,Jits_Linear_5,3,5,80,127,1563503460
7616,19,Jits_Linear_5,0,1,48,29,1564039864
7616,19,Jits_Linear_5,1,5,80,127,1564150088
7616,19,Jits_Linear_5,2,5,56,103,1564190176
7616,19,Jits_Linear_5,3,5,63,98,1564240232
7616,19,Jits_Linear_5,0,1,48,34,1564758472
7616,19,Jits_Linear_5,1,5,56,103,1564960124
7616,19,Jits_Linear_5,2,5,80,127,1564970320
7616,19,Jits_Linear_5,3,5,63,98,1565000148
7616,19,Jits_Linear_5,0,1,48,46,1565540336
7616,19,Jits_Linear_5,1,5,56,103,1565659432
7616,19,Jits_Linear_5,2,5,80,127,1565699448
7616,19,Jits_Linear_5,3,5,63,98,1565749576
7616,19,Jits_Linear_5,0,1,48,34,1566272152
7616,19,Jits_Linear_5,1,5,56,103,1566420392
7616,19,Jits_Linear_5,2,5,80,127,1566460408
7616,19,Jits_Linear_5,3,5,63,98,1566509564
7616,19,Jits_Linear_5,0,1,48,34,1567061804
7616,19,Jits_Linear_5,1,5,80,127,1567170256
7616,19,Jits_Linear_5,2,5,63,98,1567249760
7616,19,Jits_Linear_5,3,5,56,103,1567260104
7616,19,Jits_Linear_5,0,1,48,35,1567745208
7616,19,Jits_Linear_5,1,5,80,127,1567980216
7616,19,Jits_Linear_5,2,5,56,103,1567990188
7616,19,Jits_Linear_5,3,5,63,98,1568009528
7616,19,Jits_Linear_5,0,1,48,44,1568533072
7616,19,Jits_Linear_5,1,5,63,98,1568710012
7616,19,Jits_Linear_5,2,5,56,103,1568779768
7616,19,Jits_Linear_5,3,5,80,127,1568782760
7616,19,Jits_Linear_5,0,1,48,44,1569278672
7616,19,Jits_Linear_5,1,5,80,127,1569469768
7616,19,Jits_Linear_5,2,5,63,98,1569519972
7616,19,Jits_Linear_5,3,5,56,103,1569560132
7616,19,Jits_Linear_5,0,1,48,43,1569989284
7616,19,Jits_Linear_5,1,5,63,98,1570279880
7616,19,Jits_Linear_5,2,5,56,103,1570319672
7616,19,Jits_Linear_5,3,5,80,127,1570330092
7616,19,Jits_Linear_5,0,1,48,45,1570916348
7616,19,Jits_Linear_5,1,5,63,98,1571039576
7616,19,Jits_Linear_5,2,5,56,103,1571060184
7616,19,Jits_Linear_5,3,5,80,127,1571079524
7616,19,Jits_Linear_5,0,1,48,47,1571758944
7616,19,Jits_Linear_5,1,5,80,127,1571769608
7616,19,Jits_Linear_5,2,5,56,103,1571780104
7616,19,Jits_Linear_5,3,5,63,98,1571800412
7616,19,Jits_Linear_5,0,1,48,50,1572453184
7616,19,Jits_Linear_5,1,5,63,98,1572569512
7616,19,Jits_Linear_5,2,5,56,103,1572610352
7616,19,Jits_Linear_5,3,5,80,127,1572640100
7616,19,Jits_Linear_5,0,1,48,54,1573266844
7616,19,Jits_Linear_5,1,5,56,103,1573349896
7616,19,Jits_Linear_5,2,5,63,98,1573379412
7616,19,Jits_Linear_5,3,5,80,127,1573410208
7616,19,Jits_Linear_5,0,1,48,52,1574053504
7616,19,Jits_Linear_5,1,5,80,127,1574100216
7616,19,Jits_Linear_5,2,5,56,103,1574170032
7616,19,Jits_Linear_5,3,5,63,98,1574173024
7616,19,Jits_Linear_5,0,1,48,45,1574841584
7616,19,Jits_Linear_5,1,5,56,103,1574900200
7616,19,Jits_Linear_5,2,5,63,98,1574950168
7616,19,Jits_Linear_5,3,5,80,127,1574979992
7616,19,Jits_Linear_5,0,1,48,48,1575648852
7616,19,Jits_Linear_5,1,5,63,98,1575659960
7616,19,Jits_Linear_5,2,5,80,127,1575663176
7616,19,Jits_Linear_5,3,5,56,103,1575720204
7616,19,Jits_Linear_5,0,1,48,54,1576436980
7616,19,Jits_Linear_5,1,5,56,103,1576469836
7616,19,Jits_Linear_5,2,5,80,127,1576480184
7616,19,Jits_Linear_5,3,5,63,98,1576530160
7616,19,Jits_Linear_5,0,1,48,62,1577224548
7616,19,Jits_Linear_5,1,5,63,98,1577229824
7616,19,Jits_Linear_5,2,5,56,103,1577240020
7616,19,Jits_Linear_5,3,5,80,127,1577269620
7616,19,Jits_Linear_5,0,1,48,39,1577990752
7616,19,Jits_Linear_5,1,5,63,98,1578049892
7616,19,Jits_Linear_5,2,5,80,127,1578053104
7616,19,Jits_Linear_5,3,5,56,103,1578079716
7616,19,Jits_Linear_5,0,1,48,45,1578773416
7616,19,Jits_Linear_5,1,5,63,98,1578859916
7616,19,Jits_Linear_5,2,5,56,103,1578880312
7616,19,Jits_Linear_5,3,5,80,127,1578883304
7616,19,Jits_Linear_5,0,5,63,98,1579609416
7616,19,Jits_Linear_5,1,1,48,40,1579616192
7616,19,Jits_Linear_5,2,5,56,103,1579680236
7616,19,Jits_Linear_5,3,5,80,127,1579699500
7616,19,Jits_Linear_5,0,5,56,103,1580389924
7616,19,Jits_Linear_5,1,5,63,98,1580399976
7616,19,Jits_Linear_5,2,1,48,44,1580405708
7616,19,Jits_Linear_5,3,5,80,127,1580490200
7616,19,Jits_Linear_5,0,1,48,41,1581167960
7616,19,Jits_Linear_5,1,5,56,103,1581199992
7616,19,Jits_Linear_5,2,5,80,127,1581239788
7616,19,Jits_Linear_5,3,5,63,98,1581250056
7616,19,Jits_Linear_5,0,1,48,51,1581972312
7616,19,Jits_Linear_5,1,5,56,103,1582020068
7616,19,Jits_Linear_5,2,5,63,98,1582049748
7616,19,Jits_Linear_5,3,5,80,127,1582080308
7616,19,Jits_Linear_5,0,1,48,58,1582753576
7616,19,Jits_Linear_5,1,5,80,127,1582779684
7616,19,Jits_Linear_5,2,5,63,98,1582819924
7616,19,Jits_Linear_5,3,5,56,103,1582840236
7616,19,Jits_Linear_5,0,1,48,51,1583531920
7616,19,Jits_Linear_5,1,5,56,103,1583619388
7616,19,Jits_Linear_5,2,5,80,127,1583640056
7616,19,Jits_Linear_5,3,5,63,98,1583660368
7616,19,Jits_Linear_5,0,1,48,51,1584314456
7616,19,Jits_Linear_5,1,5,63,98,1584389784
7616,19,Jits_Linear_5,2,5,56,103,1584399832
7616,19,Jits_Linear_5,3,5,80,127,1584460136
7616,19,Jits_Linear_5,0,1,48,40,1585137220
7616,19,Jits_Linear_5,1,5,56,103,1585199672
7616,19,Jits_Linear_5,2,5,63,98,1585270240
7616,19,Jits_Linear_5,3,5,80,127,1585289604
7616,19,Jits_Linear_5,0,1,48,43,1585925904
7616,19,Jits_Linear_5,1,5,56,103,1586009708
7616,19,Jits_Linear_5,2,5,63,98,1586040072
7616,19,Jits_Linear_5,3,5,80,127,1586080160
7616,19,Jits_Linear_5,0,1,48,54,1586750788
7616,19,Jits_Linear_5,1,5,63,98,1586810104
7616,19,Jits_Linear_5,2,5,56,103,1586860296
7616,19,Jits_Linear_5,3,5,80,127,1586869816
7616,19,Jits_Linear_5,0,1,48,60,1587547020
7616,19,Jits_Linear_5,1,5,56,103,1587660132
7616,19,Jits_Linear_5,2,5,63,98,1587710336
7616,19,Jits_Linear_5,3,5,80,127,1587719712
7616,19,Jits_Linear_5,0,1,48,55,1588382796
7616,19,Jits_Linear_5,1,5,56,103,1588440292
7616,19,Jits_Linear_5,2,5,63,98,1588449812
7616,19,Jits_Linear_5,3,5,80,127,1588529520
7616,19,Jits_Linear_5,0,9999,9999,9999,1479638092
7616,19,Jits_Linear_5,1,9999,9999,9999,1480127572
7616,19,Jits_Linear_5,2,9999,9999,9999,1480607820
7616,19,Jits_Linear_5,3,9999,9999,9999,1481088112
7616,19,Jits_Linear_5,4,9999,9999,9999,1481577596
7616,19,Jits_Linear_5,5,9999,9999,9999,1482068072
7616,19,Jits_Linear_5,6,9999,9999,9999,1482557496
7616,19,Jits_Linear_5,7,9999,9999,9999,1483048056
7616,19,Jits_Linear_5,8,9999,9999,9999,1483537496
7616,19,Jits_Linear_5,9,9999,9999,9999,1484027980
7616,19,Jits_Linear_5,10,9999,9999,9999,1484527680
7616,19,Jits_Linear_5,11,9999,9999,9999,1485027388
7616,19,Jits_Linear_5,12,9999,9999,9999,1485527144
7616,19,Jits_Linear_5,13,9999,9999,9999,1486027876
7616,19,Jits_Linear_5,14,9999,9999,9999,1486527548
7616,19,Jits_Linear_5,15,9999,9999,9999,1487037500
7616,19,Jits_Linear_5,16,9999,9999,9999,1487547452
7616,19,Jits_Linear_5,17,9999,9999,9999,1488057404
7616,19,Jits_Linear_5,18,9999,9999,9999,1488567352
7616,19,Jits_Linear_5,19,9999,9999,9999,1489077308
7616,19,Jits_Linear_5,20,9999,9999,9999,1489597520
7616,19,Jits_Linear_5,21,9999,9999,9999,1490117736
7616,19,Jits_Linear_5,22,9999,9999,9999,1490637948
7616,19,Jits_Linear_5,23,9999,9999,9999,1491158092
7616,19,Jits_Linear_5,24,9999,9999,9999,1491687524
7616,19,Jits_Linear_5,25,9999,9999,9999,1492217920
7616,19,Jits_Linear_5,26,9999,9999,9999,1492747356
7616,19,Jits_Linear_5,27,9999,9999,9999,1493277812
7616,19,Jits_Linear_5,28,9999,9999,9999,1493807172
7616,19,Jits_Linear_5,29,9999,9999,9999,1494337648
7616,19,Jits_Linear_5,30,9999,9999,9999,1494877260
7616,19,Jits_Linear_5,31,9999,9999,9999,1495417940
7616,19,Jits_Linear_5,32,9999,9999,9999,1495957592
7616,19,Jits_Linear_5,33,9999,9999,9999,1496497228
7616,19,Jits_Linear_5,34,9999,9999,9999,1497037908
7616,19,Jits_Linear_5,35,9999,9999,9999,1497587816
7616,19,Jits_Linear_5,36,9999,9999,9999,1498137692
7616,19,Jits_Linear_5,37,9999,9999,9999,1498687576
7616,19,Jits_Linear_5,38,9999,9999,9999,1499237480
7616,19,Jits_Linear_5,39,9999,9999,9999,1499787392
7616,19,Jits_Linear_5,40,9999,9999,9999,1500347468
7616,19,Jits_Linear_5,41,9999,9999,9999,1500907628
7616,19,Jits_Linear_5,42,9999,9999,9999,1501467716
7616,19,Jits_Linear_5,43,9999,9999,9999,1502027860
7616,19,Jits_Linear_5,44,9999,9999,9999,1502588032
7616,19,Jits_Linear_5,45,9999,9999,9999,1503157320
7616,19,Jits_Linear_5,46,9999,9999,9999,1503727732
7616,19,Jits_Linear_5,47,9999,9999,9999,1504298076
7616,19,Jits_Linear_5,48,9999,9999,9999,1504867444
7616,19,Jits_Linear_5,49,9999,9999,9999,1505437816
7616,19,Jits_Linear_5,50,9999,9999,9999,1506017360
7616,19,Jits_Linear_5,51,9999,9999,9999,1506597976
7616,19,Jits_Linear_5,52,9999,9999,9999,1507177548
7616,19,Jits_Linear_5,53,9999,9999,9999,1507757144
7616,19,Jits_Linear_5,54,9999,9999,9999,1508337744
7616,19,Jits_Linear_5,55,9999,9999,9999,1508927576
7616,19,Jits_Linear_5,56,9999,9999,9999,1509517420
7616,19,Jits_Linear_5,57,9999,9999,9999,1510107252
7616,19,Jits_Linear_5,58,9999,9999,9999,1510698040
7616,19,Jits_Linear_5,59,9999,9999,9999,1511287920
7616,19,Jits_Linear_5,60,9999,9999,9999,1511887948
7616,19,Jits_Linear_5,61,9999,9999,9999,1512488028
7616,19,Jits_Linear_5,62,9999,9999,9999,1513088060
7616,19,Jits_Linear_5,63,9999,9999,9999,1513697352
7616,19,Jits_Linear_5,64,9999,9999,9999,1514297436
7616,19,Jits_Linear_5,65,9999,9999,9999,1514907744
7616,19,Jits_Linear_5,66,9999,9999,9999,1515518028
7616,19,Jits_Linear_5,67,9999,9999,9999,1516127328
7616,19,Jits_Linear_5,68,9999,9999,9999,1516737640
7616,19,Jits_Linear_5,69,9999,9999,9999,1517347912
7616,19,Jits_Linear_5,70,9999,9999,9999,1517967488
7616,19,Jits_Linear_5,71,9999,9999,9999,1518587964
7616,19,Jits_Linear_5,72,9999,9999,9999,1519207536
7616,19,Jits_Linear_5,73,9999,9999,9999,1519828092
7616,19,Jits_Linear_5,74,9999,9999,9999,1520447580
7616,19,Jits_Linear_5,75,9999,9999,9999,1521077356
7616,19,Jits_Linear_5,76,9999,9999,9999,1521707112
7616,19,Jits_Linear_5,77,9999,9999,9999,1522337860
7616,19,Jits_Linear_5,78,9999,9999,9999,1522967612
7616,19,Jits_Linear_5,79,9999,9999,9999,1523597388
7616,19,Jits_Linear_5,80,9999,9999,9999,1524237400
7616,19,Jits_Linear_5,81,9999,9999,9999,1524877440
7616,19,Jits_Linear_5,82,9999,9999,9999,1525517376
7616,19,Jits_Linear_5,83,9999,9999,9999,1526157416
7616,19,Jits_Linear_5,84,9999,9999,9999,1526797432
7616,19,Jits_Linear_5,85,9999,9999,9999,1527447656
7616,19,Jits_Linear_5,86,9999,9999,9999,1528097856
7616,19,Jits_Linear_5,87,9999,9999,9999,1528747124
7616,19,Jits_Linear_5,88,9999,9999,9999,1529397328
7616,19,Jits_Linear_5,89,9999,9999,9999,1530047556
7616,19,Jits_Linear_5,90,9999,9999,9999,1530708024
7616,19,Jits_Linear_5,91,9999,9999,9999,1531367512
7616,19,Jits_Linear_5,92,9999,9999,9999,1532028008
7616,19,Jits_Linear_5,93,9999,9999,9999,1532687428
7616,19,Jits_Linear_5,94,9999,9999,9999,1533347916
7616,19,Jits_Linear_5,95,9999,9999,9999,1534017604
7616,19,Jits_Linear_5,96,9999,9999,9999,1534687312
7616,19,Jits_Linear_5,97,9999,9999,9999,1535358068
7616,19,Jits_Linear_5,98,9999,9999,9999,1536027752
7616,19,Jits_Linear_5,99,9999,9999,9999,1536697460
7616,19,Jits_Linear_5,100,9999,9999,9999,1537377408
7616,19,Jits_Linear_5,101,9999,9999,9999,1538057280
7616,19,Jits_Linear_5,102,9999,9999,9999,1538737240
7616,19,Jits_Linear_5,103,9999,9999,9999,1539417192
7616,19,Jits_Linear_5,104,9999,9999,9999,1540097088
7616,19,Jits_Linear_5,105,9999,9999,9999,1540787320
7616,19,Jits_Linear_5,106,9999,9999,9999,1541477456
7616,19,Jits_Linear_5,107,9999,9999,9999,1542167616
7616,19,Jits_Linear_5,108,9999,9999,9999,1542857820
7616,19,Jits_Linear_5,109,9999,9999,9999,1543547980
7616,19,Jits_Linear_5,110,9999,9999,9999,1544247408
7616,19,Jits_Linear_5,111,9999,9999,9999,1544947772
7616,19,Jits_Linear_5,112,9999,9999,9999,1545647160
7616,19,Jits_Linear_5,113,9999,9999,9999,1546347636
7616,19,Jits_Linear_5,114,9999,9999,9999,1547048060
7616,19,Jits_Linear_5,115,9999,9999,9999,1547757692
7616,19,Jits_Linear_5,116,9999,9999,9999,1548467260
7616,19,Jits_Linear_5,117,9999,9999,9999,1549177948
7616,19,Jits_Linear_5,118,9999,9999,9999,1549887564
7616,19,Jits_Linear_5,119,9999,9999,9999,1550597196
7616,19,Jits_Linear_5,120,9999,9999,9999,1551318088
7616,19,Jits_Linear_5,121,9999,9999,9999,1552047212
7616,19,Jits_Linear_5,122,9999,9999,9999,1552768100
7616,19,Jits_Linear_5,123,9999,9999,9999,1553497196
7616,19,Jits_Linear_5,124,9999,9999,9999,1554218068
7616,19,Jits_Linear_5,125,9999,9999,9999,1554947176
7616,19,Jits_Linear_5,126,9999,9999,9999,1555677280
7616,19,Jits_Linear_5,127,9999,9999,9999,1556407364
7616,19,Jits_Linear_5,128,9999,9999,9999,1557137536
7616,19,Jits_Linear_5,129,9999,9999,9999,1557867620
7616,19,Jits_Linear_5,130,9999,9999,9999,1558607976
7616,19,Jits_Linear_5,131,9999,9999,9999,1559347284
7616,19,Jits_Linear_5,132,9999,9999,9999,1560087652
7616,19,Jits_Linear_5,133,9999,9999,9999,1560828012
7616,19,Jits_Linear_5,134,9999,9999,9999,1561567316
7616,19,Jits_Linear_5,135,9999,9999,9999,1562317932
7616,19,Jits_Linear_5,136,9999,9999,9999,1563067512
7616,19,Jits_Linear_5,137,9999,9999,9999,1563818052
7616,19,Jits_Linear_5,138,9999,9999,9999,1564567628
7616,19,Jits_Linear_5,139,9999,9999,9999,1565317208
7616,19,Jits_Linear_5,140,9999,9999,9999,1566078020
7616,19,Jits_Linear_5,141,9999,9999,9999,1566837832
7616,19,Jits_Linear_5,142,9999,9999,9999,1567597664
7616,19,Jits_Linear_5,143,9999,9999,9999,1568357496
7616,19,Jits_Linear_5,144,9999,9999,9999,1569117252
7616,19,Jits_Linear_5,145,9999,9999,9999,1569887356
7616,19,Jits_Linear_5,146,9999,9999,9999,1570657388
7616,19,Jits_Linear_5,147,9999,9999,9999,1571427416
7616,19,Jits_Linear_5,148,9999,9999,9999,1572197440
7616,19,Jits_Linear_5,149,9999,9999,9999,1572967548
7616,19,Jits_Linear_5,150,9999,9999,9999,1573747768
7616,19,Jits_Linear_5,151,9999,9999,9999,1574528068
7616,19,Jits_Linear_5,152,9999,9999,9999,1575317576
7616,19,Jits_Linear_5,153,9999,9999,9999,1576097852
7616,19,Jits_Linear_5,154,9999,9999,9999,1576877168
7616,19,Jits_Linear_5,155,9999,9999,9999,1577667644
7616,19,Jits_Linear_5,156,9999,9999,9999,1578457212
7616,19,Jits_Linear_5,157,9999,9999,9999,1579247684
7616,19,Jits_Linear_5,158,9999,9999,9999,1580037196
7616,19,Jits_Linear_5,159,9999,9999,9999,1580827744
7616,19,Jits_Linear_5,160,9999,9999,9999,1581627456
7616,19,Jits_Linear_5,161,9999,9999,9999,1582427228
7616,19,Jits_Linear_5,162,9999,9999,9999,1583227996
7616,19,Jits_Linear_5,163,9999,9999,9999,1584027768
7616,19,Jits_Linear_5,164,9999,9999,9999,1584827464
7616,19,Jits_Linear_5,165,9999,9999,9999,1585637500
7616,19,Jits_Linear_5,166,9999,9999,9999,1586447460
7616,19,Jits_Linear_5,167,9999,9999,9999,1587257420
7616,19,Jits_Linear_5,168,9999,9999,9999,1588067384
7616,19,Jits_Linear_5,169,9999,9999,9999,1588877368
7617,18,Jits_Linear_8,0,5,56,103,1598486840
7617,18,Jits_Linear_8,1,5,63,98,1598490012
7617,18,Jits_Linear_8,2,5,80,127,1598493280
7617,18,Jits_Linear_8,0,1,48,47,1599088328
7617,18,Jits_Linear_8,1,5,56,103,1599307052
7617,18,Jits_Linear_8,2,5,63,98,1599310072
7617,18,Jits_Linear_8,3,5,80,127,1599313492
7617,18,Jits_Linear_8,0,1,48,54,1599929064
7617,18,Jits_Linear_8,1,5,80,127,1600066792
7617,18,Jits_Linear_8,2,5,63,98,1600157100
7617,18,Jits_Linear_8,3,5,56,103,1600167224
7617,18,Jits_Linear_8,0,1,48,51,1600840304
7617,18,Jits_Linear_8,1,5,56,103,1600906744
7617,18,Jits_Linear_8,2,5,63,98,1600916864
7617,18,Jits_Linear_8,3,5,80,127,1601006908
7617,18,Jits_Linear_8,0,1,48,38,1601685416
7617,18,Jits_Linear_8,1,5,63,98,1601697276
7617,18,Jits_Linear_8,2,5,80,127,1601726804
7617,18,Jits_Linear_8,3,5,56,103,1601756628
7617,18,Jits_Linear_8,0,1,48,59,1602476248
7617,18,Jits_Linear_8,1,5,56,103,1602517476
7617,18,Jits_Linear_8,2,5,80,127,1602616664
7617,18,Jits_Linear_8,3,5,63,98,1602666940
7617,18,Jits_Linear_8,0,1,48,54,1603312104
7617,18,Jits_Linear_8,1,5,56,103,1603327420
7617,18,Jits_Linear_8,2,5,80,127,1603376504
7617,18,Jits_Linear_8,3,5,63,98,1603416500
7617,18,Jits_Linear_8,0,1,48,42,1604108492
7617,18,Jits_Linear_8,1,5,80,127,1604166960
7617,18,Jits_Linear_8,2,5,63,98,1604196708
7617,18,Jits_Linear_8,3,5,56,103,1604267372
7617,18,Jits_Linear_8,0,1,48,55,1604973196
7617,18,Jits_Linear_8,1,5,63,98,1605006672
7617,18,Jits_Linear_8,2,5,56,103,1605037396
7617,18,Jits_Linear_8,3,5,80,127,1605096796
7617,18,Jits_Linear_8,0,5,56,103,1605757432
7617,18,Jits_Linear_8,1,5,80,127,1605760496
7617,18,Jits_Linear_8,2,1,48,53,1605788200
7617,18,Jits_Linear_8,3,5,63,98,1605877076
7617,18,Jits_Linear_8,0,1,48,53,1606598140
7617,18,Jits_Linear_8,1,5,56,103,1606636900
7617,18,Jits_Linear_8,2,5,80,127,1606676916
7617,18,Jits_Linear_8,3,5,63,98,1606687560
7617,18,Jits_Linear_8,0,1,48,51,1607371440
7617,18,Jits_Linear_8,1,5,56,103,1607396720
7617,18,Jits_Linear_8,2,5,80,127,1607417328
7617,18,Jits_Linear_8,3,5,63,98,1607497408
7617,18,Jits_Linear_8,0,5,80,127,1608187564
7617,18,Jits_Linear_8,1,1,48,56,1608194128
7617,18,Jits_Linear_8,2,5,56,103,1608286540
7617,18,Jits_Linear_8,3,5,63,98,1608296792
7617,18,Jits_Linear_8,0,5,63,98,1608957368
7617,18,Jits_Linear_8,1,1,48,56,1608997652
7617,18,Jits_Linear_8,2,5,80,127,1609016636
7617,18,Jits_Linear_8,3,5,56,103,1609026832
7617,18,Jits_Linear_8,0,1,48,52,1609679836
7617,18,Jits_Linear_8,1,5,56,103,1609757112
7617,18,Jits_Linear_8,2,5,63,98,1609826632
7617,18,Jits_Linear_8,3,5,80,127,1609830072
7617,18,Jits_Linear_8,0,1,48,53,1610470664
7617,18,Jits_Linear_8,1,5,63,98,1610586440
7617,18,Jits_Linear_8,2,5,56,103,1610636740
7617,18,Jits_Linear_8,3,5,80,127,1610639584
7617,18,Jits_Linear_8,0,1,48,51,1611333560
7617,18,Jits_Linear_8,1,5,56,103,1611337192
7617,18,Jits_Linear_8,2,5,80,127,1611340256
7617,18,Jits_Linear_8,3,5,63,98,1611427272
7617,18,Jits_Linear_8,0,1,48,43,1612118328
7617,18,Jits_Linear_8,1,5,63,98,1612166552
7617,18,Jits_Linear_8,2,5,56,103,1612256600
7617,18,Jits_Linear_8,3,5,80,127,1612287324
7617,18,Jits_Linear_8,0,5,56,103,1612946768
7617,18,Jits_Linear_8,1,1,48,50,1612952052
7617,18,Jits_Linear_8,2,5,63,98,1613047088
7617,18,Jits_Linear_8,3,5,80,127,1613076748
7617,18,Jits_Linear_8,0,1,48,59,1613748680
7617,18,Jits_Linear_8,1,5,63,98,1613756796
7617,18,Jits_Linear_8,2,5,56,103,1613767292
7617,18,Jits_Linear_8,3,5,80,127,1613857260
7617,18,Jits_Linear_8,0,1,48,58,1614545520
7617,18,Jits_Linear_8,1,5,63,98,1614556556
7617,18,Jits_Linear_8,2,1,48,19,1614634792
7617,18,Jits_Linear_8,3,5,56,103,1614637376
7617,18,Jits_Linear_8,4,5,80,127,1614640444
7617,18,Jits_Linear_8,0,5,80,127,1615296940
7617,18,Jits_Linear_8,1,5,63,98,1615317324
7617,18,Jits_Linear_8,2,5,56,103,1615376888
7617,18,Jits_Linear_8,3,1,48,48,1615400312
7617,18,Jits_Linear_8,0,5,56,103,1616117160
7617,18,Jits_Linear_8,1,5,63,98,1616136644
7617,18,Jits_Linear_8,2,5,80,127,1616139936
7617,18,Jits_Linear_8,3,1,48,36,1616173096
7617,18,Jits_Linear_8,0,5,63,98,1616837052
7617,18,Jits_Linear_8,1,5,80,127,1616916776
7617,18,Jits_Linear_8,2,5,56,103,1616927268
7617,18,Jits_Linear_8,3,1,48,45,1616936164
7617,18,Jits_Linear_8,0,5,63,98,1617636656
7617,18,Jits_Linear_8,1,5,56,103,1617657264
7617,18,Jits_Linear_8,2,5,80,127,1617707320
7617,18,Jits_Linear_8,3,1,48,51,1617780032
7617,18,Jits_Linear_8,0,5,80,127,1618417152
7617,18,Jits_Linear_8,1,5,63,98,1618457316
7617,18,Jits_Linear_8,2,5,56,103,1618477404
7617,18,Jits_Linear_8,3,1,48,42,1618512356
7617,18,Jits_Linear_8,0,5,56,103,1619227112
7617,18,Jits_Linear_8,1,5,63,98,1619237084
7617,18,Jits_Linear_8,2,5,80,127,1619256648
7617,18,Jits_Linear_8,3,1,48,51,1619289356
7617,18,Jits_Linear_8,0,5,56,103,1619927384
7617,18,Jits_Linear_8,1,5,63,98,1620016400
7617,18,Jits_Linear_8,2,1,48,45,1620039148
7617,18,Jits_Linear_8,3,5,80,127,1620077228
7617,18,Jits_Linear_8,0,5,80,127,1620727084
7617,18,Jits_Linear_8,1,5,56,103,1620737356
7617,18,Jits_Linear_8,2,5,63,98,1620807032
7617,18,Jits_Linear_8,3,1,48,45,1620826036
7617,18,Jits_Linear_8,0,5,63,98,1621526848
7617,18,Jits_Linear_8,1,1,48,44,1621581732
7617,18,Jits_Linear_8,2,5,80,127,1621617128
7617,18,Jits_Linear_8,3,5,56,103,1621627424
7617,18,Jits_Linear_8,0,5,63,98,1622227336
7617,18,Jits_Linear_8,1,5,80,127,1622276420
7617,18,Jits_Linear_8,2,5,56,103,1622336808
7617,18,Jits_Linear_8,3,1,48,47,1622347272
7617,18,Jits_Linear_8,0,5,56,103,1623016680
7617,18,Jits_Linear_8,1,5,80,127,1623067104
7617,18,Jits_Linear_8,2,5,63,98,1623086592
7617,18,Jits_Linear_8,3,1,48,54,1623135344
7617,18,Jits_Linear_8,0,5,56,103,1623747064
7617,18,Jits_Linear_8,1,5,80,127,1623807308
7617,18,Jits_Linear_8,2,1,48,49,1623813420
7617,18,Jits_Linear_8,3,5,63,98,1623877132
7617,18,Jits_Linear_8,0,5,56,103,1624506900
7617,18,Jits_Linear_8,1,5,80,127,1624536428
7617,18,Jits_Linear_8,2,1,48,62,1624548164
7617,18,Jits_Linear_8,3,5,63,98,1624567144
7617,18,Jits_Linear_8,0,1,48,57,1625271112
7617,18,Jits_Linear_8,1,5,56,103,1625306360
7617,18,Jits_Linear_8,2,5,80,127,1625327116
7617,18,Jits_Linear_8,3,5,63,98,1625387344
7617,18,Jits_Linear_8,0,1,48,61,1626086692
7617,18,Jits_Linear_8,1,5,80,127,1626147324
7617,18,Jits_Linear_8,2,5,56,103,1626157448
7617,18,Jits_Linear_8,3,5,63,98,1626166596
7617,18,Jits_Linear_8,0,5,56,103,1626856956
7617,18,Jits_Linear_8,1,1,48,55,1626879112
7617,18,Jits_Linear_8,2,5,80,127,1626896740
7617,18,Jits_Linear_8,3,5,63,98,1626926492
7617,18,Jits_Linear_8,0,5,56,103,1627576868
7617,18,Jits_Linear_8,1,5,63,98,1627607444
7617,18,Jits_Linear_8,2,1,48,69,1627633784
7617,18,Jits_Linear_8,3,5,80,127,1627647300
7617,18,Jits_Linear_8,0,5,80,127,1628277192
7617,18,Jits_Linear_8,1,5,63,98,1628327320
7617,18,Jits_Linear_8,2,5,56,103,1628346732
7617,18,Jits_Linear_8,3,1,48,53,1628369256
7617,18,Jits_Linear_8,0,5,56,103,1629057256
7617,18,Jits_Linear_8,1,1,48,55,1629111764
7617,18,Jits_Linear_8,2,5,80,127,1629127228
7617,18,Jits_Linear_8,3,5,63,98,1629186352
7617,18,Jits_Linear_8,0,5,80,127,1629796768
7617,18,Jits_Linear_8,1,1,48,56,1629873628
7617,18,Jits_Linear_8,2,5,63,98,1629886924
7617,18,Jits_Linear_8,3,5,56,103,1629907308
7617,18,Jits_Linear_8,0,5,63,98,1630556464
7617,18,Jits_Linear_8,1,5,56,103,1630576996
7617,18,Jits_Linear_8,2,5,80,127,1630616884
7617,18,Jits_Linear_8,3,1,48,61,1630648696
7617,18,Jits_Linear_8,0,5,80,127,1631256944
7617,18,Jits_Linear_8,1,5,63,98,1631277552
7617,18,Jits_Linear_8,2,5,56,103,1631357372
7617,18,Jits_Linear_8,3,1,48,49,1631386488
7617,18,Jits_Linear_8,0,5,63,98,1631986956
7617,18,Jits_Linear_8,1,5,56,103,1632096948
7617,18,Jits_Linear_8,2,5,80,127,1632099716
7617,18,Jits_Linear_8,3,1,48,49,1632117928
7617,18,Jits_Linear_8,0,5,63,98,1632746996
7617,18,Jits_Linear_8,1,5,56,103,1632757044
7617,18,Jits_Linear_8,2,5,80,127,1632760036
7617,18,Jits_Linear_8,3,1,48,49,1632881292
7617,18,Jits_Linear_8,0,5,56,103,1633467168
7617,18,Jits_Linear_8,1,5,80,127,1633586452
7617,18,Jits_Linear_8,2,5,63,98,1633626392
7617,18,Jits_Linear_8,3,1,48,49,1633652204
7617,18,Jits_Linear_8,0,5,56,103,1634217268
7617,18,Jits_Linear_8,1,5,80,127,1634297064
7617,18,Jits_Linear_8,2,5,63,98,1634316848
7617,18,Jits_Linear_8,3,1,48,56,1634371956
7617,18,Jits_Linear_8,0,5,56,103,1634946540
7617,18,Jits_Linear_8,1,1,48,45,1635024948
7617,18,Jits_Linear_8,2,5,63,98,1635056972
7617,18,Jits_Linear_8,3,5,80,127,1635060412
7617,18,Jits_Linear_8,0,5,56,103,1635707200
7617,18,Jits_Linear_8,1,1,48,54,1635731668
7617,18,Jits_Linear_8,2,5,80,127,1635737016
7617,18,Jits_Linear_8,3,5,63,98,1635757404
7617,18,Jits_Linear_8,0,1,48,55,1636406220
7617,18,Jits_Linear_8,1,5,63,98,1636417036
7617,18,Jits_Linear_8,2,5,56,103,1636427080
7617,18,Jits_Linear_8,3,5,80,127,1636437352
7617,18,Jits_Linear_8,0,1,48,54,1637065948
7617,18,Jits_Linear_8,1,5,80,127,1637126728
7617,18,Jits_Linear_8,2,5,56,103,1637176844
7617,18,Jits_Linear_8,3,5,63,98,1637216560
7617,18,Jits_Linear_8,0,1,48,59,1637805840
7617,18,Jits_Linear_8,1,5,80,127,1637867000
7617,18,Jits_Linear_8,2,5,63,98,1637887312
7617,18,Jits_Linear_8,3,5,56,103,1637936676
7617,18,Jits_Linear_8,0,1,48,50,1638533812
7617,18,Jits_Linear_8,1,5,80,127,1638596932
7617,18,Jits_Linear_8,2,5,56,103,1638626756
7617,18,Jits_Linear_8,3,5,63,98,1638697320
7617,18,Jits_Linear_8,0,1,48,56,1639271060
7617,18,Jits_Linear_8,1,5,56,103,1639367092
7617,18,Jits_Linear_8,2,5,80,127,1639377200
7617,18,Jits_Linear_8,3,5,63,98,1639417064
7617,18,Jits_Linear_8,0,5,56,103,1639996760
7617,18,Jits_Linear_8,1,5,63,98,1640017296
7617,18,Jits_Linear_8,2,1,48,59,1640036300
7617,18,Jits_Linear_8,3,5,80,127,1640086920
7617,18,Jits_Linear_8,0,1,48,59,1640725852
7617,18,Jits_Linear_8,1,5,63,98,1640737036
7617,18,Jits_Linear_8,2,5,80,127,1640796680
7617,18,Jits_Linear_8,3,5,56,103,1640816988
7617,18,Jits_Linear_8,0,5,80,127,1641436624
7617,18,Jits_Linear_8,1,1,48,59,1641442364
7617,18,Jits_Linear_8,2,5,56,103,1641467344
7617,18,Jits_Linear_8,3,5,63,98,1641496944
7617,18,Jits_Linear_8,0,1,48,54,1642105548
7617,18,Jits_Linear_8,1,5,56,103,1642147080
7617,18,Jits_Linear_8,2,5,63,98,1642206784
7617,18,Jits_Linear_8,3,5,80,127,1642267024
7617,18,Jits_Linear_8,0,1,48,48,1642829304
7617,18,Jits_Linear_8,1,5,80,127,1642877456
7617,18,Jits_Linear_8,2,5,56,103,1642896720
7617,18,Jits_Linear_8,3,5,63,98,1642967288
7617,18,Jits_Linear_8,0,1,48,47,1643542820
7617,18,Jits_Linear_8,1,5,80,127,1643587056
7617,18,Jits_Linear_8,2,5,63,98,1643607368
7617,18,Jits_Linear_8,3,5,56,103,1643636992
7617,18,Jits_Linear_8,0,1,48,48,1644247432
7617,18,Jits_Linear_8,1,5,80,127,1644277124
7617,18,Jits_Linear_8,2,5,63,98,1644296760
7617,18,Jits_Linear_8,3,5,56,103,1644356912
7617,18,Jits_Linear_8,0,1,48,37,1644941688
7617,18,Jits_Linear_8,1,5,80,127,1644976484
7617,18,Jits_Linear_8,2,5,56,103,1645076944
7617,18,Jits_Linear_8,3,5,63,98,1645106692
7617,18,Jits_Linear_8,0,5,63,98,1645666764
7617,18,Jits_Linear_8,1,1,48,36,1645716992
7617,18,Jits_Linear_8,2,5,80,127,1645718256
7617,18,Jits_Linear_8,3,5,56,103,1645737444
7617,18,Jits_Linear_8,0,1,48,44,1646356800
7617,18,Jits_Linear_8,1,5,80,127,1646407172
7617,18,Jits_Linear_8,2,5,56,103,1646436920
7617,18,Jits_Linear_8,3,5,63,98,1646439988
7617,18,Jits_Linear_8,0,1,48,42,1647076460
7617,18,Jits_Linear_8,1,5,63,98,1647137096
7617,18,Jits_Linear_8,2,5,56,103,1647177172
7617,18,Jits_Linear_8,3,5,80,127,1647196732
7617,18,Jits_Linear_8,0,5,80,127,1647777208
7617,18,Jits_Linear_8,1,1,48,41,1647836672
7617,18,Jits_Linear_8,2,5,63,98,1647857000
7617,18,Jits_Linear_8,3,5,56,103,1647896936
7617,18,Jits_Linear_8,0,5,63,98,1648486904
7617,18,Jits_Linear_8,1,1,48,50,1648513716
7617,18,Jits_Linear_8,2,5,80,127,1648566868
7617,18,Jits_Linear_8,3,5,56,103,1648587252
7617,18,Jits_Linear_8,0,5,56,103,1649216840
7617,18,Jits_Linear_8,1,1,48,50,1649218476
7617,18,Jits_Linear_8,2,5,63,98,1649227104
7617,18,Jits_Linear_8,3,5,80,127,1649266968
7617,18,Jits_Linear_8,0,5,56,103,1649827132
7617,18,Jits_Linear_8,1,5,80,127,1649830272
7617,18,Jits_Linear_8,2,1,48,50,1649892348
7617,18,Jits_Linear_8,3,5,63,98,1649966480
7617,18,Jits_Linear_8,0,5,56,103,1650506996
7617,18,Jits_Linear_8,1,1,48,41,1650579892
7617,18,Jits_Linear_8,2,5,63,98,1650597224
7617,18,Jits_Linear_8,3,5,80,127,1650666832
7617,18,Jits_Linear_8,0,1,48,41,1651265008
7617,18,Jits_Linear_8,1,5,63,98,1651266824
7617,18,Jits_Linear_8,2,5,80,127,1651270120
7617,18,Jits_Linear_8,3,5,56,103,1651327320
7617,18,Jits_Linear_8,0,1,48,48,1651936572
7617,18,Jits_Linear_8,1,5,80,127,1651986796
7617,18,Jits_Linear_8,2,5,56,103,1652007252
7617,18,Jits_Linear_8,3,5,63,98,1652016628
7617,18,Jits_Linear_8,0,5,56,103,1652576828
7617,18,Jits_Linear_8,1,5,63,98,1652586804
7617,18,Jits_Linear_8,2,1,48,44,1652622384
7617,18,Jits_Linear_8,3,5,80,127,1652656576
7617,18,Jits_Linear_8,0,1,48,43,1653253464
7617,18,Jits_Linear_8,1,5,80,127,1653256716
7617,18,Jits_Linear_8,2,5,56,103,1653306700
7617,18,Jits_Linear_8,3,5,63,98,1653356884
7617,18,Jits_Linear_8,0,1,48,42,1653939568
7617,18,Jits_Linear_8,1,5,56,103,1654017592
7617,18,Jits_Linear_8,2,5,63,98,1654026596
7617,18,Jits_Linear_8,3,5,80,127,1654066740
7617,18,Jits_Linear_8,0,1,48,44,1654626112
7617,18,Jits_Linear_8,1,5,56,103,1654636848
7617,18,Jits_Linear_8,2,5,63,98,1654676888
7617,18,Jits_Linear_8,3,5,80,127,1654727148
7617,18,Jits_Linear_8,0,1,48,43,1655228148
7617,18,Jits_Linear_8,1,5,80,127,1655266836
7617,18,Jits_Linear_8,2,5,56,103,1655316740
7617,18,Jits_Linear_8,3,5,63,98,1655337484
7617,18,Jits_Linear_8,0,1,48,42,1655857652
7617,18,Jits_Linear_8,1,5,80,127,1655946712
7617,18,Jits_Linear_8,2,5,63,98,1656007092
7617,18,Jits_Linear_8,3,5,56,103,1656086960
7617,18,Jits_Linear_8,0,5,80,127,1656596760
7617,18,Jits_Linear_8,1,5,56,103,1656636704
7617,18,Jits_Linear_8,2,1,48,39,1656648288
7617,18,Jits_Linear_8,3,5,63,98,1656657452
7617,18,Jits_Linear_8,0,1,48,45,1657231808
7617,18,Jits_Linear_8,1,5,56,103,1657316804
7617,18,Jits_Linear_8,2,5,80,127,1657327076
7617,18,Jits_Linear_8,3,5,63,98,1657366924
7617,18,Jits_Linear_8,0,1,48,40,1657936256
7617,18,Jits_Linear_8,1,5,56,103,1658046952
7617,18,Jits_Linear_8,2,5,63,98,1658086660
7617,18,Jits_Linear_8,3,5,80,127,1658090252
7617,18,Jits_Linear_8,0,1,48,42,1658592380
7617,18,Jits_Linear_8,1,5,63,98,1658596684
7617,18,Jits_Linear_8,2,5,80,127,1658636696
7617,18,Jits_Linear_8,3,5,56,103,1658707484
7617,18,Jits_Linear_8,0,5,63,98,1659246952
7617,18,Jits_Linear_8,1,1,48,39,1659276552
7617,18,Jits_Linear_8,2,5,56,103,1659326768
7617,18,Jits_Linear_8,3,5,80,127,1659387220
7617,18,Jits_Linear_8,0,5,80,127,1659916796
7617,18,Jits_Linear_8,1,1,48,38,1659921936
7617,18,Jits_Linear_8,2,5,63,98,1659966696
7617,18,Jits_Linear_8,3,5,56,103,1659996668
7617,18,Jits_Linear_8,0,1,48,45,1660541512
7617,18,Jits_Linear_8,1,5,56,103,1660566944
7617,18,Jits_Linear_8,2,5,63,98,1660616996
7617,18,Jits_Linear_8,3,5,80,127,1660627268
7617,18,Jits_Linear_8,0,1,48,49,1661141344
7617,18,Jits_Linear_8,1,5,56,103,1661236680
7617,18,Jits_Linear_8,2,5,63,98,1661347132
7617,18,Jits_Linear_8,3,5,80,127,1661366620
7617,18,Jits_Linear_8,0,5,63,98,1661886832
7617,18,Jits_Linear_8,1,1,48,53,1661911524
7617,18,Jits_Linear_8,2,5,80,127,1661937100
7617,18,Jits_Linear_8,3,5,56,103,1662027220
7617,18,Jits_Linear_8,0,1,48,49,1662518708
7617,18,Jits_Linear_8,1,5,63,98,1662526828
7617,18,Jits_Linear_8,2,5,80,127,1662556504
7617,18,Jits_Linear_8,3,5,56,103,1662646568
7617,18,Jits_Linear_8,0,1,48,56,1663094360
7617,18,Jits_Linear_8,1,5,63,98,1663176964
7617,18,Jits_Linear_8,2,5,56,103,1663187456
7617,18,Jits_Linear_8,3,5,80,127,1663286492
7617,18,Jits_Linear_8,0,1,48,53,1663690456
7617,18,Jits_Linear_8,1,5,63,98,1663926588
7617,18,Jits_Linear_8,2,5,80,127,1663957312
7617,18,Jits_Linear_8,3,5,56,103,1663986988
7617,18,Jits_Linear_8,0,5,80,127,1664587224
7617,18,Jits_Linear_8,1,1,48,42,1664589740
7617,18,Jits_Linear_8,2,5,63,98,1664597560
7617,18,Jits_Linear_8,3,5,56,103,1664627236
7617,18,Jits_Linear_8,0,5,80,127,1665126752
7617,18,Jits_Linear_8,1,5,63,98,1665147460
7617,18,Jits_Linear_8,2,5,56,103,1665197436
7617,18,Jits_Linear_8,3,1,48,51,1665254040
7617,18,Jits_Linear_8,0,5,63,98,1665796384
7617,18,Jits_Linear_8,1,1,48,45,1665817936
7617,18,Jits_Linear_8,2,5,80,127,1665856916
7617,18,Jits_Linear_8,3,5,56,103,1665877448
7617,18,Jits_Linear_8,0,5,63,98,1666396600
7617,18,Jits_Linear_8,1,1,48,44,1666436240
7617,18,Jits_Linear_8,2,5,56,103,1666446748
7617,18,Jits_Linear_8,3,5,80,127,1666456944
7617,18,Jits_Linear_8,0,1,48,39,1667044540
7617,18,Jits_Linear_8,1,5,56,103,1667067184
7617,18,Jits_Linear_8,2,5,80,127,1667076408
7617,18,Jits_Linear_8,3,5,63,98,1667176788
7617,18,Jits_Linear_8,0,5,80,127,1667667556
7617,18,Jits_Linear_8,1,5,63,98,1667676408
7617,18,Jits_Linear_8,2,1,48,42,1667688596
7617,18,Jits_Linear_8,3,5,56,103,1667827000
7617,18,Jits_Linear_8,0,5,63,98,1668307520
7617,18,Jits_Linear_8,1,1,48,51,1668337696
7617,18,Jits_Linear_8,2,5,80,127,1668347380
7617,18,Jits_Linear_8,3,5,56,103,1668427396
7617,18,Jits_Linear_8,0,5,56,103,1668926844
7617,18,Jits_Linear_8,1,1,48,39,1669001388
7617,18,Jits_Linear_8,2,5,80,127,1669027264
7617,18,Jits_Linear_8,3,5,63,98,1669046604
7617,18,Jits_Linear_8,0,5,80,127,1669616864
7617,18,Jits_Linear_8,1,5,56,103,1669627504
7617,18,Jits_Linear_8,2,1,48,37,1669649132
7617,18,Jits_Linear_8,3,5,63,98,1669717336
7617,18,Jits_Linear_8,0,5,56,103,1670246816
7617,18,Jits_Linear_8,1,5,63,98,1670267228
7617,18,Jits_Linear_8,2,1,48,37,1670293568
7617,18,Jits_Linear_8,3,5,80,127,1670347236
7617,18,Jits_Linear_8,0,5,63,98,1670817256
7617,18,Jits_Linear_8,1,1,48,40,1670889976
7617,18,Jits_Linear_8,2,5,56,103,1670907384
7617,18,Jits_Linear_8,3,5,80,127,1670910448
7617,18,Jits_Linear_8,0,5,56,103,1671467292
7617,18,Jits_Linear_8,1,5,80,127,1671526784
7617,18,Jits_Linear_8,2,1,48,43,1671528872
7617,18,Jits_Linear_8,3,5,63,98,1671536976
7617,18,Jits_Linear_8,0,1,48,42,1672129604
7617,18,Jits_Linear_8,1,5,80,127,1672137196
7617,18,Jits_Linear_8,2,5,56,103,1672147316
7617,18,Jits_Linear_8,3,5,63,98,1672150308
7617,18,Jits_Linear_8,0,5,56,103,1672716512
7617,18,Jits_Linear_8,1,5,80,127,1672726784
7617,18,Jits_Linear_8,2,5,63,98,1672747392
7617,18,Jits_Linear_8,3,1,48,40,1672757032
7617,18,Jits_Linear_8,0,5,63,98,1673306624
7617,18,Jits_Linear_8,1,1,48,38,1673330272
7617,18,Jits_Linear_8,2,5,80,127,1673366816
7617,18,Jits_Linear_8,3,5,56,103,1673417164
7617,18,Jits_Linear_8,0,1,48,38,1673939724
7617,18,Jits_Linear_8,1,5,63,98,1674006816
7617,18,Jits_Linear_8,2,5,56,103,1674017232
7617,18,Jits_Linear_8,3,5,80,127,1674067344
7617,18,Jits_Linear_8,0,5,63,98,1674516912
7617,18,Jits_Linear_8,1,5,80,127,1674537448
7617,18,Jits_Linear_8,2,5,56,103,1674546448
7617,18,Jits_Linear_8,3,1,48,40,1674560200
7617,18,Jits_Linear_8,0,1,48,45,1675063132
7617,18,Jits_Linear_8,1,5,63,98,1675127324
7617,18,Jits_Linear_8,2,5,80,127,1675130616
7617,18,Jits_Linear_8,3,5,56,103,1675167100
7617,18,Jits_Linear_8,0,1,48,40,1675653768
7617,18,Jits_Linear_8,1,5,63,98,1675807308
7617,18,Jits_Linear_8,2,5,80,127,1675836760
7617,18,Jits_Linear_8,3,5,56,103,1675847104
7617,18,Jits_Linear_8,0,1,48,37,1676360684
7617,18,Jits_Linear_8,1,5,56,103,1676367384
7617,18,Jits_Linear_8,2,5,80,127,1676396912
7617,18,Jits_Linear_8,3,5,63,98,1676426612
7617,18,Jits_Linear_8,0,1,48,41,1676988584
7617,18,Jits_Linear_8,1,5,63,98,1677066604
7617,18,Jits_Linear_8,2,5,56,103,1677106528
7617,18,Jits_Linear_8,3,5,80,127,1677109520
7617,18,Jits_Linear_8,0,5,80,127,1677567480
7617,18,Jits_Linear_8,1,5,56,103,1677647204
7617,18,Jits_Linear_8,2,1,48,35,1677667256
7617,18,Jits_Linear_8,3,5,63,98,1677697424
7617,18,Jits_Linear_8,0,5,80,127,1678147040
7617,18,Jits_Linear_8,1,5,56,103,1678167352
7617,18,Jits_Linear_8,2,5,63,98,1678256460
7617,18,Jits_Linear_8,3,1,48,37,1678282124
7617,18,Jits_Linear_8,0,5,80,127,1678787072
7617,18,Jits_Linear_8,1,5,63,98,1678827164
7617,18,Jits_Linear_8,2,1,48,41,1678835016
7617,18,Jits_Linear_8,3,5,56,103,1678866796
7617,18,Jits_Linear_8,0,5,63,98,1679357188
7617,18,Jits_Linear_8,1,1,48,31,1679408932
7617,18,Jits_Linear_8,2,5,80,127,1679416748
7617,18,Jits_Linear_8,3,5,56,103,1679447400
7617,18,Jits_Linear_8,0,5,56,103,1679957400
7617,18,Jits_Linear_8,1,1,48,44,1679970108
7617,18,Jits_Linear_8,2,5,80,127,1679987096
7617,18,Jits_Linear_8,3,5,63,98,1680077284
7617,18,Jits_Linear_8,0,1,48,50,1680557284
7617,18,Jits_Linear_8,1,5,56,103,1680558548
7617,18,Jits_Linear_8,2,5,80,127,1680667100
7617,18,Jits_Linear_8,3,5,63,98,1680696628
7617,18,Jits_Linear_8,0,5,56,103,1681197288
7617,18,Jits_Linear_8,1,1,48,38,1681221012
7617,18,Jits_Linear_8,2,5,63,98,1681256776
7617,18,Jits_Linear_8,3,5,80,127,1681286404
7617,18,Jits_Linear_8,0,5,56,103,1681756620
7617,18,Jits_Linear_8,1,5,63,98,1681827376
7617,18,Jits_Linear_8,2,1,48,50,1681835300
7617,18,Jits_Linear_8,3,5,80,127,1681846560
7617,18,Jits_Linear_8,0,5,80,127,1682316648
7617,18,Jits_Linear_8,1,5,63,98,1682337108
7617,18,Jits_Linear_8,2,1,48,50,1682380680
7617,18,Jits_Linear_8,3,5,56,103,1682387304
7617,18,Jits_Linear_8,0,5,63,98,1682916580
7617,18,Jits_Linear_8,1,5,80,127,1682927072
7617,18,Jits_Linear_8,2,1,48,27,1682934456
7617,18,Jits_Linear_8,3,5,56,103,1682977120
7617,18,Jits_Linear_8,0,1,48,42,1683487844
7617,18,Jits_Linear_8,1,5,63,98,1683497308
7617,18,Jits_Linear_8,2,5,80,127,1683567140
7617,18,Jits_Linear_8,3,5,56,103,1683586280
7617,18,Jits_Linear_8,0,1,48,42,1684003756
7617,18,Jits_Linear_8,1,5,63,98,1684106600
7617,18,Jits_Linear_8,2,5,80,127,1684110112
7617,18,Jits_Linear_8,3,5,56,103,1684177252
7617,18,Jits_Linear_8,0,1,48,37,1684611120
7617,18,Jits_Linear_8,1,5,80,127,1684637144
7617,18,Jits_Linear_8,2,5,56,103,1684656560
7617,18,Jits_Linear_8,3,5,63,98,1684666828
7617,18,Jits_Linear_8,0,1,48,29,1685169072
7617,18,Jits_Linear_8,1,5,56,103,1685237056
7617,18,Jits_Linear_8,2,5,63,98,1685327176
7617,18,Jits_Linear_8,3,5,80,127,1685330468
7617,18,Jits_Linear_8,0,1,48,44,1685772500
7617,18,Jits_Linear_8,1,5,80,127,1685787068
7617,18,Jits_Linear_8,2,5,56,103,1685797188
7617,18,Jits_Linear_8,3,5,63,98,1685816676
7617,18,Jits_Linear_8,0,1,48,41,1686344088
7617,18,Jits_Linear_8,1,5,63,98,1686357308
7617,18,Jits_Linear_8,2,5,80,127,1686416756
7617,18,Jits_Linear_8,3,5,56,103,1686427028
7617,18,Jits_Linear_8,0,1,48,45,1686931524
7617,18,Jits_Linear_8,1,5,63,98,1686997336
7617,18,Jits_Linear_8,2,5,80,127,1687027148
7617,18,Jits_Linear_8,3,5,56,103,1687066936
7617,18,Jits_Linear_8,0,1,48,31,1687507772
7617,18,Jits_Linear_8,1,5,56,103,1687556352
7617,18,Jits_Linear_8,2,5,80,127,1687566848
7617,18,Jits_Linear_8,3,5,63,98,1687607448
7617,18,Jits_Linear_8,0,5,80,127,1688087124
7617,18,Jits_Linear_8,1,1,48,26,1688088092
7617,18,Jits_Linear_8,2,5,56,103,1688166840
7617,18,Jits_Linear_8,3,5,63,98,1688176964
7617,18,Jits_Linear_8,0,5,80,127,1688697168
7617,18,Jits_Linear_8,1,1,48,30,1688708832
7617,18,Jits_Linear_8,2,5,56,103,1688777188
7617,18,Jits_Linear_8,3,5,63,98,1688787308
7617,18,Jits_Linear_8,0,5,80,127,1689217324
7617,18,Jits_Linear_8,1,5,56,103,1689266552
7617,18,Jits_Linear_8,2,1,48,27,1689300980
7617,18,Jits_Linear_8,3,5,63,98,1689316748
7617,18,Jits_Linear_8,0,5,56,103,1689837264
7617,18,Jits_Linear_8,1,5,63,98,1689840248
7617,18,Jits_Linear_8,2,1,48,24,1689843144
7617,18,Jits_Linear_8,3,5,80,127,1689887228
7617,18,Jits_Linear_8,0,1,48,21,1690411380
7617,18,Jits_Linear_8,1,5,56,103,1690416508
7617,18,Jits_Linear_8,2,5,63,98,1690447080
7617,18,Jits_Linear_8,3,5,80,127,1690456528
7617,18,Jits_Linear_8,0,5,63,98,1690886524
7617,18,Jits_Linear_8,1,5,56,103,1690957104
7617,18,Jits_Linear_8,2,1,48,20,1690966672
7617,18,Jits_Linear_8,3,5,80,127,1691007400
7617,18,Jits_Linear_8,0,5,63,98,1691477304
7617,18,Jits_Linear_8,1,5,56,103,1691486444
7617,18,Jits_Linear_8,2,5,80,127,1691489592
7617,18,Jits_Linear_8,3,1,48,17,1691519112
7617,18,Jits_Linear_8,0,5,80,127,1691977040
7617,18,Jits_Linear_8,1,5,56,103,1692036488
7617,18,Jits_Linear_8,2,1,48,26,1692041024
7617,18,Jits_Linear_8,3,5,63,98,1692126536
7617,18,Jits_Linear_8,0,5,80,127,1692527152
7617,18,Jits_Linear_8,1,1,48,24,1692578324
7617,18,Jits_Linear_8,2,5,56,103,1692627420
7617,18,Jits_Linear_8,3,5,63,98,1692667136
7617,18,Jits_Linear_8,0,5,56,103,1693126968
7617,18,Jits_Linear_8,1,5,63,98,1693146604
7617,18,Jits_Linear_8,2,1,48,48,1693159912
7617,18,Jits_Linear_8,3,5,80,127,1693186388
7617,18,Jits_Linear_8,0,5,63,98,1693647188
7617,18,Jits_Linear_8,1,5,56,103,1693666824
7617,18,Jits_Linear_8,2,5,80,127,1693767144
7617,18,Jits_Linear_8,3,1,48,29,1693775068
7617,18,Jits_Linear_8,0,5,63,98,1694176684
7617,18,Jits_Linear_8,1,5,80,127,1694287196
7617,18,Jits_Linear_8,2,5,56,103,1694317020
7617,18,Jits_Linear_8,3,1,48,42,1694326988
7617,18,Jits_Linear_8,0,5,56,103,1694736968
7617,18,Jits_Linear_8,1,5,63,98,1694766348
7617,18,Jits_Linear_8,2,5,80,127,1694816700
7617,18,Jits_Linear_8,3,1,48,27,1694885624
7617,18,Jits_Linear_8,0,5,63,98,1695246920
7617,18,Jits_Linear_8,1,5,56,103,1695277348
7617,18,Jits_Linear_8,2,5,80,127,1695326648
7617,18,Jits_Linear_8,3,1,48,40,1695436548
7617,18,Jits_Linear_8,0,5,56,103,1695817012
7617,18,Jits_Linear_8,1,5,63,98,1695836500
7617,18,Jits_Linear_8,2,1,48,47,1695861292
7617,18,Jits_Linear_8,3,5,80,127,1695917360
7617,18,Jits_Linear_8,0,5,63,98,1696326964
7617,18,Jits_Linear_8,1,5,56,103,1696386484
7617,18,Jits_Linear_8,2,5,80,127,1696417060
7617,18,Jits_Linear_8,3,1,48,43,1696423840
7617,18,Jits_Linear_8,0,5,56,103,1696906976
7617,18,Jits_Linear_8,1,1,48,35,1696939468
7617,18,Jits_Linear_8,2,5,80,127,1696967216
7617,18,Jits_Linear_8,3,5,63,98,1697006928
7617,18,Jits_Linear_8,0,5,63,98,1697416412
7617,18,Jits_Linear_8,1,5,56,103,1697477028
7617,18,Jits_Linear_8,2,1,48,40,1697499780
7617,18,Jits_Linear_8,3,5,80,127,1697546704
7617,18,Jits_Linear_8,0,5,56,103,1698026976
7617,18,Jits_Linear_8,1,5,63,98,1698037248
7617,18,Jits_Linear_8,2,5,80,127,1698040612
7617,18,Jits_Linear_8,3,1,48,39,1698050924
7617,18,Jits_Linear_8,0,5,63,98,1698496992
7617,18,Jits_Linear_8,1,1,48,33,1698554424
7617,18,Jits_Linear_8,2,5,56,103,1698557228
7617,18,Jits_Linear_8,3,5,80,127,1698560372
7617,18,Jits_Linear_8,0,5,63,98,1699006928
7617,18,Jits_Linear_8,1,5,80,127,1699036456
7617,18,Jits_Linear_8,2,5,56,103,1699057064
7617,18,Jits_Linear_8,3,1,48,37,1699080180
7617,18,Jits_Linear_8,0,5,56,103,1699537244
7617,18,Jits_Linear_8,1,5,63,98,1699586328
7617,18,Jits_Linear_8,2,1,48,24,1699630576
7617,18,Jits_Linear_8,3,5,80,127,1699667312
7617,18,Jits_Linear_8,0,5,80,127,1700036940
7617,18,Jits_Linear_8,1,5,63,98,1700076880
7617,18,Jits_Linear_8,2,5,56,103,1700097340
7617,18,Jits_Linear_8,3,1,48,45,1700163904
7617,18,Jits_Linear_8,0,5,56,103,1700626832
7617,18,Jits_Linear_8,1,5,80,127,1700637100
7617,18,Jits_Linear_8,2,5,63,98,1700656364
7617,18,Jits_Linear_8,3,1,48,38,1700827244
7617,18,Jits_Linear_8,0,5,56,103,1701126376
7617,18,Jits_Linear_8,1,5,63,98,1701176800
7617,18,Jits_Linear_8,2,5,80,127,1701207376
7617,18,Jits_Linear_8,3,1,48,41,1701250896
7617,18,Jits_Linear_8,0,5,56,103,1701596696
7617,18,Jits_Linear_8,1,5,63,98,1701607188
7617,18,Jits_Linear_8,2,5,80,127,1701656944
7617,18,Jits_Linear_8,3,1,48,36,1701719324
7617,18,Jits_Linear_8,0,5,56,103,1702106420
7617,18,Jits_Linear_8,1,5,80,127,1702109784
7617,18,Jits_Linear_8,2,1,48,39,1702134328
7617,18,Jits_Linear_8,3,5,63,98,1702267200
7617,18,Jits_Linear_8,0,1,48,40,1702616336
7617,18,Jits_Linear_8,1,5,63,98,1702636888
7617,18,Jits_Linear_8,2,5,56,103,1702706496
7617,18,Jits_Linear_8,3,5,80,127,1702746420
7617,18,Jits_Linear_8,0,1,48,42,1703143800
7617,18,Jits_Linear_8,1,5,63,98,1703186840
7617,18,Jits_Linear_8,2,5,56,103,1703277032
7617,18,Jits_Linear_8,3,5,80,127,1703280024
7617,18,Jits_Linear_8,0,5,56,103,1703677452
7617,18,Jits_Linear_8,1,1,48,51,1703712408
7617,18,Jits_Linear_8,2,5,63,98,1703767364
7617,18,Jits_Linear_8,3,5,80,127,1703776732
7617,18,Jits_Linear_8,0,5,56,103,1704156920
7617,18,Jits_Linear_8,1,5,63,98,1704206604
7617,18,Jits_Linear_8,2,5,80,127,1704237328
7617,18,Jits_Linear_8,3,1,48,52,1704260000
7617,18,Jits_Linear_8,0,5,63,98,1704737080
7617,18,Jits_Linear_8,1,5,80,127,1704747276
7617,18,Jits_Linear_8,2,1,48,47,1704785388
7617,18,Jits_Linear_8,3,5,56,103,1704806760
7617,18,Jits_Linear_8,0,5,63,98,1705156964
7617,18,Jits_Linear_8,1,5,80,127,1705217508
7617,18,Jits_Linear_8,2,5,56,103,1705257224
7617,18,Jits_Linear_8,3,1,48,51,1705301764
7617,18,Jits_Linear_8,0,5,56,103,1705757036
7617,18,Jits_Linear_8,1,5,80,127,1705776676
7617,18,Jits_Linear_8,2,5,63,98,1705797060
7617,18,Jits_Linear_8,3,1,48,41,1705839136
7617,18,Jits_Linear_8,0,5,63,98,1706176944
7617,18,Jits_Linear_8,1,5,56,103,1706197552
7617,18,Jits_Linear_8,2,5,80,127,1706237192
7617,18,Jits_Linear_8,3,1,48,33,1706379076
7617,18,Jits_Linear_8,0,5,63,98,1706686792
7617,18,Jits_Linear_8,1,5,80,127,1706716540
7617,18,Jits_Linear_8,2,5,56,103,1706737000
7617,18,Jits_Linear_8,3,1,48,38,1706917320
7617,18,Jits_Linear_8,0,5,80,127,1707156796
7617,18,Jits_Linear_8,1,5,56,103,1707207076
7617,18,Jits_Linear_8,2,5,63,98,1707266344
7617,18,Jits_Linear_8,3,1,48,43,1707418720
7617,18,Jits_Linear_8,0,5,63,98,1707637160
7617,18,Jits_Linear_8,1,5,56,103,1707756892
7617,18,Jits_Linear_8,2,5,80,127,1707786864
7617,18,Jits_Linear_8,0,1,48,43,1708036420
7617,18,Jits_Linear_8,1,5,80,127,1708166968
7617,18,Jits_Linear_8,2,5,63,98,1708186980
7617,18,Jits_Linear_8,3,5,56,103,1708256736
7617,18,Jits_Linear_8,0,1,48,40,1708558868
7617,18,Jits_Linear_8,1,5,63,98,1708676908
7617,18,Jits_Linear_8,2,5,56,103,1708686808
7617,18,Jits_Linear_8,3,5,80,127,1708766528
7617,18,Jits_Linear_8,0,1,48,45,1709122828
7617,18,Jits_Linear_8,1,5,56,103,1709227392
7617,18,Jits_Linear_8,2,5,80,127,1709257216
7617,18,Jits_Linear_8,3,5,63,98,1709267412
7617,18,Jits_Linear_8,0,9999,9999,9999,1598894176
7617,18,Jits_Linear_8,1,9999,9999,9999,1599714388
7617,18,Jits_Linear_8,2,9999,9999,9999,1600534592
7617,18,Jits_Linear_8,3,9999,9999,9999,1601354872
7617,18,Jits_Linear_8,4,9999,9999,9999,1602175096
7617,18,Jits_Linear_8,5,9999,9999,9999,1602985044
7617,18,Jits_Linear_8,6,9999,9999,9999,1603795056
7617,18,Jits_Linear_8,7,9999,9999,9999,1604605000
7617,18,Jits_Linear_8,8,9999,9999,9999,1605415020
7617,18,Jits_Linear_8,9,9999,9999,9999,1606224952
7617,18,Jits_Linear_8,10,9999,9999,9999,1607024728
7617,18,Jits_Linear_8,11,9999,9999,9999,1607824500
7617,18,Jits_Linear_8,12,9999,9999,9999,1608624184
7617,18,Jits_Linear_8,13,9999,9999,9999,1609424996
7617,18,Jits_Linear_8,14,9999,9999,9999,1610224740
7617,18,Jits_Linear_8,15,9999,9999,9999,1611014220
7617,18,Jits_Linear_8,16,9999,9999,9999,1611804740
7617,18,Jits_Linear_8,17,9999,9999,9999,1612594236
7617,18,Jits_Linear_8,18,9999,9999,9999,1613384780
7617,18,Jits_Linear_8,19,9999,9999,9999,1614174288
7617,18,Jits_Linear_8,20,9999,9999,9999,1614954612
7617,18,Jits_Linear_8,21,9999,9999,9999,1615734896
7617,18,Jits_Linear_8,22,9999,9999,9999,1616514132
7617,18,Jits_Linear_8,23,9999,9999,9999,1617294420
7617,18,Jits_Linear_8,24,9999,9999,9999,1618074692
7617,18,Jits_Linear_8,25,9999,9999,9999,1618844776
7617,18,Jits_Linear_8,26,9999,9999,9999,1619614804
7617,18,Jits_Linear_8,27,9999,9999,9999,1620384828
7617,18,Jits_Linear_8,28,9999,9999,9999,1621154924
7617,18,Jits_Linear_8,29,9999,9999,9999,1621924956
7617,18,Jits_Linear_8,30,9999,9999,9999,1622684776
7617,18,Jits_Linear_8,31,9999,9999,9999,1623444596
7617,18,Jits_Linear_8,32,9999,9999,9999,1624204356
7617,18,Jits_Linear_8,33,9999,9999,9999,1624964188
7617,18,Jits_Linear_8,34,9999,9999,9999,1625724996
7617,18,Jits_Linear_8,35,9999,9999,9999,1626474616
7617,18,Jits_Linear_8,36,9999,9999,9999,1627224176
7617,18,Jits_Linear_8,37,9999,9999,9999,1627974724
7617,18,Jits_Linear_8,38,9999,9999,9999,1628724340
7617,18,Jits_Linear_8,39,9999,9999,9999,1629474892
7617,18,Jits_Linear_8,40,9999,9999,9999,1630214208
7617,18,Jits_Linear_8,41,9999,9999,9999,1630954564
7617,18,Jits_Linear_8,42,9999,9999,9999,1631694904
7617,18,Jits_Linear_8,43,9999,9999,9999,1632434280
7617,18,Jits_Linear_8,44,9999,9999,9999,1633174604
7617,18,Jits_Linear_8,45,9999,9999,9999,1633904736
7617,18,Jits_Linear_8,46,9999,9999,9999,1634634828
7617,18,Jits_Linear_8,47,9999,9999,9999,1635364920
7617,18,Jits_Linear_8,48,9999,9999,9999,1636095092
7617,18,Jits_Linear_8,49,9999,9999,9999,1636824132
7617,18,Jits_Linear_8,50,9999,9999,9999,1637545072
7617,18,Jits_Linear_8,51,9999,9999,9999,1638264892
7617,18,Jits_Linear_8,52,9999,9999,9999,1638984760
7617,18,Jits_Linear_8,53,9999,9999,9999,1639704648
7617,18,Jits_Linear_8,54,9999,9999,9999,1640424532
7617,18,Jits_Linear_8,55,9999,9999,9999,1641134176
7617,18,Jits_Linear_8,56,9999,9999,9999,1641844844
7617,18,Jits_Linear_8,57,9999,9999,9999,1642554460
7617,18,Jits_Linear_8,58,9999,9999,9999,1643264084
7617,18,Jits_Linear_8,59,9999,9999,9999,1643974756
7617,18,Jits_Linear_8,60,9999,9999,9999,1644674116
7617,18,Jits_Linear_8,61,9999,9999,9999,1645374576
7617,18,Jits_Linear_8,62,9999,9999,9999,1646074984
7617,18,Jits_Linear_8,63,9999,9999,9999,1646774336
7617,18,Jits_Linear_8,64,9999,9999,9999,1647474804
7617,18,Jits_Linear_8,65,9999,9999,9999,1648164952
7617,18,Jits_Linear_8,66,9999,9999,9999,1648854076
7617,18,Jits_Linear_8,67,9999,9999,9999,1649544300
7617,18,Jits_Linear_8,68,9999,9999,9999,1650234424
7617,18,Jits_Linear_8,69,9999,9999,9999,1650924660
7617,18,Jits_Linear_8,70,9999,9999,9999,1651604556
7617,18,Jits_Linear_8,71,9999,9999,9999,1652284492
7617,18,Jits_Linear_8,72,9999,9999,9999,1652964448
7617,18,Jits_Linear_8,73,9999,9999,9999,1653644348
7617,18,Jits_Linear_8,74,9999,9999,9999,1654324288
7617,18,Jits_Linear_8,75,9999,9999,9999,1654995032
7617,18,Jits_Linear_8,76,9999,9999,9999,1655664700
7617,18,Jits_Linear_8,77,9999,9999,9999,1656334392
7617,18,Jits_Linear_8,78,9999,9999,9999,1657004156
7617,18,Jits_Linear_8,79,9999,9999,9999,1657674812
7617,18,Jits_Linear_8,80,9999,9999,9999,1658334320
7617,18,Jits_Linear_8,81,9999,9999,9999,1658994772
7617,18,Jits_Linear_8,82,9999,9999,9999,1659654204
7617,18,Jits_Linear_8,83,9999,9999,9999,1660314680
7617,18,Jits_Linear_8,84,9999,9999,9999,1660974168
7617,18,Jits_Linear_8,85,9999,9999,9999,1661624388
7617,18,Jits_Linear_8,86,9999,9999,9999,1662274652
7617,18,Jits_Linear_8,87,9999,9999,9999,1662924864
7617,18,Jits_Linear_8,88,9999,9999,9999,1663574080
7617,18,Jits_Linear_8,89,9999,9999,9999,1664224380
7617,18,Jits_Linear_8,90,9999,9999,9999,1664864368
7617,18,Jits_Linear_8,91,9999,9999,9999,1665504332
7617,18,Jits_Linear_8,92,9999,9999,9999,1666144348
7617,18,Jits_Linear_8,93,9999,9999,9999,1666784368
7617,18,Jits_Linear_8,94,9999,9999,9999,1667424368
7617,18,Jits_Linear_8,95,9999,9999,9999,1668054132
7617,18,Jits_Linear_8,96,9999,9999,9999,1668684856
7617,18,Jits_Linear_8,97,9999,9999,9999,1669314620
7617,18,Jits_Linear_8,98,9999,9999,9999,1669944424
7617,18,Jits_Linear_8,99,9999,9999,9999,1670574204
7617,18,Jits_Linear_8,100,9999,9999,9999,1671194728
7617,18,Jits_Linear_8,101,9999,9999,9999,1671814208
7617,18,Jits_Linear_8,102,9999,9999,9999,1672434812
7617,18,Jits_Linear_8,103,9999,9999,9999,1673054284
7617,18,Jits_Linear_8,104,9999,9999,9999,1673674844
7617,18,Jits_Linear_8,105,9999,9999,9999,1674284140
7617,18,Jits_Linear_8,106,9999,9999,9999,1674894416
7617,18,Jits_Linear_8,107,9999,9999,9999,1675504728
7617,18,Jits_Linear_8,108,9999,9999,9999,1676115064
7617,18,Jits_Linear_8,109,9999,9999,9999,1676724296
7617,18,Jits_Linear_8,110,9999,9999,9999,1677324368
7617,18,Jits_Linear_8,111,9999,9999,9999,1677924440
7617,18,Jits_Linear_8,112,9999,9999,9999,1678524472
7617,18,Jits_Linear_8,113,9999,9999,9999,1679124552
7617,18,Jits_Linear_8,114,9999,9999,9999,1679724632
7617,18,Jits_Linear_8,115,9999,9999,9999,1680314456
7617,18,Jits_Linear_8,116,9999,9999,9999,1680904280
7617,18,Jits_Linear_8,117,9999,9999,9999,1681494092
7617,18,Jits_Linear_8,118,9999,9999,9999,1682084984
7617,18,Jits_Linear_8,119,9999,9999,9999,1682674796
7617,18,Jits_Linear_8,120,9999,9999,9999,1683254352
7617,18,Jits_Linear_8,121,9999,9999,9999,1683834968
7617,18,Jits_Linear_8,122,9999,9999,9999,1684414572
7617,18,Jits_Linear_8,123,9999,9999,9999,1684994104
7617,18,Jits_Linear_8,124,9999,9999,9999,1685574760
7617,18,Jits_Linear_8,125,9999,9999,9999,1686144128
7617,18,Jits_Linear_8,126,9999,9999,9999,1686714448
7617,18,Jits_Linear_8,127,9999,9999,9999,1687284848
7617,18,Jits_Linear_8,128,9999,9999,9999,1687854204
7617,18,Jits_Linear_8,129,9999,9999,9999,1688424504
7617,18,Jits_Linear_8,130,9999,9999,9999,1688984684
7617,18,Jits_Linear_8,131,9999,9999,9999,1689544764
7617,18,Jits_Linear_8,132,9999,9999,9999,1690104908
7617,18,Jits_Linear_8,133,9999,9999,9999,1690665064
7617,18,Jits_Linear_8,134,9999,9999,9999,1691224156
7617,18,Jits_Linear_8,135,9999,9999,9999,1691775088
7617,18,Jits_Linear_8,136,9999,9999,9999,1692324960
7617,18,Jits_Linear_8,137,9999,9999,9999,1692874848
7617,18,Jits_Linear_8,138,9999,9999,9999,1693424740
7617,18,Jits_Linear_8,139,9999,9999,9999,1693974628
7617,18,Jits_Linear_8,140,9999,9999,9999,1694514240
7617,18,Jits_Linear_8,141,9999,9999,9999,1695054968
7617,18,Jits_Linear_8,142,9999,9999,9999,1695594588
7617,18,Jits_Linear_8,143,9999,9999,9999,1696134212
7617,18,Jits_Linear_8,144,9999,9999,9999,1696674880
7617,18,Jits_Linear_8,145,9999,9999,9999,1697204304
7617,18,Jits_Linear_8,146,9999,9999,9999,1697734716
7617,18,Jits_Linear_8,147,9999,9999,9999,1698264132
7617,18,Jits_Linear_8,148,9999,9999,9999,1698794608
7617,18,Jits_Linear_8,149,9999,9999,9999,1699324996
7617,18,Jits_Linear_8,150,9999,9999,9999,1699844164
7617,18,Jits_Linear_8,151,9999,9999,9999,1700364376
7617,18,Jits_Linear_8,152,9999,9999,9999,1700884536
7617,18,Jits_Linear_8,153,9999,9999,9999,1701404744
7617,18,Jits_Linear_8,154,9999,9999,9999,1701924956
7617,18,Jits_Linear_8,155,9999,9999,9999,1702434900
7617,18,Jits_Linear_8,156,9999,9999,9999,1702944856
7617,18,Jits_Linear_8,157,9999,9999,9999,1703454796
7617,18,Jits_Linear_8,158,9999,9999,9999,1703964744
7617,18,Jits_Linear_8,159,9999,9999,9999,1704474700
7617,18,Jits_Linear_8,160,9999,9999,9999,1704974396
7617,18,Jits_Linear_8,161,9999,9999,9999,1705474144
7617,18,Jits_Linear_8,162,9999,9999,9999,1705974876
7617,18,Jits_Linear_8,163,9999,9999,9999,1706474580
7617,18,Jits_Linear_8,164,9999,9999,9999,1706974316
7617,18,Jits_Linear_8,165,9999,9999,9999,1707464776
7617,18,Jits_Linear_8,166,9999,9999,9999,1707954288
7617,18,Jits_Linear_8,167,9999,9999,9999,1708444764
7617,18,Jits_Linear_8,168,9999,9999,9999,1708934252
7617,18,Jits_Linear_8,169,9999,9999,9999,1709424728
7618,16,Jits_ISO_5,0,5,56,103,1717161516
7618,16,Jits_ISO_5,1,5,63,98,1717164464
7618,16,Jits_ISO_5,2,5,80,127,1717167588
7618,16,Jits_ISO_5,0,1,48,34,1717645340
7618,16,Jits_ISO_5,1,5,56,103,1717660928
7618,16,Jits_ISO_5,2,5,63,98,1717664180
7618,16,Jits_ISO_5,3,5,80,127,1717667380
7618,16,Jits_ISO_5,0,1,48,48,1718115584
7618,16,Jits_ISO_5,1,5,56,103,1718160816
7618,16,Jits_ISO_5,2,5,80,127,1718170940
7618,16,Jits_ISO_5,3,5,63,98,1718190424
7618,16,Jits_ISO_5,0,5,63,98,1718611312
7618,16,Jits_ISO_5,1,1,48,45,1718641308
7618,16,Jits_ISO_5,2,5,80,127,1718642572
7618,16,Jits_ISO_5,3,5,56,103,1718651200
7618,16,Jits_ISO_5,0,1,48,56,1719111308
7618,16,Jits_ISO_5,1,5,80,127,1719170620
7618,16,Jits_ISO_5,2,5,56,103,1719180592
7618,16,Jits_ISO_5,3,5,63,98,1719211524
7618,16,Jits_ISO_5,0,1,48,46,1719613444
7618,16,Jits_ISO_5,1,5,63,98,1719660968
7618,16,Jits_ISO_5,2,5,56,103,1719690596
7618,16,Jits_ISO_5,3,5,80,127,1719700792
7618,16,Jits_ISO_5,0,5,56,103,1720110592
7618,16,Jits_ISO_5,1,1,48,56,1720128928
7618,16,Jits_ISO_5,2,5,63,98,1720160636
7618,16,Jits_ISO_5,3,5,80,127,1720180968
7618,16,Jits_ISO_5,0,5,80,127,1720611160
7618,16,Jits_ISO_5,1,1,48,48,1720630692
7618,16,Jits_ISO_5,2,5,63,98,1720661504
7618,16,Jits_ISO_5,3,5,56,103,1720701540
7618,16,Jits_ISO_5,0,1,48,49,1721098596
7618,16,Jits_ISO_5,1,5,56,103,1721110900
7618,16,Jits_ISO_5,2,5,63,98,1721140500
7618,16,Jits_ISO_5,3,5,80,127,1721211384
7618,16,Jits_ISO_5,0,5,56,103,1721610712
7618,16,Jits_ISO_5,1,1,48,48,1721623344
7618,16,Jits_ISO_5,2,5,80,127,1721671168
7618,16,Jits_ISO_5,3,5,63,98,1721700696
7618,16,Jits_ISO_5,0,1,48,46,1722091172
7618,16,Jits_ISO_5,1,5,56,103,1722120492
7618,16,Jits_ISO_5,2,5,63,98,1722130840
7618,16,Jits_ISO_5,3,5,80,127,1722170776
7618,16,Jits_ISO_5,0,1,48,50,1722573968
7618,16,Jits_ISO_5,1,5,63,98,1722610932
7618,16,Jits_ISO_5,2,5,80,127,1722690860
7618,16,Jits_ISO_5,3,5,56,103,1722701056
7618,16,Jits_ISO_5,0,1,48,56,1723088452
7618,16,Jits_ISO_5,1,5,63,98,1723160936
7618,16,Jits_ISO_5,2,5,56,103,1723200928
7618,16,Jits_ISO_5,3,5,80,127,1723203924
7618,16,Jits_ISO_5,0,1,48,54,1723604888
7618,16,Jits_ISO_5,1,5,56,103,1723620656
7618,16,Jits_ISO_5,2,5,63,98,1723631376
7618,16,Jits_ISO_5,3,5,80,127,1723670940
7618,16,Jits_ISO_5,0,5,56,103,1724111396
7618,16,Jits_ISO_5,1,5,63,98,1724114312
7618,16,Jits_ISO_5,2,1,48,51,1724120444
7618,16,Jits_ISO_5,3,5,80,127,1724130580
7618,16,Jits_ISO_5,0,5,80,127,1724621172
7618,16,Jits_ISO_5,1,5,56,103,1724631592
7618,16,Jits_ISO_5,2,1,48,50,1724634560
7618,16,Jits_ISO_5,3,5,63,98,1724701036
7618,16,Jits_ISO_5,0,1,48,48,1725107616
7618,16,Jits_ISO_5,1,5,63,98,1725110572
7618,16,Jits_ISO_5,2,5,56,103,1725131404
7618,16,Jits_ISO_5,3,5,80,127,1725210956
7618,16,Jits_ISO_5,0,5,56,103,1725620724
7618,16,Jits_ISO_5,1,1,48,53,1725637772
7618,16,Jits_ISO_5,2,5,80,127,1725660580
7618,16,Jits_ISO_5,3,5,63,98,1725670624
7618,16,Jits_ISO_5,0,5,80,127,1726110952
7618,16,Jits_ISO_5,1,5,63,98,1726140852
7618,16,Jits_ISO_5,2,1,48,43,1726159408
7618,16,Jits_ISO_5,3,5,56,103,1726180708
7618,16,Jits_ISO_5,0,5,56,103,1726631524
7618,16,Jits_ISO_5,1,1,48,45,1726647972
7618,16,Jits_ISO_5,2,5,63,98,1726661040
7618,16,Jits_ISO_5,3,5,80,127,1726711316
7618,16,Jits_ISO_5,0,5,80,127,1727131124
7618,16,Jits_ISO_5,1,1,48,50,1727167800
7618,16,Jits_ISO_5,2,5,56,103,1727171052
7618,16,Jits_ISO_5,3,5,63,98,1727181100
7618,16,Jits_ISO_5,0,5,80,127,1727611316
7618,16,Jits_ISO_5,1,5,63,98,1727651400
7618,16,Jits_ISO_5,2,1,48,49,1727670784
7618,16,Jits_ISO_5,3,5,56,103,1727710584
7618,16,Jits_ISO_5,0,5,56,103,1728110964
7618,16,Jits_ISO_5,1,5,80,127,1728121332
7618,16,Jits_ISO_5,2,1,48,49,1728140260
7618,16,Jits_ISO_5,3,5,63,98,1728201340
7618,16,Jits_ISO_5,0,5,80,127,1728610632
7618,16,Jits_ISO_5,1,1,48,49,1728657972
7618,16,Jits_ISO_5,2,5,63,98,1728671188
7618,16,Jits_ISO_5,3,5,56,103,1728700640
7618,16,Jits_ISO_5,0,5,56,103,1729111352
7618,16,Jits_ISO_5,1,1,48,52,1729158336
7618,16,Jits_ISO_5,2,5,80,127,1729170788
7618,16,Jits_ISO_5,3,5,63,98,1729210648
7618,16,Jits_ISO_5,0,5,56,103,1729661396
7618,16,Jits_ISO_5,1,1,48,50,1729665416
7618,16,Jits_ISO_5,2,5,63,98,1729670464
7618,16,Jits_ISO_5,3,5,80,127,1729673752
7618,16,Jits_ISO_5,0,5,80,127,1730110764
7618,16,Jits_ISO_5,1,1,48,45,1730191528
7618,16,Jits_ISO_5,2,5,63,98,1730200988
7618,16,Jits_ISO_5,3,5,56,103,1730211480
7618,16,Jits_ISO_5,0,5,56,103,1730610568
7618,16,Jits_ISO_5,1,5,63,98,1730613740
7618,16,Jits_ISO_5,2,5,80,127,1730616784
7618,16,Jits_ISO_5,3,1,48,50,1730714700
7618,16,Jits_ISO_5,0,5,80,127,1731130608
7618,16,Jits_ISO_5,1,1,48,50,1731166608
7618,16,Jits_ISO_5,2,5,63,98,1731180952
7618,16,Jits_ISO_5,3,5,56,103,1731210724
7618,16,Jits_ISO_5,0,5,56,103,1731610952
7618,16,Jits_ISO_5,1,5,80,127,1731621444
7618,16,Jits_ISO_5,2,1,48,53,1731674680
7618,16,Jits_ISO_5,3,5,63,98,1731690968
7618,16,Jits_ISO_5,0,5,56,103,1732120812
7618,16,Jits_ISO_5,1,5,63,98,1732141568
7618,16,Jits_ISO_5,2,1,48,50,1732172932
7618,16,Jits_ISO_5,3,5,80,127,1732200824
7618,16,Jits_ISO_5,0,5,80,127,1732610444
7618,16,Jits_ISO_5,1,1,48,53,1732680120
7618,16,Jits_ISO_5,2,5,63,98,1732681608
7618,16,Jits_ISO_5,3,5,56,103,1732700500
7618,16,Jits_ISO_5,0,5,80,127,1733130568
7618,16,Jits_ISO_5,1,5,56,103,1733140764
7618,16,Jits_ISO_5,2,5,63,98,1733151332
7618,16,Jits_ISO_5,3,1,48,50,1733200304
7618,16,Jits_ISO_5,0,5,80,127,1733621244
7618,16,Jits_ISO_5,1,5,56,103,1733640432
7618,16,Jits_ISO_5,2,5,63,98,1733711376
7618,16,Jits_ISO_5,3,1,48,44,1733729860
7618,16,Jits_ISO_5,0,5,56,103,1734131104
7618,16,Jits_ISO_5,1,5,80,127,1734160632
7618,16,Jits_ISO_5,2,5,63,98,1734181088
7618,16,Jits_ISO_5,3,1,48,47,1734234916
7618,16,Jits_ISO_5,0,5,63,98,1734620440
7618,16,Jits_ISO_5,1,5,56,103,1734680904
7618,16,Jits_ISO_5,2,5,80,127,1734710652
7618,16,Jits_ISO_5,3,1,48,49,1734730784
7618,16,Jits_ISO_5,0,5,63,98,1735111104
7618,16,Jits_ISO_5,1,5,80,127,1735114544
7618,16,Jits_ISO_5,2,5,56,103,1735201232
7618,16,Jits_ISO_5,3,1,48,44,1735240764
7618,16,Jits_ISO_5,0,5,56,103,1735631132
7618,16,Jits_ISO_5,1,5,63,98,1735661328
7618,16,Jits_ISO_5,2,5,80,127,1735700744
7618,16,Jits_ISO_5,3,1,48,46,1735763636
7618,16,Jits_ISO_5,0,5,63,98,1736130956
7618,16,Jits_ISO_5,1,5,56,103,1736170820
7618,16,Jits_ISO_5,2,5,80,127,1736191276
7618,16,Jits_ISO_5,3,1,48,41,1736234100
7618,16,Jits_ISO_5,0,5,63,98,1736641028
7618,16,Jits_ISO_5,1,5,56,103,1736680740
7618,16,Jits_ISO_5,2,5,80,127,1736691232
7618,16,Jits_ISO_5,3,1,48,38,1736748060
7618,16,Jits_ISO_5,0,5,80,127,1737121060
7618,16,Jits_ISO_5,1,5,63,98,1737190740
7618,16,Jits_ISO_5,2,5,56,103,1737211344
7618,16,Jits_ISO_5,3,1,48,48,1737231624
7618,16,Jits_ISO_5,0,5,56,103,1737610620
7618,16,Jits_ISO_5,1,5,80,127,1737631076
7618,16,Jits_ISO_5,2,5,63,98,1737671160
7618,16,Jits_ISO_5,3,1,48,47,1737733164
7618,16,Jits_ISO_5,0,5,63,98,1738120700
7618,16,Jits_ISO_5,1,5,80,127,1738141156
7618,16,Jits_ISO_5,2,5,56,103,1738181092
7618,16,Jits_ISO_5,3,1,48,40,1738228476
7618,16,Jits_ISO_5,0,5,63,98,1738621176
7618,16,Jits_ISO_5,1,5,56,103,1738640664
7618,16,Jits_ISO_5,2,5,80,127,1738651232
7618,16,Jits_ISO_5,3,1,48,38,1738703340
7618,16,Jits_ISO_5,0,5,80,127,1739121056
7618,16,Jits_ISO_5,1,5,56,103,1739140396
7618,16,Jits_ISO_5,2,5,63,98,1739171116
7618,16,Jits_ISO_5,3,1,48,39,1739213188
7618,16,Jits_ISO_5,0,5,56,103,1739691524
7618,16,Jits_ISO_5,1,5,80,127,1739694440
7618,16,Jits_ISO_5,2,5,63,98,1739711008
7618,16,Jits_ISO_5,3,1,48,43,1739745812
7618,16,Jits_ISO_5,0,5,63,98,1740111080
7618,16,Jits_ISO_5,1,5,56,103,1740140980
7618,16,Jits_ISO_5,2,5,80,127,1740201316
7618,16,Jits_ISO_5,3,1,48,41,1740310064
7618,16,Jits_ISO_5,0,5,63,98,1740690928
7618,16,Jits_ISO_5,1,5,56,103,1740701124
7618,16,Jits_ISO_5,2,5,80,127,1740711316
7618,16,Jits_ISO_5,3,1,48,39,1740779764
7618,16,Jits_ISO_5,0,5,56,103,1741141412
7618,16,Jits_ISO_5,1,5,80,127,1741171408
7618,16,Jits_ISO_5,2,5,63,98,1741181156
7618,16,Jits_ISO_5,3,1,48,47,1741269232
7618,16,Jits_ISO_5,0,5,63,98,1741681116
7618,16,Jits_ISO_5,1,5,56,103,1741691236
7618,16,Jits_ISO_5,2,5,80,127,1741710648
7618,16,Jits_ISO_5,3,1,48,44,1741741188
7618,16,Jits_ISO_5,0,5,56,103,1742111228
7618,16,Jits_ISO_5,1,5,63,98,1742170340
7618,16,Jits_ISO_5,2,5,80,127,1742173556
7618,16,Jits_ISO_5,3,1,48,43,1742238804
7618,16,Jits_ISO_5,0,5,80,127,1742631192
7618,16,Jits_ISO_5,1,5,56,103,1742640636
7618,16,Jits_ISO_5,2,5,63,98,1742711088
7618,16,Jits_ISO_5,3,1,48,40,1742724396
7618,16,Jits_ISO_5,0,5,80,127,1743120752
7618,16,Jits_ISO_5,1,1,48,46,1743177128
7618,16,Jits_ISO_5,2,5,56,103,1743191324
7618,16,Jits_ISO_5,3,5,63,98,1743200620
7618,16,Jits_ISO_5,0,5,63,98,1743661404
7618,16,Jits_ISO_5,1,5,56,103,1743670628
7618,16,Jits_ISO_5,2,5,80,127,1743691084
7618,16,Jits_ISO_5,3,1,48,29,1743723492
7618,16,Jits_ISO_5,0,5,80,127,1744111240
7618,16,Jits_ISO_5,1,5,63,98,1744171408
7618,16,Jits_ISO_5,2,1,48,47,1744192732
7618,16,Jits_ISO_5,3,5,56,103,1744211412
7618,16,Jits_ISO_5,0,5,56,103,1744650548
7618,16,Jits_ISO_5,1,5,63,98,1744661264
7618,16,Jits_ISO_5,2,5,80,127,1744700904
7618,16,Jits_ISO_5,3,1,48,34,1744701868
7618,16,Jits_ISO_5,0,5,56,103,1745111412
7618,16,Jits_ISO_5,1,5,80,127,1745141012
7618,16,Jits_ISO_5,2,1,48,41,1745183456
7618,16,Jits_ISO_5,3,5,63,98,1745191276
7618,16,Jits_ISO_5,0,5,56,103,1745650940
7618,16,Jits_ISO_5,1,1,48,42,1745671668
7618,16,Jits_ISO_5,2,5,63,98,1745690944
7618,16,Jits_ISO_5,3,5,80,127,1745694156
7618,16,Jits_ISO_5,0,5,56,103,1746150980
7618,16,Jits_ISO_5,1,5,63,98,1746161248
7618,16,Jits_ISO_5,2,5,80,127,1746180436
7618,16,Jits_ISO_5,3,1,48,34,1746181404
7618,16,Jits_ISO_5,0,5,56,103,1746610492
7618,16,Jits_ISO_5,1,5,80,127,1746613632
7618,16,Jits_ISO_5,2,5,63,98,1746650356
7618,16,Jits_ISO_5,3,1,48,53,1746678952
7618,16,Jits_ISO_5,0,1,48,50,1747142332
7618,16,Jits_ISO_5,1,5,63,98,1747151200
7618,16,Jits_ISO_5,2,5,56,103,1747181100
7618,16,Jits_ISO_5,3,5,80,127,1747201336
7618,16,Jits_ISO_5,0,5,80,127,1747621204
7618,16,Jits_ISO_5,1,5,56,103,1747630500
7618,16,Jits_ISO_5,2,1,48,48,1747640400
7618,16,Jits_ISO_5,3,5,63,98,1747641960
7618,16,Jits_ISO_5,0,5,56,103,1748121164
7618,16,Jits_ISO_5,1,1,48,50,1748134400
7618,16,Jits_ISO_5,2,5,80,127,1748161096
7618,16,Jits_ISO_5,3,5,63,98,1748190620
7618,16,Jits_ISO_5,0,1,48,51,1748615708
7618,16,Jits_ISO_5,1,5,63,98,1748631096
7618,16,Jits_ISO_5,2,5,80,127,1748641220
7618,16,Jits_ISO_5,3,5,56,103,1748651340
7618,16,Jits_ISO_5,0,5,56,103,1749111128
7618,16,Jits_ISO_5,1,1,48,52,1749114696
7618,16,Jits_ISO_5,2,5,63,98,1749181100
7618,16,Jits_ISO_5,3,5,80,127,1749191000
7618,16,Jits_ISO_5,0,5,80,127,1749611152
7618,16,Jits_ISO_5,1,5,56,103,1749621076
7618,16,Jits_ISO_5,2,1,48,51,1749663672
7618,16,Jits_ISO_5,3,5,63,98,1749671268
7618,16,Jits_ISO_5,0,5,80,127,1750121012
7618,16,Jits_ISO_5,1,1,48,42,1750133000
7618,16,Jits_ISO_5,2,5,56,103,1750181344
7618,16,Jits_ISO_5,3,5,63,98,1750210944
7618,16,Jits_ISO_5,0,5,56,103,1750620460
7618,16,Jits_ISO_5,1,5,80,127,1750623452
7618,16,Jits_ISO_5,2,1,48,46,1750625012
7618,16,Jits_ISO_5,3,5,63,98,1750660416
7618,16,Jits_ISO_5,0,1,48,40,1751126672
7618,16,Jits_ISO_5,1,5,56,103,1751151148
7618,16,Jits_ISO_5,2,5,63,98,1751180528
7618,16,Jits_ISO_5,3,5,80,127,1751190872
7618,16,Jits_ISO_5,0,1,48,38,1751600716
7618,16,Jits_ISO_5,1,5,63,98,1751661048
7618,16,Jits_ISO_5,2,5,80,127,1751671268
7618,16,Jits_ISO_5,3,5,56,103,1751681540
7618,16,Jits_ISO_5,0,5,80,127,1752110444
7618,16,Jits_ISO_5,1,1,48,24,1752146152
7618,16,Jits_ISO_5,2,5,56,103,1752160564
7618,16,Jits_ISO_5,3,5,63,98,1752163780
7618,16,Jits_ISO_5,0,1,48,45,1752577920
7618,16,Jits_ISO_5,1,5,56,103,1752640964
7618,16,Jits_ISO_5,2,5,80,127,1752661348
7618,16,Jits_ISO_5,3,5,63,98,1752671380
7618,16,Jits_ISO_5,0,1,48,47,1753104328
7618,16,Jits_ISO_5,1,5,63,98,1753121216
7618,16,Jits_ISO_5,2,5,56,103,1753150892
7618,16,Jits_ISO_5,3,5,80,127,1753171276
7618,16,Jits_ISO_5,0,1,48,50,1753590132
7618,16,Jits_ISO_5,1,5,56,103,1753630988
7618,16,Jits_ISO_5,2,5,80,127,1753641184
7618,16,Jits_ISO_5,3,5,63,98,1753711092
7618,16,Jits_ISO_5,0,1,48,46,1754052476
7618,16,Jits_ISO_5,1,5,63,98,1754120828
7618,16,Jits_ISO_5,2,5,80,127,1754160456
7618,16,Jits_ISO_5,3,5,56,103,1754200392
7618,16,Jits_ISO_5,0,1,48,46,1754578720
7618,16,Jits_ISO_5,1,5,56,103,1754630900
7618,16,Jits_ISO_5,2,5,63,98,1754640796
7618,16,Jits_ISO_5,3,5,80,127,1754661108
7618,16,Jits_ISO_5,0,1,48,43,1755082580
7618,16,Jits_ISO_5,1,5,63,98,1755171088
7618,16,Jits_ISO_5,2,5,80,127,1755190932
7618,16,Jits_ISO_5,3,5,56,103,1755211168
7618,16,Jits_ISO_5,0,5,56,103,1755610376
7618,16,Jits_ISO_5,1,5,80,127,1755691368
7618,16,Jits_ISO_5,2,1,48,39,1755693960
7618,16,Jits_ISO_5,3,5,63,98,1755700584
7618,16,Jits_ISO_5,0,1,48,42,1756149824
7618,16,Jits_ISO_5,1,5,80,127,1756151248
7618,16,Jits_ISO_5,2,5,63,98,1756161368
7618,16,Jits_ISO_5,3,5,56,103,1756191044
7618,16,Jits_ISO_5,0,5,63,98,1756610908
7618,16,Jits_ISO_5,1,5,80,127,1756650920
7618,16,Jits_ISO_5,2,1,48,40,1756659292
7618,16,Jits_ISO_5,3,5,56,103,1756711152
7618,16,Jits_ISO_5,0,5,63,98,1757121052
7618,16,Jits_ISO_5,1,5,56,103,1757171028
7618,16,Jits_ISO_5,2,1,48,45,1757196764
7618,16,Jits_ISO_5,3,5,80,127,1757200916
7618,16,Jits_ISO_5,0,5,80,127,1757631048
7618,16,Jits_ISO_5,1,5,63,98,1757641172
7618,16,Jits_ISO_5,2,1,48,52,1757646828
7618,16,Jits_ISO_5,3,5,56,103,1757710840
7618,16,Jits_ISO_5,0,5,80,127,1758201072
7618,16,Jits_ISO_5,1,5,56,103,1758210288
7618,16,Jits_ISO_5,2,5,63,98,1758213436
7618,16,Jits_ISO_5,3,1,48,42,1758237600
7618,16,Jits_ISO_5,0,1,48,42,1758631932
7618,16,Jits_ISO_5,1,5,56,103,1758640576
7618,16,Jits_ISO_5,2,5,80,127,1758660884
7618,16,Jits_ISO_5,3,5,63,98,1758671080
7618,16,Jits_ISO_5,0,1,48,33,1759103796
7618,16,Jits_ISO_5,1,5,63,98,1759150576
7618,16,Jits_ISO_5,2,5,56,103,1759191264
7618,16,Jits_ISO_5,3,5,80,127,1759210884
7618,16,Jits_ISO_5,0,5,63,98,1759651296
7618,16,Jits_ISO_5,1,1,48,37,1759661908
7618,16,Jits_ISO_5,2,5,56,103,1759710704
7618,16,Jits_ISO_5,3,5,80,127,1759713768
7618,16,Jits_ISO_5,0,5,56,103,1760110944
7618,16,Jits_ISO_5,1,5,80,127,1760130800
7618,16,Jits_ISO_5,2,1,48,35,1760163512
7618,16,Jits_ISO_5,3,5,63,98,1760171256
7618,16,Jits_ISO_5,0,5,56,103,1760641328
7618,16,Jits_ISO_5,1,1,48,37,1760649252
7618,16,Jits_ISO_5,2,5,63,98,1760660808
7618,16,Jits_ISO_5,3,5,80,127,1760671076
7618,16,Jits_ISO_5,0,5,80,127,1761111380
7618,16,Jits_ISO_5,1,1,48,37,1761131504
7618,16,Jits_ISO_5,2,5,56,103,1761141148
7618,16,Jits_ISO_5,3,5,63,98,1761181080
7618,16,Jits_ISO_5,0,1,48,33,1761616108
7618,16,Jits_ISO_5,1,5,80,127,1761621308
7618,16,Jits_ISO_5,2,5,56,103,1761640944
7618,16,Jits_ISO_5,3,5,63,98,1761701204
7618,16,Jits_ISO_5,0,5,56,103,1762131308
7618,16,Jits_ISO_5,1,1,48,34,1762139828
7618,16,Jits_ISO_5,2,5,80,127,1762150712
7618,16,Jits_ISO_5,3,5,63,98,1762211272
7618,16,Jits_ISO_5,0,5,80,127,1762610668
7618,16,Jits_ISO_5,1,5,56,103,1762620940
7618,16,Jits_ISO_5,2,1,48,41,1762653204
7618,16,Jits_ISO_5,3,5,63,98,1762660720
7618,16,Jits_ISO_5,0,5,63,98,1763111236
7618,16,Jits_ISO_5,1,1,48,40,1763141932
7618,16,Jits_ISO_5,2,5,56,103,1763151168
7618,16,Jits_ISO_5,3,5,80,127,1763154528
7618,16,Jits_ISO_5,0,5,63,98,1763630440
7618,16,Jits_ISO_5,1,1,48,38,1763635356
7618,16,Jits_ISO_5,2,5,80,127,1763671416
7618,16,Jits_ISO_5,3,5,56,103,1763700964
7618,16,Jits_ISO_5,0,5,56,103,1764120808
7618,16,Jits_ISO_5,1,5,63,98,1764131076
7618,16,Jits_ISO_5,2,5,80,127,1764160824
7618,16,Jits_ISO_5,3,1,48,32,1764176672
7618,16,Jits_ISO_5,0,5,80,127,1764610584
7618,16,Jits_ISO_5,1,5,63,98,1764681012
7618,16,Jits_ISO_5,2,5,56,103,1764691284
7618,16,Jits_ISO_5,3,1,48,49,1764740948
7618,16,Jits_ISO_5,0,5,63,98,1765111004
7618,16,Jits_ISO_5,1,5,56,103,1765180908
7618,16,Jits_ISO_5,2,5,80,127,1765190880
7618,16,Jits_ISO_5,3,1,48,41,1765208764
7618,16,Jits_ISO_5,0,5,63,98,1765610812
7618,16,Jits_ISO_5,1,5,56,103,1765631272
7618,16,Jits_ISO_5,2,5,80,127,1765671208
7618,16,Jits_ISO_5,3,1,48,39,1765691784
7618,16,Jits_ISO_5,0,5,56,103,1766120880
7618,16,Jits_ISO_5,1,5,63,98,1766131152
7618,16,Jits_ISO_5,2,1,48,43,1766154720
7618,16,Jits_ISO_5,3,5,80,127,1766211008
7618,16,Jits_ISO_5,0,5,63,98,1766611260
7618,16,Jits_ISO_5,1,1,48,36,1766621800
7618,16,Jits_ISO_5,2,5,56,103,1766641080
7618,16,Jits_ISO_5,3,5,80,127,1766681088
7618,16,Jits_ISO_5,0,5,56,103,1767110920
7618,16,Jits_ISO_5,1,1,48,41,1767128876
7618,16,Jits_ISO_5,2,5,63,98,1767150924
7618,16,Jits_ISO_5,3,5,80,127,1767190784
7618,16,Jits_ISO_5,0,5,80,127,1767610592
7618,16,Jits_ISO_5,1,1,48,36,1767611928
7618,16,Jits_ISO_5,2,5,56,103,1767690896
7618,16,Jits_ISO_5,3,5,63,98,1767700796
7618,16,Jits_ISO_5,0,1,48,36,1768095540
7618,16,Jits_ISO_5,1,5,56,103,1768151460
7618,16,Jits_ISO_5,2,5,63,98,1768154524
7618,16,Jits_ISO_5,3,5,80,127,1768160532
7618,16,Jits_ISO_5,0,1,48,39,1768599920
7618,16,Jits_ISO_5,1,5,56,103,1768670664
7618,16,Jits_ISO_5,2,5,63,98,1768690972
7618,16,Jits_ISO_5,3,5,80,127,1768701228
7618,16,Jits_ISO_5,0,1,48,44,1769092756
7618,16,Jits_ISO_5,1,5,63,98,1769131516
7618,16,Jits_ISO_5,2,5,80,127,1769140816
7618,16,Jits_ISO_5,3,5,56,103,1769160976
7618,16,Jits_ISO_5,0,1,48,40,1769602308
7618,16,Jits_ISO_5,1,5,63,98,1769631024
7618,16,Jits_ISO_5,2,5,56,103,1769710952
7618,16,Jits_ISO_5,3,5,80,127,1769714016
7618,16,Jits_ISO_5,0,5,63,98,1770130684
7618,16,Jits_ISO_5,1,1,48,36,1770150160
7618,16,Jits_ISO_5,2,5,56,103,1770151804
7618,16,Jits_ISO_5,3,5,80,127,1770180884
7618,16,Jits_ISO_5,0,5,56,103,1770630636
7618,16,Jits_ISO_5,1,5,63,98,1770651024
7618,16,Jits_ISO_5,2,5,80,127,1770661368
7618,16,Jits_ISO_5,3,1,48,43,1770698488
7618,16,Jits_ISO_5,0,5,56,103,1771161028
7618,16,Jits_ISO_5,1,1,48,40,1771176728
7618,16,Jits_ISO_5,2,5,63,98,1771190620
7618,16,Jits_ISO_5,3,5,80,127,1771194056
7618,16,Jits_ISO_5,0,5,56,103,1771610624
7618,16,Jits_ISO_5,1,1,48,36,1771643964
7618,16,Jits_ISO_5,2,5,63,98,1771650656
7618,16,Jits_ISO_5,3,5,80,127,1771710820
7618,16,Jits_ISO_5,0,5,56,103,1772130600
7618,16,Jits_ISO_5,1,1,48,37,1772137684
7618,16,Jits_ISO_5,2,5,63,98,1772140936
7618,16,Jits_ISO_5,3,5,80,127,1772201424
7618,16,Jits_ISO_5,0,5,56,103,1772631540
7618,16,Jits_ISO_5,1,1,48,41,1772632952
7618,16,Jits_ISO_5,2,5,80,127,1772650796
7618,16,Jits_ISO_5,3,5,63,98,1772680568
7618,16,Jits_ISO_5,0,5,80,127,1773131064
7618,16,Jits_ISO_5,1,5,56,103,1773141556
7618,16,Jits_ISO_5,2,1,48,49,1773150304
7618,16,Jits_ISO_5,3,5,63,98,1773160888
7618,16,Jits_ISO_5,0,5,63,98,1773620548
7618,16,Jits_ISO_5,1,1,48,42,1773699084
7618,16,Jits_ISO_5,2,5,80,127,1773700660
7618,16,Jits_ISO_5,3,5,56,103,1773710632
7618,16,Jits_ISO_5,0,5,80,127,1774180744
7618,16,Jits_ISO_5,1,5,56,103,1774201152
7618,16,Jits_ISO_5,2,5,63,98,1774204216
7618,16,Jits_ISO_5,3,1,48,39,1774213708
7618,16,Jits_ISO_5,0,5,63,98,1774650668
7618,16,Jits_ISO_5,1,5,80,127,1774653956
7618,16,Jits_ISO_5,2,1,48,38,1774688704
7618,16,Jits_ISO_5,3,5,56,103,1774711220
7618,16,Jits_ISO_5,0,5,56,103,1775130916
7618,16,Jits_ISO_5,1,5,80,127,1775141112
7618,16,Jits_ISO_5,2,1,48,39,1775171200
7618,16,Jits_ISO_5,3,5,63,98,1775181040
7618,16,Jits_ISO_5,0,5,56,103,1775611180
7618,16,Jits_ISO_5,1,1,48,38,1775652360
7618,16,Jits_ISO_5,2,5,63,98,1775670592
7618,16,Jits_ISO_5,3,5,80,127,1775680860
7618,16,Jits_ISO_5,0,5,63,98,1776121492
7618,16,Jits_ISO_5,1,5,80,127,1776161280
7618,16,Jits_ISO_5,2,1,48,41,1776177580
7618,16,Jits_ISO_5,3,5,56,103,1776201060
7618,16,Jits_ISO_5,0,5,56,103,1776620852
7618,16,Jits_ISO_5,1,1,48,38,1776670052
7618,16,Jits_ISO_5,2,5,63,98,1776700712
7618,16,Jits_ISO_5,3,5,80,127,1776704076
7618,16,Jits_ISO_5,0,9999,9999,9999,1717408872
7618,16,Jits_ISO_5,1,9999,9999,9999,1717908572
7618,16,Jits_ISO_5,2,9999,9999,9999,1718408308
7618,16,Jits_ISO_5,3,9999,9999,9999,1718909012
7618,16,Jits_ISO_5,4,9999,9999,9999,1719408748
7618,16,Jits_ISO_5,5,9999,9999,9999,1719908460
7618,16,Jits_ISO_5,6,9999,9999,9999,1720408120
7618,16,Jits_ISO_5,7,9999,9999,9999,1720908916
7618,16,Jits_ISO_5,8,9999,9999,9999,1721408584
7618,16,Jits_ISO_5,9,9999,9999,9999,1721908316
7618,16,Jits_ISO_5,10,9999,9999,9999,1722409032
7618,16,Jits_ISO_5,11,9999,9999,9999,1722908768
7618,16,Jits_ISO_5,12,9999,9999,9999,1723408496
7618,16,Jits_ISO_5,13,9999,9999,9999,1723908152
7618,16,Jits_ISO_5,14,9999,9999,9999,1724408912
7618,16,Jits_ISO_5,15,9999,9999,9999,1724908660
7618,16,Jits_ISO_5,16,9999,9999,9999,1725408332
7618,16,Jits_ISO_5,17,9999,9999,9999,1725909108
7618,16,Jits_ISO_5,18,9999,9999,9999,1726408776
7618,16,Jits_ISO_5,19,9999,9999,9999,1726908528
7618,16,Jits_ISO_5,20,9999,9999,9999,1727408200
7618,16,Jits_ISO_5,21,9999,9999,9999,1727908920
7618,16,Jits_ISO_5,22,9999,9999,9999,1728408664
7618,16,Jits_ISO_5,23,9999,9999,9999,1728908412
7618,16,Jits_ISO_5,24,9999,9999,9999,1729408084
7618,16,Jits_ISO_5,25,9999,9999,9999,1729908796
7618,16,Jits_ISO_5,26,9999,9999,9999,1730408520
7618,16,Jits_ISO_5,27,9999,9999,9999,1730908236
7618,16,Jits_ISO_5,28,9999,9999,9999,1731408956
7618,16,Jits_ISO_5,29,9999,9999,9999,1731908700
7618,16,Jits_ISO_5,30,9999,9999,9999,1732408376
7618,16,Jits_ISO_5,31,9999,9999,9999,1732908124
7618,16,Jits_ISO_5,32,9999,9999,9999,1733408840
7618,16,Jits_ISO_5,33,9999,9999,9999,1733908580
7618,16,Jits_ISO_5,34,9999,9999,9999,1734408256
7618,16,Jits_ISO_5,35,9999,9999,9999,1734908980
7618,16,Jits_ISO_5,36,9999,9999,9999,1735408700
7618,16,Jits_ISO_5,37,9999,9999,9999,1735908432
7618,16,Jits_ISO_5,38,9999,9999,9999,1736408184
7618,16,Jits_ISO_5,39,9999,9999,9999,1736908888
7618,16,Jits_ISO_5,40,9999,9999,9999,1737408624
7618,16,Jits_ISO_5,41,9999,9999,9999,1737908292
7618,16,Jits_ISO_5,42,9999,9999,9999,1738409084
7618,16,Jits_ISO_5,43,9999,9999,9999,1738908740
7618,16,Jits_ISO_5,44,9999,9999,9999,1739408468
7618,16,Jits_ISO_5,45,9999,9999,9999,1739908212
7618,16,Jits_ISO_5,46,9999,9999,9999,1740408932
7618,16,Jits_ISO_5,47,9999,9999,9999,1740908644
7618,16,Jits_ISO_5,48,9999,9999,9999,1741408376
7618,16,Jits_ISO_5,49,9999,9999,9999,1741909096
7618,16,Jits_ISO_5,50,9999,9999,9999,1742408820
7618,16,Jits_ISO_5,51,9999,9999,9999,1742908492
7618,16,Jits_ISO_5,52,9999,9999,9999,1743408240
7618,16,Jits_ISO_5,53,9999,9999,9999,1743908964
7618,16,Jits_ISO_5,54,9999,9999,9999,1744408696
7618,16,Jits_ISO_5,55,9999,9999,9999,1744908368
7618,16,Jits_ISO_5,56,9999,9999,9999,1745408116
7618,16,Jits_ISO_5,57,9999,9999,9999,1745908828
7618,16,Jits_ISO_5,58,9999,9999,9999,1746408500
7618,16,Jits_ISO_5,59,9999,9999,9999,1746908236
7618,16,Jits_ISO_5,60,9999,9999,9999,1747408956
7618,16,Jits_ISO_5,61,9999,9999,9999,1747908688
7618,16,Jits_ISO_5,62,9999,9999,9999,1748408432
7618,16,Jits_ISO_5,63,9999,9999,9999,1748908104
7618,16,Jits_ISO_5,64,9999,9999,9999,1749408884
7618,16,Jits_ISO_5,65,9999,9999,9999,1749908552
7618,16,Jits_ISO_5,66,9999,9999,9999,1750408304
7618,16,Jits_ISO_5,67,9999,9999,9999,1750909012
7618,16,Jits_ISO_5,68,9999,9999,9999,1751408756
7618,16,Jits_ISO_5,69,9999,9999,9999,1751908464
7618,16,Jits_ISO_5,70,9999,9999,9999,1752408112
7618,16,Jits_ISO_5,71,9999,9999,9999,1752908908
7618,16,Jits_ISO_5,72,9999,9999,9999,1753408564
7618,16,Jits_ISO_5,73,9999,9999,9999,1753908292
7618,16,Jits_ISO_5,74,9999,9999,9999,1754409076
7618,16,Jits_ISO_5,75,9999,9999,9999,1754908732
7618,16,Jits_ISO_5,76,9999,9999,9999,1755408468
7618,16,Jits_ISO_5,77,9999,9999,9999,1755908204
7618,16,Jits_ISO_5,78,9999,9999,9999,1756408928
7618,16,Jits_ISO_5,79,9999,9999,9999,1756908660
7618,16,Jits_ISO_5,80,9999,9999,9999,1757408320
7618,16,Jits_ISO_5,81,9999,9999,9999,1757909096
7618,16,Jits_ISO_5,82,9999,9999,9999,1758408768
7618,16,Jits_ISO_5,83,9999,9999,9999,1758908520
7618,16,Jits_ISO_5,84,9999,9999,9999,1759408184
7618,16,Jits_ISO_5,85,9999,9999,9999,1759908960
7618,16,Jits_ISO_5,86,9999,9999,9999,1760408692
7618,16,Jits_ISO_5,87,9999,9999,9999,1760908364
7618,16,Jits_ISO_5,88,9999,9999,9999,1761408108
7618,16,Jits_ISO_5,89,9999,9999,9999,1761908828
7618,16,Jits_ISO_5,90,9999,9999,9999,1762408536
7618,16,Jits_ISO_5,91,9999,9999,9999,1762908272
7618,16,Jits_ISO_5,92,9999,9999,9999,1763408976
7618,16,Jits_ISO_5,93,9999,9999,9999,1763908712
7618,16,Jits_ISO_5,94,9999,9999,9999,1764408444
7618,16,Jits_ISO_5,95,9999,9999,9999,1764908112
7618,16,Jits_ISO_5,96,9999,9999,9999,1765408832
7618,16,Jits_ISO_5,97,9999,9999,9999,1765908560
7618,16,Jits_ISO_5,98,9999,9999,9999,1766408292
7618,16,Jits_ISO_5,99,9999,9999,9999,1766909016
7618,16,Jits_ISO_5,100,9999,9999,9999,1767408744
7618,16,Jits_ISO_5,101,9999,9999,9999,1767908420
7618,16,Jits_ISO_5,102,9999,9999,9999,1768408156
7618,16,Jits_ISO_5,103,9999,9999,9999,1768908868
7618,16,Jits_ISO_5,104,9999,9999,9999,1769408600
7618,16,Jits_ISO_5,105,9999,9999,9999,1769908328
7618,16,Jits_ISO_5,106,9999,9999,9999,1770409028
7618,16,Jits_ISO_5,107,9999,9999,9999,1770908764
7618,16,Jits_ISO_5,108,9999,9999,9999,1771408504
7618,16,Jits_ISO_5,109,9999,9999,9999,1771908180
7618,16,Jits_ISO_5,110,9999,9999,9999,1772408896
7618,16,Jits_ISO_5,111,9999,9999,9999,1772908616
7618,16,Jits_ISO_5,112,9999,9999,9999,1773408364
7618,16,Jits_ISO_5,113,9999,9999,9999,1773909088
7618,16,Jits_ISO_5,114,9999,9999,9999,1774408816
7618,16,Jits_ISO_5,115,9999,9999,9999,1774908484
7618,16,Jits_ISO_5,116,9999,9999,9999,1775408212
7618,16,Jits_ISO_5,117,9999,9999,9999,1775908932
7618,16,Jits_ISO_5,118,9999,9999,9999,1776408684
7618,16,Jits_ISO_5,119,9999,9999,9999,1776908412
7619,7,Jits_ISO_8,0,5,56,103,1785943324
7619,7,Jits_ISO_8,1,5,63,98,1785946720
7619,7,Jits_ISO_8,2,5,80,127,1785949692
7619,7,Jits_ISO_8,3,1,48,40,1786306616
7619,7,Jits_ISO_8,0,5,56,103,1786743424
7619,7,Jits_ISO_8,1,5,63,98,1786746600
7619,7,Jits_ISO_8,2,5,80,127,1786749496
7619,7,Jits_ISO_8,3,1,48,43,1787019416
7619,7,Jits_ISO_8,0,5,80,127,1787482436
7619,7,Jits_ISO_8,1,5,63,98,1787572524
7619,7,Jits_ISO_8,2,5,56,103,1787582720
7619,7,Jits_ISO_8,3,1,48,41,1787773596
7619,7,Jits_ISO_8,0,1,48,40,1788243020
7619,7,Jits_ISO_8,1,5,56,103,1788302632
7619,7,Jits_ISO_8,2,5,63,98,1788313348
7619,7,Jits_ISO_8,3,5,80,127,1788403096
7619,7,Jits_ISO_8,0,1,48,43,1789055780
7619,7,Jits_ISO_8,1,5,63,98,1789072744
7619,7,Jits_ISO_8,2,5,80,127,1789102420
7619,7,Jits_ISO_8,3,5,56,103,1789133516
7619,7,Jits_ISO_8,0,1,48,39,1789855480
7619,7,Jits_ISO_8,1,5,56,103,1789872592
7619,7,Jits_ISO_8,2,5,80,127,1789972828
7619,7,Jits_ISO_8,3,5,63,98,1790023108
7619,7,Jits_ISO_8,0,1,48,39,1790671768
7619,7,Jits_ISO_8,1,5,56,103,1790673424
7619,7,Jits_ISO_8,2,5,80,127,1790722360
7619,7,Jits_ISO_8,3,5,63,98,1790763344
7619,7,Jits_ISO_8,0,1,48,39,1791433324
7619,7,Jits_ISO_8,1,5,80,127,1791502804
7619,7,Jits_ISO_8,2,5,63,98,1791533364
7619,7,Jits_ISO_8,3,5,56,103,1791603144
7619,7,Jits_ISO_8,0,1,48,40,1792241428
7619,7,Jits_ISO_8,1,5,63,98,1792333304
7619,7,Jits_ISO_8,2,5,56,103,1792363040
7619,7,Jits_ISO_8,3,5,80,127,1792423208
7619,7,Jits_ISO_8,0,1,48,42,1793013916
7619,7,Jits_ISO_8,1,5,56,103,1793072528
7619,7,Jits_ISO_8,2,5,80,127,1793075520
7619,7,Jits_ISO_8,3,5,63,98,1793193384
7619,7,Jits_ISO_8,0,1,48,43,1793806260
7619,7,Jits_ISO_8,1,5,56,103,1793953376
7619,7,Jits_ISO_8,2,5,80,127,1793993392
7619,7,Jits_ISO_8,3,5,63,98,1794003292
7619,7,Jits_ISO_8,0,1,48,42,1794627780
7619,7,Jits_ISO_8,1,5,56,103,1794713172
7619,7,Jits_ISO_8,2,5,80,127,1794733392
7619,7,Jits_ISO_8,3,5,63,98,1794813412
7619,7,Jits_ISO_8,0,1,48,39,1795455460
7619,7,Jits_ISO_8,1,5,80,127,1795502396
7619,7,Jits_ISO_8,2,5,56,103,1795602704
7619,7,Jits_ISO_8,3,5,63,98,1795613200
7619,7,Jits_ISO_8,0,5,63,98,1796272512
7619,7,Jits_ISO_8,1,1,48,40,1796277800
7619,7,Jits_ISO_8,2,5,80,127,1796333048
7619,7,Jits_ISO_8,3,5,56,103,1796343096
7619,7,Jits_ISO_8,0,1,48,43,1797063196
7619,7,Jits_ISO_8,1,5,56,103,1797073408
7619,7,Jits_ISO_8,2,5,63,98,1797143088
7619,7,Jits_ISO_8,3,5,80,127,1797146304
7619,7,Jits_ISO_8,0,1,48,36,1797821308
7619,7,Jits_ISO_8,1,5,63,98,1797902776
7619,7,Jits_ISO_8,2,5,56,103,1797952964
7619,7,Jits_ISO_8,3,5,80,127,1797956176
7619,7,Jits_ISO_8,0,1,48,30,1798617632
7619,7,Jits_ISO_8,1,5,56,103,1798662384
7619,7,Jits_ISO_8,2,5,80,127,1798665536
7619,7,Jits_ISO_8,3,5,63,98,1798752508
7619,7,Jits_ISO_8,0,1,48,42,1799396192
7619,7,Jits_ISO_8,1,5,63,98,1799503428
7619,7,Jits_ISO_8,2,5,56,103,1799593288
7619,7,Jits_ISO_8,3,5,80,127,1799623116
7619,7,Jits_ISO_8,0,1,48,33,1800250988
7619,7,Jits_ISO_8,1,5,56,103,1800292668
7619,7,Jits_ISO_8,2,5,63,98,1800393224
7619,7,Jits_ISO_8,3,5,80,127,1800422900
7619,7,Jits_ISO_8,0,1,48,49,1801054668
7619,7,Jits_ISO_8,1,5,63,98,1801113084
7619,7,Jits_ISO_8,2,5,56,103,1801123208
7619,7,Jits_ISO_8,3,5,80,127,1801213252
7619,7,Jits_ISO_8,0,1,48,51,1801845412
7619,7,Jits_ISO_8,1,5,63,98,1801933248
7619,7,Jits_ISO_8,2,5,56,103,1802013256
7619,7,Jits_ISO_8,3,5,80,127,1802016248
7619,7,Jits_ISO_8,0,1,48,52,1802661676
7619,7,Jits_ISO_8,1,5,80,127,1802693016
7619,7,Jits_ISO_8,2,5,63,98,1802712576
7619,7,Jits_ISO_8,3,5,56,103,1802773100
7619,7,Jits_ISO_8,0,1,48,46,1803501620
7619,7,Jits_ISO_8,1,5,56,103,1803532584
7619,7,Jits_ISO_8,2,5,63,98,1803553192
7619,7,Jits_ISO_8,3,5,80,127,1803556408
7619,7,Jits_ISO_8,0,5,63,98,1804273172
7619,7,Jits_ISO_8,1,1,48,40,1804276744
7619,7,Jits_ISO_8,2,5,80,127,1804353040
7619,7,Jits_ISO_8,3,5,56,103,1804363012
7619,7,Jits_ISO_8,0,1,48,45,1805082516
7619,7,Jits_ISO_8,1,5,63,98,1805093252
7619,7,Jits_ISO_8,2,5,56,103,1805112592
7619,7,Jits_ISO_8,3,5,80,127,1805162944
7619,7,Jits_ISO_8,0,1,48,44,1805873232
7619,7,Jits_ISO_8,1,5,80,127,1805893180
7619,7,Jits_ISO_8,2,5,63,98,1805933072
7619,7,Jits_ISO_8,3,5,56,103,1805953308
7619,7,Jits_ISO_8,0,1,48,39,1806658464
7619,7,Jits_ISO_8,1,5,56,103,1806732848
7619,7,Jits_ISO_8,2,5,63,98,1806742972
7619,7,Jits_ISO_8,3,5,80,127,1806763340
7619,7,Jits_ISO_8,0,1,48,36,1807446640
7619,7,Jits_ISO_8,1,5,56,103,1807462928
7619,7,Jits_ISO_8,2,5,63,98,1807553000
7619,7,Jits_ISO_8,3,5,80,127,1807613240
7619,7,Jits_ISO_8,0,1,48,46,1808237228
7619,7,Jits_ISO_8,1,5,80,127,1808293228
7619,7,Jits_ISO_8,2,5,56,103,1808302380
7619,7,Jits_ISO_8,3,5,63,98,1808373092
7619,7,Jits_ISO_8,0,1,48,45,1809045252
7619,7,Jits_ISO_8,1,5,63,98,1809122752
7619,7,Jits_ISO_8,2,5,80,127,1809213020
7619,7,Jits_ISO_8,3,5,56,103,1809223144
7619,7,Jits_ISO_8,0,1,48,38,1809782704
7619,7,Jits_ISO_8,1,5,63,98,1809862900
7619,7,Jits_ISO_8,2,5,80,127,1809913236
7619,7,Jits_ISO_8,3,5,56,103,1809972660
7619,7,Jits_ISO_8,0,1,48,25,1810560320
7619,7,Jits_ISO_8,1,5,56,103,1810692340
7619,7,Jits_ISO_8,2,5,80,127,1810742764
7619,7,Jits_ISO_8,3,5,63,98,1810763076
7619,7,Jits_ISO_8,0,1,48,31,1811419272
7619,7,Jits_ISO_8,1,5,56,103,1811462536
7619,7,Jits_ISO_8,2,5,80,127,1811523212
7619,7,Jits_ISO_8,3,5,63,98,1811592620
7619,7,Jits_ISO_8,0,1,48,30,1812137088
7619,7,Jits_ISO_8,1,5,56,103,1812263348
7619,7,Jits_ISO_8,2,5,80,127,1812293100
7619,7,Jits_ISO_8,3,5,63,98,1812322848
7619,7,Jits_ISO_8,0,1,48,27,1812902932
7619,7,Jits_ISO_8,1,5,56,103,1813102936
7619,7,Jits_ISO_8,2,5,80,127,1813122424
7619,7,Jits_ISO_8,3,5,63,98,1813182888
7619,7,Jits_ISO_8,0,1,48,37,1813725856
7619,7,Jits_ISO_8,1,5,80,127,1813982516
7619,7,Jits_ISO_8,2,5,56,103,1813992932
7619,7,Jits_ISO_8,3,5,63,98,1814003056
7619,7,Jits_ISO_8,0,1,48,37,1814610828
7619,7,Jits_ISO_8,1,5,56,103,1814743268
7619,7,Jits_ISO_8,2,5,80,127,1814783208
7619,7,Jits_ISO_8,3,5,63,98,1814813032
7619,7,Jits_ISO_8,0,1,48,43,1815489384
7619,7,Jits_ISO_8,1,5,56,103,1815512348
7619,7,Jits_ISO_8,2,5,63,98,1815543296
7619,7,Jits_ISO_8,3,5,80,127,1815583308
7619,7,Jits_ISO_8,0,5,80,127,1816262988
7619,7,Jits_ISO_8,1,1,48,44,1816307760
7619,7,Jits_ISO_8,2,5,63,98,1816313184
7619,7,Jits_ISO_8,3,5,56,103,1816332744
7619,7,Jits_ISO_8,0,1,48,43,1817031360
7619,7,Jits_ISO_8,1,5,56,103,1817092888
7619,7,Jits_ISO_8,2,5,80,127,1817163012
7619,7,Jits_ISO_8,3,5,63,98,1817222452
7619,7,Jits_ISO_8,0,1,48,33,1817800632
7619,7,Jits_ISO_8,1,5,80,127,1817893204
7619,7,Jits_ISO_8,2,5,63,98,1817983276
7619,7,Jits_ISO_8,3,5,56,103,1818002764
7619,7,Jits_ISO_8,0,1,48,41,1818622020
7619,7,Jits_ISO_8,1,5,63,98,1818712396
7619,7,Jits_ISO_8,2,5,56,103,1818732868
7619,7,Jits_ISO_8,3,5,80,127,1818772732
7619,7,Jits_ISO_8,0,1,48,43,1819433560
7619,7,Jits_ISO_8,1,5,80,127,1819473148
7619,7,Jits_ISO_8,2,5,63,98,1819492856
7619,7,Jits_ISO_8,3,5,56,103,1819572812
7619,7,Jits_ISO_8,0,1,48,47,1820247348
7619,7,Jits_ISO_8,1,5,63,98,1820262736
7619,7,Jits_ISO_8,2,5,56,103,1820373336
7619,7,Jits_ISO_8,3,5,80,127,1820376400
7619,7,Jits_ISO_8,0,1,48,38,1821059952
7619,7,Jits_ISO_8,1,5,63,98,1821082992
7619,7,Jits_ISO_8,2,5,56,103,1821093260
7619,7,Jits_ISO_8,3,5,80,127,1821096180
7619,7,Jits_ISO_8,0,1,48,31,1821821072
7619,7,Jits_ISO_8,1,5,56,103,1821863272
7619,7,Jits_ISO_8,2,5,80,127,1821982988
7619,7,Jits_ISO_8,3,5,63,98,1822022928
7619,7,Jits_ISO_8,0,1,48,33,1822537428
7619,7,Jits_ISO_8,1,5,56,103,1822682672
7619,7,Jits_ISO_8,2,5,80,127,1822763296
7619,7,Jits_ISO_8,3,5,63,98,1822782784
7619,7,Jits_ISO_8,0,1,48,44,1823352752
7619,7,Jits_ISO_8,1,5,56,103,1823483208
7619,7,Jits_ISO_8,2,5,63,98,1823592748
7619,7,Jits_ISO_8,3,5,80,127,1823596036
7619,7,Jits_ISO_8,0,1,48,55,1824205400
7619,7,Jits_ISO_8,1,5,56,103,1824312556
7619,7,Jits_ISO_8,2,5,80,127,1824343504
7619,7,Jits_ISO_8,3,5,63,98,1824362764
7619,7,Jits_ISO_8,0,1,48,48,1824973316
7619,7,Jits_ISO_8,1,5,63,98,1825092832
7619,7,Jits_ISO_8,2,5,56,103,1825103104
7619,7,Jits_ISO_8,3,5,80,127,1825112700
7619,7,Jits_ISO_8,0,1,48,51,1825825092
7619,7,Jits_ISO_8,1,5,80,127,1825882508
7619,7,Jits_ISO_8,2,5,56,103,1825932872
7619,7,Jits_ISO_8,3,5,63,98,1825972736
7619,7,Jits_ISO_8,0,5,80,127,1826702704
7619,7,Jits_ISO_8,1,1,48,52,1826703668
7619,7,Jits_ISO_8,2,5,63,98,1826723228
7619,7,Jits_ISO_8,3,5,56,103,1826773356
7619,7,Jits_ISO_8,0,1,48,52,1827470392
7619,7,Jits_ISO_8,1,5,80,127,1827512760
7619,7,Jits_ISO_8,2,5,56,103,1827543556
7619,7,Jits_ISO_8,3,5,63,98,1827613000
7619,7,Jits_ISO_8,0,1,48,53,1828253324
7619,7,Jits_ISO_8,1,5,56,103,1828362724
7619,7,Jits_ISO_8,2,5,80,127,1828372848
7619,7,Jits_ISO_8,3,5,63,98,1828412712
7619,7,Jits_ISO_8,0,5,56,103,1829073152
7619,7,Jits_ISO_8,1,1,48,58,1829079932
7619,7,Jits_ISO_8,2,5,63,98,1829092780
7619,7,Jits_ISO_8,3,5,80,127,1829163436
7619,7,Jits_ISO_8,0,1,48,51,1829880764
7619,7,Jits_ISO_8,1,5,63,98,1829892568
7619,7,Jits_ISO_8,2,5,80,127,1829952888
7619,7,Jits_ISO_8,3,5,56,103,1829973408
7619,7,Jits_ISO_8,0,1,48,50,1830661988
7619,7,Jits_ISO_8,1,5,80,127,1830683064
7619,7,Jits_ISO_8,2,5,56,103,1830712592
7619,7,Jits_ISO_8,3,5,63,98,1830743536
7619,7,Jits_ISO_8,0,1,48,51,1831404972
7619,7,Jits_ISO_8,1,5,56,103,1831482620
7619,7,Jits_ISO_8,2,5,63,98,1831543024
7619,7,Jits_ISO_8,3,5,80,127,1831602592
7619,7,Jits_ISO_8,0,1,48,44,1832215540
7619,7,Jits_ISO_8,1,5,80,127,1832302884
7619,7,Jits_ISO_8,2,5,56,103,1832322728
7619,7,Jits_ISO_8,3,5,63,98,1832393156
7619,7,Jits_ISO_8,0,1,48,43,1833015332
7619,7,Jits_ISO_8,1,5,80,127,1833102744
7619,7,Jits_ISO_8,2,5,63,98,1833123188
7619,7,Jits_ISO_8,3,5,56,103,1833152864
7619,7,Jits_ISO_8,0,1,48,48,1833790080
7619,7,Jits_ISO_8,1,5,80,127,1833893220
7619,7,Jits_ISO_8,2,5,63,98,1833912784
7619,7,Jits_ISO_8,3,5,56,103,1833973100
7619,7,Jits_ISO_8,0,1,48,47,1834579740
7619,7,Jits_ISO_8,1,5,80,127,1834692996
7619,7,Jits_ISO_8,2,5,56,103,1834793396
7619,7,Jits_ISO_8,3,5,63,98,1834823000
7619,7,Jits_ISO_8,0,1,48,48,1835333608
7619,7,Jits_ISO_8,1,5,63,98,1835482448
7619,7,Jits_ISO_8,2,5,80,127,1835532728
7619,7,Jits_ISO_8,3,5,56,103,1835553408
7619,7,Jits_ISO_8,0,1,48,48,1836221536
7619,7,Jits_ISO_8,1,5,80,127,1836323060
7619,7,Jits_ISO_8,2,5,56,103,1836352960
7619,7,Jits_ISO_8,3,5,63,98,1836356024
7619,7,Jits_ISO_8,0,1,48,43,1836997172
7619,7,Jits_ISO_8,1,5,63,98,1837152508
7619,7,Jits_ISO_8,2,5,56,103,1837192548
7619,7,Jits_ISO_8,3,5,80,127,1837213376
7619,7,Jits_ISO_8,0,1,48,43,1837849552
7619,7,Jits_ISO_8,1,5,80,127,1837892896
7619,7,Jits_ISO_8,2,5,63,98,1837972780
7619,7,Jits_ISO_8,3,5,56,103,1838012644
7619,7,Jits_ISO_8,0,5,63,98,1838713464
7619,7,Jits_ISO_8,1,1,48,47,1838729396
7619,7,Jits_ISO_8,2,5,80,127,1838793408
7619,7,Jits_ISO_8,3,5,56,103,1838812524
7619,7,Jits_ISO_8,0,5,56,103,1839552816
7619,7,Jits_ISO_8,1,5,63,98,1839563164
7619,7,Jits_ISO_8,2,1,48,37,1839597748
7619,7,Jits_ISO_8,3,5,80,127,1839603020
7619,7,Jits_ISO_8,0,5,56,103,1840272896
7619,7,Jits_ISO_8,1,5,80,127,1840275892
7619,7,Jits_ISO_8,2,1,48,33,1840316772
7619,7,Jits_ISO_8,3,5,63,98,1840412996
7619,7,Jits_ISO_8,0,5,56,103,1841063388
7619,7,Jits_ISO_8,1,1,48,49,1841111616
7619,7,Jits_ISO_8,2,5,63,98,1841153516
7619,7,Jits_ISO_8,3,5,80,127,1841222960
7619,7,Jits_ISO_8,0,1,48,50,1841900380
7619,7,Jits_ISO_8,1,5,63,98,1841942824
7619,7,Jits_ISO_8,2,5,80,127,1841946188
7619,7,Jits_ISO_8,3,5,56,103,1842003424
7619,7,Jits_ISO_8,0,1,48,48,1842758084
7619,7,Jits_ISO_8,1,5,80,127,1842782540
7619,7,Jits_ISO_8,2,5,56,103,1842803024
7619,7,Jits_ISO_8,3,5,63,98,1842813444
7619,7,Jits_ISO_8,0,5,56,103,1843493328
7619,7,Jits_ISO_8,1,5,63,98,1843502556
7619,7,Jits_ISO_8,2,5,80,127,1843573232
7619,7,Jits_ISO_8,3,1,48,41,1843578444
7619,7,Jits_ISO_8,0,5,80,127,1844292976
7619,7,Jits_ISO_8,1,5,56,103,1844343204
7619,7,Jits_ISO_8,2,1,48,37,1844353744
7619,7,Jits_ISO_8,3,5,63,98,1844393472
7619,7,Jits_ISO_8,0,5,56,103,1845172668
7619,7,Jits_ISO_8,1,5,63,98,1845182788
7619,7,Jits_ISO_8,2,1,48,42,1845185760
7619,7,Jits_ISO_8,3,5,80,127,1845222648
7619,7,Jits_ISO_8,0,5,56,103,1845913352
7619,7,Jits_ISO_8,1,5,63,98,1845952772
7619,7,Jits_ISO_8,2,1,48,45,1845974996
7619,7,Jits_ISO_8,3,5,80,127,1846003192
7619,7,Jits_ISO_8,0,5,80,127,1846672772
7619,7,Jits_ISO_8,1,5,56,103,1846723200
7619,7,Jits_ISO_8,2,5,63,98,1846743360
7619,7,Jits_ISO_8,3,1,48,54,1846769248
7619,7,Jits_ISO_8,0,1,48,48,1847458136
7619,7,Jits_ISO_8,1,5,80,127,1847482744
7619,7,Jits_ISO_8,2,5,63,98,1847543360
7619,7,Jits_ISO_8,3,5,56,103,1847623140
7619,7,Jits_ISO_8,0,5,80,127,1848263128
7619,7,Jits_ISO_8,1,5,56,103,1848303216
7619,7,Jits_ISO_8,2,1,48,42,1848314724
7619,7,Jits_ISO_8,3,5,63,98,1848322396
7619,7,Jits_ISO_8,0,1,48,30,1849071808
7619,7,Jits_ISO_8,1,5,56,103,1849113332
7619,7,Jits_ISO_8,2,5,80,127,1849123680
7619,7,Jits_ISO_8,3,5,63,98,1849164572
7619,7,Jits_ISO_8,0,1,48,46,1849874884
7619,7,Jits_ISO_8,1,5,56,103,1849983336
7619,7,Jits_ISO_8,2,5,63,98,1850023348
7619,7,Jits_ISO_8,3,5,80,127,1850026712
7619,7,Jits_ISO_8,0,5,63,98,1850672452
7619,7,Jits_ISO_8,1,5,80,127,1850712392
7619,7,Jits_ISO_8,2,1,48,56,1850730360
7619,7,Jits_ISO_8,3,5,56,103,1850783284
7619,7,Jits_ISO_8,0,5,63,98,1851463236
7619,7,Jits_ISO_8,1,1,48,50,1851494232
7619,7,Jits_ISO_8,2,5,56,103,1851542832
7619,7,Jits_ISO_8,3,5,80,127,1851603284
7619,7,Jits_ISO_8,0,5,80,127,1852273160
7619,7,Jits_ISO_8,1,5,63,98,1852323068
7619,7,Jits_ISO_8,2,1,48,37,1852324032
7619,7,Jits_ISO_8,3,5,56,103,1852353032
7619,7,Jits_ISO_8,0,5,56,103,1853062396
7619,7,Jits_ISO_8,1,1,48,40,1853104020
7619,7,Jits_ISO_8,2,5,63,98,1853112668
7619,7,Jits_ISO_8,3,5,80,127,1853123160
7619,7,Jits_ISO_8,0,1,48,42,1853862004
7619,7,Jits_ISO_8,1,5,56,103,1853872516
7619,7,Jits_ISO_8,2,5,63,98,1853983088
7619,7,Jits_ISO_8,3,5,80,127,1854002428
7619,7,Jits_ISO_8,0,1,48,41,1854671312
7619,7,Jits_ISO_8,1,5,63,98,1854673196
7619,7,Jits_ISO_8,2,5,80,127,1854722356
7619,7,Jits_ISO_8,3,5,56,103,1854812400
7619,7,Jits_ISO_8,0,1,48,43,1855431004
7619,7,Jits_ISO_8,1,5,63,98,1855462716
7619,7,Jits_ISO_8,2,5,80,127,1855492468
7619,7,Jits_ISO_8,3,5,56,103,1855582436
7619,7,Jits_ISO_8,0,1,48,44,1856221716
7619,7,Jits_ISO_8,1,5,63,98,1856262496
7619,7,Jits_ISO_8,2,5,56,103,1856272692
7619,7,Jits_ISO_8,3,5,80,127,1856373320
7619,7,Jits_ISO_8,0,1,48,42,1856991968
7619,7,Jits_ISO_8,1,5,63,98,1857162608
7619,7,Jits_ISO_8,2,5,80,127,1857193332
7619,7,Jits_ISO_8,3,5,56,103,1857223156
7619,7,Jits_ISO_8,0,1,48,37,1857960056
7619,7,Jits_ISO_8,1,5,80,127,1857983092
7619,7,Jits_ISO_8,2,5,63,98,1857993288
7619,7,Jits_ISO_8,3,5,56,103,1858022668
7619,7,Jits_ISO_8,0,5,80,127,1858683388
7619,7,Jits_ISO_8,1,5,63,98,1858702652
7619,7,Jits_ISO_8,2,5,56,103,1858753228
7619,7,Jits_ISO_8,3,1,48,38,1858781000
7619,7,Jits_ISO_8,0,5,63,98,1859512632
7619,7,Jits_ISO_8,1,1,48,53,1859550672
7619,7,Jits_ISO_8,2,5,80,127,1859573240
7619,7,Jits_ISO_8,3,5,56,103,1859592504
7619,7,Jits_ISO_8,0,5,63,98,1860272476
7619,7,Jits_ISO_8,1,5,56,103,1860322608
7619,7,Jits_ISO_8,2,5,80,127,1860332876
7619,7,Jits_ISO_8,3,1,48,48,1860402228
7619,7,Jits_ISO_8,0,1,48,53,1861039920
7619,7,Jits_ISO_8,1,5,56,103,1861102968
7619,7,Jits_ISO_8,2,5,80,127,1861113240
7619,7,Jits_ISO_8,3,5,63,98,1861212576
7619,7,Jits_ISO_8,0,1,48,52,1861861620
7619,7,Jits_ISO_8,1,5,80,127,1861863264
7619,7,Jits_ISO_8,2,5,63,98,1861873164
7619,7,Jits_ISO_8,3,5,56,103,1862022496
7619,7,Jits_ISO_8,0,1,48,55,1862659568
7619,7,Jits_ISO_8,1,5,63,98,1862672864
7619,7,Jits_ISO_8,2,5,80,127,1862712804
7619,7,Jits_ISO_8,3,5,56,103,1862792536
7619,7,Jits_ISO_8,0,1,48,54,1863443396
7619,7,Jits_ISO_8,1,5,56,103,1863463276
7619,7,Jits_ISO_8,2,5,80,127,1863562492
7619,7,Jits_ISO_8,3,5,63,98,1863583248
7619,7,Jits_ISO_8,0,1,48,51,1864273980
7619,7,Jits_ISO_8,1,5,80,127,1864322280
7619,7,Jits_ISO_8,2,5,56,103,1864332552
7619,7,Jits_ISO_8,3,5,63,98,1864422892
7619,7,Jits_ISO_8,0,1,48,48,1865100768
7619,7,Jits_ISO_8,1,5,56,103,1865123260
7619,7,Jits_ISO_8,2,5,63,98,1865142524
7619,7,Jits_ISO_8,3,5,80,127,1865222604
7619,7,Jits_ISO_8,0,5,63,98,1865872784
7619,7,Jits_ISO_8,1,1,48,51,1865903552
7619,7,Jits_ISO_8,2,5,56,103,1865963060
7619,7,Jits_ISO_8,3,5,80,127,1865966200
7619,7,Jits_ISO_8,0,1,48,49,1866687576
7619,7,Jits_ISO_8,1,5,56,103,1866703188
7619,7,Jits_ISO_8,2,5,80,127,1866762532
7619,7,Jits_ISO_8,3,5,63,98,1866773028
7619,7,Jits_ISO_8,0,1,48,50,1867441368
7619,7,Jits_ISO_8,1,5,80,127,1867553084
7619,7,Jits_ISO_8,2,5,56,103,1867563352
7619,7,Jits_ISO_8,3,5,63,98,1867566644
7619,7,Jits_ISO_8,0,1,48,52,1868284444
7619,7,Jits_ISO_8,1,5,56,103,1868313016
7619,7,Jits_ISO_8,2,5,80,127,1868323136
7619,7,Jits_ISO_8,3,5,63,98,1868342624
7619,7,Jits_ISO_8,0,1,48,47,1869052312
7619,7,Jits_ISO_8,1,5,63,98,1869083052
7619,7,Jits_ISO_8,2,5,80,127,1869143444
7619,7,Jits_ISO_8,3,5,56,103,1869192756
7619,7,Jits_ISO_8,0,1,48,47,1869842352
7619,7,Jits_ISO_8,1,5,63,98,1869962936
7619,7,Jits_ISO_8,2,5,56,103,1869972840
7619,7,Jits_ISO_8,3,5,80,127,1870022968
7619,7,Jits_ISO_8,0,5,63,98,1870662928
7619,7,Jits_ISO_8,1,5,80,127,1870682344
7619,7,Jits_ISO_8,2,1,48,48,1870686436
7619,7,Jits_ISO_8,3,5,56,103,1870692828
7619,7,Jits_ISO_8,0,1,48,52,1871436896
7619,7,Jits_ISO_8,1,5,63,98,1871463072
7619,7,Jits_ISO_8,2,5,80,127,1871466232
7619,7,Jits_ISO_8,3,5,56,103,1871502956
7619,7,Jits_ISO_8,0,1,48,51,1872180552
7619,7,Jits_ISO_8,1,5,63,98,1872333200
7619,7,Jits_ISO_8,2,5,80,127,1872362876
7619,7,Jits_ISO_8,3,5,56,103,1872373148
7619,7,Jits_ISO_8,0,1,48,48,1873039904
7619,7,Jits_ISO_8,1,5,56,103,1873082944
7619,7,Jits_ISO_8,2,5,80,127,1873112324
7619,7,Jits_ISO_8,3,5,63,98,1873143032
7619,7,Jits_ISO_8,0,1,48,48,1873835644
7619,7,Jits_ISO_8,1,5,63,98,1873982884
7619,7,Jits_ISO_8,2,5,56,103,1874022972
7619,7,Jits_ISO_8,3,5,80,127,1874025992
7619,7,Jits_ISO_8,0,5,80,127,1874683116
7619,7,Jits_ISO_8,1,5,56,103,1874763064
7619,7,Jits_ISO_8,2,1,48,48,1874791664
7619,7,Jits_ISO_8,3,5,63,98,1874813284
7619,7,Jits_ISO_8,0,5,80,127,1875462464
7619,7,Jits_ISO_8,1,5,56,103,1875482924
7619,7,Jits_ISO_8,2,1,48,42,1875532200
7619,7,Jits_ISO_8,3,5,63,98,1875573000
7619,7,Jits_ISO_8,0,5,80,127,1876303240
7619,7,Jits_ISO_8,1,1,48,42,1876314232
7619,7,Jits_ISO_8,2,5,63,98,1876343124
7619,7,Jits_ISO_8,3,5,56,103,1876382988
7619,7,Jits_ISO_8,0,5,63,98,1877073220
7619,7,Jits_ISO_8,1,1,48,38,1877096964
7619,7,Jits_ISO_8,2,5,80,127,1877132804
7619,7,Jits_ISO_8,3,5,56,103,1877163232
7619,7,Jits_ISO_8,0,5,56,103,1877873024
7619,7,Jits_ISO_8,1,5,80,127,1877902924
7619,7,Jits_ISO_8,2,1,48,35,1877928588
7619,7,Jits_ISO_8,3,5,63,98,1877992824
7619,7,Jits_ISO_8,0,5,56,103,1878682932
7619,7,Jits_ISO_8,1,1,48,33,1878743968
7619,7,Jits_ISO_8,2,5,80,127,1878792840
7619,7,Jits_ISO_8,3,5,63,98,1878823268
7619,7,Jits_ISO_8,0,5,56,103,1879532856
7619,7,Jits_ISO_8,1,1,48,53,1879541004
7619,7,Jits_ISO_8,2,5,63,98,1879593316
7619,7,Jits_ISO_8,3,5,80,127,1879622920
7619,7,Jits_ISO_8,0,1,48,40,1880294716
7619,7,Jits_ISO_8,1,5,56,103,1880302908
7619,7,Jits_ISO_8,2,5,63,98,1880372520
7619,7,Jits_ISO_8,3,5,80,127,1880393556
7619,7,Jits_ISO_8,0,5,80,127,1881072956
7619,7,Jits_ISO_8,1,1,48,43,1881090856
7619,7,Jits_ISO_8,2,5,63,98,1881092584
7619,7,Jits_ISO_8,3,5,56,103,1881142788
7619,7,Jits_ISO_8,0,9999,9999,9999,1786340460
7619,7,Jits_ISO_8,1,9999,9999,9999,1787140152
7619,7,Jits_ISO_8,2,9999,9999,9999,1787940920
7619,7,Jits_ISO_8,3,9999,9999,9999,1788740720
7619,7,Jits_ISO_8,4,9999,9999,9999,1789540424
7619,7,Jits_ISO_8,5,9999,9999,9999,1790340156
7619,7,Jits_ISO_8,6,9999,9999,9999,1791140980
7619,7,Jits_ISO_8,7,9999,9999,9999,1791940692
7619,7,Jits_ISO_8,8,9999,9999,9999,1792740456
7619,7,Jits_ISO_8,9,9999,9999,9999,1793540152
7619,7,Jits_ISO_8,10,9999,9999,9999,1794340916
7619,7,Jits_ISO_8,11,9999,9999,9999,1795140700
7619,7,Jits_ISO_8,12,9999,9999,9999,1795940412
7619,7,Jits_ISO_8,13,9999,9999,9999,1796740212
7619,7,Jits_ISO_8,14,9999,9999,9999,1797540956
7619,7,Jits_ISO_8,15,9999,9999,9999,1798340728
7619,7,Jits_ISO_8,16,9999,9999,9999,1799140424
7619,7,Jits_ISO_8,17,9999,9999,9999,1799940212
7619,7,Jits_ISO_8,18,9999,9999,9999,1800740972
7619,7,Jits_ISO_8,19,9999,9999,9999,1801540688
7619,7,Jits_ISO_8,20,9999,9999,9999,1802340468
7619,7,Jits_ISO_8,21,9999,9999,9999,1803140196
7619,7,Jits_ISO_8,22,9999,9999,9999,1803940940
7619,7,Jits_ISO_8,23,9999,9999,9999,1804740724
7619,7,Jits_ISO_8,24,9999,9999,9999,1805540432
7619,7,Jits_ISO_8,25,9999,9999,9999,1806340212
7619,7,Jits_ISO_8,26,9999,9999,9999,1807140968
7619,7,Jits_ISO_8,27,9999,9999,9999,1807940676
7619,7,Jits_ISO_8,28,9999,9999,9999,1808740456
7619,7,Jits_ISO_8,29,9999,9999,9999,1809540192
7619,7,Jits_ISO_8,30,9999,9999,9999,1810340944
7619,7,Jits_ISO_8,31,9999,9999,9999,1811140728
7619,7,Jits_ISO_8,32,9999,9999,9999,1811940432
7619,7,Jits_ISO_8,33,9999,9999,9999,1812740208
7619,7,Jits_ISO_8,34,9999,9999,9999,1813540964
7619,7,Jits_ISO_8,35,9999,9999,9999,1814340680
7619,7,Jits_ISO_8,36,9999,9999,9999,1815140468
7619,7,Jits_ISO_8,37,9999,9999,9999,1815940196
7619,7,Jits_ISO_8,38,9999,9999,9999,1816740948
7619,7,Jits_ISO_8,39,9999,9999,9999,1817540676
7619,7,Jits_ISO_8,40,9999,9999,9999,1818340460
7619,7,Jits_ISO_8,41,9999,9999,9999,1819140172
7619,7,Jits_ISO_8,42,9999,9999,9999,1819940924
7619,7,Jits_ISO_8,43,9999,9999,9999,1820740700
7619,7,Jits_ISO_8,44,9999,9999,9999,1821540468
7619,7,Jits_ISO_8,45,9999,9999,9999,1822340200
7619,7,Jits_ISO_8,46,9999,9999,9999,1823140956
7619,7,Jits_ISO_8,47,9999,9999,9999,1823940708
7619,7,Jits_ISO_8,48,9999,9999,9999,1824740468
7619,7,Jits_ISO_8,49,9999,9999,9999,1825540172
7619,7,Jits_ISO_8,50,9999,9999,9999,1826340924
7619,7,Jits_ISO_8,51,9999,9999,9999,1827140708
7619,7,Jits_ISO_8,52,9999,9999,9999,1827940436
7619,7,Jits_ISO_8,53,9999,9999,9999,1828740172
7619,7,Jits_ISO_8,54,9999,9999,9999,1829540924
7619,7,Jits_ISO_8,55,9999,9999,9999,1830340724
7619,7,Jits_ISO_8,56,9999,9999,9999,1831140432
7619,7,Jits_ISO_8,57,9999,9999,9999,1831940212
7619,7,Jits_ISO_8,58,9999,9999,9999,1832740972
7619,7,Jits_ISO_8,59,9999,9999,9999,1833540680
7619,7,Jits_ISO_8,60,9999,9999,9999,1834340464
7619,7,Jits_ISO_8,61,9999,9999,9999,1835140196
7619,7,Jits_ISO_8,62,9999,9999,9999,1835940952
7619,7,Jits_ISO_8,63,9999,9999,9999,1836740728
7619,7,Jits_ISO_8,64,9999,9999,9999,1837540444
7619,7,Jits_ISO_8,65,9999,9999,9999,1838340152
7619,7,Jits_ISO_8,66,9999,9999,9999,1839140916
7619,7,Jits_ISO_8,67,9999,9999,9999,1839940704
7619,7,Jits_ISO_8,68,9999,9999,9999,1840740416
7619,7,Jits_ISO_8,69,9999,9999,9999,1841540160
7619,7,Jits_ISO_8,70,9999,9999,9999,1842340924
7619,7,Jits_ISO_8,71,9999,9999,9999,1843140720
7619,7,Jits_ISO_8,72,9999,9999,9999,1843940428
7619,7,Jits_ISO_8,73,9999,9999,9999,1844740148
7619,7,Jits_ISO_8,74,9999,9999,9999,1845540928
7619,7,Jits_ISO_8,75,9999,9999,9999,1846340724
7619,7,Jits_ISO_8,76,9999,9999,9999,1847140448
7619,7,Jits_ISO_8,77,9999,9999,9999,1847940188
7619,7,Jits_ISO_8,78,9999,9999,9999,1848740936
7619,7,Jits_ISO_8,79,9999,9999,9999,1849540660
7619,7,Jits_ISO_8,80,9999,9999,9999,1850340444
7619,7,Jits_ISO_8,81,9999,9999,9999,1851140152
7619,7,Jits_ISO_8,82,9999,9999,9999,1851940980
7619,7,Jits_ISO_8,83,9999,9999,9999,1852740688
7619,7,Jits_ISO_8,84,9999,9999,9999,1853540404
7619,7,Jits_ISO_8,85,9999,9999,9999,1854340152
7619,7,Jits_ISO_8,86,9999,9999,9999,1855140980
7619,7,Jits_ISO_8,87,9999,9999,9999,1855940684
7619,7,Jits_ISO_8,88,9999,9999,9999,1856740464
7619,7,Jits_ISO_8,89,9999,9999,9999,1857540180
7619,7,Jits_ISO_8,90,9999,9999,9999,1858340944
7619,7,Jits_ISO_8,91,9999,9999,9999,1859140724
7619,7,Jits_ISO_8,92,9999,9999,9999,1859940452
7619,7,Jits_ISO_8,93,9999,9999,9999,1860740176
7619,7,Jits_ISO_8,94,9999,9999,9999,1861540932
7619,7,Jits_ISO_8,95,9999,9999,9999,1862340716
7619,7,Jits_ISO_8,96,9999,9999,9999,1863140424
7619,7,Jits_ISO_8,97,9999,9999,9999,1863940204
7619,7,Jits_ISO_8,98,9999,9999,9999,1864740964
7619,7,Jits_ISO_8,99,9999,9999,9999,1865540676
7619,7,Jits_ISO_8,100,9999,9999,9999,1866340452
7619,7,Jits_ISO_8,101,9999,9999,9999,1867140180
7619,7,Jits_ISO_8,102,9999,9999,9999,1867940932
7619,7,Jits_ISO_8,103,9999,9999,9999,1868740712
7619,7,Jits_ISO_8,104,9999,9999,9999,1869540424
7619,7,Jits_ISO_8,105,9999,9999,9999,1870340216
7619,7,Jits_ISO_8,106,9999,9999,9999,1871140960
7619,7,Jits_ISO_8,107,9999,9999,9999,1871940724
7619,7,Jits_ISO_8,108,9999,9999,9999,1872740440
7619,7,Jits_ISO_8,109,9999,9999,9999,1873540164
7619,7,Jits_ISO_8,110,9999,9999,9999,1874340920
7619,7,Jits_ISO_8,111,9999,9999,9999,1875140704
7619,7,Jits_ISO_8,112,9999,9999,9999,1875940428
7619,7,Jits_ISO_8,113,9999,9999,9999,1876740152
7619,7,Jits_ISO_8,114,9999,9999,9999,1877540916
7619,7,Jits_ISO_8,115,9999,9999,9999,1878340696
7619,7,Jits_ISO_8,116,9999,9999,9999,1879140428
7619,7,Jits_ISO_8,117,9999,9999,9999,1879940176
7619,7,Jits_ISO_8,118,9999,9999,9999,1880740948
7619,7,Jits_ISO_8,119,9999,9999,9999,1881540728
7620,5,ISIP_5,0,5,42,127,1936318772
7620,5,ISIP_5,1,5,42,127,1936818492
7620,5,ISIP_5,2,1,48,62,1936982496
7620,5,ISIP_5,3,5,42,127,1937319156
7620,5,ISIP_5,4,1,48,56,1937382564
7620,5,ISIP_5,5,5,42,127,1937819076
7620,5,ISIP_5,6,1,48,48,1937848672
7620,5,ISIP_5,7,5,42,127,1938318844
7620,5,ISIP_5,8,1,48,43,1938333708
7620,5,ISIP_5,9,5,42,127,1938818540
7620,5,ISIP_5,10,1,48,47,1938853820
7620,5,ISIP_5,11,5,42,127,1939319132
7620,5,ISIP_5,12,1,48,51,1939338108
7620,5,ISIP_5,13,1,48,46,1939795500
7620,5,ISIP_5,14,5,42,127,1939818820
7620,5,ISIP_5,15,1,48,51,1940304992
7620,5,ISIP_5,16,5,42,127,1940318788
7620,5,ISIP_5,17,1,48,43,1940790100
7620,5,ISIP_5,18,5,42,127,1940819156
7620,5,ISIP_5,19,1,48,31,1941246932
7620,5,ISIP_5,20,5,42,127,1941318928
7620,5,ISIP_5,21,1,48,32,1941733396
7620,5,ISIP_5,22,5,42,127,1941818624
7620,5,ISIP_5,23,1,48,48,1942258968
7620,5,ISIP_5,24,5,42,127,1942318468
7620,5,ISIP_5,25,1,48,35,1942721716
7620,5,ISIP_5,26,5,42,127,1942819284
7620,5,ISIP_5,27,1,48,40,1943258136
7620,5,ISIP_5,28,5,42,127,1943318832
7620,5,ISIP_5,29,1,48,46,1943798000
7620,5,ISIP_5,30,5,42,127,1943818600
7620,5,ISIP_5,31,1,48,48,1944310184
7620,5,ISIP_5,32,5,42,127,1944319416
7620,5,ISIP_5,33,1,48,40,1944745848
7620,5,ISIP_5,34,5,42,127,1944818964
7620,5,ISIP_5,35,1,48,40,1945252428
7620,5,ISIP_5,36,5,42,127,1945318732
7620,5,ISIP_5,37,1,48,38,1945752416
7620,5,ISIP_5,38,5,42,127,1945818648
7620,5,ISIP_5,39,1,48,53,1946262212
7620,5,ISIP_5,40,5,42,127,1946319168
7620,5,ISIP_5,41,1,48,49,1946772152
7620,5,ISIP_5,42,5,42,127,1946818864
7620,5,ISIP_5,43,1,48,43,1947307156
7620,5,ISIP_5,44,5,42,127,1947318632
7620,5,ISIP_5,45,1,48,47,1947793688
7620,5,ISIP_5,46,5,42,127,1947819448
7620,5,ISIP_5,47,1,48,46,1948304224
7620,5,ISIP_5,48,5,42,127,1948319068
7620,5,ISIP_5,49,1,48,43,1948790832
7620,5,ISIP_5,50,5,42,127,1948818840
7620,5,ISIP_5,51,1,48,48,1949286112
7620,5,ISIP_5,52,5,42,127,1949318608
7620,5,ISIP_5,53,1,48,48,1949789448
7620,5,ISIP_5,54,5,42,127,1949819200
7620,5,ISIP_5,55,1,48,49,1950259304
7620,5,ISIP_5,56,5,42,127,1950318896
7620,5,ISIP_5,57,1,48,54,1950767520
7620,5,ISIP_5,58,5,42,127,1950818644
7620,5,ISIP_5,59,1,48,42,1951297052
7620,5,ISIP_5,60,5,42,127,1951319376
7620,5,ISIP_5,61,1,48,52,1951789568
7620,5,ISIP_5,62,5,42,127,1951819220
7620,5,ISIP_5,63,1,48,44,1952301000
7620,5,ISIP_5,64,5,42,127,1952318692
7620,5,ISIP_5,65,1,48,40,1952803992
7620,5,ISIP_5,66,5,42,127,1952818536
7620,5,ISIP_5,67,1,48,47,1953306976
7620,5,ISIP_5,68,5,42,127,1953319352
7620,5,ISIP_5,69,1,48,48,1953800160
7620,5,ISIP_5,70,5,42,127,1953818972
7620,5,ISIP_5,71,1,48,53,1954307116
7620,5,ISIP_5,72,5,42,127,1954318740
7620,5,ISIP_5,73,1,48,49,1954802020
7620,5,ISIP_5,74,5,42,127,1954818512
7620,5,ISIP_5,75,1,48,46,1955303956
7620,5,ISIP_5,76,5,42,127,1955319252
7620,5,ISIP_5,77,1,48,50,1955792804
7620,5,ISIP_5,78,5,42,127,1955819020
7620,5,ISIP_5,79,1,48,45,1956278740
7620,5,ISIP_5,80,1,48,47,1956787632
7620,5,ISIP_5,81,1,48,51,1957283212
7620,5,ISIP_5,82,1,48,44,1957820236
7620,5,ISIP_5,83,1,48,48,1958297704
7620,5,ISIP_5,84,1,48,43,1958785052
7620,5,ISIP_5,85,1,48,46,1959283020
7620,5,ISIP_5,86,1,48,43,1959801188
7620,5,ISIP_5,87,1,48,48,1960326324
7620,5,ISIP_5,88,1,48,44,1960818380
7620,5,ISIP_5,89,1,48,45,1961294396
7620,5,ISIP_5,90,1,48,48,1961794764
7620,5,ISIP_5,91,1,48,51,1962290712
7620,5,ISIP_5,92,1,48,43,1962798184
7620,5,ISIP_5,93,1,48,45,1963297272
7620,5,ISIP_5,94,1,48,46,1963810724
7620,5,ISIP_5,95,1,48,43,1964308920
7620,5,ISIP_5,96,1,48,46,1964816164
7620,5,ISIP_5,97,1,48,47,1965327392
7620,5,ISIP_5,98,1,48,44,1965850560
7620,5,ISIP_5,99,1,48,41,1966332900
7620,5,ISIP_5,100,1,48,47,1966832072
7620,5,ISIP_5,101,1,48,51,1967307812
7620,5,ISIP_5,102,1,48,43,1967818436
7620,5,ISIP_5,103,1,48,47,1968324408
7620,5,ISIP_5,104,1,48,45,1968822828
7620,5,ISIP_5,105,1,48,43,1969331572
7620,5,ISIP_5,106,1,48,44,1969824304
7620,5,ISIP_5,107,1,48,43,1970336632
7620,5,ISIP_5,108,1,48,44,1970820472
7620,5,ISIP_5,109,1,48,49,1971325844
7620,5,ISIP_5,110,1,48,43,1971839224
7620,5,ISIP_5,111,1,48,41,1972333228
7620,5,ISIP_5,112,1,48,48,1972825716
7620,5,ISIP_5,113,1,48,47,1973320768
7620,5,ISIP_5,114,1,48,45,1973802640
7620,5,ISIP_5,115,1,48,43,1974318356
7620,5,ISIP_5,116,1,48,47,1974815040
7620,5,ISIP_5,117,1,48,44,1975294236
7620,5,ISIP_5,118,1,48,45,1975819968
7620,5,ISIP_5,119,1,48,46,1976312536
7620,5,ISIP_5,120,1,48,44,1976805120
7620,5,ISIP_5,121,1,48,46,1977305712
7620,5,ISIP_5,122,1,48,44,1977800684
7620,5,ISIP_5,123,1,48,45,1978275100
7620,5,ISIP_5,124,1,48,39,1978755568
7620,5,ISIP_5,125,1,48,43,1979256752
7620,5,ISIP_5,126,1,48,47,1979750836
7620,5,ISIP_5,127,1,48,38,1980255288
7620,5,ISIP_5,128,1,48,46,1980764628
7620,5,ISIP_5,129,1,48,43,1981278752
7620,5,ISIP_5,130,1,48,41,1981744412
7620,5,ISIP_5,131,1,48,43,1982230564
7620,5,ISIP_5,132,1,48,41,1982735712
7620,5,ISIP_5,133,1,48,48,1983230988
7620,5,ISIP_5,134,1,48,45,1983733372
7620,5,ISIP_5,135,1,48,47,1984238824
7620,5,ISIP_5,136,1,48,45,1984756388
7620,5,ISIP_5,137,1,48,50,1985253392
7620,5,ISIP_5,138,1,48,48,1985760488
7620,5,ISIP_5,139,1,48,47,1986252620
7620,5,ISIP_5,140,1,48,47,1986754780
7620,5,ISIP_5,141,1,48,42,1987267260
7620,5,ISIP_5,142,1,48,48,1987773384
7620,5,ISIP_5,143,1,48,38,1988274044
7620,5,ISIP_5,144,1,48,47,1988757584
7620,5,ISIP_5,145,1,48,49,1989235360
7620,5,ISIP_5,146,1,48,46,1989734000
7620,5,ISIP_5,147,1,48,46,1990232020
7620,5,ISIP_5,148,1,48,47,1990747348
7620,5,ISIP_5,149,1,48,50,1991235292
7620,5,ISIP_5,150,1,48,43,1991718600
7620,5,ISIP_5,151,1,48,46,1992232652
7620,5,ISIP_5,152,1,48,43,1992724492
7620,5,ISIP_5,153,1,48,48,1993223580
7620,5,ISIP_5,154,1,48,50,1993705244
7620,5,ISIP_5,155,1,48,47,1994199180
7620,5,ISIP_5,156,1,48,49,1994727288
7620,5,ISIP_5,157,1,48,40,1995260416
7620,5,ISIP_5,158,1,48,43,1995744400
7620,5,ISIP_5,159,1,48,39,1996217760
7620,5,ISIP_5,160,1,48,39,1996733756
7620,5,ISIP_5,161,1,48,40,1997187596
7620,5,ISIP_5,162,1,48,52,1997702768
7620,5,ISIP_5,163,1,48,45,1998207176
7620,5,ISIP_5,164,1,48,39,1998696544
7620,5,ISIP_5,165,1,48,45,1999161728
7620,5,ISIP_5,166,1,48,46,1999657300
7620,5,ISIP_5,167,1,48,47,2000145024
7620,5,ISIP_5,168,1,48,41,2000626016
7620,5,ISIP_5,169,1,48,52,2001148292
7620,5,ISIP_5,170,1,48,47,2001603104
7620,5,ISIP_5,171,1,48,49,2002119324
7620,5,ISIP_5,172,1,48,45,2002584836
7620,5,ISIP_5,173,1,48,42,2003100156
7620,5,ISIP_5,174,1,48,46,2003558636
7620,5,ISIP_5,175,1,48,45,2004059348
7620,5,ISIP_5,176,1,48,42,2004564276
7620,5,ISIP_5,177,1,48,49,2005057608
7620,5,ISIP_5,178,1,48,46,2005541660
7620,5,ISIP_5,179,1,48,46,2006038812
7620,5,ISIP_5,180,1,48,44,2006551888
7620,5,ISIP_5,181,1,48,41,2007068260
7620,5,ISIP_5,182,1,48,42,2007583428
7620,5,ISIP_5,183,1,48,38,2008042660
7620,5,ISIP_5,184,1,48,43,2008552596
7620,5,ISIP_5,185,1,48,42,2009054680
7620,5,ISIP_5,186,1,48,39,2009553544
7620,5,ISIP_5,187,1,48,43,2010043288
7620,5,ISIP_5,188,1,48,15,2010142976
7620,5,ISIP_5,189,1,48,40,2010523584
7620,5,ISIP_5,190,1,48,45,2011036588
7620,5,ISIP_5,191,1,48,43,2011523936
7620,5,ISIP_5,192,1,48,41,2012042408
7620,5,ISIP_5,193,1,48,36,2012559452
7620,5,ISIP_5,194,1,48,46,2013027800
7620,5,ISIP_5,195,1,48,43,2013546112
7620,5,ISIP_5,196,1,48,41,2014021772
7620,5,ISIP_5,197,1,48,44,2014520340
7620,5,ISIP_5,198,1,48,46,2015017484
7620,5,ISIP_5,199,1,48,48,2015508420
7620,5,ISIP_5,200,1,48,43,2016025316
7620,5,ISIP_5,0,9999,9999,9999,1936316484
7620,5,ISIP_5,1,9999,9999,9999,1936816204
7620,5,ISIP_5,2,9999,9999,9999,1937316944
7620,5,ISIP_5,3,9999,9999,9999,1937816636
7620,5,ISIP_5,4,9999,9999,9999,1938316408
7620,5,ISIP_5,5,9999,9999,9999,1938816104
7620,5,ISIP_5,6,9999,9999,9999,1939316844
7620,5,ISIP_5,7,9999,9999,9999,1939816532
7620,5,ISIP_5,8,9999,9999,9999,1940316276
7620,5,ISIP_5,9,9999,9999,9999,1940816944
7620,5,ISIP_5,10,9999,9999,9999,1941316716
7620,5,ISIP_5,11,9999,9999,9999,1941816408
7620,5,ISIP_5,12,9999,9999,9999,1942316104
7620,5,ISIP_5,13,9999,9999,9999,1942816848
7620,5,ISIP_5,14,9999,9999,9999,1943316540
7620,5,ISIP_5,15,9999,9999,9999,1943816312
7620,5,ISIP_5,16,9999,9999,9999,1944316980
7620,5,ISIP_5,17,9999,9999,9999,1944816748
7620,5,ISIP_5,18,9999,9999,9999,1945316444
7620,5,ISIP_5,19,9999,9999,9999,1945816140
7620,5,ISIP_5,20,9999,9999,9999,1946316880
7620,5,ISIP_5,21,9999,9999,9999,1946816576
7620,5,ISIP_5,22,9999,9999,9999,1947316272
7620,5,ISIP_5,23,9999,9999,9999,1947817012
7620,5,ISIP_5,24,9999,9999,9999,1948316784
7620,5,ISIP_5,25,9999,9999,9999,1948816476
7620,5,ISIP_5,26,9999,9999,9999,1949316172
7620,5,ISIP_5,27,9999,9999,9999,1949816912
7620,5,ISIP_5,28,9999,9999,9999,1950316612
7620,5,ISIP_5,29,9999,9999,9999,1950816356
7620,5,ISIP_5,30,9999,9999,9999,1951317088
7620,5,ISIP_5,31,9999,9999,9999,1951816784
7620,5,ISIP_5,32,9999,9999,9999,1952316480
7620,5,ISIP_5,33,9999,9999,9999,1952816248
7620,5,ISIP_5,34,9999,9999,9999,1953316916
7620,5,ISIP_5,35,9999,9999,9999,1953816684
7620,5,ISIP_5,36,9999,9999,9999,1954316380
7620,5,ISIP_5,37,9999,9999,9999,1954816072
7620,5,ISIP_5,38,9999,9999,9999,1955316816
7620,5,ISIP_5,39,9999,9999,9999,1955816508
7620,5,ISIP_5,40,9999,9999,9999,1956316280
7620,5,ISIP_5,41,9999,9999,9999,1956816944
7620,5,ISIP_5,42,9999,9999,9999,1957316708
7620,5,ISIP_5,43,9999,9999,9999,1957816408
7620,5,ISIP_5,44,9999,9999,9999,1958316092
7620,5,ISIP_5,45,9999,9999,9999,1958816832
7620,5,ISIP_5,46,9999,9999,9999,1959316596
7620,5,ISIP_5,47,9999,9999,9999,1959816288
7620,5,ISIP_5,48,9999,9999,9999,1960317028
7620,5,ISIP_5,49,9999,9999,9999,1960816720
7620,5,ISIP_5,50,9999,9999,9999,1961316404
7620,5,ISIP_5,51,9999,9999,9999,1961816144
7620,5,ISIP_5,52,9999,9999,9999,1962316880
7620,5,ISIP_5,53,9999,9999,9999,1962816572
7620,5,ISIP_5,54,9999,9999,9999,1963316336
7620,5,ISIP_5,55,9999,9999,9999,1963817076
7620,5,ISIP_5,56,9999,9999,9999,1964316764
7620,5,ISIP_5,57,9999,9999,9999,1964816456
7620,5,ISIP_5,58,9999,9999,9999,1965316152
7620,5,ISIP_5,59,9999,9999,9999,1965816888
7620,5,ISIP_5,60,9999,9999,9999,1966316652
7620,5,ISIP_5,61,9999,9999,9999,1966816344
7620,5,ISIP_5,62,9999,9999,9999,1967317076
7620,5,ISIP_5,63,9999,9999,9999,1967816776
7620,5,ISIP_5,64,9999,9999,9999,1968316464
7620,5,ISIP_5,65,9999,9999,9999,1968816232
7620,5,ISIP_5,66,9999,9999,9999,1969316968
7620,5,ISIP_5,67,9999,9999,9999,1969816660
7620,5,ISIP_5,68,9999,9999,9999,1970316348
7620,5,ISIP_5,69,9999,9999,9999,1970816116
7620,5,ISIP_5,70,9999,9999,9999,1971316852
7620,5,ISIP_5,71,9999,9999,9999,1971816544
7620,5,ISIP_5,72,9999,9999,9999,1972316208
7620,5,ISIP_5,73,9999,9999,9999,1972816948
7620,5,ISIP_5,74,9999,9999,9999,1973316712
7620,5,ISIP_5,75,9999,9999,9999,1973816396
7620,5,ISIP_5,76,9999,9999,9999,1974316092
7620,5,ISIP_5,77,9999,9999,9999,1974816824
7620,5,ISIP_5,78,9999,9999,9999,1975316588
7620,5,ISIP_5,79,9999,9999,9999,1975816288
7620,5,ISIP_5,80,9999,9999,9999,1976317016
7620,5,ISIP_5,81,9999,9999,9999,1976816708
7620,5,ISIP_5,82,9999,9999,9999,1977316472
7620,5,ISIP_5,83,9999,9999,9999,1977816164
7620,5,ISIP_5,84,9999,9999,9999,1978316900
7620,5,ISIP_5,85,9999,9999,9999,1978816592
7620,5,ISIP_5,86,9999,9999,9999,1979316284
7620,5,ISIP_5,87,9999,9999,9999,1979817020
7620,5,ISIP_5,88,9999,9999,9999,1980316784
7620,5,ISIP_5,89,9999,9999,9999,1980816476
7620,5,ISIP_5,90,9999,9999,9999,1981316168
7620,5,ISIP_5,91,9999,9999,9999,1981816904
7620,5,ISIP_5,92,9999,9999,9999,1982316592
7620,5,ISIP_5,93,9999,9999,9999,1982816336
7620,5,ISIP_5,94,9999,9999,9999,1983317072
7620,5,ISIP_5,95,9999,9999,9999,1983816764
7620,5,ISIP_5,96,9999,9999,9999,1984316528
7620,5,ISIP_5,97,9999,9999,9999,1984816220
7620,5,ISIP_5,98,9999,9999,9999,1985316956
7620,5,ISIP_5,99,9999,9999,9999,1985816648
7620,5,ISIP_5,100,9999,9999,9999,1986316340
7620,5,ISIP_5,101,9999,9999,9999,1986816104
7620,5,ISIP_5,102,9999,9999,9999,1987316840
7620,5,ISIP_5,103,9999,9999,9999,1987816536
7620,5,ISIP_5,104,9999,9999,9999,1988316224
7620,5,ISIP_5,105,9999,9999,9999,1988816964
7620,5,ISIP_5,106,9999,9999,9999,1989316728
7620,5,ISIP_5,107,9999,9999,9999,1989816420
7620,5,ISIP_5,108,9999,9999,9999,1990316112
7620,5,ISIP_5,109,9999,9999,9999,1990816848
7620,5,ISIP_5,110,9999,9999,9999,1991316540
7620,5,ISIP_5,111,9999,9999,9999,1991816288
7620,5,ISIP_5,112,9999,9999,9999,1992317040
7620,5,ISIP_5,113,9999,9999,9999,1992816732
7620,5,ISIP_5,114,9999,9999,9999,1993316420
7620,5,ISIP_5,115,9999,9999,9999,1993816144
7620,5,ISIP_5,116,9999,9999,9999,1994316884
7620,5,ISIP_5,117,9999,9999,9999,1994816588
7620,5,ISIP_5,118,9999,9999,9999,1995316280
7620,5,ISIP_5,119,9999,9999,9999,1995817016
7620,5,ISIP_5,120,9999,9999,9999,1996316768
7620,5,ISIP_5,121,9999,9999,9999,1996816472
7620,5,ISIP_5,122,9999,9999,9999,1997316148
7620,5,ISIP_5,123,9999,9999,9999,1997816884
7620,5,ISIP_5,124,9999,9999,9999,1998316652
7620,5,ISIP_5,125,9999,9999,9999,1998816344
7620,5,ISIP_5,126,9999,9999,9999,1999317080
7620,5,ISIP_5,127,9999,9999,9999,1999816768
7620,5,ISIP_5,128,9999,9999,9999,2000316532
7620,5,ISIP_5,129,9999,9999,9999,2000816224
7620,5,ISIP_5,130,9999,9999,9999,2001316964
7620,5,ISIP_5,131,9999,9999,9999,2001816652
7620,5,ISIP_5,132,9999,9999,9999,2002316344
7620,5,ISIP_5,133,9999,9999,9999,2002816112
7620,5,ISIP_5,134,9999,9999,9999,2003316848
7620,5,ISIP_5,135,9999,9999,9999,2003816536
7620,5,ISIP_5,136,9999,9999,9999,2004316276
7620,5,ISIP_5,137,9999,9999,9999,2004817016
7620,5,ISIP_5,138,9999,9999,9999,2005316704
7620,5,ISIP_5,139,9999,9999,9999,2005816396
7620,5,ISIP_5,140,9999,9999,9999,2006316084
7620,5,ISIP_5,141,9999,9999,9999,2006816824
7620,5,ISIP_5,142,9999,9999,9999,2007316588
7620,5,ISIP_5,143,9999,9999,9999,2007816276
7620,5,ISIP_5,144,9999,9999,9999,2008317012
7620,5,ISIP_5,145,9999,9999,9999,2008816704
7620,5,ISIP_5,146,9999,9999,9999,2009316472
7620,5,ISIP_5,147,9999,9999,9999,2009816160
7620,5,ISIP_5,148,9999,9999,9999,2010316876
7620,5,ISIP_5,149,9999,9999,9999,2010816568
7620,5,ISIP_5,150,9999,9999,9999,2011316332
7620,5,ISIP_5,151,9999,9999,9999,2011817072
7620,5,ISIP_5,152,9999,9999,9999,2012316760
7620,5,ISIP_5,153,9999,9999,9999,2012816452
7620,5,ISIP_5,154,9999,9999,9999,2013316144
7620,5,ISIP_5,155,9999,9999,9999,2013816880
7620,5,ISIP_5,156,9999,9999,9999,2014316648
7620,5,ISIP_5,157,9999,9999,9999,2014816320
7620,5,ISIP_5,158,9999,9999,9999,2015317048
7620,5,ISIP_5,159,9999,9999,9999,2015816812
7621,3,ISIP_8,0,5,42,127,2046007784
7621,3,ISIP_8,1,1,48,47,2046444856
7621,3,ISIP_8,2,5,42,127,2046808340
7621,3,ISIP_8,3,1,48,52,2047516732
7621,3,ISIP_8,4,5,42,127,2047608040
7621,3,ISIP_8,5,1,48,59,2048305540
7621,3,ISIP_8,6,5,42,127,2048407832
7621,3,ISIP_8,7,1,48,56,2049122948
7621,3,ISIP_8,8,5,42,127,2049207728
7621,3,ISIP_8,9,1,48,57,2049921560
7621,3,ISIP_8,10,5,42,127,2050008288
7621,3,ISIP_8,11,1,48,57,2050739992
7621,3,ISIP_8,12,5,42,127,2050808168
7621,3,ISIP_8,13,1,48,60,2051560820
7621,3,ISIP_8,14,5,42,127,2051607976
7621,3,ISIP_8,15,1,48,49,2052305204
7621,3,ISIP_8,16,5,42,127,2052407548
7621,3,ISIP_8,17,1,48,46,2053133208
7621,3,ISIP_8,18,5,42,127,2053208712
7621,3,ISIP_8,19,1,48,57,2053934368
7621,3,ISIP_8,20,5,42,127,2054008024
7621,3,ISIP_8,21,1,48,53,2054771592
7621,3,ISIP_8,22,5,42,127,2054807908
7621,3,ISIP_8,23,1,48,49,2055587488
7621,3,ISIP_8,24,5,42,127,2055607644
7621,3,ISIP_8,25,1,48,51,2056379444
7621,3,ISIP_8,26,5,42,127,2056408868
7621,3,ISIP_8,27,1,48,52,2057192116
7621,3,ISIP_8,28,5,42,127,2057208080
7621,3,ISIP_8,29,1,48,50,2057992448
7621,3,ISIP_8,30,5,42,127,2058007888
7621,3,ISIP_8,31,1,48,50,2058804376
7621,3,ISIP_8,32,5,42,127,2058807772
7621,3,ISIP_8,33,1,48,48,2059596696
7621,3,ISIP_8,34,5,42,127,2059608552
7621,3,ISIP_8,35,1,48,51,2060383520
7621,3,ISIP_8,36,5,42,127,2060408088
7621,3,ISIP_8,37,1,48,48,2061176896
7621,3,ISIP_8,38,5,42,127,2061207896
7621,3,ISIP_8,39,1,48,51,2061983884
7621,3,ISIP_8,40,5,42,127,2062007704
7621,3,ISIP_8,41,1,48,50,2062769256
7621,3,ISIP_8,42,5,42,127,2062808556
7621,3,ISIP_8,43,1,48,50,2063566516
7621,3,ISIP_8,44,5,42,127,2063608440
7621,3,ISIP_8,45,1,48,46,2064364608
7621,3,ISIP_8,46,5,42,127,2064407800
7621,3,ISIP_8,47,1,48,55,2065189396
7621,3,ISIP_8,48,5,42,127,2065207608
7621,3,ISIP_8,49,1,48,47,2065926156
7621,3,ISIP_8,50,5,42,127,2066008388
7621,3,ISIP_8,51,1,48,46,2066771736
7621,3,ISIP_8,52,5,42,127,2066808296
7621,3,ISIP_8,53,1,48,47,2067560200
7621,3,ISIP_8,54,5,42,127,2067607808
7621,3,ISIP_8,55,1,48,41,2068384764
7621,3,ISIP_8,56,5,42,127,2068407688
7621,3,ISIP_8,57,1,48,44,2069173204
7621,3,ISIP_8,58,5,42,127,2069208320
7621,3,ISIP_8,59,1,48,43,2069978920
7621,3,ISIP_8,60,1,48,45,2070816212
7621,3,ISIP_8,61,1,48,40,2071600068
7621,3,ISIP_8,62,1,48,43,2072410512
7621,3,ISIP_8,63,1,48,43,2073229932
7621,3,ISIP_8,64,1,48,38,2074044772
7621,3,ISIP_8,65,1,48,43,2074877932
7621,3,ISIP_8,66,1,48,39,2075677140
7621,3,ISIP_8,67,1,48,42,2076477916
7621,3,ISIP_8,68,1,48,42,2077316268
7621,3,ISIP_8,69,1,48,45,2078099468
7621,3,ISIP_8,70,1,48,42,2078905104
7621,3,ISIP_8,71,1,48,46,2079647536
7621,3,ISIP_8,72,1,48,45,2080525204
7621,3,ISIP_8,73,1,48,48,2081313564
7621,3,ISIP_8,74,1,48,45,2082120252
7621,3,ISIP_8,75,1,48,45,2082954860
7621,3,ISIP_8,76,1,48,40,2083758184
7621,3,ISIP_8,77,1,48,44,2084567188
7621,3,ISIP_8,78,1,48,41,2085367136
7621,3,ISIP_8,79,1,48,44,2086180328
7621,3,ISIP_8,80,1,48,43,2086957396
7621,3,ISIP_8,81,1,48,38,2087779960
7621,3,ISIP_8,82,1,48,42,2088551192
7621,3,ISIP_8,83,1,48,35,2089318384
7621,3,ISIP_8,84,1,48,45,2090109588
7621,3,ISIP_8,85,1,48,39,2090915004
7621,3,ISIP_8,86,1,48,46,2091713684
7621,3,ISIP_8,87,1,48,41,2092534724
7621,3,ISIP_8,88,1,48,35,2093371032
7621,3,ISIP_8,89,1,48,49,2094137028
7621,3,ISIP_8,90,1,48,52,2094964084
7621,3,ISIP_8,91,1,48,50,2095732024
7621,3,ISIP_8,92,1,48,42,2096608424
7621,3,ISIP_8,93,1,48,42,2097357212
7621,3,ISIP_8,94,1,48,43,2098177884
7621,3,ISIP_8,95,1,48,45,2098985544
7621,3,ISIP_8,96,1,48,44,2099758716
7621,3,ISIP_8,97,1,48,45,2100591380
7621,3,ISIP_8,98,1,48,44,2101364112
7621,3,ISIP_8,99,1,48,47,2102189044
7621,3,ISIP_8,100,1,48,43,2102942104
7621,3,ISIP_8,101,1,48,43,2103718640
7621,3,ISIP_8,102,1,48,34,2104556292
7621,3,ISIP_8,103,1,48,45,2105360284
7621,3,ISIP_8,104,1,48,48,2106147820
7621,3,ISIP_8,105,1,48,50,2106938052
7621,3,ISIP_8,106,1,48,50,2107704720
7621,3,ISIP_8,107,1,48,46,2108527436
7621,3,ISIP_8,108,1,48,49,2109314376
7621,3,ISIP_8,109,1,48,45,2110114104
7621,3,ISIP_8,110,1,48,48,2110929688
7621,3,ISIP_8,111,1,48,46,2111747672
7621,3,ISIP_8,112,1,48,50,2112564004
7621,3,ISIP_8,113,1,48,43,2113341220
7621,3,ISIP_8,114,1,48,46,2114177404
7621,3,ISIP_8,115,1,48,47,2114991640
7621,3,ISIP_8,116,1,48,47,2115798624
7621,3,ISIP_8,117,1,48,46,2116615856
7621,3,ISIP_8,118,1,48,48,2117443712
7621,3,ISIP_8,119,1,48,46,2118299408
7621,3,ISIP_8,120,1,48,44,2119120380
7621,3,ISIP_8,121,1,48,45,2119916072
7621,3,ISIP_8,122,1,48,48,2120765092
7621,3,ISIP_8,123,1,48,38,2121531464
7621,3,ISIP_8,124,1,48,42,2122383124
7621,3,ISIP_8,125,1,48,33,2123214944
7621,3,ISIP_8,126,1,48,46,2124022672
7621,3,ISIP_8,127,1,48,47,2124828016
7621,3,ISIP_8,128,1,48,47,2125638512
7621,3,ISIP_8,129,1,48,48,2126425752
7621,3,ISIP_8,130,1,48,43,2127270012
7621,3,ISIP_8,131,1,48,44,2128089264
7621,3,ISIP_8,132,1,48,44,2128919284
7621,3,ISIP_8,133,1,48,44,2129752152
7621,3,ISIP_8,134,1,48,48,2130560504
7621,3,ISIP_8,135,1,48,43,2131387232
7621,3,ISIP_8,136,1,48,40,2132209852
7621,3,ISIP_8,137,1,48,46,2133023796
7621,3,ISIP_8,138,1,48,43,2133854292
7621,3,ISIP_8,139,1,48,44,2134700392
7621,3,ISIP_8,140,1,48,46,2135508944
7621,3,ISIP_8,141,1,48,49,2136308904
7621,3,ISIP_8,142,1,48,45,2137149096
7621,3,ISIP_8,143,1,48,40,2137976672
7621,3,ISIP_8,144,1,48,40,2138819276
7621,3,ISIP_8,145,1,48,51,2139647352
7621,3,ISIP_8,146,1,48,44,2140472064
7621,3,ISIP_8,147,1,48,39,2141290364
7621,3,ISIP_8,148,1,48,46,2142079476
7621,3,ISIP_8,149,1,48,53,2142942336
7621,3,ISIP_8,150,1,48,45,2143784920
7621,3,ISIP_8,151,1,48,49,2144579564
7621,3,ISIP_8,152,1,48,48,2145428912
7621,3,ISIP_8,153,1,48,44,2146224900
7621,3,ISIP_8,154,1,48,47,2147047144
7621,3,ISIP_8,155,1,48,47,2147832660
7621,3,ISIP_8,156,1,48,29,2148667696
7621,3,ISIP_8,157,1,48,37,2149503056
7621,3,ISIP_8,158,1,48,38,2150336892
7621,3,ISIP_8,159,1,48,35,2151148508
7621,3,ISIP_8,160,1,48,40,2152005984
7621,3,ISIP_8,161,1,48,41,2152816208
7621,3,ISIP_8,162,1,48,35,2153630596
7621,3,ISIP_8,163,1,48,40,2154446556
7621,3,ISIP_8,164,1,48,42,2155242096
7621,3,ISIP_8,165,1,48,49,2156059404
7621,3,ISIP_8,166,1,48,48,2156807524
7621,3,ISIP_8,167,1,48,46,2157658888
7621,3,ISIP_8,168,1,48,45,2158476268
7621,3,ISIP_8,169,1,48,44,2159309136
7621,3,ISIP_8,170,1,48,37,2160112228
7621,3,ISIP_8,171,1,48,38,2160948832
7621,3,ISIP_8,172,1,48,45,2161767356
7621,3,ISIP_8,173,1,48,45,2162556096
7621,3,ISIP_8,174,1,48,41,2163410872
7621,3,ISIP_8,175,1,48,45,2164229076
7621,3,ISIP_8,176,1,48,41,2165016168
7621,3,ISIP_8,177,1,48,44,2165819936
7621,3,ISIP_8,0,9999,9999,9999,2046005344
7621,3,ISIP_8,1,9999,9999,9999,2046806124
7621,3,ISIP_8,2,9999,9999,9999,2047605824
7621,3,ISIP_8,3,9999,9999,9999,2048405616
7621,3,ISIP_8,4,9999,9999,9999,2049205364
7621,3,ISIP_8,5,9999,9999,9999,2050006072
7621,3,ISIP_8,6,9999,9999,9999,2050805880
7621,3,ISIP_8,7,9999,9999,9999,2051605612
7621,3,ISIP_8,8,9999,9999,9999,2052405332
7621,3,ISIP_8,9,9999,9999,9999,2053206128
7621,3,ISIP_8,10,9999,9999,9999,2054005812
7621,3,ISIP_8,11,9999,9999,9999,2054805616
7621,3,ISIP_8,12,9999,9999,9999,2055605352
7621,3,ISIP_8,13,9999,9999,9999,2056406136
7621,3,ISIP_8,14,9999,9999,9999,2057205868
7621,3,ISIP_8,15,9999,9999,9999,2058005600
7621,3,ISIP_8,16,9999,9999,9999,2058805332
7621,3,ISIP_8,17,9999,9999,9999,2059606112
7621,3,ISIP_8,18,9999,9999,9999,2060405872
7621,3,ISIP_8,19,9999,9999,9999,2061205604
7621,3,ISIP_8,20,9999,9999,9999,2062005340
7621,3,ISIP_8,21,9999,9999,9999,2062806120
7621,3,ISIP_8,22,9999,9999,9999,2063605852
7621,3,ISIP_8,23,9999,9999,9999,2064405584
7621,3,ISIP_8,24,9999,9999,9999,2065205320
7621,3,ISIP_8,25,9999,9999,9999,2066006100
7621,3,ISIP_8,26,9999,9999,9999,2066805860
7621,3,ISIP_8,27,9999,9999,9999,2067605592
7621,3,ISIP_8,28,9999,9999,9999,2068405328
7621,3,ISIP_8,29,9999,9999,9999,2069206104
7621,3,ISIP_8,30,9999,9999,9999,2070005840
7621,3,ISIP_8,31,9999,9999,9999,2070805572
7621,3,ISIP_8,32,9999,9999,9999,2071605296
7621,3,ISIP_8,33,9999,9999,9999,2072406076
7621,3,ISIP_8,34,9999,9999,9999,2073205832
7621,3,ISIP_8,35,9999,9999,9999,2074005560
7621,3,ISIP_8,36,9999,9999,9999,2074805364
7621,3,ISIP_8,37,9999,9999,9999,2075606064
7621,3,ISIP_8,38,9999,9999,9999,2076405868
7621,3,ISIP_8,39,9999,9999,9999,2077205596
7621,3,ISIP_8,40,9999,9999,9999,2078005328
7621,3,ISIP_8,41,9999,9999,9999,2078806100
7621,3,ISIP_8,42,9999,9999,9999,2079605856
7621,3,ISIP_8,43,9999,9999,9999,2080405588
7621,3,ISIP_8,44,9999,9999,9999,2081205316
7621,3,ISIP_8,45,9999,9999,9999,2082006092
7621,3,ISIP_8,46,9999,9999,9999,2082805820
7621,3,ISIP_8,47,9999,9999,9999,2083605548
7621,3,ISIP_8,48,9999,9999,9999,2084405352
7621,3,ISIP_8,49,9999,9999,9999,2085206128
7621,3,ISIP_8,50,9999,9999,9999,2086005808
7621,3,ISIP_8,51,9999,9999,9999,2086805612
7621,3,ISIP_8,52,9999,9999,9999,2087605340
7621,3,ISIP_8,53,9999,9999,9999,2088406116
7621,3,ISIP_8,54,9999,9999,9999,2089205844
7621,3,ISIP_8,55,9999,9999,9999,2090005576
7621,3,ISIP_8,56,9999,9999,9999,2090805304
7621,3,ISIP_8,57,9999,9999,9999,2091606080
7621,3,ISIP_8,58,9999,9999,9999,2092405836
7621,3,ISIP_8,59,9999,9999,9999,2093205564
7621,3,ISIP_8,60,9999,9999,9999,2094005368
7621,3,ISIP_8,61,9999,9999,9999,2094806068
7621,3,ISIP_8,62,9999,9999,9999,2095605872
7621,3,ISIP_8,63,9999,9999,9999,2096405604
7621,3,ISIP_8,64,9999,9999,9999,2097205332
7621,3,ISIP_8,65,9999,9999,9999,2098006108
7621,3,ISIP_8,66,9999,9999,9999,2098805860
7621,3,ISIP_8,67,9999,9999,9999,2099605588
7621,3,ISIP_8,68,9999,9999,9999,2100405320
7621,3,ISIP_8,69,9999,9999,9999,2101206092
7621,3,ISIP_8,70,9999,9999,9999,2102005824
7621,3,ISIP_8,71,9999,9999,9999,2102805552
7621,3,ISIP_8,72,9999,9999,9999,2103605356
7621,3,ISIP_8,73,9999,9999,9999,2104406132
7621,3,ISIP_8,74,9999,9999,9999,2105205812
7621,3,ISIP_8,75,9999,9999,9999,2106005616
7621,3,ISIP_8,76,9999,9999,9999,2106805344
7621,3,ISIP_8,77,9999,9999,9999,2107606120
7621,3,ISIP_8,78,9999,9999,9999,2108405848
7621,3,ISIP_8,79,9999,9999,9999,2109205576
7621,3,ISIP_8,80,9999,9999,9999,2110005308
7621,3,ISIP_8,81,9999,9999,9999,2110806080
7621,3,ISIP_8,82,9999,9999,9999,2111605836
7621,3,ISIP_8,83,9999,9999,9999,2112405568
7621,3,ISIP_8,84,9999,9999,9999,2113205296
7621,3,ISIP_8,85,9999,9999,9999,2114006072
7621,3,ISIP_8,86,9999,9999,9999,2114805872
7621,3,ISIP_8,87,9999,9999,9999,2115605604
7621,3,ISIP_8,88,9999,9999,9999,2116405332
7621,3,ISIP_8,89,9999,9999,9999,2117206108
7621,3,ISIP_8,90,9999,9999,9999,2118005860
7621,3,ISIP_8,91,9999,9999,9999,2118805588
7621,3,ISIP_8,92,9999,9999,9999,2119605320
7621,3,ISIP_8,93,9999,9999,9999,2120406096
7621,3,ISIP_8,94,9999,9999,9999,2121205824
7621,3,ISIP_8,95,9999,9999,9999,2122005552
7621,3,ISIP_8,96,9999,9999,9999,2122805356
7621,3,ISIP_8,97,9999,9999,9999,2123606132
7621,3,ISIP_8,98,9999,9999,9999,2124405812
7621,3,ISIP_8,99,9999,9999,9999,2125205616
7621,3,ISIP_8,100,9999,9999,9999,2126005344
7621,3,ISIP_8,101,9999,9999,9999,2126806120
7621,3,ISIP_8,102,9999,9999,9999,2127605852
7621,3,ISIP_8,103,9999,9999,9999,2128405580
7621,3,ISIP_8,104,9999,9999,9999,2129205308
7621,3,ISIP_8,105,9999,9999,9999,2130006084
7621,3,ISIP_8,106,9999,9999,9999,2130805840
7621,3,ISIP_8,107,9999,9999,9999,2131605568
7621,3,ISIP_8,108,9999,9999,9999,2132405296
7621,3,ISIP_8,109,9999,9999,9999,2133206072
7621,3,ISIP_8,110,9999,9999,9999,2134005876
7621,3,ISIP_8,111,9999,9999,9999,2134805604
7621,3,ISIP_8,112,9999,9999,9999,2135605352
7621,3,ISIP_8,113,9999,9999,9999,2136406128
7621,3,ISIP_8,114,9999,9999,9999,2137205804
7621,3,ISIP_8,115,9999,9999,9999,2138005608
7621,3,ISIP_8,116,9999,9999,9999,2138805344
7621,3,ISIP_8,117,9999,9999,9999,2139606120
7621,3,ISIP_8,118,9999,9999,9999,2140405848
7621,3,ISIP_8,119,9999,9999,9999,2141205576
7621,3,ISIP_8,120,9999,9999,9999,2142005308
7621,3,ISIP_8,121,9999,9999,9999,2142806084
7621,3,ISIP_8,122,9999,9999,9999,2143605840
7621,3,ISIP_8,123,9999,9999,9999,2144405568
7621,3,ISIP_8,124,9999,9999,9999,2145205296
7621,3,ISIP_8,125,9999,9999,9999,2146006072
7621,3,ISIP_8,126,9999,9999,9999,2146805876
7621,3,ISIP_8,127,9999,9999,9999,2147605608
7621,3,ISIP_8,128,9999,9999,9999,2148405336
7621,3,ISIP_8,129,9999,9999,9999,2149206112
7621,3,ISIP_8,130,9999,9999,9999,2150005868
7621,3,ISIP_8,131,9999,9999,9999,2150805596
7621,3,ISIP_8,132,9999,9999,9999,2151605324
7621,3,ISIP_8,133,9999,9999,9999,2152406100
7621,3,ISIP_8,134,9999,9999,9999,2153205828
7621,3,ISIP_8,135,9999,9999,9999,2154005560
7621,3,ISIP_8,136,9999,9999,9999,2154805360
7621,3,ISIP_8,137,9999,9999,9999,2155606064
7621,3,ISIP_8,138,9999,9999,9999,2156405816
7621,3,ISIP_8,139,9999,9999,9999,2157205620
7621,3,ISIP_8,140,9999,9999,9999,2158005348
7621,3,ISIP_8,141,9999,9999,9999,2158806124
7621,3,ISIP_8,142,9999,9999,9999,2159605856
7621,3,ISIP_8,143,9999,9999,9999,2160405584
7621,3,ISIP_8,144,9999,9999,9999,2161205312
7621,3,ISIP_8,145,9999,9999,9999,2162006088
7621,3,ISIP_8,146,9999,9999,9999,2162805844
7621,3,ISIP_8,147,9999,9999,9999,2163605572
7621,3,ISIP_8,148,9999,9999,9999,2164405304
7621,3,ISIP_8,149,9999,9999,9999,2165206076
7622,11,Pattern_Practice,0,5,42,127,2251420112
7622,11,Pattern_Practice,1,5,42,127,2251919680
7622,11,Pattern_Practice,2,5,42,127,2252419544
7622,11,Pattern_Practice,3,5,42,127,2252920084
7622,11,Pattern_Practice,4,5,42,127,2253420096
7622,11,Pattern_Practice,5,1,38,19,2253474748
7622,11,Pattern_Practice,6,1,38,33,2253682544
7622,11,Pattern_Practice,7,5,42,127,2253919696
7622,11,Pattern_Practice,8,1,48,52,2253995668
7622,11,Pattern_Practice,9,5,42,127,2254420512
7622,11,Pattern_Practice,10,5,42,127,2254920132
7622,11,Pattern_Practice,11,1,48,45,2255414044
7622,11,Pattern_Practice,12,5,42,127,2255419616
7622,11,Pattern_Practice,13,1,48,41,2255671220
7622,11,Pattern_Practice,14,1,38,53,2255915368
7622,11,Pattern_Practice,15,5,42,127,2255919440
7622,11,Pattern_Practice,16,1,48,60,2256141124
7622,11,Pattern_Practice,17,5,42,127,2256420092
7622,11,Pattern_Practice,18,1,48,57,2256673728
7622,11,Pattern_Practice,19,1,38,43,2256913232
7622,11,Pattern_Practice,20,5,42,127,2256920000
7622,11,Pattern_Practice,21,1,48,61,2257161208
7622,11,Pattern_Practice,22,1,48,57,2257417864
7622,11,Pattern_Practice,23,5,42,127,2257419600
7622,11,Pattern_Practice,24,1,48,59,2257650112
7622,11,Pattern_Practice,25,5,42,127,2257920252
7622,11,Pattern_Practice,26,1,38,47,2257923892
7622,11,Pattern_Practice,27,1,48,63,2258151956
7622,11,Pattern_Practice,28,5,42,127,2258420076
7622,11,Pattern_Practice,29,1,48,58,2258634668
7622,11,Pattern_Practice,30,1,38,37,2258898264
7622,11,Pattern_Practice,31,5,42,127,2258919912
7622,11,Pattern_Practice,32,1,48,56,2259130532
7622,11,Pattern_Practice,33,1,48,51,2259404968
7622,11,Pattern_Practice,34,5,42,127,2259419436
7622,11,Pattern_Practice,35,1,48,52,2259642992
7622,11,Pattern_Practice,36,1,38,44,2259914360
7622,11,Pattern_Practice,37,5,42,127,2259920232
7622,11,Pattern_Practice,38,1,48,60,2260155980
7622,11,Pattern_Practice,39,5,42,127,2260419988
7622,11,Pattern_Practice,40,1,48,53,2260651340
7622,11,Pattern_Practice,41,1,38,44,2260903184
7622,11,Pattern_Practice,42,5,42,127,2260919600
7622,11,Pattern_Practice,43,1,48,57,2261129396
7622,11,Pattern_Practice,44,5,42,127,2261420328
7622,11,Pattern_Practice,45,1,48,48,2261423068
7622,11,Pattern_Practice,46,1,48,58,2261672672
7622,11,Pattern_Practice,47,1,38,47,2261919776
7622,11,Pattern_Practice,48,5,42,127,2261921936
7622,11,Pattern_Practice,49,1,48,56,2262160004
7622,11,Pattern_Practice,50,5,42,127,2262419892
7622,11,Pattern_Practice,51,1,48,56,2262693804
7622,11,Pattern_Practice,52,1,38,49,2262918156
7622,11,Pattern_Practice,53,5,42,127,2262921076
7622,11,Pattern_Practice,54,1,48,56,2263169472
7622,11,Pattern_Practice,55,5,42,127,2263420160
7622,11,Pattern_Practice,56,1,48,56,2263438540
7622,11,Pattern_Practice,57,1,48,54,2263677816
7622,11,Pattern_Practice,58,5,42,127,2263919836
7622,11,Pattern_Practice,59,1,38,46,2263920800
7622,11,Pattern_Practice,60,1,48,50,2264139320
7622,11,Pattern_Practice,61,5,42,127,2264419732
7622,11,Pattern_Practice,62,1,48,51,2264681824
7622,11,Pattern_Practice,63,5,42,127,2264920548
7622,11,Pattern_Practice,64,1,38,42,2264926360
7622,11,Pattern_Practice,65,1,48,58,2265174168
7622,11,Pattern_Practice,66,5,42,127,2265420044
7622,11,Pattern_Practice,67,1,48,40,2265454448
7622,11,Pattern_Practice,68,1,48,50,2265691492
7622,11,Pattern_Practice,69,5,42,127,2265920012
7622,11,Pattern_Practice,70,1,38,43,2265921952
7622,11,Pattern_Practice,71,1,48,56,2266199392
7622,11,Pattern_Practice,72,5,42,127,2266419836
7622,11,Pattern_Practice,73,1,48,57,2266704968
7622,11,Pattern_Practice,74,5,42,127,2266920280
7622,11,Pattern_Practice,75,1,38,48,2266952724
7622,11,Pattern_Practice,76,1,48,51,2267176516
7622,11,Pattern_Practice,77,5,42,127,2267419952
7622,11,Pattern_Practice,78,1,48,46,2267447976
7622,11,Pattern_Practice,79,1,48,49,2267682324
7622,11,Pattern_Practice,80,1,38,44,2267908292
7622,11,Pattern_Practice,81,5,42,127,2267919988
7622,11,Pattern_Practice,82,1,48,48,2268157756
7622,11,Pattern_Practice,83,5,42,127,2268419372
7622,11,Pattern_Practice,84,1,48,54,2268680644
7622,11,Pattern_Practice,85,5,42,127,2268920112
7622,11,Pattern_Practice,86,1,38,54,2268965268
7622,11,Pattern_Practice,87,1,48,53,2269182628
7622,11,Pattern_Practice,88,5,42,127,2269419932
7622,11,Pattern_Practice,89,1,48,42,2269477132
7622,11,Pattern_Practice,90,1,48,49,2269715964
7622,11,Pattern_Practice,91,5,42,127,2269919752
7622,11,Pattern_Practice,92,1,38,40,2269933120
7622,11,Pattern_Practice,93,1,48,49,2270180408
7622,11,Pattern_Practice,94,5,42,127,2270420252
7622,11,Pattern_Practice,95,1,48,43,2270687284
7622,11,Pattern_Practice,96,5,42,127,2270920020
7622,11,Pattern_Practice,97,1,38,54,2270939224
7622,11,Pattern_Practice,98,1,48,48,2271139680
7622,11,Pattern_Practice,99,5,42,127,2271419916
7622,11,Pattern_Practice,100,1,48,46,2271461708
7622,11,Pattern_Practice,101,1,48,42,2271685356
7622,11,Pattern_Practice,102,5,42,127,2271919368
7622,11,Pattern_Practice,103,1,38,52,2271952480
7622,11,Pattern_Practice,104,1,48,44,2272185704
7622,11,Pattern_Practice,105,5,42,127,2272420312
7622,11,Pattern_Practice,106,1,48,52,2272717860
7622,11,Pattern_Practice,107,5,42,127,2272919856
7622,11,Pattern_Practice,108,1,38,47,2272960900
7622,11,Pattern_Practice,109,1,48,39,2273221200
7622,11,Pattern_Practice,110,5,42,127,2273419828
7622,11,Pattern_Practice,111,1,48,38,2273476204
7622,11,Pattern_Practice,112,1,48,40,2273718628
7622,11,Pattern_Practice,113,5,42,127,2273920328
7622,11,Pattern_Practice,114,1,38,43,2273980592
7622,11,Pattern_Practice,115,1,48,47,2274193768
7622,11,Pattern_Practice,116,5,42,127,2274420072
7622,11,Pattern_Practice,117,1,48,47,2274736092
7622,11,Pattern_Practice,118,5,42,127,2274919844
7622,11,Pattern_Practice,119,1,38,44,2274982796
7622,11,Pattern_Practice,120,1,48,42,2275173760
7622,11,Pattern_Practice,121,5,42,127,2275419736
7622,11,Pattern_Practice,122,1,48,45,2275487184
7622,11,Pattern_Practice,123,1,48,44,2275729460
7622,11,Pattern_Practice,124,5,42,127,2275920136
7622,11,Pattern_Practice,125,1,38,38,2275999800
7622,11,Pattern_Practice,126,1,48,39,2276243492
7622,11,Pattern_Practice,127,5,42,127,2276419808
7622,11,Pattern_Practice,128,1,48,43,2276740716
7622,11,Pattern_Practice,129,5,42,127,2276919800
7622,11,Pattern_Practice,130,1,38,41,2277004848
7622,11,Pattern_Practice,131,1,48,42,2277223788
7622,11,Pattern_Practice,132,5,42,127,2277420524
7622,11,Pattern_Practice,133,1,48,42,2277496296
7622,11,Pattern_Practice,134,1,48,42,2277752404
7622,11,Pattern_Practice,135,5,42,127,2277920044
7622,11,Pattern_Practice,136,1,38,40,2277990508
7622,11,Pattern_Practice,137,1,48,47,2278234428
7622,11,Pattern_Practice,138,5,42,127,2278419868
7622,11,Pattern_Practice,139,1,48,44,2278724296
7622,11,Pattern_Practice,140,5,42,127,2278919784
7622,11,Pattern_Practice,141,1,38,47,2278995484
7622,11,Pattern_Practice,142,1,48,39,2279184176
7622,11,Pattern_Practice,143,5,42,127,2279420280
7622,11,Pattern_Practice,144,1,48,43,2279706984
7622,11,Pattern_Practice,145,5,42,127,2279920048
7622,11,Pattern_Practice,146,1,38,46,2279978072
7622,11,Pattern_Practice,147,1,48,43,2280219820
7622,11,Pattern_Practice,148,5,42,127,2280419796
7622,11,Pattern_Practice,149,1,48,35,2280696928
7622,11,Pattern_Practice,150,5,42,127,2280920540
7622,11,Pattern_Practice,151,1,38,37,2280957688
7622,11,Pattern_Practice,152,1,48,48,2281228160
7622,11,Pattern_Practice,153,5,42,127,2281419988
7622,11,Pattern_Practice,154,1,48,43,2281730180
7622,11,Pattern_Practice,155,5,42,127,2281919756
7622,11,Pattern_Practice,156,1,38,40,2281980616
7622,11,Pattern_Practice,157,1,48,46,2282215936
7622,11,Pattern_Practice,158,1,48,14,2282338084
7622,11,Pattern_Practice,159,5,42,127,2282419648
7622,11,Pattern_Practice,160,1,48,38,2282709400
7622,11,Pattern_Practice,161,5,42,127,2282920300
7622,11,Pattern_Practice,162,1,38,49,2282996200
7622,11,Pattern_Practice,163,1,48,47,2283237800
7622,11,Pattern_Practice,164,5,42,127,2283420120
7622,11,Pattern_Practice,165,1,48,43,2283737792
7622,11,Pattern_Practice,166,5,42,127,2283919592
7622,11,Pattern_Practice,167,1,38,45,2283982028
7622,11,Pattern_Practice,168,1,48,48,2284257584
7622,11,Pattern_Practice,169,5,42,127,2284419564
7622,11,Pattern_Practice,170,1,48,40,2284771420
7622,11,Pattern_Practice,171,5,42,127,2284920308
7622,11,Pattern_Practice,172,1,38,40,2285043548
7622,11,Pattern_Practice,173,1,48,47,2285296896
7622,11,Pattern_Practice,174,5,42,127,2285419756
7622,11,Pattern_Practice,175,1,48,46,2285812444
7622,11,Pattern_Practice,176,5,42,127,2285919452
7622,11,Pattern_Practice,177,1,38,41,2286074040
7622,11,Pattern_Practice,178,1,48,45,2286358268
7622,11,Pattern_Practice,179,5,42,127,2286420408
7622,11,Pattern_Practice,180,1,48,35,2286835596
7622,11,Pattern_Practice,181,5,42,127,2286919932
7622,11,Pattern_Practice,182,1,38,45,2287108856
7622,11,Pattern_Practice,183,1,48,45,2287337516
7622,11,Pattern_Practice,184,5,42,127,2287419676
7622,11,Pattern_Practice,185,1,48,43,2287597908
7622,11,Pattern_Practice,186,1,48,42,2287833524
7622,11,Pattern_Practice,187,5,42,127,2287919424
7622,11,Pattern_Practice,188,1,38,46,2288106856
7622,11,Pattern_Practice,189,1,48,40,2288339848
7622,11,Pattern_Practice,190,5,42,127,2288420368
7622,11,Pattern_Practice,191,1,48,47,2288848224
7622,11,Pattern_Practice,192,5,42,127,2288919764
7622,11,Pattern_Practice,193,1,38,38,2289124624
7622,11,Pattern_Practice,194,1,48,53,2289371756
7622,11,Pattern_Practice,195,5,42,127,2289419512
7622,11,Pattern_Practice,196,1,48,51,2289636488
7622,11,Pattern_Practice,197,1,48,52,2289891248
7622,11,Pattern_Practice,198,5,42,127,2289920532
7622,11,Pattern_Practice,199,1,38,48,2290144764
7622,11,Pattern_Practice,200,1,48,46,2290407608
7622,11,Pattern_Practice,201,5,42,127,2290419980
7622,11,Pattern_Practice,202,1,48,44,2290892044
7622,11,Pattern_Practice,203,5,42,127,2290919752
7622,11,Pattern_Practice,204,1,38,51,2291151760
7622,11,Pattern_Practice,205,1,48,41,2291398072
7622,11,Pattern_Practice,0,9999,9999,9999,2251417676
7622,11,Pattern_Practice,1,9999,9999,9999,2251917392
7622,11,Pattern_Practice,2,9999,9999,9999,2252417108
7622,11,Pattern_Practice,3,9999,9999,9999,2252917872
7622,11,Pattern_Practice,4,9999,9999,9999,2253417588
7622,11,Pattern_Practice,5,9999,9999,9999,2253917260
7622,11,Pattern_Practice,6,9999,9999,9999,2254417980
7622,11,Pattern_Practice,7,9999,9999,9999,2254917696
7622,11,Pattern_Practice,8,9999,9999,9999,2255417404
7622,11,Pattern_Practice,9,9999,9999,9999,2255917152
7622,11,Pattern_Practice,10,9999,9999,9999,2256417876
7622,11,Pattern_Practice,11,9999,9999,9999,2256917564
7622,11,Pattern_Practice,12,9999,9999,9999,2257417336
7622,11,Pattern_Practice,13,9999,9999,9999,2257918040
7622,11,Pattern_Practice,14,9999,9999,9999,2258417712
7622,11,Pattern_Practice,15,9999,9999,9999,2258917480
7622,11,Pattern_Practice,16,9999,9999,9999,2259417152
7622,11,Pattern_Practice,17,9999,9999,9999,2259917944
7622,11,Pattern_Practice,18,9999,9999,9999,2260417624
7622,11,Pattern_Practice,19,9999,9999,9999,2260917312
7622,11,Pattern_Practice,20,9999,9999,9999,2261418040
7622,11,Pattern_Practice,21,9999,9999,9999,2261917784
7622,11,Pattern_Practice,22,9999,9999,9999,2262417460
7622,11,Pattern_Practice,23,9999,9999,9999,2262917228
7622,11,Pattern_Practice,24,9999,9999,9999,2263417948
7622,11,Pattern_Practice,25,9999,9999,9999,2263917624
7622,11,Pattern_Practice,26,9999,9999,9999,2264417368
7622,11,Pattern_Practice,27,9999,9999,9999,2264918108
7622,11,Pattern_Practice,28,9999,9999,9999,2265417832
7622,11,Pattern_Practice,29,9999,9999,9999,2265917504
7622,11,Pattern_Practice,30,9999,9999,9999,2266417252
7622,11,Pattern_Practice,31,9999,9999,9999,2266917992
7622,11,Pattern_Practice,32,9999,9999,9999,2267417664
7622,11,Pattern_Practice,33,9999,9999,9999,2267917404
7622,11,Pattern_Practice,34,9999,9999,9999,2268417084
7622,11,Pattern_Practice,35,9999,9999,9999,2268917824
7622,11,Pattern_Practice,36,9999,9999,9999,2269417572
7622,11,Pattern_Practice,37,9999,9999,9999,2269917244
7622,11,Pattern_Practice,38,9999,9999,9999,2270418040
7622,11,Pattern_Practice,39,9999,9999,9999,2270917736
7622,11,Pattern_Practice,40,9999,9999,9999,2271417408
7622,11,Pattern_Practice,41,9999,9999,9999,2271917156
7622,11,Pattern_Practice,42,9999,9999,9999,2272417876
7622,11,Pattern_Practice,43,9999,9999,9999,2272917572
7622,11,Pattern_Practice,44,9999,9999,9999,2273417320
7622,11,Pattern_Practice,45,9999,9999,9999,2273918040
7622,11,Pattern_Practice,46,9999,9999,9999,2274417788
7622,11,Pattern_Practice,47,9999,9999,9999,2274917480
7622,11,Pattern_Practice,48,9999,9999,9999,2275417152
7622,11,Pattern_Practice,49,9999,9999,9999,2275917924
7622,11,Pattern_Practice,50,9999,9999,9999,2276417596
7622,11,Pattern_Practice,51,9999,9999,9999,2276917364
7622,11,Pattern_Practice,52,9999,9999,9999,2277418088
7622,11,Pattern_Practice,53,9999,9999,9999,2277917760
7622,11,Pattern_Practice,54,9999,9999,9999,2278417508
7622,11,Pattern_Practice,55,9999,9999,9999,2278917200
7622,11,Pattern_Practice,56,9999,9999,9999,2279417920
7622,11,Pattern_Practice,57,9999,9999,9999,2279917688
7622,11,Pattern_Practice,58,9999,9999,9999,2280417360
7622,11,Pattern_Practice,59,9999,9999,9999,2280918104
7622,11,Pattern_Practice,60,9999,9999,9999,2281417776
7622,11,Pattern_Practice,61,9999,9999,9999,2281917544
7622,11,Pattern_Practice,62,9999,9999,9999,2282417212
7622,11,Pattern_Practice,63,9999,9999,9999,2282917940
7622,11,Pattern_Practice,64,9999,9999,9999,2283417688
7622,11,Pattern_Practice,65,9999,9999,9999,2283917380
7622,11,Pattern_Practice,66,9999,9999,9999,2284417128
7622,11,Pattern_Practice,67,9999,9999,9999,2284917872
7622,11,Pattern_Practice,68,9999,9999,9999,2285417544
7622,11,Pattern_Practice,69,9999,9999,9999,2285917240
7622,11,Pattern_Practice,70,9999,9999,9999,2286417976
7622,11,Pattern_Practice,71,9999,9999,9999,2286917720
7622,11,Pattern_Practice,72,9999,9999,9999,2287417464
7622,11,Pattern_Practice,73,9999,9999,9999,2287917140
7622,11,Pattern_Practice,74,9999,9999,9999,2288417860
7622,11,Pattern_Practice,75,9999,9999,9999,2288917552
7622,11,Pattern_Practice,76,9999,9999,9999,2289417300
7622,11,Pattern_Practice,77,9999,9999,9999,2289918020
7622,11,Pattern_Practice,78,9999,9999,9999,2290417772
7622,11,Pattern_Practice,79,9999,9999,9999,2290917464
7623,13,Improv_Metronome,0,5,42,127,2320995908
7623,13,Improv_Metronome,1,5,42,127,2321496372
7623,13,Improv_Metronome,2,5,42,127,2321996064
7623,13,Improv_Metronome,3,5,42,127,2322495780
7623,13,Improv_Metronome,4,5,42,127,2322995720
7623,13,Improv_Metronome,5,1,48,40,2323001908
7623,13,Improv_Metronome,6,1,48,44,2323346900
7623,13,Improv_Metronome,7,1,38,44,2323493852
7623,13,Improv_Metronome,8,5,42,127,2323496360
7623,13,Improv_Metronome,9,1,48,52,2323722832
7623,13,Improv_Metronome,10,5,42,127,2323996040
7623,13,Improv_Metronome,11,1,48,49,2324186924
7623,13,Improv_Metronome,12,1,38,45,2324444384
7623,13,Improv_Metronome,13,5,42,127,2324495876
7623,13,Improv_Metronome,14,1,48,47,2324683676
7623,13,Improv_Metronome,15,1,48,48,2324944128
7623,13,Improv_Metronome,16,5,42,127,2324995548
7623,13,Improv_Metronome,17,1,48,41,2325318816
7623,13,Improv_Metronome,18,1,38,47,2325457116
7623,13,Improv_Metronome,19,5,42,127,2325496268
7623,13,Improv_Metronome,20,1,48,51,2325729772
7623,13,Improv_Metronome,21,5,42,127,2325996020
7623,13,Improv_Metronome,22,1,48,49,2326204640
7623,13,Improv_Metronome,23,1,38,40,2326423724
7623,13,Improv_Metronome,24,5,42,127,2326496008
7623,13,Improv_Metronome,25,1,48,54,2326977944
7623,13,Improv_Metronome,26,5,42,127,2326996452
7623,13,Improv_Metronome,27,1,48,44,2327353452
7623,13,Improv_Metronome,28,1,38,44,2327492348
7623,13,Improv_Metronome,29,5,42,127,2327495976
7623,13,Improv_Metronome,30,1,48,48,2327760596
7623,13,Improv_Metronome,31,5,42,127,2327996028
7623,13,Improv_Metronome,32,1,48,47,2328208608
7623,13,Improv_Metronome,33,1,38,45,2328495724
7623,13,Improv_Metronome,34,5,42,127,2328497736
7623,13,Improv_Metronome,35,1,48,43,2328739172
7623,13,Improv_Metronome,36,5,42,127,2328996144
7623,13,Improv_Metronome,37,1,48,43,2329005172
7623,13,Improv_Metronome,38,1,48,42,2329371532
7623,13,Improv_Metronome,39,5,42,127,2329495892
7623,13,Improv_Metronome,40,1,38,44,2329519876
7623,13,Improv_Metronome,41,1,48,45,2329768284
7623,13,Improv_Metronome,42,5,42,127,2329995860
7623,13,Improv_Metronome,43,1,48,42,2330251300
7623,13,Improv_Metronome,44,5,42,127,2330496304
7623,13,Improv_Metronome,45,1,38,44,2330503240
7623,13,Improv_Metronome,46,5,42,127,2330996072
7623,13,Improv_Metronome,47,1,48,36,2331005624
7623,13,Improv_Metronome,48,1,48,46,2331389788
7623,13,Improv_Metronome,49,5,42,127,2331495896
7623,13,Improv_Metronome,50,1,38,44,2331550324
7623,13,Improv_Metronome,51,1,48,40,2331817060
7623,13,Improv_Metronome,52,5,42,127,2331995792
7623,13,Improv_Metronome,53,1,48,41,2332288552
7623,13,Improv_Metronome,54,5,42,127,2332496384
7623,13,Improv_Metronome,55,1,38,45,2332547600
7623,13,Improv_Metronome,56,1,48,40,2332773940
7623,13,Improv_Metronome,57,5,42,127,2332995884
7623,13,Improv_Metronome,58,1,48,33,2333059908
7623,13,Improv_Metronome,59,1,48,36,2333425680
7623,13,Improv_Metronome,60,5,42,127,2333495792
7623,13,Improv_Metronome,61,1,38,42,2333549036
7623,13,Improv_Metronome,62,1,48,43,2333813076
7623,13,Improv_Metronome,63,5,42,127,2333996496
7623,13,Improv_Metronome,64,1,48,41,2334335956
7623,13,Improv_Metronome,65,5,42,127,2334496044
7623,13,Improv_Metronome,66,1,38,45,2334594028
7623,13,Improv_Metronome,67,5,42,127,2334995888
7623,13,Improv_Metronome,68,1,48,40,2335082208
7623,13,Improv_Metronome,69,1,48,40,2335459344
7623,13,Improv_Metronome,70,5,42,127,2335495800
7623,13,Improv_Metronome,71,1,38,43,2335576792
7623,13,Improv_Metronome,72,1,48,45,2335862744
7623,13,Improv_Metronome,73,5,42,127,2335996204
7623,13,Improv_Metronome,74,1,48,43,2336363412
7623,13,Improv_Metronome,75,5,42,127,2336495976
7623,13,Improv_Metronome,76,1,38,44,2336602036
7623,13,Improv_Metronome,77,1,48,44,2336837628
7623,13,Improv_Metronome,78,5,42,127,2336995720
7623,13,Improv_Metronome,79,1,48,37,2337111064
7623,13,Improv_Metronome,80,1,48,44,2337478096
7623,13,Improv_Metronome,81,5,42,127,2337496604
7623,13,Improv_Metronome,82,1,38,43,2337593804
7623,13,Improv_Metronome,83,1,48,45,2337847968
7623,13,Improv_Metronome,84,5,42,127,2337996036
7623,13,Improv_Metronome,85,1,48,42,2338324324
7623,13,Improv_Metronome,86,5,42,127,2338495808
7623,13,Improv_Metronome,87,1,38,43,2338553528
7623,13,Improv_Metronome,88,5,42,127,2338995800
7623,13,Improv_Metronome,89,1,48,48,2339070724
7623,13,Improv_Metronome,90,1,48,42,2339328632
7623,13,Improv_Metronome,91,5,42,127,2339496368
7623,13,Improv_Metronome,92,1,38,41,2339574212
7623,13,Improv_Metronome,93,1,48,41,2339805268
7623,13,Improv_Metronome,94,5,42,127,2339995968
7623,13,Improv_Metronome,95,1,48,44,2340311616
7623,13,Improv_Metronome,96,5,42,127,2340495740
7623,13,Improv_Metronome,97,1,38,42,2340575972
7623,13,Improv_Metronome,98,1,48,47,2340840160
7623,13,Improv_Metronome,99,5,42,127,2340995488
7623,13,Improv_Metronome,100,1,48,38,2341097188
7623,13,Improv_Metronome,101,1,48,40,2341348736
7623,13,Improv_Metronome,102,5,42,127,2341496132
7623,13,Improv_Metronome,103,1,38,45,2341586392
7623,13,Improv_Metronome,104,1,48,47,2341880872
7623,13,Improv_Metronome,105,5,42,127,2341995880
7623,13,Improv_Metronome,106,1,48,44,2342382212
7623,13,Improv_Metronome,107,5,42,127,2342495576
7623,13,Improv_Metronome,108,1,38,44,2342650908
7623,13,Improv_Metronome,109,1,48,41,2342913672
7623,13,Improv_Metronome,110,5,42,127,2342996456
7623,13,Improv_Metronome,111,1,48,39,2343159856
7623,13,Improv_Metronome,112,1,48,40,2343415964
7623,13,Improv_Metronome,113,5,42,127,2343496104
7623,13,Improv_Metronome,114,1,38,37,2343671872
7623,13,Improv_Metronome,115,1,48,44,2343967996
7623,13,Improv_Metronome,116,5,42,127,2343995704
7623,13,Improv_Metronome,117,1,48,42,2344464776
7623,13,Improv_Metronome,118,5,42,127,2344495476
7623,13,Improv_Metronome,119,1,38,36,2344712748
7623,13,Improv_Metronome,120,1,48,46,2344958688
7623,13,Improv_Metronome,121,5,42,127,2344996196
7623,13,Improv_Metronome,122,1,48,38,2345197460
7623,13,Improv_Metronome,123,1,48,41,2345450512
7623,13,Improv_Metronome,124,5,42,127,2345496020
7623,13,Improv_Metronome,125,1,38,39,2345697512
7623,13,Improv_Metronome,126,1,48,45,2345959532
7623,13,Improv_Metronome,127,5,42,127,2345995616
7623,13,Improv_Metronome,128,1,48,44,2346465732
7623,13,Improv_Metronome,129,5,42,127,2346496360
7623,13,Improv_Metronome,130,1,38,42,2346732184
7623,13,Improv_Metronome,131,1,48,46,2346957032
7623,13,Improv_Metronome,132,5,42,127,2346996032
7623,13,Improv_Metronome,133,1,48,45,2347231108
7623,13,Improv_Metronome,134,5,42,127,2347495712
7623,13,Improv_Metronome,135,1,48,44,2347613376
7623,13,Improv_Metronome,136,1,38,43,2347769980
7623,13,Improv_Metronome,137,5,42,127,2347995536
7623,13,Improv_Metronome,138,1,48,57,2347997980
7623,13,Improv_Metronome,139,5,42,127,2348496280
7623,13,Improv_Metronome,140,1,48,47,2348502912
7623,13,Improv_Metronome,141,1,38,47,2348764412
7623,13,Improv_Metronome,142,5,42,127,2348995804
7623,13,Improv_Metronome,143,1,48,48,2349043728
7623,13,Improv_Metronome,144,1,48,45,2349303876
7623,13,Improv_Metronome,145,5,42,127,2349495548
7623,13,Improv_Metronome,146,1,48,44,2349667808
7623,13,Improv_Metronome,147,1,38,39,2349795768
7623,13,Improv_Metronome,148,5,42,127,2349996568
7623,13,Improv_Metronome,149,1,48,46,2350057428
7623,13,Improv_Metronome,150,5,42,127,2350496112
7623,13,Improv_Metronome,151,1,48,45,2350523692
7623,13,Improv_Metronome,152,1,38,39,2350811740
7623,13,Improv_Metronome,153,5,42,127,2350995788
7623,13,Improv_Metronome,154,1,48,42,2351058444
7623,13,Improv_Metronome,155,1,48,38,2351341328
7623,13,Improv_Metronome,156,5,42,127,2351495460
7623,13,Improv_Metronome,157,1,48,28,2351694396
7623,13,Improv_Metronome,158,1,38,45,2351850804
7623,13,Improv_Metronome,159,5,42,127,2351996476
7623,13,Improv_Metronome,160,1,48,39,2352105356
7623,13,Improv_Metronome,161,5,42,127,2352495948
7623,13,Improv_Metronome,162,1,48,33,2352588152
7623,13,Improv_Metronome,163,1,38,47,2352849868
7623,13,Improv_Metronome,164,5,42,127,2352995696
7623,13,Improv_Metronome,165,1,48,45,2353104352
7623,13,Improv_Metronome,166,1,48,44,2353397264
7623,13,Improv_Metronome,167,5,42,127,2353496412
7623,13,Improv_Metronome,168,1,48,43,2353866892
7623,13,Improv_Metronome,169,5,42,127,2353996308
7623,13,Improv_Metronome,170,1,48,42,2354377428
7623,13,Improv_Metronome,171,5,42,127,2354495780
7623,13,Improv_Metronome,172,1,48,36,2354911008
7623,13,Improv_Metronome,173,5,42,127,2354995492
7623,13,Improv_Metronome,174,1,48,47,2355421920
7623,13,Improv_Metronome,175,5,42,127,2355496452
7623,13,Improv_Metronome,176,1,48,48,2355929916
7623,13,Improv_Metronome,177,5,42,127,2355996148
7623,13,Improv_Metronome,178,1,38,47,2356429916
7623,13,Improv_Metronome,179,5,42,127,2356495696
7623,13,Improv_Metronome,180,1,38,42,2356701676
7623,13,Improv_Metronome,181,1,48,45,2356953968
7623,13,Improv_Metronome,182,5,42,127,2356995516
7623,13,Improv_Metronome,183,1,48,38,2357185412
7623,13,Improv_Metronome,184,1,38,52,2357477656
7623,13,Improv_Metronome,185,5,42,127,2357496460
7623,13,Improv_Metronome,186,1,48,49,2357741932
7623,13,Improv_Metronome,187,5,42,127,2357995916
7623,13,Improv_Metronome,188,1,48,41,2358222328
7623,13,Improv_Metronome,189,1,38,45,2358462884
7623,13,Improv_Metronome,190,5,42,127,2358495604
7623,13,Improv_Metronome,191,1,48,47,2358707268
7623,13,Improv_Metronome,192,1,48,41,2358946324
7623,13,Improv_Metronome,193,5,42,127,2358996396
7623,13,Improv_Metronome,194,1,48,38,2359201476
7623,13,Improv_Metronome,195,1,38,43,2359447340
7623,13,Improv_Metronome,196,5,42,127,2359496292
7623,13,Improv_Metronome,197,1,48,46,2359711852
7623,13,Improv_Metronome,198,5,42,127,2359995896
7623,13,Improv_Metronome,199,1,48,43,2360218272
7623,13,Improv_Metronome,200,1,38,44,2360480292
7623,13,Improv_Metronome,201,5,42,127,2360495364
7623,13,Improv_Metronome,202,1,48,36,2360697228
7623,13,Improv_Metronome,203,5,42,127,2360996384
7623,13,Improv_Metronome,204,1,48,43,2361010428
7623,13,Improv_Metronome,205,1,48,43,2361254792
7623,13,Improv_Metronome,206,5,42,127,2361495912
7623,13,Improv_Metronome,207,1,38,44,2361505988
7623,13,Improv_Metronome,208,1,48,45,2361734200
7623,13,Improv_Metronome,209,5,42,127,2361995584
7623,13,Improv_Metronome,210,1,48,43,2362214972
7623,13,Improv_Metronome,211,1,38,38,2362458516
7623,13,Improv_Metronome,212,5,42,127,2362496396
7623,13,Improv_Metronome,213,1,48,39,2362720480
7623,13,Improv_Metronome,214,5,42,127,2362996224
7623,13,Improv_Metronome,215,1,48,44,2362997412
7623,13,Improv_Metronome,216,1,48,46,2363493184
7623,13,Improv_Metronome,217,5,42,127,2363495764
7623,13,Improv_Metronome,218,5,42,127,2363995468
7623,13,Improv_Metronome,219,1,48,47,2364030524
7623,13,Improv_Metronome,220,1,48,28,2364484176
7623,13,Improv_Metronome,221,5,42,127,2364496204
7623,13,Improv_Metronome,222,1,48,41,2364982600
7623,13,Improv_Metronome,223,5,42,127,2364996096
7623,13,Improv_Metronome,224,1,48,43,2365351104
7623,13,Improv_Metronome,225,5,42,127,2365495704
7623,13,Improv_Metronome,226,1,38,36,2365506376
7623,13,Improv_Metronome,227,1,48,49,2365762112
7623,13,Improv_Metronome,228,5,42,127,2365996348
7623,13,Improv_Metronome,229,1,48,46,2366245956
7623,13,Improv_Metronome,230,5,42,127,2366496192
7623,13,Improv_Metronome,231,1,38,37,2366499608
7623,13,Improv_Metronome,232,1,48,43,2366741136
7623,13,Improv_Metronome,233,5,42,127,2366995864
7623,13,Improv_Metronome,234,1,48,44,2367007584
7623,13,Improv_Metronome,235,1,48,51,2367366040
7623,13,Improv_Metronome,236,5,42,127,2367495388
7623,13,Improv_Metronome,237,1,38,30,2367499480
7623,13,Improv_Metronome,238,1,48,46,2367741008
7623,13,Improv_Metronome,239,5,42,127,2367996184
7623,13,Improv_Metronome,240,1,48,44,2368255584
7623,13,Improv_Metronome,241,5,42,127,2368496028
7623,13,Improv_Metronome,242,1,38,44,2368508272
7623,13,Improv_Metronome,243,1,48,42,2368761988
7623,13,Improv_Metronome,244,5,42,127,2368995700
7623,13,Improv_Metronome,245,1,48,40,2369022156
7623,13,Improv_Metronome,246,1,48,39,2369366996
7623,13,Improv_Metronome,247,5,42,127,2369496420
7623,13,Improv_Metronome,248,1,38,44,2369514572
7623,13,Improv_Metronome,249,1,48,46,2369762300
7623,13,Improv_Metronome,250,5,42,127,2369996092
7623,13,Improv_Metronome,251,1,48,46,2370242104
7623,13,Improv_Metronome,252,5,42,127,2370495936
7623,13,Improv_Metronome,253,1,48,38,2370531444
7623,13,Improv_Metronome,254,1,38,27,2370765040
7623,13,Improv_Metronome,255,5,42,127,2370995460
7623,13,Improv_Metronome,256,1,48,45,2371016152
7623,13,Improv_Metronome,257,1,38,38,2371305924
7623,13,Improv_Metronome,258,5,42,127,2371496252
7623,13,Improv_Metronome,259,1,48,40,2371558232
7623,13,Improv_Metronome,260,1,48,29,2371849724
7623,13,Improv_Metronome,261,5,42,127,2371995924
7623,13,Improv_Metronome,262,1,48,27,2372080648
7623,13,Improv_Metronome,263,1,38,43,2372338176
7623,13,Improv_Metronome,264,5,42,127,2372495944
7623,13,Improv_Metronome,265,5,42,127,2372995364
7623,13,Improv_Metronome,266,1,48,42,2373485240
7623,13,Improv_Metronome,267,5,42,127,2373496196
7623,13,Improv_Metronome,268,1,48,46,2373738604
7623,13,Improv_Metronome,269,1,38,40,2373972868
7623,13,Improv_Metronome,270,5,42,127,2373996016
7623,13,Improv_Metronome,271,1,48,50,2374201000
7623,13,Improv_Metronome,272,5,42,127,2374495472
7623,13,Improv_Metronome,273,1,38,41,2374769008
7623,13,Improv_Metronome,274,5,42,127,2374996288
7623,13,Improv_Metronome,275,5,42,127,2375495980
7623,13,Improv_Metronome,276,1,48,43,2375513032
7623,13,Improv_Metronome,277,1,48,43,2375768476
7623,13,Improv_Metronome,278,1,38,42,2375992920
7623,13,Improv_Metronome,279,5,42,127,2375995720
7623,13,Improv_Metronome,280,1,48,47,2376227060
7623,13,Improv_Metronome,281,5,42,127,2376495400
7623,13,Improv_Metronome,282,1,48,37,2376721816
7623,13,Improv_Metronome,283,1,38,52,2376995012
7623,13,Improv_Metronome,284,5,42,127,2376998008
7623,13,Improv_Metronome,285,1,48,40,2377218944
7623,13,Improv_Metronome,286,5,42,127,2377495892
7623,13,Improv_Metronome,287,1,48,39,2377500652
7623,13,Improv_Metronome,288,1,48,43,2377742028
7623,13,Improv_Metronome,289,5,42,127,2377995564
7623,13,Improv_Metronome,290,1,38,54,2378014240
7623,13,Improv_Metronome,291,1,48,45,2378226148
7623,13,Improv_Metronome,292,5,42,127,2378496360
7623,13,Improv_Metronome,293,1,48,46,2378764956
7623,13,Improv_Metronome,294,1,38,42,2378982552
7623,13,Improv_Metronome,295,5,42,127,2378996044
7623,13,Improv_Metronome,296,1,48,43,2379225288
7623,13,Improv_Metronome,297,5,42,127,2379495948
7623,13,Improv_Metronome,298,1,48,41,2379496912
7623,13,Improv_Metronome,299,1,48,38,2379754732
7623,13,Improv_Metronome,300,5,42,127,2379995472
7623,13,Improv_Metronome,301,1,38,47,2380012424
7623,13,Improv_Metronome,302,1,48,43,2380237420
7623,13,Improv_Metronome,303,5,42,127,2380496192
7623,13,Improv_Metronome,304,1,48,46,2380743248
7623,13,Improv_Metronome,305,1,38,46,2380975872
7623,13,Improv_Metronome,306,5,42,127,2380995880
7623,13,Improv_Metronome,307,1,48,42,2381240152
7623,13,Improv_Metronome,308,1,48,30,2381491852
7623,13,Improv_Metronome,309,5,42,127,2381495848
7623,13,Improv_Metronome,310,1,48,42,2381775432
7623,13,Improv_Metronome,311,5,42,127,2381996276
7623,13,Improv_Metronome,312,1,38,39,2382019820
7623,13,Improv_Metronome,313,1,48,43,2382262012
7623,13,Improv_Metronome,314,5,42,127,2382496172
7623,13,Improv_Metronome,315,1,48,42,2382769192
7623,13,Improv_Metronome,316,5,42,127,2382995868
7623,13,Improv_Metronome,317,1,38,46,2383031000
7623,13,Improv_Metronome,318,1,48,47,2383263472
7623,13,Improv_Metronome,319,5,42,127,2383495392
7623,13,Improv_Metronome,320,1,48,41,2383534788
7623,13,Improv_Metronome,321,1,48,42,2383973352
7623,13,Improv_Metronome,322,5,42,127,2383996128
7623,13,Improv_Metronome,323,1,48,37,2384491676
7623,13,Improv_Metronome,324,5,42,127,2384496048
7623,13,Improv_Metronome,325,1,48,44,2384990548
7623,13,Improv_Metronome,326,5,42,127,2384995816
7623,13,Improv_Metronome,327,1,48,43,2385474356
7623,13,Improv_Metronome,328,5,42,127,2385496560
7623,13,Improv_Metronome,329,1,38,42,2385985800
7623,13,Improv_Metronome,330,5,42,127,2385996080
7623,13,Improv_Metronome,331,1,38,39,2386225020
7623,13,Improv_Metronome,332,5,42,127,2386495760
7623,13,Improv_Metronome,333,1,38,48,2386701004
7623,13,Improv_Metronome,334,5,42,127,2386995600
7623,13,Improv_Metronome,335,1,38,53,2387135776
7623,13,Improv_Metronome,336,1,48,45,2387433172
7623,13,Improv_Metronome,337,5,42,127,2387496260
7623,13,Improv_Metronome,338,1,48,43,2387697576
7623,13,Improv_Metronome,339,1,38,46,2387970964
7623,13,Improv_Metronome,340,5,42,127,2387996056
7623,13,Improv_Metronome,341,1,48,46,2388224700
7623,13,Improv_Metronome,342,5,42,127,2388495664
7623,13,Improv_Metronome,343,1,48,50,2388766580
7623,13,Improv_Metronome,344,5,42,127,2388995656
7623,13,Improv_Metronome,345,1,48,50,2389269416
7623,13,Improv_Metronome,346,5,42,127,2389496100
7623,13,Improv_Metronome,347,1,38,37,2389519712
7623,13,Improv_Metronome,348,1,48,48,2389766176
7623,13,Improv_Metronome,349,5,42,127,2389995844
7623,13,Improv_Metronome,350,1,48,45,2390263100
7623,13,Improv_Metronome,351,5,42,127,2390495836
7623,13,Improv_Metronome,352,1,38,40,2390513696
7623,13,Improv_Metronome,353,1,48,46,2390764412
7623,13,Improv_Metronome,0,9999,9999,9999,2320993396
7623,13,Improv_Metronome,1,9999,9999,9999,2321494088
7623,13,Improv_Metronome,2,9999,9999,9999,2321993776
7623,13,Improv_Metronome,3,9999,9999,9999,2322493492
7623,13,Improv_Metronome,4,9999,9999,9999,2322993208
7623,13,Improv_Metronome,5,9999,9999,9999,2323493996
7623,13,Improv_Metronome,6,9999,9999,9999,2323993676
7623,13,Improv_Metronome,7,9999,9999,9999,2324493364
7623,13,Improv_Metronome,8,9999,9999,9999,2324993112
7623,13,Improv_Metronome,9,9999,9999,9999,2325493832
7623,13,Improv_Metronome,10,9999,9999,9999,2325993584
7623,13,Improv_Metronome,11,9999,9999,9999,2326493272
7623,13,Improv_Metronome,12,9999,9999,9999,2326994016
7623,13,Improv_Metronome,13,9999,9999,9999,2327493688
7623,13,Improv_Metronome,14,9999,9999,9999,2327993444
7623,13,Improv_Metronome,15,9999,9999,9999,2328493136
7623,13,Improv_Metronome,16,9999,9999,9999,2328993856
7623,13,Improv_Metronome,17,9999,9999,9999,2329493604
7623,13,Improv_Metronome,18,9999,9999,9999,2329993276
7623,13,Improv_Metronome,19,9999,9999,9999,2330494016
7623,13,Improv_Metronome,20,9999,9999,9999,2330993712
7623,13,Improv_Metronome,21,9999,9999,9999,2331493456
7623,13,Improv_Metronome,22,9999,9999,9999,2331993208
7623,13,Improv_Metronome,23,9999,9999,9999,2332493924
7623,13,Improv_Metronome,24,9999,9999,9999,2332993596
7623,13,Improv_Metronome,25,9999,9999,9999,2333493356
7623,13,Improv_Metronome,26,9999,9999,9999,2333994060
7623,13,Improv_Metronome,27,9999,9999,9999,2334493756
7623,13,Improv_Metronome,28,9999,9999,9999,2334993528
7623,13,Improv_Metronome,29,9999,9999,9999,2335493216
7623,13,Improv_Metronome,30,9999,9999,9999,2335993916
7623,13,Improv_Metronome,31,9999,9999,9999,2336493688
7623,13,Improv_Metronome,32,9999,9999,9999,2336993360
7623,13,Improv_Metronome,33,9999,9999,9999,2337494096
7623,13,Improv_Metronome,34,9999,9999,9999,2337993824
7623,13,Improv_Metronome,35,9999,9999,9999,2338493520
7623,13,Improv_Metronome,36,9999,9999,9999,2338993216
7623,13,Improv_Metronome,37,9999,9999,9999,2339494008
7623,13,Improv_Metronome,38,9999,9999,9999,2339993680
7623,13,Improv_Metronome,39,9999,9999,9999,2340493376
7623,13,Improv_Metronome,40,9999,9999,9999,2340993124
7623,13,Improv_Metronome,41,9999,9999,9999,2341493844
7623,13,Improv_Metronome,42,9999,9999,9999,2341993592
7623,13,Improv_Metronome,43,9999,9999,9999,2342493284
7623,13,Improv_Metronome,44,9999,9999,9999,2342994020
7623,13,Improv_Metronome,45,9999,9999,9999,2343493744
7623,13,Improv_Metronome,46,9999,9999,9999,2343993416
7623,13,Improv_Metronome,47,9999,9999,9999,2344493112
7623,13,Improv_Metronome,48,9999,9999,9999,2344993908
7623,13,Improv_Metronome,49,9999,9999,9999,2345493584
7623,13,Improv_Metronome,50,9999,9999,9999,2345993328
7623,13,Improv_Metronome,51,9999,9999,9999,2346494072
7623,13,Improv_Metronome,52,9999,9999,9999,2346993744
7623,13,Improv_Metronome,53,9999,9999,9999,2347493424
7623,13,Improv_Metronome,54,9999,9999,9999,2347993172
7623,13,Improv_Metronome,55,9999,9999,9999,2348493916
7623,13,Improv_Metronome,56,9999,9999,9999,2348993588
7623,13,Improv_Metronome,57,9999,9999,9999,2349493336
7623,13,Improv_Metronome,58,9999,9999,9999,2349994056
7623,13,Improv_Metronome,59,9999,9999,9999,2350493752
7623,13,Improv_Metronome,60,9999,9999,9999,2350993500
7623,13,Improv_Metronome,61,9999,9999,9999,2351493172
7623,13,Improv_Metronome,62,9999,9999,9999,2351993964
7623,13,Improv_Metronome,63,9999,9999,9999,2352493660
7623,13,Improv_Metronome,64,9999,9999,9999,2352993332
7623,13,Improv_Metronome,65,9999,9999,9999,2353494128
7623,13,Improv_Metronome,66,9999,9999,9999,2353993796
7623,13,Improv_Metronome,67,9999,9999,9999,2354493492
7623,13,Improv_Metronome,68,9999,9999,9999,2354993204
7623,13,Improv_Metronome,69,9999,9999,9999,2355493944
7623,13,Improv_Metronome,70,9999,9999,9999,2355993712
7623,13,Improv_Metronome,71,9999,9999,9999,2356493408
7623,13,Improv_Metronome,72,9999,9999,9999,2356993080
7623,13,Improv_Metronome,73,9999,9999,9999,2357493872
7623,13,Improv_Metronome,74,9999,9999,9999,2357993552
7623,13,Improv_Metronome,75,9999,9999,9999,2358493240
7623,13,Improv_Metronome,76,9999,9999,9999,2358994036
7623,13,Improv_Metronome,77,9999,9999,9999,2359493708
7623,13,Improv_Metronome,78,9999,9999,9999,2359993460
7623,13,Improv_Metronome,79,9999,9999,9999,2360493152
7623,13,Improv_Metronome,80,9999,9999,9999,2360993876
7623,13,Improv_Metronome,81,9999,9999,9999,2361493624
7623,13,Improv_Metronome,82,9999,9999,9999,2361993296
7623,13,Improv_Metronome,83,9999,9999,9999,2362494032
7623,13,Improv_Metronome,84,9999,9999,9999,2362993712
7623,13,Improv_Metronome,85,9999,9999,9999,2363493476
7623,13,Improv_Metronome,86,9999,9999,9999,2363993180
7623,13,Improv_Metronome,87,9999,9999,9999,2364493916
7623,13,Improv_Metronome,88,9999,9999,9999,2364993588
7623,13,Improv_Metronome,89,9999,9999,9999,2365493340
7623,13,Improv_Metronome,90,9999,9999,9999,2365994060
7623,13,Improv_Metronome,91,9999,9999,9999,2366493756
7623,13,Improv_Metronome,92,9999,9999,9999,2366993504
7623,13,Improv_Metronome,93,9999,9999,9999,2367493176
7623,13,Improv_Metronome,94,9999,9999,9999,2367993968
7623,13,Improv_Metronome,95,9999,9999,9999,2368493664
7623,13,Improv_Metronome,96,9999,9999,9999,2368993336
7623,13,Improv_Metronome,97,9999,9999,9999,2369494132
7623,13,Improv_Metronome,98,9999,9999,9999,2369993800
7623,13,Improv_Metronome,99,9999,9999,9999,2370493496
7623,13,Improv_Metronome,100,9999,9999,9999,2370993244
7623,13,Improv_Metronome,101,9999,9999,9999,2371493964
7623,13,Improv_Metronome,102,9999,9999,9999,2371993712
7623,13,Improv_Metronome,103,9999,9999,9999,2372493432
7623,13,Improv_Metronome,104,9999,9999,9999,2372993076
7623,13,Improv_Metronome,105,9999,9999,9999,2373493832
7623,13,Improv_Metronome,106,9999,9999,9999,2373993580
7623,13,Improv_Metronome,107,9999,9999,9999,2374493256
7623,13,Improv_Metronome,108,9999,9999,9999,2374994000
7623,13,Improv_Metronome,109,9999,9999,9999,2375493692
7623,13,Improv_Metronome,110,9999,9999,9999,2375993432
7623,13,Improv_Metronome,111,9999,9999,9999,2376493116
7623,13,Improv_Metronome,112,9999,9999,9999,2376993856
7623,13,Improv_Metronome,113,9999,9999,9999,2377493604
7623,13,Improv_Metronome,114,9999,9999,9999,2377993276
7623,13,Improv_Metronome,115,9999,9999,9999,2378494072
7623,13,Improv_Metronome,116,9999,9999,9999,2378993760
7623,13,Improv_Metronome,117,9999,9999,9999,2379493436
7623,13,Improv_Metronome,118,9999,9999,9999,2379993184
7623,13,Improv_Metronome,119,9999,9999,9999,2380493904
7623,13,Improv_Metronome,120,9999,9999,9999,2380993592
7623,13,Improv_Metronome,121,9999,9999,9999,2381493340
7623,13,Improv_Metronome,122,9999,9999,9999,2381994064
7623,13,Improv_Metronome,123,9999,9999,9999,2382493812
7623,13,Improv_Metronome,124,9999,9999,9999,2382993508
7623,13,Improv_Metronome,125,9999,9999,9999,2383493180
7623,13,Improv_Metronome,126,9999,9999,9999,2383993916
7623,13,Improv_Metronome,127,9999,9999,9999,2384493684
7623,13,Improv_Metronome,128,9999,9999,9999,2384993380
7623,13,Improv_Metronome,129,9999,9999,9999,2385494124
7623,13,Improv_Metronome,130,9999,9999,9999,2385993792
7623,13,Improv_Metronome,131,9999,9999,9999,2386493544
7623,13,Improv_Metronome,132,9999,9999,9999,2386993240
7623,13,Improv_Metronome,133,9999,9999,9999,2387493972
7623,13,Improv_Metronome,134,9999,9999,9999,2387993696
7623,13,Improv_Metronome,135,9999,9999,9999,2388493376
7623,13,Improv_Metronome,136,9999,9999,9999,2388993144
7623,13,Improv_Metronome,137,9999,9999,9999,2389493812
7623,13,Improv_Metronome,138,9999,9999,9999,2389993556
7623,13,Improv_Metronome,139,9999,9999,9999,2390493252
7624,14,Improv_Melody,0,2,48,80,2441759072
7624,14,Improv_Melody,1,2,72,80,2441761664
7624,14,Improv_Melody,2,5,42,127,2441763232
7624,14,Improv_Melody,3,5,42,110,2442255848
7624,14,Improv_Melody,4,5,42,110,2442755492
7624,14,Improv_Melody,5,5,42,110,2443256260
7624,14,Improv_Melody,6,5,42,127,2443755908
7624,14,Improv_Melody,7,5,42,110,2444255632
7624,14,Improv_Melody,8,5,42,110,2444756400
7624,14,Improv_Melody,9,5,42,110,2445256048
7624,14,Improv_Melody,10,2,43,80,2445758196
7624,14,Improv_Melody,11,2,67,80,2445760576
7624,14,Improv_Melody,12,5,42,127,2445763112
7624,14,Improv_Melody,13,5,42,110,2446255580
7624,14,Improv_Melody,14,5,42,110,2446756196
7624,14,Improv_Melody,15,5,42,110,2447255920
7624,14,Improv_Melody,16,5,42,127,2447755644
7624,14,Improv_Melody,17,5,42,110,2448256408
7624,14,Improv_Melody,18,5,42,110,2448756132
7624,14,Improv_Melody,19,5,42,110,2449255780
7624,14,Improv_Melody,20,2,45,80,2449758080
7624,14,Improv_Melody,21,2,69,80,2449760308
7624,14,Improv_Melody,22,5,42,127,2449762844
7624,14,Improv_Melody,23,5,42,110,2450256132
7624,14,Improv_Melody,24,5,42,110,2450755904
7624,14,Improv_Melody,25,5,42,110,2451255624
7624,14,Improv_Melody,26,5,42,127,2451756396
7624,14,Improv_Melody,27,5,42,110,2452256040
7624,14,Improv_Melody,28,5,42,110,2452755688
7624,14,Improv_Melody,29,5,42,110,2453255708
7624,14,Improv_Melody,30,2,41,80,2453758904
7624,14,Improv_Melody,31,2,65,80,2453761284
7624,14,Improv_Melody,32,5,42,127,2453763668
7624,14,Improv_Melody,33,5,42,110,2454255912
7624,14,Improv_Melody,34,5,42,110,2454755632
7624,14,Improv_Melody,35,5,42,110,2455256700
7624,14,Improv_Melody,36,5,42,127,2455756124
7624,14,Improv_Melody,37,5,42,110,2456255844
7624,14,Improv_Melody,38,5,42,110,2456755492
7624,14,Improv_Melody,39,5,42,110,2457256184
7624,14,Improv_Melody,40,2,48,80,2457758788
7624,14,Improv_Melody,41,2,72,80,2457760708
7624,14,Improv_Melody,42,1,48,43,2457763544
7624,14,Improv_Melody,43,5,42,127,2457764736
7624,14,Improv_Melody,44,5,42,110,2458255696
7624,14,Improv_Melody,45,1,38,45,2458752452
7624,14,Improv_Melody,46,5,42,110,2458755632
7624,14,Improv_Melody,47,5,42,110,2459256308
7624,14,Improv_Melody,48,1,48,43,2459262644
7624,14,Improv_Melody,49,5,42,127,2459755788
7624,14,Improv_Melody,50,1,48,48,2460243640
7624,14,Improv_Melody,51,5,42,110,2460255576
7624,14,Improv_Melody,52,1,38,59,2460719904
7624,14,Improv_Melody,53,5,42,110,2460756620
7624,14,Improv_Melody,54,5,42,110,2461256004
7624,14,Improv_Melody,55,1,48,65,2461751716
7624,14,Improv_Melody,56,2,43,80,2461758528
7624,14,Improv_Melody,57,2,67,80,2461760372
7624,14,Improv_Melody,58,5,42,127,2461762912
7624,14,Improv_Melody,59,5,42,110,2462255660
7624,14,Improv_Melody,60,1,38,69,2462739484
7624,14,Improv_Melody,61,5,42,110,2462756348
7624,14,Improv_Melody,62,1,48,51,2463224444
7624,14,Improv_Melody,63,5,42,110,2463255900
7624,14,Improv_Melody,64,5,42,127,2463755608
7624,14,Improv_Melody,65,1,48,45,2464249372
7624,14,Improv_Melody,66,5,42,110,2464256440
7624,14,Improv_Melody,67,1,38,63,2464707480
7624,14,Improv_Melody,68,5,42,110,2464756216
7624,14,Improv_Melody,69,5,42,110,2465255852
7624,14,Improv_Melody,70,2,45,80,2465757996
7624,14,Improv_Melody,71,2,69,80,2465760380
7624,14,Improv_Melody,72,5,42,127,2465762840
7624,14,Improv_Melody,73,1,48,62,2465791168
7624,14,Improv_Melody,74,5,42,110,2466256404
7624,14,Improv_Melody,75,1,38,68,2466729528
7624,14,Improv_Melody,76,5,42,110,2466755820
7624,14,Improv_Melody,77,1,48,49,2467231396
7624,14,Improv_Melody,78,5,42,110,2467255744
7624,14,Improv_Melody,79,5,42,127,2467756424
7624,14,Improv_Melody,80,1,48,53,2468223488
7624,14,Improv_Melody,81,5,42,110,2468256140
7624,14,Improv_Melody,82,1,38,69,2468726700
7624,14,Improv_Melody,83,5,42,110,2468755764
7624,14,Improv_Melody,84,5,42,110,2469255620
7624,14,Improv_Melody,85,1,48,70,2469748040
7624,14,Improv_Melody,86,2,41,80,2469758732
7624,14,Improv_Melody,87,2,65,80,2469760960
7624,14,Improv_Melody,88,5,42,127,2469763500
7624,14,Improv_Melody,89,5,42,110,2470255876
7624,14,Improv_Melody,90,1,38,58,2470723436
7624,14,Improv_Melody,91,5,42,110,2470755816
7624,14,Improv_Melody,92,1,48,59,2471210796
7624,14,Improv_Melody,93,5,42,110,2471256412
7624,14,Improv_Melody,94,5,42,127,2471756268
7624,14,Improv_Melody,95,5,42,110,2472255816
7624,14,Improv_Melody,96,1,48,73,2472322392
7624,14,Improv_Melody,97,1,38,65,2472749340
7624,14,Improv_Melody,98,5,42,110,2472755584
7624,14,Improv_Melody,99,5,42,110,2473256340
7624,14,Improv_Melody,100,1,48,71,2473743224
7624,14,Improv_Melody,101,2,48,80,2473758560
7624,14,Improv_Melody,102,2,72,80,2473760708
7624,14,Improv_Melody,103,5,42,127,2473763396
7624,14,Improv_Melody,104,5,42,110,2474255628
7624,14,Improv_Melody,105,1,38,81,2474729120
7624,14,Improv_Melody,106,5,42,110,2474755416
7624,14,Improv_Melody,107,1,48,62,2475191648
7624,14,Improv_Melody,108,5,42,110,2475256312
7624,14,Improv_Melody,109,5,42,127,2475755872
7624,14,Improv_Melody,110,5,42,110,2476255592
7624,14,Improv_Melody,111,1,48,56,2476271200
7624,14,Improv_Melody,112,5,42,110,2476756264
7624,14,Improv_Melody,113,1,38,43,2476774492
7624,14,Improv_Melody,114,5,42,110,2477256040
7624,14,Improv_Melody,115,1,48,56,2477694528
7624,14,Improv_Melody,116,2,43,80,2477758332
7624,14,Improv_Melody,117,2,67,80,2477760480
7624,14,Improv_Melody,118,5,42,127,2477763096
7624,14,Improv_Melody,119,5,42,110,2478255472
7624,14,Improv_Melody,120,1,38,59,2478720664
7624,14,Improv_Melody,121,5,42,110,2478756232
7624,14,Improv_Melody,122,1,48,54,2479190520
7624,14,Improv_Melody,123,5,42,110,2479255860
7624,14,Improv_Melody,124,5,42,127,2479755492
7624,14,Improv_Melody,125,1,48,59,2480231756
7624,14,Improv_Melody,126,5,42,110,2480256328
7624,14,Improv_Melody,127,1,38,79,2480744096
7624,14,Improv_Melody,128,5,42,110,2480756104
7624,14,Improv_Melody,129,5,42,110,2481255736
7624,14,Improv_Melody,130,1,48,57,2481744940
7624,14,Improv_Melody,131,2,45,80,2481758028
7624,14,Improv_Melody,132,2,69,80,2481760176
7624,14,Improv_Melody,133,5,42,127,2481762864
7624,14,Improv_Melody,134,5,42,110,2482256216
7624,14,Improv_Melody,135,5,42,110,2482755912
7624,14,Improv_Melody,136,1,38,63,2482762796
7624,14,Improv_Melody,137,1,48,43,2483209716
7624,14,Improv_Melody,138,5,42,110,2483255756
7624,14,Improv_Melody,139,5,42,127,2483756360
7624,14,Improv_Melody,140,5,42,110,2484256080
7624,14,Improv_Melody,141,1,48,61,2484261664
7624,14,Improv_Melody,142,1,38,71,2484746156
7624,14,Improv_Melody,143,5,42,110,2484755772
7624,14,Improv_Melody,144,1,48,44,2485198436
7624,14,Improv_Melody,145,5,42,110,2485255476
7624,14,Improv_Melody,146,1,48,54,2485691408
7624,14,Improv_Melody,147,2,41,80,2485758644
7624,14,Improv_Melody,148,2,65,80,2485760948
7624,14,Improv_Melody,149,5,42,127,2485763488
7624,14,Improv_Melody,150,5,42,110,2486256088
7624,14,Improv_Melody,151,5,42,110,2486755660
7624,14,Improv_Melody,152,1,38,77,2486778904
7624,14,Improv_Melody,153,1,48,51,2487236540
7624,14,Improv_Melody,154,5,42,110,2487256400
7624,14,Improv_Melody,155,5,42,127,2487756184
7624,14,Improv_Melody,156,5,42,110,2488256052
7624,14,Improv_Melody,157,1,48,51,2488268076
7624,14,Improv_Melody,158,1,38,72,2488748380
7624,14,Improv_Melody,159,5,42,110,2488755524
7624,14,Improv_Melody,160,1,48,48,2489226312
7624,14,Improv_Melody,161,5,42,110,2489256196
7624,14,Improv_Melody,162,2,48,80,2489758404
7624,14,Improv_Melody,163,2,72,80,2489760784
7624,14,Improv_Melody,164,5,42,127,2489763244
7624,14,Improv_Melody,165,5,42,110,2490255712
7624,14,Improv_Melody,166,1,38,64,2490295632
7624,14,Improv_Melody,167,1,48,37,2490749084
7624,14,Improv_Melody,168,5,42,110,2490755476
7624,14,Improv_Melody,169,1,48,35,2491203424
7624,14,Improv_Melody,170,5,42,110,2491256296
7624,14,Improv_Melody,171,1,38,51,2491721180
7624,14,Improv_Melody,172,5,42,127,2491756072
7624,14,Improv_Melody,173,5,42,110,2492255556
7624,14,Improv_Melody,174,1,38,61,2492741072
7624,14,Improv_Melody,175,5,42,110,2492756316
7624,14,Improv_Melody,176,1,38,54,2493243612
7624,14,Improv_Melody,177,5,42,110,2493256092
7624,14,Improv_Melody,178,1,48,43,2493740244
7624,14,Improv_Melody,179,2,43,80,2493758420
7624,14,Improv_Melody,180,2,67,80,2493760724
7624,14,Improv_Melody,181,5,42,127,2493763108
7624,14,Improv_Melody,182,5,42,110,2494255488
7624,14,Improv_Melody,183,5,42,110,2494756104
7624,14,Improv_Melody,184,1,38,71,2494765732
7624,14,Improv_Melody,185,5,42,110,2495256104
7624,14,Improv_Melody,186,5,42,127,2495755600
7624,14,Improv_Melody,187,5,42,110,2496256368
7624,14,Improv_Melody,188,1,48,46,2496263232
7624,14,Improv_Melody,189,1,38,52,2496727824
7624,14,Improv_Melody,190,5,42,110,2496756136
7624,14,Improv_Melody,191,1,38,39,2496976180
7624,14,Improv_Melody,192,1,38,54,2497231168
7624,14,Improv_Melody,193,5,42,110,2497255964
7624,14,Improv_Melody,194,2,45,80,2497758256
7624,14,Improv_Melody,195,2,69,80,2497760480
7624,14,Improv_Melody,196,5,42,127,2497762936
7624,14,Improv_Melody,197,1,48,52,2497781092
7624,14,Improv_Melody,198,5,42,110,2498256280
7624,14,Improv_Melody,199,1,48,39,2498563328
7624,14,Improv_Melody,200,5,42,110,2498755980
7624,14,Improv_Melody,201,1,38,47,2498770172
7624,14,Improv_Melody,202,1,48,36,2499202604
7624,14,Improv_Melody,203,5,42,110,2499256048
7624,14,Improv_Melody,204,5,42,127,2499756352
7624,14,Improv_Melody,205,5,42,110,2500256076
7624,14,Improv_Melody,206,1,48,44,2500266748
7624,14,Improv_Melody,207,5,42,110,2500755924
7624,14,Improv_Melody,208,1,38,66,2500771912
7624,14,Improv_Melody,209,5,42,110,2501255700
7624,14,Improv_Melody,210,1,48,48,2501743408
7624,14,Improv_Melody,211,2,41,80,2501758892
7624,14,Improv_Melody,212,2,65,80,2501760892
7624,14,Improv_Melody,213,5,42,127,2501763508
7624,14,Improv_Melody,214,5,42,110,2502255960
7624,14,Improv_Melody,215,1,48,45,2502539140
7624,14,Improv_Melody,216,5,42,110,2502755660
7624,14,Improv_Melody,217,1,38,57,2502789892
7624,14,Improv_Melody,218,1,48,43,2503243872
7624,14,Improv_Melody,219,5,42,110,2503256548
7624,14,Improv_Melody,220,5,42,127,2503756032
7624,14,Improv_Melody,221,5,42,110,2504255804
7624,14,Improv_Melody,222,1,48,33,2504273160
7624,14,Improv_Melody,223,1,38,66,2504750520
7624,14,Improv_Melody,224,5,42,110,2504755720
7624,14,Improv_Melody,225,1,38,48,2505000072
7624,14,Improv_Melody,226,1,38,66,2505252144
7624,14,Improv_Melody,227,5,42,110,2505256296
7624,14,Improv_Melody,228,2,48,80,2505758656
7624,14,Improv_Melody,229,2,72,80,2505760732
7624,14,Improv_Melody,230,5,42,127,2505763196
7624,14,Improv_Melody,231,1,48,48,2505793840
7624,14,Improv_Melody,232,5,42,110,2506255864
7624,14,Improv_Melody,233,1,48,42,2506497092
7624,14,Improv_Melody,234,1,38,55,2506744976
7624,14,Improv_Melody,235,5,42,110,2506755556
7624,14,Improv_Melody,236,1,48,43,2507222160
7624,14,Improv_Melody,237,5,42,110,2507256080
7624,14,Improv_Melody,238,5,42,127,2507755860
7624,14,Improv_Melody,239,5,42,110,2508255732
7624,14,Improv_Melody,240,1,48,48,2508262140
7624,14,Improv_Melody,241,1,38,65,2508744612
7624,14,Improv_Melody,242,5,42,110,2508756248
7624,14,Improv_Melody,243,5,42,110,2509256032
7624,14,Improv_Melody,244,1,48,46,2509753392
7624,14,Improv_Melody,245,2,43,80,2509758100
7624,14,Improv_Melody,246,2,67,80,2509760324
7624,14,Improv_Melody,247,5,42,127,2509762940
7624,14,Improv_Melody,248,5,42,110,2510255616
7624,14,Improv_Melody,249,1,48,44,2510473504
7624,14,Improv_Melody,250,1,38,57,2510738444
7624,14,Improv_Melody,251,5,42,110,2510756208
7624,14,Improv_Melody,252,5,42,110,2511255916
7624,14,Improv_Melody,253,1,48,46,2511266964
7624,14,Improv_Melody,254,5,42,127,2511755616
7624,14,Improv_Melody,255,5,42,110,2512256532
7624,14,Improv_Melody,256,1,48,46,2512311936
7624,14,Improv_Melody,257,1,38,57,2512750576
7624,14,Improv_Melody,258,5,42,110,2512756076
7624,14,Improv_Melody,259,1,38,48,2513000728
7624,14,Improv_Melody,260,1,38,54,2513253244
7624,14,Improv_Melody,261,5,42,110,2513255980
7624,14,Improv_Melody,262,2,45,80,2513757888
7624,14,Improv_Melody,263,2,69,80,2513760040
7624,14,Improv_Melody,264,5,42,127,2513762804
7624,14,Improv_Melody,265,1,48,51,2513774524
7624,14,Improv_Melody,266,5,42,110,2514256148
7624,14,Improv_Melody,267,1,48,45,2514549284
7624,14,Improv_Melody,268,5,42,110,2514755824
7624,14,Improv_Melody,269,1,38,63,2514818584
7624,14,Improv_Melody,270,1,48,50,2515247924
7624,14,Improv_Melody,271,5,42,110,2515255592
7624,14,Improv_Melody,272,5,42,127,2515756568
7624,14,Improv_Melody,273,5,42,110,2516256068
7624,14,Improv_Melody,274,1,48,42,2516257480
7624,14,Improv_Melody,275,5,42,110,2516755768
7624,14,Improv_Melody,276,1,38,63,2516782448
7624,14,Improv_Melody,277,5,42,110,2517255468
7624,14,Improv_Melody,278,1,48,41,2517746164
7624,14,Improv_Melody,279,2,41,80,2517758728
7624,14,Improv_Melody,280,2,65,80,2517760808
7624,14,Improv_Melody,281,5,42,127,2517763496
7624,14,Improv_Melody,282,5,42,110,2518255948
7624,14,Improv_Melody,283,1,48,43,2518434488
7624,14,Improv_Melody,284,1,38,57,2518740120
7624,14,Improv_Melody,285,5,42,110,2518755564
7624,14,Improv_Melody,286,1,48,53,2519250068
7624,14,Improv_Melody,287,5,42,110,2519256832
7624,14,Improv_Melody,288,5,42,127,2519756168
7624,14,Improv_Melody,289,1,48,45,2520255288
7624,14,Improv_Melody,290,5,42,110,2520256856
7624,14,Improv_Melody,291,1,38,53,2520731384
7624,14,Improv_Melody,292,5,42,110,2520755656
7624,14,Improv_Melody,293,1,38,55,2520975624
7624,14,Improv_Melody,294,1,38,69,2521243400
7624,14,Improv_Melody,295,5,42,110,2521256456
7624,14,Improv_Melody,296,1,48,50,2521748564
7624,14,Improv_Melody,297,2,48,80,2521758740
7624,14,Improv_Melody,298,2,72,80,2521760816
7624,14,Improv_Melody,299,5,42,127,2521763496
7624,14,Improv_Melody,300,5,42,110,2522255728
7624,14,Improv_Melody,301,1,48,45,2522502488
7624,14,Improv_Melody,0,9999,9999,9999,2441753716
7624,14,Improv_Melody,1,9999,9999,9999,2442253404
7624,14,Improv_Melody,2,9999,9999,9999,2442753124
7624,14,Improv_Melody,3,9999,9999,9999,2443253820
7624,14,Improv_Melody,4,9999,9999,9999,2443753544
7624,14,Improv_Melody,5,9999,9999,9999,2444253264
7624,14,Improv_Melody,6,9999,9999,9999,2444754032
7624,14,Improv_Melody,7,9999,9999,9999,2445253680
7624,14,Improv_Melody,8,9999,9999,9999,2445753400
7624,14,Improv_Melody,9,9999,9999,9999,2446253136
7624,14,Improv_Melody,10,9999,9999,9999,2446753904
7624,14,Improv_Melody,11,9999,9999,9999,2447253552
7624,14,Improv_Melody,12,9999,9999,9999,2447753276
7624,14,Improv_Melody,13,9999,9999,9999,2448254044
7624,14,Improv_Melody,14,9999,9999,9999,2448753764
7624,14,Improv_Melody,15,9999,9999,9999,2449253484
7624,14,Improv_Melody,16,9999,9999,9999,2449753208
7624,14,Improv_Melody,17,9999,9999,9999,2450253916
7624,14,Improv_Melody,18,9999,9999,9999,2450753612
7624,14,Improv_Melody,19,9999,9999,9999,2451253332
7624,14,Improv_Melody,20,9999,9999,9999,2451754100
7624,14,Improv_Melody,21,9999,9999,9999,2452253748
7624,14,Improv_Melody,22,9999,9999,9999,2452753468
7624,14,Improv_Melody,23,9999,9999,9999,2453253192
7624,14,Improv_Melody,24,9999,9999,9999,2453753960
7624,14,Improv_Melody,25,9999,9999,9999,2454253620
7624,14,Improv_Melody,26,9999,9999,9999,2454753340
7624,14,Improv_Melody,27,9999,9999,9999,2455254112
7624,14,Improv_Melody,28,9999,9999,9999,2455753832
7624,14,Improv_Melody,29,9999,9999,9999,2456253552
7624,14,Improv_Melody,30,9999,9999,9999,2456753272
7624,14,Improv_Melody,31,9999,9999,9999,2457253968
7624,14,Improv_Melody,32,9999,9999,9999,2457753688
7624,14,Improv_Melody,33,9999,9999,9999,2458253400
7624,14,Improv_Melody,34,9999,9999,9999,2458753116
7624,14,Improv_Melody,35,9999,9999,9999,2459253868
7624,14,Improv_Melody,36,9999,9999,9999,2459753568
7624,14,Improv_Melody,37,9999,9999,9999,2460253284
7624,14,Improv_Melody,38,9999,9999,9999,2460754028
7624,14,Improv_Melody,39,9999,9999,9999,2461253712
7624,14,Improv_Melody,40,9999,9999,9999,2461753424
7624,14,Improv_Melody,41,9999,9999,9999,2462253144
7624,14,Improv_Melody,42,9999,9999,9999,2462753908
7624,14,Improv_Melody,43,9999,9999,9999,2463253608
7624,14,Improv_Melody,44,9999,9999,9999,2463753312
7624,14,Improv_Melody,45,9999,9999,9999,2464254000
7624,14,Improv_Melody,46,9999,9999,9999,2464753776
7624,14,Improv_Melody,47,9999,9999,9999,2465253484
7624,14,Improv_Melody,48,9999,9999,9999,2465753204
7624,14,Improv_Melody,49,9999,9999,9999,2466253888
7624,14,Improv_Melody,50,9999,9999,9999,2466753604
7624,14,Improv_Melody,51,9999,9999,9999,2467253304
7624,14,Improv_Melody,52,9999,9999,9999,2467754056
7624,14,Improv_Melody,53,9999,9999,9999,2468253772
7624,14,Improv_Melody,54,9999,9999,9999,2468753472
7624,14,Improv_Melody,55,9999,9999,9999,2469253180
7624,14,Improv_Melody,56,9999,9999,9999,2469753940
7624,14,Improv_Melody,57,9999,9999,9999,2470253660
7624,14,Improv_Melody,58,9999,9999,9999,2470753372
7624,14,Improv_Melody,59,9999,9999,9999,2471254120
7624,14,Improv_Melody,60,9999,9999,9999,2471753824
7624,14,Improv_Melody,61,9999,9999,9999,2472253524
7624,14,Improv_Melody,62,9999,9999,9999,2472753220
7624,14,Improv_Melody,63,9999,9999,9999,2473253972
7624,14,Improv_Melody,64,9999,9999,9999,2473753688
7624,14,Improv_Melody,65,9999,9999,9999,2474253408
7624,14,Improv_Melody,66,9999,9999,9999,2474753124
7624,14,Improv_Melody,67,9999,9999,9999,2475253868
7624,14,Improv_Melody,68,9999,9999,9999,2475753576
7624,14,Improv_Melody,69,9999,9999,9999,2476253300
7624,14,Improv_Melody,70,9999,9999,9999,2476753972
7624,14,Improv_Melody,71,9999,9999,9999,2477253744
7624,14,Improv_Melody,72,9999,9999,9999,2477753460
7624,14,Improv_Melody,73,9999,9999,9999,2478253104
7624,14,Improv_Melody,74,9999,9999,9999,2478753868
7624,14,Improv_Melody,75,9999,9999,9999,2479253568
7624,14,Improv_Melody,76,9999,9999,9999,2479753272
7624,14,Improv_Melody,77,9999,9999,9999,2480254036
7624,14,Improv_Melody,78,9999,9999,9999,2480753736
7624,14,Improv_Melody,79,9999,9999,9999,2481253444
7624,14,Improv_Melody,80,9999,9999,9999,2481753156
7624,14,Improv_Melody,81,9999,9999,9999,2482253924
7624,14,Improv_Melody,82,9999,9999,9999,2482753620
7624,14,Improv_Melody,83,9999,9999,9999,2483253312
7624,14,Improv_Melody,84,9999,9999,9999,2483754068
7624,14,Improv_Melody,85,9999,9999,9999,2484253788
7624,14,Improv_Melody,86,9999,9999,9999,2484753480
7624,14,Improv_Melody,87,9999,9999,9999,2485253180
7624,14,Improv_Melody,88,9999,9999,9999,2485753928
7624,14,Improv_Melody,89,9999,9999,9999,2486253648
7624,14,Improv_Melody,90,9999,9999,9999,2486753368
7624,14,Improv_Melody,91,9999,9999,9999,2487254112
7624,14,Improv_Melody,92,9999,9999,9999,2487753816
7624,14,Improv_Melody,93,9999,9999,9999,2488253536
7624,14,Improv_Melody,94,9999,9999,9999,2488753232
7624,14,Improv_Melody,95,9999,9999,9999,2489253976
7624,14,Improv_Melody,96,9999,9999,9999,2489753684
7624,14,Improv_Melody,97,9999,9999,9999,2490253420
7624,14,Improv_Melody,98,9999,9999,9999,2490753112
7624,14,Improv_Melody,99,9999,9999,9999,2491253856
7624,14,Improv_Melody,100,9999,9999,9999,2491753556
7624,14,Improv_Melody,101,9999,9999,9999,2492253264
7624,14,Improv_Melody,102,9999,9999,9999,2492754024
7624,14,Improv_Melody,103,9999,9999,9999,2493253700
7624,14,Improv_Melody,104,9999,9999,9999,2493753400
7624,14,Improv_Melody,105,9999,9999,9999,2494253120
7624,14,Improv_Melody,106,9999,9999,9999,2494753888
7624,14,Improv_Melody,107,9999,9999,9999,2495253588
7624,14,Improv_Melody,108,9999,9999,9999,2495753308
7624,14,Improv_Melody,109,9999,9999,9999,2496254000
7624,14,Improv_Melody,110,9999,9999,9999,2496753772
7624,14,Improv_Melody,111,9999,9999,9999,2497253448
7624,14,Improv_Melody,112,9999,9999,9999,2497753156
7624,14,Improv_Melody,113,9999,9999,9999,2498253912
7624,14,Improv_Melody,114,9999,9999,9999,2498753612
7624,14,Improv_Melody,115,9999,9999,9999,2499253308
7624,14,Improv_Melody,116,9999,9999,9999,2499754060
7624,14,Improv_Melody,117,9999,9999,9999,2500253780
7624,14,Improv_Melody,118,9999,9999,9999,2500753484
7624,14,Improv_Melody,119,9999,9999,9999,2501253184
7624,14,Improv_Melody,120,9999,9999,9999,2501753944
7624,14,Improv_Melody,121,9999,9999,9999,2502253664
7624,14,Improv_Melody,122,9999,9999,9999,2502753364
7624,14,Improv_Melody,123,9999,9999,9999,2503254108
7624,14,Improv_Melody,124,9999,9999,9999,2503753812
7624,14,Improv_Melody,125,9999,9999,9999,2504253508
7624,14,Improv_Melody,126,9999,9999,9999,2504753204
7624,14,Improv_Melody,127,9999,9999,9999,2505254004
7624,14,Improv_Melody,128,9999,9999,9999,2505753712
7624,14,Improv_Melody,129,9999,9999,9999,2506253424
7624,14,Improv_Melody,130,9999,9999,9999,2506753116
7624,14,Improv_Melody,131,9999,9999,9999,2507253864
7624,14,Improv_Melody,132,9999,9999,9999,2507753568
7624,14,Improv_Melody,133,9999,9999,9999,2508253292
7624,14,Improv_Melody,134,9999,9999,9999,2508754032
7624,14,Improv_Melody,135,9999,9999,9999,2509253736
7624,14,Improv_Melody,136,9999,9999,9999,2509753452
7624,14,Improv_Melody,137,9999,9999,9999,2510253176
7624,14,Improv_Melody,138,9999,9999,9999,2510753840
7624,14,Improv_Melody,139,9999,9999,9999,2511253624
7624,14,Improv_Melody,140,9999,9999,9999,2511753324
7624,14,Improv_Melody,141,9999,9999,9999,2512254016
7624,14,Improv_Melody,142,9999,9999,9999,2512753784
7624,14,Improv_Melody,143,9999,9999,9999,2513253464
7624,14,Improv_Melody,144,9999,9999,9999,2513753168
7624,14,Improv_Melody,145,9999,9999,9999,2514253928
7624,14,Improv_Melody,146,9999,9999,9999,2514753604
7624,14,Improv_Melody,147,9999,9999,9999,2515253300
7624,14,Improv_Melody,148,9999,9999,9999,2515754052
7624,14,Improv_Melody,149,9999,9999,9999,2516253776
7624,14,Improv_Melody,150,9999,9999,9999,2516753476
7624,14,Improv_Melody,151,9999,9999,9999,2517253172
7624,14,Improv_Melody,152,9999,9999,9999,2517753936
7624,14,Improv_Melody,153,9999,9999,9999,2518253656
7624,14,Improv_Melody,154,9999,9999,9999,2518753348
7624,14,Improv_Melody,155,9999,9999,9999,2519254096
7624,14,Improv_Melody,156,9999,9999,9999,2519753800
7624,14,Improv_Melody,157,9999,9999,9999,2520253524
7624,14,Improv_Melody,158,9999,9999,9999,2520753216
7624,14,Improv_Melody,159,9999,9999,9999,2521253940
7624,14,Improv_Melody,160,9999,9999,9999,2521753712
7624,14,Improv_Melody,161,9999,9999,9999,2522253432
76