pid,taskRunCount,taskID,taskName,i,channel,pitch,velocity,microseconds
1,0,Ticks_Pract_8,0,5,42,127,997653796
771,0,Ticks_Pract_8,1,5,42,127,998453480
771,0,Ticks_Pract_8,2,5,42,127,999254356
771,0,Ticks_Pract_8,3,1,48,35,999295468
771,0,Ticks_Pract_8,4,1,48,33,999982540
771,0,Ticks_Pract_8,5,5,42,127,1000054080
771,0,Ticks_Pract_8,6,1,48,32,1000779060
771,0,Ticks_Pract_8,7,5,42,127,1000854036
771,0,Ticks_Pract_8,8,1,48,30,1001638556
771,0,Ticks_Pract_8,9,5,42,127,1001653572
771,0,Ticks_Pract_8,10,1,48,41,1002415696
771,0,Ticks_Pract_8,11,5,42,127,1002454276
771,0,Ticks_Pract_8,12,1,48,31,1003237748
771,0,Ticks_Pract_8,13,5,42,127,1003254308
771,0,Ticks_Pract_8,14,1,48,39,1003963204
771,0,Ticks_Pract_8,15,5,42,127,1004053744
771,0,Ticks_Pract_8,16,1,48,35,1004773260
771,0,Ticks_Pract_8,17,5,42,127,1004853552
771,0,Ticks_Pract_8,18,1,48,38,1005559384
771,0,Ticks_Pract_8,19,5,42,127,1005655364
771,0,Ticks_Pract_8,20,1,48,40,1006371084
771,0,Ticks_Pract_8,21,5,42,127,1006454216
771,0,Ticks_Pract_8,22,1,48,38,1007139104
771,0,Ticks_Pract_8,23,5,42,127,1007254008
771,0,Ticks_Pract_8,24,1,48,34,1007955812
771,0,Ticks_Pract_8,25,5,42,127,1008053544
771,0,Ticks_Pract_8,26,1,48,29,1008807984
771,0,Ticks_Pract_8,27,5,42,127,1008854336
771,0,Ticks_Pract_8,28,1,48,28,1009622176
771,0,Ticks_Pract_8,29,5,42,127,1009654144
771,0,Ticks_Pract_8,30,1,48,31,1010359076
771,0,Ticks_Pract_8,31,5,42,127,1010453956
771,0,Ticks_Pract_8,32,1,48,36,1011167344
771,0,Ticks_Pract_8,33,5,42,127,1011253540
771,0,Ticks_Pract_8,34,1,48,34,1011929748
771,0,Ticks_Pract_8,35,5,42,127,1012054232
771,0,Ticks_Pract_8,36,1,48,32,1012745036
771,0,Ticks_Pract_8,37,5,42,127,1012854336
771,0,Ticks_Pract_8,38,1,48,28,1013560928
771,0,Ticks_Pract_8,39,5,42,127,1013653920
771,0,Ticks_Pract_8,40,1,48,29,1014366572
771,0,Ticks_Pract_8,41,5,42,127,1014453768
771,0,Ticks_Pract_8,42,1,48,28,1015110356
771,0,Ticks_Pract_8,43,5,42,127,1015254312
771,0,Ticks_Pract_8,44,1,48,38,1015980548
771,0,Ticks_Pract_8,45,5,42,127,1016054208
771,0,Ticks_Pract_8,46,1,48,28,1016783816
771,0,Ticks_Pract_8,47,5,42,127,1016854088
771,0,Ticks_Pract_8,48,1,48,31,1017521896
771,0,Ticks_Pract_8,49,5,42,127,1017653584
771,0,Ticks_Pract_8,50,1,48,30,1018377532
771,0,Ticks_Pract_8,51,5,42,127,1018454380
771,0,Ticks_Pract_8,52,1,48,28,1019193340
771,0,Ticks_Pract_8,53,5,42,127,1019254336
771,0,Ticks_Pract_8,54,1,48,29,1019951344
771,0,Ticks_Pract_8,55,5,42,127,1020054056
771,0,Ticks_Pract_8,56,1,48,35,1020758480
771,0,Ticks_Pract_8,57,5,42,127,1020853528
771,0,Ticks_Pract_8,58,1,48,34,1021528592
771,0,Ticks_Pract_8,0,9999,9999,9999,997651508
771,0,Ticks_Pract_8,1,9999,9999,9999,998451264
771,0,Ticks_Pract_8,2,9999,9999,9999,999252064
771,0,Ticks_Pract_8,3,9999,9999,9999,1000051792
771,0,Ticks_Pract_8,4,9999,9999,9999,1000851524
771,0,Ticks_Pract_8,5,9999,9999,9999,1001651260
771,0,Ticks_Pract_8,6,9999,9999,9999,1002452064
771,0,Ticks_Pract_8,7,9999,9999,9999,1003251796
771,0,Ticks_Pract_8,8,9999,9999,9999,1004051532
771,0,Ticks_Pract_8,9,9999,9999,9999,1004851264
771,0,Ticks_Pract_8,10,9999,9999,9999,1005652044
771,0,Ticks_Pract_8,11,9999,9999,9999,1006451780
771,0,Ticks_Pract_8,12,9999,9999,9999,1007251572
771,0,Ticks_Pract_8,13,9999,9999,9999,1008051304
771,0,Ticks_Pract_8,14,9999,9999,9999,1008852048
771,0,Ticks_Pract_8,15,9999,9999,9999,1009651784
771,0,Ticks_Pract_8,16,9999,9999,9999,1010451516
771,0,Ticks_Pract_8,17,9999,9999,9999,1011251252
771,0,Ticks_Pract_8,18,9999,9999,9999,1012052016
771,0,Ticks_Pract_8,19,9999,9999,9999,1012851824
771,0,Ticks_Pract_8,20,9999,9999,9999,1013651516
771,0,Ticks_Pract_8,21,9999,9999,9999,1014451308
771,0,Ticks_Pract_8,22,9999,9999,9999,1015252020
771,0,Ticks_Pract_8,23,9999,9999,9999,1016051772
771,0,Ticks_Pract_8,24,9999,9999,9999,1016851504
771,0,Ticks_Pract_8,25,9999,9999,9999,1017651296
771,0,Ticks_Pract_8,26,9999,9999,9999,1018452016
771,0,Ticks_Pract_8,27,9999,9999,9999,1019251824
771,0,Ticks_Pract_8,28,9999,9999,9999,1020051544
771,0,Ticks_Pract_8,29,9999,9999,9999,1020851292
772,1,Ticks_Pract_5,0,5,42,127,1046053372
772,1,Ticks_Pract_5,1,5,42,127,1046553012
772,1,Ticks_Pract_5,2,1,48,32,1047023068
772,1,Ticks_Pract_5,3,5,42,127,1047052572
772,1,Ticks_Pract_5,4,1,48,36,1047484544
772,1,Ticks_Pract_5,5,5,42,127,1047553388
772,1,Ticks_Pract_5,6,1,48,33,1047977408
772,1,Ticks_Pract_5,7,5,42,127,1048053232
772,1,Ticks_Pract_5,8,1,48,32,1048487348
772,1,Ticks_Pract_5,9,5,42,127,1048552852
772,1,Ticks_Pract_5,10,1,48,32,1048993924
772,1,Ticks_Pract_5,11,5,42,127,1049052620
772,1,Ticks_Pract_5,12,1,48,33,1049496984
772,1,Ticks_Pract_5,13,5,42,127,1049553360
772,1,Ticks_Pract_5,14,5,42,127,1050053064
772,1,Ticks_Pract_5,15,1,48,34,1050059400
772,1,Ticks_Pract_5,16,1,48,36,1050548384
772,1,Ticks_Pract_5,17,5,42,127,1050552676
772,1,Ticks_Pract_5,18,1,48,35,1051031596
772,1,Ticks_Pract_5,19,5,42,127,1051053540
772,1,Ticks_Pract_5,20,1,48,33,1051513560
772,1,Ticks_Pract_5,21,5,42,127,1051553312
772,1,Ticks_Pract_5,22,1,48,30,1051983556
772,1,Ticks_Pract_5,23,5,42,127,1052052784
772,1,Ticks_Pract_5,24,1,48,31,1052460220
772,1,Ticks_Pract_5,25,5,42,127,1052552552
772,1,Ticks_Pract_5,26,1,48,29,1053021400
772,1,Ticks_Pract_5,27,5,42,127,1053053516
772,1,Ticks_Pract_5,28,1,48,35,1053505084
772,1,Ticks_Pract_5,29,5,42,127,1053552988
772,1,Ticks_Pract_5,30,1,48,34,1053992512
772,1,Ticks_Pract_5,31,5,42,127,1054052608
772,1,Ticks_Pract_5,32,1,48,34,1054499164
772,1,Ticks_Pract_5,33,5,42,127,1054552304
772,1,Ticks_Pract_5,34,1,48,31,1055007760
772,1,Ticks_Pract_5,35,5,42,127,1055053416
772,1,Ticks_Pract_5,36,1,48,30,1055515152
772,1,Ticks_Pract_5,37,5,42,127,1055552736
772,1,Ticks_Pract_5,38,1,48,28,1055989120
772,1,Ticks_Pract_5,39,5,42,127,1056052580
772,1,Ticks_Pract_5,40,1,48,31,1056465548
772,1,Ticks_Pract_5,41,5,42,127,1056553396
772,1,Ticks_Pract_5,42,5,42,127,1057053248
772,1,Ticks_Pract_5,43,1,48,26,1057430232
772,1,Ticks_Pract_5,44,5,42,127,1057552644
772,1,Ticks_Pract_5,45,1,48,29,1058017544
772,1,Ticks_Pract_5,46,5,42,127,1058052576
772,1,Ticks_Pract_5,47,1,48,35,1058515364
772,1,Ticks_Pract_5,48,5,42,127,1058553392
772,1,Ticks_Pract_5,49,1,48,33,1059049916
772,1,Ticks_Pract_5,50,5,42,127,1059053236
772,1,Ticks_Pract_5,51,1,48,39,1059545272
772,1,Ticks_Pract_5,52,5,42,127,1059552712
772,1,Ticks_Pract_5,53,1,48,34,1060036064
772,1,Ticks_Pract_5,54,5,42,127,1060053304
772,1,Ticks_Pract_5,55,1,48,32,1060533212
772,1,Ticks_Pract_5,56,5,42,127,1060553220
772,1,Ticks_Pract_5,57,1,48,35,1061006488
772,1,Ticks_Pract_5,58,5,42,127,1061052912
772,1,Ticks_Pract_5,59,1,48,35,1061527196
772,1,Ticks_Pract_5,60,5,42,127,1061552436
772,1,Ticks_Pract_5,61,1,48,35,1062018808
772,1,Ticks_Pract_5,62,5,42,127,1062053324
772,1,Ticks_Pract_5,63,1,48,35,1062490236
772,1,Ticks_Pract_5,64,5,42,127,1062553244
772,1,Ticks_Pract_5,65,1,48,30,1062997780
772,1,Ticks_Pract_5,66,5,42,127,1063052564
772,1,Ticks_Pract_5,67,1,48,29,1063464044
772,1,Ticks_Pract_5,68,5,42,127,1063553384
772,1,Ticks_Pract_5,69,1,48,29,1063965676
772,1,Ticks_Pract_5,70,5,42,127,1064053300
772,1,Ticks_Pract_5,71,1,48,31,1064488636
772,1,Ticks_Pract_5,72,5,42,127,1064552996
772,1,Ticks_Pract_5,73,1,48,33,1065018556
772,1,Ticks_Pract_5,74,5,42,127,1065052468
772,1,Ticks_Pract_5,75,5,42,127,1065553288
772,1,Ticks_Pract_5,76,1,48,32,1065558876
772,1,Ticks_Pract_5,77,1,48,32,1066021380
772,1,Ticks_Pract_5,0,9999,9999,9999,1046050936
772,1,Ticks_Pract_5,1,9999,9999,9999,1046550580
772,1,Ticks_Pract_5,2,9999,9999,9999,1047050288
772,1,Ticks_Pract_5,3,9999,9999,9999,1047551028
772,1,Ticks_Pract_5,4,9999,9999,9999,1048050796
772,1,Ticks_Pract_5,5,9999,9999,9999,1048550492
772,1,Ticks_Pract_5,6,9999,9999,9999,1049050188
772,1,Ticks_Pract_5,7,9999,9999,9999,1049550928
772,1,Ticks_Pract_5,8,9999,9999,9999,1050050628
772,1,Ticks_Pract_5,9,9999,9999,9999,1050550392
772,1,Ticks_Pract_5,10,9999,9999,9999,1051051108
772,1,Ticks_Pract_5,11,9999,9999,9999,1051550800
772,1,Ticks_Pract_5,12,9999,9999,9999,1052050496
772,1,Ticks_Pract_5,13,9999,9999,9999,1052550264
772,1,Ticks_Pract_5,14,9999,9999,9999,1053050932
772,1,Ticks_Pract_5,15,9999,9999,9999,1053550704
772,1,Ticks_Pract_5,16,9999,9999,9999,1054050396
772,1,Ticks_Pract_5,17,9999,9999,9999,1054550092
772,1,Ticks_Pract_5,18,9999,9999,9999,1055050832
772,1,Ticks_Pract_5,19,9999,9999,9999,1055550524
772,1,Ticks_Pract_5,20,9999,9999,9999,1056050296
772,1,Ticks_Pract_5,21,9999,9999,9999,1056550960
772,1,Ticks_Pract_5,22,9999,9999,9999,1057050736
772,1,Ticks_Pract_5,23,9999,9999,9999,1057550432
772,1,Ticks_Pract_5,24,9999,9999,9999,1058050144
772,1,Ticks_Pract_5,25,9999,9999,9999,1058550884
772,1,Ticks_Pract_5,26,9999,9999,9999,1059050580
772,1,Ticks_Pract_5,27,9999,9999,9999,1059550276
772,1,Ticks_Pract_5,28,9999,9999,9999,1060051016
772,1,Ticks_Pract_5,29,9999,9999,9999,1060550712
772,1,Ticks_Pract_5,30,9999,9999,9999,1061050480
772,1,Ticks_Pract_5,31,9999,9999,9999,1061550148
772,1,Ticks_Pract_5,32,9999,9999,9999,1062050888
772,1,Ticks_Pract_5,33,9999,9999,9999,1062550584
772,1,Ticks_Pract_5,34,9999,9999,9999,1063050356
772,1,Ticks_Pract_5,35,9999,9999,9999,1063551096
772,1,Ticks_Pract_5,36,9999,9999,9999,1064050792
772,1,Ticks_Pract_5,37,9999,9999,9999,1064550488
772,1,Ticks_Pract_5,38,9999,9999,9999,1065050184
772,1,Ticks_Pract_5,39,9999,9999,9999,1065550928
773,2,T1_SMS_8,0,5,42,127,1150717268
773,2,T1_SMS_8,1,5,42,127,1151517024
773,2,T1_SMS_8,2,5,42,127,1152316852
773,2,T1_SMS_8,3,1,48,38,1152320044
773,2,T1_SMS_8,4,5,42,127,1153116512
773,2,T1_SMS_8,5,1,48,33,1153137060
773,2,T1_SMS_8,6,1,48,31,1153911488
773,2,T1_SMS_8,7,5,42,127,1153917584
773,2,T1_SMS_8,8,1,48,27,1154681904
773,2,T1_SMS_8,9,5,42,127,1154717092
773,2,T1_SMS_8,10,1,48,31,1155512332
773,2,T1_SMS_8,11,5,42,127,1155516852
773,2,T1_SMS_8,12,5,42,127,1156316668
773,2,T1_SMS_8,13,1,48,35,1156348060
773,2,T1_SMS_8,14,1,48,39,1157101776
773,2,T1_SMS_8,15,5,42,127,1157117440
773,2,T1_SMS_8,16,5,42,127,1157917104
773,2,T1_SMS_8,17,1,48,36,1157931592
773,2,T1_SMS_8,18,1,48,26,1158691968
773,2,T1_SMS_8,19,5,42,127,1158716756
773,2,T1_SMS_8,20,1,48,29,1159439640
773,2,T1_SMS_8,21,5,42,127,1159516640
773,2,T1_SMS_8,22,1,48,30,1160236232
773,2,T1_SMS_8,23,5,42,127,1160317344
773,2,T1_SMS_8,24,1,48,37,1161012100
773,2,T1_SMS_8,25,5,42,127,1161116992
773,2,T1_SMS_8,26,1,48,36,1161822832
773,2,T1_SMS_8,27,5,42,127,1161916688
773,2,T1_SMS_8,28,1,48,33,1162635204
773,2,T1_SMS_8,29,5,42,127,1162716496
773,2,T1_SMS_8,30,1,48,34,1163435236
773,2,T1_SMS_8,31,5,42,127,1163517276
773,2,T1_SMS_8,32,1,48,35,1164305080
773,2,T1_SMS_8,33,5,42,127,1164317160
773,2,T1_SMS_8,34,1,48,28,1165091056
773,2,T1_SMS_8,35,5,42,127,1165116820
773,2,T1_SMS_8,36,1,48,33,1165886680
773,2,T1_SMS_8,37,5,42,127,1165916480
773,2,T1_SMS_8,38,1,48,35,1166660524
773,2,T1_SMS_8,39,5,42,127,1166717184
773,2,T1_SMS_8,40,1,48,35,1167466020
773,2,T1_SMS_8,41,5,42,127,1167517140
773,2,T1_SMS_8,42,5,42,127,1168316684
773,2,T1_SMS_8,43,1,48,33,1168338352
773,2,T1_SMS_8,44,1,48,39,1169059956
773,2,T1_SMS_8,45,5,42,127,1169116484
773,2,T1_SMS_8,46,1,48,42,1169817952
773,2,T1_SMS_8,47,5,42,127,1169918220
773,2,T1_SMS_8,48,1,48,40,1170648452
773,2,T1_SMS_8,49,5,42,127,1170717148
773,2,T1_SMS_8,50,1,48,28,1171421180
773,2,T1_SMS_8,51,5,42,127,1171516808
773,2,T1_SMS_8,52,1,48,38,1172213656
773,2,T1_SMS_8,53,5,42,127,1172316528
773,2,T1_SMS_8,54,1,48,33,1173055728
773,2,T1_SMS_8,55,5,42,127,1173117248
773,2,T1_SMS_8,56,1,48,37,1173861144
773,2,T1_SMS_8,57,5,42,127,1173917128
773,2,T1_SMS_8,58,1,48,30,1174661332
773,2,T1_SMS_8,59,5,42,127,1174716888
773,2,T1_SMS_8,60,1,48,36,1175355068
773,2,T1_SMS_8,61,5,42,127,1175516456
773,2,T1_SMS_8,62,1,48,33,1176197592
773,2,T1_SMS_8,63,5,42,127,1176317236
773,2,T1_SMS_8,64,1,48,35,1177030184
773,2,T1_SMS_8,65,5,42,127,1177117060
773,2,T1_SMS_8,66,1,48,36,1177838220
773,2,T1_SMS_8,67,5,42,127,1177916868
773,2,T1_SMS_8,68,1,48,33,1178647452
773,2,T1_SMS_8,69,5,42,127,1178716600
773,2,T1_SMS_8,70,1,48,33,1179442624
773,2,T1_SMS_8,71,5,42,127,1179517232
773,2,T1_SMS_8,72,1,48,32,1180261580
773,2,T1_SMS_8,73,5,42,127,1180317188
773,2,T1_SMS_8,74,1,48,42,1181029220
773,2,T1_SMS_8,75,5,42,127,1181116944
773,2,T1_SMS_8,76,1,48,39,1181828956
773,2,T1_SMS_8,77,5,42,127,1181916604
773,2,T1_SMS_8,78,1,48,34,1182668884
773,2,T1_SMS_8,79,5,42,127,1182717384
773,2,T1_SMS_8,80,1,48,35,1183468240
773,2,T1_SMS_8,81,5,42,127,1183517192
773,2,T1_SMS_8,82,1,48,37,1184252860
773,2,T1_SMS_8,83,5,42,127,1184316924
773,2,T1_SMS_8,84,1,48,37,1185043992
773,2,T1_SMS_8,85,5,42,127,1185116584
773,2,T1_SMS_8,86,1,48,34,1185818372
773,2,T1_SMS_8,87,5,42,127,1185917348
773,2,T1_SMS_8,88,1,48,37,1186646680
773,2,T1_SMS_8,89,5,42,127,1186717024
773,2,T1_SMS_8,90,1,48,33,1187414472
773,2,T1_SMS_8,91,5,42,127,1187517064
773,2,T1_SMS_8,92,1,48,31,1188207176
773,2,T1_SMS_8,93,5,42,127,1188316576
773,2,T1_SMS_8,94,1,48,36,1188989628
773,2,T1_SMS_8,95,5,42,127,1189117428
773,2,T1_SMS_8,96,1,48,35,1189784124
773,2,T1_SMS_8,97,5,42,127,1189917012
773,2,T1_SMS_8,98,1,48,37,1190661000
773,2,T1_SMS_8,99,5,42,127,1190716984
773,2,T1_SMS_8,100,1,48,37,1191502996
773,2,T1_SMS_8,101,5,42,127,1191516492
773,2,T1_SMS_8,102,1,48,37,1192314024
773,2,T1_SMS_8,103,5,42,127,1192317200
773,2,T1_SMS_8,104,5,42,127,1193116940
773,2,T1_SMS_8,105,1,48,35,1193144464
773,2,T1_SMS_8,106,1,48,36,1193899376
773,2,T1_SMS_8,107,5,42,127,1193916988
773,2,T1_SMS_8,108,5,42,127,1194716504
773,2,T1_SMS_8,109,1,48,31,1194722836
773,2,T1_SMS_8,110,1,48,32,1195479920
773,2,T1_SMS_8,111,5,42,127,1195517280
773,2,T1_SMS_8,112,1,48,34,1196300672
773,2,T1_SMS_8,113,5,42,127,1196316940
773,2,T1_SMS_8,114,1,48,35,1197101900
773,2,T1_SMS_8,115,5,42,127,1197116672
773,2,T1_SMS_8,116,1,48,35,1197848152
773,2,T1_SMS_8,117,5,42,127,1197916776
773,2,T1_SMS_8,118,1,48,35,1198612060
773,2,T1_SMS_8,119,5,42,127,1198717244
773,2,T1_SMS_8,120,1,48,36,1199410744
773,2,T1_SMS_8,121,5,42,127,1199516980
773,2,T1_SMS_8,122,1,48,34,1200189836
773,2,T1_SMS_8,123,5,42,127,1200316664
773,2,T1_SMS_8,124,1,48,31,1201027788
773,2,T1_SMS_8,125,5,42,127,1201116856
773,2,T1_SMS_8,126,1,48,29,1201772172
773,2,T1_SMS_8,127,5,42,127,1201917248
773,2,T1_SMS_8,128,1,48,25,1202630124
773,2,T1_SMS_8,129,5,42,127,1202717072
773,2,T1_SMS_8,130,1,48,21,1203508768
773,2,T1_SMS_8,131,5,42,127,1203516732
773,2,T1_SMS_8,132,1,48,28,1204244996
773,2,T1_SMS_8,133,5,42,127,1204316540
773,2,T1_SMS_8,134,1,48,29,1205046300
773,2,T1_SMS_8,135,5,42,127,1205117244
773,2,T1_SMS_8,136,1,48,30,1205845656
773,2,T1_SMS_8,137,5,42,127,1205916904
773,2,T1_SMS_8,138,1,48,25,1206688780
773,2,T1_SMS_8,139,5,42,127,1206716664
773,2,T1_SMS_8,140,1,48,35,1207503864
773,2,T1_SMS_8,141,5,42,127,1207516468
773,2,T1_SMS_8,142,1,48,34,1208290812
773,2,T1_SMS_8,143,5,42,127,1208317176
773,2,T1_SMS_8,144,1,48,28,1209001956
773,2,T1_SMS_8,145,5,42,127,1209117092
773,2,T1_SMS_8,146,1,48,33,1209831088
773,2,T1_SMS_8,147,5,42,127,1209916764
773,2,T1_SMS_8,148,1,48,32,1210687524
773,2,T1_SMS_8,149,5,42,127,1210716428
773,2,T1_SMS_8,150,1,48,38,1211446492
773,2,T1_SMS_8,151,5,42,127,1211517504
773,2,T1_SMS_8,152,1,48,36,1212229240
773,2,T1_SMS_8,153,5,42,127,1212316940
773,2,T1_SMS_8,154,1,48,35,1213031668
773,2,T1_SMS_8,155,5,42,127,1213116696
773,2,T1_SMS_8,156,1,48,40,1213881468
773,2,T1_SMS_8,157,5,42,127,1213916504
773,2,T1_SMS_8,158,5,42,127,1214717516
773,2,T1_SMS_8,159,1,48,34,1214737988
773,2,T1_SMS_8,160,5,42,127,1215517024
773,2,T1_SMS_8,161,1,48,30,1215555220
773,2,T1_SMS_8,162,1,48,26,1216306548
773,2,T1_SMS_8,163,5,42,127,1216316828
773,2,T1_SMS_8,164,1,48,29,1217057436
773,2,T1_SMS_8,165,5,42,127,1217116412
773,2,T1_SMS_8,166,1,48,26,1217808480
773,2,T1_SMS_8,167,5,42,127,1217917548
773,2,T1_SMS_8,168,1,48,32,1218609184
773,2,T1_SMS_8,169,5,42,127,1218716984
773,2,T1_SMS_8,170,1,48,34,1219456708
773,2,T1_SMS_8,171,5,42,127,1219516832
773,2,T1_SMS_8,172,5,42,127,1220316496
773,2,T1_SMS_8,173,1,48,36,1220331584
773,2,T1_SMS_8,174,5,42,127,1221117424
773,2,T1_SMS_8,175,1,48,29,1221151656
773,2,T1_SMS_8,176,1,48,34,1221897744
773,2,T1_SMS_8,177,5,42,127,1221917300
773,2,T1_SMS_8,178,1,48,32,1222653420
773,2,T1_SMS_8,179,5,42,127,1222716664
773,2,T1_SMS_8,180,1,48,35,1223456144
773,2,T1_SMS_8,181,5,42,127,1223516620
773,2,T1_SMS_8,182,1,48,30,1224219228
773,2,T1_SMS_8,183,5,42,127,1224318504
773,2,T1_SMS_8,184,1,48,25,1224992184
773,2,T1_SMS_8,185,5,42,127,1225117340
773,2,T1_SMS_8,186,1,48,26,1225763268
773,2,T1_SMS_8,187,5,42,127,1225916872
773,2,T1_SMS_8,188,5,42,127,1226716480
773,2,T1_SMS_8,189,1,48,26,1226722140
773,2,T1_SMS_8,190,1,48,30,1227488572
773,2,T1_SMS_8,191,5,42,127,1227517252
773,2,T1_SMS_8,192,1,48,30,1228273272
773,2,T1_SMS_8,193,5,42,127,1228317140
773,2,T1_SMS_8,194,1,48,29,1229082132
773,2,T1_SMS_8,195,5,42,127,1229116800
773,2,T1_SMS_8,196,1,48,29,1229843264
773,2,T1_SMS_8,197,5,42,127,1229916384
773,2,T1_SMS_8,198,1,48,32,1230560504
773,2,T1_SMS_8,199,5,42,127,1230717224
773,2,T1_SMS_8,200,1,48,30,1231324852
773,2,T1_SMS_8,201,5,42,127,1231517180
773,2,T1_SMS_8,202,1,48,21,1232214196
773,2,T1_SMS_8,203,5,42,127,1232316640
773,2,T1_SMS_8,204,1,48,19,1233021112
773,2,T1_SMS_8,205,5,42,127,1233116540
773,2,T1_SMS_8,206,1,48,27,1233880708
773,2,T1_SMS_8,207,5,42,127,1233917244
773,2,T1_SMS_8,208,1,48,29,1234675952
773,2,T1_SMS_8,209,5,42,127,1234717128
773,2,T1_SMS_8,210,1,48,29,1235452648
773,2,T1_SMS_8,211,5,42,127,1235516712
773,2,T1_SMS_8,212,1,48,27,1236214012
773,2,T1_SMS_8,213,5,42,127,1236316504
773,2,T1_SMS_8,214,1,48,29,1237057580
773,2,T1_SMS_8,215,5,42,127,1237117300
773,2,T1_SMS_8,216,1,48,28,1237859628
773,2,T1_SMS_8,217,5,42,127,1237917032
773,2,T1_SMS_8,218,1,48,29,1238691448
773,2,T1_SMS_8,219,5,42,127,1238716640
773,2,T1_SMS_8,220,1,48,28,1239494796
773,2,T1_SMS_8,221,5,42,127,1239516448
773,2,T1_SMS_8,222,5,42,127,1240317232
773,2,T1_SMS_8,223,1,48,32,1240350120
773,2,T1_SMS_8,224,5,42,127,1241117120
773,2,T1_SMS_8,225,1,48,31,1241125172
773,2,T1_SMS_8,226,1,48,29,1241871180
773,2,T1_SMS_8,227,5,42,127,1241916696
773,2,T1_SMS_8,228,1,48,27,1242663512
773,2,T1_SMS_8,229,5,42,127,1242716504
773,2,T1_SMS_8,230,1,48,29,1243456060
773,2,T1_SMS_8,231,5,42,127,1243517208
773,2,T1_SMS_8,232,1,48,28,1244250036
773,2,T1_SMS_8,233,5,42,127,1244317016
773,2,T1_SMS_8,234,1,48,28,1245005264
773,2,T1_SMS_8,235,5,42,127,1245116760
773,2,T1_SMS_8,236,1,48,26,1245777772
773,2,T1_SMS_8,237,5,42,127,1245916492
773,2,T1_SMS_8,238,1,48,26,1246584992
773,2,T1_SMS_8,0,9999,9999,9999,1150714976
773,2,T1_SMS_8,1,9999,9999,9999,1151514732
773,2,T1_SMS_8,2,9999,9999,9999,1152314488
773,2,T1_SMS_8,3,9999,9999,9999,1153114220
773,2,T1_SMS_8,4,9999,9999,9999,1153914992
773,2,T1_SMS_8,5,9999,9999,9999,1154714728
773,2,T1_SMS_8,6,9999,9999,9999,1155514484
773,2,T1_SMS_8,7,9999,9999,9999,1156314224
773,2,T1_SMS_8,8,9999,9999,9999,1157115000
773,2,T1_SMS_8,9,9999,9999,9999,1157914740
773,2,T1_SMS_8,10,9999,9999,9999,1158714468
773,2,T1_SMS_8,11,9999,9999,9999,1159514200
773,2,T1_SMS_8,12,9999,9999,9999,1160314980
773,2,T1_SMS_8,13,9999,9999,9999,1161114696
773,2,T1_SMS_8,14,9999,9999,9999,1161914472
773,2,T1_SMS_8,15,9999,9999,9999,1162714204
773,2,T1_SMS_8,16,9999,9999,9999,1163514984
773,2,T1_SMS_8,17,9999,9999,9999,1164314720
773,2,T1_SMS_8,18,9999,9999,9999,1165114456
773,2,T1_SMS_8,19,9999,9999,9999,1165914188
773,2,T1_SMS_8,20,9999,9999,9999,1166714968
773,2,T1_SMS_8,21,9999,9999,9999,1167514700
773,2,T1_SMS_8,22,9999,9999,9999,1168314468
773,2,T1_SMS_8,23,9999,9999,9999,1169114192
773,2,T1_SMS_8,24,9999,9999,9999,1169914972
773,2,T1_SMS_8,25,9999,9999,9999,1170714708
773,2,T1_SMS_8,26,9999,9999,9999,1171514440
773,2,T1_SMS_8,27,9999,9999,9999,1172314160
773,2,T1_SMS_8,28,9999,9999,9999,1173114956
773,2,T1_SMS_8,29,9999,9999,9999,1173914688
773,2,T1_SMS_8,30,9999,9999,9999,1174714448
773,2,T1_SMS_8,31,9999,9999,9999,1175514164
773,2,T1_SMS_8,32,9999,9999,9999,1176314944
773,2,T1_SMS_8,33,9999,9999,9999,1177114696
773,2,T1_SMS_8,34,9999,9999,9999,1177914428
773,2,T1_SMS_8,35,9999,9999,9999,1178714160
773,2,T1_SMS_8,36,9999,9999,9999,1179514940
773,2,T1_SMS_8,37,9999,9999,9999,1180314672
773,2,T1_SMS_8,38,9999,9999,9999,1181114432
773,2,T1_SMS_8,39,9999,9999,9999,1181914164
773,2,T1_SMS_8,40,9999,9999,9999,1182714944
773,2,T1_SMS_8,41,9999,9999,9999,1183514676
773,2,T1_SMS_8,42,9999,9999,9999,1184314484
773,2,T1_SMS_8,43,9999,9999,9999,1185114220
773,2,T1_SMS_8,44,9999,9999,9999,1185914984
773,2,T1_SMS_8,45,9999,9999,9999,1186714732
773,2,T1_SMS_8,46,9999,9999,9999,1187514476
773,2,T1_SMS_8,47,9999,9999,9999,1188314208
773,2,T1_SMS_8,48,9999,9999,9999,1189114988
773,2,T1_SMS_8,49,9999,9999,9999,1189914720
773,2,T1_SMS_8,50,9999,9999,9999,1190714468
773,2,T1_SMS_8,51,9999,9999,9999,1191514200
773,2,T1_SMS_8,52,9999,9999,9999,1192314980
773,2,T1_SMS_8,53,9999,9999,9999,1193114720
773,2,T1_SMS_8,54,9999,9999,9999,1193914472
773,2,T1_SMS_8,55,9999,9999,9999,1194714212
773,2,T1_SMS_8,56,9999,9999,9999,1195514988
773,2,T1_SMS_8,57,9999,9999,9999,1196314720
773,2,T1_SMS_8,58,9999,9999,9999,1197114456
773,2,T1_SMS_8,59,9999,9999,9999,1197914188
773,2,T1_SMS_8,60,9999,9999,9999,1198714952
773,2,T1_SMS_8,61,9999,9999,9999,1199514688
773,2,T1_SMS_8,62,9999,9999,9999,1200314444
773,2,T1_SMS_8,63,9999,9999,9999,1201114196
773,2,T1_SMS_8,64,9999,9999,9999,1201914956
773,2,T1_SMS_8,65,9999,9999,9999,1202714708
773,2,T1_SMS_8,66,9999,9999,9999,1203514440
773,2,T1_SMS_8,67,9999,9999,9999,1204314172
773,2,T1_SMS_8,68,9999,9999,9999,1205114952
773,2,T1_SMS_8,69,9999,9999,9999,1205914684
773,2,T1_SMS_8,70,9999,9999,9999,1206714444
773,2,T1_SMS_8,71,9999,9999,9999,1207514176
773,2,T1_SMS_8,72,9999,9999,9999,1208314960
773,2,T1_SMS_8,73,9999,9999,9999,1209114728
773,2,T1_SMS_8,74,9999,9999,9999,1209914476
773,2,T1_SMS_8,75,9999,9999,9999,1210714212
773,2,T1_SMS_8,76,9999,9999,9999,1211514988
773,2,T1_SMS_8,77,9999,9999,9999,1212314724
773,2,T1_SMS_8,78,9999,9999,9999,1213114480
773,2,T1_SMS_8,79,9999,9999,9999,1213914212
773,2,T1_SMS_8,80,9999,9999,9999,1214714924
773,2,T1_SMS_8,81,9999,9999,9999,1215514732
773,2,T1_SMS_8,82,9999,9999,9999,1216314460
773,2,T1_SMS_8,83,9999,9999,9999,1217114196
773,2,T1_SMS_8,84,9999,9999,9999,1217914960
773,2,T1_SMS_8,85,9999,9999,9999,1218714692
773,2,T1_SMS_8,86,9999,9999,9999,1219514464
773,2,T1_SMS_8,87,9999,9999,9999,1220314204
773,2,T1_SMS_8,88,9999,9999,9999,1221114984
773,2,T1_SMS_8,89,9999,9999,9999,1221914708
773,2,T1_SMS_8,90,9999,9999,9999,1222714444
773,2,T1_SMS_8,91,9999,9999,9999,1223514180
773,2,T1_SMS_8,92,9999,9999,9999,1224314960
773,2,T1_SMS_8,93,9999,9999,9999,1225114676
773,2,T1_SMS_8,94,9999,9999,9999,1225914432
773,2,T1_SMS_8,95,9999,9999,9999,1226714192
773,2,T1_SMS_8,96,9999,9999,9999,1227514964
773,2,T1_SMS_8,97,9999,9999,9999,1228314700
773,2,T1_SMS_8,98,9999,9999,9999,1229114432
773,2,T1_SMS_8,99,9999,9999,9999,1229914164
773,2,T1_SMS_8,100,9999,9999,9999,1230714932
773,2,T1_SMS_8,101,9999,9999,9999,1231514740
773,2,T1_SMS_8,102,9999,9999,9999,1232314424
773,2,T1_SMS_8,103,9999,9999,9999,1233114172
773,2,T1_SMS_8,104,9999,9999,9999,1233914952
773,2,T1_SMS_8,105,9999,9999,9999,1234714684
773,2,T1_SMS_8,106,9999,9999,9999,1235514420
773,2,T1_SMS_8,107,9999,9999,9999,1236314212
773,2,T1_SMS_8,108,9999,9999,9999,1237114932
773,2,T1_SMS_8,109,9999,9999,9999,1237914740
773,2,T1_SMS_8,110,9999,9999,9999,1238714424
773,2,T1_SMS_8,111,9999,9999,9999,1239514232
773,2,T1_SMS_8,112,9999,9999,9999,1240314944
773,2,T1_SMS_8,113,9999,9999,9999,1241114676
773,2,T1_SMS_8,114,9999,9999,9999,1241914480
773,2,T1_SMS_8,115,9999,9999,9999,1242714212
773,2,T1_SMS_8,116,9999,9999,9999,1243514992
773,2,T1_SMS_8,117,9999,9999,9999,1244314724
773,2,T1_SMS_8,118,9999,9999,9999,1245114468
773,2,T1_SMS_8,119,9999,9999,9999,1245914200
774,4,T1_SMS_5,0,5,42,127,1311186268
774,4,T1_SMS_5,1,5,42,127,1311685984
774,4,T1_SMS_5,2,5,42,127,1312185848
774,4,T1_SMS_5,3,1,48,26,1312610632
774,4,T1_SMS_5,4,5,42,127,1312685856
774,4,T1_SMS_5,5,1,48,27,1313139492
774,4,T1_SMS_5,6,5,42,127,1313186124
774,4,T1_SMS_5,7,1,48,25,1313648840
774,4,T1_SMS_5,8,5,42,127,1313685820
774,4,T1_SMS_5,9,1,48,22,1314130060
774,4,T1_SMS_5,10,5,42,127,1314185888
774,4,T1_SMS_5,11,1,48,27,1314618684
774,4,T1_SMS_5,12,5,42,127,1314686184
774,4,T1_SMS_5,13,1,48,28,1315132364
774,4,T1_SMS_5,14,5,42,127,1315185880
774,4,T1_SMS_5,15,1,48,26,1315654348
774,4,T1_SMS_5,16,5,42,127,1315685872
774,4,T1_SMS_5,17,1,48,23,1316175884
774,4,T1_SMS_5,18,5,42,127,1316185640
774,4,T1_SMS_5,19,1,48,31,1316643712
774,4,T1_SMS_5,20,5,42,127,1316686084
774,4,T1_SMS_5,21,1,48,28,1317110276
774,4,T1_SMS_5,22,5,42,127,1317185856
774,4,T1_SMS_5,23,1,48,27,1317626572
774,4,T1_SMS_5,24,5,42,127,1317685848
774,4,T1_SMS_5,25,1,48,26,1318145492
774,4,T1_SMS_5,26,5,42,127,1318186292
774,4,T1_SMS_5,27,1,48,24,1318657976
774,4,T1_SMS_5,28,5,42,127,1318686132
774,4,T1_SMS_5,29,1,48,22,1319163136
774,4,T1_SMS_5,30,5,42,127,1319185828
774,4,T1_SMS_5,31,1,48,26,1319660508
774,4,T1_SMS_5,32,5,42,127,1319685748
774,4,T1_SMS_5,33,1,48,26,1320180252
774,4,T1_SMS_5,34,5,42,127,1320186192
774,4,T1_SMS_5,35,1,48,27,1320643444
774,4,T1_SMS_5,36,5,42,127,1320685816
774,4,T1_SMS_5,37,5,42,127,1321185740
774,4,T1_SMS_5,38,1,48,25,1321226860
774,4,T1_SMS_5,39,1,48,26,1321667296
774,4,T1_SMS_5,40,5,42,127,1321686552
774,4,T1_SMS_5,41,1,48,29,1322152480
774,4,T1_SMS_5,42,5,42,127,1322186096
774,4,T1_SMS_5,43,1,48,23,1322678052
774,4,T1_SMS_5,44,5,42,127,1322685864
774,4,T1_SMS_5,45,1,48,26,1323175056
774,4,T1_SMS_5,46,5,42,127,1323185784
774,4,T1_SMS_5,47,1,48,27,1323671888
774,4,T1_SMS_5,48,5,42,127,1323686304
774,4,T1_SMS_5,49,1,48,28,1324171656
774,4,T1_SMS_5,50,5,42,127,1324185972
774,4,T1_SMS_5,51,5,42,127,1324685676
774,4,T1_SMS_5,52,1,48,21,1324701660
774,4,T1_SMS_5,53,5,42,127,1325186420
774,4,T1_SMS_5,54,1,48,22,1325202556
774,4,T1_SMS_5,55,5,42,127,1325686112
774,4,T1_SMS_5,56,1,48,23,1325718476
774,4,T1_SMS_5,57,1,48,28,1326164520
774,4,T1_SMS_5,58,5,42,127,1326185800
774,4,T1_SMS_5,59,1,48,18,1326657936
774,4,T1_SMS_5,60,5,42,127,1326685492
774,4,T1_SMS_5,61,1,48,27,1327123968
774,4,T1_SMS_5,62,5,42,127,1327186236
774,4,T1_SMS_5,63,5,42,127,1327685936
774,4,T1_SMS_5,64,1,48,21,1327713664
774,4,T1_SMS_5,65,1,48,22,1328155000
774,4,T1_SMS_5,66,5,42,127,1328185772
774,4,T1_SMS_5,67,1,48,23,1328650508
774,4,T1_SMS_5,68,5,42,127,1328685468
774,4,T1_SMS_5,69,1,48,20,1329184020
774,4,T1_SMS_5,70,5,42,127,1329186060
774,4,T1_SMS_5,71,1,48,24,1329617508
774,4,T1_SMS_5,72,5,42,127,1329685904
774,4,T1_SMS_5,73,5,42,127,1330185456
774,4,T1_SMS_5,74,1,48,18,1330194932
774,4,T1_SMS_5,75,1,48,21,1330676580
774,4,T1_SMS_5,76,5,42,127,1330686264
774,4,T1_SMS_5,77,1,48,18,1331184224
774,4,T1_SMS_5,78,5,42,127,1331185960
774,4,T1_SMS_5,79,5,42,127,1331685664
774,4,T1_SMS_5,80,1,48,16,1331716760
774,4,T1_SMS_5,81,5,42,127,1332185356
774,4,T1_SMS_5,82,1,48,21,1332204332
774,4,T1_SMS_5,83,5,42,127,1332686324
774,4,T1_SMS_5,84,1,48,22,1332690044
774,4,T1_SMS_5,85,5,42,127,1333185868
774,4,T1_SMS_5,86,1,48,15,1333210308
774,4,T1_SMS_5,87,1,48,22,1333640248
774,4,T1_SMS_5,88,5,42,127,1333685704
774,4,T1_SMS_5,89,5,42,127,1334186452
774,4,T1_SMS_5,90,1,48,19,1334199676
774,4,T1_SMS_5,91,1,48,24,1334674568
774,4,T1_SMS_5,92,5,42,127,1334685968
774,4,T1_SMS_5,93,1,48,25,1335129680
774,4,T1_SMS_5,94,5,42,127,1335185736
774,4,T1_SMS_5,95,5,42,127,1335685440
774,4,T1_SMS_5,96,1,48,20,1335705088
774,4,T1_SMS_5,97,5,42,127,1336186404
774,4,T1_SMS_5,98,1,48,24,1336207252
774,4,T1_SMS_5,99,5,42,127,1336685876
774,4,T1_SMS_5,100,1,48,26,1336711440
774,4,T1_SMS_5,101,5,42,127,1337185648
774,4,T1_SMS_5,102,1,48,25,1337187136
774,4,T1_SMS_5,103,1,48,26,1337675424
774,4,T1_SMS_5,104,5,42,127,1337686532
774,4,T1_SMS_5,105,1,48,15,1338151784
774,4,T1_SMS_5,106,5,42,127,1338186300
774,4,T1_SMS_5,107,1,48,19,1338643100
774,4,T1_SMS_5,108,5,42,127,1338685848
774,4,T1_SMS_5,109,1,48,19,1339151628
774,4,T1_SMS_5,110,5,42,127,1339185392
774,4,T1_SMS_5,111,1,48,21,1339643616
774,4,T1_SMS_5,112,5,42,127,1339686504
774,4,T1_SMS_5,113,1,48,23,1340155204
774,4,T1_SMS_5,114,5,42,127,1340185828
774,4,T1_SMS_5,115,1,48,28,1340617804
774,4,T1_SMS_5,116,5,42,127,1340685600
774,4,T1_SMS_5,117,1,48,28,1341154140
774,4,T1_SMS_5,118,5,42,127,1341186568
774,4,T1_SMS_5,119,5,42,127,1341686412
774,4,T1_SMS_5,120,1,48,21,1341734860
774,4,T1_SMS_5,121,1,48,24,1342184984
774,4,T1_SMS_5,122,5,42,127,1342186556
774,4,T1_SMS_5,123,1,48,29,1342642832
774,4,T1_SMS_5,124,5,42,127,1342685500
774,4,T1_SMS_5,125,1,48,26,1343147392
774,4,T1_SMS_5,126,5,42,127,1343186392
774,4,T1_SMS_5,127,1,48,27,1343680524
774,4,T1_SMS_5,128,5,42,127,1343685864
774,4,T1_SMS_5,129,1,48,29,1344133964
774,4,T1_SMS_5,130,5,42,127,1344185708
774,4,T1_SMS_5,131,1,48,26,1344667172
774,4,T1_SMS_5,132,5,42,127,1344685404
774,4,T1_SMS_5,133,5,42,127,1345186424
774,4,T1_SMS_5,134,1,48,22,1345231284
774,4,T1_SMS_5,135,1,48,21,1345671916
774,4,T1_SMS_5,136,5,42,127,1345685936
774,4,T1_SMS_5,137,1,48,24,1346152312
774,4,T1_SMS_5,138,5,42,127,1346185560
774,4,T1_SMS_5,139,1,48,25,1346663752
774,4,T1_SMS_5,140,5,42,127,1346686448
774,4,T1_SMS_5,141,5,42,127,1347186224
774,4,T1_SMS_5,142,1,48,24,1347201012
774,4,T1_SMS_5,143,5,42,127,1347685624
774,4,T1_SMS_5,144,1,48,20,1347693608
774,4,T1_SMS_5,145,1,48,27,1348131644
774,4,T1_SMS_5,146,5,42,127,1348185460
774,4,T1_SMS_5,147,1,48,24,1348649000
774,4,T1_SMS_5,148,5,42,127,1348686424
774,4,T1_SMS_5,149,5,42,127,1349185756
774,4,T1_SMS_5,150,1,48,19,1349204284
774,4,T1_SMS_5,151,5,42,127,1349685524
774,4,T1_SMS_5,152,1,48,19,1349688496
774,4,T1_SMS_5,153,1,48,20,1350181140
774,4,T1_SMS_5,154,5,42,127,1350186480
774,4,T1_SMS_5,155,5,42,127,1350686332
774,4,T1_SMS_5,156,1,48,16,1350696484
774,4,T1_SMS_5,157,1,48,25,1351128252
774,4,T1_SMS_5,158,5,42,127,1351185724
774,4,T1_SMS_5,159,1,48,21,1351637520
774,4,T1_SMS_5,160,5,42,127,1351685496
774,4,T1_SMS_5,161,1,48,21,1352149184
774,4,T1_SMS_5,162,5,42,127,1352186312
774,4,T1_SMS_5,163,1,48,19,1352673032
774,4,T1_SMS_5,164,5,42,127,1352686008
774,4,T1_SMS_5,165,1,48,21,1353144608
774,4,T1_SMS_5,166,5,42,127,1353185628
774,4,T1_SMS_5,167,1,48,21,1353625728
774,4,T1_SMS_5,168,5,42,127,1353686372
774,4,T1_SMS_5,169,5,42,127,1354185996
774,4,T1_SMS_5,170,1,48,19,1354225092
774,4,T1_SMS_5,171,1,48,19,1354631920
774,4,T1_SMS_5,172,5,42,127,1354685684
774,4,T1_SMS_5,173,1,48,24,1355156604
774,4,T1_SMS_5,174,5,42,127,1355185532
774,4,T1_SMS_5,175,5,42,127,1355686280
774,4,T1_SMS_5,176,1,48,23,1355696804
774,4,T1_SMS_5,177,1,48,22,1356181648
774,4,T1_SMS_5,178,5,42,127,1356185940
774,4,T1_SMS_5,179,1,48,20,1356679096
774,4,T1_SMS_5,180,5,42,127,1356685636
774,4,T1_SMS_5,181,5,42,127,1357186392
774,4,T1_SMS_5,182,1,48,21,1357189056
774,4,T1_SMS_5,183,1,48,22,1357643404
774,4,T1_SMS_5,184,5,42,127,1357686148
774,4,T1_SMS_5,185,1,48,19,1358184568
774,4,T1_SMS_5,186,5,42,127,1358186140
774,4,T1_SMS_5,187,5,42,127,1358685468
774,4,T1_SMS_5,188,1,48,20,1358690084
774,4,T1_SMS_5,189,1,48,21,1359146748
774,4,T1_SMS_5,190,5,42,127,1359186280
774,4,T1_SMS_5,191,5,42,127,1359685980
774,4,T1_SMS_5,192,1,48,13,1359687924
774,4,T1_SMS_5,193,1,48,17,1360142628
774,4,T1_SMS_5,194,5,42,127,1360185596
774,4,T1_SMS_5,195,1,48,19,1360684692
774,4,T1_SMS_5,196,5,42,127,1360686268
774,4,T1_SMS_5,197,1,48,25,1361147184
774,4,T1_SMS_5,198,5,42,127,1361186332
774,4,T1_SMS_5,199,1,48,27,1361642012
774,4,T1_SMS_5,200,5,42,127,1361686024
774,4,T1_SMS_5,201,1,48,28,1362106856
774,4,T1_SMS_5,202,5,42,127,1362185496
774,4,T1_SMS_5,203,1,48,24,1362639908
774,4,T1_SMS_5,204,5,42,127,1362686312
774,4,T1_SMS_5,205,1,48,20,1363154040
774,4,T1_SMS_5,206,5,42,127,1363186012
774,4,T1_SMS_5,207,1,48,19,1363664208
774,4,T1_SMS_5,208,5,42,127,1363685856
774,4,T1_SMS_5,209,1,48,22,1364145724
774,4,T1_SMS_5,210,5,42,127,1364185328
774,4,T1_SMS_5,211,1,48,22,1364611960
774,4,T1_SMS_5,212,5,42,127,1364686144
774,4,T1_SMS_5,213,1,48,26,1365098792
774,4,T1_SMS_5,214,5,42,127,1365185984
774,4,T1_SMS_5,215,1,48,18,1365640820
774,4,T1_SMS_5,216,5,42,127,1365685752
774,4,T1_SMS_5,217,1,48,18,1366112088
774,4,T1_SMS_5,218,5,42,127,1366186272
774,4,T1_SMS_5,219,5,42,127,1366686020
774,4,T1_SMS_5,220,1,48,22,1366705696
774,4,T1_SMS_5,221,1,48,24,1367151720
774,4,T1_SMS_5,222,5,42,127,1367185860
774,4,T1_SMS_5,223,5,42,127,1367685560
774,4,T1_SMS_5,224,1,48,21,1367696688
774,4,T1_SMS_5,225,1,48,21,1368166064
774,4,T1_SMS_5,226,5,42,127,1368186072
774,4,T1_SMS_5,227,1,48,19,1368657016
774,4,T1_SMS_5,228,5,42,127,1368685916
774,4,T1_SMS_5,229,1,48,21,1369145932
774,4,T1_SMS_5,230,5,42,127,1369185760
774,4,T1_SMS_5,231,1,48,26,1369634184
774,4,T1_SMS_5,232,5,42,127,1369686356
774,4,T1_SMS_5,233,1,48,20,1370165144
774,4,T1_SMS_5,234,5,42,127,1370186048
774,4,T1_SMS_5,235,1,48,20,1370664836
774,4,T1_SMS_5,236,5,42,127,1370685964
774,4,T1_SMS_5,237,1,48,25,1371151220
774,4,T1_SMS_5,238,5,42,127,1371185660
774,4,T1_SMS_5,239,1,48,23,1371655628
774,4,T1_SMS_5,240,5,42,127,1371686104
774,4,T1_SMS_5,241,1,48,22,1372154872
774,4,T1_SMS_5,242,5,42,127,1372185948
774,4,T1_SMS_5,243,1,48,23,1372665264
774,4,T1_SMS_5,244,5,42,127,1372685792
774,4,T1_SMS_5,245,1,48,21,1373149104
774,4,T1_SMS_5,246,5,42,127,1373186612
774,4,T1_SMS_5,247,1,48,21,1373647156
774,4,T1_SMS_5,248,5,42,127,1373686156
774,4,T1_SMS_5,249,1,48,22,1374138172
774,4,T1_SMS_5,250,5,42,127,1374185852
774,4,T1_SMS_5,251,1,48,21,1374644452
774,4,T1_SMS_5,252,5,42,127,1374685620
774,4,T1_SMS_5,253,1,48,24,1375144072
774,4,T1_SMS_5,254,5,42,127,1375186216
774,4,T1_SMS_5,255,1,48,24,1375637232
774,4,T1_SMS_5,256,5,42,127,1375685984
774,4,T1_SMS_5,257,1,48,22,1376115160
774,4,T1_SMS_5,0,9999,9999,9999,1311183980
774,4,T1_SMS_5,1,9999,9999,9999,1311683696
774,4,T1_SMS_5,2,9999,9999,9999,1312183412
774,4,T1_SMS_5,3,9999,9999,9999,1312683124
774,4,T1_SMS_5,4,9999,9999,9999,1313183840
774,4,T1_SMS_5,5,9999,9999,9999,1313683536
774,4,T1_SMS_5,6,9999,9999,9999,1314183232
774,4,T1_SMS_5,7,9999,9999,9999,1314683972
774,4,T1_SMS_5,8,9999,9999,9999,1315183668
774,4,T1_SMS_5,9,9999,9999,9999,1315683436
774,4,T1_SMS_5,10,9999,9999,9999,1316183132
774,4,T1_SMS_5,11,9999,9999,9999,1316683872
774,4,T1_SMS_5,12,9999,9999,9999,1317183568
774,4,T1_SMS_5,13,9999,9999,9999,1317683264
774,4,T1_SMS_5,14,9999,9999,9999,1318184004
774,4,T1_SMS_5,15,9999,9999,9999,1318683700
774,4,T1_SMS_5,16,9999,9999,9999,1319183468
774,4,T1_SMS_5,17,9999,9999,9999,1319683164
774,4,T1_SMS_5,18,9999,9999,9999,1320183904
774,4,T1_SMS_5,19,9999,9999,9999,1320683604
774,4,T1_SMS_5,20,9999,9999,9999,1321183304
774,4,T1_SMS_5,21,9999,9999,9999,1321684040
774,4,T1_SMS_5,22,9999,9999,9999,1322183736
774,4,T1_SMS_5,23,9999,9999,9999,1322683504
774,4,T1_SMS_5,24,9999,9999,9999,1323183200
774,4,T1_SMS_5,25,9999,9999,9999,1323683944
774,4,T1_SMS_5,26,9999,9999,9999,1324183612
774,4,T1_SMS_5,27,9999,9999,9999,1324683316
774,4,T1_SMS_5,28,9999,9999,9999,1325184056
774,4,T1_SMS_5,29,9999,9999,9999,1325683824
774,4,T1_SMS_5,30,9999,9999,9999,1326183512
774,4,T1_SMS_5,31,9999,9999,9999,1326683204
774,4,T1_SMS_5,32,9999,9999,9999,1327183948
774,4,T1_SMS_5,33,9999,9999,9999,1327683652
774,4,T1_SMS_5,34,9999,9999,9999,1328183412
774,4,T1_SMS_5,35,9999,9999,9999,1328683108
774,4,T1_SMS_5,36,9999,9999,9999,1329183812
774,4,T1_SMS_5,37,9999,9999,9999,1329683544
774,4,T1_SMS_5,38,9999,9999,9999,1330183244
774,4,T1_SMS_5,39,9999,9999,9999,1330683980
774,4,T1_SMS_5,40,9999,9999,9999,1331183700
774,4,T1_SMS_5,41,9999,9999,9999,1331683376
774,4,T1_SMS_5,42,9999,9999,9999,1332183144
774,4,T1_SMS_5,43,9999,9999,9999,1332683888
774,4,T1_SMS_5,44,9999,9999,9999,1333183584
774,4,T1_SMS_5,45,9999,9999,9999,1333683268
774,4,T1_SMS_5,46,9999,9999,9999,1334184016
774,4,T1_SMS_5,47,9999,9999,9999,1334683756
774,4,T1_SMS_5,48,9999,9999,9999,1335183452
774,4,T1_SMS_5,49,9999,9999,9999,1335683152
774,4,T1_SMS_5,50,9999,9999,9999,1336183892
774,4,T1_SMS_5,51,9999,9999,9999,1336683588
774,4,T1_SMS_5,52,9999,9999,9999,1337183284
774,4,T1_SMS_5,53,9999,9999,9999,1337684020
774,4,T1_SMS_5,54,9999,9999,9999,1338183788
774,4,T1_SMS_5,55,9999,9999,9999,1338683484
774,4,T1_SMS_5,56,9999,9999,9999,1339183180
774,4,T1_SMS_5,57,9999,9999,9999,1339683924
774,4,T1_SMS_5,58,9999,9999,9999,1340183616
774,4,T1_SMS_5,59,9999,9999,9999,1340683312
774,4,T1_SMS_5,60,9999,9999,9999,1341184052
774,4,T1_SMS_5,61,9999,9999,9999,1341683828
774,4,T1_SMS_5,62,9999,9999,9999,1342183528
774,4,T1_SMS_5,63,9999,9999,9999,1342683216
774,4,T1_SMS_5,64,9999,9999,9999,1343183956
774,4,T1_SMS_5,65,9999,9999,9999,1343683652
774,4,T1_SMS_5,66,9999,9999,9999,1344183348
774,4,T1_SMS_5,67,9999,9999,9999,1344683116
774,4,T1_SMS_5,68,9999,9999,9999,1345183840
774,4,T1_SMS_5,69,9999,9999,9999,1345683576
774,4,T1_SMS_5,70,9999,9999,9999,1346183272
774,4,T1_SMS_5,71,9999,9999,9999,1346684012
774,4,T1_SMS_5,72,9999,9999,9999,1347183716
774,4,T1_SMS_5,73,9999,9999,9999,1347683412
774,4,T1_SMS_5,74,9999,9999,9999,1348183100
774,4,T1_SMS_5,75,9999,9999,9999,1348683840
774,4,T1_SMS_5,76,9999,9999,9999,1349183544
774,4,T1_SMS_5,77,9999,9999,9999,1349683312
774,4,T1_SMS_5,78,9999,9999,9999,1350184048
774,4,T1_SMS_5,79,9999,9999,9999,1350683748
774,4,T1_SMS_5,80,9999,9999,9999,1351183440
774,4,T1_SMS_5,81,9999,9999,9999,1351683136
774,4,T1_SMS_5,82,9999,9999,9999,1352183876
774,4,T1_SMS_5,83,9999,9999,9999,1352683572
774,4,T1_SMS_5,84,9999,9999,9999,1353183344
774,4,T1_SMS_5,85,9999,9999,9999,1353684084
774,4,T1_SMS_5,86,9999,9999,9999,1354183784
774,4,T1_SMS_5,87,9999,9999,9999,1354683472
774,4,T1_SMS_5,88,9999,9999,9999,1355183168
774,4,T1_SMS_5,89,9999,9999,9999,1355683916
774,4,T1_SMS_5,90,9999,9999,9999,1356183656
774,4,T1_SMS_5,91,9999,9999,9999,1356683352
774,4,T1_SMS_5,92,9999,9999,9999,1357184100
774,4,T1_SMS_5,93,9999,9999,9999,1357683788
774,4,T1_SMS_5,94,9999,9999,9999,1358183488
774,4,T1_SMS_5,95,9999,9999,9999,1358683256
774,4,T1_SMS_5,96,9999,9999,9999,1359183992
774,4,T1_SMS_5,97,9999,9999,9999,1359683696
774,4,T1_SMS_5,98,9999,9999,9999,1360183384
774,4,T1_SMS_5,99,9999,9999,9999,1360683084
774,4,T1_SMS_5,100,9999,9999,9999,1361183820
774,4,T1_SMS_5,101,9999,9999,9999,1361683516
774,4,T1_SMS_5,102,9999,9999,9999,1362183284
774,4,T1_SMS_5,103,9999,9999,9999,1362683952
774,4,T1_SMS_5,104,9999,9999,9999,1363183724
774,4,T1_SMS_5,105,9999,9999,9999,1363683420
774,4,T1_SMS_5,106,9999,9999,9999,1364183116
774,4,T1_SMS_5,107,9999,9999,9999,1364683856
774,4,T1_SMS_5,108,9999,9999,9999,1365183552
774,4,T1_SMS_5,109,9999,9999,9999,1365683320
774,4,T1_SMS_5,110,9999,9999,9999,1366183984
774,4,T1_SMS_5,111,9999,9999,9999,1366683736
774,4,T1_SMS_5,112,9999,9999,9999,1367183424
774,4,T1_SMS_5,113,9999,9999,9999,1367683124
774,4,T1_SMS_5,114,9999,9999,9999,1368183860
774,4,T1_SMS_5,115,9999,9999,9999,1368683628
774,4,T1_SMS_5,116,9999,9999,9999,1369183324
774,4,T1_SMS_5,117,9999,9999,9999,1369684064
774,4,T1_SMS_5,118,9999,9999,9999,1370183760
774,4,T1_SMS_5,119,9999,9999,9999,1370683456
774,4,T1_SMS_5,120,9999,9999,9999,1371183224
774,4,T1_SMS_5,121,9999,9999,9999,1371683892
774,4,T1_SMS_5,122,9999,9999,9999,1372183664
774,4,T1_SMS_5,123,9999,9999,9999,1372683360
774,4,T1_SMS_5,124,9999,9999,9999,1373184100
774,4,T1_SMS_5,125,9999,9999,9999,1373683796
774,4,T1_SMS_5,126,9999,9999,9999,1374183492
774,4,T1_SMS_5,127,9999,9999,9999,1374683188
774,4,T1_SMS_5,128,9999,9999,9999,1375183928
774,4,T1_SMS_5,129,9999,9999,9999,1375683696
775,22,Ticks_Phase_8,0,5,42,127,1388092652
775,22,Ticks_Phase_8,1,5,42,127,1388892464
775,22,Ticks_Phase_8,2,5,42,127,1389693392
775,22,Ticks_Phase_8,3,1,48,30,1389709688
775,22,Ticks_Phase_8,4,5,42,127,1390492952
775,22,Ticks_Phase_8,5,1,48,21,1390522612
775,22,Ticks_Phase_8,6,1,48,21,1391252044
775,22,Ticks_Phase_8,7,5,42,127,1391292684
775,22,Ticks_Phase_8,8,1,48,20,1392047432
775,22,Ticks_Phase_8,9,5,42,127,1392092396
775,22,Ticks_Phase_8,10,1,48,22,1392858152
775,22,Ticks_Phase_8,11,5,42,127,1392893452
775,22,Ticks_Phase_8,12,1,48,23,1393602376
775,22,Ticks_Phase_8,13,5,42,127,1393692944
775,22,Ticks_Phase_8,14,5,42,127,1394492884
775,22,Ticks_Phase_8,15,1,48,24,1395252744
775,22,Ticks_Phase_8,16,5,42,127,1395292460
775,22,Ticks_Phase_8,17,1,48,25,1395999500
775,22,Ticks_Phase_8,18,5,42,127,1396093516
775,22,Ticks_Phase_8,19,1,48,23,1396805880
775,22,Ticks_Phase_8,20,5,42,127,1396893004
775,22,Ticks_Phase_8,21,1,48,23,1397609104
775,22,Ticks_Phase_8,22,5,42,127,1397692668
775,22,Ticks_Phase_8,23,1,48,26,1398490944
775,22,Ticks_Phase_8,24,5,42,127,1398492600
775,22,Ticks_Phase_8,25,1,48,25,1399248920
775,22,Ticks_Phase_8,26,5,42,127,1399293508
775,22,Ticks_Phase_8,27,1,48,26,1400044740
775,22,Ticks_Phase_8,28,5,42,127,1400092996
775,22,Ticks_Phase_8,29,1,48,25,1400823332
775,22,Ticks_Phase_8,30,5,42,127,1400892632
775,22,Ticks_Phase_8,31,1,48,27,1401619820
775,22,Ticks_Phase_8,32,5,42,127,1401692644
775,22,Ticks_Phase_8,33,1,48,29,1402405456
775,22,Ticks_Phase_8,34,5,42,127,1402493328
775,22,Ticks_Phase_8,35,1,48,24,1403183232
775,22,Ticks_Phase_8,36,5,42,127,1403293324
775,22,Ticks_Phase_8,37,1,48,21,1403948708
775,22,Ticks_Phase_8,38,5,42,127,1404092688
775,22,Ticks_Phase_8,39,1,48,27,1404849768
775,22,Ticks_Phase_8,40,5,42,127,1404892564
775,22,Ticks_Phase_8,41,5,42,127,1405693328
775,22,Ticks_Phase_8,42,1,48,28,1405697048
775,22,Ticks_Phase_8,43,5,42,127,1406493260
775,22,Ticks_Phase_8,44,1,48,26,1406507464
775,22,Ticks_Phase_8,45,1,48,18,1407249504
775,22,Ticks_Phase_8,46,5,42,127,1407292672
775,22,Ticks_Phase_8,47,1,48,19,1408064416
775,22,Ticks_Phase_8,48,5,42,127,1408092380
775,22,Ticks_Phase_8,49,1,48,22,1408846904
775,22,Ticks_Phase_8,50,5,42,127,1408893436
775,22,Ticks_Phase_8,51,1,48,24,1409686228
775,22,Ticks_Phase_8,52,5,42,127,1409693224
775,22,Ticks_Phase_8,53,1,48,27,1410443184
775,22,Ticks_Phase_8,54,5,42,127,1410492888
775,22,Ticks_Phase_8,55,1,48,26,1411259240
775,22,Ticks_Phase_8,56,5,42,127,1411292528
775,22,Ticks_Phase_8,57,1,48,26,1411975432
775,22,Ticks_Phase_8,58,5,42,127,1412073504
775,22,Ticks_Phase_8,59,1,48,24,1412716060
775,22,Ticks_Phase_8,60,5,42,127,1412872612
775,22,Ticks_Phase_8,61,1,48,24,1413540648
775,22,Ticks_Phase_8,62,5,42,127,1413673372
775,22,Ticks_Phase_8,63,5,42,127,1414473104
775,22,Ticks_Phase_8,64,1,48,25,1414506632
775,22,Ticks_Phase_8,65,1,48,24,1415247468
775,22,Ticks_Phase_8,66,5,42,127,1415272812
775,22,Ticks_Phase_8,67,1,48,27,1416026736
775,22,Ticks_Phase_8,68,5,42,127,1416072596
775,22,Ticks_Phase_8,69,1,48,20,1416745492
775,22,Ticks_Phase_8,70,5,42,127,1416873292
775,22,Ticks_Phase_8,71,1,48,19,1417633224
775,22,Ticks_Phase_8,72,5,42,127,1417673092
775,22,Ticks_Phase_8,73,1,48,21,1418380796
775,22,Ticks_Phase_8,74,5,42,127,1418472952
775,22,Ticks_Phase_8,75,1,48,27,1419188832
775,22,Ticks_Phase_8,76,5,42,127,1419272592
775,22,Ticks_Phase_8,77,1,48,25,1420039092
775,22,Ticks_Phase_8,78,5,42,127,1420073352
775,22,Ticks_Phase_8,79,1,48,27,1420800180
775,22,Ticks_Phase_8,80,5,42,127,1420873216
775,22,Ticks_Phase_8,81,1,48,26,1421561620
775,22,Ticks_Phase_8,82,5,42,127,1421672912
775,22,Ticks_Phase_8,83,1,48,30,1422449988
775,22,Ticks_Phase_8,84,5,42,127,1422472488
775,22,Ticks_Phase_8,85,1,48,24,1423226784
775,22,Ticks_Phase_8,86,5,42,127,1423273200
775,22,Ticks_Phase_8,87,1,48,21,1423980752
775,22,Ticks_Phase_8,88,5,42,127,1424073132
775,22,Ticks_Phase_8,89,1,48,21,1424785096
775,22,Ticks_Phase_8,90,5,42,127,1424872920
775,22,Ticks_Phase_8,91,1,48,20,1425657620
775,22,Ticks_Phase_8,92,5,42,127,1425672704
775,22,Ticks_Phase_8,93,1,48,24,1426335796
775,22,Ticks_Phase_8,94,5,42,127,1426492924
775,22,Ticks_Phase_8,95,1,48,28,1427210316
775,22,Ticks_Phase_8,96,5,42,127,1427292724
775,22,Ticks_Phase_8,97,1,48,26,1428023440
775,22,Ticks_Phase_8,98,5,42,127,1428093256
775,22,Ticks_Phase_8,99,1,48,28,1428811096
775,22,Ticks_Phase_8,100,5,42,127,1428892968
775,22,Ticks_Phase_8,101,1,48,19,1429647040
775,22,Ticks_Phase_8,102,5,42,127,1429692852
775,22,Ticks_Phase_8,103,1,48,26,1430389756
775,22,Ticks_Phase_8,104,5,42,127,1430492548
775,22,Ticks_Phase_8,105,1,48,23,1431179660
775,22,Ticks_Phase_8,106,5,42,127,1431293232
775,22,Ticks_Phase_8,107,1,48,29,1431978944
775,22,Ticks_Phase_8,108,5,42,127,1432093020
775,22,Ticks_Phase_8,109,1,48,18,1432788468
775,22,Ticks_Phase_8,110,5,42,127,1432892952
775,22,Ticks_Phase_8,111,1,48,32,1433615064
775,22,Ticks_Phase_8,112,5,42,127,1433692456
775,22,Ticks_Phase_8,113,5,42,127,1434493220
775,22,Ticks_Phase_8,114,1,48,24,1434499028
775,22,Ticks_Phase_8,115,1,48,27,1435249528
775,22,Ticks_Phase_8,116,5,42,127,1435292924
775,22,Ticks_Phase_8,117,1,48,26,1436027228
775,22,Ticks_Phase_8,118,5,42,127,1436092884
775,22,Ticks_Phase_8,119,1,48,30,1436795708
775,22,Ticks_Phase_8,120,5,42,127,1436892804
775,22,Ticks_Phase_8,121,1,48,18,1437589424
775,22,Ticks_Phase_8,122,5,42,127,1437693264
775,22,Ticks_Phase_8,123,1,48,22,1438425860
775,22,Ticks_Phase_8,124,5,42,127,1438492992
775,22,Ticks_Phase_8,125,1,48,18,1439210680
775,22,Ticks_Phase_8,126,5,42,127,1439332680
775,22,Ticks_Phase_8,127,1,48,30,1440086096
775,22,Ticks_Phase_8,128,5,42,127,1440132480
775,22,Ticks_Phase_8,129,1,48,22,1440870688
775,22,Ticks_Phase_8,130,5,42,127,1440933264
775,22,Ticks_Phase_8,131,1,48,27,1441662900
775,22,Ticks_Phase_8,132,5,42,127,1441732900
775,22,Ticks_Phase_8,133,1,48,18,1442465856
775,22,Ticks_Phase_8,134,5,42,127,1442532760
775,22,Ticks_Phase_8,135,5,42,127,1443332628
775,22,Ticks_Phase_8,136,1,48,26,1443335000
775,22,Ticks_Phase_8,137,1,48,18,1444047156
775,22,Ticks_Phase_8,138,5,42,127,1444133528
775,22,Ticks_Phase_8,139,1,48,26,1444897564
775,22,Ticks_Phase_8,140,5,42,127,1444932868
775,22,Ticks_Phase_8,141,1,48,26,1445613180
775,22,Ticks_Phase_8,142,5,42,127,1445732788
775,22,Ticks_Phase_8,143,1,48,27,1446428312
775,22,Ticks_Phase_8,144,5,42,127,1446532724
775,22,Ticks_Phase_8,145,1,48,21,1447231928
775,22,Ticks_Phase_8,146,5,42,127,1447333284
775,22,Ticks_Phase_8,147,1,48,23,1448031036
775,22,Ticks_Phase_8,148,5,42,127,1448132844
775,22,Ticks_Phase_8,149,1,48,18,1448792928
775,22,Ticks_Phase_8,150,5,42,127,1448932856
775,22,Ticks_Phase_8,151,1,48,27,1449631532
775,22,Ticks_Phase_8,152,5,42,127,1449732640
775,22,Ticks_Phase_8,153,1,48,21,1450495416
775,22,Ticks_Phase_8,154,5,42,127,1450533340
775,22,Ticks_Phase_8,155,1,48,24,1451329496
775,22,Ticks_Phase_8,156,5,42,127,1451333052
775,22,Ticks_Phase_8,157,1,48,16,1452107568
775,22,Ticks_Phase_8,158,5,42,127,1452132836
775,22,Ticks_Phase_8,159,1,48,31,1452852396
775,22,Ticks_Phase_8,160,5,42,127,1452892636
775,22,Ticks_Phase_8,161,1,48,26,1453568748
775,22,Ticks_Phase_8,162,5,42,127,1453693528
775,22,Ticks_Phase_8,163,1,48,26,1454359396
775,22,Ticks_Phase_8,164,5,42,127,1454493168
775,22,Ticks_Phase_8,165,5,42,127,1455292752
775,22,Ticks_Phase_8,166,5,42,127,1456092484
775,22,Ticks_Phase_8,167,1,48,27,1456104140
775,22,Ticks_Phase_8,168,1,48,21,1456866772
775,22,Ticks_Phase_8,169,5,42,127,1456893536
775,22,Ticks_Phase_8,170,1,48,24,1457665140
775,22,Ticks_Phase_8,171,5,42,127,1457693028
775,22,Ticks_Phase_8,172,1,48,18,1458394680
775,22,Ticks_Phase_8,173,5,42,127,1458492724
775,22,Ticks_Phase_8,174,1,48,25,1459200168
775,22,Ticks_Phase_8,175,5,42,127,1459292524
775,22,Ticks_Phase_8,176,1,48,16,1460008776
775,22,Ticks_Phase_8,177,5,42,127,1460093508
775,22,Ticks_Phase_8,178,1,48,16,1460806172
775,22,Ticks_Phase_8,179,5,42,127,1460893320
775,22,Ticks_Phase_8,180,1,48,18,1461569480
775,22,Ticks_Phase_8,181,5,42,127,1461692792
775,22,Ticks_Phase_8,182,1,48,20,1462412640
775,22,Ticks_Phase_8,183,5,42,127,1462492592
775,22,Ticks_Phase_8,184,5,42,127,1463293284
775,22,Ticks_Phase_8,185,5,42,127,1464093316
775,22,Ticks_Phase_8,186,1,48,20,1464825836
775,22,Ticks_Phase_8,187,5,42,127,1464892744
775,22,Ticks_Phase_8,188,1,48,30,1465548264
775,22,Ticks_Phase_8,189,5,42,127,1465612700
775,22,Ticks_Phase_8,190,1,48,20,1466346632
775,22,Ticks_Phase_8,191,5,42,127,1466413384
775,22,Ticks_Phase_8,192,1,48,25,1467145296
775,22,Ticks_Phase_8,193,5,42,127,1467223432
775,22,Ticks_Phase_8,194,1,48,25,1467914224
775,22,Ticks_Phase_8,195,5,42,127,1468023276
775,22,Ticks_Phase_8,196,1,48,29,1468668328
775,22,Ticks_Phase_8,197,5,42,127,1468822840
775,22,Ticks_Phase_8,198,1,48,21,1469452920
775,22,Ticks_Phase_8,199,5,42,127,1469622652
775,22,Ticks_Phase_8,200,5,42,127,1470423360
775,22,Ticks_Phase_8,201,1,48,24,1470424696
775,22,Ticks_Phase_8,202,5,42,127,1471223516
775,22,Ticks_Phase_8,203,1,48,27,1471276516
775,22,Ticks_Phase_8,204,5,42,127,1472023004
775,22,Ticks_Phase_8,205,1,48,26,1472058996
775,22,Ticks_Phase_8,206,1,48,27,1472786132
775,22,Ticks_Phase_8,207,5,42,127,1472822636
775,22,Ticks_Phase_8,208,1,48,20,1473584200
775,22,Ticks_Phase_8,209,5,42,127,1473623316
775,22,Ticks_Phase_8,210,1,48,19,1474358372
775,22,Ticks_Phase_8,211,5,42,127,1474423328
775,22,Ticks_Phase_8,212,1,48,17,1475084920
775,22,Ticks_Phase_8,213,5,42,127,1475222880
775,22,Ticks_Phase_8,214,1,48,22,1475964464
775,22,Ticks_Phase_8,215,5,42,127,1476022632
775,22,Ticks_Phase_8,216,5,42,127,1476823396
775,22,Ticks_Phase_8,217,1,48,21,1476836248
775,22,Ticks_Phase_8,218,1,48,23,1477596488
775,22,Ticks_Phase_8,219,5,42,127,1477623248
775,22,Ticks_Phase_8,220,1,48,20,1478335088
775,22,Ticks_Phase_8,221,5,42,127,1478423260
775,22,Ticks_Phase_8,222,1,48,22,1479138016
775,22,Ticks_Phase_8,223,5,42,127,1479302564
775,22,Ticks_Phase_8,224,5,42,127,1480103220
775,22,Ticks_Phase_8,225,1,48,26,1480170516
775,22,Ticks_Phase_8,226,1,48,24,1480802972
775,22,Ticks_Phase_8,227,5,42,127,1480903132
775,22,Ticks_Phase_8,228,1,48,25,1481592952
775,22,Ticks_Phase_8,229,5,42,127,1481702620
775,22,Ticks_Phase_8,230,1,48,23,1482406012
775,22,Ticks_Phase_8,231,5,42,127,1482502480
775,22,Ticks_Phase_8,232,1,48,26,1483249904
775,22,Ticks_Phase_8,233,5,42,127,1483303404
775,22,Ticks_Phase_8,234,1,48,19,1484001544
775,22,Ticks_Phase_8,235,5,42,127,1484102952
775,22,Ticks_Phase_8,236,1,48,20,1484798552
775,22,Ticks_Phase_8,237,5,42,127,1484902740
775,22,Ticks_Phase_8,238,1,48,17,1485562028
775,22,Ticks_Phase_8,239,5,42,127,1485702600
775,22,Ticks_Phase_8,240,1,48,24,1486481632
775,22,Ticks_Phase_8,241,5,42,127,1486503248
775,22,Ticks_Phase_8,242,5,42,127,1487302892
775,22,Ticks_Phase_8,243,1,48,27,1487316640
775,22,Ticks_Phase_8,244,1,48,25,1488058980
775,22,Ticks_Phase_8,245,5,42,127,1488102896
775,22,Ticks_Phase_8,246,1,48,21,1488810240
775,22,Ticks_Phase_8,247,5,42,127,1488903344
775,22,Ticks_Phase_8,248,1,48,26,1489612652
775,22,Ticks_Phase_8,249,5,42,127,1489703144
775,22,Ticks_Phase_8,250,1,48,26,1490372752
775,22,Ticks_Phase_8,251,5,42,127,1490503064
775,22,Ticks_Phase_8,252,1,48,21,1491205928
775,22,Ticks_Phase_8,253,5,42,127,1491302776
775,22,Ticks_Phase_8,254,1,48,21,1492003024
775,22,Ticks_Phase_8,255,5,42,127,1492102564
775,22,Ticks_Phase_8,256,1,48,30,1492720728
775,22,Ticks_Phase_8,257,5,42,127,1493063080
775,22,Ticks_Phase_8,258,5,42,127,1493862892
775,22,Ticks_Phase_8,259,1,48,22,1493950276
775,22,Ticks_Phase_8,260,1,48,24,1494644592
775,22,Ticks_Phase_8,261,5,42,127,1494662372
775,22,Ticks_Phase_8,262,1,48,20,1495335788
775,22,Ticks_Phase_8,263,5,42,127,1495463140
775,22,Ticks_Phase_8,264,1,48,20,1496135648
775,22,Ticks_Phase_8,265,5,42,127,1496263076
775,22,Ticks_Phase_8,266,1,48,28,1497007732
775,22,Ticks_Phase_8,267,5,42,127,1497062804
775,22,Ticks_Phase_8,268,1,48,24,1497810064
775,22,Ticks_Phase_8,269,5,42,127,1497862444
775,22,Ticks_Phase_8,270,1,48,22,1498577648
775,22,Ticks_Phase_8,271,5,42,127,1498663276
775,22,Ticks_Phase_8,272,1,48,22,1499398704
775,22,Ticks_Phase_8,273,5,42,127,1499463064
775,22,Ticks_Phase_8,274,1,48,24,1500208600
775,22,Ticks_Phase_8,275,5,42,127,1500262704
775,22,Ticks_Phase_8,276,1,48,26,1500921904
775,22,Ticks_Phase_8,277,5,42,127,1501062696
775,22,Ticks_Phase_8,278,1,48,21,1501826448
775,22,Ticks_Phase_8,279,5,42,127,1501863272
775,22,Ticks_Phase_8,280,5,42,127,1502662916
775,22,Ticks_Phase_8,281,1,48,20,1502681764
775,22,Ticks_Phase_8,282,1,48,24,1503389724
775,22,Ticks_Phase_8,283,5,42,127,1503462844
775,22,Ticks_Phase_8,284,1,48,21,1504191164
775,22,Ticks_Phase_8,285,5,42,127,1504262556
775,22,Ticks_Phase_8,286,1,48,21,1504976340
775,22,Ticks_Phase_8,287,5,42,127,1505063240
775,22,Ticks_Phase_8,288,1,48,25,1505802188
775,22,Ticks_Phase_8,289,5,42,127,1505862876
775,22,Ticks_Phase_8,290,1,48,25,1506621372
775,22,Ticks_Phase_8,291,5,42,127,1506662812
775,22,Ticks_Phase_8,292,1,48,22,1507444444
775,22,Ticks_Phase_8,293,5,42,127,1507462672
775,22,Ticks_Phase_8,294,5,42,127,1508102732
775,22,Ticks_Phase_8,295,1,48,23,1508220348
775,22,Ticks_Phase_8,296,1,48,19,1508695392
775,22,Ticks_Phase_8,297,5,42,127,1508903392
775,22,Ticks_Phase_8,298,1,48,16,1509690740
775,22,Ticks_Phase_8,299,5,42,127,1509703044
775,22,Ticks_Phase_8,300,5,42,127,1510502836
775,22,Ticks_Phase_8,301,1,48,17,1510516064
775,22,Ticks_Phase_8,302,1,48,16,1511252044
775,22,Ticks_Phase_8,303,5,42,127,1511302688
775,22,Ticks_Phase_8,304,1,48,16,1512030860
775,22,Ticks_Phase_8,305,5,42,127,1512103472
775,22,Ticks_Phase_8,306,1,48,16,1512856248
775,22,Ticks_Phase_8,307,5,42,127,1512903108
775,22,Ticks_Phase_8,308,1,48,18,1513544904
775,22,Ticks_Phase_8,309,5,42,127,1513702656
775,22,Ticks_Phase_8,310,1,48,16,1514461988
775,22,Ticks_Phase_8,311,5,42,127,1514502604
775,22,Ticks_Phase_8,312,1,48,17,1515201572
775,22,Ticks_Phase_8,313,5,42,127,1515303420
775,22,Ticks_Phase_8,314,1,48,16,1516052504
775,22,Ticks_Phase_8,315,5,42,127,1516103000
775,22,Ticks_Phase_8,316,1,48,21,1516837528
775,22,Ticks_Phase_8,317,5,42,127,1516902712
775,22,Ticks_Phase_8,318,1,48,22,1517610872
775,22,Ticks_Phase_8,319,5,42,127,1517702500
775,22,Ticks_Phase_8,320,1,48,19,1518387148
775,22,Ticks_Phase_8,321,5,42,127,1518503564
775,22,Ticks_Phase_8,322,1,48,13,1519218460
775,22,Ticks_Phase_8,323,5,42,127,1519302992
775,22,Ticks_Phase_8,324,1,48,16,1520042168
775,22,Ticks_Phase_8,325,5,42,127,1520102776
775,22,Ticks_Phase_8,326,1,48,20,1520880584
775,22,Ticks_Phase_8,327,5,42,127,1520902488
775,22,Ticks_Phase_8,328,1,48,21,1521657912
775,22,Ticks_Phase_8,329,5,42,127,1521703472
775,22,Ticks_Phase_8,330,1,48,19,1522439644
775,22,Ticks_Phase_8,331,5,42,127,1522502960
775,22,Ticks_Phase_8,332,1,48,20,1523148220
775,22,Ticks_Phase_8,333,5,42,127,1523302732
775,22,Ticks_Phase_8,0,9999,9999,9999,1388090440
775,22,Ticks_Phase_8,1,9999,9999,9999,1388890176
775,22,Ticks_Phase_8,2,9999,9999,9999,1389690956
775,22,Ticks_Phase_8,3,9999,9999,9999,1390490740
775,22,Ticks_Phase_8,4,9999,9999,9999,1391290472
775,22,Ticks_Phase_8,5,9999,9999,9999,1392090184
775,22,Ticks_Phase_8,6,9999,9999,9999,1392890944
775,22,Ticks_Phase_8,7,9999,9999,9999,1393690732
775,22,Ticks_Phase_8,8,9999,9999,9999,1394490448
775,22,Ticks_Phase_8,9,9999,9999,9999,1395290176
775,22,Ticks_Phase_8,10,9999,9999,9999,1396091008
775,22,Ticks_Phase_8,11,9999,9999,9999,1396890720
775,22,Ticks_Phase_8,12,9999,9999,9999,1397690456
775,22,Ticks_Phase_8,13,9999,9999,9999,1398490172
775,22,Ticks_Phase_8,14,9999,9999,9999,1399291000
775,22,Ticks_Phase_8,15,9999,9999,9999,1400090708
775,22,Ticks_Phase_8,16,9999,9999,9999,1400890420
775,22,Ticks_Phase_8,17,9999,9999,9999,1401690208
775,22,Ticks_Phase_8,18,9999,9999,9999,1402490968
775,22,Ticks_Phase_8,19,9999,9999,9999,1403290740
775,22,Ticks_Phase_8,20,9999,9999,9999,1404090476
775,22,Ticks_Phase_8,21,9999,9999,9999,1404890204
775,22,Ticks_Phase_8,22,9999,9999,9999,1405690968
775,22,Ticks_Phase_8,23,9999,9999,9999,1406490676
775,22,Ticks_Phase_8,24,9999,9999,9999,1407290460
775,22,Ticks_Phase_8,25,9999,9999,9999,1408090168
775,22,Ticks_Phase_8,26,9999,9999,9999,1408891004
775,22,Ticks_Phase_8,27,9999,9999,9999,1409690716
775,22,Ticks_Phase_8,28,9999,9999,9999,1410490452
775,22,Ticks_Phase_8,29,9999,9999,9999,1411290240
775,22,Ticks_Phase_8,30,9999,9999,9999,1412070480
775,22,Ticks_Phase_8,31,9999,9999,9999,1412870252
775,22,Ticks_Phase_8,32,9999,9999,9999,1413671012
775,22,Ticks_Phase_8,33,9999,9999,9999,1414470744
775,22,Ticks_Phase_8,34,9999,9999,9999,1415270524
775,22,Ticks_Phase_8,35,9999,9999,9999,1416070236
775,22,Ticks_Phase_8,36,9999,9999,9999,1416871004
775,22,Ticks_Phase_8,37,9999,9999,9999,1417670732
775,22,Ticks_Phase_8,38,9999,9999,9999,1418470520
775,22,Ticks_Phase_8,39,9999,9999,9999,1419270232
775,22,Ticks_Phase_8,40,9999,9999,9999,1420070988
775,22,Ticks_Phase_8,41,9999,9999,9999,1420870780
775,22,Ticks_Phase_8,42,9999,9999,9999,1421670476
775,22,Ticks_Phase_8,43,9999,9999,9999,1422470204
775,22,Ticks_Phase_8,44,9999,9999,9999,1423270988
775,22,Ticks_Phase_8,45,9999,9999,9999,1424070772
775,22,Ticks_Phase_8,46,9999,9999,9999,1424870484
775,22,Ticks_Phase_8,47,9999,9999,9999,1425670268
775,22,Ticks_Phase_8,48,9999,9999,9999,1426490484
775,22,Ticks_Phase_8,49,9999,9999,9999,1427290216
775,22,Ticks_Phase_8,50,9999,9999,9999,1428090972
775,22,Ticks_Phase_8,51,9999,9999,9999,1428890684
775,22,Ticks_Phase_8,52,9999,9999,9999,1429690492
775,22,Ticks_Phase_8,53,9999,9999,9999,1430490188
775,22,Ticks_Phase_8,54,9999,9999,9999,1431290948
775,22,Ticks_Phase_8,55,9999,9999,9999,1432090732
775,22,Ticks_Phase_8,56,9999,9999,9999,1432890444
775,22,Ticks_Phase_8,57,9999,9999,9999,1433690172
775,22,Ticks_Phase_8,58,9999,9999,9999,1434490936
775,22,Ticks_Phase_8,59,9999,9999,9999,1435290712
775,22,Ticks_Phase_8,60,9999,9999,9999,1436090448
775,22,Ticks_Phase_8,61,9999,9999,9999,1436890220
775,22,Ticks_Phase_8,62,9999,9999,9999,1437690980
775,22,Ticks_Phase_8,63,9999,9999,9999,1438490704
775,22,Ticks_Phase_8,64,9999,9999,9999,1439330392
775,22,Ticks_Phase_8,65,9999,9999,9999,1440130120
775,22,Ticks_Phase_8,66,9999,9999,9999,1440930904
775,22,Ticks_Phase_8,67,9999,9999,9999,1441730616
775,22,Ticks_Phase_8,68,9999,9999,9999,1442530400
775,22,Ticks_Phase_8,69,9999,9999,9999,1443330120
775,22,Ticks_Phase_8,70,9999,9999,9999,1444130872
775,22,Ticks_Phase_8,71,9999,9999,9999,1444930656
775,22,Ticks_Phase_8,72,9999,9999,9999,1445730428
775,22,Ticks_Phase_8,73,9999,9999,9999,1446530140
775,22,Ticks_Phase_8,74,9999,9999,9999,1447330924
775,22,Ticks_Phase_8,75,9999,9999,9999,1448130632
775,22,Ticks_Phase_8,76,9999,9999,9999,1448930420
775,22,Ticks_Phase_8,77,9999,9999,9999,1449730132
775,22,Ticks_Phase_8,78,9999,9999,9999,1450530904
775,22,Ticks_Phase_8,79,9999,9999,9999,1451330616
775,22,Ticks_Phase_8,80,9999,9999,9999,1452130400
775,22,Ticks_Phase_8,81,9999,9999,9999,1452890200
775,22,Ticks_Phase_8,82,9999,9999,9999,1453690944
775,22,Ticks_Phase_8,83,9999,9999,9999,1454490732
775,22,Ticks_Phase_8,84,9999,9999,9999,1455290464
775,22,Ticks_Phase_8,85,9999,9999,9999,1456090200
775,22,Ticks_Phase_8,86,9999,9999,9999,1456890952
775,22,Ticks_Phase_8,87,9999,9999,9999,1457690740
775,22,Ticks_Phase_8,88,9999,9999,9999,1458490436
775,22,Ticks_Phase_8,89,9999,9999,9999,1459290164
775,22,Ticks_Phase_8,90,9999,9999,9999,1460090996
775,22,Ticks_Phase_8,91,9999,9999,9999,1460890712
775,22,Ticks_Phase_8,92,9999,9999,9999,1461690432
775,22,Ticks_Phase_8,93,9999,9999,9999,1462490232
775,22,Ticks_Phase_8,94,9999,9999,9999,1463290996
775,22,Ticks_Phase_8,95,9999,9999,9999,1464090732
775,22,Ticks_Phase_8,96,9999,9999,9999,1464890456
775,22,Ticks_Phase_8,97,9999,9999,9999,1465610340
775,22,Ticks_Phase_8,98,9999,9999,9999,1466411100
775,22,Ticks_Phase_8,99,9999,9999,9999,1467221068
775,22,Ticks_Phase_8,100,9999,9999,9999,1468020840
775,22,Ticks_Phase_8,101,9999,9999,9999,1468820556
775,22,Ticks_Phase_8,102,9999,9999,9999,1469620292
775,22,Ticks_Phase_8,103,9999,9999,9999,1470421072
775,22,Ticks_Phase_8,104,9999,9999,9999,1471220860
775,22,Ticks_Phase_8,105,9999,9999,9999,1472020568
775,22,Ticks_Phase_8,106,9999,9999,9999,1472820348
775,22,Ticks_Phase_8,107,9999,9999,9999,1473621104
775,22,Ticks_Phase_8,108,9999,9999,9999,1474420820
775,22,Ticks_Phase_8,109,9999,9999,9999,1475220592
775,22,Ticks_Phase_8,110,9999,9999,9999,1476020344
775,22,Ticks_Phase_8,111,9999,9999,9999,1476821108
775,22,Ticks_Phase_8,112,9999,9999,9999,1477620816
775,22,Ticks_Phase_8,113,9999,9999,9999,1478420600
775,22,Ticks_Phase_8,114,9999,9999,9999,1479300204
775,22,Ticks_Phase_8,115,9999,9999,9999,1480100932
775,22,Ticks_Phase_8,116,9999,9999,9999,1480900696
775,22,Ticks_Phase_8,117,9999,9999,9999,1481700408
775,22,Ticks_Phase_8,118,9999,9999,9999,1482500196
775,22,Ticks_Phase_8,119,9999,9999,9999,1483300968
775,22,Ticks_Phase_8,120,9999,9999,9999,1484100664
775,22,Ticks_Phase_8,121,9999,9999,9999,1484900452
775,22,Ticks_Phase_8,122,9999,9999,9999,1485700164
775,22,Ticks_Phase_8,123,9999,9999,9999,1486500960
775,22,Ticks_Phase_8,124,9999,9999,9999,1487300680
775,22,Ticks_Phase_8,125,9999,9999,9999,1488100460
775,22,Ticks_Phase_8,126,9999,9999,9999,1488900172
775,22,Ticks_Phase_8,127,9999,9999,9999,1489700932
775,22,Ticks_Phase_8,128,9999,9999,9999,1490500700
775,22,Ticks_Phase_8,129,9999,9999,9999,1491300416
775,22,Ticks_Phase_8,130,9999,9999,9999,1492100200
775,22,Ticks_Phase_8,131,9999,9999,9999,1493060720
775,22,Ticks_Phase_8,132,9999,9999,9999,1493860456
775,22,Ticks_Phase_8,133,9999,9999,9999,1494660160
775,22,Ticks_Phase_8,134,9999,9999,9999,1495460928
775,22,Ticks_Phase_8,135,9999,9999,9999,1496260716
775,22,Ticks_Phase_8,136,9999,9999,9999,1497060444
775,22,Ticks_Phase_8,137,9999,9999,9999,1497860156
775,22,Ticks_Phase_8,138,9999,9999,9999,1498660992
775,22,Ticks_Phase_8,139,9999,9999,9999,1499460704
775,22,Ticks_Phase_8,140,9999,9999,9999,1500260416
775,22,Ticks_Phase_8,141,9999,9999,9999,1501060188
775,22,Ticks_Phase_8,142,9999,9999,9999,1501860984
775,22,Ticks_Phase_8,143,9999,9999,9999,1502660704
775,22,Ticks_Phase_8,144,9999,9999,9999,1503460408
775,22,Ticks_Phase_8,145,9999,9999,9999,1504260196
775,22,Ticks_Phase_8,146,9999,9999,9999,1505060952
775,22,Ticks_Phase_8,147,9999,9999,9999,1505860664
775,22,Ticks_Phase_8,148,9999,9999,9999,1506660448
775,22,Ticks_Phase_8,149,9999,9999,9999,1507460160
775,22,Ticks_Phase_8,150,9999,9999,9999,1508100220
775,22,Ticks_Phase_8,151,9999,9999,9999,1508900956
775,22,Ticks_Phase_8,152,9999,9999,9999,1509700684
775,22,Ticks_Phase_8,153,9999,9999,9999,1510500476
775,22,Ticks_Phase_8,154,9999,9999,9999,1511300180
775,22,Ticks_Phase_8,155,9999,9999,9999,1512100960
775,22,Ticks_Phase_8,156,9999,9999,9999,1512900672
775,22,Ticks_Phase_8,157,9999,9999,9999,1513700444
775,22,Ticks_Phase_8,158,9999,9999,9999,1514500168
775,22,Ticks_Phase_8,159,9999,9999,9999,1515300988
775,22,Ticks_Phase_8,160,9999,9999,9999,1516100712
775,22,Ticks_Phase_8,161,9999,9999,9999,1516900424
775,22,Ticks_Phase_8,162,9999,9999,9999,1517700212
775,22,Ticks_Phase_8,163,9999,9999,9999,1518500980
775,22,Ticks_Phase_8,164,9999,9999,9999,1519300704
775,22,Ticks_Phase_8,165,9999,9999,9999,1520100416
775,22,Ticks_Phase_8,166,9999,9999,9999,1520900204
775,22,Ticks_Phase_8,167,9999,9999,9999,1521700964
775,22,Ticks_Phase_8,168,9999,9999,9999,1522500672
775,22,Ticks_Phase_8,169,9999,9999,9999,1523300444
776,23,Ticks_Phase_5,0,5,42,127,1535001124
776,23,Ticks_Phase_5,1,5,42,127,1535500608
776,23,Ticks_Phase_5,2,1,48,25,1535990624
776,23,Ticks_Phase_5,3,5,42,127,1536001436
776,23,Ticks_Phase_5,4,1,48,19,1536492256
776,23,Ticks_Phase_5,5,5,42,127,1536501272
776,23,Ticks_Phase_5,6,1,48,18,1537001040
776,23,Ticks_Phase_5,7,5,42,127,1537002376
776,23,Ticks_Phase_5,8,5,42,127,1537500508
776,23,Ticks_Phase_5,9,1,48,19,1537503252
776,23,Ticks_Phase_5,10,5,42,127,1538001240
776,23,Ticks_Phase_5,11,1,48,24,1538025248
776,23,Ticks_Phase_5,12,5,42,127,1538501228
776,23,Ticks_Phase_5,13,1,48,20,1538525160
776,23,Ticks_Phase_5,14,5,42,127,1539000544
776,23,Ticks_Phase_5,15,1,48,20,1539006956
776,23,Ticks_Phase_5,16,1,48,18,1539463096
776,23,Ticks_Phase_5,17,5,42,127,1539501572
776,23,Ticks_Phase_5,18,1,48,19,1539919432
776,23,Ticks_Phase_5,19,5,42,127,1540011516
776,23,Ticks_Phase_5,20,1,48,15,1540456632
776,23,Ticks_Phase_5,21,5,42,127,1540511132
776,23,Ticks_Phase_5,22,1,48,17,1540953176
776,23,Ticks_Phase_5,23,5,42,127,1541011092
776,23,Ticks_Phase_5,24,1,48,17,1541467832
776,23,Ticks_Phase_5,25,5,42,127,1541510408
776,23,Ticks_Phase_5,26,1,48,18,1541972620
776,23,Ticks_Phase_5,27,5,42,127,1542011216
776,23,Ticks_Phase_5,28,1,48,16,1542489012
776,23,Ticks_Phase_5,29,5,42,127,1542511200
776,23,Ticks_Phase_5,30,1,48,16,1543005396
776,23,Ticks_Phase_5,31,5,42,127,1543010668
776,23,Ticks_Phase_5,32,1,48,16,1543510204
776,23,Ticks_Phase_5,33,5,42,127,1543511776
776,23,Ticks_Phase_5,34,1,48,18,1543977956
776,23,Ticks_Phase_5,35,5,42,127,1544011096
776,23,Ticks_Phase_5,36,1,48,15,1544444180
776,23,Ticks_Phase_5,37,5,42,127,1544511008
776,23,Ticks_Phase_5,38,1,48,18,1545001456
776,23,Ticks_Phase_5,39,5,42,127,1545010620
776,23,Ticks_Phase_5,40,5,42,127,1545511140
776,23,Ticks_Phase_5,41,1,48,23,1545517328
776,23,Ticks_Phase_5,42,5,42,127,1546011128
776,23,Ticks_Phase_5,43,1,48,19,1546022560
776,23,Ticks_Phase_5,44,1,48,15,1546501200
776,23,Ticks_Phase_5,45,5,42,127,1546510956
776,23,Ticks_Phase_5,46,1,48,16,1547009980
776,23,Ticks_Phase_5,47,5,42,127,1547011472
776,23,Ticks_Phase_5,48,1,48,16,1547490316
776,23,Ticks_Phase_5,49,5,42,127,1547511160
776,23,Ticks_Phase_5,50,1,48,20,1548001608
776,23,Ticks_Phase_5,51,5,42,127,1548011068
776,23,Ticks_Phase_5,52,1,48,21,1548486384
776,23,Ticks_Phase_5,53,5,42,127,1548510536
776,23,Ticks_Phase_5,54,1,48,21,1548957464
776,23,Ticks_Phase_5,55,5,42,127,1549011416
776,23,Ticks_Phase_5,56,1,48,23,1549474604
776,23,Ticks_Phase_5,57,5,42,127,1549511032
776,23,Ticks_Phase_5,58,1,48,22,1549995856
776,23,Ticks_Phase_5,59,5,42,127,1550000612
776,23,Ticks_Phase_5,60,5,42,127,1550501204
776,23,Ticks_Phase_5,61,1,48,21,1550524388
776,23,Ticks_Phase_5,62,1,48,17,1550957464
776,23,Ticks_Phase_5,63,5,42,127,1551000888
776,23,Ticks_Phase_5,64,1,48,15,1551469748
776,23,Ticks_Phase_5,65,5,42,127,1551500848
776,23,Ticks_Phase_5,66,1,48,20,1551986420
776,23,Ticks_Phase_5,67,5,42,127,1552001584
776,23,Ticks_Phase_5,68,1,48,21,1552439916
776,23,Ticks_Phase_5,69,5,42,127,1552500976
776,23,Ticks_Phase_5,70,1,48,17,1552995160
776,23,Ticks_Phase_5,71,5,42,127,1553000884
776,23,Ticks_Phase_5,72,5,42,127,1553500656
776,23,Ticks_Phase_5,73,1,48,19,1553502140
776,23,Ticks_Phase_5,74,1,48,20,1553954476
776,23,Ticks_Phase_5,75,5,42,127,1554001236
776,23,Ticks_Phase_5,76,1,48,16,1554498960
776,23,Ticks_Phase_5,77,5,42,127,1554500924
776,23,Ticks_Phase_5,78,1,48,17,1554982684
776,23,Ticks_Phase_5,79,5,42,127,1555000612
776,23,Ticks_Phase_5,80,1,48,16,1555459612
776,23,Ticks_Phase_5,81,5,42,127,1555501272
776,23,Ticks_Phase_5,82,1,48,22,1555927464
776,23,Ticks_Phase_5,83,5,42,127,1556011296
776,23,Ticks_Phase_5,84,1,48,19,1556449404
776,23,Ticks_Phase_5,85,5,42,127,1556511060
776,23,Ticks_Phase_5,86,1,48,18,1556972000
776,23,Ticks_Phase_5,87,5,42,127,1557010824
776,23,Ticks_Phase_5,88,1,48,20,1557459116
776,23,Ticks_Phase_5,89,5,42,127,1557510584
776,23,Ticks_Phase_5,90,1,48,16,1557958488
776,23,Ticks_Phase_5,91,5,42,127,1558011320
776,23,Ticks_Phase_5,92,1,48,14,1558419748
776,23,Ticks_Phase_5,93,5,42,127,1558510936
776,23,Ticks_Phase_5,94,1,48,16,1558978308
776,23,Ticks_Phase_5,95,5,42,127,1559021032
776,23,Ticks_Phase_5,96,1,48,16,1559489692
776,23,Ticks_Phase_5,97,5,42,127,1559520944
776,23,Ticks_Phase_5,98,1,48,19,1559959628
776,23,Ticks_Phase_5,99,5,42,127,1560021356
776,23,Ticks_Phase_5,100,1,48,19,1560455084
776,23,Ticks_Phase_5,101,5,42,127,1560521192
776,23,Ticks_Phase_5,102,1,48,20,1560929324
776,23,Ticks_Phase_5,103,5,42,127,1561020804
776,23,Ticks_Phase_5,104,1,48,18,1561461204
776,23,Ticks_Phase_5,105,5,42,127,1561520716
776,23,Ticks_Phase_5,106,1,48,20,1561986352
776,23,Ticks_Phase_5,107,5,42,127,1562021152
776,23,Ticks_Phase_5,108,1,48,20,1562461552
776,23,Ticks_Phase_5,109,5,42,127,1562520916
776,23,Ticks_Phase_5,110,1,48,20,1562990896
776,23,Ticks_Phase_5,111,5,42,127,1563020800
776,23,Ticks_Phase_5,112,1,48,19,1563471188
776,23,Ticks_Phase_5,113,5,42,127,1563521536
776,23,Ticks_Phase_5,114,1,48,20,1563931184
776,23,Ticks_Phase_5,115,5,42,127,1564021148
776,23,Ticks_Phase_5,116,1,48,17,1564472204
776,23,Ticks_Phase_5,117,5,42,127,1564520836
776,23,Ticks_Phase_5,118,5,42,127,1565020608
776,23,Ticks_Phase_5,119,1,48,19,1565500664
776,23,Ticks_Phase_5,120,5,42,127,1565521132
776,23,Ticks_Phase_5,121,5,42,127,1566020828
776,23,Ticks_Phase_5,122,1,48,23,1566027608
776,23,Ticks_Phase_5,123,5,42,127,1566520592
776,23,Ticks_Phase_5,124,1,48,20,1566544448
776,23,Ticks_Phase_5,125,1,48,20,1567000324
776,23,Ticks_Phase_5,126,5,42,127,1567040940
776,23,Ticks_Phase_5,127,1,48,20,1567514232
776,23,Ticks_Phase_5,128,5,42,127,1567540776
776,23,Ticks_Phase_5,129,1,48,18,1568022088
776,23,Ticks_Phase_5,130,5,42,127,1568041436
776,23,Ticks_Phase_5,131,1,48,19,1568513164
776,23,Ticks_Phase_5,132,5,42,127,1568540976
776,23,Ticks_Phase_5,133,1,48,19,1568986636
776,23,Ticks_Phase_5,134,5,42,127,1569040740
776,23,Ticks_Phase_5,135,1,48,20,1569459748
776,23,Ticks_Phase_5,136,5,42,127,1569540872
776,23,Ticks_Phase_5,137,1,48,21,1569995372
776,23,Ticks_Phase_5,138,5,42,127,1570041312
776,23,Ticks_Phase_5,139,1,48,19,1570525388
776,23,Ticks_Phase_5,140,5,42,127,1570540924
776,23,Ticks_Phase_5,141,1,48,19,1571033468
776,23,Ticks_Phase_5,142,5,42,127,1571040760
776,23,Ticks_Phase_5,143,1,48,21,1571516152
776,23,Ticks_Phase_5,144,5,42,127,1571541424
776,23,Ticks_Phase_5,145,1,48,16,1572020268
776,23,Ticks_Phase_5,146,5,42,127,1572041112
776,23,Ticks_Phase_5,147,1,48,14,1572519432
776,23,Ticks_Phase_5,148,5,42,127,1572540872
776,23,Ticks_Phase_5,149,1,48,18,1572989664
776,23,Ticks_Phase_5,150,5,42,127,1573040636
776,23,Ticks_Phase_5,151,1,48,18,1573446956
776,23,Ticks_Phase_5,152,5,42,127,1573541208
776,23,Ticks_Phase_5,153,1,48,18,1573947472
776,23,Ticks_Phase_5,154,5,42,127,1574041564
776,23,Ticks_Phase_5,155,1,48,17,1574456212
776,23,Ticks_Phase_5,156,5,42,127,1574540724
776,23,Ticks_Phase_5,157,1,48,19,1574922588
776,23,Ticks_Phase_5,158,5,42,127,1575041520
776,23,Ticks_Phase_5,159,1,48,21,1575462708
776,23,Ticks_Phase_5,160,5,42,127,1575520556
776,23,Ticks_Phase_5,161,1,48,19,1575995648
776,23,Ticks_Phase_5,162,5,42,127,1576021512
776,23,Ticks_Phase_5,163,1,48,22,1576514428
776,23,Ticks_Phase_5,164,5,42,127,1576521052
776,23,Ticks_Phase_5,165,1,48,18,1576991808
776,23,Ticks_Phase_5,166,5,42,127,1577020740
776,23,Ticks_Phase_5,167,1,48,19,1577517624
776,23,Ticks_Phase_5,168,5,42,127,1577520356
776,23,Ticks_Phase_5,169,5,42,127,1578021472
776,23,Ticks_Phase_5,170,1,48,14,1578023996
776,23,Ticks_Phase_5,171,5,42,127,1578520936
776,23,Ticks_Phase_5,172,1,48,16,1578566212
776,23,Ticks_Phase_5,173,1,48,17,1578989740
776,23,Ticks_Phase_5,174,5,42,127,1579020692
776,23,Ticks_Phase_5,175,1,48,20,1579479912
776,23,Ticks_Phase_5,176,5,42,127,1579521576
776,23,Ticks_Phase_5,177,1,48,18,1579959384
776,23,Ticks_Phase_5,178,5,42,127,1580021040
776,23,Ticks_Phase_5,179,1,48,19,1580462288
776,23,Ticks_Phase_5,180,5,42,127,1580520876
776,23,Ticks_Phase_5,181,1,48,21,1580972008
776,23,Ticks_Phase_5,182,5,42,127,1581020564
776,23,Ticks_Phase_5,183,1,48,19,1581458648
776,23,Ticks_Phase_5,184,5,42,127,1581521448
776,23,Ticks_Phase_5,185,1,48,19,1581990260
776,23,Ticks_Phase_5,186,5,42,127,1582020912
776,23,Ticks_Phase_5,187,1,48,23,1582504912
776,23,Ticks_Phase_5,188,5,42,127,1582520676
776,23,Ticks_Phase_5,189,1,48,19,1582976868
776,23,Ticks_Phase_5,190,5,42,127,1583021412
776,23,Ticks_Phase_5,191,1,48,20,1583444432
776,23,Ticks_Phase_5,192,5,42,127,1583481384
776,23,Ticks_Phase_5,193,1,48,17,1583973252
776,23,Ticks_Phase_5,194,5,42,127,1583980848
776,23,Ticks_Phase_5,195,1,48,19,1584462236
776,23,Ticks_Phase_5,196,5,42,127,1584480540
776,23,Ticks_Phase_5,197,5,42,127,1584981428
776,23,Ticks_Phase_5,198,1,48,19,1584990020
776,23,Ticks_Phase_5,199,1,48,21,1585445800
776,23,Ticks_Phase_5,200,5,42,127,1585481184
776,23,Ticks_Phase_5,201,5,42,127,1585980880
776,23,Ticks_Phase_5,202,1,48,20,1586001748
776,23,Ticks_Phase_5,203,5,42,127,1586480568
776,23,Ticks_Phase_5,204,1,48,19,1586490204
776,23,Ticks_Phase_5,205,1,48,16,1586903904
776,23,Ticks_Phase_5,206,5,42,127,1586981296
776,23,Ticks_Phase_5,207,1,48,18,1587461708
776,23,Ticks_Phase_5,208,5,42,127,1587481208
776,23,Ticks_Phase_5,209,5,42,127,1587980604
776,23,Ticks_Phase_5,210,1,48,21,1588000576
776,23,Ticks_Phase_5,211,5,42,127,1588481340
776,23,Ticks_Phase_5,212,1,48,19,1588521532
776,23,Ticks_Phase_5,213,5,42,127,1588981472
776,23,Ticks_Phase_5,214,1,48,19,1588991932
776,23,Ticks_Phase_5,215,5,42,127,1589480716
776,23,Ticks_Phase_5,216,1,48,18,1589494540
776,23,Ticks_Phase_5,217,1,48,18,1589917760
776,23,Ticks_Phase_5,218,5,42,127,1589980472
776,23,Ticks_Phase_5,219,1,48,18,1590412032
776,23,Ticks_Phase_5,220,5,42,127,1590481356
776,23,Ticks_Phase_5,221,1,48,18,1590881692
776,23,Ticks_Phase_5,222,5,42,127,1590980952
776,23,Ticks_Phase_5,223,1,48,16,1591405712
776,23,Ticks_Phase_5,224,5,42,127,1591480584
776,23,Ticks_Phase_5,225,1,48,19,1591905244
776,23,Ticks_Phase_5,226,5,42,127,1592030504
776,23,Ticks_Phase_5,227,1,48,16,1592480908
776,23,Ticks_Phase_5,228,5,42,127,1592531328
776,23,Ticks_Phase_5,229,1,48,19,1593030044
776,23,Ticks_Phase_5,230,5,42,127,1593031536
776,23,Ticks_Phase_5,231,1,48,16,1593515692
776,23,Ticks_Phase_5,232,5,42,127,1593530704
776,23,Ticks_Phase_5,233,1,48,20,1594030328
776,23,Ticks_Phase_5,234,5,42,127,1594031812
776,23,Ticks_Phase_5,235,1,48,15,1594485092
776,23,Ticks_Phase_5,236,5,42,127,1594531280
776,23,Ticks_Phase_5,237,1,48,19,1594976544
776,23,Ticks_Phase_5,238,5,42,127,1595030820
776,23,Ticks_Phase_5,239,1,48,15,1595482524
776,23,Ticks_Phase_5,240,5,42,127,1595530556
776,23,Ticks_Phase_5,241,1,48,17,1595957644
776,23,Ticks_Phase_5,242,5,42,127,1596031292
776,23,Ticks_Phase_5,243,1,48,14,1596480476
776,23,Ticks_Phase_5,244,5,42,127,1596531056
776,23,Ticks_Phase_5,245,5,42,127,1597030748
776,23,Ticks_Phase_5,246,5,42,127,1597530532
776,23,Ticks_Phase_5,247,1,48,14,1597549760
776,23,Ticks_Phase_5,248,5,42,127,1598031268
776,23,Ticks_Phase_5,249,1,48,15,1598489160
776,23,Ticks_Phase_5,250,5,42,127,1598531048
776,23,Ticks_Phase_5,251,5,42,127,1599030592
776,23,Ticks_Phase_5,252,1,48,15,1599061124
776,23,Ticks_Phase_5,253,5,42,127,1599531252
776,23,Ticks_Phase_5,254,5,42,127,1600031036
776,23,Ticks_Phase_5,255,1,48,16,1600043296
776,23,Ticks_Phase_5,256,5,42,127,1600631148
776,23,Ticks_Phase_5,257,5,42,127,1601131008
776,23,Ticks_Phase_5,258,1,48,17,1601230164
776,23,Ticks_Phase_5,259,5,42,127,1601630548
776,23,Ticks_Phase_5,260,5,42,127,1602131228
776,23,Ticks_Phase_5,261,1,48,16,1602296128
776,23,Ticks_Phase_5,262,5,42,127,1602631140
776,23,Ticks_Phase_5,263,5,42,127,1603130848
776,23,Ticks_Phase_5,264,1,48,16,1603144004
776,23,Ticks_Phase_5,265,1,48,16,1603616120
776,23,Ticks_Phase_5,266,5,42,127,1603630308
776,23,Ticks_Phase_5,267,5,42,127,1604131272
776,23,Ticks_Phase_5,268,1,48,16,1604133640
776,23,Ticks_Phase_5,269,1,48,16,1604588380
776,23,Ticks_Phase_5,270,5,42,127,1604631104
776,23,Ticks_Phase_5,271,1,48,16,1605062768
776,23,Ticks_Phase_5,272,5,42,127,1605130496
776,23,Ticks_Phase_5,273,1,48,16,1605583124
776,23,Ticks_Phase_5,274,5,42,127,1605631304
776,23,Ticks_Phase_5,275,5,42,127,1606131224
776,23,Ticks_Phase_5,276,5,42,127,1606630932
776,23,Ticks_Phase_5,277,1,48,16,1607119676
776,23,Ticks_Phase_5,278,5,42,127,1607130412
776,23,Ticks_Phase_5,279,1,48,18,1607613144
776,23,Ticks_Phase_5,280,5,42,127,1607631148
776,23,Ticks_Phase_5,281,5,42,127,1608131068
776,23,Ticks_Phase_5,282,1,48,17,1608135232
776,23,Ticks_Phase_5,283,1,48,19,1608603232
776,23,Ticks_Phase_5,284,5,42,127,1608630524
776,23,Ticks_Phase_5,285,1,48,17,1609082824
776,23,Ticks_Phase_5,286,5,42,127,1609131484
776,23,Ticks_Phase_5,287,1,48,18,1609619360
776,23,Ticks_Phase_5,288,5,42,127,1609631096
776,23,Ticks_Phase_5,289,5,42,127,1610030420
776,23,Ticks_Phase_5,290,1,48,18,1610151964
776,23,Ticks_Phase_5,291,5,42,127,1610531304
776,23,Ticks_Phase_5,292,1,48,17,1610580632
776,23,Ticks_Phase_5,293,5,42,127,1611030992
776,23,Ticks_Phase_5,294,1,48,16,1611155348
776,23,Ticks_Phase_5,295,5,42,127,1611530460
776,23,Ticks_Phase_5,296,1,48,17,1611586596
776,23,Ticks_Phase_5,297,1,48,16,1611977232
776,23,Ticks_Phase_5,298,5,42,127,1612031336
776,23,Ticks_Phase_5,299,1,48,18,1612459856
776,23,Ticks_Phase_5,300,5,42,127,1612530952
776,23,Ticks_Phase_5,301,5,42,127,1613030872
776,23,Ticks_Phase_5,302,1,48,16,1613171116
776,23,Ticks_Phase_5,303,5,42,127,1613530412
776,23,Ticks_Phase_5,304,5,42,127,1614031168
776,23,Ticks_Phase_5,305,1,48,14,1614429352
776,23,Ticks_Phase_5,306,5,42,127,1614530856
776,23,Ticks_Phase_5,307,1,48,16,1614986916
776,23,Ticks_Phase_5,308,5,42,127,1615030784
776,23,Ticks_Phase_5,309,1,48,16,1615490432
776,23,Ticks_Phase_5,310,5,42,127,1615531372
776,23,Ticks_Phase_5,311,1,48,15,1615969676
776,23,Ticks_Phase_5,312,5,42,127,1616031132
776,23,Ticks_Phase_5,313,1,48,16,1616482616
776,23,Ticks_Phase_5,314,5,42,127,1616530720
776,23,Ticks_Phase_5,315,1,48,15,1616962880
776,23,Ticks_Phase_5,316,5,42,127,1617030532
776,23,Ticks_Phase_5,317,1,48,15,1617464812
776,23,Ticks_Phase_5,318,5,42,127,1617531268
776,23,Ticks_Phase_5,319,1,48,15,1617945596
776,23,Ticks_Phase_5,320,5,42,127,1618031004
776,23,Ticks_Phase_5,321,1,48,17,1618486404
776,23,Ticks_Phase_5,322,5,42,127,1618530768
776,23,Ticks_Phase_5,323,1,48,16,1618996872
776,23,Ticks_Phase_5,324,5,42,127,1619031800
776,23,Ticks_Phase_5,325,1,48,16,1619469908
776,23,Ticks_Phase_5,326,5,42,127,1619531116
776,23,Ticks_Phase_5,0,9999,9999,9999,1534998612
776,23,Ticks_Phase_5,1,9999,9999,9999,1535498324
776,23,Ticks_Phase_5,2,9999,9999,9999,1535999072
776,23,Ticks_Phase_5,3,9999,9999,9999,1536498760
776,23,Ticks_Phase_5,4,9999,9999,9999,1536998456
776,23,Ticks_Phase_5,5,9999,9999,9999,1537498220
776,23,Ticks_Phase_5,6,9999,9999,9999,1537998956
776,23,Ticks_Phase_5,7,9999,9999,9999,1538498644
776,23,Ticks_Phase_5,8,9999,9999,9999,1538998332
776,23,Ticks_Phase_5,9,9999,9999,9999,1539499136
776,23,Ticks_Phase_5,10,9999,9999,9999,1540009080
776,23,Ticks_Phase_5,11,9999,9999,9999,1540508768
776,23,Ticks_Phase_5,12,9999,9999,9999,1541008508
776,23,Ticks_Phase_5,13,9999,9999,9999,1541508196
776,23,Ticks_Phase_5,14,9999,9999,9999,1542008932
776,23,Ticks_Phase_5,15,9999,9999,9999,1542508620
776,23,Ticks_Phase_5,16,9999,9999,9999,1543008384
776,23,Ticks_Phase_5,17,9999,9999,9999,1543509048
776,23,Ticks_Phase_5,18,9999,9999,9999,1544008808
776,23,Ticks_Phase_5,19,9999,9999,9999,1544508496
776,23,Ticks_Phase_5,20,9999,9999,9999,1545008184
776,23,Ticks_Phase_5,21,9999,9999,9999,1545508928
776,23,Ticks_Phase_5,22,9999,9999,9999,1546008692
776,23,Ticks_Phase_5,23,9999,9999,9999,1546508372
776,23,Ticks_Phase_5,24,9999,9999,9999,1547008068
776,23,Ticks_Phase_5,25,9999,9999,9999,1547508796
776,23,Ticks_Phase_5,26,9999,9999,9999,1548008560
776,23,Ticks_Phase_5,27,9999,9999,9999,1548508248
776,23,Ticks_Phase_5,28,9999,9999,9999,1549008984
776,23,Ticks_Phase_5,29,9999,9999,9999,1549508672
776,23,Ticks_Phase_5,30,9999,9999,9999,1549998176
776,23,Ticks_Phase_5,31,9999,9999,9999,1550498916
776,23,Ticks_Phase_5,32,9999,9999,9999,1550998648
776,23,Ticks_Phase_5,33,9999,9999,9999,1551498340
776,23,Ticks_Phase_5,34,9999,9999,9999,1551999072
776,23,Ticks_Phase_5,35,9999,9999,9999,1552498764
776,23,Ticks_Phase_5,36,9999,9999,9999,1552998524
776,23,Ticks_Phase_5,37,9999,9999,9999,1553498220
776,23,Ticks_Phase_5,38,9999,9999,9999,1553998952
776,23,Ticks_Phase_5,39,9999,9999,9999,1554498676
776,23,Ticks_Phase_5,40,9999,9999,9999,1554998328
776,23,Ticks_Phase_5,41,9999,9999,9999,1555499060
776,23,Ticks_Phase_5,42,9999,9999,9999,1556009084
776,23,Ticks_Phase_5,43,9999,9999,9999,1556508772
776,23,Ticks_Phase_5,44,9999,9999,9999,1557008460
776,23,Ticks_Phase_5,45,9999,9999,9999,1557508152
776,23,Ticks_Phase_5,46,9999,9999,9999,1558008884
776,23,Ticks_Phase_5,47,9999,9999,9999,1558508648
776,23,Ticks_Phase_5,48,9999,9999,9999,1559018596
776,23,Ticks_Phase_5,49,9999,9999,9999,1559518284
776,23,Ticks_Phase_5,50,9999,9999,9999,1560019068
776,23,Ticks_Phase_5,51,9999,9999,9999,1560518760
776,23,Ticks_Phase_5,52,9999,9999,9999,1561018444
776,23,Ticks_Phase_5,53,9999,9999,9999,1561518208
776,23,Ticks_Phase_5,54,9999,9999,9999,1562018940
776,23,Ticks_Phase_5,55,9999,9999,9999,1562518604
776,23,Ticks_Phase_5,56,9999,9999,9999,1563018368
776,23,Ticks_Phase_5,57,9999,9999,9999,1563519100
776,23,Ticks_Phase_5,58,9999,9999,9999,1564018788
776,23,Ticks_Phase_5,59,9999,9999,9999,1564518476
776,23,Ticks_Phase_5,60,9999,9999,9999,1565018172
776,23,Ticks_Phase_5,61,9999,9999,9999,1565518920
776,23,Ticks_Phase_5,62,9999,9999,9999,1566018616
776,23,Ticks_Phase_5,63,9999,9999,9999,1566518376
776,23,Ticks_Phase_5,64,9999,9999,9999,1567038576
776,23,Ticks_Phase_5,65,9999,9999,9999,1567538268
776,23,Ticks_Phase_5,66,9999,9999,9999,1568039000
776,23,Ticks_Phase_5,67,9999,9999,9999,1568538688
776,23,Ticks_Phase_5,68,9999,9999,9999,1569038452
776,23,Ticks_Phase_5,69,9999,9999,9999,1569538140
776,23,Ticks_Phase_5,70,9999,9999,9999,1570038876
776,23,Ticks_Phase_5,71,9999,9999,9999,1570538564
776,23,Ticks_Phase_5,72,9999,9999,9999,1571038328
776,23,Ticks_Phase_5,73,9999,9999,9999,1571539064
776,23,Ticks_Phase_5,74,9999,9999,9999,1572038752
776,23,Ticks_Phase_5,75,9999,9999,9999,1572538440
776,23,Ticks_Phase_5,76,9999,9999,9999,1573038200
776,23,Ticks_Phase_5,77,9999,9999,9999,1573538880
776,23,Ticks_Phase_5,78,9999,9999,9999,1574038624
776,23,Ticks_Phase_5,79,9999,9999,9999,1574538360
776,23,Ticks_Phase_5,80,9999,9999,9999,1575039084
776,23,Ticks_Phase_5,81,9999,9999,9999,1575518268
776,23,Ticks_Phase_5,82,9999,9999,9999,1576019004
776,23,Ticks_Phase_5,83,9999,9999,9999,1576518768
776,23,Ticks_Phase_5,84,9999,9999,9999,1577018456
776,23,Ticks_Phase_5,85,9999,9999,9999,1577518144
776,23,Ticks_Phase_5,86,9999,9999,9999,1578018888
776,23,Ticks_Phase_5,87,9999,9999,9999,1578518648
776,23,Ticks_Phase_5,88,9999,9999,9999,1579018332
776,23,Ticks_Phase_5,89,9999,9999,9999,1579519064
776,23,Ticks_Phase_5,90,9999,9999,9999,1580018752
776,23,Ticks_Phase_5,91,9999,9999,9999,1580518516
776,23,Ticks_Phase_5,92,9999,9999,9999,1581018204
776,23,Ticks_Phase_5,93,9999,9999,9999,1581518940
776,23,Ticks_Phase_5,94,9999,9999,9999,1582018628
776,23,Ticks_Phase_5,95,9999,9999,9999,1582518388
776,23,Ticks_Phase_5,96,9999,9999,9999,1583019124
776,23,Ticks_Phase_5,97,9999,9999,9999,1583478872
776,23,Ticks_Phase_5,98,9999,9999,9999,1583978564
776,23,Ticks_Phase_5,99,9999,9999,9999,1584478328
776,23,Ticks_Phase_5,100,9999,9999,9999,1584979068
776,23,Ticks_Phase_5,101,9999,9999,9999,1585478748
776,23,Ticks_Phase_5,102,9999,9999,9999,1585978444
776,23,Ticks_Phase_5,103,9999,9999,9999,1586478208
776,23,Ticks_Phase_5,104,9999,9999,9999,1586978936
776,23,Ticks_Phase_5,105,9999,9999,9999,1587478624
776,23,Ticks_Phase_5,106,9999,9999,9999,1587978320
776,23,Ticks_Phase_5,107,9999,9999,9999,1588479052
776,23,Ticks_Phase_5,108,9999,9999,9999,1588978816
776,23,Ticks_Phase_5,109,9999,9999,9999,1589478504
776,23,Ticks_Phase_5,110,9999,9999,9999,1589978188
776,23,Ticks_Phase_5,111,9999,9999,9999,1590478920
776,23,Ticks_Phase_5,112,9999,9999,9999,1590978668
776,23,Ticks_Phase_5,113,9999,9999,9999,1591478368
776,23,Ticks_Phase_5,114,9999,9999,9999,1592028216
776,23,Ticks_Phase_5,115,9999,9999,9999,1592528968
776,23,Ticks_Phase_5,116,9999,9999,9999,1593028660
776,23,Ticks_Phase_5,117,9999,9999,9999,1593528420
776,23,Ticks_Phase_5,118,9999,9999,9999,1594028116
776,23,Ticks_Phase_5,119,9999,9999,9999,1594528844
776,23,Ticks_Phase_5,120,9999,9999,9999,1595028584
776,23,Ticks_Phase_5,121,9999,9999,9999,1595528272
776,23,Ticks_Phase_5,122,9999,9999,9999,1596029004
776,23,Ticks_Phase_5,123,9999,9999,9999,1596528768
776,23,Ticks_Phase_5,124,9999,9999,9999,1597028460
776,23,Ticks_Phase_5,125,9999,9999,9999,1597528172
776,23,Ticks_Phase_5,126,9999,9999,9999,1598028908
776,23,Ticks_Phase_5,127,9999,9999,9999,1598528612
776,23,Ticks_Phase_5,128,9999,9999,9999,1599028308
776,23,Ticks_Phase_5,129,9999,9999,9999,1599529040
776,23,Ticks_Phase_5,130,9999,9999,9999,1600028752
776,23,Ticks_Phase_5,131,9999,9999,9999,1600628860
776,23,Ticks_Phase_5,132,9999,9999,9999,1601128572
776,23,Ticks_Phase_5,133,9999,9999,9999,1601628260
776,23,Ticks_Phase_5,134,9999,9999,9999,1602129016
776,23,Ticks_Phase_5,135,9999,9999,9999,1602628704
776,23,Ticks_Phase_5,136,9999,9999,9999,1603128412
776,23,Ticks_Phase_5,137,9999,9999,9999,1603628096
776,23,Ticks_Phase_5,138,9999,9999,9999,1604128836
776,23,Ticks_Phase_5,139,9999,9999,9999,1604628592
776,23,Ticks_Phase_5,140,9999,9999,9999,1605128284
776,23,Ticks_Phase_5,141,9999,9999,9999,1605629016
776,23,Ticks_Phase_5,142,9999,9999,9999,1606128712
776,23,Ticks_Phase_5,143,9999,9999,9999,1606628420
776,23,Ticks_Phase_5,144,9999,9999,9999,1607128124
776,23,Ticks_Phase_5,145,9999,9999,9999,1607628860
776,23,Ticks_Phase_5,146,9999,9999,9999,1608128632
776,23,Ticks_Phase_5,147,9999,9999,9999,1608628312
776,23,Ticks_Phase_5,148,9999,9999,9999,1609129048
776,23,Ticks_Phase_5,149,9999,9999,9999,1609628736
776,23,Ticks_Phase_5,150,9999,9999,9999,1610028132
776,23,Ticks_Phase_5,151,9999,9999,9999,1610528868
776,23,Ticks_Phase_5,152,9999,9999,9999,1611028556
776,23,Ticks_Phase_5,153,9999,9999,9999,1611528248
776,23,Ticks_Phase_5,154,9999,9999,9999,1612029048
776,23,Ticks_Phase_5,155,9999,9999,9999,1612528740
776,23,Ticks_Phase_5,156,9999,9999,9999,1613028436
776,23,Ticks_Phase_5,157,9999,9999,9999,1613528124
776,23,Ticks_Phase_5,158,9999,9999,9999,1614028880
776,23,Ticks_Phase_5,159,9999,9999,9999,1614528568
776,23,Ticks_Phase_5,160,9999,9999,9999,1615028348
776,23,Ticks_Phase_5,161,9999,9999,9999,1615529084
776,23,Ticks_Phase_5,162,9999,9999,9999,1616028772
776,23,Ticks_Phase_5,163,9999,9999,9999,1616528508
776,23,Ticks_Phase_5,164,9999,9999,9999,1617028172
776,23,Ticks_Phase_5,165,9999,9999,9999,1617528908
776,23,Ticks_Phase_5,166,9999,9999,9999,1618028644
776,23,Ticks_Phase_5,167,9999,9999,9999,1618528332
776,23,Ticks_Phase_5,168,9999,9999,9999,1619029068
776,23,Ticks_Phase_5,169,9999,9999,9999,1619528828
777,9,Ticks_ISO_T2_8,0,5,42,127,1663066492
777,9,Ticks_ISO_T2_8,1,5,42,127,1663867220
777,9,Ticks_ISO_T2_8,2,5,42,127,1664666928
777,9,Ticks_ISO_T2_8,3,1,48,37,1664685452
777,9,Ticks_ISO_T2_8,4,5,42,127,1665466588
777,9,Ticks_ISO_T2_8,5,1,48,37,1665540612
777,9,Ticks_ISO_T2_8,6,5,42,127,1666266616
777,9,Ticks_ISO_T2_8,7,1,48,39,1666292324
777,9,Ticks_ISO_T2_8,8,1,48,32,1667044168
777,9,Ticks_ISO_T2_8,9,5,42,127,1667067168
777,9,Ticks_ISO_T2_8,10,1,48,31,1667813984
777,9,Ticks_ISO_T2_8,11,5,42,127,1667867052
777,9,Ticks_ISO_T2_8,12,1,48,41,1668603620
777,9,Ticks_ISO_T2_8,13,5,42,127,1668666856
777,9,Ticks_ISO_T2_8,14,1,48,46,1669441424
777,9,Ticks_ISO_T2_8,15,5,42,127,1669466444
777,9,Ticks_ISO_T2_8,16,1,48,47,1670253424
777,9,Ticks_ISO_T2_8,17,5,42,127,1670267224
777,9,Ticks_ISO_T2_8,18,1,48,44,1671038348
777,9,Ticks_ISO_T2_8,19,5,42,127,1671066904
777,9,Ticks_ISO_T2_8,20,1,48,36,1671787968
777,9,Ticks_ISO_T2_8,21,5,42,127,1671866864
777,9,Ticks_ISO_T2_8,22,1,48,44,1672567956
777,9,Ticks_ISO_T2_8,23,5,42,127,1672666504
777,9,Ticks_ISO_T2_8,24,1,48,35,1673387608
777,9,Ticks_ISO_T2_8,25,5,42,127,1673467224
777,9,Ticks_ISO_T2_8,26,1,48,43,1674171932
777,9,Ticks_ISO_T2_8,27,5,42,127,1674267032
777,9,Ticks_ISO_T2_8,28,1,48,39,1674992308
777,9,Ticks_ISO_T2_8,29,5,42,127,1675066840
777,9,Ticks_ISO_T2_8,30,1,48,37,1675797500
777,9,Ticks_ISO_T2_8,31,5,42,127,1675866428
777,9,Ticks_ISO_T2_8,32,1,48,35,1676544132
777,9,Ticks_ISO_T2_8,33,5,42,127,1676667192
777,9,Ticks_ISO_T2_8,34,1,48,38,1677337132
777,9,Ticks_ISO_T2_8,35,5,42,127,1677466952
777,9,Ticks_ISO_T2_8,36,1,48,36,1678218920
777,9,Ticks_ISO_T2_8,37,5,42,127,1678266700
777,9,Ticks_ISO_T2_8,38,1,48,43,1679045904
777,9,Ticks_ISO_T2_8,39,5,42,127,1679066360
777,9,Ticks_ISO_T2_8,40,1,48,39,1679862844
777,9,Ticks_ISO_T2_8,41,5,42,127,1679867216
777,9,Ticks_ISO_T2_8,42,5,42,127,1680666880
777,9,Ticks_ISO_T2_8,43,1,48,34,1680680472
777,9,Ticks_ISO_T2_8,44,1,48,43,1681373452
777,9,Ticks_ISO_T2_8,45,5,42,127,1681466904
777,9,Ticks_ISO_T2_8,46,1,48,38,1682213500
777,9,Ticks_ISO_T2_8,47,5,42,127,1682266416
777,9,Ticks_ISO_T2_8,48,5,42,127,1683067204
777,9,Ticks_ISO_T2_8,49,1,48,39,1683097196
777,9,Ticks_ISO_T2_8,50,5,42,127,1683866960
777,9,Ticks_ISO_T2_8,51,1,48,38,1683939496
777,9,Ticks_ISO_T2_8,52,1,48,44,1684648180
777,9,Ticks_ISO_T2_8,53,5,42,127,1684666836
777,9,Ticks_ISO_T2_8,54,1,48,42,1685449556
777,9,Ticks_ISO_T2_8,55,5,42,127,1685466720
777,9,Ticks_ISO_T2_8,56,1,48,44,1686244652
777,9,Ticks_ISO_T2_8,57,5,42,127,1686267276
777,9,Ticks_ISO_T2_8,58,1,48,36,1687056804
777,9,Ticks_ISO_T2_8,59,5,42,127,1687067156
777,9,Ticks_ISO_T2_8,60,1,48,38,1687832452
777,9,Ticks_ISO_T2_8,61,5,42,127,1687866744
777,9,Ticks_ISO_T2_8,62,1,48,37,1688615056
777,9,Ticks_ISO_T2_8,63,5,42,127,1688666772
777,9,Ticks_ISO_T2_8,64,5,42,127,1689467340
777,9,Ticks_ISO_T2_8,65,1,48,36,1689492700
777,9,Ticks_ISO_T2_8,66,1,48,36,1690236808
777,9,Ticks_ISO_T2_8,67,5,42,127,1690266868
777,9,Ticks_ISO_T2_8,68,1,48,37,1691002584
777,9,Ticks_ISO_T2_8,69,5,42,127,1691066600
777,9,Ticks_ISO_T2_8,70,1,48,39,1691776220
777,9,Ticks_ISO_T2_8,71,5,42,127,1691866632
777,9,Ticks_ISO_T2_8,72,1,48,39,1692570140
777,9,Ticks_ISO_T2_8,73,5,42,127,1692667396
777,9,Ticks_ISO_T2_8,74,1,48,43,1693444448
777,9,Ticks_ISO_T2_8,75,5,42,127,1693467068
777,9,Ticks_ISO_T2_8,76,5,42,127,1694266660
777,9,Ticks_ISO_T2_8,77,1,48,33,1694284436
777,9,Ticks_ISO_T2_8,78,5,42,127,1695066616
777,9,Ticks_ISO_T2_8,79,1,48,33,1695110356
777,9,Ticks_ISO_T2_8,80,1,48,35,1695801760
777,9,Ticks_ISO_T2_8,81,5,42,127,1695867168
777,9,Ticks_ISO_T2_8,82,1,48,37,1696559832
777,9,Ticks_ISO_T2_8,83,5,42,127,1696667136
777,9,Ticks_ISO_T2_8,84,1,48,33,1697452564
777,9,Ticks_ISO_T2_8,85,5,42,127,1697466588
777,9,Ticks_ISO_T2_8,86,5,42,127,1698266404
777,9,Ticks_ISO_T2_8,87,1,48,31,1698317764
777,9,Ticks_ISO_T2_8,88,1,48,30,1699056968
777,9,Ticks_ISO_T2_8,89,5,42,127,1699067324
777,9,Ticks_ISO_T2_8,90,1,48,31,1699830748
777,9,Ticks_ISO_T2_8,91,5,42,127,1699867208
777,9,Ticks_ISO_T2_8,92,1,48,28,1700634144
777,9,Ticks_ISO_T2_8,93,5,42,127,1700666864
777,9,Ticks_ISO_T2_8,94,1,48,31,1701419892
777,9,Ticks_ISO_T2_8,95,5,42,127,1701466528
777,9,Ticks_ISO_T2_8,96,1,48,32,1702196212
777,9,Ticks_ISO_T2_8,97,5,42,127,1702267380
777,9,Ticks_ISO_T2_8,98,1,48,28,1703003800
777,9,Ticks_ISO_T2_8,99,5,42,127,1703066840
777,9,Ticks_ISO_T2_8,100,1,48,29,1703775560
777,9,Ticks_ISO_T2_8,101,5,42,127,1703866724
777,9,Ticks_ISO_T2_8,102,1,48,36,1704619152
777,9,Ticks_ISO_T2_8,103,5,42,127,1704666380
777,9,Ticks_ISO_T2_8,104,1,48,41,1705451720
777,9,Ticks_ISO_T2_8,105,5,42,127,1705467384
777,9,Ticks_ISO_T2_8,106,5,42,127,1706267124
777,9,Ticks_ISO_T2_8,107,1,48,32,1706298744
777,9,Ticks_ISO_T2_8,108,5,42,127,1707066784
777,9,Ticks_ISO_T2_8,109,1,48,33,1707112308
777,9,Ticks_ISO_T2_8,110,1,48,32,1707829076
777,9,Ticks_ISO_T2_8,111,5,42,127,1707866508
777,9,Ticks_ISO_T2_8,112,1,48,31,1708598068
777,9,Ticks_ISO_T2_8,113,5,42,127,1708667364
777,9,Ticks_ISO_T2_8,114,1,48,31,1709408276
777,9,Ticks_ISO_T2_8,115,5,42,127,1709467124
777,9,Ticks_ISO_T2_8,116,1,48,30,1710203888
777,9,Ticks_ISO_T2_8,117,5,42,127,1710266856
777,9,Ticks_ISO_T2_8,118,1,48,27,1710971760
777,9,Ticks_ISO_T2_8,119,5,42,127,1711066424
777,9,Ticks_ISO_T2_8,120,1,48,28,1711808392
777,9,Ticks_ISO_T2_8,121,5,42,127,1711867444
777,9,Ticks_ISO_T2_8,122,1,48,24,1712657868
777,9,Ticks_ISO_T2_8,123,5,42,127,1712667248
777,9,Ticks_ISO_T2_8,124,1,48,29,1713432916
777,9,Ticks_ISO_T2_8,125,5,42,127,1713466612
777,9,Ticks_ISO_T2_8,126,1,48,32,1714245888
777,9,Ticks_ISO_T2_8,127,5,42,127,1714266344
777,9,Ticks_ISO_T2_8,128,1,48,30,1715046068
777,9,Ticks_ISO_T2_8,129,5,42,127,1715067196
777,9,Ticks_ISO_T2_8,130,1,48,29,1715839224
777,9,Ticks_ISO_T2_8,131,5,42,127,1715867328
777,9,Ticks_ISO_T2_8,132,1,48,29,1716654388
777,9,Ticks_ISO_T2_8,133,5,42,127,1716666764
777,9,Ticks_ISO_T2_8,134,1,48,27,1717463844
777,9,Ticks_ISO_T2_8,135,5,42,127,1717466424
777,9,Ticks_ISO_T2_8,136,5,42,127,1718267208
777,9,Ticks_ISO_T2_8,137,1,48,27,1718285060
777,9,Ticks_ISO_T2_8,138,1,48,30,1719032872
777,9,Ticks_ISO_T2_8,139,5,42,127,1719067232
777,9,Ticks_ISO_T2_8,140,1,48,32,1719825044
777,9,Ticks_ISO_T2_8,141,5,42,127,1719866744
777,9,Ticks_ISO_T2_8,142,1,48,32,1720633156
777,9,Ticks_ISO_T2_8,143,5,42,127,1720666400
777,9,Ticks_ISO_T2_8,144,1,48,25,1721411052
777,9,Ticks_ISO_T2_8,145,5,42,127,1721467256
777,9,Ticks_ISO_T2_8,146,1,48,28,1722233224
777,9,Ticks_ISO_T2_8,147,5,42,127,1722267164
777,9,Ticks_ISO_T2_8,148,1,48,28,1722968260
777,9,Ticks_ISO_T2_8,149,5,42,127,1723066660
777,9,Ticks_ISO_T2_8,150,1,48,29,1723801076
777,9,Ticks_ISO_T2_8,151,5,42,127,1723866556
777,9,Ticks_ISO_T2_8,152,5,42,127,1724667268
777,9,Ticks_ISO_T2_8,153,1,48,27,1724677940
777,9,Ticks_ISO_T2_8,154,5,42,127,1725467076
777,9,Ticks_ISO_T2_8,155,1,48,34,1725512232
777,9,Ticks_ISO_T2_8,156,1,48,24,1726197960
777,9,Ticks_ISO_T2_8,157,5,42,127,1726267104
777,9,Ticks_ISO_T2_8,158,1,48,28,1726928800
777,9,Ticks_ISO_T2_8,159,5,42,127,1727066376
777,9,Ticks_ISO_T2_8,160,1,48,24,1727718212
777,9,Ticks_ISO_T2_8,161,5,42,127,1727867156
777,9,Ticks_ISO_T2_8,162,1,48,28,1728498496
777,9,Ticks_ISO_T2_8,163,5,42,127,1728666840
777,9,Ticks_ISO_T2_8,164,5,42,127,1729466820
777,9,Ticks_ISO_T2_8,165,1,48,29,1729482952
777,9,Ticks_ISO_T2_8,166,1,48,30,1730249984
777,9,Ticks_ISO_T2_8,167,5,42,127,1730266620
777,9,Ticks_ISO_T2_8,168,1,48,27,1731043804
777,9,Ticks_ISO_T2_8,169,5,42,127,1731067176
777,9,Ticks_ISO_T2_8,170,1,48,25,1731862984
777,9,Ticks_ISO_T2_8,171,5,42,127,1731867208
777,9,Ticks_ISO_T2_8,172,1,48,29,1732622852
777,9,Ticks_ISO_T2_8,173,5,42,127,1732666792
777,9,Ticks_ISO_T2_8,174,1,48,27,1733359980
777,9,Ticks_ISO_T2_8,175,5,42,127,1733466436
777,9,Ticks_ISO_T2_8,176,1,48,28,1734160984
777,9,Ticks_ISO_T2_8,177,5,42,127,1734267364
777,9,Ticks_ISO_T2_8,178,1,48,27,1734970668
777,9,Ticks_ISO_T2_8,179,5,42,127,1735067496
777,9,Ticks_ISO_T2_8,180,1,48,21,1735735696
777,9,Ticks_ISO_T2_8,181,5,42,127,1735866784
777,9,Ticks_ISO_T2_8,182,1,48,28,1736612944
777,9,Ticks_ISO_T2_8,183,5,42,127,1736666680
777,9,Ticks_ISO_T2_8,184,1,48,26,1737380808
777,9,Ticks_ISO_T2_8,185,5,42,127,1737467312
777,9,Ticks_ISO_T2_8,186,1,48,27,1738199248
777,9,Ticks_ISO_T2_8,187,5,42,127,1738267048
777,9,Ticks_ISO_T2_8,188,1,48,30,1739036680
777,9,Ticks_ISO_T2_8,189,5,42,127,1739066708
777,9,Ticks_ISO_T2_8,190,1,48,28,1739843220
777,9,Ticks_ISO_T2_8,191,5,42,127,1739866440
777,9,Ticks_ISO_T2_8,192,1,48,23,1740611312
777,9,Ticks_ISO_T2_8,193,5,42,127,1740667220
777,9,Ticks_ISO_T2_8,194,1,48,27,1741374992
777,9,Ticks_ISO_T2_8,195,5,42,127,1741466904
777,9,Ticks_ISO_T2_8,196,1,48,26,1742181612
777,9,Ticks_ISO_T2_8,197,5,42,127,1742266716
777,9,Ticks_ISO_T2_8,198,1,48,28,1743045244
777,9,Ticks_ISO_T2_8,199,5,42,127,1743066596
777,9,Ticks_ISO_T2_8,200,1,48,28,1743864724
777,9,Ticks_ISO_T2_8,201,5,42,127,1743867228
777,9,Ticks_ISO_T2_8,202,1,48,30,1744661092
777,9,Ticks_ISO_T2_8,203,5,42,127,1744666964
777,9,Ticks_ISO_T2_8,204,5,42,127,1745466852
777,9,Ticks_ISO_T2_8,205,1,48,32,1745516268
777,9,Ticks_ISO_T2_8,206,5,42,127,1746266436
777,9,Ticks_ISO_T2_8,207,1,48,34,1746306056
777,9,Ticks_ISO_T2_8,208,1,48,23,1747003448
777,9,Ticks_ISO_T2_8,209,5,42,127,1747067136
777,9,Ticks_ISO_T2_8,210,1,48,27,1747747604
777,9,Ticks_ISO_T2_8,211,5,42,127,1747867028
777,9,Ticks_ISO_T2_8,212,1,48,28,1748648268
777,9,Ticks_ISO_T2_8,213,5,42,127,1748666852
777,9,Ticks_ISO_T2_8,214,1,48,31,1749444260
777,9,Ticks_ISO_T2_8,215,5,42,127,1749466656
777,9,Ticks_ISO_T2_8,216,1,48,21,1750200912
777,9,Ticks_ISO_T2_8,217,5,42,127,1750267216
777,9,Ticks_ISO_T2_8,218,1,48,25,1751024656
777,9,Ticks_ISO_T2_8,219,5,42,127,1751066948
777,9,Ticks_ISO_T2_8,220,1,48,30,1751744424
777,9,Ticks_ISO_T2_8,221,5,42,127,1751866668
777,9,Ticks_ISO_T2_8,222,1,48,30,1752520004
777,9,Ticks_ISO_T2_8,223,5,42,127,1752666624
777,9,Ticks_ISO_T2_8,224,1,48,25,1753429240
777,9,Ticks_ISO_T2_8,225,5,42,127,1753467344
777,9,Ticks_ISO_T2_8,226,1,48,30,1754243928
777,9,Ticks_ISO_T2_8,227,5,42,127,1754267028
777,9,Ticks_ISO_T2_8,228,1,48,28,1755056408
777,9,Ticks_ISO_T2_8,229,5,42,127,1755066616
777,9,Ticks_ISO_T2_8,230,5,42,127,1755866576
777,9,Ticks_ISO_T2_8,231,1,48,28,1755867544
777,9,Ticks_ISO_T2_8,232,1,48,34,1756613016
777,9,Ticks_ISO_T2_8,233,5,42,127,1756667276
777,9,Ticks_ISO_T2_8,234,1,48,27,1757376548
777,9,Ticks_ISO_T2_8,235,5,42,127,1757467084
777,9,Ticks_ISO_T2_8,236,1,48,22,1758249284
777,9,Ticks_ISO_T2_8,237,5,42,127,1758266596
777,9,Ticks_ISO_T2_8,238,1,48,26,1759014680
777,9,Ticks_ISO_T2_8,0,9999,9999,9999,1663064128
777,9,Ticks_ISO_T2_8,1,9999,9999,9999,1663864932
777,9,Ticks_ISO_T2_8,2,9999,9999,9999,1664664636
777,9,Ticks_ISO_T2_8,3,9999,9999,9999,1665464372
777,9,Ticks_ISO_T2_8,4,9999,9999,9999,1666264180
777,9,Ticks_ISO_T2_8,5,9999,9999,9999,1667064876
777,9,Ticks_ISO_T2_8,6,9999,9999,9999,1667864684
777,9,Ticks_ISO_T2_8,7,9999,9999,9999,1668664420
777,9,Ticks_ISO_T2_8,8,9999,9999,9999,1669464152
777,9,Ticks_ISO_T2_8,9,9999,9999,9999,1670264932
777,9,Ticks_ISO_T2_8,10,9999,9999,9999,1671064688
777,9,Ticks_ISO_T2_8,11,9999,9999,9999,1671864424
777,9,Ticks_ISO_T2_8,12,9999,9999,9999,1672664140
777,9,Ticks_ISO_T2_8,13,9999,9999,9999,1673464936
777,9,Ticks_ISO_T2_8,14,9999,9999,9999,1674264668
777,9,Ticks_ISO_T2_8,15,9999,9999,9999,1675064400
777,9,Ticks_ISO_T2_8,16,9999,9999,9999,1675864136
777,9,Ticks_ISO_T2_8,17,9999,9999,9999,1676664900
777,9,Ticks_ISO_T2_8,18,9999,9999,9999,1677464660
777,9,Ticks_ISO_T2_8,19,9999,9999,9999,1678264408
777,9,Ticks_ISO_T2_8,20,9999,9999,9999,1679064140
777,9,Ticks_ISO_T2_8,21,9999,9999,9999,1679864924
777,9,Ticks_ISO_T2_8,22,9999,9999,9999,1680664664
777,9,Ticks_ISO_T2_8,23,9999,9999,9999,1681464392
777,9,Ticks_ISO_T2_8,24,9999,9999,9999,1682264128
777,9,Ticks_ISO_T2_8,25,9999,9999,9999,1683064912
777,9,Ticks_ISO_T2_8,26,9999,9999,9999,1683864672
777,9,Ticks_ISO_T2_8,27,9999,9999,9999,1684664396
777,9,Ticks_ISO_T2_8,28,9999,9999,9999,1685464132
777,9,Ticks_ISO_T2_8,29,9999,9999,9999,1686264912
777,9,Ticks_ISO_T2_8,30,9999,9999,9999,1687064644
777,9,Ticks_ISO_T2_8,31,9999,9999,9999,1687864380
777,9,Ticks_ISO_T2_8,32,9999,9999,9999,1688664112
777,9,Ticks_ISO_T2_8,33,9999,9999,9999,1689464900
777,9,Ticks_ISO_T2_8,34,9999,9999,9999,1690264652
777,9,Ticks_ISO_T2_8,35,9999,9999,9999,1691064384
777,9,Ticks_ISO_T2_8,36,9999,9999,9999,1691864116
777,9,Ticks_ISO_T2_8,37,9999,9999,9999,1692664880
777,9,Ticks_ISO_T2_8,38,9999,9999,9999,1693464632
777,9,Ticks_ISO_T2_8,39,9999,9999,9999,1694264372
777,9,Ticks_ISO_T2_8,40,9999,9999,9999,1695064176
777,9,Ticks_ISO_T2_8,41,9999,9999,9999,1695864880
777,9,Ticks_ISO_T2_8,42,9999,9999,9999,1696664696
777,9,Ticks_ISO_T2_8,43,9999,9999,9999,1697464372
777,9,Ticks_ISO_T2_8,44,9999,9999,9999,1698264112
777,9,Ticks_ISO_T2_8,45,9999,9999,9999,1699064884
777,9,Ticks_ISO_T2_8,46,9999,9999,9999,1699864696
777,9,Ticks_ISO_T2_8,47,9999,9999,9999,1700664428
777,9,Ticks_ISO_T2_8,48,9999,9999,9999,1701464164
777,9,Ticks_ISO_T2_8,49,9999,9999,9999,1702264944
777,9,Ticks_ISO_T2_8,50,9999,9999,9999,1703064624
777,9,Ticks_ISO_T2_8,51,9999,9999,9999,1703864432
777,9,Ticks_ISO_T2_8,52,9999,9999,9999,1704664168
777,9,Ticks_ISO_T2_8,53,9999,9999,9999,1705464944
777,9,Ticks_ISO_T2_8,54,9999,9999,9999,1706264684
777,9,Ticks_ISO_T2_8,55,9999,9999,9999,1707064420
777,9,Ticks_ISO_T2_8,56,9999,9999,9999,1707864144
777,9,Ticks_ISO_T2_8,57,9999,9999,9999,1708664924
777,9,Ticks_ISO_T2_8,58,9999,9999,9999,1709464684
777,9,Ticks_ISO_T2_8,59,9999,9999,9999,1710264416
777,9,Ticks_ISO_T2_8,60,9999,9999,9999,1711064132
777,9,Ticks_ISO_T2_8,61,9999,9999,9999,1711864928
777,9,Ticks_ISO_T2_8,62,9999,9999,9999,1712664660
777,9,Ticks_ISO_T2_8,63,9999,9999,9999,1713464396
777,9,Ticks_ISO_T2_8,64,9999,9999,9999,1714264128
777,9,Ticks_ISO_T2_8,65,9999,9999,9999,1715064908
777,9,Ticks_ISO_T2_8,66,9999,9999,9999,1715864668
777,9,Ticks_ISO_T2_8,67,9999,9999,9999,1716664400
777,9,Ticks_ISO_T2_8,68,9999,9999,9999,1717464132
777,9,Ticks_ISO_T2_8,69,9999,9999,9999,1718264920
777,9,Ticks_ISO_T2_8,70,9999,9999,9999,1719064644
777,9,Ticks_ISO_T2_8,71,9999,9999,9999,1719864380
777,9,Ticks_ISO_T2_8,72,9999,9999,9999,1720664112
777,9,Ticks_ISO_T2_8,73,9999,9999,9999,1721464892
777,9,Ticks_ISO_T2_8,74,9999,9999,9999,1722264652
777,9,Ticks_ISO_T2_8,75,9999,9999,9999,1723064368
777,9,Ticks_ISO_T2_8,76,9999,9999,9999,1723864116
777,9,Ticks_ISO_T2_8,77,9999,9999,9999,1724664904
777,9,Ticks_ISO_T2_8,78,9999,9999,9999,1725464636
777,9,Ticks_ISO_T2_8,79,9999,9999,9999,1726264368
777,9,Ticks_ISO_T2_8,80,9999,9999,9999,1727064160
777,9,Ticks_ISO_T2_8,81,9999,9999,9999,1727864940
777,9,Ticks_ISO_T2_8,82,9999,9999,9999,1728664624
777,9,Ticks_ISO_T2_8,83,9999,9999,9999,1729464380
777,9,Ticks_ISO_T2_8,84,9999,9999,9999,1730264180
777,9,Ticks_ISO_T2_8,85,9999,9999,9999,1731064888
777,9,Ticks_ISO_T2_8,86,9999,9999,9999,1731864696
777,9,Ticks_ISO_T2_8,87,9999,9999,9999,1732664428
777,9,Ticks_ISO_T2_8,88,9999,9999,9999,1733464144
777,9,Ticks_ISO_T2_8,89,9999,9999,9999,1734264928
777,9,Ticks_ISO_T2_8,90,9999,9999,9999,1735064624
777,9,Ticks_ISO_T2_8,91,9999,9999,9999,1735864420
777,9,Ticks_ISO_T2_8,92,9999,9999,9999,1736664168
777,9,Ticks_ISO_T2_8,93,9999,9999,9999,1737464948
777,9,Ticks_ISO_T2_8,94,9999,9999,9999,1738264684
777,9,Ticks_ISO_T2_8,95,9999,9999,9999,1739064416
777,9,Ticks_ISO_T2_8,96,9999,9999,9999,1739864152
777,9,Ticks_ISO_T2_8,97,9999,9999,9999,1740664928
777,9,Ticks_ISO_T2_8,98,9999,9999,9999,1741464688
777,9,Ticks_ISO_T2_8,99,9999,9999,9999,1742264424
777,9,Ticks_ISO_T2_8,100,9999,9999,9999,1743064156
777,9,Ticks_ISO_T2_8,101,9999,9999,9999,1743864940
777,9,Ticks_ISO_T2_8,102,9999,9999,9999,1744664672
777,9,Ticks_ISO_T2_8,103,9999,9999,9999,1745464412
777,9,Ticks_ISO_T2_8,104,9999,9999,9999,1746264144
777,9,Ticks_ISO_T2_8,105,9999,9999,9999,1747064920
777,9,Ticks_ISO_T2_8,106,9999,9999,9999,1747864660
777,9,Ticks_ISO_T2_8,107,9999,9999,9999,1748664412
777,9,Ticks_ISO_T2_8,108,9999,9999,9999,1749464144
777,9,Ticks_ISO_T2_8,109,9999,9999,9999,1750264924
777,9,Ticks_ISO_T2_8,110,9999,9999,9999,1751064656
777,9,Ticks_ISO_T2_8,111,9999,9999,9999,1751864376
777,9,Ticks_ISO_T2_8,112,9999,9999,9999,1752664112
777,9,Ticks_ISO_T2_8,113,9999,9999,9999,1753464904
777,9,Ticks_ISO_T2_8,114,9999,9999,9999,1754264664
777,9,Ticks_ISO_T2_8,115,9999,9999,9999,1755064396
777,9,Ticks_ISO_T2_8,116,9999,9999,9999,1755864140
777,9,Ticks_ISO_T2_8,117,9999,9999,9999,1756664912
777,9,Ticks_ISO_T2_8,118,9999,9999,9999,1757464644
777,9,Ticks_ISO_T2_8,119,9999,9999,9999,1758264380
778,10,Ticks_ISO_T2_5,0,5,42,127,1769322728
778,10,Ticks_ISO_T2_5,1,5,42,127,1769822520
778,10,Ticks_ISO_T2_5,2,1,48,25,1770292356
778,10,Ticks_ISO_T2_5,3,5,42,127,1770323352
778,10,Ticks_ISO_T2_5,4,1,48,23,1770813288
778,10,Ticks_ISO_T2_5,5,5,42,127,1770823120
778,10,Ticks_ISO_T2_5,6,5,42,127,1771322824
778,10,Ticks_ISO_T2_5,7,1,48,25,1771332148
778,10,Ticks_ISO_T2_5,8,1,48,23,1771773632
778,10,Ticks_ISO_T2_5,9,5,42,127,1771822436
778,10,Ticks_ISO_T2_5,10,5,42,127,1772323404
778,10,Ticks_ISO_T2_5,11,1,48,23,1772343580
778,10,Ticks_ISO_T2_5,12,5,42,127,1772823176
778,10,Ticks_ISO_T2_5,13,1,48,28,1772849336
778,10,Ticks_ISO_T2_5,14,5,42,127,1773322472
778,10,Ticks_ISO_T2_5,15,1,48,28,1773326036
778,10,Ticks_ISO_T2_5,16,5,42,127,1773823288
778,10,Ticks_ISO_T2_5,17,1,48,40,1773841888
778,10,Ticks_ISO_T2_5,18,5,42,127,1774323356
778,10,Ticks_ISO_T2_5,19,1,48,34,1774399556
778,10,Ticks_ISO_T2_5,20,5,42,127,1774822824
778,10,Ticks_ISO_T2_5,21,1,48,31,1774905152
778,10,Ticks_ISO_T2_5,22,5,42,127,1775322372
778,10,Ticks_ISO_T2_5,23,1,48,33,1775445912
778,10,Ticks_ISO_T2_5,24,5,42,127,1775823188
778,10,Ticks_ISO_T2_5,25,1,48,31,1775941420
778,10,Ticks_ISO_T2_5,26,5,42,127,1776323108
778,10,Ticks_ISO_T2_5,27,1,48,28,1776363700
778,10,Ticks_ISO_T2_5,28,1,48,27,1776816332
778,10,Ticks_ISO_T2_5,29,5,42,127,1776822648
778,10,Ticks_ISO_T2_5,30,1,48,27,1777277552
778,10,Ticks_ISO_T2_5,31,5,42,127,1777323460
778,10,Ticks_ISO_T2_5,32,1,48,31,1777819764
778,10,Ticks_ISO_T2_5,33,5,42,127,1777823380
778,10,Ticks_ISO_T2_5,34,1,48,31,1778298940
778,10,Ticks_ISO_T2_5,35,5,42,127,1778322780
778,10,Ticks_ISO_T2_5,36,1,48,30,1778779780
778,10,Ticks_ISO_T2_5,37,5,42,127,1778822600
778,10,Ticks_ISO_T2_5,38,1,48,34,1779261900
778,10,Ticks_ISO_T2_5,39,5,42,127,1779323264
778,10,Ticks_ISO_T2_5,40,1,48,29,1779820012
778,10,Ticks_ISO_T2_5,41,5,42,127,1779823408
778,10,Ticks_ISO_T2_5,42,1,48,32,1780297192
778,10,Ticks_ISO_T2_5,43,5,42,127,1780322656
778,10,Ticks_ISO_T2_5,44,1,48,31,1780804436
778,10,Ticks_ISO_T2_5,45,5,42,127,1780823324
778,10,Ticks_ISO_T2_5,46,1,48,31,1781309600
778,10,Ticks_ISO_T2_5,47,5,42,127,1781323244
778,10,Ticks_ISO_T2_5,48,1,48,32,1781802560
778,10,Ticks_ISO_T2_5,49,5,42,127,1781823084
778,10,Ticks_ISO_T2_5,50,1,48,31,1782261312
778,10,Ticks_ISO_T2_5,51,5,42,127,1782322532
778,10,Ticks_ISO_T2_5,52,1,48,27,1782799156
778,10,Ticks_ISO_T2_5,53,5,42,127,1782823200
778,10,Ticks_ISO_T2_5,54,1,48,30,1783281800
778,10,Ticks_ISO_T2_5,55,5,42,127,1783323192
778,10,Ticks_ISO_T2_5,56,1,48,29,1783775952
778,10,Ticks_ISO_T2_5,57,5,42,127,1783822664
778,10,Ticks_ISO_T2_5,58,1,48,30,1784250072
778,10,Ticks_ISO_T2_5,59,5,42,127,1784322360
778,10,Ticks_ISO_T2_5,60,1,48,29,1784748868
778,10,Ticks_ISO_T2_5,61,5,42,127,1784823100
778,10,Ticks_ISO_T2_5,62,1,48,32,1785276984
778,10,Ticks_ISO_T2_5,63,5,42,127,1785323092
778,10,Ticks_ISO_T2_5,64,1,48,28,1785776308
778,10,Ticks_ISO_T2_5,65,5,42,127,1785822640
778,10,Ticks_ISO_T2_5,66,1,48,31,1786271512
778,10,Ticks_ISO_T2_5,67,5,42,127,1786323160
778,10,Ticks_ISO_T2_5,68,1,48,30,1786813992
778,10,Ticks_ISO_T2_5,69,5,42,127,1786823004
778,10,Ticks_ISO_T2_5,70,1,48,29,1787293340
778,10,Ticks_ISO_T2_5,71,5,42,127,1787322848
778,10,Ticks_ISO_T2_5,72,1,48,29,1787797824
778,10,Ticks_ISO_T2_5,73,5,42,127,1787822392
778,10,Ticks_ISO_T2_5,74,1,48,25,1788267876
778,10,Ticks_ISO_T2_5,75,5,42,127,1788323284
778,10,Ticks_ISO_T2_5,76,1,48,28,1788764948
778,10,Ticks_ISO_T2_5,77,5,42,127,1788822828
778,10,Ticks_ISO_T2_5,78,1,48,29,1789286936
778,10,Ticks_ISO_T2_5,79,5,42,127,1789322720
778,10,Ticks_ISO_T2_5,80,1,48,29,1789801288
778,10,Ticks_ISO_T2_5,81,5,42,127,1789823464
778,10,Ticks_ISO_T2_5,82,1,48,24,1790288948
778,10,Ticks_ISO_T2_5,83,5,42,127,1790323012
778,10,Ticks_ISO_T2_5,84,1,48,28,1790783852
778,10,Ticks_ISO_T2_5,85,5,42,127,1790822856
778,10,Ticks_ISO_T2_5,86,1,48,29,1791304792
778,10,Ticks_ISO_T2_5,87,5,42,127,1791322400
778,10,Ticks_ISO_T2_5,88,5,42,127,1791823148
778,10,Ticks_ISO_T2_5,89,1,48,28,1791837264
778,10,Ticks_ISO_T2_5,90,5,42,127,1792322916
778,10,Ticks_ISO_T2_5,91,1,48,25,1792354756
778,10,Ticks_ISO_T2_5,92,1,48,24,1792820944
778,10,Ticks_ISO_T2_5,93,5,42,127,1792822604
778,10,Ticks_ISO_T2_5,94,1,48,29,1793320024
778,10,Ticks_ISO_T2_5,95,5,42,127,1793323568
778,10,Ticks_ISO_T2_5,96,5,42,127,1793823120
778,10,Ticks_ISO_T2_5,97,1,48,27,1793837092
778,10,Ticks_ISO_T2_5,98,1,48,31,1794303404
778,10,Ticks_ISO_T2_5,99,5,42,127,1794322808
778,10,Ticks_ISO_T2_5,100,1,48,31,1794811176
778,10,Ticks_ISO_T2_5,101,5,42,127,1794822652
778,10,Ticks_ISO_T2_5,102,1,48,38,1795288052
778,10,Ticks_ISO_T2_5,103,5,42,127,1795323172
778,10,Ticks_ISO_T2_5,104,5,42,127,1795823092
778,10,Ticks_ISO_T2_5,105,1,48,31,1795835940
778,10,Ticks_ISO_T2_5,106,1,48,29,1796316468
778,10,Ticks_ISO_T2_5,107,5,42,127,1796322856
778,10,Ticks_ISO_T2_5,108,1,48,27,1796775996
778,10,Ticks_ISO_T2_5,109,5,42,127,1796823452
778,10,Ticks_ISO_T2_5,110,1,48,29,1797292668
778,10,Ticks_ISO_T2_5,111,5,42,127,1797323292
778,10,Ticks_ISO_T2_5,112,1,48,29,1797801640
778,10,Ticks_ISO_T2_5,113,5,42,127,1797822692
778,10,Ticks_ISO_T2_5,114,1,48,32,1798265704
778,10,Ticks_ISO_T2_5,115,5,42,127,1798322464
778,10,Ticks_ISO_T2_5,116,1,48,30,1798796840
778,10,Ticks_ISO_T2_5,117,5,42,127,1798823204
778,10,Ticks_ISO_T2_5,118,1,48,29,1799276016
778,10,Ticks_ISO_T2_5,119,5,42,127,1799322972
778,10,Ticks_ISO_T2_5,120,1,48,27,1799817300
778,10,Ticks_ISO_T2_5,121,5,42,127,1799822668
778,10,Ticks_ISO_T2_5,122,1,48,29,1800304424
778,10,Ticks_ISO_T2_5,123,5,42,127,1800322264
778,10,Ticks_ISO_T2_5,124,1,48,29,1800774800
778,10,Ticks_ISO_T2_5,125,5,42,127,1800823080
778,10,Ticks_ISO_T2_5,126,1,48,27,1801311892
778,10,Ticks_ISO_T2_5,127,5,42,127,1801322924
778,10,Ticks_ISO_T2_5,128,1,48,28,1801762296
778,10,Ticks_ISO_T2_5,129,5,42,127,1801822692
778,10,Ticks_ISO_T2_5,130,5,42,127,1802323440
778,10,Ticks_ISO_T2_5,131,1,48,26,1802331872
778,10,Ticks_ISO_T2_5,132,1,48,28,1802790632
778,10,Ticks_ISO_T2_5,133,5,42,127,1802822980
778,10,Ticks_ISO_T2_5,134,1,48,27,1803257044
778,10,Ticks_ISO_T2_5,135,5,42,127,1803322600
778,10,Ticks_ISO_T2_5,136,1,48,27,1803783440
778,10,Ticks_ISO_T2_5,137,5,42,127,1803822592
778,10,Ticks_ISO_T2_5,138,1,48,29,1804271540
778,10,Ticks_ISO_T2_5,139,5,42,127,1804323260
778,10,Ticks_ISO_T2_5,140,1,48,28,1804762188
778,10,Ticks_ISO_T2_5,141,5,42,127,1804822804
778,10,Ticks_ISO_T2_5,142,1,48,24,1805233680
778,10,Ticks_ISO_T2_5,143,5,42,127,1805322500
778,10,Ticks_ISO_T2_5,144,1,48,25,1805777804
778,10,Ticks_ISO_T2_5,145,5,42,127,1805823316
778,10,Ticks_ISO_T2_5,146,5,42,127,1806322944
778,10,Ticks_ISO_T2_5,147,1,48,29,1806334588
778,10,Ticks_ISO_T2_5,148,5,42,127,1806822712
778,10,Ticks_ISO_T2_5,149,1,48,27,1806825684
778,10,Ticks_ISO_T2_5,150,1,48,27,1807288784
778,10,Ticks_ISO_T2_5,151,5,42,127,1807322552
778,10,Ticks_ISO_T2_5,152,1,48,27,1807774636
778,10,Ticks_ISO_T2_5,153,5,42,127,1807823144
778,10,Ticks_ISO_T2_5,154,1,48,27,1808248428
778,10,Ticks_ISO_T2_5,155,5,42,127,1808322912
778,10,Ticks_ISO_T2_5,156,5,42,127,1808822616
778,10,Ticks_ISO_T2_5,157,1,48,27,1808840540
778,10,Ticks_ISO_T2_5,158,1,48,30,1809292796
778,10,Ticks_ISO_T2_5,159,5,42,127,1809323720
778,10,Ticks_ISO_T2_5,160,5,42,127,1809823124
778,10,Ticks_ISO_T2_5,161,1,48,30,1809878828
778,10,Ticks_ISO_T2_5,162,1,48,26,1810314676
778,10,Ticks_ISO_T2_5,163,5,42,127,1810322864
778,10,Ticks_ISO_T2_5,164,1,48,25,1810807096
778,10,Ticks_ISO_T2_5,165,5,42,127,1810822608
778,10,Ticks_ISO_T2_5,166,1,48,24,1811253456
778,10,Ticks_ISO_T2_5,167,5,42,127,1811323500
778,10,Ticks_ISO_T2_5,168,1,48,24,1811760556
778,10,Ticks_ISO_T2_5,169,5,42,127,1811823044
778,10,Ticks_ISO_T2_5,170,1,48,27,1812265784
778,10,Ticks_ISO_T2_5,171,5,42,127,1812322668
778,10,Ticks_ISO_T2_5,172,1,48,24,1812793384
778,10,Ticks_ISO_T2_5,173,5,42,127,1812823480
778,10,Ticks_ISO_T2_5,174,1,48,23,1813273704
778,10,Ticks_ISO_T2_5,175,5,42,127,1813323252
778,10,Ticks_ISO_T2_5,176,1,48,25,1813777960
778,10,Ticks_ISO_T2_5,177,5,42,127,1813822872
778,10,Ticks_ISO_T2_5,178,1,48,29,1814293360
778,10,Ticks_ISO_T2_5,179,5,42,127,1814322644
778,10,Ticks_ISO_T2_5,180,1,48,27,1814784232
778,10,Ticks_ISO_T2_5,181,5,42,127,1814823384
778,10,Ticks_ISO_T2_5,182,1,48,29,1815264480
778,10,Ticks_ISO_T2_5,183,5,42,127,1815322856
778,10,Ticks_ISO_T2_5,184,1,48,30,1815797308
778,10,Ticks_ISO_T2_5,185,5,42,127,1815822552
778,10,Ticks_ISO_T2_5,186,1,48,29,1816322624
778,10,Ticks_ISO_T2_5,187,5,42,127,1816323960
778,10,Ticks_ISO_T2_5,188,1,48,22,1816819964
778,10,Ticks_ISO_T2_5,189,5,42,127,1816823284
778,10,Ticks_ISO_T2_5,190,5,42,127,1817322764
778,10,Ticks_ISO_T2_5,191,1,48,30,1817352512
778,10,Ticks_ISO_T2_5,192,5,42,127,1817822532
778,10,Ticks_ISO_T2_5,193,1,48,28,1817867540
778,10,Ticks_ISO_T2_5,194,1,48,34,1818287028
778,10,Ticks_ISO_T2_5,195,5,42,127,1818323416
778,10,Ticks_ISO_T2_5,196,5,42,127,1818822892
778,10,Ticks_ISO_T2_5,197,1,48,29,1818854808
778,10,Ticks_ISO_T2_5,198,5,42,127,1819322960
778,10,Ticks_ISO_T2_5,199,1,48,28,1819362208
778,10,Ticks_ISO_T2_5,200,1,48,20,1819782124
778,10,Ticks_ISO_T2_5,201,5,42,127,1819822572
778,10,Ticks_ISO_T2_5,202,1,48,33,1820260952
778,10,Ticks_ISO_T2_5,203,5,42,127,1820323388
778,10,Ticks_ISO_T2_5,204,1,48,35,1820779196
778,10,Ticks_ISO_T2_5,205,5,42,127,1820823008
778,10,Ticks_ISO_T2_5,206,1,48,29,1821240292
778,10,Ticks_ISO_T2_5,207,5,42,127,1821322556
778,10,Ticks_ISO_T2_5,208,1,48,31,1821740512
778,10,Ticks_ISO_T2_5,209,5,42,127,1821823420
778,10,Ticks_ISO_T2_5,210,1,48,31,1822219260
778,10,Ticks_ISO_T2_5,211,5,42,127,1822323176
778,10,Ticks_ISO_T2_5,212,1,48,30,1822702500
778,10,Ticks_ISO_T2_5,213,5,42,127,1822822720
778,10,Ticks_ISO_T2_5,214,1,48,29,1823220596
778,10,Ticks_ISO_T2_5,215,5,42,127,1823322416
778,10,Ticks_ISO_T2_5,216,1,48,30,1823755744
778,10,Ticks_ISO_T2_5,217,5,42,127,1823823248
778,10,Ticks_ISO_T2_5,218,1,48,29,1824257536
778,10,Ticks_ISO_T2_5,219,5,42,127,1824323016
778,10,Ticks_ISO_T2_5,220,1,48,27,1824707644
778,10,Ticks_ISO_T2_5,221,5,42,127,1824822772
778,10,Ticks_ISO_T2_5,222,1,48,30,1825153456
778,10,Ticks_ISO_T2_5,223,5,42,127,1825323440
778,10,Ticks_ISO_T2_5,224,1,48,32,1825652476
778,10,Ticks_ISO_T2_5,225,5,42,127,1825823208
778,10,Ticks_ISO_T2_5,226,1,48,35,1826090464
778,10,Ticks_ISO_T2_5,227,5,42,127,1826322832
778,10,Ticks_ISO_T2_5,228,1,48,29,1826616492
778,10,Ticks_ISO_T2_5,229,5,42,127,1826822452
778,10,Ticks_ISO_T2_5,230,1,48,27,1827043776
778,10,Ticks_ISO_T2_5,231,5,42,127,1827323340
778,10,Ticks_ISO_T2_5,232,1,48,32,1827547216
778,10,Ticks_ISO_T2_5,233,5,42,127,1827822812
778,10,Ticks_ISO_T2_5,234,1,48,23,1828055212
778,10,Ticks_ISO_T2_5,235,5,42,127,1828322732
778,10,Ticks_ISO_T2_5,236,1,48,25,1828703004
778,10,Ticks_ISO_T2_5,237,5,42,127,1828823396
778,10,Ticks_ISO_T2_5,238,1,48,30,1829273932
778,10,Ticks_ISO_T2_5,239,5,42,127,1829323328
778,10,Ticks_ISO_T2_5,240,1,48,31,1829809004
778,10,Ticks_ISO_T2_5,241,5,42,127,1829822948
778,10,Ticks_ISO_T2_5,242,1,48,30,1830313412
778,10,Ticks_ISO_T2_5,243,5,42,127,1830322496
778,10,Ticks_ISO_T2_5,244,1,48,32,1830800312
778,10,Ticks_ISO_T2_5,245,5,42,127,1830823384
778,10,Ticks_ISO_T2_5,246,5,42,127,1831323088
778,10,Ticks_ISO_T2_5,247,1,48,24,1831364576
778,10,Ticks_ISO_T2_5,248,5,42,127,1831822784
778,10,Ticks_ISO_T2_5,249,1,48,29,1831848192
778,10,Ticks_ISO_T2_5,250,5,42,127,1832322380
778,10,Ticks_ISO_T2_5,251,1,48,29,1832327296
778,10,Ticks_ISO_T2_5,252,1,48,28,1832770576
778,10,Ticks_ISO_T2_5,253,5,42,127,1832823112
778,10,Ticks_ISO_T2_5,254,1,48,29,1833279240
778,10,Ticks_ISO_T2_5,255,5,42,127,1833322880
778,10,Ticks_ISO_T2_5,256,1,48,27,1833788808
778,10,Ticks_ISO_T2_5,257,5,42,127,1833822576
778,10,Ticks_ISO_T2_5,258,1,48,26,1834269428
778,10,Ticks_ISO_T2_5,0,9999,9999,9999,1769320516
778,10,Ticks_ISO_T2_5,1,9999,9999,9999,1769820232
778,10,Ticks_ISO_T2_5,2,9999,9999,9999,1770320992
778,10,Ticks_ISO_T2_5,3,9999,9999,9999,1770820684
778,10,Ticks_ISO_T2_5,4,9999,9999,9999,1771320388
778,10,Ticks_ISO_T2_5,5,9999,9999,9999,1771820148
778,10,Ticks_ISO_T2_5,6,9999,9999,9999,1772320820
778,10,Ticks_ISO_T2_5,7,9999,9999,9999,1772820592
778,10,Ticks_ISO_T2_5,8,9999,9999,9999,1773320260
778,10,Ticks_ISO_T2_5,9,9999,9999,9999,1773821000
778,10,Ticks_ISO_T2_5,10,9999,9999,9999,1774320696
778,10,Ticks_ISO_T2_5,11,9999,9999,9999,1774820464
778,10,Ticks_ISO_T2_5,12,9999,9999,9999,1775320160
778,10,Ticks_ISO_T2_5,13,9999,9999,9999,1775820900
778,10,Ticks_ISO_T2_5,14,9999,9999,9999,1776320596
778,10,Ticks_ISO_T2_5,15,9999,9999,9999,1776820288
778,10,Ticks_ISO_T2_5,16,9999,9999,9999,1777321028
778,10,Ticks_ISO_T2_5,17,9999,9999,9999,1777820724
778,10,Ticks_ISO_T2_5,18,9999,9999,9999,1778320496
778,10,Ticks_ISO_T2_5,19,9999,9999,9999,1778820164
778,10,Ticks_ISO_T2_5,20,9999,9999,9999,1779320904
778,10,Ticks_ISO_T2_5,21,9999,9999,9999,1779820600
778,10,Ticks_ISO_T2_5,22,9999,9999,9999,1780320368
778,10,Ticks_ISO_T2_5,23,9999,9999,9999,1780821112
778,10,Ticks_ISO_T2_5,24,9999,9999,9999,1781320808
778,10,Ticks_ISO_T2_5,25,9999,9999,9999,1781820504
778,10,Ticks_ISO_T2_5,26,9999,9999,9999,1782320248
778,10,Ticks_ISO_T2_5,27,9999,9999,9999,1782820912
778,10,Ticks_ISO_T2_5,28,9999,9999,9999,1783320684
778,10,Ticks_ISO_T2_5,29,9999,9999,9999,1783820376
778,10,Ticks_ISO_T2_5,30,9999,9999,9999,1784320072
778,10,Ticks_ISO_T2_5,31,9999,9999,9999,1784820816
778,10,Ticks_ISO_T2_5,32,9999,9999,9999,1785320508
778,10,Ticks_ISO_T2_5,33,9999,9999,9999,1785820280
778,10,Ticks_ISO_T2_5,34,9999,9999,9999,1786320948
778,10,Ticks_ISO_T2_5,35,9999,9999,9999,1786820716
778,10,Ticks_ISO_T2_5,36,9999,9999,9999,1787320412
778,10,Ticks_ISO_T2_5,37,9999,9999,9999,1787820104
778,10,Ticks_ISO_T2_5,38,9999,9999,9999,1788320848
778,10,Ticks_ISO_T2_5,39,9999,9999,9999,1788820544
778,10,Ticks_ISO_T2_5,40,9999,9999,9999,1789320288
778,10,Ticks_ISO_T2_5,41,9999,9999,9999,1789821028
778,10,Ticks_ISO_T2_5,42,9999,9999,9999,1790320724
778,10,Ticks_ISO_T2_5,43,9999,9999,9999,1790820420
778,10,Ticks_ISO_T2_5,44,9999,9999,9999,1791320116
778,10,Ticks_ISO_T2_5,45,9999,9999,9999,1791820860
778,10,Ticks_ISO_T2_5,46,9999,9999,9999,1792320632
778,10,Ticks_ISO_T2_5,47,9999,9999,9999,1792820344
778,10,Ticks_ISO_T2_5,48,9999,9999,9999,1793321060
778,10,Ticks_ISO_T2_5,49,9999,9999,9999,1793820760
778,10,Ticks_ISO_T2_5,50,9999,9999,9999,1794320448
778,10,Ticks_ISO_T2_5,51,9999,9999,9999,1794820216
778,10,Ticks_ISO_T2_5,52,9999,9999,9999,1795320884
778,10,Ticks_ISO_T2_5,53,9999,9999,9999,1795820660
778,10,Ticks_ISO_T2_5,54,9999,9999,9999,1796320348
778,10,Ticks_ISO_T2_5,55,9999,9999,9999,1796821092
778,10,Ticks_ISO_T2_5,56,9999,9999,9999,1797320784
778,10,Ticks_ISO_T2_5,57,9999,9999,9999,1797820480
778,10,Ticks_ISO_T2_5,58,9999,9999,9999,1798320176
778,10,Ticks_ISO_T2_5,59,9999,9999,9999,1798820916
778,10,Ticks_ISO_T2_5,60,9999,9999,9999,1799320688
778,10,Ticks_ISO_T2_5,61,9999,9999,9999,1799820380
778,10,Ticks_ISO_T2_5,62,9999,9999,9999,1800320052
778,10,Ticks_ISO_T2_5,63,9999,9999,9999,1800820792
778,10,Ticks_ISO_T2_5,64,9999,9999,9999,1801320560
778,10,Ticks_ISO_T2_5,65,9999,9999,9999,1801820256
778,10,Ticks_ISO_T2_5,66,9999,9999,9999,1802321004
778,10,Ticks_ISO_T2_5,67,9999,9999,9999,1802820692
778,10,Ticks_ISO_T2_5,68,9999,9999,9999,1803320388
778,10,Ticks_ISO_T2_5,69,9999,9999,9999,1803820084
778,10,Ticks_ISO_T2_5,70,9999,9999,9999,1804320824
778,10,Ticks_ISO_T2_5,71,9999,9999,9999,1804820592
778,10,Ticks_ISO_T2_5,72,9999,9999,9999,1805320288
778,10,Ticks_ISO_T2_5,73,9999,9999,9999,1805821032
778,10,Ticks_ISO_T2_5,74,9999,9999,9999,1806320732
778,10,Ticks_ISO_T2_5,75,9999,9999,9999,1806820428
778,10,Ticks_ISO_T2_5,76,9999,9999,9999,1807320116
778,10,Ticks_ISO_T2_5,77,9999,9999,9999,1807820856
778,10,Ticks_ISO_T2_5,78,9999,9999,9999,1808320628
778,10,Ticks_ISO_T2_5,79,9999,9999,9999,1808820328
778,10,Ticks_ISO_T2_5,80,9999,9999,9999,1809321060
778,10,Ticks_ISO_T2_5,81,9999,9999,9999,1809820764
778,10,Ticks_ISO_T2_5,82,9999,9999,9999,1810320504
778,10,Ticks_ISO_T2_5,83,9999,9999,9999,1810820172
778,10,Ticks_ISO_T2_5,84,9999,9999,9999,1811320916
778,10,Ticks_ISO_T2_5,85,9999,9999,9999,1811820608
778,10,Ticks_ISO_T2_5,86,9999,9999,9999,1812320304
778,10,Ticks_ISO_T2_5,87,9999,9999,9999,1812821048
778,10,Ticks_ISO_T2_5,88,9999,9999,9999,1813320816
778,10,Ticks_ISO_T2_5,89,9999,9999,9999,1813820512
778,10,Ticks_ISO_T2_5,90,9999,9999,9999,1814320208
778,10,Ticks_ISO_T2_5,91,9999,9999,9999,1814820948
778,10,Ticks_ISO_T2_5,92,9999,9999,9999,1815320644
778,10,Ticks_ISO_T2_5,93,9999,9999,9999,1815820340
778,10,Ticks_ISO_T2_5,94,9999,9999,9999,1816320116
778,10,Ticks_ISO_T2_5,95,9999,9999,9999,1816820852
778,10,Ticks_ISO_T2_5,96,9999,9999,9999,1817320552
778,10,Ticks_ISO_T2_5,97,9999,9999,9999,1817820244
778,10,Ticks_ISO_T2_5,98,9999,9999,9999,1818320980
778,10,Ticks_ISO_T2_5,99,9999,9999,9999,1818820680
778,10,Ticks_ISO_T2_5,100,9999,9999,9999,1819320376
778,10,Ticks_ISO_T2_5,101,9999,9999,9999,1819820140
778,10,Ticks_ISO_T2_5,102,9999,9999,9999,1820320880
778,10,Ticks_ISO_T2_5,103,9999,9999,9999,1820820576
778,10,Ticks_ISO_T2_5,104,9999,9999,9999,1821320244
778,10,Ticks_ISO_T2_5,105,9999,9999,9999,1821820984
778,10,Ticks_ISO_T2_5,106,9999,9999,9999,1822320740
778,10,Ticks_ISO_T2_5,107,9999,9999,9999,1822820432
778,10,Ticks_ISO_T2_5,108,9999,9999,9999,1823320128
778,10,Ticks_ISO_T2_5,109,9999,9999,9999,1823820884
778,10,Ticks_ISO_T2_5,110,9999,9999,9999,1824320584
778,10,Ticks_ISO_T2_5,111,9999,9999,9999,1824820336
778,10,Ticks_ISO_T2_5,112,9999,9999,9999,1825321080
778,10,Ticks_ISO_T2_5,113,9999,9999,9999,1825820772
778,10,Ticks_ISO_T2_5,114,9999,9999,9999,1826320468
778,10,Ticks_ISO_T2_5,115,9999,9999,9999,1826820164
778,10,Ticks_ISO_T2_5,116,9999,9999,9999,1827320904
778,10,Ticks_ISO_T2_5,117,9999,9999,9999,1827820600
778,10,Ticks_ISO_T2_5,118,9999,9999,9999,1828320368
778,10,Ticks_ISO_T2_5,119,9999,9999,9999,1828821112
778,10,Ticks_ISO_T2_5,120,9999,9999,9999,1829320820
778,10,Ticks_ISO_T2_5,121,9999,9999,9999,1829820516
778,10,Ticks_ISO_T2_5,122,9999,9999,9999,1830320208
778,10,Ticks_ISO_T2_5,123,9999,9999,9999,1830820952
778,10,Ticks_ISO_T2_5,124,9999,9999,9999,1831320652
778,10,Ticks_ISO_T2_5,125,9999,9999,9999,1831820348
778,10,Ticks_ISO_T2_5,126,9999,9999,9999,1832320092
778,10,Ticks_ISO_T2_5,127,9999,9999,9999,1832820828
778,10,Ticks_ISO_T2_5,128,9999,9999,9999,1833320520
778,10,Ticks_ISO_T2_5,129,9999,9999,9999,1833820216
779,20,Ticks_Linear_8,0,5,42,127,1844634096
779,20,Ticks_Linear_8,1,1,48,26,1845102000
779,20,Ticks_Linear_8,2,5,42,127,1845454264
779,20,Ticks_Linear_8,3,1,48,18,1846242732
779,20,Ticks_Linear_8,4,5,42,127,1846274372
779,20,Ticks_Linear_8,5,1,48,26,1847080192
779,20,Ticks_Linear_8,6,5,42,127,1847104272
779,20,Ticks_Linear_8,7,1,48,16,1847864720
779,20,Ticks_Linear_8,8,5,42,127,1847924216
779,20,Ticks_Linear_8,9,5,42,127,1848734084
779,20,Ticks_Linear_8,10,1,48,25,1848738324
779,20,Ticks_Linear_8,11,5,42,127,1849544068
779,20,Ticks_Linear_8,12,1,48,27,1849565240
779,20,Ticks_Linear_8,13,5,42,127,1850354052
779,20,Ticks_Linear_8,14,1,48,19,1850364588
779,20,Ticks_Linear_8,15,1,48,20,1851110512
779,20,Ticks_Linear_8,16,5,42,127,1851164100
779,20,Ticks_Linear_8,17,1,48,17,1851891064
779,20,Ticks_Linear_8,18,5,42,127,1851973936
779,20,Ticks_Linear_8,19,1,48,20,1852739692
779,20,Ticks_Linear_8,20,5,42,127,1852773880
779,20,Ticks_Linear_8,21,1,48,34,1853529380
779,20,Ticks_Linear_8,22,5,42,127,1853573384
779,20,Ticks_Linear_8,23,1,48,25,1854365376
779,20,Ticks_Linear_8,24,5,42,127,1854374252
779,20,Ticks_Linear_8,25,1,48,28,1855168464
779,20,Ticks_Linear_8,26,5,42,127,1855173976
779,20,Ticks_Linear_8,27,5,42,127,1855973856
779,20,Ticks_Linear_8,28,1,48,33,1856015472
779,20,Ticks_Linear_8,29,1,48,30,1856757580
779,20,Ticks_Linear_8,30,5,42,127,1856764136
779,20,Ticks_Linear_8,31,1,48,24,1857485864
779,20,Ticks_Linear_8,32,5,42,127,1857553900
779,20,Ticks_Linear_8,33,1,48,24,1858302068
779,20,Ticks_Linear_8,34,5,42,127,1858344412
779,20,Ticks_Linear_8,35,1,48,27,1859077892
779,20,Ticks_Linear_8,36,5,42,127,1859133804
779,20,Ticks_Linear_8,37,5,42,127,1859924324
779,20,Ticks_Linear_8,38,1,48,25,1859929536
779,20,Ticks_Linear_8,39,5,42,127,1860703676
779,20,Ticks_Linear_8,40,1,48,26,1860753252
779,20,Ticks_Linear_8,41,5,42,127,1861483780
779,20,Ticks_Linear_8,42,1,48,31,1861549748
779,20,Ticks_Linear_8,43,1,48,24,1862261984
779,20,Ticks_Linear_8,44,5,42,127,1862264100
779,20,Ticks_Linear_8,45,1,48,23,1862997728
779,20,Ticks_Linear_8,46,5,42,127,1863043380
779,20,Ticks_Linear_8,47,1,48,23,1863781736
779,20,Ticks_Linear_8,48,5,42,127,1863823808
779,20,Ticks_Linear_8,49,1,48,21,1864536300
779,20,Ticks_Linear_8,50,5,42,127,1864593652
779,20,Ticks_Linear_8,51,1,48,19,1865347180
779,20,Ticks_Linear_8,52,5,42,127,1865363796
779,20,Ticks_Linear_8,53,5,42,127,1866133868
779,20,Ticks_Linear_8,54,1,48,19,1866163800
779,20,Ticks_Linear_8,55,5,42,127,1866903864
779,20,Ticks_Linear_8,56,1,48,20,1866943608
779,20,Ticks_Linear_8,57,5,42,127,1867673932
779,20,Ticks_Linear_8,58,1,48,16,1867682668
779,20,Ticks_Linear_8,59,5,42,127,1868433740
779,20,Ticks_Linear_8,60,1,48,23,1868463524
779,20,Ticks_Linear_8,61,5,42,127,1869193624
779,20,Ticks_Linear_8,62,1,48,28,1869244824
779,20,Ticks_Linear_8,63,5,42,127,1869954680
779,20,Ticks_Linear_8,64,1,48,28,1870036384
779,20,Ticks_Linear_8,65,5,42,127,1870723552
779,20,Ticks_Linear_8,66,1,48,28,1870873476
779,20,Ticks_Linear_8,67,5,42,127,1871484556
779,20,Ticks_Linear_8,68,1,48,18,1871670872
779,20,Ticks_Linear_8,69,5,42,127,1872233732
779,20,Ticks_Linear_8,70,1,48,19,1872656420
779,20,Ticks_Linear_8,71,5,42,127,1872984704
779,20,Ticks_Linear_8,72,1,48,18,1873501908
779,20,Ticks_Linear_8,73,5,42,127,1873744288
779,20,Ticks_Linear_8,74,1,48,22,1874441548
779,20,Ticks_Linear_8,75,5,42,127,1874493780
779,20,Ticks_Linear_8,76,5,42,127,1875244384
779,20,Ticks_Linear_8,77,1,48,22,1875267568
779,20,Ticks_Linear_8,78,5,42,127,1875983824
779,20,Ticks_Linear_8,79,1,48,21,1876040552
779,20,Ticks_Linear_8,80,5,42,127,1876724084
779,20,Ticks_Linear_8,81,1,48,26,1876769812
779,20,Ticks_Linear_8,82,5,42,127,1877464420
779,20,Ticks_Linear_8,83,1,48,24,1877531716
779,20,Ticks_Linear_8,84,1,48,26,1878198420
779,20,Ticks_Linear_8,85,5,42,127,1878213964
779,20,Ticks_Linear_8,86,5,42,127,1878954532
779,20,Ticks_Linear_8,87,1,48,24,1878959300
779,20,Ticks_Linear_8,88,1,48,21,1879672636
779,20,Ticks_Linear_8,89,5,42,127,1879683384
779,20,Ticks_Linear_8,90,1,48,25,1880404064
779,20,Ticks_Linear_8,91,5,42,127,1880413536
779,20,Ticks_Linear_8,92,5,42,127,1881143620
779,20,Ticks_Linear_8,93,1,48,22,1881156248
779,20,Ticks_Linear_8,94,1,48,25,1881800856
779,20,Ticks_Linear_8,95,5,42,127,1881873768
779,20,Ticks_Linear_8,96,1,48,22,1882518804
779,20,Ticks_Linear_8,97,5,42,127,1882603844
779,20,Ticks_Linear_8,98,1,48,25,1883272924
779,20,Ticks_Linear_8,99,5,42,127,1883323816
779,20,Ticks_Linear_8,100,1,48,26,1884019300
779,20,Ticks_Linear_8,101,5,42,127,1884043632
779,20,Ticks_Linear_8,102,1,48,21,1884718376
779,20,Ticks_Linear_8,103,5,42,127,1884763428
779,20,Ticks_Linear_8,104,1,48,26,1885470020
779,20,Ticks_Linear_8,105,5,42,127,1885484444
779,20,Ticks_Linear_8,106,5,42,127,1886204268
779,20,Ticks_Linear_8,107,1,48,30,1886241304
779,20,Ticks_Linear_8,108,5,42,127,1886914052
779,20,Ticks_Linear_8,109,1,48,25,1886966668
779,20,Ticks_Linear_8,110,5,42,127,1887623612
779,20,Ticks_Linear_8,111,1,48,21,1887631372
779,20,Ticks_Linear_8,112,1,48,21,1888285316
779,20,Ticks_Linear_8,113,5,42,127,1888334188
779,20,Ticks_Linear_8,114,5,42,127,1889043904
779,20,Ticks_Linear_8,115,1,48,28,1889064620
779,20,Ticks_Linear_8,116,1,48,29,1889729820
779,20,Ticks_Linear_8,117,5,42,127,1889753456
779,20,Ticks_Linear_8,118,1,48,33,1890400264
779,20,Ticks_Linear_8,119,5,42,127,1890453876
779,20,Ticks_Linear_8,120,1,48,26,1891143976
779,20,Ticks_Linear_8,121,5,42,127,1891154200
779,20,Ticks_Linear_8,122,5,42,127,1891853580
779,20,Ticks_Linear_8,123,1,48,26,1891873476
779,20,Ticks_Linear_8,124,1,48,29,1892530660
779,20,Ticks_Linear_8,125,5,42,127,1892554220
779,20,Ticks_Linear_8,126,1,48,28,1893226044
779,20,Ticks_Linear_8,127,5,42,127,1893253420
779,20,Ticks_Linear_8,128,1,48,21,1893874948
779,20,Ticks_Linear_8,129,5,42,127,1893943660
779,20,Ticks_Linear_8,130,5,42,127,1894633828
779,20,Ticks_Linear_8,131,1,48,27,1894662268
779,20,Ticks_Linear_8,132,5,42,127,1895324216
779,20,Ticks_Linear_8,133,1,48,23,1895364108
779,20,Ticks_Linear_8,134,5,42,127,1896014204
779,20,Ticks_Linear_8,135,1,48,29,1896061056
779,20,Ticks_Linear_8,136,5,42,127,1896704368
779,20,Ticks_Linear_8,137,1,48,27,1896783276
779,20,Ticks_Linear_8,138,5,42,127,1897384272
779,20,Ticks_Linear_8,139,1,48,24,1897418844
779,20,Ticks_Linear_8,140,1,48,28,1898015424
779,20,Ticks_Linear_8,141,5,42,127,1898064220
779,20,Ticks_Linear_8,142,1,48,32,1898654896
779,20,Ticks_Linear_8,143,5,42,127,1898744124
779,20,Ticks_Linear_8,144,1,48,25,1899341800
779,20,Ticks_Linear_8,145,5,42,127,1899424104
779,20,Ticks_Linear_8,146,1,48,31,1899984272
779,20,Ticks_Linear_8,147,5,42,127,1900104044
779,20,Ticks_Linear_8,148,1,48,28,1900678924
779,20,Ticks_Linear_8,149,5,42,127,1900774060
779,20,Ticks_Linear_8,150,1,48,30,1901413404
779,20,Ticks_Linear_8,151,5,42,127,1901443468
779,20,Ticks_Linear_8,152,5,42,127,1902114168
779,20,Ticks_Linear_8,153,1,48,25,1902144848
779,20,Ticks_Linear_8,154,5,42,127,1902784036
779,20,Ticks_Linear_8,155,1,48,34,1902792328
779,20,Ticks_Linear_8,156,1,48,23,1903409868
779,20,Ticks_Linear_8,157,5,42,127,1903453576
779,20,Ticks_Linear_8,158,1,48,32,1904106556
779,20,Ticks_Linear_8,159,5,42,127,1904114008
779,20,Ticks_Linear_8,160,5,42,127,1904773452
779,20,Ticks_Linear_8,161,1,48,30,1904778964
779,20,Ticks_Linear_8,162,5,42,127,1905434084
779,20,Ticks_Linear_8,163,1,48,24,1905447908
779,20,Ticks_Linear_8,164,1,48,29,1906048236
779,20,Ticks_Linear_8,165,5,42,127,1906093384
779,20,Ticks_Linear_8,166,1,48,29,1906719372
779,20,Ticks_Linear_8,167,5,42,127,1906753940
779,20,Ticks_Linear_8,168,5,42,127,1907404124
779,20,Ticks_Linear_8,169,1,48,30,1907438244
779,20,Ticks_Linear_8,170,5,42,127,1908054348
779,20,Ticks_Linear_8,171,1,48,30,1908078284
779,20,Ticks_Linear_8,172,1,48,23,1908695484
779,20,Ticks_Linear_8,173,5,42,127,1908703540
779,20,Ticks_Linear_8,174,1,48,24,1909346684
779,20,Ticks_Linear_8,175,5,42,127,1909353988
779,20,Ticks_Linear_8,176,1,48,34,1909975812
779,20,Ticks_Linear_8,177,5,42,127,1910004088
779,20,Ticks_Linear_8,178,1,48,30,1910613016
779,20,Ticks_Linear_8,179,5,42,127,1910644052
779,20,Ticks_Linear_8,180,5,42,127,1911284052
779,20,Ticks_Linear_8,181,1,48,29,1911288812
779,20,Ticks_Linear_8,182,5,42,127,1911924088
779,20,Ticks_Linear_8,183,1,48,34,1911979948
779,20,Ticks_Linear_8,184,1,48,28,1912564524
779,20,Ticks_Linear_8,185,5,42,127,1912565792
779,20,Ticks_Linear_8,186,1,48,30,1913188040
779,20,Ticks_Linear_8,187,5,42,127,1913204112
779,20,Ticks_Linear_8,188,1,48,30,1913777336
779,20,Ticks_Linear_8,189,5,42,127,1913833844
779,20,Ticks_Linear_8,190,1,48,29,1914423668
779,20,Ticks_Linear_8,191,5,42,127,1914463696
779,20,Ticks_Linear_8,192,1,48,26,1915026428
779,20,Ticks_Linear_8,193,5,42,127,1915094472
779,20,Ticks_Linear_8,194,1,48,28,1915666624
779,20,Ticks_Linear_8,195,5,42,127,1915724176
779,20,Ticks_Linear_8,196,1,48,34,1916336864
779,20,Ticks_Linear_8,197,5,42,127,1916353908
779,20,Ticks_Linear_8,198,1,48,34,1916927328
779,20,Ticks_Linear_8,199,5,42,127,1916973648
779,20,Ticks_Linear_8,200,1,48,38,1917583796
779,20,Ticks_Linear_8,201,5,42,127,1917593944
779,20,Ticks_Linear_8,202,1,48,33,1918178820
779,20,Ticks_Linear_8,203,5,42,127,1918213684
779,20,Ticks_Linear_8,204,1,48,37,1918786060
779,20,Ticks_Linear_8,205,5,42,127,1918834032
779,20,Ticks_Linear_8,206,1,48,36,1919420352
779,20,Ticks_Linear_8,207,5,42,127,1919453576
779,20,Ticks_Linear_8,208,1,48,30,1920022812
779,20,Ticks_Linear_8,209,5,42,127,1920063812
779,20,Ticks_Linear_8,210,1,48,31,1920611164
779,20,Ticks_Linear_8,211,5,42,127,1920674068
779,20,Ticks_Linear_8,212,1,48,32,1921231828
779,20,Ticks_Linear_8,213,5,42,127,1921283628
779,20,Ticks_Linear_8,214,1,48,33,1921859668
779,20,Ticks_Linear_8,215,5,42,127,1921893860
779,20,Ticks_Linear_8,216,1,48,37,1922500180
779,20,Ticks_Linear_8,217,5,42,127,1922503972
779,20,Ticks_Linear_8,218,5,42,127,1923104100
779,20,Ticks_Linear_8,219,1,48,28,1923153580
779,20,Ticks_Linear_8,220,1,48,29,1923699452
779,20,Ticks_Linear_8,221,5,42,127,1923704216
779,20,Ticks_Linear_8,222,1,48,29,1924242096
779,20,Ticks_Linear_8,223,5,42,127,1924304140
779,20,Ticks_Linear_8,224,1,48,28,1924871356
779,20,Ticks_Linear_8,225,5,42,127,1924904564
779,20,Ticks_Linear_8,226,1,48,32,1925431100
779,20,Ticks_Linear_8,227,5,42,127,1925504540
779,20,Ticks_Linear_8,228,1,48,33,1926006972
779,20,Ticks_Linear_8,229,5,42,127,1926094128
779,20,Ticks_Linear_8,230,5,42,127,1926684000
779,20,Ticks_Linear_8,231,1,48,27,1926733332
779,20,Ticks_Linear_8,232,1,48,28,1927244760
779,20,Ticks_Linear_8,233,5,42,127,1927273712
779,20,Ticks_Linear_8,234,1,48,25,1927735848
779,20,Ticks_Linear_8,235,5,42,127,1927863660
779,20,Ticks_Linear_8,236,1,48,29,1928379128
779,20,Ticks_Linear_8,237,5,42,127,1928453540
779,20,Ticks_Linear_8,238,1,48,30,1928998576
779,20,Ticks_Linear_8,239,5,42,127,1929034040
779,20,Ticks_Linear_8,240,1,48,31,1929591580
779,20,Ticks_Linear_8,241,5,42,127,1929613672
779,20,Ticks_Linear_8,242,1,48,26,1930088964
779,20,Ticks_Linear_8,243,5,42,127,1930194308
779,20,Ticks_Linear_8,244,1,48,34,1930662756
779,20,Ticks_Linear_8,245,5,42,127,1930773836
779,20,Ticks_Linear_8,246,1,48,35,1931275008
779,20,Ticks_Linear_8,247,5,42,127,1931353532
779,20,Ticks_Linear_8,248,1,48,32,1931895428
779,20,Ticks_Linear_8,249,5,42,127,1931923728
779,20,Ticks_Linear_8,250,5,42,127,1932494348
779,20,Ticks_Linear_8,251,1,48,33,1932503012
779,20,Ticks_Linear_8,252,1,48,31,1933058624
779,20,Ticks_Linear_8,253,5,42,127,1933063540
779,20,Ticks_Linear_8,254,1,48,33,1933596444
779,20,Ticks_Linear_8,255,5,42,127,1933633932
779,20,Ticks_Linear_8,256,1,48,34,1934194848
779,20,Ticks_Linear_8,257,5,42,127,1934204396
779,20,Ticks_Linear_8,258,5,42,127,1934764492
779,20,Ticks_Linear_8,259,1,48,36,1934773904
779,20,Ticks_Linear_8,260,5,42,127,1935323504
779,20,Ticks_Linear_8,261,1,48,27,1935341908
779,20,Ticks_Linear_8,262,5,42,127,1935883640
779,20,Ticks_Linear_8,263,1,48,29,1935907952
779,20,Ticks_Linear_8,264,5,42,127,1936443624
779,20,Ticks_Linear_8,265,1,48,32,1936506796
779,20,Ticks_Linear_8,266,5,42,127,1937003832
779,20,Ticks_Linear_8,267,1,48,32,1937087852
779,20,Ticks_Linear_8,268,5,42,127,1937553732
779,20,Ticks_Linear_8,269,1,48,32,1937611656
779,20,Ticks_Linear_8,270,5,42,127,1938103532
779,20,Ticks_Linear_8,271,1,48,30,1938117884
779,20,Ticks_Linear_8,272,1,48,29,1938567684
779,20,Ticks_Linear_8,273,5,42,127,1938653548
779,20,Ticks_Linear_8,274,1,48,28,1939126020
779,20,Ticks_Linear_8,275,5,42,127,1939203496
779,20,Ticks_Linear_8,276,1,48,33,1939727492
779,20,Ticks_Linear_8,277,5,42,127,1939754416
779,20,Ticks_Linear_8,278,5,42,127,1940294040
779,20,Ticks_Linear_8,279,1,48,34,1940340216
779,20,Ticks_Linear_8,280,5,42,127,1940833580
779,20,Ticks_Linear_8,281,1,48,35,1940910412
779,20,Ticks_Linear_8,282,5,42,127,1941374316
779,20,Ticks_Linear_8,283,1,48,35,1941497136
779,20,Ticks_Linear_8,284,5,42,127,1941914032
779,20,Ticks_Linear_8,285,1,48,31,1942072920
779,20,Ticks_Linear_8,286,5,42,127,1942453500
779,20,Ticks_Linear_8,287,1,48,26,1942688492
779,20,Ticks_Linear_8,288,5,42,127,1942984276
779,20,Ticks_Linear_8,289,1,48,29,1943417796
779,20,Ticks_Linear_8,290,5,42,127,1943513496
779,20,Ticks_Linear_8,291,5,42,127,1944043908
779,20,Ticks_Linear_8,292,1,48,31,1944058184
779,20,Ticks_Linear_8,293,5,42,127,1944574236
779,20,Ticks_Linear_8,294,1,48,31,1944595252
779,20,Ticks_Linear_8,295,5,42,127,1945103592
779,20,Ticks_Linear_8,296,1,48,30,1945246028
779,20,Ticks_Linear_8,297,5,42,127,1945623960
779,20,Ticks_Linear_8,298,1,48,23,1946019756
779,20,Ticks_Linear_8,299,5,42,127,1946144104
779,20,Ticks_Linear_8,300,5,42,127,1946664268
779,20,Ticks_Linear_8,301,1,48,28,1946691272
779,20,Ticks_Linear_8,302,5,42,127,1947183440
779,20,Ticks_Linear_8,303,1,48,33,1947449060
779,20,Ticks_Linear_8,304,5,42,127,1947703660
779,20,Ticks_Linear_8,305,5,42,127,1948213492
779,20,Ticks_Linear_8,306,1,48,23,1948293020
779,20,Ticks_Linear_8,307,5,42,127,1948723676
779,20,Ticks_Linear_8,308,1,48,27,1948795764
779,20,Ticks_Linear_8,309,5,42,127,1949233484
779,20,Ticks_Linear_8,310,1,48,21,1949257496
779,20,Ticks_Linear_8,311,5,42,127,1949743444
779,20,Ticks_Linear_8,312,1,48,29,1949811632
779,20,Ticks_Linear_8,313,5,42,127,1950253404
779,20,Ticks_Linear_8,314,1,48,20,1950305576
779,20,Ticks_Linear_8,315,5,42,127,1950754300
779,20,Ticks_Linear_8,316,1,48,21,1950763192
779,20,Ticks_Linear_8,317,1,48,27,1951250276
779,20,Ticks_Linear_8,318,5,42,127,1951254292
779,20,Ticks_Linear_8,319,5,42,127,1951753548
779,20,Ticks_Linear_8,320,1,48,26,1951757716
779,20,Ticks_Linear_8,321,1,48,24,1952231864
779,20,Ticks_Linear_8,322,5,42,127,1952254292
779,20,Ticks_Linear_8,323,1,48,23,1952657044
779,20,Ticks_Linear_8,324,5,42,127,1952754204
779,20,Ticks_Linear_8,325,1,48,28,1953203856
779,20,Ticks_Linear_8,326,5,42,127,1953243508
779,20,Ticks_Linear_8,327,1,48,26,1953697336
779,20,Ticks_Linear_8,328,5,42,127,1953734148
779,20,Ticks_Linear_8,329,1,48,28,1954214188
779,20,Ticks_Linear_8,330,5,42,127,1954223436
779,20,Ticks_Linear_8,331,5,42,127,1954714080
779,20,Ticks_Linear_8,332,1,48,29,1954736228
779,20,Ticks_Linear_8,333,1,48,26,1955183760
779,20,Ticks_Linear_8,334,5,42,127,1955203516
779,20,Ticks_Linear_8,0,9999,9999,9999,1844631648
779,20,Ticks_Linear_8,1,9999,9999,9999,1845451888
779,20,Ticks_Linear_8,2,9999,9999,9999,1846272072
779,20,Ticks_Linear_8,3,9999,9999,9999,1847101528
779,20,Ticks_Linear_8,4,9999,9999,9999,1847921768
779,20,Ticks_Linear_8,5,9999,9999,9999,1848731712
779,20,Ticks_Linear_8,6,9999,9999,9999,1849541696
779,20,Ticks_Linear_8,7,9999,9999,9999,1850351680
779,20,Ticks_Linear_8,8,9999,9999,9999,1851161652
779,20,Ticks_Linear_8,9,9999,9999,9999,1851971712
779,20,Ticks_Linear_8,10,9999,9999,9999,1852771436
779,20,Ticks_Linear_8,11,9999,9999,9999,1853571160
779,20,Ticks_Linear_8,12,9999,9999,9999,1854371956
779,20,Ticks_Linear_8,13,9999,9999,9999,1855171676
779,20,Ticks_Linear_8,14,9999,9999,9999,1855971408
779,20,Ticks_Linear_8,15,9999,9999,9999,1856761912
779,20,Ticks_Linear_8,16,9999,9999,9999,1857551452
779,20,Ticks_Linear_8,17,9999,9999,9999,1858341964
779,20,Ticks_Linear_8,18,9999,9999,9999,1859131504
779,20,Ticks_Linear_8,19,9999,9999,9999,1859922024
779,20,Ticks_Linear_8,20,9999,9999,9999,1860701304
779,20,Ticks_Linear_8,21,9999,9999,9999,1861481556
779,20,Ticks_Linear_8,22,9999,9999,9999,1862261840
779,20,Ticks_Linear_8,23,9999,9999,9999,1863041084
779,20,Ticks_Linear_8,24,9999,9999,9999,1863821432
779,20,Ticks_Linear_8,25,9999,9999,9999,1864591428
779,20,Ticks_Linear_8,26,9999,9999,9999,1865361496
779,20,Ticks_Linear_8,27,9999,9999,9999,1866131568
779,20,Ticks_Linear_8,28,9999,9999,9999,1866901564
779,20,Ticks_Linear_8,29,9999,9999,9999,1867671628
779,20,Ticks_Linear_8,30,9999,9999,9999,1868431440
779,20,Ticks_Linear_8,31,9999,9999,9999,1869191252
779,20,Ticks_Linear_8,32,9999,9999,9999,1869952084
779,20,Ticks_Linear_8,33,9999,9999,9999,1870721104
779,20,Ticks_Linear_8,34,9999,9999,9999,1871481960
779,20,Ticks_Linear_8,35,9999,9999,9999,1872231508
779,20,Ticks_Linear_8,36,9999,9999,9999,1872982108
779,20,Ticks_Linear_8,37,9999,9999,9999,1873741916
779,20,Ticks_Linear_8,38,9999,9999,9999,1874491480
779,20,Ticks_Linear_8,39,9999,9999,9999,1875242084
779,20,Ticks_Linear_8,40,9999,9999,9999,1875981376
779,20,Ticks_Linear_8,41,9999,9999,9999,1876721784
779,20,Ticks_Linear_8,42,9999,9999,9999,1877462120
779,20,Ticks_Linear_8,43,9999,9999,9999,1878211664
779,20,Ticks_Linear_8,44,9999,9999,9999,1878952008
779,20,Ticks_Linear_8,45,9999,9999,9999,1879681084
779,20,Ticks_Linear_8,46,9999,9999,9999,1880411236
779,20,Ticks_Linear_8,47,9999,9999,9999,1881141320
779,20,Ticks_Linear_8,48,9999,9999,9999,1881871468
779,20,Ticks_Linear_8,49,9999,9999,9999,1882601544
779,20,Ticks_Linear_8,50,9999,9999,9999,1883321440
779,20,Ticks_Linear_8,51,9999,9999,9999,1884041336
779,20,Ticks_Linear_8,52,9999,9999,9999,1884761204
779,20,Ticks_Linear_8,53,9999,9999,9999,1885482068
779,20,Ticks_Linear_8,54,9999,9999,9999,1886201968
779,20,Ticks_Linear_8,55,9999,9999,9999,1886911604
779,20,Ticks_Linear_8,56,9999,9999,9999,1887621212
779,20,Ticks_Linear_8,57,9999,9999,9999,1888331888
779,20,Ticks_Linear_8,58,9999,9999,9999,1889041528
779,20,Ticks_Linear_8,59,9999,9999,9999,1889751156
779,20,Ticks_Linear_8,60,9999,9999,9999,1890451580
779,20,Ticks_Linear_8,61,9999,9999,9999,1891151976
779,20,Ticks_Linear_8,62,9999,9999,9999,1891851356
779,20,Ticks_Linear_8,63,9999,9999,9999,1892551772
779,20,Ticks_Linear_8,64,9999,9999,9999,1893251196
779,20,Ticks_Linear_8,65,9999,9999,9999,1893941360
779,20,Ticks_Linear_8,66,9999,9999,9999,1894631528
779,20,Ticks_Linear_8,67,9999,9999,9999,1895321692
779,20,Ticks_Linear_8,68,9999,9999,9999,1896011832
779,20,Ticks_Linear_8,69,9999,9999,9999,1896702068
779,20,Ticks_Linear_8,70,9999,9999,9999,1897381972
779,20,Ticks_Linear_8,71,9999,9999,9999,1898061920
779,20,Ticks_Linear_8,72,9999,9999,9999,1898741824
779,20,Ticks_Linear_8,73,9999,9999,9999,1899421804
779,20,Ticks_Linear_8,74,9999,9999,9999,1900101744
779,20,Ticks_Linear_8,75,9999,9999,9999,1900771404
779,20,Ticks_Linear_8,76,9999,9999,9999,1901441096
779,20,Ticks_Linear_8,77,9999,9999,9999,1902111868
779,20,Ticks_Linear_8,78,9999,9999,9999,1902781512
779,20,Ticks_Linear_8,79,9999,9999,9999,1903451204
779,20,Ticks_Linear_8,80,9999,9999,9999,1904111712
779,20,Ticks_Linear_8,81,9999,9999,9999,1904771152
779,20,Ticks_Linear_8,82,9999,9999,9999,1905431636
779,20,Ticks_Linear_8,83,9999,9999,9999,1906091088
779,20,Ticks_Linear_8,84,9999,9999,9999,1906751568
779,20,Ticks_Linear_8,85,9999,9999,9999,1907401824
779,20,Ticks_Linear_8,86,9999,9999,9999,1908052048
779,20,Ticks_Linear_8,87,9999,9999,9999,1908701240
779,20,Ticks_Linear_8,88,9999,9999,9999,1909351540
779,20,Ticks_Linear_8,89,9999,9999,9999,1910001788
779,20,Ticks_Linear_8,90,9999,9999,9999,1910641756
779,20,Ticks_Linear_8,91,9999,9999,9999,1911281752
779,20,Ticks_Linear_8,92,9999,9999,9999,1911921792
779,20,Ticks_Linear_8,93,9999,9999,9999,1912561776
779,20,Ticks_Linear_8,94,9999,9999,9999,1913201736
779,20,Ticks_Linear_8,95,9999,9999,9999,1913831544
779,20,Ticks_Linear_8,96,9999,9999,9999,1914461248
779,20,Ticks_Linear_8,97,9999,9999,9999,1915092024
779,20,Ticks_Linear_8,98,9999,9999,9999,1915721804
779,20,Ticks_Linear_8,99,9999,9999,9999,1916351608
779,20,Ticks_Linear_8,100,9999,9999,9999,1916971128
779,20,Ticks_Linear_8,101,9999,9999,9999,1917591644
779,20,Ticks_Linear_8,102,9999,9999,9999,1918211164
779,20,Ticks_Linear_8,103,9999,9999,9999,1918831732
779,20,Ticks_Linear_8,104,9999,9999,9999,1919451204
779,20,Ticks_Linear_8,105,9999,9999,9999,1920061512
779,20,Ticks_Linear_8,106,9999,9999,9999,1920671844
779,20,Ticks_Linear_8,107,9999,9999,9999,1921281104
779,20,Ticks_Linear_8,108,9999,9999,9999,1921891412
779,20,Ticks_Linear_8,109,9999,9999,9999,1922501748
779,20,Ticks_Linear_8,110,9999,9999,9999,1923101800
779,20,Ticks_Linear_8,111,9999,9999,9999,1923701844
779,20,Ticks_Linear_8,112,9999,9999,9999,1924301916
779,20,Ticks_Linear_8,113,9999,9999,9999,1924901968
779,20,Ticks_Linear_8,114,9999,9999,9999,1925502016
779,20,Ticks_Linear_8,115,9999,9999,9999,1926091832
779,20,Ticks_Linear_8,116,9999,9999,9999,1926681704
779,20,Ticks_Linear_8,117,9999,9999,9999,1927271484
779,20,Ticks_Linear_8,118,9999,9999,9999,1927861360
779,20,Ticks_Linear_8,119,9999,9999,9999,1928451164
779,20,Ticks_Linear_8,120,9999,9999,9999,1929031744
779,20,Ticks_Linear_8,121,9999,9999,9999,1929611372
779,20,Ticks_Linear_8,122,9999,9999,9999,1930191932
779,20,Ticks_Linear_8,123,9999,9999,9999,1930771540
779,20,Ticks_Linear_8,124,9999,9999,9999,1931351160
779,20,Ticks_Linear_8,125,9999,9999,9999,1931921504
779,20,Ticks_Linear_8,126,9999,9999,9999,1932491900
779,20,Ticks_Linear_8,127,9999,9999,9999,1933061240
779,20,Ticks_Linear_8,128,9999,9999,9999,1933631556
779,20,Ticks_Linear_8,129,9999,9999,9999,1934201948
779,20,Ticks_Linear_8,130,9999,9999,9999,1934762040
779,20,Ticks_Linear_8,131,9999,9999,9999,1935321204
779,20,Ticks_Linear_8,132,9999,9999,9999,1935881340
779,20,Ticks_Linear_8,133,9999,9999,9999,1936441400
779,20,Ticks_Linear_8,134,9999,9999,9999,1937001532
779,20,Ticks_Linear_8,135,9999,9999,9999,1937551432
779,20,Ticks_Linear_8,136,9999,9999,9999,1938101304
779,20,Ticks_Linear_8,137,9999,9999,9999,1938651248
779,20,Ticks_Linear_8,138,9999,9999,9999,1939201124
779,20,Ticks_Linear_8,139,9999,9999,9999,1939752044
779,20,Ticks_Linear_8,140,9999,9999,9999,1940291668
779,20,Ticks_Linear_8,141,9999,9999,9999,1940831356
779,20,Ticks_Linear_8,142,9999,9999,9999,1941372016
779,20,Ticks_Linear_8,143,9999,9999,9999,1941911660
779,20,Ticks_Linear_8,144,9999,9999,9999,1942451276
779,20,Ticks_Linear_8,145,9999,9999,9999,1942981752
779,20,Ticks_Linear_8,146,9999,9999,9999,1943511124
779,20,Ticks_Linear_8,147,9999,9999,9999,1944041532
779,20,Ticks_Linear_8,148,9999,9999,9999,1944572008
779,20,Ticks_Linear_8,149,9999,9999,9999,1945101368
779,20,Ticks_Linear_8,150,9999,9999,9999,1945621588
779,20,Ticks_Linear_8,151,9999,9999,9999,1946141804
779,20,Ticks_Linear_8,152,9999,9999,9999,1946661968
779,20,Ticks_Linear_8,153,9999,9999,9999,1947181140
779,20,Ticks_Linear_8,154,9999,9999,9999,1947701360
779,20,Ticks_Linear_8,155,9999,9999,9999,1948211268
779,20,Ticks_Linear_8,156,9999,9999,9999,1948721228
779,20,Ticks_Linear_8,157,9999,9999,9999,1949231188
779,20,Ticks_Linear_8,158,9999,9999,9999,1949741144
779,20,Ticks_Linear_8,159,9999,9999,9999,1950251104
779,20,Ticks_Linear_8,160,9999,9999,9999,1950751852
779,20,Ticks_Linear_8,161,9999,9999,9999,1951251544
779,20,Ticks_Linear_8,162,9999,9999,9999,1951751252
779,20,Ticks_Linear_8,163,9999,9999,9999,1952251992
779,20,Ticks_Linear_8,164,9999,9999,9999,1952751680
779,20,Ticks_Linear_8,165,9999,9999,9999,1953241212
779,20,Ticks_Linear_8,166,9999,9999,9999,1953731700
779,20,Ticks_Linear_8,167,9999,9999,9999,1954221140
779,20,Ticks_Linear_8,168,9999,9999,9999,1954711632
779,20,Ticks_Linear_8,169,9999,9999,9999,1955201120
7710,21,Ticks_Linear_5,0,5,42,127,1965389072
7710,21,Ticks_Linear_5,1,5,42,127,1965869400
7710,21,Ticks_Linear_5,2,5,42,127,1966358860
7710,21,Ticks_Linear_5,3,1,48,44,1966364148
7710,21,Ticks_Linear_5,4,5,42,127,1966839164
7710,21,Ticks_Linear_5,5,1,48,27,1966853364
7710,21,Ticks_Linear_5,6,5,42,127,1967319316
7710,21,Ticks_Linear_5,7,1,48,28,1967342428
7710,21,Ticks_Linear_5,8,5,42,127,1967808908
7710,21,Ticks_Linear_5,9,1,48,36,1967809872
7710,21,Ticks_Linear_5,10,1,48,20,1968250868
7710,21,Ticks_Linear_5,11,5,42,127,1968299388
7710,21,Ticks_Linear_5,12,1,48,26,1968759484
7710,21,Ticks_Linear_5,13,5,42,127,1968788832
7710,21,Ticks_Linear_5,14,1,48,28,1969221812
7710,21,Ticks_Linear_5,15,5,42,127,1969279440
7710,21,Ticks_Linear_5,16,1,48,30,1969738288
7710,21,Ticks_Linear_5,17,5,42,127,1969768956
7710,21,Ticks_Linear_5,18,1,48,35,1970223000
7710,21,Ticks_Linear_5,19,5,42,127,1970268432
7710,21,Ticks_Linear_5,20,1,48,35,1970705248
7710,21,Ticks_Linear_5,21,5,42,127,1970769328
7710,21,Ticks_Linear_5,22,1,48,30,1971189680
7710,21,Ticks_Linear_5,23,5,42,127,1971268952
7710,21,Ticks_Linear_5,24,1,48,32,1971714756
7710,21,Ticks_Linear_5,25,5,42,127,1971768948
7710,21,Ticks_Linear_5,26,1,48,30,1972223520
7710,21,Ticks_Linear_5,27,5,42,127,1972269472
7710,21,Ticks_Linear_5,28,1,48,34,1972743296
7710,21,Ticks_Linear_5,29,5,42,127,1972788868
7710,21,Ticks_Linear_5,30,1,48,34,1973230864
7710,21,Ticks_Linear_5,31,5,42,127,1973298676
7710,21,Ticks_Linear_5,32,1,48,37,1973751232
7710,21,Ticks_Linear_5,33,5,42,127,1973808412
7710,21,Ticks_Linear_5,34,1,48,36,1974271896
7710,21,Ticks_Linear_5,35,5,42,127,1974318596
7710,21,Ticks_Linear_5,36,1,48,37,1974798112
7710,21,Ticks_Linear_5,37,5,42,127,1974829304
7710,21,Ticks_Linear_5,38,1,48,35,1975327468
7710,21,Ticks_Linear_5,39,5,42,127,1975358808
7710,21,Ticks_Linear_5,40,1,48,28,1975785892
7710,21,Ticks_Linear_5,41,5,42,127,1975879836
7710,21,Ticks_Linear_5,42,1,48,34,1976322292
7710,21,Ticks_Linear_5,43,5,42,127,1976399168
7710,21,Ticks_Linear_5,44,1,48,37,1976887748
7710,21,Ticks_Linear_5,45,5,42,127,1976919536
7710,21,Ticks_Linear_5,46,1,48,29,1977399504
7710,21,Ticks_Linear_5,47,5,42,127,1977438632
7710,21,Ticks_Linear_5,48,1,48,36,1977949896
7710,21,Ticks_Linear_5,49,5,42,127,1977968960
7710,21,Ticks_Linear_5,50,1,48,37,1978498868
7710,21,Ticks_Linear_5,51,5,42,127,1978500056
7710,21,Ticks_Linear_5,52,1,48,37,1978995640
7710,21,Ticks_Linear_5,53,5,42,127,1979028740
7710,21,Ticks_Linear_5,54,1,48,36,1979534612
7710,21,Ticks_Linear_5,55,5,42,127,1979559220
7710,21,Ticks_Linear_5,56,1,48,35,1980086200
7710,21,Ticks_Linear_5,57,5,42,127,1980088652
7710,21,Ticks_Linear_5,58,1,48,34,1980600520
7710,21,Ticks_Linear_5,59,5,42,127,1980629684
7710,21,Ticks_Linear_5,60,1,48,33,1981132264
7710,21,Ticks_Linear_5,61,5,42,127,1981168928
7710,21,Ticks_Linear_5,62,1,48,35,1981685280
7710,21,Ticks_Linear_5,63,5,42,127,1981708544
7710,21,Ticks_Linear_5,64,1,48,28,1982173972
7710,21,Ticks_Linear_5,65,5,42,127,1982249204
7710,21,Ticks_Linear_5,66,1,48,35,1982716652
7710,21,Ticks_Linear_5,67,5,42,127,1982788896
7710,21,Ticks_Linear_5,68,1,48,36,1983281736
7710,21,Ticks_Linear_5,69,5,42,127,1983338844
7710,21,Ticks_Linear_5,70,1,48,35,1983838804
7710,21,Ticks_Linear_5,71,5,42,127,1983888668
7710,21,Ticks_Linear_5,72,1,48,31,1984374892
7710,21,Ticks_Linear_5,73,5,42,127,1984438540
7710,21,Ticks_Linear_5,74,1,48,34,1984920448
7710,21,Ticks_Linear_5,75,5,42,127,1984988788
7710,21,Ticks_Linear_5,76,1,48,36,1985498264
7710,21,Ticks_Linear_5,77,5,42,127,1985538588
7710,21,Ticks_Linear_5,78,1,48,33,1986040564
7710,21,Ticks_Linear_5,79,5,42,127,1986098572
7710,21,Ticks_Linear_5,80,1,48,33,1986622264
7710,21,Ticks_Linear_5,81,5,42,127,1986658632
7710,21,Ticks_Linear_5,82,1,48,39,1987155808
7710,21,Ticks_Linear_5,83,5,42,127,1987218788
7710,21,Ticks_Linear_5,84,1,48,38,1987711456
7710,21,Ticks_Linear_5,85,5,42,127,1987778920
7710,21,Ticks_Linear_5,86,1,48,40,1988272364
7710,21,Ticks_Linear_5,87,5,42,127,1988339204
7710,21,Ticks_Linear_5,88,1,48,35,1988830328
7710,21,Ticks_Linear_5,89,5,42,127,1988909520
7710,21,Ticks_Linear_5,90,1,48,37,1989372936
7710,21,Ticks_Linear_5,91,5,42,127,1989488964
7710,21,Ticks_Linear_5,92,1,48,36,1989974772
7710,21,Ticks_Linear_5,93,5,42,127,1990059544
7710,21,Ticks_Linear_5,94,1,48,38,1990551484
7710,21,Ticks_Linear_5,95,5,42,127,1990628664
7710,21,Ticks_Linear_5,96,1,48,41,1991105776
7710,21,Ticks_Linear_5,97,5,42,127,1991199132
7710,21,Ticks_Linear_5,98,1,48,42,1991666280
7710,21,Ticks_Linear_5,99,5,42,127,1991778724
7710,21,Ticks_Linear_5,100,1,48,39,1992216232
7710,21,Ticks_Linear_5,101,5,42,127,1992359252
7710,21,Ticks_Linear_5,102,1,48,43,1992764464
7710,21,Ticks_Linear_5,103,5,42,127,1992938932
7710,21,Ticks_Linear_5,104,1,48,43,1993315904
7710,21,Ticks_Linear_5,105,5,42,127,1993518460
7710,21,Ticks_Linear_5,106,1,48,37,1993933728
7710,21,Ticks_Linear_5,107,5,42,127,1994099036
7710,21,Ticks_Linear_5,108,1,48,40,1994593236
7710,21,Ticks_Linear_5,109,5,42,127,1994688792
7710,21,Ticks_Linear_5,110,1,48,44,1995219528
7710,21,Ticks_Linear_5,111,5,42,127,1995278656
7710,21,Ticks_Linear_5,112,1,48,42,1995802948
7710,21,Ticks_Linear_5,113,5,42,127,1995868596
7710,21,Ticks_Linear_5,114,1,48,39,1996375436
7710,21,Ticks_Linear_5,115,5,42,127,1996459528
7710,21,Ticks_Linear_5,116,1,48,40,1996929464
7710,21,Ticks_Linear_5,117,5,42,127,1997049380
7710,21,Ticks_Linear_5,118,1,48,41,1997559764
7710,21,Ticks_Linear_5,119,5,42,127,1997649444
7710,21,Ticks_Linear_5,120,1,48,39,1998158316
7710,21,Ticks_Linear_5,121,5,42,127,1998249216
7710,21,Ticks_Linear_5,122,1,48,35,1998701144
7710,21,Ticks_Linear_5,123,5,42,127,1998849548
7710,21,Ticks_Linear_5,124,1,48,38,1999372884
7710,21,Ticks_Linear_5,125,5,42,127,1999448416
7710,21,Ticks_Linear_5,126,1,48,43,2000035188
7710,21,Ticks_Linear_5,127,5,42,127,2000048640
7710,21,Ticks_Linear_5,128,1,48,44,2000627456
7710,21,Ticks_Linear_5,129,5,42,127,2000658944
7710,21,Ticks_Linear_5,130,1,48,43,2001122732
7710,21,Ticks_Linear_5,131,5,42,127,2001269164
7710,21,Ticks_Linear_5,132,1,48,37,2001820836
7710,21,Ticks_Linear_5,133,5,42,127,2001879364
7710,21,Ticks_Linear_5,134,1,48,38,2002414360
7710,21,Ticks_Linear_5,135,5,42,127,2002488700
7710,21,Ticks_Linear_5,136,1,48,36,2003026988
7710,21,Ticks_Linear_5,137,5,42,127,2003099032
7710,21,Ticks_Linear_5,138,1,48,42,2003597572
7710,21,Ticks_Linear_5,139,5,42,127,2003718460
7710,21,Ticks_Linear_5,140,1,48,41,2004203152
7710,21,Ticks_Linear_5,141,5,42,127,2004339176
7710,21,Ticks_Linear_5,142,1,48,41,2004841244
7710,21,Ticks_Linear_5,143,5,42,127,2004958572
7710,21,Ticks_Linear_5,144,1,48,39,2005478168
7710,21,Ticks_Linear_5,145,5,42,127,2005579212
7710,21,Ticks_Linear_5,146,1,48,38,2006058148
7710,21,Ticks_Linear_5,147,5,42,127,2006198608
7710,21,Ticks_Linear_5,148,1,48,38,2006660464
7710,21,Ticks_Linear_5,149,5,42,127,2006829360
7710,21,Ticks_Linear_5,150,1,48,37,2007257968
7710,21,Ticks_Linear_5,151,5,42,127,2007469424
7710,21,Ticks_Linear_5,152,1,48,36,2007862128
7710,21,Ticks_Linear_5,153,5,42,127,2008109312
7710,21,Ticks_Linear_5,154,1,48,37,2008495672
7710,21,Ticks_Linear_5,155,5,42,127,2008749300
7710,21,Ticks_Linear_5,156,1,48,39,2009129652
7710,21,Ticks_Linear_5,157,5,42,127,2009389340
7710,21,Ticks_Linear_5,158,1,48,50,2009742532
7710,21,Ticks_Linear_5,159,5,42,127,2010029400
7710,21,Ticks_Linear_5,160,1,48,30,2010380848
7710,21,Ticks_Linear_5,161,5,42,127,2010669516
7710,21,Ticks_Linear_5,162,1,48,22,2011037316
7710,21,Ticks_Linear_5,163,5,42,127,2011309576
7710,21,Ticks_Linear_5,164,1,48,33,2011690084
7710,21,Ticks_Linear_5,165,5,42,127,2011949468
7710,21,Ticks_Linear_5,166,1,48,34,2012308132
7710,21,Ticks_Linear_5,167,5,42,127,2012589384
7710,21,Ticks_Linear_5,168,1,48,42,2012948320
7710,21,Ticks_Linear_5,169,5,42,127,2013249188
7710,21,Ticks_Linear_5,170,1,48,39,2013640500
7710,21,Ticks_Linear_5,171,5,42,127,2013899212
7710,21,Ticks_Linear_5,172,1,48,35,2014345784
7710,21,Ticks_Linear_5,173,5,42,127,2014549360
7710,21,Ticks_Linear_5,174,1,48,38,2015079216
7710,21,Ticks_Linear_5,175,5,42,127,2015198560
7710,21,Ticks_Linear_5,176,1,48,34,2015756800
7710,21,Ticks_Linear_5,177,5,42,127,2015849008
7710,21,Ticks_Linear_5,178,1,48,34,2016427124
7710,21,Ticks_Linear_5,179,5,42,127,2016509380
7710,21,Ticks_Linear_5,180,1,48,32,2017081384
7710,21,Ticks_Linear_5,181,5,42,127,2017168764
7710,21,Ticks_Linear_5,182,1,48,36,2017725180
7710,21,Ticks_Linear_5,183,5,42,127,2017829308
7710,21,Ticks_Linear_5,184,1,48,35,2018372716
7710,21,Ticks_Linear_5,185,5,42,127,2018488692
7710,21,Ticks_Linear_5,186,1,48,34,2019037044
7710,21,Ticks_Linear_5,187,5,42,127,2019149248
7710,21,Ticks_Linear_5,188,1,48,35,2019721136
7710,21,Ticks_Linear_5,189,5,42,127,2019819040
7710,21,Ticks_Linear_5,190,1,48,30,2020308312
7710,21,Ticks_Linear_5,191,5,42,127,2020488536
7710,21,Ticks_Linear_5,192,1,48,33,2021085032
7710,21,Ticks_Linear_5,193,5,42,127,2021159220
7710,21,Ticks_Linear_5,194,1,48,38,2021780968
7710,21,Ticks_Linear_5,195,5,42,127,2021829088
7710,21,Ticks_Linear_5,196,1,48,39,2022423472
7710,21,Ticks_Linear_5,197,5,42,127,2022498632
7710,21,Ticks_Linear_5,198,1,48,35,2023074620
7710,21,Ticks_Linear_5,199,5,42,127,2023178820
7710,21,Ticks_Linear_5,200,1,48,40,2023737364
7710,21,Ticks_Linear_5,201,5,42,127,2023858648
7710,21,Ticks_Linear_5,202,1,48,36,2024368288
7710,21,Ticks_Linear_5,203,5,42,127,2024538676
7710,21,Ticks_Linear_5,204,1,48,38,2025093412
7710,21,Ticks_Linear_5,205,5,42,127,2025218356
7710,21,Ticks_Linear_5,206,1,48,38,2025702148
7710,21,Ticks_Linear_5,207,5,42,127,2025899456
7710,21,Ticks_Linear_5,208,1,48,35,2026422792
7710,21,Ticks_Linear_5,209,5,42,127,2026588396
7710,21,Ticks_Linear_5,210,1,48,34,2027115244
7710,21,Ticks_Linear_5,211,5,42,127,2027278856
7710,21,Ticks_Linear_5,212,1,48,36,2027785712
7710,21,Ticks_Linear_5,213,5,42,127,2027968872
7710,21,Ticks_Linear_5,214,1,48,38,2028442632
7710,21,Ticks_Linear_5,215,5,42,127,2028659008
7710,21,Ticks_Linear_5,216,1,48,31,2029137048
7710,21,Ticks_Linear_5,217,5,42,127,2029349096
7710,21,Ticks_Linear_5,218,1,48,37,2029862544
7710,21,Ticks_Linear_5,219,5,42,127,2030048844
7710,21,Ticks_Linear_5,220,1,48,33,2030523052
7710,21,Ticks_Linear_5,221,5,42,127,2030748968
7710,21,Ticks_Linear_5,222,1,48,40,2031208556
7710,21,Ticks_Linear_5,223,5,42,127,2031448764
7710,21,Ticks_Linear_5,224,1,48,35,2032044612
7710,21,Ticks_Linear_5,225,5,42,127,2032148960
7710,21,Ticks_Linear_5,226,1,48,40,2032831688
7710,21,Ticks_Linear_5,227,5,42,127,2032849328
7710,21,Ticks_Linear_5,228,1,48,31,2033529836
7710,21,Ticks_Linear_5,229,5,42,127,2033559032
7710,21,Ticks_Linear_5,230,1,48,39,2034227040
7710,21,Ticks_Linear_5,231,5,42,127,2034268792
7710,21,Ticks_Linear_5,232,1,48,29,2034872264
7710,21,Ticks_Linear_5,233,5,42,127,2034979380
7710,21,Ticks_Linear_5,234,1,48,36,2035520844
7710,21,Ticks_Linear_5,235,5,42,127,2035688864
7710,21,Ticks_Linear_5,236,1,48,29,2036272560
7710,21,Ticks_Linear_5,237,5,42,127,2036398428
7710,21,Ticks_Linear_5,238,1,48,35,2037026372
7710,21,Ticks_Linear_5,239,5,42,127,2037119380
7710,21,Ticks_Linear_5,240,1,48,38,2037766648
7710,21,Ticks_Linear_5,241,5,42,127,2037839100
7710,21,Ticks_Linear_5,242,1,48,33,2038420188
7710,21,Ticks_Linear_5,243,5,42,127,2038559128
7710,21,Ticks_Linear_5,244,1,48,35,2039154804
7710,21,Ticks_Linear_5,245,5,42,127,2039278948
7710,21,Ticks_Linear_5,246,1,48,32,2039859948
7710,21,Ticks_Linear_5,247,5,42,127,2039998844
7710,21,Ticks_Linear_5,248,1,48,32,2040618860
7710,21,Ticks_Linear_5,249,5,42,127,2040728920
7710,21,Ticks_Linear_5,250,1,48,33,2041316592
7710,21,Ticks_Linear_5,251,5,42,127,2041459124
7710,21,Ticks_Linear_5,252,1,48,37,2042079244
7710,21,Ticks_Linear_5,253,5,42,127,2042189052
7710,21,Ticks_Linear_5,254,1,48,34,2042791196
7710,21,Ticks_Linear_5,255,5,42,127,2042919428
7710,21,Ticks_Linear_5,256,1,48,29,2043553396
7710,21,Ticks_Linear_5,257,5,42,127,2043649508
7710,21,Ticks_Linear_5,258,1,48,36,2044222868
7710,21,Ticks_Linear_5,259,5,42,127,2044388724
7710,21,Ticks_Linear_5,260,1,48,34,2045017284
7710,21,Ticks_Linear_5,261,5,42,127,2045129060
7710,21,Ticks_Linear_5,262,1,48,30,2045749380
7710,21,Ticks_Linear_5,263,5,42,127,2045869620
7710,21,Ticks_Linear_5,264,1,48,28,2046587000
7710,21,Ticks_Linear_5,265,5,42,127,2046618960
7710,21,Ticks_Linear_5,266,1,48,28,2047248552
7710,21,Ticks_Linear_5,267,5,42,127,2047359504
7710,21,Ticks_Linear_5,268,1,48,31,2048099792
7710,21,Ticks_Linear_5,269,5,42,127,2048108820
7710,21,Ticks_Linear_5,270,1,48,38,2048768984
7710,21,Ticks_Linear_5,271,5,42,127,2048858668
7710,21,Ticks_Linear_5,272,1,48,33,2049546156
7710,21,Ticks_Linear_5,273,5,42,127,2049609188
7710,21,Ticks_Linear_5,274,1,48,36,2050154524
7710,21,Ticks_Linear_5,275,5,42,127,2050358648
7710,21,Ticks_Linear_5,276,1,48,32,2050999956
7710,21,Ticks_Linear_5,277,5,42,127,2051109392
7710,21,Ticks_Linear_5,278,1,48,32,2051813080
7710,21,Ticks_Linear_5,279,5,42,127,2051869068
7710,21,Ticks_Linear_5,280,1,48,31,2052626352
7710,21,Ticks_Linear_5,281,5,42,127,2052628800
7710,21,Ticks_Linear_5,282,1,48,31,2053378464
7710,21,Ticks_Linear_5,283,5,42,127,2053388760
7710,21,Ticks_Linear_5,284,1,48,34,2054092656
7710,21,Ticks_Linear_5,285,5,42,127,2054148348
7710,21,Ticks_Linear_5,286,1,48,38,2054684020
7710,21,Ticks_Linear_5,287,5,42,127,2054909412
7710,21,Ticks_Linear_5,288,1,48,36,2055448252
7710,21,Ticks_Linear_5,289,5,42,127,2055679476
7710,21,Ticks_Linear_5,290,1,48,34,2056378460
7710,21,Ticks_Linear_5,291,5,42,127,2056449560
7710,21,Ticks_Linear_5,292,1,48,33,2057211648
7710,21,Ticks_Linear_5,293,5,42,127,2057218432
7710,21,Ticks_Linear_5,294,1,48,34,2057888412
7710,21,Ticks_Linear_5,295,5,42,127,2057988484
7710,21,Ticks_Linear_5,296,1,48,35,2058604300
7710,21,Ticks_Linear_5,297,5,42,127,2058758552
7710,21,Ticks_Linear_5,298,1,48,28,2059372656
7710,21,Ticks_Linear_5,299,5,42,127,2059538732
7710,21,Ticks_Linear_5,300,1,48,30,2060191420
7710,21,Ticks_Linear_5,301,5,42,127,2060319280
7710,21,Ticks_Linear_5,302,1,48,29,2060913912
7710,21,Ticks_Linear_5,303,5,42,127,2061099460
7710,21,Ticks_Linear_5,304,1,48,27,2061664880
7710,21,Ticks_Linear_5,305,5,42,127,2061878664
7710,21,Ticks_Linear_5,306,1,48,29,2062542892
7710,21,Ticks_Linear_5,307,5,42,127,2062658844
7710,21,Ticks_Linear_5,308,1,48,31,2063363136
7710,21,Ticks_Linear_5,309,5,42,127,2063448400
7710,21,Ticks_Linear_5,310,1,48,30,2064187800
7710,21,Ticks_Linear_5,311,5,42,127,2064238912
7710,21,Ticks_Linear_5,312,1,48,32,2064903940
7710,21,Ticks_Linear_5,313,5,42,127,2065028536
7710,21,Ticks_Linear_5,314,1,48,31,2065681876
7710,21,Ticks_Linear_5,315,5,42,127,2065819120
7710,21,Ticks_Linear_5,316,1,48,35,2066440932
7710,21,Ticks_Linear_5,317,5,42,127,2066608436
7710,21,Ticks_Linear_5,318,1,48,37,2067194900
7710,21,Ticks_Linear_5,319,5,42,127,2067409356
7710,21,Ticks_Linear_5,320,1,48,33,2068065236
7710,21,Ticks_Linear_5,321,5,42,127,2068209156
7710,21,Ticks_Linear_5,322,1,48,27,2068756072
7710,21,Ticks_Linear_5,323,5,42,127,2069008728
7710,21,Ticks_Linear_5,324,1,48,27,2069709648
7710,21,Ticks_Linear_5,325,5,42,127,2069808528
7710,21,Ticks_Linear_5,326,1,48,31,2070483680
7710,21,Ticks_Linear_5,327,5,42,127,2070609224
7710,21,Ticks_Linear_5,328,1,48,35,2071284672
7710,21,Ticks_Linear_5,329,5,42,127,2071419208
7710,21,Ticks_Linear_5,330,1,48,35,2072137404
7710,21,Ticks_Linear_5,331,5,42,127,2072229276
7710,21,Ticks_Linear_5,332,1,48,35,2072935092
7710,21,Ticks_Linear_5,333,5,42,127,2073039320
7710,21,Ticks_Linear_5,334,1,48,29,2073734764
7710,21,Ticks_Linear_5,335,5,42,127,2073849152
7710,21,Ticks_Linear_5,336,1,48,27,2074603088
7710,21,Ticks_Linear_5,337,5,42,127,2074659148
7710,21,Ticks_Linear_5,0,9999,9999,9999,1965386848
7710,21,Ticks_Linear_5,1,9999,9999,9999,1965867100
7710,21,Ticks_Linear_5,2,9999,9999,9999,1966356564
7710,21,Ticks_Linear_5,3,9999,9999,9999,1966836864
7710,21,Ticks_Linear_5,4,9999,9999,9999,1967317092
7710,21,Ticks_Linear_5,5,9999,9999,9999,1967806532
7710,21,Ticks_Linear_5,6,9999,9999,9999,1968297088
7710,21,Ticks_Linear_5,7,9999,9999,9999,1968786532
7710,21,Ticks_Linear_5,8,9999,9999,9999,1969276992
7710,21,Ticks_Linear_5,9,9999,9999,9999,1969766508
7710,21,Ticks_Linear_5,10,9999,9999,9999,1970266208
7710,21,Ticks_Linear_5,11,9999,9999,9999,1970766956
7710,21,Ticks_Linear_5,12,9999,9999,9999,1971266656
7710,21,Ticks_Linear_5,13,9999,9999,9999,1971766352
7710,21,Ticks_Linear_5,14,9999,9999,9999,1972267100
7710,21,Ticks_Linear_5,15,9999,9999,9999,1972786272
7710,21,Ticks_Linear_5,16,9999,9999,9999,1973296228
7710,21,Ticks_Linear_5,17,9999,9999,9999,1973806188
7710,21,Ticks_Linear_5,18,9999,9999,9999,1974316148
7710,21,Ticks_Linear_5,19,9999,9999,9999,1974827080
7710,21,Ticks_Linear_5,20,9999,9999,9999,1975356512
7710,21,Ticks_Linear_5,21,9999,9999,9999,1975876728
7710,21,Ticks_Linear_5,22,9999,9999,9999,1976396872
7710,21,Ticks_Linear_5,23,9999,9999,9999,1976917088
7710,21,Ticks_Linear_5,24,9999,9999,9999,1977436260
7710,21,Ticks_Linear_5,25,9999,9999,9999,1977966660
7710,21,Ticks_Linear_5,26,9999,9999,9999,1978496100
7710,21,Ticks_Linear_5,27,9999,9999,9999,1979026516
7710,21,Ticks_Linear_5,28,9999,9999,9999,1979556920
7710,21,Ticks_Linear_5,29,9999,9999,9999,1980086352
7710,21,Ticks_Linear_5,30,9999,9999,9999,1980627016
7710,21,Ticks_Linear_5,31,9999,9999,9999,1981166704
7710,21,Ticks_Linear_5,32,9999,9999,9999,1981706320
7710,21,Ticks_Linear_5,33,9999,9999,9999,1982246980
7710,21,Ticks_Linear_5,34,9999,9999,9999,1982786672
7710,21,Ticks_Linear_5,35,9999,9999,9999,1983336548
7710,21,Ticks_Linear_5,36,9999,9999,9999,1983886444
7710,21,Ticks_Linear_5,37,9999,9999,9999,1984436316
7710,21,Ticks_Linear_5,38,9999,9999,9999,1984986192
7710,21,Ticks_Linear_5,39,9999,9999,9999,1985536064
7710,21,Ticks_Linear_5,40,9999,9999,9999,1986096200
7710,21,Ticks_Linear_5,41,9999,9999,9999,1986656332
7710,21,Ticks_Linear_5,42,9999,9999,9999,1987216492
7710,21,Ticks_Linear_5,43,9999,9999,9999,1987776624
7710,21,Ticks_Linear_5,44,9999,9999,9999,1988336756
7710,21,Ticks_Linear_5,45,9999,9999,9999,1988907076
7710,21,Ticks_Linear_5,46,9999,9999,9999,1989486664
7710,21,Ticks_Linear_5,47,9999,9999,9999,1990057020
7710,21,Ticks_Linear_5,48,9999,9999,9999,1990626368
7710,21,Ticks_Linear_5,49,9999,9999,9999,1991196760
7710,21,Ticks_Linear_5,50,9999,9999,9999,1991776348
7710,21,Ticks_Linear_5,51,9999,9999,9999,1992356952
7710,21,Ticks_Linear_5,52,9999,9999,9999,1992936560
7710,21,Ticks_Linear_5,53,9999,9999,9999,1993516088
7710,21,Ticks_Linear_5,54,9999,9999,9999,1994096740
7710,21,Ticks_Linear_5,55,9999,9999,9999,1994686568
7710,21,Ticks_Linear_5,56,9999,9999,9999,1995276356
7710,21,Ticks_Linear_5,57,9999,9999,9999,1995866224
7710,21,Ticks_Linear_5,58,9999,9999,9999,1996457084
7710,21,Ticks_Linear_5,59,9999,9999,9999,1997046860
7710,21,Ticks_Linear_5,60,9999,9999,9999,1997646924
7710,21,Ticks_Linear_5,61,9999,9999,9999,1998246992
7710,21,Ticks_Linear_5,62,9999,9999,9999,1998847100
7710,21,Ticks_Linear_5,63,9999,9999,9999,1999446120
7710,21,Ticks_Linear_5,64,9999,9999,9999,2000046192
7710,21,Ticks_Linear_5,65,9999,9999,9999,2000656500
7710,21,Ticks_Linear_5,66,9999,9999,9999,2001266788
7710,21,Ticks_Linear_5,67,9999,9999,9999,2001877064
7710,21,Ticks_Linear_5,68,9999,9999,9999,2002486400
7710,21,Ticks_Linear_5,69,9999,9999,9999,2003096656
7710,21,Ticks_Linear_5,70,9999,9999,9999,2003716160
7710,21,Ticks_Linear_5,71,9999,9999,9999,2004336732
7710,21,Ticks_Linear_5,72,9999,9999,9999,2004956272
7710,21,Ticks_Linear_5,73,9999,9999,9999,2005576768
7710,21,Ticks_Linear_5,74,9999,9999,9999,2006196308
7710,21,Ticks_Linear_5,75,9999,9999,9999,2006827136
7710,21,Ticks_Linear_5,76,9999,9999,9999,2007467124
7710,21,Ticks_Linear_5,77,9999,9999,9999,2008107088
7710,21,Ticks_Linear_5,78,9999,9999,9999,2008747076
7710,21,Ticks_Linear_5,79,9999,9999,9999,2009387116
7710,21,Ticks_Linear_5,80,9999,9999,9999,2010027104
7710,21,Ticks_Linear_5,81,9999,9999,9999,2010667068
7710,21,Ticks_Linear_5,82,9999,9999,9999,2011307128
7710,21,Ticks_Linear_5,83,9999,9999,9999,2011947096
7710,21,Ticks_Linear_5,84,9999,9999,9999,2012587084
7710,21,Ticks_Linear_5,85,9999,9999,9999,2013246592
7710,21,Ticks_Linear_5,86,9999,9999,9999,2013896768
7710,21,Ticks_Linear_5,87,9999,9999,9999,2014547064
7710,21,Ticks_Linear_5,88,9999,9999,9999,2015196264
7710,21,Ticks_Linear_5,89,9999,9999,9999,2015846520
7710,21,Ticks_Linear_5,90,9999,9999,9999,2016507008
7710,21,Ticks_Linear_5,91,9999,9999,9999,2017166392
7710,21,Ticks_Linear_5,92,9999,9999,9999,2017826936
7710,21,Ticks_Linear_5,93,9999,9999,9999,2018486392
7710,21,Ticks_Linear_5,94,9999,9999,9999,2019146872
7710,21,Ticks_Linear_5,95,9999,9999,9999,2019816520
7710,21,Ticks_Linear_5,96,9999,9999,9999,2020486240
7710,21,Ticks_Linear_5,97,9999,9999,9999,2021156920
7710,21,Ticks_Linear_5,98,9999,9999,9999,2021826640
7710,21,Ticks_Linear_5,99,9999,9999,9999,2022496336
7710,21,Ticks_Linear_5,100,9999,9999,9999,2023176300
7710,21,Ticks_Linear_5,101,9999,9999,9999,2023856200
7710,21,Ticks_Linear_5,102,9999,9999,9999,2024536156
7710,21,Ticks_Linear_5,103,9999,9999,9999,2025216056
7710,21,Ticks_Linear_5,104,9999,9999,9999,2025897084
7710,21,Ticks_Linear_5,105,9999,9999,9999,2026586172
7710,21,Ticks_Linear_5,106,9999,9999,9999,2027276408
7710,21,Ticks_Linear_5,107,9999,9999,9999,2027966572
7710,21,Ticks_Linear_5,108,9999,9999,9999,2028656708
7710,21,Ticks_Linear_5,109,9999,9999,9999,2029346872
7710,21,Ticks_Linear_5,110,9999,9999,9999,2030046324
7710,21,Ticks_Linear_5,111,9999,9999,9999,2030746744
7710,21,Ticks_Linear_5,112,9999,9999,9999,2031446096
7710,21,Ticks_Linear_5,113,9999,9999,9999,2032146516
7710,21,Ticks_Linear_5,114,9999,9999,9999,2032846952
7710,21,Ticks_Linear_5,115,9999,9999,9999,2033556588
7710,21,Ticks_Linear_5,116,9999,9999,9999,2034266196
7710,21,Ticks_Linear_5,117,9999,9999,9999,2034976860
7710,21,Ticks_Linear_5,118,9999,9999,9999,2035686492
7710,21,Ticks_Linear_5,119,9999,9999,9999,2036396128
7710,21,Ticks_Linear_5,120,9999,9999,9999,2037116984
7710,21,Ticks_Linear_5,121,9999,9999,9999,2037836876
7710,21,Ticks_Linear_5,122,9999,9999,9999,2038556756
7710,21,Ticks_Linear_5,123,9999,9999,9999,2039276648
7710,21,Ticks_Linear_5,124,9999,9999,9999,2039996544
7710,21,Ticks_Linear_5,125,9999,9999,9999,2040726624
7710,21,Ticks_Linear_5,126,9999,9999,9999,2041456748
7710,21,Ticks_Linear_5,127,9999,9999,9999,2042186828
7710,21,Ticks_Linear_5,128,9999,9999,9999,2042916980
7710,21,Ticks_Linear_5,129,9999,9999,9999,2043647072
7710,21,Ticks_Linear_5,130,9999,9999,9999,2044386424
7710,21,Ticks_Linear_5,131,9999,9999,9999,2045126760
7710,21,Ticks_Linear_5,132,9999,9999,9999,2045867096
7710,21,Ticks_Linear_5,133,9999,9999,9999,2046616660
7710,21,Ticks_Linear_5,134,9999,9999,9999,2047357032
7710,21,Ticks_Linear_5,135,9999,9999,9999,2048106596
7710,21,Ticks_Linear_5,136,9999,9999,9999,2048856148
7710,21,Ticks_Linear_5,137,9999,9999,9999,2049606740
7710,21,Ticks_Linear_5,138,9999,9999,9999,2050356352
7710,21,Ticks_Linear_5,139,9999,9999,9999,2051106944
7710,21,Ticks_Linear_5,140,9999,9999,9999,2051866696
7710,21,Ticks_Linear_5,141,9999,9999,9999,2052626504
7710,21,Ticks_Linear_5,142,9999,9999,9999,2053386316
7710,21,Ticks_Linear_5,143,9999,9999,9999,2054146124
7710,21,Ticks_Linear_5,144,9999,9999,9999,2054906964
7710,21,Ticks_Linear_5,145,9999,9999,9999,2055677032
7710,21,Ticks_Linear_5,146,9999,9999,9999,2056447040
7710,21,Ticks_Linear_5,147,9999,9999,9999,2057216060
7710,21,Ticks_Linear_5,148,9999,9999,9999,2057986112
7710,21,Ticks_Linear_5,149,9999,9999,9999,2058756180
7710,21,Ticks_Linear_5,150,9999,9999,9999,2059536508
7710,21,Ticks_Linear_5,151,9999,9999,9999,2060316760
7710,21,Ticks_Linear_5,152,9999,9999,9999,2061097088
7710,21,Ticks_Linear_5,153,9999,9999,9999,2061876292
7710,21,Ticks_Linear_5,154,9999,9999,9999,2062656620
7710,21,Ticks_Linear_5,155,9999,9999,9999,2063446104
7710,21,Ticks_Linear_5,156,9999,9999,9999,2064236612
7710,21,Ticks_Linear_5,157,9999,9999,9999,2065026160
7710,21,Ticks_Linear_5,158,9999,9999,9999,2065816672
7710,21,Ticks_Linear_5,159,9999,9999,9999,2066606136
7710,21,Ticks_Linear_5,160,9999,9999,9999,2067406908
7710,21,Ticks_Linear_5,161,9999,9999,9999,2068206708
7710,21,Ticks_Linear_5,162,9999,9999,9999,2069006432
7710,21,Ticks_Linear_5,163,9999,9999,9999,2069806200
7710,21,Ticks_Linear_5,164,9999,9999,9999,2070606924
7710,21,Ticks_Linear_5,165,9999,9999,9999,2071416908
7710,21,Ticks_Linear_5,166,9999,9999,9999,2072226904
7710,21,Ticks_Linear_5,167,9999,9999,9999,2073036872
7710,21,Ticks_Linear_5,168,9999,9999,9999,2073846852
7710,21,Ticks_Linear_5,169,9999,9999,9999,2074656852
7711,25,Jits_Pract_5,0,5,56,103,2117314888
7711,25,Jits_Pract_5,1,5,63,98,2117318060
7711,25,Jits_Pract_5,2,5,80,127,2117321408
7711,25,Jits_Pract_5,0,5,56,103,2117814612
7711,25,Jits_Pract_5,1,5,63,98,2117817712
7711,25,Jits_Pract_5,2,5,80,127,2117820836
7711,25,Jits_Pract_5,0,5,56,103,2118315404
7711,25,Jits_Pract_5,1,5,80,127,2118324552
7711,25,Jits_Pract_5,2,5,63,98,2118345308
7711,25,Jits_Pract_5,0,5,63,98,2118764852
7711,25,Jits_Pract_5,1,5,80,127,2118794480
7711,25,Jits_Pract_5,2,5,56,103,2118804824
7711,25,Jits_Pract_5,0,5,80,127,2119325140
7711,25,Jits_Pract_5,1,5,56,103,2119335408
7711,25,Jits_Pract_5,2,5,63,98,2119365084
7711,25,Jits_Pract_5,0,5,63,98,2119814544
7711,25,Jits_Pract_5,1,5,56,103,2119845344
7711,25,Jits_Pract_5,2,5,80,127,2119854496
7711,25,Jits_Pract_5,0,5,56,103,2120265176
7711,25,Jits_Pract_5,1,5,63,98,2120315184
7711,25,Jits_Pract_5,2,5,80,127,2120334668
7711,25,Jits_Pract_5,0,5,80,127,2120764696
7711,25,Jits_Pract_5,1,5,63,98,2120814900
7711,25,Jits_Pract_5,2,5,56,103,2120855308
7711,25,Jits_Pract_5,0,5,56,103,2121264588
7711,25,Jits_Pract_5,1,5,63,98,2121295308
7711,25,Jits_Pract_5,2,5,80,127,2121364940
7711,25,Jits_Pract_5,0,5,56,103,2121765304
7711,25,Jits_Pract_5,1,5,80,127,2121824652
7711,25,Jits_Pract_5,2,5,63,98,2121855324
7711,25,Jits_Pract_5,0,5,56,103,2122275236
7711,25,Jits_Pract_5,1,5,63,98,2122285360
7711,25,Jits_Pract_5,2,5,80,127,2122325224
7711,25,Jits_Pract_5,0,5,63,98,2122764564
7711,25,Jits_Pract_5,1,5,80,127,2122844512
7711,25,Jits_Pract_5,2,5,56,103,2122854632
7711,25,Jits_Pract_5,0,5,63,98,2123314492
7711,25,Jits_Pract_5,1,5,56,103,2123354580
7711,25,Jits_Pract_5,2,5,80,127,2123357724
7711,25,Jits_Pract_5,0,5,56,103,2123784548
7711,25,Jits_Pract_5,1,5,63,98,2123794744
7711,25,Jits_Pract_5,2,5,80,127,2123834684
7711,25,Jits_Pract_5,0,5,56,103,2124275140
7711,25,Jits_Pract_5,1,5,63,98,2124278284
7711,25,Jits_Pract_5,2,5,80,127,2124294556
7711,25,Jits_Pract_5,0,9999,9999,9999,2117562476
7711,25,Jits_Pract_5,1,9999,9999,9999,2118062200
7711,25,Jits_Pract_5,2,9999,9999,9999,2118562920
7711,25,Jits_Pract_5,3,9999,9999,9999,2119062584
7711,25,Jits_Pract_5,4,9999,9999,9999,2119562316
7711,25,Jits_Pract_5,5,9999,9999,9999,2120063036
7711,25,Jits_Pract_5,6,9999,9999,9999,2120562740
7711,25,Jits_Pract_5,7,9999,9999,9999,2121062480
7711,25,Jits_Pract_5,8,9999,9999,9999,2121562224
7711,25,Jits_Pract_5,9,9999,9999,9999,2122062944
7711,25,Jits_Pract_5,10,9999,9999,9999,2122562684
7711,25,Jits_Pract_5,11,9999,9999,9999,2123062352
7711,25,Jits_Pract_5,12,9999,9999,9999,2123563124
7711,25,Jits_Pract_5,13,9999,9999,9999,2124073040
7711,25,Jits_Pract_5,14,9999,9999,9999,2124572768
7712,24,Jits_Pract_8,0,5,56,103,2171048228
7712,24,Jits_Pract_8,1,5,63,98,2171051396
7712,24,Jits_Pract_8,2,5,80,127,2171054520
7712,24,Jits_Pract_8,0,5,56,103,2171848312
7712,24,Jits_Pract_8,1,5,63,98,2171851560
7712,24,Jits_Pract_8,2,5,80,127,2171854532
7712,24,Jits_Pract_8,0,5,80,127,2172597624
7712,24,Jits_Pract_8,1,1,48,43,2172642844
7712,24,Jits_Pract_8,2,5,63,98,2172687604
7712,24,Jits_Pract_8,3,5,56,103,2172698024
7712,24,Jits_Pract_8,0,1,48,46,2173405908
7712,24,Jits_Pract_8,1,5,56,103,2173428032
7712,24,Jits_Pract_8,2,5,63,98,2173438452
7712,24,Jits_Pract_8,3,5,80,127,2173528420
7712,24,Jits_Pract_8,0,1,48,47,2174152236
7712,24,Jits_Pract_8,1,5,63,98,2174198120
7712,24,Jits_Pract_8,2,5,80,127,2174227720
7712,24,Jits_Pract_8,3,5,56,103,2174257456
7712,24,Jits_Pract_8,0,1,48,44,2174931908
7712,24,Jits_Pract_8,1,5,56,103,2174997872
7712,24,Jits_Pract_8,2,5,80,127,2175098280
7712,24,Jits_Pract_8,3,5,63,98,2175148332
7712,24,Jits_Pract_8,0,1,48,45,2175704168
7712,24,Jits_Pract_8,1,5,56,103,2175797556
7712,24,Jits_Pract_8,2,5,80,127,2175847968
7712,24,Jits_Pract_8,3,5,63,98,2175887708
7712,24,Jits_Pract_8,0,1,48,47,2176503324
7712,24,Jits_Pract_8,1,5,80,127,2176628016
7712,24,Jits_Pract_8,2,5,63,98,2176657792
7712,24,Jits_Pract_8,3,5,56,103,2176728368
7712,24,Jits_Pract_8,0,1,48,45,2177322564
7712,24,Jits_Pract_8,1,5,63,98,2177457468
7712,24,Jits_Pract_8,2,5,56,103,2177488188
7712,24,Jits_Pract_8,3,5,80,127,2177547532
7712,24,Jits_Pract_8,0,5,56,103,2178197904
7712,24,Jits_Pract_8,1,1,48,41,2178199264
7712,24,Jits_Pract_8,2,5,80,127,2178202084
7712,24,Jits_Pract_8,3,5,63,98,2178317608
7712,24,Jits_Pract_8,0,1,48,37,2178892112
7712,24,Jits_Pract_8,1,5,56,103,2179077588
7712,24,Jits_Pract_8,2,5,80,127,2179117528
7712,24,Jits_Pract_8,3,5,63,98,2179127720
7712,24,Jits_Pract_8,0,1,48,42,2179734224
7712,24,Jits_Pract_8,1,5,56,103,2179838316
7712,24,Jits_Pract_8,2,5,80,127,2179857728
7712,24,Jits_Pract_8,3,5,63,98,2179937596
7712,24,Jits_Pract_8,0,1,48,43,2180584328
7712,24,Jits_Pract_8,1,5,80,127,2180627896
7712,24,Jits_Pract_8,2,5,56,103,2180728156
7712,24,Jits_Pract_8,3,5,63,98,2180738428
7712,24,Jits_Pract_8,0,1,48,45,2181378784
7712,24,Jits_Pract_8,1,5,63,98,2181397992
7712,24,Jits_Pract_8,2,5,80,127,2181458232
7712,24,Jits_Pract_8,3,5,56,103,2181467460
7712,24,Jits_Pract_8,0,1,48,46,2182098972
7712,24,Jits_Pract_8,1,5,56,103,2182197576
7712,24,Jits_Pract_8,2,5,63,98,2182268176
7712,24,Jits_Pract_8,3,5,80,127,2182271468
7712,24,Jits_Pract_8,0,9999,9999,9999,2171445332
7712,24,Jits_Pract_8,1,9999,9999,9999,2172246096
7712,24,Jits_Pract_8,2,9999,9999,9999,2173056100
7712,24,Jits_Pract_8,3,9999,9999,9999,2173866056
7712,24,Jits_Pract_8,4,9999,9999,9999,2174665808
7712,24,Jits_Pract_8,5,9999,9999,9999,2175465568
7712,24,Jits_Pract_8,6,9999,9999,9999,2176265324
7712,24,Jits_Pract_8,7,9999,9999,9999,2177066056
7712,24,Jits_Pract_8,8,9999,9999,9999,2177865816
7712,24,Jits_Pract_8,9,9999,9999,9999,2178665556
7712,24,Jits_Pract_8,10,9999,9999,9999,2179465284
7712,24,Jits_Pract_8,11,9999,9999,9999,2180266092
7712,24,Jits_Pract_8,12,9999,9999,9999,2181065780
7712,24,Jits_Pract_8,13,9999,9999,9999,2181865536
7712,24,Jits_Pract_8,14,9999,9999,9999,2182665276
7713,25,Jits_Pract_5,0,5,56,103,2196006192
7713,25,Jits_Pract_5,1,5,63,98,2196009216
7713,25,Jits_Pract_5,2,5,80,127,2196012636
7713,25,Jits_Pract_5,0,5,56,103,2196506140
7713,25,Jits_Pract_5,1,5,63,98,2196509092
7713,25,Jits_Pract_5,2,5,80,127,2196512216
7713,25,Jits_Pract_5,0,1,48,32,2196977232
7713,25,Jits_Pract_5,1,5,56,103,2197005652
7713,25,Jits_Pract_5,2,5,80,127,2197015852
7713,25,Jits_Pract_5,3,5,63,98,2197036608
7713,25,Jits_Pract_5,0,5,63,98,2197456204
7713,25,Jits_Pract_5,1,1,48,41,2197459768
7713,25,Jits_Pract_5,2,5,80,127,2197486024
7713,25,Jits_Pract_5,3,5,56,103,2197496292
7713,25,Jits_Pract_5,0,1,48,38,2197928660
7713,25,Jits_Pract_5,1,5,80,127,2198016572
7713,25,Jits_Pract_5,2,5,56,103,2198025852
7713,25,Jits_Pract_5,3,5,63,98,2198056500
7713,25,Jits_Pract_5,0,1,48,35,2198447168
7713,25,Jits_Pract_5,1,5,63,98,2198505704
7713,25,Jits_Pract_5,2,5,56,103,2198535676
7713,25,Jits_Pract_5,3,5,80,127,2198545784
7713,25,Jits_Pract_5,0,1,48,40,2198944688
7713,25,Jits_Pract_5,1,5,56,103,2198956548
7713,25,Jits_Pract_5,2,5,63,98,2199005628
7713,25,Jits_Pract_5,3,5,80,127,2199025936
7713,25,Jits_Pract_5,0,1,48,41,2199417624
7713,25,Jits_Pract_5,1,5,80,127,2199466500
7713,25,Jits_Pract_5,2,5,63,98,2199515788
7713,25,Jits_Pract_5,3,5,56,103,2199555576
7713,25,Jits_Pract_5,0,1,48,42,2199918940
7713,25,Jits_Pract_5,1,5,56,103,2199966040
7713,25,Jits_Pract_5,2,5,63,98,2199995644
7713,25,Jits_Pract_5,3,5,80,127,2200066504
7713,25,Jits_Pract_5,0,1,48,39,2200441576
7713,25,Jits_Pract_5,1,5,56,103,2200465884
7713,25,Jits_Pract_5,2,5,80,127,2200526052
7713,25,Jits_Pract_5,3,5,63,98,2200555860
7713,25,Jits_Pract_5,0,5,56,103,2200975848
7713,25,Jits_Pract_5,1,1,48,40,2200977036
7713,25,Jits_Pract_5,2,5,63,98,2200985960
7713,25,Jits_Pract_5,3,5,80,127,2201025972
7713,25,Jits_Pract_5,0,5,63,98,2201466184
7713,25,Jits_Pract_5,1,1,48,37,2201528496
7713,25,Jits_Pract_5,2,5,80,127,2201546124
7713,25,Jits_Pract_5,3,5,56,103,2201556620
7713,25,Jits_Pract_5,0,1,48,38,2201975068
7713,25,Jits_Pract_5,1,5,63,98,2202016144
7713,25,Jits_Pract_5,2,5,56,103,2202056008
7713,25,Jits_Pract_5,3,5,80,127,2202059224
7713,25,Jits_Pract_5,0,5,56,103,2202476028
7713,25,Jits_Pract_5,1,5,63,98,2202486252
7713,25,Jits_Pract_5,2,1,48,39,2202495072
7713,25,Jits_Pract_5,3,5,80,127,2202526108
7713,25,Jits_Pract_5,0,5,56,103,2202966440
7713,25,Jits_Pract_5,1,1,48,43,2202969056
7713,25,Jits_Pract_5,2,5,63,98,2202970696
7713,25,Jits_Pract_5,3,5,80,127,2202985844
7713,25,Jits_Pract_5,0,9999,9999,9999,2196253780
7713,25,Jits_Pract_5,1,9999,9999,9999,2196753504
7713,25,Jits_Pract_5,2,9999,9999,9999,2197253228
7713,25,Jits_Pract_5,3,9999,9999,9999,2197753964
7713,25,Jits_Pract_5,4,9999,9999,9999,2198253660
7713,25,Jits_Pract_5,5,9999,9999,9999,2198753352
7713,25,Jits_Pract_5,6,9999,9999,9999,2199254092
7713,25,Jits_Pract_5,7,9999,9999,9999,2199764044
7713,25,Jits_Pract_5,8,9999,9999,9999,2200263736
7713,25,Jits_Pract_5,9,9999,9999,9999,2200763504
7713,25,Jits_Pract_5,10,9999,9999,9999,2201263196
7713,25,Jits_Pract_5,11,9999,9999,9999,2201763952
7713,25,Jits_Pract_5,12,9999,9999,9999,2202263636
7713,25,Jits_Pract_5,13,9999,9999,9999,2202763328
7713,25,Jits_Pract_5,14,9999,9999,9999,2203264068
7714,15,Jits_Phase_8,0,5,56,103,2232175148
7714,15,Jits_Phase_8,1,5,63,98,2232178096
7714,15,Jits_Phase_8,2,5,80,127,2232181068
7714,15,Jits_Phase_8,0,5,56,103,2232974792
7714,15,Jits_Phase_8,1,5,63,98,2232977892
7714,15,Jits_Phase_8,2,5,80,127,2232981160
7714,15,Jits_Phase_8,3,1,48,36,2233213012
7714,15,Jits_Phase_8,0,5,80,127,2233715048
7714,15,Jits_Phase_8,1,5,63,98,2233805132
7714,15,Jits_Phase_8,2,5,56,103,2233815332
7714,15,Jits_Phase_8,3,1,48,35,2233827068
7714,15,Jits_Phase_8,0,1,48,34,2234529196
7714,15,Jits_Phase_8,1,5,56,103,2234535148
7714,15,Jits_Phase_8,2,5,63,98,2234544444
7714,15,Jits_Phase_8,3,5,80,127,2234634560
7714,15,Jits_Phase_8,0,1,48,38,2235271560
7714,15,Jits_Phase_8,1,5,63,98,2235305236
7714,15,Jits_Phase_8,2,5,80,127,2235335136
7714,15,Jits_Phase_8,3,5,56,103,2235364796
7714,15,Jits_Phase_8,0,1,48,39,2235927444
7714,15,Jits_Phase_8,1,5,56,103,2236105048
7714,15,Jits_Phase_8,2,5,80,127,2236205520
7714,15,Jits_Phase_8,3,5,63,98,2236254524
7714,15,Jits_Phase_8,0,1,48,39,2236762648
7714,15,Jits_Phase_8,1,5,56,103,2236905180
7714,15,Jits_Phase_8,2,5,80,127,2236955160
7714,15,Jits_Phase_8,3,5,63,98,2236995024
7714,15,Jits_Phase_8,0,1,48,41,2237623868
7714,15,Jits_Phase_8,1,5,80,127,2237735208
7714,15,Jits_Phase_8,2,5,63,98,2237765108
7714,15,Jits_Phase_8,3,5,56,103,2237834516
7714,15,Jits_Phase_8,0,1,48,37,2238409236
7714,15,Jits_Phase_8,1,5,63,98,2238564940
7714,15,Jits_Phase_8,2,5,56,103,2238594492
7714,15,Jits_Phase_8,3,5,80,127,2238655028
7714,15,Jits_Phase_8,0,1,48,38,2239218068
7714,15,Jits_Phase_8,1,5,56,103,2239304924
7714,15,Jits_Phase_8,2,5,80,127,2239308068
7714,15,Jits_Phase_8,3,5,63,98,2239424960
7714,15,Jits_Phase_8,0,1,48,42,2239999752
7714,15,Jits_Phase_8,1,5,56,103,2240184780
7714,15,Jits_Phase_8,2,5,80,127,2240224716
7714,15,Jits_Phase_8,3,5,63,98,2240234912
7714,15,Jits_Phase_8,0,1,48,42,2240874156
7714,15,Jits_Phase_8,1,5,56,103,2240944404
7714,15,Jits_Phase_8,2,5,80,127,2240965016
7714,15,Jits_Phase_8,3,5,63,98,2241044792
7714,15,Jits_Phase_8,0,1,48,42,2241684200
7714,15,Jits_Phase_8,1,5,80,127,2241735096
7714,15,Jits_Phase_8,2,5,56,103,2241835332
7714,15,Jits_Phase_8,3,5,63,98,2241844928
7714,15,Jits_Phase_8,0,5,63,98,2242505048
7714,15,Jits_Phase_8,1,1,48,44,2242514836
7714,15,Jits_Phase_8,2,5,80,127,2242564460
7714,15,Jits_Phase_8,3,5,56,103,2242574952
7714,15,Jits_Phase_8,0,1,48,41,2243221144
7714,15,Jits_Phase_8,1,5,56,103,2243304868
7714,15,Jits_Phase_8,2,5,63,98,2243374460
7714,15,Jits_Phase_8,3,5,80,127,2243377824
7714,15,Jits_Phase_8,0,1,48,39,2243989424
7714,15,Jits_Phase_8,1,5,63,98,2244135240
7714,15,Jits_Phase_8,2,5,56,103,2244184472
7714,15,Jits_Phase_8,3,5,80,127,2244187612
7714,15,Jits_Phase_8,0,1,48,40,2244843056
7714,15,Jits_Phase_8,1,5,56,103,2244894992
7714,15,Jits_Phase_8,2,5,80,127,2244898064
7714,15,Jits_Phase_8,3,5,63,98,2244985064
7714,15,Jits_Phase_8,0,1,48,46,2245627208
7714,15,Jits_Phase_8,1,5,63,98,2245734884
7714,15,Jits_Phase_8,2,5,56,103,2245824896
7714,15,Jits_Phase_8,3,5,80,127,2245854940
7714,15,Jits_Phase_8,0,1,48,47,2246464884
7714,15,Jits_Phase_8,1,5,56,103,2246525244
7714,15,Jits_Phase_8,2,5,63,98,2246624728
7714,15,Jits_Phase_8,3,5,80,127,2246655228
7714,15,Jits_Phase_8,0,1,48,42,2247245460
7714,15,Jits_Phase_8,1,5,63,98,2247344472
7714,15,Jits_Phase_8,2,5,56,103,2247354964
7714,15,Jits_Phase_8,3,5,80,127,2247444800
7714,15,Jits_Phase_8,0,1,48,42,2248000784
7714,15,Jits_Phase_8,1,5,63,98,2248164908
7714,15,Jits_Phase_8,2,5,56,103,2248244628
7714,15,Jits_Phase_8,3,5,80,127,2248247840
7714,15,Jits_Phase_8,0,1,48,41,2248831800
7714,15,Jits_Phase_8,1,5,80,127,2248924740
7714,15,Jits_Phase_8,2,5,63,98,2248944964
7714,15,Jits_Phase_8,3,5,56,103,2249005500
7714,15,Jits_Phase_8,0,1,48,43,2249657264
7714,15,Jits_Phase_8,1,5,56,103,2249765092
7714,15,Jits_Phase_8,2,5,63,98,2249784872
7714,15,Jits_Phase_8,3,5,80,127,2249788240
7714,15,Jits_Phase_8,0,1,48,41,2250459784
7714,15,Jits_Phase_8,1,5,63,98,2250504692
7714,15,Jits_Phase_8,2,5,80,127,2250584328
7714,15,Jits_Phase_8,3,5,56,103,2250594896
7714,15,Jits_Phase_8,0,1,48,30,2251273112
7714,15,Jits_Phase_8,1,5,63,98,2251324756
7714,15,Jits_Phase_8,2,5,56,103,2251345292
7714,15,Jits_Phase_8,3,5,80,127,2251394380
7714,15,Jits_Phase_8,0,1,48,42,2252079232
7714,15,Jits_Phase_8,1,5,80,127,2252124664
7714,15,Jits_Phase_8,2,5,63,98,2252164408
7714,15,Jits_Phase_8,3,5,56,103,2252184924
7714,15,Jits_Phase_8,0,1,48,46,2252856668
7714,15,Jits_Phase_8,1,5,56,103,2252965264
7714,15,Jits_Phase_8,2,5,63,98,2252974712
7714,15,Jits_Phase_8,3,5,80,127,2252994796
7714,15,Jits_Phase_8,0,1,48,46,2253597756
7714,15,Jits_Phase_8,1,5,56,103,2253695340
7714,15,Jits_Phase_8,2,5,63,98,2253784652
7714,15,Jits_Phase_8,3,5,80,127,2253844820
7714,15,Jits_Phase_8,0,1,48,45,2254362368
7714,15,Jits_Phase_8,1,5,80,127,2254524772
7714,15,Jits_Phase_8,2,5,56,103,2254534968
7714,15,Jits_Phase_8,3,5,63,98,2254604868
7714,15,Jits_Phase_8,0,1,48,47,2255182128
7714,15,Jits_Phase_8,1,5,63,98,2255355244
7714,15,Jits_Phase_8,2,5,80,127,2255445304
7714,15,Jits_Phase_8,3,5,56,103,2255454676
7714,15,Jits_Phase_8,0,1,48,37,2255992404
7714,15,Jits_Phase_8,1,5,63,98,2256085492
7714,15,Jits_Phase_8,2,5,80,127,2256134632
7714,15,Jits_Phase_8,3,5,56,103,2256194948
7714,15,Jits_Phase_8,0,1,48,37,2256834504
7714,15,Jits_Phase_8,1,5,56,103,2256904656
7714,15,Jits_Phase_8,2,5,80,127,2256954768
7714,15,Jits_Phase_8,3,5,63,98,2256975152
7714,15,Jits_Phase_8,0,1,48,40,2257670368
7714,15,Jits_Phase_8,1,5,56,103,2257674892
7714,15,Jits_Phase_8,2,5,80,127,2257735060
7714,15,Jits_Phase_8,3,5,63,98,2257804748
7714,15,Jits_Phase_8,0,1,48,41,2258446752
7714,15,Jits_Phase_8,1,5,56,103,2258475396
7714,15,Jits_Phase_8,2,5,80,127,2258505148
7714,15,Jits_Phase_8,3,5,63,98,2258534672
7714,15,Jits_Phase_8,0,1,48,42,2259149320
7714,15,Jits_Phase_8,1,5,56,103,2259315240
7714,15,Jits_Phase_8,2,5,80,127,2259334728
7714,15,Jits_Phase_8,3,5,63,98,2259394892
7714,15,Jits_Phase_8,0,1,48,45,2260008196
7714,15,Jits_Phase_8,1,5,80,127,2260194568
7714,15,Jits_Phase_8,2,5,56,103,2260204912
7714,15,Jits_Phase_8,3,5,63,98,2260215108
7714,15,Jits_Phase_8,0,1,48,39,2260869720
7714,15,Jits_Phase_8,1,5,56,103,2260954564
7714,15,Jits_Phase_8,2,5,80,127,2260994712
7714,15,Jits_Phase_8,3,5,63,98,2261025064
7714,15,Jits_Phase_8,0,1,48,37,2261683124
7714,15,Jits_Phase_8,1,5,56,103,2261724504
7714,15,Jits_Phase_8,2,5,63,98,2261755228
7714,15,Jits_Phase_8,3,5,80,127,2261795296
7714,15,Jits_Phase_8,0,1,48,38,2262431924
7714,15,Jits_Phase_8,1,5,80,127,2262475112
7714,15,Jits_Phase_8,2,5,63,98,2262525464
7714,15,Jits_Phase_8,3,5,56,103,2262544636
7714,15,Jits_Phase_8,0,1,48,40,2263223448
7714,15,Jits_Phase_8,1,5,56,103,2263304684
7714,15,Jits_Phase_8,2,5,80,127,2263375172
7714,15,Jits_Phase_8,3,5,63,98,2263434692
7714,15,Jits_Phase_8,0,1,48,39,2264007916
7714,15,Jits_Phase_8,1,5,80,127,2264106448
7714,15,Jits_Phase_8,2,5,63,98,2264194664
7714,15,Jits_Phase_8,3,5,56,103,2264214900
7714,15,Jits_Phase_8,0,1,48,40,2264868440
7714,15,Jits_Phase_8,1,5,63,98,2264924660
7714,15,Jits_Phase_8,2,5,56,103,2264945120
7714,15,Jits_Phase_8,3,5,80,127,2264984892
7714,15,Jits_Phase_8,0,1,48,32,2265592044
7714,15,Jits_Phase_8,1,5,80,127,2265685432
7714,15,Jits_Phase_8,2,5,63,98,2265704756
7714,15,Jits_Phase_8,3,5,56,103,2265784648
7714,15,Jits_Phase_8,0,1,48,41,2266380260
7714,15,Jits_Phase_8,1,5,63,98,2266474832
7714,15,Jits_Phase_8,2,5,56,103,2266584468
7714,15,Jits_Phase_8,3,5,80,127,2266587536
7714,15,Jits_Phase_8,0,1,48,42,2267210424
7714,15,Jits_Phase_8,1,5,63,98,2267295000
7714,15,Jits_Phase_8,2,5,56,103,2267305476
7714,15,Jits_Phase_8,3,5,80,127,2267308392
7714,15,Jits_Phase_8,0,1,48,39,2268012948
7714,15,Jits_Phase_8,1,5,56,103,2268075476
7714,15,Jits_Phase_8,2,5,80,127,2268195188
7714,15,Jits_Phase_8,3,5,63,98,2268235124
7714,15,Jits_Phase_8,0,1,48,38,2268743704
7714,15,Jits_Phase_8,1,5,56,103,2268894628
7714,15,Jits_Phase_8,2,5,80,127,2268974352
7714,15,Jits_Phase_8,3,5,63,98,2268994812
7714,15,Jits_Phase_8,0,1,48,36,2269591796
7714,15,Jits_Phase_8,1,5,56,103,2269695284
7714,15,Jits_Phase_8,2,5,63,98,2269804972
7714,15,Jits_Phase_8,3,5,80,127,2269808408
7714,15,Jits_Phase_8,0,1,48,34,2270373184
7714,15,Jits_Phase_8,1,5,56,103,2270534948
7714,15,Jits_Phase_8,2,5,80,127,2270564844
7714,15,Jits_Phase_8,3,5,63,98,2270585404
7714,15,Jits_Phase_8,0,1,48,38,2271206048
7714,15,Jits_Phase_8,1,5,63,98,2271324516
7714,15,Jits_Phase_8,2,5,56,103,2271334788
7714,15,Jits_Phase_8,3,5,80,127,2271345204
7714,15,Jits_Phase_8,0,1,48,38,2272044768
7714,15,Jits_Phase_8,1,5,80,127,2272115020
7714,15,Jits_Phase_8,2,5,56,103,2272165504
7714,15,Jits_Phase_8,3,5,63,98,2272205368
7714,15,Jits_Phase_8,0,1,48,41,2272857856
7714,15,Jits_Phase_8,1,5,80,127,2272935304
7714,15,Jits_Phase_8,2,5,63,98,2272955972
7714,15,Jits_Phase_8,3,5,56,103,2273005200
7714,15,Jits_Phase_8,0,1,48,36,2273692696
7714,15,Jits_Phase_8,1,5,80,127,2273745472
7714,15,Jits_Phase_8,2,5,56,103,2273775072
7714,15,Jits_Phase_8,3,5,63,98,2273844592
7714,15,Jits_Phase_8,0,1,48,35,2274507224
7714,15,Jits_Phase_8,1,5,56,103,2274595432
7714,15,Jits_Phase_8,2,5,80,127,2274605612
7714,15,Jits_Phase_8,3,5,63,98,2274645252
7714,15,Jits_Phase_8,0,5,56,103,2275304848
7714,15,Jits_Phase_8,1,5,63,98,2275325384
7714,15,Jits_Phase_8,2,1,48,36,2275377576
7714,15,Jits_Phase_8,3,5,80,127,2275394832
7714,15,Jits_Phase_8,0,1,48,30,2275979160
7714,15,Jits_Phase_8,1,5,63,98,2276124976
7714,15,Jits_Phase_8,2,5,80,127,2276184472
7714,15,Jits_Phase_8,3,5,56,103,2276204856
7714,15,Jits_Phase_8,0,1,48,31,2276881636
7714,15,Jits_Phase_8,1,5,80,127,2276914564
7714,15,Jits_Phase_8,2,5,56,103,2276945360
7714,15,Jits_Phase_8,3,5,63,98,2276974872
7714,15,Jits_Phase_8,0,1,48,31,2277686120
7714,15,Jits_Phase_8,1,5,56,103,2277715292
7714,15,Jits_Phase_8,2,5,63,98,2277774584
7714,15,Jits_Phase_8,3,5,80,127,2277835256
7714,15,Jits_Phase_8,0,1,48,33,2278459052
7714,15,Jits_Phase_8,1,5,80,127,2278534628
7714,15,Jits_Phase_8,2,5,56,103,2278555012
7714,15,Jits_Phase_8,3,5,63,98,2278624528
7714,15,Jits_Phase_8,0,1,48,29,2279246448
7714,15,Jits_Phase_8,1,5,80,127,2279335284
7714,15,Jits_Phase_8,2,5,63,98,2279354680
7714,15,Jits_Phase_8,3,5,56,103,2279384432
7714,15,Jits_Phase_8,0,1,48,31,2279982452
7714,15,Jits_Phase_8,1,5,80,127,2280124760
7714,15,Jits_Phase_8,2,5,63,98,2280145144
7714,15,Jits_Phase_8,3,5,56,103,2280204636
7714,15,Jits_Phase_8,0,1,48,29,2280849124
7714,15,Jits_Phase_8,1,5,80,127,2280924532
7714,15,Jits_Phase_8,2,5,56,103,2281024764
7714,15,Jits_Phase_8,3,5,63,98,2281054516
7714,15,Jits_Phase_8,0,1,48,38,2281693928
7714,15,Jits_Phase_8,1,5,63,98,2281715224
7714,15,Jits_Phase_8,2,5,80,127,2281765352
7714,15,Jits_Phase_8,3,5,56,103,2281785572
7714,15,Jits_Phase_8,0,1,48,36,2282500860
7714,15,Jits_Phase_8,1,5,80,127,2282554616
7714,15,Jits_Phase_8,2,5,56,103,2282584364
7714,15,Jits_Phase_8,3,5,63,98,2282587432
7714,15,Jits_Phase_8,0,1,48,39,2283280608
7714,15,Jits_Phase_8,1,5,63,98,2283404576
7714,15,Jits_Phase_8,2,5,56,103,2283444588
7714,15,Jits_Phase_8,3,5,80,127,2283465192
7714,15,Jits_Phase_8,0,1,48,36,2284093568
7714,15,Jits_Phase_8,1,5,80,127,2284164488
7714,15,Jits_Phase_8,2,5,63,98,2284245392
7714,15,Jits_Phase_8,3,5,56,103,2284285480
7714,15,Jits_Phase_8,0,1,48,35,2284951256
7714,15,Jits_Phase_8,1,5,63,98,2284984560
7714,15,Jits_Phase_8,2,5,80,127,2285064492
7714,15,Jits_Phase_8,3,5,56,103,2285085248
7714,15,Jits_Phase_8,0,1,48,33,2285725108
7714,15,Jits_Phase_8,1,5,56,103,2285825440
7714,15,Jits_Phase_8,2,5,63,98,2285834664
7714,15,Jits_Phase_8,3,5,80,127,2285874600
7714,15,Jits_Phase_8,0,1,48,38,2286520592
7714,15,Jits_Phase_8,1,5,56,103,2286545272
7714,15,Jits_Phase_8,2,5,80,127,2286548416
7714,15,Jits_Phase_8,3,5,63,98,2286684608
7714,15,Jits_Phase_8,0,1,48,36,2287289696
7714,15,Jits_Phase_8,1,5,56,103,2287334684
7714,15,Jits_Phase_8,2,5,63,98,2287425100
7714,15,Jits_Phase_8,3,5,80,127,2287494580
7714,15,Jits_Phase_8,0,1,48,37,2288019100
7714,15,Jits_Phase_8,1,5,63,98,2288215256
7714,15,Jits_Phase_8,2,5,80,127,2288218628
7714,15,Jits_Phase_8,3,5,56,103,2288274928
7714,15,Jits_Phase_8,0,1,48,37,2288835720
7714,15,Jits_Phase_8,1,5,80,127,2289055272
7714,15,Jits_Phase_8,2,5,56,103,2289074464
7714,15,Jits_Phase_8,3,5,63,98,2289084884
7714,15,Jits_Phase_8,0,1,48,33,2289679612
7714,15,Jits_Phase_8,1,5,56,103,2289764604
7714,15,Jits_Phase_8,2,5,63,98,2289775084
7714,15,Jits_Phase_8,3,5,80,127,2289844540
7714,15,Jits_Phase_8,0,1,48,32,2290518824
7714,15,Jits_Phase_8,1,5,80,127,2290564508
7714,15,Jits_Phase_8,2,5,56,103,2290615288
7714,15,Jits_Phase_8,3,5,63,98,2290664672
7714,15,Jits_Phase_8,0,1,48,42,2291321080
7714,15,Jits_Phase_8,1,5,56,103,2291445168
7714,15,Jits_Phase_8,2,5,63,98,2291455368
7714,15,Jits_Phase_8,3,5,80,127,2291495304
7714,15,Jits_Phase_8,0,1,48,45,2292118228
7714,15,Jits_Phase_8,1,5,56,103,2292184340
7714,15,Jits_Phase_8,2,5,63,98,2292225388
7714,15,Jits_Phase_8,3,5,80,127,2292274464
7714,15,Jits_Phase_8,0,1,48,37,2292902552
7714,15,Jits_Phase_8,1,5,80,127,2292945368
7714,15,Jits_Phase_8,2,5,56,103,2292994376
7714,15,Jits_Phase_8,3,5,63,98,2293015340
7714,15,Jits_Phase_8,0,1,48,39,2293687256
7714,15,Jits_Phase_8,1,5,80,127,2293755388
7714,15,Jits_Phase_8,2,5,63,98,2293814644
7714,15,Jits_Phase_8,3,5,56,103,2293894536
7714,15,Jits_Phase_8,0,1,48,35,2294415848
7714,15,Jits_Phase_8,1,5,80,127,2294534536
7714,15,Jits_Phase_8,2,5,56,103,2294574400
7714,15,Jits_Phase_8,3,5,63,98,2294595008
7714,15,Jits_Phase_8,0,1,48,41,2295273064
7714,15,Jits_Phase_8,1,5,56,103,2295384484
7714,15,Jits_Phase_8,2,5,80,127,2295394604
7714,15,Jits_Phase_8,3,5,63,98,2295435012
7714,15,Jits_Phase_8,0,1,48,37,2296079556
7714,15,Jits_Phase_8,1,5,56,103,2296255064
7714,15,Jits_Phase_8,2,5,63,98,2296294852
7714,15,Jits_Phase_8,3,5,80,127,2296298140
7714,15,Jits_Phase_8,0,5,63,98,2296924684
7714,15,Jits_Phase_8,1,1,48,43,2296933504
7714,15,Jits_Phase_8,2,5,80,127,2296964564
7714,15,Jits_Phase_8,3,5,56,103,2297034976
7714,15,Jits_Phase_8,0,1,48,38,2297616596
7714,15,Jits_Phase_8,1,5,63,98,2297694540
7714,15,Jits_Phase_8,2,5,56,103,2297774420
7714,15,Jits_Phase_8,3,5,80,127,2297835108
7714,15,Jits_Phase_8,0,1,48,38,2298357608
7714,15,Jits_Phase_8,1,5,80,127,2298504496
7714,15,Jits_Phase_8,2,5,63,98,2298554700
7714,15,Jits_Phase_8,3,5,56,103,2298584372
7714,15,Jits_Phase_8,0,1,48,39,2299114592
7714,15,Jits_Phase_8,1,5,56,103,2299295036
7714,15,Jits_Phase_8,2,5,63,98,2299345236
7714,15,Jits_Phase_8,3,5,80,127,2299354536
7714,15,Jits_Phase_8,0,1,48,38,2299897032
7714,15,Jits_Phase_8,1,5,56,103,2300105052
7714,15,Jits_Phase_8,2,5,63,98,2300214592
7714,15,Jits_Phase_8,3,5,80,127,2300235272
7714,15,Jits_Phase_8,0,1,48,38,2300823216
7714,15,Jits_Phase_8,1,5,63,98,2300904904
7714,15,Jits_Phase_8,2,5,80,127,2300955088
7714,15,Jits_Phase_8,3,5,56,103,2301045096
7714,15,Jits_Phase_8,0,1,48,45,2301678404
7714,15,Jits_Phase_8,1,5,63,98,2301695292
7714,15,Jits_Phase_8,2,5,80,127,2301724896
7714,15,Jits_Phase_8,3,5,56,103,2301815184
7714,15,Jits_Phase_8,0,1,48,41,2302474796
7714,15,Jits_Phase_8,1,5,63,98,2302495124
7714,15,Jits_Phase_8,2,5,56,103,2302505468
7714,15,Jits_Phase_8,3,5,80,127,2302604528
7714,15,Jits_Phase_8,0,1,48,34,2303173860
7714,15,Jits_Phase_8,1,5,63,98,2303395284
7714,15,Jits_Phase_8,2,5,80,127,2303424812
7714,15,Jits_Phase_8,3,5,56,103,2303454560
7714,15,Jits_Phase_8,0,1,48,42,2304006964
7714,15,Jits_Phase_8,1,5,80,127,2304215360
7714,15,Jits_Phase_8,2,5,63,98,2304224656
7714,15,Jits_Phase_8,3,5,56,103,2304255304
7714,15,Jits_Phase_8,0,1,48,40,2304868308
7714,15,Jits_Phase_8,1,5,80,127,2304914892
7714,15,Jits_Phase_8,2,5,63,98,2304935276
7714,15,Jits_Phase_8,3,5,56,103,2304984564
7714,15,Jits_Phase_8,0,1,48,39,2305628804
7714,15,Jits_Phase_8,1,5,63,98,2305745200
7714,15,Jits_Phase_8,2,5,80,127,2305804768
7714,15,Jits_Phase_8,3,5,56,103,2305825076
7714,15,Jits_Phase_8,0,1,48,43,2306452404
7714,15,Jits_Phase_8,1,5,63,98,2306504968
7714,15,Jits_Phase_8,2,5,56,103,2306555152
7714,15,Jits_Phase_8,3,5,80,127,2306564600
7714,15,Jits_Phase_8,0,1,48,40,2307243264
7714,15,Jits_Phase_8,1,5,56,103,2307334612
7714,15,Jits_Phase_8,2,5,80,127,2307345164
7714,15,Jits_Phase_8,3,5,63,98,2307445064
7714,15,Jits_Phase_8,0,1,48,43,2308055600
7714,15,Jits_Phase_8,1,5,80,127,2308095336
7714,15,Jits_Phase_8,2,5,63,98,2308104780
7714,15,Jits_Phase_8,3,5,56,103,2308255004
7714,15,Jits_Phase_8,0,1,48,42,2308801556
7714,15,Jits_Phase_8,1,5,63,98,2308905192
7714,15,Jits_Phase_8,2,5,80,127,2308945280
7714,15,Jits_Phase_8,3,5,56,103,2309025172
7714,15,Jits_Phase_8,0,1,48,43,2309620044
7714,15,Jits_Phase_8,1,5,56,103,2309654992
7714,15,Jits_Phase_8,2,5,80,127,2309755172
7714,15,Jits_Phase_8,3,5,63,98,2309774956
7714,15,Jits_Phase_8,0,1,48,42,2310382884
7714,15,Jits_Phase_8,1,5,80,127,2310475056
7714,15,Jits_Phase_8,2,5,56,103,2310485240
7714,15,Jits_Phase_8,3,5,63,98,2310574348
7714,15,Jits_Phase_8,0,1,48,40,2311120516
7714,15,Jits_Phase_8,1,5,56,103,2311274804
7714,15,Jits_Phase_8,2,5,63,98,2311295436
7714,15,Jits_Phase_8,3,5,80,127,2311375228
7714,15,Jits_Phase_8,0,1,48,39,2311861392
7714,15,Jits_Phase_8,1,5,63,98,2312024292
7714,15,Jits_Phase_8,2,5,56,103,2312114600
7714,15,Jits_Phase_8,3,5,80,127,2312117888
7714,15,Jits_Phase_8,0,1,48,35,2312593424
7714,15,Jits_Phase_8,1,5,56,103,2312854860
7714,15,Jits_Phase_8,2,5,80,127,2312915324
7714,15,Jits_Phase_8,3,5,63,98,2312924620
7714,15,Jits_Phase_8,0,1,48,41,2313471980
7714,15,Jits_Phase_8,1,5,80,127,2313704964
7714,15,Jits_Phase_8,2,5,56,103,2313715232
7714,15,Jits_Phase_8,3,5,63,98,2313718224
7714,15,Jits_Phase_8,0,1,48,40,2314427828
7714,15,Jits_Phase_8,1,5,56,103,2314464792
7714,15,Jits_Phase_8,2,5,80,127,2314474840
7714,15,Jits_Phase_8,3,5,63,98,2314495224
7714,15,Jits_Phase_8,0,1,48,40,2315168392
7714,15,Jits_Phase_8,1,5,63,98,2315234804
7714,15,Jits_Phase_8,2,5,80,127,2315295032
7714,15,Jits_Phase_8,3,5,56,103,2315345308
7714,15,Jits_Phase_8,0,1,48,38,2315968152
7714,15,Jits_Phase_8,1,5,63,98,2316115240
7714,15,Jits_Phase_8,2,5,56,103,2316124540
7714,15,Jits_Phase_8,3,5,80,127,2316174840
7714,15,Jits_Phase_8,0,1,48,42,2316789048
7714,15,Jits_Phase_8,1,5,63,98,2316814700
7714,15,Jits_Phase_8,2,5,80,127,2316835312
7714,15,Jits_Phase_8,3,5,56,103,2316845508
7714,15,Jits_Phase_8,0,1,48,40,2317527292
7714,15,Jits_Phase_8,1,5,63,98,2317614756
7714,15,Jits_Phase_8,2,5,80,127,2317617892
7714,15,Jits_Phase_8,3,5,56,103,2317655348
7714,15,Jits_Phase_8,0,1,48,44,2318362456
7714,15,Jits_Phase_8,1,5,63,98,2318484852
7714,15,Jits_Phase_8,2,5,80,127,2318514676
7714,15,Jits_Phase_8,3,5,56,103,2318524648
7714,15,Jits_Phase_8,0,1,48,35,2319151208
7714,15,Jits_Phase_8,1,5,56,103,2319234352
7714,15,Jits_Phase_8,2,5,80,127,2319265136
7714,15,Jits_Phase_8,3,5,63,98,2319294808
7714,15,Jits_Phase_8,0,1,48,40,2319874700
7714,15,Jits_Phase_8,1,5,63,98,2320134488
7714,15,Jits_Phase_8,2,5,56,103,2320174724
7714,15,Jits_Phase_8,3,5,80,127,2320177716
7714,15,Jits_Phase_8,0,1,48,41,2320708760
7714,15,Jits_Phase_8,1,5,80,127,2320834892
7714,15,Jits_Phase_8,2,5,56,103,2320914764
7714,15,Jits_Phase_8,3,5,63,98,2320965040
7714,15,Jits_Phase_8,0,1,48,40,2321544884
7714,15,Jits_Phase_8,1,5,80,127,2321615408
7714,15,Jits_Phase_8,2,5,56,103,2321634524
7714,15,Jits_Phase_8,3,5,63,98,2321724716
7714,15,Jits_Phase_8,0,1,48,41,2322346884
7714,15,Jits_Phase_8,1,5,80,127,2322454788
7714,15,Jits_Phase_8,2,5,63,98,2322494876
7714,15,Jits_Phase_8,3,5,56,103,2322534736
7714,15,Jits_Phase_8,0,1,48,40,2323131348
7714,15,Jits_Phase_8,1,5,63,98,2323264736
7714,15,Jits_Phase_8,2,5,80,127,2323325452
7714,15,Jits_Phase_8,3,5,56,103,2323355052
7714,15,Jits_Phase_8,0,1,48,40,2323945652
7714,15,Jits_Phase_8,1,5,56,103,2324104744
7714,15,Jits_Phase_8,2,5,80,127,2324135692
7714,15,Jits_Phase_8,3,5,63,98,2324225524
7714,15,Jits_Phase_8,0,1,48,43,2324769972
7714,15,Jits_Phase_8,1,5,56,103,2324914540
7714,15,Jits_Phase_8,2,5,80,127,2325025276
7714,15,Jits_Phase_8,3,5,63,98,2325054728
7714,15,Jits_Phase_8,0,1,48,46,2325681988
7714,15,Jits_Phase_8,1,5,56,103,2325764592
7714,15,Jits_Phase_8,2,5,63,98,2325824820
7714,15,Jits_Phase_8,3,5,80,127,2325854568
7714,15,Jits_Phase_8,0,1,48,44,2326468572
7714,15,Jits_Phase_8,1,5,56,103,2326534464
7714,15,Jits_Phase_8,2,5,63,98,2326605028
7714,15,Jits_Phase_8,3,5,80,127,2326624588
7714,15,Jits_Phase_8,0,1,48,46,2327238820
7714,15,Jits_Phase_8,1,5,80,127,2327304628
7714,15,Jits_Phase_8,2,5,63,98,2327325240
7714,15,Jits_Phase_8,3,5,56,103,2327375496
7714,15,Jits_Phase_8,0,1,48,45,2328022548
7714,15,Jits_Phase_8,1,5,63,98,2328124748
7714,15,Jits_Phase_8,2,5,80,127,2328134940
7714,15,Jits_Phase_8,3,5,56,103,2328185316
7714,15,Jits_Phase_8,0,1,48,48,2328836904
7714,15,Jits_Phase_8,1,5,63,98,2328924664
7714,15,Jits_Phase_8,2,5,80,127,2328995328
7714,15,Jits_Phase_8,3,5,56,103,2329014520
7714,15,Jits_Phase_8,0,1,48,46,2329641968
7714,15,Jits_Phase_8,1,5,63,98,2329755000
7714,15,Jits_Phase_8,2,5,80,127,2329758216
7714,15,Jits_Phase_8,3,5,56,103,2329824604
7714,15,Jits_Phase_8,0,1,48,46,2330495476
7714,15,Jits_Phase_8,1,5,80,127,2330504564
7714,15,Jits_Phase_8,2,5,56,103,2330525024
7714,15,Jits_Phase_8,3,5,63,98,2330535668
7714,15,Jits_Phase_8,0,1,48,44,2331248096
7714,15,Jits_Phase_8,1,5,56,103,2331324920
7714,15,Jits_Phase_8,2,5,63,98,2331415036
7714,15,Jits_Phase_8,3,5,80,127,2331418552
7714,15,Jits_Phase_8,0,1,48,42,2332079832
7714,15,Jits_Phase_8,1,5,80,127,2332094852
7714,15,Jits_Phase_8,2,5,56,103,2332105120
7714,15,Jits_Phase_8,3,5,63,98,2332124532
7714,15,Jits_Phase_8,0,5,63,98,2332894536
7714,15,Jits_Phase_8,1,1,48,43,2332913092
7714,15,Jits_Phase_8,2,5,80,127,2332954844
7714,15,Jits_Phase_8,3,5,56,103,2332965488
7714,15,Jits_Phase_8,0,1,48,38,2333624728
7714,15,Jits_Phase_8,1,5,63,98,2333765064
7714,15,Jits_Phase_8,2,5,80,127,2333794892
7714,15,Jits_Phase_8,3,5,56,103,2333834704
7714,15,Jits_Phase_8,0,1,48,39,2334450856
7714,15,Jits_Phase_8,1,5,56,103,2334554416
7714,15,Jits_Phase_8,2,5,80,127,2334564908
7714,15,Jits_Phase_8,3,5,63,98,2334604796
7714,15,Jits_Phase_8,0,1,48,41,2335277292
7714,15,Jits_Phase_8,1,5,80,127,2335315376
7714,15,Jits_Phase_8,2,5,56,103,2335395480
7714,15,Jits_Phase_8,3,5,63,98,2335405528
7714,15,Jits_Phase_8,0,1,48,41,2336044240
7714,15,Jits_Phase_8,1,5,80,127,2336165492
7714,15,Jits_Phase_8,2,5,56,103,2336245288
7714,15,Jits_Phase_8,3,5,63,98,2336255336
7714,15,Jits_Phase_8,0,1,48,43,2336897296
7714,15,Jits_Phase_8,1,5,80,127,2337004896
7714,15,Jits_Phase_8,2,5,56,103,2337055244
7714,15,Jits_Phase_8,3,5,63,98,2337105596
7714,15,Jits_Phase_8,0,1,48,46,2337879176
7714,15,Jits_Phase_8,1,5,56,103,2337944932
7714,15,Jits_Phase_8,2,5,63,98,2337948148
7714,15,Jits_Phase_8,3,5,80,127,2337995268
7714,15,Jits_Phase_8,0,1,48,40,2338672424
7714,15,Jits_Phase_8,1,5,56,103,2338765288
7714,15,Jits_Phase_8,2,5,63,98,2338794728
7714,15,Jits_Phase_8,3,5,80,127,2338805072
7714,15,Jits_Phase_8,0,1,48,44,2339411480
7714,15,Jits_Phase_8,1,5,63,98,2339474852
7714,15,Jits_Phase_8,2,5,56,103,2339544372
7714,15,Jits_Phase_8,3,5,80,127,2339594644
7714,15,Jits_Phase_8,0,1,48,39,2340219064
7714,15,Jits_Phase_8,1,5,63,98,2340305328
7714,15,Jits_Phase_8,2,5,56,103,2340315148
7714,15,Jits_Phase_8,3,5,80,127,2340318196
7714,15,Jits_Phase_8,0,1,48,40,2340969036
7714,15,Jits_Phase_8,1,5,80,127,2341054804
7714,15,Jits_Phase_8,2,5,56,103,2341115328
7714,15,Jits_Phase_8,3,5,63,98,2341205308
7714,15,Jits_Phase_8,0,1,48,35,2341821184
7714,15,Jits_Phase_8,1,5,80,127,2341854560
7714,15,Jits_Phase_8,2,5,56,103,2341954944
7714,15,Jits_Phase_8,3,5,63,98,2341994804
7714,15,Jits_Phase_8,0,1,48,41,2342636988
7714,15,Jits_Phase_8,1,5,56,103,2342704592
7714,15,Jits_Phase_8,2,5,63,98,2342724904
7714,15,Jits_Phase_8,3,5,80,127,2342764900
7714,15,Jits_Phase_8,0,1,48,40,2343465888
7714,15,Jits_Phase_8,1,5,63,98,2343474532
7714,15,Jits_Phase_8,2,5,56,103,2343495140
7714,15,Jits_Phase_8,3,5,80,127,2343595320
7714,15,Jits_Phase_8,0,1,48,38,2344176936
7714,15,Jits_Phase_8,1,5,63,98,2344265220
7714,15,Jits_Phase_8,2,5,80,127,2344374696
7714,15,Jits_Phase_8,3,5,56,103,2344405492
7714,15,Jits_Phase_8,0,1,48,34,2344853684
7714,15,Jits_Phase_8,1,5,56,103,2345085220
7714,15,Jits_Phase_8,2,5,63,98,2345115268
7714,15,Jits_Phase_8,3,5,80,127,2345165396
7714,15,Jits_Phase_8,0,1,48,38,2345716664
7714,15,Jits_Phase_8,1,5,63,98,2345855384
7714,15,Jits_Phase_8,2,5,56,103,2345884984
7714,15,Jits_Phase_8,3,5,80,127,2345935260
7714,15,Jits_Phase_8,0,1,48,39,2346489892
7714,15,Jits_Phase_8,1,5,56,103,2346684732
7714,15,Jits_Phase_8,2,5,63,98,2346705192
7714,15,Jits_Phase_8,3,5,80,127,2346785280
7714,15,Jits_Phase_8,0,1,48,39,2347381152
7714,15,Jits_Phase_8,1,5,63,98,2347454908
7714,15,Jits_Phase_8,2,5,56,103,2347515212
7714,15,Jits_Phase_8,3,5,80,127,2347545256
7714,15,Jits_Phase_8,0,1,48,36,2348163092
7714,15,Jits_Phase_8,1,5,56,103,2348294436
7714,15,Jits_Phase_8,2,5,80,127,2348355124
7714,15,Jits_Phase_8,3,5,63,98,2348394988
7714,15,Jits_Phase_8,0,1,48,44,2349006152
7714,15,Jits_Phase_8,1,5,63,98,2349074656
7714,15,Jits_Phase_8,2,5,56,103,2349135108
7714,15,Jits_Phase_8,3,5,80,127,2349204960
7714,15,Jits_Phase_8,0,1,48,41,2349848460
7714,15,Jits_Phase_8,1,5,56,103,2349954292
7714,15,Jits_Phase_8,2,5,63,98,2349964784
7714,15,Jits_Phase_8,3,5,80,127,2349968076
7714,15,Jits_Phase_8,0,1,48,38,2350667468
7714,15,Jits_Phase_8,1,5,63,98,2350694844
7714,15,Jits_Phase_8,2,5,56,103,2350755032
7714,15,Jits_Phase_8,3,5,80,127,2350758328
7714,15,Jits_Phase_8,0,5,63,98,2351475000
7714,15,Jits_Phase_8,1,1,48,38,2351480140
7714,15,Jits_Phase_8,2,5,80,127,2351504820
7714,15,Jits_Phase_8,3,5,56,103,2351525276
7714,15,Jits_Phase_8,0,5,56,103,2352205052
7714,15,Jits_Phase_8,1,5,63,98,2352255428
7714,15,Jits_Phase_8,2,5,80,127,2352335076
7714,15,Jits_Phase_8,3,1,48,35,2352381780
7714,15,Jits_Phase_8,0,5,80,127,2352904596
7714,15,Jits_Phase_8,1,5,63,98,2352944532
7714,15,Jits_Phase_8,2,5,56,103,2352964992
7714,15,Jits_Phase_8,3,1,48,36,2353081548
7714,15,Jits_Phase_8,0,5,56,103,2353775112
7714,15,Jits_Phase_8,1,5,80,127,2353785160
7714,15,Jits_Phase_8,2,1,48,27,2353790596
7714,15,Jits_Phase_8,3,5,63,98,2353804640
7714,15,Jits_Phase_8,0,1,48,35,2354510244
7714,15,Jits_Phase_8,1,5,56,103,2354555180
7714,15,Jits_Phase_8,2,5,63,98,2354606416
7714,15,Jits_Phase_8,3,5,80,127,2354635116
7714,15,Jits_Phase_8,0,5,56,103,2355305024
7714,15,Jits_Phase_8,1,5,63,98,2355315316
7714,15,Jits_Phase_8,2,1,48,37,2355329524
7714,15,Jits_Phase_8,3,5,80,127,2355365288
7714,15,Jits_Phase_8,0,1,48,36,2356079680
7714,15,Jits_Phase_8,1,5,56,103,2356095288
7714,15,Jits_Phase_8,2,5,80,127,2356098432
7714,15,Jits_Phase_8,3,5,63,98,2356255152
7714,15,Jits_Phase_8,0,1,48,36,2356805684
7714,15,Jits_Phase_8,1,5,63,98,2356914580
7714,15,Jits_Phase_8,2,5,56,103,2356985236
7714,15,Jits_Phase_8,3,5,80,127,2357025248
7714,15,Jits_Phase_8,0,1,48,32,2357604096
7714,15,Jits_Phase_8,1,5,63,98,2357755244
7714,15,Jits_Phase_8,2,5,56,103,2357845224
7714,15,Jits_Phase_8,3,5,80,127,2357848372
7714,15,Jits_Phase_8,0,1,48,36,2358481856
7714,15,Jits_Phase_8,1,5,56,103,2358534416
7714,15,Jits_Phase_8,2,5,63,98,2358624756
7714,15,Jits_Phase_8,3,5,80,127,2358635252
7714,15,Jits_Phase_8,0,1,48,40,2359236752
7714,15,Jits_Phase_8,1,5,56,103,2359304432
7714,15,Jits_Phase_8,2,5,63,98,2359354844
7714,15,Jits_Phase_8,3,5,80,127,2359384372
7714,15,Jits_Phase_8,0,1,48,38,2360011548
7714,15,Jits_Phase_8,1,5,63,98,2360185264
7714,15,Jits_Phase_8,2,5,80,127,2360194340
7714,15,Jits_Phase_8,3,5,56,103,2360255100
7714,15,Jits_Phase_8,0,1,48,32,2360855452
7714,15,Jits_Phase_8,1,5,63,98,2360905000
7714,15,Jits_Phase_8,2,5,80,127,2360964504
7714,15,Jits_Phase_8,3,5,56,103,2361005564
7714,15,Jits_Phase_8,0,1,48,34,2361598336
7714,15,Jits_Phase_8,1,5,56,103,2361805160
7714,15,Jits_Phase_8,2,5,80,127,2361824500
7714,15,Jits_Phase_8,3,5,63,98,2361844960
7714,15,Jits_Phase_8,0,5,63,98,2362525156
7714,15,Jits_Phase_8,1,1,48,34,2362526124
7714,15,Jits_Phase_8,2,5,56,103,2362544416
7714,15,Jits_Phase_8,3,5,80,127,2362584352
7714,15,Jits_Phase_8,0,1,48,35,2363263744
7714,15,Jits_Phase_8,1,5,63,98,2363335172
7714,15,Jits_Phase_8,2,5,80,127,2363364904
7714,15,Jits_Phase_8,3,5,56,103,2363385288
7714,15,Jits_Phase_8,0,1,48,37,2364078260
7714,15,Jits_Phase_8,1,5,80,127,2364105108
7714,15,Jits_Phase_8,2,5,56,103,2364155308
7714,15,Jits_Phase_8,3,5,63,98,2364214784
7714,15,Jits_Phase_8,0,1,48,28,2364875248
7714,15,Jits_Phase_8,1,5,63,98,2364894748
7714,15,Jits_Phase_8,2,5,56,103,2365015360
7714,15,Jits_Phase_8,3,5,80,127,2365044988
7714,15,Jits_Phase_8,0,1,48,35,2365672688
7714,15,Jits_Phase_8,1,5,80,127,2365735340
7714,15,Jits_Phase_8,2,5,63,98,2365754976
7714,15,Jits_Phase_8,3,5,56,103,2365825268
7714,15,Jits_Phase_8,0,1,48,35,2366421704
7714,15,Jits_Phase_8,1,5,63,98,2366554340
7714,15,Jits_Phase_8,2,5,56,103,2366564908
7714,15,Jits_Phase_8,3,5,80,127,2366644876
7714,15,Jits_Phase_8,0,1,48,38,2367268004
7714,15,Jits_Phase_8,1,5,56,103,2367414736
7714,15,Jits_Phase_8,2,5,80,127,2367445312
7714,15,Jits_Phase_8,3,5,63,98,2367454536
7714,15,Jits_Phase_8,0,9999,9999,9999,2232573008
7714,15,Jits_Phase_8,1,9999,9999,9999,2233372776
7714,15,Jits_Phase_8,2,9999,9999,9999,2234172480
7714,15,Jits_Phase_8,3,9999,9999,9999,2234972252
7714,15,Jits_Phase_8,4,9999,9999,9999,2235773004
7714,15,Jits_Phase_8,5,9999,9999,9999,2236572764
7714,15,Jits_Phase_8,6,9999,9999,9999,2237372520
7714,15,Jits_Phase_8,7,9999,9999,9999,2238172280
7714,15,Jits_Phase_8,8,9999,9999,9999,2238973020
7714,15,Jits_Phase_8,9,9999,9999,9999,2239772764
7714,15,Jits_Phase_8,10,9999,9999,9999,2240572532
7714,15,Jits_Phase_8,11,9999,9999,9999,2241372224
7714,15,Jits_Phase_8,12,9999,9999,9999,2242172980
7714,15,Jits_Phase_8,13,9999,9999,9999,2242972732
7714,15,Jits_Phase_8,14,9999,9999,9999,2243772480
7714,15,Jits_Phase_8,15,9999,9999,9999,2244572228
7714,15,Jits_Phase_8,16,9999,9999,9999,2245373020
7714,15,Jits_Phase_8,17,9999,9999,9999,2246172780
7714,15,Jits_Phase_8,18,9999,9999,9999,2246972468
7714,15,Jits_Phase_8,19,9999,9999,9999,2247772228
7714,15,Jits_Phase_8,20,9999,9999,9999,2248573052
7714,15,Jits_Phase_8,21,9999,9999,9999,2249372732
7714,15,Jits_Phase_8,22,9999,9999,9999,2250172484
7714,15,Jits_Phase_8,23,9999,9999,9999,2250972244
7714,15,Jits_Phase_8,24,9999,9999,9999,2251773048
7714,15,Jits_Phase_8,25,9999,9999,9999,2252572732
7714,15,Jits_Phase_8,26,9999,9999,9999,2253372492
7714,15,Jits_Phase_8,27,9999,9999,9999,2254172248
7714,15,Jits_Phase_8,28,9999,9999,9999,2254973000
7714,15,Jits_Phase_8,29,9999,9999,9999,2255772764
7714,15,Jits_Phase_8,30,9999,9999,9999,2256553040
7714,15,Jits_Phase_8,31,9999,9999,9999,2257352800
7714,15,Jits_Phase_8,32,9999,9999,9999,2258152556
7714,15,Jits_Phase_8,33,9999,9999,9999,2258952304
7714,15,Jits_Phase_8,34,9999,9999,9999,2259753036
7714,15,Jits_Phase_8,35,9999,9999,9999,2260552804
7714,15,Jits_Phase_8,36,9999,9999,9999,2261352568
7714,15,Jits_Phase_8,37,9999,9999,9999,2262152268
7714,15,Jits_Phase_8,38,9999,9999,9999,2262953068
7714,15,Jits_Phase_8,39,9999,9999,9999,2263752828
7714,15,Jits_Phase_8,40,9999,9999,9999,2264552516
7714,15,Jits_Phase_8,41,9999,9999,9999,2265352252
7714,15,Jits_Phase_8,42,9999,9999,9999,2266153052
7714,15,Jits_Phase_8,43,9999,9999,9999,2266952800
7714,15,Jits_Phase_8,44,9999,9999,9999,2267752540
7714,15,Jits_Phase_8,45,9999,9999,9999,2268552320
7714,15,Jits_Phase_8,46,9999,9999,9999,2269353052
7714,15,Jits_Phase_8,47,9999,9999,9999,2270152776
7714,15,Jits_Phase_8,48,9999,9999,9999,2270972988
7714,15,Jits_Phase_8,49,9999,9999,9999,2271772744
7714,15,Jits_Phase_8,50,9999,9999,9999,2272572500
7714,15,Jits_Phase_8,51,9999,9999,9999,2273372260
7714,15,Jits_Phase_8,52,9999,9999,9999,2274173016
7714,15,Jits_Phase_8,53,9999,9999,9999,2274972784
7714,15,Jits_Phase_8,54,9999,9999,9999,2275772536
7714,15,Jits_Phase_8,55,9999,9999,9999,2276572236
7714,15,Jits_Phase_8,56,9999,9999,9999,2277373044
7714,15,Jits_Phase_8,57,9999,9999,9999,2278172724
7714,15,Jits_Phase_8,58,9999,9999,9999,2278972484
7714,15,Jits_Phase_8,59,9999,9999,9999,2279772236
7714,15,Jits_Phase_8,60,9999,9999,9999,2280572988
7714,15,Jits_Phase_8,61,9999,9999,9999,2281372756
7714,15,Jits_Phase_8,62,9999,9999,9999,2282172508
7714,15,Jits_Phase_8,63,9999,9999,9999,2282972256
7714,15,Jits_Phase_8,64,9999,9999,9999,2283812924
7714,15,Jits_Phase_8,65,9999,9999,9999,2284612688
7714,15,Jits_Phase_8,66,9999,9999,9999,2285412452
7714,15,Jits_Phase_8,67,9999,9999,9999,2286212168
7714,15,Jits_Phase_8,68,9999,9999,9999,2287012960
7714,15,Jits_Phase_8,69,9999,9999,9999,2287812720
7714,15,Jits_Phase_8,70,9999,9999,9999,2288612468
7714,15,Jits_Phase_8,71,9999,9999,9999,2289412164
7714,15,Jits_Phase_8,72,9999,9999,9999,2290212944
7714,15,Jits_Phase_8,73,9999,9999,9999,2291012704
7714,15,Jits_Phase_8,74,9999,9999,9999,2291812468
7714,15,Jits_Phase_8,75,9999,9999,9999,2292612184
7714,15,Jits_Phase_8,76,9999,9999,9999,2293412988
7714,15,Jits_Phase_8,77,9999,9999,9999,2294212676
7714,15,Jits_Phase_8,78,9999,9999,9999,2295012432
7714,15,Jits_Phase_8,79,9999,9999,9999,2295812184
7714,15,Jits_Phase_8,80,9999,9999,9999,2296612916
7714,15,Jits_Phase_8,81,9999,9999,9999,2297372744
7714,15,Jits_Phase_8,82,9999,9999,9999,2298172500
7714,15,Jits_Phase_8,83,9999,9999,9999,2298972256
7714,15,Jits_Phase_8,84,9999,9999,9999,2299773004
7714,15,Jits_Phase_8,85,9999,9999,9999,2300572764
7714,15,Jits_Phase_8,86,9999,9999,9999,2301372524
7714,15,Jits_Phase_8,87,9999,9999,9999,2302172280
7714,15,Jits_Phase_8,88,9999,9999,9999,2302973008
7714,15,Jits_Phase_8,89,9999,9999,9999,2303772776
7714,15,Jits_Phase_8,90,9999,9999,9999,2304572472
7714,15,Jits_Phase_8,91,9999,9999,9999,2305372224
7714,15,Jits_Phase_8,92,9999,9999,9999,2306172980
7714,15,Jits_Phase_8,93,9999,9999,9999,2306972732
7714,15,Jits_Phase_8,94,9999,9999,9999,2307772492
7714,15,Jits_Phase_8,95,9999,9999,9999,2308572248
7714,15,Jits_Phase_8,96,9999,9999,9999,2309373052
7714,15,Jits_Phase_8,97,9999,9999,9999,2310092876
7714,15,Jits_Phase_8,98,9999,9999,9999,2310892636
7714,15,Jits_Phase_8,99,9999,9999,9999,2311692396
7714,15,Jits_Phase_8,100,9999,9999,9999,2312492144
7714,15,Jits_Phase_8,101,9999,9999,9999,2313292876
7714,15,Jits_Phase_8,102,9999,9999,9999,2314092628
7714,15,Jits_Phase_8,103,9999,9999,9999,2314892404
7714,15,Jits_Phase_8,104,9999,9999,9999,2315692092
7714,15,Jits_Phase_8,105,9999,9999,9999,2316492904
7714,15,Jits_Phase_8,106,9999,9999,9999,2317292656
7714,15,Jits_Phase_8,107,9999,9999,9999,2318092396
7714,15,Jits_Phase_8,108,9999,9999,9999,2318892156
7714,15,Jits_Phase_8,109,9999,9999,9999,2319692880
7714,15,Jits_Phase_8,110,9999,9999,9999,2320492640
7714,15,Jits_Phase_8,111,9999,9999,9999,2321292344
7714,15,Jits_Phase_8,112,9999,9999,9999,2322092100
7714,15,Jits_Phase_8,113,9999,9999,9999,2322892904
7714,15,Jits_Phase_8,114,9999,9999,9999,2323772524
7714,15,Jits_Phase_8,115,9999,9999,9999,2324572284
7714,15,Jits_Phase_8,116,9999,9999,9999,2325373044
7714,15,Jits_Phase_8,117,9999,9999,9999,2326172732
7714,15,Jits_Phase_8,118,9999,9999,9999,2326972496
7714,15,Jits_Phase_8,119,9999,9999,9999,2327772248
7714,15,Jits_Phase_8,120,9999,9999,9999,2328573048
7714,15,Jits_Phase_8,121,9999,9999,9999,2329372736
7714,15,Jits_Phase_8,122,9999,9999,9999,2330172484
7714,15,Jits_Phase_8,123,9999,9999,9999,2330972232
7714,15,Jits_Phase_8,124,9999,9999,9999,2331772980
7714,15,Jits_Phase_8,125,9999,9999,9999,2332572728
7714,15,Jits_Phase_8,126,9999,9999,9999,2333372484
7714,15,Jits_Phase_8,127,9999,9999,9999,2334172248
7714,15,Jits_Phase_8,128,9999,9999,9999,2334973052
7714,15,Jits_Phase_8,129,9999,9999,9999,2335772736
7714,15,Jits_Phase_8,130,9999,9999,9999,2336572504
7714,15,Jits_Phase_8,131,9999,9999,9999,2337532984
7714,15,Jits_Phase_8,132,9999,9999,9999,2338332736
7714,15,Jits_Phase_8,133,9999,9999,9999,2339132504
7714,15,Jits_Phase_8,134,9999,9999,9999,2339932264
7714,15,Jits_Phase_8,135,9999,9999,9999,2340733008
7714,15,Jits_Phase_8,136,9999,9999,9999,2341532764
7714,15,Jits_Phase_8,137,9999,9999,9999,2342332524
7714,15,Jits_Phase_8,138,9999,9999,9999,2343132284
7714,15,Jits_Phase_8,139,9999,9999,9999,2343933012
7714,15,Jits_Phase_8,140,9999,9999,9999,2344732772
7714,15,Jits_Phase_8,141,9999,9999,9999,2345532532
7714,15,Jits_Phase_8,142,9999,9999,9999,2346332284
7714,15,Jits_Phase_8,143,9999,9999,9999,2347133040
7714,15,Jits_Phase_8,144,9999,9999,9999,2347932796
7714,15,Jits_Phase_8,145,9999,9999,9999,2348732480
7714,15,Jits_Phase_8,146,9999,9999,9999,2349532240
7714,15,Jits_Phase_8,147,9999,9999,9999,2350333040
7714,15,Jits_Phase_8,148,9999,9999,9999,2351132792
7714,15,Jits_Phase_8,149,9999,9999,9999,2351932476
7714,15,Jits_Phase_8,150,9999,9999,9999,2352572512
7714,15,Jits_Phase_8,151,9999,9999,9999,2353372284
7714,15,Jits_Phase_8,152,9999,9999,9999,2354173032
7714,15,Jits_Phase_8,153,9999,9999,9999,2354972732
7714,15,Jits_Phase_8,154,9999,9999,9999,2355772484
7714,15,Jits_Phase_8,155,9999,9999,9999,2356572248
7714,15,Jits_Phase_8,156,9999,9999,9999,2357373004
7714,15,Jits_Phase_8,157,9999,9999,9999,2358172756
7714,15,Jits_Phase_8,158,9999,9999,9999,2358972520
7714,15,Jits_Phase_8,159,9999,9999,9999,2359772276
7714,15,Jits_Phase_8,160,9999,9999,9999,2360573016
7714,15,Jits_Phase_8,161,9999,9999,9999,2361372772
7714,15,Jits_Phase_8,162,9999,9999,9999,2362172536
7714,15,Jits_Phase_8,163,9999,9999,9999,2362972220
7714,15,Jits_Phase_8,164,9999,9999,9999,2363773048
7714,15,Jits_Phase_8,165,9999,9999,9999,2364572728
7714,15,Jits_Phase_8,166,9999,9999,9999,2365372492
7714,15,Jits_Phase_8,167,9999,9999,9999,2366172248
7714,15,Jits_Phase_8,168,9999,9999,9999,2366973056
7714,15,Jits_Phase_8,169,9999,9999,9999,2367772748
7715,17,Jits_Phase_5,0,5,56,103,2377141764
7715,17,Jits_Phase_5,1,5,63,98,2377144868
7715,17,Jits_Phase_5,2,5,80,127,2377148060
7715,17,Jits_Phase_5,0,5,56,103,2377642444
7715,17,Jits_Phase_5,1,5,63,98,2377645548
7715,17,Jits_Phase_5,2,5,80,127,2377648664
7715,17,Jits_Phase_5,0,1,48,33,2378139900
7715,17,Jits_Phase_5,1,5,56,103,2378142088
7715,17,Jits_Phase_5,2,5,80,127,2378152584
7715,17,Jits_Phase_5,3,5,63,98,2378171696
7715,17,Jits_Phase_5,0,5,63,98,2378591776
7715,17,Jits_Phase_5,1,1,48,29,2378622820
7715,17,Jits_Phase_5,2,5,80,127,2378624016
7715,17,Jits_Phase_5,3,5,56,103,2378631664
7715,17,Jits_Phase_5,0,1,48,29,2379101464
7715,17,Jits_Phase_5,1,5,80,127,2379151856
7715,17,Jits_Phase_5,2,5,56,103,2379161976
7715,17,Jits_Phase_5,3,5,63,98,2379191724
7715,17,Jits_Phase_5,0,5,63,98,2379642176
7715,17,Jits_Phase_5,1,1,48,36,2379645148
7715,17,Jits_Phase_5,2,5,56,103,2379671920
7715,17,Jits_Phase_5,3,5,80,127,2379682112
7715,17,Jits_Phase_5,0,5,56,103,2380091784
7715,17,Jits_Phase_5,1,1,48,23,2380094228
7715,17,Jits_Phase_5,2,5,63,98,2380142000
7715,17,Jits_Phase_5,3,5,80,127,2380162684
7715,17,Jits_Phase_5,0,1,48,32,2380553748
7715,17,Jits_Phase_5,1,5,80,127,2380591756
7715,17,Jits_Phase_5,2,5,63,98,2380641808
7715,17,Jits_Phase_5,3,5,56,103,2380681456
7715,17,Jits_Phase_5,0,1,48,40,2381076868
7715,17,Jits_Phase_5,1,5,56,103,2381092108
7715,17,Jits_Phase_5,2,5,63,98,2381122008
7715,17,Jits_Phase_5,3,5,80,127,2381191544
7715,17,Jits_Phase_5,0,1,48,38,2381559160
7715,17,Jits_Phase_5,1,5,56,103,2381591784
7715,17,Jits_Phase_5,2,5,80,127,2381652472
7715,17,Jits_Phase_5,3,5,63,98,2381682008
7715,17,Jits_Phase_5,0,1,48,36,2382038532
7715,17,Jits_Phase_5,1,5,56,103,2382101800
7715,17,Jits_Phase_5,2,5,63,98,2382112368
7715,17,Jits_Phase_5,3,5,80,127,2382152140
7715,17,Jits_Phase_5,0,1,48,38,2382504868
7715,17,Jits_Phase_5,1,5,63,98,2382592480
7715,17,Jits_Phase_5,2,5,80,127,2382672332
7715,17,Jits_Phase_5,3,5,56,103,2382681556
7715,17,Jits_Phase_5,0,1,48,40,2383037656
7715,17,Jits_Phase_5,1,5,63,98,2383142412
7715,17,Jits_Phase_5,2,5,56,103,2383182272
7715,17,Jits_Phase_5,3,5,80,127,2383185488
7715,17,Jits_Phase_5,0,1,48,39,2383526760
7715,17,Jits_Phase_5,1,5,56,103,2383602012
7715,17,Jits_Phase_5,2,5,63,98,2383612580
7715,17,Jits_Phase_5,3,5,80,127,2383652352
7715,17,Jits_Phase_5,0,1,48,41,2384047784
7715,17,Jits_Phase_5,1,5,56,103,2384091720
7715,17,Jits_Phase_5,2,5,63,98,2384094712
7715,17,Jits_Phase_5,3,5,80,127,2384112028
7715,17,Jits_Phase_5,0,1,48,40,2384538524
7715,17,Jits_Phase_5,1,5,80,127,2384601720
7715,17,Jits_Phase_5,2,5,56,103,2384611840
7715,17,Jits_Phase_5,3,5,63,98,2384682700
7715,17,Jits_Phase_5,0,1,48,38,2385022852
7715,17,Jits_Phase_5,1,5,63,98,2385091808
7715,17,Jits_Phase_5,2,5,56,103,2385113892
7715,17,Jits_Phase_5,3,5,80,127,2385192560
7715,17,Jits_Phase_5,0,1,48,39,2385511416
7715,17,Jits_Phase_5,1,5,56,103,2385601892
7715,17,Jits_Phase_5,2,5,80,127,2385641964
7715,17,Jits_Phase_5,3,5,63,98,2385652236
7715,17,Jits_Phase_5,0,1,48,36,2385986884
7715,17,Jits_Phase_5,1,5,80,127,2386092408
7715,17,Jits_Phase_5,2,5,63,98,2386122232
7715,17,Jits_Phase_5,3,5,56,103,2386162096
7715,17,Jits_Phase_5,0,1,48,38,2386530988
7715,17,Jits_Phase_5,1,5,56,103,2386621764
7715,17,Jits_Phase_5,2,5,63,98,2386651648
7715,17,Jits_Phase_5,3,5,80,127,2386701696
7715,17,Jits_Phase_5,0,1,48,34,2387040336
7715,17,Jits_Phase_5,1,5,80,127,2387121516
7715,17,Jits_Phase_5,2,5,56,103,2387161736
7715,17,Jits_Phase_5,3,5,63,98,2387171636
7715,17,Jits_Phase_5,0,1,48,37,2387554312
7715,17,Jits_Phase_5,1,5,80,127,2387601712
7715,17,Jits_Phase_5,2,5,63,98,2387641576
7715,17,Jits_Phase_5,3,5,56,103,2387702316
7715,17,Jits_Phase_5,0,1,48,37,2388059388
7715,17,Jits_Phase_5,1,5,56,103,2388101612
7715,17,Jits_Phase_5,2,5,80,127,2388111732
7715,17,Jits_Phase_5,3,5,63,98,2388191732
7715,17,Jits_Phase_5,0,1,48,36,2388562576
7715,17,Jits_Phase_5,1,5,80,127,2388602180
7715,17,Jits_Phase_5,2,5,63,98,2388661808
7715,17,Jits_Phase_5,3,5,56,103,2388692604
7715,17,Jits_Phase_5,0,1,48,37,2389098800
7715,17,Jits_Phase_5,1,5,56,103,2389102152
7715,17,Jits_Phase_5,2,5,80,127,2389162468
7715,17,Jits_Phase_5,3,5,63,98,2389202392
7715,17,Jits_Phase_5,0,1,48,30,2389576604
7715,17,Jits_Phase_5,1,5,56,103,2389651804
7715,17,Jits_Phase_5,2,5,63,98,2389662148
7715,17,Jits_Phase_5,3,5,80,127,2389665512
7715,17,Jits_Phase_5,0,1,48,38,2390097620
7715,17,Jits_Phase_5,1,5,80,127,2390102448
7715,17,Jits_Phase_5,2,5,63,98,2390191484
7715,17,Jits_Phase_5,3,5,56,103,2390201664
7715,17,Jits_Phase_5,0,1,48,38,2390594760
7715,17,Jits_Phase_5,1,5,56,103,2390612448
7715,17,Jits_Phase_5,2,5,63,98,2390615468
7715,17,Jits_Phase_5,3,5,80,127,2390618592
7715,17,Jits_Phase_5,0,1,48,36,2391019472
7715,17,Jits_Phase_5,1,5,80,127,2391131504
7715,17,Jits_Phase_5,2,5,63,98,2391181656
7715,17,Jits_Phase_5,3,5,56,103,2391212452
7715,17,Jits_Phase_5,0,1,48,37,2391597528
7715,17,Jits_Phase_5,1,5,56,103,2391611868
7715,17,Jits_Phase_5,2,5,80,127,2391622512
7715,17,Jits_Phase_5,3,5,63,98,2391691616
7715,17,Jits_Phase_5,0,1,48,39,2392118772
7715,17,Jits_Phase_5,1,5,56,103,2392121652
7715,17,Jits_Phase_5,2,5,63,98,2392142336
7715,17,Jits_Phase_5,3,5,80,127,2392201552
7715,17,Jits_Phase_5,0,5,80,127,2392601856
7715,17,Jits_Phase_5,1,1,48,34,2392635688
7715,17,Jits_Phase_5,2,5,63,98,2392671604
7715,17,Jits_Phase_5,3,5,56,103,2392691940
7715,17,Jits_Phase_5,0,1,48,33,2393117312
7715,17,Jits_Phase_5,1,5,80,127,2393122436
7715,17,Jits_Phase_5,2,5,56,103,2393132560
7715,17,Jits_Phase_5,3,5,63,98,2393141560
7715,17,Jits_Phase_5,0,5,80,127,2393611780
7715,17,Jits_Phase_5,1,1,48,38,2393614152
7715,17,Jits_Phase_5,2,5,56,103,2393632084
7715,17,Jits_Phase_5,3,5,63,98,2393701836
7715,17,Jits_Phase_5,0,1,48,35,2394091432
7715,17,Jits_Phase_5,1,5,56,103,2394121576
7715,17,Jits_Phase_5,2,5,80,127,2394152448
7715,17,Jits_Phase_5,3,5,63,98,2394171784
7715,17,Jits_Phase_5,0,1,48,37,2394587128
7715,17,Jits_Phase_5,1,5,63,98,2394612036
7715,17,Jits_Phase_5,2,5,56,103,2394671604
7715,17,Jits_Phase_5,3,5,80,127,2394702532
7715,17,Jits_Phase_5,0,1,48,36,2395044408
7715,17,Jits_Phase_5,1,5,63,98,2395101600
7715,17,Jits_Phase_5,2,5,80,127,2395104964
7715,17,Jits_Phase_5,3,5,56,103,2395191636
7715,17,Jits_Phase_5,0,1,48,41,2395537476
7715,17,Jits_Phase_5,1,5,56,103,2395621792
7715,17,Jits_Phase_5,2,5,63,98,2395651376
7715,17,Jits_Phase_5,3,5,80,127,2395692508
7715,17,Jits_Phase_5,0,1,48,38,2396000200
7715,17,Jits_Phase_5,1,5,63,98,2396121456
7715,17,Jits_Phase_5,2,5,56,103,2396162440
7715,17,Jits_Phase_5,3,5,80,127,2396181848
7715,17,Jits_Phase_5,0,1,48,38,2396533384
7715,17,Jits_Phase_5,1,5,63,98,2396632512
7715,17,Jits_Phase_5,2,5,56,103,2396672304
7715,17,Jits_Phase_5,3,5,80,127,2396681676
7715,17,Jits_Phase_5,0,1,48,37,2397074116
7715,17,Jits_Phase_5,1,5,80,127,2397111604
7715,17,Jits_Phase_5,2,5,63,98,2397182540
7715,17,Jits_Phase_5,3,5,56,103,2397201804
7715,17,Jits_Phase_5,0,5,56,103,2397602296
7715,17,Jits_Phase_5,1,5,80,127,2397621564
7715,17,Jits_Phase_5,2,1,48,38,2397636212
7715,17,Jits_Phase_5,3,5,63,98,2397661492
7715,17,Jits_Phase_5,0,5,63,98,2398112176
7715,17,Jits_Phase_5,1,5,80,127,2398131664
7715,17,Jits_Phase_5,2,1,48,40,2398160708
7715,17,Jits_Phase_5,3,5,56,103,2398171592
7715,17,Jits_Phase_5,0,1,48,36,2398611776
7715,17,Jits_Phase_5,1,5,63,98,2398613336
7715,17,Jits_Phase_5,2,5,56,103,2398632452
7715,17,Jits_Phase_5,3,5,80,127,2398641452
7715,17,Jits_Phase_5,0,1,48,34,2399081804
7715,17,Jits_Phase_5,1,5,80,127,2399111520
7715,17,Jits_Phase_5,2,5,56,103,2399132276
7715,17,Jits_Phase_5,3,5,63,98,2399161652
7715,17,Jits_Phase_5,0,1,48,37,2399575700
7715,17,Jits_Phase_5,1,5,56,103,2399682048
7715,17,Jits_Phase_5,2,5,80,127,2399685188
7715,17,Jits_Phase_5,3,5,63,98,2399702432
7715,17,Jits_Phase_5,0,1,48,36,2400094556
7715,17,Jits_Phase_5,1,5,63,98,2400101848
7715,17,Jits_Phase_5,2,5,56,103,2400131476
7715,17,Jits_Phase_5,3,5,80,127,2400191772
7715,17,Jits_Phase_5,0,1,48,36,2400582920
7715,17,Jits_Phase_5,1,5,63,98,2400682296
7715,17,Jits_Phase_5,2,5,56,103,2400691520
7715,17,Jits_Phase_5,3,5,80,127,2400701716
7715,17,Jits_Phase_5,0,1,48,42,2401106344
7715,17,Jits_Phase_5,1,5,56,103,2401142360
7715,17,Jits_Phase_5,2,5,80,127,2401171812
7715,17,Jits_Phase_5,3,5,63,98,2401182228
7715,17,Jits_Phase_5,0,1,48,37,2401607744
7715,17,Jits_Phase_5,1,5,63,98,2401681820
7715,17,Jits_Phase_5,2,5,56,103,2401692164
7715,17,Jits_Phase_5,3,5,80,127,2401711416
7715,17,Jits_Phase_5,0,1,48,36,2402100164
7715,17,Jits_Phase_5,1,5,56,103,2402111948
7715,17,Jits_Phase_5,2,5,63,98,2402172288
7715,17,Jits_Phase_5,3,5,80,127,2402175576
7715,17,Jits_Phase_5,0,1,48,38,2402546848
7715,17,Jits_Phase_5,1,5,80,127,2402632060
7715,17,Jits_Phase_5,2,5,56,103,2402642912
7715,17,Jits_Phase_5,3,5,63,98,2402711792
7715,17,Jits_Phase_5,0,1,48,38,2403070432
7715,17,Jits_Phase_5,1,5,80,127,2403121400
7715,17,Jits_Phase_5,2,5,56,103,2403192284
7715,17,Jits_Phase_5,3,5,63,98,2403202480
7715,17,Jits_Phase_5,0,1,48,39,2403607480
7715,17,Jits_Phase_5,1,5,63,98,2403662132
7715,17,Jits_Phase_5,2,5,56,103,2403672328
7715,17,Jits_Phase_5,3,5,80,127,2403691912
7715,17,Jits_Phase_5,0,1,48,37,2404100284
7715,17,Jits_Phase_5,1,5,80,127,2404111688
7715,17,Jits_Phase_5,2,5,63,98,2404172152
7715,17,Jits_Phase_5,3,5,56,103,2404212396
7715,17,Jits_Phase_5,0,1,48,38,2404561220
7715,17,Jits_Phase_5,1,5,56,103,2404652344
7715,17,Jits_Phase_5,2,5,63,98,2404661704
7715,17,Jits_Phase_5,3,5,80,127,2404701640
7715,17,Jits_Phase_5,0,1,48,41,2405067700
7715,17,Jits_Phase_5,1,5,56,103,2405112164
7715,17,Jits_Phase_5,2,5,80,127,2405141988
7715,17,Jits_Phase_5,3,5,63,98,2405192248
7715,17,Jits_Phase_5,0,1,48,40,2405555248
7715,17,Jits_Phase_5,1,5,56,103,2405651756
7715,17,Jits_Phase_5,2,5,63,98,2405691692
7715,17,Jits_Phase_5,3,5,80,127,2405695132
7715,17,Jits_Phase_5,0,1,48,40,2406090136
7715,17,Jits_Phase_5,1,5,56,103,2406151516
7715,17,Jits_Phase_5,2,5,63,98,2406161712
7715,17,Jits_Phase_5,3,5,80,127,2406182316
7715,17,Jits_Phase_5,0,1,48,34,2406576244
7715,17,Jits_Phase_5,1,5,56,103,2406612304
7715,17,Jits_Phase_5,2,5,80,127,2406615368
7715,17,Jits_Phase_5,3,5,63,98,2406652312
7715,17,Jits_Phase_5,0,1,48,33,2407024656
7715,17,Jits_Phase_5,1,5,63,98,2407152252
7715,17,Jits_Phase_5,2,5,56,103,2407181856
7715,17,Jits_Phase_5,3,5,80,127,2407202088
7715,17,Jits_Phase_5,0,1,48,38,2407585840
7715,17,Jits_Phase_5,1,5,80,127,2407622052
7715,17,Jits_Phase_5,2,5,56,103,2407632248
7715,17,Jits_Phase_5,3,5,63,98,2407641324
7715,17,Jits_Phase_5,0,1,48,36,2408076068
7715,17,Jits_Phase_5,1,5,56,103,2408121652
7715,17,Jits_Phase_5,2,5,80,127,2408161664
7715,17,Jits_Phase_5,3,5,63,98,2408192372
7715,17,Jits_Phase_5,0,1,48,36,2408538556
7715,17,Jits_Phase_5,1,5,63,98,2408631592
7715,17,Jits_Phase_5,2,5,80,127,2408641848
7715,17,Jits_Phase_5,3,5,56,103,2408652264
7715,17,Jits_Phase_5,0,1,48,41,2409085904
7715,17,Jits_Phase_5,1,5,56,103,2409122196
7715,17,Jits_Phase_5,2,5,63,98,2409191788
7715,17,Jits_Phase_5,3,5,80,127,2409202132
7715,17,Jits_Phase_5,0,1,48,42,2409623416
7715,17,Jits_Phase_5,1,5,80,127,2409642252
7715,17,Jits_Phase_5,2,5,56,103,2409651476
7715,17,Jits_Phase_5,3,5,63,98,2409701600
7715,17,Jits_Phase_5,0,1,48,37,2410098508
7715,17,Jits_Phase_5,1,5,80,127,2410152336
7715,17,Jits_Phase_5,2,5,56,103,2410211588
7715,17,Jits_Phase_5,3,5,63,98,2410242456
7715,17,Jits_Phase_5,0,1,48,43,2410650724
7715,17,Jits_Phase_5,1,5,56,103,2410652312
7715,17,Jits_Phase_5,2,5,80,127,2410655300
7715,17,Jits_Phase_5,3,5,63,98,2410692020
7715,17,Jits_Phase_5,0,1,48,41,2411133592
7715,17,Jits_Phase_5,1,5,56,103,2411181344
7715,17,Jits_Phase_5,2,5,63,98,2411212288
7715,17,Jits_Phase_5,3,5,80,127,2411222336
7715,17,Jits_Phase_5,0,1,48,39,2411621788
7715,17,Jits_Phase_5,1,5,63,98,2411692332
7715,17,Jits_Phase_5,2,5,80,127,2411701708
7715,17,Jits_Phase_5,3,5,56,103,2411712124
7715,17,Jits_Phase_5,0,5,80,127,2412142120
7715,17,Jits_Phase_5,1,1,48,41,2412175956
7715,17,Jits_Phase_5,2,5,56,103,2412192164
7715,17,Jits_Phase_5,3,5,63,98,2412195304
7715,17,Jits_Phase_5,0,1,48,40,2412668876
7715,17,Jits_Phase_5,1,5,56,103,2412672436
7715,17,Jits_Phase_5,2,5,80,127,2412691996
7715,17,Jits_Phase_5,3,5,63,98,2412702120
7715,17,Jits_Phase_5,0,5,63,98,2413151716
7715,17,Jits_Phase_5,1,1,48,40,2413157004
7715,17,Jits_Phase_5,2,5,56,103,2413182232
7715,17,Jits_Phase_5,3,5,80,127,2413201716
7715,17,Jits_Phase_5,0,1,48,38,2413629168
7715,17,Jits_Phase_5,1,5,56,103,2413672060
7715,17,Jits_Phase_5,2,5,80,127,2413682132
7715,17,Jits_Phase_5,3,5,63,98,2413751568
7715,17,Jits_Phase_5,0,1,48,34,2414118960
7715,17,Jits_Phase_5,1,5,63,98,2414162220
7715,17,Jits_Phase_5,2,5,80,127,2414202256
7715,17,Jits_Phase_5,3,5,56,103,2414242104
7715,17,Jits_Phase_5,0,1,48,41,2414666060
7715,17,Jits_Phase_5,1,5,56,103,2414672232
7715,17,Jits_Phase_5,2,5,63,98,2414681456
7715,17,Jits_Phase_5,3,5,80,127,2414701940
7715,17,Jits_Phase_5,0,1,48,38,2415131048
7715,17,Jits_Phase_5,1,5,63,98,2415212008
7715,17,Jits_Phase_5,2,5,80,127,2415232228
7715,17,Jits_Phase_5,3,5,56,103,2415251936
7715,17,Jits_Phase_5,0,5,56,103,2415652180
7715,17,Jits_Phase_5,1,1,48,40,2415669772
7715,17,Jits_Phase_5,2,5,80,127,2415732144
7715,17,Jits_Phase_5,3,5,63,98,2415742188
7715,17,Jits_Phase_5,0,1,48,38,2416109348
7715,17,Jits_Phase_5,1,5,80,127,2416191948
7715,17,Jits_Phase_5,2,5,63,98,2416202648
7715,17,Jits_Phase_5,3,5,56,103,2416231728
7715,17,Jits_Phase_5,0,1,48,42,2416634284
7715,17,Jits_Phase_5,1,5,63,98,2416651692
7715,17,Jits_Phase_5,2,5,80,127,2416691556
7715,17,Jits_Phase_5,3,5,56,103,2416752028
7715,17,Jits_Phase_5,0,1,48,39,2417131720
7715,17,Jits_Phase_5,1,5,63,98,2417162004
7715,17,Jits_Phase_5,2,5,56,103,2417211684
7715,17,Jits_Phase_5,3,5,80,127,2417241420
7715,17,Jits_Phase_5,0,1,48,39,2417629524
7715,17,Jits_Phase_5,1,5,80,127,2417662208
7715,17,Jits_Phase_5,2,5,63,98,2417671508
7715,17,Jits_Phase_5,3,5,56,103,2417742140
7715,17,Jits_Phase_5,0,1,48,39,2418154964
7715,17,Jits_Phase_5,1,5,80,127,2418221520
7715,17,Jits_Phase_5,2,5,56,103,2418231788
7715,17,Jits_Phase_5,3,5,63,98,2418235004
7715,17,Jits_Phase_5,0,5,56,103,2418661936
7715,17,Jits_Phase_5,1,5,80,127,2418682172
7715,17,Jits_Phase_5,2,5,63,98,2418691324
7715,17,Jits_Phase_5,3,1,48,40,2418720892
7715,17,Jits_Phase_5,0,1,48,40,2419159880
7715,17,Jits_Phase_5,1,5,63,98,2419171664
7715,17,Jits_Phase_5,2,5,56,103,2419211600
7715,17,Jits_Phase_5,3,5,80,127,2419232208
7715,17,Jits_Phase_5,0,5,63,98,2419672400
7715,17,Jits_Phase_5,1,1,48,36,2419683464
7715,17,Jits_Phase_5,2,5,56,103,2419732104
7715,17,Jits_Phase_5,3,5,80,127,2419735096
7715,17,Jits_Phase_5,0,5,56,103,2420132136
7715,17,Jits_Phase_5,1,1,48,35,2420144920
7715,17,Jits_Phase_5,2,5,80,127,2420151764
7715,17,Jits_Phase_5,3,5,63,98,2420191628
7715,17,Jits_Phase_5,0,1,48,32,2420634936
7715,17,Jits_Phase_5,1,5,56,103,2420661636
7715,17,Jits_Phase_5,2,5,63,98,2420682020
7715,17,Jits_Phase_5,3,5,80,127,2420692292
7715,17,Jits_Phase_5,0,1,48,31,2421110944
7715,17,Jits_Phase_5,1,5,80,127,2421131568
7715,17,Jits_Phase_5,2,5,56,103,2421162216
7715,17,Jits_Phase_5,3,5,63,98,2421202300
7715,17,Jits_Phase_5,0,1,48,35,2421601304
7715,17,Jits_Phase_5,1,5,80,127,2421641656
7715,17,Jits_Phase_5,2,5,56,103,2421662188
7715,17,Jits_Phase_5,3,5,63,98,2421721664
7715,17,Jits_Phase_5,0,1,48,34,2422084188
7715,17,Jits_Phase_5,1,5,56,103,2422151520
7715,17,Jits_Phase_5,2,5,80,127,2422172124
7715,17,Jits_Phase_5,3,5,63,98,2422232424
7715,17,Jits_Phase_5,0,1,48,33,2422558380
7715,17,Jits_Phase_5,1,5,80,127,2422631912
7715,17,Jits_Phase_5,2,5,56,103,2422641984
7715,17,Jits_Phase_5,3,5,63,98,2422682056
7715,17,Jits_Phase_5,0,1,48,34,2423033040
7715,17,Jits_Phase_5,1,5,63,98,2423131572
7715,17,Jits_Phase_5,2,5,56,103,2423171532
7715,17,Jits_Phase_5,3,5,80,127,2423174748
7715,17,Jits_Phase_5,0,1,48,36,2423578320
7715,17,Jits_Phase_5,1,5,63,98,2423651776
7715,17,Jits_Phase_5,2,5,80,127,2423691800
7715,17,Jits_Phase_5,3,5,56,103,2423722296
7715,17,Jits_Phase_5,0,1,48,37,2424097932
7715,17,Jits_Phase_5,1,5,56,103,2424142240
7715,17,Jits_Phase_5,2,5,63,98,2424152436
7715,17,Jits_Phase_5,3,5,80,127,2424182060
7715,17,Jits_Phase_5,0,1,48,32,2424566960
7715,17,Jits_Phase_5,1,5,80,127,2424631872
7715,17,Jits_Phase_5,2,5,63,98,2424702236
7715,17,Jits_Phase_5,3,5,56,103,2424711756
7715,17,Jits_Phase_5,0,5,63,98,2425132448
7715,17,Jits_Phase_5,1,1,48,35,2425137216
7715,17,Jits_Phase_5,2,5,56,103,2425201920
7715,17,Jits_Phase_5,3,5,80,127,2425212264
7715,17,Jits_Phase_5,0,1,48,30,2425603772
7715,17,Jits_Phase_5,1,5,63,98,2425611812
7715,17,Jits_Phase_5,2,5,56,103,2425632048
7715,17,Jits_Phase_5,3,5,80,127,2425671984
7715,17,Jits_Phase_5,0,1,48,35,2426065680
7715,17,Jits_Phase_5,1,5,56,103,2426102120
7715,17,Jits_Phase_5,2,5,63,98,2426112244
7715,17,Jits_Phase_5,3,5,80,127,2426192316
7715,17,Jits_Phase_5,0,1,48,38,2426564912
7715,17,Jits_Phase_5,1,5,63,98,2426591684
7715,17,Jits_Phase_5,2,5,56,103,2426622184
7715,17,Jits_Phase_5,3,5,80,127,2426662192
7715,17,Jits_Phase_5,0,1,48,32,2427019168
7715,17,Jits_Phase_5,1,5,56,103,2427092328
7715,17,Jits_Phase_5,2,5,63,98,2427132252
7715,17,Jits_Phase_5,3,5,80,127,2427172188
7715,17,Jits_Phase_5,0,1,48,39,2427504772
7715,17,Jits_Phase_5,1,5,80,127,2427592004
7715,17,Jits_Phase_5,2,5,56,103,2427672008
7715,17,Jits_Phase_5,3,5,63,98,2427682200
7715,17,Jits_Phase_5,0,1,48,35,2428046024
7715,17,Jits_Phase_5,1,5,56,103,2428131984
7715,17,Jits_Phase_5,2,5,63,98,2428134904
7715,17,Jits_Phase_5,3,5,80,127,2428141944
7715,17,Jits_Phase_5,0,1,48,32,2428563372
7715,17,Jits_Phase_5,1,5,56,103,2428651880
7715,17,Jits_Phase_5,2,5,63,98,2428672328
7715,17,Jits_Phase_5,3,5,80,127,2428681772
7715,17,Jits_Phase_5,0,1,48,33,2429077512
7715,17,Jits_Phase_5,1,5,63,98,2429111928
7715,17,Jits_Phase_5,2,5,80,127,2429121900
7715,17,Jits_Phase_5,3,5,56,103,2429142284
7715,17,Jits_Phase_5,0,1,48,37,2429540232
7715,17,Jits_Phase_5,1,5,63,98,2429612352
7715,17,Jits_Phase_5,2,5,56,103,2429692276
7715,17,Jits_Phase_5,3,5,80,127,2429695268
7715,17,Jits_Phase_5,0,1,48,36,2430081880
7715,17,Jits_Phase_5,1,5,63,98,2430112096
7715,17,Jits_Phase_5,2,5,56,103,2430131804
7715,17,Jits_Phase_5,3,5,80,127,2430162228
7715,17,Jits_Phase_5,0,1,48,35,2430569080
7715,17,Jits_Phase_5,1,5,56,103,2430611844
7715,17,Jits_Phase_5,2,5,63,98,2430632228
7715,17,Jits_Phase_5,3,5,80,127,2430641452
7715,17,Jits_Phase_5,0,1,48,35,2431010328
7715,17,Jits_Phase_5,1,5,56,103,2431142292
7715,17,Jits_Phase_5,2,5,63,98,2431171892
7715,17,Jits_Phase_5,3,5,80,127,2431175256
7715,17,Jits_Phase_5,0,1,48,40,2431564836
7715,17,Jits_Phase_5,1,5,56,103,2431591756
7715,17,Jits_Phase_5,2,5,63,98,2431631920
7715,17,Jits_Phase_5,3,5,80,127,2431692292
7715,17,Jits_Phase_5,0,5,56,103,2432111968
7715,17,Jits_Phase_5,1,1,48,35,2432119572
7715,17,Jits_Phase_5,2,5,63,98,2432122304
7715,17,Jits_Phase_5,3,5,80,127,2432181868
7715,17,Jits_Phase_5,0,1,48,31,2432576084
7715,17,Jits_Phase_5,1,5,56,103,2432611776
7715,17,Jits_Phase_5,2,5,80,127,2432632112
7715,17,Jits_Phase_5,3,5,63,98,2432661860
7715,17,Jits_Phase_5,0,1,48,36,2433102656
7715,17,Jits_Phase_5,1,5,80,127,2433112644
7715,17,Jits_Phase_5,2,5,56,103,2433121940
7715,17,Jits_Phase_5,3,5,63,98,2433142200
7715,17,Jits_Phase_5,0,1,48,34,2433596400
7715,17,Jits_Phase_5,1,5,63,98,2433601756
7715,17,Jits_Phase_5,2,5,80,127,2433681872
7715,17,Jits_Phase_5,3,5,56,103,2433692052
7715,17,Jits_Phase_5,0,1,48,37,2434071284
7715,17,Jits_Phase_5,1,5,80,127,2434191864
7715,17,Jits_Phase_5,2,5,56,103,2434212172
7715,17,Jits_Phase_5,3,5,63,98,2434215388
7715,17,Jits_Phase_5,0,1,48,37,2434619656
7715,17,Jits_Phase_5,1,5,63,98,2434682252
7715,17,Jits_Phase_5,2,5,80,127,2434685692
7715,17,Jits_Phase_5,3,5,56,103,2434741728
7715,17,Jits_Phase_5,0,1,48,35,2435137592
7715,17,Jits_Phase_5,1,5,56,103,2435161596
7715,17,Jits_Phase_5,2,5,80,127,2435171644
7715,17,Jits_Phase_5,3,5,63,98,2435211604
7715,17,Jits_Phase_5,0,5,56,103,2435641796
7715,17,Jits_Phase_5,1,1,48,33,2435649628
7715,17,Jits_Phase_5,2,5,63,98,2435702056
7715,17,Jits_Phase_5,3,5,80,127,2435712324
7715,17,Jits_Phase_5,0,1,48,37,2436103836
7715,17,Jits_Phase_5,1,5,63,98,2436151736
7715,17,Jits_Phase_5,2,5,80,127,2436191824
7715,17,Jits_Phase_5,3,5,56,103,2436231696
7715,17,Jits_Phase_5,0,1,48,37,2436609364
7715,17,Jits_Phase_5,1,5,56,103,2436652532
7715,17,Jits_Phase_5,2,5,63,98,2436732264
7715,17,Jits_Phase_5,3,5,80,127,2436735852
7715,17,Jits_Phase_5,0,1,48,36,2437062648
7715,17,Jits_Phase_5,1,5,80,127,2437211600
7715,17,Jits_Phase_5,2,5,56,103,2437242268
7715,17,Jits_Phase_5,3,5,63,98,2437245412
7715,17,Jits_Phase_5,0,1,48,35,2437629216
7715,17,Jits_Phase_5,1,5,56,103,2437672404
7715,17,Jits_Phase_5,2,5,80,127,2437691740
7715,17,Jits_Phase_5,3,5,63,98,2437731736
7715,17,Jits_Phase_5,0,1,48,38,2438126648
7715,17,Jits_Phase_5,1,5,80,127,2438151480
7715,17,Jits_Phase_5,2,5,63,98,2438172012
7715,17,Jits_Phase_5,3,5,56,103,2438232828
7715,17,Jits_Phase_5,0,1,48,34,2438608264
7715,17,Jits_Phase_5,1,5,63,98,2438661416
7715,17,Jits_Phase_5,2,5,56,103,2438671688
7715,17,Jits_Phase_5,3,5,80,127,2438721872
7715,17,Jits_Phase_5,0,1,48,37,2439108236
7715,17,Jits_Phase_5,1,5,56,103,2439151948
7715,17,Jits_Phase_5,2,5,63,98,2439171660
7715,17,Jits_Phase_5,3,5,80,127,2439181556
7715,17,Jits_Phase_5,0,1,48,38,2439633612
7715,17,Jits_Phase_5,1,5,56,103,2439641652
7715,17,Jits_Phase_5,2,5,63,98,2439644720
7715,17,Jits_Phase_5,3,5,80,127,2439661888
7715,17,Jits_Phase_5,0,1,48,36,2440101732
7715,17,Jits_Phase_5,1,5,63,98,2440182000
7715,17,Jits_Phase_5,2,5,56,103,2440211808
7715,17,Jits_Phase_5,3,5,80,127,2440241556
7715,17,Jits_Phase_5,0,1,48,30,2440576308
7715,17,Jits_Phase_5,1,5,80,127,2440641968
7715,17,Jits_Phase_5,2,5,56,103,2440732156
7715,17,Jits_Phase_5,3,5,63,98,2440735076
7715,17,Jits_Phase_5,0,1,48,40,2441128712
7715,17,Jits_Phase_5,1,5,56,103,2441141780
7715,17,Jits_Phase_5,2,5,80,127,2441144772
7715,17,Jits_Phase_5,3,5,63,98,2441221424
7715,17,Jits_Phase_5,0,1,48,35,2441584108
7715,17,Jits_Phase_5,1,5,80,127,2441642496
7715,17,Jits_Phase_5,2,5,63,98,2441701748
7715,17,Jits_Phase_5,3,5,56,103,2441731644
7715,17,Jits_Phase_5,0,1,48,40,2442135548
7715,17,Jits_Phase_5,1,5,63,98,2442142024
7715,17,Jits_Phase_5,2,5,80,127,2442152292
7715,17,Jits_Phase_5,3,5,56,103,2442222044
7715,17,Jits_Phase_5,0,1,48,38,2442630440
7715,17,Jits_Phase_5,1,5,56,103,2442702308
7715,17,Jits_Phase_5,2,5,80,127,2442731744
7715,17,Jits_Phase_5,3,5,63,98,2442782016
7715,17,Jits_Phase_5,0,1,48,42,2443117432
7715,17,Jits_Phase_5,1,5,63,98,2443291940
7715,17,Jits_Phase_5,2,5,56,103,2443321764
7715,17,Jits_Phase_5,3,5,80,127,2443324756
7715,17,Jits_Phase_5,0,1,48,36,2443664536
7715,17,Jits_Phase_5,1,5,63,98,2443791688
7715,17,Jits_Phase_5,2,5,80,127,2443812148
7715,17,Jits_Phase_5,3,5,56,103,2443821596
7715,17,Jits_Phase_5,0,1,48,35,2444209924
7715,17,Jits_Phase_5,1,5,56,103,2444301644
7715,17,Jits_Phase_5,2,5,63,98,2444305596
7715,17,Jits_Phase_5,3,5,80,127,2444322088
7715,17,Jits_Phase_5,0,1,48,37,2444738496
7715,17,Jits_Phase_5,1,5,56,103,2444752316
7715,17,Jits_Phase_5,2,5,63,98,2444761688
7715,17,Jits_Phase_5,3,5,80,127,2444792112
7715,17,Jits_Phase_5,0,1,48,39,2445228656
7715,17,Jits_Phase_5,1,5,63,98,2445272592
7715,17,Jits_Phase_5,2,5,80,127,2445291856
7715,17,Jits_Phase_5,3,5,56,103,2445331776
7715,17,Jits_Phase_5,0,5,56,103,2445801796
7715,17,Jits_Phase_5,1,1,48,38,2445805812
7715,17,Jits_Phase_5,2,5,63,98,2445841728
7715,17,Jits_Phase_5,3,5,80,127,2445845164
7715,17,Jits_Phase_5,0,5,80,127,2446242440
7715,17,Jits_Phase_5,1,5,56,103,2446282160
7715,17,Jits_Phase_5,2,1,48,34,2446325132
7715,17,Jits_Phase_5,3,5,63,98,2446332128
7715,17,Jits_Phase_5,0,1,48,23,2446748236
7715,17,Jits_Phase_5,1,5,56,103,2446802584
7715,17,Jits_Phase_5,2,5,80,127,2446811436
7715,17,Jits_Phase_5,3,5,63,98,2446842440
7715,17,Jits_Phase_5,0,1,48,29,2447214812
7715,17,Jits_Phase_5,1,5,56,103,2447251772
7715,17,Jits_Phase_5,2,5,80,127,2447291712
7715,17,Jits_Phase_5,3,5,63,98,2447341896
7715,17,Jits_Phase_5,0,1,48,35,2447711468
7715,17,Jits_Phase_5,1,5,56,103,2447751524
7715,17,Jits_Phase_5,2,5,80,127,2447791608
7715,17,Jits_Phase_5,3,5,63,98,2447841868
7715,17,Jits_Phase_5,0,1,48,35,2448176744
7715,17,Jits_Phase_5,1,5,80,127,2448242056
7715,17,Jits_Phase_5,2,5,63,98,2448321840
7715,17,Jits_Phase_5,3,5,56,103,2448332108
7715,17,Jits_Phase_5,0,1,48,36,2448719424
7715,17,Jits_Phase_5,1,5,80,127,2448792008
7715,17,Jits_Phase_5,2,5,56,103,2448802572
7715,17,Jits_Phase_5,3,5,63,98,2448821524
7715,17,Jits_Phase_5,0,1,48,34,2449217832
7715,17,Jits_Phase_5,1,5,63,98,2449261868
7715,17,Jits_Phase_5,2,5,56,103,2449331528
7715,17,Jits_Phase_5,3,5,80,127,2449334524
7715,17,Jits_Phase_5,0,1,48,38,2449736756
7715,17,Jits_Phase_5,1,5,80,127,2449752664
7715,17,Jits_Phase_5,2,5,63,98,2449801548
7715,17,Jits_Phase_5,3,5,56,103,2449841620
7715,17,Jits_Phase_5,0,1,48,37,2450229312
7715,17,Jits_Phase_5,1,5,63,98,2450292224
7715,17,Jits_Phase_5,2,5,56,103,2450331928
7715,17,Jits_Phase_5,3,5,80,127,2450342200
7715,17,Jits_Phase_5,0,1,48,40,2450730652
7715,17,Jits_Phase_5,1,5,63,98,2450781544
7715,17,Jits_Phase_5,2,5,56,103,2450802180
7715,17,Jits_Phase_5,3,5,80,127,2450821444
7715,17,Jits_Phase_5,0,1,48,38,2451211216
7715,17,Jits_Phase_5,1,5,80,127,2451242556
7715,17,Jits_Phase_5,2,5,56,103,2451251480
7715,17,Jits_Phase_5,3,5,63,98,2451272012
7715,17,Jits_Phase_5,0,1,48,34,2451730216
7715,17,Jits_Phase_5,1,5,63,98,2451771892
7715,17,Jits_Phase_5,2,5,56,103,2451811608
7715,17,Jits_Phase_5,3,5,80,127,2451842412
7715,17,Jits_Phase_5,0,1,48,28,2452203820
7715,17,Jits_Phase_5,1,5,56,103,2452231712
7715,17,Jits_Phase_5,2,5,63,98,2452262364
7715,17,Jits_Phase_5,3,5,80,127,2452292036
7715,17,Jits_Phase_5,0,5,80,127,2452652592
7715,17,Jits_Phase_5,1,1,48,38,2452684556
7715,17,Jits_Phase_5,2,5,56,103,2452721968
7715,17,Jits_Phase_5,3,5,63,98,2452725108
7715,17,Jits_Phase_5,0,1,48,39,2453090264
7715,17,Jits_Phase_5,1,5,56,103,2453162460
7715,17,Jits_Phase_5,2,5,63,98,2453211672
7715,17,Jits_Phase_5,3,5,80,127,2453242392
7715,17,Jits_Phase_5,0,5,63,98,2453641544
7715,17,Jits_Phase_5,1,5,80,127,2453644836
7715,17,Jits_Phase_5,2,1,48,39,2453648028
7715,17,Jits_Phase_5,3,5,56,103,2453702000
7715,17,Jits_Phase_5,0,1,48,41,2454103244
7715,17,Jits_Phase_5,1,5,56,103,2454171992
7715,17,Jits_Phase_5,2,5,80,127,2454182560
7715,17,Jits_Phase_5,3,5,63,98,2454232300
7715,17,Jits_Phase_5,0,1,48,38,2454590712
7715,17,Jits_Phase_5,1,5,63,98,2454642148
7715,17,Jits_Phase_5,2,5,56,103,2454652344
7715,17,Jits_Phase_5,3,5,80,127,2454682092
7715,17,Jits_Phase_5,0,1,48,40,2455037920
7715,17,Jits_Phase_5,1,5,63,98,2455171548
7715,17,Jits_Phase_5,2,5,80,127,2455174764
7715,17,Jits_Phase_5,3,5,56,103,2455202272
7715,17,Jits_Phase_5,0,1,48,32,2455589580
7715,17,Jits_Phase_5,1,5,63,98,2455691744
7715,17,Jits_Phase_5,2,5,56,103,2455712128
7715,17,Jits_Phase_5,3,5,80,127,2455715268
7715,17,Jits_Phase_5,0,1,48,31,2456120136
7715,17,Jits_Phase_5,1,5,63,98,2456152372
7715,17,Jits_Phase_5,2,5,56,103,2456221988
7715,17,Jits_Phase_5,3,5,80,127,2456241548
7715,17,Jits_Phase_5,0,5,56,103,2456642088
7715,17,Jits_Phase_5,1,5,63,98,2456652284
7715,17,Jits_Phase_5,2,1,48,33,2456660136
7715,17,Jits_Phase_5,3,5,80,127,2456742508
7715,17,Jits_Phase_5,0,1,48,33,2457118364
7715,17,Jits_Phase_5,1,5,56,103,2457162300
7715,17,Jits_Phase_5,2,5,80,127,2457202188
7715,17,Jits_Phase_5,3,5,63,98,2457213492
7715,17,Jits_Phase_5,0,1,48,33,2457608528
7715,17,Jits_Phase_5,1,5,56,103,2457682504
7715,17,Jits_Phase_5,2,5,63,98,2457712040
7715,17,Jits_Phase_5,3,5,80,127,2457741640
7715,17,Jits_Phase_5,0,1,48,32,2458067372
7715,17,Jits_Phase_5,1,5,80,127,2458142244
7715,17,Jits_Phase_5,2,5,63,98,2458181872
7715,17,Jits_Phase_5,3,5,56,103,2458201580
7715,17,Jits_Phase_5,0,1,48,37,2458613272
7715,17,Jits_Phase_5,1,5,56,103,2458681704
7715,17,Jits_Phase_5,2,5,80,127,2458702456
7715,17,Jits_Phase_5,3,5,63,98,2458721704
7715,17,Jits_Phase_5,0,1,48,39,2459079300
7715,17,Jits_Phase_5,1,5,63,98,2459151860
7715,17,Jits_Phase_5,2,5,56,103,2459161908
7715,17,Jits_Phase_5,3,5,80,127,2459222352
7715,17,Jits_Phase_5,0,1,48,30,2459565716
7715,17,Jits_Phase_5,1,5,56,103,2459651308
7715,17,Jits_Phase_5,2,5,63,98,2459722168
7715,17,Jits_Phase_5,3,5,80,127,2459741508
7715,17,Jits_Phase_5,0,1,48,39,2460086748
7715,17,Jits_Phase_5,1,5,56,103,2460152260
7715,17,Jits_Phase_5,2,5,63,98,2460181844
7715,17,Jits_Phase_5,3,5,80,127,2460221780
7715,17,Jits_Phase_5,0,1,48,38,2460565744
7715,17,Jits_Phase_5,1,5,63,98,2460641668
7715,17,Jits_Phase_5,2,5,56,103,2460691856
7715,17,Jits_Phase_5,3,5,80,127,2460702496
7715,17,Jits_Phase_5,0,1,48,38,2461083176
7715,17,Jits_Phase_5,1,5,56,103,2461182232
7715,17,Jits_Phase_5,2,5,63,98,2461231460
7715,17,Jits_Phase_5,3,5,80,127,2461241580
7715,17,Jits_Phase_5,0,1,48,40,2461641296
7715,17,Jits_Phase_5,1,5,56,103,2461661548
7715,17,Jits_Phase_5,2,5,63,98,2461671744
7715,17,Jits_Phase_5,3,5,80,127,2461751592
7715,17,Jits_Phase_5,0,9999,9999,9999,2377389124
7715,17,Jits_Phase_5,1,9999,9999,9999,2377889880
7715,17,Jits_Phase_5,2,9999,9999,9999,2378389588
7715,17,Jits_Phase_5,3,9999,9999,9999,2378889332
7715,17,Jits_Phase_5,4,9999,9999,9999,2379390060
7715,17,Jits_Phase_5,5,9999,9999,9999,2379889740
7715,17,Jits_Phase_5,6,9999,9999,9999,2380389464
7715,17,Jits_Phase_5,7,9999,9999,9999,2380889148
7715,17,Jits_Phase_5,8,9999,9999,9999,2381389948
7715,17,Jits_Phase_5,9,9999,9999,9999,2381889624
7715,17,Jits_Phase_5,10,9999,9999,9999,2382389372
7715,17,Jits_Phase_5,11,9999,9999,9999,2382890092
7715,17,Jits_Phase_5,12,9999,9999,9999,2383389764
7715,17,Jits_Phase_5,13,9999,9999,9999,2383889512
7715,17,Jits_Phase_5,14,9999,9999,9999,2384389248
7715,17,Jits_Phase_5,15,9999,9999,9999,2384889968
7715,17,Jits_Phase_5,16,9999,9999,9999,2385389644
7715,17,Jits_Phase_5,17,9999,9999,9999,2385889392
7715,17,Jits_Phase_5,18,9999,9999,9999,2386390112
7715,17,Jits_Phase_5,19,9999,9999,9999,2386900048
7715,17,Jits_Phase_5,20,9999,9999,9999,2387399800
7715,17,Jits_Phase_5,21,9999,9999,9999,2387899476
7715,17,Jits_Phase_5,22,9999,9999,9999,2388399224
7715,17,Jits_Phase_5,23,9999,9999,9999,2388899948
7715,17,Jits_Phase_5,24,9999,9999,9999,2389399624
7715,17,Jits_Phase_5,25,9999,9999,9999,2389899364
7715,17,Jits_Phase_5,26,9999,9999,9999,2390400092
7715,17,Jits_Phase_5,27,9999,9999,9999,2390910080
7715,17,Jits_Phase_5,28,9999,9999,9999,2391409756
7715,17,Jits_Phase_5,29,9999,9999,9999,2391909484
7715,17,Jits_Phase_5,30,9999,9999,9999,2392399936
7715,17,Jits_Phase_5,31,9999,9999,9999,2392899688
7715,17,Jits_Phase_5,32,9999,9999,9999,2393399376
7715,17,Jits_Phase_5,33,9999,9999,9999,2393899128
7715,17,Jits_Phase_5,34,9999,9999,9999,2394399860
7715,17,Jits_Phase_5,35,9999,9999,9999,2394899540
7715,17,Jits_Phase_5,36,9999,9999,9999,2395399280
7715,17,Jits_Phase_5,37,9999,9999,9999,2395900004
7715,17,Jits_Phase_5,38,9999,9999,9999,2396399680
7715,17,Jits_Phase_5,39,9999,9999,9999,2396899432
7715,17,Jits_Phase_5,40,9999,9999,9999,2397399108
7715,17,Jits_Phase_5,41,9999,9999,9999,2397899832
7715,17,Jits_Phase_5,42,9999,9999,9999,2398399596
7715,17,Jits_Phase_5,43,9999,9999,9999,2398899268
7715,17,Jits_Phase_5,44,9999,9999,9999,2399399992
7715,17,Jits_Phase_5,45,9999,9999,9999,2399899740
7715,17,Jits_Phase_5,46,9999,9999,9999,2400399416
7715,17,Jits_Phase_5,47,9999,9999,9999,2400899172
7715,17,Jits_Phase_5,48,9999,9999,9999,2401409112
7715,17,Jits_Phase_5,49,9999,9999,9999,2401909840
7715,17,Jits_Phase_5,50,9999,9999,9999,2402409556
7715,17,Jits_Phase_5,51,9999,9999,9999,2402909296
7715,17,Jits_Phase_5,52,9999,9999,9999,2403410024
7715,17,Jits_Phase_5,53,9999,9999,9999,2403909704
7715,17,Jits_Phase_5,54,9999,9999,9999,2404409456
7715,17,Jits_Phase_5,55,9999,9999,9999,2404909132
7715,17,Jits_Phase_5,56,9999,9999,9999,2405409852
7715,17,Jits_Phase_5,57,9999,9999,9999,2405909596
7715,17,Jits_Phase_5,58,9999,9999,9999,2406409272
7715,17,Jits_Phase_5,59,9999,9999,9999,2406910052
7715,17,Jits_Phase_5,60,9999,9999,9999,2407409732
7715,17,Jits_Phase_5,61,9999,9999,9999,2407909476
7715,17,Jits_Phase_5,62,9999,9999,9999,2408409156
7715,17,Jits_Phase_5,63,9999,9999,9999,2408909948
7715,17,Jits_Phase_5,64,9999,9999,9999,2409430076
7715,17,Jits_Phase_5,65,9999,9999,9999,2409940088
7715,17,Jits_Phase_5,66,9999,9999,9999,2410439764
7715,17,Jits_Phase_5,67,9999,9999,9999,2410939500
7715,17,Jits_Phase_5,68,9999,9999,9999,2411439176
7715,17,Jits_Phase_5,69,9999,9999,9999,2411939904
7715,17,Jits_Phase_5,70,9999,9999,9999,2412439644
7715,17,Jits_Phase_5,71,9999,9999,9999,2412939336
7715,17,Jits_Phase_5,72,9999,9999,9999,2413440056
7715,17,Jits_Phase_5,73,9999,9999,9999,2413950068
7715,17,Jits_Phase_5,74,9999,9999,9999,2414449748
7715,17,Jits_Phase_5,75,9999,9999,9999,2414949468
7715,17,Jits_Phase_5,76,9999,9999,9999,2415449144
7715,17,Jits_Phase_5,77,9999,9999,9999,2415949940
7715,17,Jits_Phase_5,78,9999,9999,9999,2416449632
7715,17,Jits_Phase_5,79,9999,9999,9999,2416949308
7715,17,Jits_Phase_5,80,9999,9999,9999,2417450108
7715,17,Jits_Phase_5,81,9999,9999,9999,2417929332
7715,17,Jits_Phase_5,82,9999,9999,9999,2418430052
7715,17,Jits_Phase_5,83,9999,9999,9999,2418929728
7715,17,Jits_Phase_5,84,9999,9999,9999,2419429500
7715,17,Jits_Phase_5,85,9999,9999,9999,2419929172
7715,17,Jits_Phase_5,86,9999,9999,9999,2420429892
7715,17,Jits_Phase_5,87,9999,9999,9999,2420929656
7715,17,Jits_Phase_5,88,9999,9999,9999,2421429332
7715,17,Jits_Phase_5,89,9999,9999,9999,2421930052
7715,17,Jits_Phase_5,90,9999,9999,9999,2422429804
7715,17,Jits_Phase_5,91,9999,9999,9999,2422929476
7715,17,Jits_Phase_5,92,9999,9999,9999,2423429216
7715,17,Jits_Phase_5,93,9999,9999,9999,2423929940
7715,17,Jits_Phase_5,94,9999,9999,9999,2424429688
7715,17,Jits_Phase_5,95,9999,9999,9999,2424929336
7715,17,Jits_Phase_5,96,9999,9999,9999,2425430128
7715,17,Jits_Phase_5,97,9999,9999,9999,2425889872
7715,17,Jits_Phase_5,98,9999,9999,9999,2426389624
7715,17,Jits_Phase_5,99,9999,9999,9999,2426889296
7715,17,Jits_Phase_5,100,9999,9999,9999,2427390016
7715,17,Jits_Phase_5,101,9999,9999,9999,2427889772
7715,17,Jits_Phase_5,102,9999,9999,9999,2428389436
7715,17,Jits_Phase_5,103,9999,9999,9999,2428889192
7715,17,Jits_Phase_5,104,9999,9999,9999,2429389912
7715,17,Jits_Phase_5,105,9999,9999,9999,2429889656
7715,17,Jits_Phase_5,106,9999,9999,9999,2430389332
7715,17,Jits_Phase_5,107,9999,9999,9999,2430890052
7715,17,Jits_Phase_5,108,9999,9999,9999,2431389796
7715,17,Jits_Phase_5,109,9999,9999,9999,2431889524
7715,17,Jits_Phase_5,110,9999,9999,9999,2432389200
7715,17,Jits_Phase_5,111,9999,9999,9999,2432889936
7715,17,Jits_Phase_5,112,9999,9999,9999,2433389680
7715,17,Jits_Phase_5,113,9999,9999,9999,2433889332
7715,17,Jits_Phase_5,114,9999,9999,9999,2434439292
7715,17,Jits_Phase_5,115,9999,9999,9999,2434940004
7715,17,Jits_Phase_5,116,9999,9999,9999,2435439680
7715,17,Jits_Phase_5,117,9999,9999,9999,2435939404
7715,17,Jits_Phase_5,118,9999,9999,9999,2436439164
7715,17,Jits_Phase_5,119,9999,9999,9999,2436939880
7715,17,Jits_Phase_5,120,9999,9999,9999,2437439552
7715,17,Jits_Phase_5,121,9999,9999,9999,2437939304
7715,17,Jits_Phase_5,122,9999,9999,9999,2438440024
7715,17,Jits_Phase_5,123,9999,9999,9999,2438939776
7715,17,Jits_Phase_5,124,9999,9999,9999,2439439448
7715,17,Jits_Phase_5,125,9999,9999,9999,2439939184
7715,17,Jits_Phase_5,126,9999,9999,9999,2440439908
7715,17,Jits_Phase_5,127,9999,9999,9999,2440939576
7715,17,Jits_Phase_5,128,9999,9999,9999,2441439312
7715,17,Jits_Phase_5,129,9999,9999,9999,2441940036
7715,17,Jits_Phase_5,130,9999,9999,9999,2442439784
7715,17,Jits_Phase_5,131,9999,9999,9999,2443039848
7715,17,Jits_Phase_5,132,9999,9999,9999,2443539520
7715,17,Jits_Phase_5,133,9999,9999,9999,2444039276
7715,17,Jits_Phase_5,134,9999,9999,9999,2444539992
7715,17,Jits_Phase_5,135,9999,9999,9999,2445039740
7715,17,Jits_Phase_5,136,9999,9999,9999,2445539420
7715,17,Jits_Phase_5,137,9999,9999,9999,2446039164
7715,17,Jits_Phase_5,138,9999,9999,9999,2446539904
7715,17,Jits_Phase_5,139,9999,9999,9999,2447039596
7715,17,Jits_Phase_5,140,9999,9999,9999,2447539272
7715,17,Jits_Phase_5,141,9999,9999,9999,2448039996
7715,17,Jits_Phase_5,142,9999,9999,9999,2448539748
7715,17,Jits_Phase_5,143,9999,9999,9999,2449039428
7715,17,Jits_Phase_5,144,9999,9999,9999,2449539172
7715,17,Jits_Phase_5,145,9999,9999,9999,2450039896
7715,17,Jits_Phase_5,146,9999,9999,9999,2450539576
7715,17,Jits_Phase_5,147,9999,9999,9999,2451039304
7715,17,Jits_Phase_5,148,9999,9999,9999,2451540088
7715,17,Jits_Phase_5,149,9999,9999,9999,2452039768
7715,17,Jits_Phase_5,150,9999,9999,9999,2452439140
7715,17,Jits_Phase_5,151,9999,9999,9999,2452939856
7715,17,Jits_Phase_5,152,9999,9999,9999,2453439552
7715,17,Jits_Phase_5,153,9999,9999,9999,2453939292
7715,17,Jits_Phase_5,154,9999,9999,9999,2454440016
7715,17,Jits_Phase_5,155,9999,9999,9999,2454939760
7715,17,Jits_Phase_5,156,9999,9999,9999,2455439428
7715,17,Jits_Phase_5,157,9999,9999,9999,2455939172
7715,17,Jits_Phase_5,158,9999,9999,9999,2456439900
7715,17,Jits_Phase_5,159,9999,9999,9999,2456939576
7715,17,Jits_Phase_5,160,9999,9999,9999,2457439316
7715,17,Jits_Phase_5,161,9999,9999,9999,2457940044
7715,17,Jits_Phase_5,162,9999,9999,9999,2458439784
7715,17,Jits_Phase_5,163,9999,9999,9999,2458939460
7715,17,Jits_Phase_5,164,9999,9999,9999,2459439208
7715,17,Jits_Phase_5,165,9999,9999,9999,2459939936
7715,17,Jits_Phase_5,166,9999,9999,9999,2460439608
7715,17,Jits_Phase_5,167,9999,9999,9999,2460939356
7715,17,Jits_Phase_5,168,9999,9999,9999,2461440080
7715,17,Jits_Phase_5,169,9999,9999,9999,2461950020
7716,7,Jits_ISO_8,0,5,56,103,2472263012
7716,7,Jits_ISO_8,1,5,63,98,2472266188
7716,7,Jits_ISO_8,2,5,80,127,2472269380
7716,7,Jits_ISO_8,0,5,56,103,2473062716
7716,7,Jits_ISO_8,1,5,63,98,2473066060
7716,7,Jits_ISO_8,2,5,80,127,2473069180
7716,7,Jits_ISO_8,0,5,80,127,2473803164
7716,7,Jits_ISO_8,1,5,63,98,2473893176
7716,7,Jits_ISO_8,2,5,56,103,2473902328
7716,7,Jits_ISO_8,3,1,48,39,2473928660
7716,7,Jits_ISO_8,0,5,56,103,2474623372
7716,7,Jits_ISO_8,1,5,63,98,2474632596
7716,7,Jits_ISO_8,2,1,48,40,2474636908
7716,7,Jits_ISO_8,3,5,80,127,2474722792
7716,7,Jits_ISO_8,0,1,48,39,2475327584
7716,7,Jits_ISO_8,1,5,63,98,2475393496
7716,7,Jits_ISO_8,2,5,80,127,2475423676
7716,7,Jits_ISO_8,3,5,56,103,2475452756
7716,7,Jits_ISO_8,0,1,48,37,2476091332
7716,7,Jits_ISO_8,1,5,56,103,2476193184
7716,7,Jits_ISO_8,2,5,80,127,2476292388
7716,7,Jits_ISO_8,3,5,63,98,2476342592
7716,7,Jits_ISO_8,0,1,48,41,2476972068
7716,7,Jits_ISO_8,1,5,56,103,2476993064
7716,7,Jits_ISO_8,2,5,80,127,2477043116
7716,7,Jits_ISO_8,3,5,63,98,2477082964
7716,7,Jits_ISO_8,0,1,48,45,2477709040
7716,7,Jits_ISO_8,1,5,80,127,2477823252
7716,7,Jits_ISO_8,2,5,63,98,2477853000
7716,7,Jits_ISO_8,3,5,56,103,2477922608
7716,7,Jits_ISO_8,0,1,48,29,2478522252
7716,7,Jits_ISO_8,1,5,63,98,2478652928
7716,7,Jits_ISO_8,2,5,56,103,2478682380
7716,7,Jits_ISO_8,3,5,80,127,2478743168
7716,7,Jits_ISO_8,0,1,48,40,2479324512
7716,7,Jits_ISO_8,1,5,56,103,2479393168
7716,7,Jits_ISO_8,2,5,80,127,2479396380
7716,7,Jits_ISO_8,3,5,63,98,2479513048
7716,7,Jits_ISO_8,0,1,48,42,2480108768
7716,7,Jits_ISO_8,1,5,56,103,2480272892
7716,7,Jits_ISO_8,2,5,80,127,2480312760
7716,7,Jits_ISO_8,3,5,63,98,2480323328
7716,7,Jits_ISO_8,0,1,48,41,2481003744
7716,7,Jits_ISO_8,1,5,56,103,2481032692
7716,7,Jits_ISO_8,2,5,80,127,2481053148
7716,7,Jits_ISO_8,3,5,63,98,2481133076
7716,7,Jits_ISO_8,0,1,48,42,2481813796
7716,7,Jits_ISO_8,1,5,80,127,2481823184
7716,7,Jits_ISO_8,2,5,56,103,2481922596
7716,7,Jits_ISO_8,3,5,63,98,2481933088
7716,7,Jits_ISO_8,0,5,63,98,2482593084
7716,7,Jits_ISO_8,1,1,48,49,2482605044
7716,7,Jits_ISO_8,2,5,80,127,2482652500
7716,7,Jits_ISO_8,3,5,56,103,2482662916
7716,7,Jits_ISO_8,0,1,48,45,2483363168
7716,7,Jits_ISO_8,1,5,56,103,2483392860
7716,7,Jits_ISO_8,2,5,63,98,2483462524
7716,7,Jits_ISO_8,3,5,80,127,2483466112
7716,7,Jits_ISO_8,0,1,48,43,2484145400
7716,7,Jits_ISO_8,1,5,63,98,2484223276
7716,7,Jits_ISO_8,2,5,56,103,2484272408
7716,7,Jits_ISO_8,3,5,80,127,2484275628
7716,7,Jits_ISO_8,0,1,48,38,2484910420
7716,7,Jits_ISO_8,1,5,56,103,2484983112
7716,7,Jits_ISO_8,2,5,80,127,2484986176
7716,7,Jits_ISO_8,3,5,63,98,2485073304
7716,7,Jits_ISO_8,0,1,48,43,2485753412
7716,7,Jits_ISO_8,1,5,63,98,2485823116
7716,7,Jits_ISO_8,2,5,56,103,2485912892
7716,7,Jits_ISO_8,3,5,80,127,2485942568
7716,7,Jits_ISO_8,0,1,48,35,2486561452
7716,7,Jits_ISO_8,1,5,56,103,2486613320
7716,7,Jits_ISO_8,2,5,63,98,2486712828
7716,7,Jits_ISO_8,3,5,80,127,2486743404
7716,7,Jits_ISO_8,0,1,48,35,2487352624
7716,7,Jits_ISO_8,1,5,63,98,2487432540
7716,7,Jits_ISO_8,2,5,56,103,2487443032
7716,7,Jits_ISO_8,3,5,80,127,2487532852
7716,7,Jits_ISO_8,0,1,48,40,2488163944
7716,7,Jits_ISO_8,1,5,63,98,2488253004
7716,7,Jits_ISO_8,2,5,56,103,2488332860
7716,7,Jits_ISO_8,3,5,80,127,2488336000
7716,7,Jits_ISO_8,0,1,48,40,2488950856
7716,7,Jits_ISO_8,1,5,80,127,2489012852
7716,7,Jits_ISO_8,2,5,63,98,2489033088
7716,7,Jits_ISO_8,3,5,56,103,2489092416
7716,7,Jits_ISO_8,0,1,48,42,2489775892
7716,7,Jits_ISO_8,1,5,56,103,2489853316
7716,7,Jits_ISO_8,2,5,63,98,2489872728
7716,7,Jits_ISO_8,3,5,80,127,2489876976
7716,7,Jits_ISO_8,0,1,48,43,2490536408
7716,7,Jits_ISO_8,1,5,63,98,2490592708
7716,7,Jits_ISO_8,2,5,80,127,2490672640
7716,7,Jits_ISO_8,3,5,56,103,2490682760
7716,7,Jits_ISO_8,0,1,48,46,2491332152
7716,7,Jits_ISO_8,1,5,63,98,2491412792
7716,7,Jits_ISO_8,2,5,56,103,2491433384
7716,7,Jits_ISO_8,3,5,80,127,2491482616
7716,7,Jits_ISO_8,0,1,48,42,2492201316
7716,7,Jits_ISO_8,1,5,80,127,2492212872
7716,7,Jits_ISO_8,2,5,63,98,2492252664
7716,7,Jits_ISO_8,3,5,56,103,2492273000
7716,7,Jits_ISO_8,0,1,48,39,2492993828
7716,7,Jits_ISO_8,1,5,56,103,2493053216
7716,7,Jits_ISO_8,2,5,63,98,2493062440
7716,7,Jits_ISO_8,3,5,80,127,2493083044
7716,7,Jits_ISO_8,0,1,48,39,2493779436
7716,7,Jits_ISO_8,1,5,56,103,2493783368
7716,7,Jits_ISO_8,2,5,63,98,2493872632
7716,7,Jits_ISO_8,3,5,80,127,2493932932
7716,7,Jits_ISO_8,0,1,48,42,2494564992
7716,7,Jits_ISO_8,1,5,80,127,2494612848
7716,7,Jits_ISO_8,2,5,56,103,2494623044
7716,7,Jits_ISO_8,3,5,63,98,2494692856
7716,7,Jits_ISO_8,0,1,48,49,2495408772
7716,7,Jits_ISO_8,1,5,63,98,2495443200
7716,7,Jits_ISO_8,2,5,80,127,2495533396
7716,7,Jits_ISO_8,3,5,56,103,2495542768
7716,7,Jits_ISO_8,0,5,63,98,2496182756
7716,7,Jits_ISO_8,1,5,80,127,2496232812
7716,7,Jits_ISO_8,2,5,56,103,2496293128
7716,7,Jits_ISO_8,3,1,48,49,2496315872
7716,7,Jits_ISO_8,0,1,48,39,2497009772
7716,7,Jits_ISO_8,1,5,56,103,2497013100
7716,7,Jits_ISO_8,2,5,80,127,2497063232
7716,7,Jits_ISO_8,3,5,63,98,2497082792
7716,7,Jits_ISO_8,0,1,48,29,2497711792
7716,7,Jits_ISO_8,1,5,56,103,2497783140
7716,7,Jits_ISO_8,2,5,80,127,2497842696
7716,7,Jits_ISO_8,3,5,63,98,2497913224
7716,7,Jits_ISO_8,0,1,48,28,2498408992
7716,7,Jits_ISO_8,1,5,56,103,2498582836
7716,7,Jits_ISO_8,2,5,80,127,2498612588
7716,7,Jits_ISO_8,3,5,63,98,2498643532
7716,7,Jits_ISO_8,0,1,48,35,2499198428
7716,7,Jits_ISO_8,1,5,56,103,2499422624
7716,7,Jits_ISO_8,2,5,80,127,2499443036
7716,7,Jits_ISO_8,3,5,63,98,2499502304
7716,7,Jits_ISO_8,0,1,48,35,2500143652
7716,7,Jits_ISO_8,1,5,80,127,2500303124
7716,7,Jits_ISO_8,2,5,56,103,2500312500
7716,7,Jits_ISO_8,3,5,63,98,2500322548
7716,7,Jits_ISO_8,0,1,48,35,2501028280
7716,7,Jits_ISO_8,1,5,56,103,2501063000
7716,7,Jits_ISO_8,2,5,80,127,2501102940
7716,7,Jits_ISO_8,3,5,63,98,2501132604
7716,7,Jits_ISO_8,0,5,56,103,2501833128
7716,7,Jits_ISO_8,1,1,48,37,2501835720
7716,7,Jits_ISO_8,2,5,63,98,2501862724
7716,7,Jits_ISO_8,3,5,80,127,2501902660
7716,7,Jits_ISO_8,0,5,80,127,2502582656
7716,7,Jits_ISO_8,1,1,48,41,2502616860
7716,7,Jits_ISO_8,2,5,63,98,2502632924
7716,7,Jits_ISO_8,3,5,56,103,2502653160
7716,7,Jits_ISO_8,0,5,56,103,2503413168
7716,7,Jits_ISO_8,1,1,48,37,2503429088
7716,7,Jits_ISO_8,2,5,80,127,2503482696
7716,7,Jits_ISO_8,3,5,63,98,2503543168
7716,7,Jits_ISO_8,0,1,48,29,2504134640
7716,7,Jits_ISO_8,1,5,80,127,2504212816
7716,7,Jits_ISO_8,2,5,63,98,2504302888
7716,7,Jits_ISO_8,3,5,56,103,2504322524
7716,7,Jits_ISO_8,0,1,48,29,2504982456
7716,7,Jits_ISO_8,1,5,63,98,2505033056
7716,7,Jits_ISO_8,2,5,56,103,2505052468
7716,7,Jits_ISO_8,3,5,80,127,2505092640
7716,7,Jits_ISO_8,0,1,48,32,2505786204
7716,7,Jits_ISO_8,1,5,80,127,2505792832
7716,7,Jits_ISO_8,2,5,63,98,2505813512
7716,7,Jits_ISO_8,3,5,56,103,2505893096
7716,7,Jits_ISO_8,0,5,63,98,2506583476
7716,7,Jits_ISO_8,1,1,48,29,2506590180
7716,7,Jits_ISO_8,2,5,56,103,2506692944
7716,7,Jits_ISO_8,3,5,80,127,2506696008
7716,7,Jits_ISO_8,0,1,48,33,2507376124
7716,7,Jits_ISO_8,1,5,63,98,2507402604
7716,7,Jits_ISO_8,2,5,56,103,2507412872
7716,7,Jits_ISO_8,3,5,80,127,2507415936
7716,7,Jits_ISO_8,0,1,48,28,2508164136
7716,7,Jits_ISO_8,1,5,56,103,2508183036
7716,7,Jits_ISO_8,2,5,80,127,2508302680
7716,7,Jits_ISO_8,3,5,63,98,2508342544
7716,7,Jits_ISO_8,0,1,48,34,2508955524
7716,7,Jits_ISO_8,1,5,56,103,2509003128
7716,7,Jits_ISO_8,2,5,80,127,2509082912
7716,7,Jits_ISO_8,3,5,63,98,2509102700
7716,7,Jits_ISO_8,0,1,48,43,2509797788
7716,7,Jits_ISO_8,1,5,56,103,2509802916
7716,7,Jits_ISO_8,2,5,63,98,2509912588
7716,7,Jits_ISO_8,3,5,80,127,2509915804
7716,7,Jits_ISO_8,0,1,48,35,2510574048
7716,7,Jits_ISO_8,1,5,56,103,2510633560
7716,7,Jits_ISO_8,2,5,80,127,2510663236
7716,7,Jits_ISO_8,3,5,63,98,2510682632
7716,7,Jits_ISO_8,0,1,48,38,2511367532
7716,7,Jits_ISO_8,1,5,63,98,2511412520
7716,7,Jits_ISO_8,2,5,56,103,2511422788
7716,7,Jits_ISO_8,3,5,80,127,2511433208
7716,7,Jits_ISO_8,0,1,48,38,2512136744
7716,7,Jits_ISO_8,1,5,80,127,2512203008
7716,7,Jits_ISO_8,2,5,56,103,2512253516
7716,7,Jits_ISO_8,3,5,63,98,2512293304
7716,7,Jits_ISO_8,0,1,48,37,2512943724
7716,7,Jits_ISO_8,1,5,80,127,2513023564
7716,7,Jits_ISO_8,2,5,63,98,2513042740
7716,7,Jits_ISO_8,3,5,56,103,2513092864
7716,7,Jits_ISO_8,0,1,48,36,2513735112
7716,7,Jits_ISO_8,1,5,80,127,2513833600
7716,7,Jits_ISO_8,2,5,56,103,2513863052
7716,7,Jits_ISO_8,3,5,63,98,2513932584
7716,7,Jits_ISO_8,0,1,48,33,2514519388
7716,7,Jits_ISO_8,1,5,56,103,2514683364
7716,7,Jits_ISO_8,2,5,80,127,2514692512
7716,7,Jits_ISO_8,3,5,63,98,2514733424
7716,7,Jits_ISO_8,0,1,48,35,2515365436
7716,7,Jits_ISO_8,1,5,56,103,2515392816
7716,7,Jits_ISO_8,2,5,63,98,2515413276
7716,7,Jits_ISO_8,3,5,80,127,2515483088
7716,7,Jits_ISO_8,0,1,48,37,2516136592
7716,7,Jits_ISO_8,1,5,63,98,2516213344
7716,7,Jits_ISO_8,2,5,80,127,2516272452
7716,7,Jits_ISO_8,3,5,56,103,2516292836
7716,7,Jits_ISO_8,0,1,48,29,2516929404
7716,7,Jits_ISO_8,1,5,80,127,2517002568
7716,7,Jits_ISO_8,2,5,56,103,2517033276
7716,7,Jits_ISO_8,3,5,63,98,2517062952
7716,7,Jits_ISO_8,0,1,48,33,2517788524
7716,7,Jits_ISO_8,1,5,56,103,2517803320
7716,7,Jits_ISO_8,2,5,63,98,2517862764
7716,7,Jits_ISO_8,3,5,80,127,2517923288
7716,7,Jits_ISO_8,0,1,48,30,2518591696
7716,7,Jits_ISO_8,1,5,80,127,2518622512
7716,7,Jits_ISO_8,2,5,56,103,2518642996
7716,7,Jits_ISO_8,3,5,63,98,2518712660
7716,7,Jits_ISO_8,0,1,48,33,2519317816
7716,7,Jits_ISO_8,1,5,80,127,2519423352
7716,7,Jits_ISO_8,2,5,63,98,2519442912
7716,7,Jits_ISO_8,3,5,56,103,2519472588
7716,7,Jits_ISO_8,0,1,48,32,2520099236
7716,7,Jits_ISO_8,1,5,80,127,2520212792
7716,7,Jits_ISO_8,2,5,63,98,2520233252
7716,7,Jits_ISO_8,3,5,56,103,2520292744
7716,7,Jits_ISO_8,0,1,48,32,2520890100
7716,7,Jits_ISO_8,1,5,80,127,2521012648
7716,7,Jits_ISO_8,2,5,56,103,2521112972
7716,7,Jits_ISO_8,3,5,63,98,2521142724
7716,7,Jits_ISO_8,0,5,63,98,2521803240
7716,7,Jits_ISO_8,1,1,48,28,2521814456
7716,7,Jits_ISO_8,2,5,80,127,2521853288
7716,7,Jits_ISO_8,3,5,56,103,2521872704
7716,7,Jits_ISO_8,0,1,48,35,2522565300
7716,7,Jits_ISO_8,1,5,80,127,2522642728
7716,7,Jits_ISO_8,2,5,56,103,2522672384
7716,7,Jits_ISO_8,3,5,63,98,2522675604
7716,7,Jits_ISO_8,0,1,48,34,2523334436
7716,7,Jits_ISO_8,1,5,63,98,2523473504
7716,7,Jits_ISO_8,2,5,56,103,2523513172
7716,7,Jits_ISO_8,3,5,80,127,2523532660
7716,7,Jits_ISO_8,0,1,48,32,2524147260
7716,7,Jits_ISO_8,1,5,80,127,2524212548
7716,7,Jits_ISO_8,2,5,63,98,2524292508
7716,7,Jits_ISO_8,3,5,56,103,2524333492
7716,7,Jits_ISO_8,0,1,48,30,2524972528
7716,7,Jits_ISO_8,1,5,63,98,2525032892
7716,7,Jits_ISO_8,2,5,80,127,2525112676
7716,7,Jits_ISO_8,3,5,56,103,2525133280
7716,7,Jits_ISO_8,0,1,48,34,2525771048
7716,7,Jits_ISO_8,1,5,56,103,2525872524
7716,7,Jits_ISO_8,2,5,63,98,2525882724
7716,7,Jits_ISO_8,3,5,80,127,2525922736
7716,7,Jits_ISO_8,0,5,56,103,2526593436
7716,7,Jits_ISO_8,1,5,80,127,2526596356
7716,7,Jits_ISO_8,2,1,48,29,2526626000
7716,7,Jits_ISO_8,3,5,63,98,2526732692
7716,7,Jits_ISO_8,0,1,48,34,2527308872
7716,7,Jits_ISO_8,1,5,56,103,2527383028
7716,7,Jits_ISO_8,2,5,63,98,2527473372
7716,7,Jits_ISO_8,3,5,80,127,2527542608
7716,7,Jits_ISO_8,0,1,48,40,2528121428
7716,7,Jits_ISO_8,1,5,63,98,2528262592
7716,7,Jits_ISO_8,2,5,80,127,2528265880
7716,7,Jits_ISO_8,3,5,56,103,2528322980
7716,7,Jits_ISO_8,0,1,48,38,2528918048
7716,7,Jits_ISO_8,1,5,80,127,2529103352
7716,7,Jits_ISO_8,2,5,56,103,2529122620
7716,7,Jits_ISO_8,3,5,63,98,2529133112
7716,7,Jits_ISO_8,0,1,48,34,2529798364
7716,7,Jits_ISO_8,1,5,56,103,2529812928
7716,7,Jits_ISO_8,2,5,63,98,2529823200
7716,7,Jits_ISO_8,3,5,80,127,2529892660
7716,7,Jits_ISO_8,0,1,48,31,2530460032
7716,7,Jits_ISO_8,1,5,80,127,2530612524
7716,7,Jits_ISO_8,2,5,56,103,2530662824
7716,7,Jits_ISO_8,3,5,63,98,2530713100
7716,7,Jits_ISO_8,0,1,48,29,2531289032
7716,7,Jits_ISO_8,1,5,56,103,2531493176
7716,7,Jits_ISO_8,2,5,63,98,2531502400
7716,7,Jits_ISO_8,3,5,80,127,2531543384
7716,7,Jits_ISO_8,0,1,48,37,2532197116
7716,7,Jits_ISO_8,1,5,56,103,2532232512
7716,7,Jits_ISO_8,2,5,63,98,2532272528
7716,7,Jits_ISO_8,3,5,80,127,2532322568
7716,7,Jits_ISO_8,0,1,48,38,2532961828
7716,7,Jits_ISO_8,1,5,80,127,2532993416
7716,7,Jits_ISO_8,2,5,56,103,2533042496
7716,7,Jits_ISO_8,3,5,63,98,2533063240
7716,7,Jits_ISO_8,0,1,48,32,2533750156
7716,7,Jits_ISO_8,1,5,80,127,2533803312
7716,7,Jits_ISO_8,2,5,63,98,2533862940
7716,7,Jits_ISO_8,3,5,56,103,2533942660
7716,7,Jits_ISO_8,0,5,80,127,2534582580
7716,7,Jits_ISO_8,1,1,48,37,2534606296
7716,7,Jits_ISO_8,2,5,56,103,2534622512
7716,7,Jits_ISO_8,3,5,63,98,2534642972
7716,7,Jits_ISO_8,0,1,48,39,2535298712
7716,7,Jits_ISO_8,1,5,56,103,2535432548
7716,7,Jits_ISO_8,2,5,80,127,2535442892
7716,7,Jits_ISO_8,3,5,63,98,2535482760
7716,7,Jits_ISO_8,0,1,48,30,2536091920
7716,7,Jits_ISO_8,1,5,56,103,2536303160
7716,7,Jits_ISO_8,2,5,63,98,2536343024
7716,7,Jits_ISO_8,3,5,80,127,2536346240
7716,7,Jits_ISO_8,0,5,63,98,2536993180
7716,7,Jits_ISO_8,1,5,80,127,2537033048
7716,7,Jits_ISO_8,2,5,56,103,2537102824
7716,7,Jits_ISO_8,3,1,48,36,2537117180
7716,7,Jits_ISO_8,0,1,48,26,2537711868
7716,7,Jits_ISO_8,1,5,63,98,2537782616
7716,7,Jits_ISO_8,2,5,56,103,2537862504
7716,7,Jits_ISO_8,3,5,80,127,2537923040
7716,7,Jits_ISO_8,0,1,48,29,2538471496
7716,7,Jits_ISO_8,1,5,80,127,2538592504
7716,7,Jits_ISO_8,2,5,63,98,2538642880
7716,7,Jits_ISO_8,3,5,56,103,2538672408
7716,7,Jits_ISO_8,0,1,48,31,2539357800
7716,7,Jits_ISO_8,1,5,56,103,2539383032
7716,7,Jits_ISO_8,2,5,63,98,2539433312
7716,7,Jits_ISO_8,3,5,80,127,2539442684
7716,7,Jits_ISO_8,0,1,48,25,2540081092
7716,7,Jits_ISO_8,1,5,56,103,2540193136
7716,7,Jits_ISO_8,2,5,63,98,2540303052
7716,7,Jits_ISO_8,3,5,80,127,2540323216
7716,7,Jits_ISO_8,0,1,48,34,2540885152
7716,7,Jits_ISO_8,1,5,63,98,2540993076
7716,7,Jits_ISO_8,2,5,80,127,2541042908
7716,7,Jits_ISO_8,3,5,56,103,2541133264
7716,7,Jits_ISO_8,0,1,48,29,2541646568
7716,7,Jits_ISO_8,1,5,63,98,2541783424
7716,7,Jits_ISO_8,2,5,80,127,2541813248
7716,7,Jits_ISO_8,3,5,56,103,2541903084
7716,7,Jits_ISO_8,0,1,48,32,2542439028
7716,7,Jits_ISO_8,1,5,63,98,2542583204
7716,7,Jits_ISO_8,2,5,56,103,2542593252
7716,7,Jits_ISO_8,3,5,80,127,2542692920
7716,7,Jits_ISO_8,0,1,48,32,2543217832
7716,7,Jits_ISO_8,1,5,63,98,2543483180
7716,7,Jits_ISO_8,2,5,80,127,2543513080
7716,7,Jits_ISO_8,3,5,56,103,2543542608
7716,7,Jits_ISO_8,0,1,48,28,2544088048
7716,7,Jits_ISO_8,1,5,80,127,2544302380
7716,7,Jits_ISO_8,2,5,63,98,2544312948
7716,7,Jits_ISO_8,3,5,56,103,2544343372
7716,7,Jits_ISO_8,0,5,80,127,2545003064
7716,7,Jits_ISO_8,1,5,63,98,2545023304
7716,7,Jits_ISO_8,2,1,48,30,2545034368
7716,7,Jits_ISO_8,3,5,56,103,2545072376
7716,7,Jits_ISO_8,0,1,48,37,2545712072
7716,7,Jits_ISO_8,1,5,63,98,2545833188
7716,7,Jits_ISO_8,2,5,80,127,2545892828
7716,7,Jits_ISO_8,3,5,56,103,2545913140
7716,7,Jits_ISO_8,0,1,48,29,2546497844
7716,7,Jits_ISO_8,1,5,63,98,2546593040
7716,7,Jits_ISO_8,2,5,56,103,2546643316
7716,7,Jits_ISO_8,3,5,80,127,2546652468
7716,7,Jits_ISO_8,0,1,48,37,2547297624
7716,7,Jits_ISO_8,1,5,56,103,2547422712
7716,7,Jits_ISO_8,2,5,80,127,2547433132
7716,7,Jits_ISO_8,3,5,63,98,2547533080
7716,7,Jits_ISO_8,0,1,48,29,2548056204
7716,7,Jits_ISO_8,1,5,80,127,2548183532
7716,7,Jits_ISO_8,2,5,63,98,2548192908
7716,7,Jits_ISO_8,3,5,56,103,2548343152
7716,7,Jits_ISO_8,0,1,48,32,2548900804
7716,7,Jits_ISO_8,1,5,63,98,2548993372
7716,7,Jits_ISO_8,2,5,80,127,2549033224
7716,7,Jits_ISO_8,3,5,56,103,2549113120
7716,7,Jits_ISO_8,0,1,48,31,2549692956
7716,7,Jits_ISO_8,1,5,56,103,2549783040
7716,7,Jits_ISO_8,2,5,80,127,2549883228
7716,7,Jits_ISO_8,3,5,63,98,2549902716
7716,7,Jits_ISO_8,0,1,48,32,2550475360
7716,7,Jits_ISO_8,1,5,80,127,2550643004
7716,7,Jits_ISO_8,2,5,56,103,2550653200
7716,7,Jits_ISO_8,3,5,63,98,2550743556
7716,7,Jits_ISO_8,0,1,48,27,2551312240
7716,7,Jits_ISO_8,1,5,56,103,2551442940
7716,7,Jits_ISO_8,2,5,63,98,2551463324
7716,7,Jits_ISO_8,3,5,80,127,2551543044
7716,7,Jits_ISO_8,0,1,48,32,2552191328
7716,7,Jits_ISO_8,1,5,63,98,2552193296
7716,7,Jits_ISO_8,2,5,56,103,2552283580
7716,7,Jits_ISO_8,3,5,80,127,2552286332
7716,7,Jits_ISO_8,0,1,48,39,2552965092
7716,7,Jits_ISO_8,1,5,56,103,2553022964
7716,7,Jits_ISO_8,2,5,80,127,2553083120
7716,7,Jits_ISO_8,3,5,63,98,2553092564
7716,7,Jits_ISO_8,0,1,48,36,2553770864
7716,7,Jits_ISO_8,1,5,80,127,2553872864
7716,7,Jits_ISO_8,2,5,56,103,2553882980
7716,7,Jits_ISO_8,3,5,63,98,2553886196
7716,7,Jits_ISO_8,0,1,48,35,2554560704
7716,7,Jits_ISO_8,1,5,56,103,2554632724
7716,7,Jits_ISO_8,2,5,80,127,2554642920
7716,7,Jits_ISO_8,3,5,63,98,2554663216
7716,7,Jits_ISO_8,0,1,48,36,2555290640
7716,7,Jits_ISO_8,1,5,63,98,2555402748
7716,7,Jits_ISO_8,2,5,80,127,2555462916
7716,7,Jits_ISO_8,3,5,56,103,2555513144
7716,7,Jits_ISO_8,0,1,48,29,2556104296
7716,7,Jits_ISO_8,1,5,63,98,2556283176
7716,7,Jits_ISO_8,2,5,56,103,2556292624
7716,7,Jits_ISO_8,3,5,80,127,2556342676
7716,7,Jits_ISO_8,0,1,48,28,2556827580
7716,7,Jits_ISO_8,1,5,63,98,2556982768
7716,7,Jits_ISO_8,2,5,80,127,2557003004
7716,7,Jits_ISO_8,3,5,56,103,2557013348
7716,7,Jits_ISO_8,0,1,48,37,2557626160
7716,7,Jits_ISO_8,1,5,63,98,2557783660
7716,7,Jits_ISO_8,2,5,80,127,2557786876
7716,7,Jits_ISO_8,3,5,56,103,2557823476
7716,7,Jits_ISO_8,0,1,48,31,2558542740
7716,7,Jits_ISO_8,1,5,63,98,2558652912
7716,7,Jits_ISO_8,2,5,80,127,2558682516
7716,7,Jits_ISO_8,3,5,56,103,2558692860
7716,7,Jits_ISO_8,0,1,48,27,2559354684
7716,7,Jits_ISO_8,1,5,56,103,2559403264
7716,7,Jits_ISO_8,2,5,80,127,2559433164
7716,7,Jits_ISO_8,3,5,63,98,2559462900
7716,7,Jits_ISO_8,0,1,48,32,2560086264
7716,7,Jits_ISO_8,1,5,63,98,2560302532
7716,7,Jits_ISO_8,2,5,56,103,2560343516
7716,7,Jits_ISO_8,3,5,80,127,2560346508
7716,7,Jits_ISO_8,0,1,48,38,2560951032
7716,7,Jits_ISO_8,1,5,80,127,2561002828
7716,7,Jits_ISO_8,2,5,56,103,2561082836
7716,7,Jits_ISO_8,3,5,63,98,2561132764
7716,7,Jits_ISO_8,0,5,80,127,2561783212
7716,7,Jits_ISO_8,1,5,56,103,2561802700
7716,7,Jits_ISO_8,2,1,48,40,2561804260
7716,7,Jits_ISO_8,3,5,63,98,2561892776
7716,7,Jits_ISO_8,0,1,48,36,2562497104
7716,7,Jits_ISO_8,1,5,80,127,2562622916
7716,7,Jits_ISO_8,2,5,63,98,2562662956
7716,7,Jits_ISO_8,3,5,56,103,2562702968
7716,7,Jits_ISO_8,0,1,48,35,2563306928
7716,7,Jits_ISO_8,1,5,63,98,2563392824
7716,7,Jits_ISO_8,2,5,80,127,2563453376
7716,7,Jits_ISO_8,3,5,56,103,2563482976
7716,7,Jits_ISO_8,0,1,48,34,2564034408
7716,7,Jits_ISO_8,1,5,56,103,2564192736
7716,7,Jits_ISO_8,2,5,80,127,2564223484
7716,7,Jits_ISO_8,3,5,63,98,2564312644
7716,7,Jits_ISO_8,0,1,48,36,2564809084
7716,7,Jits_ISO_8,1,5,56,103,2565002584
7716,7,Jits_ISO_8,2,5,80,127,2565113320
7716,7,Jits_ISO_8,3,5,63,98,2565142996
7716,7,Jits_ISO_8,0,1,48,34,2565643568
7716,7,Jits_ISO_8,1,5,56,103,2565852716
7716,7,Jits_ISO_8,2,5,63,98,2565912888
7716,7,Jits_ISO_8,3,5,80,127,2565942784
7716,7,Jits_ISO_8,0,5,56,103,2566622632
7716,7,Jits_ISO_8,1,1,48,32,2566631080
7716,7,Jits_ISO_8,2,5,63,98,2566693208
7716,7,Jits_ISO_8,3,5,80,127,2566712620
7716,7,Jits_ISO_8,0,1,48,31,2567326044
7716,7,Jits_ISO_8,1,5,80,127,2567392756
7716,7,Jits_ISO_8,2,5,63,98,2567413068
7716,7,Jits_ISO_8,3,5,56,103,2567463404
7716,7,Jits_ISO_8,0,9999,9999,9999,2472661052
7716,7,Jits_ISO_8,1,9999,9999,9999,2473460828
7716,7,Jits_ISO_8,2,9999,9999,9999,2474260604
7716,7,Jits_ISO_8,3,9999,9999,9999,2475060328
7716,7,Jits_ISO_8,4,9999,9999,9999,2475861096
7716,7,Jits_ISO_8,5,9999,9999,9999,2476660836
7716,7,Jits_ISO_8,6,9999,9999,9999,2477460544
7716,7,Jits_ISO_8,7,9999,9999,9999,2478260328
7716,7,Jits_ISO_8,8,9999,9999,9999,2479061092
7716,7,Jits_ISO_8,9,9999,9999,9999,2479860788
7716,7,Jits_ISO_8,10,9999,9999,9999,2480660580
7716,7,Jits_ISO_8,11,9999,9999,9999,2481460292
7716,7,Jits_ISO_8,12,9999,9999,9999,2482261052
7716,7,Jits_ISO_8,13,9999,9999,9999,2483060856
7716,7,Jits_ISO_8,14,9999,9999,9999,2483860556
7716,7,Jits_ISO_8,15,9999,9999,9999,2484660328
7716,7,Jits_ISO_8,16,9999,9999,9999,2485461068
7716,7,Jits_ISO_8,17,9999,9999,9999,2486260860
7716,7,Jits_ISO_8,18,9999,9999,9999,2487060576
7716,7,Jits_ISO_8,19,9999,9999,9999,2487860288
7716,7,Jits_ISO_8,20,9999,9999,9999,2488661044
7716,7,Jits_ISO_8,21,9999,9999,9999,2489460852
7716,7,Jits_ISO_8,22,9999,9999,9999,2490260552
7716,7,Jits_ISO_8,23,9999,9999,9999,2491060336
7716,7,Jits_ISO_8,24,9999,9999,9999,2491861092
7716,7,Jits_ISO_8,25,9999,9999,9999,2492660800
7716,7,Jits_ISO_8,26,9999,9999,9999,2493460584
7716,7,Jits_ISO_8,27,9999,9999,9999,2494260292
7716,7,Jits_ISO_8,28,9999,9999,9999,2495061048
7716,7,Jits_ISO_8,29,9999,9999,9999,2495860788
7716,7,Jits_ISO_8,30,9999,9999,9999,2496660572
7716,7,Jits_ISO_8,31,9999,9999,9999,2497460284
7716,7,Jits_ISO_8,32,9999,9999,9999,2498261112
7716,7,Jits_ISO_8,33,9999,9999,9999,2499060816
7716,7,Jits_ISO_8,34,9999,9999,9999,2499860600
7716,7,Jits_ISO_8,35,9999,9999,9999,2500660320
7716,7,Jits_ISO_8,36,9999,9999,9999,2501461084
7716,7,Jits_ISO_8,37,9999,9999,9999,2502260820
7716,7,Jits_ISO_8,38,9999,9999,9999,2503060540
7716,7,Jits_ISO_8,39,9999,9999,9999,2503860344
7716,7,Jits_ISO_8,40,9999,9999,9999,2504661044
7716,7,Jits_ISO_8,41,9999,9999,9999,2505460832
7716,7,Jits_ISO_8,42,9999,9999,9999,2506260536
7716,7,Jits_ISO_8,43,9999,9999,9999,2507060308
7716,7,Jits_ISO_8,44,9999,9999,9999,2507861052
7716,7,Jits_ISO_8,45,9999,9999,9999,2508660788
7716,7,Jits_ISO_8,46,9999,9999,9999,2509460576
7716,7,Jits_ISO_8,47,9999,9999,9999,2510260276
7716,7,Jits_ISO_8,48,9999,9999,9999,2511061108
7716,7,Jits_ISO_8,49,9999,9999,9999,2511860816
7716,7,Jits_ISO_8,50,9999,9999,9999,2512660596
7716,7,Jits_ISO_8,51,9999,9999,9999,2513460304
7716,7,Jits_ISO_8,52,9999,9999,9999,2514261068
7716,7,Jits_ISO_8,53,9999,9999,9999,2515060808
7716,7,Jits_ISO_8,54,9999,9999,9999,2515860592
7716,7,Jits_ISO_8,55,9999,9999,9999,2516660300
7716,7,Jits_ISO_8,56,9999,9999,9999,2517461056
7716,7,Jits_ISO_8,57,9999,9999,9999,2518260836
7716,7,Jits_ISO_8,58,9999,9999,9999,2519060544
7716,7,Jits_ISO_8,59,9999,9999,9999,2519860328
7716,7,Jits_ISO_8,60,9999,9999,9999,2520661080
7716,7,Jits_ISO_8,61,9999,9999,9999,2521460820
7716,7,Jits_ISO_8,62,9999,9999,9999,2522260600
7716,7,Jits_ISO_8,63,9999,9999,9999,2523060304
7716,7,Jits_ISO_8,64,9999,9999,9999,2523861068
7716,7,Jits_ISO_8,65,9999,9999,9999,2524660852
7716,7,Jits_ISO_8,66,9999,9999,9999,2525460568
7716,7,Jits_ISO_8,67,9999,9999,9999,2526260284
7716,7,Jits_ISO_8,68,9999,9999,9999,2527061100
7716,7,Jits_ISO_8,69,9999,9999,9999,2527860852
7716,7,Jits_ISO_8,70,9999,9999,9999,2528660556
7716,7,Jits_ISO_8,71,9999,9999,9999,2529460328
7716,7,Jits_ISO_8,72,9999,9999,9999,2530261056
7716,7,Jits_ISO_8,73,9999,9999,9999,2531060840
7716,7,Jits_ISO_8,74,9999,9999,9999,2531860556
7716,7,Jits_ISO_8,75,9999,9999,9999,2532660340
7716,7,Jits_ISO_8,76,9999,9999,9999,2533461096
7716,7,Jits_ISO_8,77,9999,9999,9999,2534260832
7716,7,Jits_ISO_8,78,9999,9999,9999,2535060536
7716,7,Jits_ISO_8,79,9999,9999,9999,2535860336
7716,7,Jits_ISO_8,80,9999,9999,9999,2536661096
7716,7,Jits_ISO_8,81,9999,9999,9999,2537460804
7716,7,Jits_ISO_8,82,9999,9999,9999,2538260588
7716,7,Jits_ISO_8,83,9999,9999,9999,2539060296
7716,7,Jits_ISO_8,84,9999,9999,9999,2539861048
7716,7,Jits_ISO_8,85,9999,9999,9999,2540660788
7716,7,Jits_ISO_8,86,9999,9999,9999,2541460576
7716,7,Jits_ISO_8,87,9999,9999,9999,2542260284
7716,7,Jits_ISO_8,88,9999,9999,9999,2543061108
7716,7,Jits_ISO_8,89,9999,9999,9999,2543860828
7716,7,Jits_ISO_8,90,9999,9999,9999,2544660544
7716,7,Jits_ISO_8,91,9999,9999,9999,2545460324
7716,7,Jits_ISO_8,92,9999,9999,9999,2546261100
7716,7,Jits_ISO_8,93,9999,9999,9999,2547060832
7716,7,Jits_ISO_8,94,9999,9999,9999,2547860540
7716,7,Jits_ISO_8,95,9999,9999,9999,2548660324
7716,7,Jits_ISO_8,96,9999,9999,9999,2549461080
7716,7,Jits_ISO_8,97,9999,9999,9999,2550260788
7716,7,Jits_ISO_8,98,9999,9999,9999,2551060580
7716,7,Jits_ISO_8,99,9999,9999,9999,2551860292
7716,7,Jits_ISO_8,100,9999,9999,9999,2552661116
7716,7,Jits_ISO_8,101,9999,9999,9999,2553460852
7716,7,Jits_ISO_8,102,9999,9999,9999,2554260560
7716,7,Jits_ISO_8,103,9999,9999,9999,2555060344
7716,7,Jits_ISO_8,104,9999,9999,9999,2555861104
7716,7,Jits_ISO_8,105,9999,9999,9999,2556660820
7716,7,Jits_ISO_8,106,9999,9999,9999,2557460596
7716,7,Jits_ISO_8,107,9999,9999,9999,2558260288
7716,7,Jits_ISO_8,108,9999,9999,9999,2559061048
7716,7,Jits_ISO_8,109,9999,9999,9999,2559860852
7716,7,Jits_ISO_8,110,9999,9999,9999,2560660564
7716,7,Jits_ISO_8,111,9999,9999,9999,2561460348
7716,7,Jits_ISO_8,112,9999,9999,9999,2562261096
7716,7,Jits_ISO_8,113,9999,9999,9999,2563060824
7716,7,Jits_ISO_8,114,9999,9999,9999,2563860604
7716,7,Jits_ISO_8,115,9999,9999,9999,2564660308
7716,7,Jits_ISO_8,116,9999,9999,9999,2565461068
7716,7,Jits_ISO_8,117,9999,9999,9999,2566260804
7716,7,Jits_ISO_8,118,9999,9999,9999,2567060592
7716,7,Jits_ISO_8,119,9999,9999,9999,2567860312
7717,16,Jits_ISO_5,0,5,56,103,2577342780
7717,16,Jits_ISO_5,1,5,63,98,2577345800
7717,16,Jits_ISO_5,2,5,80,127,2577348924
7717,16,Jits_ISO_5,0,5,56,103,2577842652
7717,16,Jits_ISO_5,1,5,63,98,2577845596
7717,16,Jits_ISO_5,2,5,80,127,2577848868
7717,16,Jits_ISO_5,0,1,48,44,2578320468
7717,16,Jits_ISO_5,1,5,56,103,2578352496
7717,16,Jits_ISO_5,2,5,80,127,2578362840
7717,16,Jits_ISO_5,3,5,63,98,2578383372
7717,16,Jits_ISO_5,0,1,48,35,2578803308
7717,16,Jits_ISO_5,1,5,63,98,2578804500
7717,16,Jits_ISO_5,2,5,80,127,2578832684
7717,16,Jits_ISO_5,3,5,56,103,2578843028
7717,16,Jits_ISO_5,0,1,48,34,2579305556
7717,16,Jits_ISO_5,1,5,80,127,2579363272
7717,16,Jits_ISO_5,2,5,56,103,2579373468
7717,16,Jits_ISO_5,3,5,63,98,2579403572
7717,16,Jits_ISO_5,0,1,48,35,2579811892
7717,16,Jits_ISO_5,1,5,63,98,2579852600
7717,16,Jits_ISO_5,2,5,56,103,2579883472
7717,16,Jits_ISO_5,3,5,80,127,2579892472
7717,16,Jits_ISO_5,0,5,56,103,2580303316
7717,16,Jits_ISO_5,1,1,48,36,2580316100
7717,16,Jits_ISO_5,2,5,63,98,2580353536
7717,16,Jits_ISO_5,3,5,80,127,2580372800
7717,16,Jits_ISO_5,0,1,48,36,2580783184
7717,16,Jits_ISO_5,1,5,80,127,2580803132
7717,16,Jits_ISO_5,2,5,63,98,2580853136
7717,16,Jits_ISO_5,3,5,56,103,2580892984
7717,16,Jits_ISO_5,0,1,48,36,2581269416
7717,16,Jits_ISO_5,1,5,56,103,2581302568
7717,16,Jits_ISO_5,2,5,63,98,2581333440
7717,16,Jits_ISO_5,3,5,80,127,2581402976
7717,16,Jits_ISO_5,0,1,48,37,2581760396
7717,16,Jits_ISO_5,1,5,56,103,2581803268
7717,16,Jits_ISO_5,2,5,80,127,2581862820
7717,16,Jits_ISO_5,3,5,63,98,2581892568
7717,16,Jits_ISO_5,0,1,48,37,2582275228
7717,16,Jits_ISO_5,1,5,56,103,2582313240
7717,16,Jits_ISO_5,2,5,63,98,2582322540
7717,16,Jits_ISO_5,3,5,80,127,2582362476
7717,16,Jits_ISO_5,0,1,48,37,2582746412
7717,16,Jits_ISO_5,1,5,63,98,2582802780
7717,16,Jits_ISO_5,2,5,80,127,2582882660
7717,16,Jits_ISO_5,3,5,56,103,2582892852
7717,16,Jits_ISO_5,0,1,48,40,2583286004
7717,16,Jits_ISO_5,1,5,63,98,2583352712
7717,16,Jits_ISO_5,2,5,56,103,2583392560
7717,16,Jits_ISO_5,3,5,80,127,2583395648
7717,16,Jits_ISO_5,0,1,48,37,2583761316
7717,16,Jits_ISO_5,1,5,56,103,2583812580
7717,16,Jits_ISO_5,2,5,63,98,2583822776
7717,16,Jits_ISO_5,3,5,80,127,2583862624
7717,16,Jits_ISO_5,0,1,48,35,2584263064
7717,16,Jits_ISO_5,1,5,56,103,2584303164
7717,16,Jits_ISO_5,2,5,63,98,2584306232
7717,16,Jits_ISO_5,3,5,80,127,2584322504
7717,16,Jits_ISO_5,0,1,48,38,2584737080
7717,16,Jits_ISO_5,1,5,80,127,2584812928
7717,16,Jits_ISO_5,2,5,56,103,2584823424
7717,16,Jits_ISO_5,3,5,63,98,2584892636
7717,16,Jits_ISO_5,0,1,48,36,2585235312
7717,16,Jits_ISO_5,1,5,63,98,2585303368
7717,16,Jits_ISO_5,2,5,56,103,2585322856
7717,16,Jits_ISO_5,3,5,80,127,2585402632
7717,16,Jits_ISO_5,0,1,48,35,2585746808
7717,16,Jits_ISO_5,1,5,56,103,2585813292
7717,16,Jits_ISO_5,2,5,80,127,2585853288
7717,16,Jits_ISO_5,3,5,63,98,2585862516
7717,16,Jits_ISO_5,0,1,48,36,2586243176
7717,16,Jits_ISO_5,1,5,80,127,2586302688
7717,16,Jits_ISO_5,2,5,63,98,2586332588
7717,16,Jits_ISO_5,3,5,56,103,2586372508
7717,16,Jits_ISO_5,0,1,48,36,2586739296
7717,16,Jits_ISO_5,1,5,56,103,2586823168
7717,16,Jits_ISO_5,2,5,63,98,2586852756
7717,16,Jits_ISO_5,3,5,80,127,2586903176
7717,16,Jits_ISO_5,0,1,48,35,2587223512
7717,16,Jits_ISO_5,1,5,80,127,2587322668
7717,16,Jits_ISO_5,2,5,56,103,2587362752
7717,16,Jits_ISO_5,3,5,63,98,2587373096
7717,16,Jits_ISO_5,0,1,48,35,2587718144
7717,16,Jits_ISO_5,1,5,80,127,2587803084
7717,16,Jits_ISO_5,2,5,63,98,2587842860
7717,16,Jits_ISO_5,3,5,56,103,2587903468
7717,16,Jits_ISO_5,0,1,48,35,2588222008
7717,16,Jits_ISO_5,1,5,56,103,2588302596
7717,16,Jits_ISO_5,2,5,80,127,2588313372
7717,16,Jits_ISO_5,3,5,63,98,2588392788
7717,16,Jits_ISO_5,0,1,48,35,2588703676
7717,16,Jits_ISO_5,1,5,80,127,2588802400
7717,16,Jits_ISO_5,2,5,63,98,2588862704
7717,16,Jits_ISO_5,3,5,56,103,2588892672
7717,16,Jits_ISO_5,0,1,48,37,2589207156
7717,16,Jits_ISO_5,1,5,56,103,2589303256
7717,16,Jits_ISO_5,2,5,80,127,2589362436
7717,16,Jits_ISO_5,3,5,63,98,2589402520
7717,16,Jits_ISO_5,0,1,48,34,2589729360
7717,16,Jits_ISO_5,1,5,56,103,2589853320
7717,16,Jits_ISO_5,2,5,63,98,2589863216
7717,16,Jits_ISO_5,3,5,80,127,2589866656
7717,16,Jits_ISO_5,0,1,48,37,2590276584
7717,16,Jits_ISO_5,1,5,80,127,2590302544
7717,16,Jits_ISO_5,2,5,63,98,2590392612
7717,16,Jits_ISO_5,3,5,56,103,2590403176
7717,16,Jits_ISO_5,0,5,56,103,2590803388
7717,16,Jits_ISO_5,1,5,63,98,2590806412
7717,16,Jits_ISO_5,2,5,80,127,2590809760
7717,16,Jits_ISO_5,3,1,48,38,2590810740
7717,16,Jits_ISO_5,0,1,48,38,2591302052
7717,16,Jits_ISO_5,1,5,80,127,2591322604
7717,16,Jits_ISO_5,2,5,63,98,2591372680
7717,16,Jits_ISO_5,3,5,56,103,2591403312
7717,16,Jits_ISO_5,0,1,48,37,2591771148
7717,16,Jits_ISO_5,1,5,56,103,2591802708
7717,16,Jits_ISO_5,2,5,80,127,2591813128
7717,16,Jits_ISO_5,3,5,63,98,2591882520
7717,16,Jits_ISO_5,0,1,48,37,2592243600
7717,16,Jits_ISO_5,1,5,56,103,2592312632
7717,16,Jits_ISO_5,2,5,63,98,2592333168
7717,16,Jits_ISO_5,3,5,80,127,2592392592
7717,16,Jits_ISO_5,0,1,48,32,2592713436
7717,16,Jits_ISO_5,1,5,80,127,2592803140
7717,16,Jits_ISO_5,2,5,63,98,2592872908
7717,16,Jits_ISO_5,3,5,56,103,2592893288
7717,16,Jits_ISO_5,0,1,48,40,2593226576
7717,16,Jits_ISO_5,1,5,80,127,2593324140
7717,16,Jits_ISO_5,2,5,56,103,2593332688
7717,16,Jits_ISO_5,3,5,63,98,2593343328
7717,16,Jits_ISO_5,0,1,48,40,2593710124
7717,16,Jits_ISO_5,1,5,80,127,2593812932
7717,16,Jits_ISO_5,2,5,56,103,2593833392
7717,16,Jits_ISO_5,3,5,63,98,2593903244
7717,16,Jits_ISO_5,0,1,48,41,2594193308
7717,16,Jits_ISO_5,1,5,56,103,2594322932
7717,16,Jits_ISO_5,2,5,80,127,2594352456
7717,16,Jits_ISO_5,3,5,63,98,2594373064
7717,16,Jits_ISO_5,0,1,48,37,2594704280
7717,16,Jits_ISO_5,1,5,63,98,2594813228
7717,16,Jits_ISO_5,2,5,56,103,2594872644
7717,16,Jits_ISO_5,3,5,80,127,2594903512
7717,16,Jits_ISO_5,0,1,48,40,2595240196
7717,16,Jits_ISO_5,1,5,63,98,2595302712
7717,16,Jits_ISO_5,2,5,80,127,2595306148
7717,16,Jits_ISO_5,3,5,56,103,2595392900
7717,16,Jits_ISO_5,0,1,48,35,2595710692
7717,16,Jits_ISO_5,1,5,56,103,2595823020
7717,16,Jits_ISO_5,2,5,63,98,2595852772
7717,16,Jits_ISO_5,3,5,80,127,2595892560
7717,16,Jits_ISO_5,0,1,48,39,2596207740
7717,16,Jits_ISO_5,1,5,63,98,2596322608
7717,16,Jits_ISO_5,2,5,56,103,2596362548
7717,16,Jits_ISO_5,3,5,80,127,2596383004
7717,16,Jits_ISO_5,0,1,48,37,2596690064
7717,16,Jits_ISO_5,1,5,63,98,2596832680
7717,16,Jits_ISO_5,2,5,56,103,2596872616
7717,16,Jits_ISO_5,3,5,80,127,2596882964
7717,16,Jits_ISO_5,0,1,48,35,2597150764
7717,16,Jits_ISO_5,1,5,80,127,2597313008
7717,16,Jits_ISO_5,2,5,63,98,2597382392
7717,16,Jits_ISO_5,3,5,56,103,2597403072
7717,16,Jits_ISO_5,4,1,48,36,2597591548
7717,16,Jits_ISO_5,0,5,56,103,2597803340
7717,16,Jits_ISO_5,1,5,80,127,2597823052
7717,16,Jits_ISO_5,2,5,63,98,2597862692
7717,16,Jits_ISO_5,0,1,48,39,2598139384
7717,16,Jits_ISO_5,1,5,63,98,2598313396
7717,16,Jits_ISO_5,2,5,80,127,2598332660
7717,16,Jits_ISO_5,3,5,56,103,2598372820
7717,16,Jits_ISO_5,0,1,48,35,2598695468
7717,16,Jits_ISO_5,1,5,63,98,2598813056
7717,16,Jits_ISO_5,2,5,56,103,2598832392
7717,16,Jits_ISO_5,3,5,80,127,2598842588
7717,16,Jits_ISO_5,0,1,48,34,2599230400
7717,16,Jits_ISO_5,1,5,80,127,2599312724
7717,16,Jits_ISO_5,2,5,56,103,2599333320
7717,16,Jits_ISO_5,3,5,63,98,2599363140
7717,16,Jits_ISO_5,0,1,48,33,2599770060
7717,16,Jits_ISO_5,1,5,56,103,2599883164
7717,16,Jits_ISO_5,2,5,80,127,2599886080
7717,16,Jits_ISO_5,3,5,63,98,2599902500
7717,16,Jits_ISO_5,0,1,48,32,2600280056
7717,16,Jits_ISO_5,1,5,63,98,2600303192
7717,16,Jits_ISO_5,2,5,56,103,2600332796
7717,16,Jits_ISO_5,3,5,80,127,2600392944
7717,16,Jits_ISO_5,0,1,48,35,2600771192
7717,16,Jits_ISO_5,1,5,63,98,2600882628
7717,16,Jits_ISO_5,2,5,56,103,2600892976
7717,16,Jits_ISO_5,3,5,80,127,2600903020
7717,16,Jits_ISO_5,0,1,48,33,2601234744
7717,16,Jits_ISO_5,1,5,56,103,2601333076
7717,16,Jits_ISO_5,2,5,80,127,2601363048
7717,16,Jits_ISO_5,3,5,63,98,2601373020
7717,16,Jits_ISO_5,0,1,48,32,2601702492
7717,16,Jits_ISO_5,1,5,63,98,2601872892
7717,16,Jits_ISO_5,2,5,56,103,2601882940
7717,16,Jits_ISO_5,3,5,80,127,2601902500
7717,16,Jits_ISO_5,0,1,48,32,2602239152
7717,16,Jits_ISO_5,1,5,56,103,2602303164
7717,16,Jits_ISO_5,2,5,63,98,2602363340
7717,16,Jits_ISO_5,3,5,80,127,2602366480
7717,16,Jits_ISO_5,0,1,48,34,2602737684
7717,16,Jits_ISO_5,1,5,80,127,2602822896
7717,16,Jits_ISO_5,2,5,56,103,2602833168
7717,16,Jits_ISO_5,3,5,63,98,2602903004
7717,16,Jits_ISO_5,0,1,48,36,2603236736
7717,16,Jits_ISO_5,1,5,80,127,2603312436
7717,16,Jits_ISO_5,2,5,56,103,2603383024
7717,16,Jits_ISO_5,3,5,63,98,2603393444
7717,16,Jits_ISO_5,0,1,48,34,2603738864
7717,16,Jits_ISO_5,1,5,63,98,2603853136
7717,16,Jits_ISO_5,2,5,56,103,2603863332
7717,16,Jits_ISO_5,3,5,80,127,2603882992
7717,16,Jits_ISO_5,0,1,48,28,2604240396
7717,16,Jits_ISO_5,1,5,80,127,2604302916
7717,16,Jits_ISO_5,2,5,63,98,2604363140
7717,16,Jits_ISO_5,3,5,56,103,2604403100
7717,16,Jits_ISO_5,0,1,48,30,2604745232
7717,16,Jits_ISO_5,1,5,56,103,2604843392
7717,16,Jits_ISO_5,2,5,63,98,2604852616
7717,16,Jits_ISO_5,3,5,80,127,2604892476
7717,16,Jits_ISO_5,0,1,48,36,2605248408
7717,16,Jits_ISO_5,1,5,56,103,2605303136
7717,16,Jits_ISO_5,2,5,80,127,2605332960
7717,16,Jits_ISO_5,3,5,63,98,2605382992
7717,16,Jits_ISO_5,0,1,48,36,2605720044
7717,16,Jits_ISO_5,1,5,56,103,2605843008
7717,16,Jits_ISO_5,2,5,63,98,2605882944
7717,16,Jits_ISO_5,3,5,80,127,2605886308
7717,16,Jits_ISO_5,0,1,48,35,2606216408
7717,16,Jits_ISO_5,1,5,56,103,2606342440
7717,16,Jits_ISO_5,2,5,63,98,2606352860
7717,16,Jits_ISO_5,3,5,80,127,2606373316
7717,16,Jits_ISO_5,0,1,48,36,2606705956
7717,16,Jits_ISO_5,1,5,56,103,2606803964
7717,16,Jits_ISO_5,2,5,80,127,2606806948
7717,16,Jits_ISO_5,3,5,63,98,2606843372
7717,16,Jits_ISO_5,0,1,48,32,2607194860
7717,16,Jits_ISO_5,1,5,63,98,2607343092
7717,16,Jits_ISO_5,2,5,56,103,2607372912
7717,16,Jits_ISO_5,3,5,80,127,2607393072
7717,16,Jits_ISO_5,0,1,48,35,2607739416
7717,16,Jits_ISO_5,1,5,80,127,2607812948
7717,16,Jits_ISO_5,2,5,56,103,2607823292
7717,16,Jits_ISO_5,3,5,63,98,2607832368
7717,16,Jits_ISO_5,0,1,48,36,2608212092
7717,16,Jits_ISO_5,1,5,56,103,2608312884
7717,16,Jits_ISO_5,2,5,80,127,2608352676
7717,16,Jits_ISO_5,3,5,63,98,2608383472
7717,16,Jits_ISO_5,0,1,48,31,2608704472
7717,16,Jits_ISO_5,1,5,63,98,2608822736
7717,16,Jits_ISO_5,2,5,80,127,2608832856
7717,16,Jits_ISO_5,3,5,56,103,2608843052
7717,16,Jits_ISO_5,0,1,48,32,2609226748
7717,16,Jits_ISO_5,1,5,56,103,2609302996
7717,16,Jits_ISO_5,2,5,63,98,2609372736
7717,16,Jits_ISO_5,3,5,80,127,2609382932
7717,16,Jits_ISO_5,0,1,48,35,2609689392
7717,16,Jits_ISO_5,1,5,80,127,2609802864
7717,16,Jits_ISO_5,2,5,56,103,2609812988
7717,16,Jits_ISO_5,3,5,63,98,2609862964
7717,16,Jits_ISO_5,0,1,48,37,2610146720
7717,16,Jits_ISO_5,1,5,80,127,2610312564
7717,16,Jits_ISO_5,2,5,56,103,2610372952
7717,16,Jits_ISO_5,3,5,63,98,2610402776
7717,16,Jits_ISO_5,0,1,48,33,2610677620
7717,16,Jits_ISO_5,1,5,56,103,2610813268
7717,16,Jits_ISO_5,2,5,80,127,2610816336
7717,16,Jits_ISO_5,3,5,63,98,2610853204
7717,16,Jits_ISO_5,0,1,48,28,2611145656
7717,16,Jits_ISO_5,1,5,56,103,2611342888
7717,16,Jits_ISO_5,2,5,63,98,2611373312
7717,16,Jits_ISO_5,3,5,80,127,2611382908
7717,16,Jits_ISO_5,0,1,48,35,2611672304
7717,16,Jits_ISO_5,1,5,63,98,2611852668
7717,16,Jits_ISO_5,2,5,80,127,2611862788
7717,16,Jits_ISO_5,3,5,56,103,2611873132
7717,16,Jits_ISO_5,0,1,48,33,2612237132
7717,16,Jits_ISO_5,1,5,80,127,2612303092
7717,16,Jits_ISO_5,2,5,56,103,2612353376
7717,16,Jits_ISO_5,3,5,63,98,2612356740
7717,16,Jits_ISO_5,0,1,48,32,2612709804
7717,16,Jits_ISO_5,1,5,56,103,2612832940
7717,16,Jits_ISO_5,2,5,80,127,2612853028
7717,16,Jits_ISO_5,3,5,63,98,2612863372
7717,16,Jits_ISO_5,0,1,48,32,2613241764
7717,16,Jits_ISO_5,1,5,63,98,2613312960
7717,16,Jits_ISO_5,2,5,56,103,2613342772
7717,16,Jits_ISO_5,3,5,80,127,2613363004
7717,16,Jits_ISO_5,0,1,48,29,2613717120
7717,16,Jits_ISO_5,1,5,56,103,2613822920
7717,16,Jits_ISO_5,2,5,80,127,2613833040
7717,16,Jits_ISO_5,3,5,63,98,2613902744
7717,16,Jits_ISO_5,0,1,48,37,2614256408
7717,16,Jits_ISO_5,1,5,63,98,2614313452
7717,16,Jits_ISO_5,2,5,80,127,2614353156
7717,16,Jits_ISO_5,3,5,56,103,2614393264
7717,16,Jits_ISO_5,0,1,48,33,2614758840
7717,16,Jits_ISO_5,1,5,56,103,2614823304
7717,16,Jits_ISO_5,2,5,63,98,2614832600
7717,16,Jits_ISO_5,3,5,80,127,2614852972
7717,16,Jits_ISO_5,0,1,48,34,2615279248
7717,16,Jits_ISO_5,1,5,63,98,2615362972
7717,16,Jits_ISO_5,2,5,80,127,2615383340
7717,16,Jits_ISO_5,3,5,56,103,2615402776
7717,16,Jits_ISO_5,0,5,56,103,2615803232
7717,16,Jits_ISO_5,1,1,48,33,2615824708
7717,16,Jits_ISO_5,2,5,80,127,2615883020
7717,16,Jits_ISO_5,3,5,63,98,2615893216
7717,16,Jits_ISO_5,0,1,48,27,2616252080
7717,16,Jits_ISO_5,1,5,80,127,2616342984
7717,16,Jits_ISO_5,2,5,63,98,2616353164
7717,16,Jits_ISO_5,3,5,56,103,2616382764
7717,16,Jits_ISO_5,0,1,48,31,2616775188
7717,16,Jits_ISO_5,1,5,63,98,2616802712
7717,16,Jits_ISO_5,2,5,80,127,2616842724
7717,16,Jits_ISO_5,3,5,56,103,2616903096
7717,16,Jits_ISO_5,0,1,48,28,2617226748
7717,16,Jits_ISO_5,1,5,63,98,2617312856
7717,16,Jits_ISO_5,2,5,56,103,2617362896
7717,16,Jits_ISO_5,3,5,80,127,2617392420
7717,16,Jits_ISO_5,0,1,48,33,2617724240
7717,16,Jits_ISO_5,1,5,80,127,2617822844
7717,16,Jits_ISO_5,2,5,63,98,2617832816
7717,16,Jits_ISO_5,3,5,56,103,2617902568
7717,16,Jits_ISO_5,0,1,48,35,2618240684
7717,16,Jits_ISO_5,1,5,80,127,2618392928
7717,16,Jits_ISO_5,2,5,56,103,2618403272
7717,16,Jits_ISO_5,3,5,63,98,2618406336
7717,16,Jits_ISO_5,0,1,48,33,2618757488
7717,16,Jits_ISO_5,1,5,56,103,2618833260
7717,16,Jits_ISO_5,2,5,80,127,2618852660
7717,16,Jits_ISO_5,3,5,63,98,2618862928
7717,16,Jits_ISO_5,0,1,48,31,2619256248
7717,16,Jits_ISO_5,1,5,63,98,2619343188
7717,16,Jits_ISO_5,2,5,56,103,2619383108
7717,16,Jits_ISO_5,3,5,80,127,2619402744
7717,16,Jits_ISO_5,0,1,48,28,2619796288
7717,16,Jits_ISO_5,1,5,63,98,2619842924
7717,16,Jits_ISO_5,2,5,56,103,2619903672
7717,16,Jits_ISO_5,3,5,80,127,2619906660
7717,16,Jits_ISO_5,0,1,48,35,2620301524
7717,16,Jits_ISO_5,1,5,56,103,2620303168
7717,16,Jits_ISO_5,2,5,80,127,2620323180
7717,16,Jits_ISO_5,3,5,63,98,2620363116
7717,16,Jits_ISO_5,0,1,48,28,2620776504
7717,16,Jits_ISO_5,1,5,56,103,2620833172
7717,16,Jits_ISO_5,2,5,63,98,2620852656
7717,16,Jits_ISO_5,3,5,80,127,2620862704
7717,16,Jits_ISO_5,0,1,48,26,2621261840
7717,16,Jits_ISO_5,1,5,80,127,2621303012
7717,16,Jits_ISO_5,2,5,56,103,2621332836
7717,16,Jits_ISO_5,3,5,63,98,2621372760
7717,16,Jits_ISO_5,0,1,48,27,2621733176
7717,16,Jits_ISO_5,1,5,80,127,2621813012
7717,16,Jits_ISO_5,2,5,56,103,2621832784
7717,16,Jits_ISO_5,3,5,63,98,2621892948
7717,16,Jits_ISO_5,0,1,48,28,2622264444
7717,16,Jits_ISO_5,1,5,56,103,2622322932
7717,16,Jits_ISO_5,2,5,80,127,2622342644
7717,16,Jits_ISO_5,3,5,63,98,2622402792
7717,16,Jits_ISO_5,0,1,48,23,2622734280
7717,16,Jits_ISO_5,1,5,80,127,2622803680
7717,16,Jits_ISO_5,2,5,56,103,2622812604
7717,16,Jits_ISO_5,3,5,63,98,2622852552
7717,16,Jits_ISO_5,0,1,48,23,2623177512
7717,16,Jits_ISO_5,1,5,63,98,2623302944
7717,16,Jits_ISO_5,2,5,56,103,2623342908
7717,16,Jits_ISO_5,3,5,80,127,2623346124
7717,16,Jits_ISO_5,0,1,48,28,2623689144
7717,16,Jits_ISO_5,1,5,63,98,2623823196
7717,16,Jits_ISO_5,2,5,80,127,2623863160
7717,16,Jits_ISO_5,3,5,56,103,2623892760
7717,16,Jits_ISO_5,0,1,48,31,2624253024
7717,16,Jits_ISO_5,1,5,56,103,2624312756
7717,16,Jits_ISO_5,2,5,63,98,2624323024
7717,16,Jits_ISO_5,3,5,80,127,2624353148
7717,16,Jits_ISO_5,0,1,48,27,2624710696
7717,16,Jits_ISO_5,1,5,80,127,2624803760
7717,16,Jits_ISO_5,2,5,63,98,2624872944
7717,16,Jits_ISO_5,3,5,56,103,2624882916
7717,16,Jits_ISO_5,0,1,48,25,2625284380
7717,16,Jits_ISO_5,1,5,63,98,2625302840
7717,16,Jits_ISO_5,2,5,56,103,2625372596
7717,16,Jits_ISO_5,3,5,80,127,2625382740
7717,16,Jits_ISO_5,0,1,48,22,2625738184
7717,16,Jits_ISO_5,1,5,63,98,2625802572
7717,16,Jits_ISO_5,2,5,56,103,2625823032
7717,16,Jits_ISO_5,3,5,80,127,2625863028
7717,16,Jits_ISO_5,0,1,48,26,2626215808
7717,16,Jits_ISO_5,1,5,56,103,2626312548
7717,16,Jits_ISO_5,2,5,63,98,2626322672
7717,16,Jits_ISO_5,3,5,80,127,2626402636
7717,16,Jits_ISO_5,0,1,48,22,2626702060
7717,16,Jits_ISO_5,1,5,63,98,2626803136
7717,16,Jits_ISO_5,2,5,56,103,2626832812
7717,16,Jits_ISO_5,3,5,80,127,2626872748
7717,16,Jits_ISO_5,0,1,48,31,2627210788
7717,16,Jits_ISO_5,1,5,56,103,2627302736
7717,16,Jits_ISO_5,2,5,63,98,2627342660
7717,16,Jits_ISO_5,3,5,80,127,2627382668
7717,16,Jits_ISO_5,0,1,48,27,2627699632
7717,16,Jits_ISO_5,1,5,80,127,2627802524
7717,16,Jits_ISO_5,2,5,56,103,2627883516
7717,16,Jits_ISO_5,3,5,63,98,2627892664
7717,16,Jits_ISO_5,0,1,48,31,2628275868
7717,16,Jits_ISO_5,1,5,56,103,2628343100
7717,16,Jits_ISO_5,2,5,63,98,2628346092
7717,16,Jits_ISO_5,3,5,80,127,2628353668
7717,16,Jits_ISO_5,0,1,48,29,2628799636
7717,16,Jits_ISO_5,1,5,56,103,2628863572
7717,16,Jits_ISO_5,2,5,63,98,2628882764
7717,16,Jits_ISO_5,3,5,80,127,2628893016
7717,16,Jits_ISO_5,0,5,63,98,2629323016
7717,16,Jits_ISO_5,1,5,80,127,2629333360
7717,16,Jits_ISO_5,2,5,56,103,2629352992
7717,16,Jits_ISO_5,3,1,48,26,2629369516
7717,16,Jits_ISO_5,0,1,48,26,2629811556
7717,16,Jits_ISO_5,1,5,63,98,2629822888
7717,16,Jits_ISO_5,2,5,56,103,2629902680
7717,16,Jits_ISO_5,3,5,80,127,2629906632
7717,16,Jits_ISO_5,0,1,48,28,2630257476
7717,16,Jits_ISO_5,1,5,63,98,2630322468
7717,16,Jits_ISO_5,2,5,56,103,2630342928
7717,16,Jits_ISO_5,3,5,80,127,2630372660
7717,16,Jits_ISO_5,0,1,48,29,2630732616
7717,16,Jits_ISO_5,1,5,56,103,2630823468
7717,16,Jits_ISO_5,2,5,63,98,2630842644
7717,16,Jits_ISO_5,3,5,80,127,2630852840
7717,16,Jits_ISO_5,0,1,48,25,2631224180
7717,16,Jits_ISO_5,1,5,56,103,2631352708
7717,16,Jits_ISO_5,2,5,63,98,2631383352
7717,16,Jits_ISO_5,3,5,80,127,2631386644
7717,16,Jits_ISO_5,0,1,48,26,2631774480
7717,16,Jits_ISO_5,1,5,56,103,2631803520
7717,16,Jits_ISO_5,2,5,63,98,2631843384
7717,16,Jits_ISO_5,3,5,80,127,2631902636
7717,16,Jits_ISO_5,0,1,48,31,2632249928
7717,16,Jits_ISO_5,1,5,56,103,2632322512
7717,16,Jits_ISO_5,2,5,63,98,2632332632
7717,16,Jits_ISO_5,3,5,80,127,2632393080
7717,16,Jits_ISO_5,0,1,48,26,2632726668
7717,16,Jits_ISO_5,1,5,56,103,2632823052
7717,16,Jits_ISO_5,2,5,80,127,2632842540
7717,16,Jits_ISO_5,3,5,63,98,2632873556
7717,16,Jits_ISO_5,0,1,48,27,2633212540
7717,16,Jits_ISO_5,1,5,80,127,2633322784
7717,16,Jits_ISO_5,2,5,56,103,2633333052
7717,16,Jits_ISO_5,3,5,63,98,2633352612
7717,16,Jits_ISO_5,0,1,48,26,2633675108
7717,16,Jits_ISO_5,1,5,63,98,2633813644
7717,16,Jits_ISO_5,2,5,80,127,2633893316
7717,16,Jits_ISO_5,3,5,56,103,2633902612
7717,16,Jits_ISO_5,0,1,48,27,2634170264
7717,16,Jits_ISO_5,1,5,80,127,2634372524
7717,16,Jits_ISO_5,2,5,56,103,2634392980
7717,16,Jits_ISO_5,3,5,63,98,2634396044
7717,16,Jits_ISO_5,0,1,48,25,2634723724
7717,16,Jits_ISO_5,1,5,63,98,2634842556
7717,16,Jits_ISO_5,2,5,80,127,2634845916
7717,16,Jits_ISO_5,3,5,56,103,2634902964
7717,16,Jits_ISO_5,0,1,48,27,2635287568
7717,16,Jits_ISO_5,1,5,56,103,2635322740
7717,16,Jits_ISO_5,2,5,80,127,2635333084
7717,16,Jits_ISO_5,3,5,63,98,2635373044
7717,16,Jits_ISO_5,0,1,48,25,2635742728
7717,16,Jits_ISO_5,1,5,56,103,2635803136
7717,16,Jits_ISO_5,2,5,63,98,2635863512
7717,16,Jits_ISO_5,3,5,80,127,2635872536
7717,16,Jits_ISO_5,0,1,48,24,2636230852
7717,16,Jits_ISO_5,1,5,63,98,2636312908
7717,16,Jits_ISO_5,2,5,80,127,2636352760
7717,16,Jits_ISO_5,3,5,56,103,2636392792
7717,16,Jits_ISO_5,0,1,48,20,2636747428
7717,16,Jits_ISO_5,1,5,56,103,2636812716
7717,16,Jits_ISO_5,2,5,63,98,2636892644
7717,16,Jits_ISO_5,3,5,80,127,2636896028
7717,16,Jits_ISO_5,0,9999,9999,9999,2577590356
7717,16,Jits_ISO_5,1,9999,9999,9999,2578091124
7717,16,Jits_ISO_5,2,9999,9999,9999,2578601032
7717,16,Jits_ISO_5,3,9999,9999,9999,2579100764
7717,16,Jits_ISO_5,4,9999,9999,9999,2579600504
7717,16,Jits_ISO_5,5,9999,9999,9999,2580100168
7717,16,Jits_ISO_5,6,9999,9999,9999,2580600944
7717,16,Jits_ISO_5,7,9999,9999,9999,2581100620
7717,16,Jits_ISO_5,8,9999,9999,9999,2581600328
7717,16,Jits_ISO_5,9,9999,9999,9999,2582101076
7717,16,Jits_ISO_5,10,9999,9999,9999,2582600808
7717,16,Jits_ISO_5,11,9999,9999,9999,2583100468
7717,16,Jits_ISO_5,12,9999,9999,9999,2583600196
7717,16,Jits_ISO_5,13,9999,9999,9999,2584100972
7717,16,Jits_ISO_5,14,9999,9999,9999,2584600688
7717,16,Jits_ISO_5,15,9999,9999,9999,2585100348
7717,16,Jits_ISO_5,16,9999,9999,9999,2585600084
7717,16,Jits_ISO_5,17,9999,9999,9999,2586100788
7717,16,Jits_ISO_5,18,9999,9999,9999,2586600520
7717,16,Jits_ISO_5,19,9999,9999,9999,2587100256
7717,16,Jits_ISO_5,20,9999,9999,9999,2587600960
7717,16,Jits_ISO_5,21,9999,9999,9999,2588100696
7717,16,Jits_ISO_5,22,9999,9999,9999,2588600428
7717,16,Jits_ISO_5,23,9999,9999,9999,2589100088
7717,16,Jits_ISO_5,24,9999,9999,9999,2589600872
7717,16,Jits_ISO_5,25,9999,9999,9999,2590100592
7717,16,Jits_ISO_5,26,9999,9999,9999,2590600256
7717,16,Jits_ISO_5,27,9999,9999,9999,2591101012
7717,16,Jits_ISO_5,28,9999,9999,9999,2591600760
7717,16,Jits_ISO_5,29,9999,9999,9999,2592100420
7717,16,Jits_ISO_5,30,9999,9999,9999,2592600128
7717,16,Jits_ISO_5,31,9999,9999,9999,2593100900
7717,16,Jits_ISO_5,32,9999,9999,9999,2593600636
7717,16,Jits_ISO_5,33,9999,9999,9999,2594100296
7717,16,Jits_ISO_5,34,9999,9999,9999,2594601076
7717,16,Jits_ISO_5,35,9999,9999,9999,2595100740
7717,16,Jits_ISO_5,36,9999,9999,9999,2595600464
7717,16,Jits_ISO_5,37,9999,9999,9999,2596100196
7717,16,Jits_ISO_5,38,9999,9999,9999,2596600904
7717,16,Jits_ISO_5,39,9999,9999,9999,2597100640
7717,16,Jits_ISO_5,40,9999,9999,9999,2597600368
7717,16,Jits_ISO_5,41,9999,9999,9999,2598101112
7717,16,Jits_ISO_5,42,9999,9999,9999,2598600756
7717,16,Jits_ISO_5,43,9999,9999,9999,2599100488
7717,16,Jits_ISO_5,44,9999,9999,9999,2599600220
7717,16,Jits_ISO_5,45,9999,9999,9999,2600100924
7717,16,Jits_ISO_5,46,9999,9999,9999,2600600656
7717,16,Jits_ISO_5,47,9999,9999,9999,2601100396
7717,16,Jits_ISO_5,48,9999,9999,9999,2601600064
7717,16,Jits_ISO_5,49,9999,9999,9999,2602100844
7717,16,Jits_ISO_5,50,9999,9999,9999,2602600568
7717,16,Jits_ISO_5,51,9999,9999,9999,2603100280
7717,16,Jits_ISO_5,52,9999,9999,9999,2603600980
7717,16,Jits_ISO_5,53,9999,9999,9999,2604100716
7717,16,Jits_ISO_5,54,9999,9999,9999,2604600380
7717,16,Jits_ISO_5,55,9999,9999,9999,2605100112
7717,16,Jits_ISO_5,56,9999,9999,9999,2605600820
7717,16,Jits_ISO_5,57,9999,9999,9999,2606100548
7717,16,Jits_ISO_5,58,9999,9999,9999,2606600284
7717,16,Jits_ISO_5,59,9999,9999,9999,2607101052
7717,16,Jits_ISO_5,60,9999,9999,9999,2607600712
7717,16,Jits_ISO_5,61,9999,9999,9999,2608100440
7717,16,Jits_ISO_5,62,9999,9999,9999,2608600172
7717,16,Jits_ISO_5,63,9999,9999,9999,2609100876
7717,16,Jits_ISO_5,64,9999,9999,9999,2609600612
7717,16,Jits_ISO_5,65,9999,9999,9999,2610100340
7717,16,Jits_ISO_5,66,9999,9999,9999,2610601048
7717,16,Jits_ISO_5,67,9999,9999,9999,2611100772
7717,16,Jits_ISO_5,68,9999,9999,9999,2611600432
7717,16,Jits_ISO_5,69,9999,9999,9999,2612100172
7717,16,Jits_ISO_5,70,9999,9999,9999,2612600940
7717,16,Jits_ISO_5,71,9999,9999,9999,2613100600
7717,16,Jits_ISO_5,72,9999,9999,9999,2613600308
7717,16,Jits_ISO_5,73,9999,9999,9999,2614101068
7717,16,Jits_ISO_5,74,9999,9999,9999,2614600800
7717,16,Jits_ISO_5,75,9999,9999,9999,2615100536
7717,16,Jits_ISO_5,76,9999,9999,9999,2615600200
7717,16,Jits_ISO_5,77,9999,9999,9999,2616100984
7717,16,Jits_ISO_5,78,9999,9999,9999,2616600660
7717,16,Jits_ISO_5,79,9999,9999,9999,2617100396
7717,16,Jits_ISO_5,80,9999,9999,9999,2617600060
7717,16,Jits_ISO_5,81,9999,9999,9999,2618100840
7717,16,Jits_ISO_5,82,9999,9999,9999,2618600500
7717,16,Jits_ISO_5,83,9999,9999,9999,2619100232
7717,16,Jits_ISO_5,84,9999,9999,9999,2619601016
7717,16,Jits_ISO_5,85,9999,9999,9999,2620100672
7717,16,Jits_ISO_5,86,9999,9999,9999,2620600404
7717,16,Jits_ISO_5,87,9999,9999,9999,2621100140
7717,16,Jits_ISO_5,88,9999,9999,9999,2621600848
7717,16,Jits_ISO_5,89,9999,9999,9999,2622100584
7717,16,Jits_ISO_5,90,9999,9999,9999,2622600240
7717,16,Jits_ISO_5,91,9999,9999,9999,2623101016
7717,16,Jits_ISO_5,92,9999,9999,9999,2623600736
7717,16,Jits_ISO_5,93,9999,9999,9999,2624100472
7717,16,Jits_ISO_5,94,9999,9999,9999,2624600168
7717,16,Jits_ISO_5,95,9999,9999,9999,2625100864
7717,16,Jits_ISO_5,96,9999,9999,9999,2625600600
7717,16,Jits_ISO_5,97,9999,9999,9999,2626100328
7717,16,Jits_ISO_5,98,9999,9999,9999,2626601032
7717,16,Jits_ISO_5,99,9999,9999,9999,2627100764
7717,16,Jits_ISO_5,100,9999,9999,9999,2627600492
7717,16,Jits_ISO_5,101,9999,9999,9999,2628100152
7717,16,Jits_ISO_5,102,9999,9999,9999,2628600920
7717,16,Jits_ISO_5,103,9999,9999,9999,2629100656
7717,16,Jits_ISO_5,104,9999,9999,9999,2629600312
7717,16,Jits_ISO_5,105,9999,9999,9999,2630101088
7717,16,Jits_ISO_5,106,9999,9999,9999,2630600820
7717,16,Jits_ISO_5,107,9999,9999,9999,2631100480
7717,16,Jits_ISO_5,108,9999,9999,9999,2631600204
7717,16,Jits_ISO_5,109,9999,9999,9999,2632100984
7717,16,Jits_ISO_5,110,9999,9999,9999,2632600640
7717,16,Jits_ISO_5,111,9999,9999,9999,2633100376
7717,16,Jits_ISO_5,112,9999,9999,9999,2633600104
7717,16,Jits_ISO_5,113,9999,9999,9999,2634100812
7717,16,Jits_ISO_5,114,9999,9999,9999,2634600544
7717,16,Jits_ISO_5,115,9999,9999,9999,2635100244
7717,16,Jits_ISO_5,116,9999,9999,9999,2635601016
7717,16,Jits_ISO_5,117,9999,9999,9999,2636100672
7717,16,Jits_ISO_5,118,9999,9999,9999,2636600404
7717,16,Jits_ISO_5,119,9999,9999,9999,2637100132
7718,18,Jits_Linear_8,0,5,56,103,2647742800
7718,18,Jits_Linear_8,1,5,63,98,2647746124
7718,18,Jits_Linear_8,2,5,80,127,2647749168
7718,18,Jits_Linear_8,0,1,48,21,2648412548
7718,18,Jits_Linear_8,1,5,56,103,2648563160
7718,18,Jits_Linear_8,2,5,63,98,2648566260
7718,18,Jits_Linear_8,3,5,80,127,2648569380
7718,18,Jits_Linear_8,0,5,80,127,2649322848
7718,18,Jits_Linear_8,1,1,48,27,2649329556
7718,18,Jits_Linear_8,2,5,63,98,2649412904
7718,18,Jits_Linear_8,3,5,56,103,2649423248
7718,18,Jits_Linear_8,0,5,56,103,2650162400
7718,18,Jits_Linear_8,1,1,48,47,2650172896
7718,18,Jits_Linear_8,2,5,63,98,2650174308
7718,18,Jits_Linear_8,3,5,80,127,2650262972
7718,18,Jits_Linear_8,0,1,48,38,2650831248
7718,18,Jits_Linear_8,1,5,63,98,2650953300
7718,18,Jits_Linear_8,2,5,80,127,2650982856
7718,18,Jits_Linear_8,3,5,56,103,2651012380
7718,18,Jits_Linear_8,0,1,48,37,2651557032
7718,18,Jits_Linear_8,1,5,56,103,2651773304
7718,18,Jits_Linear_8,2,5,80,127,2651872584
7718,18,Jits_Linear_8,3,5,63,98,2651922936
7718,18,Jits_Linear_8,0,1,48,33,2652558132
7718,18,Jits_Linear_8,1,5,56,103,2652583264
7718,18,Jits_Linear_8,2,5,80,127,2652632424
7718,18,Jits_Linear_8,3,5,63,98,2652673244
7718,18,Jits_Linear_8,0,1,48,39,2653299820
7718,18,Jits_Linear_8,1,5,80,127,2653423164
7718,18,Jits_Linear_8,2,5,63,98,2653452616
7718,18,Jits_Linear_8,3,5,56,103,2653523272
7718,18,Jits_Linear_8,0,1,48,34,2654131656
7718,18,Jits_Linear_8,1,5,63,98,2654262628
7718,18,Jits_Linear_8,2,5,56,103,2654293352
7718,18,Jits_Linear_8,3,5,80,127,2654352872
7718,18,Jits_Linear_8,0,1,48,38,2654948636
7718,18,Jits_Linear_8,1,5,56,103,2655013176
7718,18,Jits_Linear_8,2,5,80,127,2655016240
7718,18,Jits_Linear_8,3,5,63,98,2655133136
7718,18,Jits_Linear_8,0,1,48,37,2655716160
7718,18,Jits_Linear_8,1,5,56,103,2655892800
7718,18,Jits_Linear_8,2,5,80,127,2655932740
7718,18,Jits_Linear_8,3,5,63,98,2655943232
7718,18,Jits_Linear_8,0,1,48,39,2656591980
7718,18,Jits_Linear_8,1,5,56,103,2656652788
7718,18,Jits_Linear_8,2,5,80,127,2656673176
7718,18,Jits_Linear_8,3,5,63,98,2656752956
7718,18,Jits_Linear_8,0,1,48,39,2657349840
7718,18,Jits_Linear_8,1,5,80,127,2657443328
7718,18,Jits_Linear_8,2,5,56,103,2657542592
7718,18,Jits_Linear_8,3,5,63,98,2657552864
7718,18,Jits_Linear_8,0,1,48,39,2658169544
7718,18,Jits_Linear_8,1,5,63,98,2658213184
7718,18,Jits_Linear_8,2,5,80,127,2658272740
7718,18,Jits_Linear_8,3,5,56,103,2658283160
7718,18,Jits_Linear_8,0,1,48,40,2658901180
7718,18,Jits_Linear_8,1,5,56,103,2659013068
7718,18,Jits_Linear_8,2,5,63,98,2659082604
7718,18,Jits_Linear_8,3,5,80,127,2659085968
7718,18,Jits_Linear_8,0,1,48,30,2659707900
7718,18,Jits_Linear_8,1,5,63,98,2659842336
7718,18,Jits_Linear_8,2,5,56,103,2659892688
7718,18,Jits_Linear_8,3,5,80,127,2659895680
7718,18,Jits_Linear_8,0,1,48,40,2660500700
7718,18,Jits_Linear_8,1,5,56,103,2660593228
7718,18,Jits_Linear_8,2,5,80,127,2660596292
7718,18,Jits_Linear_8,3,5,63,98,2660683064
7718,18,Jits_Linear_8,0,1,48,39,2661221012
7718,18,Jits_Linear_8,1,5,63,98,2661422492
7718,18,Jits_Linear_8,2,5,56,103,2661512432
7718,18,Jits_Linear_8,3,5,80,127,2661543228
7718,18,Jits_Linear_8,0,1,48,41,2662126784
7718,18,Jits_Linear_8,1,5,56,103,2662202636
7718,18,Jits_Linear_8,2,5,63,98,2662303196
7718,18,Jits_Linear_8,3,5,80,127,2662332872
7718,18,Jits_Linear_8,0,1,48,35,2662928636
7718,18,Jits_Linear_8,1,5,63,98,2663012836
7718,18,Jits_Linear_8,2,5,56,103,2663023032
7718,18,Jits_Linear_8,3,5,80,127,2663113000
7718,18,Jits_Linear_8,0,1,48,37,2663680976
7718,18,Jits_Linear_8,1,5,63,98,2663812500
7718,18,Jits_Linear_8,2,5,56,103,2663893344
7718,18,Jits_Linear_8,3,5,80,127,2663896340
7718,18,Jits_Linear_8,0,1,48,33,2664427292
7718,18,Jits_Linear_8,1,5,80,127,2664553208
7718,18,Jits_Linear_8,2,5,63,98,2664573296
7718,18,Jits_Linear_8,3,5,56,103,2664632788
7718,18,Jits_Linear_8,0,1,48,36,2665256640
7718,18,Jits_Linear_8,1,5,56,103,2665373116
7718,18,Jits_Linear_8,2,5,63,98,2665392600
7718,18,Jits_Linear_8,3,5,80,127,2665395964
7718,18,Jits_Linear_8,0,1,48,37,2666031152
7718,18,Jits_Linear_8,1,5,63,98,2666103120
7718,18,Jits_Linear_8,2,5,80,127,2666183128
7718,18,Jits_Linear_8,3,5,56,103,2666193396
7718,18,Jits_Linear_8,0,1,48,40,2666779860
7718,18,Jits_Linear_8,1,5,63,98,2666902860
7718,18,Jits_Linear_8,2,5,56,103,2666923244
7718,18,Jits_Linear_8,3,5,80,127,2666972472
7718,18,Jits_Linear_8,0,1,48,35,2667523208
7718,18,Jits_Linear_8,1,5,80,127,2667683204
7718,18,Jits_Linear_8,2,5,63,98,2667722992
7718,18,Jits_Linear_8,3,5,56,103,2667742556
7718,18,Jits_Linear_8,0,1,48,37,2668323332
7718,18,Jits_Linear_8,1,5,56,103,2668493072
7718,18,Jits_Linear_8,2,5,63,98,2668503268
7718,18,Jits_Linear_8,3,5,80,127,2668522828
7718,18,Jits_Linear_8,0,1,48,27,2669143764
7718,18,Jits_Linear_8,1,5,56,103,2669192520
7718,18,Jits_Linear_8,2,5,63,98,2669282788
7718,18,Jits_Linear_8,3,5,80,127,2669343180
7718,18,Jits_Linear_8,0,1,48,38,2669897432
7718,18,Jits_Linear_8,1,5,80,127,2669993968
7718,18,Jits_Linear_8,2,5,56,103,2670002672
7718,18,Jits_Linear_8,3,5,63,98,2670073404
7718,18,Jits_Linear_8,0,1,48,37,2670621368
7718,18,Jits_Linear_8,1,5,63,98,2670793200
7718,18,Jits_Linear_8,2,5,80,127,2670883116
7718,18,Jits_Linear_8,3,5,56,103,2670893384
7718,18,Jits_Linear_8,0,1,48,37,2671378856
7718,18,Jits_Linear_8,1,5,63,98,2671492340
7718,18,Jits_Linear_8,2,5,80,127,2671542916
7718,18,Jits_Linear_8,3,5,56,103,2671603008
7718,18,Jits_Linear_8,0,1,48,44,2672156660
7718,18,Jits_Linear_8,1,5,56,103,2672282876
7718,18,Jits_Linear_8,2,5,80,127,2672333228
7718,18,Jits_Linear_8,3,5,63,98,2672352792
7718,18,Jits_Linear_8,0,1,48,41,2672863816
7718,18,Jits_Linear_8,1,5,56,103,2673013100
7718,18,Jits_Linear_8,2,5,80,127,2673072448
7718,18,Jits_Linear_8,3,5,63,98,2673143100
7718,18,Jits_Linear_8,0,1,48,38,2673639884
7718,18,Jits_Linear_8,1,5,56,103,2673772848
7718,18,Jits_Linear_8,2,5,80,127,2673802896
7718,18,Jits_Linear_8,3,5,63,98,2673833320
7718,18,Jits_Linear_8,0,1,48,36,2674535872
7718,18,Jits_Linear_8,1,5,56,103,2674572836
7718,18,Jits_Linear_8,2,5,80,127,2674593148
7718,18,Jits_Linear_8,3,5,63,98,2674652628
7718,18,Jits_Linear_8,0,1,48,36,2675281888
7718,18,Jits_Linear_8,1,5,80,127,2675413488
7718,18,Jits_Linear_8,2,5,56,103,2675422712
7718,18,Jits_Linear_8,3,5,63,98,2675432984
7718,18,Jits_Linear_8,0,1,48,37,2675994064
7718,18,Jits_Linear_8,1,5,56,103,2676122896
7718,18,Jits_Linear_8,2,5,80,127,2676162836
7718,18,Jits_Linear_8,3,5,63,98,2676192960
7718,18,Jits_Linear_8,0,1,48,38,2676781324
7718,18,Jits_Linear_8,1,5,56,103,2676842808
7718,18,Jits_Linear_8,2,5,63,98,2676872856
7718,18,Jits_Linear_8,3,5,80,127,2676912628
7718,18,Jits_Linear_8,0,5,80,127,2677543272
7718,18,Jits_Linear_8,1,1,48,38,2677578228
7718,18,Jits_Linear_8,2,5,63,98,2677592424
7718,18,Jits_Linear_8,3,5,56,103,2677612980
7718,18,Jits_Linear_8,0,1,48,30,2678322812
7718,18,Jits_Linear_8,1,5,56,103,2678324148
7718,18,Jits_Linear_8,2,5,80,127,2678393188
7718,18,Jits_Linear_8,3,5,63,98,2678452740
7718,18,Jits_Linear_8,0,1,48,38,2678987224
7718,18,Jits_Linear_8,1,5,80,127,2679063004
7718,18,Jits_Linear_8,2,5,63,98,2679153004
7718,18,Jits_Linear_8,3,5,56,103,2679172564
7718,18,Jits_Linear_8,0,1,48,38,2679808636
7718,18,Jits_Linear_8,1,5,63,98,2679822832
7718,18,Jits_Linear_8,2,5,56,103,2679843220
7718,18,Jits_Linear_8,3,5,80,127,2679883008
7718,18,Jits_Linear_8,0,5,80,127,2680523020
7718,18,Jits_Linear_8,1,5,63,98,2680542660
7718,18,Jits_Linear_8,2,1,48,26,2680620708
7718,18,Jits_Linear_8,3,5,56,103,2680622372
7718,18,Jits_Linear_8,0,5,63,98,2681253260
7718,18,Jits_Linear_8,1,5,56,103,2681362728
7718,18,Jits_Linear_8,2,5,80,127,2681365792
7718,18,Jits_Linear_8,3,1,48,22,2681373488
7718,18,Jits_Linear_8,0,5,63,98,2682013000
7718,18,Jits_Linear_8,1,5,56,103,2682023644
7718,18,Jits_Linear_8,2,5,80,127,2682026632
7718,18,Jits_Linear_8,3,1,48,33,2682046236
7718,18,Jits_Linear_8,0,1,48,39,2682706432
7718,18,Jits_Linear_8,1,5,56,103,2682732788
7718,18,Jits_Linear_8,2,5,80,127,2682852804
7718,18,Jits_Linear_8,3,5,63,98,2682892816
7718,18,Jits_Linear_8,0,1,48,25,2683311404
7718,18,Jits_Linear_8,1,5,56,103,2683482684
7718,18,Jits_Linear_8,2,5,80,127,2683563480
7718,18,Jits_Linear_8,3,5,63,98,2683582896
7718,18,Jits_Linear_8,0,1,48,40,2684181440
7718,18,Jits_Linear_8,1,5,56,103,2684212556
7718,18,Jits_Linear_8,2,5,63,98,2684323156
7718,18,Jits_Linear_8,3,5,80,127,2684326668
7718,18,Jits_Linear_8,0,5,56,103,2684973652
7718,18,Jits_Linear_8,1,1,48,41,2684993564
7718,18,Jits_Linear_8,2,5,80,127,2685003028
7718,18,Jits_Linear_8,3,5,63,98,2685022836
7718,18,Jits_Linear_8,0,5,63,98,2685683144
7718,18,Jits_Linear_8,1,1,48,35,2685684108
7718,18,Jits_Linear_8,2,5,56,103,2685693480
7718,18,Jits_Linear_8,3,5,80,127,2685702780
7718,18,Jits_Linear_8,0,5,80,127,2686392764
7718,18,Jits_Linear_8,1,1,48,45,2686440300
7718,18,Jits_Linear_8,2,5,56,103,2686442960
7718,18,Jits_Linear_8,3,5,63,98,2686482752
7718,18,Jits_Linear_8,0,5,80,127,2687133044
7718,18,Jits_Linear_8,1,5,63,98,2687152604
7718,18,Jits_Linear_8,2,1,48,32,2687167480
7718,18,Jits_Linear_8,3,5,56,103,2687202872
7718,18,Jits_Linear_8,0,1,48,40,2687866544
7718,18,Jits_Linear_8,1,5,80,127,2687873468
7718,18,Jits_Linear_8,2,5,56,103,2687903072
7718,18,Jits_Linear_8,3,5,63,98,2687972588
7718,18,Jits_Linear_8,0,1,48,34,2688634836
7718,18,Jits_Linear_8,1,5,56,103,2688642660
7718,18,Jits_Linear_8,2,5,80,127,2688652632
7718,18,Jits_Linear_8,3,5,63,98,2688692648
7718,18,Jits_Linear_8,0,5,56,103,2689273152
7718,18,Jits_Linear_8,1,5,63,98,2689292640
7718,18,Jits_Linear_8,2,1,48,40,2689344232
7718,18,Jits_Linear_8,3,5,80,127,2689363508
7718,18,Jits_Linear_8,0,5,63,98,2690012680
7718,18,Jits_Linear_8,1,1,48,38,2690039392
7718,18,Jits_Linear_8,2,5,80,127,2690072992
7718,18,Jits_Linear_8,3,5,56,103,2690093524
7718,18,Jits_Linear_8,0,5,80,127,2690712940
7718,18,Jits_Linear_8,1,1,48,36,2690731036
7718,18,Jits_Linear_8,2,5,56,103,2690742536
7718,18,Jits_Linear_8,3,5,63,98,2690773484
7718,18,Jits_Linear_8,0,5,56,103,2691422580
7718,18,Jits_Linear_8,1,5,63,98,2691483048
7718,18,Jits_Linear_8,2,1,48,36,2691506768
7718,18,Jits_Linear_8,3,5,80,127,2691543580
7718,18,Jits_Linear_8,0,1,48,34,2692122572
7718,18,Jits_Linear_8,1,5,80,127,2692152644
7718,18,Jits_Linear_8,2,5,56,103,2692173104
7718,18,Jits_Linear_8,3,5,63,98,2692242868
7718,18,Jits_Linear_8,0,1,48,36,2692845684
7718,18,Jits_Linear_8,1,5,80,127,2692863540
7718,18,Jits_Linear_8,2,5,63,98,2692882656
7718,18,Jits_Linear_8,3,5,56,103,2692912408
7718,18,Jits_Linear_8,0,1,48,35,2693536052
7718,18,Jits_Linear_8,1,5,80,127,2693552492
7718,18,Jits_Linear_8,2,5,63,98,2693572876
7718,18,Jits_Linear_8,3,5,56,103,2693633488
7718,18,Jits_Linear_8,0,1,48,32,2694248592
7718,18,Jits_Linear_8,1,5,80,127,2694252824
7718,18,Jits_Linear_8,2,5,56,103,2694353508
7718,18,Jits_Linear_8,3,5,63,98,2694383032
7718,18,Jits_Linear_8,0,5,63,98,2694943104
7718,18,Jits_Linear_8,1,1,48,36,2694959700
7718,18,Jits_Linear_8,2,5,80,127,2694993524
7718,18,Jits_Linear_8,3,5,56,103,2695012588
7718,18,Jits_Linear_8,0,1,48,38,2695630976
7718,18,Jits_Linear_8,1,5,80,127,2695682468
7718,18,Jits_Linear_8,2,5,56,103,2695713260
7718,18,Jits_Linear_8,3,5,63,98,2695716328
7718,18,Jits_Linear_8,0,1,48,29,2696307016
7718,18,Jits_Linear_8,1,5,63,98,2696412672
7718,18,Jits_Linear_8,2,5,56,103,2696452392
7718,18,Jits_Linear_8,3,5,80,127,2696472852
7718,18,Jits_Linear_8,0,5,80,127,2697052652
7718,18,Jits_Linear_8,1,1,48,35,2697069472
7718,18,Jits_Linear_8,2,5,63,98,2697133416
7718,18,Jits_Linear_8,3,5,56,103,2697173564
7718,18,Jits_Linear_8,0,5,63,98,2697763320
7718,18,Jits_Linear_8,1,1,48,32,2697791696
7718,18,Jits_Linear_8,2,5,80,127,2697842912
7718,18,Jits_Linear_8,3,5,56,103,2697862476
7718,18,Jits_Linear_8,0,1,48,30,2698463408
7718,18,Jits_Linear_8,1,5,56,103,2698493472
7718,18,Jits_Linear_8,2,5,63,98,2698502472
7718,18,Jits_Linear_8,3,5,80,127,2698542636
7718,18,Jits_Linear_8,0,5,56,103,2699102712
7718,18,Jits_Linear_8,1,5,80,127,2699105628
7718,18,Jits_Linear_8,2,1,48,29,2699137148
7718,18,Jits_Linear_8,3,5,63,98,2699242796
7718,18,Jits_Linear_8,0,1,48,34,2699732644
7718,18,Jits_Linear_8,1,5,56,103,2699782496
7718,18,Jits_Linear_8,2,5,63,98,2699872572
7718,18,Jits_Linear_8,3,5,80,127,2699943448
7718,18,Jits_Linear_8,0,1,48,39,2700454340
7718,18,Jits_Linear_8,1,5,63,98,2700543296
7718,18,Jits_Linear_8,2,5,80,127,2700546588
7718,18,Jits_Linear_8,3,5,56,103,2700602772
7718,18,Jits_Linear_8,0,1,48,34,2701164636
7718,18,Jits_Linear_8,1,5,80,127,2701263320
7718,18,Jits_Linear_8,2,5,56,103,2701282584
7718,18,Jits_Linear_8,3,5,63,98,2701292856
7718,18,Jits_Linear_8,0,5,56,103,2701853228
7718,18,Jits_Linear_8,1,5,63,98,2701863572
7718,18,Jits_Linear_8,2,1,48,36,2701916464
7718,18,Jits_Linear_8,3,5,80,127,2701933048
7718,18,Jits_Linear_8,0,5,80,127,2702532896
7718,18,Jits_Linear_8,1,1,48,34,2702544408
7718,18,Jits_Linear_8,2,5,56,103,2702583244
7718,18,Jits_Linear_8,3,5,63,98,2702633444
7718,18,Jits_Linear_8,0,1,48,33,2703229460
7718,18,Jits_Linear_8,1,5,56,103,2703292732
7718,18,Jits_Linear_8,2,5,63,98,2703303452
7718,18,Jits_Linear_8,3,5,80,127,2703343152
7718,18,Jits_Linear_8,0,1,48,33,2703908804
7718,18,Jits_Linear_8,1,5,56,103,2703913264
7718,18,Jits_Linear_8,2,5,63,98,2703953204
7718,18,Jits_Linear_8,3,5,80,127,2704002308
7718,18,Jits_Linear_8,0,5,80,127,2704543028
7718,18,Jits_Linear_8,1,5,56,103,2704593232
7718,18,Jits_Linear_8,2,1,48,30,2704608488
7718,18,Jits_Linear_8,3,5,63,98,2704612716
7718,18,Jits_Linear_8,0,5,80,127,2705222976
7718,18,Jits_Linear_8,1,1,48,31,2705241388
7718,18,Jits_Linear_8,2,5,63,98,2705282412
7718,18,Jits_Linear_8,3,5,56,103,2705363388
7718,18,Jits_Linear_8,0,1,48,21,2705833612
7718,18,Jits_Linear_8,1,5,80,127,2705873496
7718,18,Jits_Linear_8,2,5,56,103,2705913288
7718,18,Jits_Linear_8,3,5,63,98,2705933436
7718,18,Jits_Linear_8,0,1,48,35,2706502452
7718,18,Jits_Linear_8,1,5,56,103,2706593232
7718,18,Jits_Linear_8,2,5,80,127,2706603488
7718,18,Jits_Linear_8,3,5,63,98,2706643428
7718,18,Jits_Linear_8,0,1,48,38,2707261536
7718,18,Jits_Linear_8,1,5,56,103,2707323388
7718,18,Jits_Linear_8,2,5,63,98,2707363240
7718,18,Jits_Linear_8,3,5,80,127,2707366528
7718,18,Jits_Linear_8,0,1,48,33,2707858688
7718,18,Jits_Linear_8,1,5,63,98,2707873332
7718,18,Jits_Linear_8,2,5,80,127,2707913196
7718,18,Jits_Linear_8,3,5,56,103,2707982640
7718,18,Jits_Linear_8,0,5,63,98,2708523300
7718,18,Jits_Linear_8,1,1,48,40,2708586300
7718,18,Jits_Linear_8,2,5,56,103,2708603264
7718,18,Jits_Linear_8,3,5,80,127,2708662532
7718,18,Jits_Linear_8,0,5,80,127,2709193364
7718,18,Jits_Linear_8,1,1,48,34,2709199400
7718,18,Jits_Linear_8,2,5,63,98,2709243336
7718,18,Jits_Linear_8,3,5,56,103,2709273308
7718,18,Jits_Linear_8,0,1,48,29,2709753996
7718,18,Jits_Linear_8,1,5,56,103,2709843180
7718,18,Jits_Linear_8,2,5,63,98,2709892348
7718,18,Jits_Linear_8,3,5,80,127,2709902768
7718,18,Jits_Linear_8,0,1,48,32,2710431184
7718,18,Jits_Linear_8,1,5,56,103,2710513244
7718,18,Jits_Linear_8,2,5,63,98,2710622648
7718,18,Jits_Linear_8,3,5,80,127,2710643328
7718,18,Jits_Linear_8,0,1,48,34,2711129168
7718,18,Jits_Linear_8,1,5,63,98,2711163240
7718,18,Jits_Linear_8,2,5,80,127,2711213516
7718,18,Jits_Linear_8,3,5,56,103,2711302588
7718,18,Jits_Linear_8,0,5,63,98,2711803320
7718,18,Jits_Linear_8,1,5,80,127,2711833368
7718,18,Jits_Linear_8,2,1,48,37,2711845632
7718,18,Jits_Linear_8,3,5,56,103,2711923148
7718,18,Jits_Linear_8,0,5,63,98,2712452560
7718,18,Jits_Linear_8,1,1,48,37,2712456124
7718,18,Jits_Linear_8,2,5,56,103,2712462676
7718,18,Jits_Linear_8,3,5,80,127,2712562980
7718,18,Jits_Linear_8,0,1,48,32,2713094096
7718,18,Jits_Linear_8,1,5,63,98,2713203296
7718,18,Jits_Linear_8,2,5,80,127,2713232748
7718,18,Jits_Linear_8,3,5,56,103,2713262500
7718,18,Jits_Linear_8,0,1,48,35,2713811832
7718,18,Jits_Linear_8,1,5,80,127,2713862580
7718,18,Jits_Linear_8,2,5,63,98,2713872704
7718,18,Jits_Linear_8,3,5,56,103,2713902452
7718,18,Jits_Linear_8,0,5,80,127,2714403248
7718,18,Jits_Linear_8,1,5,63,98,2714422660
7718,18,Jits_Linear_8,2,5,56,103,2714472960
7718,18,Jits_Linear_8,3,1,48,33,2714510304
7718,18,Jits_Linear_8,0,1,48,30,2714992524
7718,18,Jits_Linear_8,1,5,63,98,2715073096
7718,18,Jits_Linear_8,2,5,80,127,2715133248
7718,18,Jits_Linear_8,3,5,56,103,2715152660
7718,18,Jits_Linear_8,0,5,63,98,2715673020
7718,18,Jits_Linear_8,1,5,56,103,2715723148
7718,18,Jits_Linear_8,2,5,80,127,2715733492
7718,18,Jits_Linear_8,3,1,48,38,2715748624
7718,18,Jits_Linear_8,0,5,56,103,2716343084
7718,18,Jits_Linear_8,1,5,80,127,2716352836
7718,18,Jits_Linear_8,2,1,48,26,2716410632
7718,18,Jits_Linear_8,3,5,63,98,2716453300
7718,18,Jits_Linear_8,0,5,80,127,2716942648
7718,18,Jits_Linear_8,1,5,63,98,2716953220
7718,18,Jits_Linear_8,2,1,48,27,2717019036
7718,18,Jits_Linear_8,3,5,56,103,2717102380
7718,18,Jits_Linear_8,0,1,48,26,2717553184
7718,18,Jits_Linear_8,1,5,63,98,2717582732
7718,18,Jits_Linear_8,2,5,80,127,2717622596
7718,18,Jits_Linear_8,3,5,56,103,2717702448
7718,18,Jits_Linear_8,0,1,48,30,2718180680
7718,18,Jits_Linear_8,1,5,56,103,2718203320
7718,18,Jits_Linear_8,2,5,80,127,2718302464
7718,18,Jits_Linear_8,3,5,63,98,2718323148
7718,18,Jits_Linear_8,0,1,48,27,2718772048
7718,18,Jits_Linear_8,1,5,80,127,2718893536
7718,18,Jits_Linear_8,2,5,56,103,2718902608
7718,18,Jits_Linear_8,3,5,63,98,2718992668
7718,18,Jits_Linear_8,0,1,48,37,2719427956
7718,18,Jits_Linear_8,1,5,56,103,2719523272
7718,18,Jits_Linear_8,2,5,63,98,2719542612
7718,18,Jits_Linear_8,3,5,80,127,2719622432
7718,18,Jits_Linear_8,0,5,63,98,2720092600
7718,18,Jits_Linear_8,1,1,48,34,2720100528
7718,18,Jits_Linear_8,2,5,56,103,2720182580
7718,18,Jits_Linear_8,3,5,80,127,2720185720
7718,18,Jits_Linear_8,0,5,56,103,2720742856
7718,18,Jits_Linear_8,1,1,48,32,2720746420
7718,18,Jits_Linear_8,2,5,80,127,2720803316
7718,18,Jits_Linear_8,3,5,63,98,2720813436
7718,18,Jits_Linear_8,0,1,48,29,2721303344
7718,18,Jits_Linear_8,1,5,80,127,2721412400
7718,18,Jits_Linear_8,2,5,56,103,2721422668
7718,18,Jits_Linear_8,3,5,63,98,2721425956
7718,18,Jits_Linear_8,0,1,48,32,2721966440
7718,18,Jits_Linear_8,1,5,56,103,2721993216
7718,18,Jits_Linear_8,2,5,80,127,2722003336
7718,18,Jits_Linear_8,3,5,63,98,2722023048
7718,18,Jits_Linear_8,0,5,63,98,2722583096
7718,18,Jits_Linear_8,1,1,48,30,2722605176
7718,18,Jits_Linear_8,2,5,80,127,2722643260
7718,18,Jits_Linear_8,3,5,56,103,2722692512
7718,18,Jits_Linear_8,0,1,48,39,2723242576
7718,18,Jits_Linear_8,1,5,63,98,2723283284
7718,18,Jits_Linear_8,2,5,56,103,2723292508
7718,18,Jits_Linear_8,3,5,80,127,2723342620
7718,18,Jits_Linear_8,0,5,63,98,2723793232
7718,18,Jits_Linear_8,1,5,80,127,2723812868
7718,18,Jits_Linear_8,2,5,56,103,2723822916
7718,18,Jits_Linear_8,3,1,48,42,2723908508
7718,18,Jits_Linear_8,0,5,63,98,2724402428
7718,18,Jits_Linear_8,1,5,80,127,2724406168
7718,18,Jits_Linear_8,2,1,48,30,2724407060
7718,18,Jits_Linear_8,3,5,56,103,2724442364
7718,18,Jits_Linear_8,0,1,48,33,2725024480
7718,18,Jits_Linear_8,1,5,63,98,2725082348
7718,18,Jits_Linear_8,2,5,80,127,2725113296
7718,18,Jits_Linear_8,3,5,56,103,2725122356
7718,18,Jits_Linear_8,0,1,48,30,2725596676
7718,18,Jits_Linear_8,1,5,56,103,2725642708
7718,18,Jits_Linear_8,2,5,80,127,2725673208
7718,18,Jits_Linear_8,3,5,63,98,2725703020
7718,18,Jits_Linear_8,0,1,48,30,2726187228
7718,18,Jits_Linear_8,1,5,63,98,2726343112
7718,18,Jits_Linear_8,2,5,56,103,2726382900
7718,18,Jits_Linear_8,3,5,80,127,2726385968
7718,18,Jits_Linear_8,0,5,80,127,2726842952
7718,18,Jits_Linear_8,1,1,48,29,2726891184
7718,18,Jits_Linear_8,2,5,56,103,2726922896
7718,18,Jits_Linear_8,3,5,63,98,2726972948
7718,18,Jits_Linear_8,0,5,80,127,2727423408
7718,18,Jits_Linear_8,1,5,56,103,2727442820
7718,18,Jits_Linear_8,2,1,48,31,2727495912
7718,18,Jits_Linear_8,3,5,63,98,2727533272
7718,18,Jits_Linear_8,0,1,48,20,2727955948
7718,18,Jits_Linear_8,1,5,80,127,2728063280
7718,18,Jits_Linear_8,2,5,63,98,2728103220
7718,18,Jits_Linear_8,3,5,56,103,2728143084
7718,18,Jits_Linear_8,0,5,63,98,2728632800
7718,18,Jits_Linear_8,1,1,48,28,2728640480
7718,18,Jits_Linear_8,2,5,80,127,2728692964
7718,18,Jits_Linear_8,3,5,56,103,2728723012
7718,18,Jits_Linear_8,0,5,56,103,2729232940
7718,18,Jits_Linear_8,1,5,80,127,2729262324
7718,18,Jits_Linear_8,2,1,48,27,2729294212
7718,18,Jits_Linear_8,3,5,63,98,2729352548
7718,18,Jits_Linear_8,0,5,56,103,2729832904
7718,18,Jits_Linear_8,1,1,48,31,2729854680
7718,18,Jits_Linear_8,2,5,80,127,2729943336
7718,18,Jits_Linear_8,3,5,63,98,2729973148
7718,18,Jits_Linear_8,0,1,48,32,2730411240
7718,18,Jits_Linear_8,1,5,56,103,2730472996
7718,18,Jits_Linear_8,2,5,63,98,2730533372
7718,18,Jits_Linear_8,3,5,80,127,2730562976
7718,18,Jits_Linear_8,0,1,48,31,2731017820
7718,18,Jits_Linear_8,1,5,56,103,2731032984
7718,18,Jits_Linear_8,2,5,63,98,2731102472
7718,18,Jits_Linear_8,3,5,80,127,2731122992
7718,18,Jits_Linear_8,0,1,48,28,2731560272
7718,18,Jits_Linear_8,1,5,80,127,2731593048
7718,18,Jits_Linear_8,2,5,63,98,2731612488
7718,18,Jits_Linear_8,3,5,56,103,2731662972
7718,18,Jits_Linear_8,0,1,48,28,2732090056
7718,18,Jits_Linear_8,1,5,63,98,2732193196
7718,18,Jits_Linear_8,2,5,80,127,2732203396
7718,18,Jits_Linear_8,3,5,56,103,2732252696
7718,18,Jits_Linear_8,0,1,48,30,2732756312
7718,18,Jits_Linear_8,1,5,63,98,2732772752
7718,18,Jits_Linear_8,2,5,80,127,2732843556
7718,18,Jits_Linear_8,3,5,56,103,2732862952
7718,18,Jits_Linear_8,0,1,48,32,2733366576
7718,18,Jits_Linear_8,1,5,63,98,2733383012
7718,18,Jits_Linear_8,2,5,80,127,2733386300
7718,18,Jits_Linear_8,3,5,56,103,2733452864
7718,18,Jits_Linear_8,0,1,48,28,2733906472
7718,18,Jits_Linear_8,1,5,80,127,2733912348
7718,18,Jits_Linear_8,2,5,56,103,2733932880
7718,18,Jits_Linear_8,3,5,63,98,2733943152
7718,18,Jits_Linear_8,0,1,48,27,2734501524
7718,18,Jits_Linear_8,1,5,56,103,2734512412
7718,18,Jits_Linear_8,2,5,63,98,2734602900
7718,18,Jits_Linear_8,3,5,80,127,2734606188
7718,18,Jits_Linear_8,0,5,80,127,2735063400
7718,18,Jits_Linear_8,1,5,56,103,2735072552
7718,18,Jits_Linear_8,2,5,63,98,2735093160
7718,18,Jits_Linear_8,3,1,48,35,2735115980
7718,18,Jits_Linear_8,0,1,48,25,2735594668
7718,18,Jits_Linear_8,1,5,63,98,2735632680
7718,18,Jits_Linear_8,2,5,80,127,2735693060
7718,18,Jits_Linear_8,3,5,56,103,2735703328
7718,18,Jits_Linear_8,0,1,48,35,2736219848
7718,18,Jits_Linear_8,1,5,63,98,2736272860
7718,18,Jits_Linear_8,2,5,80,127,2736302312
7718,18,Jits_Linear_8,3,5,56,103,2736343284
7718,18,Jits_Linear_8,0,1,48,32,2736796784
7718,18,Jits_Linear_8,1,5,56,103,2736832852
7718,18,Jits_Linear_8,2,5,80,127,2736843124
7718,18,Jits_Linear_8,3,5,63,98,2736882912
7718,18,Jits_Linear_8,0,1,48,28,2737320276
7718,18,Jits_Linear_8,1,5,80,127,2737363168
7718,18,Jits_Linear_8,2,5,56,103,2737443176
7718,18,Jits_Linear_8,3,5,63,98,2737453372
7718,18,Jits_Linear_8,0,1,48,23,2737896228
7718,18,Jits_Linear_8,1,5,80,127,2737972608
7718,18,Jits_Linear_8,2,5,56,103,2738052416
7718,18,Jits_Linear_8,3,5,63,98,2738063132
7718,18,Jits_Linear_8,0,5,80,127,2738492964
7718,18,Jits_Linear_8,1,1,48,28,2738506196
7718,18,Jits_Linear_8,2,5,56,103,2738542964
7718,18,Jits_Linear_8,3,5,63,98,2738593016
7718,18,Jits_Linear_8,0,1,48,29,2738983332
7718,18,Jits_Linear_8,1,5,56,103,2739113284
7718,18,Jits_Linear_8,2,5,63,98,2739116352
7718,18,Jits_Linear_8,3,5,80,127,2739162588
7718,18,Jits_Linear_8,0,1,48,29,2739623064
7718,18,Jits_Linear_8,1,5,56,103,2739692916
7718,18,Jits_Linear_8,2,5,63,98,2739722576
7718,18,Jits_Linear_8,3,5,80,127,2739732772
7718,18,Jits_Linear_8,0,5,63,98,2740162932
7718,18,Jits_Linear_8,1,1,48,30,2740221724
7718,18,Jits_Linear_8,2,5,56,103,2740232536
7718,18,Jits_Linear_8,3,5,80,127,2740282588
7718,18,Jits_Linear_8,0,1,48,29,2740708944
7718,18,Jits_Linear_8,1,5,63,98,2740752884
7718,18,Jits_Linear_8,2,5,56,103,2740763076
7718,18,Jits_Linear_8,3,5,80,127,2740766216
7718,18,Jits_Linear_8,0,1,48,24,2741206140
7718,18,Jits_Linear_8,1,5,80,127,2741252396
7718,18,Jits_Linear_8,2,5,56,103,2741312996
7718,18,Jits_Linear_8,3,5,63,98,2741402932
7718,18,Jits_Linear_8,0,5,80,127,2741803472
7718,18,Jits_Linear_8,1,1,48,29,2741840228
7718,18,Jits_Linear_8,2,5,56,103,2741902844
7718,18,Jits_Linear_8,3,5,63,98,2741942916
7718,18,Jits_Linear_8,0,5,56,103,2742402692
7718,18,Jits_Linear_8,1,5,63,98,2742422852
7718,18,Jits_Linear_8,2,1,48,34,2742442980
7718,18,Jits_Linear_8,3,5,80,127,2742462860
7718,18,Jits_Linear_8,0,5,63,98,2742922536
7718,18,Jits_Linear_8,1,5,56,103,2742943148
7718,18,Jits_Linear_8,2,1,48,32,2742954808
7718,18,Jits_Linear_8,3,5,80,127,2743042636
7718,18,Jits_Linear_8,0,1,48,29,2743421584
7718,18,Jits_Linear_8,1,5,63,98,2743453072
7718,18,Jits_Linear_8,2,5,80,127,2743562824
7718,18,Jits_Linear_8,3,5,56,103,2743593768
7718,18,Jits_Linear_8,0,1,48,35,2743965836
7718,18,Jits_Linear_8,1,5,56,103,2744013216
7718,18,Jits_Linear_8,2,5,63,98,2744042744
7718,18,Jits_Linear_8,3,5,80,127,2744093076
7718,18,Jits_Linear_8,0,1,48,34,2744511672
7718,18,Jits_Linear_8,1,5,63,98,2744523008
7718,18,Jits_Linear_8,2,5,56,103,2744552684
7718,18,Jits_Linear_8,3,5,80,127,2744602884
7718,18,Jits_Linear_8,0,1,48,32,2745033512
7718,18,Jits_Linear_8,1,5,56,103,2745092656
7718,18,Jits_Linear_8,2,5,63,98,2745112968
7718,18,Jits_Linear_8,3,5,80,127,2745192772
7718,18,Jits_Linear_8,0,1,48,27,2745522256
7718,18,Jits_Linear_8,1,5,63,98,2745602520
7718,18,Jits_Linear_8,2,5,56,103,2745662752
7718,18,Jits_Linear_8,3,5,80,127,2745692820
7718,18,Jits_Linear_8,0,1,48,35,2746130028
7718,18,Jits_Linear_8,1,5,56,103,2746182960
7718,18,Jits_Linear_8,2,5,80,127,2746242540
7718,18,Jits_Linear_8,3,5,63,98,2746283600
7718,18,Jits_Linear_8,0,1,48,27,2746610000
7718,18,Jits_Linear_8,1,5,63,98,2746692980
7718,18,Jits_Linear_8,2,5,56,103,2746753528
7718,18,Jits_Linear_8,3,5,80,127,2746822988
7718,18,Jits_Linear_8,0,1,48,34,2747191060
7718,18,Jits_Linear_8,1,5,56,103,2747303252
7718,18,Jits_Linear_8,2,5,63,98,2747312696
7718,18,Jits_Linear_8,3,5,80,127,2747316060
7718,18,Jits_Linear_8,0,1,48,35,2747760816
7718,18,Jits_Linear_8,1,5,63,98,2747773416
7718,18,Jits_Linear_8,2,5,56,103,2747832616
7718,18,Jits_Linear_8,3,5,80,127,2747835752
7718,18,Jits_Linear_8,0,5,63,98,2748283356
7718,18,Jits_Linear_8,1,1,48,31,2748284320
7718,18,Jits_Linear_8,2,5,80,127,2748312952
7718,18,Jits_Linear_8,3,5,56,103,2748333632
7718,18,Jits_Linear_8,0,5,56,103,2748812776
7718,18,Jits_Linear_8,1,5,63,98,2748862832
7718,18,Jits_Linear_8,2,1,48,31,2748872324
7718,18,Jits_Linear_8,3,5,80,127,2748942768
7718,18,Jits_Linear_8,0,5,80,127,2749313516
7718,18,Jits_Linear_8,1,5,63,98,2749353608
7718,18,Jits_Linear_8,2,1,48,29,2749367960
7718,18,Jits_Linear_8,3,5,56,103,2749372716
7718,18,Jits_Linear_8,0,1,48,31,2749766464
7718,18,Jits_Linear_8,1,5,56,103,2749903544
7718,18,Jits_Linear_8,2,5,80,127,2749912468
7718,18,Jits_Linear_8,3,5,63,98,2749932780
7718,18,Jits_Linear_8,0,1,48,28,2750386728
7718,18,Jits_Linear_8,1,5,56,103,2750402868
7718,18,Jits_Linear_8,2,5,63,98,2750453068
7718,18,Jits_Linear_8,3,5,80,127,2750482880
7718,18,Jits_Linear_8,0,5,56,103,2750872884
7718,18,Jits_Linear_8,1,5,63,98,2750883304
7718,18,Jits_Linear_8,2,5,80,127,2750933504
7718,18,Jits_Linear_8,3,1,48,34,2750954608
7718,18,Jits_Linear_8,0,5,56,103,2751382752
7718,18,Jits_Linear_8,1,5,80,127,2751385824
7718,18,Jits_Linear_8,2,1,48,26,2751440260
7718,18,Jits_Linear_8,3,5,63,98,2751542540
7718,18,Jits_Linear_8,0,5,63,98,2751913680
7718,18,Jits_Linear_8,1,1,48,24,2751942208
7718,18,Jits_Linear_8,2,5,56,103,2751982912
7718,18,Jits_Linear_8,3,5,80,127,2752022852
7718,18,Jits_Linear_8,0,1,48,25,2752430496
7718,18,Jits_Linear_8,1,5,63,98,2752463184
7718,18,Jits_Linear_8,2,5,56,103,2752553452
7718,18,Jits_Linear_8,3,5,80,127,2752556516
7718,18,Jits_Linear_8,0,5,56,103,2752952752
7718,18,Jits_Linear_8,1,1,48,29,2752955344
7718,18,Jits_Linear_8,2,5,63,98,2753042808
7718,18,Jits_Linear_8,3,5,80,127,2753053136
7718,18,Jits_Linear_8,0,5,56,103,2753432892
7718,18,Jits_Linear_8,1,5,63,98,2753483168
7718,18,Jits_Linear_8,2,1,48,36,2753492068
7718,18,Jits_Linear_8,3,5,80,127,2753512840
7718,18,Jits_Linear_8,0,1,48,29,2754007544
7718,18,Jits_Linear_8,1,5,63,98,2754012668
7718,18,Jits_Linear_8,2,5,80,127,2754022716
7718,18,Jits_Linear_8,3,5,56,103,2754083180
7718,18,Jits_Linear_8,0,5,63,98,2754433612
7718,18,Jits_Linear_8,1,1,48,29,2754491528
7718,18,Jits_Linear_8,2,5,80,127,2754493172
7718,18,Jits_Linear_8,3,5,56,103,2754532592
7718,18,Jits_Linear_8,0,1,48,28,2754936548
7718,18,Jits_Linear_8,1,5,56,103,2755032620
7718,18,Jits_Linear_8,2,5,80,127,2755052928
7718,18,Jits_Linear_8,3,5,63,98,2755073540
7718,18,Jits_Linear_8,0,5,63,98,2755453428
7718,18,Jits_Linear_8,1,5,56,103,2755472696
7718,18,Jits_Linear_8,2,5,80,127,2755512708
7718,18,Jits_Linear_8,3,1,48,30,2755541380
7718,18,Jits_Linear_8,0,5,63,98,2755963296
7718,18,Jits_Linear_8,1,1,48,25,2755975704
7718,18,Jits_Linear_8,2,5,80,127,2755992892
7718,18,Jits_Linear_8,3,5,56,103,2756013572
7718,18,Jits_Linear_8,0,5,80,127,2756433352
7718,18,Jits_Linear_8,1,1,48,30,2756454704
7718,18,Jits_Linear_8,2,5,56,103,2756482528
7718,18,Jits_Linear_8,3,5,63,98,2756542916
7718,18,Jits_Linear_8,0,5,63,98,2756912444
7718,18,Jits_Linear_8,1,1,48,29,2756925604
7718,18,Jits_Linear_8,2,5,56,103,2757033300
7718,18,Jits_Linear_8,3,5,80,127,2757063124
7718,18,Jits_Linear_8,0,5,80,127,2757442916
7718,18,Jits_Linear_8,1,5,63,98,2757463452
7718,18,Jits_Linear_8,2,1,48,32,2757469292
7718,18,Jits_Linear_8,3,5,56,103,2757533000
7718,18,Jits_Linear_8,0,1,48,32,2757952192
7718,18,Jits_Linear_8,1,5,63,98,2757953764
7718,18,Jits_Linear_8,2,5,56,103,2757963140
7718,18,Jits_Linear_8,3,5,80,127,2758042960
7718,18,Jits_Linear_8,0,1,48,32,2758451852
7718,18,Jits_Linear_8,1,5,56,103,2758502700
7718,18,Jits_Linear_8,2,5,80,127,2758532596
7718,18,Jits_Linear_8,3,5,63,98,2758542796
7718,18,Jits_Linear_8,0,9999,9999,9999,2648150112
7718,18,Jits_Linear_8,1,9999,9999,9999,2648970348
7718,18,Jits_Linear_8,2,9999,9999,9999,2649790552
7718,18,Jits_Linear_8,3,9999,9999,9999,2650610772
7718,18,Jits_Linear_8,4,9999,9999,9999,2651430988
7718,18,Jits_Linear_8,5,9999,9999,9999,2652241008
7718,18,Jits_Linear_8,6,9999,9999,9999,2653050976
7718,18,Jits_Linear_8,7,9999,9999,9999,2653860924
7718,18,Jits_Linear_8,8,9999,9999,9999,2654670944
7718,18,Jits_Linear_8,9,9999,9999,9999,2655480952
7718,18,Jits_Linear_8,10,9999,9999,9999,2656280636
7718,18,Jits_Linear_8,11,9999,9999,9999,2657080396
7718,18,Jits_Linear_8,12,9999,9999,9999,2657880156
7718,18,Jits_Linear_8,13,9999,9999,9999,2658680896
7718,18,Jits_Linear_8,14,9999,9999,9999,2659480636
7718,18,Jits_Linear_8,15,9999,9999,9999,2660270196
7718,18,Jits_Linear_8,16,9999,9999,9999,2661060720
7718,18,Jits_Linear_8,17,9999,9999,9999,2661850216
7718,18,Jits_Linear_8,18,9999,9999,9999,2662640756
7718,18,Jits_Linear_8,19,9999,9999,9999,2663430252
7718,18,Jits_Linear_8,20,9999,9999,9999,2664210520
7718,18,Jits_Linear_8,21,9999,9999,9999,2664990792
7718,18,Jits_Linear_8,22,9999,9999,9999,2665771128
7718,18,Jits_Linear_8,23,9999,9999,9999,2666560616
7718,18,Jits_Linear_8,24,9999,9999,9999,2667340888
7718,18,Jits_Linear_8,25,9999,9999,9999,2668110972
7718,18,Jits_Linear_8,26,9999,9999,9999,2668880980
7718,18,Jits_Linear_8,27,9999,9999,9999,2669651064
7718,18,Jits_Linear_8,28,9999,9999,9999,2670421072
7718,18,Jits_Linear_8,29,9999,9999,9999,2671190112
7718,18,Jits_Linear_8,30,9999,9999,9999,2671950972
7718,18,Jits_Linear_8,31,9999,9999,9999,2672710720
7718,18,Jits_Linear_8,32,9999,9999,9999,2673470540
7718,18,Jits_Linear_8,33,9999,9999,9999,2674230356
7718,18,Jits_Linear_8,34,9999,9999,9999,2674990180
7718,18,Jits_Linear_8,35,9999,9999,9999,2675740792
7718,18,Jits_Linear_8,36,9999,9999,9999,2676490360
7718,18,Jits_Linear_8,37,9999,9999,9999,2677240892
7718,18,Jits_Linear_8,38,9999,9999,9999,2677990524
7718,18,Jits_Linear_8,39,9999,9999,9999,2678741072
7718,18,Jits_Linear_8,40,9999,9999,9999,2679480376
7718,18,Jits_Linear_8,41,9999,9999,9999,2680220796
7718,18,Jits_Linear_8,42,9999,9999,9999,2680960084
7718,18,Jits_Linear_8,43,9999,9999,9999,2681700432
7718,18,Jits_Linear_8,44,9999,9999,9999,2682440808
7718,18,Jits_Linear_8,45,9999,9999,9999,2683170888
7718,18,Jits_Linear_8,46,9999,9999,9999,2683901044
7718,18,Jits_Linear_8,47,9999,9999,9999,2684630144
7718,18,Jits_Linear_8,48,9999,9999,9999,2685360224
7718,18,Jits_Linear_8,49,9999,9999,9999,2686090312
7718,18,Jits_Linear_8,50,9999,9999,9999,2686810176
7718,18,Jits_Linear_8,51,9999,9999,9999,2687531124
7718,18,Jits_Linear_8,52,9999,9999,9999,2688260172
7718,18,Jits_Linear_8,53,9999,9999,9999,2688981116
7718,18,Jits_Linear_8,54,9999,9999,9999,2689700924
7718,18,Jits_Linear_8,55,9999,9999,9999,2690410568
7718,18,Jits_Linear_8,56,9999,9999,9999,2691120240
7718,18,Jits_Linear_8,57,9999,9999,9999,2691830852
7718,18,Jits_Linear_8,58,9999,9999,9999,2692540496
7718,18,Jits_Linear_8,59,9999,9999,9999,2693250120
7718,18,Jits_Linear_8,60,9999,9999,9999,2693950580
7718,18,Jits_Linear_8,61,9999,9999,9999,2694650992
7718,18,Jits_Linear_8,62,9999,9999,9999,2695350352
7718,18,Jits_Linear_8,63,9999,9999,9999,2696050752
7718,18,Jits_Linear_8,64,9999,9999,9999,2696750172
7718,18,Jits_Linear_8,65,9999,9999,9999,2697440324
7718,18,Jits_Linear_8,66,9999,9999,9999,2698130492
7718,18,Jits_Linear_8,67,9999,9999,9999,2698820692
7718,18,Jits_Linear_8,68,9999,9999,9999,2699510904
7718,18,Jits_Linear_8,69,9999,9999,9999,2700201068
7718,18,Jits_Linear_8,70,9999,9999,9999,2700880996
7718,18,Jits_Linear_8,71,9999,9999,9999,2701560888
7718,18,Jits_Linear_8,72,9999,9999,9999,2702240844
7718,18,Jits_Linear_8,73,9999,9999,9999,2702920792
7718,18,Jits_Linear_8,74,9999,9999,9999,2703600700
7718,18,Jits_Linear_8,75,9999,9999,9999,2704270400
7718,18,Jits_Linear_8,76,9999,9999,9999,2704940140
7718,18,Jits_Linear_8,77,9999,9999,9999,2705610824
7718,18,Jits_Linear_8,78,9999,9999,9999,2706280528
7718,18,Jits_Linear_8,79,9999,9999,9999,2706950268
7718,18,Jits_Linear_8,80,9999,9999,9999,2707610744
7718,18,Jits_Linear_8,81,9999,9999,9999,2708270148
7718,18,Jits_Linear_8,82,9999,9999,9999,2708930624
7718,18,Jits_Linear_8,83,9999,9999,9999,2709590100
7718,18,Jits_Linear_8,84,9999,9999,9999,2710250580
7718,18,Jits_Linear_8,85,9999,9999,9999,2710900800
7718,18,Jits_Linear_8,86,9999,9999,9999,2711551068
7718,18,Jits_Linear_8,87,9999,9999,9999,2712200308
7718,18,Jits_Linear_8,88,9999,9999,9999,2712850496
7718,18,Jits_Linear_8,89,9999,9999,9999,2713500792
7718,18,Jits_Linear_8,90,9999,9999,9999,2714140728
7718,18,Jits_Linear_8,91,9999,9999,9999,2714780748
7718,18,Jits_Linear_8,92,9999,9999,9999,2715420768
7718,18,Jits_Linear_8,93,9999,9999,9999,2716060788
7718,18,Jits_Linear_8,94,9999,9999,9999,2716700792
7718,18,Jits_Linear_8,95,9999,9999,9999,2717330544
7718,18,Jits_Linear_8,96,9999,9999,9999,2717960292
7718,18,Jits_Linear_8,97,9999,9999,9999,2718591104
7718,18,Jits_Linear_8,98,9999,9999,9999,2719220844
7718,18,Jits_Linear_8,99,9999,9999,9999,2719850612
7718,18,Jits_Linear_8,100,9999,9999,9999,2720470076
7718,18,Jits_Linear_8,101,9999,9999,9999,2721090672
7718,18,Jits_Linear_8,102,9999,9999,9999,2721710176
7718,18,Jits_Linear_8,103,9999,9999,9999,2722330696
7718,18,Jits_Linear_8,104,9999,9999,9999,2722950268
7718,18,Jits_Linear_8,105,9999,9999,9999,2723560536
7718,18,Jits_Linear_8,106,9999,9999,9999,2724170856
7718,18,Jits_Linear_8,107,9999,9999,9999,2724780128
7718,18,Jits_Linear_8,108,9999,9999,9999,2725390464
7718,18,Jits_Linear_8,109,9999,9999,9999,2726000744
7718,18,Jits_Linear_8,110,9999,9999,9999,2726600816
7718,18,Jits_Linear_8,111,9999,9999,9999,2727200888
7718,18,Jits_Linear_8,112,9999,9999,9999,2727800916
7718,18,Jits_Linear_8,113,9999,9999,9999,2728401004
7718,18,Jits_Linear_8,114,9999,9999,9999,2729001068
7718,18,Jits_Linear_8,115,9999,9999,9999,2729590900
7718,18,Jits_Linear_8,116,9999,9999,9999,2730180724
7718,18,Jits_Linear_8,117,9999,9999,9999,2730770552
7718,18,Jits_Linear_8,118,9999,9999,9999,2731360312
7718,18,Jits_Linear_8,119,9999,9999,9999,2731950184
7718,18,Jits_Linear_8,120,9999,9999,9999,2732530768
7718,18,Jits_Linear_8,121,9999,9999,9999,2733110384
7718,18,Jits_Linear_8,122,9999,9999,9999,2733690992
7718,18,Jits_Linear_8,123,9999,9999,9999,2734270576
7718,18,Jits_Linear_8,124,9999,9999,9999,2734850112
7718,18,Jits_Linear_8,125,9999,9999,9999,2735420504
7718,18,Jits_Linear_8,126,9999,9999,9999,2735990864
7718,18,Jits_Linear_8,127,9999,9999,9999,2736560228
7718,18,Jits_Linear_8,128,9999,9999,9999,2737130552
7718,18,Jits_Linear_8,129,9999,9999,9999,2737700952
7718,18,Jits_Linear_8,130,9999,9999,9999,2738261096
7718,18,Jits_Linear_8,131,9999,9999,9999,2738820208
7718,18,Jits_Linear_8,132,9999,9999,9999,2739380280
7718,18,Jits_Linear_8,133,9999,9999,9999,2739940428
7718,18,Jits_Linear_8,134,9999,9999,9999,2740500560
7718,18,Jits_Linear_8,135,9999,9999,9999,2741050424
7718,18,Jits_Linear_8,136,9999,9999,9999,2741600324
7718,18,Jits_Linear_8,137,9999,9999,9999,2742150272
7718,18,Jits_Linear_8,138,9999,9999,9999,2742700092
7718,18,Jits_Linear_8,139,9999,9999,9999,2743251024
7718,18,Jits_Linear_8,140,9999,9999,9999,2743790712
7718,18,Jits_Linear_8,141,9999,9999,9999,2744330324
7718,18,Jits_Linear_8,142,9999,9999,9999,2744870976
7718,18,Jits_Linear_8,143,9999,9999,9999,2745410660
7718,18,Jits_Linear_8,144,9999,9999,9999,2745950296
7718,18,Jits_Linear_8,145,9999,9999,9999,2746480768
7718,18,Jits_Linear_8,146,9999,9999,9999,2747010116
7718,18,Jits_Linear_8,147,9999,9999,9999,2747540580
7718,18,Jits_Linear_8,148,9999,9999,9999,2748071040
7718,18,Jits_Linear_8,149,9999,9999,9999,2748600380
7718,18,Jits_Linear_8,150,9999,9999,9999,2749120588
7718,18,Jits_Linear_8,151,9999,9999,9999,2749640808
7718,18,Jits_Linear_8,152,9999,9999,9999,2750160956
7718,18,Jits_Linear_8,153,9999,9999,9999,2750680120
7718,18,Jits_Linear_8,154,9999,9999,9999,2751200320
7718,18,Jits_Linear_8,155,9999,9999,9999,2751710264
7718,18,Jits_Linear_8,156,9999,9999,9999,2752220228
7718,18,Jits_Linear_8,157,9999,9999,9999,2752730168
7718,18,Jits_Linear_8,158,9999,9999,9999,2753240188
7718,18,Jits_Linear_8,159,9999,9999,9999,2753750144
7718,18,Jits_Linear_8,160,9999,9999,9999,2754250816
7718,18,Jits_Linear_8,161,9999,9999,9999,2754750568
7718,18,Jits_Linear_8,162,9999,9999,9999,2755250256
7718,18,Jits_Linear_8,163,9999,9999,9999,2755750976
7718,18,Jits_Linear_8,164,9999,9999,9999,2756250728
7718,18,Jits_Linear_8,165,9999,9999,9999,2756740220
7718,18,Jits_Linear_8,166,9999,9999,9999,2757230696
7718,18,Jits_Linear_8,167,9999,9999,9999,2757720164
7718,18,Jits_Linear_8,168,9999,9999,9999,2758210640
7718,18,Jits_Linear_8,169,9999,9999,9999,2758700140
7719,19,Jits_Linear_5,0,5,56,103,2766589436
7719,19,Jits_Linear_5,1,5,63,98,2766592384
7719,19,Jits_Linear_5,2,5,80,127,2766595432
7719,19,Jits_Linear_5,0,5,56,103,2767068476
7719,19,Jits_Linear_5,1,5,63,98,2767071652
7719,19,Jits_Linear_5,2,5,80,127,2767074552
7719,19,Jits_Linear_5,0,1,48,27,2767544944
7719,19,Jits_Linear_5,1,5,56,103,2767548652
7719,19,Jits_Linear_5,2,5,80,127,2767559148
7719,19,Jits_Linear_5,3,5,63,98,2767578560
7719,19,Jits_Linear_5,0,5,63,98,2767989308
7719,19,Jits_Linear_5,1,1,48,27,2768013176
7719,19,Jits_Linear_5,2,5,80,127,2768018756
7719,19,Jits_Linear_5,3,5,56,103,2768029324
7719,19,Jits_Linear_5,0,1,48,33,2768455960
7719,19,Jits_Linear_5,1,5,80,127,2768528700
7719,19,Jits_Linear_5,2,5,56,103,2768539120
7719,19,Jits_Linear_5,3,5,63,98,2768568632
7719,19,Jits_Linear_5,0,1,48,30,2768973488
7719,19,Jits_Linear_5,1,5,63,98,2769009136
7719,19,Jits_Linear_5,2,5,56,103,2769038664
7719,19,Jits_Linear_5,3,5,80,127,2769048936
7719,19,Jits_Linear_5,0,5,56,103,2769449392
7719,19,Jits_Linear_5,1,1,48,33,2769490796
7719,19,Jits_Linear_5,2,5,63,98,2769498420
7719,19,Jits_Linear_5,3,5,80,127,2769519180
7719,19,Jits_Linear_5,0,1,48,32,2769905972
7719,19,Jits_Linear_5,1,5,80,127,2769938676
7719,19,Jits_Linear_5,2,5,63,98,2769989176
7719,19,Jits_Linear_5,3,5,56,103,2770028828
7719,19,Jits_Linear_5,0,1,48,35,2770423496
7719,19,Jits_Linear_5,1,5,56,103,2770429224
7719,19,Jits_Linear_5,2,5,63,98,2770459200
7719,19,Jits_Linear_5,3,5,80,127,2770528668
7719,19,Jits_Linear_5,0,1,48,34,2770887232
7719,19,Jits_Linear_5,1,5,56,103,2770918724
7719,19,Jits_Linear_5,2,5,80,127,2770979340
7719,19,Jits_Linear_5,3,5,63,98,2771009000
7719,19,Jits_Linear_5,0,1,48,30,2771396964
7719,19,Jits_Linear_5,1,5,56,103,2771418412
7719,19,Jits_Linear_5,2,5,63,98,2771428684
7719,19,Jits_Linear_5,3,5,80,127,2771468624
7719,19,Jits_Linear_5,0,1,48,34,2771854000
7719,19,Jits_Linear_5,1,5,63,98,2771909180
7719,19,Jits_Linear_5,2,5,80,127,2771988816
7719,19,Jits_Linear_5,3,5,56,103,2771999236
7719,19,Jits_Linear_5,0,1,48,32,2772382464
7719,19,Jits_Linear_5,1,5,63,98,2772458768
7719,19,Jits_Linear_5,2,5,56,103,2772498768
7719,19,Jits_Linear_5,3,5,80,127,2772502060
7719,19,Jits_Linear_5,0,5,56,103,2772918524
7719,19,Jits_Linear_5,1,5,63,98,2772928868
7719,19,Jits_Linear_5,2,1,48,36,2772935500
7719,19,Jits_Linear_5,3,5,80,127,2772968952
7719,19,Jits_Linear_5,0,1,48,35,2773402752
7719,19,Jits_Linear_5,1,5,56,103,2773409524
7719,19,Jits_Linear_5,2,5,63,98,2773412584
7719,19,Jits_Linear_5,3,5,80,127,2773428560
7719,19,Jits_Linear_5,0,1,48,27,2773868716
7719,19,Jits_Linear_5,1,5,80,127,2773929200
7719,19,Jits_Linear_5,2,5,56,103,2773938424
7719,19,Jits_Linear_5,3,5,63,98,2774009212
7719,19,Jits_Linear_5,0,1,48,32,2774388108
7719,19,Jits_Linear_5,1,5,63,98,2774429188
7719,19,Jits_Linear_5,2,5,56,103,2774448452
7719,19,Jits_Linear_5,3,5,80,127,2774529356
7719,19,Jits_Linear_5,0,1,48,36,2774893856
7719,19,Jits_Linear_5,1,5,56,103,2774949108
7719,19,Jits_Linear_5,2,5,80,127,2774989108
7719,19,Jits_Linear_5,3,5,63,98,2774999456
7719,19,Jits_Linear_5,0,1,48,36,2775400068
7719,19,Jits_Linear_5,1,5,80,127,2775448872
7719,19,Jits_Linear_5,2,5,63,98,2775478700
7719,19,Jits_Linear_5,3,5,56,103,2775518624
7719,19,Jits_Linear_5,0,1,48,38,2775898032
7719,19,Jits_Linear_5,1,5,56,103,2775979500
7719,19,Jits_Linear_5,2,5,63,98,2776009236
7719,19,Jits_Linear_5,3,5,80,127,2776059140
7719,19,Jits_Linear_5,0,1,48,33,2776440428
7719,19,Jits_Linear_5,1,5,80,127,2776489304
7719,19,Jits_Linear_5,2,5,56,103,2776529248
7719,19,Jits_Linear_5,3,5,63,98,2776539428
7719,19,Jits_Linear_5,0,1,48,34,2776943032
7719,19,Jits_Linear_5,1,5,80,127,2776989216
7719,19,Jits_Linear_5,2,5,63,98,2777029380
7719,19,Jits_Linear_5,3,5,56,103,2777089532
7719,19,Jits_Linear_5,0,1,48,32,2777464000
7719,19,Jits_Linear_5,1,5,56,103,2777509212
7719,19,Jits_Linear_5,2,5,80,127,2777518436
7719,19,Jits_Linear_5,3,5,63,98,2777599412
7719,19,Jits_Linear_5,0,1,48,29,2777964060
7719,19,Jits_Linear_5,1,5,80,127,2778029352
7719,19,Jits_Linear_5,2,5,63,98,2778088908
7719,19,Jits_Linear_5,3,5,56,103,2778118436
7719,19,Jits_Linear_5,0,1,48,31,2778501516
7719,19,Jits_Linear_5,1,5,56,103,2778548668
7719,19,Jits_Linear_5,2,5,80,127,2778609196
7719,19,Jits_Linear_5,3,5,63,98,2778649060
7719,19,Jits_Linear_5,0,1,48,32,2778995348
7719,19,Jits_Linear_5,1,5,56,103,2779129188
7719,19,Jits_Linear_5,2,5,63,98,2779138328
7719,19,Jits_Linear_5,3,5,80,127,2779141624
7719,19,Jits_Linear_5,0,1,48,27,2779601280
7719,19,Jits_Linear_5,1,5,80,127,2779608428
7719,19,Jits_Linear_5,2,5,63,98,2779698552
7719,19,Jits_Linear_5,3,5,56,103,2779708896
7719,19,Jits_Linear_5,0,1,48,31,2780130720
7719,19,Jits_Linear_5,1,5,56,103,2780138968
7719,19,Jits_Linear_5,2,5,63,98,2780142072
7719,19,Jits_Linear_5,3,5,80,127,2780144968
7719,19,Jits_Linear_5,0,1,48,32,2780599960
7719,19,Jits_Linear_5,1,5,80,127,2780688776
7719,19,Jits_Linear_5,2,5,63,98,2780739112
7719,19,Jits_Linear_5,3,5,56,103,2780768516
7719,19,Jits_Linear_5,0,1,48,33,2781138688
7719,19,Jits_Linear_5,1,5,56,103,2781198580
7719,19,Jits_Linear_5,2,5,80,127,2781209076
7719,19,Jits_Linear_5,3,5,63,98,2781278692
7719,19,Jits_Linear_5,0,1,48,32,2781648416
7719,19,Jits_Linear_5,1,5,56,103,2781740804
7719,19,Jits_Linear_5,2,5,63,98,2781758872
7719,19,Jits_Linear_5,3,5,80,127,2781819212
7719,19,Jits_Linear_5,0,1,48,30,2782172220
7719,19,Jits_Linear_5,1,5,80,127,2782268900
7719,19,Jits_Linear_5,2,5,63,98,2782338524
7719,19,Jits_Linear_5,3,5,56,103,2782359060
7719,19,Jits_Linear_5,0,1,48,32,2782714012
7719,19,Jits_Linear_5,1,5,80,127,2782828988
7719,19,Jits_Linear_5,2,5,56,103,2782839036
7719,19,Jits_Linear_5,3,5,63,98,2782849308
7719,19,Jits_Linear_5,0,1,48,32,2783236784
7719,19,Jits_Linear_5,1,5,80,127,2783359464
7719,19,Jits_Linear_5,2,5,56,103,2783378876
7719,19,Jits_Linear_5,3,5,63,98,2783448484
7719,19,Jits_Linear_5,0,1,48,31,2783754208
7719,19,Jits_Linear_5,1,5,56,103,2783909200
7719,19,Jits_Linear_5,2,5,80,127,2783939028
7719,19,Jits_Linear_5,3,5,63,98,2783959264
7719,19,Jits_Linear_5,0,1,48,32,2784324404
7719,19,Jits_Linear_5,1,5,63,98,2784448972
7719,19,Jits_Linear_5,2,5,56,103,2784509292
7719,19,Jits_Linear_5,3,5,80,127,2784539192
7719,19,Jits_Linear_5,0,1,48,31,2784893868
7719,19,Jits_Linear_5,1,5,63,98,2784988440
7719,19,Jits_Linear_5,2,5,80,127,2784991736
7719,19,Jits_Linear_5,3,5,56,103,2785078580
7719,19,Jits_Linear_5,0,1,48,33,2785441056
7719,19,Jits_Linear_5,1,5,56,103,2785559148
7719,19,Jits_Linear_5,2,5,63,98,2785588528
7719,19,Jits_Linear_5,3,5,80,127,2785628492
7719,19,Jits_Linear_5,0,1,48,30,2785991236
7719,19,Jits_Linear_5,1,5,63,98,2786108956
7719,19,Jits_Linear_5,2,5,56,103,2786148700
7719,19,Jits_Linear_5,3,5,80,127,2786169232
7719,19,Jits_Linear_5,0,1,48,31,2786520076
7719,19,Jits_Linear_5,1,5,63,98,2786669132
7719,19,Jits_Linear_5,2,5,56,103,2786708924
7719,19,Jits_Linear_5,3,5,80,127,2786719048
7719,19,Jits_Linear_5,0,1,48,28,2787069880
7719,19,Jits_Linear_5,1,5,80,127,2787199240
7719,19,Jits_Linear_5,2,5,63,98,2787269000
7719,19,Jits_Linear_5,3,5,56,103,2787288340
7719,19,Jits_Linear_5,0,1,48,27,2787657088
7719,19,Jits_Linear_5,1,5,56,103,2787749364
7719,19,Jits_Linear_5,2,5,80,127,2787768760
7719,19,Jits_Linear_5,3,5,63,98,2787808700
7719,19,Jits_Linear_5,0,1,48,28,2788123864
7719,19,Jits_Linear_5,1,5,63,98,2788318560
7719,19,Jits_Linear_5,2,5,80,127,2788339024
7719,19,Jits_Linear_5,3,5,56,103,2788379108
7719,19,Jits_Linear_5,0,1,48,27,2788699700
7719,19,Jits_Linear_5,1,5,63,98,2788878636
7719,19,Jits_Linear_5,2,5,56,103,2788899244
7719,19,Jits_Linear_5,3,5,80,127,2788909440
7719,19,Jits_Linear_5,0,1,48,26,2789257744
7719,19,Jits_Linear_5,1,5,80,127,2789439072
7719,19,Jits_Linear_5,2,5,56,103,2789459232
7719,19,Jits_Linear_5,3,5,63,98,2789489084
7719,19,Jits_Linear_5,0,1,48,26,2789862468
7719,19,Jits_Linear_5,1,5,56,103,2790079036
7719,19,Jits_Linear_5,2,5,80,127,2790082104
7719,19,Jits_Linear_5,3,5,63,98,2790099196
7719,19,Jits_Linear_5,0,1,48,28,2790421112
7719,19,Jits_Linear_5,1,5,63,98,2790569352
7719,19,Jits_Linear_5,2,5,56,103,2790598952
7719,19,Jits_Linear_5,3,5,80,127,2790658372
7719,19,Jits_Linear_5,0,1,48,26,2790948668
7719,19,Jits_Linear_5,1,5,63,98,2791218736
7719,19,Jits_Linear_5,2,5,56,103,2791228932
7719,19,Jits_Linear_5,3,5,80,127,2791238980
7719,19,Jits_Linear_5,0,1,48,27,2791519112
7719,19,Jits_Linear_5,1,5,56,103,2791739100
7719,19,Jits_Linear_5,2,5,80,127,2791768432
7719,19,Jits_Linear_5,3,5,63,98,2791778924
7719,19,Jits_Linear_5,0,1,48,23,2792111100
7719,19,Jits_Linear_5,1,5,63,98,2792359144
7719,19,Jits_Linear_5,2,5,56,103,2792368520
7719,19,Jits_Linear_5,3,5,80,127,2792388980
7719,19,Jits_Linear_5,0,1,48,30,2792720488
7719,19,Jits_Linear_5,1,5,56,103,2792858984
7719,19,Jits_Linear_5,2,5,63,98,2792919376
7719,19,Jits_Linear_5,3,5,80,127,2792922888
7719,19,Jits_Linear_5,0,1,48,29,2793285180
7719,19,Jits_Linear_5,1,5,80,127,2793458980
7719,19,Jits_Linear_5,2,5,56,103,2793469400
7719,19,Jits_Linear_5,3,5,63,98,2793538860
7719,19,Jits_Linear_5,0,1,48,31,2793844456
7719,19,Jits_Linear_5,1,5,80,127,2794029392
7719,19,Jits_Linear_5,2,5,56,103,2794098952
7719,19,Jits_Linear_5,3,5,63,98,2794109296
7719,19,Jits_Linear_5,0,1,48,26,2794478340
7719,19,Jits_Linear_5,1,5,63,98,2794648904
7719,19,Jits_Linear_5,2,5,56,103,2794659176
7719,19,Jits_Linear_5,3,5,80,127,2794678736
7719,19,Jits_Linear_5,0,1,48,24,2795023868
7719,19,Jits_Linear_5,1,5,80,127,2795179532
7719,19,Jits_Linear_5,2,5,63,98,2795238952
7719,19,Jits_Linear_5,3,5,56,103,2795278668
7719,19,Jits_Linear_5,0,1,48,28,2795649012
7719,19,Jits_Linear_5,1,5,56,103,2795809064
7719,19,Jits_Linear_5,2,5,63,98,2795819260
7719,19,Jits_Linear_5,3,5,80,127,2795859204
7719,19,Jits_Linear_5,0,1,48,28,2796156772
7719,19,Jits_Linear_5,1,5,56,103,2796359100
7719,19,Jits_Linear_5,2,5,80,127,2796388948
7719,19,Jits_Linear_5,3,5,63,98,2796439004
7719,19,Jits_Linear_5,0,1,48,27,2796828424
7719,19,Jits_Linear_5,1,5,56,103,2796988800
7719,19,Jits_Linear_5,2,5,63,98,2797028812
7719,19,Jits_Linear_5,3,5,80,127,2797032176
7719,19,Jits_Linear_5,0,1,48,24,2797383460
7719,19,Jits_Linear_5,1,5,56,103,2797578984
7719,19,Jits_Linear_5,2,5,63,98,2797588808
7719,19,Jits_Linear_5,3,5,80,127,2797609192
7719,19,Jits_Linear_5,0,1,48,27,2798014140
7719,19,Jits_Linear_5,1,5,56,103,2798128792
7719,19,Jits_Linear_5,2,5,80,127,2798131708
7719,19,Jits_Linear_5,3,5,63,98,2798168680
7719,19,Jits_Linear_5,0,1,48,20,2798566484
7719,19,Jits_Linear_5,1,5,63,98,2798759384
7719,19,Jits_Linear_5,2,5,56,103,2798789064
7719,19,Jits_Linear_5,3,5,80,127,2798808328
7719,19,Jits_Linear_5,0,1,48,24,2799179688
7719,19,Jits_Linear_5,1,5,80,127,2799329128
7719,19,Jits_Linear_5,2,5,56,103,2799338880
7719,19,Jits_Linear_5,3,5,63,98,2799349076
7719,19,Jits_Linear_5,0,1,48,23,2799697356
7719,19,Jits_Linear_5,1,5,56,103,2799928908
7719,19,Jits_Linear_5,2,5,80,127,2799968800
7719,19,Jits_Linear_5,3,5,63,98,2799999300
7719,19,Jits_Linear_5,0,1,48,21,2800349536
7719,19,Jits_Linear_5,1,5,63,98,2800538908
7719,19,Jits_Linear_5,2,5,80,127,2800549256
7719,19,Jits_Linear_5,3,5,56,103,2800558404
7719,19,Jits_Linear_5,0,1,48,27,2801018868
7719,19,Jits_Linear_5,1,5,56,103,2801118756
7719,19,Jits_Linear_5,2,5,63,98,2801189192
7719,19,Jits_Linear_5,3,5,80,127,2801198488
7719,19,Jits_Linear_5,0,1,48,25,2801629068
7719,19,Jits_Linear_5,1,5,80,127,2801728880
7719,19,Jits_Linear_5,2,5,56,103,2801739076
7719,19,Jits_Linear_5,3,5,63,98,2801789228
7719,19,Jits_Linear_5,0,1,48,28,2802308668
7719,19,Jits_Linear_5,1,5,80,127,2802349304
7719,19,Jits_Linear_5,2,5,56,103,2802408784
7719,19,Jits_Linear_5,3,5,63,98,2802438608
7719,19,Jits_Linear_5,0,1,48,23,2802833892
7719,19,Jits_Linear_5,1,5,56,103,2802958884
7719,19,Jits_Linear_5,2,5,80,127,2802961948
7719,19,Jits_Linear_5,3,5,63,98,2802998600
7719,19,Jits_Linear_5,0,1,48,27,2803434636
7719,19,Jits_Linear_5,1,5,56,103,2803598692
7719,19,Jits_Linear_5,2,5,63,98,2803629416
7719,19,Jits_Linear_5,3,5,80,127,2803638864
7719,19,Jits_Linear_5,0,1,48,26,2804004900
7719,19,Jits_Linear_5,1,5,63,98,2804219600
7719,19,Jits_Linear_5,2,5,80,127,2804228528
7719,19,Jits_Linear_5,3,5,56,103,2804238648
7719,19,Jits_Linear_5,0,1,48,27,2804621496
7719,19,Jits_Linear_5,1,5,80,127,2804779376
7719,19,Jits_Linear_5,2,5,56,103,2804828780
7719,19,Jits_Linear_5,3,5,63,98,2804831772
7719,19,Jits_Linear_5,0,1,48,24,2805147104
7719,19,Jits_Linear_5,1,5,56,103,2805428752
7719,19,Jits_Linear_5,2,5,80,127,2805449064
7719,19,Jits_Linear_5,3,5,63,98,2805459188
7719,19,Jits_Linear_5,0,5,63,98,2806028856
7719,19,Jits_Linear_5,1,5,56,103,2806059428
7719,19,Jits_Linear_5,2,5,80,127,2806078916
7719,19,Jits_Linear_5,0,1,48,25,2806483276
7719,19,Jits_Linear_5,1,5,56,103,2806658712
7719,19,Jits_Linear_5,2,5,80,127,2806668612
7719,19,Jits_Linear_5,3,5,63,98,2806739340
7719,19,Jits_Linear_5,0,1,48,31,2807103356
7719,19,Jits_Linear_5,1,5,63,98,2807268760
7719,19,Jits_Linear_5,2,5,80,127,2807308624
7719,19,Jits_Linear_5,3,5,56,103,2807348564
7719,19,Jits_Linear_5,0,1,48,36,2807723024
7719,19,Jits_Linear_5,1,5,56,103,2807908804
7719,19,Jits_Linear_5,2,5,63,98,2807919000
7719,19,Jits_Linear_5,3,5,80,127,2807938560
7719,19,Jits_Linear_5,0,1,48,33,2808330896
7719,19,Jits_Linear_5,1,5,63,98,2808578712
7719,19,Jits_Linear_5,2,5,80,127,2808599020
7719,19,Jits_Linear_5,3,5,56,103,2808619556
7719,19,Jits_Linear_5,0,1,48,36,2808957384
7719,19,Jits_Linear_5,1,5,56,103,2809148748
7719,19,Jits_Linear_5,2,5,80,127,2809228648
7719,19,Jits_Linear_5,3,5,63,98,2809238848
7719,19,Jits_Linear_5,0,1,48,32,2809584952
7719,19,Jits_Linear_5,1,5,80,127,2809818612
7719,19,Jits_Linear_5,2,5,63,98,2809828812
7719,19,Jits_Linear_5,3,5,56,103,2809858488
7719,19,Jits_Linear_5,0,1,48,34,2810248156
7719,19,Jits_Linear_5,1,5,63,98,2810409184
7719,19,Jits_Linear_5,2,5,80,127,2810449124
7719,19,Jits_Linear_5,3,5,56,103,2810508792
7719,19,Jits_Linear_5,0,1,48,34,2810802380
7719,19,Jits_Linear_5,1,5,63,98,2811049520
7719,19,Jits_Linear_5,2,5,56,103,2811098680
7719,19,Jits_Linear_5,3,5,80,127,2811129180
7719,19,Jits_Linear_5,4,1,48,35,2811386576
7719,19,Jits_Linear_5,0,5,80,127,2811698600
7719,19,Jits_Linear_5,1,5,63,98,2811708724
7719,19,Jits_Linear_5,2,5,56,103,2811778576
7719,19,Jits_Linear_5,3,1,48,35,2811937980
7719,19,Jits_Linear_5,0,5,80,127,2812409384
7719,19,Jits_Linear_5,1,5,56,103,2812418456
7719,19,Jits_Linear_5,2,5,63,98,2812421672
7719,19,Jits_Linear_5,3,1,48,33,2812562740
7719,19,Jits_Linear_5,0,5,56,103,2812988948
7719,19,Jits_Linear_5,1,5,80,127,2813009260
7719,19,Jits_Linear_5,2,5,63,98,2813018656
7719,19,Jits_Linear_5,3,1,48,26,2813263076
7719,19,Jits_Linear_5,0,5,63,98,2813638968
7719,19,Jits_Linear_5,1,5,56,103,2813678984
7719,19,Jits_Linear_5,2,5,80,127,2813698548
7719,19,Jits_Linear_5,3,1,48,30,2813816152
7719,19,Jits_Linear_5,0,5,63,98,2814289476
7719,19,Jits_Linear_5,1,5,56,103,2814348776
7719,19,Jits_Linear_5,2,5,80,127,2814351768
7719,19,Jits_Linear_5,3,1,48,26,2814428240
7719,19,Jits_Linear_5,0,5,56,103,2814898792
7719,19,Jits_Linear_5,1,5,80,127,2814919032
7719,19,Jits_Linear_5,2,5,63,98,2814958968
7719,19,Jits_Linear_5,3,1,48,33,2815054080
7719,19,Jits_Linear_5,0,5,56,103,2815578484
7719,19,Jits_Linear_5,1,5,63,98,2815598944
7719,19,Jits_Linear_5,2,5,80,127,2815609216
7719,19,Jits_Linear_5,3,1,48,31,2815629716
7719,19,Jits_Linear_5,0,5,80,127,2816198956
7719,19,Jits_Linear_5,1,5,56,103,2816228712
7719,19,Jits_Linear_5,2,5,63,98,2816268576
7719,19,Jits_Linear_5,3,1,48,36,2816276400
7719,19,Jits_Linear_5,0,1,48,31,2816845088
7719,19,Jits_Linear_5,1,5,80,127,2816858632
7719,19,Jits_Linear_5,2,5,56,103,2816878868
7719,19,Jits_Linear_5,3,5,63,98,2816939616
7719,19,Jits_Linear_5,0,1,48,30,2817449692
7719,19,Jits_Linear_5,1,5,56,103,2817519096
7719,19,Jits_Linear_5,2,5,80,127,2817538584
7719,19,Jits_Linear_5,3,5,63,98,2817599036
7719,19,Jits_Linear_5,0,1,48,27,2818034100
7719,19,Jits_Linear_5,1,5,80,127,2818158820
7719,19,Jits_Linear_5,2,5,56,103,2818169312
7719,19,Jits_Linear_5,3,5,63,98,2818209104
7719,19,Jits_Linear_5,0,1,48,33,2818679016
7719,19,Jits_Linear_5,1,5,63,98,2818818388
7719,19,Jits_Linear_5,2,5,56,103,2818859524
7719,19,Jits_Linear_5,3,5,80,127,2818862516
7719,19,Jits_Linear_5,0,1,48,27,2819294056
7719,19,Jits_Linear_5,1,5,63,98,2819499544
7719,19,Jits_Linear_5,2,5,80,127,2819539336
7719,19,Jits_Linear_5,3,5,56,103,2819569012
7719,19,Jits_Linear_5,0,1,48,25,2819878940
7719,19,Jits_Linear_5,1,5,56,103,2820148628
7719,19,Jits_Linear_5,2,5,63,98,2820158972
7719,19,Jits_Linear_5,3,5,80,127,2820188600
7719,19,Jits_Linear_5,0,1,48,29,2820563992
7719,19,Jits_Linear_5,1,5,80,127,2820809040
7719,19,Jits_Linear_5,2,5,63,98,2820878652
7719,19,Jits_Linear_5,3,5,56,103,2820888920
7719,19,Jits_Linear_5,0,1,48,22,2821235868
7719,19,Jits_Linear_5,1,5,63,98,2821478676
7719,19,Jits_Linear_5,2,5,56,103,2821549408
7719,19,Jits_Linear_5,3,5,80,127,2821558628
7719,19,Jits_Linear_5,0,1,48,25,2821942868
7719,19,Jits_Linear_5,1,5,63,98,2822148432
7719,19,Jits_Linear_5,2,5,56,103,2822169040
7719,19,Jits_Linear_5,3,5,80,127,2822208904
7719,19,Jits_Linear_5,0,1,48,26,2822544908
7719,19,Jits_Linear_5,1,5,56,103,2822829596
7719,19,Jits_Linear_5,2,5,63,98,2822838596
7719,19,Jits_Linear_5,3,5,80,127,2822918616
7719,19,Jits_Linear_5,0,1,48,20,2823207420
7719,19,Jits_Linear_5,1,5,63,98,2823488848
7719,19,Jits_Linear_5,2,5,56,103,2823518552
7719,19,Jits_Linear_5,3,5,80,127,2823558492
7719,19,Jits_Linear_5,4,1,48,28,2823809824
7719,19,Jits_Linear_5,0,5,56,103,2824158552
7719,19,Jits_Linear_5,1,5,63,98,2824198492
7719,19,Jits_Linear_5,2,5,80,127,2824238432
7719,19,Jits_Linear_5,3,1,48,31,2824444964
7719,19,Jits_Linear_5,0,5,80,127,2824838612
7719,19,Jits_Linear_5,1,5,56,103,2824919384
7719,19,Jits_Linear_5,2,5,63,98,2824928536
7719,19,Jits_Linear_5,3,1,48,28,2825134320
7719,19,Jits_Linear_5,0,5,56,103,2825559504
7719,19,Jits_Linear_5,1,5,63,98,2825562348
7719,19,Jits_Linear_5,2,5,80,127,2825568652
7719,19,Jits_Linear_5,3,1,48,25,2825848312
7719,19,Jits_Linear_5,0,5,56,103,2826258940
7719,19,Jits_Linear_5,1,5,63,98,2826279400
7719,19,Jits_Linear_5,2,5,80,127,2826288476
7719,19,Jits_Linear_5,3,1,48,25,2826527160
7719,19,Jits_Linear_5,0,5,63,98,2826898844
7719,19,Jits_Linear_5,1,5,80,127,2826909112
7719,19,Jits_Linear_5,2,5,56,103,2826928452
7719,19,Jits_Linear_5,3,1,48,35,2827209908
7719,19,Jits_Linear_5,0,5,63,98,2827588900
7719,19,Jits_Linear_5,1,5,56,103,2827668800
7719,19,Jits_Linear_5,2,5,80,127,2827671940
7719,19,Jits_Linear_5,3,1,48,36,2827885444
7719,19,Jits_Linear_5,0,5,63,98,2828279576
7719,19,Jits_Linear_5,1,5,56,103,2828298544
7719,19,Jits_Linear_5,2,5,80,127,2828329716
7719,19,Jits_Linear_5,3,1,48,25,2828566436
7719,19,Jits_Linear_5,0,5,56,103,2828969444
7719,19,Jits_Linear_5,1,5,63,98,2828988780
7719,19,Jits_Linear_5,2,5,80,127,2828998904
7719,19,Jits_Linear_5,3,1,48,29,2829260648
7719,19,Jits_Linear_5,0,5,56,103,2829689288
7719,19,Jits_Linear_5,1,5,63,98,2829718888
7719,19,Jits_Linear_5,2,5,80,127,2829722472
7719,19,Jits_Linear_5,3,1,48,26,2829950076
7719,19,Jits_Linear_5,0,5,56,103,2830329380
7719,19,Jits_Linear_5,1,5,63,98,2830369324
7719,19,Jits_Linear_5,2,5,80,127,2830428392
7719,19,Jits_Linear_5,3,1,48,33,2830711640
7719,19,Jits_Linear_5,0,5,56,103,2831038816
7719,19,Jits_Linear_5,1,5,63,98,2831049236
7719,19,Jits_Linear_5,2,5,80,127,2831108356
7719,19,Jits_Linear_5,0,1,48,26,2831426220
7719,19,Jits_Linear_5,1,5,56,103,2831739340
7719,19,Jits_Linear_5,2,5,80,127,2831758680
7719,19,Jits_Linear_5,3,5,63,98,2831789404
7719,19,Jits_Linear_5,0,1,48,32,2832127504
7719,19,Jits_Linear_5,1,5,80,127,2832438604
7719,19,Jits_Linear_5,2,5,56,103,2832448872
7719,19,Jits_Linear_5,3,5,63,98,2832469656
7719,19,Jits_Linear_5,0,1,48,44,2832887024
7719,19,Jits_Linear_5,1,5,63,98,2833128836
7719,19,Jits_Linear_5,2,5,80,127,2833208712
7719,19,Jits_Linear_5,3,5,56,103,2833219204
7719,19,Jits_Linear_5,0,1,48,28,2833557176
7719,19,Jits_Linear_5,1,5,80,127,2833888756
7719,19,Jits_Linear_5,2,5,56,103,2833909520
7719,19,Jits_Linear_5,3,5,63,98,2833912432
7719,19,Jits_Linear_5,0,1,48,28,2834276860
7719,19,Jits_Linear_5,1,5,63,98,2834568648
7719,19,Jits_Linear_5,2,5,80,127,2834571940
7719,19,Jits_Linear_5,3,5,56,103,2834629112
7719,19,Jits_Linear_5,0,1,48,35,2835013728
7719,19,Jits_Linear_5,1,5,56,103,2835258776
7719,19,Jits_Linear_5,2,5,80,127,2835269420
7719,19,Jits_Linear_5,3,5,63,98,2835309084
7719,19,Jits_Linear_5,0,1,48,32,2835666864
7719,19,Jits_Linear_5,1,5,56,103,2835949012
7719,19,Jits_Linear_5,2,5,63,98,2836009256
7719,19,Jits_Linear_5,3,5,80,127,2836018480
7719,19,Jits_Linear_5,4,1,48,28,2836346320
7719,19,Jits_Linear_5,0,5,63,98,2836668688
7719,19,Jits_Linear_5,1,5,80,127,2836708628
7719,19,Jits_Linear_5,2,5,56,103,2836748716
7719,19,Jits_Linear_5,3,1,48,35,2837020652
7719,19,Jits_Linear_5,0,5,56,103,2837378404
7719,19,Jits_Linear_5,1,5,63,98,2837459248
7719,19,Jits_Linear_5,2,5,80,127,2837462536
7719,19,Jits_Linear_5,3,1,48,36,2837707520
7719,19,Jits_Linear_5,0,5,80,127,2838148444
7719,19,Jits_Linear_5,1,5,56,103,2838179312
7719,19,Jits_Linear_5,2,5,63,98,2838182232
7719,19,Jits_Linear_5,3,1,48,37,2838466700
7719,19,Jits_Linear_5,0,5,56,103,2838829300
7719,19,Jits_Linear_5,1,5,80,127,2838849156
7719,19,Jits_Linear_5,2,5,63,98,2838888752
7719,19,Jits_Linear_5,3,1,48,28,2839128480
7719,19,Jits_Linear_5,0,5,80,127,2839528764
7719,19,Jits_Linear_5,1,5,63,98,2839549224
7719,19,Jits_Linear_5,2,5,56,103,2839608644
7719,19,Jits_Linear_5,3,1,48,26,2839862380
7719,19,Jits_Linear_5,0,5,63,98,2840259168
7719,19,Jits_Linear_5,1,5,56,103,2840269216
7719,19,Jits_Linear_5,2,5,80,127,2840319344
7719,19,Jits_Linear_5,3,1,48,22,2840527916
7719,19,Jits_Linear_5,0,5,56,103,2840968588
7719,19,Jits_Linear_5,1,5,63,98,2840989124
7719,19,Jits_Linear_5,2,5,80,127,2840999244
7719,19,Jits_Linear_5,3,1,48,37,2841267372
7719,19,Jits_Linear_5,0,5,56,103,2841688504
7719,19,Jits_Linear_5,1,5,63,98,2841691424
7719,19,Jits_Linear_5,2,5,80,127,2841709036
7719,19,Jits_Linear_5,3,1,48,32,2841975204
7719,19,Jits_Linear_5,0,5,63,98,2842458536
7719,19,Jits_Linear_5,1,5,56,103,2842489184
7719,19,Jits_Linear_5,2,5,80,127,2842519008
7719,19,Jits_Linear_5,3,1,48,28,2842745992
7719,19,Jits_Linear_5,0,5,80,127,2843148672
7719,19,Jits_Linear_5,1,5,56,103,2843238756
7719,19,Jits_Linear_5,2,5,63,98,2843241972
7719,19,Jits_Linear_5,3,1,48,22,2843402044
7719,19,Jits_Linear_5,0,5,56,103,2843878844
7719,19,Jits_Linear_5,1,5,80,127,2843881768
7719,19,Jits_Linear_5,2,5,63,98,2843958720
7719,19,Jits_Linear_5,3,1,48,24,2844196264
7719,19,Jits_Linear_5,0,5,80,127,2844609168
7719,19,Jits_Linear_5,1,5,63,98,2844669264
7719,19,Jits_Linear_5,2,5,56,103,2844699092
7719,19,Jits_Linear_5,3,1,48,31,2844927436
7719,19,Jits_Linear_5,0,5,63,98,2845339040
7719,19,Jits_Linear_5,1,5,80,127,2845349236
7719,19,Jits_Linear_5,2,5,56,103,2845419064
7719,19,Jits_Linear_5,3,1,48,36,2845524984
7719,19,Jits_Linear_5,0,5,56,103,2846088536
7719,19,Jits_Linear_5,1,5,80,127,2846119260
7719,19,Jits_Linear_5,2,5,63,98,2846168416
7719,19,Jits_Linear_5,3,1,48,29,2846262928
7719,19,Jits_Linear_5,0,5,63,98,2846869068
7719,19,Jits_Linear_5,1,5,56,103,2846898596
7719,19,Jits_Linear_5,2,5,80,127,2846901588
7719,19,Jits_Linear_5,3,1,48,34,2847047280
7719,19,Jits_Linear_5,0,5,63,98,2847609196
7719,19,Jits_Linear_5,1,5,80,127,2847628536
7719,19,Jits_Linear_5,2,5,56,103,2847639028
7719,19,Jits_Linear_5,3,1,48,26,2847752572
7719,19,Jits_Linear_5,0,5,56,103,2848358996
7719,19,Jits_Linear_5,1,5,63,98,2848361988
7719,19,Jits_Linear_5,2,5,80,127,2848379156
7719,19,Jits_Linear_5,3,1,48,31,2848426616
7719,19,Jits_Linear_5,0,5,56,103,2849059176
7719,19,Jits_Linear_5,1,5,63,98,2849069372
7719,19,Jits_Linear_5,2,5,80,127,2849099048
7719,19,Jits_Linear_5,3,1,48,22,2849134700
7719,19,Jits_Linear_5,0,5,63,98,2849829216
7719,19,Jits_Linear_5,1,5,80,127,2849848704
7719,19,Jits_Linear_5,2,5,56,103,2849888596
7719,19,Jits_Linear_5,3,1,48,28,2849998692
7719,19,Jits_Linear_5,0,5,56,103,2850608464
7719,19,Jits_Linear_5,1,5,63,98,2850648348
7719,19,Jits_Linear_5,2,5,80,127,2850651720
7719,19,Jits_Linear_5,3,1,48,36,2850667960
7719,19,Jits_Linear_5,0,5,80,127,2851298636
7719,19,Jits_Linear_5,1,5,56,103,2851338500
7719,19,Jits_Linear_5,2,5,63,98,2851388928
7719,19,Jits_Linear_5,3,1,48,31,2851416432
7719,19,Jits_Linear_5,0,5,56,103,2852108836
7719,19,Jits_Linear_5,1,5,80,127,2852119108
7719,19,Jits_Linear_5,2,1,48,34,2852121632
7719,19,Jits_Linear_5,3,5,63,98,2852148552
7719,19,Jits_Linear_5,0,5,56,103,2852809052
7719,19,Jits_Linear_5,1,5,80,127,2852848920
7719,19,Jits_Linear_5,2,1,48,38,2852851440
7719,19,Jits_Linear_5,3,5,63,98,2852899116
7719,19,Jits_Linear_5,0,1,48,44,2853549016
7719,19,Jits_Linear_5,1,5,56,103,2853568824
7719,19,Jits_Linear_5,2,5,80,127,2853608988
7719,19,Jits_Linear_5,3,5,63,98,2853659028
7719,19,Jits_Linear_5,0,1,48,39,2854284048
7719,19,Jits_Linear_5,1,5,80,127,2854318396
7719,19,Jits_Linear_5,2,5,63,98,2854399304
7719,19,Jits_Linear_5,3,5,56,103,2854408456
7719,19,Jits_Linear_5,0,1,48,43,2855074232
7719,19,Jits_Linear_5,1,5,80,127,2855128364
7719,19,Jits_Linear_5,2,5,56,103,2855138856
7719,19,Jits_Linear_5,3,5,63,98,2855159168
7719,19,Jits_Linear_5,0,5,63,98,2855858612
7719,19,Jits_Linear_5,1,1,48,39,2855874840
7719,19,Jits_Linear_5,2,5,56,103,2855929188
7719,19,Jits_Linear_5,3,5,80,127,2855932180
7719,19,Jits_Linear_5,0,1,48,37,2856577056
7719,19,Jits_Linear_5,1,5,80,127,2856619252
7719,19,Jits_Linear_5,2,5,63,98,2856668560
7719,19,Jits_Linear_5,3,5,56,103,2856708560
7719,19,Jits_Linear_5,0,1,48,40,2857232100
7719,19,Jits_Linear_5,1,5,63,98,2857429344
7719,19,Jits_Linear_5,2,5,56,103,2857469288
7719,19,Jits_Linear_5,3,5,80,127,2857478660
7719,19,Jits_Linear_5,0,1,48,41,2857954620
7719,19,Jits_Linear_5,1,5,63,98,2858189256
7719,19,Jits_Linear_5,2,5,56,103,2858208816
7719,19,Jits_Linear_5,3,5,80,127,2858228980
7719,19,Jits_Linear_5,0,1,48,33,2858713852
7719,19,Jits_Linear_5,1,5,80,127,2858919268
7719,19,Jits_Linear_5,2,5,56,103,2858928492
7719,19,Jits_Linear_5,3,5,63,98,2858949028
7719,19,Jits_Linear_5,0,1,48,33,2859575432
7719,19,Jits_Linear_5,1,5,63,98,2859718960
7719,19,Jits_Linear_5,2,5,56,103,2859758976
7719,19,Jits_Linear_5,3,5,80,127,2859788724
7719,19,Jits_Linear_5,0,1,48,30,2860420796
7719,19,Jits_Linear_5,1,5,56,103,2860499196
7719,19,Jits_Linear_5,2,5,63,98,2860529008
7719,19,Jits_Linear_5,3,5,80,127,2860558980
7719,19,Jits_Linear_5,0,1,48,29,2861236688
7719,19,Jits_Linear_5,1,5,80,127,2861248996
7719,19,Jits_Linear_5,2,5,56,103,2861318752
7719,19,Jits_Linear_5,3,5,63,98,2861321744
7719,19,Jits_Linear_5,0,1,48,31,2861888820
7719,19,Jits_Linear_5,1,5,56,103,2862039376
7719,19,Jits_Linear_5,2,5,63,98,2862088536
7719,19,Jits_Linear_5,3,5,80,127,2862119256
7719,19,Jits_Linear_5,0,5,63,98,2862799308
7719,19,Jits_Linear_5,1,5,80,127,2862802744
7719,19,Jits_Linear_5,2,5,56,103,2862858728
7719,19,Jits_Linear_5,3,1,48,40,2862941132
7719,19,Jits_Linear_5,0,1,48,27,2863595808
7719,19,Jits_Linear_5,1,5,56,103,2863609328
7719,19,Jits_Linear_5,2,5,80,127,2863618404
7719,19,Jits_Linear_5,3,5,63,98,2863668684
7719,19,Jits_Linear_5,0,1,48,26,2864280132
7719,19,Jits_Linear_5,1,5,63,98,2864368872
7719,19,Jits_Linear_5,2,5,56,103,2864379128
7719,19,Jits_Linear_5,3,5,80,127,2864408876
7719,19,Jits_Linear_5,0,1,48,34,2864971156
7719,19,Jits_Linear_5,1,5,63,98,2865189224
7719,19,Jits_Linear_5,2,5,80,127,2865192660
7719,19,Jits_Linear_5,3,5,56,103,2865218900
7719,19,Jits_Linear_5,0,1,48,33,2865795584
7719,19,Jits_Linear_5,1,5,63,98,2865999252
7719,19,Jits_Linear_5,2,5,56,103,2866018912
7719,19,Jits_Linear_5,3,5,80,127,2866021904
7719,19,Jits_Linear_5,0,1,48,32,2866609144
7719,19,Jits_Linear_5,1,5,63,98,2866748744
7719,19,Jits_Linear_5,2,5,56,103,2866818304
7719,19,Jits_Linear_5,3,5,80,127,2866838840
7719,19,Jits_Linear_5,0,1,48,33,2867425840
7719,19,Jits_Linear_5,1,5,56,103,2867529036
7719,19,Jits_Linear_5,2,5,63,98,2867539852
7719,19,Jits_Linear_5,3,5,80,127,2867629392
7719,19,Jits_Linear_5,0,1,48,33,2868156696
7719,19,Jits_Linear_5,1,5,56,103,2868339024
7719,19,Jits_Linear_5,2,5,80,127,2868378888
7719,19,Jits_Linear_5,3,5,63,98,2868389084
7719,19,Jits_Linear_5,0,1,48,29,2868996556
7719,19,Jits_Linear_5,1,5,56,103,2869159172
7719,19,Jits_Linear_5,2,5,63,98,2869188848
7719,19,Jits_Linear_5,3,5,80,127,2869218672
7719,19,Jits_Linear_5,0,1,48,29,2869856592
7719,19,Jits_Linear_5,1,5,80,127,2869919096
7719,19,Jits_Linear_5,2,5,63,98,2869959024
7719,19,Jits_Linear_5,3,5,56,103,2869978436
7719,19,Jits_Linear_5,0,1,48,38,2870592480
7719,19,Jits_Linear_5,1,5,56,103,2870758784
7719,19,Jits_Linear_5,2,5,80,127,2870779392
7719,19,Jits_Linear_5,3,5,63,98,2870798656
7719,19,Jits_Linear_5,0,1,48,39,2871282484
7719,19,Jits_Linear_5,1,5,63,98,2871528808
7719,19,Jits_Linear_5,2,5,56,103,2871538928
7719,19,Jits_Linear_5,3,5,80,127,2871598572
7719,19,Jits_Linear_5,4,1,48,25,2871920656
7719,19,Jits_Linear_5,0,5,56,103,2872338912
7719,19,Jits_Linear_5,1,5,63,98,2872408620
7719,19,Jits_Linear_5,2,5,80,127,2872428856
7719,19,Jits_Linear_5,0,1,48,33,2872783820
7719,19,Jits_Linear_5,1,5,56,103,2873148732
7719,19,Jits_Linear_5,2,5,63,98,2873178432
7719,19,Jits_Linear_5,3,5,80,127,2873218668
7719,19,Jits_Linear_5,0,1,48,37,2873833468
7719,19,Jits_Linear_5,1,5,63,98,2873948528
7719,19,Jits_Linear_5,2,5,56,103,2873998732
7719,19,Jits_Linear_5,3,5,80,127,2874009000
7719,19,Jits_Linear_5,0,1,48,37,2874697764
7719,19,Jits_Linear_5,1,5,56,103,2874798716
7719,19,Jits_Linear_5,2,5,63,98,2874848776
7719,19,Jits_Linear_5,3,5,80,127,2874858824
7719,19,Jits_Linear_5,0,1,48,34,2875543256
7719,19,Jits_Linear_5,1,5,56,103,2875578728
7719,19,Jits_Linear_5,2,5,63,98,2875588848
7719,19,Jits_Linear_5,3,5,80,127,2875668780
7719,19,Jits_Linear_5,0,9999,9999,9999,2766826624
7719,19,Jits_Linear_5,1,9999,9999,9999,2767306864
7719,19,Jits_Linear_5,2,9999,9999,9999,2767787100
7719,19,Jits_Linear_5,3,9999,9999,9999,2768276596
7719,19,Jits_Linear_5,4,9999,9999,9999,2768756808
7719,19,Jits_Linear_5,5,9999,9999,9999,2769246312
7719,19,Jits_Linear_5,6,9999,9999,9999,2769736760
7719,19,Jits_Linear_5,7,9999,9999,9999,2770226272
7719,19,Jits_Linear_5,8,9999,9999,9999,2770716744
7719,19,Jits_Linear_5,9,9999,9999,9999,2771206248
7719,19,Jits_Linear_5,10,9999,9999,9999,2771706976
7719,19,Jits_Linear_5,11,9999,9999,9999,2772206668
7719,19,Jits_Linear_5,12,9999,9999,9999,2772706424
7719,19,Jits_Linear_5,13,9999,9999,9999,2773206108
7719,19,Jits_Linear_5,14,9999,9999,9999,2773706844
7719,19,Jits_Linear_5,15,9999,9999,9999,2774216796
7719,19,Jits_Linear_5,16,9999,9999,9999,2774726752
7719,19,Jits_Linear_5,17,9999,9999,9999,2775236704
7719,19,Jits_Linear_5,18,9999,9999,9999,2775746656
7719,19,Jits_Linear_5,19,9999,9999,9999,2776256608
7719,19,Jits_Linear_5,20,9999,9999,9999,2776776828
7719,19,Jits_Linear_5,21,9999,9999,9999,2777296968
7719,19,Jits_Linear_5,22,9999,9999,9999,2777816136
7719,19,Jits_Linear_5,23,9999,9999,9999,2778336356
7719,19,Jits_Linear_5,24,9999,9999,9999,2778856568
7719,19,Jits_Linear_5,25,9999,9999,9999,2779386968
7719,19,Jits_Linear_5,26,9999,9999,9999,2779916404
7719,19,Jits_Linear_5,27,9999,9999,9999,2780446788
7719,19,Jits_Linear_5,28,9999,9999,9999,2780976224
7719,19,Jits_Linear_5,29,9999,9999,9999,2781506628
7719,19,Jits_Linear_5,30,9999,9999,9999,2782046272
7719,19,Jits_Linear_5,31,9999,9999,9999,2782586940
7719,19,Jits_Linear_5,32,9999,9999,9999,2783126632
7719,19,Jits_Linear_5,33,9999,9999,9999,2783666256
7719,19,Jits_Linear_5,34,9999,9999,9999,2784206924
7719,19,Jits_Linear_5,35,9999,9999,9999,2784756812
7719,19,Jits_Linear_5,36,9999,9999,9999,2785306684
7719,19,Jits_Linear_5,37,9999,9999,9999,2785856572
7719,19,Jits_Linear_5,38,9999,9999,9999,2786406484
7719,19,Jits_Linear_5,39,9999,9999,9999,2786956372
7719,19,Jits_Linear_5,40,9999,9999,9999,2787516520
7719,19,Jits_Linear_5,41,9999,9999,9999,2788076664
7719,19,Jits_Linear_5,42,9999,9999,9999,2788636736
7719,19,Jits_Linear_5,43,9999,9999,9999,2789196880
7719,19,Jits_Linear_5,44,9999,9999,9999,2789757044
7719,19,Jits_Linear_5,45,9999,9999,9999,2790326336
7719,19,Jits_Linear_5,46,9999,9999,9999,2790896744
7719,19,Jits_Linear_5,47,9999,9999,9999,2791467088
7719,19,Jits_Linear_5,48,9999,9999,9999,2792046668
7719,19,Jits_Linear_5,49,9999,9999,9999,2792617084
7719,19,Jits_Linear_5,50,9999,9999,9999,2793196628
7719,19,Jits_Linear_5,51,9999,9999,9999,2793776184
7719,19,Jits_Linear_5,52,9999,9999,9999,2794356812
7719,19,Jits_Linear_5,53,9999,9999,9999,2794936440
7719,19,Jits_Linear_5,54,9999,9999,9999,2795517040
7719,19,Jits_Linear_5,55,9999,9999,9999,2796106864
7719,19,Jits_Linear_5,56,9999,9999,9999,2796696704
7719,19,Jits_Linear_5,57,9999,9999,9999,2797286516
7719,19,Jits_Linear_5,58,9999,9999,9999,2797876332
7719,19,Jits_Linear_5,59,9999,9999,9999,2798466164
7719,19,Jits_Linear_5,60,9999,9999,9999,2799066180
7719,19,Jits_Linear_5,61,9999,9999,9999,2799666256
7719,19,Jits_Linear_5,62,9999,9999,9999,2800266364
7719,19,Jits_Linear_5,63,9999,9999,9999,2800866372
7719,19,Jits_Linear_5,64,9999,9999,9999,2801466452
7719,19,Jits_Linear_5,65,9999,9999,9999,2802076744
7719,19,Jits_Linear_5,66,9999,9999,9999,2802687092
7719,19,Jits_Linear_5,67,9999,9999,9999,2803296328
7719,19,Jits_Linear_5,68,9999,9999,9999,2803906676
7719,19,Jits_Linear_5,69,9999,9999,9999,2804516948
7719,19,Jits_Linear_5,70,9999,9999,9999,2805136448
7719,19,Jits_Linear_5,71,9999,9999,9999,2805757040
7719,19,Jits_Linear_5,72,9999,9999,9999,2806376572
7719,19,Jits_Linear_5,73,9999,9999,9999,2806997116
7719,19,Jits_Linear_5,74,9999,9999,9999,2807616600
7719,19,Jits_Linear_5,75,9999,9999,9999,2808246380
7719,19,Jits_Linear_5,76,9999,9999,9999,2808876136
7719,19,Jits_Linear_5,77,9999,9999,9999,2809506884
7719,19,Jits_Linear_5,78,9999,9999,9999,2810136640
7719,19,Jits_Linear_5,79,9999,9999,9999,2810766416
7719,19,Jits_Linear_5,80,9999,9999,9999,2811406428
7719,19,Jits_Linear_5,81,9999,9999,9999,2812046448
7719,19,Jits_Linear_5,82,9999,9999,9999,2812686400
7719,19,Jits_Linear_5,83,9999,9999,9999,2813326396
7719,19,Jits_Linear_5,84,9999,9999,9999,2813966412
7719,19,Jits_Linear_5,85,9999,9999,9999,2814616640
7719,19,Jits_Linear_5,86,9999,9999,9999,2815266916
7719,19,Jits_Linear_5,87,9999,9999,9999,2815916116
7719,19,Jits_Linear_5,88,9999,9999,9999,2816566332
7719,19,Jits_Linear_5,89,9999,9999,9999,2817216572
7719,19,Jits_Linear_5,90,9999,9999,9999,2817877112
7719,19,Jits_Linear_5,91,9999,9999,9999,2818536552
7719,19,Jits_Linear_5,92,9999,9999,9999,2819197036
7719,19,Jits_Linear_5,93,9999,9999,9999,2819856456
7719,19,Jits_Linear_5,94,9999,9999,9999,2820516940
7719,19,Jits_Linear_5,95,9999,9999,9999,2821186624
7719,19,Jits_Linear_5,96,9999,9999,9999,2821856336
7719,19,Jits_Linear_5,97,9999,9999,9999,2822527084
7719,19,Jits_Linear_5,98,9999,9999,9999,2823196768
7719,19,Jits_Linear_5,99,9999,9999,9999,2823866452
7719,19,Jits_Linear_5,100,9999,9999,9999,2824546400
7719,19,Jits_Linear_5,101,9999,9999,9999,2825226364
7719,19,Jits_Linear_5,102,9999,9999,9999,2825906280
7719,19,Jits_Linear_5,103,9999,9999,9999,2826586200
7719,19,Jits_Linear_5,104,9999,9999,9999,2827266152
7719,19,Jits_Linear_5,105,9999,9999,9999,2827956312
7719,19,Jits_Linear_5,106,9999,9999,9999,2828646468
7719,19,Jits_Linear_5,107,9999,9999,9999,2829336680
7719,19,Jits_Linear_5,108,9999,9999,9999,2830026848
7719,19,Jits_Linear_5,109,9999,9999,9999,2830717024
7719,19,Jits_Linear_5,110,9999,9999,9999,2831416400
7719,19,Jits_Linear_5,111,9999,9999,9999,2832116852
7719,19,Jits_Linear_5,112,9999,9999,9999,2832816208
7719,19,Jits_Linear_5,113,9999,9999,9999,2833516640
7719,19,Jits_Linear_5,114,9999,9999,9999,2834217032
7719,19,Jits_Linear_5,115,9999,9999,9999,2834926668
7719,19,Jits_Linear_5,116,9999,9999,9999,2835636308
7719,19,Jits_Linear_5,117,9999,9999,9999,2836346992
7719,19,Jits_Linear_5,118,9999,9999,9999,2837056600
7719,19,Jits_Linear_5,119,9999,9999,9999,2837766236
7719,19,Jits_Linear_5,120,9999,9999,9999,2838486080
7719,19,Jits_Linear_5,121,9999,9999,9999,2839206972
7719,19,Jits_Linear_5,122,9999,9999,9999,2839926892
7719,19,Jits_Linear_5,123,9999,9999,9999,2840646768
7719,19,Jits_Linear_5,124,9999,9999,9999,2841366600
7719,19,Jits_Linear_5,125,9999,9999,9999,2842096768
7719,19,Jits_Linear_5,126,9999,9999,9999,2842826820
7719,19,Jits_Linear_5,127,9999,9999,9999,2843556964
7719,19,Jits_Linear_5,128,9999,9999,9999,2844287080
7719,19,Jits_Linear_5,129,9999,9999,9999,2845016144
7719,19,Jits_Linear_5,130,9999,9999,9999,2845756532
7719,19,Jits_Linear_5,131,9999,9999,9999,2846496888
7719,19,Jits_Linear_5,132,9999,9999,9999,2847236208
7719,19,Jits_Linear_5,133,9999,9999,9999,2847976568
7719,19,Jits_Linear_5,134,9999,9999,9999,2848716916
7719,19,Jits_Linear_5,135,9999,9999,9999,2849466428
7719,19,Jits_Linear_5,136,9999,9999,9999,2850217064
7719,19,Jits_Linear_5,137,9999,9999,9999,2850966636
7719,19,Jits_Linear_5,138,9999,9999,9999,2851716152
7719,19,Jits_Linear_5,139,9999,9999,9999,2852466792
7719,19,Jits_Linear_5,140,9999,9999,9999,2853226572
7719,19,Jits_Linear_5,141,9999,9999,9999,2853986424
7719,19,Jits_Linear_5,142,9999,9999,9999,2854746188
7719,19,Jits_Linear_5,143,9999,9999,9999,2855507048
7719,19,Jits_Linear_5,144,9999,9999,9999,2856266880
7719,19,Jits_Linear_5,145,9999,9999,9999,2857036904
7719,19,Jits_Linear_5,146,9999,9999,9999,2857806928
7719,19,Jits_Linear_5,147,9999,9999,9999,2858577024
7719,19,Jits_Linear_5,148,9999,9999,9999,2859347040
7719,19,Jits_Linear_5,149,9999,9999,9999,2860117096
7719,19,Jits_Linear_5,150,9999,9999,9999,2860896344
7719,19,Jits_Linear_5,151,9999,9999,9999,2861676624
7719,19,Jits_Linear_5,152,9999,9999,9999,2862456916
7719,19,Jits_Linear_5,153,9999,9999,9999,2863236224
7719,19,Jits_Linear_5,154,9999,9999,9999,2864016440
7719,19,Jits_Linear_5,155,9999,9999,9999,2864806992
7719,19,Jits_Linear_5,156,9999,9999,9999,2865596488
7719,19,Jits_Linear_5,157,9999,9999,9999,2866387040
7719,19,Jits_Linear_5,158,9999,9999,9999,2867176548
7719,19,Jits_Linear_5,159,9999,9999,9999,2867967100
7719,19,Jits_Linear_5,160,9999,9999,9999,2868766796
7719,19,Jits_Linear_5,161,9999,9999,9999,2869566572
7719,19,Jits_Linear_5,162,9999,9999,9999,2870366288
7719,19,Jits_Linear_5,163,9999,9999,9999,2871167104
7719,19,Jits_Linear_5,164,9999,9999,9999,2871966788
7719,19,Jits_Linear_5,165,9999,9999,9999,2872776828
7719,19,Jits_Linear_5,166,9999,9999,9999,2873586796
7719,19,Jits_Linear_5,167,9999,9999,9999,2874396756
7719,19,Jits_Linear_5,168,9999,9999,9999,2875206720
7719,19,Jits_Linear_5,169,9999,9999,9999,2876016700
7720,3,ISIP_8,0,5,42,127,2951971112
7720,3,ISIP_8,1,5,42,127,2952770864
7720,3,ISIP_8,2,1,48,44,2953508124
7720,3,ISIP_8,3,5,42,127,2953570564
7720,3,ISIP_8,4,1,48,40,2954319324
7720,3,ISIP_8,5,5,42,127,2954370372
7720,3,ISIP_8,6,1,48,33,2955094080
7720,3,ISIP_8,7,5,42,127,2955171080
7720,3,ISIP_8,8,1,48,28,2955836720
7720,3,ISIP_8,9,5,42,127,2955971024
7720,3,ISIP_8,10,1,48,34,2956690480
7720,3,ISIP_8,11,5,42,127,2956770620
7720,3,ISIP_8,12,1,48,31,2957470616
7720,3,ISIP_8,13,5,42,127,2957570416
7720,3,ISIP_8,14,1,48,30,2958248508
7720,3,ISIP_8,15,5,42,127,2958371196
7720,3,ISIP_8,16,1,48,31,2959036196
7720,3,ISIP_8,17,5,42,127,2959171004
7720,3,ISIP_8,18,1,48,30,2959795396
7720,3,ISIP_8,19,5,42,127,2959970616
7720,3,ISIP_8,20,1,48,30,2960677332
7720,3,ISIP_8,21,5,42,127,2960770512
7720,3,ISIP_8,22,1,48,29,2961455296
7720,3,ISIP_8,23,5,42,127,2961571200
7720,3,ISIP_8,24,1,48,30,2962285268
7720,3,ISIP_8,25,5,42,127,2962370876
7720,3,ISIP_8,26,1,48,26,2963038928
7720,3,ISIP_8,27,5,42,127,2963170816
7720,3,ISIP_8,28,1,48,27,2963875912
7720,3,ISIP_8,29,5,42,127,2963970268
7720,3,ISIP_8,30,1,48,29,2964667264
7720,3,ISIP_8,31,5,42,127,2964771108
7720,3,ISIP_8,32,1,48,32,2965420108
7720,3,ISIP_8,33,5,42,127,2965571064
7720,3,ISIP_8,34,1,48,19,2966255212
7720,3,ISIP_8,35,5,42,127,2966370524
7720,3,ISIP_8,36,1,48,34,2967059212
7720,3,ISIP_8,37,5,42,127,2967170404
7720,3,ISIP_8,38,1,48,30,2967878540
7720,3,ISIP_8,39,5,42,127,2967971128
7720,3,ISIP_8,40,1,48,33,2968727364
7720,3,ISIP_8,41,5,42,127,2968771008
7720,3,ISIP_8,42,1,48,30,2969485588
7720,3,ISIP_8,43,5,42,127,2969570892
7720,3,ISIP_8,44,1,48,32,2970304844
7720,3,ISIP_8,45,5,42,127,2970370552
7720,3,ISIP_8,46,1,48,34,2971077952
7720,3,ISIP_8,47,5,42,127,2971171096
7720,3,ISIP_8,48,1,48,29,2971886360
7720,3,ISIP_8,49,5,42,127,2971971140
7720,3,ISIP_8,50,1,48,28,2972707708
7720,3,ISIP_8,51,5,42,127,2972770824
7720,3,ISIP_8,52,1,48,27,2973483656
7720,3,ISIP_8,53,5,42,127,2973570332
7720,3,ISIP_8,54,1,48,28,2974326424
7720,3,ISIP_8,55,5,42,127,2974371264
7720,3,ISIP_8,56,5,42,127,2975170928
7720,3,ISIP_8,57,1,48,24,2975206056
7720,3,ISIP_8,58,1,48,24,2975890212
7720,3,ISIP_8,59,1,48,25,2976710812
7720,3,ISIP_8,60,1,48,22,2977503880
7720,3,ISIP_8,61,1,48,26,2978292168
7720,3,ISIP_8,62,1,48,29,2979039240
7720,3,ISIP_8,63,1,48,25,2979803440
7720,3,ISIP_8,64,1,48,28,2980560160
7720,3,ISIP_8,65,1,48,28,2981326452
7720,3,ISIP_8,66,1,48,29,2982065448
7720,3,ISIP_8,67,1,48,27,2982887472
7720,3,ISIP_8,68,1,48,27,2983600880
7720,3,ISIP_8,69,1,48,27,2984364260
7720,3,ISIP_8,70,1,48,27,2985180296
7720,3,ISIP_8,71,1,48,28,2985980768
7720,3,ISIP_8,72,1,48,30,2986743852
7720,3,ISIP_8,73,1,48,29,2987505956
7720,3,ISIP_8,74,1,48,29,2988256316
7720,3,ISIP_8,75,1,48,29,2989048340
7720,3,ISIP_8,76,1,48,30,2989799824
7720,3,ISIP_8,77,1,48,25,2990563504
7720,3,ISIP_8,78,1,48,29,2991313340
7720,3,ISIP_8,79,1,48,32,2992099156
7720,3,ISIP_8,80,1,48,28,2992810328
7720,3,ISIP_8,81,1,48,29,2993575572
7720,3,ISIP_8,82,1,48,31,2994376728
7720,3,ISIP_8,83,1,48,31,2995139416
7720,3,ISIP_8,84,1,48,29,2995914088
7720,3,ISIP_8,85,1,48,34,2996710528
7720,3,ISIP_8,86,1,48,32,2997482956
7720,3,ISIP_8,87,1,48,32,2998261068
7720,3,ISIP_8,88,1,48,34,2999017568
7720,3,ISIP_8,89,1,48,30,2999732696
7720,3,ISIP_8,90,1,48,31,3000570348
7720,3,ISIP_8,91,1,48,34,3001360580
7720,3,ISIP_8,92,1,48,27,3002120664
7720,3,ISIP_8,93,1,48,33,3002857788
7720,3,ISIP_8,94,1,48,34,3003623560
7720,3,ISIP_8,95,1,48,35,3004400396
7720,3,ISIP_8,96,1,48,30,3005173852
7720,3,ISIP_8,97,1,48,32,3005917852
7720,3,ISIP_8,98,1,48,38,3006669560
7720,3,ISIP_8,99,1,48,38,3007473708
7720,3,ISIP_8,100,1,48,37,3008191376
7720,3,ISIP_8,101,1,48,37,3008908156
7720,3,ISIP_8,102,1,48,34,3009703548
7720,3,ISIP_8,103,1,48,35,3010453616
7720,3,ISIP_8,104,1,48,35,3011234048
7720,3,ISIP_8,105,1,48,33,3012074240
7720,3,ISIP_8,106,1,48,32,3012859608
7720,3,ISIP_8,107,1,48,37,3013590300
7720,3,ISIP_8,108,1,48,35,3014341848
7720,3,ISIP_8,109,1,48,37,3015073432
7720,3,ISIP_8,110,1,48,35,3015812872
7720,3,ISIP_8,111,1,48,36,3016659352
7720,3,ISIP_8,112,1,48,32,3017390272
7720,3,ISIP_8,113,1,48,36,3018217448
7720,3,ISIP_8,114,1,48,31,3019035056
7720,3,ISIP_8,115,1,48,35,3019833212
7720,3,ISIP_8,116,1,48,35,3020659668
7720,3,ISIP_8,117,1,48,32,3021434568
7720,3,ISIP_8,118,1,48,28,3022183588
7720,3,ISIP_8,119,1,48,37,3023006800
7720,3,ISIP_8,120,1,48,33,3023797556
7720,3,ISIP_8,121,1,48,36,3024515084
7720,3,ISIP_8,122,1,48,26,3025252128
7720,3,ISIP_8,123,1,48,35,3025999204
7720,3,ISIP_8,124,1,48,30,3026763472
7720,3,ISIP_8,125,1,48,29,3027455024
7720,3,ISIP_8,126,1,48,27,3028171056
7720,3,ISIP_8,127,1,48,33,3028852904
7720,3,ISIP_8,128,1,48,30,3029589428
7720,3,ISIP_8,129,1,48,38,3030379356
7720,3,ISIP_8,130,1,48,34,3031159700
7720,3,ISIP_8,131,1,48,34,3031893312
7720,3,ISIP_8,132,1,48,27,3032759980
7720,3,ISIP_8,133,1,48,36,3033501820
7720,3,ISIP_8,134,1,48,33,3034329968
7720,3,ISIP_8,135,1,48,35,3035106208
7720,3,ISIP_8,136,1,48,32,3035872808
7720,3,ISIP_8,137,1,48,38,3036644932
7720,3,ISIP_8,138,1,48,33,3037483336
7720,3,ISIP_8,139,1,48,33,3038261376
7720,3,ISIP_8,140,1,48,26,3039000892
7720,3,ISIP_8,141,1,48,42,3039798220
7720,3,ISIP_8,142,1,48,27,3040585532
7720,3,ISIP_8,143,1,48,35,3041342104
7720,3,ISIP_8,144,1,48,39,3042179856
7720,3,ISIP_8,145,1,48,35,3043001652
7720,3,ISIP_8,146,1,48,36,3043808860
7720,3,ISIP_8,147,1,48,34,3044627516
7720,3,ISIP_8,148,1,48,31,3045377280
7720,3,ISIP_8,149,1,48,31,3046150000
7720,3,ISIP_8,150,1,48,25,3047044376
7720,3,ISIP_8,151,1,48,35,3048007704
7720,3,ISIP_8,152,1,48,35,3048830716
7720,3,ISIP_8,153,1,48,42,3049601056
7720,3,ISIP_8,154,1,48,29,3050453660
7720,3,ISIP_8,155,1,48,32,3051242772
7720,3,ISIP_8,156,1,48,34,3051969648
7720,3,ISIP_8,157,1,48,32,3052745644
7720,3,ISIP_8,158,1,48,28,3053540520
7720,3,ISIP_8,159,1,48,29,3054349972
7720,3,ISIP_8,160,1,48,34,3055133172
7720,3,ISIP_8,161,1,48,31,3055959108
7720,3,ISIP_8,162,1,48,25,3056730412
7720,3,ISIP_8,163,1,48,34,3057537396
7720,3,ISIP_8,164,1,48,34,3058322236
7720,3,ISIP_8,165,1,48,35,3059128172
7720,3,ISIP_8,166,1,48,31,3059957152
7720,3,ISIP_8,167,1,48,33,3060762716
7720,3,ISIP_8,168,1,48,34,3061572704
7720,3,ISIP_8,169,1,48,30,3062426456
7720,3,ISIP_8,170,1,48,31,3063235240
7720,3,ISIP_8,171,1,48,36,3064138512
7720,3,ISIP_8,172,1,48,32,3064944524
7720,3,ISIP_8,173,1,48,30,3065671228
7720,3,ISIP_8,174,1,48,27,3066458644
7720,3,ISIP_8,175,1,48,25,3067269888
7720,3,ISIP_8,176,1,48,30,3068108140
7720,3,ISIP_8,177,1,48,33,3068863140
7720,3,ISIP_8,178,1,48,32,3069658384
7720,3,ISIP_8,179,1,48,30,3070472996
7720,3,ISIP_8,180,1,48,32,3071258212
7720,3,ISIP_8,0,9999,9999,9999,2951968820
7720,3,ISIP_8,1,9999,9999,9999,2952768576
7720,3,ISIP_8,2,9999,9999,9999,2953568352
7720,3,ISIP_8,3,9999,9999,9999,2954368084
7720,3,ISIP_8,4,9999,9999,9999,2955168864
7720,3,ISIP_8,5,9999,9999,9999,2955968584
7720,3,ISIP_8,6,9999,9999,9999,2956768332
7720,3,ISIP_8,7,9999,9999,9999,2957568088
7720,3,ISIP_8,8,9999,9999,9999,2958368832
7720,3,ISIP_8,9,9999,9999,9999,2959168564
7720,3,ISIP_8,10,9999,9999,9999,2959968324
7720,3,ISIP_8,11,9999,9999,9999,2960768072
7720,3,ISIP_8,12,9999,9999,9999,2961568836
7720,3,ISIP_8,13,9999,9999,9999,2962368588
7720,3,ISIP_8,14,9999,9999,9999,2963168304
7720,3,ISIP_8,15,9999,9999,9999,2963968052
7720,3,ISIP_8,16,9999,9999,9999,2964768816
7720,3,ISIP_8,17,9999,9999,9999,2965568624
7720,3,ISIP_8,18,9999,9999,9999,2966368308
7720,3,ISIP_8,19,9999,9999,9999,2967168116
7720,3,ISIP_8,20,9999,9999,9999,2967968836
7720,3,ISIP_8,21,9999,9999,9999,2968768568
7720,3,ISIP_8,22,9999,9999,9999,2969568304
7720,3,ISIP_8,23,9999,9999,9999,2970368112
7720,3,ISIP_8,24,9999,9999,9999,2971168880
7720,3,ISIP_8,25,9999,9999,9999,2971968628
7720,3,ISIP_8,26,9999,9999,9999,2972768312
7720,3,ISIP_8,27,9999,9999,9999,2973568120
7720,3,ISIP_8,28,9999,9999,9999,2974368824
7720,3,ISIP_8,29,9999,9999,9999,2975168564
7720,3,ISIP_8,30,9999,9999,9999,2975968364
7720,3,ISIP_8,31,9999,9999,9999,2976768096
7720,3,ISIP_8,32,9999,9999,9999,2977568872
7720,3,ISIP_8,33,9999,9999,9999,2978368600
7720,3,ISIP_8,34,9999,9999,9999,2979168340
7720,3,ISIP_8,35,9999,9999,9999,2979968068
7720,3,ISIP_8,36,9999,9999,9999,2980768844
7720,3,ISIP_8,37,9999,9999,9999,2981568576
7720,3,ISIP_8,38,9999,9999,9999,2982368304
7720,3,ISIP_8,39,9999,9999,9999,2983168108
7720,3,ISIP_8,40,9999,9999,9999,2983968884
7720,3,ISIP_8,41,9999,9999,9999,2984768612
7720,3,ISIP_8,42,9999,9999,9999,2985568368
7720,3,ISIP_8,43,9999,9999,9999,2986368096
7720,3,ISIP_8,44,9999,9999,9999,2987168872
7720,3,ISIP_8,45,9999,9999,9999,2987968600
7720,3,ISIP_8,46,9999,9999,9999,2988768332
7720,3,ISIP_8,47,9999,9999,9999,2989568060
7720,3,ISIP_8,48,9999,9999,9999,2990368836
7720,3,ISIP_8,49,9999,9999,9999,2991168564
7720,3,ISIP_8,50,9999,9999,9999,2991968320
7720,3,ISIP_8,51,9999,9999,9999,2992768048
7720,3,ISIP_8,52,9999,9999,9999,2993568824
7720,3,ISIP_8,53,9999,9999,9999,2994368628
7720,3,ISIP_8,54,9999,9999,9999,2995168352
7720,3,ISIP_8,55,9999,9999,9999,2995968084
7720,3,ISIP_8,56,9999,9999,9999,2996768856
7720,3,ISIP_8,57,9999,9999,9999,2997568588
7720,3,ISIP_8,58,9999,9999,9999,2998368324
7720,3,ISIP_8,59,9999,9999,9999,2999168056
7720,3,ISIP_8,60,9999,9999,9999,2999968832
7720,3,ISIP_8,61,9999,9999,9999,3000768560
7720,3,ISIP_8,62,9999,9999,9999,3001568364
7720,3,ISIP_8,63,9999,9999,9999,3002368096
7720,3,ISIP_8,64,9999,9999,9999,3003168868
7720,3,ISIP_8,65,9999,9999,9999,3003968600
7720,3,ISIP_8,66,9999,9999,9999,3004768328
7720,3,ISIP_8,67,9999,9999,9999,3005568056
7720,3,ISIP_8,68,9999,9999,9999,3006368832
7720,3,ISIP_8,69,9999,9999,9999,3007168560
7720,3,ISIP_8,70,9999,9999,9999,3007968364
7720,3,ISIP_8,71,9999,9999,9999,3008768096
7720,3,ISIP_8,72,9999,9999,9999,3009568872
7720,3,ISIP_8,73,9999,9999,9999,3010368600
7720,3,ISIP_8,74,9999,9999,9999,3011168356
7720,3,ISIP_8,75,9999,9999,9999,3011968084
7720,3,ISIP_8,76,9999,9999,9999,3012768860
7720,3,ISIP_8,77,9999,9999,9999,3013568588
7720,3,ISIP_8,78,9999,9999,9999,3014368312
7720,3,ISIP_8,79,9999,9999,9999,3015168100
7720,3,ISIP_8,80,9999,9999,9999,3015968876
7720,3,ISIP_8,81,9999,9999,9999,3016768608
7720,3,ISIP_8,82,9999,9999,9999,3017568364
7720,3,ISIP_8,83,9999,9999,9999,3018368092
7720,3,ISIP_8,84,9999,9999,9999,3019168868
7720,3,ISIP_8,85,9999,9999,9999,3019968596
7720,3,ISIP_8,86,9999,9999,9999,3020768328
7720,3,ISIP_8,87,9999,9999,9999,3021568056
7720,3,ISIP_8,88,9999,9999,9999,3022368832
7720,3,ISIP_8,89,9999,9999,9999,3023168560
7720,3,ISIP_8,90,9999,9999,9999,3023968316
7720,3,ISIP_8,91,9999,9999,9999,3024768048
7720,3,ISIP_8,92,9999,9999,9999,3025568824
7720,3,ISIP_8,93,9999,9999,9999,3026368628
7720,3,ISIP_8,94,9999,9999,9999,3027168356
7720,3,ISIP_8,95,9999,9999,9999,3027968084
7720,3,ISIP_8,96,9999,9999,9999,3028768860
7720,3,ISIP_8,97,9999,9999,9999,3029568592
7720,3,ISIP_8,98,9999,9999,9999,3030368344
7720,3,ISIP_8,99,9999,9999,9999,3031168068
7720,3,ISIP_8,100,9999,9999,9999,3031968844
7720,3,ISIP_8,101,9999,9999,9999,3032768572
7720,3,ISIP_8,102,9999,9999,9999,3033568304
7720,3,ISIP_8,103,9999,9999,9999,3034368108
7720,3,ISIP_8,104,9999,9999,9999,3035168880
7720,3,ISIP_8,105,9999,9999,9999,3035968612
7720,3,ISIP_8,106,9999,9999,9999,3036768348
7720,3,ISIP_8,107,9999,9999,9999,3037568096
7720,3,ISIP_8,108,9999,9999,9999,3038368856
7720,3,ISIP_8,109,9999,9999,9999,3039168584
7720,3,ISIP_8,110,9999,9999,9999,3039968312
7720,3,ISIP_8,111,9999,9999,9999,3040768116
7720,3,ISIP_8,112,9999,9999,9999,3041568816
7720,3,ISIP_8,113,9999,9999,9999,3042368620
7720,3,ISIP_8,114,9999,9999,9999,3043168376
7720,3,ISIP_8,115,9999,9999,9999,3043968104
7720,3,ISIP_8,116,9999,9999,9999,3044768880
7720,3,ISIP_8,117,9999,9999,9999,3045568608
7720,3,ISIP_8,118,9999,9999,9999,3046368340
7720,3,ISIP_8,119,9999,9999,9999,3047168068
7720,3,ISIP_8,120,9999,9999,9999,3047968864
7720,3,ISIP_8,121,9999,9999,9999,3048768592
7720,3,ISIP_8,122,9999,9999,9999,3049568348
7720,3,ISIP_8,123,9999,9999,9999,3050368076
7720,3,ISIP_8,124,9999,9999,9999,3051168852
7720,3,ISIP_8,125,9999,9999,9999,3051968580
7720,3,ISIP_8,126,9999,9999,9999,3052768304
7720,3,ISIP_8,127,9999,9999,9999,3053568108
7720,3,ISIP_8,128,9999,9999,9999,3054368884
7720,3,ISIP_8,129,9999,9999,9999,3055168612
7720,3,ISIP_8,130,9999,9999,9999,3055968368
7720,3,ISIP_8,131,9999,9999,9999,3056768096
7720,3,ISIP_8,132,9999,9999,9999,3057568872
7720,3,ISIP_8,133,9999,9999,9999,3058368604
7720,3,ISIP_8,134,9999,9999,9999,3059168332
7720,3,ISIP_8,135,9999,9999,9999,3059968060
7720,3,ISIP_8,136,9999,9999,9999,3060768836
7720,3,ISIP_8,137,9999,9999,9999,3061568572
7720,3,ISIP_8,138,9999,9999,9999,3062368328
7720,3,ISIP_8,139,9999,9999,9999,3063168056
7720,3,ISIP_8,140,9999,9999,9999,3063968832
7720,3,ISIP_8,141,9999,9999,9999,3064768560
7720,3,ISIP_8,142,9999,9999,9999,3065568364
7720,3,ISIP_8,143,9999,9999,9999,3066368096
7720,3,ISIP_8,144,9999,9999,9999,3067168872
7720,3,ISIP_8,145,9999,9999,9999,3067968600
7720,3,ISIP_8,146,9999,9999,9999,3068768356
7720,3,ISIP_8,147,9999,9999,9999,3069568084
7720,3,ISIP_8,148,9999,9999,9999,3070368860
7720,3,ISIP_8,149,9999,9999,9999,3071168588
7721,5,ISIP_5,0,5,42,127,3097317904
7721,5,ISIP_5,1,5,42,127,3097817768
7721,5,ISIP_5,2,1,48,38,3098311916
7721,5,ISIP_5,3,5,42,127,3098318304
7721,5,ISIP_5,4,1,48,44,3098793728
7721,5,ISIP_5,5,5,42,127,3098817852
7721,5,ISIP_5,6,1,48,40,3099272708
7721,5,ISIP_5,7,5,42,127,3099317768
7721,5,ISIP_5,8,1,48,49,3099774868
7721,5,ISIP_5,9,5,42,127,3099818288
7721,5,ISIP_5,10,1,48,43,3100234776
7721,5,ISIP_5,11,5,42,127,3100317984
7721,5,ISIP_5,12,1,48,45,3100756084
7721,5,ISIP_5,13,5,42,127,3100817976
7721,5,ISIP_5,14,1,48,46,3101286444
7721,5,ISIP_5,15,5,42,127,3101317668
7721,5,ISIP_5,16,1,48,41,3101764496
7721,5,ISIP_5,17,5,42,127,3101818112
7721,5,ISIP_5,18,1,48,42,3102254616
7721,5,ISIP_5,19,5,42,127,3102317880
7721,5,ISIP_5,20,1,48,42,3102766432
7721,5,ISIP_5,21,5,42,127,3102817800
7721,5,ISIP_5,22,1,48,46,3103231568
7721,5,ISIP_5,23,5,42,127,3103318540
7721,5,ISIP_5,24,1,48,42,3103744280
7721,5,ISIP_5,25,5,42,127,3103818012
7721,5,ISIP_5,26,1,48,46,3104238740
7721,5,ISIP_5,27,5,42,127,3104317756
7721,5,ISIP_5,28,1,48,42,3104759224
7721,5,ISIP_5,29,5,42,127,3104817900
7721,5,ISIP_5,30,1,48,43,3105251888
7721,5,ISIP_5,31,5,42,127,3105318192
7721,5,ISIP_5,32,1,48,37,3105769984
7721,5,ISIP_5,33,5,42,127,3105817888
7721,5,ISIP_5,34,1,48,36,3106293016
7721,5,ISIP_5,35,5,42,127,3106317732
7721,5,ISIP_5,36,1,48,35,3106804376
7721,5,ISIP_5,37,5,42,127,3106818548
7721,5,ISIP_5,38,1,48,40,3107295772
7721,5,ISIP_5,39,5,42,127,3107318172
7721,5,ISIP_5,40,1,48,34,3107781104
7721,5,ISIP_5,41,5,42,127,3107817864
7721,5,ISIP_5,42,1,48,37,3108307948
7721,5,ISIP_5,43,5,42,127,3108317636
7721,5,ISIP_5,44,1,48,40,3108782220
7721,5,ISIP_5,45,5,42,127,3108818156
7721,5,ISIP_5,46,1,48,37,3109279588
7721,5,ISIP_5,47,5,42,127,3109318000
7721,5,ISIP_5,48,1,48,32,3109743688
7721,5,ISIP_5,49,5,42,127,3109817696
7721,5,ISIP_5,50,1,48,40,3110248620
7721,5,ISIP_5,51,5,42,127,3110317464
7721,5,ISIP_5,52,1,48,37,3110765064
7721,5,ISIP_5,53,5,42,127,3110818056
7721,5,ISIP_5,54,1,48,42,3111256312
7721,5,ISIP_5,55,5,42,127,3111317828
7721,5,ISIP_5,56,1,48,36,3111740944
7721,5,ISIP_5,57,5,42,127,3111817520
7721,5,ISIP_5,58,1,48,43,3112243256
7721,5,ISIP_5,59,5,42,127,3112318412
7721,5,ISIP_5,60,1,48,38,3112748112
7721,5,ISIP_5,61,5,42,127,3112817884
7721,5,ISIP_5,62,1,48,42,3113246084
7721,5,ISIP_5,63,5,42,127,3113317652
7721,5,ISIP_5,64,1,48,43,3113732168
7721,5,ISIP_5,65,5,42,127,3113817420
7721,5,ISIP_5,66,1,48,36,3114212488
7721,5,ISIP_5,67,5,42,127,3114318072
7721,5,ISIP_5,68,1,48,40,3114734696
7721,5,ISIP_5,69,5,42,127,3114817904
7721,5,ISIP_5,70,1,48,40,3115231624
7721,5,ISIP_5,71,5,42,127,3115317748
7721,5,ISIP_5,72,1,48,41,3115756448
7721,5,ISIP_5,73,5,42,127,3115818344
7721,5,ISIP_5,74,1,48,36,3116253004
7721,5,ISIP_5,75,5,42,127,3116318040
7721,5,ISIP_5,76,1,48,38,3116743276
7721,5,ISIP_5,77,5,42,127,3116817660
7721,5,ISIP_5,78,1,48,40,3117234140
7721,5,ISIP_5,79,1,48,37,3117746096
7721,5,ISIP_5,80,1,48,38,3118300016
7721,5,ISIP_5,81,1,48,31,3118806892
7721,5,ISIP_5,82,1,48,39,3119325964
7721,5,ISIP_5,83,1,48,35,3119806344
7721,5,ISIP_5,84,1,48,37,3120330508
7721,5,ISIP_5,85,1,48,33,3120826468
7721,5,ISIP_5,86,1,48,37,3121328992
7721,5,ISIP_5,87,1,48,38,3121817692
7721,5,ISIP_5,88,1,48,33,3122327400
7721,5,ISIP_5,89,1,48,36,3122836820
7721,5,ISIP_5,90,1,48,36,3123303884
7721,5,ISIP_5,91,1,48,36,3123835152
7721,5,ISIP_5,92,1,48,33,3124325792
7721,5,ISIP_5,93,1,48,37,3124819348
7721,5,ISIP_5,94,1,48,35,3125369376
7721,5,ISIP_5,95,1,48,35,3125855680
7721,5,ISIP_5,96,1,48,35,3126302828
7721,5,ISIP_5,97,1,48,29,3126853468
7721,5,ISIP_5,98,1,48,28,3127349096
7721,5,ISIP_5,99,1,48,38,3127901396
7721,5,ISIP_5,100,1,48,39,3128440880
7721,5,ISIP_5,101,1,48,35,3128901128
7721,5,ISIP_5,102,1,48,38,3129416772
7721,5,ISIP_5,103,1,48,38,3129921524
7721,5,ISIP_5,104,1,48,37,3130455496
7721,5,ISIP_5,105,1,48,31,3130968428
7721,5,ISIP_5,106,1,48,39,3131519876
7721,5,ISIP_5,107,1,48,36,3132028996
7721,5,ISIP_5,108,1,48,27,3132527260
7721,5,ISIP_5,109,1,48,38,3133046768
7721,5,ISIP_5,110,1,48,35,3133536444
7721,5,ISIP_5,111,1,48,35,3134002596
7721,5,ISIP_5,112,1,48,33,3134524052
7721,5,ISIP_5,113,1,48,37,3135025240
7721,5,ISIP_5,114,1,48,31,3135514308
7721,5,ISIP_5,115,1,48,37,3135948624
7721,5,ISIP_5,116,1,48,29,3136500224
7721,5,ISIP_5,117,1,48,30,3137027064
7721,5,ISIP_5,118,1,48,37,3137525932
7721,5,ISIP_5,119,1,48,36,3138002140
7721,5,ISIP_5,120,1,48,35,3138498384
7721,5,ISIP_5,121,1,48,34,3139038092
7721,5,ISIP_5,122,1,48,40,3139540252
7721,5,ISIP_5,123,1,48,34,3140038372
7721,5,ISIP_5,124,1,48,40,3140544796
7721,5,ISIP_5,125,1,48,42,3141044264
7721,5,ISIP_5,126,1,48,34,3141582248
7721,5,ISIP_5,127,1,48,30,3142089712
7721,5,ISIP_5,128,1,48,38,3142607064
7721,5,ISIP_5,129,1,48,37,3143126048
7721,5,ISIP_5,130,1,48,33,3143591108
7721,5,ISIP_5,131,1,48,36,3144138820
7721,5,ISIP_5,132,1,48,34,3144637540
7721,5,ISIP_5,133,1,48,34,3145116208
7721,5,ISIP_5,134,1,48,40,3145593384
7721,5,ISIP_5,135,1,48,35,3146101376
7721,5,ISIP_5,136,1,48,37,3146608848
7721,5,ISIP_5,137,1,48,40,3147164040
7721,5,ISIP_5,138,1,48,36,3147677340
7721,5,ISIP_5,139,1,48,31,3148177484
7721,5,ISIP_5,140,1,48,42,3148691008
7721,5,ISIP_5,141,1,48,36,3149229968
7721,5,ISIP_5,142,1,48,41,3149747388
7721,5,ISIP_5,143,1,48,40,3150271160
7721,5,ISIP_5,144,1,48,40,3150814008
7721,5,ISIP_5,145,1,48,39,3151292908
7721,5,ISIP_5,146,1,48,37,3151812944
7721,5,ISIP_5,147,1,48,37,3152321324
7721,5,ISIP_5,148,1,48,35,3152799160
7721,5,ISIP_5,149,1,48,40,3153337984
7721,5,ISIP_5,150,1,48,30,3153840892
7721,5,ISIP_5,151,1,48,42,3154315824
7721,5,ISIP_5,152,1,48,44,3154840876
7721,5,ISIP_5,153,1,48,37,3155311156
7721,5,ISIP_5,154,1,48,40,3155804488
7721,5,ISIP_5,155,1,48,32,3156271392
7721,5,ISIP_5,156,1,48,38,3156821684
7721,5,ISIP_5,157,1,48,31,3157319500
7721,5,ISIP_5,158,1,48,37,3157791332
7721,5,ISIP_5,159,1,48,35,3158281744
7721,5,ISIP_5,160,1,48,38,3158819744
7721,5,ISIP_5,161,1,48,33,3159312016
7721,5,ISIP_5,162,1,48,36,3159813948
7721,5,ISIP_5,163,1,48,35,3160296592
7721,5,ISIP_5,164,1,48,39,3160801212
7721,5,ISIP_5,165,1,48,34,3161302104
7721,5,ISIP_5,166,1,48,35,3161797832
7721,5,ISIP_5,167,1,48,37,3162287720
7721,5,ISIP_5,168,1,48,41,3162879796
7721,5,ISIP_5,169,1,48,33,3163372456
7721,5,ISIP_5,170,1,48,32,3163849708
7721,5,ISIP_5,171,1,48,39,3164305400
7721,5,ISIP_5,172,1,48,33,3164790584
7721,5,ISIP_5,173,1,48,31,3165336964
7721,5,ISIP_5,174,1,48,34,3165811960
7721,5,ISIP_5,175,1,48,32,3166292796
7721,5,ISIP_5,176,1,48,39,3166759252
7721,5,ISIP_5,177,1,48,31,3167279660
7721,5,ISIP_5,178,1,48,34,3167840728
7721,5,ISIP_5,179,1,48,38,3168265876
7721,5,ISIP_5,180,1,48,29,3168736996
7721,5,ISIP_5,181,1,48,35,3169306072
7721,5,ISIP_5,182,1,48,32,3169823204
7721,5,ISIP_5,183,1,48,36,3170320580
7721,5,ISIP_5,184,1,48,40,3170838516
7721,5,ISIP_5,185,1,48,38,3171308800
7721,5,ISIP_5,186,1,48,37,3171768168
7721,5,ISIP_5,187,1,48,35,3172265544
7721,5,ISIP_5,188,1,48,35,3172759100
7721,5,ISIP_5,189,1,48,34,3173300828
7721,5,ISIP_5,190,1,48,35,3173810244
7721,5,ISIP_5,191,1,48,29,3174336576
7721,5,ISIP_5,192,1,48,31,3174801244
7721,5,ISIP_5,193,1,48,26,3175342388
7721,5,ISIP_5,194,1,48,34,3175848584
7721,5,ISIP_5,195,1,48,29,3176340344
7721,5,ISIP_5,196,1,48,36,3176861732
7721,5,ISIP_5,0,9999,9999,9999,3097315392
7721,5,ISIP_5,1,9999,9999,9999,3097815108
7721,5,ISIP_5,2,9999,9999,9999,3098315868
7721,5,ISIP_5,3,9999,9999,9999,3098815560
7721,5,ISIP_5,4,9999,9999,9999,3099315256
7721,5,ISIP_5,5,9999,9999,9999,3099816000
7721,5,ISIP_5,6,9999,9999,9999,3100315768
7721,5,ISIP_5,7,9999,9999,9999,3100815464
7721,5,ISIP_5,8,9999,9999,9999,3101315156
7721,5,ISIP_5,9,9999,9999,9999,3101815900
7721,5,ISIP_5,10,9999,9999,9999,3102315592
7721,5,ISIP_5,11,9999,9999,9999,3102815288
7721,5,ISIP_5,12,9999,9999,9999,3103316028
7721,5,ISIP_5,13,9999,9999,9999,3103815800
7721,5,ISIP_5,14,9999,9999,9999,3104315468
7721,5,ISIP_5,15,9999,9999,9999,3104815164
7721,5,ISIP_5,16,9999,9999,9999,3105315904
7721,5,ISIP_5,17,9999,9999,9999,3105815600
7721,5,ISIP_5,18,9999,9999,9999,3106315368
7721,5,ISIP_5,19,9999,9999,9999,3106816116
7721,5,ISIP_5,20,9999,9999,9999,3107315808
7721,5,ISIP_5,21,9999,9999,9999,3107815500
7721,5,ISIP_5,22,9999,9999,9999,3108315196
7721,5,ISIP_5,23,9999,9999,9999,3108815940
7721,5,ISIP_5,24,9999,9999,9999,3109315636
7721,5,ISIP_5,25,9999,9999,9999,3109815408
7721,5,ISIP_5,26,9999,9999,9999,3110315100
7721,5,ISIP_5,27,9999,9999,9999,3110815844
7721,5,ISIP_5,28,9999,9999,9999,3111315540
7721,5,ISIP_5,29,9999,9999,9999,3111815232
7721,5,ISIP_5,30,9999,9999,9999,3112315972
7721,5,ISIP_5,31,9999,9999,9999,3112815668
7721,5,ISIP_5,32,9999,9999,9999,3113315436
7721,5,ISIP_5,33,9999,9999,9999,3113815132
7721,5,ISIP_5,34,9999,9999,9999,3114315856
7721,5,ISIP_5,35,9999,9999,9999,3114815544
7721,5,ISIP_5,36,9999,9999,9999,3115315312
7721,5,ISIP_5,37,9999,9999,9999,3115816052
7721,5,ISIP_5,38,9999,9999,9999,3116315748
7721,5,ISIP_5,39,9999,9999,9999,3116815444
7721,5,ISIP_5,40,9999,9999,9999,3117315140
7721,5,ISIP_5,41,9999,9999,9999,3117815876
7721,5,ISIP_5,42,9999,9999,9999,3118315568
7721,5,ISIP_5,43,9999,9999,9999,3118815332
7721,5,ISIP_5,44,9999,9999,9999,3119316076
7721,5,ISIP_5,45,9999,9999,9999,3119815760
7721,5,ISIP_5,46,9999,9999,9999,3120315460
7721,5,ISIP_5,47,9999,9999,9999,3120815224
7721,5,ISIP_5,48,9999,9999,9999,3121315888
7721,5,ISIP_5,49,9999,9999,9999,3121815652
7721,5,ISIP_5,50,9999,9999,9999,3122315344
7721,5,ISIP_5,51,9999,9999,9999,3122816084
7721,5,ISIP_5,52,9999,9999,9999,3123315764
7721,5,ISIP_5,53,9999,9999,9999,3123815536
7721,5,ISIP_5,54,9999,9999,9999,3124315228
7721,5,ISIP_5,55,9999,9999,9999,3124815964
7721,5,ISIP_5,56,9999,9999,9999,3125315704
7721,5,ISIP_5,57,9999,9999,9999,3125815396
7721,5,ISIP_5,58,9999,9999,9999,3126315084
7721,5,ISIP_5,59,9999,9999,9999,3126815828
7721,5,ISIP_5,60,9999,9999,9999,3127315572
7721,5,ISIP_5,61,9999,9999,9999,3127815260
7721,5,ISIP_5,62,9999,9999,9999,3128316000
7721,5,ISIP_5,63,9999,9999,9999,3128815688
7721,5,ISIP_5,64,9999,9999,9999,3129315380
7721,5,ISIP_5,65,9999,9999,9999,3129815144
7721,5,ISIP_5,66,9999,9999,9999,3130315880
7721,5,ISIP_5,67,9999,9999,9999,3130815572
7721,5,ISIP_5,68,9999,9999,9999,3131315264
7721,5,ISIP_5,69,9999,9999,9999,3131816000
7721,5,ISIP_5,70,9999,9999,9999,3132315764
7721,5,ISIP_5,71,9999,9999,9999,3132815456
7721,5,ISIP_5,72,9999,9999,9999,3133315148
7721,5,ISIP_5,73,9999,9999,9999,3133815884
7721,5,ISIP_5,74,9999,9999,9999,3134315576
7721,5,ISIP_5,75,9999,9999,9999,3134815340
7721,5,ISIP_5,76,9999,9999,9999,3135316076
7721,5,ISIP_5,77,9999,9999,9999,3135815768
7721,5,ISIP_5,78,9999,9999,9999,3136315508
7721,5,ISIP_5,79,9999,9999,9999,3136815196
7721,5,ISIP_5,80,9999,9999,9999,3137315932
7721,5,ISIP_5,81,9999,9999,9999,3137815624
7721,5,ISIP_5,82,9999,9999,9999,3138315312
7721,5,ISIP_5,83,9999,9999,9999,3138816056
7721,5,ISIP_5,84,9999,9999,9999,3139315816
7721,5,ISIP_5,85,9999,9999,9999,3139815508
7721,5,ISIP_5,86,9999,9999,9999,3140315196
7721,5,ISIP_5,87,9999,9999,9999,3140815936
7721,5,ISIP_5,88,9999,9999,9999,3141315700
7721,5,ISIP_5,89,9999,9999,9999,3141815392
7721,5,ISIP_5,90,9999,9999,9999,3142315080
7721,5,ISIP_5,91,9999,9999,9999,3142815820
7721,5,ISIP_5,92,9999,9999,9999,3143315512
7721,5,ISIP_5,93,9999,9999,9999,3143815276
7721,5,ISIP_5,94,9999,9999,9999,3144316012
7721,5,ISIP_5,95,9999,9999,9999,3144815704
7721,5,ISIP_5,96,9999,9999,9999,3145315392
7721,5,ISIP_5,97,9999,9999,9999,3145815160
7721,5,ISIP_5,98,9999,9999,9999,3146315896
7721,5,ISIP_5,99,9999,9999,9999,3146815564
7721,5,ISIP_5,100,9999,9999,9999,3147315256
7721,5,ISIP_5,101,9999,9999,9999,3147815992
7721,5,ISIP_5,102,9999,9999,9999,3148315756
7721,5,ISIP_5,103,9999,9999,9999,3148815448
7721,5,ISIP_5,104,9999,9999,9999,3149315152
7721,5,ISIP_5,105,9999,9999,9999,3149815892
7721,5,ISIP_5,106,9999,9999,9999,3150315584
7721,5,ISIP_5,107,9999,9999,9999,3150815348
7721,5,ISIP_5,108,9999,9999,9999,3151316084
7721,5,ISIP_5,109,9999,9999,9999,3151815776
7721,5,ISIP_5,110,9999,9999,9999,3152315472
7721,5,ISIP_5,111,9999,9999,9999,3152815160
7721,5,ISIP_5,112,9999,9999,9999,3153315900
7721,5,ISIP_5,113,9999,9999,9999,3153815668
7721,5,ISIP_5,114,9999,9999,9999,3154315376
7721,5,ISIP_5,115,9999,9999,9999,3154816100
7721,5,ISIP_5,116,9999,9999,9999,3155315784
7721,5,ISIP_5,117,9999,9999,9999,3155815472
7721,5,ISIP_5,118,9999,9999,9999,3156315236
7721,5,ISIP_5,119,9999,9999,9999,3156815980
7721,5,ISIP_5,120,9999,9999,9999,3157315652
7721,5,ISIP_5,121,9999,9999,9999,3157815404
7721,5,ISIP_5,122,9999,9999,9999,3158315096
7721,5,ISIP_5,123,9999,9999,9999,3158815840
7721,5,ISIP_5,124,9999,9999,9999,3159315524
7721,5,ISIP_5,125,9999,9999,9999,3159815288
7721,5,ISIP_5,126,9999,9999,9999,3160316024
7721,5,ISIP_5,127,9999,9999,9999,3160815716
7721,5,ISIP_5,128,9999,9999,9999,3161315404
7721,5,ISIP_5,129,9999,9999,9999,3161815096
7721,5,ISIP_5,130,9999,9999,9999,3162315832
7721,5,ISIP_5,131,9999,9999,9999,3162815604
7721,5,ISIP_5,132,9999,9999,9999,3163315296
7721,5,ISIP_5,133,9999,9999,9999,3163816032
7721,5,ISIP_5,134,9999,9999,9999,3164315716
7721,5,ISIP_5,135,9999,9999,9999,3164815408
7721,5,ISIP_5,136,9999,9999,9999,3165315180
7721,5,ISIP_5,137,9999,9999,9999,3165815912
7721,5,ISIP_5,138,9999,9999,9999,3166315600
7721,5,ISIP_5,139,9999,9999,9999,3166815292
7721,5,ISIP_5,140,9999,9999,9999,3167316028
7721,5,ISIP_5,141,9999,9999,9999,3167815800
7721,5,ISIP_5,142,9999,9999,9999,3168315460
7721,5,ISIP_5,143,9999,9999,9999,3168815224
7721,5,ISIP_5,144,9999,9999,9999,3169315936
7721,5,ISIP_5,145,9999,9999,9999,3169815632
7721,5,ISIP_5,146,9999,9999,9999,3170315324
7721,5,ISIP_5,147,9999,9999,9999,3170816064
7721,5,ISIP_5,148,9999,9999,9999,3171315820
7721,5,ISIP_5,149,9999,9999,9999,3171815508
7721,5,ISIP_5,150,9999,9999,9999,3172315200
7721,5,ISIP_5,151,9999,9999,9999,3172815936
7721,5,ISIP_5,152,9999,9999,9999,3173315700
7721,5,ISIP_5,153,9999,9999,9999,3173815392
7721,5,ISIP_5,154,9999,9999,9999,3174315088
7721,5,ISIP_5,155,9999,9999,9999,3174815820
7721,5,ISIP_5,156,9999,9999,9999,3175315520
7721,5,ISIP_5,157,9999,9999,9999,3175815284
7721,5,ISIP_5,158,9999,9999,9999,3176316020
7721,5,ISIP_5,159,9999,9999,9999,3176815712
7722,11,Pattern_Practice,0,5,42,127,3280581032
7722,11,Pattern_Practice,1,5,42,127,3281080600
7722,11,Pattern_Practice,2,5,42,127,3281581588
7722,11,Pattern_Practice,3,5,42,127,3282081080
7722,11,Pattern_Practice,4,5,42,127,3282580724
7722,11,Pattern_Practice,5,1,48,33,3282678984
7722,11,Pattern_Practice,6,5,42,127,3283080564
7722,11,Pattern_Practice,7,1,48,35,3283144120
7722,11,Pattern_Practice,8,5,42,127,3283581456
7722,11,Pattern_Practice,9,1,48,23,3283596692
7722,11,Pattern_Practice,10,5,42,127,3284081080
7722,11,Pattern_Practice,11,1,48,29,3284095864
7722,11,Pattern_Practice,12,1,38,38,3284520644
7722,11,Pattern_Practice,13,5,42,127,3284580768
7722,11,Pattern_Practice,14,1,48,34,3285000968
7722,11,Pattern_Practice,15,5,42,127,3285080388
7722,11,Pattern_Practice,16,1,48,33,3285516448
7722,11,Pattern_Practice,17,5,42,127,3285581132
7722,11,Pattern_Practice,18,1,48,32,3285989060
7722,11,Pattern_Practice,19,5,42,127,3286080972
7722,11,Pattern_Practice,20,1,48,30,3286495640
7722,11,Pattern_Practice,21,5,42,127,3286580572
7722,11,Pattern_Practice,22,1,38,51,3286953744
7722,11,Pattern_Practice,23,5,42,127,3287081520
7722,11,Pattern_Practice,24,1,38,57,3287441700
7722,11,Pattern_Practice,25,5,42,127,3287580992
7722,11,Pattern_Practice,26,1,38,57,3287950144
7722,11,Pattern_Practice,27,5,42,127,3288080616
7722,11,Pattern_Practice,28,1,48,35,3288361628
7722,11,Pattern_Practice,29,5,42,127,3288580532
7722,11,Pattern_Practice,30,1,48,32,3288887728
7722,11,Pattern_Practice,31,1,38,16,3288947360
7722,11,Pattern_Practice,32,5,42,127,3289081388
7722,11,Pattern_Practice,33,1,48,39,3289399052
7722,11,Pattern_Practice,34,1,38,40,3289402324
7722,11,Pattern_Practice,35,5,42,127,3289580888
7722,11,Pattern_Practice,36,1,48,33,3289917876
7722,11,Pattern_Practice,37,1,38,39,3289921220
7722,11,Pattern_Practice,38,5,42,127,3290080756
7722,11,Pattern_Practice,39,1,38,47,3290429568
7722,11,Pattern_Practice,40,1,48,36,3290441816
7722,11,Pattern_Practice,41,5,42,127,3290581304
7722,11,Pattern_Practice,42,1,48,40,3290921484
7722,11,Pattern_Practice,43,5,42,127,3291080924
7722,11,Pattern_Practice,44,1,38,43,3291225880
7722,11,Pattern_Practice,45,5,42,127,3291580840
7722,11,Pattern_Practice,46,1,48,38,3291630480
7722,11,Pattern_Practice,47,5,42,127,3292080464
7722,11,Pattern_Practice,48,1,48,40,3292118364
7722,11,Pattern_Practice,49,5,42,127,3292581352
7722,11,Pattern_Practice,50,1,48,36,3292589708
7722,11,Pattern_Practice,51,1,48,40,3292979780
7722,11,Pattern_Practice,52,5,42,127,3293081028
7722,11,Pattern_Practice,53,1,48,35,3293375732
7722,11,Pattern_Practice,54,1,38,46,3293378932
7722,11,Pattern_Practice,55,5,42,127,3293580752
7722,11,Pattern_Practice,56,1,48,29,3293745580
7722,11,Pattern_Practice,57,5,42,127,3294081416
7722,11,Pattern_Practice,58,1,48,29,3294250360
7722,11,Pattern_Practice,59,5,42,127,3294581184
7722,11,Pattern_Practice,60,1,38,31,3294684680
7722,11,Pattern_Practice,61,5,42,127,3295080880
7722,11,Pattern_Practice,62,1,38,43,3295145556
7722,11,Pattern_Practice,63,5,42,127,3295580500
7722,11,Pattern_Practice,64,1,48,29,3295605984
7722,11,Pattern_Practice,65,1,48,40,3296038840
7722,11,Pattern_Practice,66,5,42,127,3296081308
7722,11,Pattern_Practice,67,1,48,37,3296516916
7722,11,Pattern_Practice,68,1,38,36,3296520184
7722,11,Pattern_Practice,69,5,42,127,3296581056
7722,11,Pattern_Practice,70,1,38,42,3296950372
7722,11,Pattern_Practice,71,5,42,127,3297080536
7722,11,Pattern_Practice,72,1,38,46,3297461508
7722,11,Pattern_Practice,73,5,42,127,3297581280
7722,11,Pattern_Practice,74,1,48,31,3297813532
7722,11,Pattern_Practice,75,5,42,127,3298081196
7722,11,Pattern_Practice,76,1,48,28,3298337908
7722,11,Pattern_Practice,77,5,42,127,3298580816
7722,11,Pattern_Practice,78,1,48,34,3298790852
7722,11,Pattern_Practice,79,5,42,127,3299080584
7722,11,Pattern_Practice,80,1,38,40,3299225320
7722,11,Pattern_Practice,81,1,48,37,3299228516
7722,11,Pattern_Practice,82,5,42,127,3299581204
7722,11,Pattern_Practice,83,1,48,29,3299672980
7722,11,Pattern_Practice,84,5,42,127,3300081124
7722,11,Pattern_Practice,85,1,48,37,3300123736
7722,11,Pattern_Practice,86,1,38,46,3300502012
7722,11,Pattern_Practice,87,5,42,127,3300580660
7722,11,Pattern_Practice,88,1,38,51,3300920228
7722,11,Pattern_Practice,89,5,42,127,3301080492
7722,11,Pattern_Practice,90,1,48,35,3301459592
7722,11,Pattern_Practice,91,5,42,127,3301581308
7722,11,Pattern_Practice,92,1,48,33,3301945872
7722,11,Pattern_Practice,93,5,42,127,3302080852
7722,11,Pattern_Practice,94,1,48,34,3302154576
7722,11,Pattern_Practice,95,1,38,42,3302576392
7722,11,Pattern_Practice,96,5,42,127,3302580760
7722,11,Pattern_Practice,97,1,48,38,3302601604
7722,11,Pattern_Practice,98,1,48,35,3303052184
7722,11,Pattern_Practice,99,1,38,43,3303056584
7722,11,Pattern_Practice,100,5,42,127,3303081300
7722,11,Pattern_Practice,101,1,38,42,3303540916
7722,11,Pattern_Practice,102,1,48,32,3303559820
7722,11,Pattern_Practice,103,5,42,127,3303581096
7722,11,Pattern_Practice,104,1,38,43,3303987956
7722,11,Pattern_Practice,105,5,42,127,3304080688
7722,11,Pattern_Practice,106,1,38,49,3304324440
7722,11,Pattern_Practice,107,1,38,38,3304489052
7722,11,Pattern_Practice,108,5,42,127,3304580436
7722,11,Pattern_Practice,109,1,48,36,3304905640
7722,11,Pattern_Practice,110,1,38,46,3304917220
7722,11,Pattern_Practice,111,5,42,127,3305081188
7722,11,Pattern_Practice,112,1,48,35,3305408732
7722,11,Pattern_Practice,113,5,42,127,3305580960
7722,11,Pattern_Practice,114,1,48,38,3305927876
7722,11,Pattern_Practice,115,5,42,127,3306080652
7722,11,Pattern_Practice,116,1,48,38,3306385904
7722,11,Pattern_Practice,117,5,42,127,3306581248
7722,11,Pattern_Practice,118,1,48,36,3306835556
7722,11,Pattern_Practice,119,5,42,127,3307080940
7722,11,Pattern_Practice,120,1,48,35,3307317580
7722,11,Pattern_Practice,121,5,42,127,3307580856
7722,11,Pattern_Practice,122,1,48,31,3307857988
7722,11,Pattern_Practice,123,5,42,127,3308080380
7722,11,Pattern_Practice,124,1,48,28,3308415200
7722,11,Pattern_Practice,125,5,42,127,3308581196
7722,11,Pattern_Practice,126,1,48,26,3308920504
7722,11,Pattern_Practice,127,1,38,37,3308923848
7722,11,Pattern_Practice,128,5,42,127,3309080916
7722,11,Pattern_Practice,129,1,38,43,3309438032
7722,11,Pattern_Practice,130,1,48,32,3309443840
7722,11,Pattern_Practice,131,5,42,127,3309580568
7722,11,Pattern_Practice,132,1,48,20,3309921744
7722,11,Pattern_Practice,133,5,42,127,3310081456
7722,11,Pattern_Practice,134,1,48,38,3310506856
7722,11,Pattern_Practice,135,5,42,127,3310581092
7722,11,Pattern_Practice,136,1,48,31,3311021664
7722,11,Pattern_Practice,137,5,42,127,3311080936
7722,11,Pattern_Practice,138,1,48,43,3311540656
7722,11,Pattern_Practice,139,5,42,127,3311580632
7722,11,Pattern_Practice,140,1,38,47,3312074008
7722,11,Pattern_Practice,141,5,42,127,3312081224
7722,11,Pattern_Practice,142,1,48,34,3312520672
7722,11,Pattern_Practice,143,5,42,127,3312581064
7722,11,Pattern_Practice,144,1,48,39,3313056488
7722,11,Pattern_Practice,145,5,42,127,3313080760
7722,11,Pattern_Practice,146,1,48,45,3313490812
7722,11,Pattern_Practice,147,5,42,127,3313581280
7722,11,Pattern_Practice,148,1,38,51,3313932516
7722,11,Pattern_Practice,149,5,42,127,3314081184
7722,11,Pattern_Practice,150,1,38,44,3314357864
7722,11,Pattern_Practice,151,5,42,127,3314580804
7722,11,Pattern_Practice,152,1,48,33,3314880524
7722,11,Pattern_Practice,153,5,42,127,3315080500
7722,11,Pattern_Practice,154,1,48,40,3315450152
7722,11,Pattern_Practice,155,5,42,127,3315581164
7722,11,Pattern_Practice,156,1,48,33,3315910952
7722,11,Pattern_Practice,157,5,42,127,3316081084
7722,11,Pattern_Practice,158,1,48,36,3316366212
7722,11,Pattern_Practice,159,5,42,127,3316581004
7722,11,Pattern_Practice,160,1,38,43,3316902264
7722,11,Pattern_Practice,161,5,42,127,3317080328
7722,11,Pattern_Practice,162,1,48,32,3317350424
7722,11,Pattern_Practice,163,5,42,127,3317581144
7722,11,Pattern_Practice,164,1,48,34,3317858120
7722,11,Pattern_Practice,165,5,42,127,3318080988
7722,11,Pattern_Practice,166,1,48,42,3318308644
7722,11,Pattern_Practice,167,5,42,127,3318580804
7722,11,Pattern_Practice,168,1,38,47,3318686492
7722,11,Pattern_Practice,169,5,42,127,3319081248
7722,11,Pattern_Practice,170,1,48,21,3319100024
7722,11,Pattern_Practice,171,5,42,127,3319581020
7722,11,Pattern_Practice,172,1,48,32,3319598128
7722,11,Pattern_Practice,173,5,42,127,3320080936
7722,11,Pattern_Practice,174,1,48,35,3320134640
7722,11,Pattern_Practice,175,1,38,43,3320490016
7722,11,Pattern_Practice,0,9999,9999,9999,3280578672
7722,11,Pattern_Practice,1,9999,9999,9999,3281078388
7722,11,Pattern_Practice,2,9999,9999,9999,3281579076
7722,11,Pattern_Practice,3,9999,9999,9999,3282078792
7722,11,Pattern_Practice,4,9999,9999,9999,3282578508
7722,11,Pattern_Practice,5,9999,9999,9999,3283078204
7722,11,Pattern_Practice,6,9999,9999,9999,3283578944
7722,11,Pattern_Practice,7,9999,9999,9999,3284078640
7722,11,Pattern_Practice,8,9999,9999,9999,3284578408
7722,11,Pattern_Practice,9,9999,9999,9999,3285078100
7722,11,Pattern_Practice,10,9999,9999,9999,3285578844
7722,11,Pattern_Practice,11,9999,9999,9999,3286078536
7722,11,Pattern_Practice,12,9999,9999,9999,3286578284
7722,11,Pattern_Practice,13,9999,9999,9999,3287079008
7722,11,Pattern_Practice,14,9999,9999,9999,3287578704
7722,11,Pattern_Practice,15,9999,9999,9999,3288078400
7722,11,Pattern_Practice,16,9999,9999,9999,3288578168
7722,11,Pattern_Practice,17,9999,9999,9999,3289078876
7722,11,Pattern_Practice,18,9999,9999,9999,3289578600
7722,11,Pattern_Practice,19,9999,9999,9999,3290078320
7722,11,Pattern_Practice,20,9999,9999,9999,3290579016
7722,11,Pattern_Practice,21,9999,9999,9999,3291078708
7722,11,Pattern_Practice,22,9999,9999,9999,3291578480
7722,11,Pattern_Practice,23,9999,9999,9999,3292078172
7722,11,Pattern_Practice,24,9999,9999,9999,3292578916
7722,11,Pattern_Practice,25,9999,9999,9999,3293078604
7722,11,Pattern_Practice,26,9999,9999,9999,3293578316
7722,11,Pattern_Practice,27,9999,9999,9999,3294079056
7722,11,Pattern_Practice,28,9999,9999,9999,3294578748
7722,11,Pattern_Practice,29,9999,9999,9999,3295078516
7722,11,Pattern_Practice,30,9999,9999,9999,3295578212
7722,11,Pattern_Practice,31,9999,9999,9999,3296078948
7722,11,Pattern_Practice,32,9999,9999,9999,3296578620
7722,11,Pattern_Practice,33,9999,9999,9999,3297078324
7722,11,Pattern_Practice,34,9999,9999,9999,3297579064
7722,11,Pattern_Practice,35,9999,9999,9999,3298078836
7722,11,Pattern_Practice,36,9999,9999,9999,3298578528
7722,11,Pattern_Practice,37,9999,9999,9999,3299078224
7722,11,Pattern_Practice,38,9999,9999,9999,3299578992
7722,11,Pattern_Practice,39,9999,9999,9999,3300078688
7722,11,Pattern_Practice,40,9999,9999,9999,3300578372
7722,11,Pattern_Practice,41,9999,9999,9999,3301078128
7722,11,Pattern_Practice,42,9999,9999,9999,3301578868
7722,11,Pattern_Practice,43,9999,9999,9999,3302078564
7722,11,Pattern_Practice,44,9999,9999,9999,3302578252
7722,11,Pattern_Practice,45,9999,9999,9999,3303079012
7722,11,Pattern_Practice,46,9999,9999,9999,3303578736
7722,11,Pattern_Practice,47,9999,9999,9999,3304078404
7722,11,Pattern_Practice,48,9999,9999,9999,3304578148
7722,11,Pattern_Practice,49,9999,9999,9999,3305078900
7722,11,Pattern_Practice,50,9999,9999,9999,3305578596
7722,11,Pattern_Practice,51,9999,9999,9999,3306078292
7722,11,Pattern_Practice,52,9999,9999,9999,3306579032
7722,11,Pattern_Practice,53,9999,9999,9999,3307078728
7722,11,Pattern_Practice,54,9999,9999,9999,3307578472
7722,11,Pattern_Practice,55,9999,9999,9999,3308078168
7722,11,Pattern_Practice,56,9999,9999,9999,3308578908
7722,11,Pattern_Practice,57,9999,9999,9999,3309078632
7722,11,Pattern_Practice,58,9999,9999,9999,3309578352
7722,11,Pattern_Practice,59,9999,9999,9999,3310079092
7722,11,Pattern_Practice,60,9999,9999,9999,3310578808
7722,11,Pattern_Practice,61,9999,9999,9999,3311078500
7722,11,Pattern_Practice,62,9999,9999,9999,3311578196
7722,11,Pattern_Practice,63,9999,9999,9999,3312078936
7722,11,Pattern_Practice,64,9999,9999,9999,3312578628
7722,11,Pattern_Practice,65,9999,9999,9999,3313078324
7722,11,Pattern_Practice,66,9999,9999,9999,3313579068
7722,11,Pattern_Practice,67,9999,9999,9999,3314078820
7722,11,Pattern_Practice,68,9999,9999,9999,3314578516
7722,11,Pattern_Practice,69,9999,9999,9999,3315078212
7722,11,Pattern_Practice,70,9999,9999,9999,3315578952
7722,11,Pattern_Practice,71,9999,9999,9999,3316078648
7722,11,Pattern_Practice,72,9999,9999,9999,3316578416
7722,11,Pattern_Practice,73,9999,9999,9999,3317078112
7722,11,Pattern_Practice,74,9999,9999,9999,3317578856
7722,11,Pattern_Practice,75,9999,9999,9999,3318078552
7722,11,Pattern_Practice,76,9999,9999,9999,3318578292
7722,11,Pattern_Practice,77,9999,9999,9999,3319078960
7722,11,Pattern_Practice,78,9999,9999,9999,3319578732
7722,11,Pattern_Practice,79,9999,9999,9999,3320078428
7723,13,Improv_Metronome,0,5,42,127,3352960424
7723,13,Improv_Metronome,1,5,42,127,3353460140
7723,13,Improv_Metronome,2,5,42,127,3353959856
7723,13,Improv_Metronome,3,1,48,31,3353984964
7723,13,Improv_Metronome,4,5,42,127,3354459480
7723,13,Improv_Metronome,5,1,48,28,3354479728
7723,13,Improv_Metronome,6,1,48,43,3354933452
7723,13,Improv_Metronome,7,5,42,127,3354960284
7723,13,Improv_Metronome,8,1,38,49,3355421548
7723,13,Improv_Metronome,9,5,42,127,3355460056
7723,13,Improv_Metronome,10,1,48,30,3355902320
7723,13,Improv_Metronome,11,5,42,127,3355959648
7723,13,Improv_Metronome,12,1,48,43,3356417844
7723,13,Improv_Metronome,13,5,42,127,3356460368
7723,13,Improv_Metronome,14,1,48,46,3356856512
7723,13,Improv_Metronome,15,5,42,127,3356960268
7723,13,Improv_Metronome,16,1,38,43,3357347672
7723,13,Improv_Metronome,17,5,42,127,3357459964
7723,13,Improv_Metronome,18,1,38,52,3357806680
7723,13,Improv_Metronome,19,5,42,127,3357959660
7723,13,Improv_Metronome,20,1,48,37,3358359556
7723,13,Improv_Metronome,21,5,42,127,3358460176
7723,13,Improv_Metronome,22,1,48,39,3358914224
7723,13,Improv_Metronome,23,5,42,127,3358960332
7723,13,Improv_Metronome,24,1,48,42,3359428880
7723,13,Improv_Metronome,25,5,42,127,3359459728
7723,13,Improv_Metronome,26,1,38,41,3359854372
7723,13,Improv_Metronome,27,1,48,39,3359856824
7723,13,Improv_Metronome,28,5,42,127,3359960556
7723,13,Improv_Metronome,29,1,48,42,3360378480
7723,13,Improv_Metronome,30,5,42,127,3360460268
7723,13,Improv_Metronome,31,1,48,35,3360907120
7723,13,Improv_Metronome,32,5,42,127,3360960036
7723,13,Improv_Metronome,33,1,48,36,3361392452
7723,13,Improv_Metronome,34,5,42,127,3361459508
7723,13,Improv_Metronome,35,1,38,40,3361810748
7723,13,Improv_Metronome,36,5,42,127,3361960236
7723,13,Improv_Metronome,37,1,38,43,3362326068
7723,13,Improv_Metronome,38,1,48,32,3362354996
7723,13,Improv_Metronome,39,5,42,127,3362460180
7723,13,Improv_Metronome,40,1,38,49,3362843820
7723,13,Improv_Metronome,41,5,42,127,3362959724
7723,13,Improv_Metronome,42,1,38,51,3363380988
7723,13,Improv_Metronome,43,5,42,127,3363459360
7723,13,Improv_Metronome,44,1,48,41,3363881948
7723,13,Improv_Metronome,45,5,42,127,3363960248
7723,13,Improv_Metronome,46,1,48,41,3364452952
7723,13,Improv_Metronome,47,5,42,127,3364460092
7723,13,Improv_Metronome,48,1,38,44,3364796448
7723,13,Improv_Metronome,49,5,42,127,3364959552
7723,13,Improv_Metronome,50,1,48,41,3365082868
7723,13,Improv_Metronome,51,5,42,127,3365460216
7723,13,Improv_Metronome,52,1,48,34,3365624976
7723,13,Improv_Metronome,53,5,42,127,3365960132
7723,13,Improv_Metronome,54,1,48,40,3366128784
7723,13,Improv_Metronome,55,5,42,127,3366459904
7723,13,Improv_Metronome,56,1,38,39,3366522712
7723,13,Improv_Metronome,57,1,38,40,3366897756
7723,13,Improv_Metronome,58,5,42,127,3366959492
7723,13,Improv_Metronome,59,1,38,44,3367109824
7723,13,Improv_Metronome,60,5,42,127,3367460144
7723,13,Improv_Metronome,61,1,48,38,3367491716
7723,13,Improv_Metronome,62,5,42,127,3367960064
7723,13,Improv_Metronome,63,1,48,39,3368025812
7723,13,Improv_Metronome,64,5,42,127,3368459832
7723,13,Improv_Metronome,65,1,48,37,3368479784
7723,13,Improv_Metronome,66,1,38,38,3368828220
7723,13,Improv_Metronome,67,5,42,127,3368960256
7723,13,Improv_Metronome,68,1,38,42,3369232896
7723,13,Improv_Metronome,69,1,48,33,3369278988
7723,13,Improv_Metronome,70,5,42,127,3369460064
7723,13,Improv_Metronome,71,1,38,38,3369733380
7723,13,Improv_Metronome,72,1,48,40,3369754224
7723,13,Improv_Metronome,73,5,42,127,3369959936
7723,13,Improv_Metronome,74,1,38,34,3370233692
7723,13,Improv_Metronome,75,1,48,33,3370278184
7723,13,Improv_Metronome,76,5,42,127,3370459580
7723,13,Improv_Metronome,77,1,38,39,3370688692
7723,13,Improv_Metronome,78,5,42,127,3370960172
7723,13,Improv_Metronome,79,1,38,37,3370974436
7723,13,Improv_Metronome,80,1,48,38,3371379568
7723,13,Improv_Metronome,81,5,42,127,3371460084
7723,13,Improv_Metronome,82,1,48,32,3371902676
7723,13,Improv_Metronome,83,5,42,127,3371959928
7723,13,Improv_Metronome,84,1,48,30,3372423396
7723,13,Improv_Metronome,85,5,42,127,3372460304
7723,13,Improv_Metronome,86,5,42,127,3372960080
7723,13,Improv_Metronome,87,1,48,32,3372991024
7723,13,Improv_Metronome,88,5,42,127,3373459996
7723,13,Improv_Metronome,89,1,48,34,3373479276
7723,13,Improv_Metronome,90,1,48,40,3373910140
7723,13,Improv_Metronome,91,1,38,39,3373913412
7723,13,Improv_Metronome,92,5,42,127,3373959444
7723,13,Improv_Metronome,93,1,48,37,3374378568
7723,13,Improv_Metronome,94,5,42,127,3374460380
7723,13,Improv_Metronome,95,1,48,36,3374931768
7723,13,Improv_Metronome,96,5,42,127,3374960000
7723,13,Improv_Metronome,97,1,38,40,3375310868
7723,13,Improv_Metronome,98,1,48,32,3375333436
7723,13,Improv_Metronome,99,5,42,127,3375459868
7723,13,Improv_Metronome,100,1,48,35,3375668008
7723,13,Improv_Metronome,101,5,42,127,3375960388
7723,13,Improv_Metronome,102,1,48,32,3376143548
7723,13,Improv_Metronome,103,5,42,127,3376460228
7723,13,Improv_Metronome,104,1,48,31,3376695892
7723,13,Improv_Metronome,105,5,42,127,3376959852
7723,13,Improv_Metronome,106,1,38,36,3377156696
7723,13,Improv_Metronome,107,5,42,127,3377459596
7723,13,Improv_Metronome,108,1,48,33,3377633200
7723,13,Improv_Metronome,109,5,42,127,3377960260
7723,13,Improv_Metronome,110,1,48,40,3378163788
7723,13,Improv_Metronome,111,5,42,127,3378460180
7723,13,Improv_Metronome,112,1,38,38,3378564748
7723,13,Improv_Metronome,113,1,38,34,3378956620
7723,13,Improv_Metronome,114,5,42,127,3378959716
7723,13,Improv_Metronome,115,1,48,28,3379416596
7723,13,Improv_Metronome,116,5,42,127,3379459412
7723,13,Improv_Metronome,117,1,48,36,3379912544
7723,13,Improv_Metronome,118,5,42,127,3379960300
7723,13,Improv_Metronome,119,1,38,33,3380296676
7723,13,Improv_Metronome,120,5,42,127,3380459832
7723,13,Improv_Metronome,121,1,38,37,3380743468
7723,13,Improv_Metronome,122,5,42,127,3380959604
7723,13,Improv_Metronome,123,1,38,42,3381012160
7723,13,Improv_Metronome,124,1,48,30,3381422076
7723,13,Improv_Metronome,125,5,42,127,3381460188
7723,13,Improv_Metronome,126,1,48,39,3381932920
7723,13,Improv_Metronome,127,5,42,127,3381960180
7723,13,Improv_Metronome,128,1,38,31,3382383472
7723,13,Improv_Metronome,129,5,42,127,3382459728
7723,13,Improv_Metronome,130,1,38,38,3382874120
7723,13,Improv_Metronome,131,5,42,127,3382959568
7723,13,Improv_Metronome,132,1,38,35,3383368876
7723,13,Improv_Metronome,133,5,42,127,3383460816
7723,13,Improv_Metronome,134,1,38,42,3383908884
7723,13,Improv_Metronome,135,5,42,127,3383959856
7723,13,Improv_Metronome,136,1,48,31,3384371976
7723,13,Improv_Metronome,137,1,38,38,3384372632
7723,13,Improv_Metronome,138,5,42,127,3384459756
7723,13,Improv_Metronome,139,1,38,36,3384849788
7723,13,Improv_Metronome,140,5,42,127,3384960308
7723,13,Improv_Metronome,141,1,38,43,3385371920
7723,13,Improv_Metronome,142,5,42,127,3385459940
7723,13,Improv_Metronome,143,1,38,41,3385875876
7723,13,Improv_Metronome,144,5,42,127,3385959856
7723,13,Improv_Metronome,145,1,48,40,3386411996
7723,13,Improv_Metronome,146,5,42,127,3386459556
7723,13,Improv_Metronome,147,1,48,42,3386944476
7723,13,Improv_Metronome,148,5,42,127,3386960296
7723,13,Improv_Metronome,149,1,38,36,3387371368
7723,13,Improv_Metronome,150,5,42,127,3387460064
7723,13,Improv_Metronome,151,1,48,35,3387839948
7723,13,Improv_Metronome,152,5,42,127,3387959568
7723,13,Improv_Metronome,153,1,48,41,3388355924
7723,13,Improv_Metronome,154,5,42,127,3388460736
7723,13,Improv_Metronome,155,1,38,39,3388744020
7723,13,Improv_Metronome,156,5,42,127,3388959984
7723,13,Improv_Metronome,157,1,38,43,3389122672
7723,13,Improv_Metronome,158,5,42,127,3389459676
7723,13,Improv_Metronome,159,1,48,25,3389642040
7723,13,Improv_Metronome,160,1,38,44,3389645752
7723,13,Improv_Metronome,161,5,42,127,3389959472
7723,13,Improv_Metronome,162,1,48,31,3390191800
7723,13,Improv_Metronome,163,1,38,41,3390213468
7723,13,Improv_Metronome,164,5,42,127,3390460240
7723,13,Improv_Metronome,165,1,48,28,3390827376
7723,13,Improv_Metronome,166,1,38,38,3390850620
7723,13,Improv_Metronome,167,5,42,127,3390960036
7723,13,Improv_Metronome,168,1,38,40,3391325380
7723,13,Improv_Metronome,169,5,42,127,3391459732
7723,13,Improv_Metronome,170,1,38,35,3391607236
7723,13,Improv_Metronome,171,5,42,127,3391960844
7723,13,Improv_Metronome,172,1,48,36,3392028292
7723,13,Improv_Metronome,173,5,42,127,3392460540
7723,13,Improv_Metronome,174,1,48,39,3392532776
7723,13,Improv_Metronome,175,5,42,127,3392959712
7723,13,Improv_Metronome,176,1,48,30,3393046604
7723,13,Improv_Metronome,177,5,42,127,3393459556
7723,13,Improv_Metronome,178,1,48,30,3393552956
7723,13,Improv_Metronome,179,5,42,127,3393960444
7723,13,Improv_Metronome,180,1,48,39,3394038816
7723,13,Improv_Metronome,181,1,48,45,3394443720
7723,13,Improv_Metronome,182,5,42,127,3394460136
7723,13,Improv_Metronome,183,1,38,45,3394474400
7723,13,Improv_Metronome,184,5,42,127,3394959652
7723,13,Improv_Metronome,185,1,48,40,3394983116
7723,13,Improv_Metronome,186,1,48,39,3395438508
7723,13,Improv_Metronome,187,5,42,127,3395459416
7723,13,Improv_Metronome,188,1,38,38,3395825984
7723,13,Improv_Metronome,189,5,42,127,3395960588
7723,13,Improv_Metronome,190,1,38,49,3396358140
7723,13,Improv_Metronome,191,5,42,127,3396459836
7723,13,Improv_Metronome,192,1,48,43,3396862252
7723,13,Improv_Metronome,193,5,42,127,3396960580
7723,13,Improv_Metronome,194,1,48,45,3397341148
7723,13,Improv_Metronome,195,5,42,127,3397460568
7723,13,Improv_Metronome,196,1,38,40,3397799184
7723,13,Improv_Metronome,197,1,48,42,3397819208
7723,13,Improv_Metronome,198,5,42,127,3397960140
7723,13,Improv_Metronome,199,1,48,43,3398295836
7723,13,Improv_Metronome,200,1,38,43,3398308908
7723,13,Improv_Metronome,201,5,42,127,3398459716
7723,13,Improv_Metronome,202,1,38,45,3398731308
7723,13,Improv_Metronome,203,5,42,127,3398959532
7723,13,Improv_Metronome,204,1,38,46,3399091928
7723,13,Improv_Metronome,205,1,38,48,3399287008
7723,13,Improv_Metronome,206,5,42,127,3399460328
7723,13,Improv_Metronome,207,1,48,38,3399663480
7723,13,Improv_Metronome,208,5,42,127,3399959948
7723,13,Improv_Metronome,209,1,48,41,3400166620
7723,13,Improv_Metronome,210,5,42,127,3400459568
7723,13,Improv_Metronome,211,1,48,46,3400592412
7723,13,Improv_Metronome,212,5,42,127,3400960460
7723,13,Improv_Metronome,213,1,38,40,3401064656
7723,13,Improv_Metronome,214,5,42,127,3401460152
7723,13,Improv_Metronome,215,1,38,45,3401504936
7723,13,Improv_Metronome,216,5,42,127,3401959772
7723,13,Improv_Metronome,217,1,38,38,3401989524
7723,13,Improv_Metronome,218,1,48,36,3402424424
7723,13,Improv_Metronome,219,5,42,127,3402459464
7723,13,Improv_Metronome,220,1,48,40,3402899060
7723,13,Improv_Metronome,221,5,42,127,3402960280
7723,13,Improv_Metronome,222,1,48,32,3403438996
7723,13,Improv_Metronome,223,5,42,127,3403459900
7723,13,Improv_Metronome,224,1,38,36,3403903316
7723,13,Improv_Metronome,225,1,48,36,3403906588
7723,13,Improv_Metronome,226,5,42,127,3403959724
7723,13,Improv_Metronome,227,1,38,34,3404358380
7723,13,Improv_Metronome,228,1,48,36,3404414536
7723,13,Improv_Metronome,229,5,42,127,3404460408
7723,13,Improv_Metronome,230,1,48,44,3404807008
7723,13,Improv_Metronome,231,1,38,48,3404926908
7723,13,Improv_Metronome,232,5,42,127,3404960156
7723,13,Improv_Metronome,233,1,48,36,3405043892
7723,13,Improv_Metronome,234,1,48,28,3405451344
7723,13,Improv_Metronome,235,5,42,127,3405459900
7723,13,Improv_Metronome,236,1,48,35,3405929416
7723,13,Improv_Metronome,237,5,42,127,3405959520
7723,13,Improv_Metronome,238,1,48,32,3406399120
7723,13,Improv_Metronome,239,5,42,127,3406460264
7723,13,Improv_Metronome,240,1,48,33,3406828476
7723,13,Improv_Metronome,241,5,42,127,3406959940
7723,13,Improv_Metronome,242,1,48,37,3407392720
7723,13,Improv_Metronome,243,5,42,127,3407459652
7723,13,Improv_Metronome,244,1,38,35,3407829292
7723,13,Improv_Metronome,245,5,42,127,3407960528
7723,13,Improv_Metronome,246,1,38,48,3408314320
7723,13,Improv_Metronome,247,5,42,127,3408460296
7723,13,Improv_Metronome,248,1,48,29,3408708032
7723,13,Improv_Metronome,249,5,42,127,3408959916
7723,13,Improv_Metronome,250,1,48,43,3409115400
7723,13,Improv_Metronome,251,5,42,127,3409459560
7723,13,Improv_Metronome,252,1,38,33,3409481404
7723,13,Improv_Metronome,253,1,48,42,3409513024
7723,13,Improv_Metronome,254,1,38,34,3409907036
7723,13,Improv_Metronome,255,1,48,36,3409954732
7723,13,Improv_Metronome,256,5,42,127,3409960304
7723,13,Improv_Metronome,257,1,38,40,3410338020
7723,13,Improv_Metronome,258,5,42,127,3410460032
7723,13,Improv_Metronome,259,1,38,38,3410765528
7723,13,Improv_Metronome,260,5,42,127,3410959652
7723,13,Improv_Metronome,261,1,48,32,3411200056
7723,13,Improv_Metronome,262,5,42,127,3411459496
7723,13,Improv_Metronome,263,1,48,43,3411644096
7723,13,Improv_Metronome,264,5,42,127,3411960236
7723,13,Improv_Metronome,265,1,38,35,3412038480
7723,13,Improv_Metronome,266,1,48,38,3412068604
7723,13,Improv_Metronome,267,5,42,127,3412459812
7723,13,Improv_Metronome,268,1,38,35,3412468016
7723,13,Improv_Metronome,269,1,48,37,3412496420
7723,13,Improv_Metronome,270,1,38,39,3412905044
7723,13,Improv_Metronome,271,5,42,127,3412959452
7723,13,Improv_Metronome,272,1,38,50,3413383864
7723,13,Improv_Metronome,273,5,42,127,3413460196
7723,13,Improv_Metronome,274,1,48,37,3413884236
7723,13,Improv_Metronome,275,5,42,127,3413960040
7723,13,Improv_Metronome,276,1,38,32,3414264080
7723,13,Improv_Metronome,277,1,48,38,3414312676
7723,13,Improv_Metronome,278,5,42,127,3414459748
7723,13,Improv_Metronome,279,1,38,40,3414755196
7723,13,Improv_Metronome,280,1,48,38,3414783008
7723,13,Improv_Metronome,281,5,42,127,3414959392
7723,13,Improv_Metronome,282,1,48,38,3415206228
7723,13,Improv_Metronome,283,5,42,127,3415460132
7723,13,Improv_Metronome,284,1,48,35,3415659096
7723,13,Improv_Metronome,285,5,42,127,3415960052
7723,13,Improv_Metronome,286,1,48,28,3416040212
7723,13,Improv_Metronome,287,1,38,40,3416053284
7723,13,Improv_Metronome,288,5,42,127,3416459772
7723,13,Improv_Metronome,289,1,48,33,3416478524
7723,13,Improv_Metronome,290,1,38,39,3416805020
7723,13,Improv_Metronome,291,5,42,127,3416960348
7723,13,Improv_Metronome,292,1,38,43,3417322672
7723,13,Improv_Metronome,293,5,42,127,3417460188
7723,13,Improv_Metronome,294,1,38,40,3417826328
7723,13,Improv_Metronome,295,5,42,127,3417959736
7723,13,Improv_Metronome,296,1,38,40,3418310688
7723,13,Improv_Metronome,297,5,42,127,3418459508
7723,13,Improv_Metronome,298,1,38,40,3418776728
7723,13,Improv_Metronome,299,5,42,127,3418960324
7723,13,Improv_Metronome,300,1,48,42,3419311204
7723,13,Improv_Metronome,301,5,42,127,3419460020
7723,13,Improv_Metronome,302,1,48,41,3419804764
7723,13,Improv_Metronome,303,5,42,127,3419959564
7723,13,Improv_Metronome,304,1,38,38,3420198520
7723,13,Improv_Metronome,305,1,48,37,3420250524
7723,13,Improv_Metronome,306,5,42,127,3420460248
7723,13,Improv_Metronome,307,1,48,35,3420706480
7723,13,Improv_Metronome,308,5,42,127,3420960240
7723,13,Improv_Metronome,309,1,38,42,3421219268
7723,13,Improv_Metronome,310,5,42,127,3421459932
7723,13,Improv_Metronome,311,1,38,46,3421744840
7723,13,Improv_Metronome,312,1,48,37,3421791236
7723,13,Improv_Metronome,313,5,42,127,3421959520
7723,13,Improv_Metronome,314,1,48,34,3422236344
7723,13,Improv_Metronome,315,5,42,127,3422460408
7723,13,Improv_Metronome,316,1,48,34,3422666104
7723,13,Improv_Metronome,0,9999,9999,9999,3352958064
7723,13,Improv_Metronome,1,9999,9999,9999,3353457780
7723,13,Improv_Metronome,2,9999,9999,9999,3353957496
7723,13,Improv_Metronome,3,9999,9999,9999,3354457192
7723,13,Improv_Metronome,4,9999,9999,9999,3354957924
7723,13,Improv_Metronome,5,9999,9999,9999,3355457620
7723,13,Improv_Metronome,6,9999,9999,9999,3355957364
7723,13,Improv_Metronome,7,9999,9999,9999,3356458080
7723,13,Improv_Metronome,8,9999,9999,9999,3356957760
7723,13,Improv_Metronome,9,9999,9999,9999,3357457528
7723,13,Improv_Metronome,10,9999,9999,9999,3357957224
7723,13,Improv_Metronome,11,9999,9999,9999,3358457964
7723,13,Improv_Metronome,12,9999,9999,9999,3358957672
7723,13,Improv_Metronome,13,9999,9999,9999,3359457368
7723,13,Improv_Metronome,14,9999,9999,9999,3359958120
7723,13,Improv_Metronome,15,9999,9999,9999,3360457832
7723,13,Improv_Metronome,16,9999,9999,9999,3360957528
7723,13,Improv_Metronome,17,9999,9999,9999,3361457224
7723,13,Improv_Metronome,18,9999,9999,9999,3361957948
7723,13,Improv_Metronome,19,9999,9999,9999,3362457672
7723,13,Improv_Metronome,20,9999,9999,9999,3362957364
7723,13,Improv_Metronome,21,9999,9999,9999,3363457072
7723,13,Improv_Metronome,22,9999,9999,9999,3363957812
7723,13,Improv_Metronome,23,9999,9999,9999,3364457584
7723,13,Improv_Metronome,24,9999,9999,9999,3364957264
7723,13,Improv_Metronome,25,9999,9999,9999,3365458004
7723,13,Improv_Metronome,26,9999,9999,9999,3365957700
7723,13,Improv_Metronome,27,9999,9999,9999,3366457396
7723,13,Improv_Metronome,28,9999,9999,9999,3366957132
7723,13,Improv_Metronome,29,9999,9999,9999,3367457860
7723,13,Improv_Metronome,30,9999,9999,9999,3367957552
7723,13,Improv_Metronome,31,9999,9999,9999,3368457324
7723,13,Improv_Metronome,32,9999,9999,9999,3368958044
7723,13,Improv_Metronome,33,9999,9999,9999,3369457776
7723,13,Improv_Metronome,34,9999,9999,9999,3369957424
7723,13,Improv_Metronome,35,9999,9999,9999,3370457148
7723,13,Improv_Metronome,36,9999,9999,9999,3370957888
7723,13,Improv_Metronome,37,9999,9999,9999,3371457652
7723,13,Improv_Metronome,38,9999,9999,9999,3371957344
7723,13,Improv_Metronome,39,9999,9999,9999,3372458092
7723,13,Improv_Metronome,40,9999,9999,9999,3372957796
7723,13,Improv_Metronome,41,9999,9999,9999,3373457488
7723,13,Improv_Metronome,42,9999,9999,9999,3373957232
7723,13,Improv_Metronome,43,9999,9999,9999,3374457948
7723,13,Improv_Metronome,44,9999,9999,9999,3374957640
7723,13,Improv_Metronome,45,9999,9999,9999,3375457360
7723,13,Improv_Metronome,46,9999,9999,9999,3375958100
7723,13,Improv_Metronome,47,9999,9999,9999,3376457796
7723,13,Improv_Metronome,48,9999,9999,9999,3376957488
7723,13,Improv_Metronome,49,9999,9999,9999,3377457232
7723,13,Improv_Metronome,50,9999,9999,9999,3377957976
7723,13,Improv_Metronome,51,9999,9999,9999,3378457668
7723,13,Improv_Metronome,52,9999,9999,9999,3378957432
7723,13,Improv_Metronome,53,9999,9999,9999,3379457128
7723,13,Improv_Metronome,54,9999,9999,9999,3379957868
7723,13,Improv_Metronome,55,9999,9999,9999,3380457544
7723,13,Improv_Metronome,56,9999,9999,9999,3380957240
7723,13,Improv_Metronome,57,9999,9999,9999,3381457976
7723,13,Improv_Metronome,58,9999,9999,9999,3381957744
7723,13,Improv_Metronome,59,9999,9999,9999,3382457440
7723,13,Improv_Metronome,60,9999,9999,9999,3382957136
7723,13,Improv_Metronome,61,9999,9999,9999,3383457876
7723,13,Improv_Metronome,62,9999,9999,9999,3383957572
7723,13,Improv_Metronome,63,9999,9999,9999,3384457320
7723,13,Improv_Metronome,64,9999,9999,9999,3384958020
7723,13,Improv_Metronome,65,9999,9999,9999,3385457728
7723,13,Improv_Metronome,66,9999,9999,9999,3385957496
7723,13,Improv_Metronome,67,9999,9999,9999,3386457192
7723,13,Improv_Metronome,68,9999,9999,9999,3386957932
7723,13,Improv_Metronome,69,9999,9999,9999,3387457628
7723,13,Improv_Metronome,70,9999,9999,9999,3387957356
7723,13,Improv_Metronome,71,9999,9999,9999,3388458076
7723,13,Improv_Metronome,72,9999,9999,9999,3388957772
7723,13,Improv_Metronome,73,9999,9999,9999,3389457464
7723,13,Improv_Metronome,74,9999,9999,9999,3389957188
7723,13,Improv_Metronome,75,9999,9999,9999,3390457956
7723,13,Improv_Metronome,76,9999,9999,9999,3390957676
7723,13,Improv_Metronome,77,9999,9999,9999,3391457372
7723,13,Improv_Metronome,78,9999,9999,9999,3391958112
7723,13,Improv_Metronome,79,9999,9999,9999,3392457808
7723,13,Improv_Metronome,80,9999,9999,9999,3392957500
7723,13,Improv_Metronome,81,9999,9999,9999,3393457268
7723,13,Improv_Metronome,82,9999,9999,9999,3393957936
7723,13,Improv_Metronome,83,9999,9999,9999,3394457700
7723,13,Improv_Metronome,84,9999,9999,9999,3394957364
7723,13,Improv_Metronome,85,9999,9999,9999,3395457128
7723,13,Improv_Metronome,86,9999,9999,9999,3395957856
7723,13,Improv_Metronome,87,9999,9999,9999,3396457548
7723,13,Improv_Metronome,88,9999,9999,9999,3396957260
7723,13,Improv_Metronome,89,9999,9999,9999,3397457984
7723,13,Improv_Metronome,90,9999,9999,9999,3397957708
7723,13,Improv_Metronome,91,9999,9999,9999,3398457428
7723,13,Improv_Metronome,92,9999,9999,9999,3398957172
7723,13,Improv_Metronome,93,9999,9999,9999,3399457892
7723,13,Improv_Metronome,94,9999,9999,9999,3399957588
7723,13,Improv_Metronome,95,9999,9999,9999,3400457280
7723,13,Improv_Metronome,96,9999,9999,9999,3400958020
7723,13,Improv_Metronome,97,9999,9999,9999,3401457716
7723,13,Improv_Metronome,98,9999,9999,9999,3401957488
7723,13,Improv_Metronome,99,9999,9999,9999,3402457176
7723,13,Improv_Metronome,100,9999,9999,9999,3402957916
7723,13,Improv_Metronome,101,9999,9999,9999,3403457616
7723,13,Improv_Metronome,102,9999,9999,9999,3403957364
7723,13,Improv_Metronome,103,9999,9999,9999,3404458044
7723,13,Improv_Metronome,104,9999,9999,9999,3404957792
7723,13,Improv_Metronome,105,9999,9999,9999,3405457464
7723,13,Improv_Metronome,106,9999,9999,9999,3405957236
7723,13,Improv_Metronome,107,9999,9999,9999,3406457976
7723,13,Improv_Metronome,108,9999,9999,9999,3406957656
7723,13,Improv_Metronome,109,9999,9999,9999,3407457368
7723,13,Improv_Metronome,110,9999,9999,9999,3407958092
7723,13,Improv_Metronome,111,9999,9999,9999,3408457788
7723,13,Improv_Metronome,112,9999,9999,9999,3408957556
7723,13,Improv_Metronome,113,9999,9999,9999,3409457200
7723,13,Improv_Metronome,114,9999,9999,9999,3409957944
7723,13,Improv_Metronome,115,9999,9999,9999,3410457672
7723,13,Improv_Metronome,116,9999,9999,9999,3410957364
7723,13,Improv_Metronome,117,9999,9999,9999,3411457136
7723,13,Improv_Metronome,118,9999,9999,9999,3411957876
7723,13,Improv_Metronome,119,9999,9999,9999,3412457524
7723,13,Improv_Metronome,120,9999,9999,9999,3412957244
7723,13,Improv_Metronome,121,9999,9999,9999,3413457984
7723,13,Improv_Metronome,122,9999,9999,9999,3413957752
7723,13,Improv_Metronome,123,9999,9999,9999,3414457460
7723,13,Improv_Metronome,124,9999,9999,9999,3414957104
7723,13,Improv_Metronome,125,9999,9999,9999,3415457848
7723,13,Improv_Metronome,126,9999,9999,9999,3415957616
7723,13,Improv_Metronome,127,9999,9999,9999,3416457336
7723,13,Improv_Metronome,128,9999,9999,9999,3416958060
7723,13,Improv_Metronome,129,9999,9999,9999,3417457752
7723,13,Improv_Metronome,130,9999,9999,9999,3417957448
7723,13,Improv_Metronome,131,9999,9999,9999,3418457144
7723,13,Improv_Metronome,132,9999,9999,9999,3418957888
7723,13,Improv_Metronome,133,9999,9999,9999,3419457656
7723,13,Improv_Metronome,134,9999,9999,9999,3419957328
7723,13,Improv_Metronome,135,9999,9999,9999,3420458036
7723,13,Improv_Metronome,136,9999,9999,9999,3420957804
7723,13,Improv_Metronome,137,9999,9999,9999,3421457496
7723,13,Improv_Metronome,138,9999,9999,9999,3421957232
7723,13,Improv_Metronome,139,9999,9999,9999,3422457972
7724,14,Improv_Melody,0,2,48,80,3480747252
7724,14,Improv_Melody,1,2,72,80,3480749708
7724,14,Improv_Melody,2,5,42,127,3480752172
7724,14,Improv_Melody,3,5,42,110,3481245084
7724,14,Improv_Melody,4,5,42,110,3481745032
7724,14,Improv_Melody,5,5,42,110,3482244380
7724,14,Improv_Melody,6,5,42,127,3482745072
7724,14,Improv_Melody,7,5,42,110,3483245020
7724,14,Improv_Melody,8,5,42,110,3483744888
7724,14,Improv_Melody,9,5,42,110,3484245288
7724,14,Improv_Melody,10,2,43,80,3484747588
7724,14,Improv_Melody,11,2,67,80,3484749736
7724,14,Improv_Melody,12,5,42,127,3484752128
7724,14,Improv_Melody,13,5,42,110,3485245040
7724,14,Improv_Melody,14,5,42,110,3485744812
7724,14,Improv_Melody,15,5,42,110,3486245108
7724,14,Improv_Melody,16,5,42,127,3486744904
7724,14,Improv_Melody,17,5,42,110,3487244924
7724,14,Improv_Melody,18,5,42,110,3487745320
7724,14,Improv_Melody,19,5,42,110,3488245044
7724,14,Improv_Melody,20,2,45,80,3488747264
7724,14,Improv_Melody,21,2,69,80,3488749420
7724,14,Improv_Melody,22,5,42,127,3488752032
7724,14,Improv_Melody,23,5,42,110,3489244648
7724,14,Improv_Melody,24,5,42,110,3489745120
7724,14,Improv_Melody,25,5,42,110,3490244988
7724,14,Improv_Melody,26,5,42,127,3490744636
7724,14,Improv_Melody,27,5,42,110,3491245404
7724,14,Improv_Melody,28,5,42,110,3491745200
7724,14,Improv_Melody,29,5,42,110,3492244700
7724,14,Improv_Melody,30,2,41,80,3492746996
7724,14,Improv_Melody,31,2,65,80,3492749296
7724,14,Improv_Melody,32,5,42,127,3492751836
7724,14,Improv_Melody,33,5,42,110,3493245200
7724,14,Improv_Melody,34,5,42,110,3493745072
7724,14,Improv_Melody,35,5,42,110,3494244644
7724,14,Improv_Melody,36,5,42,127,3494744516
7724,14,Improv_Melody,37,5,42,110,3495245136
7724,14,Improv_Melody,38,5,42,110,3495744856
7724,14,Improv_Melody,39,1,48,33,3495825988
7724,14,Improv_Melody,40,5,42,110,3496244556
7724,14,Improv_Melody,41,1,48,22,3496314764
7724,14,Improv_Melody,42,2,48,80,3496747780
7724,14,Improv_Melody,43,2,72,80,3496749784
7724,14,Improv_Melody,44,5,42,127,3496752472
7724,14,Improv_Melody,45,1,48,20,3497070240
7724,14,Improv_Melody,46,5,42,110,3497245064
7724,14,Improv_Melody,47,1,48,23,3497501620
7724,14,Improv_Melody,48,5,42,110,3497744616
7724,14,Improv_Melody,49,1,48,30,3498120948
7724,14,Improv_Melody,50,5,42,110,3498244540
7724,14,Improv_Melody,51,1,38,32,3498627160
7724,14,Improv_Melody,52,1,48,40,3498662592
7724,14,Improv_Melody,53,5,42,127,3498745264
7724,14,Improv_Melody,54,1,48,33,3499191452
7724,14,Improv_Melody,55,5,42,110,3499244816
7724,14,Improv_Melody,56,1,38,38,3499515948
7724,14,Improv_Melody,57,5,42,110,3499744500
7724,14,Improv_Melody,58,1,48,19,3500192944
7724,14,Improv_Melody,59,5,42,110,3500245560
7724,14,Improv_Melody,60,1,48,30,3500686584
7724,14,Improv_Melody,61,2,43,80,3500747540
7724,14,Improv_Melody,62,2,67,80,3500749692
7724,14,Improv_Melody,63,5,42,127,3500752308
7724,14,Improv_Melody,64,1,38,26,3501068468
7724,14,Improv_Melody,65,5,42,110,3501244812
7724,14,Improv_Melody,66,1,48,25,3501547896
7724,14,Improv_Melody,67,5,42,110,3501744436
7724,14,Improv_Melody,68,1,48,23,3502122096
7724,14,Improv_Melody,69,5,42,110,3502245480
7724,14,Improv_Melody,70,1,48,26,3502651212
7724,14,Improv_Melody,71,5,42,127,3502744956
7724,14,Improv_Melody,72,1,48,25,3503124560
7724,14,Improv_Melody,73,5,42,110,3503244656
7724,14,Improv_Melody,74,1,48,31,3503666768
7724,14,Improv_Melody,75,5,42,110,3503745640
7724,14,Improv_Melody,76,1,48,27,3504136972
7724,14,Improv_Melody,77,1,38,47,3504186956
7724,14,Improv_Melody,78,5,42,110,3504245244
7724,14,Improv_Melody,79,1,48,30,3504699732
7724,14,Improv_Melody,80,2,45,80,3504747376
7724,14,Improv_Melody,81,2,69,80,3504749524
7724,14,Improv_Melody,82,5,42,127,3504752140
7724,14,Improv_Melody,83,5,42,110,3505244592
7724,14,Improv_Melody,84,1,48,26,3505292292
7724,14,Improv_Melody,85,1,48,28,3505696720
7724,14,Improv_Melody,86,5,42,110,3505745480
7724,14,Improv_Melody,87,1,48,33,3506130152
7724,14,Improv_Melody,88,5,42,110,3506244864
7724,14,Improv_Melody,89,1,48,32,3506614668
7724,14,Improv_Melody,90,1,38,41,3506618540
7724,14,Improv_Melody,91,5,42,127,3506744668
7724,14,Improv_Melody,92,1,48,26,3507121648
7724,14,Improv_Melody,93,5,42,110,3507245536
7724,14,Improv_Melody,94,1,38,42,3507686500
7724,14,Improv_Melody,95,5,42,110,3507745328
7724,14,Improv_Melody,96,1,38,46,3508216712
7724,14,Improv_Melody,97,5,42,110,3508244952
7724,14,Improv_Melody,98,2,41,80,3508747012
7724,14,Improv_Melody,99,2,65,80,3508749164
7724,14,Improv_Melody,100,5,42,127,3508751704
7724,14,Improv_Melody,101,1,38,41,3508771208
7724,14,Improv_Melody,102,5,42,110,3509245492
7724,14,Improv_Melody,103,1,38,40,3509336380
7724,14,Improv_Melody,104,5,42,110,3509745340
7724,14,Improv_Melody,105,1,38,35,3509805008
7724,14,Improv_Melody,106,5,42,110,3510244596
7724,14,Improv_Melody,107,1,38,37,3510275836
7724,14,Improv_Melody,108,1,38,42,3510675588
7724,14,Improv_Melody,109,1,48,37,3510717376
7724,14,Improv_Melody,110,5,42,127,3510744420
7724,14,Improv_Melody,111,1,48,24,3511228720
7724,14,Improv_Melody,112,5,42,110,3511245436
7724,14,Improv_Melody,113,1,48,25,3511736576
7724,14,Improv_Melody,114,5,42,110,3511744764
7724,14,Improv_Melody,115,1,38,36,3512191696
7724,14,Improv_Melody,116,1,48,32,3512200356
7724,14,Improv_Melody,117,5,42,110,3512244596
7724,14,Improv_Melody,118,1,48,24,3512712220
7724,14,Improv_Melody,119,2,48,80,3512747896
7724,14,Improv_Melody,120,2,72,80,3512750276
7724,14,Improv_Melody,121,5,42,127,3512752808
7724,14,Improv_Melody,122,5,42,110,3513245184
7724,14,Improv_Melody,123,1,48,27,3513260276
7724,14,Improv_Melody,124,1,48,27,3513726292
7724,14,Improv_Melody,125,1,38,29,3513744340
7724,14,Improv_Melody,126,5,42,110,3513746584
7724,14,Improv_Melody,127,1,48,26,3514190864
7724,14,Improv_Melody,128,5,42,110,3514244456
7724,14,Improv_Melody,129,1,48,33,3514716668
7724,14,Improv_Melody,130,5,42,127,3514745204
7724,14,Improv_Melody,131,1,38,29,3515140200
7724,14,Improv_Melody,132,5,42,110,3515244888
7724,14,Improv_Melody,133,1,38,36,3515649472
7724,14,Improv_Melody,134,5,42,110,3515744660
7724,14,Improv_Melody,135,1,38,41,3516193524
7724,14,Improv_Melody,136,5,42,110,3516245272
7724,14,Improv_Melody,137,1,48,29,3516678192
7724,14,Improv_Melody,138,2,43,80,3516747476
7724,14,Improv_Melody,139,2,67,80,3516749776
7724,14,Improv_Melody,140,5,42,127,3516752464
7724,14,Improv_Melody,141,1,48,39,3517221360
7724,14,Improv_Melody,142,5,42,110,3517244908
7724,14,Improv_Melody,143,1,48,38,3517683212
7724,14,Improv_Melody,144,5,42,110,3517744512
7724,14,Improv_Melody,145,1,48,39,3518192764
7724,14,Improv_Melody,146,5,42,110,3518245084
7724,14,Improv_Melody,147,1,48,41,3518660000
7724,14,Improv_Melody,148,1,38,43,3518686460
7724,14,Improv_Melody,149,5,42,127,3518745136
7724,14,Improv_Melody,150,1,38,44,3519185244
7724,14,Improv_Melody,151,1,48,35,3519208640
7724,14,Improv_Melody,152,5,42,110,3519244580
7724,14,Improv_Melody,153,1,48,35,3519703312
7724,14,Improv_Melody,154,5,42,110,3519745460
7724,14,Improv_Melody,155,5,42,110,3520245096
7724,14,Improv_Melody,156,1,48,33,3520285088
7724,14,Improv_Melody,157,1,38,40,3520683936
7724,14,Improv_Melody,158,1,48,40,3520696636
7724,14,Improv_Melody,159,2,45,80,3520747348
7724,14,Improv_Melody,160,2,69,80,3520749348
7724,14,Improv_Melody,161,5,42,127,3520752112
7724,14,Improv_Melody,162,5,42,110,3521244460
7724,14,Improv_Melody,163,1,48,32,3521266056
7724,14,Improv_Melody,164,5,42,110,3521745136
7724,14,Improv_Melody,165,1,48,33,3521803604
7724,14,Improv_Melody,166,1,48,35,3522244832
7724,14,Improv_Melody,167,5,42,110,3522246172
7724,14,Improv_Melody,168,1,38,40,3522731104
7724,14,Improv_Melody,169,5,42,127,3522744828
7724,14,Improv_Melody,170,1,38,46,3523237912
7724,14,Improv_Melody,171,5,42,110,3523245352
7724,14,Improv_Melody,172,5,42,110,3523745056
7724,14,Improv_Melody,173,1,48,29,3523746924
7724,14,Improv_Melody,174,1,38,44,3523750488
7724,14,Improv_Melody,175,1,48,34,3524238844
7724,14,Improv_Melody,176,5,42,110,3524244940
7724,14,Improv_Melody,177,1,38,44,3524246204
7724,14,Improv_Melody,178,1,48,33,3524703124
7724,14,Improv_Melody,179,2,41,80,3524747112
7724,14,Improv_Melody,180,2,65,80,3524749184
7724,14,Improv_Melody,181,5,42,127,3524751576
7724,14,Improv_Melody,182,5,42,110,3525245224
7724,14,Improv_Melody,183,1,48,36,3525264428
7724,14,Improv_Melody,184,1,38,38,3525632656
7724,14,Improv_Melody,185,1,48,36,3525649768
7724,14,Improv_Melody,186,5,42,110,3525745076
7724,14,Improv_Melody,187,1,38,44,3526160204
7724,14,Improv_Melody,188,5,42,110,3526244940
7724,14,Improv_Melody,189,1,48,39,3526670532
7724,14,Improv_Melody,190,5,42,127,3526744344
7724,14,Improv_Melody,191,1,48,40,3527169556
7724,14,Improv_Melody,192,5,42,110,3527245088
7724,14,Improv_Melody,193,1,38,46,3527634916
7724,14,Improv_Melody,194,5,42,110,3527744972
7724,14,Improv_Melody,195,1,38,48,3528081640
7724,14,Improv_Melody,196,5,42,110,3528244524
7724,14,Improv_Melody,197,1,38,44,3528509832
7724,14,Improv_Melody,198,1,48,38,3528530900
7724,14,Improv_Melody,199,2,48,80,3528747852
7724,14,Improv_Melody,200,2,72,80,3528750076
7724,14,Improv_Melody,201,5,42,127,3528752788
7724,14,Improv_Melody,202,1,48,33,3529212128
7724,14,Improv_Melody,203,5,42,110,3529245000
7724,14,Improv_Melody,204,1,48,30,3529735240
7724,14,Improv_Melody,205,5,42,110,3529744776
7724,14,Improv_Melody,206,1,48,37,3530231124
7724,14,Improv_Melody,207,5,42,110,3530244324
7724,14,Improv_Melody,208,1,48,31,3530667916
7724,14,Improv_Melody,209,1,38,29,3530691760
7724,14,Improv_Melody,210,5,42,127,3530745052
7724,14,Improv_Melody,211,1,48,32,3531167716
7724,14,Improv_Melody,212,5,42,110,3531244876
7724,14,Improv_Melody,213,1,48,30,3531687316
7724,14,Improv_Melody,214,5,42,110,3531744576
7724,14,Improv_Melody,215,1,38,31,3532107432
7724,14,Improv_Melody,216,1,48,33,3532114592
7724,14,Improv_Melody,217,5,42,110,3532245260
7724,14,Improv_Melody,218,1,38,39,3532637604
7724,14,Improv_Melody,219,2,43,80,3532747464
7724,14,Improv_Melody,220,2,67,80,3532749688
7724,14,Improv_Melody,221,5,42,127,3532752376
7724,14,Improv_Melody,222,1,38,40,3533048956
7724,14,Improv_Melody,223,1,48,39,3533083716
7724,14,Improv_Melody,224,5,42,110,3533244924
7724,14,Improv_Melody,225,1,48,27,3533611660
7724,14,Improv_Melody,226,5,42,110,3533744548
7724,14,Improv_Melody,227,1,48,27,3534111208
7724,14,Improv_Melody,228,5,42,110,3534245220
7724,14,Improv_Melody,229,1,48,33,3534638436
7724,14,Improv_Melody,230,5,42,127,3534744920
7724,14,Improv_Melody,231,1,48,30,3535171672
7724,14,Improv_Melody,232,5,42,110,3535244784
7724,14,Improv_Melody,233,1,48,25,3535644716
7724,14,Improv_Melody,234,1,38,40,3535703376
7724,14,Improv_Melody,235,5,42,110,3535745360
7724,14,Improv_Melody,236,1,48,34,3536186532
7724,14,Improv_Melody,237,5,42,110,3536245060
7724,14,Improv_Melody,238,1,48,29,3536683140
7724,14,Improv_Melody,239,2,45,80,3536747188
7724,14,Improv_Melody,240,2,69,80,3536749564
7724,14,Improv_Melody,241,5,42,127,3536752104
7724,14,Improv_Melody,242,1,38,33,3536998700
7724,14,Improv_Melody,243,1,48,27,3537001896
7724,14,Improv_Melody,244,5,42,110,3537244560
7724,14,Improv_Melody,245,1,48,27,3537544724
7724,14,Improv_Melody,246,5,42,110,3537745156
7724,14,Improv_Melody,247,1,48,26,3538141136
7724,14,Improv_Melody,248,5,42,110,3538244856
7724,14,Improv_Melody,249,1,48,31,3538650784
7724,14,Improv_Melody,250,5,42,127,3538744928
7724,14,Improv_Melody,251,1,38,35,3539160584
7724,14,Improv_Melody,252,5,42,110,3539245296
7724,14,Improv_Melody,253,1,38,36,3539658792
7724,14,Improv_Melody,254,5,42,110,3539745144
7724,14,Improv_Melody,255,1,48,31,3540187288
7724,14,Improv_Melody,256,1,38,40,3540207460
7724,14,Improv_Melody,257,5,42,110,3540244972
7724,14,Improv_Melody,258,1,38,34,3540703840
7724,14,Improv_Melody,259,1,48,24,3540706368
7724,14,Improv_Melody,260,2,41,80,3540747288
7724,14,Improv_Melody,261,2,65,80,3540749436
7724,14,Improv_Melody,262,5,42,127,3540752044
7724,14,Improv_Melody,263,5,42,110,3541245292
7724,14,Improv_Melody,264,1,48,32,3541266960
7724,14,Improv_Melody,265,1,48,27,3541706200
7724,14,Improv_Melody,266,1,38,27,3541718820
7724,14,Improv_Melody,267,5,42,110,3541744888
7724,14,Improv_Melody,268,1,48,31,3542236608
7724,14,Improv_Melody,269,1,38,32,3542244332
7724,14,Improv_Melody,270,5,42,110,3542246724
7724,14,Improv_Melody,271,1,48,28,3542678668
7724,14,Improv_Melody,272,5,42,127,3542744672
7724,14,Improv_Melody,273,1,48,33,3543238952
7724,14,Improv_Melody,274,5,42,110,3543245196
7724,14,Improv_Melody,275,1,38,33,3543659064
7724,14,Improv_Melody,276,5,42,110,3543744820
7724,14,Improv_Melody,277,1,38,40,3544159588
7724,14,Improv_Melody,278,5,42,110,3544244820
7724,14,Improv_Melody,279,1,48,33,3544636396
7724,14,Improv_Melody,280,2,48,80,3544747984
7724,14,Improv_Melody,281,2,72,80,3544750212
7724,14,Improv_Melody,282,5,42,127,3544752820
7724,14,Improv_Melody,283,1,48,35,3545219588
7724,14,Improv_Melody,284,5,42,110,3545244984
7724,14,Improv_Melody,285,1,48,34,3545712932
7724,14,Improv_Melody,286,5,42,110,3545744760
7724,14,Improv_Melody,287,1,48,28,3546144092
7724,14,Improv_Melody,288,1,38,34,3546147364
7724,14,Improv_Melody,289,5,42,110,3546244620
7724,14,Improv_Melody,290,1,48,25,3546691644
7724,14,Improv_Melody,291,1,38,38,3546715480
7724,14,Improv_Melody,292,5,42,127,3546745140
7724,14,Improv_Melody,293,5,42,110,3547244820
7724,14,Improv_Melody,294,1,38,24,3547258556
7724,14,Improv_Melody,295,1,38,41,3547715520
7724,14,Improv_Melody,296,5,42,110,3547744880
7724,14,Improv_Melody,297,1,38,43,3548162616
7724,14,Improv_Melody,298,1,48,32,3548194756
7724,14,Improv_Melody,299,5,42,110,3548245460
7724,14,Improv_Melody,300,1,48,27,3548677308
7724,14,Improv_Melody,301,2,43,80,3548747712
7724,14,Improv_Melody,302,2,67,80,3548749868
7724,14,Improv_Melody,303,5,42,127,3548752548
7724,14,Improv_Melody,304,1,48,32,3549227432
7724,14,Improv_Melody,305,5,42,110,3549244772
7724,14,Improv_Melody,306,1,48,29,3549717784
7724,14,Improv_Melody,307,5,42,110,3549744696
7724,14,Improv_Melody,308,1,48,27,3550130416
7724,14,Improv_Melody,309,1,38,37,3550135856
7724,14,Improv_Melody,310,5,42,110,3550245356
7724,14,Improv_Melody,311,1,48,31,3550656924
7724,14,Improv_Melody,312,1,38,40,3550662436
7724,14,Improv_Melody,313,5,42,127,3550744900
7724,14,Improv_Melody,314,1,48,32,3551151860
7724,14,Improv_Melody,315,5,42,110,3551244796
7724,14,Improv_Melody,316,1,38,32,3551622088
7724,14,Improv_Melody,317,1,48,28,3551625956
7724,14,Improv_Melody,318,5,42,110,3551745408
7724,14,Improv_Melody,319,1,48,30,3552126752
7724,14,Improv_Melody,320,5,42,110,3552245032
7724,14,Improv_Melody,321,1,48,33,3552672828
7724,14,Improv_Melody,322,2,45,80,3552747328
7724,14,Improv_Melody,323,2,69,80,3552749476
7724,14,Improv_Melody,324,5,42,127,3552751940
7724,14,Improv_Melody,325,1,48,25,3553194828
7724,14,Improv_Melody,326,1,38,30,3553220240
7724,14,Improv_Melody,327,5,42,110,3553244664
7724,14,Improv_Melody,328,1,48,27,3553713628
7724,14,Improv_Melody,329,1,38,38,3553717948
7724,14,Improv_Melody,330,5,42,110,3553745436
7724,14,Improv_Melody,331,5,42,110,3554244892
7724,14,Improv_Melody,332,1,38,36,3554245856
7724,14,Improv_Melody,333,1,48,32,3554250924
7724,14,Improv_Melody,334,1,38,42,3554744336
7724,14,Improv_Melody,335,5,42,127,3554746572
7724,14,Improv_Melody,336,5,42,110,3555245380
7724,14,Improv_Melody,337,1,38,44,3555279168
7724,14,Improv_Melody,338,1,48,33,3555704944
7724,14,Improv_Melody,339,5,42,110,3555745000
7724,14,Improv_Melody,340,1,38,48,3556160664
7724,14,Improv_Melody,341,1,48,40,3556172756
7724,14,Improv_Melody,342,5,42,110,3556244752
7724,14,Improv_Melody,343,1,38,47,3556643984
7724,14,Improv_Melody,344,1,48,41,3556667564
7724,14,Improv_Melody,345,2,41,80,3556747208
7724,14,Improv_Melody,346,2,65,80,3556749364
7724,14,Improv_Melody,347,5,42,127,3556751900
7724,14,Improv_Melody,348,1,38,55,3557158412
7724,14,Improv_Melody,349,1,48,41,3557164000
7724,14,Improv_Melody,350,5,42,110,3557245220
7724,14,Improv_Melody,351,1,38,58,3557644452
7724,14,Improv_Melody,352,1,48,40,3557647724
7724,14,Improv_Melody,353,5,42,110,3557746396
7724,14,Improv_Melody,354,1,38,52,3558109472
7724,14,Improv_Melody,355,1,48,38,3558113864
7724,14,Improv_Melody,356,5,42,110,3558244704
7724,14,Improv_Melody,357,1,38,45,3558641064
7724,14,Improv_Melody,358,1,48,40,3558673128
7724,14,Improv_Melody,359,5,42,127,3558744384
7724,14,Improv_Melody,360,1,48,39,3559140272
7724,14,Improv_Melody,361,5,42,110,3559245116
7724,14,Improv_Melody,362,1,48,44,3559689420
7724,14,Improv_Melody,363,5,42,110,3559744832
7724,14,Improv_Melody,364,1,38,47,3560162568
7724,14,Improv_Melody,365,5,42,110,3560244532
7724,14,Improv_Melody,366,1,38,54,3560643264
7724,14,Improv_Melody,367,2,48,80,3560748052
7724,14,Improv_Melody,368,2,72,80,3560750516
7724,14,Improv_Melody,369,5,42,127,3560752824
7724,14,Improv_Melody,370,1,38,50,3561145444
7724,14,Improv_Melody,371,1,48,43,3561160528
7724,14,Improv_Melody,372,5,42,110,3561245224
7724,14,Improv_Melody,373,1,48,40,3561652884
7724,14,Improv_Melody,374,1,38,43,3561703128
7724,14,Improv_Melody,0,9999,9999,9999,3480743012
7724,14,Improv_Melody,1,9999,9999,9999,3481242720
7724,14,Improv_Melody,2,9999,9999,9999,3481742440
7724,14,Improv_Melody,3,9999,9999,9999,3482242160
7724,14,Improv_Melody,4,9999,9999,9999,3482742856
7724,14,Improv_Melody,5,9999,9999,9999,3483242576
7724,14,Improv_Melody,6,9999,9999,9999,3483742300
7724,14,Improv_Melody,7,9999,9999,9999,3484242992
7724,14,Improv_Melody,8,9999,9999,9999,3484742716
7724,14,Improv_Melody,9,9999,9999,9999,3485242452
7724,14,Improv_Melody,10,9999,9999,9999,3485742148
7724,14,Improv_Melody,11,9999,9999,9999,3486242892
7724,14,Improv_Melody,12,9999,9999,9999,3486742616
7724,14,Improv_Melody,13,9999,9999,9999,3487242336
7724,14,Improv_Melody,14,9999,9999,9999,3487743028
7724,14,Improv_Melody,15,9999,9999,9999,3488242752
7724,14,Improv_Melody,16,9999,9999,9999,3488742472
7724,14,Improv_Melody,17,9999,9999,9999,3489242208
7724,14,Improv_Melody,18,9999,9999,9999,3489742900
7724,14,Improv_Melody,19,9999,9999,9999,3490242620
7724,14,Improv_Melody,20,9999,9999,9999,3490742344
7724,14,Improv_Melody,21,9999,9999,9999,3491243112
7724,14,Improv_Melody,22,9999,9999,9999,3491742832
7724,14,Improv_Melody,23,9999,9999,9999,3492242480
7724,14,Improv_Melody,24,9999,9999,9999,3492742204
7724,14,Improv_Melody,25,9999,9999,9999,3493242984
7724,14,Improv_Melody,26,9999,9999,9999,3493742704
7724,14,Improv_Melody,27,9999,9999,9999,3494242352
7724,14,Improv_Melody,28,9999,9999,9999,3494742072
7724,14,Improv_Melody,29,9999,9999,9999,3495242844
7724,14,Improv_Melody,30,9999,9999,9999,3495742564
7724,14,Improv_Melody,31,9999,9999,9999,3496242264
7724,14,Improv_Melody,32,9999,9999,9999,3496742984
7724,14,Improv_Melody,33,9999,9999,9999,3497242700
7724,14,Improv_Melody,34,9999,9999,9999,3497742396
7724,14,Improv_Melody,35,9999,9999,9999,3498242100
7724,14,Improv_Melody,36,9999,9999,9999,3498742900
7724,14,Improv_Melody,37,9999,9999,9999,3499242600
7724,14,Improv_Melody,38,9999,9999,9999,3499742284
7724,14,Improv_Melody,39,9999,9999,9999,3500243048
7724,14,Improv_Melody,40,9999,9999,9999,3500742744
7724,14,Improv_Melody,41,9999,9999,9999,3501242444
7724,14,Improv_Melody,42,9999,9999,9999,3501742144
7724,14,Improv_Melody,43,9999,9999,9999,3502242892
7724,14,Improv_Melody,44,9999,9999,9999,3502742640
7724,14,Improv_Melody,45,9999,9999,9999,3503242292
7724,14,Improv_Melody,46,9999,9999,9999,3503743052
7724,14,Improv_Melody,47,9999,9999,9999,3504242804
7724,14,Improv_Melody,48,9999,9999,9999,3504742504
7724,14,Improv_Melody,49,9999,9999,9999,3505242224
7724,14,Improv_Melody,50,9999,9999,9999,3505742964
7724,14,Improv_Melody,51,9999,9999,9999,3506242648
7724,14,Improv_Melody,52,9999,9999,9999,3506742376
7724,14,Improv_Melody,53,9999,9999,9999,3507243096
7724,14,Improv_Melody,54,9999,9999,9999,3507742812
7724,14,Improv_Melody,55,9999,9999,9999,3508242512
7724,14,Improv_Melody,56,9999,9999,9999,3508742216
7724,14,Improv_Melody,57,9999,9999,9999,3509242976
7724,14,Improv_Melody,58,9999,9999,9999,3509742676
7724,14,Improv_Melody,59,9999,9999,9999,3510242376
7724,14,Improv_Melody,60,9999,9999,9999,3510742128
7724,14,Improv_Melody,61,9999,9999,9999,3511242848
7724,14,Improv_Melody,62,9999,9999,9999,3511742548
7724,14,Improv_Melody,63,9999,9999,9999,3512242232
7724,14,Improv_Melody,64,9999,9999,9999,3512743024
7724,14,Improv_Melody,65,9999,9999,9999,3513242744
7724,14,Improv_Melody,66,9999,9999,9999,3513742440
7724,14,Improv_Melody,67,9999,9999,9999,3514242164
7724,14,Improv_Melody,68,9999,9999,9999,3514742840
7724,14,Improv_Melody,69,9999,9999,9999,3515242596
7724,14,Improv_Melody,70,9999,9999,9999,3515742296
7724,14,Improv_Melody,71,9999,9999,9999,3516243056
7724,14,Improv_Melody,72,9999,9999,9999,3516742756
7724,14,Improv_Melody,73,9999,9999,9999,3517242468
7724,14,Improv_Melody,74,9999,9999,9999,3517742144
7724,14,Improv_Melody,75,9999,9999,9999,3518242868
7724,14,Improv_Melody,76,9999,9999,9999,3518742624
7724,14,Improv_Melody,77,9999,9999,9999,3519242288
7724,14,Improv_Melody,78,9999,9999,9999,3519743096
7724,14,Improv_Melody,79,9999,9999,9999,3520242800
7724,14,Improv_Melody,80,9999,9999,9999,3520742476
7724,14,Improv_Melody,81,9999,9999,9999,3521242168
7724,14,Improv_Melody,82,9999,9999,9999,3521742916
7724,14,Improv_Melody,83,9999,9999,9999,3522242616
7724,14,Improv_Melody,84,9999,9999,9999,3522742388
7724,14,Improv_Melody,85,9999,9999,9999,3523243060
7724,14,Improv_Melody,86,9999,9999,9999,3523742840
7724,14,Improv_Melody,87,9999,9999,9999,3524242500
7724,14,Improv_Melody,88,9999,9999,9999,3524742240
7724,14,Improv_Melody,89,9999,9999,9999,3525242932
7724,14,Improv_Melody,90,9999,9999,9999,3525742664
7724,14,Improv_Melody,91,9999,9999,9999,3526242424
7724,14,Improv_Melody,92,9999,9999,9999,3526742124
7724,14,Improv_Melody,93,9999,9999,9999,3527242872
7724,14,Improv_Melody,94,9999,9999,9999,3527742532
7724,14,Improv_Melody,95,9999,9999,9999,3528242232
7724,14,Improv_Melody,96,9999,9999,9999,3528742980
7724,14,Improv_Melody,97,9999,9999,9999,3529242708
7724,14,Improv_Melody,98,9999,9999,9999,3529742412
7724,14,Improv_Melody,99,9999,9999,9999,3530242108
7724,14,Improv_Melody,100,9999,9999,9999,3530742836
7724,14,Improv_Melody,101,9999,9999,9999,3531242584
7724,14,Improv_Melody,102,9999,9999,9999,3531742284
7724,14,Improv_Melody,103,9999,9999,9999,3532243044
7724,14,Improv_Melody,104,9999,9999,9999,3532742744
7724,14,Improv_Melody,105,9999,9999,9999,3533242484
7724,14,Improv_Melody,106,9999,9999,9999,3533742184
7724,14,Improv_Melody,107,9999,9999,9999,3534242928
7724,14,Improv_Melody,108,9999,9999,9999,3534742628
7724,14,Improv_Melody,109,9999,9999,9999,3535242344
7724,14,Improv_Melody,110,9999,9999,9999,3535743068
7724,14,Improv_Melody,111,9999,9999,9999,3536242768
7724,14,Improv_Melody,112,9999,9999,9999,3536742468
7724,14,Improv_Melody,113,9999,9999,9999,3537242192
7724,14,Improv_Melody,114,9999,9999,9999,3537742940
7724,14,Improv_Melody,115,9999,9999,9999,3538242640
7724,14,Improv_Melody,116,9999,9999,9999,3538742412
7724,14,Improv_Melody,117,9999,9999,9999,3539243080
7724,14,Improv_Melody,118,9999,9999,9999,3539742776
7724,14,Improv_Melody,119,9999,9999,9999,3540242532
7724,14,Improv_Melody,120,9999,9999,9999,3540742260
7724,14,Improv_Melody,121,9999,9999,9999,3541243000
7724,14,Improv_Melody,122,9999,9999,9999,3541742672
7724,14,Improv_Melody,123,9999,9999,9999,3542242356
7724,14,Improv_Melody,124,9999,9999,9999,3542742084
7724,14,Improv_Melody,125,9999,9999,9999,3543242832
7724,14,Improv_Melody,126,9999,9999,9999,3543742532
7724,14,Improv_Melody,127,9999,9999,9999,3544242232
7724,14,Improv_Melody,128,9999,9999,9999,3544742960
7724,14,Improv_Melody,129,9999,9999,9999,3545242692
7724,14,Improv_Melody,130,9999,9999,9999,3545742392
7724,14,Improv_Melody,131,9999,9999,9999,3546242104
7724,14,Improv_Melody,132,9999,9999,9999,3546742848
7724,14,Improv_Melody,133,9999,9999,9999,3547242600
7724,14,Improv_Melody,134,9999,9999,9999,3547742292
7724,14,Improv_Melody,135,9999,9999,9999,3548243020
7724,14,Improv_Melody,136,9999,9999,9999,3548742768
7724,14,Improv_Melody,137,9999,9999,9999,3549242480
7724,14,Improv_Melody,138,9999,9999,9999,3549742156
7724,14,Improv_Melody,139,9999,9999,9999,3550242916
7724,14,Improv_Melody,140,9999,9999,9999,3550742612
7724,14,Improv_Melody,141,9999,9999,9999,3551242360
7724,14,Improv_Melody,142,9999,9999,9999,3551743040
7724,14,Improv_Melody,143,9999,9999,9999,3552242740
7724,14,Improv_Melody,144,9999,9999,9999,3552742456
7724,14,Improv_Melody,145,9999,9999,9999,3553242224
7724,14,Improv_Melody,146,9999,9999,9999,3553742920
7724,14,Improv_Melody,147,9999,9999,9999,3554242672
7724,14,Improv_Melody,148,9999,9999,9999,3554742340
7724,14,Improv_Melody,149,9999,9999,9999,3555243088
7724,14,Improv_Melody,150,9999,9999,9999,3555742780
7724,14,Improv_Melody,151,9999,9999,9999,3556242536
7724,14,Improv_Melody,152,9999,9999,9999,3556742240
7724,14,Improv_Melody,153,9999,9999,9999,3557242932
7724,14,Improv_Melody,154,9999,9999,9999,3557742656
7724,14,Improv_Melody,155,9999,9999,9999,3558242412
7724,14,Improv_Melody,156,9999,9999,9999,3558742092
7724,14,Improv_Melody,157,9999,9999,9999,3559242824
7724,14,Improv_Melody,158,9999,9999,9999,3559742540
7724,14,Improv_Melody,159,9999,9999,9999,3560242240
7724,14,Improv_Melody,160,9999,9999,9999,3560743024
7724,14,Improv_Melody,161,9999,9999,9999,3561242708
77