pid,taskRunCount,taskID,taskName,i,channel,pitch,velocity,microseconds
70,1,0,Ticks_Pract_8,0,5,42,127,99066216
70,1,0,Ticks_Pract_8,1,5,42,127,99865896
70,1,0,Ticks_Pract_8,2,1,48,20,100599196
70,1,0,Ticks_Pract_8,3,5,42,127,100665572
70,1,0,Ticks_Pract_8,4,1,48,27,101370724
70,1,0,Ticks_Pract_8,5,5,42,127,101465536
70,1,0,Ticks_Pract_8,6,1,48,26,102220828
70,1,0,Ticks_Pract_8,7,5,42,127,102266184
70,1,0,Ticks_Pract_8,8,1,48,25,103060348
70,1,0,Ticks_Pract_8,9,5,42,127,103065992
70,1,0,Ticks_Pract_8,10,5,42,127,103865656
70,1,0,Ticks_Pract_8,11,1,48,23,103875736
70,1,0,Ticks_Pract_8,12,5,42,127,104665392
70,1,0,Ticks_Pract_8,13,1,48,22,104676212
70,1,0,Ticks_Pract_8,14,1,48,24,105436516
70,1,0,Ticks_Pract_8,15,5,42,127,105466240
70,1,0,Ticks_Pract_8,16,5,42,127,106265908
70,1,0,Ticks_Pract_8,17,1,48,23,106267472
70,1,0,Ticks_Pract_8,18,5,42,127,107065640
70,1,0,Ticks_Pract_8,19,1,48,18,107076920
70,1,0,Ticks_Pract_8,20,1,48,16,107864720
70,1,0,Ticks_Pract_8,21,5,42,127,107866444
70,1,0,Ticks_Pract_8,22,1,48,20,108654848
70,1,0,Ticks_Pract_8,23,5,42,127,108666396
70,1,0,Ticks_Pract_8,24,1,48,24,109449572
70,1,0,Ticks_Pract_8,25,5,42,127,109465908
70,1,0,Ticks_Pract_8,26,1,48,24,110251620
70,1,0,Ticks_Pract_8,27,5,42,127,110265716
70,1,0,Ticks_Pract_8,28,1,48,26,111056144
70,1,0,Ticks_Pract_8,29,5,42,127,111065452
70,1,0,Ticks_Pract_8,30,1,48,19,111860436
70,1,0,Ticks_Pract_8,31,5,42,127,111866380
70,1,0,Ticks_Pract_8,32,5,42,127,112665896
70,1,0,Ticks_Pract_8,33,1,48,24,112675296
70,1,0,Ticks_Pract_8,34,5,42,127,113465780
70,1,0,Ticks_Pract_8,35,1,48,23,113508420
70,1,0,Ticks_Pract_8,36,1,48,27,114239144
70,1,0,Ticks_Pract_8,37,5,42,127,114265380
70,1,0,Ticks_Pract_8,38,1,48,26,115019676
70,1,0,Ticks_Pract_8,39,5,42,127,115066308
70,1,0,Ticks_Pract_8,40,1,48,30,115815072
70,1,0,Ticks_Pract_8,41,5,42,127,115866116
70,1,0,Ticks_Pract_8,42,5,42,127,116665784
70,1,0,Ticks_Pract_8,43,1,48,27,116693736
70,1,0,Ticks_Pract_8,44,1,48,28,117443412
70,1,0,Ticks_Pract_8,45,5,42,127,117465512
70,1,0,Ticks_Pract_8,46,1,48,29,118227884
70,1,0,Ticks_Pract_8,47,5,42,127,118266216
70,1,0,Ticks_Pract_8,48,1,48,19,119034352
70,1,0,Ticks_Pract_8,49,5,42,127,119066172
70,1,0,Ticks_Pract_8,50,1,48,27,119854804
70,1,0,Ticks_Pract_8,51,5,42,127,119865684
70,1,0,Ticks_Pract_8,52,1,48,29,120656356
70,1,0,Ticks_Pract_8,53,5,42,127,120665440
70,1,0,Ticks_Pract_8,54,1,48,26,121447792
70,1,0,Ticks_Pract_8,55,5,42,127,121466148
70,1,0,Ticks_Pract_8,56,1,48,28,122222616
70,1,0,Ticks_Pract_8,57,5,42,127,122266176
70,1,0,Ticks_Pract_8,58,1,48,22,123025864
70,1,0,Ticks_Pract_8,0,9999,9999,9999,99063928
70,1,0,Ticks_Pract_8,1,9999,9999,9999,99863608
70,1,0,Ticks_Pract_8,2,9999,9999,9999,100663360
70,1,0,Ticks_Pract_8,3,9999,9999,9999,101463100
70,1,0,Ticks_Pract_8,4,9999,9999,9999,102263896
70,1,0,Ticks_Pract_8,5,9999,9999,9999,103063632
70,1,0,Ticks_Pract_8,6,9999,9999,9999,103863368
70,1,0,Ticks_Pract_8,7,9999,9999,9999,104663104
70,1,0,Ticks_Pract_8,8,9999,9999,9999,105463880
70,1,0,Ticks_Pract_8,9,9999,9999,9999,106263620
70,1,0,Ticks_Pract_8,10,9999,9999,9999,107063352
70,1,0,Ticks_Pract_8,11,9999,9999,9999,107863112
70,1,0,Ticks_Pract_8,12,9999,9999,9999,108663884
70,1,0,Ticks_Pract_8,13,9999,9999,9999,109463620
70,1,0,Ticks_Pract_8,14,9999,9999,9999,110263352
70,1,0,Ticks_Pract_8,15,9999,9999,9999,111063088
70,1,0,Ticks_Pract_8,16,9999,9999,9999,111863868
70,1,0,Ticks_Pract_8,17,9999,9999,9999,112663608
70,1,0,Ticks_Pract_8,18,9999,9999,9999,113463340
70,1,0,Ticks_Pract_8,19,9999,9999,9999,114263092
70,1,0,Ticks_Pract_8,20,9999,9999,9999,115063872
70,1,0,Ticks_Pract_8,21,9999,9999,9999,115863608
70,1,0,Ticks_Pract_8,22,9999,9999,9999,116663348
70,1,0,Ticks_Pract_8,23,9999,9999,9999,117463148
70,1,0,Ticks_Pract_8,24,9999,9999,9999,118263928
70,1,0,Ticks_Pract_8,25,9999,9999,9999,119063660
70,1,0,Ticks_Pract_8,26,9999,9999,9999,119863396
70,1,0,Ticks_Pract_8,27,9999,9999,9999,120663156
70,1,0,Ticks_Pract_8,28,9999,9999,9999,121463860
70,1,0,Ticks_Pract_8,29,9999,9999,9999,122263668
70,2,1,Ticks_Pract_5,0,5,42,127,165307824
70,2,1,Ticks_Pract_5,1,5,42,127,165807468
70,2,1,Ticks_Pract_5,2,1,48,35,166194992
70,2,1,Ticks_Pract_5,3,5,42,127,166308132
70,2,1,Ticks_Pract_5,4,1,48,40,166653620
70,2,1,Ticks_Pract_5,5,5,42,127,166808048
70,2,1,Ticks_Pract_5,6,1,48,40,167242804
70,2,1,Ticks_Pract_5,7,5,42,127,167307536
70,2,1,Ticks_Pract_5,8,1,48,35,167743440
70,2,1,Ticks_Pract_5,9,5,42,127,167808352
70,2,1,Ticks_Pract_5,10,1,48,40,168243364
70,2,1,Ticks_Pract_5,11,5,42,127,168307972
70,2,1,Ticks_Pract_5,12,1,48,40,168762656
70,2,1,Ticks_Pract_5,13,5,42,127,168807744
70,2,1,Ticks_Pract_5,14,1,48,35,169252028
70,2,1,Ticks_Pract_5,15,5,42,127,169307436
70,2,1,Ticks_Pract_5,16,1,48,38,169756280
70,2,1,Ticks_Pract_5,17,5,42,127,169808104
70,2,1,Ticks_Pract_5,18,1,48,38,170215960
70,2,1,Ticks_Pract_5,19,5,42,127,170307848
70,2,1,Ticks_Pract_5,20,1,48,36,170759984
70,2,1,Ticks_Pract_5,21,5,42,127,170807740
70,2,1,Ticks_Pract_5,22,1,48,31,171273368
70,2,1,Ticks_Pract_5,23,5,42,127,171308260
70,2,1,Ticks_Pract_5,24,5,42,127,171807960
70,2,1,Ticks_Pract_5,25,1,48,26,172058908
70,2,1,Ticks_Pract_5,26,1,48,32,172302296
70,2,1,Ticks_Pract_5,27,5,42,127,172307796
70,2,1,Ticks_Pract_5,28,1,48,43,172787864
70,2,1,Ticks_Pract_5,29,5,42,127,172807640
70,2,1,Ticks_Pract_5,30,1,48,42,173257036
70,2,1,Ticks_Pract_5,31,5,42,127,173308232
70,2,1,Ticks_Pract_5,32,1,48,39,173789568
70,2,1,Ticks_Pract_5,33,5,42,127,173807852
70,2,1,Ticks_Pract_5,34,1,48,33,174245872
70,2,1,Ticks_Pract_5,35,5,42,127,174307696
70,2,1,Ticks_Pract_5,36,1,48,37,174802788
70,2,1,Ticks_Pract_5,37,5,42,127,174808364
70,2,1,Ticks_Pract_5,38,1,48,28,175259780
70,2,1,Ticks_Pract_5,39,5,42,127,175308204
70,2,1,Ticks_Pract_5,40,1,48,47,175750720
70,2,1,Ticks_Pract_5,41,5,42,127,175807752
70,2,1,Ticks_Pract_5,42,1,48,38,176270388
70,2,1,Ticks_Pract_5,43,5,42,127,176307744
70,2,1,Ticks_Pract_5,44,1,48,40,176782196
70,2,1,Ticks_Pract_5,45,5,42,127,176808260
70,2,1,Ticks_Pract_5,46,1,48,39,177291088
70,2,1,Ticks_Pract_5,47,5,42,127,177307956
70,2,1,Ticks_Pract_5,48,1,48,43,177743964
70,2,1,Ticks_Pract_5,49,5,42,127,177807724
70,2,1,Ticks_Pract_5,50,1,48,29,178265796
70,2,1,Ticks_Pract_5,51,5,42,127,178307568
70,2,1,Ticks_Pract_5,52,1,48,40,178741004
70,2,1,Ticks_Pract_5,53,5,42,127,178808088
70,2,1,Ticks_Pract_5,54,1,48,37,179242792
70,2,1,Ticks_Pract_5,55,5,42,127,179307856
70,2,1,Ticks_Pract_5,56,1,48,35,179763208
70,2,1,Ticks_Pract_5,57,5,42,127,179807620
70,2,1,Ticks_Pract_5,58,1,48,33,180214060
70,2,1,Ticks_Pract_5,59,5,42,127,180308348
70,2,1,Ticks_Pract_5,60,1,48,38,180770076
70,2,1,Ticks_Pract_5,61,5,42,127,180808056
70,2,1,Ticks_Pract_5,62,1,48,35,181289068
70,2,1,Ticks_Pract_5,63,5,42,127,181307872
70,2,1,Ticks_Pract_5,64,1,48,35,181757496
70,2,1,Ticks_Pract_5,65,5,42,127,181807568
70,2,1,Ticks_Pract_5,66,1,48,38,182298032
70,2,1,Ticks_Pract_5,67,5,42,127,182308312
70,2,1,Ticks_Pract_5,68,1,48,38,182766684
70,2,1,Ticks_Pract_5,69,5,42,127,182807784
70,2,1,Ticks_Pract_5,70,1,48,29,183283580
70,2,1,Ticks_Pract_5,71,5,42,127,183307852
70,2,1,Ticks_Pract_5,72,1,48,42,183743184
70,2,1,Ticks_Pract_5,73,5,42,127,183808516
70,2,1,Ticks_Pract_5,74,1,48,40,184281180
70,2,1,Ticks_Pract_5,75,5,42,127,184307988
70,2,1,Ticks_Pract_5,76,1,48,35,184800092
70,2,1,Ticks_Pract_5,77,5,42,127,184807684
70,2,1,Ticks_Pract_5,0,9999,9999,9999,165305460
70,2,1,Ticks_Pract_5,1,9999,9999,9999,165805176
70,2,1,Ticks_Pract_5,2,9999,9999,9999,166305844
70,2,1,Ticks_Pract_5,3,9999,9999,9999,166805612
70,2,1,Ticks_Pract_5,4,9999,9999,9999,167305320
70,2,1,Ticks_Pract_5,5,9999,9999,9999,167806060
70,2,1,Ticks_Pract_5,6,9999,9999,9999,168305756
70,2,1,Ticks_Pract_5,7,9999,9999,9999,168805452
70,2,1,Ticks_Pract_5,8,9999,9999,9999,169305144
70,2,1,Ticks_Pract_5,9,9999,9999,9999,169805888
70,2,1,Ticks_Pract_5,10,9999,9999,9999,170305632
70,2,1,Ticks_Pract_5,11,9999,9999,9999,170805304
70,2,1,Ticks_Pract_5,12,9999,9999,9999,171306044
70,2,1,Ticks_Pract_5,13,9999,9999,9999,171805744
70,2,1,Ticks_Pract_5,14,9999,9999,9999,172305508
70,2,1,Ticks_Pract_5,15,9999,9999,9999,172805200
70,2,1,Ticks_Pract_5,16,9999,9999,9999,173305940
70,2,1,Ticks_Pract_5,17,9999,9999,9999,173805636
70,2,1,Ticks_Pract_5,18,9999,9999,9999,174305332
70,2,1,Ticks_Pract_5,19,9999,9999,9999,174806076
70,2,1,Ticks_Pract_5,20,9999,9999,9999,175305844
70,2,1,Ticks_Pract_5,21,9999,9999,9999,175805536
70,2,1,Ticks_Pract_5,22,9999,9999,9999,176305232
70,2,1,Ticks_Pract_5,23,9999,9999,9999,176805972
70,2,1,Ticks_Pract_5,24,9999,9999,9999,177305664
70,2,1,Ticks_Pract_5,25,9999,9999,9999,177805360
70,2,1,Ticks_Pract_5,26,9999,9999,9999,178305132
70,2,1,Ticks_Pract_5,27,9999,9999,9999,178805872
70,2,1,Ticks_Pract_5,28,9999,9999,9999,179305564
70,2,1,Ticks_Pract_5,29,9999,9999,9999,179805256
70,2,1,Ticks_Pract_5,30,9999,9999,9999,180305984
70,2,1,Ticks_Pract_5,31,9999,9999,9999,180805692
70,2,1,Ticks_Pract_5,32,9999,9999,9999,181305436
70,2,1,Ticks_Pract_5,33,9999,9999,9999,181805132
70,2,1,Ticks_Pract_5,34,9999,9999,9999,182305872
70,2,1,Ticks_Pract_5,35,9999,9999,9999,182805568
70,2,1,Ticks_Pract_5,36,9999,9999,9999,183305336
70,2,1,Ticks_Pract_5,37,9999,9999,9999,183806004
70,2,1,Ticks_Pract_5,38,9999,9999,9999,184305772
70,2,1,Ticks_Pract_5,39,9999,9999,9999,184805468
70,3,2,T1_SMS_8,0,5,42,127,274238768
70,3,2,T1_SMS_8,1,1,48,29,274711568
70,3,2,T1_SMS_8,2,5,42,127,275038504
70,3,2,T1_SMS_8,3,1,48,20,275258980
70,3,2,T1_SMS_8,4,5,42,127,275839580
70,3,2,T1_SMS_8,5,1,48,40,276023032
70,3,2,T1_SMS_8,6,5,42,127,276638940
70,3,2,T1_SMS_8,7,1,48,36,276799452
70,3,2,T1_SMS_8,8,5,42,127,277438896
70,3,2,T1_SMS_8,9,1,48,29,277549428
70,3,2,T1_SMS_8,10,5,42,127,278238704
70,3,2,T1_SMS_8,11,1,48,22,278377084
70,3,2,T1_SMS_8,12,5,42,127,279039632
70,3,2,T1_SMS_8,13,1,48,32,279066460
70,3,2,T1_SMS_8,14,1,48,30,279821224
70,3,2,T1_SMS_8,15,5,42,127,279838988
70,3,2,T1_SMS_8,16,1,48,32,280622384
70,3,2,T1_SMS_8,17,5,42,127,280638896
70,3,2,T1_SMS_8,18,1,48,31,281382620
70,3,2,T1_SMS_8,19,5,42,127,281438704
70,3,2,T1_SMS_8,20,5,42,127,282239488
70,3,2,T1_SMS_8,21,1,48,27,282276488
70,3,2,T1_SMS_8,22,5,42,127,283039372
70,3,2,T1_SMS_8,23,1,48,32,283078320
70,3,2,T1_SMS_8,24,5,42,127,283838812
70,3,2,T1_SMS_8,25,1,48,30,283843496
70,3,2,T1_SMS_8,26,1,48,27,284628924
70,3,2,T1_SMS_8,27,5,42,127,284638536
70,3,2,T1_SMS_8,28,1,48,29,285420208
70,3,2,T1_SMS_8,29,5,42,127,285439392
70,3,2,T1_SMS_8,30,1,48,28,286237008
70,3,2,T1_SMS_8,31,5,42,127,286239272
70,3,2,T1_SMS_8,32,5,42,127,287038964
70,3,2,T1_SMS_8,33,1,48,26,287043052
70,3,2,T1_SMS_8,34,5,42,127,287838548
70,3,2,T1_SMS_8,35,1,48,30,287839512
70,3,2,T1_SMS_8,36,1,48,32,288636592
70,3,2,T1_SMS_8,37,5,42,127,288639248
70,3,2,T1_SMS_8,38,1,48,32,289417780
70,3,2,T1_SMS_8,39,5,42,127,289439280
70,3,2,T1_SMS_8,40,1,48,27,290227388
70,3,2,T1_SMS_8,41,5,42,127,290238864
70,3,2,T1_SMS_8,42,1,48,28,291033996
70,3,2,T1_SMS_8,43,5,42,127,291038672
70,3,2,T1_SMS_8,44,1,48,28,291832460
70,3,2,T1_SMS_8,45,5,42,127,291839376
70,3,2,T1_SMS_8,46,1,48,27,292625384
70,3,2,T1_SMS_8,47,5,42,127,292639036
70,3,2,T1_SMS_8,48,1,48,30,293428416
70,3,2,T1_SMS_8,49,5,42,127,293438792
70,3,2,T1_SMS_8,50,1,48,30,294220168
70,3,2,T1_SMS_8,51,5,42,127,294238528
70,3,2,T1_SMS_8,52,1,48,33,295016084
70,3,2,T1_SMS_8,53,5,42,127,295039232
70,3,2,T1_SMS_8,54,1,48,28,295773780
70,3,2,T1_SMS_8,55,5,42,127,295838968
70,3,2,T1_SMS_8,56,5,42,127,296639080
70,3,2,T1_SMS_8,57,1,48,18,296648932
70,3,2,T1_SMS_8,58,1,48,31,297392624
70,3,2,T1_SMS_8,59,5,42,127,297438660
70,3,2,T1_SMS_8,60,1,48,25,298238544
70,3,2,T1_SMS_8,61,5,42,127,298240040
70,3,2,T1_SMS_8,62,1,48,34,299025600
70,3,2,T1_SMS_8,63,5,42,127,299039100
70,3,2,T1_SMS_8,64,5,42,127,299839012
70,3,2,T1_SMS_8,65,1,48,37,299872196
70,3,2,T1_SMS_8,66,5,42,127,300638524
70,3,2,T1_SMS_8,67,1,48,28,300643884
70,3,2,T1_SMS_8,68,1,48,32,301399472
70,3,2,T1_SMS_8,69,5,42,127,301439296
70,3,2,T1_SMS_8,70,5,42,127,302239036
70,3,2,T1_SMS_8,71,1,48,28,302244924
70,3,2,T1_SMS_8,72,5,42,127,303038920
70,3,2,T1_SMS_8,73,1,48,32,303043612
70,3,2,T1_SMS_8,74,1,48,29,303775332
70,3,2,T1_SMS_8,75,5,42,127,303838424
70,3,2,T1_SMS_8,76,5,42,127,304639360
70,3,2,T1_SMS_8,77,1,48,29,304644644
70,3,2,T1_SMS_8,78,1,48,34,305438868
70,3,2,T1_SMS_8,79,5,42,127,305440132
70,3,2,T1_SMS_8,80,5,42,127,306238776
70,3,2,T1_SMS_8,81,1,48,30,306252512
70,3,2,T1_SMS_8,82,1,48,37,307010868
70,3,2,T1_SMS_8,83,5,42,127,307038504
70,3,2,T1_SMS_8,84,1,48,30,307829900
70,3,2,T1_SMS_8,85,5,42,127,307839356
70,3,2,T1_SMS_8,86,1,48,32,308619760
70,3,2,T1_SMS_8,87,5,42,127,308639088
70,3,2,T1_SMS_8,88,1,48,28,309423080
70,3,2,T1_SMS_8,89,5,42,127,309438752
70,3,2,T1_SMS_8,90,1,48,33,310208608
70,3,2,T1_SMS_8,91,5,42,127,310238708
70,3,2,T1_SMS_8,92,5,42,127,311039272
70,3,2,T1_SMS_8,93,1,48,31,311069992
70,3,2,T1_SMS_8,94,1,48,27,311834472
70,3,2,T1_SMS_8,95,5,42,127,311839224
70,3,2,T1_SMS_8,96,1,48,32,312624560
70,3,2,T1_SMS_8,97,5,42,127,312638684
70,3,2,T1_SMS_8,98,1,48,30,313424692
70,3,2,T1_SMS_8,99,5,42,127,313438716
70,3,2,T1_SMS_8,100,1,48,33,314229660
70,3,2,T1_SMS_8,101,5,42,127,314239420
70,3,2,T1_SMS_8,102,1,48,31,315038488
70,3,2,T1_SMS_8,103,5,42,127,315039980
70,3,2,T1_SMS_8,104,5,42,127,315838820
70,3,2,T1_SMS_8,105,1,48,36,315860564
70,3,2,T1_SMS_8,106,5,42,127,316638556
70,3,2,T1_SMS_8,107,1,48,29,316650196
70,3,2,T1_SMS_8,108,5,42,127,317439632
70,3,2,T1_SMS_8,109,1,48,27,317443944
70,3,2,T1_SMS_8,110,1,48,28,318233264
70,3,2,T1_SMS_8,111,5,42,127,318239060
70,3,2,T1_SMS_8,112,1,48,31,319027392
70,3,2,T1_SMS_8,113,5,42,127,319038820
70,3,2,T1_SMS_8,114,1,48,28,319836120
70,3,2,T1_SMS_8,115,5,42,127,319838628
70,3,2,T1_SMS_8,116,1,48,29,320615284
70,3,2,T1_SMS_8,117,5,42,127,320639556
70,3,2,T1_SMS_8,118,1,48,34,321420708
70,3,2,T1_SMS_8,119,5,42,127,321439068
70,3,2,T1_SMS_8,120,1,48,32,322215648
70,3,2,T1_SMS_8,121,5,42,127,322238800
70,3,2,T1_SMS_8,122,1,48,27,323021516
70,3,2,T1_SMS_8,123,5,42,127,323038680
70,3,2,T1_SMS_8,124,1,48,29,323796564
70,3,2,T1_SMS_8,125,5,42,127,323839388
70,3,2,T1_SMS_8,126,5,42,127,324638980
70,3,2,T1_SMS_8,127,1,48,32,324647928
70,3,2,T1_SMS_8,128,5,42,127,325438812
70,3,2,T1_SMS_8,129,1,48,28,325468032
70,3,2,T1_SMS_8,130,5,42,127,326238544
70,3,2,T1_SMS_8,131,1,48,23,326257444
70,3,2,T1_SMS_8,132,1,48,35,327008916
70,3,2,T1_SMS_8,133,5,42,127,327039392
70,3,2,T1_SMS_8,134,1,48,32,327781576
70,3,2,T1_SMS_8,135,5,42,127,327839204
70,3,2,T1_SMS_8,136,1,48,29,328567620
70,3,2,T1_SMS_8,137,5,42,127,328638788
70,3,2,T1_SMS_8,138,1,48,27,329382992
70,3,2,T1_SMS_8,139,5,42,127,329438672
70,3,2,T1_SMS_8,140,1,48,28,330230516
70,3,2,T1_SMS_8,141,5,42,127,330239452
70,3,2,T1_SMS_8,142,1,48,33,331024640
70,3,2,T1_SMS_8,143,5,42,127,331039184
70,3,2,T1_SMS_8,144,1,48,28,331803352
70,3,2,T1_SMS_8,145,5,42,127,331838720
70,3,2,T1_SMS_8,146,1,48,32,332606480
70,3,2,T1_SMS_8,147,5,42,127,332638676
70,3,2,T1_SMS_8,148,1,48,32,333431344
70,3,2,T1_SMS_8,149,5,42,127,333439308
70,3,2,T1_SMS_8,150,1,48,26,334210732
70,3,2,T1_SMS_8,151,5,42,127,334239192
70,3,2,T1_SMS_8,152,1,48,26,335015924
70,3,2,T1_SMS_8,153,5,42,127,335038776
70,3,2,T1_SMS_8,154,1,48,30,335793296
70,3,2,T1_SMS_8,155,5,42,127,335838508
70,3,2,T1_SMS_8,156,5,42,127,336639296
70,3,2,T1_SMS_8,157,1,48,32,336642412
70,3,2,T1_SMS_8,158,1,48,28,337388276
70,3,2,T1_SMS_8,159,5,42,127,337439024
70,3,2,T1_SMS_8,160,5,42,127,338238712
70,3,2,T1_SMS_8,161,1,48,29,338258140
70,3,2,T1_SMS_8,162,5,42,127,339038448
70,3,2,T1_SMS_8,163,1,48,26,339070140
70,3,2,T1_SMS_8,164,5,42,127,339839300
70,3,2,T1_SMS_8,165,1,48,30,339849376
70,3,2,T1_SMS_8,166,1,48,32,340614080
70,3,2,T1_SMS_8,167,5,42,127,340639176
70,3,2,T1_SMS_8,168,5,42,127,341438692
70,3,2,T1_SMS_8,169,1,48,24,341439660
70,3,2,T1_SMS_8,170,1,48,34,342213324
70,3,2,T1_SMS_8,171,5,42,127,342238568
70,3,2,T1_SMS_8,172,1,48,30,343010668
70,3,2,T1_SMS_8,173,5,42,127,343039348
70,3,2,T1_SMS_8,174,1,48,24,343839164
70,3,2,T1_SMS_8,175,5,42,127,343840352
70,3,2,T1_SMS_8,176,1,48,35,344606992
70,3,2,T1_SMS_8,177,5,42,127,344638764
70,3,2,T1_SMS_8,178,1,48,32,345426864
70,3,2,T1_SMS_8,179,5,42,127,345438572
70,3,2,T1_SMS_8,180,1,48,27,346227424
70,3,2,T1_SMS_8,181,5,42,127,346239276
70,3,2,T1_SMS_8,182,1,48,26,347003972
70,3,2,T1_SMS_8,183,5,42,127,347039012
70,3,2,T1_SMS_8,184,1,48,32,347828540
70,3,2,T1_SMS_8,185,5,42,127,347838820
70,3,2,T1_SMS_8,186,1,48,30,348635452
70,3,2,T1_SMS_8,187,5,42,127,348638704
70,3,2,T1_SMS_8,188,5,42,127,349439268
70,3,2,T1_SMS_8,189,1,48,26,349459964
70,3,2,T1_SMS_8,190,1,48,32,350213156
70,3,2,T1_SMS_8,191,5,42,127,350239068
70,3,2,T1_SMS_8,192,1,48,28,351014456
70,3,2,T1_SMS_8,193,5,42,127,351038900
70,3,2,T1_SMS_8,194,5,42,127,351838716
70,3,2,T1_SMS_8,195,1,48,33,351851260
70,3,2,T1_SMS_8,196,1,48,28,352632128
70,3,2,T1_SMS_8,197,5,42,127,352639192
70,3,2,T1_SMS_8,198,1,48,26,353405456
70,3,2,T1_SMS_8,199,5,42,127,353439224
70,3,2,T1_SMS_8,200,1,48,29,354236620
70,3,2,T1_SMS_8,201,5,42,127,354239032
70,3,2,T1_SMS_8,202,5,42,127,355038772
70,3,2,T1_SMS_8,203,1,48,25,355040184
70,3,2,T1_SMS_8,204,1,48,30,355806384
70,3,2,T1_SMS_8,205,5,42,127,355839324
70,3,2,T1_SMS_8,206,1,48,28,356618752
70,3,2,T1_SMS_8,207,5,42,127,356639056
70,3,2,T1_SMS_8,208,5,42,127,357438972
70,3,2,T1_SMS_8,209,1,48,27,357482328
70,3,2,T1_SMS_8,210,5,42,127,358238852
70,3,2,T1_SMS_8,211,1,48,27,358259176
70,3,2,T1_SMS_8,212,1,48,30,359032560
70,3,2,T1_SMS_8,213,5,42,127,359039552
70,3,2,T1_SMS_8,214,1,48,25,359837708
70,3,2,T1_SMS_8,215,5,42,127,359839060
70,3,2,T1_SMS_8,216,5,42,127,360638800
70,3,2,T1_SMS_8,217,1,48,27,360654556
70,3,2,T1_SMS_8,218,1,48,32,361411644
70,3,2,T1_SMS_8,219,5,42,127,361438824
70,3,2,T1_SMS_8,220,1,48,30,362226032
70,3,2,T1_SMS_8,221,5,42,127,362239532
70,3,2,T1_SMS_8,222,5,42,127,363039048
70,3,2,T1_SMS_8,223,1,48,35,363050840
70,3,2,T1_SMS_8,224,5,42,127,363838732
70,3,2,T1_SMS_8,225,1,48,24,363874084
70,3,2,T1_SMS_8,226,1,48,30,364636648
70,3,2,T1_SMS_8,227,5,42,127,364638680
70,3,2,T1_SMS_8,228,1,48,30,365421100
70,3,2,T1_SMS_8,229,5,42,127,365439460
70,3,2,T1_SMS_8,230,1,48,29,366180892
70,3,2,T1_SMS_8,231,5,42,127,366239044
70,3,2,T1_SMS_8,232,5,42,127,367038788
70,3,2,T1_SMS_8,233,1,48,31,367041452
70,3,2,T1_SMS_8,234,5,42,127,367838520
70,3,2,T1_SMS_8,235,1,48,27,367876424
70,3,2,T1_SMS_8,236,5,42,127,368639300
70,3,2,T1_SMS_8,237,1,48,27,368659396
70,3,2,T1_SMS_8,238,1,48,38,369380052
70,3,2,T1_SMS_8,239,5,42,127,369439028
70,3,2,T1_SMS_8,240,1,48,35,370221372
70,3,2,T1_SMS_8,0,9999,9999,9999,274236532
70,3,2,T1_SMS_8,1,9999,9999,9999,275036216
70,3,2,T1_SMS_8,2,9999,9999,9999,275836996
70,3,2,T1_SMS_8,3,9999,9999,9999,276636728
70,3,2,T1_SMS_8,4,9999,9999,9999,277436536
70,3,2,T1_SMS_8,5,9999,9999,9999,278236268
70,3,2,T1_SMS_8,6,9999,9999,9999,279037048
70,3,2,T1_SMS_8,7,9999,9999,9999,279836776
70,3,2,T1_SMS_8,8,9999,9999,9999,280636508
70,3,2,T1_SMS_8,9,9999,9999,9999,281436268
70,3,2,T1_SMS_8,10,9999,9999,9999,282236980
70,3,2,T1_SMS_8,11,9999,9999,9999,283036788
70,3,2,T1_SMS_8,12,9999,9999,9999,283836520
70,3,2,T1_SMS_8,13,9999,9999,9999,284636248
70,3,2,T1_SMS_8,14,9999,9999,9999,285437028
70,3,2,T1_SMS_8,15,9999,9999,9999,286236724
70,3,2,T1_SMS_8,16,9999,9999,9999,287036500
70,3,2,T1_SMS_8,17,9999,9999,9999,287836260
70,3,2,T1_SMS_8,18,9999,9999,9999,288637032
70,3,2,T1_SMS_8,19,9999,9999,9999,289436768
70,3,2,T1_SMS_8,20,9999,9999,9999,290236500
70,3,2,T1_SMS_8,21,9999,9999,9999,291036236
70,3,2,T1_SMS_8,22,9999,9999,9999,291837016
70,3,2,T1_SMS_8,23,9999,9999,9999,292636748
70,3,2,T1_SMS_8,24,9999,9999,9999,293436504
70,3,2,T1_SMS_8,25,9999,9999,9999,294236240
70,3,2,T1_SMS_8,26,9999,9999,9999,295037020
70,3,2,T1_SMS_8,27,9999,9999,9999,295836752
70,3,2,T1_SMS_8,28,9999,9999,9999,296636492
70,3,2,T1_SMS_8,29,9999,9999,9999,297436220
70,3,2,T1_SMS_8,30,9999,9999,9999,298237008
70,3,2,T1_SMS_8,31,9999,9999,9999,299036736
70,3,2,T1_SMS_8,32,9999,9999,9999,299836504
70,3,2,T1_SMS_8,33,9999,9999,9999,300636236
70,3,2,T1_SMS_8,34,9999,9999,9999,301437012
70,3,2,T1_SMS_8,35,9999,9999,9999,302236748
70,3,2,T1_SMS_8,36,9999,9999,9999,303036484
70,3,2,T1_SMS_8,37,9999,9999,9999,303836212
70,3,2,T1_SMS_8,38,9999,9999,9999,304636996
70,3,2,T1_SMS_8,39,9999,9999,9999,305436728
70,3,2,T1_SMS_8,40,9999,9999,9999,306236488
70,3,2,T1_SMS_8,41,9999,9999,9999,307036216
70,3,2,T1_SMS_8,42,9999,9999,9999,307836996
70,3,2,T1_SMS_8,43,9999,9999,9999,308636728
70,3,2,T1_SMS_8,44,9999,9999,9999,309436536
70,3,2,T1_SMS_8,45,9999,9999,9999,310236272
70,3,2,T1_SMS_8,46,9999,9999,9999,311036984
70,3,2,T1_SMS_8,47,9999,9999,9999,311836784
70,3,2,T1_SMS_8,48,9999,9999,9999,312636468
70,3,2,T1_SMS_8,49,9999,9999,9999,313436280
70,3,2,T1_SMS_8,50,9999,9999,9999,314236984
70,3,2,T1_SMS_8,51,9999,9999,9999,315036724
70,3,2,T1_SMS_8,52,9999,9999,9999,315836532
70,3,2,T1_SMS_8,53,9999,9999,9999,316636264
70,3,2,T1_SMS_8,54,9999,9999,9999,317437044
70,3,2,T1_SMS_8,55,9999,9999,9999,318236772
70,3,2,T1_SMS_8,56,9999,9999,9999,319036532
70,3,2,T1_SMS_8,57,9999,9999,9999,319836268
70,3,2,T1_SMS_8,58,9999,9999,9999,320637044
70,3,2,T1_SMS_8,59,9999,9999,9999,321436780
70,3,2,T1_SMS_8,60,9999,9999,9999,322236512
70,3,2,T1_SMS_8,61,9999,9999,9999,323036244
70,3,2,T1_SMS_8,62,9999,9999,9999,323837024
70,3,2,T1_SMS_8,63,9999,9999,9999,324636764
70,3,2,T1_SMS_8,64,9999,9999,9999,325436524
70,3,2,T1_SMS_8,65,9999,9999,9999,326236256
70,3,2,T1_SMS_8,66,9999,9999,9999,327037032
70,3,2,T1_SMS_8,67,9999,9999,9999,327836768
70,3,2,T1_SMS_8,68,9999,9999,9999,328636500
70,3,2,T1_SMS_8,69,9999,9999,9999,329436236
70,3,2,T1_SMS_8,70,9999,9999,9999,330237016
70,3,2,T1_SMS_8,71,9999,9999,9999,331036748
70,3,2,T1_SMS_8,72,9999,9999,9999,331836508
70,3,2,T1_SMS_8,73,9999,9999,9999,332636240
70,3,2,T1_SMS_8,74,9999,9999,9999,333437020
70,3,2,T1_SMS_8,75,9999,9999,9999,334236752
70,3,2,T1_SMS_8,76,9999,9999,9999,335036488
70,3,2,T1_SMS_8,77,9999,9999,9999,335836220
70,3,2,T1_SMS_8,78,9999,9999,9999,336637008
70,3,2,T1_SMS_8,79,9999,9999,9999,337436736
70,3,2,T1_SMS_8,80,9999,9999,9999,338236500
70,3,2,T1_SMS_8,81,9999,9999,9999,339036232
70,3,2,T1_SMS_8,82,9999,9999,9999,339837012
70,3,2,T1_SMS_8,83,9999,9999,9999,340636740
70,3,2,T1_SMS_8,84,9999,9999,9999,341436480
70,3,2,T1_SMS_8,85,9999,9999,9999,342236280
70,3,2,T1_SMS_8,86,9999,9999,9999,343036984
70,3,2,T1_SMS_8,87,9999,9999,9999,343836724
70,3,2,T1_SMS_8,88,9999,9999,9999,344636476
70,3,2,T1_SMS_8,89,9999,9999,9999,345436212
70,3,2,T1_SMS_8,90,9999,9999,9999,346236988
70,3,2,T1_SMS_8,91,9999,9999,9999,347036724
70,3,2,T1_SMS_8,92,9999,9999,9999,347836532
70,3,2,T1_SMS_8,93,9999,9999,9999,348636268
70,3,2,T1_SMS_8,94,9999,9999,9999,349436980
70,3,2,T1_SMS_8,95,9999,9999,9999,350236780
70,3,2,T1_SMS_8,96,9999,9999,9999,351036536
70,3,2,T1_SMS_8,97,9999,9999,9999,351836280
70,3,2,T1_SMS_8,98,9999,9999,9999,352636980
70,3,2,T1_SMS_8,99,9999,9999,9999,353436788
70,3,2,T1_SMS_8,100,9999,9999,9999,354236484
70,3,2,T1_SMS_8,101,9999,9999,9999,355036264
70,3,2,T1_SMS_8,102,9999,9999,9999,355837036
70,3,2,T1_SMS_8,103,9999,9999,9999,356636768
70,3,2,T1_SMS_8,104,9999,9999,9999,357436532
70,3,2,T1_SMS_8,105,9999,9999,9999,358236268
70,3,2,T1_SMS_8,106,9999,9999,9999,359037040
70,3,2,T1_SMS_8,107,9999,9999,9999,359836780
70,3,2,T1_SMS_8,108,9999,9999,9999,360636512
70,3,2,T1_SMS_8,109,9999,9999,9999,361436240
70,3,2,T1_SMS_8,110,9999,9999,9999,362237020
70,3,2,T1_SMS_8,111,9999,9999,9999,363036760
70,3,2,T1_SMS_8,112,9999,9999,9999,363836520
70,3,2,T1_SMS_8,113,9999,9999,9999,364636276
70,3,2,T1_SMS_8,114,9999,9999,9999,365437024
70,3,2,T1_SMS_8,115,9999,9999,9999,366236756
70,3,2,T1_SMS_8,116,9999,9999,9999,367036500
70,3,2,T1_SMS_8,117,9999,9999,9999,367836232
70,3,2,T1_SMS_8,118,9999,9999,9999,368637012
70,3,2,T1_SMS_8,119,9999,9999,9999,369436740
70,4,4,T1_SMS_5,0,5,42,127,441399620
70,4,4,T1_SMS_5,1,1,48,23,441814520
70,4,4,T1_SMS_5,2,5,42,127,441900424
70,4,4,T1_SMS_5,3,1,48,23,442347276
70,4,4,T1_SMS_5,4,5,42,127,442400192
70,4,4,T1_SMS_5,5,1,48,23,442811364
70,4,4,T1_SMS_5,6,5,42,127,442900036
70,4,4,T1_SMS_5,7,1,48,23,443334700
70,4,4,T1_SMS_5,8,5,42,127,443399808
70,4,4,T1_SMS_5,9,1,48,19,443849808
70,4,4,T1_SMS_5,10,5,42,127,443900252
70,4,4,T1_SMS_5,11,1,48,24,444336712
70,4,4,T1_SMS_5,12,5,42,127,444400024
70,4,4,T1_SMS_5,13,1,48,24,444865200
70,4,4,T1_SMS_5,14,5,42,127,444899940
70,4,4,T1_SMS_5,15,1,48,25,445366316
70,4,4,T1_SMS_5,16,5,42,127,445400460
70,4,4,T1_SMS_5,17,1,48,24,445849708
70,4,4,T1_SMS_5,18,5,42,127,445900156
70,4,4,T1_SMS_5,19,1,48,27,446368252
70,4,4,T1_SMS_5,20,5,42,127,446399924
70,4,4,T1_SMS_5,21,1,48,27,446856728
70,4,4,T1_SMS_5,22,5,42,127,446899992
70,4,4,T1_SMS_5,23,1,48,26,447369960
70,4,4,T1_SMS_5,24,5,42,127,447400288
70,4,4,T1_SMS_5,25,1,48,22,447867264
70,4,4,T1_SMS_5,26,5,42,127,447899908
70,4,4,T1_SMS_5,27,1,48,25,448368080
70,4,4,T1_SMS_5,28,5,42,127,448399976
70,4,4,T1_SMS_5,29,1,48,24,448841748
70,4,4,T1_SMS_5,30,5,42,127,448899300
70,4,4,T1_SMS_5,31,1,48,25,449371056
70,4,4,T1_SMS_5,32,5,42,127,449400040
70,4,4,T1_SMS_5,33,1,48,21,449868212
70,4,4,T1_SMS_5,34,5,42,127,449899960
70,4,4,T1_SMS_5,35,1,48,25,450337968
70,4,4,T1_SMS_5,36,5,42,127,450399880
70,4,4,T1_SMS_5,37,1,48,24,450887200
70,4,4,T1_SMS_5,38,5,42,127,450900320
70,4,4,T1_SMS_5,39,1,48,24,451373028
70,4,4,T1_SMS_5,40,5,42,127,451399944
70,4,4,T1_SMS_5,41,1,48,22,451884320
70,4,4,T1_SMS_5,42,5,42,127,451899860
70,4,4,T1_SMS_5,43,1,48,18,452393732
70,4,4,T1_SMS_5,44,5,42,127,452399752
70,4,4,T1_SMS_5,45,1,48,23,452895152
70,4,4,T1_SMS_5,46,5,42,127,452900200
70,4,4,T1_SMS_5,47,1,48,25,453372408
70,4,4,T1_SMS_5,48,5,42,127,453399816
70,4,4,T1_SMS_5,49,5,42,127,453899816
70,4,4,T1_SMS_5,50,1,48,26,453910264
70,4,4,T1_SMS_5,51,1,48,26,454372916
70,4,4,T1_SMS_5,52,5,42,127,454400404
70,4,4,T1_SMS_5,53,1,48,22,454885624
70,4,4,T1_SMS_5,54,5,42,127,454900096
70,4,4,T1_SMS_5,55,1,48,25,455377096
70,4,4,T1_SMS_5,56,5,42,127,455399792
70,4,4,T1_SMS_5,57,5,42,127,455899716
70,4,4,T1_SMS_5,58,1,48,26,455934252
70,4,4,T1_SMS_5,59,1,48,26,456391664
70,4,4,T1_SMS_5,60,5,42,127,456400228
70,4,4,T1_SMS_5,61,1,48,24,456890236
70,4,4,T1_SMS_5,62,5,42,127,456899848
70,4,4,T1_SMS_5,63,1,48,27,457382600
70,4,4,T1_SMS_5,64,5,42,127,457399544
70,4,4,T1_SMS_5,65,1,48,27,457887608
70,4,4,T1_SMS_5,66,5,42,127,457900508
70,4,4,T1_SMS_5,67,1,48,24,458368752
70,4,4,T1_SMS_5,68,5,42,127,458400056
70,4,4,T1_SMS_5,69,5,42,127,458899756
70,4,4,T1_SMS_5,70,1,48,20,458918432
70,4,4,T1_SMS_5,71,1,48,25,459358644
70,4,4,T1_SMS_5,72,5,42,127,459399592
70,4,4,T1_SMS_5,73,1,48,23,459896184
70,4,4,T1_SMS_5,74,5,42,127,459900484
70,4,4,T1_SMS_5,75,1,48,26,460388480
70,4,4,T1_SMS_5,76,5,42,127,460399880
70,4,4,T1_SMS_5,77,1,48,23,460883160
70,4,4,T1_SMS_5,78,5,42,127,460899724
70,4,4,T1_SMS_5,79,1,48,23,461358372
70,4,4,T1_SMS_5,80,5,42,127,461400392
70,4,4,T1_SMS_5,81,1,48,25,461866440
70,4,4,T1_SMS_5,82,5,42,127,461900088
70,4,4,T1_SMS_5,83,1,48,26,462369808
70,4,4,T1_SMS_5,84,5,42,127,462399932
70,4,4,T1_SMS_5,85,1,48,27,462868604
70,4,4,T1_SMS_5,86,5,42,127,462899628
70,4,4,T1_SMS_5,87,1,48,26,463383780
70,4,4,T1_SMS_5,88,5,42,127,463400416
70,4,4,T1_SMS_5,89,1,48,24,463885940
70,4,4,T1_SMS_5,90,5,42,127,463900040
70,4,4,T1_SMS_5,91,1,48,26,464383392
70,4,4,T1_SMS_5,92,5,42,127,464399584
70,4,4,T1_SMS_5,93,1,48,24,464863040
70,4,4,T1_SMS_5,94,5,42,127,464899428
70,4,4,T1_SMS_5,95,5,42,127,465400252
70,4,4,T1_SMS_5,96,1,48,20,465411820
70,4,4,T1_SMS_5,97,1,48,29,465900096
70,4,4,T1_SMS_5,98,5,42,127,465901432
70,4,4,T1_SMS_5,99,5,42,127,466399568
70,4,4,T1_SMS_5,100,1,48,29,466403280
70,4,4,T1_SMS_5,101,5,42,127,466900528
70,4,4,T1_SMS_5,102,1,48,27,466903872
70,4,4,T1_SMS_5,103,5,42,127,467400224
70,4,4,T1_SMS_5,104,1,48,26,467422792
70,4,4,T1_SMS_5,105,5,42,127,467899844
70,4,4,T1_SMS_5,106,1,48,27,467906104
70,4,4,T1_SMS_5,107,1,48,26,468376764
70,4,4,T1_SMS_5,108,5,42,127,468399384
70,4,4,T1_SMS_5,109,1,48,26,468897100
70,4,4,T1_SMS_5,110,5,42,127,468900348
70,4,4,T1_SMS_5,111,1,48,28,469388116
70,4,4,T1_SMS_5,112,5,42,127,469400044
70,4,4,T1_SMS_5,113,1,48,27,469853260
70,4,4,T1_SMS_5,114,5,42,127,469899668
70,4,4,T1_SMS_5,115,1,48,24,470388036
70,4,4,T1_SMS_5,116,5,42,127,470400484
70,4,4,T1_SMS_5,117,1,48,27,470896252
70,4,4,T1_SMS_5,118,5,42,127,470900328
70,4,4,T1_SMS_5,119,1,48,25,471372612
70,4,4,T1_SMS_5,120,5,42,127,471399724
70,4,4,T1_SMS_5,121,1,48,27,471878672
70,4,4,T1_SMS_5,122,5,42,127,471899496
70,4,4,T1_SMS_5,123,1,48,26,472360384
70,4,4,T1_SMS_5,124,5,42,127,472400460
70,4,4,T1_SMS_5,125,1,48,26,472876388
70,4,4,T1_SMS_5,126,5,42,127,472900152
70,4,4,T1_SMS_5,127,1,48,25,473370772
70,4,4,T1_SMS_5,128,5,42,127,473399700
70,4,4,T1_SMS_5,129,5,42,127,473900424
70,4,4,T1_SMS_5,130,1,48,26,473904216
70,4,4,T1_SMS_5,131,1,48,28,474385188
70,4,4,T1_SMS_5,132,5,42,127,474400260
70,4,4,T1_SMS_5,133,1,48,26,474886384
70,4,4,T1_SMS_5,134,5,42,127,474899880
70,4,4,T1_SMS_5,135,1,48,20,475373436
70,4,4,T1_SMS_5,136,5,42,127,475399576
70,4,4,T1_SMS_5,137,1,48,29,475878820
70,4,4,T1_SMS_5,138,5,42,127,475900244
70,4,4,T1_SMS_5,139,1,48,26,476366540
70,4,4,T1_SMS_5,140,5,42,127,476400160
70,4,4,T1_SMS_5,141,1,48,27,476890920
70,4,4,T1_SMS_5,142,5,42,127,476899632
70,4,4,T1_SMS_5,143,1,48,26,477395032
70,4,4,T1_SMS_5,144,5,42,127,477400300
70,4,4,T1_SMS_5,145,1,48,26,477896664
70,4,4,T1_SMS_5,146,5,42,127,477900368
70,4,4,T1_SMS_5,147,1,48,27,478400216
70,4,4,T1_SMS_5,148,5,42,127,478401408
70,4,4,T1_SMS_5,149,1,48,27,478874440
70,4,4,T1_SMS_5,150,5,42,127,478899536
70,4,4,T1_SMS_5,151,5,42,127,479400284
70,4,4,T1_SMS_5,152,1,48,24,479407816
70,4,4,T1_SMS_5,153,1,48,24,479869200
70,4,4,T1_SMS_5,154,5,42,127,479900272
70,4,4,T1_SMS_5,155,1,48,30,480395068
70,4,4,T1_SMS_5,156,5,42,127,480399816
70,4,4,T1_SMS_5,157,1,48,24,480880404
70,4,4,T1_SMS_5,158,5,42,127,480899288
70,4,4,T1_SMS_5,159,1,48,27,481374036
70,4,4,T1_SMS_5,160,5,42,127,481400252
70,4,4,T1_SMS_5,161,1,48,27,481893484
70,4,4,T1_SMS_5,162,5,42,127,481900172
70,4,4,T1_SMS_5,163,1,48,27,482399800
70,4,4,T1_SMS_5,164,5,42,127,482401060
70,4,4,T1_SMS_5,165,5,42,127,482900316
70,4,4,T1_SMS_5,166,1,48,25,482903660
70,4,4,T1_SMS_5,167,5,42,127,483400088
70,4,4,T1_SMS_5,168,1,48,29,483404852
70,4,4,T1_SMS_5,169,1,48,26,483878028
70,4,4,T1_SMS_5,170,5,42,127,483899924
70,4,4,T1_SMS_5,171,1,48,27,484388416
70,4,4,T1_SMS_5,172,5,42,127,484399596
70,4,4,T1_SMS_5,173,1,48,27,484884968
70,4,4,T1_SMS_5,174,5,42,127,484900116
70,4,4,T1_SMS_5,175,1,48,26,485393040
70,4,4,T1_SMS_5,176,5,42,127,485399960
70,4,4,T1_SMS_5,177,1,48,27,485884880
70,4,4,T1_SMS_5,178,5,42,127,485899728
70,4,4,T1_SMS_5,179,1,48,29,486394004
70,4,4,T1_SMS_5,180,5,42,127,486400320
70,4,4,T1_SMS_5,181,1,48,26,486869092
70,4,4,T1_SMS_5,182,5,42,127,486900016
70,4,4,T1_SMS_5,183,5,42,127,487399868
70,4,4,T1_SMS_5,184,1,48,25,487404032
70,4,4,T1_SMS_5,185,5,42,127,487899412
70,4,4,T1_SMS_5,186,1,48,27,487914720
70,4,4,T1_SMS_5,187,1,48,25,488381488
70,4,4,T1_SMS_5,188,5,42,127,488400220
70,4,4,T1_SMS_5,189,5,42,127,488899848
70,4,4,T1_SMS_5,190,1,48,24,488911492
70,4,4,T1_SMS_5,191,1,48,24,489393960
70,4,4,T1_SMS_5,192,5,42,127,489399756
70,4,4,T1_SMS_5,193,1,48,30,489898312
70,4,4,T1_SMS_5,194,5,42,127,489900348
70,4,4,T1_SMS_5,195,1,48,26,490378248
70,4,4,T1_SMS_5,196,5,42,127,490400120
70,4,4,T1_SMS_5,197,5,42,127,490899896
70,4,4,T1_SMS_5,198,1,48,27,490909072
70,4,4,T1_SMS_5,199,5,42,127,491399664
70,4,4,T1_SMS_5,200,1,48,26,491403680
70,4,4,T1_SMS_5,201,5,42,127,491900256
70,4,4,T1_SMS_5,202,1,48,30,491922000
70,4,4,T1_SMS_5,203,1,48,25,492374552
70,4,4,T1_SMS_5,204,5,42,127,492400092
70,4,4,T1_SMS_5,205,5,42,127,492899720
70,4,4,T1_SMS_5,206,1,48,27,492905680
70,4,4,T1_SMS_5,207,5,42,127,493400388
70,4,4,T1_SMS_5,208,1,48,26,493401428
70,4,4,T1_SMS_5,209,5,42,127,493900008
70,4,4,T1_SMS_5,210,1,48,30,493904176
70,4,4,T1_SMS_5,211,5,42,127,494399928
70,4,4,T1_SMS_5,212,1,48,26,494405140
70,4,4,T1_SMS_5,213,5,42,127,494899696
70,4,4,T1_SMS_5,214,1,48,28,494901336
70,4,4,T1_SMS_5,215,1,48,27,495375540
70,4,4,T1_SMS_5,216,5,42,127,495400256
70,4,4,T1_SMS_5,217,5,42,127,495899960
70,4,4,T1_SMS_5,218,1,48,26,495922920
70,4,4,T1_SMS_5,219,5,42,127,496399876
70,4,4,T1_SMS_5,220,1,48,24,496444832
70,4,4,T1_SMS_5,221,1,48,28,496885688
70,4,4,T1_SMS_5,222,5,42,127,496899416
70,4,4,T1_SMS_5,223,5,42,127,497400164
70,4,4,T1_SMS_5,224,1,48,27,497406792
70,4,4,T1_SMS_5,225,5,42,127,497899860
70,4,4,T1_SMS_5,226,1,48,28,497931624
70,4,4,T1_SMS_5,227,1,48,27,498373784
70,4,4,T1_SMS_5,228,5,42,127,498399696
70,4,4,T1_SMS_5,229,5,42,127,498900220
70,4,4,T1_SMS_5,230,1,48,25,498904240
70,4,4,T1_SMS_5,231,5,42,127,499399992
70,4,4,T1_SMS_5,232,1,48,26,499415824
70,4,4,T1_SMS_5,233,5,42,127,499899836
70,4,4,T1_SMS_5,234,1,48,25,499905120
70,4,4,T1_SMS_5,235,5,42,127,500399532
70,4,4,T1_SMS_5,236,1,48,30,500406316
70,4,4,T1_SMS_5,237,5,42,127,500900196
70,4,4,T1_SMS_5,238,1,48,25,500906752
70,4,4,T1_SMS_5,239,5,42,127,501399892
70,4,4,T1_SMS_5,240,1,48,29,501408848
70,4,4,T1_SMS_5,241,5,42,127,501899664
70,4,4,T1_SMS_5,242,1,48,25,501917144
70,4,4,T1_SMS_5,243,5,42,127,502400328
70,4,4,T1_SMS_5,244,1,48,32,502404496
70,4,4,T1_SMS_5,245,5,42,127,502900024
70,4,4,T1_SMS_5,246,1,48,32,502908900
70,4,4,T1_SMS_5,247,5,42,127,503399720
70,4,4,T1_SMS_5,248,1,48,30,503415624
70,4,4,T1_SMS_5,249,1,48,26,503880752
70,4,4,T1_SMS_5,250,5,42,127,503899556
70,4,4,T1_SMS_5,251,1,48,33,504395400
70,4,4,T1_SMS_5,252,5,42,127,504400224
70,4,4,T1_SMS_5,253,1,48,31,504898336
70,4,4,T1_SMS_5,254,5,42,127,504899844
70,4,4,T1_SMS_5,255,5,42,127,505399768
70,4,4,T1_SMS_5,256,1,48,31,505413660
70,4,4,T1_SMS_5,257,1,48,30,505883092
70,4,4,T1_SMS_5,258,5,42,127,505900628
70,4,4,T1_SMS_5,259,1,48,29,506393556
70,4,4,T1_SMS_5,0,9999,9999,9999,441397332
70,4,4,T1_SMS_5,1,9999,9999,9999,441898064
70,4,4,T1_SMS_5,2,9999,9999,9999,442397760
70,4,4,T1_SMS_5,3,9999,9999,9999,442897528
70,4,4,T1_SMS_5,4,9999,9999,9999,443397224
70,4,4,T1_SMS_5,5,9999,9999,9999,443897968
70,4,4,T1_SMS_5,6,9999,9999,9999,444397660
70,4,4,T1_SMS_5,7,9999,9999,9999,444897356
70,4,4,T1_SMS_5,8,9999,9999,9999,445398100
70,4,4,T1_SMS_5,9,9999,9999,9999,445897796
70,4,4,T1_SMS_5,10,9999,9999,9999,446397492
70,4,4,T1_SMS_5,11,9999,9999,9999,446897260
70,4,4,T1_SMS_5,12,9999,9999,9999,447398004
70,4,4,T1_SMS_5,13,9999,9999,9999,447897696
70,4,4,T1_SMS_5,14,9999,9999,9999,448397392
70,4,4,T1_SMS_5,15,9999,9999,9999,448897088
70,4,4,T1_SMS_5,16,9999,9999,9999,449397828
70,4,4,T1_SMS_5,17,9999,9999,9999,449897524
70,4,4,T1_SMS_5,18,9999,9999,9999,450397296
70,4,4,T1_SMS_5,19,9999,9999,9999,450898036
70,4,4,T1_SMS_5,20,9999,9999,9999,451397732
70,4,4,T1_SMS_5,21,9999,9999,9999,451897424
70,4,4,T1_SMS_5,22,9999,9999,9999,452397168
70,4,4,T1_SMS_5,23,9999,9999,9999,452897912
70,4,4,T1_SMS_5,24,9999,9999,9999,453397604
70,4,4,T1_SMS_5,25,9999,9999,9999,453897308
70,4,4,T1_SMS_5,26,9999,9999,9999,454398040
70,4,4,T1_SMS_5,27,9999,9999,9999,454897736
70,4,4,T1_SMS_5,28,9999,9999,9999,455397432
70,4,4,T1_SMS_5,29,9999,9999,9999,455897208
70,4,4,T1_SMS_5,30,9999,9999,9999,456397940
70,4,4,T1_SMS_5,31,9999,9999,9999,456897636
70,4,4,T1_SMS_5,32,9999,9999,9999,457397332
70,4,4,T1_SMS_5,33,9999,9999,9999,457898072
70,4,4,T1_SMS_5,34,9999,9999,9999,458397768
70,4,4,T1_SMS_5,35,9999,9999,9999,458897468
70,4,4,T1_SMS_5,36,9999,9999,9999,459397232
70,4,4,T1_SMS_5,37,9999,9999,9999,459897972
70,4,4,T1_SMS_5,38,9999,9999,9999,460397668
70,4,4,T1_SMS_5,39,9999,9999,9999,460897364
70,4,4,T1_SMS_5,40,9999,9999,9999,461398104
70,4,4,T1_SMS_5,41,9999,9999,9999,461897800
70,4,4,T1_SMS_5,42,9999,9999,9999,462397496
70,4,4,T1_SMS_5,43,9999,9999,9999,462897244
70,4,4,T1_SMS_5,44,9999,9999,9999,463397984
70,4,4,T1_SMS_5,45,9999,9999,9999,463897680
70,4,4,T1_SMS_5,46,9999,9999,9999,464397372
70,4,4,T1_SMS_5,47,9999,9999,9999,464897144
70,4,4,T1_SMS_5,48,9999,9999,9999,465397816
70,4,4,T1_SMS_5,49,9999,9999,9999,465897584
70,4,4,T1_SMS_5,50,9999,9999,9999,466397280
70,4,4,T1_SMS_5,51,9999,9999,9999,466898020
70,4,4,T1_SMS_5,52,9999,9999,9999,467397716
70,4,4,T1_SMS_5,53,9999,9999,9999,467897412
70,4,4,T1_SMS_5,54,9999,9999,9999,468397172
70,4,4,T1_SMS_5,55,9999,9999,9999,468897840
70,4,4,T1_SMS_5,56,9999,9999,9999,469397608
70,4,4,T1_SMS_5,57,9999,9999,9999,469897308
70,4,4,T1_SMS_5,58,9999,9999,9999,470398048
70,4,4,T1_SMS_5,59,9999,9999,9999,470897744
70,4,4,T1_SMS_5,60,9999,9999,9999,471397440
70,4,4,T1_SMS_5,61,9999,9999,9999,471897136
70,4,4,T1_SMS_5,62,9999,9999,9999,472397876
70,4,4,T1_SMS_5,63,9999,9999,9999,472897644
70,4,4,T1_SMS_5,64,9999,9999,9999,473397340
70,4,4,T1_SMS_5,65,9999,9999,9999,473898064
70,4,4,T1_SMS_5,66,9999,9999,9999,474397752
70,4,4,T1_SMS_5,67,9999,9999,9999,474897520
70,4,4,T1_SMS_5,68,9999,9999,9999,475397216
70,4,4,T1_SMS_5,69,9999,9999,9999,475897956
70,4,4,T1_SMS_5,70,9999,9999,9999,476397652
70,4,4,T1_SMS_5,71,9999,9999,9999,476897348
70,4,4,T1_SMS_5,72,9999,9999,9999,477398088
70,4,4,T1_SMS_5,73,9999,9999,9999,477897784
70,4,4,T1_SMS_5,74,9999,9999,9999,478397560
70,4,4,T1_SMS_5,75,9999,9999,9999,478897248
70,4,4,T1_SMS_5,76,9999,9999,9999,479397996
70,4,4,T1_SMS_5,77,9999,9999,9999,479897688
70,4,4,T1_SMS_5,78,9999,9999,9999,480397380
70,4,4,T1_SMS_5,79,9999,9999,9999,480897076
70,4,4,T1_SMS_5,80,9999,9999,9999,481397816
70,4,4,T1_SMS_5,81,9999,9999,9999,481897588
70,4,4,T1_SMS_5,82,9999,9999,9999,482397288
70,4,4,T1_SMS_5,83,9999,9999,9999,482898028
70,4,4,T1_SMS_5,84,9999,9999,9999,483397724
70,4,4,T1_SMS_5,85,9999,9999,9999,483897416
70,4,4,T1_SMS_5,86,9999,9999,9999,484397160
70,4,4,T1_SMS_5,87,9999,9999,9999,484897904
70,4,4,T1_SMS_5,88,9999,9999,9999,485397600
70,4,4,T1_SMS_5,89,9999,9999,9999,485897292
70,4,4,T1_SMS_5,90,9999,9999,9999,486398036
70,4,4,T1_SMS_5,91,9999,9999,9999,486897728
70,4,4,T1_SMS_5,92,9999,9999,9999,487397432
70,4,4,T1_SMS_5,93,9999,9999,9999,487897200
70,4,4,T1_SMS_5,94,9999,9999,9999,488397932
70,4,4,T1_SMS_5,95,9999,9999,9999,488897636
70,4,4,T1_SMS_5,96,9999,9999,9999,489397320
70,4,4,T1_SMS_5,97,9999,9999,9999,489898100
70,4,4,T1_SMS_5,98,9999,9999,9999,490397760
70,4,4,T1_SMS_5,99,9999,9999,9999,490897460
70,4,4,T1_SMS_5,100,9999,9999,9999,491397228
70,4,4,T1_SMS_5,101,9999,9999,9999,491897972
70,4,4,T1_SMS_5,102,9999,9999,9999,492397660
70,4,4,T1_SMS_5,103,9999,9999,9999,492897360
70,4,4,T1_SMS_5,104,9999,9999,9999,493398100
70,4,4,T1_SMS_5,105,9999,9999,9999,493897796
70,4,4,T1_SMS_5,106,9999,9999,9999,494397492
70,4,4,T1_SMS_5,107,9999,9999,9999,494897260
70,4,4,T1_SMS_5,108,9999,9999,9999,495397972
70,4,4,T1_SMS_5,109,9999,9999,9999,495897672
70,4,4,T1_SMS_5,110,9999,9999,9999,496397368
70,4,4,T1_SMS_5,111,9999,9999,9999,496897132
70,4,4,T1_SMS_5,112,9999,9999,9999,497397876
70,4,4,T1_SMS_5,113,9999,9999,9999,497897572
70,4,4,T1_SMS_5,114,9999,9999,9999,498397260
70,4,4,T1_SMS_5,115,9999,9999,9999,498898008
70,4,4,T1_SMS_5,116,9999,9999,9999,499397704
70,4,4,T1_SMS_5,117,9999,9999,9999,499897400
70,4,4,T1_SMS_5,118,9999,9999,9999,500397168
70,4,4,T1_SMS_5,119,9999,9999,9999,500897912
70,4,4,T1_SMS_5,120,9999,9999,9999,501397604
70,4,4,T1_SMS_5,121,9999,9999,9999,501897300
70,4,4,T1_SMS_5,122,9999,9999,9999,502398044
70,4,4,T1_SMS_5,123,9999,9999,9999,502897736
70,4,4,T1_SMS_5,124,9999,9999,9999,503397432
70,4,4,T1_SMS_5,125,9999,9999,9999,503897196
70,4,4,T1_SMS_5,126,9999,9999,9999,504397936
70,4,4,T1_SMS_5,127,9999,9999,9999,504897644
70,4,4,T1_SMS_5,128,9999,9999,9999,505397332
70,4,4,T1_SMS_5,129,9999,9999,9999,505898044
70,5,9,Ticks_ISO_T2_8,0,5,42,127,516973112
70,5,9,Ticks_ISO_T2_8,1,5,42,127,517772716
70,5,9,Ticks_ISO_T2_8,2,1,48,35,517939744
70,5,9,Ticks_ISO_T2_8,3,5,42,127,518573420
70,5,9,Ticks_ISO_T2_8,4,1,48,23,518649320
70,5,9,Ticks_ISO_T2_8,5,1,48,27,519322328
70,5,9,Ticks_ISO_T2_8,6,5,42,127,519373444
70,5,9,Ticks_ISO_T2_8,7,1,48,25,520105752
70,5,9,Ticks_ISO_T2_8,8,5,42,127,520172808
70,5,9,Ticks_ISO_T2_8,9,5,42,127,520972624
70,5,9,Ticks_ISO_T2_8,10,1,48,25,521017204
70,5,9,Ticks_ISO_T2_8,11,5,42,127,521773328
70,5,9,Ticks_ISO_T2_8,12,1,48,30,521839376
70,5,9,Ticks_ISO_T2_8,13,5,42,127,522573460
70,5,9,Ticks_ISO_T2_8,14,1,48,25,522627668
70,5,9,Ticks_ISO_T2_8,15,1,48,26,523370012
70,5,9,Ticks_ISO_T2_8,16,5,42,127,523372888
70,5,9,Ticks_ISO_T2_8,17,5,42,127,524172628
70,5,9,Ticks_ISO_T2_8,18,1,48,26,524202228
70,5,9,Ticks_ISO_T2_8,19,5,42,127,524973408
70,5,9,Ticks_ISO_T2_8,20,1,48,25,524993504
70,5,9,Ticks_ISO_T2_8,21,1,48,24,525738248
70,5,9,Ticks_ISO_T2_8,22,5,42,127,525773208
70,5,9,Ticks_ISO_T2_8,23,5,42,127,526573096
70,5,9,Ticks_ISO_T2_8,24,1,48,24,526575468
70,5,9,Ticks_ISO_T2_8,25,5,42,127,527372680
70,5,9,Ticks_ISO_T2_8,26,1,48,26,527440004
70,5,9,Ticks_ISO_T2_8,27,5,42,127,528173312
70,5,9,Ticks_ISO_T2_8,28,1,48,25,528193332
70,5,9,Ticks_ISO_T2_8,29,1,48,26,528944732
70,5,9,Ticks_ISO_T2_8,30,5,42,127,528973040
70,5,9,Ticks_ISO_T2_8,31,1,48,25,529766684
70,5,9,Ticks_ISO_T2_8,32,5,42,127,529773072
70,5,9,Ticks_ISO_T2_8,33,5,42,127,530572588
70,5,9,Ticks_ISO_T2_8,34,1,48,27,530607128
70,5,9,Ticks_ISO_T2_8,35,5,42,127,531373368
70,5,9,Ticks_ISO_T2_8,36,1,48,26,531420620
70,5,9,Ticks_ISO_T2_8,37,1,48,27,532169996
70,5,9,Ticks_ISO_T2_8,38,5,42,127,532173168
70,5,9,Ticks_ISO_T2_8,39,1,48,28,532950060
70,5,9,Ticks_ISO_T2_8,40,5,42,127,532973200
70,5,9,Ticks_ISO_T2_8,41,5,42,127,533772568
70,5,9,Ticks_ISO_T2_8,42,1,48,24,533776588
70,5,9,Ticks_ISO_T2_8,43,5,42,127,534573348
70,5,9,Ticks_ISO_T2_8,44,1,48,25,534582976
70,5,9,Ticks_ISO_T2_8,45,5,42,127,535373308
70,5,9,Ticks_ISO_T2_8,46,1,48,22,535377928
70,5,9,Ticks_ISO_T2_8,47,1,48,24,536156624
70,5,9,Ticks_ISO_T2_8,48,5,42,127,536172884
70,5,9,Ticks_ISO_T2_8,49,1,48,29,536951788
70,5,9,Ticks_ISO_T2_8,50,5,42,127,536972844
70,5,9,Ticks_ISO_T2_8,51,5,42,127,537773332
70,5,9,Ticks_ISO_T2_8,52,1,48,25,537781232
70,5,9,Ticks_ISO_T2_8,53,5,42,127,538573212
70,5,9,Ticks_ISO_T2_8,54,1,48,26,538589200
70,5,9,Ticks_ISO_T2_8,55,5,42,127,539373020
70,5,9,Ticks_ISO_T2_8,56,1,48,28,539381300
70,5,9,Ticks_ISO_T2_8,57,5,42,127,540172828
70,5,9,Ticks_ISO_T2_8,58,1,48,27,540191280
70,5,9,Ticks_ISO_T2_8,59,5,42,127,540973312
70,5,9,Ticks_ISO_T2_8,60,1,48,24,540976828
70,5,9,Ticks_ISO_T2_8,61,5,42,127,541773216
70,5,9,Ticks_ISO_T2_8,62,1,48,25,541790024
70,5,9,Ticks_ISO_T2_8,63,5,42,127,542572876
70,5,9,Ticks_ISO_T2_8,64,1,48,26,542620276
70,5,9,Ticks_ISO_T2_8,65,1,48,29,543362772
70,5,9,Ticks_ISO_T2_8,66,5,42,127,543372680
70,5,9,Ticks_ISO_T2_8,67,1,48,25,544132812
70,5,9,Ticks_ISO_T2_8,68,5,42,127,544173384
70,5,9,Ticks_ISO_T2_8,69,1,48,27,544944588
70,5,9,Ticks_ISO_T2_8,70,5,42,127,544973044
70,5,9,Ticks_ISO_T2_8,71,5,42,127,545772860
70,5,9,Ticks_ISO_T2_8,72,1,48,27,545778224
70,5,9,Ticks_ISO_T2_8,73,5,42,127,546572816
70,5,9,Ticks_ISO_T2_8,74,1,48,31,546589176
70,5,9,Ticks_ISO_T2_8,75,5,42,127,547373372
70,5,9,Ticks_ISO_T2_8,76,1,48,31,547389156
70,5,9,Ticks_ISO_T2_8,77,1,48,27,548112708
70,5,9,Ticks_ISO_T2_8,78,5,42,127,548173052
70,5,9,Ticks_ISO_T2_8,79,1,48,30,548957716
70,5,9,Ticks_ISO_T2_8,80,5,42,127,548972860
70,5,9,Ticks_ISO_T2_8,81,1,48,28,549769568
70,5,9,Ticks_ISO_T2_8,82,5,42,127,549772664
70,5,9,Ticks_ISO_T2_8,83,5,42,127,550573676
70,5,9,Ticks_ISO_T2_8,84,1,48,27,550607916
70,5,9,Ticks_ISO_T2_8,85,5,42,127,551373184
70,5,9,Ticks_ISO_T2_8,86,1,48,32,551390140
70,5,9,Ticks_ISO_T2_8,87,5,42,127,552172848
70,5,9,Ticks_ISO_T2_8,88,1,48,31,552196984
70,5,9,Ticks_ISO_T2_8,89,1,48,30,552917860
70,5,9,Ticks_ISO_T2_8,90,5,42,127,552972500
70,5,9,Ticks_ISO_T2_8,91,1,48,28,553749308
70,5,9,Ticks_ISO_T2_8,92,5,42,127,553773576
70,5,9,Ticks_ISO_T2_8,93,5,42,127,554573020
70,5,9,Ticks_ISO_T2_8,94,1,48,31,554587656
70,5,9,Ticks_ISO_T2_8,95,5,42,127,555372900
70,5,9,Ticks_ISO_T2_8,96,1,48,27,555386044
70,5,9,Ticks_ISO_T2_8,97,5,42,127,556172708
70,5,9,Ticks_ISO_T2_8,98,1,48,30,556188244
70,5,9,Ticks_ISO_T2_8,99,1,48,27,556945476
70,5,9,Ticks_ISO_T2_8,100,5,42,127,556973780
70,5,9,Ticks_ISO_T2_8,101,1,48,28,557766296
70,5,9,Ticks_ISO_T2_8,102,5,42,127,557773660
70,5,9,Ticks_ISO_T2_8,103,5,42,127,558572956
70,5,9,Ticks_ISO_T2_8,104,1,48,26,558605696
70,5,9,Ticks_ISO_T2_8,105,5,42,127,559372616
70,5,9,Ticks_ISO_T2_8,106,1,48,29,559387928
70,5,9,Ticks_ISO_T2_8,107,5,42,127,560173544
70,5,9,Ticks_ISO_T2_8,108,1,48,27,560179880
70,5,9,Ticks_ISO_T2_8,109,1,48,30,560952892
70,5,9,Ticks_ISO_T2_8,110,5,42,127,560973420
70,5,9,Ticks_ISO_T2_8,111,5,42,127,561772788
70,5,9,Ticks_ISO_T2_8,112,1,48,26,561799616
70,5,9,Ticks_ISO_T2_8,113,5,42,127,562572596
70,5,9,Ticks_ISO_T2_8,114,1,48,25,562596804
70,5,9,Ticks_ISO_T2_8,115,5,42,127,563373376
70,5,9,Ticks_ISO_T2_8,116,1,48,25,563387572
70,5,9,Ticks_ISO_T2_8,117,5,42,127,564173112
70,5,9,Ticks_ISO_T2_8,118,1,48,30,564174076
70,5,9,Ticks_ISO_T2_8,119,5,42,127,564972772
70,5,9,Ticks_ISO_T2_8,120,1,48,29,565007976
70,5,9,Ticks_ISO_T2_8,121,5,42,127,565772504
70,5,9,Ticks_ISO_T2_8,122,1,48,27,565773916
70,5,9,Ticks_ISO_T2_8,123,1,48,26,566555288
70,5,9,Ticks_ISO_T2_8,124,5,42,127,566573276
70,5,9,Ticks_ISO_T2_8,125,5,42,127,567373236
70,5,9,Ticks_ISO_T2_8,126,1,48,23,567383836
70,5,9,Ticks_ISO_T2_8,127,1,48,29,568169268
70,5,9,Ticks_ISO_T2_8,128,5,42,127,568173040
70,5,9,Ticks_ISO_T2_8,129,5,42,127,568972632
70,5,9,Ticks_ISO_T2_8,130,1,48,29,568975452
70,5,9,Ticks_ISO_T2_8,131,5,42,127,569773560
70,5,9,Ticks_ISO_T2_8,132,1,48,30,569797324
70,5,9,Ticks_ISO_T2_8,133,5,42,127,570573144
70,5,9,Ticks_ISO_T2_8,134,1,48,30,570576116
70,5,9,Ticks_ISO_T2_8,135,1,48,32,571368204
70,5,9,Ticks_ISO_T2_8,136,5,42,127,571373020
70,5,9,Ticks_ISO_T2_8,137,5,42,127,572172616
70,5,9,Ticks_ISO_T2_8,138,1,48,28,572202808
70,5,9,Ticks_ISO_T2_8,139,5,42,127,572973420
70,5,9,Ticks_ISO_T2_8,140,1,48,29,572976168
70,5,9,Ticks_ISO_T2_8,141,1,48,29,573744616
70,5,9,Ticks_ISO_T2_8,142,5,42,127,573773072
70,5,9,Ticks_ISO_T2_8,143,5,42,127,574573036
70,5,9,Ticks_ISO_T2_8,144,1,48,24,574575556
70,5,9,Ticks_ISO_T2_8,145,5,42,127,575372620
70,5,9,Ticks_ISO_T2_8,146,1,48,31,575404092
70,5,9,Ticks_ISO_T2_8,147,5,42,127,576173480
70,5,9,Ticks_ISO_T2_8,148,1,48,27,576206968
70,5,9,Ticks_ISO_T2_8,149,1,48,31,576952900
70,5,9,Ticks_ISO_T2_8,150,5,42,127,576973204
70,5,9,Ticks_ISO_T2_8,151,5,42,127,577773020
70,5,9,Ticks_ISO_T2_8,152,1,48,27,577791100
70,5,9,Ticks_ISO_T2_8,153,1,48,28,578521996
70,5,9,Ticks_ISO_T2_8,154,5,42,127,578572596
70,5,9,Ticks_ISO_T2_8,155,5,42,127,579373332
70,5,9,Ticks_ISO_T2_8,156,1,48,24,579399116
70,5,9,Ticks_ISO_T2_8,157,5,42,127,580173140
70,5,9,Ticks_ISO_T2_8,158,1,48,28,580179624
70,5,9,Ticks_ISO_T2_8,159,5,42,127,580972876
70,5,9,Ticks_ISO_T2_8,160,1,48,32,580986464
70,5,9,Ticks_ISO_T2_8,161,1,48,31,581749084
70,5,9,Ticks_ISO_T2_8,162,5,42,127,581772600
70,5,9,Ticks_ISO_T2_8,163,5,42,127,582573388
70,5,9,Ticks_ISO_T2_8,164,1,48,27,582581964
70,5,9,Ticks_ISO_T2_8,165,5,42,127,583373048
70,5,9,Ticks_ISO_T2_8,166,1,48,27,583395388
70,5,9,Ticks_ISO_T2_8,167,1,48,33,584155536
70,5,9,Ticks_ISO_T2_8,168,5,42,127,584172848
70,5,9,Ticks_ISO_T2_8,169,5,42,127,584972588
70,5,9,Ticks_ISO_T2_8,170,1,48,30,584994332
70,5,9,Ticks_ISO_T2_8,171,5,42,127,585773396
70,5,9,Ticks_ISO_T2_8,172,1,48,25,585827604
70,5,9,Ticks_ISO_T2_8,173,5,42,127,586573052
70,5,9,Ticks_ISO_T2_8,174,1,48,30,586600932
70,5,9,Ticks_ISO_T2_8,175,1,48,30,587367512
70,5,9,Ticks_ISO_T2_8,176,5,42,127,587373000
70,5,9,Ticks_ISO_T2_8,177,1,48,27,588172068
70,5,9,Ticks_ISO_T2_8,178,5,42,127,588173632
70,5,9,Ticks_ISO_T2_8,179,1,48,29,588960616
70,5,9,Ticks_ISO_T2_8,180,5,42,127,588973440
70,5,9,Ticks_ISO_T2_8,181,1,48,27,589749808
70,5,9,Ticks_ISO_T2_8,182,5,42,127,589773028
70,5,9,Ticks_ISO_T2_8,183,5,42,127,590572916
70,5,9,Ticks_ISO_T2_8,184,1,48,28,590588452
70,5,9,Ticks_ISO_T2_8,185,5,42,127,591372576
70,5,9,Ticks_ISO_T2_8,186,1,48,27,591404812
70,5,9,Ticks_ISO_T2_8,187,1,48,32,592172324
70,5,9,Ticks_ISO_T2_8,188,5,42,127,592173520
70,5,9,Ticks_ISO_T2_8,189,5,42,127,592973188
70,5,9,Ticks_ISO_T2_8,190,1,48,24,592989020
70,5,9,Ticks_ISO_T2_8,191,5,42,127,593772996
70,5,9,Ticks_ISO_T2_8,192,1,48,25,593783296
70,5,9,Ticks_ISO_T2_8,193,5,42,127,594572804
70,5,9,Ticks_ISO_T2_8,194,1,48,33,594591408
70,5,9,Ticks_ISO_T2_8,195,5,42,127,595373288
70,5,9,Ticks_ISO_T2_8,196,1,48,34,595409840
70,5,9,Ticks_ISO_T2_8,197,5,42,127,596173092
70,5,9,Ticks_ISO_T2_8,198,1,48,25,596188628
70,5,9,Ticks_ISO_T2_8,199,5,42,127,596973052
70,5,9,Ticks_ISO_T2_8,200,1,48,32,596980884
70,5,9,Ticks_ISO_T2_8,201,5,42,127,597772932
70,5,9,Ticks_ISO_T2_8,202,1,48,32,597794672
70,5,9,Ticks_ISO_T2_8,203,5,42,127,598573364
70,5,9,Ticks_ISO_T2_8,204,1,48,30,598596448
70,5,9,Ticks_ISO_T2_8,205,1,48,29,599353464
70,5,9,Ticks_ISO_T2_8,206,5,42,127,599373164
70,5,9,Ticks_ISO_T2_8,207,5,42,127,600172908
70,5,9,Ticks_ISO_T2_8,208,1,48,27,600203848
70,5,9,Ticks_ISO_T2_8,209,5,42,127,600972792
70,5,9,Ticks_ISO_T2_8,210,1,48,26,601005828
70,5,9,Ticks_ISO_T2_8,211,5,42,127,601773496
70,5,9,Ticks_ISO_T2_8,212,1,48,25,601776248
70,5,9,Ticks_ISO_T2_8,213,1,48,33,602569228
70,5,9,Ticks_ISO_T2_8,214,5,42,127,602573076
70,5,9,Ticks_ISO_T2_8,215,5,42,127,603372964
70,5,9,Ticks_ISO_T2_8,216,1,48,26,603406828
70,5,9,Ticks_ISO_T2_8,217,5,42,127,604172624
70,5,9,Ticks_ISO_T2_8,218,1,48,32,604177912
70,5,9,Ticks_ISO_T2_8,219,1,48,30,604945688
70,5,9,Ticks_ISO_T2_8,220,5,42,127,604973568
70,5,9,Ticks_ISO_T2_8,221,5,42,127,605773160
70,5,9,Ticks_ISO_T2_8,222,1,48,22,605797452
70,5,9,Ticks_ISO_T2_8,223,1,48,27,606569936
70,5,9,Ticks_ISO_T2_8,224,5,42,127,606572884
70,5,9,Ticks_ISO_T2_8,225,1,48,26,607356504
70,5,9,Ticks_ISO_T2_8,226,5,42,127,607372620
70,5,9,Ticks_ISO_T2_8,227,5,42,127,608173484
70,5,9,Ticks_ISO_T2_8,228,1,48,31,608198292
70,5,9,Ticks_ISO_T2_8,229,5,42,127,608973364
70,5,9,Ticks_ISO_T2_8,230,1,48,25,609009620
70,5,9,Ticks_ISO_T2_8,231,5,42,127,609773024
70,5,9,Ticks_ISO_T2_8,232,1,48,23,609789312
70,5,9,Ticks_ISO_T2_8,233,5,42,127,610572536
70,5,9,Ticks_ISO_T2_8,234,1,48,28,610585000
70,5,9,Ticks_ISO_T2_8,235,1,48,32,611347620
70,5,9,Ticks_ISO_T2_8,236,5,42,127,611373480
70,5,9,Ticks_ISO_T2_8,237,5,42,127,612173220
70,5,9,Ticks_ISO_T2_8,238,1,48,32,612195260
70,5,9,Ticks_ISO_T2_8,0,9999,9999,9999,516970600
70,5,9,Ticks_ISO_T2_8,1,9999,9999,9999,517770352
70,5,9,Ticks_ISO_T2_8,2,9999,9999,9999,518571060
70,5,9,Ticks_ISO_T2_8,3,9999,9999,9999,519370860
70,5,9,Ticks_ISO_T2_8,4,9999,9999,9999,520170596
70,5,9,Ticks_ISO_T2_8,5,9999,9999,9999,520970336
70,5,9,Ticks_ISO_T2_8,6,9999,9999,9999,521771116
70,5,9,Ticks_ISO_T2_8,7,9999,9999,9999,522570800
70,5,9,Ticks_ISO_T2_8,8,9999,9999,9999,523370600
70,5,9,Ticks_ISO_T2_8,9,9999,9999,9999,524170340
70,5,9,Ticks_ISO_T2_8,10,9999,9999,9999,524971120
70,5,9,Ticks_ISO_T2_8,11,9999,9999,9999,525770848
70,5,9,Ticks_ISO_T2_8,12,9999,9999,9999,526570588
70,5,9,Ticks_ISO_T2_8,13,9999,9999,9999,527370320
70,5,9,Ticks_ISO_T2_8,14,9999,9999,9999,528171100
70,5,9,Ticks_ISO_T2_8,15,9999,9999,9999,528970828
70,5,9,Ticks_ISO_T2_8,16,9999,9999,9999,529770560
70,5,9,Ticks_ISO_T2_8,17,9999,9999,9999,530570300
70,5,9,Ticks_ISO_T2_8,18,9999,9999,9999,531371080
70,5,9,Ticks_ISO_T2_8,19,9999,9999,9999,532170808
70,5,9,Ticks_ISO_T2_8,20,9999,9999,9999,532970616
70,5,9,Ticks_ISO_T2_8,21,9999,9999,9999,533770356
70,5,9,Ticks_ISO_T2_8,22,9999,9999,9999,534571060
70,5,9,Ticks_ISO_T2_8,23,9999,9999,9999,535370868
70,5,9,Ticks_ISO_T2_8,24,9999,9999,9999,536170596
70,5,9,Ticks_ISO_T2_8,25,9999,9999,9999,536970332
70,5,9,Ticks_ISO_T2_8,26,9999,9999,9999,537771116
70,5,9,Ticks_ISO_T2_8,27,9999,9999,9999,538570852
70,5,9,Ticks_ISO_T2_8,28,9999,9999,9999,539370584
70,5,9,Ticks_ISO_T2_8,29,9999,9999,9999,540170316
70,5,9,Ticks_ISO_T2_8,30,9999,9999,9999,540971096
70,5,9,Ticks_ISO_T2_8,31,9999,9999,9999,541770852
70,5,9,Ticks_ISO_T2_8,32,9999,9999,9999,542570588
70,5,9,Ticks_ISO_T2_8,33,9999,9999,9999,543370316
70,5,9,Ticks_ISO_T2_8,34,9999,9999,9999,544171096
70,5,9,Ticks_ISO_T2_8,35,9999,9999,9999,544970832
70,5,9,Ticks_ISO_T2_8,36,9999,9999,9999,545770572
70,5,9,Ticks_ISO_T2_8,37,9999,9999,9999,546570304
70,5,9,Ticks_ISO_T2_8,38,9999,9999,9999,547371084
70,5,9,Ticks_ISO_T2_8,39,9999,9999,9999,548170836
70,5,9,Ticks_ISO_T2_8,40,9999,9999,9999,548970572
70,5,9,Ticks_ISO_T2_8,41,9999,9999,9999,549770304
70,5,9,Ticks_ISO_T2_8,42,9999,9999,9999,550571088
70,5,9,Ticks_ISO_T2_8,43,9999,9999,9999,551370824
70,5,9,Ticks_ISO_T2_8,44,9999,9999,9999,552170560
70,5,9,Ticks_ISO_T2_8,45,9999,9999,9999,552970284
70,5,9,Ticks_ISO_T2_8,46,9999,9999,9999,553771064
70,5,9,Ticks_ISO_T2_8,47,9999,9999,9999,554570804
70,5,9,Ticks_ISO_T2_8,48,9999,9999,9999,555370612
70,5,9,Ticks_ISO_T2_8,49,9999,9999,9999,556170344
70,5,9,Ticks_ISO_T2_8,50,9999,9999,9999,556971120
70,5,9,Ticks_ISO_T2_8,51,9999,9999,9999,557770852
70,5,9,Ticks_ISO_T2_8,52,9999,9999,9999,558570592
70,5,9,Ticks_ISO_T2_8,53,9999,9999,9999,559370328
70,5,9,Ticks_ISO_T2_8,54,9999,9999,9999,560171104
70,5,9,Ticks_ISO_T2_8,55,9999,9999,9999,560970832
70,5,9,Ticks_ISO_T2_8,56,9999,9999,9999,561770572
70,5,9,Ticks_ISO_T2_8,57,9999,9999,9999,562570308
70,5,9,Ticks_ISO_T2_8,58,9999,9999,9999,563371088
70,5,9,Ticks_ISO_T2_8,59,9999,9999,9999,564170824
70,5,9,Ticks_ISO_T2_8,60,9999,9999,9999,564970556
70,5,9,Ticks_ISO_T2_8,61,9999,9999,9999,565770288
70,5,9,Ticks_ISO_T2_8,62,9999,9999,9999,566571064
70,5,9,Ticks_ISO_T2_8,63,9999,9999,9999,567370800
70,5,9,Ticks_ISO_T2_8,64,9999,9999,9999,568170604
70,5,9,Ticks_ISO_T2_8,65,9999,9999,9999,568970344
70,5,9,Ticks_ISO_T2_8,66,9999,9999,9999,569771124
70,5,9,Ticks_ISO_T2_8,67,9999,9999,9999,570570856
70,5,9,Ticks_ISO_T2_8,68,9999,9999,9999,571370584
70,5,9,Ticks_ISO_T2_8,69,9999,9999,9999,572170328
70,5,9,Ticks_ISO_T2_8,70,9999,9999,9999,572971108
70,5,9,Ticks_ISO_T2_8,71,9999,9999,9999,573770860
70,5,9,Ticks_ISO_T2_8,72,9999,9999,9999,574570600
70,5,9,Ticks_ISO_T2_8,73,9999,9999,9999,575370332
70,5,9,Ticks_ISO_T2_8,74,9999,9999,9999,576171116
70,5,9,Ticks_ISO_T2_8,75,9999,9999,9999,576970844
70,5,9,Ticks_ISO_T2_8,76,9999,9999,9999,577770580
70,5,9,Ticks_ISO_T2_8,77,9999,9999,9999,578570308
70,5,9,Ticks_ISO_T2_8,78,9999,9999,9999,579371092
70,5,9,Ticks_ISO_T2_8,79,9999,9999,9999,580170852
70,5,9,Ticks_ISO_T2_8,80,9999,9999,9999,580970588
70,5,9,Ticks_ISO_T2_8,81,9999,9999,9999,581770312
70,5,9,Ticks_ISO_T2_8,82,9999,9999,9999,582571100
70,5,9,Ticks_ISO_T2_8,83,9999,9999,9999,583370832
70,5,9,Ticks_ISO_T2_8,84,9999,9999,9999,584170560
70,5,9,Ticks_ISO_T2_8,85,9999,9999,9999,584970300
70,5,9,Ticks_ISO_T2_8,86,9999,9999,9999,585771080
70,5,9,Ticks_ISO_T2_8,87,9999,9999,9999,586570840
70,5,9,Ticks_ISO_T2_8,88,9999,9999,9999,587370564
70,5,9,Ticks_ISO_T2_8,89,9999,9999,9999,588170304
70,5,9,Ticks_ISO_T2_8,90,9999,9999,9999,588971080
70,5,9,Ticks_ISO_T2_8,91,9999,9999,9999,589770812
70,5,9,Ticks_ISO_T2_8,92,9999,9999,9999,590570556
70,5,9,Ticks_ISO_T2_8,93,9999,9999,9999,591370288
70,5,9,Ticks_ISO_T2_8,94,9999,9999,9999,592171068
70,5,9,Ticks_ISO_T2_8,95,9999,9999,9999,592970824
70,5,9,Ticks_ISO_T2_8,96,9999,9999,9999,593770556
70,5,9,Ticks_ISO_T2_8,97,9999,9999,9999,594570292
70,5,9,Ticks_ISO_T2_8,98,9999,9999,9999,595371072
70,5,9,Ticks_ISO_T2_8,99,9999,9999,9999,596170804
70,5,9,Ticks_ISO_T2_8,100,9999,9999,9999,596970612
70,5,9,Ticks_ISO_T2_8,101,9999,9999,9999,597770344
70,5,9,Ticks_ISO_T2_8,102,9999,9999,9999,598571076
70,5,9,Ticks_ISO_T2_8,103,9999,9999,9999,599370804
70,5,9,Ticks_ISO_T2_8,104,9999,9999,9999,600170544
70,5,9,Ticks_ISO_T2_8,105,9999,9999,9999,600970352
70,5,9,Ticks_ISO_T2_8,106,9999,9999,9999,601771060
70,5,9,Ticks_ISO_T2_8,107,9999,9999,9999,602570864
70,5,9,Ticks_ISO_T2_8,108,9999,9999,9999,603370600
70,5,9,Ticks_ISO_T2_8,109,9999,9999,9999,604170336
70,5,9,Ticks_ISO_T2_8,110,9999,9999,9999,604971056
70,5,9,Ticks_ISO_T2_8,111,9999,9999,9999,605770872
70,5,9,Ticks_ISO_T2_8,112,9999,9999,9999,606570600
70,5,9,Ticks_ISO_T2_8,113,9999,9999,9999,607370332
70,5,9,Ticks_ISO_T2_8,114,9999,9999,9999,608171120
70,5,9,Ticks_ISO_T2_8,115,9999,9999,9999,608970852
70,5,9,Ticks_ISO_T2_8,116,9999,9999,9999,609770588
70,5,9,Ticks_ISO_T2_8,117,9999,9999,9999,610570320
70,5,9,Ticks_ISO_T2_8,118,9999,9999,9999,611371116
70,5,9,Ticks_ISO_T2_8,119,9999,9999,9999,612170860
70,6,10,Ticks_ISO_T2_5,0,5,42,127,622411344
70,6,10,Ticks_ISO_T2_5,1,5,42,127,622910764
70,6,10,Ticks_ISO_T2_5,2,1,48,30,623257680
70,6,10,Ticks_ISO_T2_5,3,5,42,127,623410460
70,6,10,Ticks_ISO_T2_5,4,1,48,34,623838604
70,6,10,Ticks_ISO_T2_5,5,5,42,127,623911340
70,6,10,Ticks_ISO_T2_5,6,1,48,38,624360964
70,6,10,Ticks_ISO_T2_5,7,5,42,127,624411184
70,6,10,Ticks_ISO_T2_5,8,1,48,33,624877260
70,6,10,Ticks_ISO_T2_5,9,5,42,127,624910580
70,6,10,Ticks_ISO_T2_5,10,1,48,29,625382640
70,6,10,Ticks_ISO_T2_5,11,5,42,127,625410424
70,6,10,Ticks_ISO_T2_5,12,1,48,30,625897368
70,6,10,Ticks_ISO_T2_5,13,5,42,127,625911168
70,6,10,Ticks_ISO_T2_5,14,1,48,34,626390704
70,6,10,Ticks_ISO_T2_5,15,5,42,127,626410788
70,6,10,Ticks_ISO_T2_5,16,5,42,127,626910712
70,6,10,Ticks_ISO_T2_5,17,1,48,31,626927148
70,6,10,Ticks_ISO_T2_5,18,5,42,127,627411304
70,6,10,Ticks_ISO_T2_5,19,1,48,32,627419884
70,6,10,Ticks_ISO_T2_5,20,1,48,34,627911516
70,6,10,Ticks_ISO_T2_5,21,5,42,127,627912632
70,6,10,Ticks_ISO_T2_5,22,1,48,33,628409864
70,6,10,Ticks_ISO_T2_5,23,5,42,127,628411436
70,6,10,Ticks_ISO_T2_5,24,5,42,127,628910388
70,6,10,Ticks_ISO_T2_5,25,1,48,32,628928988
70,6,10,Ticks_ISO_T2_5,26,1,48,31,629406828
70,6,10,Ticks_ISO_T2_5,27,5,42,127,629411196
70,6,10,Ticks_ISO_T2_5,28,1,48,32,629910752
70,6,10,Ticks_ISO_T2_5,29,5,42,127,629912088
70,6,10,Ticks_ISO_T2_5,30,5,42,127,630410668
70,6,10,Ticks_ISO_T2_5,31,1,48,31,630412156
70,6,10,Ticks_ISO_T2_5,32,5,42,127,630911264
70,6,10,Ticks_ISO_T2_5,33,1,48,31,630914828
70,6,10,Ticks_ISO_T2_5,34,1,48,33,631410960
70,6,10,Ticks_ISO_T2_5,35,5,42,127,631412296
70,6,10,Ticks_ISO_T2_5,36,5,42,127,631910876
70,6,10,Ticks_ISO_T2_5,37,1,48,31,631923944
70,6,10,Ticks_ISO_T2_5,38,5,42,127,632410424
70,6,10,Ticks_ISO_T2_5,39,1,48,28,632424012
70,6,10,Ticks_ISO_T2_5,40,1,48,31,632899232
70,6,10,Ticks_ISO_T2_5,41,5,42,127,632911156
70,6,10,Ticks_ISO_T2_5,42,1,48,32,633392792
70,6,10,Ticks_ISO_T2_5,43,5,42,127,633411000
70,6,10,Ticks_ISO_T2_5,44,5,42,127,633910628
70,6,10,Ticks_ISO_T2_5,45,1,48,35,633913220
70,6,10,Ticks_ISO_T2_5,46,5,42,127,634411296
70,6,10,Ticks_ISO_T2_5,47,1,48,34,634435204
70,6,10,Ticks_ISO_T2_5,48,1,48,28,634900828
70,6,10,Ticks_ISO_T2_5,49,5,42,127,634911036
70,6,10,Ticks_ISO_T2_5,50,5,42,127,635410960
70,6,10,Ticks_ISO_T2_5,51,1,48,30,635423952
70,6,10,Ticks_ISO_T2_5,52,5,42,127,635910728
70,6,10,Ticks_ISO_T2_5,53,1,48,35,635911692
70,6,10,Ticks_ISO_T2_5,54,5,42,127,636411320
70,6,10,Ticks_ISO_T2_5,55,1,48,31,636432392
70,6,10,Ticks_ISO_T2_5,56,5,42,127,636910940
70,6,10,Ticks_ISO_T2_5,57,1,48,29,636920192
70,6,10,Ticks_ISO_T2_5,58,5,42,127,637410784
70,6,10,Ticks_ISO_T2_5,59,1,48,34,637439704
70,6,10,Ticks_ISO_T2_5,60,1,48,32,637905348
70,6,10,Ticks_ISO_T2_5,61,5,42,127,637911368
70,6,10,Ticks_ISO_T2_5,62,5,42,127,638411068
70,6,10,Ticks_ISO_T2_5,63,1,48,30,638435800
70,6,10,Ticks_ISO_T2_5,64,5,42,127,638910764
70,6,10,Ticks_ISO_T2_5,65,1,48,34,638925400
70,6,10,Ticks_ISO_T2_5,66,5,42,127,639410684
70,6,10,Ticks_ISO_T2_5,67,1,48,34,639430480
70,6,10,Ticks_ISO_T2_5,68,1,48,32,639907768
70,6,10,Ticks_ISO_T2_5,69,5,42,127,639911316
70,6,10,Ticks_ISO_T2_5,70,5,42,127,640410944
70,6,10,Ticks_ISO_T2_5,71,1,48,31,640438452
70,6,10,Ticks_ISO_T2_5,72,5,42,127,640910860
70,6,10,Ticks_ISO_T2_5,73,1,48,29,640912428
70,6,10,Ticks_ISO_T2_5,74,1,48,32,641401688
70,6,10,Ticks_ISO_T2_5,75,5,42,127,641410400
70,6,10,Ticks_ISO_T2_5,76,1,48,35,641907148
70,6,10,Ticks_ISO_T2_5,77,5,42,127,641911072
70,6,10,Ticks_ISO_T2_5,78,5,42,127,642410848
70,6,10,Ticks_ISO_T2_5,79,1,48,30,642418228
70,6,10,Ticks_ISO_T2_5,80,1,48,33,642908872
70,6,10,Ticks_ISO_T2_5,81,5,42,127,642910536
70,6,10,Ticks_ISO_T2_5,82,1,48,34,643403016
70,6,10,Ticks_ISO_T2_5,83,5,42,127,643411348
70,6,10,Ticks_ISO_T2_5,84,1,48,32,643903532
70,6,10,Ticks_ISO_T2_5,85,5,42,127,643910968
70,6,10,Ticks_ISO_T2_5,86,5,42,127,644410672
70,6,10,Ticks_ISO_T2_5,87,1,48,32,644427552
70,6,10,Ticks_ISO_T2_5,88,5,42,127,644910592
70,6,10,Ticks_ISO_T2_5,89,1,48,35,644932184
70,6,10,Ticks_ISO_T2_5,90,1,48,34,645398400
70,6,10,Ticks_ISO_T2_5,91,5,42,127,645411228
70,6,10,Ticks_ISO_T2_5,92,1,48,36,645903708
70,6,10,Ticks_ISO_T2_5,93,5,42,127,645910924
70,6,10,Ticks_ISO_T2_5,94,5,42,127,646410696
70,6,10,Ticks_ISO_T2_5,95,1,48,34,646427880
70,6,10,Ticks_ISO_T2_5,96,5,42,127,646911292
70,6,10,Ticks_ISO_T2_5,97,1,48,35,646923384
70,6,10,Ticks_ISO_T2_5,98,1,48,34,647399124
70,6,10,Ticks_ISO_T2_5,99,5,42,127,647411052
70,6,10,Ticks_ISO_T2_5,100,1,48,33,647896728
70,6,10,Ticks_ISO_T2_5,101,5,42,127,647910748
70,6,10,Ticks_ISO_T2_5,102,5,42,127,648410524
70,6,10,Ticks_ISO_T2_5,103,1,48,35,648440124
70,6,10,Ticks_ISO_T2_5,104,1,48,32,648906284
70,6,10,Ticks_ISO_T2_5,105,5,42,127,648911184
70,6,10,Ticks_ISO_T2_5,106,1,48,34,649398876
70,6,10,Ticks_ISO_T2_5,107,5,42,127,649410804
70,6,10,Ticks_ISO_T2_5,108,5,42,127,649910728
70,6,10,Ticks_ISO_T2_5,109,1,48,36,649912140
70,6,10,Ticks_ISO_T2_5,110,5,42,127,650411320
70,6,10,Ticks_ISO_T2_5,111,1,48,35,650433888
70,6,10,Ticks_ISO_T2_5,112,1,48,34,650910640
70,6,10,Ticks_ISO_T2_5,113,5,42,127,650912132
70,6,10,Ticks_ISO_T2_5,114,5,42,127,651410932
70,6,10,Ticks_ISO_T2_5,115,1,48,31,651420936
70,6,10,Ticks_ISO_T2_5,116,1,48,34,651892632
70,6,10,Ticks_ISO_T2_5,117,5,42,127,651910620
70,6,10,Ticks_ISO_T2_5,118,5,42,127,652411444
70,6,10,Ticks_ISO_T2_5,119,1,48,33,652427732
70,6,10,Ticks_ISO_T2_5,120,1,48,35,652907736
70,6,10,Ticks_ISO_T2_5,121,5,42,127,652910908
70,6,10,Ticks_ISO_T2_5,122,5,42,127,653410608
70,6,10,Ticks_ISO_T2_5,123,1,48,34,653419112
70,6,10,Ticks_ISO_T2_5,124,1,48,36,653895600
70,6,10,Ticks_ISO_T2_5,125,5,42,127,653911644
70,6,10,Ticks_ISO_T2_5,126,1,48,34,654385796
70,6,10,Ticks_ISO_T2_5,127,5,42,127,654410964
70,6,10,Ticks_ISO_T2_5,128,5,42,127,654910740
70,6,10,Ticks_ISO_T2_5,129,1,48,36,654911708
70,6,10,Ticks_ISO_T2_5,130,1,48,35,655398628
70,6,10,Ticks_ISO_T2_5,131,5,42,127,655410728
70,6,10,Ticks_ISO_T2_5,132,5,42,127,655911376
70,6,10,Ticks_ISO_T2_5,133,1,48,38,655921552
70,6,10,Ticks_ISO_T2_5,134,1,48,35,656346856
70,6,10,Ticks_ISO_T2_5,135,5,42,127,656410840
70,6,10,Ticks_ISO_T2_5,136,1,48,35,656889780
70,6,10,Ticks_ISO_T2_5,137,5,42,127,656910684
70,6,10,Ticks_ISO_T2_5,138,1,48,34,657408188
70,6,10,Ticks_ISO_T2_5,139,5,42,127,657410600
70,6,10,Ticks_ISO_T2_5,140,1,48,34,657903832
70,6,10,Ticks_ISO_T2_5,141,5,42,127,657911268
70,6,10,Ticks_ISO_T2_5,142,1,48,34,658377568
70,6,10,Ticks_ISO_T2_5,143,5,42,127,658410740
70,6,10,Ticks_ISO_T2_5,144,1,48,32,658900156
70,6,10,Ticks_ISO_T2_5,145,5,42,127,658910512
70,6,10,Ticks_ISO_T2_5,146,1,48,36,659399780
70,6,10,Ticks_ISO_T2_5,147,5,42,127,659411252
70,6,10,Ticks_ISO_T2_5,148,1,48,33,659872392
70,6,10,Ticks_ISO_T2_5,149,5,42,127,659910872
70,6,10,Ticks_ISO_T2_5,150,1,48,34,660407992
70,6,10,Ticks_ISO_T2_5,151,5,42,127,660410644
70,6,10,Ticks_ISO_T2_5,152,5,42,127,660910568
70,6,10,Ticks_ISO_T2_5,153,1,48,34,660930068
70,6,10,Ticks_ISO_T2_5,154,5,42,127,661411384
70,6,10,Ticks_ISO_T2_5,155,1,48,28,661423480
70,6,10,Ticks_ISO_T2_5,156,1,48,34,661905052
70,6,10,Ticks_ISO_T2_5,157,5,42,127,661910848
70,6,10,Ticks_ISO_T2_5,158,5,42,127,662410624
70,6,10,Ticks_ISO_T2_5,159,1,48,33,662416588
70,6,10,Ticks_ISO_T2_5,160,5,42,127,662911368
70,6,10,Ticks_ISO_T2_5,161,1,48,34,662922344
70,6,10,Ticks_ISO_T2_5,162,1,48,34,663409784
70,6,10,Ticks_ISO_T2_5,163,5,42,127,663411428
70,6,10,Ticks_ISO_T2_5,164,5,42,127,663910680
70,6,10,Ticks_ISO_T2_5,165,1,48,36,663933472
70,6,10,Ticks_ISO_T2_5,166,5,42,127,664410452
70,6,10,Ticks_ISO_T2_5,167,1,48,32,664421500
70,6,10,Ticks_ISO_T2_5,168,1,48,32,664897088
70,6,10,Ticks_ISO_T2_5,169,5,42,127,664911184
70,6,10,Ticks_ISO_T2_5,170,1,48,34,665404336
70,6,10,Ticks_ISO_T2_5,171,5,42,127,665410804
70,6,10,Ticks_ISO_T2_5,172,1,48,33,665906580
70,6,10,Ticks_ISO_T2_5,173,5,42,127,665910648
70,6,10,Ticks_ISO_T2_5,174,1,48,33,666387024
70,6,10,Ticks_ISO_T2_5,175,5,42,127,666411316
70,6,10,Ticks_ISO_T2_5,176,1,48,32,666899132
70,6,10,Ticks_ISO_T2_5,177,5,42,127,666911132
70,6,10,Ticks_ISO_T2_5,178,1,48,35,667394636
70,6,10,Ticks_ISO_T2_5,179,5,42,127,667410832
70,6,10,Ticks_ISO_T2_5,180,1,48,34,667902412
70,6,10,Ticks_ISO_T2_5,181,5,42,127,667910452
70,6,10,Ticks_ISO_T2_5,182,5,42,127,668411272
70,6,10,Ticks_ISO_T2_5,183,1,48,31,668419184
70,6,10,Ticks_ISO_T2_5,184,1,48,32,668896868
70,6,10,Ticks_ISO_T2_5,185,5,42,127,668911036
70,6,10,Ticks_ISO_T2_5,186,1,48,31,669404192
70,6,10,Ticks_ISO_T2_5,187,5,42,127,669410584
70,6,10,Ticks_ISO_T2_5,188,5,42,127,669911480
70,6,10,Ticks_ISO_T2_5,189,1,48,31,669934048
70,6,10,Ticks_ISO_T2_5,190,5,42,127,670411252
70,6,10,Ticks_ISO_T2_5,191,1,48,34,670426108
70,6,10,Ticks_ISO_T2_5,192,1,48,29,670888244
70,6,10,Ticks_ISO_T2_5,193,5,42,127,670910864
70,6,10,Ticks_ISO_T2_5,194,5,42,127,671410492
70,6,10,Ticks_ISO_T2_5,195,1,48,29,671421468
70,6,10,Ticks_ISO_T2_5,196,5,42,127,671911232
70,6,10,Ticks_ISO_T2_5,197,1,48,35,671921532
70,6,10,Ticks_ISO_T2_5,198,1,48,31,672397872
70,6,10,Ticks_ISO_T2_5,199,5,42,127,672411068
70,6,10,Ticks_ISO_T2_5,200,1,48,31,672900856
70,6,10,Ticks_ISO_T2_5,201,5,42,127,672910616
70,6,10,Ticks_ISO_T2_5,202,1,48,34,673393896
70,6,10,Ticks_ISO_T2_5,203,5,42,127,673410460
70,6,10,Ticks_ISO_T2_5,204,1,48,31,673889100
70,6,10,Ticks_ISO_T2_5,205,5,42,127,673911124
70,6,10,Ticks_ISO_T2_5,206,1,48,34,674349452
70,6,10,Ticks_ISO_T2_5,207,5,42,127,674411044
70,6,10,Ticks_ISO_T2_5,208,1,48,31,674895972
70,6,10,Ticks_ISO_T2_5,209,5,42,127,674910444
70,6,10,Ticks_ISO_T2_5,210,1,48,32,675406064
70,6,10,Ticks_ISO_T2_5,211,5,42,127,675411336
70,6,10,Ticks_ISO_T2_5,212,1,48,34,675882124
70,6,10,Ticks_ISO_T2_5,213,5,42,127,675911104
70,6,10,Ticks_ISO_T2_5,214,1,48,30,676397156
70,6,10,Ticks_ISO_T2_5,215,5,42,127,676410872
70,6,10,Ticks_ISO_T2_5,216,1,48,30,676881640
70,6,10,Ticks_ISO_T2_5,217,5,42,127,676910492
70,6,10,Ticks_ISO_T2_5,218,1,48,27,677409704
70,6,10,Ticks_ISO_T2_5,219,5,42,127,677411136
70,6,10,Ticks_ISO_T2_5,220,5,42,127,677910988
70,6,10,Ticks_ISO_T2_5,221,1,48,28,677924280
70,6,10,Ticks_ISO_T2_5,222,1,48,33,678410756
70,6,10,Ticks_ISO_T2_5,223,5,42,127,678412016
70,6,10,Ticks_ISO_T2_5,224,1,48,31,678868300
70,6,10,Ticks_ISO_T2_5,225,5,42,127,678911192
70,6,10,Ticks_ISO_T2_5,226,5,42,127,679410968
70,6,10,Ticks_ISO_T2_5,227,1,48,32,679411932
70,6,10,Ticks_ISO_T2_5,228,5,42,127,679911032
70,6,10,Ticks_ISO_T2_5,229,1,48,26,679916244
70,6,10,Ticks_ISO_T2_5,230,1,48,33,680407024
70,6,10,Ticks_ISO_T2_5,231,5,42,127,680410572
70,6,10,Ticks_ISO_T2_5,232,5,42,127,680911172
70,6,10,Ticks_ISO_T2_5,233,1,48,30,680919380
70,6,10,Ticks_ISO_T2_5,234,1,48,30,681411312
70,6,10,Ticks_ISO_T2_5,235,5,42,127,681412576
70,6,10,Ticks_ISO_T2_5,236,1,48,34,681909196
70,6,10,Ticks_ISO_T2_5,237,5,42,127,681910556
70,6,10,Ticks_ISO_T2_5,238,5,42,127,682411304
70,6,10,Ticks_ISO_T2_5,239,1,48,30,682433724
70,6,10,Ticks_ISO_T2_5,240,5,42,127,682911076
70,6,10,Ticks_ISO_T2_5,241,1,48,32,682918384
70,6,10,Ticks_ISO_T2_5,242,5,42,127,683411068
70,6,10,Ticks_ISO_T2_5,243,1,48,32,683415688
70,6,10,Ticks_ISO_T2_5,244,1,48,30,683900328
70,6,10,Ticks_ISO_T2_5,245,5,42,127,683910608
70,6,10,Ticks_ISO_T2_5,246,5,42,127,684411280
70,6,10,Ticks_ISO_T2_5,247,1,48,30,684416424
70,6,10,Ticks_ISO_T2_5,248,1,48,30,684898520
70,6,10,Ticks_ISO_T2_5,249,5,42,127,684911044
70,6,10,Ticks_ISO_T2_5,250,5,42,127,685410820
70,6,10,Ticks_ISO_T2_5,251,1,48,29,685425980
70,6,10,Ticks_ISO_T2_5,252,1,48,31,685895584
70,6,10,Ticks_ISO_T2_5,253,5,42,127,685911256
70,6,10,Ticks_ISO_T2_5,254,1,48,28,686381892
70,6,10,Ticks_ISO_T2_5,255,5,42,127,686411248
70,6,10,Ticks_ISO_T2_5,256,1,48,32,686911396
70,6,10,Ticks_ISO_T2_5,257,5,42,127,686912436
70,6,10,Ticks_ISO_T2_5,258,1,48,29,687407244
70,6,10,Ticks_ISO_T2_5,0,9999,9999,9999,622408760
70,6,10,Ticks_ISO_T2_5,1,9999,9999,9999,622908476
70,6,10,Ticks_ISO_T2_5,2,9999,9999,9999,623408248
70,6,10,Ticks_ISO_T2_5,3,9999,9999,9999,623908980
70,6,10,Ticks_ISO_T2_5,4,9999,9999,9999,624408676
70,6,10,Ticks_ISO_T2_5,5,9999,9999,9999,624908368
70,6,10,Ticks_ISO_T2_5,6,9999,9999,9999,625408064
70,6,10,Ticks_ISO_T2_5,7,9999,9999,9999,625908804
70,6,10,Ticks_ISO_T2_5,8,9999,9999,9999,626408500
70,6,10,Ticks_ISO_T2_5,9,9999,9999,9999,626908276
70,6,10,Ticks_ISO_T2_5,10,9999,9999,9999,627408944
70,6,10,Ticks_ISO_T2_5,11,9999,9999,9999,627908712
70,6,10,Ticks_ISO_T2_5,12,9999,9999,9999,628408408
70,6,10,Ticks_ISO_T2_5,13,9999,9999,9999,628908100
70,6,10,Ticks_ISO_T2_5,14,9999,9999,9999,629408836
70,6,10,Ticks_ISO_T2_5,15,9999,9999,9999,629908540
70,6,10,Ticks_ISO_T2_5,16,9999,9999,9999,630408308
70,6,10,Ticks_ISO_T2_5,17,9999,9999,9999,630908976
70,6,10,Ticks_ISO_T2_5,18,9999,9999,9999,631408748
70,6,10,Ticks_ISO_T2_5,19,9999,9999,9999,631908444
70,6,10,Ticks_ISO_T2_5,20,9999,9999,9999,632408136
70,6,10,Ticks_ISO_T2_5,21,9999,9999,9999,632908872
70,6,10,Ticks_ISO_T2_5,22,9999,9999,9999,633408568
70,6,10,Ticks_ISO_T2_5,23,9999,9999,9999,633908344
70,6,10,Ticks_ISO_T2_5,24,9999,9999,9999,634409008
70,6,10,Ticks_ISO_T2_5,25,9999,9999,9999,634908748
70,6,10,Ticks_ISO_T2_5,26,9999,9999,9999,635408448
70,6,10,Ticks_ISO_T2_5,27,9999,9999,9999,635908216
70,6,10,Ticks_ISO_T2_5,28,9999,9999,9999,636408884
70,6,10,Ticks_ISO_T2_5,29,9999,9999,9999,636908652
70,6,10,Ticks_ISO_T2_5,30,9999,9999,9999,637408348
70,6,10,Ticks_ISO_T2_5,31,9999,9999,9999,637909080
70,6,10,Ticks_ISO_T2_5,32,9999,9999,9999,638408780
70,6,10,Ticks_ISO_T2_5,33,9999,9999,9999,638908476
70,6,10,Ticks_ISO_T2_5,34,9999,9999,9999,639408248
70,6,10,Ticks_ISO_T2_5,35,9999,9999,9999,639908956
70,6,10,Ticks_ISO_T2_5,36,9999,9999,9999,640408656
70,6,10,Ticks_ISO_T2_5,37,9999,9999,9999,640908352
70,6,10,Ticks_ISO_T2_5,38,9999,9999,9999,641408116
70,6,10,Ticks_ISO_T2_5,39,9999,9999,9999,641908784
70,6,10,Ticks_ISO_T2_5,40,9999,9999,9999,642408560
70,6,10,Ticks_ISO_T2_5,41,9999,9999,9999,642908272
70,6,10,Ticks_ISO_T2_5,42,9999,9999,9999,643408988
70,6,10,Ticks_ISO_T2_5,43,9999,9999,9999,643908684
70,6,10,Ticks_ISO_T2_5,44,9999,9999,9999,644408384
70,6,10,Ticks_ISO_T2_5,45,9999,9999,9999,644908080
70,6,10,Ticks_ISO_T2_5,46,9999,9999,9999,645408868
70,6,10,Ticks_ISO_T2_5,47,9999,9999,9999,645908560
70,6,10,Ticks_ISO_T2_5,48,9999,9999,9999,646408264
70,6,10,Ticks_ISO_T2_5,49,9999,9999,9999,646909004
70,6,10,Ticks_ISO_T2_5,50,9999,9999,9999,647408692
70,6,10,Ticks_ISO_T2_5,51,9999,9999,9999,647908460
70,6,10,Ticks_ISO_T2_5,52,9999,9999,9999,648408164
70,6,10,Ticks_ISO_T2_5,53,9999,9999,9999,648908896
70,6,10,Ticks_ISO_T2_5,54,9999,9999,9999,649408592
70,6,10,Ticks_ISO_T2_5,55,9999,9999,9999,649908296
70,6,10,Ticks_ISO_T2_5,56,9999,9999,9999,650409036
70,6,10,Ticks_ISO_T2_5,57,9999,9999,9999,650908728
70,6,10,Ticks_ISO_T2_5,58,9999,9999,9999,651408500
70,6,10,Ticks_ISO_T2_5,59,9999,9999,9999,651908188
70,6,10,Ticks_ISO_T2_5,60,9999,9999,9999,652408936
70,6,10,Ticks_ISO_T2_5,61,9999,9999,9999,652908620
70,6,10,Ticks_ISO_T2_5,62,9999,9999,9999,653408324
70,6,10,Ticks_ISO_T2_5,63,9999,9999,9999,653909060
70,6,10,Ticks_ISO_T2_5,64,9999,9999,9999,654408752
70,6,10,Ticks_ISO_T2_5,65,9999,9999,9999,654908528
70,6,10,Ticks_ISO_T2_5,66,9999,9999,9999,655408220
70,6,10,Ticks_ISO_T2_5,67,9999,9999,9999,655908940
70,6,10,Ticks_ISO_T2_5,68,9999,9999,9999,656408628
70,6,10,Ticks_ISO_T2_5,69,9999,9999,9999,656908396
70,6,10,Ticks_ISO_T2_5,70,9999,9999,9999,657408056
70,6,10,Ticks_ISO_T2_5,71,9999,9999,9999,657908836
70,6,10,Ticks_ISO_T2_5,72,9999,9999,9999,658408528
70,6,10,Ticks_ISO_T2_5,73,9999,9999,9999,658908224
70,6,10,Ticks_ISO_T2_5,74,9999,9999,9999,659408968
70,6,10,Ticks_ISO_T2_5,75,9999,9999,9999,659908660
70,6,10,Ticks_ISO_T2_5,76,9999,9999,9999,660408432
70,6,10,Ticks_ISO_T2_5,77,9999,9999,9999,660908132
70,6,10,Ticks_ISO_T2_5,78,9999,9999,9999,661408876
70,6,10,Ticks_ISO_T2_5,79,9999,9999,9999,661908564
70,6,10,Ticks_ISO_T2_5,80,9999,9999,9999,662408264
70,6,10,Ticks_ISO_T2_5,81,9999,9999,9999,662909004
70,6,10,Ticks_ISO_T2_5,82,9999,9999,9999,663408700
70,6,10,Ticks_ISO_T2_5,83,9999,9999,9999,663908468
70,6,10,Ticks_ISO_T2_5,84,9999,9999,9999,664408164
70,6,10,Ticks_ISO_T2_5,85,9999,9999,9999,664908900
70,6,10,Ticks_ISO_T2_5,86,9999,9999,9999,665408592
70,6,10,Ticks_ISO_T2_5,87,9999,9999,9999,665908288
70,6,10,Ticks_ISO_T2_5,88,9999,9999,9999,666409028
70,6,10,Ticks_ISO_T2_5,89,9999,9999,9999,666908772
70,6,10,Ticks_ISO_T2_5,90,9999,9999,9999,667408468
70,6,10,Ticks_ISO_T2_5,91,9999,9999,9999,667908164
70,6,10,Ticks_ISO_T2_5,92,9999,9999,9999,668408912
70,6,10,Ticks_ISO_T2_5,93,9999,9999,9999,668908600
70,6,10,Ticks_ISO_T2_5,94,9999,9999,9999,669408372
70,6,10,Ticks_ISO_T2_5,95,9999,9999,9999,669909044
70,6,10,Ticks_ISO_T2_5,96,9999,9999,9999,670408816
70,6,10,Ticks_ISO_T2_5,97,9999,9999,9999,670908504
70,6,10,Ticks_ISO_T2_5,98,9999,9999,9999,671408204
70,6,10,Ticks_ISO_T2_5,99,9999,9999,9999,671908948
70,6,10,Ticks_ISO_T2_5,100,9999,9999,9999,672408636
70,6,10,Ticks_ISO_T2_5,101,9999,9999,9999,672908404
70,6,10,Ticks_ISO_T2_5,102,9999,9999,9999,673408096
70,6,10,Ticks_ISO_T2_5,103,9999,9999,9999,673908840
70,6,10,Ticks_ISO_T2_5,104,9999,9999,9999,674408532
70,6,10,Ticks_ISO_T2_5,105,9999,9999,9999,674908232
70,6,10,Ticks_ISO_T2_5,106,9999,9999,9999,675408972
70,6,10,Ticks_ISO_T2_5,107,9999,9999,9999,675908668
70,6,10,Ticks_ISO_T2_5,108,9999,9999,9999,676408440
70,6,10,Ticks_ISO_T2_5,109,9999,9999,9999,676908132
70,6,10,Ticks_ISO_T2_5,110,9999,9999,9999,677408856
70,6,10,Ticks_ISO_T2_5,111,9999,9999,9999,677908552
70,6,10,Ticks_ISO_T2_5,112,9999,9999,9999,678408244
70,6,10,Ticks_ISO_T2_5,113,9999,9999,9999,678908980
70,6,10,Ticks_ISO_T2_5,114,9999,9999,9999,679408756
70,6,10,Ticks_ISO_T2_5,115,9999,9999,9999,679908448
70,6,10,Ticks_ISO_T2_5,116,9999,9999,9999,680408136
70,6,10,Ticks_ISO_T2_5,117,9999,9999,9999,680908884
70,6,10,Ticks_ISO_T2_5,118,9999,9999,9999,681408580
70,6,10,Ticks_ISO_T2_5,119,9999,9999,9999,681908276
70,6,10,Ticks_ISO_T2_5,120,9999,9999,9999,682409020
70,6,10,Ticks_ISO_T2_5,121,9999,9999,9999,682908788
70,6,10,Ticks_ISO_T2_5,122,9999,9999,9999,683408488
70,6,10,Ticks_ISO_T2_5,123,9999,9999,9999,683908172
70,6,10,Ticks_ISO_T2_5,124,9999,9999,9999,684408920
70,6,10,Ticks_ISO_T2_5,125,9999,9999,9999,684908608
70,6,10,Ticks_ISO_T2_5,126,9999,9999,9999,685408308
70,6,10,Ticks_ISO_T2_5,127,9999,9999,9999,685909044
70,6,10,Ticks_ISO_T2_5,128,9999,9999,9999,686408812
70,6,10,Ticks_ISO_T2_5,129,9999,9999,9999,686908516
70,7,20,Ticks_Linear_8,0,5,42,127,698024232
70,7,20,Ticks_Linear_8,1,1,48,23,698535660
70,7,20,Ticks_Linear_8,2,5,42,127,698843648
70,7,20,Ticks_Linear_8,3,1,48,29,699612648
70,7,20,Ticks_Linear_8,4,5,42,127,699663832
70,7,20,Ticks_Linear_8,5,5,42,127,700484032
70,7,20,Ticks_Linear_8,6,1,48,30,700502136
70,7,20,Ticks_Linear_8,7,5,42,127,701304272
70,7,20,Ticks_Linear_8,8,1,48,32,701345360
70,7,20,Ticks_Linear_8,9,5,42,127,702114108
70,7,20,Ticks_Linear_8,10,1,48,34,702152652
70,7,20,Ticks_Linear_8,11,5,42,127,702924092
70,7,20,Ticks_Linear_8,12,1,48,35,702942720
70,7,20,Ticks_Linear_8,13,5,42,127,703734000
70,7,20,Ticks_Linear_8,14,1,48,34,703746184
70,7,20,Ticks_Linear_8,15,1,48,35,704514952
70,7,20,Ticks_Linear_8,16,5,42,127,704544200
70,7,20,Ticks_Linear_8,17,5,42,127,705354212
70,7,20,Ticks_Linear_8,18,1,48,34,705356152
70,7,20,Ticks_Linear_8,19,5,42,127,706153788
70,7,20,Ticks_Linear_8,20,1,48,35,706181852
70,7,20,Ticks_Linear_8,21,1,48,32,706947252
70,7,20,Ticks_Linear_8,22,5,42,127,706953580
70,7,20,Ticks_Linear_8,23,5,42,127,707754432
70,7,20,Ticks_Linear_8,24,1,48,34,707762804
70,7,20,Ticks_Linear_8,25,5,42,127,708554232
70,7,20,Ticks_Linear_8,26,1,48,33,708559000
70,7,20,Ticks_Linear_8,27,5,42,127,709353732
70,7,20,Ticks_Linear_8,28,1,48,33,709378492
70,7,20,Ticks_Linear_8,29,1,48,32,710129816
70,7,20,Ticks_Linear_8,30,5,42,127,710144460
70,7,20,Ticks_Linear_8,31,5,42,127,710933936
70,7,20,Ticks_Linear_8,32,1,48,34,710961500
70,7,20,Ticks_Linear_8,33,1,48,33,711693324
70,7,20,Ticks_Linear_8,34,5,42,127,711724464
70,7,20,Ticks_Linear_8,35,5,42,127,712513784
70,7,20,Ticks_Linear_8,36,1,48,32,712516600
70,7,20,Ticks_Linear_8,37,5,42,127,713304448
70,7,20,Ticks_Linear_8,38,1,48,31,713319696
70,7,20,Ticks_Linear_8,39,5,42,127,714093984
70,7,20,Ticks_Linear_8,40,1,48,29,714118524
70,7,20,Ticks_Linear_8,41,5,42,127,714874388
70,7,20,Ticks_Linear_8,42,1,48,30,714914580
70,7,20,Ticks_Linear_8,43,1,48,30,715648080
70,7,20,Ticks_Linear_8,44,5,42,127,715653440
70,7,20,Ticks_Linear_8,45,1,48,31,716430196
70,7,20,Ticks_Linear_8,46,5,42,127,716433912
70,7,20,Ticks_Linear_8,47,5,42,127,717214100
70,7,20,Ticks_Linear_8,48,1,48,35,717247920
70,7,20,Ticks_Linear_8,49,5,42,127,717984388
70,7,20,Ticks_Linear_8,50,1,48,33,717997544
70,7,20,Ticks_Linear_8,51,1,48,29,718716888
70,7,20,Ticks_Linear_8,52,5,42,127,718754448
70,7,20,Ticks_Linear_8,53,5,42,127,719524304
70,7,20,Ticks_Linear_8,54,1,48,31,719531016
70,7,20,Ticks_Linear_8,55,5,42,127,720294220
70,7,20,Ticks_Linear_8,56,1,48,30,720334040
70,7,20,Ticks_Linear_8,57,5,42,127,721064512
70,7,20,Ticks_Linear_8,58,1,48,34,721093028
70,7,20,Ticks_Linear_8,59,5,42,127,721824248
70,7,20,Ticks_Linear_8,60,1,48,35,721858596
70,7,20,Ticks_Linear_8,61,5,42,127,722583908
70,7,20,Ticks_Linear_8,62,1,48,25,722666784
70,7,20,Ticks_Linear_8,63,1,48,34,723334828
70,7,20,Ticks_Linear_8,64,5,42,127,723343708
70,7,20,Ticks_Linear_8,65,1,48,32,724092768
70,7,20,Ticks_Linear_8,66,5,42,127,724103516
70,7,20,Ticks_Linear_8,67,5,42,127,724864380
70,7,20,Ticks_Linear_8,68,1,48,32,724900972
70,7,20,Ticks_Linear_8,69,5,42,127,725614004
70,7,20,Ticks_Linear_8,70,1,48,29,725646632
70,7,20,Ticks_Linear_8,71,1,48,30,726361360
70,7,20,Ticks_Linear_8,72,5,42,127,726363472
70,7,20,Ticks_Linear_8,73,5,42,127,727114076
70,7,20,Ticks_Linear_8,74,1,48,26,727139808
70,7,20,Ticks_Linear_8,75,5,42,127,727863628
70,7,20,Ticks_Linear_8,76,1,48,28,727866896
70,7,20,Ticks_Linear_8,77,5,42,127,728614148
70,7,20,Ticks_Linear_8,78,1,48,26,728651560
70,7,20,Ticks_Linear_8,79,5,42,127,729353564
70,7,20,Ticks_Linear_8,80,1,48,26,729401796
70,7,20,Ticks_Linear_8,81,5,42,127,730093828
70,7,20,Ticks_Linear_8,82,1,48,31,730114916
70,7,20,Ticks_Linear_8,83,1,48,32,730825648
70,7,20,Ticks_Linear_8,84,5,42,127,730834232
70,7,20,Ticks_Linear_8,85,1,48,34,731553192
70,7,20,Ticks_Linear_8,86,5,42,127,731573596
70,7,20,Ticks_Linear_8,87,5,42,127,732313940
70,7,20,Ticks_Linear_8,88,1,48,33,732338628
70,7,20,Ticks_Linear_8,89,5,42,127,733043944
70,7,20,Ticks_Linear_8,90,1,48,30,733050956
70,7,20,Ticks_Linear_8,91,5,42,127,733774096
70,7,20,Ticks_Linear_8,92,1,48,29,733786284
70,7,20,Ticks_Linear_8,93,5,42,127,734504176
70,7,20,Ticks_Linear_8,94,1,48,27,734527888
70,7,20,Ticks_Linear_8,95,1,48,24,735217032
70,7,20,Ticks_Linear_8,96,5,42,127,735234372
70,7,20,Ticks_Linear_8,97,1,48,27,735940068
70,7,20,Ticks_Linear_8,98,5,42,127,735973740
70,7,20,Ticks_Linear_8,99,5,42,127,736693640
70,7,20,Ticks_Linear_8,100,1,48,35,736696156
70,7,20,Ticks_Linear_8,101,5,42,127,737413384
70,7,20,Ticks_Linear_8,102,1,48,30,737414424
70,7,20,Ticks_Linear_8,103,5,42,127,738134252
70,7,20,Ticks_Linear_8,104,1,48,36,738147332
70,7,20,Ticks_Linear_8,105,1,48,31,738817600
70,7,20,Ticks_Linear_8,106,5,42,127,738854136
70,7,20,Ticks_Linear_8,107,5,42,127,739574088
70,7,20,Ticks_Linear_8,108,1,48,34,739612484
70,7,20,Ticks_Linear_8,109,5,42,127,740283944
70,7,20,Ticks_Linear_8,110,1,48,30,740322116
70,7,20,Ticks_Linear_8,111,5,42,127,740994700
70,7,20,Ticks_Linear_8,112,1,48,25,741025160
70,7,20,Ticks_Linear_8,113,1,48,28,741675604
70,7,20,Ticks_Linear_8,114,5,42,127,741714288
70,7,20,Ticks_Linear_8,115,1,48,31,742398912
70,7,20,Ticks_Linear_8,116,5,42,127,742423900
70,7,20,Ticks_Linear_8,117,5,42,127,743133688
70,7,20,Ticks_Linear_8,118,1,48,27,743143704
70,7,20,Ticks_Linear_8,119,5,42,127,743833964
70,7,20,Ticks_Linear_8,120,1,48,28,743848388
70,7,20,Ticks_Linear_8,121,5,42,127,744534384
70,7,20,Ticks_Linear_8,122,1,48,32,744538776
70,7,20,Ticks_Linear_8,123,1,48,30,745226424
70,7,20,Ticks_Linear_8,124,5,42,127,745233876
70,7,20,Ticks_Linear_8,125,5,42,127,745934232
70,7,20,Ticks_Linear_8,126,1,48,25,745958092
70,7,20,Ticks_Linear_8,127,5,42,127,746633532
70,7,20,Ticks_Linear_8,128,1,48,32,746644964
70,7,20,Ticks_Linear_8,129,1,48,31,747302756
70,7,20,Ticks_Linear_8,130,5,42,127,747323836
70,7,20,Ticks_Linear_8,131,5,42,127,748013908
70,7,20,Ticks_Linear_8,132,1,48,32,748020916
70,7,20,Ticks_Linear_8,133,1,48,30,748685076
70,7,20,Ticks_Linear_8,134,5,42,127,748703988
70,7,20,Ticks_Linear_8,135,5,42,127,749394308
70,7,20,Ticks_Linear_8,136,1,48,33,749415480
70,7,20,Ticks_Linear_8,137,5,42,127,750083548
70,7,20,Ticks_Linear_8,138,1,48,35,750089660
70,7,20,Ticks_Linear_8,139,5,42,127,750764572
70,7,20,Ticks_Linear_8,140,1,48,31,750778176
70,7,20,Ticks_Linear_8,141,5,42,127,751444552
70,7,20,Ticks_Linear_8,142,1,48,32,751450064
70,7,20,Ticks_Linear_8,143,5,42,127,752124504
70,7,20,Ticks_Linear_8,144,1,48,32,752155112
70,7,20,Ticks_Linear_8,145,1,48,29,752757784
70,7,20,Ticks_Linear_8,146,5,42,127,752804324
70,7,20,Ticks_Linear_8,147,5,42,127,753484092
70,7,20,Ticks_Linear_8,148,1,48,30,753500684
70,7,20,Ticks_Linear_8,149,5,42,127,754153784
70,7,20,Ticks_Linear_8,150,1,48,26,754180860
70,7,20,Ticks_Linear_8,151,5,42,127,754823428
70,7,20,Ticks_Linear_8,152,1,48,26,754845196
70,7,20,Ticks_Linear_8,153,1,48,30,755492684
70,7,20,Ticks_Linear_8,154,5,42,127,755494340
70,7,20,Ticks_Linear_8,155,5,42,127,756163888
70,7,20,Ticks_Linear_8,156,1,48,29,756169176
70,7,20,Ticks_Linear_8,157,5,42,127,756833536
70,7,20,Ticks_Linear_8,158,1,48,32,756835472
70,7,20,Ticks_Linear_8,159,5,42,127,757494016
70,7,20,Ticks_Linear_8,160,1,48,32,757517656
70,7,20,Ticks_Linear_8,161,5,42,127,758153476
70,7,20,Ticks_Linear_8,162,1,48,29,758163936
70,7,20,Ticks_Linear_8,163,1,48,31,758802908
70,7,20,Ticks_Linear_8,164,5,42,127,758813952
70,7,20,Ticks_Linear_8,165,1,48,38,759471376
70,7,20,Ticks_Linear_8,166,5,42,127,759473488
70,7,20,Ticks_Linear_8,167,5,42,127,760134000
70,7,20,Ticks_Linear_8,168,1,48,32,760163412
70,7,20,Ticks_Linear_8,169,5,42,127,760784224
70,7,20,Ticks_Linear_8,170,1,48,29,760786816
70,7,20,Ticks_Linear_8,171,5,42,127,761433652
70,7,20,Ticks_Linear_8,172,1,48,32,761435368
70,7,20,Ticks_Linear_8,173,1,48,34,762073044
70,7,20,Ticks_Linear_8,174,5,42,127,762083796
70,7,20,Ticks_Linear_8,175,5,42,127,762733900
70,7,20,Ticks_Linear_8,176,1,48,29,762737992
70,7,20,Ticks_Linear_8,177,1,48,26,763368192
70,7,20,Ticks_Linear_8,178,5,42,127,763384264
70,7,20,Ticks_Linear_8,179,5,42,127,764024484
70,7,20,Ticks_Linear_8,180,1,48,28,764047900
70,7,20,Ticks_Linear_8,181,1,48,34,764660880
70,7,20,Ticks_Linear_8,182,5,42,127,764664440
70,7,20,Ticks_Linear_8,183,5,42,127,765304288
70,7,20,Ticks_Linear_8,184,1,48,32,765320660
70,7,20,Ticks_Linear_8,185,1,48,24,765927432
70,7,20,Ticks_Linear_8,186,5,42,127,765944320
70,7,20,Ticks_Linear_8,187,5,42,127,766584392
70,7,20,Ticks_Linear_8,188,1,48,29,766593432
70,7,20,Ticks_Linear_8,189,5,42,127,767214168
70,7,20,Ticks_Linear_8,190,1,48,23,767219908
70,7,20,Ticks_Linear_8,191,5,42,127,767843748
70,7,20,Ticks_Linear_8,192,1,48,31,767847992
70,7,20,Ticks_Linear_8,193,5,42,127,768473380
70,7,20,Ticks_Linear_8,194,1,48,27,768494324
70,7,20,Ticks_Linear_8,195,1,48,28,769086208
70,7,20,Ticks_Linear_8,196,5,42,127,769104372
70,7,20,Ticks_Linear_8,197,1,48,27,769710440
70,7,20,Ticks_Linear_8,198,5,42,127,769734224
70,7,20,Ticks_Linear_8,199,1,48,24,770326368
70,7,20,Ticks_Linear_8,200,5,42,127,770353476
70,7,20,Ticks_Linear_8,201,5,42,127,770974272
70,7,20,Ticks_Linear_8,202,1,48,25,770986604
70,7,20,Ticks_Linear_8,203,5,42,127,771593572
70,7,20,Ticks_Linear_8,204,1,48,23,771629140
70,7,20,Ticks_Linear_8,205,1,48,33,772204756
70,7,20,Ticks_Linear_8,206,5,42,127,772214232
70,7,20,Ticks_Linear_8,207,1,48,40,772796568
70,7,20,Ticks_Linear_8,208,5,42,127,772833824
70,7,20,Ticks_Linear_8,209,5,42,127,773444164
70,7,20,Ticks_Linear_8,210,1,48,38,773452456
70,7,20,Ticks_Linear_8,211,5,42,127,774054176
70,7,20,Ticks_Linear_8,212,1,48,36,774082536
70,7,20,Ticks_Linear_8,213,1,48,41,774662232
70,7,20,Ticks_Linear_8,214,5,42,127,774663580
70,7,20,Ticks_Linear_8,215,5,42,127,775273992
70,7,20,Ticks_Linear_8,216,1,48,26,775304524
70,7,20,Ticks_Linear_8,217,5,42,127,775884152
70,7,20,Ticks_Linear_8,218,1,48,34,775889068
70,7,20,Ticks_Linear_8,219,5,42,127,776484152
70,7,20,Ticks_Linear_8,220,1,48,35,776499172
70,7,20,Ticks_Linear_8,221,5,42,127,777084276
70,7,20,Ticks_Linear_8,222,1,48,37,777111352
70,7,20,Ticks_Linear_8,223,5,42,127,777684400
70,7,20,Ticks_Linear_8,224,1,48,32,777716128
70,7,20,Ticks_Linear_8,225,5,42,127,778284472
70,7,20,Ticks_Linear_8,226,1,48,35,778295008
70,7,20,Ticks_Linear_8,227,5,42,127,778883328
70,7,20,Ticks_Linear_8,228,1,48,32,778901264
70,7,20,Ticks_Linear_8,229,5,42,127,779474164
70,7,20,Ticks_Linear_8,230,1,48,31,779475128
70,7,20,Ticks_Linear_8,231,5,42,127,780064100
70,7,20,Ticks_Linear_8,232,1,48,32,780088588
70,7,20,Ticks_Linear_8,233,5,42,127,780653992
70,7,20,Ticks_Linear_8,234,1,48,29,780675832
70,7,20,Ticks_Linear_8,235,1,48,28,781226508
70,7,20,Ticks_Linear_8,236,5,42,127,781243924
70,7,20,Ticks_Linear_8,237,1,48,33,781782824
70,7,20,Ticks_Linear_8,238,5,42,127,781833564
70,7,20,Ticks_Linear_8,239,5,42,127,782414172
70,7,20,Ticks_Linear_8,240,1,48,30,782429944
70,7,20,Ticks_Linear_8,241,5,42,127,782994076
70,7,20,Ticks_Linear_8,242,1,48,24,783021468
70,7,20,Ticks_Linear_8,243,1,48,32,783552148
70,7,20,Ticks_Linear_8,244,5,42,127,783574352
70,7,20,Ticks_Linear_8,245,1,48,31,784113704
70,7,20,Ticks_Linear_8,246,5,42,127,784153956
70,7,20,Ticks_Linear_8,247,1,48,29,784722388
70,7,20,Ticks_Linear_8,248,5,42,127,784733436
70,7,20,Ticks_Linear_8,249,1,48,30,785292560
70,7,20,Ticks_Linear_8,250,5,42,127,785304052
70,7,20,Ticks_Linear_8,251,5,42,127,785874228
70,7,20,Ticks_Linear_8,252,1,48,29,785875192
70,7,20,Ticks_Linear_8,253,5,42,127,786443576
70,7,20,Ticks_Linear_8,254,1,48,28,786449160
70,7,20,Ticks_Linear_8,255,5,42,127,787014140
70,7,20,Ticks_Linear_8,256,1,48,25,787045268
70,7,20,Ticks_Linear_8,257,1,48,31,787569580
70,7,20,Ticks_Linear_8,258,5,42,127,787584456
70,7,20,Ticks_Linear_8,259,1,48,29,788136532
70,7,20,Ticks_Linear_8,260,5,42,127,788143616
70,7,20,Ticks_Linear_8,261,1,48,26,788686556
70,7,20,Ticks_Linear_8,262,5,42,127,788703752
70,7,20,Ticks_Linear_8,263,5,42,127,789263892
70,7,20,Ticks_Linear_8,264,1,48,24,789281860
70,7,20,Ticks_Linear_8,265,1,48,31,789805656
70,7,20,Ticks_Linear_8,266,5,42,127,789823820
70,7,20,Ticks_Linear_8,267,1,48,28,790381504
70,7,20,Ticks_Linear_8,268,5,42,127,790383952
70,7,20,Ticks_Linear_8,269,1,48,26,790895072
70,7,20,Ticks_Linear_8,270,5,42,127,790933976
70,7,20,Ticks_Linear_8,271,5,42,127,791483784
70,7,20,Ticks_Linear_8,272,1,48,26,791497016
70,7,20,Ticks_Linear_8,273,5,42,127,792033732
70,7,20,Ticks_Linear_8,274,1,48,24,792055648
70,7,20,Ticks_Linear_8,275,5,42,127,792583532
70,7,20,Ticks_Linear_8,276,1,48,21,792605448
70,7,20,Ticks_Linear_8,277,5,42,127,793133732
70,7,20,Ticks_Linear_8,278,1,48,25,793134844
70,7,20,Ticks_Linear_8,279,5,42,127,793674244
70,7,20,Ticks_Linear_8,280,1,48,32,793701708
70,7,20,Ticks_Linear_8,281,5,42,127,794213860
70,7,20,Ticks_Linear_8,282,1,48,27,794223420
70,7,20,Ticks_Linear_8,283,5,42,127,794754448
70,7,20,Ticks_Linear_8,284,1,48,28,794769844
70,7,20,Ticks_Linear_8,285,1,48,26,795259784
70,7,20,Ticks_Linear_8,286,5,42,127,795304240
70,7,20,Ticks_Linear_8,287,1,48,16,795838872
70,7,20,Ticks_Linear_8,288,5,42,127,795843932
70,7,20,Ticks_Linear_8,289,5,42,127,796374344
70,7,20,Ticks_Linear_8,290,1,48,19,796394236
70,7,20,Ticks_Linear_8,291,5,42,127,796903696
70,7,20,Ticks_Linear_8,292,1,48,37,796909508
70,7,20,Ticks_Linear_8,293,5,42,127,797434252
70,7,20,Ticks_Linear_8,294,1,48,35,797451460
70,7,20,Ticks_Linear_8,295,5,42,127,797963828
70,7,20,Ticks_Linear_8,296,1,48,21,798000372
70,7,20,Ticks_Linear_8,297,1,48,26,798468500
70,7,20,Ticks_Linear_8,298,5,42,127,798494080
70,7,20,Ticks_Linear_8,299,1,48,41,798988268
70,7,20,Ticks_Linear_8,300,5,42,127,799014320
70,7,20,Ticks_Linear_8,301,1,48,38,799498752
70,7,20,Ticks_Linear_8,302,5,42,127,799533420
70,7,20,Ticks_Linear_8,303,1,48,24,800031544
70,7,20,Ticks_Linear_8,304,5,42,127,800053564
70,7,20,Ticks_Linear_8,305,1,48,24,800541056
70,7,20,Ticks_Linear_8,306,5,42,127,800573704
70,7,20,Ticks_Linear_8,307,1,48,38,801055364
70,7,20,Ticks_Linear_8,308,5,42,127,801094076
70,7,20,Ticks_Linear_8,309,1,48,28,801585644
70,7,20,Ticks_Linear_8,310,5,42,127,801603960
70,7,20,Ticks_Linear_8,311,1,48,29,802108488
70,7,20,Ticks_Linear_8,312,5,42,127,802113772
70,7,20,Ticks_Linear_8,313,1,48,20,802619940
70,7,20,Ticks_Linear_8,314,5,42,127,802623732
70,7,20,Ticks_Linear_8,315,1,48,38,803119864
70,7,20,Ticks_Linear_8,316,5,42,127,803133692
70,7,20,Ticks_Linear_8,317,1,48,43,803624068
70,7,20,Ticks_Linear_8,318,5,42,127,803643876
70,7,20,Ticks_Linear_8,319,5,42,127,804143728
70,7,20,Ticks_Linear_8,320,1,48,21,804176956
70,7,20,Ticks_Linear_8,321,5,42,127,804644328
70,7,20,Ticks_Linear_8,322,1,48,27,804655168
70,7,20,Ticks_Linear_8,323,5,42,127,805144080
70,7,20,Ticks_Linear_8,324,1,48,42,805149820
70,7,20,Ticks_Linear_8,325,5,42,127,805643632
70,7,20,Ticks_Linear_8,326,1,48,37,805655140
70,7,20,Ticks_Linear_8,327,5,42,127,806144452
70,7,20,Ticks_Linear_8,328,1,48,24,806186392
70,7,20,Ticks_Linear_8,329,5,42,127,806633820
70,7,20,Ticks_Linear_8,330,1,48,27,806652300
70,7,20,Ticks_Linear_8,331,1,48,33,807118564
70,7,20,Ticks_Linear_8,332,5,42,127,807124524
70,7,20,Ticks_Linear_8,333,5,42,127,807613676
70,7,20,Ticks_Linear_8,334,1,48,33,807614640
70,7,20,Ticks_Linear_8,335,5,42,127,808104536
70,7,20,Ticks_Linear_8,336,1,48,29,808127276
70,7,20,Ticks_Linear_8,337,1,48,32,808566520
70,7,20,Ticks_Linear_8,338,5,42,127,808593672
70,7,20,Ticks_Linear_8,0,9999,9999,9999,698022008
70,7,20,Ticks_Linear_8,1,9999,9999,9999,698841204
70,7,20,Ticks_Linear_8,2,9999,9999,9999,699661384
70,7,20,Ticks_Linear_8,3,9999,9999,9999,700481660
70,7,20,Ticks_Linear_8,4,9999,9999,9999,701301824
70,7,20,Ticks_Linear_8,5,9999,9999,9999,702111808
70,7,20,Ticks_Linear_8,6,9999,9999,9999,702921792
70,7,20,Ticks_Linear_8,7,9999,9999,9999,703731776
70,7,20,Ticks_Linear_8,8,9999,9999,9999,704541752
70,7,20,Ticks_Linear_8,9,9999,9999,9999,705351764
70,7,20,Ticks_Linear_8,10,9999,9999,9999,706151492
70,7,20,Ticks_Linear_8,11,9999,9999,9999,706951284
70,7,20,Ticks_Linear_8,12,9999,9999,9999,707752060
70,7,20,Ticks_Linear_8,13,9999,9999,9999,708551784
70,7,20,Ticks_Linear_8,14,9999,9999,9999,709351508
70,7,20,Ticks_Linear_8,15,9999,9999,9999,710142016
70,7,20,Ticks_Linear_8,16,9999,9999,9999,710931560
70,7,20,Ticks_Linear_8,17,9999,9999,9999,711722088
70,7,20,Ticks_Linear_8,18,9999,9999,9999,712511560
70,7,20,Ticks_Linear_8,19,9999,9999,9999,713302072
70,7,20,Ticks_Linear_8,20,9999,9999,9999,714091612
70,7,20,Ticks_Linear_8,21,9999,9999,9999,714871864
70,7,20,Ticks_Linear_8,22,9999,9999,9999,715651140
70,7,20,Ticks_Linear_8,23,9999,9999,9999,716431468
70,7,20,Ticks_Linear_8,24,9999,9999,9999,717211724
70,7,20,Ticks_Linear_8,25,9999,9999,9999,717981792
70,7,20,Ticks_Linear_8,26,9999,9999,9999,718751852
70,7,20,Ticks_Linear_8,27,9999,9999,9999,719521856
70,7,20,Ticks_Linear_8,28,9999,9999,9999,720291924
70,7,20,Ticks_Linear_8,29,9999,9999,9999,721061992
70,7,20,Ticks_Linear_8,30,9999,9999,9999,721821800
70,7,20,Ticks_Linear_8,31,9999,9999,9999,722581608
70,7,20,Ticks_Linear_8,32,9999,9999,9999,723341408
70,7,20,Ticks_Linear_8,33,9999,9999,9999,724101220
70,7,20,Ticks_Linear_8,34,9999,9999,9999,724862080
70,7,20,Ticks_Linear_8,35,9999,9999,9999,725611632
70,7,20,Ticks_Linear_8,36,9999,9999,9999,726361212
70,7,20,Ticks_Linear_8,37,9999,9999,9999,727111776
70,7,20,Ticks_Linear_8,38,9999,9999,9999,727861328
70,7,20,Ticks_Linear_8,39,9999,9999,9999,728611924
70,7,20,Ticks_Linear_8,40,9999,9999,9999,729351264
70,7,20,Ticks_Linear_8,41,9999,9999,9999,730091604
70,7,20,Ticks_Linear_8,42,9999,9999,9999,730831932
70,7,20,Ticks_Linear_8,43,9999,9999,9999,731571300
70,7,20,Ticks_Linear_8,44,9999,9999,9999,732311640
70,7,20,Ticks_Linear_8,45,9999,9999,9999,733041720
70,7,20,Ticks_Linear_8,46,9999,9999,9999,733771872
70,7,20,Ticks_Linear_8,47,9999,9999,9999,734501952
70,7,20,Ticks_Linear_8,48,9999,9999,9999,735232072
70,7,20,Ticks_Linear_8,49,9999,9999,9999,735971440
70,7,20,Ticks_Linear_8,50,9999,9999,9999,736691268
70,7,20,Ticks_Linear_8,51,9999,9999,9999,737411160
70,7,20,Ticks_Linear_8,52,9999,9999,9999,738132028
70,7,20,Ticks_Linear_8,53,9999,9999,9999,738851912
70,7,20,Ticks_Linear_8,54,9999,9999,9999,739571788
70,7,20,Ticks_Linear_8,55,9999,9999,9999,740281424
70,7,20,Ticks_Linear_8,56,9999,9999,9999,740992104
70,7,20,Ticks_Linear_8,57,9999,9999,9999,741711988
70,7,20,Ticks_Linear_8,58,9999,9999,9999,742421600
70,7,20,Ticks_Linear_8,59,9999,9999,9999,743131240
70,7,20,Ticks_Linear_8,60,9999,9999,9999,743831664
70,7,20,Ticks_Linear_8,61,9999,9999,9999,744532088
70,7,20,Ticks_Linear_8,62,9999,9999,9999,745231432
70,7,20,Ticks_Linear_8,63,9999,9999,9999,745931860
70,7,20,Ticks_Linear_8,64,9999,9999,9999,746631232
70,7,20,Ticks_Linear_8,65,9999,9999,9999,747321464
70,7,20,Ticks_Linear_8,66,9999,9999,9999,748011608
70,7,20,Ticks_Linear_8,67,9999,9999,9999,748701764
70,7,20,Ticks_Linear_8,68,9999,9999,9999,749391932
70,7,20,Ticks_Linear_8,69,9999,9999,9999,750081100
70,7,20,Ticks_Linear_8,70,9999,9999,9999,750762052
70,7,20,Ticks_Linear_8,71,9999,9999,9999,751442028
70,7,20,Ticks_Linear_8,72,9999,9999,9999,752121980
70,7,20,Ticks_Linear_8,73,9999,9999,9999,752801880
70,7,20,Ticks_Linear_8,74,9999,9999,9999,753481792
70,7,20,Ticks_Linear_8,75,9999,9999,9999,754151488
70,7,20,Ticks_Linear_8,76,9999,9999,9999,754821204
70,7,20,Ticks_Linear_8,77,9999,9999,9999,755491896
70,7,20,Ticks_Linear_8,78,9999,9999,9999,756161592
70,7,20,Ticks_Linear_8,79,9999,9999,9999,756831308
70,7,20,Ticks_Linear_8,80,9999,9999,9999,757491792
70,7,20,Ticks_Linear_8,81,9999,9999,9999,758151252
70,7,20,Ticks_Linear_8,82,9999,9999,9999,758811728
70,7,20,Ticks_Linear_8,83,9999,9999,9999,759471236
70,7,20,Ticks_Linear_8,84,9999,9999,9999,760131700
70,7,20,Ticks_Linear_8,85,9999,9999,9999,760781924
70,7,20,Ticks_Linear_8,86,9999,9999,9999,761431128
70,7,20,Ticks_Linear_8,87,9999,9999,9999,762081348
70,7,20,Ticks_Linear_8,88,9999,9999,9999,762731600
70,7,20,Ticks_Linear_8,89,9999,9999,9999,763381816
70,7,20,Ticks_Linear_8,90,9999,9999,9999,764021888
70,7,20,Ticks_Linear_8,91,9999,9999,9999,764661844
70,7,20,Ticks_Linear_8,92,9999,9999,9999,765301840
70,7,20,Ticks_Linear_8,93,9999,9999,9999,765941872
70,7,20,Ticks_Linear_8,94,9999,9999,9999,766581868
70,7,20,Ticks_Linear_8,95,9999,9999,9999,767211648
70,7,20,Ticks_Linear_8,96,9999,9999,9999,767841376
70,7,20,Ticks_Linear_8,97,9999,9999,9999,768471156
70,7,20,Ticks_Linear_8,98,9999,9999,9999,769101924
70,7,20,Ticks_Linear_8,99,9999,9999,9999,769731704
70,7,20,Ticks_Linear_8,100,9999,9999,9999,770351176
70,7,20,Ticks_Linear_8,101,9999,9999,9999,770971752
70,7,20,Ticks_Linear_8,102,9999,9999,9999,771591272
70,7,20,Ticks_Linear_8,103,9999,9999,9999,772211784
70,7,20,Ticks_Linear_8,104,9999,9999,9999,772831300
70,7,20,Ticks_Linear_8,105,9999,9999,9999,773441644
70,7,20,Ticks_Linear_8,106,9999,9999,9999,774051952
70,7,20,Ticks_Linear_8,107,9999,9999,9999,774661212
70,7,20,Ticks_Linear_8,108,9999,9999,9999,775271544
70,7,20,Ticks_Linear_8,109,9999,9999,9999,775881852
70,7,20,Ticks_Linear_8,110,9999,9999,9999,776481852
70,7,20,Ticks_Linear_8,111,9999,9999,9999,777081980
70,7,20,Ticks_Linear_8,112,9999,9999,9999,777682028
70,7,20,Ticks_Linear_8,113,9999,9999,9999,778282100
70,7,20,Ticks_Linear_8,114,9999,9999,9999,778881100
70,7,20,Ticks_Linear_8,115,9999,9999,9999,779471940
70,7,20,Ticks_Linear_8,116,9999,9999,9999,780061804
70,7,20,Ticks_Linear_8,117,9999,9999,9999,780651616
70,7,20,Ticks_Linear_8,118,9999,9999,9999,781241400
70,7,20,Ticks_Linear_8,119,9999,9999,9999,781831264
70,7,20,Ticks_Linear_8,120,9999,9999,9999,782411872
70,7,20,Ticks_Linear_8,121,9999,9999,9999,782991480
70,7,20,Ticks_Linear_8,122,9999,9999,9999,783572052
70,7,20,Ticks_Linear_8,123,9999,9999,9999,784151656
70,7,20,Ticks_Linear_8,124,9999,9999,9999,784731212
70,7,20,Ticks_Linear_8,125,9999,9999,9999,785301604
70,7,20,Ticks_Linear_8,126,9999,9999,9999,785871928
70,7,20,Ticks_Linear_8,127,9999,9999,9999,786441276
70,7,20,Ticks_Linear_8,128,9999,9999,9999,787011692
70,7,20,Ticks_Linear_8,129,9999,9999,9999,787582008
70,7,20,Ticks_Linear_8,130,9999,9999,9999,788141168
70,7,20,Ticks_Linear_8,131,9999,9999,9999,788701304
70,7,20,Ticks_Linear_8,132,9999,9999,9999,789261368
70,7,20,Ticks_Linear_8,133,9999,9999,9999,789821520
70,7,20,Ticks_Linear_8,134,9999,9999,9999,790381652
70,7,20,Ticks_Linear_8,135,9999,9999,9999,790931532
70,7,20,Ticks_Linear_8,136,9999,9999,9999,791481412
70,7,20,Ticks_Linear_8,137,9999,9999,9999,792031284
70,7,20,Ticks_Linear_8,138,9999,9999,9999,792581236
70,7,20,Ticks_Linear_8,139,9999,9999,9999,793131132
70,7,20,Ticks_Linear_8,140,9999,9999,9999,793671796
70,7,20,Ticks_Linear_8,141,9999,9999,9999,794211412
70,7,20,Ticks_Linear_8,142,9999,9999,9999,794752072
70,7,20,Ticks_Linear_8,143,9999,9999,9999,795302016
70,7,20,Ticks_Linear_8,144,9999,9999,9999,795841632
70,7,20,Ticks_Linear_8,145,9999,9999,9999,796372044
70,7,20,Ticks_Linear_8,146,9999,9999,9999,796901472
70,7,20,Ticks_Linear_8,147,9999,9999,9999,797431876
70,7,20,Ticks_Linear_8,148,9999,9999,9999,797961308
70,7,20,Ticks_Linear_8,149,9999,9999,9999,798491704
70,7,20,Ticks_Linear_8,150,9999,9999,9999,799011948
70,7,20,Ticks_Linear_8,151,9999,9999,9999,799531120
70,7,20,Ticks_Linear_8,152,9999,9999,9999,800051264
70,7,20,Ticks_Linear_8,153,9999,9999,9999,800571480
70,7,20,Ticks_Linear_8,154,9999,9999,9999,801091700
70,7,20,Ticks_Linear_8,155,9999,9999,9999,801601660
70,7,20,Ticks_Linear_8,156,9999,9999,9999,802111548
70,7,20,Ticks_Linear_8,157,9999,9999,9999,802621508
70,7,20,Ticks_Linear_8,158,9999,9999,9999,803131464
70,7,20,Ticks_Linear_8,159,9999,9999,9999,803641428
70,7,20,Ticks_Linear_8,160,9999,9999,9999,804141132
70,7,20,Ticks_Linear_8,161,9999,9999,9999,804641880
70,7,20,Ticks_Linear_8,162,9999,9999,9999,805141556
70,7,20,Ticks_Linear_8,163,9999,9999,9999,805641332
70,7,20,Ticks_Linear_8,164,9999,9999,9999,806142080
70,7,20,Ticks_Linear_8,165,9999,9999,9999,806631524
70,7,20,Ticks_Linear_8,166,9999,9999,9999,807122004
70,7,20,Ticks_Linear_8,167,9999,9999,9999,807611452
70,7,20,Ticks_Linear_8,168,9999,9999,9999,808102012
70,7,20,Ticks_Linear_8,169,9999,9999,9999,808591448
70,8,21,Ticks_Linear_5,0,5,42,127,817685848
70,8,21,Ticks_Linear_5,1,1,48,19,818145156
70,8,21,Ticks_Linear_5,2,5,42,127,818166164
70,8,21,Ticks_Linear_5,3,1,48,27,818627636
70,8,21,Ticks_Linear_5,4,5,42,127,818646396
70,8,21,Ticks_Linear_5,5,1,48,27,819114380
70,8,21,Ticks_Linear_5,6,5,42,127,819125648
70,8,21,Ticks_Linear_5,7,5,42,127,819606032
70,8,21,Ticks_Linear_5,8,1,48,31,819611248
70,8,21,Ticks_Linear_5,9,1,48,28,820089284
70,8,21,Ticks_Linear_5,10,5,42,127,820096368
70,8,21,Ticks_Linear_5,11,5,42,127,820585888
70,8,21,Ticks_Linear_5,12,1,48,32,820589156
70,8,21,Ticks_Linear_5,13,1,48,32,821074712
70,8,21,Ticks_Linear_5,14,5,42,127,821076292
70,8,21,Ticks_Linear_5,15,1,48,34,821554244
70,8,21,Ticks_Linear_5,16,5,42,127,821565736
70,8,21,Ticks_Linear_5,17,1,48,33,822031592
70,8,21,Ticks_Linear_5,18,5,42,127,822056448
70,8,21,Ticks_Linear_5,19,1,48,27,822518560
70,8,21,Ticks_Linear_5,20,5,42,127,822556344
70,8,21,Ticks_Linear_5,21,1,48,28,823031660
70,8,21,Ticks_Linear_5,22,5,42,127,823055748
70,8,21,Ticks_Linear_5,23,1,48,32,823509872
70,8,21,Ticks_Linear_5,24,5,42,127,823555372
70,8,21,Ticks_Linear_5,25,1,48,31,824049560
70,8,21,Ticks_Linear_5,26,5,42,127,824056192
70,8,21,Ticks_Linear_5,27,1,48,26,824547916
70,8,21,Ticks_Linear_5,28,5,42,127,824555896
70,8,21,Ticks_Linear_5,29,1,48,28,825035040
70,8,21,Ticks_Linear_5,30,5,42,127,825065780
70,8,21,Ticks_Linear_5,31,1,48,24,825539004
70,8,21,Ticks_Linear_5,32,5,42,127,825575664
70,8,21,Ticks_Linear_5,33,1,48,23,826069036
70,8,21,Ticks_Linear_5,34,5,42,127,826085700
70,8,21,Ticks_Linear_5,35,1,48,25,826570976
70,8,21,Ticks_Linear_5,36,5,42,127,826595660
70,8,21,Ticks_Linear_5,37,1,48,29,827067984
70,8,21,Ticks_Linear_5,38,5,42,127,827105544
70,8,21,Ticks_Linear_5,39,1,48,22,827579812
70,8,21,Ticks_Linear_5,40,5,42,127,827626060
70,8,21,Ticks_Linear_5,41,1,48,23,828108272
70,8,21,Ticks_Linear_5,42,5,42,127,828146200
70,8,21,Ticks_Linear_5,43,1,48,25,828645188
70,8,21,Ticks_Linear_5,44,5,42,127,828666196
70,8,21,Ticks_Linear_5,45,1,48,25,829157696
70,8,21,Ticks_Linear_5,46,5,42,127,829186492
70,8,21,Ticks_Linear_5,47,1,48,21,829693404
70,8,21,Ticks_Linear_5,48,5,42,127,829715996
70,8,21,Ticks_Linear_5,49,1,48,21,830223824
70,8,21,Ticks_Linear_5,50,5,42,127,830246272
70,8,21,Ticks_Linear_5,51,1,48,25,830741484
70,8,21,Ticks_Linear_5,52,5,42,127,830775852
70,8,21,Ticks_Linear_5,53,1,48,26,831271908
70,8,21,Ticks_Linear_5,54,5,42,127,831306180
70,8,21,Ticks_Linear_5,55,1,48,32,831797308
70,8,21,Ticks_Linear_5,56,5,42,127,831835388
70,8,21,Ticks_Linear_5,57,1,48,27,832346432
70,8,21,Ticks_Linear_5,58,5,42,127,832365864
70,8,21,Ticks_Linear_5,59,1,48,29,832854740
70,8,21,Ticks_Linear_5,60,5,42,127,832905552
70,8,21,Ticks_Linear_5,61,1,48,23,833399148
70,8,21,Ticks_Linear_5,62,5,42,127,833446216
70,8,21,Ticks_Linear_5,63,1,48,24,833933900
70,8,21,Ticks_Linear_5,64,5,42,127,833985832
70,8,21,Ticks_Linear_5,65,1,48,31,834468788
70,8,21,Ticks_Linear_5,66,5,42,127,834525596
70,8,21,Ticks_Linear_5,67,1,48,17,835036864
70,8,21,Ticks_Linear_5,68,5,42,127,835066184
70,8,21,Ticks_Linear_5,69,1,48,26,835591748
70,8,21,Ticks_Linear_5,70,5,42,127,835616084
70,8,21,Ticks_Linear_5,71,1,48,22,836160600
70,8,21,Ticks_Linear_5,72,5,42,127,836165956
70,8,21,Ticks_Linear_5,73,1,48,26,836704264
70,8,21,Ticks_Linear_5,74,5,42,127,836716052
70,8,21,Ticks_Linear_5,75,1,48,28,837239228
70,8,21,Ticks_Linear_5,76,5,42,127,837266076
70,8,21,Ticks_Linear_5,77,1,48,22,837794648
70,8,21,Ticks_Linear_5,78,5,42,127,837815804
70,8,21,Ticks_Linear_5,79,1,48,20,838339276
70,8,21,Ticks_Linear_5,80,5,42,127,838375936
70,8,21,Ticks_Linear_5,81,1,48,25,838886228
70,8,21,Ticks_Linear_5,82,5,42,127,838935920
70,8,21,Ticks_Linear_5,83,1,48,24,839450256
70,8,21,Ticks_Linear_5,84,5,42,127,839496080
70,8,21,Ticks_Linear_5,85,1,48,25,840006748
70,8,21,Ticks_Linear_5,86,5,42,127,840056136
70,8,21,Ticks_Linear_5,87,1,48,26,840584632
70,8,21,Ticks_Linear_5,88,5,42,127,840616272
70,8,21,Ticks_Linear_5,89,1,48,26,841150676
70,8,21,Ticks_Linear_5,90,5,42,127,841185764
70,8,21,Ticks_Linear_5,91,1,48,24,841684676
70,8,21,Ticks_Linear_5,92,5,42,127,841755932
70,8,21,Ticks_Linear_5,93,1,48,25,842305916
70,8,21,Ticks_Linear_5,94,5,42,127,842326328
70,8,21,Ticks_Linear_5,95,1,48,24,842865752
70,8,21,Ticks_Linear_5,96,5,42,127,842895744
70,8,21,Ticks_Linear_5,97,1,48,24,843416900
70,8,21,Ticks_Linear_5,98,5,42,127,843465988
70,8,21,Ticks_Linear_5,99,1,48,21,843959360
70,8,21,Ticks_Linear_5,100,5,42,127,844045892
70,8,21,Ticks_Linear_5,101,1,48,22,844547724
70,8,21,Ticks_Linear_5,102,5,42,127,844626268
70,8,21,Ticks_Linear_5,103,1,48,25,845185840
70,8,21,Ticks_Linear_5,104,5,42,127,845205800
70,8,21,Ticks_Linear_5,105,1,48,21,845774136
70,8,21,Ticks_Linear_5,106,5,42,127,845785700
70,8,21,Ticks_Linear_5,107,1,48,23,846342716
70,8,21,Ticks_Linear_5,108,5,42,127,846366228
70,8,21,Ticks_Linear_5,109,1,48,24,846909700
70,8,21,Ticks_Linear_5,110,5,42,127,846955944
70,8,21,Ticks_Linear_5,111,1,48,25,847500608
70,8,21,Ticks_Linear_5,112,5,42,127,847545884
70,8,21,Ticks_Linear_5,113,1,48,33,848115116
70,8,21,Ticks_Linear_5,114,5,42,127,848135524
70,8,21,Ticks_Linear_5,115,1,48,21,848678944
70,8,21,Ticks_Linear_5,116,5,42,127,848726536
70,8,21,Ticks_Linear_5,117,1,48,23,849288280
70,8,21,Ticks_Linear_5,118,5,42,127,849316176
70,8,21,Ticks_Linear_5,119,1,48,27,849851628
70,8,21,Ticks_Linear_5,120,5,42,127,849916224
70,8,21,Ticks_Linear_5,121,1,48,28,850492660
70,8,21,Ticks_Linear_5,122,5,42,127,850516520
70,8,21,Ticks_Linear_5,123,1,48,23,851071516
70,8,21,Ticks_Linear_5,124,5,42,127,851116348
70,8,21,Ticks_Linear_5,125,1,48,29,851687824
70,8,21,Ticks_Linear_5,126,5,42,127,851715568
70,8,21,Ticks_Linear_5,127,1,48,27,852290960
70,8,21,Ticks_Linear_5,128,5,42,127,852315492
70,8,21,Ticks_Linear_5,129,1,48,27,852851316
70,8,21,Ticks_Linear_5,130,5,42,127,852925800
70,8,21,Ticks_Linear_5,131,1,48,24,853510752
70,8,21,Ticks_Linear_5,132,5,42,127,853536060
70,8,21,Ticks_Linear_5,133,1,48,24,854098548
70,8,21,Ticks_Linear_5,134,5,42,127,854146592
70,8,21,Ticks_Linear_5,135,1,48,26,854703160
70,8,21,Ticks_Linear_5,136,5,42,127,854765812
70,8,21,Ticks_Linear_5,137,1,48,24,855318412
70,8,21,Ticks_Linear_5,138,5,42,127,855376220
70,8,21,Ticks_Linear_5,139,1,48,24,855954516
70,8,21,Ticks_Linear_5,140,5,42,127,855995664
70,8,21,Ticks_Linear_5,141,1,48,24,856531936
70,8,21,Ticks_Linear_5,142,5,42,127,856616404
70,8,21,Ticks_Linear_5,143,1,48,25,857231232
70,8,21,Ticks_Linear_5,144,5,42,127,857235852
70,8,21,Ticks_Linear_5,145,1,48,24,857856576
70,8,21,Ticks_Linear_5,146,5,42,127,857857912
70,8,21,Ticks_Linear_5,147,1,48,28,858424332
70,8,21,Ticks_Linear_5,148,5,42,127,858476036
70,8,21,Ticks_Linear_5,149,1,48,25,859076196
70,8,21,Ticks_Linear_5,150,5,42,127,859105740
70,8,21,Ticks_Linear_5,151,1,48,28,859731604
70,8,21,Ticks_Linear_5,152,5,42,127,859736444
70,8,21,Ticks_Linear_5,153,5,42,127,860376416
70,8,21,Ticks_Linear_5,154,1,48,23,860385380
70,8,21,Ticks_Linear_5,155,1,48,19,861003168
70,8,21,Ticks_Linear_5,156,5,42,127,861016544
70,8,21,Ticks_Linear_5,157,1,48,18,861635948
70,8,21,Ticks_Linear_5,158,5,42,127,861656508
70,8,21,Ticks_Linear_5,159,1,48,28,862269344
70,8,21,Ticks_Linear_5,160,5,42,127,862296424
70,8,21,Ticks_Linear_5,161,1,48,27,862888268
70,8,21,Ticks_Linear_5,162,5,42,127,862936388
70,8,21,Ticks_Linear_5,163,1,48,17,863507264
70,8,21,Ticks_Linear_5,164,5,42,127,863576376
70,8,21,Ticks_Linear_5,165,1,48,19,864153772
70,8,21,Ticks_Linear_5,166,5,42,127,864216412
70,8,21,Ticks_Linear_5,167,1,48,19,864748944
70,8,21,Ticks_Linear_5,168,5,42,127,864856384
70,8,21,Ticks_Linear_5,169,1,48,22,865473100
70,8,21,Ticks_Linear_5,170,5,42,127,865515832
70,8,21,Ticks_Linear_5,171,1,48,21,866162440
70,8,21,Ticks_Linear_5,172,5,42,127,866166376
70,8,21,Ticks_Linear_5,173,1,48,25,866806748
70,8,21,Ticks_Linear_5,174,5,42,127,866816380
70,8,21,Ticks_Linear_5,175,1,48,19,867418436
70,8,21,Ticks_Linear_5,176,5,42,127,867465504
70,8,21,Ticks_Linear_5,177,1,48,24,868079888
70,8,21,Ticks_Linear_5,178,5,42,127,868115728
70,8,21,Ticks_Linear_5,179,1,48,24,868750056
70,8,21,Ticks_Linear_5,180,5,42,127,868776384
70,8,21,Ticks_Linear_5,181,1,48,24,869400728
70,8,21,Ticks_Linear_5,182,5,42,127,869435844
70,8,21,Ticks_Linear_5,183,1,48,23,870071348
70,8,21,Ticks_Linear_5,184,5,42,127,870096472
70,8,21,Ticks_Linear_5,185,1,48,18,870747288
70,8,21,Ticks_Linear_5,186,5,42,127,870755784
70,8,21,Ticks_Linear_5,187,1,48,22,871416424
70,8,21,Ticks_Linear_5,188,5,42,127,871417764
70,8,21,Ticks_Linear_5,189,1,48,26,872051044
70,8,21,Ticks_Linear_5,190,5,42,127,872085984
70,8,21,Ticks_Linear_5,191,1,48,21,872724640
70,8,21,Ticks_Linear_5,192,5,42,127,872755480
70,8,21,Ticks_Linear_5,193,1,48,19,873392848
70,8,21,Ticks_Linear_5,194,5,42,127,873426368
70,8,21,Ticks_Linear_5,195,1,48,24,874074636
70,8,21,Ticks_Linear_5,196,5,42,127,874096236
70,8,21,Ticks_Linear_5,197,1,48,24,874707556
70,8,21,Ticks_Linear_5,198,5,42,127,874765636
70,8,21,Ticks_Linear_5,199,1,48,20,875367240
70,8,21,Ticks_Linear_5,200,5,42,127,875445540
70,8,21,Ticks_Linear_5,201,1,48,23,876044948
70,8,21,Ticks_Linear_5,202,5,42,127,876125516
70,8,21,Ticks_Linear_5,203,1,48,16,876803504
70,8,21,Ticks_Linear_5,204,5,42,127,876805468
70,8,21,Ticks_Linear_5,205,1,48,22,877448112
70,8,21,Ticks_Linear_5,206,5,42,127,877485524
70,8,21,Ticks_Linear_5,207,1,48,23,878105080
70,8,21,Ticks_Linear_5,208,5,42,127,878166400
70,8,21,Ticks_Linear_5,209,1,48,23,878738176
70,8,21,Ticks_Linear_5,210,5,42,127,878855476
70,8,21,Ticks_Linear_5,211,1,48,20,879430808
70,8,21,Ticks_Linear_5,212,5,42,127,879546156
70,8,21,Ticks_Linear_5,213,1,48,18,880142280
70,8,21,Ticks_Linear_5,214,5,42,127,880236184
70,8,21,Ticks_Linear_5,215,1,48,17,880903060
70,8,21,Ticks_Linear_5,216,5,42,127,880926052
70,8,21,Ticks_Linear_5,217,1,48,21,881602140
70,8,21,Ticks_Linear_5,218,5,42,127,881616188
70,8,21,Ticks_Linear_5,219,1,48,17,882289164
70,8,21,Ticks_Linear_5,220,5,42,127,882315936
70,8,21,Ticks_Linear_5,221,1,48,20,882990332
70,8,21,Ticks_Linear_5,222,5,42,127,883016060
70,8,21,Ticks_Linear_5,223,1,48,22,883699868
70,8,21,Ticks_Linear_5,224,5,42,127,883715488
70,8,21,Ticks_Linear_5,225,1,48,20,884339784
70,8,21,Ticks_Linear_5,226,5,42,127,884415984
70,8,21,Ticks_Linear_5,227,1,48,19,885063716
70,8,21,Ticks_Linear_5,228,5,42,127,885116180
70,8,21,Ticks_Linear_5,229,1,48,18,885783892
70,8,21,Ticks_Linear_5,230,5,42,127,885826036
70,8,21,Ticks_Linear_5,231,1,48,22,886521596
70,8,21,Ticks_Linear_5,232,5,42,127,886535572
70,8,21,Ticks_Linear_5,233,1,48,23,887234084
70,8,21,Ticks_Linear_5,234,5,42,127,887246252
70,8,21,Ticks_Linear_5,235,1,48,23,887944164
70,8,21,Ticks_Linear_5,236,5,42,127,887955960
70,8,21,Ticks_Linear_5,237,1,48,19,888621220
70,8,21,Ticks_Linear_5,238,5,42,127,888665596
70,8,21,Ticks_Linear_5,239,1,48,24,889331648
70,8,21,Ticks_Linear_5,240,5,42,127,889386384
70,8,21,Ticks_Linear_5,241,1,48,20,890042104
70,8,21,Ticks_Linear_5,242,5,42,127,890106180
70,8,21,Ticks_Linear_5,243,1,48,18,890745752
70,8,21,Ticks_Linear_5,244,5,42,127,890826072
70,8,21,Ticks_Linear_5,245,1,48,19,891485572
70,8,21,Ticks_Linear_5,246,5,42,127,891546120
70,8,21,Ticks_Linear_5,247,1,48,19,892245084
70,8,21,Ticks_Linear_5,248,5,42,127,892265864
70,8,21,Ticks_Linear_5,249,1,48,18,892942100
70,8,21,Ticks_Linear_5,250,5,42,127,892995868
70,8,21,Ticks_Linear_5,251,1,48,18,893663428
70,8,21,Ticks_Linear_5,252,5,42,127,893725944
70,8,21,Ticks_Linear_5,253,1,48,15,894420084
70,8,21,Ticks_Linear_5,254,5,42,127,894456144
70,8,21,Ticks_Linear_5,255,1,48,15,895114448
70,8,21,Ticks_Linear_5,256,5,42,127,895186224
70,8,21,Ticks_Linear_5,257,1,48,18,895830064
70,8,21,Ticks_Linear_5,258,5,42,127,895916676
70,8,21,Ticks_Linear_5,259,1,48,19,896565164
70,8,21,Ticks_Linear_5,260,5,42,127,896655668
70,8,21,Ticks_Linear_5,261,1,48,18,897328268
70,8,21,Ticks_Linear_5,262,5,42,127,897396228
70,8,21,Ticks_Linear_5,263,1,48,21,898091144
70,8,21,Ticks_Linear_5,264,5,42,127,898136568
70,8,21,Ticks_Linear_5,265,1,48,16,898828536
70,8,21,Ticks_Linear_5,266,5,42,127,898885964
70,8,21,Ticks_Linear_5,267,1,48,19,899573360
70,8,21,Ticks_Linear_5,268,5,42,127,899626228
70,8,21,Ticks_Linear_5,269,1,48,18,900323672
70,8,21,Ticks_Linear_5,270,5,42,127,900375900
70,8,21,Ticks_Linear_5,271,1,48,15,901076880
70,8,21,Ticks_Linear_5,272,5,42,127,901125600
70,8,21,Ticks_Linear_5,273,1,48,18,901811452
70,8,21,Ticks_Linear_5,274,5,42,127,901875972
70,8,21,Ticks_Linear_5,275,1,48,17,902591400
70,8,21,Ticks_Linear_5,276,5,42,127,902625596
70,8,21,Ticks_Linear_5,277,1,48,19,903339532
70,8,21,Ticks_Linear_5,278,5,42,127,903376120
70,8,21,Ticks_Linear_5,279,1,48,20,904102556
70,8,21,Ticks_Linear_5,280,5,42,127,904136080
70,8,21,Ticks_Linear_5,281,5,42,127,904895820
70,8,21,Ticks_Linear_5,282,1,48,19,904904408
70,8,21,Ticks_Linear_5,283,1,48,21,905620304
70,8,21,Ticks_Linear_5,284,5,42,127,905655620
70,8,21,Ticks_Linear_5,285,1,48,23,906393752
70,8,21,Ticks_Linear_5,286,5,42,127,906415652
70,8,21,Ticks_Linear_5,287,1,48,20,907137976
70,8,21,Ticks_Linear_5,288,5,42,127,907176508
70,8,21,Ticks_Linear_5,289,1,48,22,907921296
70,8,21,Ticks_Linear_5,290,5,42,127,907946504
70,8,21,Ticks_Linear_5,291,1,48,20,908657824
70,8,21,Ticks_Linear_5,292,5,42,127,908716348
70,8,21,Ticks_Linear_5,293,1,48,23,909450872
70,8,21,Ticks_Linear_5,294,5,42,127,909485292
70,8,21,Ticks_Linear_5,295,1,48,22,910186800
70,8,21,Ticks_Linear_5,296,5,42,127,910255436
70,8,21,Ticks_Linear_5,297,1,48,19,910999700
70,8,21,Ticks_Linear_5,298,5,42,127,911025504
70,8,21,Ticks_Linear_5,299,1,48,21,911758536
70,8,21,Ticks_Linear_5,300,5,42,127,911805680
70,8,21,Ticks_Linear_5,301,1,48,20,912550168
70,8,21,Ticks_Linear_5,302,5,42,127,912586080
70,8,21,Ticks_Linear_5,303,1,48,21,913300840
70,8,21,Ticks_Linear_5,304,5,42,127,913366556
70,8,21,Ticks_Linear_5,305,1,48,22,914072176
70,8,21,Ticks_Linear_5,306,5,42,127,914145612
70,8,21,Ticks_Linear_5,307,1,48,20,914898264
70,8,21,Ticks_Linear_5,308,5,42,127,914925940
70,8,21,Ticks_Linear_5,309,1,48,21,915680236
70,8,21,Ticks_Linear_5,310,5,42,127,915715404
70,8,21,Ticks_Linear_5,311,1,48,21,916447392
70,8,21,Ticks_Linear_5,312,5,42,127,916506312
70,8,21,Ticks_Linear_5,313,1,48,20,917195588
70,8,21,Ticks_Linear_5,314,5,42,127,917295460
70,8,21,Ticks_Linear_5,315,1,48,19,918012156
70,8,21,Ticks_Linear_5,316,5,42,127,918086212
70,8,21,Ticks_Linear_5,317,1,48,17,918815952
70,8,21,Ticks_Linear_5,318,5,42,127,918875452
70,8,21,Ticks_Linear_5,319,1,48,20,919588116
70,8,21,Ticks_Linear_5,320,5,42,127,919676148
70,8,21,Ticks_Linear_5,321,1,48,19,920394208
70,8,21,Ticks_Linear_5,322,5,42,127,920476168
70,8,21,Ticks_Linear_5,323,1,48,18,921167196
70,8,21,Ticks_Linear_5,324,5,42,127,921275804
70,8,21,Ticks_Linear_5,325,1,48,20,922030788
70,8,21,Ticks_Linear_5,326,5,42,127,922075616
70,8,21,Ticks_Linear_5,327,1,48,20,922821680
70,8,21,Ticks_Linear_5,328,5,42,127,922876164
70,8,21,Ticks_Linear_5,329,1,48,20,923655104
70,8,21,Ticks_Linear_5,330,5,42,127,923686244
70,8,21,Ticks_Linear_5,331,5,42,127,924496236
70,8,21,Ticks_Linear_5,332,1,48,17,924508344
70,8,21,Ticks_Linear_5,333,1,48,19,925286780
70,8,21,Ticks_Linear_5,334,5,42,127,925306136
70,8,21,Ticks_Linear_5,335,5,42,127,926116124
70,8,21,Ticks_Linear_5,336,1,48,21,926125984
70,8,21,Ticks_Linear_5,337,1,48,19,926903972
70,8,21,Ticks_Linear_5,338,5,42,127,926926100
70,8,21,Ticks_Linear_5,0,9999,9999,9999,817683548
70,8,21,Ticks_Linear_5,1,9999,9999,9999,818163792
70,8,21,Ticks_Linear_5,2,9999,9999,9999,818644020
70,8,21,Ticks_Linear_5,3,9999,9999,9999,819123276
70,8,21,Ticks_Linear_5,4,9999,9999,9999,819603512
70,8,21,Ticks_Linear_5,5,9999,9999,9999,820094068
70,8,21,Ticks_Linear_5,6,9999,9999,9999,820583512
70,8,21,Ticks_Linear_5,7,9999,9999,9999,821074000
70,8,21,Ticks_Linear_5,8,9999,9999,9999,821563512
70,8,21,Ticks_Linear_5,9,9999,9999,9999,822054000
70,8,21,Ticks_Linear_5,10,9999,9999,9999,822553676
70,8,21,Ticks_Linear_5,11,9999,9999,9999,823053376
70,8,21,Ticks_Linear_5,12,9999,9999,9999,823553152
70,8,21,Ticks_Linear_5,13,9999,9999,9999,824053820
70,8,21,Ticks_Linear_5,14,9999,9999,9999,824553596
70,8,21,Ticks_Linear_5,15,9999,9999,9999,825063484
70,8,21,Ticks_Linear_5,16,9999,9999,9999,825573440
70,8,21,Ticks_Linear_5,17,9999,9999,9999,826083400
70,8,21,Ticks_Linear_5,18,9999,9999,9999,826593360
70,8,21,Ticks_Linear_5,19,9999,9999,9999,827103320
70,8,21,Ticks_Linear_5,20,9999,9999,9999,827623536
70,8,21,Ticks_Linear_5,21,9999,9999,9999,828143680
70,8,21,Ticks_Linear_5,22,9999,9999,9999,828663900
70,8,21,Ticks_Linear_5,23,9999,9999,9999,829184116
70,8,21,Ticks_Linear_5,24,9999,9999,9999,829713472
70,8,21,Ticks_Linear_5,25,9999,9999,9999,830243900
70,8,21,Ticks_Linear_5,26,9999,9999,9999,830773332
70,8,21,Ticks_Linear_5,27,9999,9999,9999,831303808
70,8,21,Ticks_Linear_5,28,9999,9999,9999,831833164
70,8,21,Ticks_Linear_5,29,9999,9999,9999,832363640
70,8,21,Ticks_Linear_5,30,9999,9999,9999,832903256
70,8,21,Ticks_Linear_5,31,9999,9999,9999,833443920
70,8,21,Ticks_Linear_5,32,9999,9999,9999,833983608
70,8,21,Ticks_Linear_5,33,9999,9999,9999,834523224
70,8,21,Ticks_Linear_5,34,9999,9999,9999,835063884
70,8,21,Ticks_Linear_5,35,9999,9999,9999,835613760
70,8,21,Ticks_Linear_5,36,9999,9999,9999,836163656
70,8,21,Ticks_Linear_5,37,9999,9999,9999,836713532
70,8,21,Ticks_Linear_5,38,9999,9999,9999,837263480
70,8,21,Ticks_Linear_5,39,9999,9999,9999,837813356
70,8,21,Ticks_Linear_5,40,9999,9999,9999,838373488
70,8,21,Ticks_Linear_5,41,9999,9999,9999,838933624
70,8,21,Ticks_Linear_5,42,9999,9999,9999,839493708
70,8,21,Ticks_Linear_5,43,9999,9999,9999,840053840
70,8,21,Ticks_Linear_5,44,9999,9999,9999,840613972
70,8,21,Ticks_Linear_5,45,9999,9999,9999,841183320
70,8,21,Ticks_Linear_5,46,9999,9999,9999,841753708
70,8,21,Ticks_Linear_5,47,9999,9999,9999,842324028
70,8,21,Ticks_Linear_5,48,9999,9999,9999,842893372
70,8,21,Ticks_Linear_5,49,9999,9999,9999,843463764
70,8,21,Ticks_Linear_5,50,9999,9999,9999,844043368
70,8,21,Ticks_Linear_5,51,9999,9999,9999,844623972
70,8,21,Ticks_Linear_5,52,9999,9999,9999,845203576
70,8,21,Ticks_Linear_5,53,9999,9999,9999,845783104
70,8,21,Ticks_Linear_5,54,9999,9999,9999,846363756
70,8,21,Ticks_Linear_5,55,9999,9999,9999,846953572
70,8,21,Ticks_Linear_5,56,9999,9999,9999,847543360
70,8,21,Ticks_Linear_5,57,9999,9999,9999,848133224
70,8,21,Ticks_Linear_5,58,9999,9999,9999,848724084
70,8,21,Ticks_Linear_5,59,9999,9999,9999,849313876
70,8,21,Ticks_Linear_5,60,9999,9999,9999,849913924
70,8,21,Ticks_Linear_5,61,9999,9999,9999,850513996
70,8,21,Ticks_Linear_5,62,9999,9999,9999,851114044
70,8,21,Ticks_Linear_5,63,9999,9999,9999,851713120
70,8,21,Ticks_Linear_5,64,9999,9999,9999,852313196
70,8,21,Ticks_Linear_5,65,9999,9999,9999,852923504
70,8,21,Ticks_Linear_5,66,9999,9999,9999,853533760
70,8,21,Ticks_Linear_5,67,9999,9999,9999,854144068
70,8,21,Ticks_Linear_5,68,9999,9999,9999,854763588
70,8,21,Ticks_Linear_5,69,9999,9999,9999,855373920
70,8,21,Ticks_Linear_5,70,9999,9999,9999,855993440
70,8,21,Ticks_Linear_5,71,9999,9999,9999,856613956
70,8,21,Ticks_Linear_5,72,9999,9999,9999,857233476
70,8,21,Ticks_Linear_5,73,9999,9999,9999,857854048
70,8,21,Ticks_Linear_5,74,9999,9999,9999,858473588
70,8,21,Ticks_Linear_5,75,9999,9999,9999,859103296
70,8,21,Ticks_Linear_5,76,9999,9999,9999,859734072
70,8,21,Ticks_Linear_5,77,9999,9999,9999,860374116
70,8,21,Ticks_Linear_5,78,9999,9999,9999,861014096
70,8,21,Ticks_Linear_5,79,9999,9999,9999,861654132
70,8,21,Ticks_Linear_5,80,9999,9999,9999,862294124
70,8,21,Ticks_Linear_5,81,9999,9999,9999,862934088
70,8,21,Ticks_Linear_5,82,9999,9999,9999,863574076
70,8,21,Ticks_Linear_5,83,9999,9999,9999,864214112
70,8,21,Ticks_Linear_5,84,9999,9999,9999,864854084
70,8,21,Ticks_Linear_5,85,9999,9999,9999,865513536
70,8,21,Ticks_Linear_5,86,9999,9999,9999,866163784
70,8,21,Ticks_Linear_5,87,9999,9999,9999,866814080
70,8,21,Ticks_Linear_5,88,9999,9999,9999,867463280
70,8,21,Ticks_Linear_5,89,9999,9999,9999,868113504
70,8,21,Ticks_Linear_5,90,9999,9999,9999,868774008
70,8,21,Ticks_Linear_5,91,9999,9999,9999,869433468
70,8,21,Ticks_Linear_5,92,9999,9999,9999,870093876
70,8,21,Ticks_Linear_5,93,9999,9999,9999,870753336
70,8,21,Ticks_Linear_5,94,9999,9999,9999,871413828
70,8,21,Ticks_Linear_5,95,9999,9999,9999,872083536
70,8,21,Ticks_Linear_5,96,9999,9999,9999,872753256
70,8,21,Ticks_Linear_5,97,9999,9999,9999,873423996
70,8,21,Ticks_Linear_5,98,9999,9999,9999,874093640
70,8,21,Ticks_Linear_5,99,9999,9999,9999,874763336
70,8,21,Ticks_Linear_5,100,9999,9999,9999,875443316
70,8,21,Ticks_Linear_5,101,9999,9999,9999,876123216
70,8,21,Ticks_Linear_5,102,9999,9999,9999,876803208
70,8,21,Ticks_Linear_5,103,9999,9999,9999,877483076
70,8,21,Ticks_Linear_5,104,9999,9999,9999,878164028
70,8,21,Ticks_Linear_5,105,9999,9999,9999,878853176
70,8,21,Ticks_Linear_5,106,9999,9999,9999,879543412
70,8,21,Ticks_Linear_5,107,9999,9999,9999,880233592
70,8,21,Ticks_Linear_5,108,9999,9999,9999,880923752
70,8,21,Ticks_Linear_5,109,9999,9999,9999,881613892
70,8,21,Ticks_Linear_5,110,9999,9999,9999,882313340
70,8,21,Ticks_Linear_5,111,9999,9999,9999,883013688
70,8,21,Ticks_Linear_5,112,9999,9999,9999,883713116
70,8,21,Ticks_Linear_5,113,9999,9999,9999,884413536
70,8,21,Ticks_Linear_5,114,9999,9999,9999,885113956
70,8,21,Ticks_Linear_5,115,9999,9999,9999,885823592
70,8,21,Ticks_Linear_5,116,9999,9999,9999,886533200
70,8,21,Ticks_Linear_5,117,9999,9999,9999,887243880
70,8,21,Ticks_Linear_5,118,9999,9999,9999,887953516
70,8,21,Ticks_Linear_5,119,9999,9999,9999,888663148
70,8,21,Ticks_Linear_5,120,9999,9999,9999,889384012
70,8,21,Ticks_Linear_5,121,9999,9999,9999,890103884
70,8,21,Ticks_Linear_5,122,9999,9999,9999,890823776
70,8,21,Ticks_Linear_5,123,9999,9999,9999,891543672
70,8,21,Ticks_Linear_5,124,9999,9999,9999,892263488
70,8,21,Ticks_Linear_5,125,9999,9999,9999,892993644
70,8,21,Ticks_Linear_5,126,9999,9999,9999,893723720
70,8,21,Ticks_Linear_5,127,9999,9999,9999,894453848
70,8,21,Ticks_Linear_5,128,9999,9999,9999,895184000
70,8,21,Ticks_Linear_5,129,9999,9999,9999,895914076
70,8,21,Ticks_Linear_5,130,9999,9999,9999,896653368
70,8,21,Ticks_Linear_5,131,9999,9999,9999,897393780
70,8,21,Ticks_Linear_5,132,9999,9999,9999,898134120
70,8,21,Ticks_Linear_5,133,9999,9999,9999,898883668
70,8,21,Ticks_Linear_5,134,9999,9999,9999,899624004
70,8,21,Ticks_Linear_5,135,9999,9999,9999,900373604
70,8,21,Ticks_Linear_5,136,9999,9999,9999,901123152
70,8,21,Ticks_Linear_5,137,9999,9999,9999,901873748
70,8,21,Ticks_Linear_5,138,9999,9999,9999,902623300
70,8,21,Ticks_Linear_5,139,9999,9999,9999,903373896
70,8,21,Ticks_Linear_5,140,9999,9999,9999,904133704
70,8,21,Ticks_Linear_5,141,9999,9999,9999,904893520
70,8,21,Ticks_Linear_5,142,9999,9999,9999,905653324
70,8,21,Ticks_Linear_5,143,9999,9999,9999,906413132
70,8,21,Ticks_Linear_5,144,9999,9999,9999,907173988
70,8,21,Ticks_Linear_5,145,9999,9999,9999,907944056
70,8,21,Ticks_Linear_5,146,9999,9999,9999,908714048
70,8,21,Ticks_Linear_5,147,9999,9999,9999,909483068
70,8,21,Ticks_Linear_5,148,9999,9999,9999,910253136
70,8,21,Ticks_Linear_5,149,9999,9999,9999,911023204
70,8,21,Ticks_Linear_5,150,9999,9999,9999,911803456
70,8,21,Ticks_Linear_5,151,9999,9999,9999,912583784
70,8,21,Ticks_Linear_5,152,9999,9999,9999,913364032
70,8,21,Ticks_Linear_5,153,9999,9999,9999,914143316
70,8,21,Ticks_Linear_5,154,9999,9999,9999,914923640
70,8,21,Ticks_Linear_5,155,9999,9999,9999,915713104
70,8,21,Ticks_Linear_5,156,9999,9999,9999,916503616
70,8,21,Ticks_Linear_5,157,9999,9999,9999,917293164
70,8,21,Ticks_Linear_5,158,9999,9999,9999,918083688
70,8,21,Ticks_Linear_5,159,9999,9999,9999,918873152
70,8,21,Ticks_Linear_5,160,9999,9999,9999,919673924
70,8,21,Ticks_Linear_5,161,9999,9999,9999,920473724
70,8,21,Ticks_Linear_5,162,9999,9999,9999,921273428
70,8,21,Ticks_Linear_5,163,9999,9999,9999,922073168
70,8,21,Ticks_Linear_5,164,9999,9999,9999,922873940
70,8,21,Ticks_Linear_5,165,9999,9999,9999,923683948
70,8,21,Ticks_Linear_5,166,9999,9999,9999,924493936
70,8,21,Ticks_Linear_5,167,9999,9999,9999,925303912
70,8,21,Ticks_Linear_5,168,9999,9999,9999,926113900
70,8,21,Ticks_Linear_5,169,9999,9999,9999,926923876
70,9,22,Ticks_Phase_8,0,5,42,127,936822112
70,9,22,Ticks_Phase_8,1,1,48,17,937549536
70,9,22,Ticks_Phase_8,2,5,42,127,937621912
70,9,22,Ticks_Phase_8,3,1,48,19,938316976
70,9,22,Ticks_Phase_8,4,5,42,127,938421832
70,9,22,Ticks_Phase_8,5,1,48,21,939131220
70,9,22,Ticks_Phase_8,6,5,42,127,939222532
70,9,22,Ticks_Phase_8,7,1,48,18,939974212
70,9,22,Ticks_Phase_8,8,5,42,127,940022168
70,9,22,Ticks_Phase_8,9,1,48,20,940805524
70,9,22,Ticks_Phase_8,10,5,42,127,940821956
70,9,22,Ticks_Phase_8,11,1,48,19,941593280
70,9,22,Ticks_Phase_8,12,5,42,127,941621844
70,9,22,Ticks_Phase_8,13,1,48,30,942387596
70,9,22,Ticks_Phase_8,14,5,42,127,942422600
70,9,22,Ticks_Phase_8,15,5,42,127,943222172
70,9,22,Ticks_Phase_8,16,1,48,25,943227912
70,9,22,Ticks_Phase_8,17,5,42,127,944021808
70,9,22,Ticks_Phase_8,18,1,48,15,944042232
70,9,22,Ticks_Phase_8,19,1,48,19,944821144
70,9,22,Ticks_Phase_8,20,5,42,127,944822784
70,9,22,Ticks_Phase_8,21,1,48,19,945615576
70,9,22,Ticks_Phase_8,22,5,42,127,945622348
70,9,22,Ticks_Phase_8,23,1,48,19,946416936
70,9,22,Ticks_Phase_8,24,5,42,127,946422208
70,9,22,Ticks_Phase_8,25,1,48,19,947165120
70,9,22,Ticks_Phase_8,26,5,42,127,947221920
70,9,22,Ticks_Phase_8,27,1,48,16,947985400
70,9,22,Ticks_Phase_8,28,5,42,127,948021780
70,9,22,Ticks_Phase_8,29,1,48,16,948808804
70,9,22,Ticks_Phase_8,30,5,42,127,948822240
70,9,22,Ticks_Phase_8,31,1,48,17,949613460
70,9,22,Ticks_Phase_8,32,5,42,127,949622100
70,9,22,Ticks_Phase_8,33,1,48,16,950395272
70,9,22,Ticks_Phase_8,34,5,42,127,950421812
70,9,22,Ticks_Phase_8,35,1,48,18,951214076
70,9,22,Ticks_Phase_8,36,5,42,127,951221748
70,9,22,Ticks_Phase_8,37,5,42,127,952022516
70,9,22,Ticks_Phase_8,38,1,48,17,952035892
70,9,22,Ticks_Phase_8,39,1,48,16,952811036
70,9,22,Ticks_Phase_8,40,5,42,127,952821996
70,9,22,Ticks_Phase_8,41,5,42,127,953621940
70,9,22,Ticks_Phase_8,42,1,48,21,953630832
70,9,22,Ticks_Phase_8,43,5,42,127,954421652
70,9,22,Ticks_Phase_8,44,1,48,18,954423516
70,9,22,Ticks_Phase_8,45,5,42,127,955222484
70,9,22,Ticks_Phase_8,46,5,42,127,956022292
70,9,22,Ticks_Phase_8,47,1,48,16,956042712
70,9,22,Ticks_Phase_8,48,1,48,21,956792916
70,9,22,Ticks_Phase_8,49,5,42,127,956821848
70,9,22,Ticks_Phase_8,50,1,48,21,957610228
70,9,22,Ticks_Phase_8,51,5,42,127,957621560
70,9,22,Ticks_Phase_8,52,1,48,18,958421268
70,9,22,Ticks_Phase_8,53,5,42,127,958422840
70,9,22,Ticks_Phase_8,54,5,42,127,959222184
70,9,22,Ticks_Phase_8,55,1,48,20,959243128
70,9,22,Ticks_Phase_8,56,1,48,24,960017140
70,9,22,Ticks_Phase_8,57,5,42,127,960021816
70,9,22,Ticks_Phase_8,58,1,48,20,960779716
70,9,22,Ticks_Phase_8,59,5,42,127,960802452
70,9,22,Ticks_Phase_8,60,1,48,20,961554256
70,9,22,Ticks_Phase_8,61,5,42,127,961601868
70,9,22,Ticks_Phase_8,62,5,42,127,962401584
70,9,22,Ticks_Phase_8,63,1,48,19,962437204
70,9,22,Ticks_Phase_8,64,5,42,127,963202492
70,9,22,Ticks_Phase_8,65,1,48,19,963221120
70,9,22,Ticks_Phase_8,66,1,48,22,964002544
70,9,22,Ticks_Phase_8,67,5,42,127,964012384
70,9,22,Ticks_Phase_8,68,5,42,127,964812324
70,9,22,Ticks_Phase_8,69,1,48,20,964815292
70,9,22,Ticks_Phase_8,70,5,42,127,965612108
70,9,22,Ticks_Phase_8,71,1,48,22,965631188
70,9,22,Ticks_Phase_8,72,5,42,127,966411524
70,9,22,Ticks_Phase_8,73,1,48,22,966415236
70,9,22,Ticks_Phase_8,74,5,42,127,967212308
70,9,22,Ticks_Phase_8,75,1,48,18,967245528
70,9,22,Ticks_Phase_8,76,1,48,24,967989448
70,9,22,Ticks_Phase_8,77,5,42,127,968012384
70,9,22,Ticks_Phase_8,78,1,48,23,968806896
70,9,22,Ticks_Phase_8,79,5,42,127,968811796
70,9,22,Ticks_Phase_8,80,1,48,22,969594328
70,9,22,Ticks_Phase_8,81,5,42,127,969611512
70,9,22,Ticks_Phase_8,82,5,42,127,970412352
70,9,22,Ticks_Phase_8,83,1,48,22,970429316
70,9,22,Ticks_Phase_8,84,1,48,21,971212504
70,9,22,Ticks_Phase_8,85,5,42,127,971213696
70,9,22,Ticks_Phase_8,86,1,48,20,971997280
70,9,22,Ticks_Phase_8,87,5,42,127,972012064
70,9,22,Ticks_Phase_8,88,5,42,127,972811484
70,9,22,Ticks_Phase_8,89,1,48,18,972819924
70,9,22,Ticks_Phase_8,90,5,42,127,973612340
70,9,22,Ticks_Phase_8,91,1,48,24,973621228
70,9,22,Ticks_Phase_8,92,5,42,127,974412052
70,9,22,Ticks_Phase_8,93,1,48,20,974420568
70,9,22,Ticks_Phase_8,94,1,48,25,975211132
70,9,22,Ticks_Phase_8,95,5,42,127,975232424
70,9,22,Ticks_Phase_8,96,5,42,127,976032216
70,9,22,Ticks_Phase_8,97,1,48,24,976056152
70,9,22,Ticks_Phase_8,98,5,42,127,976832004
70,9,22,Ticks_Phase_8,99,1,48,21,976857292
70,9,22,Ticks_Phase_8,100,5,42,127,977631568
70,9,22,Ticks_Phase_8,101,1,48,21,977642556
70,9,22,Ticks_Phase_8,102,5,42,127,978432328
70,9,22,Ticks_Phase_8,103,1,48,22,978433368
70,9,22,Ticks_Phase_8,104,5,42,127,979231992
70,9,22,Ticks_Phase_8,105,1,48,21,979238104
70,9,22,Ticks_Phase_8,106,1,48,26,980025972
70,9,22,Ticks_Phase_8,107,5,42,127,980032144
70,9,22,Ticks_Phase_8,108,5,42,127,980831712
70,9,22,Ticks_Phase_8,109,1,48,19,980852956
70,9,22,Ticks_Phase_8,110,5,42,127,981632324
70,9,22,Ticks_Phase_8,111,1,48,21,981650800
70,9,22,Ticks_Phase_8,112,5,42,127,982432112
70,9,22,Ticks_Phase_8,113,1,48,21,982440108
70,9,22,Ticks_Phase_8,114,5,42,127,983232048
70,9,22,Ticks_Phase_8,115,1,48,23,983247668
70,9,22,Ticks_Phase_8,116,5,42,127,984031908
70,9,22,Ticks_Phase_8,117,1,48,22,984051656
70,9,22,Ticks_Phase_8,118,1,48,20,984824392
70,9,22,Ticks_Phase_8,119,5,42,127,984832360
70,9,22,Ticks_Phase_8,120,1,48,25,985616540
70,9,22,Ticks_Phase_8,121,5,42,127,985632024
70,9,22,Ticks_Phase_8,122,5,42,127,986431740
70,9,22,Ticks_Phase_8,123,1,48,23,986458068
70,9,22,Ticks_Phase_8,124,5,42,127,987231824
70,9,22,Ticks_Phase_8,125,1,48,26,987256508
70,9,22,Ticks_Phase_8,126,1,48,25,988052700
70,9,22,Ticks_Phase_8,127,5,42,127,988072272
70,9,22,Ticks_Phase_8,128,1,48,26,988865956
70,9,22,Ticks_Phase_8,129,5,42,127,988871908
70,9,22,Ticks_Phase_8,130,1,48,25,989667312
70,9,22,Ticks_Phase_8,131,5,42,127,989671916
70,9,22,Ticks_Phase_8,132,5,42,127,990471488
70,9,22,Ticks_Phase_8,133,1,48,23,990499952
70,9,22,Ticks_Phase_8,134,1,48,24,991263100
70,9,22,Ticks_Phase_8,135,5,42,127,991272340
70,9,22,Ticks_Phase_8,136,5,42,127,992072056
70,9,22,Ticks_Phase_8,137,1,48,25,992092256
70,9,22,Ticks_Phase_8,138,5,42,127,992871920
70,9,22,Ticks_Phase_8,139,1,48,24,992909496
70,9,22,Ticks_Phase_8,140,5,42,127,993671704
70,9,22,Ticks_Phase_8,141,1,48,23,993704704
70,9,22,Ticks_Phase_8,142,1,48,20,994412748
70,9,22,Ticks_Phase_8,143,5,42,127,994472160
70,9,22,Ticks_Phase_8,144,5,42,127,995272100
70,9,22,Ticks_Phase_8,145,1,48,25,995288920
70,9,22,Ticks_Phase_8,146,5,42,127,996071664
70,9,22,Ticks_Phase_8,147,1,48,22,996143028
70,9,22,Ticks_Phase_8,148,5,42,127,996871824
70,9,22,Ticks_Phase_8,149,1,48,25,996914212
70,9,22,Ticks_Phase_8,150,5,42,127,997672308
70,9,22,Ticks_Phase_8,151,1,48,26,997679852
70,9,22,Ticks_Phase_8,152,5,42,127,998471948
70,9,22,Ticks_Phase_8,153,1,48,28,998483008
70,9,22,Ticks_Phase_8,154,1,48,29,999249152
70,9,22,Ticks_Phase_8,155,5,42,127,999271728
70,9,22,Ticks_Phase_8,156,1,48,22,1000061380
70,9,22,Ticks_Phase_8,157,5,42,127,1000071736
70,9,22,Ticks_Phase_8,158,5,42,127,1000872504
70,9,22,Ticks_Phase_8,159,1,48,24,1000882964
70,9,22,Ticks_Phase_8,160,5,42,127,1001632076
70,9,22,Ticks_Phase_8,161,1,48,17,1001704468
70,9,22,Ticks_Phase_8,162,1,48,28,1002306308
70,9,22,Ticks_Phase_8,163,5,42,127,1002431840
70,9,22,Ticks_Phase_8,164,1,48,25,1003104972
70,9,22,Ticks_Phase_8,165,5,42,127,1003231624
70,9,22,Ticks_Phase_8,166,1,48,26,1003987732
70,9,22,Ticks_Phase_8,167,5,42,127,1004032624
70,9,22,Ticks_Phase_8,168,1,48,24,1004822676
70,9,22,Ticks_Phase_8,169,5,42,127,1004831988
70,9,22,Ticks_Phase_8,170,5,42,127,1005631856
70,9,22,Ticks_Phase_8,171,1,48,21,1005636020
70,9,22,Ticks_Phase_8,172,1,48,21,1006422172
70,9,22,Ticks_Phase_8,173,5,42,127,1006431484
70,9,22,Ticks_Phase_8,174,1,48,22,1007226292
70,9,22,Ticks_Phase_8,175,5,42,127,1007232616
70,9,22,Ticks_Phase_8,176,5,42,127,1008031960
70,9,22,Ticks_Phase_8,177,1,48,21,1008040476
70,9,22,Ticks_Phase_8,178,5,42,127,1008831896
70,9,22,Ticks_Phase_8,179,1,48,21,1008869992
70,9,22,Ticks_Phase_8,180,1,48,24,1009627376
70,9,22,Ticks_Phase_8,181,5,42,127,1009631600
70,9,22,Ticks_Phase_8,182,1,48,21,1010415104
70,9,22,Ticks_Phase_8,183,5,42,127,1010432360
70,9,22,Ticks_Phase_8,184,1,48,22,1011226372
70,9,22,Ticks_Phase_8,185,5,42,127,1011232392
70,9,22,Ticks_Phase_8,186,1,48,24,1012014404
70,9,22,Ticks_Phase_8,187,5,42,127,1012031884
70,9,22,Ticks_Phase_8,188,5,42,127,1012831528
70,9,22,Ticks_Phase_8,189,1,48,22,1012840412
70,9,22,Ticks_Phase_8,190,5,42,127,1013632436
70,9,22,Ticks_Phase_8,191,1,48,20,1013637204
70,9,22,Ticks_Phase_8,192,5,42,127,1014352468
70,9,22,Ticks_Phase_8,193,1,48,23,1014441044
70,9,22,Ticks_Phase_8,194,1,48,21,1015123092
70,9,22,Ticks_Phase_8,195,5,42,127,1015152096
70,9,22,Ticks_Phase_8,196,1,48,21,1015932684
70,9,22,Ticks_Phase_8,197,5,42,127,1015951588
70,9,22,Ticks_Phase_8,198,5,42,127,1016751452
70,9,22,Ticks_Phase_8,199,1,48,23,1016764756
70,9,22,Ticks_Phase_8,200,1,48,17,1017550396
70,9,22,Ticks_Phase_8,201,5,42,127,1017552280
70,9,22,Ticks_Phase_8,202,5,42,127,1018352220
70,9,22,Ticks_Phase_8,203,1,48,24,1018362160
70,9,22,Ticks_Phase_8,204,5,42,127,1019151784
70,9,22,Ticks_Phase_8,205,1,48,19,1019154224
70,9,22,Ticks_Phase_8,206,5,42,127,1019951520
70,9,22,Ticks_Phase_8,207,1,48,16,1019971120
70,9,22,Ticks_Phase_8,208,5,42,127,1020752280
70,9,22,Ticks_Phase_8,209,1,48,15,1020789768
70,9,22,Ticks_Phase_8,210,1,48,19,1021547308
70,9,22,Ticks_Phase_8,211,5,42,127,1021552132
70,9,22,Ticks_Phase_8,212,5,42,127,1022351700
70,9,22,Ticks_Phase_8,213,1,48,20,1022390992
70,9,22,Ticks_Phase_8,214,5,42,127,1023151408
70,9,22,Ticks_Phase_8,215,1,48,16,1023169492
70,9,22,Ticks_Phase_8,216,1,48,23,1023947556
70,9,22,Ticks_Phase_8,217,5,42,127,1023952380
70,9,22,Ticks_Phase_8,218,5,42,127,1024752176
70,9,22,Ticks_Phase_8,219,1,48,15,1024779028
70,9,22,Ticks_Phase_8,220,1,48,19,1025546832
70,9,22,Ticks_Phase_8,221,5,42,127,1025551584
70,9,22,Ticks_Phase_8,222,1,48,21,1026343128
70,9,22,Ticks_Phase_8,223,5,42,127,1026351396
70,9,22,Ticks_Phase_8,224,1,48,18,1027127780
70,9,22,Ticks_Phase_8,225,5,42,127,1027152152
70,9,22,Ticks_Phase_8,226,1,48,21,1027944120
70,9,22,Ticks_Phase_8,227,5,42,127,1028031996
70,9,22,Ticks_Phase_8,228,1,48,16,1028821868
70,9,22,Ticks_Phase_8,229,5,42,127,1028831484
70,9,22,Ticks_Phase_8,230,5,42,127,1029632324
70,9,22,Ticks_Phase_8,231,1,48,18,1029644504
70,9,22,Ticks_Phase_8,232,5,42,127,1030432208
70,9,22,Ticks_Phase_8,233,1,48,19,1030435324
70,9,22,Ticks_Phase_8,234,1,48,16,1031227160
70,9,22,Ticks_Phase_8,235,5,42,127,1031231912
70,9,22,Ticks_Phase_8,236,5,42,127,1032031480
70,9,22,Ticks_Phase_8,237,1,48,19,1032034224
70,9,22,Ticks_Phase_8,238,1,48,20,1032827036
70,9,22,Ticks_Phase_8,239,5,42,127,1032832308
70,9,22,Ticks_Phase_8,240,1,48,27,1033617304
70,9,22,Ticks_Phase_8,241,5,42,127,1033632092
70,9,22,Ticks_Phase_8,242,5,42,127,1034431812
70,9,22,Ticks_Phase_8,243,1,48,24,1034457992
70,9,22,Ticks_Phase_8,244,5,42,127,1035231600
70,9,22,Ticks_Phase_8,245,1,48,27,1035266396
70,9,22,Ticks_Phase_8,246,5,42,127,1036032580
70,9,22,Ticks_Phase_8,247,1,48,24,1036066424
70,9,22,Ticks_Phase_8,248,5,42,127,1036832244
70,9,22,Ticks_Phase_8,249,1,48,28,1036870792
70,9,22,Ticks_Phase_8,250,5,42,127,1037631956
70,9,22,Ticks_Phase_8,251,1,48,28,1037644436
70,9,22,Ticks_Phase_8,252,1,48,30,1038415380
70,9,22,Ticks_Phase_8,253,5,42,127,1038431736
70,9,22,Ticks_Phase_8,254,5,42,127,1039232352
70,9,22,Ticks_Phase_8,255,1,48,32,1039247676
70,9,22,Ticks_Phase_8,256,5,42,127,1040032064
70,9,22,Ticks_Phase_8,257,1,48,28,1040072856
70,9,22,Ticks_Phase_8,258,5,42,127,1040831996
70,9,22,Ticks_Phase_8,259,1,48,30,1040846572
70,9,22,Ticks_Phase_8,260,1,48,32,1041671220
70,9,22,Ticks_Phase_8,261,5,42,127,1041792272
70,9,22,Ticks_Phase_8,262,1,48,28,1042589492
70,9,22,Ticks_Phase_8,263,5,42,127,1042592076
70,9,22,Ticks_Phase_8,264,5,42,127,1043391792
70,9,22,Ticks_Phase_8,265,1,48,29,1043438868
70,9,22,Ticks_Phase_8,266,5,42,127,1044191728
70,9,22,Ticks_Phase_8,267,1,48,23,1044246692
70,9,22,Ticks_Phase_8,268,5,42,127,1044992336
70,9,22,Ticks_Phase_8,269,1,48,27,1044995004
70,9,22,Ticks_Phase_8,270,1,48,31,1045785668
70,9,22,Ticks_Phase_8,271,5,42,127,1045792140
70,9,22,Ticks_Phase_8,272,5,42,127,1046591860
70,9,22,Ticks_Phase_8,273,1,48,35,1046616320
70,9,22,Ticks_Phase_8,274,5,42,127,1047391568
70,9,22,Ticks_Phase_8,275,1,48,28,1047414680
70,9,22,Ticks_Phase_8,276,5,42,127,1048192624
70,9,22,Ticks_Phase_8,277,1,48,28,1048199276
70,9,22,Ticks_Phase_8,278,5,42,127,1048992040
70,9,22,Ticks_Phase_8,279,1,48,36,1049008784
70,9,22,Ticks_Phase_8,280,1,48,35,1049779960
70,9,22,Ticks_Phase_8,281,5,42,127,1049791892
70,9,22,Ticks_Phase_8,282,5,42,127,1050591736
70,9,22,Ticks_Phase_8,283,1,48,27,1050605640
70,9,22,Ticks_Phase_8,284,5,42,127,1051392496
70,9,22,Ticks_Phase_8,285,1,48,30,1051417132
70,9,22,Ticks_Phase_8,286,1,48,28,1052188148
70,9,22,Ticks_Phase_8,287,5,42,127,1052192076
70,9,22,Ticks_Phase_8,288,5,42,127,1052991796
70,9,22,Ticks_Phase_8,289,1,48,21,1053001508
70,9,22,Ticks_Phase_8,290,5,42,127,1053791732
70,9,22,Ticks_Phase_8,291,1,48,26,1053800920
70,9,22,Ticks_Phase_8,292,1,48,32,1054591060
70,9,22,Ticks_Phase_8,293,5,42,127,1054592484
70,9,22,Ticks_Phase_8,294,5,42,127,1055392052
70,9,22,Ticks_Phase_8,295,1,48,35,1055409632
70,9,22,Ticks_Phase_8,296,5,42,127,1056191916
70,9,22,Ticks_Phase_8,297,1,48,29,1056208360
70,9,22,Ticks_Phase_8,298,5,42,127,1056831744
70,9,22,Ticks_Phase_8,299,1,48,32,1057000596
70,9,22,Ticks_Phase_8,300,5,42,127,1057631528
70,9,22,Ticks_Phase_8,301,1,48,28,1057870948
70,9,22,Ticks_Phase_8,302,5,42,127,1058432436
70,9,22,Ticks_Phase_8,303,1,48,23,1058635752
70,9,22,Ticks_Phase_8,304,5,42,127,1059232076
70,9,22,Ticks_Phase_8,305,1,48,23,1059388884
70,9,22,Ticks_Phase_8,306,5,42,127,1060031788
70,9,22,Ticks_Phase_8,307,1,48,24,1060169348
70,9,22,Ticks_Phase_8,308,5,42,127,1060831576
70,9,22,Ticks_Phase_8,309,1,48,17,1060862256
70,9,22,Ticks_Phase_8,310,1,48,20,1061562352
70,9,22,Ticks_Phase_8,311,5,42,127,1061632548
70,9,22,Ticks_Phase_8,312,1,48,23,1062376136
70,9,22,Ticks_Phase_8,313,5,42,127,1062432064
70,9,22,Ticks_Phase_8,314,1,48,23,1063180128
70,9,22,Ticks_Phase_8,315,5,42,127,1063232000
70,9,22,Ticks_Phase_8,316,5,42,127,1064031568
70,9,22,Ticks_Phase_8,317,1,48,24,1064053484
70,9,22,Ticks_Phase_8,318,5,42,127,1064832476
70,9,22,Ticks_Phase_8,319,1,48,20,1064873192
70,9,22,Ticks_Phase_8,320,1,48,21,1065631288
70,9,22,Ticks_Phase_8,321,5,42,127,1065632856
70,9,22,Ticks_Phase_8,322,5,42,127,1066431828
70,9,22,Ticks_Phase_8,323,1,48,21,1066439736
70,9,22,Ticks_Phase_8,324,5,42,127,1067231540
70,9,22,Ticks_Phase_8,325,1,48,21,1067239904
70,9,22,Ticks_Phase_8,326,5,42,127,1068032520
70,9,22,Ticks_Phase_8,327,1,48,21,1068043656
70,9,22,Ticks_Phase_8,328,1,48,24,1068818660
70,9,22,Ticks_Phase_8,329,5,42,127,1068832396
70,9,22,Ticks_Phase_8,330,5,42,127,1069631744
70,9,22,Ticks_Phase_8,331,1,48,21,1069648192
70,9,22,Ticks_Phase_8,332,5,42,127,1070431532
70,9,22,Ticks_Phase_8,333,1,48,19,1070454120
70,9,22,Ticks_Phase_8,334,5,42,127,1071232440
70,9,22,Ticks_Phase_8,335,1,48,21,1071234956
70,9,22,Ticks_Phase_8,336,5,42,127,1072032376
70,9,22,Ticks_Phase_8,0,9999,9999,9999,936819824
70,9,22,Ticks_Phase_8,1,9999,9999,9999,937619552
70,9,22,Ticks_Phase_8,2,9999,9999,9999,938419324
70,9,22,Ticks_Phase_8,3,9999,9999,9999,939220096
70,9,22,Ticks_Phase_8,4,9999,9999,9999,940019808
70,9,22,Ticks_Phase_8,5,9999,9999,9999,940819520
70,9,22,Ticks_Phase_8,6,9999,9999,9999,941619260
70,9,22,Ticks_Phase_8,7,9999,9999,9999,942420092
70,9,22,Ticks_Phase_8,8,9999,9999,9999,943219808
70,9,22,Ticks_Phase_8,9,9999,9999,9999,944019524
70,9,22,Ticks_Phase_8,10,9999,9999,9999,944819308
70,9,22,Ticks_Phase_8,11,9999,9999,9999,945620060
70,9,22,Ticks_Phase_8,12,9999,9999,9999,946419772
70,9,22,Ticks_Phase_8,13,9999,9999,9999,947219560
70,9,22,Ticks_Phase_8,14,9999,9999,9999,948019272
70,9,22,Ticks_Phase_8,15,9999,9999,9999,948820028
70,9,22,Ticks_Phase_8,16,9999,9999,9999,949619816
70,9,22,Ticks_Phase_8,17,9999,9999,9999,950419528
70,9,22,Ticks_Phase_8,18,9999,9999,9999,951219312
70,9,22,Ticks_Phase_8,19,9999,9999,9999,952020080
70,9,22,Ticks_Phase_8,20,9999,9999,9999,952819784
70,9,22,Ticks_Phase_8,21,9999,9999,9999,953619576
70,9,22,Ticks_Phase_8,22,9999,9999,9999,954419288
70,9,22,Ticks_Phase_8,23,9999,9999,9999,955220048
70,9,22,Ticks_Phase_8,24,9999,9999,9999,956019784
70,9,22,Ticks_Phase_8,25,9999,9999,9999,956819560
70,9,22,Ticks_Phase_8,26,9999,9999,9999,957619272
70,9,22,Ticks_Phase_8,27,9999,9999,9999,958420040
70,9,22,Ticks_Phase_8,28,9999,9999,9999,959219824
70,9,22,Ticks_Phase_8,29,9999,9999,9999,960019528
70,9,22,Ticks_Phase_8,30,9999,9999,9999,960799868
70,9,22,Ticks_Phase_8,31,9999,9999,9999,961599580
70,9,22,Ticks_Phase_8,32,9999,9999,9999,962399300
70,9,22,Ticks_Phase_8,33,9999,9999,9999,963200056
70,9,22,Ticks_Phase_8,34,9999,9999,9999,964010096
70,9,22,Ticks_Phase_8,35,9999,9999,9999,964809812
70,9,22,Ticks_Phase_8,36,9999,9999,9999,965609600
70,9,22,Ticks_Phase_8,37,9999,9999,9999,966409312
70,9,22,Ticks_Phase_8,38,9999,9999,9999,967210092
70,9,22,Ticks_Phase_8,39,9999,9999,9999,968009800
70,9,22,Ticks_Phase_8,40,9999,9999,9999,968809584
70,9,22,Ticks_Phase_8,41,9999,9999,9999,969609300
70,9,22,Ticks_Phase_8,42,9999,9999,9999,970410064
70,9,22,Ticks_Phase_8,43,9999,9999,9999,971209848
70,9,22,Ticks_Phase_8,44,9999,9999,9999,972009552
70,9,22,Ticks_Phase_8,45,9999,9999,9999,972809272
70,9,22,Ticks_Phase_8,46,9999,9999,9999,973610052
70,9,22,Ticks_Phase_8,47,9999,9999,9999,974409840
70,9,22,Ticks_Phase_8,48,9999,9999,9999,975230064
70,9,22,Ticks_Phase_8,49,9999,9999,9999,976029784
70,9,22,Ticks_Phase_8,50,9999,9999,9999,976829496
70,9,22,Ticks_Phase_8,51,9999,9999,9999,977629280
70,9,22,Ticks_Phase_8,52,9999,9999,9999,978430040
70,9,22,Ticks_Phase_8,53,9999,9999,9999,979229780
70,9,22,Ticks_Phase_8,54,9999,9999,9999,980029560
70,9,22,Ticks_Phase_8,55,9999,9999,9999,980829276
70,9,22,Ticks_Phase_8,56,9999,9999,9999,981630036
70,9,22,Ticks_Phase_8,57,9999,9999,9999,982429752
70,9,22,Ticks_Phase_8,58,9999,9999,9999,983229536
70,9,22,Ticks_Phase_8,59,9999,9999,9999,984029248
70,9,22,Ticks_Phase_8,60,9999,9999,9999,984830076
70,9,22,Ticks_Phase_8,61,9999,9999,9999,985629812
70,9,22,Ticks_Phase_8,62,9999,9999,9999,986429528
70,9,22,Ticks_Phase_8,63,9999,9999,9999,987229240
70,9,22,Ticks_Phase_8,64,9999,9999,9999,988069984
70,9,22,Ticks_Phase_8,65,9999,9999,9999,988869696
70,9,22,Ticks_Phase_8,66,9999,9999,9999,989669480
70,9,22,Ticks_Phase_8,67,9999,9999,9999,990469200
70,9,22,Ticks_Phase_8,68,9999,9999,9999,991269980
70,9,22,Ticks_Phase_8,69,9999,9999,9999,992069696
70,9,22,Ticks_Phase_8,70,9999,9999,9999,992869484
70,9,22,Ticks_Phase_8,71,9999,9999,9999,993669196
70,9,22,Ticks_Phase_8,72,9999,9999,9999,994469948
70,9,22,Ticks_Phase_8,73,9999,9999,9999,995269740
70,9,22,Ticks_Phase_8,74,9999,9999,9999,996069452
70,9,22,Ticks_Phase_8,75,9999,9999,9999,996869240
70,9,22,Ticks_Phase_8,76,9999,9999,9999,997669948
70,9,22,Ticks_Phase_8,77,9999,9999,9999,998469736
70,9,22,Ticks_Phase_8,78,9999,9999,9999,999269440
70,9,22,Ticks_Phase_8,79,9999,9999,9999,1000069228
70,9,22,Ticks_Phase_8,80,9999,9999,9999,1000869992
70,9,22,Ticks_Phase_8,81,9999,9999,9999,1001629788
70,9,22,Ticks_Phase_8,82,9999,9999,9999,1002429556
70,9,22,Ticks_Phase_8,83,9999,9999,9999,1003229264
70,9,22,Ticks_Phase_8,84,9999,9999,9999,1004030040
70,9,22,Ticks_Phase_8,85,9999,9999,9999,1004829776
70,9,22,Ticks_Phase_8,86,9999,9999,9999,1005629492
70,9,22,Ticks_Phase_8,87,9999,9999,9999,1006429272
70,9,22,Ticks_Phase_8,88,9999,9999,9999,1007230032
70,9,22,Ticks_Phase_8,89,9999,9999,9999,1008029748
70,9,22,Ticks_Phase_8,90,9999,9999,9999,1008829536
70,9,22,Ticks_Phase_8,91,9999,9999,9999,1009629240
70,9,22,Ticks_Phase_8,92,9999,9999,9999,1010430072
70,9,22,Ticks_Phase_8,93,9999,9999,9999,1011229812
70,9,22,Ticks_Phase_8,94,9999,9999,9999,1012029524
70,9,22,Ticks_Phase_8,95,9999,9999,9999,1012829240
70,9,22,Ticks_Phase_8,96,9999,9999,9999,1013630072
70,9,22,Ticks_Phase_8,97,9999,9999,9999,1014349884
70,9,22,Ticks_Phase_8,98,9999,9999,9999,1015149664
70,9,22,Ticks_Phase_8,99,9999,9999,9999,1015949376
70,9,22,Ticks_Phase_8,100,9999,9999,9999,1016749168
70,9,22,Ticks_Phase_8,101,9999,9999,9999,1017549944
70,9,22,Ticks_Phase_8,102,9999,9999,9999,1018349636
70,9,22,Ticks_Phase_8,103,9999,9999,9999,1019149420
70,9,22,Ticks_Phase_8,104,9999,9999,9999,1019949160
70,9,22,Ticks_Phase_8,105,9999,9999,9999,1020749916
70,9,22,Ticks_Phase_8,106,9999,9999,9999,1021549624
70,9,22,Ticks_Phase_8,107,9999,9999,9999,1022349416
70,9,22,Ticks_Phase_8,108,9999,9999,9999,1023149120
70,9,22,Ticks_Phase_8,109,9999,9999,9999,1023949948
70,9,22,Ticks_Phase_8,110,9999,9999,9999,1024749664
70,9,22,Ticks_Phase_8,111,9999,9999,9999,1025549372
70,9,22,Ticks_Phase_8,112,9999,9999,9999,1026349184
70,9,22,Ticks_Phase_8,113,9999,9999,9999,1027149940
70,9,22,Ticks_Phase_8,114,9999,9999,9999,1028029560
70,9,22,Ticks_Phase_8,115,9999,9999,9999,1028829272
70,9,22,Ticks_Phase_8,116,9999,9999,9999,1029630036
70,9,22,Ticks_Phase_8,117,9999,9999,9999,1030429772
70,9,22,Ticks_Phase_8,118,9999,9999,9999,1031229552
70,9,22,Ticks_Phase_8,119,9999,9999,9999,1032029268
70,9,22,Ticks_Phase_8,120,9999,9999,9999,1032830020
70,9,22,Ticks_Phase_8,121,9999,9999,9999,1033629808
70,9,22,Ticks_Phase_8,122,9999,9999,9999,1034429524
70,9,22,Ticks_Phase_8,123,9999,9999,9999,1035229240
70,9,22,Ticks_Phase_8,124,9999,9999,9999,1036030072
70,9,22,Ticks_Phase_8,125,9999,9999,9999,1036829808
70,9,22,Ticks_Phase_8,126,9999,9999,9999,1037629520
70,9,22,Ticks_Phase_8,127,9999,9999,9999,1038429300
70,9,22,Ticks_Phase_8,128,9999,9999,9999,1039230064
70,9,22,Ticks_Phase_8,129,9999,9999,9999,1040029776
70,9,22,Ticks_Phase_8,130,9999,9999,9999,1040829560
70,9,22,Ticks_Phase_8,131,9999,9999,9999,1041790060
70,9,22,Ticks_Phase_8,132,9999,9999,9999,1042589788
70,9,22,Ticks_Phase_8,133,9999,9999,9999,1043389504
70,9,22,Ticks_Phase_8,134,9999,9999,9999,1044189292
70,9,22,Ticks_Phase_8,135,9999,9999,9999,1044990048
70,9,22,Ticks_Phase_8,136,9999,9999,9999,1045789780
70,9,22,Ticks_Phase_8,137,9999,9999,9999,1046589496
70,9,22,Ticks_Phase_8,138,9999,9999,9999,1047389284
70,9,22,Ticks_Phase_8,139,9999,9999,9999,1048190040
70,9,22,Ticks_Phase_8,140,9999,9999,9999,1048989752
70,9,22,Ticks_Phase_8,141,9999,9999,9999,1049789532
70,9,22,Ticks_Phase_8,142,9999,9999,9999,1050589300
70,9,22,Ticks_Phase_8,143,9999,9999,9999,1051390056
70,9,22,Ticks_Phase_8,144,9999,9999,9999,1052189792
70,9,22,Ticks_Phase_8,145,9999,9999,9999,1052989508
70,9,22,Ticks_Phase_8,146,9999,9999,9999,1053789296
70,9,22,Ticks_Phase_8,147,9999,9999,9999,1054590056
70,9,22,Ticks_Phase_8,148,9999,9999,9999,1055389764
70,9,22,Ticks_Phase_8,149,9999,9999,9999,1056189552
70,9,22,Ticks_Phase_8,150,9999,9999,9999,1056829532
70,9,22,Ticks_Phase_8,151,9999,9999,9999,1057629244
70,9,22,Ticks_Phase_8,152,9999,9999,9999,1058430076
70,9,22,Ticks_Phase_8,153,9999,9999,9999,1059229788
70,9,22,Ticks_Phase_8,154,9999,9999,9999,1060029500
70,9,22,Ticks_Phase_8,155,9999,9999,9999,1060829288
70,9,22,Ticks_Phase_8,156,9999,9999,9999,1061630040
70,9,22,Ticks_Phase_8,157,9999,9999,9999,1062429776
70,9,22,Ticks_Phase_8,158,9999,9999,9999,1063229564
70,9,22,Ticks_Phase_8,159,9999,9999,9999,1064029284
70,9,22,Ticks_Phase_8,160,9999,9999,9999,1064830040
70,9,22,Ticks_Phase_8,161,9999,9999,9999,1065629752
70,9,22,Ticks_Phase_8,162,9999,9999,9999,1066429540
70,9,22,Ticks_Phase_8,163,9999,9999,9999,1067229252
70,9,22,Ticks_Phase_8,164,9999,9999,9999,1068030012
70,9,22,Ticks_Phase_8,165,9999,9999,9999,1068829812
70,9,22,Ticks_Phase_8,166,9999,9999,9999,1069629532
70,9,22,Ticks_Phase_8,167,9999,9999,9999,1070429244
70,9,22,Ticks_Phase_8,168,9999,9999,9999,1071230076
70,9,22,Ticks_Phase_8,169,9999,9999,9999,1072029792
70,10,23,Ticks_Phase_5,0,5,42,127,1081937240
70,10,23,Ticks_Phase_5,1,5,42,127,1082436952
70,10,23,Ticks_Phase_5,2,5,42,127,1082936588
70,10,23,Ticks_Phase_5,3,1,48,25,1083409152
70,10,23,Ticks_Phase_5,4,5,42,127,1083437340
70,10,23,Ticks_Phase_5,5,1,48,25,1083922012
70,10,23,Ticks_Phase_5,6,5,42,127,1083947360
70,10,23,Ticks_Phase_5,7,1,48,23,1084435412
70,10,23,Ticks_Phase_5,8,5,42,127,1084447124
70,10,23,Ticks_Phase_5,9,1,48,21,1084938140
70,10,23,Ticks_Phase_5,10,5,42,127,1084946884
70,10,23,Ticks_Phase_5,11,1,48,22,1085426448
70,10,23,Ticks_Phase_5,12,5,42,127,1085446476
70,10,23,Ticks_Phase_5,13,5,42,127,1085947216
70,10,23,Ticks_Phase_5,14,1,48,34,1085954756
70,10,23,Ticks_Phase_5,15,5,42,127,1086446904
70,10,23,Ticks_Phase_5,16,1,48,31,1086467920
70,10,23,Ticks_Phase_5,17,5,42,127,1086946816
70,10,23,Ticks_Phase_5,18,1,48,30,1086964228
70,10,23,Ticks_Phase_5,19,1,48,30,1087439952
70,10,23,Ticks_Phase_5,20,5,42,127,1087447468
70,10,23,Ticks_Phase_5,21,1,48,29,1087945644
70,10,23,Ticks_Phase_5,22,5,42,127,1087947008
70,10,23,Ticks_Phase_5,23,1,48,32,1088443360
70,10,23,Ticks_Phase_5,24,5,42,127,1088446920
70,10,23,Ticks_Phase_5,25,5,42,127,1088946688
70,10,23,Ticks_Phase_5,26,1,48,29,1088970852
70,10,23,Ticks_Phase_5,27,1,48,33,1089442588
70,10,23,Ticks_Phase_5,28,5,42,127,1089447416
70,10,23,Ticks_Phase_5,29,5,42,127,1089946964
70,10,23,Ticks_Phase_5,30,1,48,35,1089962360
70,10,23,Ticks_Phase_5,31,5,42,127,1090446876
70,10,23,Ticks_Phase_5,32,1,48,35,1090463320
70,10,23,Ticks_Phase_5,33,5,42,127,1090946340
70,10,23,Ticks_Phase_5,34,1,48,33,1090984052
70,10,23,Ticks_Phase_5,35,5,42,127,1091447152
70,10,23,Ticks_Phase_5,36,1,48,30,1091465700
70,10,23,Ticks_Phase_5,37,1,48,31,1091932116
70,10,23,Ticks_Phase_5,38,5,42,127,1091946904
70,10,23,Ticks_Phase_5,39,1,48,35,1092445160
70,10,23,Ticks_Phase_5,40,5,42,127,1092446668
70,10,23,Ticks_Phase_5,41,5,42,127,1092947336
70,10,23,Ticks_Phase_5,42,1,48,34,1092963328
70,10,23,Ticks_Phase_5,43,5,42,127,1093446952
70,10,23,Ticks_Phase_5,44,1,48,25,1093471780
70,10,23,Ticks_Phase_5,45,1,48,33,1093938960
70,10,23,Ticks_Phase_5,46,5,42,127,1093946928
70,10,23,Ticks_Phase_5,47,5,42,127,1094446700
70,10,23,Ticks_Phase_5,48,1,48,29,1094447664
70,10,23,Ticks_Phase_5,49,1,48,28,1094936992
70,10,23,Ticks_Phase_5,50,5,42,127,1094947128
70,10,23,Ticks_Phase_5,51,5,42,127,1095446900
70,10,23,Ticks_Phase_5,52,1,48,29,1095465968
70,10,23,Ticks_Phase_5,53,5,42,127,1095946860
70,10,23,Ticks_Phase_5,54,1,48,29,1095957420
70,10,23,Ticks_Phase_5,55,5,42,127,1096447300
70,10,23,Ticks_Phase_5,56,1,48,29,1096457836
70,10,23,Ticks_Phase_5,57,5,42,127,1096936804
70,10,23,Ticks_Phase_5,58,1,48,31,1096969428
70,10,23,Ticks_Phase_5,59,5,42,127,1097436640
70,10,23,Ticks_Phase_5,60,1,48,27,1097461324
70,10,23,Ticks_Phase_5,61,5,42,127,1097937152
70,10,23,Ticks_Phase_5,62,1,48,32,1097950900
70,10,23,Ticks_Phase_5,63,5,42,127,1098436840
70,10,23,Ticks_Phase_5,64,1,48,27,1098441976
70,10,23,Ticks_Phase_5,65,5,42,127,1098936752
70,10,23,Ticks_Phase_5,66,1,48,29,1098955828
70,10,23,Ticks_Phase_5,67,5,42,127,1099437560
70,10,23,Ticks_Phase_5,68,1,48,30,1099450336
70,10,23,Ticks_Phase_5,69,1,48,28,1099928076
70,10,23,Ticks_Phase_5,70,5,42,127,1099947648
70,10,23,Ticks_Phase_5,71,1,48,28,1100441316
70,10,23,Ticks_Phase_5,72,5,42,127,1100447116
70,10,23,Ticks_Phase_5,73,5,42,127,1100946884
70,10,23,Ticks_Phase_5,74,1,48,30,1100971572
70,10,23,Ticks_Phase_5,75,5,42,127,1101446724
70,10,23,Ticks_Phase_5,76,1,48,27,1101466996
70,10,23,Ticks_Phase_5,77,1,48,27,1101942852
70,10,23,Ticks_Phase_5,78,5,42,127,1101947452
70,10,23,Ticks_Phase_5,79,5,42,127,1102447000
70,10,23,Ticks_Phase_5,80,1,48,27,1102464648
70,10,23,Ticks_Phase_5,81,5,42,127,1102946760
70,10,23,Ticks_Phase_5,82,1,48,28,1102959988
70,10,23,Ticks_Phase_5,83,1,48,22,1103443632
70,10,23,Ticks_Phase_5,84,5,42,127,1103447492
70,10,23,Ticks_Phase_5,85,1,48,29,1103944592
70,10,23,Ticks_Phase_5,86,5,42,127,1103947176
70,10,23,Ticks_Phase_5,87,5,42,127,1104446724
70,10,23,Ticks_Phase_5,88,1,48,29,1104471028
70,10,23,Ticks_Phase_5,89,5,42,127,1104946708
70,10,23,Ticks_Phase_5,90,1,48,30,1104967352
70,10,23,Ticks_Phase_5,91,1,48,29,1105441560
70,10,23,Ticks_Phase_5,92,5,42,127,1105447440
70,10,23,Ticks_Phase_5,93,1,48,28,1105953908
70,10,23,Ticks_Phase_5,94,5,42,127,1105957088
70,10,23,Ticks_Phase_5,95,5,42,127,1106456856
70,10,23,Ticks_Phase_5,96,1,48,36,1106464236
70,10,23,Ticks_Phase_5,97,5,42,127,1106956596
70,10,23,Ticks_Phase_5,98,1,48,32,1106988272
70,10,23,Ticks_Phase_5,99,5,42,127,1107457332
70,10,23,Ticks_Phase_5,100,1,48,34,1107463364
70,10,23,Ticks_Phase_5,101,1,48,32,1107954200
70,10,23,Ticks_Phase_5,102,5,42,127,1107957084
70,10,23,Ticks_Phase_5,103,5,42,127,1108456704
70,10,23,Ticks_Phase_5,104,1,48,35,1108467388
70,10,23,Ticks_Phase_5,105,5,42,127,1108956616
70,10,23,Ticks_Phase_5,106,1,48,32,1108963400
70,10,23,Ticks_Phase_5,107,5,42,127,1109457348
70,10,23,Ticks_Phase_5,108,1,48,35,1109475452
70,10,23,Ticks_Phase_5,109,5,42,127,1109956964
70,10,23,Ticks_Phase_5,110,1,48,33,1109976032
70,10,23,Ticks_Phase_5,111,5,42,127,1110456652
70,10,23,Ticks_Phase_5,112,1,48,35,1110459768
70,10,23,Ticks_Phase_5,113,5,42,127,1110957388
70,10,23,Ticks_Phase_5,114,1,48,38,1110986640
70,10,23,Ticks_Phase_5,115,5,42,127,1111467260
70,10,23,Ticks_Phase_5,116,1,48,29,1111471352
70,10,23,Ticks_Phase_5,117,5,42,127,1111967020
70,10,23,Ticks_Phase_5,118,1,48,29,1112001512
70,10,23,Ticks_Phase_5,119,5,42,127,1112466860
70,10,23,Ticks_Phase_5,120,1,48,30,1112485780
70,10,23,Ticks_Phase_5,121,5,42,127,1112966472
70,10,23,Ticks_Phase_5,122,1,48,32,1112987044
70,10,23,Ticks_Phase_5,123,5,42,127,1113467208
70,10,23,Ticks_Phase_5,124,1,48,30,1113480736
70,10,23,Ticks_Phase_5,125,1,48,35,1113963036
70,10,23,Ticks_Phase_5,126,5,42,127,1113986436
70,10,23,Ticks_Phase_5,127,5,42,127,1114487328
70,10,23,Ticks_Phase_5,128,1,48,27,1114506328
70,10,23,Ticks_Phase_5,129,5,42,127,1114986720
70,10,23,Ticks_Phase_5,130,1,48,29,1115007364
70,10,23,Ticks_Phase_5,131,1,48,34,1115476484
70,10,23,Ticks_Phase_5,132,5,42,127,1115486548
70,10,23,Ticks_Phase_5,133,1,48,32,1115982752
70,10,23,Ticks_Phase_5,134,5,42,127,1115987432
70,10,23,Ticks_Phase_5,135,5,42,127,1116487204
70,10,23,Ticks_Phase_5,136,1,48,29,1116494884
70,10,23,Ticks_Phase_5,137,5,42,127,1116986592
70,10,23,Ticks_Phase_5,138,1,48,33,1116997052
70,10,23,Ticks_Phase_5,139,5,42,127,1117486580
70,10,23,Ticks_Phase_5,140,1,48,24,1117492764
70,10,23,Ticks_Phase_5,141,1,48,28,1117985804
70,10,23,Ticks_Phase_5,142,5,42,127,1117987380
70,10,23,Ticks_Phase_5,143,5,42,127,1118486852
70,10,23,Ticks_Phase_5,144,1,48,33,1118514000
70,10,23,Ticks_Phase_5,145,5,42,127,1118986592
70,10,23,Ticks_Phase_5,146,1,48,32,1119017148
70,10,23,Ticks_Phase_5,147,1,48,32,1119483092
70,10,23,Ticks_Phase_5,148,5,42,127,1119487320
70,10,23,Ticks_Phase_5,149,5,42,127,1119987088
70,10,23,Ticks_Phase_5,150,1,48,29,1120000168
70,10,23,Ticks_Phase_5,151,5,42,127,1120486700
70,10,23,Ticks_Phase_5,152,1,48,33,1120504708
70,10,23,Ticks_Phase_5,153,5,42,127,1120986464
70,10,23,Ticks_Phase_5,154,1,48,25,1121003428
70,10,23,Ticks_Phase_5,155,1,48,26,1121469260
70,10,23,Ticks_Phase_5,156,5,42,127,1121487192
70,10,23,Ticks_Phase_5,157,5,42,127,1121986812
70,10,23,Ticks_Phase_5,158,1,48,34,1122010524
70,10,23,Ticks_Phase_5,159,5,42,127,1122467176
70,10,23,Ticks_Phase_5,160,1,48,30,1122503768
70,10,23,Ticks_Phase_5,161,5,42,127,1122966940
70,10,23,Ticks_Phase_5,162,1,48,33,1122980688
70,10,23,Ticks_Phase_5,163,5,42,127,1123466480
70,10,23,Ticks_Phase_5,164,1,48,31,1123467448
70,10,23,Ticks_Phase_5,165,5,42,127,1123967216
70,10,23,Ticks_Phase_5,166,1,48,31,1123996100
70,10,23,Ticks_Phase_5,167,5,42,127,1124467128
70,10,23,Ticks_Phase_5,168,1,48,31,1124478264
70,10,23,Ticks_Phase_5,169,1,48,31,1124964224
70,10,23,Ticks_Phase_5,170,5,42,127,1124966812
70,10,23,Ticks_Phase_5,171,5,42,127,1125466360
70,10,23,Ticks_Phase_5,172,1,48,28,1125498912
70,10,23,Ticks_Phase_5,173,5,42,127,1125967096
70,10,23,Ticks_Phase_5,174,1,48,29,1125991252
70,10,23,Ticks_Phase_5,175,5,42,127,1126466856
70,10,23,Ticks_Phase_5,176,1,48,33,1126469976
70,10,23,Ticks_Phase_5,177,5,42,127,1126966768
70,10,23,Ticks_Phase_5,178,1,48,30,1126990328
70,10,23,Ticks_Phase_5,179,1,48,33,1127456756
70,10,23,Ticks_Phase_5,180,5,42,127,1127467272
70,10,23,Ticks_Phase_5,181,5,42,127,1127966968
70,10,23,Ticks_Phase_5,182,1,48,29,1127977872
70,10,23,Ticks_Phase_5,183,5,42,127,1128466880
70,10,23,Ticks_Phase_5,184,1,48,34,1128486028
70,10,23,Ticks_Phase_5,185,5,42,127,1128966392
70,10,23,Ticks_Phase_5,186,1,48,36,1129002332
70,10,23,Ticks_Phase_5,187,5,42,127,1129467276
70,10,23,Ticks_Phase_5,188,1,48,27,1129496184
70,10,23,Ticks_Phase_5,189,5,42,127,1129967188
70,10,23,Ticks_Phase_5,190,1,48,28,1129989260
70,10,23,Ticks_Phase_5,191,5,42,127,1130416404
70,10,23,Ticks_Phase_5,192,1,48,30,1130476744
70,10,23,Ticks_Phase_5,193,5,42,127,1130917292
70,10,23,Ticks_Phase_5,194,1,48,33,1130942272
70,10,23,Ticks_Phase_5,195,1,48,25,1131366844
70,10,23,Ticks_Phase_5,196,5,42,127,1131416972
70,10,23,Ticks_Phase_5,197,1,48,30,1131891536
70,10,23,Ticks_Phase_5,198,5,42,127,1131916512
70,10,23,Ticks_Phase_5,199,1,48,24,1132395276
70,10,23,Ticks_Phase_5,200,5,42,127,1132417472
70,10,23,Ticks_Phase_5,201,1,48,27,1132903492
70,10,23,Ticks_Phase_5,202,5,42,127,1132917232
70,10,23,Ticks_Phase_5,203,1,48,25,1133390976
70,10,23,Ticks_Phase_5,204,5,42,127,1133416996
70,10,23,Ticks_Phase_5,205,1,48,19,1133906916
70,10,23,Ticks_Phase_5,206,5,42,127,1133916608
70,10,23,Ticks_Phase_5,207,1,48,19,1134412964
70,10,23,Ticks_Phase_5,208,5,42,127,1134417344
70,10,23,Ticks_Phase_5,209,5,42,127,1134916964
70,10,23,Ticks_Phase_5,210,1,48,21,1134931240
70,10,23,Ticks_Phase_5,211,1,48,22,1135397740
70,10,23,Ticks_Phase_5,212,5,42,127,1135416792
70,10,23,Ticks_Phase_5,213,1,48,24,1135888892
70,10,23,Ticks_Phase_5,214,5,42,127,1135917452
70,10,23,Ticks_Phase_5,215,1,48,26,1136409776
70,10,23,Ticks_Phase_5,216,5,42,127,1136427252
70,10,23,Ticks_Phase_5,217,1,48,27,1136916880
70,10,23,Ticks_Phase_5,218,5,42,127,1136926940
70,10,23,Ticks_Phase_5,219,5,42,127,1137426712
70,10,23,Ticks_Phase_5,220,1,48,25,1137429756
70,10,23,Ticks_Phase_5,221,5,42,127,1137926448
70,10,23,Ticks_Phase_5,222,1,48,23,1137949888
70,10,23,Ticks_Phase_5,223,5,42,127,1138427112
70,10,23,Ticks_Phase_5,224,1,48,21,1138434948
70,10,23,Ticks_Phase_5,225,1,48,23,1138929980
70,10,23,Ticks_Phase_5,226,5,42,127,1138977216
70,10,23,Ticks_Phase_5,227,5,42,127,1139477132
70,10,23,Ticks_Phase_5,228,1,48,22,1139484140
70,10,23,Ticks_Phase_5,229,1,48,22,1139969720
70,10,23,Ticks_Phase_5,230,5,42,127,1139976644
70,10,23,Ticks_Phase_5,231,1,48,24,1140475188
70,10,23,Ticks_Phase_5,232,5,42,127,1140477232
70,10,23,Ticks_Phase_5,233,1,48,24,1140967152
70,10,23,Ticks_Phase_5,234,5,42,127,1140976992
70,10,23,Ticks_Phase_5,235,1,48,25,1141468268
70,10,23,Ticks_Phase_5,236,5,42,127,1141476980
70,10,23,Ticks_Phase_5,237,1,48,28,1141960760
70,10,23,Ticks_Phase_5,238,5,42,127,1141976520
70,10,23,Ticks_Phase_5,239,5,42,127,1142477112
70,10,23,Ticks_Phase_5,240,1,48,24,1142479776
70,10,23,Ticks_Phase_5,241,5,42,127,1142976876
70,10,23,Ticks_Phase_5,242,1,48,26,1142980364
70,10,23,Ticks_Phase_5,243,1,48,30,1143473072
70,10,23,Ticks_Phase_5,244,5,42,127,1143476852
70,10,23,Ticks_Phase_5,245,5,42,127,1143977372
70,10,23,Ticks_Phase_5,246,1,48,29,1143978340
70,10,23,Ticks_Phase_5,247,1,48,26,1144464972
70,10,23,Ticks_Phase_5,248,5,42,127,1144477128
70,10,23,Ticks_Phase_5,249,1,48,23,1144947504
70,10,23,Ticks_Phase_5,250,5,42,127,1144976964
70,10,23,Ticks_Phase_5,251,1,48,26,1145453176
70,10,23,Ticks_Phase_5,252,5,42,127,1145476652
70,10,23,Ticks_Phase_5,253,1,48,25,1145956020
70,10,23,Ticks_Phase_5,254,5,42,127,1145977164
70,10,23,Ticks_Phase_5,255,1,48,21,1146442968
70,10,23,Ticks_Phase_5,256,5,42,127,1146476852
70,10,23,Ticks_Phase_5,257,1,48,20,1146952392
70,10,23,Ticks_Phase_5,258,5,42,127,1146976764
70,10,23,Ticks_Phase_5,259,1,48,24,1147432988
70,10,23,Ticks_Phase_5,260,5,42,127,1147576792
70,10,23,Ticks_Phase_5,261,5,42,127,1148077620
70,10,23,Ticks_Phase_5,262,1,48,18,1148151060
70,10,23,Ticks_Phase_5,263,1,48,23,1148517668
70,10,23,Ticks_Phase_5,264,5,42,127,1148587340
70,10,23,Ticks_Phase_5,265,1,48,22,1149030460
70,10,23,Ticks_Phase_5,266,5,42,127,1149087028
70,10,23,Ticks_Phase_5,267,1,48,26,1149557184
70,10,23,Ticks_Phase_5,268,5,42,127,1149586868
70,10,23,Ticks_Phase_5,269,1,48,26,1150074756
70,10,23,Ticks_Phase_5,270,5,42,127,1150086628
70,10,23,Ticks_Phase_5,271,1,48,29,1150585476
70,10,23,Ticks_Phase_5,272,5,42,127,1150587216
70,10,23,Ticks_Phase_5,273,5,42,127,1151086984
70,10,23,Ticks_Phase_5,274,1,48,27,1151094904
70,10,23,Ticks_Phase_5,275,5,42,127,1151586672
70,10,23,Ticks_Phase_5,276,1,48,23,1151591956
70,10,23,Ticks_Phase_5,277,5,42,127,1152087628
70,10,23,Ticks_Phase_5,278,1,48,27,1152092840
70,10,23,Ticks_Phase_5,279,1,48,26,1152559724
70,10,23,Ticks_Phase_5,280,5,42,127,1152587088
70,10,23,Ticks_Phase_5,281,1,48,25,1153060828
70,10,23,Ticks_Phase_5,282,5,42,127,1153086780
70,10,23,Ticks_Phase_5,283,5,42,127,1153586548
70,10,23,Ticks_Phase_5,284,1,48,28,1153587512
70,10,23,Ticks_Phase_5,285,5,42,127,1154087504
70,10,23,Ticks_Phase_5,286,1,48,27,1154118556
70,10,23,Ticks_Phase_5,287,5,42,127,1154586972
70,10,23,Ticks_Phase_5,288,1,48,31,1154592404
70,10,23,Ticks_Phase_5,289,5,42,127,1155086808
70,10,23,Ticks_Phase_5,290,1,48,32,1155093664
70,10,23,Ticks_Phase_5,291,1,48,28,1155568836
70,10,23,Ticks_Phase_5,292,5,42,127,1155586388
70,10,23,Ticks_Phase_5,293,5,42,127,1156087576
70,10,23,Ticks_Phase_5,294,1,48,29,1156094956
70,10,23,Ticks_Phase_5,295,5,42,127,1156586892
70,10,23,Ticks_Phase_5,296,1,48,31,1156611724
70,10,23,Ticks_Phase_5,297,5,42,127,1156987356
70,10,23,Ticks_Phase_5,298,1,48,31,1157096520
70,10,23,Ticks_Phase_5,299,1,48,19,1157348592
70,10,23,Ticks_Phase_5,300,5,42,127,1157487096
70,10,23,Ticks_Phase_5,301,1,48,20,1157969692
70,10,23,Ticks_Phase_5,302,5,42,127,1157986652
70,10,23,Ticks_Phase_5,303,1,48,23,1158453280
70,10,23,Ticks_Phase_5,304,5,42,127,1158487536
70,10,23,Ticks_Phase_5,305,1,48,28,1158963748
70,10,23,Ticks_Phase_5,306,5,42,127,1158987148
70,10,23,Ticks_Phase_5,307,5,42,127,1159486696
70,10,23,Ticks_Phase_5,308,1,48,29,1159497756
70,10,23,Ticks_Phase_5,309,5,42,127,1159986680
70,10,23,Ticks_Phase_5,310,1,48,30,1160000808
70,10,23,Ticks_Phase_5,311,5,42,127,1160487492
70,10,23,Ticks_Phase_5,312,1,48,24,1160503340
70,10,23,Ticks_Phase_5,313,5,42,127,1160986880
70,10,23,Ticks_Phase_5,314,1,48,32,1160987848
70,10,23,Ticks_Phase_5,315,1,48,25,1161483432
70,10,23,Ticks_Phase_5,316,5,42,127,1161486712
70,10,23,Ticks_Phase_5,317,5,42,127,1161986456
70,10,23,Ticks_Phase_5,318,1,48,30,1161993460
70,10,23,Ticks_Phase_5,319,1,48,26,1162482128
70,10,23,Ticks_Phase_5,320,5,42,127,1162487256
70,10,23,Ticks_Phase_5,321,5,42,127,1162986876
70,10,23,Ticks_Phase_5,322,1,48,33,1162992088
70,10,23,Ticks_Phase_5,323,1,48,20,1163469600
70,10,23,Ticks_Phase_5,324,5,42,127,1163486560
70,10,23,Ticks_Phase_5,325,1,48,36,1163987744
70,10,23,Ticks_Phase_5,326,5,42,127,1163989016
70,10,23,Ticks_Phase_5,327,1,48,20,1164475424
70,10,23,Ticks_Phase_5,328,5,42,127,1164486908
70,10,23,Ticks_Phase_5,329,1,48,38,1164974512
70,10,23,Ticks_Phase_5,330,5,42,127,1164986672
70,10,23,Ticks_Phase_5,331,1,48,21,1165478988
70,10,23,Ticks_Phase_5,332,5,42,127,1165486432
70,10,23,Ticks_Phase_5,333,5,42,127,1165987324
70,10,23,Ticks_Phase_5,334,1,48,38,1165997784
70,10,23,Ticks_Phase_5,335,5,42,127,1166486860
70,10,23,Ticks_Phase_5,0,9999,9999,9999,1081934952
70,10,23,Ticks_Phase_5,1,9999,9999,9999,1082434660
70,10,23,Ticks_Phase_5,2,9999,9999,9999,1082934372
70,10,23,Ticks_Phase_5,3,9999,9999,9999,1083435124
70,10,23,Ticks_Phase_5,4,9999,9999,9999,1083945072
70,10,23,Ticks_Phase_5,5,9999,9999,9999,1084444760
70,10,23,Ticks_Phase_5,6,9999,9999,9999,1084944448
70,10,23,Ticks_Phase_5,7,9999,9999,9999,1085444184
70,10,23,Ticks_Phase_5,8,9999,9999,9999,1085944928
70,10,23,Ticks_Phase_5,9,9999,9999,9999,1086444612
70,10,23,Ticks_Phase_5,10,9999,9999,9999,1086944376
70,10,23,Ticks_Phase_5,11,9999,9999,9999,1087445104
70,10,23,Ticks_Phase_5,12,9999,9999,9999,1087944800
70,10,23,Ticks_Phase_5,13,9999,9999,9999,1088444480
70,10,23,Ticks_Phase_5,14,9999,9999,9999,1088944252
70,10,23,Ticks_Phase_5,15,9999,9999,9999,1089444980
70,10,23,Ticks_Phase_5,16,9999,9999,9999,1089944676
70,10,23,Ticks_Phase_5,17,9999,9999,9999,1090444360
70,10,23,Ticks_Phase_5,18,9999,9999,9999,1090944128
70,10,23,Ticks_Phase_5,19,9999,9999,9999,1091444860
70,10,23,Ticks_Phase_5,20,9999,9999,9999,1091944544
70,10,23,Ticks_Phase_5,21,9999,9999,9999,1092444236
70,10,23,Ticks_Phase_5,22,9999,9999,9999,1092944972
70,10,23,Ticks_Phase_5,23,9999,9999,9999,1093444736
70,10,23,Ticks_Phase_5,24,9999,9999,9999,1093944416
70,10,23,Ticks_Phase_5,25,9999,9999,9999,1094444112
70,10,23,Ticks_Phase_5,26,9999,9999,9999,1094944840
70,10,23,Ticks_Phase_5,27,9999,9999,9999,1095444536
70,10,23,Ticks_Phase_5,28,9999,9999,9999,1095944272
70,10,23,Ticks_Phase_5,29,9999,9999,9999,1096445008
70,10,23,Ticks_Phase_5,30,9999,9999,9999,1096934512
70,10,23,Ticks_Phase_5,31,9999,9999,9999,1097434200
70,10,23,Ticks_Phase_5,32,9999,9999,9999,1097934936
70,10,23,Ticks_Phase_5,33,9999,9999,9999,1098434624
70,10,23,Ticks_Phase_5,34,9999,9999,9999,1098934388
70,10,23,Ticks_Phase_5,35,9999,9999,9999,1099435124
70,10,23,Ticks_Phase_5,36,9999,9999,9999,1099945064
70,10,23,Ticks_Phase_5,37,9999,9999,9999,1100444752
70,10,23,Ticks_Phase_5,38,9999,9999,9999,1100944448
70,10,23,Ticks_Phase_5,39,9999,9999,9999,1101444212
70,10,23,Ticks_Phase_5,40,9999,9999,9999,1101944940
70,10,23,Ticks_Phase_5,41,9999,9999,9999,1102444636
70,10,23,Ticks_Phase_5,42,9999,9999,9999,1102944324
70,10,23,Ticks_Phase_5,43,9999,9999,9999,1103445052
70,10,23,Ticks_Phase_5,44,9999,9999,9999,1103944816
70,10,23,Ticks_Phase_5,45,9999,9999,9999,1104444508
70,10,23,Ticks_Phase_5,46,9999,9999,9999,1104944196
70,10,23,Ticks_Phase_5,47,9999,9999,9999,1105444924
70,10,23,Ticks_Phase_5,48,9999,9999,9999,1105954872
70,10,23,Ticks_Phase_5,49,9999,9999,9999,1106454644
70,10,23,Ticks_Phase_5,50,9999,9999,9999,1106954308
70,10,23,Ticks_Phase_5,51,9999,9999,9999,1107455040
70,10,23,Ticks_Phase_5,52,9999,9999,9999,1107954796
70,10,23,Ticks_Phase_5,53,9999,9999,9999,1108454492
70,10,23,Ticks_Phase_5,54,9999,9999,9999,1108954176
70,10,23,Ticks_Phase_5,55,9999,9999,9999,1109454912
70,10,23,Ticks_Phase_5,56,9999,9999,9999,1109954676
70,10,23,Ticks_Phase_5,57,9999,9999,9999,1110454360
70,10,23,Ticks_Phase_5,58,9999,9999,9999,1110955096
70,10,23,Ticks_Phase_5,59,9999,9999,9999,1111465044
70,10,23,Ticks_Phase_5,60,9999,9999,9999,1111964732
70,10,23,Ticks_Phase_5,61,9999,9999,9999,1112464496
70,10,23,Ticks_Phase_5,62,9999,9999,9999,1112964184
70,10,23,Ticks_Phase_5,63,9999,9999,9999,1113464920
70,10,23,Ticks_Phase_5,64,9999,9999,9999,1113984072
70,10,23,Ticks_Phase_5,65,9999,9999,9999,1114484816
70,10,23,Ticks_Phase_5,66,9999,9999,9999,1114984504
70,10,23,Ticks_Phase_5,67,9999,9999,9999,1115484260
70,10,23,Ticks_Phase_5,68,9999,9999,9999,1115984996
70,10,23,Ticks_Phase_5,69,9999,9999,9999,1116484688
70,10,23,Ticks_Phase_5,70,9999,9999,9999,1116984380
70,10,23,Ticks_Phase_5,71,9999,9999,9999,1117484140
70,10,23,Ticks_Phase_5,72,9999,9999,9999,1117984876
70,10,23,Ticks_Phase_5,73,9999,9999,9999,1118484564
70,10,23,Ticks_Phase_5,74,9999,9999,9999,1118984300
70,10,23,Ticks_Phase_5,75,9999,9999,9999,1119485028
70,10,23,Ticks_Phase_5,76,9999,9999,9999,1119984724
70,10,23,Ticks_Phase_5,77,9999,9999,9999,1120484412
70,10,23,Ticks_Phase_5,78,9999,9999,9999,1120984176
70,10,23,Ticks_Phase_5,79,9999,9999,9999,1121484900
70,10,23,Ticks_Phase_5,80,9999,9999,9999,1121984596
70,10,23,Ticks_Phase_5,81,9999,9999,9999,1122464888
70,10,23,Ticks_Phase_5,82,9999,9999,9999,1122964576
70,10,23,Ticks_Phase_5,83,9999,9999,9999,1123464264
70,10,23,Ticks_Phase_5,84,9999,9999,9999,1123965000
70,10,23,Ticks_Phase_5,85,9999,9999,9999,1124464764
70,10,23,Ticks_Phase_5,86,9999,9999,9999,1124964448
70,10,23,Ticks_Phase_5,87,9999,9999,9999,1125464144
70,10,23,Ticks_Phase_5,88,9999,9999,9999,1125964880
70,10,23,Ticks_Phase_5,89,9999,9999,9999,1126464568
70,10,23,Ticks_Phase_5,90,9999,9999,9999,1126964332
70,10,23,Ticks_Phase_5,91,9999,9999,9999,1127465060
70,10,23,Ticks_Phase_5,92,9999,9999,9999,1127964752
70,10,23,Ticks_Phase_5,93,9999,9999,9999,1128464440
70,10,23,Ticks_Phase_5,94,9999,9999,9999,1128964176
70,10,23,Ticks_Phase_5,95,9999,9999,9999,1129464912
70,10,23,Ticks_Phase_5,96,9999,9999,9999,1129964604
70,10,23,Ticks_Phase_5,97,9999,9999,9999,1130414188
70,10,23,Ticks_Phase_5,98,9999,9999,9999,1130914928
70,10,23,Ticks_Phase_5,99,9999,9999,9999,1131414608
70,10,23,Ticks_Phase_5,100,9999,9999,9999,1131914296
70,10,23,Ticks_Phase_5,101,9999,9999,9999,1132415032
70,10,23,Ticks_Phase_5,102,9999,9999,9999,1132914792
70,10,23,Ticks_Phase_5,103,9999,9999,9999,1133414484
70,10,23,Ticks_Phase_5,104,9999,9999,9999,1133914172
70,10,23,Ticks_Phase_5,105,9999,9999,9999,1134414904
70,10,23,Ticks_Phase_5,106,9999,9999,9999,1134914672
70,10,23,Ticks_Phase_5,107,9999,9999,9999,1135414356
70,10,23,Ticks_Phase_5,108,9999,9999,9999,1135915092
70,10,23,Ticks_Phase_5,109,9999,9999,9999,1136425036
70,10,23,Ticks_Phase_5,110,9999,9999,9999,1136924724
70,10,23,Ticks_Phase_5,111,9999,9999,9999,1137424496
70,10,23,Ticks_Phase_5,112,9999,9999,9999,1137924160
70,10,23,Ticks_Phase_5,113,9999,9999,9999,1138424896
70,10,23,Ticks_Phase_5,114,9999,9999,9999,1138974776
70,10,23,Ticks_Phase_5,115,9999,9999,9999,1139474548
70,10,23,Ticks_Phase_5,116,9999,9999,9999,1139974204
70,10,23,Ticks_Phase_5,117,9999,9999,9999,1140474980
70,10,23,Ticks_Phase_5,118,9999,9999,9999,1140974704
70,10,23,Ticks_Phase_5,119,9999,9999,9999,1141474392
70,10,23,Ticks_Phase_5,120,9999,9999,9999,1141974080
70,10,23,Ticks_Phase_5,121,9999,9999,9999,1142474820
70,10,23,Ticks_Phase_5,122,9999,9999,9999,1142974584
70,10,23,Ticks_Phase_5,123,9999,9999,9999,1143474268
70,10,23,Ticks_Phase_5,124,9999,9999,9999,1143975008
70,10,23,Ticks_Phase_5,125,9999,9999,9999,1144474692
70,10,23,Ticks_Phase_5,126,9999,9999,9999,1144974452
70,10,23,Ticks_Phase_5,127,9999,9999,9999,1145474140
70,10,23,Ticks_Phase_5,128,9999,9999,9999,1145974876
70,10,23,Ticks_Phase_5,129,9999,9999,9999,1146474564
70,10,23,Ticks_Phase_5,130,9999,9999,9999,1146974328
70,10,23,Ticks_Phase_5,131,9999,9999,9999,1147574352
70,10,23,Ticks_Phase_5,132,9999,9999,9999,1148075108
70,10,23,Ticks_Phase_5,133,9999,9999,9999,1148585048
70,10,23,Ticks_Phase_5,134,9999,9999,9999,1149084740
70,10,23,Ticks_Phase_5,135,9999,9999,9999,1149584504
70,10,23,Ticks_Phase_5,136,9999,9999,9999,1150084192
70,10,23,Ticks_Phase_5,137,9999,9999,9999,1150584952
70,10,23,Ticks_Phase_5,138,9999,9999,9999,1151084620
70,10,23,Ticks_Phase_5,139,9999,9999,9999,1151584384
70,10,23,Ticks_Phase_5,140,9999,9999,9999,1152085116
70,10,23,Ticks_Phase_5,141,9999,9999,9999,1152584800
70,10,23,Ticks_Phase_5,142,9999,9999,9999,1153084488
70,10,23,Ticks_Phase_5,143,9999,9999,9999,1153584184
70,10,23,Ticks_Phase_5,144,9999,9999,9999,1154084920
70,10,23,Ticks_Phase_5,145,9999,9999,9999,1154584680
70,10,23,Ticks_Phase_5,146,9999,9999,9999,1155084368
70,10,23,Ticks_Phase_5,147,9999,9999,9999,1155584100
70,10,23,Ticks_Phase_5,148,9999,9999,9999,1156084840
70,10,23,Ticks_Phase_5,149,9999,9999,9999,1156584528
70,10,23,Ticks_Phase_5,150,9999,9999,9999,1156984916
70,10,23,Ticks_Phase_5,151,9999,9999,9999,1157484656
70,10,23,Ticks_Phase_5,152,9999,9999,9999,1157984364
70,10,23,Ticks_Phase_5,153,9999,9999,9999,1158485096
70,10,23,Ticks_Phase_5,154,9999,9999,9999,1158984784
70,10,23,Ticks_Phase_5,155,9999,9999,9999,1159484480
70,10,23,Ticks_Phase_5,156,9999,9999,9999,1159984240
70,10,23,Ticks_Phase_5,157,9999,9999,9999,1160484980
70,10,23,Ticks_Phase_5,158,9999,9999,9999,1160984668
70,10,23,Ticks_Phase_5,159,9999,9999,9999,1161484348
70,10,23,Ticks_Phase_5,160,9999,9999,9999,1161984092
70,10,23,Ticks_Phase_5,161,9999,9999,9999,1162484820
70,10,23,Ticks_Phase_5,162,9999,9999,9999,1162984512
70,10,23,Ticks_Phase_5,163,9999,9999,9999,1163484268
70,10,23,Ticks_Phase_5,164,9999,9999,9999,1163985012
70,10,23,Ticks_Phase_5,165,9999,9999,9999,1164484692
70,10,23,Ticks_Phase_5,166,9999,9999,9999,1164984380
70,10,23,Ticks_Phase_5,167,9999,9999,9999,1165484144
70,10,23,Ticks_Phase_5,168,9999,9999,9999,1165984884
70,10,23,Ticks_Phase_5,169,9999,9999,9999,1166484572
70,11,25,Jits_Pract_5,0,5,56,103,1216849192
70,11,25,Jits_Pract_5,1,5,63,98,1216852212
70,11,25,Jits_Pract_5,2,5,80,127,1216855412
70,11,25,Jits_Pract_5,0,5,56,103,1217349064
70,11,25,Jits_Pract_5,1,5,63,98,1217352012
70,11,25,Jits_Pract_5,2,5,80,127,1217355136
70,11,25,Jits_Pract_5,3,1,48,19,1217473028
70,11,25,Jits_Pract_5,0,5,56,103,1217848620
70,11,25,Jits_Pract_5,1,5,80,127,1217858892
70,11,25,Jits_Pract_5,2,5,63,98,1217879500
70,11,25,Jits_Pract_5,3,1,48,21,1218023900
70,11,25,Jits_Pract_5,0,5,63,98,1218299152
70,11,25,Jits_Pract_5,1,5,80,127,1218329076
70,11,25,Jits_Pract_5,2,5,56,103,1218339344
70,11,25,Jits_Pract_5,3,1,48,29,1218407196
70,11,25,Jits_Pract_5,0,1,48,33,1218803748
70,11,25,Jits_Pract_5,1,5,80,127,1218859320
70,11,25,Jits_Pract_5,2,5,56,103,1218868544
70,11,25,Jits_Pract_5,3,5,63,98,1218899324
70,11,25,Jits_Pract_5,0,5,63,98,1219348984
70,11,25,Jits_Pract_5,1,1,48,35,1219375992
70,11,25,Jits_Pract_5,2,5,56,103,1219378580
70,11,25,Jits_Pract_5,3,5,80,127,1219389144
70,11,25,Jits_Pract_5,0,5,56,103,1219799500
70,11,25,Jits_Pract_5,1,5,63,98,1219848508
70,11,25,Jits_Pract_5,2,5,80,127,1219869436
70,11,25,Jits_Pract_5,3,1,48,33,1219890316
70,11,25,Jits_Pract_5,0,5,80,127,1220299052
70,11,25,Jits_Pract_5,1,1,48,33,1220339936
70,11,25,Jits_Pract_5,2,5,63,98,1220349324
70,11,25,Jits_Pract_5,3,5,56,103,1220389284
70,11,25,Jits_Pract_5,0,5,56,103,1220798832
70,11,25,Jits_Pract_5,1,5,63,98,1220828584
70,11,25,Jits_Pract_5,2,1,48,32,1220845552
70,11,25,Jits_Pract_5,3,5,80,127,1220899252
70,11,25,Jits_Pract_5,0,5,56,103,1221298616
70,11,25,Jits_Pract_5,1,1,48,33,1221334172
70,11,25,Jits_Pract_5,2,5,80,127,1221359072
70,11,25,Jits_Pract_5,3,5,63,98,1221388624
70,11,25,Jits_Pract_5,0,5,56,103,1221808440
70,11,25,Jits_Pract_5,1,5,63,98,1221818856
70,11,25,Jits_Pract_5,2,1,48,37,1221837868
70,11,25,Jits_Pract_5,3,5,80,127,1221858640
70,11,25,Jits_Pract_5,0,5,63,98,1222299072
70,11,25,Jits_Pract_5,1,1,48,39,1222321892
70,11,25,Jits_Pract_5,2,5,80,127,1222379084
70,11,25,Jits_Pract_5,3,5,56,103,1222389280
70,11,25,Jits_Pract_5,0,1,48,33,1222831916
70,11,25,Jits_Pract_5,1,5,63,98,1222848956
70,11,25,Jits_Pract_5,2,5,56,103,1222888744
70,11,25,Jits_Pract_5,3,5,80,127,1222892032
70,11,25,Jits_Pract_5,0,5,56,103,1223308640
70,11,25,Jits_Pract_5,1,5,63,98,1223319136
70,11,25,Jits_Pract_5,2,1,48,37,1223356256
70,11,25,Jits_Pract_5,3,5,80,127,1223358916
70,11,25,Jits_Pract_5,0,5,56,103,1223799124
70,11,25,Jits_Pract_5,1,5,63,98,1223802116
70,11,25,Jits_Pract_5,2,5,80,127,1223818464
70,11,25,Jits_Pract_5,3,1,48,35,1223831992
70,11,25,Jits_Pract_5,0,9999,9999,9999,1217096780
70,11,25,Jits_Pract_5,1,9999,9999,9999,1217596480
70,11,25,Jits_Pract_5,2,9999,9999,9999,1218096204
70,11,25,Jits_Pract_5,3,9999,9999,9999,1218596936
70,11,25,Jits_Pract_5,4,9999,9999,9999,1219096632
70,11,25,Jits_Pract_5,5,9999,9999,9999,1219596404
70,11,25,Jits_Pract_5,6,9999,9999,9999,1220096068
70,11,25,Jits_Pract_5,7,9999,9999,9999,1220596816
70,11,25,Jits_Pract_5,8,9999,9999,9999,1221096524
70,11,25,Jits_Pract_5,9,9999,9999,9999,1221596232
70,11,25,Jits_Pract_5,10,9999,9999,9999,1222096984
70,11,25,Jits_Pract_5,11,9999,9999,9999,1222596688
70,11,25,Jits_Pract_5,12,9999,9999,9999,1223096376
70,11,25,Jits_Pract_5,13,9999,9999,9999,1223596140
70,11,25,Jits_Pract_5,14,9999,9999,9999,1224096876
70,12,24,Jits_Pract_8,0,5,56,103,1276356056
70,12,24,Jits_Pract_8,1,5,63,98,1276359000
70,12,24,Jits_Pract_8,2,5,80,127,1276362124
70,12,24,Jits_Pract_8,0,1,48,27,1276909528
70,12,24,Jits_Pract_8,1,5,56,103,1277156124
70,12,24,Jits_Pract_8,2,5,63,98,1277159072
70,12,24,Jits_Pract_8,3,5,80,127,1277162192
70,12,24,Jits_Pract_8,0,5,80,127,1277896036
70,12,24,Jits_Pract_8,1,1,48,33,1277933704
70,12,24,Jits_Pract_8,2,5,63,98,1277986116
70,12,24,Jits_Pract_8,3,5,56,103,1277996312
70,12,24,Jits_Pract_8,0,5,56,103,1278716188
70,12,24,Jits_Pract_8,1,5,63,98,1278725488
70,12,24,Jits_Pract_8,2,5,80,127,1278815764
70,12,24,Jits_Pract_8,3,1,48,33,1278824208
70,12,24,Jits_Pract_8,0,5,63,98,1279486264
70,12,24,Jits_Pract_8,1,1,48,32,1279496980
70,12,24,Jits_Pract_8,2,5,80,127,1279515884
70,12,24,Jits_Pract_8,3,5,56,103,1279546008
70,12,24,Jits_Pract_8,0,1,48,29,1280254892
70,12,24,Jits_Pract_8,1,5,56,103,1280286036
70,12,24,Jits_Pract_8,2,5,80,127,1280386496
70,12,24,Jits_Pract_8,3,5,63,98,1280435500
70,12,24,Jits_Pract_8,0,5,56,103,1281085800
70,12,24,Jits_Pract_8,1,5,80,127,1281136076
70,12,24,Jits_Pract_8,2,1,48,27,1281138668
70,12,24,Jits_Pract_8,3,5,63,98,1281176004
70,12,24,Jits_Pract_8,0,1,48,27,1281885980
70,12,24,Jits_Pract_8,1,5,80,127,1281916424
70,12,24,Jits_Pract_8,2,5,63,98,1281945948
70,12,24,Jits_Pract_8,3,5,56,103,1282015688
70,12,24,Jits_Pract_8,0,1,48,27,1282730904
70,12,24,Jits_Pract_8,1,5,63,98,1282745920
70,12,24,Jits_Pract_8,2,5,56,103,1282776424
70,12,24,Jits_Pract_8,3,5,80,127,1282835776
70,12,24,Jits_Pract_8,0,5,56,103,1283486124
70,12,24,Jits_Pract_8,1,5,80,127,1283489192
70,12,24,Jits_Pract_8,2,1,48,28,1283562952
70,12,24,Jits_Pract_8,3,5,63,98,1283605940
70,12,24,Jits_Pract_8,0,1,48,29,1284297840
70,12,24,Jits_Pract_8,1,5,56,103,1284365840
70,12,24,Jits_Pract_8,2,5,80,127,1284405616
70,12,24,Jits_Pract_8,3,5,63,98,1284416036
70,12,24,Jits_Pract_8,0,5,56,103,1285125752
70,12,24,Jits_Pract_8,1,5,80,127,1285145840
70,12,24,Jits_Pract_8,2,1,48,29,1285154804
70,12,24,Jits_Pract_8,3,5,63,98,1285225776
70,12,24,Jits_Pract_8,0,5,80,127,1285916012
70,12,24,Jits_Pract_8,1,1,48,28,1285949168
70,12,24,Jits_Pract_8,2,5,56,103,1286016624
70,12,24,Jits_Pract_8,3,5,63,98,1286025700
70,12,24,Jits_Pract_8,0,5,63,98,1286686116
70,12,24,Jits_Pract_8,1,5,80,127,1286745608
70,12,24,Jits_Pract_8,2,5,56,103,1286755804
70,12,24,Jits_Pract_8,3,1,48,27,1286778476
70,12,24,Jits_Pract_8,0,1,48,28,1287465904
70,12,24,Jits_Pract_8,1,5,56,103,1287485784
70,12,24,Jits_Pract_8,2,5,63,98,1287555688
70,12,24,Jits_Pract_8,3,5,80,127,1287559712
70,12,24,Jits_Pract_8,0,9999,9999,9999,1276754008
70,12,24,Jits_Pract_8,1,9999,9999,9999,1277553776
70,12,24,Jits_Pract_8,2,9999,9999,9999,1278353460
70,12,24,Jits_Pract_8,3,9999,9999,9999,1279153208
70,12,24,Jits_Pract_8,4,9999,9999,9999,1279954024
70,12,24,Jits_Pract_8,5,9999,9999,9999,1280753784
70,12,24,Jits_Pract_8,6,9999,9999,9999,1281553484
70,12,24,Jits_Pract_8,7,9999,9999,9999,1282353252
70,12,24,Jits_Pract_8,8,9999,9999,9999,1283153984
70,12,24,Jits_Pract_8,9,9999,9999,9999,1283953728
70,12,24,Jits_Pract_8,10,9999,9999,9999,1284753500
70,12,24,Jits_Pract_8,11,9999,9999,9999,1285553260
70,12,24,Jits_Pract_8,12,9999,9999,9999,1286354008
70,12,24,Jits_Pract_8,13,9999,9999,9999,1287153772
70,12,24,Jits_Pract_8,14,9999,9999,9999,1287953468
70,13,25,Jits_Pract_5,0,5,56,103,1297145144
70,13,25,Jits_Pract_5,1,5,63,98,1297148168
70,13,25,Jits_Pract_5,2,5,80,127,1297151512
70,13,25,Jits_Pract_5,0,5,56,103,1297644944
70,13,25,Jits_Pract_5,1,5,63,98,1297647892
70,13,25,Jits_Pract_5,2,5,80,127,1297651164
70,13,25,Jits_Pract_5,0,1,48,25,1297975852
70,13,25,Jits_Pract_5,1,5,56,103,1298144668
70,13,25,Jits_Pract_5,2,5,80,127,1298154864
70,13,25,Jits_Pract_5,3,5,63,98,1298175468
70,13,25,Jits_Pract_5,0,1,48,42,1298586736
70,13,25,Jits_Pract_5,1,5,63,98,1298595300
70,13,25,Jits_Pract_5,2,5,80,127,1298624752
70,13,25,Jits_Pract_5,3,5,56,103,1298635392
70,13,25,Jits_Pract_5,0,1,48,41,1299056448
70,13,25,Jits_Pract_5,1,5,80,127,1299155432
70,13,25,Jits_Pract_5,2,5,56,103,1299164584
70,13,25,Jits_Pract_5,3,5,63,98,1299195528
70,13,25,Jits_Pract_5,0,1,48,35,1299620576
70,13,25,Jits_Pract_5,1,5,63,98,1299644736
70,13,25,Jits_Pract_5,2,5,56,103,1299674560
70,13,25,Jits_Pract_5,3,5,80,127,1299684832
70,13,25,Jits_Pract_5,0,5,56,103,1300095436
70,13,25,Jits_Pract_5,1,1,48,37,1300105824
70,13,25,Jits_Pract_5,2,5,63,98,1300144360
70,13,25,Jits_Pract_5,3,5,80,127,1300164892
70,13,25,Jits_Pract_5,0,1,48,38,1300572712
70,13,25,Jits_Pract_5,1,5,80,127,1300595060
70,13,25,Jits_Pract_5,2,5,63,98,1300645484
70,13,25,Jits_Pract_5,3,5,56,103,1300685184
70,13,25,Jits_Pract_5,0,1,48,41,1301091720
70,13,25,Jits_Pract_5,1,5,56,103,1301094752
70,13,25,Jits_Pract_5,2,5,63,98,1301124500
70,13,25,Jits_Pract_5,3,5,80,127,1301195284
70,13,25,Jits_Pract_5,0,1,48,40,1301589168
70,13,25,Jits_Pract_5,1,5,56,103,1301594444
70,13,25,Jits_Pract_5,2,5,80,127,1301654832
70,13,25,Jits_Pract_5,3,5,63,98,1301684644
70,13,25,Jits_Pract_5,0,1,48,40,1302104028
70,13,25,Jits_Pract_5,1,5,56,103,1302105448
70,13,25,Jits_Pract_5,2,5,63,98,1302114596
70,13,25,Jits_Pract_5,3,5,80,127,1302154460
70,13,25,Jits_Pract_5,0,5,63,98,1302594804
70,13,25,Jits_Pract_5,1,1,48,39,1302602112
70,13,25,Jits_Pract_5,2,5,80,127,1302674672
70,13,25,Jits_Pract_5,3,5,56,103,1302685016
70,13,25,Jits_Pract_5,0,1,48,38,1303123832
70,13,25,Jits_Pract_5,1,5,63,98,1303144688
70,13,25,Jits_Pract_5,2,5,56,103,1303184700
70,13,25,Jits_Pract_5,3,5,80,127,1303187692
70,13,25,Jits_Pract_5,0,5,56,103,1303604596
70,13,25,Jits_Pract_5,1,5,63,98,1303614792
70,13,25,Jits_Pract_5,2,1,48,36,1303651316
70,13,25,Jits_Pract_5,3,5,80,127,1303654724
70,13,25,Jits_Pract_5,0,5,56,103,1304095304
70,13,25,Jits_Pract_5,1,5,63,98,1304098444
70,13,25,Jits_Pract_5,2,1,48,36,1304101564
70,13,25,Jits_Pract_5,3,5,80,127,1304114560
70,13,25,Jits_Pract_5,0,9999,9999,9999,1297392728
70,13,25,Jits_Pract_5,1,9999,9999,9999,1297892456
70,13,25,Jits_Pract_5,2,9999,9999,9999,1298392180
70,13,25,Jits_Pract_5,3,9999,9999,9999,1298892916
70,13,25,Jits_Pract_5,4,9999,9999,9999,1299392612
70,13,25,Jits_Pract_5,5,9999,9999,9999,1299892312
70,13,25,Jits_Pract_5,6,9999,9999,9999,1300393048
70,13,25,Jits_Pract_5,7,9999,9999,9999,1300892752
70,13,25,Jits_Pract_5,8,9999,9999,9999,1301392444
70,13,25,Jits_Pract_5,9,9999,9999,9999,1301892216
70,13,25,Jits_Pract_5,10,9999,9999,9999,1302392948
70,13,25,Jits_Pract_5,11,9999,9999,9999,1302892644
70,13,25,Jits_Pract_5,12,9999,9999,9999,1303392332
70,13,25,Jits_Pract_5,13,9999,9999,9999,1303893064
70,13,25,Jits_Pract_5,14,9999,9999,9999,1304392756
70,14,7,Jits_ISO_8,0,5,56,103,1345885492
70,14,7,Jits_ISO_8,1,5,63,98,1345888664
70,14,7,Jits_ISO_8,2,5,80,127,1345891788
70,14,7,Jits_ISO_8,0,5,56,103,1346686464
70,14,7,Jits_ISO_8,1,5,63,98,1346689640
70,14,7,Jits_ISO_8,2,5,80,127,1346692756
70,14,7,Jits_ISO_8,3,1,48,43,1346856532
70,14,7,Jits_ISO_8,0,5,80,127,1347425648
70,14,7,Jits_ISO_8,1,5,63,98,1347515636
70,14,7,Jits_ISO_8,2,1,48,43,1347519276
70,14,7,Jits_ISO_8,3,5,56,103,1347525972
70,14,7,Jits_ISO_8,0,5,56,103,1348245824
70,14,7,Jits_ISO_8,1,5,63,98,1348256392
70,14,7,Jits_ISO_8,2,1,48,42,1348306416
70,14,7,Jits_ISO_8,3,5,80,127,1348346220
70,14,7,Jits_ISO_8,0,1,48,38,1349015496
70,14,7,Jits_ISO_8,1,5,63,98,1349017064
70,14,7,Jits_ISO_8,2,5,80,127,1349045544
70,14,7,Jits_ISO_8,3,5,56,103,1349076564
70,14,7,Jits_ISO_8,0,1,48,36,1349796144
70,14,7,Jits_ISO_8,1,5,56,103,1349815720
70,14,7,Jits_ISO_8,2,5,80,127,1349915980
70,14,7,Jits_ISO_8,3,5,63,98,1349966332
70,14,7,Jits_ISO_8,0,5,56,103,1350616484
70,14,7,Jits_ISO_8,1,5,80,127,1350665516
70,14,7,Jits_ISO_8,2,5,63,98,1350705452
70,14,7,Jits_ISO_8,3,1,48,39,1350709620
70,14,7,Jits_ISO_8,0,1,48,35,1351444152
70,14,7,Jits_ISO_8,1,5,80,127,1351445740
70,14,7,Jits_ISO_8,2,5,63,98,1351475492
70,14,7,Jits_ISO_8,3,5,56,103,1351546352
70,14,7,Jits_ISO_8,0,5,63,98,1352276548
70,14,7,Jits_ISO_8,1,1,48,34,1352293448
70,14,7,Jits_ISO_8,2,5,56,103,1352306144
70,14,7,Jits_ISO_8,3,5,80,127,1352365560
70,14,7,Jits_ISO_8,0,5,56,103,1353015648
70,14,7,Jits_ISO_8,1,5,80,127,1353018712
70,14,7,Jits_ISO_8,2,1,48,34,1353111956
70,14,7,Jits_ISO_8,3,5,63,98,1353135440
70,14,7,Jits_ISO_8,0,1,48,35,1353813140
70,14,7,Jits_ISO_8,1,5,56,103,1353896412
70,14,7,Jits_ISO_8,2,5,80,127,1353936192
70,14,7,Jits_ISO_8,3,5,63,98,1353945416
70,14,7,Jits_ISO_8,0,5,56,103,1354656276
70,14,7,Jits_ISO_8,1,5,80,127,1354675464
70,14,7,Jits_ISO_8,2,1,48,33,1354684280
70,14,7,Jits_ISO_8,3,5,63,98,1354755424
70,14,7,Jits_ISO_8,0,5,80,127,1355445584
70,14,7,Jits_ISO_8,1,1,48,35,1355536840
70,14,7,Jits_ISO_8,2,5,56,103,1355546004
70,14,7,Jits_ISO_8,3,5,63,98,1355556200
70,14,7,Jits_ISO_8,0,5,63,98,1356215716
70,14,7,Jits_ISO_8,1,5,80,127,1356276332
70,14,7,Jits_ISO_8,2,5,56,103,1356286380
70,14,7,Jits_ISO_8,3,1,48,33,1356302252
70,14,7,Jits_ISO_8,0,1,48,34,1357012160
70,14,7,Jits_ISO_8,1,5,56,103,1357016388
70,14,7,Jits_ISO_8,2,5,63,98,1357086244
70,14,7,Jits_ISO_8,3,5,80,127,1357089536
70,14,7,Jits_ISO_8,0,1,48,33,1357787884
70,14,7,Jits_ISO_8,1,5,63,98,1357845852
70,14,7,Jits_ISO_8,2,5,56,103,1357896260
70,14,7,Jits_ISO_8,3,5,80,127,1357899404
70,14,7,Jits_ISO_8,0,5,56,103,1358605624
70,14,7,Jits_ISO_8,1,5,80,127,1358608616
70,14,7,Jits_ISO_8,2,1,48,33,1358629340
70,14,7,Jits_ISO_8,3,5,63,98,1358695672
70,14,7,Jits_ISO_8,0,1,48,36,1359412632
70,14,7,Jits_ISO_8,1,5,63,98,1359446308
70,14,7,Jits_ISO_8,2,5,56,103,1359535532
70,14,7,Jits_ISO_8,3,5,80,127,1359566104
70,14,7,Jits_ISO_8,0,5,56,103,1360235836
70,14,7,Jits_ISO_8,1,1,48,38,1360257464
70,14,7,Jits_ISO_8,2,5,63,98,1360336304
70,14,7,Jits_ISO_8,3,5,80,127,1360365816
70,14,7,Jits_ISO_8,0,1,48,39,1361053572
70,14,7,Jits_ISO_8,1,5,63,98,1361056160
70,14,7,Jits_ISO_8,2,5,56,103,1361066280
70,14,7,Jits_ISO_8,3,5,80,127,1361155304
70,14,7,Jits_ISO_8,0,5,63,98,1361876476
70,14,7,Jits_ISO_8,1,1,48,35,1361894816
70,14,7,Jits_ISO_8,2,5,56,103,1361956144
70,14,7,Jits_ISO_8,3,5,80,127,1361959212
70,14,7,Jits_ISO_8,0,5,80,127,1362636104
70,14,7,Jits_ISO_8,1,5,63,98,1362655592
70,14,7,Jits_ISO_8,2,1,48,35,1362712144
70,14,7,Jits_ISO_8,3,5,56,103,1362716296
70,14,7,Jits_ISO_8,0,1,48,35,1363435344
70,14,7,Jits_ISO_8,1,5,56,103,1363476152
70,14,7,Jits_ISO_8,2,5,63,98,1363496312
70,14,7,Jits_ISO_8,3,5,80,127,1363499680
70,14,7,Jits_ISO_8,0,5,63,98,1364216272
70,14,7,Jits_ISO_8,1,1,48,34,1364249084
70,14,7,Jits_ISO_8,2,5,80,127,1364296312
70,14,7,Jits_ISO_8,3,5,56,103,1364306356
70,14,7,Jits_ISO_8,0,5,63,98,1365036532
70,14,7,Jits_ISO_8,1,5,56,103,1365055720
70,14,7,Jits_ISO_8,2,1,48,37,1365073808
70,14,7,Jits_ISO_8,3,5,80,127,1365106212
70,14,7,Jits_ISO_8,0,1,48,36,1365801800
70,14,7,Jits_ISO_8,1,5,80,127,1365836080
70,14,7,Jits_ISO_8,2,5,63,98,1365876092
70,14,7,Jits_ISO_8,3,5,56,103,1365895504
70,14,7,Jits_ISO_8,0,1,48,34,1366617996
70,14,7,Jits_ISO_8,1,5,56,103,1366676092
70,14,7,Jits_ISO_8,2,5,63,98,1366686064
70,14,7,Jits_ISO_8,3,5,80,127,1366705400
70,14,7,Jits_ISO_8,0,5,56,103,1367406124
70,14,7,Jits_ISO_8,1,1,48,36,1367479672
70,14,7,Jits_ISO_8,2,5,63,98,1367496032
70,14,7,Jits_ISO_8,3,5,80,127,1367555328
70,14,7,Jits_ISO_8,0,5,80,127,1368236344
70,14,7,Jits_ISO_8,1,5,56,103,1368245568
70,14,7,Jits_ISO_8,2,1,48,39,1368254612
70,14,7,Jits_ISO_8,3,5,63,98,1368316212
70,14,7,Jits_ISO_8,0,5,63,98,1369065956
70,14,7,Jits_ISO_8,1,1,48,37,1369069004
70,14,7,Jits_ISO_8,2,5,80,127,1369156112
70,14,7,Jits_ISO_8,3,5,56,103,1369166160
70,14,7,Jits_ISO_8,0,5,63,98,1369806256
70,14,7,Jits_ISO_8,1,5,80,127,1369856312
70,14,7,Jits_ISO_8,2,5,56,103,1369915952
70,14,7,Jits_ISO_8,3,1,48,36,1369950536
70,14,7,Jits_ISO_8,0,5,56,103,1370635560
70,14,7,Jits_ISO_8,1,1,48,40,1370667300
70,14,7,Jits_ISO_8,2,5,80,127,1370685904
70,14,7,Jits_ISO_8,3,5,63,98,1370706212
70,14,7,Jits_ISO_8,0,5,56,103,1371405756
70,14,7,Jits_ISO_8,1,5,80,127,1371466152
70,14,7,Jits_ISO_8,2,1,48,40,1371495268
70,14,7,Jits_ISO_8,3,5,63,98,1371535972
70,14,7,Jits_ISO_8,0,5,56,103,1372205628
70,14,7,Jits_ISO_8,1,1,48,41,1372235752
70,14,7,Jits_ISO_8,2,5,80,127,1372237396
70,14,7,Jits_ISO_8,3,5,63,98,1372265872
70,14,7,Jits_ISO_8,0,1,48,40,1372979084
70,14,7,Jits_ISO_8,1,5,56,103,1373046096
70,14,7,Jits_ISO_8,2,5,80,127,1373065732
70,14,7,Jits_ISO_8,3,5,63,98,1373126108
70,14,7,Jits_ISO_8,0,1,48,38,1373838960
70,14,7,Jits_ISO_8,1,5,80,127,1373925900
70,14,7,Jits_ISO_8,2,5,56,103,1373936084
70,14,7,Jits_ISO_8,3,5,63,98,1373946280
70,14,7,Jits_ISO_8,0,5,56,103,1374685616
70,14,7,Jits_ISO_8,1,5,80,127,1374725432
70,14,7,Jits_ISO_8,2,1,48,38,1374735000
70,14,7,Jits_ISO_8,3,5,63,98,1374756224
70,14,7,Jits_ISO_8,0,5,56,103,1375455528
70,14,7,Jits_ISO_8,1,5,63,98,1375486252
70,14,7,Jits_ISO_8,2,1,48,40,1375502264
70,14,7,Jits_ISO_8,3,5,80,127,1375526128
70,14,7,Jits_ISO_8,0,5,80,127,1376206240
70,14,7,Jits_ISO_8,1,5,63,98,1376256540
70,14,7,Jits_ISO_8,2,1,48,41,1376263020
70,14,7,Jits_ISO_8,3,5,56,103,1376275796
70,14,7,Jits_ISO_8,0,1,48,35,1377000600
70,14,7,Jits_ISO_8,1,5,56,103,1377035568
70,14,7,Jits_ISO_8,2,5,80,127,1377106432
70,14,7,Jits_ISO_8,3,5,63,98,1377165776
70,14,7,Jits_ISO_8,0,1,48,38,1377835272
70,14,7,Jits_ISO_8,1,5,80,127,1377836920
70,14,7,Jits_ISO_8,2,5,63,98,1377925788
70,14,7,Jits_ISO_8,3,5,56,103,1377946012
70,14,7,Jits_ISO_8,0,5,63,98,1378655676
70,14,7,Jits_ISO_8,1,5,56,103,1378676060
70,14,7,Jits_ISO_8,2,1,48,36,1378683144
70,14,7,Jits_ISO_8,3,5,80,127,1378715916
70,14,7,Jits_ISO_8,0,5,80,127,1379416496
70,14,7,Jits_ISO_8,1,1,48,34,1379424572
70,14,7,Jits_ISO_8,2,5,63,98,1379435976
70,14,7,Jits_ISO_8,3,5,56,103,1379515844
70,14,7,Jits_ISO_8,0,5,63,98,1380205876
70,14,7,Jits_ISO_8,1,1,48,34,1380238212
70,14,7,Jits_ISO_8,2,5,56,103,1380315484
70,14,7,Jits_ISO_8,3,5,80,127,1380318772
70,14,7,Jits_ISO_8,0,1,48,36,1380993264
70,14,7,Jits_ISO_8,1,5,63,98,1381026096
70,14,7,Jits_ISO_8,2,5,56,103,1381036288
70,14,7,Jits_ISO_8,3,5,80,127,1381039656
70,14,7,Jits_ISO_8,0,1,48,37,1381805268
70,14,7,Jits_ISO_8,1,5,56,103,1381806828
70,14,7,Jits_ISO_8,2,5,80,127,1381926272
70,14,7,Jits_ISO_8,3,5,63,98,1381966060
70,14,7,Jits_ISO_8,0,5,56,103,1382625876
70,14,7,Jits_ISO_8,1,1,48,40,1382680792
70,14,7,Jits_ISO_8,2,5,80,127,1382705620
70,14,7,Jits_ISO_8,3,5,63,98,1382725932
70,14,7,Jits_ISO_8,0,5,56,103,1383426600
70,14,7,Jits_ISO_8,1,1,48,40,1383496108
70,14,7,Jits_ISO_8,2,5,63,98,1383535912
70,14,7,Jits_ISO_8,3,5,80,127,1383539276
70,14,7,Jits_ISO_8,0,1,48,38,1384224940
70,14,7,Jits_ISO_8,1,5,56,103,1384255756
70,14,7,Jits_ISO_8,2,5,80,127,1384285732
70,14,7,Jits_ISO_8,3,5,63,98,1384305892
70,14,7,Jits_ISO_8,0,1,48,38,1385013564
70,14,7,Jits_ISO_8,1,5,63,98,1385036132
70,14,7,Jits_ISO_8,2,5,56,103,1385046404
70,14,7,Jits_ISO_8,3,5,80,127,1385055552
70,14,7,Jits_ISO_8,0,1,48,37,1385804564
70,14,7,Jits_ISO_8,1,5,80,127,1385826016
70,14,7,Jits_ISO_8,2,5,56,103,1385875920
70,14,7,Jits_ISO_8,3,5,63,98,1385915696
70,14,7,Jits_ISO_8,0,5,80,127,1386645960
70,14,7,Jits_ISO_8,1,1,48,35,1386654328
70,14,7,Jits_ISO_8,2,5,63,98,1386666264
70,14,7,Jits_ISO_8,3,5,56,103,1386715640
70,14,7,Jits_ISO_8,0,5,80,127,1387455796
70,14,7,Jits_ISO_8,1,5,56,103,1387485548
70,14,7,Jits_ISO_8,2,1,48,38,1387486516
70,14,7,Jits_ISO_8,3,5,63,98,1387556072
70,14,7,Jits_ISO_8,0,5,56,103,1388305824
70,14,7,Jits_ISO_8,1,5,80,127,1388315872
70,14,7,Jits_ISO_8,2,1,48,37,1388316836
70,14,7,Jits_ISO_8,3,5,63,98,1388355952
70,14,7,Jits_ISO_8,0,5,56,103,1389016516
70,14,7,Jits_ISO_8,1,5,63,98,1389035780
70,14,7,Jits_ISO_8,2,5,80,127,1389105484
70,14,7,Jits_ISO_8,3,1,48,35,1389126064
70,14,7,Jits_ISO_8,0,1,48,38,1389822188
70,14,7,Jits_ISO_8,1,5,63,98,1389835808
70,14,7,Jits_ISO_8,2,5,80,127,1389895904
70,14,7,Jits_ISO_8,3,5,56,103,1389915748
70,14,7,Jits_ISO_8,0,1,48,32,1390621544
70,14,7,Jits_ISO_8,1,5,80,127,1390626448
70,14,7,Jits_ISO_8,2,5,56,103,1390655752
70,14,7,Jits_ISO_8,3,5,63,98,1390685576
70,14,7,Jits_ISO_8,0,5,56,103,1391425940
70,14,7,Jits_ISO_8,1,1,48,35,1391426980
70,14,7,Jits_ISO_8,2,5,63,98,1391486552
70,14,7,Jits_ISO_8,3,5,80,127,1391545656
70,14,7,Jits_ISO_8,0,5,80,127,1392246120
70,14,7,Jits_ISO_8,1,1,48,36,1392260400
70,14,7,Jits_ISO_8,2,5,56,103,1392265748
70,14,7,Jits_ISO_8,3,5,63,98,1392336104
70,14,7,Jits_ISO_8,0,5,80,127,1393045844
70,14,7,Jits_ISO_8,1,5,63,98,1393066304
70,14,7,Jits_ISO_8,2,5,56,103,1393095976
70,14,7,Jits_ISO_8,3,1,48,30,1393102760
70,14,7,Jits_ISO_8,0,5,80,127,1393836496
70,14,7,Jits_ISO_8,1,5,63,98,1393855832
70,14,7,Jits_ISO_8,2,1,48,31,1393871012
70,14,7,Jits_ISO_8,3,5,56,103,1393916512
70,14,7,Jits_ISO_8,0,5,80,127,1394636364
70,14,7,Jits_ISO_8,1,1,48,35,1394682852
70,14,7,Jits_ISO_8,2,5,56,103,1394735588
70,14,7,Jits_ISO_8,3,5,63,98,1394766084
70,14,7,Jits_ISO_8,0,5,63,98,1395425604
70,14,7,Jits_ISO_8,1,5,80,127,1395475908
70,14,7,Jits_ISO_8,2,5,56,103,1395496292
70,14,7,Jits_ISO_8,3,1,48,32,1395532588
70,14,7,Jits_ISO_8,0,5,80,127,1396266464
70,14,7,Jits_ISO_8,1,1,48,35,1396289812
70,14,7,Jits_ISO_8,2,5,56,103,1396296056
70,14,7,Jits_ISO_8,3,5,63,98,1396299052
70,14,7,Jits_ISO_8,0,5,63,98,1397095772
70,14,7,Jits_ISO_8,1,1,48,37,1397104368
70,14,7,Jits_ISO_8,2,5,56,103,1397135780
70,14,7,Jits_ISO_8,3,5,80,127,1397156316
70,14,7,Jits_ISO_8,0,5,80,127,1397836220
70,14,7,Jits_ISO_8,1,5,63,98,1397915872
70,14,7,Jits_ISO_8,2,1,48,36,1397943720
70,14,7,Jits_ISO_8,3,5,56,103,1397955804
70,14,7,Jits_ISO_8,0,5,63,98,1398656552
70,14,7,Jits_ISO_8,1,5,80,127,1398736496
70,14,7,Jits_ISO_8,2,1,48,34,1398737992
70,14,7,Jits_ISO_8,3,5,56,103,1398755680
70,14,7,Jits_ISO_8,0,5,56,103,1399495900
70,14,7,Jits_ISO_8,1,5,63,98,1399506468
70,14,7,Jits_ISO_8,2,1,48,34,1399534620
70,14,7,Jits_ISO_8,3,5,80,127,1399546476
70,14,7,Jits_ISO_8,0,5,56,103,1400216056
70,14,7,Jits_ISO_8,1,5,80,127,1400219048
70,14,7,Jits_ISO_8,2,1,48,31,1400274324
70,14,7,Jits_ISO_8,3,5,63,98,1400356476
70,14,7,Jits_ISO_8,0,5,56,103,1401005356
70,14,7,Jits_ISO_8,1,1,48,34,1401060312
70,14,7,Jits_ISO_8,2,5,63,98,1401095512
70,14,7,Jits_ISO_8,3,5,80,127,1401166296
70,14,7,Jits_ISO_8,0,1,48,30,1401846552
70,14,7,Jits_ISO_8,1,5,63,98,1401886088
70,14,7,Jits_ISO_8,2,5,80,127,1401889524
70,14,7,Jits_ISO_8,3,5,56,103,1401945416
70,14,7,Jits_ISO_8,0,1,48,30,1402673636
70,14,7,Jits_ISO_8,1,5,80,127,1402725804
70,14,7,Jits_ISO_8,2,5,56,103,1402746484
70,14,7,Jits_ISO_8,3,5,63,98,1402755336
70,14,7,Jits_ISO_8,0,5,56,103,1403436592
70,14,7,Jits_ISO_8,1,5,63,98,1403445664
70,14,7,Jits_ISO_8,2,1,48,28,1403511260
70,14,7,Jits_ISO_8,3,5,80,127,1403516460
70,14,7,Jits_ISO_8,0,5,80,127,1404236460
70,14,7,Jits_ISO_8,1,5,56,103,1404286516
70,14,7,Jits_ISO_8,2,1,48,28,1404291432
70,14,7,Jits_ISO_8,3,5,63,98,1404335516
70,14,7,Jits_ISO_8,0,1,48,34,1405045596
70,14,7,Jits_ISO_8,1,5,56,103,1405115676
70,14,7,Jits_ISO_8,2,5,63,98,1405126020
70,14,7,Jits_ISO_8,3,5,80,127,1405165872
70,14,7,Jits_ISO_8,0,5,56,103,1405856208
70,14,7,Jits_ISO_8,1,1,48,29,1405883688
70,14,7,Jits_ISO_8,2,5,63,98,1405896144
70,14,7,Jits_ISO_8,3,5,80,127,1405946420
70,14,7,Jits_ISO_8,0,5,80,127,1406615924
70,14,7,Jits_ISO_8,1,5,56,103,1406666204
70,14,7,Jits_ISO_8,2,5,63,98,1406685468
70,14,7,Jits_ISO_8,3,1,48,24,1406710752
70,14,7,Jits_ISO_8,0,5,80,127,1407425760
70,14,7,Jits_ISO_8,1,1,48,27,1407472248
70,14,7,Jits_ISO_8,2,5,63,98,1407486444
70,14,7,Jits_ISO_8,3,5,56,103,1407566668
70,14,7,Jits_ISO_8,0,5,80,127,1408206204
70,14,7,Jits_ISO_8,1,5,56,103,1408246364
70,14,7,Jits_ISO_8,2,5,63,98,1408265656
70,14,7,Jits_ISO_8,3,1,48,30,1408285860
70,14,7,Jits_ISO_8,0,5,56,103,1409056292
70,14,7,Jits_ISO_8,1,5,80,127,1409066412
70,14,7,Jits_ISO_8,2,1,48,31,1409067456
70,14,7,Jits_ISO_8,3,5,63,98,1409106272
70,14,7,Jits_ISO_8,0,1,48,36,1409847136
70,14,7,Jits_ISO_8,1,5,56,103,1409925460
70,14,7,Jits_ISO_8,2,5,63,98,1409965384
70,14,7,Jits_ISO_8,3,5,80,127,1409968676
70,14,7,Jits_ISO_8,0,5,63,98,1410615636
70,14,7,Jits_ISO_8,1,5,80,127,1410655576
70,14,7,Jits_ISO_8,2,5,56,103,1410726376
70,14,7,Jits_ISO_8,3,1,48,32,1410743196
70,14,7,Jits_ISO_8,0,5,63,98,1411406272
70,14,7,Jits_ISO_8,1,1,48,24,1411452020
70,14,7,Jits_ISO_8,2,5,56,103,1411486216
70,14,7,Jits_ISO_8,3,5,80,127,1411545472
70,14,7,Jits_ISO_8,0,5,80,127,1412216324
70,14,7,Jits_ISO_8,1,1,48,34,1412231048
70,14,7,Jits_ISO_8,2,5,63,98,1412266296
70,14,7,Jits_ISO_8,3,5,56,103,1412296268
70,14,7,Jits_ISO_8,0,5,56,103,1413005632
70,14,7,Jits_ISO_8,1,1,48,35,1413054164
70,14,7,Jits_ISO_8,2,5,63,98,1413055752
70,14,7,Jits_ISO_8,3,5,80,127,1413066244
70,14,7,Jits_ISO_8,0,5,56,103,1413815612
70,14,7,Jits_ISO_8,1,1,48,30,1413828096
70,14,7,Jits_ISO_8,2,5,63,98,1413926220
70,14,7,Jits_ISO_8,3,5,80,127,1413945616
70,14,7,Jits_ISO_8,0,5,63,98,1414616384
70,14,7,Jits_ISO_8,1,1,48,34,1414635168
70,14,7,Jits_ISO_8,2,5,80,127,1414665636
70,14,7,Jits_ISO_8,3,5,56,103,1414755900
70,14,7,Jits_ISO_8,0,5,63,98,1415406052
70,14,7,Jits_ISO_8,1,5,80,127,1415435604
70,14,7,Jits_ISO_8,2,1,48,34,1415466372
70,14,7,Jits_ISO_8,3,5,56,103,1415525732
70,14,7,Jits_ISO_8,0,5,63,98,1416205636
70,14,7,Jits_ISO_8,1,5,56,103,1416216052
70,14,7,Jits_ISO_8,2,1,48,31,1416239848
70,14,7,Jits_ISO_8,3,5,80,127,1416316368
70,14,7,Jits_ISO_8,0,1,48,31,1416983112
70,14,7,Jits_ISO_8,1,5,63,98,1417105860
70,14,7,Jits_ISO_8,2,5,80,127,1417135536
70,14,7,Jits_ISO_8,3,5,56,103,1417166184
70,14,7,Jits_ISO_8,0,1,48,29,1417884516
70,14,7,Jits_ISO_8,1,5,80,127,1417926124
70,14,7,Jits_ISO_8,2,5,63,98,1417936172
70,14,7,Jits_ISO_8,3,5,56,103,1417966220
70,14,7,Jits_ISO_8,0,5,80,127,1418626276
70,14,7,Jits_ISO_8,1,5,63,98,1418646136
70,14,7,Jits_ISO_8,2,5,56,103,1418696336
70,14,7,Jits_ISO_8,3,1,48,30,1418751020
70,14,7,Jits_ISO_8,0,5,63,98,1419456112
70,14,7,Jits_ISO_8,1,1,48,31,1419462676
70,14,7,Jits_ISO_8,2,5,80,127,1419516348
70,14,7,Jits_ISO_8,3,5,56,103,1419535688
70,14,7,Jits_ISO_8,0,5,63,98,1420215640
70,14,7,Jits_ISO_8,1,1,48,32,1420227604
70,14,7,Jits_ISO_8,2,5,56,103,1420266060
70,14,7,Jits_ISO_8,3,5,80,127,1420276256
70,14,7,Jits_ISO_8,0,1,48,34,1420996580
70,14,7,Jits_ISO_8,1,5,56,103,1421045984
70,14,7,Jits_ISO_8,2,5,80,127,1421056504
70,14,7,Jits_ISO_8,3,5,63,98,1421155688
70,14,7,Jits_ISO_8,0,1,48,30,1421780624
70,14,7,Jits_ISO_8,1,5,80,127,1421805904
70,14,7,Jits_ISO_8,2,5,63,98,1421816176
70,14,7,Jits_ISO_8,3,5,56,103,1421965804
70,14,7,Jits_ISO_8,0,5,63,98,1422615908
70,14,7,Jits_ISO_8,1,1,48,33,1422641576
70,14,7,Jits_ISO_8,2,5,80,127,1422656140
70,14,7,Jits_ISO_8,3,5,56,103,1422735860
70,14,7,Jits_ISO_8,0,5,56,103,1423405504
70,14,7,Jits_ISO_8,1,1,48,27,1423455976
70,14,7,Jits_ISO_8,2,5,80,127,1423505972
70,14,7,Jits_ISO_8,3,5,63,98,1423526208
70,14,7,Jits_ISO_8,0,1,48,33,1424215984
70,14,7,Jits_ISO_8,1,5,80,127,1424265684
70,14,7,Jits_ISO_8,2,5,56,103,1424276104
70,14,7,Jits_ISO_8,3,5,63,98,1424366000
70,14,7,Jits_ISO_8,0,1,48,30,1425031048
70,14,7,Jits_ISO_8,1,5,56,103,1425066296
70,14,7,Jits_ISO_8,2,5,63,98,1425086080
70,14,7,Jits_ISO_8,3,5,80,127,1425165884
70,14,7,Jits_ISO_8,0,5,63,98,1425815892
70,14,7,Jits_ISO_8,1,1,48,27,1425851672
70,14,7,Jits_ISO_8,2,5,56,103,1425906092
70,14,7,Jits_ISO_8,3,5,80,127,1425909160
70,14,7,Jits_ISO_8,0,1,48,33,1426643716
70,14,7,Jits_ISO_8,1,5,56,103,1426646380
70,14,7,Jits_ISO_8,2,5,80,127,1426705972
70,14,7,Jits_ISO_8,3,5,63,98,1426716168
70,14,7,Jits_ISO_8,0,1,48,22,1427445616
70,14,7,Jits_ISO_8,1,5,80,127,1427496312
70,14,7,Jits_ISO_8,2,5,56,103,1427505684
70,14,7,Jits_ISO_8,3,5,63,98,1427508748
70,14,7,Jits_ISO_8,0,5,56,103,1428256088
70,14,7,Jits_ISO_8,1,5,80,127,1428266284
70,14,7,Jits_ISO_8,2,1,48,24,1428285844
70,14,7,Jits_ISO_8,3,5,63,98,1428287184
70,14,7,Jits_ISO_8,0,5,63,98,1429026064
70,14,7,Jits_ISO_8,1,1,48,29,1429064176
70,14,7,Jits_ISO_8,2,5,80,127,1429085924
70,14,7,Jits_ISO_8,3,5,56,103,1429135904
70,14,7,Jits_ISO_8,0,1,48,26,1429832472
70,14,7,Jits_ISO_8,1,5,63,98,1429906008
70,14,7,Jits_ISO_8,2,5,56,103,1429915980
70,14,7,Jits_ISO_8,3,5,80,127,1429966168
70,14,7,Jits_ISO_8,0,5,63,98,1430606228
70,14,7,Jits_ISO_8,1,5,80,127,1430625792
70,14,7,Jits_ISO_8,2,5,56,103,1430635840
70,14,7,Jits_ISO_8,3,1,48,28,1430689152
70,14,7,Jits_ISO_8,0,5,63,98,1431405928
70,14,7,Jits_ISO_8,1,5,80,127,1431409296
70,14,7,Jits_ISO_8,2,1,48,29,1431418044
70,14,7,Jits_ISO_8,3,5,56,103,1431445860
70,14,7,Jits_ISO_8,0,1,48,27,1432212848
70,14,7,Jits_ISO_8,1,5,63,98,1432276340
70,14,7,Jits_ISO_8,2,5,80,127,1432305944
70,14,7,Jits_ISO_8,3,5,56,103,1432316200
70,14,7,Jits_ISO_8,0,5,56,103,1433025788
70,14,7,Jits_ISO_8,1,5,80,127,1433055612
70,14,7,Jits_ISO_8,2,1,48,27,1433068020
70,14,7,Jits_ISO_8,3,5,63,98,1433086352
70,14,7,Jits_ISO_8,0,1,48,27,1433853508
70,14,7,Jits_ISO_8,1,5,63,98,1433925996
70,14,7,Jits_ISO_8,2,5,56,103,1433965920
70,14,7,Jits_ISO_8,3,5,80,127,1433968988
70,14,7,Jits_ISO_8,0,5,80,127,1434626292
70,14,7,Jits_ISO_8,1,5,56,103,1434706384
70,14,7,Jits_ISO_8,2,5,63,98,1434755616
70,14,7,Jits_ISO_8,3,1,48,27,1434770416
70,14,7,Jits_ISO_8,0,5,80,127,1435405636
70,14,7,Jits_ISO_8,1,5,56,103,1435426172
70,14,7,Jits_ISO_8,2,5,63,98,1435516304
70,14,7,Jits_ISO_8,3,1,48,28,1435566996
70,14,7,Jits_ISO_8,0,5,80,127,1436246484
70,14,7,Jits_ISO_8,1,5,63,98,1436286424
70,14,7,Jits_ISO_8,2,1,48,23,1436291932
70,14,7,Jits_ISO_8,3,5,56,103,1436326204
70,14,7,Jits_ISO_8,0,5,63,98,1437016688
70,14,7,Jits_ISO_8,1,1,48,23,1437069852
70,14,7,Jits_ISO_8,2,5,80,127,1437075728
70,14,7,Jits_ISO_8,3,5,56,103,1437105776
70,14,7,Jits_ISO_8,0,5,56,103,1437816244
70,14,7,Jits_ISO_8,1,5,80,127,1437845996
70,14,7,Jits_ISO_8,2,1,48,27,1437856680
70,14,7,Jits_ISO_8,3,5,63,98,1437935972
70,14,7,Jits_ISO_8,0,5,56,103,1438626080
70,14,7,Jits_ISO_8,1,1,48,24,1438654608
70,14,7,Jits_ISO_8,2,5,80,127,1438735940
70,14,7,Jits_ISO_8,3,5,63,98,1438765600
70,14,7,Jits_ISO_8,0,5,56,103,1439476080
70,14,7,Jits_ISO_8,1,1,48,23,1439502068
70,14,7,Jits_ISO_8,2,5,63,98,1439535592
70,14,7,Jits_ISO_8,3,5,80,127,1439566168
70,14,7,Jits_ISO_8,0,5,56,103,1440246064
70,14,7,Jits_ISO_8,1,5,63,98,1440315624
70,14,7,Jits_ISO_8,2,5,80,127,1440336232
70,14,7,Jits_ISO_8,3,1,48,26,1440367896
70,14,7,Jits_ISO_8,0,5,80,127,1441016120
70,14,7,Jits_ISO_8,1,5,63,98,1441035632
70,14,7,Jits_ISO_8,2,5,56,103,1441085760
70,14,7,Jits_ISO_8,3,1,48,26,1441108580
70,14,7,Jits_ISO_8,0,9999,9999,9999,1346283584
70,14,7,Jits_ISO_8,1,9999,9999,9999,1347083360
70,14,7,Jits_ISO_8,2,9999,9999,9999,1347883084
70,14,7,Jits_ISO_8,3,9999,9999,9999,1348683852
70,14,7,Jits_ISO_8,4,9999,9999,9999,1349483644
70,14,7,Jits_ISO_8,5,9999,9999,9999,1350283352
70,14,7,Jits_ISO_8,6,9999,9999,9999,1351083132
70,14,7,Jits_ISO_8,7,9999,9999,9999,1351883828
70,14,7,Jits_ISO_8,8,9999,9999,9999,1352683616
70,14,7,Jits_ISO_8,9,9999,9999,9999,1353483336
70,14,7,Jits_ISO_8,10,9999,9999,9999,1354283064
70,14,7,Jits_ISO_8,11,9999,9999,9999,1355083892
70,14,7,Jits_ISO_8,12,9999,9999,9999,1355883616
70,14,7,Jits_ISO_8,13,9999,9999,9999,1356683340
70,14,7,Jits_ISO_8,14,9999,9999,9999,1357483112
70,14,7,Jits_ISO_8,15,9999,9999,9999,1358283852
70,14,7,Jits_ISO_8,16,9999,9999,9999,1359083624
70,14,7,Jits_ISO_8,17,9999,9999,9999,1359883372
70,14,7,Jits_ISO_8,18,9999,9999,9999,1360683088
70,14,7,Jits_ISO_8,19,9999,9999,9999,1361483856
70,14,7,Jits_ISO_8,20,9999,9999,9999,1362283640
70,14,7,Jits_ISO_8,21,9999,9999,9999,1363083348
70,14,7,Jits_ISO_8,22,9999,9999,9999,1363883064
70,14,7,Jits_ISO_8,23,9999,9999,9999,1364683896
70,14,7,Jits_ISO_8,24,9999,9999,9999,1365483600
70,14,7,Jits_ISO_8,25,9999,9999,9999,1366283328
70,14,7,Jits_ISO_8,26,9999,9999,9999,1367083112
70,14,7,Jits_ISO_8,27,9999,9999,9999,1367883864
70,14,7,Jits_ISO_8,28,9999,9999,9999,1368683588
70,14,7,Jits_ISO_8,29,9999,9999,9999,1369483316
70,14,7,Jits_ISO_8,30,9999,9999,9999,1370283072
70,14,7,Jits_ISO_8,31,9999,9999,9999,1371083900
70,14,7,Jits_ISO_8,32,9999,9999,9999,1371883620
70,14,7,Jits_ISO_8,33,9999,9999,9999,1372683364
70,14,7,Jits_ISO_8,34,9999,9999,9999,1373483088
70,14,7,Jits_ISO_8,35,9999,9999,9999,1374283852
70,14,7,Jits_ISO_8,36,9999,9999,9999,1375083644
70,14,7,Jits_ISO_8,37,9999,9999,9999,1375883360
70,14,7,Jits_ISO_8,38,9999,9999,9999,1376683072
70,14,7,Jits_ISO_8,39,9999,9999,9999,1377483844
70,14,7,Jits_ISO_8,40,9999,9999,9999,1378283632
70,14,7,Jits_ISO_8,41,9999,9999,9999,1379083364
70,14,7,Jits_ISO_8,42,9999,9999,9999,1379883068
70,14,7,Jits_ISO_8,43,9999,9999,9999,1380683828
70,14,7,Jits_ISO_8,44,9999,9999,9999,1381483596
70,14,7,Jits_ISO_8,45,9999,9999,9999,1382283380
70,14,7,Jits_ISO_8,46,9999,9999,9999,1383083092
70,14,7,Jits_ISO_8,47,9999,9999,9999,1383883852
70,14,7,Jits_ISO_8,48,9999,9999,9999,1384683580
70,14,7,Jits_ISO_8,49,9999,9999,9999,1385483380
70,14,7,Jits_ISO_8,50,9999,9999,9999,1386283084
70,14,7,Jits_ISO_8,51,9999,9999,9999,1387083840
70,14,7,Jits_ISO_8,52,9999,9999,9999,1387883640
70,14,7,Jits_ISO_8,53,9999,9999,9999,1388683368
70,14,7,Jits_ISO_8,54,9999,9999,9999,1389483088
70,14,7,Jits_ISO_8,55,9999,9999,9999,1390283860
70,14,7,Jits_ISO_8,56,9999,9999,9999,1391083640
70,14,7,Jits_ISO_8,57,9999,9999,9999,1391883376
70,14,7,Jits_ISO_8,58,9999,9999,9999,1392683104
70,14,7,Jits_ISO_8,59,9999,9999,9999,1393483868
70,14,7,Jits_ISO_8,60,9999,9999,9999,1394283588
70,14,7,Jits_ISO_8,61,9999,9999,9999,1395083316
70,14,7,Jits_ISO_8,62,9999,9999,9999,1395883112
70,14,7,Jits_ISO_8,63,9999,9999,9999,1396683856
70,14,7,Jits_ISO_8,64,9999,9999,9999,1397483584
70,14,7,Jits_ISO_8,65,9999,9999,9999,1398283320
70,14,7,Jits_ISO_8,66,9999,9999,9999,1399083124
70,14,7,Jits_ISO_8,67,9999,9999,9999,1399883884
70,14,7,Jits_ISO_8,68,9999,9999,9999,1400683596
70,14,7,Jits_ISO_8,69,9999,9999,9999,1401483320
70,14,7,Jits_ISO_8,70,9999,9999,9999,1402283112
70,14,7,Jits_ISO_8,71,9999,9999,9999,1403083876
70,14,7,Jits_ISO_8,72,9999,9999,9999,1403883588
70,14,7,Jits_ISO_8,73,9999,9999,9999,1404683336
70,14,7,Jits_ISO_8,74,9999,9999,9999,1405483068
70,14,7,Jits_ISO_8,75,9999,9999,9999,1406283828
70,14,7,Jits_ISO_8,76,9999,9999,9999,1407083620
70,14,7,Jits_ISO_8,77,9999,9999,9999,1407883320
70,14,7,Jits_ISO_8,78,9999,9999,9999,1408683116
70,14,7,Jits_ISO_8,79,9999,9999,9999,1409483880
70,14,7,Jits_ISO_8,80,9999,9999,9999,1410283604
70,14,7,Jits_ISO_8,81,9999,9999,9999,1411083332
70,14,7,Jits_ISO_8,82,9999,9999,9999,1411883120
70,14,7,Jits_ISO_8,83,9999,9999,9999,1412683868
70,14,7,Jits_ISO_8,84,9999,9999,9999,1413483588
70,14,7,Jits_ISO_8,85,9999,9999,9999,1414283388
70,14,7,Jits_ISO_8,86,9999,9999,9999,1415083112
70,14,7,Jits_ISO_8,87,9999,9999,9999,1415883864
70,14,7,Jits_ISO_8,88,9999,9999,9999,1416683644
70,14,7,Jits_ISO_8,89,9999,9999,9999,1417483384
70,14,7,Jits_ISO_8,90,9999,9999,9999,1418283104
70,14,7,Jits_ISO_8,91,9999,9999,9999,1419083856
70,14,7,Jits_ISO_8,92,9999,9999,9999,1419883632
70,14,7,Jits_ISO_8,93,9999,9999,9999,1420683336
70,14,7,Jits_ISO_8,94,9999,9999,9999,1421483120
70,14,7,Jits_ISO_8,95,9999,9999,9999,1422283872
70,14,7,Jits_ISO_8,96,9999,9999,9999,1423083584
70,14,7,Jits_ISO_8,97,9999,9999,9999,1423883320
70,14,7,Jits_ISO_8,98,9999,9999,9999,1424683120
70,14,7,Jits_ISO_8,99,9999,9999,9999,1425483880
70,14,7,Jits_ISO_8,100,9999,9999,9999,1426283580
70,14,7,Jits_ISO_8,101,9999,9999,9999,1427083368
70,14,7,Jits_ISO_8,102,9999,9999,9999,1427883068
70,14,7,Jits_ISO_8,103,9999,9999,9999,1428683824
70,14,7,Jits_ISO_8,104,9999,9999,9999,1429483624
70,14,7,Jits_ISO_8,105,9999,9999,9999,1430283364
70,14,7,Jits_ISO_8,106,9999,9999,9999,1431083064
70,14,7,Jits_ISO_8,107,9999,9999,9999,1431883876
70,14,7,Jits_ISO_8,108,9999,9999,9999,1432683588
70,14,7,Jits_ISO_8,109,9999,9999,9999,1433483364
70,14,7,Jits_ISO_8,110,9999,9999,9999,1434283092
70,14,7,Jits_ISO_8,111,9999,9999,9999,1435083852
70,14,7,Jits_ISO_8,112,9999,9999,9999,1435883644
70,14,7,Jits_ISO_8,113,9999,9999,9999,1436683320
70,14,7,Jits_ISO_8,114,9999,9999,9999,1437483112
70,14,7,Jits_ISO_8,115,9999,9999,9999,1438283864
70,14,7,Jits_ISO_8,116,9999,9999,9999,1439083596
70,14,7,Jits_ISO_8,117,9999,9999,9999,1439883324
70,14,7,Jits_ISO_8,118,9999,9999,9999,1440683124
70,14,7,Jits_ISO_8,119,9999,9999,9999,1441483888
70,15,16,Jits_ISO_5,0,5,56,103,1449685716
70,15,16,Jits_ISO_5,1,5,63,98,1449688736
70,15,16,Jits_ISO_5,2,5,80,127,1449691780
70,15,16,Jits_ISO_5,0,5,56,103,1450184984
70,15,16,Jits_ISO_5,1,5,63,98,1450188380
70,15,16,Jits_ISO_5,2,5,80,127,1450191424
70,15,16,Jits_ISO_5,3,1,48,45,1450387476
70,15,16,Jits_ISO_5,0,5,56,103,1450684728
70,15,16,Jits_ISO_5,1,5,80,127,1450695148
70,15,16,Jits_ISO_5,2,5,63,98,1450714408
70,15,16,Jits_ISO_5,3,1,48,27,1450740592
70,15,16,Jits_ISO_5,0,5,63,98,1451135628
70,15,16,Jits_ISO_5,1,5,80,127,1451165004
70,15,16,Jits_ISO_5,2,5,56,103,1451175500
70,15,16,Jits_ISO_5,3,1,48,36,1451197724
70,15,16,Jits_ISO_5,0,1,48,32,1451665896
70,15,16,Jits_ISO_5,1,5,80,127,1451694540
70,15,16,Jits_ISO_5,2,5,56,103,1451704588
70,15,16,Jits_ISO_5,3,5,63,98,1451735456
70,15,16,Jits_ISO_5,0,5,63,98,1452184996
70,15,16,Jits_ISO_5,1,5,56,103,1452214672
70,15,16,Jits_ISO_5,2,1,48,35,1452221004
70,15,16,Jits_ISO_5,3,5,80,127,1452224784
70,15,16,Jits_ISO_5,0,5,56,103,1452634464
70,15,16,Jits_ISO_5,1,5,63,98,1452684592
70,15,16,Jits_ISO_5,2,5,80,127,1452705420
70,15,16,Jits_ISO_5,3,1,48,33,1452738952
70,15,16,Jits_ISO_5,0,5,80,127,1453135480
70,15,16,Jits_ISO_5,1,5,63,98,1453185532
70,15,16,Jits_ISO_5,2,1,48,32,1453210748
70,15,16,Jits_ISO_5,3,5,56,103,1453225312
70,15,16,Jits_ISO_5,0,5,56,103,1453634856
70,15,16,Jits_ISO_5,1,5,63,98,1453664604
70,15,16,Jits_ISO_5,2,1,48,39,1453695964
70,15,16,Jits_ISO_5,3,5,80,127,1453735544
70,15,16,Jits_ISO_5,0,5,56,103,1454134676
70,15,16,Jits_ISO_5,1,1,48,43,1454166416
70,15,16,Jits_ISO_5,2,5,80,127,1454195432
70,15,16,Jits_ISO_5,3,5,63,98,1454224732
70,15,16,Jits_ISO_5,0,5,56,103,1454644616
70,15,16,Jits_ISO_5,1,5,63,98,1454654884
70,15,16,Jits_ISO_5,2,1,48,41,1454680104
70,15,16,Jits_ISO_5,3,5,80,127,1454694740
70,15,16,Jits_ISO_5,0,5,63,98,1455135368
70,15,16,Jits_ISO_5,1,1,48,38,1455150472
70,15,16,Jits_ISO_5,2,5,80,127,1455214856
70,15,16,Jits_ISO_5,3,5,56,103,1455225276
70,15,16,Jits_ISO_5,0,5,63,98,1455685076
70,15,16,Jits_ISO_5,1,1,48,40,1455690360
70,15,16,Jits_ISO_5,2,5,56,103,1455724928
70,15,16,Jits_ISO_5,3,5,80,127,1455728144
70,15,16,Jits_ISO_5,0,5,56,103,1456144648
70,15,16,Jits_ISO_5,1,5,63,98,1456155216
70,15,16,Jits_ISO_5,2,5,80,127,1456194856
70,15,16,Jits_ISO_5,3,1,48,37,1456217380
70,15,16,Jits_ISO_5,0,5,56,103,1456635444
70,15,16,Jits_ISO_5,1,5,63,98,1456638436
70,15,16,Jits_ISO_5,2,5,80,127,1456654560
70,15,16,Jits_ISO_5,3,1,48,39,1456682536
70,15,16,Jits_ISO_5,0,5,80,127,1457145416
70,15,16,Jits_ISO_5,1,5,56,103,1457154444
70,15,16,Jits_ISO_5,2,1,48,43,1457179808
70,15,16,Jits_ISO_5,3,5,63,98,1457225160
70,15,16,Jits_ISO_5,0,5,63,98,1457634532
70,15,16,Jits_ISO_5,1,5,56,103,1457655288
70,15,16,Jits_ISO_5,2,1,48,41,1457688996
70,15,16,Jits_ISO_5,3,5,80,127,1457735168
70,15,16,Jits_ISO_5,0,5,56,103,1458144600
70,15,16,Jits_ISO_5,1,1,48,36,1458150640
70,15,16,Jits_ISO_5,2,5,80,127,1458184560
70,15,16,Jits_ISO_5,3,5,63,98,1458194680
70,15,16,Jits_ISO_5,0,5,80,127,1458635432
70,15,16,Jits_ISO_5,1,5,63,98,1458664808
70,15,16,Jits_ISO_5,2,1,48,40,1458686012
70,15,16,Jits_ISO_5,3,5,56,103,1458704612
70,15,16,Jits_ISO_5,0,5,56,103,1459155252
70,15,16,Jits_ISO_5,1,5,63,98,1459184924
70,15,16,Jits_ISO_5,2,1,48,37,1459214520
70,15,16,Jits_ISO_5,3,5,80,127,1459235288
70,15,16,Jits_ISO_5,0,5,80,127,1459655224
70,15,16,Jits_ISO_5,1,5,56,103,1459694936
70,15,16,Jits_ISO_5,2,1,48,38,1459701568
70,15,16,Jits_ISO_5,3,5,63,98,1459705348
70,15,16,Jits_ISO_5,0,5,80,127,1460135464
70,15,16,Jits_ISO_5,1,5,63,98,1460175328
70,15,16,Jits_ISO_5,2,1,48,38,1460182356
70,15,16,Jits_ISO_5,3,5,56,103,1460234612
70,15,16,Jits_ISO_5,0,5,56,103,1460635212
70,15,16,Jits_ISO_5,1,5,80,127,1460645408
70,15,16,Jits_ISO_5,2,1,48,38,1460681860
70,15,16,Jits_ISO_5,3,5,63,98,1460725192
70,15,16,Jits_ISO_5,0,5,80,127,1461134732
70,15,16,Jits_ISO_5,1,1,48,38,1461166020
70,15,16,Jits_ISO_5,2,5,63,98,1461195264
70,15,16,Jits_ISO_5,3,5,56,103,1461224716
70,15,16,Jits_ISO_5,0,5,56,103,1461634556
70,15,16,Jits_ISO_5,1,5,80,127,1461694796
70,15,16,Jits_ISO_5,2,1,48,38,1461701656
70,15,16,Jits_ISO_5,3,5,63,98,1461734724
70,15,16,Jits_ISO_5,0,1,48,35,1462178024
70,15,16,Jits_ISO_5,1,5,56,103,1462185316
70,15,16,Jits_ISO_5,2,5,63,98,1462194536
70,15,16,Jits_ISO_5,3,5,80,127,1462197752
70,15,16,Jits_ISO_5,0,5,80,127,1462634928
70,15,16,Jits_ISO_5,1,1,48,37,1462689212
70,15,16,Jits_ISO_5,2,5,63,98,1462724904
70,15,16,Jits_ISO_5,3,5,56,103,1462735100
70,15,16,Jits_ISO_5,0,5,56,103,1463134512
70,15,16,Jits_ISO_5,1,5,63,98,1463137608
70,15,16,Jits_ISO_5,2,5,80,127,1463140732
70,15,16,Jits_ISO_5,3,1,48,36,1463198392
70,15,16,Jits_ISO_5,0,5,80,127,1463654852
70,15,16,Jits_ISO_5,1,1,48,33,1463674756
70,15,16,Jits_ISO_5,2,5,63,98,1463705196
70,15,16,Jits_ISO_5,3,5,56,103,1463734644
70,15,16,Jits_ISO_5,0,5,56,103,1464135120
70,15,16,Jits_ISO_5,1,5,80,127,1464145392
70,15,16,Jits_ISO_5,2,1,48,36,1464189860
70,15,16,Jits_ISO_5,3,5,63,98,1464214916
70,15,16,Jits_ISO_5,0,5,56,103,1464645132
70,15,16,Jits_ISO_5,1,5,63,98,1464664396
70,15,16,Jits_ISO_5,2,1,48,34,1464669236
70,15,16,Jits_ISO_5,3,5,80,127,1464724924
70,15,16,Jits_ISO_5,0,5,80,127,1465134540
70,15,16,Jits_ISO_5,1,1,48,36,1465186584
70,15,16,Jits_ISO_5,2,5,63,98,1465205408
70,15,16,Jits_ISO_5,3,5,56,103,1465224524
70,15,16,Jits_ISO_5,0,5,80,127,1465654668
70,15,16,Jits_ISO_5,1,5,56,103,1465664864
70,15,16,Jits_ISO_5,2,5,63,98,1465675208
70,15,16,Jits_ISO_5,3,1,48,33,1465680052
70,15,16,Jits_ISO_5,0,5,80,127,1466145272
70,15,16,Jits_ISO_5,1,5,56,103,1466164612
70,15,16,Jits_ISO_5,2,1,48,34,1466175296
70,15,16,Jits_ISO_5,3,5,63,98,1466235180
70,15,16,Jits_ISO_5,0,5,56,103,1466655284
70,15,16,Jits_ISO_5,1,1,48,30,1466661544
70,15,16,Jits_ISO_5,2,5,80,127,1466684656
70,15,16,Jits_ISO_5,3,5,63,98,1466705264
70,15,16,Jits_ISO_5,0,5,63,98,1467144548
70,15,16,Jits_ISO_5,1,1,48,29,1467151480
70,15,16,Jits_ISO_5,2,5,56,103,1467205152
70,15,16,Jits_ISO_5,3,5,80,127,1467234604
70,15,16,Jits_ISO_5,0,5,63,98,1467635040
70,15,16,Jits_ISO_5,1,5,80,127,1467638404
70,15,16,Jits_ISO_5,2,1,48,31,1467679836
70,15,16,Jits_ISO_5,3,5,56,103,1467725260
70,15,16,Jits_ISO_5,0,5,56,103,1468155220
70,15,16,Jits_ISO_5,1,1,48,37,1468172188
70,15,16,Jits_ISO_5,2,5,63,98,1468185036
70,15,16,Jits_ISO_5,3,5,80,127,1468224748
70,15,16,Jits_ISO_5,0,5,63,98,1468655164
70,15,16,Jits_ISO_5,1,1,48,30,1468676296
70,15,16,Jits_ISO_5,2,5,56,103,1468694972
70,15,16,Jits_ISO_5,3,5,80,127,1468715356
70,15,16,Jits_ISO_5,0,5,63,98,1469165088
70,15,16,Jits_ISO_5,1,1,48,33,1469167176
70,15,16,Jits_ISO_5,2,5,56,103,1469204972
70,15,16,Jits_ISO_5,3,5,80,127,1469215240
70,15,16,Jits_ISO_5,0,5,80,127,1469645040
70,15,16,Jits_ISO_5,1,1,48,29,1469702036
70,15,16,Jits_ISO_5,2,5,63,98,1469714888
70,15,16,Jits_ISO_5,3,5,56,103,1469735272
70,15,16,Jits_ISO_5,0,5,56,103,1470134824
70,15,16,Jits_ISO_5,1,5,80,127,1470155208
70,15,16,Jits_ISO_5,2,5,63,98,1470195068
70,15,16,Jits_ISO_5,3,1,48,35,1470213504
70,15,16,Jits_ISO_5,0,5,63,98,1470644536
70,15,16,Jits_ISO_5,1,5,80,127,1470665144
70,15,16,Jits_ISO_5,2,1,48,27,1470666332
70,15,16,Jits_ISO_5,3,5,56,103,1470705076
70,15,16,Jits_ISO_5,0,5,63,98,1471145316
70,15,16,Jits_ISO_5,1,5,56,103,1471164728
70,15,16,Jits_ISO_5,2,1,48,33,1471166212
70,15,16,Jits_ISO_5,3,5,80,127,1471174992
70,15,16,Jits_ISO_5,0,5,80,127,1471645120
70,15,16,Jits_ISO_5,1,1,48,32,1471661200
70,15,16,Jits_ISO_5,2,5,56,103,1471664380
70,15,16,Jits_ISO_5,3,5,63,98,1471695172
70,15,16,Jits_ISO_5,0,1,48,29,1472151940
70,15,16,Jits_ISO_5,1,5,56,103,1472215432
70,15,16,Jits_ISO_5,2,5,80,127,1472218352
70,15,16,Jits_ISO_5,3,5,63,98,1472235068
70,15,16,Jits_ISO_5,0,5,63,98,1472635380
70,15,16,Jits_ISO_5,1,5,56,103,1472665128
70,15,16,Jits_ISO_5,2,1,48,32,1472707952
70,15,16,Jits_ISO_5,3,5,80,127,1472725360
70,15,16,Jits_ISO_5,0,1,48,34,1473199052
70,15,16,Jits_ISO_5,1,5,63,98,1473215116
70,15,16,Jits_ISO_5,2,5,56,103,1473225168
70,15,16,Jits_ISO_5,3,5,80,127,1473235360
70,15,16,Jits_ISO_5,0,5,56,103,1473665272
70,15,16,Jits_ISO_5,1,5,80,127,1473695020
70,15,16,Jits_ISO_5,2,5,63,98,1473705216
70,15,16,Jits_ISO_5,3,1,48,37,1473744372
70,15,16,Jits_ISO_5,0,5,63,98,1474205028
70,15,16,Jits_ISO_5,1,5,56,103,1474215148
70,15,16,Jits_ISO_5,2,1,48,30,1474223964
70,15,16,Jits_ISO_5,3,5,80,127,1474234924
70,15,16,Jits_ISO_5,0,5,56,103,1474635092
70,15,16,Jits_ISO_5,1,5,63,98,1474694804
70,15,16,Jits_ISO_5,2,5,80,127,1474697944
70,15,16,Jits_ISO_5,3,1,48,32,1474733140
70,15,16,Jits_ISO_5,0,5,80,127,1475155428
70,15,16,Jits_ISO_5,1,5,56,103,1475164500
70,15,16,Jits_ISO_5,2,1,48,29,1475216468
70,15,16,Jits_ISO_5,3,5,63,98,1475235216
70,15,16,Jits_ISO_5,0,5,80,127,1475644836
70,15,16,Jits_ISO_5,1,1,48,29,1475712624
70,15,16,Jits_ISO_5,2,5,56,103,1475714360
70,15,16,Jits_ISO_5,3,5,63,98,1475724628
70,15,16,Jits_ISO_5,0,5,63,98,1476184292
70,15,16,Jits_ISO_5,1,5,56,103,1476194636
70,15,16,Jits_ISO_5,2,5,80,127,1476215092
70,15,16,Jits_ISO_5,3,1,48,29,1476216060
70,15,16,Jits_ISO_5,0,5,80,127,1476635024
70,15,16,Jits_ISO_5,1,5,63,98,1476695488
70,15,16,Jits_ISO_5,2,1,48,31,1476720856
70,15,16,Jits_ISO_5,3,5,56,103,1476735268
70,15,16,Jits_ISO_5,0,5,56,103,1477174856
70,15,16,Jits_ISO_5,1,5,63,98,1477184904
70,15,16,Jits_ISO_5,2,1,48,26,1477197464
70,15,16,Jits_ISO_5,3,5,80,127,1477224984
70,15,16,Jits_ISO_5,0,5,56,103,1477634376
70,15,16,Jits_ISO_5,1,5,80,127,1477665024
70,15,16,Jits_ISO_5,2,1,48,32,1477685076
70,15,16,Jits_ISO_5,3,5,63,98,1477715216
70,15,16,Jits_ISO_5,0,1,48,29,1478136908
70,15,16,Jits_ISO_5,1,5,56,103,1478175168
70,15,16,Jits_ISO_5,2,5,63,98,1478214876
70,15,16,Jits_ISO_5,3,5,80,127,1478218172
70,15,16,Jits_ISO_5,0,1,48,29,1478657488
70,15,16,Jits_ISO_5,1,5,56,103,1478674972
70,15,16,Jits_ISO_5,2,5,63,98,1478685016
70,15,16,Jits_ISO_5,3,5,80,127,1478704428
70,15,16,Jits_ISO_5,0,5,56,103,1479134444
70,15,16,Jits_ISO_5,1,5,80,127,1479137592
70,15,16,Jits_ISO_5,2,1,48,27,1479170920
70,15,16,Jits_ISO_5,3,5,63,98,1479174776
70,15,16,Jits_ISO_5,0,1,48,28,1479671904
70,15,16,Jits_ISO_5,1,5,63,98,1479675184
70,15,16,Jits_ISO_5,2,5,56,103,1479705008
70,15,16,Jits_ISO_5,3,5,80,127,1479725316
70,15,16,Jits_ISO_5,0,5,80,127,1480145308
70,15,16,Jits_ISO_5,1,5,56,103,1480154460
70,15,16,Jits_ISO_5,2,1,48,31,1480159744
70,15,16,Jits_ISO_5,3,5,63,98,1480164944
70,15,16,Jits_ISO_5,0,1,48,32,1480644444
70,15,16,Jits_ISO_5,1,5,56,103,1480646160
70,15,16,Jits_ISO_5,2,5,80,127,1480685052
70,15,16,Jits_ISO_5,3,5,63,98,1480714676
70,15,16,Jits_ISO_5,0,1,48,32,1481154596
70,15,16,Jits_ISO_5,1,5,63,98,1481156008
70,15,16,Jits_ISO_5,2,5,80,127,1481165084
70,15,16,Jits_ISO_5,3,5,56,103,1481175356
70,15,16,Jits_ISO_5,0,5,56,103,1481635068
70,15,16,Jits_ISO_5,1,1,48,33,1481690772
70,15,16,Jits_ISO_5,2,5,63,98,1481704892
70,15,16,Jits_ISO_5,3,5,80,127,1481714936
70,15,16,Jits_ISO_5,0,5,80,127,1482135040
70,15,16,Jits_ISO_5,1,5,56,103,1482145236
70,15,16,Jits_ISO_5,2,1,48,30,1482172712
70,15,16,Jits_ISO_5,3,5,63,98,1482195276
70,15,16,Jits_ISO_5,0,5,80,127,1482644972
70,15,16,Jits_ISO_5,1,1,48,35,1482645936
70,15,16,Jits_ISO_5,2,5,56,103,1482705280
70,15,16,Jits_ISO_5,3,5,63,98,1482735028
70,15,16,Jits_ISO_5,0,5,56,103,1483144644
70,15,16,Jits_ISO_5,1,5,80,127,1483147488
70,15,16,Jits_ISO_5,2,1,48,40,1483182760
70,15,16,Jits_ISO_5,3,5,63,98,1483184424
70,15,16,Jits_ISO_5,0,5,56,103,1483674948
70,15,16,Jits_ISO_5,1,1,48,36,1483704548
70,15,16,Jits_ISO_5,2,5,63,98,1483705960
70,15,16,Jits_ISO_5,3,5,80,127,1483714888
70,15,16,Jits_ISO_5,0,5,63,98,1484185036
70,15,16,Jits_ISO_5,1,5,80,127,1484195084
70,15,16,Jits_ISO_5,2,5,56,103,1484205280
70,15,16,Jits_ISO_5,3,1,48,40,1484207292
70,15,16,Jits_ISO_5,0,5,80,127,1484634428
70,15,16,Jits_ISO_5,1,1,48,39,1484684772
70,15,16,Jits_ISO_5,2,5,56,103,1484686208
70,15,16,Jits_ISO_5,3,5,63,98,1484688880
70,15,16,Jits_ISO_5,0,5,56,103,1485165028
70,15,16,Jits_ISO_5,1,1,48,36,1485173100
70,15,16,Jits_ISO_5,2,5,80,127,1485185408
70,15,16,Jits_ISO_5,3,5,63,98,1485194776
70,15,16,Jits_ISO_5,0,5,63,98,1485645144
70,15,16,Jits_ISO_5,1,5,56,103,1485674892
70,15,16,Jits_ISO_5,2,1,48,39,1485685884
70,15,16,Jits_ISO_5,3,5,80,127,1485695344
70,15,16,Jits_ISO_5,0,5,56,103,1486155064
70,15,16,Jits_ISO_5,1,5,80,127,1486165260
70,15,16,Jits_ISO_5,2,1,48,35,1486184264
70,15,16,Jits_ISO_5,3,5,63,98,1486234928
70,15,16,Jits_ISO_5,0,5,63,98,1486644624
70,15,16,Jits_ISO_5,1,1,48,40,1486668268
70,15,16,Jits_ISO_5,2,5,80,127,1486684700
70,15,16,Jits_ISO_5,3,5,56,103,1486724564
70,15,16,Jits_ISO_5,0,5,56,103,1487154544
70,15,16,Jits_ISO_5,1,1,48,43,1487155508
70,15,16,Jits_ISO_5,2,5,63,98,1487164736
70,15,16,Jits_ISO_5,3,5,80,127,1487185192
70,15,16,Jits_ISO_5,0,1,48,38,1487648336
70,15,16,Jits_ISO_5,1,5,63,98,1487695116
70,15,16,Jits_ISO_5,2,5,80,127,1487714828
70,15,16,Jits_ISO_5,3,5,56,103,1487735136
70,15,16,Jits_ISO_5,0,5,56,103,1488134700
70,15,16,Jits_ISO_5,1,1,48,38,1488172516
70,15,16,Jits_ISO_5,2,5,80,127,1488215684
70,15,16,Jits_ISO_5,3,5,63,98,1488224760
70,15,16,Jits_ISO_5,0,5,80,127,1488675056
70,15,16,Jits_ISO_5,1,5,63,98,1488685400
70,15,16,Jits_ISO_5,2,1,48,41,1488713792
70,15,16,Jits_ISO_5,3,5,56,103,1488715216
70,15,16,Jits_ISO_5,0,5,63,98,1489134924
70,15,16,Jits_ISO_5,1,5,80,127,1489174812
70,15,16,Jits_ISO_5,2,1,48,40,1489215540
70,15,16,Jits_ISO_5,3,5,56,103,1489235264
70,15,16,Jits_ISO_5,0,5,63,98,1489644916
70,15,16,Jits_ISO_5,1,5,56,103,1489695068
70,15,16,Jits_ISO_5,2,1,48,37,1489696784
70,15,16,Jits_ISO_5,3,5,80,127,1489724660
70,15,16,Jits_ISO_5,0,5,80,127,1490154912
70,15,16,Jits_ISO_5,1,5,63,98,1490165332
70,15,16,Jits_ISO_5,2,1,48,35,1490210796
70,15,16,Jits_ISO_5,3,5,56,103,1490234804
70,15,16,Jits_ISO_5,0,1,48,35,1490721252
70,15,16,Jits_ISO_5,1,5,80,127,1490725108
70,15,16,Jits_ISO_5,2,5,56,103,1490734476
70,15,16,Jits_ISO_5,3,5,63,98,1490737616
70,15,16,Jits_ISO_5,0,5,56,103,1491164652
70,15,16,Jits_ISO_5,1,5,80,127,1491185036
70,15,16,Jits_ISO_5,2,5,63,98,1491195404
70,15,16,Jits_ISO_5,3,1,48,32,1491254636
70,15,16,Jits_ISO_5,0,5,63,98,1491674516
70,15,16,Jits_ISO_5,1,1,48,40,1491701152
70,15,16,Jits_ISO_5,2,5,56,103,1491714544
70,15,16,Jits_ISO_5,3,5,80,127,1491734780
70,15,16,Jits_ISO_5,0,5,63,98,1492175072
70,15,16,Jits_ISO_5,1,1,48,37,1492220020
70,15,16,Jits_ISO_5,2,5,56,103,1492234732
70,15,16,Jits_ISO_5,3,5,80,127,1492237724
70,15,16,Jits_ISO_5,0,5,56,103,1492634944
70,15,16,Jits_ISO_5,1,5,80,127,1492654580
70,15,16,Jits_ISO_5,2,5,63,98,1492695340
70,15,16,Jits_ISO_5,3,1,48,35,1492713672
70,15,16,Jits_ISO_5,0,5,56,103,1493165704
70,15,16,Jits_ISO_5,1,1,48,28,1493183612
70,15,16,Jits_ISO_5,2,5,63,98,1493185108
70,15,16,Jits_ISO_5,3,5,80,127,1493195080
70,15,16,Jits_ISO_5,0,5,80,127,1493634660
70,15,16,Jits_ISO_5,1,5,56,103,1493665160
70,15,16,Jits_ISO_5,2,1,48,26,1493684764
70,15,16,Jits_ISO_5,3,5,63,98,1493705016
70,15,16,Jits_ISO_5,0,5,80,127,1494145420
70,15,16,Jits_ISO_5,1,5,56,103,1494164832
70,15,16,Jits_ISO_5,2,1,48,30,1494180084
70,15,16,Jits_ISO_5,3,5,63,98,1494225140
70,15,16,Jits_ISO_5,0,5,56,103,1494655508
70,15,16,Jits_ISO_5,1,5,80,127,1494674696
70,15,16,Jits_ISO_5,2,1,48,29,1494680504
70,15,16,Jits_ISO_5,3,5,63,98,1494735300
70,15,16,Jits_ISO_5,0,5,80,127,1495134728
70,15,16,Jits_ISO_5,1,5,56,103,1495144776
70,15,16,Jits_ISO_5,2,1,48,28,1495166104
70,15,16,Jits_ISO_5,3,5,63,98,1495184780
70,15,16,Jits_ISO_5,0,5,63,98,1495635368
70,15,16,Jits_ISO_5,1,1,48,25,1495671296
70,15,16,Jits_ISO_5,2,5,56,103,1495675224
70,15,16,Jits_ISO_5,3,5,80,127,1495678660
70,15,16,Jits_ISO_5,0,1,48,37,1496140144
70,15,16,Jits_ISO_5,1,5,63,98,1496154560
70,15,16,Jits_ISO_5,2,5,80,127,1496194648
70,15,16,Jits_ISO_5,3,5,56,103,1496225148
70,15,16,Jits_ISO_5,0,5,56,103,1496644940
70,15,16,Jits_ISO_5,1,5,63,98,1496655356
70,15,16,Jits_ISO_5,2,5,80,127,1496684884
70,15,16,Jits_ISO_5,3,1,48,40,1496698560
70,15,16,Jits_ISO_5,0,5,80,127,1497134644
70,15,16,Jits_ISO_5,1,1,48,38,1497193508
70,15,16,Jits_ISO_5,2,5,63,98,1497204992
70,15,16,Jits_ISO_5,3,5,56,103,1497215632
70,15,16,Jits_ISO_5,0,5,63,98,1497635288
70,15,16,Jits_ISO_5,1,1,48,31,1497688156
70,15,16,Jits_ISO_5,2,5,56,103,1497704812
70,15,16,Jits_ISO_5,3,5,80,127,1497715156
70,15,16,Jits_ISO_5,0,5,63,98,1498134944
70,15,16,Jits_ISO_5,1,5,56,103,1498155628
70,15,16,Jits_ISO_5,2,1,48,29,1498156668
70,15,16,Jits_ISO_5,3,5,80,127,1498195408
70,15,16,Jits_ISO_5,0,1,48,28,1498636592
70,15,16,Jits_ISO_5,1,5,56,103,1498644784
70,15,16,Jits_ISO_5,2,5,63,98,1498655052
70,15,16,Jits_ISO_5,3,5,80,127,1498736024
70,15,16,Jits_ISO_5,0,5,63,98,1499135532
70,15,16,Jits_ISO_5,1,1,48,31,1499158656
70,15,16,Jits_ISO_5,2,5,56,103,1499165052
70,15,16,Jits_ISO_5,3,5,80,127,1499205060
70,15,16,Jits_ISO_5,0,5,56,103,1499635092
70,15,16,Jits_ISO_5,1,1,48,29,1499666032
70,15,16,Jits_ISO_5,2,5,63,98,1499675124
70,15,16,Jits_ISO_5,3,5,80,127,1499715132
70,15,16,Jits_ISO_5,0,5,80,127,1500134764
70,15,16,Jits_ISO_5,1,1,48,27,1500174700
70,15,16,Jits_ISO_5,2,5,56,103,1500214580
70,15,16,Jits_ISO_5,3,5,63,98,1500224848
70,15,16,Jits_ISO_5,0,5,56,103,1500674472
70,15,16,Jits_ISO_5,1,5,63,98,1500677540
70,15,16,Jits_ISO_5,2,1,48,27,1500682544
70,15,16,Jits_ISO_5,3,5,80,127,1500684584
70,15,16,Jits_ISO_5,0,5,56,103,1501194740
70,15,16,Jits_ISO_5,1,1,48,27,1501197036
70,15,16,Jits_ISO_5,2,5,63,98,1501215040
70,15,16,Jits_ISO_5,3,5,80,127,1501225608
70,15,16,Jits_ISO_5,0,5,63,98,1501655504
70,15,16,Jits_ISO_5,1,5,80,127,1501664656
70,15,16,Jits_ISO_5,2,5,56,103,1501685040
70,15,16,Jits_ISO_5,3,1,48,27,1501720988
70,15,16,Jits_ISO_5,0,5,63,98,1502155088
70,15,16,Jits_ISO_5,1,1,48,32,1502184512
70,15,16,Jits_ISO_5,2,5,56,103,1502235428
70,15,16,Jits_ISO_5,3,5,80,127,1502238116
70,15,16,Jits_ISO_5,0,5,63,98,1502654896
70,15,16,Jits_ISO_5,1,1,48,34,1502671864
70,15,16,Jits_ISO_5,2,5,56,103,1502675496
70,15,16,Jits_ISO_5,3,5,80,127,1502705020
70,15,16,Jits_ISO_5,0,5,56,103,1503154704
70,15,16,Jits_ISO_5,1,1,48,32,1503168456
70,15,16,Jits_ISO_5,2,5,63,98,1503174932
70,15,16,Jits_ISO_5,3,5,80,127,1503185352
70,15,16,Jits_ISO_5,0,1,48,32,1503665884
70,15,16,Jits_ISO_5,1,5,56,103,1503684864
70,15,16,Jits_ISO_5,2,5,63,98,1503714612
70,15,16,Jits_ISO_5,3,5,80,127,1503717976
70,15,16,Jits_ISO_5,0,5,56,103,1504134408
70,15,16,Jits_ISO_5,1,5,63,98,1504174420
70,15,16,Jits_ISO_5,2,1,48,35,1504184512
70,15,16,Jits_ISO_5,3,5,80,127,1504234872
70,15,16,Jits_ISO_5,0,5,56,103,1504654680
70,15,16,Jits_ISO_5,1,5,63,98,1504664876
70,15,16,Jits_ISO_5,2,1,48,35,1504671284
70,15,16,Jits_ISO_5,3,5,80,127,1504725480
70,15,16,Jits_ISO_5,0,5,56,103,1505154504
70,15,16,Jits_ISO_5,1,5,80,127,1505174888
70,15,16,Jits_ISO_5,2,1,48,29,1505181148
70,15,16,Jits_ISO_5,3,5,63,98,1505204628
70,15,16,Jits_ISO_5,0,5,80,127,1505655296
70,15,16,Jits_ISO_5,1,5,56,103,1505665568
70,15,16,Jits_ISO_5,2,5,63,98,1505684756
70,15,16,Jits_ISO_5,3,1,48,30,1505689896
70,15,16,Jits_ISO_5,0,5,63,98,1506144560
70,15,16,Jits_ISO_5,1,1,48,31,1506217500
70,15,16,Jits_ISO_5,2,5,80,127,1506224568
70,15,16,Jits_ISO_5,3,5,56,103,1506234764
70,15,16,Jits_ISO_5,0,1,48,27,1506674528
70,15,16,Jits_ISO_5,1,5,80,127,1506704672
70,15,16,Jits_ISO_5,2,5,56,103,1506725352
70,15,16,Jits_ISO_5,3,5,63,98,1506728272
70,15,16,Jits_ISO_5,0,1,48,29,1507145640
70,15,16,Jits_ISO_5,1,5,63,98,1507174732
70,15,16,Jits_ISO_5,2,5,80,127,1507178244
70,15,16,Jits_ISO_5,3,5,56,103,1507235344
70,15,16,Jits_ISO_5,0,5,56,103,1507654992
70,15,16,Jits_ISO_5,1,5,80,127,1507665260
70,15,16,Jits_ISO_5,2,1,48,32,1507677744
70,15,16,Jits_ISO_5,3,5,63,98,1507705188
70,15,16,Jits_ISO_5,0,5,56,103,1508135404
70,15,16,Jits_ISO_5,1,1,48,33,1508178380
70,15,16,Jits_ISO_5,2,5,63,98,1508194740
70,15,16,Jits_ISO_5,3,5,80,127,1508204788
70,15,16,Jits_ISO_5,0,5,63,98,1508645340
70,15,16,Jits_ISO_5,1,1,48,34,1508652888
70,15,16,Jits_ISO_5,2,5,80,127,1508685420
70,15,16,Jits_ISO_5,3,5,56,103,1508724984
70,15,16,Jits_ISO_5,0,5,56,103,1509144852
70,15,16,Jits_ISO_5,1,1,48,30,1509173452
70,15,16,Jits_ISO_5,2,5,63,98,1509224708
70,15,16,Jits_ISO_5,3,5,80,127,1509228076
70,15,16,Jits_ISO_5,0,9999,9999,9999,1449932916
70,15,16,Jits_ISO_5,1,9999,9999,9999,1450432624
70,15,16,Jits_ISO_5,2,9999,9999,9999,1450932288
70,15,16,Jits_ISO_5,3,9999,9999,9999,1451433080
70,15,16,Jits_ISO_5,4,9999,9999,9999,1451932744
70,15,16,Jits_ISO_5,5,9999,9999,9999,1452432480
70,15,16,Jits_ISO_5,6,9999,9999,9999,1452932212
70,15,16,Jits_ISO_5,7,9999,9999,9999,1453432936
70,15,16,Jits_ISO_5,8,9999,9999,9999,1453932608
70,15,16,Jits_ISO_5,9,9999,9999,9999,1454432356
70,15,16,Jits_ISO_5,10,9999,9999,9999,1454933076
70,15,16,Jits_ISO_5,11,9999,9999,9999,1455432824
70,15,16,Jits_ISO_5,12,9999,9999,9999,1455932476
70,15,16,Jits_ISO_5,13,9999,9999,9999,1456432212
70,15,16,Jits_ISO_5,14,9999,9999,9999,1456932960
70,15,16,Jits_ISO_5,15,9999,9999,9999,1457432632
70,15,16,Jits_ISO_5,16,9999,9999,9999,1457932384
70,15,16,Jits_ISO_5,17,9999,9999,9999,1458432116
70,15,16,Jits_ISO_5,18,9999,9999,9999,1458932808
70,15,16,Jits_ISO_5,19,9999,9999,9999,1459432552
70,15,16,Jits_ISO_5,20,9999,9999,9999,1459932276
70,15,16,Jits_ISO_5,21,9999,9999,9999,1460432992
70,15,16,Jits_ISO_5,22,9999,9999,9999,1460932664
70,15,16,Jits_ISO_5,23,9999,9999,9999,1461432412
70,15,16,Jits_ISO_5,24,9999,9999,9999,1461932084
70,15,16,Jits_ISO_5,25,9999,9999,9999,1462432872
70,15,16,Jits_ISO_5,26,9999,9999,9999,1462932532
70,15,16,Jits_ISO_5,27,9999,9999,9999,1463432256
70,15,16,Jits_ISO_5,28,9999,9999,9999,1463932980
70,15,16,Jits_ISO_5,29,9999,9999,9999,1464432724
70,15,16,Jits_ISO_5,30,9999,9999,9999,1464932472
70,15,16,Jits_ISO_5,31,9999,9999,9999,1465432148
70,15,16,Jits_ISO_5,32,9999,9999,9999,1465932868
70,15,16,Jits_ISO_5,33,9999,9999,9999,1466432612
70,15,16,Jits_ISO_5,34,9999,9999,9999,1466932288
70,15,16,Jits_ISO_5,35,9999,9999,9999,1467433008
70,15,16,Jits_ISO_5,36,9999,9999,9999,1467932736
70,15,16,Jits_ISO_5,37,9999,9999,9999,1468432448
70,15,16,Jits_ISO_5,38,9999,9999,9999,1468932192
70,15,16,Jits_ISO_5,39,9999,9999,9999,1469432952
70,15,16,Jits_ISO_5,40,9999,9999,9999,1469932608
70,15,16,Jits_ISO_5,41,9999,9999,9999,1470432352
70,15,16,Jits_ISO_5,42,9999,9999,9999,1470933072
70,15,16,Jits_ISO_5,43,9999,9999,9999,1471432800
70,15,16,Jits_ISO_5,44,9999,9999,9999,1471932532
70,15,16,Jits_ISO_5,45,9999,9999,9999,1472432204
70,15,16,Jits_ISO_5,46,9999,9999,9999,1472932980
70,15,16,Jits_ISO_5,47,9999,9999,9999,1473432648
70,15,16,Jits_ISO_5,48,9999,9999,9999,1473932384
70,15,16,Jits_ISO_5,49,9999,9999,9999,1474432064
70,15,16,Jits_ISO_5,50,9999,9999,9999,1474932832
70,15,16,Jits_ISO_5,51,9999,9999,9999,1475432504
70,15,16,Jits_ISO_5,52,9999,9999,9999,1475932252
70,15,16,Jits_ISO_5,53,9999,9999,9999,1476432972
70,15,16,Jits_ISO_5,54,9999,9999,9999,1476932704
70,15,16,Jits_ISO_5,55,9999,9999,9999,1477432380
70,15,16,Jits_ISO_5,56,9999,9999,9999,1477932128
70,15,16,Jits_ISO_5,57,9999,9999,9999,1478432840
70,15,16,Jits_ISO_5,58,9999,9999,9999,1478932576
70,15,16,Jits_ISO_5,59,9999,9999,9999,1479432292
70,15,16,Jits_ISO_5,60,9999,9999,9999,1479933012
70,15,16,Jits_ISO_5,61,9999,9999,9999,1480432720
70,15,16,Jits_ISO_5,62,9999,9999,9999,1480932460
70,15,16,Jits_ISO_5,63,9999,9999,9999,1481432120
70,15,16,Jits_ISO_5,64,9999,9999,9999,1481932896
70,15,16,Jits_ISO_5,65,9999,9999,9999,1482432564
70,15,16,Jits_ISO_5,66,9999,9999,9999,1482932312
70,15,16,Jits_ISO_5,67,9999,9999,9999,1483433020
70,15,16,Jits_ISO_5,68,9999,9999,9999,1483932772
70,15,16,Jits_ISO_5,69,9999,9999,9999,1484432444
70,15,16,Jits_ISO_5,70,9999,9999,9999,1484932168
70,15,16,Jits_ISO_5,71,9999,9999,9999,1485432888
70,15,16,Jits_ISO_5,72,9999,9999,9999,1485932632
70,15,16,Jits_ISO_5,73,9999,9999,9999,1486432364
70,15,16,Jits_ISO_5,74,9999,9999,9999,1486933084
70,15,16,Jits_ISO_5,75,9999,9999,9999,1487432816
70,15,16,Jits_ISO_5,76,9999,9999,9999,1487932496
70,15,16,Jits_ISO_5,77,9999,9999,9999,1488432232
70,15,16,Jits_ISO_5,78,9999,9999,9999,1488932952
70,15,16,Jits_ISO_5,79,9999,9999,9999,1489432700
70,15,16,Jits_ISO_5,80,9999,9999,9999,1489932360
70,15,16,Jits_ISO_5,81,9999,9999,9999,1490432092
70,15,16,Jits_ISO_5,82,9999,9999,9999,1490932856
70,15,16,Jits_ISO_5,83,9999,9999,9999,1491432512
70,15,16,Jits_ISO_5,84,9999,9999,9999,1491932264
70,15,16,Jits_ISO_5,85,9999,9999,9999,1492432964
70,15,16,Jits_ISO_5,86,9999,9999,9999,1492932692
70,15,16,Jits_ISO_5,87,9999,9999,9999,1493432440
70,15,16,Jits_ISO_5,88,9999,9999,9999,1493932116
70,15,16,Jits_ISO_5,89,9999,9999,9999,1494432836
70,15,16,Jits_ISO_5,90,9999,9999,9999,1494932584
70,15,16,Jits_ISO_5,91,9999,9999,9999,1495432256
70,15,16,Jits_ISO_5,92,9999,9999,9999,1495933036
70,15,16,Jits_ISO_5,93,9999,9999,9999,1496432692
70,15,16,Jits_ISO_5,94,9999,9999,9999,1496932424
70,15,16,Jits_ISO_5,95,9999,9999,9999,1497432172
70,15,16,Jits_ISO_5,96,9999,9999,9999,1497932892
70,15,16,Jits_ISO_5,97,9999,9999,9999,1498432620
70,15,16,Jits_ISO_5,98,9999,9999,9999,1498932280
70,15,16,Jits_ISO_5,99,9999,9999,9999,1499433060
70,15,16,Jits_ISO_5,100,9999,9999,9999,1499932796
70,15,16,Jits_ISO_5,101,9999,9999,9999,1500432472
70,15,16,Jits_ISO_5,102,9999,9999,9999,1500932208
70,15,16,Jits_ISO_5,103,9999,9999,9999,1501432936
70,15,16,Jits_ISO_5,104,9999,9999,9999,1501932656
70,15,16,Jits_ISO_5,105,9999,9999,9999,1502432312
70,15,16,Jits_ISO_5,106,9999,9999,9999,1502933092
70,15,16,Jits_ISO_5,107,9999,9999,9999,1503432828
70,15,16,Jits_ISO_5,108,9999,9999,9999,1503932500
70,15,16,Jits_ISO_5,109,9999,9999,9999,1504432236
70,15,16,Jits_ISO_5,110,9999,9999,9999,1504932952
70,15,16,Jits_ISO_5,111,9999,9999,9999,1505432624
70,15,16,Jits_ISO_5,112,9999,9999,9999,1505932376
70,15,16,Jits_ISO_5,113,9999,9999,9999,1506432048
70,15,16,Jits_ISO_5,114,9999,9999,9999,1506932828
70,15,16,Jits_ISO_5,115,9999,9999,9999,1507432556
70,15,16,Jits_ISO_5,116,9999,9999,9999,1507932216
70,15,16,Jits_ISO_5,117,9999,9999,9999,1508433008
70,15,16,Jits_ISO_5,118,9999,9999,9999,1508932684
70,15,16,Jits_ISO_5,119,9999,9999,9999,1509432408
70,16,18,Jits_Linear_8,0,5,56,103,1520201088
70,16,18,Jits_Linear_8,1,5,63,98,1520204184
70,16,18,Jits_Linear_8,2,5,80,127,1520207232
70,16,18,Jits_Linear_8,0,1,48,21,1520779952
70,16,18,Jits_Linear_8,1,5,56,103,1521021300
70,16,18,Jits_Linear_8,2,5,63,98,1521024324
70,16,18,Jits_Linear_8,3,5,80,127,1521027524
70,16,18,Jits_Linear_8,0,5,80,127,1521781136
70,16,18,Jits_Linear_8,1,1,48,35,1521790036
70,16,18,Jits_Linear_8,2,5,63,98,1521871192
70,16,18,Jits_Linear_8,3,5,56,103,1521880564
70,16,18,Jits_Linear_8,0,5,56,103,1522620764
70,16,18,Jits_Linear_8,1,5,63,98,1522630888
70,16,18,Jits_Linear_8,2,1,48,37,1522655508
70,16,18,Jits_Linear_8,3,5,80,127,1522721184
70,16,18,Jits_Linear_8,0,1,48,39,1523389488
70,16,18,Jits_Linear_8,1,5,63,98,1523411236
70,16,18,Jits_Linear_8,2,5,80,127,1523441060
70,16,18,Jits_Linear_8,3,5,56,103,1523470688
70,16,18,Jits_Linear_8,0,1,48,40,1524160612
70,16,18,Jits_Linear_8,1,5,56,103,1524230488
70,16,18,Jits_Linear_8,2,5,80,127,1524330800
70,16,18,Jits_Linear_8,3,5,63,98,1524381000
70,16,18,Jits_Linear_8,0,5,56,103,1525040512
70,16,18,Jits_Linear_8,1,1,48,35,1525064680
70,16,18,Jits_Linear_8,2,5,80,127,1525090784
70,16,18,Jits_Linear_8,3,5,63,98,1525130648
70,16,18,Jits_Linear_8,0,5,80,127,1525881184
70,16,18,Jits_Linear_8,1,1,48,35,1525899220
70,16,18,Jits_Linear_8,2,5,63,98,1525911080
70,16,18,Jits_Linear_8,3,5,56,103,1525980464
70,16,18,Jits_Linear_8,0,5,63,98,1526720816
70,16,18,Jits_Linear_8,1,5,56,103,1526750568
70,16,18,Jits_Linear_8,2,1,48,35,1526751980
70,16,18,Jits_Linear_8,3,5,80,127,1526811048
70,16,18,Jits_Linear_8,0,5,56,103,1527470372
70,16,18,Jits_Linear_8,1,5,80,127,1527473440
70,16,18,Jits_Linear_8,2,1,48,36,1527562296
70,16,18,Jits_Linear_8,3,5,63,98,1527591240
70,16,18,Jits_Linear_8,0,1,48,32,1528313880
70,16,18,Jits_Linear_8,1,5,56,103,1528351068
70,16,18,Jits_Linear_8,2,5,80,127,1528390932
70,16,18,Jits_Linear_8,3,5,63,98,1528401204
70,16,18,Jits_Linear_8,0,5,56,103,1529111048
70,16,18,Jits_Linear_8,1,5,80,127,1529131360
70,16,18,Jits_Linear_8,2,1,48,32,1529143916
70,16,18,Jits_Linear_8,3,5,63,98,1529211224
70,16,18,Jits_Linear_8,0,5,80,127,1529901452
70,16,18,Jits_Linear_8,1,1,48,32,1529956716
70,16,18,Jits_Linear_8,2,5,56,103,1530000876
70,16,18,Jits_Linear_8,3,5,63,98,1530011144
70,16,18,Jits_Linear_8,0,5,63,98,1530670436
70,16,18,Jits_Linear_8,1,5,80,127,1530730976
70,16,18,Jits_Linear_8,2,5,56,103,1530741100
70,16,18,Jits_Linear_8,3,1,48,31,1530801976
70,16,18,Jits_Linear_8,0,5,56,103,1531471160
70,16,18,Jits_Linear_8,1,1,48,35,1531506716
70,16,18,Jits_Linear_8,2,5,63,98,1531540984
70,16,18,Jits_Linear_8,3,5,80,127,1531544272
70,16,18,Jits_Linear_8,0,1,48,29,1532283172
70,16,18,Jits_Linear_8,1,5,63,98,1532300804
70,16,18,Jits_Linear_8,2,5,56,103,1532350856
70,16,18,Jits_Linear_8,3,5,80,127,1532353852
70,16,18,Jits_Linear_8,0,5,56,103,1533051256
70,16,18,Jits_Linear_8,1,5,80,127,1533054172
70,16,18,Jits_Linear_8,2,1,48,28,1533120380
70,16,18,Jits_Linear_8,3,5,63,98,1533141308
70,16,18,Jits_Linear_8,0,1,48,28,1533872188
70,16,18,Jits_Linear_8,1,5,63,98,1533880900
70,16,18,Jits_Linear_8,2,5,56,103,1533970676
70,16,18,Jits_Linear_8,3,5,80,127,1534000500
70,16,18,Jits_Linear_8,0,5,56,103,1534660964
70,16,18,Jits_Linear_8,1,5,63,98,1534761312
70,16,18,Jits_Linear_8,2,1,48,30,1534770584
70,16,18,Jits_Linear_8,3,5,80,127,1534790984
70,16,18,Jits_Linear_8,0,5,63,98,1535471004
70,16,18,Jits_Linear_8,1,5,56,103,1535481076
70,16,18,Jits_Linear_8,2,1,48,27,1535563832
70,16,18,Jits_Linear_8,3,5,80,127,1535571276
70,16,18,Jits_Linear_8,0,1,48,23,1536248268
70,16,18,Jits_Linear_8,1,5,63,98,1536270780
70,16,18,Jits_Linear_8,2,5,56,103,1536350784
70,16,18,Jits_Linear_8,3,5,80,127,1536353776
70,16,18,Jits_Linear_8,0,5,80,127,1537011172
70,16,18,Jits_Linear_8,1,5,63,98,1537030688
70,16,18,Jits_Linear_8,2,1,48,22,1537054628
70,16,18,Jits_Linear_8,3,5,56,103,1537090920
70,16,18,Jits_Linear_8,0,5,56,103,1537831420
70,16,18,Jits_Linear_8,1,1,48,21,1537836484
70,16,18,Jits_Linear_8,2,5,63,98,1537850676
70,16,18,Jits_Linear_8,3,5,80,127,1537854040
70,16,18,Jits_Linear_8,0,5,63,98,1538551212
70,16,18,Jits_Linear_8,1,1,48,22,1538612700
70,16,18,Jits_Linear_8,2,5,80,127,1538630932
70,16,18,Jits_Linear_8,3,5,56,103,1538641128
70,16,18,Jits_Linear_8,0,1,48,20,1539345760
70,16,18,Jits_Linear_8,1,5,63,98,1539350960
70,16,18,Jits_Linear_8,2,5,56,103,1539371496
70,16,18,Jits_Linear_8,3,5,80,127,1539420576
70,16,18,Jits_Linear_8,0,5,80,127,1540131312
70,16,18,Jits_Linear_8,1,1,48,25,1540150472
70,16,18,Jits_Linear_8,2,5,63,98,1540171096
70,16,18,Jits_Linear_8,3,5,56,103,1540190808
70,16,18,Jits_Linear_8,0,5,56,103,1540941048
70,16,18,Jits_Linear_8,1,1,48,24,1540950416
70,16,18,Jits_Linear_8,2,5,63,98,1540952056
70,16,18,Jits_Linear_8,3,5,80,127,1540970948
70,16,18,Jits_Linear_8,0,5,56,103,1541640792
70,16,18,Jits_Linear_8,1,5,63,98,1541730632
70,16,18,Jits_Linear_8,2,1,48,21,1541754500
70,16,18,Jits_Linear_8,3,5,80,127,1541791016
70,16,18,Jits_Linear_8,0,5,80,127,1542441536
70,16,18,Jits_Linear_8,1,5,56,103,1542450836
70,16,18,Jits_Linear_8,2,1,48,24,1542461300
70,16,18,Jits_Linear_8,3,5,63,98,1542521332
70,16,18,Jits_Linear_8,0,1,48,20,1543210928
70,16,18,Jits_Linear_8,1,5,63,98,1543240924
70,16,18,Jits_Linear_8,2,5,80,127,1543331196
70,16,18,Jits_Linear_8,3,5,56,103,1543341688
70,16,18,Jits_Linear_8,0,5,63,98,1543940744
70,16,18,Jits_Linear_8,1,5,80,127,1543990652
70,16,18,Jits_Linear_8,2,1,48,22,1544049836
70,16,18,Jits_Linear_8,3,5,56,103,1544051256
70,16,18,Jits_Linear_8,0,5,56,103,1544730984
70,16,18,Jits_Linear_8,1,5,80,127,1544781184
70,16,18,Jits_Linear_8,2,1,48,22,1544788640
70,16,18,Jits_Linear_8,3,5,63,98,1544800592
70,16,18,Jits_Linear_8,0,5,56,103,1545461048
70,16,18,Jits_Linear_8,1,1,48,25,1545517504
70,16,18,Jits_Linear_8,2,5,80,127,1545520684
70,16,18,Jits_Linear_8,3,5,63,98,1545591116
70,16,18,Jits_Linear_8,0,5,56,103,1546220856
70,16,18,Jits_Linear_8,1,5,80,127,1546250632
70,16,18,Jits_Linear_8,2,5,63,98,1546281504
70,16,18,Jits_Linear_8,3,1,48,25,1546288308
70,16,18,Jits_Linear_8,0,1,48,23,1547008856
70,16,18,Jits_Linear_8,1,5,56,103,1547020640
70,16,18,Jits_Linear_8,2,5,80,127,1547041100
70,16,18,Jits_Linear_8,3,5,63,98,1547100592
70,16,18,Jits_Linear_8,0,1,48,20,1547781560
70,16,18,Jits_Linear_8,1,5,80,127,1547861600
70,16,18,Jits_Linear_8,2,5,56,103,1547870600
70,16,18,Jits_Linear_8,3,5,63,98,1547880856
70,16,18,Jits_Linear_8,0,5,56,103,1548570944
70,16,18,Jits_Linear_8,1,5,80,127,1548611032
70,16,18,Jits_Linear_8,2,1,48,20,1548636404
70,16,18,Jits_Linear_8,3,5,63,98,1548640776
70,16,18,Jits_Linear_8,0,5,56,103,1549290828
70,16,18,Jits_Linear_8,1,5,63,98,1549320604
70,16,18,Jits_Linear_8,2,5,80,127,1549360468
70,16,18,Jits_Linear_8,3,1,48,21,1549412364
70,16,18,Jits_Linear_8,0,5,80,127,1549991552
70,16,18,Jits_Linear_8,1,5,63,98,1550040484
70,16,18,Jits_Linear_8,2,5,56,103,1550061020
70,16,18,Jits_Linear_8,3,1,48,20,1550081768
70,16,18,Jits_Linear_8,0,5,56,103,1550770568
70,16,18,Jits_Linear_8,1,1,48,23,1550791000
70,16,18,Jits_Linear_8,2,5,80,127,1550841240
70,16,18,Jits_Linear_8,3,5,63,98,1550900568
70,16,18,Jits_Linear_8,0,5,80,127,1551510780
70,16,18,Jits_Linear_8,1,1,48,21,1551583048
70,16,18,Jits_Linear_8,2,5,63,98,1551601060
70,16,18,Jits_Linear_8,3,5,56,103,1551620496
70,16,18,Jits_Linear_8,0,5,63,98,1552270620
70,16,18,Jits_Linear_8,1,5,56,103,1552291380
70,16,18,Jits_Linear_8,2,5,80,127,1552331168
70,16,18,Jits_Linear_8,3,1,48,21,1552344924
70,16,18,Jits_Linear_8,0,5,80,127,1552971104
70,16,18,Jits_Linear_8,1,5,63,98,1552990592
70,16,18,Jits_Linear_8,2,1,48,24,1553039864
70,16,18,Jits_Linear_8,3,5,56,103,1553070528
70,16,18,Jits_Linear_8,0,5,63,98,1553701268
70,16,18,Jits_Linear_8,1,1,48,23,1553732712
70,16,18,Jits_Linear_8,2,5,56,103,1553810728
70,16,18,Jits_Linear_8,3,5,80,127,1553813720
70,16,18,Jits_Linear_8,0,5,63,98,1554461156
70,16,18,Jits_Linear_8,1,5,56,103,1554471424
70,16,18,Jits_Linear_8,2,5,80,127,1554474416
70,16,18,Jits_Linear_8,3,1,48,23,1554493420
70,16,18,Jits_Linear_8,0,1,48,21,1555180556
70,16,18,Jits_Linear_8,1,5,56,103,1555182044
70,16,18,Jits_Linear_8,2,5,80,127,1555300740
70,16,18,Jits_Linear_8,3,5,63,98,1555340604
70,16,18,Jits_Linear_8,0,5,56,103,1555930420
70,16,18,Jits_Linear_8,1,1,48,21,1555990284
70,16,18,Jits_Linear_8,2,5,80,127,1556011508
70,16,18,Jits_Linear_8,3,5,63,98,1556030772
70,16,18,Jits_Linear_8,0,5,56,103,1556660592
70,16,18,Jits_Linear_8,1,1,48,21,1556742556
70,16,18,Jits_Linear_8,2,5,63,98,1556771348
70,16,18,Jits_Linear_8,3,5,80,127,1556774560
70,16,18,Jits_Linear_8,0,5,56,103,1557421396
70,16,18,Jits_Linear_8,1,1,48,17,1557429092
70,16,18,Jits_Linear_8,2,5,80,127,1557451216
70,16,18,Jits_Linear_8,3,5,63,98,1557470552
70,16,18,Jits_Linear_8,0,5,63,98,1558131036
70,16,18,Jits_Linear_8,1,5,56,103,1558141236
70,16,18,Jits_Linear_8,2,5,80,127,1558150608
70,16,18,Jits_Linear_8,3,1,48,22,1558173880
70,16,18,Jits_Linear_8,0,5,80,127,1558840660
70,16,18,Jits_Linear_8,1,1,48,18,1558885588
70,16,18,Jits_Linear_8,2,5,56,103,1558890932
70,16,18,Jits_Linear_8,3,5,63,98,1558930948
70,16,18,Jits_Linear_8,0,5,80,127,1559581168
70,16,18,Jits_Linear_8,1,5,63,98,1559600432
70,16,18,Jits_Linear_8,2,1,48,22,1559642660
70,16,18,Jits_Linear_8,3,5,56,103,1559650552
70,16,18,Jits_Linear_8,0,5,80,127,1560321304
70,16,18,Jits_Linear_8,1,5,56,103,1560351128
70,16,18,Jits_Linear_8,2,1,48,22,1560373280
70,16,18,Jits_Linear_8,3,5,63,98,1560420728
70,16,18,Jits_Linear_8,0,5,56,103,1561090360
70,16,18,Jits_Linear_8,1,5,80,127,1561100780
70,16,18,Jits_Linear_8,2,1,48,22,1561117156
70,16,18,Jits_Linear_8,3,5,63,98,1561140564
70,16,18,Jits_Linear_8,0,5,56,103,1561721232
70,16,18,Jits_Linear_8,1,5,63,98,1561740796
70,16,18,Jits_Linear_8,2,5,80,127,1561811448
70,16,18,Jits_Linear_8,3,1,48,23,1561863812
70,16,18,Jits_Linear_8,0,5,63,98,1562460468
70,16,18,Jits_Linear_8,1,1,48,23,1562479476
70,16,18,Jits_Linear_8,2,5,80,127,1562521152
70,16,18,Jits_Linear_8,3,5,56,103,1562541312
70,16,18,Jits_Linear_8,0,5,80,127,1563161028
70,16,18,Jits_Linear_8,1,5,56,103,1563190628
70,16,18,Jits_Linear_8,2,1,48,24,1563210680
70,16,18,Jits_Linear_8,3,5,63,98,1563221416
70,16,18,Jits_Linear_8,0,5,56,103,1563870564
70,16,18,Jits_Linear_8,1,1,48,24,1563926824
70,16,18,Jits_Linear_8,2,5,63,98,1563931272
70,16,18,Jits_Linear_8,3,5,80,127,1563991516
70,16,18,Jits_Linear_8,0,5,80,127,1564600736
70,16,18,Jits_Linear_8,1,5,56,103,1564621344
70,16,18,Jits_Linear_8,2,1,48,24,1564641476
70,16,18,Jits_Linear_8,3,5,63,98,1564690744
70,16,18,Jits_Linear_8,0,5,80,127,1565311348
70,16,18,Jits_Linear_8,1,5,63,98,1565330912
70,16,18,Jits_Linear_8,2,5,56,103,1565360440
70,16,18,Jits_Linear_8,3,1,48,22,1565380120
70,16,18,Jits_Linear_8,0,5,80,127,1566000464
70,16,18,Jits_Linear_8,1,5,63,98,1566021000
70,16,18,Jits_Linear_8,2,5,56,103,1566081316
70,16,18,Jits_Linear_8,3,1,48,22,1566102720
70,16,18,Jits_Linear_8,0,5,80,127,1566701088
70,16,18,Jits_Linear_8,1,1,48,24,1566738016
70,16,18,Jits_Linear_8,2,5,56,103,1566801208
70,16,18,Jits_Linear_8,3,5,63,98,1566831108
70,16,18,Jits_Linear_8,0,5,63,98,1567391256
70,16,18,Jits_Linear_8,1,5,80,127,1567441388
70,16,18,Jits_Linear_8,2,5,56,103,1567460728
70,16,18,Jits_Linear_8,3,1,48,21,1567510996
70,16,18,Jits_Linear_8,0,5,80,127,1568130408
70,16,18,Jits_Linear_8,1,5,56,103,1568161204
70,16,18,Jits_Linear_8,2,5,63,98,1568164120
70,16,18,Jits_Linear_8,3,1,48,24,1568175484
70,16,18,Jits_Linear_8,0,5,63,98,1568860488
70,16,18,Jits_Linear_8,1,1,48,23,1568890504
70,16,18,Jits_Linear_8,2,5,56,103,1568900420
70,16,18,Jits_Linear_8,3,5,80,127,1568921104
70,16,18,Jits_Linear_8,0,5,80,127,1569500564
70,16,18,Jits_Linear_8,1,5,63,98,1569581508
70,16,18,Jits_Linear_8,2,1,48,23,1569596312
70,16,18,Jits_Linear_8,3,5,56,103,1569621440
70,16,18,Jits_Linear_8,0,5,63,98,1570211108
70,16,18,Jits_Linear_8,1,5,80,127,1570291132
70,16,18,Jits_Linear_8,2,1,48,21,1570301176
70,16,18,Jits_Linear_8,3,5,56,103,1570310416
70,16,18,Jits_Linear_8,0,5,56,103,1570941276
70,16,18,Jits_Linear_8,1,5,63,98,1570950500
70,16,18,Jits_Linear_8,2,5,80,127,1570990588
70,16,18,Jits_Linear_8,3,1,48,21,1570997524
70,16,18,Jits_Linear_8,0,5,56,103,1571550504
70,16,18,Jits_Linear_8,1,5,80,127,1571553496
70,16,18,Jits_Linear_8,2,1,48,19,1571676804
70,16,18,Jits_Linear_8,3,5,63,98,1571691220
70,16,18,Jits_Linear_8,0,5,56,103,1572230396
70,16,18,Jits_Linear_8,1,5,63,98,1572320608
70,16,18,Jits_Linear_8,2,1,48,26,1572384808
70,16,18,Jits_Linear_8,3,5,80,127,1572391276
70,16,18,Jits_Linear_8,0,5,63,98,1572991288
70,16,18,Jits_Linear_8,1,5,80,127,1572994652
70,16,18,Jits_Linear_8,2,5,56,103,1573050852
70,16,18,Jits_Linear_8,3,1,48,23,1573060944
70,16,18,Jits_Linear_8,0,5,80,127,1573711320
70,16,18,Jits_Linear_8,1,5,56,103,1573730588
70,16,18,Jits_Linear_8,2,1,48,24,1573732524
70,16,18,Jits_Linear_8,3,5,63,98,1573741000
70,16,18,Jits_Linear_8,0,5,56,103,1574300996
70,16,18,Jits_Linear_8,1,5,63,98,1574311340
70,16,18,Jits_Linear_8,2,5,80,127,1574381096
70,16,18,Jits_Linear_8,3,1,48,24,1574396376
70,16,18,Jits_Linear_8,0,5,80,127,1574981116
70,16,18,Jits_Linear_8,1,5,56,103,1575031020
70,16,18,Jits_Linear_8,2,1,48,23,1575040884
70,16,18,Jits_Linear_8,3,5,63,98,1575081288
70,16,18,Jits_Linear_8,0,1,48,24,1575718964
70,16,18,Jits_Linear_8,1,5,56,103,1575740876
70,16,18,Jits_Linear_8,2,5,63,98,1575751148
70,16,18,Jits_Linear_8,3,5,80,127,1575791084
70,16,18,Jits_Linear_8,0,5,56,103,1576361260
70,16,18,Jits_Linear_8,1,5,63,98,1576401200
70,16,18,Jits_Linear_8,2,1,48,23,1576445472
70,16,18,Jits_Linear_8,3,5,80,127,1576450376
70,16,18,Jits_Linear_8,0,5,80,127,1576990964
70,16,18,Jits_Linear_8,1,5,56,103,1577041244
70,16,18,Jits_Linear_8,2,5,63,98,1577060804
70,16,18,Jits_Linear_8,3,1,48,24,1577127596
70,16,18,Jits_Linear_8,0,5,80,127,1577671056
70,16,18,Jits_Linear_8,1,5,63,98,1577730504
70,16,18,Jits_Linear_8,2,1,48,23,1577743356
70,16,18,Jits_Linear_8,3,5,56,103,1577811264
70,16,18,Jits_Linear_8,0,5,80,127,1578321212
70,16,18,Jits_Linear_8,1,5,56,103,1578361152
70,16,18,Jits_Linear_8,2,5,63,98,1578380864
70,16,18,Jits_Linear_8,3,1,48,25,1578428568
70,16,18,Jits_Linear_8,0,5,56,103,1579041116
70,16,18,Jits_Linear_8,1,5,80,127,1579051388
70,16,18,Jits_Linear_8,2,1,48,23,1579055924
70,16,18,Jits_Linear_8,3,5,63,98,1579091244
70,16,18,Jits_Linear_8,0,1,48,26,1579751976
70,16,18,Jits_Linear_8,1,5,56,103,1579771280
70,16,18,Jits_Linear_8,2,5,63,98,1579811216
70,16,18,Jits_Linear_8,3,5,80,127,1579814508
70,16,18,Jits_Linear_8,0,5,63,98,1580321228
70,16,18,Jits_Linear_8,1,5,80,127,1580361096
70,16,18,Jits_Linear_8,2,5,56,103,1580430704
70,16,18,Jits_Linear_8,3,1,48,24,1580453976
70,16,18,Jits_Linear_8,0,5,63,98,1580971268
70,16,18,Jits_Linear_8,1,5,56,103,1581051164
70,16,18,Jits_Linear_8,2,5,80,127,1581110808
70,16,18,Jits_Linear_8,3,1,48,26,1581120000
70,16,18,Jits_Linear_8,0,5,80,127,1581641112
70,16,18,Jits_Linear_8,1,5,63,98,1581691240
70,16,18,Jits_Linear_8,2,1,48,26,1581702456
70,16,18,Jits_Linear_8,3,5,56,103,1581720984
70,16,18,Jits_Linear_8,0,5,56,103,1582291240
70,16,18,Jits_Linear_8,1,1,48,24,1582329604
70,16,18,Jits_Linear_8,2,5,63,98,1582340416
70,16,18,Jits_Linear_8,3,5,80,127,1582350908
70,16,18,Jits_Linear_8,0,5,56,103,1582960944
70,16,18,Jits_Linear_8,1,1,48,23,1582971332
70,16,18,Jits_Linear_8,2,5,63,98,1583070552
70,16,18,Jits_Linear_8,3,5,80,127,1583091220
70,16,18,Jits_Linear_8,0,5,63,98,1583611392
70,16,18,Jits_Linear_8,1,5,80,127,1583661372
70,16,18,Jits_Linear_8,2,1,48,24,1583685092
70,16,18,Jits_Linear_8,3,5,56,103,1583750600
70,16,18,Jits_Linear_8,0,5,63,98,1584251320
70,16,18,Jits_Linear_8,1,5,80,127,1584280920
70,16,18,Jits_Linear_8,2,1,48,26,1584358348
70,16,18,Jits_Linear_8,3,5,56,103,1584371196
70,16,18,Jits_Linear_8,0,5,63,98,1584900408
70,16,18,Jits_Linear_8,1,5,56,103,1584910980
70,16,18,Jits_Linear_8,2,1,48,26,1584993884
70,16,18,Jits_Linear_8,3,5,80,127,1585011068
70,16,18,Jits_Linear_8,0,1,48,24,1585621888
70,16,18,Jits_Linear_8,1,5,63,98,1585651136
70,16,18,Jits_Linear_8,2,5,80,127,1585680836
70,16,18,Jits_Linear_8,3,5,56,103,1585710364
70,16,18,Jits_Linear_8,0,5,80,127,1586310584
70,16,18,Jits_Linear_8,1,1,48,26,1586313176
70,16,18,Jits_Linear_8,2,5,63,98,1586320776
70,16,18,Jits_Linear_8,3,5,56,103,1586350524
70,16,18,Jits_Linear_8,0,5,80,127,1586851332
70,16,18,Jits_Linear_8,1,5,63,98,1586870744
70,16,18,Jits_Linear_8,2,5,56,103,1586921020
70,16,18,Jits_Linear_8,3,1,48,27,1586993240
70,16,18,Jits_Linear_8,0,5,63,98,1587520820
70,16,18,Jits_Linear_8,1,5,80,127,1587581284
70,16,18,Jits_Linear_8,2,5,56,103,1587600920
70,16,18,Jits_Linear_8,3,1,48,23,1587617740
70,16,18,Jits_Linear_8,0,5,63,98,1588120884
70,16,18,Jits_Linear_8,1,5,56,103,1588171088
70,16,18,Jits_Linear_8,2,5,80,127,1588181212
70,16,18,Jits_Linear_8,3,1,48,24,1588209132
70,16,18,Jits_Linear_8,0,1,48,26,1588779160
70,16,18,Jits_Linear_8,1,5,56,103,1588790792
70,16,18,Jits_Linear_8,2,5,80,127,1588800840
70,16,18,Jits_Linear_8,3,5,63,98,1588901296
70,16,18,Jits_Linear_8,0,5,80,127,1589390644
70,16,18,Jits_Linear_8,1,5,63,98,1589400992
70,16,18,Jits_Linear_8,2,1,48,27,1589453860
70,16,18,Jits_Linear_8,3,5,56,103,1589550612
70,16,18,Jits_Linear_8,0,5,63,98,1590030832
70,16,18,Jits_Linear_8,1,5,80,127,1590070624
70,16,18,Jits_Linear_8,2,1,48,26,1590140352
70,16,18,Jits_Linear_8,3,5,56,103,1590150636
70,16,18,Jits_Linear_8,0,5,56,103,1590651132
70,16,18,Jits_Linear_8,1,1,48,24,1590746096
70,16,18,Jits_Linear_8,2,5,80,127,1590750848
70,16,18,Jits_Linear_8,3,5,63,98,1590771008
70,16,18,Jits_Linear_8,0,5,80,127,1591341444
70,16,18,Jits_Linear_8,1,5,56,103,1591350816
70,16,18,Jits_Linear_8,2,1,48,25,1591354540
70,16,18,Jits_Linear_8,3,5,63,98,1591440796
70,16,18,Jits_Linear_8,0,5,56,103,1591971276
70,16,18,Jits_Linear_8,1,5,63,98,1591990836
70,16,18,Jits_Linear_8,2,1,48,29,1592003024
70,16,18,Jits_Linear_8,3,5,80,127,1592070648
70,16,18,Jits_Linear_8,0,5,63,98,1592540788
70,16,18,Jits_Linear_8,1,5,56,103,1592630648
70,16,18,Jits_Linear_8,2,5,80,127,1592633716
70,16,18,Jits_Linear_8,3,1,48,31,1592688444
70,16,18,Jits_Linear_8,0,5,56,103,1593190624
70,16,18,Jits_Linear_8,1,5,80,127,1593251312
70,16,18,Jits_Linear_8,2,5,63,98,1593261660
70,16,18,Jits_Linear_8,3,1,48,25,1593300224
70,16,18,Jits_Linear_8,0,5,80,127,1593860712
70,16,18,Jits_Linear_8,1,5,56,103,1593870904
70,16,18,Jits_Linear_8,2,5,63,98,1593873896
70,16,18,Jits_Linear_8,3,1,48,27,1593925264
70,16,18,Jits_Linear_8,0,5,56,103,1594441008
70,16,18,Jits_Linear_8,1,5,80,127,1594451280
70,16,18,Jits_Linear_8,2,5,63,98,1594470764
70,16,18,Jits_Linear_8,3,1,48,30,1594542880
70,16,18,Jits_Linear_8,0,5,63,98,1595030896
70,16,18,Jits_Linear_8,1,5,80,127,1595091288
70,16,18,Jits_Linear_8,2,1,48,24,1595114564
70,16,18,Jits_Linear_8,3,5,56,103,1595140536
70,16,18,Jits_Linear_8,0,5,63,98,1595731164
70,16,18,Jits_Linear_8,1,5,56,103,1595740760
70,16,18,Jits_Linear_8,2,1,48,30,1595753320
70,16,18,Jits_Linear_8,3,5,80,127,1595790808
70,16,18,Jits_Linear_8,0,5,63,98,1596241408
70,16,18,Jits_Linear_8,1,5,80,127,1596260672
70,16,18,Jits_Linear_8,2,5,56,103,1596270940
70,16,18,Jits_Linear_8,3,1,48,21,1596355864
70,16,18,Jits_Linear_8,0,5,63,98,1596850604
70,16,18,Jits_Linear_8,1,5,80,127,1596853972
70,16,18,Jits_Linear_8,2,5,56,103,1596890620
70,16,18,Jits_Linear_8,3,1,48,23,1596905420
70,16,18,Jits_Linear_8,0,1,48,18,1597477616
70,16,18,Jits_Linear_8,1,5,63,98,1597530476
70,16,18,Jits_Linear_8,2,5,80,127,1597561196
70,16,18,Jits_Linear_8,3,5,56,103,1597570496
70,16,18,Jits_Linear_8,0,5,56,103,1598090468
70,16,18,Jits_Linear_8,1,5,80,127,1598121268
70,16,18,Jits_Linear_8,2,1,48,29,1598135844
70,16,18,Jits_Linear_8,3,5,63,98,1598151008
70,16,18,Jits_Linear_8,0,1,48,27,1598739092
70,16,18,Jits_Linear_8,1,5,63,98,1598791032
70,16,18,Jits_Linear_8,2,5,56,103,1598830972
70,16,18,Jits_Linear_8,3,5,80,127,1598833964
70,16,18,Jits_Linear_8,0,5,80,127,1599290788
70,16,18,Jits_Linear_8,1,5,56,103,1599370588
70,16,18,Jits_Linear_8,2,5,63,98,1599420720
70,16,18,Jits_Linear_8,3,1,48,26,1599442120
70,16,18,Jits_Linear_8,0,5,80,127,1599871468
70,16,18,Jits_Linear_8,1,5,56,103,1599890732
70,16,18,Jits_Linear_8,2,5,63,98,1599980868
70,16,18,Jits_Linear_8,3,1,48,27,1600039080
70,16,18,Jits_Linear_8,0,5,80,127,1600511584
70,16,18,Jits_Linear_8,1,5,63,98,1600551672
70,16,18,Jits_Linear_8,2,1,48,23,1600577340
70,16,18,Jits_Linear_8,3,5,56,103,1600591232
70,16,18,Jits_Linear_8,0,5,63,98,1601080804
70,16,18,Jits_Linear_8,1,5,80,127,1601141124
70,16,18,Jits_Linear_8,2,1,48,22,1601154728
70,16,18,Jits_Linear_8,3,5,56,103,1601170940
70,16,18,Jits_Linear_8,0,5,56,103,1601680720
70,16,18,Jits_Linear_8,1,5,80,127,1601710396
70,16,18,Jits_Linear_8,2,1,48,22,1601731348
70,16,18,Jits_Linear_8,3,5,63,98,1601800548
70,16,18,Jits_Linear_8,0,5,56,103,1602280800
70,16,18,Jits_Linear_8,1,1,48,20,1602328212
70,16,18,Jits_Linear_8,2,5,80,127,1602391632
70,16,18,Jits_Linear_8,3,5,63,98,1602421008
70,16,18,Jits_Linear_8,0,5,56,103,1602920848
70,16,18,Jits_Linear_8,1,1,48,24,1602954008
70,16,18,Jits_Linear_8,2,5,63,98,1602981308
70,16,18,Jits_Linear_8,3,5,80,127,1603010908
70,16,18,Jits_Linear_8,0,5,56,103,1603481004
70,16,18,Jits_Linear_8,1,1,48,24,1603547872
70,16,18,Jits_Linear_8,2,5,63,98,1603550532
70,16,18,Jits_Linear_8,3,5,80,127,1603570992
70,16,18,Jits_Linear_8,0,5,80,127,1604040932
70,16,18,Jits_Linear_8,1,5,63,98,1604060644
70,16,18,Jits_Linear_8,2,5,56,103,1604110796
70,16,18,Jits_Linear_8,3,1,48,25,1604144100
70,16,18,Jits_Linear_8,0,5,63,98,1604641484
70,16,18,Jits_Linear_8,1,5,80,127,1604651604
70,16,18,Jits_Linear_8,2,5,56,103,1604700612
70,16,18,Jits_Linear_8,3,1,48,24,1604709056
70,16,18,Jits_Linear_8,0,5,63,98,1605220648
70,16,18,Jits_Linear_8,1,1,48,24,1605287148
70,16,18,Jits_Linear_8,2,5,80,127,1605291372
70,16,18,Jits_Linear_8,3,5,56,103,1605310784
70,16,18,Jits_Linear_8,0,5,63,98,1605830904
70,16,18,Jits_Linear_8,1,5,80,127,1605834496
70,16,18,Jits_Linear_8,2,1,48,24,1605841520
70,16,18,Jits_Linear_8,3,5,56,103,1605900608
70,16,18,Jits_Linear_8,0,5,80,127,1606360392
70,16,18,Jits_Linear_8,1,5,56,103,1606381000
70,16,18,Jits_Linear_8,2,5,63,98,1606391372
70,16,18,Jits_Linear_8,3,1,48,24,1606462440
70,16,18,Jits_Linear_8,0,5,56,103,1606960348
70,16,18,Jits_Linear_8,1,1,48,27,1607003180
70,16,18,Jits_Linear_8,2,5,63,98,1607050552
70,16,18,Jits_Linear_8,3,5,80,127,1607053916
70,16,18,Jits_Linear_8,0,5,80,127,1607511348
70,16,18,Jits_Linear_8,1,5,56,103,1607520572
70,16,18,Jits_Linear_8,2,5,63,98,1607541032
70,16,18,Jits_Linear_8,3,1,48,31,1607572548
70,16,18,Jits_Linear_8,0,5,63,98,1608080632
70,16,18,Jits_Linear_8,1,1,48,38,1608121664
70,16,18,Jits_Linear_8,2,5,80,127,1608141316
70,16,18,Jits_Linear_8,3,5,56,103,1608151588
70,16,18,Jits_Linear_8,0,1,48,28,1608643348
70,16,18,Jits_Linear_8,1,5,63,98,1608720728
70,16,18,Jits_Linear_8,2,5,80,127,1608750388
70,16,18,Jits_Linear_8,3,5,56,103,1608791596
70,16,18,Jits_Linear_8,0,5,56,103,1609280872
70,16,18,Jits_Linear_8,1,5,80,127,1609291368
70,16,18,Jits_Linear_8,2,1,48,35,1609302360
70,16,18,Jits_Linear_8,3,5,63,98,1609330928
70,16,18,Jits_Linear_8,0,5,80,127,1609811280
70,16,18,Jits_Linear_8,1,5,56,103,1609891228
70,16,18,Jits_Linear_8,2,1,48,32,1609895764
70,16,18,Jits_Linear_8,3,5,63,98,1609901564
70,16,18,Jits_Linear_8,0,5,80,127,1610420584
70,16,18,Jits_Linear_8,1,1,48,39,1610477864
70,16,18,Jits_Linear_8,2,5,56,103,1610500472
70,16,18,Jits_Linear_8,3,5,63,98,1610510744
70,16,18,Jits_Linear_8,0,5,80,127,1610940656
70,16,18,Jits_Linear_8,1,5,56,103,1610991156
70,16,18,Jits_Linear_8,2,5,63,98,1611041384
70,16,18,Jits_Linear_8,3,1,48,42,1611044800
70,16,18,Jits_Linear_8,0,5,56,103,1611561296
70,16,18,Jits_Linear_8,1,5,63,98,1611564288
70,16,18,Jits_Linear_8,2,5,80,127,1611610448
70,16,18,Jits_Linear_8,3,1,48,39,1611614692
70,16,18,Jits_Linear_8,0,1,48,36,1612137884
70,16,18,Jits_Linear_8,1,5,56,103,1612140992
70,16,18,Jits_Linear_8,2,5,63,98,1612170520
70,16,18,Jits_Linear_8,3,5,80,127,1612180864
70,16,18,Jits_Linear_8,0,5,63,98,1612610864
70,16,18,Jits_Linear_8,1,5,56,103,1612680624
70,16,18,Jits_Linear_8,2,1,48,39,1612721280
70,16,18,Jits_Linear_8,3,5,80,127,1612730744
70,16,18,Jits_Linear_8,0,5,63,98,1613200676
70,16,18,Jits_Linear_8,1,5,56,103,1613210944
70,16,18,Jits_Linear_8,2,5,80,127,1613214084
70,16,18,Jits_Linear_8,3,1,48,36,1613266496
70,16,18,Jits_Linear_8,0,5,80,127,1613700412
70,16,18,Jits_Linear_8,1,5,56,103,1613760880
70,16,18,Jits_Linear_8,2,1,48,37,1613776652
70,16,18,Jits_Linear_8,3,5,63,98,1613851400
70,16,18,Jits_Linear_8,0,5,80,127,1614251496
70,16,18,Jits_Linear_8,1,1,48,36,1614345520
70,16,18,Jits_Linear_8,2,5,56,103,1614350792
70,16,18,Jits_Linear_8,3,5,63,98,1614390580
70,16,18,Jits_Linear_8,0,5,56,103,1614850488
70,16,18,Jits_Linear_8,1,5,63,98,1614870872
70,16,18,Jits_Linear_8,2,1,48,38,1614906728
70,16,18,Jits_Linear_8,3,5,80,127,1614910880
70,16,18,Jits_Linear_8,0,5,63,98,1615370704
70,16,18,Jits_Linear_8,1,5,56,103,1615391012
70,16,18,Jits_Linear_8,2,1,48,35,1615456232
70,16,18,Jits_Linear_8,3,5,80,127,1615490504
70,16,18,Jits_Linear_8,0,5,63,98,1615901168
70,16,18,Jits_Linear_8,1,1,48,38,1615962952
70,16,18,Jits_Linear_8,2,5,80,127,1616010704
70,16,18,Jits_Linear_8,3,5,56,103,1616041276
70,16,18,Jits_Linear_8,0,5,56,103,1616461236
70,16,18,Jits_Linear_8,1,5,63,98,1616491064
70,16,18,Jits_Linear_8,2,1,48,31,1616539300
70,16,18,Jits_Linear_8,3,5,80,127,1616541112
70,16,18,Jits_Linear_8,0,5,63,98,1616971340
70,16,18,Jits_Linear_8,1,5,56,103,1617000796
70,16,18,Jits_Linear_8,2,1,48,38,1617049332
70,16,18,Jits_Linear_8,3,5,80,127,1617051140
70,16,18,Jits_Linear_8,0,5,56,103,1617540468
70,16,18,Jits_Linear_8,1,1,48,36,1617550632
70,16,18,Jits_Linear_8,2,5,63,98,1617561144
70,16,18,Jits_Linear_8,3,5,80,127,1617641012
70,16,18,Jits_Linear_8,0,5,63,98,1618050344
70,16,18,Jits_Linear_8,1,5,56,103,1618111260
70,16,18,Jits_Linear_8,2,1,48,38,1618124492
70,16,18,Jits_Linear_8,3,5,80,127,1618140628
70,16,18,Jits_Linear_8,0,5,56,103,1618631084
70,16,18,Jits_Linear_8,1,1,48,37,1618673312
70,16,18,Jits_Linear_8,2,5,80,127,1618690448
70,16,18,Jits_Linear_8,3,5,63,98,1618731284
70,16,18,Jits_Linear_8,0,5,63,98,1619141108
70,16,18,Jits_Linear_8,1,5,56,103,1619201376
70,16,18,Jits_Linear_8,2,1,48,40,1619246672
70,16,18,Jits_Linear_8,3,5,80,127,1619271124
70,16,18,Jits_Linear_8,0,5,56,103,1619751324
70,16,18,Jits_Linear_8,1,5,63,98,1619760472
70,16,18,Jits_Linear_8,2,5,80,127,1619763984
70,16,18,Jits_Linear_8,3,1,48,34,1619797668
70,16,18,Jits_Linear_8,0,5,63,98,1620221192
70,16,18,Jits_Linear_8,1,5,56,103,1620280612
70,16,18,Jits_Linear_8,2,5,80,127,1620283680
70,16,18,Jits_Linear_8,3,1,48,36,1620327320
70,16,18,Jits_Linear_8,0,5,63,98,1620731124
70,16,18,Jits_Linear_8,1,5,80,127,1620761024
70,16,18,Jits_Linear_8,2,5,56,103,1620781408
70,16,18,Jits_Linear_8,3,1,48,31,1620827228
70,16,18,Jits_Linear_8,0,5,56,103,1621260620
70,16,18,Jits_Linear_8,1,5,63,98,1621311048
70,16,18,Jits_Linear_8,2,1,48,32,1621342936
70,16,18,Jits_Linear_8,3,5,80,127,1621390612
70,16,18,Jits_Linear_8,0,5,80,127,1621761364
70,16,18,Jits_Linear_8,1,5,63,98,1621801232
70,16,18,Jits_Linear_8,2,5,56,103,1621820792
70,16,18,Jits_Linear_8,3,1,48,30,1621846232
70,16,18,Jits_Linear_8,0,5,56,103,1622351184
70,16,18,Jits_Linear_8,1,5,80,127,1622360408
70,16,18,Jits_Linear_8,2,5,63,98,1622381016
70,16,18,Jits_Linear_8,3,1,48,34,1622389016
70,16,18,Jits_Linear_8,0,5,56,103,1622851028
70,16,18,Jits_Linear_8,1,5,63,98,1622901232
70,16,18,Jits_Linear_8,2,5,80,127,1622930760
70,16,18,Jits_Linear_8,3,1,48,36,1622943616
70,16,18,Jits_Linear_8,0,5,56,103,1623320980
70,16,18,Jits_Linear_8,1,5,63,98,1623331324
70,16,18,Jits_Linear_8,2,5,80,127,1623381232
70,16,18,Jits_Linear_8,3,1,48,35,1623475220
70,16,18,Jits_Linear_8,0,5,56,103,1623831076
70,16,18,Jits_Linear_8,1,5,80,127,1623833996
70,16,18,Jits_Linear_8,2,5,63,98,1623990660
70,16,18,Jits_Linear_8,3,1,48,37,1623995876
70,16,18,Jits_Linear_8,0,5,63,98,1624361256
70,16,18,Jits_Linear_8,1,5,56,103,1624431164
70,16,18,Jits_Linear_8,2,5,80,127,1624470952
70,16,18,Jits_Linear_8,3,1,48,38,1624507628
70,16,18,Jits_Linear_8,0,5,63,98,1624911208
70,16,18,Jits_Linear_8,1,5,56,103,1625001188
70,16,18,Jits_Linear_8,2,5,80,127,1625004412
70,16,18,Jits_Linear_8,3,1,48,38,1625047904
70,16,18,Jits_Linear_8,0,5,56,103,1625400692
70,16,18,Jits_Linear_8,1,5,63,98,1625490980
70,16,18,Jits_Linear_8,2,5,80,127,1625501100
70,16,18,Jits_Linear_8,3,1,48,34,1625602460
70,16,18,Jits_Linear_8,0,5,56,103,1625881116
70,16,18,Jits_Linear_8,1,5,63,98,1625931096
70,16,18,Jits_Linear_8,2,5,80,127,1625960848
70,16,18,Jits_Linear_8,3,1,48,34,1626098424
70,16,18,Jits_Linear_8,0,5,63,98,1626460504
70,16,18,Jits_Linear_8,1,5,80,127,1626470848
70,16,18,Jits_Linear_8,2,1,48,30,1626487148
70,16,18,Jits_Linear_8,3,5,56,103,1626531156
70,16,18,Jits_Linear_8,0,5,63,98,1626881368
70,16,18,Jits_Linear_8,1,5,80,127,1626941012
70,16,18,Jits_Linear_8,2,5,56,103,1626980800
70,16,18,Jits_Linear_8,3,1,48,30,1626990440
70,16,18,Jits_Linear_8,0,1,48,30,1627448132
70,16,18,Jits_Linear_8,1,5,56,103,1627480312
70,16,18,Jits_Linear_8,2,5,80,127,1627501144
70,16,18,Jits_Linear_8,3,5,63,98,1627521456
70,16,18,Jits_Linear_8,0,5,63,98,1627901184
70,16,18,Jits_Linear_8,1,5,56,103,1627920896
70,16,18,Jits_Linear_8,2,5,80,127,1627960832
70,16,18,Jits_Linear_8,3,1,48,32,1627984032
70,16,18,Jits_Linear_8,0,5,63,98,1628411276
70,16,18,Jits_Linear_8,1,5,80,127,1628441252
70,16,18,Jits_Linear_8,2,1,48,30,1628449104
70,16,18,Jits_Linear_8,3,5,56,103,1628461408
70,16,18,Jits_Linear_8,0,5,80,127,1628881184
70,16,18,Jits_Linear_8,1,5,56,103,1628930368
70,16,18,Jits_Linear_8,2,1,48,33,1628945920
70,16,18,Jits_Linear_8,3,5,63,98,1628991052
70,16,18,Jits_Linear_8,0,5,63,98,1629360352
70,16,18,Jits_Linear_8,1,1,48,33,1629453480
70,16,18,Jits_Linear_8,2,5,56,103,1629481300
70,16,18,Jits_Linear_8,3,5,80,127,1629511048
70,16,18,Jits_Linear_8,0,5,80,127,1629891044
70,16,18,Jits_Linear_8,1,5,63,98,1629911356
70,16,18,Jits_Linear_8,2,1,48,34,1629921300
70,16,18,Jits_Linear_8,3,5,56,103,1629981128
70,16,18,Jits_Linear_8,0,5,63,98,1630400928
70,16,18,Jits_Linear_8,1,5,56,103,1630411128
70,16,18,Jits_Linear_8,2,1,48,32,1630439052
70,16,18,Jits_Linear_8,3,5,80,127,1630491012
70,16,18,Jits_Linear_8,0,1,48,30,1630896380
70,16,18,Jits_Linear_8,1,5,56,103,1630950952
70,16,18,Jits_Linear_8,2,5,80,127,1630980432
70,16,18,Jits_Linear_8,3,5,63,98,1630990912
70,16,18,Jits_Linear_8,0,9999,9999,9999,1520608324
70,16,18,Jits_Linear_8,1,9999,9999,9999,1521428560
70,16,18,Jits_Linear_8,2,9999,9999,9999,1522248768
70,16,18,Jits_Linear_8,3,9999,9999,9999,1523068988
70,16,18,Jits_Linear_8,4,9999,9999,9999,1523888228
70,16,18,Jits_Linear_8,5,9999,9999,9999,1524698176
70,16,18,Jits_Linear_8,6,9999,9999,9999,1525508216
70,16,18,Jits_Linear_8,7,9999,9999,9999,1526318172
70,16,18,Jits_Linear_8,8,9999,9999,9999,1527128136
70,16,18,Jits_Linear_8,9,9999,9999,9999,1527938140
70,16,18,Jits_Linear_8,10,9999,9999,9999,1528738888
70,16,18,Jits_Linear_8,11,9999,9999,9999,1529538648
70,16,18,Jits_Linear_8,12,9999,9999,9999,1530338420
70,16,18,Jits_Linear_8,13,9999,9999,9999,1531138136
70,16,18,Jits_Linear_8,14,9999,9999,9999,1531938924
70,16,18,Jits_Linear_8,15,9999,9999,9999,1532728424
70,16,18,Jits_Linear_8,16,9999,9999,9999,1533518948
70,16,18,Jits_Linear_8,17,9999,9999,9999,1534308460
70,16,18,Jits_Linear_8,18,9999,9999,9999,1535099004
70,16,18,Jits_Linear_8,19,9999,9999,9999,1535888512
70,16,18,Jits_Linear_8,20,9999,9999,9999,1536668784
70,16,18,Jits_Linear_8,21,9999,9999,9999,1537449060
70,16,18,Jits_Linear_8,22,9999,9999,9999,1538228292
70,16,18,Jits_Linear_8,23,9999,9999,9999,1539008628
70,16,18,Jits_Linear_8,24,9999,9999,9999,1539788900
70,16,18,Jits_Linear_8,25,9999,9999,9999,1540558912
70,16,18,Jits_Linear_8,26,9999,9999,9999,1541329008
70,16,18,Jits_Linear_8,27,9999,9999,9999,1542099036
70,16,18,Jits_Linear_8,28,9999,9999,9999,1542869060
70,16,18,Jits_Linear_8,29,9999,9999,9999,1543638120
70,16,18,Jits_Linear_8,30,9999,9999,9999,1544398908
70,16,18,Jits_Linear_8,31,9999,9999,9999,1545158732
70,16,18,Jits_Linear_8,32,9999,9999,9999,1545918540
70,16,18,Jits_Linear_8,33,9999,9999,9999,1546678368
70,16,18,Jits_Linear_8,34,9999,9999,9999,1547438204
70,16,18,Jits_Linear_8,35,9999,9999,9999,1548188744
70,16,18,Jits_Linear_8,36,9999,9999,9999,1548938312
70,16,18,Jits_Linear_8,37,9999,9999,9999,1549688932
70,16,18,Jits_Linear_8,38,9999,9999,9999,1550438504
70,16,18,Jits_Linear_8,39,9999,9999,9999,1551189052
70,16,18,Jits_Linear_8,40,9999,9999,9999,1551928440
70,16,18,Jits_Linear_8,41,9999,9999,9999,1552668800
70,16,18,Jits_Linear_8,42,9999,9999,9999,1553408092
70,16,18,Jits_Linear_8,43,9999,9999,9999,1554148412
70,16,18,Jits_Linear_8,44,9999,9999,9999,1554888812
70,16,18,Jits_Linear_8,45,9999,9999,9999,1555618900
70,16,18,Jits_Linear_8,46,9999,9999,9999,1556348980
70,16,18,Jits_Linear_8,47,9999,9999,9999,1557078100
70,16,18,Jits_Linear_8,48,9999,9999,9999,1557808192
70,16,18,Jits_Linear_8,49,9999,9999,9999,1558538356
70,16,18,Jits_Linear_8,50,9999,9999,9999,1559258224
70,16,18,Jits_Linear_8,51,9999,9999,9999,1559979100
70,16,18,Jits_Linear_8,52,9999,9999,9999,1560708224
70,16,18,Jits_Linear_8,53,9999,9999,9999,1561429104
70,16,18,Jits_Linear_8,54,9999,9999,9999,1562148928
70,16,18,Jits_Linear_8,55,9999,9999,9999,1562858548
70,16,18,Jits_Linear_8,56,9999,9999,9999,1563568248
70,16,18,Jits_Linear_8,57,9999,9999,9999,1564278860
70,16,18,Jits_Linear_8,58,9999,9999,9999,1564988504
70,16,18,Jits_Linear_8,59,9999,9999,9999,1565698144
70,16,18,Jits_Linear_8,60,9999,9999,9999,1566398544
70,16,18,Jits_Linear_8,61,9999,9999,9999,1567098980
70,16,18,Jits_Linear_8,62,9999,9999,9999,1567798356
70,16,18,Jits_Linear_8,63,9999,9999,9999,1568498808
70,16,18,Jits_Linear_8,64,9999,9999,9999,1569198188
70,16,18,Jits_Linear_8,65,9999,9999,9999,1569888336
70,16,18,Jits_Linear_8,66,9999,9999,9999,1570578508
70,16,18,Jits_Linear_8,67,9999,9999,9999,1571268712
70,16,18,Jits_Linear_8,68,9999,9999,9999,1571958868
70,16,18,Jits_Linear_8,69,9999,9999,9999,1572649032
70,16,18,Jits_Linear_8,70,9999,9999,9999,1573328976
70,16,18,Jits_Linear_8,71,9999,9999,9999,1574008944
70,16,18,Jits_Linear_8,72,9999,9999,9999,1574688840
70,16,18,Jits_Linear_8,73,9999,9999,9999,1575368784
70,16,18,Jits_Linear_8,74,9999,9999,9999,1576048768
70,16,18,Jits_Linear_8,75,9999,9999,9999,1576718392
70,16,18,Jits_Linear_8,76,9999,9999,9999,1577388148
70,16,18,Jits_Linear_8,77,9999,9999,9999,1578058832
70,16,18,Jits_Linear_8,78,9999,9999,9999,1578728508
70,16,18,Jits_Linear_8,79,9999,9999,9999,1579398216
70,16,18,Jits_Linear_8,80,9999,9999,9999,1580058708
70,16,18,Jits_Linear_8,81,9999,9999,9999,1580718192
70,16,18,Jits_Linear_8,82,9999,9999,9999,1581378668
70,16,18,Jits_Linear_8,83,9999,9999,9999,1582038076
70,16,18,Jits_Linear_8,84,9999,9999,9999,1582698560
70,16,18,Jits_Linear_8,85,9999,9999,9999,1583348860
70,16,18,Jits_Linear_8,86,9999,9999,9999,1583999064
70,16,18,Jits_Linear_8,87,9999,9999,9999,1584648304
70,16,18,Jits_Linear_8,88,9999,9999,9999,1585298492
70,16,18,Jits_Linear_8,89,9999,9999,9999,1585948788
70,16,18,Jits_Linear_8,90,9999,9999,9999,1586588728
70,16,18,Jits_Linear_8,91,9999,9999,9999,1587228760
70,16,18,Jits_Linear_8,92,9999,9999,9999,1587868780
70,16,18,Jits_Linear_8,93,9999,9999,9999,1588508728
70,16,18,Jits_Linear_8,94,9999,9999,9999,1589148732
70,16,18,Jits_Linear_8,95,9999,9999,9999,1589778492
70,16,18,Jits_Linear_8,96,9999,9999,9999,1590408316
70,16,18,Jits_Linear_8,97,9999,9999,9999,1591039052
70,16,18,Jits_Linear_8,98,9999,9999,9999,1591668808
70,16,18,Jits_Linear_8,99,9999,9999,9999,1592298564
70,16,18,Jits_Linear_8,100,9999,9999,9999,1592918140
70,16,18,Jits_Linear_8,101,9999,9999,9999,1593538664
70,16,18,Jits_Linear_8,102,9999,9999,9999,1594158172
70,16,18,Jits_Linear_8,103,9999,9999,9999,1594778704
70,16,18,Jits_Linear_8,104,9999,9999,9999,1595398216
70,16,18,Jits_Linear_8,105,9999,9999,9999,1596008560
70,16,18,Jits_Linear_8,106,9999,9999,9999,1596618808
70,16,18,Jits_Linear_8,107,9999,9999,9999,1597228100
70,16,18,Jits_Linear_8,108,9999,9999,9999,1597838440
70,16,18,Jits_Linear_8,109,9999,9999,9999,1598448768
70,16,18,Jits_Linear_8,110,9999,9999,9999,1599048796
70,16,18,Jits_Linear_8,111,9999,9999,9999,1599648872
70,16,18,Jits_Linear_8,112,9999,9999,9999,1600248904
70,16,18,Jits_Linear_8,113,9999,9999,9999,1600848988
70,16,18,Jits_Linear_8,114,9999,9999,9999,1601449068
70,16,18,Jits_Linear_8,115,9999,9999,9999,1602038900
70,16,18,Jits_Linear_8,116,9999,9999,9999,1602628720
70,16,18,Jits_Linear_8,117,9999,9999,9999,1603218548
70,16,18,Jits_Linear_8,118,9999,9999,9999,1603808368
70,16,18,Jits_Linear_8,119,9999,9999,9999,1604398136
70,16,18,Jits_Linear_8,120,9999,9999,9999,1604978812
70,16,18,Jits_Linear_8,121,9999,9999,9999,1605558352
70,16,18,Jits_Linear_8,122,9999,9999,9999,1606138960
70,16,18,Jits_Linear_8,123,9999,9999,9999,1606718568
70,16,18,Jits_Linear_8,124,9999,9999,9999,1607298116
70,16,18,Jits_Linear_8,125,9999,9999,9999,1607868524
70,16,18,Jits_Linear_8,126,9999,9999,9999,1608438884
70,16,18,Jits_Linear_8,127,9999,9999,9999,1609008240
70,16,18,Jits_Linear_8,128,9999,9999,9999,1609578568
70,16,18,Jits_Linear_8,129,9999,9999,9999,1610148984
70,16,18,Jits_Linear_8,130,9999,9999,9999,1610709064
70,16,18,Jits_Linear_8,131,9999,9999,9999,1611268196
70,16,18,Jits_Linear_8,132,9999,9999,9999,1611828344
70,16,18,Jits_Linear_8,133,9999,9999,9999,1612388428
70,16,18,Jits_Linear_8,134,9999,9999,9999,1612948568
70,16,18,Jits_Linear_8,135,9999,9999,9999,1613498432
70,16,18,Jits_Linear_8,136,9999,9999,9999,1614048380
70,16,18,Jits_Linear_8,137,9999,9999,9999,1614598220
70,16,18,Jits_Linear_8,138,9999,9999,9999,1615148108
70,16,18,Jits_Linear_8,139,9999,9999,9999,1615699040
70,16,18,Jits_Linear_8,140,9999,9999,9999,1616238656
70,16,18,Jits_Linear_8,141,9999,9999,9999,1616778340
70,16,18,Jits_Linear_8,142,9999,9999,9999,1617319004
70,16,18,Jits_Linear_8,143,9999,9999,9999,1617858616
70,16,18,Jits_Linear_8,144,9999,9999,9999,1618398308
70,16,18,Jits_Linear_8,145,9999,9999,9999,1618928708
70,16,18,Jits_Linear_8,146,9999,9999,9999,1619458164
70,16,18,Jits_Linear_8,147,9999,9999,9999,1619988556
70,16,18,Jits_Linear_8,148,9999,9999,9999,1620519032
70,16,18,Jits_Linear_8,149,9999,9999,9999,1621048376
70,16,18,Jits_Linear_8,150,9999,9999,9999,1621568584
70,16,18,Jits_Linear_8,151,9999,9999,9999,1622088800
70,16,18,Jits_Linear_8,152,9999,9999,9999,1622608948
70,16,18,Jits_Linear_8,153,9999,9999,9999,1623128132
70,16,18,Jits_Linear_8,154,9999,9999,9999,1623648344
70,16,18,Jits_Linear_8,155,9999,9999,9999,1624158288
70,16,18,Jits_Linear_8,156,9999,9999,9999,1624668244
70,16,18,Jits_Linear_8,157,9999,9999,9999,1625178184
70,16,18,Jits_Linear_8,158,9999,9999,9999,1625688148
70,16,18,Jits_Linear_8,159,9999,9999,9999,1626198120
70,16,18,Jits_Linear_8,160,9999,9999,9999,1626698868
70,16,18,Jits_Linear_8,161,9999,9999,9999,1627198544
70,16,18,Jits_Linear_8,162,9999,9999,9999,1627698232
70,16,18,Jits_Linear_8,163,9999,9999,9999,1628199032
70,16,18,Jits_Linear_8,164,9999,9999,9999,1628698712
70,16,18,Jits_Linear_8,165,9999,9999,9999,1629188204
70,16,18,Jits_Linear_8,166,9999,9999,9999,1629678656
70,16,18,Jits_Linear_8,167,9999,9999,9999,1630168144
70,16,18,Jits_Linear_8,168,9999,9999,9999,1630658624
70,16,18,Jits_Linear_8,169,9999,9999,9999,1631148124
70,17,19,Jits_Linear_5,0,5,56,103,1640074808
70,17,19,Jits_Linear_5,1,5,63,98,1640077984
70,17,19,Jits_Linear_5,2,5,80,127,1640081104
70,17,19,Jits_Linear_5,0,5,56,103,1640554820
70,17,19,Jits_Linear_5,1,5,63,98,1640557992
70,17,19,Jits_Linear_5,2,5,80,127,1640561040
70,17,19,Jits_Linear_5,3,1,48,21,1640722032
70,17,19,Jits_Linear_5,0,5,56,103,1641035188
70,17,19,Jits_Linear_5,1,5,80,127,1641045608
70,17,19,Jits_Linear_5,2,5,63,98,1641064800
70,17,19,Jits_Linear_5,3,1,48,21,1641111060
70,17,19,Jits_Linear_5,0,5,63,98,1641465064
70,17,19,Jits_Linear_5,1,5,80,127,1641494888
70,17,19,Jits_Linear_5,2,5,56,103,1641505084
70,17,19,Jits_Linear_5,3,1,48,29,1641521828
70,17,19,Jits_Linear_5,0,1,48,32,1641959440
70,17,19,Jits_Linear_5,1,5,80,127,1642004824
70,17,19,Jits_Linear_5,2,5,56,103,1642015020
70,17,19,Jits_Linear_5,3,5,63,98,1642044700
70,17,19,Jits_Linear_5,0,1,48,33,1642477864
70,17,19,Jits_Linear_5,1,5,63,98,1642485036
70,17,19,Jits_Linear_5,2,5,56,103,1642514712
70,17,19,Jits_Linear_5,3,5,80,127,1642525056
70,17,19,Jits_Linear_5,0,5,56,103,1642925516
70,17,19,Jits_Linear_5,1,1,48,32,1642970736
70,17,19,Jits_Linear_5,2,5,63,98,1642974520
70,17,19,Jits_Linear_5,3,5,80,127,1642995152
70,17,19,Jits_Linear_5,0,5,80,127,1643414808
70,17,19,Jits_Linear_5,1,1,48,36,1643433812
70,17,19,Jits_Linear_5,2,5,63,98,1643465152
70,17,19,Jits_Linear_5,3,5,56,103,1643505092
70,17,19,Jits_Linear_5,0,5,56,103,1643905640
70,17,19,Jits_Linear_5,1,5,63,98,1643934948
70,17,19,Jits_Linear_5,2,1,48,36,1643937844
70,17,19,Jits_Linear_5,3,5,80,127,1644004848
70,17,19,Jits_Linear_5,0,5,56,103,1644394856
70,17,19,Jits_Linear_5,1,1,48,32,1644420672
70,17,19,Jits_Linear_5,2,5,80,127,1644455172
70,17,19,Jits_Linear_5,3,5,63,98,1644484920
70,17,19,Jits_Linear_5,0,5,56,103,1644894636
70,17,19,Jits_Linear_5,1,1,48,30,1644900820
70,17,19,Jits_Linear_5,2,5,63,98,1644904752
70,17,19,Jits_Linear_5,3,5,80,127,1644944840
70,17,19,Jits_Linear_5,0,5,63,98,1645385044
70,17,19,Jits_Linear_5,1,1,48,31,1645399248
70,17,19,Jits_Linear_5,2,5,80,127,1645464912
70,17,19,Jits_Linear_5,3,5,56,103,1645475184
70,17,19,Jits_Linear_5,0,1,48,25,1645913104
70,17,19,Jits_Linear_5,1,5,63,98,1645934852
70,17,19,Jits_Linear_5,2,5,56,103,1645974784
70,17,19,Jits_Linear_5,3,5,80,127,1645977932
70,17,19,Jits_Linear_5,0,5,56,103,1646394680
70,17,19,Jits_Linear_5,1,5,63,98,1646405100
70,17,19,Jits_Linear_5,2,1,48,27,1646442076
70,17,19,Jits_Linear_5,3,5,80,127,1646444884
70,17,19,Jits_Linear_5,0,5,56,103,1646885080
70,17,19,Jits_Linear_5,1,5,63,98,1646888300
70,17,19,Jits_Linear_5,2,5,80,127,1646904796
70,17,19,Jits_Linear_5,3,1,48,22,1646922660
70,17,19,Jits_Linear_5,0,5,80,127,1647405676
70,17,19,Jits_Linear_5,1,5,56,103,1647414900
70,17,19,Jits_Linear_5,2,1,48,27,1647424844
70,17,19,Jits_Linear_5,3,5,63,98,1647485472
70,17,19,Jits_Linear_5,0,5,63,98,1647905076
70,17,19,Jits_Linear_5,1,1,48,22,1647921376
70,17,19,Jits_Linear_5,2,5,56,103,1647924560
70,17,19,Jits_Linear_5,3,5,80,127,1648004652
70,17,19,Jits_Linear_5,0,5,56,103,1648425516
70,17,19,Jits_Linear_5,1,1,48,21,1648451328
70,17,19,Jits_Linear_5,2,5,80,127,1648465600
70,17,19,Jits_Linear_5,3,5,63,98,1648474452
70,17,19,Jits_Linear_5,0,5,80,127,1648924920
70,17,19,Jits_Linear_5,1,1,48,23,1648951408
70,17,19,Jits_Linear_5,2,5,63,98,1648954664
70,17,19,Jits_Linear_5,3,5,56,103,1648994604
70,17,19,Jits_Linear_5,0,5,56,103,1649454664
70,17,19,Jits_Linear_5,1,5,63,98,1649485388
70,17,19,Jits_Linear_5,2,1,48,21,1649508512
70,17,19,Jits_Linear_5,3,5,80,127,1649535656
70,17,19,Jits_Linear_5,0,5,80,127,1649965604
70,17,19,Jits_Linear_5,1,5,56,103,1650005468
70,17,19,Jits_Linear_5,2,1,48,21,1650010080
70,17,19,Jits_Linear_5,3,5,63,98,1650014688
70,17,19,Jits_Linear_5,0,5,80,127,1650465080
70,17,19,Jits_Linear_5,1,1,48,19,1650466564
70,17,19,Jits_Linear_5,2,5,63,98,1650504940
70,17,19,Jits_Linear_5,3,5,56,103,1650564640
70,17,19,Jits_Linear_5,0,1,48,16,1650975388
70,17,19,Jits_Linear_5,1,5,56,103,1650985452
70,17,19,Jits_Linear_5,2,5,80,127,1650994600
70,17,19,Jits_Linear_5,3,5,63,98,1651074604
70,17,19,Jits_Linear_5,0,5,80,127,1651504624
70,17,19,Jits_Linear_5,1,1,48,25,1651518532
70,17,19,Jits_Linear_5,2,5,63,98,1651564788
70,17,19,Jits_Linear_5,3,5,56,103,1651594464
70,17,19,Jits_Linear_5,0,5,56,103,1652024632
70,17,19,Jits_Linear_5,1,1,48,19,1652077580
70,17,19,Jits_Linear_5,2,5,80,127,1652085168
70,17,19,Jits_Linear_5,3,5,63,98,1652124960
70,17,19,Jits_Linear_5,0,1,48,19,1652586788
70,17,19,Jits_Linear_5,1,5,56,103,1652605544
70,17,19,Jits_Linear_5,2,5,63,98,1652614468
70,17,19,Jits_Linear_5,3,5,80,127,1652617684
70,17,19,Jits_Linear_5,0,5,80,127,1653084628
70,17,19,Jits_Linear_5,1,1,48,21,1653093368
70,17,19,Jits_Linear_5,2,5,63,98,1653174608
70,17,19,Jits_Linear_5,3,5,56,103,1653184880
70,17,19,Jits_Linear_5,0,5,56,103,1653614956
70,17,19,Jits_Linear_5,1,5,63,98,1653618204
70,17,19,Jits_Linear_5,2,5,80,127,1653621472
70,17,19,Jits_Linear_5,3,1,48,19,1653641532
70,17,19,Jits_Linear_5,0,1,48,23,1654139784
70,17,19,Jits_Linear_5,1,5,80,127,1654164768
70,17,19,Jits_Linear_5,2,5,63,98,1654215124
70,17,19,Jits_Linear_5,3,5,56,103,1654244636
70,17,19,Jits_Linear_5,0,1,48,22,1654673288
70,17,19,Jits_Linear_5,1,5,56,103,1654674724
70,17,19,Jits_Linear_5,2,5,80,127,1654684992
70,17,19,Jits_Linear_5,3,5,63,98,1654754676
70,17,19,Jits_Linear_5,0,1,48,21,1655191604
70,17,19,Jits_Linear_5,1,5,56,103,1655214564
70,17,19,Jits_Linear_5,2,5,63,98,1655234952
70,17,19,Jits_Linear_5,3,5,80,127,1655295500
70,17,19,Jits_Linear_5,0,1,48,19,1655719236
70,17,19,Jits_Linear_5,1,5,80,127,1655744892
70,17,19,Jits_Linear_5,2,5,63,98,1655814440
70,17,19,Jits_Linear_5,3,5,56,103,1655835048
70,17,19,Jits_Linear_5,0,1,48,23,1656251060
70,17,19,Jits_Linear_5,1,5,80,127,1656305220
70,17,19,Jits_Linear_5,2,5,56,103,1656315340
70,17,19,Jits_Linear_5,3,5,63,98,1656324640
70,17,19,Jits_Linear_5,0,1,48,24,1656779968
70,17,19,Jits_Linear_5,1,5,80,127,1656834496
70,17,19,Jits_Linear_5,2,5,56,103,1656854956
70,17,19,Jits_Linear_5,3,5,63,98,1656924476
70,17,19,Jits_Linear_5,0,1,48,20,1657325512
70,17,19,Jits_Linear_5,1,5,56,103,1657385352
70,17,19,Jits_Linear_5,2,5,80,127,1657414956
70,17,19,Jits_Linear_5,3,5,63,98,1657434428
70,17,19,Jits_Linear_5,0,1,48,23,1657884492
70,17,19,Jits_Linear_5,1,5,63,98,1657924904
70,17,19,Jits_Linear_5,2,5,56,103,1657985580
70,17,19,Jits_Linear_5,3,5,80,127,1658015180
70,17,19,Jits_Linear_5,0,1,48,23,1658441036
70,17,19,Jits_Linear_5,1,5,63,98,1658464596
70,17,19,Jits_Linear_5,2,5,80,127,1658467884
70,17,19,Jits_Linear_5,3,5,56,103,1658554788
70,17,19,Jits_Linear_5,0,1,48,23,1659014224
70,17,19,Jits_Linear_5,1,5,56,103,1659035072
70,17,19,Jits_Linear_5,2,5,63,98,1659064752
70,17,19,Jits_Linear_5,3,5,80,127,1659104692
70,17,19,Jits_Linear_5,0,5,63,98,1659584816
70,17,19,Jits_Linear_5,1,1,48,24,1659588012
70,17,19,Jits_Linear_5,2,5,56,103,1659624752
70,17,19,Jits_Linear_5,3,5,80,127,1659645236
70,17,19,Jits_Linear_5,0,5,63,98,1660145132
70,17,19,Jits_Linear_5,1,1,48,20,1660156276
70,17,19,Jits_Linear_5,2,5,56,103,1660184848
70,17,19,Jits_Linear_5,3,5,80,127,1660195264
70,17,19,Jits_Linear_5,0,5,80,127,1660674272
70,17,19,Jits_Linear_5,1,1,48,26,1660716944
70,17,19,Jits_Linear_5,2,5,63,98,1660745292
70,17,19,Jits_Linear_5,3,5,56,103,1660764484
70,17,19,Jits_Linear_5,0,5,56,103,1661225444
70,17,19,Jits_Linear_5,1,5,80,127,1661244856
70,17,19,Jits_Linear_5,2,1,48,21,1661257712
70,17,19,Jits_Linear_5,3,5,63,98,1661284640
70,17,19,Jits_Linear_5,0,1,48,21,1661752140
70,17,19,Jits_Linear_5,1,5,63,98,1661794888
70,17,19,Jits_Linear_5,2,5,80,127,1661815200
70,17,19,Jits_Linear_5,3,5,56,103,1661855348
70,17,19,Jits_Linear_5,0,1,48,25,1662311092
70,17,19,Jits_Linear_5,1,5,63,98,1662354660
70,17,19,Jits_Linear_5,2,5,56,103,1662375492
70,17,19,Jits_Linear_5,3,5,80,127,1662384496
70,17,19,Jits_Linear_5,0,1,48,20,1662892460
70,17,19,Jits_Linear_5,1,5,80,127,1662914956
70,17,19,Jits_Linear_5,2,5,56,103,1662935492
70,17,19,Jits_Linear_5,3,5,63,98,1662965044
70,17,19,Jits_Linear_5,0,1,48,23,1663448476
70,17,19,Jits_Linear_5,1,5,56,103,1663555212
70,17,19,Jits_Linear_5,2,5,80,127,1663558196
70,17,19,Jits_Linear_5,3,5,63,98,1663575368
70,17,19,Jits_Linear_5,0,5,63,98,1664045396
70,17,19,Jits_Linear_5,1,1,48,24,1664069412
70,17,19,Jits_Linear_5,2,5,56,103,1664075212
70,17,19,Jits_Linear_5,3,5,80,127,1664134484
70,17,19,Jits_Linear_5,0,1,48,23,1664565796
70,17,19,Jits_Linear_5,1,5,63,98,1664694680
70,17,19,Jits_Linear_5,2,5,56,103,1664705024
70,17,19,Jits_Linear_5,3,5,80,127,1664715148
70,17,19,Jits_Linear_5,0,1,48,25,1665212324
70,17,19,Jits_Linear_5,1,5,56,103,1665214840
70,17,19,Jits_Linear_5,2,5,80,127,1665244592
70,17,19,Jits_Linear_5,3,5,63,98,1665254712
70,17,19,Jits_Linear_5,0,1,48,24,1665754132
70,17,19,Jits_Linear_5,1,5,63,98,1665825208
70,17,19,Jits_Linear_5,2,5,56,103,1665835328
70,17,19,Jits_Linear_5,3,5,80,127,1665855024
70,17,19,Jits_Linear_5,0,5,56,103,1666324904
70,17,19,Jits_Linear_5,1,1,48,22,1666368324
70,17,19,Jits_Linear_5,2,5,63,98,1666385212
70,17,19,Jits_Linear_5,3,5,80,127,1666388576
70,17,19,Jits_Linear_5,0,1,48,24,1666897008
70,17,19,Jits_Linear_5,1,5,80,127,1666925208
70,17,19,Jits_Linear_5,2,5,56,103,1666935328
70,17,19,Jits_Linear_5,3,5,63,98,1667004924
70,17,19,Jits_Linear_5,0,1,48,23,1667476492
70,17,19,Jits_Linear_5,1,5,80,127,1667504536
70,17,19,Jits_Linear_5,2,5,56,103,1667575132
70,17,19,Jits_Linear_5,3,5,63,98,1667585476
70,17,19,Jits_Linear_5,0,1,48,21,1668111652
70,17,19,Jits_Linear_5,1,5,63,98,1668125248
70,17,19,Jits_Linear_5,2,5,56,103,1668135220
70,17,19,Jits_Linear_5,3,5,80,127,1668154856
70,17,19,Jits_Linear_5,0,5,80,127,1668654388
70,17,19,Jits_Linear_5,1,1,48,21,1668671880
70,17,19,Jits_Linear_5,2,5,63,98,1668714848
70,17,19,Jits_Linear_5,3,5,56,103,1668754788
70,17,19,Jits_Linear_5,0,1,48,18,1669250100
70,17,19,Jits_Linear_5,1,5,56,103,1669285272
70,17,19,Jits_Linear_5,2,5,63,98,1669294420
70,17,19,Jits_Linear_5,3,5,80,127,1669335480
70,17,19,Jits_Linear_5,0,5,56,103,1669835088
70,17,19,Jits_Linear_5,1,1,48,21,1669855216
70,17,19,Jits_Linear_5,2,5,80,127,1669865056
70,17,19,Jits_Linear_5,3,5,63,98,1669915208
70,17,19,Jits_Linear_5,0,1,48,23,1670411416
70,17,19,Jits_Linear_5,1,5,56,103,1670465096
70,17,19,Jits_Linear_5,2,5,63,98,1670505324
70,17,19,Jits_Linear_5,3,5,80,127,1670508532
70,17,19,Jits_Linear_5,0,1,48,24,1671028504
70,17,19,Jits_Linear_5,1,5,56,103,1671054688
70,17,19,Jits_Linear_5,2,5,63,98,1671065180
70,17,19,Jits_Linear_5,3,5,80,127,1671085416
70,17,19,Jits_Linear_5,0,5,56,103,1671604724
70,17,19,Jits_Linear_5,1,5,80,127,1671607864
70,17,19,Jits_Linear_5,2,1,48,21,1671626424
70,17,19,Jits_Linear_5,3,5,63,98,1671644660
70,17,19,Jits_Linear_5,0,1,48,23,1672193568
70,17,19,Jits_Linear_5,1,5,63,98,1672235324
70,17,19,Jits_Linear_5,2,5,56,103,1672265224
70,17,19,Jits_Linear_5,3,5,80,127,1672284488
70,17,19,Jits_Linear_5,0,1,48,22,1672795148
70,17,19,Jits_Linear_5,1,5,80,127,1672804688
70,17,19,Jits_Linear_5,2,5,56,103,1672815256
70,17,19,Jits_Linear_5,3,5,63,98,1672825228
70,17,19,Jits_Linear_5,0,1,48,23,1673340592
70,17,19,Jits_Linear_5,1,5,56,103,1673404912
70,17,19,Jits_Linear_5,2,5,80,127,1673444692
70,17,19,Jits_Linear_5,3,5,63,98,1673474316
70,17,19,Jits_Linear_5,0,1,48,27,1673952604
70,17,19,Jits_Linear_5,1,5,63,98,1674015136
70,17,19,Jits_Linear_5,2,5,80,127,1674025184
70,17,19,Jits_Linear_5,3,5,56,103,1674034632
70,17,19,Jits_Linear_5,0,1,48,25,1674580564
70,17,19,Jits_Linear_5,1,5,56,103,1674594612
70,17,19,Jits_Linear_5,2,5,63,98,1674665272
70,17,19,Jits_Linear_5,3,5,80,127,1674674480
70,17,19,Jits_Linear_5,0,1,48,24,1675153308
70,17,19,Jits_Linear_5,1,5,80,127,1675205256
70,17,19,Jits_Linear_5,2,5,56,103,1675215228
70,17,19,Jits_Linear_5,3,5,63,98,1675265368
70,17,19,Jits_Linear_5,0,1,48,21,1675757500
70,17,19,Jits_Linear_5,1,5,80,127,1675824392
70,17,19,Jits_Linear_5,2,5,56,103,1675885144
70,17,19,Jits_Linear_5,3,5,63,98,1675914748
70,17,19,Jits_Linear_5,0,1,48,22,1676405272
70,17,19,Jits_Linear_5,1,5,56,103,1676434816
70,17,19,Jits_Linear_5,2,5,80,127,1676437956
70,17,19,Jits_Linear_5,3,5,63,98,1676474828
70,17,19,Jits_Linear_5,0,1,48,24,1677016432
70,17,19,Jits_Linear_5,1,5,56,103,1677074996
70,17,19,Jits_Linear_5,2,5,63,98,1677104524
70,17,19,Jits_Linear_5,3,5,80,127,1677114780
70,17,19,Jits_Linear_5,0,1,48,18,1677640652
70,17,19,Jits_Linear_5,1,5,63,98,1677695460
70,17,19,Jits_Linear_5,2,5,80,127,1677704536
70,17,19,Jits_Linear_5,3,5,56,103,1677714880
70,17,19,Jits_Linear_5,0,1,48,18,1678235056
70,17,19,Jits_Linear_5,1,5,80,127,1678254560
70,17,19,Jits_Linear_5,2,5,56,103,1678304764
70,17,19,Jits_Linear_5,3,5,63,98,1678307828
70,17,19,Jits_Linear_5,0,1,48,21,1678812276
70,17,19,Jits_Linear_5,1,5,56,103,1678904760
70,17,19,Jits_Linear_5,2,5,80,127,1678925148
70,17,19,Jits_Linear_5,3,5,63,98,1678935568
70,17,19,Jits_Linear_5,0,1,48,20,1679429900
70,17,19,Jits_Linear_5,1,5,63,98,1679505004
70,17,19,Jits_Linear_5,2,5,56,103,1679534520
70,17,19,Jits_Linear_5,3,5,80,127,1679555128
70,17,19,Jits_Linear_5,0,1,48,19,1680074108
70,17,19,Jits_Linear_5,1,5,56,103,1680134620
70,17,19,Jits_Linear_5,2,5,80,127,1680145188
70,17,19,Jits_Linear_5,3,5,63,98,1680215532
70,17,19,Jits_Linear_5,0,1,48,16,1680679296
70,17,19,Jits_Linear_5,1,5,63,98,1680744812
70,17,19,Jits_Linear_5,2,5,80,127,1680784888
70,17,19,Jits_Linear_5,3,5,56,103,1680825048
70,17,19,Jits_Linear_5,0,1,48,17,1681342452
70,17,19,Jits_Linear_5,1,5,56,103,1681385048
70,17,19,Jits_Linear_5,2,5,63,98,1681395048
70,17,19,Jits_Linear_5,3,5,80,127,1681414464
70,17,19,Jits_Linear_5,0,1,48,16,1681993152
70,17,19,Jits_Linear_5,1,5,63,98,1682054388
70,17,19,Jits_Linear_5,2,5,80,127,1682075144
70,17,19,Jits_Linear_5,3,5,56,103,1682094392
70,17,19,Jits_Linear_5,0,5,56,103,1682624876
70,17,19,Jits_Linear_5,1,1,48,16,1682657212
70,17,19,Jits_Linear_5,2,5,80,127,1682704992
70,17,19,Jits_Linear_5,3,5,63,98,1682715116
70,17,19,Jits_Linear_5,0,1,48,19,1683266696
70,17,19,Jits_Linear_5,1,5,80,127,1683294448
70,17,19,Jits_Linear_5,2,5,63,98,1683304720
70,17,19,Jits_Linear_5,3,5,56,103,1683334468
70,17,19,Jits_Linear_5,0,5,63,98,1683885536
70,17,19,Jits_Linear_5,1,5,80,127,1683925256
70,17,19,Jits_Linear_5,2,1,48,16,1683946132
70,17,19,Jits_Linear_5,3,5,56,103,1683984840
70,17,19,Jits_Linear_5,0,5,63,98,1684525352
70,17,19,Jits_Linear_5,1,1,48,20,1684562552
70,17,19,Jits_Linear_5,2,5,56,103,1684574804
70,17,19,Jits_Linear_5,3,5,80,127,1684605228
70,17,19,Jits_Linear_5,0,1,48,19,1685167876
70,17,19,Jits_Linear_5,1,5,80,127,1685174652
70,17,19,Jits_Linear_5,2,5,63,98,1685184996
70,17,19,Jits_Linear_5,3,5,56,103,1685254628
70,17,19,Jits_Linear_5,0,1,48,19,1685813168
70,17,19,Jits_Linear_5,1,5,80,127,1685885268
70,17,19,Jits_Linear_5,2,5,56,103,1685894640
70,17,19,Jits_Linear_5,3,5,63,98,1685897780
70,17,19,Jits_Linear_5,0,5,56,103,1686464968
70,17,19,Jits_Linear_5,1,5,80,127,1686485280
70,17,19,Jits_Linear_5,2,5,63,98,1686494504
70,17,19,Jits_Linear_5,3,1,48,18,1686504292
70,17,19,Jits_Linear_5,0,1,48,17,1687083788
70,17,19,Jits_Linear_5,1,5,63,98,1687115056
70,17,19,Jits_Linear_5,2,5,56,103,1687154996
70,17,19,Jits_Linear_5,3,5,80,127,1687174484
70,17,19,Jits_Linear_5,0,1,48,17,1687702756
70,17,19,Jits_Linear_5,1,5,63,98,1687765336
70,17,19,Jits_Linear_5,2,5,56,103,1687824840
70,17,19,Jits_Linear_5,3,5,80,127,1687827908
70,17,19,Jits_Linear_5,0,1,48,19,1688354472
70,17,19,Jits_Linear_5,1,5,56,103,1688374728
70,17,19,Jits_Linear_5,2,5,80,127,1688395036
70,17,19,Jits_Linear_5,3,5,63,98,1688434980
70,17,19,Jits_Linear_5,0,1,48,16,1688962792
70,17,19,Jits_Linear_5,1,5,56,103,1689054600
70,17,19,Jits_Linear_5,2,5,63,98,1689075068
70,17,19,Jits_Linear_5,3,5,80,127,1689085340
70,17,19,Jits_Linear_5,0,1,48,18,1689643216
70,17,19,Jits_Linear_5,1,5,80,127,1689675228
70,17,19,Jits_Linear_5,2,5,56,103,1689704756
70,17,19,Jits_Linear_5,3,5,63,98,1689744828
70,17,19,Jits_Linear_5,0,1,48,17,1690304948
70,17,19,Jits_Linear_5,1,5,80,127,1690334864
70,17,19,Jits_Linear_5,2,5,56,103,1690354976
70,17,19,Jits_Linear_5,3,5,63,98,1690414828
70,17,19,Jits_Linear_5,0,1,48,19,1690959360
70,17,19,Jits_Linear_5,1,5,56,103,1690994908
70,17,19,Jits_Linear_5,2,5,80,127,1691014472
70,17,19,Jits_Linear_5,3,5,63,98,1691074924
70,17,19,Jits_Linear_5,0,1,48,17,1691570896
70,17,19,Jits_Linear_5,1,5,80,127,1691635092
70,17,19,Jits_Linear_5,2,5,56,103,1691645436
70,17,19,Jits_Linear_5,3,5,63,98,1691685212
70,17,19,Jits_Linear_5,0,1,48,18,1692213640
70,17,19,Jits_Linear_5,1,5,63,98,1692294804
70,17,19,Jits_Linear_5,2,5,56,103,1692334656
70,17,19,Jits_Linear_5,3,5,80,127,1692337572
70,17,19,Jits_Linear_5,0,1,48,18,1692869508
70,17,19,Jits_Linear_5,1,5,63,98,1692974376
70,17,19,Jits_Linear_5,2,5,80,127,1693015364
70,17,19,Jits_Linear_5,3,5,56,103,1693045040
70,17,19,Jits_Linear_5,0,1,48,19,1693571728
70,17,19,Jits_Linear_5,1,5,56,103,1693624740
70,17,19,Jits_Linear_5,2,5,63,98,1693635084
70,17,19,Jits_Linear_5,3,5,80,127,1693664836
70,17,19,Jits_Linear_5,0,1,48,15,1694193724
70,17,19,Jits_Linear_5,1,5,80,127,1694285152
70,17,19,Jits_Linear_5,2,5,63,98,1694354824
70,17,19,Jits_Linear_5,3,5,56,103,1694365092
70,17,19,Jits_Linear_5,0,1,48,20,1694871104
70,17,19,Jits_Linear_5,1,5,63,98,1694954836
70,17,19,Jits_Linear_5,2,5,56,103,1695024604
70,17,19,Jits_Linear_5,3,5,80,127,1695034876
70,17,19,Jits_Linear_5,0,1,48,15,1695514228
70,17,19,Jits_Linear_5,1,5,63,98,1695624528
70,17,19,Jits_Linear_5,2,5,56,103,1695644988
70,17,19,Jits_Linear_5,3,5,80,127,1695685000
70,17,19,Jits_Linear_5,0,1,48,17,1696220684
70,17,19,Jits_Linear_5,1,5,56,103,1696304584
70,17,19,Jits_Linear_5,2,5,63,98,1696314840
70,17,19,Jits_Linear_5,3,5,80,127,1696394636
70,17,19,Jits_Linear_5,0,1,48,15,1696926360
70,17,19,Jits_Linear_5,1,5,63,98,1696964976
70,17,19,Jits_Linear_5,2,5,56,103,1696994580
70,17,19,Jits_Linear_5,3,5,80,127,1697034676
70,17,19,Jits_Linear_5,0,1,48,14,1697614724
70,17,19,Jits_Linear_5,1,5,56,103,1697634532
70,17,19,Jits_Linear_5,2,5,63,98,1697674696
70,17,19,Jits_Linear_5,3,5,80,127,1697715368
70,17,19,Jits_Linear_5,0,1,48,21,1698258764
70,17,19,Jits_Linear_5,1,5,80,127,1698314568
70,17,19,Jits_Linear_5,2,5,56,103,1698394500
70,17,19,Jits_Linear_5,3,5,63,98,1698404624
70,17,19,Jits_Linear_5,0,1,48,18,1698970956
70,17,19,Jits_Linear_5,1,5,56,103,1699034672
70,17,19,Jits_Linear_5,2,5,63,98,1699037668
70,17,19,Jits_Linear_5,3,5,80,127,1699044648
70,17,19,Jits_Linear_5,0,1,48,18,1699659756
70,17,19,Jits_Linear_5,1,5,56,103,1699734868
70,17,19,Jits_Linear_5,2,5,63,98,1699755552
70,17,19,Jits_Linear_5,3,5,80,127,1699764688
70,17,19,Jits_Linear_5,0,1,48,19,1700370300
70,17,19,Jits_Linear_5,1,5,63,98,1700374984
70,17,19,Jits_Linear_5,2,5,80,127,1700385256
70,17,19,Jits_Linear_5,3,5,56,103,1700404520
70,17,19,Jits_Linear_5,0,1,48,27,1701035572
70,17,19,Jits_Linear_5,1,5,63,98,1701065116
70,17,19,Jits_Linear_5,2,5,56,103,1701144924
70,17,19,Jits_Linear_5,3,5,80,127,1701147988
70,17,19,Jits_Linear_5,0,1,48,33,1701745204
70,17,19,Jits_Linear_5,1,5,63,98,1701755492
70,17,19,Jits_Linear_5,2,5,56,103,1701774684
70,17,19,Jits_Linear_5,3,5,80,127,1701805480
70,17,19,Jits_Linear_5,0,1,48,35,1702441044
70,17,19,Jits_Linear_5,1,5,56,103,1702445644
70,17,19,Jits_Linear_5,2,5,63,98,1702464912
70,17,19,Jits_Linear_5,3,5,80,127,1702475108
70,17,19,Jits_Linear_5,0,1,48,32,1703154964
70,17,19,Jits_Linear_5,1,5,56,103,1703165248
70,17,19,Jits_Linear_5,2,5,63,98,1703195000
70,17,19,Jits_Linear_5,3,5,80,127,1703198436
70,17,19,Jits_Linear_5,0,5,56,103,1703805484
70,17,19,Jits_Linear_5,1,1,48,30,1703828160
70,17,19,Jits_Linear_5,2,5,63,98,1703845420
70,17,19,Jits_Linear_5,3,5,80,127,1703904692
70,17,19,Jits_Linear_5,0,1,48,30,1704497508
70,17,19,Jits_Linear_5,1,5,56,103,1704514992
70,17,19,Jits_Linear_5,2,5,63,98,1704525116
70,17,19,Jits_Linear_5,3,5,80,127,1704584608
70,17,19,Jits_Linear_5,0,1,48,33,1705177072
70,17,19,Jits_Linear_5,1,5,56,103,1705215636
70,17,19,Jits_Linear_5,2,5,80,127,1705234752
70,17,19,Jits_Linear_5,3,5,63,98,1705264504
70,17,19,Jits_Linear_5,0,1,48,34,1705857936
70,17,19,Jits_Linear_5,1,5,80,127,1705914688
70,17,19,Jits_Linear_5,2,5,56,103,1705924960
70,17,19,Jits_Linear_5,3,5,63,98,1705944300
70,17,19,Jits_Linear_5,0,1,48,35,1706580904
70,17,19,Jits_Linear_5,1,5,63,98,1706604992
70,17,19,Jits_Linear_5,2,5,80,127,1706684852
70,17,19,Jits_Linear_5,3,5,56,103,1706694972
70,17,19,Jits_Linear_5,0,1,48,35,1707299760
70,17,19,Jits_Linear_5,1,5,80,127,1707364832
70,17,19,Jits_Linear_5,2,5,56,103,1707385668
70,17,19,Jits_Linear_5,3,5,63,98,1707388504
70,17,19,Jits_Linear_5,0,1,48,28,1708039744
70,17,19,Jits_Linear_5,1,5,63,98,1708044648
70,17,19,Jits_Linear_5,2,5,80,127,1708047936
70,17,19,Jits_Linear_5,3,5,56,103,1708105036
70,17,19,Jits_Linear_5,0,1,48,29,1708730240
70,17,19,Jits_Linear_5,1,5,56,103,1708734848
70,17,19,Jits_Linear_5,2,5,80,127,1708745268
70,17,19,Jits_Linear_5,3,5,63,98,1708785228
70,17,19,Jits_Linear_5,0,5,56,103,1709424936
70,17,19,Jits_Linear_5,1,1,48,27,1709439812
70,17,19,Jits_Linear_5,2,5,63,98,1709485324
70,17,19,Jits_Linear_5,3,5,80,127,1709494772
70,17,19,Jits_Linear_5,0,1,48,33,1710123768
70,17,19,Jits_Linear_5,1,5,63,98,1710144772
70,17,19,Jits_Linear_5,2,5,80,127,1710184716
70,17,19,Jits_Linear_5,3,5,56,103,1710224712
70,17,19,Jits_Linear_5,0,1,48,34,1710853516
70,17,19,Jits_Linear_5,1,5,56,103,1710855080
70,17,19,Jits_Linear_5,2,5,63,98,1710935480
70,17,19,Jits_Linear_5,3,5,80,127,1710938768
70,17,19,Jits_Linear_5,0,1,48,35,1711543320
70,17,19,Jits_Linear_5,1,5,80,127,1711624436
70,17,19,Jits_Linear_5,2,5,56,103,1711655516
70,17,19,Jits_Linear_5,3,5,63,98,1711658356
70,17,19,Jits_Linear_5,0,1,48,32,1712279988
70,17,19,Jits_Linear_5,1,5,56,103,1712304524
70,17,19,Jits_Linear_5,2,5,80,127,1712324836
70,17,19,Jits_Linear_5,3,5,63,98,1712364848
70,17,19,Jits_Linear_5,0,1,48,34,1712979512
70,17,19,Jits_Linear_5,1,5,80,127,1713015360
70,17,19,Jits_Linear_5,2,5,63,98,1713034552
70,17,19,Jits_Linear_5,3,5,56,103,1713095296
70,17,19,Jits_Linear_5,0,1,48,34,1713717176
70,17,19,Jits_Linear_5,1,5,63,98,1713745376
70,17,19,Jits_Linear_5,2,5,56,103,1713754528
70,17,19,Jits_Linear_5,3,5,80,127,1713804656
70,17,19,Jits_Linear_5,0,1,48,31,1714418052
70,17,19,Jits_Linear_5,1,5,56,103,1714454868
70,17,19,Jits_Linear_5,2,5,63,98,1714475328
70,17,19,Jits_Linear_5,3,5,80,127,1714484628
70,17,19,Jits_Linear_5,0,1,48,29,1715144524
70,17,19,Jits_Linear_5,1,5,56,103,1715174816
70,17,19,Jits_Linear_5,2,5,63,98,1715177732
70,17,19,Jits_Linear_5,3,5,80,127,1715195376
70,17,19,Jits_Linear_5,0,1,48,34,1715880808
70,17,19,Jits_Linear_5,1,5,63,98,1715944908
70,17,19,Jits_Linear_5,2,5,56,103,1715975420
70,17,19,Jits_Linear_5,3,5,80,127,1716005172
70,17,19,Jits_Linear_5,0,5,80,127,1716635076
70,17,19,Jits_Linear_5,1,1,48,31,1716668540
70,17,19,Jits_Linear_5,2,5,56,103,1716725304
70,17,19,Jits_Linear_5,3,5,63,98,1716728368
70,17,19,Jits_Linear_5,0,5,56,103,1717365172
70,17,19,Jits_Linear_5,1,5,80,127,1717368388
70,17,19,Jits_Linear_5,2,1,48,33,1717382984
70,17,19,Jits_Linear_5,3,5,63,98,1717445188
70,17,19,Jits_Linear_5,0,1,48,32,1718037544
70,17,19,Jits_Linear_5,1,5,80,127,1718095336
70,17,19,Jits_Linear_5,2,5,63,98,1718154744
70,17,19,Jits_Linear_5,3,5,56,103,1718185244
70,17,19,Jits_Linear_5,0,1,48,35,1718782828
70,17,19,Jits_Linear_5,1,5,63,98,1718825276
70,17,19,Jits_Linear_5,2,5,80,127,1718834504
70,17,19,Jits_Linear_5,3,5,56,103,1718905440
70,17,19,Jits_Linear_5,0,1,48,32,1719542912
70,17,19,Jits_Linear_5,1,5,56,103,1719575000
70,17,19,Jits_Linear_5,2,5,80,127,1719604528
70,17,19,Jits_Linear_5,3,5,63,98,1719654640
70,17,19,Jits_Linear_5,0,1,48,31,1720260828
70,17,19,Jits_Linear_5,1,5,63,98,1720355276
70,17,19,Jits_Linear_5,2,5,56,103,1720385024
70,17,19,Jits_Linear_5,3,5,80,127,1720388016
70,17,19,Jits_Linear_5,0,1,48,32,1721040884
70,17,19,Jits_Linear_5,1,5,63,98,1721094448
70,17,19,Jits_Linear_5,2,5,80,127,1721115128
70,17,19,Jits_Linear_5,3,5,56,103,1721125176
70,17,19,Jits_Linear_5,0,1,48,32,1721776680
70,17,19,Jits_Linear_5,1,5,56,103,1721845212
70,17,19,Jits_Linear_5,2,5,63,98,1721848352
70,17,19,Jits_Linear_5,3,5,80,127,1721864476
70,17,19,Jits_Linear_5,0,1,48,31,1722540328
70,17,19,Jits_Linear_5,1,5,56,103,1722544480
70,17,19,Jits_Linear_5,2,5,63,98,1722554828
70,17,19,Jits_Linear_5,3,5,80,127,1722584504
70,17,19,Jits_Linear_5,0,1,48,28,1723229056
70,17,19,Jits_Linear_5,1,5,63,98,1723314508
70,17,19,Jits_Linear_5,2,5,80,127,1723335100
70,17,19,Jits_Linear_5,3,5,56,103,1723375064
70,17,19,Jits_Linear_5,0,1,48,26,1723989196
70,17,19,Jits_Linear_5,1,5,56,103,1724094932
70,17,19,Jits_Linear_5,2,5,63,98,1724134644
70,17,19,Jits_Linear_5,3,5,80,127,1724138012
70,17,19,Jits_Linear_5,0,5,80,127,1724785104
70,17,19,Jits_Linear_5,1,1,48,23,1724786072
70,17,19,Jits_Linear_5,2,5,56,103,1724824892
70,17,19,Jits_Linear_5,3,5,63,98,1724875020
70,17,19,Jits_Linear_5,0,1,48,28,1725565608
70,17,19,Jits_Linear_5,1,5,56,103,1725595076
70,17,19,Jits_Linear_5,2,5,80,127,1725605200
70,17,19,Jits_Linear_5,3,5,63,98,1725635024
70,17,19,Jits_Linear_5,0,5,56,103,1726295284
70,17,19,Jits_Linear_5,1,1,48,26,1726329716
70,17,19,Jits_Linear_5,2,5,80,127,1726335368
70,17,19,Jits_Linear_5,3,5,63,98,1726384376
70,17,19,Jits_Linear_5,0,1,48,29,1727048356
70,17,19,Jits_Linear_5,1,5,56,103,1727055280
70,17,19,Jits_Linear_5,2,5,80,127,1727095296
70,17,19,Jits_Linear_5,3,5,63,98,1727145260
70,17,19,Jits_Linear_5,0,1,48,32,1727784152
70,17,19,Jits_Linear_5,1,5,80,127,1727805000
70,17,19,Jits_Linear_5,2,5,63,98,1727884564
70,17,19,Jits_Linear_5,3,5,56,103,1727894908
70,17,19,Jits_Linear_5,0,1,48,26,1728586460
70,17,19,Jits_Linear_5,1,5,80,127,1728614956
70,17,19,Jits_Linear_5,2,5,56,103,1728625156
70,17,19,Jits_Linear_5,3,5,63,98,1728644344
70,17,19,Jits_Linear_5,0,1,48,31,1729327036
70,17,19,Jits_Linear_5,1,5,63,98,1729344976
70,17,19,Jits_Linear_5,2,5,56,103,1729414508
70,17,19,Jits_Linear_5,3,5,80,127,1729417576
70,17,19,Jits_Linear_5,0,1,48,26,1730102220
70,17,19,Jits_Linear_5,1,5,80,127,1730104884
70,17,19,Jits_Linear_5,2,5,63,98,1730155012
70,17,19,Jits_Linear_5,3,5,56,103,1730194952
70,17,19,Jits_Linear_5,0,1,48,34,1730858176
70,17,19,Jits_Linear_5,1,5,63,98,1730914776
70,17,19,Jits_Linear_5,2,5,56,103,1730954716
70,17,19,Jits_Linear_5,3,5,80,127,1730964972
70,17,19,Jits_Linear_5,0,5,63,98,1731674400
70,17,19,Jits_Linear_5,1,1,48,30,1731679608
70,17,19,Jits_Linear_5,2,5,56,103,1731694928
70,17,19,Jits_Linear_5,3,5,80,127,1731714564
70,17,19,Jits_Linear_5,0,5,80,127,1732404712
70,17,19,Jits_Linear_5,1,5,56,103,1732414912
70,17,19,Jits_Linear_5,2,5,63,98,1732435296
70,17,19,Jits_Linear_5,3,1,48,32,1732455420
70,17,19,Jits_Linear_5,0,1,48,31,1733194800
70,17,19,Jits_Linear_5,1,5,63,98,1733205308
70,17,19,Jits_Linear_5,2,5,56,103,1733245176
70,17,19,Jits_Linear_5,3,5,80,127,1733274852
70,17,19,Jits_Linear_5,0,5,56,103,1733984632
70,17,19,Jits_Linear_5,1,1,48,29,1734001756
70,17,19,Jits_Linear_5,2,5,63,98,1734015276
70,17,19,Jits_Linear_5,3,5,80,127,1734045024
70,17,19,Jits_Linear_5,0,5,80,127,1734735120
70,17,19,Jits_Linear_5,1,1,48,27,1734779216
70,17,19,Jits_Linear_5,2,5,56,103,1734805092
70,17,19,Jits_Linear_5,3,5,63,98,1734808156
70,17,19,Jits_Linear_5,0,5,56,103,1735524856
70,17,19,Jits_Linear_5,1,1,48,23,1735541080
70,17,19,Jits_Linear_5,2,5,63,98,1735574756
70,17,19,Jits_Linear_5,3,5,80,127,1735604656
70,17,19,Jits_Linear_5,0,5,63,98,1736284556
70,17,19,Jits_Linear_5,1,5,80,127,1736287772
70,17,19,Jits_Linear_5,2,1,48,22,1736316668
70,17,19,Jits_Linear_5,3,5,56,103,1736345092
70,17,19,Jits_Linear_5,0,1,48,25,1737085484
70,17,19,Jits_Linear_5,1,5,56,103,1737094724
70,17,19,Jits_Linear_5,2,5,80,127,1737104920
70,17,19,Jits_Linear_5,3,5,63,98,1737154976
70,17,19,Jits_Linear_5,0,5,63,98,1737855240
70,17,19,Jits_Linear_5,1,1,48,25,1737860304
70,17,19,Jits_Linear_5,2,5,56,103,1737864684
70,17,19,Jits_Linear_5,3,5,80,127,1737895184
70,17,19,Jits_Linear_5,0,1,48,27,1738631740
70,17,19,Jits_Linear_5,1,5,63,98,1738674708
70,17,19,Jits_Linear_5,2,5,80,127,1738677924
70,17,19,Jits_Linear_5,3,5,56,103,1738705132
70,17,19,Jits_Linear_5,0,1,48,28,1739418024
70,17,19,Jits_Linear_5,1,5,63,98,1739484660
70,17,19,Jits_Linear_5,2,5,56,103,1739505068
70,17,19,Jits_Linear_5,3,5,80,127,1739508208
70,17,19,Jits_Linear_5,0,1,48,24,1740226104
70,17,19,Jits_Linear_5,1,5,63,98,1740235120
70,17,19,Jits_Linear_5,2,5,56,103,1740304684
70,17,19,Jits_Linear_5,3,5,80,127,1740325276
70,17,19,Jits_Linear_5,0,5,56,103,1741015496
70,17,19,Jits_Linear_5,1,5,63,98,1741024720
70,17,19,Jits_Linear_5,2,1,48,23,1741032480
70,17,19,Jits_Linear_5,3,5,80,127,1741114724
70,17,19,Jits_Linear_5,0,1,48,24,1741800928
70,17,19,Jits_Linear_5,1,5,56,103,1741825336
70,17,19,Jits_Linear_5,2,5,80,127,1741865204
70,17,19,Jits_Linear_5,3,5,63,98,1741874724
70,17,19,Jits_Linear_5,0,1,48,29,1742626204
70,17,19,Jits_Linear_5,1,5,56,103,1742644812
70,17,19,Jits_Linear_5,2,5,63,98,1742675388
70,17,19,Jits_Linear_5,3,5,80,127,1742704988
70,17,19,Jits_Linear_5,0,5,80,127,1743405624
70,17,19,Jits_Linear_5,1,5,63,98,1743445492
70,17,19,Jits_Linear_5,2,1,48,29,1743461716
70,17,19,Jits_Linear_5,3,5,56,103,1743464824
70,17,19,Jits_Linear_5,0,1,48,25,1744241256
70,17,19,Jits_Linear_5,1,5,56,103,1744245040
70,17,19,Jits_Linear_5,2,5,80,127,1744264824
70,17,19,Jits_Linear_5,3,5,63,98,1744284984
70,17,19,Jits_Linear_5,0,5,63,98,1745015144
70,17,19,Jits_Linear_5,1,5,56,103,1745025488
70,17,19,Jits_Linear_5,2,1,48,28,1745063976
70,17,19,Jits_Linear_5,3,5,80,127,1745084824
70,17,19,Jits_Linear_5,0,5,56,103,1745825024
70,17,19,Jits_Linear_5,1,1,48,25,1745837732
70,17,19,Jits_Linear_5,2,5,63,98,1745894776
70,17,19,Jits_Linear_5,3,5,80,127,1745915112
70,17,19,Jits_Linear_5,0,1,48,25,1746612496
70,17,19,Jits_Linear_5,1,5,56,103,1746634992
70,17,19,Jits_Linear_5,2,5,63,98,1746664744
70,17,19,Jits_Linear_5,3,5,80,127,1746704708
70,17,19,Jits_Linear_5,0,5,63,98,1747434840
70,17,19,Jits_Linear_5,1,1,48,27,1747435808
70,17,19,Jits_Linear_5,2,5,56,103,1747484964
70,17,19,Jits_Linear_5,3,5,80,127,1747495236
70,17,19,Jits_Linear_5,0,1,48,21,1748240488
70,17,19,Jits_Linear_5,1,5,56,103,1748284800
70,17,19,Jits_Linear_5,2,5,63,98,1748334932
70,17,19,Jits_Linear_5,3,5,80,127,1748345188
70,17,19,Jits_Linear_5,0,1,48,19,1749067912
70,17,19,Jits_Linear_5,1,5,56,103,1749075504
70,17,19,Jits_Linear_5,2,5,63,98,1749084728
70,17,19,Jits_Linear_5,3,5,80,127,1749165648
70,17,19,Jits_Linear_5,0,9999,9999,9999,1640312896
70,17,19,Jits_Linear_5,1,9999,9999,9999,1640792148
70,17,19,Jits_Linear_5,2,9999,9999,9999,1641272432
70,17,19,Jits_Linear_5,3,9999,9999,9999,1641752648
70,17,19,Jits_Linear_5,4,9999,9999,9999,1642232932
70,17,19,Jits_Linear_5,5,9999,9999,9999,1642722412
70,17,19,Jits_Linear_5,6,9999,9999,9999,1643212880
70,17,19,Jits_Linear_5,7,9999,9999,9999,1643702372
70,17,19,Jits_Linear_5,8,9999,9999,9999,1644192860
70,17,19,Jits_Linear_5,9,9999,9999,9999,1644682296
70,17,19,Jits_Linear_5,10,9999,9999,9999,1645183044
70,17,19,Jits_Linear_5,11,9999,9999,9999,1645682748
70,17,19,Jits_Linear_5,12,9999,9999,9999,1646182504
70,17,19,Jits_Linear_5,13,9999,9999,9999,1646682192
70,17,19,Jits_Linear_5,14,9999,9999,9999,1647182924
70,17,19,Jits_Linear_5,15,9999,9999,9999,1647692888
70,17,19,Jits_Linear_5,16,9999,9999,9999,1648202856
70,17,19,Jits_Linear_5,17,9999,9999,9999,1648712804
70,17,19,Jits_Linear_5,18,9999,9999,9999,1649222768
70,17,19,Jits_Linear_5,19,9999,9999,9999,1649732736
70,17,19,Jits_Linear_5,20,9999,9999,9999,1650252892
70,17,19,Jits_Linear_5,21,9999,9999,9999,1650773120
70,17,19,Jits_Linear_5,22,9999,9999,9999,1651292224
70,17,19,Jits_Linear_5,23,9999,9999,9999,1651812440
70,17,19,Jits_Linear_5,24,9999,9999,9999,1652332600
70,17,19,Jits_Linear_5,25,9999,9999,9999,1652863084
70,17,19,Jits_Linear_5,26,9999,9999,9999,1653392444
70,17,19,Jits_Linear_5,27,9999,9999,9999,1653922916
70,17,19,Jits_Linear_5,28,9999,9999,9999,1654452292
70,17,19,Jits_Linear_5,29,9999,9999,9999,1654982768
70,17,19,Jits_Linear_5,30,9999,9999,9999,1655522388
70,17,19,Jits_Linear_5,31,9999,9999,9999,1656063080
70,17,19,Jits_Linear_5,32,9999,9999,9999,1656602700
70,17,19,Jits_Linear_5,33,9999,9999,9999,1657142396
70,17,19,Jits_Linear_5,34,9999,9999,9999,1657683060
70,17,19,Jits_Linear_5,35,9999,9999,9999,1658232948
70,17,19,Jits_Linear_5,36,9999,9999,9999,1658782820
70,17,19,Jits_Linear_5,37,9999,9999,9999,1659332708
70,17,19,Jits_Linear_5,38,9999,9999,9999,1659882592
70,17,19,Jits_Linear_5,39,9999,9999,9999,1660432500
70,17,19,Jits_Linear_5,40,9999,9999,9999,1660992576
70,17,19,Jits_Linear_5,41,9999,9999,9999,1661552736
70,17,19,Jits_Linear_5,42,9999,9999,9999,1662112824
70,17,19,Jits_Linear_5,43,9999,9999,9999,1662672968
70,17,19,Jits_Linear_5,44,9999,9999,9999,1663232088
70,17,19,Jits_Linear_5,45,9999,9999,9999,1663802428
70,17,19,Jits_Linear_5,46,9999,9999,9999,1664372836
70,17,19,Jits_Linear_5,47,9999,9999,9999,1664942208
70,17,19,Jits_Linear_5,48,9999,9999,9999,1665512548
70,17,19,Jits_Linear_5,49,9999,9999,9999,1666082908
70,17,19,Jits_Linear_5,50,9999,9999,9999,1666662528
70,17,19,Jits_Linear_5,51,9999,9999,9999,1667243068
70,17,19,Jits_Linear_5,52,9999,9999,9999,1667832912
70,17,19,Jits_Linear_5,53,9999,9999,9999,1668412544
70,17,19,Jits_Linear_5,54,9999,9999,9999,1668992096
70,17,19,Jits_Linear_5,55,9999,9999,9999,1669582904
70,17,19,Jits_Linear_5,56,9999,9999,9999,1670172744
70,17,19,Jits_Linear_5,57,9999,9999,9999,1670762572
70,17,19,Jits_Linear_5,58,9999,9999,9999,1671352392
70,17,19,Jits_Linear_5,59,9999,9999,9999,1671942224
70,17,19,Jits_Linear_5,60,9999,9999,9999,1672542320
70,17,19,Jits_Linear_5,61,9999,9999,9999,1673142396
70,17,19,Jits_Linear_5,62,9999,9999,9999,1673742428
70,17,19,Jits_Linear_5,63,9999,9999,9999,1674342508
70,17,19,Jits_Linear_5,64,9999,9999,9999,1674942592
70,17,19,Jits_Linear_5,65,9999,9999,9999,1675552884
70,17,19,Jits_Linear_5,66,9999,9999,9999,1676162108
70,17,19,Jits_Linear_5,67,9999,9999,9999,1676772440
70,17,19,Jits_Linear_5,68,9999,9999,9999,1677382740
70,17,19,Jits_Linear_5,69,9999,9999,9999,1677993016
70,17,19,Jits_Linear_5,70,9999,9999,9999,1678612592
70,17,19,Jits_Linear_5,71,9999,9999,9999,1679232076
70,17,19,Jits_Linear_5,72,9999,9999,9999,1679852608
70,17,19,Jits_Linear_5,73,9999,9999,9999,1680472184
70,17,19,Jits_Linear_5,74,9999,9999,9999,1681092716
70,17,19,Jits_Linear_5,75,9999,9999,9999,1681722488
70,17,19,Jits_Linear_5,76,9999,9999,9999,1682352240
70,17,19,Jits_Linear_5,77,9999,9999,9999,1682982988
70,17,19,Jits_Linear_5,78,9999,9999,9999,1683612752
70,17,19,Jits_Linear_5,79,9999,9999,9999,1684242524
70,17,19,Jits_Linear_5,80,9999,9999,9999,1684882536
70,17,19,Jits_Linear_5,81,9999,9999,9999,1685522504
70,17,19,Jits_Linear_5,82,9999,9999,9999,1686162512
70,17,19,Jits_Linear_5,83,9999,9999,9999,1686802548
70,17,19,Jits_Linear_5,84,9999,9999,9999,1687442508
70,17,19,Jits_Linear_5,85,9999,9999,9999,1688092728
70,17,19,Jits_Linear_5,86,9999,9999,9999,1688743004
70,17,19,Jits_Linear_5,87,9999,9999,9999,1689392184
70,17,19,Jits_Linear_5,88,9999,9999,9999,1690042460
70,17,19,Jits_Linear_5,89,9999,9999,9999,1690692680
70,17,19,Jits_Linear_5,90,9999,9999,9999,1691352172
70,17,19,Jits_Linear_5,91,9999,9999,9999,1692012656
70,17,19,Jits_Linear_5,92,9999,9999,9999,1692672088
70,17,19,Jits_Linear_5,93,9999,9999,9999,1693332556
70,17,19,Jits_Linear_5,94,9999,9999,9999,1693993040
70,17,19,Jits_Linear_5,95,9999,9999,9999,1694662724
70,17,19,Jits_Linear_5,96,9999,9999,9999,1695332428
70,17,19,Jits_Linear_5,97,9999,9999,9999,1696002132
70,17,19,Jits_Linear_5,98,9999,9999,9999,1696672860
70,17,19,Jits_Linear_5,99,9999,9999,9999,1697342568
70,17,19,Jits_Linear_5,100,9999,9999,9999,1698022512
70,17,19,Jits_Linear_5,101,9999,9999,9999,1698702404
70,17,19,Jits_Linear_5,102,9999,9999,9999,1699382368
70,17,19,Jits_Linear_5,103,9999,9999,9999,1700062316
70,17,19,Jits_Linear_5,104,9999,9999,9999,1700742208
70,17,19,Jits_Linear_5,105,9999,9999,9999,1701432440
70,17,19,Jits_Linear_5,106,9999,9999,9999,1702122572
70,17,19,Jits_Linear_5,107,9999,9999,9999,1702812800
70,17,19,Jits_Linear_5,108,9999,9999,9999,1703502952
70,17,19,Jits_Linear_5,109,9999,9999,9999,1704192068
70,17,19,Jits_Linear_5,110,9999,9999,9999,1704892484
70,17,19,Jits_Linear_5,111,9999,9999,9999,1705592904
70,17,19,Jits_Linear_5,112,9999,9999,9999,1706292352
70,17,19,Jits_Linear_5,113,9999,9999,9999,1706992700
70,17,19,Jits_Linear_5,114,9999,9999,9999,1707692120
70,17,19,Jits_Linear_5,115,9999,9999,9999,1708402800
70,17,19,Jits_Linear_5,116,9999,9999,9999,1709112436
70,17,19,Jits_Linear_5,117,9999,9999,9999,1709823048
70,17,19,Jits_Linear_5,118,9999,9999,9999,1710532676
70,17,19,Jits_Linear_5,119,9999,9999,9999,1711242312
70,17,19,Jits_Linear_5,120,9999,9999,9999,1711962212
70,17,19,Jits_Linear_5,121,9999,9999,9999,1712683088
70,17,19,Jits_Linear_5,122,9999,9999,9999,1713412208
70,17,19,Jits_Linear_5,123,9999,9999,9999,1714133060
70,17,19,Jits_Linear_5,124,9999,9999,9999,1714852956
70,17,19,Jits_Linear_5,125,9999,9999,9999,1715583036
70,17,19,Jits_Linear_5,126,9999,9999,9999,1716312164
70,17,19,Jits_Linear_5,127,9999,9999,9999,1717042248
70,17,19,Jits_Linear_5,128,9999,9999,9999,1717772344
70,17,19,Jits_Linear_5,129,9999,9999,9999,1718502500
70,17,19,Jits_Linear_5,130,9999,9999,9999,1719242848
70,17,19,Jits_Linear_5,131,9999,9999,9999,1719982160
70,17,19,Jits_Linear_5,132,9999,9999,9999,1720722508
70,17,19,Jits_Linear_5,133,9999,9999,9999,1721462868
70,17,19,Jits_Linear_5,134,9999,9999,9999,1722202168
70,17,19,Jits_Linear_5,135,9999,9999,9999,1722952788
70,17,19,Jits_Linear_5,136,9999,9999,9999,1723702360
70,17,19,Jits_Linear_5,137,9999,9999,9999,1724452976
70,17,19,Jits_Linear_5,138,9999,9999,9999,1725202548
70,17,19,Jits_Linear_5,139,9999,9999,9999,1725952068
70,17,19,Jits_Linear_5,140,9999,9999,9999,1726712952
70,17,19,Jits_Linear_5,141,9999,9999,9999,1727472728
70,17,19,Jits_Linear_5,142,9999,9999,9999,1728232540
70,17,19,Jits_Linear_5,143,9999,9999,9999,1728992376
70,17,19,Jits_Linear_5,144,9999,9999,9999,1729752128
70,17,19,Jits_Linear_5,145,9999,9999,9999,1730522232
70,17,19,Jits_Linear_5,146,9999,9999,9999,1731292268
70,17,19,Jits_Linear_5,147,9999,9999,9999,1732062296
70,17,19,Jits_Linear_5,148,9999,9999,9999,1732832312
70,17,19,Jits_Linear_5,149,9999,9999,9999,1733602432
70,17,19,Jits_Linear_5,150,9999,9999,9999,1734382668
70,17,19,Jits_Linear_5,151,9999,9999,9999,1735162964
70,17,19,Jits_Linear_5,152,9999,9999,9999,1735942224
70,17,19,Jits_Linear_5,153,9999,9999,9999,1736722516
70,17,19,Jits_Linear_5,154,9999,9999,9999,1737502804
70,17,19,Jits_Linear_5,155,9999,9999,9999,1738292312
70,17,19,Jits_Linear_5,156,9999,9999,9999,1739082856
70,17,19,Jits_Linear_5,157,9999,9999,9999,1739872352
70,17,19,Jits_Linear_5,158,9999,9999,9999,1740662908
70,17,19,Jits_Linear_5,159,9999,9999,9999,1741452344
70,17,19,Jits_Linear_5,160,9999,9999,9999,1742252124
70,17,19,Jits_Linear_5,161,9999,9999,9999,1743052868
70,17,19,Jits_Linear_5,162,9999,9999,9999,1743852660
70,17,19,Jits_Linear_5,163,9999,9999,9999,1744652368
70,17,19,Jits_Linear_5,164,9999,9999,9999,1745452136
70,17,19,Jits_Linear_5,165,9999,9999,9999,1746262092
70,17,19,Jits_Linear_5,166,9999,9999,9999,1747072068
70,17,19,Jits_Linear_5,167,9999,9999,9999,1747883120
70,17,19,Jits_Linear_5,168,9999,9999,9999,1748702300
70,17,19,Jits_Linear_5,169,9999,9999,9999,1749512284
70,18,15,Jits_Phase_8,0,5,56,103,1758549376
70,18,15,Jits_Phase_8,1,5,63,98,1758552700
70,18,15,Jits_Phase_8,2,5,80,127,1758555600
70,18,15,Jits_Phase_8,0,5,56,103,1759349168
70,18,15,Jits_Phase_8,1,5,63,98,1759352416
70,18,15,Jits_Phase_8,2,5,80,127,1759355388
70,18,15,Jits_Phase_8,3,1,48,23,1759411264
70,18,15,Jits_Phase_8,0,5,80,127,1760088332
70,18,15,Jits_Phase_8,1,1,48,30,1760125828
70,18,15,Jits_Phase_8,2,5,63,98,1760178684
70,18,15,Jits_Phase_8,3,5,56,103,1760188732
70,18,15,Jits_Phase_8,0,5,56,103,1760908632
70,18,15,Jits_Phase_8,1,5,63,98,1760918828
70,18,15,Jits_Phase_8,2,1,48,29,1760950344
70,18,15,Jits_Phase_8,3,5,80,127,1761008976
70,18,15,Jits_Phase_8,0,5,63,98,1761678812
70,18,15,Jits_Phase_8,1,1,48,29,1761695860
70,18,15,Jits_Phase_8,2,5,80,127,1761709376
70,18,15,Jits_Phase_8,3,5,56,103,1761739200
70,18,15,Jits_Phase_8,0,1,48,27,1762460616
70,18,15,Jits_Phase_8,1,5,56,103,1762478556
70,18,15,Jits_Phase_8,2,5,80,127,1762578740
70,18,15,Jits_Phase_8,3,5,63,98,1762629088
70,18,15,Jits_Phase_8,0,5,56,103,1763279292
70,18,15,Jits_Phase_8,1,5,80,127,1763329372
70,18,15,Jits_Phase_8,2,5,63,98,1763369308
70,18,15,Jits_Phase_8,3,1,48,24,1763371248
70,18,15,Jits_Phase_8,0,1,48,25,1764057976
70,18,15,Jits_Phase_8,1,5,80,127,1764108672
70,18,15,Jits_Phase_8,2,5,63,98,1764139324
70,18,15,Jits_Phase_8,3,5,56,103,1764208988
70,18,15,Jits_Phase_8,0,1,48,22,1764916264
70,18,15,Jits_Phase_8,1,5,63,98,1764939224
70,18,15,Jits_Phase_8,2,5,56,103,1764968752
70,18,15,Jits_Phase_8,3,5,80,127,1765029272
70,18,15,Jits_Phase_8,0,5,56,103,1765678448
70,18,15,Jits_Phase_8,1,5,80,127,1765681364
70,18,15,Jits_Phase_8,2,1,48,21,1765751160
70,18,15,Jits_Phase_8,3,5,63,98,1765799508
70,18,15,Jits_Phase_8,0,1,48,20,1766401528
70,18,15,Jits_Phase_8,1,5,56,103,1766559176
70,18,15,Jits_Phase_8,2,5,80,127,1766599192
70,18,15,Jits_Phase_8,3,5,63,98,1766609388
70,18,15,Jits_Phase_8,0,5,56,103,1767318800
70,18,15,Jits_Phase_8,1,1,48,24,1767323412
70,18,15,Jits_Phase_8,2,5,80,127,1767339404
70,18,15,Jits_Phase_8,3,5,63,98,1767419428
70,18,15,Jits_Phase_8,0,5,80,127,1768109508
70,18,15,Jits_Phase_8,1,1,48,19,1768152708
70,18,15,Jits_Phase_8,2,5,56,103,1768208728
70,18,15,Jits_Phase_8,3,5,63,98,1768218924
70,18,15,Jits_Phase_8,0,5,63,98,1768878344
70,18,15,Jits_Phase_8,1,5,80,127,1768938984
70,18,15,Jits_Phase_8,2,5,56,103,1768949180
70,18,15,Jits_Phase_8,3,1,48,20,1768963240
70,18,15,Jits_Phase_8,0,1,48,20,1769666220
70,18,15,Jits_Phase_8,1,5,56,103,1769679292
70,18,15,Jits_Phase_8,2,5,63,98,1769748848
70,18,15,Jits_Phase_8,3,5,80,127,1769752360
70,18,15,Jits_Phase_8,0,1,48,19,1770485920
70,18,15,Jits_Phase_8,1,5,63,98,1770508584
70,18,15,Jits_Phase_8,2,5,56,103,1770558784
70,18,15,Jits_Phase_8,3,5,80,127,1770561700
70,18,15,Jits_Phase_8,0,5,56,103,1771268320
70,18,15,Jits_Phase_8,1,5,80,127,1771271464
70,18,15,Jits_Phase_8,2,1,48,20,1771319764
70,18,15,Jits_Phase_8,3,5,63,98,1771358524
70,18,15,Jits_Phase_8,0,5,63,98,1772109280
70,18,15,Jits_Phase_8,1,1,48,20,1772127016
70,18,15,Jits_Phase_8,2,5,56,103,1772199184
70,18,15,Jits_Phase_8,3,5,80,127,1772229068
70,18,15,Jits_Phase_8,0,5,56,103,1772898628
70,18,15,Jits_Phase_8,1,1,48,21,1772911788
70,18,15,Jits_Phase_8,2,5,63,98,1772999244
70,18,15,Jits_Phase_8,3,5,80,127,1773028828
70,18,15,Jits_Phase_8,0,5,63,98,1773718932
70,18,15,Jits_Phase_8,1,5,56,103,1773729052
70,18,15,Jits_Phase_8,2,1,48,26,1773740564
70,18,15,Jits_Phase_8,3,5,80,127,1773819204
70,18,15,Jits_Phase_8,0,1,48,30,1774523000
70,18,15,Jits_Phase_8,1,5,63,98,1774539064
70,18,15,Jits_Phase_8,2,5,56,103,1774619240
70,18,15,Jits_Phase_8,3,5,80,127,1774622236
70,18,15,Jits_Phase_8,0,5,80,127,1775299116
70,18,15,Jits_Phase_8,1,5,63,98,1775319356
70,18,15,Jits_Phase_8,2,1,48,24,1775340180
70,18,15,Jits_Phase_8,3,5,56,103,1775379012
70,18,15,Jits_Phase_8,0,1,48,24,1776133864
70,18,15,Jits_Phase_8,1,5,56,103,1776138616
70,18,15,Jits_Phase_8,2,5,63,98,1776159076
70,18,15,Jits_Phase_8,3,5,80,127,1776162292
70,18,15,Jits_Phase_8,0,5,63,98,1776879184
70,18,15,Jits_Phase_8,1,1,48,22,1776938424
70,18,15,Jits_Phase_8,2,5,80,127,1776959048
70,18,15,Jits_Phase_8,3,5,56,103,1776969096
70,18,15,Jits_Phase_8,0,1,48,20,1777699244
70,18,15,Jits_Phase_8,1,5,63,98,1777700656
70,18,15,Jits_Phase_8,2,5,56,103,1777718724
70,18,15,Jits_Phase_8,3,5,80,127,1777768924
70,18,15,Jits_Phase_8,0,5,80,127,1778499140
70,18,15,Jits_Phase_8,1,1,48,22,1778508112
70,18,15,Jits_Phase_8,2,5,63,98,1778539000
70,18,15,Jits_Phase_8,3,5,56,103,1778559384
70,18,15,Jits_Phase_8,0,5,56,103,1779338548
70,18,15,Jits_Phase_8,1,1,48,20,1779341216
70,18,15,Jits_Phase_8,2,5,63,98,1779348960
70,18,15,Jits_Phase_8,3,5,80,127,1779369272
70,18,15,Jits_Phase_8,0,5,56,103,1780069016
70,18,15,Jits_Phase_8,1,1,48,23,1780109224
70,18,15,Jits_Phase_8,2,5,63,98,1780158848
70,18,15,Jits_Phase_8,3,5,80,127,1780219244
70,18,15,Jits_Phase_8,0,1,48,20,1780885084
70,18,15,Jits_Phase_8,1,5,80,127,1780899128
70,18,15,Jits_Phase_8,2,5,56,103,1780909400
70,18,15,Jits_Phase_8,3,5,63,98,1780979012
70,18,15,Jits_Phase_8,0,1,48,23,1781687920
70,18,15,Jits_Phase_8,1,5,63,98,1781728552
70,18,15,Jits_Phase_8,2,5,80,127,1781818924
70,18,15,Jits_Phase_8,3,5,56,103,1781829044
70,18,15,Jits_Phase_8,0,5,63,98,1782458800
70,18,15,Jits_Phase_8,1,5,80,127,1782509100
70,18,15,Jits_Phase_8,2,1,48,19,1782549980
70,18,15,Jits_Phase_8,3,5,56,103,1782569260
70,18,15,Jits_Phase_8,0,5,56,103,1783278884
70,18,15,Jits_Phase_8,1,1,48,21,1783286960
70,18,15,Jits_Phase_8,2,5,80,127,1783329156
70,18,15,Jits_Phase_8,3,5,63,98,1783348568
70,18,15,Jits_Phase_8,0,5,56,103,1784049060
70,18,15,Jits_Phase_8,1,1,48,19,1784061840
70,18,15,Jits_Phase_8,2,5,80,127,1784109444
70,18,15,Jits_Phase_8,3,5,63,98,1784179108
70,18,15,Jits_Phase_8,0,1,48,24,1784834704
70,18,15,Jits_Phase_8,1,5,56,103,1784848748
70,18,15,Jits_Phase_8,2,5,80,127,1784878500
70,18,15,Jits_Phase_8,3,5,63,98,1784909148
70,18,15,Jits_Phase_8,0,1,48,21,1785625388
70,18,15,Jits_Phase_8,1,5,56,103,1785688360
70,18,15,Jits_Phase_8,2,5,80,127,1785708968
70,18,15,Jits_Phase_8,3,5,63,98,1785769344
70,18,15,Jits_Phase_8,0,1,48,23,1786434064
70,18,15,Jits_Phase_8,1,5,80,127,1786568944
70,18,15,Jits_Phase_8,2,5,56,103,1786579288
70,18,15,Jits_Phase_8,3,5,63,98,1786588512
70,18,15,Jits_Phase_8,0,5,56,103,1787328868
70,18,15,Jits_Phase_8,1,5,80,127,1787368884
70,18,15,Jits_Phase_8,2,1,48,23,1787382216
70,18,15,Jits_Phase_8,3,5,63,98,1787398724
70,18,15,Jits_Phase_8,0,5,56,103,1788099052
70,18,15,Jits_Phase_8,1,5,63,98,1788128800
70,18,15,Jits_Phase_8,2,5,80,127,1788168764
70,18,15,Jits_Phase_8,3,1,48,24,1788173604
70,18,15,Jits_Phase_8,0,5,80,127,1788848624
70,18,15,Jits_Phase_8,1,1,48,24,1788868604
70,18,15,Jits_Phase_8,2,5,63,98,1788898820
70,18,15,Jits_Phase_8,3,5,56,103,1788919008
70,18,15,Jits_Phase_8,0,1,48,22,1789658184
70,18,15,Jits_Phase_8,1,5,56,103,1789678980
70,18,15,Jits_Phase_8,2,5,80,127,1789748588
70,18,15,Jits_Phase_8,3,5,63,98,1789808964
70,18,15,Jits_Phase_8,0,5,80,127,1790478824
70,18,15,Jits_Phase_8,1,1,48,26,1790557768
70,18,15,Jits_Phase_8,2,5,63,98,1790568804
70,18,15,Jits_Phase_8,3,5,56,103,1790589260
70,18,15,Jits_Phase_8,0,5,63,98,1791299052
70,18,15,Jits_Phase_8,1,5,56,103,1791319288
70,18,15,Jits_Phase_8,2,5,80,127,1791359448
70,18,15,Jits_Phase_8,3,1,48,24,1791419808
70,18,15,Jits_Phase_8,0,5,80,127,1792058728
70,18,15,Jits_Phase_8,1,5,63,98,1792079264
70,18,15,Jits_Phase_8,2,1,48,24,1792149660
70,18,15,Jits_Phase_8,3,5,56,103,1792159124
70,18,15,Jits_Phase_8,0,5,63,98,1792849128
70,18,15,Jits_Phase_8,1,5,56,103,1792958964
70,18,15,Jits_Phase_8,2,5,80,127,1792961808
70,18,15,Jits_Phase_8,3,1,48,26,1792969652
70,18,15,Jits_Phase_8,0,5,63,98,1793668652
70,18,15,Jits_Phase_8,1,5,56,103,1793678772
70,18,15,Jits_Phase_8,2,5,80,127,1793681764
70,18,15,Jits_Phase_8,3,1,48,31,1793729312
70,18,15,Jits_Phase_8,0,5,56,103,1794448616
70,18,15,Jits_Phase_8,1,1,48,29,1794491816
70,18,15,Jits_Phase_8,2,5,80,127,1794568660
70,18,15,Jits_Phase_8,3,5,63,98,1794608508
70,18,15,Jits_Phase_8,0,5,56,103,1795268916
70,18,15,Jits_Phase_8,1,1,48,28,1795282076
70,18,15,Jits_Phase_8,2,5,80,127,1795348880
70,18,15,Jits_Phase_8,3,5,63,98,1795369192
70,18,15,Jits_Phase_8,0,1,48,26,1796046320
70,18,15,Jits_Phase_8,1,5,56,103,1796068684
70,18,15,Jits_Phase_8,2,5,63,98,1796179352
70,18,15,Jits_Phase_8,3,5,80,127,1796182792
70,18,15,Jits_Phase_8,0,5,56,103,1796909520
70,18,15,Jits_Phase_8,1,1,48,27,1796918344
70,18,15,Jits_Phase_8,2,5,80,127,1796939188
70,18,15,Jits_Phase_8,3,5,63,98,1796958752
70,18,15,Jits_Phase_8,0,5,63,98,1797698800
70,18,15,Jits_Phase_8,1,5,56,103,1797709220
70,18,15,Jits_Phase_8,2,5,80,127,1797719492
70,18,15,Jits_Phase_8,3,1,48,32,1797762760
70,18,15,Jits_Phase_8,0,5,80,127,1798488512
70,18,15,Jits_Phase_8,1,1,48,27,1798521976
70,18,15,Jits_Phase_8,2,5,56,103,1798538860
70,18,15,Jits_Phase_8,3,5,63,98,1798578572
70,18,15,Jits_Phase_8,0,5,80,127,1799308660
70,18,15,Jits_Phase_8,1,5,63,98,1799329048
70,18,15,Jits_Phase_8,2,1,48,32,1799340556
70,18,15,Jits_Phase_8,3,5,56,103,1799379240
70,18,15,Jits_Phase_8,0,5,80,127,1800118772
70,18,15,Jits_Phase_8,1,5,56,103,1800149496
70,18,15,Jits_Phase_8,2,1,48,32,1800180212
70,18,15,Jits_Phase_8,3,5,63,98,1800219044
70,18,15,Jits_Phase_8,0,1,48,32,1800947020
70,18,15,Jits_Phase_8,1,5,56,103,1800968692
70,18,15,Jits_Phase_8,2,5,80,127,1800978740
70,18,15,Jits_Phase_8,3,5,63,98,1801018756
70,18,15,Jits_Phase_8,0,5,56,103,1801679356
70,18,15,Jits_Phase_8,1,5,63,98,1801698620
70,18,15,Jits_Phase_8,2,5,80,127,1801769520
70,18,15,Jits_Phase_8,3,1,48,32,1801788528
70,18,15,Jits_Phase_8,0,1,48,32,1802460364
70,18,15,Jits_Phase_8,1,5,63,98,1802498400
70,18,15,Jits_Phase_8,2,5,80,127,1802558852
70,18,15,Jits_Phase_8,3,5,56,103,1802579384
70,18,15,Jits_Phase_8,0,1,48,31,1803272048
70,18,15,Jits_Phase_8,1,5,80,127,1803289088
70,18,15,Jits_Phase_8,2,5,56,103,1803318540
70,18,15,Jits_Phase_8,3,5,63,98,1803349560
70,18,15,Jits_Phase_8,0,1,48,26,1804073000
70,18,15,Jits_Phase_8,1,5,56,103,1804088836
70,18,15,Jits_Phase_8,2,5,63,98,1804149300
70,18,15,Jits_Phase_8,3,5,80,127,1804208480
70,18,15,Jits_Phase_8,0,1,48,27,1804893952
70,18,15,Jits_Phase_8,1,5,80,127,1804908824
70,18,15,Jits_Phase_8,2,5,56,103,1804929432
70,18,15,Jits_Phase_8,3,5,63,98,1804998948
70,18,15,Jits_Phase_8,0,5,80,127,1805708732
70,18,15,Jits_Phase_8,1,5,63,98,1805729044
70,18,15,Jits_Phase_8,2,5,56,103,1805758720
70,18,15,Jits_Phase_8,3,1,48,32,1805780936
70,18,15,Jits_Phase_8,0,5,80,127,1806499136
70,18,15,Jits_Phase_8,1,5,63,98,1806518700
70,18,15,Jits_Phase_8,2,1,48,29,1806526228
70,18,15,Jits_Phase_8,3,5,56,103,1806579032
70,18,15,Jits_Phase_8,0,5,80,127,1807298908
70,18,15,Jits_Phase_8,1,1,48,28,1807321356
70,18,15,Jits_Phase_8,2,5,56,103,1807399396
70,18,15,Jits_Phase_8,3,5,63,98,1807428836
70,18,15,Jits_Phase_8,0,5,63,98,1808088496
70,18,15,Jits_Phase_8,1,5,80,127,1808138648
70,18,15,Jits_Phase_8,2,1,48,27,1808149112
70,18,15,Jits_Phase_8,3,5,56,103,1808158948
70,18,15,Jits_Phase_8,0,1,48,30,1808926984
70,18,15,Jits_Phase_8,1,5,80,127,1808929024
70,18,15,Jits_Phase_8,2,5,56,103,1808958692
70,18,15,Jits_Phase_8,3,5,63,98,1808961840
70,18,15,Jits_Phase_8,0,1,48,32,1809741032
70,18,15,Jits_Phase_8,1,5,63,98,1809779044
70,18,15,Jits_Phase_8,2,5,56,103,1809819132
70,18,15,Jits_Phase_8,3,5,80,127,1809838308
70,18,15,Jits_Phase_8,0,5,80,127,1810538804
70,18,15,Jits_Phase_8,1,5,63,98,1810618752
70,18,15,Jits_Phase_8,2,1,48,36,1810642616
70,18,15,Jits_Phase_8,3,5,56,103,1810658608
70,18,15,Jits_Phase_8,0,5,63,98,1811369444
70,18,15,Jits_Phase_8,1,5,80,127,1811449492
70,18,15,Jits_Phase_8,2,5,56,103,1811468680
70,18,15,Jits_Phase_8,3,1,48,34,1811481984
70,18,15,Jits_Phase_8,0,5,56,103,1812209092
70,18,15,Jits_Phase_8,1,1,48,36,1812214828
70,18,15,Jits_Phase_8,2,5,63,98,1812219208
70,18,15,Jits_Phase_8,3,5,80,127,1812259368
70,18,15,Jits_Phase_8,0,5,56,103,1812928824
70,18,15,Jits_Phase_8,1,5,80,127,1812932040
70,18,15,Jits_Phase_8,2,1,48,28,1813040152
70,18,15,Jits_Phase_8,3,5,63,98,1813069316
70,18,15,Jits_Phase_8,0,5,56,103,1813719368
70,18,15,Jits_Phase_8,1,1,48,37,1813758404
70,18,15,Jits_Phase_8,2,5,63,98,1813808476
70,18,15,Jits_Phase_8,3,5,80,127,1813879184
70,18,15,Jits_Phase_8,0,1,48,38,1814592256
70,18,15,Jits_Phase_8,1,5,63,98,1814599176
70,18,15,Jits_Phase_8,2,5,80,127,1814602540
70,18,15,Jits_Phase_8,3,5,56,103,1814658368
70,18,15,Jits_Phase_8,0,1,48,35,1815407300
70,18,15,Jits_Phase_8,1,5,80,127,1815438640
70,18,15,Jits_Phase_8,2,5,56,103,1815459396
70,18,15,Jits_Phase_8,3,5,63,98,1815469444
70,18,15,Jits_Phase_8,0,5,56,103,1816149328
70,18,15,Jits_Phase_8,1,5,63,98,1816158552
70,18,15,Jits_Phase_8,2,1,48,33,1816217188
70,18,15,Jits_Phase_8,3,5,80,127,1816229268
70,18,15,Jits_Phase_8,0,5,80,127,1816949392
70,18,15,Jits_Phase_8,1,1,48,33,1816972372
70,18,15,Jits_Phase_8,2,5,56,103,1816999220
70,18,15,Jits_Phase_8,3,5,63,98,1817048372
70,18,15,Jits_Phase_8,0,1,48,32,1817716088
70,18,15,Jits_Phase_8,1,5,56,103,1817828716
70,18,15,Jits_Phase_8,2,5,63,98,1817839384
70,18,15,Jits_Phase_8,3,5,80,127,1817878948
70,18,15,Jits_Phase_8,0,5,56,103,1818569164
70,18,15,Jits_Phase_8,1,1,48,29,1818594080
70,18,15,Jits_Phase_8,2,5,63,98,1818609124
70,18,15,Jits_Phase_8,3,5,80,127,1818659396
70,18,15,Jits_Phase_8,0,5,80,127,1819329080
70,18,15,Jits_Phase_8,1,5,56,103,1819379008
70,18,15,Jits_Phase_8,2,5,63,98,1819398572
70,18,15,Jits_Phase_8,3,1,48,29,1819420268
70,18,15,Jits_Phase_8,0,5,80,127,1820138840
70,18,15,Jits_Phase_8,1,1,48,32,1820175288
70,18,15,Jits_Phase_8,2,5,63,98,1820199372
70,18,15,Jits_Phase_8,3,5,56,103,1820279376
70,18,15,Jits_Phase_8,0,5,80,127,1820919060
70,18,15,Jits_Phase_8,1,5,56,103,1820959296
70,18,15,Jits_Phase_8,2,5,63,98,1820978412
70,18,15,Jits_Phase_8,3,1,48,32,1820988580
70,18,15,Jits_Phase_8,0,1,48,32,1821754376
70,18,15,Jits_Phase_8,1,5,56,103,1821769240
70,18,15,Jits_Phase_8,2,5,80,127,1821779288
70,18,15,Jits_Phase_8,3,5,63,98,1821819228
70,18,15,Jits_Phase_8,0,1,48,32,1822509116
70,18,15,Jits_Phase_8,1,5,56,103,1822638516
70,18,15,Jits_Phase_8,2,5,63,98,1822679352
70,18,15,Jits_Phase_8,3,5,80,127,1822682640
70,18,15,Jits_Phase_8,0,5,63,98,1823309056
70,18,15,Jits_Phase_8,1,5,80,127,1823349292
70,18,15,Jits_Phase_8,2,1,48,26,1823411376
70,18,15,Jits_Phase_8,3,5,56,103,1823418744
70,18,15,Jits_Phase_8,0,5,63,98,1824079220
70,18,15,Jits_Phase_8,1,1,48,29,1824152460
70,18,15,Jits_Phase_8,2,5,56,103,1824159232
70,18,15,Jits_Phase_8,3,5,80,127,1824218500
70,18,15,Jits_Phase_8,0,5,80,127,1824889164
70,18,15,Jits_Phase_8,1,1,48,30,1824913636
70,18,15,Jits_Phase_8,2,5,63,98,1824939360
70,18,15,Jits_Phase_8,3,5,56,103,1824969184
70,18,15,Jits_Phase_8,0,5,56,103,1825678672
70,18,15,Jits_Phase_8,1,1,48,31,1825703512
70,18,15,Jits_Phase_8,2,5,63,98,1825729092
70,18,15,Jits_Phase_8,3,5,80,127,1825739064
70,18,15,Jits_Phase_8,0,1,48,30,1826471656
70,18,15,Jits_Phase_8,1,5,56,103,1826488548
70,18,15,Jits_Phase_8,2,5,63,98,1826599216
70,18,15,Jits_Phase_8,3,5,80,127,1826618928
70,18,15,Jits_Phase_8,0,5,63,98,1827288460
70,18,15,Jits_Phase_8,1,1,48,29,1827315424
70,18,15,Jits_Phase_8,2,5,80,127,1827338608
70,18,15,Jits_Phase_8,3,5,56,103,1827428800
70,18,15,Jits_Phase_8,0,5,63,98,1828078952
70,18,15,Jits_Phase_8,1,5,80,127,1828108776
70,18,15,Jits_Phase_8,2,1,48,25,1828164256
70,18,15,Jits_Phase_8,3,5,56,103,1828198976
70,18,15,Jits_Phase_8,0,5,63,98,1828878632
70,18,15,Jits_Phase_8,1,5,56,103,1828888976
70,18,15,Jits_Phase_8,2,1,48,27,1828919744
70,18,15,Jits_Phase_8,3,5,80,127,1828989212
70,18,15,Jits_Phase_8,0,1,48,33,1829722096
70,18,15,Jits_Phase_8,1,5,63,98,1829778920
70,18,15,Jits_Phase_8,2,5,80,127,1829808372
70,18,15,Jits_Phase_8,3,5,56,103,1829839228
70,18,15,Jits_Phase_8,0,1,48,25,1830561500
70,18,15,Jits_Phase_8,1,5,80,127,1830599140
70,18,15,Jits_Phase_8,2,5,63,98,1830609264
70,18,15,Jits_Phase_8,3,5,56,103,1830638960
70,18,15,Jits_Phase_8,0,5,80,127,1831298368
70,18,15,Jits_Phase_8,1,5,63,98,1831319052
70,18,15,Jits_Phase_8,2,5,56,103,1831369324
70,18,15,Jits_Phase_8,3,1,48,21,1831416068
70,18,15,Jits_Phase_8,0,5,63,98,1832128856
70,18,15,Jits_Phase_8,1,1,48,24,1832163060
70,18,15,Jits_Phase_8,2,5,80,127,1832189416
70,18,15,Jits_Phase_8,3,5,56,103,1832208752
70,18,15,Jits_Phase_8,0,5,63,98,1832888832
70,18,15,Jits_Phase_8,1,5,56,103,1832938836
70,18,15,Jits_Phase_8,2,5,80,127,1832949104
70,18,15,Jits_Phase_8,3,1,48,25,1832976732
70,18,15,Jits_Phase_8,0,1,48,31,1833709108
70,18,15,Jits_Phase_8,1,5,56,103,1833719244
70,18,15,Jits_Phase_8,2,5,80,127,1833729588
70,18,15,Jits_Phase_8,3,5,63,98,1833828848
70,18,15,Jits_Phase_8,0,5,80,127,1834479004
70,18,15,Jits_Phase_8,1,5,63,98,1834489128
70,18,15,Jits_Phase_8,2,1,48,34,1834539296
70,18,15,Jits_Phase_8,3,5,56,103,1834638792
70,18,15,Jits_Phase_8,0,5,63,98,1835288816
70,18,15,Jits_Phase_8,1,5,80,127,1835328828
70,18,15,Jits_Phase_8,2,1,48,34,1835338620
70,18,15,Jits_Phase_8,3,5,56,103,1835408840
70,18,15,Jits_Phase_8,0,5,56,103,1836038448
70,18,15,Jits_Phase_8,1,1,48,33,1836132288
70,18,15,Jits_Phase_8,2,5,80,127,1836138764
70,18,15,Jits_Phase_8,3,5,63,98,1836159300
70,18,15,Jits_Phase_8,0,5,80,127,1836858900
70,18,15,Jits_Phase_8,1,5,56,103,1836868876
70,18,15,Jits_Phase_8,2,1,48,33,1836893716
70,18,15,Jits_Phase_8,3,5,63,98,1836959148
70,18,15,Jits_Phase_8,0,5,56,103,1837658524
70,18,15,Jits_Phase_8,1,5,63,98,1837678908
70,18,15,Jits_Phase_8,2,1,48,33,1837707880
70,18,15,Jits_Phase_8,3,5,80,127,1837758916
70,18,15,Jits_Phase_8,0,5,63,98,1838408924
70,18,15,Jits_Phase_8,1,1,48,30,1838472124
70,18,15,Jits_Phase_8,2,5,56,103,1838499276
70,18,15,Jits_Phase_8,3,5,80,127,1838502192
70,18,15,Jits_Phase_8,0,1,48,34,1839231264
70,18,15,Jits_Phase_8,1,5,56,103,1839238780
70,18,15,Jits_Phase_8,2,5,80,127,1839298876
70,18,15,Jits_Phase_8,3,5,63,98,1839309144
70,18,15,Jits_Phase_8,0,1,48,32,1840031996
70,18,15,Jits_Phase_8,1,5,80,127,1840088592
70,18,15,Jits_Phase_8,2,5,56,103,1840098784
70,18,15,Jits_Phase_8,3,5,63,98,1840101776
70,18,15,Jits_Phase_8,0,5,56,103,1840849236
70,18,15,Jits_Phase_8,1,5,80,127,1840858460
70,18,15,Jits_Phase_8,2,5,63,98,1840878944
70,18,15,Jits_Phase_8,3,1,48,33,1840907088
70,18,15,Jits_Phase_8,0,5,63,98,1841619264
70,18,15,Jits_Phase_8,1,1,48,32,1841661368
70,18,15,Jits_Phase_8,2,5,80,127,1841678924
70,18,15,Jits_Phase_8,3,5,56,103,1841728900
70,18,15,Jits_Phase_8,0,1,48,33,1842451376
70,18,15,Jits_Phase_8,1,5,63,98,1842498908
70,18,15,Jits_Phase_8,2,5,56,103,1842509104
70,18,15,Jits_Phase_8,3,5,80,127,1842559288
70,18,15,Jits_Phase_8,0,5,63,98,1843199328
70,18,15,Jits_Phase_8,1,5,80,127,1843218888
70,18,15,Jits_Phase_8,2,5,56,103,1843228936
70,18,15,Jits_Phase_8,3,1,48,29,1843302020
70,18,15,Jits_Phase_8,0,5,63,98,1843999076
70,18,15,Jits_Phase_8,1,5,80,127,1844002288
70,18,15,Jits_Phase_8,2,5,56,103,1844039088
70,18,15,Jits_Phase_8,3,1,48,25,1844042132
70,18,15,Jits_Phase_8,0,1,48,34,1844822000
70,18,15,Jits_Phase_8,1,5,63,98,1844868860
70,18,15,Jits_Phase_8,2,5,80,127,1844899136
70,18,15,Jits_Phase_8,3,5,56,103,1844909704
70,18,15,Jits_Phase_8,0,5,56,103,1845619176
70,18,15,Jits_Phase_8,1,5,80,127,1845648852
70,18,15,Jits_Phase_8,2,5,63,98,1845678528
70,18,15,Jits_Phase_8,3,1,48,29,1845685760
70,18,15,Jits_Phase_8,0,1,48,29,1846500504
70,18,15,Jits_Phase_8,1,5,63,98,1846519208
70,18,15,Jits_Phase_8,2,5,56,103,1846559148
70,18,15,Jits_Phase_8,3,5,80,127,1846562140
70,18,15,Jits_Phase_8,0,5,80,127,1847218480
70,18,15,Jits_Phase_8,1,5,56,103,1847298596
70,18,15,Jits_Phase_8,2,5,63,98,1847348576
70,18,15,Jits_Phase_8,3,1,48,30,1847361584
70,18,15,Jits_Phase_8,0,5,80,127,1847998920
70,18,15,Jits_Phase_8,1,5,56,103,1848019232
70,18,15,Jits_Phase_8,2,5,63,98,1848109532
70,18,15,Jits_Phase_8,3,1,48,32,1848132732
70,18,15,Jits_Phase_8,0,5,80,127,1848838572
70,18,15,Jits_Phase_8,1,1,48,30,1848841688
70,18,15,Jits_Phase_8,2,5,63,98,1848878652
70,18,15,Jits_Phase_8,3,5,56,103,1848919268
70,18,15,Jits_Phase_8,0,5,63,98,1849648684
70,18,15,Jits_Phase_8,1,1,48,33,1849677060
70,18,15,Jits_Phase_8,2,5,80,127,1849708844
70,18,15,Jits_Phase_8,3,5,56,103,1849738740
70,18,15,Jits_Phase_8,0,5,56,103,1850489336
70,18,15,Jits_Phase_8,1,5,80,127,1850518936
70,18,15,Jits_Phase_8,2,1,48,30,1850528356
70,18,15,Jits_Phase_8,3,5,63,98,1850608864
70,18,15,Jits_Phase_8,0,5,56,103,1851299296
70,18,15,Jits_Phase_8,1,1,48,35,1851339580
70,18,15,Jits_Phase_8,2,5,80,127,1851408856
70,18,15,Jits_Phase_8,3,5,63,98,1851438664
70,18,15,Jits_Phase_8,0,5,56,103,1852149220
70,18,15,Jits_Phase_8,1,1,48,31,1852183056
70,18,15,Jits_Phase_8,2,5,63,98,1852208708
70,18,15,Jits_Phase_8,3,5,80,127,1852239208
70,18,15,Jits_Phase_8,0,5,56,103,1852919108
70,18,15,Jits_Phase_8,1,5,63,98,1852988792
70,18,15,Jits_Phase_8,2,1,48,27,1853008800
70,18,15,Jits_Phase_8,3,5,80,127,1853010440
70,18,15,Jits_Phase_8,0,5,80,127,1853689140
70,18,15,Jits_Phase_8,1,5,63,98,1853708776
70,18,15,Jits_Phase_8,2,5,56,103,1853758828
70,18,15,Jits_Phase_8,3,1,48,27,1853812436
70,18,15,Jits_Phase_8,0,5,63,98,1854509436
70,18,15,Jits_Phase_8,1,1,48,30,1854514424
70,18,15,Jits_Phase_8,2,5,80,127,1854518576
70,18,15,Jits_Phase_8,3,5,56,103,1854568704
70,18,15,Jits_Phase_8,0,5,63,98,1855309188
70,18,15,Jits_Phase_8,1,1,48,31,1855358992
70,18,15,Jits_Phase_8,2,5,80,127,1855378940
70,18,15,Jits_Phase_8,3,5,56,103,1855399396
70,18,15,Jits_Phase_8,0,5,63,98,1856138616
70,18,15,Jits_Phase_8,1,5,80,127,1856141832
70,18,15,Jits_Phase_8,2,1,48,28,1856166524
70,18,15,Jits_Phase_8,3,5,56,103,1856209336
70,18,15,Jits_Phase_8,0,5,80,127,1856889364
70,18,15,Jits_Phase_8,1,5,56,103,1856908780
70,18,15,Jits_Phase_8,2,5,63,98,1856918976
70,18,15,Jits_Phase_8,3,1,48,32,1856981424
70,18,15,Jits_Phase_8,0,5,56,103,1857709508
70,18,15,Jits_Phase_8,1,1,48,27,1857712552
70,18,15,Jits_Phase_8,2,5,63,98,1857798540
70,18,15,Jits_Phase_8,3,5,80,127,1857801752
70,18,15,Jits_Phase_8,0,5,80,127,1858478408
70,18,15,Jits_Phase_8,1,5,56,103,1858488828
70,18,15,Jits_Phase_8,2,5,63,98,1858509136
70,18,15,Jits_Phase_8,3,1,48,35,1858577312
70,18,15,Jits_Phase_8,0,5,63,98,1859279288
70,18,15,Jits_Phase_8,1,5,80,127,1859338664
70,18,15,Jits_Phase_8,2,5,56,103,1859348784
70,18,15,Jits_Phase_8,3,1,48,33,1859393176
70,18,15,Jits_Phase_8,0,5,63,98,1860148676
70,18,15,Jits_Phase_8,1,5,80,127,1860179472
70,18,15,Jits_Phase_8,2,1,48,34,1860185660
70,18,15,Jits_Phase_8,3,5,56,103,1860219328
70,18,15,Jits_Phase_8,0,5,56,103,1860939220
70,18,15,Jits_Phase_8,1,5,80,127,1860949492
70,18,15,Jits_Phase_8,2,1,48,30,1860977488
70,18,15,Jits_Phase_8,3,5,63,98,1860989572
70,18,15,Jits_Phase_8,0,5,80,127,1861698908
70,18,15,Jits_Phase_8,1,1,48,32,1861757012
70,18,15,Jits_Phase_8,2,5,56,103,1861778924
70,18,15,Jits_Phase_8,3,5,63,98,1861789192
70,18,15,Jits_Phase_8,0,1,48,30,1862531540
70,18,15,Jits_Phase_8,1,5,80,127,1862548800
70,18,15,Jits_Phase_8,2,5,56,103,1862629796
70,18,15,Jits_Phase_8,3,5,63,98,1862638868
70,18,15,Jits_Phase_8,0,1,48,30,1863373252
70,18,15,Jits_Phase_8,1,5,80,127,1863388420
70,18,15,Jits_Phase_8,2,5,56,103,1863438648
70,18,15,Jits_Phase_8,3,5,63,98,1863488904
70,18,15,Jits_Phase_8,0,1,48,31,1864227576
70,18,15,Jits_Phase_8,1,5,56,103,1864328424
70,18,15,Jits_Phase_8,2,5,63,98,1864331640
70,18,15,Jits_Phase_8,3,5,80,127,1864378704
70,18,15,Jits_Phase_8,0,1,48,23,1865138588
70,18,15,Jits_Phase_8,1,5,56,103,1865148876
70,18,15,Jits_Phase_8,2,5,63,98,1865178404
70,18,15,Jits_Phase_8,3,5,80,127,1865188748
70,18,15,Jits_Phase_8,0,5,63,98,1865858344
70,18,15,Jits_Phase_8,1,5,56,103,1865929220
70,18,15,Jits_Phase_8,2,5,80,127,1865979296
70,18,15,Jits_Phase_8,3,1,48,26,1865988564
70,18,15,Jits_Phase_8,0,5,63,98,1866688968
70,18,15,Jits_Phase_8,1,5,56,103,1866699236
70,18,15,Jits_Phase_8,2,5,80,127,1866702376
70,18,15,Jits_Phase_8,3,1,48,25,1866754368
70,18,15,Jits_Phase_8,0,5,80,127,1867438440
70,18,15,Jits_Phase_8,1,1,48,32,1867493576
70,18,15,Jits_Phase_8,2,5,56,103,1867499072
70,18,15,Jits_Phase_8,3,5,63,98,1867590308
70,18,15,Jits_Phase_8,0,5,80,127,1868239332
70,18,15,Jits_Phase_8,1,1,48,27,1868312148
70,18,15,Jits_Phase_8,2,5,56,103,1868338476
70,18,15,Jits_Phase_8,3,5,63,98,1868378416
70,18,15,Jits_Phase_8,0,5,56,103,1869089180
70,18,15,Jits_Phase_8,1,5,63,98,1869108444
70,18,15,Jits_Phase_8,2,5,80,127,1869148528
70,18,15,Jits_Phase_8,3,1,48,30,1869164300
70,18,15,Jits_Phase_8,0,5,63,98,1869859356
70,18,15,Jits_Phase_8,1,5,56,103,1869878620
70,18,15,Jits_Phase_8,2,1,48,29,1869937260
70,18,15,Jits_Phase_8,3,5,80,127,1869979080
70,18,15,Jits_Phase_8,0,5,63,98,1870648848
70,18,15,Jits_Phase_8,1,1,48,29,1870684776
70,18,15,Jits_Phase_8,2,5,80,127,1870759352
70,18,15,Jits_Phase_8,3,5,56,103,1870789088
70,18,15,Jits_Phase_8,0,5,56,103,1871468764
70,18,15,Jits_Phase_8,1,5,63,98,1871498660
70,18,15,Jits_Phase_8,2,1,48,30,1871501408
70,18,15,Jits_Phase_8,3,5,80,127,1871549004
70,18,15,Jits_Phase_8,0,5,63,98,1872239088
70,18,15,Jits_Phase_8,1,5,56,103,1872268612
70,18,15,Jits_Phase_8,2,1,48,25,1872315252
70,18,15,Jits_Phase_8,3,5,80,127,1872319032
70,18,15,Jits_Phase_8,0,5,56,103,1873069408
70,18,15,Jits_Phase_8,1,1,48,26,1873084440
70,18,15,Jits_Phase_8,2,5,63,98,1873088740
70,18,15,Jits_Phase_8,3,5,80,127,1873168708
70,18,15,Jits_Phase_8,0,5,63,98,1873838388
70,18,15,Jits_Phase_8,1,1,48,29,1873873048
70,18,15,Jits_Phase_8,2,5,56,103,1873898724
70,18,15,Jits_Phase_8,3,5,80,127,1873928624
70,18,15,Jits_Phase_8,0,5,56,103,1874679224
70,18,15,Jits_Phase_8,1,1,48,28,1874697412
70,18,15,Jits_Phase_8,2,5,80,127,1874738488
70,18,15,Jits_Phase_8,3,5,63,98,1874778500
70,18,15,Jits_Phase_8,0,5,63,98,1875458324
70,18,15,Jits_Phase_8,1,1,48,30,1875500700
70,18,15,Jits_Phase_8,2,5,56,103,1875518856
70,18,15,Jits_Phase_8,3,5,80,127,1875588388
70,18,15,Jits_Phase_8,0,1,48,29,1876301796
70,18,15,Jits_Phase_8,1,5,56,103,1876339212
70,18,15,Jits_Phase_8,2,5,63,98,1876349404
70,18,15,Jits_Phase_8,3,5,80,127,1876352696
70,18,15,Jits_Phase_8,0,5,63,98,1877079336
70,18,15,Jits_Phase_8,1,5,56,103,1877139048
70,18,15,Jits_Phase_8,2,5,80,127,1877142116
70,18,15,Jits_Phase_8,3,1,48,27,1877184116
70,18,15,Jits_Phase_8,0,5,63,98,1877858780
70,18,15,Jits_Phase_8,1,5,80,127,1877889356
70,18,15,Jits_Phase_8,2,5,56,103,1877908992
70,18,15,Jits_Phase_8,3,1,48,27,1877968300
70,18,15,Jits_Phase_8,0,5,56,103,1878588636
70,18,15,Jits_Phase_8,1,5,63,98,1878639136
70,18,15,Jits_Phase_8,2,1,48,29,1878700096
70,18,15,Jits_Phase_8,3,5,80,127,1878718920
70,18,15,Jits_Phase_8,0,5,80,127,1879289148
70,18,15,Jits_Phase_8,1,5,63,98,1879329088
70,18,15,Jits_Phase_8,2,5,56,103,1879348572
70,18,15,Jits_Phase_8,3,1,48,28,1879441960
70,18,15,Jits_Phase_8,0,1,48,29,1880116684
70,18,15,Jits_Phase_8,1,5,56,103,1880158436
70,18,15,Jits_Phase_8,2,5,80,127,1880169008
70,18,15,Jits_Phase_8,3,5,63,98,1880189244
70,18,15,Jits_Phase_8,0,1,48,30,1880924972
70,18,15,Jits_Phase_8,1,5,56,103,1880938940
70,18,15,Jits_Phase_8,2,5,63,98,1880988996
70,18,15,Jits_Phase_8,3,5,80,127,1881019852
70,18,15,Jits_Phase_8,0,5,56,103,1881688288
70,18,15,Jits_Phase_8,1,5,63,98,1881698932
70,18,15,Jits_Phase_8,2,1,48,27,1881738468
70,18,15,Jits_Phase_8,3,5,80,127,1881748828
70,18,15,Jits_Phase_8,0,5,56,103,1882478984
70,18,15,Jits_Phase_8,1,5,80,127,1882482200
70,18,15,Jits_Phase_8,2,1,48,29,1882502928
70,18,15,Jits_Phase_8,3,5,63,98,1882638640
70,18,15,Jits_Phase_8,0,5,63,98,1883299124
70,18,15,Jits_Phase_8,1,1,48,28,1883325016
70,18,15,Jits_Phase_8,2,5,56,103,1883368824
70,18,15,Jits_Phase_8,3,5,80,127,1883408988
70,18,15,Jits_Phase_8,0,1,48,31,1884121328
70,18,15,Jits_Phase_8,1,5,63,98,1884139060
70,18,15,Jits_Phase_8,2,5,56,103,1884229104
70,18,15,Jits_Phase_8,3,5,80,127,1884232168
70,18,15,Jits_Phase_8,0,5,56,103,1884919120
70,18,15,Jits_Phase_8,1,1,48,34,1884971760
70,18,15,Jits_Phase_8,2,5,63,98,1885009324
70,18,15,Jits_Phase_8,3,5,80,127,1885018472
70,18,15,Jits_Phase_8,0,5,56,103,1885689076
70,18,15,Jits_Phase_8,1,5,63,98,1885739280
70,18,15,Jits_Phase_8,2,5,80,127,1885769176
70,18,15,Jits_Phase_8,3,1,48,32,1885781960
70,18,15,Jits_Phase_8,0,1,48,34,1886533460
70,18,15,Jits_Phase_8,1,5,63,98,1886568932
70,18,15,Jits_Phase_8,2,5,80,127,1886578908
70,18,15,Jits_Phase_8,3,5,56,103,1886638308
70,18,15,Jits_Phase_8,0,5,63,98,1887288836
70,18,15,Jits_Phase_8,1,5,80,127,1887349152
70,18,15,Jits_Phase_8,2,1,48,27,1887369732
70,18,15,Jits_Phase_8,3,5,56,103,1887389012
70,18,15,Jits_Phase_8,0,1,48,29,1888106156
70,18,15,Jits_Phase_8,1,5,56,103,1888188912
70,18,15,Jits_Phase_8,2,5,80,127,1888209204
70,18,15,Jits_Phase_8,3,5,63,98,1888228940
70,18,15,Jits_Phase_8,0,5,63,98,1888908812
70,18,15,Jits_Phase_8,1,5,56,103,1888929124
70,18,15,Jits_Phase_8,2,1,48,28,1888960788
70,18,15,Jits_Phase_8,3,5,80,127,1888969204
70,18,15,Jits_Phase_8,0,5,63,98,1889718828
70,18,15,Jits_Phase_8,1,5,80,127,1889749328
70,18,15,Jits_Phase_8,2,1,48,26,1889760988
70,18,15,Jits_Phase_8,3,5,56,103,1889768984
70,18,15,Jits_Phase_8,0,5,80,127,1890488844
70,18,15,Jits_Phase_8,1,5,56,103,1890538920
70,18,15,Jits_Phase_8,2,1,48,31,1890577932
70,18,15,Jits_Phase_8,3,5,63,98,1890599304
70,18,15,Jits_Phase_8,0,5,63,98,1891279244
70,18,15,Jits_Phase_8,1,1,48,32,1891362252
70,18,15,Jits_Phase_8,2,5,56,103,1891399068
70,18,15,Jits_Phase_8,3,5,80,127,1891428892
70,18,15,Jits_Phase_8,0,5,80,127,1892118816
70,18,15,Jits_Phase_8,1,5,63,98,1892139496
70,18,15,Jits_Phase_8,2,1,48,33,1892145008
70,18,15,Jits_Phase_8,3,5,56,103,1892209024
70,18,15,Jits_Phase_8,0,1,48,29,1892929048
70,18,15,Jits_Phase_8,1,5,63,98,1892939184
70,18,15,Jits_Phase_8,2,5,56,103,1892949380
70,18,15,Jits_Phase_8,3,5,80,127,1893029084
70,18,15,Jits_Phase_8,0,1,48,28,1893755244
70,18,15,Jits_Phase_8,1,5,56,103,1893799256
70,18,15,Jits_Phase_8,2,5,80,127,1893828860
70,18,15,Jits_Phase_8,3,5,63,98,1893839204
70,18,15,Jits_Phase_8,0,9999,9999,9999,1758946416
70,18,15,Jits_Phase_8,1,9999,9999,9999,1759746136
70,18,15,Jits_Phase_8,2,9999,9999,9999,1760546884
70,18,15,Jits_Phase_8,3,9999,9999,9999,1761346656
70,18,15,Jits_Phase_8,4,9999,9999,9999,1762146424
70,18,15,Jits_Phase_8,5,9999,9999,9999,1762946108
70,18,15,Jits_Phase_8,6,9999,9999,9999,1763746908
70,18,15,Jits_Phase_8,7,9999,9999,9999,1764546680
70,18,15,Jits_Phase_8,8,9999,9999,9999,1765346368
70,18,15,Jits_Phase_8,9,9999,9999,9999,1766146132
70,18,15,Jits_Phase_8,10,9999,9999,9999,1766946880
70,18,15,Jits_Phase_8,11,9999,9999,9999,1767746636
70,18,15,Jits_Phase_8,12,9999,9999,9999,1768546416
70,18,15,Jits_Phase_8,13,9999,9999,9999,1769346112
70,18,15,Jits_Phase_8,14,9999,9999,9999,1770146904
70,18,15,Jits_Phase_8,15,9999,9999,9999,1770946652
70,18,15,Jits_Phase_8,16,9999,9999,9999,1771746392
70,18,15,Jits_Phase_8,17,9999,9999,9999,1772546112
70,18,15,Jits_Phase_8,18,9999,9999,9999,1773346920
70,18,15,Jits_Phase_8,19,9999,9999,9999,1774146620
70,18,15,Jits_Phase_8,20,9999,9999,9999,1774946376
70,18,15,Jits_Phase_8,21,9999,9999,9999,1775746132
70,18,15,Jits_Phase_8,22,9999,9999,9999,1776546872
70,18,15,Jits_Phase_8,23,9999,9999,9999,1777346628
70,18,15,Jits_Phase_8,24,9999,9999,9999,1778146384
70,18,15,Jits_Phase_8,25,9999,9999,9999,1778946156
70,18,15,Jits_Phase_8,26,9999,9999,9999,1779746904
70,18,15,Jits_Phase_8,27,9999,9999,9999,1780546676
70,18,15,Jits_Phase_8,28,9999,9999,9999,1781346372
70,18,15,Jits_Phase_8,29,9999,9999,9999,1782146136
70,18,15,Jits_Phase_8,30,9999,9999,9999,1782926416
70,18,15,Jits_Phase_8,31,9999,9999,9999,1783726176
70,18,15,Jits_Phase_8,32,9999,9999,9999,1784526916
70,18,15,Jits_Phase_8,33,9999,9999,9999,1785326708
70,18,15,Jits_Phase_8,34,9999,9999,9999,1786126392
70,18,15,Jits_Phase_8,35,9999,9999,9999,1786926156
70,18,15,Jits_Phase_8,36,9999,9999,9999,1787726964
70,18,15,Jits_Phase_8,37,9999,9999,9999,1788526664
70,18,15,Jits_Phase_8,38,9999,9999,9999,1789326428
70,18,15,Jits_Phase_8,39,9999,9999,9999,1790126204
70,18,15,Jits_Phase_8,40,9999,9999,9999,1790926940
70,18,15,Jits_Phase_8,41,9999,9999,9999,1791726664
70,18,15,Jits_Phase_8,42,9999,9999,9999,1792526416
70,18,15,Jits_Phase_8,43,9999,9999,9999,1793326180
70,18,15,Jits_Phase_8,44,9999,9999,9999,1794126964
70,18,15,Jits_Phase_8,45,9999,9999,9999,1794926652
70,18,15,Jits_Phase_8,46,9999,9999,9999,1795726420
70,18,15,Jits_Phase_8,47,9999,9999,9999,1796526188
70,18,15,Jits_Phase_8,48,9999,9999,9999,1797346396
70,18,15,Jits_Phase_8,49,9999,9999,9999,1798146112
70,18,15,Jits_Phase_8,50,9999,9999,9999,1798946916
70,18,15,Jits_Phase_8,51,9999,9999,9999,1799746684
70,18,15,Jits_Phase_8,52,9999,9999,9999,1800546388
70,18,15,Jits_Phase_8,53,9999,9999,9999,1801346168
70,18,15,Jits_Phase_8,54,9999,9999,9999,1802146896
70,18,15,Jits_Phase_8,55,9999,9999,9999,1802946668
70,18,15,Jits_Phase_8,56,9999,9999,9999,1803746424
70,18,15,Jits_Phase_8,57,9999,9999,9999,1804546124
70,18,15,Jits_Phase_8,58,9999,9999,9999,1805346928
70,18,15,Jits_Phase_8,59,9999,9999,9999,1806146680
70,18,15,Jits_Phase_8,60,9999,9999,9999,1806946376
70,18,15,Jits_Phase_8,61,9999,9999,9999,1807746152
70,18,15,Jits_Phase_8,62,9999,9999,9999,1808546892
70,18,15,Jits_Phase_8,63,9999,9999,9999,1809346644
70,18,15,Jits_Phase_8,64,9999,9999,9999,1810186364
70,18,15,Jits_Phase_8,65,9999,9999,9999,1810987096
70,18,15,Jits_Phase_8,66,9999,9999,9999,1811797060
70,18,15,Jits_Phase_8,67,9999,9999,9999,1812596824
70,18,15,Jits_Phase_8,68,9999,9999,9999,1813396584
70,18,15,Jits_Phase_8,69,9999,9999,9999,1814196280
70,18,15,Jits_Phase_8,70,9999,9999,9999,1814997096
70,18,15,Jits_Phase_8,71,9999,9999,9999,1815796808
70,18,15,Jits_Phase_8,72,9999,9999,9999,1816596564
70,18,15,Jits_Phase_8,73,9999,9999,9999,1817396336
70,18,15,Jits_Phase_8,74,9999,9999,9999,1818197092
70,18,15,Jits_Phase_8,75,9999,9999,9999,1818996852
70,18,15,Jits_Phase_8,76,9999,9999,9999,1819796548
70,18,15,Jits_Phase_8,77,9999,9999,9999,1820596320
70,18,15,Jits_Phase_8,78,9999,9999,9999,1821397060
70,18,15,Jits_Phase_8,79,9999,9999,9999,1822196856
70,18,15,Jits_Phase_8,80,9999,9999,9999,1822996544
70,18,15,Jits_Phase_8,81,9999,9999,9999,1823756372
70,18,15,Jits_Phase_8,82,9999,9999,9999,1824556128
70,18,15,Jits_Phase_8,83,9999,9999,9999,1825356856
70,18,15,Jits_Phase_8,84,9999,9999,9999,1826156624
70,18,15,Jits_Phase_8,85,9999,9999,9999,1826956396
70,18,15,Jits_Phase_8,86,9999,9999,9999,1827756156
70,18,15,Jits_Phase_8,87,9999,9999,9999,1828556880
70,18,15,Jits_Phase_8,88,9999,9999,9999,1829356656
70,18,15,Jits_Phase_8,89,9999,9999,9999,1830156348
70,18,15,Jits_Phase_8,90,9999,9999,9999,1830956116
70,18,15,Jits_Phase_8,91,9999,9999,9999,1831756916
70,18,15,Jits_Phase_8,92,9999,9999,9999,1832556620
70,18,15,Jits_Phase_8,93,9999,9999,9999,1833356372
70,18,15,Jits_Phase_8,94,9999,9999,9999,1834156132
70,18,15,Jits_Phase_8,95,9999,9999,9999,1834956860
70,18,15,Jits_Phase_8,96,9999,9999,9999,1835756656
70,18,15,Jits_Phase_8,97,9999,9999,9999,1836476528
70,18,15,Jits_Phase_8,98,9999,9999,9999,1837276228
70,18,15,Jits_Phase_8,99,9999,9999,9999,1838076996
70,18,15,Jits_Phase_8,100,9999,9999,9999,1838876756
70,18,15,Jits_Phase_8,101,9999,9999,9999,1839676516
70,18,15,Jits_Phase_8,102,9999,9999,9999,1840476268
70,18,15,Jits_Phase_8,103,9999,9999,9999,1841276996
70,18,15,Jits_Phase_8,104,9999,9999,9999,1842076768
70,18,15,Jits_Phase_8,105,9999,9999,9999,1842876532
70,18,15,Jits_Phase_8,106,9999,9999,9999,1843676280
70,18,15,Jits_Phase_8,107,9999,9999,9999,1844477016
70,18,15,Jits_Phase_8,108,9999,9999,9999,1845276776
70,18,15,Jits_Phase_8,109,9999,9999,9999,1846076528
70,18,15,Jits_Phase_8,110,9999,9999,9999,1846876228
70,18,15,Jits_Phase_8,111,9999,9999,9999,1847677032
70,18,15,Jits_Phase_8,112,9999,9999,9999,1848476796
70,18,15,Jits_Phase_8,113,9999,9999,9999,1849276496
70,18,15,Jits_Phase_8,114,9999,9999,9999,1850156152
70,18,15,Jits_Phase_8,115,9999,9999,9999,1850956880
70,18,15,Jits_Phase_8,116,9999,9999,9999,1851756656
70,18,15,Jits_Phase_8,117,9999,9999,9999,1852556360
70,18,15,Jits_Phase_8,118,9999,9999,9999,1853356136
70,18,15,Jits_Phase_8,119,9999,9999,9999,1854156880
70,18,15,Jits_Phase_8,120,9999,9999,9999,1854956596
70,18,15,Jits_Phase_8,121,9999,9999,9999,1855756356
70,18,15,Jits_Phase_8,122,9999,9999,9999,1856556108
70,18,15,Jits_Phase_8,123,9999,9999,9999,1857356904
70,18,15,Jits_Phase_8,124,9999,9999,9999,1858156668
70,18,15,Jits_Phase_8,125,9999,9999,9999,1858956356
70,18,15,Jits_Phase_8,126,9999,9999,9999,1859756124
70,18,15,Jits_Phase_8,127,9999,9999,9999,1860556856
70,18,15,Jits_Phase_8,128,9999,9999,9999,1861356640
70,18,15,Jits_Phase_8,129,9999,9999,9999,1862156416
70,18,15,Jits_Phase_8,130,9999,9999,9999,1862956112
70,18,15,Jits_Phase_8,131,9999,9999,9999,1863916668
70,18,15,Jits_Phase_8,132,9999,9999,9999,1864716348
70,18,15,Jits_Phase_8,133,9999,9999,9999,1865516088
70,18,15,Jits_Phase_8,134,9999,9999,9999,1866316892
70,18,15,Jits_Phase_8,135,9999,9999,9999,1867116640
70,18,15,Jits_Phase_8,136,9999,9999,9999,1867916396
70,18,15,Jits_Phase_8,137,9999,9999,9999,1868716092
70,18,15,Jits_Phase_8,138,9999,9999,9999,1869516912
70,18,15,Jits_Phase_8,139,9999,9999,9999,1870316636
70,18,15,Jits_Phase_8,140,9999,9999,9999,1871116392
70,18,15,Jits_Phase_8,141,9999,9999,9999,1871916148
70,18,15,Jits_Phase_8,142,9999,9999,9999,1872716888
70,18,15,Jits_Phase_8,143,9999,9999,9999,1873516648
70,18,15,Jits_Phase_8,144,9999,9999,9999,1874316340
70,18,15,Jits_Phase_8,145,9999,9999,9999,1875116104
70,18,15,Jits_Phase_8,146,9999,9999,9999,1875916924
70,18,15,Jits_Phase_8,147,9999,9999,9999,1876716628
70,18,15,Jits_Phase_8,148,9999,9999,9999,1877516376
70,18,15,Jits_Phase_8,149,9999,9999,9999,1878316132
70,18,15,Jits_Phase_8,150,9999,9999,9999,1878956144
70,18,15,Jits_Phase_8,151,9999,9999,9999,1879756884
70,18,15,Jits_Phase_8,152,9999,9999,9999,1880556612
70,18,15,Jits_Phase_8,153,9999,9999,9999,1881356372
70,18,15,Jits_Phase_8,154,9999,9999,9999,1882156124
70,18,15,Jits_Phase_8,155,9999,9999,9999,1882956856
70,18,15,Jits_Phase_8,156,9999,9999,9999,1883756628
70,18,15,Jits_Phase_8,157,9999,9999,9999,1884556388
70,18,15,Jits_Phase_8,158,9999,9999,9999,1885356148
70,18,15,Jits_Phase_8,159,9999,9999,9999,1886156892
70,18,15,Jits_Phase_8,160,9999,9999,9999,1886956624
70,18,15,Jits_Phase_8,161,9999,9999,9999,1887756380
70,18,15,Jits_Phase_8,162,9999,9999,9999,1888556148
70,18,15,Jits_Phase_8,163,9999,9999,9999,1889356872
70,18,15,Jits_Phase_8,164,9999,9999,9999,1890156628
70,18,15,Jits_Phase_8,165,9999,9999,9999,1890956384
70,18,15,Jits_Phase_8,166,9999,9999,9999,1891756156
70,18,15,Jits_Phase_8,167,9999,9999,9999,1892556888
70,18,15,Jits_Phase_8,168,9999,9999,9999,1893356616
70,18,15,Jits_Phase_8,169,9999,9999,9999,1894156384
70,19,17,Jits_Phase_5,0,5,56,103,1902649868
70,19,17,Jits_Phase_5,1,5,63,98,1902652664
70,19,17,Jits_Phase_5,2,5,80,127,1902655788
70,19,17,Jits_Phase_5,0,5,56,103,1903149648
70,19,17,Jits_Phase_5,1,5,63,98,1903152748
70,19,17,Jits_Phase_5,2,5,80,127,1903155720
70,19,17,Jits_Phase_5,3,1,48,26,1903348852
70,19,17,Jits_Phase_5,0,1,48,22,1903646976
70,19,17,Jits_Phase_5,1,5,56,103,1903650156
70,19,17,Jits_Phase_5,2,5,80,127,1903660648
70,19,17,Jits_Phase_5,3,5,63,98,1903679836
70,19,17,Jits_Phase_5,0,5,63,98,1904099868
70,19,17,Jits_Phase_5,1,5,80,127,1904130512
70,19,17,Jits_Phase_5,2,5,56,103,1904139812
70,19,17,Jits_Phase_5,3,1,48,32,1904148032
70,19,17,Jits_Phase_5,0,1,48,34,1904649408
70,19,17,Jits_Phase_5,1,5,80,127,1904659764
70,19,17,Jits_Phase_5,2,5,56,103,1904669964
70,19,17,Jits_Phase_5,3,5,63,98,1904699636
70,19,17,Jits_Phase_5,0,5,63,98,1905150456
70,19,17,Jits_Phase_5,1,5,56,103,1905180208
70,19,17,Jits_Phase_5,2,5,80,127,1905190328
70,19,17,Jits_Phase_5,3,1,48,35,1905194496
70,19,17,Jits_Phase_5,0,5,56,103,1905599844
70,19,17,Jits_Phase_5,1,5,63,98,1905649996
70,19,17,Jits_Phase_5,2,5,80,127,1905669480
70,19,17,Jits_Phase_5,3,1,48,38,1905719496
70,19,17,Jits_Phase_5,0,5,80,127,1906099536
70,19,17,Jits_Phase_5,1,5,63,98,1906149688
70,19,17,Jits_Phase_5,2,1,48,36,1906176252
70,19,17,Jits_Phase_5,3,5,56,103,1906189616
70,19,17,Jits_Phase_5,0,5,56,103,1906600564
70,19,17,Jits_Phase_5,1,5,63,98,1906629940
70,19,17,Jits_Phase_5,2,1,48,39,1906681404
70,19,17,Jits_Phase_5,3,5,80,127,1906699488
70,19,17,Jits_Phase_5,0,5,56,103,1907100028
70,19,17,Jits_Phase_5,1,1,48,37,1907151620
70,19,17,Jits_Phase_5,2,5,80,127,1907160560
70,19,17,Jits_Phase_5,3,5,63,98,1907190260
70,19,17,Jits_Phase_5,0,5,56,103,1907609908
70,19,17,Jits_Phase_5,1,5,63,98,1907620776
70,19,17,Jits_Phase_5,2,1,48,35,1907645244
70,19,17,Jits_Phase_5,3,5,80,127,1907660108
70,19,17,Jits_Phase_5,0,5,63,98,1908099408
70,19,17,Jits_Phase_5,1,1,48,34,1908130396
70,19,17,Jits_Phase_5,2,5,80,127,1908180612
70,19,17,Jits_Phase_5,3,5,56,103,1908189688
70,19,17,Jits_Phase_5,0,5,63,98,1908650476
70,19,17,Jits_Phase_5,1,1,48,36,1908659372
70,19,17,Jits_Phase_5,2,5,56,103,1908690404
70,19,17,Jits_Phase_5,3,5,80,127,1908693468
70,19,17,Jits_Phase_5,0,5,56,103,1909110064
70,19,17,Jits_Phase_5,1,5,63,98,1909120632
70,19,17,Jits_Phase_5,2,5,80,127,1909160416
70,19,17,Jits_Phase_5,3,1,48,35,1909214776
70,19,17,Jits_Phase_5,0,5,56,103,1909599632
70,19,17,Jits_Phase_5,1,5,63,98,1909602624
70,19,17,Jits_Phase_5,2,5,80,127,1909620164
70,19,17,Jits_Phase_5,3,1,48,34,1909665080
70,19,17,Jits_Phase_5,0,5,80,127,1910109572
70,19,17,Jits_Phase_5,1,5,56,103,1910119768
70,19,17,Jits_Phase_5,2,1,48,32,1910146332
70,19,17,Jits_Phase_5,3,5,63,98,1910189364
70,19,17,Jits_Phase_5,0,5,63,98,1910599972
70,19,17,Jits_Phase_5,1,5,56,103,1910619460
70,19,17,Jits_Phase_5,2,1,48,32,1910638016
70,19,17,Jits_Phase_5,3,5,80,127,1910700436
70,19,17,Jits_Phase_5,0,5,56,103,1911110428
70,19,17,Jits_Phase_5,1,1,48,30,1911133408
70,19,17,Jits_Phase_5,2,5,80,127,1911149988
70,19,17,Jits_Phase_5,3,5,63,98,1911160332
70,19,17,Jits_Phase_5,0,5,80,127,1911599484
70,19,17,Jits_Phase_5,1,5,63,98,1911630352
70,19,17,Jits_Phase_5,2,1,48,31,1911642088
70,19,17,Jits_Phase_5,3,5,56,103,1911670060
70,19,17,Jits_Phase_5,0,5,56,103,1912119552
70,19,17,Jits_Phase_5,1,5,63,98,1912150420
70,19,17,Jits_Phase_5,2,1,48,29,1912151980
70,19,17,Jits_Phase_5,3,5,80,127,1912199492
70,19,17,Jits_Phase_5,0,5,80,127,1912620660
70,19,17,Jits_Phase_5,1,5,56,103,1912660300
70,19,17,Jits_Phase_5,2,5,63,98,1912669676
70,19,17,Jits_Phase_5,3,1,48,31,1912670936
70,19,17,Jits_Phase_5,0,5,80,127,1913099608
70,19,17,Jits_Phase_5,1,5,63,98,1913139692
70,19,17,Jits_Phase_5,2,1,48,33,1913185436
70,19,17,Jits_Phase_5,3,5,56,103,1913199924
70,19,17,Jits_Phase_5,0,5,56,103,1913600340
70,19,17,Jits_Phase_5,1,5,80,127,1913609492
70,19,17,Jits_Phase_5,2,1,48,32,1913680184
70,19,17,Jits_Phase_5,3,5,63,98,1913689500
70,19,17,Jits_Phase_5,0,5,80,127,1914100252
70,19,17,Jits_Phase_5,1,1,48,29,1914151248
70,19,17,Jits_Phase_5,2,5,63,98,1914159440
70,19,17,Jits_Phase_5,3,5,56,103,1914190604
70,19,17,Jits_Phase_5,0,5,56,103,1914599644
70,19,17,Jits_Phase_5,1,1,48,30,1914651160
70,19,17,Jits_Phase_5,2,5,80,127,1914660324
70,19,17,Jits_Phase_5,3,5,63,98,1914700260
70,19,17,Jits_Phase_5,0,1,48,30,1915148328
70,19,17,Jits_Phase_5,1,5,56,103,1915149748
70,19,17,Jits_Phase_5,2,5,63,98,1915159788
70,19,17,Jits_Phase_5,3,5,80,127,1915163156
70,19,17,Jits_Phase_5,0,5,80,127,1915600176
70,19,17,Jits_Phase_5,1,1,48,30,1915663100
70,19,17,Jits_Phase_5,2,5,63,98,1915690400
70,19,17,Jits_Phase_5,3,5,56,103,1915699548
70,19,17,Jits_Phase_5,0,5,56,103,1916100148
70,19,17,Jits_Phase_5,1,5,63,98,1916103172
70,19,17,Jits_Phase_5,2,5,80,127,1916106368
70,19,17,Jits_Phase_5,3,1,48,29,1916199272
70,19,17,Jits_Phase_5,0,1,48,25,1916608268
70,19,17,Jits_Phase_5,1,5,80,127,1916620424
70,19,17,Jits_Phase_5,2,5,63,98,1916670204
70,19,17,Jits_Phase_5,3,5,56,103,1916700176
70,19,17,Jits_Phase_5,0,5,56,103,1917100256
70,19,17,Jits_Phase_5,1,5,80,127,1917109556
70,19,17,Jits_Phase_5,2,1,48,30,1917140916
70,19,17,Jits_Phase_5,3,5,63,98,1917180372
70,19,17,Jits_Phase_5,0,5,56,103,1917610356
70,19,17,Jits_Phase_5,1,1,48,27,1917622240
70,19,17,Jits_Phase_5,2,5,63,98,1917629688
70,19,17,Jits_Phase_5,3,5,80,127,1917690396
70,19,17,Jits_Phase_5,0,5,80,127,1918099784
70,19,17,Jits_Phase_5,1,1,48,32,1918153692
70,19,17,Jits_Phase_5,2,5,63,98,1918169384
70,19,17,Jits_Phase_5,3,5,56,103,1918189940
70,19,17,Jits_Phase_5,0,5,80,127,1918620224
70,19,17,Jits_Phase_5,1,5,56,103,1918630420
70,19,17,Jits_Phase_5,2,5,63,98,1918639348
70,19,17,Jits_Phase_5,3,1,48,32,1918673772
70,19,17,Jits_Phase_5,0,5,80,127,1919109500
70,19,17,Jits_Phase_5,1,5,56,103,1919130180
70,19,17,Jits_Phase_5,2,1,48,30,1919164540
70,19,17,Jits_Phase_5,3,5,63,98,1919199628
70,19,17,Jits_Phase_5,0,5,56,103,1919619456
70,19,17,Jits_Phase_5,1,5,80,127,1919650248
70,19,17,Jits_Phase_5,2,1,48,29,1919656064
70,19,17,Jits_Phase_5,3,5,63,98,1919669580
70,19,17,Jits_Phase_5,0,5,63,98,1920110076
70,19,17,Jits_Phase_5,1,1,48,32,1920133200
70,19,17,Jits_Phase_5,2,5,56,103,1920170236
70,19,17,Jits_Phase_5,3,5,80,127,1920200208
70,19,17,Jits_Phase_5,0,5,63,98,1920600460
70,19,17,Jits_Phase_5,1,5,80,127,1920603600
70,19,17,Jits_Phase_5,2,1,48,26,1920614288
70,19,17,Jits_Phase_5,3,5,56,103,1920689532
70,19,17,Jits_Phase_5,0,5,56,103,1921119532
70,19,17,Jits_Phase_5,1,1,48,34,1921138536
70,19,17,Jits_Phase_5,2,5,63,98,1921150248
70,19,17,Jits_Phase_5,3,5,80,127,1921190332
70,19,17,Jits_Phase_5,0,5,63,98,1921620416
70,19,17,Jits_Phase_5,1,1,48,24,1921640024
70,19,17,Jits_Phase_5,2,5,56,103,1921660276
70,19,17,Jits_Phase_5,3,5,80,127,1921679612
70,19,17,Jits_Phase_5,0,1,48,35,1922129528
70,19,17,Jits_Phase_5,1,5,63,98,1922131176
70,19,17,Jits_Phase_5,2,5,56,103,1922170140
70,19,17,Jits_Phase_5,3,5,80,127,1922179660
70,19,17,Jits_Phase_5,0,5,80,127,1922609656
70,19,17,Jits_Phase_5,1,1,48,28,1922664916
70,19,17,Jits_Phase_5,2,5,63,98,1922680080
70,19,17,Jits_Phase_5,3,5,56,103,1922699716
70,19,17,Jits_Phase_5,0,5,56,103,1923100056
70,19,17,Jits_Phase_5,1,5,80,127,1923119468
70,19,17,Jits_Phase_5,2,5,63,98,1923160528
70,19,17,Jits_Phase_5,3,1,48,33,1923184172
70,19,17,Jits_Phase_5,0,5,63,98,1923610084
70,19,17,Jits_Phase_5,1,5,80,127,1923629348
70,19,17,Jits_Phase_5,2,1,48,26,1923662576
70,19,17,Jits_Phase_5,3,5,56,103,1923670396
70,19,17,Jits_Phase_5,0,5,63,98,1924109608
70,19,17,Jits_Phase_5,1,5,56,103,1924130140
70,19,17,Jits_Phase_5,2,5,80,127,1924140484
70,19,17,Jits_Phase_5,3,1,48,35,1924157080
70,19,17,Jits_Phase_5,0,1,48,27,1924597940
70,19,17,Jits_Phase_5,1,5,80,127,1924610320
70,19,17,Jits_Phase_5,2,5,56,103,1924630028
70,19,17,Jits_Phase_5,3,5,63,98,1924659480
70,19,17,Jits_Phase_5,0,1,48,33,1925112888
70,19,17,Jits_Phase_5,1,5,56,103,1925179740
70,19,17,Jits_Phase_5,2,5,80,127,1925182884
70,19,17,Jits_Phase_5,3,5,63,98,1925200348
70,19,17,Jits_Phase_5,0,5,63,98,1925599608
70,19,17,Jits_Phase_5,1,5,56,103,1925630328
70,19,17,Jits_Phase_5,2,1,48,23,1925682140
70,19,17,Jits_Phase_5,3,5,80,127,1925689588
70,19,17,Jits_Phase_5,0,1,48,32,1926131764
70,19,17,Jits_Phase_5,1,5,63,98,1926180264
70,19,17,Jits_Phase_5,2,5,56,103,1926189560
70,19,17,Jits_Phase_5,3,5,80,127,1926199756
70,19,17,Jits_Phase_5,0,5,56,103,1926640168
70,19,17,Jits_Phase_5,1,1,48,24,1926652724
70,19,17,Jits_Phase_5,2,5,80,127,1926669540
70,19,17,Jits_Phase_5,3,5,63,98,1926680104
70,19,17,Jits_Phase_5,0,1,48,33,1927163868
70,19,17,Jits_Phase_5,1,5,63,98,1927179560
70,19,17,Jits_Phase_5,2,5,56,103,1927189980
70,19,17,Jits_Phase_5,3,5,80,127,1927210288
70,19,17,Jits_Phase_5,0,5,56,103,1927609696
70,19,17,Jits_Phase_5,1,5,63,98,1927670028
70,19,17,Jits_Phase_5,2,5,80,127,1927673252
70,19,17,Jits_Phase_5,3,1,48,26,1927676816
70,19,17,Jits_Phase_5,0,5,80,127,1928130124
70,19,17,Jits_Phase_5,1,5,56,103,1928140096
70,19,17,Jits_Phase_5,2,1,48,34,1928167748
70,19,17,Jits_Phase_5,3,5,63,98,1928210016
70,19,17,Jits_Phase_5,0,1,48,25,1928613816
70,19,17,Jits_Phase_5,1,5,80,127,1928620368
70,19,17,Jits_Phase_5,2,5,56,103,1928690072
70,19,17,Jits_Phase_5,3,5,63,98,1928700416
70,19,17,Jits_Phase_5,0,1,48,32,1929155300
70,19,17,Jits_Phase_5,1,5,63,98,1929160128
70,19,17,Jits_Phase_5,2,5,56,103,1929170248
70,19,17,Jits_Phase_5,3,5,80,127,1929189608
70,19,17,Jits_Phase_5,0,5,80,127,1929609540
70,19,17,Jits_Phase_5,1,1,48,21,1929654684
70,19,17,Jits_Phase_5,2,5,63,98,1929669996
70,19,17,Jits_Phase_5,3,5,56,103,1929710180
70,19,17,Jits_Phase_5,0,5,56,103,1930150360
70,19,17,Jits_Phase_5,1,1,48,34,1930155424
70,19,17,Jits_Phase_5,2,5,63,98,1930159576
70,19,17,Jits_Phase_5,3,5,80,127,1930200336
70,19,17,Jits_Phase_5,0,5,56,103,1930609896
70,19,17,Jits_Phase_5,1,5,80,127,1930639720
70,19,17,Jits_Phase_5,2,1,48,23,1930652804
70,19,17,Jits_Phase_5,3,5,63,98,1930689908
70,19,17,Jits_Phase_5,0,1,48,34,1931132916
70,19,17,Jits_Phase_5,1,5,56,103,1931149656
70,19,17,Jits_Phase_5,2,5,63,98,1931189512
70,19,17,Jits_Phase_5,3,5,80,127,1931192956
70,19,17,Jits_Phase_5,0,1,48,21,1931632436
70,19,17,Jits_Phase_5,1,5,56,103,1931650520
70,19,17,Jits_Phase_5,2,5,63,98,1931659596
70,19,17,Jits_Phase_5,3,5,80,127,1931679980
70,19,17,Jits_Phase_5,0,5,56,103,1932110120
70,19,17,Jits_Phase_5,1,5,80,127,1932113264
70,19,17,Jits_Phase_5,2,1,48,31,1932149912
70,19,17,Jits_Phase_5,3,5,63,98,1932151324
70,19,17,Jits_Phase_5,0,1,48,18,1932597712
70,19,17,Jits_Phase_5,1,5,63,98,1932650024
70,19,17,Jits_Phase_5,2,5,56,103,1932679400
70,19,17,Jits_Phase_5,3,5,80,127,1932700140
70,19,17,Jits_Phase_5,0,5,80,127,1933119968
70,19,17,Jits_Phase_5,1,5,56,103,1933130088
70,19,17,Jits_Phase_5,2,5,63,98,1933140284
70,19,17,Jits_Phase_5,3,1,48,29,1933169852
70,19,17,Jits_Phase_5,0,5,56,103,1933619504
70,19,17,Jits_Phase_5,1,5,80,127,1933659368
70,19,17,Jits_Phase_5,2,1,48,20,1933665028
70,19,17,Jits_Phase_5,3,5,63,98,1933690156
70,19,17,Jits_Phase_5,0,5,63,98,1934129604
70,19,17,Jits_Phase_5,1,5,80,127,1934140024
70,19,17,Jits_Phase_5,2,1,48,32,1934148480
70,19,17,Jits_Phase_5,3,5,56,103,1934149988
70,19,17,Jits_Phase_5,0,5,56,103,1934620060
70,19,17,Jits_Phase_5,1,1,48,24,1934641612
70,19,17,Jits_Phase_5,2,5,63,98,1934689584
70,19,17,Jits_Phase_5,3,5,80,127,1934699928
70,19,17,Jits_Phase_5,0,5,80,127,1935129936
70,19,17,Jits_Phase_5,1,5,56,103,1935140208
70,19,17,Jits_Phase_5,2,1,48,32,1935150152
70,19,17,Jits_Phase_5,3,5,63,98,1935190252
70,19,17,Jits_Phase_5,0,5,80,127,1935639888
70,19,17,Jits_Phase_5,1,1,48,24,1935657164
70,19,17,Jits_Phase_5,2,5,56,103,1935700272
70,19,17,Jits_Phase_5,3,5,63,98,1935730020
70,19,17,Jits_Phase_5,0,5,56,103,1936139728
70,19,17,Jits_Phase_5,1,5,80,127,1936142644
70,19,17,Jits_Phase_5,2,5,63,98,1936179516
70,19,17,Jits_Phase_5,3,1,48,36,1936194020
70,19,17,Jits_Phase_5,0,1,48,22,1936659304
70,19,17,Jits_Phase_5,1,5,56,103,1936670040
70,19,17,Jits_Phase_5,2,5,63,98,1936699864
70,19,17,Jits_Phase_5,3,5,80,127,1936709988
70,19,17,Jits_Phase_5,0,1,48,30,1937179764
70,19,17,Jits_Phase_5,1,5,63,98,1937181252
70,19,17,Jits_Phase_5,2,5,80,127,1937190252
70,19,17,Jits_Phase_5,3,5,56,103,1937199476
70,19,17,Jits_Phase_5,0,5,80,127,1937629444
70,19,17,Jits_Phase_5,1,1,48,24,1937664352
70,19,17,Jits_Phase_5,2,5,56,103,1937679812
70,19,17,Jits_Phase_5,3,5,63,98,1937682804
70,19,17,Jits_Phase_5,0,5,56,103,1938159940
70,19,17,Jits_Phase_5,1,1,48,34,1938170932
70,19,17,Jits_Phase_5,2,5,80,127,1938179492
70,19,17,Jits_Phase_5,3,5,63,98,1938189840
70,19,17,Jits_Phase_5,0,1,48,22,1938634692
70,19,17,Jits_Phase_5,1,5,63,98,1938640120
70,19,17,Jits_Phase_5,2,5,56,103,1938669968
70,19,17,Jits_Phase_5,3,5,80,127,1938690352
70,19,17,Jits_Phase_5,0,1,48,35,1939140744
70,19,17,Jits_Phase_5,1,5,56,103,1939150208
70,19,17,Jits_Phase_5,2,5,80,127,1939160552
70,19,17,Jits_Phase_5,3,5,63,98,1939230032
70,19,17,Jits_Phase_5,0,5,63,98,1939639776
70,19,17,Jits_Phase_5,1,1,48,21,1939640744
70,19,17,Jits_Phase_5,2,5,80,127,1939679784
70,19,17,Jits_Phase_5,3,5,56,103,1939719892
70,19,17,Jits_Phase_5,0,5,56,103,1940149784
70,19,17,Jits_Phase_5,1,5,63,98,1940159984
70,19,17,Jits_Phase_5,2,1,48,33,1940163400
70,19,17,Jits_Phase_5,3,5,80,127,1940180288
70,19,17,Jits_Phase_5,0,1,48,19,1940626956
70,19,17,Jits_Phase_5,1,5,63,98,1940690148
70,19,17,Jits_Phase_5,2,5,80,127,1940709736
70,19,17,Jits_Phase_5,3,5,56,103,1940730104
70,19,17,Jits_Phase_5,0,5,56,103,1941129672
70,19,17,Jits_Phase_5,1,1,48,32,1941171148
70,19,17,Jits_Phase_5,2,5,80,127,1941209384
70,19,17,Jits_Phase_5,3,5,63,98,1941219976
70,19,17,Jits_Phase_5,0,5,80,127,1941670340
70,19,17,Jits_Phase_5,1,5,63,98,1941679492
70,19,17,Jits_Phase_5,2,1,48,25,1941681724
70,19,17,Jits_Phase_5,3,5,56,103,1941710128
70,19,17,Jits_Phase_5,0,5,63,98,1942130024
70,19,17,Jits_Phase_5,1,5,80,127,1942169964
70,19,17,Jits_Phase_5,2,1,48,33,1942193680
70,19,17,Jits_Phase_5,3,5,56,103,1942230420
70,19,17,Jits_Phase_5,0,1,48,23,1942636852
70,19,17,Jits_Phase_5,1,5,63,98,1942639956
70,19,17,Jits_Phase_5,2,5,56,103,1942690160
70,19,17,Jits_Phase_5,3,5,80,127,1942719984
70,19,17,Jits_Phase_5,0,1,48,33,1943139344
70,19,17,Jits_Phase_5,1,5,80,127,1943140684
70,19,17,Jits_Phase_5,2,5,63,98,1943149832
70,19,17,Jits_Phase_5,3,5,56,103,1943219732
70,19,17,Jits_Phase_5,0,1,48,25,1943657728
70,19,17,Jits_Phase_5,1,5,80,127,1943699924
70,19,17,Jits_Phase_5,2,5,56,103,1943710120
70,19,17,Jits_Phase_5,3,5,63,98,1943713112
70,19,17,Jits_Phase_5,0,5,56,103,1944140192
70,19,17,Jits_Phase_5,1,5,80,127,1944159828
70,19,17,Jits_Phase_5,2,5,63,98,1944169800
70,19,17,Jits_Phase_5,3,1,48,36,1944170988
70,19,17,Jits_Phase_5,0,1,48,19,1944632360
70,19,17,Jits_Phase_5,1,5,63,98,1944650140
70,19,17,Jits_Phase_5,2,5,56,103,1944690004
70,19,17,Jits_Phase_5,3,5,80,127,1944709416
70,19,17,Jits_Phase_5,0,1,48,28,1945141100
70,19,17,Jits_Phase_5,1,5,63,98,1945149744
70,19,17,Jits_Phase_5,2,5,56,103,1945210208
70,19,17,Jits_Phase_5,3,5,80,127,1945213424
70,19,17,Jits_Phase_5,0,5,56,103,1945609788
70,19,17,Jits_Phase_5,1,5,80,127,1945629948
70,19,17,Jits_Phase_5,2,1,48,18,1945648356
70,19,17,Jits_Phase_5,3,5,63,98,1945670024
70,19,17,Jits_Phase_5,0,5,56,103,1946140036
70,19,17,Jits_Phase_5,1,1,48,31,1946159072
70,19,17,Jits_Phase_5,2,5,63,98,1946160640
70,19,17,Jits_Phase_5,3,5,80,127,1946169788
70,19,17,Jits_Phase_5,0,5,80,127,1946610060
70,19,17,Jits_Phase_5,1,1,48,23,1946629440
70,19,17,Jits_Phase_5,2,5,56,103,1946639728
70,19,17,Jits_Phase_5,3,5,63,98,1946679812
70,19,17,Jits_Phase_5,0,5,80,127,1947120084
70,19,17,Jits_Phase_5,1,1,48,32,1947132268
70,19,17,Jits_Phase_5,2,5,56,103,1947139488
70,19,17,Jits_Phase_5,3,5,63,98,1947199948
70,19,17,Jits_Phase_5,0,1,48,20,1947628604
70,19,17,Jits_Phase_5,1,5,56,103,1947630028
70,19,17,Jits_Phase_5,2,5,80,127,1947650560
70,19,17,Jits_Phase_5,3,5,63,98,1947709752
70,19,17,Jits_Phase_5,0,5,80,127,1948110132
70,19,17,Jits_Phase_5,1,1,48,32,1948119036
70,19,17,Jits_Phase_5,2,5,56,103,1948120696
70,19,17,Jits_Phase_5,3,5,63,98,1948160284
70,19,17,Jits_Phase_5,0,1,48,20,1948593972
70,19,17,Jits_Phase_5,1,5,63,98,1948610036
70,19,17,Jits_Phase_5,2,5,56,103,1948649848
70,19,17,Jits_Phase_5,3,5,80,127,1948652916
70,19,17,Jits_Phase_5,0,5,63,98,1949130160
70,19,17,Jits_Phase_5,1,1,48,29,1949150960
70,19,17,Jits_Phase_5,2,5,80,127,1949169968
70,19,17,Jits_Phase_5,3,5,56,103,1949199788
70,19,17,Jits_Phase_5,0,5,56,103,1949619720
70,19,17,Jits_Phase_5,1,5,63,98,1949629768
70,19,17,Jits_Phase_5,2,1,48,24,1949639184
70,19,17,Jits_Phase_5,3,5,80,127,1949659584
70,19,17,Jits_Phase_5,0,5,80,127,1950110044
70,19,17,Jits_Phase_5,1,1,48,33,1950126864
70,19,17,Jits_Phase_5,2,5,63,98,1950179816
70,19,17,Jits_Phase_5,3,5,56,103,1950189864
70,19,17,Jits_Phase_5,0,1,48,19,1950607616
70,19,17,Jits_Phase_5,1,5,63,98,1950609728
70,19,17,Jits_Phase_5,2,5,56,103,1950680604
70,19,17,Jits_Phase_5,3,5,80,127,1950689628
70,19,17,Jits_Phase_5,0,5,63,98,1951090076
70,19,17,Jits_Phase_5,1,5,56,103,1951109640
70,19,17,Jits_Phase_5,2,1,48,33,1951134784
70,19,17,Jits_Phase_5,3,5,80,127,1951149568
70,19,17,Jits_Phase_5,0,5,56,103,1951570276
70,19,17,Jits_Phase_5,1,5,63,98,1951579648
70,19,17,Jits_Phase_5,2,1,48,17,1951605612
70,19,17,Jits_Phase_5,3,5,80,127,1951660480
70,19,17,Jits_Phase_5,0,5,63,98,1952059704
70,19,17,Jits_Phase_5,1,5,56,103,1952089600
70,19,17,Jits_Phase_5,2,1,48,35,1952094888
70,19,17,Jits_Phase_5,3,5,80,127,1952130576
70,19,17,Jits_Phase_5,0,5,56,103,1952559672
70,19,17,Jits_Phase_5,1,1,48,21,1952580628
70,19,17,Jits_Phase_5,2,5,63,98,1952600576
70,19,17,Jits_Phase_5,3,5,80,127,1952640660
70,19,17,Jits_Phase_5,0,5,80,127,1953060188
70,19,17,Jits_Phase_5,1,1,48,32,1953072968
70,19,17,Jits_Phase_5,2,5,56,103,1953139976
70,19,17,Jits_Phase_5,3,5,63,98,1953150540
70,19,17,Jits_Phase_5,0,1,48,18,1953584936
70,19,17,Jits_Phase_5,1,5,56,103,1953599724
70,19,17,Jits_Phase_5,2,5,63,98,1953602872
70,19,17,Jits_Phase_5,3,5,80,127,1953610220
70,19,17,Jits_Phase_5,0,1,48,31,1954095840
70,19,17,Jits_Phase_5,1,5,56,103,1954120072
70,19,17,Jits_Phase_5,2,5,63,98,1954139636
70,19,17,Jits_Phase_5,3,5,80,127,1954149756
70,19,17,Jits_Phase_5,0,5,63,98,1954579828
70,19,17,Jits_Phase_5,1,5,80,127,1954590100
70,19,17,Jits_Phase_5,2,5,56,103,1954609732
70,19,17,Jits_Phase_5,3,1,48,14,1954610996
70,19,17,Jits_Phase_5,0,5,63,98,1955079500
70,19,17,Jits_Phase_5,1,1,48,27,1955097296
70,19,17,Jits_Phase_5,2,5,56,103,1955160408
70,19,17,Jits_Phase_5,3,5,80,127,1955163624
70,19,17,Jits_Phase_5,0,5,63,98,1955580444
70,19,17,Jits_Phase_5,1,5,56,103,1955599708
70,19,17,Jits_Phase_5,2,1,48,18,1955621932
70,19,17,Jits_Phase_5,3,5,80,127,1955629596
70,19,17,Jits_Phase_5,0,5,56,103,1956079968
70,19,17,Jits_Phase_5,1,1,48,31,1956090656
70,19,17,Jits_Phase_5,2,5,63,98,1956099596
70,19,17,Jits_Phase_5,3,5,80,127,1956109568
70,19,17,Jits_Phase_5,0,1,48,13,1956582168
70,19,17,Jits_Phase_5,1,5,56,103,1956610516
70,19,17,Jits_Phase_5,2,5,63,98,1956639960
70,19,17,Jits_Phase_5,3,5,80,127,1956643552
70,19,17,Jits_Phase_5,0,5,56,103,1957059896
70,19,17,Jits_Phase_5,1,1,48,26,1957098044
70,19,17,Jits_Phase_5,2,5,63,98,1957099852
70,19,17,Jits_Phase_5,3,5,80,127,1957160388
70,19,17,Jits_Phase_5,0,1,48,14,1957564868
70,19,17,Jits_Phase_5,1,5,56,103,1957580108
70,19,17,Jits_Phase_5,2,5,63,98,1957590824
70,19,17,Jits_Phase_5,3,5,80,127,1957649668
70,19,17,Jits_Phase_5,0,5,56,103,1958079716
70,19,17,Jits_Phase_5,1,1,48,28,1958084328
70,19,17,Jits_Phase_5,2,5,80,127,1958100388
70,19,17,Jits_Phase_5,3,5,63,98,1958130016
70,19,17,Jits_Phase_5,0,1,48,15,1958565276
70,19,17,Jits_Phase_5,1,5,80,127,1958589880
70,19,17,Jits_Phase_5,2,5,56,103,1958600076
70,19,17,Jits_Phase_5,3,5,63,98,1958619560
70,19,17,Jits_Phase_5,0,1,48,28,1959074680
70,19,17,Jits_Phase_5,1,5,63,98,1959080484
70,19,17,Jits_Phase_5,2,5,80,127,1959160376
70,19,17,Jits_Phase_5,3,5,56,103,1959170348
70,19,17,Jits_Phase_5,0,1,48,19,1959608464
70,19,17,Jits_Phase_5,1,5,80,127,1959670092
70,19,17,Jits_Phase_5,2,5,56,103,1959689652
70,19,17,Jits_Phase_5,3,5,63,98,1959692644
70,19,17,Jits_Phase_5,0,5,63,98,1960159552
70,19,17,Jits_Phase_5,1,1,48,30,1960161436
70,19,17,Jits_Phase_5,2,5,80,127,1960164028
70,19,17,Jits_Phase_5,3,5,56,103,1960220380
70,19,17,Jits_Phase_5,0,5,56,103,1960639720
70,19,17,Jits_Phase_5,1,5,80,127,1960650508
70,19,17,Jits_Phase_5,2,1,48,16,1960667188
70,19,17,Jits_Phase_5,3,5,63,98,1960690016
70,19,17,Jits_Phase_5,0,5,56,103,1961130336
70,19,17,Jits_Phase_5,1,1,48,27,1961157120
70,19,17,Jits_Phase_5,2,5,63,98,1961189844
70,19,17,Jits_Phase_5,3,5,80,127,1961199964
70,19,17,Jits_Phase_5,0,1,48,18,1961627580
70,19,17,Jits_Phase_5,1,5,63,98,1961640356
70,19,17,Jits_Phase_5,2,5,80,127,1961680292
70,19,17,Jits_Phase_5,3,5,56,103,1961720328
70,19,17,Jits_Phase_5,0,5,56,103,1962139888
70,19,17,Jits_Phase_5,1,1,48,28,1962158300
70,19,17,Jits_Phase_5,2,5,63,98,1962219848
70,19,17,Jits_Phase_5,3,5,80,127,1962223360
70,19,17,Jits_Phase_5,0,1,48,16,1962655192
70,19,17,Jits_Phase_5,1,5,80,127,1962700320
70,19,17,Jits_Phase_5,2,5,56,103,1962729872
70,19,17,Jits_Phase_5,3,5,63,98,1962732864
70,19,17,Jits_Phase_5,0,5,56,103,1963159772
70,19,17,Jits_Phase_5,1,5,80,127,1963180380
70,19,17,Jits_Phase_5,2,1,48,26,1963199312
70,19,17,Jits_Phase_5,3,5,63,98,1963220608
70,19,17,Jits_Phase_5,0,5,80,127,1963640284
70,19,17,Jits_Phase_5,1,5,63,98,1963659548
70,19,17,Jits_Phase_5,2,5,56,103,1963720452
70,19,17,Jits_Phase_5,3,1,48,20,1963724696
70,19,17,Jits_Phase_5,0,5,63,98,1964150384
70,19,17,Jits_Phase_5,1,5,56,103,1964160504
70,19,17,Jits_Phase_5,2,1,48,28,1964186700
70,19,17,Jits_Phase_5,3,5,80,127,1964209580
70,19,17,Jits_Phase_5,0,5,56,103,1964639500
70,19,17,Jits_Phase_5,1,1,48,17,1964640468
70,19,17,Jits_Phase_5,2,5,63,98,1964660028
70,19,17,Jits_Phase_5,3,5,80,127,1964670520
70,19,17,Jits_Phase_5,0,1,48,28,1965135628
70,19,17,Jits_Phase_5,1,5,56,103,1965140304
70,19,17,Jits_Phase_5,2,5,63,98,1965143372
70,19,17,Jits_Phase_5,3,5,80,127,1965159792
70,19,17,Jits_Phase_5,0,1,48,19,1965641888
70,19,17,Jits_Phase_5,1,5,63,98,1965680196
70,19,17,Jits_Phase_5,2,5,56,103,1965709648
70,19,17,Jits_Phase_5,3,5,80,127,1965740352
70,19,17,Jits_Phase_5,0,5,80,127,1966139728
70,19,17,Jits_Phase_5,1,1,48,31,1966168996
70,19,17,Jits_Phase_5,2,5,56,103,1966229852
70,19,17,Jits_Phase_5,3,5,63,98,1966232916
70,19,17,Jits_Phase_5,0,5,56,103,1966639408
70,19,17,Jits_Phase_5,1,5,80,127,1966642472
70,19,17,Jits_Phase_5,2,1,48,20,1966666192
70,19,17,Jits_Phase_5,3,5,63,98,1966720312
70,19,17,Jits_Phase_5,0,5,80,127,1967140280
70,19,17,Jits_Phase_5,1,1,48,28,1967184976
70,19,17,Jits_Phase_5,2,5,63,98,1967199540
70,19,17,Jits_Phase_5,3,5,56,103,1967230408
70,19,17,Jits_Phase_5,0,5,63,98,1967640116
70,19,17,Jits_Phase_5,1,5,80,127,1967650236
70,19,17,Jits_Phase_5,2,1,48,22,1967697620
70,19,17,Jits_Phase_5,3,5,56,103,1967719684
70,19,17,Jits_Phase_5,0,1,48,33,1968187564
70,19,17,Jits_Phase_5,1,5,56,103,1968200240
70,19,17,Jits_Phase_5,2,5,80,127,1968229844
70,19,17,Jits_Phase_5,3,5,63,98,1968279816
70,19,17,Jits_Phase_5,0,1,48,24,1968711272
70,19,17,Jits_Phase_5,1,5,63,98,1968789816
70,19,17,Jits_Phase_5,2,5,56,103,1968819548
70,19,17,Jits_Phase_5,3,5,80,127,1968822688
70,19,17,Jits_Phase_5,0,1,48,31,1969282112
70,19,17,Jits_Phase_5,1,5,63,98,1969289632
70,19,17,Jits_Phase_5,2,5,80,127,1969310240
70,19,17,Jits_Phase_5,3,5,56,103,1969320284
70,19,17,Jits_Phase_5,0,1,48,21,1969787472
70,19,17,Jits_Phase_5,1,5,56,103,1969799496
70,19,17,Jits_Phase_5,2,5,63,98,1969802488
70,19,17,Jits_Phase_5,3,5,80,127,1969820100
70,19,17,Jits_Phase_5,0,5,56,103,1970250172
70,19,17,Jits_Phase_5,1,5,63,98,1970260220
70,19,17,Jits_Phase_5,2,5,80,127,1970290264
70,19,17,Jits_Phase_5,3,1,48,30,1970299752
70,19,17,Jits_Phase_5,0,1,48,22,1970728256
70,19,17,Jits_Phase_5,1,5,63,98,1970770156
70,19,17,Jits_Phase_5,2,5,80,127,1970789792
70,19,17,Jits_Phase_5,3,5,56,103,1970829784
70,19,17,Jits_Phase_5,0,1,48,32,1971282908
70,19,17,Jits_Phase_5,1,5,56,103,1971299648
70,19,17,Jits_Phase_5,2,5,63,98,1971339504
70,19,17,Jits_Phase_5,3,5,80,127,1971342948
70,19,17,Jits_Phase_5,0,5,80,127,1971740360
70,19,17,Jits_Phase_5,1,5,56,103,1971780076
70,19,17,Jits_Phase_5,2,1,48,24,1971802972
70,19,17,Jits_Phase_5,3,5,63,98,1971830192
70,19,17,Jits_Phase_5,0,5,56,103,1972300360
70,19,17,Jits_Phase_5,1,1,48,36,1972303184
70,19,17,Jits_Phase_5,2,5,80,127,1972310252
70,19,17,Jits_Phase_5,3,5,63,98,1972340296
70,19,17,Jits_Phase_5,0,5,56,103,1972749784
70,19,17,Jits_Phase_5,1,1,48,22,1972776720
70,19,17,Jits_Phase_5,2,5,80,127,1972789640
70,19,17,Jits_Phase_5,3,5,63,98,1972839840
70,19,17,Jits_Phase_5,0,5,56,103,1973250372
70,19,17,Jits_Phase_5,1,1,48,31,1973278668
70,19,17,Jits_Phase_5,2,5,80,127,1973290304
70,19,17,Jits_Phase_5,3,5,63,98,1973339604
70,19,17,Jits_Phase_5,0,5,80,127,1973740092
70,19,17,Jits_Phase_5,1,1,48,21,1973750860
70,19,17,Jits_Phase_5,2,5,63,98,1973819732
70,19,17,Jits_Phase_5,3,5,56,103,1973830004
70,19,17,Jits_Phase_5,0,1,48,27,1974273612
70,19,17,Jits_Phase_5,1,5,80,127,1974289752
70,19,17,Jits_Phase_5,2,5,56,103,1974300244
70,19,17,Jits_Phase_5,3,5,63,98,1974319432
70,19,17,Jits_Phase_5,0,5,63,98,1974759688
70,19,17,Jits_Phase_5,1,1,48,18,1974765424
70,19,17,Jits_Phase_5,2,5,56,103,1974829280
70,19,17,Jits_Phase_5,3,5,80,127,1974832504
70,19,17,Jits_Phase_5,0,5,80,127,1975250264
70,19,17,Jits_Phase_5,1,1,48,30,1975281056
70,19,17,Jits_Phase_5,2,5,63,98,1975299360
70,19,17,Jits_Phase_5,3,5,56,103,1975340272
70,19,17,Jits_Phase_5,0,1,48,21,1975763776
70,19,17,Jits_Phase_5,1,5,63,98,1975790204
70,19,17,Jits_Phase_5,2,5,56,103,1975830068
70,19,17,Jits_Phase_5,3,5,80,127,1975840264
70,19,17,Jits_Phase_5,0,5,63,98,1976280500
70,19,17,Jits_Phase_5,1,1,48,32,1976296752
70,19,17,Jits_Phase_5,2,5,56,103,1976300156
70,19,17,Jits_Phase_5,3,5,80,127,1976320388
70,19,17,Jits_Phase_5,0,5,80,127,1976740240
70,19,17,Jits_Phase_5,1,5,56,103,1976749316
70,19,17,Jits_Phase_5,2,5,63,98,1976770068
70,19,17,Jits_Phase_5,3,1,48,18,1976771556
70,19,17,Jits_Phase_5,0,5,63,98,1977269740
70,19,17,Jits_Phase_5,1,1,48,32,1977274352
70,19,17,Jits_Phase_5,2,5,56,103,1977309672
70,19,17,Jits_Phase_5,3,5,80,127,1977340268
70,19,17,Jits_Phase_5,0,5,56,103,1977730384
70,19,17,Jits_Phase_5,1,5,63,98,1977760132
70,19,17,Jits_Phase_5,2,1,48,16,1977762956
70,19,17,Jits_Phase_5,3,5,80,127,1977789952
70,19,17,Jits_Phase_5,0,5,80,127,1978150148
70,19,17,Jits_Phase_5,1,5,56,103,1978219972
70,19,17,Jits_Phase_5,2,5,63,98,1978222968
70,19,17,Jits_Phase_5,3,1,48,32,1978255452
70,19,17,Jits_Phase_5,0,5,56,103,1978660096
70,19,17,Jits_Phase_5,1,5,63,98,1978710444
70,19,17,Jits_Phase_5,2,1,48,21,1978725696
70,19,17,Jits_Phase_5,3,5,80,127,1978740184
70,19,17,Jits_Phase_5,0,5,63,98,1979139404
70,19,17,Jits_Phase_5,1,5,80,127,1979142696
70,19,17,Jits_Phase_5,2,1,48,32,1979197124
70,19,17,Jits_Phase_5,3,5,56,103,1979199860
70,19,17,Jits_Phase_5,0,1,48,16,1979639864
70,19,17,Jits_Phase_5,1,5,56,103,1979670000
70,19,17,Jits_Phase_5,2,5,80,127,1979680124
70,19,17,Jits_Phase_5,3,5,63,98,1979730248
70,19,17,Jits_Phase_5,0,5,63,98,1980140012
70,19,17,Jits_Phase_5,1,1,48,30,1980148392
70,19,17,Jits_Phase_5,2,5,56,103,1980150056
70,19,17,Jits_Phase_5,3,5,80,127,1980180100
70,19,17,Jits_Phase_5,0,1,48,22,1980666464
70,19,17,Jits_Phase_5,1,5,63,98,1980670164
70,19,17,Jits_Phase_5,2,5,80,127,1980673536
70,19,17,Jits_Phase_5,3,5,56,103,1980700068
70,19,17,Jits_Phase_5,0,1,48,32,1981187656
70,19,17,Jits_Phase_5,1,5,63,98,1981189392
70,19,17,Jits_Phase_5,2,5,56,103,1981210072
70,19,17,Jits_Phase_5,3,5,80,127,1981213216
70,19,17,Jits_Phase_5,0,5,63,98,1981650384
70,19,17,Jits_Phase_5,1,1,48,19,1981690992
70,19,17,Jits_Phase_5,2,5,56,103,1981720080
70,19,17,Jits_Phase_5,3,5,80,127,1981740388
70,19,17,Jits_Phase_5,0,5,56,103,1982139796
70,19,17,Jits_Phase_5,1,5,63,98,1982149920
70,19,17,Jits_Phase_5,2,1,48,33,1982176804
70,19,17,Jits_Phase_5,3,5,80,127,1982240064
70,19,17,Jits_Phase_5,0,1,48,19,1982630988
70,19,17,Jits_Phase_5,1,5,56,103,1982660080
70,19,17,Jits_Phase_5,2,5,80,127,1982699968
70,19,17,Jits_Phase_5,3,5,63,98,1982710088
70,19,17,Jits_Phase_5,0,1,48,29,1983149464
70,19,17,Jits_Phase_5,1,5,56,103,1983180128
70,19,17,Jits_Phase_5,2,5,63,98,1983209976
70,19,17,Jits_Phase_5,3,5,80,127,1983239428
70,19,17,Jits_Phase_5,0,5,80,127,1983639884
70,19,17,Jits_Phase_5,1,1,48,19,1983677008
70,19,17,Jits_Phase_5,2,5,63,98,1983680112
70,19,17,Jits_Phase_5,3,5,56,103,1983700272
70,19,17,Jits_Phase_5,0,1,48,32,1984175940
70,19,17,Jits_Phase_5,1,5,56,103,1984179648
70,19,17,Jits_Phase_5,2,5,80,127,1984200032
70,19,17,Jits_Phase_5,3,5,63,98,1984219592
70,19,17,Jits_Phase_5,0,5,63,98,1984649664
70,19,17,Jits_Phase_5,1,5,56,103,1984659932
70,19,17,Jits_Phase_5,2,1,48,20,1984662524
70,19,17,Jits_Phase_5,3,5,80,127,1984720236
70,19,17,Jits_Phase_5,0,5,56,103,1985150304
70,19,17,Jits_Phase_5,1,1,48,29,1985165108
70,19,17,Jits_Phase_5,2,5,63,98,1985219832
70,19,17,Jits_Phase_5,3,5,80,127,1985240364
70,19,17,Jits_Phase_5,0,1,48,17,1985645460
70,19,17,Jits_Phase_5,1,5,56,103,1985650140
70,19,17,Jits_Phase_5,2,5,63,98,1985680036
70,19,17,Jits_Phase_5,3,5,80,127,1985719824
70,19,17,Jits_Phase_5,0,5,63,98,1986139484
70,19,17,Jits_Phase_5,1,1,48,29,1986156684
70,19,17,Jits_Phase_5,2,5,56,103,1986189604
70,19,17,Jits_Phase_5,3,5,80,127,1986200024
70,19,17,Jits_Phase_5,0,1,48,17,1986645040
70,19,17,Jits_Phase_5,1,5,56,103,1986680132
70,19,17,Jits_Phase_5,2,5,63,98,1986730408
70,19,17,Jits_Phase_5,3,5,80,127,1986739556
70,19,17,Jits_Phase_5,0,5,56,103,1987150148
70,19,17,Jits_Phase_5,1,5,63,98,1987160492
70,19,17,Jits_Phase_5,2,1,48,28,1987162136
70,19,17,Jits_Phase_5,3,5,80,127,1987240276
70,19,17,Jits_Phase_5,0,9999,9999,9999,1902897224
70,19,17,Jits_Phase_5,1,9999,9999,9999,1903397972
70,19,17,Jits_Phase_5,2,9999,9999,9999,1903897724
70,19,17,Jits_Phase_5,3,9999,9999,9999,1904397396
70,19,17,Jits_Phase_5,4,9999,9999,9999,1904897148
70,19,17,Jits_Phase_5,5,9999,9999,9999,1905397872
70,19,17,Jits_Phase_5,6,9999,9999,9999,1905897552
70,19,17,Jits_Phase_5,7,9999,9999,9999,1906397292
70,19,17,Jits_Phase_5,8,9999,9999,9999,1906898020
70,19,17,Jits_Phase_5,9,9999,9999,9999,1907397712
70,19,17,Jits_Phase_5,10,9999,9999,9999,1907897400
70,19,17,Jits_Phase_5,11,9999,9999,9999,1908397164
70,19,17,Jits_Phase_5,12,9999,9999,9999,1908897880
70,19,17,Jits_Phase_5,13,9999,9999,9999,1909397628
70,19,17,Jits_Phase_5,14,9999,9999,9999,1909897300
70,19,17,Jits_Phase_5,15,9999,9999,9999,1910398036
70,19,17,Jits_Phase_5,16,9999,9999,9999,1910897728
70,19,17,Jits_Phase_5,17,9999,9999,9999,1911397476
70,19,17,Jits_Phase_5,18,9999,9999,9999,1911897164
70,19,17,Jits_Phase_5,19,9999,9999,9999,1912397904
70,19,17,Jits_Phase_5,20,9999,9999,9999,1912897596
70,19,17,Jits_Phase_5,21,9999,9999,9999,1913397360
70,19,17,Jits_Phase_5,22,9999,9999,9999,1913898096
70,19,17,Jits_Phase_5,23,9999,9999,9999,1914397784
70,19,17,Jits_Phase_5,24,9999,9999,9999,1914897476
70,19,17,Jits_Phase_5,25,9999,9999,9999,1915397232
70,19,17,Jits_Phase_5,26,9999,9999,9999,1915897960
70,19,17,Jits_Phase_5,27,9999,9999,9999,1916397620
70,19,17,Jits_Phase_5,28,9999,9999,9999,1916897364
70,19,17,Jits_Phase_5,29,9999,9999,9999,1917398084
70,19,17,Jits_Phase_5,30,9999,9999,9999,1917897848
70,19,17,Jits_Phase_5,31,9999,9999,9999,1918397540
70,19,17,Jits_Phase_5,32,9999,9999,9999,1918897228
70,19,17,Jits_Phase_5,33,9999,9999,9999,1919397964
70,19,17,Jits_Phase_5,34,9999,9999,9999,1919897656
70,19,17,Jits_Phase_5,35,9999,9999,9999,1920397424
70,19,17,Jits_Phase_5,36,9999,9999,9999,1920897084
70,19,17,Jits_Phase_5,37,9999,9999,9999,1921397884
70,19,17,Jits_Phase_5,38,9999,9999,9999,1921897576
70,19,17,Jits_Phase_5,39,9999,9999,9999,1922397252
70,19,17,Jits_Phase_5,40,9999,9999,9999,1922897976
70,19,17,Jits_Phase_5,41,9999,9999,9999,1923397736
70,19,17,Jits_Phase_5,42,9999,9999,9999,1923897424
70,19,17,Jits_Phase_5,43,9999,9999,9999,1924397172
70,19,17,Jits_Phase_5,44,9999,9999,9999,1924897888
70,19,17,Jits_Phase_5,45,9999,9999,9999,1925397564
70,19,17,Jits_Phase_5,46,9999,9999,9999,1925897288
70,19,17,Jits_Phase_5,47,9999,9999,9999,1926398016
70,19,17,Jits_Phase_5,48,9999,9999,9999,1926907956
70,19,17,Jits_Phase_5,49,9999,9999,9999,1927407728
70,19,17,Jits_Phase_5,50,9999,9999,9999,1927907392
70,19,17,Jits_Phase_5,51,9999,9999,9999,1928407132
70,19,17,Jits_Phase_5,52,9999,9999,9999,1928907868
70,19,17,Jits_Phase_5,53,9999,9999,9999,1929407548
70,19,17,Jits_Phase_5,54,9999,9999,9999,1929907296
70,19,17,Jits_Phase_5,55,9999,9999,9999,1930408036
70,19,17,Jits_Phase_5,56,9999,9999,9999,1930907724
70,19,17,Jits_Phase_5,57,9999,9999,9999,1931407480
70,19,17,Jits_Phase_5,58,9999,9999,9999,1931907156
70,19,17,Jits_Phase_5,59,9999,9999,9999,1932407868
70,19,17,Jits_Phase_5,60,9999,9999,9999,1932907632
70,19,17,Jits_Phase_5,61,9999,9999,9999,1933407304
70,19,17,Jits_Phase_5,62,9999,9999,9999,1933908044
70,19,17,Jits_Phase_5,63,9999,9999,9999,1934407800
70,19,17,Jits_Phase_5,64,9999,9999,9999,1934927932
70,19,17,Jits_Phase_5,65,9999,9999,9999,1935427692
70,19,17,Jits_Phase_5,66,9999,9999,9999,1935927384
70,19,17,Jits_Phase_5,67,9999,9999,9999,1936427064
70,19,17,Jits_Phase_5,68,9999,9999,9999,1936927800
70,19,17,Jits_Phase_5,69,9999,9999,9999,1937427552
70,19,17,Jits_Phase_5,70,9999,9999,9999,1937927292
70,19,17,Jits_Phase_5,71,9999,9999,9999,1938428028
70,19,17,Jits_Phase_5,72,9999,9999,9999,1938927720
70,19,17,Jits_Phase_5,73,9999,9999,9999,1939427396
70,19,17,Jits_Phase_5,74,9999,9999,9999,1939927124
70,19,17,Jits_Phase_5,75,9999,9999,9999,1940427840
70,19,17,Jits_Phase_5,76,9999,9999,9999,1940927608
70,19,17,Jits_Phase_5,77,9999,9999,9999,1941427284
70,19,17,Jits_Phase_5,78,9999,9999,9999,1941928020
70,19,17,Jits_Phase_5,79,9999,9999,9999,1942427708
70,19,17,Jits_Phase_5,80,9999,9999,9999,1942927460
70,19,17,Jits_Phase_5,81,9999,9999,9999,1943407732
70,19,17,Jits_Phase_5,82,9999,9999,9999,1943907408
70,19,17,Jits_Phase_5,83,9999,9999,9999,1944407160
70,19,17,Jits_Phase_5,84,9999,9999,9999,1944907900
70,19,17,Jits_Phase_5,85,9999,9999,9999,1945407572
70,19,17,Jits_Phase_5,86,9999,9999,9999,1945907316
70,19,17,Jits_Phase_5,87,9999,9999,9999,1946408052
70,19,17,Jits_Phase_5,88,9999,9999,9999,1946907736
70,19,17,Jits_Phase_5,89,9999,9999,9999,1947407428
70,19,17,Jits_Phase_5,90,9999,9999,9999,1947907192
70,19,17,Jits_Phase_5,91,9999,9999,9999,1948407912
70,19,17,Jits_Phase_5,92,9999,9999,9999,1948907588
70,19,17,Jits_Phase_5,93,9999,9999,9999,1949407316
70,19,17,Jits_Phase_5,94,9999,9999,9999,1949908036
70,19,17,Jits_Phase_5,95,9999,9999,9999,1950407800
70,19,17,Jits_Phase_5,96,9999,9999,9999,1950907492
70,19,17,Jits_Phase_5,97,9999,9999,9999,1951358020
70,19,17,Jits_Phase_5,98,9999,9999,9999,1951857768
70,19,17,Jits_Phase_5,99,9999,9999,9999,1952357456
70,19,17,Jits_Phase_5,100,9999,9999,9999,1952857204
70,19,17,Jits_Phase_5,101,9999,9999,9999,1953357944
70,19,17,Jits_Phase_5,102,9999,9999,9999,1953857628
70,19,17,Jits_Phase_5,103,9999,9999,9999,1954357308
70,19,17,Jits_Phase_5,104,9999,9999,9999,1954858104
70,19,17,Jits_Phase_5,105,9999,9999,9999,1955357772
70,19,17,Jits_Phase_5,106,9999,9999,9999,1955857524
70,19,17,Jits_Phase_5,107,9999,9999,9999,1956357196
70,19,17,Jits_Phase_5,108,9999,9999,9999,1956857928
70,19,17,Jits_Phase_5,109,9999,9999,9999,1957357676
70,19,17,Jits_Phase_5,110,9999,9999,9999,1957857368
70,19,17,Jits_Phase_5,111,9999,9999,9999,1958358140
70,19,17,Jits_Phase_5,112,9999,9999,9999,1958868084
70,19,17,Jits_Phase_5,113,9999,9999,9999,1959367760
70,19,17,Jits_Phase_5,114,9999,9999,9999,1959917652
70,19,17,Jits_Phase_5,115,9999,9999,9999,1960417372
70,19,17,Jits_Phase_5,116,9999,9999,9999,1960918144
70,19,17,Jits_Phase_5,117,9999,9999,9999,1961428092
70,19,17,Jits_Phase_5,118,9999,9999,9999,1961927780
70,19,17,Jits_Phase_5,119,9999,9999,9999,1962427448
70,19,17,Jits_Phase_5,120,9999,9999,9999,1962927212
70,19,17,Jits_Phase_5,121,9999,9999,9999,1963427940
70,19,17,Jits_Phase_5,122,9999,9999,9999,1963927628
70,19,17,Jits_Phase_5,123,9999,9999,9999,1964427320
70,19,17,Jits_Phase_5,124,9999,9999,9999,1964928112
70,19,17,Jits_Phase_5,125,9999,9999,9999,1965438056
70,19,17,Jits_Phase_5,126,9999,9999,9999,1965937736
70,19,17,Jits_Phase_5,127,9999,9999,9999,1966437480
70,19,17,Jits_Phase_5,128,9999,9999,9999,1966937152
70,19,17,Jits_Phase_5,129,9999,9999,9999,1967437888
70,19,17,Jits_Phase_5,130,9999,9999,9999,1967937648
70,19,17,Jits_Phase_5,131,9999,9999,9999,1968537708
70,19,17,Jits_Phase_5,132,9999,9999,9999,1969037376
70,19,17,Jits_Phase_5,133,9999,9999,9999,1969537128
70,19,17,Jits_Phase_5,134,9999,9999,9999,1970037840
70,19,17,Jits_Phase_5,135,9999,9999,9999,1970537588
70,19,17,Jits_Phase_5,136,9999,9999,9999,1971037280
70,19,17,Jits_Phase_5,137,9999,9999,9999,1971538000
70,19,17,Jits_Phase_5,138,9999,9999,9999,1972037744
70,19,17,Jits_Phase_5,139,9999,9999,9999,1972537440
70,19,17,Jits_Phase_5,140,9999,9999,9999,1973037132
70,19,17,Jits_Phase_5,141,9999,9999,9999,1973537864
70,19,17,Jits_Phase_5,142,9999,9999,9999,1974037628
70,19,17,Jits_Phase_5,143,9999,9999,9999,1974537320
70,19,17,Jits_Phase_5,144,9999,9999,9999,1975038036
70,19,17,Jits_Phase_5,145,9999,9999,9999,1975537784
70,19,17,Jits_Phase_5,146,9999,9999,9999,1976037480
70,19,17,Jits_Phase_5,147,9999,9999,9999,1976537208
70,19,17,Jits_Phase_5,148,9999,9999,9999,1977037920
70,19,17,Jits_Phase_5,149,9999,9999,9999,1977537608
70,19,17,Jits_Phase_5,150,9999,9999,9999,1977938024
70,19,17,Jits_Phase_5,151,9999,9999,9999,1978437708
70,19,17,Jits_Phase_5,152,9999,9999,9999,1978937400
70,19,17,Jits_Phase_5,153,9999,9999,9999,1979437152
70,19,17,Jits_Phase_5,154,9999,9999,9999,1979937872
70,19,17,Jits_Phase_5,155,9999,9999,9999,1980437620
70,19,17,Jits_Phase_5,156,9999,9999,9999,1980937284
70,19,17,Jits_Phase_5,157,9999,9999,9999,1981438076
70,19,17,Jits_Phase_5,158,9999,9999,9999,1981937756
70,19,17,Jits_Phase_5,159,9999,9999,9999,1982437500
70,19,17,Jits_Phase_5,160,9999,9999,9999,1982937168
70,19,17,Jits_Phase_5,161,9999,9999,9999,1983437892
70,19,17,Jits_Phase_5,162,9999,9999,9999,1983937636
70,19,17,Jits_Phase_5,163,9999,9999,9999,1984437332
70,19,17,Jits_Phase_5,164,9999,9999,9999,1984938052
70,19,17,Jits_Phase_5,165,9999,9999,9999,1985437800
70,19,17,Jits_Phase_5,166,9999,9999,9999,1985937492
70,19,17,Jits_Phase_5,167,9999,9999,9999,1986437240
70,19,17,Jits_Phase_5,168,9999,9999,9999,1986937968
70,19,17,Jits_Phase_5,169,9999,9999,9999,1987437644
70,20,3,ISIP_8,0,5,42,127,2064306536
70,20,3,ISIP_8,1,5,42,127,2065107412
70,20,3,ISIP_8,2,5,42,127,2065907264
70,20,3,ISIP_8,3,1,48,36,2065963272
70,20,3,ISIP_8,4,5,42,127,2066706700
70,20,3,ISIP_8,5,1,48,29,2066733680
70,20,3,ISIP_8,6,5,42,127,2067506512
70,20,3,ISIP_8,7,1,48,28,2067536704
70,20,3,ISIP_8,8,5,42,127,2068307216
70,20,3,ISIP_8,9,1,48,26,2068331052
70,20,3,ISIP_8,10,1,48,29,2069102124
70,20,3,ISIP_8,11,5,42,127,2069107316
70,20,3,ISIP_8,12,1,48,28,2069881660
70,20,3,ISIP_8,13,5,42,127,2069906976
70,20,3,ISIP_8,14,1,48,24,2070690972
70,20,3,ISIP_8,15,5,42,127,2070706488
70,20,3,ISIP_8,16,1,48,24,2071499304
70,20,3,ISIP_8,17,5,42,127,2071507268
70,20,3,ISIP_8,18,5,42,127,2072307180
70,20,3,ISIP_8,19,1,48,25,2072324588
70,20,3,ISIP_8,20,5,42,127,2073107064
70,20,3,ISIP_8,21,1,48,24,2073134792
70,20,3,ISIP_8,22,5,42,127,2073906572
70,20,3,ISIP_8,23,1,48,26,2073907612
70,20,3,ISIP_8,24,1,48,24,2074704024
70,20,3,ISIP_8,25,5,42,127,2074707272
70,20,3,ISIP_8,26,5,42,127,2075507012
70,20,3,ISIP_8,27,1,48,25,2075510880
70,20,3,ISIP_8,28,1,48,25,2076253072
70,20,3,ISIP_8,29,5,42,127,2076307036
70,20,3,ISIP_8,30,1,48,27,2077068964
70,20,3,ISIP_8,31,5,42,127,2077106472
70,20,3,ISIP_8,32,1,48,25,2077906052
70,20,3,ISIP_8,33,5,42,127,2077907476
70,20,3,ISIP_8,34,5,42,127,2078707020
70,20,3,ISIP_8,35,1,48,24,2078713352
70,20,3,ISIP_8,36,1,48,29,2079501624
70,20,3,ISIP_8,37,5,42,127,2079507044
70,20,3,ISIP_8,38,5,42,127,2080306408
70,20,3,ISIP_8,39,1,48,28,2080316860
70,20,3,ISIP_8,40,5,42,127,2081107264
70,20,3,ISIP_8,41,1,48,32,2081110904
70,20,3,ISIP_8,42,5,42,127,2081907000
70,20,3,ISIP_8,43,1,48,31,2081924928
70,20,3,ISIP_8,44,1,48,27,2082687840
70,20,3,ISIP_8,45,5,42,127,2082706800
70,20,3,ISIP_8,46,5,42,127,2083506692
70,20,3,ISIP_8,47,1,48,29,2083521928
70,20,3,ISIP_8,48,5,42,127,2084307396
70,20,3,ISIP_8,49,1,48,26,2084336564
70,20,3,ISIP_8,50,1,48,27,2085085944
70,20,3,ISIP_8,51,5,42,127,2085106924
70,20,3,ISIP_8,52,1,48,27,2085855760
70,20,3,ISIP_8,53,5,42,127,2085906656
70,20,3,ISIP_8,54,1,48,29,2086650704
70,20,3,ISIP_8,55,5,42,127,2086706616
70,20,3,ISIP_8,56,5,42,127,2087507400
70,20,3,ISIP_8,57,1,48,23,2087509920
70,20,3,ISIP_8,58,1,48,29,2088326032
70,20,3,ISIP_8,59,1,48,30,2089086404
70,20,3,ISIP_8,60,1,48,25,2089876184
70,20,3,ISIP_8,61,1,48,27,2090663348
70,20,3,ISIP_8,62,1,48,19,2091433752
70,20,3,ISIP_8,63,1,48,28,2092237296
70,20,3,ISIP_8,64,1,48,28,2093012716
70,20,3,ISIP_8,65,1,48,27,2093814636
70,20,3,ISIP_8,66,1,48,26,2094595444
70,20,3,ISIP_8,67,1,48,22,2095364432
70,20,3,ISIP_8,68,1,48,24,2096120256
70,20,3,ISIP_8,69,1,48,24,2096911828
70,20,3,ISIP_8,70,1,48,24,2097707892
70,20,3,ISIP_8,71,1,48,23,2098505600
70,20,3,ISIP_8,72,1,48,24,2099297252
70,20,3,ISIP_8,73,1,48,24,2100091152
70,20,3,ISIP_8,74,1,48,21,2100894172
70,20,3,ISIP_8,75,1,48,23,2101674004
70,20,3,ISIP_8,76,1,48,24,2102437676
70,20,3,ISIP_8,77,1,48,25,2103234568
70,20,3,ISIP_8,78,1,48,22,2104027664
70,20,3,ISIP_8,79,1,48,27,2104810336
70,20,3,ISIP_8,80,1,48,26,2105573192
70,20,3,ISIP_8,81,1,48,22,2106348388
70,20,3,ISIP_8,82,1,48,22,2107161360
70,20,3,ISIP_8,83,1,48,26,2107961392
70,20,3,ISIP_8,84,1,48,24,2108749376
70,20,3,ISIP_8,85,1,48,27,2109499288
70,20,3,ISIP_8,86,1,48,25,2110280688
70,20,3,ISIP_8,87,1,48,24,2111060304
70,20,3,ISIP_8,88,1,48,23,2111856816
70,20,3,ISIP_8,89,1,48,19,2112657520
70,20,3,ISIP_8,90,1,48,21,2113437052
70,20,3,ISIP_8,91,1,48,23,2114208280
70,20,3,ISIP_8,92,1,48,21,2115022740
70,20,3,ISIP_8,93,1,48,27,2115773480
70,20,3,ISIP_8,94,1,48,25,2116528184
70,20,3,ISIP_8,95,1,48,26,2117290952
70,20,3,ISIP_8,96,1,48,25,2118096444
70,20,3,ISIP_8,97,1,48,25,2118877576
70,20,3,ISIP_8,98,1,48,24,2119656588
70,20,3,ISIP_8,99,1,48,22,2120459008
70,20,3,ISIP_8,100,1,48,24,2121257912
70,20,3,ISIP_8,101,1,48,24,2122023536
70,20,3,ISIP_8,102,1,48,24,2122794692
70,20,3,ISIP_8,103,1,48,21,2123564652
70,20,3,ISIP_8,104,1,48,20,2124363332
70,20,3,ISIP_8,105,1,48,23,2125146904
70,20,3,ISIP_8,106,1,48,22,2125909460
70,20,3,ISIP_8,107,1,48,24,2126724152
70,20,3,ISIP_8,108,1,48,22,2127476516
70,20,3,ISIP_8,109,1,48,23,2128220524
70,20,3,ISIP_8,110,1,48,21,2129003348
70,20,3,ISIP_8,111,1,48,21,2129794180
70,20,3,ISIP_8,112,1,48,22,2130578724
70,20,3,ISIP_8,113,1,48,25,2131378376
70,20,3,ISIP_8,114,1,48,23,2132159852
70,20,3,ISIP_8,115,1,48,22,2132979204
70,20,3,ISIP_8,116,1,48,23,2133775044
70,20,3,ISIP_8,117,1,48,23,2134514712
70,20,3,ISIP_8,118,1,48,26,2135270160
70,20,3,ISIP_8,119,1,48,21,2136032116
70,20,3,ISIP_8,120,1,48,22,2136791232
70,20,3,ISIP_8,121,1,48,21,2137538804
70,20,3,ISIP_8,122,1,48,21,2138331072
70,20,3,ISIP_8,123,1,48,19,2139114124
70,20,3,ISIP_8,124,1,48,22,2139859452
70,20,3,ISIP_8,125,1,48,21,2140607192
70,20,3,ISIP_8,126,1,48,22,2141386204
70,20,3,ISIP_8,127,1,48,26,2142137164
70,20,3,ISIP_8,128,1,48,20,2142925748
70,20,3,ISIP_8,129,1,48,22,2143706952
70,20,3,ISIP_8,130,1,48,21,2144462904
70,20,3,ISIP_8,131,1,48,22,2145198528
70,20,3,ISIP_8,132,1,48,23,2145961232
70,20,3,ISIP_8,133,1,48,26,2146709728
70,20,3,ISIP_8,134,1,48,26,2147463140
70,20,3,ISIP_8,135,1,48,24,2148255464
70,20,3,ISIP_8,136,1,48,25,2149002984
70,20,3,ISIP_8,137,1,48,22,2149777880
70,20,3,ISIP_8,138,1,48,23,2150539836
70,20,3,ISIP_8,139,1,48,21,2151318248
70,20,3,ISIP_8,140,1,48,25,2152081396
70,20,3,ISIP_8,141,1,48,25,2152831908
70,20,3,ISIP_8,142,1,48,21,2153600672
70,20,3,ISIP_8,143,1,48,23,2154369140
70,20,3,ISIP_8,144,1,48,22,2155143132
70,20,3,ISIP_8,145,1,48,20,2155906144
70,20,3,ISIP_8,146,1,48,23,2156666228
70,20,3,ISIP_8,147,1,48,20,2157453912
70,20,3,ISIP_8,148,1,48,20,2158250720
70,20,3,ISIP_8,149,1,48,20,2159031828
70,20,3,ISIP_8,150,1,48,21,2159782116
70,20,3,ISIP_8,151,1,48,23,2160540032
70,20,3,ISIP_8,152,1,48,21,2161312604
70,20,3,ISIP_8,153,1,48,24,2162054068
70,20,3,ISIP_8,154,1,48,22,2162797324
70,20,3,ISIP_8,155,1,48,23,2163567140
70,20,3,ISIP_8,156,1,48,23,2164353256
70,20,3,ISIP_8,157,1,48,25,2165105636
70,20,3,ISIP_8,158,1,48,26,2165841028
70,20,3,ISIP_8,159,1,48,21,2166601560
70,20,3,ISIP_8,160,1,48,21,2167368156
70,20,3,ISIP_8,161,1,48,21,2168102880
70,20,3,ISIP_8,162,1,48,22,2168861848
70,20,3,ISIP_8,163,1,48,21,2169624180
70,20,3,ISIP_8,164,1,48,21,2170391144
70,20,3,ISIP_8,165,1,48,25,2171134180
70,20,3,ISIP_8,166,1,48,21,2171895988
70,20,3,ISIP_8,167,1,48,24,2172642008
70,20,3,ISIP_8,168,1,48,22,2173416984
70,20,3,ISIP_8,169,1,48,22,2174185220
70,20,3,ISIP_8,170,1,48,22,2174936260
70,20,3,ISIP_8,171,1,48,24,2175687044
70,20,3,ISIP_8,172,1,48,19,2176436732
70,20,3,ISIP_8,173,1,48,24,2177199960
70,20,3,ISIP_8,174,1,48,25,2177945384
70,20,3,ISIP_8,175,1,48,20,2178679724
70,20,3,ISIP_8,176,1,48,24,2179460904
70,20,3,ISIP_8,177,1,48,26,2180233180
70,20,3,ISIP_8,178,1,48,20,2181002548
70,20,3,ISIP_8,179,1,48,23,2181768320
70,20,3,ISIP_8,180,1,48,23,2182507232
70,20,3,ISIP_8,181,1,48,24,2183251760
70,20,3,ISIP_8,182,1,48,24,2184040796
70,20,3,ISIP_8,0,9999,9999,9999,2064304248
70,20,3,ISIP_8,1,9999,9999,9999,2065104976
70,20,3,ISIP_8,2,9999,9999,9999,2065904756
70,20,3,ISIP_8,3,9999,9999,9999,2066704488
70,20,3,ISIP_8,4,9999,9999,9999,2067504224
70,20,3,ISIP_8,5,9999,9999,9999,2068305000
70,20,3,ISIP_8,6,9999,9999,9999,2069104732
70,20,3,ISIP_8,7,9999,9999,9999,2069904464
70,20,3,ISIP_8,8,9999,9999,9999,2070704200
70,20,3,ISIP_8,9,9999,9999,9999,2071504980
70,20,3,ISIP_8,10,9999,9999,9999,2072304744
70,20,3,ISIP_8,11,9999,9999,9999,2073104476
70,20,3,ISIP_8,12,9999,9999,9999,2073904208
70,20,3,ISIP_8,13,9999,9999,9999,2074704984
70,20,3,ISIP_8,14,9999,9999,9999,2075504724
70,20,3,ISIP_8,15,9999,9999,9999,2076304452
70,20,3,ISIP_8,16,9999,9999,9999,2077104184
70,20,3,ISIP_8,17,9999,9999,9999,2077904972
70,20,3,ISIP_8,18,9999,9999,9999,2078704728
70,20,3,ISIP_8,19,9999,9999,9999,2079504456
70,20,3,ISIP_8,20,9999,9999,9999,2080304196
70,20,3,ISIP_8,21,9999,9999,9999,2081104976
70,20,3,ISIP_8,22,9999,9999,9999,2081904708
70,20,3,ISIP_8,23,9999,9999,9999,2082704440
70,20,3,ISIP_8,24,9999,9999,9999,2083504180
70,20,3,ISIP_8,25,9999,9999,9999,2084304956
70,20,3,ISIP_8,26,9999,9999,9999,2085104708
70,20,3,ISIP_8,27,9999,9999,9999,2085904444
70,20,3,ISIP_8,28,9999,9999,9999,2086704180
70,20,3,ISIP_8,29,9999,9999,9999,2087504964
70,20,3,ISIP_8,30,9999,9999,9999,2088304696
70,20,3,ISIP_8,31,9999,9999,9999,2089104496
70,20,3,ISIP_8,32,9999,9999,9999,2089904224
70,20,3,ISIP_8,33,9999,9999,9999,2090705000
70,20,3,ISIP_8,34,9999,9999,9999,2091504752
70,20,3,ISIP_8,35,9999,9999,9999,2092304480
70,20,3,ISIP_8,36,9999,9999,9999,2093104208
70,20,3,ISIP_8,37,9999,9999,9999,2093904984
70,20,3,ISIP_8,38,9999,9999,9999,2094704700
70,20,3,ISIP_8,39,9999,9999,9999,2095504500
70,20,3,ISIP_8,40,9999,9999,9999,2096304232
70,20,3,ISIP_8,41,9999,9999,9999,2097105008
70,20,3,ISIP_8,42,9999,9999,9999,2097904760
70,20,3,ISIP_8,43,9999,9999,9999,2098704488
70,20,3,ISIP_8,44,9999,9999,9999,2099504220
70,20,3,ISIP_8,45,9999,9999,9999,2100304996
70,20,3,ISIP_8,46,9999,9999,9999,2101104724
70,20,3,ISIP_8,47,9999,9999,9999,2101904452
70,20,3,ISIP_8,48,9999,9999,9999,2102704184
70,20,3,ISIP_8,49,9999,9999,9999,2103504960
70,20,3,ISIP_8,50,9999,9999,9999,2104304712
70,20,3,ISIP_8,51,9999,9999,9999,2105104444
70,20,3,ISIP_8,52,9999,9999,9999,2105904248
70,20,3,ISIP_8,53,9999,9999,9999,2106704952
70,20,3,ISIP_8,54,9999,9999,9999,2107504756
70,20,3,ISIP_8,55,9999,9999,9999,2108304484
70,20,3,ISIP_8,56,9999,9999,9999,2109104216
70,20,3,ISIP_8,57,9999,9999,9999,2109904992
70,20,3,ISIP_8,58,9999,9999,9999,2110704744
70,20,3,ISIP_8,59,9999,9999,9999,2111504476
70,20,3,ISIP_8,60,9999,9999,9999,2112304204
70,20,3,ISIP_8,61,9999,9999,9999,2113104980
70,20,3,ISIP_8,62,9999,9999,9999,2113904708
70,20,3,ISIP_8,63,9999,9999,9999,2114704436
70,20,3,ISIP_8,64,9999,9999,9999,2115504240
70,20,3,ISIP_8,65,9999,9999,9999,2116305016
70,20,3,ISIP_8,66,9999,9999,9999,2117104696
70,20,3,ISIP_8,67,9999,9999,9999,2117904496
70,20,3,ISIP_8,68,9999,9999,9999,2118704228
70,20,3,ISIP_8,69,9999,9999,9999,2119505004
70,20,3,ISIP_8,70,9999,9999,9999,2120304732
70,20,3,ISIP_8,71,9999,9999,9999,2121104464
70,20,3,ISIP_8,72,9999,9999,9999,2121904192
70,20,3,ISIP_8,73,9999,9999,9999,2122704968
70,20,3,ISIP_8,74,9999,9999,9999,2123504724
70,20,3,ISIP_8,75,9999,9999,9999,2124304452
70,20,3,ISIP_8,76,9999,9999,9999,2125104180
70,20,3,ISIP_8,77,9999,9999,9999,2125904956
70,20,3,ISIP_8,78,9999,9999,9999,2126704760
70,20,3,ISIP_8,79,9999,9999,9999,2127504480
70,20,3,ISIP_8,80,9999,9999,9999,2128304212
70,20,3,ISIP_8,81,9999,9999,9999,2129104972
70,20,3,ISIP_8,82,9999,9999,9999,2129904724
70,20,3,ISIP_8,83,9999,9999,9999,2130704456
70,20,3,ISIP_8,84,9999,9999,9999,2131504184
70,20,3,ISIP_8,85,9999,9999,9999,2132304960
70,20,3,ISIP_8,86,9999,9999,9999,2133104688
70,20,3,ISIP_8,87,9999,9999,9999,2133904492
70,20,3,ISIP_8,88,9999,9999,9999,2134704224
70,20,3,ISIP_8,89,9999,9999,9999,2135505000
70,20,3,ISIP_8,90,9999,9999,9999,2136304756
70,20,3,ISIP_8,91,9999,9999,9999,2137104484
70,20,3,ISIP_8,92,9999,9999,9999,2137904212
70,20,3,ISIP_8,93,9999,9999,9999,2138704988
70,20,3,ISIP_8,94,9999,9999,9999,2139504720
70,20,3,ISIP_8,95,9999,9999,9999,2140304448
70,20,3,ISIP_8,96,9999,9999,9999,2141104176
70,20,3,ISIP_8,97,9999,9999,9999,2141904952
70,20,3,ISIP_8,98,9999,9999,9999,2142704704
70,20,3,ISIP_8,99,9999,9999,9999,2143504436
70,20,3,ISIP_8,100,9999,9999,9999,2144304240
70,20,3,ISIP_8,101,9999,9999,9999,2145105012
70,20,3,ISIP_8,102,9999,9999,9999,2145904740
70,20,3,ISIP_8,103,9999,9999,9999,2146704472
70,20,3,ISIP_8,104,9999,9999,9999,2147504196
70,20,3,ISIP_8,105,9999,9999,9999,2148304972
70,20,3,ISIP_8,106,9999,9999,9999,2149104708
70,20,3,ISIP_8,107,9999,9999,9999,2149904436
70,20,3,ISIP_8,108,9999,9999,9999,2150704240
70,20,3,ISIP_8,109,9999,9999,9999,2151504944
70,20,3,ISIP_8,110,9999,9999,9999,2152304744
70,20,3,ISIP_8,111,9999,9999,9999,2153104476
70,20,3,ISIP_8,112,9999,9999,9999,2153904204
70,20,3,ISIP_8,113,9999,9999,9999,2154704980
70,20,3,ISIP_8,114,9999,9999,9999,2155504732
70,20,3,ISIP_8,115,9999,9999,9999,2156304460
70,20,3,ISIP_8,116,9999,9999,9999,2157104192
70,20,3,ISIP_8,117,9999,9999,9999,2157904964
70,20,3,ISIP_8,118,9999,9999,9999,2158704696
70,20,3,ISIP_8,119,9999,9999,9999,2159504500
70,20,3,ISIP_8,120,9999,9999,9999,2160304228
70,20,3,ISIP_8,121,9999,9999,9999,2161105004
70,20,3,ISIP_8,122,9999,9999,9999,2161904756
70,20,3,ISIP_8,123,9999,9999,9999,2162704488
70,20,3,ISIP_8,124,9999,9999,9999,2163504220
70,20,3,ISIP_8,125,9999,9999,9999,2164304992
70,20,3,ISIP_8,126,9999,9999,9999,2165104724
70,20,3,ISIP_8,127,9999,9999,9999,2165904444
70,20,3,ISIP_8,128,9999,9999,9999,2166704232
70,20,3,ISIP_8,129,9999,9999,9999,2167505008
70,20,3,ISIP_8,130,9999,9999,9999,2168304688
70,20,3,ISIP_8,131,9999,9999,9999,2169104492
70,20,3,ISIP_8,132,9999,9999,9999,2169904220
70,20,3,ISIP_8,133,9999,9999,9999,2170704996
70,20,3,ISIP_8,134,9999,9999,9999,2171504728
70,20,3,ISIP_8,135,9999,9999,9999,2172304456
70,20,3,ISIP_8,136,9999,9999,9999,2173104184
70,20,3,ISIP_8,137,9999,9999,9999,2173904960
70,20,3,ISIP_8,138,9999,9999,9999,2174704716
70,20,3,ISIP_8,139,9999,9999,9999,2175504448
70,20,3,ISIP_8,140,9999,9999,9999,2176304176
70,20,3,ISIP_8,141,9999,9999,9999,2177104952
70,20,3,ISIP_8,142,9999,9999,9999,2177904752
70,20,3,ISIP_8,143,9999,9999,9999,2178704476
70,20,3,ISIP_8,144,9999,9999,9999,2179504204
70,20,3,ISIP_8,145,9999,9999,9999,2180304980
70,20,3,ISIP_8,146,9999,9999,9999,2181104720
70,20,3,ISIP_8,147,9999,9999,9999,2181904448
70,20,3,ISIP_8,148,9999,9999,9999,2182704176
70,20,3,ISIP_8,149,9999,9999,9999,2183504952
70,21,5,ISIP_5,0,5,42,127,2211162592
70,21,5,ISIP_5,1,5,42,127,2211663356
70,21,5,ISIP_5,2,1,48,36,2212159964
70,21,5,ISIP_5,3,5,42,127,2212162916
70,21,5,ISIP_5,4,1,48,35,2212638944
70,21,5,ISIP_5,5,5,42,127,2212662760
70,21,5,ISIP_5,6,1,48,38,2213159284
70,21,5,ISIP_5,7,5,42,127,2213163504
70,21,5,ISIP_5,8,5,42,127,2213663352
70,21,5,ISIP_5,9,1,48,38,2213676424
70,21,5,ISIP_5,10,5,42,127,2214162752
70,21,5,ISIP_5,11,1,48,37,2214168560
70,21,5,ISIP_5,12,5,42,127,2214662444
70,21,5,ISIP_5,13,1,48,40,2214665040
70,21,5,ISIP_5,14,1,48,38,2215161068
70,21,5,ISIP_5,15,5,42,127,2215163108
70,21,5,ISIP_5,16,1,48,40,2215661292
70,21,5,ISIP_5,17,5,42,127,2215662876
70,21,5,ISIP_5,18,1,48,39,2216155728
70,21,5,ISIP_5,19,5,42,127,2216162644
70,21,5,ISIP_5,20,1,48,37,2216655772
70,21,5,ISIP_5,21,5,42,127,2216663388
70,21,5,ISIP_5,22,5,42,127,2217163064
70,21,5,ISIP_5,23,1,48,37,2217188272
70,21,5,ISIP_5,24,1,48,34,2217658456
70,21,5,ISIP_5,25,5,42,127,2217662680
70,21,5,ISIP_5,26,1,48,38,2218155160
70,21,5,ISIP_5,27,5,42,127,2218162448
70,21,5,ISIP_5,28,1,48,36,2218660460
70,21,5,ISIP_5,29,5,42,127,2218663188
70,21,5,ISIP_5,30,5,42,127,2219163188
70,21,5,ISIP_5,31,1,48,35,2219181640
70,21,5,ISIP_5,32,1,48,36,2219656856
70,21,5,ISIP_5,33,5,42,127,2219662728
70,21,5,ISIP_5,34,1,48,35,2220143692
70,21,5,ISIP_5,35,5,42,127,2220162348
70,21,5,ISIP_5,36,5,42,127,2220663096
70,21,5,ISIP_5,37,1,48,38,2220680352
70,21,5,ISIP_5,38,1,48,38,2221156616
70,21,5,ISIP_5,39,5,42,127,2221162932
70,21,5,ISIP_5,40,1,48,34,2221649728
70,21,5,ISIP_5,41,5,42,127,2221662552
70,21,5,ISIP_5,42,1,48,37,2222148976
70,21,5,ISIP_5,43,5,42,127,2222163296
70,21,5,ISIP_5,44,1,48,39,2222652932
70,21,5,ISIP_5,45,5,42,127,2222662992
70,21,5,ISIP_5,46,1,48,36,2223150684
70,21,5,ISIP_5,47,5,42,127,2223162836
70,21,5,ISIP_5,48,1,48,35,2223650528
70,21,5,ISIP_5,49,5,42,127,2223662380
70,21,5,ISIP_5,50,5,42,127,2224163128
70,21,5,ISIP_5,51,1,48,33,2224166396
70,21,5,ISIP_5,52,1,48,32,2224663344
70,21,5,ISIP_5,53,5,42,127,2224664532
70,21,5,ISIP_5,54,5,42,127,2225162816
70,21,5,ISIP_5,55,1,48,34,2225181796
70,21,5,ISIP_5,56,1,48,37,2225654168
70,21,5,ISIP_5,57,5,42,127,2225663404
70,21,5,ISIP_5,58,5,42,127,2226162956
70,21,5,ISIP_5,59,1,48,36,2226170116
70,21,5,ISIP_5,60,5,42,127,2226662724
70,21,5,ISIP_5,61,1,48,36,2226673700
70,21,5,ISIP_5,62,1,48,34,2227153008
70,21,5,ISIP_5,63,5,42,127,2227162540
70,21,5,ISIP_5,64,1,48,33,2227643552
70,21,5,ISIP_5,65,5,42,127,2227663256
70,21,5,ISIP_5,66,5,42,127,2228162936
70,21,5,ISIP_5,67,1,48,34,2228177052
70,21,5,ISIP_5,68,5,42,127,2228662532
70,21,5,ISIP_5,69,1,48,32,2228675072
70,21,5,ISIP_5,70,1,48,33,2229161676
70,21,5,ISIP_5,71,5,42,127,2229163340
70,21,5,ISIP_5,72,5,42,127,2229662968
70,21,5,ISIP_5,73,1,48,31,2229663932
70,21,5,ISIP_5,74,1,48,32,2230160452
70,21,5,ISIP_5,75,5,42,127,2230162952
70,21,5,ISIP_5,76,1,48,32,2230658052
70,21,5,ISIP_5,77,5,42,127,2230662424
70,21,5,ISIP_5,78,1,48,32,2231157520
70,21,5,ISIP_5,79,1,48,34,2231656540
70,21,5,ISIP_5,80,1,48,32,2232157724
70,21,5,ISIP_5,81,1,48,30,2232677852
70,21,5,ISIP_5,82,1,48,29,2233200576
70,21,5,ISIP_5,83,1,48,31,2233697428
70,21,5,ISIP_5,84,1,48,32,2234216412
70,21,5,ISIP_5,85,1,48,30,2234716104
70,21,5,ISIP_5,86,1,48,32,2235245644
70,21,5,ISIP_5,87,1,48,30,2235734860
70,21,5,ISIP_5,88,1,48,31,2236221912
70,21,5,ISIP_5,89,1,48,33,2236716440
70,21,5,ISIP_5,90,1,48,28,2237222860
70,21,5,ISIP_5,91,1,48,31,2237726440
70,21,5,ISIP_5,92,1,48,27,2238176768
70,21,5,ISIP_5,93,1,48,33,2238677280
70,21,5,ISIP_5,94,1,48,32,2239189464
70,21,5,ISIP_5,95,1,48,31,2239710168
70,21,5,ISIP_5,96,1,48,29,2240182388
70,21,5,ISIP_5,97,1,48,32,2240708256
70,21,5,ISIP_5,98,1,48,30,2241201292
70,21,5,ISIP_5,99,1,48,29,2241694172
70,21,5,ISIP_5,100,1,48,30,2242165140
70,21,5,ISIP_5,101,1,48,33,2242684324
70,21,5,ISIP_5,102,1,48,31,2243161352
70,21,5,ISIP_5,103,1,48,28,2243657216
70,21,5,ISIP_5,104,1,48,28,2244136336
70,21,5,ISIP_5,105,1,48,31,2244647692
70,21,5,ISIP_5,106,1,48,30,2245160252
70,21,5,ISIP_5,107,1,48,35,2245641692
70,21,5,ISIP_5,108,1,48,28,2246142948
70,21,5,ISIP_5,109,1,48,30,2246643840
70,21,5,ISIP_5,110,1,48,31,2247145628
70,21,5,ISIP_5,111,1,48,28,2247632452
70,21,5,ISIP_5,112,1,48,30,2248137128
70,21,5,ISIP_5,113,1,48,32,2248651932
70,21,5,ISIP_5,114,1,48,29,2249150348
70,21,5,ISIP_5,115,1,48,33,2249648016
70,21,5,ISIP_5,116,1,48,32,2250141500
70,21,5,ISIP_5,117,1,48,31,2250662672
70,21,5,ISIP_5,118,1,48,34,2251130856
70,21,5,ISIP_5,119,1,48,28,2251650372
70,21,5,ISIP_5,120,1,48,32,2252141456
70,21,5,ISIP_5,121,1,48,33,2252659472
70,21,5,ISIP_5,122,1,48,31,2253170176
70,21,5,ISIP_5,123,1,48,32,2253653472
70,21,5,ISIP_5,124,1,48,30,2254139624
70,21,5,ISIP_5,125,1,48,27,2254639464
70,21,5,ISIP_5,126,1,48,29,2255124496
70,21,5,ISIP_5,127,1,48,29,2255630620
70,21,5,ISIP_5,128,1,48,33,2256093584
70,21,5,ISIP_5,129,1,48,29,2256579184
70,21,5,ISIP_5,130,1,48,28,2257114284
70,21,5,ISIP_5,131,1,48,30,2257617780
70,21,5,ISIP_5,132,1,48,27,2258094116
70,21,5,ISIP_5,133,1,48,30,2258582284
70,21,5,ISIP_5,134,1,48,32,2259089828
70,21,5,ISIP_5,135,1,48,32,2259590788
70,21,5,ISIP_5,136,1,48,30,2260084344
70,21,5,ISIP_5,137,1,48,28,2260551648
70,21,5,ISIP_5,138,1,48,28,2261053356
70,21,5,ISIP_5,139,1,48,32,2261569956
70,21,5,ISIP_5,140,1,48,30,2262049828
70,21,5,ISIP_5,141,1,48,32,2262545028
70,21,5,ISIP_5,142,1,48,33,2263043300
70,21,5,ISIP_5,143,1,48,32,2263548004
70,21,5,ISIP_5,144,1,48,31,2264031384
70,21,5,ISIP_5,145,1,48,32,2264527780
70,21,5,ISIP_5,146,1,48,32,2265024612
70,21,5,ISIP_5,147,1,48,31,2265551772
70,21,5,ISIP_5,148,1,48,32,2266037076
70,21,5,ISIP_5,149,1,48,29,2266526748
70,21,5,ISIP_5,150,1,48,30,2267036460
70,21,5,ISIP_5,151,1,48,33,2267541612
70,21,5,ISIP_5,152,1,48,33,2268020728
70,21,5,ISIP_5,153,1,48,33,2268510552
70,21,5,ISIP_5,154,1,48,35,2269024380
70,21,5,ISIP_5,155,1,48,29,2269517260
70,21,5,ISIP_5,156,1,48,29,2269993688
70,21,5,ISIP_5,157,1,48,33,2270488968
70,21,5,ISIP_5,158,1,48,31,2270981256
70,21,5,ISIP_5,159,1,48,30,2271482584
70,21,5,ISIP_5,160,1,48,31,2271943884
70,21,5,ISIP_5,161,1,48,31,2272453000
70,21,5,ISIP_5,162,1,48,33,2272961064
70,21,5,ISIP_5,163,1,48,31,2273465620
70,21,5,ISIP_5,164,1,48,32,2273958952
70,21,5,ISIP_5,165,1,48,31,2274454976
70,21,5,ISIP_5,166,1,48,29,2274937460
70,21,5,ISIP_5,167,1,48,29,2275429220
70,21,5,ISIP_5,168,1,48,35,2275913132
70,21,5,ISIP_5,169,1,48,29,2276386048
70,21,5,ISIP_5,170,1,48,32,2276885888
70,21,5,ISIP_5,171,1,48,33,2277407044
70,21,5,ISIP_5,172,1,48,30,2277896184
70,21,5,ISIP_5,173,1,48,32,2278384356
70,21,5,ISIP_5,174,1,48,34,2278882928
70,21,5,ISIP_5,175,1,48,36,2279378428
70,21,5,ISIP_5,176,1,48,31,2279854236
70,21,5,ISIP_5,177,1,48,33,2280344876
70,21,5,ISIP_5,178,1,48,30,2280862068
70,21,5,ISIP_5,179,1,48,32,2281366696
70,21,5,ISIP_5,180,1,48,28,2281844096
70,21,5,ISIP_5,181,1,48,29,2282366744
70,21,5,ISIP_5,182,1,48,41,2282883936
70,21,5,ISIP_5,183,1,48,30,2283387296
70,21,5,ISIP_5,184,1,48,31,2283882196
70,21,5,ISIP_5,185,1,48,33,2284385180
70,21,5,ISIP_5,186,1,48,33,2284869240
70,21,5,ISIP_5,187,1,48,34,2285383440
70,21,5,ISIP_5,188,1,48,30,2285850368
70,21,5,ISIP_5,189,1,48,33,2286352376
70,21,5,ISIP_5,190,1,48,34,2286871512
70,21,5,ISIP_5,191,1,48,31,2287382500
70,21,5,ISIP_5,192,1,48,33,2287881744
70,21,5,ISIP_5,193,1,48,36,2288383532
70,21,5,ISIP_5,194,1,48,32,2288881500
70,21,5,ISIP_5,195,1,48,31,2289369376
70,21,5,ISIP_5,196,1,48,30,2289858268
70,21,5,ISIP_5,197,1,48,29,2290378676
70,21,5,ISIP_5,198,1,48,33,2290875972
70,21,5,ISIP_5,0,9999,9999,9999,2211160156
70,21,5,ISIP_5,1,9999,9999,9999,2211660920
70,21,5,ISIP_5,2,9999,9999,9999,2212160628
70,21,5,ISIP_5,3,9999,9999,9999,2212660324
70,21,5,ISIP_5,4,9999,9999,9999,2213161068
70,21,5,ISIP_5,5,9999,9999,9999,2213660768
70,21,5,ISIP_5,6,9999,9999,9999,2214160464
70,21,5,ISIP_5,7,9999,9999,9999,2214660156
70,21,5,ISIP_5,8,9999,9999,9999,2215160932
70,21,5,ISIP_5,9,9999,9999,9999,2215660596
70,21,5,ISIP_5,10,9999,9999,9999,2216160360
70,21,5,ISIP_5,11,9999,9999,9999,2216661100
70,21,5,ISIP_5,12,9999,9999,9999,2217160776
70,21,5,ISIP_5,13,9999,9999,9999,2217660464
70,21,5,ISIP_5,14,9999,9999,9999,2218160236
70,21,5,ISIP_5,15,9999,9999,9999,2218660976
70,21,5,ISIP_5,16,9999,9999,9999,2219160676
70,21,5,ISIP_5,17,9999,9999,9999,2219660364
70,21,5,ISIP_5,18,9999,9999,9999,2220160060
70,21,5,ISIP_5,19,9999,9999,9999,2220660808
70,21,5,ISIP_5,20,9999,9999,9999,2221160496
70,21,5,ISIP_5,21,9999,9999,9999,2221660268
70,21,5,ISIP_5,22,9999,9999,9999,2222161008
70,21,5,ISIP_5,23,9999,9999,9999,2222660704
70,21,5,ISIP_5,24,9999,9999,9999,2223160400
70,21,5,ISIP_5,25,9999,9999,9999,2223660092
70,21,5,ISIP_5,26,9999,9999,9999,2224160840
70,21,5,ISIP_5,27,9999,9999,9999,2224660536
70,21,5,ISIP_5,28,9999,9999,9999,2225160308
70,21,5,ISIP_5,29,9999,9999,9999,2225661040
70,21,5,ISIP_5,30,9999,9999,9999,2226160744
70,21,5,ISIP_5,31,9999,9999,9999,2226660436
70,21,5,ISIP_5,32,9999,9999,9999,2227160176
70,21,5,ISIP_5,33,9999,9999,9999,2227660896
70,21,5,ISIP_5,34,9999,9999,9999,2228160572
70,21,5,ISIP_5,35,9999,9999,9999,2228660316
70,21,5,ISIP_5,36,9999,9999,9999,2229161076
70,21,5,ISIP_5,37,9999,9999,9999,2229660752
70,21,5,ISIP_5,38,9999,9999,9999,2230160516
70,21,5,ISIP_5,39,9999,9999,9999,2230660208
70,21,5,ISIP_5,40,9999,9999,9999,2231160952
70,21,5,ISIP_5,41,9999,9999,9999,2231660644
70,21,5,ISIP_5,42,9999,9999,9999,2232160332
70,21,5,ISIP_5,43,9999,9999,9999,2232661076
70,21,5,ISIP_5,44,9999,9999,9999,2233160768
70,21,5,ISIP_5,45,9999,9999,9999,2233660536
70,21,5,ISIP_5,46,9999,9999,9999,2234160228
70,21,5,ISIP_5,47,9999,9999,9999,2234660964
70,21,5,ISIP_5,48,9999,9999,9999,2235160656
70,21,5,ISIP_5,49,9999,9999,9999,2235660348
70,21,5,ISIP_5,50,9999,9999,9999,2236160112
70,21,5,ISIP_5,51,9999,9999,9999,2236660848
70,21,5,ISIP_5,52,9999,9999,9999,2237160540
70,21,5,ISIP_5,53,9999,9999,9999,2237660232
70,21,5,ISIP_5,54,9999,9999,9999,2238160968
70,21,5,ISIP_5,55,9999,9999,9999,2238660708
70,21,5,ISIP_5,56,9999,9999,9999,2239160400
70,21,5,ISIP_5,57,9999,9999,9999,2239660092
70,21,5,ISIP_5,58,9999,9999,9999,2240160828
70,21,5,ISIP_5,59,9999,9999,9999,2240660592
70,21,5,ISIP_5,60,9999,9999,9999,2241160284
70,21,5,ISIP_5,61,9999,9999,9999,2241661020
70,21,5,ISIP_5,62,9999,9999,9999,2242160708
70,21,5,ISIP_5,63,9999,9999,9999,2242660448
70,21,5,ISIP_5,64,9999,9999,9999,2243160140
70,21,5,ISIP_5,65,9999,9999,9999,2243660872
70,21,5,ISIP_5,66,9999,9999,9999,2244160560
70,21,5,ISIP_5,67,9999,9999,9999,2244660328
70,21,5,ISIP_5,68,9999,9999,9999,2245161064
70,21,5,ISIP_5,69,9999,9999,9999,2245660756
70,21,5,ISIP_5,70,9999,9999,9999,2246160448
70,21,5,ISIP_5,71,9999,9999,9999,2246660212
70,21,5,ISIP_5,72,9999,9999,9999,2247160952
70,21,5,ISIP_5,73,9999,9999,9999,2247660644
70,21,5,ISIP_5,74,9999,9999,9999,2248160332
70,21,5,ISIP_5,75,9999,9999,9999,2248661068
70,21,5,ISIP_5,76,9999,9999,9999,2249160812
70,21,5,ISIP_5,77,9999,9999,9999,2249660500
70,21,5,ISIP_5,78,9999,9999,9999,2250160192
70,21,5,ISIP_5,79,9999,9999,9999,2250660936
70,21,5,ISIP_5,80,9999,9999,9999,2251160696
70,21,5,ISIP_5,81,9999,9999,9999,2251660384
70,21,5,ISIP_5,82,9999,9999,9999,2252160076
70,21,5,ISIP_5,83,9999,9999,9999,2252660812
70,21,5,ISIP_5,84,9999,9999,9999,2253160508
70,21,5,ISIP_5,85,9999,9999,9999,2253660268
70,21,5,ISIP_5,86,9999,9999,9999,2254161008
70,21,5,ISIP_5,87,9999,9999,9999,2254660696
70,21,5,ISIP_5,88,9999,9999,9999,2255160388
70,21,5,ISIP_5,89,9999,9999,9999,2255660080
70,21,5,ISIP_5,90,9999,9999,9999,2256160816
70,21,5,ISIP_5,91,9999,9999,9999,2256660580
70,21,5,ISIP_5,92,9999,9999,9999,2257160272
70,21,5,ISIP_5,93,9999,9999,9999,2257661008
70,21,5,ISIP_5,94,9999,9999,9999,2258160700
70,21,5,ISIP_5,95,9999,9999,9999,2258660464
70,21,5,ISIP_5,96,9999,9999,9999,2259160156
70,21,5,ISIP_5,97,9999,9999,9999,2259660868
70,21,5,ISIP_5,98,9999,9999,9999,2260160632
70,21,5,ISIP_5,99,9999,9999,9999,2260660308
70,21,5,ISIP_5,100,9999,9999,9999,2261161044
70,21,5,ISIP_5,101,9999,9999,9999,2261660748
70,21,5,ISIP_5,102,9999,9999,9999,2262160500
70,21,5,ISIP_5,103,9999,9999,9999,2262660192
70,21,5,ISIP_5,104,9999,9999,9999,2263160928
70,21,5,ISIP_5,105,9999,9999,9999,2263660620
70,21,5,ISIP_5,106,9999,9999,9999,2264160312
70,21,5,ISIP_5,107,9999,9999,9999,2264661052
70,21,5,ISIP_5,108,9999,9999,9999,2265160816
70,21,5,ISIP_5,109,9999,9999,9999,2265660504
70,21,5,ISIP_5,110,9999,9999,9999,2266160196
70,21,5,ISIP_5,111,9999,9999,9999,2266660932
70,21,5,ISIP_5,112,9999,9999,9999,2267160624
70,21,5,ISIP_5,113,9999,9999,9999,2267660392
70,21,5,ISIP_5,114,9999,9999,9999,2268160080
70,21,5,ISIP_5,115,9999,9999,9999,2268660820
70,21,5,ISIP_5,116,9999,9999,9999,2269160508
70,21,5,ISIP_5,117,9999,9999,9999,2269660276
70,21,5,ISIP_5,118,9999,9999,9999,2270161012
70,21,5,ISIP_5,119,9999,9999,9999,2270660676
70,21,5,ISIP_5,120,9999,9999,9999,2271160368
70,21,5,ISIP_5,121,9999,9999,9999,2271660136
70,21,5,ISIP_5,122,9999,9999,9999,2272160872
70,21,5,ISIP_5,123,9999,9999,9999,2272660564
70,21,5,ISIP_5,124,9999,9999,9999,2273160252
70,21,5,ISIP_5,125,9999,9999,9999,2273660988
70,21,5,ISIP_5,126,9999,9999,9999,2274160756
70,21,5,ISIP_5,127,9999,9999,9999,2274660444
70,21,5,ISIP_5,128,9999,9999,9999,2275160136
70,21,5,ISIP_5,129,9999,9999,9999,2275660872
70,21,5,ISIP_5,130,9999,9999,9999,2276160564
70,21,5,ISIP_5,131,9999,9999,9999,2276660328
70,21,5,ISIP_5,132,9999,9999,9999,2277161068
70,21,5,ISIP_5,133,9999,9999,9999,2277660756
70,21,5,ISIP_5,134,9999,9999,9999,2278160448
70,21,5,ISIP_5,135,9999,9999,9999,2278660212
70,21,5,ISIP_5,136,9999,9999,9999,2279160948
70,21,5,ISIP_5,137,9999,9999,9999,2279660640
70,21,5,ISIP_5,138,9999,9999,9999,2280160332
70,21,5,ISIP_5,139,9999,9999,9999,2280661068
70,21,5,ISIP_5,140,9999,9999,9999,2281160808
70,21,5,ISIP_5,141,9999,9999,9999,2281660500
70,21,5,ISIP_5,142,9999,9999,9999,2282160188
70,21,5,ISIP_5,143,9999,9999,9999,2282660924
70,21,5,ISIP_5,144,9999,9999,9999,2283160692
70,21,5,ISIP_5,145,9999,9999,9999,2283660384
70,21,5,ISIP_5,146,9999,9999,9999,2284160072
70,21,5,ISIP_5,147,9999,9999,9999,2284660812
70,21,5,ISIP_5,148,9999,9999,9999,2285160504
70,21,5,ISIP_5,149,9999,9999,9999,2285660268
70,21,5,ISIP_5,150,9999,9999,9999,2286161004
70,21,5,ISIP_5,151,9999,9999,9999,2286660696
70,21,5,ISIP_5,152,9999,9999,9999,2287160384
70,21,5,ISIP_5,153,9999,9999,9999,2287660152
70,21,5,ISIP_5,154,9999,9999,9999,2288160888
70,21,5,ISIP_5,155,9999,9999,9999,2288660580
70,21,5,ISIP_5,156,9999,9999,9999,2289160272
70,21,5,ISIP_5,157,9999,9999,9999,2289661008
70,21,5,ISIP_5,158,9999,9999,9999,2290160700
70,21,5,ISIP_5,159,9999,9999,9999,2290660464
70,22,11,Pattern_Practice,0,5,42,127,2414379300
70,22,11,Pattern_Practice,1,5,42,127,2414879240
70,22,11,Pattern_Practice,2,5,42,127,2415378808
70,22,11,Pattern_Practice,3,1,38,32,2415383120
70,22,11,Pattern_Practice,4,1,38,28,2415597420
70,22,11,Pattern_Practice,5,5,42,127,2415878408
70,22,11,Pattern_Practice,6,1,38,49,2416037180
70,22,11,Pattern_Practice,7,5,42,127,2416379224
70,22,11,Pattern_Practice,8,1,38,30,2416403356
70,22,11,Pattern_Practice,9,1,38,38,2416547396
70,22,11,Pattern_Practice,10,1,38,42,2416856636
70,22,11,Pattern_Practice,11,5,42,127,2416879108
70,22,11,Pattern_Practice,12,1,38,39,2417135880
70,22,11,Pattern_Practice,13,5,42,127,2417378640
70,22,11,Pattern_Practice,14,1,48,62,2417455956
70,22,11,Pattern_Practice,15,5,42,127,2417879380
70,22,11,Pattern_Practice,16,1,48,48,2417952288
70,22,11,Pattern_Practice,17,1,48,27,2418150580
70,22,11,Pattern_Practice,18,1,48,29,2418292296
70,22,11,Pattern_Practice,19,5,42,127,2418378972
70,22,11,Pattern_Practice,20,1,48,46,2418669248
70,22,11,Pattern_Practice,21,1,48,42,2418813364
70,22,11,Pattern_Practice,22,5,42,127,2418878996
70,22,11,Pattern_Practice,23,1,48,48,2419113324
70,22,11,Pattern_Practice,24,5,42,127,2419378452
70,22,11,Pattern_Practice,25,1,48,50,2419403208
70,22,11,Pattern_Practice,26,1,48,50,2419656628
70,22,11,Pattern_Practice,27,5,42,127,2419879396
70,22,11,Pattern_Practice,28,1,48,32,2419935348
70,22,11,Pattern_Practice,29,1,48,37,2420163156
70,22,11,Pattern_Practice,30,5,42,127,2420379068
70,22,11,Pattern_Practice,31,1,48,57,2420420260
70,22,11,Pattern_Practice,32,1,48,36,2420692624
70,22,11,Pattern_Practice,33,1,48,44,2420814300
70,22,11,Pattern_Practice,34,5,42,127,2420878584
70,22,11,Pattern_Practice,35,1,48,40,2421059736
70,22,11,Pattern_Practice,36,1,48,35,2421163680
70,22,11,Pattern_Practice,37,5,42,127,2421378468
70,22,11,Pattern_Practice,38,1,48,53,2421450876
70,22,11,Pattern_Practice,39,1,38,43,2421689384
70,22,11,Pattern_Practice,40,5,42,127,2421879112
70,22,11,Pattern_Practice,41,1,38,27,2421960268
70,22,11,Pattern_Practice,42,1,38,56,2422192496
70,22,11,Pattern_Practice,43,5,42,127,2422378784
70,22,11,Pattern_Practice,44,1,38,56,2422442932
70,22,11,Pattern_Practice,45,1,38,25,2422697772
70,22,11,Pattern_Practice,46,1,38,28,2422841164
70,22,11,Pattern_Practice,47,5,42,127,2422878528
70,22,11,Pattern_Practice,48,1,38,40,2423080992
70,22,11,Pattern_Practice,49,1,48,13,2423092036
70,22,11,Pattern_Practice,50,1,38,38,2423202840
70,22,11,Pattern_Practice,51,5,42,127,2423379180
70,22,11,Pattern_Practice,52,1,38,51,2423443860
70,22,11,Pattern_Practice,53,1,38,57,2423672896
70,22,11,Pattern_Practice,54,5,42,127,2423879080
70,22,11,Pattern_Practice,55,1,38,54,2423918776
70,22,11,Pattern_Practice,56,1,38,39,2423954656
70,22,11,Pattern_Practice,57,1,38,28,2424157212
70,22,11,Pattern_Practice,58,5,42,127,2424378952
70,22,11,Pattern_Practice,59,1,38,24,2424386112
70,22,11,Pattern_Practice,60,1,38,48,2424654712
70,22,11,Pattern_Practice,61,1,38,48,2424760304
70,22,11,Pattern_Practice,62,5,42,127,2424878384
70,22,11,Pattern_Practice,63,1,38,51,2425007684
70,22,11,Pattern_Practice,64,1,38,43,2425122648
70,22,11,Pattern_Practice,65,1,38,52,2425361784
70,22,11,Pattern_Practice,66,5,42,127,2425379096
70,22,11,Pattern_Practice,67,1,38,65,2425606912
70,22,11,Pattern_Practice,68,1,38,49,2425830336
70,22,11,Pattern_Practice,69,5,42,127,2425879064
70,22,11,Pattern_Practice,70,1,38,69,2426349404
70,22,11,Pattern_Practice,71,5,42,127,2426378536
70,22,11,Pattern_Practice,72,1,38,44,2426397348
70,22,11,Pattern_Practice,73,1,38,28,2426612096
70,22,11,Pattern_Practice,74,1,38,76,2426852948
70,22,11,Pattern_Practice,75,5,42,127,2426879236
70,22,11,Pattern_Practice,76,1,38,48,2426894152
70,22,11,Pattern_Practice,77,1,38,38,2427114288
70,22,11,Pattern_Practice,78,1,38,62,2427356564
70,22,11,Pattern_Practice,79,5,42,127,2427379036
70,22,11,Pattern_Practice,80,1,38,44,2427600276
70,22,11,Pattern_Practice,81,1,38,69,2427855940
70,22,11,Pattern_Practice,82,5,42,127,2427879008
70,22,11,Pattern_Practice,83,1,38,49,2428108924
70,22,11,Pattern_Practice,84,1,38,46,2428370048
70,22,11,Pattern_Practice,85,5,42,127,2428378532
70,22,11,Pattern_Practice,86,1,38,70,2428597948
70,22,11,Pattern_Practice,87,1,38,53,2428694964
70,22,11,Pattern_Practice,88,5,42,127,2428879160
70,22,11,Pattern_Practice,89,1,38,42,2428887292
70,22,11,Pattern_Practice,90,1,38,44,2429005672
70,22,11,Pattern_Practice,91,1,38,52,2429156316
70,22,11,Pattern_Practice,92,1,38,38,2429376968
70,22,11,Pattern_Practice,93,5,42,127,2429379376
70,22,11,Pattern_Practice,94,1,38,43,2429623200
70,22,11,Pattern_Practice,95,5,42,127,2429878904
70,22,11,Pattern_Practice,96,1,38,58,2429881504
70,22,11,Pattern_Practice,97,5,42,127,2430379352
70,22,11,Pattern_Practice,98,1,38,54,2430407104
70,22,11,Pattern_Practice,99,1,38,41,2430515688
70,22,11,Pattern_Practice,100,1,38,43,2430776284
70,22,11,Pattern_Practice,101,5,42,127,2430879076
70,22,11,Pattern_Practice,102,1,38,56,2430891172
70,22,11,Pattern_Practice,103,1,38,62,2431125436
70,22,11,Pattern_Practice,104,5,42,127,2431378896
70,22,11,Pattern_Practice,105,1,38,69,2431392188
70,22,11,Pattern_Practice,106,1,38,51,2431633788
70,22,11,Pattern_Practice,107,1,38,64,2431877668
70,22,11,Pattern_Practice,108,5,42,127,2431880284
70,22,11,Pattern_Practice,109,1,38,42,2431928792
70,22,11,Pattern_Practice,110,5,42,127,2432379292
70,22,11,Pattern_Practice,111,1,38,67,2432407620
70,22,11,Pattern_Practice,112,1,38,57,2432518020
70,22,11,Pattern_Practice,113,1,38,61,2432776672
70,22,11,Pattern_Practice,114,5,42,127,2432878940
70,22,11,Pattern_Practice,115,1,38,52,2432912504
70,22,11,Pattern_Practice,116,1,38,30,2432963340
70,22,11,Pattern_Practice,117,1,38,58,2433126480
70,22,11,Pattern_Practice,118,5,42,127,2433378816
70,22,11,Pattern_Practice,119,1,38,73,2433402952
70,22,11,Pattern_Practice,120,1,38,55,2433625480
70,22,11,Pattern_Practice,121,1,38,59,2433872832
70,22,11,Pattern_Practice,122,5,42,127,2433879528
70,22,11,Pattern_Practice,123,1,38,37,2433928856
70,22,11,Pattern_Practice,124,5,42,127,2434379056
70,22,11,Pattern_Practice,125,1,38,67,2434423684
70,22,11,Pattern_Practice,126,1,38,55,2434530504
70,22,11,Pattern_Practice,127,1,38,55,2434790200
70,22,11,Pattern_Practice,128,5,42,127,2434878800
70,22,11,Pattern_Practice,129,1,38,52,2434905836
70,22,11,Pattern_Practice,130,1,38,57,2435147508
70,22,11,Pattern_Practice,131,5,42,127,2435378752
70,22,11,Pattern_Practice,132,1,38,72,2435399828
70,22,11,Pattern_Practice,133,1,38,57,2435640824
70,22,11,Pattern_Practice,134,5,42,127,2435879248
70,22,11,Pattern_Practice,135,1,38,60,2435883716
70,22,11,Pattern_Practice,136,1,38,37,2435941136
70,22,11,Pattern_Practice,137,1,38,30,2436136812
70,22,11,Pattern_Practice,138,5,42,127,2436378904
70,22,11,Pattern_Practice,139,1,38,66,2436404540
70,22,11,Pattern_Practice,140,1,38,53,2436529124
70,22,11,Pattern_Practice,141,1,38,54,2436759956
70,22,11,Pattern_Practice,142,5,42,127,2436878924
70,22,11,Pattern_Practice,143,1,38,55,2436882644
70,22,11,Pattern_Practice,144,1,38,59,2437104648
70,22,11,Pattern_Practice,145,5,42,127,2437378600
70,22,11,Pattern_Practice,146,1,38,72,2437385832
70,22,11,Pattern_Practice,147,1,38,59,2437583976
70,22,11,Pattern_Practice,148,1,38,67,2437850028
70,22,11,Pattern_Practice,149,5,42,127,2437879088
70,22,11,Pattern_Practice,150,1,38,43,2437900888
70,22,11,Pattern_Practice,151,1,38,52,2438098508
70,22,11,Pattern_Practice,152,5,42,127,2438378820
70,22,11,Pattern_Practice,153,1,38,75,2438392860
70,22,11,Pattern_Practice,154,1,38,50,2438514912
70,22,11,Pattern_Practice,155,1,38,52,2438784184
70,22,11,Pattern_Practice,156,5,42,127,2438878560
70,22,11,Pattern_Practice,157,1,38,46,2438886604
70,22,11,Pattern_Practice,158,1,38,59,2439124684
70,22,11,Pattern_Practice,159,5,42,127,2439379340
70,22,11,Pattern_Practice,160,1,38,73,2439401156
70,22,11,Pattern_Practice,161,1,38,59,2439636628
70,22,11,Pattern_Practice,162,1,38,61,2439875284
70,22,11,Pattern_Practice,163,5,42,127,2439879008
70,22,11,Pattern_Practice,164,1,38,38,2439921908
70,22,11,Pattern_Practice,165,1,38,45,2440099824
70,22,11,Pattern_Practice,166,5,42,127,2440378720
70,22,11,Pattern_Practice,167,1,38,65,2440387516
70,22,11,Pattern_Practice,168,1,38,58,2440513784
70,22,11,Pattern_Practice,169,1,38,56,2440767504
70,22,11,Pattern_Practice,170,5,42,127,2440878596
70,22,11,Pattern_Practice,171,1,38,58,2440891064
70,22,11,Pattern_Practice,172,1,38,32,2440943572
70,22,11,Pattern_Practice,173,1,38,59,2441130100
70,22,11,Pattern_Practice,174,5,42,127,2441379292
70,22,11,Pattern_Practice,175,1,38,62,2441418264
70,22,11,Pattern_Practice,176,1,38,58,2441651908
70,22,11,Pattern_Practice,177,5,42,127,2441878816
70,22,11,Pattern_Practice,178,1,38,65,2441886420
70,22,11,Pattern_Practice,179,1,38,43,2441938932
70,22,11,Pattern_Practice,180,1,38,58,2442125532
70,22,11,Pattern_Practice,181,5,42,127,2442378688
70,22,11,Pattern_Practice,182,1,38,68,2442406640
70,22,11,Pattern_Practice,183,1,38,59,2442525724
70,22,11,Pattern_Practice,184,1,38,60,2442785424
70,22,11,Pattern_Practice,185,5,42,127,2442879832
70,22,11,Pattern_Practice,186,1,38,50,2442905096
70,22,11,Pattern_Practice,187,1,38,60,2443138616
70,22,11,Pattern_Practice,188,5,42,127,2443378984
70,22,11,Pattern_Practice,189,1,38,67,2443405664
70,22,11,Pattern_Practice,190,1,38,59,2443628264
70,22,11,Pattern_Practice,191,1,38,61,2443874356
70,22,11,Pattern_Practice,192,5,42,127,2443878652
70,22,11,Pattern_Practice,193,1,38,38,2443926708
70,22,11,Pattern_Practice,194,1,38,54,2444118416
70,22,11,Pattern_Practice,195,5,42,127,2444378608
70,22,11,Pattern_Practice,196,1,38,70,2444397132
70,22,11,Pattern_Practice,197,1,38,67,2444524512
70,22,11,Pattern_Practice,198,1,38,52,2444774944
70,22,11,Pattern_Practice,199,5,42,127,2444879228
70,22,11,Pattern_Practice,200,1,38,48,2444899628
70,22,11,Pattern_Practice,201,1,38,61,2445123424
70,22,11,Pattern_Practice,202,5,42,127,2445378828
70,22,11,Pattern_Practice,203,1,38,72,2445397800
70,22,11,Pattern_Practice,204,1,38,57,2445617712
70,22,11,Pattern_Practice,205,1,38,56,2445855196
70,22,11,Pattern_Practice,206,5,42,127,2445878792
70,22,11,Pattern_Practice,207,1,38,39,2445898800
70,22,11,Pattern_Practice,208,1,38,51,2446096268
70,22,11,Pattern_Practice,209,1,38,65,2446354320
70,22,11,Pattern_Practice,210,5,42,127,2446379564
70,22,11,Pattern_Practice,211,1,38,59,2446490004
70,22,11,Pattern_Practice,212,1,38,57,2446748812
70,22,11,Pattern_Practice,213,1,38,52,2446878696
70,22,11,Pattern_Practice,214,5,42,127,2446881460
70,22,11,Pattern_Practice,215,1,38,30,2446937376
70,22,11,Pattern_Practice,216,1,38,59,2447133872
70,22,11,Pattern_Practice,217,5,42,127,2447378872
70,22,11,Pattern_Practice,218,1,38,62,2447397696
70,22,11,Pattern_Practice,219,1,38,59,2447614172
70,22,11,Pattern_Practice,220,1,38,61,2447855096
70,22,11,Pattern_Practice,221,5,42,127,2447878468
70,22,11,Pattern_Practice,222,1,38,41,2447909468
70,22,11,Pattern_Practice,223,1,38,65,2448106788
70,22,11,Pattern_Practice,224,5,42,127,2448379392
70,22,11,Pattern_Practice,225,1,38,61,2448386256
70,22,11,Pattern_Practice,226,1,38,66,2448506728
70,22,11,Pattern_Practice,227,1,38,58,2448760296
70,22,11,Pattern_Practice,228,5,42,127,2448878896
70,22,11,Pattern_Practice,229,1,38,56,2448881788
70,22,11,Pattern_Practice,230,1,38,33,2448924100
70,22,11,Pattern_Practice,231,1,38,62,2449119552
70,22,11,Pattern_Practice,232,5,42,127,2449378620
70,22,11,Pattern_Practice,233,1,38,67,2449396696
70,22,11,Pattern_Practice,234,1,38,61,2449624460
70,22,11,Pattern_Practice,235,1,38,65,2449878056
70,22,11,Pattern_Practice,236,5,42,127,2449880752
70,22,11,Pattern_Practice,237,1,38,35,2449954844
70,22,11,Pattern_Practice,238,1,38,21,2450021912
70,22,11,Pattern_Practice,239,1,38,62,2450114568
70,22,11,Pattern_Practice,240,5,42,127,2450379116
70,22,11,Pattern_Practice,241,1,38,72,2450390540
70,22,11,Pattern_Practice,242,1,38,51,2450497028
70,22,11,Pattern_Practice,243,1,38,60,2450764580
70,22,11,Pattern_Practice,244,5,42,127,2450878968
70,22,11,Pattern_Practice,245,1,38,49,2450901408
70,22,11,Pattern_Practice,246,1,38,31,2450952400
70,22,11,Pattern_Practice,247,1,38,63,2451133612
70,22,11,Pattern_Practice,248,5,42,127,2451378616
70,22,11,Pattern_Practice,249,1,38,76,2451388244
70,22,11,Pattern_Practice,250,1,38,64,2451631268
70,22,11,Pattern_Practice,251,1,38,61,2451860076
70,22,11,Pattern_Practice,252,5,42,127,2451879480
70,22,11,Pattern_Practice,253,1,38,39,2451911480
70,22,11,Pattern_Practice,254,1,38,63,2452122168
70,22,11,Pattern_Practice,255,5,42,127,2452378916
70,22,11,Pattern_Practice,256,1,38,62,2452394676
70,22,11,Pattern_Practice,257,1,38,62,2452508824
70,22,11,Pattern_Practice,258,1,38,26,2452569164
70,22,11,Pattern_Practice,259,1,38,54,2452778968
70,22,11,Pattern_Practice,260,5,42,127,2452878696
70,22,11,Pattern_Practice,261,1,38,51,2452897744
70,22,11,Pattern_Practice,262,1,38,30,2452947340
70,22,11,Pattern_Practice,263,1,38,68,2453167152
70,22,11,Pattern_Practice,264,5,42,127,2453378348
70,22,11,Pattern_Practice,265,1,38,62,2453422680
70,22,11,Pattern_Practice,266,1,38,62,2453655228
70,22,11,Pattern_Practice,267,5,42,127,2453879440
70,22,11,Pattern_Practice,268,1,38,55,2453910456
70,22,11,Pattern_Practice,269,1,38,36,2453977856
70,22,11,Pattern_Practice,270,1,38,60,2454145380
70,22,11,Pattern_Practice,0,9999,9999,9999,2414377012
70,22,11,Pattern_Practice,1,9999,9999,9999,2414876728
70,22,11,Pattern_Practice,2,9999,9999,9999,2415376444
70,22,11,Pattern_Practice,3,9999,9999,9999,2415876192
70,22,11,Pattern_Practice,4,9999,9999,9999,2416376936
70,22,11,Pattern_Practice,5,9999,9999,9999,2416876600
70,22,11,Pattern_Practice,6,9999,9999,9999,2417376352
70,22,11,Pattern_Practice,7,9999,9999,9999,2417877092
70,22,11,Pattern_Practice,8,9999,9999,9999,2418376760
70,22,11,Pattern_Practice,9,9999,9999,9999,2418876484
70,22,11,Pattern_Practice,10,9999,9999,9999,2419376236
70,22,11,Pattern_Practice,11,9999,9999,9999,2419876960
70,22,11,Pattern_Practice,12,9999,9999,9999,2420376632
70,22,11,Pattern_Practice,13,9999,9999,9999,2420876372
70,22,11,Pattern_Practice,14,9999,9999,9999,2421376104
70,22,11,Pattern_Practice,15,9999,9999,9999,2421876824
70,22,11,Pattern_Practice,16,9999,9999,9999,2422376496
70,22,11,Pattern_Practice,17,9999,9999,9999,2422876240
70,22,11,Pattern_Practice,18,9999,9999,9999,2423376968
70,22,11,Pattern_Practice,19,9999,9999,9999,2423876716
70,22,11,Pattern_Practice,20,9999,9999,9999,2424376368
70,22,11,Pattern_Practice,21,9999,9999,9999,2424876092
70,22,11,Pattern_Practice,22,9999,9999,9999,2425376884
70,22,11,Pattern_Practice,23,9999,9999,9999,2425876552
70,22,11,Pattern_Practice,24,9999,9999,9999,2426376252
70,22,11,Pattern_Practice,25,9999,9999,9999,2426877024
70,22,11,Pattern_Practice,26,9999,9999,9999,2427376748
70,22,11,Pattern_Practice,27,9999,9999,9999,2427876420
70,22,11,Pattern_Practice,28,9999,9999,9999,2428376168
70,22,11,Pattern_Practice,29,9999,9999,9999,2428876872
70,22,11,Pattern_Practice,30,9999,9999,9999,2429376596
70,22,11,Pattern_Practice,31,9999,9999,9999,2429876320
70,22,11,Pattern_Practice,32,9999,9999,9999,2430377064
70,22,11,Pattern_Practice,33,9999,9999,9999,2430876788
70,22,11,Pattern_Practice,34,9999,9999,9999,2431376460
70,22,11,Pattern_Practice,35,9999,9999,9999,2431876208
70,22,11,Pattern_Practice,36,9999,9999,9999,2432376928
70,22,11,Pattern_Practice,37,9999,9999,9999,2432876628
70,22,11,Pattern_Practice,38,9999,9999,9999,2433376304
70,22,11,Pattern_Practice,39,9999,9999,9999,2433877092
70,22,11,Pattern_Practice,40,9999,9999,9999,2434376768
70,22,11,Pattern_Practice,41,9999,9999,9999,2434876512
70,22,11,Pattern_Practice,42,9999,9999,9999,2435376244
70,22,11,Pattern_Practice,43,9999,9999,9999,2435876960
70,22,11,Pattern_Practice,44,9999,9999,9999,2436376692
70,22,11,Pattern_Practice,45,9999,9999,9999,2436876340
70,22,11,Pattern_Practice,46,9999,9999,9999,2437376088
70,22,11,Pattern_Practice,47,9999,9999,9999,2437876800
70,22,11,Pattern_Practice,48,9999,9999,9999,2438376532
70,22,11,Pattern_Practice,49,9999,9999,9999,2438876276
70,22,11,Pattern_Practice,50,9999,9999,9999,2439376980
70,22,11,Pattern_Practice,51,9999,9999,9999,2439876704
70,22,11,Pattern_Practice,52,9999,9999,9999,2440376428
70,22,11,Pattern_Practice,53,9999,9999,9999,2440876084
70,22,11,Pattern_Practice,54,9999,9999,9999,2441376856
70,22,11,Pattern_Practice,55,9999,9999,9999,2441876528
70,22,11,Pattern_Practice,56,9999,9999,9999,2442376252
70,22,11,Pattern_Practice,57,9999,9999,9999,2442877040
70,22,11,Pattern_Practice,58,9999,9999,9999,2443376696
70,22,11,Pattern_Practice,59,9999,9999,9999,2443876436
70,22,11,Pattern_Practice,60,9999,9999,9999,2444376172
70,22,11,Pattern_Practice,61,9999,9999,9999,2444876868
70,22,11,Pattern_Practice,62,9999,9999,9999,2445376616
70,22,11,Pattern_Practice,63,9999,9999,9999,2445876280
70,22,11,Pattern_Practice,64,9999,9999,9999,2446377052
70,22,11,Pattern_Practice,65,9999,9999,9999,2446876788
70,22,11,Pattern_Practice,66,9999,9999,9999,2447376436
70,22,11,Pattern_Practice,67,9999,9999,9999,2447876180
70,22,11,Pattern_Practice,68,9999,9999,9999,2448376884
70,22,11,Pattern_Practice,69,9999,9999,9999,2448876608
70,22,11,Pattern_Practice,70,9999,9999,9999,2449376332
70,22,11,Pattern_Practice,71,9999,9999,9999,2449877052
70,22,11,Pattern_Practice,72,9999,9999,9999,2450376756
70,22,11,Pattern_Practice,73,9999,9999,9999,2450876532
70,22,11,Pattern_Practice,74,9999,9999,9999,2451376180
70,22,11,Pattern_Practice,75,9999,9999,9999,2451876972
70,22,11,Pattern_Practice,76,9999,9999,9999,2452376632
70,22,11,Pattern_Practice,77,9999,9999,9999,2452876408
70,22,11,Pattern_Practice,78,9999,9999,9999,2453376060
70,22,11,Pattern_Practice,79,9999,9999,9999,2453876852
70,23,13,Improv_Metronome,0,5,42,127,2493493772
70,23,13,Improv_Metronome,1,5,42,127,2493994464
70,23,13,Improv_Metronome,2,5,42,127,2494493956
70,23,13,Improv_Metronome,3,1,38,45,2494513456
70,23,13,Improv_Metronome,4,1,38,35,2494622188
70,23,13,Improv_Metronome,5,1,38,34,2494886748
70,23,13,Improv_Metronome,6,1,38,44,2494989600
70,23,13,Improv_Metronome,7,5,42,127,2494993748
70,23,13,Improv_Metronome,8,1,38,69,2495250064
70,23,13,Improv_Metronome,9,5,42,127,2495493648
70,23,13,Improv_Metronome,10,1,38,43,2495505972
70,23,13,Improv_Metronome,11,1,38,53,2495762152
70,23,13,Improv_Metronome,12,5,42,127,2495994220
70,23,13,Improv_Metronome,13,1,38,58,2496024792
70,23,13,Improv_Metronome,14,1,38,34,2496077952
70,23,13,Improv_Metronome,15,1,38,68,2496243032
70,23,13,Improv_Metronome,16,5,42,127,2496493872
70,23,13,Improv_Metronome,17,1,38,57,2496517036
70,23,13,Improv_Metronome,18,1,38,54,2496623600
70,23,13,Improv_Metronome,19,1,38,48,2496876944
70,23,13,Improv_Metronome,20,1,38,60,2496971416
70,23,13,Improv_Metronome,21,5,42,127,2496993592
70,23,13,Improv_Metronome,22,1,38,88,2497244752
70,23,13,Improv_Metronome,23,5,42,127,2497494472
70,23,13,Improv_Metronome,24,1,38,53,2497499684
70,23,13,Improv_Metronome,25,1,38,58,2497745768
70,23,13,Improv_Metronome,26,5,42,127,2497993992
70,23,13,Improv_Metronome,27,1,38,62,2497998160
70,23,13,Improv_Metronome,28,1,38,36,2498044736
70,23,13,Improv_Metronome,29,1,38,62,2498228568
70,23,13,Improv_Metronome,30,1,38,64,2498479220
70,23,13,Improv_Metronome,31,5,42,127,2498493760
70,23,13,Improv_Metronome,32,1,38,58,2498595696
70,23,13,Improv_Metronome,33,1,38,56,2498836628
70,23,13,Improv_Metronome,34,1,38,53,2498968248
70,23,13,Improv_Metronome,35,5,42,127,2498993488
70,23,13,Improv_Metronome,36,1,38,30,2499014044
70,23,13,Improv_Metronome,37,1,38,81,2499210740
70,23,13,Improv_Metronome,38,1,38,58,2499232784
70,23,13,Improv_Metronome,39,1,38,64,2499476852
70,23,13,Improv_Metronome,40,5,42,127,2499494388
70,23,13,Improv_Metronome,41,1,38,57,2499713236
70,23,13,Improv_Metronome,42,1,38,62,2499962236
70,23,13,Improv_Metronome,43,5,42,127,2499993912
70,23,13,Improv_Metronome,44,1,38,35,2500017512
70,23,13,Improv_Metronome,45,1,38,60,2500184008
70,23,13,Improv_Metronome,46,1,38,73,2500466004
70,23,13,Improv_Metronome,47,5,42,127,2500493636
70,23,13,Improv_Metronome,48,1,38,57,2500580912
70,23,13,Improv_Metronome,49,1,38,51,2500851760
70,23,13,Improv_Metronome,50,1,38,31,2500965352
70,23,13,Improv_Metronome,51,5,42,127,2500994336
70,23,13,Improv_Metronome,52,1,38,77,2501232104
70,23,13,Improv_Metronome,53,1,38,53,2501254224
70,23,13,Improv_Metronome,54,1,38,67,2501485652
70,23,13,Improv_Metronome,55,5,42,127,2501494208
70,23,13,Improv_Metronome,56,1,38,64,2501738564
70,23,13,Improv_Metronome,57,1,38,61,2501975824
70,23,13,Improv_Metronome,58,5,42,127,2501993808
70,23,13,Improv_Metronome,59,1,38,40,2502031168
70,23,13,Improv_Metronome,60,1,38,76,2502218768
70,23,13,Improv_Metronome,61,1,38,59,2502488784
70,23,13,Improv_Metronome,62,5,42,127,2502493532
70,23,13,Improv_Metronome,63,1,38,52,2502597264
70,23,13,Improv_Metronome,64,1,38,48,2502831512
70,23,13,Improv_Metronome,65,1,38,45,2502961216
70,23,13,Improv_Metronome,66,5,42,127,2502994304
70,23,13,Improv_Metronome,67,1,38,90,2503207020
70,23,13,Improv_Metronome,68,1,38,57,2503466644
70,23,13,Improv_Metronome,69,5,42,127,2503494052
70,23,13,Improv_Metronome,70,1,38,53,2503701532
70,23,13,Improv_Metronome,71,1,38,54,2503951880
70,23,13,Improv_Metronome,72,5,42,127,2503993728
70,23,13,Improv_Metronome,73,1,38,35,2504004236
70,23,13,Improv_Metronome,74,1,38,78,2504191532
70,23,13,Improv_Metronome,75,1,38,65,2504460884
70,23,13,Improv_Metronome,76,5,42,127,2504493380
70,23,13,Improv_Metronome,77,1,38,58,2504580780
70,23,13,Improv_Metronome,78,1,38,47,2504830012
70,23,13,Improv_Metronome,79,1,38,52,2504935400
70,23,13,Improv_Metronome,80,5,42,127,2504994228
70,23,13,Improv_Metronome,81,1,38,93,2505185772
70,23,13,Improv_Metronome,82,1,38,59,2505422884
70,23,13,Improv_Metronome,83,5,42,127,2505493900
70,23,13,Improv_Metronome,84,1,38,60,2505673104
70,23,13,Improv_Metronome,85,1,38,59,2505934596
70,23,13,Improv_Metronome,86,1,38,37,2505991364
70,23,13,Improv_Metronome,87,5,42,127,2505993552
70,23,13,Improv_Metronome,88,1,38,70,2506176696
70,23,13,Improv_Metronome,89,1,38,72,2506431156
70,23,13,Improv_Metronome,90,5,42,127,2506494272
70,23,13,Improv_Metronome,91,1,38,55,2506562824
70,23,13,Improv_Metronome,92,1,38,50,2506811080
70,23,13,Improv_Metronome,93,1,38,54,2506923852
70,23,13,Improv_Metronome,94,5,42,127,2506994148
70,23,13,Improv_Metronome,95,1,38,79,2507174892
70,23,13,Improv_Metronome,96,1,38,53,2507409544
70,23,13,Improv_Metronome,97,5,42,127,2507493672
70,23,13,Improv_Metronome,98,1,38,56,2507673520
70,23,13,Improv_Metronome,99,1,38,59,2507910032
70,23,13,Improv_Metronome,100,1,38,35,2507966332
70,23,13,Improv_Metronome,101,5,42,127,2507993396
70,23,13,Improv_Metronome,102,1,38,69,2508140408
70,23,13,Improv_Metronome,103,1,38,84,2508395628
70,23,13,Improv_Metronome,104,5,42,127,2508494696
70,23,13,Improv_Metronome,105,1,38,61,2508511056
70,23,13,Improv_Metronome,106,1,38,40,2508546416
70,23,13,Improv_Metronome,107,1,38,54,2508770588
70,23,13,Improv_Metronome,108,1,38,51,2508883656
70,23,13,Improv_Metronome,109,5,42,127,2508993880
70,23,13,Improv_Metronome,110,1,38,85,2509134772
70,23,13,Improv_Metronome,111,1,38,58,2509390216
70,23,13,Improv_Metronome,112,5,42,127,2509493604
70,23,13,Improv_Metronome,113,1,38,54,2509637668
70,23,13,Improv_Metronome,114,1,38,59,2509901328
70,23,13,Improv_Metronome,115,1,38,37,2509962272
70,23,13,Improv_Metronome,116,5,42,127,2509994392
70,23,13,Improv_Metronome,117,1,38,21,2510021980
70,23,13,Improv_Metronome,118,1,38,78,2510145296
70,23,13,Improv_Metronome,119,1,38,59,2510383004
70,23,13,Improv_Metronome,120,5,42,127,2510494248
70,23,13,Improv_Metronome,121,1,38,49,2510504028
70,23,13,Improv_Metronome,122,1,38,52,2510772556
70,23,13,Improv_Metronome,123,1,38,42,2510881016
70,23,13,Improv_Metronome,124,5,42,127,2510993676
70,23,13,Improv_Metronome,125,1,38,99,2511134668
70,23,13,Improv_Metronome,126,1,38,59,2511160680
70,23,13,Improv_Metronome,127,1,38,49,2511376776
70,23,13,Improv_Metronome,128,5,42,127,2511493552
70,23,13,Improv_Metronome,129,1,38,60,2511652200
70,23,13,Improv_Metronome,130,1,38,55,2511905764
70,23,13,Improv_Metronome,131,1,38,29,2511974784
70,23,13,Improv_Metronome,132,5,42,127,2511994412
70,23,13,Improv_Metronome,133,1,38,67,2512144448
70,23,13,Improv_Metronome,134,1,38,67,2512382456
70,23,13,Improv_Metronome,135,5,42,127,2512494148
70,23,13,Improv_Metronome,136,1,38,52,2512507660
70,23,13,Improv_Metronome,137,1,38,56,2512760256
70,23,13,Improv_Metronome,138,1,38,47,2512877240
70,23,13,Improv_Metronome,139,5,42,127,2512993572
70,23,13,Improv_Metronome,140,1,38,88,2513120360
70,23,13,Improv_Metronome,141,1,38,62,2513375500
70,23,13,Improv_Metronome,142,5,42,127,2513494520
70,23,13,Improv_Metronome,143,1,38,58,2513613076
70,23,13,Improv_Metronome,144,1,38,56,2513847168
70,23,13,Improv_Metronome,145,1,38,35,2513907312
70,23,13,Improv_Metronome,146,5,42,127,2513994260
70,23,13,Improv_Metronome,147,1,38,83,2514115648
70,23,13,Improv_Metronome,148,1,38,66,2514372204
70,23,13,Improv_Metronome,149,1,38,58,2514490812
70,23,13,Improv_Metronome,150,5,42,127,2514493912
70,23,13,Improv_Metronome,151,1,38,48,2514739240
70,23,13,Improv_Metronome,152,1,38,48,2514851708
70,23,13,Improv_Metronome,153,5,42,127,2514993420
70,23,13,Improv_Metronome,154,1,38,83,2515104024
70,23,13,Improv_Metronome,155,1,38,74,2515361328
70,23,13,Improv_Metronome,156,5,42,127,2515494212
70,23,13,Improv_Metronome,157,1,38,60,2515590080
70,23,13,Improv_Metronome,158,1,38,62,2515830408
70,23,13,Improv_Metronome,159,1,38,38,2515883344
70,23,13,Improv_Metronome,160,5,42,127,2515994236
70,23,13,Improv_Metronome,161,1,38,75,2516098484
70,23,13,Improv_Metronome,162,1,38,71,2516351228
70,23,13,Improv_Metronome,163,1,38,63,2516472180
70,23,13,Improv_Metronome,164,5,42,127,2516493532
70,23,13,Improv_Metronome,165,1,38,57,2516708332
70,23,13,Improv_Metronome,166,1,38,51,2516828960
70,23,13,Improv_Metronome,167,5,42,127,2516994384
70,23,13,Improv_Metronome,168,1,38,94,2517101168
70,23,13,Improv_Metronome,169,1,38,67,2517332672
70,23,13,Improv_Metronome,170,5,42,127,2517494204
70,23,13,Improv_Metronome,171,1,38,74,2517602340
70,23,13,Improv_Metronome,172,1,38,62,2517846780
70,23,13,Improv_Metronome,173,1,38,35,2517908844
70,23,13,Improv_Metronome,174,5,42,127,2517993796
70,23,13,Improv_Metronome,175,1,38,88,2518094284
70,23,13,Improv_Metronome,176,1,38,70,2518339924
70,23,13,Improv_Metronome,177,1,38,49,2518459728
70,23,13,Improv_Metronome,178,5,42,127,2518493668
70,23,13,Improv_Metronome,179,1,38,47,2518695364
70,23,13,Improv_Metronome,180,1,38,46,2518811752
70,23,13,Improv_Metronome,181,5,42,127,2518994372
70,23,13,Improv_Metronome,182,1,38,79,2519070716
70,23,13,Improv_Metronome,183,1,38,65,2519309252
70,23,13,Improv_Metronome,184,5,42,127,2519494268
70,23,13,Improv_Metronome,185,1,38,68,2519549524
70,23,13,Improv_Metronome,186,1,38,68,2519783792
70,23,13,Improv_Metronome,187,1,38,44,2519826256
70,23,13,Improv_Metronome,188,5,42,127,2519993600
70,23,13,Improv_Metronome,189,1,38,76,2520022176
70,23,13,Improv_Metronome,190,1,38,72,2520254996
70,23,13,Improv_Metronome,191,1,38,68,2520385296
70,23,13,Improv_Metronome,192,1,38,42,2520418412
70,23,13,Improv_Metronome,193,5,42,127,2520493468
70,23,13,Improv_Metronome,194,1,38,64,2520642076
70,23,13,Improv_Metronome,195,1,38,55,2520757320
70,23,13,Improv_Metronome,196,5,42,127,2520994244
70,23,13,Improv_Metronome,197,1,38,83,2521010456
70,23,13,Improv_Metronome,198,1,38,65,2521257364
70,23,13,Improv_Metronome,199,5,42,127,2521494068
70,23,13,Improv_Metronome,200,1,38,62,2521507728
70,23,13,Improv_Metronome,201,1,38,72,2521756584
70,23,13,Improv_Metronome,202,1,38,47,2521810888
70,23,13,Improv_Metronome,203,1,38,84,2521985080
70,23,13,Improv_Metronome,204,5,42,127,2521993636
70,23,13,Improv_Metronome,205,1,38,73,2522227664
70,23,13,Improv_Metronome,206,1,38,65,2522359464
70,23,13,Improv_Metronome,207,1,38,34,2522406564
70,23,13,Improv_Metronome,208,5,42,127,2522494484
70,23,13,Improv_Metronome,209,1,38,54,2522598668
70,23,13,Improv_Metronome,210,1,38,54,2522722512
70,23,13,Improv_Metronome,211,1,38,88,2522954384
70,23,13,Improv_Metronome,212,5,42,127,2522994136
70,23,13,Improv_Metronome,213,1,38,62,2523202812
70,23,13,Improv_Metronome,214,1,38,71,2523466620
70,23,13,Improv_Metronome,215,5,42,127,2523493884
70,23,13,Improv_Metronome,216,1,38,63,2523690440
70,23,13,Improv_Metronome,217,1,38,41,2523739784
70,23,13,Improv_Metronome,218,1,38,74,2523937700
70,23,13,Improv_Metronome,219,5,42,127,2523993464
70,23,13,Improv_Metronome,220,1,38,79,2524183588
70,23,13,Improv_Metronome,221,1,38,68,2524320220
70,23,13,Improv_Metronome,222,5,42,127,2524494092
70,23,13,Improv_Metronome,223,1,38,58,2524585248
70,23,13,Improv_Metronome,224,1,38,40,2524693108
70,23,13,Improv_Metronome,225,1,38,66,2524889384
70,23,13,Improv_Metronome,226,5,42,127,2524993892
70,23,13,Improv_Metronome,227,1,38,73,2525171840
70,23,13,Improv_Metronome,228,1,38,52,2525205176
70,23,13,Improv_Metronome,229,5,42,127,2525493564
70,23,13,Improv_Metronome,230,1,38,73,2525713772
70,23,13,Improv_Metronome,231,1,38,46,2525752940
70,23,13,Improv_Metronome,232,1,38,65,2525967692
70,23,13,Improv_Metronome,233,5,42,127,2525994352
70,23,13,Improv_Metronome,234,1,38,59,2526219180
70,23,13,Improv_Metronome,235,1,38,35,2526315724
70,23,13,Improv_Metronome,236,5,42,127,2526494008
70,23,13,Improv_Metronome,237,1,38,60,2526631536
70,23,13,Improv_Metronome,238,1,38,32,2526725112
70,23,13,Improv_Metronome,239,1,38,81,2526955492
70,23,13,Improv_Metronome,240,5,42,127,2526993900
70,23,13,Improv_Metronome,241,1,38,65,2527211100
70,23,13,Improv_Metronome,242,1,38,60,2527459880
70,23,13,Improv_Metronome,243,5,42,127,2527493424
70,23,13,Improv_Metronome,244,1,38,65,2527698956
70,23,13,Improv_Metronome,245,1,38,35,2527740892
70,23,13,Improv_Metronome,246,1,38,81,2527942928
70,23,13,Improv_Metronome,247,1,38,49,2527973644
70,23,13,Improv_Metronome,248,5,42,127,2527994100
70,23,13,Improv_Metronome,249,1,38,62,2528183896
70,23,13,Improv_Metronome,250,1,38,44,2528287640
70,23,13,Improv_Metronome,251,5,42,127,2528493832
70,23,13,Improv_Metronome,252,1,38,59,2528566060
70,23,13,Improv_Metronome,253,1,38,51,2528677412
70,23,13,Improv_Metronome,254,1,38,73,2528882212
70,23,13,Improv_Metronome,255,5,42,127,2528993780
70,23,13,Improv_Metronome,256,1,48,84,2529130936
70,23,13,Improv_Metronome,257,1,48,72,2529380088
70,23,13,Improv_Metronome,258,5,42,127,2529494424
70,23,13,Improv_Metronome,259,1,48,79,2529622604
70,23,13,Improv_Metronome,260,1,48,65,2529860988
70,23,13,Improv_Metronome,261,5,42,127,2529994320
70,23,13,Improv_Metronome,262,1,48,62,2530114948
70,23,13,Improv_Metronome,263,1,48,51,2530208800
70,23,13,Improv_Metronome,264,1,48,61,2530487192
70,23,13,Improv_Metronome,265,5,42,127,2530493812
70,23,13,Improv_Metronome,266,1,48,23,2530567924
70,23,13,Improv_Metronome,267,1,48,58,2530829944
70,23,13,Improv_Metronome,268,5,42,127,2530993544
70,23,13,Improv_Metronome,269,1,48,81,2531098188
70,23,13,Improv_Metronome,270,1,48,81,2531354296
70,23,13,Improv_Metronome,271,5,42,127,2531494264
70,23,13,Improv_Metronome,272,1,48,70,2531593300
70,23,13,Improv_Metronome,273,1,48,58,2531835348
70,23,13,Improv_Metronome,274,5,42,127,2531994008
70,23,13,Improv_Metronome,275,1,48,62,2532089604
70,23,13,Improv_Metronome,276,1,48,66,2532196620
70,23,13,Improv_Metronome,277,1,48,30,2532252392
70,23,13,Improv_Metronome,278,1,48,68,2532458464
70,23,13,Improv_Metronome,279,5,42,127,2532493804
70,23,13,Improv_Metronome,280,1,48,51,2532549364
70,23,13,Improv_Metronome,281,1,48,56,2532816248
70,23,13,Improv_Metronome,282,5,42,127,2532994432
70,23,13,Improv_Metronome,283,1,48,67,2533061828
70,23,13,Improv_Metronome,284,1,48,62,2533299216
70,23,13,Improv_Metronome,285,5,42,127,2533494032
70,23,13,Improv_Metronome,286,1,48,60,2533531552
70,23,13,Improv_Metronome,287,1,48,37,2533574796
70,23,13,Improv_Metronome,288,1,48,51,2533762588
70,23,13,Improv_Metronome,289,5,42,127,2533993904
70,23,13,Improv_Metronome,290,1,48,67,2534036668
70,23,13,Improv_Metronome,291,1,48,53,2534155148
70,23,13,Improv_Metronome,292,1,48,76,2534403480
70,23,13,Improv_Metronome,293,5,42,127,2534493644
70,23,13,Improv_Metronome,294,1,48,54,2534531604
70,23,13,Improv_Metronome,295,1,48,54,2534797888
70,23,13,Improv_Metronome,296,5,42,127,2534994348
70,23,13,Improv_Metronome,297,1,48,74,2535055284
70,23,13,Improv_Metronome,298,1,48,87,2535285144
70,23,13,Improv_Metronome,299,5,42,127,2535494096
70,23,13,Improv_Metronome,300,1,48,75,2535533192
70,23,13,Improv_Metronome,301,1,48,46,2535573260
70,23,13,Improv_Metronome,302,1,48,46,2535775068
70,23,13,Improv_Metronome,303,5,42,127,2535993672
70,23,13,Improv_Metronome,304,1,48,62,2536034564
70,23,13,Improv_Metronome,305,1,48,57,2536150652
70,23,13,Improv_Metronome,306,1,48,69,2536394420
70,23,13,Improv_Metronome,307,5,42,127,2536493472
70,23,13,Improv_Metronome,308,1,48,43,2536499880
70,23,13,Improv_Metronome,309,1,48,60,2536758012
70,23,13,Improv_Metronome,310,5,42,127,2536994116
70,23,13,Improv_Metronome,311,1,48,60,2537039868
70,23,13,Improv_Metronome,312,1,48,31,2537100208
70,23,13,Improv_Metronome,313,5,42,127,2537493792
70,23,13,Improv_Metronome,314,1,48,67,2537517776
70,23,13,Improv_Metronome,315,1,48,39,2537557400
70,23,13,Improv_Metronome,316,1,48,55,2537733476
70,23,13,Improv_Metronome,317,5,42,127,2537993664
70,23,13,Improv_Metronome,318,1,48,67,2538002772
70,23,13,Improv_Metronome,319,1,48,37,2538048076
70,23,13,Improv_Metronome,320,5,42,127,2538494312
70,23,13,Improv_Metronome,321,1,48,51,2538495276
70,23,13,Improv_Metronome,322,1,48,62,2538725340
70,23,13,Improv_Metronome,323,5,42,127,2538993984
70,23,13,Improv_Metronome,324,1,48,70,2539014828
70,23,13,Improv_Metronome,325,1,48,32,2539077712
70,23,13,Improv_Metronome,326,1,48,64,2539481200
70,23,13,Improv_Metronome,327,5,42,127,2539493796
70,23,13,Improv_Metronome,328,1,48,35,2539532508
70,23,13,Improv_Metronome,329,1,48,67,2539737160
70,23,13,Improv_Metronome,330,1,48,86,2539988256
70,23,13,Improv_Metronome,331,5,42,127,2539993524
70,23,13,Improv_Metronome,332,1,48,44,2540038964
70,23,13,Improv_Metronome,333,1,48,68,2540456636
70,23,13,Improv_Metronome,334,5,42,127,2540494168
70,23,13,Improv_Metronome,335,1,48,40,2540511856
70,23,13,Improv_Metronome,336,1,48,60,2540711692
70,23,13,Improv_Metronome,337,1,48,78,2540984260
70,23,13,Improv_Metronome,338,5,42,127,2540994044
70,23,13,Improv_Metronome,339,1,48,44,2541030584
70,23,13,Improv_Metronome,340,1,48,76,2541465532
70,23,13,Improv_Metronome,341,5,42,127,2541493692
70,23,13,Improv_Metronome,342,1,48,46,2541518140
70,23,13,Improv_Metronome,343,1,48,65,2541716704
70,23,13,Improv_Metronome,344,1,48,72,2541981716
70,23,13,Improv_Metronome,345,5,42,127,2541994240
70,23,13,Improv_Metronome,346,1,48,46,2542024592
70,23,13,Improv_Metronome,347,1,48,65,2542480188
70,23,13,Improv_Metronome,348,5,42,127,2542493988
70,23,13,Improv_Metronome,349,1,48,47,2542530628
70,23,13,Improv_Metronome,350,1,48,66,2542716476
70,23,13,Improv_Metronome,351,1,48,64,2542984852
70,23,13,Improv_Metronome,352,5,42,127,2542993860
70,23,13,Improv_Metronome,353,1,48,43,2543024492
70,23,13,Improv_Metronome,354,5,42,127,2543493540
70,23,13,Improv_Metronome,355,1,48,65,2543496508
70,23,13,Improv_Metronome,356,1,48,38,2543540320
70,23,13,Improv_Metronome,357,1,48,69,2543747060
70,23,13,Improv_Metronome,358,5,42,127,2543994088
70,23,13,Improv_Metronome,359,1,48,82,2544013812
70,23,13,Improv_Metronome,360,1,48,43,2544065496
70,23,13,Improv_Metronome,361,5,42,127,2544493908
70,23,13,Improv_Metronome,362,1,48,58,2544510044
70,23,13,Improv_Metronome,363,1,48,36,2544566792
70,23,13,Improv_Metronome,364,1,48,63,2544738532
70,23,13,Improv_Metronome,365,1,48,64,2544987084
70,23,13,Improv_Metronome,366,5,42,127,2544993628
70,23,13,Improv_Metronome,367,1,48,39,2545034580
70,23,13,Improv_Metronome,368,5,42,127,2545494576
70,23,13,Improv_Metronome,369,1,48,64,2545502412
70,23,13,Improv_Metronome,370,1,48,37,2545551604
70,23,13,Improv_Metronome,371,1,48,67,2545736280
70,23,13,Improv_Metronome,372,5,42,127,2545994080
70,23,13,Improv_Metronome,373,1,48,70,2546006620
70,23,13,Improv_Metronome,374,1,48,45,2546054020
70,23,13,Improv_Metronome,375,1,48,63,2546486456
70,23,13,Improv_Metronome,376,5,42,127,2546493668
70,23,13,Improv_Metronome,377,1,48,35,2546542848
70,23,13,Improv_Metronome,378,1,48,69,2546735308
70,23,13,Improv_Metronome,379,5,42,127,2546993624
70,23,13,Improv_Metronome,380,1,48,64,2546998540
70,23,13,Improv_Metronome,381,1,48,37,2547044820
70,23,13,Improv_Metronome,382,1,48,63,2547485404
70,23,13,Improv_Metronome,383,5,42,127,2547494336
70,23,13,Improv_Metronome,384,1,48,30,2547546956
70,23,13,Improv_Metronome,385,1,48,71,2547760660
70,23,13,Improv_Metronome,386,5,42,127,2547993924
70,23,13,Improv_Metronome,387,1,48,91,2548025092
70,23,13,Improv_Metronome,388,1,48,43,2548084012
70,23,13,Improv_Metronome,389,1,48,55,2548488472
70,23,13,Improv_Metronome,390,5,42,127,2548493812
70,23,13,Improv_Metronome,391,1,48,65,2548740412
70,23,13,Improv_Metronome,392,5,42,127,2548994616
70,23,13,Improv_Metronome,393,1,48,83,2549001476
70,23,13,Improv_Metronome,394,1,48,41,2549052312
70,23,13,Improv_Metronome,395,5,42,127,2549494064
70,23,13,Improv_Metronome,396,1,48,64,2549501972
70,23,13,Improv_Metronome,397,1,48,65,2549755760
70,23,13,Improv_Metronome,398,5,42,127,2549993888
70,23,13,Improv_Metronome,399,1,48,90,2550023032
70,23,13,Improv_Metronome,400,1,48,42,2550083824
70,23,13,Improv_Metronome,401,1,48,57,2550482300
70,23,13,Improv_Metronome,402,5,42,127,2550493628
70,23,13,Improv_Metronome,403,1,48,31,2550536000
70,23,13,Improv_Metronome,404,1,48,67,2550730700
70,23,13,Improv_Metronome,405,5,42,127,2550994480
70,23,13,Improv_Metronome,406,1,48,75,2551007700
70,23,13,Improv_Metronome,407,1,48,39,2551064296
70,23,13,Improv_Metronome,408,5,42,127,2551493856
70,23,13,Improv_Metronome,409,1,48,59,2551506400
70,23,13,Improv_Metronome,410,1,48,35,2551563072
70,23,13,Improv_Metronome,411,1,48,62,2551723420
70,23,13,Improv_Metronome,412,1,48,81,2551991268
70,23,13,Improv_Metronome,413,5,42,127,2551993700
70,23,13,Improv_Metronome,414,1,48,42,2552050456
70,23,13,Improv_Metronome,415,1,48,29,2552091728
70,23,13,Improv_Metronome,416,1,48,57,2552489652
70,23,13,Improv_Metronome,417,5,42,127,2552493648
70,23,13,Improv_Metronome,418,1,48,33,2552539712
70,23,13,Improv_Metronome,419,1,48,68,2552738576
70,23,13,Improv_Metronome,420,5,42,127,2552994276
70,23,13,Improv_Metronome,421,1,48,72,2552996144
70,23,13,Improv_Metronome,422,1,48,36,2553053796
70,23,13,Improv_Metronome,423,1,48,60,2553493124
70,23,13,Improv_Metronome,424,5,42,127,2553494696
70,23,13,Improv_Metronome,425,1,48,63,2553730668
70,23,13,Improv_Metronome,426,1,48,73,2553990372
70,23,13,Improv_Metronome,427,5,42,127,2553993620
70,23,13,Improv_Metronome,428,1,48,35,2554039584
70,23,13,Improv_Metronome,429,1,48,58,2554475452
70,23,13,Improv_Metronome,430,5,42,127,2554494412
70,23,13,Improv_Metronome,431,1,48,31,2554534764
70,23,13,Improv_Metronome,432,1,48,62,2554723184
70,23,13,Improv_Metronome,433,5,42,127,2554993996
70,23,13,Improv_Metronome,434,1,48,81,2555007436
70,23,13,Improv_Metronome,435,1,48,41,2555060068
70,23,13,Improv_Metronome,436,1,48,59,2555486448
70,23,13,Improv_Metronome,437,5,42,127,2555493660
70,23,13,Improv_Metronome,438,1,48,28,2555547552
70,23,13,Improv_Metronome,439,1,48,74,2555724600
70,23,13,Improv_Metronome,440,1,48,43,2555758164
70,23,13,Improv_Metronome,441,1,48,75,2555986976
70,23,13,Improv_Metronome,442,5,42,127,2555993516
70,23,13,Improv_Metronome,443,1,48,53,2556089068
70,23,13,Improv_Metronome,444,1,48,49,2556449620
70,23,13,Improv_Metronome,445,5,42,127,2556494312
70,23,13,Improv_Metronome,446,1,48,65,2556702236
70,23,13,Improv_Metronome,447,1,48,81,2556967396
70,23,13,Improv_Metronome,448,5,42,127,2556993836
70,23,13,Improv_Metronome,449,1,48,41,2557041672
70,23,13,Improv_Metronome,450,1,48,47,2557476124
70,23,13,Improv_Metronome,451,5,42,127,2557493584
70,23,13,Improv_Metronome,452,1,48,65,2557717516
70,23,13,Improv_Metronome,453,1,48,83,2557970488
70,23,13,Improv_Metronome,454,5,42,127,2557994452
70,23,13,Improv_Metronome,455,1,48,51,2558011400
70,23,13,Improv_Metronome,456,1,48,48,2558469784
70,23,13,Improv_Metronome,457,5,42,127,2558493976
70,23,13,Improv_Metronome,458,1,48,58,2558721352
70,23,13,Improv_Metronome,459,1,48,74,2558977984
70,23,13,Improv_Metronome,460,5,42,127,2558993652
70,23,13,Improv_Metronome,461,1,48,42,2559025028
70,23,13,Improv_Metronome,462,1,48,59,2559463144
70,23,13,Improv_Metronome,463,5,42,127,2559493548
70,23,13,Improv_Metronome,464,1,48,28,2559516776
70,23,13,Improv_Metronome,465,1,48,63,2559710576
70,23,13,Improv_Metronome,466,1,48,89,2559968856
70,23,13,Improv_Metronome,467,5,42,127,2559994244
70,23,13,Improv_Metronome,468,1,48,55,2560077308
70,23,13,Improv_Metronome,469,1,48,36,2560450580
70,23,13,Improv_Metronome,470,5,42,127,2560493844
70,23,13,Improv_Metronome,471,1,48,63,2560688432
70,23,13,Improv_Metronome,472,1,48,86,2560951268
70,23,13,Improv_Metronome,473,5,42,127,2560993592
70,23,13,Improv_Metronome,474,1,48,43,2561000884
70,23,13,Improv_Metronome,475,1,48,41,2561471312
70,23,13,Improv_Metronome,476,5,42,127,2561494388
70,23,13,Improv_Metronome,477,1,48,61,2561729388
70,23,13,Improv_Metronome,478,1,48,88,2561974780
70,23,13,Improv_Metronome,479,5,42,127,2561994284
70,23,13,Improv_Metronome,480,1,48,39,2562025588
70,23,13,Improv_Metronome,481,1,48,60,2562443184
70,23,13,Improv_Metronome,482,5,42,127,2562493856
70,23,13,Improv_Metronome,483,1,48,69,2562714948
70,23,13,Improv_Metronome,484,1,48,76,2562979888
70,23,13,Improv_Metronome,485,5,42,127,2562993456
70,23,13,Improv_Metronome,486,1,48,42,2563024780
70,23,13,Improv_Metronome,487,1,48,60,2563480528
70,23,13,Improv_Metronome,0,9999,9999,9999,2493491264
70,23,13,Improv_Metronome,1,9999,9999,9999,2493992028
70,23,13,Improv_Metronome,2,9999,9999,9999,2494491740
70,23,13,Improv_Metronome,3,9999,9999,9999,2494991460
70,23,13,Improv_Metronome,4,9999,9999,9999,2495491140
70,23,13,Improv_Metronome,5,9999,9999,9999,2495991860
70,23,13,Improv_Metronome,6,9999,9999,9999,2496491584
70,23,13,Improv_Metronome,7,9999,9999,9999,2496991304
70,23,13,Improv_Metronome,8,9999,9999,9999,2497492032
70,23,13,Improv_Metronome,9,9999,9999,9999,2497991780
70,23,13,Improv_Metronome,10,9999,9999,9999,2498491472
70,23,13,Improv_Metronome,11,9999,9999,9999,2498991200
70,23,13,Improv_Metronome,12,9999,9999,9999,2499491952
70,23,13,Improv_Metronome,13,9999,9999,9999,2499991624
70,23,13,Improv_Metronome,14,9999,9999,9999,2500491348
70,23,13,Improv_Metronome,15,9999,9999,9999,2500992048
70,23,13,Improv_Metronome,16,9999,9999,9999,2501491772
70,23,13,Improv_Metronome,17,9999,9999,9999,2501991520
70,23,13,Improv_Metronome,18,9999,9999,9999,2502491244
70,23,13,Improv_Metronome,19,9999,9999,9999,2502991944
70,23,13,Improv_Metronome,20,9999,9999,9999,2503491692
70,23,13,Improv_Metronome,21,9999,9999,9999,2503991368
70,23,13,Improv_Metronome,22,9999,9999,9999,2504491096
70,23,13,Improv_Metronome,23,9999,9999,9999,2504991864
70,23,13,Improv_Metronome,24,9999,9999,9999,2505491536
70,23,13,Improv_Metronome,25,9999,9999,9999,2505991228
70,23,13,Improv_Metronome,26,9999,9999,9999,2506491984
70,23,13,Improv_Metronome,27,9999,9999,9999,2506991712
70,23,13,Improv_Metronome,28,9999,9999,9999,2507491384
70,23,13,Improv_Metronome,29,9999,9999,9999,2507991108
70,23,13,Improv_Metronome,30,9999,9999,9999,2508491828
70,23,13,Improv_Metronome,31,9999,9999,9999,2508991568
70,23,13,Improv_Metronome,32,9999,9999,9999,2509491316
70,23,13,Improv_Metronome,33,9999,9999,9999,2509992028
70,23,13,Improv_Metronome,34,9999,9999,9999,2510491736
70,23,13,Improv_Metronome,35,9999,9999,9999,2510991464
70,23,13,Improv_Metronome,36,9999,9999,9999,2511491188
70,23,13,Improv_Metronome,37,9999,9999,9999,2511991904
70,23,13,Improv_Metronome,38,9999,9999,9999,2512491636
70,23,13,Improv_Metronome,39,9999,9999,9999,2512991284
70,23,13,Improv_Metronome,40,9999,9999,9999,2513492084
70,23,13,Improv_Metronome,41,9999,9999,9999,2513991748
70,23,13,Improv_Metronome,42,9999,9999,9999,2514491476
70,23,13,Improv_Metronome,43,9999,9999,9999,2514991208
70,23,13,Improv_Metronome,44,9999,9999,9999,2515491924
70,23,13,Improv_Metronome,45,9999,9999,9999,2515991652
70,23,13,Improv_Metronome,46,9999,9999,9999,2516491316
70,23,13,Improv_Metronome,47,9999,9999,9999,2516992096
70,23,13,Improv_Metronome,48,9999,9999,9999,2517491768
70,23,13,Improv_Metronome,49,9999,9999,9999,2517991508
70,23,13,Improv_Metronome,50,9999,9999,9999,2518491232
70,23,13,Improv_Metronome,51,9999,9999,9999,2518991936
70,23,13,Improv_Metronome,52,9999,9999,9999,2519491684
70,23,13,Improv_Metronome,53,9999,9999,9999,2519991384
70,23,13,Improv_Metronome,54,9999,9999,9999,2520491104
70,23,13,Improv_Metronome,55,9999,9999,9999,2520991808
70,23,13,Improv_Metronome,56,9999,9999,9999,2521491556
70,23,13,Improv_Metronome,57,9999,9999,9999,2521991276
70,23,13,Improv_Metronome,58,9999,9999,9999,2522491972
70,23,13,Improv_Metronome,59,9999,9999,9999,2522991700
70,23,13,Improv_Metronome,60,9999,9999,9999,2523491448
70,23,13,Improv_Metronome,61,9999,9999,9999,2523991100
70,23,13,Improv_Metronome,62,9999,9999,9999,2524491880
70,23,13,Improv_Metronome,63,9999,9999,9999,2524991604
70,23,13,Improv_Metronome,64,9999,9999,9999,2525491276
70,23,13,Improv_Metronome,65,9999,9999,9999,2525991988
70,23,13,Improv_Metronome,66,9999,9999,9999,2526491720
70,23,13,Improv_Metronome,67,9999,9999,9999,2526991464
70,23,13,Improv_Metronome,68,9999,9999,9999,2527491136
70,23,13,Improv_Metronome,69,9999,9999,9999,2527991884
70,23,13,Improv_Metronome,70,9999,9999,9999,2528491616
70,23,13,Improv_Metronome,71,9999,9999,9999,2528991340
70,23,13,Improv_Metronome,72,9999,9999,9999,2529492060
70,23,13,Improv_Metronome,73,9999,9999,9999,2529991736
70,23,13,Improv_Metronome,74,9999,9999,9999,2530491448
70,23,13,Improv_Metronome,75,9999,9999,9999,2530991180
70,23,13,Improv_Metronome,76,9999,9999,9999,2531491900
70,23,13,Improv_Metronome,77,9999,9999,9999,2531991648
70,23,13,Improv_Metronome,78,9999,9999,9999,2532491368
70,23,13,Improv_Metronome,79,9999,9999,9999,2532992072
70,23,13,Improv_Metronome,80,9999,9999,9999,2533491816
70,23,13,Improv_Metronome,81,9999,9999,9999,2533991544
70,23,13,Improv_Metronome,82,9999,9999,9999,2534491208
70,23,13,Improv_Metronome,83,9999,9999,9999,2534991988
70,23,13,Improv_Metronome,84,9999,9999,9999,2535491656
70,23,13,Improv_Metronome,85,9999,9999,9999,2535991384
70,23,13,Improv_Metronome,86,9999,9999,9999,2536491108
70,23,13,Improv_Metronome,87,9999,9999,9999,2536991828
70,23,13,Improv_Metronome,88,9999,9999,9999,2537491576
70,23,13,Improv_Metronome,89,9999,9999,9999,2537991228
70,23,13,Improv_Metronome,90,9999,9999,9999,2538492024
70,23,13,Improv_Metronome,91,9999,9999,9999,2538991696
70,23,13,Improv_Metronome,92,9999,9999,9999,2539491436
70,23,13,Improv_Metronome,93,9999,9999,9999,2539991088
70,23,13,Improv_Metronome,94,9999,9999,9999,2540491884
70,23,13,Improv_Metronome,95,9999,9999,9999,2540991608
70,23,13,Improv_Metronome,96,9999,9999,9999,2541491256
70,23,13,Improv_Metronome,97,9999,9999,9999,2541992028
70,23,13,Improv_Metronome,98,9999,9999,9999,2542491700
70,23,13,Improv_Metronome,99,9999,9999,9999,2542991424
70,23,13,Improv_Metronome,100,9999,9999,9999,2543491176
70,23,13,Improv_Metronome,101,9999,9999,9999,2543991876
70,23,13,Improv_Metronome,102,9999,9999,9999,2544491620
70,23,13,Improv_Metronome,103,9999,9999,9999,2544991340
70,23,13,Improv_Metronome,104,9999,9999,9999,2545492064
70,23,13,Improv_Metronome,105,9999,9999,9999,2545991792
70,23,13,Improv_Metronome,106,9999,9999,9999,2546491456
70,23,13,Improv_Metronome,107,9999,9999,9999,2546991188
70,23,13,Improv_Metronome,108,9999,9999,9999,2547491900
70,23,13,Improv_Metronome,109,9999,9999,9999,2547991636
70,23,13,Improv_Metronome,110,9999,9999,9999,2548491376
70,23,13,Improv_Metronome,111,9999,9999,9999,2548992104
70,23,13,Improv_Metronome,112,9999,9999,9999,2549491776
70,23,13,Improv_Metronome,113,9999,9999,9999,2549991524
70,23,13,Improv_Metronome,114,9999,9999,9999,2550491192
70,23,13,Improv_Metronome,115,9999,9999,9999,2550991972
70,23,13,Improv_Metronome,116,9999,9999,9999,2551491644
70,23,13,Improv_Metronome,117,9999,9999,9999,2551991412
70,23,13,Improv_Metronome,118,9999,9999,9999,2552491064
70,23,13,Improv_Metronome,119,9999,9999,9999,2552991840
70,23,13,Improv_Metronome,120,9999,9999,9999,2553491516
70,23,13,Improv_Metronome,121,9999,9999,9999,2553991256
70,23,13,Improv_Metronome,122,9999,9999,9999,2554491976
70,23,13,Improv_Metronome,123,9999,9999,9999,2554991708
70,23,13,Improv_Metronome,124,9999,9999,9999,2555491448
70,23,13,Improv_Metronome,125,9999,9999,9999,2555991156
70,23,13,Improv_Metronome,126,9999,9999,9999,2556491872
70,23,13,Improv_Metronome,127,9999,9999,9999,2556991548
70,23,13,Improv_Metronome,128,9999,9999,9999,2557491296
70,23,13,Improv_Metronome,129,9999,9999,9999,2557992016
70,23,13,Improv_Metronome,130,9999,9999,9999,2558491764
70,23,13,Improv_Metronome,131,9999,9999,9999,2558991440
70,23,13,Improv_Metronome,132,9999,9999,9999,2559491184
70,23,13,Improv_Metronome,133,9999,9999,9999,2559991884
70,23,13,Improv_Metronome,134,9999,9999,9999,2560491632
70,23,13,Improv_Metronome,135,9999,9999,9999,2560991304
70,23,13,Improv_Metronome,136,9999,9999,9999,2561492024
70,23,13,Improv_Metronome,137,9999,9999,9999,2561991772
70,23,13,Improv_Metronome,138,9999,9999,9999,2562491496
70,23,13,Improv_Metronome,139,9999,9999,9999,2562991172
70,24,14,Improv_Melody,0,2,48,80,2642542056
70,24,14,Improv_Melody,1,2,72,80,2642544728
70,24,14,Improv_Melody,2,5,42,127,2642546140
70,24,14,Improv_Melody,3,5,42,110,2643038756
70,24,14,Improv_Melody,4,5,42,110,2643539228
70,24,14,Improv_Melody,5,5,42,110,2644038876
70,24,14,Improv_Melody,6,5,42,127,2644538596
70,24,14,Improv_Melody,7,5,42,110,2645038540
70,24,14,Improv_Melody,8,5,42,110,2645539160
70,24,14,Improv_Melody,9,5,42,110,2646038880
70,24,14,Improv_Melody,10,2,43,80,2646540956
70,24,14,Improv_Melody,11,2,67,80,2646543184
70,24,14,Improv_Melody,12,5,42,127,2646545724
70,24,14,Improv_Melody,13,5,42,110,2647039460
70,24,14,Improv_Melody,14,5,42,110,2647538960
70,24,14,Improv_Melody,15,5,42,110,2648038680
70,24,14,Improv_Melody,16,5,42,127,2648538552
70,24,14,Improv_Melody,17,5,42,110,2649039172
70,24,14,Improv_Melody,18,5,42,110,2649539040
70,24,14,Improv_Melody,19,5,42,110,2650038592
70,24,14,Improv_Melody,20,2,45,80,2650541784
70,24,14,Improv_Melody,21,2,69,80,2650544084
70,24,14,Improv_Melody,22,5,42,127,2650546552
70,24,14,Improv_Melody,23,5,42,110,2651039020
70,24,14,Improv_Melody,24,5,42,110,2651538668
70,24,14,Improv_Melody,25,5,42,110,2652038460
70,24,14,Improv_Melody,26,5,42,127,2652539380
70,24,14,Improv_Melody,27,5,42,110,2653038876
70,24,14,Improv_Melody,28,5,42,110,2653538600
70,24,14,Improv_Melody,29,5,42,110,2654039516
70,24,14,Improv_Melody,30,2,41,80,2654541588
70,24,14,Improv_Melody,31,2,65,80,2654543896
70,24,14,Improv_Melody,32,5,42,127,2654546432
70,24,14,Improv_Melody,33,5,42,110,2655038972
70,24,14,Improv_Melody,34,5,42,110,2655538620
70,24,14,Improv_Melody,35,5,42,110,2656039540
70,24,14,Improv_Melody,36,5,42,127,2656538964
70,24,14,Improv_Melody,37,5,42,110,2657038608
70,24,14,Improv_Melody,38,5,42,110,2657538404
70,24,14,Improv_Melody,39,5,42,110,2658039324
70,24,14,Improv_Melody,40,2,48,80,2658541400
70,24,14,Improv_Melody,41,2,72,80,2658543548
70,24,14,Improv_Melody,42,5,42,127,2658546164
70,24,14,Improv_Melody,43,5,42,110,2659038556
70,24,14,Improv_Melody,44,5,42,110,2659539400
70,24,14,Improv_Melody,45,1,48,37,2659572812
70,24,14,Improv_Melody,46,1,48,39,2659826976
70,24,14,Improv_Melody,47,5,42,110,2660039300
70,24,14,Improv_Melody,48,1,48,41,2660066356
70,24,14,Improv_Melody,49,5,42,127,2660538776
70,24,14,Improv_Melody,50,1,48,35,2660544136
70,24,14,Improv_Melody,51,5,42,110,2661038304
70,24,14,Improv_Melody,52,5,42,110,2661539444
70,24,14,Improv_Melody,53,1,48,35,2661583880
70,24,14,Improv_Melody,54,1,48,32,2661817772
70,24,14,Improv_Melody,55,5,42,110,2662038752
70,24,14,Improv_Melody,56,1,48,38,2662072308
70,24,14,Improv_Melody,57,2,43,80,2662541404
70,24,14,Improv_Melody,58,1,48,43,2662542372
70,24,14,Improv_Melody,59,2,67,80,2662544832
70,24,14,Improv_Melody,60,5,42,127,2662547364
70,24,14,Improv_Melody,61,5,42,110,2663039296
70,24,14,Improv_Melody,62,5,42,110,2663539244
70,24,14,Improv_Melody,63,1,48,28,2663584324
70,24,14,Improv_Melody,64,1,48,24,2663816648
70,24,14,Improv_Melody,65,5,42,110,2664038992
70,24,14,Improv_Melody,66,1,48,26,2664077496
70,24,14,Improv_Melody,67,1,48,40,2664536348
70,24,14,Improv_Melody,68,5,42,127,2664538392
70,24,14,Improv_Melody,69,5,42,110,2665039292
70,24,14,Improv_Melody,70,5,42,110,2665539088
70,24,14,Improv_Melody,71,1,48,45,2665585968
70,24,14,Improv_Melody,72,1,48,29,2665812824
70,24,14,Improv_Melody,73,5,42,110,2666038620
70,24,14,Improv_Melody,74,1,48,35,2666076668
70,24,14,Improv_Melody,75,1,48,29,2666534980
70,24,14,Improv_Melody,76,2,45,80,2666542240
70,24,14,Improv_Melody,77,2,69,80,2666544168
70,24,14,Improv_Melody,78,5,42,127,2666546848
70,24,14,Improv_Melody,79,5,42,110,2667039300
70,24,14,Improv_Melody,80,5,42,110,2667538800
70,24,14,Improv_Melody,81,1,48,31,2667556356
70,24,14,Improv_Melody,82,1,48,24,2667816800
70,24,14,Improv_Melody,83,5,42,110,2668038480
70,24,14,Improv_Melody,84,5,42,127,2668539172
70,24,14,Improv_Melody,85,1,48,47,2668563760
70,24,14,Improv_Melody,86,5,42,110,2669039096
70,24,14,Improv_Melody,87,5,42,110,2669538596
70,24,14,Improv_Melody,88,1,48,30,2669565720
70,24,14,Improv_Melody,89,1,48,29,2669831332
70,24,14,Improv_Melody,90,5,42,110,2670039468
70,24,14,Improv_Melody,91,1,48,33,2670066752
70,24,14,Improv_Melody,92,1,48,34,2670533816
70,24,14,Improv_Melody,93,2,41,80,2670541740
70,24,14,Improv_Melody,94,2,65,80,2670543896
70,24,14,Improv_Melody,95,5,42,127,2670546432
70,24,14,Improv_Melody,96,5,42,110,2671038884
70,24,14,Improv_Melody,97,1,48,19,2671500536
70,24,14,Improv_Melody,98,5,42,110,2671538648
70,24,14,Improv_Melody,99,1,48,26,2671773800
70,24,14,Improv_Melody,100,1,48,31,2672012180
70,24,14,Improv_Melody,101,5,42,110,2672039148
70,24,14,Improv_Melody,102,1,48,44,2672527368
70,24,14,Improv_Melody,103,5,42,127,2672539148
70,24,14,Improv_Melody,104,5,42,110,2673038556
70,24,14,Improv_Melody,105,5,42,110,2673538352
70,24,14,Improv_Melody,106,1,48,30,2673548200
70,24,14,Improv_Melody,107,1,48,29,2673784116
70,24,14,Improv_Melody,108,1,48,38,2674020328
70,24,14,Improv_Melody,109,5,42,110,2674039220
70,24,14,Improv_Melody,110,1,48,41,2674515996
70,24,14,Improv_Melody,111,2,48,80,2674541500
70,24,14,Improv_Melody,112,2,72,80,2674543656
70,24,14,Improv_Melody,113,5,42,127,2674546188
70,24,14,Improv_Melody,114,5,42,110,2675038640
70,24,14,Improv_Melody,115,5,42,110,2675539260
70,24,14,Improv_Melody,116,1,48,36,2675557864
70,24,14,Improv_Melody,117,1,48,28,2675792576
70,24,14,Improv_Melody,118,1,48,35,2676018248
70,24,14,Improv_Melody,119,5,42,110,2676039080
70,24,14,Improv_Melody,120,1,48,45,2676535452
70,24,14,Improv_Melody,121,5,42,127,2676538780
70,24,14,Improv_Melody,122,5,42,110,2677038416
70,24,14,Improv_Melody,123,5,42,110,2677539260
70,24,14,Improv_Melody,124,1,48,40,2677548956
70,24,14,Improv_Melody,125,1,48,35,2677797660
70,24,14,Improv_Melody,126,5,42,110,2678038788
70,24,14,Improv_Melody,127,1,48,45,2678055972
70,24,14,Improv_Melody,128,1,48,42,2678529984
70,24,14,Improv_Melody,129,2,43,80,2678541136
70,24,14,Improv_Melody,130,2,67,80,2678543512
70,24,14,Improv_Melody,131,5,42,127,2678546120
70,24,14,Improv_Melody,132,5,42,110,2679039324
70,24,14,Improv_Melody,133,5,42,110,2679539044
70,24,14,Improv_Melody,134,1,48,38,2679566920
70,24,14,Improv_Melody,135,1,48,31,2679805452
70,24,14,Improv_Melody,136,5,42,110,2680038872
70,24,14,Improv_Melody,137,1,48,35,2680069292
70,24,14,Improv_Melody,138,5,42,127,2680538720
70,24,14,Improv_Melody,139,1,48,47,2680556500
70,24,14,Improv_Melody,140,5,42,110,2681039172
70,24,14,Improv_Melody,141,5,42,110,2681538896
70,24,14,Improv_Melody,142,1,48,45,2681552484
70,24,14,Improv_Melody,143,1,48,28,2681796780
70,24,14,Improv_Melody,144,5,42,110,2682038844
70,24,14,Improv_Melody,145,1,48,40,2682060688
70,24,14,Improv_Melody,146,2,45,80,2682541948
70,24,14,Improv_Melody,147,2,69,80,2682543948
70,24,14,Improv_Melody,148,5,42,127,2682546636
70,24,14,Improv_Melody,149,1,48,45,2682550284
70,24,14,Improv_Melody,150,5,42,110,2683039232
70,24,14,Improv_Melody,151,5,42,110,2683538804
70,24,14,Improv_Melody,152,1,48,40,2683564364
70,24,14,Improv_Melody,153,1,48,28,2683783672
70,24,14,Improv_Melody,154,5,42,110,2684038632
70,24,14,Improv_Melody,155,1,48,44,2684058656
70,24,14,Improv_Melody,156,5,42,127,2684539156
70,24,14,Improv_Melody,157,1,48,53,2684571672
70,24,14,Improv_Melody,158,5,42,110,2685038852
70,24,14,Improv_Melody,159,5,42,110,2685538724
70,24,14,Improv_Melody,160,1,48,48,2685569668
70,24,14,Improv_Melody,161,1,48,36,2685825404
70,24,14,Improv_Melody,162,5,42,110,2686039300
70,24,14,Improv_Melody,163,1,48,34,2686064260
70,24,14,Improv_Melody,164,1,48,42,2686521600
70,24,14,Improv_Melody,165,2,41,80,2686541648
70,24,14,Improv_Melody,166,2,65,80,2686543648
70,24,14,Improv_Melody,167,5,42,127,2686546188
70,24,14,Improv_Melody,168,5,42,110,2687038788
70,24,14,Improv_Melody,169,5,42,110,2687538660
70,24,14,Improv_Melody,170,1,48,45,2687559280
70,24,14,Improv_Melody,171,1,48,35,2687823468
70,24,14,Improv_Melody,172,5,42,110,2688039384
70,24,14,Improv_Melody,173,1,48,40,2688058660
70,24,14,Improv_Melody,174,5,42,127,2688538864
70,24,14,Improv_Melody,175,1,48,49,2688545716
70,24,14,Improv_Melody,176,5,42,110,2689038784
70,24,14,Improv_Melody,177,5,42,110,2689538284
70,24,14,Improv_Melody,178,1,48,48,2689564892
70,24,14,Improv_Melody,179,1,48,38,2689796764
70,24,14,Improv_Melody,180,5,42,110,2690039160
70,24,14,Improv_Melody,181,1,48,46,2690047364
70,24,14,Improv_Melody,182,1,48,53,2690494980
70,24,14,Improv_Melody,183,2,48,80,2690541276
70,24,14,Improv_Melody,184,2,72,80,2690543432
70,24,14,Improv_Melody,185,5,42,127,2690546120
70,24,14,Improv_Melody,186,5,42,110,2691038720
70,24,14,Improv_Melody,187,5,42,110,2691539192
70,24,14,Improv_Melody,188,1,48,43,2691561980
70,24,14,Improv_Melody,189,1,48,33,2691808140
70,24,14,Improv_Melody,190,5,42,110,2692038944
70,24,14,Improv_Melody,191,1,48,38,2692057992
70,24,14,Improv_Melody,192,5,42,127,2692538644
70,24,14,Improv_Melody,193,1,48,44,2692576468
70,24,14,Improv_Melody,194,5,42,110,2693038540
70,24,14,Improv_Melody,195,5,42,110,2693539160
70,24,14,Improv_Melody,196,1,48,42,2693541980
70,24,14,Improv_Melody,197,1,48,33,2693793672
70,24,14,Improv_Melody,198,5,42,110,2694038984
70,24,14,Improv_Melody,199,1,48,33,2694046592
70,24,14,Improv_Melody,200,1,48,40,2694523752
70,24,14,Improv_Melody,201,2,43,80,2694540956
70,24,14,Improv_Melody,202,2,67,80,2694543332
70,24,14,Improv_Melody,203,5,42,127,2694545876
70,24,14,Improv_Melody,204,5,42,110,2695039372
70,24,14,Improv_Melody,205,5,42,110,2695539020
70,24,14,Improv_Melody,206,1,48,39,2695550144
70,24,14,Improv_Melody,207,1,48,28,2695798472
70,24,14,Improv_Melody,208,5,42,110,2696038700
70,24,14,Improv_Melody,209,1,48,32,2696049148
70,24,14,Improv_Melody,210,5,42,127,2696538696
70,24,14,Improv_Melody,211,1,48,51,2696546456
70,24,14,Improv_Melody,212,5,42,110,2697039144
70,24,14,Improv_Melody,213,5,42,110,2697538940
70,24,14,Improv_Melody,214,1,48,37,2697570560
70,24,14,Improv_Melody,215,1,48,32,2697824200
70,24,14,Improv_Melody,216,5,42,110,2698038696
70,24,14,Improv_Melody,217,1,48,34,2698067844
70,24,14,Improv_Melody,218,1,48,43,2698525112
70,24,14,Improv_Melody,219,2,45,80,2698541860
70,24,14,Improv_Melody,220,2,69,80,2698544092
70,24,14,Improv_Melody,221,5,42,127,2698546632
70,24,14,Improv_Melody,222,5,42,110,2699039084
70,24,14,Improv_Melody,223,5,42,110,2699538728
70,24,14,Improv_Melody,224,1,48,42,2699574684
70,24,14,Improv_Melody,225,1,48,29,2699812468
70,24,14,Improv_Melody,226,5,42,110,2700038480
70,24,14,Improv_Melody,227,1,48,40,2700065236
70,24,14,Improv_Melody,228,5,42,127,2700539304
70,24,14,Improv_Melody,229,1,48,53,2700574884
70,24,14,Improv_Melody,230,5,42,110,2701039076
70,24,14,Improv_Melody,231,5,42,110,2701538648
70,24,14,Improv_Melody,232,1,48,36,2701550144
70,24,14,Improv_Melody,233,1,48,29,2701810968
70,24,14,Improv_Melody,234,5,42,110,2702039376
70,24,14,Improv_Melody,235,1,48,36,2702041892
70,24,14,Improv_Melody,236,1,48,40,2702529080
70,24,14,Improv_Melody,237,2,41,80,2702541568
70,24,14,Improv_Melody,238,2,65,80,2702543796
70,24,14,Improv_Melody,239,5,42,127,2702546560
70,24,14,Improv_Melody,240,5,42,110,2703038792
70,24,14,Improv_Melody,241,5,42,110,2703538488
70,24,14,Improv_Melody,242,1,48,42,2703583444
70,24,14,Improv_Melody,243,1,48,27,2703806192
70,24,14,Improv_Melody,244,5,42,110,2704039360
70,24,14,Improv_Melody,245,1,48,37,2704045100
70,24,14,Improv_Melody,246,1,48,46,2704539284
70,24,14,Improv_Melody,247,5,42,127,2704540620
70,24,14,Improv_Melody,248,5,42,110,2705038688
70,24,14,Improv_Melody,249,5,42,110,2705538484
70,24,14,Improv_Melody,250,1,48,38,2705549008
70,24,14,Improv_Melody,251,1,48,35,2705796368
70,24,14,Improv_Melody,252,5,42,110,2706039132
70,24,14,Improv_Melody,253,1,48,35,2706052352
70,24,14,Improv_Melody,254,1,48,42,2706531976
70,24,14,Improv_Melody,255,2,48,80,2706541480
70,24,14,Improv_Melody,256,2,72,80,2706543552
70,24,14,Improv_Melody,257,5,42,127,2706546240
70,24,14,Improv_Melody,258,5,42,110,2707038544
70,24,14,Improv_Melody,259,5,42,110,2707539316
70,24,14,Improv_Melody,260,1,48,44,2707562400
70,24,14,Improv_Melody,261,1,48,30,2707802208
70,24,14,Improv_Melody,262,5,42,110,2708039064
70,24,14,Improv_Melody,263,1,48,38,2708060732
70,24,14,Improv_Melody,264,1,48,54,2708510444
70,24,14,Improv_Melody,265,5,42,127,2708538684
70,24,14,Improv_Melody,266,5,42,110,2709038392
70,24,14,Improv_Melody,267,5,42,110,2709539232
70,24,14,Improv_Melody,268,1,48,34,2709542056
70,24,14,Improv_Melody,269,1,48,32,2709778496
70,24,14,Improv_Melody,270,1,48,40,2710038912
70,24,14,Improv_Melody,271,5,42,110,2710040324
70,24,14,Improv_Melody,272,2,43,80,2710541192
70,24,14,Improv_Melody,273,2,67,80,2710543264
70,24,14,Improv_Melody,274,5,42,127,2710545732
70,24,14,Improv_Melody,275,1,48,43,2710553864
70,24,14,Improv_Melody,276,5,42,110,2711039372
70,24,14,Improv_Melody,277,5,42,110,2711539172
70,24,14,Improv_Melody,278,1,48,40,2711585372
70,24,14,Improv_Melody,279,1,48,31,2711818072
70,24,14,Improv_Melody,280,5,42,110,2712038776
70,24,14,Improv_Melody,281,1,48,40,2712073460
70,24,14,Improv_Melody,282,5,42,127,2712538476
70,24,14,Improv_Melody,283,1,48,50,2712551240
70,24,14,Improv_Melody,284,5,42,110,2713039144
70,24,14,Improv_Melody,285,5,42,110,2713539016
70,24,14,Improv_Melody,286,1,48,35,2713546028
70,24,14,Improv_Melody,287,1,48,28,2713795104
70,24,14,Improv_Melody,288,5,42,110,2714038620
70,24,14,Improv_Melody,289,1,48,45,2714061556
70,24,14,Improv_Melody,290,1,48,44,2714533984
70,24,14,Improv_Melody,291,2,45,80,2714541760
70,24,14,Improv_Melody,292,2,69,80,2714543912
70,24,14,Improv_Melody,293,5,42,127,2714546452
70,24,14,Improv_Melody,294,5,42,110,2715039132
70,24,14,Improv_Melody,295,5,42,110,2715538928
70,24,14,Improv_Melody,296,1,48,48,2715568376
70,24,14,Improv_Melody,297,1,48,39,2715798832
70,24,14,Improv_Melody,298,5,42,110,2716038752
70,24,14,Improv_Melody,299,1,48,41,2716077924
70,24,14,Improv_Melody,300,1,48,52,2716534664
70,24,14,Improv_Melody,301,5,42,127,2716539196
70,24,14,Improv_Melody,302,5,42,110,2717038904
70,24,14,Improv_Melody,303,1,48,47,2717536504
70,24,14,Improv_Melody,304,5,42,110,2717538764
70,24,14,Improv_Melody,305,1,48,37,2717766064
70,24,14,Improv_Melody,306,1,48,48,2718031524
70,24,14,Improv_Melody,307,5,42,110,2718039492
70,24,14,Improv_Melody,308,1,48,46,2718533168
70,24,14,Improv_Melody,309,2,41,80,2718541540
70,24,14,Improv_Melody,310,2,65,80,2718543696
70,24,14,Improv_Melody,311,5,42,127,2718546236
70,24,14,Improv_Melody,312,5,42,110,2719039060
70,24,14,Improv_Melody,313,5,42,110,2719538412
70,24,14,Improv_Melody,314,1,48,43,2719580868
70,24,14,Improv_Melody,315,1,48,34,2719804744
70,24,14,Improv_Melody,316,5,42,110,2720039356
70,24,14,Improv_Melody,317,1,48,42,2720065512
70,24,14,Improv_Melody,318,1,48,58,2720532660
70,24,14,Improv_Melody,319,5,42,127,2720539204
70,24,14,Improv_Melody,320,5,42,110,2721038908
70,24,14,Improv_Melody,321,1,48,15,2721041432
70,24,14,Improv_Melody,322,1,48,50,2721537932
70,24,14,Improv_Melody,323,5,42,110,2721539500
70,24,14,Improv_Melody,324,1,48,39,2721798660
70,24,14,Improv_Melody,325,5,42,110,2722039112
70,24,14,Improv_Melody,326,1,48,48,2722055988
70,24,14,Improv_Melody,327,1,48,50,2722518864
70,24,14,Improv_Melody,328,2,48,80,2722541304
70,24,14,Improv_Melody,329,2,72,80,2722543760
70,24,14,Improv_Melody,330,5,42,127,2722546220
70,24,14,Improv_Melody,331,5,42,110,2723038524
70,24,14,Improv_Melody,0,9999,9999,9999,2642536556
70,24,14,Improv_Melody,1,9999,9999,9999,2643036240
70,24,14,Improv_Melody,2,9999,9999,9999,2643537008
70,24,14,Improv_Melody,3,9999,9999,9999,2644036656
70,24,14,Improv_Melody,4,9999,9999,9999,2644536376
70,24,14,Improv_Melody,5,9999,9999,9999,2645036100
70,24,14,Improv_Melody,6,9999,9999,9999,2645536868
70,24,14,Improv_Melody,7,9999,9999,9999,2646036588
70,24,14,Improv_Melody,8,9999,9999,9999,2646536308
70,24,14,Improv_Melody,9,9999,9999,9999,2647037020
70,24,14,Improv_Melody,10,9999,9999,9999,2647536740
70,24,14,Improv_Melody,11,9999,9999,9999,2648036464
70,24,14,Improv_Melody,12,9999,9999,9999,2648536184
70,24,14,Improv_Melody,13,9999,9999,9999,2649036876
70,24,14,Improv_Melody,14,9999,9999,9999,2649536600
70,24,14,Improv_Melody,15,9999,9999,9999,2650036296
70,24,14,Improv_Melody,16,9999,9999,9999,2650537064
70,24,14,Improv_Melody,17,9999,9999,9999,2651036724
70,24,14,Improv_Melody,18,9999,9999,9999,2651536448
70,24,14,Improv_Melody,19,9999,9999,9999,2652036168
70,24,14,Improv_Melody,20,9999,9999,9999,2652536936
70,24,14,Improv_Melody,21,9999,9999,9999,2653036656
70,24,14,Improv_Melody,22,9999,9999,9999,2653536304
70,24,14,Improv_Melody,23,9999,9999,9999,2654037076
70,24,14,Improv_Melody,24,9999,9999,9999,2654536796
70,24,14,Improv_Melody,25,9999,9999,9999,2655036532
70,24,14,Improv_Melody,26,9999,9999,9999,2655536180
70,24,14,Improv_Melody,27,9999,9999,9999,2656036948
70,24,14,Improv_Melody,28,9999,9999,9999,2656536672
70,24,14,Improv_Melody,29,9999,9999,9999,2657036392
70,24,14,Improv_Melody,30,9999,9999,9999,2657536112
70,24,14,Improv_Melody,31,9999,9999,9999,2658036808
70,24,14,Improv_Melody,32,9999,9999,9999,2658536528
70,24,14,Improv_Melody,33,9999,9999,9999,2659036264
70,24,14,Improv_Melody,34,9999,9999,9999,2659536956
70,24,14,Improv_Melody,35,9999,9999,9999,2660036708
70,24,14,Improv_Melody,36,9999,9999,9999,2660536384
70,24,14,Improv_Melody,37,9999,9999,9999,2661036084
70,24,14,Improv_Melody,38,9999,9999,9999,2661536852
70,24,14,Improv_Melody,39,9999,9999,9999,2662036532
70,24,14,Improv_Melody,40,9999,9999,9999,2662536304
70,24,14,Improv_Melody,41,9999,9999,9999,2663037004
70,24,14,Improv_Melody,42,9999,9999,9999,2663536728
70,24,14,Improv_Melody,43,9999,9999,9999,2664036404
70,24,14,Improv_Melody,44,9999,9999,9999,2664536136
70,24,14,Improv_Melody,45,9999,9999,9999,2665036852
70,24,14,Improv_Melody,46,9999,9999,9999,2665536572
70,24,14,Improv_Melody,47,9999,9999,9999,2666036328
70,24,14,Improv_Melody,48,9999,9999,9999,2666537064
70,24,14,Improv_Melody,49,9999,9999,9999,2667036784
70,24,14,Improv_Melody,50,9999,9999,9999,2667536432
70,24,14,Improv_Melody,51,9999,9999,9999,2668036184
70,24,14,Improv_Melody,52,9999,9999,9999,2668536880
70,24,14,Improv_Melody,53,9999,9999,9999,2669036656
70,24,14,Improv_Melody,54,9999,9999,9999,2669536376
70,24,14,Improv_Melody,55,9999,9999,9999,2670037100
70,24,14,Improv_Melody,56,9999,9999,9999,2670536796
70,24,14,Improv_Melody,57,9999,9999,9999,2671036516
70,24,14,Improv_Melody,58,9999,9999,9999,2671536208
70,24,14,Improv_Melody,59,9999,9999,9999,2672036932
70,24,14,Improv_Melody,60,9999,9999,9999,2672536632
70,24,14,Improv_Melody,61,9999,9999,9999,2673036336
70,24,14,Improv_Melody,62,9999,9999,9999,2673536060
70,24,14,Improv_Melody,63,9999,9999,9999,2674036852
70,24,14,Improv_Melody,64,9999,9999,9999,2674536552
70,24,14,Improv_Melody,65,9999,9999,9999,2675036272
70,24,14,Improv_Melody,66,9999,9999,9999,2675536968
70,24,14,Improv_Melody,67,9999,9999,9999,2676036712
70,24,14,Improv_Melody,68,9999,9999,9999,2676536412
70,24,14,Improv_Melody,69,9999,9999,9999,2677036120
70,24,14,Improv_Melody,70,9999,9999,9999,2677536816
70,24,14,Improv_Melody,71,9999,9999,9999,2678036568
70,24,14,Improv_Melody,72,9999,9999,9999,2678536264
70,24,14,Improv_Melody,73,9999,9999,9999,2679037028
70,24,14,Improv_Melody,74,9999,9999,9999,2679536752
70,24,14,Improv_Melody,75,9999,9999,9999,2680036428
70,24,14,Improv_Melody,76,9999,9999,9999,2680536132
70,24,14,Improv_Melody,77,9999,9999,9999,2681036876
70,24,14,Improv_Melody,78,9999,9999,9999,2681536600
70,24,14,Improv_Melody,79,9999,9999,9999,2682036328
70,24,14,Improv_Melody,80,9999,9999,9999,2682537076
70,24,14,Improv_Melody,81,9999,9999,9999,2683036788
70,24,14,Improv_Melody,82,9999,9999,9999,2683536436
70,24,14,Improv_Melody,83,9999,9999,9999,2684036188
70,24,14,Improv_Melody,84,9999,9999,9999,2684536936
70,24,14,Improv_Melody,85,9999,9999,9999,2685036636
70,24,14,Improv_Melody,86,9999,9999,9999,2685536356
70,24,14,Improv_Melody,87,9999,9999,9999,2686037084
70,24,14,Improv_Melody,88,9999,9999,9999,2686536776
70,24,14,Improv_Melody,89,9999,9999,9999,2687036496
70,24,14,Improv_Melody,90,9999,9999,9999,2687536216
70,24,14,Improv_Melody,91,9999,9999,9999,2688036944
70,24,14,Improv_Melody,92,9999,9999,9999,2688536644
70,24,14,Improv_Melody,93,9999,9999,9999,2689036344
70,24,14,Improv_Melody,94,9999,9999,9999,2689536064
70,24,14,Improv_Melody,95,9999,9999,9999,2690036792
70,24,14,Improv_Melody,96,9999,9999,9999,2690536560
70,24,14,Improv_Melody,97,9999,9999,9999,2691036280
70,24,14,Improv_Melody,98,9999,9999,9999,2691536972
70,24,14,Improv_Melody,99,9999,9999,9999,2692036724
70,24,14,Improv_Melody,100,9999,9999,9999,2692536424
70,24,14,Improv_Melody,101,9999,9999,9999,2693036100
70,24,14,Improv_Melody,102,9999,9999,9999,2693536868
70,24,14,Improv_Melody,103,9999,9999,9999,2694036544
70,24,14,Improv_Melody,104,9999,9999,9999,2694536312
70,24,14,Improv_Melody,105,9999,9999,9999,2695037004
70,24,14,Improv_Melody,106,9999,9999,9999,2695536728
70,24,14,Improv_Melody,107,9999,9999,9999,2696036404
70,24,14,Improv_Melody,108,9999,9999,9999,2696536180
70,24,14,Improv_Melody,109,9999,9999,9999,2697036852
70,24,14,Improv_Melody,110,9999,9999,9999,2697536572
70,24,14,Improv_Melody,111,9999,9999,9999,2698036332
70,24,14,Improv_Melody,112,9999,9999,9999,2698537068
70,24,14,Improv_Melody,113,9999,9999,9999,2699036788
70,24,14,Improv_Melody,114,9999,9999,9999,2699536436
70,24,14,Improv_Melody,115,9999,9999,9999,2700036188
70,24,14,Improv_Melody,116,9999,9999,9999,2700536936
70,24,14,Improv_Melody,117,9999,9999,9999,2701036636
70,24,14,Improv_Melody,118,9999,9999,9999,2701536356
70,24,14,Improv_Melody,119,9999,9999,9999,2702037084
70,24,14,Improv_Melody,120,9999,9999,9999,2702536776
70,24,14,Improv_Melody,121,9999,9999,9999,2703036500
70,24,14,Improv_Melody,122,9999,9999,9999,2703536196
70,24,14,Improv_Melody,123,9999,9999,9999,2704036920
70,24,14,Improv_Melody,124,9999,9999,9999,2704536692
70,24,14,Improv_Melody,125,9999,9999,9999,2705036392
70,24,14,Improv_Melody,126,9999,9999,9999,2705536116
70,24,14,Improv_Melody,127,9999,9999,9999,2706036840
70,24,14,Improv_Melody,128,9999,9999,9999,2706536532
70,24,14,Improv_Melody,129,9999,9999,9999,2707036252
70,24,14,Improv_Melody,130,9999,9999,9999,2707536948
70,24,14,Improv_Melody,131,9999,9999,9999,2708036696
70,24,14,Improv_Melody,132,9999,9999,9999,2708536392
70,24,14,Improv_Melody,133,9999,9999,9999,2709036100
70,24,14,Improv_Melody,134,9999,9999,9999,2709536868
70,24,14,Improv_Melody,135,9999,9999,9999,2710036544
70,24,14,Improv_Melody,136,9999,9999,9999,2710536244
70,24,14,Improv_Melody,137,9999,9999,9999,2711037008
70,24,14,Improv_Melody,138,9999,9999,9999,2711536728
70,24,14,Improv_Melody,139,9999,9999,9999,2712036408
70,24,14,Improv_Melody,140,9999,9999,9999,2712536180
70,24,14,Improv_Melody,141,9999,9999,9999,2713036852
70,24,14,Improv_Melody,142,9999,9999,9999,2713536576
70,24,14,Improv_Melody,143,9999,9999,9999,2714036304
70,24,14,Improv_Melody,144,9999,9999,9999,2714537040
70,24,14,Improv_Melody,145,9999,9999,9999,2715036764
70,24,14,Improv_Melody,146,9999,9999,9999,2715536484
70,24,14,Improv_Melody,147,9999,9999,9999,2716036160
70,24,14,Improv_Melody,148,9999,9999,9999,2716536904
70,24,14,Improv_Melody,149,9999,9999,9999,2717036608
70,24,14,Improv_Melody,150,9999,9999,9999,2717536368
70,24,14,Improv_Melody,151,9999,9999,9999,2718037048
70,24,14,Improv_Melody,152,9999,9999,9999,2718536824
70,24,14,Improv_Melody,153,9999,9999,9999,2719036468
70,24,14,Improv_Melody,154,9999,9999,9999,2719536192
70,24,14,Improv_Melody,155,9999,9999,9999,2720036916
70,24,14,Improv_Melody,156,9999,9999,9999,2720536688
70,24,14,Improv_Melody,157,9999,9999,9999,2721036392
70,24,14,Improv_Melody,158,9999,9999,9999,2721536092
70,24,14,Improv_Melody,159,9999,9999,9999,2722036816
70,24,14,Improv_Melody,160,9999,9999,9999,2722536508
70,24,14,Improv_Melody,161,9999,9999,9999,2723036228
