pid,taskRunCount,taskID,taskName,i,channel,pitch,velocity,microseconds
73,1,0,Ticks_Pract_8,0,5,42,127,61638144
73,1,0,Ticks_Pract_8,1,5,42,127,62438124
73,1,0,Ticks_Pract_8,2,1,48,33,63180920
73,1,0,Ticks_Pract_8,3,5,42,127,63237576
73,1,0,Ticks_Pract_8,4,1,48,37,63836344
73,1,0,Ticks_Pract_8,5,5,42,127,64038116
73,1,0,Ticks_Pract_8,6,1,48,32,64582968
73,1,0,Ticks_Pract_8,7,5,42,127,64837924
73,1,0,Ticks_Pract_8,8,1,48,37,65359892
73,1,0,Ticks_Pract_8,9,5,42,127,65637956
73,1,0,Ticks_Pract_8,10,1,48,38,66017132
73,1,0,Ticks_Pract_8,11,5,42,127,66437540
73,1,0,Ticks_Pract_8,12,1,48,36,66680036
73,1,0,Ticks_Pract_8,13,5,42,127,67238196
73,1,0,Ticks_Pract_8,14,1,48,19,67544716
73,1,0,Ticks_Pract_8,15,5,42,127,68038004
73,1,0,Ticks_Pract_8,16,1,48,46,68383868
73,1,0,Ticks_Pract_8,17,5,42,127,68837808
73,1,0,Ticks_Pract_8,18,1,48,43,69232820
73,1,0,Ticks_Pract_8,19,5,42,127,69637468
73,1,0,Ticks_Pract_8,20,1,48,41,70042348
73,1,0,Ticks_Pract_8,21,5,42,127,70438176
73,1,0,Ticks_Pract_8,22,1,48,45,70701092
73,1,0,Ticks_Pract_8,23,5,42,127,71238132
73,1,0,Ticks_Pract_8,24,1,48,35,71326920
73,1,0,Ticks_Pract_8,25,1,48,27,71965268
73,1,0,Ticks_Pract_8,26,5,42,127,72037712
73,1,0,Ticks_Pract_8,27,1,48,35,72664996
73,1,0,Ticks_Pract_8,28,5,42,127,72837428
73,1,0,Ticks_Pract_8,29,1,48,43,73406616
73,1,0,Ticks_Pract_8,30,5,42,127,73638160
73,1,0,Ticks_Pract_8,31,1,48,32,74231552
73,1,0,Ticks_Pract_8,32,5,42,127,74437892
73,1,0,Ticks_Pract_8,33,1,48,44,75042212
73,1,0,Ticks_Pract_8,34,5,42,127,75237776
73,1,0,Ticks_Pract_8,35,1,48,38,75851968
73,1,0,Ticks_Pract_8,36,5,42,127,76037584
73,1,0,Ticks_Pract_8,37,1,48,45,76610336
73,1,0,Ticks_Pract_8,38,5,42,127,76838140
73,1,0,Ticks_Pract_8,39,1,48,38,77399224
73,1,0,Ticks_Pract_8,40,5,42,127,77637948
73,1,0,Ticks_Pract_8,41,1,48,44,78222216
73,1,0,Ticks_Pract_8,42,5,42,127,78437608
73,1,0,Ticks_Pract_8,43,1,48,38,79111660
73,1,0,Ticks_Pract_8,44,5,42,127,79237564
73,1,0,Ticks_Pract_8,45,1,48,47,79809216
73,1,0,Ticks_Pract_8,46,5,42,127,80038220
73,1,0,Ticks_Pract_8,47,1,48,44,80567216
73,1,0,Ticks_Pract_8,48,5,42,127,80838028
73,1,0,Ticks_Pract_8,49,1,48,40,81333364
73,1,0,Ticks_Pract_8,50,5,42,127,81637684
73,1,0,Ticks_Pract_8,51,1,48,41,82126808
73,1,0,Ticks_Pract_8,52,5,42,127,82437644
73,1,0,Ticks_Pract_8,53,1,48,44,82907028
73,1,0,Ticks_Pract_8,54,1,48,32,82953756
73,1,0,Ticks_Pract_8,55,5,42,127,83238628
73,1,0,Ticks_Pract_8,56,5,42,127,84038012
73,1,0,Ticks_Pract_8,57,1,48,33,84323588
73,1,0,Ticks_Pract_8,58,5,42,127,84837668
73,1,0,Ticks_Pract_8,59,1,48,43,85289252
73,1,0,Ticks_Pract_8,0,9999,9999,9999,61635628
73,1,0,Ticks_Pract_8,1,9999,9999,9999,62435384
73,1,0,Ticks_Pract_8,2,9999,9999,9999,63235136
73,1,0,Ticks_Pract_8,3,9999,9999,9999,64035900
73,1,0,Ticks_Pract_8,4,9999,9999,9999,64835632
73,1,0,Ticks_Pract_8,5,9999,9999,9999,65635440
73,1,0,Ticks_Pract_8,6,9999,9999,9999,66435172
73,1,0,Ticks_Pract_8,7,9999,9999,9999,67235904
73,1,0,Ticks_Pract_8,8,9999,9999,9999,68035636
73,1,0,Ticks_Pract_8,9,9999,9999,9999,68835444
73,1,0,Ticks_Pract_8,10,9999,9999,9999,69635176
73,1,0,Ticks_Pract_8,11,9999,9999,9999,70435956
73,1,0,Ticks_Pract_8,12,9999,9999,9999,71235688
73,1,0,Ticks_Pract_8,13,9999,9999,9999,72035420
73,1,0,Ticks_Pract_8,14,9999,9999,9999,72835136
73,1,0,Ticks_Pract_8,15,9999,9999,9999,73635940
73,1,0,Ticks_Pract_8,16,9999,9999,9999,74435676
73,1,0,Ticks_Pract_8,17,9999,9999,9999,75235408
73,1,0,Ticks_Pract_8,18,9999,9999,9999,76035144
73,1,0,Ticks_Pract_8,19,9999,9999,9999,76835920
73,1,0,Ticks_Pract_8,20,9999,9999,9999,77635656
73,1,0,Ticks_Pract_8,21,9999,9999,9999,78435388
73,1,0,Ticks_Pract_8,22,9999,9999,9999,79235120
73,1,0,Ticks_Pract_8,23,9999,9999,9999,80035928
73,1,0,Ticks_Pract_8,24,9999,9999,9999,80835660
73,1,0,Ticks_Pract_8,25,9999,9999,9999,81635392
73,1,0,Ticks_Pract_8,26,9999,9999,9999,82435128
73,1,0,Ticks_Pract_8,27,9999,9999,9999,83235888
73,1,0,Ticks_Pract_8,28,9999,9999,9999,84035644
73,1,0,Ticks_Pract_8,29,9999,9999,9999,84835376
73,2,0,Ticks_Pract_8,0,5,42,127,139032048
73,2,0,Ticks_Pract_8,1,5,42,127,139831652
73,2,0,Ticks_Pract_8,2,1,38,25,140021492
73,2,0,Ticks_Pract_8,3,5,42,127,140632360
73,2,0,Ticks_Pract_8,4,1,38,27,140805816
73,2,0,Ticks_Pract_8,5,5,42,127,141432244
73,2,0,Ticks_Pract_8,6,1,38,22,141902672
73,2,0,Ticks_Pract_8,7,5,42,127,142231928
73,2,0,Ticks_Pract_8,8,1,38,37,142932508
73,2,0,Ticks_Pract_8,9,5,42,127,143032484
73,2,0,Ticks_Pract_8,10,5,42,127,143832388
73,2,0,Ticks_Pract_8,11,1,38,35,144021532
73,2,0,Ticks_Pract_8,12,5,42,127,144632268
73,2,0,Ticks_Pract_8,13,1,38,38,145071584
73,2,0,Ticks_Pract_8,14,5,42,127,145431780
73,2,0,Ticks_Pract_8,15,5,42,127,146231612
73,2,0,Ticks_Pract_8,16,1,38,30,146453236
73,2,0,Ticks_Pract_8,17,5,42,127,147032392
73,2,0,Ticks_Pract_8,18,1,38,38,147708764
73,2,0,Ticks_Pract_8,19,5,42,127,147832348
73,2,0,Ticks_Pract_8,20,5,42,127,148631832
73,2,0,Ticks_Pract_8,21,1,38,29,148803168
73,2,0,Ticks_Pract_8,22,5,42,127,149431712
73,2,0,Ticks_Pract_8,23,5,42,127,150232516
73,2,0,Ticks_Pract_8,24,1,38,18,150247376
73,2,0,Ticks_Pract_8,25,5,42,127,151032324
73,2,0,Ticks_Pract_8,26,5,42,127,151832004
73,2,0,Ticks_Pract_8,27,5,42,127,152631612
73,2,0,Ticks_Pract_8,28,5,42,127,153432340
73,2,0,Ticks_Pract_8,29,5,42,127,154232392
73,2,0,Ticks_Pract_8,30,5,42,127,155032096
73,2,0,Ticks_Pract_8,31,5,42,127,155831628
73,2,0,Ticks_Pract_8,32,5,42,127,156632432
73,2,0,Ticks_Pract_8,33,5,42,127,157432260
73,2,0,Ticks_Pract_8,34,5,42,127,158232168
73,2,0,Ticks_Pract_8,35,5,42,127,159031552
73,2,0,Ticks_Pract_8,36,1,48,38,159606620
73,2,0,Ticks_Pract_8,37,5,42,127,159832480
73,2,0,Ticks_Pract_8,38,1,48,29,160552608
73,2,0,Ticks_Pract_8,39,5,42,127,160632156
73,2,0,Ticks_Pract_8,40,5,42,127,161432144
73,2,0,Ticks_Pract_8,41,1,48,28,161836504
73,2,0,Ticks_Pract_8,42,5,42,127,162231952
73,2,0,Ticks_Pract_8,0,9999,9999,9999,139029608
73,2,0,Ticks_Pract_8,1,9999,9999,9999,139829364
73,2,0,Ticks_Pract_8,2,9999,9999,9999,140630072
73,2,0,Ticks_Pract_8,3,9999,9999,9999,141429808
73,2,0,Ticks_Pract_8,4,9999,9999,9999,142229612
73,2,0,Ticks_Pract_8,5,9999,9999,9999,143029312
73,2,0,Ticks_Pract_8,6,9999,9999,9999,143830100
73,2,0,Ticks_Pract_8,7,9999,9999,9999,144629832
73,2,0,Ticks_Pract_8,8,9999,9999,9999,145429564
73,2,0,Ticks_Pract_8,9,9999,9999,9999,146229320
73,2,0,Ticks_Pract_8,10,9999,9999,9999,147030104
73,2,0,Ticks_Pract_8,11,9999,9999,9999,147829836
73,2,0,Ticks_Pract_8,12,9999,9999,9999,148629592
73,2,0,Ticks_Pract_8,13,9999,9999,9999,149429352
73,2,0,Ticks_Pract_8,14,9999,9999,9999,150230076
73,2,0,Ticks_Pract_8,15,9999,9999,9999,151029812
73,2,0,Ticks_Pract_8,16,9999,9999,9999,151829568
73,2,0,Ticks_Pract_8,17,9999,9999,9999,152629324
73,2,0,Ticks_Pract_8,18,9999,9999,9999,153430124
73,2,0,Ticks_Pract_8,19,9999,9999,9999,154229880
73,2,0,Ticks_Pract_8,20,9999,9999,9999,155029560
73,2,0,Ticks_Pract_8,21,9999,9999,9999,155829340
73,2,0,Ticks_Pract_8,22,9999,9999,9999,156630068
73,2,0,Ticks_Pract_8,23,9999,9999,9999,157429824
73,2,0,Ticks_Pract_8,24,9999,9999,9999,158229580
73,2,0,Ticks_Pract_8,25,9999,9999,9999,159029336
73,2,0,Ticks_Pract_8,26,9999,9999,9999,159830116
73,2,0,Ticks_Pract_8,27,9999,9999,9999,160629868
73,2,0,Ticks_Pract_8,28,9999,9999,9999,161429632
73,2,0,Ticks_Pract_8,29,9999,9999,9999,162229364
73,3,0,Ticks_Pract_8,0,5,42,127,186214664
73,3,0,Ticks_Pract_8,1,5,42,127,187014640
73,3,0,Ticks_Pract_8,2,5,42,127,187815544
73,3,0,Ticks_Pract_8,3,5,42,127,188614928
73,3,0,Ticks_Pract_8,4,5,42,127,189414904
73,3,0,Ticks_Pract_8,5,5,42,127,190214512
73,3,0,Ticks_Pract_8,6,1,48,38,190330724
73,3,0,Ticks_Pract_8,7,5,42,127,191015440
73,3,0,Ticks_Pract_8,8,1,48,25,191253224
73,3,0,Ticks_Pract_8,9,5,42,127,191815024
73,3,0,Ticks_Pract_8,10,1,48,25,192612424
73,3,0,Ticks_Pract_8,11,5,42,127,192614772
73,3,0,Ticks_Pract_8,12,5,42,127,193414588
73,3,0,Ticks_Pract_8,13,5,42,127,194215340
73,3,0,Ticks_Pract_8,14,1,48,29,194487536
73,3,0,Ticks_Pract_8,15,5,42,127,195014928
73,3,0,Ticks_Pract_8,16,1,48,34,195783524
73,3,0,Ticks_Pract_8,17,5,42,127,195814676
73,3,0,Ticks_Pract_8,18,5,42,127,196614492
73,3,0,Ticks_Pract_8,19,1,48,43,196742892
73,3,0,Ticks_Pract_8,20,5,42,127,197415344
73,3,0,Ticks_Pract_8,21,1,48,38,197645272
73,3,0,Ticks_Pract_8,22,5,42,127,198215004
73,3,0,Ticks_Pract_8,23,1,48,27,198602484
73,3,0,Ticks_Pract_8,24,5,42,127,199014812
73,3,0,Ticks_Pract_8,25,1,48,29,199586320
73,3,0,Ticks_Pract_8,26,5,42,127,199814544
73,3,0,Ticks_Pract_8,27,1,48,31,200567660
73,3,0,Ticks_Pract_8,28,5,42,127,200615292
73,3,0,Ticks_Pract_8,29,5,42,127,201415104
73,3,0,Ticks_Pract_8,30,1,48,29,201659172
73,3,0,Ticks_Pract_8,31,5,42,127,202214836
73,3,0,Ticks_Pract_8,32,1,48,34,202711076
73,3,0,Ticks_Pract_8,33,5,42,127,203014648
73,3,0,Ticks_Pract_8,34,1,48,32,203521060
73,3,0,Ticks_Pract_8,35,5,42,127,203815352
73,3,0,Ticks_Pract_8,36,1,48,35,204257292
73,3,0,Ticks_Pract_8,37,5,42,127,204615160
73,3,0,Ticks_Pract_8,38,1,48,28,205038920
73,3,0,Ticks_Pract_8,39,5,42,127,205414892
73,3,0,Ticks_Pract_8,40,1,48,27,205829156
73,3,0,Ticks_Pract_8,41,5,42,127,206214404
73,3,0,Ticks_Pract_8,42,1,48,32,206591860
73,3,0,Ticks_Pract_8,43,5,42,127,207015288
73,3,0,Ticks_Pract_8,44,1,48,38,207558124
73,3,0,Ticks_Pract_8,45,5,42,127,207815168
73,3,0,Ticks_Pract_8,46,1,48,35,208555868
73,3,0,Ticks_Pract_8,47,5,42,127,208614620
73,3,0,Ticks_Pract_8,48,5,42,127,209414432
73,3,0,Ticks_Pract_8,49,1,48,38,209720132
73,3,0,Ticks_Pract_8,0,9999,9999,9999,186212448
73,3,0,Ticks_Pract_8,1,9999,9999,9999,187012204
73,3,0,Ticks_Pract_8,2,9999,9999,9999,187812956
73,3,0,Ticks_Pract_8,3,9999,9999,9999,188612712
73,3,0,Ticks_Pract_8,4,9999,9999,9999,189412468
73,3,0,Ticks_Pract_8,5,9999,9999,9999,190212148
73,3,0,Ticks_Pract_8,6,9999,9999,9999,191012928
73,3,0,Ticks_Pract_8,7,9999,9999,9999,191812660
73,3,0,Ticks_Pract_8,8,9999,9999,9999,192612484
73,3,0,Ticks_Pract_8,9,9999,9999,9999,193412152
73,3,0,Ticks_Pract_8,10,9999,9999,9999,194212980
73,3,0,Ticks_Pract_8,11,9999,9999,9999,195012712
73,3,0,Ticks_Pract_8,12,9999,9999,9999,195812460
73,3,0,Ticks_Pract_8,13,9999,9999,9999,196612204
73,3,0,Ticks_Pract_8,14,9999,9999,9999,197412980
73,3,0,Ticks_Pract_8,15,9999,9999,9999,198212716
73,3,0,Ticks_Pract_8,16,9999,9999,9999,199012448
73,3,0,Ticks_Pract_8,17,9999,9999,9999,199812184
73,3,0,Ticks_Pract_8,18,9999,9999,9999,200612928
73,3,0,Ticks_Pract_8,19,9999,9999,9999,201412668
73,3,0,Ticks_Pract_8,20,9999,9999,9999,202212400
73,3,0,Ticks_Pract_8,21,9999,9999,9999,203012208
73,3,0,Ticks_Pract_8,22,9999,9999,9999,203812916
73,3,0,Ticks_Pract_8,23,9999,9999,9999,204612724
73,3,0,Ticks_Pract_8,24,9999,9999,9999,205412456
73,3,0,Ticks_Pract_8,25,9999,9999,9999,206212192
73,3,0,Ticks_Pract_8,26,9999,9999,9999,207012924
73,3,0,Ticks_Pract_8,27,9999,9999,9999,207812656
73,3,0,Ticks_Pract_8,28,9999,9999,9999,208612404
73,3,0,Ticks_Pract_8,29,9999,9999,9999,209412144
73,4,1,Ticks_Pract_5,0,5,42,127,244367632
73,4,1,Ticks_Pract_5,1,5,42,127,244867400
73,4,1,Ticks_Pract_5,2,5,42,127,245368532
73,4,1,Ticks_Pract_5,3,5,42,127,245867880
73,4,1,Ticks_Pract_5,4,5,42,127,246367744
73,4,1,Ticks_Pract_5,5,1,48,19,246456536
73,4,1,Ticks_Pract_5,6,5,42,127,246868412
73,4,1,Ticks_Pract_5,7,1,48,26,247303460
73,4,1,Ticks_Pract_5,8,5,42,127,247367896
73,4,1,Ticks_Pract_5,9,5,42,127,247867824
73,4,1,Ticks_Pract_5,10,1,48,32,247982340
73,4,1,Ticks_Pract_5,11,5,42,127,248367440
73,4,1,Ticks_Pract_5,12,1,48,19,248678604
73,4,1,Ticks_Pract_5,13,5,42,127,248868332
73,4,1,Ticks_Pract_5,14,5,42,127,249367896
73,4,1,Ticks_Pract_5,15,1,48,34,249556984
73,4,1,Ticks_Pract_5,16,5,42,127,249867592
73,4,1,Ticks_Pract_5,17,5,42,127,250368356
73,4,1,Ticks_Pract_5,18,1,48,29,250406776
73,4,1,Ticks_Pract_5,19,5,42,127,250868200
73,4,1,Ticks_Pract_5,20,1,48,35,251286340
73,4,1,Ticks_Pract_5,21,5,42,127,251367908
73,4,1,Ticks_Pract_5,22,5,42,127,251867536
73,4,1,Ticks_Pract_5,23,1,48,35,252159696
73,4,1,Ticks_Pract_5,24,5,42,127,252368200
73,4,1,Ticks_Pract_5,25,1,48,24,252752216
73,4,1,Ticks_Pract_5,26,5,42,127,252868044
73,4,1,Ticks_Pract_5,27,1,48,24,253073740
73,4,1,Ticks_Pract_5,28,5,42,127,253367740
73,4,1,Ticks_Pract_5,29,1,48,21,253421120
73,4,1,Ticks_Pract_5,30,1,48,25,253760184
73,4,1,Ticks_Pract_5,31,5,42,127,253868388
73,4,1,Ticks_Pract_5,32,1,48,20,254181788
73,4,1,Ticks_Pract_5,33,5,42,127,254368304
73,4,1,Ticks_Pract_5,34,1,48,20,254619180
73,4,1,Ticks_Pract_5,35,5,42,127,254867704
73,4,1,Ticks_Pract_5,36,1,48,21,255065668
73,4,1,Ticks_Pract_5,37,5,42,127,255367672
73,4,1,Ticks_Pract_5,38,1,48,16,255492288
73,4,1,Ticks_Pract_5,39,5,42,127,255868264
73,4,1,Ticks_Pract_5,40,1,48,24,255907912
73,4,1,Ticks_Pract_5,41,1,48,27,256328728
73,4,1,Ticks_Pract_5,42,5,42,127,256368176
73,4,1,Ticks_Pract_5,43,1,48,30,256747412
73,4,1,Ticks_Pract_5,44,5,42,127,256867636
73,4,1,Ticks_Pract_5,45,1,48,31,257199012
73,4,1,Ticks_Pract_5,46,5,42,127,257368376
73,4,1,Ticks_Pract_5,47,5,42,127,257868168
73,4,1,Ticks_Pract_5,48,1,48,29,258146424
73,4,1,Ticks_Pract_5,49,1,48,20,258232516
73,4,1,Ticks_Pract_5,50,5,42,127,258367844
73,4,1,Ticks_Pract_5,51,1,48,27,258587448
73,4,1,Ticks_Pract_5,52,5,42,127,258867536
73,4,1,Ticks_Pract_5,53,1,48,41,259013696
73,4,1,Ticks_Pract_5,54,1,48,30,259077996
73,4,1,Ticks_Pract_5,55,5,42,127,259368256
73,4,1,Ticks_Pract_5,56,1,48,24,259546504
73,4,1,Ticks_Pract_5,57,5,42,127,259868100
73,4,1,Ticks_Pract_5,58,1,48,31,260054420
73,4,1,Ticks_Pract_5,59,5,42,127,260367644
73,4,1,Ticks_Pract_5,60,1,48,29,260567356
73,4,1,Ticks_Pract_5,61,5,42,127,260867416
73,4,1,Ticks_Pract_5,62,1,48,27,261066004
73,4,1,Ticks_Pract_5,63,5,42,127,261368156
73,4,1,Ticks_Pract_5,64,1,48,30,261577664
73,4,1,Ticks_Pract_5,65,5,42,127,261868000
73,4,1,Ticks_Pract_5,66,1,48,28,262175640
73,4,1,Ticks_Pract_5,67,5,42,127,262367544
73,4,1,Ticks_Pract_5,68,1,48,31,262794416
73,4,1,Ticks_Pract_5,69,5,42,127,262868300
73,4,1,Ticks_Pract_5,70,5,42,127,263368076
73,4,1,Ticks_Pract_5,71,1,48,36,263528044
73,4,1,Ticks_Pract_5,72,5,42,127,263867696
73,4,1,Ticks_Pract_5,0,9999,9999,9999,244365416
73,4,1,Ticks_Pract_5,1,9999,9999,9999,244865108
73,4,1,Ticks_Pract_5,2,9999,9999,9999,245365872
73,4,1,Ticks_Pract_5,3,9999,9999,9999,245865588
73,4,1,Ticks_Pract_5,4,9999,9999,9999,246365304
73,4,1,Ticks_Pract_5,5,9999,9999,9999,246865972
73,4,1,Ticks_Pract_5,6,9999,9999,9999,247365680
73,4,1,Ticks_Pract_5,7,9999,9999,9999,247865456
73,4,1,Ticks_Pract_5,8,9999,9999,9999,248365152
73,4,1,Ticks_Pract_5,9,9999,9999,9999,248865892
73,4,1,Ticks_Pract_5,10,9999,9999,9999,249365608
73,4,1,Ticks_Pract_5,11,9999,9999,9999,249865304
73,4,1,Ticks_Pract_5,12,9999,9999,9999,250366068
73,4,1,Ticks_Pract_5,13,9999,9999,9999,250865760
73,4,1,Ticks_Pract_5,14,9999,9999,9999,251365472
73,4,1,Ticks_Pract_5,15,9999,9999,9999,251865172
73,4,1,Ticks_Pract_5,16,9999,9999,9999,252365912
73,4,1,Ticks_Pract_5,17,9999,9999,9999,252865604
73,4,1,Ticks_Pract_5,18,9999,9999,9999,253365300
73,4,1,Ticks_Pract_5,19,9999,9999,9999,253866096
73,4,1,Ticks_Pract_5,20,9999,9999,9999,254365792
73,4,1,Ticks_Pract_5,21,9999,9999,9999,254865488
73,4,1,Ticks_Pract_5,22,9999,9999,9999,255365232
73,4,1,Ticks_Pract_5,23,9999,9999,9999,255865972
73,4,1,Ticks_Pract_5,24,9999,9999,9999,256365664
73,4,1,Ticks_Pract_5,25,9999,9999,9999,256865344
73,4,1,Ticks_Pract_5,26,9999,9999,9999,257366092
73,4,1,Ticks_Pract_5,27,9999,9999,9999,257865804
73,4,1,Ticks_Pract_5,28,9999,9999,9999,258365552
73,4,1,Ticks_Pract_5,29,9999,9999,9999,258865248
73,4,1,Ticks_Pract_5,30,9999,9999,9999,259365964
73,4,1,Ticks_Pract_5,31,9999,9999,9999,259865660
73,4,1,Ticks_Pract_5,32,9999,9999,9999,260365428
73,4,1,Ticks_Pract_5,33,9999,9999,9999,260865124
73,4,1,Ticks_Pract_5,34,9999,9999,9999,261365864
73,4,1,Ticks_Pract_5,35,9999,9999,9999,261865560
73,4,1,Ticks_Pract_5,36,9999,9999,9999,262365256
73,4,1,Ticks_Pract_5,37,9999,9999,9999,262866012
73,4,1,Ticks_Pract_5,38,9999,9999,9999,263365712
73,4,1,Ticks_Pract_5,39,9999,9999,9999,263865404
73,5,1,Ticks_Pract_5,0,5,42,127,298297704
73,5,1,Ticks_Pract_5,1,5,42,127,298797272
73,5,1,Ticks_Pract_5,2,5,42,127,299298408
73,5,1,Ticks_Pract_5,3,5,42,127,299797972
73,5,1,Ticks_Pract_5,4,5,42,127,300297540
73,5,1,Ticks_Pract_5,5,1,48,36,300344712
73,5,1,Ticks_Pract_5,6,1,48,24,300772364
73,5,1,Ticks_Pract_5,7,5,42,127,300798500
73,5,1,Ticks_Pract_5,8,1,48,19,301220220
73,5,1,Ticks_Pract_5,9,5,42,127,301298268
73,5,1,Ticks_Pract_5,10,1,48,30,301702168
73,5,1,Ticks_Pract_5,11,5,42,127,301797668
73,5,1,Ticks_Pract_5,12,1,48,30,302204548
73,5,1,Ticks_Pract_5,13,5,42,127,302297436
73,5,1,Ticks_Pract_5,14,1,48,31,302702972
73,5,1,Ticks_Pract_5,15,5,42,127,302798384
73,5,1,Ticks_Pract_5,16,1,48,30,303204760
73,5,1,Ticks_Pract_5,17,5,42,127,303297856
73,5,1,Ticks_Pract_5,18,1,48,31,303715972
73,5,1,Ticks_Pract_5,19,5,42,127,303797564
73,5,1,Ticks_Pract_5,20,1,48,36,304228088
73,5,1,Ticks_Pract_5,21,5,42,127,304298380
73,5,1,Ticks_Pract_5,22,1,48,30,304716632
73,5,1,Ticks_Pract_5,23,5,42,127,304798300
73,5,1,Ticks_Pract_5,24,1,48,32,305204584
73,5,1,Ticks_Pract_5,25,5,42,127,305297768
73,5,1,Ticks_Pract_5,26,1,48,35,305702556
73,5,1,Ticks_Pract_5,27,5,42,127,305797440
73,5,1,Ticks_Pract_5,28,1,48,35,306197992
73,5,1,Ticks_Pract_5,29,5,42,127,306298388
73,5,1,Ticks_Pract_5,30,1,48,35,306742568
73,5,1,Ticks_Pract_5,31,5,42,127,306797804
73,5,1,Ticks_Pract_5,32,1,48,34,307251240
73,5,1,Ticks_Pract_5,33,5,42,127,307297572
73,5,1,Ticks_Pract_5,34,1,48,36,307769252
73,5,1,Ticks_Pract_5,35,5,42,127,307798312
73,5,1,Ticks_Pract_5,36,1,48,38,308278000
73,5,1,Ticks_Pract_5,37,5,42,127,308298228
73,5,1,Ticks_Pract_5,38,1,48,35,308791384
73,5,1,Ticks_Pract_5,39,5,42,127,308797776
73,5,1,Ticks_Pract_5,40,1,48,40,309258468
73,5,1,Ticks_Pract_5,41,5,42,127,309297472
73,5,1,Ticks_Pract_5,42,1,48,40,309757860
73,5,1,Ticks_Pract_5,43,5,42,127,309798212
73,5,1,Ticks_Pract_5,44,1,48,39,310214320
73,5,1,Ticks_Pract_5,45,5,42,127,310298056
73,5,1,Ticks_Pract_5,46,1,48,38,310738552
73,5,1,Ticks_Pract_5,47,5,42,127,310797752
73,5,1,Ticks_Pract_5,48,1,48,45,311253060
73,5,1,Ticks_Pract_5,49,5,42,127,311298344
73,5,1,Ticks_Pract_5,50,1,48,35,311764192
73,5,1,Ticks_Pract_5,51,5,42,127,311798184
73,5,1,Ticks_Pract_5,52,1,48,46,312236588
73,5,1,Ticks_Pract_5,53,5,42,127,312297808
73,5,1,Ticks_Pract_5,54,1,48,32,312772112
73,5,1,Ticks_Pract_5,55,5,42,127,312797428
73,5,1,Ticks_Pract_5,56,1,48,38,313283544
73,5,1,Ticks_Pract_5,57,5,42,127,313298168
73,5,1,Ticks_Pract_5,58,5,42,127,313798092
73,5,1,Ticks_Pract_5,59,1,48,28,313834192
73,5,1,Ticks_Pract_5,60,5,42,127,314297788
73,5,1,Ticks_Pract_5,61,1,48,26,314303448
73,5,1,Ticks_Pract_5,62,5,42,127,314797484
73,5,1,Ticks_Pract_5,63,1,48,32,314819448
73,5,1,Ticks_Pract_5,64,5,42,127,315298148
73,5,1,Ticks_Pract_5,65,1,48,36,315317196
73,5,1,Ticks_Pract_5,66,5,42,127,315797916
73,5,1,Ticks_Pract_5,67,1,48,36,315807468
73,5,1,Ticks_Pract_5,68,5,42,127,316297512
73,5,1,Ticks_Pract_5,69,1,48,32,316300556
73,5,1,Ticks_Pract_5,70,5,42,127,316798256
73,5,1,Ticks_Pract_5,71,1,48,30,316817028
73,5,1,Ticks_Pract_5,72,1,48,33,317266636
73,5,1,Ticks_Pract_5,73,5,42,127,317298016
73,5,1,Ticks_Pract_5,74,1,48,24,317782936
73,5,1,Ticks_Pract_5,75,5,42,127,317797712
73,5,1,Ticks_Pract_5,0,9999,9999,9999,298295416
73,5,1,Ticks_Pract_5,1,9999,9999,9999,298795056
73,5,1,Ticks_Pract_5,2,9999,9999,9999,299295820
73,5,1,Ticks_Pract_5,3,9999,9999,9999,299795536
73,5,1,Ticks_Pract_5,4,9999,9999,9999,300295252
73,5,1,Ticks_Pract_5,5,9999,9999,9999,300795984
73,5,1,Ticks_Pract_5,6,9999,9999,9999,301295680
73,5,1,Ticks_Pract_5,7,9999,9999,9999,301795376
73,5,1,Ticks_Pract_5,8,9999,9999,9999,302295148
73,5,1,Ticks_Pract_5,9,9999,9999,9999,302795872
73,5,1,Ticks_Pract_5,10,9999,9999,9999,303295564
73,5,1,Ticks_Pract_5,11,9999,9999,9999,303795276
73,5,1,Ticks_Pract_5,12,9999,9999,9999,304296016
73,5,1,Ticks_Pract_5,13,9999,9999,9999,304795712
73,5,1,Ticks_Pract_5,14,9999,9999,9999,305295480
73,5,1,Ticks_Pract_5,15,9999,9999,9999,305795148
73,5,1,Ticks_Pract_5,16,9999,9999,9999,306295876
73,5,1,Ticks_Pract_5,17,9999,9999,9999,306795588
73,5,1,Ticks_Pract_5,18,9999,9999,9999,307295284
73,5,1,Ticks_Pract_5,19,9999,9999,9999,307796020
73,5,1,Ticks_Pract_5,20,9999,9999,9999,308295792
73,5,1,Ticks_Pract_5,21,9999,9999,9999,308795488
73,5,1,Ticks_Pract_5,22,9999,9999,9999,309295180
73,5,1,Ticks_Pract_5,23,9999,9999,9999,309795924
73,5,1,Ticks_Pract_5,24,9999,9999,9999,310295620
73,5,1,Ticks_Pract_5,25,9999,9999,9999,310795312
73,5,1,Ticks_Pract_5,26,9999,9999,9999,311296060
73,5,1,Ticks_Pract_5,27,9999,9999,9999,311795820
73,5,1,Ticks_Pract_5,28,9999,9999,9999,312295516
73,5,1,Ticks_Pract_5,29,9999,9999,9999,312795212
73,5,1,Ticks_Pract_5,30,9999,9999,9999,313295952
73,5,1,Ticks_Pract_5,31,9999,9999,9999,313795652
73,5,1,Ticks_Pract_5,32,9999,9999,9999,314295348
73,5,1,Ticks_Pract_5,33,9999,9999,9999,314795120
73,5,1,Ticks_Pract_5,34,9999,9999,9999,315295860
73,5,1,Ticks_Pract_5,35,9999,9999,9999,315795552
73,5,1,Ticks_Pract_5,36,9999,9999,9999,316295224
73,5,1,Ticks_Pract_5,37,9999,9999,9999,316795964
73,5,1,Ticks_Pract_5,38,9999,9999,9999,317295724
73,5,1,Ticks_Pract_5,39,9999,9999,9999,317795420
73,6,2,T1_SMS_8,0,5,42,127,420877892
73,6,2,T1_SMS_8,1,5,42,127,421677496
73,6,2,T1_SMS_8,2,5,42,127,422478148
73,6,2,T1_SMS_8,3,5,42,127,423278052
73,6,2,T1_SMS_8,4,5,42,127,424077756
73,6,2,T1_SMS_8,5,1,48,28,424152384
73,6,2,T1_SMS_8,6,5,42,127,424877344
73,6,2,T1_SMS_8,7,1,48,23,424924368
73,6,2,T1_SMS_8,8,1,48,33,425633352
73,6,2,T1_SMS_8,9,5,42,127,425678116
73,6,2,T1_SMS_8,10,1,48,32,426404660
73,6,2,T1_SMS_8,11,5,42,127,426477924
73,6,2,T1_SMS_8,12,1,48,39,427128452
73,6,2,T1_SMS_8,13,5,42,127,427277864
73,6,2,T1_SMS_8,14,1,48,38,427902528
73,6,2,T1_SMS_8,15,5,42,127,428077376
73,6,2,T1_SMS_8,16,1,48,46,428618708
73,6,2,T1_SMS_8,17,5,42,127,428878156
73,6,2,T1_SMS_8,18,1,48,51,429543008
73,6,2,T1_SMS_8,19,5,42,127,429677888
73,6,2,T1_SMS_8,20,1,48,52,430422624
73,6,2,T1_SMS_8,21,5,42,127,430477884
73,6,2,T1_SMS_8,22,1,48,50,431241532
73,6,2,T1_SMS_8,23,5,42,127,431277544
73,6,2,T1_SMS_8,24,5,42,127,432078184
73,6,2,T1_SMS_8,25,1,48,41,432145700
73,6,2,T1_SMS_8,26,1,48,31,432857080
73,6,2,T1_SMS_8,27,5,42,127,432877912
73,6,2,T1_SMS_8,28,1,48,34,433608272
73,6,2,T1_SMS_8,29,5,42,127,433677792
73,6,2,T1_SMS_8,30,1,48,37,434369108
73,6,2,T1_SMS_8,31,5,42,127,434477512
73,6,2,T1_SMS_8,32,1,48,38,435119256
73,6,2,T1_SMS_8,33,5,42,127,435278144
73,6,2,T1_SMS_8,34,1,48,28,436012260
73,6,2,T1_SMS_8,35,5,42,127,436077892
73,6,2,T1_SMS_8,36,1,48,42,436724176
73,6,2,T1_SMS_8,37,5,42,127,436877784
73,6,2,T1_SMS_8,38,1,48,39,437612696
73,6,2,T1_SMS_8,39,5,42,127,437677604
73,6,2,T1_SMS_8,40,1,48,32,438430628
73,6,2,T1_SMS_8,41,5,42,127,438478088
73,6,2,T1_SMS_8,42,5,42,127,439277828
73,6,2,T1_SMS_8,43,1,48,46,439406756
73,6,2,T1_SMS_8,44,5,42,127,440077560
73,6,2,T1_SMS_8,45,1,48,41,440370692
73,6,2,T1_SMS_8,46,5,42,127,440877664
73,6,2,T1_SMS_8,47,1,48,48,441161752
73,6,2,T1_SMS_8,48,5,42,127,441678148
73,6,2,T1_SMS_8,49,1,48,44,442006612
73,6,2,T1_SMS_8,50,5,42,127,442477956
73,6,2,T1_SMS_8,51,1,48,41,442820856
73,6,2,T1_SMS_8,52,5,42,127,443277564
73,6,2,T1_SMS_8,53,1,48,30,443614752
73,6,2,T1_SMS_8,54,5,42,127,444077596
73,6,2,T1_SMS_8,55,1,48,35,444411420
73,6,2,T1_SMS_8,56,5,42,127,444878080
73,6,2,T1_SMS_8,57,1,48,40,445192232
73,6,2,T1_SMS_8,58,5,42,127,445677888
73,6,2,T1_SMS_8,59,1,48,42,445976932
73,6,2,T1_SMS_8,60,5,42,127,446477768
73,6,2,T1_SMS_8,61,1,48,44,446836424
73,6,2,T1_SMS_8,62,5,42,127,447277576
73,6,2,T1_SMS_8,63,1,48,42,447686444
73,6,2,T1_SMS_8,64,5,42,127,448078136
73,6,2,T1_SMS_8,65,1,48,31,448507352
73,6,2,T1_SMS_8,66,5,42,127,448877868
73,6,2,T1_SMS_8,67,1,48,49,449293092
73,6,2,T1_SMS_8,68,5,42,127,449677624
73,6,2,T1_SMS_8,69,1,48,45,450090212
73,6,2,T1_SMS_8,70,5,42,127,450477360
73,6,2,T1_SMS_8,71,1,48,48,450823144
73,6,2,T1_SMS_8,72,5,42,127,451278284
73,6,2,T1_SMS_8,73,1,48,53,451613760
73,6,2,T1_SMS_8,74,5,42,127,452077800
73,6,2,T1_SMS_8,75,1,48,23,452474900
73,6,2,T1_SMS_8,76,5,42,127,452877680
73,6,2,T1_SMS_8,77,1,48,46,453239028
73,6,2,T1_SMS_8,78,5,42,127,453677412
73,6,2,T1_SMS_8,79,1,48,51,453967628
73,6,2,T1_SMS_8,80,5,42,127,454478340
73,6,2,T1_SMS_8,81,1,48,47,454672668
73,6,2,T1_SMS_8,82,5,42,127,455278000
73,6,2,T1_SMS_8,83,1,48,47,455379876
73,6,2,T1_SMS_8,84,1,48,38,456059516
73,6,2,T1_SMS_8,85,5,42,127,456077604
73,6,2,T1_SMS_8,86,1,48,33,456730972
73,6,2,T1_SMS_8,87,5,42,127,456877396
73,6,2,T1_SMS_8,88,1,48,30,457428308
73,6,2,T1_SMS_8,89,5,42,127,457678400
73,6,2,T1_SMS_8,90,1,48,38,458124216
73,6,2,T1_SMS_8,91,5,42,127,458477836
73,6,2,T1_SMS_8,92,1,48,57,458934576
73,6,2,T1_SMS_8,93,5,42,127,459277644
73,6,2,T1_SMS_8,94,1,48,41,459672004
73,6,2,T1_SMS_8,95,5,42,127,460077304
73,6,2,T1_SMS_8,96,1,48,56,460409032
73,6,2,T1_SMS_8,97,5,42,127,460878304
73,6,2,T1_SMS_8,98,1,48,45,461147208
73,6,2,T1_SMS_8,99,5,42,127,461677888
73,6,2,T1_SMS_8,100,1,48,46,461862488
73,6,2,T1_SMS_8,101,5,42,127,462477572
73,6,2,T1_SMS_8,102,1,48,43,462547856
73,6,2,T1_SMS_8,103,1,48,50,463270828
73,6,2,T1_SMS_8,104,5,42,127,463277372
73,6,2,T1_SMS_8,105,1,48,44,463980180
73,6,2,T1_SMS_8,106,5,42,127,464078076
73,6,2,T1_SMS_8,107,1,48,45,464654552
73,6,2,T1_SMS_8,108,5,42,127,464878240
73,6,2,T1_SMS_8,109,1,48,38,465353604
73,6,2,T1_SMS_8,110,5,42,127,465677676
73,6,2,T1_SMS_8,111,1,48,27,466167552
73,6,2,T1_SMS_8,112,5,42,127,466477484
73,6,2,T1_SMS_8,113,1,48,42,467070732
73,6,2,T1_SMS_8,114,5,42,127,467278116
73,6,2,T1_SMS_8,115,1,48,41,467978356
73,6,2,T1_SMS_8,116,5,42,127,468078148
73,6,2,T1_SMS_8,117,1,48,43,468830520
73,6,2,T1_SMS_8,118,5,42,127,468877624
73,6,2,T1_SMS_8,119,5,42,127,469677364
73,6,2,T1_SMS_8,120,1,48,42,469690352
73,6,2,T1_SMS_8,121,5,42,127,470478220
73,6,2,T1_SMS_8,122,1,48,38,470488296
73,6,2,T1_SMS_8,123,5,42,127,471278100
73,6,2,T1_SMS_8,124,1,48,32,471304260
73,6,2,T1_SMS_8,125,5,42,127,472077760
73,6,2,T1_SMS_8,126,1,48,35,472103760
73,6,2,T1_SMS_8,127,5,42,127,472877492
73,6,2,T1_SMS_8,128,1,48,36,472943216
73,6,2,T1_SMS_8,129,5,42,127,473678124
73,6,2,T1_SMS_8,130,1,48,39,473683484
73,6,2,T1_SMS_8,131,1,48,45,474477860
73,6,2,T1_SMS_8,132,5,42,127,474479268
73,6,2,T1_SMS_8,133,1,48,35,474528928
73,6,2,T1_SMS_8,134,5,42,127,475277968
73,6,2,T1_SMS_8,135,1,48,39,475311004
73,6,2,T1_SMS_8,136,5,42,127,476077404
73,6,2,T1_SMS_8,137,1,48,33,476097580
73,6,2,T1_SMS_8,138,5,42,127,476878256
73,6,2,T1_SMS_8,139,1,48,37,476890428
73,6,2,T1_SMS_8,140,5,42,127,477677916
73,6,2,T1_SMS_8,141,1,48,29,477930960
73,6,2,T1_SMS_8,142,5,42,127,478477796
73,6,2,T1_SMS_8,143,1,48,48,478843040
73,6,2,T1_SMS_8,144,5,42,127,479277308
73,6,2,T1_SMS_8,145,1,48,46,479713480
73,6,2,T1_SMS_8,146,5,42,127,480078160
73,6,2,T1_SMS_8,147,1,48,50,480665444
73,6,2,T1_SMS_8,148,5,42,127,480878044
73,6,2,T1_SMS_8,149,1,48,45,481604680
73,6,2,T1_SMS_8,150,5,42,127,481677892
73,6,2,T1_SMS_8,151,5,42,127,482477408
73,6,2,T1_SMS_8,152,1,48,38,482521368
73,6,2,T1_SMS_8,153,5,42,127,483278112
73,6,2,T1_SMS_8,154,1,48,45,483367176
73,6,2,T1_SMS_8,155,5,42,127,484077920
73,6,2,T1_SMS_8,156,1,48,36,484214328
73,6,2,T1_SMS_8,157,5,42,127,484877804
73,6,2,T1_SMS_8,158,1,48,36,485052984
73,6,2,T1_SMS_8,159,5,42,127,485677392
73,6,2,T1_SMS_8,160,1,48,43,485906196
73,6,2,T1_SMS_8,161,5,42,127,486478172
73,6,2,T1_SMS_8,162,1,48,43,486832888
73,6,2,T1_SMS_8,163,5,42,127,487277904
73,6,2,T1_SMS_8,164,1,48,45,487611528
73,6,2,T1_SMS_8,165,5,42,127,488077660
73,6,2,T1_SMS_8,166,1,48,48,488373712
73,6,2,T1_SMS_8,167,5,42,127,488877544
73,6,2,T1_SMS_8,168,1,48,41,489264096
73,6,2,T1_SMS_8,169,5,42,127,489678248
73,6,2,T1_SMS_8,170,1,48,40,490043492
73,6,2,T1_SMS_8,171,1,48,22,490110708
73,6,2,T1_SMS_8,172,5,42,127,490477888
73,6,2,T1_SMS_8,173,1,48,48,491006804
73,6,2,T1_SMS_8,174,5,42,127,491277768
73,6,2,T1_SMS_8,175,1,48,47,491777668
73,6,2,T1_SMS_8,176,5,42,127,492077280
73,6,2,T1_SMS_8,177,1,48,47,492532524
73,6,2,T1_SMS_8,178,5,42,127,492878284
73,6,2,T1_SMS_8,179,1,48,36,493334652
73,6,2,T1_SMS_8,180,5,42,127,493678016
73,6,2,T1_SMS_8,181,1,48,42,494167152
73,6,2,T1_SMS_8,182,5,42,127,494477776
73,6,2,T1_SMS_8,183,1,48,55,494931724
73,6,2,T1_SMS_8,184,5,42,127,495277508
73,6,2,T1_SMS_8,185,1,48,44,495731084
73,6,2,T1_SMS_8,186,5,42,127,496078212
73,6,2,T1_SMS_8,187,1,48,46,496511072
73,6,2,T1_SMS_8,188,5,42,127,496877948
73,6,2,T1_SMS_8,189,1,48,51,497296620
73,6,2,T1_SMS_8,190,1,48,39,497337436
73,6,2,T1_SMS_8,191,5,42,127,497677656
73,6,2,T1_SMS_8,192,1,48,55,498149356
73,6,2,T1_SMS_8,193,1,48,22,498217848
73,6,2,T1_SMS_8,194,5,42,127,498477592
73,6,2,T1_SMS_8,195,1,48,44,498994992
73,6,2,T1_SMS_8,196,1,48,20,499072908
73,6,2,T1_SMS_8,197,5,42,127,499278200
73,6,2,T1_SMS_8,198,1,48,48,499778700
73,6,2,T1_SMS_8,199,5,42,127,500077860
73,6,2,T1_SMS_8,200,1,48,43,500600792
73,6,2,T1_SMS_8,201,5,42,127,500877616
73,6,2,T1_SMS_8,202,1,48,42,501464280
73,6,2,T1_SMS_8,203,5,42,127,501677648
73,6,2,T1_SMS_8,204,1,48,44,502273364
73,6,2,T1_SMS_8,205,5,42,127,502478352
73,6,2,T1_SMS_8,206,1,48,48,503158292
73,6,2,T1_SMS_8,207,5,42,127,503277860
73,6,2,T1_SMS_8,208,1,48,38,503971140
73,6,2,T1_SMS_8,209,5,42,127,504077672
73,6,2,T1_SMS_8,210,1,48,44,504785604
73,6,2,T1_SMS_8,211,5,42,127,504877568
73,6,2,T1_SMS_8,212,5,42,127,505678132
73,6,2,T1_SMS_8,213,1,48,42,505685956
73,6,2,T1_SMS_8,214,5,42,127,506477864
73,6,2,T1_SMS_8,215,1,48,48,506532464
73,6,2,T1_SMS_8,216,1,48,36,506567976
73,6,2,T1_SMS_8,217,5,42,127,507277676
73,6,2,T1_SMS_8,218,1,48,49,507358584
73,6,2,T1_SMS_8,219,1,48,35,507397684
73,6,2,T1_SMS_8,220,5,42,127,508077536
73,6,2,T1_SMS_8,221,1,48,49,508189336
73,6,2,T1_SMS_8,222,1,48,34,508225740
73,6,2,T1_SMS_8,223,5,42,127,508878296
73,6,2,T1_SMS_8,224,1,48,51,509022928
73,6,2,T1_SMS_8,225,1,48,39,509060704
73,6,2,T1_SMS_8,226,5,42,127,509677856
73,6,2,T1_SMS_8,227,1,48,50,509868892
73,6,2,T1_SMS_8,228,1,48,40,509901860
73,6,2,T1_SMS_8,229,5,42,127,510477644
73,6,2,T1_SMS_8,230,1,48,60,510749384
73,6,2,T1_SMS_8,231,1,48,43,510780176
73,6,2,T1_SMS_8,232,5,42,127,511277356
73,6,2,T1_SMS_8,233,1,48,60,511567052
73,6,2,T1_SMS_8,234,5,42,127,512078208
73,6,2,T1_SMS_8,235,1,48,59,512346440
73,6,2,T1_SMS_8,236,1,48,48,512375804
73,6,2,T1_SMS_8,237,5,42,127,512877920
73,6,2,T1_SMS_8,238,1,48,51,513200400
73,6,2,T1_SMS_8,239,1,48,40,513234852
73,6,2,T1_SMS_8,240,5,42,127,513677580
73,6,2,T1_SMS_8,241,1,48,45,514098248
73,6,2,T1_SMS_8,242,5,42,127,514477316
73,6,2,T1_SMS_8,243,1,48,48,514954772
73,6,2,T1_SMS_8,244,1,48,34,514997540
73,6,2,T1_SMS_8,245,5,42,127,515278444
73,6,2,T1_SMS_8,246,1,48,50,515871396
73,6,2,T1_SMS_8,247,5,42,127,516077880
73,6,2,T1_SMS_8,248,1,48,51,516691620
73,6,2,T1_SMS_8,249,1,48,31,516751912
73,6,2,T1_SMS_8,0,9999,9999,9999,420875376
73,6,2,T1_SMS_8,1,9999,9999,9999,421675056
73,6,2,T1_SMS_8,2,9999,9999,9999,422475856
73,6,2,T1_SMS_8,3,9999,9999,9999,423275612
73,6,2,T1_SMS_8,4,9999,9999,9999,424075316
73,6,2,T1_SMS_8,5,9999,9999,9999,424875124
73,6,2,T1_SMS_8,6,9999,9999,9999,425675824
73,6,2,T1_SMS_8,7,9999,9999,9999,426475632
73,6,2,T1_SMS_8,8,9999,9999,9999,427275352
73,6,2,T1_SMS_8,9,9999,9999,9999,428075084
73,6,2,T1_SMS_8,10,9999,9999,9999,428875864
73,6,2,T1_SMS_8,11,9999,9999,9999,429675596
73,6,2,T1_SMS_8,12,9999,9999,9999,430475368
73,6,2,T1_SMS_8,13,9999,9999,9999,431275104
73,6,2,T1_SMS_8,14,9999,9999,9999,432075892
73,6,2,T1_SMS_8,15,9999,9999,9999,432875620
73,6,2,T1_SMS_8,16,9999,9999,9999,433675352
73,6,2,T1_SMS_8,17,9999,9999,9999,434475072
73,6,2,T1_SMS_8,18,9999,9999,9999,435275852
73,6,2,T1_SMS_8,19,9999,9999,9999,436075600
73,6,2,T1_SMS_8,20,9999,9999,9999,436875344
73,6,2,T1_SMS_8,21,9999,9999,9999,437675088
73,6,2,T1_SMS_8,22,9999,9999,9999,438475868
73,6,2,T1_SMS_8,23,9999,9999,9999,439275608
73,6,2,T1_SMS_8,24,9999,9999,9999,440075340
73,6,2,T1_SMS_8,25,9999,9999,9999,440875076
73,6,2,T1_SMS_8,26,9999,9999,9999,441675856
73,6,2,T1_SMS_8,27,9999,9999,9999,442475588
73,6,2,T1_SMS_8,28,9999,9999,9999,443275348
73,6,2,T1_SMS_8,29,9999,9999,9999,444075080
73,6,2,T1_SMS_8,30,9999,9999,9999,444875864
73,6,2,T1_SMS_8,31,9999,9999,9999,445675596
73,6,2,T1_SMS_8,32,9999,9999,9999,446475328
73,6,2,T1_SMS_8,33,9999,9999,9999,447275060
73,6,2,T1_SMS_8,34,9999,9999,9999,448075844
73,6,2,T1_SMS_8,35,9999,9999,9999,448875576
73,6,2,T1_SMS_8,36,9999,9999,9999,449675332
73,6,2,T1_SMS_8,37,9999,9999,9999,450475068
73,6,2,T1_SMS_8,38,9999,9999,9999,451275844
73,6,2,T1_SMS_8,39,9999,9999,9999,452075580
73,6,2,T1_SMS_8,40,9999,9999,9999,452875312
73,6,2,T1_SMS_8,41,9999,9999,9999,453675120
73,6,2,T1_SMS_8,42,9999,9999,9999,454475824
73,6,2,T1_SMS_8,43,9999,9999,9999,455275632
73,6,2,T1_SMS_8,44,9999,9999,9999,456075312
73,6,2,T1_SMS_8,45,9999,9999,9999,456875104
73,6,2,T1_SMS_8,46,9999,9999,9999,457675884
73,6,2,T1_SMS_8,47,9999,9999,9999,458475616
73,6,2,T1_SMS_8,48,9999,9999,9999,459275352
73,6,2,T1_SMS_8,49,9999,9999,9999,460075084
73,6,2,T1_SMS_8,50,9999,9999,9999,460875864
73,6,2,T1_SMS_8,51,9999,9999,9999,461675596
73,6,2,T1_SMS_8,52,9999,9999,9999,462475356
73,6,2,T1_SMS_8,53,9999,9999,9999,463275080
73,6,2,T1_SMS_8,54,9999,9999,9999,464075860
73,6,2,T1_SMS_8,55,9999,9999,9999,464875580
73,6,2,T1_SMS_8,56,9999,9999,9999,465675312
73,6,2,T1_SMS_8,57,9999,9999,9999,466475120
73,6,2,T1_SMS_8,58,9999,9999,9999,467275824
73,6,2,T1_SMS_8,59,9999,9999,9999,468075632
73,6,2,T1_SMS_8,60,9999,9999,9999,468875332
73,6,2,T1_SMS_8,61,9999,9999,9999,469675072
73,6,2,T1_SMS_8,62,9999,9999,9999,470475852
73,6,2,T1_SMS_8,63,9999,9999,9999,471275584
73,6,2,T1_SMS_8,64,9999,9999,9999,472075320
73,6,2,T1_SMS_8,65,9999,9999,9999,472875128
73,6,2,T1_SMS_8,66,9999,9999,9999,473675832
73,6,2,T1_SMS_8,67,9999,9999,9999,474475568
73,6,2,T1_SMS_8,68,9999,9999,9999,475275376
73,6,2,T1_SMS_8,69,9999,9999,9999,476075112
73,6,2,T1_SMS_8,70,9999,9999,9999,476875892
73,6,2,T1_SMS_8,71,9999,9999,9999,477675624
73,6,2,T1_SMS_8,72,9999,9999,9999,478475356
73,6,2,T1_SMS_8,73,9999,9999,9999,479275088
73,6,2,T1_SMS_8,74,9999,9999,9999,480075872
73,6,2,T1_SMS_8,75,9999,9999,9999,480875604
73,6,2,T1_SMS_8,76,9999,9999,9999,481675376
73,6,2,T1_SMS_8,77,9999,9999,9999,482475116
73,6,2,T1_SMS_8,78,9999,9999,9999,483275820
73,6,2,T1_SMS_8,79,9999,9999,9999,484075628
73,6,2,T1_SMS_8,80,9999,9999,9999,484875364
73,6,2,T1_SMS_8,81,9999,9999,9999,485675100
73,6,2,T1_SMS_8,82,9999,9999,9999,486475880
73,6,2,T1_SMS_8,83,9999,9999,9999,487275612
73,6,2,T1_SMS_8,84,9999,9999,9999,488075372
73,6,2,T1_SMS_8,85,9999,9999,9999,488875104
73,6,2,T1_SMS_8,86,9999,9999,9999,489675884
73,6,2,T1_SMS_8,87,9999,9999,9999,490475596
73,6,2,T1_SMS_8,88,9999,9999,9999,491275328
73,6,2,T1_SMS_8,89,9999,9999,9999,492075064
73,6,2,T1_SMS_8,90,9999,9999,9999,492875844
73,6,2,T1_SMS_8,91,9999,9999,9999,493675576
73,6,2,T1_SMS_8,92,9999,9999,9999,494475336
73,6,2,T1_SMS_8,93,9999,9999,9999,495275068
73,6,2,T1_SMS_8,94,9999,9999,9999,496075848
73,6,2,T1_SMS_8,95,9999,9999,9999,496875580
73,6,2,T1_SMS_8,96,9999,9999,9999,497675364
73,6,2,T1_SMS_8,97,9999,9999,9999,498475076
73,6,2,T1_SMS_8,98,9999,9999,9999,499275832
73,6,2,T1_SMS_8,99,9999,9999,9999,500075568
73,6,2,T1_SMS_8,100,9999,9999,9999,500875324
73,6,2,T1_SMS_8,101,9999,9999,9999,501675056
73,6,2,T1_SMS_8,102,9999,9999,9999,502475836
73,6,2,T1_SMS_8,103,9999,9999,9999,503275568
73,6,2,T1_SMS_8,104,9999,9999,9999,504075376
73,6,2,T1_SMS_8,105,9999,9999,9999,504875052
73,6,2,T1_SMS_8,106,9999,9999,9999,505675840
73,6,2,T1_SMS_8,107,9999,9999,9999,506475572
73,6,2,T1_SMS_8,108,9999,9999,9999,507275384
73,6,2,T1_SMS_8,109,9999,9999,9999,508075096
73,6,2,T1_SMS_8,110,9999,9999,9999,508875856
73,6,2,T1_SMS_8,111,9999,9999,9999,509675564
73,6,2,T1_SMS_8,112,9999,9999,9999,510475352
73,6,2,T1_SMS_8,113,9999,9999,9999,511275064
73,6,2,T1_SMS_8,114,9999,9999,9999,512075844
73,6,2,T1_SMS_8,115,9999,9999,9999,512875628
73,6,2,T1_SMS_8,116,9999,9999,9999,513675364
73,6,2,T1_SMS_8,117,9999,9999,9999,514475096
73,6,2,T1_SMS_8,118,9999,9999,9999,515275856
73,6,2,T1_SMS_8,119,9999,9999,9999,516075588
73,7,4,T1_SMS_5,0,5,42,127,587271472
73,7,4,T1_SMS_5,1,5,42,127,587772312
73,7,4,T1_SMS_5,2,5,42,127,588272028
73,7,4,T1_SMS_5,3,5,42,127,588771968
73,7,4,T1_SMS_5,4,5,42,127,589272508
73,7,4,T1_SMS_5,5,1,48,35,589289840
73,7,4,T1_SMS_5,6,1,48,29,589723096
73,7,4,T1_SMS_5,7,5,42,127,589772196
73,7,4,T1_SMS_5,8,1,48,27,590212472
73,7,4,T1_SMS_5,9,5,42,127,590271968
73,7,4,T1_SMS_5,10,1,48,37,590655668
73,7,4,T1_SMS_5,11,5,42,127,590771572
73,7,4,T1_SMS_5,12,1,48,35,591143996
73,7,4,T1_SMS_5,13,5,42,127,591272164
73,7,4,T1_SMS_5,14,1,48,40,591624540
73,7,4,T1_SMS_5,15,5,42,127,591772084
73,7,4,T1_SMS_5,16,1,48,42,592146680
73,7,4,T1_SMS_5,17,5,42,127,592271928
73,7,4,T1_SMS_5,18,1,48,38,592616220
73,7,4,T1_SMS_5,19,5,42,127,592771324
73,7,4,T1_SMS_5,20,1,48,22,593145764
73,7,4,T1_SMS_5,21,5,42,127,593272120
73,7,4,T1_SMS_5,22,1,48,28,593678672
73,7,4,T1_SMS_5,23,5,42,127,593771904
73,7,4,T1_SMS_5,24,1,48,40,594146508
73,7,4,T1_SMS_5,25,5,42,127,594271732
73,7,4,T1_SMS_5,26,1,48,45,594625476
73,7,4,T1_SMS_5,27,5,42,127,594772476
73,7,4,T1_SMS_5,28,1,48,42,595120240
73,7,4,T1_SMS_5,29,5,42,127,595272020
73,7,4,T1_SMS_5,30,1,48,43,595590908
73,7,4,T1_SMS_5,31,5,42,127,595771640
73,7,4,T1_SMS_5,32,1,48,45,596100628
73,7,4,T1_SMS_5,33,5,42,127,596271560
73,7,4,T1_SMS_5,34,1,48,55,596512260
73,7,4,T1_SMS_5,35,5,42,127,596772152
73,7,4,T1_SMS_5,36,1,48,49,597013604
73,7,4,T1_SMS_5,37,5,42,127,597271848
73,7,4,T1_SMS_5,38,1,48,46,597493848
73,7,4,T1_SMS_5,39,5,42,127,597771764
73,7,4,T1_SMS_5,40,1,48,35,597987112
73,7,4,T1_SMS_5,41,5,42,127,598272360
73,7,4,T1_SMS_5,42,1,48,44,598431304
73,7,4,T1_SMS_5,43,5,42,127,598772128
73,7,4,T1_SMS_5,44,1,48,40,598895072
73,7,4,T1_SMS_5,45,5,42,127,599271824
73,7,4,T1_SMS_5,46,1,48,38,599397764
73,7,4,T1_SMS_5,47,5,42,127,599771668
73,7,4,T1_SMS_5,48,1,48,43,599881520
73,7,4,T1_SMS_5,49,5,42,127,600272184
73,7,4,T1_SMS_5,50,1,48,45,600394832
73,7,4,T1_SMS_5,51,5,42,127,600772104
73,7,4,T1_SMS_5,52,1,48,48,600937836
73,7,4,T1_SMS_5,53,5,42,127,601271724
73,7,4,T1_SMS_5,54,1,48,43,601436856
73,7,4,T1_SMS_5,55,5,42,127,601772540
73,7,4,T1_SMS_5,56,1,48,47,601917852
73,7,4,T1_SMS_5,57,5,42,127,602272160
73,7,4,T1_SMS_5,58,1,48,46,602412088
73,7,4,T1_SMS_5,59,5,42,127,602771856
73,7,4,T1_SMS_5,60,1,48,45,602922996
73,7,4,T1_SMS_5,61,5,42,127,603271624
73,7,4,T1_SMS_5,62,1,48,43,603417456
73,7,4,T1_SMS_5,63,5,42,127,603772488
73,7,4,T1_SMS_5,64,1,48,44,603909796
73,7,4,T1_SMS_5,65,5,42,127,604271936
73,7,4,T1_SMS_5,66,1,48,46,604398648
73,7,4,T1_SMS_5,67,5,42,127,604771704
73,7,4,T1_SMS_5,68,1,48,42,604884576
73,7,4,T1_SMS_5,69,5,42,127,605272668
73,7,4,T1_SMS_5,70,1,48,40,605393096
73,7,4,T1_SMS_5,71,5,42,127,605772140
73,7,4,T1_SMS_5,72,1,48,44,605852776
73,7,4,T1_SMS_5,73,5,42,127,606271760
73,7,4,T1_SMS_5,74,1,48,43,606297468
73,7,4,T1_SMS_5,75,5,42,127,606771676
73,7,4,T1_SMS_5,76,1,48,41,606786616
73,7,4,T1_SMS_5,77,5,42,127,607272492
73,7,4,T1_SMS_5,78,1,48,42,607277192
73,7,4,T1_SMS_5,79,1,48,42,607716876
73,7,4,T1_SMS_5,80,5,42,127,607772032
73,7,4,T1_SMS_5,81,1,48,36,608214472
73,7,4,T1_SMS_5,82,5,42,127,608271656
73,7,4,T1_SMS_5,83,1,48,36,608726584
73,7,4,T1_SMS_5,84,5,42,127,608771648
73,7,4,T1_SMS_5,85,1,48,34,609266220
73,7,4,T1_SMS_5,86,5,42,127,609272164
73,7,4,T1_SMS_5,87,5,42,127,609771940
73,7,4,T1_SMS_5,88,1,48,35,609799068
73,7,4,T1_SMS_5,89,5,42,127,610271560
73,7,4,T1_SMS_5,90,1,48,37,610312232
73,7,4,T1_SMS_5,91,5,42,127,610772528
73,7,4,T1_SMS_5,92,1,48,29,610821872
73,7,4,T1_SMS_5,93,5,42,127,611271924
73,7,4,T1_SMS_5,94,1,48,37,611309828
73,7,4,T1_SMS_5,95,5,42,127,611771844
73,7,4,T1_SMS_5,96,1,48,43,611787676
73,7,4,T1_SMS_5,97,5,42,127,612271464
73,7,4,T1_SMS_5,98,1,48,46,612283708
73,7,4,T1_SMS_5,99,5,42,127,612772056
73,7,4,T1_SMS_5,100,1,48,42,612786164
73,7,4,T1_SMS_5,101,5,42,127,613271972
73,7,4,T1_SMS_5,102,1,48,40,613291548
73,7,4,T1_SMS_5,103,1,48,40,613766396
73,7,4,T1_SMS_5,104,5,42,127,613771664
73,7,4,T1_SMS_5,105,1,48,25,614221704
73,7,4,T1_SMS_5,106,5,42,127,614272628
73,7,4,T1_SMS_5,107,1,48,15,614702628
73,7,4,T1_SMS_5,108,5,42,127,614772000
73,7,4,T1_SMS_5,109,1,48,22,615186544
73,7,4,T1_SMS_5,110,5,42,127,615271768
73,7,4,T1_SMS_5,111,1,48,36,615630360
73,7,4,T1_SMS_5,112,5,42,127,615771452
73,7,4,T1_SMS_5,113,1,48,25,616093708
73,7,4,T1_SMS_5,114,5,42,127,616272488
73,7,4,T1_SMS_5,115,1,48,43,616532936
73,7,4,T1_SMS_5,116,5,42,127,616771960
73,7,4,T1_SMS_5,117,1,48,39,616975260
73,7,4,T1_SMS_5,118,5,42,127,617271656
73,7,4,T1_SMS_5,119,1,48,37,617465756
73,7,4,T1_SMS_5,120,5,42,127,617772548
73,7,4,T1_SMS_5,121,1,48,19,617928428
73,7,4,T1_SMS_5,122,5,42,127,618272388
73,7,4,T1_SMS_5,123,1,48,41,618352852
73,7,4,T1_SMS_5,124,5,42,127,618771860
73,7,4,T1_SMS_5,125,1,48,41,618832424
73,7,4,T1_SMS_5,126,5,42,127,619271408
73,7,4,T1_SMS_5,127,1,48,36,619310132
73,7,4,T1_SMS_5,128,5,42,127,619772448
73,7,4,T1_SMS_5,129,1,48,37,619775120
73,7,4,T1_SMS_5,130,5,42,127,620272068
73,7,4,T1_SMS_5,131,1,48,40,620275632
73,7,4,T1_SMS_5,132,1,48,41,620753916
73,7,4,T1_SMS_5,133,5,42,127,620771680
73,7,4,T1_SMS_5,134,1,48,41,621223172
73,7,4,T1_SMS_5,135,5,42,127,621272420
73,7,4,T1_SMS_5,136,1,48,37,621734384
73,7,4,T1_SMS_5,137,5,42,127,621772268
73,7,4,T1_SMS_5,138,1,48,38,622236924
73,7,4,T1_SMS_5,139,5,42,127,622271736
73,7,4,T1_SMS_5,140,1,48,44,622720760
73,7,4,T1_SMS_5,141,5,42,127,622771580
73,7,4,T1_SMS_5,142,1,48,34,623202924
73,7,4,T1_SMS_5,143,5,42,127,623272248
73,7,4,T1_SMS_5,144,1,48,45,623646148
73,7,4,T1_SMS_5,145,1,48,27,623696388
73,7,4,T1_SMS_5,146,5,42,127,623772144
73,7,4,T1_SMS_5,147,1,48,39,624160184
73,7,4,T1_SMS_5,148,5,42,127,624271752
73,7,4,T1_SMS_5,149,1,48,37,624641776
73,7,4,T1_SMS_5,150,5,42,127,624771520
73,7,4,T1_SMS_5,151,1,48,35,625086724
73,7,4,T1_SMS_5,152,5,42,127,625272312
73,7,4,T1_SMS_5,153,1,48,41,625519296
73,7,4,T1_SMS_5,154,5,42,127,625771856
73,7,4,T1_SMS_5,155,1,48,43,625968280
73,7,4,T1_SMS_5,156,5,42,127,626271476
73,7,4,T1_SMS_5,157,1,48,42,626376792
73,7,4,T1_SMS_5,158,5,42,127,626772292
73,7,4,T1_SMS_5,159,1,48,38,626826300
73,7,4,T1_SMS_5,160,5,42,127,627272208
73,7,4,T1_SMS_5,161,1,48,45,627283408
73,7,4,T1_SMS_5,162,1,48,46,627654280
73,7,4,T1_SMS_5,163,5,42,127,627771732
73,7,4,T1_SMS_5,164,1,48,37,628112392
73,7,4,T1_SMS_5,165,5,42,127,628271428
73,7,4,T1_SMS_5,166,1,48,39,628460516
73,7,4,T1_SMS_5,167,1,48,21,628538664
73,7,4,T1_SMS_5,168,5,42,127,628772220
73,7,4,T1_SMS_5,169,1,48,44,628908584
73,7,4,T1_SMS_5,170,5,42,127,629272064
73,7,4,T1_SMS_5,171,1,48,21,629348716
73,7,4,T1_SMS_5,172,1,48,35,629734172
73,7,4,T1_SMS_5,173,5,42,127,629771604
73,7,4,T1_SMS_5,174,1,48,35,630213444
73,7,4,T1_SMS_5,175,5,42,127,630272348
73,7,4,T1_SMS_5,176,1,48,38,630696988
73,7,4,T1_SMS_5,177,5,42,127,630772192
73,7,4,T1_SMS_5,178,1,48,39,631253524
73,7,4,T1_SMS_5,179,5,42,127,631271736
73,7,4,T1_SMS_5,180,5,42,127,631771436
73,7,4,T1_SMS_5,181,1,48,32,631813452
73,7,4,T1_SMS_5,182,5,42,127,632272256
73,7,4,T1_SMS_5,183,1,48,30,632405220
73,7,4,T1_SMS_5,184,5,42,127,632772020
73,7,4,T1_SMS_5,185,1,48,41,632860408
73,7,4,T1_SMS_5,186,5,42,127,633271716
73,7,4,T1_SMS_5,187,1,48,35,633372000
73,7,4,T1_SMS_5,188,5,42,127,633772532
73,7,4,T1_SMS_5,189,1,48,27,633883812
73,7,4,T1_SMS_5,190,5,42,127,634272152
73,7,4,T1_SMS_5,191,1,48,36,634355676
73,7,4,T1_SMS_5,192,5,42,127,634771924
73,7,4,T1_SMS_5,193,1,48,37,634831664
73,7,4,T1_SMS_5,194,5,42,127,635271616
73,7,4,T1_SMS_5,195,1,48,41,635298376
73,7,4,T1_SMS_5,196,5,42,127,635772188
73,7,4,T1_SMS_5,197,1,48,35,635773152
73,7,4,T1_SMS_5,198,1,48,46,636213548
73,7,4,T1_SMS_5,199,5,42,127,636272076
73,7,4,T1_SMS_5,200,1,48,31,636277424
73,7,4,T1_SMS_5,201,1,48,36,636738424
73,7,4,T1_SMS_5,202,5,42,127,636771672
73,7,4,T1_SMS_5,203,1,48,21,636806888
73,7,4,T1_SMS_5,204,1,48,37,637223736
73,7,4,T1_SMS_5,205,5,42,127,637272392
73,7,4,T1_SMS_5,206,1,48,35,637761504
73,7,4,T1_SMS_5,207,5,42,127,637772088
73,7,4,T1_SMS_5,208,1,48,35,638249608
73,7,4,T1_SMS_5,209,5,42,127,638271932
73,7,4,T1_SMS_5,210,1,48,41,638748256
73,7,4,T1_SMS_5,211,5,42,127,638771552
73,7,4,T1_SMS_5,212,1,48,40,639232540
73,7,4,T1_SMS_5,213,5,42,127,639272216
73,7,4,T1_SMS_5,214,1,48,42,639743828
73,7,4,T1_SMS_5,215,5,42,127,639772060
73,7,4,T1_SMS_5,216,1,48,42,640237316
73,7,4,T1_SMS_5,217,5,42,127,640271684
73,7,4,T1_SMS_5,218,1,48,36,640732376
73,7,4,T1_SMS_5,219,5,42,127,640771304
73,7,4,T1_SMS_5,220,1,48,42,641215912
73,7,4,T1_SMS_5,221,5,42,127,641272120
73,7,4,T1_SMS_5,222,1,48,46,641691752
73,7,4,T1_SMS_5,223,5,42,127,641771816
73,7,4,T1_SMS_5,224,1,48,40,642190772
73,7,4,T1_SMS_5,225,5,42,127,642271732
73,7,4,T1_SMS_5,226,1,48,46,642696068
73,7,4,T1_SMS_5,227,5,42,127,642772328
73,7,4,T1_SMS_5,228,1,48,40,643205492
73,7,4,T1_SMS_5,229,5,42,127,643272020
73,7,4,T1_SMS_5,230,1,48,40,643671652
73,7,4,T1_SMS_5,231,5,42,127,643771700
73,7,4,T1_SMS_5,232,1,48,43,644174784
73,7,4,T1_SMS_5,233,5,42,127,644271320
73,7,4,T1_SMS_5,234,1,48,43,644668348
73,7,4,T1_SMS_5,235,5,42,127,644772136
73,7,4,T1_SMS_5,236,1,48,49,645170216
73,7,4,T1_SMS_5,237,5,42,127,645271980
73,7,4,T1_SMS_5,238,1,48,43,645712092
73,7,4,T1_SMS_5,239,5,42,127,645771912
73,7,4,T1_SMS_5,240,1,48,46,646209992
73,7,4,T1_SMS_5,241,5,42,127,646272428
73,7,4,T1_SMS_5,242,1,48,40,646699512
73,7,4,T1_SMS_5,243,5,42,127,646771952
73,7,4,T1_SMS_5,244,1,48,46,647170932
73,7,4,T1_SMS_5,245,5,42,127,647271928
73,7,4,T1_SMS_5,246,1,48,43,647676016
73,7,4,T1_SMS_5,247,5,42,127,647771492
73,7,4,T1_SMS_5,248,1,48,40,648246016
73,7,4,T1_SMS_5,249,5,42,127,648272236
73,7,4,T1_SMS_5,250,1,48,39,648687224
73,7,4,T1_SMS_5,251,5,42,127,648771928
73,7,4,T1_SMS_5,252,1,48,45,649150792
73,7,4,T1_SMS_5,253,5,42,127,649271832
73,7,4,T1_SMS_5,254,1,48,43,649634700
73,7,4,T1_SMS_5,255,5,42,127,649772352
73,7,4,T1_SMS_5,256,1,48,46,650121236
73,7,4,T1_SMS_5,257,5,42,127,650272192
73,7,4,T1_SMS_5,258,1,48,43,650587176
73,7,4,T1_SMS_5,259,5,42,127,650771964
73,7,4,T1_SMS_5,260,1,48,46,651074072
73,7,4,T1_SMS_5,261,5,42,127,651271880
73,7,4,T1_SMS_5,262,1,48,45,651559112
73,7,4,T1_SMS_5,263,5,42,127,651772324
73,7,4,T1_SMS_5,264,1,48,52,652011084
73,7,4,T1_SMS_5,0,9999,9999,9999,587269184
73,7,4,T1_SMS_5,1,9999,9999,9999,587769948
73,7,4,T1_SMS_5,2,9999,9999,9999,588269668
73,7,4,T1_SMS_5,3,9999,9999,9999,588769384
73,7,4,T1_SMS_5,4,9999,9999,9999,589270072
73,7,4,T1_SMS_5,5,9999,9999,9999,589769836
73,7,4,T1_SMS_5,6,9999,9999,9999,590269532
73,7,4,T1_SMS_5,7,9999,9999,9999,590769212
73,7,4,T1_SMS_5,8,9999,9999,9999,591269952
73,7,4,T1_SMS_5,9,9999,9999,9999,591769648
73,7,4,T1_SMS_5,10,9999,9999,9999,592269420
73,7,4,T1_SMS_5,11,9999,9999,9999,592769112
73,7,4,T1_SMS_5,12,9999,9999,9999,593269832
73,7,4,T1_SMS_5,13,9999,9999,9999,593769544
73,7,4,T1_SMS_5,14,9999,9999,9999,594269296
73,7,4,T1_SMS_5,15,9999,9999,9999,594770040
73,7,4,T1_SMS_5,16,9999,9999,9999,595269732
73,7,4,T1_SMS_5,17,9999,9999,9999,595769428
73,7,4,T1_SMS_5,18,9999,9999,9999,596269124
73,7,4,T1_SMS_5,19,9999,9999,9999,596769864
73,7,4,T1_SMS_5,20,9999,9999,9999,597269560
73,7,4,T1_SMS_5,21,9999,9999,9999,597769328
73,7,4,T1_SMS_5,22,9999,9999,9999,598270072
73,7,4,T1_SMS_5,23,9999,9999,9999,598769768
73,7,4,T1_SMS_5,24,9999,9999,9999,599269460
73,7,4,T1_SMS_5,25,9999,9999,9999,599769156
73,7,4,T1_SMS_5,26,9999,9999,9999,600269900
73,7,4,T1_SMS_5,27,9999,9999,9999,600769592
73,7,4,T1_SMS_5,28,9999,9999,9999,601269364
73,7,4,T1_SMS_5,29,9999,9999,9999,601770104
73,7,4,T1_SMS_5,30,9999,9999,9999,602269800
73,7,4,T1_SMS_5,31,9999,9999,9999,602769492
73,7,4,T1_SMS_5,32,9999,9999,9999,603269188
73,7,4,T1_SMS_5,33,9999,9999,9999,603769904
73,7,4,T1_SMS_5,34,9999,9999,9999,604269648
73,7,4,T1_SMS_5,35,9999,9999,9999,604769344
73,7,4,T1_SMS_5,36,9999,9999,9999,605270084
73,7,4,T1_SMS_5,37,9999,9999,9999,605769780
73,7,4,T1_SMS_5,38,9999,9999,9999,606269548
73,7,4,T1_SMS_5,39,9999,9999,9999,606769244
73,7,4,T1_SMS_5,40,9999,9999,9999,607269984
73,7,4,T1_SMS_5,41,9999,9999,9999,607769672
73,7,4,T1_SMS_5,42,9999,9999,9999,608269368
73,7,4,T1_SMS_5,43,9999,9999,9999,608769136
73,7,4,T1_SMS_5,44,9999,9999,9999,609269880
73,7,4,T1_SMS_5,45,9999,9999,9999,609769580
73,7,4,T1_SMS_5,46,9999,9999,9999,610269276
73,7,4,T1_SMS_5,47,9999,9999,9999,610770020
73,7,4,T1_SMS_5,48,9999,9999,9999,611269712
73,7,4,T1_SMS_5,49,9999,9999,9999,611769408
73,7,4,T1_SMS_5,50,9999,9999,9999,612269176
73,7,4,T1_SMS_5,51,9999,9999,9999,612769844
73,7,4,T1_SMS_5,52,9999,9999,9999,613269612
73,7,4,T1_SMS_5,53,9999,9999,9999,613769300
73,7,4,T1_SMS_5,54,9999,9999,9999,614270044
73,7,4,T1_SMS_5,55,9999,9999,9999,614769716
73,7,4,T1_SMS_5,56,9999,9999,9999,615269484
73,7,4,T1_SMS_5,57,9999,9999,9999,615769164
73,7,4,T1_SMS_5,58,9999,9999,9999,616269904
73,7,4,T1_SMS_5,59,9999,9999,9999,616769600
73,7,4,T1_SMS_5,60,9999,9999,9999,617269296
73,7,4,T1_SMS_5,61,9999,9999,9999,617770036
73,7,4,T1_SMS_5,62,9999,9999,9999,618269804
73,7,4,T1_SMS_5,63,9999,9999,9999,618769500
73,7,4,T1_SMS_5,64,9999,9999,9999,619269192
73,7,4,T1_SMS_5,65,9999,9999,9999,619769936
73,7,4,T1_SMS_5,66,9999,9999,9999,620269632
73,7,4,T1_SMS_5,67,9999,9999,9999,620769392
73,7,4,T1_SMS_5,68,9999,9999,9999,621270136
73,7,4,T1_SMS_5,69,9999,9999,9999,621769832
73,7,4,T1_SMS_5,70,9999,9999,9999,622269524
73,7,4,T1_SMS_5,71,9999,9999,9999,622769220
73,7,4,T1_SMS_5,72,9999,9999,9999,623269960
73,7,4,T1_SMS_5,73,9999,9999,9999,623769708
73,7,4,T1_SMS_5,74,9999,9999,9999,624269388
73,7,4,T1_SMS_5,75,9999,9999,9999,624769084
73,7,4,T1_SMS_5,76,9999,9999,9999,625269876
73,7,4,T1_SMS_5,77,9999,9999,9999,625769568
73,7,4,T1_SMS_5,78,9999,9999,9999,626269264
73,7,4,T1_SMS_5,79,9999,9999,9999,626770004
73,7,4,T1_SMS_5,80,9999,9999,9999,627269700
73,7,4,T1_SMS_5,81,9999,9999,9999,627769448
73,7,4,T1_SMS_5,82,9999,9999,9999,628269140
73,7,4,T1_SMS_5,83,9999,9999,9999,628769860
73,7,4,T1_SMS_5,84,9999,9999,9999,629269556
73,7,4,T1_SMS_5,85,9999,9999,9999,629769320
73,7,4,T1_SMS_5,86,9999,9999,9999,630270060
73,7,4,T1_SMS_5,87,9999,9999,9999,630769756
73,7,4,T1_SMS_5,88,9999,9999,9999,631269448
73,7,4,T1_SMS_5,89,9999,9999,9999,631769152
73,7,4,T1_SMS_5,90,9999,9999,9999,632269892
73,7,4,T1_SMS_5,91,9999,9999,9999,632769588
73,7,4,T1_SMS_5,92,9999,9999,9999,633269356
73,7,4,T1_SMS_5,93,9999,9999,9999,633770100
73,7,4,T1_SMS_5,94,9999,9999,9999,634269792
73,7,4,T1_SMS_5,95,9999,9999,9999,634769488
73,7,4,T1_SMS_5,96,9999,9999,9999,635269184
73,7,4,T1_SMS_5,97,9999,9999,9999,635769976
73,7,4,T1_SMS_5,98,9999,9999,9999,636269640
73,7,4,T1_SMS_5,99,9999,9999,9999,636769384
73,7,4,T1_SMS_5,100,9999,9999,9999,637270108
73,7,4,T1_SMS_5,101,9999,9999,9999,637769800
73,7,4,T1_SMS_5,102,9999,9999,9999,638269496
73,7,4,T1_SMS_5,103,9999,9999,9999,638769264
73,7,4,T1_SMS_5,104,9999,9999,9999,639270004
73,7,4,T1_SMS_5,105,9999,9999,9999,639769700
73,7,4,T1_SMS_5,106,9999,9999,9999,640269396
73,7,4,T1_SMS_5,107,9999,9999,9999,640769092
73,7,4,T1_SMS_5,108,9999,9999,9999,641269832
73,7,4,T1_SMS_5,109,9999,9999,9999,641769532
73,7,4,T1_SMS_5,110,9999,9999,9999,642269300
73,7,4,T1_SMS_5,111,9999,9999,9999,642770040
73,7,4,T1_SMS_5,112,9999,9999,9999,643269736
73,7,4,T1_SMS_5,113,9999,9999,9999,643769412
73,7,4,T1_SMS_5,114,9999,9999,9999,644269108
73,7,4,T1_SMS_5,115,9999,9999,9999,644769848
73,7,4,T1_SMS_5,116,9999,9999,9999,645269620
73,7,4,T1_SMS_5,117,9999,9999,9999,645769328
73,7,4,T1_SMS_5,118,9999,9999,9999,646270068
73,7,4,T1_SMS_5,119,9999,9999,9999,646769740
73,7,4,T1_SMS_5,120,9999,9999,9999,647269492
73,7,4,T1_SMS_5,121,9999,9999,9999,647769204
73,7,4,T1_SMS_5,122,9999,9999,9999,648269872
73,7,4,T1_SMS_5,123,9999,9999,9999,648769640
73,7,4,T1_SMS_5,124,9999,9999,9999,649269324
73,7,4,T1_SMS_5,125,9999,9999,9999,649770064
73,7,4,T1_SMS_5,126,9999,9999,9999,650269760
73,7,4,T1_SMS_5,127,9999,9999,9999,650769528
73,7,4,T1_SMS_5,128,9999,9999,9999,651269220
73,7,4,T1_SMS_5,129,9999,9999,9999,651769964
73,8,9,Ticks_ISO_T2_8,0,5,42,127,664285528
73,8,9,Ticks_ISO_T2_8,1,5,42,127,665086180
73,8,9,Ticks_ISO_T2_8,2,5,42,127,665886012
73,8,9,Ticks_ISO_T2_8,3,5,42,127,666685840
73,8,9,Ticks_ISO_T2_8,4,5,42,127,667485448
73,8,9,Ticks_ISO_T2_8,5,5,42,127,668286572
73,8,9,Ticks_ISO_T2_8,6,1,48,33,668974740
73,8,9,Ticks_ISO_T2_8,7,5,42,127,669086008
73,8,9,Ticks_ISO_T2_8,8,1,48,37,669742612
73,8,9,Ticks_ISO_T2_8,9,5,42,127,669885744
73,8,9,Ticks_ISO_T2_8,10,1,48,42,670603028
73,8,9,Ticks_ISO_T2_8,11,5,42,127,670685564
73,8,9,Ticks_ISO_T2_8,12,1,48,39,671417652
73,8,9,Ticks_ISO_T2_8,13,5,42,127,671486568
73,8,9,Ticks_ISO_T2_8,14,5,42,127,672286012
73,8,9,Ticks_ISO_T2_8,15,1,48,40,672290180
73,8,9,Ticks_ISO_T2_8,16,5,42,127,673085672
73,8,9,Ticks_ISO_T2_8,17,1,48,44,673087688
73,8,9,Ticks_ISO_T2_8,18,1,48,38,673872128
73,8,9,Ticks_ISO_T2_8,19,5,42,127,673885620
73,8,9,Ticks_ISO_T2_8,20,1,48,37,674632364
73,8,9,Ticks_ISO_T2_8,21,5,42,127,674686500
73,8,9,Ticks_ISO_T2_8,22,1,48,43,675405244
73,8,9,Ticks_ISO_T2_8,23,5,42,127,675486232
73,8,9,Ticks_ISO_T2_8,24,1,48,32,676220860
73,8,9,Ticks_ISO_T2_8,25,5,42,127,676285744
73,8,9,Ticks_ISO_T2_8,26,1,48,45,676963800
73,8,9,Ticks_ISO_T2_8,27,1,48,29,677017660
73,8,9,Ticks_ISO_T2_8,28,5,42,127,677085604
73,8,9,Ticks_ISO_T2_8,29,1,48,45,677808268
73,8,9,Ticks_ISO_T2_8,30,5,42,127,677886312
73,8,9,Ticks_ISO_T2_8,31,5,42,127,678686272
73,8,9,Ticks_ISO_T2_8,32,1,48,24,678687316
73,8,9,Ticks_ISO_T2_8,33,1,48,40,679465620
73,8,9,Ticks_ISO_T2_8,34,5,42,127,679486072
73,8,9,Ticks_ISO_T2_8,35,1,48,32,680217788
73,8,9,Ticks_ISO_T2_8,36,5,42,127,680285584
73,8,9,Ticks_ISO_T2_8,37,5,42,127,681086248
73,8,9,Ticks_ISO_T2_8,38,1,48,34,681091316
73,8,9,Ticks_ISO_T2_8,39,1,48,40,681846952
73,8,9,Ticks_ISO_T2_8,40,5,42,127,681886420
73,8,9,Ticks_ISO_T2_8,41,1,48,36,682613920
73,8,9,Ticks_ISO_T2_8,42,5,42,127,682685856
73,8,9,Ticks_ISO_T2_8,43,1,48,38,683441356
73,8,9,Ticks_ISO_T2_8,44,5,42,127,683485592
73,8,9,Ticks_ISO_T2_8,45,1,48,43,684194864
73,8,9,Ticks_ISO_T2_8,46,5,42,127,684287628
73,8,9,Ticks_ISO_T2_8,47,1,48,36,685016812
73,8,9,Ticks_ISO_T2_8,48,5,42,127,685086104
73,8,9,Ticks_ISO_T2_8,49,1,48,35,685796576
73,8,9,Ticks_ISO_T2_8,50,5,42,127,685885688
73,8,9,Ticks_ISO_T2_8,51,1,48,35,686531684
73,8,9,Ticks_ISO_T2_8,52,5,42,127,686685480
73,8,9,Ticks_ISO_T2_8,53,1,48,34,687325580
73,8,9,Ticks_ISO_T2_8,54,5,42,127,687486212
73,8,9,Ticks_ISO_T2_8,55,1,48,50,688157928
73,8,9,Ticks_ISO_T2_8,56,1,48,31,688215572
73,8,9,Ticks_ISO_T2_8,57,5,42,127,688286164
73,8,9,Ticks_ISO_T2_8,58,1,48,48,688976936
73,8,9,Ticks_ISO_T2_8,59,1,48,32,689027800
73,8,9,Ticks_ISO_T2_8,60,5,42,127,689085724
73,8,9,Ticks_ISO_T2_8,61,1,48,46,689770360
73,8,9,Ticks_ISO_T2_8,62,5,42,127,689885516
73,8,9,Ticks_ISO_T2_8,63,1,48,35,690566456
73,8,9,Ticks_ISO_T2_8,64,5,42,127,690686368
73,8,9,Ticks_ISO_T2_8,65,1,48,51,691400516
73,8,9,Ticks_ISO_T2_8,66,5,42,127,691486044
73,8,9,Ticks_ISO_T2_8,67,1,48,41,692206160
73,8,9,Ticks_ISO_T2_8,68,5,42,127,692285704
73,8,9,Ticks_ISO_T2_8,69,1,48,49,692980536
73,8,9,Ticks_ISO_T2_8,70,5,42,127,693085496
73,8,9,Ticks_ISO_T2_8,71,1,48,48,693723276
73,8,9,Ticks_ISO_T2_8,72,5,42,127,693886300
73,8,9,Ticks_ISO_T2_8,73,1,48,52,694465336
73,8,9,Ticks_ISO_T2_8,74,5,42,127,694686184
73,8,9,Ticks_ISO_T2_8,75,1,48,62,695334484
73,8,9,Ticks_ISO_T2_8,76,5,42,127,695485844
73,8,9,Ticks_ISO_T2_8,77,1,48,60,696149328
73,8,9,Ticks_ISO_T2_8,78,5,42,127,696285576
73,8,9,Ticks_ISO_T2_8,79,1,48,54,696971224
73,8,9,Ticks_ISO_T2_8,80,5,42,127,697086280
73,8,9,Ticks_ISO_T2_8,81,5,42,127,697886036
73,8,9,Ticks_ISO_T2_8,82,1,48,49,697932760
73,8,9,Ticks_ISO_T2_8,83,1,48,47,698668380
73,8,9,Ticks_ISO_T2_8,84,5,42,127,698685912
73,8,9,Ticks_ISO_T2_8,85,1,48,35,699437892
73,8,9,Ticks_ISO_T2_8,86,5,42,127,699485496
73,8,9,Ticks_ISO_T2_8,87,1,48,45,700189156
73,8,9,Ticks_ISO_T2_8,88,5,42,127,700286360
73,8,9,Ticks_ISO_T2_8,89,1,48,40,700947828
73,8,9,Ticks_ISO_T2_8,90,5,42,127,701086092
73,8,9,Ticks_ISO_T2_8,91,1,48,44,701701484
73,8,9,Ticks_ISO_T2_8,92,5,42,127,701885904
73,8,9,Ticks_ISO_T2_8,93,1,48,58,702514460
73,8,9,Ticks_ISO_T2_8,94,5,42,127,702685488
73,8,9,Ticks_ISO_T2_8,95,1,48,48,703315388
73,8,9,Ticks_ISO_T2_8,96,5,42,127,703486272
73,8,9,Ticks_ISO_T2_8,97,1,48,51,704101736
73,8,9,Ticks_ISO_T2_8,98,5,42,127,704286004
73,8,9,Ticks_ISO_T2_8,99,1,48,62,704893044
73,8,9,Ticks_ISO_T2_8,100,5,42,127,705085884
73,8,9,Ticks_ISO_T2_8,101,1,48,71,705726660
73,8,9,Ticks_ISO_T2_8,102,5,42,127,705885396
73,8,9,Ticks_ISO_T2_8,103,1,48,58,706517268
73,8,9,Ticks_ISO_T2_8,104,5,42,127,706686276
73,8,9,Ticks_ISO_T2_8,105,1,48,54,707251480
73,8,9,Ticks_ISO_T2_8,106,5,42,127,707486160
73,8,9,Ticks_ISO_T2_8,107,1,48,42,708014560
73,8,9,Ticks_ISO_T2_8,108,5,42,127,708285968
73,8,9,Ticks_ISO_T2_8,109,1,48,46,708789236
73,8,9,Ticks_ISO_T2_8,110,5,42,127,709085628
73,8,9,Ticks_ISO_T2_8,111,1,48,40,709656208
73,8,9,Ticks_ISO_T2_8,112,5,42,127,709886184
73,8,9,Ticks_ISO_T2_8,113,1,48,40,710403216
73,8,9,Ticks_ISO_T2_8,114,5,42,127,710686140
73,8,9,Ticks_ISO_T2_8,115,1,48,29,711175716
73,8,9,Ticks_ISO_T2_8,116,5,42,127,711485796
73,8,9,Ticks_ISO_T2_8,117,1,48,43,711700548
73,8,9,Ticks_ISO_T2_8,118,1,48,17,711797388
73,8,9,Ticks_ISO_T2_8,119,1,48,34,712245748
73,8,9,Ticks_ISO_T2_8,120,5,42,127,712285576
73,8,9,Ticks_ISO_T2_8,121,1,48,40,712772372
73,8,9,Ticks_ISO_T2_8,122,5,42,127,713086440
73,8,9,Ticks_ISO_T2_8,123,1,48,41,713467688
73,8,9,Ticks_ISO_T2_8,124,5,42,127,713886024
73,8,9,Ticks_ISO_T2_8,125,1,48,48,714390940
73,8,9,Ticks_ISO_T2_8,126,5,42,127,714685760
73,8,9,Ticks_ISO_T2_8,127,1,48,46,715299356
73,8,9,Ticks_ISO_T2_8,128,5,42,127,715485716
73,8,9,Ticks_ISO_T2_8,129,1,48,46,716097144
73,8,9,Ticks_ISO_T2_8,130,5,42,127,716286272
73,8,9,Ticks_ISO_T2_8,131,1,48,45,716893364
73,8,9,Ticks_ISO_T2_8,132,5,42,127,717085932
73,8,9,Ticks_ISO_T2_8,133,1,48,41,717743680
73,8,9,Ticks_ISO_T2_8,134,5,42,127,717885888
73,8,9,Ticks_ISO_T2_8,135,1,48,45,718564360
73,8,9,Ticks_ISO_T2_8,136,5,42,127,718685772
73,8,9,Ticks_ISO_T2_8,137,1,48,52,719375612
73,8,9,Ticks_ISO_T2_8,138,5,42,127,719486428
73,8,9,Ticks_ISO_T2_8,139,1,48,52,720199880
73,8,9,Ticks_ISO_T2_8,140,5,42,127,720286104
73,8,9,Ticks_ISO_T2_8,141,1,48,42,721026196
73,8,9,Ticks_ISO_T2_8,142,5,42,127,721085688
73,8,9,Ticks_ISO_T2_8,143,1,48,48,721810216
73,8,9,Ticks_ISO_T2_8,144,5,42,127,721885792
73,8,9,Ticks_ISO_T2_8,145,1,48,56,722564996
73,8,9,Ticks_ISO_T2_8,146,5,42,127,722686336
73,8,9,Ticks_ISO_T2_8,147,1,48,53,723359048
73,8,9,Ticks_ISO_T2_8,148,5,42,127,723485996
73,8,9,Ticks_ISO_T2_8,149,1,48,50,724106352
73,8,9,Ticks_ISO_T2_8,150,5,42,127,724285880
73,8,9,Ticks_ISO_T2_8,151,1,48,58,724919324
73,8,9,Ticks_ISO_T2_8,152,5,42,127,725085536
73,8,9,Ticks_ISO_T2_8,153,1,48,54,725731472
73,8,9,Ticks_ISO_T2_8,154,5,42,127,725886268
73,8,9,Ticks_ISO_T2_8,155,1,48,55,726568900
73,8,9,Ticks_ISO_T2_8,156,5,42,127,726686000
73,8,9,Ticks_ISO_T2_8,157,1,48,53,727361528
73,8,9,Ticks_ISO_T2_8,158,5,42,127,727485660
73,8,9,Ticks_ISO_T2_8,159,1,48,49,728135008
73,8,9,Ticks_ISO_T2_8,160,5,42,127,728285396
73,8,9,Ticks_ISO_T2_8,161,1,48,48,728939380
73,8,9,Ticks_ISO_T2_8,162,5,42,127,729086472
73,8,9,Ticks_ISO_T2_8,163,1,48,57,729725000
73,8,9,Ticks_ISO_T2_8,164,5,42,127,729885984
73,8,9,Ticks_ISO_T2_8,165,1,48,58,730459784
73,8,9,Ticks_ISO_T2_8,166,5,42,127,730685788
73,8,9,Ticks_ISO_T2_8,167,1,48,58,731251816
73,8,9,Ticks_ISO_T2_8,168,5,42,127,731485596
73,8,9,Ticks_ISO_T2_8,169,1,48,43,732070948
73,8,9,Ticks_ISO_T2_8,170,5,42,127,732286476
73,8,9,Ticks_ISO_T2_8,171,1,48,54,732831036
73,8,9,Ticks_ISO_T2_8,172,5,42,127,733085988
73,8,9,Ticks_ISO_T2_8,173,1,48,48,733584988
73,8,9,Ticks_ISO_T2_8,174,5,42,127,733885868
73,8,9,Ticks_ISO_T2_8,175,1,48,50,734340372
73,8,9,Ticks_ISO_T2_8,176,5,42,127,734685456
73,8,9,Ticks_ISO_T2_8,177,1,48,45,735055852
73,8,9,Ticks_ISO_T2_8,178,5,42,127,735486532
73,8,9,Ticks_ISO_T2_8,179,1,48,59,735808696
73,8,9,Ticks_ISO_T2_8,180,5,42,127,736286192
73,8,9,Ticks_ISO_T2_8,181,1,48,47,736518296
73,8,9,Ticks_ISO_T2_8,182,5,42,127,737085700
73,8,9,Ticks_ISO_T2_8,183,1,48,59,737260880
73,8,9,Ticks_ISO_T2_8,184,5,42,127,737885660
73,8,9,Ticks_ISO_T2_8,185,1,48,58,738005188
73,8,9,Ticks_ISO_T2_8,186,5,42,127,738686388
73,8,9,Ticks_ISO_T2_8,187,1,48,45,738807920
73,8,9,Ticks_ISO_T2_8,188,5,42,127,739486344
73,8,9,Ticks_ISO_T2_8,189,1,48,40,739609820
73,8,9,Ticks_ISO_T2_8,190,5,42,127,740285708
73,8,9,Ticks_ISO_T2_8,191,1,48,60,740391152
73,8,9,Ticks_ISO_T2_8,192,5,42,127,741085516
73,8,9,Ticks_ISO_T2_8,193,1,48,53,741160740
73,8,9,Ticks_ISO_T2_8,194,5,42,127,741886220
73,8,9,Ticks_ISO_T2_8,195,1,48,43,741976780
73,8,9,Ticks_ISO_T2_8,196,5,42,127,742686248
73,8,9,Ticks_ISO_T2_8,197,1,48,50,742746968
73,8,9,Ticks_ISO_T2_8,198,5,42,127,743485836
73,8,9,Ticks_ISO_T2_8,199,1,48,52,743497036
73,8,9,Ticks_ISO_T2_8,200,1,48,56,744240124
73,8,9,Ticks_ISO_T2_8,201,5,42,127,744285488
73,8,9,Ticks_ISO_T2_8,202,1,48,58,745013004
73,8,9,Ticks_ISO_T2_8,203,5,42,127,745086440
73,8,9,Ticks_ISO_T2_8,204,1,48,61,745762624
73,8,9,Ticks_ISO_T2_8,205,5,42,127,745886232
73,8,9,Ticks_ISO_T2_8,206,1,48,62,746532140
73,8,9,Ticks_ISO_T2_8,207,5,42,127,746685892
73,8,9,Ticks_ISO_T2_8,208,1,48,22,747311156
73,8,9,Ticks_ISO_T2_8,209,5,42,127,747485548
73,8,9,Ticks_ISO_T2_8,210,1,48,48,748044468
73,8,9,Ticks_ISO_T2_8,211,5,42,127,748286256
73,8,9,Ticks_ISO_T2_8,212,1,48,66,748819292
73,8,9,Ticks_ISO_T2_8,213,5,42,127,749086064
73,8,9,Ticks_ISO_T2_8,214,1,48,52,749636448
73,8,9,Ticks_ISO_T2_8,215,5,42,127,749886020
73,8,9,Ticks_ISO_T2_8,216,1,48,49,750403200
73,8,9,Ticks_ISO_T2_8,217,5,42,127,750685532
73,8,9,Ticks_ISO_T2_8,218,1,48,65,751168376
73,8,9,Ticks_ISO_T2_8,219,5,42,127,751486260
73,8,9,Ticks_ISO_T2_8,220,1,48,65,751944100
73,8,9,Ticks_ISO_T2_8,221,5,42,127,752286144
73,8,9,Ticks_ISO_T2_8,222,1,48,62,752753932
73,8,9,Ticks_ISO_T2_8,223,5,42,127,753085952
73,8,9,Ticks_ISO_T2_8,224,1,48,58,753510060
73,8,9,Ticks_ISO_T2_8,225,5,42,127,753885464
73,8,9,Ticks_ISO_T2_8,226,1,48,65,754239184
73,8,9,Ticks_ISO_T2_8,227,5,42,127,754686244
73,8,9,Ticks_ISO_T2_8,228,1,48,63,754985732
73,8,9,Ticks_ISO_T2_8,229,5,42,127,755486124
73,8,9,Ticks_ISO_T2_8,230,1,48,69,755780912
73,8,9,Ticks_ISO_T2_8,231,5,42,127,756285932
73,8,9,Ticks_ISO_T2_8,232,1,48,59,756498592
73,8,9,Ticks_ISO_T2_8,233,1,48,29,756574932
73,8,9,Ticks_ISO_T2_8,234,5,42,127,757085572
73,8,9,Ticks_ISO_T2_8,235,1,48,74,757351856
73,8,9,Ticks_ISO_T2_8,236,5,42,127,757886228
73,8,9,Ticks_ISO_T2_8,237,1,48,70,758125404
73,8,9,Ticks_ISO_T2_8,238,5,42,127,758685960
73,8,9,Ticks_ISO_T2_8,239,1,48,72,758923896
73,8,9,Ticks_ISO_T2_8,240,5,42,127,759485920
73,8,9,Ticks_ISO_T2_8,241,1,48,79,759701264
73,8,9,Ticks_ISO_T2_8,0,9999,9999,9999,664283240
73,8,9,Ticks_ISO_T2_8,1,9999,9999,9999,665083968
73,8,9,Ticks_ISO_T2_8,2,9999,9999,9999,665883724
73,8,9,Ticks_ISO_T2_8,3,9999,9999,9999,666683476
73,8,9,Ticks_ISO_T2_8,4,9999,9999,9999,667483236
73,8,9,Ticks_ISO_T2_8,5,9999,9999,9999,668283988
73,8,9,Ticks_ISO_T2_8,6,9999,9999,9999,669083720
73,8,9,Ticks_ISO_T2_8,7,9999,9999,9999,669883456
73,8,9,Ticks_ISO_T2_8,8,9999,9999,9999,670683204
73,8,9,Ticks_ISO_T2_8,9,9999,9999,9999,671483984
73,8,9,Ticks_ISO_T2_8,10,9999,9999,9999,672283724
73,8,9,Ticks_ISO_T2_8,11,9999,9999,9999,673083456
73,8,9,Ticks_ISO_T2_8,12,9999,9999,9999,673883184
73,8,9,Ticks_ISO_T2_8,13,9999,9999,9999,674683988
73,8,9,Ticks_ISO_T2_8,14,9999,9999,9999,675483724
73,8,9,Ticks_ISO_T2_8,15,9999,9999,9999,676283460
73,8,9,Ticks_ISO_T2_8,16,9999,9999,9999,677083244
73,8,9,Ticks_ISO_T2_8,17,9999,9999,9999,677884024
73,8,9,Ticks_ISO_T2_8,18,9999,9999,9999,678683760
73,8,9,Ticks_ISO_T2_8,19,9999,9999,9999,679483488
73,8,9,Ticks_ISO_T2_8,20,9999,9999,9999,680283224
73,8,9,Ticks_ISO_T2_8,21,9999,9999,9999,681083960
73,8,9,Ticks_ISO_T2_8,22,9999,9999,9999,681883760
73,8,9,Ticks_ISO_T2_8,23,9999,9999,9999,682683492
73,8,9,Ticks_ISO_T2_8,24,9999,9999,9999,683483228
73,8,9,Ticks_ISO_T2_8,25,9999,9999,9999,684284008
73,8,9,Ticks_ISO_T2_8,26,9999,9999,9999,685083740
73,8,9,Ticks_ISO_T2_8,27,9999,9999,9999,685883476
73,8,9,Ticks_ISO_T2_8,28,9999,9999,9999,686683192
73,8,9,Ticks_ISO_T2_8,29,9999,9999,9999,687484000
73,8,9,Ticks_ISO_T2_8,30,9999,9999,9999,688283728
73,8,9,Ticks_ISO_T2_8,31,9999,9999,9999,689083512
73,8,9,Ticks_ISO_T2_8,32,9999,9999,9999,689883228
73,8,9,Ticks_ISO_T2_8,33,9999,9999,9999,690684008
73,8,9,Ticks_ISO_T2_8,34,9999,9999,9999,691483756
73,8,9,Ticks_ISO_T2_8,35,9999,9999,9999,692283492
73,8,9,Ticks_ISO_T2_8,36,9999,9999,9999,693083208
73,8,9,Ticks_ISO_T2_8,37,9999,9999,9999,693884012
73,8,9,Ticks_ISO_T2_8,38,9999,9999,9999,694683744
73,8,9,Ticks_ISO_T2_8,39,9999,9999,9999,695483480
73,8,9,Ticks_ISO_T2_8,40,9999,9999,9999,696283212
73,8,9,Ticks_ISO_T2_8,41,9999,9999,9999,697083992
73,8,9,Ticks_ISO_T2_8,42,9999,9999,9999,697883748
73,8,9,Ticks_ISO_T2_8,43,9999,9999,9999,698683476
73,8,9,Ticks_ISO_T2_8,44,9999,9999,9999,699483208
73,8,9,Ticks_ISO_T2_8,45,9999,9999,9999,700283996
73,8,9,Ticks_ISO_T2_8,46,9999,9999,9999,701083732
73,8,9,Ticks_ISO_T2_8,47,9999,9999,9999,701883468
73,8,9,Ticks_ISO_T2_8,48,9999,9999,9999,702683200
73,8,9,Ticks_ISO_T2_8,49,9999,9999,9999,703483980
73,8,9,Ticks_ISO_T2_8,50,9999,9999,9999,704283716
73,8,9,Ticks_ISO_T2_8,51,9999,9999,9999,705083448
73,8,9,Ticks_ISO_T2_8,52,9999,9999,9999,705883184
73,8,9,Ticks_ISO_T2_8,53,9999,9999,9999,706683988
73,8,9,Ticks_ISO_T2_8,54,9999,9999,9999,707483724
73,8,9,Ticks_ISO_T2_8,55,9999,9999,9999,708283456
73,8,9,Ticks_ISO_T2_8,56,9999,9999,9999,709083188
73,8,9,Ticks_ISO_T2_8,57,9999,9999,9999,709883968
73,8,9,Ticks_ISO_T2_8,58,9999,9999,9999,710683700
73,8,9,Ticks_ISO_T2_8,59,9999,9999,9999,711483508
73,8,9,Ticks_ISO_T2_8,60,9999,9999,9999,712283216
73,8,9,Ticks_ISO_T2_8,61,9999,9999,9999,713084004
73,8,9,Ticks_ISO_T2_8,62,9999,9999,9999,713883736
73,8,9,Ticks_ISO_T2_8,63,9999,9999,9999,714683472
73,8,9,Ticks_ISO_T2_8,64,9999,9999,9999,715483204
73,8,9,Ticks_ISO_T2_8,65,9999,9999,9999,716283984
73,8,9,Ticks_ISO_T2_8,66,9999,9999,9999,717083720
73,8,9,Ticks_ISO_T2_8,67,9999,9999,9999,717883452
73,8,9,Ticks_ISO_T2_8,68,9999,9999,9999,718683184
73,8,9,Ticks_ISO_T2_8,69,9999,9999,9999,719483992
73,8,9,Ticks_ISO_T2_8,70,9999,9999,9999,720283740
73,8,9,Ticks_ISO_T2_8,71,9999,9999,9999,721083472
73,8,9,Ticks_ISO_T2_8,72,9999,9999,9999,721883208
73,8,9,Ticks_ISO_T2_8,73,9999,9999,9999,722683972
73,8,9,Ticks_ISO_T2_8,74,9999,9999,9999,723483708
73,8,9,Ticks_ISO_T2_8,75,9999,9999,9999,724283444
73,8,9,Ticks_ISO_T2_8,76,9999,9999,9999,725083248
73,8,9,Ticks_ISO_T2_8,77,9999,9999,9999,725883980
73,8,9,Ticks_ISO_T2_8,78,9999,9999,9999,726683712
73,8,9,Ticks_ISO_T2_8,79,9999,9999,9999,727483448
73,8,9,Ticks_ISO_T2_8,80,9999,9999,9999,728283180
73,8,9,Ticks_ISO_T2_8,81,9999,9999,9999,729083960
73,8,9,Ticks_ISO_T2_8,82,9999,9999,9999,729883696
73,8,9,Ticks_ISO_T2_8,83,9999,9999,9999,730683500
73,8,9,Ticks_ISO_T2_8,84,9999,9999,9999,731483236
73,8,9,Ticks_ISO_T2_8,85,9999,9999,9999,732283964
73,8,9,Ticks_ISO_T2_8,86,9999,9999,9999,733083700
73,8,9,Ticks_ISO_T2_8,87,9999,9999,9999,733883508
73,8,9,Ticks_ISO_T2_8,88,9999,9999,9999,734683240
73,8,9,Ticks_ISO_T2_8,89,9999,9999,9999,735484024
73,8,9,Ticks_ISO_T2_8,90,9999,9999,9999,736283756
73,8,9,Ticks_ISO_T2_8,91,9999,9999,9999,737083488
73,8,9,Ticks_ISO_T2_8,92,9999,9999,9999,737883220
73,8,9,Ticks_ISO_T2_8,93,9999,9999,9999,738683952
73,8,9,Ticks_ISO_T2_8,94,9999,9999,9999,739483760
73,8,9,Ticks_ISO_T2_8,95,9999,9999,9999,740283496
73,8,9,Ticks_ISO_T2_8,96,9999,9999,9999,741083228
73,8,9,Ticks_ISO_T2_8,97,9999,9999,9999,741884008
73,8,9,Ticks_ISO_T2_8,98,9999,9999,9999,742683740
73,8,9,Ticks_ISO_T2_8,99,9999,9999,9999,743483472
73,8,9,Ticks_ISO_T2_8,100,9999,9999,9999,744283200
73,8,9,Ticks_ISO_T2_8,101,9999,9999,9999,745084004
73,8,9,Ticks_ISO_T2_8,102,9999,9999,9999,745883724
73,8,9,Ticks_ISO_T2_8,103,9999,9999,9999,746683452
73,8,9,Ticks_ISO_T2_8,104,9999,9999,9999,747483188
73,8,9,Ticks_ISO_T2_8,105,9999,9999,9999,748283968
73,8,9,Ticks_ISO_T2_8,106,9999,9999,9999,749083700
73,8,9,Ticks_ISO_T2_8,107,9999,9999,9999,749883508
73,8,9,Ticks_ISO_T2_8,108,9999,9999,9999,750683240
73,8,9,Ticks_ISO_T2_8,109,9999,9999,9999,751483972
73,8,9,Ticks_ISO_T2_8,110,9999,9999,9999,752283708
73,8,9,Ticks_ISO_T2_8,111,9999,9999,9999,753083440
73,8,9,Ticks_ISO_T2_8,112,9999,9999,9999,753883248
73,8,9,Ticks_ISO_T2_8,113,9999,9999,9999,754683952
73,8,9,Ticks_ISO_T2_8,114,9999,9999,9999,755483764
73,8,9,Ticks_ISO_T2_8,115,9999,9999,9999,756283496
73,8,9,Ticks_ISO_T2_8,116,9999,9999,9999,757083208
73,8,9,Ticks_ISO_T2_8,117,9999,9999,9999,757884016
73,8,9,Ticks_ISO_T2_8,118,9999,9999,9999,758683748
73,8,9,Ticks_ISO_T2_8,119,9999,9999,9999,759483480
73,9,10,Ticks_ISO_T2_5,0,5,42,127,772643056
73,9,10,Ticks_ISO_T2_5,1,5,42,127,773142848
73,9,10,Ticks_ISO_T2_5,2,5,42,127,773642560
73,9,10,Ticks_ISO_T2_5,3,5,42,127,774143472
73,9,10,Ticks_ISO_T2_5,4,5,42,127,774642968
73,9,10,Ticks_ISO_T2_5,5,5,42,127,775142760
73,9,10,Ticks_ISO_T2_5,6,5,42,127,775642548
73,9,10,Ticks_ISO_T2_5,7,5,42,127,776143236
73,9,10,Ticks_ISO_T2_5,8,1,48,33,776623764
73,9,10,Ticks_ISO_T2_5,9,5,42,127,776642872
73,9,10,Ticks_ISO_T2_5,10,1,48,21,777081124
73,9,10,Ticks_ISO_T2_5,11,5,42,127,777142492
73,9,10,Ticks_ISO_T2_5,12,1,48,39,777610588
73,9,10,Ticks_ISO_T2_5,13,5,42,127,777643456
73,9,10,Ticks_ISO_T2_5,14,1,48,41,778111480
73,9,10,Ticks_ISO_T2_5,15,5,42,127,778143152
73,9,10,Ticks_ISO_T2_5,16,5,42,127,778642928
73,9,10,Ticks_ISO_T2_5,17,1,48,36,778644492
73,9,10,Ticks_ISO_T2_5,18,1,48,39,779108000
73,9,10,Ticks_ISO_T2_5,19,5,42,127,779142468
73,9,10,Ticks_ISO_T2_5,20,5,42,127,779643140
73,9,10,Ticks_ISO_T2_5,21,1,48,40,779666376
73,9,10,Ticks_ISO_T2_5,22,5,42,127,780142884
73,9,10,Ticks_ISO_T2_5,23,1,48,43,780151412
73,9,10,Ticks_ISO_T2_5,24,1,48,28,780206596
73,9,10,Ticks_ISO_T2_5,25,5,42,127,780642632
73,9,10,Ticks_ISO_T2_5,26,1,48,46,780683848
73,9,10,Ticks_ISO_T2_5,27,1,48,25,780745012
73,9,10,Ticks_ISO_T2_5,28,5,42,127,781143504
73,9,10,Ticks_ISO_T2_5,29,1,48,40,781200800
73,9,10,Ticks_ISO_T2_5,30,5,42,127,781643048
73,9,10,Ticks_ISO_T2_5,31,1,48,43,781672416
73,9,10,Ticks_ISO_T2_5,32,5,42,127,782142816
73,9,10,Ticks_ISO_T2_5,33,1,48,42,782193056
73,9,10,Ticks_ISO_T2_5,34,5,42,127,782642584
73,9,10,Ticks_ISO_T2_5,35,1,48,52,782675472
73,9,10,Ticks_ISO_T2_5,36,1,48,33,782725216
73,9,10,Ticks_ISO_T2_5,37,5,42,127,783143524
73,9,10,Ticks_ISO_T2_5,38,1,48,38,783227752
73,9,10,Ticks_ISO_T2_5,39,5,42,127,783643072
73,9,10,Ticks_ISO_T2_5,40,1,48,30,783756320
73,9,10,Ticks_ISO_T2_5,41,5,42,127,784142620
73,9,10,Ticks_ISO_T2_5,42,1,48,48,784226968
73,9,10,Ticks_ISO_T2_5,43,5,42,127,784642460
73,9,10,Ticks_ISO_T2_5,44,1,48,50,784716188
73,9,10,Ticks_ISO_T2_5,45,1,48,32,784773784
73,9,10,Ticks_ISO_T2_5,46,5,42,127,785143404
73,9,10,Ticks_ISO_T2_5,47,1,48,48,785173532
73,9,10,Ticks_ISO_T2_5,48,1,48,29,785233344
73,9,10,Ticks_ISO_T2_5,49,5,42,127,785642856
73,9,10,Ticks_ISO_T2_5,50,1,48,45,785709776
73,9,10,Ticks_ISO_T2_5,51,5,42,127,786142624
73,9,10,Ticks_ISO_T2_5,52,1,48,40,786248592
73,9,10,Ticks_ISO_T2_5,53,5,42,127,786643440
73,9,10,Ticks_ISO_T2_5,54,1,48,39,786715752
73,9,10,Ticks_ISO_T2_5,55,5,42,127,787142912
73,9,10,Ticks_ISO_T2_5,56,1,48,36,787238184
73,9,10,Ticks_ISO_T2_5,57,5,42,127,787642756
73,9,10,Ticks_ISO_T2_5,58,1,48,43,787767948
73,9,10,Ticks_ISO_T2_5,59,5,42,127,788142376
73,9,10,Ticks_ISO_T2_5,60,1,48,43,788265840
73,9,10,Ticks_ISO_T2_5,61,1,48,27,788317060
73,9,10,Ticks_ISO_T2_5,62,5,42,127,788643392
73,9,10,Ticks_ISO_T2_5,63,1,48,34,788802992
73,9,10,Ticks_ISO_T2_5,64,5,42,127,789142792
73,9,10,Ticks_ISO_T2_5,65,1,48,49,789293484
73,9,10,Ticks_ISO_T2_5,66,1,48,29,789363176
73,9,10,Ticks_ISO_T2_5,67,5,42,127,789642464
73,9,10,Ticks_ISO_T2_5,68,1,48,41,789801016
73,9,10,Ticks_ISO_T2_5,69,5,42,127,790143428
73,9,10,Ticks_ISO_T2_5,70,1,48,40,790244684
73,9,10,Ticks_ISO_T2_5,71,5,42,127,790643244
73,9,10,Ticks_ISO_T2_5,72,1,48,39,790724632
73,9,10,Ticks_ISO_T2_5,73,5,42,127,791142720
73,9,10,Ticks_ISO_T2_5,74,1,48,43,791183412
73,9,10,Ticks_ISO_T2_5,75,1,48,45,791635116
73,9,10,Ticks_ISO_T2_5,76,5,42,127,791642408
73,9,10,Ticks_ISO_T2_5,77,1,48,41,792048120
73,9,10,Ticks_ISO_T2_5,78,5,42,127,792143368
73,9,10,Ticks_ISO_T2_5,79,1,48,43,792495384
73,9,10,Ticks_ISO_T2_5,80,5,42,127,792642900
73,9,10,Ticks_ISO_T2_5,81,1,48,41,792965828
73,9,10,Ticks_ISO_T2_5,82,5,42,127,793142672
73,9,10,Ticks_ISO_T2_5,83,1,48,45,793420852
73,9,10,Ticks_ISO_T2_5,84,5,42,127,793643488
73,9,10,Ticks_ISO_T2_5,85,1,48,50,793840580
73,9,10,Ticks_ISO_T2_5,86,5,42,127,794143332
73,9,10,Ticks_ISO_T2_5,87,1,48,46,794284256
73,9,10,Ticks_ISO_T2_5,88,5,42,127,794642728
73,9,10,Ticks_ISO_T2_5,89,1,48,43,794715188
73,9,10,Ticks_ISO_T2_5,90,5,42,127,795142424
73,9,10,Ticks_ISO_T2_5,91,1,48,46,795158784
73,9,10,Ticks_ISO_T2_5,92,1,48,39,795543768
73,9,10,Ticks_ISO_T2_5,93,5,42,127,795643712
73,9,10,Ticks_ISO_T2_5,94,1,48,43,796020876
73,9,10,Ticks_ISO_T2_5,95,5,42,127,796143184
73,9,10,Ticks_ISO_T2_5,96,1,48,47,796494964
73,9,10,Ticks_ISO_T2_5,97,5,42,127,796642728
73,9,10,Ticks_ISO_T2_5,98,1,48,47,796913348
73,9,10,Ticks_ISO_T2_5,99,5,42,127,797143548
73,9,10,Ticks_ISO_T2_5,100,1,48,48,797433836
73,9,10,Ticks_ISO_T2_5,101,5,42,127,797643240
73,9,10,Ticks_ISO_T2_5,102,1,48,51,797923588
73,9,10,Ticks_ISO_T2_5,103,5,42,127,798142860
73,9,10,Ticks_ISO_T2_5,104,1,48,46,798463596
73,9,10,Ticks_ISO_T2_5,105,5,42,127,798642408
73,9,10,Ticks_ISO_T2_5,106,1,48,51,799024096
73,9,10,Ticks_ISO_T2_5,107,5,42,127,799143296
73,9,10,Ticks_ISO_T2_5,108,1,48,46,799631680
73,9,10,Ticks_ISO_T2_5,109,5,42,127,799643080
73,9,10,Ticks_ISO_T2_5,110,5,42,127,800142632
73,9,10,Ticks_ISO_T2_5,111,1,48,43,800197216
73,9,10,Ticks_ISO_T2_5,112,5,42,127,800642328
73,9,10,Ticks_ISO_T2_5,113,1,48,47,800728700
73,9,10,Ticks_ISO_T2_5,114,5,42,127,801143072
73,9,10,Ticks_ISO_T2_5,115,1,48,43,801278952
73,9,10,Ticks_ISO_T2_5,116,5,42,127,801642964
73,9,10,Ticks_ISO_T2_5,117,1,48,47,801808572
73,9,10,Ticks_ISO_T2_5,118,5,42,127,802142436
73,9,10,Ticks_ISO_T2_5,119,1,48,45,802359648
73,9,10,Ticks_ISO_T2_5,120,5,42,127,802643176
73,9,10,Ticks_ISO_T2_5,121,1,48,44,802967300
73,9,10,Ticks_ISO_T2_5,122,5,42,127,803143092
73,9,10,Ticks_ISO_T2_5,123,1,48,46,803603576
73,9,10,Ticks_ISO_T2_5,124,5,42,127,803642652
73,9,10,Ticks_ISO_T2_5,125,1,48,45,804137752
73,9,10,Ticks_ISO_T2_5,126,5,42,127,804142420
73,9,10,Ticks_ISO_T2_5,127,5,42,127,804643320
73,9,10,Ticks_ISO_T2_5,128,1,48,44,804659232
73,9,10,Ticks_ISO_T2_5,129,5,42,127,805142940
73,9,10,Ticks_ISO_T2_5,130,1,48,46,805150776
73,9,10,Ticks_ISO_T2_5,131,1,48,38,805642408
73,9,10,Ticks_ISO_T2_5,132,5,42,127,805643820
73,9,10,Ticks_ISO_T2_5,133,1,48,44,806115732
73,9,10,Ticks_ISO_T2_5,134,5,42,127,806143292
73,9,10,Ticks_ISO_T2_5,135,1,48,43,806632256
73,9,10,Ticks_ISO_T2_5,136,5,42,127,806643064
73,9,10,Ticks_ISO_T2_5,137,1,48,45,807120136
73,9,10,Ticks_ISO_T2_5,138,5,42,127,807142904
73,9,10,Ticks_ISO_T2_5,139,1,48,42,807616088
73,9,10,Ticks_ISO_T2_5,140,5,42,127,807642456
73,9,10,Ticks_ISO_T2_5,141,1,48,46,808107932
73,9,10,Ticks_ISO_T2_5,142,5,42,127,808143268
73,9,10,Ticks_ISO_T2_5,143,1,48,43,808604184
73,9,10,Ticks_ISO_T2_5,144,5,42,127,808643040
73,9,10,Ticks_ISO_T2_5,145,1,48,49,809084360
73,9,10,Ticks_ISO_T2_5,146,5,42,127,809142732
73,9,10,Ticks_ISO_T2_5,147,1,48,46,809536004
73,9,10,Ticks_ISO_T2_5,148,5,42,127,809643384
73,9,10,Ticks_ISO_T2_5,149,1,48,49,810065396
73,9,10,Ticks_ISO_T2_5,150,5,42,127,810143020
73,9,10,Ticks_ISO_T2_5,151,1,48,43,810608176
73,9,10,Ticks_ISO_T2_5,152,5,42,127,810642936
73,9,10,Ticks_ISO_T2_5,153,1,48,41,811092980
73,9,10,Ticks_ISO_T2_5,154,5,42,127,811142632
73,9,10,Ticks_ISO_T2_5,155,1,48,46,811596788
73,9,10,Ticks_ISO_T2_5,156,5,42,127,811643224
73,9,10,Ticks_ISO_T2_5,157,1,48,47,812063052
73,9,10,Ticks_ISO_T2_5,158,5,42,127,812142972
73,9,10,Ticks_ISO_T2_5,159,1,48,46,812554448
73,9,10,Ticks_ISO_T2_5,160,5,42,127,812642592
73,9,10,Ticks_ISO_T2_5,161,1,48,49,813062140
73,9,10,Ticks_ISO_T2_5,162,5,42,127,813143480
73,9,10,Ticks_ISO_T2_5,163,1,48,43,813563480
73,9,10,Ticks_ISO_T2_5,164,5,42,127,813643100
73,9,10,Ticks_ISO_T2_5,165,1,48,42,814038272
73,9,10,Ticks_ISO_T2_5,166,5,42,127,814142708
73,9,10,Ticks_ISO_T2_5,167,1,48,46,814551728
73,9,10,Ticks_ISO_T2_5,168,5,42,127,814642640
73,9,10,Ticks_ISO_T2_5,169,1,48,34,815060920
73,9,10,Ticks_ISO_T2_5,170,5,42,127,815143160
73,9,10,Ticks_ISO_T2_5,171,1,48,43,815548276
73,9,10,Ticks_ISO_T2_5,172,5,42,127,815642852
73,9,10,Ticks_ISO_T2_5,173,1,48,46,816043188
73,9,10,Ticks_ISO_T2_5,174,5,42,127,816142684
73,9,10,Ticks_ISO_T2_5,175,1,48,43,816522460
73,9,10,Ticks_ISO_T2_5,176,5,42,127,816642456
73,9,10,Ticks_ISO_T2_5,177,1,48,46,817015568
73,9,10,Ticks_ISO_T2_5,178,5,42,127,817143124
73,9,10,Ticks_ISO_T2_5,179,1,48,43,817570920
73,9,10,Ticks_ISO_T2_5,180,5,42,127,817642832
73,9,10,Ticks_ISO_T2_5,181,1,48,45,818054976
73,9,10,Ticks_ISO_T2_5,182,5,42,127,818142676
73,9,10,Ticks_ISO_T2_5,183,1,48,40,818582724
73,9,10,Ticks_ISO_T2_5,184,5,42,127,818643416
73,9,10,Ticks_ISO_T2_5,185,1,48,46,819085932
73,9,10,Ticks_ISO_T2_5,186,5,42,127,819142888
73,9,10,Ticks_ISO_T2_5,187,1,48,44,819560320
73,9,10,Ticks_ISO_T2_5,188,5,42,127,819642808
73,9,10,Ticks_ISO_T2_5,189,5,42,127,820142656
73,9,10,Ticks_ISO_T2_5,190,1,48,43,820279140
73,9,10,Ticks_ISO_T2_5,191,5,42,127,820643172
73,9,10,Ticks_ISO_T2_5,192,1,48,47,820679952
73,9,10,Ticks_ISO_T2_5,193,5,42,127,821142868
73,9,10,Ticks_ISO_T2_5,194,1,48,46,821199024
73,9,10,Ticks_ISO_T2_5,195,5,42,127,821642564
73,9,10,Ticks_ISO_T2_5,196,1,48,42,821677992
73,9,10,Ticks_ISO_T2_5,197,5,42,127,822143228
73,9,10,Ticks_ISO_T2_5,198,1,48,45,822196688
73,9,10,Ticks_ISO_T2_5,199,5,42,127,822643148
73,9,10,Ticks_ISO_T2_5,200,1,48,42,822654792
73,9,10,Ticks_ISO_T2_5,201,1,48,42,823115772
73,9,10,Ticks_ISO_T2_5,202,5,42,127,823142736
73,9,10,Ticks_ISO_T2_5,203,1,48,35,823613000
73,9,10,Ticks_ISO_T2_5,204,5,42,127,823642728
73,9,10,Ticks_ISO_T2_5,205,1,48,45,824093320
73,9,10,Ticks_ISO_T2_5,206,5,42,127,824143172
73,9,10,Ticks_ISO_T2_5,207,1,48,49,824544244
73,9,10,Ticks_ISO_T2_5,208,1,48,27,824620744
73,9,10,Ticks_ISO_T2_5,209,5,42,127,824642920
73,9,10,Ticks_ISO_T2_5,210,1,48,40,825050952
73,9,10,Ticks_ISO_T2_5,211,5,42,127,825142764
73,9,10,Ticks_ISO_T2_5,212,1,48,44,825527012
73,9,10,Ticks_ISO_T2_5,213,5,42,127,825643340
73,9,10,Ticks_ISO_T2_5,214,1,48,46,826012196
73,9,10,Ticks_ISO_T2_5,215,5,42,127,826143036
73,9,10,Ticks_ISO_T2_5,216,1,48,47,826495288
73,9,10,Ticks_ISO_T2_5,217,5,42,127,826642880
73,9,10,Ticks_ISO_T2_5,218,1,48,41,826977532
73,9,10,Ticks_ISO_T2_5,219,5,42,127,827142724
73,9,10,Ticks_ISO_T2_5,220,1,48,46,827397416
73,9,10,Ticks_ISO_T2_5,221,5,42,127,827643316
73,9,10,Ticks_ISO_T2_5,222,1,48,37,827891200
73,9,10,Ticks_ISO_T2_5,223,5,42,127,828142936
73,9,10,Ticks_ISO_T2_5,224,1,48,40,828399052
73,9,10,Ticks_ISO_T2_5,225,5,42,127,828642856
73,9,10,Ticks_ISO_T2_5,226,1,48,44,828896800
73,9,10,Ticks_ISO_T2_5,227,5,42,127,829143600
73,9,10,Ticks_ISO_T2_5,228,1,48,43,829378464
73,9,10,Ticks_ISO_T2_5,229,5,42,127,829643216
73,9,10,Ticks_ISO_T2_5,230,1,48,50,829832236
73,9,10,Ticks_ISO_T2_5,231,5,42,127,830142764
73,9,10,Ticks_ISO_T2_5,232,1,48,40,830304228
73,9,10,Ticks_ISO_T2_5,233,5,42,127,830642756
73,9,10,Ticks_ISO_T2_5,234,1,48,45,830748576
73,9,10,Ticks_ISO_T2_5,235,5,42,127,831143128
73,9,10,Ticks_ISO_T2_5,236,1,48,44,831164268
73,9,10,Ticks_ISO_T2_5,237,1,48,42,831608672
73,9,10,Ticks_ISO_T2_5,238,5,42,127,831642964
73,9,10,Ticks_ISO_T2_5,239,1,48,40,832078500
73,9,10,Ticks_ISO_T2_5,240,5,42,127,832142660
73,9,10,Ticks_ISO_T2_5,241,1,48,41,832538032
73,9,10,Ticks_ISO_T2_5,242,5,42,127,832642712
73,9,10,Ticks_ISO_T2_5,243,1,48,43,833022612
73,9,10,Ticks_ISO_T2_5,244,5,42,127,833143308
73,9,10,Ticks_ISO_T2_5,245,1,48,37,833560684
73,9,10,Ticks_ISO_T2_5,246,5,42,127,833642840
73,9,10,Ticks_ISO_T2_5,247,1,48,38,834025220
73,9,10,Ticks_ISO_T2_5,248,5,42,127,834142744
73,9,10,Ticks_ISO_T2_5,249,1,48,21,834537256
73,9,10,Ticks_ISO_T2_5,250,5,42,127,834643412
73,9,10,Ticks_ISO_T2_5,251,1,48,40,835054080
73,9,10,Ticks_ISO_T2_5,252,5,42,127,835142900
73,9,10,Ticks_ISO_T2_5,253,1,48,43,835578984
73,9,10,Ticks_ISO_T2_5,254,5,42,127,835642668
73,9,10,Ticks_ISO_T2_5,255,1,48,47,836136196
73,9,10,Ticks_ISO_T2_5,256,5,42,127,836142588
73,9,10,Ticks_ISO_T2_5,257,1,48,31,836195132
73,9,10,Ticks_ISO_T2_5,258,1,48,43,836617696
73,9,10,Ticks_ISO_T2_5,259,5,42,127,836643384
73,9,10,Ticks_ISO_T2_5,260,1,48,42,837124044
73,9,10,Ticks_ISO_T2_5,261,5,42,127,837143004
73,9,10,Ticks_ISO_T2_5,262,1,48,25,837176776
73,9,10,Ticks_ISO_T2_5,263,1,48,43,837595592
73,9,10,Ticks_ISO_T2_5,0,9999,9999,9999,772640844
73,9,10,Ticks_ISO_T2_5,1,9999,9999,9999,773140560
73,9,10,Ticks_ISO_T2_5,2,9999,9999,9999,773640276
73,9,10,Ticks_ISO_T2_5,3,9999,9999,9999,774141040
73,9,10,Ticks_ISO_T2_5,4,9999,9999,9999,774640756
73,9,10,Ticks_ISO_T2_5,5,9999,9999,9999,775140472
73,9,10,Ticks_ISO_T2_5,6,9999,9999,9999,775640112
73,9,10,Ticks_ISO_T2_5,7,9999,9999,9999,776140876
73,9,10,Ticks_ISO_T2_5,8,9999,9999,9999,776640588
73,9,10,Ticks_ISO_T2_5,9,9999,9999,9999,777140280
73,9,10,Ticks_ISO_T2_5,10,9999,9999,9999,777641024
73,9,10,Ticks_ISO_T2_5,11,9999,9999,9999,778140792
73,9,10,Ticks_ISO_T2_5,12,9999,9999,9999,778640492
73,9,10,Ticks_ISO_T2_5,13,9999,9999,9999,779140180
73,9,10,Ticks_ISO_T2_5,14,9999,9999,9999,779640928
73,9,10,Ticks_ISO_T2_5,15,9999,9999,9999,780140600
73,9,10,Ticks_ISO_T2_5,16,9999,9999,9999,780640344
73,9,10,Ticks_ISO_T2_5,17,9999,9999,9999,781141068
73,9,10,Ticks_ISO_T2_5,18,9999,9999,9999,781640760
73,9,10,Ticks_ISO_T2_5,19,9999,9999,9999,782140528
73,9,10,Ticks_ISO_T2_5,20,9999,9999,9999,782640224
73,9,10,Ticks_ISO_T2_5,21,9999,9999,9999,783140940
73,9,10,Ticks_ISO_T2_5,22,9999,9999,9999,783640640
73,9,10,Ticks_ISO_T2_5,23,9999,9999,9999,784140408
73,9,10,Ticks_ISO_T2_5,24,9999,9999,9999,784640100
73,9,10,Ticks_ISO_T2_5,25,9999,9999,9999,785140820
73,9,10,Ticks_ISO_T2_5,26,9999,9999,9999,785640568
73,9,10,Ticks_ISO_T2_5,27,9999,9999,9999,786140264
73,9,10,Ticks_ISO_T2_5,28,9999,9999,9999,786641004
73,9,10,Ticks_ISO_T2_5,29,9999,9999,9999,787140700
73,9,10,Ticks_ISO_T2_5,30,9999,9999,9999,787640396
73,9,10,Ticks_ISO_T2_5,31,9999,9999,9999,788140088
73,9,10,Ticks_ISO_T2_5,32,9999,9999,9999,788640884
73,9,10,Ticks_ISO_T2_5,33,9999,9999,9999,789140580
73,9,10,Ticks_ISO_T2_5,34,9999,9999,9999,789640252
73,9,10,Ticks_ISO_T2_5,35,9999,9999,9999,790140992
73,9,10,Ticks_ISO_T2_5,36,9999,9999,9999,790640736
73,9,10,Ticks_ISO_T2_5,37,9999,9999,9999,791140432
73,9,10,Ticks_ISO_T2_5,38,9999,9999,9999,791640120
73,9,10,Ticks_ISO_T2_5,39,9999,9999,9999,792140860
73,9,10,Ticks_ISO_T2_5,40,9999,9999,9999,792640616
73,9,10,Ticks_ISO_T2_5,41,9999,9999,9999,793140308
73,9,10,Ticks_ISO_T2_5,42,9999,9999,9999,793641052
73,9,10,Ticks_ISO_T2_5,43,9999,9999,9999,794140748
73,9,10,Ticks_ISO_T2_5,44,9999,9999,9999,794640440
73,9,10,Ticks_ISO_T2_5,45,9999,9999,9999,795140212
73,9,10,Ticks_ISO_T2_5,46,9999,9999,9999,795640920
73,9,10,Ticks_ISO_T2_5,47,9999,9999,9999,796140600
73,9,10,Ticks_ISO_T2_5,48,9999,9999,9999,796640368
73,9,10,Ticks_ISO_T2_5,49,9999,9999,9999,797141112
73,9,10,Ticks_ISO_T2_5,50,9999,9999,9999,797640804
73,9,10,Ticks_ISO_T2_5,51,9999,9999,9999,798140500
73,9,10,Ticks_ISO_T2_5,52,9999,9999,9999,798640196
73,9,10,Ticks_ISO_T2_5,53,9999,9999,9999,799140936
73,9,10,Ticks_ISO_T2_5,54,9999,9999,9999,799640648
73,9,10,Ticks_ISO_T2_5,55,9999,9999,9999,800140348
73,9,10,Ticks_ISO_T2_5,56,9999,9999,9999,800640116
73,9,10,Ticks_ISO_T2_5,57,9999,9999,9999,801140784
73,9,10,Ticks_ISO_T2_5,58,9999,9999,9999,801640528
73,9,10,Ticks_ISO_T2_5,59,9999,9999,9999,802140224
73,9,10,Ticks_ISO_T2_5,60,9999,9999,9999,802640964
73,9,10,Ticks_ISO_T2_5,61,9999,9999,9999,803140656
73,9,10,Ticks_ISO_T2_5,62,9999,9999,9999,803640440
73,9,10,Ticks_ISO_T2_5,63,9999,9999,9999,804140136
73,9,10,Ticks_ISO_T2_5,64,9999,9999,9999,804640884
73,9,10,Ticks_ISO_T2_5,65,9999,9999,9999,805140580
73,9,10,Ticks_ISO_T2_5,66,9999,9999,9999,805640272
73,9,10,Ticks_ISO_T2_5,67,9999,9999,9999,806141008
73,9,10,Ticks_ISO_T2_5,68,9999,9999,9999,806640700
73,9,10,Ticks_ISO_T2_5,69,9999,9999,9999,807140472
73,9,10,Ticks_ISO_T2_5,70,9999,9999,9999,807640168
73,9,10,Ticks_ISO_T2_5,71,9999,9999,9999,808140908
73,9,10,Ticks_ISO_T2_5,72,9999,9999,9999,808640604
73,9,10,Ticks_ISO_T2_5,73,9999,9999,9999,809140300
73,9,10,Ticks_ISO_T2_5,74,9999,9999,9999,809641024
73,9,10,Ticks_ISO_T2_5,75,9999,9999,9999,810140736
73,9,10,Ticks_ISO_T2_5,76,9999,9999,9999,810640504
73,9,10,Ticks_ISO_T2_5,77,9999,9999,9999,811140200
73,9,10,Ticks_ISO_T2_5,78,9999,9999,9999,811640940
73,9,10,Ticks_ISO_T2_5,79,9999,9999,9999,812140608
73,9,10,Ticks_ISO_T2_5,80,9999,9999,9999,812640304
73,9,10,Ticks_ISO_T2_5,81,9999,9999,9999,813141048
73,9,10,Ticks_ISO_T2_5,82,9999,9999,9999,813640816
73,9,10,Ticks_ISO_T2_5,83,9999,9999,9999,814140496
73,9,10,Ticks_ISO_T2_5,84,9999,9999,9999,814640204
73,9,10,Ticks_ISO_T2_5,85,9999,9999,9999,815140948
73,9,10,Ticks_ISO_T2_5,86,9999,9999,9999,815640640
73,9,10,Ticks_ISO_T2_5,87,9999,9999,9999,816140396
73,9,10,Ticks_ISO_T2_5,88,9999,9999,9999,816640092
73,9,10,Ticks_ISO_T2_5,89,9999,9999,9999,817140836
73,9,10,Ticks_ISO_T2_5,90,9999,9999,9999,817640548
73,9,10,Ticks_ISO_T2_5,91,9999,9999,9999,818140240
73,9,10,Ticks_ISO_T2_5,92,9999,9999,9999,818640984
73,9,10,Ticks_ISO_T2_5,93,9999,9999,9999,819140676
73,9,10,Ticks_ISO_T2_5,94,9999,9999,9999,819640372
73,9,10,Ticks_ISO_T2_5,95,9999,9999,9999,820140144
73,9,10,Ticks_ISO_T2_5,96,9999,9999,9999,820640888
73,9,10,Ticks_ISO_T2_5,97,9999,9999,9999,821140584
73,9,10,Ticks_ISO_T2_5,98,9999,9999,9999,821640276
73,9,10,Ticks_ISO_T2_5,99,9999,9999,9999,822141016
73,9,10,Ticks_ISO_T2_5,100,9999,9999,9999,822640760
73,9,10,Ticks_ISO_T2_5,101,9999,9999,9999,823140448
73,9,10,Ticks_ISO_T2_5,102,9999,9999,9999,823640144
73,9,10,Ticks_ISO_T2_5,103,9999,9999,9999,824140884
73,9,10,Ticks_ISO_T2_5,104,9999,9999,9999,824640632
73,9,10,Ticks_ISO_T2_5,105,9999,9999,9999,825140328
73,9,10,Ticks_ISO_T2_5,106,9999,9999,9999,825641056
73,9,10,Ticks_ISO_T2_5,107,9999,9999,9999,826140752
73,9,10,Ticks_ISO_T2_5,108,9999,9999,9999,826640444
73,9,10,Ticks_ISO_T2_5,109,9999,9999,9999,827140216
73,9,10,Ticks_ISO_T2_5,110,9999,9999,9999,827640880
73,9,10,Ticks_ISO_T2_5,111,9999,9999,9999,828140652
73,9,10,Ticks_ISO_T2_5,112,9999,9999,9999,828640348
73,9,10,Ticks_ISO_T2_5,113,9999,9999,9999,829141088
73,9,10,Ticks_ISO_T2_5,114,9999,9999,9999,829640784
73,9,10,Ticks_ISO_T2_5,115,9999,9999,9999,830140480
73,9,10,Ticks_ISO_T2_5,116,9999,9999,9999,830640248
73,9,10,Ticks_ISO_T2_5,117,9999,9999,9999,831140916
73,9,10,Ticks_ISO_T2_5,118,9999,9999,9999,831640680
73,9,10,Ticks_ISO_T2_5,119,9999,9999,9999,832140372
73,9,10,Ticks_ISO_T2_5,120,9999,9999,9999,832640056
73,9,10,Ticks_ISO_T2_5,121,9999,9999,9999,833140796
73,9,10,Ticks_ISO_T2_5,122,9999,9999,9999,833640556
73,9,10,Ticks_ISO_T2_5,123,9999,9999,9999,834140236
73,9,10,Ticks_ISO_T2_5,124,9999,9999,9999,834640976
73,9,10,Ticks_ISO_T2_5,125,9999,9999,9999,835140688
73,9,10,Ticks_ISO_T2_5,126,9999,9999,9999,835640384
73,9,10,Ticks_ISO_T2_5,127,9999,9999,9999,836140152
73,9,10,Ticks_ISO_T2_5,128,9999,9999,9999,836640872
73,9,10,Ticks_ISO_T2_5,129,9999,9999,9999,837140568
73,10,20,Ticks_Linear_8,0,5,42,127,849161592
73,10,20,Ticks_Linear_8,1,5,42,127,849981780
73,10,20,Ticks_Linear_8,2,5,42,127,850802220
73,10,20,Ticks_Linear_8,3,5,42,127,851622408
73,10,20,Ticks_Linear_8,4,5,42,127,852441476
73,10,20,Ticks_Linear_8,5,5,42,127,853251484
73,10,20,Ticks_Linear_8,6,5,42,127,854061412
73,10,20,Ticks_Linear_8,7,5,42,127,854872392
73,10,20,Ticks_Linear_8,8,1,48,52,855503144
73,10,20,Ticks_Linear_8,9,5,42,127,855682548
73,10,20,Ticks_Linear_8,10,1,48,50,856329908
73,10,20,Ticks_Linear_8,11,5,42,127,856501668
73,10,20,Ticks_Linear_8,12,1,48,48,857146476
73,10,20,Ticks_Linear_8,13,5,42,127,857302440
73,10,20,Ticks_Linear_8,14,1,48,55,857982768
73,10,20,Ticks_Linear_8,15,5,42,127,858102088
73,10,20,Ticks_Linear_8,16,1,48,42,858786752
73,10,20,Ticks_Linear_8,17,5,42,127,858902036
73,10,20,Ticks_Linear_8,18,1,48,46,859538996
73,10,20,Ticks_Linear_8,19,5,42,127,859701536
73,10,20,Ticks_Linear_8,20,1,48,43,860373176
73,10,20,Ticks_Linear_8,21,5,42,127,860502384
73,10,20,Ticks_Linear_8,22,1,48,46,861198056
73,10,20,Ticks_Linear_8,23,5,42,127,861292012
73,10,20,Ticks_Linear_8,24,1,48,29,862073372
73,10,20,Ticks_Linear_8,25,5,42,127,862082472
73,10,20,Ticks_Linear_8,26,1,48,51,862867700
73,10,20,Ticks_Linear_8,27,5,42,127,862882120
73,10,20,Ticks_Linear_8,28,1,48,39,863649596
73,10,20,Ticks_Linear_8,29,5,42,127,863671884
73,10,20,Ticks_Linear_8,30,1,48,47,864388736
73,10,20,Ticks_Linear_8,31,5,42,127,864462100
73,10,20,Ticks_Linear_8,32,1,48,29,864471276
73,10,20,Ticks_Linear_8,33,1,48,47,865222296
73,10,20,Ticks_Linear_8,34,5,42,127,865241432
73,10,20,Ticks_Linear_8,35,5,42,127,866021692
73,10,20,Ticks_Linear_8,36,1,48,47,866032152
73,10,20,Ticks_Linear_8,37,5,42,127,866802092
73,10,20,Ticks_Linear_8,38,1,48,47,866811132
73,10,20,Ticks_Linear_8,39,1,48,61,867575928
73,10,20,Ticks_Linear_8,40,5,42,127,867582264
73,10,20,Ticks_Linear_8,41,5,42,127,868361700
73,10,20,Ticks_Linear_8,42,1,48,46,868375976
73,10,20,Ticks_Linear_8,43,5,42,127,869132064
73,10,20,Ticks_Linear_8,44,1,48,62,869157352
73,10,20,Ticks_Linear_8,45,5,42,127,869902060
73,10,20,Ticks_Linear_8,46,1,48,43,869948236
73,10,20,Ticks_Linear_8,47,5,42,127,870671752
73,10,20,Ticks_Linear_8,48,1,48,54,870742352
73,10,20,Ticks_Linear_8,49,5,42,127,871441896
73,10,20,Ticks_Linear_8,50,1,48,40,871546136
73,10,20,Ticks_Linear_8,51,5,42,127,872211816
73,10,20,Ticks_Linear_8,52,1,48,56,872360016
73,10,20,Ticks_Linear_8,53,5,42,127,872971772
73,10,20,Ticks_Linear_8,54,1,48,54,873239412
73,10,20,Ticks_Linear_8,55,5,42,127,873731508
73,10,20,Ticks_Linear_8,56,1,48,47,874068420
73,10,20,Ticks_Linear_8,57,5,42,127,874492216
73,10,20,Ticks_Linear_8,58,1,48,63,874874388
73,10,20,Ticks_Linear_8,59,5,42,127,875252024
73,10,20,Ticks_Linear_8,60,1,48,45,875647824
73,10,20,Ticks_Linear_8,61,5,42,127,876011760
73,10,20,Ticks_Linear_8,62,1,48,51,876409880
73,10,20,Ticks_Linear_8,63,5,42,127,876761608
73,10,20,Ticks_Linear_8,64,1,48,58,877160312
73,10,20,Ticks_Linear_8,65,5,42,127,877512128
73,10,20,Ticks_Linear_8,66,1,48,48,877879460
73,10,20,Ticks_Linear_8,67,5,42,127,878261756
73,10,20,Ticks_Linear_8,68,1,48,57,878627052
73,10,20,Ticks_Linear_8,69,5,42,127,879012200
73,10,20,Ticks_Linear_8,70,1,48,53,879355108
73,10,20,Ticks_Linear_8,71,1,48,27,879716520
73,10,20,Ticks_Linear_8,72,5,42,127,879761672
73,10,20,Ticks_Linear_8,73,1,48,40,880102020
73,10,20,Ticks_Linear_8,74,1,48,38,880497676
73,10,20,Ticks_Linear_8,75,5,42,127,880502136
73,10,20,Ticks_Linear_8,76,1,48,41,880943804
73,10,20,Ticks_Linear_8,77,5,42,127,881241684
73,10,20,Ticks_Linear_8,78,1,48,51,881742936
73,10,20,Ticks_Linear_8,79,5,42,127,881981724
73,10,20,Ticks_Linear_8,80,1,48,59,882463496
73,10,20,Ticks_Linear_8,81,5,42,127,882722136
73,10,20,Ticks_Linear_8,82,1,48,35,883230352
73,10,20,Ticks_Linear_8,83,5,42,127,883461724
73,10,20,Ticks_Linear_8,84,1,48,33,883592556
73,10,20,Ticks_Linear_8,85,1,48,36,884044876
73,10,20,Ticks_Linear_8,86,5,42,127,884191632
73,10,20,Ticks_Linear_8,87,1,48,47,884838828
73,10,20,Ticks_Linear_8,88,5,42,127,884921800
73,10,20,Ticks_Linear_8,89,5,42,127,885651736
73,10,20,Ticks_Linear_8,90,1,48,44,885673280
73,10,20,Ticks_Linear_8,91,5,42,127,886381936
73,10,20,Ticks_Linear_8,92,1,48,57,886443048
73,10,20,Ticks_Linear_8,93,1,48,29,886541200
73,10,20,Ticks_Linear_8,94,5,42,127,887112068
73,10,20,Ticks_Linear_8,95,1,48,51,887337028
73,10,20,Ticks_Linear_8,96,1,48,29,887415064
73,10,20,Ticks_Linear_8,97,5,42,127,887831792
73,10,20,Ticks_Linear_8,98,1,48,44,888191948
73,10,20,Ticks_Linear_8,99,5,42,127,888551760
73,10,20,Ticks_Linear_8,100,1,48,51,889035700
73,10,20,Ticks_Linear_8,101,5,42,127,889271580
73,10,20,Ticks_Linear_8,102,1,48,43,889878480
73,10,20,Ticks_Linear_8,103,5,42,127,889991620
73,10,20,Ticks_Linear_8,104,1,48,56,890643312
73,10,20,Ticks_Linear_8,105,5,42,127,890712476
73,10,20,Ticks_Linear_8,106,1,48,52,891290048
73,10,20,Ticks_Linear_8,107,1,48,38,891325064
73,10,20,Ticks_Linear_8,108,5,42,127,891432408
73,10,20,Ticks_Linear_8,109,1,48,55,891998800
73,10,20,Ticks_Linear_8,110,5,42,127,892141892
73,10,20,Ticks_Linear_8,111,1,48,54,892729716
73,10,20,Ticks_Linear_8,112,1,48,36,892782184
73,10,20,Ticks_Linear_8,113,5,42,127,892851496
73,10,20,Ticks_Linear_8,114,1,48,49,893559212
73,10,20,Ticks_Linear_8,115,5,42,127,893562328
73,10,20,Ticks_Linear_8,116,1,48,34,893612836
73,10,20,Ticks_Linear_8,117,5,42,127,894271776
73,10,20,Ticks_Linear_8,118,1,48,43,894299688
73,10,20,Ticks_Linear_8,119,5,42,127,894972344
73,10,20,Ticks_Linear_8,120,1,48,49,895014256
73,10,20,Ticks_Linear_8,121,5,42,127,895671796
73,10,20,Ticks_Linear_8,122,1,48,53,895728456
73,10,20,Ticks_Linear_8,123,5,42,127,896372220
73,10,20,Ticks_Linear_8,124,1,48,51,896407536
73,10,20,Ticks_Linear_8,125,5,42,127,897071344
73,10,20,Ticks_Linear_8,126,1,48,35,897191840
73,10,20,Ticks_Linear_8,127,5,42,127,897771772
73,10,20,Ticks_Linear_8,128,1,48,39,897913384
73,10,20,Ticks_Linear_8,129,5,42,127,898462308
73,10,20,Ticks_Linear_8,130,1,48,21,898764328
73,10,20,Ticks_Linear_8,131,5,42,127,899152372
73,10,20,Ticks_Linear_8,132,1,48,51,899501896
73,10,20,Ticks_Linear_8,133,5,42,127,899842384
73,10,20,Ticks_Linear_8,134,1,48,51,900281404
73,10,20,Ticks_Linear_8,135,5,42,127,900541760
73,10,20,Ticks_Linear_8,136,1,48,54,901029292
73,10,20,Ticks_Linear_8,137,5,42,127,901232072
73,10,20,Ticks_Linear_8,138,1,48,67,901734336
73,10,20,Ticks_Linear_8,139,5,42,127,901912100
73,10,20,Ticks_Linear_8,140,1,48,54,902525772
73,10,20,Ticks_Linear_8,141,5,42,127,902591792
73,10,20,Ticks_Linear_8,142,5,42,127,903271680
73,10,20,Ticks_Linear_8,143,1,48,61,903314516
73,10,20,Ticks_Linear_8,144,5,42,127,903951660
73,10,20,Ticks_Linear_8,145,1,48,30,904113712
73,10,20,Ticks_Linear_8,146,5,42,127,904631564
73,10,20,Ticks_Linear_8,147,1,48,58,904853532
73,10,20,Ticks_Linear_8,148,5,42,127,905302304
73,10,20,Ticks_Linear_8,149,1,48,20,905608612
73,10,20,Ticks_Linear_8,150,5,42,127,905972324
73,10,20,Ticks_Linear_8,151,1,48,49,906584024
73,10,20,Ticks_Linear_8,152,5,42,127,906641684
73,10,20,Ticks_Linear_8,153,5,42,127,907311536
73,10,20,Ticks_Linear_8,154,1,48,64,907367596
73,10,20,Ticks_Linear_8,155,5,42,127,907982152
73,10,20,Ticks_Linear_8,156,1,48,51,908059944
73,10,20,Ticks_Linear_8,157,5,42,127,908641516
73,10,20,Ticks_Linear_8,158,1,48,52,908794208
73,10,20,Ticks_Linear_8,159,5,42,127,909302096
73,10,20,Ticks_Linear_8,160,1,48,50,909535664
73,10,20,Ticks_Linear_8,161,1,48,27,909617792
73,10,20,Ticks_Linear_8,162,5,42,127,909961460
73,10,20,Ticks_Linear_8,163,1,48,57,910183172
73,10,20,Ticks_Linear_8,164,1,48,25,910291468
73,10,20,Ticks_Linear_8,165,5,42,127,910622140
73,10,20,Ticks_Linear_8,166,1,48,43,910918020
73,10,20,Ticks_Linear_8,167,1,48,21,910993512
73,10,20,Ticks_Linear_8,168,5,42,127,911281504
73,10,20,Ticks_Linear_8,169,1,48,57,911605016
73,10,20,Ticks_Linear_8,170,1,48,17,911722120
73,10,20,Ticks_Linear_8,171,5,42,127,911931708
73,10,20,Ticks_Linear_8,172,1,48,51,912289092
73,10,20,Ticks_Linear_8,173,5,42,127,912581956
73,10,20,Ticks_Linear_8,174,1,48,42,912986496
73,10,20,Ticks_Linear_8,175,5,42,127,913232328
73,10,20,Ticks_Linear_8,176,1,48,42,913684220
73,10,20,Ticks_Linear_8,177,5,42,127,913881452
73,10,20,Ticks_Linear_8,178,1,48,38,914466492
73,10,20,Ticks_Linear_8,179,5,42,127,914531840
73,10,20,Ticks_Linear_8,180,5,42,127,915171912
73,10,20,Ticks_Linear_8,181,1,48,48,915205732
73,10,20,Ticks_Linear_8,182,5,42,127,915811728
73,10,20,Ticks_Linear_8,183,1,48,52,915948164
73,10,20,Ticks_Linear_8,184,1,48,32,915998688
73,10,20,Ticks_Linear_8,185,5,42,127,916451844
73,10,20,Ticks_Linear_8,186,1,48,53,916630524
73,10,20,Ticks_Linear_8,187,1,48,34,916685916
73,10,20,Ticks_Linear_8,188,5,42,127,917091784
73,10,20,Ticks_Linear_8,189,1,48,47,917300500
73,10,20,Ticks_Linear_8,190,5,42,127,917732144
73,10,20,Ticks_Linear_8,191,1,48,51,918026076
73,10,20,Ticks_Linear_8,192,1,48,36,918069036
73,10,20,Ticks_Linear_8,193,5,42,127,918361380
73,10,20,Ticks_Linear_8,194,1,48,49,918780404
73,10,20,Ticks_Linear_8,195,5,42,127,918992156
73,10,20,Ticks_Linear_8,196,1,48,48,919443752
73,10,20,Ticks_Linear_8,197,1,48,31,919492184
73,10,20,Ticks_Linear_8,198,5,42,127,919622064
73,10,20,Ticks_Linear_8,199,1,48,54,920169136
73,10,20,Ticks_Linear_8,200,5,42,127,920252032
73,10,20,Ticks_Linear_8,201,1,48,54,920847396
73,10,20,Ticks_Linear_8,202,5,42,127,920881440
73,10,20,Ticks_Linear_8,203,1,48,34,920888056
73,10,20,Ticks_Linear_8,204,5,42,127,921501940
73,10,20,Ticks_Linear_8,205,1,48,54,921507524
73,10,20,Ticks_Linear_8,206,1,48,30,921565092
73,10,20,Ticks_Linear_8,207,1,48,55,922059224
73,10,20,Ticks_Linear_8,208,1,48,36,922122160
73,10,20,Ticks_Linear_8,209,5,42,127,922123356
73,10,20,Ticks_Linear_8,210,1,48,48,922705688
73,10,20,Ticks_Linear_8,211,5,42,127,922742228
73,10,20,Ticks_Linear_8,212,5,42,127,923361824
73,10,20,Ticks_Linear_8,213,1,48,30,923372888
73,10,20,Ticks_Linear_8,214,1,48,43,923952768
73,10,20,Ticks_Linear_8,215,5,42,127,923982092
73,10,20,Ticks_Linear_8,216,1,48,50,924543036
73,10,20,Ticks_Linear_8,217,5,42,127,924591676
73,10,20,Ticks_Linear_8,218,1,48,22,924615372
73,10,20,Ticks_Linear_8,219,1,48,50,925113856
73,10,20,Ticks_Linear_8,220,5,42,127,925201740
73,10,20,Ticks_Linear_8,221,1,48,40,925709792
73,10,20,Ticks_Linear_8,222,5,42,127,925812060
73,10,20,Ticks_Linear_8,223,1,48,40,926284596
73,10,20,Ticks_Linear_8,224,1,48,17,926381064
73,10,20,Ticks_Linear_8,225,5,42,127,926422360
73,10,20,Ticks_Linear_8,226,1,48,43,926847728
73,10,20,Ticks_Linear_8,227,5,42,127,927031756
73,10,20,Ticks_Linear_8,228,1,48,44,927373192
73,10,20,Ticks_Linear_8,229,5,42,127,927631832
73,10,20,Ticks_Linear_8,230,1,48,43,927885248
73,10,20,Ticks_Linear_8,231,5,42,127,928231736
73,10,20,Ticks_Linear_8,232,1,48,42,928406892
73,10,20,Ticks_Linear_8,233,5,42,127,928831856
73,10,20,Ticks_Linear_8,234,1,48,46,928931532
73,10,20,Ticks_Linear_8,235,1,48,36,929378904
73,10,20,Ticks_Linear_8,236,5,42,127,929431924
73,10,20,Ticks_Linear_8,237,1,48,38,929891424
73,10,20,Ticks_Linear_8,238,5,42,127,930032108
73,10,20,Ticks_Linear_8,239,1,48,39,930373748
73,10,20,Ticks_Linear_8,240,5,42,127,930621748
73,10,20,Ticks_Linear_8,241,1,48,44,930914104
73,10,20,Ticks_Linear_8,242,5,42,127,931211640
73,10,20,Ticks_Linear_8,243,1,48,45,931580092
73,10,20,Ticks_Linear_8,244,5,42,127,931801508
73,10,20,Ticks_Linear_8,245,1,48,49,932317124
73,10,20,Ticks_Linear_8,246,5,42,127,932392208
73,10,20,Ticks_Linear_8,247,5,42,127,932982104
73,10,20,Ticks_Linear_8,248,1,48,42,933127732
73,10,20,Ticks_Linear_8,249,5,42,127,933561708
73,10,20,Ticks_Linear_8,250,1,48,47,933962812
73,10,20,Ticks_Linear_8,251,5,42,127,934142364
73,10,20,Ticks_Linear_8,252,5,42,127,934721916
73,10,20,Ticks_Linear_8,253,1,48,43,934830656
73,10,20,Ticks_Linear_8,254,5,42,127,935301544
73,10,20,Ticks_Linear_8,255,1,48,55,935535940
73,10,20,Ticks_Linear_8,256,5,42,127,935882048
73,10,20,Ticks_Linear_8,257,1,48,45,936174404
73,10,20,Ticks_Linear_8,258,5,42,127,936451620
73,10,20,Ticks_Linear_8,259,1,48,54,936865096
73,10,20,Ticks_Linear_8,260,5,42,127,937021788
73,10,20,Ticks_Linear_8,261,1,48,46,937551048
73,10,20,Ticks_Linear_8,262,5,42,127,937592220
73,10,20,Ticks_Linear_8,263,5,42,127,938161572
73,10,20,Ticks_Linear_8,264,1,48,41,938274328
73,10,20,Ticks_Linear_8,265,5,42,127,938731892
73,10,20,Ticks_Linear_8,266,1,48,51,938955500
73,10,20,Ticks_Linear_8,267,5,42,127,939292024
73,10,20,Ticks_Linear_8,268,1,48,44,939577192
73,10,20,Ticks_Linear_8,269,5,42,127,939852008
73,10,20,Ticks_Linear_8,270,1,48,38,940226020
73,10,20,Ticks_Linear_8,271,5,42,127,940412468
73,10,20,Ticks_Linear_8,272,5,42,127,940972396
73,10,20,Ticks_Linear_8,273,1,48,53,941238092
73,10,20,Ticks_Linear_8,274,5,42,127,941531560
73,10,20,Ticks_Linear_8,275,1,48,46,941979180
73,10,20,Ticks_Linear_8,276,5,42,127,942082412
73,10,20,Ticks_Linear_8,277,1,48,54,942628804
73,10,20,Ticks_Linear_8,278,5,42,127,942641588
73,10,20,Ticks_Linear_8,279,5,42,127,943192296
73,10,20,Ticks_Linear_8,280,1,48,48,943240528
73,10,20,Ticks_Linear_8,281,5,42,127,943751480
73,10,20,Ticks_Linear_8,282,1,48,45,943886996
73,10,20,Ticks_Linear_8,283,5,42,127,944301432
73,10,20,Ticks_Linear_8,284,1,48,61,944540028
73,10,20,Ticks_Linear_8,285,5,42,127,944842240
73,10,20,Ticks_Linear_8,286,1,48,46,945136396
73,10,20,Ticks_Linear_8,287,5,42,127,945381636
73,10,20,Ticks_Linear_8,288,1,48,48,945747156
73,10,20,Ticks_Linear_8,289,1,48,24,945808640
73,10,20,Ticks_Linear_8,290,5,42,127,945922572
73,10,20,Ticks_Linear_8,291,1,48,55,946388392
73,10,20,Ticks_Linear_8,292,1,48,30,946456144
73,10,20,Ticks_Linear_8,293,5,42,127,946472216
73,10,20,Ticks_Linear_8,294,1,48,59,946995388
73,10,20,Ticks_Linear_8,295,5,42,127,947011908
73,10,20,Ticks_Linear_8,296,1,48,29,947070832
73,10,20,Ticks_Linear_8,297,5,42,127,947542372
73,10,20,Ticks_Linear_8,298,1,48,53,947628708
73,10,20,Ticks_Linear_8,299,5,42,127,948071948
73,10,20,Ticks_Linear_8,300,1,48,58,948192144
73,10,20,Ticks_Linear_8,301,1,48,19,948287752
73,10,20,Ticks_Linear_8,302,5,42,127,948602356
73,10,20,Ticks_Linear_8,303,1,48,54,948814260
73,10,20,Ticks_Linear_8,304,5,42,127,949131636
73,10,20,Ticks_Linear_8,305,1,48,60,949385576
73,10,20,Ticks_Linear_8,306,5,42,127,949662116
73,10,20,Ticks_Linear_8,307,1,48,61,949954248
73,10,20,Ticks_Linear_8,308,5,42,127,950182408
73,10,20,Ticks_Linear_8,309,1,48,62,950589336
73,10,20,Ticks_Linear_8,310,5,42,127,950701432
73,10,20,Ticks_Linear_8,311,1,48,56,951117348
73,10,20,Ticks_Linear_8,312,5,42,127,951221576
73,10,20,Ticks_Linear_8,313,1,48,54,951685072
73,10,20,Ticks_Linear_8,314,5,42,127,951741808
73,10,20,Ticks_Linear_8,315,1,48,51,952205372
73,10,20,Ticks_Linear_8,316,5,42,127,952262248
73,10,20,Ticks_Linear_8,317,1,48,19,952304520
73,10,20,Ticks_Linear_8,318,1,48,53,952766080
73,10,20,Ticks_Linear_8,319,5,42,127,952771892
73,10,20,Ticks_Linear_8,320,5,42,127,953281860
73,10,20,Ticks_Linear_8,321,1,48,53,953613304
73,10,20,Ticks_Linear_8,322,1,48,29,953685180
73,10,20,Ticks_Linear_8,323,5,42,127,953791868
73,10,20,Ticks_Linear_8,324,1,48,47,954117476
73,10,20,Ticks_Linear_8,325,1,48,21,954189196
73,10,20,Ticks_Linear_8,326,5,42,127,954301956
73,10,20,Ticks_Linear_8,327,1,48,57,954636624
73,10,20,Ticks_Linear_8,328,5,42,127,954811840
73,10,20,Ticks_Linear_8,329,1,48,59,955171676
73,10,20,Ticks_Linear_8,330,5,42,127,955311464
73,10,20,Ticks_Linear_8,331,1,48,58,955671376
73,10,20,Ticks_Linear_8,332,1,48,28,955755600
73,10,20,Ticks_Linear_8,333,5,42,127,955812328
73,10,20,Ticks_Linear_8,334,1,48,50,956239612
73,10,20,Ticks_Linear_8,335,5,42,127,956312104
73,10,20,Ticks_Linear_8,336,1,48,57,956757588
73,10,20,Ticks_Linear_8,337,5,42,127,956811580
73,10,20,Ticks_Linear_8,338,1,48,54,957279396
73,10,20,Ticks_Linear_8,339,5,42,127,957312400
73,10,20,Ticks_Linear_8,340,1,48,57,957775040
73,10,20,Ticks_Linear_8,341,5,42,127,957801892
73,10,20,Ticks_Linear_8,342,1,48,36,957822472
73,10,20,Ticks_Linear_8,343,1,48,53,958257116
73,10,20,Ticks_Linear_8,344,5,42,127,958292208
73,10,20,Ticks_Linear_8,345,1,48,54,958735476
73,10,20,Ticks_Linear_8,346,5,42,127,958781872
73,10,20,Ticks_Linear_8,347,1,48,49,959164560
73,10,20,Ticks_Linear_8,348,5,42,127,959272196
73,10,20,Ticks_Linear_8,349,1,48,53,959678632
73,10,20,Ticks_Linear_8,350,5,42,127,959761804
73,10,20,Ticks_Linear_8,0,9999,9999,9999,849159296
73,10,20,Ticks_Linear_8,1,9999,9999,9999,849979484
73,10,20,Ticks_Linear_8,2,9999,9999,9999,850799672
73,10,20,Ticks_Linear_8,3,9999,9999,9999,851619960
73,10,20,Ticks_Linear_8,4,9999,9999,9999,852439104
73,10,20,Ticks_Linear_8,5,9999,9999,9999,853249112
73,10,20,Ticks_Linear_8,6,9999,9999,9999,854059116
73,10,20,Ticks_Linear_8,7,9999,9999,9999,854870092
73,10,20,Ticks_Linear_8,8,9999,9999,9999,855680100
73,10,20,Ticks_Linear_8,9,9999,9999,9999,856499296
73,10,20,Ticks_Linear_8,10,9999,9999,9999,857300068
73,10,20,Ticks_Linear_8,11,9999,9999,9999,858099788
73,10,20,Ticks_Linear_8,12,9999,9999,9999,858899516
73,10,20,Ticks_Linear_8,13,9999,9999,9999,859699312
73,10,20,Ticks_Linear_8,14,9999,9999,9999,860500084
73,10,20,Ticks_Linear_8,15,9999,9999,9999,861289564
73,10,20,Ticks_Linear_8,16,9999,9999,9999,862080100
73,10,20,Ticks_Linear_8,17,9999,9999,9999,862879824
73,10,20,Ticks_Linear_8,18,9999,9999,9999,863669364
73,10,20,Ticks_Linear_8,19,9999,9999,9999,864459876
73,10,20,Ticks_Linear_8,20,9999,9999,9999,865239132
73,10,20,Ticks_Linear_8,21,9999,9999,9999,866019392
73,10,20,Ticks_Linear_8,22,9999,9999,9999,866799720
73,10,20,Ticks_Linear_8,23,9999,9999,9999,867579964
73,10,20,Ticks_Linear_8,24,9999,9999,9999,868359252
73,10,20,Ticks_Linear_8,25,9999,9999,9999,869129320
73,10,20,Ticks_Linear_8,26,9999,9999,9999,869899388
73,10,20,Ticks_Linear_8,27,9999,9999,9999,870669380
73,10,20,Ticks_Linear_8,28,9999,9999,9999,871439448
73,10,20,Ticks_Linear_8,29,9999,9999,9999,872209516
73,10,20,Ticks_Linear_8,30,9999,9999,9999,872969328
73,10,20,Ticks_Linear_8,31,9999,9999,9999,873729136
73,10,20,Ticks_Linear_8,32,9999,9999,9999,874489916
73,10,20,Ticks_Linear_8,33,9999,9999,9999,875249724
73,10,20,Ticks_Linear_8,34,9999,9999,9999,876009532
73,10,20,Ticks_Linear_8,35,9999,9999,9999,876759160
73,10,20,Ticks_Linear_8,36,9999,9999,9999,877509756
73,10,20,Ticks_Linear_8,37,9999,9999,9999,878259304
73,10,20,Ticks_Linear_8,38,9999,9999,9999,879009904
73,10,20,Ticks_Linear_8,39,9999,9999,9999,879759448
73,10,20,Ticks_Linear_8,40,9999,9999,9999,880499836
73,10,20,Ticks_Linear_8,41,9999,9999,9999,881239160
73,10,20,Ticks_Linear_8,42,9999,9999,9999,881979500
73,10,20,Ticks_Linear_8,43,9999,9999,9999,882719836
73,10,20,Ticks_Linear_8,44,9999,9999,9999,883459124
73,10,20,Ticks_Linear_8,45,9999,9999,9999,884189260
73,10,20,Ticks_Linear_8,46,9999,9999,9999,884919352
73,10,20,Ticks_Linear_8,47,9999,9999,9999,885649512
73,10,20,Ticks_Linear_8,48,9999,9999,9999,886379640
73,10,20,Ticks_Linear_8,49,9999,9999,9999,887109696
73,10,20,Ticks_Linear_8,50,9999,9999,9999,887829568
73,10,20,Ticks_Linear_8,51,9999,9999,9999,888549460
73,10,20,Ticks_Linear_8,52,9999,9999,9999,889269356
73,10,20,Ticks_Linear_8,53,9999,9999,9999,889989248
73,10,20,Ticks_Linear_8,54,9999,9999,9999,890710104
73,10,20,Ticks_Linear_8,55,9999,9999,9999,891429960
73,10,20,Ticks_Linear_8,56,9999,9999,9999,892139592
73,10,20,Ticks_Linear_8,57,9999,9999,9999,892849272
73,10,20,Ticks_Linear_8,58,9999,9999,9999,893559880
73,10,20,Ticks_Linear_8,59,9999,9999,9999,894269548
73,10,20,Ticks_Linear_8,60,9999,9999,9999,894969972
73,10,20,Ticks_Linear_8,61,9999,9999,9999,895669348
73,10,20,Ticks_Linear_8,62,9999,9999,9999,896369772
73,10,20,Ticks_Linear_8,63,9999,9999,9999,897069120
73,10,20,Ticks_Linear_8,64,9999,9999,9999,897769544
73,10,20,Ticks_Linear_8,65,9999,9999,9999,898459708
73,10,20,Ticks_Linear_8,66,9999,9999,9999,899149924
73,10,20,Ticks_Linear_8,67,9999,9999,9999,899840084
73,10,20,Ticks_Linear_8,68,9999,9999,9999,900539460
73,10,20,Ticks_Linear_8,69,9999,9999,9999,901229624
73,10,20,Ticks_Linear_8,70,9999,9999,9999,901909576
73,10,20,Ticks_Linear_8,71,9999,9999,9999,902589496
73,10,20,Ticks_Linear_8,72,9999,9999,9999,903269456
73,10,20,Ticks_Linear_8,73,9999,9999,9999,903949432
73,10,20,Ticks_Linear_8,74,9999,9999,9999,904629336
73,10,20,Ticks_Linear_8,75,9999,9999,9999,905300080
73,10,20,Ticks_Linear_8,76,9999,9999,9999,905969724
73,10,20,Ticks_Linear_8,77,9999,9999,9999,906639460
73,10,20,Ticks_Linear_8,78,9999,9999,9999,907309160
73,10,20,Ticks_Linear_8,79,9999,9999,9999,907979852
73,10,20,Ticks_Linear_8,80,9999,9999,9999,908639288
73,10,20,Ticks_Linear_8,81,9999,9999,9999,909299796
73,10,20,Ticks_Linear_8,82,9999,9999,9999,909959236
73,10,20,Ticks_Linear_8,83,9999,9999,9999,910619768
73,10,20,Ticks_Linear_8,84,9999,9999,9999,911279204
73,10,20,Ticks_Linear_8,85,9999,9999,9999,911929408
73,10,20,Ticks_Linear_8,86,9999,9999,9999,912579656
73,10,20,Ticks_Linear_8,87,9999,9999,9999,913229880
73,10,20,Ticks_Linear_8,88,9999,9999,9999,913879156
73,10,20,Ticks_Linear_8,89,9999,9999,9999,914529392
73,10,20,Ticks_Linear_8,90,9999,9999,9999,915169392
73,10,20,Ticks_Linear_8,91,9999,9999,9999,915809356
73,10,20,Ticks_Linear_8,92,9999,9999,9999,916449396
73,10,20,Ticks_Linear_8,93,9999,9999,9999,917089336
73,10,20,Ticks_Linear_8,94,9999,9999,9999,917729400
73,10,20,Ticks_Linear_8,95,9999,9999,9999,918359156
73,10,20,Ticks_Linear_8,96,9999,9999,9999,918989932
73,10,20,Ticks_Linear_8,97,9999,9999,9999,919619692
73,10,20,Ticks_Linear_8,98,9999,9999,9999,920249436
73,10,20,Ticks_Linear_8,99,9999,9999,9999,920879216
73,10,20,Ticks_Linear_8,100,9999,9999,9999,921499716
73,10,20,Ticks_Linear_8,101,9999,9999,9999,922119280
73,10,20,Ticks_Linear_8,102,9999,9999,9999,922739780
73,10,20,Ticks_Linear_8,103,9999,9999,9999,923359304
73,10,20,Ticks_Linear_8,104,9999,9999,9999,923979868
73,10,20,Ticks_Linear_8,105,9999,9999,9999,924589152
73,10,20,Ticks_Linear_8,106,9999,9999,9999,925199444
73,10,20,Ticks_Linear_8,107,9999,9999,9999,925809760
73,10,20,Ticks_Linear_8,108,9999,9999,9999,926420060
73,10,20,Ticks_Linear_8,109,9999,9999,9999,927029308
73,10,20,Ticks_Linear_8,110,9999,9999,9999,927629384
73,10,20,Ticks_Linear_8,111,9999,9999,9999,928229436
73,10,20,Ticks_Linear_8,112,9999,9999,9999,928829560
73,10,20,Ticks_Linear_8,113,9999,9999,9999,929429624
73,10,20,Ticks_Linear_8,114,9999,9999,9999,930029660
73,10,20,Ticks_Linear_8,115,9999,9999,9999,930619448
73,10,20,Ticks_Linear_8,116,9999,9999,9999,931209340
73,10,20,Ticks_Linear_8,117,9999,9999,9999,931799132
73,10,20,Ticks_Linear_8,118,9999,9999,9999,932389984
73,10,20,Ticks_Linear_8,119,9999,9999,9999,932979804
73,10,20,Ticks_Linear_8,120,9999,9999,9999,933559412
73,10,20,Ticks_Linear_8,121,9999,9999,9999,934139988
73,10,20,Ticks_Linear_8,122,9999,9999,9999,934719544
73,10,20,Ticks_Linear_8,123,9999,9999,9999,935299172
73,10,20,Ticks_Linear_8,124,9999,9999,9999,935879748
73,10,20,Ticks_Linear_8,125,9999,9999,9999,936449096
73,10,20,Ticks_Linear_8,126,9999,9999,9999,937019488
73,10,20,Ticks_Linear_8,127,9999,9999,9999,937589844
73,10,20,Ticks_Linear_8,128,9999,9999,9999,938159200
73,10,20,Ticks_Linear_8,129,9999,9999,9999,938729592
73,10,20,Ticks_Linear_8,130,9999,9999,9999,939289724
73,10,20,Ticks_Linear_8,131,9999,9999,9999,939849784
73,10,20,Ticks_Linear_8,132,9999,9999,9999,940409944
73,10,20,Ticks_Linear_8,133,9999,9999,9999,940970100
73,10,20,Ticks_Linear_8,134,9999,9999,9999,941529188
73,10,20,Ticks_Linear_8,135,9999,9999,9999,942080108
73,10,20,Ticks_Linear_8,136,9999,9999,9999,942639212
73,10,20,Ticks_Linear_8,137,9999,9999,9999,943190068
73,10,20,Ticks_Linear_8,138,9999,9999,9999,943749184
73,10,20,Ticks_Linear_8,139,9999,9999,9999,944299132
73,10,20,Ticks_Linear_8,140,9999,9999,9999,944839792
73,10,20,Ticks_Linear_8,141,9999,9999,9999,945379408
73,10,20,Ticks_Linear_8,142,9999,9999,9999,945920124
73,10,20,Ticks_Linear_8,143,9999,9999,9999,946469992
73,10,20,Ticks_Linear_8,144,9999,9999,9999,947009608
73,10,20,Ticks_Linear_8,145,9999,9999,9999,947540072
73,10,20,Ticks_Linear_8,146,9999,9999,9999,948069500
73,10,20,Ticks_Linear_8,147,9999,9999,9999,948599908
73,10,20,Ticks_Linear_8,148,9999,9999,9999,949129336
73,10,20,Ticks_Linear_8,149,9999,9999,9999,949659740
73,10,20,Ticks_Linear_8,150,9999,9999,9999,950179960
73,10,20,Ticks_Linear_8,151,9999,9999,9999,950699132
73,10,20,Ticks_Linear_8,152,9999,9999,9999,951219276
73,10,20,Ticks_Linear_8,153,9999,9999,9999,951739508
73,10,20,Ticks_Linear_8,154,9999,9999,9999,952259652
73,10,20,Ticks_Linear_8,155,9999,9999,9999,952769592
73,10,20,Ticks_Linear_8,156,9999,9999,9999,953279560
73,10,20,Ticks_Linear_8,157,9999,9999,9999,953789496
73,10,20,Ticks_Linear_8,158,9999,9999,9999,954299508
73,10,20,Ticks_Linear_8,159,9999,9999,9999,954809468
73,10,20,Ticks_Linear_8,160,9999,9999,9999,955309168
73,10,20,Ticks_Linear_8,161,9999,9999,9999,955809880
73,10,20,Ticks_Linear_8,162,9999,9999,9999,956309580
73,10,20,Ticks_Linear_8,163,9999,9999,9999,956809280
73,10,20,Ticks_Linear_8,164,9999,9999,9999,957310028
73,10,20,Ticks_Linear_8,165,9999,9999,9999,957799520
73,10,20,Ticks_Linear_8,166,9999,9999,9999,958289984
73,10,20,Ticks_Linear_8,167,9999,9999,9999,958779500
73,10,20,Ticks_Linear_8,168,9999,9999,9999,959269972
73,10,20,Ticks_Linear_8,169,9999,9999,9999,959759428
73,11,21,Ticks_Linear_5,0,5,42,127,970004796
73,11,21,Ticks_Linear_5,1,5,42,127,970485044
73,11,21,Ticks_Linear_5,2,5,42,127,970965296
73,11,21,Ticks_Linear_5,3,5,42,127,971444572
73,11,21,Ticks_Linear_5,4,5,42,127,971924972
73,11,21,Ticks_Linear_5,5,5,42,127,972415408
73,11,21,Ticks_Linear_5,6,5,42,127,972904696
73,11,21,Ticks_Linear_5,7,5,42,127,973395352
73,11,21,Ticks_Linear_5,8,1,48,37,973881768
73,11,21,Ticks_Linear_5,9,5,42,127,973884884
73,11,21,Ticks_Linear_5,10,1,48,36,974318116
73,11,21,Ticks_Linear_5,11,5,42,127,974375148
73,11,21,Ticks_Linear_5,12,1,48,33,974823288
73,11,21,Ticks_Linear_5,13,5,42,127,974874996
73,11,21,Ticks_Linear_5,14,1,48,35,975288084
73,11,21,Ticks_Linear_5,15,5,42,127,975374844
73,11,21,Ticks_Linear_5,16,1,48,34,975769432
73,11,21,Ticks_Linear_5,17,5,42,127,975874528
73,11,21,Ticks_Linear_5,18,1,48,44,976244276
73,11,21,Ticks_Linear_5,19,5,42,127,976375204
73,11,21,Ticks_Linear_5,20,1,48,50,976707632
73,11,21,Ticks_Linear_5,21,5,42,127,976874828
73,11,21,Ticks_Linear_5,22,1,48,43,977186884
73,11,21,Ticks_Linear_5,23,5,42,127,977384860
73,11,21,Ticks_Linear_5,24,1,48,43,977685984
73,11,21,Ticks_Linear_5,25,5,42,127,977894892
73,11,21,Ticks_Linear_5,26,1,48,45,978147264
73,11,21,Ticks_Linear_5,27,5,42,127,978404704
73,11,21,Ticks_Linear_5,28,1,48,54,978611908
73,11,21,Ticks_Linear_5,29,1,48,31,978665968
73,11,21,Ticks_Linear_5,30,5,42,127,978914792
73,11,21,Ticks_Linear_5,31,1,48,49,979089128
73,11,21,Ticks_Linear_5,32,5,42,127,979424824
73,11,21,Ticks_Linear_5,33,1,48,47,979578420
73,11,21,Ticks_Linear_5,34,5,42,127,979944892
73,11,21,Ticks_Linear_5,35,1,48,47,980057048
73,11,21,Ticks_Linear_5,36,5,42,127,980464964
73,11,21,Ticks_Linear_5,37,1,48,47,980490168
73,11,21,Ticks_Linear_5,38,1,48,41,980947688
73,11,21,Ticks_Linear_5,39,5,42,127,980985248
73,11,21,Ticks_Linear_5,40,5,42,127,981505548
73,11,21,Ticks_Linear_5,41,1,48,41,981645816
73,11,21,Ticks_Linear_5,42,1,48,46,981987380
73,11,21,Ticks_Linear_5,43,1,48,35,982019780
73,11,21,Ticks_Linear_5,44,5,42,127,982024768
73,11,21,Ticks_Linear_5,45,1,48,48,982502788
73,11,21,Ticks_Linear_5,46,5,42,127,982554868
73,11,21,Ticks_Linear_5,47,1,48,46,982998140
73,11,21,Ticks_Linear_5,48,5,42,127,983085720
73,11,21,Ticks_Linear_5,49,1,48,47,983478668
73,11,21,Ticks_Linear_5,50,5,42,127,983625172
73,11,21,Ticks_Linear_5,51,1,48,32,984046140
73,11,21,Ticks_Linear_5,52,5,42,127,984154676
73,11,21,Ticks_Linear_5,53,1,48,56,984503980
73,11,21,Ticks_Linear_5,54,5,42,127,984684956
73,11,21,Ticks_Linear_5,55,1,48,48,984961212
73,11,21,Ticks_Linear_5,56,5,42,127,985224496
73,11,21,Ticks_Linear_5,57,1,48,48,985434904
73,11,21,Ticks_Linear_5,58,5,42,127,985765304
73,11,21,Ticks_Linear_5,59,1,48,57,985898356
73,11,21,Ticks_Linear_5,60,5,42,127,986304920
73,11,21,Ticks_Linear_5,61,1,48,49,986325640
73,11,21,Ticks_Linear_5,62,1,48,52,986802928
73,11,21,Ticks_Linear_5,63,5,42,127,986844676
73,11,21,Ticks_Linear_5,64,1,48,49,987288020
73,11,21,Ticks_Linear_5,65,1,48,34,987354872
73,11,21,Ticks_Linear_5,66,5,42,127,987385392
73,11,21,Ticks_Linear_5,67,1,48,51,987768080
73,11,21,Ticks_Linear_5,68,5,42,127,987935028
73,11,21,Ticks_Linear_5,69,1,48,50,988283060
73,11,21,Ticks_Linear_5,70,5,42,127,988484976
73,11,21,Ticks_Linear_5,71,1,48,51,988855696
73,11,21,Ticks_Linear_5,72,5,42,127,989034800
73,11,21,Ticks_Linear_5,73,1,48,52,989354052
73,11,21,Ticks_Linear_5,74,5,42,127,989584672
73,11,21,Ticks_Linear_5,75,1,48,59,989838540
73,11,21,Ticks_Linear_5,76,1,48,26,989921416
73,11,21,Ticks_Linear_5,77,5,42,127,990134600
73,11,21,Ticks_Linear_5,78,1,48,60,990342496
73,11,21,Ticks_Linear_5,79,5,42,127,990694736
73,11,21,Ticks_Linear_5,80,1,48,55,990800000
73,11,21,Ticks_Linear_5,81,5,42,127,991254868
73,11,21,Ticks_Linear_5,82,1,48,46,991287716
73,11,21,Ticks_Linear_5,83,1,48,53,991710332
73,11,21,Ticks_Linear_5,84,5,42,127,991814904
73,11,21,Ticks_Linear_5,85,1,48,51,992170636
73,11,21,Ticks_Linear_5,86,5,42,127,992375284
73,11,21,Ticks_Linear_5,87,1,48,53,992691308
73,11,21,Ticks_Linear_5,88,5,42,127,992935420
73,11,21,Ticks_Linear_5,89,1,48,48,993218416
73,11,21,Ticks_Linear_5,90,5,42,127,993504616
73,11,21,Ticks_Linear_5,91,1,48,55,993749124
73,11,21,Ticks_Linear_5,92,5,42,127,994074936
73,11,21,Ticks_Linear_5,93,1,48,54,994297352
73,11,21,Ticks_Linear_5,94,1,48,40,994327208
73,11,21,Ticks_Linear_5,95,5,42,127,994645452
73,11,21,Ticks_Linear_5,96,1,48,48,994791856
73,11,21,Ticks_Linear_5,97,1,48,34,994832512
73,11,21,Ticks_Linear_5,98,5,42,127,995214652
73,11,21,Ticks_Linear_5,99,1,48,65,995275212
73,11,21,Ticks_Linear_5,100,1,48,43,995309860
73,11,21,Ticks_Linear_5,101,1,48,56,995778908
73,11,21,Ticks_Linear_5,102,5,42,127,995784944
73,11,21,Ticks_Linear_5,103,1,48,54,996267080
73,11,21,Ticks_Linear_5,104,5,42,127,996364696
73,11,21,Ticks_Linear_5,105,1,48,51,996752852
73,11,21,Ticks_Linear_5,106,5,42,127,996945332
73,11,21,Ticks_Linear_5,107,1,48,50,997268420
73,11,21,Ticks_Linear_5,108,5,42,127,997524812
73,11,21,Ticks_Linear_5,109,1,48,49,997799272
73,11,21,Ticks_Linear_5,110,5,42,127,998104492
73,11,21,Ticks_Linear_5,111,1,48,55,998301140
73,11,21,Ticks_Linear_5,112,5,42,127,998684920
73,11,21,Ticks_Linear_5,113,1,48,47,998826904
73,11,21,Ticks_Linear_5,114,1,48,27,998879680
73,11,21,Ticks_Linear_5,115,5,42,127,999274864
73,11,21,Ticks_Linear_5,116,1,48,54,999334976
73,11,21,Ticks_Linear_5,117,1,48,51,999845360
73,11,21,Ticks_Linear_5,118,5,42,127,999864644
73,11,21,Ticks_Linear_5,119,1,48,49,1000324088
73,11,21,Ticks_Linear_5,120,1,48,27,1000377836
73,11,21,Ticks_Linear_5,121,5,42,127,1000454712
73,11,21,Ticks_Linear_5,122,1,48,39,1000874024
73,11,21,Ticks_Linear_5,123,5,42,127,1001045532
73,11,21,Ticks_Linear_5,124,1,48,53,1001346832
73,11,21,Ticks_Linear_5,125,1,48,30,1001392720
73,11,21,Ticks_Linear_5,126,5,42,127,1001635324
73,11,21,Ticks_Linear_5,127,1,48,47,1001902904
73,11,21,Ticks_Linear_5,128,5,42,127,1002235452
73,11,21,Ticks_Linear_5,129,1,48,56,1002388444
73,11,21,Ticks_Linear_5,130,1,48,26,1002446388
73,11,21,Ticks_Linear_5,131,5,42,127,1002835328
73,11,21,Ticks_Linear_5,132,1,48,52,1002872020
73,11,21,Ticks_Linear_5,133,1,48,46,1003356404
73,11,21,Ticks_Linear_5,134,5,42,127,1003435320
73,11,21,Ticks_Linear_5,135,1,48,56,1003849132
73,11,21,Ticks_Linear_5,136,5,42,127,1004034528
73,11,21,Ticks_Linear_5,137,1,48,48,1004251476
73,11,21,Ticks_Linear_5,138,1,48,41,1004590196
73,11,21,Ticks_Linear_5,139,5,42,127,1004634496
73,11,21,Ticks_Linear_5,140,1,48,44,1005144272
73,11,21,Ticks_Linear_5,141,5,42,127,1005244740
73,11,21,Ticks_Linear_5,142,1,48,53,1005689740
73,11,21,Ticks_Linear_5,143,5,42,127,1005855196
73,11,21,Ticks_Linear_5,144,1,48,53,1006241040
73,11,21,Ticks_Linear_5,145,5,42,127,1006465308
73,11,21,Ticks_Linear_5,146,1,48,48,1006835476
73,11,21,Ticks_Linear_5,147,5,42,127,1007074716
73,11,21,Ticks_Linear_5,148,1,48,53,1007468272
73,11,21,Ticks_Linear_5,149,1,48,36,1007503828
73,11,21,Ticks_Linear_5,150,5,42,127,1007685152
73,11,21,Ticks_Linear_5,151,1,48,50,1008105972
73,11,21,Ticks_Linear_5,152,5,42,127,1008304400
73,11,21,Ticks_Linear_5,153,1,48,52,1008745284
73,11,21,Ticks_Linear_5,154,1,48,29,1008803752
73,11,21,Ticks_Linear_5,155,5,42,127,1008925092
73,11,21,Ticks_Linear_5,156,1,48,58,1009399828
73,11,21,Ticks_Linear_5,157,5,42,127,1009544784
73,11,21,Ticks_Linear_5,158,1,48,52,1010164100
73,11,21,Ticks_Linear_5,159,5,42,127,1010165592
73,11,21,Ticks_Linear_5,160,1,48,26,1010226964
73,11,21,Ticks_Linear_5,161,5,42,127,1010784576
73,11,21,Ticks_Linear_5,162,1,48,63,1010807344
73,11,21,Ticks_Linear_5,163,5,42,127,1011415276
73,11,21,Ticks_Linear_5,164,1,48,61,1011432636
73,11,21,Ticks_Linear_5,165,5,42,127,1012045056
73,11,21,Ticks_Linear_5,166,1,48,63,1012051836
73,11,21,Ticks_Linear_5,167,1,48,35,1012116400
73,11,21,Ticks_Linear_5,168,5,42,127,1012675064
73,11,21,Ticks_Linear_5,169,1,48,66,1012693316
73,11,21,Ticks_Linear_5,170,5,42,127,1013304844
73,11,21,Ticks_Linear_5,171,1,48,59,1013351620
73,11,21,Ticks_Linear_5,172,5,42,127,1013934548
73,11,21,Ticks_Linear_5,173,1,48,57,1013978556
73,11,21,Ticks_Linear_5,174,1,48,33,1014029756
73,11,21,Ticks_Linear_5,175,5,42,127,1014574340
73,11,21,Ticks_Linear_5,176,1,48,59,1014630320
73,11,21,Ticks_Linear_5,177,5,42,127,1015214476
73,11,21,Ticks_Linear_5,178,1,48,53,1015261624
73,11,21,Ticks_Linear_5,179,5,42,127,1015854516
73,11,21,Ticks_Linear_5,180,1,48,57,1015920188
73,11,21,Ticks_Linear_5,181,1,48,19,1016012872
73,11,21,Ticks_Linear_5,182,5,42,127,1016494332
73,11,21,Ticks_Linear_5,183,1,48,56,1016532344
73,11,21,Ticks_Linear_5,184,1,48,22,1016608408
73,11,21,Ticks_Linear_5,185,5,42,127,1017134572
73,11,21,Ticks_Linear_5,186,1,48,54,1017226312
73,11,21,Ticks_Linear_5,187,5,42,127,1017784820
73,11,21,Ticks_Linear_5,188,1,48,55,1017840808
73,11,21,Ticks_Linear_5,189,1,48,54,1018372008
73,11,21,Ticks_Linear_5,190,5,42,127,1018434960
73,11,21,Ticks_Linear_5,191,1,48,57,1018942480
73,11,21,Ticks_Linear_5,192,5,42,127,1019085192
73,11,21,Ticks_Linear_5,193,1,48,46,1019573716
73,11,21,Ticks_Linear_5,194,5,42,127,1019735344
73,11,21,Ticks_Linear_5,195,1,48,57,1020254268
73,11,21,Ticks_Linear_5,196,5,42,127,1020384840
73,11,21,Ticks_Linear_5,197,1,48,48,1021001704
73,11,21,Ticks_Linear_5,198,5,42,127,1021044988
73,11,21,Ticks_Linear_5,199,1,48,52,1021678920
73,11,21,Ticks_Linear_5,200,5,42,127,1021704500
73,11,21,Ticks_Linear_5,201,1,48,52,1022292964
73,11,21,Ticks_Linear_5,202,5,42,127,1022364932
73,11,21,Ticks_Linear_5,203,1,48,49,1022911540
73,11,21,Ticks_Linear_5,204,5,42,127,1023024572
73,11,21,Ticks_Linear_5,205,1,48,42,1023576520
73,11,21,Ticks_Linear_5,206,5,42,127,1023684932
73,11,21,Ticks_Linear_5,207,1,48,53,1024134056
73,11,21,Ticks_Linear_5,208,1,48,26,1024202936
73,11,21,Ticks_Linear_5,209,5,42,127,1024354828
73,11,21,Ticks_Linear_5,210,1,48,54,1024770104
73,11,21,Ticks_Linear_5,211,1,48,27,1024832532
73,11,21,Ticks_Linear_5,212,5,42,127,1025025272
73,11,21,Ticks_Linear_5,213,1,48,56,1025392928
73,11,21,Ticks_Linear_5,214,5,42,127,1025695140
73,11,21,Ticks_Linear_5,215,1,48,59,1026000904
73,11,21,Ticks_Linear_5,216,1,48,31,1026066336
73,11,21,Ticks_Linear_5,217,5,42,127,1026364812
73,11,21,Ticks_Linear_5,218,1,48,50,1026608272
73,11,21,Ticks_Linear_5,219,1,48,32,1026677848
73,11,21,Ticks_Linear_5,220,5,42,127,1027034364
73,11,21,Ticks_Linear_5,221,1,48,54,1027236036
73,11,21,Ticks_Linear_5,222,1,48,32,1027296748
73,11,21,Ticks_Linear_5,223,5,42,127,1027714320
73,11,21,Ticks_Linear_5,224,1,48,56,1027852544
73,11,21,Ticks_Linear_5,225,1,48,29,1027909200
73,11,21,Ticks_Linear_5,226,5,42,127,1028395296
73,11,21,Ticks_Linear_5,227,1,48,57,1028404564
73,11,21,Ticks_Linear_5,228,1,48,36,1028443636
73,11,21,Ticks_Linear_5,229,1,48,61,1029016648
73,11,21,Ticks_Linear_5,230,1,48,39,1029050396
73,11,21,Ticks_Linear_5,231,5,42,127,1029075300
73,11,21,Ticks_Linear_5,232,1,48,56,1029699564
73,11,21,Ticks_Linear_5,233,5,42,127,1029755204
73,11,21,Ticks_Linear_5,234,1,48,57,1030312368
73,11,21,Ticks_Linear_5,235,1,48,33,1030361624
73,11,21,Ticks_Linear_5,236,5,42,127,1030435136
73,11,21,Ticks_Linear_5,237,1,48,62,1030988864
73,11,21,Ticks_Linear_5,238,1,48,38,1031027580
73,11,21,Ticks_Linear_5,239,5,42,127,1031125780
73,11,21,Ticks_Linear_5,240,1,48,59,1031683352
73,11,21,Ticks_Linear_5,241,1,48,38,1031718152
73,11,21,Ticks_Linear_5,242,5,42,127,1031815024
73,11,21,Ticks_Linear_5,243,1,48,55,1032377460
73,11,21,Ticks_Linear_5,244,1,48,34,1032417948
73,11,21,Ticks_Linear_5,245,5,42,127,1032504636
73,11,21,Ticks_Linear_5,246,1,48,60,1033077184
73,11,21,Ticks_Linear_5,247,1,48,39,1033114532
73,11,21,Ticks_Linear_5,248,5,42,127,1033194852
73,11,21,Ticks_Linear_5,249,1,48,59,1033747080
73,11,21,Ticks_Linear_5,250,1,48,41,1033780384
73,11,21,Ticks_Linear_5,251,5,42,127,1033885052
73,11,21,Ticks_Linear_5,252,1,48,58,1034420140
73,11,21,Ticks_Linear_5,253,1,48,35,1034481080
73,11,21,Ticks_Linear_5,254,5,42,127,1034584380
73,11,21,Ticks_Linear_5,255,1,48,46,1035145636
73,11,21,Ticks_Linear_5,256,1,48,23,1035208744
73,11,21,Ticks_Linear_5,257,5,42,127,1035284796
73,11,21,Ticks_Linear_5,258,1,48,59,1035846532
73,11,21,Ticks_Linear_5,259,5,42,127,1035985424
73,11,21,Ticks_Linear_5,260,1,48,38,1036518652
73,11,21,Ticks_Linear_5,261,5,42,127,1036684800
73,11,21,Ticks_Linear_5,262,1,48,65,1037206796
73,11,21,Ticks_Linear_5,263,1,48,41,1037252296
73,11,21,Ticks_Linear_5,264,5,42,127,1037385028
73,11,21,Ticks_Linear_5,265,1,48,61,1037871964
73,11,21,Ticks_Linear_5,266,1,48,38,1037921524
73,11,21,Ticks_Linear_5,267,5,42,127,1038094644
73,11,21,Ticks_Linear_5,268,1,48,55,1038617008
73,11,21,Ticks_Linear_5,269,1,48,37,1038656004
73,11,21,Ticks_Linear_5,270,5,42,127,1038805524
73,11,21,Ticks_Linear_5,271,1,48,55,1039257872
73,11,21,Ticks_Linear_5,272,1,48,34,1039302704
73,11,21,Ticks_Linear_5,273,5,42,127,1039514988
73,11,21,Ticks_Linear_5,274,1,48,54,1039962596
73,11,21,Ticks_Linear_5,275,1,48,36,1040011788
73,11,21,Ticks_Linear_5,276,5,42,127,1040224652
73,11,21,Ticks_Linear_5,277,1,48,66,1040683960
73,11,21,Ticks_Linear_5,278,1,48,45,1040725056
73,11,21,Ticks_Linear_5,279,5,42,127,1040935384
73,11,21,Ticks_Linear_5,280,1,48,67,1041427500
73,11,21,Ticks_Linear_5,281,1,48,45,1041463424
73,11,21,Ticks_Linear_5,282,5,42,127,1041655108
73,11,21,Ticks_Linear_5,283,1,48,63,1042216636
73,11,21,Ticks_Linear_5,284,1,48,38,1042265964
73,11,21,Ticks_Linear_5,285,5,42,127,1042374904
73,11,21,Ticks_Linear_5,286,1,48,67,1043025028
73,11,21,Ticks_Linear_5,287,1,48,43,1043064568
73,11,21,Ticks_Linear_5,288,5,42,127,1043094864
73,11,21,Ticks_Linear_5,289,1,48,65,1043749312
73,11,21,Ticks_Linear_5,290,1,48,41,1043785684
73,11,21,Ticks_Linear_5,291,5,42,127,1043814808
73,11,21,Ticks_Linear_5,292,1,48,62,1044428968
73,11,21,Ticks_Linear_5,293,1,48,43,1044462188
73,11,21,Ticks_Linear_5,294,5,42,127,1044534580
73,11,21,Ticks_Linear_5,295,1,48,57,1045163228
73,11,21,Ticks_Linear_5,296,1,48,43,1045197568
73,11,21,Ticks_Linear_5,297,5,42,127,1045264712
73,11,21,Ticks_Linear_5,298,1,48,67,1045882780
73,11,21,Ticks_Linear_5,299,1,48,43,1045916392
73,11,21,Ticks_Linear_5,300,5,42,127,1045994840
73,11,21,Ticks_Linear_5,301,1,48,70,1046650964
73,11,21,Ticks_Linear_5,302,1,48,43,1046697304
73,11,21,Ticks_Linear_5,303,5,42,127,1046725124
73,11,21,Ticks_Linear_5,304,1,48,72,1047313300
73,11,21,Ticks_Linear_5,305,1,48,48,1047342636
73,11,21,Ticks_Linear_5,306,5,42,127,1047455384
73,11,21,Ticks_Linear_5,307,1,48,66,1048049868
73,11,21,Ticks_Linear_5,308,1,48,39,1048097472
73,11,21,Ticks_Linear_5,309,5,42,127,1048185232
73,11,21,Ticks_Linear_5,310,1,48,63,1048774384
73,11,21,Ticks_Linear_5,311,1,48,42,1048821312
73,11,21,Ticks_Linear_5,312,5,42,127,1048924684
73,11,21,Ticks_Linear_5,313,1,48,71,1049537388
73,11,21,Ticks_Linear_5,314,1,48,46,1049582292
73,11,21,Ticks_Linear_5,315,5,42,127,1049664792
73,11,21,Ticks_Linear_5,316,1,48,69,1050296432
73,11,21,Ticks_Linear_5,317,1,48,42,1050341332
73,11,21,Ticks_Linear_5,318,5,42,127,1050405480
73,11,21,Ticks_Linear_5,319,1,48,64,1051041232
73,11,21,Ticks_Linear_5,320,1,48,37,1051091904
73,11,21,Ticks_Linear_5,321,5,42,127,1051144452
73,11,21,Ticks_Linear_5,322,1,48,69,1051741904
73,11,21,Ticks_Linear_5,323,1,48,42,1051781376
73,11,21,Ticks_Linear_5,324,5,42,127,1051884976
73,11,21,Ticks_Linear_5,325,1,48,63,1052431972
73,11,21,Ticks_Linear_5,326,1,48,42,1052475092
73,11,21,Ticks_Linear_5,327,5,42,127,1052634356
73,11,21,Ticks_Linear_5,328,1,48,66,1053163388
73,11,21,Ticks_Linear_5,329,1,48,41,1053201776
73,11,21,Ticks_Linear_5,330,5,42,127,1053385152
73,11,21,Ticks_Linear_5,331,1,48,65,1053853008
73,11,21,Ticks_Linear_5,332,1,48,41,1053899108
73,11,21,Ticks_Linear_5,333,5,42,127,1054134680
73,11,21,Ticks_Linear_5,334,1,48,62,1054457896
73,11,21,Ticks_Linear_5,335,1,48,41,1054496588
73,11,21,Ticks_Linear_5,336,5,42,127,1054885256
73,11,21,Ticks_Linear_5,337,1,48,60,1055046768
73,11,21,Ticks_Linear_5,338,1,48,38,1055099188
73,11,21,Ticks_Linear_5,339,5,42,127,1055634708
73,11,21,Ticks_Linear_5,340,1,48,56,1055656180
73,11,21,Ticks_Linear_5,341,1,48,38,1055699512
73,11,21,Ticks_Linear_5,342,1,48,49,1056198440
73,11,21,Ticks_Linear_5,343,5,42,127,1056394548
73,11,21,Ticks_Linear_5,344,1,48,49,1056751600
73,11,21,Ticks_Linear_5,345,5,42,127,1057154284
73,11,21,Ticks_Linear_5,346,1,48,51,1057534488
73,11,21,Ticks_Linear_5,347,5,42,127,1057915288
73,11,21,Ticks_Linear_5,348,1,48,52,1058260440
73,11,21,Ticks_Linear_5,349,5,42,127,1058675244
73,11,21,Ticks_Linear_5,350,1,48,47,1059035976
73,11,21,Ticks_Linear_5,351,5,42,127,1059435052
73,11,21,Ticks_Linear_5,352,1,48,39,1059824248
73,11,21,Ticks_Linear_5,353,5,42,127,1060205048
73,11,21,Ticks_Linear_5,354,1,48,59,1060603080
73,11,21,Ticks_Linear_5,355,5,42,127,1060975188
73,11,21,Ticks_Linear_5,356,1,48,53,1061394712
73,11,21,Ticks_Linear_5,357,1,48,32,1061458268
73,11,21,Ticks_Linear_5,358,5,42,127,1061745160
73,11,21,Ticks_Linear_5,359,1,48,35,1062145732
73,11,21,Ticks_Linear_5,360,5,42,127,1062515076
73,11,21,Ticks_Linear_5,361,1,48,46,1062891908
73,11,21,Ticks_Linear_5,362,1,48,20,1062971264
73,11,21,Ticks_Linear_5,363,5,42,127,1063285272
73,11,21,Ticks_Linear_5,364,1,48,56,1063494560
73,11,21,Ticks_Linear_5,365,1,48,38,1063551916
73,11,21,Ticks_Linear_5,366,5,42,127,1064065280
73,11,21,Ticks_Linear_5,367,1,48,62,1064157964
73,11,21,Ticks_Linear_5,368,1,48,32,1064234780
73,11,21,Ticks_Linear_5,369,1,48,54,1064750180
73,11,21,Ticks_Linear_5,370,1,48,36,1064808368
73,11,21,Ticks_Linear_5,371,5,42,127,1064844732
73,11,21,Ticks_Linear_5,372,1,48,65,1065434264
73,11,21,Ticks_Linear_5,373,5,42,127,1065624972
73,11,21,Ticks_Linear_5,374,1,48,71,1066056776
73,11,21,Ticks_Linear_5,375,1,48,29,1066136228
73,11,21,Ticks_Linear_5,376,5,42,127,1066405276
73,11,21,Ticks_Linear_5,377,1,48,71,1066695168
73,11,21,Ticks_Linear_5,378,1,48,46,1066742168
73,11,21,Ticks_Linear_5,379,5,42,127,1067184460
73,11,21,Ticks_Linear_5,380,1,48,71,1067320652
73,11,21,Ticks_Linear_5,381,1,48,48,1067356508
73,11,21,Ticks_Linear_5,382,5,42,127,1067975024
73,11,21,Ticks_Linear_5,383,1,48,62,1067979864
73,11,21,Ticks_Linear_5,384,1,48,42,1068017364
73,11,21,Ticks_Linear_5,385,1,48,65,1068624960
73,11,21,Ticks_Linear_5,386,1,48,45,1068655960
73,11,21,Ticks_Linear_5,387,5,42,127,1068764500
73,11,21,Ticks_Linear_5,388,1,48,68,1069208228
73,11,21,Ticks_Linear_5,389,1,48,50,1069235992
73,11,21,Ticks_Linear_5,390,5,42,127,1069555060
73,11,21,Ticks_Linear_5,391,1,48,63,1069847348
73,11,21,Ticks_Linear_5,392,1,48,43,1069878704
73,11,21,Ticks_Linear_5,393,5,42,127,1070344652
73,11,21,Ticks_Linear_5,394,1,48,73,1070638584
73,11,21,Ticks_Linear_5,395,1,48,53,1070668972
73,11,21,Ticks_Linear_5,396,5,42,127,1071135068
73,11,21,Ticks_Linear_5,397,1,48,75,1071443988
73,11,21,Ticks_Linear_5,398,1,48,39,1071507340
73,11,21,Ticks_Linear_5,399,5,42,127,1071935072
73,11,21,Ticks_Linear_5,400,1,48,64,1072184824
73,11,21,Ticks_Linear_5,401,1,48,38,1072253724
73,11,21,Ticks_Linear_5,402,5,42,127,1072734700
73,11,21,Ticks_Linear_5,403,1,48,72,1072908664
73,11,21,Ticks_Linear_5,404,1,48,46,1072966080
73,11,21,Ticks_Linear_5,405,5,42,127,1073535324
73,11,21,Ticks_Linear_5,406,1,48,54,1073628684
73,11,21,Ticks_Linear_5,407,1,48,39,1073670068
73,11,21,Ticks_Linear_5,408,1,48,71,1074286076
73,11,21,Ticks_Linear_5,409,1,48,46,1074325896
73,11,21,Ticks_Linear_5,410,5,42,127,1074334996
73,11,21,Ticks_Linear_5,411,1,48,76,1075000972
73,11,21,Ticks_Linear_5,412,1,48,54,1075029412
73,11,21,Ticks_Linear_5,413,5,42,127,1075134980
73,11,21,Ticks_Linear_5,414,1,48,78,1075735832
73,11,21,Ticks_Linear_5,415,1,48,55,1075763068
73,11,21,Ticks_Linear_5,416,5,42,127,1075945016
73,11,21,Ticks_Linear_5,417,1,48,79,1076498608
73,11,21,Ticks_Linear_5,418,1,48,51,1076532200
73,11,21,Ticks_Linear_5,419,5,42,127,1076755048
73,11,21,Ticks_Linear_5,420,1,48,74,1077265512
73,11,21,Ticks_Linear_5,421,1,48,46,1077311984
73,11,21,Ticks_Linear_5,422,5,42,127,1077565008
73,11,21,Ticks_Linear_5,423,1,48,74,1078039144
73,11,21,Ticks_Linear_5,424,1,48,43,1078089372
73,11,21,Ticks_Linear_5,425,5,42,127,1078374920
73,11,21,Ticks_Linear_5,426,1,48,65,1078799608
73,11,21,Ticks_Linear_5,427,1,48,50,1078837632
73,11,21,Ticks_Linear_5,428,5,42,127,1079184884
73,11,21,Ticks_Linear_5,0,9999,9999,9999,970002500
73,11,21,Ticks_Linear_5,1,9999,9999,9999,970482748
73,11,21,Ticks_Linear_5,2,9999,9999,9999,970962996
73,11,21,Ticks_Linear_5,3,9999,9999,9999,971442276
73,11,21,Ticks_Linear_5,4,9999,9999,9999,971922524
73,11,21,Ticks_Linear_5,5,9999,9999,9999,972413036
73,11,21,Ticks_Linear_5,6,9999,9999,9999,972902472
73,11,21,Ticks_Linear_5,7,9999,9999,9999,973392980
73,11,21,Ticks_Linear_5,8,9999,9999,9999,973882436
73,11,21,Ticks_Linear_5,9,9999,9999,9999,974372924
73,11,21,Ticks_Linear_5,10,9999,9999,9999,974872700
73,11,21,Ticks_Linear_5,11,9999,9999,9999,975372396
73,11,21,Ticks_Linear_5,12,9999,9999,9999,975872084
73,11,21,Ticks_Linear_5,13,9999,9999,9999,976372828
73,11,21,Ticks_Linear_5,14,9999,9999,9999,976872528
73,11,21,Ticks_Linear_5,15,9999,9999,9999,977382488
73,11,21,Ticks_Linear_5,16,9999,9999,9999,977892448
73,11,21,Ticks_Linear_5,17,9999,9999,9999,978402408
73,11,21,Ticks_Linear_5,18,9999,9999,9999,978912344
73,11,21,Ticks_Linear_5,19,9999,9999,9999,979422304
73,11,21,Ticks_Linear_5,20,9999,9999,9999,979942520
73,11,21,Ticks_Linear_5,21,9999,9999,9999,980462664
73,11,21,Ticks_Linear_5,22,9999,9999,9999,980982872
73,11,21,Ticks_Linear_5,23,9999,9999,9999,981503100
73,11,21,Ticks_Linear_5,24,9999,9999,9999,982022244
73,11,21,Ticks_Linear_5,25,9999,9999,9999,982552648
73,11,21,Ticks_Linear_5,26,9999,9999,9999,983083124
73,11,21,Ticks_Linear_5,27,9999,9999,9999,983622724
73,11,21,Ticks_Linear_5,28,9999,9999,9999,984152156
73,11,21,Ticks_Linear_5,29,9999,9999,9999,984682584
73,11,21,Ticks_Linear_5,30,9999,9999,9999,985222200
73,11,21,Ticks_Linear_5,31,9999,9999,9999,985762932
73,11,21,Ticks_Linear_5,32,9999,9999,9999,986302548
73,11,21,Ticks_Linear_5,33,9999,9999,9999,986842232
73,11,21,Ticks_Linear_5,34,9999,9999,9999,987382868
73,11,21,Ticks_Linear_5,35,9999,9999,9999,987932728
73,11,21,Ticks_Linear_5,36,9999,9999,9999,988482676
73,11,21,Ticks_Linear_5,37,9999,9999,9999,989032552
73,11,21,Ticks_Linear_5,38,9999,9999,9999,989582448
73,11,21,Ticks_Linear_5,39,9999,9999,9999,990132300
73,11,21,Ticks_Linear_5,40,9999,9999,9999,990692436
73,11,21,Ticks_Linear_5,41,9999,9999,9999,991252568
73,11,21,Ticks_Linear_5,42,9999,9999,9999,991812680
73,11,21,Ticks_Linear_5,43,9999,9999,9999,992372836
73,11,21,Ticks_Linear_5,44,9999,9999,9999,992932972
73,11,21,Ticks_Linear_5,45,9999,9999,9999,993502316
73,11,21,Ticks_Linear_5,46,9999,9999,9999,994072636
73,11,21,Ticks_Linear_5,47,9999,9999,9999,994643004
73,11,21,Ticks_Linear_5,48,9999,9999,9999,995212356
73,11,21,Ticks_Linear_5,49,9999,9999,9999,995782720
73,11,21,Ticks_Linear_5,50,9999,9999,9999,996362324
73,11,21,Ticks_Linear_5,51,9999,9999,9999,996942960
73,11,21,Ticks_Linear_5,52,9999,9999,9999,997522516
73,11,21,Ticks_Linear_5,53,9999,9999,9999,998102120
73,11,21,Ticks_Linear_5,54,9999,9999,9999,998682696
73,11,21,Ticks_Linear_5,55,9999,9999,9999,999272564
73,11,21,Ticks_Linear_5,56,9999,9999,9999,999862348
73,11,21,Ticks_Linear_5,57,9999,9999,9999,1000452188
73,11,21,Ticks_Linear_5,58,9999,9999,9999,1001043012
73,11,21,Ticks_Linear_5,59,9999,9999,9999,1001632876
73,11,21,Ticks_Linear_5,60,9999,9999,9999,1002232928
73,11,21,Ticks_Linear_5,61,9999,9999,9999,1002832956
73,11,21,Ticks_Linear_5,62,9999,9999,9999,1003433020
73,11,21,Ticks_Linear_5,63,9999,9999,9999,1004032084
73,11,21,Ticks_Linear_5,64,9999,9999,9999,1004632124
73,11,21,Ticks_Linear_5,65,9999,9999,9999,1005242444
73,11,21,Ticks_Linear_5,66,9999,9999,9999,1005852748
73,11,21,Ticks_Linear_5,67,9999,9999,9999,1006463080
73,11,21,Ticks_Linear_5,68,9999,9999,9999,1007072344
73,11,21,Ticks_Linear_5,69,9999,9999,9999,1007682632
73,11,21,Ticks_Linear_5,70,9999,9999,9999,1008302176
73,11,21,Ticks_Linear_5,71,9999,9999,9999,1008922720
73,11,21,Ticks_Linear_5,72,9999,9999,9999,1009542264
73,11,21,Ticks_Linear_5,73,9999,9999,9999,1010162780
73,11,21,Ticks_Linear_5,74,9999,9999,9999,1010782280
73,11,21,Ticks_Linear_5,75,9999,9999,9999,1011413052
73,11,21,Ticks_Linear_5,76,9999,9999,9999,1012042832
73,11,21,Ticks_Linear_5,77,9999,9999,9999,1012672616
73,11,21,Ticks_Linear_5,78,9999,9999,9999,1013302396
73,11,21,Ticks_Linear_5,79,9999,9999,9999,1013932100
73,11,21,Ticks_Linear_5,80,9999,9999,9999,1014572116
73,11,21,Ticks_Linear_5,81,9999,9999,9999,1015212104
73,11,21,Ticks_Linear_5,82,9999,9999,9999,1015852144
73,11,21,Ticks_Linear_5,83,9999,9999,9999,1016492108
73,11,21,Ticks_Linear_5,84,9999,9999,9999,1017132124
73,11,21,Ticks_Linear_5,85,9999,9999,9999,1017782372
73,11,21,Ticks_Linear_5,86,9999,9999,9999,1018432588
73,11,21,Ticks_Linear_5,87,9999,9999,9999,1019082820
73,11,21,Ticks_Linear_5,88,9999,9999,9999,1019733120
73,11,21,Ticks_Linear_5,89,9999,9999,9999,1020382320
73,11,21,Ticks_Linear_5,90,9999,9999,9999,1021042764
73,11,21,Ticks_Linear_5,91,9999,9999,9999,1021702200
73,11,21,Ticks_Linear_5,92,9999,9999,9999,1022362708
73,11,21,Ticks_Linear_5,93,9999,9999,9999,1023022200
73,11,21,Ticks_Linear_5,94,9999,9999,9999,1023682632
73,11,21,Ticks_Linear_5,95,9999,9999,9999,1024352380
73,11,21,Ticks_Linear_5,96,9999,9999,9999,1025023048
73,11,21,Ticks_Linear_5,97,9999,9999,9999,1025692768
73,11,21,Ticks_Linear_5,98,9999,9999,9999,1026362440
73,11,21,Ticks_Linear_5,99,9999,9999,9999,1027032136
73,11,21,Ticks_Linear_5,100,9999,9999,9999,1027712096
73,11,21,Ticks_Linear_5,101,9999,9999,9999,1028393072
73,11,21,Ticks_Linear_5,102,9999,9999,9999,1029073000
73,11,21,Ticks_Linear_5,103,9999,9999,9999,1029752904
73,11,21,Ticks_Linear_5,104,9999,9999,9999,1030432836
73,11,21,Ticks_Linear_5,105,9999,9999,9999,1031123036
73,11,21,Ticks_Linear_5,106,9999,9999,9999,1031812224
73,11,21,Ticks_Linear_5,107,9999,9999,9999,1032502340
73,11,21,Ticks_Linear_5,108,9999,9999,9999,1033192556
73,11,21,Ticks_Linear_5,109,9999,9999,9999,1033882680
73,11,21,Ticks_Linear_5,110,9999,9999,9999,1034582080
73,11,21,Ticks_Linear_5,111,9999,9999,9999,1035282496
73,11,21,Ticks_Linear_5,112,9999,9999,9999,1035982904
73,11,21,Ticks_Linear_5,113,9999,9999,9999,1036682352
73,11,21,Ticks_Linear_5,114,9999,9999,9999,1037382732
73,11,21,Ticks_Linear_5,115,9999,9999,9999,1038092344
73,11,21,Ticks_Linear_5,116,9999,9999,9999,1038803004
73,11,21,Ticks_Linear_5,117,9999,9999,9999,1039512692
73,11,21,Ticks_Linear_5,118,9999,9999,9999,1040222276
73,11,21,Ticks_Linear_5,119,9999,9999,9999,1040932936
73,11,21,Ticks_Linear_5,120,9999,9999,9999,1041652808
73,11,21,Ticks_Linear_5,121,9999,9999,9999,1042372680
73,11,21,Ticks_Linear_5,122,9999,9999,9999,1043092564
73,11,21,Ticks_Linear_5,123,9999,9999,9999,1043812412
73,11,21,Ticks_Linear_5,124,9999,9999,9999,1044532280
73,11,21,Ticks_Linear_5,125,9999,9999,9999,1045262412
73,11,21,Ticks_Linear_5,126,9999,9999,9999,1045992544
73,11,21,Ticks_Linear_5,127,9999,9999,9999,1046722676
73,11,21,Ticks_Linear_5,128,9999,9999,9999,1047452788
73,11,21,Ticks_Linear_5,129,9999,9999,9999,1048182860
73,11,21,Ticks_Linear_5,130,9999,9999,9999,1048922240
73,11,21,Ticks_Linear_5,131,9999,9999,9999,1049662568
73,11,21,Ticks_Linear_5,132,9999,9999,9999,1050402884
73,11,21,Ticks_Linear_5,133,9999,9999,9999,1051142228
73,11,21,Ticks_Linear_5,134,9999,9999,9999,1051882604
73,11,21,Ticks_Linear_5,135,9999,9999,9999,1052632128
73,11,21,Ticks_Linear_5,136,9999,9999,9999,1053382780
73,11,21,Ticks_Linear_5,137,9999,9999,9999,1054132308
73,11,21,Ticks_Linear_5,138,9999,9999,9999,1054882884
73,11,21,Ticks_Linear_5,139,9999,9999,9999,1055632484
73,11,21,Ticks_Linear_5,140,9999,9999,9999,1056392248
73,11,21,Ticks_Linear_5,141,9999,9999,9999,1057152060
73,11,21,Ticks_Linear_5,142,9999,9999,9999,1057912912
73,11,21,Ticks_Linear_5,143,9999,9999,9999,1058672724
73,11,21,Ticks_Linear_5,144,9999,9999,9999,1059432532
73,11,21,Ticks_Linear_5,145,9999,9999,9999,1060202600
73,11,21,Ticks_Linear_5,146,9999,9999,9999,1060972664
73,11,21,Ticks_Linear_5,147,9999,9999,9999,1061742712
73,11,21,Ticks_Linear_5,148,9999,9999,9999,1062512704
73,11,21,Ticks_Linear_5,149,9999,9999,9999,1063282752
73,11,21,Ticks_Linear_5,150,9999,9999,9999,1064063056
73,11,21,Ticks_Linear_5,151,9999,9999,9999,1064842360
73,11,21,Ticks_Linear_5,152,9999,9999,9999,1065622596
73,11,21,Ticks_Linear_5,153,9999,9999,9999,1066402904
73,11,21,Ticks_Linear_5,154,9999,9999,9999,1067182160
73,11,21,Ticks_Linear_5,155,9999,9999,9999,1067972724
73,11,21,Ticks_Linear_5,156,9999,9999,9999,1068762200
73,11,21,Ticks_Linear_5,157,9999,9999,9999,1069552764
73,11,21,Ticks_Linear_5,158,9999,9999,9999,1070342208
73,11,21,Ticks_Linear_5,159,9999,9999,9999,1071132772
73,11,21,Ticks_Linear_5,160,9999,9999,9999,1071932476
73,11,21,Ticks_Linear_5,161,9999,9999,9999,1072732252
73,11,21,Ticks_Linear_5,162,9999,9999,9999,1073533024
73,11,21,Ticks_Linear_5,163,9999,9999,9999,1074332772
73,11,21,Ticks_Linear_5,164,9999,9999,9999,1075132532
73,11,21,Ticks_Linear_5,165,9999,9999,9999,1075942492
73,11,21,Ticks_Linear_5,166,9999,9999,9999,1076752452
73,11,21,Ticks_Linear_5,167,9999,9999,9999,1077562488
73,11,21,Ticks_Linear_5,168,9999,9999,9999,1078372472
73,11,21,Ticks_Linear_5,169,9999,9999,9999,1079182436
73,12,22,Ticks_Phase_8,0,5,42,127,1090708788
73,12,22,Ticks_Phase_8,1,5,42,127,1091508744
73,12,22,Ticks_Phase_8,2,5,42,127,1092309524
73,12,22,Ticks_Phase_8,3,5,42,127,1093109180
73,12,22,Ticks_Phase_8,4,5,42,127,1093908840
73,12,22,Ticks_Phase_8,5,5,42,127,1094708500
73,12,22,Ticks_Phase_8,6,1,48,40,1095457952
73,12,22,Ticks_Phase_8,7,5,42,127,1095509572
73,12,22,Ticks_Phase_8,8,1,48,45,1096271584
73,12,22,Ticks_Phase_8,9,5,42,127,1096309308
73,12,22,Ticks_Phase_8,10,1,48,46,1097086440
73,12,22,Ticks_Phase_8,11,5,42,127,1097108796
73,12,22,Ticks_Phase_8,12,5,42,127,1097908588
73,12,22,Ticks_Phase_8,13,1,48,47,1097920548
73,12,22,Ticks_Phase_8,14,5,42,127,1098709348
73,12,22,Ticks_Phase_8,15,1,48,34,1098720408
73,12,22,Ticks_Phase_8,16,1,48,66,1099495760
73,12,22,Ticks_Phase_8,17,5,42,127,1099509052
73,12,22,Ticks_Phase_8,18,1,48,52,1100277432
73,12,22,Ticks_Phase_8,19,5,42,127,1100308836
73,12,22,Ticks_Phase_8,20,1,48,47,1101027716
73,12,22,Ticks_Phase_8,21,5,42,127,1101108620
73,12,22,Ticks_Phase_8,22,1,48,52,1101825248
73,12,22,Ticks_Phase_8,23,5,42,127,1101909456
73,12,22,Ticks_Phase_8,24,1,48,52,1102639492
73,12,22,Ticks_Phase_8,25,5,42,127,1102709264
73,12,22,Ticks_Phase_8,26,1,48,53,1103410224
73,12,22,Ticks_Phase_8,27,5,42,127,1103508812
73,12,22,Ticks_Phase_8,28,1,48,64,1104186412
73,12,22,Ticks_Phase_8,29,5,42,127,1104308524
73,12,22,Ticks_Phase_8,30,1,48,43,1105005016
73,12,22,Ticks_Phase_8,31,5,42,127,1105109356
73,12,22,Ticks_Phase_8,32,1,48,56,1105827956
73,12,22,Ticks_Phase_8,33,5,42,127,1105909232
73,12,22,Ticks_Phase_8,34,1,48,45,1106601892
73,12,22,Ticks_Phase_8,35,5,42,127,1106708780
73,12,22,Ticks_Phase_8,36,1,48,45,1107406764
73,12,22,Ticks_Phase_8,37,5,42,127,1107508564
73,12,22,Ticks_Phase_8,38,1,48,58,1108254484
73,12,22,Ticks_Phase_8,39,5,42,127,1108309412
73,12,22,Ticks_Phase_8,40,1,48,53,1109065720
73,12,22,Ticks_Phase_8,41,5,42,127,1109109296
73,12,22,Ticks_Phase_8,42,1,48,57,1109882612
73,12,22,Ticks_Phase_8,43,5,42,127,1109908712
73,12,22,Ticks_Phase_8,44,5,42,127,1110708728
73,12,22,Ticks_Phase_8,45,1,48,57,1110725616
73,12,22,Ticks_Phase_8,46,5,42,127,1111509336
73,12,22,Ticks_Phase_8,47,1,48,67,1111582924
73,12,22,Ticks_Phase_8,48,5,42,127,1112309268
73,12,22,Ticks_Phase_8,49,1,48,60,1112380016
73,12,22,Ticks_Phase_8,50,5,42,127,1113108980
73,12,22,Ticks_Phase_8,51,1,48,65,1113190308
73,12,22,Ticks_Phase_8,52,1,48,39,1113259260
73,12,22,Ticks_Phase_8,53,5,42,127,1113908596
73,12,22,Ticks_Phase_8,54,1,48,55,1114145084
73,12,22,Ticks_Phase_8,55,5,42,127,1114689136
73,12,22,Ticks_Phase_8,56,1,48,67,1114979124
73,12,22,Ticks_Phase_8,57,1,48,28,1115114412
73,12,22,Ticks_Phase_8,58,5,42,127,1115488748
73,12,22,Ticks_Phase_8,59,1,48,58,1115926156
73,12,22,Ticks_Phase_8,60,5,42,127,1116289360
73,12,22,Ticks_Phase_8,61,1,48,65,1116732092
73,12,22,Ticks_Phase_8,62,5,42,127,1117089144
73,12,22,Ticks_Phase_8,63,1,48,49,1117494432
73,12,22,Ticks_Phase_8,64,1,48,24,1117557048
73,12,22,Ticks_Phase_8,65,5,42,127,1117889056
73,12,22,Ticks_Phase_8,66,1,48,63,1118350088
73,12,22,Ticks_Phase_8,67,5,42,127,1118688696
73,12,22,Ticks_Phase_8,68,1,48,67,1119173384
73,12,22,Ticks_Phase_8,69,1,48,21,1119306136
73,12,22,Ticks_Phase_8,70,5,42,127,1119489432
73,12,22,Ticks_Phase_8,71,1,48,72,1120018688
73,12,22,Ticks_Phase_8,72,1,48,25,1120118068
73,12,22,Ticks_Phase_8,73,5,42,127,1120289268
73,12,22,Ticks_Phase_8,74,1,48,62,1120969444
73,12,22,Ticks_Phase_8,75,5,42,127,1121088980
73,12,22,Ticks_Phase_8,76,1,48,65,1121805768
73,12,22,Ticks_Phase_8,77,5,42,127,1121888560
73,12,22,Ticks_Phase_8,78,1,48,48,1122636856
73,12,22,Ticks_Phase_8,79,5,42,127,1122689492
73,12,22,Ticks_Phase_8,80,1,48,51,1123443864
73,12,22,Ticks_Phase_8,81,5,42,127,1123489276
73,12,22,Ticks_Phase_8,82,1,48,24,1123511408
73,12,22,Ticks_Phase_8,83,1,48,59,1124227688
73,12,22,Ticks_Phase_8,84,5,42,127,1124288896
73,12,22,Ticks_Phase_8,85,1,48,66,1125004020
73,12,22,Ticks_Phase_8,86,5,42,127,1125088904
73,12,22,Ticks_Phase_8,87,1,48,21,1125117104
73,12,22,Ticks_Phase_8,88,1,48,67,1125848952
73,12,22,Ticks_Phase_8,89,5,42,127,1125889344
73,12,22,Ticks_Phase_8,90,1,48,22,1126048692
73,12,22,Ticks_Phase_8,91,1,48,62,1126542000
73,12,22,Ticks_Phase_8,92,5,42,127,1126689096
73,12,22,Ticks_Phase_8,93,1,48,62,1127370468
73,12,22,Ticks_Phase_8,94,5,42,127,1127488808
73,12,22,Ticks_Phase_8,95,1,48,56,1128210096
73,12,22,Ticks_Phase_8,96,5,42,127,1128288760
73,12,22,Ticks_Phase_8,97,1,48,56,1129063452
73,12,22,Ticks_Phase_8,98,5,42,127,1129108792
73,12,22,Ticks_Phase_8,99,1,48,63,1129863684
73,12,22,Ticks_Phase_8,100,5,42,127,1129908800
73,12,22,Ticks_Phase_8,101,1,48,35,1130579132
73,12,22,Ticks_Phase_8,102,5,42,127,1130709248
73,12,22,Ticks_Phase_8,103,1,48,48,1130868912
73,12,22,Ticks_Phase_8,104,5,42,127,1131509108
73,12,22,Ticks_Phase_8,105,1,48,61,1131538216
73,12,22,Ticks_Phase_8,106,1,48,21,1131622464
73,12,22,Ticks_Phase_8,107,1,48,54,1132299624
73,12,22,Ticks_Phase_8,108,5,42,127,1132308788
73,12,22,Ticks_Phase_8,109,1,48,53,1133076872
73,12,22,Ticks_Phase_8,110,5,42,127,1133108724
73,12,22,Ticks_Phase_8,111,1,48,57,1133823480
73,12,22,Ticks_Phase_8,112,5,42,127,1133909336
73,12,22,Ticks_Phase_8,113,1,48,50,1134561860
73,12,22,Ticks_Phase_8,114,1,48,20,1134653200
73,12,22,Ticks_Phase_8,115,5,42,127,1134709052
73,12,22,Ticks_Phase_8,116,1,48,50,1135399076
73,12,22,Ticks_Phase_8,117,5,42,127,1135508896
73,12,22,Ticks_Phase_8,118,1,48,48,1136198484
73,12,22,Ticks_Phase_8,119,5,42,127,1136308532
73,12,22,Ticks_Phase_8,120,1,48,57,1136992944
73,12,22,Ticks_Phase_8,121,5,42,127,1137109268
73,12,22,Ticks_Phase_8,122,1,48,43,1137795428
73,12,22,Ticks_Phase_8,123,5,42,127,1137909052
73,12,22,Ticks_Phase_8,124,5,42,127,1138708788
73,12,22,Ticks_Phase_8,125,1,48,58,1138758792
73,12,22,Ticks_Phase_8,126,5,42,127,1139508796
73,12,22,Ticks_Phase_8,127,1,48,55,1139544116
73,12,22,Ticks_Phase_8,128,5,42,127,1140309552
73,12,22,Ticks_Phase_8,129,1,48,56,1140331048
73,12,22,Ticks_Phase_8,130,1,48,14,1140696508
73,12,22,Ticks_Phase_8,131,1,48,50,1141091856
73,12,22,Ticks_Phase_8,132,5,42,127,1141108964
73,12,22,Ticks_Phase_8,133,1,48,51,1141846000
73,12,22,Ticks_Phase_8,134,5,42,127,1141948724
73,12,22,Ticks_Phase_8,135,1,48,53,1142576460
73,12,22,Ticks_Phase_8,136,5,42,127,1142748588
73,12,22,Ticks_Phase_8,137,1,48,52,1143373844
73,12,22,Ticks_Phase_8,138,5,42,127,1143549492
73,12,22,Ticks_Phase_8,139,1,48,66,1144155652
73,12,22,Ticks_Phase_8,140,1,48,37,1144199400
73,12,22,Ticks_Phase_8,141,5,42,127,1144349036
73,12,22,Ticks_Phase_8,142,1,48,66,1144968556
73,12,22,Ticks_Phase_8,143,5,42,127,1145148900
73,12,22,Ticks_Phase_8,144,1,48,67,1145791780
73,12,22,Ticks_Phase_8,145,5,42,127,1145948536
73,12,22,Ticks_Phase_8,146,1,48,61,1146539152
73,12,22,Ticks_Phase_8,147,5,42,127,1146749544
73,12,22,Ticks_Phase_8,148,1,48,61,1147225224
73,12,22,Ticks_Phase_8,149,5,42,127,1147548956
73,12,22,Ticks_Phase_8,150,1,48,60,1147707624
73,12,22,Ticks_Phase_8,151,1,48,53,1148128064
73,12,22,Ticks_Phase_8,152,5,42,127,1148348648
73,12,22,Ticks_Phase_8,153,1,48,59,1148561476
73,12,22,Ticks_Phase_8,154,1,48,53,1148972976
73,12,22,Ticks_Phase_8,155,5,42,127,1149148412
73,12,22,Ticks_Phase_8,156,1,48,47,1149412464
73,12,22,Ticks_Phase_8,157,1,48,55,1149903596
73,12,22,Ticks_Phase_8,158,5,42,127,1149949460
73,12,22,Ticks_Phase_8,159,1,48,57,1150505204
73,12,22,Ticks_Phase_8,160,5,42,127,1150749012
73,12,22,Ticks_Phase_8,161,1,48,65,1151213108
73,12,22,Ticks_Phase_8,162,5,42,127,1151548648
73,12,22,Ticks_Phase_8,163,1,48,60,1152056860
73,12,22,Ticks_Phase_8,164,1,48,36,1152108084
73,12,22,Ticks_Phase_8,165,5,42,127,1152348484
73,12,22,Ticks_Phase_8,166,1,48,60,1152921048
73,12,22,Ticks_Phase_8,167,5,42,127,1153149416
73,12,22,Ticks_Phase_8,168,1,48,62,1153702936
73,12,22,Ticks_Phase_8,169,5,42,127,1153948980
73,12,22,Ticks_Phase_8,170,1,48,55,1154509536
73,12,22,Ticks_Phase_8,171,5,42,127,1154748692
73,12,22,Ticks_Phase_8,172,1,48,57,1155343240
73,12,22,Ticks_Phase_8,173,5,42,127,1155508564
73,12,22,Ticks_Phase_8,174,1,48,57,1156144972
73,12,22,Ticks_Phase_8,175,5,42,127,1156309324
73,12,22,Ticks_Phase_8,176,1,48,62,1157024844
73,12,22,Ticks_Phase_8,177,5,42,127,1157109128
73,12,22,Ticks_Phase_8,178,1,48,65,1157790560
73,12,22,Ticks_Phase_8,179,5,42,127,1157908900
73,12,22,Ticks_Phase_8,180,1,48,61,1158468036
73,12,22,Ticks_Phase_8,181,5,42,127,1158708464
73,12,22,Ticks_Phase_8,182,1,48,46,1159448544
73,12,22,Ticks_Phase_8,183,5,42,127,1159509236
73,12,22,Ticks_Phase_8,184,1,48,51,1160299060
73,12,22,Ticks_Phase_8,185,5,42,127,1160309196
73,12,22,Ticks_Phase_8,186,5,42,127,1161109064
73,12,22,Ticks_Phase_8,187,1,48,38,1161116292
73,12,22,Ticks_Phase_8,188,1,48,45,1161904764
73,12,22,Ticks_Phase_8,189,5,42,127,1161908544
73,12,22,Ticks_Phase_8,190,1,48,51,1162642244
73,12,22,Ticks_Phase_8,191,5,42,127,1162709304
73,12,22,Ticks_Phase_8,192,1,48,51,1163451920
73,12,22,Ticks_Phase_8,193,1,48,26,1163507944
73,12,22,Ticks_Phase_8,194,5,42,127,1163509068
73,12,22,Ticks_Phase_8,195,1,48,59,1164250564
73,12,22,Ticks_Phase_8,196,1,48,35,1164301912
73,12,22,Ticks_Phase_8,197,5,42,127,1164308832
73,12,22,Ticks_Phase_8,198,1,48,59,1165056548
73,12,22,Ticks_Phase_8,199,5,42,127,1165108692
73,12,22,Ticks_Phase_8,200,1,48,32,1165124896
73,12,22,Ticks_Phase_8,201,1,48,57,1165823500
73,12,22,Ticks_Phase_8,202,1,48,35,1165872384
73,12,22,Ticks_Phase_8,203,5,42,127,1165909332
73,12,22,Ticks_Phase_8,204,5,42,127,1166709004
73,12,22,Ticks_Phase_8,205,1,48,58,1166718936
73,12,22,Ticks_Phase_8,206,1,48,30,1166776660
73,12,22,Ticks_Phase_8,207,5,42,127,1167508988
73,12,22,Ticks_Phase_8,208,1,48,58,1167536064
73,12,22,Ticks_Phase_8,209,1,48,33,1167588028
73,12,22,Ticks_Phase_8,210,5,42,127,1168228700
73,12,22,Ticks_Phase_8,211,1,48,63,1168317576
73,12,22,Ticks_Phase_8,212,1,48,31,1168391384
73,12,22,Ticks_Phase_8,213,5,42,127,1169028540
73,12,22,Ticks_Phase_8,214,1,48,55,1169115304
73,12,22,Ticks_Phase_8,215,1,48,63,1169820200
73,12,22,Ticks_Phase_8,216,5,42,127,1169829292
73,12,22,Ticks_Phase_8,217,1,48,24,1169892604
73,12,22,Ticks_Phase_8,218,1,48,53,1170553828
73,12,22,Ticks_Phase_8,219,1,48,29,1170621888
73,12,22,Ticks_Phase_8,220,5,42,127,1170628956
73,12,22,Ticks_Phase_8,221,1,48,51,1171314056
73,12,22,Ticks_Phase_8,222,5,42,127,1171428728
73,12,22,Ticks_Phase_8,223,1,48,52,1172094520
73,12,22,Ticks_Phase_8,224,5,42,127,1172228592
73,12,22,Ticks_Phase_8,225,1,48,57,1172816104
73,12,22,Ticks_Phase_8,226,5,42,127,1173029200
73,12,22,Ticks_Phase_8,227,1,48,65,1173635456
73,12,22,Ticks_Phase_8,228,5,42,127,1173828988
73,12,22,Ticks_Phase_8,229,1,48,58,1174398860
73,12,22,Ticks_Phase_8,230,1,48,21,1174478296
73,12,22,Ticks_Phase_8,231,5,42,127,1174628780
73,12,22,Ticks_Phase_8,232,1,48,67,1175202068
73,12,22,Ticks_Phase_8,233,5,42,127,1175428492
73,12,22,Ticks_Phase_8,234,1,48,61,1175992188
73,12,22,Ticks_Phase_8,235,5,42,127,1176229176
73,12,22,Ticks_Phase_8,236,1,48,54,1176781196
73,12,22,Ticks_Phase_8,237,5,42,127,1177029036
73,12,22,Ticks_Phase_8,238,1,48,57,1177499880
73,12,22,Ticks_Phase_8,239,1,48,34,1177557748
73,12,22,Ticks_Phase_8,240,5,42,127,1177828800
73,12,22,Ticks_Phase_8,241,1,48,53,1178265712
73,12,22,Ticks_Phase_8,242,1,48,35,1178319920
73,12,22,Ticks_Phase_8,243,5,42,127,1178628340
73,12,22,Ticks_Phase_8,244,1,48,49,1179060468
73,12,22,Ticks_Phase_8,245,1,48,32,1179113304
73,12,22,Ticks_Phase_8,246,5,42,127,1179429300
73,12,22,Ticks_Phase_8,247,1,48,52,1179824356
73,12,22,Ticks_Phase_8,248,1,48,30,1179879976
73,12,22,Ticks_Phase_8,249,5,42,127,1180228916
73,12,22,Ticks_Phase_8,250,1,48,52,1180592444
73,12,22,Ticks_Phase_8,251,1,48,21,1180986344
73,12,22,Ticks_Phase_8,252,5,42,127,1181028720
73,12,22,Ticks_Phase_8,253,1,48,43,1181378060
73,12,22,Ticks_Phase_8,254,1,48,50,1181831072
73,12,22,Ticks_Phase_8,255,5,42,127,1181909288
73,12,22,Ticks_Phase_8,256,5,42,127,1182709084
73,12,22,Ticks_Phase_8,257,1,48,58,1182751292
73,12,22,Ticks_Phase_8,258,5,42,127,1183509016
73,12,22,Ticks_Phase_8,259,1,48,58,1183596552
73,12,22,Ticks_Phase_8,260,5,42,127,1184308876
73,12,22,Ticks_Phase_8,261,1,48,48,1184363316
73,12,22,Ticks_Phase_8,262,5,42,127,1185109488
73,12,22,Ticks_Phase_8,263,1,48,64,1185154640
73,12,22,Ticks_Phase_8,264,1,48,52,1185870820
73,12,22,Ticks_Phase_8,265,5,42,127,1185908996
73,12,22,Ticks_Phase_8,266,5,42,127,1186708716
73,12,22,Ticks_Phase_8,267,1,48,57,1186734668
73,12,22,Ticks_Phase_8,268,1,48,62,1187440916
73,12,22,Ticks_Phase_8,269,5,42,127,1187508792
73,12,22,Ticks_Phase_8,270,1,48,59,1188203704
73,12,22,Ticks_Phase_8,271,5,42,127,1188309388
73,12,22,Ticks_Phase_8,272,1,48,58,1188969272
73,12,22,Ticks_Phase_8,273,5,42,127,1189109100
73,12,22,Ticks_Phase_8,274,1,48,13,1189119784
73,12,22,Ticks_Phase_8,275,1,48,50,1189724144
73,12,22,Ticks_Phase_8,276,1,48,17,1189834012
73,12,22,Ticks_Phase_8,277,5,42,127,1189908708
73,12,22,Ticks_Phase_8,278,1,48,60,1190494720
73,12,22,Ticks_Phase_8,279,5,42,127,1190708844
73,12,22,Ticks_Phase_8,280,1,48,53,1191267932
73,12,22,Ticks_Phase_8,281,5,42,127,1191509232
73,12,22,Ticks_Phase_8,282,1,48,60,1192145888
73,12,22,Ticks_Phase_8,283,1,48,28,1192217024
73,12,22,Ticks_Phase_8,284,5,42,127,1192309540
73,12,22,Ticks_Phase_8,285,1,48,62,1192989396
73,12,22,Ticks_Phase_8,286,1,48,30,1193070352
73,12,22,Ticks_Phase_8,287,5,42,127,1193108728
73,12,22,Ticks_Phase_8,288,1,48,15,1193156920
73,12,22,Ticks_Phase_8,289,1,48,66,1193742484
73,12,22,Ticks_Phase_8,290,1,48,41,1193802220
73,12,22,Ticks_Phase_8,291,5,42,127,1193908680
73,12,22,Ticks_Phase_8,292,1,48,70,1194513564
73,12,22,Ticks_Phase_8,293,1,48,18,1194660500
73,12,22,Ticks_Phase_8,294,5,42,127,1194709504
73,12,22,Ticks_Phase_8,295,1,48,66,1195282924
73,12,22,Ticks_Phase_8,296,5,42,127,1195668740
73,12,22,Ticks_Phase_8,297,1,48,62,1195979372
73,12,22,Ticks_Phase_8,298,1,48,29,1196047728
73,12,22,Ticks_Phase_8,299,5,42,127,1196468728
73,12,22,Ticks_Phase_8,300,1,48,73,1196831552
73,12,22,Ticks_Phase_8,301,1,48,25,1196921572
73,12,22,Ticks_Phase_8,302,5,42,127,1197269536
73,12,22,Ticks_Phase_8,303,1,48,83,1197652660
73,12,22,Ticks_Phase_8,304,1,48,37,1197742824
73,12,22,Ticks_Phase_8,305,5,42,127,1198069004
73,12,22,Ticks_Phase_8,306,1,48,79,1198464500
73,12,22,Ticks_Phase_8,307,1,48,46,1198520948
73,12,22,Ticks_Phase_8,308,5,42,127,1198868844
73,12,22,Ticks_Phase_8,309,1,48,65,1199277828
73,12,22,Ticks_Phase_8,310,1,48,37,1199320120
73,12,22,Ticks_Phase_8,311,5,42,127,1199668532
73,12,22,Ticks_Phase_8,312,1,48,66,1200035716
73,12,22,Ticks_Phase_8,313,1,48,41,1200089552
73,12,22,Ticks_Phase_8,314,5,42,127,1200469492
73,12,22,Ticks_Phase_8,315,1,48,64,1200820212
73,12,22,Ticks_Phase_8,316,1,48,29,1200884892
73,12,22,Ticks_Phase_8,317,5,42,127,1201269284
73,12,22,Ticks_Phase_8,318,1,48,57,1201601256
73,12,22,Ticks_Phase_8,319,5,42,127,1202068844
73,12,22,Ticks_Phase_8,320,1,48,50,1202400372
73,12,22,Ticks_Phase_8,321,5,42,127,1202868556
73,12,22,Ticks_Phase_8,322,1,48,54,1203209892
73,12,22,Ticks_Phase_8,323,1,48,33,1203263712
73,12,22,Ticks_Phase_8,324,5,42,127,1203669368
73,12,22,Ticks_Phase_8,325,1,48,59,1204008988
73,12,22,Ticks_Phase_8,326,1,48,31,1204069944
73,12,22,Ticks_Phase_8,327,5,42,127,1204469208
73,12,22,Ticks_Phase_8,328,1,48,65,1204814284
73,12,22,Ticks_Phase_8,329,1,48,40,1204865656
73,12,22,Ticks_Phase_8,330,5,42,127,1205268972
73,12,22,Ticks_Phase_8,331,1,48,58,1205646512
73,12,22,Ticks_Phase_8,332,5,42,127,1206068532
73,12,22,Ticks_Phase_8,333,1,48,63,1206395284
73,12,22,Ticks_Phase_8,334,1,48,36,1206444388
73,12,22,Ticks_Phase_8,335,1,48,19,1206729644
73,12,22,Ticks_Phase_8,336,5,42,127,1206869548
73,12,22,Ticks_Phase_8,337,1,48,54,1207193160
73,12,22,Ticks_Phase_8,338,5,42,127,1207669212
73,12,22,Ticks_Phase_8,339,1,48,63,1208009648
73,12,22,Ticks_Phase_8,340,1,48,30,1208075296
73,12,22,Ticks_Phase_8,341,5,42,127,1208468900
73,12,22,Ticks_Phase_8,342,1,48,59,1208853440
73,12,22,Ticks_Phase_8,343,5,42,127,1209268684
73,12,22,Ticks_Phase_8,344,1,48,62,1209632036
73,12,22,Ticks_Phase_8,345,5,42,127,1210069444
73,12,22,Ticks_Phase_8,346,1,48,66,1210445520
73,12,22,Ticks_Phase_8,347,5,42,127,1210709324
73,12,22,Ticks_Phase_8,348,1,48,55,1211185180
73,12,22,Ticks_Phase_8,349,5,42,127,1211509356
73,12,22,Ticks_Phase_8,350,1,48,57,1211967676
73,12,22,Ticks_Phase_8,351,1,48,35,1212025252
73,12,22,Ticks_Phase_8,352,5,42,127,1212308972
73,12,22,Ticks_Phase_8,353,1,48,53,1212714036
73,12,22,Ticks_Phase_8,354,5,42,127,1213108536
73,12,22,Ticks_Phase_8,355,1,48,57,1213422836
73,12,22,Ticks_Phase_8,356,5,42,127,1213909296
73,12,22,Ticks_Phase_8,357,1,48,56,1214161512
73,12,22,Ticks_Phase_8,358,1,48,31,1214220056
73,12,22,Ticks_Phase_8,359,5,42,127,1214709280
73,12,22,Ticks_Phase_8,360,1,48,57,1214939784
73,12,22,Ticks_Phase_8,361,5,42,127,1215508920
73,12,22,Ticks_Phase_8,362,1,48,58,1215707000
73,12,22,Ticks_Phase_8,363,5,42,127,1216308556
73,12,22,Ticks_Phase_8,364,1,48,57,1216460204
73,12,22,Ticks_Phase_8,365,5,42,127,1217109312
73,12,22,Ticks_Phase_8,366,1,48,60,1217340792
73,12,22,Ticks_Phase_8,367,1,48,26,1217407376
73,12,22,Ticks_Phase_8,368,5,42,127,1217909104
73,12,22,Ticks_Phase_8,369,1,48,53,1218111872
73,12,22,Ticks_Phase_8,370,5,42,127,1218708740
73,12,22,Ticks_Phase_8,371,1,48,58,1218918276
73,12,22,Ticks_Phase_8,372,5,42,127,1219508600
73,12,22,Ticks_Phase_8,373,1,48,62,1219752876
73,12,22,Ticks_Phase_8,374,5,42,127,1220309360
73,12,22,Ticks_Phase_8,375,1,48,55,1220500392
73,12,22,Ticks_Phase_8,376,5,42,127,1221109216
73,12,22,Ticks_Phase_8,377,1,48,59,1221245960
73,12,22,Ticks_Phase_8,378,5,42,127,1221909004
73,12,22,Ticks_Phase_8,379,1,48,59,1222025744
73,12,22,Ticks_Phase_8,380,5,42,127,1222708568
73,12,22,Ticks_Phase_8,381,1,48,58,1222783228
73,12,22,Ticks_Phase_8,382,5,42,127,1223509476
73,12,22,Ticks_Phase_8,383,1,48,56,1223518016
73,12,22,Ticks_Phase_8,384,1,48,42,1224158480
73,12,22,Ticks_Phase_8,385,5,42,127,1224309040
73,12,22,Ticks_Phase_8,386,1,48,59,1224914668
73,12,22,Ticks_Phase_8,387,5,42,127,1225108976
73,12,22,Ticks_Phase_8,388,1,48,70,1225696944
73,12,22,Ticks_Phase_8,389,5,42,127,1225908612
73,12,22,Ticks_Phase_8,0,9999,9999,9999,1090706500
73,12,22,Ticks_Phase_8,1,9999,9999,9999,1091506232
73,12,22,Ticks_Phase_8,2,9999,9999,9999,1092307016
73,12,22,Ticks_Phase_8,3,9999,9999,9999,1093106748
73,12,22,Ticks_Phase_8,4,9999,9999,9999,1093906556
73,12,22,Ticks_Phase_8,5,9999,9999,9999,1094706288
73,12,22,Ticks_Phase_8,6,9999,9999,9999,1095507060
73,12,22,Ticks_Phase_8,7,9999,9999,9999,1096306800
73,12,22,Ticks_Phase_8,8,9999,9999,9999,1097106508
73,12,22,Ticks_Phase_8,9,9999,9999,9999,1097906300
73,12,22,Ticks_Phase_8,10,9999,9999,9999,1098707060
73,12,22,Ticks_Phase_8,11,9999,9999,9999,1099506764
73,12,22,Ticks_Phase_8,12,9999,9999,9999,1100306552
73,12,22,Ticks_Phase_8,13,9999,9999,9999,1101106260
73,12,22,Ticks_Phase_8,14,9999,9999,9999,1101907020
73,12,22,Ticks_Phase_8,15,9999,9999,9999,1102706756
73,12,22,Ticks_Phase_8,16,9999,9999,9999,1103506524
73,12,22,Ticks_Phase_8,17,9999,9999,9999,1104306236
73,12,22,Ticks_Phase_8,18,9999,9999,9999,1105107068
73,12,22,Ticks_Phase_8,19,9999,9999,9999,1105906796
73,12,22,Ticks_Phase_8,20,9999,9999,9999,1106706492
73,12,22,Ticks_Phase_8,21,9999,9999,9999,1107506276
73,12,22,Ticks_Phase_8,22,9999,9999,9999,1108307052
73,12,22,Ticks_Phase_8,23,9999,9999,9999,1109106788
73,12,22,Ticks_Phase_8,24,9999,9999,9999,1109906500
73,12,22,Ticks_Phase_8,25,9999,9999,9999,1110706292
73,12,22,Ticks_Phase_8,26,9999,9999,9999,1111507048
73,12,22,Ticks_Phase_8,27,9999,9999,9999,1112306760
73,12,22,Ticks_Phase_8,28,9999,9999,9999,1113106544
73,12,22,Ticks_Phase_8,29,9999,9999,9999,1113906236
73,12,22,Ticks_Phase_8,30,9999,9999,9999,1114686548
73,12,22,Ticks_Phase_8,31,9999,9999,9999,1115486312
73,12,22,Ticks_Phase_8,32,9999,9999,9999,1116287072
73,12,22,Ticks_Phase_8,33,9999,9999,9999,1117086784
73,12,22,Ticks_Phase_8,34,9999,9999,9999,1117886548
73,12,22,Ticks_Phase_8,35,9999,9999,9999,1118686332
73,12,22,Ticks_Phase_8,36,9999,9999,9999,1119487068
73,12,22,Ticks_Phase_8,37,9999,9999,9999,1120286832
73,12,22,Ticks_Phase_8,38,9999,9999,9999,1121086544
73,12,22,Ticks_Phase_8,39,9999,9999,9999,1121886272
73,12,22,Ticks_Phase_8,40,9999,9999,9999,1122687056
73,12,22,Ticks_Phase_8,41,9999,9999,9999,1123486840
73,12,22,Ticks_Phase_8,42,9999,9999,9999,1124286536
73,12,22,Ticks_Phase_8,43,9999,9999,9999,1125086320
73,12,22,Ticks_Phase_8,44,9999,9999,9999,1125887060
73,12,22,Ticks_Phase_8,45,9999,9999,9999,1126686812
73,12,22,Ticks_Phase_8,46,9999,9999,9999,1127486520
73,12,22,Ticks_Phase_8,47,9999,9999,9999,1128286324
73,12,22,Ticks_Phase_8,48,9999,9999,9999,1129106504
73,12,22,Ticks_Phase_8,49,9999,9999,9999,1129906292
73,12,22,Ticks_Phase_8,50,9999,9999,9999,1130707036
73,12,22,Ticks_Phase_8,51,9999,9999,9999,1131506744
73,12,22,Ticks_Phase_8,52,9999,9999,9999,1132306504
73,12,22,Ticks_Phase_8,53,9999,9999,9999,1133106288
73,12,22,Ticks_Phase_8,54,9999,9999,9999,1133907052
73,12,22,Ticks_Phase_8,55,9999,9999,9999,1134706764
73,12,22,Ticks_Phase_8,56,9999,9999,9999,1135506536
73,12,22,Ticks_Phase_8,57,9999,9999,9999,1136306244
73,12,22,Ticks_Phase_8,58,9999,9999,9999,1137107052
73,12,22,Ticks_Phase_8,59,9999,9999,9999,1137906768
73,12,22,Ticks_Phase_8,60,9999,9999,9999,1138706500
73,12,22,Ticks_Phase_8,61,9999,9999,9999,1139506284
73,12,22,Ticks_Phase_8,62,9999,9999,9999,1140307044
73,12,22,Ticks_Phase_8,63,9999,9999,9999,1141106752
73,12,22,Ticks_Phase_8,64,9999,9999,9999,1141946436
73,12,22,Ticks_Phase_8,65,9999,9999,9999,1142746224
73,12,22,Ticks_Phase_8,66,9999,9999,9999,1143546984
73,12,22,Ticks_Phase_8,67,9999,9999,9999,1144346748
73,12,22,Ticks_Phase_8,68,9999,9999,9999,1145146464
73,12,22,Ticks_Phase_8,69,9999,9999,9999,1145946176
73,12,22,Ticks_Phase_8,70,9999,9999,9999,1146746960
73,12,22,Ticks_Phase_8,71,9999,9999,9999,1147546744
73,12,22,Ticks_Phase_8,72,9999,9999,9999,1148346436
73,12,22,Ticks_Phase_8,73,9999,9999,9999,1149146200
73,12,22,Ticks_Phase_8,74,9999,9999,9999,1149946952
73,12,22,Ticks_Phase_8,75,9999,9999,9999,1150746724
73,12,22,Ticks_Phase_8,76,9999,9999,9999,1151546436
73,12,22,Ticks_Phase_8,77,9999,9999,9999,1152346196
73,12,22,Ticks_Phase_8,78,9999,9999,9999,1153146984
73,12,22,Ticks_Phase_8,79,9999,9999,9999,1153946692
73,12,22,Ticks_Phase_8,80,9999,9999,9999,1154746480
73,12,22,Ticks_Phase_8,81,9999,9999,9999,1155506276
73,12,22,Ticks_Phase_8,82,9999,9999,9999,1156307036
73,12,22,Ticks_Phase_8,83,9999,9999,9999,1157106764
73,12,22,Ticks_Phase_8,84,9999,9999,9999,1157906540
73,12,22,Ticks_Phase_8,85,9999,9999,9999,1158706252
73,12,22,Ticks_Phase_8,86,9999,9999,9999,1159507024
73,12,22,Ticks_Phase_8,87,9999,9999,9999,1160306760
73,12,22,Ticks_Phase_8,88,9999,9999,9999,1161106552
73,12,22,Ticks_Phase_8,89,9999,9999,9999,1161906260
73,12,22,Ticks_Phase_8,90,9999,9999,9999,1162707016
73,12,22,Ticks_Phase_8,91,9999,9999,9999,1163506760
73,12,22,Ticks_Phase_8,92,9999,9999,9999,1164306548
73,12,22,Ticks_Phase_8,93,9999,9999,9999,1165106256
73,12,22,Ticks_Phase_8,94,9999,9999,9999,1165907048
73,12,22,Ticks_Phase_8,95,9999,9999,9999,1166706788
73,12,22,Ticks_Phase_8,96,9999,9999,9999,1167506552
73,12,22,Ticks_Phase_8,97,9999,9999,9999,1168226412
73,12,22,Ticks_Phase_8,98,9999,9999,9999,1169026176
73,12,22,Ticks_Phase_8,99,9999,9999,9999,1169826928
73,12,22,Ticks_Phase_8,100,9999,9999,9999,1170626672
73,12,22,Ticks_Phase_8,101,9999,9999,9999,1171426368
73,12,22,Ticks_Phase_8,102,9999,9999,9999,1172226156
73,12,22,Ticks_Phase_8,103,9999,9999,9999,1173026916
73,12,22,Ticks_Phase_8,104,9999,9999,9999,1173826628
73,12,22,Ticks_Phase_8,105,9999,9999,9999,1174626420
73,12,22,Ticks_Phase_8,106,9999,9999,9999,1175426132
73,12,22,Ticks_Phase_8,107,9999,9999,9999,1176226888
73,12,22,Ticks_Phase_8,108,9999,9999,9999,1177026672
73,12,22,Ticks_Phase_8,109,9999,9999,9999,1177826364
73,12,22,Ticks_Phase_8,110,9999,9999,9999,1178626128
73,12,22,Ticks_Phase_8,111,9999,9999,9999,1179426940
73,12,22,Ticks_Phase_8,112,9999,9999,9999,1180226628
73,12,22,Ticks_Phase_8,113,9999,9999,9999,1181026432
73,12,22,Ticks_Phase_8,114,9999,9999,9999,1181907004
73,12,22,Ticks_Phase_8,115,9999,9999,9999,1182706796
73,12,22,Ticks_Phase_8,116,9999,9999,9999,1183506504
73,12,22,Ticks_Phase_8,117,9999,9999,9999,1184306292
73,12,22,Ticks_Phase_8,118,9999,9999,9999,1185107052
73,12,22,Ticks_Phase_8,119,9999,9999,9999,1185906784
73,12,22,Ticks_Phase_8,120,9999,9999,9999,1186706504
73,12,22,Ticks_Phase_8,121,9999,9999,9999,1187506284
73,12,22,Ticks_Phase_8,122,9999,9999,9999,1188307028
73,12,22,Ticks_Phase_8,123,9999,9999,9999,1189106812
73,12,22,Ticks_Phase_8,124,9999,9999,9999,1189906496
73,12,22,Ticks_Phase_8,125,9999,9999,9999,1190706260
73,12,22,Ticks_Phase_8,126,9999,9999,9999,1191507020
73,12,22,Ticks_Phase_8,127,9999,9999,9999,1192306748
73,12,22,Ticks_Phase_8,128,9999,9999,9999,1193106516
73,12,22,Ticks_Phase_8,129,9999,9999,9999,1193906244
73,12,22,Ticks_Phase_8,130,9999,9999,9999,1194707068
73,12,22,Ticks_Phase_8,131,9999,9999,9999,1195666528
73,12,22,Ticks_Phase_8,132,9999,9999,9999,1196466292
73,12,22,Ticks_Phase_8,133,9999,9999,9999,1197267028
73,12,22,Ticks_Phase_8,134,9999,9999,9999,1198066792
73,12,22,Ticks_Phase_8,135,9999,9999,9999,1198866556
73,12,22,Ticks_Phase_8,136,9999,9999,9999,1199666244
73,12,22,Ticks_Phase_8,137,9999,9999,9999,1200467056
73,12,22,Ticks_Phase_8,138,9999,9999,9999,1201266772
73,12,22,Ticks_Phase_8,139,9999,9999,9999,1202066556
73,12,22,Ticks_Phase_8,140,9999,9999,9999,1202866272
73,12,22,Ticks_Phase_8,141,9999,9999,9999,1203667008
73,12,22,Ticks_Phase_8,142,9999,9999,9999,1204466772
73,12,22,Ticks_Phase_8,143,9999,9999,9999,1205266536
73,12,22,Ticks_Phase_8,144,9999,9999,9999,1206066248
73,12,22,Ticks_Phase_8,145,9999,9999,9999,1206867036
73,12,22,Ticks_Phase_8,146,9999,9999,9999,1207666776
73,12,22,Ticks_Phase_8,147,9999,9999,9999,1208466540
73,12,22,Ticks_Phase_8,148,9999,9999,9999,1209266252
73,12,22,Ticks_Phase_8,149,9999,9999,9999,1210067008
73,12,22,Ticks_Phase_8,150,9999,9999,9999,1210707036
73,12,22,Ticks_Phase_8,151,9999,9999,9999,1211506772
73,12,22,Ticks_Phase_8,152,9999,9999,9999,1212306536
73,12,22,Ticks_Phase_8,153,9999,9999,9999,1213106248
73,12,22,Ticks_Phase_8,154,9999,9999,9999,1213907008
73,12,22,Ticks_Phase_8,155,9999,9999,9999,1214706772
73,12,22,Ticks_Phase_8,156,9999,9999,9999,1215506556
73,12,22,Ticks_Phase_8,157,9999,9999,9999,1216306268
73,12,22,Ticks_Phase_8,158,9999,9999,9999,1217107028
73,12,22,Ticks_Phase_8,159,9999,9999,9999,1217906816
73,12,22,Ticks_Phase_8,160,9999,9999,9999,1218706528
73,12,22,Ticks_Phase_8,161,9999,9999,9999,1219506240
73,12,22,Ticks_Phase_8,162,9999,9999,9999,1220307072
73,12,22,Ticks_Phase_8,163,9999,9999,9999,1221106784
73,12,22,Ticks_Phase_8,164,9999,9999,9999,1221906496
73,12,22,Ticks_Phase_8,165,9999,9999,9999,1222706280
73,12,22,Ticks_Phase_8,166,9999,9999,9999,1223507040
73,12,22,Ticks_Phase_8,167,9999,9999,9999,1224306752
73,12,22,Ticks_Phase_8,168,9999,9999,9999,1225106540
73,12,22,Ticks_Phase_8,169,9999,9999,9999,1225906252
73,13,23,Ticks_Phase_5,0,5,42,127,1237440844
73,13,23,Ticks_Phase_5,1,5,42,127,1237940704
73,13,23,Ticks_Phase_5,2,5,42,127,1238441312
73,13,23,Ticks_Phase_5,3,5,42,127,1238941168
73,13,23,Ticks_Phase_5,4,5,42,127,1239440656
73,13,23,Ticks_Phase_5,5,5,42,127,1239940588
73,13,23,Ticks_Phase_5,6,5,42,127,1240441348
73,13,23,Ticks_Phase_5,7,5,42,127,1240940832
73,13,23,Ticks_Phase_5,8,5,42,127,1241440840
73,13,23,Ticks_Phase_5,9,1,48,25,1241460436
73,13,23,Ticks_Phase_5,10,5,42,127,1241941476
73,13,23,Ticks_Phase_5,11,1,48,43,1242287996
73,13,23,Ticks_Phase_5,12,5,42,127,1242441012
73,13,23,Ticks_Phase_5,13,5,42,127,1242940800
73,13,23,Ticks_Phase_5,14,1,48,32,1243044364
73,13,23,Ticks_Phase_5,15,5,42,127,1243440636
73,13,23,Ticks_Phase_5,16,1,48,19,1243487208
73,13,23,Ticks_Phase_5,17,1,48,40,1243822564
73,13,23,Ticks_Phase_5,18,5,42,127,1243941200
73,13,23,Ticks_Phase_5,19,1,48,38,1244227560
73,13,23,Ticks_Phase_5,20,5,42,127,1244440888
73,13,23,Ticks_Phase_5,21,1,48,36,1244645552
73,13,23,Ticks_Phase_5,22,5,42,127,1244940648
73,13,23,Ticks_Phase_5,23,1,48,40,1245082860
73,13,23,Ticks_Phase_5,24,5,42,127,1245441680
73,13,23,Ticks_Phase_5,25,1,48,38,1245516168
73,13,23,Ticks_Phase_5,26,5,42,127,1245941072
73,13,23,Ticks_Phase_5,27,1,48,34,1245985976
73,13,23,Ticks_Phase_5,28,5,42,127,1246440760
73,13,23,Ticks_Phase_5,29,1,48,28,1246450320
73,13,23,Ticks_Phase_5,30,1,48,41,1246913824
73,13,23,Ticks_Phase_5,31,5,42,127,1246940516
73,13,23,Ticks_Phase_5,32,1,48,34,1247378012
73,13,23,Ticks_Phase_5,33,5,42,127,1247441472
73,13,23,Ticks_Phase_5,34,1,48,42,1247883844
73,13,23,Ticks_Phase_5,35,5,42,127,1247941016
73,13,23,Ticks_Phase_5,36,1,48,43,1248391848
73,13,23,Ticks_Phase_5,37,5,42,127,1248440556
73,13,23,Ticks_Phase_5,38,1,48,28,1248875656
73,13,23,Ticks_Phase_5,39,5,42,127,1248941584
73,13,23,Ticks_Phase_5,40,1,48,43,1249410396
73,13,23,Ticks_Phase_5,41,5,42,127,1249451312
73,13,23,Ticks_Phase_5,42,1,48,48,1249880404
73,13,23,Ticks_Phase_5,43,5,42,127,1249951072
73,13,23,Ticks_Phase_5,44,1,48,51,1250389156
73,13,23,Ticks_Phase_5,45,5,42,127,1250450760
73,13,23,Ticks_Phase_5,46,1,48,41,1250945916
73,13,23,Ticks_Phase_5,47,5,42,127,1250950672
73,13,23,Ticks_Phase_5,48,1,48,46,1251395408
73,13,23,Ticks_Phase_5,49,5,42,127,1251451184
73,13,23,Ticks_Phase_5,50,1,48,45,1251845448
73,13,23,Ticks_Phase_5,51,5,42,127,1251951008
73,13,23,Ticks_Phase_5,52,1,48,41,1252368348
73,13,23,Ticks_Phase_5,53,5,42,127,1252440800
73,13,23,Ticks_Phase_5,54,1,48,43,1252854636
73,13,23,Ticks_Phase_5,55,5,42,127,1252941164
73,13,23,Ticks_Phase_5,56,1,48,42,1253328040
73,13,23,Ticks_Phase_5,57,5,42,127,1253440912
73,13,23,Ticks_Phase_5,58,1,48,46,1253770744
73,13,23,Ticks_Phase_5,59,1,48,32,1253811684
73,13,23,Ticks_Phase_5,60,5,42,127,1253940804
73,13,23,Ticks_Phase_5,61,1,48,42,1254286732
73,13,23,Ticks_Phase_5,62,5,42,127,1254441464
73,13,23,Ticks_Phase_5,63,1,48,45,1254743784
73,13,23,Ticks_Phase_5,64,5,42,127,1254941080
73,13,23,Ticks_Phase_5,65,1,48,42,1255248260
73,13,23,Ticks_Phase_5,66,1,48,25,1255301740
73,13,23,Ticks_Phase_5,67,5,42,127,1255440892
73,13,23,Ticks_Phase_5,68,1,48,42,1255701880
73,13,23,Ticks_Phase_5,69,1,48,28,1255750236
73,13,23,Ticks_Phase_5,70,5,42,127,1255940636
73,13,23,Ticks_Phase_5,71,1,48,39,1256236960
73,13,23,Ticks_Phase_5,72,5,42,127,1256441296
73,13,23,Ticks_Phase_5,73,1,48,46,1256733736
73,13,23,Ticks_Phase_5,74,5,42,127,1256940836
73,13,23,Ticks_Phase_5,75,1,48,47,1257172388
73,13,23,Ticks_Phase_5,76,5,42,127,1257440748
73,13,23,Ticks_Phase_5,77,1,48,47,1257624440
73,13,23,Ticks_Phase_5,78,5,42,127,1257941484
73,13,23,Ticks_Phase_5,79,1,48,43,1258118896
73,13,23,Ticks_Phase_5,80,5,42,127,1258441168
73,13,23,Ticks_Phase_5,81,1,48,47,1258531384
73,13,23,Ticks_Phase_5,82,5,42,127,1258940708
73,13,23,Ticks_Phase_5,83,1,48,38,1258969448
73,13,23,Ticks_Phase_5,84,1,48,47,1259379180
73,13,23,Ticks_Phase_5,85,1,48,30,1259428276
73,13,23,Ticks_Phase_5,86,5,42,127,1259440592
73,13,23,Ticks_Phase_5,87,1,48,41,1259794568
73,13,23,Ticks_Phase_5,88,5,42,127,1259941312
73,13,23,Ticks_Phase_5,89,1,48,37,1260242436
73,13,23,Ticks_Phase_5,90,5,42,127,1260441000
73,13,23,Ticks_Phase_5,91,1,48,38,1260577636
73,13,23,Ticks_Phase_5,92,5,42,127,1260940764
73,13,23,Ticks_Phase_5,93,1,48,23,1261057560
73,13,23,Ticks_Phase_5,94,5,42,127,1261450564
73,13,23,Ticks_Phase_5,95,1,48,26,1261457348
73,13,23,Ticks_Phase_5,96,5,42,127,1261951300
73,13,23,Ticks_Phase_5,97,1,48,16,1262033424
73,13,23,Ticks_Phase_5,98,1,48,49,1262403824
73,13,23,Ticks_Phase_5,99,5,42,127,1262450908
73,13,23,Ticks_Phase_5,100,1,48,45,1262842928
73,13,23,Ticks_Phase_5,101,1,48,28,1262890980
73,13,23,Ticks_Phase_5,102,5,42,127,1262950720
73,13,23,Ticks_Phase_5,103,1,48,45,1263300660
73,13,23,Ticks_Phase_5,104,5,42,127,1263450840
73,13,23,Ticks_Phase_5,105,1,48,36,1263643880
73,13,23,Ticks_Phase_5,106,5,42,127,1263951256
73,13,23,Ticks_Phase_5,107,1,48,40,1264107764
73,13,23,Ticks_Phase_5,108,1,48,41,1264445884
73,13,23,Ticks_Phase_5,109,5,42,127,1264450864
73,13,23,Ticks_Phase_5,110,5,42,127,1264950708
73,13,23,Ticks_Phase_5,111,1,48,45,1264988068
73,13,23,Ticks_Phase_5,112,1,48,43,1265433060
73,13,23,Ticks_Phase_5,113,5,42,127,1265451288
73,13,23,Ticks_Phase_5,114,1,48,32,1265900324
73,13,23,Ticks_Phase_5,115,5,42,127,1265951200
73,13,23,Ticks_Phase_5,116,1,48,35,1266383232
73,13,23,Ticks_Phase_5,117,5,42,127,1266450812
73,13,23,Ticks_Phase_5,118,1,48,34,1266883820
73,13,23,Ticks_Phase_5,119,5,42,127,1266950500
73,13,23,Ticks_Phase_5,120,1,48,33,1267397356
73,13,23,Ticks_Phase_5,121,5,42,127,1267451236
73,13,23,Ticks_Phase_5,122,1,48,41,1267880952
73,13,23,Ticks_Phase_5,123,5,42,127,1267950928
73,13,23,Ticks_Phase_5,124,1,48,37,1268436720
73,13,23,Ticks_Phase_5,125,5,42,127,1268450616
73,13,23,Ticks_Phase_5,126,1,48,27,1268925104
73,13,23,Ticks_Phase_5,127,5,42,127,1268951348
73,13,23,Ticks_Phase_5,128,1,48,36,1269392144
73,13,23,Ticks_Phase_5,129,5,42,127,1269470660
73,13,23,Ticks_Phase_5,130,1,48,38,1269851176
73,13,23,Ticks_Phase_5,131,5,42,127,1269971304
73,13,23,Ticks_Phase_5,132,1,48,41,1270313688
73,13,23,Ticks_Phase_5,133,5,42,127,1270471140
73,13,23,Ticks_Phase_5,134,1,48,38,1270758644
73,13,23,Ticks_Phase_5,135,5,42,127,1270970828
73,13,23,Ticks_Phase_5,136,1,48,33,1271251584
73,13,23,Ticks_Phase_5,137,5,42,127,1271470516
73,13,23,Ticks_Phase_5,138,1,48,38,1271696676
73,13,23,Ticks_Phase_5,139,5,42,127,1271971176
73,13,23,Ticks_Phase_5,140,1,48,45,1272076060
73,13,23,Ticks_Phase_5,141,5,42,127,1272470864
73,13,23,Ticks_Phase_5,142,1,48,42,1272503416
73,13,23,Ticks_Phase_5,143,1,48,38,1272907728
73,13,23,Ticks_Phase_5,144,5,42,127,1272970548
73,13,23,Ticks_Phase_5,145,1,48,34,1273346088
73,13,23,Ticks_Phase_5,146,5,42,127,1273471340
73,13,23,Ticks_Phase_5,147,1,48,40,1273771568
73,13,23,Ticks_Phase_5,148,5,42,127,1273971104
73,13,23,Ticks_Phase_5,149,1,48,44,1274216428
73,13,23,Ticks_Phase_5,150,5,42,127,1274470644
73,13,23,Ticks_Phase_5,151,1,48,32,1274652592
73,13,23,Ticks_Phase_5,152,5,42,127,1274970484
73,13,23,Ticks_Phase_5,153,1,48,38,1275117980
73,13,23,Ticks_Phase_5,154,5,42,127,1275471120
73,13,23,Ticks_Phase_5,155,1,48,41,1275515672
73,13,23,Ticks_Phase_5,156,1,48,37,1275923288
73,13,23,Ticks_Phase_5,157,5,42,127,1275970876
73,13,23,Ticks_Phase_5,158,1,48,40,1276430548
73,13,23,Ticks_Phase_5,159,5,42,127,1276470564
73,13,23,Ticks_Phase_5,160,1,48,48,1276970024
73,13,23,Ticks_Phase_5,161,5,42,127,1276971520
73,13,23,Ticks_Phase_5,162,1,48,43,1277446688
73,13,23,Ticks_Phase_5,163,5,42,127,1277471136
73,13,23,Ticks_Phase_5,164,1,48,43,1277928252
73,13,23,Ticks_Phase_5,165,5,42,127,1277951428
73,13,23,Ticks_Phase_5,166,1,48,43,1278368784
73,13,23,Ticks_Phase_5,167,5,42,127,1278451192
73,13,23,Ticks_Phase_5,168,1,48,43,1278893188
73,13,23,Ticks_Phase_5,169,5,42,127,1278950732
73,13,23,Ticks_Phase_5,170,1,48,42,1279411376
73,13,23,Ticks_Phase_5,171,5,42,127,1279450344
73,13,23,Ticks_Phase_5,172,1,48,45,1279812036
73,13,23,Ticks_Phase_5,173,5,42,127,1279951140
73,13,23,Ticks_Phase_5,174,1,48,46,1280300120
73,13,23,Ticks_Phase_5,175,1,48,24,1280380400
73,13,23,Ticks_Phase_5,176,5,42,127,1280451044
73,13,23,Ticks_Phase_5,177,1,48,40,1280814900
73,13,23,Ticks_Phase_5,178,5,42,127,1280950568
73,13,23,Ticks_Phase_5,179,1,48,44,1281329948
73,13,23,Ticks_Phase_5,180,5,42,127,1281451376
73,13,23,Ticks_Phase_5,181,1,48,52,1281823044
73,13,23,Ticks_Phase_5,182,5,42,127,1281951064
73,13,23,Ticks_Phase_5,183,1,48,50,1282310972
73,13,23,Ticks_Phase_5,184,5,42,127,1282450976
73,13,23,Ticks_Phase_5,185,1,48,37,1282848544
73,13,23,Ticks_Phase_5,186,5,42,127,1282950588
73,13,23,Ticks_Phase_5,187,1,48,51,1283341800
73,13,23,Ticks_Phase_5,188,5,42,127,1283451172
73,13,23,Ticks_Phase_5,189,1,48,49,1283804268
73,13,23,Ticks_Phase_5,190,5,42,127,1283951236
73,13,23,Ticks_Phase_5,191,1,48,40,1284316388
73,13,23,Ticks_Phase_5,192,5,42,127,1284450924
73,13,23,Ticks_Phase_5,193,1,48,47,1284871940
73,13,23,Ticks_Phase_5,194,5,42,127,1284951348
73,13,23,Ticks_Phase_5,195,1,48,54,1285390104
73,13,23,Ticks_Phase_5,196,5,42,127,1285451088
73,13,23,Ticks_Phase_5,197,1,48,49,1285897196
73,13,23,Ticks_Phase_5,198,5,42,127,1285900680
73,13,23,Ticks_Phase_5,199,5,42,127,1286401344
73,13,23,Ticks_Phase_5,200,1,48,40,1286463776
73,13,23,Ticks_Phase_5,201,5,42,127,1286901108
73,13,23,Ticks_Phase_5,202,1,48,48,1286939880
73,13,23,Ticks_Phase_5,203,5,42,127,1287400944
73,13,23,Ticks_Phase_5,204,1,48,50,1287403460
73,13,23,Ticks_Phase_5,205,5,42,127,1287900632
73,13,23,Ticks_Phase_5,206,1,48,26,1287911020
73,13,23,Ticks_Phase_5,207,1,48,42,1288396160
73,13,23,Ticks_Phase_5,208,5,42,127,1288401288
73,13,23,Ticks_Phase_5,209,1,48,50,1288868288
73,13,23,Ticks_Phase_5,210,5,42,127,1288900900
73,13,23,Ticks_Phase_5,211,1,48,47,1289352484
73,13,23,Ticks_Phase_5,212,5,42,127,1289401036
73,13,23,Ticks_Phase_5,213,5,42,127,1289901408
73,13,23,Ticks_Phase_5,214,1,48,47,1289909776
73,13,23,Ticks_Phase_5,215,5,42,127,1290411504
73,13,23,Ticks_Phase_5,216,1,48,43,1290424656
73,13,23,Ticks_Phase_5,217,1,48,46,1290891236
73,13,23,Ticks_Phase_5,218,5,42,127,1290910960
73,13,23,Ticks_Phase_5,219,1,48,38,1291383504
73,13,23,Ticks_Phase_5,220,5,42,127,1291410796
73,13,23,Ticks_Phase_5,221,1,48,43,1291878172
73,13,23,Ticks_Phase_5,222,5,42,127,1291910560
73,13,23,Ticks_Phase_5,223,1,48,45,1292388192
73,13,23,Ticks_Phase_5,224,5,42,127,1292411220
73,13,23,Ticks_Phase_5,225,1,48,45,1292858664
73,13,23,Ticks_Phase_5,226,5,42,127,1292910908
73,13,23,Ticks_Phase_5,227,1,48,25,1292914532
73,13,23,Ticks_Phase_5,228,1,48,46,1293388052
73,13,23,Ticks_Phase_5,229,5,42,127,1293410728
73,13,23,Ticks_Phase_5,230,1,48,41,1293860264
73,13,23,Ticks_Phase_5,231,5,42,127,1293911512
73,13,23,Ticks_Phase_5,232,1,48,39,1294386680
73,13,23,Ticks_Phase_5,233,5,42,127,1294461248
73,13,23,Ticks_Phase_5,234,1,48,47,1294858816
73,13,23,Ticks_Phase_5,235,5,42,127,1294960996
73,13,23,Ticks_Phase_5,236,1,48,40,1295386804
73,13,23,Ticks_Phase_5,237,5,42,127,1295460848
73,13,23,Ticks_Phase_5,238,1,48,44,1295886112
73,13,23,Ticks_Phase_5,239,5,42,127,1295960364
73,13,23,Ticks_Phase_5,240,1,48,47,1296408020
73,13,23,Ticks_Phase_5,241,5,42,127,1296461076
73,13,23,Ticks_Phase_5,242,1,48,45,1296901868
73,13,23,Ticks_Phase_5,243,5,42,127,1296960912
73,13,23,Ticks_Phase_5,244,1,48,47,1297394968
73,13,23,Ticks_Phase_5,245,1,48,29,1297452164
73,13,23,Ticks_Phase_5,246,5,42,127,1297460876
73,13,23,Ticks_Phase_5,247,1,48,51,1297928788
73,13,23,Ticks_Phase_5,248,5,42,127,1297961240
73,13,23,Ticks_Phase_5,249,1,48,50,1298399496
73,13,23,Ticks_Phase_5,250,5,42,127,1298461076
73,13,23,Ticks_Phase_5,251,1,48,46,1298889000
73,13,23,Ticks_Phase_5,252,5,42,127,1298960836
73,13,23,Ticks_Phase_5,253,1,48,48,1299411000
73,13,23,Ticks_Phase_5,254,5,42,127,1299460820
73,13,23,Ticks_Phase_5,255,1,48,57,1299872492
73,13,23,Ticks_Phase_5,256,5,42,127,1299961188
73,13,23,Ticks_Phase_5,257,1,48,19,1300388272
73,13,23,Ticks_Phase_5,258,5,42,127,1300460876
73,13,23,Ticks_Phase_5,259,1,48,45,1300850828
73,13,23,Ticks_Phase_5,260,5,42,127,1300960772
73,13,23,Ticks_Phase_5,261,1,48,48,1301345716
73,13,23,Ticks_Phase_5,262,5,42,127,1301461360
73,13,23,Ticks_Phase_5,263,1,48,52,1301791316
73,13,23,Ticks_Phase_5,264,5,42,127,1301961048
73,13,23,Ticks_Phase_5,265,1,48,52,1302267628
73,13,23,Ticks_Phase_5,266,5,42,127,1302460736
73,13,23,Ticks_Phase_5,267,1,48,45,1302767696
73,13,23,Ticks_Phase_5,268,5,42,127,1303060776
73,13,23,Ticks_Phase_5,269,1,48,52,1303231068
73,13,23,Ticks_Phase_5,270,1,48,28,1303288552
73,13,23,Ticks_Phase_5,271,5,42,127,1303560492
73,13,23,Ticks_Phase_5,272,1,48,47,1303709148
73,13,23,Ticks_Phase_5,273,5,42,127,1304061228
73,13,23,Ticks_Phase_5,274,1,48,48,1304172284
73,13,23,Ticks_Phase_5,275,1,48,29,1304230380
73,13,23,Ticks_Phase_5,276,5,42,127,1304561116
73,13,23,Ticks_Phase_5,277,1,48,41,1304626084
73,13,23,Ticks_Phase_5,278,1,48,22,1304688616
73,13,23,Ticks_Phase_5,279,5,42,127,1305060632
73,13,23,Ticks_Phase_5,280,1,48,45,1305100748
73,13,23,Ticks_Phase_5,281,1,48,49,1305558272
73,13,23,Ticks_Phase_5,282,5,42,127,1305560536
73,13,23,Ticks_Phase_5,283,1,48,44,1306049412
73,13,23,Ticks_Phase_5,284,5,42,127,1306061048
73,13,23,Ticks_Phase_5,285,1,48,43,1306500796
73,13,23,Ticks_Phase_5,286,1,48,30,1306551096
73,13,23,Ticks_Phase_5,287,5,42,127,1306560864
73,13,23,Ticks_Phase_5,288,1,48,42,1307023000
73,13,23,Ticks_Phase_5,289,5,42,127,1307060700
73,13,23,Ticks_Phase_5,290,1,48,44,1307501124
73,13,23,Ticks_Phase_5,291,5,42,127,1307561584
73,13,23,Ticks_Phase_5,292,1,48,48,1307989184
73,13,23,Ticks_Phase_5,293,5,42,127,1308061124
73,13,23,Ticks_Phase_5,294,1,48,48,1308481680
73,13,23,Ticks_Phase_5,295,5,42,127,1308560664
73,13,23,Ticks_Phase_5,296,1,48,41,1308977316
73,13,23,Ticks_Phase_5,297,5,42,127,1309060500
73,13,23,Ticks_Phase_5,298,1,48,37,1309482324
73,13,23,Ticks_Phase_5,299,5,42,127,1309561308
73,13,23,Ticks_Phase_5,300,1,48,45,1309987924
73,13,23,Ticks_Phase_5,301,5,42,127,1310060848
73,13,23,Ticks_Phase_5,302,1,48,43,1310450472
73,13,23,Ticks_Phase_5,303,5,42,127,1310560668
73,13,23,Ticks_Phase_5,304,1,48,47,1310933456
73,13,23,Ticks_Phase_5,305,5,42,127,1311061528
73,13,23,Ticks_Phase_5,306,1,48,40,1311415916
73,13,23,Ticks_Phase_5,307,5,42,127,1311561140
73,13,23,Ticks_Phase_5,308,1,48,49,1311863188
73,13,23,Ticks_Phase_5,309,1,48,29,1311916704
73,13,23,Ticks_Phase_5,310,5,42,127,1312061032
73,13,23,Ticks_Phase_5,311,1,48,43,1312344580
73,13,23,Ticks_Phase_5,312,5,42,127,1312461344
73,13,23,Ticks_Phase_5,313,1,48,39,1312814288
73,13,23,Ticks_Phase_5,314,5,42,127,1312960808
73,13,23,Ticks_Phase_5,315,1,48,47,1313318908
73,13,23,Ticks_Phase_5,316,1,48,30,1313364280
73,13,23,Ticks_Phase_5,317,5,42,127,1313460548
73,13,23,Ticks_Phase_5,318,1,48,42,1313847488
73,13,23,Ticks_Phase_5,319,5,42,127,1313961508
73,13,23,Ticks_Phase_5,320,1,48,43,1314346500
73,13,23,Ticks_Phase_5,321,5,42,127,1314461120
73,13,23,Ticks_Phase_5,322,1,48,40,1314841028
73,13,23,Ticks_Phase_5,323,5,42,127,1314960736
73,13,23,Ticks_Phase_5,324,1,48,46,1315360560
73,13,23,Ticks_Phase_5,325,1,48,32,1315401648
73,13,23,Ticks_Phase_5,326,5,42,127,1315460416
73,13,23,Ticks_Phase_5,327,1,48,47,1315896468
73,13,23,Ticks_Phase_5,328,1,48,32,1315942828
73,13,23,Ticks_Phase_5,329,5,42,127,1315961500
73,13,23,Ticks_Phase_5,330,1,48,52,1316373672
73,13,23,Ticks_Phase_5,331,5,42,127,1316460968
73,13,23,Ticks_Phase_5,332,1,48,46,1316864444
73,13,23,Ticks_Phase_5,333,5,42,127,1316960656
73,13,23,Ticks_Phase_5,334,1,48,32,1317414232
73,13,23,Ticks_Phase_5,335,5,42,127,1317461516
73,13,23,Ticks_Phase_5,336,1,48,44,1317871212
73,13,23,Ticks_Phase_5,337,5,42,127,1317961032
73,13,23,Ticks_Phase_5,338,1,48,46,1318338780
73,13,23,Ticks_Phase_5,339,5,42,127,1318460704
73,13,23,Ticks_Phase_5,340,1,48,40,1318846316
73,13,23,Ticks_Phase_5,341,5,42,127,1318960540
73,13,23,Ticks_Phase_5,342,1,48,40,1319390196
73,13,23,Ticks_Phase_5,343,5,42,127,1319461512
73,13,23,Ticks_Phase_5,344,1,48,44,1319886504
73,13,23,Ticks_Phase_5,345,5,42,127,1319960904
73,13,23,Ticks_Phase_5,346,1,48,47,1320417648
73,13,23,Ticks_Phase_5,347,5,42,127,1320460520
73,13,23,Ticks_Phase_5,348,1,48,46,1320881620
73,13,23,Ticks_Phase_5,349,5,42,127,1320961552
73,13,23,Ticks_Phase_5,350,1,48,48,1321410144
73,13,23,Ticks_Phase_5,351,5,42,127,1321461388
73,13,23,Ticks_Phase_5,352,5,42,127,1321960788
73,13,23,Ticks_Phase_5,0,9999,9999,9999,1237438556
73,13,23,Ticks_Phase_5,1,9999,9999,9999,1237938268
73,13,23,Ticks_Phase_5,2,9999,9999,9999,1238439024
73,13,23,Ticks_Phase_5,3,9999,9999,9999,1238938736
73,13,23,Ticks_Phase_5,4,9999,9999,9999,1239438444
73,13,23,Ticks_Phase_5,5,9999,9999,9999,1239938152
73,13,23,Ticks_Phase_5,6,9999,9999,9999,1240438912
73,13,23,Ticks_Phase_5,7,9999,9999,9999,1240938620
73,13,23,Ticks_Phase_5,8,9999,9999,9999,1241438328
73,13,23,Ticks_Phase_5,9,9999,9999,9999,1241939040
73,13,23,Ticks_Phase_5,10,9999,9999,9999,1242438728
73,13,23,Ticks_Phase_5,11,9999,9999,9999,1242938436
73,13,23,Ticks_Phase_5,12,9999,9999,9999,1243438200
73,13,23,Ticks_Phase_5,13,9999,9999,9999,1243938912
73,13,23,Ticks_Phase_5,14,9999,9999,9999,1244438600
73,13,23,Ticks_Phase_5,15,9999,9999,9999,1244938360
73,13,23,Ticks_Phase_5,16,9999,9999,9999,1245439096
73,13,23,Ticks_Phase_5,17,9999,9999,9999,1245938784
73,13,23,Ticks_Phase_5,18,9999,9999,9999,1246438472
73,13,23,Ticks_Phase_5,19,9999,9999,9999,1246938228
73,13,23,Ticks_Phase_5,20,9999,9999,9999,1247438964
73,13,23,Ticks_Phase_5,21,9999,9999,9999,1247938652
73,13,23,Ticks_Phase_5,22,9999,9999,9999,1248438344
73,13,23,Ticks_Phase_5,23,9999,9999,9999,1248939076
73,13,23,Ticks_Phase_5,24,9999,9999,9999,1249449024
73,13,23,Ticks_Phase_5,25,9999,9999,9999,1249948788
73,13,23,Ticks_Phase_5,26,9999,9999,9999,1250448472
73,13,23,Ticks_Phase_5,27,9999,9999,9999,1250948164
73,13,23,Ticks_Phase_5,28,9999,9999,9999,1251448896
73,13,23,Ticks_Phase_5,29,9999,9999,9999,1251948648
73,13,23,Ticks_Phase_5,30,9999,9999,9999,1252438140
73,13,23,Ticks_Phase_5,31,9999,9999,9999,1252938876
73,13,23,Ticks_Phase_5,32,9999,9999,9999,1253438552
73,13,23,Ticks_Phase_5,33,9999,9999,9999,1253938292
73,13,23,Ticks_Phase_5,34,9999,9999,9999,1254439028
73,13,23,Ticks_Phase_5,35,9999,9999,9999,1254938716
73,13,23,Ticks_Phase_5,36,9999,9999,9999,1255438456
73,13,23,Ticks_Phase_5,37,9999,9999,9999,1255938128
73,13,23,Ticks_Phase_5,38,9999,9999,9999,1256438864
73,13,23,Ticks_Phase_5,39,9999,9999,9999,1256938548
73,13,23,Ticks_Phase_5,40,9999,9999,9999,1257438312
73,13,23,Ticks_Phase_5,41,9999,9999,9999,1257939048
73,13,23,Ticks_Phase_5,42,9999,9999,9999,1258438736
73,13,23,Ticks_Phase_5,43,9999,9999,9999,1258938424
73,13,23,Ticks_Phase_5,44,9999,9999,9999,1259438156
73,13,23,Ticks_Phase_5,45,9999,9999,9999,1259938876
73,13,23,Ticks_Phase_5,46,9999,9999,9999,1260438640
73,13,23,Ticks_Phase_5,47,9999,9999,9999,1260938328
73,13,23,Ticks_Phase_5,48,9999,9999,9999,1261448280
73,13,23,Ticks_Phase_5,49,9999,9999,9999,1261949016
73,13,23,Ticks_Phase_5,50,9999,9999,9999,1262448696
73,13,23,Ticks_Phase_5,51,9999,9999,9999,1262948436
73,13,23,Ticks_Phase_5,52,9999,9999,9999,1263448160
73,13,23,Ticks_Phase_5,53,9999,9999,9999,1263948892
73,13,23,Ticks_Phase_5,54,9999,9999,9999,1264448576
73,13,23,Ticks_Phase_5,55,9999,9999,9999,1264948344
73,13,23,Ticks_Phase_5,56,9999,9999,9999,1265449076
73,13,23,Ticks_Phase_5,57,9999,9999,9999,1265948764
73,13,23,Ticks_Phase_5,58,9999,9999,9999,1266448452
73,13,23,Ticks_Phase_5,59,9999,9999,9999,1266948216
73,13,23,Ticks_Phase_5,60,9999,9999,9999,1267448948
73,13,23,Ticks_Phase_5,61,9999,9999,9999,1267948640
73,13,23,Ticks_Phase_5,62,9999,9999,9999,1268448328
73,13,23,Ticks_Phase_5,63,9999,9999,9999,1268949060
73,13,23,Ticks_Phase_5,64,9999,9999,9999,1269468224
73,13,23,Ticks_Phase_5,65,9999,9999,9999,1269969016
73,13,23,Ticks_Phase_5,66,9999,9999,9999,1270468704
73,13,23,Ticks_Phase_5,67,9999,9999,9999,1270968392
73,13,23,Ticks_Phase_5,68,9999,9999,9999,1271468156
73,13,23,Ticks_Phase_5,69,9999,9999,9999,1271968888
73,13,23,Ticks_Phase_5,70,9999,9999,9999,1272468576
73,13,23,Ticks_Phase_5,71,9999,9999,9999,1272968260
73,13,23,Ticks_Phase_5,72,9999,9999,9999,1273469056
73,13,23,Ticks_Phase_5,73,9999,9999,9999,1273968744
73,13,23,Ticks_Phase_5,74,9999,9999,9999,1274468432
73,13,23,Ticks_Phase_5,75,9999,9999,9999,1274968172
73,13,23,Ticks_Phase_5,76,9999,9999,9999,1275468904
73,13,23,Ticks_Phase_5,77,9999,9999,9999,1275968588
73,13,23,Ticks_Phase_5,78,9999,9999,9999,1276468276
73,13,23,Ticks_Phase_5,79,9999,9999,9999,1276969016
73,13,23,Ticks_Phase_5,80,9999,9999,9999,1277468776
73,13,23,Ticks_Phase_5,81,9999,9999,9999,1277948992
73,13,23,Ticks_Phase_5,82,9999,9999,9999,1278448756
73,13,23,Ticks_Phase_5,83,9999,9999,9999,1278948444
73,13,23,Ticks_Phase_5,84,9999,9999,9999,1279448132
73,13,23,Ticks_Phase_5,85,9999,9999,9999,1279948924
73,13,23,Ticks_Phase_5,86,9999,9999,9999,1280448608
73,13,23,Ticks_Phase_5,87,9999,9999,9999,1280948280
73,13,23,Ticks_Phase_5,88,9999,9999,9999,1281449016
73,13,23,Ticks_Phase_5,89,9999,9999,9999,1281948776
73,13,23,Ticks_Phase_5,90,9999,9999,9999,1282448464
73,13,23,Ticks_Phase_5,91,9999,9999,9999,1282948184
73,13,23,Ticks_Phase_5,92,9999,9999,9999,1283448884
73,13,23,Ticks_Phase_5,93,9999,9999,9999,1283948648
73,13,23,Ticks_Phase_5,94,9999,9999,9999,1284448340
73,13,23,Ticks_Phase_5,95,9999,9999,9999,1284949064
73,13,23,Ticks_Phase_5,96,9999,9999,9999,1285448800
73,13,23,Ticks_Phase_5,97,9999,9999,9999,1285898316
73,13,23,Ticks_Phase_5,98,9999,9999,9999,1286399056
73,13,23,Ticks_Phase_5,99,9999,9999,9999,1286898744
73,13,23,Ticks_Phase_5,100,9999,9999,9999,1287398508
73,13,23,Ticks_Phase_5,101,9999,9999,9999,1287898196
73,13,23,Ticks_Phase_5,102,9999,9999,9999,1288398928
73,13,23,Ticks_Phase_5,103,9999,9999,9999,1288898616
73,13,23,Ticks_Phase_5,104,9999,9999,9999,1289398380
73,13,23,Ticks_Phase_5,105,9999,9999,9999,1289899120
73,13,23,Ticks_Phase_5,106,9999,9999,9999,1290409068
73,13,23,Ticks_Phase_5,107,9999,9999,9999,1290908748
73,13,23,Ticks_Phase_5,108,9999,9999,9999,1291408512
73,13,23,Ticks_Phase_5,109,9999,9999,9999,1291908200
73,13,23,Ticks_Phase_5,110,9999,9999,9999,1292408932
73,13,23,Ticks_Phase_5,111,9999,9999,9999,1292908620
73,13,23,Ticks_Phase_5,112,9999,9999,9999,1293408364
73,13,23,Ticks_Phase_5,113,9999,9999,9999,1293909076
73,13,23,Ticks_Phase_5,114,9999,9999,9999,1294458964
73,13,23,Ticks_Phase_5,115,9999,9999,9999,1294958708
73,13,23,Ticks_Phase_5,116,9999,9999,9999,1295458412
73,13,23,Ticks_Phase_5,117,9999,9999,9999,1295958076
73,13,23,Ticks_Phase_5,118,9999,9999,9999,1296458864
73,13,23,Ticks_Phase_5,119,9999,9999,9999,1296958548
73,13,23,Ticks_Phase_5,120,9999,9999,9999,1297458292
73,13,23,Ticks_Phase_5,121,9999,9999,9999,1297959028
73,13,23,Ticks_Phase_5,122,9999,9999,9999,1298458712
73,13,23,Ticks_Phase_5,123,9999,9999,9999,1298958404
73,13,23,Ticks_Phase_5,124,9999,9999,9999,1299458164
73,13,23,Ticks_Phase_5,125,9999,9999,9999,1299958900
73,13,23,Ticks_Phase_5,126,9999,9999,9999,1300458588
73,13,23,Ticks_Phase_5,127,9999,9999,9999,1300958260
73,13,23,Ticks_Phase_5,128,9999,9999,9999,1301458996
73,13,23,Ticks_Phase_5,129,9999,9999,9999,1301958760
73,13,23,Ticks_Phase_5,130,9999,9999,9999,1302458448
73,13,23,Ticks_Phase_5,131,9999,9999,9999,1303058488
73,13,23,Ticks_Phase_5,132,9999,9999,9999,1303558204
73,13,23,Ticks_Phase_5,133,9999,9999,9999,1304058936
73,13,23,Ticks_Phase_5,134,9999,9999,9999,1304558680
73,13,23,Ticks_Phase_5,135,9999,9999,9999,1305058420
73,13,23,Ticks_Phase_5,136,9999,9999,9999,1305558140
73,13,23,Ticks_Phase_5,137,9999,9999,9999,1306058836
73,13,23,Ticks_Phase_5,138,9999,9999,9999,1306558576
73,13,23,Ticks_Phase_5,139,9999,9999,9999,1307058264
73,13,23,Ticks_Phase_5,140,9999,9999,9999,1307559000
73,13,23,Ticks_Phase_5,141,9999,9999,9999,1308058688
73,13,23,Ticks_Phase_5,142,9999,9999,9999,1308558452
73,13,23,Ticks_Phase_5,143,9999,9999,9999,1309058136
73,13,23,Ticks_Phase_5,144,9999,9999,9999,1309558872
73,13,23,Ticks_Phase_5,145,9999,9999,9999,1310058560
73,13,23,Ticks_Phase_5,146,9999,9999,9999,1310558308
73,13,23,Ticks_Phase_5,147,9999,9999,9999,1311059016
73,13,23,Ticks_Phase_5,148,9999,9999,9999,1311558780
73,13,23,Ticks_Phase_5,149,9999,9999,9999,1312058444
73,13,23,Ticks_Phase_5,150,9999,9999,9999,1312458832
73,13,23,Ticks_Phase_5,151,9999,9999,9999,1312958520
73,13,23,Ticks_Phase_5,152,9999,9999,9999,1313458264
73,13,23,Ticks_Phase_5,153,9999,9999,9999,1313959000
73,13,23,Ticks_Phase_5,154,9999,9999,9999,1314458688
73,13,23,Ticks_Phase_5,155,9999,9999,9999,1314958448
73,13,23,Ticks_Phase_5,156,9999,9999,9999,1315458128
73,13,23,Ticks_Phase_5,157,9999,9999,9999,1315958844
73,13,23,Ticks_Phase_5,158,9999,9999,9999,1316458608
73,13,23,Ticks_Phase_5,159,9999,9999,9999,1316958296
73,13,23,Ticks_Phase_5,160,9999,9999,9999,1317459004
73,13,23,Ticks_Phase_5,161,9999,9999,9999,1317958744
73,13,23,Ticks_Phase_5,162,9999,9999,9999,1318458492
73,13,23,Ticks_Phase_5,163,9999,9999,9999,1318958180
73,13,23,Ticks_Phase_5,164,9999,9999,9999,1319458928
73,13,23,Ticks_Phase_5,165,9999,9999,9999,1319958616
73,13,23,Ticks_Phase_5,166,9999,9999,9999,1320458308
73,13,23,Ticks_Phase_5,167,9999,9999,9999,1320959040
73,13,23,Ticks_Phase_5,168,9999,9999,9999,1321458804
73,13,23,Ticks_Phase_5,169,9999,9999,9999,1321958500
73,14,25,Jits_Pract_5,0,5,56,103,1365404104
73,14,25,Jits_Pract_5,1,5,63,98,1365407204
73,14,25,Jits_Pract_5,2,5,80,127,1365410472
73,14,25,Jits_Pract_5,0,5,56,103,1365903828
73,14,25,Jits_Pract_5,1,5,63,98,1365906852
73,14,25,Jits_Pract_5,2,5,80,127,1365909900
73,14,25,Jits_Pract_5,0,5,56,103,1366403424
73,14,25,Jits_Pract_5,1,5,80,127,1366413620
73,14,25,Jits_Pract_5,2,5,63,98,1366434448
73,14,25,Jits_Pract_5,0,5,63,98,1366853992
73,14,25,Jits_Pract_5,1,5,80,127,1366883840
73,14,25,Jits_Pract_5,2,5,56,103,1366894112
73,14,25,Jits_Pract_5,0,5,80,127,1367414204
73,14,25,Jits_Pract_5,1,5,56,103,1367424400
73,14,25,Jits_Pract_5,2,5,63,98,1367454296
73,14,25,Jits_Pract_5,0,5,63,98,1367903688
73,14,25,Jits_Pract_5,1,5,56,103,1367934484
73,14,25,Jits_Pract_5,2,5,80,127,1367943632
73,14,25,Jits_Pract_5,0,5,56,103,1368354172
73,14,25,Jits_Pract_5,1,5,63,98,1368404376
73,14,25,Jits_Pract_5,2,5,80,127,1368423784
73,14,25,Jits_Pract_5,0,5,80,127,1368853812
73,14,25,Jits_Pract_5,1,5,63,98,1368904016
73,14,25,Jits_Pract_5,2,5,56,103,1368944276
73,14,25,Jits_Pract_5,0,5,56,103,1369353556
73,14,25,Jits_Pract_5,1,5,63,98,1369384428
73,14,25,Jits_Pract_5,2,5,80,127,1369454056
73,14,25,Jits_Pract_5,0,5,56,103,1369854420
73,14,25,Jits_Pract_5,1,5,80,127,1369913840
73,14,25,Jits_Pract_5,2,5,63,98,1369944516
73,14,25,Jits_Pract_5,0,5,56,103,1370364356
73,14,25,Jits_Pract_5,1,5,63,98,1370373432
73,14,25,Jits_Pract_5,2,5,80,127,1370413372
73,14,25,Jits_Pract_5,0,5,63,98,1370853760
73,14,25,Jits_Pract_5,1,5,80,127,1370933556
73,14,25,Jits_Pract_5,2,5,56,103,1370943976
73,14,25,Jits_Pract_5,0,5,63,98,1371403760
73,14,25,Jits_Pract_5,1,5,56,103,1371443472
73,14,25,Jits_Pract_5,2,5,80,127,1371446840
73,14,25,Jits_Pract_5,0,5,56,103,1371864376
73,14,25,Jits_Pract_5,1,5,63,98,1371873524
73,14,25,Jits_Pract_5,2,5,80,127,1371913684
73,14,25,Jits_Pract_5,0,5,56,103,1372353924
73,14,25,Jits_Pract_5,1,5,63,98,1372357068
73,14,25,Jits_Pract_5,2,5,80,127,1372374236
73,14,25,Jits_Pract_5,0,9999,9999,9999,1365651544
73,14,25,Jits_Pract_5,1,9999,9999,9999,1366151268
73,14,25,Jits_Pract_5,2,9999,9999,9999,1366651984
73,14,25,Jits_Pract_5,3,9999,9999,9999,1367151724
73,14,25,Jits_Pract_5,4,9999,9999,9999,1367651384
73,14,25,Jits_Pract_5,5,9999,9999,9999,1368151132
73,14,25,Jits_Pract_5,6,9999,9999,9999,1368651856
73,14,25,Jits_Pract_5,7,9999,9999,9999,1369151600
73,14,25,Jits_Pract_5,8,9999,9999,9999,1369651268
73,14,25,Jits_Pract_5,9,9999,9999,9999,1370151988
73,14,25,Jits_Pract_5,10,9999,9999,9999,1370651728
73,14,25,Jits_Pract_5,11,9999,9999,9999,1371151472
73,14,25,Jits_Pract_5,12,9999,9999,9999,1371651124
73,14,25,Jits_Pract_5,13,9999,9999,9999,1372151892
73,14,25,Jits_Pract_5,14,9999,9999,9999,1372651624
73,15,24,Jits_Pract_8,0,5,56,103,1424260548
73,15,24,Jits_Pract_8,1,5,63,98,1424263492
73,15,24,Jits_Pract_8,2,5,80,127,1424266544
73,15,24,Jits_Pract_8,0,5,56,103,1425061160
73,15,24,Jits_Pract_8,1,5,63,98,1425064408
73,15,24,Jits_Pract_8,2,5,80,127,1425067452
73,15,24,Jits_Pract_8,0,5,80,127,1425800652
73,15,24,Jits_Pract_8,1,5,63,98,1425890640
73,15,24,Jits_Pract_8,2,5,56,103,1425900984
73,15,24,Jits_Pract_8,0,5,56,103,1426620692
73,15,24,Jits_Pract_8,1,5,63,98,1426631036
73,15,24,Jits_Pract_8,2,5,80,127,1426721092
73,15,24,Jits_Pract_8,0,5,63,98,1427390980
73,15,24,Jits_Pract_8,1,5,80,127,1427420432
73,15,24,Jits_Pract_8,2,5,56,103,1427451300
73,15,24,Jits_Pract_8,3,1,48,31,1427465952
73,15,24,Jits_Pract_8,0,5,56,103,1428190580
73,15,24,Jits_Pract_8,1,1,48,40,1428245384
73,15,24,Jits_Pract_8,2,5,80,127,1428291196
73,15,24,Jits_Pract_8,3,5,63,98,1428341032
73,15,24,Jits_Pract_8,0,5,56,103,1428991324
73,15,24,Jits_Pract_8,1,5,80,127,1429040556
73,15,24,Jits_Pract_8,2,1,48,49,1429064200
73,15,24,Jits_Pract_8,3,5,63,98,1429080436
73,15,24,Jits_Pract_8,0,5,80,127,1429820916
73,15,24,Jits_Pract_8,1,5,63,98,1429850540
73,15,24,Jits_Pract_8,2,1,48,45,1429876500
73,15,24,Jits_Pract_8,3,5,56,103,1429921336
73,15,24,Jits_Pract_8,0,5,63,98,1430651204
73,15,24,Jits_Pract_8,1,5,56,103,1430681180
73,15,24,Jits_Pract_8,2,1,48,41,1430704676
73,15,24,Jits_Pract_8,3,5,80,127,1430741340
73,15,24,Jits_Pract_8,0,5,56,103,1431390580
73,15,24,Jits_Pract_8,1,5,80,127,1431393644
73,15,24,Jits_Pract_8,2,1,48,47,1431494604
73,15,24,Jits_Pract_8,3,5,63,98,1431511340
73,15,24,Jits_Pract_8,0,1,48,46,1432254432
73,15,24,Jits_Pract_8,1,5,56,103,1432271172
73,15,24,Jits_Pract_8,2,5,80,127,1432311184
73,15,24,Jits_Pract_8,3,5,63,98,1432321380
73,15,24,Jits_Pract_8,0,5,56,103,1433031008
73,15,24,Jits_Pract_8,1,5,80,127,1433050344
73,15,24,Jits_Pract_8,2,1,48,40,1433073988
73,15,24,Jits_Pract_8,3,5,63,98,1433131400
73,15,24,Jits_Pract_8,4,1,48,22,1433147984
73,15,24,Jits_Pract_8,0,5,80,127,1433820472
73,15,24,Jits_Pract_8,1,1,48,38,1433879864
73,15,24,Jits_Pract_8,2,5,56,103,1433921088
73,15,24,Jits_Pract_8,3,5,63,98,1433931136
73,15,24,Jits_Pract_8,4,1,48,18,1433958152
73,15,24,Jits_Pract_8,0,5,63,98,1434590532
73,15,24,Jits_Pract_8,1,5,80,127,1434651000
73,15,24,Jits_Pract_8,2,5,56,103,1434661344
73,15,24,Jits_Pract_8,3,1,48,37,1434737000
73,15,24,Jits_Pract_8,0,5,56,103,1435391332
73,15,24,Jits_Pract_8,1,5,63,98,1435460860
73,15,24,Jits_Pract_8,2,5,80,127,1435464228
73,15,24,Jits_Pract_8,3,1,48,43,1435506856
73,15,24,Jits_Pract_8,0,9999,9999,9999,1424658552
73,15,24,Jits_Pract_8,1,9999,9999,9999,1425458268
73,15,24,Jits_Pract_8,2,9999,9999,9999,1426259000
73,15,24,Jits_Pract_8,3,9999,9999,9999,1427058808
73,15,24,Jits_Pract_8,4,9999,9999,9999,1427858516
73,15,24,Jits_Pract_8,5,9999,9999,9999,1428658272
73,15,24,Jits_Pract_8,6,9999,9999,9999,1429459012
73,15,24,Jits_Pract_8,7,9999,9999,9999,1430258788
73,15,24,Jits_Pract_8,8,9999,9999,9999,1431058488
73,15,24,Jits_Pract_8,9,9999,9999,9999,1431858232
73,15,24,Jits_Pract_8,10,9999,9999,9999,1432659008
73,15,24,Jits_Pract_8,11,9999,9999,9999,1433458740
73,15,24,Jits_Pract_8,12,9999,9999,9999,1434258552
73,15,24,Jits_Pract_8,13,9999,9999,9999,1435058296
73,15,24,Jits_Pract_8,14,9999,9999,9999,1435859012
73,16,25,Jits_Pract_5,0,5,56,103,1445510708
73,16,25,Jits_Pract_5,1,5,63,98,1445513732
73,16,25,Jits_Pract_5,2,5,80,127,1445516852
73,16,25,Jits_Pract_5,0,5,56,103,1446011180
73,16,25,Jits_Pract_5,1,5,63,98,1446014204
73,16,25,Jits_Pract_5,2,5,80,127,1446017400
73,16,25,Jits_Pract_5,0,5,56,103,1446510920
73,16,25,Jits_Pract_5,1,5,80,127,1446521416
73,16,25,Jits_Pract_5,2,5,63,98,1446540680
73,16,25,Jits_Pract_5,0,5,63,98,1446960816
73,16,25,Jits_Pract_5,1,5,80,127,1446991092
73,16,25,Jits_Pract_5,2,5,56,103,1447000712
73,16,25,Jits_Pract_5,0,5,80,127,1447520804
73,16,25,Jits_Pract_5,1,5,56,103,1447531000
73,16,25,Jits_Pract_5,2,5,63,98,1447560752
73,16,25,Jits_Pract_5,3,1,48,24,1447597204
73,16,25,Jits_Pract_5,0,5,63,98,1448011200
73,16,25,Jits_Pract_5,1,5,56,103,1448040828
73,16,25,Jits_Pract_5,2,1,48,32,1448049352
73,16,25,Jits_Pract_5,3,5,80,127,1448051016
73,16,25,Jits_Pract_5,0,5,56,103,1448460844
73,16,25,Jits_Pract_5,1,5,63,98,1448510900
73,16,25,Jits_Pract_5,2,1,48,30,1448517832
73,16,25,Jits_Pract_5,3,5,80,127,1448531448
73,16,25,Jits_Pract_5,0,5,80,127,1448961520
73,16,25,Jits_Pract_5,1,1,48,38,1448980828
73,16,25,Jits_Pract_5,2,5,63,98,1449010816
73,16,25,Jits_Pract_5,3,5,56,103,1449050556
73,16,25,Jits_Pract_5,0,1,48,38,1449466952
73,16,25,Jits_Pract_5,1,5,56,103,1449471256
73,16,25,Jits_Pract_5,2,5,63,98,1449501080
73,16,25,Jits_Pract_5,3,5,80,127,1449570772
73,16,25,Jits_Pract_5,0,5,56,103,1449971032
73,16,25,Jits_Pract_5,1,1,48,32,1449985460
73,16,25,Jits_Pract_5,2,5,80,127,1450030740
73,16,25,Jits_Pract_5,3,5,63,98,1450061088
73,16,25,Jits_Pract_5,0,1,48,37,1450407684
73,16,25,Jits_Pract_5,1,5,56,103,1450480920
73,16,25,Jits_Pract_5,2,5,63,98,1450491116
73,16,25,Jits_Pract_5,3,5,80,127,1450531188
73,16,25,Jits_Pract_5,0,1,48,35,1450936372
73,16,25,Jits_Pract_5,1,5,63,98,1450970720
73,16,25,Jits_Pract_5,2,5,80,127,1451051324
73,16,25,Jits_Pract_5,3,5,56,103,1451060700
73,16,25,Jits_Pract_5,0,1,48,30,1451440792
73,16,25,Jits_Pract_5,1,5,63,98,1451521508
73,16,25,Jits_Pract_5,2,5,56,103,1451561284
73,16,25,Jits_Pract_5,3,5,80,127,1451564496
73,16,25,Jits_Pract_5,0,1,48,37,1451936648
73,16,25,Jits_Pract_5,1,5,56,103,1451981040
73,16,25,Jits_Pract_5,2,5,63,98,1451991756
73,16,25,Jits_Pract_5,3,5,80,127,1452031320
73,16,25,Jits_Pract_5,0,5,56,103,1452470692
73,16,25,Jits_Pract_5,1,1,48,43,1452471672
73,16,25,Jits_Pract_5,2,5,63,98,1452474796
73,16,25,Jits_Pract_5,3,5,80,127,1452491068
73,16,25,Jits_Pract_5,4,1,48,25,1452525932
73,16,25,Jits_Pract_5,0,9999,9999,9999,1445759040
73,16,25,Jits_Pract_5,1,9999,9999,9999,1446258768
73,16,25,Jits_Pract_5,2,9999,9999,9999,1446758512
73,16,25,Jits_Pract_5,3,9999,9999,9999,1447258176
73,16,25,Jits_Pract_5,4,9999,9999,9999,1447758912
73,16,25,Jits_Pract_5,5,9999,9999,9999,1448258620
73,16,25,Jits_Pract_5,6,9999,9999,9999,1448758384
73,16,25,Jits_Pract_5,7,9999,9999,9999,1449259060
73,16,25,Jits_Pract_5,8,9999,9999,9999,1449769028
73,16,25,Jits_Pract_5,9,9999,9999,9999,1450268796
73,16,25,Jits_Pract_5,10,9999,9999,9999,1450768504
73,16,25,Jits_Pract_5,11,9999,9999,9999,1451268196
73,16,25,Jits_Pract_5,12,9999,9999,9999,1451768928
73,16,25,Jits_Pract_5,13,9999,9999,9999,1452268616
73,16,25,Jits_Pract_5,14,9999,9999,9999,1452768344
73,17,7,Jits_ISO_8,0,5,56,103,1481773344
73,17,7,Jits_ISO_8,1,5,63,98,1481776440
73,17,7,Jits_ISO_8,2,5,80,127,1481779640
73,17,7,Jits_ISO_8,0,5,56,103,1482574164
73,17,7,Jits_ISO_8,1,5,63,98,1482577184
73,17,7,Jits_ISO_8,2,5,80,127,1482580460
73,17,7,Jits_ISO_8,0,5,80,127,1483313468
73,17,7,Jits_ISO_8,1,5,63,98,1483403780
73,17,7,Jits_ISO_8,2,5,56,103,1483414124
73,17,7,Jits_ISO_8,0,5,56,103,1484133744
73,17,7,Jits_ISO_8,1,5,63,98,1484143940
73,17,7,Jits_ISO_8,2,5,80,127,1484234072
73,17,7,Jits_ISO_8,0,5,63,98,1484903868
73,17,7,Jits_ISO_8,1,5,80,127,1484933472
73,17,7,Jits_ISO_8,2,5,56,103,1484964340
73,17,7,Jits_ISO_8,0,5,56,103,1485703568
73,17,7,Jits_ISO_8,1,5,80,127,1485804116
73,17,7,Jits_ISO_8,2,5,63,98,1485854020
73,17,7,Jits_ISO_8,0,5,56,103,1486504260
73,17,7,Jits_ISO_8,1,5,80,127,1486553492
73,17,7,Jits_ISO_8,2,1,48,16,1486593196
73,17,7,Jits_ISO_8,3,5,63,98,1486594544
73,17,7,Jits_ISO_8,0,1,48,45,1487330540
73,17,7,Jits_ISO_8,1,5,80,127,1487333868
73,17,7,Jits_ISO_8,2,5,63,98,1487363468
73,17,7,Jits_ISO_8,3,5,56,103,1487434032
73,17,7,Jits_ISO_8,0,5,63,98,1488164156
73,17,7,Jits_ISO_8,1,1,48,44,1488167052
73,17,7,Jits_ISO_8,2,5,56,103,1488193976
73,17,7,Jits_ISO_8,3,5,80,127,1488254388
73,17,7,Jits_ISO_8,0,5,56,103,1488903480
73,17,7,Jits_ISO_8,1,5,80,127,1488906692
73,17,7,Jits_ISO_8,2,1,48,42,1488971612
73,17,7,Jits_ISO_8,3,5,63,98,1489024344
73,17,7,Jits_ISO_8,0,5,56,103,1489784204
73,17,7,Jits_ISO_8,1,1,48,43,1489791068
73,17,7,Jits_ISO_8,2,5,80,127,1489824064
73,17,7,Jits_ISO_8,3,5,63,98,1489834336
73,17,7,Jits_ISO_8,0,5,56,103,1490543928
73,17,7,Jits_ISO_8,1,5,80,127,1490563340
73,17,7,Jits_ISO_8,2,1,48,48,1490566008
73,17,7,Jits_ISO_8,3,5,63,98,1490644324
73,17,7,Jits_ISO_8,0,5,80,127,1491333464
73,17,7,Jits_ISO_8,1,1,48,46,1491403640
73,17,7,Jits_ISO_8,2,5,56,103,1491433932
73,17,7,Jits_ISO_8,3,5,63,98,1491444056
73,17,7,Jits_ISO_8,0,5,63,98,1492103672
73,17,7,Jits_ISO_8,1,5,80,127,1492163992
73,17,7,Jits_ISO_8,2,5,56,103,1492174336
73,17,7,Jits_ISO_8,3,1,48,55,1492225628
73,17,7,Jits_ISO_8,0,5,56,103,1492904352
73,17,7,Jits_ISO_8,1,5,63,98,1492974032
73,17,7,Jits_ISO_8,2,5,80,127,1492977248
73,17,7,Jits_ISO_8,3,1,48,51,1492994536
73,17,7,Jits_ISO_8,0,5,63,98,1493733880
73,17,7,Jits_ISO_8,1,5,56,103,1493784008
73,17,7,Jits_ISO_8,2,5,80,127,1493787076
73,17,7,Jits_ISO_8,3,1,48,40,1493823240
73,17,7,Jits_ISO_8,0,5,56,103,1494493792
73,17,7,Jits_ISO_8,1,5,80,127,1494496860
73,17,7,Jits_ISO_8,2,5,63,98,1494583776
73,17,7,Jits_ISO_8,3,1,48,48,1494614788
73,17,7,Jits_ISO_8,0,5,63,98,1495334112
73,17,7,Jits_ISO_8,1,5,56,103,1495424348
73,17,7,Jits_ISO_8,2,5,80,127,1495454020
73,17,7,Jits_ISO_8,3,1,48,40,1495483740
73,17,7,Jits_ISO_8,0,5,56,103,1496123932
73,17,7,Jits_ISO_8,1,5,63,98,1496224060
73,17,7,Jits_ISO_8,2,5,80,127,1496253884
73,17,7,Jits_ISO_8,3,1,48,48,1496279552
73,17,7,Jits_ISO_8,0,5,63,98,1496944068
73,17,7,Jits_ISO_8,1,5,56,103,1496954112
73,17,7,Jits_ISO_8,2,5,80,127,1497044396
73,17,7,Jits_ISO_8,3,1,48,52,1497046408
73,17,7,Jits_ISO_8,0,5,63,98,1497764156
73,17,7,Jits_ISO_8,1,5,56,103,1497844100
73,17,7,Jits_ISO_8,2,5,80,127,1497847020
73,17,7,Jits_ISO_8,3,1,48,40,1497876964
73,17,7,Jits_ISO_8,0,5,80,127,1498523928
73,17,7,Jits_ISO_8,1,5,63,98,1498543488
73,17,7,Jits_ISO_8,2,5,56,103,1498603880
73,17,7,Jits_ISO_8,3,1,48,28,1498692408
73,17,7,Jits_ISO_8,0,5,56,103,1499363660
73,17,7,Jits_ISO_8,1,5,63,98,1499384116
73,17,7,Jits_ISO_8,2,5,80,127,1499387628
73,17,7,Jits_ISO_8,3,1,48,41,1499477828
73,17,7,Jits_ISO_8,0,5,63,98,1500104032
73,17,7,Jits_ISO_8,1,5,80,127,1500183980
73,17,7,Jits_ISO_8,2,5,56,103,1500194028
73,17,7,Jits_ISO_8,3,1,48,32,1500286616
73,17,7,Jits_ISO_8,0,5,63,98,1500924268
73,17,7,Jits_ISO_8,1,5,56,103,1500943904
73,17,7,Jits_ISO_8,2,5,80,127,1500993884
73,17,7,Jits_ISO_8,3,1,48,39,1501004572
73,17,7,Jits_ISO_8,0,1,48,40,1501702744
73,17,7,Jits_ISO_8,1,5,80,127,1501724044
73,17,7,Jits_ISO_8,2,5,63,98,1501763984
73,17,7,Jits_ISO_8,3,5,56,103,1501784692
73,17,7,Jits_ISO_8,0,1,48,48,1502447820
73,17,7,Jits_ISO_8,1,5,56,103,1502563768
73,17,7,Jits_ISO_8,2,5,63,98,1502573888
73,17,7,Jits_ISO_8,3,5,80,127,1502594348
73,17,7,Jits_ISO_8,0,1,48,51,1503273016
73,17,7,Jits_ISO_8,1,5,56,103,1503293788
73,17,7,Jits_ISO_8,2,5,63,98,1503383860
73,17,7,Jits_ISO_8,3,5,80,127,1503444324
73,17,7,Jits_ISO_8,0,1,48,57,1504095372
73,17,7,Jits_ISO_8,1,5,80,127,1504124240
73,17,7,Jits_ISO_8,2,5,56,103,1504133760
73,17,7,Jits_ISO_8,3,5,63,98,1504204028
73,17,7,Jits_ISO_8,0,5,63,98,1504953772
73,17,7,Jits_ISO_8,1,1,48,46,1504956444
73,17,7,Jits_ISO_8,2,5,80,127,1505043828
73,17,7,Jits_ISO_8,3,5,56,103,1505054084
73,17,7,Jits_ISO_8,0,5,63,98,1505694000
73,17,7,Jits_ISO_8,1,5,80,127,1505744352
73,17,7,Jits_ISO_8,2,1,48,59,1505761028
73,17,7,Jits_ISO_8,3,5,56,103,1505803616
73,17,7,Jits_ISO_8,4,1,48,27,1505825672
73,17,7,Jits_ISO_8,0,5,56,103,1506523672
73,17,7,Jits_ISO_8,1,5,80,127,1506573804
73,17,7,Jits_ISO_8,2,1,48,43,1506583444
73,17,7,Jits_ISO_8,3,5,63,98,1506594180
73,17,7,Jits_ISO_8,0,5,56,103,1507293508
73,17,7,Jits_ISO_8,1,5,80,127,1507353900
73,17,7,Jits_ISO_8,2,1,48,51,1507374328
73,17,7,Jits_ISO_8,3,5,63,98,1507423596
73,17,7,Jits_ISO_8,0,5,56,103,1508094424
73,17,7,Jits_ISO_8,1,5,80,127,1508123952
73,17,7,Jits_ISO_8,2,1,48,48,1508148944
73,17,7,Jits_ISO_8,3,5,63,98,1508153696
73,17,7,Jits_ISO_8,0,5,56,103,1508934004
73,17,7,Jits_ISO_8,1,1,48,40,1508947780
73,17,7,Jits_ISO_8,2,5,80,127,1508953804
73,17,7,Jits_ISO_8,3,5,63,98,1509013748
73,17,7,Jits_ISO_8,0,1,48,46,1509744284
73,17,7,Jits_ISO_8,1,5,80,127,1509813540
73,17,7,Jits_ISO_8,2,5,56,103,1509823736
73,17,7,Jits_ISO_8,3,5,63,98,1509834008
73,17,7,Jits_ISO_8,0,5,56,103,1510573552
73,17,7,Jits_ISO_8,1,1,48,44,1510595104
73,17,7,Jits_ISO_8,2,5,80,127,1510614532
73,17,7,Jits_ISO_8,3,5,63,98,1510644060
73,17,7,Jits_ISO_8,0,1,48,32,1511312644
73,17,7,Jits_ISO_8,1,5,56,103,1511343680
73,17,7,Jits_ISO_8,2,5,63,98,1511374180
73,17,7,Jits_ISO_8,3,5,80,127,1511414104
73,17,7,Jits_ISO_8,0,1,48,46,1512041536
73,17,7,Jits_ISO_8,1,5,80,127,1512094016
73,17,7,Jits_ISO_8,2,1,48,29,1512105140
73,17,7,Jits_ISO_8,3,5,63,98,1512144424
73,17,7,Jits_ISO_8,4,5,56,103,1512163760
73,17,7,Jits_ISO_8,0,1,48,44,1512858544
73,17,7,Jits_ISO_8,1,5,56,103,1512923464
73,17,7,Jits_ISO_8,2,1,48,18,1512941936
73,17,7,Jits_ISO_8,3,5,80,127,1512994100
73,17,7,Jits_ISO_8,4,5,63,98,1513053576
73,17,7,Jits_ISO_8,0,1,48,35,1513657936
73,17,7,Jits_ISO_8,1,5,80,127,1513724348
73,17,7,Jits_ISO_8,2,5,63,98,1513814644
73,17,7,Jits_ISO_8,3,5,56,103,1513833832
73,17,7,Jits_ISO_8,0,1,48,55,1514467012
73,17,7,Jits_ISO_8,1,5,63,98,1514543540
73,17,7,Jits_ISO_8,2,5,56,103,1514563912
73,17,7,Jits_ISO_8,3,5,80,127,1514604024
73,17,7,Jits_ISO_8,0,1,48,44,1515289420
73,17,7,Jits_ISO_8,1,5,80,127,1515304588
73,17,7,Jits_ISO_8,2,5,63,98,1515323700
73,17,7,Jits_ISO_8,3,5,56,103,1515403584
73,17,7,Jits_ISO_8,0,5,63,98,1516093668
73,17,7,Jits_ISO_8,1,1,48,49,1516147528
73,17,7,Jits_ISO_8,2,5,56,103,1516204496
73,17,7,Jits_ISO_8,3,5,80,127,1516207636
73,17,7,Jits_ISO_8,0,1,48,56,1516893360
73,17,7,Jits_ISO_8,1,5,63,98,1516914208
73,17,7,Jits_ISO_8,2,5,56,103,1516924552
73,17,7,Jits_ISO_8,3,5,80,127,1516927692
73,17,7,Jits_ISO_8,0,1,48,22,1517681348
73,17,7,Jits_ISO_8,1,5,56,103,1517694568
73,17,7,Jits_ISO_8,2,5,80,127,1517813988
73,17,7,Jits_ISO_8,3,5,63,98,1517853928
73,17,7,Jits_ISO_8,0,1,48,45,1518450196
73,17,7,Jits_ISO_8,1,5,56,103,1518513392
73,17,7,Jits_ISO_8,2,5,80,127,1518594372
73,17,7,Jits_ISO_8,3,5,63,98,1518613856
73,17,7,Jits_ISO_8,0,1,48,51,1519244216
73,17,7,Jits_ISO_8,1,5,56,103,1519314448
73,17,7,Jits_ISO_8,2,1,48,21,1519324228
73,17,7,Jits_ISO_8,3,5,63,98,1519423800
73,17,7,Jits_ISO_8,4,5,80,127,1519427016
73,17,7,Jits_ISO_8,0,1,48,45,1520097784
73,17,7,Jits_ISO_8,1,5,56,103,1520143744
73,17,7,Jits_ISO_8,2,5,80,127,1520173420
73,17,7,Jits_ISO_8,3,5,63,98,1520193864
73,17,7,Jits_ISO_8,0,1,48,44,1520911520
73,17,7,Jits_ISO_8,1,5,63,98,1520923896
73,17,7,Jits_ISO_8,2,5,56,103,1520934464
73,17,7,Jits_ISO_8,3,5,80,127,1520943540
73,17,7,Jits_ISO_8,0,5,80,127,1521713640
73,17,7,Jits_ISO_8,1,5,56,103,1521763648
73,17,7,Jits_ISO_8,2,1,48,53,1521768336
73,17,7,Jits_ISO_8,3,5,63,98,1521803580
73,17,7,Jits_ISO_8,0,5,80,127,1522533620
73,17,7,Jits_ISO_8,1,5,63,98,1522554300
73,17,7,Jits_ISO_8,2,1,48,51,1522584920
73,17,7,Jits_ISO_8,3,5,56,103,1522604348
73,17,7,Jits_ISO_8,0,1,48,50,1523336976
73,17,7,Jits_ISO_8,1,5,80,127,1523343676
73,17,7,Jits_ISO_8,2,5,56,103,1523373276
73,17,7,Jits_ISO_8,3,5,63,98,1523444584
73,17,7,Jits_ISO_8,0,1,48,52,1524160056
73,17,7,Jits_ISO_8,1,5,56,103,1524193732
73,17,7,Jits_ISO_8,2,5,80,127,1524204004
73,17,7,Jits_ISO_8,3,5,63,98,1524243868
73,17,7,Jits_ISO_8,0,5,56,103,1524904292
73,17,7,Jits_ISO_8,1,5,63,98,1524923704
73,17,7,Jits_ISO_8,2,5,80,127,1524994356
73,17,7,Jits_ISO_8,3,1,48,47,1525001680
73,17,7,Jits_ISO_8,0,5,63,98,1525723640
73,17,7,Jits_ISO_8,1,5,80,127,1525783808
73,17,7,Jits_ISO_8,2,1,48,43,1525799960
73,17,7,Jits_ISO_8,3,5,56,103,1525804484
73,17,7,Jits_ISO_8,0,5,80,127,1526514280
73,17,7,Jits_ISO_8,1,5,56,103,1526543736
73,17,7,Jits_ISO_8,2,1,48,51,1526567980
73,17,7,Jits_ISO_8,3,5,63,98,1526573328
73,17,7,Jits_ISO_8,4,1,48,29,1526656764
73,17,7,Jits_ISO_8,0,5,56,103,1527313704
73,17,7,Jits_ISO_8,1,5,63,98,1527374120
73,17,7,Jits_ISO_8,2,1,48,45,1527385112
73,17,7,Jits_ISO_8,3,5,80,127,1527433604
73,17,7,Jits_ISO_8,0,5,80,127,1528134252
73,17,7,Jits_ISO_8,1,5,56,103,1528153468
73,17,7,Jits_ISO_8,2,1,48,42,1528205132
73,17,7,Jits_ISO_8,3,5,63,98,1528224040
73,17,7,Jits_ISO_8,0,5,80,127,1528933704
73,17,7,Jits_ISO_8,1,5,63,98,1528954388
73,17,7,Jits_ISO_8,2,5,56,103,1528983840
73,17,7,Jits_ISO_8,3,1,48,27,1529006060
73,17,7,Jits_ISO_8,0,5,80,127,1529724136
73,17,7,Jits_ISO_8,1,5,63,98,1529743848
73,17,7,Jits_ISO_8,2,1,48,43,1529765252
73,17,7,Jits_ISO_8,3,5,56,103,1529804156
73,17,7,Jits_ISO_8,0,1,48,43,1530519924
73,17,7,Jits_ISO_8,1,5,80,127,1530524300
73,17,7,Jits_ISO_8,2,5,56,103,1530624460
73,17,7,Jits_ISO_8,3,5,63,98,1530654284
73,17,7,Jits_ISO_8,0,5,63,98,1531313460
73,17,7,Jits_ISO_8,1,1,48,48,1531315472
73,17,7,Jits_ISO_8,2,5,80,127,1531363808
73,17,7,Jits_ISO_8,3,5,56,103,1531384264
73,17,7,Jits_ISO_8,4,1,48,17,1531411652
73,17,7,Jits_ISO_8,0,1,48,47,1532112240
73,17,7,Jits_ISO_8,1,5,80,127,1532154216
73,17,7,Jits_ISO_8,2,5,56,103,1532183892
73,17,7,Jits_ISO_8,3,5,63,98,1532186956
73,17,7,Jits_ISO_8,0,1,48,55,1532918972
73,17,7,Jits_ISO_8,1,5,63,98,1532983664
73,17,7,Jits_ISO_8,2,5,56,103,1533023612
73,17,7,Jits_ISO_8,3,5,80,127,1533044220
73,17,7,Jits_ISO_8,0,1,48,40,1533712328
73,17,7,Jits_ISO_8,1,5,80,127,1533724188
73,17,7,Jits_ISO_8,2,5,63,98,1533804072
73,17,7,Jits_ISO_8,3,5,56,103,1533843712
73,17,7,Jits_ISO_8,0,1,48,38,1534541048
73,17,7,Jits_ISO_8,1,5,63,98,1534544228
73,17,7,Jits_ISO_8,2,5,80,127,1534624252
73,17,7,Jits_ISO_8,3,5,56,103,1534643500
73,17,7,Jits_ISO_8,0,1,48,42,1535341064
73,17,7,Jits_ISO_8,1,5,56,103,1535383880
73,17,7,Jits_ISO_8,2,5,63,98,1535394300
73,17,7,Jits_ISO_8,3,5,80,127,1535434088
73,17,7,Jits_ISO_8,0,5,56,103,1536103884
73,17,7,Jits_ISO_8,1,5,80,127,1536106800
73,17,7,Jits_ISO_8,2,1,48,62,1536141308
73,17,7,Jits_ISO_8,3,5,63,98,1536243968
73,17,7,Jits_ISO_8,0,5,56,103,1536894452
73,17,7,Jits_ISO_8,1,1,48,35,1536938328
73,17,7,Jits_ISO_8,2,5,63,98,1536984508
73,17,7,Jits_ISO_8,3,5,80,127,1537054024
73,17,7,Jits_ISO_8,0,1,48,48,1537717372
73,17,7,Jits_ISO_8,1,5,63,98,1537774112
73,17,7,Jits_ISO_8,2,5,80,127,1537777328
73,17,7,Jits_ISO_8,3,5,56,103,1537834264
73,17,7,Jits_ISO_8,0,1,48,27,1538493176
73,17,7,Jits_ISO_8,1,5,80,127,1538613592
73,17,7,Jits_ISO_8,2,5,56,103,1538633976
73,17,7,Jits_ISO_8,3,5,63,98,1538644420
73,17,7,Jits_ISO_8,0,1,48,34,1539301892
73,17,7,Jits_ISO_8,1,5,56,103,1539324164
73,17,7,Jits_ISO_8,2,5,63,98,1539333388
73,17,7,Jits_ISO_8,3,5,80,127,1539404124
73,17,7,Jits_ISO_8,0,1,48,38,1540059924
73,17,7,Jits_ISO_8,1,5,80,127,1540123872
73,17,7,Jits_ISO_8,2,5,56,103,1540174084
73,17,7,Jits_ISO_8,3,5,63,98,1540224284
73,17,7,Jits_ISO_8,0,1,48,43,1540877552
73,17,7,Jits_ISO_8,1,5,56,103,1541003760
73,17,7,Jits_ISO_8,2,5,63,98,1541014032
73,17,7,Jits_ISO_8,3,5,80,127,1541053896
73,17,7,Jits_ISO_8,0,5,56,103,1541744084
73,17,7,Jits_ISO_8,1,1,48,35,1541767284
73,17,7,Jits_ISO_8,2,5,63,98,1541784168
73,17,7,Jits_ISO_8,3,5,80,127,1541833996
73,17,7,Jits_ISO_8,0,5,80,127,1542503872
73,17,7,Jits_ISO_8,1,1,48,46,1542521148
73,17,7,Jits_ISO_8,2,5,56,103,1542554072
73,17,7,Jits_ISO_8,3,5,63,98,1542573332
73,17,7,Jits_ISO_8,0,1,48,40,1543266400
73,17,7,Jits_ISO_8,1,5,80,127,1543313704
73,17,7,Jits_ISO_8,2,5,63,98,1543374080
73,17,7,Jits_ISO_8,3,5,56,103,1543454024
73,17,7,Jits_ISO_8,0,1,48,43,1544078236
73,17,7,Jits_ISO_8,1,5,80,127,1544094152
73,17,7,Jits_ISO_8,2,5,56,103,1544134092
73,17,7,Jits_ISO_8,3,5,63,98,1544153432
73,17,7,Jits_ISO_8,0,1,48,46,1544890300
73,17,7,Jits_ISO_8,1,5,56,103,1544943980
73,17,7,Jits_ISO_8,2,5,80,127,1544954104
73,17,7,Jits_ISO_8,3,5,63,98,1544994104
73,17,7,Jits_ISO_8,0,1,48,46,1545676456
73,17,7,Jits_ISO_8,1,5,56,103,1545814356
73,17,7,Jits_ISO_8,2,5,63,98,1545854292
73,17,7,Jits_ISO_8,3,5,80,127,1545857660
73,17,7,Jits_ISO_8,0,5,63,98,1546503548
73,17,7,Jits_ISO_8,1,5,80,127,1546543416
73,17,7,Jits_ISO_8,2,1,48,36,1546546984
73,17,7,Jits_ISO_8,3,5,56,103,1546614088
73,17,7,Jits_ISO_8,0,5,63,98,1547294116
73,17,7,Jits_ISO_8,1,1,48,42,1547341232
73,17,7,Jits_ISO_8,2,5,56,103,1547373860
73,17,7,Jits_ISO_8,3,5,80,127,1547434380
73,17,7,Jits_ISO_8,0,1,48,35,1548084280
73,17,7,Jits_ISO_8,1,5,80,127,1548104156
73,17,7,Jits_ISO_8,2,5,63,98,1548154236
73,17,7,Jits_ISO_8,3,5,56,103,1548183912
73,17,7,Jits_ISO_8,0,5,56,103,1548893480
73,17,7,Jits_ISO_8,1,5,63,98,1548943832
73,17,7,Jits_ISO_8,2,5,80,127,1548954028
73,17,7,Jits_ISO_8,3,1,48,43,1548955668
73,17,7,Jits_ISO_8,0,1,48,47,1549696236
73,17,7,Jits_ISO_8,1,5,56,103,1549703528
73,17,7,Jits_ISO_8,2,5,63,98,1549814104
73,17,7,Jits_ISO_8,3,5,80,127,1549833516
73,17,7,Jits_ISO_8,0,1,48,54,1550495868
73,17,7,Jits_ISO_8,1,5,63,98,1550504212
73,17,7,Jits_ISO_8,2,5,80,127,1550553368
73,17,7,Jits_ISO_8,3,1,48,19,1550620220
73,17,7,Jits_ISO_8,4,5,56,103,1550643628
73,17,7,Jits_ISO_8,0,5,63,98,1551293960
73,17,7,Jits_ISO_8,1,5,80,127,1551323488
73,17,7,Jits_ISO_8,2,1,48,48,1551364888
73,17,7,Jits_ISO_8,3,5,56,103,1551413984
73,17,7,Jits_ISO_8,0,5,63,98,1552093592
73,17,7,Jits_ISO_8,1,5,56,103,1552103940
73,17,7,Jits_ISO_8,2,1,48,50,1552114252
73,17,7,Jits_ISO_8,3,1,48,29,1552190936
73,17,7,Jits_ISO_8,4,5,80,127,1552204256
73,17,7,Jits_ISO_8,0,1,48,51,1552900520
73,17,7,Jits_ISO_8,1,1,48,19,1552983996
73,17,7,Jits_ISO_8,2,5,63,98,1552993912
73,17,7,Jits_ISO_8,3,5,80,127,1553024412
73,17,7,Jits_ISO_8,4,5,56,103,1553054164
73,17,7,Jits_ISO_8,0,1,48,54,1553716576
73,17,7,Jits_ISO_8,1,1,48,26,1553798248
73,17,7,Jits_ISO_8,2,5,80,127,1553813860
73,17,7,Jits_ISO_8,3,5,63,98,1553824128
73,17,7,Jits_ISO_8,4,5,56,103,1553853880
73,17,7,Jits_ISO_8,0,5,80,127,1554514400
73,17,7,Jits_ISO_8,1,5,63,98,1554533664
73,17,7,Jits_ISO_8,2,1,48,54,1554543008
73,17,7,Jits_ISO_8,3,5,56,103,1554583860
73,17,7,Jits_ISO_8,0,1,48,51,1555308764
73,17,7,Jits_ISO_8,1,5,63,98,1555343708
73,17,7,Jits_ISO_8,2,5,80,127,1555404164
73,17,7,Jits_ISO_8,3,5,56,103,1555423872
73,17,7,Jits_ISO_8,0,5,63,98,1556103644
73,17,7,Jits_ISO_8,1,1,48,56,1556108256
73,17,7,Jits_ISO_8,2,5,56,103,1556153768
73,17,7,Jits_ISO_8,3,5,80,127,1556163964
73,17,7,Jits_ISO_8,0,1,48,51,1556866600
73,17,7,Jits_ISO_8,1,5,56,103,1556933988
73,17,7,Jits_ISO_8,2,5,80,127,1556944256
73,17,7,Jits_ISO_8,3,5,63,98,1557043740
73,17,7,Jits_ISO_8,0,1,48,47,1557646152
73,17,7,Jits_ISO_8,1,5,80,127,1557693760
73,17,7,Jits_ISO_8,2,5,63,98,1557703956
73,17,7,Jits_ISO_8,3,5,56,103,1557853656
73,17,7,Jits_ISO_8,0,1,48,48,1558456872
73,17,7,Jits_ISO_8,1,5,63,98,1558503880
73,17,7,Jits_ISO_8,2,5,80,127,1558543596
73,17,7,Jits_ISO_8,3,5,56,103,1558623772
73,17,7,Jits_ISO_8,0,1,48,44,1559247736
73,17,7,Jits_ISO_8,1,5,56,103,1559294372
73,17,7,Jits_ISO_8,2,5,80,127,1559393584
73,17,7,Jits_ISO_8,3,5,63,98,1559414268
73,17,7,Jits_ISO_8,0,1,48,48,1559922480
73,17,7,Jits_ISO_8,1,1,48,22,1559992444
73,17,7,Jits_ISO_8,2,5,80,127,1560153636
73,17,7,Jits_ISO_8,3,5,56,103,1560163680
73,17,7,Jits_ISO_8,4,5,63,98,1560253888
73,17,7,Jits_ISO_8,0,1,48,51,1560731020
73,17,7,Jits_ISO_8,1,1,48,25,1560808924
73,17,7,Jits_ISO_8,2,5,56,103,1560954092
73,17,7,Jits_ISO_8,3,5,63,98,1560973580
73,17,7,Jits_ISO_8,4,5,80,127,1561053748
73,17,7,Jits_ISO_8,0,1,48,57,1561568948
73,17,7,Jits_ISO_8,1,1,48,28,1561657112
73,17,7,Jits_ISO_8,2,5,63,98,1561703996
73,17,7,Jits_ISO_8,3,5,56,103,1561794040
73,17,7,Jits_ISO_8,4,5,80,127,1561797032
73,17,7,Jits_ISO_8,0,1,48,50,1562416156
73,17,7,Jits_ISO_8,1,1,48,18,1562513788
73,17,7,Jits_ISO_8,2,5,56,103,1562534116
73,17,7,Jits_ISO_8,3,5,80,127,1562593608
73,17,7,Jits_ISO_8,4,5,63,98,1562604104
73,17,7,Jits_ISO_8,0,1,48,40,1563300692
73,17,7,Jits_ISO_8,1,5,80,127,1563384268
73,17,7,Jits_ISO_8,2,5,56,103,1563394684
73,17,7,Jits_ISO_8,3,5,63,98,1563398784
73,17,7,Jits_ISO_8,0,1,48,49,1564104448
73,17,7,Jits_ISO_8,1,5,56,103,1564143888
73,17,7,Jits_ISO_8,2,5,80,127,1564154160
73,17,7,Jits_ISO_8,3,5,63,98,1564173796
73,17,7,Jits_ISO_8,0,1,48,47,1564799260
73,17,7,Jits_ISO_8,1,1,48,26,1564899860
73,17,7,Jits_ISO_8,2,5,63,98,1564914128
73,17,7,Jits_ISO_8,3,5,80,127,1564973548
73,17,7,Jits_ISO_8,4,5,56,103,1565023460
73,17,7,Jits_ISO_8,0,1,48,43,1565661544
73,17,7,Jits_ISO_8,1,5,63,98,1565793740
73,17,7,Jits_ISO_8,2,5,56,103,1565804008
73,17,7,Jits_ISO_8,3,5,80,127,1565854064
73,17,7,Jits_ISO_8,0,1,48,46,1566438320
73,17,7,Jits_ISO_8,1,5,63,98,1566494020
73,17,7,Jits_ISO_8,2,5,80,127,1566513732
73,17,7,Jits_ISO_8,3,5,56,103,1566523704
73,17,7,Jits_ISO_8,0,1,48,39,1567184608
73,17,7,Jits_ISO_8,1,5,63,98,1567293784
73,17,7,Jits_ISO_8,2,5,80,127,1567297072
73,17,7,Jits_ISO_8,3,5,56,103,1567333744
73,17,7,Jits_ISO_8,0,1,48,30,1567914396
73,17,7,Jits_ISO_8,1,1,48,25,1568017016
73,17,7,Jits_ISO_8,2,5,63,98,1568164204
73,17,7,Jits_ISO_8,3,5,80,127,1568193956
73,17,7,Jits_ISO_8,4,5,56,103,1568204080
73,17,7,Jits_ISO_8,0,1,48,37,1568770068
73,17,7,Jits_ISO_8,1,5,56,103,1568913816
73,17,7,Jits_ISO_8,2,5,80,127,1568943640
73,17,7,Jits_ISO_8,3,5,63,98,1568974436
73,17,7,Jits_ISO_8,0,1,48,42,1569631400
73,17,7,Jits_ISO_8,1,5,63,98,1569813844
73,17,7,Jits_ISO_8,2,5,56,103,1569853856
73,17,7,Jits_ISO_8,3,5,80,127,1569856848
73,17,7,Jits_ISO_8,0,1,48,44,1570507968
73,17,7,Jits_ISO_8,1,5,80,127,1570514292
73,17,7,Jits_ISO_8,2,5,56,103,1570594016
73,17,7,Jits_ISO_8,3,5,63,98,1570644452
73,17,7,Jits_ISO_8,0,1,48,46,1571244232
73,17,7,Jits_ISO_8,1,5,80,127,1571293628
73,17,7,Jits_ISO_8,2,5,56,103,1571313940
73,17,7,Jits_ISO_8,3,1,48,23,1571344692
73,17,7,Jits_ISO_8,4,5,63,98,1571404224
73,17,7,Jits_ISO_8,0,1,48,40,1572092188
73,17,7,Jits_ISO_8,1,5,80,127,1572134388
73,17,7,Jits_ISO_8,2,5,63,98,1572174428
73,17,7,Jits_ISO_8,3,1,48,19,1572191240
73,17,7,Jits_ISO_8,4,5,56,103,1572214120
73,17,7,Jits_ISO_8,0,5,63,98,1572904508
73,17,7,Jits_ISO_8,1,5,80,127,1572963804
73,17,7,Jits_ISO_8,2,1,48,47,1572984084
73,17,7,Jits_ISO_8,3,5,56,103,1572994368
73,17,7,Jits_ISO_8,0,5,56,103,1573703912
73,17,7,Jits_ISO_8,1,5,80,127,1573733688
73,17,7,Jits_ISO_8,2,1,48,35,1573804460
73,17,7,Jits_ISO_8,3,5,63,98,1573823964
73,17,7,Jits_ISO_8,0,5,56,103,1574513924
73,17,7,Jits_ISO_8,1,1,48,43,1574605300
73,17,7,Jits_ISO_8,2,5,80,127,1574623532
73,17,7,Jits_ISO_8,3,5,63,98,1574654328
73,17,7,Jits_ISO_8,4,1,48,17,1574726132
73,17,7,Jits_ISO_8,0,5,56,103,1575363844
73,17,7,Jits_ISO_8,1,5,63,98,1575424612
73,17,7,Jits_ISO_8,2,1,48,21,1575434260
73,17,7,Jits_ISO_8,3,5,80,127,1575454280
73,17,7,Jits_ISO_8,0,5,56,103,1576134204
73,17,7,Jits_ISO_8,1,5,63,98,1576203740
73,17,7,Jits_ISO_8,2,5,80,127,1576224048
73,17,7,Jits_ISO_8,3,1,48,45,1576330720
73,17,7,Jits_ISO_8,0,5,80,127,1576904036
73,17,7,Jits_ISO_8,1,5,63,98,1576923600
73,17,7,Jits_ISO_8,2,5,56,103,1576973872
73,17,7,Jits_ISO_8,3,1,48,38,1577182220
73,17,7,Jits_ISO_8,0,9999,9999,9999,1482171460
73,17,7,Jits_ISO_8,1,9999,9999,9999,1482971208
73,17,7,Jits_ISO_8,2,9999,9999,9999,1483771976
73,17,7,Jits_ISO_8,3,9999,9999,9999,1484571772
73,17,7,Jits_ISO_8,4,9999,9999,9999,1485371488
73,17,7,Jits_ISO_8,5,9999,9999,9999,1486171220
73,17,7,Jits_ISO_8,6,9999,9999,9999,1486971960
73,17,7,Jits_ISO_8,7,9999,9999,9999,1487771756
73,17,7,Jits_ISO_8,8,9999,9999,9999,1488571476
73,17,7,Jits_ISO_8,9,9999,9999,9999,1489371244
73,17,7,Jits_ISO_8,10,9999,9999,9999,1490172020
73,17,7,Jits_ISO_8,11,9999,9999,9999,1490971744
73,17,7,Jits_ISO_8,12,9999,9999,9999,1491771476
73,17,7,Jits_ISO_8,13,9999,9999,9999,1492571220
73,17,7,Jits_ISO_8,14,9999,9999,9999,1493371964
73,17,7,Jits_ISO_8,15,9999,9999,9999,1494171752
73,17,7,Jits_ISO_8,16,9999,9999,9999,1494971448
73,17,7,Jits_ISO_8,17,9999,9999,9999,1495771248
73,17,7,Jits_ISO_8,18,9999,9999,9999,1496572012
73,17,7,Jits_ISO_8,19,9999,9999,9999,1497371736
73,17,7,Jits_ISO_8,20,9999,9999,9999,1498171444
73,17,7,Jits_ISO_8,21,9999,9999,9999,1498971248
73,17,7,Jits_ISO_8,22,9999,9999,9999,1499772012
73,17,7,Jits_ISO_8,23,9999,9999,9999,1500571732
73,17,7,Jits_ISO_8,24,9999,9999,9999,1501371516
73,17,7,Jits_ISO_8,25,9999,9999,9999,1502171224
73,17,7,Jits_ISO_8,26,9999,9999,9999,1502971976
73,17,7,Jits_ISO_8,27,9999,9999,9999,1503771760
73,17,7,Jits_ISO_8,28,9999,9999,9999,1504571468
73,17,7,Jits_ISO_8,29,9999,9999,9999,1505371208
73,17,7,Jits_ISO_8,30,9999,9999,9999,1506172016
73,17,7,Jits_ISO_8,31,9999,9999,9999,1506971748
73,17,7,Jits_ISO_8,32,9999,9999,9999,1507771468
73,17,7,Jits_ISO_8,33,9999,9999,9999,1508571188
73,17,7,Jits_ISO_8,34,9999,9999,9999,1509371960
73,17,7,Jits_ISO_8,35,9999,9999,9999,1510171764
73,17,7,Jits_ISO_8,36,9999,9999,9999,1510971484
73,17,7,Jits_ISO_8,37,9999,9999,9999,1511771236
73,17,7,Jits_ISO_8,38,9999,9999,9999,1512571964
73,17,7,Jits_ISO_8,39,9999,9999,9999,1513371724
73,17,7,Jits_ISO_8,40,9999,9999,9999,1514171456
73,17,7,Jits_ISO_8,41,9999,9999,9999,1514971240
73,17,7,Jits_ISO_8,42,9999,9999,9999,1515771996
73,17,7,Jits_ISO_8,43,9999,9999,9999,1516571772
73,17,7,Jits_ISO_8,44,9999,9999,9999,1517371464
73,17,7,Jits_ISO_8,45,9999,9999,9999,1518171204
73,17,7,Jits_ISO_8,46,9999,9999,9999,1518971956
73,17,7,Jits_ISO_8,47,9999,9999,9999,1519771712
73,17,7,Jits_ISO_8,48,9999,9999,9999,1520571444
73,17,7,Jits_ISO_8,49,9999,9999,9999,1521371224
73,17,7,Jits_ISO_8,50,9999,9999,9999,1522171976
73,17,7,Jits_ISO_8,51,9999,9999,9999,1522971772
73,17,7,Jits_ISO_8,52,9999,9999,9999,1523771500
73,17,7,Jits_ISO_8,53,9999,9999,9999,1524571240
73,17,7,Jits_ISO_8,54,9999,9999,9999,1525371988
73,17,7,Jits_ISO_8,55,9999,9999,9999,1526171712
73,17,7,Jits_ISO_8,56,9999,9999,9999,1526971472
73,17,7,Jits_ISO_8,57,9999,9999,9999,1527771216
73,17,7,Jits_ISO_8,58,9999,9999,9999,1528571984
73,17,7,Jits_ISO_8,59,9999,9999,9999,1529371708
73,17,7,Jits_ISO_8,60,9999,9999,9999,1530171508
73,17,7,Jits_ISO_8,61,9999,9999,9999,1530971188
73,17,7,Jits_ISO_8,62,9999,9999,9999,1531771996
73,17,7,Jits_ISO_8,63,9999,9999,9999,1532571716
73,17,7,Jits_ISO_8,64,9999,9999,9999,1533371508
73,17,7,Jits_ISO_8,65,9999,9999,9999,1534171224
73,17,7,Jits_ISO_8,66,9999,9999,9999,1534971984
73,17,7,Jits_ISO_8,67,9999,9999,9999,1535771700
73,17,7,Jits_ISO_8,68,9999,9999,9999,1536571476
73,17,7,Jits_ISO_8,69,9999,9999,9999,1537371224
73,17,7,Jits_ISO_8,70,9999,9999,9999,1538171988
73,17,7,Jits_ISO_8,71,9999,9999,9999,1538971708
73,17,7,Jits_ISO_8,72,9999,9999,9999,1539771492
73,17,7,Jits_ISO_8,73,9999,9999,9999,1540571200
73,17,7,Jits_ISO_8,74,9999,9999,9999,1541371968
73,17,7,Jits_ISO_8,75,9999,9999,9999,1542171756
73,17,7,Jits_ISO_8,76,9999,9999,9999,1542971472
73,17,7,Jits_ISO_8,77,9999,9999,9999,1543771224
73,17,7,Jits_ISO_8,78,9999,9999,9999,1544571972
73,17,7,Jits_ISO_8,79,9999,9999,9999,1545371756
73,17,7,Jits_ISO_8,80,9999,9999,9999,1546171468
73,17,7,Jits_ISO_8,81,9999,9999,9999,1546971252
73,17,7,Jits_ISO_8,82,9999,9999,9999,1547772008
73,17,7,Jits_ISO_8,83,9999,9999,9999,1548571712
73,17,7,Jits_ISO_8,84,9999,9999,9999,1549371488
73,17,7,Jits_ISO_8,85,9999,9999,9999,1550171240
73,17,7,Jits_ISO_8,86,9999,9999,9999,1550971972
73,17,7,Jits_ISO_8,87,9999,9999,9999,1551771700
73,17,7,Jits_ISO_8,88,9999,9999,9999,1552571456
73,17,7,Jits_ISO_8,89,9999,9999,9999,1553371248
73,17,7,Jits_ISO_8,90,9999,9999,9999,1554172012
73,17,7,Jits_ISO_8,91,9999,9999,9999,1554971736
73,17,7,Jits_ISO_8,92,9999,9999,9999,1555771464
73,17,7,Jits_ISO_8,93,9999,9999,9999,1556571192
73,17,7,Jits_ISO_8,94,9999,9999,9999,1557372024
73,17,7,Jits_ISO_8,95,9999,9999,9999,1558171732
73,17,7,Jits_ISO_8,96,9999,9999,9999,1558971512
73,17,7,Jits_ISO_8,97,9999,9999,9999,1559771224
73,17,7,Jits_ISO_8,98,9999,9999,9999,1560571960
73,17,7,Jits_ISO_8,99,9999,9999,9999,1561371748
73,17,7,Jits_ISO_8,100,9999,9999,9999,1562171448
73,17,7,Jits_ISO_8,101,9999,9999,9999,1562971256
73,17,7,Jits_ISO_8,102,9999,9999,9999,1563772028
73,17,7,Jits_ISO_8,103,9999,9999,9999,1564571736
73,17,7,Jits_ISO_8,104,9999,9999,9999,1565371500
73,17,7,Jits_ISO_8,105,9999,9999,9999,1566171236
73,17,7,Jits_ISO_8,106,9999,9999,9999,1566971988
73,17,7,Jits_ISO_8,107,9999,9999,9999,1567771752
73,17,7,Jits_ISO_8,108,9999,9999,9999,1568571444
73,17,7,Jits_ISO_8,109,9999,9999,9999,1569371196
73,17,7,Jits_ISO_8,110,9999,9999,9999,1570171952
73,17,7,Jits_ISO_8,111,9999,9999,9999,1570971740
73,17,7,Jits_ISO_8,112,9999,9999,9999,1571771500
73,17,7,Jits_ISO_8,113,9999,9999,9999,1572571208
73,17,7,Jits_ISO_8,114,9999,9999,9999,1573371984
73,17,7,Jits_ISO_8,115,9999,9999,9999,1574171760
73,17,7,Jits_ISO_8,116,9999,9999,9999,1574971464
73,17,7,Jits_ISO_8,117,9999,9999,9999,1575771244
73,17,7,Jits_ISO_8,118,9999,9999,9999,1576572012
73,17,7,Jits_ISO_8,119,9999,9999,9999,1577371732
73,18,16,Jits_ISO_5,0,5,56,103,1586930088
73,18,16,Jits_ISO_5,1,5,63,98,1586933264
73,18,16,Jits_ISO_5,2,5,80,127,1586936380
73,18,16,Jits_ISO_5,0,5,56,103,1587429808
73,18,16,Jits_ISO_5,1,5,63,98,1587432756
73,18,16,Jits_ISO_5,2,5,80,127,1587436104
73,18,16,Jits_ISO_5,0,5,56,103,1587929400
73,18,16,Jits_ISO_5,1,5,80,127,1587939964
73,18,16,Jits_ISO_5,2,5,63,98,1587960348
73,18,16,Jits_ISO_5,0,5,63,98,1588380140
73,18,16,Jits_ISO_5,1,5,80,127,1588409816
73,18,16,Jits_ISO_5,2,5,56,103,1588420012
73,18,16,Jits_ISO_5,0,5,80,127,1588940096
73,18,16,Jits_ISO_5,1,5,56,103,1588950592
73,18,16,Jits_ISO_5,2,5,63,98,1588980340
73,18,16,Jits_ISO_5,0,5,63,98,1589429728
73,18,16,Jits_ISO_5,1,5,56,103,1589460300
73,18,16,Jits_ISO_5,2,5,80,127,1589469524
73,18,16,Jits_ISO_5,0,5,56,103,1589880232
73,18,16,Jits_ISO_5,1,5,63,98,1589930284
73,18,16,Jits_ISO_5,2,5,80,127,1589949772
73,18,16,Jits_ISO_5,0,5,80,127,1590379824
73,18,16,Jits_ISO_5,1,5,63,98,1590430172
73,18,16,Jits_ISO_5,2,5,56,103,1590470256
73,18,16,Jits_ISO_5,0,5,56,103,1590879568
73,18,16,Jits_ISO_5,1,5,63,98,1590910288
73,18,16,Jits_ISO_5,2,5,80,127,1590980188
73,18,16,Jits_ISO_5,3,1,48,42,1590998820
73,18,16,Jits_ISO_5,0,5,56,103,1591380288
73,18,16,Jits_ISO_5,1,1,48,30,1591423636
73,18,16,Jits_ISO_5,2,5,80,127,1591439848
73,18,16,Jits_ISO_5,3,5,63,98,1591469296
73,18,16,Jits_ISO_5,0,5,56,103,1591890152
73,18,16,Jits_ISO_5,1,5,63,98,1591899448
73,18,16,Jits_ISO_5,2,1,48,39,1591911256
73,18,16,Jits_ISO_5,3,5,80,127,1591939304
73,18,16,Jits_ISO_5,0,5,63,98,1592379980
73,18,16,Jits_ISO_5,1,1,48,34,1592405816
73,18,16,Jits_ISO_5,2,5,80,127,1592459644
73,18,16,Jits_ISO_5,3,5,56,103,1592470212
73,18,16,Jits_ISO_5,0,1,48,24,1592929568
73,18,16,Jits_ISO_5,1,5,63,98,1592931052
73,18,16,Jits_ISO_5,2,5,56,103,1592969572
73,18,16,Jits_ISO_5,3,5,80,127,1592972784
73,18,16,Jits_ISO_5,0,5,56,103,1593389340
73,18,16,Jits_ISO_5,1,5,63,98,1593399536
73,18,16,Jits_ISO_5,2,1,48,39,1593410444
73,18,16,Jits_ISO_5,3,5,80,127,1593439488
73,18,16,Jits_ISO_5,4,1,48,26,1593475100
73,18,16,Jits_ISO_5,0,5,56,103,1593880104
73,18,16,Jits_ISO_5,1,5,63,98,1593883020
73,18,16,Jits_ISO_5,2,5,80,127,1593900340
73,18,16,Jits_ISO_5,3,1,48,41,1593914768
73,18,16,Jits_ISO_5,4,1,48,20,1593999272
73,18,16,Jits_ISO_5,0,5,80,127,1594389960
73,18,16,Jits_ISO_5,1,5,56,103,1594400232
73,18,16,Jits_ISO_5,2,1,48,34,1594404396
73,18,16,Jits_ISO_5,3,5,63,98,1594469628
73,18,16,Jits_ISO_5,0,5,63,98,1594880268
73,18,16,Jits_ISO_5,1,5,56,103,1594899904
73,18,16,Jits_ISO_5,2,1,48,40,1594930668
73,18,16,Jits_ISO_5,3,5,80,127,1594979636
73,18,16,Jits_ISO_5,0,5,56,103,1595390260
73,18,16,Jits_ISO_5,1,1,48,40,1595424164
73,18,16,Jits_ISO_5,2,5,80,127,1595430116
73,18,16,Jits_ISO_5,3,5,63,98,1595439488
73,18,16,Jits_ISO_5,0,5,80,127,1595879896
73,18,16,Jits_ISO_5,1,5,63,98,1595909420
73,18,16,Jits_ISO_5,2,1,48,40,1595929400
73,18,16,Jits_ISO_5,3,5,56,103,1595949428
73,18,16,Jits_ISO_5,0,5,56,103,1596400096
73,18,16,Jits_ISO_5,1,1,48,41,1596423816
73,18,16,Jits_ISO_5,2,5,63,98,1596429692
73,18,16,Jits_ISO_5,3,5,80,127,1596480112
73,18,16,Jits_ISO_5,4,1,48,27,1596484112
73,18,16,Jits_ISO_5,0,5,80,127,1596899564
73,18,16,Jits_ISO_5,1,1,48,44,1596921188
73,18,16,Jits_ISO_5,2,5,56,103,1596939720
73,18,16,Jits_ISO_5,3,5,63,98,1596949988
73,18,16,Jits_ISO_5,4,1,48,31,1596967096
73,18,16,Jits_ISO_5,0,5,80,127,1597380148
73,18,16,Jits_ISO_5,1,5,63,98,1597420308
73,18,16,Jits_ISO_5,2,1,48,38,1597423052
73,18,16,Jits_ISO_5,3,5,56,103,1597480240
73,18,16,Jits_ISO_5,0,5,56,103,1597879524
73,18,16,Jits_ISO_5,1,5,80,127,1597890092
73,18,16,Jits_ISO_5,2,5,63,98,1597969732
73,18,16,Jits_ISO_5,3,1,48,38,1597970700
73,18,16,Jits_ISO_5,0,5,80,127,1598380392
73,18,16,Jits_ISO_5,1,5,63,98,1598440180
73,18,16,Jits_ISO_5,2,1,48,43,1598456476
73,18,16,Jits_ISO_5,3,5,56,103,1598469472
73,18,16,Jits_ISO_5,0,1,48,38,1598872764
73,18,16,Jits_ISO_5,1,5,56,103,1598890324
73,18,16,Jits_ISO_5,2,5,80,127,1598949740
73,18,16,Jits_ISO_5,3,5,63,98,1598990032
73,18,16,Jits_ISO_5,0,1,48,43,1599387868
73,18,16,Jits_ISO_5,1,5,56,103,1599440256
73,18,16,Jits_ISO_5,2,5,63,98,1599449404
73,18,16,Jits_ISO_5,3,5,80,127,1599452764
73,18,16,Jits_ISO_5,0,5,80,127,1599889868
73,18,16,Jits_ISO_5,1,1,48,43,1599904968
73,18,16,Jits_ISO_5,2,5,63,98,1599980288
73,18,16,Jits_ISO_5,3,5,56,103,1599990112
73,18,16,Jits_ISO_5,0,5,56,103,1600389600
73,18,16,Jits_ISO_5,1,5,63,98,1600392700
73,18,16,Jits_ISO_5,2,5,80,127,1600395968
73,18,16,Jits_ISO_5,3,1,48,47,1600471168
73,18,16,Jits_ISO_5,0,5,80,127,1600909640
73,18,16,Jits_ISO_5,1,5,63,98,1600959988
73,18,16,Jits_ISO_5,2,1,48,45,1600973668
73,18,16,Jits_ISO_5,3,5,56,103,1600989508
73,18,16,Jits_ISO_5,0,5,56,103,1601389908
73,18,16,Jits_ISO_5,1,5,80,127,1601400032
73,18,16,Jits_ISO_5,2,1,48,51,1601450644
73,18,16,Jits_ISO_5,3,5,63,98,1601469776
73,18,16,Jits_ISO_5,4,1,48,32,1601511684
73,18,16,Jits_ISO_5,0,5,56,103,1601899932
73,18,16,Jits_ISO_5,1,5,63,98,1601920468
73,18,16,Jits_ISO_5,2,1,48,42,1601963140
73,18,16,Jits_ISO_5,3,5,80,127,1601980024
73,18,16,Jits_ISO_5,0,5,80,127,1602390312
73,18,16,Jits_ISO_5,1,1,48,43,1602432764
73,18,16,Jits_ISO_5,2,5,63,98,1602459988
73,18,16,Jits_ISO_5,3,5,56,103,1602479324
73,18,16,Jits_ISO_5,4,1,48,27,1602504296
73,18,16,Jits_ISO_5,0,5,80,127,1602920044
73,18,16,Jits_ISO_5,1,5,56,103,1602930020
73,18,16,Jits_ISO_5,2,5,63,98,1602940212
73,18,16,Jits_ISO_5,3,1,48,42,1602973144
73,18,16,Jits_ISO_5,0,5,80,127,1603410276
73,18,16,Jits_ISO_5,1,5,56,103,1603429908
73,18,16,Jits_ISO_5,2,1,48,37,1603487952
73,18,16,Jits_ISO_5,3,5,63,98,1603500332
73,18,16,Jits_ISO_5,0,5,56,103,1603920136
73,18,16,Jits_ISO_5,1,5,80,127,1603949884
73,18,16,Jits_ISO_5,2,5,63,98,1603970268
73,18,16,Jits_ISO_5,3,1,48,38,1603999988
73,18,16,Jits_ISO_5,0,5,63,98,1604409820
73,18,16,Jits_ISO_5,1,1,48,39,1604450576
73,18,16,Jits_ISO_5,2,5,56,103,1604470152
73,18,16,Jits_ISO_5,3,5,80,127,1604499976
73,18,16,Jits_ISO_5,0,5,63,98,1604900184
73,18,16,Jits_ISO_5,1,5,80,127,1604903472
73,18,16,Jits_ISO_5,2,5,56,103,1604990336
73,18,16,Jits_ISO_5,3,1,48,35,1605040428
73,18,16,Jits_ISO_5,0,5,56,103,1605420584
73,18,16,Jits_ISO_5,1,5,63,98,1605450208
73,18,16,Jits_ISO_5,2,5,80,127,1605490068
73,18,16,Jits_ISO_5,3,1,48,33,1605513412
73,18,16,Jits_ISO_5,0,5,63,98,1605920104
73,18,16,Jits_ISO_5,1,5,56,103,1605960212
73,18,16,Jits_ISO_5,2,5,80,127,1605979404
73,18,16,Jits_ISO_5,3,1,48,38,1605987228
73,18,16,Jits_ISO_5,0,5,63,98,1606429948
73,18,16,Jits_ISO_5,1,1,48,38,1606469436
73,18,16,Jits_ISO_5,2,5,56,103,1606470852
73,18,16,Jits_ISO_5,3,5,80,127,1606480324
73,18,16,Jits_ISO_5,0,5,80,127,1606910276
73,18,16,Jits_ISO_5,1,5,63,98,1606979884
73,18,16,Jits_ISO_5,2,5,56,103,1607000512
73,18,16,Jits_ISO_5,3,1,48,31,1607031352
73,18,16,Jits_ISO_5,0,5,56,103,1607399764
73,18,16,Jits_ISO_5,1,5,80,127,1607420220
73,18,16,Jits_ISO_5,2,5,63,98,1607460156
73,18,16,Jits_ISO_5,3,1,48,48,1607467404
73,18,16,Jits_ISO_5,4,1,48,36,1607503056
73,18,16,Jits_ISO_5,0,5,63,98,1607909712
73,18,16,Jits_ISO_5,1,5,80,127,1607930244
73,18,16,Jits_ISO_5,2,1,48,42,1607968900
73,18,16,Jits_ISO_5,3,5,56,103,1607970324
73,18,16,Jits_ISO_5,0,5,63,98,1608409372
73,18,16,Jits_ISO_5,1,5,56,103,1608429904
73,18,16,Jits_ISO_5,2,5,80,127,1608440248
73,18,16,Jits_ISO_5,3,1,48,42,1608448620
73,18,16,Jits_ISO_5,0,1,48,43,1608898056
73,18,16,Jits_ISO_5,1,5,80,127,1608910140
73,18,16,Jits_ISO_5,2,5,56,103,1608929848
73,18,16,Jits_ISO_5,3,5,63,98,1608960272
73,18,16,Jits_ISO_5,0,1,48,42,1609340620
73,18,16,Jits_ISO_5,1,5,56,103,1609479680
73,18,16,Jits_ISO_5,2,5,80,127,1609482744
73,18,16,Jits_ISO_5,3,5,63,98,1609499988
73,18,16,Jits_ISO_5,0,5,63,98,1609900468
73,18,16,Jits_ISO_5,1,5,56,103,1609930140
73,18,16,Jits_ISO_5,2,1,48,43,1609939708
73,18,16,Jits_ISO_5,3,5,80,127,1609989848
73,18,16,Jits_ISO_5,0,1,48,40,1610411032
73,18,16,Jits_ISO_5,1,5,63,98,1610490096
73,18,16,Jits_ISO_5,2,5,56,103,1610499468
73,18,16,Jits_ISO_5,3,5,80,127,1610510020
73,18,16,Jits_ISO_5,0,5,56,103,1610939944
73,18,16,Jits_ISO_5,1,1,48,36,1610960224
73,18,16,Jits_ISO_5,2,5,80,127,1610969316
73,18,16,Jits_ISO_5,3,5,63,98,1610979808
73,18,16,Jits_ISO_5,0,1,48,23,1611477560
73,18,16,Jits_ISO_5,1,5,63,98,1611480296
73,18,16,Jits_ISO_5,2,5,56,103,1611489668
73,18,16,Jits_ISO_5,3,5,80,127,1611510052
73,18,16,Jits_ISO_5,4,1,48,16,1611561248
73,18,16,Jits_ISO_5,0,5,56,103,1611909704
73,18,16,Jits_ISO_5,1,1,48,50,1611931404
73,18,16,Jits_ISO_5,2,5,63,98,1611969864
73,18,16,Jits_ISO_5,3,5,80,127,1611973152
73,18,16,Jits_ISO_5,4,1,48,32,1611989752
73,18,16,Jits_ISO_5,0,5,80,127,1612429840
73,18,16,Jits_ISO_5,1,5,56,103,1612439960
73,18,16,Jits_ISO_5,2,1,48,43,1612444052
73,18,16,Jits_ISO_5,3,5,63,98,1612509780
73,18,16,Jits_ISO_5,0,5,80,127,1612920224
73,18,16,Jits_ISO_5,1,1,48,37,1612921864
73,18,16,Jits_ISO_5,2,5,56,103,1612989748
73,18,16,Jits_ISO_5,3,5,63,98,1613000020
73,18,16,Jits_ISO_5,0,1,48,40,1613431032
73,18,16,Jits_ISO_5,1,5,63,98,1613459676
73,18,16,Jits_ISO_5,2,5,56,103,1613469948
73,18,16,Jits_ISO_5,3,5,80,127,1613489580
73,18,16,Jits_ISO_5,0,1,48,43,1613903864
73,18,16,Jits_ISO_5,1,5,80,127,1613910636
73,18,16,Jits_ISO_5,2,5,63,98,1613969684
73,18,16,Jits_ISO_5,3,5,56,103,1614009976
73,18,16,Jits_ISO_5,0,1,48,41,1614433192
73,18,16,Jits_ISO_5,1,5,56,103,1614460196
73,18,16,Jits_ISO_5,2,5,63,98,1614469492
73,18,16,Jits_ISO_5,3,5,80,127,1614509428
73,18,16,Jits_ISO_5,0,1,48,43,1614914172
73,18,16,Jits_ISO_5,1,5,56,103,1614920072
73,18,16,Jits_ISO_5,2,5,80,127,1614949824
73,18,16,Jits_ISO_5,3,5,63,98,1614999872
73,18,16,Jits_ISO_5,0,1,48,42,1615440752
73,18,16,Jits_ISO_5,1,5,56,103,1615459736
73,18,16,Jits_ISO_5,2,5,63,98,1615499976
73,18,16,Jits_ISO_5,3,5,80,127,1615503184
73,18,16,Jits_ISO_5,0,5,56,103,1615960664
73,18,16,Jits_ISO_5,1,5,63,98,1615969592
73,18,16,Jits_ISO_5,2,1,48,35,1615976220
73,18,16,Jits_ISO_5,3,5,80,127,1615990192
73,18,16,Jits_ISO_5,0,5,56,103,1616420232
73,18,16,Jits_ISO_5,1,5,80,127,1616423148
73,18,16,Jits_ISO_5,2,1,48,39,1616445220
73,18,16,Jits_ISO_5,3,5,63,98,1616460112
73,18,16,Jits_ISO_5,0,1,48,38,1616949900
73,18,16,Jits_ISO_5,1,5,63,98,1616959964
73,18,16,Jits_ISO_5,2,5,56,103,1616989664
73,18,16,Jits_ISO_5,3,5,80,127,1617010048
73,18,16,Jits_ISO_5,0,5,80,127,1617429736
73,18,16,Jits_ISO_5,1,5,56,103,1617440228
73,18,16,Jits_ISO_5,2,5,63,98,1617450572
73,18,16,Jits_ISO_5,3,1,48,43,1617465672
73,18,16,Jits_ISO_5,0,1,48,43,1617892360
73,18,16,Jits_ISO_5,1,5,56,103,1617929620
73,18,16,Jits_ISO_5,2,5,80,127,1617969632
73,18,16,Jits_ISO_5,3,5,63,98,1618000364
73,18,16,Jits_ISO_5,0,5,63,98,1618439848
73,18,16,Jits_ISO_5,1,5,80,127,1618449744
73,18,16,Jits_ISO_5,2,5,56,103,1618460164
73,18,16,Jits_ISO_5,3,1,48,46,1618527888
73,18,16,Jits_ISO_5,0,5,56,103,1618919724
73,18,16,Jits_ISO_5,1,1,48,45,1618968852
73,18,16,Jits_ISO_5,2,5,63,98,1618989548
73,18,16,Jits_ISO_5,3,5,80,127,1618999668
73,18,16,Jits_ISO_5,0,5,80,127,1619419548
73,18,16,Jits_ISO_5,1,5,56,103,1619429892
73,18,16,Jits_ISO_5,2,1,48,43,1619459832
73,18,16,Jits_ISO_5,3,5,63,98,1619479936
73,18,16,Jits_ISO_5,0,5,80,127,1619929556
73,18,16,Jits_ISO_5,1,1,48,43,1619931040
73,18,16,Jits_ISO_5,2,1,48,31,1619974228
73,18,16,Jits_ISO_5,3,5,56,103,1619989764
73,18,16,Jits_ISO_5,4,5,63,98,1620019736
73,18,16,Jits_ISO_5,0,5,56,103,1620430060
73,18,16,Jits_ISO_5,1,5,80,127,1620433208
73,18,16,Jits_ISO_5,2,1,48,40,1620468872
73,18,16,Jits_ISO_5,3,5,63,98,1620470220
73,18,16,Jits_ISO_5,0,1,48,45,1620938768
73,18,16,Jits_ISO_5,1,5,56,103,1620959764
73,18,16,Jits_ISO_5,2,5,63,98,1620990188
73,18,16,Jits_ISO_5,3,5,80,127,1620999484
73,18,16,Jits_ISO_5,0,1,48,45,1621423284
73,18,16,Jits_ISO_5,1,5,63,98,1621469612
73,18,16,Jits_ISO_5,2,5,80,127,1621479660
73,18,16,Jits_ISO_5,3,5,56,103,1621490004
73,18,16,Jits_ISO_5,0,1,48,44,1621928576
73,18,16,Jits_ISO_5,1,5,80,127,1621930316
73,18,16,Jits_ISO_5,2,5,56,103,1621979616
73,18,16,Jits_ISO_5,3,5,63,98,1621982608
73,18,16,Jits_ISO_5,0,1,48,44,1622413148
73,18,16,Jits_ISO_5,1,5,56,103,1622459856
73,18,16,Jits_ISO_5,2,5,80,127,1622480164
73,18,16,Jits_ISO_5,3,5,63,98,1622489388
73,18,16,Jits_ISO_5,0,1,48,50,1622934304
73,18,16,Jits_ISO_5,1,5,63,98,1622939884
73,18,16,Jits_ISO_5,2,5,56,103,1622969856
73,18,16,Jits_ISO_5,3,5,80,127,1622990240
73,18,16,Jits_ISO_5,4,1,48,21,1623020916
73,18,16,Jits_ISO_5,0,1,48,45,1623360544
73,18,16,Jits_ISO_5,1,5,56,103,1623449896
73,18,16,Jits_ISO_5,2,5,80,127,1623460088
73,18,16,Jits_ISO_5,3,5,63,98,1623529828
73,18,16,Jits_ISO_5,0,1,48,48,1623901580
73,18,16,Jits_ISO_5,1,1,48,35,1623936908
73,18,16,Jits_ISO_5,2,5,63,98,1623939568
73,18,16,Jits_ISO_5,3,5,80,127,1623980700
73,18,16,Jits_ISO_5,4,5,56,103,1624020412
73,18,16,Jits_ISO_5,0,1,48,47,1624428524
73,18,16,Jits_ISO_5,1,5,56,103,1624450500
73,18,16,Jits_ISO_5,2,5,63,98,1624459652
73,18,16,Jits_ISO_5,3,5,80,127,1624480108
73,18,16,Jits_ISO_5,0,1,48,44,1624908036
73,18,16,Jits_ISO_5,1,5,63,98,1624990092
73,18,16,Jits_ISO_5,2,5,80,127,1625009488
73,18,16,Jits_ISO_5,3,5,56,103,1625029872
73,18,16,Jits_ISO_5,0,1,48,43,1625417272
73,18,16,Jits_ISO_5,1,5,56,103,1625430716
73,18,16,Jits_ISO_5,2,1,48,31,1625468736
73,18,16,Jits_ISO_5,3,5,80,127,1625510188
73,18,16,Jits_ISO_5,4,5,63,98,1625519636
73,18,16,Jits_ISO_5,0,1,48,47,1625933656
73,18,16,Jits_ISO_5,1,5,80,127,1625980512
73,18,16,Jits_ISO_5,2,5,63,98,1625989588
73,18,16,Jits_ISO_5,3,1,48,31,1625991508
73,18,16,Jits_ISO_5,4,5,56,103,1626020060
73,18,16,Jits_ISO_5,0,5,63,98,1626440112
73,18,16,Jits_ISO_5,1,1,48,49,1626450276
73,18,16,Jits_ISO_5,2,5,80,127,1626480044
73,18,16,Jits_ISO_5,3,1,48,37,1626504864
73,18,16,Jits_ISO_5,4,5,56,103,1626540704
73,18,16,Jits_ISO_5,0,5,63,98,1626949876
73,18,16,Jits_ISO_5,1,1,48,47,1626961336
73,18,16,Jits_ISO_5,2,5,56,103,1627000092
73,18,16,Jits_ISO_5,3,5,80,127,1627029840
73,18,16,Jits_ISO_5,4,1,48,28,1627038120
73,18,16,Jits_ISO_5,0,5,80,127,1627459884
73,18,16,Jits_ISO_5,1,1,48,48,1627463472
73,18,16,Jits_ISO_5,2,5,63,98,1627470320
73,18,16,Jits_ISO_5,3,5,56,103,1627539776
73,18,16,Jits_ISO_5,0,1,48,44,1627936968
73,18,16,Jits_ISO_5,1,1,48,29,1627984024
73,18,16,Jits_ISO_5,2,5,80,127,1628030576
73,18,16,Jits_ISO_5,3,5,56,103,1628039648
73,18,16,Jits_ISO_5,4,5,63,98,1628042788
73,18,16,Jits_ISO_5,0,1,48,45,1628415732
73,18,16,Jits_ISO_5,1,1,48,28,1628464936
73,18,16,Jits_ISO_5,2,5,56,103,1628469616
73,18,16,Jits_ISO_5,3,5,80,127,1628489952
73,18,16,Jits_ISO_5,4,5,63,98,1628500592
73,18,16,Jits_ISO_5,0,1,48,49,1628891436
73,18,16,Jits_ISO_5,1,1,48,32,1628939140
73,18,16,Jits_ISO_5,2,5,63,98,1628979548
73,18,16,Jits_ISO_5,3,5,56,103,1629019584
73,18,16,Jits_ISO_5,4,5,80,127,1629039876
73,18,16,Jits_ISO_5,0,1,48,47,1629375972
73,18,16,Jits_ISO_5,1,5,63,98,1629480428
73,18,16,Jits_ISO_5,2,5,56,103,1629539792
73,18,16,Jits_ISO_5,3,5,80,127,1629542708
73,18,16,Jits_ISO_5,0,1,48,48,1629869868
73,18,16,Jits_ISO_5,1,1,48,33,1629918920
73,18,16,Jits_ISO_5,2,5,56,103,1629940072
73,18,16,Jits_ISO_5,3,5,80,127,1629959556
73,18,16,Jits_ISO_5,4,5,63,98,1629999496
73,18,16,Jits_ISO_5,0,1,48,48,1630384368
73,18,16,Jits_ISO_5,1,1,48,30,1630449384
73,18,16,Jits_ISO_5,2,5,56,103,1630469636
73,18,16,Jits_ISO_5,3,5,63,98,1630489872
73,18,16,Jits_ISO_5,4,5,80,127,1630500144
73,18,16,Jits_ISO_5,0,1,48,48,1630881576
73,18,16,Jits_ISO_5,1,5,80,127,1630939444
73,18,16,Jits_ISO_5,2,5,56,103,1630970312
73,18,16,Jits_ISO_5,3,5,63,98,1631010308
73,18,16,Jits_ISO_5,0,1,48,51,1631365040
73,18,16,Jits_ISO_5,1,1,48,36,1631404652
73,18,16,Jits_ISO_5,2,5,80,127,1631449416
73,18,16,Jits_ISO_5,3,5,56,103,1631469872
73,18,16,Jits_ISO_5,4,5,63,98,1631530468
73,18,16,Jits_ISO_5,0,1,48,50,1631846436
73,18,16,Jits_ISO_5,1,1,48,35,1631893020
73,18,16,Jits_ISO_5,2,5,56,103,1631960400
73,18,16,Jits_ISO_5,3,5,80,127,1631980036
73,18,16,Jits_ISO_5,4,5,63,98,1632040404
73,18,16,Jits_ISO_5,0,1,48,49,1632378636
73,18,16,Jits_ISO_5,1,5,80,127,1632439568
73,18,16,Jits_ISO_5,2,5,56,103,1632449764
73,18,16,Jits_ISO_5,3,5,63,98,1632489836
73,18,16,Jits_ISO_5,0,1,48,50,1632877300
73,18,16,Jits_ISO_5,1,1,48,34,1632937216
73,18,16,Jits_ISO_5,2,5,63,98,1632940544
73,18,16,Jits_ISO_5,3,5,56,103,1632980480
73,18,16,Jits_ISO_5,4,5,80,127,1632983472
73,18,16,Jits_ISO_5,0,1,48,53,1633339420
73,18,16,Jits_ISO_5,1,1,48,40,1633375820
73,18,16,Jits_ISO_5,2,5,63,98,1633469804
73,18,16,Jits_ISO_5,3,5,80,127,1633509656
73,18,16,Jits_ISO_5,4,5,56,103,1633539552
73,18,16,Jits_ISO_5,0,1,48,46,1633891036
73,18,16,Jits_ISO_5,1,1,48,34,1633931400
73,18,16,Jits_ISO_5,2,5,56,103,1633960488
73,18,16,Jits_ISO_5,3,5,63,98,1633969492
73,18,16,Jits_ISO_5,4,5,80,127,1634000580
73,18,16,Jits_ISO_5,0,1,48,49,1634415872
73,18,16,Jits_ISO_5,1,5,80,127,1634449920
73,18,16,Jits_ISO_5,2,1,48,30,1634466128
73,18,16,Jits_ISO_5,3,5,63,98,1634520404
73,18,16,Jits_ISO_5,4,5,56,103,1634529624
73,18,16,Jits_ISO_5,0,1,48,45,1634891504
73,18,16,Jits_ISO_5,1,5,63,98,1634949524
73,18,16,Jits_ISO_5,2,5,56,103,1635020088
73,18,16,Jits_ISO_5,3,5,80,127,1635030580
73,18,16,Jits_ISO_5,0,1,48,46,1635359304
73,18,16,Jits_ISO_5,1,5,63,98,1635450380
73,18,16,Jits_ISO_5,2,5,56,103,1635469556
73,18,16,Jits_ISO_5,3,5,80,127,1635509564
73,18,16,Jits_ISO_5,0,1,48,47,1635815344
73,18,16,Jits_ISO_5,1,5,56,103,1635960360
73,18,16,Jits_ISO_5,2,5,63,98,1635970556
73,18,16,Jits_ISO_5,3,5,80,127,1636050272
73,18,16,Jits_ISO_5,0,1,48,44,1636337708
73,18,16,Jits_ISO_5,1,5,63,98,1636449684
73,18,16,Jits_ISO_5,2,5,56,103,1636480332
73,18,16,Jits_ISO_5,3,5,80,127,1636520416
73,18,16,Jits_ISO_5,0,1,48,44,1636866660
73,18,16,Jits_ISO_5,1,5,56,103,1636950552
73,18,16,Jits_ISO_5,2,5,63,98,1636990400
73,18,16,Jits_ISO_5,3,5,80,127,1637030336
73,18,16,Jits_ISO_5,0,1,48,42,1637360184
73,18,16,Jits_ISO_5,1,5,80,127,1637460460
73,18,16,Jits_ISO_5,2,5,56,103,1637540180
73,18,16,Jits_ISO_5,3,5,63,98,1637549476
73,18,16,Jits_ISO_5,0,1,48,44,1637863284
73,18,16,Jits_ISO_5,1,5,56,103,1638000504
73,18,16,Jits_ISO_5,2,5,63,98,1638003416
73,18,16,Jits_ISO_5,3,5,80,127,1638010472
73,18,16,Jits_ISO_5,0,1,48,48,1638330048
73,18,16,Jits_ISO_5,1,5,56,103,1638520304
73,18,16,Jits_ISO_5,2,5,63,98,1638539568
73,18,16,Jits_ISO_5,3,5,80,127,1638549764
73,18,16,Jits_ISO_5,0,1,48,45,1638770728
73,18,16,Jits_ISO_5,1,1,48,30,1638826684
73,18,16,Jits_ISO_5,2,5,63,98,1638979992
73,18,16,Jits_ISO_5,3,5,80,127,1638990188
73,18,16,Jits_ISO_5,4,5,56,103,1639009596
73,18,16,Jits_ISO_5,5,1,48,43,1639251404
73,18,16,Jits_ISO_5,0,5,63,98,1639479768
73,18,16,Jits_ISO_5,1,5,56,103,1639559660
73,18,16,Jits_ISO_5,2,5,80,127,1639562800
73,18,16,Jits_ISO_5,3,1,48,40,1639672224
73,18,16,Jits_ISO_5,0,5,63,98,1639980300
73,18,16,Jits_ISO_5,1,5,56,103,1639999784
73,18,16,Jits_ISO_5,2,5,80,127,1640029408
73,18,16,Jits_ISO_5,3,1,48,40,1640113500
73,18,16,Jits_ISO_5,0,5,56,103,1640480248
73,18,16,Jits_ISO_5,1,1,48,38,1640496992
73,18,16,Jits_ISO_5,2,5,63,98,1640499580
73,18,16,Jits_ISO_5,3,5,80,127,1640509924
73,18,16,Jits_ISO_5,0,1,48,39,1640960556
73,18,16,Jits_ISO_5,1,5,56,103,1641009504
73,18,16,Jits_ISO_5,2,5,63,98,1641040320
73,18,16,Jits_ISO_5,3,5,80,127,1641043460
73,18,16,Jits_ISO_5,0,1,48,41,1641445588
73,18,16,Jits_ISO_5,1,5,56,103,1641460300
73,18,16,Jits_ISO_5,2,5,63,98,1641499944
73,18,16,Jits_ISO_5,3,5,80,127,1641560564
73,18,16,Jits_ISO_5,0,1,48,28,1641957920
73,18,16,Jits_ISO_5,1,5,56,103,1641980340
73,18,16,Jits_ISO_5,2,5,63,98,1641989416
73,18,16,Jits_ISO_5,3,5,80,127,1642049948
73,18,16,Jits_ISO_5,0,1,48,43,1642427064
73,18,16,Jits_ISO_5,1,5,56,103,1642479920
73,18,16,Jits_ISO_5,2,5,80,127,1642499408
73,18,16,Jits_ISO_5,3,5,63,98,1642530112
73,18,16,Jits_ISO_5,0,1,48,37,1642915708
73,18,16,Jits_ISO_5,1,5,80,127,1642979652
73,18,16,Jits_ISO_5,2,5,56,103,1642990144
73,18,16,Jits_ISO_5,3,5,63,98,1643010308
73,18,16,Jits_ISO_5,0,1,48,45,1643426980
73,18,16,Jits_ISO_5,1,5,63,98,1643470168
73,18,16,Jits_ISO_5,2,1,48,23,1643496492
73,18,16,Jits_ISO_5,3,5,80,127,1643550088
73,18,16,Jits_ISO_5,4,5,56,103,1643560212
73,18,16,Jits_ISO_5,0,1,48,40,1643952808
73,18,16,Jits_ISO_5,1,1,48,25,1644029084
73,18,16,Jits_ISO_5,2,5,80,127,1644030284
73,18,16,Jits_ISO_5,3,5,56,103,1644049988
73,18,16,Jits_ISO_5,4,5,63,98,1644052832
73,18,16,Jits_ISO_5,0,5,63,98,1644500384
73,18,16,Jits_ISO_5,1,5,80,127,1644503524
73,18,16,Jits_ISO_5,2,1,48,46,1644515256
73,18,16,Jits_ISO_5,3,5,56,103,1644559792
73,18,16,Jits_ISO_5,0,1,48,40,1644963436
73,18,16,Jits_ISO_5,1,5,56,103,1644989764
73,18,16,Jits_ISO_5,2,5,80,127,1645000184
73,18,16,Jits_ISO_5,3,5,63,98,1645040120
73,18,16,Jits_ISO_5,0,1,48,38,1645464512
73,18,16,Jits_ISO_5,1,5,56,103,1645470240
73,18,16,Jits_ISO_5,2,5,63,98,1645529508
73,18,16,Jits_ISO_5,3,5,80,127,1645539628
73,18,16,Jits_ISO_5,0,1,48,46,1645933836
73,18,16,Jits_ISO_5,1,5,63,98,1645980164
73,18,16,Jits_ISO_5,2,5,80,127,1646019876
73,18,16,Jits_ISO_5,3,5,56,103,1646059872
73,18,16,Jits_ISO_5,0,1,48,38,1646446516
73,18,16,Jits_ISO_5,1,5,56,103,1646479820
73,18,16,Jits_ISO_5,2,5,63,98,1646559672
73,18,16,Jits_ISO_5,3,5,80,127,1646563108
73,18,16,Jits_ISO_5,0,9999,9999,9999,1587177592
73,18,16,Jits_ISO_5,1,9999,9999,9999,1587677240
73,18,16,Jits_ISO_5,2,9999,9999,9999,1588178024
73,18,16,Jits_ISO_5,3,9999,9999,9999,1588677688
73,18,16,Jits_ISO_5,4,9999,9999,9999,1589177416
73,18,16,Jits_ISO_5,5,9999,9999,9999,1589677160
73,18,16,Jits_ISO_5,6,9999,9999,9999,1590177860
73,18,16,Jits_ISO_5,7,9999,9999,9999,1590677600
73,18,16,Jits_ISO_5,8,9999,9999,9999,1591177320
73,18,16,Jits_ISO_5,9,9999,9999,9999,1591678040
73,18,16,Jits_ISO_5,10,9999,9999,9999,1592177784
73,18,16,Jits_ISO_5,11,9999,9999,9999,1592677464
73,18,16,Jits_ISO_5,12,9999,9999,9999,1593177192
73,18,16,Jits_ISO_5,13,9999,9999,9999,1593677876
73,18,16,Jits_ISO_5,14,9999,9999,9999,1594177596
73,18,16,Jits_ISO_5,15,9999,9999,9999,1594677300
73,18,16,Jits_ISO_5,16,9999,9999,9999,1595178092
73,18,16,Jits_ISO_5,17,9999,9999,9999,1595677748
73,18,16,Jits_ISO_5,18,9999,9999,9999,1596177500
73,18,16,Jits_ISO_5,19,9999,9999,9999,1596677228
73,18,16,Jits_ISO_5,20,9999,9999,9999,1597177964
73,18,16,Jits_ISO_5,21,9999,9999,9999,1597677676
73,18,16,Jits_ISO_5,22,9999,9999,9999,1598177348
73,18,16,Jits_ISO_5,23,9999,9999,9999,1598678068
73,18,16,Jits_ISO_5,24,9999,9999,9999,1599188084
73,18,16,Jits_ISO_5,25,9999,9999,9999,1599687736
73,18,16,Jits_ISO_5,26,9999,9999,9999,1600187472
73,18,16,Jits_ISO_5,27,9999,9999,9999,1600687196
73,18,16,Jits_ISO_5,28,9999,9999,9999,1601187916
73,18,16,Jits_ISO_5,29,9999,9999,9999,1601687636
73,18,16,Jits_ISO_5,30,9999,9999,9999,1602187348
73,18,16,Jits_ISO_5,31,9999,9999,9999,1602688124
73,18,16,Jits_ISO_5,32,9999,9999,9999,1603198020
73,18,16,Jits_ISO_5,33,9999,9999,9999,1603697764
73,18,16,Jits_ISO_5,34,9999,9999,9999,1604197436
73,18,16,Jits_ISO_5,35,9999,9999,9999,1604697188
73,18,16,Jits_ISO_5,36,9999,9999,9999,1605197876
73,18,16,Jits_ISO_5,37,9999,9999,9999,1605697660
73,18,16,Jits_ISO_5,38,9999,9999,9999,1606197328
73,18,16,Jits_ISO_5,39,9999,9999,9999,1606698032
73,18,16,Jits_ISO_5,40,9999,9999,9999,1607197768
73,18,16,Jits_ISO_5,41,9999,9999,9999,1607697492
73,18,16,Jits_ISO_5,42,9999,9999,9999,1608197200
73,18,16,Jits_ISO_5,43,9999,9999,9999,1608697976
73,18,16,Jits_ISO_5,44,9999,9999,9999,1609197636
73,18,16,Jits_ISO_5,45,9999,9999,9999,1609697364
73,18,16,Jits_ISO_5,46,9999,9999,9999,1610198072
73,18,16,Jits_ISO_5,47,9999,9999,9999,1610708072
73,18,16,Jits_ISO_5,48,9999,9999,9999,1611207732
73,18,16,Jits_ISO_5,49,9999,9999,9999,1611707464
73,18,16,Jits_ISO_5,50,9999,9999,9999,1612207204
73,18,16,Jits_ISO_5,51,9999,9999,9999,1612707892
73,18,16,Jits_ISO_5,52,9999,9999,9999,1613207644
73,18,16,Jits_ISO_5,53,9999,9999,9999,1613707316
73,18,16,Jits_ISO_5,54,9999,9999,9999,1614208100
73,18,16,Jits_ISO_5,55,9999,9999,9999,1614718024
73,18,16,Jits_ISO_5,56,9999,9999,9999,1615217756
73,18,16,Jits_ISO_5,57,9999,9999,9999,1615717484
73,18,16,Jits_ISO_5,58,9999,9999,9999,1616217140
73,18,16,Jits_ISO_5,59,9999,9999,9999,1616717920
73,18,16,Jits_ISO_5,60,9999,9999,9999,1617217644
73,18,16,Jits_ISO_5,61,9999,9999,9999,1617717368
73,18,16,Jits_ISO_5,62,9999,9999,9999,1618218088
73,18,16,Jits_ISO_5,63,9999,9999,9999,1618717744
73,18,16,Jits_ISO_5,64,9999,9999,9999,1619217480
73,18,16,Jits_ISO_5,65,9999,9999,9999,1619717220
73,18,16,Jits_ISO_5,66,9999,9999,9999,1620217920
73,18,16,Jits_ISO_5,67,9999,9999,9999,1620717620
73,18,16,Jits_ISO_5,68,9999,9999,9999,1621217368
73,18,16,Jits_ISO_5,69,9999,9999,9999,1621718076
73,18,16,Jits_ISO_5,70,9999,9999,9999,1622228064
73,18,16,Jits_ISO_5,71,9999,9999,9999,1622727796
73,18,16,Jits_ISO_5,72,9999,9999,9999,1623227504
73,18,16,Jits_ISO_5,73,9999,9999,9999,1623727204
73,18,16,Jits_ISO_5,74,9999,9999,9999,1624227960
73,18,16,Jits_ISO_5,75,9999,9999,9999,1624727656
73,18,16,Jits_ISO_5,76,9999,9999,9999,1625227320
73,18,16,Jits_ISO_5,77,9999,9999,9999,1625728084
73,18,16,Jits_ISO_5,78,9999,9999,9999,1626238020
73,18,16,Jits_ISO_5,79,9999,9999,9999,1626737768
73,18,16,Jits_ISO_5,80,9999,9999,9999,1627237440
73,18,16,Jits_ISO_5,81,9999,9999,9999,1627737212
73,18,16,Jits_ISO_5,82,9999,9999,9999,1628237908
73,18,16,Jits_ISO_5,83,9999,9999,9999,1628737628
73,18,16,Jits_ISO_5,84,9999,9999,9999,1629237304
73,18,16,Jits_ISO_5,85,9999,9999,9999,1629738040
73,18,16,Jits_ISO_5,86,9999,9999,9999,1630237752
73,18,16,Jits_ISO_5,87,9999,9999,9999,1630737504
73,18,16,Jits_ISO_5,88,9999,9999,9999,1631237200
73,18,16,Jits_ISO_5,89,9999,9999,9999,1631737956
73,18,16,Jits_ISO_5,90,9999,9999,9999,1632237632
73,18,16,Jits_ISO_5,91,9999,9999,9999,1632737396
73,18,16,Jits_ISO_5,92,9999,9999,9999,1633238072
73,18,16,Jits_ISO_5,93,9999,9999,9999,1633748084
73,18,16,Jits_ISO_5,94,9999,9999,9999,1634247760
73,18,16,Jits_ISO_5,95,9999,9999,9999,1634747508
73,18,16,Jits_ISO_5,96,9999,9999,9999,1635247208
73,18,16,Jits_ISO_5,97,9999,9999,9999,1635747912
73,18,16,Jits_ISO_5,98,9999,9999,9999,1636247648
73,18,16,Jits_ISO_5,99,9999,9999,9999,1636747380
73,18,16,Jits_ISO_5,100,9999,9999,9999,1637248092
73,18,16,Jits_ISO_5,101,9999,9999,9999,1637758012
73,18,16,Jits_ISO_5,102,9999,9999,9999,1638257736
73,18,16,Jits_ISO_5,103,9999,9999,9999,1638757476
73,18,16,Jits_ISO_5,104,9999,9999,9999,1639257156
73,18,16,Jits_ISO_5,105,9999,9999,9999,1639757924
73,18,16,Jits_ISO_5,106,9999,9999,9999,1640257596
73,18,16,Jits_ISO_5,107,9999,9999,9999,1640757324
73,18,16,Jits_ISO_5,108,9999,9999,9999,1641258032
73,18,16,Jits_ISO_5,109,9999,9999,9999,1641757764
73,18,16,Jits_ISO_5,110,9999,9999,9999,1642257496
73,18,16,Jits_ISO_5,111,9999,9999,9999,1642757228
73,18,16,Jits_ISO_5,112,9999,9999,9999,1643257932
73,18,16,Jits_ISO_5,113,9999,9999,9999,1643757644
73,18,16,Jits_ISO_5,114,9999,9999,9999,1644257388
73,18,16,Jits_ISO_5,115,9999,9999,9999,1644758124
73,18,16,Jits_ISO_5,116,9999,9999,9999,1645268044
73,18,16,Jits_ISO_5,117,9999,9999,9999,1645767776
73,18,16,Jits_ISO_5,118,9999,9999,9999,1646267508
73,18,16,Jits_ISO_5,119,9999,9999,9999,1646767160
73,19,18,Jits_Linear_8,0,5,56,103,1658460432
73,19,18,Jits_Linear_8,1,5,63,98,1658463460
73,19,18,Jits_Linear_8,2,5,80,127,1658466656
73,19,18,Jits_Linear_8,0,5,56,103,1659280824
73,19,18,Jits_Linear_8,1,5,63,98,1659283844
73,19,18,Jits_Linear_8,2,5,80,127,1659287040
73,19,18,Jits_Linear_8,0,5,80,127,1660040684
73,19,18,Jits_Linear_8,1,5,63,98,1660130968
73,19,18,Jits_Linear_8,2,5,56,103,1660140944
73,19,18,Jits_Linear_8,0,5,56,103,1660881244
73,19,18,Jits_Linear_8,1,5,63,98,1660890468
73,19,18,Jits_Linear_8,2,5,80,127,1660980452
73,19,18,Jits_Linear_8,0,5,63,98,1661670928
73,19,18,Jits_Linear_8,1,5,80,127,1661700900
73,19,18,Jits_Linear_8,2,5,56,103,1661731176
73,19,18,Jits_Linear_8,0,5,56,103,1662490860
73,19,18,Jits_Linear_8,1,1,48,63,1662511888
73,19,18,Jits_Linear_8,2,5,80,127,1662591352
73,19,18,Jits_Linear_8,3,5,63,98,1662640420
73,19,18,Jits_Linear_8,0,5,56,103,1663301144
73,19,18,Jits_Linear_8,1,1,48,59,1663315128
73,19,18,Jits_Linear_8,2,5,80,127,1663351192
73,19,18,Jits_Linear_8,3,5,63,98,1663391204
73,19,18,Jits_Linear_8,0,1,48,70,1664107456
73,19,18,Jits_Linear_8,1,5,80,127,1664140840
73,19,18,Jits_Linear_8,2,5,63,98,1664171488
73,19,18,Jits_Linear_8,3,5,56,103,1664241004
73,19,18,Jits_Linear_8,0,1,48,32,1664877840
73,19,18,Jits_Linear_8,1,5,63,98,1664981480
73,19,18,Jits_Linear_8,2,5,56,103,1665011008
73,19,18,Jits_Linear_8,3,5,80,127,1665070496
73,19,18,Jits_Linear_8,0,1,48,62,1665671764
73,19,18,Jits_Linear_8,1,5,56,103,1665731048
73,19,18,Jits_Linear_8,2,5,80,127,1665734040
73,19,18,Jits_Linear_8,3,5,63,98,1665850836
73,19,18,Jits_Linear_8,0,1,48,56,1666446692
73,19,18,Jits_Linear_8,1,5,56,103,1666610720
73,19,18,Jits_Linear_8,2,5,80,127,1666650684
73,19,18,Jits_Linear_8,3,5,63,98,1666660880
73,19,18,Jits_Linear_8,0,1,48,54,1667276872
73,19,18,Jits_Linear_8,1,5,56,103,1667371444
73,19,18,Jits_Linear_8,2,5,80,127,1667390928
73,19,18,Jits_Linear_8,3,5,63,98,1667470824
73,19,18,Jits_Linear_8,0,1,48,53,1668089668
73,19,18,Jits_Linear_8,1,5,80,127,1668160872
73,19,18,Jits_Linear_8,2,5,56,103,1668261208
73,19,18,Jits_Linear_8,3,5,63,98,1668270356
73,19,18,Jits_Linear_8,0,1,48,51,1668906644
73,19,18,Jits_Linear_8,1,5,63,98,1668930884
73,19,18,Jits_Linear_8,2,5,80,127,1668991228
73,19,18,Jits_Linear_8,3,5,56,103,1669000672
73,19,18,Jits_Linear_8,0,1,48,54,1669720820
73,19,18,Jits_Linear_8,1,5,56,103,1669730808
73,19,18,Jits_Linear_8,2,5,63,98,1669801312
73,19,18,Jits_Linear_8,3,5,80,127,1669804976
73,19,18,Jits_Linear_8,0,1,48,53,1670524228
73,19,18,Jits_Linear_8,1,5,63,98,1670561120
73,19,18,Jits_Linear_8,2,5,56,103,1670611392
73,19,18,Jits_Linear_8,3,5,80,127,1670614312
73,19,18,Jits_Linear_8,0,1,48,53,1671290560
73,19,18,Jits_Linear_8,1,5,56,103,1671310812
73,19,18,Jits_Linear_8,2,5,80,127,1671313800
73,19,18,Jits_Linear_8,3,5,63,98,1671400852
73,19,18,Jits_Linear_8,0,1,48,48,1672096204
73,19,18,Jits_Linear_8,1,5,63,98,1672141120
73,19,18,Jits_Linear_8,2,5,56,103,1672231316
73,19,18,Jits_Linear_8,3,5,80,127,1672260868
73,19,18,Jits_Linear_8,4,1,48,19,1672427816
73,19,18,Jits_Linear_8,0,1,48,41,1672858468
73,19,18,Jits_Linear_8,1,5,56,103,1672920548
73,19,18,Jits_Linear_8,2,5,63,98,1673020860
73,19,18,Jits_Linear_8,3,5,80,127,1673050408
73,19,18,Jits_Linear_8,0,1,48,63,1673724616
73,19,18,Jits_Linear_8,1,5,63,98,1673730572
73,19,18,Jits_Linear_8,2,5,56,103,1673740620
73,19,18,Jits_Linear_8,3,1,48,29,1673814468
73,19,18,Jits_Linear_8,4,5,80,127,1673830756
73,19,18,Jits_Linear_8,0,5,63,98,1674531136
73,19,18,Jits_Linear_8,1,1,48,55,1674554252
73,19,18,Jits_Linear_8,2,5,56,103,1674611096
73,19,18,Jits_Linear_8,3,5,80,127,1674614088
73,19,18,Jits_Linear_8,4,1,48,31,1674625808
73,19,18,Jits_Linear_8,0,5,80,127,1675270768
73,19,18,Jits_Linear_8,1,5,63,98,1675290860
73,19,18,Jits_Linear_8,2,5,56,103,1675351572
73,19,18,Jits_Linear_8,3,1,48,49,1675388916
73,19,18,Jits_Linear_8,4,1,48,29,1675446436
73,19,18,Jits_Linear_8,0,5,56,103,1676090816
73,19,18,Jits_Linear_8,1,5,63,98,1676111296
73,19,18,Jits_Linear_8,2,5,80,127,1676114660
73,19,18,Jits_Linear_8,3,1,48,54,1676227380
73,19,18,Jits_Linear_8,4,1,48,32,1676298076
73,19,18,Jits_Linear_8,0,5,63,98,1676810684
73,19,18,Jits_Linear_8,1,5,80,127,1676890656
73,19,18,Jits_Linear_8,2,5,56,103,1676900776
73,19,18,Jits_Linear_8,3,1,48,59,1677070808
73,19,18,Jits_Linear_8,4,1,48,22,1677158296
73,19,18,Jits_Linear_8,0,5,63,98,1677611680
73,19,18,Jits_Linear_8,1,5,56,103,1677630796
73,19,18,Jits_Linear_8,2,5,80,127,1677680948
73,19,18,Jits_Linear_8,3,1,48,57,1677918656
73,19,18,Jits_Linear_8,0,5,80,127,1678390536
73,19,18,Jits_Linear_8,1,5,63,98,1678430576
73,19,18,Jits_Linear_8,2,5,56,103,1678451108
73,19,18,Jits_Linear_8,3,1,48,44,1678751288
73,19,18,Jits_Linear_8,0,5,56,103,1679200592
73,19,18,Jits_Linear_8,1,5,63,98,1679210788
73,19,18,Jits_Linear_8,2,5,80,127,1679231544
73,19,18,Jits_Linear_8,3,1,48,56,1679546552
73,19,18,Jits_Linear_8,0,5,56,103,1679901060
73,19,18,Jits_Linear_8,1,5,63,98,1679991148
73,19,18,Jits_Linear_8,2,5,80,127,1680050568
73,19,18,Jits_Linear_8,3,1,48,59,1680299140
73,19,18,Jits_Linear_8,0,5,80,127,1680700832
73,19,18,Jits_Linear_8,1,5,56,103,1680711128
73,19,18,Jits_Linear_8,2,5,63,98,1680780736
73,19,18,Jits_Linear_8,3,1,48,60,1681089984
73,19,18,Jits_Linear_8,0,1,48,36,1681164500
73,19,18,Jits_Linear_8,1,5,63,98,1681500528
73,19,18,Jits_Linear_8,2,5,80,127,1681590740
73,19,18,Jits_Linear_8,3,5,56,103,1681601008
73,19,18,Jits_Linear_8,0,1,48,54,1681931528
73,19,18,Jits_Linear_8,1,1,48,34,1681992816
73,19,18,Jits_Linear_8,2,5,63,98,1682200820
73,19,18,Jits_Linear_8,3,5,80,127,1682251196
73,19,18,Jits_Linear_8,4,5,56,103,1682310540
73,19,18,Jits_Linear_8,0,1,48,72,1682728092
73,19,18,Jits_Linear_8,1,5,56,103,1682990596
73,19,18,Jits_Linear_8,2,5,80,127,1683040676
73,19,18,Jits_Linear_8,3,5,63,98,1683061060
73,19,18,Jits_Linear_8,0,1,48,64,1683543608
73,19,18,Jits_Linear_8,1,5,56,103,1683720668
73,19,18,Jits_Linear_8,2,5,80,127,1683780864
73,19,18,Jits_Linear_8,3,5,63,98,1683850692
73,19,18,Jits_Linear_8,0,1,48,61,1684369444
73,19,18,Jits_Linear_8,1,5,56,103,1684481384
73,19,18,Jits_Linear_8,2,5,80,127,1684511060
73,19,18,Jits_Linear_8,3,5,63,98,1684540736
73,19,18,Jits_Linear_8,0,1,48,52,1685166024
73,19,18,Jits_Linear_8,1,5,56,103,1685281056
73,19,18,Jits_Linear_8,2,5,80,127,1685300692
73,19,18,Jits_Linear_8,3,5,63,98,1685360956
73,19,18,Jits_Linear_8,0,1,48,60,1685971484
73,19,18,Jits_Linear_8,1,1,48,24,1686071712
73,19,18,Jits_Linear_8,2,5,80,127,1686120760
73,19,18,Jits_Linear_8,3,5,56,103,1686130956
73,19,18,Jits_Linear_8,4,5,63,98,1686141304
73,19,18,Jits_Linear_8,0,1,48,60,1686778928
73,19,18,Jits_Linear_8,1,5,56,103,1686830584
73,19,18,Jits_Linear_8,2,5,80,127,1686871880
73,19,18,Jits_Linear_8,3,5,63,98,1686901256
73,19,18,Jits_Linear_8,0,1,48,60,1687534188
73,19,18,Jits_Linear_8,1,5,56,103,1687551452
73,19,18,Jits_Linear_8,2,5,63,98,1687580980
73,19,18,Jits_Linear_8,3,1,48,32,1687606552
73,19,18,Jits_Linear_8,4,5,80,127,1687620920
73,19,18,Jits_Linear_8,0,5,80,127,1688250716
73,19,18,Jits_Linear_8,1,5,63,98,1688300772
73,19,18,Jits_Linear_8,2,1,48,51,1688319792
73,19,18,Jits_Linear_8,3,5,56,103,1688321448
73,19,18,Jits_Linear_8,0,5,56,103,1689031000
73,19,18,Jits_Linear_8,1,1,48,50,1689039668
73,19,18,Jits_Linear_8,2,1,48,33,1689085564
73,19,18,Jits_Linear_8,3,5,80,127,1689100580
73,19,18,Jits_Linear_8,4,5,63,98,1689160924
73,19,18,Jits_Linear_8,0,5,80,127,1689771480
73,19,18,Jits_Linear_8,1,1,48,51,1689817452
73,19,18,Jits_Linear_8,2,5,63,98,1689860640
73,19,18,Jits_Linear_8,3,1,48,30,1689876700
73,19,18,Jits_Linear_8,4,5,56,103,1689880928
73,19,18,Jits_Linear_8,0,5,63,98,1690531296
73,19,18,Jits_Linear_8,1,5,56,103,1690550560
73,19,18,Jits_Linear_8,2,5,80,127,1690590572
73,19,18,Jits_Linear_8,3,1,48,59,1690595108
73,19,18,Jits_Linear_8,4,1,48,35,1690664536
73,19,18,Jits_Linear_8,0,5,80,127,1691230628
73,19,18,Jits_Linear_8,1,5,63,98,1691250940
73,19,18,Jits_Linear_8,2,5,56,103,1691330884
73,19,18,Jits_Linear_8,3,1,48,52,1691408380
73,19,18,Jits_Linear_8,4,1,48,32,1691470428
73,19,18,Jits_Linear_8,0,5,63,98,1691960588
73,19,18,Jits_Linear_8,1,5,56,103,1692071500
73,19,18,Jits_Linear_8,2,5,80,127,1692074488
73,19,18,Jits_Linear_8,3,1,48,52,1692283652
73,19,18,Jits_Linear_8,4,1,48,35,1692321468
73,19,18,Jits_Linear_8,0,5,63,98,1692720432
73,19,18,Jits_Linear_8,1,5,56,103,1692730776
73,19,18,Jits_Linear_8,2,5,80,127,1692733840
73,19,18,Jits_Linear_8,3,1,48,57,1693096296
73,19,18,Jits_Linear_8,4,1,48,35,1693145864
73,19,18,Jits_Linear_8,0,5,56,103,1693441472
73,19,18,Jits_Linear_8,1,5,80,127,1693561376
73,19,18,Jits_Linear_8,2,5,63,98,1693601316
73,19,18,Jits_Linear_8,0,1,48,56,1693921300
73,19,18,Jits_Linear_8,1,1,48,32,1693978428
73,19,18,Jits_Linear_8,2,5,56,103,1694191036
73,19,18,Jits_Linear_8,3,5,80,127,1694270760
73,19,18,Jits_Linear_8,4,5,63,98,1694291392
73,19,18,Jits_Linear_8,0,1,48,62,1694689712
73,19,18,Jits_Linear_8,1,1,48,39,1694736280
73,19,18,Jits_Linear_8,2,5,56,103,1694921160
73,19,18,Jits_Linear_8,3,5,63,98,1695030700
73,19,18,Jits_Linear_8,4,5,80,127,1695033992
73,19,18,Jits_Linear_8,0,1,48,48,1695496392
73,19,18,Jits_Linear_8,1,1,48,34,1695542384
73,19,18,Jits_Linear_8,2,5,56,103,1695681024
73,19,18,Jits_Linear_8,3,5,80,127,1695710556
73,19,18,Jits_Linear_8,4,5,63,98,1695731160
73,19,18,Jits_Linear_8,0,1,48,57,1696250352
73,19,18,Jits_Linear_8,1,1,48,37,1696297372
73,19,18,Jits_Linear_8,2,5,63,98,1696390488
73,19,18,Jits_Linear_8,3,5,56,103,1696400744
73,19,18,Jits_Linear_8,4,5,80,127,1696410868
73,19,18,Jits_Linear_8,0,1,48,44,1697062732
73,19,18,Jits_Linear_8,1,5,80,127,1697101148
73,19,18,Jits_Linear_8,2,1,48,31,1697113544
73,19,18,Jits_Linear_8,3,5,56,103,1697151404
73,19,18,Jits_Linear_8,4,5,63,98,1697191272
73,19,18,Jits_Linear_8,0,1,48,45,1697797120
73,19,18,Jits_Linear_8,1,5,80,127,1697840612
73,19,18,Jits_Linear_8,2,5,63,98,1697861100
73,19,18,Jits_Linear_8,3,5,56,103,1697911140
73,19,18,Jits_Linear_8,0,1,48,44,1698483972
73,19,18,Jits_Linear_8,1,5,80,127,1698570468
73,19,18,Jits_Linear_8,2,5,56,103,1698601472
73,19,18,Jits_Linear_8,3,5,63,98,1698670956
73,19,18,Jits_Linear_8,0,1,48,46,1699178084
73,19,18,Jits_Linear_8,1,1,48,29,1699234708
73,19,18,Jits_Linear_8,2,5,56,103,1699340524
73,19,18,Jits_Linear_8,3,5,80,127,1699350868
73,19,18,Jits_Linear_8,4,5,63,98,1699390808
73,19,18,Jits_Linear_8,0,1,48,57,1699927772
73,19,18,Jits_Linear_8,1,5,56,103,1699970296
73,19,18,Jits_Linear_8,2,1,48,28,1699988692
73,19,18,Jits_Linear_8,3,5,63,98,1699990808
73,19,18,Jits_Linear_8,4,5,80,127,1700060488
73,19,18,Jits_Linear_8,0,1,48,49,1700588040
73,19,18,Jits_Linear_8,1,5,63,98,1700710668
73,19,18,Jits_Linear_8,2,5,80,127,1700771504
73,19,18,Jits_Linear_8,3,5,56,103,1700790620
73,19,18,Jits_Linear_8,0,1,48,46,1701128928
73,19,18,Jits_Linear_8,1,5,80,127,1701411348
73,19,18,Jits_Linear_8,2,5,56,103,1701441024
73,19,18,Jits_Linear_8,3,5,63,98,1701470552
73,19,18,Jits_Linear_8,4,1,48,39,1701806676
73,19,18,Jits_Linear_8,0,5,56,103,1702120788
73,19,18,Jits_Linear_8,1,5,63,98,1702181260
73,19,18,Jits_Linear_8,2,5,80,127,1702240628
73,19,18,Jits_Linear_8,3,1,48,30,1702500504
73,19,18,Jits_Linear_8,0,5,80,127,1702850888
73,19,18,Jits_Linear_8,1,5,56,103,1702871348
73,19,18,Jits_Linear_8,2,5,63,98,1702941176
73,19,18,Jits_Linear_8,3,1,48,62,1703082984
73,19,18,Jits_Linear_8,4,1,48,46,1703136300
73,19,18,Jits_Linear_8,0,5,80,127,1703560576
73,19,18,Jits_Linear_8,1,5,63,98,1703581332
73,19,18,Jits_Linear_8,2,5,56,103,1703610856
73,19,18,Jits_Linear_8,3,1,48,47,1703799272
73,19,18,Jits_Linear_8,4,1,48,33,1703846428
73,19,18,Jits_Linear_8,0,5,80,127,1704250680
73,19,18,Jits_Linear_8,1,5,63,98,1704271240
73,19,18,Jits_Linear_8,2,5,56,103,1704330660
73,19,18,Jits_Linear_8,3,1,48,45,1704642600
73,19,18,Jits_Linear_8,0,5,80,127,1704951100
73,19,18,Jits_Linear_8,1,5,56,103,1705050628
73,19,18,Jits_Linear_8,2,5,63,98,1705081128
73,19,18,Jits_Linear_8,3,1,48,51,1705319280
73,19,18,Jits_Linear_8,0,1,48,38,1705374396
73,19,18,Jits_Linear_8,1,5,63,98,1705641320
73,19,18,Jits_Linear_8,2,5,80,127,1705690400
73,19,18,Jits_Linear_8,3,5,56,103,1705711232
73,19,18,Jits_Linear_8,4,1,48,52,1706036200
73,19,18,Jits_Linear_8,0,5,80,127,1706380528
73,19,18,Jits_Linear_8,1,5,56,103,1706411472
73,19,18,Jits_Linear_8,2,5,63,98,1706414464
73,19,18,Jits_Linear_8,3,1,48,54,1706723188
73,19,18,Jits_Linear_8,0,1,48,16,1707051664
73,19,18,Jits_Linear_8,1,5,63,98,1707110832
73,19,18,Jits_Linear_8,2,5,56,103,1707150832
73,19,18,Jits_Linear_8,3,5,80,127,1707171216
73,19,18,Jits_Linear_8,0,1,48,46,1707481580
73,19,18,Jits_Linear_8,1,1,48,22,1707547184
73,19,18,Jits_Linear_8,2,5,80,127,1707750652
73,19,18,Jits_Linear_8,3,5,63,98,1707830596
73,19,18,Jits_Linear_8,4,5,56,103,1707870560
73,19,18,Jits_Linear_8,0,1,48,61,1708185480
73,19,18,Jits_Linear_8,1,1,48,42,1708231848
73,19,18,Jits_Linear_8,2,5,63,98,1708461452
73,19,18,Jits_Linear_8,3,5,80,127,1708541176
73,19,18,Jits_Linear_8,4,5,56,103,1708560884
73,19,18,Jits_Linear_8,0,1,48,61,1708955028
73,19,18,Jits_Linear_8,1,5,56,103,1709190412
73,19,18,Jits_Linear_8,2,5,63,98,1709200608
73,19,18,Jits_Linear_8,3,5,80,127,1709240620
73,19,18,Jits_Linear_8,4,1,48,18,1709285160
73,19,18,Jits_Linear_8,0,1,48,39,1709707640
73,19,18,Jits_Linear_8,1,5,56,103,1709801100
73,19,18,Jits_Linear_8,2,5,80,127,1709804900
73,19,18,Jits_Linear_8,3,5,63,98,1709941064
73,19,18,Jits_Linear_8,0,5,56,103,1710480980
73,19,18,Jits_Linear_8,1,1,48,22,1710524180
73,19,18,Jits_Linear_8,2,5,63,98,1710570888
73,19,18,Jits_Linear_8,3,5,80,127,1710640480
73,19,18,Jits_Linear_8,0,1,48,53,1711120816
73,19,18,Jits_Linear_8,1,5,63,98,1711240504
73,19,18,Jits_Linear_8,2,5,80,127,1711243644
73,19,18,Jits_Linear_8,3,5,56,103,1711301188
73,19,18,Jits_Linear_8,0,1,48,35,1711611932
73,19,18,Jits_Linear_8,1,1,48,22,1711668932
73,19,18,Jits_Linear_8,2,5,80,127,1711960292
73,19,18,Jits_Linear_8,3,5,56,103,1711981124
73,19,18,Jits_Linear_8,4,5,63,98,1711991096
73,19,18,Jits_Linear_8,0,1,48,46,1712467876
73,19,18,Jits_Linear_8,1,1,48,24,1712529164
73,19,18,Jits_Linear_8,2,5,56,103,1712551212
73,19,18,Jits_Linear_8,3,5,63,98,1712560512
73,19,18,Jits_Linear_8,4,5,80,127,1712631224
73,19,18,Jits_Linear_8,0,1,48,45,1713163076
73,19,18,Jits_Linear_8,1,5,80,127,1713240380
73,19,18,Jits_Linear_8,2,5,56,103,1713290640
73,19,18,Jits_Linear_8,3,5,63,98,1713340844
73,19,18,Jits_Linear_8,0,1,48,57,1713968320
73,19,18,Jits_Linear_8,1,5,56,103,1714001180
73,19,18,Jits_Linear_8,2,5,63,98,1714010476
73,19,18,Jits_Linear_8,3,1,48,36,1714021296
73,19,18,Jits_Linear_8,4,5,80,127,1714050468
73,19,18,Jits_Linear_8,0,5,56,103,1714621084
73,19,18,Jits_Linear_8,1,5,63,98,1714660876
73,19,18,Jits_Linear_8,2,1,48,53,1714706392
73,19,18,Jits_Linear_8,3,5,80,127,1714710996
73,19,18,Jits_Linear_8,0,5,80,127,1715250612
73,19,18,Jits_Linear_8,1,5,56,103,1715300916
73,19,18,Jits_Linear_8,2,5,63,98,1715321076
73,19,18,Jits_Linear_8,3,1,48,56,1715367636
73,19,18,Jits_Linear_8,4,1,48,25,1715427696
73,19,18,Jits_Linear_8,0,5,80,127,1715930404
73,19,18,Jits_Linear_8,1,5,63,98,1715991096
73,19,18,Jits_Linear_8,2,1,48,54,1716043756
73,19,18,Jits_Linear_8,3,5,56,103,1716070984
73,19,18,Jits_Linear_8,0,5,80,127,1716580784
73,19,18,Jits_Linear_8,1,5,56,103,1716620872
73,19,18,Jits_Linear_8,2,5,63,98,1716641108
73,19,18,Jits_Linear_8,3,1,48,50,1716719000
73,19,18,Jits_Linear_8,0,5,56,103,1717301032
73,19,18,Jits_Linear_8,1,5,80,127,1717311008
73,19,18,Jits_Linear_8,2,5,63,98,1717350820
73,19,18,Jits_Linear_8,3,1,48,55,1717391628
73,19,18,Jits_Linear_8,0,1,48,57,1717991092
73,19,18,Jits_Linear_8,1,5,56,103,1718030828
73,19,18,Jits_Linear_8,2,1,48,40,1718039184
73,19,18,Jits_Linear_8,3,5,63,98,1718070668
73,19,18,Jits_Linear_8,4,5,80,127,1718074032
73,19,18,Jits_Linear_8,0,5,63,98,1718580744
73,19,18,Jits_Linear_8,1,5,80,127,1718620488
73,19,18,Jits_Linear_8,2,5,56,103,1718691144
73,19,18,Jits_Linear_8,3,1,48,58,1718732692
73,19,18,Jits_Linear_8,0,5,63,98,1719231032
73,19,18,Jits_Linear_8,1,5,56,103,1719310904
73,19,18,Jits_Linear_8,2,5,80,127,1719371172
73,19,18,Jits_Linear_8,3,1,48,59,1719393320
73,19,18,Jits_Linear_8,0,5,80,127,1719900580
73,19,18,Jits_Linear_8,1,5,63,98,1719950636
73,19,18,Jits_Linear_8,2,5,56,103,1719981504
73,19,18,Jits_Linear_8,3,1,48,53,1720083208
73,19,18,Jits_Linear_8,4,1,48,24,1720145536
73,19,18,Jits_Linear_8,0,5,56,103,1720550976
73,19,18,Jits_Linear_8,1,5,63,98,1720600884
73,19,18,Jits_Linear_8,2,5,80,127,1720611152
73,19,18,Jits_Linear_8,3,1,48,51,1720740160
73,19,18,Jits_Linear_8,4,1,48,26,1720810780
73,19,18,Jits_Linear_8,0,5,56,103,1721220580
73,19,18,Jits_Linear_8,1,5,63,98,1721331020
73,19,18,Jits_Linear_8,2,5,80,127,1721350504
73,19,18,Jits_Linear_8,3,1,48,63,1721444372
73,19,18,Jits_Linear_8,0,1,48,19,1721744800
73,19,18,Jits_Linear_8,1,5,63,98,1721870912
73,19,18,Jits_Linear_8,2,5,80,127,1721920820
73,19,18,Jits_Linear_8,3,5,56,103,1722011048
73,19,18,Jits_Linear_8,4,1,48,51,1722148256
73,19,18,Jits_Linear_8,5,1,48,31,1722209776
73,19,18,Jits_Linear_8,0,5,63,98,1722510744
73,19,18,Jits_Linear_8,1,5,80,127,1722541544
73,19,18,Jits_Linear_8,2,5,56,103,1722630852
73,19,18,Jits_Linear_8,0,1,48,47,1722929844
73,19,18,Jits_Linear_8,1,5,63,98,1723160944
73,19,18,Jits_Linear_8,2,5,56,103,1723171140
73,19,18,Jits_Linear_8,3,5,80,127,1723270588
73,19,18,Jits_Linear_8,0,1,48,66,1723648984
73,19,18,Jits_Linear_8,1,5,63,98,1723910428
73,19,18,Jits_Linear_8,2,5,80,127,1723941228
73,19,18,Jits_Linear_8,3,5,56,103,1723970928
73,19,18,Jits_Linear_8,0,1,48,48,1724385880
73,19,18,Jits_Linear_8,1,5,80,127,1724570988
73,19,18,Jits_Linear_8,2,5,63,98,1724581184
73,19,18,Jits_Linear_8,3,5,56,103,1724610860
73,19,18,Jits_Linear_8,0,5,80,127,1725110624
73,19,18,Jits_Linear_8,1,5,63,98,1725131156
73,19,18,Jits_Linear_8,2,1,48,65,1725138016
73,19,18,Jits_Linear_8,3,5,56,103,1725181352
73,19,18,Jits_Linear_8,0,5,63,98,1725781304
73,19,18,Jits_Linear_8,1,5,80,127,1725840800
73,19,18,Jits_Linear_8,2,5,56,103,1725861332
73,19,18,Jits_Linear_8,3,1,48,59,1725924232
73,19,18,Jits_Linear_8,0,5,63,98,1726381496
73,19,18,Jits_Linear_8,1,5,56,103,1726430728
73,19,18,Jits_Linear_8,2,5,80,127,1726441072
73,19,18,Jits_Linear_8,3,1,48,56,1726626252
73,19,18,Jits_Linear_8,0,5,56,103,1727051264
73,19,18,Jits_Linear_8,1,5,80,127,1727061240
73,19,18,Jits_Linear_8,2,5,63,98,1727160812
73,19,18,Jits_Linear_8,0,1,48,65,1727439664
73,19,18,Jits_Linear_8,1,5,80,127,1727651060
73,19,18,Jits_Linear_8,2,5,63,98,1727661332
73,19,18,Jits_Linear_8,3,5,56,103,1727810900
73,19,18,Jits_Linear_8,0,1,48,64,1728158272
73,19,18,Jits_Linear_8,1,5,63,98,1728291136
73,19,18,Jits_Linear_8,2,5,80,127,1728331104
73,19,18,Jits_Linear_8,3,5,56,103,1728410972
73,19,18,Jits_Linear_8,0,1,48,62,1728881328
73,19,18,Jits_Linear_8,1,5,56,103,1728910648
73,19,18,Jits_Linear_8,2,5,80,127,1729010960
73,19,18,Jits_Linear_8,3,5,63,98,1729030668
73,19,18,Jits_Linear_8,0,5,80,127,1729600852
73,19,18,Jits_Linear_8,1,1,48,63,1729606888
73,19,18,Jits_Linear_8,2,5,56,103,1729611264
73,19,18,Jits_Linear_8,3,1,48,28,1729685912
73,19,18,Jits_Linear_8,4,5,63,98,1729701228
73,19,18,Jits_Linear_8,0,5,56,103,1730230732
73,19,18,Jits_Linear_8,1,5,63,98,1730251116
73,19,18,Jits_Linear_8,2,1,48,58,1730312896
73,19,18,Jits_Linear_8,3,5,80,127,1730330980
73,19,18,Jits_Linear_8,4,1,48,29,1730382800
73,19,18,Jits_Linear_8,0,5,63,98,1730800896
73,19,18,Jits_Linear_8,1,5,56,103,1730891128
73,19,18,Jits_Linear_8,2,5,80,127,1730894120
73,19,18,Jits_Linear_8,3,1,48,65,1731021528
73,19,18,Jits_Linear_8,0,5,56,103,1731451176
73,19,18,Jits_Linear_8,1,5,80,127,1731510820
73,19,18,Jits_Linear_8,2,5,63,98,1731520868
73,19,18,Jits_Linear_8,3,1,48,62,1731782240
73,19,18,Jits_Linear_8,0,5,80,127,1732120940
73,19,18,Jits_Linear_8,1,5,56,103,1732131208
73,19,18,Jits_Linear_8,2,5,63,98,1732134200
73,19,18,Jits_Linear_8,0,1,48,60,1732519696
73,19,18,Jits_Linear_8,1,5,56,103,1732700896
73,19,18,Jits_Linear_8,2,5,80,127,1732710796
73,19,18,Jits_Linear_8,3,5,63,98,1732731180
73,19,18,Jits_Linear_8,0,1,48,60,1733254868
73,19,18,Jits_Linear_8,1,5,63,98,1733291460
73,19,18,Jits_Linear_8,2,5,80,127,1733350660
73,19,18,Jits_Linear_8,3,5,56,103,1733400992
73,19,18,Jits_Linear_8,0,1,48,62,1733974836
73,19,18,Jits_Linear_8,1,5,63,98,1733990756
73,19,18,Jits_Linear_8,2,5,56,103,1734001028
73,19,18,Jits_Linear_8,3,1,48,41,1734021960
73,19,18,Jits_Linear_8,4,5,80,127,1734051204
73,19,18,Jits_Linear_8,0,5,63,98,1734500676
73,19,18,Jits_Linear_8,1,5,80,127,1734521136
73,19,18,Jits_Linear_8,2,5,56,103,1734530360
73,19,18,Jits_Linear_8,3,1,48,62,1734722588
73,19,18,Jits_Linear_8,0,5,63,98,1735111148
73,19,18,Jits_Linear_8,1,5,80,127,1735114512
73,19,18,Jits_Linear_8,2,5,56,103,1735151088
73,19,18,Jits_Linear_8,3,1,48,53,1735449544
73,19,18,Jits_Linear_8,0,5,63,98,1735790948
73,19,18,Jits_Linear_8,1,5,80,127,1735820696
73,19,18,Jits_Linear_8,2,5,56,103,1735830892
73,19,18,Jits_Linear_8,0,1,48,54,1736162244
73,19,18,Jits_Linear_8,1,5,56,103,1736351020
73,19,18,Jits_Linear_8,2,5,80,127,1736380844
73,19,18,Jits_Linear_8,3,5,63,98,1736410444
73,19,18,Jits_Linear_8,0,1,48,57,1736861684
73,19,18,Jits_Linear_8,1,5,63,98,1737050684
73,19,18,Jits_Linear_8,2,5,56,103,1737090696
73,19,18,Jits_Linear_8,3,5,80,127,1737093836
73,19,18,Jits_Linear_8,0,1,48,46,1737549528
73,19,18,Jits_Linear_8,1,5,80,127,1737551116
73,19,18,Jits_Linear_8,2,5,56,103,1737630992
73,19,18,Jits_Linear_8,3,5,63,98,1737681328
73,19,18,Jits_Linear_8,0,5,80,127,1738130740
73,19,18,Jits_Linear_8,1,5,56,103,1738151276
73,19,18,Jits_Linear_8,2,5,63,98,1738241556
73,19,18,Jits_Linear_8,3,1,48,52,1738291280
73,19,18,Jits_Linear_8,0,5,80,127,1738770680
73,19,18,Jits_Linear_8,1,5,63,98,1738810620
73,19,18,Jits_Linear_8,2,5,56,103,1738850656
73,19,18,Jits_Linear_8,3,1,48,56,1738955576
73,19,18,Jits_Linear_8,0,5,63,98,1739341116
73,19,18,Jits_Linear_8,1,5,80,127,1739400684
73,19,18,Jits_Linear_8,2,5,56,103,1739431556
73,19,18,Jits_Linear_8,3,1,48,52,1739670840
73,19,18,Jits_Linear_8,0,5,56,103,1739941112
73,19,18,Jits_Linear_8,1,5,80,127,1739970864
73,19,18,Jits_Linear_8,2,5,63,98,1740061068
73,19,18,Jits_Linear_8,0,1,48,38,1740464320
73,19,18,Jits_Linear_8,1,5,56,103,1740541592
73,19,18,Jits_Linear_8,2,5,80,127,1740650848
73,19,18,Jits_Linear_8,3,5,63,98,1740680672
73,19,18,Jits_Linear_8,0,5,56,103,1741181488
73,19,18,Jits_Linear_8,1,1,48,66,1741223268
73,19,18,Jits_Linear_8,2,5,63,98,1741240752
73,19,18,Jits_Linear_8,3,5,80,127,1741271552
73,19,18,Jits_Linear_8,0,5,56,103,1741741644
73,19,18,Jits_Linear_8,1,5,63,98,1741811104
73,19,18,Jits_Linear_8,2,5,80,127,1741830664
73,19,18,Jits_Linear_8,3,1,48,64,1741931580
73,19,18,Jits_Linear_8,0,5,80,127,1742300452
73,19,18,Jits_Linear_8,1,5,63,98,1742321212
73,19,18,Jits_Linear_8,2,5,56,103,1742371116
73,19,18,Jits_Linear_8,3,1,48,60,1742652492
73,19,18,Jits_Linear_8,0,5,63,98,1742900536
73,19,18,Jits_Linear_8,1,5,80,127,1742910880
73,19,18,Jits_Linear_8,2,5,56,103,1742961004
73,19,18,Jits_Linear_8,0,1,48,61,1743396944
73,19,18,Jits_Linear_8,1,5,63,98,1743481364
73,19,18,Jits_Linear_8,2,5,80,127,1743550888
73,19,18,Jits_Linear_8,3,5,56,103,1743571420
73,19,18,Jits_Linear_8,0,1,48,69,1744084476
73,19,18,Jits_Linear_8,1,5,63,98,1744090576
73,19,18,Jits_Linear_8,2,5,80,127,1744093716
73,19,18,Jits_Linear_8,3,5,56,103,1744161084
73,19,18,Jits_Linear_8,0,5,80,127,1744620892
73,19,18,Jits_Linear_8,1,5,56,103,1744641500
73,19,18,Jits_Linear_8,2,5,63,98,1744650724
73,19,18,Jits_Linear_8,3,1,48,63,1744726084
73,19,18,Jits_Linear_8,0,5,56,103,1745220844
73,19,18,Jits_Linear_8,1,1,48,54,1745274308
73,19,18,Jits_Linear_8,2,5,63,98,1745311120
73,19,18,Jits_Linear_8,3,5,80,127,1745314632
73,19,18,Jits_Linear_8,0,5,80,127,1745770872
73,19,18,Jits_Linear_8,1,1,48,53,1745781068
73,19,18,Jits_Linear_8,2,5,56,103,1745782404
73,19,18,Jits_Linear_8,3,5,63,98,1745800696
73,19,18,Jits_Linear_8,0,1,48,56,1746280492
73,19,18,Jits_Linear_8,1,5,63,98,1746341272
73,19,18,Jits_Linear_8,2,5,80,127,1746400604
73,19,18,Jits_Linear_8,3,5,56,103,1746410800
73,19,18,Jits_Linear_8,0,1,48,55,1746750536
73,19,18,Jits_Linear_8,1,5,63,98,1746981332
73,19,18,Jits_Linear_8,2,5,80,127,1747010884
73,19,18,Jits_Linear_8,3,5,56,103,1747050748
73,19,18,Jits_Linear_8,0,1,48,48,1747279336
73,19,18,Jits_Linear_8,1,5,56,103,1747541352
73,19,18,Jits_Linear_8,2,5,80,127,1747550576
73,19,18,Jits_Linear_8,3,5,63,98,1747590516
73,19,18,Jits_Linear_8,4,1,48,49,1747742484
73,19,18,Jits_Linear_8,0,5,80,127,1748070840
73,19,18,Jits_Linear_8,1,5,56,103,1748150640
73,19,18,Jits_Linear_8,2,5,63,98,1748160912
73,19,18,Jits_Linear_8,3,1,48,30,1748221492
73,19,18,Jits_Linear_8,0,5,80,127,1748681340
73,19,18,Jits_Linear_8,1,1,48,45,1748695472
73,19,18,Jits_Linear_8,2,5,56,103,1748760908
73,19,18,Jits_Linear_8,3,1,48,20,1748769348
73,19,18,Jits_Linear_8,4,5,63,98,1748771380
73,19,18,Jits_Linear_8,0,1,48,51,1749191244
73,19,18,Jits_Linear_8,1,5,80,127,1749201384
73,19,18,Jits_Linear_8,2,5,56,103,1749250464
73,19,18,Jits_Linear_8,3,5,63,98,1749300580
73,19,18,Jits_Linear_8,0,1,48,47,1749697804
73,19,18,Jits_Linear_8,1,5,56,103,1749820692
73,19,18,Jits_Linear_8,2,5,63,98,1749823688
73,19,18,Jits_Linear_8,3,5,80,127,1749870900
73,19,18,Jits_Linear_8,0,1,48,37,1750212068
73,19,18,Jits_Linear_8,1,5,56,103,1750401288
73,19,18,Jits_Linear_8,2,5,63,98,1750431336
73,19,18,Jits_Linear_8,3,5,80,127,1750441460
73,19,18,Jits_Linear_8,0,1,48,53,1750699544
73,19,18,Jits_Linear_8,1,1,48,31,1750762376
73,19,18,Jits_Linear_8,2,5,63,98,1750871356
73,19,18,Jits_Linear_8,3,5,56,103,1750941336
73,19,18,Jits_Linear_8,4,5,80,127,1750991464
73,19,18,Jits_Linear_8,5,1,48,44,1751120692
73,19,18,Jits_Linear_8,0,5,63,98,1751461280
73,19,18,Jits_Linear_8,1,5,56,103,1751470428
73,19,18,Jits_Linear_8,2,5,80,127,1751473492
73,19,18,Jits_Linear_8,0,5,80,127,1751960900
73,19,18,Jits_Linear_8,1,1,48,56,1751992344
73,19,18,Jits_Linear_8,2,5,56,103,1752021288
73,19,18,Jits_Linear_8,3,1,48,27,1752062156
73,19,18,Jits_Linear_8,4,5,63,98,1752110500
73,19,18,Jits_Linear_8,0,1,48,53,1752492524
73,19,18,Jits_Linear_8,1,5,80,127,1752510684
73,19,18,Jits_Linear_8,2,1,48,35,1752551400
73,19,18,Jits_Linear_8,3,5,56,103,1752611284
73,19,18,Jits_Linear_8,4,5,63,98,1752651236
73,19,18,Jits_Linear_8,0,1,48,58,1753057268
73,19,18,Jits_Linear_8,1,5,56,103,1753111028
73,19,18,Jits_Linear_8,2,5,63,98,1753131488
73,19,18,Jits_Linear_8,3,1,48,26,1753170764
73,19,18,Jits_Linear_8,4,5,80,127,1753172256
73,19,18,Jits_Linear_8,0,1,48,56,1753627728
73,19,18,Jits_Linear_8,1,5,63,98,1753631356
73,19,18,Jits_Linear_8,2,5,56,103,1753650472
73,19,18,Jits_Linear_8,3,1,48,35,1753706860
73,19,18,Jits_Linear_8,4,5,80,127,1753750944
73,19,18,Jits_Linear_8,0,5,63,98,1754160460
73,19,18,Jits_Linear_8,1,1,48,53,1754161796
73,19,18,Jits_Linear_8,2,1,48,34,1754208692
73,19,18,Jits_Linear_8,3,5,80,127,1754271268
73,19,18,Jits_Linear_8,4,5,56,103,1754300780
73,19,18,Jits_Linear_8,0,1,48,47,1754700264
73,19,18,Jits_Linear_8,1,5,56,103,1754720592
73,19,18,Jits_Linear_8,2,5,63,98,1754751316
73,19,18,Jits_Linear_8,3,1,48,31,1754775540
73,19,18,Jits_Linear_8,4,5,80,127,1754800596
73,19,18,Jits_Linear_8,0,1,48,50,1755229528
73,19,18,Jits_Linear_8,1,5,63,98,1755231100
73,19,18,Jits_Linear_8,2,5,56,103,1755261376
73,19,18,Jits_Linear_8,3,1,48,35,1755287172
73,19,18,Jits_Linear_8,4,5,80,127,1755310436
73,19,18,Jits_Linear_8,0,5,56,103,1755800952
73,19,18,Jits_Linear_8,1,5,63,98,1755821340
73,19,18,Jits_Linear_8,2,1,48,45,1755831880
73,19,18,Jits_Linear_8,3,1,48,35,1755876344
73,19,18,Jits_Linear_8,4,5,80,127,1755901256
73,19,18,Jits_Linear_8,0,5,63,98,1756311180
73,19,18,Jits_Linear_8,1,1,48,46,1756345988
73,19,18,Jits_Linear_8,2,5,56,103,1756371344
73,19,18,Jits_Linear_8,3,5,80,127,1756401016
73,19,18,Jits_Linear_8,0,1,48,52,1756878092
73,19,18,Jits_Linear_8,1,5,56,103,1756890344
73,19,18,Jits_Linear_8,2,5,80,127,1756951332
73,19,18,Jits_Linear_8,3,5,63,98,1756991032
73,19,18,Jits_Linear_8,0,1,48,53,1757353504
73,19,18,Jits_Linear_8,1,5,63,98,1757400364
73,19,18,Jits_Linear_8,2,1,48,31,1757404216
73,19,18,Jits_Linear_8,3,5,56,103,1757460884
73,19,18,Jits_Linear_8,4,5,80,127,1757530424
73,19,18,Jits_Linear_8,0,1,48,55,1757920144
73,19,18,Jits_Linear_8,1,1,48,33,1757981408
73,19,18,Jits_Linear_8,2,5,56,103,1758010808
73,19,18,Jits_Linear_8,3,5,63,98,1758021248
73,19,18,Jits_Linear_8,4,5,80,127,1758024536
73,19,18,Jits_Linear_8,0,1,48,55,1758432304
73,19,18,Jits_Linear_8,1,5,63,98,1758480880
73,19,18,Jits_Linear_8,2,1,48,21,1758509012
73,19,18,Jits_Linear_8,3,5,56,103,1758541124
73,19,18,Jits_Linear_8,4,5,80,127,1758544188
73,19,18,Jits_Linear_8,0,1,48,56,1758930292
73,19,18,Jits_Linear_8,1,1,48,34,1758984880
73,19,18,Jits_Linear_8,2,5,63,98,1758990608
73,19,18,Jits_Linear_8,3,5,80,127,1759021480
73,19,18,Jits_Linear_8,4,5,56,103,1759040768
73,19,18,Jits_Linear_8,0,1,48,39,1759448672
73,19,18,Jits_Linear_8,1,5,56,103,1759521368
73,19,18,Jits_Linear_8,2,5,63,98,1759571360
73,19,18,Jits_Linear_8,3,5,80,127,1759651376
73,19,18,Jits_Linear_8,0,1,48,52,1759897688
73,19,18,Jits_Linear_8,1,1,48,31,1759967272
73,19,18,Jits_Linear_8,2,5,80,127,1760021024
73,19,18,Jits_Linear_8,3,5,63,98,1760060668
73,19,18,Jits_Linear_8,4,5,56,103,1760081336
73,19,18,Jits_Linear_8,0,1,48,52,1760400240
73,19,18,Jits_Linear_8,1,5,56,103,1760610736
73,19,18,Jits_Linear_8,2,5,80,127,1760621084
73,19,18,Jits_Linear_8,3,5,63,98,1760641392
73,19,18,Jits_Linear_8,4,1,48,51,1760864856
73,19,18,Jits_Linear_8,0,1,48,26,1760927376
73,19,18,Jits_Linear_8,1,5,56,103,1761111512
73,19,18,Jits_Linear_8,2,5,63,98,1761160520
73,19,18,Jits_Linear_8,3,5,80,127,1761191392
73,19,18,Jits_Linear_8,4,1,48,53,1761315640
73,19,18,Jits_Linear_8,0,5,56,103,1761581492
73,19,18,Jits_Linear_8,1,5,63,98,1761590640
73,19,18,Jits_Linear_8,2,5,80,127,1761641092
73,19,18,Jits_Linear_8,3,1,48,46,1761759808
73,19,18,Jits_Linear_8,0,5,56,103,1762091364
73,19,18,Jits_Linear_8,1,5,80,127,1762094432
73,19,18,Jits_Linear_8,2,1,48,53,1762200076
73,19,18,Jits_Linear_8,3,5,63,98,1762251116
73,19,18,Jits_Linear_8,4,1,48,26,1762275188
73,19,18,Jits_Linear_8,0,5,63,98,1762620664
73,19,18,Jits_Linear_8,1,1,48,58,1762630184
73,19,18,Jits_Linear_8,2,5,56,103,1762690296
73,19,18,Jits_Linear_8,3,1,48,32,1762704484
73,19,18,Jits_Linear_8,4,5,80,127,1762731260
73,19,18,Jits_Linear_8,0,1,48,41,1763137080
73,19,18,Jits_Linear_8,1,5,63,98,1763170608
73,19,18,Jits_Linear_8,2,5,56,103,1763261180
73,19,18,Jits_Linear_8,3,5,80,127,1763264092
73,19,18,Jits_Linear_8,0,1,48,59,1763549980
73,19,18,Jits_Linear_8,1,5,56,103,1763661124
73,19,18,Jits_Linear_8,2,5,63,98,1763751336
73,19,18,Jits_Linear_8,3,5,80,127,1763760560
73,19,18,Jits_Linear_8,0,1,48,55,1764017580
73,19,18,Jits_Linear_8,1,1,48,30,1764085664
73,19,18,Jits_Linear_8,2,5,56,103,1764141516
73,19,18,Jits_Linear_8,3,5,63,98,1764190536
73,19,18,Jits_Linear_8,4,5,80,127,1764221336
73,19,18,Jits_Linear_8,0,1,48,48,1764524280
73,19,18,Jits_Linear_8,1,1,48,25,1764613344
73,19,18,Jits_Linear_8,2,5,63,98,1764721196
73,19,18,Jits_Linear_8,3,5,80,127,1764731392
73,19,18,Jits_Linear_8,4,5,56,103,1764790736
73,19,18,Jits_Linear_8,0,1,48,55,1764981380
73,19,18,Jits_Linear_8,1,1,48,30,1765052836
73,19,18,Jits_Linear_8,2,5,63,98,1765141124
73,19,18,Jits_Linear_8,3,5,80,127,1765201156
73,19,18,Jits_Linear_8,4,5,56,103,1765241092
73,19,18,Jits_Linear_8,0,1,48,55,1765482828
73,19,18,Jits_Linear_8,1,5,56,103,1765741052
73,19,18,Jits_Linear_8,2,5,80,127,1765761440
73,19,18,Jits_Linear_8,3,5,63,98,1765781000
73,19,18,Jits_Linear_8,4,1,48,55,1765936112
73,19,18,Jits_Linear_8,0,5,63,98,1766160988
73,19,18,Jits_Linear_8,1,5,56,103,1766181228
73,19,18,Jits_Linear_8,2,5,80,127,1766221116
73,19,18,Jits_Linear_8,3,1,48,45,1766396752
73,19,18,Jits_Linear_8,0,5,63,98,1766670848
73,19,18,Jits_Linear_8,1,5,80,127,1766701352
73,19,18,Jits_Linear_8,2,5,56,103,1766721084
73,19,18,Jits_Linear_8,3,1,48,54,1766831560
73,19,18,Jits_Linear_8,0,5,80,127,1767140708
73,19,18,Jits_Linear_8,1,5,56,103,1767190912
73,19,18,Jits_Linear_8,2,5,63,98,1767251400
73,19,18,Jits_Linear_8,3,1,48,56,1767275796
73,19,18,Jits_Linear_8,0,5,63,98,1767620920
73,19,18,Jits_Linear_8,1,1,48,68,1767729084
73,19,18,Jits_Linear_8,2,5,56,103,1767740868
73,19,18,Jits_Linear_8,3,5,80,127,1767770496
73,19,18,Jits_Linear_8,4,1,48,32,1767800720
73,19,18,Jits_Linear_8,0,5,80,127,1768151368
73,19,18,Jits_Linear_8,1,5,63,98,1768171080
73,19,18,Jits_Linear_8,2,1,48,53,1768201252
73,19,18,Jits_Linear_8,3,5,56,103,1768240604
73,19,18,Jits_Linear_8,4,1,48,21,1768302096
73,19,18,Jits_Linear_8,0,5,63,98,1768661448
73,19,18,Jits_Linear_8,1,5,56,103,1768670452
73,19,18,Jits_Linear_8,2,1,48,62,1768681588
73,19,18,Jits_Linear_8,3,5,80,127,1768750388
73,19,18,Jits_Linear_8,4,1,48,29,1768756484
73,19,18,Jits_Linear_8,0,1,48,43,1769158364
73,19,18,Jits_Linear_8,1,5,56,103,1769211148
73,19,18,Jits_Linear_8,2,5,80,127,1769241124
73,19,18,Jits_Linear_8,3,5,63,98,1769251172
73,19,18,Jits_Linear_8,0,9999,9999,9999,1658868796
73,19,18,Jits_Linear_8,1,9999,9999,9999,1659689032
73,19,18,Jits_Linear_8,2,9999,9999,9999,1660508264
73,19,18,Jits_Linear_8,3,9999,9999,9999,1661328440
73,19,18,Jits_Linear_8,4,9999,9999,9999,1662148688
73,19,18,Jits_Linear_8,5,9999,9999,9999,1662958720
73,19,18,Jits_Linear_8,6,9999,9999,9999,1663768672
73,19,18,Jits_Linear_8,7,9999,9999,9999,1664578632
73,19,18,Jits_Linear_8,8,9999,9999,9999,1665388600
73,19,18,Jits_Linear_8,9,9999,9999,9999,1666198600
73,19,18,Jits_Linear_8,10,9999,9999,9999,1666998360
73,19,18,Jits_Linear_8,11,9999,9999,9999,1667798116
73,19,18,Jits_Linear_8,12,9999,9999,9999,1668598844
73,19,18,Jits_Linear_8,13,9999,9999,9999,1669398596
73,19,18,Jits_Linear_8,14,9999,9999,9999,1670198336
73,19,18,Jits_Linear_8,15,9999,9999,9999,1670988888
73,19,18,Jits_Linear_8,16,9999,9999,9999,1671778364
73,19,18,Jits_Linear_8,17,9999,9999,9999,1672568956
73,19,18,Jits_Linear_8,18,9999,9999,9999,1673358444
73,19,18,Jits_Linear_8,19,9999,9999,9999,1674148964
73,19,18,Jits_Linear_8,20,9999,9999,9999,1674928240
73,19,18,Jits_Linear_8,21,9999,9999,9999,1675708488
73,19,18,Jits_Linear_8,22,9999,9999,9999,1676488816
73,19,18,Jits_Linear_8,23,9999,9999,9999,1677269076
73,19,18,Jits_Linear_8,24,9999,9999,9999,1678048372
73,19,18,Jits_Linear_8,25,9999,9999,9999,1678818396
73,19,18,Jits_Linear_8,26,9999,9999,9999,1679588424
73,19,18,Jits_Linear_8,27,9999,9999,9999,1680358524
73,19,18,Jits_Linear_8,28,9999,9999,9999,1681128544
73,19,18,Jits_Linear_8,29,9999,9999,9999,1681898560
73,19,18,Jits_Linear_8,30,9999,9999,9999,1682658428
73,19,18,Jits_Linear_8,31,9999,9999,9999,1683418240
73,19,18,Jits_Linear_8,32,9999,9999,9999,1684179028
73,19,18,Jits_Linear_8,33,9999,9999,9999,1684938840
73,19,18,Jits_Linear_8,34,9999,9999,9999,1685698660
73,19,18,Jits_Linear_8,35,9999,9999,9999,1686448204
73,19,18,Jits_Linear_8,36,9999,9999,9999,1687198808
73,19,18,Jits_Linear_8,37,9999,9999,9999,1687948344
73,19,18,Jits_Linear_8,38,9999,9999,9999,1688698940
73,19,18,Jits_Linear_8,39,9999,9999,9999,1689448568
73,19,18,Jits_Linear_8,40,9999,9999,9999,1690188904
73,19,18,Jits_Linear_8,41,9999,9999,9999,1690928232
73,19,18,Jits_Linear_8,42,9999,9999,9999,1691668544
73,19,18,Jits_Linear_8,43,9999,9999,9999,1692408952
73,19,18,Jits_Linear_8,44,9999,9999,9999,1693148260
73,19,18,Jits_Linear_8,45,9999,9999,9999,1693878340
73,19,18,Jits_Linear_8,46,9999,9999,9999,1694608496
73,19,18,Jits_Linear_8,47,9999,9999,9999,1695338612
73,19,18,Jits_Linear_8,48,9999,9999,9999,1696068664
73,19,18,Jits_Linear_8,49,9999,9999,9999,1696798832
73,19,18,Jits_Linear_8,50,9999,9999,9999,1697518696
73,19,18,Jits_Linear_8,51,9999,9999,9999,1698238580
73,19,18,Jits_Linear_8,52,9999,9999,9999,1698958392
73,19,18,Jits_Linear_8,53,9999,9999,9999,1699678268
73,19,18,Jits_Linear_8,54,9999,9999,9999,1700398176
73,19,18,Jits_Linear_8,55,9999,9999,9999,1701108844
73,19,18,Jits_Linear_8,56,9999,9999,9999,1701818436
73,19,18,Jits_Linear_8,57,9999,9999,9999,1702528056
73,19,18,Jits_Linear_8,58,9999,9999,9999,1703238780
73,19,18,Jits_Linear_8,59,9999,9999,9999,1703948368
73,19,18,Jits_Linear_8,60,9999,9999,9999,1704648800
73,19,18,Jits_Linear_8,61,9999,9999,9999,1705348180
73,19,18,Jits_Linear_8,62,9999,9999,9999,1706048632
73,19,18,Jits_Linear_8,63,9999,9999,9999,1706749024
73,19,18,Jits_Linear_8,64,9999,9999,9999,1707448388
73,19,18,Jits_Linear_8,65,9999,9999,9999,1708138592
73,19,18,Jits_Linear_8,66,9999,9999,9999,1708828768
73,19,18,Jits_Linear_8,67,9999,9999,9999,1709518968
73,19,18,Jits_Linear_8,68,9999,9999,9999,1710208124
73,19,18,Jits_Linear_8,69,9999,9999,9999,1710898248
73,19,18,Jits_Linear_8,70,9999,9999,9999,1711578216
73,19,18,Jits_Linear_8,71,9999,9999,9999,1712258160
73,19,18,Jits_Linear_8,72,9999,9999,9999,1712939108
73,19,18,Jits_Linear_8,73,9999,9999,9999,1713628280
73,19,18,Jits_Linear_8,74,9999,9999,9999,1714308224
73,19,18,Jits_Linear_8,75,9999,9999,9999,1714978940
73,19,18,Jits_Linear_8,76,9999,9999,9999,1715648624
73,19,18,Jits_Linear_8,77,9999,9999,9999,1716318328
73,19,18,Jits_Linear_8,78,9999,9999,9999,1716989052
73,19,18,Jits_Linear_8,79,9999,9999,9999,1717658688
73,19,18,Jits_Linear_8,80,9999,9999,9999,1718318160
73,19,18,Jits_Linear_8,81,9999,9999,9999,1718978628
73,19,18,Jits_Linear_8,82,9999,9999,9999,1719638136
73,19,18,Jits_Linear_8,83,9999,9999,9999,1720298564
73,19,18,Jits_Linear_8,84,9999,9999,9999,1720959100
73,19,18,Jits_Linear_8,85,9999,9999,9999,1721608252
73,19,18,Jits_Linear_8,86,9999,9999,9999,1722258528
73,19,18,Jits_Linear_8,87,9999,9999,9999,1722908776
73,19,18,Jits_Linear_8,88,9999,9999,9999,1723558996
73,19,18,Jits_Linear_8,89,9999,9999,9999,1724208220
73,19,18,Jits_Linear_8,90,9999,9999,9999,1724848256
73,19,18,Jits_Linear_8,91,9999,9999,9999,1725488252
73,19,18,Jits_Linear_8,92,9999,9999,9999,1726128200
73,19,18,Jits_Linear_8,93,9999,9999,9999,1726768196
73,19,18,Jits_Linear_8,94,9999,9999,9999,1727408244
73,19,18,Jits_Linear_8,95,9999,9999,9999,1728038976
73,19,18,Jits_Linear_8,96,9999,9999,9999,1728668740
73,19,18,Jits_Linear_8,97,9999,9999,9999,1729298556
73,19,18,Jits_Linear_8,98,9999,9999,9999,1729928272
73,19,18,Jits_Linear_8,99,9999,9999,9999,1730559044
73,19,18,Jits_Linear_8,100,9999,9999,9999,1731178620
73,19,18,Jits_Linear_8,101,9999,9999,9999,1731798112
73,19,18,Jits_Linear_8,102,9999,9999,9999,1732418672
73,19,18,Jits_Linear_8,103,9999,9999,9999,1733038168
73,19,18,Jits_Linear_8,104,9999,9999,9999,1733658688
73,19,18,Jits_Linear_8,105,9999,9999,9999,1734269032
73,19,18,Jits_Linear_8,106,9999,9999,9999,1734878304
73,19,18,Jits_Linear_8,107,9999,9999,9999,1735488584
73,19,18,Jits_Linear_8,108,9999,9999,9999,1736098924
73,19,18,Jits_Linear_8,109,9999,9999,9999,1736708220
73,19,18,Jits_Linear_8,110,9999,9999,9999,1737308240
73,19,18,Jits_Linear_8,111,9999,9999,9999,1737908308
73,19,18,Jits_Linear_8,112,9999,9999,9999,1738508368
73,19,18,Jits_Linear_8,113,9999,9999,9999,1739108480
73,19,18,Jits_Linear_8,114,9999,9999,9999,1739708504
73,19,18,Jits_Linear_8,115,9999,9999,9999,1740298316
73,19,18,Jits_Linear_8,116,9999,9999,9999,1740888176
73,19,18,Jits_Linear_8,117,9999,9999,9999,1741479040
73,19,18,Jits_Linear_8,118,9999,9999,9999,1742068864
73,19,18,Jits_Linear_8,119,9999,9999,9999,1742658644
73,19,18,Jits_Linear_8,120,9999,9999,9999,1743238252
73,19,18,Jits_Linear_8,121,9999,9999,9999,1743818852
73,19,18,Jits_Linear_8,122,9999,9999,9999,1744398460
73,19,18,Jits_Linear_8,123,9999,9999,9999,1744979064
73,19,18,Jits_Linear_8,124,9999,9999,9999,1745558612
73,19,18,Jits_Linear_8,125,9999,9999,9999,1746129020
73,19,18,Jits_Linear_8,126,9999,9999,9999,1746698312
73,19,18,Jits_Linear_8,127,9999,9999,9999,1747268664
73,19,18,Jits_Linear_8,128,9999,9999,9999,1747839044
73,19,18,Jits_Linear_8,129,9999,9999,9999,1748408396
73,19,18,Jits_Linear_8,130,9999,9999,9999,1748968532
73,19,18,Jits_Linear_8,131,9999,9999,9999,1749528680
73,19,18,Jits_Linear_8,132,9999,9999,9999,1750088816
73,19,18,Jits_Linear_8,133,9999,9999,9999,1750648888
73,19,18,Jits_Linear_8,134,9999,9999,9999,1751209076
73,19,18,Jits_Linear_8,135,9999,9999,9999,1751758912
73,19,18,Jits_Linear_8,136,9999,9999,9999,1752308848
73,19,18,Jits_Linear_8,137,9999,9999,9999,1752858712
73,19,18,Jits_Linear_8,138,9999,9999,9999,1753408588
73,19,18,Jits_Linear_8,139,9999,9999,9999,1753958508
73,19,18,Jits_Linear_8,140,9999,9999,9999,1754498168
73,19,18,Jits_Linear_8,141,9999,9999,9999,1755038796
73,19,18,Jits_Linear_8,142,9999,9999,9999,1755578452
73,19,18,Jits_Linear_8,143,9999,9999,9999,1756118108
73,19,18,Jits_Linear_8,144,9999,9999,9999,1756658772
73,19,18,Jits_Linear_8,145,9999,9999,9999,1757188200
73,19,18,Jits_Linear_8,146,9999,9999,9999,1757718648
73,19,18,Jits_Linear_8,147,9999,9999,9999,1758249016
73,19,18,Jits_Linear_8,148,9999,9999,9999,1758778476
73,19,18,Jits_Linear_8,149,9999,9999,9999,1759308860
73,19,18,Jits_Linear_8,150,9999,9999,9999,1759829064
73,19,18,Jits_Linear_8,151,9999,9999,9999,1760348248
73,19,18,Jits_Linear_8,152,9999,9999,9999,1760868444
73,19,18,Jits_Linear_8,153,9999,9999,9999,1761388624
73,19,18,Jits_Linear_8,154,9999,9999,9999,1761908804
73,19,18,Jits_Linear_8,155,9999,9999,9999,1762418776
73,19,18,Jits_Linear_8,156,9999,9999,9999,1762928708
73,19,18,Jits_Linear_8,157,9999,9999,9999,1763438712
73,19,18,Jits_Linear_8,158,9999,9999,9999,1763948660
73,19,18,Jits_Linear_8,159,9999,9999,9999,1764458580
73,19,18,Jits_Linear_8,160,9999,9999,9999,1764958312
73,19,18,Jits_Linear_8,161,9999,9999,9999,1765459008
73,19,18,Jits_Linear_8,162,9999,9999,9999,1765958756
73,19,18,Jits_Linear_8,163,9999,9999,9999,1766458476
73,19,18,Jits_Linear_8,164,9999,9999,9999,1766958136
73,19,18,Jits_Linear_8,165,9999,9999,9999,1767448672
73,19,18,Jits_Linear_8,166,9999,9999,9999,1767938156
73,19,18,Jits_Linear_8,167,9999,9999,9999,1768428668
73,19,18,Jits_Linear_8,168,9999,9999,9999,1768918072
73,19,18,Jits_Linear_8,169,9999,9999,9999,1769408616
73,20,19,Jits_Linear_5,0,5,56,103,1779104076
73,20,19,Jits_Linear_5,1,5,63,98,1779107176
73,20,19,Jits_Linear_5,2,5,80,127,1779110376
73,20,19,Jits_Linear_5,0,5,56,103,1779584468
73,20,19,Jits_Linear_5,1,5,63,98,1779587492
73,20,19,Jits_Linear_5,2,5,80,127,1779590764
73,20,19,Jits_Linear_5,0,5,56,103,1780063748
73,20,19,Jits_Linear_5,1,5,80,127,1780073872
73,20,19,Jits_Linear_5,2,5,63,98,1780094480
73,20,19,Jits_Linear_5,0,5,63,98,1780493860
73,20,19,Jits_Linear_5,1,5,80,127,1780524656
73,20,19,Jits_Linear_5,2,5,56,103,1780533732
73,20,19,Jits_Linear_5,0,5,80,127,1781034336
73,20,19,Jits_Linear_5,1,5,56,103,1781043784
73,20,19,Jits_Linear_5,2,5,63,98,1781074232
73,20,19,Jits_Linear_5,3,1,48,23,1781168824
73,20,19,Jits_Linear_5,0,5,63,98,1781513520
73,20,19,Jits_Linear_5,1,5,56,103,1781544244
73,20,19,Jits_Linear_5,2,5,80,127,1781553764
73,20,19,Jits_Linear_5,0,5,56,103,1781953832
73,20,19,Jits_Linear_5,1,5,63,98,1782004112
73,20,19,Jits_Linear_5,2,5,80,127,1782023748
73,20,19,Jits_Linear_5,3,1,48,22,1782038472
73,20,19,Jits_Linear_5,0,5,80,127,1782444392
73,20,19,Jits_Linear_5,1,5,63,98,1782493844
73,20,19,Jits_Linear_5,2,5,56,103,1782533412
73,20,19,Jits_Linear_5,0,5,56,103,1782933864
73,20,19,Jits_Linear_5,1,5,63,98,1782963764
73,20,19,Jits_Linear_5,2,1,48,47,1782973784
73,20,19,Jits_Linear_5,3,5,80,127,1783034112
73,20,19,Jits_Linear_5,0,5,56,103,1783424276
73,20,19,Jits_Linear_5,1,5,80,127,1783483696
73,20,19,Jits_Linear_5,2,5,63,98,1783513520
73,20,19,Jits_Linear_5,0,1,48,54,1783791176
73,20,19,Jits_Linear_5,1,5,56,103,1783924212
73,20,19,Jits_Linear_5,2,5,63,98,1783934336
73,20,19,Jits_Linear_5,3,5,80,127,1783974348
73,20,19,Jits_Linear_5,0,5,63,98,1784413660
73,20,19,Jits_Linear_5,1,5,80,127,1784493608
73,20,19,Jits_Linear_5,2,5,56,103,1784503880
73,20,19,Jits_Linear_5,0,1,48,60,1784855476
73,20,19,Jits_Linear_5,1,5,63,98,1784963556
73,20,19,Jits_Linear_5,2,5,56,103,1785004468
73,20,19,Jits_Linear_5,3,5,80,127,1785007608
73,20,19,Jits_Linear_5,0,5,56,103,1785424224
73,20,19,Jits_Linear_5,1,5,63,98,1785433748
73,20,19,Jits_Linear_5,2,5,80,127,1785474360
73,20,19,Jits_Linear_5,3,1,48,52,1785645664
73,20,19,Jits_Linear_5,0,5,56,103,1785913860
73,20,19,Jits_Linear_5,1,5,63,98,1785916700
73,20,19,Jits_Linear_5,2,5,80,127,1785934192
73,20,19,Jits_Linear_5,0,1,48,52,1786368812
73,20,19,Jits_Linear_5,1,5,80,127,1786433828
73,20,19,Jits_Linear_5,2,5,56,103,1786444100
73,20,19,Jits_Linear_5,3,5,63,98,1786513988
73,20,19,Jits_Linear_5,0,1,48,48,1786806684
73,20,19,Jits_Linear_5,1,5,63,98,1786933772
73,20,19,Jits_Linear_5,2,5,56,103,1786953960
73,20,19,Jits_Linear_5,3,5,80,127,1787033904
73,20,19,Jits_Linear_5,0,1,48,45,1787294684
73,20,19,Jits_Linear_5,1,5,56,103,1787453840
73,20,19,Jits_Linear_5,2,5,80,127,1787493632
73,20,19,Jits_Linear_5,3,5,63,98,1787504128
73,20,19,Jits_Linear_5,0,1,48,51,1787780776
73,20,19,Jits_Linear_5,1,1,48,33,1787834712
73,20,19,Jits_Linear_5,2,5,80,127,1787953924
73,20,19,Jits_Linear_5,3,5,63,98,1787984452
73,20,19,Jits_Linear_5,4,5,56,103,1788024168
73,20,19,Jits_Linear_5,0,1,48,48,1788287708
73,20,19,Jits_Linear_5,1,5,56,103,1788483908
73,20,19,Jits_Linear_5,2,5,63,98,1788513808
73,20,19,Jits_Linear_5,3,5,80,127,1788563936
73,20,19,Jits_Linear_5,0,1,48,48,1788788300
73,20,19,Jits_Linear_5,1,5,80,127,1788993788
73,20,19,Jits_Linear_5,2,5,56,103,1789033876
73,20,19,Jits_Linear_5,3,5,63,98,1789044148
73,20,19,Jits_Linear_5,0,1,48,51,1789292056
73,20,19,Jits_Linear_5,1,5,80,127,1789493512
73,20,19,Jits_Linear_5,2,5,63,98,1789533552
73,20,19,Jits_Linear_5,3,5,56,103,1789593940
73,20,19,Jits_Linear_5,4,1,48,56,1789789160
73,20,19,Jits_Linear_5,0,1,48,32,1789857460
73,20,19,Jits_Linear_5,1,5,56,103,1790013920
73,20,19,Jits_Linear_5,2,5,80,127,1790024044
73,20,19,Jits_Linear_5,3,5,63,98,1790103912
73,20,19,Jits_Linear_5,4,1,48,52,1790296812
73,20,19,Jits_Linear_5,0,1,48,28,1790368552
73,20,19,Jits_Linear_5,1,5,80,127,1790533956
73,20,19,Jits_Linear_5,2,5,63,98,1790594648
73,20,19,Jits_Linear_5,3,5,56,103,1790624100
73,20,19,Jits_Linear_5,0,1,48,53,1790853740
73,20,19,Jits_Linear_5,1,5,56,103,1791054248
73,20,19,Jits_Linear_5,2,5,80,127,1791113520
73,20,19,Jits_Linear_5,3,5,63,98,1791153608
73,20,19,Jits_Linear_5,4,1,48,55,1791325760
73,20,19,Jits_Linear_5,0,5,56,103,1791633728
73,20,19,Jits_Linear_5,1,5,63,98,1791644000
73,20,19,Jits_Linear_5,2,5,80,127,1791647436
73,20,19,Jits_Linear_5,3,1,48,56,1791850452
73,20,19,Jits_Linear_5,0,5,80,127,1792114016
73,20,19,Jits_Linear_5,1,5,63,98,1792204084
73,20,19,Jits_Linear_5,2,5,56,103,1792214576
73,20,19,Jits_Linear_5,3,1,48,63,1792291108
73,20,19,Jits_Linear_5,0,5,56,103,1792643596
73,20,19,Jits_Linear_5,1,5,63,98,1792646848
73,20,19,Jits_Linear_5,2,5,80,127,1792649892
73,20,19,Jits_Linear_5,3,1,48,21,1792865956
73,20,19,Jits_Linear_5,0,5,80,127,1793194460
73,20,19,Jits_Linear_5,1,5,63,98,1793243396
73,20,19,Jits_Linear_5,2,1,48,56,1793265544
73,20,19,Jits_Linear_5,3,5,56,103,1793274408
73,20,19,Jits_Linear_5,4,1,48,29,1793332288
73,20,19,Jits_Linear_5,0,5,56,103,1793704328
73,20,19,Jits_Linear_5,1,5,80,127,1793713700
73,20,19,Jits_Linear_5,2,1,48,53,1793754804
73,20,19,Jits_Linear_5,3,5,63,98,1793784124
73,20,19,Jits_Linear_5,0,1,48,51,1794208708
73,20,19,Jits_Linear_5,1,5,56,103,1794243884
73,20,19,Jits_Linear_5,2,5,63,98,1794264416
73,20,19,Jits_Linear_5,3,5,80,127,1794323744
73,20,19,Jits_Linear_5,0,1,48,51,1794678420
73,20,19,Jits_Linear_5,1,5,80,127,1794774416
73,20,19,Jits_Linear_5,2,5,63,98,1794844028
73,20,19,Jits_Linear_5,3,5,56,103,1794863440
73,20,19,Jits_Linear_5,0,1,48,48,1795194816
73,20,19,Jits_Linear_5,1,5,80,127,1795333668
73,20,19,Jits_Linear_5,2,5,56,103,1795343864
73,20,19,Jits_Linear_5,3,5,63,98,1795354064
73,20,19,Jits_Linear_5,0,1,48,55,1795719524
73,20,19,Jits_Linear_5,1,5,80,127,1795863996
73,20,19,Jits_Linear_5,2,5,56,103,1795884384
73,20,19,Jits_Linear_5,3,5,63,98,1795954016
73,20,19,Jits_Linear_5,0,1,48,43,1796259144
73,20,19,Jits_Linear_5,1,1,48,16,1796371428
73,20,19,Jits_Linear_5,2,5,56,103,1796414048
73,20,19,Jits_Linear_5,3,5,80,127,1796443504
73,20,19,Jits_Linear_5,4,5,63,98,1796463948
73,20,19,Jits_Linear_5,0,1,48,49,1796819340
73,20,19,Jits_Linear_5,1,5,63,98,1796953648
73,20,19,Jits_Linear_5,2,5,56,103,1797014044
73,20,19,Jits_Linear_5,3,5,80,127,1797043496
73,20,19,Jits_Linear_5,0,1,48,61,1797291692
73,20,19,Jits_Linear_5,1,5,63,98,1797494168
73,20,19,Jits_Linear_5,2,5,80,127,1797497680
73,20,19,Jits_Linear_5,3,5,56,103,1797584224
73,20,19,Jits_Linear_5,4,1,48,52,1797809192
73,20,19,Jits_Linear_5,0,5,56,103,1798063444
73,20,19,Jits_Linear_5,1,5,63,98,1798094168
73,20,19,Jits_Linear_5,2,5,80,127,1798134256
73,20,19,Jits_Linear_5,3,1,48,52,1798330976
73,20,19,Jits_Linear_5,0,1,48,22,1798412264
73,20,19,Jits_Linear_5,1,5,63,98,1798614668
73,20,19,Jits_Linear_5,2,5,56,103,1798654312
73,20,19,Jits_Linear_5,3,5,80,127,1798673724
73,20,19,Jits_Linear_5,4,1,48,56,1798782508
73,20,19,Jits_Linear_5,5,1,48,32,1798874328
73,20,19,Jits_Linear_5,0,5,63,98,1799173364
73,20,19,Jits_Linear_5,1,5,56,103,1799213676
73,20,19,Jits_Linear_5,2,5,80,127,1799223724
73,20,19,Jits_Linear_5,3,1,48,51,1799315868
73,20,19,Jits_Linear_5,0,5,80,127,1799714256
73,20,19,Jits_Linear_5,1,5,63,98,1799783668
73,20,19,Jits_Linear_5,2,5,56,103,1799804424
73,20,19,Jits_Linear_5,3,1,48,43,1799899836
73,20,19,Jits_Linear_5,0,5,56,103,1800264256
73,20,19,Jits_Linear_5,1,5,80,127,1800283596
73,20,19,Jits_Linear_5,2,5,63,98,1800323388
73,20,19,Jits_Linear_5,3,1,48,48,1800529096
73,20,19,Jits_Linear_5,0,5,63,98,1800834308
73,20,19,Jits_Linear_5,1,5,80,127,1800853944
73,20,19,Jits_Linear_5,2,5,56,103,1800893808
73,20,19,Jits_Linear_5,0,1,48,43,1801249896
73,20,19,Jits_Linear_5,1,5,63,98,1801393716
73,20,19,Jits_Linear_5,2,5,56,103,1801413956
73,20,19,Jits_Linear_5,3,5,80,127,1801424596
73,20,19,Jits_Linear_5,4,1,48,29,1801663880
73,20,19,Jits_Linear_5,0,5,80,127,1801953636
73,20,19,Jits_Linear_5,1,1,48,47,1801974392
73,20,19,Jits_Linear_5,2,5,56,103,1801975652
73,20,19,Jits_Linear_5,3,5,63,98,1802003764
73,20,19,Jits_Linear_5,0,1,48,51,1802576420
73,20,19,Jits_Linear_5,1,5,56,103,1802593608
73,20,19,Jits_Linear_5,2,5,80,127,1802596672
73,20,19,Jits_Linear_5,3,5,63,98,1802614140
73,20,19,Jits_Linear_5,0,5,63,98,1803084300
73,20,19,Jits_Linear_5,1,5,56,103,1803113756
73,20,19,Jits_Linear_5,2,5,80,127,1803174516
73,20,19,Jits_Linear_5,3,1,48,54,1803203040
73,20,19,Jits_Linear_5,4,1,48,33,1803244892
73,20,19,Jits_Linear_5,0,5,63,98,1803734556
73,20,19,Jits_Linear_5,1,1,48,55,1803741512
73,20,19,Jits_Linear_5,2,5,56,103,1803743548
73,20,19,Jits_Linear_5,3,5,80,127,1803753744
73,20,19,Jits_Linear_5,4,1,48,37,1803791992
73,20,19,Jits_Linear_5,0,5,56,103,1804253548
73,20,19,Jits_Linear_5,1,5,80,127,1804284348
73,20,19,Jits_Linear_5,2,5,63,98,1804293500
73,20,19,Jits_Linear_5,3,1,48,52,1804441764
73,20,19,Jits_Linear_5,0,5,63,98,1804863864
73,20,19,Jits_Linear_5,1,5,56,103,1804874284
73,20,19,Jits_Linear_5,2,5,80,127,1804893548
73,20,19,Jits_Linear_5,3,1,48,49,1805005664
73,20,19,Jits_Linear_5,0,5,56,103,1805363604
73,20,19,Jits_Linear_5,1,5,63,98,1805424020
73,20,19,Jits_Linear_5,2,5,80,127,1805427380
73,20,19,Jits_Linear_5,3,1,48,47,1805587152
73,20,19,Jits_Linear_5,4,1,48,26,1805640640
73,20,19,Jits_Linear_5,0,5,80,127,1805963756
73,20,19,Jits_Linear_5,1,5,56,103,1805974028
73,20,19,Jits_Linear_5,2,5,63,98,1806043488
73,20,19,Jits_Linear_5,3,1,48,55,1806158772
73,20,19,Jits_Linear_5,0,5,80,127,1806534184
73,20,19,Jits_Linear_5,1,5,56,103,1806603720
73,20,19,Jits_Linear_5,2,5,63,98,1806613916
73,20,19,Jits_Linear_5,3,1,48,55,1806694828
73,20,19,Jits_Linear_5,4,1,48,32,1806751280
73,20,19,Jits_Linear_5,0,5,63,98,1807153516
73,20,19,Jits_Linear_5,1,5,56,103,1807163636
73,20,19,Jits_Linear_5,2,5,80,127,1807184492
73,20,19,Jits_Linear_5,3,1,48,55,1807221540
73,20,19,Jits_Linear_5,0,5,80,127,1807684168
73,20,19,Jits_Linear_5,1,1,48,59,1807691324
73,20,19,Jits_Linear_5,2,5,63,98,1807744404
73,20,19,Jits_Linear_5,3,1,48,39,1807751096
73,20,19,Jits_Linear_5,4,5,56,103,1807784248
73,20,19,Jits_Linear_5,0,1,48,48,1808211292
73,20,19,Jits_Linear_5,1,5,56,103,1808313736
73,20,19,Jits_Linear_5,2,5,63,98,1808324380
73,20,19,Jits_Linear_5,3,5,80,127,1808364096
73,20,19,Jits_Linear_5,0,1,48,59,1808770764
73,20,19,Jits_Linear_5,1,1,48,38,1808817428
73,20,19,Jits_Linear_5,2,5,56,103,1808863536
73,20,19,Jits_Linear_5,3,5,80,127,1808894188
73,20,19,Jits_Linear_5,4,5,63,98,1808943328
73,20,19,Jits_Linear_5,0,1,48,60,1809312312
73,20,19,Jits_Linear_5,1,1,48,43,1809356112
73,20,19,Jits_Linear_5,2,5,56,103,1809494388
73,20,19,Jits_Linear_5,3,5,63,98,1809534252
73,20,19,Jits_Linear_5,4,5,80,127,1809537544
73,20,19,Jits_Linear_5,0,1,48,48,1809887700
73,20,19,Jits_Linear_5,1,5,56,103,1810084120
73,20,19,Jits_Linear_5,2,5,63,98,1810093564
73,20,19,Jits_Linear_5,3,5,80,127,1810114024
73,20,19,Jits_Linear_5,0,1,48,48,1810448964
73,20,19,Jits_Linear_5,1,1,48,34,1810515060
73,20,19,Jits_Linear_5,2,5,56,103,1810644312
73,20,19,Jits_Linear_5,3,5,80,127,1810647528
73,20,19,Jits_Linear_5,4,5,63,98,1810684404
73,20,19,Jits_Linear_5,0,1,48,51,1810996272
73,20,19,Jits_Linear_5,1,5,63,98,1811274056
73,20,19,Jits_Linear_5,2,5,56,103,1811303732
73,20,19,Jits_Linear_5,3,5,80,127,1811324268
73,20,19,Jits_Linear_5,4,1,48,41,1811512736
73,20,19,Jits_Linear_5,0,1,48,26,1811610108
73,20,19,Jits_Linear_5,1,5,80,127,1811843396
73,20,19,Jits_Linear_5,2,5,56,103,1811853668
73,20,19,Jits_Linear_5,3,5,63,98,1811863864
73,20,19,Jits_Linear_5,4,1,48,58,1812007444
73,20,19,Jits_Linear_5,0,5,56,103,1812453808
73,20,19,Jits_Linear_5,1,5,80,127,1812493896
73,20,19,Jits_Linear_5,2,5,63,98,1812524472
73,20,19,Jits_Linear_5,3,1,48,47,1812529240
73,20,19,Jits_Linear_5,0,1,48,43,1813019992
73,20,19,Jits_Linear_5,1,5,63,98,1813064476
73,20,19,Jits_Linear_5,2,5,80,127,1813074228
73,20,19,Jits_Linear_5,3,5,56,103,1813083380
73,20,19,Jits_Linear_5,4,1,48,21,1813088876
73,20,19,Jits_Linear_5,0,1,48,51,1813594304
73,20,19,Jits_Linear_5,1,5,56,103,1813643556
73,20,19,Jits_Linear_5,2,1,48,35,1813658720
73,20,19,Jits_Linear_5,3,5,63,98,1813714264
73,20,19,Jits_Linear_5,4,5,80,127,1813723492
73,20,19,Jits_Linear_5,0,1,48,52,1814113140
73,20,19,Jits_Linear_5,1,5,80,127,1814254232
73,20,19,Jits_Linear_5,2,5,56,103,1814264356
73,20,19,Jits_Linear_5,3,5,63,98,1814314408
73,20,19,Jits_Linear_5,0,1,48,63,1814749848
73,20,19,Jits_Linear_5,1,5,80,127,1814873448
73,20,19,Jits_Linear_5,2,5,56,103,1814933764
73,20,19,Jits_Linear_5,3,5,63,98,1814963664
73,20,19,Jits_Linear_5,0,1,48,55,1815441828
73,20,19,Jits_Linear_5,1,5,56,103,1815483804
73,20,19,Jits_Linear_5,2,5,80,127,1815486944
73,20,19,Jits_Linear_5,3,5,63,98,1815523744
73,20,19,Jits_Linear_5,0,1,48,62,1816009892
73,20,19,Jits_Linear_5,1,5,56,103,1816123648
73,20,19,Jits_Linear_5,2,5,63,98,1816153352
73,20,19,Jits_Linear_5,3,5,80,127,1816163620
73,20,19,Jits_Linear_5,0,1,48,60,1816560968
73,20,19,Jits_Linear_5,1,5,63,98,1816744432
73,20,19,Jits_Linear_5,2,5,80,127,1816753508
73,20,19,Jits_Linear_5,3,5,56,103,1816764076
73,20,19,Jits_Linear_5,0,1,48,62,1817203952
73,20,19,Jits_Linear_5,1,5,80,127,1817304356
73,20,19,Jits_Linear_5,2,5,56,103,1817353664
73,20,19,Jits_Linear_5,3,5,63,98,1817356656
73,20,19,Jits_Linear_5,0,1,48,64,1817793524
73,20,19,Jits_Linear_5,1,5,56,103,1817953604
73,20,19,Jits_Linear_5,2,5,80,127,1817974064
73,20,19,Jits_Linear_5,3,5,63,98,1817984484
73,20,19,Jits_Linear_5,0,1,48,62,1818437832
73,20,19,Jits_Linear_5,1,5,63,98,1818553608
73,20,19,Jits_Linear_5,2,5,56,103,1818584332
73,20,19,Jits_Linear_5,3,5,80,127,1818604044
73,20,19,Jits_Linear_5,0,1,48,65,1818990476
73,20,19,Jits_Linear_5,1,5,56,103,1819183508
73,20,19,Jits_Linear_5,2,5,80,127,1819194000
73,20,19,Jits_Linear_5,3,5,63,98,1819264308
73,20,19,Jits_Linear_5,0,1,48,65,1819588088
73,20,19,Jits_Linear_5,1,1,48,42,1819650028
73,20,19,Jits_Linear_5,2,5,63,98,1819793632
73,20,19,Jits_Linear_5,3,5,80,127,1819833648
73,20,19,Jits_Linear_5,4,5,56,103,1819873512
73,20,19,Jits_Linear_5,0,1,48,56,1820248408
73,20,19,Jits_Linear_5,1,5,56,103,1820433716
73,20,19,Jits_Linear_5,2,5,63,98,1820443988
73,20,19,Jits_Linear_5,3,5,80,127,1820463476
73,20,19,Jits_Linear_5,0,1,48,54,1820856880
73,20,19,Jits_Linear_5,1,1,48,35,1820910272
73,20,19,Jits_Linear_5,2,5,63,98,1821103404
73,20,19,Jits_Linear_5,3,5,80,127,1821124088
73,20,19,Jits_Linear_5,4,5,56,103,1821144324
73,20,19,Jits_Linear_5,0,1,48,56,1821496868
73,20,19,Jits_Linear_5,1,5,56,103,1821673884
73,20,19,Jits_Linear_5,2,5,80,127,1821753684
73,20,19,Jits_Linear_5,3,5,63,98,1821764128
73,20,19,Jits_Linear_5,0,1,48,57,1822090000
73,20,19,Jits_Linear_5,1,1,48,38,1822141920
73,20,19,Jits_Linear_5,2,5,80,127,1822343576
73,20,19,Jits_Linear_5,3,5,63,98,1822353920
73,20,19,Jits_Linear_5,4,5,56,103,1822383372
73,20,19,Jits_Linear_5,0,1,48,60,1822679208
73,20,19,Jits_Linear_5,1,1,48,37,1822721816
73,20,19,Jits_Linear_5,2,5,63,98,1822934336
73,20,19,Jits_Linear_5,3,5,80,127,1822974424
73,20,19,Jits_Linear_5,4,5,56,103,1823033916
73,20,19,Jits_Linear_5,5,1,48,62,1823264432
73,20,19,Jits_Linear_5,0,1,48,43,1823309828
73,20,19,Jits_Linear_5,1,5,63,98,1823574380
73,20,19,Jits_Linear_5,2,5,56,103,1823623388
73,20,19,Jits_Linear_5,3,5,80,127,1823654260
73,20,19,Jits_Linear_5,4,1,48,58,1823916608
73,20,19,Jits_Linear_5,0,1,48,40,1823953888
73,20,19,Jits_Linear_5,1,5,80,127,1824224028
73,20,19,Jits_Linear_5,2,5,63,98,1824234076
73,20,19,Jits_Linear_5,3,5,56,103,1824303464
73,20,19,Jits_Linear_5,4,1,48,62,1824556520
73,20,19,Jits_Linear_5,0,1,48,44,1824599812
73,20,19,Jits_Linear_5,1,5,80,127,1824934396
73,20,19,Jits_Linear_5,2,5,56,103,1824943472
73,20,19,Jits_Linear_5,3,5,63,98,1824946536
73,20,19,Jits_Linear_5,0,1,48,59,1825253848
73,20,19,Jits_Linear_5,1,5,56,103,1825513944
73,20,19,Jits_Linear_5,2,5,80,127,1825534256
73,20,19,Jits_Linear_5,3,5,63,98,1825543408
73,20,19,Jits_Linear_5,0,1,48,50,1825862208
73,20,19,Jits_Linear_5,1,5,63,98,1826164012
73,20,19,Jits_Linear_5,2,5,56,103,1826204024
73,20,19,Jits_Linear_5,3,5,80,127,1826223436
73,20,19,Jits_Linear_5,4,1,48,48,1826274728
73,20,19,Jits_Linear_5,0,5,63,98,1826814212
73,20,19,Jits_Linear_5,1,5,56,103,1826873856
73,20,19,Jits_Linear_5,2,5,80,127,1826876920
73,20,19,Jits_Linear_5,3,1,48,48,1826908364
73,20,19,Jits_Linear_5,0,1,48,56,1827419344
73,20,19,Jits_Linear_5,1,5,56,103,1827423944
73,20,19,Jits_Linear_5,2,5,80,127,1827444104
73,20,19,Jits_Linear_5,3,1,48,39,1827469980
73,20,19,Jits_Linear_5,4,5,63,98,1827483876
73,20,19,Jits_Linear_5,0,1,48,56,1828058356
73,20,19,Jits_Linear_5,1,5,56,103,1828103788
73,20,19,Jits_Linear_5,2,5,63,98,1828124100
73,20,19,Jits_Linear_5,3,5,80,127,1828134368
73,20,19,Jits_Linear_5,0,1,48,52,1828523868
73,20,19,Jits_Linear_5,1,5,80,127,1828724180
73,20,19,Jits_Linear_5,2,5,56,103,1828753860
73,20,19,Jits_Linear_5,3,5,63,98,1828794020
73,20,19,Jits_Linear_5,4,1,48,56,1829029472
73,20,19,Jits_Linear_5,0,5,80,127,1829383668
73,20,19,Jits_Linear_5,1,5,56,103,1829404056
73,20,19,Jits_Linear_5,2,5,63,98,1829464548
73,20,19,Jits_Linear_5,3,1,48,44,1829471424
73,20,19,Jits_Linear_5,0,1,48,45,1829944992
73,20,19,Jits_Linear_5,1,5,56,103,1830044008
73,20,19,Jits_Linear_5,2,5,80,127,1830063420
73,20,19,Jits_Linear_5,3,5,63,98,1830123812
73,20,19,Jits_Linear_5,4,1,48,45,1830393656
73,20,19,Jits_Linear_5,0,1,48,23,1830455056
73,20,19,Jits_Linear_5,1,5,80,127,1830683920
73,20,19,Jits_Linear_5,2,5,56,103,1830694264
73,20,19,Jits_Linear_5,3,5,63,98,1830734080
73,20,19,Jits_Linear_5,4,1,48,45,1830903364
73,20,19,Jits_Linear_5,0,5,63,98,1831343500
73,20,19,Jits_Linear_5,1,1,48,53,1831368720
73,20,19,Jits_Linear_5,2,5,56,103,1831384480
73,20,19,Jits_Linear_5,3,5,80,127,1831387548
73,20,19,Jits_Linear_5,0,1,48,46,1831791052
73,20,19,Jits_Linear_5,1,5,63,98,1832024488
73,20,19,Jits_Linear_5,2,5,80,127,1832064504
73,20,19,Jits_Linear_5,3,5,56,103,1832094028
73,20,19,Jits_Linear_5,4,1,48,46,1832252180
73,20,19,Jits_Linear_5,0,5,56,103,1832673864
73,20,19,Jits_Linear_5,1,5,63,98,1832683912
73,20,19,Jits_Linear_5,2,5,80,127,1832713512
73,20,19,Jits_Linear_5,3,1,48,51,1832743680
73,20,19,Jits_Linear_5,4,1,48,26,1832812980
73,20,19,Jits_Linear_5,0,1,48,39,1833207204
73,20,19,Jits_Linear_5,1,5,80,127,1833334168
73,20,19,Jits_Linear_5,2,5,63,98,1833403928
73,20,19,Jits_Linear_5,3,5,56,103,1833413976
73,20,19,Jits_Linear_5,4,1,48,41,1833618788
73,20,19,Jits_Linear_5,0,5,63,98,1834003832
73,20,19,Jits_Linear_5,1,5,56,103,1834073392
73,20,19,Jits_Linear_5,2,5,80,127,1834083884
73,20,19,Jits_Linear_5,3,1,48,54,1834156304
73,20,19,Jits_Linear_5,0,1,48,55,1834671800
73,20,19,Jits_Linear_5,1,5,63,98,1834673460
73,20,19,Jits_Linear_5,2,5,56,103,1834693996
73,20,19,Jits_Linear_5,3,1,48,30,1834719868
73,20,19,Jits_Linear_5,4,5,80,127,1834733912
73,20,19,Jits_Linear_5,0,1,48,52,1835165288
73,20,19,Jits_Linear_5,1,1,48,32,1835213744
73,20,19,Jits_Linear_5,2,5,56,103,1835353740
73,20,19,Jits_Linear_5,3,5,63,98,1835363936
73,20,19,Jits_Linear_5,4,5,80,127,1835443512
73,20,19,Jits_Linear_5,5,1,48,51,1835658136
73,20,19,Jits_Linear_5,0,5,63,98,1836013816
73,20,19,Jits_Linear_5,1,5,56,103,1836043940
73,20,19,Jits_Linear_5,2,5,80,127,1836083732
73,20,19,Jits_Linear_5,3,1,48,42,1836161796
73,20,19,Jits_Linear_5,0,5,56,103,1836683600
73,20,19,Jits_Linear_5,1,1,48,52,1836684564
73,20,19,Jits_Linear_5,2,5,63,98,1836723756
73,20,19,Jits_Linear_5,3,1,48,34,1836734204
73,20,19,Jits_Linear_5,4,5,80,127,1836763600
73,20,19,Jits_Linear_5,0,1,48,51,1837174236
73,20,19,Jits_Linear_5,1,5,80,127,1837363732
73,20,19,Jits_Linear_5,2,5,56,103,1837443484
73,20,19,Jits_Linear_5,3,5,63,98,1837453680
73,20,19,Jits_Linear_5,4,1,48,32,1837559352
73,20,19,Jits_Linear_5,0,5,56,103,1838083560
73,20,19,Jits_Linear_5,1,5,63,98,1838086476
73,20,19,Jits_Linear_5,2,5,80,127,1838093684
73,20,19,Jits_Linear_5,3,1,48,47,1838184180
73,20,19,Jits_Linear_5,0,1,48,48,1838700636
73,20,19,Jits_Linear_5,1,1,48,30,1838762588
73,20,19,Jits_Linear_5,2,5,56,103,1838783888
73,20,19,Jits_Linear_5,3,5,63,98,1838804276
73,20,19,Jits_Linear_5,4,5,80,127,1838813648
73,20,19,Jits_Linear_5,0,1,48,53,1839337928
73,20,19,Jits_Linear_5,1,5,63,98,1839423848
73,20,19,Jits_Linear_5,2,5,80,127,1839434120
73,20,19,Jits_Linear_5,3,5,56,103,1839453588
73,20,19,Jits_Linear_5,0,1,48,52,1840017748
73,20,19,Jits_Linear_5,1,5,63,98,1840113892
73,20,19,Jits_Linear_5,2,5,56,103,1840193788
73,20,19,Jits_Linear_5,3,5,80,127,1840197004
73,20,19,Jits_Linear_5,0,1,48,54,1840745892
73,20,19,Jits_Linear_5,1,5,63,98,1840804136
73,20,19,Jits_Linear_5,2,5,56,103,1840823772
73,20,19,Jits_Linear_5,3,5,80,127,1840854484
73,20,19,Jits_Linear_5,0,1,48,58,1841457004
73,20,19,Jits_Linear_5,1,5,56,103,1841494372
73,20,19,Jits_Linear_5,2,5,63,98,1841513784
73,20,19,Jits_Linear_5,3,5,80,127,1841524056
73,20,19,Jits_Linear_5,0,1,48,49,1842179236
73,20,19,Jits_Linear_5,1,5,56,103,1842214404
73,20,19,Jits_Linear_5,2,5,63,98,1842243880
73,20,19,Jits_Linear_5,3,5,80,127,1842247168
73,20,19,Jits_Linear_5,0,1,48,55,1842851768
73,20,19,Jits_Linear_5,1,5,56,103,1842854208
73,20,19,Jits_Linear_5,2,5,63,98,1842894148
73,20,19,Jits_Linear_5,3,5,80,127,1842953628
73,20,19,Jits_Linear_5,0,1,48,56,1843547640
73,20,19,Jits_Linear_5,1,5,56,103,1843563852
73,20,19,Jits_Linear_5,2,5,63,98,1843574272
73,20,19,Jits_Linear_5,3,5,80,127,1843633616
73,20,19,Jits_Linear_5,0,1,48,68,1844240616
73,20,19,Jits_Linear_5,1,5,56,103,1844264620
73,20,19,Jits_Linear_5,2,5,80,127,1844283692
73,20,19,Jits_Linear_5,3,5,63,98,1844313664
73,20,19,Jits_Linear_5,4,1,48,38,1844316484
73,20,19,Jits_Linear_5,0,1,48,54,1844935024
73,20,19,Jits_Linear_5,1,5,80,127,1844963748
73,20,19,Jits_Linear_5,2,5,56,103,1844973944
73,20,19,Jits_Linear_5,3,5,63,98,1844994624
73,20,19,Jits_Linear_5,0,1,48,39,1845624508
73,20,19,Jits_Linear_5,1,5,63,98,1845653832
73,20,19,Jits_Linear_5,2,1,48,24,1845691016
73,20,19,Jits_Linear_5,3,5,80,127,1845733608
73,20,19,Jits_Linear_5,4,5,56,103,1845743952
73,20,19,Jits_Linear_5,5,1,48,15,1845963144
73,20,19,Jits_Linear_5,0,1,48,48,1846369748
73,20,19,Jits_Linear_5,1,5,80,127,1846413612
73,20,19,Jits_Linear_5,2,5,56,103,1846434520
73,20,19,Jits_Linear_5,3,5,63,98,1846437432
73,20,19,Jits_Linear_5,4,1,48,27,1846441660
73,20,19,Jits_Linear_5,0,1,48,59,1847091544
73,20,19,Jits_Linear_5,1,5,63,98,1847093516
73,20,19,Jits_Linear_5,2,5,80,127,1847096812
73,20,19,Jits_Linear_5,3,5,56,103,1847153940
73,20,19,Jits_Linear_5,4,1,48,33,1847183044
73,20,19,Jits_Linear_5,0,1,48,54,1847781212
73,20,19,Jits_Linear_5,1,5,56,103,1847793912
73,20,19,Jits_Linear_5,2,5,80,127,1847804404
73,20,19,Jits_Linear_5,3,1,48,39,1847844932
73,20,19,Jits_Linear_5,4,5,63,98,1847846044
73,20,19,Jits_Linear_5,0,5,56,103,1848484200
73,20,19,Jits_Linear_5,1,5,63,98,1848543548
73,20,19,Jits_Linear_5,2,1,48,51,1848548160
73,20,19,Jits_Linear_5,3,5,80,127,1848553736
73,20,19,Jits_Linear_5,4,1,48,35,1848596844
73,20,19,Jits_Linear_5,0,5,63,98,1849204160
73,20,19,Jits_Linear_5,1,5,80,127,1849243952
73,20,19,Jits_Linear_5,2,1,48,57,1849274268
73,20,19,Jits_Linear_5,3,5,56,103,1849283808
73,20,19,Jits_Linear_5,4,1,48,41,1849337252
73,20,19,Jits_Linear_5,0,5,56,103,1849913672
73,20,19,Jits_Linear_5,1,1,48,49,1849934200
73,20,19,Jits_Linear_5,2,5,63,98,1849993560
73,20,19,Jits_Linear_5,3,5,80,127,1849996848
73,20,19,Jits_Linear_5,0,1,48,45,1850681888
73,20,19,Jits_Linear_5,1,5,80,127,1850683652
73,20,19,Jits_Linear_5,2,5,56,103,1850713552
73,20,19,Jits_Linear_5,3,5,63,98,1850716468
73,20,19,Jits_Linear_5,0,5,56,103,1851363672
73,20,19,Jits_Linear_5,1,5,80,127,1851384204
73,20,19,Jits_Linear_5,2,1,48,44,1851401348
73,20,19,Jits_Linear_5,3,5,63,98,1851424064
73,20,19,Jits_Linear_5,0,5,80,127,1852064332
73,20,19,Jits_Linear_5,1,1,48,45,1852081632
73,20,19,Jits_Linear_5,2,5,63,98,1852083516
73,20,19,Jits_Linear_5,3,5,56,103,1852144060
73,20,19,Jits_Linear_5,0,1,48,43,1852770576
73,20,19,Jits_Linear_5,1,5,63,98,1852794288
73,20,19,Jits_Linear_5,2,5,56,103,1852803512
73,20,19,Jits_Linear_5,3,5,80,127,1852853564
73,20,19,Jits_Linear_5,0,1,48,45,1853446028
73,20,19,Jits_Linear_5,1,5,56,103,1853503848
73,20,19,Jits_Linear_5,2,5,63,98,1853524532
73,20,19,Jits_Linear_5,3,5,80,127,1853533536
73,20,19,Jits_Linear_5,0,1,48,42,1854156188
73,20,19,Jits_Linear_5,1,5,56,103,1854223644
73,20,19,Jits_Linear_5,2,5,63,98,1854226716
73,20,19,Jits_Linear_5,3,5,80,127,1854244404
73,20,19,Jits_Linear_5,0,1,48,41,1854864916
73,20,19,Jits_Linear_5,1,5,63,98,1854993724
73,20,19,Jits_Linear_5,2,5,56,103,1855023476
73,20,19,Jits_Linear_5,3,5,80,127,1855054296
73,20,19,Jits_Linear_5,0,1,48,41,1855563996
73,20,19,Jits_Linear_5,1,5,80,127,1855683884
73,20,19,Jits_Linear_5,2,5,56,103,1855774400
73,20,19,Jits_Linear_5,3,5,63,98,1855777384
73,20,19,Jits_Linear_5,0,1,48,38,1856259508
73,20,19,Jits_Linear_5,1,5,56,103,1856414120
73,20,19,Jits_Linear_5,2,5,80,127,1856417480
73,20,19,Jits_Linear_5,3,5,63,98,1856493916
73,20,19,Jits_Linear_5,0,1,48,44,1856961796
73,20,19,Jits_Linear_5,1,5,80,127,1857144120
73,20,19,Jits_Linear_5,2,5,63,98,1857203544
73,20,19,Jits_Linear_5,3,5,56,103,1857234488
73,20,19,Jits_Linear_5,0,1,48,45,1857671288
73,20,19,Jits_Linear_5,1,5,63,98,1857874436
73,20,19,Jits_Linear_5,2,5,80,127,1857883588
73,20,19,Jits_Linear_5,3,5,56,103,1857954240
73,20,19,Jits_Linear_5,0,1,48,39,1858398140
73,20,19,Jits_Linear_5,1,5,56,103,1858623712
73,20,19,Jits_Linear_5,2,5,80,127,1858653540
73,20,19,Jits_Linear_5,3,5,63,98,1858703668
73,20,19,Jits_Linear_5,0,1,48,48,1859109476
73,20,19,Jits_Linear_5,1,5,63,98,1859404152
73,20,19,Jits_Linear_5,2,5,56,103,1859433828
73,20,19,Jits_Linear_5,3,5,80,127,1859436892
73,20,19,Jits_Linear_5,0,1,48,44,1859814844
73,20,19,Jits_Linear_5,1,5,63,98,1860143580
73,20,19,Jits_Linear_5,2,5,80,127,1860164064
73,20,19,Jits_Linear_5,3,5,56,103,1860174484
73,20,19,Jits_Linear_5,0,1,48,45,1860523056
73,20,19,Jits_Linear_5,1,5,56,103,1860894200
73,20,19,Jits_Linear_5,2,5,63,98,1860897116
73,20,19,Jits_Linear_5,3,5,80,127,1860913464
73,20,19,Jits_Linear_5,4,1,48,43,1861224384
73,20,19,Jits_Linear_5,0,5,56,103,1861593416
73,20,19,Jits_Linear_5,1,5,63,98,1861603760
73,20,19,Jits_Linear_5,2,5,80,127,1861634556
73,20,19,Jits_Linear_5,3,1,48,45,1861890460
73,20,19,Jits_Linear_5,0,5,63,98,1862363456
73,20,19,Jits_Linear_5,1,5,80,127,1862383916
73,20,19,Jits_Linear_5,2,5,56,103,1862423856
73,20,19,Jits_Linear_5,3,1,48,51,1862609708
73,20,19,Jits_Linear_5,0,5,56,103,1863143676
73,20,19,Jits_Linear_5,1,5,63,98,1863183608
73,20,19,Jits_Linear_5,2,5,80,127,1863186832
73,20,19,Jits_Linear_5,3,1,48,43,1863271032
73,20,19,Jits_Linear_5,0,5,80,127,1863834068
73,20,19,Jits_Linear_5,1,5,56,103,1863873936
73,20,19,Jits_Linear_5,2,1,48,43,1863898776
73,20,19,Jits_Linear_5,3,5,63,98,1863924428
73,20,19,Jits_Linear_5,0,1,48,47,1864549976
73,20,19,Jits_Linear_5,1,5,56,103,1864644472
73,20,19,Jits_Linear_5,2,5,80,127,1864654220
73,20,19,Jits_Linear_5,3,5,63,98,1864683824
73,20,19,Jits_Linear_5,0,1,48,43,1865204604
73,20,19,Jits_Linear_5,1,5,56,103,1865344304
73,20,19,Jits_Linear_5,2,5,80,127,1865384168
73,20,19,Jits_Linear_5,3,5,63,98,1865433324
73,20,19,Jits_Linear_5,0,1,48,50,1865915212
73,20,19,Jits_Linear_5,1,5,56,103,1866104436
73,20,19,Jits_Linear_5,2,5,80,127,1866144228
73,20,19,Jits_Linear_5,3,5,63,98,1866194432
73,20,19,Jits_Linear_5,0,1,48,30,1866623508
73,20,19,Jits_Linear_5,1,5,80,127,1866853716
73,20,19,Jits_Linear_5,2,5,63,98,1866933588
73,20,19,Jits_Linear_5,3,5,56,103,1866943712
73,20,19,Jits_Linear_5,4,1,48,13,1866972456
73,20,19,Jits_Linear_5,0,1,48,28,1867373956
73,20,19,Jits_Linear_5,1,5,80,127,1867663652
73,20,19,Jits_Linear_5,2,5,56,103,1867674220
73,20,19,Jits_Linear_5,3,5,63,98,1867693560
73,20,19,Jits_Linear_5,0,1,48,47,1868111996
73,20,19,Jits_Linear_5,1,5,63,98,1868393896
73,20,19,Jits_Linear_5,2,5,56,103,1868463580
73,20,19,Jits_Linear_5,3,5,80,127,1868466572
73,20,19,Jits_Linear_5,0,1,48,47,1868842800
73,20,19,Jits_Linear_5,1,5,80,127,1869153652
73,20,19,Jits_Linear_5,2,5,63,98,1869203856
73,20,19,Jits_Linear_5,3,5,56,103,1869243648
73,20,19,Jits_Linear_5,0,1,48,35,1869581816
73,20,19,Jits_Linear_5,1,5,63,98,1869963672
73,20,19,Jits_Linear_5,2,5,56,103,1870003464
73,20,19,Jits_Linear_5,3,5,80,127,1870013660
73,20,19,Jits_Linear_5,0,1,48,57,1870394248
73,20,19,Jits_Linear_5,1,5,63,98,1870723436
73,20,19,Jits_Linear_5,2,5,56,103,1870744120
73,20,19,Jits_Linear_5,3,5,80,127,1870764280
73,20,19,Jits_Linear_5,0,1,48,58,1871128504
73,20,19,Jits_Linear_5,1,5,80,127,1871453452
73,20,19,Jits_Linear_5,2,5,56,103,1871463724
73,20,19,Jits_Linear_5,3,5,63,98,1871484408
73,20,19,Jits_Linear_5,4,1,48,48,1871858904
73,20,19,Jits_Linear_5,0,5,63,98,1872254264
73,20,19,Jits_Linear_5,1,5,56,103,1872294204
73,20,19,Jits_Linear_5,2,5,80,127,1872323880
73,20,19,Jits_Linear_5,3,1,48,52,1872609376
73,20,19,Jits_Linear_5,0,5,56,103,1873033584
73,20,19,Jits_Linear_5,1,5,63,98,1873064232
73,20,19,Jits_Linear_5,2,5,80,127,1873093984
73,20,19,Jits_Linear_5,3,1,48,45,1873371252
73,20,19,Jits_Linear_5,0,5,80,127,1873784220
73,20,19,Jits_Linear_5,1,5,56,103,1873853756
73,20,19,Jits_Linear_5,2,5,63,98,1873856820
73,20,19,Jits_Linear_5,3,1,48,46,1874104424
73,20,19,Jits_Linear_5,0,5,56,103,1874573660
73,20,19,Jits_Linear_5,1,5,63,98,1874624012
73,20,19,Jits_Linear_5,2,5,80,127,1874653468
73,20,19,Jits_Linear_5,3,1,48,48,1874831300
73,20,19,Jits_Linear_5,0,5,63,98,1875333504
73,20,19,Jits_Linear_5,1,5,80,127,1875337092
73,20,19,Jits_Linear_5,2,5,56,103,1875394044
73,20,19,Jits_Linear_5,3,1,48,42,1875607100
73,20,19,Jits_Linear_5,0,5,56,103,1876143456
73,20,19,Jits_Linear_5,1,5,80,127,1876153800
73,20,19,Jits_Linear_5,2,5,63,98,1876204224
73,20,19,Jits_Linear_5,3,1,48,47,1876384176
73,20,19,Jits_Linear_5,0,5,63,98,1876904280
73,20,19,Jits_Linear_5,1,5,56,103,1876913580
73,20,19,Jits_Linear_5,2,5,80,127,1876944152
73,20,19,Jits_Linear_5,3,1,48,44,1877129112
73,20,19,Jits_Linear_5,0,5,63,98,1877723452
73,20,19,Jits_Linear_5,1,5,80,127,1877726744
73,20,19,Jits_Linear_5,2,5,56,103,1877754176
73,20,19,Jits_Linear_5,3,1,48,42,1877886920
73,20,19,Jits_Linear_5,0,5,63,98,1878533480
73,20,19,Jits_Linear_5,1,5,56,103,1878554088
73,20,19,Jits_Linear_5,2,5,80,127,1878557152
73,20,19,Jits_Linear_5,3,1,48,30,1878641732
73,20,19,Jits_Linear_5,0,5,63,98,1879284092
73,20,19,Jits_Linear_5,1,5,56,103,1879353800
73,20,19,Jits_Linear_5,2,5,80,127,1879374260
73,20,19,Jits_Linear_5,3,1,48,40,1879383232
73,20,19,Jits_Linear_5,0,5,56,103,1880064456
73,20,19,Jits_Linear_5,1,5,63,98,1880073456
73,20,19,Jits_Linear_5,2,1,48,46,1880106468
73,20,19,Jits_Linear_5,3,5,80,127,1880163760
73,20,19,Jits_Linear_5,0,1,48,46,1880819616
73,20,19,Jits_Linear_5,1,5,56,103,1880874272
73,20,19,Jits_Linear_5,2,5,80,127,1880914236
73,20,19,Jits_Linear_5,3,5,63,98,1880923448
73,20,19,Jits_Linear_5,0,1,48,43,1881495464
73,20,19,Jits_Linear_5,1,5,56,103,1881704024
73,20,19,Jits_Linear_5,2,5,63,98,1881733476
73,20,19,Jits_Linear_5,3,5,80,127,1881764200
73,20,19,Jits_Linear_5,0,1,48,41,1882241456
73,20,19,Jits_Linear_5,1,5,80,127,1882473976
73,20,19,Jits_Linear_5,2,5,63,98,1882513992
73,20,19,Jits_Linear_5,3,5,56,103,1882534228
73,20,19,Jits_Linear_5,0,1,48,49,1882938560
73,20,19,Jits_Linear_5,1,5,56,103,1883313604
73,20,19,Jits_Linear_5,2,5,80,127,1883333992
73,20,19,Jits_Linear_5,3,5,63,98,1883353476
73,20,19,Jits_Linear_5,4,1,48,38,1883676956
73,20,19,Jits_Linear_5,0,5,63,98,1884083548
73,20,19,Jits_Linear_5,1,5,56,103,1884093744
73,20,19,Jits_Linear_5,2,5,80,127,1884154284
73,20,19,Jits_Linear_5,3,1,48,51,1884433648
73,20,19,Jits_Linear_5,0,5,56,103,1884893564
73,20,19,Jits_Linear_5,1,5,63,98,1884964148
73,20,19,Jits_Linear_5,2,5,80,127,1884983860
73,20,19,Jits_Linear_5,3,1,48,41,1885109932
73,20,19,Jits_Linear_5,0,5,56,103,1885703468
73,20,19,Jits_Linear_5,1,5,63,98,1885734264
73,20,19,Jits_Linear_5,2,5,80,127,1885774156
73,20,19,Jits_Linear_5,3,1,48,45,1885893776
73,20,19,Jits_Linear_5,0,5,63,98,1886504372
73,20,19,Jits_Linear_5,1,5,56,103,1886553408
73,20,19,Jits_Linear_5,2,5,80,127,1886563900
73,20,19,Jits_Linear_5,3,1,48,28,1886665308
73,20,19,Jits_Linear_5,0,5,56,103,1887354144
73,20,19,Jits_Linear_5,1,5,63,98,1887404496
73,20,19,Jits_Linear_5,2,5,80,127,1887413720
73,20,19,Jits_Linear_5,3,1,48,42,1887430392
73,20,19,Jits_Linear_5,0,5,56,103,1888133404
73,20,19,Jits_Linear_5,1,5,63,98,1888143972
73,20,19,Jits_Linear_5,2,1,48,40,1888171900
73,20,19,Jits_Linear_5,3,5,80,127,1888223540
73,20,19,Jits_Linear_5,0,9999,9999,9999,1779341420
73,20,19,Jits_Linear_5,1,9999,9999,9999,1779821656
73,20,19,Jits_Linear_5,2,9999,9999,9999,1780301916
73,20,19,Jits_Linear_5,3,9999,9999,9999,1780781172
73,20,19,Jits_Linear_5,4,9999,9999,9999,1781261396
73,20,19,Jits_Linear_5,5,9999,9999,9999,1781751908
73,20,19,Jits_Linear_5,6,9999,9999,9999,1782241348
73,20,19,Jits_Linear_5,7,9999,9999,9999,1782731856
73,20,19,Jits_Linear_5,8,9999,9999,9999,1783221304
73,20,19,Jits_Linear_5,9,9999,9999,9999,1783711816
73,20,19,Jits_Linear_5,10,9999,9999,9999,1784211524
73,20,19,Jits_Linear_5,11,9999,9999,9999,1784711236
73,20,19,Jits_Linear_5,12,9999,9999,9999,1785211980
73,20,19,Jits_Linear_5,13,9999,9999,9999,1785711676
73,20,19,Jits_Linear_5,14,9999,9999,9999,1786211448
73,20,19,Jits_Linear_5,15,9999,9999,9999,1786721352
73,20,19,Jits_Linear_5,16,9999,9999,9999,1787231300
73,20,19,Jits_Linear_5,17,9999,9999,9999,1787741300
73,20,19,Jits_Linear_5,18,9999,9999,9999,1788251232
73,20,19,Jits_Linear_5,19,9999,9999,9999,1788761180
73,20,19,Jits_Linear_5,20,9999,9999,9999,1789281400
73,20,19,Jits_Linear_5,21,9999,9999,9999,1789801592
73,20,19,Jits_Linear_5,22,9999,9999,9999,1790321752
73,20,19,Jits_Linear_5,23,9999,9999,9999,1790841948
73,20,19,Jits_Linear_5,24,9999,9999,9999,1791361112
73,20,19,Jits_Linear_5,25,9999,9999,9999,1791891580
73,20,19,Jits_Linear_5,26,9999,9999,9999,1792421988
73,20,19,Jits_Linear_5,27,9999,9999,9999,1792951424
73,20,19,Jits_Linear_5,28,9999,9999,9999,1793481804
73,20,19,Jits_Linear_5,29,9999,9999,9999,1794011248
73,20,19,Jits_Linear_5,30,9999,9999,9999,1794551928
73,20,19,Jits_Linear_5,31,9999,9999,9999,1795091548
73,20,19,Jits_Linear_5,32,9999,9999,9999,1795631168
73,20,19,Jits_Linear_5,33,9999,9999,9999,1796171860
73,20,19,Jits_Linear_5,34,9999,9999,9999,1796711532
73,20,19,Jits_Linear_5,35,9999,9999,9999,1797261416
73,20,19,Jits_Linear_5,36,9999,9999,9999,1797811280
73,20,19,Jits_Linear_5,37,9999,9999,9999,1798361164
73,20,19,Jits_Linear_5,38,9999,9999,9999,1798912068
73,20,19,Jits_Linear_5,39,9999,9999,9999,1799471212
73,20,19,Jits_Linear_5,40,9999,9999,9999,1800031316
73,20,19,Jits_Linear_5,41,9999,9999,9999,1800591416
73,20,19,Jits_Linear_5,42,9999,9999,9999,1801151584
73,20,19,Jits_Linear_5,43,9999,9999,9999,1801711736
73,20,19,Jits_Linear_5,44,9999,9999,9999,1802271860
73,20,19,Jits_Linear_5,45,9999,9999,9999,1802841188
73,20,19,Jits_Linear_5,46,9999,9999,9999,1803411572
73,20,19,Jits_Linear_5,47,9999,9999,9999,1803981888
73,20,19,Jits_Linear_5,48,9999,9999,9999,1804551252
73,20,19,Jits_Linear_5,49,9999,9999,9999,1805121636
73,20,19,Jits_Linear_5,50,9999,9999,9999,1805701244
73,20,19,Jits_Linear_5,51,9999,9999,9999,1806281836
73,20,19,Jits_Linear_5,52,9999,9999,9999,1806861388
73,20,19,Jits_Linear_5,53,9999,9999,9999,1807442020
73,20,19,Jits_Linear_5,54,9999,9999,9999,1808021632
73,20,19,Jits_Linear_5,55,9999,9999,9999,1808611384
73,20,19,Jits_Linear_5,56,9999,9999,9999,1809201252
73,20,19,Jits_Linear_5,57,9999,9999,9999,1809792100
73,20,19,Jits_Linear_5,58,9999,9999,9999,1810391128
73,20,19,Jits_Linear_5,59,9999,9999,9999,1810981960
73,20,19,Jits_Linear_5,60,9999,9999,9999,1811582036
73,20,19,Jits_Linear_5,61,9999,9999,9999,1812182072
73,20,19,Jits_Linear_5,62,9999,9999,9999,1812791368
73,20,19,Jits_Linear_5,63,9999,9999,9999,1813391456
73,20,19,Jits_Linear_5,64,9999,9999,9999,1813991512
73,20,19,Jits_Linear_5,65,9999,9999,9999,1814601800
73,20,19,Jits_Linear_5,66,9999,9999,9999,1815211104
73,20,19,Jits_Linear_5,67,9999,9999,9999,1815821436
73,20,19,Jits_Linear_5,68,9999,9999,9999,1816431732
73,20,19,Jits_Linear_5,69,9999,9999,9999,1817042004
73,20,19,Jits_Linear_5,70,9999,9999,9999,1817661508
73,20,19,Jits_Linear_5,71,9999,9999,9999,1818282040
73,20,19,Jits_Linear_5,72,9999,9999,9999,1818901600
73,20,19,Jits_Linear_5,73,9999,9999,9999,1819521112
73,20,19,Jits_Linear_5,74,9999,9999,9999,1820141624
73,20,19,Jits_Linear_5,75,9999,9999,9999,1820771392
73,20,19,Jits_Linear_5,76,9999,9999,9999,1821401200
73,20,19,Jits_Linear_5,77,9999,9999,9999,1822031944
73,20,19,Jits_Linear_5,78,9999,9999,9999,1822661748
73,20,19,Jits_Linear_5,79,9999,9999,9999,1823291464
73,20,19,Jits_Linear_5,80,9999,9999,9999,1823931508
73,20,19,Jits_Linear_5,81,9999,9999,9999,1824571492
73,20,19,Jits_Linear_5,82,9999,9999,9999,1825211512
73,20,19,Jits_Linear_5,83,9999,9999,9999,1825851448
73,20,19,Jits_Linear_5,84,9999,9999,9999,1826491452
73,20,19,Jits_Linear_5,85,9999,9999,9999,1827141720
73,20,19,Jits_Linear_5,86,9999,9999,9999,1827791976
73,20,19,Jits_Linear_5,87,9999,9999,9999,1828441152
73,20,19,Jits_Linear_5,88,9999,9999,9999,1829091420
73,20,19,Jits_Linear_5,89,9999,9999,9999,1829741628
73,20,19,Jits_Linear_5,90,9999,9999,9999,1830401132
73,20,19,Jits_Linear_5,91,9999,9999,9999,1831061576
73,20,19,Jits_Linear_5,92,9999,9999,9999,1831722100
73,20,19,Jits_Linear_5,93,9999,9999,9999,1832381524
73,20,19,Jits_Linear_5,94,9999,9999,9999,1833041984
73,20,19,Jits_Linear_5,95,9999,9999,9999,1833711672
73,20,19,Jits_Linear_5,96,9999,9999,9999,1834381420
73,20,19,Jits_Linear_5,97,9999,9999,9999,1835051080
73,20,19,Jits_Linear_5,98,9999,9999,9999,1835721804
73,20,19,Jits_Linear_5,99,9999,9999,9999,1836391480
73,20,19,Jits_Linear_5,100,9999,9999,9999,1837071476
73,20,19,Jits_Linear_5,101,9999,9999,9999,1837751360
73,20,19,Jits_Linear_5,102,9999,9999,9999,1838431320
73,20,19,Jits_Linear_5,103,9999,9999,9999,1839111260
73,20,19,Jits_Linear_5,104,9999,9999,9999,1839791224
73,20,19,Jits_Linear_5,105,9999,9999,9999,1840481380
73,20,19,Jits_Linear_5,106,9999,9999,9999,1841171520
73,20,19,Jits_Linear_5,107,9999,9999,9999,1841861748
73,20,19,Jits_Linear_5,108,9999,9999,9999,1842551904
73,20,19,Jits_Linear_5,109,9999,9999,9999,1843242040
73,20,19,Jits_Linear_5,110,9999,9999,9999,1843941496
73,20,19,Jits_Linear_5,111,9999,9999,9999,1844641896
73,20,19,Jits_Linear_5,112,9999,9999,9999,1845341264
73,20,19,Jits_Linear_5,113,9999,9999,9999,1846041712
73,20,19,Jits_Linear_5,114,9999,9999,9999,1846742076
73,20,19,Jits_Linear_5,115,9999,9999,9999,1847461944
73,20,19,Jits_Linear_5,116,9999,9999,9999,1848171632
73,20,19,Jits_Linear_5,117,9999,9999,9999,1848881220
73,20,19,Jits_Linear_5,118,9999,9999,9999,1849591884
73,20,19,Jits_Linear_5,119,9999,9999,9999,1850301512
73,20,19,Jits_Linear_5,120,9999,9999,9999,1851021428
73,20,19,Jits_Linear_5,121,9999,9999,9999,1851741260
73,20,19,Jits_Linear_5,122,9999,9999,9999,1852461152
73,20,19,Jits_Linear_5,123,9999,9999,9999,1853182044
73,20,19,Jits_Linear_5,124,9999,9999,9999,1853901940
73,20,19,Jits_Linear_5,125,9999,9999,9999,1854632016
73,20,19,Jits_Linear_5,126,9999,9999,9999,1855361144
73,20,19,Jits_Linear_5,127,9999,9999,9999,1856091228
73,20,19,Jits_Linear_5,128,9999,9999,9999,1856821360
73,20,19,Jits_Linear_5,129,9999,9999,9999,1857551448
73,20,19,Jits_Linear_5,130,9999,9999,9999,1858291800
73,20,19,Jits_Linear_5,131,9999,9999,9999,1859031112
73,20,19,Jits_Linear_5,132,9999,9999,9999,1859771464
73,20,19,Jits_Linear_5,133,9999,9999,9999,1860511820
73,20,19,Jits_Linear_5,134,9999,9999,9999,1861251192
73,20,19,Jits_Linear_5,135,9999,9999,9999,1862001788
73,20,19,Jits_Linear_5,136,9999,9999,9999,1862751304
73,20,19,Jits_Linear_5,137,9999,9999,9999,1863501924
73,20,19,Jits_Linear_5,138,9999,9999,9999,1864251512
73,20,19,Jits_Linear_5,139,9999,9999,9999,1865002052
73,20,19,Jits_Linear_5,140,9999,9999,9999,1865761892
73,20,19,Jits_Linear_5,141,9999,9999,9999,1866521652
73,20,19,Jits_Linear_5,142,9999,9999,9999,1867281472
73,20,19,Jits_Linear_5,143,9999,9999,9999,1868041308
73,20,19,Jits_Linear_5,144,9999,9999,9999,1868801140
73,20,19,Jits_Linear_5,145,9999,9999,9999,1869571168
73,20,19,Jits_Linear_5,146,9999,9999,9999,1870341180
73,20,19,Jits_Linear_5,147,9999,9999,9999,1871111280
73,20,19,Jits_Linear_5,148,9999,9999,9999,1871881296
73,20,19,Jits_Linear_5,149,9999,9999,9999,1872651320
73,20,19,Jits_Linear_5,150,9999,9999,9999,1873431612
73,20,19,Jits_Linear_5,151,9999,9999,9999,1874211892
73,20,19,Jits_Linear_5,152,9999,9999,9999,1874991228
73,20,19,Jits_Linear_5,153,9999,9999,9999,1875771464
73,20,19,Jits_Linear_5,154,9999,9999,9999,1876551756
73,20,19,Jits_Linear_5,155,9999,9999,9999,1877341276
73,20,19,Jits_Linear_5,156,9999,9999,9999,1878131816
73,20,19,Jits_Linear_5,157,9999,9999,9999,1878921320
73,20,19,Jits_Linear_5,158,9999,9999,9999,1879711800
73,20,19,Jits_Linear_5,159,9999,9999,9999,1880501304
73,20,19,Jits_Linear_5,160,9999,9999,9999,1881302132
73,20,19,Jits_Linear_5,161,9999,9999,9999,1882112096
73,20,19,Jits_Linear_5,162,9999,9999,9999,1882922056
73,20,19,Jits_Linear_5,163,9999,9999,9999,1883721844
73,20,19,Jits_Linear_5,164,9999,9999,9999,1884521532
73,20,19,Jits_Linear_5,165,9999,9999,9999,1885331536
73,20,19,Jits_Linear_5,166,9999,9999,9999,1886141508
73,20,19,Jits_Linear_5,167,9999,9999,9999,1886951484
73,20,19,Jits_Linear_5,168,9999,9999,9999,1887761520
73,20,19,Jits_Linear_5,169,9999,9999,9999,1888571448
73,21,15,Jits_Phase_8,0,5,56,103,1899270812
73,21,15,Jits_Phase_8,1,5,63,98,1899273756
73,21,15,Jits_Phase_8,2,5,80,127,1899276800
73,21,15,Jits_Phase_8,0,5,56,103,1900071192
73,21,15,Jits_Phase_8,1,5,63,98,1900074520
73,21,15,Jits_Phase_8,2,5,80,127,1900077564
73,21,15,Jits_Phase_8,0,5,80,127,1900810472
73,21,15,Jits_Phase_8,1,5,63,98,1900900704
73,21,15,Jits_Phase_8,2,5,56,103,1900910900
73,21,15,Jits_Phase_8,0,5,56,103,1901630832
73,21,15,Jits_Phase_8,1,5,63,98,1901641252
73,21,15,Jits_Phase_8,2,5,80,127,1901731308
73,21,15,Jits_Phase_8,0,5,63,98,1902400896
73,21,15,Jits_Phase_8,1,1,48,54,1902424244
73,21,15,Jits_Phase_8,2,5,80,127,1902430716
73,21,15,Jits_Phase_8,3,5,56,103,1902461512
73,21,15,Jits_Phase_8,0,1,48,59,1903153316
73,21,15,Jits_Phase_8,1,5,56,103,1903200644
73,21,15,Jits_Phase_8,2,5,80,127,1903300952
73,21,15,Jits_Phase_8,3,5,63,98,1903351300
73,21,15,Jits_Phase_8,0,1,48,43,1903911712
73,21,15,Jits_Phase_8,1,5,56,103,1904001592
73,21,15,Jits_Phase_8,2,5,80,127,1904050584
73,21,15,Jits_Phase_8,3,5,63,98,1904090744
73,21,15,Jits_Phase_8,0,1,48,51,1904634296
73,21,15,Jits_Phase_8,1,5,80,127,1904830784
73,21,15,Jits_Phase_8,2,5,63,98,1904860608
73,21,15,Jits_Phase_8,3,5,56,103,1904931184
73,21,15,Jits_Phase_8,0,1,48,35,1905373596
73,21,15,Jits_Phase_8,1,5,63,98,1905661484
73,21,15,Jits_Phase_8,2,5,56,103,1905690936
73,21,15,Jits_Phase_8,3,5,80,127,1905751720
73,21,15,Jits_Phase_8,0,1,48,51,1906104800
73,21,15,Jits_Phase_8,1,5,56,103,1906400636
73,21,15,Jits_Phase_8,2,5,80,127,1906403552
73,21,15,Jits_Phase_8,3,5,63,98,1906520532
73,21,15,Jits_Phase_8,0,1,48,44,1906883152
73,21,15,Jits_Phase_8,1,5,56,103,1907281476
73,21,15,Jits_Phase_8,2,5,80,127,1907321488
73,21,15,Jits_Phase_8,3,5,63,98,1907330636
73,21,15,Jits_Phase_8,0,1,48,49,1907682692
73,21,15,Jits_Phase_8,1,5,56,103,1908041008
73,21,15,Jits_Phase_8,2,5,80,127,1908060420
73,21,15,Jits_Phase_8,3,5,63,98,1908141336
73,21,15,Jits_Phase_8,0,1,48,46,1908497248
73,21,15,Jits_Phase_8,1,5,80,127,1908830428
73,21,15,Jits_Phase_8,2,5,56,103,1908930976
73,21,15,Jits_Phase_8,3,5,63,98,1908941616
73,21,15,Jits_Phase_8,0,1,48,60,1909363424
73,21,15,Jits_Phase_8,1,5,63,98,1909600596
73,21,15,Jits_Phase_8,2,5,80,127,1909661136
73,21,15,Jits_Phase_8,3,5,56,103,1909671332
73,21,15,Jits_Phase_8,0,1,48,53,1910239228
73,21,15,Jits_Phase_8,1,5,56,103,1910401464
73,21,15,Jits_Phase_8,2,5,63,98,1910470996
73,21,15,Jits_Phase_8,3,5,80,127,1910474284
73,21,15,Jits_Phase_8,0,1,48,56,1911043908
73,21,15,Jits_Phase_8,1,5,63,98,1911230808
73,21,15,Jits_Phase_8,2,5,56,103,1911280936
73,21,15,Jits_Phase_8,3,5,80,127,1911284000
73,21,15,Jits_Phase_8,0,1,48,59,1911853252
73,21,15,Jits_Phase_8,1,5,56,103,1911990620
73,21,15,Jits_Phase_8,2,5,80,127,1911993684
73,21,15,Jits_Phase_8,3,5,63,98,1912080748
73,21,15,Jits_Phase_8,0,1,48,29,1912600472
73,21,15,Jits_Phase_8,1,5,63,98,1912831568
73,21,15,Jits_Phase_8,2,5,56,103,1912920532
73,21,15,Jits_Phase_8,3,5,80,127,1912951328
73,21,15,Jits_Phase_8,0,1,48,43,1913416284
73,21,15,Jits_Phase_8,1,5,56,103,1913620992
73,21,15,Jits_Phase_8,2,5,63,98,1913721192
73,21,15,Jits_Phase_8,3,5,80,127,1913750944
73,21,15,Jits_Phase_8,0,1,48,49,1914231944
73,21,15,Jits_Phase_8,1,5,63,98,1914440936
73,21,15,Jits_Phase_8,2,5,56,103,1914451504
73,21,15,Jits_Phase_8,3,5,80,127,1914541412
73,21,15,Jits_Phase_8,0,1,48,60,1915014764
73,21,15,Jits_Phase_8,1,5,63,98,1915261452
73,21,15,Jits_Phase_8,2,5,56,103,1915341244
73,21,15,Jits_Phase_8,3,5,80,127,1915344460
73,21,15,Jits_Phase_8,0,1,48,48,1915771076
73,21,15,Jits_Phase_8,1,5,80,127,1916021048
73,21,15,Jits_Phase_8,2,5,63,98,1916040536
73,21,15,Jits_Phase_8,3,5,56,103,1916100924
73,21,15,Jits_Phase_8,0,1,48,58,1916555976
73,21,15,Jits_Phase_8,1,5,56,103,1916860660
73,21,15,Jits_Phase_8,2,5,63,98,1916881416
73,21,15,Jits_Phase_8,3,5,80,127,1916884628
73,21,15,Jits_Phase_8,0,1,48,39,1917310268
73,21,15,Jits_Phase_8,1,5,63,98,1917601220
73,21,15,Jits_Phase_8,2,5,80,127,1917681020
73,21,15,Jits_Phase_8,3,5,56,103,1917691288
73,21,15,Jits_Phase_8,0,1,48,66,1918120884
73,21,15,Jits_Phase_8,1,5,63,98,1918421432
73,21,15,Jits_Phase_8,2,5,56,103,1918440772
73,21,15,Jits_Phase_8,3,5,80,127,1918490896
73,21,15,Jits_Phase_8,0,1,48,56,1918878676
73,21,15,Jits_Phase_8,1,5,80,127,1919221044
73,21,15,Jits_Phase_8,2,5,63,98,1919261204
73,21,15,Jits_Phase_8,3,5,56,103,1919280544
73,21,15,Jits_Phase_8,4,1,48,52,1919644712
73,21,15,Jits_Phase_8,0,5,56,103,1920060812
73,21,15,Jits_Phase_8,1,5,63,98,1920071156
73,21,15,Jits_Phase_8,2,5,80,127,1920090496
73,21,15,Jits_Phase_8,3,1,48,53,1920422128
73,21,15,Jits_Phase_8,0,5,56,103,1920790956
73,21,15,Jits_Phase_8,1,5,63,98,1920880968
73,21,15,Jits_Phase_8,2,5,80,127,1920941428
73,21,15,Jits_Phase_8,3,1,48,41,1921204816
73,21,15,Jits_Phase_8,0,5,80,127,1921621320
73,21,15,Jits_Phase_8,1,5,56,103,1921630544
73,21,15,Jits_Phase_8,2,5,63,98,1921701348
73,21,15,Jits_Phase_8,3,1,48,56,1922045336
73,21,15,Jits_Phase_8,0,5,63,98,1922451208
73,21,15,Jits_Phase_8,1,5,80,127,1922541120
73,21,15,Jits_Phase_8,2,5,56,103,1922551316
73,21,15,Jits_Phase_8,0,1,48,53,1922883828
73,21,15,Jits_Phase_8,1,5,63,98,1923180860
73,21,15,Jits_Phase_8,2,5,80,127,1923231212
73,21,15,Jits_Phase_8,3,5,56,103,1923290552
73,21,15,Jits_Phase_8,0,1,48,47,1923719628
73,21,15,Jits_Phase_8,1,5,56,103,1924001068
73,21,15,Jits_Phase_8,2,5,80,127,1924051196
73,21,15,Jits_Phase_8,3,5,63,98,1924070904
73,21,15,Jits_Phase_8,0,1,48,59,1924476588
73,21,15,Jits_Phase_8,1,5,56,103,1924771376
73,21,15,Jits_Phase_8,2,5,80,127,1924830572
73,21,15,Jits_Phase_8,3,5,63,98,1924901300
73,21,15,Jits_Phase_8,0,1,48,63,1925299064
73,21,15,Jits_Phase_8,1,1,48,41,1925377472
73,21,15,Jits_Phase_8,2,5,56,103,1925571040
73,21,15,Jits_Phase_8,3,5,80,127,1925600492
73,21,15,Jits_Phase_8,4,5,63,98,1925631288
73,21,15,Jits_Phase_8,0,1,48,48,1926087588
73,21,15,Jits_Phase_8,1,1,48,27,1926146240
73,21,15,Jits_Phase_8,2,5,56,103,1926410608
73,21,15,Jits_Phase_8,3,5,80,127,1926431216
73,21,15,Jits_Phase_8,4,5,63,98,1926490436
73,21,15,Jits_Phase_8,0,1,48,59,1926923356
73,21,15,Jits_Phase_8,1,5,80,127,1927291208
73,21,15,Jits_Phase_8,2,5,56,103,1927300436
73,21,15,Jits_Phase_8,3,5,63,98,1927310704
73,21,15,Jits_Phase_8,0,1,48,56,1927738044
73,21,15,Jits_Phase_8,1,5,56,103,1928051264
73,21,15,Jits_Phase_8,2,5,80,127,1928091280
73,21,15,Jits_Phase_8,3,5,63,98,1928120804
73,21,15,Jits_Phase_8,0,1,48,60,1928554444
73,21,15,Jits_Phase_8,1,5,56,103,1928821136
73,21,15,Jits_Phase_8,2,5,63,98,1928850736
73,21,15,Jits_Phase_8,3,5,80,127,1928890672
73,21,15,Jits_Phase_8,0,1,48,37,1929389948
73,21,15,Jits_Phase_8,1,5,80,127,1929570548
73,21,15,Jits_Phase_8,2,5,63,98,1929621048
73,21,15,Jits_Phase_8,3,5,56,103,1929641284
73,21,15,Jits_Phase_8,0,1,48,55,1930149996
73,21,15,Jits_Phase_8,1,5,56,103,1930401240
73,21,15,Jits_Phase_8,2,5,80,127,1930470700
73,21,15,Jits_Phase_8,3,5,63,98,1930531164
73,21,15,Jits_Phase_8,0,1,48,60,1931058004
73,21,15,Jits_Phase_8,1,5,80,127,1931201004
73,21,15,Jits_Phase_8,2,5,63,98,1931291288
73,21,15,Jits_Phase_8,3,5,56,103,1931310476
73,21,15,Jits_Phase_8,0,1,48,50,1931859084
73,21,15,Jits_Phase_8,1,5,63,98,1932021220
73,21,15,Jits_Phase_8,2,5,56,103,1932040560
73,21,15,Jits_Phase_8,3,5,80,127,1932080420
73,21,15,Jits_Phase_8,0,1,48,55,1932671576
73,21,15,Jits_Phase_8,1,5,80,127,1932781192
73,21,15,Jits_Phase_8,2,5,63,98,1932801284
73,21,15,Jits_Phase_8,3,5,56,103,1932881248
73,21,15,Jits_Phase_8,0,1,48,62,1933476416
73,21,15,Jits_Phase_8,1,5,63,98,1933570404
73,21,15,Jits_Phase_8,2,5,56,103,1933681000
73,21,15,Jits_Phase_8,3,5,80,127,1933684216
73,21,15,Jits_Phase_8,0,1,48,54,1934281492
73,21,15,Jits_Phase_8,1,5,63,98,1934390840
73,21,15,Jits_Phase_8,2,5,56,103,1934401036
73,21,15,Jits_Phase_8,3,5,80,127,1934404028
73,21,15,Jits_Phase_8,0,1,48,55,1935053964
73,21,15,Jits_Phase_8,1,5,56,103,1935171104
73,21,15,Jits_Phase_8,2,5,80,127,1935290904
73,21,15,Jits_Phase_8,3,5,63,98,1935330768
73,21,15,Jits_Phase_8,0,1,48,50,1935851104
73,21,15,Jits_Phase_8,1,5,56,103,1935991316
73,21,15,Jits_Phase_8,2,5,80,127,1936071188
73,21,15,Jits_Phase_8,3,5,63,98,1936090452
73,21,15,Jits_Phase_8,0,1,48,47,1936701984
73,21,15,Jits_Phase_8,1,5,56,103,1936791092
73,21,15,Jits_Phase_8,2,5,63,98,1936900468
73,21,15,Jits_Phase_8,3,5,80,127,1936903828
73,21,15,Jits_Phase_8,0,1,48,55,1937557020
73,21,15,Jits_Phase_8,1,5,56,103,1937630484
73,21,15,Jits_Phase_8,2,5,80,127,1937661264
73,21,15,Jits_Phase_8,3,5,63,98,1937680676
73,21,15,Jits_Phase_8,0,1,48,57,1938383984
73,21,15,Jits_Phase_8,1,5,63,98,1938421024
73,21,15,Jits_Phase_8,2,5,56,103,1938431296
73,21,15,Jits_Phase_8,3,5,80,127,1938440444
73,21,15,Jits_Phase_8,0,1,48,51,1939155412
73,21,15,Jits_Phase_8,1,5,80,127,1939210588
73,21,15,Jits_Phase_8,2,5,56,103,1939260876
73,21,15,Jits_Phase_8,3,5,63,98,1939300888
73,21,15,Jits_Phase_8,0,1,48,46,1939944304
73,21,15,Jits_Phase_8,1,5,80,127,1940030824
73,21,15,Jits_Phase_8,2,5,63,98,1940051192
73,21,15,Jits_Phase_8,3,5,56,103,1940100496
73,21,15,Jits_Phase_8,0,1,48,46,1940736492
73,21,15,Jits_Phase_8,1,5,80,127,1940840832
73,21,15,Jits_Phase_8,2,5,56,103,1940870732
73,21,15,Jits_Phase_8,3,5,63,98,1940941232
73,21,15,Jits_Phase_8,0,1,48,44,1941579744
73,21,15,Jits_Phase_8,1,5,56,103,1941690940
73,21,15,Jits_Phase_8,2,5,80,127,1941700984
73,21,15,Jits_Phase_8,3,5,63,98,1941741072
73,21,15,Jits_Phase_8,0,5,56,103,1942401492
73,21,15,Jits_Phase_8,1,5,63,98,1942421052
73,21,15,Jits_Phase_8,2,1,48,26,1942436304
73,21,15,Jits_Phase_8,3,5,80,127,1942490428
73,21,15,Jits_Phase_8,0,5,63,98,1943220740
73,21,15,Jits_Phase_8,1,5,80,127,1943280984
73,21,15,Jits_Phase_8,2,1,48,46,1943285972
73,21,15,Jits_Phase_8,3,5,56,103,1943300536
73,21,15,Jits_Phase_8,0,5,80,127,1944010984
73,21,15,Jits_Phase_8,1,1,48,55,1944011952
73,21,15,Jits_Phase_8,2,5,56,103,1944040952
73,21,15,Jits_Phase_8,3,5,63,98,1944070404
73,21,15,Jits_Phase_8,0,5,56,103,1944810976
73,21,15,Jits_Phase_8,1,1,48,20,1944820772
73,21,15,Jits_Phase_8,2,5,63,98,1944871212
73,21,15,Jits_Phase_8,3,5,80,127,1944931012
73,21,15,Jits_Phase_8,0,1,48,53,1945592660
73,21,15,Jits_Phase_8,1,5,80,127,1945631048
73,21,15,Jits_Phase_8,2,5,56,103,1945650760
73,21,15,Jits_Phase_8,3,5,63,98,1945721196
73,21,15,Jits_Phase_8,0,1,48,52,1946352040
73,21,15,Jits_Phase_8,1,5,80,127,1946430984
73,21,15,Jits_Phase_8,2,5,63,98,1946451280
73,21,15,Jits_Phase_8,3,5,56,103,1946481028
73,21,15,Jits_Phase_8,0,1,48,53,1947125940
73,21,15,Jits_Phase_8,1,5,80,127,1947221300
73,21,15,Jits_Phase_8,2,5,63,98,1947241072
73,21,15,Jits_Phase_8,3,5,56,103,1947301236
73,21,15,Jits_Phase_8,0,1,48,51,1947863960
73,21,15,Jits_Phase_8,1,5,80,127,1948021092
73,21,15,Jits_Phase_8,2,5,56,103,1948120368
73,21,15,Jits_Phase_8,3,5,63,98,1948151164
73,21,15,Jits_Phase_8,0,1,48,50,1948687748
73,21,15,Jits_Phase_8,1,5,63,98,1948810816
73,21,15,Jits_Phase_8,2,5,80,127,1948860792
73,21,15,Jits_Phase_8,3,5,56,103,1948881328
73,21,15,Jits_Phase_8,0,1,48,42,1949513528
73,21,15,Jits_Phase_8,1,5,80,127,1949651252
73,21,15,Jits_Phase_8,2,5,56,103,1949681152
73,21,15,Jits_Phase_8,3,5,63,98,1949684068
73,21,15,Jits_Phase_8,0,1,48,46,1950223348
73,21,15,Jits_Phase_8,1,5,63,98,1950501128
73,21,15,Jits_Phase_8,2,5,56,103,1950541164
73,21,15,Jits_Phase_8,3,5,80,127,1950560800
73,21,15,Jits_Phase_8,0,1,48,53,1951064644
73,21,15,Jits_Phase_8,1,5,80,127,1951260960
73,21,15,Jits_Phase_8,2,5,63,98,1951341004
73,21,15,Jits_Phase_8,3,5,56,103,1951380940
73,21,15,Jits_Phase_8,0,1,48,40,1951870332
73,21,15,Jits_Phase_8,1,5,63,98,1952081124
73,21,15,Jits_Phase_8,2,5,80,127,1952161068
73,21,15,Jits_Phase_8,3,5,56,103,1952180704
73,21,15,Jits_Phase_8,0,1,48,41,1952689356
73,21,15,Jits_Phase_8,1,5,56,103,1952921044
73,21,15,Jits_Phase_8,2,5,63,98,1952931316
73,21,15,Jits_Phase_8,3,5,80,127,1952971104
73,21,15,Jits_Phase_8,0,1,48,43,1953511664
73,21,15,Jits_Phase_8,1,5,56,103,1953640864
73,21,15,Jits_Phase_8,2,5,80,127,1953644004
73,21,15,Jits_Phase_8,3,5,63,98,1953781112
73,21,15,Jits_Phase_8,0,1,48,44,1954313804
73,21,15,Jits_Phase_8,1,5,56,103,1954431392
73,21,15,Jits_Phase_8,2,5,63,98,1954520704
73,21,15,Jits_Phase_8,3,5,80,127,1954591056
73,21,15,Jits_Phase_8,0,1,48,48,1955120832
73,21,15,Jits_Phase_8,1,5,63,98,1955311092
73,21,15,Jits_Phase_8,2,5,80,127,1955314456
73,21,15,Jits_Phase_8,3,5,56,103,1955371332
73,21,15,Jits_Phase_8,0,1,48,32,1955919712
73,21,15,Jits_Phase_8,1,5,80,127,1956150660
73,21,15,Jits_Phase_8,2,5,56,103,1956171268
73,21,15,Jits_Phase_8,3,5,63,98,1956181464
73,21,15,Jits_Phase_8,0,1,48,51,1956727936
73,21,15,Jits_Phase_8,1,5,56,103,1956861168
73,21,15,Jits_Phase_8,2,5,63,98,1956870616
73,21,15,Jits_Phase_8,3,5,80,127,1956941292
73,21,15,Jits_Phase_8,0,1,48,49,1957512716
73,21,15,Jits_Phase_8,1,5,80,127,1957661076
73,21,15,Jits_Phase_8,2,5,56,103,1957711156
73,21,15,Jits_Phase_8,3,5,63,98,1957761428
73,21,15,Jits_Phase_8,0,1,48,38,1958281012
73,21,15,Jits_Phase_8,1,5,56,103,1958540728
73,21,15,Jits_Phase_8,2,5,63,98,1958551072
73,21,15,Jits_Phase_8,3,5,80,127,1958591012
73,21,15,Jits_Phase_8,0,1,48,43,1959091864
73,21,15,Jits_Phase_8,1,5,56,103,1959280932
73,21,15,Jits_Phase_8,2,5,63,98,1959320872
73,21,15,Jits_Phase_8,3,5,80,127,1959371072
73,21,15,Jits_Phase_8,0,1,48,45,1959820976
73,21,15,Jits_Phase_8,1,5,80,127,1960040836
73,21,15,Jits_Phase_8,2,5,56,103,1960090960
73,21,15,Jits_Phase_8,3,5,63,98,1960110524
73,21,15,Jits_Phase_8,0,1,48,44,1960577268
73,21,15,Jits_Phase_8,1,5,80,127,1960850852
73,21,15,Jits_Phase_8,2,5,63,98,1960911096
73,21,15,Jits_Phase_8,3,5,56,103,1960991036
73,21,15,Jits_Phase_8,0,1,48,49,1961329692
73,21,15,Jits_Phase_8,1,5,80,127,1961631132
73,21,15,Jits_Phase_8,2,5,56,103,1961670924
73,21,15,Jits_Phase_8,3,5,63,98,1961690632
73,21,15,Jits_Phase_8,4,1,48,40,1962044384
73,21,15,Jits_Phase_8,0,5,56,103,1962480988
73,21,15,Jits_Phase_8,1,5,80,127,1962491184
73,21,15,Jits_Phase_8,2,5,63,98,1962531044
73,21,15,Jits_Phase_8,3,1,48,50,1962796672
73,21,15,Jits_Phase_8,0,5,56,103,1963351732
73,21,15,Jits_Phase_8,1,5,63,98,1963391520
73,21,15,Jits_Phase_8,2,5,80,127,1963394732
73,21,15,Jits_Phase_8,3,1,48,52,1963542596
73,21,15,Jits_Phase_8,0,5,63,98,1964021120
73,21,15,Jits_Phase_8,1,5,80,127,1964060984
73,21,15,Jits_Phase_8,2,5,56,103,1964130688
73,21,15,Jits_Phase_8,3,1,48,31,1964428768
73,21,15,Jits_Phase_8,0,5,63,98,1964791136
73,21,15,Jits_Phase_8,1,5,56,103,1964871032
73,21,15,Jits_Phase_8,2,5,80,127,1964930524
73,21,15,Jits_Phase_8,3,1,48,38,1965183572
73,21,15,Jits_Phase_8,0,5,80,127,1965600996
73,21,15,Jits_Phase_8,1,5,63,98,1965651448
73,21,15,Jits_Phase_8,2,5,56,103,1965681048
73,21,15,Jits_Phase_8,3,1,48,56,1965984508
73,21,15,Jits_Phase_8,0,5,56,103,1966390512
73,21,15,Jits_Phase_8,1,5,63,98,1966440860
73,21,15,Jits_Phase_8,2,5,80,127,1966450984
73,21,15,Jits_Phase_8,3,1,48,54,1966792732
73,21,15,Jits_Phase_8,0,5,56,103,1967200540
73,21,15,Jits_Phase_8,1,5,63,98,1967311500
73,21,15,Jits_Phase_8,2,5,80,127,1967330616
73,21,15,Jits_Phase_8,3,1,48,55,1967616616
73,21,15,Jits_Phase_8,0,5,63,98,1968001660
73,21,15,Jits_Phase_8,1,5,80,127,1968050592
73,21,15,Jits_Phase_8,2,5,56,103,1968140648
73,21,15,Jits_Phase_8,3,1,48,47,1968424556
73,21,15,Jits_Phase_8,0,5,63,98,1968790780
73,21,15,Jits_Phase_8,1,5,80,127,1968820604
73,21,15,Jits_Phase_8,2,5,56,103,1968910660
73,21,15,Jits_Phase_8,3,1,48,45,1969252204
73,21,15,Jits_Phase_8,0,5,63,98,1969590756
73,21,15,Jits_Phase_8,1,5,56,103,1969601024
73,21,15,Jits_Phase_8,2,5,80,127,1969701344
73,21,15,Jits_Phase_8,0,1,48,53,1970116188
73,21,15,Jits_Phase_8,1,5,63,98,1970490796
73,21,15,Jits_Phase_8,2,5,80,127,1970520472
73,21,15,Jits_Phase_8,3,5,56,103,1970551120
73,21,15,Jits_Phase_8,0,1,48,51,1970891316
73,21,15,Jits_Phase_8,1,5,80,127,1971310944
73,21,15,Jits_Phase_8,2,5,63,98,1971321436
73,21,15,Jits_Phase_8,3,5,56,103,1971350816
73,21,15,Jits_Phase_8,4,1,48,50,1971647156
73,21,15,Jits_Phase_8,0,5,80,127,1972011540
73,21,15,Jits_Phase_8,1,5,63,98,1972030756
73,21,15,Jits_Phase_8,2,5,56,103,1972080956
73,21,15,Jits_Phase_8,3,1,48,50,1972417444
73,21,15,Jits_Phase_8,0,5,63,98,1972840780
73,21,15,Jits_Phase_8,1,5,80,127,1972901392
73,21,15,Jits_Phase_8,2,5,56,103,1972920656
73,21,15,Jits_Phase_8,3,1,48,49,1973170344
73,21,15,Jits_Phase_8,0,5,63,98,1973600604
73,21,15,Jits_Phase_8,1,5,56,103,1973650884
73,21,15,Jits_Phase_8,2,5,80,127,1973661228
73,21,15,Jits_Phase_8,3,1,48,43,1973958168
73,21,15,Jits_Phase_8,0,5,56,103,1974431000
73,21,15,Jits_Phase_8,1,5,80,127,1974441568
73,21,15,Jits_Phase_8,2,5,63,98,1974540616
73,21,15,Jits_Phase_8,3,1,48,52,1974771948
73,21,15,Jits_Phase_8,0,5,80,127,1975190916
73,21,15,Jits_Phase_8,1,5,63,98,1975201408
73,21,15,Jits_Phase_8,2,5,56,103,1975350528
73,21,15,Jits_Phase_8,3,1,48,54,1975561452
73,21,15,Jits_Phase_8,0,5,63,98,1976001244
73,21,15,Jits_Phase_8,1,5,80,127,1976040740
73,21,15,Jits_Phase_8,2,5,56,103,1976120632
73,21,15,Jits_Phase_8,3,1,48,48,1976299052
73,21,15,Jits_Phase_8,0,5,56,103,1976750360
73,21,15,Jits_Phase_8,1,5,80,127,1976850756
73,21,15,Jits_Phase_8,2,5,63,98,1976871660
73,21,15,Jits_Phase_8,3,1,48,49,1977059244
73,21,15,Jits_Phase_8,0,5,80,127,1977570664
73,21,15,Jits_Phase_8,1,5,56,103,1977580860
73,21,15,Jits_Phase_8,2,5,63,98,1977671164
73,21,15,Jits_Phase_8,3,1,48,49,1977855788
73,21,15,Jits_Phase_8,0,5,56,103,1978370512
73,21,15,Jits_Phase_8,1,5,63,98,1978390752
73,21,15,Jits_Phase_8,2,5,80,127,1978470716
73,21,15,Jits_Phase_8,3,1,48,43,1978558024
73,21,15,Jits_Phase_8,0,5,63,98,1979120988
73,21,15,Jits_Phase_8,1,5,56,103,1979211220
73,21,15,Jits_Phase_8,2,5,80,127,1979214288
73,21,15,Jits_Phase_8,3,1,48,39,1979244904
73,21,15,Jits_Phase_8,0,5,56,103,1979950480
73,21,15,Jits_Phase_8,1,1,48,53,1980001356
73,21,15,Jits_Phase_8,2,5,80,127,1980010744
73,21,15,Jits_Phase_8,3,5,63,98,1980021384
73,21,15,Jits_Phase_8,0,1,48,29,1980800320
73,21,15,Jits_Phase_8,1,5,80,127,1980801892
73,21,15,Jits_Phase_8,2,5,56,103,1980810512
73,21,15,Jits_Phase_8,3,5,63,98,1980813660
73,21,15,Jits_Phase_8,0,1,48,46,1981554188
73,21,15,Jits_Phase_8,1,5,56,103,1981561112
73,21,15,Jits_Phase_8,2,5,80,127,1981570412
73,21,15,Jits_Phase_8,3,5,63,98,1981591092
73,21,15,Jits_Phase_8,0,1,48,45,1982307260
73,21,15,Jits_Phase_8,1,5,63,98,1982331424
73,21,15,Jits_Phase_8,2,5,80,127,1982390620
73,21,15,Jits_Phase_8,3,5,56,103,1982440952
73,21,15,Jits_Phase_8,0,1,48,46,1983083276
73,21,15,Jits_Phase_8,1,5,63,98,1983211184
73,21,15,Jits_Phase_8,2,5,56,103,1983221308
73,21,15,Jits_Phase_8,3,5,80,127,1983271432
73,21,15,Jits_Phase_8,0,1,48,44,1983831280
73,21,15,Jits_Phase_8,1,5,63,98,1983911392
73,21,15,Jits_Phase_8,2,5,80,127,1983930792
73,21,15,Jits_Phase_8,3,5,56,103,1983941136
73,21,15,Jits_Phase_8,0,1,48,38,1984596700
73,21,15,Jits_Phase_8,1,5,63,98,1984711276
73,21,15,Jits_Phase_8,2,5,80,127,1984714564
73,21,15,Jits_Phase_8,3,5,56,103,1984751064
73,21,15,Jits_Phase_8,0,1,48,48,1985392252
73,21,15,Jits_Phase_8,1,5,63,98,1985581368
73,21,15,Jits_Phase_8,2,5,80,127,1985611144
73,21,15,Jits_Phase_8,3,5,56,103,1985621340
73,21,15,Jits_Phase_8,0,1,48,50,1986155444
73,21,15,Jits_Phase_8,1,5,56,103,1986331156
73,21,15,Jits_Phase_8,2,5,80,127,1986360560
73,21,15,Jits_Phase_8,3,5,63,98,1986391580
73,21,15,Jits_Phase_8,0,1,48,57,1986936692
73,21,15,Jits_Phase_8,1,5,63,98,1987231188
73,21,15,Jits_Phase_8,2,5,56,103,1987271352
73,21,15,Jits_Phase_8,3,5,80,127,1987274264
73,21,15,Jits_Phase_8,0,1,48,51,1987741636
73,21,15,Jits_Phase_8,1,5,80,127,1987930552
73,21,15,Jits_Phase_8,2,5,56,103,1988011396
73,21,15,Jits_Phase_8,3,5,63,98,1988060400
73,21,15,Jits_Phase_8,0,1,48,60,1988492996
73,21,15,Jits_Phase_8,1,5,80,127,1988710760
73,21,15,Jits_Phase_8,2,5,56,103,1988731292
73,21,15,Jits_Phase_8,3,5,63,98,1988821348
73,21,15,Jits_Phase_8,0,1,48,48,1989271624
73,21,15,Jits_Phase_8,1,5,80,127,1989550372
73,21,15,Jits_Phase_8,2,5,63,98,1989591504
73,21,15,Jits_Phase_8,3,5,56,103,1989631444
73,21,15,Jits_Phase_8,0,1,48,38,1990008804
73,21,15,Jits_Phase_8,1,5,63,98,1990360320
73,21,15,Jits_Phase_8,2,5,80,127,1990421008
73,21,15,Jits_Phase_8,3,5,56,103,1990450536
73,21,15,Jits_Phase_8,4,1,48,41,1990826160
73,21,15,Jits_Phase_8,0,5,56,103,1991201180
73,21,15,Jits_Phase_8,1,5,80,127,1991231028
73,21,15,Jits_Phase_8,2,5,63,98,1991321084
73,21,15,Jits_Phase_8,3,1,48,48,1991602076
73,21,15,Jits_Phase_8,0,5,56,103,1992011012
73,21,15,Jits_Phase_8,1,5,80,127,1992120628
73,21,15,Jits_Phase_8,2,5,63,98,1992151424
73,21,15,Jits_Phase_8,0,1,48,44,1992534896
73,21,15,Jits_Phase_8,1,5,56,103,1992861076
73,21,15,Jits_Phase_8,2,5,63,98,1992920348
73,21,15,Jits_Phase_8,3,5,80,127,1992951216
73,21,15,Jits_Phase_8,0,1,48,57,1993396544
73,21,15,Jits_Phase_8,1,5,56,103,1993630948
73,21,15,Jits_Phase_8,2,5,63,98,1993701004
73,21,15,Jits_Phase_8,3,5,80,127,1993721164
73,21,15,Jits_Phase_8,0,1,48,58,1994175932
73,21,15,Jits_Phase_8,1,5,80,127,1994401116
73,21,15,Jits_Phase_8,2,5,63,98,1994420528
73,21,15,Jits_Phase_8,3,5,56,103,1994471024
73,21,15,Jits_Phase_8,0,1,48,64,1994899052
73,21,15,Jits_Phase_8,1,5,63,98,1995221324
73,21,15,Jits_Phase_8,2,5,80,127,1995230548
73,21,15,Jits_Phase_8,3,5,56,103,1995281044
73,21,15,Jits_Phase_8,0,1,48,50,1995693928
73,21,15,Jits_Phase_8,1,5,63,98,1996021152
73,21,15,Jits_Phase_8,2,5,80,127,1996091012
73,21,15,Jits_Phase_8,3,5,56,103,1996111320
73,21,15,Jits_Phase_8,0,5,63,98,1996850604
73,21,15,Jits_Phase_8,1,5,80,127,1996854116
73,21,15,Jits_Phase_8,2,1,48,55,1996906456
73,21,15,Jits_Phase_8,3,5,56,103,1996921252
73,21,15,Jits_Phase_8,0,5,80,127,1997601108
73,21,15,Jits_Phase_8,1,5,56,103,1997620544
73,21,15,Jits_Phase_8,2,5,63,98,1997630964
73,21,15,Jits_Phase_8,3,1,48,64,1997697824
73,21,15,Jits_Phase_8,0,5,56,103,1998421352
73,21,15,Jits_Phase_8,1,1,48,49,1998438096
73,21,15,Jits_Phase_8,2,5,63,98,1998510348
73,21,15,Jits_Phase_8,3,5,80,127,1998513868
73,21,15,Jits_Phase_8,0,5,80,127,1999191372
73,21,15,Jits_Phase_8,1,5,56,103,1999200896
73,21,15,Jits_Phase_8,2,5,63,98,1999221132
73,21,15,Jits_Phase_8,3,1,48,29,1999234140
73,21,15,Jits_Phase_8,0,1,48,65,1999934536
73,21,15,Jits_Phase_8,1,5,63,98,1999991280
73,21,15,Jits_Phase_8,2,5,80,127,2000050684
73,21,15,Jits_Phase_8,3,5,56,103,2000060880
73,21,15,Jits_Phase_8,0,1,48,57,2000636040
73,21,15,Jits_Phase_8,1,5,63,98,2000860476
73,21,15,Jits_Phase_8,2,5,80,127,2000891196
73,21,15,Jits_Phase_8,3,5,56,103,2000931136
73,21,15,Jits_Phase_8,0,1,48,39,2001407180
73,21,15,Jits_Phase_8,1,5,56,103,2001651020
73,21,15,Jits_Phase_8,2,5,80,127,2001661516
73,21,15,Jits_Phase_8,3,5,63,98,2001701228
73,21,15,Jits_Phase_8,0,1,48,63,2002186340
73,21,15,Jits_Phase_8,1,5,80,127,2002411072
73,21,15,Jits_Phase_8,2,5,56,103,2002491040
73,21,15,Jits_Phase_8,3,5,63,98,2002500864
73,21,15,Jits_Phase_8,0,1,48,45,2002961528
73,21,15,Jits_Phase_8,1,5,80,127,2003260900
73,21,15,Jits_Phase_8,2,5,56,103,2003340772
73,21,15,Jits_Phase_8,3,5,63,98,2003350968
73,21,15,Jits_Phase_8,0,1,48,46,2003804016
73,21,15,Jits_Phase_8,1,5,80,127,2004100896
73,21,15,Jits_Phase_8,2,5,56,103,2004150804
73,21,15,Jits_Phase_8,3,5,63,98,2004200856
73,21,15,Jits_Phase_8,0,1,48,45,2004645944
73,21,15,Jits_Phase_8,1,5,56,103,2005040600
73,21,15,Jits_Phase_8,2,5,63,98,2005043816
73,21,15,Jits_Phase_8,3,5,80,127,2005090800
73,21,15,Jits_Phase_8,0,1,48,50,2005438652
73,21,15,Jits_Phase_8,1,5,56,103,2005861016
73,21,15,Jits_Phase_8,2,5,63,98,2005890396
73,21,15,Jits_Phase_8,3,5,80,127,2005900740
73,21,15,Jits_Phase_8,4,1,48,57,2006206672
73,21,15,Jits_Phase_8,0,5,63,98,2006571352
73,21,15,Jits_Phase_8,1,5,56,103,2006640984
73,21,15,Jits_Phase_8,2,5,80,127,2006691112
73,21,15,Jits_Phase_8,3,1,48,59,2006978088
73,21,15,Jits_Phase_8,0,5,63,98,2007400884
73,21,15,Jits_Phase_8,1,5,56,103,2007411076
73,21,15,Jits_Phase_8,2,5,80,127,2007413992
73,21,15,Jits_Phase_8,3,1,48,55,2007705472
73,21,15,Jits_Phase_8,0,5,80,127,2008151552
73,21,15,Jits_Phase_8,1,5,56,103,2008210748
73,21,15,Jits_Phase_8,2,5,63,98,2008301028
73,21,15,Jits_Phase_8,3,1,48,57,2008468616
73,21,15,Jits_Phase_8,0,5,80,127,2008951100
73,21,15,Jits_Phase_8,1,5,56,103,2009050748
73,21,15,Jits_Phase_8,2,5,63,98,2009090392
73,21,15,Jits_Phase_8,3,1,48,55,2009214144
73,21,15,Jits_Phase_8,0,5,56,103,2009801148
73,21,15,Jits_Phase_8,1,5,63,98,2009820636
73,21,15,Jits_Phase_8,2,5,80,127,2009860720
73,21,15,Jits_Phase_8,3,1,48,51,2009943348
73,21,15,Jits_Phase_8,0,5,63,98,2010571252
73,21,15,Jits_Phase_8,1,5,56,103,2010590736
73,21,15,Jits_Phase_8,2,5,80,127,2010690860
73,21,15,Jits_Phase_8,0,1,48,43,2011105152
73,21,15,Jits_Phase_8,1,5,63,98,2011360832
73,21,15,Jits_Phase_8,2,5,80,127,2011471148
73,21,15,Jits_Phase_8,3,5,56,103,2011500896
73,21,15,Jits_Phase_8,0,1,48,54,2011877340
73,21,15,Jits_Phase_8,1,5,56,103,2012180972
73,21,15,Jits_Phase_8,2,5,63,98,2012210676
73,21,15,Jits_Phase_8,3,5,80,127,2012260948
73,21,15,Jits_Phase_8,4,1,48,46,2012592804
73,21,15,Jits_Phase_8,0,1,48,38,2012939172
73,21,15,Jits_Phase_8,1,5,63,98,2012950960
73,21,15,Jits_Phase_8,2,5,56,103,2012980660
73,21,15,Jits_Phase_8,3,5,80,127,2013030636
73,21,15,Jits_Phase_8,4,1,48,26,2013410800
73,21,15,Jits_Phase_8,0,5,56,103,2013781788
73,21,15,Jits_Phase_8,1,5,63,98,2013800680
73,21,15,Jits_Phase_8,2,5,80,127,2013880992
73,21,15,Jits_Phase_8,3,1,48,47,2014192704
73,21,15,Jits_Phase_8,0,5,63,98,2014551368
73,21,15,Jits_Phase_8,1,1,48,23,2014567740
73,21,15,Jits_Phase_8,2,5,56,103,2014610780
73,21,15,Jits_Phase_8,3,5,80,127,2014640604
73,21,15,Jits_Phase_8,4,1,48,65,2015006148
73,21,15,Jits_Phase_8,0,1,48,20,2015119440
73,21,15,Jits_Phase_8,1,5,56,103,2015390992
73,21,15,Jits_Phase_8,2,5,80,127,2015450708
73,21,15,Jits_Phase_8,3,5,63,98,2015490276
73,21,15,Jits_Phase_8,4,1,48,49,2015810172
73,21,15,Jits_Phase_8,0,5,63,98,2016171476
73,21,15,Jits_Phase_8,1,5,56,103,2016230668
73,21,15,Jits_Phase_8,2,5,80,127,2016301544
73,21,15,Jits_Phase_8,3,1,48,63,2016588692
73,21,15,Jits_Phase_8,0,1,48,35,2016648420
73,21,15,Jits_Phase_8,1,5,56,103,2017050852
73,21,15,Jits_Phase_8,2,5,63,98,2017061116
73,21,15,Jits_Phase_8,3,5,80,127,2017064636
73,21,15,Jits_Phase_8,4,1,48,54,2017394800
73,21,15,Jits_Phase_8,0,5,63,98,2017791320
73,21,15,Jits_Phase_8,1,5,56,103,2017850760
73,21,15,Jits_Phase_8,2,5,80,127,2017853828
73,21,15,Jits_Phase_8,3,1,48,56,2018187928
73,21,15,Jits_Phase_8,0,1,48,19,2018281136
73,21,15,Jits_Phase_8,1,5,63,98,2018570748
73,21,15,Jits_Phase_8,2,5,80,127,2018601616
73,21,15,Jits_Phase_8,3,5,56,103,2018620832
73,21,15,Jits_Phase_8,4,1,48,49,2018990672
73,21,15,Jits_Phase_8,0,1,48,21,2019068996
73,21,15,Jits_Phase_8,1,5,56,103,2019300704
73,21,15,Jits_Phase_8,2,5,63,98,2019350908
73,21,15,Jits_Phase_8,3,5,80,127,2019430724
73,21,15,Jits_Phase_8,0,1,48,50,2019729732
73,21,15,Jits_Phase_8,1,1,48,33,2019777488
73,21,15,Jits_Phase_8,2,5,80,127,2020001184
73,21,15,Jits_Phase_8,3,5,63,98,2020041048
73,21,15,Jits_Phase_8,4,5,56,103,2020060608
73,21,15,Jits_Phase_8,0,1,48,57,2020519400
73,21,15,Jits_Phase_8,1,1,48,32,2020598772
73,21,15,Jits_Phase_8,2,5,56,103,2020870568
73,21,15,Jits_Phase_8,3,5,80,127,2020880840
73,21,15,Jits_Phase_8,4,5,63,98,2020901152
73,21,15,Jits_Phase_8,0,1,48,61,2021282404
73,21,15,Jits_Phase_8,1,1,48,24,2021380884
73,21,15,Jits_Phase_8,2,5,56,103,2021650864
73,21,15,Jits_Phase_8,3,5,63,98,2021701016
73,21,15,Jits_Phase_8,4,5,80,127,2021730544
73,21,15,Jits_Phase_8,5,1,48,70,2022052584
73,21,15,Jits_Phase_8,0,5,56,103,2022401512
73,21,15,Jits_Phase_8,1,5,63,98,2022410512
73,21,15,Jits_Phase_8,2,5,80,127,2022460736
73,21,15,Jits_Phase_8,3,1,48,65,2022845252
73,21,15,Jits_Phase_8,0,5,56,103,2023190936
73,21,15,Jits_Phase_8,1,5,80,127,2023193856
73,21,15,Jits_Phase_8,2,5,63,98,2023350616
73,21,15,Jits_Phase_8,3,1,48,68,2023619028
73,21,15,Jits_Phase_8,0,5,63,98,2024011252
73,21,15,Jits_Phase_8,1,5,56,103,2024080712
73,21,15,Jits_Phase_8,2,5,80,127,2024120652
73,21,15,Jits_Phase_8,3,1,48,58,2024406652
73,21,15,Jits_Phase_8,0,5,63,98,2024850796
73,21,15,Jits_Phase_8,1,5,56,103,2024940776
73,21,15,Jits_Phase_8,2,5,80,127,2024943844
73,21,15,Jits_Phase_8,3,1,48,53,2025170988
73,21,15,Jits_Phase_8,0,5,56,103,2025631220
73,21,15,Jits_Phase_8,1,5,63,98,2025721428
73,21,15,Jits_Phase_8,2,5,80,127,2025730428
73,21,15,Jits_Phase_8,3,1,48,49,2025936724
73,21,15,Jits_Phase_8,0,5,56,103,2026401028
73,21,15,Jits_Phase_8,1,5,63,98,2026451456
73,21,15,Jits_Phase_8,2,5,80,127,2026480980
73,21,15,Jits_Phase_8,3,1,48,65,2026767512
73,21,15,Jits_Phase_8,4,1,48,26,2026858152
73,21,15,Jits_Phase_8,0,5,63,98,2027280696
73,21,15,Jits_Phase_8,1,5,80,127,2027291040
73,21,15,Jits_Phase_8,2,5,56,103,2027351604
73,21,15,Jits_Phase_8,3,1,48,59,2027551972
73,21,15,Jits_Phase_8,4,1,48,38,2027641872
73,21,15,Jits_Phase_8,0,5,63,98,2028000548
73,21,15,Jits_Phase_8,1,5,80,127,2028061236
73,21,15,Jits_Phase_8,2,5,56,103,2028101128
73,21,15,Jits_Phase_8,3,1,48,56,2028383916
73,21,15,Jits_Phase_8,4,1,48,38,2028422028
73,21,15,Jits_Phase_8,0,5,56,103,2028900684
73,21,15,Jits_Phase_8,1,5,80,127,2028921368
73,21,15,Jits_Phase_8,2,5,63,98,2028940632
73,21,15,Jits_Phase_8,3,1,48,53,2029212332
73,21,15,Jits_Phase_8,0,5,63,98,2029620672
73,21,15,Jits_Phase_8,1,5,56,103,2029641056
73,21,15,Jits_Phase_8,2,5,80,127,2029680996
73,21,15,Jits_Phase_8,3,1,48,54,2030005952
73,21,15,Jits_Phase_8,0,5,63,98,2030430692
73,21,15,Jits_Phase_8,1,5,80,127,2030461412
73,21,15,Jits_Phase_8,2,5,56,103,2030480752
73,21,15,Jits_Phase_8,3,1,48,62,2030773952
73,21,15,Jits_Phase_8,4,1,48,21,2030867716
73,21,15,Jits_Phase_8,0,5,80,127,2031200736
73,21,15,Jits_Phase_8,1,5,56,103,2031250712
73,21,15,Jits_Phase_8,2,5,63,98,2031311476
73,21,15,Jits_Phase_8,3,1,48,41,2031573516
73,21,15,Jits_Phase_8,0,5,63,98,2031991420
73,21,15,Jits_Phase_8,1,5,56,103,2032110852
73,21,15,Jits_Phase_8,2,5,80,127,2032140528
73,21,15,Jits_Phase_8,3,1,48,49,2032380396
73,21,15,Jits_Phase_8,0,5,80,127,2032830952
73,21,15,Jits_Phase_8,1,5,63,98,2032851264
73,21,15,Jits_Phase_8,2,5,56,103,2032920868
73,21,15,Jits_Phase_8,3,1,48,42,2033259420
73,21,15,Jits_Phase_8,0,5,63,98,2033651180
73,21,15,Jits_Phase_8,1,5,56,103,2033661304
73,21,15,Jits_Phase_8,2,5,80,127,2033741344
73,21,15,Jits_Phase_8,0,1,48,53,2034104252
73,21,15,Jits_Phase_8,1,5,56,103,2034511300
73,21,15,Jits_Phase_8,2,5,80,127,2034540900
73,21,15,Jits_Phase_8,3,5,63,98,2034551392
73,21,15,Jits_Phase_8,0,9999,9999,9999,1899668544
73,21,15,Jits_Phase_8,1,9999,9999,9999,1900468336
73,21,15,Jits_Phase_8,2,9999,9999,9999,1901269120
73,21,15,Jits_Phase_8,3,9999,9999,9999,1902068852
73,21,15,Jits_Phase_8,4,9999,9999,9999,1902868560
73,21,15,Jits_Phase_8,5,9999,9999,9999,1903668320
73,21,15,Jits_Phase_8,6,9999,9999,9999,1904469068
73,21,15,Jits_Phase_8,7,9999,9999,9999,1905268828
73,21,15,Jits_Phase_8,8,9999,9999,9999,1906068592
73,21,15,Jits_Phase_8,9,9999,9999,9999,1906868340
73,21,15,Jits_Phase_8,10,9999,9999,9999,1907669080
73,21,15,Jits_Phase_8,11,9999,9999,9999,1908468840
73,21,15,Jits_Phase_8,12,9999,9999,9999,1909268604
73,21,15,Jits_Phase_8,13,9999,9999,9999,1910068284
73,21,15,Jits_Phase_8,14,9999,9999,9999,1910869092
73,21,15,Jits_Phase_8,15,9999,9999,9999,1911668844
73,21,15,Jits_Phase_8,16,9999,9999,9999,1912468584
73,21,15,Jits_Phase_8,17,9999,9999,9999,1913268348
73,21,15,Jits_Phase_8,18,9999,9999,9999,1914069084
73,21,15,Jits_Phase_8,19,9999,9999,9999,1914868844
73,21,15,Jits_Phase_8,20,9999,9999,9999,1915668604
73,21,15,Jits_Phase_8,21,9999,9999,9999,1916468284
73,21,15,Jits_Phase_8,22,9999,9999,9999,1917269104
73,21,15,Jits_Phase_8,23,9999,9999,9999,1918068860
73,21,15,Jits_Phase_8,24,9999,9999,9999,1918868576
73,21,15,Jits_Phase_8,25,9999,9999,9999,1919668296
73,21,15,Jits_Phase_8,26,9999,9999,9999,1920469084
73,21,15,Jits_Phase_8,27,9999,9999,9999,1921268856
73,21,15,Jits_Phase_8,28,9999,9999,9999,1922068552
73,21,15,Jits_Phase_8,29,9999,9999,9999,1922868336
73,21,15,Jits_Phase_8,30,9999,9999,9999,1923648572
73,21,15,Jits_Phase_8,31,9999,9999,9999,1924448328
73,21,15,Jits_Phase_8,32,9999,9999,9999,1925248088
73,21,15,Jits_Phase_8,33,9999,9999,9999,1926048864
73,21,15,Jits_Phase_8,34,9999,9999,9999,1926848580
73,21,15,Jits_Phase_8,35,9999,9999,9999,1927648324
73,21,15,Jits_Phase_8,36,9999,9999,9999,1928448088
73,21,15,Jits_Phase_8,37,9999,9999,9999,1929248892
73,21,15,Jits_Phase_8,38,9999,9999,9999,1930048596
73,21,15,Jits_Phase_8,39,9999,9999,9999,1930848360
73,21,15,Jits_Phase_8,40,9999,9999,9999,1931648120
73,21,15,Jits_Phase_8,41,9999,9999,9999,1932448852
73,21,15,Jits_Phase_8,42,9999,9999,9999,1933248612
73,21,15,Jits_Phase_8,43,9999,9999,9999,1934048360
73,21,15,Jits_Phase_8,44,9999,9999,9999,1934848104
73,21,15,Jits_Phase_8,45,9999,9999,9999,1935648836
73,21,15,Jits_Phase_8,46,9999,9999,9999,1936448620
73,21,15,Jits_Phase_8,47,9999,9999,9999,1937248376
73,21,15,Jits_Phase_8,48,9999,9999,9999,1938068584
73,21,15,Jits_Phase_8,49,9999,9999,9999,1938868340
73,21,15,Jits_Phase_8,50,9999,9999,9999,1939669072
73,21,15,Jits_Phase_8,51,9999,9999,9999,1940468828
73,21,15,Jits_Phase_8,52,9999,9999,9999,1941268592
73,21,15,Jits_Phase_8,53,9999,9999,9999,1942068280
73,21,15,Jits_Phase_8,54,9999,9999,9999,1942869108
73,21,15,Jits_Phase_8,55,9999,9999,9999,1943668808
73,21,15,Jits_Phase_8,56,9999,9999,9999,1944468560
73,21,15,Jits_Phase_8,57,9999,9999,9999,1945268332
73,21,15,Jits_Phase_8,58,9999,9999,9999,1946069080
73,21,15,Jits_Phase_8,59,9999,9999,9999,1946868836
73,21,15,Jits_Phase_8,60,9999,9999,9999,1947668596
73,21,15,Jits_Phase_8,61,9999,9999,9999,1948468332
73,21,15,Jits_Phase_8,62,9999,9999,9999,1949269088
73,21,15,Jits_Phase_8,63,9999,9999,9999,1950068836
73,21,15,Jits_Phase_8,64,9999,9999,9999,1950908532
73,21,15,Jits_Phase_8,65,9999,9999,9999,1951708224
73,21,15,Jits_Phase_8,66,9999,9999,9999,1952509032
73,21,15,Jits_Phase_8,67,9999,9999,9999,1953308800
73,21,15,Jits_Phase_8,68,9999,9999,9999,1954108492
73,21,15,Jits_Phase_8,69,9999,9999,9999,1954908252
73,21,15,Jits_Phase_8,70,9999,9999,9999,1955709052
73,21,15,Jits_Phase_8,71,9999,9999,9999,1956508744
73,21,15,Jits_Phase_8,72,9999,9999,9999,1957308504
73,21,15,Jits_Phase_8,73,9999,9999,9999,1958108264
73,21,15,Jits_Phase_8,74,9999,9999,9999,1958909004
73,21,15,Jits_Phase_8,75,9999,9999,9999,1959708764
73,21,15,Jits_Phase_8,76,9999,9999,9999,1960508472
73,21,15,Jits_Phase_8,77,9999,9999,9999,1961308232
73,21,15,Jits_Phase_8,78,9999,9999,9999,1962109028
73,21,15,Jits_Phase_8,79,9999,9999,9999,1962908744
73,21,15,Jits_Phase_8,80,9999,9999,9999,1963708520
73,21,15,Jits_Phase_8,81,9999,9999,9999,1964468300
73,21,15,Jits_Phase_8,82,9999,9999,9999,1965269108
73,21,15,Jits_Phase_8,83,9999,9999,9999,1966068848
73,21,15,Jits_Phase_8,84,9999,9999,9999,1966868600
73,21,15,Jits_Phase_8,85,9999,9999,9999,1967668328
73,21,15,Jits_Phase_8,86,9999,9999,9999,1968469068
73,21,15,Jits_Phase_8,87,9999,9999,9999,1969268824
73,21,15,Jits_Phase_8,88,9999,9999,9999,1970068580
73,21,15,Jits_Phase_8,89,9999,9999,9999,1970868292
73,21,15,Jits_Phase_8,90,9999,9999,9999,1971669100
73,21,15,Jits_Phase_8,91,9999,9999,9999,1972468832
73,21,15,Jits_Phase_8,92,9999,9999,9999,1973268592
73,21,15,Jits_Phase_8,93,9999,9999,9999,1974068296
73,21,15,Jits_Phase_8,94,9999,9999,9999,1974869100
73,21,15,Jits_Phase_8,95,9999,9999,9999,1975668796
73,21,15,Jits_Phase_8,96,9999,9999,9999,1976468564
73,21,15,Jits_Phase_8,97,9999,9999,9999,1977188464
73,21,15,Jits_Phase_8,98,9999,9999,9999,1977988160
73,21,15,Jits_Phase_8,99,9999,9999,9999,1978788984
73,21,15,Jits_Phase_8,100,9999,9999,9999,1979588672
73,21,15,Jits_Phase_8,101,9999,9999,9999,1980388432
73,21,15,Jits_Phase_8,102,9999,9999,9999,1981188200
73,21,15,Jits_Phase_8,103,9999,9999,9999,1981988928
73,21,15,Jits_Phase_8,104,9999,9999,9999,1982788712
73,21,15,Jits_Phase_8,105,9999,9999,9999,1983588476
73,21,15,Jits_Phase_8,106,9999,9999,9999,1984388152
73,21,15,Jits_Phase_8,107,9999,9999,9999,1985188940
73,21,15,Jits_Phase_8,108,9999,9999,9999,1985988700
73,21,15,Jits_Phase_8,109,9999,9999,9999,1986788456
73,21,15,Jits_Phase_8,110,9999,9999,9999,1987588220
73,21,15,Jits_Phase_8,111,9999,9999,9999,1988388956
73,21,15,Jits_Phase_8,112,9999,9999,9999,1989188732
73,21,15,Jits_Phase_8,113,9999,9999,9999,1989988416
73,21,15,Jits_Phase_8,114,9999,9999,9999,1990869076
73,21,15,Jits_Phase_8,115,9999,9999,9999,1991668812
73,21,15,Jits_Phase_8,116,9999,9999,9999,1992468592
73,21,15,Jits_Phase_8,117,9999,9999,9999,1993268340
73,21,15,Jits_Phase_8,118,9999,9999,9999,1994069072
73,21,15,Jits_Phase_8,119,9999,9999,9999,1994868824
73,21,15,Jits_Phase_8,120,9999,9999,9999,1995668584
73,21,15,Jits_Phase_8,121,9999,9999,9999,1996468344
73,21,15,Jits_Phase_8,122,9999,9999,9999,1997269116
73,21,15,Jits_Phase_8,123,9999,9999,9999,1998068796
73,21,15,Jits_Phase_8,124,9999,9999,9999,1998868560
73,21,15,Jits_Phase_8,125,9999,9999,9999,1999668352
73,21,15,Jits_Phase_8,126,9999,9999,9999,2000469092
73,21,15,Jits_Phase_8,127,9999,9999,9999,2001268856
73,21,15,Jits_Phase_8,128,9999,9999,9999,2002068540
73,21,15,Jits_Phase_8,129,9999,9999,9999,2002868300
73,21,15,Jits_Phase_8,130,9999,9999,9999,2003669112
73,21,15,Jits_Phase_8,131,9999,9999,9999,2004628540
73,21,15,Jits_Phase_8,132,9999,9999,9999,2005428348
73,21,15,Jits_Phase_8,133,9999,9999,9999,2006229060
73,21,15,Jits_Phase_8,134,9999,9999,9999,2007028800
73,21,15,Jits_Phase_8,135,9999,9999,9999,2007828604
73,21,15,Jits_Phase_8,136,9999,9999,9999,2008628312
73,21,15,Jits_Phase_8,137,9999,9999,9999,2009429060
73,21,15,Jits_Phase_8,138,9999,9999,9999,2010228836
73,21,15,Jits_Phase_8,139,9999,9999,9999,2011028552
73,21,15,Jits_Phase_8,140,9999,9999,9999,2011828328
73,21,15,Jits_Phase_8,141,9999,9999,9999,2012629052
73,21,15,Jits_Phase_8,142,9999,9999,9999,2013428836
73,21,15,Jits_Phase_8,143,9999,9999,9999,2014228572
73,21,15,Jits_Phase_8,144,9999,9999,9999,2015028340
73,21,15,Jits_Phase_8,145,9999,9999,9999,2015829108
73,21,15,Jits_Phase_8,146,9999,9999,9999,2016628844
73,21,15,Jits_Phase_8,147,9999,9999,9999,2017428576
73,21,15,Jits_Phase_8,148,9999,9999,9999,2018228304
73,21,15,Jits_Phase_8,149,9999,9999,9999,2019029084
73,21,15,Jits_Phase_8,150,9999,9999,9999,2019669084
73,21,15,Jits_Phase_8,151,9999,9999,9999,2020468820
73,21,15,Jits_Phase_8,152,9999,9999,9999,2021268536
73,21,15,Jits_Phase_8,153,9999,9999,9999,2022068304
73,21,15,Jits_Phase_8,154,9999,9999,9999,2022869068
73,21,15,Jits_Phase_8,155,9999,9999,9999,2023668824
73,21,15,Jits_Phase_8,156,9999,9999,9999,2024468600
73,21,15,Jits_Phase_8,157,9999,9999,9999,2025268336
73,21,15,Jits_Phase_8,158,9999,9999,9999,2026069100
73,21,15,Jits_Phase_8,159,9999,9999,9999,2026868860
73,21,15,Jits_Phase_8,160,9999,9999,9999,2027668596
73,21,15,Jits_Phase_8,161,9999,9999,9999,2028468312
73,21,15,Jits_Phase_8,162,9999,9999,9999,2029269104
73,21,15,Jits_Phase_8,163,9999,9999,9999,2030068796
73,21,15,Jits_Phase_8,164,9999,9999,9999,2030868608
73,21,15,Jits_Phase_8,165,9999,9999,9999,2031668296
73,21,15,Jits_Phase_8,166,9999,9999,9999,2032469100
73,21,15,Jits_Phase_8,167,9999,9999,9999,2033268844
73,21,15,Jits_Phase_8,168,9999,9999,9999,2034068552
73,21,15,Jits_Phase_8,169,9999,9999,9999,2034868340
73,22,17,Jits_Phase_5,0,5,56,103,2043477328
73,22,17,Jits_Phase_5,1,5,63,98,2043480500
73,22,17,Jits_Phase_5,2,5,80,127,2043483548
73,22,17,Jits_Phase_5,0,5,56,103,2043977336
73,22,17,Jits_Phase_5,1,5,63,98,2043980440
73,22,17,Jits_Phase_5,2,5,80,127,2043983556
73,22,17,Jits_Phase_5,0,5,56,103,2044476764
73,22,17,Jits_Phase_5,1,5,80,127,2044487112
73,22,17,Jits_Phase_5,2,5,63,98,2044506448
73,22,17,Jits_Phase_5,0,5,63,98,2044927396
73,22,17,Jits_Phase_5,1,5,80,127,2044957072
73,22,17,Jits_Phase_5,2,5,56,103,2044967488
73,22,17,Jits_Phase_5,0,5,80,127,2045486592
73,22,17,Jits_Phase_5,1,5,56,103,2045496640
73,22,17,Jits_Phase_5,2,5,63,98,2045527364
73,22,17,Jits_Phase_5,0,5,63,98,2045977232
73,22,17,Jits_Phase_5,1,5,56,103,2046006636
73,22,17,Jits_Phase_5,2,5,80,127,2046016980
73,22,17,Jits_Phase_5,0,5,56,103,2046426384
73,22,17,Jits_Phase_5,1,1,48,37,2046471752
73,22,17,Jits_Phase_5,2,5,63,98,2046476652
73,22,17,Jits_Phase_5,3,5,80,127,2046497108
73,22,17,Jits_Phase_5,0,5,80,127,2046927196
73,22,17,Jits_Phase_5,1,5,63,98,2046977248
73,22,17,Jits_Phase_5,2,5,56,103,2047017260
73,22,17,Jits_Phase_5,0,1,48,49,2047326280
73,22,17,Jits_Phase_5,1,5,56,103,2047427124
73,22,17,Jits_Phase_5,2,5,63,98,2047456504
73,22,17,Jits_Phase_5,3,5,80,127,2047527228
73,22,17,Jits_Phase_5,0,5,56,103,2047926604
73,22,17,Jits_Phase_5,1,5,80,127,2047987216
73,22,17,Jits_Phase_5,2,5,63,98,2048016816
73,22,17,Jits_Phase_5,0,1,48,49,2048414848
73,22,17,Jits_Phase_5,1,5,56,103,2048436520
73,22,17,Jits_Phase_5,2,5,63,98,2048446936
73,22,17,Jits_Phase_5,3,5,80,127,2048486652
73,22,17,Jits_Phase_5,0,1,48,45,2048837416
73,22,17,Jits_Phase_5,1,5,63,98,2048927196
73,22,17,Jits_Phase_5,2,5,80,127,2049007124
73,22,17,Jits_Phase_5,3,5,56,103,2049017320
73,22,17,Jits_Phase_5,0,1,48,42,2049333036
73,22,17,Jits_Phase_5,1,5,63,98,2049477124
73,22,17,Jits_Phase_5,2,5,56,103,2049516988
73,22,17,Jits_Phase_5,3,5,80,127,2049519980
73,22,17,Jits_Phase_5,0,1,48,43,2049835984
73,22,17,Jits_Phase_5,1,5,56,103,2049936860
73,22,17,Jits_Phase_5,2,5,63,98,2049947056
73,22,17,Jits_Phase_5,3,5,80,127,2049987140
73,22,17,Jits_Phase_5,0,1,48,52,2050316480
73,22,17,Jits_Phase_5,1,5,56,103,2050427312
73,22,17,Jits_Phase_5,2,5,63,98,2050430308
73,22,17,Jits_Phase_5,3,5,80,127,2050446876
73,22,17,Jits_Phase_5,0,1,48,57,2050817856
73,22,17,Jits_Phase_5,1,5,80,127,2050937312
73,22,17,Jits_Phase_5,2,5,56,103,2050946388
73,22,17,Jits_Phase_5,3,5,63,98,2051017184
73,22,17,Jits_Phase_5,0,1,48,48,2051327192
73,22,17,Jits_Phase_5,1,5,63,98,2051427312
73,22,17,Jits_Phase_5,2,5,56,103,2051447028
73,22,17,Jits_Phase_5,3,5,80,127,2051526968
73,22,17,Jits_Phase_5,0,1,48,51,2051824452
73,22,17,Jits_Phase_5,1,5,56,103,2051936584
73,22,17,Jits_Phase_5,2,5,80,127,2051976448
73,22,17,Jits_Phase_5,3,5,63,98,2051987012
73,22,17,Jits_Phase_5,0,1,48,46,2052340168
73,22,17,Jits_Phase_5,1,5,80,127,2052427052
73,22,17,Jits_Phase_5,2,5,63,98,2052456788
73,22,17,Jits_Phase_5,3,5,56,103,2052496948
73,22,17,Jits_Phase_5,0,1,48,48,2052885468
73,22,17,Jits_Phase_5,1,5,56,103,2052947248
73,22,17,Jits_Phase_5,2,5,63,98,2052977072
73,22,17,Jits_Phase_5,3,5,80,127,2053027036
73,22,17,Jits_Phase_5,0,1,48,53,2053388136
73,22,17,Jits_Phase_5,1,5,80,127,2053447076
73,22,17,Jits_Phase_5,2,5,56,103,2053487144
73,22,17,Jits_Phase_5,3,5,63,98,2053497192
73,22,17,Jits_Phase_5,0,1,48,32,2053916284
73,22,17,Jits_Phase_5,1,5,80,127,2053927244
73,22,17,Jits_Phase_5,2,5,63,98,2053967208
73,22,17,Jits_Phase_5,3,5,56,103,2054026684
73,22,17,Jits_Phase_5,0,1,48,44,2054383880
73,22,17,Jits_Phase_5,1,5,56,103,2054427068
73,22,17,Jits_Phase_5,2,5,80,127,2054437188
73,22,17,Jits_Phase_5,3,5,63,98,2054517064
73,22,17,Jits_Phase_5,0,1,48,47,2054876596
73,22,17,Jits_Phase_5,1,5,80,127,2054926892
73,22,17,Jits_Phase_5,2,5,63,98,2054987216
73,22,17,Jits_Phase_5,3,5,56,103,2055016888
73,22,17,Jits_Phase_5,0,5,56,103,2055426348
73,22,17,Jits_Phase_5,1,1,48,49,2055435840
73,22,17,Jits_Phase_5,2,5,80,127,2055487056
73,22,17,Jits_Phase_5,3,5,63,98,2055526844
73,22,17,Jits_Phase_5,0,1,48,49,2055912132
73,22,17,Jits_Phase_5,1,1,48,24,2055976876
73,22,17,Jits_Phase_5,2,5,56,103,2055978144
73,22,17,Jits_Phase_5,3,5,63,98,2055986492
73,22,17,Jits_Phase_5,4,5,80,127,2055990156
73,22,17,Jits_Phase_5,0,1,48,49,2056421116
73,22,17,Jits_Phase_5,1,5,80,127,2056427140
73,22,17,Jits_Phase_5,2,5,63,98,2056516924
73,22,17,Jits_Phase_5,3,5,56,103,2056527328
73,22,17,Jits_Phase_5,0,5,56,103,2056926584
73,22,17,Jits_Phase_5,1,5,63,98,2056929836
73,22,17,Jits_Phase_5,2,5,80,127,2056932880
73,22,17,Jits_Phase_5,3,1,48,41,2056936088
73,22,17,Jits_Phase_5,0,5,80,127,2057446940
73,22,17,Jits_Phase_5,1,1,48,50,2057464888
73,22,17,Jits_Phase_5,2,5,63,98,2057496912
73,22,17,Jits_Phase_5,3,1,48,30,2057522436
73,22,17,Jits_Phase_5,4,5,56,103,2057526736
73,22,17,Jits_Phase_5,0,5,56,103,2057926960
73,22,17,Jits_Phase_5,1,5,80,127,2057937156
73,22,17,Jits_Phase_5,2,1,48,49,2057968820
73,22,17,Jits_Phase_5,3,5,63,98,2058006972
73,22,17,Jits_Phase_5,0,1,48,49,2058436308
73,22,17,Jits_Phase_5,1,5,56,103,2058437948
73,22,17,Jits_Phase_5,2,5,63,98,2058456464
73,22,17,Jits_Phase_5,3,5,80,127,2058516776
73,22,17,Jits_Phase_5,0,1,48,48,2058894900
73,22,17,Jits_Phase_5,1,5,80,127,2058917172
73,22,17,Jits_Phase_5,2,1,48,22,2058973684
73,22,17,Jits_Phase_5,3,5,63,98,2058987052
73,22,17,Jits_Phase_5,4,5,56,103,2059007212
73,22,17,Jits_Phase_5,0,1,48,46,2059432352
73,22,17,Jits_Phase_5,1,5,80,127,2059437404
73,22,17,Jits_Phase_5,2,5,56,103,2059446776
73,22,17,Jits_Phase_5,3,5,63,98,2059456896
73,22,17,Jits_Phase_5,0,1,48,49,2059900780
73,22,17,Jits_Phase_5,1,5,80,127,2059927108
73,22,17,Jits_Phase_5,2,5,56,103,2059947344
73,22,17,Jits_Phase_5,3,1,48,33,2059950968
73,22,17,Jits_Phase_5,4,5,63,98,2060016996
73,22,17,Jits_Phase_5,0,1,48,49,2060421244
73,22,17,Jits_Phase_5,1,5,56,103,2060436928
73,22,17,Jits_Phase_5,2,5,80,127,2060466676
73,22,17,Jits_Phase_5,3,1,48,31,2060477580
73,22,17,Jits_Phase_5,4,5,63,98,2060487040
73,22,17,Jits_Phase_5,0,5,63,98,2060936416
73,22,17,Jits_Phase_5,1,1,48,52,2060962380
73,22,17,Jits_Phase_5,2,5,56,103,2060997024
73,22,17,Jits_Phase_5,3,5,80,127,2061026624
73,22,17,Jits_Phase_5,4,1,48,29,2061036396
73,22,17,Jits_Phase_5,0,5,63,98,2061427052
73,22,17,Jits_Phase_5,1,5,80,127,2061430420
73,22,17,Jits_Phase_5,2,1,48,45,2061457968
73,22,17,Jits_Phase_5,3,5,56,103,2061517172
73,22,17,Jits_Phase_5,4,1,48,19,2061544856
73,22,17,Jits_Phase_5,0,5,56,103,2061947200
73,22,17,Jits_Phase_5,1,1,48,47,2061976276
73,22,17,Jits_Phase_5,2,5,63,98,2061977844
73,22,17,Jits_Phase_5,3,5,80,127,2062016808
73,22,17,Jits_Phase_5,0,5,63,98,2062446892
73,22,17,Jits_Phase_5,1,1,48,44,2062459524
73,22,17,Jits_Phase_5,2,5,56,103,2062486820
73,22,17,Jits_Phase_5,3,5,80,127,2062507356
73,22,17,Jits_Phase_5,0,1,48,29,2062937248
73,22,17,Jits_Phase_5,1,5,63,98,2062956824
73,22,17,Jits_Phase_5,2,5,56,103,2062996912
73,22,17,Jits_Phase_5,3,5,80,127,2063007032
73,22,17,Jits_Phase_5,0,1,48,36,2063433992
73,22,17,Jits_Phase_5,1,5,80,127,2063437244
73,22,17,Jits_Phase_5,2,5,63,98,2063507072
73,22,17,Jits_Phase_5,3,5,56,103,2063527160
73,22,17,Jits_Phase_5,0,1,48,50,2063874840
73,22,17,Jits_Phase_5,1,5,56,103,2063926732
73,22,17,Jits_Phase_5,2,5,80,127,2063947116
73,22,17,Jits_Phase_5,3,5,63,98,2063987188
73,22,17,Jits_Phase_5,0,5,63,98,2064436748
73,22,17,Jits_Phase_5,1,1,48,50,2064440844
73,22,17,Jits_Phase_5,2,5,80,127,2064457052
73,22,17,Jits_Phase_5,3,5,56,103,2064497064
73,22,17,Jits_Phase_5,0,1,48,28,2064925352
73,22,17,Jits_Phase_5,1,5,63,98,2064937508
73,22,17,Jits_Phase_5,2,5,56,103,2064956800
73,22,17,Jits_Phase_5,3,5,80,127,2064966992
73,22,17,Jits_Phase_5,0,5,80,127,2065436964
73,22,17,Jits_Phase_5,1,5,56,103,2065456476
73,22,17,Jits_Phase_5,2,1,48,42,2065478028
73,22,17,Jits_Phase_5,3,5,63,98,2065487188
73,22,17,Jits_Phase_5,0,1,48,52,2065916468
73,22,17,Jits_Phase_5,1,5,56,103,2066007392
73,22,17,Jits_Phase_5,2,5,80,127,2066011192
73,22,17,Jits_Phase_5,3,5,63,98,2066027008
73,22,17,Jits_Phase_5,0,1,48,44,2066371028
73,22,17,Jits_Phase_5,1,5,63,98,2066427172
73,22,17,Jits_Phase_5,2,5,56,103,2066456924
73,22,17,Jits_Phase_5,3,5,80,127,2066517544
73,22,17,Jits_Phase_5,0,1,48,47,2066888380
73,22,17,Jits_Phase_5,1,5,63,98,2067006792
73,22,17,Jits_Phase_5,2,5,56,103,2067017212
73,22,17,Jits_Phase_5,3,5,80,127,2067027332
73,22,17,Jits_Phase_5,0,1,48,47,2067446052
73,22,17,Jits_Phase_5,1,5,56,103,2067466752
73,22,17,Jits_Phase_5,2,5,80,127,2067497400
73,22,17,Jits_Phase_5,3,5,63,98,2067506724
73,22,17,Jits_Phase_5,0,1,48,45,2067924216
73,22,17,Jits_Phase_5,1,5,63,98,2068007260
73,22,17,Jits_Phase_5,2,5,56,103,2068016732
73,22,17,Jits_Phase_5,3,5,80,127,2068037024
73,22,17,Jits_Phase_5,0,5,56,103,2068437568
73,22,17,Jits_Phase_5,1,1,48,44,2068463532
73,22,17,Jits_Phase_5,2,5,63,98,2068496752
73,22,17,Jits_Phase_5,3,5,80,127,2068500048
73,22,17,Jits_Phase_5,0,5,80,127,2068956804
73,22,17,Jits_Phase_5,1,5,56,103,2068966704
73,22,17,Jits_Phase_5,2,1,48,48,2069008324
73,22,17,Jits_Phase_5,3,5,63,98,2069037792
73,22,17,Jits_Phase_5,0,5,80,127,2069446980
73,22,17,Jits_Phase_5,1,1,48,50,2069482380
73,22,17,Jits_Phase_5,2,5,56,103,2069516800
73,22,17,Jits_Phase_5,3,5,63,98,2069526848
73,22,17,Jits_Phase_5,0,5,63,98,2069986752
73,22,17,Jits_Phase_5,1,5,56,103,2069996800
73,22,17,Jits_Phase_5,2,1,48,47,2070017256
73,22,17,Jits_Phase_5,3,5,80,127,2070018668
73,22,17,Jits_Phase_5,4,1,48,24,2070090716
73,22,17,Jits_Phase_5,0,5,80,127,2070437160
73,22,17,Jits_Phase_5,1,5,63,98,2070496576
73,22,17,Jits_Phase_5,2,1,48,51,2070503208
73,22,17,Jits_Phase_5,3,5,56,103,2070536656
73,22,17,Jits_Phase_5,4,1,48,19,2070591392
73,22,17,Jits_Phase_5,0,5,56,103,2070976964
73,22,17,Jits_Phase_5,1,5,63,98,2070987088
73,22,17,Jits_Phase_5,2,1,48,49,2070998748
73,22,17,Jits_Phase_5,3,5,80,127,2071027016
73,22,17,Jits_Phase_5,0,5,56,103,2071436572
73,22,17,Jits_Phase_5,1,1,48,46,2071466840
73,22,17,Jits_Phase_5,2,5,80,127,2071468632
73,22,17,Jits_Phase_5,3,5,63,98,2071516736
73,22,17,Jits_Phase_5,0,1,48,45,2071949784
73,22,17,Jits_Phase_5,1,5,56,103,2071977604
73,22,17,Jits_Phase_5,2,5,63,98,2072017464
73,22,17,Jits_Phase_5,3,5,80,127,2072020684
73,22,17,Jits_Phase_5,0,1,48,47,2072423896
73,22,17,Jits_Phase_5,1,5,56,103,2072487164
73,22,17,Jits_Phase_5,2,5,63,98,2072496612
73,22,17,Jits_Phase_5,3,5,80,127,2072516996
73,22,17,Jits_Phase_5,0,1,48,51,2072909644
73,22,17,Jits_Phase_5,1,5,56,103,2072946980
73,22,17,Jits_Phase_5,2,5,80,127,2072950048
73,22,17,Jits_Phase_5,3,5,63,98,2072986916
73,22,17,Jits_Phase_5,0,1,48,48,2073404668
73,22,17,Jits_Phase_5,1,5,63,98,2073486576
73,22,17,Jits_Phase_5,2,5,56,103,2073517504
73,22,17,Jits_Phase_5,3,5,80,127,2073536840
73,22,17,Jits_Phase_5,0,1,48,49,2073860704
73,22,17,Jits_Phase_5,1,1,48,33,2073925596
73,22,17,Jits_Phase_5,2,5,80,127,2073956936
73,22,17,Jits_Phase_5,3,5,56,103,2073966908
73,22,17,Jits_Phase_5,4,5,63,98,2073977252
73,22,17,Jits_Phase_5,0,1,48,49,2074361828
73,22,17,Jits_Phase_5,1,5,56,103,2074456808
73,22,17,Jits_Phase_5,2,5,80,127,2074497480
73,22,17,Jits_Phase_5,3,5,63,98,2074527152
73,22,17,Jits_Phase_5,0,1,48,46,2074881360
73,22,17,Jits_Phase_5,1,5,63,98,2074967420
73,22,17,Jits_Phase_5,2,5,80,127,2074976496
73,22,17,Jits_Phase_5,3,5,56,103,2074986824
73,22,17,Jits_Phase_5,0,1,48,48,2075389940
73,22,17,Jits_Phase_5,1,5,56,103,2075456976
73,22,17,Jits_Phase_5,2,5,63,98,2075526940
73,22,17,Jits_Phase_5,3,5,80,127,2075536688
73,22,17,Jits_Phase_5,0,1,48,40,2075882492
73,22,17,Jits_Phase_5,1,5,80,127,2075966912
73,22,17,Jits_Phase_5,2,5,56,103,2075977556
73,22,17,Jits_Phase_5,3,5,63,98,2076027368
73,22,17,Jits_Phase_5,0,1,48,34,2076367860
73,22,17,Jits_Phase_5,1,5,80,127,2076476832
73,22,17,Jits_Phase_5,2,5,56,103,2076537296
73,22,17,Jits_Phase_5,3,5,63,98,2076566824
73,22,17,Jits_Phase_5,0,1,48,54,2076891436
73,22,17,Jits_Phase_5,1,1,48,19,2076972920
73,22,17,Jits_Phase_5,2,5,56,103,2076976648
73,22,17,Jits_Phase_5,3,5,80,127,2076979792
73,22,17,Jits_Phase_5,4,5,63,98,2077016660
73,22,17,Jits_Phase_5,0,1,48,46,2077361160
73,22,17,Jits_Phase_5,1,5,56,103,2077506916
73,22,17,Jits_Phase_5,2,5,63,98,2077536592
73,22,17,Jits_Phase_5,3,5,80,127,2077546860
73,22,17,Jits_Phase_5,0,1,48,50,2077860088
73,22,17,Jits_Phase_5,1,1,48,25,2077919852
73,22,17,Jits_Phase_5,2,5,63,98,2078017060
73,22,17,Jits_Phase_5,3,5,80,127,2078027256
73,22,17,Jits_Phase_5,4,5,56,103,2078037524
73,22,17,Jits_Phase_5,0,1,48,50,2078377552
73,22,17,Jits_Phase_5,1,1,48,32,2078429228
73,22,17,Jits_Phase_5,2,5,80,127,2078466784
73,22,17,Jits_Phase_5,3,5,56,103,2078516788
73,22,17,Jits_Phase_5,4,5,63,98,2078519780
73,22,17,Jits_Phase_5,0,1,48,49,2078915908
73,22,17,Jits_Phase_5,1,1,48,30,2078972584
73,22,17,Jits_Phase_5,2,5,56,103,2078996820
73,22,17,Jits_Phase_5,3,5,80,127,2079017424
73,22,17,Jits_Phase_5,4,5,63,98,2079026748
73,22,17,Jits_Phase_5,0,1,48,37,2079440096
73,22,17,Jits_Phase_5,1,5,63,98,2079477056
73,22,17,Jits_Phase_5,2,5,56,103,2079506736
73,22,17,Jits_Phase_5,3,5,80,127,2079527416
73,22,17,Jits_Phase_5,0,1,48,51,2079920884
73,22,17,Jits_Phase_5,1,1,48,29,2079971284
73,22,17,Jits_Phase_5,2,5,56,103,2079987492
73,22,17,Jits_Phase_5,3,5,80,127,2079997540
73,22,17,Jits_Phase_5,4,5,63,98,2080066872
73,22,17,Jits_Phase_5,0,1,48,49,2080451832
73,22,17,Jits_Phase_5,1,5,63,98,2080476660
73,22,17,Jits_Phase_5,2,1,48,35,2080492576
73,22,17,Jits_Phase_5,3,5,80,127,2080516652
73,22,17,Jits_Phase_5,4,5,56,103,2080557636
73,22,17,Jits_Phase_5,0,1,48,42,2080933548
73,22,17,Jits_Phase_5,1,1,48,28,2080985260
73,22,17,Jits_Phase_5,2,5,56,103,2080986384
73,22,17,Jits_Phase_5,3,5,63,98,2080996656
73,22,17,Jits_Phase_5,4,5,80,127,2081017336
73,22,17,Jits_Phase_5,0,1,48,51,2081400000
73,22,17,Jits_Phase_5,1,5,63,98,2081527296
73,22,17,Jits_Phase_5,2,5,80,127,2081546560
73,22,17,Jits_Phase_5,3,5,56,103,2081567020
73,22,17,Jits_Phase_5,0,1,48,58,2081900272
73,22,17,Jits_Phase_5,1,1,48,35,2081953736
73,22,17,Jits_Phase_5,2,5,56,103,2081966660
73,22,17,Jits_Phase_5,3,5,80,127,2082047632
73,22,17,Jits_Phase_5,4,5,63,98,2082056636
73,22,17,Jits_Phase_5,0,1,48,39,2082359380
73,22,17,Jits_Phase_5,1,5,80,127,2082506980
73,22,17,Jits_Phase_5,2,5,63,98,2082517548
73,22,17,Jits_Phase_5,3,5,56,103,2082546996
73,22,17,Jits_Phase_5,0,5,63,98,2082966896
73,22,17,Jits_Phase_5,1,5,80,127,2083006832
73,22,17,Jits_Phase_5,2,5,56,103,2083067516
73,22,17,Jits_Phase_5,3,1,48,49,2083180932
73,22,17,Jits_Phase_5,4,1,48,33,2083226528
73,22,17,Jits_Phase_5,0,5,63,98,2083476936
73,22,17,Jits_Phase_5,1,5,56,103,2083526988
73,22,17,Jits_Phase_5,2,5,80,127,2083556736
73,22,17,Jits_Phase_5,3,1,48,44,2083615368
73,22,17,Jits_Phase_5,0,5,80,127,2083976688
73,22,17,Jits_Phase_5,1,5,63,98,2083986812
73,22,17,Jits_Phase_5,2,5,56,103,2084056412
73,22,17,Jits_Phase_5,3,1,48,43,2084092856
73,22,17,Jits_Phase_5,4,1,48,27,2084146360
73,22,17,Jits_Phase_5,0,5,80,127,2084536724
73,22,17,Jits_Phase_5,1,5,56,103,2084547068
73,22,17,Jits_Phase_5,2,5,63,98,2084550284
73,22,17,Jits_Phase_5,3,1,48,46,2084574616
73,22,17,Jits_Phase_5,4,1,48,29,2084630768
73,22,17,Jits_Phase_5,0,5,56,103,2084976952
73,22,17,Jits_Phase_5,1,5,80,127,2084996588
73,22,17,Jits_Phase_5,2,5,63,98,2085006632
73,22,17,Jits_Phase_5,3,1,48,42,2085071696
73,22,17,Jits_Phase_5,0,5,63,98,2085486904
73,22,17,Jits_Phase_5,1,5,56,103,2085526916
73,22,17,Jits_Phase_5,2,1,48,46,2085531528
73,22,17,Jits_Phase_5,3,5,80,127,2085547368
73,22,17,Jits_Phase_5,0,5,63,98,2085986732
73,22,17,Jits_Phase_5,1,1,48,45,2086017500
73,22,17,Jits_Phase_5,2,5,56,103,2086046960
73,22,17,Jits_Phase_5,3,5,80,127,2086050180
73,22,17,Jits_Phase_5,0,5,56,103,2086446692
73,22,17,Jits_Phase_5,1,5,80,127,2086466856
73,22,17,Jits_Phase_5,2,5,63,98,2086506792
73,22,17,Jits_Phase_5,3,1,48,41,2086543088
73,22,17,Jits_Phase_5,0,1,48,50,2086969428
73,22,17,Jits_Phase_5,1,5,56,103,2086976944
73,22,17,Jits_Phase_5,2,5,63,98,2086997548
73,22,17,Jits_Phase_5,3,5,80,127,2087006700
73,22,17,Jits_Phase_5,4,1,48,20,2087056552
73,22,17,Jits_Phase_5,0,5,80,127,2087446888
73,22,17,Jits_Phase_5,1,1,48,44,2087459900
73,22,17,Jits_Phase_5,2,5,56,103,2087476580
73,22,17,Jits_Phase_5,3,5,63,98,2087516592
73,22,17,Jits_Phase_5,0,1,48,50,2087919944
73,22,17,Jits_Phase_5,1,5,80,127,2087956832
73,22,17,Jits_Phase_5,2,5,56,103,2087977364
73,22,17,Jits_Phase_5,3,1,48,19,2088016980
73,22,17,Jits_Phase_5,4,5,63,98,2088036704
73,22,17,Jits_Phase_5,0,1,48,49,2088429988
73,22,17,Jits_Phase_5,1,5,56,103,2088466728
73,22,17,Jits_Phase_5,2,5,80,127,2088487260
73,22,17,Jits_Phase_5,3,5,63,98,2088546608
73,22,17,Jits_Phase_5,0,1,48,46,2088845604
73,22,17,Jits_Phase_5,1,1,48,22,2088912104
73,22,17,Jits_Phase_5,2,5,80,127,2088947044
73,22,17,Jits_Phase_5,3,5,56,103,2088957316
73,22,17,Jits_Phase_5,4,5,63,98,2088997400
73,22,17,Jits_Phase_5,0,1,48,41,2089377444
73,22,17,Jits_Phase_5,1,5,63,98,2089446768
73,22,17,Jits_Phase_5,2,5,56,103,2089486764
73,22,17,Jits_Phase_5,3,5,80,127,2089489760
73,22,17,Jits_Phase_5,0,1,48,42,2089914176
73,22,17,Jits_Phase_5,1,5,63,98,2089966884
73,22,17,Jits_Phase_5,2,5,80,127,2090006896
73,22,17,Jits_Phase_5,3,5,56,103,2090036504
73,22,17,Jits_Phase_5,0,1,48,43,2090415516
73,22,17,Jits_Phase_5,1,5,56,103,2090456296
73,22,17,Jits_Phase_5,2,5,63,98,2090466640
73,22,17,Jits_Phase_5,3,5,80,127,2090497436
73,22,17,Jits_Phase_5,0,1,48,34,2090920056
73,22,17,Jits_Phase_5,1,5,80,127,2090946900
73,22,17,Jits_Phase_5,2,5,63,98,2091016416
73,22,17,Jits_Phase_5,3,5,56,103,2091026908
73,22,17,Jits_Phase_5,0,1,48,40,2091380768
73,22,17,Jits_Phase_5,1,5,63,98,2091446500
73,22,17,Jits_Phase_5,2,5,56,103,2091517508
73,22,17,Jits_Phase_5,3,5,80,127,2091526512
73,22,17,Jits_Phase_5,0,1,48,32,2091876252
73,22,17,Jits_Phase_5,1,5,63,98,2091926848
73,22,17,Jits_Phase_5,2,5,56,103,2091947456
73,22,17,Jits_Phase_5,3,5,80,127,2091987228
73,22,17,Jits_Phase_5,0,5,56,103,2092407200
73,22,17,Jits_Phase_5,1,5,63,98,2092417324
73,22,17,Jits_Phase_5,2,1,48,45,2092424348
73,22,17,Jits_Phase_5,3,5,80,127,2092497404
73,22,17,Jits_Phase_5,0,1,48,48,2092856812
73,22,17,Jits_Phase_5,1,5,63,98,2092896768
73,22,17,Jits_Phase_5,2,5,56,103,2092927196
73,22,17,Jits_Phase_5,3,5,80,127,2092967188
73,22,17,Jits_Phase_5,0,1,48,41,2093346648
73,22,17,Jits_Phase_5,1,5,56,103,2093397340
73,22,17,Jits_Phase_5,2,5,63,98,2093437428
73,22,17,Jits_Phase_5,3,5,80,127,2093477348
73,22,17,Jits_Phase_5,0,1,48,44,2093832524
73,22,17,Jits_Phase_5,1,5,80,127,2093897164
73,22,17,Jits_Phase_5,2,5,56,103,2093977016
73,22,17,Jits_Phase_5,3,5,63,98,2093987360
73,22,17,Jits_Phase_5,0,1,48,46,2094310704
73,22,17,Jits_Phase_5,1,5,56,103,2094436756
73,22,17,Jits_Phase_5,2,5,63,98,2094439972
73,22,17,Jits_Phase_5,3,5,80,127,2094447252
73,22,17,Jits_Phase_5,0,1,48,50,2094768496
73,22,17,Jits_Phase_5,1,1,48,30,2094840920
73,22,17,Jits_Phase_5,2,5,56,103,2094956932
73,22,17,Jits_Phase_5,3,5,63,98,2094977392
73,22,17,Jits_Phase_5,4,5,80,127,2094986464
73,22,17,Jits_Phase_5,0,1,48,48,2095253736
73,22,17,Jits_Phase_5,1,5,63,98,2095416728
73,22,17,Jits_Phase_5,2,5,80,127,2095427072
73,22,17,Jits_Phase_5,3,5,56,103,2095447384
73,22,17,Jits_Phase_5,0,1,48,51,2095802032
73,22,17,Jits_Phase_5,1,5,63,98,2095917352
73,22,17,Jits_Phase_5,2,5,56,103,2095997368
73,22,17,Jits_Phase_5,3,5,80,127,2096000508
73,22,17,Jits_Phase_5,0,1,48,46,2096263016
73,22,17,Jits_Phase_5,1,5,63,98,2096417144
73,22,17,Jits_Phase_5,2,5,56,103,2096436584
73,22,17,Jits_Phase_5,3,5,80,127,2096467304
73,22,17,Jits_Phase_5,0,1,48,37,2096734536
73,22,17,Jits_Phase_5,1,5,56,103,2096916744
73,22,17,Jits_Phase_5,2,5,63,98,2096937280
73,22,17,Jits_Phase_5,3,5,80,127,2096946676
73,22,17,Jits_Phase_5,0,1,48,49,2097205524
73,22,17,Jits_Phase_5,1,5,56,103,2097456504
73,22,17,Jits_Phase_5,2,5,63,98,2097487148
73,22,17,Jits_Phase_5,3,5,80,127,2097490440
73,22,17,Jits_Phase_5,0,1,48,47,2097715428
73,22,17,Jits_Phase_5,1,5,56,103,2097907124
73,22,17,Jits_Phase_5,2,5,63,98,2097947208
73,22,17,Jits_Phase_5,3,5,80,127,2098007324
73,22,17,Jits_Phase_5,4,1,48,46,2098186032
73,22,17,Jits_Phase_5,0,5,56,103,2098427224
73,22,17,Jits_Phase_5,1,5,63,98,2098436448
73,22,17,Jits_Phase_5,2,5,80,127,2098496860
73,22,17,Jits_Phase_5,3,1,48,51,2098643724
73,22,17,Jits_Phase_5,0,5,56,103,2098927060
73,22,17,Jits_Phase_5,1,5,80,127,2098946396
73,22,17,Jits_Phase_5,2,5,63,98,2098977192
73,22,17,Jits_Phase_5,3,1,48,46,2099104228
73,22,17,Jits_Phase_5,0,5,80,127,2099426596
73,22,17,Jits_Phase_5,1,5,56,103,2099437092
73,22,17,Jits_Phase_5,2,5,63,98,2099457476
73,22,17,Jits_Phase_5,3,1,48,54,2099548716
73,22,17,Jits_Phase_5,0,5,63,98,2099917140
73,22,17,Jits_Phase_5,1,1,48,54,2099985668
73,22,17,Jits_Phase_5,2,5,80,127,2099997152
73,22,17,Jits_Phase_5,3,5,56,103,2100007420
73,22,17,Jits_Phase_5,4,1,48,29,2100050108
73,22,17,Jits_Phase_5,0,1,48,46,2100501548
73,22,17,Jits_Phase_5,1,5,80,127,2100506968
73,22,17,Jits_Phase_5,2,5,56,103,2100526552
73,22,17,Jits_Phase_5,3,5,63,98,2100529472
73,22,17,Jits_Phase_5,4,1,48,23,2100565840
73,22,17,Jits_Phase_5,0,5,63,98,2100996408
73,22,17,Jits_Phase_5,1,5,80,127,2100999696
73,22,17,Jits_Phase_5,2,1,48,46,2101006944
73,22,17,Jits_Phase_5,3,5,56,103,2101056812
73,22,17,Jits_Phase_5,0,5,56,103,2101476964
73,22,17,Jits_Phase_5,1,5,80,127,2101487088
73,22,17,Jits_Phase_5,2,5,63,98,2101527096
73,22,17,Jits_Phase_5,3,1,48,47,2101529848
73,22,17,Jits_Phase_5,0,5,56,103,2101957244
73,22,17,Jits_Phase_5,1,1,48,49,2101998652
73,22,17,Jits_Phase_5,2,5,63,98,2102017332
73,22,17,Jits_Phase_5,3,5,80,127,2102026552
73,22,17,Jits_Phase_5,4,1,48,26,2102062168
73,22,17,Jits_Phase_5,0,5,63,98,2102467200
73,22,17,Jits_Phase_5,1,1,48,47,2102504648
73,22,17,Jits_Phase_5,2,5,80,127,2102506760
73,22,17,Jits_Phase_5,3,5,56,103,2102546696
73,22,17,Jits_Phase_5,0,5,56,103,2102966576
73,22,17,Jits_Phase_5,1,1,48,40,2102975996
73,22,17,Jits_Phase_5,2,5,63,98,2103046512
73,22,17,Jits_Phase_5,3,5,80,127,2103049876
73,22,17,Jits_Phase_5,0,1,48,44,2103474152
73,22,17,Jits_Phase_5,1,5,80,127,2103526640
73,22,17,Jits_Phase_5,2,5,56,103,2103556460
73,22,17,Jits_Phase_5,3,5,63,98,2103559456
73,22,17,Jits_Phase_5,0,1,48,40,2103952856
73,22,17,Jits_Phase_5,1,5,56,103,2103986528
73,22,17,Jits_Phase_5,2,5,80,127,2104006984
73,22,17,Jits_Phase_5,3,5,63,98,2104047068
73,22,17,Jits_Phase_5,0,5,80,127,2104466728
73,22,17,Jits_Phase_5,1,5,63,98,2104487188
73,22,17,Jits_Phase_5,2,1,48,39,2104488228
73,22,17,Jits_Phase_5,3,5,56,103,2104546816
73,22,17,Jits_Phase_5,0,5,63,98,2104976900
73,22,17,Jits_Phase_5,1,5,56,103,2104986948
73,22,17,Jits_Phase_5,2,1,48,47,2104988960
73,22,17,Jits_Phase_5,3,5,80,127,2105037212
73,22,17,Jits_Phase_5,0,5,56,103,2105467280
73,22,17,Jits_Phase_5,1,5,63,98,2105486768
73,22,17,Jits_Phase_5,2,1,48,40,2105489592
73,22,17,Jits_Phase_5,3,5,80,127,2105497028
73,22,17,Jits_Phase_5,0,5,56,103,2105956700
73,22,17,Jits_Phase_5,1,5,63,98,2105959916
73,22,17,Jits_Phase_5,2,5,80,127,2105977156
73,22,17,Jits_Phase_5,3,1,48,41,2105979824
73,22,17,Jits_Phase_5,0,1,48,40,2106451244
73,22,17,Jits_Phase_5,1,5,63,98,2106497348
73,22,17,Jits_Phase_5,2,5,56,103,2106527168
73,22,17,Jits_Phase_5,3,5,80,127,2106556752
73,22,17,Jits_Phase_5,0,1,48,46,2106939304
73,22,17,Jits_Phase_5,1,5,80,127,2106957240
73,22,17,Jits_Phase_5,2,1,48,27,2106992928
73,22,17,Jits_Phase_5,3,5,56,103,2107047344
73,22,17,Jits_Phase_5,4,5,63,98,2107050636
73,22,17,Jits_Phase_5,0,5,56,103,2107457088
73,22,17,Jits_Phase_5,1,5,80,127,2107460232
73,22,17,Jits_Phase_5,2,1,48,40,2107492044
73,22,17,Jits_Phase_5,3,5,63,98,2107536724
73,22,17,Jits_Phase_5,0,5,80,127,2107956544
73,22,17,Jits_Phase_5,1,1,48,43,2107959064
73,22,17,Jits_Phase_5,2,5,63,98,2108017000
73,22,17,Jits_Phase_5,3,5,56,103,2108046896
73,22,17,Jits_Phase_5,0,5,63,98,2108457404
73,22,17,Jits_Phase_5,1,5,80,127,2108466428
73,22,17,Jits_Phase_5,2,1,48,40,2108485960
73,22,17,Jits_Phase_5,3,5,56,103,2108537144
73,22,17,Jits_Phase_5,4,1,48,26,2108548272
73,22,17,Jits_Phase_5,0,1,48,43,2108961188
73,22,17,Jits_Phase_5,1,5,56,103,2109016388
73,22,17,Jits_Phase_5,2,5,80,127,2109047256
73,22,17,Jits_Phase_5,3,5,63,98,2109097440
73,22,17,Jits_Phase_5,0,1,48,42,2109459356
73,22,17,Jits_Phase_5,1,1,48,27,2109516832
73,22,17,Jits_Phase_5,2,5,63,98,2109616556
73,22,17,Jits_Phase_5,3,5,56,103,2109647204
73,22,17,Jits_Phase_5,4,5,80,127,2109650268
73,22,17,Jits_Phase_5,0,1,48,44,2110002752
73,22,17,Jits_Phase_5,1,1,48,29,2110056084
73,22,17,Jits_Phase_5,2,5,63,98,2110117240
73,22,17,Jits_Phase_5,3,5,80,127,2110136800
73,22,17,Jits_Phase_5,4,5,56,103,2110147204
73,22,17,Jits_Phase_5,0,1,48,46,2110533548
73,22,17,Jits_Phase_5,1,1,48,23,2110618648
73,22,17,Jits_Phase_5,2,5,56,103,2110627132
73,22,17,Jits_Phase_5,3,5,63,98,2110630200
73,22,17,Jits_Phase_5,4,5,80,127,2110646620
73,22,17,Jits_Phase_5,0,1,48,52,2111026740
73,22,17,Jits_Phase_5,1,5,56,103,2111076660
73,22,17,Jits_Phase_5,2,5,63,98,2111087156
73,22,17,Jits_Phase_5,3,5,80,127,2111116532
73,22,17,Jits_Phase_5,4,1,48,27,2111119052
73,22,17,Jits_Phase_5,0,1,48,46,2111563892
73,22,17,Jits_Phase_5,1,5,63,98,2111597112
73,22,17,Jits_Phase_5,2,5,80,127,2111617352
73,22,17,Jits_Phase_5,3,5,56,103,2111657288
73,22,17,Jits_Phase_5,0,1,48,40,2112044752
73,22,17,Jits_Phase_5,1,5,56,103,2112127256
73,22,17,Jits_Phase_5,2,5,63,98,2112167328
73,22,17,Jits_Phase_5,3,5,80,127,2112170696
73,22,17,Jits_Phase_5,0,1,48,34,2112502952
73,22,17,Jits_Phase_5,1,5,80,127,2112566616
73,22,17,Jits_Phase_5,2,5,56,103,2112606540
73,22,17,Jits_Phase_5,3,5,63,98,2112656964
73,22,17,Jits_Phase_5,0,1,48,43,2112938724
73,22,17,Jits_Phase_5,1,5,56,103,2113126736
73,22,17,Jits_Phase_5,2,5,80,127,2113136932
73,22,17,Jits_Phase_5,3,5,63,98,2113166904
73,22,17,Jits_Phase_5,0,1,48,43,2113414880
73,22,17,Jits_Phase_5,1,5,56,103,2113577388
73,22,17,Jits_Phase_5,2,5,80,127,2113617200
73,22,17,Jits_Phase_5,3,5,63,98,2113666356
73,22,17,Jits_Phase_5,0,1,48,47,2113897172
73,22,17,Jits_Phase_5,1,1,48,21,2113977468
73,22,17,Jits_Phase_5,2,5,56,103,2114077116
73,22,17,Jits_Phase_5,3,5,80,127,2114116928
73,22,17,Jits_Phase_5,4,5,63,98,2114167276
73,22,17,Jits_Phase_5,0,1,48,27,2114411852
73,22,17,Jits_Phase_5,1,5,80,127,2114566504
73,22,17,Jits_Phase_5,2,5,63,98,2114647372
73,22,17,Jits_Phase_5,3,5,56,103,2114656892
73,22,17,Jits_Phase_5,0,1,48,46,2114880588
73,22,17,Jits_Phase_5,1,5,80,127,2115117372
73,22,17,Jits_Phase_5,2,5,56,103,2115126596
73,22,17,Jits_Phase_5,3,5,63,98,2115147204
73,22,17,Jits_Phase_5,4,1,48,58,2115355204
73,22,17,Jits_Phase_5,0,5,63,98,2115586352
73,22,17,Jits_Phase_5,1,5,56,103,2115657028
73,22,17,Jits_Phase_5,2,5,80,127,2115660096
73,22,17,Jits_Phase_5,3,1,48,54,2115811908
73,22,17,Jits_Phase_5,0,5,80,127,2116076948
73,22,17,Jits_Phase_5,1,5,63,98,2116127076
73,22,17,Jits_Phase_5,2,5,56,103,2116167040
73,22,17,Jits_Phase_5,3,1,48,39,2116268220
73,22,17,Jits_Phase_5,0,5,63,98,2116616500
73,22,17,Jits_Phase_5,1,5,56,103,2116656536
73,22,17,Jits_Phase_5,2,5,80,127,2116667028
73,22,17,Jits_Phase_5,3,1,48,47,2116752020
73,22,17,Jits_Phase_5,0,5,63,98,2117107036
73,22,17,Jits_Phase_5,1,5,56,103,2117126448
73,22,17,Jits_Phase_5,2,5,80,127,2117146980
73,22,17,Jits_Phase_5,3,1,48,36,2117225264
73,22,17,Jits_Phase_5,0,5,80,127,2117566780
73,22,17,Jits_Phase_5,1,5,56,103,2117577052
73,22,17,Jits_Phase_5,2,5,63,98,2117596464
73,22,17,Jits_Phase_5,3,1,48,43,2117739764
73,22,17,Jits_Phase_5,0,5,63,98,2118097184
73,22,17,Jits_Phase_5,1,5,56,103,2118137196
73,22,17,Jits_Phase_5,2,5,80,127,2118166868
73,22,17,Jits_Phase_5,3,1,48,40,2118221924
73,22,17,Jits_Phase_5,0,5,56,103,2118557000
73,22,17,Jits_Phase_5,1,5,63,98,2118586824
73,22,17,Jits_Phase_5,2,5,80,127,2118616352
73,22,17,Jits_Phase_5,3,1,48,47,2118672724
73,22,17,Jits_Phase_5,0,5,80,127,2118976984
73,22,17,Jits_Phase_5,1,5,56,103,2119046440
73,22,17,Jits_Phase_5,2,5,63,98,2119049508
73,22,17,Jits_Phase_5,3,1,48,43,2119124236
73,22,17,Jits_Phase_5,0,5,56,103,2119487000
73,22,17,Jits_Phase_5,1,5,63,98,2119537052
73,22,17,Jits_Phase_5,2,1,48,54,2119553948
73,22,17,Jits_Phase_5,3,5,80,127,2119566872
73,22,17,Jits_Phase_5,0,5,63,98,2119967112
73,22,17,Jits_Phase_5,1,5,80,127,2119970404
73,22,17,Jits_Phase_5,2,5,56,103,2120026476
73,22,17,Jits_Phase_5,3,1,48,37,2120043072
73,22,17,Jits_Phase_5,0,5,56,103,2120496396
73,22,17,Jits_Phase_5,1,1,48,47,2120503100
73,22,17,Jits_Phase_5,2,5,80,127,2120506808
73,22,17,Jits_Phase_5,3,5,63,98,2120556932
73,22,17,Jits_Phase_5,0,1,48,35,2120925900
73,22,17,Jits_Phase_5,1,5,63,98,2120966532
73,22,17,Jits_Phase_5,2,5,56,103,2120976728
73,22,17,Jits_Phase_5,3,5,80,127,2121006500
73,22,17,Jits_Phase_5,0,1,48,45,2121405044
73,22,17,Jits_Phase_5,1,5,63,98,2121496988
73,22,17,Jits_Phase_5,2,5,80,127,2121500208
73,22,17,Jits_Phase_5,3,5,56,103,2121526672
73,22,17,Jits_Phase_5,0,1,48,47,2121867984
73,22,17,Jits_Phase_5,1,5,63,98,2122017236
73,22,17,Jits_Phase_5,2,5,56,103,2122036596
73,22,17,Jits_Phase_5,3,5,80,127,2122039592
73,22,17,Jits_Phase_5,0,1,48,46,2122353332
73,22,17,Jits_Phase_5,1,1,48,22,2122429212
73,22,17,Jits_Phase_5,2,5,63,98,2122476816
73,22,17,Jits_Phase_5,3,5,56,103,2122546804
73,22,17,Jits_Phase_5,4,5,80,127,2122567040
73,22,17,Jits_Phase_5,0,1,48,43,2122847208
73,22,17,Jits_Phase_5,1,5,56,103,2122967464
73,22,17,Jits_Phase_5,2,5,63,98,2122976688
73,22,17,Jits_Phase_5,3,5,80,127,2123066764
73,22,17,Jits_Phase_5,0,1,48,47,2123345016
73,22,17,Jits_Phase_5,1,5,56,103,2123486768
73,22,17,Jits_Phase_5,2,5,80,127,2123526628
73,22,17,Jits_Phase_5,3,5,63,98,2123536752
73,22,17,Jits_Phase_5,0,1,48,44,2123847756
73,22,17,Jits_Phase_5,1,5,56,103,2124006744
73,22,17,Jits_Phase_5,2,5,63,98,2124036644
73,22,17,Jits_Phase_5,3,5,80,127,2124067064
73,22,17,Jits_Phase_5,0,1,48,50,2124298708
73,22,17,Jits_Phase_5,1,5,80,127,2124466712
73,22,17,Jits_Phase_5,2,5,63,98,2124506652
73,22,17,Jits_Phase_5,3,5,56,103,2124526884
73,22,17,Jits_Phase_5,0,1,48,52,2124780316
73,22,17,Jits_Phase_5,1,5,56,103,2125007140
73,22,17,Jits_Phase_5,2,5,80,127,2125026848
73,22,17,Jits_Phase_5,3,5,63,98,2125047008
73,22,17,Jits_Phase_5,4,1,48,53,2125218028
73,22,17,Jits_Phase_5,0,5,63,98,2125477124
73,22,17,Jits_Phase_5,1,5,56,103,2125486644
73,22,17,Jits_Phase_5,2,5,80,127,2125546808
73,22,17,Jits_Phase_5,3,1,48,51,2125679848
73,22,17,Jits_Phase_5,4,1,48,30,2125742372
73,22,17,Jits_Phase_5,0,5,56,103,2125976900
73,22,17,Jits_Phase_5,1,5,63,98,2126046732
73,22,17,Jits_Phase_5,2,5,80,127,2126067112
73,22,17,Jits_Phase_5,3,1,48,56,2126166224
73,22,17,Jits_Phase_5,0,5,56,103,2126476740
73,22,17,Jits_Phase_5,1,5,63,98,2126507240
73,22,17,Jits_Phase_5,2,5,80,127,2126547248
73,22,17,Jits_Phase_5,3,1,48,60,2126601604
73,22,17,Jits_Phase_5,0,5,63,98,2126967140
73,22,17,Jits_Phase_5,1,5,56,103,2127017264
73,22,17,Jits_Phase_5,2,5,80,127,2127026488
73,22,17,Jits_Phase_5,3,1,48,52,2127065424
73,22,17,Jits_Phase_5,0,5,56,103,2127506748
73,22,17,Jits_Phase_5,1,1,48,43,2127512404
73,22,17,Jits_Phase_5,2,5,63,98,2127557016
73,22,17,Jits_Phase_5,3,5,80,127,2127567360
73,22,17,Jits_Phase_5,0,1,48,52,2127950736
73,22,17,Jits_Phase_5,1,5,56,103,2127976764
73,22,17,Jits_Phase_5,2,5,63,98,2127987184
73,22,17,Jits_Phase_5,3,1,48,26,2128006476
73,22,17,Jits_Phase_5,4,5,80,127,2128066952
73,22,17,Jits_Phase_5,0,9999,9999,9999,2043724908
73,22,17,Jits_Phase_5,1,9999,9999,9999,2044224620
73,22,17,Jits_Phase_5,2,9999,9999,9999,2044724352
73,22,17,Jits_Phase_5,3,9999,9999,9999,2045225024
73,22,17,Jits_Phase_5,4,9999,9999,9999,2045724792
73,22,17,Jits_Phase_5,5,9999,9999,9999,2046224448
73,22,17,Jits_Phase_5,6,9999,9999,9999,2046724216
73,22,17,Jits_Phase_5,7,9999,9999,9999,2047224900
73,22,17,Jits_Phase_5,8,9999,9999,9999,2047724608
73,22,17,Jits_Phase_5,9,9999,9999,9999,2048224384
73,22,17,Jits_Phase_5,10,9999,9999,9999,2048725064
73,22,17,Jits_Phase_5,11,9999,9999,9999,2049224812
73,22,17,Jits_Phase_5,12,9999,9999,9999,2049724480
73,22,17,Jits_Phase_5,13,9999,9999,9999,2050224224
73,22,17,Jits_Phase_5,14,9999,9999,9999,2050724932
73,22,17,Jits_Phase_5,15,9999,9999,9999,2051224676
73,22,17,Jits_Phase_5,16,9999,9999,9999,2051724348
73,22,17,Jits_Phase_5,17,9999,9999,9999,2052224096
73,22,17,Jits_Phase_5,18,9999,9999,9999,2052724816
73,22,17,Jits_Phase_5,19,9999,9999,9999,2053224564
73,22,17,Jits_Phase_5,20,9999,9999,9999,2053724240
73,22,17,Jits_Phase_5,21,9999,9999,9999,2054224960
73,22,17,Jits_Phase_5,22,9999,9999,9999,2054724708
73,22,17,Jits_Phase_5,23,9999,9999,9999,2055224384
73,22,17,Jits_Phase_5,24,9999,9999,9999,2055724108
73,22,17,Jits_Phase_5,25,9999,9999,9999,2056224880
73,22,17,Jits_Phase_5,26,9999,9999,9999,2056724536
73,22,17,Jits_Phase_5,27,9999,9999,9999,2057224256
73,22,17,Jits_Phase_5,28,9999,9999,9999,2057725048
73,22,17,Jits_Phase_5,29,9999,9999,9999,2058224712
73,22,17,Jits_Phase_5,30,9999,9999,9999,2058714216
73,22,17,Jits_Phase_5,31,9999,9999,9999,2059214916
73,22,17,Jits_Phase_5,32,9999,9999,9999,2059714636
73,22,17,Jits_Phase_5,33,9999,9999,9999,2060214360
73,22,17,Jits_Phase_5,34,9999,9999,9999,2060715116
73,22,17,Jits_Phase_5,35,9999,9999,9999,2061225088
73,22,17,Jits_Phase_5,36,9999,9999,9999,2061724780
73,22,17,Jits_Phase_5,37,9999,9999,9999,2062224508
73,22,17,Jits_Phase_5,38,9999,9999,9999,2062724196
73,22,17,Jits_Phase_5,39,9999,9999,9999,2063224920
73,22,17,Jits_Phase_5,40,9999,9999,9999,2063724600
73,22,17,Jits_Phase_5,41,9999,9999,9999,2064224344
73,22,17,Jits_Phase_5,42,9999,9999,9999,2064725064
73,22,17,Jits_Phase_5,43,9999,9999,9999,2065224812
73,22,17,Jits_Phase_5,44,9999,9999,9999,2065724480
73,22,17,Jits_Phase_5,45,9999,9999,9999,2066224240
73,22,17,Jits_Phase_5,46,9999,9999,9999,2066724936
73,22,17,Jits_Phase_5,47,9999,9999,9999,2067224684
73,22,17,Jits_Phase_5,48,9999,9999,9999,2067734624
73,22,17,Jits_Phase_5,49,9999,9999,9999,2068234304
73,22,17,Jits_Phase_5,50,9999,9999,9999,2068735092
73,22,17,Jits_Phase_5,51,9999,9999,9999,2069234784
73,22,17,Jits_Phase_5,52,9999,9999,9999,2069734476
73,22,17,Jits_Phase_5,53,9999,9999,9999,2070234220
73,22,17,Jits_Phase_5,54,9999,9999,9999,2070734972
73,22,17,Jits_Phase_5,55,9999,9999,9999,2071234640
73,22,17,Jits_Phase_5,56,9999,9999,9999,2071734328
73,22,17,Jits_Phase_5,57,9999,9999,9999,2072235132
73,22,17,Jits_Phase_5,58,9999,9999,9999,2072745072
73,22,17,Jits_Phase_5,59,9999,9999,9999,2073244732
73,22,17,Jits_Phase_5,60,9999,9999,9999,2073744484
73,22,17,Jits_Phase_5,61,9999,9999,9999,2074244208
73,22,17,Jits_Phase_5,62,9999,9999,9999,2074744908
73,22,17,Jits_Phase_5,63,9999,9999,9999,2075244652
73,22,17,Jits_Phase_5,64,9999,9999,9999,2075764852
73,22,17,Jits_Phase_5,65,9999,9999,9999,2076264524
73,22,17,Jits_Phase_5,66,9999,9999,9999,2076764276
73,22,17,Jits_Phase_5,67,9999,9999,9999,2077264964
73,22,17,Jits_Phase_5,68,9999,9999,9999,2077764692
73,22,17,Jits_Phase_5,69,9999,9999,9999,2078264420
73,22,17,Jits_Phase_5,70,9999,9999,9999,2078764092
73,22,17,Jits_Phase_5,71,9999,9999,9999,2079264836
73,22,17,Jits_Phase_5,72,9999,9999,9999,2079764556
73,22,17,Jits_Phase_5,73,9999,9999,9999,2080264284
73,22,17,Jits_Phase_5,74,9999,9999,9999,2080765036
73,22,17,Jits_Phase_5,75,9999,9999,9999,2081264740
73,22,17,Jits_Phase_5,76,9999,9999,9999,2081764472
73,22,17,Jits_Phase_5,77,9999,9999,9999,2082264128
73,22,17,Jits_Phase_5,78,9999,9999,9999,2082764904
73,22,17,Jits_Phase_5,79,9999,9999,9999,2083264572
73,22,17,Jits_Phase_5,80,9999,9999,9999,2083764284
73,22,17,Jits_Phase_5,81,9999,9999,9999,2084244608
73,22,17,Jits_Phase_5,82,9999,9999,9999,2084744252
73,22,17,Jits_Phase_5,83,9999,9999,9999,2085245040
73,22,17,Jits_Phase_5,84,9999,9999,9999,2085744732
73,22,17,Jits_Phase_5,85,9999,9999,9999,2086244480
73,22,17,Jits_Phase_5,86,9999,9999,9999,2086744152
73,22,17,Jits_Phase_5,87,9999,9999,9999,2087244868
73,22,17,Jits_Phase_5,88,9999,9999,9999,2087744592
73,22,17,Jits_Phase_5,89,9999,9999,9999,2088244332
73,22,17,Jits_Phase_5,90,9999,9999,9999,2088745084
73,22,17,Jits_Phase_5,91,9999,9999,9999,2089244732
73,22,17,Jits_Phase_5,92,9999,9999,9999,2089744444
73,22,17,Jits_Phase_5,93,9999,9999,9999,2090244196
73,22,17,Jits_Phase_5,94,9999,9999,9999,2090744916
73,22,17,Jits_Phase_5,95,9999,9999,9999,2091244664
73,22,17,Jits_Phase_5,96,9999,9999,9999,2091744340
73,22,17,Jits_Phase_5,97,9999,9999,9999,2092194944
73,22,17,Jits_Phase_5,98,9999,9999,9999,2092694620
73,22,17,Jits_Phase_5,99,9999,9999,9999,2093194312
73,22,17,Jits_Phase_5,100,9999,9999,9999,2093695028
73,22,17,Jits_Phase_5,101,9999,9999,9999,2094194780
73,22,17,Jits_Phase_5,102,9999,9999,9999,2094694524
73,22,17,Jits_Phase_5,103,9999,9999,9999,2095194180
73,22,17,Jits_Phase_5,104,9999,9999,9999,2095694952
73,22,17,Jits_Phase_5,105,9999,9999,9999,2096194672
73,22,17,Jits_Phase_5,106,9999,9999,9999,2096694348
73,22,17,Jits_Phase_5,107,9999,9999,9999,2097195116
73,22,17,Jits_Phase_5,108,9999,9999,9999,2097705028
73,22,17,Jits_Phase_5,109,9999,9999,9999,2098204748
73,22,17,Jits_Phase_5,110,9999,9999,9999,2098704472
73,22,17,Jits_Phase_5,111,9999,9999,9999,2099204216
73,22,17,Jits_Phase_5,112,9999,9999,9999,2099704948
73,22,17,Jits_Phase_5,113,9999,9999,9999,2100204616
73,22,17,Jits_Phase_5,114,9999,9999,9999,2100754508
73,22,17,Jits_Phase_5,115,9999,9999,9999,2101254224
73,22,17,Jits_Phase_5,116,9999,9999,9999,2101754944
73,22,17,Jits_Phase_5,117,9999,9999,9999,2102254656
73,22,17,Jits_Phase_5,118,9999,9999,9999,2102754400
73,22,17,Jits_Phase_5,119,9999,9999,9999,2103254140
73,22,17,Jits_Phase_5,120,9999,9999,9999,2103754872
73,22,17,Jits_Phase_5,121,9999,9999,9999,2104254548
73,22,17,Jits_Phase_5,122,9999,9999,9999,2104754296
73,22,17,Jits_Phase_5,123,9999,9999,9999,2105255028
73,22,17,Jits_Phase_5,124,9999,9999,9999,2105754696
73,22,17,Jits_Phase_5,125,9999,9999,9999,2106254440
73,22,17,Jits_Phase_5,126,9999,9999,9999,2106754136
73,22,17,Jits_Phase_5,127,9999,9999,9999,2107254900
73,22,17,Jits_Phase_5,128,9999,9999,9999,2107754612
73,22,17,Jits_Phase_5,129,9999,9999,9999,2108254300
73,22,17,Jits_Phase_5,130,9999,9999,9999,2108755012
73,22,17,Jits_Phase_5,131,9999,9999,9999,2109355120
73,22,17,Jits_Phase_5,132,9999,9999,9999,2109865028
73,22,17,Jits_Phase_5,133,9999,9999,9999,2110364736
73,22,17,Jits_Phase_5,134,9999,9999,9999,2110864508
73,22,17,Jits_Phase_5,135,9999,9999,9999,2111364212
73,22,17,Jits_Phase_5,136,9999,9999,9999,2111864912
73,22,17,Jits_Phase_5,137,9999,9999,9999,2112364636
73,22,17,Jits_Phase_5,138,9999,9999,9999,2112864380
73,22,17,Jits_Phase_5,139,9999,9999,9999,2113365108
73,22,17,Jits_Phase_5,140,9999,9999,9999,2113864780
73,22,17,Jits_Phase_5,141,9999,9999,9999,2114364508
73,22,17,Jits_Phase_5,142,9999,9999,9999,2114864236
73,22,17,Jits_Phase_5,143,9999,9999,9999,2115364924
73,22,17,Jits_Phase_5,144,9999,9999,9999,2115864636
73,22,17,Jits_Phase_5,145,9999,9999,9999,2116364372
73,22,17,Jits_Phase_5,146,9999,9999,9999,2116864064
73,22,17,Jits_Phase_5,147,9999,9999,9999,2117364860
73,22,17,Jits_Phase_5,148,9999,9999,9999,2117864532
73,22,17,Jits_Phase_5,149,9999,9999,9999,2118364228
73,22,17,Jits_Phase_5,150,9999,9999,9999,2118764608
73,22,17,Jits_Phase_5,151,9999,9999,9999,2119264320
73,22,17,Jits_Phase_5,152,9999,9999,9999,2119765060
73,22,17,Jits_Phase_5,153,9999,9999,9999,2120264808
73,22,17,Jits_Phase_5,154,9999,9999,9999,2120764484
73,22,17,Jits_Phase_5,155,9999,9999,9999,2121264240
73,22,17,Jits_Phase_5,156,9999,9999,9999,2121764928
73,22,17,Jits_Phase_5,157,9999,9999,9999,2122264664
73,22,17,Jits_Phase_5,158,9999,9999,9999,2122764396
73,22,17,Jits_Phase_5,159,9999,9999,9999,2123264120
73,22,17,Jits_Phase_5,160,9999,9999,9999,2123764840
73,22,17,Jits_Phase_5,161,9999,9999,9999,2124264520
73,22,17,Jits_Phase_5,162,9999,9999,9999,2124764268
73,22,17,Jits_Phase_5,163,9999,9999,9999,2125264980
73,22,17,Jits_Phase_5,164,9999,9999,9999,2125764684
73,22,17,Jits_Phase_5,165,9999,9999,9999,2126264396
73,22,17,Jits_Phase_5,166,9999,9999,9999,2126764084
73,22,17,Jits_Phase_5,167,9999,9999,9999,2127264896
73,22,17,Jits_Phase_5,168,9999,9999,9999,2127764576
73,22,17,Jits_Phase_5,169,9999,9999,9999,2128264316
73,23,3,ISIP_8,0,5,42,127,2205826396
73,23,3,ISIP_8,1,5,42,127,2206627124
73,23,3,ISIP_8,2,5,42,127,2207427176
73,23,3,ISIP_8,3,5,42,127,2208226632
73,23,3,ISIP_8,4,1,48,36,2208949756
73,23,3,ISIP_8,5,5,42,127,2209026380
73,23,3,ISIP_8,6,1,48,53,2209709020
73,23,3,ISIP_8,7,5,42,127,2209827148
73,23,3,ISIP_8,8,1,48,58,2210466640
73,23,3,ISIP_8,9,5,42,127,2210627128
73,23,3,ISIP_8,10,1,48,58,2211248952
73,23,3,ISIP_8,11,5,42,127,2211426564
73,23,3,ISIP_8,12,1,48,56,2212025120
73,23,3,ISIP_8,13,5,42,127,2212226372
73,23,3,ISIP_8,14,5,42,127,2213027100
73,23,3,ISIP_8,15,1,48,40,2213062456
73,23,3,ISIP_8,16,5,42,127,2213826984
73,23,3,ISIP_8,17,1,48,66,2213844984
73,23,3,ISIP_8,18,1,48,61,2214547692
73,23,3,ISIP_8,19,5,42,127,2214626636
73,23,3,ISIP_8,20,1,48,52,2215304712
73,23,3,ISIP_8,21,5,42,127,2215426428
73,23,3,ISIP_8,22,1,48,47,2216085972
73,23,3,ISIP_8,23,5,42,127,2216227060
73,23,3,ISIP_8,24,1,48,40,2216586416
73,23,3,ISIP_8,25,5,42,127,2217026816
73,23,3,ISIP_8,26,1,48,41,2217199728
73,23,3,ISIP_8,27,1,48,39,2217737848
73,23,3,ISIP_8,28,5,42,127,2217826764
73,23,3,ISIP_8,29,1,48,47,2218317152
73,23,3,ISIP_8,30,1,48,16,2218417660
73,23,3,ISIP_8,31,5,42,127,2218626312
73,23,3,ISIP_8,32,1,48,40,2218889680
73,23,3,ISIP_8,33,5,42,127,2219427168
73,23,3,ISIP_8,34,1,48,51,2219456768
73,23,3,ISIP_8,35,1,48,43,2220016428
73,23,3,ISIP_8,36,5,42,127,2220226952
73,23,3,ISIP_8,37,1,48,36,2220695964
73,23,3,ISIP_8,38,5,42,127,2221026760
73,23,3,ISIP_8,39,1,48,48,2221428232
73,23,3,ISIP_8,40,1,48,37,2221485132
73,23,3,ISIP_8,41,5,42,127,2221826548
73,23,3,ISIP_8,42,1,48,48,2222331912
73,23,3,ISIP_8,43,5,42,127,2222627104
73,23,3,ISIP_8,44,1,48,48,2223118252
73,23,3,ISIP_8,45,5,42,127,2223426860
73,23,3,ISIP_8,46,1,48,35,2223936788
73,23,3,ISIP_8,47,5,42,127,2224226744
73,23,3,ISIP_8,48,1,48,42,2224712888
73,23,3,ISIP_8,49,5,42,127,2225026552
73,23,3,ISIP_8,50,1,48,42,2225472604
73,23,3,ISIP_8,51,5,42,127,2225827108
73,23,3,ISIP_8,52,1,48,54,2226295744
73,23,3,ISIP_8,53,5,42,127,2226626844
73,23,3,ISIP_8,54,1,48,53,2227115748
73,23,3,ISIP_8,55,5,42,127,2227426652
73,23,3,ISIP_8,56,1,48,44,2227894912
73,23,3,ISIP_8,57,5,42,127,2228226536
73,23,3,ISIP_8,58,1,48,40,2228684772
73,23,3,ISIP_8,59,5,42,127,2229027092
73,23,3,ISIP_8,60,1,48,55,2229438736
73,23,3,ISIP_8,61,1,48,34,2230174432
73,23,3,ISIP_8,62,1,48,46,2230907668
73,23,3,ISIP_8,63,1,48,48,2231651528
73,23,3,ISIP_8,64,1,48,32,2232449684
73,23,3,ISIP_8,65,1,48,36,2233210740
73,23,3,ISIP_8,66,1,48,37,2234001120
73,23,3,ISIP_8,67,1,48,38,2234771608
73,23,3,ISIP_8,68,1,48,55,2235550388
73,23,3,ISIP_8,69,1,48,28,2236370836
73,23,3,ISIP_8,70,1,48,37,2237127628
73,23,3,ISIP_8,71,1,48,39,2237900064
73,23,3,ISIP_8,72,1,48,43,2238655432
73,23,3,ISIP_8,73,1,48,18,2238839892
73,23,3,ISIP_8,74,1,48,48,2239401724
73,23,3,ISIP_8,75,1,48,35,2240157396
73,23,3,ISIP_8,76,1,48,49,2240983380
73,23,3,ISIP_8,77,1,48,51,2241725592
73,23,3,ISIP_8,78,1,48,37,2242468400
73,23,3,ISIP_8,79,1,48,51,2243186448
73,23,3,ISIP_8,80,1,48,58,2243878244
73,23,3,ISIP_8,81,1,48,40,2244639880
73,23,3,ISIP_8,82,1,48,47,2245349100
73,23,3,ISIP_8,83,1,48,51,2246122048
73,23,3,ISIP_8,84,1,48,24,2246220412
73,23,3,ISIP_8,85,1,48,47,2246868428
73,23,3,ISIP_8,86,1,48,46,2247603456
73,23,3,ISIP_8,87,1,48,25,2247658864
73,23,3,ISIP_8,88,1,48,55,2248373544
73,23,3,ISIP_8,89,1,48,32,2248433284
73,23,3,ISIP_8,90,1,48,45,2249136300
73,23,3,ISIP_8,91,1,48,57,2249861532
73,23,3,ISIP_8,92,1,48,32,2249922844
73,23,3,ISIP_8,93,1,48,51,2250630648
73,23,3,ISIP_8,94,1,48,52,2251347636
73,23,3,ISIP_8,95,1,48,24,2251411720
73,23,3,ISIP_8,96,1,48,53,2252026896
73,23,3,ISIP_8,97,1,48,44,2252794236
73,23,3,ISIP_8,98,1,48,41,2253499648
73,23,3,ISIP_8,99,1,48,44,2254220988
73,23,3,ISIP_8,100,1,48,47,2254901188
73,23,3,ISIP_8,101,1,48,48,2255622876
73,23,3,ISIP_8,102,1,48,52,2256315872
73,23,3,ISIP_8,103,1,48,52,2257002868
73,23,3,ISIP_8,104,1,48,41,2257678636
73,23,3,ISIP_8,105,1,48,29,2258415684
73,23,3,ISIP_8,106,1,48,38,2259089604
73,23,3,ISIP_8,107,1,48,33,2259779680
73,23,3,ISIP_8,108,1,48,36,2260507124
73,23,3,ISIP_8,109,1,48,44,2261217400
73,23,3,ISIP_8,110,1,48,51,2261911884
73,23,3,ISIP_8,111,1,48,48,2262644000
73,23,3,ISIP_8,112,1,48,51,2263316380
73,23,3,ISIP_8,113,1,48,51,2264028896
73,23,3,ISIP_8,114,1,48,51,2264732812
73,23,3,ISIP_8,115,1,48,53,2265444580
73,23,3,ISIP_8,116,1,48,53,2266116676
73,23,3,ISIP_8,117,1,48,22,2266195668
73,23,3,ISIP_8,118,1,48,49,2266849592
73,23,3,ISIP_8,119,1,48,24,2266908884
73,23,3,ISIP_8,120,1,48,52,2267547048
73,23,3,ISIP_8,121,1,48,35,2267591980
73,23,3,ISIP_8,122,1,48,49,2268241440
73,23,3,ISIP_8,123,1,48,51,2268947404
73,23,3,ISIP_8,124,1,48,28,2269000744
73,23,3,ISIP_8,125,1,48,47,2269653024
73,23,3,ISIP_8,126,1,48,56,2270369800
73,23,3,ISIP_8,127,1,48,54,2271052020
73,23,3,ISIP_8,128,1,48,37,2271734512
73,23,3,ISIP_8,129,1,48,45,2272357796
73,23,3,ISIP_8,130,1,48,33,2273083924
73,23,3,ISIP_8,131,1,48,41,2273696996
73,23,3,ISIP_8,132,1,48,39,2274425812
73,23,3,ISIP_8,133,1,48,37,2275109680
73,23,3,ISIP_8,134,1,48,48,2275776396
73,23,3,ISIP_8,135,1,48,34,2276390108
73,23,3,ISIP_8,136,1,48,40,2277007664
73,23,3,ISIP_8,137,1,48,40,2277599128
73,23,3,ISIP_8,138,1,48,47,2278202816
73,23,3,ISIP_8,139,1,48,46,2278798920
73,23,3,ISIP_8,140,1,48,46,2279484880
73,23,3,ISIP_8,141,1,48,45,2280029060
73,23,3,ISIP_8,142,1,48,30,2280676704
73,23,3,ISIP_8,143,1,48,45,2281211924
73,23,3,ISIP_8,144,1,48,36,2281809308
73,23,3,ISIP_8,145,1,48,47,2282449840
73,23,3,ISIP_8,146,1,48,30,2283117852
73,23,3,ISIP_8,147,1,48,46,2283722704
73,23,3,ISIP_8,148,1,48,53,2284384132
73,23,3,ISIP_8,149,1,48,43,2284959284
73,23,3,ISIP_8,150,1,48,45,2285533252
73,23,3,ISIP_8,151,1,48,37,2286109676
73,23,3,ISIP_8,152,1,48,47,2286657040
73,23,3,ISIP_8,153,1,48,27,2287263600
73,23,3,ISIP_8,154,1,48,37,2287827024
73,23,3,ISIP_8,155,1,48,38,2288429212
73,23,3,ISIP_8,156,1,48,41,2289060620
73,23,3,ISIP_8,157,1,48,39,2289664492
73,23,3,ISIP_8,158,1,48,33,2290317616
73,23,3,ISIP_8,159,1,48,38,2290933540
73,23,3,ISIP_8,160,1,48,37,2291539620
73,23,3,ISIP_8,161,1,48,33,2292178200
73,23,3,ISIP_8,162,1,48,39,2292791752
73,23,3,ISIP_8,163,1,48,46,2293423536
73,23,3,ISIP_8,164,1,48,37,2294053620
73,23,3,ISIP_8,165,1,48,42,2294665736
73,23,3,ISIP_8,166,1,48,47,2295268712
73,23,3,ISIP_8,167,1,48,49,2295849580
73,23,3,ISIP_8,168,1,48,52,2296452568
73,23,3,ISIP_8,169,1,48,49,2297011488
73,23,3,ISIP_8,170,1,48,48,2297618060
73,23,3,ISIP_8,171,1,48,45,2298162952
73,23,3,ISIP_8,172,1,48,46,2298793020
73,23,3,ISIP_8,173,1,48,44,2299438368
73,23,3,ISIP_8,174,1,48,42,2300040588
73,23,3,ISIP_8,175,1,48,40,2300559428
73,23,3,ISIP_8,176,1,48,35,2300650284
73,23,3,ISIP_8,177,1,48,46,2301182588
73,23,3,ISIP_8,178,1,48,37,2301832200
73,23,3,ISIP_8,179,1,48,45,2302409440
73,23,3,ISIP_8,180,1,48,46,2303061664
73,23,3,ISIP_8,181,1,48,47,2303838956
73,23,3,ISIP_8,182,1,48,46,2304593656
73,23,3,ISIP_8,183,1,48,50,2305239952
73,23,3,ISIP_8,184,1,48,32,2305308220
73,23,3,ISIP_8,185,1,48,42,2306009516
73,23,3,ISIP_8,186,1,48,42,2306660700
73,23,3,ISIP_8,187,1,48,46,2307249236
73,23,3,ISIP_8,188,1,48,24,2307307704
73,23,3,ISIP_8,189,1,48,48,2307882888
73,23,3,ISIP_8,190,1,48,43,2308445932
73,23,3,ISIP_8,191,1,48,45,2309014948
73,23,3,ISIP_8,192,1,48,40,2309600436
73,23,3,ISIP_8,193,1,48,28,2310195220
73,23,3,ISIP_8,194,1,48,48,2310753400
73,23,3,ISIP_8,195,1,48,42,2311338420
73,23,3,ISIP_8,196,1,48,40,2311920840
73,23,3,ISIP_8,197,1,48,40,2312512324
73,23,3,ISIP_8,198,1,48,42,2313089508
73,23,3,ISIP_8,199,1,48,49,2313679840
73,23,3,ISIP_8,200,1,48,54,2314265024
73,23,3,ISIP_8,201,1,48,55,2314848136
73,23,3,ISIP_8,202,1,48,52,2315418200
73,23,3,ISIP_8,203,1,48,48,2316001444
73,23,3,ISIP_8,204,1,48,50,2316510260
73,23,3,ISIP_8,205,1,48,40,2317078308
73,23,3,ISIP_8,206,1,48,48,2317637776
73,23,3,ISIP_8,207,1,48,53,2318180924
73,23,3,ISIP_8,208,1,48,47,2318751076
73,23,3,ISIP_8,209,1,48,42,2319332360
73,23,3,ISIP_8,210,1,48,48,2319861816
73,23,3,ISIP_8,211,1,48,45,2320460708
73,23,3,ISIP_8,212,1,48,36,2321073424
73,23,3,ISIP_8,213,1,48,46,2321610272
73,23,3,ISIP_8,214,1,48,38,2322174068
73,23,3,ISIP_8,215,1,48,18,2322820240
73,23,3,ISIP_8,216,1,48,47,2323407648
73,23,3,ISIP_8,217,1,48,49,2323987076
73,23,3,ISIP_8,218,1,48,53,2324540120
73,23,3,ISIP_8,219,1,48,35,2325178492
73,23,3,ISIP_8,220,1,48,42,2325755504
73,23,3,ISIP_8,0,9999,9999,9999,2205824108
73,23,3,ISIP_8,1,9999,9999,9999,2206624836
73,23,3,ISIP_8,2,9999,9999,9999,2207424592
73,23,3,ISIP_8,3,9999,9999,9999,2208224344
73,23,3,ISIP_8,4,9999,9999,9999,2209024092
73,23,3,ISIP_8,5,9999,9999,9999,2209824860
73,23,3,ISIP_8,6,9999,9999,9999,2210624616
73,23,3,ISIP_8,7,9999,9999,9999,2211424352
73,23,3,ISIP_8,8,9999,9999,9999,2212224084
73,23,3,ISIP_8,9,9999,9999,9999,2213024888
73,23,3,ISIP_8,10,9999,9999,9999,2213824620
73,23,3,ISIP_8,11,9999,9999,9999,2214624348
73,23,3,ISIP_8,12,9999,9999,9999,2215424064
73,23,3,ISIP_8,13,9999,9999,9999,2216224844
73,23,3,ISIP_8,14,9999,9999,9999,2217024600
73,23,3,ISIP_8,15,9999,9999,9999,2217824328
73,23,3,ISIP_8,16,9999,9999,9999,2218624100
73,23,3,ISIP_8,17,9999,9999,9999,2219424880
73,23,3,ISIP_8,18,9999,9999,9999,2220224592
73,23,3,ISIP_8,19,9999,9999,9999,2221024324
73,23,3,ISIP_8,20,9999,9999,9999,2221824112
73,23,3,ISIP_8,21,9999,9999,9999,2222624816
73,23,3,ISIP_8,22,9999,9999,9999,2223424572
73,23,3,ISIP_8,23,9999,9999,9999,2224224308
73,23,3,ISIP_8,24,9999,9999,9999,2225024116
73,23,3,ISIP_8,25,9999,9999,9999,2225824820
73,23,3,ISIP_8,26,9999,9999,9999,2226624628
73,23,3,ISIP_8,27,9999,9999,9999,2227424364
73,23,3,ISIP_8,28,9999,9999,9999,2228224100
73,23,3,ISIP_8,29,9999,9999,9999,2229024876
73,23,3,ISIP_8,30,9999,9999,9999,2229824564
73,23,3,ISIP_8,31,9999,9999,9999,2230624368
73,23,3,ISIP_8,32,9999,9999,9999,2231424096
73,23,3,ISIP_8,33,9999,9999,9999,2232224876
73,23,3,ISIP_8,34,9999,9999,9999,2233024604
73,23,3,ISIP_8,35,9999,9999,9999,2233824332
73,23,3,ISIP_8,36,9999,9999,9999,2234624060
73,23,3,ISIP_8,37,9999,9999,9999,2235424836
73,23,3,ISIP_8,38,9999,9999,9999,2236224592
73,23,3,ISIP_8,39,9999,9999,9999,2237024320
73,23,3,ISIP_8,40,9999,9999,9999,2237824048
73,23,3,ISIP_8,41,9999,9999,9999,2238624824
73,23,3,ISIP_8,42,9999,9999,9999,2239424600
73,23,3,ISIP_8,43,9999,9999,9999,2240224332
73,23,3,ISIP_8,44,9999,9999,9999,2241024060
73,23,3,ISIP_8,45,9999,9999,9999,2241824820
73,23,3,ISIP_8,46,9999,9999,9999,2242624576
73,23,3,ISIP_8,47,9999,9999,9999,2243424304
73,23,3,ISIP_8,48,9999,9999,9999,2244224108
73,23,3,ISIP_8,49,9999,9999,9999,2245024884
73,23,3,ISIP_8,50,9999,9999,9999,2245824612
73,23,3,ISIP_8,51,9999,9999,9999,2246624320
73,23,3,ISIP_8,52,9999,9999,9999,2247424048
73,23,3,ISIP_8,53,9999,9999,9999,2248224876
73,23,3,ISIP_8,54,9999,9999,9999,2249024608
73,23,3,ISIP_8,55,9999,9999,9999,2249824340
73,23,3,ISIP_8,56,9999,9999,9999,2250624048
73,23,3,ISIP_8,57,9999,9999,9999,2251424872
73,23,3,ISIP_8,58,9999,9999,9999,2252224584
73,23,3,ISIP_8,59,9999,9999,9999,2253024312
73,23,3,ISIP_8,60,9999,9999,9999,2253824116
73,23,3,ISIP_8,61,9999,9999,9999,2254624820
73,23,3,ISIP_8,62,9999,9999,9999,2255424572
73,23,3,ISIP_8,63,9999,9999,9999,2256224304
73,23,3,ISIP_8,64,9999,9999,9999,2257024100
73,23,3,ISIP_8,65,9999,9999,9999,2257824860
73,23,3,ISIP_8,66,9999,9999,9999,2258624588
73,23,3,ISIP_8,67,9999,9999,9999,2259424320
73,23,3,ISIP_8,68,9999,9999,9999,2260224048
73,23,3,ISIP_8,69,9999,9999,9999,2261024824
73,23,3,ISIP_8,70,9999,9999,9999,2261824576
73,23,3,ISIP_8,71,9999,9999,9999,2262624308
73,23,3,ISIP_8,72,9999,9999,9999,2263424088
73,23,3,ISIP_8,73,9999,9999,9999,2264224864
73,23,3,ISIP_8,74,9999,9999,9999,2265024596
73,23,3,ISIP_8,75,9999,9999,9999,2265824324
73,23,3,ISIP_8,76,9999,9999,9999,2266624108
73,23,3,ISIP_8,77,9999,9999,9999,2267424860
73,23,3,ISIP_8,78,9999,9999,9999,2268224592
73,23,3,ISIP_8,79,9999,9999,9999,2269024368
73,23,3,ISIP_8,80,9999,9999,9999,2269824080
73,23,3,ISIP_8,81,9999,9999,9999,2270624856
73,23,3,ISIP_8,82,9999,9999,9999,2271424584
73,23,3,ISIP_8,83,9999,9999,9999,2272224316
73,23,3,ISIP_8,84,9999,9999,9999,2273024116
73,23,3,ISIP_8,85,9999,9999,9999,2273824872
73,23,3,ISIP_8,86,9999,9999,9999,2274624628
73,23,3,ISIP_8,87,9999,9999,9999,2275424356
73,23,3,ISIP_8,88,9999,9999,9999,2276224084
73,23,3,ISIP_8,89,9999,9999,9999,2277024856
73,23,3,ISIP_8,90,9999,9999,9999,2277824568
73,23,3,ISIP_8,91,9999,9999,9999,2278624372
73,23,3,ISIP_8,92,9999,9999,9999,2279424104
73,23,3,ISIP_8,93,9999,9999,9999,2280224856
73,23,3,ISIP_8,94,9999,9999,9999,2281024608
73,23,3,ISIP_8,95,9999,9999,9999,2281824332
73,23,3,ISIP_8,96,9999,9999,9999,2282624120
73,23,3,ISIP_8,97,9999,9999,9999,2283424820
73,23,3,ISIP_8,98,9999,9999,9999,2284224624
73,23,3,ISIP_8,99,9999,9999,9999,2285024348
73,23,3,ISIP_8,100,9999,9999,9999,2285824060
73,23,3,ISIP_8,101,9999,9999,9999,2286624836
73,23,3,ISIP_8,102,9999,9999,9999,2287424568
73,23,3,ISIP_8,103,9999,9999,9999,2288224372
73,23,3,ISIP_8,104,9999,9999,9999,2289024100
73,23,3,ISIP_8,105,9999,9999,9999,2289824856
73,23,3,ISIP_8,106,9999,9999,9999,2290624584
73,23,3,ISIP_8,107,9999,9999,9999,2291424312
73,23,3,ISIP_8,108,9999,9999,9999,2292224112
73,23,3,ISIP_8,109,9999,9999,9999,2293024872
73,23,3,ISIP_8,110,9999,9999,9999,2293824624
73,23,3,ISIP_8,111,9999,9999,9999,2294624356
73,23,3,ISIP_8,112,9999,9999,9999,2295424064
73,23,3,ISIP_8,113,9999,9999,9999,2296224840
73,23,3,ISIP_8,114,9999,9999,9999,2297024564
73,23,3,ISIP_8,115,9999,9999,9999,2297824352
73,23,3,ISIP_8,116,9999,9999,9999,2298624080
73,23,3,ISIP_8,117,9999,9999,9999,2299424856
73,23,3,ISIP_8,118,9999,9999,9999,2300224588
73,23,3,ISIP_8,119,9999,9999,9999,2301024372
73,23,3,ISIP_8,120,9999,9999,9999,2301824100
73,23,3,ISIP_8,121,9999,9999,9999,2302624856
73,23,3,ISIP_8,122,9999,9999,9999,2303424584
73,23,3,ISIP_8,123,9999,9999,9999,2304224316
73,23,3,ISIP_8,124,9999,9999,9999,2305024116
73,23,3,ISIP_8,125,9999,9999,9999,2305824872
73,23,3,ISIP_8,126,9999,9999,9999,2306624624
73,23,3,ISIP_8,127,9999,9999,9999,2307424312
73,23,3,ISIP_8,128,9999,9999,9999,2308224116
73,23,3,ISIP_8,129,9999,9999,9999,2309024884
73,23,3,ISIP_8,130,9999,9999,9999,2309824600
73,23,3,ISIP_8,131,9999,9999,9999,2310624328
73,23,3,ISIP_8,132,9999,9999,9999,2311424052
73,23,3,ISIP_8,133,9999,9999,9999,2312224888
73,23,3,ISIP_8,134,9999,9999,9999,2313024568
73,23,3,ISIP_8,135,9999,9999,9999,2313824348
73,23,3,ISIP_8,136,9999,9999,9999,2314624076
73,23,3,ISIP_8,137,9999,9999,9999,2315424848
73,23,3,ISIP_8,138,9999,9999,9999,2316224560
73,23,3,ISIP_8,139,9999,9999,9999,2317024364
73,23,3,ISIP_8,140,9999,9999,9999,2317824072
73,23,3,ISIP_8,141,9999,9999,9999,2318624848
73,23,3,ISIP_8,142,9999,9999,9999,2319424596
73,23,3,ISIP_8,143,9999,9999,9999,2320224308
73,23,3,ISIP_8,144,9999,9999,9999,2321024112
73,23,3,ISIP_8,145,9999,9999,9999,2321824868
73,23,3,ISIP_8,146,9999,9999,9999,2322624596
73,23,3,ISIP_8,147,9999,9999,9999,2323424320
73,23,3,ISIP_8,148,9999,9999,9999,2324224108
73,23,3,ISIP_8,149,9999,9999,9999,2325024884
73,24,5,ISIP_5,0,5,42,127,2349628732
73,24,5,ISIP_5,1,5,42,127,2350128452
73,24,5,ISIP_5,2,5,42,127,2350629364
73,24,5,ISIP_5,3,5,42,127,2351128908
73,24,5,ISIP_5,4,5,42,127,2351628552
73,24,5,ISIP_5,5,1,48,51,2351711652
73,24,5,ISIP_5,6,1,48,44,2352119976
73,24,5,ISIP_5,7,5,42,127,2352129656
73,24,5,ISIP_5,8,1,48,42,2352621768
73,24,5,ISIP_5,9,5,42,127,2352628980
73,24,5,ISIP_5,10,5,42,127,2353128760
73,24,5,ISIP_5,11,1,48,45,2353150056
73,24,5,ISIP_5,12,1,48,30,2353622500
73,24,5,ISIP_5,13,5,42,127,2353628668
73,24,5,ISIP_5,14,1,48,47,2354129268
73,24,5,ISIP_5,15,5,42,127,2354130456
73,24,5,ISIP_5,16,5,42,127,2354628964
73,24,5,ISIP_5,17,1,48,41,2354636568
73,24,5,ISIP_5,18,1,48,45,2355080068
73,24,5,ISIP_5,19,5,42,127,2355128652
73,24,5,ISIP_5,20,1,48,45,2355561436
73,24,5,ISIP_5,21,5,42,127,2355629468
73,24,5,ISIP_5,22,1,48,37,2356030768
73,24,5,ISIP_5,23,1,48,23,2356108760
73,24,5,ISIP_5,24,5,42,127,2356129288
73,24,5,ISIP_5,25,1,48,17,2356169044
73,24,5,ISIP_5,26,5,42,127,2356628820
73,24,5,ISIP_5,27,1,48,40,2356634180
73,24,5,ISIP_5,28,1,48,24,2356692796
73,24,5,ISIP_5,29,1,48,50,2357103464
73,24,5,ISIP_5,30,5,42,127,2357128636
73,24,5,ISIP_5,31,1,48,65,2357604584
73,24,5,ISIP_5,32,5,42,127,2357629376
73,24,5,ISIP_5,33,1,48,39,2357655892
73,24,5,ISIP_5,34,1,48,57,2358083164
73,24,5,ISIP_5,35,1,48,37,2358129256
73,24,5,ISIP_5,36,5,42,127,2358130444
73,24,5,ISIP_5,37,1,48,66,2358621288
73,24,5,ISIP_5,38,5,42,127,2358628652
73,24,5,ISIP_5,39,5,42,127,2359128576
73,24,5,ISIP_5,40,1,48,56,2359280016
73,24,5,ISIP_5,41,5,42,127,2359629316
73,24,5,ISIP_5,42,1,48,51,2359722936
73,24,5,ISIP_5,43,5,42,127,2360128860
73,24,5,ISIP_5,44,1,48,20,2360242080
73,24,5,ISIP_5,45,5,42,127,2360628556
73,24,5,ISIP_5,46,1,48,60,2360676404
73,24,5,ISIP_5,47,5,42,127,2361129448
73,24,5,ISIP_5,48,1,48,53,2361149548
73,24,5,ISIP_5,49,5,42,127,2361628892
73,24,5,ISIP_5,50,1,48,53,2361687612
73,24,5,ISIP_5,51,5,42,127,2362128664
73,24,5,ISIP_5,52,1,48,51,2362176236
73,24,5,ISIP_5,53,1,48,40,2362613728
73,24,5,ISIP_5,54,5,42,127,2362628576
73,24,5,ISIP_5,55,5,42,127,2363129248
73,24,5,ISIP_5,56,1,48,40,2363207188
73,24,5,ISIP_5,57,5,42,127,2363628872
73,24,5,ISIP_5,58,1,48,38,2363679188
73,24,5,ISIP_5,59,5,42,127,2364128616
73,24,5,ISIP_5,60,1,48,46,2364175936
73,24,5,ISIP_5,61,5,42,127,2364629280
73,24,5,ISIP_5,62,1,48,34,2364703456
73,24,5,ISIP_5,63,5,42,127,2365129252
73,24,5,ISIP_5,64,1,48,44,2365194224
73,24,5,ISIP_5,65,5,42,127,2365628796
73,24,5,ISIP_5,66,1,48,42,2365656448
73,24,5,ISIP_5,67,5,42,127,2366128416
73,24,5,ISIP_5,68,1,48,29,2366228848
73,24,5,ISIP_5,69,5,42,127,2366629308
73,24,5,ISIP_5,70,1,48,32,2366700868
73,24,5,ISIP_5,71,5,42,127,2367128856
73,24,5,ISIP_5,72,1,48,29,2367131596
73,24,5,ISIP_5,73,1,48,57,2367587964
73,24,5,ISIP_5,74,5,42,127,2367628616
73,24,5,ISIP_5,75,1,48,43,2368105164
73,24,5,ISIP_5,76,5,42,127,2368129360
73,24,5,ISIP_5,77,1,48,47,2368506028
73,24,5,ISIP_5,78,5,42,127,2368629188
73,24,5,ISIP_5,79,1,48,57,2368990612
73,24,5,ISIP_5,80,5,42,127,2369128880
73,24,5,ISIP_5,81,1,48,47,2369425376
73,24,5,ISIP_5,82,1,48,23,2369494768
73,24,5,ISIP_5,83,1,48,47,2369905004
73,24,5,ISIP_5,84,1,48,47,2370399608
73,24,5,ISIP_5,85,1,48,48,2370844296
73,24,5,ISIP_5,86,1,48,52,2371310852
73,24,5,ISIP_5,87,1,48,42,2371797152
73,24,5,ISIP_5,88,1,48,46,2372271784
73,24,5,ISIP_5,89,1,48,23,2372337584
73,24,5,ISIP_5,90,1,48,37,2372748188
73,24,5,ISIP_5,91,1,48,44,2373209884
73,24,5,ISIP_5,92,1,48,44,2373691172
73,24,5,ISIP_5,93,1,48,46,2374166156
73,24,5,ISIP_5,94,1,48,24,2374251428
73,24,5,ISIP_5,95,1,48,45,2374648768
73,24,5,ISIP_5,96,1,48,42,2375102524
73,24,5,ISIP_5,97,1,48,43,2375547088
73,24,5,ISIP_5,98,1,48,43,2375997936
73,24,5,ISIP_5,99,1,48,45,2376481544
73,24,5,ISIP_5,100,1,48,50,2376927504
73,24,5,ISIP_5,101,1,48,22,2376994152
73,24,5,ISIP_5,102,1,48,45,2377420364
73,24,5,ISIP_5,103,1,48,42,2377896344
73,24,5,ISIP_5,104,1,48,47,2378355048
73,24,5,ISIP_5,105,1,48,44,2378799984
73,24,5,ISIP_5,106,1,48,45,2379282372
73,24,5,ISIP_5,107,1,48,50,2379710932
73,24,5,ISIP_5,108,1,48,48,2380181224
73,24,5,ISIP_5,109,1,48,40,2380626300
73,24,5,ISIP_5,110,1,48,47,2381088148
73,24,5,ISIP_5,111,1,48,42,2381553552
73,24,5,ISIP_5,112,1,48,38,2381985624
73,24,5,ISIP_5,113,1,48,47,2382488456
73,24,5,ISIP_5,114,1,48,41,2382955836
73,24,5,ISIP_5,115,1,48,44,2383394564
73,24,5,ISIP_5,116,1,48,44,2383859376
73,24,5,ISIP_5,117,1,48,43,2384294812
73,24,5,ISIP_5,118,1,48,44,2384782164
73,24,5,ISIP_5,119,1,48,42,2385246256
73,24,5,ISIP_5,120,1,48,44,2385703680
73,24,5,ISIP_5,121,1,48,50,2386142684
73,24,5,ISIP_5,122,1,48,43,2386602940
73,24,5,ISIP_5,123,1,48,44,2387029856
73,24,5,ISIP_5,124,1,48,43,2387524984
73,24,5,ISIP_5,125,1,48,40,2387942820
73,24,5,ISIP_5,126,1,48,42,2388404960
73,24,5,ISIP_5,127,1,48,45,2388855360
73,24,5,ISIP_5,128,1,48,23,2388916148
73,24,5,ISIP_5,129,1,48,29,2389336852
73,24,5,ISIP_5,130,1,48,42,2389800788
73,24,5,ISIP_5,131,1,48,40,2390233736
73,24,5,ISIP_5,132,1,48,43,2390654664
73,24,5,ISIP_5,133,1,48,38,2391138428
73,24,5,ISIP_5,134,1,48,45,2391551016
73,24,5,ISIP_5,135,1,48,40,2391984656
73,24,5,ISIP_5,136,1,48,40,2392478292
73,24,5,ISIP_5,137,1,48,40,2392914848
73,24,5,ISIP_5,138,1,48,38,2393372712
73,24,5,ISIP_5,139,1,48,43,2393817868
73,24,5,ISIP_5,140,1,48,41,2394283528
73,24,5,ISIP_5,141,1,48,34,2394735652
73,24,5,ISIP_5,142,1,48,40,2395195920
73,24,5,ISIP_5,143,1,48,44,2395648836
73,24,5,ISIP_5,144,1,48,20,2396140520
73,24,5,ISIP_5,145,1,48,45,2396561592
73,24,5,ISIP_5,146,1,48,43,2397013852
73,24,5,ISIP_5,147,1,48,38,2397474352
73,24,5,ISIP_5,148,1,48,39,2397906920
73,24,5,ISIP_5,149,1,48,52,2398333240
73,24,5,ISIP_5,150,1,48,35,2398826344
73,24,5,ISIP_5,151,1,48,29,2399256752
73,24,5,ISIP_5,152,1,48,45,2399715076
73,24,5,ISIP_5,153,1,48,46,2400128748
73,24,5,ISIP_5,154,1,48,35,2400598284
73,24,5,ISIP_5,155,1,48,40,2401051800
73,24,5,ISIP_5,156,1,48,46,2401489408
73,24,5,ISIP_5,157,1,48,48,2401926344
73,24,5,ISIP_5,158,1,48,45,2402364552
73,24,5,ISIP_5,159,1,48,50,2402812304
73,24,5,ISIP_5,160,1,48,50,2403265772
73,24,5,ISIP_5,161,1,48,49,2403701360
73,24,5,ISIP_5,162,1,48,50,2404146376
73,24,5,ISIP_5,163,1,48,43,2404564424
73,24,5,ISIP_5,164,1,48,47,2405037488
73,24,5,ISIP_5,165,1,48,41,2405465964
73,24,5,ISIP_5,166,1,48,46,2405890168
73,24,5,ISIP_5,167,1,48,47,2406347968
73,24,5,ISIP_5,168,1,48,42,2406791632
73,24,5,ISIP_5,169,1,48,50,2407209200
73,24,5,ISIP_5,170,1,48,43,2407621480
73,24,5,ISIP_5,171,1,48,43,2408073604
73,24,5,ISIP_5,172,1,48,42,2408498348
73,24,5,ISIP_5,173,1,48,42,2408963456
73,24,5,ISIP_5,174,1,48,46,2409410936
73,24,5,ISIP_5,175,1,48,26,2409473968
73,24,5,ISIP_5,176,1,48,45,2409896244
73,24,5,ISIP_5,177,1,48,48,2410348508
73,24,5,ISIP_5,178,1,48,44,2410810732
73,24,5,ISIP_5,179,1,48,41,2411261180
73,24,5,ISIP_5,180,1,48,44,2411736412
73,24,5,ISIP_5,181,1,48,41,2412172376
73,24,5,ISIP_5,182,1,48,43,2412646412
73,24,5,ISIP_5,183,1,48,45,2413112580
73,24,5,ISIP_5,184,1,48,49,2413543504
73,24,5,ISIP_5,185,1,48,43,2413995920
73,24,5,ISIP_5,186,1,48,46,2414457016
73,24,5,ISIP_5,187,1,48,49,2414918712
73,24,5,ISIP_5,188,1,48,13,2415390728
73,24,5,ISIP_5,189,1,48,48,2415815588
73,24,5,ISIP_5,190,1,48,40,2416282972
73,24,5,ISIP_5,191,1,48,48,2416708012
73,24,5,ISIP_5,192,1,48,45,2417173648
73,24,5,ISIP_5,193,1,48,44,2417577356
73,24,5,ISIP_5,194,1,48,50,2418007708
73,24,5,ISIP_5,195,1,48,39,2418453068
73,24,5,ISIP_5,196,1,48,48,2418903396
73,24,5,ISIP_5,197,1,48,49,2419341380
73,24,5,ISIP_5,198,1,48,45,2419811072
73,24,5,ISIP_5,199,1,48,48,2420253920
73,24,5,ISIP_5,200,1,48,48,2420675416
73,24,5,ISIP_5,201,1,48,49,2421068732
73,24,5,ISIP_5,202,1,48,56,2421562440
73,24,5,ISIP_5,203,1,48,50,2422066320
73,24,5,ISIP_5,204,1,48,49,2422527908
73,24,5,ISIP_5,205,1,48,25,2422613260
73,24,5,ISIP_5,206,1,48,50,2423005664
73,24,5,ISIP_5,207,1,48,43,2423503040
73,24,5,ISIP_5,208,1,48,46,2423902352
73,24,5,ISIP_5,209,1,48,48,2424359256
73,24,5,ISIP_5,210,1,48,42,2424808956
73,24,5,ISIP_5,211,1,48,48,2425253220
73,24,5,ISIP_5,212,1,48,41,2425730768
73,24,5,ISIP_5,213,1,48,61,2426196652
73,24,5,ISIP_5,214,1,48,47,2426678164
73,24,5,ISIP_5,215,1,48,47,2427111920
73,24,5,ISIP_5,216,1,48,44,2427586476
73,24,5,ISIP_5,217,1,48,45,2428028796
73,24,5,ISIP_5,218,1,48,36,2428507624
73,24,5,ISIP_5,219,1,48,51,2428906456
73,24,5,ISIP_5,220,1,48,54,2429408620
73,24,5,ISIP_5,0,9999,9999,9999,2349626444
73,24,5,ISIP_5,1,9999,9999,9999,2350126164
73,24,5,ISIP_5,2,9999,9999,9999,2350626928
73,24,5,ISIP_5,3,9999,9999,9999,2351126620
73,24,5,ISIP_5,4,9999,9999,9999,2351626336
73,24,5,ISIP_5,5,9999,9999,9999,2352127072
73,24,5,ISIP_5,6,9999,9999,9999,2352626768
73,24,5,ISIP_5,7,9999,9999,9999,2353126468
73,24,5,ISIP_5,8,9999,9999,9999,2353626232
73,24,5,ISIP_5,9,9999,9999,9999,2354126904
73,24,5,ISIP_5,10,9999,9999,9999,2354626676
73,24,5,ISIP_5,11,9999,9999,9999,2355126360
73,24,5,ISIP_5,12,9999,9999,9999,2355627104
73,24,5,ISIP_5,13,9999,9999,9999,2356126776
73,24,5,ISIP_5,14,9999,9999,9999,2356626528
73,24,5,ISIP_5,15,9999,9999,9999,2357126196
73,24,5,ISIP_5,16,9999,9999,9999,2357626936
73,24,5,ISIP_5,17,9999,9999,9999,2358126688
73,24,5,ISIP_5,18,9999,9999,9999,2358626360
73,24,5,ISIP_5,19,9999,9999,9999,2359126136
73,24,5,ISIP_5,20,9999,9999,9999,2359626804
73,24,5,ISIP_5,21,9999,9999,9999,2360126572
73,24,5,ISIP_5,22,9999,9999,9999,2360626268
73,24,5,ISIP_5,23,9999,9999,9999,2361127008
73,24,5,ISIP_5,24,9999,9999,9999,2361626680
73,24,5,ISIP_5,25,9999,9999,9999,2362126448
73,24,5,ISIP_5,26,9999,9999,9999,2362626140
73,24,5,ISIP_5,27,9999,9999,9999,2363126888
73,24,5,ISIP_5,28,9999,9999,9999,2363626580
73,24,5,ISIP_5,29,9999,9999,9999,2364126324
73,24,5,ISIP_5,30,9999,9999,9999,2364626992
73,24,5,ISIP_5,31,9999,9999,9999,2365126740
73,24,5,ISIP_5,32,9999,9999,9999,2365626432
73,24,5,ISIP_5,33,9999,9999,9999,2366126128
73,24,5,ISIP_5,34,9999,9999,9999,2366626872
73,24,5,ISIP_5,35,9999,9999,9999,2367126640
73,24,5,ISIP_5,36,9999,9999,9999,2367626328
73,24,5,ISIP_5,37,9999,9999,9999,2368127068
73,24,5,ISIP_5,38,9999,9999,9999,2368626748
73,24,5,ISIP_5,39,9999,9999,9999,2369126516
73,24,5,ISIP_5,40,9999,9999,9999,2369626188
73,24,5,ISIP_5,41,9999,9999,9999,2370126928
73,24,5,ISIP_5,42,9999,9999,9999,2370626620
73,24,5,ISIP_5,43,9999,9999,9999,2371126384
73,24,5,ISIP_5,44,9999,9999,9999,2371627120
73,24,5,ISIP_5,45,9999,9999,9999,2372126808
73,24,5,ISIP_5,46,9999,9999,9999,2372626528
73,24,5,ISIP_5,47,9999,9999,9999,2373126220
73,24,5,ISIP_5,48,9999,9999,9999,2373626956
73,24,5,ISIP_5,49,9999,9999,9999,2374126648
73,24,5,ISIP_5,50,9999,9999,9999,2374626392
73,24,5,ISIP_5,51,9999,9999,9999,2375126076
73,24,5,ISIP_5,52,9999,9999,9999,2375626812
73,24,5,ISIP_5,53,9999,9999,9999,2376126560
73,24,5,ISIP_5,54,9999,9999,9999,2376626252
73,24,5,ISIP_5,55,9999,9999,9999,2377126968
73,24,5,ISIP_5,56,9999,9999,9999,2377626732
73,24,5,ISIP_5,57,9999,9999,9999,2378126424
73,24,5,ISIP_5,58,9999,9999,9999,2378626116
73,24,5,ISIP_5,59,9999,9999,9999,2379126852
73,24,5,ISIP_5,60,9999,9999,9999,2379626616
73,24,5,ISIP_5,61,9999,9999,9999,2380126308
73,24,5,ISIP_5,62,9999,9999,9999,2380627040
73,24,5,ISIP_5,63,9999,9999,9999,2381126732
73,24,5,ISIP_5,64,9999,9999,9999,2381626420
73,24,5,ISIP_5,65,9999,9999,9999,2382126172
73,24,5,ISIP_5,66,9999,9999,9999,2382626908
73,24,5,ISIP_5,67,9999,9999,9999,2383126648
73,24,5,ISIP_5,68,9999,9999,9999,2383626340
73,24,5,ISIP_5,69,9999,9999,9999,2384127076
73,24,5,ISIP_5,70,9999,9999,9999,2384626768
73,24,5,ISIP_5,71,9999,9999,9999,2385126460
73,24,5,ISIP_5,72,9999,9999,9999,2385626224
73,24,5,ISIP_5,73,9999,9999,9999,2386126960
73,24,5,ISIP_5,74,9999,9999,9999,2386626644
73,24,5,ISIP_5,75,9999,9999,9999,2387126336
73,24,5,ISIP_5,76,9999,9999,9999,2387627060
73,24,5,ISIP_5,77,9999,9999,9999,2388126820
73,24,5,ISIP_5,78,9999,9999,9999,2388626512
73,24,5,ISIP_5,79,9999,9999,9999,2389126260
73,24,5,ISIP_5,80,9999,9999,9999,2389626996
73,24,5,ISIP_5,81,9999,9999,9999,2390126688
73,24,5,ISIP_5,82,9999,9999,9999,2390626376
73,24,5,ISIP_5,83,9999,9999,9999,2391126068
73,24,5,ISIP_5,84,9999,9999,9999,2391626872
73,24,5,ISIP_5,85,9999,9999,9999,2392126548
73,24,5,ISIP_5,86,9999,9999,9999,2392626240
73,24,5,ISIP_5,87,9999,9999,9999,2393126980
73,24,5,ISIP_5,88,9999,9999,9999,2393626720
73,24,5,ISIP_5,89,9999,9999,9999,2394126412
73,24,5,ISIP_5,90,9999,9999,9999,2394626104
73,24,5,ISIP_5,91,9999,9999,9999,2395126840
73,24,5,ISIP_5,92,9999,9999,9999,2395626608
73,24,5,ISIP_5,93,9999,9999,9999,2396126296
73,24,5,ISIP_5,94,9999,9999,9999,2396627028
73,24,5,ISIP_5,95,9999,9999,9999,2397126776
73,24,5,ISIP_5,96,9999,9999,9999,2397626468
73,24,5,ISIP_5,97,9999,9999,9999,2398126160
73,24,5,ISIP_5,98,9999,9999,9999,2398626896
73,24,5,ISIP_5,99,9999,9999,9999,2399126584
73,24,5,ISIP_5,100,9999,9999,9999,2399626352
73,24,5,ISIP_5,101,9999,9999,9999,2400127088
73,24,5,ISIP_5,102,9999,9999,9999,2400626772
73,24,5,ISIP_5,103,9999,9999,9999,2401126464
73,24,5,ISIP_5,104,9999,9999,9999,2401626212
73,24,5,ISIP_5,105,9999,9999,9999,2402126948
73,24,5,ISIP_5,106,9999,9999,9999,2402626640
73,24,5,ISIP_5,107,9999,9999,9999,2403126332
73,24,5,ISIP_5,108,9999,9999,9999,2403627072
73,24,5,ISIP_5,109,9999,9999,9999,2404126836
73,24,5,ISIP_5,110,9999,9999,9999,2404626496
73,24,5,ISIP_5,111,9999,9999,9999,2405126260
73,24,5,ISIP_5,112,9999,9999,9999,2405626980
73,24,5,ISIP_5,113,9999,9999,9999,2406126672
73,24,5,ISIP_5,114,9999,9999,9999,2406626364
73,24,5,ISIP_5,115,9999,9999,9999,2407126128
73,24,5,ISIP_5,116,9999,9999,9999,2407626860
73,24,5,ISIP_5,117,9999,9999,9999,2408126548
73,24,5,ISIP_5,118,9999,9999,9999,2408626224
73,24,5,ISIP_5,119,9999,9999,9999,2409126964
73,24,5,ISIP_5,120,9999,9999,9999,2409626704
73,24,5,ISIP_5,121,9999,9999,9999,2410126396
73,24,5,ISIP_5,122,9999,9999,9999,2410626164
73,24,5,ISIP_5,123,9999,9999,9999,2411126900
73,24,5,ISIP_5,124,9999,9999,9999,2411626592
73,24,5,ISIP_5,125,9999,9999,9999,2412126280
73,24,5,ISIP_5,126,9999,9999,9999,2412627016
73,24,5,ISIP_5,127,9999,9999,9999,2413126704
73,24,5,ISIP_5,128,9999,9999,9999,2413626468
73,24,5,ISIP_5,129,9999,9999,9999,2414126144
73,24,5,ISIP_5,130,9999,9999,9999,2414626880
73,24,5,ISIP_5,131,9999,9999,9999,2415126620
73,24,5,ISIP_5,132,9999,9999,9999,2415626312
73,24,5,ISIP_5,133,9999,9999,9999,2416127048
73,24,5,ISIP_5,134,9999,9999,9999,2416626740
73,24,5,ISIP_5,135,9999,9999,9999,2417126504
73,24,5,ISIP_5,136,9999,9999,9999,2417626188
73,24,5,ISIP_5,137,9999,9999,9999,2418126912
73,24,5,ISIP_5,138,9999,9999,9999,2418626676
73,24,5,ISIP_5,139,9999,9999,9999,2419126364
73,24,5,ISIP_5,140,9999,9999,9999,2419627104
73,24,5,ISIP_5,141,9999,9999,9999,2420126792
73,24,5,ISIP_5,142,9999,9999,9999,2420626484
73,24,5,ISIP_5,143,9999,9999,9999,2421126244
73,24,5,ISIP_5,144,9999,9999,9999,2421626980
73,24,5,ISIP_5,145,9999,9999,9999,2422126672
73,24,5,ISIP_5,146,9999,9999,9999,2422626416
73,24,5,ISIP_5,147,9999,9999,9999,2423126088
73,24,5,ISIP_5,148,9999,9999,9999,2423626828
73,24,5,ISIP_5,149,9999,9999,9999,2424126516
73,24,5,ISIP_5,150,9999,9999,9999,2424626284
73,24,5,ISIP_5,151,9999,9999,9999,2425127020
73,24,5,ISIP_5,152,9999,9999,9999,2425626684
73,24,5,ISIP_5,153,9999,9999,9999,2426126452
73,24,5,ISIP_5,154,9999,9999,9999,2426626140
73,24,5,ISIP_5,155,9999,9999,9999,2427126872
73,24,5,ISIP_5,156,9999,9999,9999,2427626564
73,24,5,ISIP_5,157,9999,9999,9999,2428126328
73,24,5,ISIP_5,158,9999,9999,9999,2428627048
73,24,5,ISIP_5,159,9999,9999,9999,2429126740
73,25,11,Pattern_Practice,0,5,42,127,2556717436
73,25,11,Pattern_Practice,1,5,42,127,2557217076
73,25,11,Pattern_Practice,2,5,42,127,2557717236
73,25,11,Pattern_Practice,3,5,42,127,2558216708
73,25,11,Pattern_Practice,4,1,38,43,2558679956
73,25,11,Pattern_Practice,5,5,42,127,2558717464
73,25,11,Pattern_Practice,6,1,48,26,2559100292
73,25,11,Pattern_Practice,7,5,42,127,2559216992
73,25,11,Pattern_Practice,8,1,38,38,2559535660
73,25,11,Pattern_Practice,9,5,42,127,2559716764
73,25,11,Pattern_Practice,10,1,48,30,2559929940
73,25,11,Pattern_Practice,11,5,42,127,2560216532
73,25,11,Pattern_Practice,12,1,38,36,2560291408
73,25,11,Pattern_Practice,13,1,48,19,2560576840
73,25,11,Pattern_Practice,14,5,42,127,2560717100
73,25,11,Pattern_Practice,15,1,48,21,2560957424
73,25,11,Pattern_Practice,16,5,42,127,2561216796
73,25,11,Pattern_Practice,17,1,48,27,2561270180
73,25,11,Pattern_Practice,18,1,38,43,2561597072
73,25,11,Pattern_Practice,19,5,42,127,2561716544
73,25,11,Pattern_Practice,20,1,48,30,2561944832
73,25,11,Pattern_Practice,21,5,42,127,2562217284
73,25,11,Pattern_Practice,22,1,38,48,2562228336
73,25,11,Pattern_Practice,23,1,48,33,2562577768
73,25,11,Pattern_Practice,24,5,42,127,2562717156
73,25,11,Pattern_Practice,25,1,48,29,2562942896
73,25,11,Pattern_Practice,26,5,42,127,2563216852
73,25,11,Pattern_Practice,27,1,38,38,2563288116
73,25,11,Pattern_Practice,28,1,48,30,2563610144
73,25,11,Pattern_Practice,29,5,42,127,2563716376
73,25,11,Pattern_Practice,30,1,48,27,2563978248
73,25,11,Pattern_Practice,31,5,42,127,2564217412
73,25,11,Pattern_Practice,32,1,48,26,2564265784
73,25,11,Pattern_Practice,33,1,38,34,2564642644
73,25,11,Pattern_Practice,34,5,42,127,2564716880
73,25,11,Pattern_Practice,35,1,48,32,2564942828
73,25,11,Pattern_Practice,36,5,42,127,2565216484
73,25,11,Pattern_Practice,37,1,48,30,2565343248
73,25,11,Pattern_Practice,38,1,48,34,2565635260
73,25,11,Pattern_Practice,39,5,42,127,2565717368
73,25,11,Pattern_Practice,40,1,38,45,2565972936
73,25,11,Pattern_Practice,41,1,38,27,2566021688
73,25,11,Pattern_Practice,42,5,42,127,2566217028
73,25,11,Pattern_Practice,43,1,48,31,2566312072
73,25,11,Pattern_Practice,44,1,48,25,2566641784
73,25,11,Pattern_Practice,45,5,42,127,2566716640
73,25,11,Pattern_Practice,46,1,48,31,2566931196
73,25,11,Pattern_Practice,47,5,42,127,2567216468
73,25,11,Pattern_Practice,48,1,38,26,2567357288
73,25,11,Pattern_Practice,49,5,42,127,2567717284
73,25,11,Pattern_Practice,50,1,48,35,2567723768
73,25,11,Pattern_Practice,51,1,48,27,2568027452
73,25,11,Pattern_Practice,52,5,42,127,2568217108
73,25,11,Pattern_Practice,53,1,48,27,2568335420
73,25,11,Pattern_Practice,54,1,38,31,2568695120
73,25,11,Pattern_Practice,55,5,42,127,2568716696
73,25,11,Pattern_Practice,56,1,48,32,2569042156
73,25,11,Pattern_Practice,57,5,42,127,2569217572
73,25,11,Pattern_Practice,58,1,48,37,2569375024
73,25,11,Pattern_Practice,59,5,42,127,2569717040
73,25,11,Pattern_Practice,60,1,38,35,2569773592
73,25,11,Pattern_Practice,61,1,48,20,2570098292
73,25,11,Pattern_Practice,62,5,42,127,2570216788
73,25,11,Pattern_Practice,63,1,48,32,2570461456
73,25,11,Pattern_Practice,64,1,48,30,2570693032
73,25,11,Pattern_Practice,65,5,42,127,2570716552
73,25,11,Pattern_Practice,66,1,38,28,2571083148
73,25,11,Pattern_Practice,67,5,42,127,2571217428
73,25,11,Pattern_Practice,68,1,48,20,2571473760
73,25,11,Pattern_Practice,69,5,42,127,2571716900
73,25,11,Pattern_Practice,70,1,48,28,2571774916
73,25,11,Pattern_Practice,71,1,48,28,2571995352
73,25,11,Pattern_Practice,72,5,42,127,2572216644
73,25,11,Pattern_Practice,73,1,38,46,2572399228
73,25,11,Pattern_Practice,74,5,42,127,2572717464
73,25,11,Pattern_Practice,75,1,38,40,2572756336
73,25,11,Pattern_Practice,76,1,48,34,2573068544
73,25,11,Pattern_Practice,77,5,42,127,2573217356
73,25,11,Pattern_Practice,78,1,48,38,2573429264
73,25,11,Pattern_Practice,79,1,48,38,2573697640
73,25,11,Pattern_Practice,80,5,42,127,2573716972
73,25,11,Pattern_Practice,81,1,38,46,2574103616
73,25,11,Pattern_Practice,82,5,42,127,2574216504
73,25,11,Pattern_Practice,83,1,48,33,2574521156
73,25,11,Pattern_Practice,84,5,42,127,2574717444
73,25,11,Pattern_Practice,85,1,38,45,2574934288
73,25,11,Pattern_Practice,86,5,42,127,2575217288
73,25,11,Pattern_Practice,87,1,38,46,2575222056
73,25,11,Pattern_Practice,88,1,38,26,2575273196
73,25,11,Pattern_Practice,89,1,48,41,2575669052
73,25,11,Pattern_Practice,90,5,42,127,2575716808
73,25,11,Pattern_Practice,91,1,48,34,2575977088
73,25,11,Pattern_Practice,92,5,42,127,2576216412
73,25,11,Pattern_Practice,93,1,38,43,2576257308
73,25,11,Pattern_Practice,94,1,48,36,2576594492
73,25,11,Pattern_Practice,95,5,42,127,2576717356
73,25,11,Pattern_Practice,96,1,48,40,2576953792
73,25,11,Pattern_Practice,97,5,42,127,2577216752
73,25,11,Pattern_Practice,98,1,48,36,2577227276
73,25,11,Pattern_Practice,99,1,38,31,2577555188
73,25,11,Pattern_Practice,100,5,42,127,2577716720
73,25,11,Pattern_Practice,101,1,48,40,2577865924
73,25,11,Pattern_Practice,102,1,48,38,2578176408
73,25,11,Pattern_Practice,103,5,42,127,2578217456
73,25,11,Pattern_Practice,104,1,48,27,2578409124
73,25,11,Pattern_Practice,105,5,42,127,2578717208
73,25,11,Pattern_Practice,106,1,38,51,2578812552
73,25,11,Pattern_Practice,107,1,48,41,2579213624
73,25,11,Pattern_Practice,108,5,42,127,2579216800
73,25,11,Pattern_Practice,109,1,38,53,2579701724
73,25,11,Pattern_Practice,110,5,42,127,2579716420
73,25,11,Pattern_Practice,111,1,48,41,2580108144
73,25,11,Pattern_Practice,112,5,42,127,2580217292
73,25,11,Pattern_Practice,113,1,38,38,2580445432
73,25,11,Pattern_Practice,114,5,42,127,2580716840
73,25,11,Pattern_Practice,115,1,48,40,2580761348
73,25,11,Pattern_Practice,116,1,38,47,2581065032
73,25,11,Pattern_Practice,117,5,42,127,2581216588
73,25,11,Pattern_Practice,118,1,38,58,2581393188
73,25,11,Pattern_Practice,119,1,38,49,2581683332
73,25,11,Pattern_Practice,120,5,42,127,2581717472
73,25,11,Pattern_Practice,121,1,48,40,2582006776
73,25,11,Pattern_Practice,122,5,42,127,2582217300
73,25,11,Pattern_Practice,123,1,38,57,2582417164
73,25,11,Pattern_Practice,124,1,38,59,2582663404
73,25,11,Pattern_Practice,125,5,42,127,2582716840
73,25,11,Pattern_Practice,126,1,48,29,2583116496
73,25,11,Pattern_Practice,127,5,42,127,2583216520
73,25,11,Pattern_Practice,128,1,38,66,2583584928
73,25,11,Pattern_Practice,129,5,42,127,2583717188
73,25,11,Pattern_Practice,130,1,48,45,2584036576
73,25,11,Pattern_Practice,131,5,42,127,2584217028
73,25,11,Pattern_Practice,132,1,38,59,2584482268
73,25,11,Pattern_Practice,133,5,42,127,2584716576
73,25,11,Pattern_Practice,134,1,38,63,2584877916
73,25,11,Pattern_Practice,135,5,42,127,2585217468
73,25,11,Pattern_Practice,136,1,38,56,2585244520
73,25,11,Pattern_Practice,137,1,38,40,2585552172
73,25,11,Pattern_Practice,138,5,42,127,2585716992
73,25,11,Pattern_Practice,139,1,38,47,2585769032
73,25,11,Pattern_Practice,140,1,38,49,2585957296
73,25,11,Pattern_Practice,141,1,38,51,2586191344
73,25,11,Pattern_Practice,142,5,42,127,2586216808
73,25,11,Pattern_Practice,143,1,38,47,2586317300
73,25,11,Pattern_Practice,144,1,48,56,2586695808
73,25,11,Pattern_Practice,145,5,42,127,2586716408
73,25,11,Pattern_Practice,146,5,42,127,2587217228
73,25,11,Pattern_Practice,147,1,38,47,2587273680
73,25,11,Pattern_Practice,148,1,38,39,2587320104
73,25,11,Pattern_Practice,149,5,42,127,2587717052
73,25,11,Pattern_Practice,150,1,38,27,2587751516
73,25,11,Pattern_Practice,151,1,38,53,2588050032
73,25,11,Pattern_Practice,152,1,38,32,2588111344
73,25,11,Pattern_Practice,153,5,42,127,2588216628
73,25,11,Pattern_Practice,154,1,38,39,2588325436
73,25,11,Pattern_Practice,155,1,38,20,2588393328
73,25,11,Pattern_Practice,156,1,38,59,2588507700
73,25,11,Pattern_Practice,157,1,38,32,2588570356
73,25,11,Pattern_Practice,158,5,42,127,2588717528
73,25,11,Pattern_Practice,159,1,48,45,2588866952
73,25,11,Pattern_Practice,160,5,42,127,2589217148
73,25,11,Pattern_Practice,161,1,38,57,2589228276
73,25,11,Pattern_Practice,162,1,38,55,2589569132
73,25,11,Pattern_Practice,163,1,38,39,2589604936
73,25,11,Pattern_Practice,164,5,42,127,2589716948
73,25,11,Pattern_Practice,165,1,38,40,2589908560
73,25,11,Pattern_Practice,166,5,42,127,2590216544
73,25,11,Pattern_Practice,167,1,48,47,2590303160
73,25,11,Pattern_Practice,168,1,48,47,2590653520
73,25,11,Pattern_Practice,169,5,42,127,2590717356
73,25,11,Pattern_Practice,170,1,48,46,2590973600
73,25,11,Pattern_Practice,171,5,42,127,2591217032
73,25,11,Pattern_Practice,172,1,38,51,2591307612
73,25,11,Pattern_Practice,173,1,48,29,2591604712
73,25,11,Pattern_Practice,174,5,42,127,2591716856
73,25,11,Pattern_Practice,175,1,38,24,2591908864
73,25,11,Pattern_Practice,176,1,48,34,2592206864
73,25,11,Pattern_Practice,177,5,42,127,2592216544
73,25,11,Pattern_Practice,178,1,38,24,2592447356
73,25,11,Pattern_Practice,179,1,48,13,2592459384
73,25,11,Pattern_Practice,180,5,42,127,2592717148
73,25,11,Pattern_Practice,181,1,48,29,2592725728
73,25,11,Pattern_Practice,182,1,38,24,2592902104
73,25,11,Pattern_Practice,183,1,48,13,2592914124
73,25,11,Pattern_Practice,184,1,48,21,2593149640
73,25,11,Pattern_Practice,185,5,42,127,2593216916
73,25,11,Pattern_Practice,186,1,38,23,2593259216
73,25,11,Pattern_Practice,187,1,48,36,2593471196
73,25,11,Pattern_Practice,188,1,38,19,2593592820
73,25,11,Pattern_Practice,189,5,42,127,2593716776
73,25,11,Pattern_Practice,190,1,48,33,2593737472
73,25,11,Pattern_Practice,191,1,38,52,2594085460
73,25,11,Pattern_Practice,192,5,42,127,2594217420
73,25,11,Pattern_Practice,193,1,38,57,2594440844
73,25,11,Pattern_Practice,194,5,42,127,2594716968
73,25,11,Pattern_Practice,195,1,38,20,2594864620
73,25,11,Pattern_Practice,196,5,42,127,2595216960
73,25,11,Pattern_Practice,197,1,38,61,2595242668
73,25,11,Pattern_Practice,198,1,38,40,2595287824
73,25,11,Pattern_Practice,199,1,48,33,2595594424
73,25,11,Pattern_Practice,200,5,42,127,2595716384
73,25,11,Pattern_Practice,201,1,48,36,2595959776
73,25,11,Pattern_Practice,202,5,42,127,2596217052
73,25,11,Pattern_Practice,203,1,48,37,2596319056
73,25,11,Pattern_Practice,204,1,48,37,2596677212
73,25,11,Pattern_Practice,0,9999,9999,9999,2556715072
73,25,11,Pattern_Practice,1,9999,9999,9999,2557214788
73,25,11,Pattern_Practice,2,9999,9999,9999,2557714556
73,25,11,Pattern_Practice,3,9999,9999,9999,2558214196
73,25,11,Pattern_Practice,4,9999,9999,9999,2558714956
73,25,11,Pattern_Practice,5,9999,9999,9999,2559214708
73,25,11,Pattern_Practice,6,9999,9999,9999,2559714400
73,25,11,Pattern_Practice,7,9999,9999,9999,2560214096
73,25,11,Pattern_Practice,8,9999,9999,9999,2560714816
73,25,11,Pattern_Practice,9,9999,9999,9999,2561214584
73,25,11,Pattern_Practice,10,9999,9999,9999,2561714256
73,25,11,Pattern_Practice,11,9999,9999,9999,2562215000
73,25,11,Pattern_Practice,12,9999,9999,9999,2562714720
73,25,11,Pattern_Practice,13,9999,9999,9999,2563214416
73,25,11,Pattern_Practice,14,9999,9999,9999,2563714164
73,25,11,Pattern_Practice,15,9999,9999,9999,2564214904
73,25,11,Pattern_Practice,16,9999,9999,9999,2564714592
73,25,11,Pattern_Practice,17,9999,9999,9999,2565214272
73,25,11,Pattern_Practice,18,9999,9999,9999,2565715008
73,25,11,Pattern_Practice,19,9999,9999,9999,2566214740
73,25,11,Pattern_Practice,20,9999,9999,9999,2566714428
73,25,11,Pattern_Practice,21,9999,9999,9999,2567214184
73,25,11,Pattern_Practice,22,9999,9999,9999,2567714924
73,25,11,Pattern_Practice,23,9999,9999,9999,2568214596
73,25,11,Pattern_Practice,24,9999,9999,9999,2568714336
73,25,11,Pattern_Practice,25,9999,9999,9999,2569215060
73,25,11,Pattern_Practice,26,9999,9999,9999,2569714756
73,25,11,Pattern_Practice,27,9999,9999,9999,2570214504
73,25,11,Pattern_Practice,28,9999,9999,9999,2570714192
73,25,11,Pattern_Practice,29,9999,9999,9999,2571214916
73,25,11,Pattern_Practice,30,9999,9999,9999,2571714612
73,25,11,Pattern_Practice,31,9999,9999,9999,2572214360
73,25,11,Pattern_Practice,32,9999,9999,9999,2572715100
73,25,11,Pattern_Practice,33,9999,9999,9999,2573214772
73,25,11,Pattern_Practice,34,9999,9999,9999,2573714536
73,25,11,Pattern_Practice,35,9999,9999,9999,2574214216
73,25,11,Pattern_Practice,36,9999,9999,9999,2574714936
73,25,11,Pattern_Practice,37,9999,9999,9999,2575214704
73,25,11,Pattern_Practice,38,9999,9999,9999,2575714372
73,25,11,Pattern_Practice,39,9999,9999,9999,2576214124
73,25,11,Pattern_Practice,40,9999,9999,9999,2576714844
73,25,11,Pattern_Practice,41,9999,9999,9999,2577214540
73,25,11,Pattern_Practice,42,9999,9999,9999,2577714284
73,25,11,Pattern_Practice,43,9999,9999,9999,2578215020
73,25,11,Pattern_Practice,44,9999,9999,9999,2578714700
73,25,11,Pattern_Practice,45,9999,9999,9999,2579214440
73,25,11,Pattern_Practice,46,9999,9999,9999,2579714132
73,25,11,Pattern_Practice,47,9999,9999,9999,2580214860
73,25,11,Pattern_Practice,48,9999,9999,9999,2580714552
73,25,11,Pattern_Practice,49,9999,9999,9999,2581214304
73,25,11,Pattern_Practice,50,9999,9999,9999,2581715036
73,25,11,Pattern_Practice,51,9999,9999,9999,2582214716
73,25,11,Pattern_Practice,52,9999,9999,9999,2582714480
73,25,11,Pattern_Practice,53,9999,9999,9999,2583214160
73,25,11,Pattern_Practice,54,9999,9999,9999,2583714900
73,25,11,Pattern_Practice,55,9999,9999,9999,2584214596
73,25,11,Pattern_Practice,56,9999,9999,9999,2584714292
73,25,11,Pattern_Practice,57,9999,9999,9999,2585215032
73,25,11,Pattern_Practice,58,9999,9999,9999,2585714780
73,25,11,Pattern_Practice,59,9999,9999,9999,2586214524
73,25,11,Pattern_Practice,60,9999,9999,9999,2586714196
73,25,11,Pattern_Practice,61,9999,9999,9999,2587214944
73,25,11,Pattern_Practice,62,9999,9999,9999,2587714616
73,25,11,Pattern_Practice,63,9999,9999,9999,2588214340
73,25,11,Pattern_Practice,64,9999,9999,9999,2588715092
73,25,11,Pattern_Practice,65,9999,9999,9999,2589214788
73,25,11,Pattern_Practice,66,9999,9999,9999,2589714496
73,25,11,Pattern_Practice,67,9999,9999,9999,2590214260
73,25,11,Pattern_Practice,68,9999,9999,9999,2590714996
73,25,11,Pattern_Practice,69,9999,9999,9999,2591214672
73,25,11,Pattern_Practice,70,9999,9999,9999,2591714420
73,25,11,Pattern_Practice,71,9999,9999,9999,2592214112
73,25,11,Pattern_Practice,72,9999,9999,9999,2592714864
73,25,11,Pattern_Practice,73,9999,9999,9999,2593214556
73,25,11,Pattern_Practice,74,9999,9999,9999,2593714268
73,25,11,Pattern_Practice,75,9999,9999,9999,2594214988
73,25,11,Pattern_Practice,76,9999,9999,9999,2594714680
73,25,11,Pattern_Practice,77,9999,9999,9999,2595214448
73,25,11,Pattern_Practice,78,9999,9999,9999,2595714100
73,25,11,Pattern_Practice,79,9999,9999,9999,2596214840
73,26,13,Improv_Metronome,0,5,42,127,2632828204
73,26,13,Improv_Metronome,1,5,42,127,2633327924
73,26,13,Improv_Metronome,2,5,42,127,2633827712
73,26,13,Improv_Metronome,3,5,42,127,2634328552
73,26,13,Improv_Metronome,4,1,38,45,2634804368
73,26,13,Improv_Metronome,5,5,42,127,2634828036
73,26,13,Improv_Metronome,6,1,38,40,2635219664
73,26,13,Improv_Metronome,7,1,38,24,2635296108
73,26,13,Improv_Metronome,8,5,42,127,2635327932
73,26,13,Improv_Metronome,9,1,38,44,2635707068
73,26,13,Improv_Metronome,10,5,42,127,2635827536
73,26,13,Improv_Metronome,11,1,38,48,2636165848
73,26,13,Improv_Metronome,12,1,38,24,2636229032
73,26,13,Improv_Metronome,13,5,42,127,2636329156
73,26,13,Improv_Metronome,14,1,48,68,2636654524
73,26,13,Improv_Metronome,15,5,42,127,2636828100
73,26,13,Improv_Metronome,16,1,38,65,2637104928
73,26,13,Improv_Metronome,17,1,38,46,2637142004
73,26,13,Improv_Metronome,18,5,42,127,2637327600
73,26,13,Improv_Metronome,19,1,38,55,2637536288
73,26,13,Improv_Metronome,20,1,38,40,2637567828
73,26,13,Improv_Metronome,21,5,42,127,2637827348
73,26,13,Improv_Metronome,22,1,38,48,2637920328
73,26,13,Improv_Metronome,23,1,48,50,2638282420
73,26,13,Improv_Metronome,24,5,42,127,2638328156
73,26,13,Improv_Metronome,25,1,38,57,2638528300
73,26,13,Improv_Metronome,26,5,42,127,2638828136
73,26,13,Improv_Metronome,27,1,48,54,2638856984
73,26,13,Improv_Metronome,28,1,48,46,2639180364
73,26,13,Improv_Metronome,29,1,48,24,2639238684
73,26,13,Improv_Metronome,30,5,42,127,2639327576
73,26,13,Improv_Metronome,31,1,48,43,2639512240
73,26,13,Improv_Metronome,32,1,48,51,2639774860
73,26,13,Improv_Metronome,33,5,42,127,2639828296
73,26,13,Improv_Metronome,34,1,48,24,2639843444
73,26,13,Improv_Metronome,35,1,48,43,2640040312
73,26,13,Improv_Metronome,36,1,48,46,2640289320
73,26,13,Improv_Metronome,37,5,42,127,2640328020
73,26,13,Improv_Metronome,38,1,38,53,2640659088
73,26,13,Improv_Metronome,39,5,42,127,2640827924
73,26,13,Improv_Metronome,40,1,38,54,2641147836
73,26,13,Improv_Metronome,41,1,38,39,2641191820
73,26,13,Improv_Metronome,42,5,42,127,2641327376
73,26,13,Improv_Metronome,43,1,38,70,2641663072
73,26,13,Improv_Metronome,44,5,42,127,2641828116
73,26,13,Improv_Metronome,45,1,38,46,2642141144
73,26,13,Improv_Metronome,46,5,42,127,2642327960
73,26,13,Improv_Metronome,47,1,38,25,2642577564
73,26,13,Improv_Metronome,48,5,42,127,2642827508
73,26,13,Improv_Metronome,49,1,38,45,2643024300
73,26,13,Improv_Metronome,50,5,42,127,2643328328
73,26,13,Improv_Metronome,51,1,38,45,2643451196
73,26,13,Improv_Metronome,52,5,42,127,2643828096
73,26,13,Improv_Metronome,53,1,38,46,2643945276
73,26,13,Improv_Metronome,54,5,42,127,2644327788
73,26,13,Improv_Metronome,55,1,48,50,2644407504
73,26,13,Improv_Metronome,56,5,42,127,2644827484
73,26,13,Improv_Metronome,57,1,38,41,2644838380
73,26,13,Improv_Metronome,58,1,38,36,2645277248
73,26,13,Improv_Metronome,59,5,42,127,2645328220
73,26,13,Improv_Metronome,60,1,38,25,2645730620
73,26,13,Improv_Metronome,61,5,42,127,2645827916
73,26,13,Improv_Metronome,62,1,38,38,2646105848
73,26,13,Improv_Metronome,63,5,42,127,2646327592
73,26,13,Improv_Metronome,64,1,38,26,2646475968
73,26,13,Improv_Metronome,65,5,42,127,2646828260
73,26,13,Improv_Metronome,66,1,48,56,2646891964
73,26,13,Improv_Metronome,67,1,38,62,2647320660
73,26,13,Improv_Metronome,68,5,42,127,2647328244
73,26,13,Improv_Metronome,69,1,38,51,2647759892
73,26,13,Improv_Metronome,70,1,38,43,2647796144
73,26,13,Improv_Metronome,71,5,42,127,2647827768
73,26,13,Improv_Metronome,72,1,38,51,2648214984
73,26,13,Improv_Metronome,73,1,38,37,2648262084
73,26,13,Improv_Metronome,74,5,42,127,2648327492
73,26,13,Improv_Metronome,75,1,38,34,2648609940
73,26,13,Improv_Metronome,76,5,42,127,2648828140
73,26,13,Improv_Metronome,77,1,48,62,2649054780
73,26,13,Improv_Metronome,78,5,42,127,2649327912
73,26,13,Improv_Metronome,79,1,38,47,2649461724
73,26,13,Improv_Metronome,80,1,38,27,2649514064
73,26,13,Improv_Metronome,81,5,42,127,2649828104
73,26,13,Improv_Metronome,82,1,38,44,2649884428
73,26,13,Improv_Metronome,83,1,38,49,2650261716
73,26,13,Improv_Metronome,84,5,42,127,2650328396
73,26,13,Improv_Metronome,85,1,38,46,2650600196
73,26,13,Improv_Metronome,86,1,38,32,2650649796
73,26,13,Improv_Metronome,87,5,42,127,2650828052
73,26,13,Improv_Metronome,88,1,48,59,2651058880
73,26,13,Improv_Metronome,89,5,42,127,2651328044
73,26,13,Improv_Metronome,90,1,38,60,2651440620
73,26,13,Improv_Metronome,91,5,42,127,2651827740
73,26,13,Improv_Metronome,92,1,38,42,2651858832
73,26,13,Improv_Metronome,93,1,38,30,2652236736
73,26,13,Improv_Metronome,94,5,42,127,2652328252
73,26,13,Improv_Metronome,95,1,38,40,2652597288
73,26,13,Improv_Metronome,96,1,38,33,2652640120
73,26,13,Improv_Metronome,97,5,42,127,2652828060
73,26,13,Improv_Metronome,98,1,48,50,2653080656
73,26,13,Improv_Metronome,99,5,42,127,2653327904
73,26,13,Improv_Metronome,100,1,38,57,2653499644
73,26,13,Improv_Metronome,101,5,42,127,2653827376
73,26,13,Improv_Metronome,102,1,38,55,2653902224
73,26,13,Improv_Metronome,103,1,38,44,2654324556
73,26,13,Improv_Metronome,104,5,42,127,2654328184
73,26,13,Improv_Metronome,105,1,38,48,2654680172
73,26,13,Improv_Metronome,106,1,38,37,2654711112
73,26,13,Improv_Metronome,107,5,42,127,2654827840
73,26,13,Improv_Metronome,108,1,38,51,2655116636
73,26,13,Improv_Metronome,109,5,42,127,2655327908
73,26,13,Improv_Metronome,110,1,48,60,2655520292
73,26,13,Improv_Metronome,111,5,42,127,2655828424
73,26,13,Improv_Metronome,112,1,38,49,2655899532
73,26,13,Improv_Metronome,113,5,42,127,2656327972
73,26,13,Improv_Metronome,114,1,38,54,2656344256
73,26,13,Improv_Metronome,115,1,38,48,2656713456
73,26,13,Improv_Metronome,116,5,42,127,2656827864
73,26,13,Improv_Metronome,117,1,38,70,2657088164
73,26,13,Improv_Metronome,118,1,38,40,2657127936
73,26,13,Improv_Metronome,119,5,42,127,2657327316
73,26,13,Improv_Metronome,120,1,38,53,2657481900
73,26,13,Improv_Metronome,121,1,38,35,2657519728
73,26,13,Improv_Metronome,122,5,42,127,2657828260
73,26,13,Improv_Metronome,123,1,48,43,2657887704
73,26,13,Improv_Metronome,124,1,48,53,2658324700
73,26,13,Improv_Metronome,125,5,42,127,2658327876
73,26,13,Improv_Metronome,126,1,48,54,2658754204
73,26,13,Improv_Metronome,127,5,42,127,2658827916
73,26,13,Improv_Metronome,128,1,48,51,2659169680
73,26,13,Improv_Metronome,129,1,48,33,2659226352
73,26,13,Improv_Metronome,130,5,42,127,2659328324
73,26,13,Improv_Metronome,131,1,48,51,2659635248
73,26,13,Improv_Metronome,132,5,42,127,2659827944
73,26,13,Improv_Metronome,133,1,48,40,2660075296
73,26,13,Improv_Metronome,134,5,42,127,2660327788
73,26,13,Improv_Metronome,135,1,48,40,2660502668
73,26,13,Improv_Metronome,136,5,42,127,2660827704
73,26,13,Improv_Metronome,137,1,48,50,2661016944
73,26,13,Improv_Metronome,138,5,42,127,2661328296
73,26,13,Improv_Metronome,139,1,48,48,2661384068
73,26,13,Improv_Metronome,140,1,38,51,2661712832
73,26,13,Improv_Metronome,141,5,42,127,2661827896
73,26,13,Improv_Metronome,142,1,38,49,2661999036
73,26,13,Improv_Metronome,143,5,42,127,2662327736
73,26,13,Improv_Metronome,144,1,38,53,2662378504
73,26,13,Improv_Metronome,145,1,38,55,2662741896
73,26,13,Improv_Metronome,146,1,38,40,2662774636
73,26,13,Improv_Metronome,147,5,42,127,2662828528
73,26,13,Improv_Metronome,148,1,38,55,2663147528
73,26,13,Improv_Metronome,149,5,42,127,2663328056
73,26,13,Improv_Metronome,150,1,38,60,2663550136
73,26,13,Improv_Metronome,151,5,42,127,2663827752
73,26,13,Improv_Metronome,152,1,48,55,2663952744
73,26,13,Improv_Metronome,153,1,38,51,2664312520
73,26,13,Improv_Metronome,154,5,42,127,2664327740
73,26,13,Improv_Metronome,155,1,38,46,2664669256
73,26,13,Improv_Metronome,156,5,42,127,2664828316
73,26,13,Improv_Metronome,157,1,38,43,2664990552
73,26,13,Improv_Metronome,158,5,42,127,2665327936
73,26,13,Improv_Metronome,159,1,38,54,2665347216
73,26,13,Improv_Metronome,160,1,38,52,2665632568
73,26,13,Improv_Metronome,161,5,42,127,2665827688
73,26,13,Improv_Metronome,162,1,48,65,2666087908
73,26,13,Improv_Metronome,163,5,42,127,2666328504
73,26,13,Improv_Metronome,164,1,38,57,2666482864
73,26,13,Improv_Metronome,165,5,42,127,2666828124
73,26,13,Improv_Metronome,166,1,38,57,2666871556
73,26,13,Improv_Metronome,167,1,38,70,2667267688
73,26,13,Improv_Metronome,168,5,42,127,2667327736
73,26,13,Improv_Metronome,169,1,38,77,2667631028
73,26,13,Improv_Metronome,170,5,42,127,2667827640
73,26,13,Improv_Metronome,171,1,38,71,2667979528
73,26,13,Improv_Metronome,172,1,38,26,2668043012
73,26,13,Improv_Metronome,173,5,42,127,2668328584
73,26,13,Improv_Metronome,174,1,48,65,2668387124
73,26,13,Improv_Metronome,175,1,38,61,2668736960
73,26,13,Improv_Metronome,176,5,42,127,2668827972
73,26,13,Improv_Metronome,177,1,48,41,2669134704
73,26,13,Improv_Metronome,178,5,42,127,2669327652
73,26,13,Improv_Metronome,179,1,38,56,2669473036
73,26,13,Improv_Metronome,180,5,42,127,2669827620
73,26,13,Improv_Metronome,181,1,48,47,2669830740
73,26,13,Improv_Metronome,182,1,38,60,2670148508
73,26,13,Improv_Metronome,183,1,38,35,2670193964
73,26,13,Improv_Metronome,184,5,42,127,2670328244
73,26,13,Improv_Metronome,185,1,48,48,2670510752
73,26,13,Improv_Metronome,186,1,48,41,2670806136
73,26,13,Improv_Metronome,187,5,42,127,2670827860
73,26,13,Improv_Metronome,188,1,38,52,2671154588
73,26,13,Improv_Metronome,189,1,38,35,2671189644
73,26,13,Improv_Metronome,190,5,42,127,2671327592
73,26,13,Improv_Metronome,191,1,48,62,2671555728
73,26,13,Improv_Metronome,192,1,48,30,2671617784
73,26,13,Improv_Metronome,193,5,42,127,2671828460
73,26,13,Improv_Metronome,194,1,48,49,2671864488
73,26,13,Improv_Metronome,195,1,38,48,2672225936
73,26,13,Improv_Metronome,196,5,42,127,2672328132
73,26,13,Improv_Metronome,197,1,38,48,2672566364
73,26,13,Improv_Metronome,198,5,42,127,2672827676
73,26,13,Improv_Metronome,199,1,38,51,2672914964
73,26,13,Improv_Metronome,200,5,42,127,2673327520
73,26,13,Improv_Metronome,201,1,38,59,2673336772
73,26,13,Improv_Metronome,202,1,38,56,2673643220
73,26,13,Improv_Metronome,203,5,42,127,2673828164
73,26,13,Improv_Metronome,204,1,48,72,2673970880
73,26,13,Improv_Metronome,205,5,42,127,2674327860
73,26,13,Improv_Metronome,206,1,38,55,2674355584
73,26,13,Improv_Metronome,207,1,38,53,2674722716
73,26,13,Improv_Metronome,208,5,42,127,2674827608
73,26,13,Improv_Metronome,209,1,38,52,2675057088
73,26,13,Improv_Metronome,210,5,42,127,2675328644
73,26,13,Improv_Metronome,211,1,38,47,2675342984
73,26,13,Improv_Metronome,212,1,38,47,2675731284
73,26,13,Improv_Metronome,213,5,42,127,2675827944
73,26,13,Improv_Metronome,214,1,48,71,2676083156
73,26,13,Improv_Metronome,215,5,42,127,2676327788
73,26,13,Improv_Metronome,216,1,38,42,2676506480
73,26,13,Improv_Metronome,217,5,42,127,2676827408
73,26,13,Improv_Metronome,218,1,38,51,2676840628
73,26,13,Improv_Metronome,219,1,38,47,2677158816
73,26,13,Improv_Metronome,220,5,42,127,2677328500
73,26,13,Improv_Metronome,221,1,38,51,2677495952
73,26,13,Improv_Metronome,222,5,42,127,2677827900
73,26,13,Improv_Metronome,223,1,38,63,2677893324
73,26,13,Improv_Metronome,224,1,38,61,2678178832
73,26,13,Improv_Metronome,225,5,42,127,2678327644
73,26,13,Improv_Metronome,226,1,48,53,2678581208
73,26,13,Improv_Metronome,227,5,42,127,2678828612
73,26,13,Improv_Metronome,228,1,38,52,2678880428
73,26,13,Improv_Metronome,229,1,48,21,2679228380
73,26,13,Improv_Metronome,230,1,48,34,2679232924
73,26,13,Improv_Metronome,231,1,38,13,2679235824
73,26,13,Improv_Metronome,232,5,42,127,2679328536
73,26,13,Improv_Metronome,233,1,38,32,2679530156
73,26,13,Improv_Metronome,234,5,42,127,2679827696
73,26,13,Improv_Metronome,235,1,38,49,2679861708
73,26,13,Improv_Metronome,236,1,48,75,2680182440
73,26,13,Improv_Metronome,237,5,42,127,2680327492
73,26,13,Improv_Metronome,238,1,48,43,2680462360
73,26,13,Improv_Metronome,239,1,48,54,2680788328
73,26,13,Improv_Metronome,240,5,42,127,2680828452
73,26,13,Improv_Metronome,241,1,48,54,2681146204
73,26,13,Improv_Metronome,242,5,42,127,2681327984
73,26,13,Improv_Metronome,243,1,38,58,2681497104
73,26,13,Improv_Metronome,244,5,42,127,2681827680
73,26,13,Improv_Metronome,245,1,38,69,2681888868
73,26,13,Improv_Metronome,246,1,38,62,2682245356
73,26,13,Improv_Metronome,247,5,42,127,2682328488
73,26,13,Improv_Metronome,248,1,38,42,2682630132
73,26,13,Improv_Metronome,249,5,42,127,2682828316
73,26,13,Improv_Metronome,250,1,38,29,2682987640
73,26,13,Improv_Metronome,251,5,42,127,2683327712
73,26,13,Improv_Metronome,252,1,38,52,2683329272
73,26,13,Improv_Metronome,253,1,38,75,2683716740
73,26,13,Improv_Metronome,254,5,42,127,2683827608
73,26,13,Improv_Metronome,255,1,38,68,2684053348
73,26,13,Improv_Metronome,256,5,42,127,2684328424
73,26,13,Improv_Metronome,257,1,38,31,2684434188
73,26,13,Improv_Metronome,258,1,48,54,2684798680
73,26,13,Improv_Metronome,259,5,42,127,2684827888
73,26,13,Improv_Metronome,260,1,48,18,2685137536
73,26,13,Improv_Metronome,261,5,42,127,2685327644
73,26,13,Improv_Metronome,262,1,38,57,2685529152
73,26,13,Improv_Metronome,263,5,42,127,2685827412
73,26,13,Improv_Metronome,264,1,38,25,2685851176
73,26,13,Improv_Metronome,265,1,38,70,2686155832
73,26,13,Improv_Metronome,266,1,38,42,2686196200
73,26,13,Improv_Metronome,267,5,42,127,2686328408
73,26,13,Improv_Metronome,268,1,48,66,2686483916
73,26,13,Improv_Metronome,269,1,38,54,2686819616
73,26,13,Improv_Metronome,270,5,42,127,2686828468
73,26,13,Improv_Metronome,271,1,38,56,2687146052
73,26,13,Improv_Metronome,272,5,42,127,2687327552
73,26,13,Improv_Metronome,273,1,38,37,2687430976
73,26,13,Improv_Metronome,274,1,38,36,2687533748
73,26,13,Improv_Metronome,275,5,42,127,2687828344
73,26,13,Improv_Metronome,276,1,48,59,2687910452
73,26,13,Improv_Metronome,277,1,38,47,2688251680
73,26,13,Improv_Metronome,278,5,42,127,2688328256
73,26,13,Improv_Metronome,279,1,38,39,2688600284
73,26,13,Improv_Metronome,280,1,38,39,2688673708
73,26,13,Improv_Metronome,281,5,42,127,2688827840
73,26,13,Improv_Metronome,282,1,38,41,2688927668
73,26,13,Improv_Metronome,283,1,38,42,2689290448
73,26,13,Improv_Metronome,284,5,42,127,2689327528
73,26,13,Improv_Metronome,285,1,38,58,2689655132
73,26,13,Improv_Metronome,286,5,42,127,2689828256
73,26,13,Improv_Metronome,287,1,38,58,2690017624
73,26,13,Improv_Metronome,288,5,42,127,2690328176
73,26,13,Improv_Metronome,289,1,38,44,2690333536
73,26,13,Improv_Metronome,290,1,38,50,2690379068
73,26,13,Improv_Metronome,291,1,38,48,2690692696
73,26,13,Improv_Metronome,292,5,42,127,2690827504
73,26,13,Improv_Metronome,293,1,38,46,2691051272
73,26,13,Improv_Metronome,294,5,42,127,2691328368
73,26,13,Improv_Metronome,295,1,38,51,2691414464
73,26,13,Improv_Metronome,296,1,38,51,2691777160
73,26,13,Improv_Metronome,297,5,42,127,2691828132
73,26,13,Improv_Metronome,298,1,38,62,2692143192
73,26,13,Improv_Metronome,299,5,42,127,2692327812
73,26,13,Improv_Metronome,300,1,48,67,2692486832
73,26,13,Improv_Metronome,301,5,42,127,2692827432
73,26,13,Improv_Metronome,302,1,38,72,2692857696
73,26,13,Improv_Metronome,303,1,48,86,2693240172
73,26,13,Improv_Metronome,304,5,42,127,2693328168
73,26,13,Improv_Metronome,305,1,38,58,2693540576
73,26,13,Improv_Metronome,306,1,38,43,2693573612
73,26,13,Improv_Metronome,307,5,42,127,2693827972
73,26,13,Improv_Metronome,308,1,38,49,2693870436
73,26,13,Improv_Metronome,309,1,38,61,2694211768
73,26,13,Improv_Metronome,310,5,42,127,2694327648
73,26,13,Improv_Metronome,311,1,38,58,2694568496
73,26,13,Improv_Metronome,312,5,42,127,2694828464
73,26,13,Improv_Metronome,313,1,48,67,2694970132
73,26,13,Improv_Metronome,314,1,38,48,2695325648
73,26,13,Improv_Metronome,315,5,42,127,2695328228
73,26,13,Improv_Metronome,316,1,38,53,2695775532
73,26,13,Improv_Metronome,317,5,42,127,2695828000
73,26,13,Improv_Metronome,318,1,38,55,2696166072
73,26,13,Improv_Metronome,319,5,42,127,2696327532
73,26,13,Improv_Metronome,320,1,38,67,2696619988
73,26,13,Improv_Metronome,321,1,38,45,2696655200
73,26,13,Improv_Metronome,322,5,42,127,2696828248
73,26,13,Improv_Metronome,323,1,38,54,2697131780
73,26,13,Improv_Metronome,324,5,42,127,2697327944
73,26,13,Improv_Metronome,325,1,48,62,2697622348
73,26,13,Improv_Metronome,326,5,42,127,2697827788
73,26,13,Improv_Metronome,327,1,38,67,2698052108
73,26,13,Improv_Metronome,328,5,42,127,2698328532
73,26,13,Improv_Metronome,329,1,38,67,2698423724
73,26,13,Improv_Metronome,330,1,38,46,2698457292
73,26,13,Improv_Metronome,331,1,38,55,2698770796
73,26,13,Improv_Metronome,332,5,42,127,2698828124
73,26,13,Improv_Metronome,333,1,38,51,2699113984
73,26,13,Improv_Metronome,334,5,42,127,2699327876
73,26,13,Improv_Metronome,335,1,38,47,2699537688
73,26,13,Improv_Metronome,336,5,42,127,2699827424
73,26,13,Improv_Metronome,337,1,48,50,2699908556
73,26,13,Improv_Metronome,338,1,38,52,2700291596
73,26,13,Improv_Metronome,339,5,42,127,2700328232
73,26,13,Improv_Metronome,340,1,38,49,2700662940
73,26,13,Improv_Metronome,341,5,42,127,2700828060
73,26,13,Improv_Metronome,342,1,38,50,2700989604
73,26,13,Improv_Metronome,343,5,42,127,2701327828
73,26,13,Improv_Metronome,344,1,48,55,2701351516
73,26,13,Improv_Metronome,345,1,38,49,2701682276
73,26,13,Improv_Metronome,346,5,42,127,2701827552
73,26,13,Improv_Metronome,347,1,38,49,2701978724
73,26,13,Improv_Metronome,348,5,42,127,2702328144
73,26,13,Improv_Metronome,349,1,48,58,2702388956
73,26,13,Improv_Metronome,350,1,38,57,2702735344
73,26,13,Improv_Metronome,0,9999,9999,9999,2632825916
73,26,13,Improv_Metronome,1,9999,9999,9999,2633325636
73,26,13,Improv_Metronome,2,9999,9999,9999,2633825352
73,26,13,Improv_Metronome,3,9999,9999,9999,2634326112
73,26,13,Improv_Metronome,4,9999,9999,9999,2634825824
73,26,13,Improv_Metronome,5,9999,9999,9999,2635325496
73,26,13,Improv_Metronome,6,9999,9999,9999,2635825248
73,26,13,Improv_Metronome,7,9999,9999,9999,2636325984
73,26,13,Improv_Metronome,8,9999,9999,9999,2636825664
73,26,13,Improv_Metronome,9,9999,9999,9999,2637325388
73,26,13,Improv_Metronome,10,9999,9999,9999,2637825136
73,26,13,Improv_Metronome,11,9999,9999,9999,2638325868
73,26,13,Improv_Metronome,12,9999,9999,9999,2638825548
73,26,13,Improv_Metronome,13,9999,9999,9999,2639325288
73,26,13,Improv_Metronome,14,9999,9999,9999,2639826008
73,26,13,Improv_Metronome,15,9999,9999,9999,2640325736
73,26,13,Improv_Metronome,16,9999,9999,9999,2640825416
73,26,13,Improv_Metronome,17,9999,9999,9999,2641325164
73,26,13,Improv_Metronome,18,9999,9999,9999,2641825904
73,26,13,Improv_Metronome,19,9999,9999,9999,2642325596
73,26,13,Improv_Metronome,20,9999,9999,9999,2642825296
73,26,13,Improv_Metronome,21,9999,9999,9999,2643326036
73,26,13,Improv_Metronome,22,9999,9999,9999,2643825732
73,26,13,Improv_Metronome,23,9999,9999,9999,2644325428
73,26,13,Improv_Metronome,24,9999,9999,9999,2644825196
73,26,13,Improv_Metronome,25,9999,9999,9999,2645325932
73,26,13,Improv_Metronome,26,9999,9999,9999,2645825628
73,26,13,Improv_Metronome,27,9999,9999,9999,2646325304
73,26,13,Improv_Metronome,28,9999,9999,9999,2646826048
73,26,13,Improv_Metronome,29,9999,9999,9999,2647325808
73,26,13,Improv_Metronome,30,9999,9999,9999,2647825480
73,26,13,Improv_Metronome,31,9999,9999,9999,2648325204
73,26,13,Improv_Metronome,32,9999,9999,9999,2648825928
73,26,13,Improv_Metronome,33,9999,9999,9999,2649325624
73,26,13,Improv_Metronome,34,9999,9999,9999,2649825372
73,26,13,Improv_Metronome,35,9999,9999,9999,2650326104
73,26,13,Improv_Metronome,36,9999,9999,9999,2650825840
73,26,13,Improv_Metronome,37,9999,9999,9999,2651325532
73,26,13,Improv_Metronome,38,9999,9999,9999,2651825228
73,26,13,Improv_Metronome,39,9999,9999,9999,2652325964
73,26,13,Improv_Metronome,40,9999,9999,9999,2652825696
73,26,13,Improv_Metronome,41,9999,9999,9999,2653325392
73,26,13,Improv_Metronome,42,9999,9999,9999,2653825088
73,26,13,Improv_Metronome,43,9999,9999,9999,2654325820
73,26,13,Improv_Metronome,44,9999,9999,9999,2654825552
73,26,13,Improv_Metronome,45,9999,9999,9999,2655325248
73,26,13,Improv_Metronome,46,9999,9999,9999,2655825988
73,26,13,Improv_Metronome,47,9999,9999,9999,2656325684
73,26,13,Improv_Metronome,48,9999,9999,9999,2656825428
73,26,13,Improv_Metronome,49,9999,9999,9999,2657325104
73,26,13,Improv_Metronome,50,9999,9999,9999,2657825900
73,26,13,Improv_Metronome,51,9999,9999,9999,2658325588
73,26,13,Improv_Metronome,52,9999,9999,9999,2658825332
73,26,13,Improv_Metronome,53,9999,9999,9999,2659326036
73,26,13,Improv_Metronome,54,9999,9999,9999,2659825728
73,26,13,Improv_Metronome,55,9999,9999,9999,2660325424
73,26,13,Improv_Metronome,56,9999,9999,9999,2660825192
73,26,13,Improv_Metronome,57,9999,9999,9999,2661325936
73,26,13,Improv_Metronome,58,9999,9999,9999,2661825608
73,26,13,Improv_Metronome,59,9999,9999,9999,2662325300
73,26,13,Improv_Metronome,60,9999,9999,9999,2662826088
73,26,13,Improv_Metronome,61,9999,9999,9999,2663325768
73,26,13,Improv_Metronome,62,9999,9999,9999,2663825464
73,26,13,Improv_Metronome,63,9999,9999,9999,2664325228
73,26,13,Improv_Metronome,64,9999,9999,9999,2664825956
73,26,13,Improv_Metronome,65,9999,9999,9999,2665325652
73,26,13,Improv_Metronome,66,9999,9999,9999,2665825400
73,26,13,Improv_Metronome,67,9999,9999,9999,2666326064
73,26,13,Improv_Metronome,68,9999,9999,9999,2666825832
73,26,13,Improv_Metronome,69,9999,9999,9999,2667325520
73,26,13,Improv_Metronome,70,9999,9999,9999,2667825204
73,26,13,Improv_Metronome,71,9999,9999,9999,2668325996
73,26,13,Improv_Metronome,72,9999,9999,9999,2668825684
73,26,13,Improv_Metronome,73,9999,9999,9999,2669325416
73,26,13,Improv_Metronome,74,9999,9999,9999,2669825108
73,26,13,Improv_Metronome,75,9999,9999,9999,2670325808
73,26,13,Improv_Metronome,76,9999,9999,9999,2670825572
73,26,13,Improv_Metronome,77,9999,9999,9999,2671325304
73,26,13,Improv_Metronome,78,9999,9999,9999,2671826020
73,26,13,Improv_Metronome,79,9999,9999,9999,2672325696
73,26,13,Improv_Metronome,80,9999,9999,9999,2672825460
73,26,13,Improv_Metronome,81,9999,9999,9999,2673325156
73,26,13,Improv_Metronome,82,9999,9999,9999,2673825876
73,26,13,Improv_Metronome,83,9999,9999,9999,2674325572
73,26,13,Improv_Metronome,84,9999,9999,9999,2674825316
73,26,13,Improv_Metronome,85,9999,9999,9999,2675326060
73,26,13,Improv_Metronome,86,9999,9999,9999,2675825732
73,26,13,Improv_Metronome,87,9999,9999,9999,2676325428
73,26,13,Improv_Metronome,88,9999,9999,9999,2676825196
73,26,13,Improv_Metronome,89,9999,9999,9999,2677325916
73,26,13,Improv_Metronome,90,9999,9999,9999,2677825612
73,26,13,Improv_Metronome,91,9999,9999,9999,2678325356
73,26,13,Improv_Metronome,92,9999,9999,9999,2678826100
73,26,13,Improv_Metronome,93,9999,9999,9999,2679325804
73,26,13,Improv_Metronome,94,9999,9999,9999,2679825484
73,26,13,Improv_Metronome,95,9999,9999,9999,2680325204
73,26,13,Improv_Metronome,96,9999,9999,9999,2680825940
73,26,13,Improv_Metronome,97,9999,9999,9999,2681325620
73,26,13,Improv_Metronome,98,9999,9999,9999,2681825392
73,26,13,Improv_Metronome,99,9999,9999,9999,2682326124
73,26,13,Improv_Metronome,100,9999,9999,9999,2682825804
73,26,13,Improv_Metronome,101,9999,9999,9999,2683325500
73,26,13,Improv_Metronome,102,9999,9999,9999,2683825244
73,26,13,Improv_Metronome,103,9999,9999,9999,2684325988
73,26,13,Improv_Metronome,104,9999,9999,9999,2684825676
73,26,13,Improv_Metronome,105,9999,9999,9999,2685325428
73,26,13,Improv_Metronome,106,9999,9999,9999,2685825124
73,26,13,Improv_Metronome,107,9999,9999,9999,2686325824
73,26,13,Improv_Metronome,108,9999,9999,9999,2686825588
73,26,13,Improv_Metronome,109,9999,9999,9999,2687325264
73,26,13,Improv_Metronome,110,9999,9999,9999,2687825984
73,26,13,Improv_Metronome,111,9999,9999,9999,2688325748
73,26,13,Improv_Metronome,112,9999,9999,9999,2688825404
73,26,13,Improv_Metronome,113,9999,9999,9999,2689325168
73,26,13,Improv_Metronome,114,9999,9999,9999,2689825892
73,26,13,Improv_Metronome,115,9999,9999,9999,2690325588
73,26,13,Improv_Metronome,116,9999,9999,9999,2690825288
73,26,13,Improv_Metronome,117,9999,9999,9999,2691326008
73,26,13,Improv_Metronome,118,9999,9999,9999,2691825768
73,26,13,Improv_Metronome,119,9999,9999,9999,2692325452
73,26,13,Improv_Metronome,120,9999,9999,9999,2692825144
73,26,13,Improv_Metronome,121,9999,9999,9999,2693325880
73,26,13,Improv_Metronome,122,9999,9999,9999,2693825612
73,26,13,Improv_Metronome,123,9999,9999,9999,2694325360
73,26,13,Improv_Metronome,124,9999,9999,9999,2694826100
73,26,13,Improv_Metronome,125,9999,9999,9999,2695325792
73,26,13,Improv_Metronome,126,9999,9999,9999,2695825488
73,26,13,Improv_Metronome,127,9999,9999,9999,2696325168
73,26,13,Improv_Metronome,128,9999,9999,9999,2696825960
73,26,13,Improv_Metronome,129,9999,9999,9999,2697325656
73,26,13,Improv_Metronome,130,9999,9999,9999,2697825352
73,26,13,Improv_Metronome,131,9999,9999,9999,2698326092
73,26,13,Improv_Metronome,132,9999,9999,9999,2698825836
73,26,13,Improv_Metronome,133,9999,9999,9999,2699325512
73,26,13,Improv_Metronome,134,9999,9999,9999,2699825208
73,26,13,Improv_Metronome,135,9999,9999,9999,2700325944
73,26,13,Improv_Metronome,136,9999,9999,9999,2700825696
73,26,13,Improv_Metronome,137,9999,9999,9999,2701325392
73,26,13,Improv_Metronome,138,9999,9999,9999,2701825116
73,26,13,Improv_Metronome,139,9999,9999,9999,2702325856
73,27,14,Improv_Melody,0,2,48,80,2756025796
73,27,14,Improv_Melody,1,2,72,80,2756028168
73,27,14,Improv_Melody,2,5,42,127,2756029884
73,27,14,Improv_Melody,3,5,42,110,2756523396
73,27,14,Improv_Melody,4,5,42,110,2757023044
73,27,14,Improv_Melody,5,5,42,110,2757523064
73,27,14,Improv_Melody,6,5,42,127,2758022788
73,27,14,Improv_Melody,7,5,42,110,2758523180
73,27,14,Improv_Melody,8,5,42,110,2759022904
73,27,14,Improv_Melody,9,5,42,110,2759522924
73,27,14,Improv_Melody,10,2,43,80,2760025976
73,27,14,Improv_Melody,11,2,67,80,2760028048
73,27,14,Improv_Melody,12,5,42,127,2760030664
73,27,14,Improv_Melody,13,5,42,110,2760523128
73,27,14,Improv_Melody,14,5,42,110,2761022776
73,27,14,Improv_Melody,15,5,42,110,2761522648
73,27,14,Improv_Melody,16,5,42,127,2762023268
73,27,14,Improv_Melody,17,5,42,110,2762522988
73,27,14,Improv_Melody,18,5,42,110,2763022784
73,27,14,Improv_Melody,19,5,42,110,2763522480
73,27,14,Improv_Melody,20,2,45,80,2764025528
73,27,14,Improv_Melody,21,2,69,80,2764027608
73,27,14,Improv_Melody,22,5,42,127,2764030148
73,27,14,Improv_Melody,23,5,42,110,2764522764
73,27,14,Improv_Melody,24,5,42,110,2765022708
73,27,14,Improv_Melody,25,5,42,110,2765523328
73,27,14,Improv_Melody,26,5,42,127,2766023124
73,27,14,Improv_Melody,27,5,42,110,2766522696
73,27,14,Improv_Melody,28,5,42,110,2767022568
73,27,14,Improv_Melody,29,5,42,110,2767523116
73,27,14,Improv_Melody,30,2,41,80,2768025336
73,27,14,Improv_Melody,31,2,65,80,2768027488
73,27,14,Improv_Melody,32,5,42,127,2768030032
73,27,14,Improv_Melody,33,5,42,110,2768522648
73,27,14,Improv_Melody,34,5,42,110,2769023488
73,27,14,Improv_Melody,35,5,42,110,2769522988
73,27,14,Improv_Melody,36,5,42,127,2770022636
73,27,14,Improv_Melody,37,5,42,110,2770522428
73,27,14,Improv_Melody,38,5,42,110,2771023420
73,27,14,Improv_Melody,39,5,42,110,2771522920
73,27,14,Improv_Melody,40,2,48,80,2772025068
73,27,14,Improv_Melody,41,2,72,80,2772027296
73,27,14,Improv_Melody,42,5,42,127,2772029836
73,27,14,Improv_Melody,43,1,38,45,2772057036
73,27,14,Improv_Melody,44,1,38,52,2772509592
73,27,14,Improv_Melody,45,5,42,110,2772523620
73,27,14,Improv_Melody,46,1,38,50,2773012588
73,27,14,Improv_Melody,47,5,42,110,2773023020
73,27,14,Improv_Melody,48,1,38,26,2773080356
73,27,14,Improv_Melody,49,1,38,51,2773511268
73,27,14,Improv_Melody,50,5,42,110,2773522924
73,27,14,Improv_Melody,51,1,38,33,2773578912
73,27,14,Improv_Melody,52,5,42,127,2774022360
73,27,14,Improv_Melody,53,1,38,52,2774032908
73,27,14,Improv_Melody,54,1,38,25,2774095124
73,27,14,Improv_Melody,55,5,42,110,2774523460
73,27,14,Improv_Melody,56,1,38,47,2774556596
73,27,14,Improv_Melody,57,1,38,44,2775013692
73,27,14,Improv_Melody,58,5,42,110,2775022856
73,27,14,Improv_Melody,59,1,38,25,2775064880
73,27,14,Improv_Melody,60,1,38,46,2775517932
73,27,14,Improv_Melody,61,5,42,110,2775522756
73,27,14,Improv_Melody,62,1,38,50,2775991528
73,27,14,Improv_Melody,63,2,43,80,2776025856
73,27,14,Improv_Melody,64,2,67,80,2776028236
73,27,14,Improv_Melody,65,5,42,127,2776030624
73,27,14,Improv_Melody,66,1,38,35,2776041508
73,27,14,Improv_Melody,67,1,48,52,2776506996
73,27,14,Improv_Melody,68,5,42,110,2776523044
73,27,14,Improv_Melody,69,1,38,40,2776962268
73,27,14,Improv_Melody,70,5,42,110,2777022744
73,27,14,Improv_Melody,71,1,38,45,2777445440
73,27,14,Improv_Melody,72,1,38,26,2777501660
73,27,14,Improv_Melody,73,5,42,110,2777522572
73,27,14,Improv_Melody,74,1,38,46,2777896420
73,27,14,Improv_Melody,75,5,42,127,2778023452
73,27,14,Improv_Melody,76,1,38,47,2778405396
73,27,14,Improv_Melody,77,1,38,26,2778465516
73,27,14,Improv_Melody,78,5,42,110,2778522848
73,27,14,Improv_Melody,79,1,38,42,2778873040
73,27,14,Improv_Melody,80,5,42,110,2779022608
73,27,14,Improv_Melody,81,1,38,47,2779372736
73,27,14,Improv_Melody,82,1,38,31,2779431232
73,27,14,Improv_Melody,83,5,42,110,2779522300
73,27,14,Improv_Melody,84,1,48,52,2779886472
73,27,14,Improv_Melody,85,2,45,80,2780025832
73,27,14,Improv_Melody,86,2,69,80,2780028136
73,27,14,Improv_Melody,87,5,42,127,2780030520
73,27,14,Improv_Melody,88,1,38,40,2780415212
73,27,14,Improv_Melody,89,5,42,110,2780522740
73,27,14,Improv_Melody,90,1,38,56,2780863368
73,27,14,Improv_Melody,91,1,38,41,2780895136
73,27,14,Improv_Melody,92,5,42,110,2781022492
73,27,14,Improv_Melody,93,1,38,53,2781370680
73,27,14,Improv_Melody,94,1,38,38,2781402816
73,27,14,Improv_Melody,95,5,42,110,2781523512
73,27,14,Improv_Melody,96,1,38,48,2781904312
73,27,14,Improv_Melody,97,5,42,127,2782023140
73,27,14,Improv_Melody,98,1,38,37,2782388532
73,27,14,Improv_Melody,99,5,42,110,2782522688
73,27,14,Improv_Melody,100,1,38,44,2782909320
73,27,14,Improv_Melody,101,5,42,110,2783022388
73,27,14,Improv_Melody,102,1,38,39,2783415152
73,27,14,Improv_Melody,103,5,42,110,2783523356
73,27,14,Improv_Melody,104,1,48,42,2783897800
73,27,14,Improv_Melody,105,2,41,80,2784025644
73,27,14,Improv_Melody,106,2,65,80,2784027560
73,27,14,Improv_Melody,107,5,42,127,2784030400
73,27,14,Improv_Melody,108,1,38,42,2784408504
73,27,14,Improv_Melody,109,5,42,110,2784522548
73,27,14,Improv_Melody,110,1,38,45,2784894812
73,27,14,Improv_Melody,111,5,42,110,2785023492
73,27,14,Improv_Melody,112,1,38,42,2785408656
73,27,14,Improv_Melody,113,5,42,110,2785523416
73,27,14,Improv_Melody,114,1,38,30,2785893096
73,27,14,Improv_Melody,115,5,42,127,2786022744
73,27,14,Improv_Melody,116,1,38,44,2786415604
73,27,14,Improv_Melody,117,5,42,110,2786522444
73,27,14,Improv_Melody,118,5,42,110,2787023360
73,27,14,Improv_Melody,119,1,38,31,2787087544
73,27,14,Improv_Melody,120,1,38,40,2787369084
73,27,14,Improv_Melody,121,5,42,110,2787522892
73,27,14,Improv_Melody,122,1,48,62,2788001472
73,27,14,Improv_Melody,123,2,48,80,2788025260
73,27,14,Improv_Melody,124,2,72,80,2788027184
73,27,14,Improv_Melody,125,5,42,127,2788029948
73,27,14,Improv_Melody,126,1,38,13,2788453544
73,27,14,Improv_Melody,127,1,38,22,2788458008
73,27,14,Improv_Melody,128,5,42,110,2788523272
73,27,14,Improv_Melody,129,1,38,56,2788958384
73,27,14,Improv_Melody,130,1,38,40,2789015952
73,27,14,Improv_Melody,131,5,42,110,2789023172
73,27,14,Improv_Melody,132,5,42,110,2789522656
73,27,14,Improv_Melody,133,1,38,38,2789526824
73,27,14,Improv_Melody,134,1,38,50,2789974516
73,27,14,Improv_Melody,135,5,42,127,2790022572
73,27,14,Improv_Melody,136,1,38,53,2790509144
73,27,14,Improv_Melody,137,5,42,110,2790523320
73,27,14,Improv_Melody,138,1,38,50,2790968828
73,27,14,Improv_Melody,139,5,42,110,2791023096
73,27,14,Improv_Melody,140,1,38,53,2791478248
73,27,14,Improv_Melody,141,5,42,110,2791522572
73,27,14,Improv_Melody,142,2,43,80,2792025980
73,27,14,Improv_Melody,143,2,67,80,2792028128
73,27,14,Improv_Melody,144,5,42,127,2792030592
73,27,14,Improv_Melody,145,1,48,71,2792042388
73,27,14,Improv_Melody,146,1,38,47,2792473028
73,27,14,Improv_Melody,147,1,38,38,2792503748
73,27,14,Improv_Melody,148,5,42,110,2792523084
73,27,14,Improv_Melody,149,1,38,50,2792958392
73,27,14,Improv_Melody,150,1,38,40,2792989512
73,27,14,Improv_Melody,151,5,42,110,2793022764
73,27,14,Improv_Melody,152,1,38,45,2793471536
73,27,14,Improv_Melody,153,1,38,38,2793503928
73,27,14,Improv_Melody,154,5,42,110,2793522516
73,27,14,Improv_Melody,155,1,38,49,2793949524
73,27,14,Improv_Melody,156,1,38,33,2793990864
73,27,14,Improv_Melody,157,5,42,127,2794023164
73,27,14,Improv_Melody,158,1,38,52,2794473584
73,27,14,Improv_Melody,159,5,42,110,2794523088
73,27,14,Improv_Melody,160,1,38,16,2794983228
73,27,14,Improv_Melody,161,5,42,110,2795022788
73,27,14,Improv_Melody,162,1,38,59,2795455780
73,27,14,Improv_Melody,163,1,38,41,2795493460
73,27,14,Improv_Melody,164,5,42,110,2795522368
73,27,14,Improv_Melody,165,2,45,80,2796025548
73,27,14,Improv_Melody,166,2,69,80,2796027848
73,27,14,Improv_Melody,167,5,42,127,2796030388
73,27,14,Improv_Melody,168,1,48,74,2796033880
73,27,14,Improv_Melody,169,1,38,47,2796479328
73,27,14,Improv_Melody,170,5,42,110,2796523052
73,27,14,Improv_Melody,171,1,38,39,2796973124
73,27,14,Improv_Melody,172,5,42,110,2797022600
73,27,14,Improv_Melody,173,1,38,40,2797462196
73,27,14,Improv_Melody,174,5,42,110,2797523272
73,27,14,Improv_Melody,175,1,38,46,2797979400
73,27,14,Improv_Melody,176,5,42,127,2798022972
73,27,14,Improv_Melody,177,1,38,45,2798470872
73,27,14,Improv_Melody,178,5,42,110,2798522600
73,27,14,Improv_Melody,179,1,38,43,2798963316
73,27,14,Improv_Melody,180,5,42,110,2799022372
73,27,14,Improv_Melody,181,1,38,52,2799423972
73,27,14,Improv_Melody,182,5,42,110,2799523252
73,27,14,Improv_Melody,183,1,38,52,2799912676
73,27,14,Improv_Melody,184,2,41,80,2800025380
73,27,14,Improv_Melody,185,2,65,80,2800027608
73,27,14,Improv_Melody,186,5,42,127,2800030220
73,27,14,Improv_Melody,187,1,48,67,2800356044
73,27,14,Improv_Melody,188,5,42,110,2800522668
73,27,14,Improv_Melody,189,1,38,45,2800740556
73,27,14,Improv_Melody,190,5,42,110,2801023340
73,27,14,Improv_Melody,191,1,38,49,2801180120
73,27,14,Improv_Melody,192,5,42,110,2801523040
73,27,14,Improv_Melody,193,1,38,51,2801640972
73,27,14,Improv_Melody,194,1,38,32,2801693260
73,27,14,Improv_Melody,195,5,42,127,2802022868
73,27,14,Improv_Melody,196,1,38,53,2802125096
73,27,14,Improv_Melody,197,1,38,30,2802211116
73,27,14,Improv_Melody,198,5,42,110,2802522468
73,27,14,Improv_Melody,199,1,38,52,2802596644
73,27,14,Improv_Melody,200,1,38,20,2802677628
73,27,14,Improv_Melody,201,5,42,110,2803023196
73,27,14,Improv_Melody,202,1,38,44,2803073584
73,27,14,Improv_Melody,203,5,42,110,2803522896
73,27,14,Improv_Melody,204,1,38,46,2803527736
73,27,14,Improv_Melody,205,2,48,80,2804025092
73,27,14,Improv_Melody,206,2,72,80,2804027172
73,27,14,Improv_Melody,207,5,42,127,2804029940
73,27,14,Improv_Melody,208,1,48,64,2804117804
73,27,14,Improv_Melody,209,5,42,110,2804523284
73,27,14,Improv_Melody,210,1,38,50,2804559388
73,27,14,Improv_Melody,211,1,38,42,2805005660
73,27,14,Improv_Melody,212,5,42,110,2805023048
73,27,14,Improv_Melody,213,1,38,54,2805473916
73,27,14,Improv_Melody,214,5,42,110,2805522900
73,27,14,Improv_Melody,215,1,38,55,2805938540
73,27,14,Improv_Melody,216,5,42,127,2806022724
73,27,14,Improv_Melody,217,1,38,49,2806454448
73,27,14,Improv_Melody,218,5,42,110,2806523296
73,27,14,Improv_Melody,219,1,38,46,2806916820
73,27,14,Improv_Melody,220,5,42,110,2807022908
73,27,14,Improv_Melody,221,1,38,43,2807368496
73,27,14,Improv_Melody,222,5,42,110,2807522756
73,27,14,Improv_Melody,223,1,48,57,2807947932
73,27,14,Improv_Melody,224,2,43,80,2808026176
73,27,14,Improv_Melody,225,2,67,80,2808028476
73,27,14,Improv_Melody,226,5,42,127,2808030860
73,27,14,Improv_Melody,227,1,38,46,2808451088
73,27,14,Improv_Melody,228,5,42,110,2808523080
73,27,14,Improv_Melody,229,1,38,48,2808912560
73,27,14,Improv_Melody,230,1,38,36,2808946124
73,27,14,Improv_Melody,231,5,42,110,2809022832
73,27,14,Improv_Melody,232,1,38,58,2809450988
73,27,14,Improv_Melody,233,5,42,110,2809522608
73,27,14,Improv_Melody,234,1,38,51,2809863072
73,27,14,Improv_Melody,235,1,38,38,2809916980
73,27,14,Improv_Melody,236,5,42,127,2810023216
73,27,14,Improv_Melody,237,1,38,52,2810358684
73,27,14,Improv_Melody,238,1,38,38,2810401476
73,27,14,Improv_Melody,239,5,42,110,2810522896
73,27,14,Improv_Melody,240,1,38,50,2810895940
73,27,14,Improv_Melody,241,5,42,110,2811022820
73,27,14,Improv_Melody,242,1,38,47,2811410600
73,27,14,Improv_Melody,243,5,42,110,2811522520
73,27,14,Improv_Melody,244,1,48,67,2811962280
73,27,14,Improv_Melody,245,2,45,80,2812025868
73,27,14,Improv_Melody,246,2,69,80,2812027712
73,27,14,Improv_Melody,247,5,42,127,2812030252
73,27,14,Improv_Melody,248,1,38,46,2812422628
73,27,14,Improv_Melody,249,5,42,110,2812522808
73,27,14,Improv_Melody,250,1,38,48,2812911156
73,27,14,Improv_Melody,251,5,42,110,2813022804
73,27,14,Improv_Melody,252,1,38,46,2813424468
73,27,14,Improv_Melody,253,5,42,110,2813523176
73,27,14,Improv_Melody,254,1,38,62,2813948404
73,27,14,Improv_Melody,255,5,42,127,2814023040
73,27,14,Improv_Melody,256,1,38,52,2814434640
73,27,14,Improv_Melody,257,5,42,110,2814522888
73,27,14,Improv_Melody,258,1,38,45,2814927752
73,27,14,Improv_Melody,259,1,38,29,2815002332
73,27,14,Improv_Melody,260,5,42,110,2815022716
73,27,14,Improv_Melody,261,1,38,50,2815413672
73,27,14,Improv_Melody,262,5,42,110,2815523076
73,27,14,Improv_Melody,263,1,48,65,2815932596
73,27,14,Improv_Melody,264,2,41,80,2816026328
73,27,14,Improv_Melody,265,2,65,80,2816028404
73,27,14,Improv_Melody,266,5,42,127,2816030944
73,27,14,Improv_Melody,267,1,38,45,2816435376
73,27,14,Improv_Melody,268,5,42,110,2816522800
73,27,14,Improv_Melody,269,1,38,51,2816921688
73,27,14,Improv_Melody,270,1,38,29,2816982100
73,27,14,Improv_Melody,271,5,42,110,2817023276
73,27,14,Improv_Melody,272,1,38,52,2817421208
73,27,14,Improv_Melody,273,5,42,110,2817523036
73,27,14,Improv_Melody,274,1,38,51,2817886804
73,27,14,Improv_Melody,275,5,42,127,2818022884
73,27,14,Improv_Melody,276,1,38,47,2818403928
73,27,14,Improv_Melody,277,5,42,110,2818522732
73,27,14,Improv_Melody,278,1,38,53,2818889120
73,27,14,Improv_Melody,279,5,42,110,2819023256
73,27,14,Improv_Melody,280,1,38,54,2819348424
73,27,14,Improv_Melody,281,1,38,33,2819413180
73,27,14,Improv_Melody,282,5,42,110,2819522860
73,27,14,Improv_Melody,283,1,48,68,2819953872
73,27,14,Improv_Melody,284,2,48,80,2820025000
73,27,14,Improv_Melody,285,2,72,80,2820027376
73,27,14,Improv_Melody,286,5,42,127,2820029768
73,27,14,Improv_Melody,287,1,38,48,2820454252
73,27,14,Improv_Melody,288,1,38,27,2820518040
73,27,14,Improv_Melody,289,5,42,110,2820523460
73,27,14,Improv_Melody,290,1,38,47,2820889912
73,27,14,Improv_Melody,291,1,38,26,2820952492
73,27,14,Improv_Melody,292,5,42,110,2821023064
73,27,14,Improv_Melody,293,1,38,50,2821379392
73,27,14,Improv_Melody,294,5,42,110,2821522748
73,27,14,Improv_Melody,295,1,38,51,2821880808
73,27,14,Improv_Melody,296,1,38,29,2821942596
73,27,14,Improv_Melody,297,5,42,127,2822022668
73,27,14,Improv_Melody,298,1,38,55,2822377944
73,27,14,Improv_Melody,299,1,38,33,2822435760
73,27,14,Improv_Melody,300,5,42,110,2822523464
73,27,14,Improv_Melody,301,1,38,40,2822918712
73,27,14,Improv_Melody,302,5,42,110,2823023000
73,27,14,Improv_Melody,303,1,38,49,2823440848
73,27,14,Improv_Melody,304,5,42,110,2823522568
73,27,14,Improv_Melody,305,1,48,85,2824016392
73,27,14,Improv_Melody,306,2,43,80,2824025968
73,27,14,Improv_Melody,307,2,67,80,2824028196
73,27,14,Improv_Melody,308,5,42,127,2824030656
73,27,14,Improv_Melody,309,1,38,40,2824477432
73,27,14,Improv_Melody,310,5,42,110,2824523028
73,27,14,Improv_Melody,311,1,38,48,2824931412
73,27,14,Improv_Melody,312,1,38,33,2824969108
73,27,14,Improv_Melody,313,5,42,110,2825022704
73,27,14,Improv_Melody,314,1,38,48,2825451880
73,27,14,Improv_Melody,315,5,42,110,2825522628
73,27,14,Improv_Melody,316,1,38,50,2825952028
73,27,14,Improv_Melody,317,5,42,127,2826023224
73,27,14,Improv_Melody,318,1,38,55,2826422632
73,27,14,Improv_Melody,319,1,38,41,2826460312
73,27,14,Improv_Melody,320,5,42,110,2826522904
73,27,14,Improv_Melody,321,1,38,60,2826923208
73,27,14,Improv_Melody,322,1,38,39,2826969488
73,27,14,Improv_Melody,323,5,42,110,2827022656
73,27,14,Improv_Melody,324,1,38,58,2827398428
73,27,14,Improv_Melody,325,5,42,110,2827522392
73,27,14,Improv_Melody,326,1,48,79,2827965892
73,27,14,Improv_Melody,327,2,45,80,2828025808
73,27,14,Improv_Melody,328,2,69,80,2828027960
73,27,14,Improv_Melody,329,5,42,127,2828030568
73,27,14,Improv_Melody,330,1,38,55,2828441972
73,27,14,Improv_Melody,331,5,42,110,2828522940
73,27,14,Improv_Melody,332,1,38,50,2828907484
73,27,14,Improv_Melody,333,5,42,110,2829022476
73,27,14,Improv_Melody,334,1,38,46,2829430376
73,27,14,Improv_Melody,335,5,42,110,2829523384
73,27,14,Improv_Melody,336,1,38,39,2829860364
73,27,14,Improv_Melody,337,1,38,21,2829921380
73,27,14,Improv_Melody,338,5,42,127,2830022900
73,27,14,Improv_Melody,339,1,38,58,2830402900
73,27,14,Improv_Melody,340,1,38,30,2830460172
73,27,14,Improv_Melody,341,5,42,110,2830522592
73,27,14,Improv_Melody,342,1,38,56,2830856580
73,27,14,Improv_Melody,343,1,38,27,2830920580
73,27,14,Improv_Melody,344,5,42,110,2831022408
73,27,14,Improv_Melody,345,1,38,46,2831275524
73,27,14,Improv_Melody,346,5,42,110,2831523304
73,27,14,Improv_Melody,347,1,38,48,2831622860
73,27,14,Improv_Melody,348,2,41,80,2832025664
73,27,14,Improv_Melody,349,2,65,80,2832027664
73,27,14,Improv_Melody,350,5,42,127,2832030344
73,27,14,Improv_Melody,351,1,48,65,2832232828
73,27,14,Improv_Melody,352,5,42,110,2832522640
73,27,14,Improv_Melody,353,1,38,41,2832744644
73,27,14,Improv_Melody,354,5,42,110,2833023236
73,27,14,Improv_Melody,355,1,38,58,2833206120
73,27,14,Improv_Melody,356,5,42,110,2833523160
73,27,14,Improv_Melody,357,1,38,59,2833723244
73,27,14,Improv_Melody,358,5,42,127,2834022712
73,27,14,Improv_Melody,359,1,38,62,2834200588
73,27,14,Improv_Melody,360,5,42,110,2834522336
73,27,14,Improv_Melody,361,1,38,55,2834678340
73,27,14,Improv_Melody,362,5,42,110,2835023304
73,27,14,Improv_Melody,363,1,38,28,2835166744
73,27,14,Improv_Melody,364,5,42,110,2835523004
73,27,14,Improv_Melody,365,1,38,59,2835638168
73,27,14,Improv_Melody,366,1,38,18,2835732720
73,27,14,Improv_Melody,367,2,48,80,2836025188
73,27,14,Improv_Melody,368,2,72,80,2836027336
73,27,14,Improv_Melody,369,5,42,127,2836029880
73,27,14,Improv_Melody,370,1,48,79,2836252476
73,27,14,Improv_Melody,371,5,42,110,2836523444
73,27,14,Improv_Melody,372,1,38,52,2836683264
73,27,14,Improv_Melody,373,1,38,34,2836729840
73,27,14,Improv_Melody,0,9999,9999,9999,2756020296
73,27,14,Improv_Melody,1,9999,9999,9999,2756521032
73,27,14,Improv_Melody,2,9999,9999,9999,2757020752
73,27,14,Improv_Melody,3,9999,9999,9999,2757520476
73,27,14,Improv_Melody,4,9999,9999,9999,2758020196
73,27,14,Improv_Melody,5,9999,9999,9999,2758520888
73,27,14,Improv_Melody,6,9999,9999,9999,2759020612
73,27,14,Improv_Melody,7,9999,9999,9999,2759520336
73,27,14,Improv_Melody,8,9999,9999,9999,2760021104
73,27,14,Improv_Melody,9,9999,9999,9999,2760520764
73,27,14,Improv_Melody,10,9999,9999,9999,2761020484
73,27,14,Improv_Melody,11,9999,9999,9999,2761520208
73,27,14,Improv_Melody,12,9999,9999,9999,2762020976
73,27,14,Improv_Melody,13,9999,9999,9999,2762520696
73,27,14,Improv_Melody,14,9999,9999,9999,2763020344
73,27,14,Improv_Melody,15,9999,9999,9999,2763520116
73,27,14,Improv_Melody,16,9999,9999,9999,2764020808
73,27,14,Improv_Melody,17,9999,9999,9999,2764520544
73,27,14,Improv_Melody,18,9999,9999,9999,2765020264
73,27,14,Improv_Melody,19,9999,9999,9999,2765520960
73,27,14,Improv_Melody,20,9999,9999,9999,2766020684
73,27,14,Improv_Melody,21,9999,9999,9999,2766520404
73,27,14,Improv_Melody,22,9999,9999,9999,2767020128
73,27,14,Improv_Melody,23,9999,9999,9999,2767520824
73,27,14,Improv_Melody,24,9999,9999,9999,2768020544
73,27,14,Improv_Melody,25,9999,9999,9999,2768520280
73,27,14,Improv_Melody,26,9999,9999,9999,2769021048
73,27,14,Improv_Melody,27,9999,9999,9999,2769520696
73,27,14,Improv_Melody,28,9999,9999,9999,2770020416
73,27,14,Improv_Melody,29,9999,9999,9999,2770520140
73,27,14,Improv_Melody,30,9999,9999,9999,2771020908
73,27,14,Improv_Melody,31,9999,9999,9999,2771520628
73,27,14,Improv_Melody,32,9999,9999,9999,2772020276
73,27,14,Improv_Melody,33,9999,9999,9999,2772521028
73,27,14,Improv_Melody,34,9999,9999,9999,2773020728
73,27,14,Improv_Melody,35,9999,9999,9999,2773520484
73,27,14,Improv_Melody,36,9999,9999,9999,2774020144
73,27,14,Improv_Melody,37,9999,9999,9999,2774520944
73,27,14,Improv_Melody,38,9999,9999,9999,2775020636
73,27,14,Improv_Melody,39,9999,9999,9999,2775520316
73,27,14,Improv_Melody,40,9999,9999,9999,2776021064
73,27,14,Improv_Melody,41,9999,9999,9999,2776520752
73,27,14,Improv_Melody,42,9999,9999,9999,2777020528
73,27,14,Improv_Melody,43,9999,9999,9999,2777520204
73,27,14,Improv_Melody,44,9999,9999,9999,2778020936
73,27,14,Improv_Melody,45,9999,9999,9999,2778520632
73,27,14,Improv_Melody,46,9999,9999,9999,2779020388
73,27,14,Improv_Melody,47,9999,9999,9999,2779520084
73,27,14,Improv_Melody,48,9999,9999,9999,2780020812
73,27,14,Improv_Melody,49,9999,9999,9999,2780520524
73,27,14,Improv_Melody,50,9999,9999,9999,2781020276
73,27,14,Improv_Melody,51,9999,9999,9999,2781521000
73,27,14,Improv_Melody,52,9999,9999,9999,2782020700
73,27,14,Improv_Melody,53,9999,9999,9999,2782520396
73,27,14,Improv_Melody,54,9999,9999,9999,2783020096
73,27,14,Improv_Melody,55,9999,9999,9999,2783520844
73,27,14,Improv_Melody,56,9999,9999,9999,2784020540
73,27,14,Improv_Melody,57,9999,9999,9999,2784520256
73,27,14,Improv_Melody,58,9999,9999,9999,2785020976
73,27,14,Improv_Melody,59,9999,9999,9999,2785520752
73,27,14,Improv_Melody,60,9999,9999,9999,2786020452
73,27,14,Improv_Melody,61,9999,9999,9999,2786520152
73,27,14,Improv_Melody,62,9999,9999,9999,2787020920
73,27,14,Improv_Melody,63,9999,9999,9999,2787520600
73,27,14,Improv_Melody,64,9999,9999,9999,2788020316
73,27,14,Improv_Melody,65,9999,9999,9999,2788521052
73,27,14,Improv_Melody,66,9999,9999,9999,2789020732
73,27,14,Improv_Melody,67,9999,9999,9999,2789520440
73,27,14,Improv_Melody,68,9999,9999,9999,2790020208
73,27,14,Improv_Melody,69,9999,9999,9999,2790520952
73,27,14,Improv_Melody,70,9999,9999,9999,2791020656
73,27,14,Improv_Melody,71,9999,9999,9999,2791520356
73,27,14,Improv_Melody,72,9999,9999,9999,2792021104
73,27,14,Improv_Melody,73,9999,9999,9999,2792520792
73,27,14,Improv_Melody,74,9999,9999,9999,2793020472
73,27,14,Improv_Melody,75,9999,9999,9999,2793520224
73,27,14,Improv_Melody,76,9999,9999,9999,2794020948
73,27,14,Improv_Melody,77,9999,9999,9999,2794520648
73,27,14,Improv_Melody,78,9999,9999,9999,2795020348
73,27,14,Improv_Melody,79,9999,9999,9999,2795520076
73,27,14,Improv_Melody,80,9999,9999,9999,2796020828
73,27,14,Improv_Melody,81,9999,9999,9999,2796520536
73,27,14,Improv_Melody,82,9999,9999,9999,2797020236
73,27,14,Improv_Melody,83,9999,9999,9999,2797520980
73,27,14,Improv_Melody,84,9999,9999,9999,2798020680
73,27,14,Improv_Melody,85,9999,9999,9999,2798520380
73,27,14,Improv_Melody,86,9999,9999,9999,2799020080
73,27,14,Improv_Melody,87,9999,9999,9999,2799520888
73,27,14,Improv_Melody,88,9999,9999,9999,2800020588
73,27,14,Improv_Melody,89,9999,9999,9999,2800520300
73,27,14,Improv_Melody,90,9999,9999,9999,2801021048
73,27,14,Improv_Melody,91,9999,9999,9999,2801520748
73,27,14,Improv_Melody,92,9999,9999,9999,2802020424
73,27,14,Improv_Melody,93,9999,9999,9999,2802520176
73,27,14,Improv_Melody,94,9999,9999,9999,2803020904
73,27,14,Improv_Melody,95,9999,9999,9999,2803520604
73,27,14,Improv_Melody,96,9999,9999,9999,2804020300
73,27,14,Improv_Melody,97,9999,9999,9999,2804521064
73,27,14,Improv_Melody,98,9999,9999,9999,2805020760
73,27,14,Improv_Melody,99,9999,9999,9999,2805520460
73,27,14,Improv_Melody,100,9999,9999,9999,2806020212
73,27,14,Improv_Melody,101,9999,9999,9999,2806520932
73,27,14,Improv_Melody,102,9999,9999,9999,2807020616
73,27,14,Improv_Melody,103,9999,9999,9999,2807520316
73,27,14,Improv_Melody,104,9999,9999,9999,2808021076
73,27,14,Improv_Melody,105,9999,9999,9999,2808520788
73,27,14,Improv_Melody,106,9999,9999,9999,2809020464
73,27,14,Improv_Melody,107,9999,9999,9999,2809520240
73,27,14,Improv_Melody,108,9999,9999,9999,2810020924
73,27,14,Improv_Melody,109,9999,9999,9999,2810520680
73,27,14,Improv_Melody,110,9999,9999,9999,2811020380
73,27,14,Improv_Melody,111,9999,9999,9999,2811520080
73,27,14,Improv_Melody,112,9999,9999,9999,2812020840
73,27,14,Improv_Melody,113,9999,9999,9999,2812520516
73,27,14,Improv_Melody,114,9999,9999,9999,2813020212
73,27,14,Improv_Melody,115,9999,9999,9999,2813520960
73,27,14,Improv_Melody,116,9999,9999,9999,2814020676
73,27,14,Improv_Melody,117,9999,9999,9999,2814520372
73,27,14,Improv_Melody,118,9999,9999,9999,2815020128
73,27,14,Improv_Melody,119,9999,9999,9999,2815520860
73,27,14,Improv_Melody,120,9999,9999,9999,2816020572
73,27,14,Improv_Melody,121,9999,9999,9999,2816520288
73,27,14,Improv_Melody,122,9999,9999,9999,2817020984
73,27,14,Improv_Melody,123,9999,9999,9999,2817520744
73,27,14,Improv_Melody,124,9999,9999,9999,2818020444
73,27,14,Improv_Melody,125,9999,9999,9999,2818520144
73,27,14,Improv_Melody,126,9999,9999,9999,2819020888
73,27,14,Improv_Melody,127,9999,9999,9999,2819520568
73,27,14,Improv_Melody,128,9999,9999,9999,2820020284
73,27,14,Improv_Melody,129,9999,9999,9999,2820521020
73,27,14,Improv_Melody,130,9999,9999,9999,2821020772
73,27,14,Improv_Melody,131,9999,9999,9999,2821520456
73,27,14,Improv_Melody,132,9999,9999,9999,2822020152
73,27,14,Improv_Melody,133,9999,9999,9999,2822520952
73,27,14,Improv_Melody,134,9999,9999,9999,2823020636
73,27,14,Improv_Melody,135,9999,9999,9999,2823520352
73,27,14,Improv_Melody,136,9999,9999,9999,2824021096
73,27,14,Improv_Melody,137,9999,9999,9999,2824520812
73,27,14,Improv_Melody,138,9999,9999,9999,2825020488
73,27,14,Improv_Melody,139,9999,9999,9999,2825520188
73,27,14,Improv_Melody,140,9999,9999,9999,2826020932
73,27,14,Improv_Melody,141,9999,9999,9999,2826520684
73,27,14,Improv_Melody,142,9999,9999,9999,2827020364
73,27,14,Improv_Melody,143,9999,9999,9999,2827520100
73,27,14,Improv_Melody,144,9999,9999,9999,2828020788
73,27,14,Improv_Melody,145,9999,9999,9999,2828520500
73,27,14,Improv_Melody,146,9999,9999,9999,2829020260
73,27,14,Improv_Melody,147,9999,9999,9999,2829520944
73,27,14,Improv_Melody,148,9999,9999,9999,2830020684
73,27,14,Improv_Melody,149,9999,9999,9999,2830520376
73,27,14,Improv_Melody,150,9999,9999,9999,2831020116
73,27,14,Improv_Melody,151,9999,9999,9999,2831520864
73,27,14,Improv_Melody,152,9999,9999,9999,2832020560
73,27,14,Improv_Melody,153,9999,9999,9999,2832520276
73,27,14,Improv_Melody,154,9999,9999,9999,2833021020
73,27,14,Improv_Melody,155,9999,9999,9999,2833520720
73,27,14,Improv_Melody,156,9999,9999,9999,2834020420
73,27,14,Improv_Melody,157,9999,9999,9999,2834520120
73,27,14,Improv_Melody,158,9999,9999,9999,2835020864
73,27,14,Improv_Melody,159,9999,9999,9999,2835520564
73,27,14,Improv_Melody,160,9999,9999,9999,2836020316
73,27,14,Improv_Melody,161,9999,9999,9999,2836521076
