pid,taskRunCount,taskID,taskName,i,channel,pitch,velocity,microseconds
72,1,1,Ticks_Pract_5,0,5,42,127,2328834512
72,1,1,Ticks_Pract_5,1,5,42,127,2329334156
72,1,1,Ticks_Pract_5,2,1,48,20,2329775268
72,1,1,Ticks_Pract_5,3,5,42,127,2329834092
72,1,1,Ticks_Pract_5,4,5,42,127,2330333496
72,1,1,Ticks_Pract_5,5,1,48,21,2330798768
72,1,1,Ticks_Pract_5,6,5,42,127,2330834328
72,1,1,Ticks_Pract_5,7,1,48,26,2331277668
72,1,1,Ticks_Pract_5,8,5,42,127,2331334096
72,1,1,Ticks_Pract_5,9,1,48,28,2331804136
72,1,1,Ticks_Pract_5,10,5,42,127,2331833940
72,1,1,Ticks_Pract_5,11,1,48,26,2332279876
72,1,1,Ticks_Pract_5,12,5,42,127,2332333412
72,1,1,Ticks_Pract_5,13,5,42,127,2332834160
72,1,1,Ticks_Pract_5,14,1,48,23,2332877740
72,1,1,Ticks_Pract_5,15,1,48,20,2333318704
72,1,1,Ticks_Pract_5,16,5,42,127,2333334068
72,1,1,Ticks_Pract_5,17,5,42,127,2333833476
72,1,1,Ticks_Pract_5,18,1,48,24,2333852900
72,1,1,Ticks_Pract_5,19,5,42,127,2334334264
72,1,1,Ticks_Pract_5,20,1,48,25,2334342420
72,1,1,Ticks_Pract_5,21,5,42,127,2334833960
72,1,1,Ticks_Pract_5,22,1,48,20,2334845980
72,1,1,Ticks_Pract_5,23,1,48,22,2335298528
72,1,1,Ticks_Pract_5,24,5,42,127,2335333944
72,1,1,Ticks_Pract_5,25,1,48,22,2335811240
72,1,1,Ticks_Pract_5,26,5,42,127,2335833340
72,1,1,Ticks_Pract_5,27,1,48,22,2336306224
72,1,1,Ticks_Pract_5,28,5,42,127,2336334156
72,1,1,Ticks_Pract_5,29,1,48,24,2336809952
72,1,1,Ticks_Pract_5,30,5,42,127,2336833848
72,1,1,Ticks_Pract_5,31,1,48,24,2337283020
72,1,1,Ticks_Pract_5,32,5,42,127,2337333620
72,1,1,Ticks_Pract_5,33,1,48,25,2337822288
72,1,1,Ticks_Pract_5,34,5,42,127,2337834212
72,1,1,Ticks_Pract_5,35,1,48,26,2338310612
72,1,1,Ticks_Pract_5,36,5,42,127,2338334056
72,1,1,Ticks_Pract_5,37,1,48,23,2338814420
72,1,1,Ticks_Pract_5,38,5,42,127,2338833752
72,1,1,Ticks_Pract_5,39,1,48,32,2339331016
72,1,1,Ticks_Pract_5,40,5,42,127,2339333596
72,1,1,Ticks_Pract_5,41,1,48,20,2339813584
72,1,1,Ticks_Pract_5,42,5,42,127,2339834188
72,1,1,Ticks_Pract_5,43,1,48,26,2340331080
72,1,1,Ticks_Pract_5,44,5,42,127,2340333808
72,1,1,Ticks_Pract_5,45,5,42,127,2340833728
72,1,1,Ticks_Pract_5,46,1,48,20,2340844104
72,1,1,Ticks_Pract_5,47,5,42,127,2341334324
72,1,1,Ticks_Pract_5,48,1,48,28,2341374316
72,1,1,Ticks_Pract_5,49,5,42,127,2341834016
72,1,1,Ticks_Pract_5,50,1,48,26,2341835132
72,1,1,Ticks_Pract_5,51,5,42,127,2342333788
72,1,1,Ticks_Pract_5,52,1,48,27,2342340048
72,1,1,Ticks_Pract_5,53,1,48,27,2342804044
72,1,1,Ticks_Pract_5,54,5,42,127,2342833624
72,1,1,Ticks_Pract_5,55,1,48,27,2343328800
72,1,1,Ticks_Pract_5,56,5,42,127,2343334140
72,1,1,Ticks_Pract_5,57,1,48,26,2343801240
72,1,1,Ticks_Pract_5,58,5,42,127,2343833908
72,1,1,Ticks_Pract_5,59,1,48,22,2344330056
72,1,1,Ticks_Pract_5,60,5,42,127,2344333752
72,1,1,Ticks_Pract_5,61,1,48,27,2344808484
72,1,1,Ticks_Pract_5,62,5,42,127,2344834396
72,1,1,Ticks_Pract_5,63,1,48,32,2345316176
72,1,1,Ticks_Pract_5,64,5,42,127,2345334088
72,1,1,Ticks_Pract_5,65,1,48,31,2345809368
72,1,1,Ticks_Pract_5,66,5,42,127,2345833856
72,1,1,Ticks_Pract_5,67,1,48,32,2346322076
72,1,1,Ticks_Pract_5,68,5,42,127,2346333700
72,1,1,Ticks_Pract_5,69,1,48,32,2346814812
72,1,1,Ticks_Pract_5,70,5,42,127,2346834220
72,1,1,Ticks_Pract_5,71,1,48,33,2347299472
72,1,1,Ticks_Pract_5,72,5,42,127,2347333988
72,1,1,Ticks_Pract_5,73,1,48,33,2347834060
72,1,1,Ticks_Pract_5,74,5,42,127,2347835324
72,1,1,Ticks_Pract_5,75,1,48,27,2348326460
72,1,1,Ticks_Pract_5,76,5,42,127,2348333600
72,1,1,Ticks_Pract_5,0,9999,9999,9999,2328832076
72,1,1,Ticks_Pract_5,1,9999,9999,9999,2329331792
72,1,1,Ticks_Pract_5,2,9999,9999,9999,2329831508
72,1,1,Ticks_Pract_5,3,9999,9999,9999,2330331208
72,1,1,Ticks_Pract_5,4,9999,9999,9999,2330831968
72,1,1,Ticks_Pract_5,5,9999,9999,9999,2331331660
72,1,1,Ticks_Pract_5,6,9999,9999,9999,2331831356
72,1,1,Ticks_Pract_5,7,9999,9999,9999,2332331124
72,1,1,Ticks_Pract_5,8,9999,9999,9999,2332831796
72,1,1,Ticks_Pract_5,9,9999,9999,9999,2333331560
72,1,1,Ticks_Pract_5,10,9999,9999,9999,2333831264
72,1,1,Ticks_Pract_5,11,9999,9999,9999,2334331976
72,1,1,Ticks_Pract_5,12,9999,9999,9999,2334831672
72,1,1,Ticks_Pract_5,13,9999,9999,9999,2335331436
72,1,1,Ticks_Pract_5,14,9999,9999,9999,2335831128
72,1,1,Ticks_Pract_5,15,9999,9999,9999,2336331872
72,1,1,Ticks_Pract_5,16,9999,9999,9999,2336831564
72,1,1,Ticks_Pract_5,17,9999,9999,9999,2337331260
72,1,1,Ticks_Pract_5,18,9999,9999,9999,2337832004
72,1,1,Ticks_Pract_5,19,9999,9999,9999,2338331696
72,1,1,Ticks_Pract_5,20,9999,9999,9999,2338831464
72,1,1,Ticks_Pract_5,21,9999,9999,9999,2339331160
72,1,1,Ticks_Pract_5,22,9999,9999,9999,2339831900
72,1,1,Ticks_Pract_5,23,9999,9999,9999,2340331596
72,1,1,Ticks_Pract_5,24,9999,9999,9999,2340831296
72,1,1,Ticks_Pract_5,25,9999,9999,9999,2341332036
72,1,1,Ticks_Pract_5,26,9999,9999,9999,2341831732
72,1,1,Ticks_Pract_5,27,9999,9999,9999,2342331500
72,1,1,Ticks_Pract_5,28,9999,9999,9999,2342831188
72,1,1,Ticks_Pract_5,29,9999,9999,9999,2343331932
72,1,1,Ticks_Pract_5,30,9999,9999,9999,2343831624
72,1,1,Ticks_Pract_5,31,9999,9999,9999,2344331320
72,1,1,Ticks_Pract_5,32,9999,9999,9999,2344832108
72,1,1,Ticks_Pract_5,33,9999,9999,9999,2345331804
72,1,1,Ticks_Pract_5,34,9999,9999,9999,2345831496
72,1,1,Ticks_Pract_5,35,9999,9999,9999,2346331192
72,1,1,Ticks_Pract_5,36,9999,9999,9999,2346831932
72,1,1,Ticks_Pract_5,37,9999,9999,9999,2347331700
72,1,1,Ticks_Pract_5,38,9999,9999,9999,2347831404
72,1,1,Ticks_Pract_5,39,9999,9999,9999,2348331092
72,2,0,Ticks_Pract_8,0,5,42,127,2366073476
72,2,0,Ticks_Pract_8,1,1,48,32,2366545628
72,2,0,Ticks_Pract_8,2,5,42,127,2366872864
72,2,0,Ticks_Pract_8,3,1,48,16,2367291132
72,2,0,Ticks_Pract_8,4,5,42,127,2367672820
72,2,0,Ticks_Pract_8,5,1,48,20,2368007176
72,2,0,Ticks_Pract_8,6,5,42,127,2368472332
72,2,0,Ticks_Pract_8,7,1,48,26,2368813860
72,2,0,Ticks_Pract_8,8,5,42,127,2369273484
72,2,0,Ticks_Pract_8,9,5,42,127,2370072868
72,2,0,Ticks_Pract_8,10,1,48,30,2370850368
72,2,0,Ticks_Pract_8,11,5,42,127,2370872764
72,2,0,Ticks_Pract_8,12,1,48,32,2371651372
72,2,0,Ticks_Pract_8,13,5,42,127,2371672496
72,2,0,Ticks_Pract_8,14,5,42,127,2372473584
72,2,0,Ticks_Pract_8,15,1,48,31,2372489376
72,2,0,Ticks_Pract_8,16,5,42,127,2373272896
72,2,0,Ticks_Pract_8,17,1,48,36,2373302344
72,2,0,Ticks_Pract_8,18,5,42,127,2374072628
72,2,0,Ticks_Pract_8,19,1,48,33,2374138956
72,2,0,Ticks_Pract_8,20,5,42,127,2374872364
72,2,0,Ticks_Pract_8,21,1,48,34,2374946240
72,2,0,Ticks_Pract_8,22,5,42,127,2375673144
72,2,0,Ticks_Pract_8,23,1,48,34,2375736776
72,2,0,Ticks_Pract_8,24,5,42,127,2376472804
72,2,0,Ticks_Pract_8,25,1,48,37,2376501280
72,2,0,Ticks_Pract_8,26,5,42,127,2377272536
72,2,0,Ticks_Pract_8,27,1,48,34,2377316340
72,2,0,Ticks_Pract_8,28,5,42,127,2378072492
72,2,0,Ticks_Pract_8,29,1,48,38,2378122908
72,2,0,Ticks_Pract_8,30,5,42,127,2378873276
72,2,0,Ticks_Pract_8,31,1,48,36,2378902000
72,2,0,Ticks_Pract_8,32,5,42,127,2379673180
72,2,0,Ticks_Pract_8,33,1,48,36,2379681988
72,2,0,Ticks_Pract_8,34,5,42,127,2380472544
72,2,0,Ticks_Pract_8,35,1,48,35,2380494584
72,2,0,Ticks_Pract_8,36,1,48,33,2381235288
72,2,0,Ticks_Pract_8,37,5,42,127,2381272420
72,2,0,Ticks_Pract_8,38,5,42,127,2382073060
72,2,0,Ticks_Pract_8,39,1,48,32,2382087624
72,2,0,Ticks_Pract_8,40,1,48,33,2382832508
72,2,0,Ticks_Pract_8,41,5,42,127,2382873008
72,2,0,Ticks_Pract_8,42,1,48,29,2383653264
72,2,0,Ticks_Pract_8,43,5,42,127,2383672668
72,2,0,Ticks_Pract_8,44,5,42,127,2384472408
72,2,0,Ticks_Pract_8,45,1,48,30,2384473376
72,2,0,Ticks_Pract_8,46,1,48,38,2385238964
72,2,0,Ticks_Pract_8,47,5,42,127,2385273180
72,2,0,Ticks_Pract_8,48,1,48,38,2386058548
72,2,0,Ticks_Pract_8,49,5,42,127,2386073016
72,2,0,Ticks_Pract_8,50,1,48,34,2386853492
72,2,0,Ticks_Pract_8,51,5,42,127,2386872748
72,2,0,Ticks_Pract_8,52,1,48,38,2387665268
72,2,0,Ticks_Pract_8,53,5,42,127,2387672408
72,2,0,Ticks_Pract_8,54,1,48,37,2388441216
72,2,0,Ticks_Pract_8,55,5,42,127,2388473336
72,2,0,Ticks_Pract_8,56,1,48,36,2389245732
72,2,0,Ticks_Pract_8,57,5,42,127,2389273068
72,2,0,Ticks_Pract_8,58,1,48,43,2390036872
72,2,0,Ticks_Pract_8,0,9999,9999,9999,2366070892
72,2,0,Ticks_Pract_8,1,9999,9999,9999,2366870576
72,2,0,Ticks_Pract_8,2,9999,9999,9999,2367670384
72,2,0,Ticks_Pract_8,3,9999,9999,9999,2368470120
72,2,0,Ticks_Pract_8,4,9999,9999,9999,2369270900
72,2,0,Ticks_Pract_8,5,9999,9999,9999,2370070580
72,2,0,Ticks_Pract_8,6,9999,9999,9999,2370870328
72,2,0,Ticks_Pract_8,7,9999,9999,9999,2371670136
72,2,0,Ticks_Pract_8,8,9999,9999,9999,2372470848
72,2,0,Ticks_Pract_8,9,9999,9999,9999,2373270608
72,2,0,Ticks_Pract_8,10,9999,9999,9999,2374070340
72,2,0,Ticks_Pract_8,11,9999,9999,9999,2374870076
72,2,0,Ticks_Pract_8,12,9999,9999,9999,2375670856
72,2,0,Ticks_Pract_8,13,9999,9999,9999,2376470588
72,2,0,Ticks_Pract_8,14,9999,9999,9999,2377270320
72,2,0,Ticks_Pract_8,15,9999,9999,9999,2378070128
72,2,0,Ticks_Pract_8,16,9999,9999,9999,2378870836
72,2,0,Ticks_Pract_8,17,9999,9999,9999,2379670596
72,2,0,Ticks_Pract_8,18,9999,9999,9999,2380470332
72,2,0,Ticks_Pract_8,19,9999,9999,9999,2381270132
72,2,0,Ticks_Pract_8,20,9999,9999,9999,2382070844
72,2,0,Ticks_Pract_8,21,9999,9999,9999,2382870648
72,2,0,Ticks_Pract_8,22,9999,9999,9999,2383670380
72,2,0,Ticks_Pract_8,23,9999,9999,9999,2384470120
72,2,0,Ticks_Pract_8,24,9999,9999,9999,2385270892
72,2,0,Ticks_Pract_8,25,9999,9999,9999,2386070580
72,2,0,Ticks_Pract_8,26,9999,9999,9999,2386870388
72,2,0,Ticks_Pract_8,27,9999,9999,9999,2387670120
72,2,0,Ticks_Pract_8,28,9999,9999,9999,2388470900
72,2,0,Ticks_Pract_8,29,9999,9999,9999,2389270632
72,3,4,T1_SMS_5,0,5,42,127,2461371740
72,3,4,T1_SMS_5,1,5,42,127,2461871676
72,3,4,T1_SMS_5,2,1,48,29,2462087848
72,3,4,T1_SMS_5,3,5,42,127,2462372348
72,3,4,T1_SMS_5,4,1,48,25,2462473148
72,3,4,T1_SMS_5,5,5,42,127,2462871820
72,3,4,T1_SMS_5,6,1,48,24,2462886676
72,3,4,T1_SMS_5,7,1,48,28,2463326424
72,3,4,T1_SMS_5,8,5,42,127,2463371728
72,3,4,T1_SMS_5,9,1,48,27,2463827388
72,3,4,T1_SMS_5,10,5,42,127,2463872396
72,3,4,T1_SMS_5,11,1,48,31,2464333288
72,3,4,T1_SMS_5,12,5,42,127,2464372140
72,3,4,T1_SMS_5,13,5,42,127,2464871844
72,3,4,T1_SMS_5,14,1,48,33,2464872956
72,3,4,T1_SMS_5,15,5,42,127,2465371388
72,3,4,T1_SMS_5,16,1,48,34,2465373252
72,3,4,T1_SMS_5,17,5,42,127,2465872204
72,3,4,T1_SMS_5,18,1,48,29,2465893648
72,3,4,T1_SMS_5,19,5,42,127,2466371900
72,3,4,T1_SMS_5,20,1,48,30,2466375840
72,3,4,T1_SMS_5,21,5,42,127,2466871816
72,3,4,T1_SMS_5,22,1,48,29,2466909940
72,3,4,T1_SMS_5,23,5,42,127,2467372260
72,3,4,T1_SMS_5,24,1,48,27,2467383228
72,3,4,T1_SMS_5,25,5,42,127,2467872252
72,3,4,T1_SMS_5,26,1,48,27,2467926004
72,3,4,T1_SMS_5,27,5,42,127,2468371796
72,3,4,T1_SMS_5,28,1,48,30,2468403184
72,3,4,T1_SMS_5,29,1,48,35,2468856340
72,3,4,T1_SMS_5,30,5,42,127,2468871636
72,3,4,T1_SMS_5,31,1,48,22,2468912060
72,3,4,T1_SMS_5,32,1,48,32,2469362148
72,3,4,T1_SMS_5,33,5,42,127,2469372208
72,3,4,T1_SMS_5,34,1,48,30,2469864384
72,3,4,T1_SMS_5,35,5,42,127,2469871904
72,3,4,T1_SMS_5,36,1,48,30,2470355408
72,3,4,T1_SMS_5,37,5,42,127,2470371896
72,3,4,T1_SMS_5,38,1,48,26,2470869240
72,3,4,T1_SMS_5,39,5,42,127,2470872488
72,3,4,T1_SMS_5,40,5,42,127,2471372264
72,3,4,T1_SMS_5,41,1,48,21,2471379796
72,3,4,T1_SMS_5,42,1,48,28,2471870372
72,3,4,T1_SMS_5,43,5,42,127,2471871880
72,3,4,T1_SMS_5,44,1,48,28,2472324416
72,3,4,T1_SMS_5,45,5,42,127,2472371796
72,3,4,T1_SMS_5,46,1,48,28,2472827900
72,3,4,T1_SMS_5,47,5,42,127,2472872316
72,3,4,T1_SMS_5,48,1,48,30,2473330964
72,3,4,T1_SMS_5,49,5,42,127,2473371936
72,3,4,T1_SMS_5,50,1,48,33,2473829392
72,3,4,T1_SMS_5,51,5,42,127,2473871708
72,3,4,T1_SMS_5,52,1,48,25,2474313372
72,3,4,T1_SMS_5,53,5,42,127,2474371624
72,3,4,T1_SMS_5,54,1,48,32,2474832364
72,3,4,T1_SMS_5,55,5,42,127,2474872044
72,3,4,T1_SMS_5,56,1,48,29,2475339540
72,3,4,T1_SMS_5,57,5,42,127,2475371812
72,3,4,T1_SMS_5,58,1,48,34,2475849260
72,3,4,T1_SMS_5,59,5,42,127,2475871732
72,3,4,T1_SMS_5,60,1,48,30,2476370584
72,3,4,T1_SMS_5,61,5,42,127,2476372176
72,3,4,T1_SMS_5,62,5,42,127,2476872100
72,3,4,T1_SMS_5,63,1,48,36,2476884640
72,3,4,T1_SMS_5,64,5,42,127,2477371792
72,3,4,T1_SMS_5,65,1,48,26,2477425248
72,3,4,T1_SMS_5,66,5,42,127,2477871636
72,3,4,T1_SMS_5,67,1,48,27,2477874604
72,3,4,T1_SMS_5,68,1,48,27,2478342864
72,3,4,T1_SMS_5,69,5,42,127,2478372148
72,3,4,T1_SMS_5,70,1,48,31,2478825808
72,3,4,T1_SMS_5,71,5,42,127,2478871844
72,3,4,T1_SMS_5,72,1,48,27,2479334248
72,3,4,T1_SMS_5,73,5,42,127,2479371832
72,3,4,T1_SMS_5,74,1,48,28,2479856764
72,3,4,T1_SMS_5,75,5,42,127,2479872500
72,3,4,T1_SMS_5,76,1,48,32,2480327432
72,3,4,T1_SMS_5,77,5,42,127,2480372196
72,3,4,T1_SMS_5,78,1,48,21,2480384352
72,3,4,T1_SMS_5,79,5,42,127,2480871732
72,3,4,T1_SMS_5,80,1,48,25,2480901404
72,3,4,T1_SMS_5,81,5,42,127,2481371800
72,3,4,T1_SMS_5,82,1,48,29,2481372912
72,3,4,T1_SMS_5,83,5,42,127,2481872244
72,3,4,T1_SMS_5,84,1,48,30,2481890696
72,3,4,T1_SMS_5,85,5,42,127,2482371940
72,3,4,T1_SMS_5,86,1,48,29,2482383060
72,3,4,T1_SMS_5,87,5,42,127,2482871560
72,3,4,T1_SMS_5,88,1,48,22,2482892032
72,3,4,T1_SMS_5,89,1,48,27,2483362684
72,3,4,T1_SMS_5,90,5,42,127,2483372368
72,3,4,T1_SMS_5,91,1,48,32,2483831840
72,3,4,T1_SMS_5,92,5,42,127,2483872064
72,3,4,T1_SMS_5,93,1,48,21,2483889900
72,3,4,T1_SMS_5,94,1,48,30,2484323804
72,3,4,T1_SMS_5,95,5,42,127,2484371808
72,3,4,T1_SMS_5,96,1,48,30,2484846532
72,3,4,T1_SMS_5,97,5,42,127,2484871580
72,3,4,T1_SMS_5,98,1,48,20,2484905052
72,3,4,T1_SMS_5,99,1,48,32,2485340148
72,3,4,T1_SMS_5,100,5,42,127,2485372272
72,3,4,T1_SMS_5,101,1,48,22,2485398140
72,3,4,T1_SMS_5,102,1,48,29,2485841096
72,3,4,T1_SMS_5,103,5,42,127,2485871944
72,3,4,T1_SMS_5,104,5,42,127,2486371648
72,3,4,T1_SMS_5,105,1,48,32,2486375516
72,3,4,T1_SMS_5,106,1,48,32,2486871864
72,3,4,T1_SMS_5,107,5,42,127,2486873432
72,3,4,T1_SMS_5,108,1,48,19,2486939464
72,3,4,T1_SMS_5,109,5,42,127,2487372064
72,3,4,T1_SMS_5,110,1,48,31,2487375404
72,3,4,T1_SMS_5,111,5,42,127,2487871832
72,3,4,T1_SMS_5,112,1,48,27,2487872872
72,3,4,T1_SMS_5,113,1,48,28,2488371676
72,3,4,T1_SMS_5,114,5,42,127,2488372864
72,3,4,T1_SMS_5,115,1,48,29,2488824884
72,3,4,T1_SMS_5,116,5,42,127,2488872412
72,3,4,T1_SMS_5,117,1,48,38,2489337516
72,3,4,T1_SMS_5,118,5,42,127,2489372108
72,3,4,T1_SMS_5,119,1,48,23,2489404904
72,3,4,T1_SMS_5,120,1,48,32,2489858728
72,3,4,T1_SMS_5,121,5,42,127,2489871704
72,3,4,T1_SMS_5,122,1,48,30,2490345032
72,3,4,T1_SMS_5,123,5,42,127,2490371472
72,3,4,T1_SMS_5,124,1,48,33,2490827156
72,3,4,T1_SMS_5,125,5,42,127,2490872364
72,3,4,T1_SMS_5,126,1,48,36,2491332308
72,3,4,T1_SMS_5,127,5,42,127,2491371836
72,3,4,T1_SMS_5,128,1,48,37,2491822952
72,3,4,T1_SMS_5,129,5,42,127,2491871456
72,3,4,T1_SMS_5,130,1,48,23,2491880168
72,3,4,T1_SMS_5,131,1,48,29,2492319784
72,3,4,T1_SMS_5,132,5,42,127,2492372472
72,3,4,T1_SMS_5,133,1,48,28,2492860844
72,3,4,T1_SMS_5,134,5,42,127,2492872320
72,3,4,T1_SMS_5,135,1,48,38,2493321792
72,3,4,T1_SMS_5,136,5,42,127,2493371640
72,3,4,T1_SMS_5,137,1,48,24,2493386188
72,3,4,T1_SMS_5,138,1,48,37,2493847120
72,3,4,T1_SMS_5,139,5,42,127,2493871388
72,3,4,T1_SMS_5,140,1,48,23,2493906500
72,3,4,T1_SMS_5,141,1,48,33,2494359660
72,3,4,T1_SMS_5,142,5,42,127,2494372480
72,3,4,T1_SMS_5,143,5,42,127,2494872032
72,3,4,T1_SMS_5,144,1,48,27,2494873072
72,3,4,T1_SMS_5,145,5,42,127,2495371504
72,3,4,T1_SMS_5,146,1,48,26,2495383076
72,3,4,T1_SMS_5,147,1,48,32,2495835232
72,3,4,T1_SMS_5,148,5,42,127,2495872612
72,3,4,T1_SMS_5,149,1,48,33,2496344424
72,3,4,T1_SMS_5,150,5,42,127,2496372280
72,3,4,T1_SMS_5,151,5,42,127,2496871684
72,3,4,T1_SMS_5,152,1,48,33,2496878020
72,3,4,T1_SMS_5,153,5,42,127,2497371528
72,3,4,T1_SMS_5,154,1,48,28,2497386388
72,3,4,T1_SMS_5,155,1,48,31,2497857196
72,3,4,T1_SMS_5,156,5,42,127,2497872412
72,3,4,T1_SMS_5,157,1,48,32,2498359060
72,3,4,T1_SMS_5,158,5,42,127,2498372184
72,3,4,T1_SMS_5,159,1,48,28,2498850528
72,3,4,T1_SMS_5,160,5,42,127,2498871580
72,3,4,T1_SMS_5,161,1,48,27,2499360920
72,3,4,T1_SMS_5,162,5,42,127,2499372396
72,3,4,T1_SMS_5,163,5,42,127,2499872320
72,3,4,T1_SMS_5,164,1,48,25,2499877460
72,3,4,T1_SMS_5,165,5,42,127,2500371792
72,3,4,T1_SMS_5,166,1,48,28,2500381944
72,3,4,T1_SMS_5,167,5,42,127,2500871416
72,3,4,T1_SMS_5,168,1,48,35,2500885004
72,3,4,T1_SMS_5,169,5,42,127,2501372452
72,3,4,T1_SMS_5,170,1,48,34,2501387324
72,3,4,T1_SMS_5,171,5,42,127,2501872148
72,3,4,T1_SMS_5,172,1,48,32,2501873112
72,3,4,T1_SMS_5,173,5,42,127,2502371620
72,3,4,T1_SMS_5,174,1,48,33,2502378328
72,3,4,T1_SMS_5,175,1,48,19,2502446232
72,3,4,T1_SMS_5,176,5,42,127,2502872416
72,3,4,T1_SMS_5,177,1,48,24,2502918992
72,3,4,T1_SMS_5,178,5,42,127,2503372332
72,3,4,T1_SMS_5,179,1,48,28,2503424444
72,3,4,T1_SMS_5,180,5,42,127,2503871732
72,3,4,T1_SMS_5,181,1,48,30,2503889064
72,3,4,T1_SMS_5,182,5,42,127,2504371428
72,3,4,T1_SMS_5,183,1,48,29,2504391372
72,3,4,T1_SMS_5,184,5,42,127,2504872244
72,3,4,T1_SMS_5,185,1,48,31,2504886808
72,3,4,T1_SMS_5,186,1,48,29,2505347664
72,3,4,T1_SMS_5,187,5,42,127,2505372304
72,3,4,T1_SMS_5,188,5,42,127,2505871632
72,3,4,T1_SMS_5,189,1,48,28,2505909756
72,3,4,T1_SMS_5,190,5,42,127,2506371328
72,3,4,T1_SMS_5,191,1,48,32,2506414760
72,3,4,T1_SMS_5,192,5,42,127,2506872268
72,3,4,T1_SMS_5,193,1,48,35,2506894184
72,3,4,T1_SMS_5,194,5,42,127,2507372036
72,3,4,T1_SMS_5,195,1,48,29,2507408548
72,3,4,T1_SMS_5,196,5,42,127,2507871660
72,3,4,T1_SMS_5,197,1,48,27,2507897664
72,3,4,T1_SMS_5,198,5,42,127,2508372400
72,3,4,T1_SMS_5,199,1,48,25,2508419156
72,3,4,T1_SMS_5,200,5,42,127,2508872024
72,3,4,T1_SMS_5,201,1,48,34,2508881424
72,3,4,T1_SMS_5,202,1,48,27,2509346316
72,3,4,T1_SMS_5,203,5,42,127,2509371712
72,3,4,T1_SMS_5,204,1,48,32,2509851024
72,3,4,T1_SMS_5,205,5,42,127,2509871404
72,3,4,T1_SMS_5,206,1,48,32,2510358176
72,3,4,T1_SMS_5,207,5,42,127,2510372272
72,3,4,T1_SMS_5,208,1,48,31,2510863480
72,3,4,T1_SMS_5,209,5,42,127,2510872040
72,3,4,T1_SMS_5,210,1,48,27,2511358536
72,3,4,T1_SMS_5,211,5,42,127,2511371512
72,3,4,T1_SMS_5,212,1,48,30,2511848660
72,3,4,T1_SMS_5,213,5,42,127,2511872328
72,3,4,T1_SMS_5,214,1,48,21,2511907224
72,3,4,T1_SMS_5,215,1,48,31,2512353264
72,3,4,T1_SMS_5,216,5,42,127,2512372076
72,3,4,T1_SMS_5,217,1,48,21,2512409584
72,3,4,T1_SMS_5,218,1,48,30,2512854064
72,3,4,T1_SMS_5,219,5,42,127,2512871900
72,3,4,T1_SMS_5,220,1,48,29,2513340744
72,3,4,T1_SMS_5,221,5,42,127,2513371444
72,3,4,T1_SMS_5,222,1,48,20,2513397068
72,3,4,T1_SMS_5,223,1,48,26,2513802348
72,3,4,T1_SMS_5,224,5,42,127,2513872240
72,3,4,T1_SMS_5,225,1,48,27,2514331360
72,3,4,T1_SMS_5,226,5,42,127,2514372084
72,3,4,T1_SMS_5,227,1,48,26,2514861720
72,3,4,T1_SMS_5,228,5,42,127,2514871556
72,3,4,T1_SMS_5,229,5,42,127,2515372308
72,3,4,T1_SMS_5,230,1,48,28,2515387096
72,3,4,T1_SMS_5,231,5,42,127,2515872076
72,3,4,T1_SMS_5,232,1,48,29,2515874520
72,3,4,T1_SMS_5,233,5,42,127,2516371920
72,3,4,T1_SMS_5,234,1,48,26,2516417448
72,3,4,T1_SMS_5,235,5,42,127,2516871392
72,3,4,T1_SMS_5,236,1,48,26,2516931204
72,3,4,T1_SMS_5,237,5,42,127,2517372284
72,3,4,T1_SMS_5,238,1,48,27,2517428060
72,3,4,T1_SMS_5,239,5,42,127,2517871952
72,3,4,T1_SMS_5,240,1,48,30,2517889532
72,3,4,T1_SMS_5,241,5,42,127,2518371648
72,3,4,T1_SMS_5,242,1,48,21,2518388452
72,3,4,T1_SMS_5,243,5,42,127,2518872388
72,3,4,T1_SMS_5,244,1,48,31,2518886428
72,3,4,T1_SMS_5,245,1,48,21,2518944468
72,3,4,T1_SMS_5,246,5,42,127,2519372280
72,3,4,T1_SMS_5,247,1,48,29,2519387672
72,3,4,T1_SMS_5,248,5,42,127,2519871976
72,3,4,T1_SMS_5,249,1,48,29,2519882576
72,3,4,T1_SMS_5,250,5,42,127,2520371596
72,3,4,T1_SMS_5,251,1,48,28,2520386008
72,3,4,T1_SMS_5,252,1,48,32,2520870372
72,3,4,T1_SMS_5,253,5,42,127,2520872256
72,3,4,T1_SMS_5,254,1,48,20,2520930416
72,3,4,T1_SMS_5,255,1,48,30,2521365540
72,3,4,T1_SMS_5,256,5,42,127,2521371932
72,3,4,T1_SMS_5,257,5,42,127,2521871780
72,3,4,T1_SMS_5,258,1,48,27,2521897040
72,3,4,T1_SMS_5,259,5,42,127,2522371400
72,3,4,T1_SMS_5,260,1,48,29,2522387836
72,3,4,T1_SMS_5,261,1,48,21,2522446228
72,3,4,T1_SMS_5,262,5,42,127,2522872124
72,3,4,T1_SMS_5,263,1,48,29,2522877336
72,3,4,T1_SMS_5,264,5,42,127,2523371964
72,3,4,T1_SMS_5,265,1,48,29,2523400140
72,3,4,T1_SMS_5,266,1,48,19,2523464592
72,3,4,T1_SMS_5,267,5,42,127,2523871712
72,3,4,T1_SMS_5,268,1,48,31,2523916264
72,3,4,T1_SMS_5,269,5,42,127,2524372380
72,3,4,T1_SMS_5,270,1,48,26,2524375572
72,3,4,T1_SMS_5,271,1,48,29,2524851464
72,3,4,T1_SMS_5,272,5,42,127,2524871992
72,3,4,T1_SMS_5,273,1,48,32,2525302588
72,3,4,T1_SMS_5,274,5,42,127,2525371908
72,3,4,T1_SMS_5,275,1,48,26,2525839560
72,3,4,T1_SMS_5,276,5,42,127,2525871680
72,3,4,T1_SMS_5,277,1,48,28,2526333416
72,3,4,T1_SMS_5,0,9999,9999,9999,2461369452
72,3,4,T1_SMS_5,1,9999,9999,9999,2461869168
72,3,4,T1_SMS_5,2,9999,9999,9999,2462369912
72,3,4,T1_SMS_5,3,9999,9999,9999,2462869604
72,3,4,T1_SMS_5,4,9999,9999,9999,2463369296
72,3,4,T1_SMS_5,5,9999,9999,9999,2463870036
72,3,4,T1_SMS_5,6,9999,9999,9999,2464369780
72,3,4,T1_SMS_5,7,9999,9999,9999,2464869484
72,3,4,T1_SMS_5,8,9999,9999,9999,2465369176
72,3,4,T1_SMS_5,9,9999,9999,9999,2465869916
72,3,4,T1_SMS_5,10,9999,9999,9999,2466369612
72,3,4,T1_SMS_5,11,9999,9999,9999,2466869304
72,3,4,T1_SMS_5,12,9999,9999,9999,2467370048
72,3,4,T1_SMS_5,13,9999,9999,9999,2467869816
72,3,4,T1_SMS_5,14,9999,9999,9999,2468369512
72,3,4,T1_SMS_5,15,9999,9999,9999,2468869200
72,3,4,T1_SMS_5,16,9999,9999,9999,2469369920
72,3,4,T1_SMS_5,17,9999,9999,9999,2469869616
72,3,4,T1_SMS_5,18,9999,9999,9999,2470369388
72,3,4,T1_SMS_5,19,9999,9999,9999,2470870128
72,3,4,T1_SMS_5,20,9999,9999,9999,2471369828
72,3,4,T1_SMS_5,21,9999,9999,9999,2471869524
72,3,4,T1_SMS_5,22,9999,9999,9999,2472369212
72,3,4,T1_SMS_5,23,9999,9999,9999,2472869956
72,3,4,T1_SMS_5,24,9999,9999,9999,2473369652
72,3,4,T1_SMS_5,25,9999,9999,9999,2473869420
72,3,4,T1_SMS_5,26,9999,9999,9999,2474369116
72,3,4,T1_SMS_5,27,9999,9999,9999,2474869828
72,3,4,T1_SMS_5,28,9999,9999,9999,2475369524
72,3,4,T1_SMS_5,29,9999,9999,9999,2475869296
72,3,4,T1_SMS_5,30,9999,9999,9999,2476369984
72,3,4,T1_SMS_5,31,9999,9999,9999,2476869736
72,3,4,T1_SMS_5,32,9999,9999,9999,2477369432
72,3,4,T1_SMS_5,33,9999,9999,9999,2477869124
72,3,4,T1_SMS_5,34,9999,9999,9999,2478369860
72,3,4,T1_SMS_5,35,9999,9999,9999,2478869556
72,3,4,T1_SMS_5,36,9999,9999,9999,2479369324
72,3,4,T1_SMS_5,37,9999,9999,9999,2479870068
72,3,4,T1_SMS_5,38,9999,9999,9999,2480369760
72,3,4,T1_SMS_5,39,9999,9999,9999,2480869444
72,3,4,T1_SMS_5,40,9999,9999,9999,2481369140
72,3,4,T1_SMS_5,41,9999,9999,9999,2481869884
72,3,4,T1_SMS_5,42,9999,9999,9999,2482369652
72,3,4,T1_SMS_5,43,9999,9999,9999,2482869344
72,3,4,T1_SMS_5,44,9999,9999,9999,2483370080
72,3,4,T1_SMS_5,45,9999,9999,9999,2483869776
72,3,4,T1_SMS_5,46,9999,9999,9999,2484369524
72,3,4,T1_SMS_5,47,9999,9999,9999,2484869216
72,3,4,T1_SMS_5,48,9999,9999,9999,2485369912
72,3,4,T1_SMS_5,49,9999,9999,9999,2485869660
72,3,4,T1_SMS_5,50,9999,9999,9999,2486369360
72,3,4,T1_SMS_5,51,9999,9999,9999,2486870104
72,3,4,T1_SMS_5,52,9999,9999,9999,2487369776
72,3,4,T1_SMS_5,53,9999,9999,9999,2487869548
72,3,4,T1_SMS_5,54,9999,9999,9999,2488369240
72,3,4,T1_SMS_5,55,9999,9999,9999,2488869976
72,3,4,T1_SMS_5,56,9999,9999,9999,2489369672
72,3,4,T1_SMS_5,57,9999,9999,9999,2489869416
72,3,4,T1_SMS_5,58,9999,9999,9999,2490369112
72,3,4,T1_SMS_5,59,9999,9999,9999,2490869852
72,3,4,T1_SMS_5,60,9999,9999,9999,2491369548
72,3,4,T1_SMS_5,61,9999,9999,9999,2491869244
72,3,4,T1_SMS_5,62,9999,9999,9999,2492370036
72,3,4,T1_SMS_5,63,9999,9999,9999,2492869736
72,3,4,T1_SMS_5,64,9999,9999,9999,2493369428
72,3,4,T1_SMS_5,65,9999,9999,9999,2493869176
72,3,4,T1_SMS_5,66,9999,9999,9999,2494369896
72,3,4,T1_SMS_5,67,9999,9999,9999,2494869596
72,3,4,T1_SMS_5,68,9999,9999,9999,2495369292
72,3,4,T1_SMS_5,69,9999,9999,9999,2495870028
72,3,4,T1_SMS_5,70,9999,9999,9999,2496369772
72,3,4,T1_SMS_5,71,9999,9999,9999,2496869472
72,3,4,T1_SMS_5,72,9999,9999,9999,2497369168
72,3,4,T1_SMS_5,73,9999,9999,9999,2497869900
72,3,4,T1_SMS_5,74,9999,9999,9999,2498369600
72,3,4,T1_SMS_5,75,9999,9999,9999,2498869368
72,3,4,T1_SMS_5,76,9999,9999,9999,2499370036
72,3,4,T1_SMS_5,77,9999,9999,9999,2499869812
72,3,4,T1_SMS_5,78,9999,9999,9999,2500369504
72,3,4,T1_SMS_5,79,9999,9999,9999,2500869200
72,3,4,T1_SMS_5,80,9999,9999,9999,2501369944
72,3,4,T1_SMS_5,81,9999,9999,9999,2501869640
72,3,4,T1_SMS_5,82,9999,9999,9999,2502369332
72,3,4,T1_SMS_5,83,9999,9999,9999,2502870132
72,3,4,T1_SMS_5,84,9999,9999,9999,2503369824
72,3,4,T1_SMS_5,85,9999,9999,9999,2503869520
72,3,4,T1_SMS_5,86,9999,9999,9999,2504369216
72,3,4,T1_SMS_5,87,9999,9999,9999,2504869956
72,3,4,T1_SMS_5,88,9999,9999,9999,2505369720
72,3,4,T1_SMS_5,89,9999,9999,9999,2505869420
72,3,4,T1_SMS_5,90,9999,9999,9999,2506369116
72,3,4,T1_SMS_5,91,9999,9999,9999,2506869832
72,3,4,T1_SMS_5,92,9999,9999,9999,2507369528
72,3,4,T1_SMS_5,93,9999,9999,9999,2507869300
72,3,4,T1_SMS_5,94,9999,9999,9999,2508370040
72,3,4,T1_SMS_5,95,9999,9999,9999,2508869736
72,3,4,T1_SMS_5,96,9999,9999,9999,2509369424
72,3,4,T1_SMS_5,97,9999,9999,9999,2509869120
72,3,4,T1_SMS_5,98,9999,9999,9999,2510369908
72,3,4,T1_SMS_5,99,9999,9999,9999,2510869604
72,3,4,T1_SMS_5,100,9999,9999,9999,2511369300
72,3,4,T1_SMS_5,101,9999,9999,9999,2511870044
72,3,4,T1_SMS_5,102,9999,9999,9999,2512369716
72,3,4,T1_SMS_5,103,9999,9999,9999,2512869464
72,3,4,T1_SMS_5,104,9999,9999,9999,2513369160
72,3,4,T1_SMS_5,105,9999,9999,9999,2513869880
72,3,4,T1_SMS_5,106,9999,9999,9999,2514369652
72,3,4,T1_SMS_5,107,9999,9999,9999,2514869344
72,3,4,T1_SMS_5,108,9999,9999,9999,2515370092
72,3,4,T1_SMS_5,109,9999,9999,9999,2515869792
72,3,4,T1_SMS_5,110,9999,9999,9999,2516369484
72,3,4,T1_SMS_5,111,9999,9999,9999,2516869180
72,3,4,T1_SMS_5,112,9999,9999,9999,2517369972
72,3,4,T1_SMS_5,113,9999,9999,9999,2517869664
72,3,4,T1_SMS_5,114,9999,9999,9999,2518369360
72,3,4,T1_SMS_5,115,9999,9999,9999,2518870100
72,3,4,T1_SMS_5,116,9999,9999,9999,2519369848
72,3,4,T1_SMS_5,117,9999,9999,9999,2519869544
72,3,4,T1_SMS_5,118,9999,9999,9999,2520369236
72,3,4,T1_SMS_5,119,9999,9999,9999,2520869996
72,3,4,T1_SMS_5,120,9999,9999,9999,2521369720
72,3,4,T1_SMS_5,121,9999,9999,9999,2521869420
72,3,4,T1_SMS_5,122,9999,9999,9999,2522369116
72,3,4,T1_SMS_5,123,9999,9999,9999,2522869836
72,3,4,T1_SMS_5,124,9999,9999,9999,2523369528
72,3,4,T1_SMS_5,125,9999,9999,9999,2523869276
72,3,4,T1_SMS_5,126,9999,9999,9999,2524370016
72,3,4,T1_SMS_5,127,9999,9999,9999,2524869704
72,3,4,T1_SMS_5,128,9999,9999,9999,2525369400
72,3,4,T1_SMS_5,129,9999,9999,9999,2525869168
72,4,2,T1_SMS_8,0,5,42,127,2590071068
72,4,2,T1_SMS_8,1,5,42,127,2590870748
72,4,2,T1_SMS_8,2,1,48,19,2591069688
72,4,2,T1_SMS_8,3,5,42,127,2591670632
72,4,2,T1_SMS_8,4,1,48,31,2591713468
72,4,2,T1_SMS_8,5,5,42,127,2592471336
72,4,2,T1_SMS_8,6,1,48,30,2592506840
72,4,2,T1_SMS_8,7,5,42,127,2593270996
72,4,2,T1_SMS_8,8,1,48,33,2593301788
72,4,2,T1_SMS_8,9,5,42,127,2594070880
72,4,2,T1_SMS_8,10,1,48,38,2594079836
72,4,2,T1_SMS_8,11,5,42,127,2594870764
72,4,2,T1_SMS_8,12,1,48,35,2594906720
72,4,2,T1_SMS_8,13,5,42,127,2595671620
72,4,2,T1_SMS_8,14,1,48,33,2595719496
72,4,2,T1_SMS_8,15,5,42,127,2596471128
72,4,2,T1_SMS_8,16,1,48,29,2596473140
72,4,2,T1_SMS_8,17,5,42,127,2597270936
72,4,2,T1_SMS_8,18,1,48,26,2597278320
72,4,2,T1_SMS_8,19,1,48,38,2598046244
72,4,2,T1_SMS_8,20,5,42,127,2598070588
72,4,2,T1_SMS_8,21,5,42,127,2598871376
72,4,2,T1_SMS_8,22,1,48,30,2598905756
72,4,2,T1_SMS_8,23,5,42,127,2599671036
72,4,2,T1_SMS_8,24,1,48,29,2599698764
72,4,2,T1_SMS_8,25,5,42,127,2600470768
72,4,2,T1_SMS_8,26,1,48,34,2600504556
72,4,2,T1_SMS_8,27,1,48,34,2601255648
72,4,2,T1_SMS_8,28,5,42,127,2601270792
72,4,2,T1_SMS_8,29,1,48,35,2602048732
72,4,2,T1_SMS_8,30,5,42,127,2602071500
72,4,2,T1_SMS_8,31,1,48,34,2602868812
72,4,2,T1_SMS_8,32,5,42,127,2602871260
72,4,2,T1_SMS_8,33,1,48,36,2603648596
72,4,2,T1_SMS_8,34,5,42,127,2603670768
72,4,2,T1_SMS_8,35,1,48,30,2604389736
72,4,2,T1_SMS_8,36,5,42,127,2604470724
72,4,2,T1_SMS_8,37,1,48,28,2605169644
72,4,2,T1_SMS_8,38,5,42,127,2605271416
72,4,2,T1_SMS_8,39,1,48,28,2605968660
72,4,2,T1_SMS_8,40,5,42,127,2606071072
72,4,2,T1_SMS_8,41,1,48,28,2606755744
72,4,2,T1_SMS_8,42,5,42,127,2606870808
72,4,2,T1_SMS_8,43,1,48,20,2607599016
72,4,2,T1_SMS_8,44,5,42,127,2607670704
72,4,2,T1_SMS_8,45,1,48,29,2608448568
72,4,2,T1_SMS_8,46,5,42,127,2608471488
72,4,2,T1_SMS_8,47,1,48,34,2609243956
72,4,2,T1_SMS_8,48,5,42,127,2609271168
72,4,2,T1_SMS_8,49,1,48,30,2610064284
72,4,2,T1_SMS_8,50,5,42,127,2610070828
72,4,2,T1_SMS_8,51,1,48,34,2610832752
72,4,2,T1_SMS_8,52,5,42,127,2610870784
72,4,2,T1_SMS_8,53,5,42,127,2611671496
72,4,2,T1_SMS_8,54,1,48,39,2611672388
72,4,2,T1_SMS_8,55,5,42,127,2612471232
72,4,2,T1_SMS_8,56,1,48,38,2612499180
72,4,2,T1_SMS_8,57,1,48,38,2613265760
72,4,2,T1_SMS_8,58,5,42,127,2613270956
72,4,2,T1_SMS_8,59,1,48,35,2614060856
72,4,2,T1_SMS_8,60,5,42,127,2614070540
72,4,2,T1_SMS_8,61,1,48,36,2614863728
72,4,2,T1_SMS_8,62,5,42,127,2614871396
72,4,2,T1_SMS_8,63,1,48,32,2615629208
72,4,2,T1_SMS_8,64,5,42,127,2615671376
72,4,2,T1_SMS_8,65,1,48,32,2616388324
72,4,2,T1_SMS_8,66,5,42,127,2616470888
72,4,2,T1_SMS_8,67,1,48,29,2617160604
72,4,2,T1_SMS_8,68,5,42,127,2617270676
72,4,2,T1_SMS_8,69,1,48,36,2618007336
72,4,2,T1_SMS_8,70,5,42,127,2618071472
72,4,2,T1_SMS_8,71,1,48,31,2618826144
72,4,2,T1_SMS_8,72,5,42,127,2618871356
72,4,2,T1_SMS_8,73,1,48,41,2619658272
72,4,2,T1_SMS_8,74,5,42,127,2619671016
72,4,2,T1_SMS_8,75,5,42,127,2620470756
72,4,2,T1_SMS_8,76,1,48,41,2620509332
72,4,2,T1_SMS_8,77,5,42,127,2621271460
72,4,2,T1_SMS_8,78,1,48,37,2621308564
72,4,2,T1_SMS_8,79,5,42,127,2622071296
72,4,2,T1_SMS_8,80,1,48,36,2622127152
72,4,2,T1_SMS_8,81,5,42,127,2622870808
72,4,2,T1_SMS_8,82,1,48,37,2622910348
72,4,2,T1_SMS_8,83,5,42,127,2623670540
72,4,2,T1_SMS_8,84,1,48,33,2623700064
72,4,2,T1_SMS_8,85,1,48,29,2624447048
72,4,2,T1_SMS_8,86,5,42,127,2624471392
72,4,2,T1_SMS_8,87,1,48,30,2625238036
72,4,2,T1_SMS_8,88,5,42,127,2625271420
72,4,2,T1_SMS_8,89,5,42,127,2626071012
72,4,2,T1_SMS_8,90,1,48,32,2626075180
72,4,2,T1_SMS_8,91,5,42,127,2626870524
72,4,2,T1_SMS_8,92,1,48,31,2626904980
72,4,2,T1_SMS_8,93,5,42,127,2627671304
72,4,2,T1_SMS_8,94,1,48,33,2627716184
72,4,2,T1_SMS_8,95,5,42,127,2628471360
72,4,2,T1_SMS_8,96,1,48,40,2628478072
72,4,2,T1_SMS_8,97,5,42,127,2629270868
72,4,2,T1_SMS_8,98,1,48,31,2629276980
72,4,2,T1_SMS_8,99,1,48,41,2630065328
72,4,2,T1_SMS_8,100,5,42,127,2630070744
72,4,2,T1_SMS_8,101,1,48,39,2630828708
72,4,2,T1_SMS_8,102,5,42,127,2630871524
72,4,2,T1_SMS_8,103,1,48,38,2631653724
72,4,2,T1_SMS_8,104,5,42,127,2631671260
72,4,2,T1_SMS_8,105,1,48,34,2632437976
72,4,2,T1_SMS_8,106,5,42,127,2632470844
72,4,2,T1_SMS_8,107,1,48,35,2633234412
72,4,2,T1_SMS_8,108,5,42,127,2633270724
72,4,2,T1_SMS_8,109,1,48,34,2634060772
72,4,2,T1_SMS_8,110,5,42,127,2634071284
72,4,2,T1_SMS_8,111,1,48,32,2634838520
72,4,2,T1_SMS_8,112,5,42,127,2634871116
72,4,2,T1_SMS_8,113,1,48,32,2635601600
72,4,2,T1_SMS_8,114,5,42,127,2635671292
72,4,2,T1_SMS_8,115,1,48,29,2636386376
72,4,2,T1_SMS_8,116,5,42,127,2636470580
72,4,2,T1_SMS_8,117,1,48,33,2637129336
72,4,2,T1_SMS_8,118,5,42,127,2637271420
72,4,2,T1_SMS_8,119,1,48,28,2637995512
72,4,2,T1_SMS_8,120,5,42,127,2638071092
72,4,2,T1_SMS_8,121,1,48,28,2638743788
72,4,2,T1_SMS_8,122,5,42,127,2638871184
72,4,2,T1_SMS_8,123,1,48,29,2639589220
72,4,2,T1_SMS_8,124,5,42,127,2639670636
72,4,2,T1_SMS_8,125,1,48,29,2640443032
72,4,2,T1_SMS_8,126,5,42,127,2640471340
72,4,2,T1_SMS_8,127,5,42,127,2641271104
72,4,2,T1_SMS_8,128,1,48,27,2641284320
72,4,2,T1_SMS_8,129,5,42,127,2642070988
72,4,2,T1_SMS_8,130,1,48,31,2642086372
72,4,2,T1_SMS_8,131,5,42,127,2642870576
72,4,2,T1_SMS_8,132,1,48,28,2642922236
72,4,2,T1_SMS_8,133,5,42,127,2643671428
72,4,2,T1_SMS_8,134,1,48,29,2643716288
72,4,2,T1_SMS_8,135,5,42,127,2644471088
72,4,2,T1_SMS_8,136,1,48,25,2644559848
72,4,2,T1_SMS_8,137,5,42,127,2645270820
72,4,2,T1_SMS_8,138,1,48,29,2645347468
72,4,2,T1_SMS_8,139,1,48,30,2645984496
72,4,2,T1_SMS_8,140,5,42,127,2646070772
72,4,2,T1_SMS_8,141,1,48,25,2646745856
72,4,2,T1_SMS_8,142,5,42,127,2646871312
72,4,2,T1_SMS_8,143,1,48,24,2647522780
72,4,2,T1_SMS_8,144,5,42,127,2647671072
72,4,2,T1_SMS_8,145,1,48,21,2648312560
72,4,2,T1_SMS_8,146,5,42,127,2648470880
72,4,2,T1_SMS_8,147,1,48,19,2649123892
72,4,2,T1_SMS_8,148,5,42,127,2649270612
72,4,2,T1_SMS_8,149,5,42,127,2650071412
72,4,2,T1_SMS_8,150,1,48,29,2650108940
72,4,2,T1_SMS_8,151,5,42,127,2650871072
72,4,2,T1_SMS_8,152,1,48,22,2650913012
72,4,2,T1_SMS_8,153,1,48,23,2651642264
72,4,2,T1_SMS_8,154,5,42,127,2651670872
72,4,2,T1_SMS_8,155,1,48,22,2652452996
72,4,2,T1_SMS_8,156,5,42,127,2652470828
72,4,2,T1_SMS_8,157,5,42,127,2653271392
72,4,2,T1_SMS_8,158,1,48,26,2653281396
72,4,2,T1_SMS_8,159,5,42,127,2654071076
72,4,2,T1_SMS_8,160,1,48,22,2654100148
72,4,2,T1_SMS_8,161,5,42,127,2654871032
72,4,2,T1_SMS_8,162,1,48,23,2654877972
72,4,2,T1_SMS_8,163,1,48,32,2655668108
72,4,2,T1_SMS_8,164,5,42,127,2655670836
72,4,2,T1_SMS_8,165,5,42,127,2656471772
72,4,2,T1_SMS_8,166,1,48,27,2656500324
72,4,2,T1_SMS_8,167,5,42,127,2657271280
72,4,2,T1_SMS_8,168,1,48,28,2657321300
72,4,2,T1_SMS_8,169,5,42,127,2658070868
72,4,2,T1_SMS_8,170,1,48,32,2658153720
72,4,2,T1_SMS_8,171,5,42,127,2658870824
72,4,2,T1_SMS_8,172,1,48,28,2658979284
72,4,2,T1_SMS_8,173,5,42,127,2659671380
72,4,2,T1_SMS_8,174,1,48,29,2659790680
72,4,2,T1_SMS_8,175,5,42,127,2660471140
72,4,2,T1_SMS_8,176,1,48,29,2660568132
72,4,2,T1_SMS_8,177,5,42,127,2661270872
72,4,2,T1_SMS_8,178,1,48,22,2661307724
72,4,2,T1_SMS_8,179,1,48,22,2661972700
72,4,2,T1_SMS_8,180,5,42,127,2662070804
72,4,2,T1_SMS_8,181,1,48,24,2662669440
72,4,2,T1_SMS_8,182,5,42,127,2662871364
72,4,2,T1_SMS_8,183,1,48,21,2663579152
72,4,2,T1_SMS_8,184,5,42,127,2663671260
72,4,2,T1_SMS_8,185,1,48,27,2664396684
72,4,2,T1_SMS_8,186,5,42,127,2664470920
72,4,2,T1_SMS_8,187,1,48,28,2665265312
72,4,2,T1_SMS_8,188,5,42,127,2665271024
72,4,2,T1_SMS_8,189,5,42,127,2666071516
72,4,2,T1_SMS_8,190,1,48,29,2666100540
72,4,2,T1_SMS_8,191,5,42,127,2666871276
72,4,2,T1_SMS_8,192,1,48,27,2666916280
72,4,2,T1_SMS_8,193,5,42,127,2667670784
72,4,2,T1_SMS_8,194,1,48,28,2667698436
72,4,2,T1_SMS_8,195,1,48,24,2668434800
72,4,2,T1_SMS_8,196,5,42,127,2668470808
72,4,2,T1_SMS_8,197,1,48,22,2669250088
72,4,2,T1_SMS_8,198,5,42,127,2669271516
72,4,2,T1_SMS_8,199,5,42,127,2670071032
72,4,2,T1_SMS_8,200,1,48,27,2670076688
72,4,2,T1_SMS_8,201,1,48,27,2670865564
72,4,2,T1_SMS_8,202,5,42,127,2670870832
72,4,2,T1_SMS_8,203,5,42,127,2671670648
72,4,2,T1_SMS_8,204,1,48,29,2671710268
72,4,2,T1_SMS_8,205,5,42,127,2672471576
72,4,2,T1_SMS_8,206,1,48,24,2672520796
72,4,2,T1_SMS_8,207,5,42,127,2673271112
72,4,2,T1_SMS_8,208,1,48,25,2673359348
72,4,2,T1_SMS_8,209,5,42,127,2674070844
72,4,2,T1_SMS_8,210,1,48,26,2674114728
72,4,2,T1_SMS_8,211,5,42,127,2674870576
72,4,2,T1_SMS_8,212,1,48,22,2674895832
72,4,2,T1_SMS_8,213,1,48,29,2675649400
72,4,2,T1_SMS_8,214,5,42,127,2675671424
72,4,2,T1_SMS_8,215,5,42,127,2676471092
72,4,2,T1_SMS_8,216,1,48,34,2676507568
72,4,2,T1_SMS_8,217,5,42,127,2677270824
72,4,2,T1_SMS_8,218,1,48,30,2677322408
72,4,2,T1_SMS_8,219,5,42,127,2678070632
72,4,2,T1_SMS_8,220,1,48,38,2678171836
72,4,2,T1_SMS_8,221,5,42,127,2678871560
72,4,2,T1_SMS_8,222,1,48,30,2678990788
72,4,2,T1_SMS_8,223,5,42,127,2679671020
72,4,2,T1_SMS_8,224,1,48,36,2679712812
72,4,2,T1_SMS_8,225,1,48,32,2680397312
72,4,2,T1_SMS_8,226,5,42,127,2680470972
72,4,2,T1_SMS_8,227,1,48,29,2681136984
72,4,2,T1_SMS_8,228,5,42,127,2681270688
72,4,2,T1_SMS_8,229,1,48,36,2681961100
72,4,2,T1_SMS_8,230,5,42,127,2682071544
72,4,2,T1_SMS_8,231,1,48,37,2682844104
72,4,2,T1_SMS_8,232,5,42,127,2682871072
72,4,2,T1_SMS_8,233,5,42,127,2683670884
72,4,2,T1_SMS_8,234,1,48,42,2683672896
72,4,2,T1_SMS_8,235,5,42,127,2684470620
72,4,2,T1_SMS_8,236,1,48,37,2684499024
72,4,2,T1_SMS_8,237,5,42,127,2685271400
72,4,2,T1_SMS_8,238,1,48,37,2685326456
72,4,2,T1_SMS_8,239,1,48,37,2686062192
72,4,2,T1_SMS_8,0,9999,9999,9999,2590068856
72,4,2,T1_SMS_8,1,9999,9999,9999,2590868532
72,4,2,T1_SMS_8,2,9999,9999,9999,2591668344
72,4,2,T1_SMS_8,3,9999,9999,9999,2592469048
72,4,2,T1_SMS_8,4,9999,9999,9999,2593268780
72,4,2,T1_SMS_8,5,9999,9999,9999,2594068592
72,4,2,T1_SMS_8,6,9999,9999,9999,2594868324
72,4,2,T1_SMS_8,7,9999,9999,9999,2595669108
72,4,2,T1_SMS_8,8,9999,9999,9999,2596468840
72,4,2,T1_SMS_8,9,9999,9999,9999,2597268572
72,4,2,T1_SMS_8,10,9999,9999,9999,2598068300
72,4,2,T1_SMS_8,11,9999,9999,9999,2598869088
72,4,2,T1_SMS_8,12,9999,9999,9999,2599668820
72,4,2,T1_SMS_8,13,9999,9999,9999,2600468556
72,4,2,T1_SMS_8,14,9999,9999,9999,2601268284
72,4,2,T1_SMS_8,15,9999,9999,9999,2602069064
72,4,2,T1_SMS_8,16,9999,9999,9999,2602868872
72,4,2,T1_SMS_8,17,9999,9999,9999,2603668556
72,4,2,T1_SMS_8,18,9999,9999,9999,2604468288
72,4,2,T1_SMS_8,19,9999,9999,9999,2605269052
72,4,2,T1_SMS_8,20,9999,9999,9999,2606068784
72,4,2,T1_SMS_8,21,9999,9999,9999,2606868592
72,4,2,T1_SMS_8,22,9999,9999,9999,2607668340
72,4,2,T1_SMS_8,23,9999,9999,9999,2608469048
72,4,2,T1_SMS_8,24,9999,9999,9999,2609268780
72,4,2,T1_SMS_8,25,9999,9999,9999,2610068540
72,4,2,T1_SMS_8,26,9999,9999,9999,2610868272
72,4,2,T1_SMS_8,27,9999,9999,9999,2611669060
72,4,2,T1_SMS_8,28,9999,9999,9999,2612468792
72,4,2,T1_SMS_8,29,9999,9999,9999,2613268592
72,4,2,T1_SMS_8,30,9999,9999,9999,2614068328
72,4,2,T1_SMS_8,31,9999,9999,9999,2614869104
72,4,2,T1_SMS_8,32,9999,9999,9999,2615668840
72,4,2,T1_SMS_8,33,9999,9999,9999,2616468600
72,4,2,T1_SMS_8,34,9999,9999,9999,2617268316
72,4,2,T1_SMS_8,35,9999,9999,9999,2618069112
72,4,2,T1_SMS_8,36,9999,9999,9999,2618868844
72,4,2,T1_SMS_8,37,9999,9999,9999,2619668580
72,4,2,T1_SMS_8,38,9999,9999,9999,2620468320
72,4,2,T1_SMS_8,39,9999,9999,9999,2621269100
72,4,2,T1_SMS_8,40,9999,9999,9999,2622068832
72,4,2,T1_SMS_8,41,9999,9999,9999,2622868592
72,4,2,T1_SMS_8,42,9999,9999,9999,2623668328
72,4,2,T1_SMS_8,43,9999,9999,9999,2624469100
72,4,2,T1_SMS_8,44,9999,9999,9999,2625268836
72,4,2,T1_SMS_8,45,9999,9999,9999,2626068576
72,4,2,T1_SMS_8,46,9999,9999,9999,2626868308
72,4,2,T1_SMS_8,47,9999,9999,9999,2627669088
72,4,2,T1_SMS_8,48,9999,9999,9999,2628468824
72,4,2,T1_SMS_8,49,9999,9999,9999,2629268580
72,4,2,T1_SMS_8,50,9999,9999,9999,2630068308
72,4,2,T1_SMS_8,51,9999,9999,9999,2630869088
72,4,2,T1_SMS_8,52,9999,9999,9999,2631668824
72,4,2,T1_SMS_8,53,9999,9999,9999,2632468556
72,4,2,T1_SMS_8,54,9999,9999,9999,2633268288
72,4,2,T1_SMS_8,55,9999,9999,9999,2634069068
72,4,2,T1_SMS_8,56,9999,9999,9999,2634868824
72,4,2,T1_SMS_8,57,9999,9999,9999,2635668560
72,4,2,T1_SMS_8,58,9999,9999,9999,2636468296
72,4,2,T1_SMS_8,59,9999,9999,9999,2637269056
72,4,2,T1_SMS_8,60,9999,9999,9999,2638068804
72,4,2,T1_SMS_8,61,9999,9999,9999,2638868596
72,4,2,T1_SMS_8,62,9999,9999,9999,2639668272
72,4,2,T1_SMS_8,63,9999,9999,9999,2640469052
72,4,2,T1_SMS_8,64,9999,9999,9999,2641268816
72,4,2,T1_SMS_8,65,9999,9999,9999,2642068552
72,4,2,T1_SMS_8,66,9999,9999,9999,2642868284
72,4,2,T1_SMS_8,67,9999,9999,9999,2643669064
72,4,2,T1_SMS_8,68,9999,9999,9999,2644468800
72,4,2,T1_SMS_8,69,9999,9999,9999,2645268532
72,4,2,T1_SMS_8,70,9999,9999,9999,2646068332
72,4,2,T1_SMS_8,71,9999,9999,9999,2646869100
72,4,2,T1_SMS_8,72,9999,9999,9999,2647668784
72,4,2,T1_SMS_8,73,9999,9999,9999,2648468592
72,4,2,T1_SMS_8,74,9999,9999,9999,2649268324
72,4,2,T1_SMS_8,75,9999,9999,9999,2650069048
72,4,2,T1_SMS_8,76,9999,9999,9999,2650868784
72,4,2,T1_SMS_8,77,9999,9999,9999,2651668584
72,4,2,T1_SMS_8,78,9999,9999,9999,2652468316
72,4,2,T1_SMS_8,79,9999,9999,9999,2653269104
72,4,2,T1_SMS_8,80,9999,9999,9999,2654068788
72,4,2,T1_SMS_8,81,9999,9999,9999,2654868596
72,4,2,T1_SMS_8,82,9999,9999,9999,2655668324
72,4,2,T1_SMS_8,83,9999,9999,9999,2656469112
72,4,2,T1_SMS_8,84,9999,9999,9999,2657268844
72,4,2,T1_SMS_8,85,9999,9999,9999,2658068576
72,4,2,T1_SMS_8,86,9999,9999,9999,2658868312
72,4,2,T1_SMS_8,87,9999,9999,9999,2659669092
72,4,2,T1_SMS_8,88,9999,9999,9999,2660468848
72,4,2,T1_SMS_8,89,9999,9999,9999,2661268584
72,4,2,T1_SMS_8,90,9999,9999,9999,2662068292
72,4,2,T1_SMS_8,91,9999,9999,9999,2662869072
72,4,2,T1_SMS_8,92,9999,9999,9999,2663668820
72,4,2,T1_SMS_8,93,9999,9999,9999,2664468556
72,4,2,T1_SMS_8,94,9999,9999,9999,2665268292
72,4,2,T1_SMS_8,95,9999,9999,9999,2666069080
72,4,2,T1_SMS_8,96,9999,9999,9999,2666868836
72,4,2,T1_SMS_8,97,9999,9999,9999,2667668568
72,4,2,T1_SMS_8,98,9999,9999,9999,2668468300
72,4,2,T1_SMS_8,99,9999,9999,9999,2669269076
72,4,2,T1_SMS_8,100,9999,9999,9999,2670068820
72,4,2,T1_SMS_8,101,9999,9999,9999,2670868544
72,4,2,T1_SMS_8,102,9999,9999,9999,2671668284
72,4,2,T1_SMS_8,103,9999,9999,9999,2672469064
72,4,2,T1_SMS_8,104,9999,9999,9999,2673268824
72,4,2,T1_SMS_8,105,9999,9999,9999,2674068556
72,4,2,T1_SMS_8,106,9999,9999,9999,2674868288
72,4,2,T1_SMS_8,107,9999,9999,9999,2675669060
72,4,2,T1_SMS_8,108,9999,9999,9999,2676468804
72,4,2,T1_SMS_8,109,9999,9999,9999,2677268536
72,4,2,T1_SMS_8,110,9999,9999,9999,2678068344
72,4,2,T1_SMS_8,111,9999,9999,9999,2678869048
72,4,2,T1_SMS_8,112,9999,9999,9999,2679668808
72,4,2,T1_SMS_8,113,9999,9999,9999,2680468532
72,4,2,T1_SMS_8,114,9999,9999,9999,2681268328
72,4,2,T1_SMS_8,115,9999,9999,9999,2682069108
72,4,2,T1_SMS_8,116,9999,9999,9999,2682868780
72,4,2,T1_SMS_8,117,9999,9999,9999,2683668596
72,4,2,T1_SMS_8,118,9999,9999,9999,2684468332
72,4,2,T1_SMS_8,119,9999,9999,9999,2685269112
72,5,21,Ticks_Linear_5,0,5,42,127,2696378616
72,5,21,Ticks_Linear_5,1,5,42,127,2696859160
72,5,21,Ticks_Linear_5,2,1,48,21,2697160656
72,5,21,Ticks_Linear_5,3,5,42,127,2697339168
72,5,21,Ticks_Linear_5,4,1,48,27,2697580204
72,5,21,Ticks_Linear_5,5,5,42,127,2697818472
72,5,21,Ticks_Linear_5,6,1,48,22,2698032272
72,5,21,Ticks_Linear_5,7,5,42,127,2698298624
72,5,21,Ticks_Linear_5,8,1,48,29,2698455136
72,5,21,Ticks_Linear_5,9,5,42,127,2698789260
72,5,21,Ticks_Linear_5,10,1,48,26,2698842328
72,5,21,Ticks_Linear_5,11,5,42,127,2699278628
72,5,21,Ticks_Linear_5,12,1,48,23,2699312448
72,5,21,Ticks_Linear_5,13,5,42,127,2699769188
72,5,21,Ticks_Linear_5,14,1,48,27,2699778228
72,5,21,Ticks_Linear_5,15,5,42,127,2700258776
72,5,21,Ticks_Linear_5,16,1,48,30,2700267512
72,5,21,Ticks_Linear_5,17,5,42,127,2700749264
72,5,21,Ticks_Linear_5,18,1,48,30,2700759800
72,5,21,Ticks_Linear_5,19,5,42,127,2701249112
72,5,21,Ticks_Linear_5,20,1,48,34,2701250524
72,5,21,Ticks_Linear_5,21,5,42,127,2701748588
72,5,21,Ticks_Linear_5,22,1,48,29,2701760696
72,5,21,Ticks_Linear_5,23,1,48,30,2702240300
72,5,21,Ticks_Linear_5,24,5,42,127,2702249328
72,5,21,Ticks_Linear_5,25,5,42,127,2702749184
72,5,21,Ticks_Linear_5,26,1,48,30,2702757548
72,5,21,Ticks_Linear_5,27,1,48,29,2703227128
72,5,21,Ticks_Linear_5,28,5,42,127,2703248728
72,5,21,Ticks_Linear_5,29,5,42,127,2703758768
72,5,21,Ticks_Linear_5,30,1,48,29,2703764508
72,5,21,Ticks_Linear_5,31,1,48,28,2704258348
72,5,21,Ticks_Linear_5,32,5,42,127,2704268644
72,5,21,Ticks_Linear_5,33,1,48,30,2704775340
72,5,21,Ticks_Linear_5,34,5,42,127,2704778604
72,5,21,Ticks_Linear_5,35,5,42,127,2705288424
72,5,21,Ticks_Linear_5,36,1,48,31,2705306900
72,5,21,Ticks_Linear_5,37,5,42,127,2705798456
72,5,21,Ticks_Linear_5,38,1,48,27,2705805088
72,5,21,Ticks_Linear_5,39,5,42,127,2706318676
72,5,21,Ticks_Linear_5,40,1,48,29,2706334968
72,5,21,Ticks_Linear_5,41,1,48,32,2706813528
72,5,21,Ticks_Linear_5,42,5,42,127,2706838884
72,5,21,Ticks_Linear_5,43,1,48,35,2707336380
72,5,21,Ticks_Linear_5,44,5,42,127,2707358956
72,5,21,Ticks_Linear_5,45,1,48,29,2707860488
72,5,21,Ticks_Linear_5,46,5,42,127,2707879252
72,5,21,Ticks_Linear_5,47,1,48,27,2708372016
72,5,21,Ticks_Linear_5,48,5,42,127,2708398348
72,5,21,Ticks_Linear_5,49,1,48,31,2708891936
72,5,21,Ticks_Linear_5,50,5,42,127,2708928824
72,5,21,Ticks_Linear_5,51,1,48,33,2709411256
72,5,21,Ticks_Linear_5,52,5,42,127,2709459448
72,5,21,Ticks_Linear_5,53,1,48,29,2709949748
72,5,21,Ticks_Linear_5,54,5,42,127,2709988880
72,5,21,Ticks_Linear_5,55,1,48,30,2710446064
72,5,21,Ticks_Linear_5,56,5,42,127,2710519208
72,5,21,Ticks_Linear_5,57,1,48,29,2711018048
72,5,21,Ticks_Linear_5,58,5,42,127,2711048564
72,5,21,Ticks_Linear_5,59,1,48,28,2711552340
72,5,21,Ticks_Linear_5,60,5,42,127,2711589228
72,5,21,Ticks_Linear_5,61,1,48,29,2712100120
72,5,21,Ticks_Linear_5,62,5,42,127,2712129064
72,5,21,Ticks_Linear_5,63,1,48,30,2712666344
72,5,21,Ticks_Linear_5,64,5,42,127,2712668532
72,5,21,Ticks_Linear_5,65,5,42,127,2713209148
72,5,21,Ticks_Linear_5,66,1,48,32,2713266940
72,5,21,Ticks_Linear_5,67,1,48,26,2713744892
72,5,21,Ticks_Linear_5,68,5,42,127,2713749056
72,5,21,Ticks_Linear_5,69,1,48,24,2714227756
72,5,21,Ticks_Linear_5,70,5,42,127,2714298856
72,5,21,Ticks_Linear_5,71,1,48,25,2714769012
72,5,21,Ticks_Linear_5,72,5,42,127,2714848732
72,5,21,Ticks_Linear_5,73,1,48,22,2715312664
72,5,21,Ticks_Linear_5,74,5,42,127,2715398384
72,5,21,Ticks_Linear_5,75,1,48,24,2715860596
72,5,21,Ticks_Linear_5,76,5,42,127,2715949380
72,5,21,Ticks_Linear_5,77,5,42,127,2716508400
72,5,21,Ticks_Linear_5,78,1,48,22,2716546372
72,5,21,Ticks_Linear_5,79,5,42,127,2717068852
72,5,21,Ticks_Linear_5,80,1,48,27,2717076848
72,5,21,Ticks_Linear_5,81,1,48,26,2717613880
72,5,21,Ticks_Linear_5,82,5,42,127,2717628904
72,5,21,Ticks_Linear_5,83,1,48,25,2718141596
72,5,21,Ticks_Linear_5,84,5,42,127,2718188892
72,5,21,Ticks_Linear_5,85,1,48,24,2718669376
72,5,21,Ticks_Linear_5,86,5,42,127,2718749020
72,5,21,Ticks_Linear_5,87,1,48,23,2719233772
72,5,21,Ticks_Linear_5,88,5,42,127,2719309156
72,5,21,Ticks_Linear_5,89,1,48,24,2719797060
72,5,21,Ticks_Linear_5,90,5,42,127,2719878452
72,5,21,Ticks_Linear_5,91,1,48,26,2720344528
72,5,21,Ticks_Linear_5,92,5,42,127,2720448976
72,5,21,Ticks_Linear_5,93,1,48,22,2720940564
72,5,21,Ticks_Linear_5,94,5,42,127,2721019308
72,5,21,Ticks_Linear_5,95,1,48,28,2721508864
72,5,21,Ticks_Linear_5,96,5,42,127,2721588880
72,5,21,Ticks_Linear_5,97,1,48,26,2722122160
72,5,21,Ticks_Linear_5,98,5,42,127,2722159048
72,5,21,Ticks_Linear_5,99,1,48,25,2722696064
72,5,21,Ticks_Linear_5,100,5,42,127,2722738504
72,5,21,Ticks_Linear_5,101,1,48,27,2723270140
72,5,21,Ticks_Linear_5,102,5,42,127,2723319304
72,5,21,Ticks_Linear_5,103,1,48,26,2723858060
72,5,21,Ticks_Linear_5,104,5,42,127,2723898912
72,5,21,Ticks_Linear_5,105,1,48,27,2724441476
72,5,21,Ticks_Linear_5,106,5,42,127,2724479288
72,5,21,Ticks_Linear_5,107,1,48,26,2725020960
72,5,21,Ticks_Linear_5,108,5,42,127,2725058892
72,5,21,Ticks_Linear_5,109,1,48,28,2725642720
72,5,21,Ticks_Linear_5,110,5,42,127,2725648904
72,5,21,Ticks_Linear_5,111,1,48,28,2726199788
72,5,21,Ticks_Linear_5,112,5,42,127,2726238620
72,5,21,Ticks_Linear_5,113,1,48,31,2726749060
72,5,21,Ticks_Linear_5,114,5,42,127,2726829332
72,5,21,Ticks_Linear_5,115,1,48,26,2727375784
72,5,21,Ticks_Linear_5,116,5,42,127,2727428632
72,5,21,Ticks_Linear_5,117,1,48,30,2727940500
72,5,21,Ticks_Linear_5,118,5,42,127,2728019320
72,5,21,Ticks_Linear_5,119,1,48,28,2728554696
72,5,21,Ticks_Linear_5,120,5,42,127,2728619320
72,5,21,Ticks_Linear_5,121,1,48,25,2729169528
72,5,21,Ticks_Linear_5,122,5,42,127,2729218692
72,5,21,Ticks_Linear_5,123,1,48,27,2729795780
72,5,21,Ticks_Linear_5,124,5,42,127,2729818444
72,5,21,Ticks_Linear_5,125,1,48,30,2730354216
72,5,21,Ticks_Linear_5,126,5,42,127,2730418740
72,5,21,Ticks_Linear_5,127,1,48,26,2730932252
72,5,21,Ticks_Linear_5,128,5,42,127,2731018788
72,5,21,Ticks_Linear_5,129,1,48,27,2731523832
72,5,21,Ticks_Linear_5,130,5,42,127,2731628856
72,5,21,Ticks_Linear_5,131,1,48,27,2732136380
72,5,21,Ticks_Linear_5,132,5,42,127,2732239188
72,5,21,Ticks_Linear_5,133,1,48,30,2732780348
72,5,21,Ticks_Linear_5,134,5,42,127,2732848688
72,5,21,Ticks_Linear_5,135,1,48,28,2733345344
72,5,21,Ticks_Linear_5,136,5,42,127,2733458708
72,5,21,Ticks_Linear_5,137,1,48,27,2733976960
72,5,21,Ticks_Linear_5,138,5,42,127,2734069108
72,5,21,Ticks_Linear_5,139,1,48,25,2734570112
72,5,21,Ticks_Linear_5,140,5,42,127,2734688608
72,5,21,Ticks_Linear_5,141,1,48,25,2735188212
72,5,21,Ticks_Linear_5,142,5,42,127,2735309052
72,5,21,Ticks_Linear_5,143,1,48,23,2735817940
72,5,21,Ticks_Linear_5,144,5,42,127,2735928720
72,5,21,Ticks_Linear_5,145,1,48,24,2736422324
72,5,21,Ticks_Linear_5,146,5,42,127,2736549236
72,5,21,Ticks_Linear_5,147,1,48,27,2737091220
72,5,21,Ticks_Linear_5,148,5,42,127,2737168772
72,5,21,Ticks_Linear_5,149,1,48,24,2737741220
72,5,21,Ticks_Linear_5,150,5,42,127,2737798724
72,5,21,Ticks_Linear_5,151,1,48,28,2738408244
72,5,21,Ticks_Linear_5,152,5,42,127,2738429400
72,5,21,Ticks_Linear_5,153,5,42,127,2739059060
72,5,21,Ticks_Linear_5,154,1,48,22,2739069000
72,5,21,Ticks_Linear_5,155,5,42,127,2739688768
72,5,21,Ticks_Linear_5,156,1,48,22,2739703564
72,5,21,Ticks_Linear_5,157,5,42,127,2740318472
72,5,21,Ticks_Linear_5,158,1,48,23,2740341836
72,5,21,Ticks_Linear_5,159,5,42,127,2740958608
72,5,21,Ticks_Linear_5,160,1,48,21,2740961728
72,5,21,Ticks_Linear_5,161,1,48,24,2741553736
72,5,21,Ticks_Linear_5,162,5,42,127,2741598564
72,5,21,Ticks_Linear_5,163,1,48,24,2742169244
72,5,21,Ticks_Linear_5,164,5,42,127,2742238552
72,5,21,Ticks_Linear_5,165,1,48,21,2742793620
72,5,21,Ticks_Linear_5,166,5,42,127,2742878668
72,5,21,Ticks_Linear_5,167,1,48,26,2743438932
72,5,21,Ticks_Linear_5,168,5,42,127,2743518504
72,5,21,Ticks_Linear_5,169,1,48,27,2744083160
72,5,21,Ticks_Linear_5,170,5,42,127,2744168800
72,5,21,Ticks_Linear_5,171,1,48,23,2744792016
72,5,21,Ticks_Linear_5,172,5,42,127,2744818948
72,5,21,Ticks_Linear_5,173,1,48,20,2745449592
72,5,21,Ticks_Linear_5,174,5,42,127,2745469496
72,5,21,Ticks_Linear_5,175,1,48,21,2746078944
72,5,21,Ticks_Linear_5,176,5,42,127,2746118596
72,5,21,Ticks_Linear_5,177,1,48,25,2746711860
72,5,21,Ticks_Linear_5,178,5,42,127,2746768696
72,5,21,Ticks_Linear_5,179,1,48,22,2747384496
72,5,21,Ticks_Linear_5,180,5,42,127,2747429328
72,5,21,Ticks_Linear_5,181,1,48,24,2748014276
72,5,21,Ticks_Linear_5,182,5,42,127,2748088564
72,5,21,Ticks_Linear_5,183,1,48,22,2748683772
72,5,21,Ticks_Linear_5,184,5,42,127,2748749192
72,5,21,Ticks_Linear_5,185,1,48,26,2749354836
72,5,21,Ticks_Linear_5,186,5,42,127,2749408508
72,5,21,Ticks_Linear_5,187,5,42,127,2750069092
72,5,21,Ticks_Linear_5,188,1,48,21,2750069984
72,5,21,Ticks_Linear_5,189,5,42,127,2750738860
72,5,21,Ticks_Linear_5,190,1,48,19,2750745720
72,5,21,Ticks_Linear_5,191,1,48,23,2751334136
72,5,21,Ticks_Linear_5,192,5,42,127,2751408424
72,5,21,Ticks_Linear_5,193,1,48,20,2751976068
72,5,21,Ticks_Linear_5,194,5,42,127,2752079372
72,5,21,Ticks_Linear_5,195,1,48,16,2752630444
72,5,21,Ticks_Linear_5,196,5,42,127,2752749020
72,5,21,Ticks_Linear_5,197,1,48,25,2753324920
72,5,21,Ticks_Linear_5,198,5,42,127,2753418516
72,5,21,Ticks_Linear_5,199,1,48,27,2753989628
72,5,21,Ticks_Linear_5,200,5,42,127,2754098540
72,5,21,Ticks_Linear_5,201,1,48,28,2754664108
72,5,21,Ticks_Linear_5,202,5,42,127,2754778444
72,5,21,Ticks_Linear_5,203,1,48,27,2755356904
72,5,21,Ticks_Linear_5,204,5,42,127,2755458420
72,5,21,Ticks_Linear_5,205,1,48,28,2756084948
72,5,21,Ticks_Linear_5,206,5,42,127,2756139288
72,5,21,Ticks_Linear_5,207,1,48,36,2756799080
72,5,21,Ticks_Linear_5,208,5,42,127,2756819340
72,5,21,Ticks_Linear_5,209,1,48,33,2757485540
72,5,21,Ticks_Linear_5,210,5,42,127,2757508456
72,5,21,Ticks_Linear_5,211,1,48,38,2758145676
72,5,21,Ticks_Linear_5,212,5,42,127,2758198596
72,5,21,Ticks_Linear_5,213,1,48,37,2758856280
72,5,21,Ticks_Linear_5,214,5,42,127,2758888688
72,5,21,Ticks_Linear_5,215,1,48,33,2759566680
72,5,21,Ticks_Linear_5,216,5,42,127,2759579144
72,5,21,Ticks_Linear_5,217,1,48,34,2760231348
72,5,21,Ticks_Linear_5,218,5,42,127,2760269356
72,5,21,Ticks_Linear_5,219,1,48,30,2760909308
72,5,21,Ticks_Linear_5,220,5,42,127,2760968512
72,5,21,Ticks_Linear_5,221,1,48,33,2761617148
72,5,21,Ticks_Linear_5,222,5,42,127,2761669156
72,5,21,Ticks_Linear_5,223,1,48,40,2762363616
72,5,21,Ticks_Linear_5,224,5,42,127,2762369428
72,5,21,Ticks_Linear_5,225,1,48,35,2763045736
72,5,21,Ticks_Linear_5,226,5,42,127,2763068704
72,5,21,Ticks_Linear_5,227,1,48,34,2763737116
72,5,21,Ticks_Linear_5,228,5,42,127,2763769348
72,5,21,Ticks_Linear_5,229,1,48,37,2764443144
72,5,21,Ticks_Linear_5,230,5,42,127,2764479132
72,5,21,Ticks_Linear_5,231,1,48,39,2765178768
72,5,21,Ticks_Linear_5,232,5,42,127,2765188692
72,5,21,Ticks_Linear_5,233,1,48,35,2765845452
72,5,21,Ticks_Linear_5,234,5,42,127,2765899052
72,5,21,Ticks_Linear_5,235,1,48,38,2766544608
72,5,21,Ticks_Linear_5,236,5,42,127,2766608832
72,5,21,Ticks_Linear_5,237,1,48,39,2767250804
72,5,21,Ticks_Linear_5,238,5,42,127,2767319440
72,5,21,Ticks_Linear_5,239,1,48,29,2767935388
72,5,21,Ticks_Linear_5,240,5,42,127,2768039244
72,5,21,Ticks_Linear_5,241,1,48,30,2768545128
72,5,21,Ticks_Linear_5,242,5,42,127,2768759212
72,5,21,Ticks_Linear_5,243,1,48,35,2769279260
72,5,21,Ticks_Linear_5,244,5,42,127,2769479228
72,5,21,Ticks_Linear_5,245,1,48,28,2769983768
72,5,21,Ticks_Linear_5,246,5,42,127,2770198976
72,5,21,Ticks_Linear_5,247,1,48,33,2770669292
72,5,21,Ticks_Linear_5,248,5,42,127,2770918720
72,5,21,Ticks_Linear_5,249,1,48,33,2771389412
72,5,21,Ticks_Linear_5,250,5,42,127,2771649096
72,5,21,Ticks_Linear_5,251,1,48,37,2772098452
72,5,21,Ticks_Linear_5,252,5,42,127,2772379248
72,5,21,Ticks_Linear_5,253,1,48,33,2772810228
72,5,21,Ticks_Linear_5,254,5,42,127,2773109176
72,5,21,Ticks_Linear_5,255,1,48,32,2773548324
72,5,21,Ticks_Linear_5,256,5,42,127,2773839228
72,5,21,Ticks_Linear_5,257,1,48,23,2774239532
72,5,21,Ticks_Linear_5,258,5,42,127,2774569384
72,5,21,Ticks_Linear_5,259,1,48,30,2774936124
72,5,21,Ticks_Linear_5,260,5,42,127,2775308524
72,5,21,Ticks_Linear_5,261,1,48,28,2775716672
72,5,21,Ticks_Linear_5,262,5,42,127,2776049008
72,5,21,Ticks_Linear_5,263,1,48,33,2776556088
72,5,21,Ticks_Linear_5,264,5,42,127,2776789348
72,5,21,Ticks_Linear_5,265,1,48,26,2777131728
72,5,21,Ticks_Linear_5,266,5,42,127,2777528564
72,5,21,Ticks_Linear_5,267,1,48,26,2777856720
72,5,21,Ticks_Linear_5,268,5,42,127,2778269048
72,5,21,Ticks_Linear_5,269,1,48,33,2778586876
72,5,21,Ticks_Linear_5,270,5,42,127,2779018600
72,5,21,Ticks_Linear_5,271,1,48,30,2779270968
72,5,21,Ticks_Linear_5,272,5,42,127,2779769196
72,5,21,Ticks_Linear_5,273,1,48,17,2779941560
72,5,21,Ticks_Linear_5,274,1,48,28,2780508492
72,5,21,Ticks_Linear_5,275,5,42,127,2780519012
72,5,21,Ticks_Linear_5,276,1,48,27,2781200972
72,5,21,Ticks_Linear_5,277,5,42,127,2781269460
72,5,21,Ticks_Linear_5,278,1,48,31,2781880580
72,5,21,Ticks_Linear_5,279,5,42,127,2782019068
72,5,21,Ticks_Linear_5,280,1,48,38,2782520912
72,5,21,Ticks_Linear_5,281,5,42,127,2782778876
72,5,21,Ticks_Linear_5,282,1,48,31,2783299072
72,5,21,Ticks_Linear_5,283,5,42,127,2783538460
72,5,21,Ticks_Linear_5,284,1,48,34,2784034236
72,5,21,Ticks_Linear_5,285,5,42,127,2784299316
72,5,21,Ticks_Linear_5,286,1,48,35,2784796976
72,5,21,Ticks_Linear_5,287,5,42,127,2785059052
72,5,21,Ticks_Linear_5,288,1,48,33,2785539632
72,5,21,Ticks_Linear_5,289,5,42,127,2785819008
72,5,21,Ticks_Linear_5,290,1,48,35,2786254424
72,5,21,Ticks_Linear_5,291,5,42,127,2786589004
72,5,21,Ticks_Linear_5,292,1,48,41,2787048840
72,5,21,Ticks_Linear_5,293,5,42,127,2787359072
72,5,21,Ticks_Linear_5,294,1,48,40,2787784224
72,5,21,Ticks_Linear_5,295,5,42,127,2788129212
72,5,21,Ticks_Linear_5,296,1,48,44,2788573616
72,5,21,Ticks_Linear_5,297,5,42,127,2788899204
72,5,21,Ticks_Linear_5,298,1,48,41,2789349004
72,5,21,Ticks_Linear_5,299,5,42,127,2789669200
72,5,21,Ticks_Linear_5,300,1,48,42,2790131576
72,5,21,Ticks_Linear_5,301,5,42,127,2790448556
72,5,21,Ticks_Linear_5,302,1,48,40,2790979532
72,5,21,Ticks_Linear_5,303,5,42,127,2791228808
72,5,21,Ticks_Linear_5,304,5,42,127,2792009004
72,5,21,Ticks_Linear_5,305,1,48,43,2792324896
72,5,21,Ticks_Linear_5,306,5,42,127,2792789332
72,5,21,Ticks_Linear_5,307,1,48,41,2792952884
72,5,21,Ticks_Linear_5,308,5,42,127,2793568836
72,5,21,Ticks_Linear_5,309,1,48,38,2793599912
72,5,21,Ticks_Linear_5,310,1,48,35,2794230344
72,5,21,Ticks_Linear_5,311,5,42,127,2794359128
72,5,21,Ticks_Linear_5,312,1,48,34,2794978552
72,5,21,Ticks_Linear_5,313,5,42,127,2795148888
72,5,21,Ticks_Linear_5,314,1,48,32,2795768460
72,5,21,Ticks_Linear_5,315,5,42,127,2795939328
72,5,21,Ticks_Linear_5,316,1,48,32,2796634380
72,5,21,Ticks_Linear_5,317,5,42,127,2796728880
72,5,21,Ticks_Linear_5,318,1,48,36,2797402280
72,5,21,Ticks_Linear_5,319,5,42,127,2797519228
72,5,21,Ticks_Linear_5,320,1,48,38,2798203000
72,5,21,Ticks_Linear_5,321,5,42,127,2798318880
72,5,21,Ticks_Linear_5,322,1,48,40,2798991340
72,5,21,Ticks_Linear_5,323,5,42,127,2799118604
72,5,21,Ticks_Linear_5,324,1,48,39,2799789864
72,5,21,Ticks_Linear_5,325,5,42,127,2799918848
72,5,21,Ticks_Linear_5,326,1,48,43,2800586656
72,5,21,Ticks_Linear_5,327,5,42,127,2800719320
72,5,21,Ticks_Linear_5,328,1,48,40,2801440836
72,5,21,Ticks_Linear_5,329,5,42,127,2801518860
72,5,21,Ticks_Linear_5,330,1,48,35,2802178556
72,5,21,Ticks_Linear_5,331,5,42,127,2802328828
72,5,21,Ticks_Linear_5,332,1,48,36,2802997000
72,5,21,Ticks_Linear_5,333,5,42,127,2803138884
72,5,21,Ticks_Linear_5,334,1,48,33,2803784060
72,5,21,Ticks_Linear_5,335,5,42,127,2803948940
72,5,21,Ticks_Linear_5,336,1,48,33,2804606492
72,5,21,Ticks_Linear_5,337,5,42,127,2804758772
72,5,21,Ticks_Linear_5,338,1,48,35,2805430040
72,5,21,Ticks_Linear_5,339,5,42,127,2805568832
72,5,21,Ticks_Linear_5,0,9999,9999,9999,2696376392
72,5,21,Ticks_Linear_5,1,9999,9999,9999,2696856640
72,5,21,Ticks_Linear_5,2,9999,9999,9999,2697336944
72,5,21,Ticks_Linear_5,3,9999,9999,9999,2697816172
72,5,21,Ticks_Linear_5,4,9999,9999,9999,2698296400
72,5,21,Ticks_Linear_5,5,9999,9999,9999,2698786888
72,5,21,Ticks_Linear_5,6,9999,9999,9999,2699276404
72,5,21,Ticks_Linear_5,7,9999,9999,9999,2699766888
72,5,21,Ticks_Linear_5,8,9999,9999,9999,2700256328
72,5,21,Ticks_Linear_5,9,9999,9999,9999,2700746816
72,5,21,Ticks_Linear_5,10,9999,9999,9999,2701246588
72,5,21,Ticks_Linear_5,11,9999,9999,9999,2701746288
72,5,21,Ticks_Linear_5,12,9999,9999,9999,2702247028
72,5,21,Ticks_Linear_5,13,9999,9999,9999,2702746736
72,5,21,Ticks_Linear_5,14,9999,9999,9999,2703246432
72,5,21,Ticks_Linear_5,15,9999,9999,9999,2703756396
72,5,21,Ticks_Linear_5,16,9999,9999,9999,2704266348
72,5,21,Ticks_Linear_5,17,9999,9999,9999,2704776308
72,5,21,Ticks_Linear_5,18,9999,9999,9999,2705286200
72,5,21,Ticks_Linear_5,19,9999,9999,9999,2705796160
72,5,21,Ticks_Linear_5,20,9999,9999,9999,2706316376
72,5,21,Ticks_Linear_5,21,9999,9999,9999,2706836588
72,5,21,Ticks_Linear_5,22,9999,9999,9999,2707356732
72,5,21,Ticks_Linear_5,23,9999,9999,9999,2707876952
72,5,21,Ticks_Linear_5,24,9999,9999,9999,2708396124
72,5,21,Ticks_Linear_5,25,9999,9999,9999,2708926524
72,5,21,Ticks_Linear_5,26,9999,9999,9999,2709457004
72,5,21,Ticks_Linear_5,27,9999,9999,9999,2709986432
72,5,21,Ticks_Linear_5,28,9999,9999,9999,2710516836
72,5,21,Ticks_Linear_5,29,9999,9999,9999,2711046264
72,5,21,Ticks_Linear_5,30,9999,9999,9999,2711586928
72,5,21,Ticks_Linear_5,31,9999,9999,9999,2712126544
72,5,21,Ticks_Linear_5,32,9999,9999,9999,2712666196
72,5,21,Ticks_Linear_5,33,9999,9999,9999,2713206852
72,5,21,Ticks_Linear_5,34,9999,9999,9999,2713746536
72,5,21,Ticks_Linear_5,35,9999,9999,9999,2714296408
72,5,21,Ticks_Linear_5,36,9999,9999,9999,2714846284
72,5,21,Ticks_Linear_5,37,9999,9999,9999,2715396160
72,5,21,Ticks_Linear_5,38,9999,9999,9999,2715947080
72,5,21,Ticks_Linear_5,39,9999,9999,9999,2716506176
72,5,21,Ticks_Linear_5,40,9999,9999,9999,2717066332
72,5,21,Ticks_Linear_5,41,9999,9999,9999,2717626460
72,5,21,Ticks_Linear_5,42,9999,9999,9999,2718186592
72,5,21,Ticks_Linear_5,43,9999,9999,9999,2718746724
72,5,21,Ticks_Linear_5,44,9999,9999,9999,2719306856
72,5,21,Ticks_Linear_5,45,9999,9999,9999,2719876156
72,5,21,Ticks_Linear_5,46,9999,9999,9999,2720446528
72,5,21,Ticks_Linear_5,47,9999,9999,9999,2721016936
72,5,21,Ticks_Linear_5,48,9999,9999,9999,2721586284
72,5,21,Ticks_Linear_5,49,9999,9999,9999,2722156600
72,5,21,Ticks_Linear_5,50,9999,9999,9999,2722736208
72,5,21,Ticks_Linear_5,51,9999,9999,9999,2723316856
72,5,21,Ticks_Linear_5,52,9999,9999,9999,2723896388
72,5,21,Ticks_Linear_5,53,9999,9999,9999,2724476988
72,5,21,Ticks_Linear_5,54,9999,9999,9999,2725056596
72,5,21,Ticks_Linear_5,55,9999,9999,9999,2725646460
72,5,21,Ticks_Linear_5,56,9999,9999,9999,2726236248
72,5,21,Ticks_Linear_5,57,9999,9999,9999,2726827108
72,5,21,Ticks_Linear_5,58,9999,9999,9999,2727426112
72,5,21,Ticks_Linear_5,59,9999,9999,9999,2728017024
72,5,21,Ticks_Linear_5,60,9999,9999,9999,2728617020
72,5,21,Ticks_Linear_5,61,9999,9999,9999,2729216096
72,5,21,Ticks_Linear_5,62,9999,9999,9999,2729816144
72,5,21,Ticks_Linear_5,63,9999,9999,9999,2730416220
72,5,21,Ticks_Linear_5,64,9999,9999,9999,2731016268
72,5,21,Ticks_Linear_5,65,9999,9999,9999,2731626560
72,5,21,Ticks_Linear_5,66,9999,9999,9999,2732236892
72,5,21,Ticks_Linear_5,67,9999,9999,9999,2732846168
72,5,21,Ticks_Linear_5,68,9999,9999,9999,2733456484
72,5,21,Ticks_Linear_5,69,9999,9999,9999,2734066808
72,5,21,Ticks_Linear_5,70,9999,9999,9999,2734686312
72,5,21,Ticks_Linear_5,71,9999,9999,9999,2735306828
72,5,21,Ticks_Linear_5,72,9999,9999,9999,2735926348
72,5,21,Ticks_Linear_5,73,9999,9999,9999,2736546940
72,5,21,Ticks_Linear_5,74,9999,9999,9999,2737166396
72,5,21,Ticks_Linear_5,75,9999,9999,9999,2737796200
72,5,21,Ticks_Linear_5,76,9999,9999,9999,2738426952
72,5,21,Ticks_Linear_5,77,9999,9999,9999,2739056764
72,5,21,Ticks_Linear_5,78,9999,9999,9999,2739686468
72,5,21,Ticks_Linear_5,79,9999,9999,9999,2740316248
72,5,21,Ticks_Linear_5,80,9999,9999,9999,2740956236
72,5,21,Ticks_Linear_5,81,9999,9999,9999,2741596268
72,5,21,Ticks_Linear_5,82,9999,9999,9999,2742236256
72,5,21,Ticks_Linear_5,83,9999,9999,9999,2742876220
72,5,21,Ticks_Linear_5,84,9999,9999,9999,2743516280
72,5,21,Ticks_Linear_5,85,9999,9999,9999,2744166504
72,5,21,Ticks_Linear_5,86,9999,9999,9999,2744816724
72,5,21,Ticks_Linear_5,87,9999,9999,9999,2745466972
72,5,21,Ticks_Linear_5,88,9999,9999,9999,2746116224
72,5,21,Ticks_Linear_5,89,9999,9999,9999,2746766396
72,5,21,Ticks_Linear_5,90,9999,9999,9999,2747426880
72,5,21,Ticks_Linear_5,91,9999,9999,9999,2748086340
72,5,21,Ticks_Linear_5,92,9999,9999,9999,2748746820
72,5,21,Ticks_Linear_5,93,9999,9999,9999,2749406284
72,5,21,Ticks_Linear_5,94,9999,9999,9999,2750066792
72,5,21,Ticks_Linear_5,95,9999,9999,9999,2750736488
72,5,21,Ticks_Linear_5,96,9999,9999,9999,2751406200
72,5,21,Ticks_Linear_5,97,9999,9999,9999,2752076924
72,5,21,Ticks_Linear_5,98,9999,9999,9999,2752746572
72,5,21,Ticks_Linear_5,99,9999,9999,9999,2753416292
72,5,21,Ticks_Linear_5,100,9999,9999,9999,2754096244
72,5,21,Ticks_Linear_5,101,9999,9999,9999,2754776144
72,5,21,Ticks_Linear_5,102,9999,9999,9999,2755456124
72,5,21,Ticks_Linear_5,103,9999,9999,9999,2756137064
72,5,21,Ticks_Linear_5,104,9999,9999,9999,2756816968
72,5,21,Ticks_Linear_5,105,9999,9999,9999,2757506160
72,5,21,Ticks_Linear_5,106,9999,9999,9999,2758196300
72,5,21,Ticks_Linear_5,107,9999,9999,9999,2758886464
72,5,21,Ticks_Linear_5,108,9999,9999,9999,2759576700
72,5,21,Ticks_Linear_5,109,9999,9999,9999,2760266836
72,5,21,Ticks_Linear_5,110,9999,9999,9999,2760966212
72,5,21,Ticks_Linear_5,111,9999,9999,9999,2761666632
72,5,21,Ticks_Linear_5,112,9999,9999,9999,2762367056
72,5,21,Ticks_Linear_5,113,9999,9999,9999,2763066480
72,5,21,Ticks_Linear_5,114,9999,9999,9999,2763766900
72,5,21,Ticks_Linear_5,115,9999,9999,9999,2764476536
72,5,21,Ticks_Linear_5,116,9999,9999,9999,2765186172
72,5,21,Ticks_Linear_5,117,9999,9999,9999,2765896828
72,5,21,Ticks_Linear_5,118,9999,9999,9999,2766606460
72,5,21,Ticks_Linear_5,119,9999,9999,9999,2767317068
72,5,21,Ticks_Linear_5,120,9999,9999,9999,2768036944
72,5,21,Ticks_Linear_5,121,9999,9999,9999,2768756840
72,5,21,Ticks_Linear_5,122,9999,9999,9999,2769476708
72,5,21,Ticks_Linear_5,123,9999,9999,9999,2770196600
72,5,21,Ticks_Linear_5,124,9999,9999,9999,2770916424
72,5,21,Ticks_Linear_5,125,9999,9999,9999,2771646572
72,5,21,Ticks_Linear_5,126,9999,9999,9999,2772376652
72,5,21,Ticks_Linear_5,127,9999,9999,9999,2773106804
72,5,21,Ticks_Linear_5,128,9999,9999,9999,2773836856
72,5,21,Ticks_Linear_5,129,9999,9999,9999,2774567008
72,5,21,Ticks_Linear_5,130,9999,9999,9999,2775306300
72,5,21,Ticks_Linear_5,131,9999,9999,9999,2776046712
72,5,21,Ticks_Linear_5,132,9999,9999,9999,2776787048
72,5,21,Ticks_Linear_5,133,9999,9999,9999,2777526340
72,5,21,Ticks_Linear_5,134,9999,9999,9999,2778266748
72,5,21,Ticks_Linear_5,135,9999,9999,9999,2779016300
72,5,21,Ticks_Linear_5,136,9999,9999,9999,2779766900
72,5,21,Ticks_Linear_5,137,9999,9999,9999,2780516416
72,5,21,Ticks_Linear_5,138,9999,9999,9999,2781267012
72,5,21,Ticks_Linear_5,139,9999,9999,9999,2782016620
72,5,21,Ticks_Linear_5,140,9999,9999,9999,2782776428
72,5,21,Ticks_Linear_5,141,9999,9999,9999,2783536236
72,5,21,Ticks_Linear_5,142,9999,9999,9999,2784297016
72,5,21,Ticks_Linear_5,143,9999,9999,9999,2785056828
72,5,21,Ticks_Linear_5,144,9999,9999,9999,2785816636
72,5,21,Ticks_Linear_5,145,9999,9999,9999,2786586704
72,5,21,Ticks_Linear_5,146,9999,9999,9999,2787356772
72,5,21,Ticks_Linear_5,147,9999,9999,9999,2788126840
72,5,21,Ticks_Linear_5,148,9999,9999,9999,2788896832
72,5,21,Ticks_Linear_5,149,9999,9999,9999,2789666900
72,5,21,Ticks_Linear_5,150,9999,9999,9999,2790446184
72,5,21,Ticks_Linear_5,151,9999,9999,9999,2791226432
72,5,21,Ticks_Linear_5,152,9999,9999,9999,2792006780
72,5,21,Ticks_Linear_5,153,9999,9999,9999,2792787032
72,5,21,Ticks_Linear_5,154,9999,9999,9999,2793566312
72,5,21,Ticks_Linear_5,155,9999,9999,9999,2794356828
72,5,21,Ticks_Linear_5,156,9999,9999,9999,2795146368
72,5,21,Ticks_Linear_5,157,9999,9999,9999,2795936880
72,5,21,Ticks_Linear_5,158,9999,9999,9999,2796726360
72,5,21,Ticks_Linear_5,159,9999,9999,9999,2797516856
72,5,21,Ticks_Linear_5,160,9999,9999,9999,2798316656
72,5,21,Ticks_Linear_5,161,9999,9999,9999,2799116380
72,5,21,Ticks_Linear_5,162,9999,9999,9999,2799916104
72,5,21,Ticks_Linear_5,163,9999,9999,9999,2800716872
72,5,21,Ticks_Linear_5,164,9999,9999,9999,2801516636
72,5,21,Ticks_Linear_5,165,9999,9999,9999,2802326604
72,5,21,Ticks_Linear_5,166,9999,9999,9999,2803136584
72,5,21,Ticks_Linear_5,167,9999,9999,9999,2803946568
72,5,21,Ticks_Linear_5,168,9999,9999,9999,2804756548
72,5,21,Ticks_Linear_5,169,9999,9999,9999,2805566532
72,6,20,Ticks_Linear_8,0,5,42,127,2816745748
72,6,20,Ticks_Linear_8,1,5,42,127,2817566088
72,6,20,Ticks_Linear_8,2,1,48,37,2818257424
72,6,20,Ticks_Linear_8,3,5,42,127,2818386476
72,6,20,Ticks_Linear_8,4,1,48,36,2819065608
72,6,20,Ticks_Linear_8,5,5,42,127,2819205548
72,6,20,Ticks_Linear_8,6,1,48,39,2819970124
72,6,20,Ticks_Linear_8,7,5,42,127,2820025732
72,6,20,Ticks_Linear_8,8,5,42,127,2820835572
72,6,20,Ticks_Linear_8,9,1,48,41,2820890960
72,6,20,Ticks_Linear_8,10,5,42,127,2821645628
72,6,20,Ticks_Linear_8,11,1,48,44,2821689636
72,6,20,Ticks_Linear_8,12,5,42,127,2822455612
72,6,20,Ticks_Linear_8,13,1,48,33,2822474312
72,6,20,Ticks_Linear_8,14,1,48,32,2823195376
72,6,20,Ticks_Linear_8,15,5,42,127,2823265660
72,6,20,Ticks_Linear_8,16,1,48,35,2823975632
72,6,20,Ticks_Linear_8,17,5,42,127,2824075580
72,6,20,Ticks_Linear_8,18,1,48,30,2824766068
72,6,20,Ticks_Linear_8,19,5,42,127,2824876352
72,6,20,Ticks_Linear_8,20,1,48,32,2825542120
72,6,20,Ticks_Linear_8,21,5,42,127,2825676224
72,6,20,Ticks_Linear_8,22,1,48,35,2826355280
72,6,20,Ticks_Linear_8,23,5,42,127,2826475800
72,6,20,Ticks_Linear_8,24,1,48,41,2827153196
72,6,20,Ticks_Linear_8,25,5,42,127,2827275672
72,6,20,Ticks_Linear_8,26,1,48,40,2827942288
72,6,20,Ticks_Linear_8,27,5,42,127,2828076296
72,6,20,Ticks_Linear_8,28,1,48,36,2828814284
72,6,20,Ticks_Linear_8,29,5,42,127,2828865996
72,6,20,Ticks_Linear_8,30,5,42,127,2829656444
72,6,20,Ticks_Linear_8,31,1,48,44,2829724592
72,6,20,Ticks_Linear_8,32,5,42,127,2830456044
72,6,20,Ticks_Linear_8,33,1,48,40,2830490240
72,6,20,Ticks_Linear_8,34,1,48,37,2831225612
72,6,20,Ticks_Linear_8,35,5,42,127,2831245576
72,6,20,Ticks_Linear_8,36,1,48,37,2832015904
72,6,20,Ticks_Linear_8,37,5,42,127,2832036312
72,6,20,Ticks_Linear_8,38,1,48,35,2832758560
72,6,20,Ticks_Linear_8,39,5,42,127,2832815592
72,6,20,Ticks_Linear_8,40,1,48,29,2833542404
72,6,20,Ticks_Linear_8,41,5,42,127,2833595844
72,6,20,Ticks_Linear_8,42,1,48,35,2834324460
72,6,20,Ticks_Linear_8,43,5,42,127,2834376020
72,6,20,Ticks_Linear_8,44,1,48,37,2835125384
72,6,20,Ticks_Linear_8,45,5,42,127,2835156348
72,6,20,Ticks_Linear_8,46,1,48,38,2835920456
72,6,20,Ticks_Linear_8,47,5,42,127,2835935556
72,6,20,Ticks_Linear_8,48,5,42,127,2836705628
72,6,20,Ticks_Linear_8,49,1,48,33,2836716164
72,6,20,Ticks_Linear_8,50,5,42,127,2837475696
72,6,20,Ticks_Linear_8,51,1,48,34,2837488928
72,6,20,Ticks_Linear_8,52,1,48,37,2838216064
72,6,20,Ticks_Linear_8,53,5,42,127,2838245684
72,6,20,Ticks_Linear_8,54,1,48,38,2839012784
72,6,20,Ticks_Linear_8,55,5,42,127,2839015900
72,6,20,Ticks_Linear_8,56,1,48,38,2839761584
72,6,20,Ticks_Linear_8,57,5,42,127,2839785968
72,6,20,Ticks_Linear_8,58,1,48,38,2840542736
72,6,20,Ticks_Linear_8,59,5,42,127,2840545632
72,6,20,Ticks_Linear_8,60,1,48,35,2841287348
72,6,20,Ticks_Linear_8,61,5,42,127,2841305512
72,6,20,Ticks_Linear_8,62,1,48,38,2841958312
72,6,20,Ticks_Linear_8,63,5,42,127,2842066276
72,6,20,Ticks_Linear_8,64,1,48,33,2842739940
72,6,20,Ticks_Linear_8,65,5,42,127,2842826176
72,6,20,Ticks_Linear_8,66,1,48,36,2843519740
72,6,20,Ticks_Linear_8,67,5,42,127,2843585984
72,6,20,Ticks_Linear_8,68,1,48,33,2844286816
72,6,20,Ticks_Linear_8,69,5,42,127,2844335384
72,6,20,Ticks_Linear_8,70,1,48,36,2845025784
72,6,20,Ticks_Linear_8,71,5,42,127,2845085984
72,6,20,Ticks_Linear_8,72,1,48,32,2845721256
72,6,20,Ticks_Linear_8,73,5,42,127,2845835664
72,6,20,Ticks_Linear_8,74,1,48,41,2846480992
72,6,20,Ticks_Linear_8,75,5,42,127,2846586112
72,6,20,Ticks_Linear_8,76,1,48,38,2847296440
72,6,20,Ticks_Linear_8,77,5,42,127,2847335948
72,6,20,Ticks_Linear_8,78,5,42,127,2848076144
72,6,20,Ticks_Linear_8,79,1,48,37,2848079044
72,6,20,Ticks_Linear_8,80,1,48,40,2848754504
72,6,20,Ticks_Linear_8,81,5,42,127,2848815428
72,6,20,Ticks_Linear_8,82,1,48,38,2849525852
72,6,20,Ticks_Linear_8,83,5,42,127,2849555992
72,6,20,Ticks_Linear_8,84,1,48,39,2850285956
72,6,20,Ticks_Linear_8,85,5,42,127,2850296328
72,6,20,Ticks_Linear_8,86,1,48,31,2850987356
72,6,20,Ticks_Linear_8,87,5,42,127,2851035400
72,6,20,Ticks_Linear_8,88,1,48,35,2851648960
72,6,20,Ticks_Linear_8,89,5,42,127,2851765612
72,6,20,Ticks_Linear_8,90,1,48,28,2852437824
72,6,20,Ticks_Linear_8,91,5,42,127,2852495776
72,6,20,Ticks_Linear_8,92,1,48,33,2853186472
72,6,20,Ticks_Linear_8,93,5,42,127,2853225828
72,6,20,Ticks_Linear_8,94,1,48,33,2853898776
72,6,20,Ticks_Linear_8,95,5,42,127,2853956104
72,6,20,Ticks_Linear_8,96,1,48,30,2854613124
72,6,20,Ticks_Linear_8,97,5,42,127,2854686036
72,6,20,Ticks_Linear_8,98,1,48,25,2855254892
72,6,20,Ticks_Linear_8,99,5,42,127,2855405988
72,6,20,Ticks_Linear_8,100,1,48,32,2856095676
72,6,20,Ticks_Linear_8,101,5,42,127,2856125748
72,6,20,Ticks_Linear_8,102,5,42,127,2856845868
72,6,20,Ticks_Linear_8,103,1,48,31,2856848916
72,6,20,Ticks_Linear_8,104,5,42,127,2857565516
72,6,20,Ticks_Linear_8,105,1,48,29,2857575152
72,6,20,Ticks_Linear_8,106,5,42,127,2858285408
72,6,20,Ticks_Linear_8,107,1,48,37,2858333544
72,6,20,Ticks_Linear_8,108,1,48,32,2858986840
72,6,20,Ticks_Linear_8,109,5,42,127,2858996088
72,6,20,Ticks_Linear_8,110,1,48,35,2859683284
72,6,20,Ticks_Linear_8,111,5,42,127,2859705872
72,6,20,Ticks_Linear_8,112,1,48,38,2860411192
72,6,20,Ticks_Linear_8,113,5,42,127,2860416332
72,6,20,Ticks_Linear_8,114,5,42,127,2861125868
72,6,20,Ticks_Linear_8,115,1,48,35,2861135804
72,6,20,Ticks_Linear_8,116,1,48,28,2861835800
72,6,20,Ticks_Linear_8,117,5,42,127,2861837144
72,6,20,Ticks_Linear_8,118,1,48,35,2862516640
72,6,20,Ticks_Linear_8,119,5,42,127,2862536072
72,6,20,Ticks_Linear_8,120,1,48,35,2863183400
72,6,20,Ticks_Linear_8,121,5,42,127,2863235596
72,6,20,Ticks_Linear_8,122,1,48,36,2863900680
72,6,20,Ticks_Linear_8,123,5,42,127,2863935844
72,6,20,Ticks_Linear_8,124,1,48,35,2864591660
72,6,20,Ticks_Linear_8,125,5,42,127,2864636264
72,6,20,Ticks_Linear_8,126,1,48,41,2865273508
72,6,20,Ticks_Linear_8,127,5,42,127,2865335864
72,6,20,Ticks_Linear_8,128,1,48,40,2865970840
72,6,20,Ticks_Linear_8,129,5,42,127,2866025952
72,6,20,Ticks_Linear_8,130,1,48,38,2866641460
72,6,20,Ticks_Linear_8,131,5,42,127,2866716092
72,6,20,Ticks_Linear_8,132,1,48,37,2867355440
72,6,20,Ticks_Linear_8,133,5,42,127,2867406180
72,6,20,Ticks_Linear_8,134,1,48,38,2868078708
72,6,20,Ticks_Linear_8,135,5,42,127,2868096496
72,6,20,Ticks_Linear_8,136,5,42,127,2868785740
72,6,20,Ticks_Linear_8,137,1,48,35,2868797028
72,6,20,Ticks_Linear_8,138,5,42,127,2869465720
72,6,20,Ticks_Linear_8,139,1,48,38,2869521108
72,6,20,Ticks_Linear_8,140,5,42,127,2870146448
72,6,20,Ticks_Linear_8,141,1,48,32,2870148164
72,6,20,Ticks_Linear_8,142,1,48,37,2870785688
72,6,20,Ticks_Linear_8,143,5,42,127,2870835752
72,6,20,Ticks_Linear_8,144,5,42,127,2871515516
72,6,20,Ticks_Linear_8,145,1,48,32,2871524256
72,6,20,Ticks_Linear_8,146,1,48,33,2872190276
72,6,20,Ticks_Linear_8,147,5,42,127,2872195564
72,6,20,Ticks_Linear_8,148,1,48,30,2872800060
72,6,20,Ticks_Linear_8,149,5,42,127,2872866228
72,6,20,Ticks_Linear_8,150,1,48,21,2873397496
72,6,20,Ticks_Linear_8,151,5,42,127,2873535932
72,6,20,Ticks_Linear_8,152,1,48,19,2874093560
72,6,20,Ticks_Linear_8,153,5,42,127,2874205480
72,6,20,Ticks_Linear_8,154,1,48,29,2874704256
72,6,20,Ticks_Linear_8,155,5,42,127,2874876172
72,6,20,Ticks_Linear_8,156,1,48,27,2875515912
72,6,20,Ticks_Linear_8,157,5,42,127,2875545832
72,6,20,Ticks_Linear_8,158,1,48,32,2876196164
72,6,20,Ticks_Linear_8,159,5,42,127,2876205416
72,6,20,Ticks_Linear_8,160,1,48,29,2876825072
72,6,20,Ticks_Linear_8,161,5,42,127,2876865848
72,6,20,Ticks_Linear_8,162,1,48,31,2877426392
72,6,20,Ticks_Linear_8,163,5,42,127,2877526540
72,6,20,Ticks_Linear_8,164,1,48,30,2878070496
72,6,20,Ticks_Linear_8,165,5,42,127,2878185852
72,6,20,Ticks_Linear_8,166,1,48,32,2878772688
72,6,20,Ticks_Linear_8,167,5,42,127,2878846520
72,6,20,Ticks_Linear_8,168,1,48,24,2879445264
72,6,20,Ticks_Linear_8,169,5,42,127,2879495624
72,6,20,Ticks_Linear_8,170,1,48,31,2880116856
72,6,20,Ticks_Linear_8,171,5,42,127,2880145724
72,6,20,Ticks_Linear_8,172,5,42,127,2880795952
72,6,20,Ticks_Linear_8,173,1,48,29,2880843548
72,6,20,Ticks_Linear_8,174,1,48,31,2881443748
72,6,20,Ticks_Linear_8,175,5,42,127,2881446492
72,6,20,Ticks_Linear_8,176,5,42,127,2882095452
72,6,20,Ticks_Linear_8,177,1,48,24,2882108756
72,6,20,Ticks_Linear_8,178,1,48,24,2882718020
72,6,20,Ticks_Linear_8,179,5,42,127,2882735580
72,6,20,Ticks_Linear_8,180,1,48,25,2883351384
72,6,20,Ticks_Linear_8,181,5,42,127,2883375544
72,6,20,Ticks_Linear_8,182,1,48,26,2884001336
72,6,20,Ticks_Linear_8,183,5,42,127,2884015536
72,6,20,Ticks_Linear_8,184,1,48,27,2884561692
72,6,20,Ticks_Linear_8,185,5,42,127,2884655424
72,6,20,Ticks_Linear_8,186,1,48,24,2885223908
72,6,20,Ticks_Linear_8,187,5,42,127,2885295412
72,6,20,Ticks_Linear_8,188,1,48,29,2885843144
72,6,20,Ticks_Linear_8,189,5,42,127,2885926312
72,6,20,Ticks_Linear_8,190,1,48,28,2886433992
72,6,20,Ticks_Linear_8,191,5,42,127,2886555952
72,6,20,Ticks_Linear_8,192,1,48,26,2887096892
72,6,20,Ticks_Linear_8,193,5,42,127,2887185748
72,6,20,Ticks_Linear_8,194,1,48,26,2887793712
72,6,20,Ticks_Linear_8,195,5,42,127,2887815552
72,6,20,Ticks_Linear_8,196,1,48,23,2888443556
72,6,20,Ticks_Linear_8,197,5,42,127,2888446228
72,6,20,Ticks_Linear_8,198,5,42,127,2889065780
72,6,20,Ticks_Linear_8,199,1,48,29,2889094064
72,6,20,Ticks_Linear_8,200,1,48,28,2889659336
72,6,20,Ticks_Linear_8,201,5,42,127,2889686416
72,6,20,Ticks_Linear_8,202,1,48,24,2890233544
72,6,20,Ticks_Linear_8,203,5,42,127,2890305936
72,6,20,Ticks_Linear_8,204,1,48,26,2890886280
72,6,20,Ticks_Linear_8,205,5,42,127,2890925332
72,6,20,Ticks_Linear_8,206,1,48,17,2891457868
72,6,20,Ticks_Linear_8,207,5,42,127,2891545972
72,6,20,Ticks_Linear_8,208,1,48,22,2892087720
72,6,20,Ticks_Linear_8,209,5,42,127,2892156456
72,6,20,Ticks_Linear_8,210,1,48,27,2892706812
72,6,20,Ticks_Linear_8,211,5,42,127,2892765568
72,6,20,Ticks_Linear_8,212,5,42,127,2893375960
72,6,20,Ticks_Linear_8,213,1,48,22,2893390832
72,6,20,Ticks_Linear_8,214,1,48,23,2893973128
72,6,20,Ticks_Linear_8,215,5,42,127,2893986284
72,6,20,Ticks_Linear_8,216,1,48,26,2894477856
72,6,20,Ticks_Linear_8,217,5,42,127,2894595304
72,6,20,Ticks_Linear_8,218,1,48,23,2895175184
72,6,20,Ticks_Linear_8,219,5,42,127,2895195592
72,6,20,Ticks_Linear_8,220,1,48,22,2895754216
72,6,20,Ticks_Linear_8,221,5,42,127,2895795444
72,6,20,Ticks_Linear_8,222,1,48,24,2896361220
72,6,20,Ticks_Linear_8,223,5,42,127,2896395716
72,6,20,Ticks_Linear_8,224,1,48,24,2896955288
72,6,20,Ticks_Linear_8,225,5,42,127,2896995764
72,6,20,Ticks_Linear_8,226,1,48,27,2897551612
72,6,20,Ticks_Linear_8,227,5,42,127,2897595764
72,6,20,Ticks_Linear_8,228,1,48,26,2898175256
72,6,20,Ticks_Linear_8,229,5,42,127,2898185556
72,6,20,Ticks_Linear_8,230,1,48,26,2898773496
72,6,20,Ticks_Linear_8,231,5,42,127,2898776392
72,6,20,Ticks_Linear_8,232,1,48,27,2899360468
72,6,20,Ticks_Linear_8,233,5,42,127,2899375420
72,6,20,Ticks_Linear_8,234,1,48,28,2899912140
72,6,20,Ticks_Linear_8,235,5,42,127,2899966404
72,6,20,Ticks_Linear_8,236,1,48,31,2900496772
72,6,20,Ticks_Linear_8,237,5,42,127,2900556344
72,6,20,Ticks_Linear_8,238,1,48,27,2901036684
72,6,20,Ticks_Linear_8,239,5,42,127,2901135884
72,6,20,Ticks_Linear_8,240,1,48,27,2901666040
72,6,20,Ticks_Linear_8,241,5,42,127,2901716252
72,6,20,Ticks_Linear_8,242,1,48,27,2902282556
72,6,20,Ticks_Linear_8,243,5,42,127,2902296228
72,6,20,Ticks_Linear_8,244,1,48,23,2902873776
72,6,20,Ticks_Linear_8,245,5,42,127,2902875440
72,6,20,Ticks_Linear_8,246,5,42,127,2903456200
72,6,20,Ticks_Linear_8,247,1,48,26,2903492640
72,6,20,Ticks_Linear_8,248,5,42,127,2904025396
72,6,20,Ticks_Linear_8,249,1,48,26,2904073604
72,6,20,Ticks_Linear_8,250,5,42,127,2904595864
72,6,20,Ticks_Linear_8,251,1,48,19,2904642112
72,6,20,Ticks_Linear_8,252,5,42,127,2905166256
72,6,20,Ticks_Linear_8,253,1,48,23,2905228340
72,6,20,Ticks_Linear_8,254,5,42,127,2905735404
72,6,20,Ticks_Linear_8,255,1,48,29,2905752896
72,6,20,Ticks_Linear_8,256,1,48,24,2906236032
72,6,20,Ticks_Linear_8,257,5,42,127,2906306160
72,6,20,Ticks_Linear_8,258,1,48,22,2906839892
72,6,20,Ticks_Linear_8,259,5,42,127,2906866292
72,6,20,Ticks_Linear_8,260,1,48,25,2907424856
72,6,20,Ticks_Linear_8,261,5,42,127,2907426356
72,6,20,Ticks_Linear_8,262,5,42,127,2907986272
72,6,20,Ticks_Linear_8,263,1,48,20,2907994120
72,6,20,Ticks_Linear_8,264,1,48,22,2908486900
72,6,20,Ticks_Linear_8,265,5,42,127,2908546424
72,6,20,Ticks_Linear_8,266,1,48,21,2909065028
72,6,20,Ticks_Linear_8,267,5,42,127,2909115992
72,6,20,Ticks_Linear_8,268,1,48,27,2909634080
72,6,20,Ticks_Linear_8,269,5,42,127,2909665720
72,6,20,Ticks_Linear_8,270,5,42,127,2910215600
72,6,20,Ticks_Linear_8,271,1,48,25,2910238940
72,6,20,Ticks_Linear_8,272,5,42,127,2910765400
72,6,20,Ticks_Linear_8,273,1,48,23,2910775036
72,6,20,Ticks_Linear_8,274,1,48,22,2911286092
72,6,20,Ticks_Linear_8,275,5,42,127,2911316312
72,6,20,Ticks_Linear_8,276,1,48,28,2911847676
72,6,20,Ticks_Linear_8,277,5,42,127,2911866212
72,6,20,Ticks_Linear_8,278,1,48,29,2912389980
72,6,20,Ticks_Linear_8,279,5,42,127,2912406052
72,6,20,Ticks_Linear_8,280,1,48,26,2912885048
72,6,20,Ticks_Linear_8,281,5,42,127,2912945592
72,6,20,Ticks_Linear_8,282,1,48,24,2913431844
72,6,20,Ticks_Linear_8,283,5,42,127,2913486256
72,6,20,Ticks_Linear_8,284,1,48,28,2913993936
72,6,20,Ticks_Linear_8,285,5,42,127,2914025948
72,6,20,Ticks_Linear_8,286,5,42,127,2914565644
72,6,20,Ticks_Linear_8,287,1,48,24,2914588988
72,6,20,Ticks_Linear_8,288,5,42,127,2915095828
72,6,20,Ticks_Linear_8,289,1,48,24,2915141328
72,6,20,Ticks_Linear_8,290,5,42,127,2915626232
72,6,20,Ticks_Linear_8,291,1,48,26,2915714976
72,6,20,Ticks_Linear_8,292,1,48,25,2916131496
72,6,20,Ticks_Linear_8,293,5,42,127,2916155804
72,6,20,Ticks_Linear_8,294,5,42,127,2916686140
72,6,20,Ticks_Linear_8,295,1,48,24,2916687332
72,6,20,Ticks_Linear_8,296,1,48,26,2917178676
72,6,20,Ticks_Linear_8,297,5,42,127,2917215564
72,6,20,Ticks_Linear_8,298,1,48,21,2917685272
72,6,20,Ticks_Linear_8,299,5,42,127,2917735956
72,6,20,Ticks_Linear_8,300,5,42,127,2918255960
72,6,20,Ticks_Linear_8,301,1,48,27,2918264696
72,6,20,Ticks_Linear_8,302,1,48,25,2918768636
72,6,20,Ticks_Linear_8,303,5,42,127,2918776096
72,6,20,Ticks_Linear_8,304,5,42,127,2919296324
72,6,20,Ticks_Linear_8,305,1,48,25,2919309100
72,6,20,Ticks_Linear_8,306,1,48,26,2919791324
72,6,20,Ticks_Linear_8,307,5,42,127,2919815488
72,6,20,Ticks_Linear_8,308,1,48,21,2920251612
72,6,20,Ticks_Linear_8,309,5,42,127,2920325448
72,6,20,Ticks_Linear_8,310,1,48,19,2920808708
72,6,20,Ticks_Linear_8,311,5,42,127,2920835556
72,6,20,Ticks_Linear_8,312,1,48,23,2921310252
72,6,20,Ticks_Linear_8,313,5,42,127,2921346564
72,6,20,Ticks_Linear_8,314,5,42,127,2921865816
72,6,20,Ticks_Linear_8,315,1,48,24,2921908260
72,6,20,Ticks_Linear_8,316,5,42,127,2922375408
72,6,20,Ticks_Linear_8,317,1,48,21,2922411100
72,6,20,Ticks_Linear_8,318,5,42,127,2922876300
72,6,20,Ticks_Linear_8,319,1,48,27,2922937836
72,6,20,Ticks_Linear_8,320,5,42,127,2923376000
72,6,20,Ticks_Linear_8,321,1,48,24,2923411544
72,6,20,Ticks_Linear_8,322,1,48,24,2923875300
72,6,20,Ticks_Linear_8,323,5,42,127,2923876792
72,6,20,Ticks_Linear_8,324,1,48,23,2924332756
72,6,20,Ticks_Linear_8,325,5,42,127,2924376616
72,6,20,Ticks_Linear_8,326,1,48,26,2924832836
72,6,20,Ticks_Linear_8,327,5,42,127,2924886500
72,6,20,Ticks_Linear_8,328,1,48,26,2925320480
72,6,20,Ticks_Linear_8,329,5,42,127,2925375868
72,6,20,Ticks_Linear_8,330,1,48,23,2925777496
72,6,20,Ticks_Linear_8,331,5,42,127,2925866280
72,6,20,Ticks_Linear_8,332,1,48,23,2926308728
72,6,20,Ticks_Linear_8,333,5,42,127,2926355868
72,6,20,Ticks_Linear_8,334,1,48,20,2926790148
72,6,20,Ticks_Linear_8,335,5,42,127,2926846284
72,6,20,Ticks_Linear_8,336,5,42,127,2927335880
72,6,20,Ticks_Linear_8,0,9999,9999,9999,2816743524
72,6,20,Ticks_Linear_8,1,9999,9999,9999,2817563712
72,6,20,Ticks_Linear_8,2,9999,9999,9999,2818383956
72,6,20,Ticks_Linear_8,3,9999,9999,9999,2819203176
72,6,20,Ticks_Linear_8,4,9999,9999,9999,2820023360
72,6,20,Ticks_Linear_8,5,9999,9999,9999,2820833348
72,6,20,Ticks_Linear_8,6,9999,9999,9999,2821643332
72,6,20,Ticks_Linear_8,7,9999,9999,9999,2822453312
72,6,20,Ticks_Linear_8,8,9999,9999,9999,2823263288
72,6,20,Ticks_Linear_8,9,9999,9999,9999,2824073280
72,6,20,Ticks_Linear_8,10,9999,9999,9999,2824874052
72,6,20,Ticks_Linear_8,11,9999,9999,9999,2825673848
72,6,20,Ticks_Linear_8,12,9999,9999,9999,2826473572
72,6,20,Ticks_Linear_8,13,9999,9999,9999,2827273296
72,6,20,Ticks_Linear_8,14,9999,9999,9999,2828074068
72,6,20,Ticks_Linear_8,15,9999,9999,9999,2828863548
72,6,20,Ticks_Linear_8,16,9999,9999,9999,2829654144
72,6,20,Ticks_Linear_8,17,9999,9999,9999,2830453816
72,6,20,Ticks_Linear_8,18,9999,9999,9999,2831243352
72,6,20,Ticks_Linear_8,19,9999,9999,9999,2832033864
72,6,20,Ticks_Linear_8,20,9999,9999,9999,2832813144
72,6,20,Ticks_Linear_8,21,9999,9999,9999,2833593472
72,6,20,Ticks_Linear_8,22,9999,9999,9999,2834373724
72,6,20,Ticks_Linear_8,23,9999,9999,9999,2835153976
72,6,20,Ticks_Linear_8,24,9999,9999,9999,2835933256
72,6,20,Ticks_Linear_8,25,9999,9999,9999,2836703332
72,6,20,Ticks_Linear_8,26,9999,9999,9999,2837473400
72,6,20,Ticks_Linear_8,27,9999,9999,9999,2838243384
72,6,20,Ticks_Linear_8,28,9999,9999,9999,2839013456
72,6,20,Ticks_Linear_8,29,9999,9999,9999,2839783524
72,6,20,Ticks_Linear_8,30,9999,9999,9999,2840543332
72,6,20,Ticks_Linear_8,31,9999,9999,9999,2841303140
72,6,20,Ticks_Linear_8,32,9999,9999,9999,2842063976
72,6,20,Ticks_Linear_8,33,9999,9999,9999,2842823800
72,6,20,Ticks_Linear_8,34,9999,9999,9999,2843583612
72,6,20,Ticks_Linear_8,35,9999,9999,9999,2844333160
72,6,20,Ticks_Linear_8,36,9999,9999,9999,2845083756
72,6,20,Ticks_Linear_8,37,9999,9999,9999,2845833292
72,6,20,Ticks_Linear_8,38,9999,9999,9999,2846583888
72,6,20,Ticks_Linear_8,39,9999,9999,9999,2847333500
72,6,20,Ticks_Linear_8,40,9999,9999,9999,2848073848
72,6,20,Ticks_Linear_8,41,9999,9999,9999,2848813128
72,6,20,Ticks_Linear_8,42,9999,9999,9999,2849553468
72,6,20,Ticks_Linear_8,43,9999,9999,9999,2850293880
72,6,20,Ticks_Linear_8,44,9999,9999,9999,2851033172
72,6,20,Ticks_Linear_8,45,9999,9999,9999,2851763312
72,6,20,Ticks_Linear_8,46,9999,9999,9999,2852493404
72,6,20,Ticks_Linear_8,47,9999,9999,9999,2853223532
72,6,20,Ticks_Linear_8,48,9999,9999,9999,2853953660
72,6,20,Ticks_Linear_8,49,9999,9999,9999,2854683736
72,6,20,Ticks_Linear_8,50,9999,9999,9999,2855403616
72,6,20,Ticks_Linear_8,51,9999,9999,9999,2856123448
72,6,20,Ticks_Linear_8,52,9999,9999,9999,2856843348
72,6,20,Ticks_Linear_8,53,9999,9999,9999,2857563216
72,6,20,Ticks_Linear_8,54,9999,9999,9999,2858283108
72,6,20,Ticks_Linear_8,55,9999,9999,9999,2858993788
72,6,20,Ticks_Linear_8,56,9999,9999,9999,2859703348
72,6,20,Ticks_Linear_8,57,9999,9999,9999,2860414028
72,6,20,Ticks_Linear_8,58,9999,9999,9999,2861123644
72,6,20,Ticks_Linear_8,59,9999,9999,9999,2861833280
72,6,20,Ticks_Linear_8,60,9999,9999,9999,2862533696
72,6,20,Ticks_Linear_8,61,9999,9999,9999,2863233148
72,6,20,Ticks_Linear_8,62,9999,9999,9999,2863933544
72,6,20,Ticks_Linear_8,63,9999,9999,9999,2864633968
72,6,20,Ticks_Linear_8,64,9999,9999,9999,2865333344
72,6,20,Ticks_Linear_8,65,9999,9999,9999,2866023480
72,6,20,Ticks_Linear_8,66,9999,9999,9999,2866713716
72,6,20,Ticks_Linear_8,67,9999,9999,9999,2867403880
72,6,20,Ticks_Linear_8,68,9999,9999,9999,2868094044
72,6,20,Ticks_Linear_8,69,9999,9999,9999,2868783216
72,6,20,Ticks_Linear_8,70,9999,9999,9999,2869463124
72,6,20,Ticks_Linear_8,71,9999,9999,9999,2870144072
72,6,20,Ticks_Linear_8,72,9999,9999,9999,2870833232
72,6,20,Ticks_Linear_8,73,9999,9999,9999,2871513144
72,6,20,Ticks_Linear_8,74,9999,9999,9999,2872193116
72,6,20,Ticks_Linear_8,75,9999,9999,9999,2872863856
72,6,20,Ticks_Linear_8,76,9999,9999,9999,2873533560
72,6,20,Ticks_Linear_8,77,9999,9999,9999,2874203252
72,6,20,Ticks_Linear_8,78,9999,9999,9999,2874873948
72,6,20,Ticks_Linear_8,79,9999,9999,9999,2875543604
72,6,20,Ticks_Linear_8,80,9999,9999,9999,2876203116
72,6,20,Ticks_Linear_8,81,9999,9999,9999,2876863548
72,6,20,Ticks_Linear_8,82,9999,9999,9999,2877524092
72,6,20,Ticks_Linear_8,83,9999,9999,9999,2878183476
72,6,20,Ticks_Linear_8,84,9999,9999,9999,2878843996
72,6,20,Ticks_Linear_8,85,9999,9999,9999,2879493176
72,6,20,Ticks_Linear_8,86,9999,9999,9999,2880143424
72,6,20,Ticks_Linear_8,87,9999,9999,9999,2880793656
72,6,20,Ticks_Linear_8,88,9999,9999,9999,2881443896
72,6,20,Ticks_Linear_8,89,9999,9999,9999,2882093152
72,6,20,Ticks_Linear_8,90,9999,9999,9999,2882733136
72,6,20,Ticks_Linear_8,91,9999,9999,9999,2883373172
72,6,20,Ticks_Linear_8,92,9999,9999,9999,2884013160
72,6,20,Ticks_Linear_8,93,9999,9999,9999,2884653124
72,6,20,Ticks_Linear_8,94,9999,9999,9999,2885293112
72,6,20,Ticks_Linear_8,95,9999,9999,9999,2885923940
72,6,20,Ticks_Linear_8,96,9999,9999,9999,2886553656
72,6,20,Ticks_Linear_8,97,9999,9999,9999,2887183448
72,6,20,Ticks_Linear_8,98,9999,9999,9999,2887813180
72,6,20,Ticks_Linear_8,99,9999,9999,9999,2888444004
72,6,20,Ticks_Linear_8,100,9999,9999,9999,2889063532
72,6,20,Ticks_Linear_8,101,9999,9999,9999,2889684044
72,6,20,Ticks_Linear_8,102,9999,9999,9999,2890303560
72,6,20,Ticks_Linear_8,103,9999,9999,9999,2890923108
72,6,20,Ticks_Linear_8,104,9999,9999,9999,2891543672
72,6,20,Ticks_Linear_8,105,9999,9999,9999,2892153932
72,6,20,Ticks_Linear_8,106,9999,9999,9999,2892763196
72,6,20,Ticks_Linear_8,107,9999,9999,9999,2893373512
72,6,20,Ticks_Linear_8,108,9999,9999,9999,2893983836
72,6,20,Ticks_Linear_8,109,9999,9999,9999,2894593080
72,6,20,Ticks_Linear_8,110,9999,9999,9999,2895193144
72,6,20,Ticks_Linear_8,111,9999,9999,9999,2895793220
72,6,20,Ticks_Linear_8,112,9999,9999,9999,2896393344
72,6,20,Ticks_Linear_8,113,9999,9999,9999,2896993392
72,6,20,Ticks_Linear_8,114,9999,9999,9999,2897593464
72,6,20,Ticks_Linear_8,115,9999,9999,9999,2898183256
72,6,20,Ticks_Linear_8,116,9999,9999,9999,2898774092
72,6,20,Ticks_Linear_8,117,9999,9999,9999,2899373120
72,6,20,Ticks_Linear_8,118,9999,9999,9999,2899964032
72,6,20,Ticks_Linear_8,119,9999,9999,9999,2900553820
72,6,20,Ticks_Linear_8,120,9999,9999,9999,2901133436
72,6,20,Ticks_Linear_8,121,9999,9999,9999,2901714028
72,6,20,Ticks_Linear_8,122,9999,9999,9999,2902293560
72,6,20,Ticks_Linear_8,123,9999,9999,9999,2902873152
72,6,20,Ticks_Linear_8,124,9999,9999,9999,2903453752
72,6,20,Ticks_Linear_8,125,9999,9999,9999,2904023096
72,6,20,Ticks_Linear_8,126,9999,9999,9999,2904593488
72,6,20,Ticks_Linear_8,127,9999,9999,9999,2905163884
72,6,20,Ticks_Linear_8,128,9999,9999,9999,2905733180
72,6,20,Ticks_Linear_8,129,9999,9999,9999,2906303564
72,6,20,Ticks_Linear_8,130,9999,9999,9999,2906863696
72,6,20,Ticks_Linear_8,131,9999,9999,9999,2907423840
72,6,20,Ticks_Linear_8,132,9999,9999,9999,2907983972
72,6,20,Ticks_Linear_8,133,9999,9999,9999,2908544124
72,6,20,Ticks_Linear_8,134,9999,9999,9999,2909113468
72,6,20,Ticks_Linear_8,135,9999,9999,9999,2909663344
72,6,20,Ticks_Linear_8,136,9999,9999,9999,2910213228
72,6,20,Ticks_Linear_8,137,9999,9999,9999,2910763100
72,6,20,Ticks_Linear_8,138,9999,9999,9999,2911314012
72,6,20,Ticks_Linear_8,139,9999,9999,9999,2911863912
72,6,20,Ticks_Linear_8,140,9999,9999,9999,2912403528
72,6,20,Ticks_Linear_8,141,9999,9999,9999,2912943220
72,6,20,Ticks_Linear_8,142,9999,9999,9999,2913483884
72,6,20,Ticks_Linear_8,143,9999,9999,9999,2914023500
72,6,20,Ticks_Linear_8,144,9999,9999,9999,2914563196
72,6,20,Ticks_Linear_8,145,9999,9999,9999,2915093604
72,6,20,Ticks_Linear_8,146,9999,9999,9999,2915624008
72,6,20,Ticks_Linear_8,147,9999,9999,9999,2916153432
72,6,20,Ticks_Linear_8,148,9999,9999,9999,2916683840
72,6,20,Ticks_Linear_8,149,9999,9999,9999,2917213264
72,6,20,Ticks_Linear_8,150,9999,9999,9999,2917733484
72,6,20,Ticks_Linear_8,151,9999,9999,9999,2918253660
72,6,20,Ticks_Linear_8,152,9999,9999,9999,2918773872
72,6,20,Ticks_Linear_8,153,9999,9999,9999,2919294020
72,6,20,Ticks_Linear_8,154,9999,9999,9999,2919813188
72,6,20,Ticks_Linear_8,155,9999,9999,9999,2920323148
72,6,20,Ticks_Linear_8,156,9999,9999,9999,2920833108
72,6,20,Ticks_Linear_8,157,9999,9999,9999,2921344116
72,6,20,Ticks_Linear_8,158,9999,9999,9999,2921863292
72,6,20,Ticks_Linear_8,159,9999,9999,9999,2922373180
72,6,20,Ticks_Linear_8,160,9999,9999,9999,2922873928
72,6,20,Ticks_Linear_8,161,9999,9999,9999,2923373628
72,6,20,Ticks_Linear_8,162,9999,9999,9999,2923873376
72,6,20,Ticks_Linear_8,163,9999,9999,9999,2924374092
72,6,20,Ticks_Linear_8,164,9999,9999,9999,2924884052
72,6,20,Ticks_Linear_8,165,9999,9999,9999,2925373492
72,6,20,Ticks_Linear_8,166,9999,9999,9999,2925864056
72,6,20,Ticks_Linear_8,167,9999,9999,9999,2926353496
72,6,20,Ticks_Linear_8,168,9999,9999,9999,2926843984
72,6,20,Ticks_Linear_8,169,9999,9999,9999,2927333432
72,7,10,Ticks_ISO_T2_5,0,5,42,127,2937307696
72,7,10,Ticks_ISO_T2_5,1,5,42,127,2937808160
72,7,10,Ticks_ISO_T2_5,2,5,42,127,2938307952
72,7,10,Ticks_ISO_T2_5,3,1,48,31,2938658604
72,7,10,Ticks_ISO_T2_5,4,5,42,127,2938807644
72,7,10,Ticks_ISO_T2_5,5,1,48,35,2939213952
72,7,10,Ticks_ISO_T2_5,6,5,42,127,2939308612
72,7,10,Ticks_ISO_T2_5,7,1,48,35,2939753456
72,7,10,Ticks_ISO_T2_5,8,5,42,127,2939808024
72,7,10,Ticks_ISO_T2_5,9,1,48,30,2940246400
72,7,10,Ticks_ISO_T2_5,10,5,42,127,2940307792
72,7,10,Ticks_ISO_T2_5,11,1,48,28,2940776564
72,7,10,Ticks_ISO_T2_5,12,5,42,127,2940807488
72,7,10,Ticks_ISO_T2_5,13,1,48,37,2941293760
72,7,10,Ticks_ISO_T2_5,14,5,42,127,2941308524
72,7,10,Ticks_ISO_T2_5,15,1,48,35,2941781756
72,7,10,Ticks_ISO_T2_5,16,5,42,127,2941808072
72,7,10,Ticks_ISO_T2_5,17,1,48,35,2942288856
72,7,10,Ticks_ISO_T2_5,18,5,42,127,2942307744
72,7,10,Ticks_ISO_T2_5,19,1,48,31,2942793988
72,7,10,Ticks_ISO_T2_5,20,5,42,127,2942808608
72,7,10,Ticks_ISO_T2_5,21,1,48,32,2943293908
72,7,10,Ticks_ISO_T2_5,22,5,42,127,2943308080
72,7,10,Ticks_ISO_T2_5,23,1,48,27,2943792704
72,7,10,Ticks_ISO_T2_5,24,5,42,127,2943807848
72,7,10,Ticks_ISO_T2_5,25,1,48,30,2944234280
72,7,10,Ticks_ISO_T2_5,26,5,42,127,2944307544
72,7,10,Ticks_ISO_T2_5,27,5,42,127,2944808592
72,7,10,Ticks_ISO_T2_5,28,1,48,27,2944837144
72,7,10,Ticks_ISO_T2_5,29,5,42,127,2945307988
72,7,10,Ticks_ISO_T2_5,30,1,48,32,2945332872
72,7,10,Ticks_ISO_T2_5,31,1,48,30,2945797472
72,7,10,Ticks_ISO_T2_5,32,5,42,127,2945807676
72,7,10,Ticks_ISO_T2_5,33,1,48,25,2946285268
72,7,10,Ticks_ISO_T2_5,34,5,42,127,2946307372
72,7,10,Ticks_ISO_T2_5,35,1,48,31,2946800448
72,7,10,Ticks_ISO_T2_5,36,5,42,127,2946808040
72,7,10,Ticks_ISO_T2_5,37,1,48,30,2947269928
72,7,10,Ticks_ISO_T2_5,38,5,42,127,2947307884
72,7,10,Ticks_ISO_T2_5,39,1,48,29,2947800436
72,7,10,Ticks_ISO_T2_5,40,5,42,127,2947807576
72,7,10,Ticks_ISO_T2_5,41,1,48,31,2948292728
72,7,10,Ticks_ISO_T2_5,42,5,42,127,2948308540
72,7,10,Ticks_ISO_T2_5,43,1,48,31,2948790848
72,7,10,Ticks_ISO_T2_5,44,5,42,127,2948808460
72,7,10,Ticks_ISO_T2_5,45,5,42,127,2949307640
72,7,10,Ticks_ISO_T2_5,46,1,48,33,2949319136
72,7,10,Ticks_ISO_T2_5,47,1,48,30,2949788968
72,7,10,Ticks_ISO_T2_5,48,5,42,127,2949807400
72,7,10,Ticks_ISO_T2_5,49,1,48,26,2950291504
72,7,10,Ticks_ISO_T2_5,50,5,42,127,2950308292
72,7,10,Ticks_ISO_T2_5,51,1,48,32,2950793212
72,7,10,Ticks_ISO_T2_5,52,5,42,127,2950807836
72,7,10,Ticks_ISO_T2_5,53,5,42,127,2951307612
72,7,10,Ticks_ISO_T2_5,54,1,48,31,2951325992
72,7,10,Ticks_ISO_T2_5,55,1,48,29,2951778292
72,7,10,Ticks_ISO_T2_5,56,5,42,127,2951808424
72,7,10,Ticks_ISO_T2_5,57,1,48,29,2952294092
72,7,10,Ticks_ISO_T2_5,58,5,42,127,2952308188
72,7,10,Ticks_ISO_T2_5,59,5,42,127,2952807744
72,7,10,Ticks_ISO_T2_5,60,1,48,34,2952822008
72,7,10,Ticks_ISO_T2_5,61,5,42,127,2953307488
72,7,10,Ticks_ISO_T2_5,62,1,48,34,2953348628
72,7,10,Ticks_ISO_T2_5,63,5,42,127,2953808376
72,7,10,Ticks_ISO_T2_5,64,1,48,33,2953841512
72,7,10,Ticks_ISO_T2_5,65,5,42,127,2954308072
72,7,10,Ticks_ISO_T2_5,66,1,48,31,2954330564
72,7,10,Ticks_ISO_T2_5,67,5,42,127,2954807616
72,7,10,Ticks_ISO_T2_5,68,1,48,34,2954844248
72,7,10,Ticks_ISO_T2_5,69,1,48,31,2955299640
72,7,10,Ticks_ISO_T2_5,70,5,42,127,2955308280
72,7,10,Ticks_ISO_T2_5,71,1,48,34,2955800456
72,7,10,Ticks_ISO_T2_5,72,5,42,127,2955808048
72,7,10,Ticks_ISO_T2_5,73,1,48,35,2956280256
72,7,10,Ticks_ISO_T2_5,74,5,42,127,2956307820
72,7,10,Ticks_ISO_T2_5,75,1,48,32,2956781448
72,7,10,Ticks_ISO_T2_5,76,5,42,127,2956807588
72,7,10,Ticks_ISO_T2_5,77,1,48,35,2957280324
72,7,10,Ticks_ISO_T2_5,78,5,42,127,2957308256
72,7,10,Ticks_ISO_T2_5,79,1,48,30,2957785328
72,7,10,Ticks_ISO_T2_5,80,5,42,127,2957808172
72,7,10,Ticks_ISO_T2_5,81,1,48,31,2958303792
72,7,10,Ticks_ISO_T2_5,82,5,42,127,2958307568
72,7,10,Ticks_ISO_T2_5,83,5,42,127,2958808540
72,7,10,Ticks_ISO_T2_5,84,1,48,29,2958824900
72,7,10,Ticks_ISO_T2_5,85,5,42,127,2959308236
72,7,10,Ticks_ISO_T2_5,86,1,48,29,2959315616
72,7,10,Ticks_ISO_T2_5,87,5,42,127,2959807856
72,7,10,Ticks_ISO_T2_5,88,1,48,25,2959814868
72,7,10,Ticks_ISO_T2_5,89,1,48,31,2960284996
72,7,10,Ticks_ISO_T2_5,90,5,42,127,2960307548
72,7,10,Ticks_ISO_T2_5,91,1,48,28,2960781176
72,7,10,Ticks_ISO_T2_5,92,5,42,127,2960808292
72,7,10,Ticks_ISO_T2_5,93,1,48,25,2961299272
72,7,10,Ticks_ISO_T2_5,94,5,42,127,2961308132
72,7,10,Ticks_ISO_T2_5,95,1,48,29,2961785132
72,7,10,Ticks_ISO_T2_5,96,5,42,127,2961807752
72,7,10,Ticks_ISO_T2_5,97,1,48,24,2962300984
72,7,10,Ticks_ISO_T2_5,98,5,42,127,2962307376
72,7,10,Ticks_ISO_T2_5,99,5,42,127,2962808272
72,7,10,Ticks_ISO_T2_5,100,1,48,26,2962818868
72,7,10,Ticks_ISO_T2_5,101,5,42,127,2963307968
72,7,10,Ticks_ISO_T2_5,102,1,48,28,2963332404
72,7,10,Ticks_ISO_T2_5,103,5,42,127,2963807564
72,7,10,Ticks_ISO_T2_5,104,1,48,26,2963832024
72,7,10,Ticks_ISO_T2_5,105,1,48,23,2964293976
72,7,10,Ticks_ISO_T2_5,106,5,42,127,2964308296
72,7,10,Ticks_ISO_T2_5,107,5,42,127,2964808148
72,7,10,Ticks_ISO_T2_5,108,1,48,28,2964825700
72,7,10,Ticks_ISO_T2_5,109,5,42,127,2965307692
72,7,10,Ticks_ISO_T2_5,110,1,48,26,2965315220
72,7,10,Ticks_ISO_T2_5,111,5,42,127,2965807460
72,7,10,Ticks_ISO_T2_5,112,1,48,27,2965867448
72,7,10,Ticks_ISO_T2_5,113,5,42,127,2966308128
72,7,10,Ticks_ISO_T2_5,114,1,48,25,2966336976
72,7,10,Ticks_ISO_T2_5,115,5,42,127,2966808120
72,7,10,Ticks_ISO_T2_5,116,1,48,30,2966923612
72,7,10,Ticks_ISO_T2_5,117,5,42,127,2967307592
72,7,10,Ticks_ISO_T2_5,118,1,48,27,2967395304
72,7,10,Ticks_ISO_T2_5,119,5,42,127,2967808336
72,7,10,Ticks_ISO_T2_5,120,1,48,27,2967899640
72,7,10,Ticks_ISO_T2_5,121,5,42,127,2968308176
72,7,10,Ticks_ISO_T2_5,122,1,48,27,2968383776
72,7,10,Ticks_ISO_T2_5,123,5,42,127,2968807648
72,7,10,Ticks_ISO_T2_5,124,1,48,28,2968848540
72,7,10,Ticks_ISO_T2_5,125,5,42,127,2969307568
72,7,10,Ticks_ISO_T2_5,126,1,48,28,2969308532
72,7,10,Ticks_ISO_T2_5,127,5,42,127,2969808232
72,7,10,Ticks_ISO_T2_5,128,1,48,29,2969820404
72,7,10,Ticks_ISO_T2_5,129,1,48,30,2970302576
72,7,10,Ticks_ISO_T2_5,130,5,42,127,2970307996
72,7,10,Ticks_ISO_T2_5,131,5,42,127,2970807624
72,7,10,Ticks_ISO_T2_5,132,1,48,32,2970827796
72,7,10,Ticks_ISO_T2_5,133,1,48,31,2971293212
72,7,10,Ticks_ISO_T2_5,134,5,42,127,2971308356
72,7,10,Ticks_ISO_T2_5,135,1,48,26,2971778100
72,7,10,Ticks_ISO_T2_5,136,5,42,127,2971808128
72,7,10,Ticks_ISO_T2_5,137,1,48,26,2972241860
72,7,10,Ticks_ISO_T2_5,138,5,42,127,2972307672
72,7,10,Ticks_ISO_T2_5,139,1,48,25,2972745520
72,7,10,Ticks_ISO_T2_5,140,5,42,127,2972807440
72,7,10,Ticks_ISO_T2_5,141,1,48,28,2973249784
72,7,10,Ticks_ISO_T2_5,142,5,42,127,2973308332
72,7,10,Ticks_ISO_T2_5,143,1,48,31,2973748876
72,7,10,Ticks_ISO_T2_5,144,5,42,127,2973807952
72,7,10,Ticks_ISO_T2_5,145,1,48,30,2974267872
72,7,10,Ticks_ISO_T2_5,146,5,42,127,2974307548
72,7,10,Ticks_ISO_T2_5,147,1,48,26,2974777284
72,7,10,Ticks_ISO_T2_5,148,5,42,127,2974808288
72,7,10,Ticks_ISO_T2_5,149,5,42,127,2975308212
72,7,10,Ticks_ISO_T2_5,150,1,48,29,2975310656
72,7,10,Ticks_ISO_T2_5,151,5,42,127,2975808132
72,7,10,Ticks_ISO_T2_5,152,1,48,27,2975819784
72,7,10,Ticks_ISO_T2_5,153,5,42,127,2976307528
72,7,10,Ticks_ISO_T2_5,154,1,48,24,2976327028
72,7,10,Ticks_ISO_T2_5,155,5,42,127,2976808416
72,7,10,Ticks_ISO_T2_5,156,1,48,22,2976856788
72,7,10,Ticks_ISO_T2_5,157,5,42,127,2977308188
72,7,10,Ticks_ISO_T2_5,158,1,48,29,2977361048
72,7,10,Ticks_ISO_T2_5,159,5,42,127,2977807584
72,7,10,Ticks_ISO_T2_5,160,1,48,27,2977826032
72,7,10,Ticks_ISO_T2_5,161,1,48,24,2978289808
72,7,10,Ticks_ISO_T2_5,162,5,42,127,2978307496
72,7,10,Ticks_ISO_T2_5,163,1,48,24,2978773124
72,7,10,Ticks_ISO_T2_5,164,5,42,127,2978808160
72,7,10,Ticks_ISO_T2_5,165,1,48,28,2979275656
72,7,10,Ticks_ISO_T2_5,166,5,42,127,2979308152
72,7,10,Ticks_ISO_T2_5,167,1,48,28,2979778344
72,7,10,Ticks_ISO_T2_5,168,5,42,127,2979807552
72,7,10,Ticks_ISO_T2_5,169,1,48,27,2980259636
72,7,10,Ticks_ISO_T2_5,170,5,42,127,2980308216
72,7,10,Ticks_ISO_T2_5,171,1,48,28,2980771524
72,7,10,Ticks_ISO_T2_5,172,5,42,127,2980807988
72,7,10,Ticks_ISO_T2_5,173,1,48,27,2981268604
72,7,10,Ticks_ISO_T2_5,174,5,42,127,2981307904
72,7,10,Ticks_ISO_T2_5,175,1,48,27,2981718308
72,7,10,Ticks_ISO_T2_5,176,5,42,127,2981807896
72,7,10,Ticks_ISO_T2_5,177,1,48,20,2982235876
72,7,10,Ticks_ISO_T2_5,178,5,42,127,2982308268
72,7,10,Ticks_ISO_T2_5,179,1,48,24,2982728240
72,7,10,Ticks_ISO_T2_5,180,5,42,127,2982808032
72,7,10,Ticks_ISO_T2_5,181,1,48,26,2983226888
72,7,10,Ticks_ISO_T2_5,182,5,42,127,2983307804
72,7,10,Ticks_ISO_T2_5,183,1,48,24,2983720080
72,7,10,Ticks_ISO_T2_5,184,5,42,127,2983808324
72,7,10,Ticks_ISO_T2_5,185,1,48,23,2984177740
72,7,10,Ticks_ISO_T2_5,186,5,42,127,2984308076
72,7,10,Ticks_ISO_T2_5,187,1,48,24,2984747740
72,7,10,Ticks_ISO_T2_5,188,5,42,127,2984808008
72,7,10,Ticks_ISO_T2_5,189,1,48,26,2985242196
72,7,10,Ticks_ISO_T2_5,190,5,42,127,2985307532
72,7,10,Ticks_ISO_T2_5,191,1,48,27,2985750944
72,7,10,Ticks_ISO_T2_5,192,5,42,127,2985808196
72,7,10,Ticks_ISO_T2_5,193,1,48,26,2986253028
72,7,10,Ticks_ISO_T2_5,194,5,42,127,2986308040
72,7,10,Ticks_ISO_T2_5,195,1,48,24,2986765440
72,7,10,Ticks_ISO_T2_5,196,5,42,127,2986807884
72,7,10,Ticks_ISO_T2_5,197,1,48,24,2987253092
72,7,10,Ticks_ISO_T2_5,198,5,42,127,2987308328
72,7,10,Ticks_ISO_T2_5,199,1,48,25,2987777400
72,7,10,Ticks_ISO_T2_5,200,5,42,127,2987808100
72,7,10,Ticks_ISO_T2_5,201,1,48,25,2988258840
72,7,10,Ticks_ISO_T2_5,202,5,42,127,2988308016
72,7,10,Ticks_ISO_T2_5,203,1,48,21,2988775364
72,7,10,Ticks_ISO_T2_5,204,5,42,127,2988807564
72,7,10,Ticks_ISO_T2_5,205,1,48,26,2989274688
72,7,10,Ticks_ISO_T2_5,206,5,42,127,2989308308
72,7,10,Ticks_ISO_T2_5,207,1,48,23,2989765332
72,7,10,Ticks_ISO_T2_5,208,5,42,127,2989807928
72,7,10,Ticks_ISO_T2_5,209,1,48,23,2990250740
72,7,10,Ticks_ISO_T2_5,210,5,42,127,2990307920
72,7,10,Ticks_ISO_T2_5,211,1,48,24,2990754476
72,7,10,Ticks_ISO_T2_5,212,5,42,127,2990808364
72,7,10,Ticks_ISO_T2_5,213,1,48,25,2991270772
72,7,10,Ticks_ISO_T2_5,214,5,42,127,2991308208
72,7,10,Ticks_ISO_T2_5,215,1,48,27,2991779444
72,7,10,Ticks_ISO_T2_5,216,5,42,127,2991807832
72,7,10,Ticks_ISO_T2_5,217,1,48,20,2992297996
72,7,10,Ticks_ISO_T2_5,218,5,42,127,2992307672
72,7,10,Ticks_ISO_T2_5,219,1,48,23,2992774204
72,7,10,Ticks_ISO_T2_5,220,5,42,127,2992808340
72,7,10,Ticks_ISO_T2_5,221,1,48,23,2993297460
72,7,10,Ticks_ISO_T2_5,222,5,42,127,2993307888
72,7,10,Ticks_ISO_T2_5,223,1,48,25,2993786824
72,7,10,Ticks_ISO_T2_5,224,5,42,127,2993807804
72,7,10,Ticks_ISO_T2_5,225,1,48,24,2994274304
72,7,10,Ticks_ISO_T2_5,226,5,42,127,2994307428
72,7,10,Ticks_ISO_T2_5,227,1,48,28,2994767272
72,7,10,Ticks_ISO_T2_5,228,5,42,127,2994808092
72,7,10,Ticks_ISO_T2_5,229,5,42,127,2995307868
72,7,10,Ticks_ISO_T2_5,230,1,48,23,2995330808
72,7,10,Ticks_ISO_T2_5,231,1,48,26,2995797624
72,7,10,Ticks_ISO_T2_5,232,5,42,127,2995807532
72,7,10,Ticks_ISO_T2_5,233,1,48,25,2996306764
72,7,10,Ticks_ISO_T2_5,234,5,42,127,2996308200
72,7,10,Ticks_ISO_T2_5,235,1,48,22,2996749816
72,7,10,Ticks_ISO_T2_5,236,5,42,127,2996807972
72,7,10,Ticks_ISO_T2_5,237,1,48,23,2997243452
72,7,10,Ticks_ISO_T2_5,238,5,42,127,2997307740
72,7,10,Ticks_ISO_T2_5,239,5,42,127,2997807664
72,7,10,Ticks_ISO_T2_5,240,1,48,29,2997826192
72,7,10,Ticks_ISO_T2_5,241,5,42,127,2998308112
72,7,10,Ticks_ISO_T2_5,242,1,48,23,2998315788
72,7,10,Ticks_ISO_T2_5,243,1,48,28,2998798936
72,7,10,Ticks_ISO_T2_5,244,5,42,127,2998807872
72,7,10,Ticks_ISO_T2_5,245,1,48,27,2999278884
72,7,10,Ticks_ISO_T2_5,246,5,42,127,2999307568
72,7,10,Ticks_ISO_T2_5,247,1,48,23,2999781572
72,7,10,Ticks_ISO_T2_5,248,5,42,127,2999808308
72,7,10,Ticks_ISO_T2_5,249,1,48,27,3000294508
72,7,10,Ticks_ISO_T2_5,250,5,42,127,3000308004
72,7,10,Ticks_ISO_T2_5,251,1,48,25,3000783800
72,7,10,Ticks_ISO_T2_5,252,5,42,127,3000807772
72,7,10,Ticks_ISO_T2_5,253,1,48,27,3001307700
72,7,10,Ticks_ISO_T2_5,254,5,42,127,3001308964
72,7,10,Ticks_ISO_T2_5,255,1,48,27,3001789704
72,7,10,Ticks_ISO_T2_5,256,5,42,127,3001808212
72,7,10,Ticks_ISO_T2_5,257,1,48,28,3002263140
72,7,10,Ticks_ISO_T2_5,0,9999,9999,9999,2937305184
72,7,10,Ticks_ISO_T2_5,1,9999,9999,9999,2937805872
72,7,10,Ticks_ISO_T2_5,2,9999,9999,9999,2938305588
72,7,10,Ticks_ISO_T2_5,3,9999,9999,9999,2938805356
72,7,10,Ticks_ISO_T2_5,4,9999,9999,9999,2939306040
72,7,10,Ticks_ISO_T2_5,5,9999,9999,9999,2939805808
72,7,10,Ticks_ISO_T2_5,6,9999,9999,9999,2940305504
72,7,10,Ticks_ISO_T2_5,7,9999,9999,9999,2940805200
72,7,10,Ticks_ISO_T2_5,8,9999,9999,9999,2941305940
72,7,10,Ticks_ISO_T2_5,9,9999,9999,9999,2941805632
72,7,10,Ticks_ISO_T2_5,10,9999,9999,9999,2942305380
72,7,10,Ticks_ISO_T2_5,11,9999,9999,9999,2942806096
72,7,10,Ticks_ISO_T2_5,12,9999,9999,9999,2943305792
72,7,10,Ticks_ISO_T2_5,13,9999,9999,9999,2943805560
72,7,10,Ticks_ISO_T2_5,14,9999,9999,9999,2944305256
72,7,10,Ticks_ISO_T2_5,15,9999,9999,9999,2944806004
72,7,10,Ticks_ISO_T2_5,16,9999,9999,9999,2945305700
72,7,10,Ticks_ISO_T2_5,17,9999,9999,9999,2945805388
72,7,10,Ticks_ISO_T2_5,18,9999,9999,9999,2946305084
72,7,10,Ticks_ISO_T2_5,19,9999,9999,9999,2946805824
72,7,10,Ticks_ISO_T2_5,20,9999,9999,9999,2947305592
72,7,10,Ticks_ISO_T2_5,21,9999,9999,9999,2947805288
72,7,10,Ticks_ISO_T2_5,22,9999,9999,9999,2948306028
72,7,10,Ticks_ISO_T2_5,23,9999,9999,9999,2948805724
72,7,10,Ticks_ISO_T2_5,24,9999,9999,9999,2949305424
72,7,10,Ticks_ISO_T2_5,25,9999,9999,9999,2949805112
72,7,10,Ticks_ISO_T2_5,26,9999,9999,9999,2950305856
72,7,10,Ticks_ISO_T2_5,27,9999,9999,9999,2950805620
72,7,10,Ticks_ISO_T2_5,28,9999,9999,9999,2951305324
72,7,10,Ticks_ISO_T2_5,29,9999,9999,9999,2951806060
72,7,10,Ticks_ISO_T2_5,30,9999,9999,9999,2952305752
72,7,10,Ticks_ISO_T2_5,31,9999,9999,9999,2952805456
72,7,10,Ticks_ISO_T2_5,32,9999,9999,9999,2953305200
72,7,10,Ticks_ISO_T2_5,33,9999,9999,9999,2953805940
72,7,10,Ticks_ISO_T2_5,34,9999,9999,9999,2954305636
72,7,10,Ticks_ISO_T2_5,35,9999,9999,9999,2954805328
72,7,10,Ticks_ISO_T2_5,36,9999,9999,9999,2955306064
72,7,10,Ticks_ISO_T2_5,37,9999,9999,9999,2955805760
72,7,10,Ticks_ISO_T2_5,38,9999,9999,9999,2956305528
72,7,10,Ticks_ISO_T2_5,39,9999,9999,9999,2956805224
72,7,10,Ticks_ISO_T2_5,40,9999,9999,9999,2957305968
72,7,10,Ticks_ISO_T2_5,41,9999,9999,9999,2957805660
72,7,10,Ticks_ISO_T2_5,42,9999,9999,9999,2958305356
72,7,10,Ticks_ISO_T2_5,43,9999,9999,9999,2958806104
72,7,10,Ticks_ISO_T2_5,44,9999,9999,9999,2959305800
72,7,10,Ticks_ISO_T2_5,45,9999,9999,9999,2959805492
72,7,10,Ticks_ISO_T2_5,46,9999,9999,9999,2960305256
72,7,10,Ticks_ISO_T2_5,47,9999,9999,9999,2960806000
72,7,10,Ticks_ISO_T2_5,48,9999,9999,9999,2961305696
72,7,10,Ticks_ISO_T2_5,49,9999,9999,9999,2961805392
72,7,10,Ticks_ISO_T2_5,50,9999,9999,9999,2962305088
72,7,10,Ticks_ISO_T2_5,51,9999,9999,9999,2962805832
72,7,10,Ticks_ISO_T2_5,52,9999,9999,9999,2963305528
72,7,10,Ticks_ISO_T2_5,53,9999,9999,9999,2963805272
72,7,10,Ticks_ISO_T2_5,54,9999,9999,9999,2964306008
72,7,10,Ticks_ISO_T2_5,55,9999,9999,9999,2964805708
72,7,10,Ticks_ISO_T2_5,56,9999,9999,9999,2965305404
72,7,10,Ticks_ISO_T2_5,57,9999,9999,9999,2965805172
72,7,10,Ticks_ISO_T2_5,58,9999,9999,9999,2966305840
72,7,10,Ticks_ISO_T2_5,59,9999,9999,9999,2966805608
72,7,10,Ticks_ISO_T2_5,60,9999,9999,9999,2967305304
72,7,10,Ticks_ISO_T2_5,61,9999,9999,9999,2967806044
72,7,10,Ticks_ISO_T2_5,62,9999,9999,9999,2968305740
72,7,10,Ticks_ISO_T2_5,63,9999,9999,9999,2968805436
72,7,10,Ticks_ISO_T2_5,64,9999,9999,9999,2969305204
72,7,10,Ticks_ISO_T2_5,65,9999,9999,9999,2969805944
72,7,10,Ticks_ISO_T2_5,66,9999,9999,9999,2970305632
72,7,10,Ticks_ISO_T2_5,67,9999,9999,9999,2970805332
72,7,10,Ticks_ISO_T2_5,68,9999,9999,9999,2971306068
72,7,10,Ticks_ISO_T2_5,69,9999,9999,9999,2971805764
72,7,10,Ticks_ISO_T2_5,70,9999,9999,9999,2972305460
72,7,10,Ticks_ISO_T2_5,71,9999,9999,9999,2972805228
72,7,10,Ticks_ISO_T2_5,72,9999,9999,9999,2973305968
72,7,10,Ticks_ISO_T2_5,73,9999,9999,9999,2973805664
72,7,10,Ticks_ISO_T2_5,74,9999,9999,9999,2974305336
72,7,10,Ticks_ISO_T2_5,75,9999,9999,9999,2974806076
72,7,10,Ticks_ISO_T2_5,76,9999,9999,9999,2975305776
72,7,10,Ticks_ISO_T2_5,77,9999,9999,9999,2975805548
72,7,10,Ticks_ISO_T2_5,78,9999,9999,9999,2976305240
72,7,10,Ticks_ISO_T2_5,79,9999,9999,9999,2976805980
72,7,10,Ticks_ISO_T2_5,80,9999,9999,9999,2977305676
72,7,10,Ticks_ISO_T2_5,81,9999,9999,9999,2977805368
72,7,10,Ticks_ISO_T2_5,82,9999,9999,9999,2978305132
72,7,10,Ticks_ISO_T2_5,83,9999,9999,9999,2978805872
72,7,10,Ticks_ISO_T2_5,84,9999,9999,9999,2979305568
72,7,10,Ticks_ISO_T2_5,85,9999,9999,9999,2979805264
72,7,10,Ticks_ISO_T2_5,86,9999,9999,9999,2980306004
72,7,10,Ticks_ISO_T2_5,87,9999,9999,9999,2980805700
72,7,10,Ticks_ISO_T2_5,88,9999,9999,9999,2981305392
72,7,10,Ticks_ISO_T2_5,89,9999,9999,9999,2981805164
72,7,10,Ticks_ISO_T2_5,90,9999,9999,9999,2982305904
72,7,10,Ticks_ISO_T2_5,91,9999,9999,9999,2982805596
72,7,10,Ticks_ISO_T2_5,92,9999,9999,9999,2983305292
72,7,10,Ticks_ISO_T2_5,93,9999,9999,9999,2983806036
72,7,10,Ticks_ISO_T2_5,94,9999,9999,9999,2984305716
72,7,10,Ticks_ISO_T2_5,95,9999,9999,9999,2984805424
72,7,10,Ticks_ISO_T2_5,96,9999,9999,9999,2985305168
72,7,10,Ticks_ISO_T2_5,97,9999,9999,9999,2985805908
72,7,10,Ticks_ISO_T2_5,98,9999,9999,9999,2986305604
72,7,10,Ticks_ISO_T2_5,99,9999,9999,9999,2986805296
72,7,10,Ticks_ISO_T2_5,100,9999,9999,9999,2987306040
72,7,10,Ticks_ISO_T2_5,101,9999,9999,9999,2987805808
72,7,10,Ticks_ISO_T2_5,102,9999,9999,9999,2988305504
72,7,10,Ticks_ISO_T2_5,103,9999,9999,9999,2988805200
72,7,10,Ticks_ISO_T2_5,104,9999,9999,9999,2989305944
72,7,10,Ticks_ISO_T2_5,105,9999,9999,9999,2989805640
72,7,10,Ticks_ISO_T2_5,106,9999,9999,9999,2990305336
72,7,10,Ticks_ISO_T2_5,107,9999,9999,9999,2990806080
72,7,10,Ticks_ISO_T2_5,108,9999,9999,9999,2991305844
72,7,10,Ticks_ISO_T2_5,109,9999,9999,9999,2991805540
72,7,10,Ticks_ISO_T2_5,110,9999,9999,9999,2992305236
72,7,10,Ticks_ISO_T2_5,111,9999,9999,9999,2992805980
72,7,10,Ticks_ISO_T2_5,112,9999,9999,9999,2993305676
72,7,10,Ticks_ISO_T2_5,113,9999,9999,9999,2993805368
72,7,10,Ticks_ISO_T2_5,114,9999,9999,9999,2994305136
72,7,10,Ticks_ISO_T2_5,115,9999,9999,9999,2994805880
72,7,10,Ticks_ISO_T2_5,116,9999,9999,9999,2995305580
72,7,10,Ticks_ISO_T2_5,117,9999,9999,9999,2995805244
72,7,10,Ticks_ISO_T2_5,118,9999,9999,9999,2996305992
72,7,10,Ticks_ISO_T2_5,119,9999,9999,9999,2996805680
72,7,10,Ticks_ISO_T2_5,120,9999,9999,9999,2997305452
72,7,10,Ticks_ISO_T2_5,121,9999,9999,9999,2997805152
72,7,10,Ticks_ISO_T2_5,122,9999,9999,9999,2998305896
72,7,10,Ticks_ISO_T2_5,123,9999,9999,9999,2998805584
72,7,10,Ticks_ISO_T2_5,124,9999,9999,9999,2999305276
72,7,10,Ticks_ISO_T2_5,125,9999,9999,9999,2999806020
72,7,10,Ticks_ISO_T2_5,126,9999,9999,9999,3000305716
72,7,10,Ticks_ISO_T2_5,127,9999,9999,9999,3000805484
72,7,10,Ticks_ISO_T2_5,128,9999,9999,9999,3001305188
72,7,10,Ticks_ISO_T2_5,129,9999,9999,9999,3001805920
72,8,9,Ticks_ISO_T2_8,0,5,42,127,3014903092
72,8,9,Ticks_ISO_T2_8,1,5,42,127,3015702844
72,8,9,Ticks_ISO_T2_8,2,1,48,30,3016355508
72,8,9,Ticks_ISO_T2_8,3,5,42,127,3016502504
72,8,9,Ticks_ISO_T2_8,4,5,42,127,3017303380
72,8,9,Ticks_ISO_T2_8,5,1,48,30,3017326648
72,8,9,Ticks_ISO_T2_8,6,5,42,127,3018103288
72,8,9,Ticks_ISO_T2_8,7,1,48,27,3018138724
72,8,9,Ticks_ISO_T2_8,8,1,48,37,3018890188
72,8,9,Ticks_ISO_T2_8,9,5,42,127,3018902864
72,8,9,Ticks_ISO_T2_8,10,1,48,33,3019646692
72,8,9,Ticks_ISO_T2_8,11,5,42,127,3019702600
72,8,9,Ticks_ISO_T2_8,12,1,48,34,3020467596
72,8,9,Ticks_ISO_T2_8,13,5,42,127,3020503456
72,8,9,Ticks_ISO_T2_8,14,1,48,32,3021197168
72,8,9,Ticks_ISO_T2_8,15,5,42,127,3021303320
72,8,9,Ticks_ISO_T2_8,16,1,48,29,3021936312
72,8,9,Ticks_ISO_T2_8,17,5,42,127,3022102908
72,8,9,Ticks_ISO_T2_8,18,1,48,26,3022868892
72,8,9,Ticks_ISO_T2_8,19,5,42,127,3022902584
72,8,9,Ticks_ISO_T2_8,20,1,48,32,3023680668
72,8,9,Ticks_ISO_T2_8,21,5,42,127,3023703364
72,8,9,Ticks_ISO_T2_8,22,1,48,33,3024487156
72,8,9,Ticks_ISO_T2_8,23,5,42,127,3024503268
72,8,9,Ticks_ISO_T2_8,24,1,48,34,3025274620
72,8,9,Ticks_ISO_T2_8,25,5,42,127,3025302852
72,8,9,Ticks_ISO_T2_8,26,1,48,30,3026087148
72,8,9,Ticks_ISO_T2_8,27,5,42,127,3026102660
72,8,9,Ticks_ISO_T2_8,28,1,48,37,3026874836
72,8,9,Ticks_ISO_T2_8,29,5,42,127,3026903368
72,8,9,Ticks_ISO_T2_8,30,1,48,38,3027632756
72,8,9,Ticks_ISO_T2_8,31,5,42,127,3027703396
72,8,9,Ticks_ISO_T2_8,32,1,48,31,3028435480
72,8,9,Ticks_ISO_T2_8,33,5,42,127,3028502832
72,8,9,Ticks_ISO_T2_8,34,1,48,33,3029193180
72,8,9,Ticks_ISO_T2_8,35,5,42,127,3029302700
72,8,9,Ticks_ISO_T2_8,36,1,48,33,3029946540
72,8,9,Ticks_ISO_T2_8,37,5,42,127,3030103332
72,8,9,Ticks_ISO_T2_8,38,1,48,29,3030834312
72,8,9,Ticks_ISO_T2_8,39,5,42,127,3030903328
72,8,9,Ticks_ISO_T2_8,40,1,48,31,3031659800
72,8,9,Ticks_ISO_T2_8,41,5,42,127,3031702764
72,8,9,Ticks_ISO_T2_8,42,1,48,19,3032491840
72,8,9,Ticks_ISO_T2_8,43,5,42,127,3032502572
72,8,9,Ticks_ISO_T2_8,44,5,42,127,3033303360
72,8,9,Ticks_ISO_T2_8,45,1,48,30,3033323536
72,8,9,Ticks_ISO_T2_8,46,5,42,127,3034103316
72,8,9,Ticks_ISO_T2_8,47,1,48,34,3034138676
72,8,9,Ticks_ISO_T2_8,48,5,42,127,3034902824
72,8,9,Ticks_ISO_T2_8,49,1,48,32,3034941624
72,8,9,Ticks_ISO_T2_8,50,5,42,127,3035702632
72,8,9,Ticks_ISO_T2_8,51,1,48,32,3035793812
72,8,9,Ticks_ISO_T2_8,52,5,42,127,3036503264
72,8,9,Ticks_ISO_T2_8,53,1,48,31,3036546044
72,8,9,Ticks_ISO_T2_8,54,5,42,127,3037303096
72,8,9,Ticks_ISO_T2_8,55,1,48,33,3037307560
72,8,9,Ticks_ISO_T2_8,56,1,48,31,3038064416
72,8,9,Ticks_ISO_T2_8,57,5,42,127,3038103044
72,8,9,Ticks_ISO_T2_8,58,1,48,35,3038870736
72,8,9,Ticks_ISO_T2_8,59,5,42,127,3038902704
72,8,9,Ticks_ISO_T2_8,60,1,48,29,3039685052
72,8,9,Ticks_ISO_T2_8,61,5,42,127,3039703336
72,8,9,Ticks_ISO_T2_8,62,1,48,34,3040490092
72,8,9,Ticks_ISO_T2_8,63,5,42,127,3040503068
72,8,9,Ticks_ISO_T2_8,64,1,48,36,3041285936
72,8,9,Ticks_ISO_T2_8,65,5,42,127,3041303100
72,8,9,Ticks_ISO_T2_8,66,1,48,29,3042087916
72,8,9,Ticks_ISO_T2_8,67,5,42,127,3042102536
72,8,9,Ticks_ISO_T2_8,68,1,48,34,3042846508
72,8,9,Ticks_ISO_T2_8,69,5,42,127,3042903540
72,8,9,Ticks_ISO_T2_8,70,1,48,38,3043662844
72,8,9,Ticks_ISO_T2_8,71,5,42,127,3043703000
72,8,9,Ticks_ISO_T2_8,72,1,48,31,3044431468
72,8,9,Ticks_ISO_T2_8,73,5,42,127,3044503032
72,8,9,Ticks_ISO_T2_8,74,1,48,32,3045221724
72,8,9,Ticks_ISO_T2_8,75,5,42,127,3045302540
72,8,9,Ticks_ISO_T2_8,76,1,48,34,3045956812
72,8,9,Ticks_ISO_T2_8,77,5,42,127,3046103528
72,8,9,Ticks_ISO_T2_8,78,1,48,29,3046743824
72,8,9,Ticks_ISO_T2_8,79,5,42,127,3046903112
72,8,9,Ticks_ISO_T2_8,80,1,48,29,3047588460
72,8,9,Ticks_ISO_T2_8,81,5,42,127,3047702844
72,8,9,Ticks_ISO_T2_8,82,1,48,31,3048359844
72,8,9,Ticks_ISO_T2_8,83,5,42,127,3048502580
72,8,9,Ticks_ISO_T2_8,84,1,48,30,3049149780
72,8,9,Ticks_ISO_T2_8,85,5,42,127,3049303432
72,8,9,Ticks_ISO_T2_8,86,1,48,31,3049923556
72,8,9,Ticks_ISO_T2_8,87,5,42,127,3050103116
72,8,9,Ticks_ISO_T2_8,88,1,48,27,3050707956
72,8,9,Ticks_ISO_T2_8,89,5,42,127,3050902852
72,8,9,Ticks_ISO_T2_8,90,1,48,27,3051505900
72,8,9,Ticks_ISO_T2_8,91,5,42,127,3051702584
72,8,9,Ticks_ISO_T2_8,92,1,48,21,3052278404
72,8,9,Ticks_ISO_T2_8,93,5,42,127,3052503364
72,8,9,Ticks_ISO_T2_8,94,5,42,127,3053303268
72,8,9,Ticks_ISO_T2_8,95,1,48,22,3053711240
72,8,9,Ticks_ISO_T2_8,96,5,42,127,3054102852
72,8,9,Ticks_ISO_T2_8,97,1,48,34,3054511800
72,8,9,Ticks_ISO_T2_8,98,5,42,127,3054902736
72,8,9,Ticks_ISO_T2_8,99,1,48,31,3055362992
72,8,9,Ticks_ISO_T2_8,100,5,42,127,3055703444
72,8,9,Ticks_ISO_T2_8,101,1,48,29,3056014704
72,8,9,Ticks_ISO_T2_8,102,5,42,127,3056503052
72,8,9,Ticks_ISO_T2_8,103,1,48,28,3056751980
72,8,9,Ticks_ISO_T2_8,104,5,42,127,3057302784
72,8,9,Ticks_ISO_T2_8,105,1,48,19,3057596892
72,8,9,Ticks_ISO_T2_8,106,5,42,127,3058102816
72,8,9,Ticks_ISO_T2_8,107,1,48,35,3058325488
72,8,9,Ticks_ISO_T2_8,108,5,42,127,3058903300
72,8,9,Ticks_ISO_T2_8,109,1,48,28,3059004480
72,8,9,Ticks_ISO_T2_8,110,5,42,127,3059703104
72,8,9,Ticks_ISO_T2_8,111,1,48,28,3059709440
72,8,9,Ticks_ISO_T2_8,112,1,48,36,3060439372
72,8,9,Ticks_ISO_T2_8,113,5,42,127,3060502832
72,8,9,Ticks_ISO_T2_8,114,1,48,33,3061202228
72,8,9,Ticks_ISO_T2_8,115,5,42,127,3061302624
72,8,9,Ticks_ISO_T2_8,116,1,48,25,3062052076
72,8,9,Ticks_ISO_T2_8,117,5,42,127,3062103348
72,8,9,Ticks_ISO_T2_8,118,1,48,22,3062839472
72,8,9,Ticks_ISO_T2_8,119,5,42,127,3062903104
72,8,9,Ticks_ISO_T2_8,120,5,42,127,3063702992
72,8,9,Ticks_ISO_T2_8,121,1,48,28,3063703884
72,8,9,Ticks_ISO_T2_8,122,5,42,127,3064502724
72,8,9,Ticks_ISO_T2_8,123,1,48,24,3064561796
72,8,9,Ticks_ISO_T2_8,124,5,42,127,3065303580
72,8,9,Ticks_ISO_T2_8,125,1,48,32,3065372896
72,8,9,Ticks_ISO_T2_8,126,5,42,127,3066103088
72,8,9,Ticks_ISO_T2_8,127,1,48,31,3066150712
72,8,9,Ticks_ISO_T2_8,128,1,48,30,3066900704
72,8,9,Ticks_ISO_T2_8,129,5,42,127,3066902816
72,8,9,Ticks_ISO_T2_8,130,1,48,31,3067508488
72,8,9,Ticks_ISO_T2_8,131,5,42,127,3067702756
72,8,9,Ticks_ISO_T2_8,132,1,48,30,3068387588
72,8,9,Ticks_ISO_T2_8,133,5,42,127,3068503464
72,8,9,Ticks_ISO_T2_8,134,1,48,28,3069196368
72,8,9,Ticks_ISO_T2_8,135,5,42,127,3069303144
72,8,9,Ticks_ISO_T2_8,136,1,48,33,3070037540
72,8,9,Ticks_ISO_T2_8,137,5,42,127,3070102820
72,8,9,Ticks_ISO_T2_8,138,1,48,35,3070856224
72,8,9,Ticks_ISO_T2_8,139,5,42,127,3070902704
72,8,9,Ticks_ISO_T2_8,140,1,48,41,3071631196
72,8,9,Ticks_ISO_T2_8,141,5,42,127,3071703336
72,8,9,Ticks_ISO_T2_8,142,1,48,35,3072444392
72,8,9,Ticks_ISO_T2_8,143,5,42,127,3072503144
72,8,9,Ticks_ISO_T2_8,144,1,48,28,3073264324
72,8,9,Ticks_ISO_T2_8,145,5,42,127,3073302876
72,8,9,Ticks_ISO_T2_8,146,1,48,33,3074066148
72,8,9,Ticks_ISO_T2_8,147,5,42,127,3074102612
72,8,9,Ticks_ISO_T2_8,148,1,48,35,3074886832
72,8,9,Ticks_ISO_T2_8,149,5,42,127,3074903540
72,8,9,Ticks_ISO_T2_8,150,1,48,33,3075672572
72,8,9,Ticks_ISO_T2_8,151,5,42,127,3075703072
72,8,9,Ticks_ISO_T2_8,152,1,48,29,3076461560
72,8,9,Ticks_ISO_T2_8,153,5,42,127,3076502956
72,8,9,Ticks_ISO_T2_8,154,5,42,127,3077302696
72,8,9,Ticks_ISO_T2_8,155,1,48,26,3077336112
72,8,9,Ticks_ISO_T2_8,156,5,42,127,3078103480
72,8,9,Ticks_ISO_T2_8,157,1,48,26,3078187000
72,8,9,Ticks_ISO_T2_8,158,5,42,127,3078903284
72,8,9,Ticks_ISO_T2_8,159,1,48,22,3078993544
72,8,9,Ticks_ISO_T2_8,160,5,42,127,3079702944
72,8,9,Ticks_ISO_T2_8,161,1,48,27,3079787316
72,8,9,Ticks_ISO_T2_8,162,1,48,21,3080470776
72,8,9,Ticks_ISO_T2_8,163,5,42,127,3080502520
72,8,9,Ticks_ISO_T2_8,164,1,48,33,3081221736
72,8,9,Ticks_ISO_T2_8,165,5,42,127,3081303376
72,8,9,Ticks_ISO_T2_8,166,1,48,34,3081971132
72,8,9,Ticks_ISO_T2_8,167,5,42,127,3082103192
72,8,9,Ticks_ISO_T2_8,168,1,48,36,3082818140
72,8,9,Ticks_ISO_T2_8,169,5,42,127,3082902940
72,8,9,Ticks_ISO_T2_8,170,1,48,33,3083646392
72,8,9,Ticks_ISO_T2_8,171,5,42,127,3083702600
72,8,9,Ticks_ISO_T2_8,172,1,48,35,3084469616
72,8,9,Ticks_ISO_T2_8,173,5,42,127,3084503532
72,8,9,Ticks_ISO_T2_8,174,1,48,33,3085273388
72,8,9,Ticks_ISO_T2_8,175,5,42,127,3085303264
72,8,9,Ticks_ISO_T2_8,176,1,48,37,3086039012
72,8,9,Ticks_ISO_T2_8,177,5,42,127,3086102776
72,8,9,Ticks_ISO_T2_8,178,5,42,127,3086902592
72,8,9,Ticks_ISO_T2_8,179,1,48,27,3086911468
72,8,9,Ticks_ISO_T2_8,180,5,42,127,3087703372
72,8,9,Ticks_ISO_T2_8,181,1,48,37,3087705964
72,8,9,Ticks_ISO_T2_8,182,1,48,35,3088474792
72,8,9,Ticks_ISO_T2_8,183,5,42,127,3088503272
72,8,9,Ticks_ISO_T2_8,184,5,42,127,3089302864
72,8,9,Ticks_ISO_T2_8,185,1,48,29,3089312940
72,8,9,Ticks_ISO_T2_8,186,5,42,127,3090102520
72,8,9,Ticks_ISO_T2_8,187,1,48,26,3090108860
72,8,9,Ticks_ISO_T2_8,188,5,42,127,3090903380
72,8,9,Ticks_ISO_T2_8,189,1,48,32,3090908892
72,8,9,Ticks_ISO_T2_8,190,1,48,33,3091686468
72,8,9,Ticks_ISO_T2_8,191,5,42,127,3091703328
72,8,9,Ticks_ISO_T2_8,192,1,48,29,3092488296
72,8,9,Ticks_ISO_T2_8,193,5,42,127,3092502836
72,8,9,Ticks_ISO_T2_8,194,1,48,29,3093250924
72,8,9,Ticks_ISO_T2_8,195,5,42,127,3093302648
72,8,9,Ticks_ISO_T2_8,196,5,42,127,3094103508
72,8,9,Ticks_ISO_T2_8,197,1,48,27,3094107228
72,8,9,Ticks_ISO_T2_8,198,1,48,24,3094897540
72,8,9,Ticks_ISO_T2_8,199,5,42,127,3094903332
72,8,9,Ticks_ISO_T2_8,200,5,42,127,3095702924
72,8,9,Ticks_ISO_T2_8,201,1,48,30,3095722796
72,8,9,Ticks_ISO_T2_8,202,1,48,32,3096467468
72,8,9,Ticks_ISO_T2_8,203,5,42,127,3096502724
72,8,9,Ticks_ISO_T2_8,204,1,48,34,3097243036
72,8,9,Ticks_ISO_T2_8,205,5,42,127,3097303284
72,8,9,Ticks_ISO_T2_8,206,1,48,28,3098028484
72,8,9,Ticks_ISO_T2_8,207,5,42,127,3098103312
72,8,9,Ticks_ISO_T2_8,208,1,48,29,3098869580
72,8,9,Ticks_ISO_T2_8,209,5,42,127,3098903196
72,8,9,Ticks_ISO_T2_8,210,5,42,127,3099702636
72,8,9,Ticks_ISO_T2_8,211,1,48,31,3099707324
72,8,9,Ticks_ISO_T2_8,212,5,42,127,3100503268
72,8,9,Ticks_ISO_T2_8,213,1,48,34,3100531320
72,8,9,Ticks_ISO_T2_8,214,5,42,127,3101303248
72,8,9,Ticks_ISO_T2_8,215,1,48,29,3101361500
72,8,9,Ticks_ISO_T2_8,216,5,42,127,3102103132
72,8,9,Ticks_ISO_T2_8,217,1,48,28,3102137596
72,8,9,Ticks_ISO_T2_8,218,5,42,127,3102902716
72,8,9,Ticks_ISO_T2_8,219,1,48,20,3102987892
72,8,9,Ticks_ISO_T2_8,220,5,42,127,3103703496
72,8,9,Ticks_ISO_T2_8,221,1,48,31,3103802732
72,8,9,Ticks_ISO_T2_8,222,5,42,127,3104503080
72,8,9,Ticks_ISO_T2_8,223,1,48,31,3104548832
72,8,9,Ticks_ISO_T2_8,224,1,48,35,3105303260
72,8,9,Ticks_ISO_T2_8,225,5,42,127,3105304604
72,8,9,Ticks_ISO_T2_8,226,1,48,35,3106075056
72,8,9,Ticks_ISO_T2_8,227,5,42,127,3106102616
72,8,9,Ticks_ISO_T2_8,228,1,48,34,3106857664
72,8,9,Ticks_ISO_T2_8,229,5,42,127,3106903472
72,8,9,Ticks_ISO_T2_8,230,1,48,29,3107630172
72,8,9,Ticks_ISO_T2_8,231,5,42,127,3107703080
72,8,9,Ticks_ISO_T2_8,232,1,48,28,3108461792
72,8,9,Ticks_ISO_T2_8,233,5,42,127,3108502964
72,8,9,Ticks_ISO_T2_8,234,1,48,29,3109261000
72,8,9,Ticks_ISO_T2_8,235,5,42,127,3109302620
72,8,9,Ticks_ISO_T2_8,236,5,42,127,3110103260
72,8,9,Ticks_ISO_T2_8,237,1,48,35,3110134952
72,8,9,Ticks_ISO_T2_8,0,9999,9999,9999,3014900804
72,8,9,Ticks_ISO_T2_8,1,9999,9999,9999,3015700556
72,8,9,Ticks_ISO_T2_8,2,9999,9999,9999,3016500292
72,8,9,Ticks_ISO_T2_8,3,9999,9999,9999,3017301092
72,8,9,Ticks_ISO_T2_8,4,9999,9999,9999,3018100848
72,8,9,Ticks_ISO_T2_8,5,9999,9999,9999,3018900580
72,8,9,Ticks_ISO_T2_8,6,9999,9999,9999,3019700312
72,8,9,Ticks_ISO_T2_8,7,9999,9999,9999,3020501092
72,8,9,Ticks_ISO_T2_8,8,9999,9999,9999,3021300808
72,8,9,Ticks_ISO_T2_8,9,9999,9999,9999,3022100544
72,8,9,Ticks_ISO_T2_8,10,9999,9999,9999,3022900296
72,8,9,Ticks_ISO_T2_8,11,9999,9999,9999,3023701072
72,8,9,Ticks_ISO_T2_8,12,9999,9999,9999,3024500832
72,8,9,Ticks_ISO_T2_8,13,9999,9999,9999,3025300564
72,8,9,Ticks_ISO_T2_8,14,9999,9999,9999,3026100300
72,8,9,Ticks_ISO_T2_8,15,9999,9999,9999,3026901080
72,8,9,Ticks_ISO_T2_8,16,9999,9999,9999,3027700812
72,8,9,Ticks_ISO_T2_8,17,9999,9999,9999,3028500544
72,8,9,Ticks_ISO_T2_8,18,9999,9999,9999,3029300336
72,8,9,Ticks_ISO_T2_8,19,9999,9999,9999,3030101044
72,8,9,Ticks_ISO_T2_8,20,9999,9999,9999,3030900816
72,8,9,Ticks_ISO_T2_8,21,9999,9999,9999,3031700552
72,8,9,Ticks_ISO_T2_8,22,9999,9999,9999,3032500284
72,8,9,Ticks_ISO_T2_8,23,9999,9999,9999,3033301072
72,8,9,Ticks_ISO_T2_8,24,9999,9999,9999,3034100804
72,8,9,Ticks_ISO_T2_8,25,9999,9999,9999,3034900536
72,8,9,Ticks_ISO_T2_8,26,9999,9999,9999,3035700268
72,8,9,Ticks_ISO_T2_8,27,9999,9999,9999,3036501048
72,8,9,Ticks_ISO_T2_8,28,9999,9999,9999,3037300808
72,8,9,Ticks_ISO_T2_8,29,9999,9999,9999,3038100536
72,8,9,Ticks_ISO_T2_8,30,9999,9999,9999,3038900340
72,8,9,Ticks_ISO_T2_8,31,9999,9999,9999,3039701048
72,8,9,Ticks_ISO_T2_8,32,9999,9999,9999,3040500856
72,8,9,Ticks_ISO_T2_8,33,9999,9999,9999,3041300588
72,8,9,Ticks_ISO_T2_8,34,9999,9999,9999,3042100324
72,8,9,Ticks_ISO_T2_8,35,9999,9999,9999,3042901104
72,8,9,Ticks_ISO_T2_8,36,9999,9999,9999,3043700784
72,8,9,Ticks_ISO_T2_8,37,9999,9999,9999,3044500592
72,8,9,Ticks_ISO_T2_8,38,9999,9999,9999,3045300328
72,8,9,Ticks_ISO_T2_8,39,9999,9999,9999,3046101092
72,8,9,Ticks_ISO_T2_8,40,9999,9999,9999,3046900824
72,8,9,Ticks_ISO_T2_8,41,9999,9999,9999,3047700556
72,8,9,Ticks_ISO_T2_8,42,9999,9999,9999,3048500288
72,8,9,Ticks_ISO_T2_8,43,9999,9999,9999,3049301068
72,8,9,Ticks_ISO_T2_8,44,9999,9999,9999,3050100828
72,8,9,Ticks_ISO_T2_8,45,9999,9999,9999,3050900560
72,8,9,Ticks_ISO_T2_8,46,9999,9999,9999,3051700296
72,8,9,Ticks_ISO_T2_8,47,9999,9999,9999,3052501076
72,8,9,Ticks_ISO_T2_8,48,9999,9999,9999,3053300832
72,8,9,Ticks_ISO_T2_8,49,9999,9999,9999,3054100564
72,8,9,Ticks_ISO_T2_8,50,9999,9999,9999,3054900300
72,8,9,Ticks_ISO_T2_8,51,9999,9999,9999,3055701080
72,8,9,Ticks_ISO_T2_8,52,9999,9999,9999,3056500840
72,8,9,Ticks_ISO_T2_8,53,9999,9999,9999,3057300572
72,8,9,Ticks_ISO_T2_8,54,9999,9999,9999,3058100304
72,8,9,Ticks_ISO_T2_8,55,9999,9999,9999,3058901084
72,8,9,Ticks_ISO_T2_8,56,9999,9999,9999,3059700816
72,8,9,Ticks_ISO_T2_8,57,9999,9999,9999,3060500544
72,8,9,Ticks_ISO_T2_8,58,9999,9999,9999,3061300336
72,8,9,Ticks_ISO_T2_8,59,9999,9999,9999,3062101056
72,8,9,Ticks_ISO_T2_8,60,9999,9999,9999,3062900816
72,8,9,Ticks_ISO_T2_8,61,9999,9999,9999,3063700552
72,8,9,Ticks_ISO_T2_8,62,9999,9999,9999,3064500288
72,8,9,Ticks_ISO_T2_8,63,9999,9999,9999,3065301068
72,8,9,Ticks_ISO_T2_8,64,9999,9999,9999,3066100800
72,8,9,Ticks_ISO_T2_8,65,9999,9999,9999,3066900572
72,8,9,Ticks_ISO_T2_8,66,9999,9999,9999,3067700320
72,8,9,Ticks_ISO_T2_8,67,9999,9999,9999,3068501100
72,8,9,Ticks_ISO_T2_8,68,9999,9999,9999,3069300784
72,8,9,Ticks_ISO_T2_8,69,9999,9999,9999,3070100532
72,8,9,Ticks_ISO_T2_8,70,9999,9999,9999,3070900344
72,8,9,Ticks_ISO_T2_8,71,9999,9999,9999,3071701048
72,8,9,Ticks_ISO_T2_8,72,9999,9999,9999,3072500784
72,8,9,Ticks_ISO_T2_8,73,9999,9999,9999,3073300588
72,8,9,Ticks_ISO_T2_8,74,9999,9999,9999,3074100324
72,8,9,Ticks_ISO_T2_8,75,9999,9999,9999,3074901104
72,8,9,Ticks_ISO_T2_8,76,9999,9999,9999,3075700784
72,8,9,Ticks_ISO_T2_8,77,9999,9999,9999,3076500596
72,8,9,Ticks_ISO_T2_8,78,9999,9999,9999,3077300336
72,8,9,Ticks_ISO_T2_8,79,9999,9999,9999,3078101040
72,8,9,Ticks_ISO_T2_8,80,9999,9999,9999,3078900848
72,8,9,Ticks_ISO_T2_8,81,9999,9999,9999,3079700580
72,8,9,Ticks_ISO_T2_8,82,9999,9999,9999,3080500308
72,8,9,Ticks_ISO_T2_8,83,9999,9999,9999,3081301088
72,8,9,Ticks_ISO_T2_8,84,9999,9999,9999,3082100832
72,8,9,Ticks_ISO_T2_8,85,9999,9999,9999,3082900580
72,8,9,Ticks_ISO_T2_8,86,9999,9999,9999,3083700312
72,8,9,Ticks_ISO_T2_8,87,9999,9999,9999,3084501092
72,8,9,Ticks_ISO_T2_8,88,9999,9999,9999,3085300824
72,8,9,Ticks_ISO_T2_8,89,9999,9999,9999,3086100560
72,8,9,Ticks_ISO_T2_8,90,9999,9999,9999,3086900304
72,8,9,Ticks_ISO_T2_8,91,9999,9999,9999,3087701084
72,8,9,Ticks_ISO_T2_8,92,9999,9999,9999,3088500836
72,8,9,Ticks_ISO_T2_8,93,9999,9999,9999,3089300576
72,8,9,Ticks_ISO_T2_8,94,9999,9999,9999,3090100308
72,8,9,Ticks_ISO_T2_8,95,9999,9999,9999,3090901088
72,8,9,Ticks_ISO_T2_8,96,9999,9999,9999,3091700816
72,8,9,Ticks_ISO_T2_8,97,9999,9999,9999,3092500548
72,8,9,Ticks_ISO_T2_8,98,9999,9999,9999,3093300284
72,8,9,Ticks_ISO_T2_8,99,9999,9999,9999,3094101072
72,8,9,Ticks_ISO_T2_8,100,9999,9999,9999,3094900820
72,8,9,Ticks_ISO_T2_8,101,9999,9999,9999,3095700560
72,8,9,Ticks_ISO_T2_8,102,9999,9999,9999,3096500288
72,8,9,Ticks_ISO_T2_8,103,9999,9999,9999,3097301068
72,8,9,Ticks_ISO_T2_8,104,9999,9999,9999,3098100800
72,8,9,Ticks_ISO_T2_8,105,9999,9999,9999,3098900536
72,8,9,Ticks_ISO_T2_8,106,9999,9999,9999,3099700272
72,8,9,Ticks_ISO_T2_8,107,9999,9999,9999,3100501052
72,8,9,Ticks_ISO_T2_8,108,9999,9999,9999,3101300812
72,8,9,Ticks_ISO_T2_8,109,9999,9999,9999,3102100548
72,8,9,Ticks_ISO_T2_8,110,9999,9999,9999,3102900280
72,8,9,Ticks_ISO_T2_8,111,9999,9999,9999,3103701060
72,8,9,Ticks_ISO_T2_8,112,9999,9999,9999,3104500792
72,8,9,Ticks_ISO_T2_8,113,9999,9999,9999,3105300600
72,8,9,Ticks_ISO_T2_8,114,9999,9999,9999,3106100328
72,8,9,Ticks_ISO_T2_8,115,9999,9999,9999,3106901108
72,8,9,Ticks_ISO_T2_8,116,9999,9999,9999,3107700792
72,8,9,Ticks_ISO_T2_8,117,9999,9999,9999,3108500524
72,8,9,Ticks_ISO_T2_8,118,9999,9999,9999,3109300332
72,8,9,Ticks_ISO_T2_8,119,9999,9999,9999,3110101044
72,9,23,Ticks_Phase_5,0,5,42,127,3121443140
72,9,23,Ticks_Phase_5,1,5,42,127,3121942848
72,9,23,Ticks_Phase_5,2,5,42,127,3122443008
72,9,23,Ticks_Phase_5,3,1,48,30,3122536388
72,9,23,Ticks_Phase_5,4,5,42,127,3122943520
72,9,23,Ticks_Phase_5,5,1,48,31,3122973008
72,9,23,Ticks_Phase_5,6,5,42,127,3123443060
72,9,23,Ticks_Phase_5,7,1,48,22,3123471648
72,9,23,Ticks_Phase_5,8,5,42,127,3123942896
72,9,23,Ticks_Phase_5,9,1,48,26,3123992524
72,9,23,Ticks_Phase_5,10,5,42,127,3124442732
72,9,23,Ticks_Phase_5,11,1,48,23,3124464728
72,9,23,Ticks_Phase_5,12,5,42,127,3124943244
72,9,23,Ticks_Phase_5,13,1,48,32,3124980968
72,9,23,Ticks_Phase_5,14,5,42,127,3125442856
72,9,23,Ticks_Phase_5,15,1,48,35,3125501176
72,9,23,Ticks_Phase_5,16,5,42,127,3125942916
72,9,23,Ticks_Phase_5,17,1,48,33,3125993668
72,9,23,Ticks_Phase_5,18,5,42,127,3126443504
72,9,23,Ticks_Phase_5,19,1,48,27,3126510272
72,9,23,Ticks_Phase_5,20,5,42,127,3126943192
72,9,23,Ticks_Phase_5,21,1,48,30,3127013568
72,9,23,Ticks_Phase_5,22,5,42,127,3127442880
72,9,23,Ticks_Phase_5,23,1,48,30,3127473192
72,9,23,Ticks_Phase_5,24,1,48,25,3127937440
72,9,23,Ticks_Phase_5,25,5,42,127,3127942788
72,9,23,Ticks_Phase_5,26,5,42,127,3128443232
72,9,23,Ticks_Phase_5,27,1,48,27,3128469188
72,9,23,Ticks_Phase_5,28,1,48,30,3128932252
72,9,23,Ticks_Phase_5,29,5,42,127,3128942988
72,9,23,Ticks_Phase_5,30,5,42,127,3129442532
72,9,23,Ticks_Phase_5,31,1,48,31,3129456660
72,9,23,Ticks_Phase_5,32,1,48,33,3129930320
72,9,23,Ticks_Phase_5,33,5,42,127,3129943384
72,9,23,Ticks_Phase_5,34,5,42,127,3130443008
72,9,23,Ticks_Phase_5,35,1,48,29,3130444344
72,9,23,Ticks_Phase_5,36,1,48,27,3130920780
72,9,23,Ticks_Phase_5,37,5,42,127,3130942912
72,9,23,Ticks_Phase_5,38,1,48,37,3131432908
72,9,23,Ticks_Phase_5,39,5,42,127,3131442600
72,9,23,Ticks_Phase_5,40,1,48,35,3131906832
72,9,23,Ticks_Phase_5,41,5,42,127,3131943260
72,9,23,Ticks_Phase_5,42,1,48,36,3132443100
72,9,23,Ticks_Phase_5,43,5,42,127,3132444512
72,9,23,Ticks_Phase_5,44,5,42,127,3132942640
72,9,23,Ticks_Phase_5,45,1,48,35,3132946584
72,9,23,Ticks_Phase_5,46,1,48,38,3133424616
72,9,23,Ticks_Phase_5,47,5,42,127,3133442396
72,9,23,Ticks_Phase_5,48,1,48,37,3133930604
72,9,23,Ticks_Phase_5,49,5,42,127,3133943132
72,9,23,Ticks_Phase_5,50,5,42,127,3134442900
72,9,23,Ticks_Phase_5,51,1,48,29,3134480552
72,9,23,Ticks_Phase_5,52,1,48,35,3134905408
72,9,23,Ticks_Phase_5,53,5,42,127,3134942508
72,9,23,Ticks_Phase_5,54,5,42,127,3135443248
72,9,23,Ticks_Phase_5,55,1,48,37,3135478416
72,9,23,Ticks_Phase_5,56,5,42,127,3135942940
72,9,23,Ticks_Phase_5,57,1,48,36,3135991968
72,9,23,Ticks_Phase_5,58,5,42,127,3136432592
72,9,23,Ticks_Phase_5,59,1,48,42,3136501540
72,9,23,Ticks_Phase_5,60,5,42,127,3136933476
72,9,23,Ticks_Phase_5,61,1,48,37,3136960328
72,9,23,Ticks_Phase_5,62,5,42,127,3137432868
72,9,23,Ticks_Phase_5,63,1,48,36,3137481448
72,9,23,Ticks_Phase_5,64,5,42,127,3137932556
72,9,23,Ticks_Phase_5,65,1,48,32,3137940848
72,9,23,Ticks_Phase_5,66,5,42,127,3138433660
72,9,23,Ticks_Phase_5,67,1,48,38,3138471760
72,9,23,Ticks_Phase_5,68,5,42,127,3138933496
72,9,23,Ticks_Phase_5,69,1,48,35,3138954816
72,9,23,Ticks_Phase_5,70,5,42,127,3139432812
72,9,23,Ticks_Phase_5,71,1,48,33,3139444468
72,9,23,Ticks_Phase_5,72,5,42,127,3139932576
72,9,23,Ticks_Phase_5,73,1,48,24,3139942288
72,9,23,Ticks_Phase_5,74,1,48,26,3140383752
72,9,23,Ticks_Phase_5,75,5,42,127,3140433204
72,9,23,Ticks_Phase_5,76,5,42,127,3140933124
72,9,23,Ticks_Phase_5,77,1,48,24,3140969140
72,9,23,Ticks_Phase_5,78,5,42,127,3141432592
72,9,23,Ticks_Phase_5,79,1,48,33,3141482992
72,9,23,Ticks_Phase_5,80,5,42,127,3141933620
72,9,23,Ticks_Phase_5,81,1,48,24,3141949620
72,9,23,Ticks_Phase_5,82,1,48,36,3142403844
72,9,23,Ticks_Phase_5,83,5,42,127,3142443560
72,9,23,Ticks_Phase_5,84,5,42,127,3142943036
72,9,23,Ticks_Phase_5,85,1,48,31,3142990860
72,9,23,Ticks_Phase_5,86,5,42,127,3143442944
72,9,23,Ticks_Phase_5,87,1,48,33,3143449356
72,9,23,Ticks_Phase_5,88,5,42,127,3143942484
72,9,23,Ticks_Phase_5,89,1,48,38,3143992712
72,9,23,Ticks_Phase_5,90,5,42,127,3144443440
72,9,23,Ticks_Phase_5,91,1,48,34,3144477264
72,9,23,Ticks_Phase_5,92,5,42,127,3144942908
72,9,23,Ticks_Phase_5,93,1,48,35,3144986692
72,9,23,Ticks_Phase_5,94,1,48,32,3145443980
72,9,23,Ticks_Phase_5,95,5,42,127,3145452924
72,9,23,Ticks_Phase_5,96,5,42,127,3145952616
72,9,23,Ticks_Phase_5,97,1,48,31,3145975580
72,9,23,Ticks_Phase_5,98,1,48,28,3146452524
72,9,23,Ticks_Phase_5,99,5,42,127,3146453940
72,9,23,Ticks_Phase_5,100,1,48,31,3146913688
72,9,23,Ticks_Phase_5,101,5,42,127,3146953108
72,9,23,Ticks_Phase_5,102,5,42,127,3147452804
72,9,23,Ticks_Phase_5,103,1,48,32,3147468276
72,9,23,Ticks_Phase_5,104,5,42,127,3147952568
72,9,23,Ticks_Phase_5,105,1,48,35,3147977028
72,9,23,Ticks_Phase_5,106,1,48,31,3148437988
72,9,23,Ticks_Phase_5,107,5,42,127,3148453444
72,9,23,Ticks_Phase_5,108,5,42,127,3148953064
72,9,23,Ticks_Phase_5,109,1,48,31,3148970484
72,9,23,Ticks_Phase_5,110,1,48,32,3149443212
72,9,23,Ticks_Phase_5,111,5,42,127,3149452672
72,9,23,Ticks_Phase_5,112,1,48,30,3149941324
72,9,23,Ticks_Phase_5,113,5,42,127,3149953480
72,9,23,Ticks_Phase_5,114,5,42,127,3150453324
72,9,23,Ticks_Phase_5,115,1,48,32,3150460632
72,9,23,Ticks_Phase_5,116,5,42,127,3150952792
72,9,23,Ticks_Phase_5,117,1,48,33,3151000700
72,9,23,Ticks_Phase_5,118,5,42,127,3151452404
72,9,23,Ticks_Phase_5,119,1,48,27,3151465780
72,9,23,Ticks_Phase_5,120,1,48,34,3151945584
72,9,23,Ticks_Phase_5,121,5,42,127,3151953480
72,9,23,Ticks_Phase_5,122,5,42,127,3152453172
72,9,23,Ticks_Phase_5,123,1,48,34,3152476084
72,9,23,Ticks_Phase_5,124,5,42,127,3152952640
72,9,23,Ticks_Phase_5,125,1,48,34,3152978892
72,9,23,Ticks_Phase_5,126,1,48,32,3153418060
72,9,23,Ticks_Phase_5,127,5,42,127,3153472988
72,9,23,Ticks_Phase_5,128,5,42,127,3153972536
72,9,23,Ticks_Phase_5,129,1,48,35,3153986812
72,9,23,Ticks_Phase_5,130,5,42,127,3154473420
72,9,23,Ticks_Phase_5,131,1,48,32,3154552800
72,9,23,Ticks_Phase_5,132,5,42,127,3154973256
72,9,23,Ticks_Phase_5,133,1,48,33,3155019284
72,9,23,Ticks_Phase_5,134,5,42,127,3155472720
72,9,23,Ticks_Phase_5,135,1,48,28,3155488120
72,9,23,Ticks_Phase_5,136,5,42,127,3155972412
72,9,23,Ticks_Phase_5,137,1,48,29,3155983244
72,9,23,Ticks_Phase_5,138,5,42,127,3156473216
72,9,23,Ticks_Phase_5,139,1,48,23,3156480612
72,9,23,Ticks_Phase_5,140,1,48,31,3156944264
72,9,23,Ticks_Phase_5,141,5,42,127,3156973048
72,9,23,Ticks_Phase_5,142,1,48,30,3157423656
72,9,23,Ticks_Phase_5,143,5,42,127,3157472588
72,9,23,Ticks_Phase_5,144,5,42,127,3157973328
72,9,23,Ticks_Phase_5,145,1,48,34,3157975848
72,9,23,Ticks_Phase_5,146,1,48,35,3158449084
72,9,23,Ticks_Phase_5,147,5,42,127,3158473308
72,9,23,Ticks_Phase_5,148,1,48,29,3158967276
72,9,23,Ticks_Phase_5,149,5,42,127,3158972704
72,9,23,Ticks_Phase_5,150,5,42,127,3159472472
72,9,23,Ticks_Phase_5,151,1,48,32,3159513636
72,9,23,Ticks_Phase_5,152,5,42,127,3159973356
72,9,23,Ticks_Phase_5,153,1,48,35,3159993324
72,9,23,Ticks_Phase_5,154,1,48,31,3160468512
72,9,23,Ticks_Phase_5,155,5,42,127,3160473184
72,9,23,Ticks_Phase_5,156,1,48,33,3160970464
72,9,23,Ticks_Phase_5,157,5,42,127,3160972576
72,9,23,Ticks_Phase_5,158,5,42,127,3161473392
72,9,23,Ticks_Phase_5,159,1,48,38,3161481012
72,9,23,Ticks_Phase_5,160,5,42,127,3161952564
72,9,23,Ticks_Phase_5,161,1,48,35,3161959196
72,9,23,Ticks_Phase_5,162,5,42,127,3162453272
72,9,23,Ticks_Phase_5,163,1,48,37,3162494988
72,9,23,Ticks_Phase_5,164,5,42,127,3162953260
72,9,23,Ticks_Phase_5,165,1,48,33,3163015416
72,9,23,Ticks_Phase_5,166,5,42,127,3163452948
72,9,23,Ticks_Phase_5,167,1,48,34,3163540488
72,9,23,Ticks_Phase_5,168,5,42,127,3163952560
72,9,23,Ticks_Phase_5,169,1,48,33,3164022580
72,9,23,Ticks_Phase_5,170,5,42,127,3164453220
72,9,23,Ticks_Phase_5,171,1,48,30,3164480688
72,9,23,Ticks_Phase_5,172,1,48,34,3164927336
72,9,23,Ticks_Phase_5,173,5,42,127,3164953052
72,9,23,Ticks_Phase_5,174,5,42,127,3165452672
72,9,23,Ticks_Phase_5,175,1,48,33,3165470608
72,9,23,Ticks_Phase_5,176,5,42,127,3165953404
72,9,23,Ticks_Phase_5,177,1,48,34,3165980036
72,9,23,Ticks_Phase_5,178,1,48,40,3166433516
72,9,23,Ticks_Phase_5,179,5,42,127,3166453012
72,9,23,Ticks_Phase_5,180,5,42,127,3166952784
72,9,23,Ticks_Phase_5,181,1,48,41,3166980164
72,9,23,Ticks_Phase_5,182,5,42,127,3167452472
72,9,23,Ticks_Phase_5,183,1,48,39,3167484124
72,9,23,Ticks_Phase_5,184,5,42,127,3167953352
72,9,23,Ticks_Phase_5,185,1,48,33,3168021108
72,9,23,Ticks_Phase_5,186,5,42,127,3168453116
72,9,23,Ticks_Phase_5,187,1,48,30,3168459452
72,9,23,Ticks_Phase_5,188,5,42,127,3168952656
72,9,23,Ticks_Phase_5,189,1,48,32,3168955172
72,9,23,Ticks_Phase_5,190,5,42,127,3169453392
72,9,23,Ticks_Phase_5,191,1,48,27,3169454804
72,9,23,Ticks_Phase_5,192,5,42,127,3169913164
72,9,23,Ticks_Phase_5,193,1,48,32,3169987572
72,9,23,Ticks_Phase_5,194,5,42,127,3170413148
72,9,23,Ticks_Phase_5,195,1,48,31,3170452072
72,9,23,Ticks_Phase_5,196,5,42,127,3170912616
72,9,23,Ticks_Phase_5,197,1,48,31,3170937448
72,9,23,Ticks_Phase_5,198,1,48,31,3171376064
72,9,23,Ticks_Phase_5,199,5,42,127,3171413464
72,9,23,Ticks_Phase_5,200,1,48,31,3171886540
72,9,23,Ticks_Phase_5,201,5,42,127,3171913156
72,9,23,Ticks_Phase_5,202,1,48,29,3172388924
72,9,23,Ticks_Phase_5,203,5,42,127,3172413064
72,9,23,Ticks_Phase_5,204,1,48,32,3172869956
72,9,23,Ticks_Phase_5,205,5,42,127,3172912456
72,9,23,Ticks_Phase_5,206,1,48,30,3173404324
72,9,23,Ticks_Phase_5,207,5,42,127,3173413264
72,9,23,Ticks_Phase_5,208,1,48,34,3173865292
72,9,23,Ticks_Phase_5,209,5,42,127,3173913176
72,9,23,Ticks_Phase_5,210,5,42,127,3174412872
72,9,23,Ticks_Phase_5,211,1,48,33,3174422136
72,9,23,Ticks_Phase_5,212,5,42,127,3174913384
72,9,23,Ticks_Phase_5,213,1,48,33,3174916052
72,9,23,Ticks_Phase_5,214,1,48,32,3175412472
72,9,23,Ticks_Phase_5,215,5,42,127,3175413888
72,9,23,Ticks_Phase_5,216,5,42,127,3175912836
72,9,23,Ticks_Phase_5,217,1,48,36,3175918272
72,9,23,Ticks_Phase_5,218,5,42,127,3176412448
72,9,23,Ticks_Phase_5,219,1,48,29,3176432648
72,9,23,Ticks_Phase_5,220,5,42,127,3176913408
72,9,23,Ticks_Phase_5,221,1,48,34,3176928732
72,9,23,Ticks_Phase_5,222,1,48,33,3177409160
72,9,23,Ticks_Phase_5,223,5,42,127,3177413088
72,9,23,Ticks_Phase_5,224,5,42,127,3177912860
72,9,23,Ticks_Phase_5,225,1,48,32,3177921080
72,9,23,Ticks_Phase_5,226,5,42,127,3178462724
72,9,23,Ticks_Phase_5,227,1,48,27,3178935136
72,9,23,Ticks_Phase_5,228,5,42,127,3178963324
72,9,23,Ticks_Phase_5,229,5,42,127,3179463020
72,9,23,Ticks_Phase_5,230,1,48,30,3179467860
72,9,23,Ticks_Phase_5,231,5,42,127,3179962780
72,9,23,Ticks_Phase_5,232,1,48,31,3179974064
72,9,23,Ticks_Phase_5,233,5,42,127,3180462396
72,9,23,Ticks_Phase_5,234,1,48,33,3180477268
72,9,23,Ticks_Phase_5,235,5,42,127,3180963204
72,9,23,Ticks_Phase_5,236,1,48,34,3180967972
72,9,23,Ticks_Phase_5,237,5,42,127,3181462892
72,9,23,Ticks_Phase_5,238,1,48,35,3181498512
72,9,23,Ticks_Phase_5,239,1,48,34,3181962804
72,9,23,Ticks_Phase_5,240,5,42,127,3181964212
72,9,23,Ticks_Phase_5,241,5,42,127,3182463240
72,9,23,Ticks_Phase_5,242,1,48,32,3182483884
72,9,23,Ticks_Phase_5,243,5,42,127,3182963004
72,9,23,Ticks_Phase_5,244,1,48,31,3182965744
72,9,23,Ticks_Phase_5,245,1,48,32,3183433572
72,9,23,Ticks_Phase_5,246,5,42,127,3183462760
72,9,23,Ticks_Phase_5,247,5,42,127,3183962380
72,9,23,Ticks_Phase_5,248,1,48,33,3183976056
72,9,23,Ticks_Phase_5,249,1,48,33,3184459380
72,9,23,Ticks_Phase_5,250,5,42,127,3184463160
72,9,23,Ticks_Phase_5,251,1,48,33,3184953832
72,9,23,Ticks_Phase_5,252,5,42,127,3184962848
72,9,23,Ticks_Phase_5,253,1,48,31,3185448348
72,9,23,Ticks_Phase_5,254,5,42,127,3185462760
72,9,23,Ticks_Phase_5,255,1,48,25,3185952608
72,9,23,Ticks_Phase_5,256,5,42,127,3185963496
72,9,23,Ticks_Phase_5,257,5,42,127,3186462968
72,9,23,Ticks_Phase_5,258,1,48,29,3186463932
72,9,23,Ticks_Phase_5,259,5,42,127,3187063032
72,9,23,Ticks_Phase_5,260,1,48,20,3187449968
72,9,23,Ticks_Phase_5,261,5,42,127,3187562868
72,9,23,Ticks_Phase_5,262,1,48,34,3187960808
72,9,23,Ticks_Phase_5,263,5,42,127,3188062852
72,9,23,Ticks_Phase_5,264,5,42,127,3188563288
72,9,23,Ticks_Phase_5,265,1,48,35,3188575868
72,9,23,Ticks_Phase_5,266,5,42,127,3189062976
72,9,23,Ticks_Phase_5,267,1,48,31,3189127972
72,9,23,Ticks_Phase_5,268,5,42,127,3189562812
72,9,23,Ticks_Phase_5,269,1,48,34,3189634704
72,9,23,Ticks_Phase_5,270,5,42,127,3190062424
72,9,23,Ticks_Phase_5,271,1,48,34,3190125104
72,9,23,Ticks_Phase_5,272,5,42,127,3190563160
72,9,23,Ticks_Phase_5,273,1,48,36,3190612120
72,9,23,Ticks_Phase_5,274,5,42,127,3191062924
72,9,23,Ticks_Phase_5,275,1,48,35,3191101244
72,9,23,Ticks_Phase_5,276,5,42,127,3191562536
72,9,23,Ticks_Phase_5,277,1,48,32,3191592544
72,9,23,Ticks_Phase_5,278,5,42,127,3192063496
72,9,23,Ticks_Phase_5,279,1,48,32,3192088928
72,9,23,Ticks_Phase_5,280,1,48,27,3192560072
72,9,23,Ticks_Phase_5,281,5,42,127,3192563104
72,9,23,Ticks_Phase_5,282,5,42,127,3193062724
72,9,23,Ticks_Phase_5,283,1,48,34,3193082396
72,9,23,Ticks_Phase_5,284,5,42,127,3193562632
72,9,23,Ticks_Phase_5,285,1,48,32,3193582684
72,9,23,Ticks_Phase_5,286,5,42,127,3194063368
72,9,23,Ticks_Phase_5,287,1,48,32,3194074428
72,9,23,Ticks_Phase_5,288,5,42,127,3194562984
72,9,23,Ticks_Phase_5,289,1,48,33,3194569688
72,9,23,Ticks_Phase_5,290,1,48,30,3195060312
72,9,23,Ticks_Phase_5,291,5,42,127,3195062664
72,9,23,Ticks_Phase_5,292,1,48,33,3195548464
72,9,23,Ticks_Phase_5,293,5,42,127,3195563328
72,9,23,Ticks_Phase_5,294,1,48,33,3196027412
72,9,23,Ticks_Phase_5,295,5,42,127,3196063092
72,9,23,Ticks_Phase_5,296,5,42,127,3196462784
72,9,23,Ticks_Phase_5,297,1,48,33,3196521728
72,9,23,Ticks_Phase_5,298,5,42,127,3196963072
72,9,23,Ticks_Phase_5,299,1,48,35,3196976152
72,9,23,Ticks_Phase_5,300,1,48,31,3197428720
72,9,23,Ticks_Phase_5,301,5,42,127,3197462904
72,9,23,Ticks_Phase_5,302,1,48,30,3197928984
72,9,23,Ticks_Phase_5,303,5,42,127,3197962716
72,9,23,Ticks_Phase_5,304,1,48,31,3198413324
72,9,23,Ticks_Phase_5,305,5,42,127,3198463376
72,9,23,Ticks_Phase_5,306,1,48,30,3198939592
72,9,23,Ticks_Phase_5,307,5,42,127,3198963140
72,9,23,Ticks_Phase_5,308,1,48,35,3199432248
72,9,23,Ticks_Phase_5,309,5,42,127,3199462756
72,9,23,Ticks_Phase_5,310,1,48,33,3199908564
72,9,23,Ticks_Phase_5,311,5,42,127,3199962816
72,9,23,Ticks_Phase_5,312,1,48,29,3200389076
72,9,23,Ticks_Phase_5,313,5,42,127,3200463328
72,9,23,Ticks_Phase_5,314,1,48,31,3200892892
72,9,23,Ticks_Phase_5,315,5,42,127,3200962868
72,9,23,Ticks_Phase_5,316,1,48,32,3201378196
72,9,23,Ticks_Phase_5,317,5,42,127,3201462628
72,9,23,Ticks_Phase_5,318,1,48,28,3201946404
72,9,23,Ticks_Phase_5,319,5,42,127,3201963512
72,9,23,Ticks_Phase_5,320,1,48,30,3202425952
72,9,23,Ticks_Phase_5,321,5,42,127,3202463128
72,9,23,Ticks_Phase_5,322,5,42,127,3202962896
72,9,23,Ticks_Phase_5,323,1,48,28,3202976572
72,9,23,Ticks_Phase_5,324,1,48,29,3203456628
72,9,23,Ticks_Phase_5,325,5,42,127,3203462652
72,9,23,Ticks_Phase_5,326,1,48,28,3203922448
72,9,23,Ticks_Phase_5,327,5,42,127,3203963236
72,9,23,Ticks_Phase_5,328,5,42,127,3204462932
72,9,23,Ticks_Phase_5,329,1,48,26,3204468292
72,9,23,Ticks_Phase_5,330,1,48,24,3204948848
72,9,23,Ticks_Phase_5,331,5,42,127,3204962760
72,9,23,Ticks_Phase_5,332,1,48,28,3205435208
72,9,23,Ticks_Phase_5,333,5,42,127,3205463396
72,9,23,Ticks_Phase_5,334,1,48,26,3205943808
72,9,23,Ticks_Phase_5,335,5,42,127,3205963232
72,9,23,Ticks_Phase_5,0,9999,9999,9999,3121440852
72,9,23,Ticks_Phase_5,1,9999,9999,9999,3121940564
72,9,23,Ticks_Phase_5,2,9999,9999,9999,3122440276
72,9,23,Ticks_Phase_5,3,9999,9999,9999,3122941012
72,9,23,Ticks_Phase_5,4,9999,9999,9999,3123440700
72,9,23,Ticks_Phase_5,5,9999,9999,9999,3123940460
72,9,23,Ticks_Phase_5,6,9999,9999,9999,3124440148
72,9,23,Ticks_Phase_5,7,9999,9999,9999,3124940884
72,9,23,Ticks_Phase_5,8,9999,9999,9999,3125440572
72,9,23,Ticks_Phase_5,9,9999,9999,9999,3125940332
72,9,23,Ticks_Phase_5,10,9999,9999,9999,3126441068
72,9,23,Ticks_Phase_5,11,9999,9999,9999,3126940756
72,9,23,Ticks_Phase_5,12,9999,9999,9999,3127440444
72,9,23,Ticks_Phase_5,13,9999,9999,9999,3127940204
72,9,23,Ticks_Phase_5,14,9999,9999,9999,3128440944
72,9,23,Ticks_Phase_5,15,9999,9999,9999,3128940628
72,9,23,Ticks_Phase_5,16,9999,9999,9999,3129440320
72,9,23,Ticks_Phase_5,17,9999,9999,9999,3129941096
72,9,23,Ticks_Phase_5,18,9999,9999,9999,3130440792
72,9,23,Ticks_Phase_5,19,9999,9999,9999,3130940476
72,9,23,Ticks_Phase_5,20,9999,9999,9999,3131440236
72,9,23,Ticks_Phase_5,21,9999,9999,9999,3131940972
72,9,23,Ticks_Phase_5,22,9999,9999,9999,3132440664
72,9,23,Ticks_Phase_5,23,9999,9999,9999,3132940356
72,9,23,Ticks_Phase_5,24,9999,9999,9999,3133440112
72,9,23,Ticks_Phase_5,25,9999,9999,9999,3133940844
72,9,23,Ticks_Phase_5,26,9999,9999,9999,3134440540
72,9,23,Ticks_Phase_5,27,9999,9999,9999,3134940220
72,9,23,Ticks_Phase_5,28,9999,9999,9999,3135440960
72,9,23,Ticks_Phase_5,29,9999,9999,9999,3135940724
72,9,23,Ticks_Phase_5,30,9999,9999,9999,3136430156
72,9,23,Ticks_Phase_5,31,9999,9999,9999,3136930892
72,9,23,Ticks_Phase_5,32,9999,9999,9999,3137430656
72,9,23,Ticks_Phase_5,33,9999,9999,9999,3137930340
72,9,23,Ticks_Phase_5,34,9999,9999,9999,3138431076
72,9,23,Ticks_Phase_5,35,9999,9999,9999,3138930764
72,9,23,Ticks_Phase_5,36,9999,9999,9999,3139430528
72,9,23,Ticks_Phase_5,37,9999,9999,9999,3139930188
72,9,23,Ticks_Phase_5,38,9999,9999,9999,3140430916
72,9,23,Ticks_Phase_5,39,9999,9999,9999,3140930612
72,9,23,Ticks_Phase_5,40,9999,9999,9999,3141430376
72,9,23,Ticks_Phase_5,41,9999,9999,9999,3141931112
72,9,23,Ticks_Phase_5,42,9999,9999,9999,3142441052
72,9,23,Ticks_Phase_5,43,9999,9999,9999,3142940748
72,9,23,Ticks_Phase_5,44,9999,9999,9999,3143440508
72,9,23,Ticks_Phase_5,45,9999,9999,9999,3143940200
72,9,23,Ticks_Phase_5,46,9999,9999,9999,3144440932
72,9,23,Ticks_Phase_5,47,9999,9999,9999,3144940620
72,9,23,Ticks_Phase_5,48,9999,9999,9999,3145450560
72,9,23,Ticks_Phase_5,49,9999,9999,9999,3145950332
72,9,23,Ticks_Phase_5,50,9999,9999,9999,3146451068
72,9,23,Ticks_Phase_5,51,9999,9999,9999,3146950748
72,9,23,Ticks_Phase_5,52,9999,9999,9999,3147450444
72,9,23,Ticks_Phase_5,53,9999,9999,9999,3147950204
72,9,23,Ticks_Phase_5,54,9999,9999,9999,3148450932
72,9,23,Ticks_Phase_5,55,9999,9999,9999,3148950628
72,9,23,Ticks_Phase_5,56,9999,9999,9999,3149450312
72,9,23,Ticks_Phase_5,57,9999,9999,9999,3149951044
72,9,23,Ticks_Phase_5,58,9999,9999,9999,3150450816
72,9,23,Ticks_Phase_5,59,9999,9999,9999,3150950504
72,9,23,Ticks_Phase_5,60,9999,9999,9999,3151450168
72,9,23,Ticks_Phase_5,61,9999,9999,9999,3151950968
72,9,23,Ticks_Phase_5,62,9999,9999,9999,3152450664
72,9,23,Ticks_Phase_5,63,9999,9999,9999,3152950352
72,9,23,Ticks_Phase_5,64,9999,9999,9999,3153470552
72,9,23,Ticks_Phase_5,65,9999,9999,9999,3153970248
72,9,23,Ticks_Phase_5,66,9999,9999,9999,3154470984
72,9,23,Ticks_Phase_5,67,9999,9999,9999,3154970748
72,9,23,Ticks_Phase_5,68,9999,9999,9999,3155470432
72,9,23,Ticks_Phase_5,69,9999,9999,9999,3155970124
72,9,23,Ticks_Phase_5,70,9999,9999,9999,3156470856
72,9,23,Ticks_Phase_5,71,9999,9999,9999,3156970612
72,9,23,Ticks_Phase_5,72,9999,9999,9999,3157470300
72,9,23,Ticks_Phase_5,73,9999,9999,9999,3157971040
72,9,23,Ticks_Phase_5,74,9999,9999,9999,3158470724
72,9,23,Ticks_Phase_5,75,9999,9999,9999,3158970488
72,9,23,Ticks_Phase_5,76,9999,9999,9999,3159470184
72,9,23,Ticks_Phase_5,77,9999,9999,9999,3159970920
72,9,23,Ticks_Phase_5,78,9999,9999,9999,3160470600
72,9,23,Ticks_Phase_5,79,9999,9999,9999,3160970328
72,9,23,Ticks_Phase_5,80,9999,9999,9999,3161471032
72,9,23,Ticks_Phase_5,81,9999,9999,9999,3161950276
72,9,23,Ticks_Phase_5,82,9999,9999,9999,3162451060
72,9,23,Ticks_Phase_5,83,9999,9999,9999,3162950748
72,9,23,Ticks_Phase_5,84,9999,9999,9999,3163450436
72,9,23,Ticks_Phase_5,85,9999,9999,9999,3163950200
72,9,23,Ticks_Phase_5,86,9999,9999,9999,3164450936
72,9,23,Ticks_Phase_5,87,9999,9999,9999,3164950616
72,9,23,Ticks_Phase_5,88,9999,9999,9999,3165450312
72,9,23,Ticks_Phase_5,89,9999,9999,9999,3165951044
72,9,23,Ticks_Phase_5,90,9999,9999,9999,3166450800
72,9,23,Ticks_Phase_5,91,9999,9999,9999,3166950496
72,9,23,Ticks_Phase_5,92,9999,9999,9999,3167450184
72,9,23,Ticks_Phase_5,93,9999,9999,9999,3167950920
72,9,23,Ticks_Phase_5,94,9999,9999,9999,3168450680
72,9,23,Ticks_Phase_5,95,9999,9999,9999,3168950368
72,9,23,Ticks_Phase_5,96,9999,9999,9999,3169451104
72,9,23,Ticks_Phase_5,97,9999,9999,9999,3169910876
72,9,23,Ticks_Phase_5,98,9999,9999,9999,3170410564
72,9,23,Ticks_Phase_5,99,9999,9999,9999,3170910328
72,9,23,Ticks_Phase_5,100,9999,9999,9999,3171411032
72,9,23,Ticks_Phase_5,101,9999,9999,9999,3171910720
72,9,23,Ticks_Phase_5,102,9999,9999,9999,3172410480
72,9,23,Ticks_Phase_5,103,9999,9999,9999,3172910172
72,9,23,Ticks_Phase_5,104,9999,9999,9999,3173410904
72,9,23,Ticks_Phase_5,105,9999,9999,9999,3173910592
72,9,23,Ticks_Phase_5,106,9999,9999,9999,3174410360
72,9,23,Ticks_Phase_5,107,9999,9999,9999,3174911096
72,9,23,Ticks_Phase_5,108,9999,9999,9999,3175410788
72,9,23,Ticks_Phase_5,109,9999,9999,9999,3175910476
72,9,23,Ticks_Phase_5,110,9999,9999,9999,3176410236
72,9,23,Ticks_Phase_5,111,9999,9999,9999,3176910972
72,9,23,Ticks_Phase_5,112,9999,9999,9999,3177410656
72,9,23,Ticks_Phase_5,113,9999,9999,9999,3177910348
72,9,23,Ticks_Phase_5,114,9999,9999,9999,3178460288
72,9,23,Ticks_Phase_5,115,9999,9999,9999,3178960964
72,9,23,Ticks_Phase_5,116,9999,9999,9999,3179460732
72,9,23,Ticks_Phase_5,117,9999,9999,9999,3179960420
72,9,23,Ticks_Phase_5,118,9999,9999,9999,3180460108
72,9,23,Ticks_Phase_5,119,9999,9999,9999,3180960844
72,9,23,Ticks_Phase_5,120,9999,9999,9999,3181460604
72,9,23,Ticks_Phase_5,121,9999,9999,9999,3181960292
72,9,23,Ticks_Phase_5,122,9999,9999,9999,3182461028
72,9,23,Ticks_Phase_5,123,9999,9999,9999,3182960716
72,9,23,Ticks_Phase_5,124,9999,9999,9999,3183460472
72,9,23,Ticks_Phase_5,125,9999,9999,9999,3183960144
72,9,23,Ticks_Phase_5,126,9999,9999,9999,3184460872
72,9,23,Ticks_Phase_5,127,9999,9999,9999,3184960636
72,9,23,Ticks_Phase_5,128,9999,9999,9999,3185460324
72,9,23,Ticks_Phase_5,129,9999,9999,9999,3185961060
72,9,23,Ticks_Phase_5,130,9999,9999,9999,3186460756
72,9,23,Ticks_Phase_5,131,9999,9999,9999,3187060820
72,9,23,Ticks_Phase_5,132,9999,9999,9999,3187560504
72,9,23,Ticks_Phase_5,133,9999,9999,9999,3188060268
72,9,23,Ticks_Phase_5,134,9999,9999,9999,3188561000
72,9,23,Ticks_Phase_5,135,9999,9999,9999,3189060688
72,9,23,Ticks_Phase_5,136,9999,9999,9999,3189560376
72,9,23,Ticks_Phase_5,137,9999,9999,9999,3190060140
72,9,23,Ticks_Phase_5,138,9999,9999,9999,3190560872
72,9,23,Ticks_Phase_5,139,9999,9999,9999,3191060564
72,9,23,Ticks_Phase_5,140,9999,9999,9999,3191560252
72,9,23,Ticks_Phase_5,141,9999,9999,9999,3192060984
72,9,23,Ticks_Phase_5,142,9999,9999,9999,3192560744
72,9,23,Ticks_Phase_5,143,9999,9999,9999,3193060436
72,9,23,Ticks_Phase_5,144,9999,9999,9999,3193560124
72,9,23,Ticks_Phase_5,145,9999,9999,9999,3194060860
72,9,23,Ticks_Phase_5,146,9999,9999,9999,3194560620
72,9,23,Ticks_Phase_5,147,9999,9999,9999,3195060380
72,9,23,Ticks_Phase_5,148,9999,9999,9999,3195561040
72,9,23,Ticks_Phase_5,149,9999,9999,9999,3196060728
72,9,23,Ticks_Phase_5,150,9999,9999,9999,3196460124
72,9,23,Ticks_Phase_5,151,9999,9999,9999,3196960860
72,9,23,Ticks_Phase_5,152,9999,9999,9999,3197460544
72,9,23,Ticks_Phase_5,153,9999,9999,9999,3197960280
72,9,23,Ticks_Phase_5,154,9999,9999,9999,3198461016
72,9,23,Ticks_Phase_5,155,9999,9999,9999,3198960704
72,9,23,Ticks_Phase_5,156,9999,9999,9999,3199460468
72,9,23,Ticks_Phase_5,157,9999,9999,9999,3199960156
72,9,23,Ticks_Phase_5,158,9999,9999,9999,3200460892
72,9,23,Ticks_Phase_5,159,9999,9999,9999,3200960580
72,9,23,Ticks_Phase_5,160,9999,9999,9999,3201460344
72,9,23,Ticks_Phase_5,161,9999,9999,9999,3201961076
72,9,23,Ticks_Phase_5,162,9999,9999,9999,3202460764
72,9,23,Ticks_Phase_5,163,9999,9999,9999,3202960460
72,9,23,Ticks_Phase_5,164,9999,9999,9999,3203460216
72,9,23,Ticks_Phase_5,165,9999,9999,9999,3203960952
72,9,23,Ticks_Phase_5,166,9999,9999,9999,3204460644
72,9,23,Ticks_Phase_5,167,9999,9999,9999,3204960324
72,9,23,Ticks_Phase_5,168,9999,9999,9999,3205461108
72,9,23,Ticks_Phase_5,169,9999,9999,9999,3205960796
72,10,22,Ticks_Phase_8,0,5,42,127,3217156420
72,10,22,Ticks_Phase_8,1,5,42,127,3217957276
72,10,22,Ticks_Phase_8,2,1,48,35,3218468112
72,10,22,Ticks_Phase_8,3,5,42,127,3218757136
72,10,22,Ticks_Phase_8,4,1,48,35,3219418668
72,10,22,Ticks_Phase_8,5,5,42,127,3219556648
72,10,22,Ticks_Phase_8,6,1,48,36,3220257996
72,10,22,Ticks_Phase_8,7,5,42,127,3220356512
72,10,22,Ticks_Phase_8,8,1,48,42,3221116812
72,10,22,Ticks_Phase_8,9,5,42,127,3221157284
72,10,22,Ticks_Phase_8,10,1,48,39,3221940564
72,10,22,Ticks_Phase_8,11,5,42,127,3221956920
72,10,22,Ticks_Phase_8,12,5,42,127,3222756712
72,10,22,Ticks_Phase_8,13,1,48,40,3222762444
72,10,22,Ticks_Phase_8,14,1,48,35,3223532792
72,10,22,Ticks_Phase_8,15,5,42,127,3223556416
72,10,22,Ticks_Phase_8,16,1,48,37,3224298208
72,10,22,Ticks_Phase_8,17,5,42,127,3224357176
72,10,22,Ticks_Phase_8,18,1,48,35,3225105188
72,10,22,Ticks_Phase_8,19,5,42,127,3225157112
72,10,22,Ticks_Phase_8,20,1,48,38,3225924748
72,10,22,Ticks_Phase_8,21,5,42,127,3225956696
72,10,22,Ticks_Phase_8,22,5,42,127,3226756416
72,10,22,Ticks_Phase_8,23,1,48,41,3226775484
72,10,22,Ticks_Phase_8,24,1,48,36,3227526132
72,10,22,Ticks_Phase_8,25,5,42,127,3227557168
72,10,22,Ticks_Phase_8,26,5,42,127,3228357108
72,10,22,Ticks_Phase_8,27,1,48,31,3228359480
72,10,22,Ticks_Phase_8,28,5,42,127,3229156672
72,10,22,Ticks_Phase_8,29,1,48,35,3229163300
72,10,22,Ticks_Phase_8,30,1,48,34,3229889468
72,10,22,Ticks_Phase_8,31,5,42,127,3229956452
72,10,22,Ticks_Phase_8,32,1,48,35,3230624100
72,10,22,Ticks_Phase_8,33,5,42,127,3230757196
72,10,22,Ticks_Phase_8,34,1,48,30,3231439020
72,10,22,Ticks_Phase_8,35,5,42,127,3231557056
72,10,22,Ticks_Phase_8,36,1,48,31,3232224432
72,10,22,Ticks_Phase_8,37,5,42,127,3232356644
72,10,22,Ticks_Phase_8,38,1,48,33,3233076340
72,10,22,Ticks_Phase_8,39,5,42,127,3233156368
72,10,22,Ticks_Phase_8,40,1,48,37,3233903396
72,10,22,Ticks_Phase_8,41,5,42,127,3233957276
72,10,22,Ticks_Phase_8,42,1,48,40,3234717948
72,10,22,Ticks_Phase_8,43,5,42,127,3234757136
72,10,22,Ticks_Phase_8,44,1,48,38,3235556780
72,10,22,Ticks_Phase_8,45,5,42,127,3235558044
72,10,22,Ticks_Phase_8,46,1,48,43,3236310252
72,10,22,Ticks_Phase_8,47,5,42,127,3236356560
72,10,22,Ticks_Phase_8,48,1,48,41,3237116776
72,10,22,Ticks_Phase_8,49,5,42,127,3237157096
72,10,22,Ticks_Phase_8,50,1,48,36,3237954840
72,10,22,Ticks_Phase_8,51,5,42,127,3237957032
72,10,22,Ticks_Phase_8,52,1,48,38,3238729376
72,10,22,Ticks_Phase_8,53,5,42,127,3238756840
72,10,22,Ticks_Phase_8,54,5,42,127,3239556412
72,10,22,Ticks_Phase_8,55,1,48,39,3239557676
72,10,22,Ticks_Phase_8,56,5,42,127,3240357244
72,10,22,Ticks_Phase_8,57,1,48,37,3240391660
72,10,22,Ticks_Phase_8,58,5,42,127,3241136512
72,10,22,Ticks_Phase_8,59,1,48,36,3241195200
72,10,22,Ticks_Phase_8,60,5,42,127,3241937196
72,10,22,Ticks_Phase_8,61,1,48,38,3242001648
72,10,22,Ticks_Phase_8,62,5,42,127,3242737056
72,10,22,Ticks_Phase_8,63,1,48,39,3242774020
72,10,22,Ticks_Phase_8,64,1,48,38,3243521156
72,10,22,Ticks_Phase_8,65,5,42,127,3243537060
72,10,22,Ticks_Phase_8,66,1,48,41,3244266200
72,10,22,Ticks_Phase_8,67,5,42,127,3244336776
72,10,22,Ticks_Phase_8,68,1,48,41,3245099460
72,10,22,Ticks_Phase_8,69,5,42,127,3245137236
72,10,22,Ticks_Phase_8,70,1,48,41,3245857316
72,10,22,Ticks_Phase_8,71,5,42,127,3245936896
72,10,22,Ticks_Phase_8,72,1,48,42,3246660844
72,10,22,Ticks_Phase_8,73,5,42,127,3246736836
72,10,22,Ticks_Phase_8,74,1,48,37,3247477884
72,10,22,Ticks_Phase_8,75,5,42,127,3247536920
72,10,22,Ticks_Phase_8,76,1,48,36,3248275124
72,10,22,Ticks_Phase_8,77,5,42,127,3248337308
72,10,22,Ticks_Phase_8,78,1,48,35,3249078356
72,10,22,Ticks_Phase_8,79,5,42,127,3249137016
72,10,22,Ticks_Phase_8,80,1,48,40,3249880904
72,10,22,Ticks_Phase_8,81,5,42,127,3249936804
72,10,22,Ticks_Phase_8,82,1,48,38,3250667744
72,10,22,Ticks_Phase_8,83,5,42,127,3250736664
72,10,22,Ticks_Phase_8,84,1,48,40,3251489844
72,10,22,Ticks_Phase_8,85,5,42,127,3251537200
72,10,22,Ticks_Phase_8,86,1,48,40,3252265964
72,10,22,Ticks_Phase_8,87,5,42,127,3252337012
72,10,22,Ticks_Phase_8,88,1,48,38,3253128828
72,10,22,Ticks_Phase_8,89,5,42,127,3253136724
72,10,22,Ticks_Phase_8,90,1,48,39,3253904192
72,10,22,Ticks_Phase_8,91,5,42,127,3253936436
72,10,22,Ticks_Phase_8,92,1,48,43,3254695232
72,10,22,Ticks_Phase_8,93,5,42,127,3254737192
72,10,22,Ticks_Phase_8,94,1,48,40,3255450304
72,10,22,Ticks_Phase_8,95,5,42,127,3255556736
72,10,22,Ticks_Phase_8,96,1,48,35,3256285816
72,10,22,Ticks_Phase_8,97,5,42,127,3256357212
72,10,22,Ticks_Phase_8,98,1,48,34,3257102144
72,10,22,Ticks_Phase_8,99,5,42,127,3257156848
72,10,22,Ticks_Phase_8,100,1,48,40,3257915944
72,10,22,Ticks_Phase_8,101,5,42,127,3257956664
72,10,22,Ticks_Phase_8,102,1,48,36,3258740684
72,10,22,Ticks_Phase_8,103,5,42,127,3258756596
72,10,22,Ticks_Phase_8,104,1,48,29,3259510220
72,10,22,Ticks_Phase_8,105,5,42,127,3259557356
72,10,22,Ticks_Phase_8,106,1,48,29,3260259232
72,10,22,Ticks_Phase_8,107,5,42,127,3260357072
72,10,22,Ticks_Phase_8,108,1,48,29,3261111816
72,10,22,Ticks_Phase_8,109,5,42,127,3261156632
72,10,22,Ticks_Phase_8,110,1,48,36,3261946504
72,10,22,Ticks_Phase_8,111,5,42,127,3261956644
72,10,22,Ticks_Phase_8,112,1,48,32,3262677096
72,10,22,Ticks_Phase_8,113,5,42,127,3262757176
72,10,22,Ticks_Phase_8,114,1,48,28,3263439584
72,10,22,Ticks_Phase_8,115,5,42,127,3263556948
72,10,22,Ticks_Phase_8,116,1,48,36,3264282276
72,10,22,Ticks_Phase_8,117,5,42,127,3264356700
72,10,22,Ticks_Phase_8,118,1,48,42,3265091496
72,10,22,Ticks_Phase_8,119,5,42,127,3265156560
72,10,22,Ticks_Phase_8,120,1,48,36,3265901948
72,10,22,Ticks_Phase_8,121,5,42,127,3265957544
72,10,22,Ticks_Phase_8,122,1,48,40,3266754996
72,10,22,Ticks_Phase_8,123,5,42,127,3266756884
72,10,22,Ticks_Phase_8,124,5,42,127,3267556680
72,10,22,Ticks_Phase_8,125,1,48,43,3267596572
72,10,22,Ticks_Phase_8,126,5,42,127,3268397652
72,10,22,Ticks_Phase_8,127,1,48,43,3268408788
72,10,22,Ticks_Phase_8,128,5,42,127,3269207648
72,10,22,Ticks_Phase_8,129,1,48,45,3269210764
72,10,22,Ticks_Phase_8,130,5,42,127,3270007060
72,10,22,Ticks_Phase_8,131,1,48,45,3270022904
72,10,22,Ticks_Phase_8,132,1,48,38,3270763512
72,10,22,Ticks_Phase_8,133,5,42,127,3270806768
72,10,22,Ticks_Phase_8,134,1,48,40,3271551028
72,10,22,Ticks_Phase_8,135,5,42,127,3271606628
72,10,22,Ticks_Phase_8,136,1,48,42,3272345876
72,10,22,Ticks_Phase_8,137,5,42,127,3272407608
72,10,22,Ticks_Phase_8,138,1,48,43,3273126412
72,10,22,Ticks_Phase_8,139,5,42,127,3273207096
72,10,22,Ticks_Phase_8,140,1,48,41,3273962664
72,10,22,Ticks_Phase_8,141,5,42,127,3274006956
72,10,22,Ticks_Phase_8,142,1,48,38,3274796456
72,10,22,Ticks_Phase_8,143,5,42,127,3274806668
72,10,22,Ticks_Phase_8,144,1,48,38,3275583424
72,10,22,Ticks_Phase_8,145,5,42,127,3275607600
72,10,22,Ticks_Phase_8,146,1,48,38,3276370560
72,10,22,Ticks_Phase_8,147,5,42,127,3276407088
72,10,22,Ticks_Phase_8,148,1,48,37,3277125416
72,10,22,Ticks_Phase_8,149,5,42,127,3277206872
72,10,22,Ticks_Phase_8,150,1,48,39,3277938784
72,10,22,Ticks_Phase_8,151,5,42,127,3278006512
72,10,22,Ticks_Phase_8,152,1,48,37,3278714984
72,10,22,Ticks_Phase_8,153,5,42,127,3278807492
72,10,22,Ticks_Phase_8,154,1,48,31,3279565244
72,10,22,Ticks_Phase_8,155,5,42,127,3279607428
72,10,22,Ticks_Phase_8,156,5,42,127,3280406852
72,10,22,Ticks_Phase_8,157,1,48,39,3280426300
72,10,22,Ticks_Phase_8,158,5,42,127,3281206636
72,10,22,Ticks_Phase_8,159,1,48,37,3281245128
72,10,22,Ticks_Phase_8,160,5,42,127,3281966512
72,10,22,Ticks_Phase_8,161,1,48,40,3282009348
72,10,22,Ticks_Phase_8,162,1,48,36,3282763408
72,10,22,Ticks_Phase_8,163,5,42,127,3282767188
72,10,22,Ticks_Phase_8,164,1,48,40,3283492800
72,10,22,Ticks_Phase_8,165,5,42,127,3283567076
72,10,22,Ticks_Phase_8,166,1,48,34,3284321676
72,10,22,Ticks_Phase_8,167,5,42,127,3284366568
72,10,22,Ticks_Phase_8,168,1,48,32,3285075612
72,10,22,Ticks_Phase_8,169,5,42,127,3285166500
72,10,22,Ticks_Phase_8,170,1,48,30,3285961312
72,10,22,Ticks_Phase_8,171,5,42,127,3285967184
72,10,22,Ticks_Phase_8,172,1,48,35,3286730616
72,10,22,Ticks_Phase_8,173,5,42,127,3286767044
72,10,22,Ticks_Phase_8,174,1,48,31,3287483452
72,10,22,Ticks_Phase_8,175,5,42,127,3287566684
72,10,22,Ticks_Phase_8,176,1,48,34,3288288932
72,10,22,Ticks_Phase_8,177,5,42,127,3288366396
72,10,22,Ticks_Phase_8,178,1,48,37,3289107968
72,10,22,Ticks_Phase_8,179,5,42,127,3289167232
72,10,22,Ticks_Phase_8,180,1,48,43,3289935092
72,10,22,Ticks_Phase_8,181,5,42,127,3289966968
72,10,22,Ticks_Phase_8,182,1,48,39,3290740216
72,10,22,Ticks_Phase_8,183,5,42,127,3290766608
72,10,22,Ticks_Phase_8,184,1,48,40,3291512892
72,10,22,Ticks_Phase_8,185,5,42,127,3291566320
72,10,22,Ticks_Phase_8,186,1,48,39,3292325120
72,10,22,Ticks_Phase_8,187,5,42,127,3292367304
72,10,22,Ticks_Phase_8,188,1,48,32,3293146620
72,10,22,Ticks_Phase_8,189,5,42,127,3293167164
72,10,22,Ticks_Phase_8,190,1,48,41,3293920564
72,10,22,Ticks_Phase_8,191,5,42,127,3293966652
72,10,22,Ticks_Phase_8,192,5,42,127,3294686540
72,10,22,Ticks_Phase_8,193,1,48,37,3294773972
72,10,22,Ticks_Phase_8,194,5,42,127,3295487372
72,10,22,Ticks_Phase_8,195,1,48,34,3295595364
72,10,22,Ticks_Phase_8,196,5,42,127,3296287084
72,10,22,Ticks_Phase_8,197,1,48,36,3296377404
72,10,22,Ticks_Phase_8,198,5,42,127,3297086948
72,10,22,Ticks_Phase_8,199,1,48,34,3297121916
72,10,22,Ticks_Phase_8,200,1,48,28,3297794132
72,10,22,Ticks_Phase_8,201,5,42,127,3297886604
72,10,22,Ticks_Phase_8,202,1,48,37,3298657680
72,10,22,Ticks_Phase_8,203,5,42,127,3298687288
72,10,22,Ticks_Phase_8,204,1,48,44,3299481652
72,10,22,Ticks_Phase_8,205,5,42,127,3299487000
72,10,22,Ticks_Phase_8,206,5,42,127,3300286940
72,10,22,Ticks_Phase_8,207,1,48,39,3300306016
72,10,22,Ticks_Phase_8,208,1,48,35,3301069020
72,10,22,Ticks_Phase_8,209,5,42,127,3301086720
72,10,22,Ticks_Phase_8,210,1,48,41,3301832404
72,10,22,Ticks_Phase_8,211,5,42,127,3301887332
72,10,22,Ticks_Phase_8,212,1,48,31,3302631068
72,10,22,Ticks_Phase_8,213,5,42,127,3302687192
72,10,22,Ticks_Phase_8,214,1,48,34,3303389148
72,10,22,Ticks_Phase_8,215,5,42,127,3303486892
72,10,22,Ticks_Phase_8,216,1,48,35,3304220160
72,10,22,Ticks_Phase_8,217,5,42,127,3304286568
72,10,22,Ticks_Phase_8,218,1,48,37,3305064524
72,10,22,Ticks_Phase_8,219,5,42,127,3305087252
72,10,22,Ticks_Phase_8,220,1,48,38,3305879220
72,10,22,Ticks_Phase_8,221,5,42,127,3305887040
72,10,22,Ticks_Phase_8,222,1,48,34,3306649200
72,10,22,Ticks_Phase_8,223,5,42,127,3306687048
72,10,22,Ticks_Phase_8,224,1,48,36,3307326976
72,10,22,Ticks_Phase_8,225,5,42,127,3307486748
72,10,22,Ticks_Phase_8,226,1,48,30,3308278432
72,10,22,Ticks_Phase_8,227,5,42,127,3308367132
72,10,22,Ticks_Phase_8,228,1,48,31,3309084052
72,10,22,Ticks_Phase_8,229,5,42,127,3309166864
72,10,22,Ticks_Phase_8,230,1,48,30,3309955764
72,10,22,Ticks_Phase_8,231,5,42,127,3309966948
72,10,22,Ticks_Phase_8,232,1,48,34,3310743860
72,10,22,Ticks_Phase_8,233,5,42,127,3310766436
72,10,22,Ticks_Phase_8,234,1,48,32,3311552036
72,10,22,Ticks_Phase_8,235,5,42,127,3311567124
72,10,22,Ticks_Phase_8,236,1,48,32,3312318504
72,10,22,Ticks_Phase_8,237,5,42,127,3312366984
72,10,22,Ticks_Phase_8,238,1,48,33,3313142844
72,10,22,Ticks_Phase_8,239,5,42,127,3313166916
72,10,22,Ticks_Phase_8,240,5,42,127,3313966560
72,10,22,Ticks_Phase_8,241,1,48,34,3313972968
72,10,22,Ticks_Phase_8,242,5,42,127,3314767168
72,10,22,Ticks_Phase_8,243,1,48,42,3314768432
72,10,22,Ticks_Phase_8,244,5,42,127,3315566980
72,10,22,Ticks_Phase_8,245,1,48,38,3315603644
72,10,22,Ticks_Phase_8,246,5,42,127,3316366692
72,10,22,Ticks_Phase_8,247,1,48,42,3316414824
72,10,22,Ticks_Phase_8,248,5,42,127,3317166404
72,10,22,Ticks_Phase_8,249,1,48,38,3317185176
72,10,22,Ticks_Phase_8,250,5,42,127,3317967160
72,10,22,Ticks_Phase_8,251,1,48,37,3317988852
72,10,22,Ticks_Phase_8,252,1,48,36,3318764584
72,10,22,Ticks_Phase_8,253,5,42,127,3318766940
72,10,22,Ticks_Phase_8,254,5,42,127,3319566736
72,10,22,Ticks_Phase_8,255,1,48,35,3319589100
72,10,22,Ticks_Phase_8,256,1,48,35,3320337056
72,10,22,Ticks_Phase_8,257,5,42,127,3320366664
72,10,22,Ticks_Phase_8,258,5,42,127,3321167204
72,10,22,Ticks_Phase_8,259,1,48,33,3321195436
72,10,22,Ticks_Phase_8,260,1,48,35,3321973868
72,10,22,Ticks_Phase_8,261,5,42,127,3322126584
72,10,22,Ticks_Phase_8,262,5,42,127,3322926764
72,10,22,Ticks_Phase_8,263,1,48,35,3322928028
72,10,22,Ticks_Phase_8,264,5,42,127,3323727076
72,10,22,Ticks_Phase_8,265,1,48,32,3323767820
72,10,22,Ticks_Phase_8,266,5,42,127,3324526892
72,10,22,Ticks_Phase_8,267,1,48,33,3324540788
72,10,22,Ticks_Phase_8,268,1,48,33,3325246332
72,10,22,Ticks_Phase_8,269,5,42,127,3325326596
72,10,22,Ticks_Phase_8,270,1,48,31,3326042544
72,10,22,Ticks_Phase_8,271,5,42,127,3326126604
72,10,22,Ticks_Phase_8,272,1,48,37,3326767872
72,10,22,Ticks_Phase_8,273,5,42,127,3326927196
72,10,22,Ticks_Phase_8,274,1,48,35,3327673420
72,10,22,Ticks_Phase_8,275,5,42,127,3327727072
72,10,22,Ticks_Phase_8,276,1,48,33,3328455092
72,10,22,Ticks_Phase_8,277,5,42,127,3328526564
72,10,22,Ticks_Phase_8,278,1,48,38,3329245592
72,10,22,Ticks_Phase_8,279,5,42,127,3329326572
72,10,22,Ticks_Phase_8,280,1,48,31,3330016844
72,10,22,Ticks_Phase_8,281,5,42,127,3330127168
72,10,22,Ticks_Phase_8,282,1,48,33,3330849724
72,10,22,Ticks_Phase_8,283,5,42,127,3330926920
72,10,22,Ticks_Phase_8,284,1,48,33,3331656860
72,10,22,Ticks_Phase_8,285,5,42,127,3331726704
72,10,22,Ticks_Phase_8,286,1,48,31,3332494788
72,10,22,Ticks_Phase_8,287,5,42,127,3332526568
72,10,22,Ticks_Phase_8,288,1,48,37,3333249488
72,10,22,Ticks_Phase_8,289,5,42,127,3333327252
72,10,22,Ticks_Phase_8,290,1,48,34,3334044548
72,10,22,Ticks_Phase_8,291,5,42,127,3334126816
72,10,22,Ticks_Phase_8,292,1,48,32,3334899088
72,10,22,Ticks_Phase_8,293,5,42,127,3334926676
72,10,22,Ticks_Phase_8,294,1,48,29,3335719168
72,10,22,Ticks_Phase_8,295,5,42,127,3335726460
72,10,22,Ticks_Phase_8,296,1,48,35,3336448336
72,10,22,Ticks_Phase_8,297,5,42,127,3336527148
72,10,22,Ticks_Phase_8,298,5,42,127,3337167500
72,10,22,Ticks_Phase_8,299,1,48,30,3337201024
72,10,22,Ticks_Phase_8,300,1,48,29,3337883644
72,10,22,Ticks_Phase_8,301,5,42,127,3337966884
72,10,22,Ticks_Phase_8,302,1,48,26,3338546972
72,10,22,Ticks_Phase_8,303,5,42,127,3338766656
72,10,22,Ticks_Phase_8,304,1,48,26,3339289620
72,10,22,Ticks_Phase_8,305,5,42,127,3339566516
72,10,22,Ticks_Phase_8,306,1,48,25,3340353472
72,10,22,Ticks_Phase_8,307,5,42,127,3340367440
72,10,22,Ticks_Phase_8,308,5,42,127,3341166936
72,10,22,Ticks_Phase_8,309,1,48,20,3341227940
72,10,22,Ticks_Phase_8,310,5,42,127,3341966720
72,10,22,Ticks_Phase_8,311,1,48,25,3341989608
72,10,22,Ticks_Phase_8,312,5,42,127,3342766580
72,10,22,Ticks_Phase_8,313,1,48,26,3342780932
72,10,22,Ticks_Phase_8,314,5,42,127,3343567340
72,10,22,Ticks_Phase_8,315,1,48,29,3343599216
72,10,22,Ticks_Phase_8,316,5,42,127,3344367052
72,10,22,Ticks_Phase_8,317,1,48,27,3344411356
72,10,22,Ticks_Phase_8,318,5,42,127,3345166688
72,10,22,Ticks_Phase_8,319,1,48,25,3345209720
72,10,22,Ticks_Phase_8,320,1,48,26,3345963212
72,10,22,Ticks_Phase_8,321,5,42,127,3345966544
72,10,22,Ticks_Phase_8,322,1,48,28,3346670816
72,10,22,Ticks_Phase_8,323,5,42,127,3346767300
72,10,22,Ticks_Phase_8,324,1,48,23,3347445292
72,10,22,Ticks_Phase_8,325,5,42,127,3347567096
72,10,22,Ticks_Phase_8,326,1,48,25,3348311672
72,10,22,Ticks_Phase_8,327,5,42,127,3348366600
72,10,22,Ticks_Phase_8,328,1,48,24,3349141336
72,10,22,Ticks_Phase_8,329,5,42,127,3349166384
72,10,22,Ticks_Phase_8,330,1,48,28,3349940380
72,10,22,Ticks_Phase_8,331,5,42,127,3349967292
72,10,22,Ticks_Phase_8,332,1,48,33,3350748328
72,10,22,Ticks_Phase_8,333,5,42,127,3350766928
72,10,22,Ticks_Phase_8,334,5,42,127,3351566572
72,10,22,Ticks_Phase_8,335,1,48,29,3351594544
72,10,22,Ticks_Phase_8,336,5,42,127,3352366432
72,10,22,Ticks_Phase_8,0,9999,9999,9999,3217154132
72,10,22,Ticks_Phase_8,1,9999,9999,9999,3217954912
72,10,22,Ticks_Phase_8,2,9999,9999,9999,3218754624
72,10,22,Ticks_Phase_8,3,9999,9999,9999,3219554360
72,10,22,Ticks_Phase_8,4,9999,9999,9999,3220354148
72,10,22,Ticks_Phase_8,5,9999,9999,9999,3221154920
72,10,22,Ticks_Phase_8,6,9999,9999,9999,3221954632
72,10,22,Ticks_Phase_8,7,9999,9999,9999,3222754424
72,10,22,Ticks_Phase_8,8,9999,9999,9999,3223554128
72,10,22,Ticks_Phase_8,9,9999,9999,9999,3224354888
72,10,22,Ticks_Phase_8,10,9999,9999,9999,3225154672
72,10,22,Ticks_Phase_8,11,9999,9999,9999,3225954408
72,10,22,Ticks_Phase_8,12,9999,9999,9999,3226754128
72,10,22,Ticks_Phase_8,13,9999,9999,9999,3227554880
72,10,22,Ticks_Phase_8,14,9999,9999,9999,3228354672
72,10,22,Ticks_Phase_8,15,9999,9999,9999,3229154384
72,10,22,Ticks_Phase_8,16,9999,9999,9999,3229954164
72,10,22,Ticks_Phase_8,17,9999,9999,9999,3230754904
72,10,22,Ticks_Phase_8,18,9999,9999,9999,3231554616
72,10,22,Ticks_Phase_8,19,9999,9999,9999,3232354428
72,10,22,Ticks_Phase_8,20,9999,9999,9999,3233154156
72,10,22,Ticks_Phase_8,21,9999,9999,9999,3233954912
72,10,22,Ticks_Phase_8,22,9999,9999,9999,3234754624
72,10,22,Ticks_Phase_8,23,9999,9999,9999,3235554420
72,10,22,Ticks_Phase_8,24,9999,9999,9999,3236354124
72,10,22,Ticks_Phase_8,25,9999,9999,9999,3237154880
72,10,22,Ticks_Phase_8,26,9999,9999,9999,3237954632
72,10,22,Ticks_Phase_8,27,9999,9999,9999,3238754404
72,10,22,Ticks_Phase_8,28,9999,9999,9999,3239554120
72,10,22,Ticks_Phase_8,29,9999,9999,9999,3240354880
72,10,22,Ticks_Phase_8,30,9999,9999,9999,3241134148
72,10,22,Ticks_Phase_8,31,9999,9999,9999,3241934908
72,10,22,Ticks_Phase_8,32,9999,9999,9999,3242734696
72,10,22,Ticks_Phase_8,33,9999,9999,9999,3243534400
72,10,22,Ticks_Phase_8,34,9999,9999,9999,3244334188
72,10,22,Ticks_Phase_8,35,9999,9999,9999,3245134944
72,10,22,Ticks_Phase_8,36,9999,9999,9999,3245934684
72,10,22,Ticks_Phase_8,37,9999,9999,9999,3246734396
72,10,22,Ticks_Phase_8,38,9999,9999,9999,3247534184
72,10,22,Ticks_Phase_8,39,9999,9999,9999,3248334944
72,10,22,Ticks_Phase_8,40,9999,9999,9999,3249134656
72,10,22,Ticks_Phase_8,41,9999,9999,9999,3249934440
72,10,22,Ticks_Phase_8,42,9999,9999,9999,3250734152
72,10,22,Ticks_Phase_8,43,9999,9999,9999,3251534912
72,10,22,Ticks_Phase_8,44,9999,9999,9999,3252334648
72,10,22,Ticks_Phase_8,45,9999,9999,9999,3253134432
72,10,22,Ticks_Phase_8,46,9999,9999,9999,3253934148
72,10,22,Ticks_Phase_8,47,9999,9999,9999,3254734904
72,10,22,Ticks_Phase_8,48,9999,9999,9999,3255554148
72,10,22,Ticks_Phase_8,49,9999,9999,9999,3256354924
72,10,22,Ticks_Phase_8,50,9999,9999,9999,3257154636
72,10,22,Ticks_Phase_8,51,9999,9999,9999,3257954372
72,10,22,Ticks_Phase_8,52,9999,9999,9999,3258754160
72,10,22,Ticks_Phase_8,53,9999,9999,9999,3259554916
72,10,22,Ticks_Phase_8,54,9999,9999,9999,3260354632
72,10,22,Ticks_Phase_8,55,9999,9999,9999,3261154416
72,10,22,Ticks_Phase_8,56,9999,9999,9999,3261954128
72,10,22,Ticks_Phase_8,57,9999,9999,9999,3262754888
72,10,22,Ticks_Phase_8,58,9999,9999,9999,3263554660
72,10,22,Ticks_Phase_8,59,9999,9999,9999,3264354412
72,10,22,Ticks_Phase_8,60,9999,9999,9999,3265154124
72,10,22,Ticks_Phase_8,61,9999,9999,9999,3265954884
72,10,22,Ticks_Phase_8,62,9999,9999,9999,3266754624
72,10,22,Ticks_Phase_8,63,9999,9999,9999,3267554388
72,10,22,Ticks_Phase_8,64,9999,9999,9999,3268395064
72,10,22,Ticks_Phase_8,65,9999,9999,9999,3269205060
72,10,22,Ticks_Phase_8,66,9999,9999,9999,3270004844
72,10,22,Ticks_Phase_8,67,9999,9999,9999,3270804548
72,10,22,Ticks_Phase_8,68,9999,9999,9999,3271604336
72,10,22,Ticks_Phase_8,69,9999,9999,9999,3272405096
72,10,22,Ticks_Phase_8,70,9999,9999,9999,3273204808
72,10,22,Ticks_Phase_8,71,9999,9999,9999,3274004596
72,10,22,Ticks_Phase_8,72,9999,9999,9999,3274804304
72,10,22,Ticks_Phase_8,73,9999,9999,9999,3275605088
72,10,22,Ticks_Phase_8,74,9999,9999,9999,3276404800
72,10,22,Ticks_Phase_8,75,9999,9999,9999,3277204584
72,10,22,Ticks_Phase_8,76,9999,9999,9999,3278004296
72,10,22,Ticks_Phase_8,77,9999,9999,9999,3278805056
72,10,22,Ticks_Phase_8,78,9999,9999,9999,3279604840
72,10,22,Ticks_Phase_8,79,9999,9999,9999,3280404560
72,10,22,Ticks_Phase_8,80,9999,9999,9999,3281204348
72,10,22,Ticks_Phase_8,81,9999,9999,9999,3281964148
72,10,22,Ticks_Phase_8,82,9999,9999,9999,3282764900
72,10,22,Ticks_Phase_8,83,9999,9999,9999,3283564640
72,10,22,Ticks_Phase_8,84,9999,9999,9999,3284364352
72,10,22,Ticks_Phase_8,85,9999,9999,9999,3285164140
72,10,22,Ticks_Phase_8,86,9999,9999,9999,3285964896
72,10,22,Ticks_Phase_8,87,9999,9999,9999,3286764608
72,10,22,Ticks_Phase_8,88,9999,9999,9999,3287564396
72,10,22,Ticks_Phase_8,89,9999,9999,9999,3288364108
72,10,22,Ticks_Phase_8,90,9999,9999,9999,3289164868
72,10,22,Ticks_Phase_8,91,9999,9999,9999,3289964608
72,10,22,Ticks_Phase_8,92,9999,9999,9999,3290764392
72,10,22,Ticks_Phase_8,93,9999,9999,9999,3291564104
72,10,22,Ticks_Phase_8,94,9999,9999,9999,3292364864
72,10,22,Ticks_Phase_8,95,9999,9999,9999,3293164652
72,10,22,Ticks_Phase_8,96,9999,9999,9999,3293964364
72,10,22,Ticks_Phase_8,97,9999,9999,9999,3294684252
72,10,22,Ticks_Phase_8,98,9999,9999,9999,3295485008
72,10,22,Ticks_Phase_8,99,9999,9999,9999,3296284796
72,10,22,Ticks_Phase_8,100,9999,9999,9999,3297084508
72,10,22,Ticks_Phase_8,101,9999,9999,9999,3297884240
72,10,22,Ticks_Phase_8,102,9999,9999,9999,3298685000
72,10,22,Ticks_Phase_8,103,9999,9999,9999,3299484784
72,10,22,Ticks_Phase_8,104,9999,9999,9999,3300284504
72,10,22,Ticks_Phase_8,105,9999,9999,9999,3301084284
72,10,22,Ticks_Phase_8,106,9999,9999,9999,3301885044
72,10,22,Ticks_Phase_8,107,9999,9999,9999,3302684756
72,10,22,Ticks_Phase_8,108,9999,9999,9999,3303484528
72,10,22,Ticks_Phase_8,109,9999,9999,9999,3304284280
72,10,22,Ticks_Phase_8,110,9999,9999,9999,3305085036
72,10,22,Ticks_Phase_8,111,9999,9999,9999,3305884752
72,10,22,Ticks_Phase_8,112,9999,9999,9999,3306684536
72,10,22,Ticks_Phase_8,113,9999,9999,9999,3307484236
72,10,22,Ticks_Phase_8,114,9999,9999,9999,3308364916
72,10,22,Ticks_Phase_8,115,9999,9999,9999,3309164652
72,10,22,Ticks_Phase_8,116,9999,9999,9999,3309964364
72,10,22,Ticks_Phase_8,117,9999,9999,9999,3310764148
72,10,22,Ticks_Phase_8,118,9999,9999,9999,3311564908
72,10,22,Ticks_Phase_8,119,9999,9999,9999,3312364620
72,10,22,Ticks_Phase_8,120,9999,9999,9999,3313164404
72,10,22,Ticks_Phase_8,121,9999,9999,9999,3313964124
72,10,22,Ticks_Phase_8,122,9999,9999,9999,3314764880
72,10,22,Ticks_Phase_8,123,9999,9999,9999,3315564616
72,10,22,Ticks_Phase_8,124,9999,9999,9999,3316364404
72,10,22,Ticks_Phase_8,125,9999,9999,9999,3317164112
72,10,22,Ticks_Phase_8,126,9999,9999,9999,3317964872
72,10,22,Ticks_Phase_8,127,9999,9999,9999,3318764652
72,10,22,Ticks_Phase_8,128,9999,9999,9999,3319564372
72,10,22,Ticks_Phase_8,129,9999,9999,9999,3320364152
72,10,22,Ticks_Phase_8,130,9999,9999,9999,3321164916
72,10,22,Ticks_Phase_8,131,9999,9999,9999,3322124368
72,10,22,Ticks_Phase_8,132,9999,9999,9999,3322924104
72,10,22,Ticks_Phase_8,133,9999,9999,9999,3323724864
72,10,22,Ticks_Phase_8,134,9999,9999,9999,3324524600
72,10,22,Ticks_Phase_8,135,9999,9999,9999,3325324380
72,10,22,Ticks_Phase_8,136,9999,9999,9999,3326124092
72,10,22,Ticks_Phase_8,137,9999,9999,9999,3326924908
72,10,22,Ticks_Phase_8,138,9999,9999,9999,3327724636
72,10,22,Ticks_Phase_8,139,9999,9999,9999,3328524348
72,10,22,Ticks_Phase_8,140,9999,9999,9999,3329324136
72,10,22,Ticks_Phase_8,141,9999,9999,9999,3330124876
72,10,22,Ticks_Phase_8,142,9999,9999,9999,3330924632
72,10,22,Ticks_Phase_8,143,9999,9999,9999,3331724340
72,10,22,Ticks_Phase_8,144,9999,9999,9999,3332524128
72,10,22,Ticks_Phase_8,145,9999,9999,9999,3333324888
72,10,22,Ticks_Phase_8,146,9999,9999,9999,3334124600
72,10,22,Ticks_Phase_8,147,9999,9999,9999,3334924388
72,10,22,Ticks_Phase_8,148,9999,9999,9999,3335724100
72,10,22,Ticks_Phase_8,149,9999,9999,9999,3336524856
72,10,22,Ticks_Phase_8,150,9999,9999,9999,3337164912
72,10,22,Ticks_Phase_8,151,9999,9999,9999,3337964672
72,10,22,Ticks_Phase_8,152,9999,9999,9999,3338764368
72,10,22,Ticks_Phase_8,153,9999,9999,9999,3339564152
72,10,22,Ticks_Phase_8,154,9999,9999,9999,3340364928
72,10,22,Ticks_Phase_8,155,9999,9999,9999,3341164644
72,10,22,Ticks_Phase_8,156,9999,9999,9999,3341964356
72,10,22,Ticks_Phase_8,157,9999,9999,9999,3342764144
72,10,22,Ticks_Phase_8,158,9999,9999,9999,3343564904
72,10,22,Ticks_Phase_8,159,9999,9999,9999,3344364616
72,10,22,Ticks_Phase_8,160,9999,9999,9999,3345164400
72,10,22,Ticks_Phase_8,161,9999,9999,9999,3345964104
72,10,22,Ticks_Phase_8,162,9999,9999,9999,3346764864
72,10,22,Ticks_Phase_8,163,9999,9999,9999,3347564656
72,10,22,Ticks_Phase_8,164,9999,9999,9999,3348364384
72,10,22,Ticks_Phase_8,165,9999,9999,9999,3349164096
72,10,22,Ticks_Phase_8,166,9999,9999,9999,3349964852
72,10,22,Ticks_Phase_8,167,9999,9999,9999,3350764640
72,10,22,Ticks_Phase_8,168,9999,9999,9999,3351564356
72,10,22,Ticks_Phase_8,169,9999,9999,9999,3352364144
72,11,25,Jits_Pract_5,0,5,56,103,3398148424
72,11,25,Jits_Pract_5,1,5,63,98,3398151520
72,11,25,Jits_Pract_5,2,5,80,127,3398154568
72,11,25,Jits_Pract_5,0,5,56,103,3398649416
72,11,25,Jits_Pract_5,1,5,63,98,3398652516
72,11,25,Jits_Pract_5,2,5,80,127,3398655564
72,11,25,Jits_Pract_5,0,5,56,103,3399148788
72,11,25,Jits_Pract_5,1,5,80,127,3399159356
72,11,25,Jits_Pract_5,2,5,63,98,3399178544
72,11,25,Jits_Pract_5,0,5,63,98,3399598412
72,11,25,Jits_Pract_5,1,5,80,127,3399629284
72,11,25,Jits_Pract_5,2,5,56,103,3399639632
72,11,25,Jits_Pract_5,0,5,80,127,3400158456
72,11,25,Jits_Pract_5,1,5,56,103,3400168800
72,11,25,Jits_Pract_5,2,5,63,98,3400198472
72,11,25,Jits_Pract_5,0,5,63,98,3400649284
72,11,25,Jits_Pract_5,1,5,56,103,3400678736
72,11,25,Jits_Pract_5,2,5,80,127,3400689004
72,11,25,Jits_Pract_5,0,5,56,103,3401098592
72,11,25,Jits_Pract_5,1,5,63,98,3401148720
72,11,25,Jits_Pract_5,2,5,80,127,3401169476
72,11,25,Jits_Pract_5,0,5,80,127,3401599308
72,11,25,Jits_Pract_5,1,5,63,98,3401648464
72,11,25,Jits_Pract_5,2,5,56,103,3401688548
72,11,25,Jits_Pract_5,0,5,56,103,3402099200
72,11,25,Jits_Pract_5,1,5,63,98,3402128876
72,11,25,Jits_Pract_5,2,5,80,127,3402199452
72,11,25,Jits_Pract_5,0,5,56,103,3402598792
72,11,25,Jits_Pract_5,1,5,80,127,3402659332
72,11,25,Jits_Pract_5,2,5,63,98,3402688860
72,11,25,Jits_Pract_5,0,5,56,103,3403108652
72,11,25,Jits_Pract_5,1,5,63,98,3403118996
72,11,25,Jits_Pract_5,2,5,80,127,3403159008
72,11,25,Jits_Pract_5,0,5,63,98,3403599324
72,11,25,Jits_Pract_5,1,5,80,127,3403679120
72,11,25,Jits_Pract_5,2,5,56,103,3403689464
72,11,25,Jits_Pract_5,0,5,63,98,3404149256
72,11,25,Jits_Pract_5,1,5,56,103,3404189192
72,11,25,Jits_Pract_5,2,5,80,127,3404192108
72,11,25,Jits_Pract_5,0,5,56,103,3404609096
72,11,25,Jits_Pract_5,1,5,63,98,3404619216
72,11,25,Jits_Pract_5,2,5,80,127,3404659032
72,11,25,Jits_Pract_5,0,5,56,103,3405099392
72,11,25,Jits_Pract_5,1,5,63,98,3405102384
72,11,25,Jits_Pract_5,2,5,80,127,3405118732
72,11,25,Jits_Pract_5,0,9999,9999,9999,3398396984
72,11,25,Jits_Pract_5,1,9999,9999,9999,3398896708
72,11,25,Jits_Pract_5,2,9999,9999,9999,3399396452
72,11,25,Jits_Pract_5,3,9999,9999,9999,3399896124
72,11,25,Jits_Pract_5,4,9999,9999,9999,3400396904
72,11,25,Jits_Pract_5,5,9999,9999,9999,3400896576
72,11,25,Jits_Pract_5,6,9999,9999,9999,3401396304
72,11,25,Jits_Pract_5,7,9999,9999,9999,3401897016
72,11,25,Jits_Pract_5,8,9999,9999,9999,3402396764
72,11,25,Jits_Pract_5,9,9999,9999,9999,3402896504
72,11,25,Jits_Pract_5,10,9999,9999,9999,3403396172
72,11,25,Jits_Pract_5,11,9999,9999,9999,3403896888
72,11,25,Jits_Pract_5,12,9999,9999,9999,3404396616
72,11,25,Jits_Pract_5,13,9999,9999,9999,3404896344
72,11,25,Jits_Pract_5,14,9999,9999,9999,3405397044
72,12,25,Jits_Pract_5,0,5,56,103,3446658672
72,12,25,Jits_Pract_5,1,5,63,98,3446661920
72,12,25,Jits_Pract_5,2,5,80,127,3446664892
72,12,25,Jits_Pract_5,0,5,56,103,3447159148
72,12,25,Jits_Pract_5,1,5,63,98,3447162396
72,12,25,Jits_Pract_5,2,5,80,127,3447165440
72,12,25,Jits_Pract_5,0,5,56,103,3447658888
72,12,25,Jits_Pract_5,1,5,80,127,3447669236
72,12,25,Jits_Pract_5,2,5,63,98,3447688496
72,12,25,Jits_Pract_5,3,1,48,32,3447770576
72,12,25,Jits_Pract_5,0,5,63,98,3448109648
72,12,25,Jits_Pract_5,1,5,80,127,3448139324
72,12,25,Jits_Pract_5,2,5,56,103,3448149444
72,12,25,Jits_Pract_5,3,1,48,25,3448194064
72,12,25,Jits_Pract_5,0,1,48,26,3448609880
72,12,25,Jits_Pract_5,1,5,80,127,3448668592
72,12,25,Jits_Pract_5,2,5,56,103,3448678940
72,12,25,Jits_Pract_5,3,5,63,98,3448708600
72,12,25,Jits_Pract_5,0,5,63,98,3449158980
72,12,25,Jits_Pract_5,1,5,56,103,3449188608
72,12,25,Jits_Pract_5,2,1,48,31,3449191724
72,12,25,Jits_Pract_5,3,5,80,127,3449199092
72,12,25,Jits_Pract_5,0,5,56,103,3449608552
72,12,25,Jits_Pract_5,1,5,63,98,3449658608
72,12,25,Jits_Pract_5,2,5,80,127,3449679312
72,12,25,Jits_Pract_5,3,1,48,26,3449688356
72,12,25,Jits_Pract_5,0,5,80,127,3450109528
72,12,25,Jits_Pract_5,1,5,63,98,3450158608
72,12,25,Jits_Pract_5,2,1,48,24,3450176944
72,12,25,Jits_Pract_5,3,5,56,103,3450199612
72,12,25,Jits_Pract_5,0,5,56,103,3450609012
72,12,25,Jits_Pract_5,1,5,63,98,3450638760
72,12,25,Jits_Pract_5,2,1,48,19,3450673340
72,12,25,Jits_Pract_5,3,5,80,127,3450709504
72,12,25,Jits_Pract_5,0,5,56,103,3451108936
72,12,25,Jits_Pract_5,1,5,80,127,3451169108
72,12,25,Jits_Pract_5,2,1,48,24,3451180692
72,12,25,Jits_Pract_5,3,5,63,98,3451199296
72,12,25,Jits_Pract_5,0,5,56,103,3451618760
72,12,25,Jits_Pract_5,1,5,63,98,3451629028
72,12,25,Jits_Pract_5,2,5,80,127,3451668968
72,12,25,Jits_Pract_5,3,1,48,28,3451703548
72,12,25,Jits_Pract_5,0,5,63,98,3452109096
72,12,25,Jits_Pract_5,1,5,80,127,3452189116
72,12,25,Jits_Pract_5,2,1,48,27,3452197796
72,12,25,Jits_Pract_5,3,5,56,103,3452199380
72,12,25,Jits_Pract_5,0,5,63,98,3452658912
72,12,25,Jits_Pract_5,1,5,56,103,3452698996
72,12,25,Jits_Pract_5,2,5,80,127,3452701912
72,12,25,Jits_Pract_5,3,1,48,27,3452718228
72,12,25,Jits_Pract_5,0,5,56,103,3453118812
72,12,25,Jits_Pract_5,1,5,63,98,3453129012
72,12,25,Jits_Pract_5,2,5,80,127,3453168948
72,12,25,Jits_Pract_5,3,1,48,27,3453219412
72,12,25,Jits_Pract_5,0,5,56,103,3453609448
72,12,25,Jits_Pract_5,1,5,63,98,3453612440
72,12,25,Jits_Pract_5,2,5,80,127,3453628788
72,12,25,Jits_Pract_5,3,1,48,30,3453693256
72,12,25,Jits_Pract_5,0,9999,9999,9999,3446906936
72,12,25,Jits_Pract_5,1,9999,9999,9999,3447406660
72,12,25,Jits_Pract_5,2,9999,9999,9999,3447906388
72,12,25,Jits_Pract_5,3,9999,9999,9999,3448406136
72,12,25,Jits_Pract_5,4,9999,9999,9999,3448906856
72,12,25,Jits_Pract_5,5,9999,9999,9999,3449406552
72,12,25,Jits_Pract_5,6,9999,9999,9999,3449906240
72,12,25,Jits_Pract_5,7,9999,9999,9999,3450406996
72,12,25,Jits_Pract_5,8,9999,9999,9999,3450906700
72,12,25,Jits_Pract_5,9,9999,9999,9999,3451406404
72,12,25,Jits_Pract_5,10,9999,9999,9999,3451906108
72,12,25,Jits_Pract_5,11,9999,9999,9999,3452406860
72,12,25,Jits_Pract_5,12,9999,9999,9999,3452906548
72,12,25,Jits_Pract_5,13,9999,9999,9999,3453406312
72,12,25,Jits_Pract_5,14,9999,9999,9999,3453907052
72,13,24,Jits_Pract_8,0,5,56,103,3462093368
72,13,24,Jits_Pract_8,1,5,63,98,3462096396
72,13,24,Jits_Pract_8,2,5,80,127,3462099516
72,13,24,Jits_Pract_8,0,1,48,33,3462715324
72,13,24,Jits_Pract_8,1,5,56,103,3462892840
72,13,24,Jits_Pract_8,2,5,63,98,3462896088
72,13,24,Jits_Pract_8,3,5,80,127,3462899356
72,13,24,Jits_Pract_8,0,1,48,23,3463529240
72,13,24,Jits_Pract_8,1,5,80,127,3463633176
72,13,24,Jits_Pract_8,2,5,63,98,3463723240
72,13,24,Jits_Pract_8,3,5,56,103,3463732684
72,13,24,Jits_Pract_8,0,1,48,32,3464434724
72,13,24,Jits_Pract_8,1,5,56,103,3464452504
72,13,24,Jits_Pract_8,2,5,63,98,3464462628
72,13,24,Jits_Pract_8,3,5,80,127,3464552840
72,13,24,Jits_Pract_8,0,5,63,98,3465222596
72,13,24,Jits_Pract_8,1,5,80,127,3465253320
72,13,24,Jits_Pract_8,2,5,56,103,3465283068
72,13,24,Jits_Pract_8,3,1,48,32,3465297004
72,13,24,Jits_Pract_8,0,1,48,33,3465990852
72,13,24,Jits_Pract_8,1,5,56,103,3466023164
72,13,24,Jits_Pract_8,2,5,80,127,3466122676
72,13,24,Jits_Pract_8,3,5,63,98,3466172876
72,13,24,Jits_Pract_8,0,5,56,103,3466823156
72,13,24,Jits_Pract_8,1,5,80,127,3466873308
72,13,24,Jits_Pract_8,2,1,48,31,3466877028
72,13,24,Jits_Pract_8,3,5,63,98,3466913092
72,13,24,Jits_Pract_8,0,5,80,127,3467652472
72,13,24,Jits_Pract_8,1,1,48,31,3467660000
72,13,24,Jits_Pract_8,2,5,63,98,3467683260
72,13,24,Jits_Pract_8,3,5,56,103,3467752864
72,13,24,Jits_Pract_8,0,1,48,29,3468445992
72,13,24,Jits_Pract_8,1,5,63,98,3468482880
72,13,24,Jits_Pract_8,2,5,56,103,3468512632
72,13,24,Jits_Pract_8,3,5,80,127,3468573152
72,13,24,Jits_Pract_8,0,5,56,103,3469223380
72,13,24,Jits_Pract_8,1,5,80,127,3469226300
72,13,24,Jits_Pract_8,2,1,48,27,3469246728
72,13,24,Jits_Pract_8,3,5,63,98,3469343084
72,13,24,Jits_Pract_8,0,1,48,28,3470038316
72,13,24,Jits_Pract_8,1,5,56,103,3470103004
72,13,24,Jits_Pract_8,2,5,80,127,3470142780
72,13,24,Jits_Pract_8,3,5,63,98,3470153196
72,13,24,Jits_Pract_8,0,5,56,103,3470862692
72,13,24,Jits_Pract_8,1,1,48,34,3470866332
72,13,24,Jits_Pract_8,2,5,80,127,3470883292
72,13,24,Jits_Pract_8,3,5,63,98,3470963848
72,13,24,Jits_Pract_8,0,1,48,34,3471650360
72,13,24,Jits_Pract_8,1,5,80,127,3471653092
72,13,24,Jits_Pract_8,2,5,56,103,3471752528
72,13,24,Jits_Pract_8,3,5,63,98,3471762724
72,13,24,Jits_Pract_8,0,5,63,98,3472423340
72,13,24,Jits_Pract_8,1,1,48,32,3472428776
72,13,24,Jits_Pract_8,2,5,80,127,3472482628
72,13,24,Jits_Pract_8,3,5,56,103,3472493196
72,13,24,Jits_Pract_8,0,5,56,103,3473223020
72,13,24,Jits_Pract_8,1,1,48,34,3473236128
72,13,24,Jits_Pract_8,2,5,63,98,3473292564
72,13,24,Jits_Pract_8,3,5,80,127,3473296008
72,13,24,Jits_Pract_8,0,9999,9999,9999,3462490208
72,13,24,Jits_Pract_8,1,9999,9999,9999,3463290944
72,13,24,Jits_Pract_8,2,9999,9999,9999,3464090700
72,13,24,Jits_Pract_8,3,9999,9999,9999,3464890456
72,13,24,Jits_Pract_8,4,9999,9999,9999,3465690208
72,13,24,Jits_Pract_8,5,9999,9999,9999,3466490940
72,13,24,Jits_Pract_8,6,9999,9999,9999,3467290692
72,13,24,Jits_Pract_8,7,9999,9999,9999,3468090468
72,13,24,Jits_Pract_8,8,9999,9999,9999,3468890196
72,13,24,Jits_Pract_8,9,9999,9999,9999,3469690984
72,13,24,Jits_Pract_8,10,9999,9999,9999,3470490688
72,13,24,Jits_Pract_8,11,9999,9999,9999,3471290452
72,13,24,Jits_Pract_8,12,9999,9999,9999,3472090228
72,13,24,Jits_Pract_8,13,9999,9999,9999,3472890952
72,13,24,Jits_Pract_8,14,9999,9999,9999,3473690696
72,14,19,Jits_Linear_5,0,5,56,103,3520175540
72,14,19,Jits_Linear_5,1,5,63,98,3520178560
72,14,19,Jits_Linear_5,2,5,80,127,3520181832
72,14,19,Jits_Linear_5,0,5,56,103,3520655776
72,14,19,Jits_Linear_5,1,5,63,98,3520658796
72,14,19,Jits_Linear_5,2,5,80,127,3520662144
72,14,19,Jits_Linear_5,3,1,48,33,3520867272
72,14,19,Jits_Linear_5,0,5,56,103,3521135920
72,14,19,Jits_Linear_5,1,5,80,127,3521146120
72,14,19,Jits_Linear_5,2,5,63,98,3521165752
72,14,19,Jits_Linear_5,3,1,48,34,3521325000
72,14,19,Jits_Linear_5,0,5,63,98,3521566072
72,14,19,Jits_Linear_5,1,5,80,127,3521595676
72,14,19,Jits_Linear_5,2,5,56,103,3521606244
72,14,19,Jits_Linear_5,3,1,48,32,3521745340
72,14,19,Jits_Linear_5,0,5,80,127,3522105888
72,14,19,Jits_Linear_5,1,5,56,103,3522116160
72,14,19,Jits_Linear_5,2,5,63,98,3522145640
72,14,19,Jits_Linear_5,3,1,48,29,3522171304
72,14,19,Jits_Linear_5,0,5,63,98,3522586044
72,14,19,Jits_Linear_5,1,5,56,103,3522615648
72,14,19,Jits_Linear_5,2,5,80,127,3522626068
72,14,19,Jits_Linear_5,3,1,48,28,3522644948
72,14,19,Jits_Linear_5,0,5,56,103,3523026320
72,14,19,Jits_Linear_5,1,5,63,98,3523075404
72,14,19,Jits_Linear_5,2,1,48,30,3523093196
72,14,19,Jits_Linear_5,3,5,80,127,3523096080
72,14,19,Jits_Linear_5,0,5,80,127,3523515984
72,14,19,Jits_Linear_5,1,1,48,33,3523565968
72,14,19,Jits_Linear_5,2,5,63,98,3523567304
72,14,19,Jits_Linear_5,3,5,56,103,3523606120
72,14,19,Jits_Linear_5,0,5,56,103,3524006396
72,14,19,Jits_Linear_5,1,1,48,29,3524019556
72,14,19,Jits_Linear_5,2,5,63,98,3524036144
72,14,19,Jits_Linear_5,3,5,80,127,3524105452
72,14,19,Jits_Linear_5,0,5,56,103,3524495688
72,14,19,Jits_Linear_5,1,1,48,33,3524507500
72,14,19,Jits_Linear_5,2,5,80,127,3524556372
72,14,19,Jits_Linear_5,3,5,63,98,3524586048
72,14,19,Jits_Linear_5,0,5,56,103,3524995468
72,14,19,Jits_Linear_5,1,1,48,27,3524999108
72,14,19,Jits_Linear_5,2,5,63,98,3525005584
72,14,19,Jits_Linear_5,3,5,80,127,3525045596
72,14,19,Jits_Linear_5,0,5,63,98,3525486176
72,14,19,Jits_Linear_5,1,1,48,27,3525540164
72,14,19,Jits_Linear_5,2,5,80,127,3525565820
72,14,19,Jits_Linear_5,3,5,56,103,3525576164
72,14,19,Jits_Linear_5,0,1,48,29,3526000212
72,14,19,Jits_Linear_5,1,5,63,98,3526035836
72,14,19,Jits_Linear_5,2,5,56,103,3526075700
72,14,19,Jits_Linear_5,3,5,80,127,3526078840
72,14,19,Jits_Linear_5,0,5,56,103,3526495588
72,14,19,Jits_Linear_5,1,5,63,98,3526505784
72,14,19,Jits_Linear_5,2,1,48,25,3526520888
72,14,19,Jits_Linear_5,3,5,80,127,3526545716
72,14,19,Jits_Linear_5,0,1,48,25,3526971844
72,14,19,Jits_Linear_5,1,5,56,103,3526996328
72,14,19,Jits_Linear_5,2,5,63,98,3526999468
72,14,19,Jits_Linear_5,3,5,80,127,3527015888
72,14,19,Jits_Linear_5,0,1,48,25,3527505640
72,14,19,Jits_Linear_5,1,5,80,127,3527515408
72,14,19,Jits_Linear_5,2,5,56,103,3527525604
72,14,19,Jits_Linear_5,3,5,63,98,3527596260
72,14,19,Jits_Linear_5,0,1,48,25,3527995864
72,14,19,Jits_Linear_5,1,5,63,98,3528016216
72,14,19,Jits_Linear_5,2,5,56,103,3528035556
72,14,19,Jits_Linear_5,3,5,80,127,3528115560
72,14,19,Jits_Linear_5,0,1,48,25,3528493680
72,14,19,Jits_Linear_5,1,5,56,103,3528536356
72,14,19,Jits_Linear_5,2,5,80,127,3528576296
72,14,19,Jits_Linear_5,3,5,63,98,3528585520
72,14,19,Jits_Linear_5,0,1,48,23,3528989980
72,14,19,Jits_Linear_5,1,5,80,127,3529036040
72,14,19,Jits_Linear_5,2,5,63,98,3529066092
72,14,19,Jits_Linear_5,3,5,56,103,3529105792
72,14,19,Jits_Linear_5,0,1,48,24,3529482168
72,14,19,Jits_Linear_5,1,5,56,103,3529565620
72,14,19,Jits_Linear_5,2,5,63,98,3529596184
72,14,19,Jits_Linear_5,3,5,80,127,3529645340
72,14,19,Jits_Linear_5,0,1,48,28,3529995880
72,14,19,Jits_Linear_5,1,5,80,127,3530075652
72,14,19,Jits_Linear_5,2,5,56,103,3530115428
72,14,19,Jits_Linear_5,3,5,63,98,3530125552
72,14,19,Jits_Linear_5,0,1,48,25,3530545620
72,14,19,Jits_Linear_5,1,5,80,127,3530576236
72,14,19,Jits_Linear_5,2,5,63,98,3530616176
72,14,19,Jits_Linear_5,3,5,56,103,3530675432
72,14,19,Jits_Linear_5,0,1,48,25,3531065540
72,14,19,Jits_Linear_5,1,5,56,103,3531096452
72,14,19,Jits_Linear_5,2,5,80,127,3531105600
72,14,19,Jits_Linear_5,3,5,63,98,3531185532
72,14,19,Jits_Linear_5,0,1,48,22,3531582140
72,14,19,Jits_Linear_5,1,5,80,127,3531615544
72,14,19,Jits_Linear_5,2,5,63,98,3531676012
72,14,19,Jits_Linear_5,3,5,56,103,3531705820
72,14,19,Jits_Linear_5,0,1,48,25,3532073060
72,14,19,Jits_Linear_5,1,5,56,103,3532135760
72,14,19,Jits_Linear_5,2,5,80,127,3532196136
72,14,19,Jits_Linear_5,3,5,63,98,3532236004
72,14,19,Jits_Linear_5,0,1,48,23,3532585944
72,14,19,Jits_Linear_5,1,5,56,103,3532716352
72,14,19,Jits_Linear_5,2,5,63,98,3532725572
72,14,19,Jits_Linear_5,3,5,80,127,3532729008
72,14,19,Jits_Linear_5,0,1,48,25,3533171204
72,14,19,Jits_Linear_5,1,5,80,127,3533195664
72,14,19,Jits_Linear_5,2,5,63,98,3533285864
72,14,19,Jits_Linear_5,3,5,56,103,3533295988
72,14,19,Jits_Linear_5,0,1,48,24,3533722144
72,14,19,Jits_Linear_5,1,5,56,103,3533725984
72,14,19,Jits_Linear_5,2,5,63,98,3533729080
72,14,19,Jits_Linear_5,3,5,80,127,3533732500
72,14,19,Jits_Linear_5,0,5,80,127,3534275868
72,14,19,Jits_Linear_5,1,1,48,19,3534318700
72,14,19,Jits_Linear_5,2,5,63,98,3534326216
72,14,19,Jits_Linear_5,3,5,56,103,3534356040
72,14,19,Jits_Linear_5,0,5,56,103,3534785984
72,14,19,Jits_Linear_5,1,5,80,127,3534796104
72,14,19,Jits_Linear_5,2,1,48,24,3534847104
72,14,19,Jits_Linear_5,3,5,63,98,3534865856
72,14,19,Jits_Linear_5,0,5,56,103,3535325472
72,14,19,Jits_Linear_5,1,1,48,24,3535329036
72,14,19,Jits_Linear_5,2,5,63,98,3535346004
72,14,19,Jits_Linear_5,3,5,80,127,3535405348
72,14,19,Jits_Linear_5,0,1,48,26,3535787600
72,14,19,Jits_Linear_5,1,5,80,127,3535855960
72,14,19,Jits_Linear_5,2,5,63,98,3535925556
72,14,19,Jits_Linear_5,3,5,56,103,3535946116
72,14,19,Jits_Linear_5,0,1,48,25,3536324684
72,14,19,Jits_Linear_5,1,5,80,127,3536416184
72,14,19,Jits_Linear_5,2,5,56,103,3536426440
72,14,19,Jits_Linear_5,3,5,63,98,3536435520
72,14,19,Jits_Linear_5,0,1,48,25,3536931792
72,14,19,Jits_Linear_5,1,5,80,127,3536945392
72,14,19,Jits_Linear_5,2,5,56,103,3536965928
72,14,19,Jits_Linear_5,3,5,63,98,3537035692
72,14,19,Jits_Linear_5,0,1,48,25,3537467004
72,14,19,Jits_Linear_5,1,5,56,103,3537496424
72,14,19,Jits_Linear_5,2,5,80,127,3537526028
72,14,19,Jits_Linear_5,3,5,63,98,3537545516
72,14,19,Jits_Linear_5,0,5,63,98,3538036056
72,14,19,Jits_Linear_5,1,1,48,27,3538041340
72,14,19,Jits_Linear_5,2,5,56,103,3538095468
72,14,19,Jits_Linear_5,3,5,80,127,3538126192
72,14,19,Jits_Linear_5,0,5,63,98,3538575972
72,14,19,Jits_Linear_5,1,5,80,127,3538579188
72,14,19,Jits_Linear_5,2,1,48,27,3538582760
72,14,19,Jits_Linear_5,3,5,56,103,3538665876
72,14,19,Jits_Linear_5,0,1,48,30,3539128064
72,14,19,Jits_Linear_5,1,5,56,103,3539146076
72,14,19,Jits_Linear_5,2,5,63,98,3539175976
72,14,19,Jits_Linear_5,3,5,80,127,3539215692
72,14,19,Jits_Linear_5,0,1,48,26,3539655400
72,14,19,Jits_Linear_5,1,5,63,98,3539696036
72,14,19,Jits_Linear_5,2,5,56,103,3539735976
72,14,19,Jits_Linear_5,3,5,80,127,3539756344
72,14,19,Jits_Linear_5,0,1,48,29,3540204616
72,14,19,Jits_Linear_5,1,5,63,98,3540256332
72,14,19,Jits_Linear_5,2,5,56,103,3540297180
72,14,19,Jits_Linear_5,3,5,80,127,3540306256
72,14,19,Jits_Linear_5,0,1,48,26,3540772312
72,14,19,Jits_Linear_5,1,5,80,127,3540785388
72,14,19,Jits_Linear_5,2,5,63,98,3540856144
72,14,19,Jits_Linear_5,3,5,56,103,3540875768
72,14,19,Jits_Linear_5,0,1,48,26,3541307604
72,14,19,Jits_Linear_5,1,5,56,103,3541336572
72,14,19,Jits_Linear_5,2,5,80,127,3541355760
72,14,19,Jits_Linear_5,3,5,63,98,3541395996
72,14,19,Jits_Linear_5,0,1,48,25,3541853688
72,14,19,Jits_Linear_5,1,5,63,98,3541905932
72,14,19,Jits_Linear_5,2,5,80,127,3541926392
72,14,19,Jits_Linear_5,3,5,56,103,3541966316
72,14,19,Jits_Linear_5,0,1,48,26,3542421912
72,14,19,Jits_Linear_5,1,5,63,98,3542466076
72,14,19,Jits_Linear_5,2,5,56,103,3542486388
72,14,19,Jits_Linear_5,3,5,80,127,3542495540
72,14,19,Jits_Linear_5,0,1,48,29,3543011656
72,14,19,Jits_Linear_5,1,5,80,127,3543036336
72,14,19,Jits_Linear_5,2,5,56,103,3543055824
72,14,19,Jits_Linear_5,3,5,63,98,3543085276
72,14,19,Jits_Linear_5,0,1,48,26,3543541532
72,14,19,Jits_Linear_5,1,5,56,103,3543676216
72,14,19,Jits_Linear_5,2,5,80,127,3543679204
72,14,19,Jits_Linear_5,3,5,63,98,3543695852
72,14,19,Jits_Linear_5,0,1,48,24,3544165952
72,14,19,Jits_Linear_5,1,5,63,98,3544167292
72,14,19,Jits_Linear_5,2,5,56,103,3544195328
72,14,19,Jits_Linear_5,3,5,80,127,3544255792
72,14,19,Jits_Linear_5,0,1,48,23,3544743664
72,14,19,Jits_Linear_5,1,5,63,98,3544816160
72,14,19,Jits_Linear_5,2,5,56,103,3544826356
72,14,19,Jits_Linear_5,3,5,80,127,3544835428
72,14,19,Jits_Linear_5,0,1,48,25,3545322180
72,14,19,Jits_Linear_5,1,5,56,103,3545336152
72,14,19,Jits_Linear_5,2,5,80,127,3545365832
72,14,19,Jits_Linear_5,3,5,63,98,3545376248
72,14,19,Jits_Linear_5,0,1,48,22,3545870944
72,14,19,Jits_Linear_5,1,5,63,98,3545945404
72,14,19,Jits_Linear_5,2,5,56,103,3545955900
72,14,19,Jits_Linear_5,3,5,80,127,3545976196
72,14,19,Jits_Linear_5,0,1,48,26,3546442212
72,14,19,Jits_Linear_5,1,5,56,103,3546446220
72,14,19,Jits_Linear_5,2,5,63,98,3546505712
72,14,19,Jits_Linear_5,3,5,80,127,3546508852
72,14,19,Jits_Linear_5,0,1,48,24,3547005660
72,14,19,Jits_Linear_5,1,5,80,127,3547046216
72,14,19,Jits_Linear_5,2,5,56,103,3547055588
72,14,19,Jits_Linear_5,3,5,63,98,3547126080
72,14,19,Jits_Linear_5,0,1,48,24,3547553280
72,14,19,Jits_Linear_5,1,5,80,127,3547615728
72,14,19,Jits_Linear_5,2,5,56,103,3547686224
72,14,19,Jits_Linear_5,3,5,63,98,3547695596
72,14,19,Jits_Linear_5,0,1,48,25,3548170824
72,14,19,Jits_Linear_5,1,5,63,98,3548236216
72,14,19,Jits_Linear_5,2,5,56,103,3548246264
72,14,19,Jits_Linear_5,3,5,80,127,3548265736
72,14,19,Jits_Linear_5,0,1,48,25,3548736076
72,14,19,Jits_Linear_5,1,5,80,127,3548765572
72,14,19,Jits_Linear_5,2,5,63,98,3548825968
72,14,19,Jits_Linear_5,3,5,56,103,3548865892
72,14,19,Jits_Linear_5,0,1,48,26,3549275120
72,14,19,Jits_Linear_5,1,5,56,103,3549396288
72,14,19,Jits_Linear_5,2,5,63,98,3549405736
72,14,19,Jits_Linear_5,3,5,80,127,3549445600
72,14,19,Jits_Linear_5,0,1,48,19,3549872352
72,14,19,Jits_Linear_5,1,5,56,103,3549946260
72,14,19,Jits_Linear_5,2,5,80,127,3549975924
72,14,19,Jits_Linear_5,3,5,63,98,3550026152
72,14,19,Jits_Linear_5,0,1,48,24,3550464208
72,14,19,Jits_Linear_5,1,5,56,103,3550575948
72,14,19,Jits_Linear_5,2,5,63,98,3550615964
72,14,19,Jits_Linear_5,3,5,80,127,3550619472
72,14,19,Jits_Linear_5,0,1,48,24,3551048788
72,14,19,Jits_Linear_5,1,5,56,103,3551165908
72,14,19,Jits_Linear_5,2,5,63,98,3551176104
72,14,19,Jits_Linear_5,3,5,80,127,3551195444
72,14,19,Jits_Linear_5,0,1,48,26,3551649844
72,14,19,Jits_Linear_5,1,5,56,103,3551715880
72,14,19,Jits_Linear_5,2,5,80,127,3551718796
72,14,19,Jits_Linear_5,3,5,63,98,3551755656
72,14,19,Jits_Linear_5,0,1,48,22,3552246396
72,14,19,Jits_Linear_5,1,5,63,98,3552345560
72,14,19,Jits_Linear_5,2,5,56,103,3552376136
72,14,19,Jits_Linear_5,3,5,80,127,3552395772
72,14,19,Jits_Linear_5,0,1,48,24,3552818236
72,14,19,Jits_Linear_5,1,5,80,127,3552915900
72,14,19,Jits_Linear_5,2,5,56,103,3552925948
72,14,19,Jits_Linear_5,3,5,63,98,3552936292
72,14,19,Jits_Linear_5,0,1,48,21,3553417368
72,14,19,Jits_Linear_5,1,5,56,103,3553516424
72,14,19,Jits_Linear_5,2,5,80,127,3553555844
72,14,19,Jits_Linear_5,3,5,63,98,3553585596
72,14,19,Jits_Linear_5,0,1,48,21,3554030468
72,14,19,Jits_Linear_5,1,5,63,98,3554126136
72,14,19,Jits_Linear_5,2,5,80,127,3554136764
72,14,19,Jits_Linear_5,3,5,56,103,3554145840
72,14,19,Jits_Linear_5,0,1,48,21,3554662792
72,14,19,Jits_Linear_5,1,5,56,103,3554705760
72,14,19,Jits_Linear_5,2,5,63,98,3554776400
72,14,19,Jits_Linear_5,3,5,80,127,3554785848
72,14,19,Jits_Linear_5,0,1,48,22,3555232452
72,14,19,Jits_Linear_5,1,5,80,127,3555316032
72,14,19,Jits_Linear_5,2,5,56,103,3555326452
72,14,19,Jits_Linear_5,3,5,63,98,3555375592
72,14,19,Jits_Linear_5,0,1,48,20,3555832084
72,14,19,Jits_Linear_5,1,5,80,127,3555935600
72,14,19,Jits_Linear_5,2,5,56,103,3555996144
72,14,19,Jits_Linear_5,3,5,63,98,3556025744
72,14,19,Jits_Linear_5,0,1,48,26,3556484576
72,14,19,Jits_Linear_5,1,5,56,103,3556546036
72,14,19,Jits_Linear_5,2,5,80,127,3556549024
72,14,19,Jits_Linear_5,3,5,63,98,3556585884
72,14,19,Jits_Linear_5,0,1,48,24,3557099320
72,14,19,Jits_Linear_5,1,5,56,103,3557185892
72,14,19,Jits_Linear_5,2,5,63,98,3557215652
72,14,19,Jits_Linear_5,3,5,80,127,3557225848
72,14,19,Jits_Linear_5,0,1,48,23,3557673844
72,14,19,Jits_Linear_5,1,5,63,98,3557805692
72,14,19,Jits_Linear_5,2,5,80,127,3557815664
72,14,19,Jits_Linear_5,3,5,56,103,3557825860
72,14,19,Jits_Linear_5,0,1,48,20,3558295852
72,14,19,Jits_Linear_5,1,5,80,127,3558365780
72,14,19,Jits_Linear_5,2,5,56,103,3558415820
72,14,19,Jits_Linear_5,3,5,63,98,3558418808
72,14,19,Jits_Linear_5,0,1,48,25,3558897936
72,14,19,Jits_Linear_5,1,5,56,103,3559015756
72,14,19,Jits_Linear_5,2,5,80,127,3559036140
72,14,19,Jits_Linear_5,3,5,63,98,3559045664
72,14,19,Jits_Linear_5,0,1,48,26,3559535356
72,14,19,Jits_Linear_5,1,5,63,98,3559615924
72,14,19,Jits_Linear_5,2,5,56,103,3559645512
72,14,19,Jits_Linear_5,3,5,80,127,3559665972
72,14,19,Jits_Linear_5,0,1,48,25,3560139400
72,14,19,Jits_Linear_5,1,5,56,103,3560245736
72,14,19,Jits_Linear_5,2,5,80,127,3560255784
72,14,19,Jits_Linear_5,3,5,63,98,3560325416
72,14,19,Jits_Linear_5,0,1,48,27,3560744064
72,14,19,Jits_Linear_5,1,5,63,98,3560855956
72,14,19,Jits_Linear_5,2,5,80,127,3560895824
72,14,19,Jits_Linear_5,3,5,56,103,3560935764
72,14,19,Jits_Linear_5,0,1,48,25,3561357800
72,14,19,Jits_Linear_5,1,5,56,103,3561495976
72,14,19,Jits_Linear_5,2,5,63,98,3561506176
72,14,19,Jits_Linear_5,3,5,80,127,3561525512
72,14,19,Jits_Linear_5,0,1,48,30,3561954888
72,14,19,Jits_Linear_5,1,5,63,98,3562165688
72,14,19,Jits_Linear_5,2,5,80,127,3562186000
72,14,19,Jits_Linear_5,3,5,56,103,3562205560
72,14,19,Jits_Linear_5,0,1,48,29,3562651868
72,14,19,Jits_Linear_5,1,5,56,103,3562735892
72,14,19,Jits_Linear_5,2,5,80,127,3562815976
72,14,19,Jits_Linear_5,3,5,63,98,3562825976
72,14,19,Jits_Linear_5,0,1,48,32,3563271728
72,14,19,Jits_Linear_5,1,5,80,127,3563405740
72,14,19,Jits_Linear_5,2,5,63,98,3563416012
72,14,19,Jits_Linear_5,3,5,56,103,3563445688
72,14,19,Jits_Linear_5,0,1,48,33,3563921816
72,14,19,Jits_Linear_5,1,5,63,98,3564005768
72,14,19,Jits_Linear_5,2,5,80,127,3564045616
72,14,19,Jits_Linear_5,3,5,56,103,3564106036
72,14,19,Jits_Linear_5,0,1,48,33,3564549400
72,14,19,Jits_Linear_5,1,5,63,98,3564666248
72,14,19,Jits_Linear_5,2,5,56,103,3564716600
72,14,19,Jits_Linear_5,3,5,80,127,3564745976
72,14,19,Jits_Linear_5,0,1,48,33,3565234924
72,14,19,Jits_Linear_5,1,5,80,127,3565315644
72,14,19,Jits_Linear_5,2,5,63,98,3565325768
72,14,19,Jits_Linear_5,3,5,56,103,3565396504
72,14,19,Jits_Linear_5,0,1,48,28,3565912788
72,14,19,Jits_Linear_5,1,5,80,127,3566026024
72,14,19,Jits_Linear_5,2,5,56,103,3566036368
72,14,19,Jits_Linear_5,3,5,63,98,3566039508
72,14,19,Jits_Linear_5,0,5,56,103,3566605668
72,14,19,Jits_Linear_5,1,1,48,40,3566621368
72,14,19,Jits_Linear_5,2,5,80,127,3566626124
72,14,19,Jits_Linear_5,3,5,63,98,3566636616
72,14,19,Jits_Linear_5,0,1,48,38,3567225092
72,14,19,Jits_Linear_5,1,5,63,98,3567255908
72,14,19,Jits_Linear_5,2,5,56,103,3567295848
72,14,19,Jits_Linear_5,3,5,80,127,3567316812
72,14,19,Jits_Linear_5,0,1,48,35,3567862252
72,14,19,Jits_Linear_5,1,5,63,98,3567895856
72,14,19,Jits_Linear_5,2,5,56,103,3567956496
72,14,19,Jits_Linear_5,3,5,80,127,3567960296
72,14,19,Jits_Linear_5,0,1,48,34,3568508512
72,14,19,Jits_Linear_5,1,5,56,103,3568515432
72,14,19,Jits_Linear_5,2,5,80,127,3568535820
72,14,19,Jits_Linear_5,3,5,63,98,3568575908
72,14,19,Jits_Linear_5,0,1,48,34,3569145304
72,14,19,Jits_Linear_5,1,5,56,103,3569196500
72,14,19,Jits_Linear_5,2,5,63,98,3569215764
72,14,19,Jits_Linear_5,3,5,80,127,3569225984
72,14,19,Jits_Linear_5,0,1,48,35,3569784220
72,14,19,Jits_Linear_5,1,5,80,127,3569815788
72,14,19,Jits_Linear_5,2,5,56,103,3569845540
72,14,19,Jits_Linear_5,3,5,63,98,3569885536
72,14,19,Jits_Linear_5,0,1,48,36,3570426928
72,14,19,Jits_Linear_5,1,5,80,127,3570476476
72,14,19,Jits_Linear_5,2,5,56,103,3570495816
72,14,19,Jits_Linear_5,3,5,63,98,3570556364
72,14,19,Jits_Linear_5,0,1,48,33,3571054456
72,14,19,Jits_Linear_5,1,5,56,103,3571135924
72,14,19,Jits_Linear_5,2,5,80,127,3571156592
72,14,19,Jits_Linear_5,3,5,63,98,3571215716
72,14,19,Jits_Linear_5,0,1,48,35,3571691388
72,14,19,Jits_Linear_5,1,5,80,127,3571775940
72,14,19,Jits_Linear_5,2,5,56,103,3571786820
72,14,19,Jits_Linear_5,3,5,63,98,3571825936
72,14,19,Jits_Linear_5,0,1,48,36,3572339368
72,14,19,Jits_Linear_5,1,5,63,98,3572436428
72,14,19,Jits_Linear_5,2,5,56,103,3572476424
72,14,19,Jits_Linear_5,3,5,80,127,3572479564
72,14,19,Jits_Linear_5,0,1,48,36,3572974132
72,14,19,Jits_Linear_5,1,5,63,98,3573116444
72,14,19,Jits_Linear_5,2,5,80,127,3573156460
72,14,19,Jits_Linear_5,3,5,56,103,3573185764
72,14,19,Jits_Linear_5,0,1,48,37,3573636868
72,14,19,Jits_Linear_5,1,5,56,103,3573765528
72,14,19,Jits_Linear_5,2,5,63,98,3573775724
72,14,19,Jits_Linear_5,3,5,80,127,3573805328
72,14,19,Jits_Linear_5,0,1,48,34,3574260916
72,14,19,Jits_Linear_5,1,5,80,127,3574426092
72,14,19,Jits_Linear_5,2,5,63,98,3574495556
72,14,19,Jits_Linear_5,3,5,56,103,3574505824
72,14,19,Jits_Linear_5,0,1,48,29,3575013656
72,14,19,Jits_Linear_5,1,5,63,98,3575095720
72,14,19,Jits_Linear_5,2,5,56,103,3575166608
72,14,19,Jits_Linear_5,3,5,80,127,3575175460
72,14,19,Jits_Linear_5,0,1,48,30,3575675712
72,14,19,Jits_Linear_5,1,5,63,98,3575766324
72,14,19,Jits_Linear_5,2,5,56,103,3575785724
72,14,19,Jits_Linear_5,3,5,80,127,3575825664
72,14,19,Jits_Linear_5,0,1,48,31,3576333096
72,14,19,Jits_Linear_5,1,5,56,103,3576446280
72,14,19,Jits_Linear_5,2,5,63,98,3576455652
72,14,19,Jits_Linear_5,3,5,80,127,3576536644
72,14,19,Jits_Linear_5,0,1,48,38,3577003864
72,14,19,Jits_Linear_5,1,5,63,98,3577105772
72,14,19,Jits_Linear_5,2,5,56,103,3577135600
72,14,19,Jits_Linear_5,3,5,80,127,3577176384
72,14,19,Jits_Linear_5,0,1,48,32,3577700232
72,14,19,Jits_Linear_5,1,5,56,103,3577775568
72,14,19,Jits_Linear_5,2,5,63,98,3577816396
72,14,19,Jits_Linear_5,3,5,80,127,3577856480
72,14,19,Jits_Linear_5,0,1,48,31,3578363320
72,14,19,Jits_Linear_5,1,5,80,127,3578456368
72,14,19,Jits_Linear_5,2,5,56,103,3578536524
72,14,19,Jits_Linear_5,3,5,63,98,3578545376
72,14,19,Jits_Linear_5,0,1,48,30,3579043816
72,14,19,Jits_Linear_5,1,5,56,103,3579176456
72,14,19,Jits_Linear_5,2,5,63,98,3579179372
72,14,19,Jits_Linear_5,3,5,80,127,3579185384
72,14,19,Jits_Linear_5,0,1,48,31,3579726044
72,14,19,Jits_Linear_5,1,5,56,103,3579875828
72,14,19,Jits_Linear_5,2,5,63,98,3579896140
72,14,19,Jits_Linear_5,3,5,80,127,3579906412
72,14,19,Jits_Linear_5,0,1,48,27,3580415956
72,14,19,Jits_Linear_5,1,5,63,98,3580516316
72,14,19,Jits_Linear_5,2,5,80,127,3580525916
72,14,19,Jits_Linear_5,3,5,56,103,3580546376
72,14,19,Jits_Linear_5,0,1,48,31,3581040780
72,14,19,Jits_Linear_5,1,5,63,98,3581205784
72,14,19,Jits_Linear_5,2,5,56,103,3581285680
72,14,19,Jits_Linear_5,3,5,80,127,3581288820
72,14,19,Jits_Linear_5,0,1,48,30,3581700416
72,14,19,Jits_Linear_5,1,5,63,98,3581896236
72,14,19,Jits_Linear_5,2,5,56,103,3581915500
72,14,19,Jits_Linear_5,3,5,80,127,3581946224
72,14,19,Jits_Linear_5,0,1,48,29,3582401436
72,14,19,Jits_Linear_5,1,5,56,103,3582586176
72,14,19,Jits_Linear_5,2,5,63,98,3582605664
72,14,19,Jits_Linear_5,3,5,80,127,3582615784
72,14,19,Jits_Linear_5,0,1,48,27,3583131988
72,14,19,Jits_Linear_5,1,5,56,103,3583306308
72,14,19,Jits_Linear_5,2,5,63,98,3583335832
72,14,19,Jits_Linear_5,3,5,80,127,3583339196
72,14,19,Jits_Linear_5,0,1,48,32,3583864192
72,14,19,Jits_Linear_5,1,5,56,103,3583946256
72,14,19,Jits_Linear_5,2,5,63,98,3583986328
72,14,19,Jits_Linear_5,3,5,80,127,3584045376
72,14,19,Jits_Linear_5,0,1,48,34,3584593300
72,14,19,Jits_Linear_5,1,5,56,103,3584655604
72,14,19,Jits_Linear_5,2,5,63,98,3584665948
72,14,19,Jits_Linear_5,3,5,80,127,3584726472
72,14,19,Jits_Linear_5,0,1,48,33,3585255952
72,14,19,Jits_Linear_5,1,5,56,103,3585356836
72,14,19,Jits_Linear_5,2,5,80,127,3585375648
72,14,19,Jits_Linear_5,3,5,63,98,3585406296
72,14,19,Jits_Linear_5,0,1,48,32,3585943940
72,14,19,Jits_Linear_5,1,5,80,127,3586055584
72,14,19,Jits_Linear_5,2,5,56,103,3586065708
72,14,19,Jits_Linear_5,3,5,63,98,3586086168
72,14,19,Jits_Linear_5,0,1,48,32,3586659188
72,14,19,Jits_Linear_5,1,5,63,98,3586745684
72,14,19,Jits_Linear_5,2,5,80,127,3586825620
72,14,19,Jits_Linear_5,3,5,56,103,3586835964
72,14,19,Jits_Linear_5,0,1,48,32,3587355472
72,14,19,Jits_Linear_5,1,5,80,127,3587505508
72,14,19,Jits_Linear_5,2,5,56,103,3587526116
72,14,19,Jits_Linear_5,3,5,63,98,3587529180
72,14,19,Jits_Linear_5,0,1,48,36,3588056348
72,14,19,Jits_Linear_5,1,5,63,98,3588185400
72,14,19,Jits_Linear_5,2,5,80,127,3588188616
72,14,19,Jits_Linear_5,3,5,56,103,3588246016
72,14,19,Jits_Linear_5,0,1,48,36,3588844428
72,14,19,Jits_Linear_5,1,5,56,103,3588875548
72,14,19,Jits_Linear_5,2,5,80,127,3588885816
72,14,19,Jits_Linear_5,3,5,63,98,3588925904
72,14,19,Jits_Linear_5,0,1,48,34,3589472008
72,14,19,Jits_Linear_5,1,5,56,103,3589566432
72,14,19,Jits_Linear_5,2,5,63,98,3589626380
72,14,19,Jits_Linear_5,3,5,80,127,3589635380
72,14,19,Jits_Linear_5,0,1,48,42,3590166200
72,14,19,Jits_Linear_5,1,5,63,98,3590285592
72,14,19,Jits_Linear_5,2,5,80,127,3590325536
72,14,19,Jits_Linear_5,3,5,56,103,3590365548
72,14,19,Jits_Linear_5,0,1,48,33,3590922884
72,14,19,Jits_Linear_5,1,5,56,103,3590996372
72,14,19,Jits_Linear_5,2,5,63,98,3591076304
72,14,19,Jits_Linear_5,3,5,80,127,3591079664
72,14,19,Jits_Linear_5,0,1,48,35,3591660392
72,14,19,Jits_Linear_5,1,5,80,127,3591766456
72,14,19,Jits_Linear_5,2,5,56,103,3591796056
72,14,19,Jits_Linear_5,3,5,63,98,3591799120
72,14,19,Jits_Linear_5,0,1,48,35,3592294892
72,14,19,Jits_Linear_5,1,5,56,103,3592446248
72,14,19,Jits_Linear_5,2,5,80,127,3592465884
72,14,19,Jits_Linear_5,3,5,63,98,3592505676
72,14,19,Jits_Linear_5,0,1,48,31,3593076308
72,14,19,Jits_Linear_5,1,5,80,127,3593145564
72,14,19,Jits_Linear_5,2,5,63,98,3593166100
72,14,19,Jits_Linear_5,3,5,56,103,3593225576
72,14,19,Jits_Linear_5,0,1,48,36,3593783604
72,14,19,Jits_Linear_5,1,5,63,98,3593875868
72,14,19,Jits_Linear_5,2,5,56,103,3593886212
72,14,19,Jits_Linear_5,3,5,80,127,3593936340
72,14,19,Jits_Linear_5,0,1,48,37,3594520880
72,14,19,Jits_Linear_5,1,5,56,103,3594585448
72,14,19,Jits_Linear_5,2,5,63,98,3594606128
72,14,19,Jits_Linear_5,3,5,80,127,3594617208
72,14,19,Jits_Linear_5,0,1,48,41,3595291952
72,14,19,Jits_Linear_5,1,5,56,103,3595306296
72,14,19,Jits_Linear_5,2,5,63,98,3595309436
72,14,19,Jits_Linear_5,3,5,80,127,3595325928
72,14,19,Jits_Linear_5,0,1,48,40,3596032668
72,14,19,Jits_Linear_5,1,5,63,98,3596076384
72,14,19,Jits_Linear_5,2,5,56,103,3596106012
72,14,19,Jits_Linear_5,3,5,80,127,3596136120
72,14,19,Jits_Linear_5,0,1,48,37,3596717148
72,14,19,Jits_Linear_5,1,5,80,127,3596765572
72,14,19,Jits_Linear_5,2,5,56,103,3596855620
72,14,19,Jits_Linear_5,3,5,63,98,3596858760
72,14,19,Jits_Linear_5,0,1,48,34,3597429248
72,14,19,Jits_Linear_5,1,5,56,103,3597496036
72,14,19,Jits_Linear_5,2,5,80,127,3597498948
72,14,19,Jits_Linear_5,3,5,63,98,3597575740
72,14,19,Jits_Linear_5,0,1,48,39,3598141620
72,14,19,Jits_Linear_5,1,5,80,127,3598225744
72,14,19,Jits_Linear_5,2,5,63,98,3598286124
72,14,19,Jits_Linear_5,3,5,56,103,3598316096
72,14,19,Jits_Linear_5,0,1,48,34,3598838976
72,14,19,Jits_Linear_5,1,5,63,98,3598956124
72,14,19,Jits_Linear_5,2,5,80,127,3598966096
72,14,19,Jits_Linear_5,3,5,56,103,3599035852
72,14,19,Jits_Linear_5,0,1,48,34,3599588844
72,14,19,Jits_Linear_5,1,5,56,103,3599705324
72,14,19,Jits_Linear_5,2,5,80,127,3599736196
72,14,19,Jits_Linear_5,3,5,63,98,3599786472
72,14,19,Jits_Linear_5,0,1,48,41,3600307256
72,14,19,Jits_Linear_5,1,5,63,98,3600485836
72,14,19,Jits_Linear_5,2,5,56,103,3600515440
72,14,19,Jits_Linear_5,3,5,80,127,3600518356
72,14,19,Jits_Linear_5,0,1,48,32,3601094584
72,14,19,Jits_Linear_5,1,5,63,98,3601236376
72,14,19,Jits_Linear_5,2,5,80,127,3601256088
72,14,19,Jits_Linear_5,3,5,56,103,3601266284
72,14,19,Jits_Linear_5,0,1,48,34,3601852696
72,14,19,Jits_Linear_5,1,5,56,103,3601986080
72,14,19,Jits_Linear_5,2,5,63,98,3601988996
72,14,19,Jits_Linear_5,3,5,80,127,3602006316
72,14,19,Jits_Linear_5,0,1,48,29,3602599996
72,14,19,Jits_Linear_5,1,5,56,103,3602686340
72,14,19,Jits_Linear_5,2,5,63,98,3602695548
72,14,19,Jits_Linear_5,3,5,80,127,3602726120
72,14,19,Jits_Linear_5,0,1,48,38,3603346124
72,14,19,Jits_Linear_5,1,5,63,98,3603456352
72,14,19,Jits_Linear_5,2,5,80,127,3603475988
72,14,19,Jits_Linear_5,3,5,56,103,3603516076
72,14,19,Jits_Linear_5,0,1,48,28,3604132480
72,14,19,Jits_Linear_5,1,5,56,103,3604235824
72,14,19,Jits_Linear_5,2,5,63,98,3604275688
72,14,19,Jits_Linear_5,3,5,80,127,3604279052
72,14,19,Jits_Linear_5,0,1,48,35,3604908212
72,14,19,Jits_Linear_5,1,5,80,127,3604925920
72,14,19,Jits_Linear_5,2,5,56,103,3604965860
72,14,19,Jits_Linear_5,3,5,63,98,3605016120
72,14,19,Jits_Linear_5,0,1,48,31,3605612216
72,14,19,Jits_Linear_5,1,5,56,103,3605735792
72,14,19,Jits_Linear_5,2,5,80,127,3605745988
72,14,19,Jits_Linear_5,3,5,63,98,3605775884
72,14,19,Jits_Linear_5,0,1,48,37,3606316152
72,14,19,Jits_Linear_5,1,5,56,103,3606436140
72,14,19,Jits_Linear_5,2,5,80,127,3606476080
72,14,19,Jits_Linear_5,3,5,63,98,3606526360
72,14,19,Jits_Linear_5,0,1,48,38,3607057780
72,14,19,Jits_Linear_5,1,5,56,103,3607196128
72,14,19,Jits_Linear_5,2,5,80,127,3607236068
72,14,19,Jits_Linear_5,3,5,63,98,3607286124
72,14,19,Jits_Linear_5,0,1,48,38,3607811240
72,14,19,Jits_Linear_5,1,5,80,127,3607945844
72,14,19,Jits_Linear_5,2,5,63,98,3608025424
72,14,19,Jits_Linear_5,3,5,56,103,3608035840
72,14,19,Jits_Linear_5,0,1,48,32,3608477120
72,14,19,Jits_Linear_5,1,5,80,127,3608755656
72,14,19,Jits_Linear_5,2,5,56,103,3608766152
72,14,19,Jits_Linear_5,3,5,63,98,3608786240
72,14,19,Jits_Linear_5,0,1,48,34,3609275628
72,14,19,Jits_Linear_5,1,5,63,98,3609485680
72,14,19,Jits_Linear_5,2,5,56,103,3609556180
72,14,19,Jits_Linear_5,3,5,80,127,3609559476
72,14,19,Jits_Linear_5,0,1,48,36,3610089024
72,14,19,Jits_Linear_5,1,5,80,127,3610245584
72,14,19,Jits_Linear_5,2,5,63,98,3610295864
72,14,19,Jits_Linear_5,3,5,56,103,3610335880
72,14,19,Jits_Linear_5,0,1,48,35,3610943484
72,14,19,Jits_Linear_5,1,5,63,98,3611055324
72,14,19,Jits_Linear_5,2,5,56,103,3611096612
72,14,19,Jits_Linear_5,3,5,80,127,3611105764
72,14,19,Jits_Linear_5,0,1,48,41,3611660924
72,14,19,Jits_Linear_5,1,5,63,98,3611816216
72,14,19,Jits_Linear_5,2,5,56,103,3611835928
72,14,19,Jits_Linear_5,3,5,80,127,3611856236
72,14,19,Jits_Linear_5,0,1,48,34,3612451036
72,14,19,Jits_Linear_5,1,5,80,127,3612547132
72,14,19,Jits_Linear_5,2,5,56,103,3612555828
72,14,19,Jits_Linear_5,3,5,63,98,3612576064
72,14,19,Jits_Linear_5,0,1,48,34,3613212736
72,14,19,Jits_Linear_5,1,5,63,98,3613346300
72,14,19,Jits_Linear_5,2,5,56,103,3613386240
72,14,19,Jits_Linear_5,3,5,80,127,3613415988
72,14,19,Jits_Linear_5,0,1,48,41,3613948308
72,14,19,Jits_Linear_5,1,5,56,103,3614125544
72,14,19,Jits_Linear_5,2,5,63,98,3614156120
72,14,19,Jits_Linear_5,3,5,80,127,3614185944
72,14,19,Jits_Linear_5,0,1,48,28,3614797032
72,14,19,Jits_Linear_5,1,5,80,127,3614876104
72,14,19,Jits_Linear_5,2,5,56,103,3614945844
72,14,19,Jits_Linear_5,3,5,63,98,3614948764
72,14,19,Jits_Linear_5,0,1,48,34,3615500032
72,14,19,Jits_Linear_5,1,1,48,17,3615581628
72,14,19,Jits_Linear_5,2,5,56,103,3615665952
72,14,19,Jits_Linear_5,3,5,63,98,3615715992
72,14,19,Jits_Linear_5,4,5,80,127,3615746492
72,14,19,Jits_Linear_5,0,1,48,25,3616292356
72,14,19,Jits_Linear_5,1,5,63,98,3616426368
72,14,19,Jits_Linear_5,2,5,80,127,3616429808
72,14,19,Jits_Linear_5,3,5,56,103,3616485640
72,14,19,Jits_Linear_5,0,1,48,24,3617024844
72,14,19,Jits_Linear_5,1,5,56,103,3617236464
72,14,19,Jits_Linear_5,2,5,80,127,3617245540
72,14,19,Jits_Linear_5,3,5,63,98,3617295892
72,14,19,Jits_Linear_5,0,1,48,33,3617850532
72,14,19,Jits_Linear_5,1,5,63,98,3617996076
72,14,19,Jits_Linear_5,2,5,56,103,3618006348
72,14,19,Jits_Linear_5,3,5,80,127,3618036024
72,14,19,Jits_Linear_5,0,1,48,37,3618675204
72,14,19,Jits_Linear_5,1,5,63,98,3618816296
72,14,19,Jits_Linear_5,2,5,80,127,3618819732
72,14,19,Jits_Linear_5,3,5,56,103,3618845972
72,14,19,Jits_Linear_5,0,1,48,32,3619470080
72,14,19,Jits_Linear_5,1,5,63,98,3619626320
72,14,19,Jits_Linear_5,2,5,56,103,3619645804
72,14,19,Jits_Linear_5,3,5,80,127,3619648948
72,14,19,Jits_Linear_5,0,1,48,36,3620290576
72,14,19,Jits_Linear_5,1,5,63,98,3620375948
72,14,19,Jits_Linear_5,2,5,56,103,3620445644
72,14,19,Jits_Linear_5,3,5,80,127,3620466028
72,14,19,Jits_Linear_5,0,1,48,28,3621074400
72,14,19,Jits_Linear_5,1,5,56,103,3621156164
72,14,19,Jits_Linear_5,2,5,63,98,3621166044
72,14,19,Jits_Linear_5,3,5,80,127,3621255680
72,14,19,Jits_Linear_5,0,1,48,28,3621813484
72,14,19,Jits_Linear_5,1,5,56,103,3621966136
72,14,19,Jits_Linear_5,2,5,80,127,3622006000
72,14,19,Jits_Linear_5,3,5,63,98,3622016496
72,14,19,Jits_Linear_5,0,1,48,32,3622611808
72,14,19,Jits_Linear_5,1,5,56,103,3622786356
72,14,19,Jits_Linear_5,2,5,63,98,3622816108
72,14,19,Jits_Linear_5,3,5,80,127,3622845788
72,14,19,Jits_Linear_5,0,1,48,36,3623400948
72,14,19,Jits_Linear_5,1,5,80,127,3623546196
72,14,19,Jits_Linear_5,2,5,63,98,3623586212
72,14,19,Jits_Linear_5,3,5,56,103,3623605696
72,14,19,Jits_Linear_5,0,1,48,27,3624265624
72,14,19,Jits_Linear_5,1,5,56,103,3624385968
72,14,19,Jits_Linear_5,2,5,80,127,3624406500
72,14,19,Jits_Linear_5,3,5,63,98,3624425764
72,14,19,Jits_Linear_5,0,1,48,34,3625098056
72,14,19,Jits_Linear_5,1,5,63,98,3625156004
72,14,19,Jits_Linear_5,2,5,56,103,3625166200
72,14,19,Jits_Linear_5,3,5,80,127,3625225752
72,14,19,Jits_Linear_5,0,1,48,31,3625853908
72,14,19,Jits_Linear_5,1,5,56,103,3625965796
72,14,19,Jits_Linear_5,2,5,63,98,3626035708
72,14,19,Jits_Linear_5,3,5,80,127,3626056040
72,14,19,Jits_Linear_5,0,1,48,35,3626733476
72,14,19,Jits_Linear_5,1,5,56,103,3626775776
72,14,19,Jits_Linear_5,2,5,63,98,3626805752
72,14,19,Jits_Linear_5,3,5,80,127,3626845624
72,14,19,Jits_Linear_5,0,5,63,98,3627575552
72,14,19,Jits_Linear_5,1,1,48,45,3627599148
72,14,19,Jits_Linear_5,2,5,56,103,3627625700
72,14,19,Jits_Linear_5,3,5,80,127,3627636340
72,14,19,Jits_Linear_5,0,1,48,44,3628352420
72,14,19,Jits_Linear_5,1,5,56,103,3628425760
72,14,19,Jits_Linear_5,2,5,63,98,3628475724
72,14,19,Jits_Linear_5,3,5,80,127,3628485996
72,14,19,Jits_Linear_5,0,1,48,45,3629160616
72,14,19,Jits_Linear_5,1,5,56,103,3629205752
72,14,19,Jits_Linear_5,2,5,63,98,3629216172
72,14,19,Jits_Linear_5,3,5,80,127,3629296028
72,14,19,Jits_Linear_5,0,9999,9999,9999,3520413772
72,14,19,Jits_Linear_5,1,9999,9999,9999,3520894076
72,14,19,Jits_Linear_5,2,9999,9999,9999,3521373256
72,14,19,Jits_Linear_5,3,9999,9999,9999,3521853560
72,14,19,Jits_Linear_5,4,9999,9999,9999,3522333768
72,14,19,Jits_Linear_5,5,9999,9999,9999,3522823292
72,14,19,Jits_Linear_5,6,9999,9999,9999,3523313760
72,14,19,Jits_Linear_5,7,9999,9999,9999,3523803204
72,14,19,Jits_Linear_5,8,9999,9999,9999,3524293688
72,14,19,Jits_Linear_5,9,9999,9999,9999,3524783204
72,14,19,Jits_Linear_5,10,9999,9999,9999,3525283948
72,14,19,Jits_Linear_5,11,9999,9999,9999,3525783656
72,14,19,Jits_Linear_5,12,9999,9999,9999,3526283340
72,14,19,Jits_Linear_5,13,9999,9999,9999,3526784072
72,14,19,Jits_Linear_5,14,9999,9999,9999,3527294020
72,14,19,Jits_Linear_5,15,9999,9999,9999,3527803972
72,14,19,Jits_Linear_5,16,9999,9999,9999,3528313924
72,14,19,Jits_Linear_5,17,9999,9999,9999,3528823876
72,14,19,Jits_Linear_5,18,9999,9999,9999,3529333824
72,14,19,Jits_Linear_5,19,9999,9999,9999,3529843780
72,14,19,Jits_Linear_5,20,9999,9999,9999,3530363996
72,14,19,Jits_Linear_5,21,9999,9999,9999,3530883160
72,14,19,Jits_Linear_5,22,9999,9999,9999,3531403376
72,14,19,Jits_Linear_5,23,9999,9999,9999,3531923516
72,14,19,Jits_Linear_5,24,9999,9999,9999,3532443732
72,14,19,Jits_Linear_5,25,9999,9999,9999,3532973156
72,14,19,Jits_Linear_5,26,9999,9999,9999,3533503568
72,14,19,Jits_Linear_5,27,9999,9999,9999,3534034024
72,14,19,Jits_Linear_5,28,9999,9999,9999,3534563384
72,14,19,Jits_Linear_5,29,9999,9999,9999,3535093876
72,14,19,Jits_Linear_5,30,9999,9999,9999,3535633512
72,14,19,Jits_Linear_5,31,9999,9999,9999,3536173152
72,14,19,Jits_Linear_5,32,9999,9999,9999,3536713844
72,14,19,Jits_Linear_5,33,9999,9999,9999,3537253460
72,14,19,Jits_Linear_5,34,9999,9999,9999,3537793084
72,14,19,Jits_Linear_5,35,9999,9999,9999,3538344020
72,14,19,Jits_Linear_5,36,9999,9999,9999,3538893896
72,14,19,Jits_Linear_5,37,9999,9999,9999,3539443784
72,14,19,Jits_Linear_5,38,9999,9999,9999,3539993668
72,14,19,Jits_Linear_5,39,9999,9999,9999,3540543556
72,14,19,Jits_Linear_5,40,9999,9999,9999,3541103724
72,14,19,Jits_Linear_5,41,9999,9999,9999,3541663868
72,14,19,Jits_Linear_5,42,9999,9999,9999,3542223940
72,14,19,Jits_Linear_5,43,9999,9999,9999,3542784084
72,14,19,Jits_Linear_5,44,9999,9999,9999,3543353448
72,14,19,Jits_Linear_5,45,9999,9999,9999,3543923808
72,14,19,Jits_Linear_5,46,9999,9999,9999,3544493172
72,14,19,Jits_Linear_5,47,9999,9999,9999,3545063520
72,14,19,Jits_Linear_5,48,9999,9999,9999,3545633860
72,14,19,Jits_Linear_5,49,9999,9999,9999,3546203256
72,14,19,Jits_Linear_5,50,9999,9999,9999,3546783848
72,14,19,Jits_Linear_5,51,9999,9999,9999,3547363404
72,14,19,Jits_Linear_5,52,9999,9999,9999,3547944004
72,14,19,Jits_Linear_5,53,9999,9999,9999,3548523588
72,14,19,Jits_Linear_5,54,9999,9999,9999,3549103216
72,14,19,Jits_Linear_5,55,9999,9999,9999,3549694008
72,14,19,Jits_Linear_5,56,9999,9999,9999,3550283848
72,14,19,Jits_Linear_5,57,9999,9999,9999,3550873660
72,14,19,Jits_Linear_5,58,9999,9999,9999,3551463480
72,14,19,Jits_Linear_5,59,9999,9999,9999,3552053360
72,14,19,Jits_Linear_5,60,9999,9999,9999,3552653396
72,14,19,Jits_Linear_5,61,9999,9999,9999,3553253472
72,14,19,Jits_Linear_5,62,9999,9999,9999,3553853556
72,14,19,Jits_Linear_5,63,9999,9999,9999,3554453580
72,14,19,Jits_Linear_5,64,9999,9999,9999,3555053664
72,14,19,Jits_Linear_5,65,9999,9999,9999,3555663952
72,14,19,Jits_Linear_5,66,9999,9999,9999,3556273252
72,14,19,Jits_Linear_5,67,9999,9999,9999,3556883516
72,14,19,Jits_Linear_5,68,9999,9999,9999,3557493884
72,14,19,Jits_Linear_5,69,9999,9999,9999,3558103112
72,14,19,Jits_Linear_5,70,9999,9999,9999,3558723708
72,14,19,Jits_Linear_5,71,9999,9999,9999,3559343216
72,14,19,Jits_Linear_5,72,9999,9999,9999,3559963752
72,14,19,Jits_Linear_5,73,9999,9999,9999,3560583264
72,14,19,Jits_Linear_5,74,9999,9999,9999,3561203800
72,14,19,Jits_Linear_5,75,9999,9999,9999,3561833576
72,14,19,Jits_Linear_5,76,9999,9999,9999,3562463332
72,14,19,Jits_Linear_5,77,9999,9999,9999,3563094088
72,14,19,Jits_Linear_5,78,9999,9999,9999,3563734104
72,14,19,Jits_Linear_5,79,9999,9999,9999,3564374072
72,14,19,Jits_Linear_5,80,9999,9999,9999,3565014088
72,14,19,Jits_Linear_5,81,9999,9999,9999,3565654128
72,14,19,Jits_Linear_5,82,9999,9999,9999,3566294144
72,14,19,Jits_Linear_5,83,9999,9999,9999,3566934108
72,14,19,Jits_Linear_5,84,9999,9999,9999,3567574140
72,14,19,Jits_Linear_5,85,9999,9999,9999,3568233580
72,14,19,Jits_Linear_5,86,9999,9999,9999,3568883784
72,14,19,Jits_Linear_5,87,9999,9999,9999,3569534012
72,14,19,Jits_Linear_5,88,9999,9999,9999,3570183240
72,14,19,Jits_Linear_5,89,9999,9999,9999,3570833468
72,14,19,Jits_Linear_5,90,9999,9999,9999,3571494012
72,14,19,Jits_Linear_5,91,9999,9999,9999,3572153456
72,14,19,Jits_Linear_5,92,9999,9999,9999,3572813936
72,14,19,Jits_Linear_5,93,9999,9999,9999,3573473356
72,14,19,Jits_Linear_5,94,9999,9999,9999,3574133844
72,14,19,Jits_Linear_5,95,9999,9999,9999,3574803528
72,14,19,Jits_Linear_5,96,9999,9999,9999,3575473236
72,14,19,Jits_Linear_5,97,9999,9999,9999,3576143988
72,14,19,Jits_Linear_5,98,9999,9999,9999,3576813676
72,14,19,Jits_Linear_5,99,9999,9999,9999,3577483380
72,14,19,Jits_Linear_5,100,9999,9999,9999,3578163328
72,14,19,Jits_Linear_5,101,9999,9999,9999,3578843228
72,14,19,Jits_Linear_5,102,9999,9999,9999,3579523188
72,14,19,Jits_Linear_5,103,9999,9999,9999,3580203068
72,14,19,Jits_Linear_5,104,9999,9999,9999,3580884084
72,14,19,Jits_Linear_5,105,9999,9999,9999,3581573196
72,14,19,Jits_Linear_5,106,9999,9999,9999,3582263404
72,14,19,Jits_Linear_5,107,9999,9999,9999,3582953568
72,14,19,Jits_Linear_5,108,9999,9999,9999,3583643724
72,14,19,Jits_Linear_5,109,9999,9999,9999,3584333888
72,14,19,Jits_Linear_5,110,9999,9999,9999,3585033320
72,14,19,Jits_Linear_5,111,9999,9999,9999,3585733740
72,14,19,Jits_Linear_5,112,9999,9999,9999,3586433116
72,14,19,Jits_Linear_5,113,9999,9999,9999,3587133520
72,14,19,Jits_Linear_5,114,9999,9999,9999,3587833936
72,14,19,Jits_Linear_5,115,9999,9999,9999,3588543572
72,14,19,Jits_Linear_5,116,9999,9999,9999,3589253208
72,14,19,Jits_Linear_5,117,9999,9999,9999,3589963900
72,14,19,Jits_Linear_5,118,9999,9999,9999,3590673512
72,14,19,Jits_Linear_5,119,9999,9999,9999,3591383148
72,14,19,Jits_Linear_5,120,9999,9999,9999,3592104020
72,14,19,Jits_Linear_5,121,9999,9999,9999,3592823928
72,14,19,Jits_Linear_5,122,9999,9999,9999,3593543756
72,14,19,Jits_Linear_5,123,9999,9999,9999,3594263636
72,14,19,Jits_Linear_5,124,9999,9999,9999,3594983536
72,14,19,Jits_Linear_5,125,9999,9999,9999,3595713616
72,14,19,Jits_Linear_5,126,9999,9999,9999,3596443712
72,14,19,Jits_Linear_5,127,9999,9999,9999,3597173872
72,14,19,Jits_Linear_5,128,9999,9999,9999,3597903956
72,14,19,Jits_Linear_5,129,9999,9999,9999,3598634100
72,14,19,Jits_Linear_5,130,9999,9999,9999,3599373412
72,14,19,Jits_Linear_5,131,9999,9999,9999,3600113768
72,14,19,Jits_Linear_5,132,9999,9999,9999,3600854120
72,14,19,Jits_Linear_5,133,9999,9999,9999,3601603696
72,14,19,Jits_Linear_5,134,9999,9999,9999,3602344024
72,14,19,Jits_Linear_5,135,9999,9999,9999,3603093596
72,14,19,Jits_Linear_5,136,9999,9999,9999,3603843176
72,14,19,Jits_Linear_5,137,9999,9999,9999,3604593720
72,14,19,Jits_Linear_5,138,9999,9999,9999,3605343296
72,14,19,Jits_Linear_5,139,9999,9999,9999,3606093916
72,14,19,Jits_Linear_5,140,9999,9999,9999,3606853752
72,14,19,Jits_Linear_5,141,9999,9999,9999,3607613568
72,14,19,Jits_Linear_5,142,9999,9999,9999,3608373324
72,14,19,Jits_Linear_5,143,9999,9999,9999,3609133164
72,14,19,Jits_Linear_5,144,9999,9999,9999,3609893968
72,14,19,Jits_Linear_5,145,9999,9999,9999,3610663996
72,14,19,Jits_Linear_5,146,9999,9999,9999,3611434104
72,14,19,Jits_Linear_5,147,9999,9999,9999,3612203084
72,14,19,Jits_Linear_5,148,9999,9999,9999,3612973180
72,14,19,Jits_Linear_5,149,9999,9999,9999,3613743208
72,14,19,Jits_Linear_5,150,9999,9999,9999,3614523504
72,14,19,Jits_Linear_5,151,9999,9999,9999,3615303804
72,14,19,Jits_Linear_5,152,9999,9999,9999,3616084076
72,14,19,Jits_Linear_5,153,9999,9999,9999,3616863304
72,14,19,Jits_Linear_5,154,9999,9999,9999,3617643592
72,14,19,Jits_Linear_5,155,9999,9999,9999,3618433092
72,14,19,Jits_Linear_5,156,9999,9999,9999,3619223632
72,14,19,Jits_Linear_5,157,9999,9999,9999,3620013180
72,14,19,Jits_Linear_5,158,9999,9999,9999,3620803664
72,14,19,Jits_Linear_5,159,9999,9999,9999,3621593168
72,14,19,Jits_Linear_5,160,9999,9999,9999,3622393908
72,14,19,Jits_Linear_5,161,9999,9999,9999,3623193680
72,14,19,Jits_Linear_5,162,9999,9999,9999,3623993448
72,14,19,Jits_Linear_5,163,9999,9999,9999,3624793164
72,14,19,Jits_Linear_5,164,9999,9999,9999,3625593976
72,14,19,Jits_Linear_5,165,9999,9999,9999,3626403940
72,14,19,Jits_Linear_5,166,9999,9999,9999,3627213896
72,14,19,Jits_Linear_5,167,9999,9999,9999,3628023928
72,14,19,Jits_Linear_5,168,9999,9999,9999,3628833892
72,14,19,Jits_Linear_5,169,9999,9999,9999,3629643876
72,15,18,Jits_Linear_8,0,5,56,103,3640323480
72,15,18,Jits_Linear_8,1,5,63,98,3640326656
72,15,18,Jits_Linear_8,2,5,80,127,3640329700
72,15,18,Jits_Linear_8,0,5,56,103,3641143560
72,15,18,Jits_Linear_8,1,5,63,98,3641146812
72,15,18,Jits_Linear_8,2,5,80,127,3641149932
72,15,18,Jits_Linear_8,3,1,48,30,3641467300
72,15,18,Jits_Linear_8,0,5,80,127,3641903604
72,15,18,Jits_Linear_8,1,5,63,98,3641993540
72,15,18,Jits_Linear_8,2,5,56,103,3642003812
72,15,18,Jits_Linear_8,3,1,48,36,3642241744
72,15,18,Jits_Linear_8,0,5,56,103,3642744452
72,15,18,Jits_Linear_8,1,5,63,98,3642754280
72,15,18,Jits_Linear_8,2,5,80,127,3642843512
72,15,18,Jits_Linear_8,3,1,48,33,3642932716
72,15,18,Jits_Linear_8,0,5,63,98,3643533656
72,15,18,Jits_Linear_8,1,5,80,127,3643564380
72,15,18,Jits_Linear_8,2,1,48,37,3643573348
72,15,18,Jits_Linear_8,3,5,56,103,3643594196
72,15,18,Jits_Linear_8,0,1,48,40,3644267956
72,15,18,Jits_Linear_8,1,5,56,103,3644353776
72,15,18,Jits_Linear_8,2,5,80,127,3644454236
72,15,18,Jits_Linear_8,3,5,63,98,3644504392
72,15,18,Jits_Linear_8,0,1,48,31,3645048380
72,15,18,Jits_Linear_8,1,5,56,103,3645163856
72,15,18,Jits_Linear_8,2,5,80,127,3645214208
72,15,18,Jits_Linear_8,3,5,63,98,3645253876
72,15,18,Jits_Linear_8,0,1,48,33,3645909864
72,15,18,Jits_Linear_8,1,5,80,127,3646003484
72,15,18,Jits_Linear_8,2,5,63,98,3646034440
72,15,18,Jits_Linear_8,3,5,56,103,3646104048
72,15,18,Jits_Linear_8,0,1,48,30,3646748140
72,15,18,Jits_Linear_8,1,5,63,98,3646844308
72,15,18,Jits_Linear_8,2,5,56,103,3646873908
72,15,18,Jits_Linear_8,3,5,80,127,3646934376
72,15,18,Jits_Linear_8,0,1,48,28,3647526696
72,15,18,Jits_Linear_8,1,5,56,103,3647593956
72,15,18,Jits_Linear_8,2,5,80,127,3647596872
72,15,18,Jits_Linear_8,3,5,63,98,3647713744
72,15,18,Jits_Linear_8,0,1,48,27,3648389088
72,15,18,Jits_Linear_8,1,5,56,103,3648473492
72,15,18,Jits_Linear_8,2,5,80,127,3648514540
72,15,18,Jits_Linear_8,3,5,63,98,3648523688
72,15,18,Jits_Linear_8,0,1,48,26,3649215536
72,15,18,Jits_Linear_8,1,5,56,103,3649234364
72,15,18,Jits_Linear_8,2,5,80,127,3649253628
72,15,18,Jits_Linear_8,3,5,63,98,3649333560
72,15,18,Jits_Linear_8,0,1,48,28,3650001864
72,15,18,Jits_Linear_8,1,5,80,127,3650023784
72,15,18,Jits_Linear_8,2,5,56,103,3650124340
72,15,18,Jits_Linear_8,3,5,63,98,3650134392
72,15,18,Jits_Linear_8,0,5,63,98,3650793800
72,15,18,Jits_Linear_8,1,1,48,31,3650820888
72,15,18,Jits_Linear_8,2,5,80,127,3650854188
72,15,18,Jits_Linear_8,3,5,56,103,3650863488
72,15,18,Jits_Linear_8,0,5,56,103,3651593704
72,15,18,Jits_Linear_8,1,1,48,24,3651608428
72,15,18,Jits_Linear_8,2,5,63,98,3651664224
72,15,18,Jits_Linear_8,3,5,80,127,3651667516
72,15,18,Jits_Linear_8,0,1,48,29,3652357684
72,15,18,Jits_Linear_8,1,5,63,98,3652424272
72,15,18,Jits_Linear_8,2,5,56,103,3652474384
72,15,18,Jits_Linear_8,3,5,80,127,3652477376
72,15,18,Jits_Linear_8,0,1,48,33,3653137948
72,15,18,Jits_Linear_8,1,5,56,103,3653173640
72,15,18,Jits_Linear_8,2,5,80,127,3653176708
72,15,18,Jits_Linear_8,3,5,63,98,3653263784
72,15,18,Jits_Linear_8,0,1,48,28,3653939708
72,15,18,Jits_Linear_8,1,5,63,98,3654004348
72,15,18,Jits_Linear_8,2,5,56,103,3654094100
72,15,18,Jits_Linear_8,3,5,80,127,3654124072
72,15,18,Jits_Linear_8,0,1,48,32,3654727136
72,15,18,Jits_Linear_8,1,5,56,103,3654784332
72,15,18,Jits_Linear_8,2,5,63,98,3654883672
72,15,18,Jits_Linear_8,3,5,80,127,3654914396
72,15,18,Jits_Linear_8,0,1,48,33,3655531232
72,15,18,Jits_Linear_8,1,5,63,98,3655594284
72,15,18,Jits_Linear_8,2,5,56,103,3655603508
72,15,18,Jits_Linear_8,3,5,80,127,3655693624
72,15,18,Jits_Linear_8,0,1,48,36,3656291060
72,15,18,Jits_Linear_8,1,5,63,98,3656394176
72,15,18,Jits_Linear_8,2,5,56,103,3656474124
72,15,18,Jits_Linear_8,3,5,80,127,3656477116
72,15,18,Jits_Linear_8,0,1,48,36,3657089764
72,15,18,Jits_Linear_8,1,5,80,127,3657133484
72,15,18,Jits_Linear_8,2,5,63,98,3657153944
72,15,18,Jits_Linear_8,3,5,56,103,3657214316
72,15,18,Jits_Linear_8,0,1,48,31,3657852668
72,15,18,Jits_Linear_8,1,5,56,103,3657953600
72,15,18,Jits_Linear_8,2,5,63,98,3657974056
72,15,18,Jits_Linear_8,3,5,80,127,3657977420
72,15,18,Jits_Linear_8,0,1,48,34,3658627980
72,15,18,Jits_Linear_8,1,5,63,98,3658673492
72,15,18,Jits_Linear_8,2,5,80,127,3658754396
72,15,18,Jits_Linear_8,3,5,56,103,3658763692
72,15,18,Jits_Linear_8,0,1,48,32,3659462664
72,15,18,Jits_Linear_8,1,5,63,98,3659474144
72,15,18,Jits_Linear_8,2,5,56,103,3659493708
72,15,18,Jits_Linear_8,3,5,80,127,3659544056
72,15,18,Jits_Linear_8,0,1,48,34,3660165236
72,15,18,Jits_Linear_8,1,5,80,127,3660253520
72,15,18,Jits_Linear_8,2,5,63,98,3660293524
72,15,18,Jits_Linear_8,3,5,56,103,3660314132
72,15,18,Jits_Linear_8,0,1,48,38,3661060660
72,15,18,Jits_Linear_8,1,5,56,103,3661063544
72,15,18,Jits_Linear_8,2,5,63,98,3661073664
72,15,18,Jits_Linear_8,3,5,80,127,3661094272
72,15,18,Jits_Linear_8,0,5,56,103,3661764180
72,15,18,Jits_Linear_8,1,5,63,98,3661854092
72,15,18,Jits_Linear_8,2,5,80,127,3661913312
72,15,18,Jits_Linear_8,3,1,48,38,3661915252
72,15,18,Jits_Linear_8,0,5,80,127,3662563804
72,15,18,Jits_Linear_8,1,5,56,103,3662574300
72,15,18,Jits_Linear_8,2,5,63,98,3662643608
72,15,18,Jits_Linear_8,3,1,48,43,3662662940
72,15,18,Jits_Linear_8,0,1,48,37,3663341280
72,15,18,Jits_Linear_8,1,5,63,98,3663363348
72,15,18,Jits_Linear_8,2,5,80,127,3663453496
72,15,18,Jits_Linear_8,3,5,56,103,3663463764
72,15,18,Jits_Linear_8,0,5,63,98,3664063996
72,15,18,Jits_Linear_8,1,5,80,127,3664114124
72,15,18,Jits_Linear_8,2,1,48,35,3664116796
72,15,18,Jits_Linear_8,3,5,56,103,3664173388
72,15,18,Jits_Linear_8,0,1,48,40,3664829772
72,15,18,Jits_Linear_8,1,5,56,103,3664854528
72,15,18,Jits_Linear_8,2,5,80,127,3664903536
72,15,18,Jits_Linear_8,3,5,63,98,3664923904
72,15,18,Jits_Linear_8,0,1,48,40,3665560440
72,15,18,Jits_Linear_8,1,5,56,103,3665583484
72,15,18,Jits_Linear_8,2,5,80,127,3665644172
72,15,18,Jits_Linear_8,3,5,63,98,3665713540
72,15,18,Jits_Linear_8,0,1,48,41,3666321236
72,15,18,Jits_Linear_8,1,5,56,103,3666344276
72,15,18,Jits_Linear_8,2,5,80,127,3666373952
72,15,18,Jits_Linear_8,3,5,63,98,3666403628
72,15,18,Jits_Linear_8,0,1,48,29,3667054772
72,15,18,Jits_Linear_8,1,5,56,103,3667144104
72,15,18,Jits_Linear_8,2,5,80,127,3667163724
72,15,18,Jits_Linear_8,3,5,63,98,3667223892
72,15,18,Jits_Linear_8,0,1,48,32,3667770128
72,15,18,Jits_Linear_8,1,5,80,127,3667983856
72,15,18,Jits_Linear_8,2,5,56,103,3667994052
72,15,18,Jits_Linear_8,3,5,63,98,3668004400
72,15,18,Jits_Linear_8,0,1,48,38,3668649564
72,15,18,Jits_Linear_8,1,5,56,103,3668694404
72,15,18,Jits_Linear_8,2,5,80,127,3668734344
72,15,18,Jits_Linear_8,3,5,63,98,3668764228
72,15,18,Jits_Linear_8,0,1,48,32,3669391260
72,15,18,Jits_Linear_8,1,5,56,103,3669414300
72,15,18,Jits_Linear_8,2,5,63,98,3669444052
72,15,18,Jits_Linear_8,3,5,80,127,3669484048
72,15,18,Jits_Linear_8,0,5,80,127,3670113672
72,15,18,Jits_Linear_8,1,1,48,31,3670114640
72,15,18,Jits_Linear_8,2,5,63,98,3670164092
72,15,18,Jits_Linear_8,3,5,56,103,3670184328
72,15,18,Jits_Linear_8,0,1,48,23,3670829532
72,15,18,Jits_Linear_8,1,5,56,103,3670894100
72,15,18,Jits_Linear_8,2,5,80,127,3670963472
72,15,18,Jits_Linear_8,3,5,63,98,3671024160
72,15,18,Jits_Linear_8,0,5,80,127,3671634380
72,15,18,Jits_Linear_8,1,1,48,32,3671657952
72,15,18,Jits_Linear_8,2,5,63,98,3671724364
72,15,18,Jits_Linear_8,3,5,56,103,3671743848
72,15,18,Jits_Linear_8,0,5,63,98,3672394224
72,15,18,Jits_Linear_8,1,1,48,29,3672410524
72,15,18,Jits_Linear_8,2,5,56,103,3672413632
72,15,18,Jits_Linear_8,3,5,80,127,3672453568
72,15,18,Jits_Linear_8,0,5,80,127,3673093484
72,15,18,Jits_Linear_8,1,5,63,98,3673113944
72,15,18,Jits_Linear_8,2,1,48,32,3673115136
72,15,18,Jits_Linear_8,3,5,56,103,3673193980
72,15,18,Jits_Linear_8,0,5,63,98,3673823800
72,15,18,Jits_Linear_8,1,1,48,31,3673836436
72,15,18,Jits_Linear_8,2,5,56,103,3673934244
72,15,18,Jits_Linear_8,3,5,80,127,3673937384
72,15,18,Jits_Linear_8,0,5,63,98,3674584440
72,15,18,Jits_Linear_8,1,5,56,103,3674594040
72,15,18,Jits_Linear_8,2,5,80,127,3674596876
72,15,18,Jits_Linear_8,3,1,48,30,3674604124
72,15,18,Jits_Linear_8,0,5,56,103,3675304164
72,15,18,Jits_Linear_8,1,1,48,31,3675323020
72,15,18,Jits_Linear_8,2,5,80,127,3675424244
72,15,18,Jits_Linear_8,3,5,63,98,3675464060
72,15,18,Jits_Linear_8,0,1,48,34,3676026804
72,15,18,Jits_Linear_8,1,5,56,103,3676053956
72,15,18,Jits_Linear_8,2,5,80,127,3676133892
72,15,18,Jits_Linear_8,3,5,63,98,3676154200
72,15,18,Jits_Linear_8,0,5,56,103,3676783968
72,15,18,Jits_Linear_8,1,1,48,31,3676802380
72,15,18,Jits_Linear_8,2,5,63,98,3676893652
72,15,18,Jits_Linear_8,3,5,80,127,3676896868
72,15,18,Jits_Linear_8,0,5,56,103,3677544024
72,15,18,Jits_Linear_8,1,1,48,33,3677566404
72,15,18,Jits_Linear_8,2,5,80,127,3677573472
72,15,18,Jits_Linear_8,3,5,63,98,3677593932
72,15,18,Jits_Linear_8,0,1,48,25,3678228056
72,15,18,Jits_Linear_8,1,5,63,98,3678253340
72,15,18,Jits_Linear_8,2,5,56,103,3678263832
72,15,18,Jits_Linear_8,3,5,80,127,3678274056
72,15,18,Jits_Linear_8,0,5,80,127,3678964164
72,15,18,Jits_Linear_8,1,5,56,103,3679014144
72,15,18,Jits_Linear_8,2,1,48,36,3679037788
72,15,18,Jits_Linear_8,3,5,63,98,3679054100
72,15,18,Jits_Linear_8,0,5,80,127,3679704520
72,15,18,Jits_Linear_8,1,5,63,98,3679724008
72,15,18,Jits_Linear_8,2,1,48,42,3679760832
72,15,18,Jits_Linear_8,3,5,56,103,3679774128
72,15,18,Jits_Linear_8,0,5,80,127,3680433716
72,15,18,Jits_Linear_8,1,1,48,33,3680445756
72,15,18,Jits_Linear_8,2,5,56,103,3680464208
72,15,18,Jits_Linear_8,3,5,63,98,3680533964
72,15,18,Jits_Linear_8,0,1,48,34,3681138668
72,15,18,Jits_Linear_8,1,5,56,103,3681203664
72,15,18,Jits_Linear_8,2,5,80,127,3681213932
72,15,18,Jits_Linear_8,3,5,63,98,3681253708
72,15,18,Jits_Linear_8,0,5,56,103,3681834232
72,15,18,Jits_Linear_8,1,5,63,98,3681854016
72,15,18,Jits_Linear_8,2,5,80,127,3681923724
72,15,18,Jits_Linear_8,3,1,48,38,3681949460
72,15,18,Jits_Linear_8,0,5,63,98,3682573836
72,15,18,Jits_Linear_8,1,5,80,127,3682633960
72,15,18,Jits_Linear_8,2,1,48,40,3682643452
72,15,18,Jits_Linear_8,3,5,56,103,3682653736
72,15,18,Jits_Linear_8,0,5,80,127,3683284288
72,15,18,Jits_Linear_8,1,5,56,103,3683314040
72,15,18,Jits_Linear_8,2,1,48,37,3683334768
72,15,18,Jits_Linear_8,3,5,63,98,3683343708
72,15,18,Jits_Linear_8,0,5,56,103,3683994004
72,15,18,Jits_Linear_8,1,1,48,38,3684011964
72,15,18,Jits_Linear_8,2,5,63,98,3684054392
72,15,18,Jits_Linear_8,3,5,80,127,3684113940
72,15,18,Jits_Linear_8,0,5,80,127,3684724024
72,15,18,Jits_Linear_8,1,1,48,38,3684740328
72,15,18,Jits_Linear_8,2,5,56,103,3684743952
72,15,18,Jits_Linear_8,3,5,63,98,3684814088
72,15,18,Jits_Linear_8,0,5,80,127,3685433868
72,15,18,Jits_Linear_8,1,5,63,98,3685454128
72,15,18,Jits_Linear_8,2,5,56,103,3685483880
72,15,18,Jits_Linear_8,3,1,48,39,3685523564
72,15,18,Jits_Linear_8,0,5,80,127,3686123880
72,15,18,Jits_Linear_8,1,5,63,98,3686144416
72,15,18,Jits_Linear_8,2,1,48,33,3686197580
72,15,18,Jits_Linear_8,3,5,56,103,3686203828
72,15,18,Jits_Linear_8,0,5,80,127,3686824156
72,15,18,Jits_Linear_8,1,1,48,35,3686875528
72,15,18,Jits_Linear_8,2,5,56,103,3686923804
72,15,18,Jits_Linear_8,3,5,63,98,3686954304
72,15,18,Jits_Linear_8,0,5,63,98,3687513568
72,15,18,Jits_Linear_8,1,1,48,32,3687545604
72,15,18,Jits_Linear_8,2,5,80,127,3687563836
72,15,18,Jits_Linear_8,3,5,56,103,3687584072
72,15,18,Jits_Linear_8,0,1,48,35,3688238560
72,15,18,Jits_Linear_8,1,5,80,127,3688253804
72,15,18,Jits_Linear_8,2,5,56,103,3688283552
72,15,18,Jits_Linear_8,3,5,63,98,3688286620
72,15,18,Jits_Linear_8,0,1,48,30,3688917364
72,15,18,Jits_Linear_8,1,5,63,98,3688983928
72,15,18,Jits_Linear_8,2,5,56,103,3689023952
72,15,18,Jits_Linear_8,3,5,80,127,3689044340
72,15,18,Jits_Linear_8,0,1,48,33,3689599572
72,15,18,Jits_Linear_8,1,5,80,127,3689623884
72,15,18,Jits_Linear_8,2,5,63,98,3689703740
72,15,18,Jits_Linear_8,3,5,56,103,3689743828
72,15,18,Jits_Linear_8,0,5,63,98,3690333748
72,15,18,Jits_Linear_8,1,1,48,32,3690355976
72,15,18,Jits_Linear_8,2,5,80,127,3690413616
72,15,18,Jits_Linear_8,3,5,56,103,3690433852
72,15,18,Jits_Linear_8,0,5,56,103,3691063884
72,15,18,Jits_Linear_8,1,1,48,33,3691071344
72,15,18,Jits_Linear_8,2,5,63,98,3691074000
72,15,18,Jits_Linear_8,3,5,80,127,3691113940
72,15,18,Jits_Linear_8,0,5,56,103,3691674008
72,15,18,Jits_Linear_8,1,5,80,127,3691677072
72,15,18,Jits_Linear_8,2,1,48,32,3691751604
72,15,18,Jits_Linear_8,3,5,63,98,3691814328
72,15,18,Jits_Linear_8,0,5,56,103,3692364000
72,15,18,Jits_Linear_8,1,1,48,36,3692379772
72,15,18,Jits_Linear_8,2,5,63,98,3692454132
72,15,18,Jits_Linear_8,3,5,80,127,3692524020
72,15,18,Jits_Linear_8,0,1,48,36,3693088264
72,15,18,Jits_Linear_8,1,5,63,98,3693124056
72,15,18,Jits_Linear_8,2,5,80,127,3693127420
72,15,18,Jits_Linear_8,3,5,56,103,3693185408
72,15,18,Jits_Linear_8,0,1,48,30,3693764180
72,15,18,Jits_Linear_8,1,5,80,127,3693843700
72,15,18,Jits_Linear_8,2,5,56,103,3693864292
72,15,18,Jits_Linear_8,3,5,63,98,3693873812
72,15,18,Jits_Linear_8,0,5,56,103,3694433760
72,15,18,Jits_Linear_8,1,5,63,98,3694443808
72,15,18,Jits_Linear_8,2,5,80,127,3694513712
72,15,18,Jits_Linear_8,3,1,48,36,3694531432
72,15,18,Jits_Linear_8,0,1,48,32,3695090964
72,15,18,Jits_Linear_8,1,5,80,127,3695113548
72,15,18,Jits_Linear_8,2,5,56,103,3695163680
72,15,18,Jits_Linear_8,3,5,63,98,3695213888
72,15,18,Jits_Linear_8,0,1,48,31,3695688732
72,15,18,Jits_Linear_8,1,5,56,103,3695874484
72,15,18,Jits_Linear_8,2,5,63,98,3695883708
72,15,18,Jits_Linear_8,3,5,80,127,3695923496
72,15,18,Jits_Linear_8,0,1,48,25,3696339220
72,15,18,Jits_Linear_8,1,5,56,103,3696493904
72,15,18,Jits_Linear_8,2,5,63,98,3696533848
72,15,18,Jits_Linear_8,3,5,80,127,3696584124
72,15,18,Jits_Linear_8,0,1,48,24,3697069528
72,15,18,Jits_Linear_8,1,5,80,127,3697123656
72,15,18,Jits_Linear_8,2,5,56,103,3697173992
72,15,18,Jits_Linear_8,3,5,63,98,3697194376
72,15,18,Jits_Linear_8,0,1,48,30,3697758096
72,15,18,Jits_Linear_8,1,5,80,127,3697803536
72,15,18,Jits_Linear_8,2,5,63,98,3697864064
72,15,18,Jits_Linear_8,3,5,56,103,3697943932
72,15,18,Jits_Linear_8,0,5,80,127,3698453808
72,15,18,Jits_Linear_8,1,1,48,32,3698456704
72,15,18,Jits_Linear_8,2,5,56,103,3698493668
72,15,18,Jits_Linear_8,3,5,63,98,3698514372
72,15,18,Jits_Linear_8,0,1,48,32,3699089604
72,15,18,Jits_Linear_8,1,5,56,103,3699173852
72,15,18,Jits_Linear_8,2,5,80,127,3699184120
72,15,18,Jits_Linear_8,3,5,63,98,3699224044
72,15,18,Jits_Linear_8,0,1,48,26,3699741064
72,15,18,Jits_Linear_8,1,5,56,103,3699903772
72,15,18,Jits_Linear_8,2,5,63,98,3699943784
72,15,18,Jits_Linear_8,3,5,80,127,3699947072
72,15,18,Jits_Linear_8,0,5,63,98,3700453660
72,15,18,Jits_Linear_8,1,1,48,34,3700469432
72,15,18,Jits_Linear_8,2,5,80,127,3700493668
72,15,18,Jits_Linear_8,3,5,56,103,3700564480
72,15,18,Jits_Linear_8,0,5,63,98,3701103872
72,15,18,Jits_Linear_8,1,1,48,34,3701139876
72,15,18,Jits_Linear_8,2,5,56,103,3701183812
72,15,18,Jits_Linear_8,3,5,80,127,3701244408
72,15,18,Jits_Linear_8,0,1,48,33,3701750644
72,15,18,Jits_Linear_8,1,5,80,127,3701773760
72,15,18,Jits_Linear_8,2,5,63,98,3701823844
72,15,18,Jits_Linear_8,3,5,56,103,3701853504
72,15,18,Jits_Linear_8,0,1,48,30,3702363564
72,15,18,Jits_Linear_8,1,5,56,103,3702423900
72,15,18,Jits_Linear_8,2,5,63,98,3702474016
72,15,18,Jits_Linear_8,3,5,80,127,3702484584
72,15,18,Jits_Linear_8,0,1,48,31,3702977632
72,15,18,Jits_Linear_8,1,5,56,103,3703093700
72,15,18,Jits_Linear_8,2,5,63,98,3703204316
72,15,18,Jits_Linear_8,3,5,80,127,3703223580
72,15,18,Jits_Linear_8,0,1,48,31,3703691396
72,15,18,Jits_Linear_8,1,5,63,98,3703743784
72,15,18,Jits_Linear_8,2,5,80,127,3703793972
72,15,18,Jits_Linear_8,3,5,56,103,3703884280
72,15,18,Jits_Linear_8,0,5,63,98,3704383744
72,15,18,Jits_Linear_8,1,5,80,127,3704413492
72,15,18,Jits_Linear_8,2,1,48,27,3704433924
72,15,18,Jits_Linear_8,3,5,56,103,3704503620
72,15,18,Jits_Linear_8,0,5,63,98,3705034300
72,15,18,Jits_Linear_8,1,5,56,103,3705044572
72,15,18,Jits_Linear_8,2,1,48,29,3705065448
72,15,18,Jits_Linear_8,3,5,80,127,3705143764
72,15,18,Jits_Linear_8,0,1,48,31,3705684036
72,15,18,Jits_Linear_8,1,5,63,98,3705783692
72,15,18,Jits_Linear_8,2,5,80,127,3705814492
72,15,18,Jits_Linear_8,3,5,56,103,3705844240
72,15,18,Jits_Linear_8,0,1,48,28,3706398960
72,15,18,Jits_Linear_8,1,5,80,127,3706444196
72,15,18,Jits_Linear_8,2,5,63,98,3706454544
72,15,18,Jits_Linear_8,3,5,56,103,3706483992
72,15,18,Jits_Linear_8,0,5,80,127,3706983816
72,15,18,Jits_Linear_8,1,5,63,98,3707004424
72,15,18,Jits_Linear_8,2,5,56,103,3707053356
72,15,18,Jits_Linear_8,3,1,48,29,3707077000
72,15,18,Jits_Linear_8,0,1,48,28,3707614728
72,15,18,Jits_Linear_8,1,5,63,98,3707653640
72,15,18,Jits_Linear_8,2,5,80,127,3707713820
72,15,18,Jits_Linear_8,3,5,56,103,3707734576
72,15,18,Jits_Linear_8,0,1,48,30,3708231748
72,15,18,Jits_Linear_8,1,5,63,98,3708253660
72,15,18,Jits_Linear_8,2,5,56,103,3708303716
72,15,18,Jits_Linear_8,3,5,80,127,3708313912
72,15,18,Jits_Linear_8,0,1,48,27,3708835044
72,15,18,Jits_Linear_8,1,5,56,103,3708924448
72,15,18,Jits_Linear_8,2,5,80,127,3708933436
72,15,18,Jits_Linear_8,3,5,63,98,3709033856
72,15,18,Jits_Linear_8,0,5,80,127,3709524328
72,15,18,Jits_Linear_8,1,5,63,98,3709533552
72,15,18,Jits_Linear_8,2,1,48,27,3709538616
72,15,18,Jits_Linear_8,3,5,56,103,3709684044
72,15,18,Jits_Linear_8,0,1,48,32,3710158756
72,15,18,Jits_Linear_8,1,5,63,98,3710164632
72,15,18,Jits_Linear_8,2,5,80,127,3710204200
72,15,18,Jits_Linear_8,3,5,56,103,3710284300
72,15,18,Jits_Linear_8,0,5,56,103,3710783760
72,15,18,Jits_Linear_8,1,1,48,25,3710808084
72,15,18,Jits_Linear_8,2,5,80,127,3710884304
72,15,18,Jits_Linear_8,3,5,63,98,3710904452
72,15,18,Jits_Linear_8,0,1,48,24,3711430108
72,15,18,Jits_Linear_8,1,5,80,127,3711474048
72,15,18,Jits_Linear_8,2,5,56,103,3711484692
72,15,18,Jits_Linear_8,3,5,63,98,3711574312
72,15,18,Jits_Linear_8,0,1,48,24,3712047340
72,15,18,Jits_Linear_8,1,5,56,103,3712103736
72,15,18,Jits_Linear_8,2,5,63,98,3712124568
72,15,18,Jits_Linear_8,3,5,80,127,3712204348
72,15,18,Jits_Linear_8,0,5,63,98,3712674516
72,15,18,Jits_Linear_8,1,1,48,26,3712704620
72,15,18,Jits_Linear_8,2,5,56,103,3712764348
72,15,18,Jits_Linear_8,3,5,80,127,3712767488
72,15,18,Jits_Linear_8,0,1,48,21,3713304140
72,15,18,Jits_Linear_8,1,5,56,103,3713324472
72,15,18,Jits_Linear_8,2,5,80,127,3713383764
72,15,18,Jits_Linear_8,3,5,63,98,3713393960
72,15,18,Jits_Linear_8,0,1,48,25,3713887144
72,15,18,Jits_Linear_8,1,5,80,127,3713994372
72,15,18,Jits_Linear_8,2,5,56,103,3714004420
72,15,18,Jits_Linear_8,3,5,63,98,3714007488
72,15,18,Jits_Linear_8,0,5,56,103,3714573708
72,15,18,Jits_Linear_8,1,5,80,127,3714584052
72,15,18,Jits_Linear_8,2,1,48,22,3714592272
72,15,18,Jits_Linear_8,3,5,63,98,3714604432
72,15,18,Jits_Linear_8,0,5,63,98,3715163400
72,15,18,Jits_Linear_8,1,1,48,19,3715176488
72,15,18,Jits_Linear_8,2,5,80,127,3715224008
72,15,18,Jits_Linear_8,3,5,56,103,3715274344
72,15,18,Jits_Linear_8,0,1,48,25,3715740052
72,15,18,Jits_Linear_8,1,5,63,98,3715863848
72,15,18,Jits_Linear_8,2,5,56,103,3715874416
72,15,18,Jits_Linear_8,3,5,80,127,3715924640
72,15,18,Jits_Linear_8,0,5,63,98,3716373812
72,15,18,Jits_Linear_8,1,5,80,127,3716394272
72,15,18,Jits_Linear_8,2,5,56,103,3716403496
72,15,18,Jits_Linear_8,3,1,48,24,3716413208
72,15,18,Jits_Linear_8,0,1,48,19,3716957604
72,15,18,Jits_Linear_8,1,5,63,98,3716984300
72,15,18,Jits_Linear_8,2,5,80,127,3716987592
72,15,18,Jits_Linear_8,3,5,56,103,3717024312
72,15,18,Jits_Linear_8,0,1,48,23,3717496368
72,15,18,Jits_Linear_8,1,5,63,98,3717664136
72,15,18,Jits_Linear_8,2,5,80,127,3717693740
72,15,18,Jits_Linear_8,3,5,56,103,3717704156
72,15,18,Jits_Linear_8,0,1,48,25,3718107208
72,15,18,Jits_Linear_8,1,5,56,103,3718224272
72,15,18,Jits_Linear_8,2,5,80,127,3718253800
72,15,18,Jits_Linear_8,3,5,63,98,3718283772
72,15,18,Jits_Linear_8,0,1,48,24,3718783052
72,15,18,Jits_Linear_8,1,5,63,98,3718923692
72,15,18,Jits_Linear_8,2,5,56,103,3718963632
72,15,18,Jits_Linear_8,3,5,80,127,3718966548
72,15,18,Jits_Linear_8,0,5,80,127,3719424360
72,15,18,Jits_Linear_8,1,1,48,27,3719468904
72,15,18,Jits_Linear_8,2,5,56,103,3719504324
72,15,18,Jits_Linear_8,3,5,63,98,3719554304
72,15,18,Jits_Linear_8,0,5,80,127,3720004168
72,15,18,Jits_Linear_8,1,5,56,103,3720024404
72,15,18,Jits_Linear_8,2,1,48,22,3720094204
72,15,18,Jits_Linear_8,3,5,63,98,3720113408
72,15,18,Jits_Linear_8,0,1,48,26,3720618816
72,15,18,Jits_Linear_8,1,5,80,127,3720644100
72,15,18,Jits_Linear_8,2,5,63,98,3720683964
72,15,18,Jits_Linear_8,3,5,56,103,3720723812
72,15,18,Jits_Linear_8,0,5,63,98,3721214280
72,15,18,Jits_Linear_8,1,5,80,127,3721273700
72,15,18,Jits_Linear_8,2,1,48,19,3721277644
72,15,18,Jits_Linear_8,3,5,56,103,3721304496
72,15,18,Jits_Linear_8,0,1,48,24,3721810488
72,15,18,Jits_Linear_8,1,5,56,103,3721814572
72,15,18,Jits_Linear_8,2,5,80,127,3721844172
72,15,18,Jits_Linear_8,3,5,63,98,3721934288
72,15,18,Jits_Linear_8,0,5,56,103,3722413376
72,15,18,Jits_Linear_8,1,1,48,25,3722426608
72,15,18,Jits_Linear_8,2,5,80,127,3722524164
72,15,18,Jits_Linear_8,3,5,63,98,3722553616
72,15,18,Jits_Linear_8,0,1,48,28,3723027888
72,15,18,Jits_Linear_8,1,5,56,103,3723053468
72,15,18,Jits_Linear_8,2,5,63,98,3723113960
72,15,18,Jits_Linear_8,3,5,80,127,3723143396
72,15,18,Jits_Linear_8,0,5,56,103,3723613492
72,15,18,Jits_Linear_8,1,1,48,26,3723660204
72,15,18,Jits_Linear_8,2,5,63,98,3723684216
72,15,18,Jits_Linear_8,3,5,80,127,3723703628
72,15,18,Jits_Linear_8,0,5,80,127,3724173868
72,15,18,Jits_Linear_8,1,5,63,98,3724194256
72,15,18,Jits_Linear_8,2,1,48,28,3724200216
72,15,18,Jits_Linear_8,3,5,56,103,3724244300
72,15,18,Jits_Linear_8,0,1,48,29,3724753688
72,15,18,Jits_Linear_8,1,5,63,98,3724773720
72,15,18,Jits_Linear_8,2,5,80,127,3724784140
72,15,18,Jits_Linear_8,3,5,56,103,3724834340
72,15,18,Jits_Linear_8,0,1,48,25,3725337940
72,15,18,Jits_Linear_8,1,5,63,98,3725354228
72,15,18,Jits_Linear_8,2,5,80,127,3725424084
72,15,18,Jits_Linear_8,3,5,56,103,3725443408
72,15,18,Jits_Linear_8,0,1,48,27,3725939980
72,15,18,Jits_Linear_8,1,5,63,98,3725963688
72,15,18,Jits_Linear_8,2,5,80,127,3725967272
72,15,18,Jits_Linear_8,3,5,56,103,3726034264
72,15,18,Jits_Linear_8,0,5,80,127,3726494076
72,15,18,Jits_Linear_8,1,5,56,103,3726513564
72,15,18,Jits_Linear_8,2,1,48,27,3726520872
72,15,18,Jits_Linear_8,3,5,63,98,3726523756
72,15,18,Jits_Linear_8,0,1,48,28,3727046772
72,15,18,Jits_Linear_8,1,5,56,103,3727094148
72,15,18,Jits_Linear_8,2,5,63,98,3727184140
72,15,18,Jits_Linear_8,3,5,80,127,3727187436
72,15,18,Jits_Linear_8,0,5,80,127,3727644244
72,15,18,Jits_Linear_8,1,5,56,103,3727654144
72,15,18,Jits_Linear_8,2,1,48,28,3727662888
72,15,18,Jits_Linear_8,3,5,63,98,3727673700
72,15,18,Jits_Linear_8,0,1,48,26,3728191188
72,15,18,Jits_Linear_8,1,5,63,98,3728214304
72,15,18,Jits_Linear_8,2,5,80,127,3728273724
72,15,18,Jits_Linear_8,3,5,56,103,3728284128
72,15,18,Jits_Linear_8,0,1,48,27,3728772840
72,15,18,Jits_Linear_8,1,5,63,98,3728854384
72,15,18,Jits_Linear_8,2,5,80,127,3728884192
72,15,18,Jits_Linear_8,3,5,56,103,3728924128
72,15,18,Jits_Linear_8,0,1,48,29,3729379724
72,15,18,Jits_Linear_8,1,5,56,103,3729413476
72,15,18,Jits_Linear_8,2,5,80,127,3729423672
72,15,18,Jits_Linear_8,3,5,63,98,3729463612
72,15,18,Jits_Linear_8,0,5,80,127,3729944100
72,15,18,Jits_Linear_8,1,1,48,31,3729957408
72,15,18,Jits_Linear_8,2,5,56,103,3730023916
72,15,18,Jits_Linear_8,3,5,63,98,3730034112
72,15,18,Jits_Linear_8,0,1,48,27,3730519152
72,15,18,Jits_Linear_8,1,5,80,127,3730554172
72,15,18,Jits_Linear_8,2,5,56,103,3730634176
72,15,18,Jits_Linear_8,3,5,63,98,3730644300
72,15,18,Jits_Linear_8,0,5,80,127,3731074540
72,15,18,Jits_Linear_8,1,1,48,27,3731108524
72,15,18,Jits_Linear_8,2,5,56,103,3731123616
72,15,18,Jits_Linear_8,3,5,63,98,3731173744
72,15,18,Jits_Linear_8,0,1,48,23,3731652200
72,15,18,Jits_Linear_8,1,5,56,103,3731693952
72,15,18,Jits_Linear_8,2,5,63,98,3731697020
72,15,18,Jits_Linear_8,3,5,80,127,3731744080
72,15,18,Jits_Linear_8,0,1,48,25,3732179580
72,15,18,Jits_Linear_8,1,5,56,103,3732273480
72,15,18,Jits_Linear_8,2,5,63,98,3732304304
72,15,18,Jits_Linear_8,3,5,80,127,3732313528
72,15,18,Jits_Linear_8,0,5,63,98,3732743516
72,15,18,Jits_Linear_8,1,1,48,28,3732785820
72,15,18,Jits_Linear_8,2,5,56,103,3732814116
72,15,18,Jits_Linear_8,3,5,80,127,3732864320
72,15,18,Jits_Linear_8,0,1,48,24,3733316084
72,15,18,Jits_Linear_8,1,5,63,98,3733334396
72,15,18,Jits_Linear_8,2,5,56,103,3733343616
72,15,18,Jits_Linear_8,3,5,80,127,3733346608
72,15,18,Jits_Linear_8,0,1,48,26,3733822576
72,15,18,Jits_Linear_8,1,5,80,127,3733834280
72,15,18,Jits_Linear_8,2,5,56,103,3733893476
72,15,18,Jits_Linear_8,3,5,63,98,3733983668
72,15,18,Jits_Linear_8,0,1,48,24,3734359472
72,15,18,Jits_Linear_8,1,5,80,127,3734394196
72,15,18,Jits_Linear_8,2,5,56,103,3734493608
72,15,18,Jits_Linear_8,3,5,63,98,3734533472
72,15,18,Jits_Linear_8,0,1,48,27,3734929656
72,15,18,Jits_Linear_8,1,5,56,103,3734994272
72,15,18,Jits_Linear_8,2,5,63,98,3735013688
72,15,18,Jits_Linear_8,3,5,80,127,3735053836
72,15,18,Jits_Linear_8,0,5,63,98,3735523776
72,15,18,Jits_Linear_8,1,5,56,103,3735544160
72,15,18,Jits_Linear_8,2,1,48,26,3735564212
72,15,18,Jits_Linear_8,3,5,80,127,3735643600
72,15,18,Jits_Linear_8,0,5,63,98,3736054096
72,15,18,Jits_Linear_8,1,1,48,26,3736097224
72,15,18,Jits_Linear_8,2,5,80,127,3736163656
72,15,18,Jits_Linear_8,3,5,56,103,3736194292
72,15,18,Jits_Linear_8,0,1,48,25,3736592184
72,15,18,Jits_Linear_8,1,5,56,103,3736614232
72,15,18,Jits_Linear_8,2,5,63,98,3736644084
72,15,18,Jits_Linear_8,3,5,80,127,3736694120
72,15,18,Jits_Linear_8,0,5,63,98,3737124100
72,15,18,Jits_Linear_8,1,1,48,34,3737135012
72,15,18,Jits_Linear_8,2,5,56,103,3737154092
72,15,18,Jits_Linear_8,3,5,80,127,3737203996
72,15,18,Jits_Linear_8,0,1,48,28,3737624112
72,15,18,Jits_Linear_8,1,5,56,103,3737703956
72,15,18,Jits_Linear_8,2,5,63,98,3737724328
72,15,18,Jits_Linear_8,3,5,80,127,3737804048
72,15,18,Jits_Linear_8,0,5,63,98,3738214052
72,15,18,Jits_Linear_8,1,1,48,28,3738221900
72,15,18,Jits_Linear_8,2,5,56,103,3738274140
72,15,18,Jits_Linear_8,3,5,80,127,3738303964
72,15,18,Jits_Linear_8,0,1,48,26,3738752952
72,15,18,Jits_Linear_8,1,5,56,103,3738794260
72,15,18,Jits_Linear_8,2,5,80,127,3738853964
72,15,18,Jits_Linear_8,3,5,63,98,3738893752
72,15,18,Jits_Linear_8,0,1,48,27,3739277432
72,15,18,Jits_Linear_8,1,5,63,98,3739304352
72,15,18,Jits_Linear_8,2,5,56,103,3739363552
72,15,18,Jits_Linear_8,3,5,80,127,3739434488
72,15,18,Jits_Linear_8,0,1,48,27,3739854432
72,15,18,Jits_Linear_8,1,5,56,103,3739913948
72,15,18,Jits_Linear_8,2,5,63,98,3739923916
72,15,18,Jits_Linear_8,3,5,80,127,3739927280
72,15,18,Jits_Linear_8,0,5,63,98,3740383732
72,15,18,Jits_Linear_8,1,1,48,24,3740434508
72,15,18,Jits_Linear_8,2,5,56,103,3740444116
72,15,18,Jits_Linear_8,3,5,80,127,3740447032
72,15,18,Jits_Linear_8,0,5,63,98,3740893444
72,15,18,Jits_Linear_8,1,5,80,127,3740924316
72,15,18,Jits_Linear_8,2,5,56,103,3740943728
72,15,18,Jits_Linear_8,3,1,48,33,3740948196
72,15,18,Jits_Linear_8,0,5,56,103,3741423836
72,15,18,Jits_Linear_8,1,1,48,31,3741447560
72,15,18,Jits_Linear_8,2,5,63,98,3741474260
72,15,18,Jits_Linear_8,3,5,80,127,3741553988
72,15,18,Jits_Linear_8,0,5,80,127,3741923980
72,15,18,Jits_Linear_8,1,1,48,31,3741936240
72,15,18,Jits_Linear_8,2,5,63,98,3741963988
72,15,18,Jits_Linear_8,3,5,56,103,3741984076
72,15,18,Jits_Linear_8,0,1,48,28,3742461388
72,15,18,Jits_Linear_8,1,5,56,103,3742513500
72,15,18,Jits_Linear_8,2,5,80,127,3742523844
72,15,18,Jits_Linear_8,3,5,63,98,3742544252
72,15,18,Jits_Linear_8,0,1,48,22,3742980016
72,15,18,Jits_Linear_8,1,5,56,103,3743014296
72,15,18,Jits_Linear_8,2,5,63,98,3743064600
72,15,18,Jits_Linear_8,3,5,80,127,3743094184
72,15,18,Jits_Linear_8,0,5,56,103,3743484236
72,15,18,Jits_Linear_8,1,5,63,98,3743493388
72,15,18,Jits_Linear_8,2,1,48,24,3743515912
72,15,18,Jits_Linear_8,3,5,80,127,3743543952
72,15,18,Jits_Linear_8,0,1,48,26,3743976100
72,15,18,Jits_Linear_8,1,5,56,103,3743994256
72,15,18,Jits_Linear_8,2,5,80,127,3743997544
72,15,18,Jits_Linear_8,3,5,63,98,3744153924
72,15,18,Jits_Linear_8,0,1,48,26,3744487676
72,15,18,Jits_Linear_8,1,5,63,98,3744523744
72,15,18,Jits_Linear_8,2,5,56,103,3744594260
72,15,18,Jits_Linear_8,3,5,80,127,3744634200
72,15,18,Jits_Linear_8,0,5,63,98,3745073556
72,15,18,Jits_Linear_8,1,1,48,24,3745091448
72,15,18,Jits_Linear_8,2,5,56,103,3745163780
72,15,18,Jits_Linear_8,3,5,80,127,3745166772
72,15,18,Jits_Linear_8,0,5,56,103,3745564016
72,15,18,Jits_Linear_8,1,5,63,98,3745654252
72,15,18,Jits_Linear_8,2,5,80,127,3745664448
72,15,18,Jits_Linear_8,3,1,48,26,3745677156
72,15,18,Jits_Linear_8,0,5,56,103,3746044232
72,15,18,Jits_Linear_8,1,5,63,98,3746093392
72,15,18,Jits_Linear_8,2,5,80,127,3746124140
72,15,18,Jits_Linear_8,3,1,48,23,3746192516
72,15,18,Jits_Linear_8,0,5,63,98,3746623816
72,15,18,Jits_Linear_8,1,5,80,127,3746634084
72,15,18,Jits_Linear_8,2,5,56,103,3746693576
72,15,18,Jits_Linear_8,3,1,48,23,3746715352
72,15,18,Jits_Linear_8,0,5,63,98,3747043908
72,15,18,Jits_Linear_8,1,5,80,127,3747104076
72,15,18,Jits_Linear_8,2,5,56,103,3747143964
72,15,18,Jits_Linear_8,3,1,48,27,3747231500
72,15,18,Jits_Linear_8,0,5,56,103,3747643756
72,15,18,Jits_Linear_8,1,5,80,127,3747664168
72,15,18,Jits_Linear_8,2,5,63,98,3747683804
72,15,18,Jits_Linear_8,3,1,48,23,3747752852
72,15,18,Jits_Linear_8,0,5,63,98,3748063812
72,15,18,Jits_Linear_8,1,5,56,103,3748084052
72,15,18,Jits_Linear_8,2,5,80,127,3748124064
72,15,18,Jits_Linear_8,3,1,48,27,3748289460
72,15,18,Jits_Linear_8,0,5,63,98,3748573532
72,15,18,Jits_Linear_8,1,5,80,127,3748604328
72,15,18,Jits_Linear_8,2,5,56,103,3748623668
72,15,18,Jits_Linear_8,3,1,48,26,3748793572
72,15,18,Jits_Linear_8,0,5,80,127,3749043836
72,15,18,Jits_Linear_8,1,5,56,103,3749093816
72,15,18,Jits_Linear_8,2,5,63,98,3749154132
72,15,18,Jits_Linear_8,3,1,48,25,3749268368
72,15,18,Jits_Linear_8,0,5,63,98,3749523956
72,15,18,Jits_Linear_8,1,5,56,103,3749643764
72,15,18,Jits_Linear_8,2,5,80,127,3749674412
72,15,18,Jits_Linear_8,3,1,48,22,3749834056
72,15,18,Jits_Linear_8,0,5,80,127,3750054284
72,15,18,Jits_Linear_8,1,5,63,98,3750073696
72,15,18,Jits_Linear_8,2,5,56,103,3750144280
72,15,18,Jits_Linear_8,3,1,48,21,3750320168
72,15,18,Jits_Linear_8,0,5,63,98,3750564320
72,15,18,Jits_Linear_8,1,5,56,103,3750573468
72,15,18,Jits_Linear_8,2,5,80,127,3750654460
72,15,18,Jits_Linear_8,0,1,48,25,3750863260
72,15,18,Jits_Linear_8,1,5,56,103,3751113988
72,15,18,Jits_Linear_8,2,5,80,127,3751143888
72,15,18,Jits_Linear_8,3,5,63,98,3751153936
72,15,18,Jits_Linear_8,0,9999,9999,9999,3640731712
72,15,18,Jits_Linear_8,1,9999,9999,9999,3641551940
72,15,18,Jits_Linear_8,2,9999,9999,9999,3642371160
72,15,18,Jits_Linear_8,3,9999,9999,9999,3643191380
72,15,18,Jits_Linear_8,4,9999,9999,9999,3644011616
72,15,18,Jits_Linear_8,5,9999,9999,9999,3644821564
72,15,18,Jits_Linear_8,6,9999,9999,9999,3645631580
72,15,18,Jits_Linear_8,7,9999,9999,9999,3646441528
72,15,18,Jits_Linear_8,8,9999,9999,9999,3647251552
72,15,18,Jits_Linear_8,9,9999,9999,9999,3648061560
72,15,18,Jits_Linear_8,10,9999,9999,9999,3648861264
72,15,18,Jits_Linear_8,11,9999,9999,9999,3649662068
72,15,18,Jits_Linear_8,12,9999,9999,9999,3650461756
72,15,18,Jits_Linear_8,13,9999,9999,9999,3651261504
72,15,18,Jits_Linear_8,14,9999,9999,9999,3652061248
72,15,18,Jits_Linear_8,15,9999,9999,9999,3652851792
72,15,18,Jits_Linear_8,16,9999,9999,9999,3653641340
72,15,18,Jits_Linear_8,17,9999,9999,9999,3654431812
72,15,18,Jits_Linear_8,18,9999,9999,9999,3655221308
72,15,18,Jits_Linear_8,19,9999,9999,9999,3656011876
72,15,18,Jits_Linear_8,20,9999,9999,9999,3656791100
72,15,18,Jits_Linear_8,21,9999,9999,9999,3657571448
72,15,18,Jits_Linear_8,22,9999,9999,9999,3658351712
72,15,18,Jits_Linear_8,23,9999,9999,9999,3659131984
72,15,18,Jits_Linear_8,24,9999,9999,9999,3659911288
72,15,18,Jits_Linear_8,25,9999,9999,9999,3660681300
72,15,18,Jits_Linear_8,26,9999,9999,9999,3661451388
72,15,18,Jits_Linear_8,27,9999,9999,9999,3662221404
72,15,18,Jits_Linear_8,28,9999,9999,9999,3662991428
72,15,18,Jits_Linear_8,29,9999,9999,9999,3663761464
72,15,18,Jits_Linear_8,30,9999,9999,9999,3664521288
72,15,18,Jits_Linear_8,31,9999,9999,9999,3665281108
72,15,18,Jits_Linear_8,32,9999,9999,9999,3666041976
72,15,18,Jits_Linear_8,33,9999,9999,9999,3666801720
72,15,18,Jits_Linear_8,34,9999,9999,9999,3667561544
72,15,18,Jits_Linear_8,35,9999,9999,9999,3668311116
72,15,18,Jits_Linear_8,36,9999,9999,9999,3669061728
72,15,18,Jits_Linear_8,37,9999,9999,9999,3669811268
72,15,18,Jits_Linear_8,38,9999,9999,9999,3670561872
72,15,18,Jits_Linear_8,39,9999,9999,9999,3671311448
72,15,18,Jits_Linear_8,40,9999,9999,9999,3672051796
72,15,18,Jits_Linear_8,41,9999,9999,9999,3672791108
72,15,18,Jits_Linear_8,42,9999,9999,9999,3673531448
72,15,18,Jits_Linear_8,43,9999,9999,9999,3674271868
72,15,18,Jits_Linear_8,44,9999,9999,9999,3675011152
72,15,18,Jits_Linear_8,45,9999,9999,9999,3675741308
72,15,18,Jits_Linear_8,46,9999,9999,9999,3676471380
72,15,18,Jits_Linear_8,47,9999,9999,9999,3677201520
72,15,18,Jits_Linear_8,48,9999,9999,9999,3677931620
72,15,18,Jits_Linear_8,49,9999,9999,9999,3678661708
72,15,18,Jits_Linear_8,50,9999,9999,9999,3679381596
72,15,18,Jits_Linear_8,51,9999,9999,9999,3680101500
72,15,18,Jits_Linear_8,52,9999,9999,9999,3680821312
72,15,18,Jits_Linear_8,53,9999,9999,9999,3681541220
72,15,18,Jits_Linear_8,54,9999,9999,9999,3682262076
72,15,18,Jits_Linear_8,55,9999,9999,9999,3682981988
72,15,18,Jits_Linear_8,56,9999,9999,9999,3683691608
72,15,18,Jits_Linear_8,57,9999,9999,9999,3684401228
72,15,18,Jits_Linear_8,58,9999,9999,9999,3685111916
72,15,18,Jits_Linear_8,59,9999,9999,9999,3685821560
72,15,18,Jits_Linear_8,60,9999,9999,9999,3686521912
72,15,18,Jits_Linear_8,61,9999,9999,9999,3687221344
72,15,18,Jits_Linear_8,62,9999,9999,9999,3687921760
72,15,18,Jits_Linear_8,63,9999,9999,9999,3688621168
72,15,18,Jits_Linear_8,64,9999,9999,9999,3689321588
72,15,18,Jits_Linear_8,65,9999,9999,9999,3690011712
72,15,18,Jits_Linear_8,66,9999,9999,9999,3690701940
72,15,18,Jits_Linear_8,67,9999,9999,9999,3691392072
72,15,18,Jits_Linear_8,68,9999,9999,9999,3692091484
72,15,18,Jits_Linear_8,69,9999,9999,9999,3692781640
72,15,18,Jits_Linear_8,70,9999,9999,9999,3693461608
72,15,18,Jits_Linear_8,71,9999,9999,9999,3694141548
72,15,18,Jits_Linear_8,72,9999,9999,9999,3694821504
72,15,18,Jits_Linear_8,73,9999,9999,9999,3695501400
72,15,18,Jits_Linear_8,74,9999,9999,9999,3696181340
72,15,18,Jits_Linear_8,75,9999,9999,9999,3696852080
72,15,18,Jits_Linear_8,76,9999,9999,9999,3697521768
72,15,18,Jits_Linear_8,77,9999,9999,9999,3698191440
72,15,18,Jits_Linear_8,78,9999,9999,9999,3698861128
72,15,18,Jits_Linear_8,79,9999,9999,9999,3699531884
72,15,18,Jits_Linear_8,80,9999,9999,9999,3700191292
72,15,18,Jits_Linear_8,81,9999,9999,9999,3700851768
72,15,18,Jits_Linear_8,82,9999,9999,9999,3701511248
72,15,18,Jits_Linear_8,83,9999,9999,9999,3702171728
72,15,18,Jits_Linear_8,84,9999,9999,9999,3702831204
72,15,18,Jits_Linear_8,85,9999,9999,9999,3703481424
72,15,18,Jits_Linear_8,86,9999,9999,9999,3704131712
72,15,18,Jits_Linear_8,87,9999,9999,9999,3704781900
72,15,18,Jits_Linear_8,88,9999,9999,9999,3705431136
72,15,18,Jits_Linear_8,89,9999,9999,9999,3706081336
72,15,18,Jits_Linear_8,90,9999,9999,9999,3706721372
72,15,18,Jits_Linear_8,91,9999,9999,9999,3707361372
72,15,18,Jits_Linear_8,92,9999,9999,9999,3708001336
72,15,18,Jits_Linear_8,93,9999,9999,9999,3708641336
72,15,18,Jits_Linear_8,94,9999,9999,9999,3709281360
72,15,18,Jits_Linear_8,95,9999,9999,9999,3709911100
72,15,18,Jits_Linear_8,96,9999,9999,9999,3710541924
72,15,18,Jits_Linear_8,97,9999,9999,9999,3711171660
72,15,18,Jits_Linear_8,98,9999,9999,9999,3711801420
72,15,18,Jits_Linear_8,99,9999,9999,9999,3712431184
72,15,18,Jits_Linear_8,100,9999,9999,9999,3713051768
72,15,18,Jits_Linear_8,101,9999,9999,9999,3713671268
72,15,18,Jits_Linear_8,102,9999,9999,9999,3714291780
72,15,18,Jits_Linear_8,103,9999,9999,9999,3714911356
72,15,18,Jits_Linear_8,104,9999,9999,9999,3715531892
72,15,18,Jits_Linear_8,105,9999,9999,9999,3716141112
72,15,18,Jits_Linear_8,106,9999,9999,9999,3716751464
72,15,18,Jits_Linear_8,107,9999,9999,9999,3717361780
72,15,18,Jits_Linear_8,108,9999,9999,9999,3717972040
72,15,18,Jits_Linear_8,109,9999,9999,9999,3718581324
72,15,18,Jits_Linear_8,110,9999,9999,9999,3719181396
72,15,18,Jits_Linear_8,111,9999,9999,9999,3719781496
72,15,18,Jits_Linear_8,112,9999,9999,9999,3720381500
72,15,18,Jits_Linear_8,113,9999,9999,9999,3720981584
72,15,18,Jits_Linear_8,114,9999,9999,9999,3721581652
72,15,18,Jits_Linear_8,115,9999,9999,9999,3722171460
72,15,18,Jits_Linear_8,116,9999,9999,9999,3722761344
72,15,18,Jits_Linear_8,117,9999,9999,9999,3723351124
72,15,18,Jits_Linear_8,118,9999,9999,9999,3723941980
72,15,18,Jits_Linear_8,119,9999,9999,9999,3724531796
72,15,18,Jits_Linear_8,120,9999,9999,9999,3725111352
72,15,18,Jits_Linear_8,121,9999,9999,9999,3725691960
72,15,18,Jits_Linear_8,122,9999,9999,9999,3726271568
72,15,18,Jits_Linear_8,123,9999,9999,9999,3726851180
72,15,18,Jits_Linear_8,124,9999,9999,9999,3727431804
72,15,18,Jits_Linear_8,125,9999,9999,9999,3728001076
72,15,18,Jits_Linear_8,126,9999,9999,9999,3728571492
72,15,18,Jits_Linear_8,127,9999,9999,9999,3729141820
72,15,18,Jits_Linear_8,128,9999,9999,9999,3729711176
72,15,18,Jits_Linear_8,129,9999,9999,9999,3730281532
72,15,18,Jits_Linear_8,130,9999,9999,9999,3730841692
72,15,18,Jits_Linear_8,131,9999,9999,9999,3731401832
72,15,18,Jits_Linear_8,132,9999,9999,9999,3731961980
72,15,18,Jits_Linear_8,133,9999,9999,9999,3732522056
72,15,18,Jits_Linear_8,134,9999,9999,9999,3733081168
72,15,18,Jits_Linear_8,135,9999,9999,9999,3733632084
72,15,18,Jits_Linear_8,136,9999,9999,9999,3734191172
72,15,18,Jits_Linear_8,137,9999,9999,9999,3734742096
72,15,18,Jits_Linear_8,138,9999,9999,9999,3735301192
72,15,18,Jits_Linear_8,139,9999,9999,9999,3735851068
72,15,18,Jits_Linear_8,140,9999,9999,9999,3736391756
72,15,18,Jits_Linear_8,141,9999,9999,9999,3736931440
72,15,18,Jits_Linear_8,142,9999,9999,9999,3737472088
72,15,18,Jits_Linear_8,143,9999,9999,9999,3738021964
72,15,18,Jits_Linear_8,144,9999,9999,9999,3738561644
72,15,18,Jits_Linear_8,145,9999,9999,9999,3739092044
72,15,18,Jits_Linear_8,146,9999,9999,9999,3739621464
72,15,18,Jits_Linear_8,147,9999,9999,9999,3740151932
72,15,18,Jits_Linear_8,148,9999,9999,9999,3740681272
72,15,18,Jits_Linear_8,149,9999,9999,9999,3741211740
72,15,18,Jits_Linear_8,150,9999,9999,9999,3741731948
72,15,18,Jits_Linear_8,151,9999,9999,9999,3742251120
72,15,18,Jits_Linear_8,152,9999,9999,9999,3742771268
72,15,18,Jits_Linear_8,153,9999,9999,9999,3743291472
72,15,18,Jits_Linear_8,154,9999,9999,9999,3743811700
72,15,18,Jits_Linear_8,155,9999,9999,9999,3744321648
72,15,18,Jits_Linear_8,156,9999,9999,9999,3744831592
72,15,18,Jits_Linear_8,157,9999,9999,9999,3745341532
72,15,18,Jits_Linear_8,158,9999,9999,9999,3745851456
72,15,18,Jits_Linear_8,159,9999,9999,9999,3746361412
72,15,18,Jits_Linear_8,160,9999,9999,9999,3746861180
72,15,18,Jits_Linear_8,161,9999,9999,9999,3747361908
72,15,18,Jits_Linear_8,162,9999,9999,9999,3747861596
72,15,18,Jits_Linear_8,163,9999,9999,9999,3748361300
72,15,18,Jits_Linear_8,164,9999,9999,9999,3748862028
72,15,18,Jits_Linear_8,165,9999,9999,9999,3749351516
72,15,18,Jits_Linear_8,166,9999,9999,9999,3749841980
72,15,18,Jits_Linear_8,167,9999,9999,9999,3750331472
72,15,18,Jits_Linear_8,168,9999,9999,9999,3750821960
72,15,18,Jits_Linear_8,169,9999,9999,9999,3751311472
72,16,16,Jits_ISO_5,0,5,56,103,3760180776
72,16,16,Jits_ISO_5,1,5,63,98,3760183876
72,16,16,Jits_ISO_5,2,5,80,127,3760186924
72,16,16,Jits_ISO_5,0,5,56,103,3760681248
72,16,16,Jits_ISO_5,1,5,63,98,3760684420
72,16,16,Jits_ISO_5,2,5,80,127,3760687468
72,16,16,Jits_ISO_5,0,5,56,103,3761181060
72,16,16,Jits_ISO_5,1,5,80,127,3761191180
72,16,16,Jits_ISO_5,2,1,48,50,3761193196
72,16,16,Jits_ISO_5,3,5,63,98,3761210660
72,16,16,Jits_ISO_5,0,5,63,98,3761630540
72,16,16,Jits_ISO_5,1,5,80,127,3761661484
72,16,16,Jits_ISO_5,2,5,56,103,3761670784
72,16,16,Jits_ISO_5,3,1,48,43,3761756328
72,16,16,Jits_ISO_5,0,5,80,127,3762190660
72,16,16,Jits_ISO_5,1,5,56,103,3762200856
72,16,16,Jits_ISO_5,2,1,48,29,3762214904
72,16,16,Jits_ISO_5,3,5,63,98,3762230520
72,16,16,Jits_ISO_5,0,5,63,98,3762681268
72,16,16,Jits_ISO_5,1,1,48,34,3762693828
72,16,16,Jits_ISO_5,2,5,56,103,3762710936
72,16,16,Jits_ISO_5,3,5,80,127,3762721132
72,16,16,Jits_ISO_5,0,5,56,103,3763130812
72,16,16,Jits_ISO_5,1,1,48,23,3763175060
72,16,16,Jits_ISO_5,2,5,63,98,3763180932
72,16,16,Jits_ISO_5,3,5,80,127,3763201688
72,16,16,Jits_ISO_5,0,1,48,41,3763624984
72,16,16,Jits_ISO_5,1,5,80,127,3763630704
72,16,16,Jits_ISO_5,2,5,63,98,3763680680
72,16,16,Jits_ISO_5,3,5,56,103,3763721356
72,16,16,Jits_ISO_5,0,1,48,36,3764107252
72,16,16,Jits_ISO_5,1,5,56,103,3764131336
72,16,16,Jits_ISO_5,2,5,63,98,3764160788
72,16,16,Jits_ISO_5,3,5,80,127,3764230600
72,16,16,Jits_ISO_5,0,5,56,103,3764630856
72,16,16,Jits_ISO_5,1,1,48,37,3764638764
72,16,16,Jits_ISO_5,2,5,80,127,3764691388
72,16,16,Jits_ISO_5,3,5,63,98,3764720984
72,16,16,Jits_ISO_5,0,1,48,27,3765133348
72,16,16,Jits_ISO_5,1,5,56,103,3765140788
72,16,16,Jits_ISO_5,2,5,63,98,3765151208
72,16,16,Jits_ISO_5,3,5,80,127,3765190996
72,16,16,Jits_ISO_5,0,1,48,35,3765627300
72,16,16,Jits_ISO_5,1,5,63,98,3765631452
72,16,16,Jits_ISO_5,2,5,80,127,3765711616
72,16,16,Jits_ISO_5,3,5,56,103,3765720468
72,16,16,Jits_ISO_5,0,1,48,37,3766116100
72,16,16,Jits_ISO_5,1,5,63,98,3766181236
72,16,16,Jits_ISO_5,2,5,56,103,3766221160
72,16,16,Jits_ISO_5,3,5,80,127,3766224524
72,16,16,Jits_ISO_5,0,1,48,41,3766640216
72,16,16,Jits_ISO_5,1,5,56,103,3766641788
72,16,16,Jits_ISO_5,2,5,63,98,3766651232
72,16,16,Jits_ISO_5,3,5,80,127,3766691316
72,16,16,Jits_ISO_5,0,5,56,103,3767130660
72,16,16,Jits_ISO_5,1,5,63,98,3767133652
72,16,16,Jits_ISO_5,2,5,80,127,3767150896
72,16,16,Jits_ISO_5,3,1,48,28,3767164128
72,16,16,Jits_ISO_5,0,1,48,37,3767587032
72,16,16,Jits_ISO_5,1,5,80,127,3767640432
72,16,16,Jits_ISO_5,2,5,56,103,3767650852
72,16,16,Jits_ISO_5,3,5,63,98,3767721560
72,16,16,Jits_ISO_5,0,1,48,29,3768079812
72,16,16,Jits_ISO_5,1,5,63,98,3768131024
72,16,16,Jits_ISO_5,2,5,56,103,3768151636
72,16,16,Jits_ISO_5,3,5,80,127,3768231408
72,16,16,Jits_ISO_5,0,1,48,26,3768636576
72,16,16,Jits_ISO_5,1,5,56,103,3768640800
72,16,16,Jits_ISO_5,2,5,80,127,3768680888
72,16,16,Jits_ISO_5,3,5,63,98,3768691232
72,16,16,Jits_ISO_5,0,1,48,27,3769114032
72,16,16,Jits_ISO_5,1,5,80,127,3769131368
72,16,16,Jits_ISO_5,2,5,63,98,3769161216
72,16,16,Jits_ISO_5,3,5,56,103,3769201004
72,16,16,Jits_ISO_5,0,1,48,31,3769627616
72,16,16,Jits_ISO_5,1,5,56,103,3769650656
72,16,16,Jits_ISO_5,2,5,63,98,3769681400
72,16,16,Jits_ISO_5,3,5,80,127,3769730612
72,16,16,Jits_ISO_5,0,1,48,35,3770087500
72,16,16,Jits_ISO_5,1,5,80,127,3770151512
72,16,16,Jits_ISO_5,2,5,56,103,3770191088
72,16,16,Jits_ISO_5,3,5,63,98,3770200608
72,16,16,Jits_ISO_5,0,1,48,31,3770624324
72,16,16,Jits_ISO_5,1,5,80,127,3770630644
72,16,16,Jits_ISO_5,2,5,63,98,3770670508
72,16,16,Jits_ISO_5,3,5,56,103,3770730904
72,16,16,Jits_ISO_5,0,1,48,33,3771123984
72,16,16,Jits_ISO_5,1,5,56,103,3771131348
72,16,16,Jits_ISO_5,2,5,80,127,3771140648
72,16,16,Jits_ISO_5,3,5,63,98,3771221568
72,16,16,Jits_ISO_5,0,1,48,35,3771625060
72,16,16,Jits_ISO_5,1,5,80,127,3771630932
72,16,16,Jits_ISO_5,2,5,63,98,3771691472
72,16,16,Jits_ISO_5,3,5,56,103,3771721156
72,16,16,Jits_ISO_5,0,1,48,30,3772092584
72,16,16,Jits_ISO_5,1,5,56,103,3772130668
72,16,16,Jits_ISO_5,2,5,80,127,3772191116
72,16,16,Jits_ISO_5,3,5,63,98,3772231004
72,16,16,Jits_ISO_5,0,1,48,36,3772598472
72,16,16,Jits_ISO_5,1,5,56,103,3772680528
72,16,16,Jits_ISO_5,2,5,63,98,3772691540
72,16,16,Jits_ISO_5,3,5,80,127,3772694672
72,16,16,Jits_ISO_5,0,1,48,39,3773126500
72,16,16,Jits_ISO_5,1,5,80,127,3773131252
72,16,16,Jits_ISO_5,2,5,63,98,3773222416
72,16,16,Jits_ISO_5,3,5,56,103,3773230592
72,16,16,Jits_ISO_5,0,1,48,39,3773613580
72,16,16,Jits_ISO_5,1,5,56,103,3773630824
72,16,16,Jits_ISO_5,2,5,63,98,3773634000
72,16,16,Jits_ISO_5,3,5,80,127,3773637120
72,16,16,Jits_ISO_5,0,1,48,35,3774131048
72,16,16,Jits_ISO_5,1,5,80,127,3774150928
72,16,16,Jits_ISO_5,2,5,63,98,3774201204
72,16,16,Jits_ISO_5,3,5,56,103,3774230940
72,16,16,Jits_ISO_5,0,5,56,103,3774631268
72,16,16,Jits_ISO_5,1,1,48,39,3774632608
72,16,16,Jits_ISO_5,2,5,80,127,3774640636
72,16,16,Jits_ISO_5,3,5,63,98,3774711284
72,16,16,Jits_ISO_5,0,5,56,103,3775141280
72,16,16,Jits_ISO_5,1,1,48,28,3775147392
72,16,16,Jits_ISO_5,2,5,63,98,3775160760
72,16,16,Jits_ISO_5,3,5,80,127,3775221368
72,16,16,Jits_ISO_5,0,5,80,127,3775630764
72,16,16,Jits_ISO_5,1,1,48,32,3775650372
72,16,16,Jits_ISO_5,2,5,63,98,3775701264
72,16,16,Jits_ISO_5,3,5,56,103,3775720748
72,16,16,Jits_ISO_5,0,5,80,127,3776150892
72,16,16,Jits_ISO_5,1,5,56,103,3776161460
72,16,16,Jits_ISO_5,2,5,63,98,3776171656
72,16,16,Jits_ISO_5,3,1,48,31,3776198292
72,16,16,Jits_ISO_5,0,1,48,30,3776626924
72,16,16,Jits_ISO_5,1,5,80,127,3776641344
72,16,16,Jits_ISO_5,2,5,56,103,3776660828
72,16,16,Jits_ISO_5,3,5,63,98,3776730488
72,16,16,Jits_ISO_5,0,1,48,32,3777136024
72,16,16,Jits_ISO_5,1,5,56,103,3777151484
72,16,16,Jits_ISO_5,2,5,80,127,3777180936
72,16,16,Jits_ISO_5,3,5,63,98,3777200496
72,16,16,Jits_ISO_5,0,1,48,33,3777606088
72,16,16,Jits_ISO_5,1,5,63,98,3777640880
72,16,16,Jits_ISO_5,2,5,56,103,3777702452
72,16,16,Jits_ISO_5,3,5,80,127,3777730856
72,16,16,Jits_ISO_5,0,1,48,39,3778105272
72,16,16,Jits_ISO_5,1,5,63,98,3778131320
72,16,16,Jits_ISO_5,2,5,80,127,3778134612
72,16,16,Jits_ISO_5,3,5,56,103,3778221584
72,16,16,Jits_ISO_5,0,1,48,29,3778621808
72,16,16,Jits_ISO_5,1,5,56,103,3778650452
72,16,16,Jits_ISO_5,2,5,63,98,3778681324
72,16,16,Jits_ISO_5,3,5,80,127,3778721392
72,16,16,Jits_ISO_5,0,1,48,34,3779126456
72,16,16,Jits_ISO_5,1,5,63,98,3779151380
72,16,16,Jits_ISO_5,2,5,56,103,3779191244
72,16,16,Jits_ISO_5,3,5,80,127,3779210508
72,16,16,Jits_ISO_5,0,1,48,34,3779570528
72,16,16,Jits_ISO_5,1,5,63,98,3779661380
72,16,16,Jits_ISO_5,2,5,56,103,3779701304
72,16,16,Jits_ISO_5,3,5,80,127,3779711352
72,16,16,Jits_ISO_5,0,1,48,38,3780102632
72,16,16,Jits_ISO_5,1,5,80,127,3780141392
72,16,16,Jits_ISO_5,2,5,63,98,3780210932
72,16,16,Jits_ISO_5,3,5,56,103,3780230564
72,16,16,Jits_ISO_5,0,1,48,30,3780557780
72,16,16,Jits_ISO_5,1,5,56,103,3780630788
72,16,16,Jits_ISO_5,2,5,80,127,3780651400
72,16,16,Jits_ISO_5,3,5,63,98,3780691416
72,16,16,Jits_ISO_5,0,1,48,32,3781080452
72,16,16,Jits_ISO_5,1,5,63,98,3781140856
72,16,16,Jits_ISO_5,2,5,80,127,3781161464
72,16,16,Jits_ISO_5,3,5,56,103,3781201336
72,16,16,Jits_ISO_5,0,1,48,35,3781546680
72,16,16,Jits_ISO_5,1,5,63,98,3781641168
72,16,16,Jits_ISO_5,2,5,56,103,3781661032
72,16,16,Jits_ISO_5,3,5,80,127,3781671448
72,16,16,Jits_ISO_5,0,1,48,30,3782088288
72,16,16,Jits_ISO_5,1,5,80,127,3782141292
72,16,16,Jits_ISO_5,2,5,56,103,3782160628
72,16,16,Jits_ISO_5,3,5,63,98,3782190436
72,16,16,Jits_ISO_5,0,1,48,35,3782530120
72,16,16,Jits_ISO_5,1,5,56,103,3782710608
72,16,16,Jits_ISO_5,2,5,80,127,3782713676
72,16,16,Jits_ISO_5,3,5,63,98,3782731388
72,16,16,Jits_ISO_5,0,1,48,34,3783095400
72,16,16,Jits_ISO_5,1,5,63,98,3783130416
72,16,16,Jits_ISO_5,2,5,56,103,3783161212
72,16,16,Jits_ISO_5,3,5,80,127,3783220536
72,16,16,Jits_ISO_5,0,1,48,27,3783640164
72,16,16,Jits_ISO_5,1,5,63,98,3783711208
72,16,16,Jits_ISO_5,2,5,56,103,3783721256
72,16,16,Jits_ISO_5,3,5,80,127,3783730404
72,16,16,Jits_ISO_5,0,1,48,27,3784157352
72,16,16,Jits_ISO_5,1,5,56,103,3784160528
72,16,16,Jits_ISO_5,2,5,80,127,3784191476
72,16,16,Jits_ISO_5,3,5,63,98,3784200552
72,16,16,Jits_ISO_5,0,1,48,28,3784635664
72,16,16,Jits_ISO_5,1,5,63,98,3784701320
72,16,16,Jits_ISO_5,2,5,56,103,3784710468
72,16,16,Jits_ISO_5,3,5,80,127,3784731208
72,16,16,Jits_ISO_5,0,1,48,27,3785129876
72,16,16,Jits_ISO_5,1,5,56,103,3785131236
72,16,16,Jits_ISO_5,2,5,63,98,3785190724
72,16,16,Jits_ISO_5,3,5,80,127,3785193868
72,16,16,Jits_ISO_5,0,1,48,27,3785621120
72,16,16,Jits_ISO_5,1,5,80,127,3785650516
72,16,16,Jits_ISO_5,2,5,56,103,3785660712
72,16,16,Jits_ISO_5,3,5,63,98,3785730448
72,16,16,Jits_ISO_5,0,1,48,21,3786138844
72,16,16,Jits_ISO_5,1,5,80,127,3786141032
72,16,16,Jits_ISO_5,2,5,56,103,3786210784
72,16,16,Jits_ISO_5,3,5,63,98,3786221056
72,16,16,Jits_ISO_5,0,1,48,23,3786645380
72,16,16,Jits_ISO_5,1,5,63,98,3786680700
72,16,16,Jits_ISO_5,2,5,56,103,3786691192
72,16,16,Jits_ISO_5,3,5,80,127,3786711356
72,16,16,Jits_ISO_5,0,5,80,127,3787131220
72,16,16,Jits_ISO_5,1,1,48,24,3787133888
72,16,16,Jits_ISO_5,2,5,63,98,3787190704
72,16,16,Jits_ISO_5,3,5,56,103,3787230568
72,16,16,Jits_ISO_5,0,1,48,28,3787636180
72,16,16,Jits_ISO_5,1,5,56,103,3787670824
72,16,16,Jits_ISO_5,2,5,63,98,3787681392
72,16,16,Jits_ISO_5,3,5,80,127,3787721104
72,16,16,Jits_ISO_5,0,1,48,27,3788095384
72,16,16,Jits_ISO_5,1,5,56,103,3788130628
72,16,16,Jits_ISO_5,2,5,80,127,3788161276
72,16,16,Jits_ISO_5,3,5,63,98,3788210412
72,16,16,Jits_ISO_5,0,1,48,23,3788601240
72,16,16,Jits_ISO_5,1,5,56,103,3788671340
72,16,16,Jits_ISO_5,2,5,63,98,3788711180
72,16,16,Jits_ISO_5,3,5,80,127,3788714476
72,16,16,Jits_ISO_5,0,1,48,20,3789071076
72,16,16,Jits_ISO_5,1,5,56,103,3789171052
72,16,16,Jits_ISO_5,2,5,63,98,3789181468
72,16,16,Jits_ISO_5,3,5,80,127,3789200880
72,16,16,Jits_ISO_5,0,1,48,27,3789598440
72,16,16,Jits_ISO_5,1,5,56,103,3789630792
72,16,16,Jits_ISO_5,2,5,80,127,3789633784
72,16,16,Jits_ISO_5,3,5,63,98,3789670652
72,16,16,Jits_ISO_5,0,1,48,30,3790062580
72,16,16,Jits_ISO_5,1,5,63,98,3790170428
72,16,16,Jits_ISO_5,2,5,56,103,3790201224
72,16,16,Jits_ISO_5,3,5,80,127,3790220636
72,16,16,Jits_ISO_5,0,1,48,32,3790622108
72,16,16,Jits_ISO_5,1,5,80,127,3790640412
72,16,16,Jits_ISO_5,2,5,56,103,3790650780
72,16,16,Jits_ISO_5,3,5,63,98,3790660904
72,16,16,Jits_ISO_5,0,1,48,27,3791121464
72,16,16,Jits_ISO_5,1,5,56,103,3791141264
72,16,16,Jits_ISO_5,2,5,80,127,3791181376
72,16,16,Jits_ISO_5,3,5,63,98,3791211048
72,16,16,Jits_ISO_5,0,1,48,36,3791605456
72,16,16,Jits_ISO_5,1,5,63,98,3791651112
72,16,16,Jits_ISO_5,2,5,80,127,3791661460
72,16,16,Jits_ISO_5,3,5,56,103,3791670608
72,16,16,Jits_ISO_5,0,1,48,29,3792104356
72,16,16,Jits_ISO_5,1,5,56,103,3792130460
72,16,16,Jits_ISO_5,2,5,63,98,3792201288
72,16,16,Jits_ISO_5,3,5,80,127,3792211316
72,16,16,Jits_ISO_5,0,1,48,29,3792618548
72,16,16,Jits_ISO_5,1,5,80,127,3792631316
72,16,16,Jits_ISO_5,2,5,56,103,3792641436
72,16,16,Jits_ISO_5,3,5,63,98,3792690440
72,16,16,Jits_ISO_5,0,1,48,27,3793106812
72,16,16,Jits_ISO_5,1,5,80,127,3793141160
72,16,16,Jits_ISO_5,2,5,56,103,3793200428
72,16,16,Jits_ISO_5,3,5,63,98,3793231160
72,16,16,Jits_ISO_5,0,1,48,25,3793622964
72,16,16,Jits_ISO_5,1,5,56,103,3793640748
72,16,16,Jits_ISO_5,2,5,80,127,3793643740
72,16,16,Jits_ISO_5,3,5,63,98,3793680608
72,16,16,Jits_ISO_5,0,1,48,34,3794094664
72,16,16,Jits_ISO_5,1,5,56,103,3794171264
72,16,16,Jits_ISO_5,2,5,63,98,3794201144
72,16,16,Jits_ISO_5,3,5,80,127,3794211116
72,16,16,Jits_ISO_5,0,1,48,28,3794610440
72,16,16,Jits_ISO_5,1,5,63,98,3794681260
72,16,16,Jits_ISO_5,2,5,80,127,3794690336
72,16,16,Jits_ISO_5,3,5,56,103,3794700608
72,16,16,Jits_ISO_5,0,1,48,28,3795115636
72,16,16,Jits_ISO_5,1,5,80,127,3795130876
72,16,16,Jits_ISO_5,2,5,56,103,3795181148
72,16,16,Jits_ISO_5,3,5,63,98,3795184144
72,16,16,Jits_ISO_5,0,1,48,36,3795570344
72,16,16,Jits_ISO_5,1,5,56,103,3795662128
72,16,16,Jits_ISO_5,2,5,80,127,3795680712
72,16,16,Jits_ISO_5,3,5,63,98,3795690836
72,16,16,Jits_ISO_5,0,1,48,25,3796088492
72,16,16,Jits_ISO_5,1,5,63,98,3796141348
72,16,16,Jits_ISO_5,2,5,56,103,3796171172
72,16,16,Jits_ISO_5,3,5,80,127,3796190492
72,16,16,Jits_ISO_5,0,1,48,23,3796597072
72,16,16,Jits_ISO_5,1,5,56,103,3796651272
72,16,16,Jits_ISO_5,2,5,80,127,3796660568
72,16,16,Jits_ISO_5,3,5,63,98,3796731200
72,16,16,Jits_ISO_5,0,1,48,25,3797072832
72,16,16,Jits_ISO_5,1,5,63,98,3797140816
72,16,16,Jits_ISO_5,2,5,80,127,3797180736
72,16,16,Jits_ISO_5,3,5,56,103,3797220748
72,16,16,Jits_ISO_5,0,1,48,26,3797610708
72,16,16,Jits_ISO_5,1,5,56,103,3797650812
72,16,16,Jits_ISO_5,2,5,63,98,3797661156
72,16,16,Jits_ISO_5,3,5,80,127,3797680644
72,16,16,Jits_ISO_5,0,1,48,22,3798094768
72,16,16,Jits_ISO_5,1,5,63,98,3798190388
72,16,16,Jits_ISO_5,2,5,80,127,3798210920
72,16,16,Jits_ISO_5,3,5,56,103,3798231528
72,16,16,Jits_ISO_5,0,1,48,19,3798626356
72,16,16,Jits_ISO_5,1,5,56,103,3798630656
72,16,16,Jits_ISO_5,2,5,80,127,3798710524
72,16,16,Jits_ISO_5,3,5,63,98,3798721004
72,16,16,Jits_ISO_5,0,1,48,26,3799084416
72,16,16,Jits_ISO_5,1,5,80,127,3799170328
72,16,16,Jits_ISO_5,2,5,63,98,3799180580
72,16,16,Jits_ISO_5,3,5,56,103,3799211304
72,16,16,Jits_ISO_5,0,1,48,25,3799583100
72,16,16,Jits_ISO_5,1,5,63,98,3799631176
72,16,16,Jits_ISO_5,2,5,80,127,3799671112
72,16,16,Jits_ISO_5,3,5,56,103,3799730436
72,16,16,Jits_ISO_5,0,1,48,19,3800135448
72,16,16,Jits_ISO_5,1,5,63,98,3800141172
72,16,16,Jits_ISO_5,2,5,56,103,3800191300
72,16,16,Jits_ISO_5,3,5,80,127,3800221120
72,16,16,Jits_ISO_5,0,1,48,29,3800571036
72,16,16,Jits_ISO_5,1,5,80,127,3800651024
72,16,16,Jits_ISO_5,2,5,63,98,3800661440
72,16,16,Jits_ISO_5,3,5,56,103,3800731104
72,16,16,Jits_ISO_5,0,1,48,33,3801135496
72,16,16,Jits_ISO_5,1,5,80,127,3801220360
72,16,16,Jits_ISO_5,2,5,56,103,3801230548
72,16,16,Jits_ISO_5,3,5,63,98,3801234504
72,16,16,Jits_ISO_5,0,1,48,28,3801598360
72,16,16,Jits_ISO_5,1,5,56,103,3801660904
72,16,16,Jits_ISO_5,2,5,80,127,3801681140
72,16,16,Jits_ISO_5,3,5,63,98,3801690364
72,16,16,Jits_ISO_5,0,1,48,26,3802105148
72,16,16,Jits_ISO_5,1,5,63,98,3802170904
72,16,16,Jits_ISO_5,2,5,56,103,3802210528
72,16,16,Jits_ISO_5,3,5,80,127,3802231136
72,16,16,Jits_ISO_5,0,1,48,30,3802608792
72,16,16,Jits_ISO_5,1,5,63,98,3802670468
72,16,16,Jits_ISO_5,2,5,56,103,3802731012
72,16,16,Jits_ISO_5,3,5,80,127,3802734008
72,16,16,Jits_ISO_5,0,1,48,32,3803111508
72,16,16,Jits_ISO_5,1,5,56,103,3803131308
72,16,16,Jits_ISO_5,2,5,80,127,3803150572
72,16,16,Jits_ISO_5,3,5,63,98,3803190580
72,16,16,Jits_ISO_5,0,1,48,28,3803611084
72,16,16,Jits_ISO_5,1,5,56,103,3803660856
72,16,16,Jits_ISO_5,2,5,63,98,3803681092
72,16,16,Jits_ISO_5,3,5,80,127,3803691288
72,16,16,Jits_ISO_5,0,1,48,31,3804097028
72,16,16,Jits_ISO_5,1,5,80,127,3804130776
72,16,16,Jits_ISO_5,2,5,56,103,3804161276
72,16,16,Jits_ISO_5,3,5,63,98,3804201268
72,16,16,Jits_ISO_5,0,1,48,30,3804639276
72,16,16,Jits_ISO_5,1,5,80,127,3804640628
72,16,16,Jits_ISO_5,2,5,56,103,3804661160
72,16,16,Jits_ISO_5,3,5,63,98,3804720500
72,16,16,Jits_ISO_5,0,1,48,25,3805097768
72,16,16,Jits_ISO_5,1,5,56,103,3805150624
72,16,16,Jits_ISO_5,2,5,80,127,3805170936
72,16,16,Jits_ISO_5,3,5,63,98,3805230332
72,16,16,Jits_ISO_5,0,1,48,24,3805593092
72,16,16,Jits_ISO_5,1,5,80,127,3805631028
72,16,16,Jits_ISO_5,2,5,56,103,3805641148
72,16,16,Jits_ISO_5,3,5,63,98,3805680864
72,16,16,Jits_ISO_5,0,1,48,25,3806035656
72,16,16,Jits_ISO_5,1,5,63,98,3806130536
72,16,16,Jits_ISO_5,2,5,56,103,3806170532
72,16,16,Jits_ISO_5,3,5,80,127,3806173452
72,16,16,Jits_ISO_5,0,1,48,19,3806554336
72,16,16,Jits_ISO_5,1,5,63,98,3806650920
72,16,16,Jits_ISO_5,2,5,80,127,3806690560
72,16,16,Jits_ISO_5,3,5,56,103,3806721428
72,16,16,Jits_ISO_5,0,1,48,31,3807036012
72,16,16,Jits_ISO_5,1,5,56,103,3807141216
72,16,16,Jits_ISO_5,2,5,63,98,3807150440
72,16,16,Jits_ISO_5,3,5,80,127,3807181308
72,16,16,Jits_ISO_5,0,1,48,28,3807585344
72,16,16,Jits_ISO_5,1,5,80,127,3807630848
72,16,16,Jits_ISO_5,2,5,63,98,3807701264
72,16,16,Jits_ISO_5,3,5,56,103,3807710708
72,16,16,Jits_ISO_5,0,1,48,24,3808077656
72,16,16,Jits_ISO_5,1,5,63,98,3808130436
72,16,16,Jits_ISO_5,2,5,56,103,3808201072
72,16,16,Jits_ISO_5,3,5,80,127,3808211196
72,16,16,Jits_ISO_5,0,1,48,21,3808581972
72,16,16,Jits_ISO_5,1,5,63,98,3808631068
72,16,16,Jits_ISO_5,2,5,56,103,3808650556
72,16,16,Jits_ISO_5,3,5,80,127,3808690628
72,16,16,Jits_ISO_5,0,1,48,28,3809072084
72,16,16,Jits_ISO_5,1,5,56,103,3809141212
72,16,16,Jits_ISO_5,2,5,63,98,3809151260
72,16,16,Jits_ISO_5,3,5,80,127,3809231184
72,16,16,Jits_ISO_5,0,1,48,27,3809602484
72,16,16,Jits_ISO_5,1,5,63,98,3809630460
72,16,16,Jits_ISO_5,2,5,56,103,3809661256
72,16,16,Jits_ISO_5,3,5,80,127,3809701192
72,16,16,Jits_ISO_5,0,1,48,27,3810042932
72,16,16,Jits_ISO_5,1,5,56,103,3810131240
72,16,16,Jits_ISO_5,2,5,63,98,3810171164
72,16,16,Jits_ISO_5,3,5,80,127,3810211172
72,16,16,Jits_ISO_5,0,1,48,29,3810544532
72,16,16,Jits_ISO_5,1,5,80,127,3810631044
72,16,16,Jits_ISO_5,2,5,56,103,3810711048
72,16,16,Jits_ISO_5,3,5,63,98,3810721092
72,16,16,Jits_ISO_5,0,1,48,25,3811060456
72,16,16,Jits_ISO_5,1,5,56,103,3811170624
72,16,16,Jits_ISO_5,2,5,63,98,3811173840
72,16,16,Jits_ISO_5,3,5,80,127,3811181116
72,16,16,Jits_ISO_5,0,1,48,23,3811538000
72,16,16,Jits_ISO_5,1,5,56,103,3811690804
72,16,16,Jits_ISO_5,2,5,63,98,3811711488
72,16,16,Jits_ISO_5,3,5,80,127,3811720488
72,16,16,Jits_ISO_5,0,1,48,28,3812026724
72,16,16,Jits_ISO_5,1,5,63,98,3812150808
72,16,16,Jits_ISO_5,2,5,80,127,3812161004
72,16,16,Jits_ISO_5,3,5,56,103,3812181312
72,16,16,Jits_ISO_5,0,1,48,27,3812509212
72,16,16,Jits_ISO_5,1,5,63,98,3812651264
72,16,16,Jits_ISO_5,2,5,56,103,3812731232
72,16,16,Jits_ISO_5,3,5,80,127,3812734296
72,16,16,Jits_ISO_5,0,1,48,26,3813005784
72,16,16,Jits_ISO_5,1,5,63,98,3813150996
72,16,16,Jits_ISO_5,2,5,56,103,3813170704
72,16,16,Jits_ISO_5,3,5,80,127,3813201152
72,16,16,Jits_ISO_5,0,1,48,28,3813483040
72,16,16,Jits_ISO_5,1,5,56,103,3813651096
72,16,16,Jits_ISO_5,2,5,63,98,3813671332
72,16,16,Jits_ISO_5,3,5,80,127,3813680556
72,16,16,Jits_ISO_5,0,1,48,34,3813994308
72,16,16,Jits_ISO_5,1,5,56,103,3814181176
72,16,16,Jits_ISO_5,2,5,63,98,3814211020
72,16,16,Jits_ISO_5,3,5,80,127,3814214384
72,16,16,Jits_ISO_5,0,1,48,29,3814525432
72,16,16,Jits_ISO_5,1,5,56,103,3814630856
72,16,16,Jits_ISO_5,2,5,63,98,3814670944
72,16,16,Jits_ISO_5,3,5,80,127,3814731132
72,16,16,Jits_ISO_5,0,1,48,33,3815067116
72,16,16,Jits_ISO_5,1,5,56,103,3815150988
72,16,16,Jits_ISO_5,2,5,63,98,3815161184
72,16,16,Jits_ISO_5,3,5,80,127,3815220880
72,16,16,Jits_ISO_5,0,1,48,29,3815543112
72,16,16,Jits_ISO_5,1,5,56,103,3815650856
72,16,16,Jits_ISO_5,2,5,80,127,3815671092
72,16,16,Jits_ISO_5,3,5,63,98,3815700768
72,16,16,Jits_ISO_5,0,1,48,28,3816005304
72,16,16,Jits_ISO_5,1,5,80,127,3816151268
72,16,16,Jits_ISO_5,2,5,56,103,3816160784
72,16,16,Jits_ISO_5,3,5,63,98,3816181096
72,16,16,Jits_ISO_5,0,1,48,32,3816516124
72,16,16,Jits_ISO_5,1,5,63,98,3816640808
72,16,16,Jits_ISO_5,2,5,80,127,3816720900
72,16,16,Jits_ISO_5,3,5,56,103,3816730948
72,16,16,Jits_ISO_5,0,1,48,32,3817077892
72,16,16,Jits_ISO_5,1,5,80,127,3817201152
72,16,16,Jits_ISO_5,2,5,56,103,3817220416
72,16,16,Jits_ISO_5,3,5,63,98,3817223632
72,16,16,Jits_ISO_5,0,1,48,30,3817577700
72,16,16,Jits_ISO_5,1,5,63,98,3817671064
72,16,16,Jits_ISO_5,2,5,80,127,3817674280
72,16,16,Jits_ISO_5,3,5,56,103,3817730328
72,16,16,Jits_ISO_5,0,1,48,33,3818119840
72,16,16,Jits_ISO_5,1,5,56,103,3818151252
72,16,16,Jits_ISO_5,2,5,80,127,3818160772
72,16,16,Jits_ISO_5,3,5,63,98,3818200560
72,16,16,Jits_ISO_5,0,1,48,27,3818592968
72,16,16,Jits_ISO_5,1,5,56,103,3818630756
72,16,16,Jits_ISO_5,2,5,63,98,3818690920
72,16,16,Jits_ISO_5,3,5,80,127,3818701024
72,16,16,Jits_ISO_5,0,1,48,33,3819058372
72,16,16,Jits_ISO_5,1,5,63,98,3819140676
72,16,16,Jits_ISO_5,2,5,80,127,3819181348
72,16,16,Jits_ISO_5,3,5,56,103,3819221284
72,16,16,Jits_ISO_5,0,1,48,30,3819557044
72,16,16,Jits_ISO_5,1,5,56,103,3819641088
72,16,16,Jits_ISO_5,2,5,63,98,3819721016
72,16,16,Jits_ISO_5,3,5,80,127,3819724604
72,16,16,Jits_ISO_5,0,9999,9999,9999,3760428132
72,16,16,Jits_ISO_5,1,9999,9999,9999,3760928824
72,16,16,Jits_ISO_5,2,9999,9999,9999,3761428548
72,16,16,Jits_ISO_5,3,9999,9999,9999,3761928292
72,16,16,Jits_ISO_5,4,9999,9999,9999,3762429004
72,16,16,Jits_ISO_5,5,9999,9999,9999,3762928756
72,16,16,Jits_ISO_5,6,9999,9999,9999,3763428416
72,16,16,Jits_ISO_5,7,9999,9999,9999,3763928168
72,16,16,Jits_ISO_5,8,9999,9999,9999,3764428872
72,16,16,Jits_ISO_5,9,9999,9999,9999,3764928608
72,16,16,Jits_ISO_5,10,9999,9999,9999,3765428284
72,16,16,Jits_ISO_5,11,9999,9999,9999,3765929064
72,16,16,Jits_ISO_5,12,9999,9999,9999,3766428724
72,16,16,Jits_ISO_5,13,9999,9999,9999,3766928456
72,16,16,Jits_ISO_5,14,9999,9999,9999,3767428180
72,16,16,Jits_ISO_5,15,9999,9999,9999,3767928900
72,16,16,Jits_ISO_5,16,9999,9999,9999,3768428636
72,16,16,Jits_ISO_5,17,9999,9999,9999,3768928372
72,16,16,Jits_ISO_5,18,9999,9999,9999,3769429076
72,16,16,Jits_ISO_5,19,9999,9999,9999,3769928812
72,16,16,Jits_ISO_5,20,9999,9999,9999,3770428472
72,16,16,Jits_ISO_5,21,9999,9999,9999,3770928184
72,16,16,Jits_ISO_5,22,9999,9999,9999,3771428960
72,16,16,Jits_ISO_5,23,9999,9999,9999,3771928696
72,16,16,Jits_ISO_5,24,9999,9999,9999,3772428356
72,16,16,Jits_ISO_5,25,9999,9999,9999,3772928084
72,16,16,Jits_ISO_5,26,9999,9999,9999,3773428792
72,16,16,Jits_ISO_5,27,9999,9999,9999,3773928500
72,16,16,Jits_ISO_5,28,9999,9999,9999,3774428240
72,16,16,Jits_ISO_5,29,9999,9999,9999,3774928948
72,16,16,Jits_ISO_5,30,9999,9999,9999,3775428696
72,16,16,Jits_ISO_5,31,9999,9999,9999,3775928372
72,16,16,Jits_ISO_5,32,9999,9999,9999,3776428116
72,16,16,Jits_ISO_5,33,9999,9999,9999,3776928836
72,16,16,Jits_ISO_5,34,9999,9999,9999,3777428572
72,16,16,Jits_ISO_5,35,9999,9999,9999,3777928304
72,16,16,Jits_ISO_5,36,9999,9999,9999,3778428996
72,16,16,Jits_ISO_5,37,9999,9999,9999,3778928736
72,16,16,Jits_ISO_5,38,9999,9999,9999,3779428468
72,16,16,Jits_ISO_5,39,9999,9999,9999,3779928132
72,16,16,Jits_ISO_5,40,9999,9999,9999,3780428916
72,16,16,Jits_ISO_5,41,9999,9999,9999,3780928572
72,16,16,Jits_ISO_5,42,9999,9999,9999,3781428280
72,16,16,Jits_ISO_5,43,9999,9999,9999,3781929052
72,16,16,Jits_ISO_5,44,9999,9999,9999,3782428784
72,16,16,Jits_ISO_5,45,9999,9999,9999,3782928444
72,16,16,Jits_ISO_5,46,9999,9999,9999,3783428176
72,16,16,Jits_ISO_5,47,9999,9999,9999,3783928888
72,16,16,Jits_ISO_5,48,9999,9999,9999,3784428624
72,16,16,Jits_ISO_5,49,9999,9999,9999,3784928364
72,16,16,Jits_ISO_5,50,9999,9999,9999,3785429060
72,16,16,Jits_ISO_5,51,9999,9999,9999,3785928796
72,16,16,Jits_ISO_5,52,9999,9999,9999,3786428532
72,16,16,Jits_ISO_5,53,9999,9999,9999,3786928192
72,16,16,Jits_ISO_5,54,9999,9999,9999,3787428976
72,16,16,Jits_ISO_5,55,9999,9999,9999,3787928652
72,16,16,Jits_ISO_5,56,9999,9999,9999,3788428388
72,16,16,Jits_ISO_5,57,9999,9999,9999,3788928116
72,16,16,Jits_ISO_5,58,9999,9999,9999,3789428820
72,16,16,Jits_ISO_5,59,9999,9999,9999,3789928536
72,16,16,Jits_ISO_5,60,9999,9999,9999,3790428276
72,16,16,Jits_ISO_5,61,9999,9999,9999,3790928980
72,16,16,Jits_ISO_5,62,9999,9999,9999,3791428712
72,16,16,Jits_ISO_5,63,9999,9999,9999,3791928420
72,16,16,Jits_ISO_5,64,9999,9999,9999,3792428148
72,16,16,Jits_ISO_5,65,9999,9999,9999,3792928848
72,16,16,Jits_ISO_5,66,9999,9999,9999,3793428584
72,16,16,Jits_ISO_5,67,9999,9999,9999,3793928308
72,16,16,Jits_ISO_5,68,9999,9999,9999,3794429016
72,16,16,Jits_ISO_5,69,9999,9999,9999,3794928756
72,16,16,Jits_ISO_5,70,9999,9999,9999,3795428404
72,16,16,Jits_ISO_5,71,9999,9999,9999,3795928140
72,16,16,Jits_ISO_5,72,9999,9999,9999,3796428916
72,16,16,Jits_ISO_5,73,9999,9999,9999,3796928580
72,16,16,Jits_ISO_5,74,9999,9999,9999,3797428312
72,16,16,Jits_ISO_5,75,9999,9999,9999,3797929016
72,16,16,Jits_ISO_5,76,9999,9999,9999,3798428756
72,16,16,Jits_ISO_5,77,9999,9999,9999,3798928496
72,16,16,Jits_ISO_5,78,9999,9999,9999,3799428156
72,16,16,Jits_ISO_5,79,9999,9999,9999,3799928936
72,16,16,Jits_ISO_5,80,9999,9999,9999,3800428596
72,16,16,Jits_ISO_5,81,9999,9999,9999,3800928332
72,16,16,Jits_ISO_5,82,9999,9999,9999,3801429112
72,16,16,Jits_ISO_5,83,9999,9999,9999,3801928772
72,16,16,Jits_ISO_5,84,9999,9999,9999,3802428512
72,16,16,Jits_ISO_5,85,9999,9999,9999,3802928220
72,16,16,Jits_ISO_5,86,9999,9999,9999,3803428916
72,16,16,Jits_ISO_5,87,9999,9999,9999,3803928652
72,16,16,Jits_ISO_5,88,9999,9999,9999,3804428384
72,16,16,Jits_ISO_5,89,9999,9999,9999,3804928124
72,16,16,Jits_ISO_5,90,9999,9999,9999,3805428832
72,16,16,Jits_ISO_5,91,9999,9999,9999,3805928560
72,16,16,Jits_ISO_5,92,9999,9999,9999,3806428212
72,16,16,Jits_ISO_5,93,9999,9999,9999,3806928992
72,16,16,Jits_ISO_5,94,9999,9999,9999,3807428724
72,16,16,Jits_ISO_5,95,9999,9999,9999,3807928384
72,16,16,Jits_ISO_5,96,9999,9999,9999,3808428124
72,16,16,Jits_ISO_5,97,9999,9999,9999,3808928828
72,16,16,Jits_ISO_5,98,9999,9999,9999,3809428560
72,16,16,Jits_ISO_5,99,9999,9999,9999,3809928292
72,16,16,Jits_ISO_5,100,9999,9999,9999,3810428996
72,16,16,Jits_ISO_5,101,9999,9999,9999,3810928732
72,16,16,Jits_ISO_5,102,9999,9999,9999,3811428460
72,16,16,Jits_ISO_5,103,9999,9999,9999,3811928124
72,16,16,Jits_ISO_5,104,9999,9999,9999,3812428876
72,16,16,Jits_ISO_5,105,9999,9999,9999,3812928608
72,16,16,Jits_ISO_5,106,9999,9999,9999,3813428320
72,16,16,Jits_ISO_5,107,9999,9999,9999,3813929020
72,16,16,Jits_ISO_5,108,9999,9999,9999,3814428748
72,16,16,Jits_ISO_5,109,9999,9999,9999,3814928484
72,16,16,Jits_ISO_5,110,9999,9999,9999,3815428148
72,16,16,Jits_ISO_5,111,9999,9999,9999,3815928928
72,16,16,Jits_ISO_5,112,9999,9999,9999,3816428660
72,16,16,Jits_ISO_5,113,9999,9999,9999,3816928324
72,16,16,Jits_ISO_5,114,9999,9999,9999,3817429100
72,16,16,Jits_ISO_5,115,9999,9999,9999,3817928828
72,16,16,Jits_ISO_5,116,9999,9999,9999,3818428484
72,16,16,Jits_ISO_5,117,9999,9999,9999,3818928216
72,16,16,Jits_ISO_5,118,9999,9999,9999,3819428924
72,16,16,Jits_ISO_5,119,9999,9999,9999,3819928652
72,17,7,Jits_ISO_8,0,5,56,103,3830152660
72,17,7,Jits_ISO_8,1,5,63,98,3830155680
72,17,7,Jits_ISO_8,2,5,80,127,3830158804
72,17,7,Jits_ISO_8,0,5,56,103,3830953260
72,17,7,Jits_ISO_8,1,5,63,98,3830956584
72,17,7,Jits_ISO_8,2,5,80,127,3830959704
72,17,7,Jits_ISO_8,3,1,48,26,3831191728
72,17,7,Jits_ISO_8,0,5,80,127,3831692516
72,17,7,Jits_ISO_8,1,1,48,36,3831755272
72,17,7,Jits_ISO_8,2,5,63,98,3831782648
72,17,7,Jits_ISO_8,3,5,56,103,3831792992
72,17,7,Jits_ISO_8,0,1,48,33,3832458932
72,17,7,Jits_ISO_8,1,5,56,103,3832512768
72,17,7,Jits_ISO_8,2,5,63,98,3832523188
72,17,7,Jits_ISO_8,3,5,80,127,3832613380
72,17,7,Jits_ISO_8,0,1,48,35,3833268612
72,17,7,Jits_ISO_8,1,5,63,98,3833282880
72,17,7,Jits_ISO_8,2,5,80,127,3833312708
72,17,7,Jits_ISO_8,3,5,56,103,3833343428
72,17,7,Jits_ISO_8,0,1,48,38,3834030024
72,17,7,Jits_ISO_8,1,5,56,103,3834082588
72,17,7,Jits_ISO_8,2,5,80,127,3834183000
72,17,7,Jits_ISO_8,3,5,63,98,3834233276
72,17,7,Jits_ISO_8,0,5,56,103,3834882460
72,17,7,Jits_ISO_8,1,1,48,34,3834902968
72,17,7,Jits_ISO_8,2,5,80,127,3834932656
72,17,7,Jits_ISO_8,3,5,63,98,3834972396
72,17,7,Jits_ISO_8,0,1,48,34,3835641764
72,17,7,Jits_ISO_8,1,5,80,127,3835712840
72,17,7,Jits_ISO_8,2,5,63,98,3835742800
72,17,7,Jits_ISO_8,3,5,56,103,3835813380
72,17,7,Jits_ISO_8,0,1,48,34,3836488992
72,17,7,Jits_ISO_8,1,5,63,98,3836543420
72,17,7,Jits_ISO_8,2,5,56,103,3836572948
72,17,7,Jits_ISO_8,3,5,80,127,3836632500
72,17,7,Jits_ISO_8,0,5,56,103,3837282752
72,17,7,Jits_ISO_8,1,5,80,127,3837285672
72,17,7,Jits_ISO_8,2,1,48,32,3837369700
72,17,7,Jits_ISO_8,3,5,63,98,3837402548
72,17,7,Jits_ISO_8,0,1,48,33,3838120040
72,17,7,Jits_ISO_8,1,5,56,103,3838163452
72,17,7,Jits_ISO_8,2,5,80,127,3838203468
72,17,7,Jits_ISO_8,3,5,63,98,3838212544
72,17,7,Jits_ISO_8,0,5,56,103,3838923244
72,17,7,Jits_ISO_8,1,1,48,30,3838939172
72,17,7,Jits_ISO_8,2,5,80,127,3838942652
72,17,7,Jits_ISO_8,3,5,63,98,3839022372
72,17,7,Jits_ISO_8,0,5,80,127,3839712632
72,17,7,Jits_ISO_8,1,1,48,38,3839795620
72,17,7,Jits_ISO_8,2,5,56,103,3839812904
72,17,7,Jits_ISO_8,3,5,63,98,3839823324
72,17,7,Jits_ISO_8,0,5,63,98,3840482620
72,17,7,Jits_ISO_8,1,1,48,42,3840527472
72,17,7,Jits_ISO_8,2,5,80,127,3840543304
72,17,7,Jits_ISO_8,3,5,56,103,3840553428
72,17,7,Jits_ISO_8,0,1,48,31,3841248344
72,17,7,Jits_ISO_8,1,5,56,103,3841282392
72,17,7,Jits_ISO_8,2,5,63,98,3841353132
72,17,7,Jits_ISO_8,3,5,80,127,3841356644
72,17,7,Jits_ISO_8,0,1,48,37,3842015600
72,17,7,Jits_ISO_8,1,5,63,98,3842112908
72,17,7,Jits_ISO_8,2,5,56,103,3842163020
72,17,7,Jits_ISO_8,3,5,80,127,3842166384
72,17,7,Jits_ISO_8,0,1,48,35,3842838372
72,17,7,Jits_ISO_8,1,5,56,103,3842872672
72,17,7,Jits_ISO_8,2,5,80,127,3842875812
72,17,7,Jits_ISO_8,3,5,63,98,3842962716
72,17,7,Jits_ISO_8,0,1,48,33,3843612684
72,17,7,Jits_ISO_8,1,5,63,98,3843713632
72,17,7,Jits_ISO_8,2,5,56,103,3843802352
72,17,7,Jits_ISO_8,3,5,80,127,3843833448
72,17,7,Jits_ISO_8,0,1,48,37,3844493340
72,17,7,Jits_ISO_8,1,5,56,103,3844502952
72,17,7,Jits_ISO_8,2,5,63,98,3844603484
72,17,7,Jits_ISO_8,3,5,80,127,3844632936
72,17,7,Jits_ISO_8,0,5,63,98,3845322980
72,17,7,Jits_ISO_8,1,5,56,103,3845333548
72,17,7,Jits_ISO_8,2,1,48,42,3845339732
72,17,7,Jits_ISO_8,3,5,80,127,3845422404
72,17,7,Jits_ISO_8,0,1,48,37,3846104948
72,17,7,Jits_ISO_8,1,5,63,98,3846143412
72,17,7,Jits_ISO_8,2,5,56,103,3846223448
72,17,7,Jits_ISO_8,3,5,80,127,3846226584
72,17,7,Jits_ISO_8,0,1,48,41,3846880616
72,17,7,Jits_ISO_8,1,5,80,127,3846903412
72,17,7,Jits_ISO_8,2,5,63,98,3846922600
72,17,7,Jits_ISO_8,3,5,56,103,3846982928
72,17,7,Jits_ISO_8,0,1,48,35,3847665032
72,17,7,Jits_ISO_8,1,5,56,103,3847742704
72,17,7,Jits_ISO_8,2,5,63,98,3847763296
72,17,7,Jits_ISO_8,3,5,80,127,3847766660
72,17,7,Jits_ISO_8,0,5,63,98,3848483420
72,17,7,Jits_ISO_8,1,1,48,40,3848489752
72,17,7,Jits_ISO_8,2,5,80,127,3848563164
72,17,7,Jits_ISO_8,3,5,56,103,3848573284
72,17,7,Jits_ISO_8,0,1,48,35,3849271960
72,17,7,Jits_ISO_8,1,5,63,98,3849303452
72,17,7,Jits_ISO_8,2,5,56,103,3849322792
72,17,7,Jits_ISO_8,3,5,80,127,3849372904
72,17,7,Jits_ISO_8,0,1,48,33,3850025932
72,17,7,Jits_ISO_8,1,5,80,127,3850103532
72,17,7,Jits_ISO_8,2,5,63,98,3850143308
72,17,7,Jits_ISO_8,3,5,56,103,3850162500
72,17,7,Jits_ISO_8,0,1,48,31,3850827612
72,17,7,Jits_ISO_8,1,5,56,103,3850942868
72,17,7,Jits_ISO_8,2,5,63,98,3850953284
72,17,7,Jits_ISO_8,3,5,80,127,3850972548
72,17,7,Jits_ISO_8,0,1,48,27,3851607620
72,17,7,Jits_ISO_8,1,5,56,103,3851672984
72,17,7,Jits_ISO_8,2,5,63,98,3851763108
72,17,7,Jits_ISO_8,3,5,80,127,3851822452
72,17,7,Jits_ISO_8,0,1,48,35,3852473496
72,17,7,Jits_ISO_8,1,5,80,127,3852503412
72,17,7,Jits_ISO_8,2,5,56,103,3852512564
72,17,7,Jits_ISO_8,3,5,63,98,3852583348
72,17,7,Jits_ISO_8,0,1,48,32,3853235132
72,17,7,Jits_ISO_8,1,5,63,98,3853332704
72,17,7,Jits_ISO_8,2,5,80,127,3853423460
72,17,7,Jits_ISO_8,3,5,56,103,3853433284
72,17,7,Jits_ISO_8,0,1,48,25,3854054792
72,17,7,Jits_ISO_8,1,5,63,98,3854073244
72,17,7,Jits_ISO_8,2,5,80,127,3854123376
72,17,7,Jits_ISO_8,3,5,56,103,3854182656
72,17,7,Jits_ISO_8,0,1,48,24,3854831272
72,17,7,Jits_ISO_8,1,5,56,103,3854902624
72,17,7,Jits_ISO_8,2,5,80,127,3854952964
72,17,7,Jits_ISO_8,3,5,63,98,3854973272
72,17,7,Jits_ISO_8,0,1,48,29,3855616416
72,17,7,Jits_ISO_8,1,5,56,103,3855672736
72,17,7,Jits_ISO_8,2,5,80,127,3855733264
72,17,7,Jits_ISO_8,3,5,63,98,3855802796
72,17,7,Jits_ISO_8,0,1,48,24,3856355956
72,17,7,Jits_ISO_8,1,5,56,103,3856472504
72,17,7,Jits_ISO_8,2,5,80,127,3856503080
72,17,7,Jits_ISO_8,3,5,63,98,3856532980
72,17,7,Jits_ISO_8,0,1,48,24,3857146668
72,17,7,Jits_ISO_8,1,5,56,103,3857313116
72,17,7,Jits_ISO_8,2,5,80,127,3857332532
72,17,7,Jits_ISO_8,3,5,63,98,3857393220
72,17,7,Jits_ISO_8,0,1,48,36,3857954324
72,17,7,Jits_ISO_8,1,5,80,127,3858192696
72,17,7,Jits_ISO_8,2,5,56,103,3858203116
72,17,7,Jits_ISO_8,3,5,63,98,3858213240
72,17,7,Jits_ISO_8,0,1,48,29,3858906836
72,17,7,Jits_ISO_8,1,5,56,103,3858952644
72,17,7,Jits_ISO_8,2,5,80,127,3858992436
72,17,7,Jits_ISO_8,3,5,63,98,3859023244
72,17,7,Jits_ISO_8,0,5,56,103,3859722772
72,17,7,Jits_ISO_8,1,1,48,25,3859732192
72,17,7,Jits_ISO_8,2,5,63,98,3859753192
72,17,7,Jits_ISO_8,3,5,80,127,3859793304
72,17,7,Jits_ISO_8,0,5,80,127,3860473272
72,17,7,Jits_ISO_8,1,1,48,27,3860511836
72,17,7,Jits_ISO_8,2,5,63,98,3860523248
72,17,7,Jits_ISO_8,3,5,56,103,3860542832
72,17,7,Jits_ISO_8,0,1,48,29,3861255872
72,17,7,Jits_ISO_8,1,5,56,103,3861302584
72,17,7,Jits_ISO_8,2,5,80,127,3861373372
72,17,7,Jits_ISO_8,3,5,63,98,3861432640
72,17,7,Jits_ISO_8,0,5,80,127,3862103424
72,17,7,Jits_ISO_8,1,1,48,27,3862107144
72,17,7,Jits_ISO_8,2,5,63,98,3862192508
72,17,7,Jits_ISO_8,3,5,56,103,3862213100
72,17,7,Jits_ISO_8,0,1,48,33,3862842808
72,17,7,Jits_ISO_8,1,5,63,98,3862922552
72,17,7,Jits_ISO_8,2,5,56,103,3862943296
72,17,7,Jits_ISO_8,3,5,80,127,3862983160
72,17,7,Jits_ISO_8,0,1,48,31,3863649476
72,17,7,Jits_ISO_8,1,5,80,127,3863682476
72,17,7,Jits_ISO_8,2,5,63,98,3863702936
72,17,7,Jits_ISO_8,3,5,56,103,3863782640
72,17,7,Jits_ISO_8,0,1,48,33,3864450172
72,17,7,Jits_ISO_8,1,5,63,98,3864473116
72,17,7,Jits_ISO_8,2,5,56,103,3864582492
72,17,7,Jits_ISO_8,3,5,80,127,3864585708
72,17,7,Jits_ISO_8,0,5,63,98,3865293052
72,17,7,Jits_ISO_8,1,1,48,30,3865294020
72,17,7,Jits_ISO_8,2,5,56,103,3865303540
72,17,7,Jits_ISO_8,3,5,80,127,3865306532
72,17,7,Jits_ISO_8,0,5,56,103,3866072296
72,17,7,Jits_ISO_8,1,1,48,25,3866092876
72,17,7,Jits_ISO_8,2,5,80,127,3866193224
72,17,7,Jits_ISO_8,3,5,63,98,3866233164
72,17,7,Jits_ISO_8,0,5,56,103,3866892700
72,17,7,Jits_ISO_8,1,1,48,24,3866968884
72,17,7,Jits_ISO_8,2,5,80,127,3866972592
72,17,7,Jits_ISO_8,3,5,63,98,3866993272
72,17,7,Jits_ISO_8,0,5,56,103,3867693396
72,17,7,Jits_ISO_8,1,1,48,27,3867759388
72,17,7,Jits_ISO_8,2,5,63,98,3867803104
72,17,7,Jits_ISO_8,3,5,80,127,3867806392
72,17,7,Jits_ISO_8,0,1,48,37,3868512592
72,17,7,Jits_ISO_8,1,5,56,103,3868522952
72,17,7,Jits_ISO_8,2,5,80,127,3868552556
72,17,7,Jits_ISO_8,3,5,63,98,3868573160
72,17,7,Jits_ISO_8,0,5,63,98,3869303188
72,17,7,Jits_ISO_8,1,5,56,103,3869313384
72,17,7,Jits_ISO_8,2,5,80,127,3869322460
72,17,7,Jits_ISO_8,3,1,48,35,3869337188
72,17,7,Jits_ISO_8,0,1,48,35,3870069356
72,17,7,Jits_ISO_8,1,5,80,127,3870092548
72,17,7,Jits_ISO_8,2,5,56,103,3870143124
72,17,7,Jits_ISO_8,3,5,63,98,3870183044
72,17,7,Jits_ISO_8,0,1,48,32,3870868168
72,17,7,Jits_ISO_8,1,5,80,127,3870913008
72,17,7,Jits_ISO_8,2,5,63,98,3870933320
72,17,7,Jits_ISO_8,3,5,56,103,3870982460
72,17,7,Jits_ISO_8,0,1,48,37,3871665108
72,17,7,Jits_ISO_8,1,5,80,127,3871722832
72,17,7,Jits_ISO_8,2,5,56,103,3871752584
72,17,7,Jits_ISO_8,3,5,63,98,3871823248
72,17,7,Jits_ISO_8,0,1,48,41,3872504016
72,17,7,Jits_ISO_8,1,5,56,103,3872573144
72,17,7,Jits_ISO_8,2,5,80,127,3872583116
72,17,7,Jits_ISO_8,3,5,63,98,3872622964
72,17,7,Jits_ISO_8,0,5,56,103,3873282632
72,17,7,Jits_ISO_8,1,5,63,98,3873302944
72,17,7,Jits_ISO_8,2,1,48,37,3873354708
72,17,7,Jits_ISO_8,3,5,80,127,3873372420
72,17,7,Jits_ISO_8,0,1,48,31,3874056392
72,17,7,Jits_ISO_8,1,5,63,98,3874102524
72,17,7,Jits_ISO_8,2,5,80,127,3874163128
72,17,7,Jits_ISO_8,3,5,56,103,3874182464
72,17,7,Jits_ISO_8,0,1,48,30,3874847332
72,17,7,Jits_ISO_8,1,5,80,127,3874893168
72,17,7,Jits_ISO_8,2,5,56,103,3874922920
72,17,7,Jits_ISO_8,3,5,63,98,3874952504
72,17,7,Jits_ISO_8,0,1,48,24,3875652240
72,17,7,Jits_ISO_8,1,5,56,103,3875693020
72,17,7,Jits_ISO_8,2,5,63,98,3875753252
72,17,7,Jits_ISO_8,3,5,80,127,3875812820
72,17,7,Jits_ISO_8,0,1,48,29,3876458984
72,17,7,Jits_ISO_8,1,5,80,127,3876513188
72,17,7,Jits_ISO_8,2,5,56,103,3876532600
72,17,7,Jits_ISO_8,3,5,63,98,3876603236
72,17,7,Jits_ISO_8,0,1,48,36,3877273160
72,17,7,Jits_ISO_8,1,5,80,127,3877312824
72,17,7,Jits_ISO_8,2,5,63,98,3877333356
72,17,7,Jits_ISO_8,3,5,56,103,3877363032
72,17,7,Jits_ISO_8,0,1,48,38,3878007456
72,17,7,Jits_ISO_8,1,5,80,127,3878104348
72,17,7,Jits_ISO_8,2,5,63,98,3878123012
72,17,7,Jits_ISO_8,3,5,56,103,3878183400
72,17,7,Jits_ISO_8,0,1,48,34,3878788212
72,17,7,Jits_ISO_8,1,5,80,127,3878903012
72,17,7,Jits_ISO_8,2,5,56,103,3879002464
72,17,7,Jits_ISO_8,3,5,63,98,3879033264
72,17,7,Jits_ISO_8,0,1,48,37,3879660912
72,17,7,Jits_ISO_8,1,5,63,98,3879692848
72,17,7,Jits_ISO_8,2,5,80,127,3879742932
72,17,7,Jits_ISO_8,3,5,56,103,3879763300
72,17,7,Jits_ISO_8,0,1,48,35,3880473656
72,17,7,Jits_ISO_8,1,5,80,127,3880533344
72,17,7,Jits_ISO_8,2,5,56,103,3880562940
72,17,7,Jits_ISO_8,3,5,63,98,3880565936
72,17,7,Jits_ISO_8,0,1,48,31,3881329112
72,17,7,Jits_ISO_8,1,5,63,98,3881362864
72,17,7,Jits_ISO_8,2,5,56,103,3881402952
72,17,7,Jits_ISO_8,3,5,80,127,3881423176
72,17,7,Jits_ISO_8,0,1,48,42,3882082984
72,17,7,Jits_ISO_8,1,5,80,127,3882103240
72,17,7,Jits_ISO_8,2,5,63,98,3882183468
72,17,7,Jits_ISO_8,3,5,56,103,3882222888
72,17,7,Jits_ISO_8,0,5,63,98,3882923340
72,17,7,Jits_ISO_8,1,1,48,33,3882935000
72,17,7,Jits_ISO_8,2,5,80,127,3883003204
72,17,7,Jits_ISO_8,3,5,56,103,3883022988
72,17,7,Jits_ISO_8,0,5,56,103,3883762916
72,17,7,Jits_ISO_8,1,5,63,98,3883773260
72,17,7,Jits_ISO_8,2,1,48,42,3883774596
72,17,7,Jits_ISO_8,3,5,80,127,3883813120
72,17,7,Jits_ISO_8,0,5,56,103,3884482924
72,17,7,Jits_ISO_8,1,5,80,127,3884486140
72,17,7,Jits_ISO_8,2,1,48,38,3884566952
72,17,7,Jits_ISO_8,3,5,63,98,3884623120
72,17,7,Jits_ISO_8,0,5,56,103,3885272444
72,17,7,Jits_ISO_8,1,5,63,98,3885362660
72,17,7,Jits_ISO_8,2,1,48,32,3885369164
72,17,7,Jits_ISO_8,3,5,80,127,3885433256
72,17,7,Jits_ISO_8,0,1,48,35,3886086820
72,17,7,Jits_ISO_8,1,5,63,98,3886153032
72,17,7,Jits_ISO_8,2,5,80,127,3886156248
72,17,7,Jits_ISO_8,3,5,56,103,3886212656
72,17,7,Jits_ISO_8,0,1,48,23,3886865696
72,17,7,Jits_ISO_8,1,5,80,127,3886992656
72,17,7,Jits_ISO_8,2,5,56,103,3887013192
72,17,7,Jits_ISO_8,3,5,63,98,3887022492
72,17,7,Jits_ISO_8,0,5,56,103,3887703460
72,17,7,Jits_ISO_8,1,5,63,98,3887712980
72,17,7,Jits_ISO_8,2,1,48,27,3887717748
72,17,7,Jits_ISO_8,3,5,80,127,3887783328
72,17,7,Jits_ISO_8,0,1,48,33,3888498272
72,17,7,Jits_ISO_8,1,5,80,127,3888503100
72,17,7,Jits_ISO_8,2,5,56,103,3888553452
72,17,7,Jits_ISO_8,3,5,63,98,3888602740
72,17,7,Jits_ISO_8,0,1,48,33,3889281956
72,17,7,Jits_ISO_8,1,5,56,103,3889382816
72,17,7,Jits_ISO_8,2,5,63,98,3889393160
72,17,7,Jits_ISO_8,3,5,80,127,3889432876
72,17,7,Jits_ISO_8,0,5,56,103,3890123064
72,17,7,Jits_ISO_8,1,1,48,27,3890127980
72,17,7,Jits_ISO_8,2,5,63,98,3890162996
72,17,7,Jits_ISO_8,3,5,80,127,3890213196
72,17,7,Jits_ISO_8,0,5,80,127,3890882784
72,17,7,Jits_ISO_8,1,1,48,24,3890896016
72,17,7,Jits_ISO_8,2,5,56,103,3890933056
72,17,7,Jits_ISO_8,3,5,63,98,3890952616
72,17,7,Jits_ISO_8,0,1,48,26,3891600512
72,17,7,Jits_ISO_8,1,5,80,127,3891692984
72,17,7,Jits_ISO_8,2,5,63,98,3891753808
72,17,7,Jits_ISO_8,3,5,56,103,3891833332
72,17,7,Jits_ISO_8,0,1,48,31,3892422168
72,17,7,Jits_ISO_8,1,5,80,127,3892473064
72,17,7,Jits_ISO_8,2,5,56,103,3892513080
72,17,7,Jits_ISO_8,3,5,63,98,3892532852
72,17,7,Jits_ISO_8,0,1,48,28,3893224840
72,17,7,Jits_ISO_8,1,5,56,103,3893323256
72,17,7,Jits_ISO_8,2,5,80,127,3893333452
72,17,7,Jits_ISO_8,3,5,63,98,3893373312
72,17,7,Jits_ISO_8,0,1,48,30,3894042088
72,17,7,Jits_ISO_8,1,5,56,103,3894192640
72,17,7,Jits_ISO_8,2,5,63,98,3894232660
72,17,7,Jits_ISO_8,3,5,80,127,3894235944
72,17,7,Jits_ISO_8,0,5,63,98,3894882684
72,17,7,Jits_ISO_8,1,1,48,36,3894889692
72,17,7,Jits_ISO_8,2,5,80,127,3894922768
72,17,7,Jits_ISO_8,3,5,56,103,3894993256
72,17,7,Jits_ISO_8,0,1,48,36,3895644144
72,17,7,Jits_ISO_8,1,5,63,98,3895673092
72,17,7,Jits_ISO_8,2,5,56,103,3895752952
72,17,7,Jits_ISO_8,3,5,80,127,3895812744
72,17,7,Jits_ISO_8,0,5,80,127,3896483300
72,17,7,Jits_ISO_8,1,1,48,41,3896484860
72,17,7,Jits_ISO_8,2,5,63,98,3896533500
72,17,7,Jits_ISO_8,3,5,56,103,3896563024
72,17,7,Jits_ISO_8,0,5,56,103,3897272684
72,17,7,Jits_ISO_8,1,5,63,98,3897322964
72,17,7,Jits_ISO_8,2,5,80,127,3897333084
72,17,7,Jits_ISO_8,3,1,48,35,3897345644
72,17,7,Jits_ISO_8,0,1,48,32,3898033636
72,17,7,Jits_ISO_8,1,5,56,103,3898082736
72,17,7,Jits_ISO_8,2,5,63,98,3898193260
72,17,7,Jits_ISO_8,3,5,80,127,3898212820
72,17,7,Jits_ISO_8,0,1,48,28,3898756020
72,17,7,Jits_ISO_8,1,5,63,98,3898882364
72,17,7,Jits_ISO_8,2,5,80,127,3898932716
72,17,7,Jits_ISO_8,3,5,56,103,3899022772
72,17,7,Jits_ISO_8,0,1,48,31,3899636776
72,17,7,Jits_ISO_8,1,5,63,98,3899673068
72,17,7,Jits_ISO_8,2,5,80,127,3899702768
72,17,7,Jits_ISO_8,3,5,56,103,3899792736
72,17,7,Jits_ISO_8,0,1,48,32,3900437604
72,17,7,Jits_ISO_8,1,5,63,98,3900472872
72,17,7,Jits_ISO_8,2,5,56,103,3900482920
72,17,7,Jits_ISO_8,3,5,80,127,3900583228
72,17,7,Jits_ISO_8,0,1,48,34,3901237708
72,17,7,Jits_ISO_8,1,5,63,98,3901372740
72,17,7,Jits_ISO_8,2,5,80,127,3901402564
72,17,7,Jits_ISO_8,3,5,56,103,3901433136
72,17,7,Jits_ISO_8,0,1,48,34,3902092580
72,17,7,Jits_ISO_8,1,5,80,127,3902192912
72,17,7,Jits_ISO_8,2,5,63,98,3902203108
72,17,7,Jits_ISO_8,3,5,56,103,3902232932
72,17,7,Jits_ISO_8,0,5,80,127,3902893596
72,17,7,Jits_ISO_8,1,1,48,33,3902898136
72,17,7,Jits_ISO_8,2,5,63,98,3902912856
72,17,7,Jits_ISO_8,3,5,56,103,3902963132
72,17,7,Jits_ISO_8,0,1,48,31,3903680636
72,17,7,Jits_ISO_8,1,5,63,98,3903722836
72,17,7,Jits_ISO_8,2,5,80,127,3903783288
72,17,7,Jits_ISO_8,3,5,56,103,3903802652
72,17,7,Jits_ISO_8,0,1,48,39,3904443556
72,17,7,Jits_ISO_8,1,5,63,98,3904482616
72,17,7,Jits_ISO_8,2,5,56,103,3904532892
72,17,7,Jits_ISO_8,3,5,80,127,3904543076
72,17,7,Jits_ISO_8,0,1,48,35,3905312064
72,17,7,Jits_ISO_8,1,5,56,103,3905313784
72,17,7,Jits_ISO_8,2,5,80,127,3905323536
72,17,7,Jits_ISO_8,3,5,63,98,3905422744
72,17,7,Jits_ISO_8,0,5,80,127,3906072968
72,17,7,Jits_ISO_8,1,5,63,98,3906083612
72,17,7,Jits_ISO_8,2,1,48,25,3906094156
72,17,7,Jits_ISO_8,3,5,56,103,3906232712
72,17,7,Jits_ISO_8,0,1,48,27,3906853624
72,17,7,Jits_ISO_8,1,5,63,98,3906883044
72,17,7,Jits_ISO_8,2,5,80,127,3906922912
72,17,7,Jits_ISO_8,3,5,56,103,3907002696
72,17,7,Jits_ISO_8,0,5,56,103,3907672424
72,17,7,Jits_ISO_8,1,1,48,18,3907686556
72,17,7,Jits_ISO_8,2,5,80,127,3907772744
72,17,7,Jits_ISO_8,3,5,63,98,3907793412
72,17,7,Jits_ISO_8,0,1,48,30,3908435772
72,17,7,Jits_ISO_8,1,5,80,127,3908532516
72,17,7,Jits_ISO_8,2,5,56,103,3908542860
72,17,7,Jits_ISO_8,3,5,63,98,3908632916
72,17,7,Jits_ISO_8,0,1,48,34,3909227164
72,17,7,Jits_ISO_8,1,5,56,103,3909333572
72,17,7,Jits_ISO_8,2,5,63,98,3909352688
72,17,7,Jits_ISO_8,3,5,80,127,3909432656
72,17,7,Jits_ISO_8,0,1,48,36,3910025080
72,17,7,Jits_ISO_8,1,5,63,98,3910082876
72,17,7,Jits_ISO_8,2,5,56,103,3910172996
72,17,7,Jits_ISO_8,3,5,80,127,3910176360
72,17,7,Jits_ISO_8,0,1,48,31,3910820428
72,17,7,Jits_ISO_8,1,5,56,103,3910913596
72,17,7,Jits_ISO_8,2,5,80,127,3910972804
72,17,7,Jits_ISO_8,3,5,63,98,3910983220
72,17,7,Jits_ISO_8,0,1,48,31,3911699712
72,17,7,Jits_ISO_8,1,5,80,127,3911763308
72,17,7,Jits_ISO_8,2,5,56,103,3911772456
72,17,7,Jits_ISO_8,3,5,63,98,3911775744
72,17,7,Jits_ISO_8,0,5,56,103,3912523456
72,17,7,Jits_ISO_8,1,5,80,127,3912533580
72,17,7,Jits_ISO_8,2,5,63,98,3912552768
72,17,7,Jits_ISO_8,3,1,48,21,3912563156
72,17,7,Jits_ISO_8,0,5,63,98,3913293432
72,17,7,Jits_ISO_8,1,1,48,24,3913328392
72,17,7,Jits_ISO_8,2,5,80,127,3913352476
72,17,7,Jits_ISO_8,3,5,56,103,3913402676
72,17,7,Jits_ISO_8,0,1,48,28,3914114248
72,17,7,Jits_ISO_8,1,5,63,98,3914172860
72,17,7,Jits_ISO_8,2,5,56,103,3914183204
72,17,7,Jits_ISO_8,3,5,80,127,3914233464
72,17,7,Jits_ISO_8,0,5,63,98,3914873308
72,17,7,Jits_ISO_8,1,5,80,127,3914892648
72,17,7,Jits_ISO_8,2,5,56,103,3914903288
72,17,7,Jits_ISO_8,3,1,48,23,3914943196
72,17,7,Jits_ISO_8,0,1,48,32,3915589352
72,17,7,Jits_ISO_8,1,5,63,98,3915672928
72,17,7,Jits_ISO_8,2,5,80,127,3915676440
72,17,7,Jits_ISO_8,3,5,56,103,3915712852
72,17,7,Jits_ISO_8,0,1,48,19,3916368520
72,17,7,Jits_ISO_8,1,5,63,98,3916543636
72,17,7,Jits_ISO_8,2,5,80,127,3916573016
72,17,7,Jits_ISO_8,3,5,56,103,3916583508
72,17,7,Jits_ISO_8,0,1,48,24,3917184724
72,17,7,Jits_ISO_8,1,5,56,103,3917292852
72,17,7,Jits_ISO_8,2,5,80,127,3917322532
72,17,7,Jits_ISO_8,3,5,63,98,3917353476
72,17,7,Jits_ISO_8,0,1,48,20,3918023844
72,17,7,Jits_ISO_8,1,5,63,98,3918193204
72,17,7,Jits_ISO_8,2,5,56,103,3918233068
72,17,7,Jits_ISO_8,3,5,80,127,3918236208
72,17,7,Jits_ISO_8,0,5,80,127,3918893412
72,17,7,Jits_ISO_8,1,1,48,19,3918906452
72,17,7,Jits_ISO_8,2,5,56,103,3918973380
72,17,7,Jits_ISO_8,3,5,63,98,3919022444
72,17,7,Jits_ISO_8,0,1,48,20,3919653104
72,17,7,Jits_ISO_8,1,5,80,127,3919672556
72,17,7,Jits_ISO_8,2,5,56,103,3919693316
72,17,7,Jits_ISO_8,3,5,63,98,3919783432
72,17,7,Jits_ISO_8,0,1,48,24,3920392424
72,17,7,Jits_ISO_8,1,5,80,127,3920513308
72,17,7,Jits_ISO_8,2,5,63,98,3920553324
72,17,7,Jits_ISO_8,3,5,56,103,3920593260
72,17,7,Jits_ISO_8,0,1,48,27,3921162836
72,17,7,Jits_ISO_8,1,5,63,98,3921282448
72,17,7,Jits_ISO_8,2,5,80,127,3921342696
72,17,7,Jits_ISO_8,3,5,56,103,3921372592
72,17,7,Jits_ISO_8,0,1,48,20,3921979420
72,17,7,Jits_ISO_8,1,5,56,103,3922083280
72,17,7,Jits_ISO_8,2,5,80,127,3922112884
72,17,7,Jits_ISO_8,3,5,63,98,3922202940
72,17,7,Jits_ISO_8,0,1,48,23,3922771864
72,17,7,Jits_ISO_8,1,5,56,103,3922893252
72,17,7,Jits_ISO_8,2,5,80,127,3923002672
72,17,7,Jits_ISO_8,3,5,63,98,3923032420
72,17,7,Jits_ISO_8,0,1,48,19,3923647624
72,17,7,Jits_ISO_8,1,5,56,103,3923743332
72,17,7,Jits_ISO_8,2,5,63,98,3923802464
72,17,7,Jits_ISO_8,3,5,80,127,3923833112
72,17,7,Jits_ISO_8,0,1,48,16,3924500776
72,17,7,Jits_ISO_8,1,5,56,103,3924513228
72,17,7,Jits_ISO_8,2,5,63,98,3924582716
72,17,7,Jits_ISO_8,3,5,80,127,3924603232
72,17,7,Jits_ISO_8,0,1,48,23,3925257464
72,17,7,Jits_ISO_8,1,5,80,127,3925283044
72,17,7,Jits_ISO_8,2,5,63,98,3925302708
72,17,7,Jits_ISO_8,3,5,56,103,3925352672
72,17,7,Jits_ISO_8,0,9999,9999,9999,3830550600
72,17,7,Jits_ISO_8,1,9999,9999,9999,3831350356
72,17,7,Jits_ISO_8,2,9999,9999,9999,3832150100
72,17,7,Jits_ISO_8,3,9999,9999,9999,3832950880
72,17,7,Jits_ISO_8,4,9999,9999,9999,3833750584
72,17,7,Jits_ISO_8,5,9999,9999,9999,3834550372
72,17,7,Jits_ISO_8,6,9999,9999,9999,3835350084
72,17,7,Jits_ISO_8,7,9999,9999,9999,3836150852
72,17,7,Jits_ISO_8,8,9999,9999,9999,3836950644
72,17,7,Jits_ISO_8,9,9999,9999,9999,3837750344
72,17,7,Jits_ISO_8,10,9999,9999,9999,3838550104
72,17,7,Jits_ISO_8,11,9999,9999,9999,3839350860
72,17,7,Jits_ISO_8,12,9999,9999,9999,3840150592
72,17,7,Jits_ISO_8,13,9999,9999,9999,3840950392
72,17,7,Jits_ISO_8,14,9999,9999,9999,3841750088
72,17,7,Jits_ISO_8,15,9999,9999,9999,3842550836
72,17,7,Jits_ISO_8,16,9999,9999,9999,3843350604
72,17,7,Jits_ISO_8,17,9999,9999,9999,3844150396
72,17,7,Jits_ISO_8,18,9999,9999,9999,3844950136
72,17,7,Jits_ISO_8,19,9999,9999,9999,3845750868
72,17,7,Jits_ISO_8,20,9999,9999,9999,3846550580
72,17,7,Jits_ISO_8,21,9999,9999,9999,3847350364
72,17,7,Jits_ISO_8,22,9999,9999,9999,3848150140
72,17,7,Jits_ISO_8,23,9999,9999,9999,3848950896
72,17,7,Jits_ISO_8,24,9999,9999,9999,3849750604
72,17,7,Jits_ISO_8,25,9999,9999,9999,3850550388
72,17,7,Jits_ISO_8,26,9999,9999,9999,3851350124
72,17,7,Jits_ISO_8,27,9999,9999,9999,3852150880
72,17,7,Jits_ISO_8,28,9999,9999,9999,3852950588
72,17,7,Jits_ISO_8,29,9999,9999,9999,3853750384
72,17,7,Jits_ISO_8,30,9999,9999,9999,3854550092
72,17,7,Jits_ISO_8,31,9999,9999,9999,3855350900
72,17,7,Jits_ISO_8,32,9999,9999,9999,3856150608
72,17,7,Jits_ISO_8,33,9999,9999,9999,3856950392
72,17,7,Jits_ISO_8,34,9999,9999,9999,3857750120
72,17,7,Jits_ISO_8,35,9999,9999,9999,3858550888
72,17,7,Jits_ISO_8,36,9999,9999,9999,3859350604
72,17,7,Jits_ISO_8,37,9999,9999,9999,3860150392
72,17,7,Jits_ISO_8,38,9999,9999,9999,3860950108
72,17,7,Jits_ISO_8,39,9999,9999,9999,3861750860
72,17,7,Jits_ISO_8,40,9999,9999,9999,3862550648
72,17,7,Jits_ISO_8,41,9999,9999,9999,3863350324
72,17,7,Jits_ISO_8,42,9999,9999,9999,3864150104
72,17,7,Jits_ISO_8,43,9999,9999,9999,3864950852
72,17,7,Jits_ISO_8,44,9999,9999,9999,3865750624
72,17,7,Jits_ISO_8,45,9999,9999,9999,3866550336
72,17,7,Jits_ISO_8,46,9999,9999,9999,3867350136
72,17,7,Jits_ISO_8,47,9999,9999,9999,3868150900
72,17,7,Jits_ISO_8,48,9999,9999,9999,3868950624
72,17,7,Jits_ISO_8,49,9999,9999,9999,3869750352
72,17,7,Jits_ISO_8,50,9999,9999,9999,3870550136
72,17,7,Jits_ISO_8,51,9999,9999,9999,3871350892
72,17,7,Jits_ISO_8,52,9999,9999,9999,3872150608
72,17,7,Jits_ISO_8,53,9999,9999,9999,3872950324
72,17,7,Jits_ISO_8,54,9999,9999,9999,3873750104
72,17,7,Jits_ISO_8,55,9999,9999,9999,3874550876
72,17,7,Jits_ISO_8,56,9999,9999,9999,3875350580
72,17,7,Jits_ISO_8,57,9999,9999,9999,3876150392
72,17,7,Jits_ISO_8,58,9999,9999,9999,3876950100
72,17,7,Jits_ISO_8,59,9999,9999,9999,3877750856
72,17,7,Jits_ISO_8,60,9999,9999,9999,3878550644
72,17,7,Jits_ISO_8,61,9999,9999,9999,3879350360
72,17,7,Jits_ISO_8,62,9999,9999,9999,3880150068
72,17,7,Jits_ISO_8,63,9999,9999,9999,3880950892
72,17,7,Jits_ISO_8,64,9999,9999,9999,3881750608
72,17,7,Jits_ISO_8,65,9999,9999,9999,3882550348
72,17,7,Jits_ISO_8,66,9999,9999,9999,3883350136
72,17,7,Jits_ISO_8,67,9999,9999,9999,3884150900
72,17,7,Jits_ISO_8,68,9999,9999,9999,3884950612
72,17,7,Jits_ISO_8,69,9999,9999,9999,3885750336
72,17,7,Jits_ISO_8,70,9999,9999,9999,3886550132
72,17,7,Jits_ISO_8,71,9999,9999,9999,3887350896
72,17,7,Jits_ISO_8,72,9999,9999,9999,3888150604
72,17,7,Jits_ISO_8,73,9999,9999,9999,3888950356
72,17,7,Jits_ISO_8,74,9999,9999,9999,3889750072
72,17,7,Jits_ISO_8,75,9999,9999,9999,3890550904
72,17,7,Jits_ISO_8,76,9999,9999,9999,3891350628
72,17,7,Jits_ISO_8,77,9999,9999,9999,3892150356
72,17,7,Jits_ISO_8,78,9999,9999,9999,3892950108
72,17,7,Jits_ISO_8,79,9999,9999,9999,3893750864
72,17,7,Jits_ISO_8,80,9999,9999,9999,3894550648
72,17,7,Jits_ISO_8,81,9999,9999,9999,3895350380
72,17,7,Jits_ISO_8,82,9999,9999,9999,3896150092
72,17,7,Jits_ISO_8,83,9999,9999,9999,3896950852
72,17,7,Jits_ISO_8,84,9999,9999,9999,3897750644
72,17,7,Jits_ISO_8,85,9999,9999,9999,3898550372
72,17,7,Jits_ISO_8,86,9999,9999,9999,3899350132
72,17,7,Jits_ISO_8,87,9999,9999,9999,3900150884
72,17,7,Jits_ISO_8,88,9999,9999,9999,3900950592
72,17,7,Jits_ISO_8,89,9999,9999,9999,3901750332
72,17,7,Jits_ISO_8,90,9999,9999,9999,3902550128
72,17,7,Jits_ISO_8,91,9999,9999,9999,3903350880
72,17,7,Jits_ISO_8,92,9999,9999,9999,3904150612
72,17,7,Jits_ISO_8,93,9999,9999,9999,3904950392
72,17,7,Jits_ISO_8,94,9999,9999,9999,3905750104
72,17,7,Jits_ISO_8,95,9999,9999,9999,3906550856
72,17,7,Jits_ISO_8,96,9999,9999,9999,3907350580
72,17,7,Jits_ISO_8,97,9999,9999,9999,3908150388
72,17,7,Jits_ISO_8,98,9999,9999,9999,3908950116
72,17,7,Jits_ISO_8,99,9999,9999,9999,3909750876
72,17,7,Jits_ISO_8,100,9999,9999,9999,3910550648
72,17,7,Jits_ISO_8,101,9999,9999,9999,3911350364
72,17,7,Jits_ISO_8,102,9999,9999,9999,3912150068
72,17,7,Jits_ISO_8,103,9999,9999,9999,3912950896
72,17,7,Jits_ISO_8,104,9999,9999,9999,3913750624
72,17,7,Jits_ISO_8,105,9999,9999,9999,3914550364
72,17,7,Jits_ISO_8,106,9999,9999,9999,3915350068
72,17,7,Jits_ISO_8,107,9999,9999,9999,3916150884
72,17,7,Jits_ISO_8,108,9999,9999,9999,3916950600
72,17,7,Jits_ISO_8,109,9999,9999,9999,3917750380
72,17,7,Jits_ISO_8,110,9999,9999,9999,3918550092
72,17,7,Jits_ISO_8,111,9999,9999,9999,3919350852
72,17,7,Jits_ISO_8,112,9999,9999,9999,3920150648
72,17,7,Jits_ISO_8,113,9999,9999,9999,3920950388
72,17,7,Jits_ISO_8,114,9999,9999,9999,3921750096
72,17,7,Jits_ISO_8,115,9999,9999,9999,3922550852
72,17,7,Jits_ISO_8,116,9999,9999,9999,3923350640
72,17,7,Jits_ISO_8,117,9999,9999,9999,3924150356
72,17,7,Jits_ISO_8,118,9999,9999,9999,3924950072
72,17,7,Jits_ISO_8,119,9999,9999,9999,3925750896
72,18,17,Jits_Phase_5,0,5,56,103,3935650116
72,18,17,Jits_Phase_5,1,5,63,98,3935653284
72,18,17,Jits_Phase_5,2,5,80,127,3935656484
72,18,17,Jits_Phase_5,0,5,56,103,3936149972
72,18,17,Jits_Phase_5,1,5,63,98,3936153076
72,18,17,Jits_Phase_5,2,5,80,127,3936156196
72,18,17,Jits_Phase_5,3,1,48,30,3936352692
72,18,17,Jits_Phase_5,0,5,56,103,3936649664
72,18,17,Jits_Phase_5,1,5,80,127,3936660008
72,18,17,Jits_Phase_5,2,5,63,98,3936680172
72,18,17,Jits_Phase_5,3,1,48,26,3936775120
72,18,17,Jits_Phase_5,0,5,63,98,3937100056
72,18,17,Jits_Phase_5,1,5,80,127,3937130104
72,18,17,Jits_Phase_5,2,5,56,103,3937140076
72,18,17,Jits_Phase_5,3,1,48,25,3937216224
72,18,17,Jits_Phase_5,0,1,48,32,3937639856
72,18,17,Jits_Phase_5,1,5,80,127,3937660256
72,18,17,Jits_Phase_5,2,5,56,103,3937669404
72,18,17,Jits_Phase_5,3,5,63,98,3937700276
72,18,17,Jits_Phase_5,0,5,63,98,3938149904
72,18,17,Jits_Phase_5,1,1,48,29,3938179652
72,18,17,Jits_Phase_5,2,5,56,103,3938180916
72,18,17,Jits_Phase_5,3,5,80,127,3938189616
72,18,17,Jits_Phase_5,0,5,56,103,3938600260
72,18,17,Jits_Phase_5,1,1,48,35,3938642588
72,18,17,Jits_Phase_5,2,5,63,98,3938649436
72,18,17,Jits_Phase_5,3,5,80,127,3938669892
72,18,17,Jits_Phase_5,0,5,80,127,3939099952
72,18,17,Jits_Phase_5,1,5,63,98,3939150104
72,18,17,Jits_Phase_5,2,1,48,39,3939174268
72,18,17,Jits_Phase_5,3,5,56,103,3939190104
72,18,17,Jits_Phase_5,0,5,56,103,3939599864
72,18,17,Jits_Phase_5,1,5,63,98,3939629540
72,18,17,Jits_Phase_5,2,1,48,25,3939664368
72,18,17,Jits_Phase_5,3,5,80,127,3939700056
72,18,17,Jits_Phase_5,0,5,56,103,3940099480
72,18,17,Jits_Phase_5,1,1,48,28,3940132120
72,18,17,Jits_Phase_5,2,5,80,127,3940159964
72,18,17,Jits_Phase_5,3,5,63,98,3940189412
72,18,17,Jits_Phase_5,0,5,56,103,3940610476
72,18,17,Jits_Phase_5,1,5,63,98,3940619848
72,18,17,Jits_Phase_5,2,1,48,28,3940635624
72,18,17,Jits_Phase_5,3,5,80,127,3940659728
72,18,17,Jits_Phase_5,0,5,63,98,3941099976
72,18,17,Jits_Phase_5,1,1,48,27,3941105788
72,18,17,Jits_Phase_5,2,5,80,127,3941179936
72,18,17,Jits_Phase_5,3,5,56,103,3941190056
72,18,17,Jits_Phase_5,0,5,63,98,3941649772
72,18,17,Jits_Phase_5,1,1,48,29,3941650740
72,18,17,Jits_Phase_5,2,5,56,103,3941689876
72,18,17,Jits_Phase_5,3,5,80,127,3941692944
72,18,17,Jits_Phase_5,0,1,48,27,3942104680
72,18,17,Jits_Phase_5,1,5,56,103,3942109432
72,18,17,Jits_Phase_5,2,5,63,98,3942120076
72,18,17,Jits_Phase_5,3,5,80,127,3942159788
72,18,17,Jits_Phase_5,0,5,56,103,3942600116
72,18,17,Jits_Phase_5,1,5,63,98,3942603036
72,18,17,Jits_Phase_5,2,5,80,127,3942619452
72,18,17,Jits_Phase_5,3,1,48,19,3942662944
72,18,17,Jits_Phase_5,0,5,80,127,3943109984
72,18,17,Jits_Phase_5,1,5,56,103,3943120180
72,18,17,Jits_Phase_5,2,1,48,33,3943127428
72,18,17,Jits_Phase_5,3,5,63,98,3943189996
72,18,17,Jits_Phase_5,0,5,63,98,3943599408
72,18,17,Jits_Phase_5,1,1,48,20,3943607392
72,18,17,Jits_Phase_5,2,5,56,103,3943620008
72,18,17,Jits_Phase_5,3,5,80,127,3943700008
72,18,17,Jits_Phase_5,0,5,56,103,3944109420
72,18,17,Jits_Phase_5,1,1,48,23,3944116952
72,18,17,Jits_Phase_5,2,5,80,127,3944150324
72,18,17,Jits_Phase_5,3,5,63,98,3944159696
72,18,17,Jits_Phase_5,0,1,48,22,3944598304
72,18,17,Jits_Phase_5,1,5,80,127,3944599812
72,18,17,Jits_Phase_5,2,5,63,98,3944629860
72,18,17,Jits_Phase_5,3,5,56,103,3944669648
72,18,17,Jits_Phase_5,0,1,48,16,3945093460
72,18,17,Jits_Phase_5,1,5,56,103,3945120012
72,18,17,Jits_Phase_5,2,5,63,98,3945149836
72,18,17,Jits_Phase_5,3,5,80,127,3945199948
72,18,17,Jits_Phase_5,0,1,48,18,3945595084
72,18,17,Jits_Phase_5,1,5,80,127,3945619912
72,18,17,Jits_Phase_5,2,5,56,103,3945659852
72,18,17,Jits_Phase_5,3,5,63,98,3945670044
72,18,17,Jits_Phase_5,0,1,48,31,3946056692
72,18,17,Jits_Phase_5,1,5,80,127,3946100032
72,18,17,Jits_Phase_5,2,5,63,98,3946139972
72,18,17,Jits_Phase_5,3,5,56,103,3946200492
72,18,17,Jits_Phase_5,0,5,56,103,3946599864
72,18,17,Jits_Phase_5,1,5,80,127,3946609984
72,18,17,Jits_Phase_5,2,1,48,27,3946627424
72,18,17,Jits_Phase_5,3,5,63,98,3946689992
72,18,17,Jits_Phase_5,0,5,80,127,3947099476
72,18,17,Jits_Phase_5,1,1,48,28,3947114424
72,18,17,Jits_Phase_5,2,5,63,98,3947159860
72,18,17,Jits_Phase_5,3,5,56,103,3947190052
72,18,17,Jits_Phase_5,0,5,56,103,3947600364
72,18,17,Jits_Phase_5,1,1,48,27,3947618328
72,18,17,Jits_Phase_5,2,5,80,127,3947659772
72,18,17,Jits_Phase_5,3,5,63,98,3947699784
72,18,17,Jits_Phase_5,0,1,48,25,3948073100
72,18,17,Jits_Phase_5,1,5,56,103,3948150096
72,18,17,Jits_Phase_5,2,5,63,98,3948160284
72,18,17,Jits_Phase_5,3,5,80,127,3948163952
72,18,17,Jits_Phase_5,0,5,80,127,3948599724
72,18,17,Jits_Phase_5,1,1,48,31,3948609668
72,18,17,Jits_Phase_5,2,5,63,98,3948689924
72,18,17,Jits_Phase_5,3,5,56,103,3948699968
72,18,17,Jits_Phase_5,0,1,48,27,3949093436
72,18,17,Jits_Phase_5,1,5,56,103,3949100488
72,18,17,Jits_Phase_5,2,5,63,98,3949103436
72,18,17,Jits_Phase_5,3,5,80,127,3949106880
72,18,17,Jits_Phase_5,0,1,48,31,3949597344
72,18,17,Jits_Phase_5,1,5,80,127,3949629924
72,18,17,Jits_Phase_5,2,5,63,98,3949679900
72,18,17,Jits_Phase_5,3,5,56,103,3949709928
72,18,17,Jits_Phase_5,0,5,56,103,3950110028
72,18,17,Jits_Phase_5,1,5,80,127,3950120300
72,18,17,Jits_Phase_5,2,1,48,27,3950136400
72,18,17,Jits_Phase_5,3,5,63,98,3950189920
72,18,17,Jits_Phase_5,0,1,48,33,3950590280
72,18,17,Jits_Phase_5,1,5,56,103,3950619900
72,18,17,Jits_Phase_5,2,5,63,98,3950639684
72,18,17,Jits_Phase_5,3,5,80,127,3950699856
72,18,17,Jits_Phase_5,0,1,48,35,3951086352
72,18,17,Jits_Phase_5,1,5,80,127,3951100320
72,18,17,Jits_Phase_5,2,5,63,98,3951170028
72,18,17,Jits_Phase_5,3,5,56,103,3951190324
72,18,17,Jits_Phase_5,0,1,48,37,3951544528
72,18,17,Jits_Phase_5,1,5,80,127,3951619404
72,18,17,Jits_Phase_5,2,5,56,103,3951629824
72,18,17,Jits_Phase_5,3,5,63,98,3951639932
72,18,17,Jits_Phase_5,0,1,48,28,3952070652
72,18,17,Jits_Phase_5,1,5,80,127,3952109788
72,18,17,Jits_Phase_5,2,5,56,103,3952130544
72,18,17,Jits_Phase_5,3,5,63,98,3952200156
72,18,17,Jits_Phase_5,0,1,48,34,3952527312
72,18,17,Jits_Phase_5,1,5,56,103,3952620084
72,18,17,Jits_Phase_5,2,5,80,127,3952649836
72,18,17,Jits_Phase_5,3,5,63,98,3952669996
72,18,17,Jits_Phase_5,0,1,48,33,3953043484
72,18,17,Jits_Phase_5,1,5,63,98,3953110264
72,18,17,Jits_Phase_5,2,5,56,103,3953169740
72,18,17,Jits_Phase_5,3,5,80,127,3953199708
72,18,17,Jits_Phase_5,0,1,48,26,3953569312
72,18,17,Jits_Phase_5,1,5,63,98,3953599900
72,18,17,Jits_Phase_5,2,5,80,127,3953603412
72,18,17,Jits_Phase_5,3,5,56,103,3953690012
72,18,17,Jits_Phase_5,0,1,48,40,3954014276
72,18,17,Jits_Phase_5,1,5,56,103,3954120004
72,18,17,Jits_Phase_5,2,5,63,98,3954149828
72,18,17,Jits_Phase_5,3,5,80,127,3954189760
72,18,17,Jits_Phase_5,0,1,48,27,3954556428
72,18,17,Jits_Phase_5,1,5,63,98,3954619844
72,18,17,Jits_Phase_5,2,5,56,103,3954659912
72,18,17,Jits_Phase_5,3,5,80,127,3954680148
72,18,17,Jits_Phase_5,0,1,48,28,3955036696
72,18,17,Jits_Phase_5,1,5,63,98,3955129636
72,18,17,Jits_Phase_5,2,5,56,103,3955169632
72,18,17,Jits_Phase_5,3,5,80,127,3955179828
72,18,17,Jits_Phase_5,0,1,48,25,3955537424
72,18,17,Jits_Phase_5,1,5,80,127,3955609908
72,18,17,Jits_Phase_5,2,5,63,98,3955679720
72,18,17,Jits_Phase_5,3,5,56,103,3955700104
72,18,17,Jits_Phase_5,0,5,56,103,3956099704
72,18,17,Jits_Phase_5,1,1,48,26,3956111816
72,18,17,Jits_Phase_5,2,5,80,127,3956119856
72,18,17,Jits_Phase_5,3,5,63,98,3956159868
72,18,17,Jits_Phase_5,0,1,48,33,3956593432
72,18,17,Jits_Phase_5,1,5,63,98,3956610620
72,18,17,Jits_Phase_5,2,5,80,127,3956629808
72,18,17,Jits_Phase_5,3,5,56,103,3956669744
72,18,17,Jits_Phase_5,0,1,48,28,3957084116
72,18,17,Jits_Phase_5,1,5,63,98,3957110072
72,18,17,Jits_Phase_5,2,5,56,103,3957129632
72,18,17,Jits_Phase_5,3,5,80,127,3957139976
72,18,17,Jits_Phase_5,0,1,48,29,3957576596
72,18,17,Jits_Phase_5,1,5,80,127,3957609820
72,18,17,Jits_Phase_5,2,5,56,103,3957630204
72,18,17,Jits_Phase_5,3,5,63,98,3957659956
72,18,17,Jits_Phase_5,0,1,48,33,3958044260
72,18,17,Jits_Phase_5,1,5,56,103,3958180500
72,18,17,Jits_Phase_5,2,5,80,127,3958183640
72,18,17,Jits_Phase_5,3,5,63,98,3958199764
72,18,17,Jits_Phase_5,0,1,48,35,3958561616
72,18,17,Jits_Phase_5,1,5,63,98,3958599952
72,18,17,Jits_Phase_5,2,5,56,103,3958629780
72,18,17,Jits_Phase_5,3,5,80,127,3958690148
72,18,17,Jits_Phase_5,0,1,48,34,3959087672
72,18,17,Jits_Phase_5,1,5,63,98,3959179568
72,18,17,Jits_Phase_5,2,5,56,103,3959189752
72,18,17,Jits_Phase_5,3,5,80,127,3959200168
72,18,17,Jits_Phase_5,0,1,48,35,3959594904
72,18,17,Jits_Phase_5,1,5,56,103,3959640516
72,18,17,Jits_Phase_5,2,5,80,127,3959670116
72,18,17,Jits_Phase_5,3,5,63,98,3959680312
72,18,17,Jits_Phase_5,0,1,48,39,3960094140
72,18,17,Jits_Phase_5,1,5,63,98,3960180052
72,18,17,Jits_Phase_5,2,5,56,103,3960190308
72,18,17,Jits_Phase_5,3,5,80,127,3960209792
72,18,17,Jits_Phase_5,0,5,56,103,3960610116
72,18,17,Jits_Phase_5,1,1,48,27,3960649000
72,18,17,Jits_Phase_5,2,5,63,98,3960669548
72,18,17,Jits_Phase_5,3,5,80,127,3960672988
72,18,17,Jits_Phase_5,0,1,48,40,3961096040
72,18,17,Jits_Phase_5,1,5,80,127,3961130536
72,18,17,Jits_Phase_5,2,5,56,103,3961139564
72,18,17,Jits_Phase_5,3,5,63,98,3961210344
72,18,17,Jits_Phase_5,0,1,48,34,3961599328
72,18,17,Jits_Phase_5,1,5,80,127,3961619804
72,18,17,Jits_Phase_5,2,5,56,103,3961689580
72,18,17,Jits_Phase_5,3,5,63,98,3961699612
72,18,17,Jits_Phase_5,0,1,48,33,3962136532
72,18,17,Jits_Phase_5,1,5,63,98,3962159716
72,18,17,Jits_Phase_5,2,5,56,103,3962169688
72,18,17,Jits_Phase_5,3,5,80,127,3962190596
72,18,17,Jits_Phase_5,0,5,80,127,3962610148
72,18,17,Jits_Phase_5,1,1,48,37,3962665852
72,18,17,Jits_Phase_5,2,5,63,98,3962669708
72,18,17,Jits_Phase_5,3,5,56,103,3962710568
72,18,17,Jits_Phase_5,0,1,48,38,3963114752
72,18,17,Jits_Phase_5,1,5,56,103,3963149692
72,18,17,Jits_Phase_5,2,5,63,98,3963159888
72,18,17,Jits_Phase_5,3,5,80,127,3963199776
72,18,17,Jits_Phase_5,0,5,56,103,3963609744
72,18,17,Jits_Phase_5,1,1,48,35,3963629052
72,18,17,Jits_Phase_5,2,5,80,127,3963640308
72,18,17,Jits_Phase_5,3,5,63,98,3963690508
72,18,17,Jits_Phase_5,0,5,56,103,3964150116
72,18,17,Jits_Phase_5,1,1,48,28,3964157944
72,18,17,Jits_Phase_5,2,5,63,98,3964190044
72,18,17,Jits_Phase_5,3,5,80,127,3964193632
72,18,17,Jits_Phase_5,0,1,48,32,3964630516
72,18,17,Jits_Phase_5,1,5,56,103,3964649944
72,18,17,Jits_Phase_5,2,5,63,98,3964660064
72,18,17,Jits_Phase_5,3,5,80,127,3964679624
72,18,17,Jits_Phase_5,0,5,56,103,3965109692
72,18,17,Jits_Phase_5,1,5,80,127,3965112612
72,18,17,Jits_Phase_5,2,5,63,98,3965149484
72,18,17,Jits_Phase_5,3,1,48,21,3965160996
72,18,17,Jits_Phase_5,0,1,48,31,3965614052
72,18,17,Jits_Phase_5,1,5,63,98,3965650496
72,18,17,Jits_Phase_5,2,5,56,103,3965679948
72,18,17,Jits_Phase_5,3,5,80,127,3965699508
72,18,17,Jits_Phase_5,0,1,48,33,3966098908
72,18,17,Jits_Phase_5,1,5,80,127,3966120504
72,18,17,Jits_Phase_5,2,5,56,103,3966129504
72,18,17,Jits_Phase_5,3,5,63,98,3966139700
72,18,17,Jits_Phase_5,0,1,48,36,3966563280
72,18,17,Jits_Phase_5,1,5,56,103,3966619880
72,18,17,Jits_Phase_5,2,5,80,127,3966660472
72,18,17,Jits_Phase_5,3,5,63,98,3966689624
72,18,17,Jits_Phase_5,0,1,48,29,3967070608
72,18,17,Jits_Phase_5,1,5,63,98,3967129820
72,18,17,Jits_Phase_5,2,5,80,127,3967140460
72,18,17,Jits_Phase_5,3,5,56,103,3967149464
72,18,17,Jits_Phase_5,0,1,48,29,3967573052
72,18,17,Jits_Phase_5,1,5,56,103,3967619528
72,18,17,Jits_Phase_5,2,5,63,98,3967690164
72,18,17,Jits_Phase_5,3,5,80,127,3967700508
72,18,17,Jits_Phase_5,0,1,48,30,3968041988
72,18,17,Jits_Phase_5,1,5,80,127,3968130592
72,18,17,Jits_Phase_5,2,5,56,103,3968139576
72,18,17,Jits_Phase_5,3,5,63,98,3968189776
72,18,17,Jits_Phase_5,0,1,48,19,3968609488
72,18,17,Jits_Phase_5,1,5,80,127,3968640600
72,18,17,Jits_Phase_5,2,5,56,103,3968699792
72,18,17,Jits_Phase_5,3,5,63,98,3968729600
72,18,17,Jits_Phase_5,0,1,48,33,3969075140
72,18,17,Jits_Phase_5,1,5,56,103,3969139972
72,18,17,Jits_Phase_5,2,5,80,127,3969143416
72,18,17,Jits_Phase_5,3,5,63,98,3969180048
72,18,17,Jits_Phase_5,0,1,48,37,3969634892
72,18,17,Jits_Phase_5,1,5,56,103,3969669608
72,18,17,Jits_Phase_5,2,5,63,98,3969700480
72,18,17,Jits_Phase_5,3,5,80,127,3969709332
72,18,17,Jits_Phase_5,0,1,48,33,3970092368
72,18,17,Jits_Phase_5,1,5,63,98,3970179624
72,18,17,Jits_Phase_5,2,5,80,127,3970189732
72,18,17,Jits_Phase_5,3,5,56,103,3970199924
72,18,17,Jits_Phase_5,0,5,80,127,3970630008
72,18,17,Jits_Phase_5,1,1,48,23,3970646312
72,18,17,Jits_Phase_5,2,5,56,103,3970680128
72,18,17,Jits_Phase_5,3,5,63,98,3970683268
72,18,17,Jits_Phase_5,0,1,48,28,3971062804
72,18,17,Jits_Phase_5,1,5,56,103,3971160384
72,18,17,Jits_Phase_5,2,5,80,127,3971180020
72,18,17,Jits_Phase_5,3,5,63,98,3971189992
72,18,17,Jits_Phase_5,0,5,63,98,3971639704
72,18,17,Jits_Phase_5,1,1,48,20,3971649724
72,18,17,Jits_Phase_5,2,5,56,103,3971670348
72,18,17,Jits_Phase_5,3,5,80,127,3971689832
72,18,17,Jits_Phase_5,0,1,48,32,3972124408
72,18,17,Jits_Phase_5,1,5,56,103,3972149564
72,18,17,Jits_Phase_5,2,5,80,127,3972159760
72,18,17,Jits_Phase_5,3,5,63,98,3972229568
72,18,17,Jits_Phase_5,0,5,63,98,3972640080
72,18,17,Jits_Phase_5,1,1,48,25,3972647832
72,18,17,Jits_Phase_5,2,5,80,127,3972680036
72,18,17,Jits_Phase_5,3,5,56,103,3972719972
72,18,17,Jits_Phase_5,0,1,48,24,3973142264
72,18,17,Jits_Phase_5,1,5,56,103,3973150084
72,18,17,Jits_Phase_5,2,5,63,98,3973160356
72,18,17,Jits_Phase_5,3,5,80,127,3973179864
72,18,17,Jits_Phase_5,0,5,63,98,3973689724
72,18,17,Jits_Phase_5,1,1,48,23,3973696584
72,18,17,Jits_Phase_5,2,5,80,127,3973710472
72,18,17,Jits_Phase_5,3,5,56,103,3973729660
72,18,17,Jits_Phase_5,0,5,56,103,3974130032
72,18,17,Jits_Phase_5,1,1,48,26,3974143268
72,18,17,Jits_Phase_5,2,5,80,127,3974209920
72,18,17,Jits_Phase_5,3,5,63,98,3974220264
72,18,17,Jits_Phase_5,0,5,80,127,3974669804
72,18,17,Jits_Phase_5,1,1,48,24,3974677732
72,18,17,Jits_Phase_5,2,5,63,98,3974679848
72,18,17,Jits_Phase_5,3,5,56,103,3974709544
72,18,17,Jits_Phase_5,0,5,63,98,3975129344
72,18,17,Jits_Phase_5,1,1,48,23,3975149396
72,18,17,Jits_Phase_5,2,5,80,127,3975170472
72,18,17,Jits_Phase_5,3,5,56,103,3975229760
72,18,17,Jits_Phase_5,0,1,48,29,3975628840
72,18,17,Jits_Phase_5,1,5,63,98,3975640548
72,18,17,Jits_Phase_5,2,5,56,103,3975689552
72,18,17,Jits_Phase_5,3,5,80,127,3975720404
72,18,17,Jits_Phase_5,0,1,48,31,3976124084
72,18,17,Jits_Phase_5,1,5,80,127,3976140592
72,18,17,Jits_Phase_5,2,5,63,98,3976150492
72,18,17,Jits_Phase_5,3,5,56,103,3976220168
72,18,17,Jits_Phase_5,0,1,48,28,3976615520
72,18,17,Jits_Phase_5,1,5,80,127,3976700508
72,18,17,Jits_Phase_5,2,5,56,103,3976709508
72,18,17,Jits_Phase_5,3,5,63,98,3976713384
72,18,17,Jits_Phase_5,0,5,56,103,3977139508
72,18,17,Jits_Phase_5,1,1,48,28,3977150268
72,18,17,Jits_Phase_5,2,5,80,127,3977160036
72,18,17,Jits_Phase_5,3,5,63,98,3977170232
72,18,17,Jits_Phase_5,0,5,63,98,3977649464
72,18,17,Jits_Phase_5,1,5,56,103,3977689400
72,18,17,Jits_Phase_5,2,5,80,127,3977709936
72,18,17,Jits_Phase_5,0,1,48,27,3978119032
72,18,17,Jits_Phase_5,1,5,63,98,3978150448
72,18,17,Jits_Phase_5,2,5,56,103,3978209788
72,18,17,Jits_Phase_5,3,5,80,127,3978212780
72,18,17,Jits_Phase_5,0,5,56,103,3978610116
72,18,17,Jits_Phase_5,1,5,80,127,3978629456
72,18,17,Jits_Phase_5,2,5,63,98,3978669464
72,18,17,Jits_Phase_5,0,5,56,103,3979139364
72,18,17,Jits_Phase_5,1,5,63,98,3979159896
72,18,17,Jits_Phase_5,2,5,80,127,3979170164
72,18,17,Jits_Phase_5,3,1,48,38,3979215676
72,18,17,Jits_Phase_5,0,5,80,127,3979609532
72,18,17,Jits_Phase_5,1,5,56,103,3979640404
72,18,17,Jits_Phase_5,2,1,48,35,3979644568
72,18,17,Jits_Phase_5,3,5,63,98,3979680184
72,18,17,Jits_Phase_5,0,1,48,24,3980120164
72,18,17,Jits_Phase_5,1,5,80,127,3980121576
72,18,17,Jits_Phase_5,2,5,56,103,3980139864
72,18,17,Jits_Phase_5,3,5,63,98,3980200476
72,18,17,Jits_Phase_5,0,1,48,31,3980552576
72,18,17,Jits_Phase_5,1,5,56,103,3980630244
72,18,17,Jits_Phase_5,2,5,80,127,3980649952
72,18,17,Jits_Phase_5,3,5,63,98,3980710472
72,18,17,Jits_Phase_5,0,5,80,127,3981109548
72,18,17,Jits_Phase_5,1,5,56,103,3981119968
72,18,17,Jits_Phase_5,2,5,63,98,3981159756
72,18,17,Jits_Phase_5,3,1,48,21,3981178236
72,18,17,Jits_Phase_5,0,5,63,98,3981610408
72,18,17,Jits_Phase_5,1,1,48,17,3981650520
72,18,17,Jits_Phase_5,2,5,56,103,3981652032
72,18,17,Jits_Phase_5,3,5,80,127,3981654776
72,18,17,Jits_Phase_5,0,1,48,35,3982094604
72,18,17,Jits_Phase_5,1,5,63,98,3982129572
72,18,17,Jits_Phase_5,2,5,80,127,3982169360
72,18,17,Jits_Phase_5,3,5,56,103,3982200288
72,18,17,Jits_Phase_5,0,1,48,33,3982603348
72,18,17,Jits_Phase_5,1,5,56,103,3982620156
72,18,17,Jits_Phase_5,2,5,63,98,3982630128
72,18,17,Jits_Phase_5,3,5,80,127,3982659900
72,18,17,Jits_Phase_5,0,1,48,27,3983058524
72,18,17,Jits_Phase_5,1,5,80,127,3983109416
72,18,17,Jits_Phase_5,2,5,63,98,3983180228
72,18,17,Jits_Phase_5,3,5,56,103,3983190352
72,18,17,Jits_Phase_5,0,1,48,33,3983606584
72,18,17,Jits_Phase_5,1,5,63,98,3983610368
72,18,17,Jits_Phase_5,2,5,56,103,3983680072
72,18,17,Jits_Phase_5,3,5,80,127,3983690268
72,18,17,Jits_Phase_5,0,5,63,98,3984089452
72,18,17,Jits_Phase_5,1,5,56,103,3984109908
72,18,17,Jits_Phase_5,2,1,48,32,3984129812
72,18,17,Jits_Phase_5,3,5,80,127,3984149764
72,18,17,Jits_Phase_5,0,5,56,103,3984569724
72,18,17,Jits_Phase_5,1,5,63,98,3984580144
72,18,17,Jits_Phase_5,2,1,48,29,3984618480
72,18,17,Jits_Phase_5,3,5,80,127,3984659780
72,18,17,Jits_Phase_5,0,1,48,36,3985058156
72,18,17,Jits_Phase_5,1,5,63,98,3985060120
72,18,17,Jits_Phase_5,2,5,56,103,3985090240
72,18,17,Jits_Phase_5,3,5,80,127,3985130028
72,18,17,Jits_Phase_5,0,1,48,38,3985515860
72,18,17,Jits_Phase_5,1,5,56,103,3985560016
72,18,17,Jits_Phase_5,2,5,63,98,3985599808
72,18,17,Jits_Phase_5,3,5,80,127,3985639876
72,18,17,Jits_Phase_5,0,1,48,34,3985994180
72,18,17,Jits_Phase_5,1,5,80,127,3986059692
72,18,17,Jits_Phase_5,2,5,56,103,3986139472
72,18,17,Jits_Phase_5,3,5,63,98,3986149740
72,18,17,Jits_Phase_5,0,1,48,35,3986462820
72,18,17,Jits_Phase_5,1,5,56,103,3986600328
72,18,17,Jits_Phase_5,2,5,63,98,3986603396
72,18,17,Jits_Phase_5,3,5,80,127,3986609480
72,18,17,Jits_Phase_5,0,1,48,41,3986951400
72,18,17,Jits_Phase_5,1,5,56,103,3987119480
72,18,17,Jits_Phase_5,2,5,63,98,3987140160
72,18,17,Jits_Phase_5,3,5,80,127,3987150284
72,18,17,Jits_Phase_5,0,1,48,33,3987507524
72,18,17,Jits_Phase_5,1,5,63,98,3987580364
72,18,17,Jits_Phase_5,2,5,80,127,3987589364
72,18,17,Jits_Phase_5,3,5,56,103,3987610176
72,18,17,Jits_Phase_5,0,1,48,30,3987981396
72,18,17,Jits_Phase_5,1,5,63,98,3988080168
72,18,17,Jits_Phase_5,2,5,56,103,3988160112
72,18,17,Jits_Phase_5,3,5,80,127,3988163104
72,18,17,Jits_Phase_5,0,1,48,29,3988494088
72,18,17,Jits_Phase_5,1,5,63,98,3988579636
72,18,17,Jits_Phase_5,2,5,56,103,3988600300
72,18,17,Jits_Phase_5,3,5,80,127,3988629824
72,18,17,Jits_Phase_5,0,1,48,28,3989037384
72,18,17,Jits_Phase_5,1,5,56,103,3989080356
72,18,17,Jits_Phase_5,2,5,63,98,3989100140
72,18,17,Jits_Phase_5,3,5,80,127,3989110260
72,18,17,Jits_Phase_5,0,1,48,18,3989554148
72,18,17,Jits_Phase_5,1,5,56,103,3989610144
72,18,17,Jits_Phase_5,2,5,63,98,3989639520
72,18,17,Jits_Phase_5,3,5,80,127,3989642960
72,18,17,Jits_Phase_5,0,1,48,32,3989961720
72,18,17,Jits_Phase_5,1,5,56,103,3990060344
72,18,17,Jits_Phase_5,2,5,63,98,3990100216
72,18,17,Jits_Phase_5,3,5,80,127,3990159708
72,18,17,Jits_Phase_5,0,1,48,19,3990494512
72,18,17,Jits_Phase_5,1,5,56,103,3990589936
72,18,17,Jits_Phase_5,2,5,63,98,3990600340
72,18,17,Jits_Phase_5,3,5,80,127,3990659456
72,18,17,Jits_Phase_5,0,1,48,33,3990972688
72,18,17,Jits_Phase_5,1,5,56,103,3991089600
72,18,17,Jits_Phase_5,2,5,80,127,3991110280
72,18,17,Jits_Phase_5,3,5,63,98,3991139804
72,18,17,Jits_Phase_5,0,1,48,25,3991505996
72,18,17,Jits_Phase_5,1,5,80,127,3991590236
72,18,17,Jits_Phase_5,2,5,56,103,3991599460
72,18,17,Jits_Phase_5,3,5,63,98,3991620076
72,18,17,Jits_Phase_5,0,1,48,24,3991981704
72,18,17,Jits_Phase_5,1,5,63,98,3992079708
72,18,17,Jits_Phase_5,2,5,80,127,3992159676
72,18,17,Jits_Phase_5,3,5,56,103,3992170168
72,18,17,Jits_Phase_5,0,1,48,24,3992543188
72,18,17,Jits_Phase_5,1,5,80,127,3992669544
72,18,17,Jits_Phase_5,2,5,56,103,3992690000
72,18,17,Jits_Phase_5,3,5,63,98,3992693068
72,18,17,Jits_Phase_5,0,1,48,27,3993022636
72,18,17,Jits_Phase_5,1,5,63,98,3993170264
72,18,17,Jits_Phase_5,2,5,80,127,3993173552
72,18,17,Jits_Phase_5,3,5,56,103,3993229676
72,18,17,Jits_Phase_5,0,1,48,25,3993610268
72,18,17,Jits_Phase_5,1,5,56,103,3993649424
72,18,17,Jits_Phase_5,2,5,80,127,3993660140
72,18,17,Jits_Phase_5,3,5,63,98,3993699632
72,18,17,Jits_Phase_5,0,1,48,25,3994087148
72,18,17,Jits_Phase_5,1,5,56,103,3994130040
72,18,17,Jits_Phase_5,2,5,63,98,3994190144
72,18,17,Jits_Phase_5,3,5,80,127,3994200412
72,18,17,Jits_Phase_5,0,5,63,98,3994639612
72,18,17,Jits_Phase_5,1,1,48,23,3994666548
72,18,17,Jits_Phase_5,2,5,80,127,3994679568
72,18,17,Jits_Phase_5,3,5,56,103,3994719580
72,18,17,Jits_Phase_5,0,1,48,26,3995128996
72,18,17,Jits_Phase_5,1,5,56,103,3995139508
72,18,17,Jits_Phase_5,2,5,63,98,3995220216
72,18,17,Jits_Phase_5,3,5,80,127,3995224320
72,18,17,Jits_Phase_5,0,1,48,24,3995674280
72,18,17,Jits_Phase_5,1,5,80,127,3995699584
72,18,17,Jits_Phase_5,2,5,56,103,3995730380
72,18,17,Jits_Phase_5,3,5,63,98,3995733372
72,18,17,Jits_Phase_5,0,5,56,103,3996160356
72,18,17,Jits_Phase_5,1,1,48,19,3996173588
72,18,17,Jits_Phase_5,2,5,80,127,3996179980
72,18,17,Jits_Phase_5,3,5,63,98,3996219720
72,18,17,Jits_Phase_5,0,1,48,22,3996633636
72,18,17,Jits_Phase_5,1,5,80,127,3996639512
72,18,17,Jits_Phase_5,2,5,63,98,3996660044
72,18,17,Jits_Phase_5,3,5,56,103,3996719532
72,18,17,Jits_Phase_5,0,1,48,18,3997151424
72,18,17,Jits_Phase_5,1,5,63,98,3997159912
72,18,17,Jits_Phase_5,2,5,56,103,3997170180
72,18,17,Jits_Phase_5,3,5,80,127,3997220304
72,18,17,Jits_Phase_5,0,1,48,26,3997601348
72,18,17,Jits_Phase_5,1,5,56,103,3997650372
72,18,17,Jits_Phase_5,2,5,63,98,3997669932
72,18,17,Jits_Phase_5,3,5,80,127,3997680128
72,18,17,Jits_Phase_5,0,1,48,26,3998138496
72,18,17,Jits_Phase_5,1,5,56,103,3998140004
72,18,17,Jits_Phase_5,2,5,63,98,3998142924
72,18,17,Jits_Phase_5,3,5,80,127,3998160088
72,18,17,Jits_Phase_5,0,1,48,33,3998597392
72,18,17,Jits_Phase_5,1,5,63,98,3998680496
72,18,17,Jits_Phase_5,2,5,56,103,3998710008
72,18,17,Jits_Phase_5,3,5,80,127,3998740052
72,18,17,Jits_Phase_5,0,1,48,24,3999123132
72,18,17,Jits_Phase_5,1,5,80,127,3999140096
72,18,17,Jits_Phase_5,2,5,56,103,3999230204
72,18,17,Jits_Phase_5,3,5,63,98,3999233348
72,18,17,Jits_Phase_5,0,1,48,25,3999639836
72,18,17,Jits_Phase_5,1,5,56,103,3999641200
72,18,17,Jits_Phase_5,2,5,80,127,3999643948
72,18,17,Jits_Phase_5,3,5,63,98,3999720000
72,18,17,Jits_Phase_5,0,1,48,29,4000130340
72,18,17,Jits_Phase_5,1,5,80,127,4000139504
72,18,17,Jits_Phase_5,2,5,63,98,4000199968
72,18,17,Jits_Phase_5,3,5,56,103,4000229700
72,18,17,Jits_Phase_5,0,5,63,98,4000640308
72,18,17,Jits_Phase_5,1,5,80,127,4000649532
72,18,17,Jits_Phase_5,2,1,48,23,4000680148
72,18,17,Jits_Phase_5,3,5,56,103,4000720172
72,18,17,Jits_Phase_5,0,1,48,22,4001156200
72,18,17,Jits_Phase_5,1,5,56,103,4001199460
72,18,17,Jits_Phase_5,2,5,80,127,4001230180
72,18,17,Jits_Phase_5,3,5,63,98,4001280440
72,18,17,Jits_Phase_5,0,1,48,26,4001676988
72,18,17,Jits_Phase_5,1,5,63,98,4001790288
72,18,17,Jits_Phase_5,2,5,56,103,4001819964
72,18,17,Jits_Phase_5,3,5,80,127,4001823104
72,18,17,Jits_Phase_5,0,1,48,27,4002233976
72,18,17,Jits_Phase_5,1,5,63,98,4002289972
72,18,17,Jits_Phase_5,2,5,80,127,4002309460
72,18,17,Jits_Phase_5,3,5,56,103,4002319952
72,18,17,Jits_Phase_5,0,1,48,29,4002799456
72,18,17,Jits_Phase_5,1,5,56,103,4002801128
72,18,17,Jits_Phase_5,2,5,63,98,4002803804
72,18,17,Jits_Phase_5,3,5,80,127,4002819328
72,18,17,Jits_Phase_5,0,5,56,103,4003249916
72,18,17,Jits_Phase_5,1,5,63,98,4003259892
72,18,17,Jits_Phase_5,2,5,80,127,4003289564
72,18,17,Jits_Phase_5,3,1,48,29,4003301676
72,18,17,Jits_Phase_5,0,5,63,98,4003769908
72,18,17,Jits_Phase_5,1,1,48,28,4003770952
72,18,17,Jits_Phase_5,2,5,80,127,4003790212
72,18,17,Jits_Phase_5,3,5,56,103,4003830148
72,18,17,Jits_Phase_5,0,1,48,30,4004249780
72,18,17,Jits_Phase_5,1,5,56,103,4004299996
72,18,17,Jits_Phase_5,2,5,63,98,4004339928
72,18,17,Jits_Phase_5,3,5,80,127,4004344180
72,18,17,Jits_Phase_5,0,5,80,127,4004739588
72,18,17,Jits_Phase_5,1,1,48,30,4004750124
72,18,17,Jits_Phase_5,2,5,56,103,4004780340
72,18,17,Jits_Phase_5,3,5,63,98,4004829492
72,18,17,Jits_Phase_5,0,1,48,36,4005225224
72,18,17,Jits_Phase_5,1,5,56,103,4005299504
72,18,17,Jits_Phase_5,2,5,80,127,4005310076
72,18,17,Jits_Phase_5,3,5,63,98,4005339436
72,18,17,Jits_Phase_5,0,5,56,103,4005750120
72,18,17,Jits_Phase_5,1,1,48,30,4005761332
72,18,17,Jits_Phase_5,2,5,80,127,4005790124
72,18,17,Jits_Phase_5,3,5,63,98,4005840248
72,18,17,Jits_Phase_5,0,1,48,24,4006236132
72,18,17,Jits_Phase_5,1,5,56,103,4006250024
72,18,17,Jits_Phase_5,2,5,80,127,4006289888
72,18,17,Jits_Phase_5,3,5,63,98,4006339924
72,18,17,Jits_Phase_5,0,5,80,127,4006740268
72,18,17,Jits_Phase_5,1,1,48,24,4006751856
72,18,17,Jits_Phase_5,2,5,63,98,4006820132
72,18,17,Jits_Phase_5,3,5,56,103,4006829280
72,18,17,Jits_Phase_5,0,1,48,31,4007225908
72,18,17,Jits_Phase_5,1,5,80,127,4007290224
72,18,17,Jits_Phase_5,2,5,56,103,4007299372
72,18,17,Jits_Phase_5,3,5,63,98,4007320336
72,18,17,Jits_Phase_5,0,1,48,27,4007743120
72,18,17,Jits_Phase_5,1,5,63,98,4007760232
72,18,17,Jits_Phase_5,2,5,56,103,4007829908
72,18,17,Jits_Phase_5,3,5,80,127,4007833124
72,18,17,Jits_Phase_5,0,1,48,22,4008244884
72,18,17,Jits_Phase_5,1,5,80,127,4008249936
72,18,17,Jits_Phase_5,2,5,63,98,4008299840
72,18,17,Jits_Phase_5,3,5,56,103,4008339852
72,18,17,Jits_Phase_5,0,1,48,28,4008719896
72,18,17,Jits_Phase_5,1,5,63,98,4008790368
72,18,17,Jits_Phase_5,2,5,56,103,4008830292
72,18,17,Jits_Phase_5,3,5,80,127,4008839740
72,18,17,Jits_Phase_5,0,1,48,27,4009227448
72,18,17,Jits_Phase_5,1,5,63,98,4009279860
72,18,17,Jits_Phase_5,2,5,56,103,4009300244
72,18,17,Jits_Phase_5,3,5,80,127,4009319956
72,18,17,Jits_Phase_5,0,1,48,24,4009737920
72,18,17,Jits_Phase_5,1,5,80,127,4009739656
72,18,17,Jits_Phase_5,2,5,56,103,4009750000
72,18,17,Jits_Phase_5,3,5,63,98,4009770456
72,18,17,Jits_Phase_5,0,1,48,36,4010161684
72,18,17,Jits_Phase_5,1,5,63,98,4010270028
72,18,17,Jits_Phase_5,2,5,56,103,4010310068
72,18,17,Jits_Phase_5,3,5,80,127,4010339664
72,18,17,Jits_Phase_5,0,5,56,103,4010729716
72,18,17,Jits_Phase_5,1,5,63,98,4010759464
72,18,17,Jits_Phase_5,2,1,48,32,4010761328
72,18,17,Jits_Phase_5,3,5,80,127,4010790252
72,18,17,Jits_Phase_5,0,5,80,127,4011149776
72,18,17,Jits_Phase_5,1,5,56,103,4011220276
72,18,17,Jits_Phase_5,2,5,63,98,4011223272
72,18,17,Jits_Phase_5,3,1,48,31,4011227900
72,18,17,Jits_Phase_5,0,5,56,103,4011659720
72,18,17,Jits_Phase_5,1,5,63,98,4011709776
72,18,17,Jits_Phase_5,2,1,48,27,4011724952
72,18,17,Jits_Phase_5,3,5,80,127,4011739592
72,18,17,Jits_Phase_5,0,5,63,98,4012139932
72,18,17,Jits_Phase_5,1,5,80,127,4012143148
72,18,17,Jits_Phase_5,2,1,48,37,4012182684
72,18,17,Jits_Phase_5,3,5,56,103,4012200236
72,18,17,Jits_Phase_5,0,5,56,103,4012670240
72,18,17,Jits_Phase_5,1,1,48,21,4012673804
72,18,17,Jits_Phase_5,2,5,80,127,4012679752
72,18,17,Jits_Phase_5,3,5,63,98,4012729804
72,18,17,Jits_Phase_5,0,1,48,29,4013115724
72,18,17,Jits_Phase_5,1,5,63,98,4013140476
72,18,17,Jits_Phase_5,2,5,56,103,4013149476
72,18,17,Jits_Phase_5,3,5,80,127,4013180344
72,18,17,Jits_Phase_5,0,1,48,29,4013651140
72,18,17,Jits_Phase_5,1,5,63,98,4013669668
72,18,17,Jits_Phase_5,2,5,80,127,4013673104
72,18,17,Jits_Phase_5,3,5,56,103,4013699712
72,18,17,Jits_Phase_5,0,1,48,21,4014154544
72,18,17,Jits_Phase_5,1,5,63,98,4014189864
72,18,17,Jits_Phase_5,2,5,56,103,4014210544
72,18,17,Jits_Phase_5,3,5,80,127,4014213612
72,18,17,Jits_Phase_5,0,5,63,98,4014649828
72,18,17,Jits_Phase_5,1,1,48,29,4014651240
72,18,17,Jits_Phase_5,2,5,56,103,4014720324
72,18,17,Jits_Phase_5,3,5,80,127,4014739812
72,18,17,Jits_Phase_5,0,5,56,103,4015140264
72,18,17,Jits_Phase_5,1,5,63,98,4015149640
72,18,17,Jits_Phase_5,2,1,48,21,4015175400
72,18,17,Jits_Phase_5,3,5,80,127,4015239632
72,18,17,Jits_Phase_5,0,1,48,34,4015623732
72,18,17,Jits_Phase_5,1,5,56,103,4015660696
72,18,17,Jits_Phase_5,2,5,80,127,4015700212
72,18,17,Jits_Phase_5,3,5,63,98,4015709732
72,18,17,Jits_Phase_5,0,1,48,26,4016179884
72,18,17,Jits_Phase_5,1,5,56,103,4016181000
72,18,17,Jits_Phase_5,2,5,63,98,4016210152
72,18,17,Jits_Phase_5,3,5,80,127,4016239976
72,18,17,Jits_Phase_5,0,5,80,127,4016640504
72,18,17,Jits_Phase_5,1,5,63,98,4016680292
72,18,17,Jits_Phase_5,2,1,48,24,4016684832
72,18,17,Jits_Phase_5,3,5,56,103,4016699868
72,18,17,Jits_Phase_5,0,5,56,103,4017179892
72,18,17,Jits_Phase_5,1,1,48,25,4017183456
72,18,17,Jits_Phase_5,2,5,80,127,4017199692
72,18,17,Jits_Phase_5,3,5,63,98,4017219852
72,18,17,Jits_Phase_5,0,5,63,98,4017649988
72,18,17,Jits_Phase_5,1,5,56,103,4017660260
72,18,17,Jits_Phase_5,2,1,48,32,4017676632
72,18,17,Jits_Phase_5,3,5,80,127,4017719764
72,18,17,Jits_Phase_5,0,5,56,103,4018149736
72,18,17,Jits_Phase_5,1,1,48,32,4018174948
72,18,17,Jits_Phase_5,2,5,63,98,4018220308
72,18,17,Jits_Phase_5,3,5,80,127,4018239720
72,18,17,Jits_Phase_5,0,5,56,103,4018649628
72,18,17,Jits_Phase_5,1,1,48,27,4018677612
72,18,17,Jits_Phase_5,2,5,63,98,4018680120
72,18,17,Jits_Phase_5,3,5,80,127,4018720132
72,18,17,Jits_Phase_5,0,5,63,98,4019139880
72,18,17,Jits_Phase_5,1,1,48,22,4019189552
72,18,17,Jits_Phase_5,2,5,56,103,4019190896
72,18,17,Jits_Phase_5,3,5,80,127,4019200492
72,18,17,Jits_Phase_5,0,1,48,31,4019617952
72,18,17,Jits_Phase_5,1,5,56,103,4019679700
72,18,17,Jits_Phase_5,2,5,63,98,4019729816
72,18,17,Jits_Phase_5,3,5,80,127,4019740008
72,18,17,Jits_Phase_5,0,5,56,103,4020149792
72,18,17,Jits_Phase_5,1,5,63,98,4020159840
72,18,17,Jits_Phase_5,2,1,48,19,4020189412
72,18,17,Jits_Phase_5,3,5,80,127,4020239772
72,18,17,Jits_Phase_5,0,9999,9999,9999,3935897696
72,18,17,Jits_Phase_5,1,9999,9999,9999,3936397400
72,18,17,Jits_Phase_5,2,9999,9999,9999,3936897080
72,18,17,Jits_Phase_5,3,9999,9999,9999,3937397884
72,18,17,Jits_Phase_5,4,9999,9999,9999,3937897564
72,18,17,Jits_Phase_5,5,9999,9999,9999,3938397244
72,18,17,Jits_Phase_5,6,9999,9999,9999,3938898044
72,18,17,Jits_Phase_5,7,9999,9999,9999,3939397732
72,18,17,Jits_Phase_5,8,9999,9999,9999,3939897424
72,18,17,Jits_Phase_5,9,9999,9999,9999,3940397164
72,18,17,Jits_Phase_5,10,9999,9999,9999,3940897892
72,18,17,Jits_Phase_5,11,9999,9999,9999,3941397584
72,18,17,Jits_Phase_5,12,9999,9999,9999,3941897328
72,18,17,Jits_Phase_5,13,9999,9999,9999,3942398052
72,18,17,Jits_Phase_5,14,9999,9999,9999,3942897784
72,18,17,Jits_Phase_5,15,9999,9999,9999,3943397476
72,18,17,Jits_Phase_5,16,9999,9999,9999,3943897164
72,18,17,Jits_Phase_5,17,9999,9999,9999,3944397884
72,18,17,Jits_Phase_5,18,9999,9999,9999,3944897648
72,18,17,Jits_Phase_5,19,9999,9999,9999,3945397328
72,18,17,Jits_Phase_5,20,9999,9999,9999,3945898048
72,18,17,Jits_Phase_5,21,9999,9999,9999,3946397796
72,18,17,Jits_Phase_5,22,9999,9999,9999,3946897468
72,18,17,Jits_Phase_5,23,9999,9999,9999,3947397232
72,18,17,Jits_Phase_5,24,9999,9999,9999,3947897972
72,18,17,Jits_Phase_5,25,9999,9999,9999,3948397656
72,18,17,Jits_Phase_5,26,9999,9999,9999,3948897336
72,18,17,Jits_Phase_5,27,9999,9999,9999,3949398120
72,18,17,Jits_Phase_5,28,9999,9999,9999,3949908060
72,18,17,Jits_Phase_5,29,9999,9999,9999,3950407732
72,18,17,Jits_Phase_5,30,9999,9999,9999,3950897212
72,18,17,Jits_Phase_5,31,9999,9999,9999,3951398012
72,18,17,Jits_Phase_5,32,9999,9999,9999,3951897688
72,18,17,Jits_Phase_5,33,9999,9999,9999,3952397436
72,18,17,Jits_Phase_5,34,9999,9999,9999,3952897112
72,18,17,Jits_Phase_5,35,9999,9999,9999,3953397840
72,18,17,Jits_Phase_5,36,9999,9999,9999,3953897576
72,18,17,Jits_Phase_5,37,9999,9999,9999,3954397256
72,18,17,Jits_Phase_5,38,9999,9999,9999,3954897976
72,18,17,Jits_Phase_5,39,9999,9999,9999,3955397732
72,18,17,Jits_Phase_5,40,9999,9999,9999,3955897412
72,18,17,Jits_Phase_5,41,9999,9999,9999,3956397160
72,18,17,Jits_Phase_5,42,9999,9999,9999,3956897896
72,18,17,Jits_Phase_5,43,9999,9999,9999,3957397572
72,18,17,Jits_Phase_5,44,9999,9999,9999,3957897320
72,18,17,Jits_Phase_5,45,9999,9999,9999,3958398040
72,18,17,Jits_Phase_5,46,9999,9999,9999,3958897792
72,18,17,Jits_Phase_5,47,9999,9999,9999,3959397472
72,18,17,Jits_Phase_5,48,9999,9999,9999,3959907416
72,18,17,Jits_Phase_5,49,9999,9999,9999,3960407100
72,18,17,Jits_Phase_5,50,9999,9999,9999,3960907884
72,18,17,Jits_Phase_5,51,9999,9999,9999,3961407580
72,18,17,Jits_Phase_5,52,9999,9999,9999,3961907256
72,18,17,Jits_Phase_5,53,9999,9999,9999,3962408012
72,18,17,Jits_Phase_5,54,9999,9999,9999,3962907760
72,18,17,Jits_Phase_5,55,9999,9999,9999,3963407452
72,18,17,Jits_Phase_5,56,9999,9999,9999,3963907128
72,18,17,Jits_Phase_5,57,9999,9999,9999,3964407932
72,18,17,Jits_Phase_5,58,9999,9999,9999,3964907628
72,18,17,Jits_Phase_5,59,9999,9999,9999,3965407292
72,18,17,Jits_Phase_5,60,9999,9999,9999,3965908032
72,18,17,Jits_Phase_5,61,9999,9999,9999,3966407776
72,18,17,Jits_Phase_5,62,9999,9999,9999,3966907456
72,18,17,Jits_Phase_5,63,9999,9999,9999,3967407204
72,18,17,Jits_Phase_5,64,9999,9999,9999,3967927408
72,18,17,Jits_Phase_5,65,9999,9999,9999,3968427080
72,18,17,Jits_Phase_5,66,9999,9999,9999,3968927804
72,18,17,Jits_Phase_5,67,9999,9999,9999,3969427540
72,18,17,Jits_Phase_5,68,9999,9999,9999,3969927296
72,18,17,Jits_Phase_5,69,9999,9999,9999,3970428016
72,18,17,Jits_Phase_5,70,9999,9999,9999,3970927680
72,18,17,Jits_Phase_5,71,9999,9999,9999,3971427448
72,18,17,Jits_Phase_5,72,9999,9999,9999,3971927124
72,18,17,Jits_Phase_5,73,9999,9999,9999,3972427848
72,18,17,Jits_Phase_5,74,9999,9999,9999,3972927596
72,18,17,Jits_Phase_5,75,9999,9999,9999,3973427272
72,18,17,Jits_Phase_5,76,9999,9999,9999,3973928044
72,18,17,Jits_Phase_5,77,9999,9999,9999,3974427716
72,18,17,Jits_Phase_5,78,9999,9999,9999,3974927484
72,18,17,Jits_Phase_5,79,9999,9999,9999,3975427172
72,18,17,Jits_Phase_5,80,9999,9999,9999,3975927896
72,18,17,Jits_Phase_5,81,9999,9999,9999,3976407124
72,18,17,Jits_Phase_5,82,9999,9999,9999,3976907844
72,18,17,Jits_Phase_5,83,9999,9999,9999,3977407596
72,18,17,Jits_Phase_5,84,9999,9999,9999,3977907316
72,18,17,Jits_Phase_5,85,9999,9999,9999,3978408048
72,18,17,Jits_Phase_5,86,9999,9999,9999,3978907744
72,18,17,Jits_Phase_5,87,9999,9999,9999,3979407448
72,18,17,Jits_Phase_5,88,9999,9999,9999,3979907140
72,18,17,Jits_Phase_5,89,9999,9999,9999,3980407876
72,18,17,Jits_Phase_5,90,9999,9999,9999,3980907628
72,18,17,Jits_Phase_5,91,9999,9999,9999,3981407304
72,18,17,Jits_Phase_5,92,9999,9999,9999,3981908032
72,18,17,Jits_Phase_5,93,9999,9999,9999,3982407780
72,18,17,Jits_Phase_5,94,9999,9999,9999,3982907456
72,18,17,Jits_Phase_5,95,9999,9999,9999,3983407180
72,18,17,Jits_Phase_5,96,9999,9999,9999,3983907908
72,18,17,Jits_Phase_5,97,9999,9999,9999,3984357464
72,18,17,Jits_Phase_5,98,9999,9999,9999,3984857148
72,18,17,Jits_Phase_5,99,9999,9999,9999,3985357884
72,18,17,Jits_Phase_5,100,9999,9999,9999,3985857632
72,18,17,Jits_Phase_5,101,9999,9999,9999,3986357308
72,18,17,Jits_Phase_5,102,9999,9999,9999,3986858096
72,18,17,Jits_Phase_5,103,9999,9999,9999,3987357776
72,18,17,Jits_Phase_5,104,9999,9999,9999,3987857524
72,18,17,Jits_Phase_5,105,9999,9999,9999,3988357192
72,18,17,Jits_Phase_5,106,9999,9999,9999,3988857916
72,18,17,Jits_Phase_5,107,9999,9999,9999,3989357664
72,18,17,Jits_Phase_5,108,9999,9999,9999,3989857336
72,18,17,Jits_Phase_5,109,9999,9999,9999,3990358132
72,18,17,Jits_Phase_5,110,9999,9999,9999,3990868072
72,18,17,Jits_Phase_5,111,9999,9999,9999,3991367748
72,18,17,Jits_Phase_5,112,9999,9999,9999,3991867500
72,18,17,Jits_Phase_5,113,9999,9999,9999,3992367228
72,18,17,Jits_Phase_5,114,9999,9999,9999,3992918096
72,18,17,Jits_Phase_5,115,9999,9999,9999,3993428032
72,18,17,Jits_Phase_5,116,9999,9999,9999,3993927784
72,18,17,Jits_Phase_5,117,9999,9999,9999,3994427456
72,18,17,Jits_Phase_5,118,9999,9999,9999,3994927180
72,18,17,Jits_Phase_5,119,9999,9999,9999,3995427896
72,18,17,Jits_Phase_5,120,9999,9999,9999,3995927644
72,18,17,Jits_Phase_5,121,9999,9999,9999,3996427320
72,18,17,Jits_Phase_5,122,9999,9999,9999,3996928108
72,18,17,Jits_Phase_5,123,9999,9999,9999,3997438048
72,18,17,Jits_Phase_5,124,9999,9999,9999,3997937720
72,18,17,Jits_Phase_5,125,9999,9999,9999,3998437456
72,18,17,Jits_Phase_5,126,9999,9999,9999,3998937212
72,18,17,Jits_Phase_5,127,9999,9999,9999,3999437924
72,18,17,Jits_Phase_5,128,9999,9999,9999,3999937588
72,18,17,Jits_Phase_5,129,9999,9999,9999,4000437344
72,18,17,Jits_Phase_5,130,9999,9999,9999,4000938060
72,18,17,Jits_Phase_5,131,9999,9999,9999,4001537152
72,18,17,Jits_Phase_5,132,9999,9999,9999,4002037868
72,18,17,Jits_Phase_5,133,9999,9999,9999,4002537544
72,18,17,Jits_Phase_5,134,9999,9999,9999,4003037288
72,18,17,Jits_Phase_5,135,9999,9999,9999,4003538008
72,18,17,Jits_Phase_5,136,9999,9999,9999,4004037700
72,18,17,Jits_Phase_5,137,9999,9999,9999,4004537448
72,18,17,Jits_Phase_5,138,9999,9999,9999,4005037120
72,18,17,Jits_Phase_5,139,9999,9999,9999,4005537860
72,18,17,Jits_Phase_5,140,9999,9999,9999,4006037612
72,18,17,Jits_Phase_5,141,9999,9999,9999,4006537304
72,18,17,Jits_Phase_5,142,9999,9999,9999,4007038028
72,18,17,Jits_Phase_5,143,9999,9999,9999,4007537720
72,18,17,Jits_Phase_5,144,9999,9999,9999,4008037464
72,18,17,Jits_Phase_5,145,9999,9999,9999,4008537140
72,18,17,Jits_Phase_5,146,9999,9999,9999,4009037940
72,18,17,Jits_Phase_5,147,9999,9999,9999,4009537620
72,18,17,Jits_Phase_5,148,9999,9999,9999,4010037364
72,18,17,Jits_Phase_5,149,9999,9999,9999,4010538064
72,18,17,Jits_Phase_5,150,9999,9999,9999,4010937428
72,18,17,Jits_Phase_5,151,9999,9999,9999,4011437112
72,18,17,Jits_Phase_5,152,9999,9999,9999,4011937852
72,18,17,Jits_Phase_5,153,9999,9999,9999,4012437604
72,18,17,Jits_Phase_5,154,9999,9999,9999,4012937280
72,18,17,Jits_Phase_5,155,9999,9999,9999,4013438012
72,18,17,Jits_Phase_5,156,9999,9999,9999,4013937752
72,18,17,Jits_Phase_5,157,9999,9999,9999,4014437500
72,18,17,Jits_Phase_5,158,9999,9999,9999,4014937180
72,18,17,Jits_Phase_5,159,9999,9999,9999,4015437896
72,18,17,Jits_Phase_5,160,9999,9999,9999,4015937660
72,18,17,Jits_Phase_5,161,9999,9999,9999,4016437340
72,18,17,Jits_Phase_5,162,9999,9999,9999,4016938108
72,18,17,Jits_Phase_5,163,9999,9999,9999,4017437792
72,18,17,Jits_Phase_5,164,9999,9999,9999,4017937480
72,18,17,Jits_Phase_5,165,9999,9999,9999,4018437208
72,18,17,Jits_Phase_5,166,9999,9999,9999,4018937948
72,18,17,Jits_Phase_5,167,9999,9999,9999,4019437632
72,18,17,Jits_Phase_5,168,9999,9999,9999,4019937388
72,18,17,Jits_Phase_5,169,9999,9999,9999,4020438108
72,19,15,Jits_Phase_8,0,5,56,103,4029014508
72,19,15,Jits_Phase_8,1,5,63,98,4029017608
72,19,15,Jits_Phase_8,2,5,80,127,4029020656
72,19,15,Jits_Phase_8,0,1,48,23,4029777792
72,19,15,Jits_Phase_8,1,5,56,103,4029814220
72,19,15,Jits_Phase_8,2,5,63,98,4029817472
72,19,15,Jits_Phase_8,3,5,80,127,4029820664
72,19,15,Jits_Phase_8,0,1,48,25,4030525920
72,19,15,Jits_Phase_8,1,5,80,127,4030553444
72,19,15,Jits_Phase_8,2,5,63,98,4030643564
72,19,15,Jits_Phase_8,3,5,56,103,4030653684
72,19,15,Jits_Phase_8,0,1,48,38,4031366356
72,19,15,Jits_Phase_8,1,5,56,103,4031373800
72,19,15,Jits_Phase_8,2,5,63,98,4031383848
72,19,15,Jits_Phase_8,3,5,80,127,4031473964
72,19,15,Jits_Phase_8,0,5,63,98,4032143672
72,19,15,Jits_Phase_8,1,5,80,127,4032173424
72,19,15,Jits_Phase_8,2,1,48,37,4032188600
72,19,15,Jits_Phase_8,3,5,56,103,4032204360
72,19,15,Jits_Phase_8,0,1,48,41,4032925632
72,19,15,Jits_Phase_8,1,5,56,103,4032943568
72,19,15,Jits_Phase_8,2,5,80,127,4033043800
72,19,15,Jits_Phase_8,3,5,63,98,4033094100
72,19,15,Jits_Phase_8,0,5,56,103,4033744380
72,19,15,Jits_Phase_8,1,5,80,127,4033794660
72,19,15,Jits_Phase_8,2,1,48,35,4033814796
72,19,15,Jits_Phase_8,3,5,63,98,4033834516
72,19,15,Jits_Phase_8,0,5,80,127,4034573676
72,19,15,Jits_Phase_8,1,1,48,33,4034601880
72,19,15,Jits_Phase_8,2,5,63,98,4034604540
72,19,15,Jits_Phase_8,3,5,56,103,4034673944
72,19,15,Jits_Phase_8,0,5,63,98,4035404264
72,19,15,Jits_Phase_8,1,5,56,103,4035433716
72,19,15,Jits_Phase_8,2,5,80,127,4035494548
72,19,15,Jits_Phase_8,3,1,48,37,4035525536
72,19,15,Jits_Phase_8,0,5,56,103,4036143560
72,19,15,Jits_Phase_8,1,5,80,127,4036146480
72,19,15,Jits_Phase_8,2,1,48,26,4036221588
72,19,15,Jits_Phase_8,3,5,63,98,4036264396
72,19,15,Jits_Phase_8,0,1,48,32,4036975356
72,19,15,Jits_Phase_8,1,5,56,103,4037024084
72,19,15,Jits_Phase_8,2,5,80,127,4037064096
72,19,15,Jits_Phase_8,3,5,63,98,4037074444
72,19,15,Jits_Phase_8,0,5,56,103,4037783844
72,19,15,Jits_Phase_8,1,1,48,32,4037797448
72,19,15,Jits_Phase_8,2,5,80,127,4037804596
72,19,15,Jits_Phase_8,3,5,63,98,4037884460
72,19,15,Jits_Phase_8,0,5,80,127,4038573428
72,19,15,Jits_Phase_8,1,1,48,31,4038581876
72,19,15,Jits_Phase_8,2,5,56,103,4038673672
72,19,15,Jits_Phase_8,3,5,63,98,4038683924
72,19,15,Jits_Phase_8,0,5,63,98,4039343540
72,19,15,Jits_Phase_8,1,1,48,28,4039397604
72,19,15,Jits_Phase_8,2,5,80,127,4039403924
72,19,15,Jits_Phase_8,3,5,56,103,4039414340
72,19,15,Jits_Phase_8,0,1,48,29,4040135464
72,19,15,Jits_Phase_8,1,5,56,103,4040144184
72,19,15,Jits_Phase_8,2,5,63,98,4040214012
72,19,15,Jits_Phase_8,3,5,80,127,4040217376
72,19,15,Jits_Phase_8,0,1,48,28,4040971088
72,19,15,Jits_Phase_8,1,5,63,98,4040973824
72,19,15,Jits_Phase_8,2,5,56,103,4041023900
72,19,15,Jits_Phase_8,3,5,80,127,4041026968
72,19,15,Jits_Phase_8,0,1,48,39,4041717948
72,19,15,Jits_Phase_8,1,5,56,103,4041733484
72,19,15,Jits_Phase_8,2,5,80,127,4041736776
72,19,15,Jits_Phase_8,3,5,63,98,4041823552
72,19,15,Jits_Phase_8,0,1,48,40,4042509376
72,19,15,Jits_Phase_8,1,5,63,98,4042574164
72,19,15,Jits_Phase_8,2,5,56,103,4042664432
72,19,15,Jits_Phase_8,3,5,80,127,4042694104
72,19,15,Jits_Phase_8,0,5,56,103,4043363744
72,19,15,Jits_Phase_8,1,1,48,42,4043385444
72,19,15,Jits_Phase_8,2,5,63,98,4043464208
72,19,15,Jits_Phase_8,3,5,80,127,4043493868
72,19,15,Jits_Phase_8,0,5,63,98,4044183968
72,19,15,Jits_Phase_8,1,5,56,103,4044194316
72,19,15,Jits_Phase_8,2,1,48,35,4044237288
72,19,15,Jits_Phase_8,3,5,80,127,4044284288
72,19,15,Jits_Phase_8,0,5,63,98,4045004408
72,19,15,Jits_Phase_8,1,1,48,37,4045080492
72,19,15,Jits_Phase_8,2,5,56,103,4045084196
72,19,15,Jits_Phase_8,3,5,80,127,4045087188
72,19,15,Jits_Phase_8,0,5,80,127,4045764080
72,19,15,Jits_Phase_8,1,5,63,98,4045784468
72,19,15,Jits_Phase_8,2,5,56,103,4045843880
72,19,15,Jits_Phase_8,3,1,48,43,4045934300
72,19,15,Jits_Phase_8,0,5,56,103,4046603712
72,19,15,Jits_Phase_8,1,5,63,98,4046624392
72,19,15,Jits_Phase_8,2,5,80,127,4046627680
72,19,15,Jits_Phase_8,3,1,48,34,4046687244
72,19,15,Jits_Phase_8,0,5,63,98,4047343912
72,19,15,Jits_Phase_8,1,5,80,127,4047423808
72,19,15,Jits_Phase_8,2,5,56,103,4047434376
72,19,15,Jits_Phase_8,3,1,48,33,4047453388
72,19,15,Jits_Phase_8,0,5,63,98,4048164272
72,19,15,Jits_Phase_8,1,5,56,103,4048183564
72,19,15,Jits_Phase_8,2,1,48,32,4048230724
72,19,15,Jits_Phase_8,3,5,80,127,4048233976
72,19,15,Jits_Phase_8,0,5,80,127,4048964052
72,19,15,Jits_Phase_8,1,5,63,98,4049004140
72,19,15,Jits_Phase_8,2,1,48,42,4049013484
72,19,15,Jits_Phase_8,3,5,56,103,4049024220
72,19,15,Jits_Phase_8,0,5,56,103,4049803680
72,19,15,Jits_Phase_8,1,5,63,98,4049814100
72,19,15,Jits_Phase_8,2,1,48,32,4049827556
72,19,15,Jits_Phase_8,3,5,80,127,4049834328
72,19,15,Jits_Phase_8,0,5,56,103,4050533768
72,19,15,Jits_Phase_8,1,1,48,36,4050564012
72,19,15,Jits_Phase_8,2,5,63,98,4050624044
72,19,15,Jits_Phase_8,3,5,80,127,4050684268
72,19,15,Jits_Phase_8,0,1,48,31,4051348116
72,19,15,Jits_Phase_8,1,5,80,127,4051364252
72,19,15,Jits_Phase_8,2,5,56,103,4051373552
72,19,15,Jits_Phase_8,3,5,63,98,4051444276
72,19,15,Jits_Phase_8,0,1,48,36,4052130408
72,19,15,Jits_Phase_8,1,5,63,98,4052193608
72,19,15,Jits_Phase_8,2,5,80,127,4052283752
72,19,15,Jits_Phase_8,3,5,56,103,4052294172
72,19,15,Jits_Phase_8,0,1,48,34,4052915880
72,19,15,Jits_Phase_8,1,5,63,98,4052923848
72,19,15,Jits_Phase_8,2,5,80,127,4052974124
72,19,15,Jits_Phase_8,3,5,56,103,4053034348
72,19,15,Jits_Phase_8,0,1,48,41,4053683424
72,19,15,Jits_Phase_8,1,5,56,103,4053744204
72,19,15,Jits_Phase_8,2,5,80,127,4053794096
72,19,15,Jits_Phase_8,3,5,63,98,4053813680
72,19,15,Jits_Phase_8,0,1,48,32,4054513928
72,19,15,Jits_Phase_8,1,5,56,103,4054515416
72,19,15,Jits_Phase_8,2,5,80,127,4054573588
72,19,15,Jits_Phase_8,3,5,63,98,4054644224
72,19,15,Jits_Phase_8,0,1,48,28,4055291916
72,19,15,Jits_Phase_8,1,5,56,103,4055313900
72,19,15,Jits_Phase_8,2,5,80,127,4055343452
72,19,15,Jits_Phase_8,3,5,63,98,4055374324
72,19,15,Jits_Phase_8,0,1,48,44,4056061100
72,19,15,Jits_Phase_8,1,5,56,103,4056153388
72,19,15,Jits_Phase_8,2,5,80,127,4056174056
72,19,15,Jits_Phase_8,3,5,63,98,4056234296
72,19,15,Jits_Phase_8,0,1,48,43,4056842888
72,19,15,Jits_Phase_8,1,5,80,127,4057034120
72,19,15,Jits_Phase_8,2,5,56,103,4057044316
72,19,15,Jits_Phase_8,3,5,63,98,4057053540
72,19,15,Jits_Phase_8,0,1,48,37,4057757672
72,19,15,Jits_Phase_8,1,5,56,103,4057793968
72,19,15,Jits_Phase_8,2,5,80,127,4057834056
72,19,15,Jits_Phase_8,3,5,63,98,4057863492
72,19,15,Jits_Phase_8,0,1,48,38,4058535492
72,19,15,Jits_Phase_8,1,5,56,103,4058564060
72,19,15,Jits_Phase_8,2,5,63,98,4058593516
72,19,15,Jits_Phase_8,3,5,80,127,4058633512
72,19,15,Jits_Phase_8,0,1,48,39,4059246768
72,19,15,Jits_Phase_8,1,5,80,127,4059313404
72,19,15,Jits_Phase_8,2,5,63,98,4059363588
72,19,15,Jits_Phase_8,3,5,56,103,4059384344
72,19,15,Jits_Phase_8,0,1,48,42,4060028164
72,19,15,Jits_Phase_8,1,5,56,103,4060144228
72,19,15,Jits_Phase_8,2,5,80,127,4060213640
72,19,15,Jits_Phase_8,3,5,63,98,4060274176
72,19,15,Jits_Phase_8,0,1,48,43,4060845760
72,19,15,Jits_Phase_8,1,5,80,127,4060943692
72,19,15,Jits_Phase_8,2,5,63,98,4061034076
72,19,15,Jits_Phase_8,3,5,56,103,4061054388
72,19,15,Jits_Phase_8,0,1,48,38,4061678032
72,19,15,Jits_Phase_8,1,5,63,98,4061764096
72,19,15,Jits_Phase_8,2,5,56,103,4061784392
72,19,15,Jits_Phase_8,3,5,80,127,4061824408
72,19,15,Jits_Phase_8,0,1,48,40,4062505148
72,19,15,Jits_Phase_8,1,5,80,127,4062524000
72,19,15,Jits_Phase_8,2,5,63,98,4062544236
72,19,15,Jits_Phase_8,3,5,56,103,4062624308
72,19,15,Jits_Phase_8,0,1,48,40,4063245708
72,19,15,Jits_Phase_8,1,5,63,98,4063314240
72,19,15,Jits_Phase_8,2,5,56,103,4063423984
72,19,15,Jits_Phase_8,3,5,80,127,4063426976
72,19,15,Jits_Phase_8,0,1,48,32,4064033024
72,19,15,Jits_Phase_8,1,5,63,98,4064133376
72,19,15,Jits_Phase_8,2,5,56,103,4064143940
72,19,15,Jits_Phase_8,3,5,80,127,4064147156
72,19,15,Jits_Phase_8,0,1,48,28,4064785256
72,19,15,Jits_Phase_8,1,5,56,103,4064913932
72,19,15,Jits_Phase_8,2,5,80,127,4065033736
72,19,15,Jits_Phase_8,3,5,63,98,4065073400
72,19,15,Jits_Phase_8,0,1,48,35,4065625872
72,19,15,Jits_Phase_8,1,5,56,103,4065734072
72,19,15,Jits_Phase_8,2,5,80,127,4065814020
72,19,15,Jits_Phase_8,3,5,63,98,4065834404
72,19,15,Jits_Phase_8,0,1,48,27,4066497608
72,19,15,Jits_Phase_8,1,5,56,103,4066533972
72,19,15,Jits_Phase_8,2,5,63,98,4066644416
72,19,15,Jits_Phase_8,3,5,80,127,4066647708
72,19,15,Jits_Phase_8,0,1,48,32,4067279300
72,19,15,Jits_Phase_8,1,5,56,103,4067373272
72,19,15,Jits_Phase_8,2,5,80,127,4067404144
72,19,15,Jits_Phase_8,3,5,63,98,4067423480
72,19,15,Jits_Phase_8,0,1,48,37,4068080832
72,19,15,Jits_Phase_8,1,5,63,98,4068164128
72,19,15,Jits_Phase_8,2,5,56,103,4068174984
72,19,15,Jits_Phase_8,3,5,80,127,4068184428
72,19,15,Jits_Phase_8,0,1,48,32,4068815936
72,19,15,Jits_Phase_8,1,5,80,127,4068953452
72,19,15,Jits_Phase_8,2,5,56,103,4069003728
72,19,15,Jits_Phase_8,3,5,63,98,4069043664
72,19,15,Jits_Phase_8,0,1,48,23,4069718792
72,19,15,Jits_Phase_8,1,5,80,127,4069774116
72,19,15,Jits_Phase_8,2,5,63,98,4069794128
72,19,15,Jits_Phase_8,3,5,56,103,4069844240
72,19,15,Jits_Phase_8,0,1,48,35,4070467160
72,19,15,Jits_Phase_8,1,5,80,127,4070583828
72,19,15,Jits_Phase_8,2,5,56,103,4070614328
72,19,15,Jits_Phase_8,3,5,63,98,4070684004
72,19,15,Jits_Phase_8,0,1,48,25,4071364472
72,19,15,Jits_Phase_8,1,5,56,103,4071433724
72,19,15,Jits_Phase_8,2,5,80,127,4071443772
72,19,15,Jits_Phase_8,3,5,63,98,4071484016
72,19,15,Jits_Phase_8,0,1,48,32,4072136816
72,19,15,Jits_Phase_8,1,5,56,103,4072144256
72,19,15,Jits_Phase_8,2,5,63,98,4072164116
72,19,15,Jits_Phase_8,3,5,80,127,4072234456
72,19,15,Jits_Phase_8,0,1,48,34,4072908896
72,19,15,Jits_Phase_8,1,5,63,98,4072963396
72,19,15,Jits_Phase_8,2,5,80,127,4073023868
72,19,15,Jits_Phase_8,3,5,56,103,4073044476
72,19,15,Jits_Phase_8,0,1,48,36,4073678676
72,19,15,Jits_Phase_8,1,5,80,127,4073753936
72,19,15,Jits_Phase_8,2,5,56,103,4073783916
72,19,15,Jits_Phase_8,3,5,63,98,4073814344
72,19,15,Jits_Phase_8,0,1,48,37,4074434692
72,19,15,Jits_Phase_8,1,5,56,103,4074553996
72,19,15,Jits_Phase_8,2,5,63,98,4074614092
72,19,15,Jits_Phase_8,3,5,80,127,4074673808
72,19,15,Jits_Phase_8,0,1,48,24,4075361004
72,19,15,Jits_Phase_8,1,5,80,127,4075374004
72,19,15,Jits_Phase_8,2,5,56,103,4075394392
72,19,15,Jits_Phase_8,3,5,63,98,4075464052
72,19,15,Jits_Phase_8,0,1,48,39,4076144436
72,19,15,Jits_Phase_8,1,5,80,127,4076173904
72,19,15,Jits_Phase_8,2,5,63,98,4076194292
72,19,15,Jits_Phase_8,3,5,56,103,4076224040
72,19,15,Jits_Phase_8,0,5,80,127,4076964080
72,19,15,Jits_Phase_8,1,5,63,98,4076983864
72,19,15,Jits_Phase_8,2,1,48,44,4077017552
72,19,15,Jits_Phase_8,3,5,56,103,4077044028
72,19,15,Jits_Phase_8,0,1,48,44,4077742548
72,19,15,Jits_Phase_8,1,5,80,127,4077763920
72,19,15,Jits_Phase_8,2,5,56,103,4077864228
72,19,15,Jits_Phase_8,3,5,63,98,4077893928
72,19,15,Jits_Phase_8,0,5,63,98,4078553724
72,19,15,Jits_Phase_8,1,1,48,36,4078561872
72,19,15,Jits_Phase_8,2,5,80,127,4078603920
72,19,15,Jits_Phase_8,3,5,56,103,4078624080
72,19,15,Jits_Phase_8,0,1,48,37,4079358316
72,19,15,Jits_Phase_8,1,5,80,127,4079394156
72,19,15,Jits_Phase_8,2,5,56,103,4079423856
72,19,15,Jits_Phase_8,3,5,63,98,4079426776
72,19,15,Jits_Phase_8,0,1,48,39,4080112524
72,19,15,Jits_Phase_8,1,5,63,98,4080243972
72,19,15,Jits_Phase_8,2,5,56,103,4080283908
72,19,15,Jits_Phase_8,3,5,80,127,4080303840
72,19,15,Jits_Phase_8,0,1,48,32,4080979804
72,19,15,Jits_Phase_8,1,5,80,127,4081003964
72,19,15,Jits_Phase_8,2,5,63,98,4081083892
72,19,15,Jits_Phase_8,3,5,56,103,4081123904
72,19,15,Jits_Phase_8,0,1,48,26,4081736116
72,19,15,Jits_Phase_8,1,5,63,98,4081824180
72,19,15,Jits_Phase_8,2,5,80,127,4081904184
72,19,15,Jits_Phase_8,3,5,56,103,4081923668
72,19,15,Jits_Phase_8,0,1,48,23,4082591092
72,19,15,Jits_Phase_8,1,5,56,103,4082663724
72,19,15,Jits_Phase_8,2,5,63,98,4082673996
72,19,15,Jits_Phase_8,3,5,80,127,4082713844
72,19,15,Jits_Phase_8,0,5,56,103,4083383704
72,19,15,Jits_Phase_8,1,5,80,127,4083386768
72,19,15,Jits_Phase_8,2,1,48,29,4083421888
72,19,15,Jits_Phase_8,3,5,63,98,4083524028
72,19,15,Jits_Phase_8,0,1,48,26,4084161468
72,19,15,Jits_Phase_8,1,5,56,103,4084174316
72,19,15,Jits_Phase_8,2,5,63,98,4084264212
72,19,15,Jits_Phase_8,3,5,80,127,4084334068
72,19,15,Jits_Phase_8,0,1,48,32,4084940032
72,19,15,Jits_Phase_8,1,5,63,98,4085053952
72,19,15,Jits_Phase_8,2,5,80,127,4085057168
72,19,15,Jits_Phase_8,3,5,56,103,4085114116
72,19,15,Jits_Phase_8,0,1,48,29,4085698276
72,19,15,Jits_Phase_8,1,5,80,127,4085893568
72,19,15,Jits_Phase_8,2,5,56,103,4085913956
72,19,15,Jits_Phase_8,3,5,63,98,4085924300
72,19,15,Jits_Phase_8,0,1,48,19,4086346560
72,19,15,Jits_Phase_8,1,5,56,103,4086604108
72,19,15,Jits_Phase_8,2,5,63,98,4086614676
72,19,15,Jits_Phase_8,3,5,80,127,4086684056
72,19,15,Jits_Phase_8,0,1,48,23,4087250152
72,19,15,Jits_Phase_8,1,5,80,127,4087403788
72,19,15,Jits_Phase_8,2,5,56,103,4087453992
72,19,15,Jits_Phase_8,3,5,63,98,4087504264
72,19,15,Jits_Phase_8,0,5,56,103,4088283512
72,19,15,Jits_Phase_8,1,5,63,98,4088293708
72,19,15,Jits_Phase_8,2,5,80,127,4088333720
72,19,15,Jits_Phase_8,0,5,56,103,4089023844
72,19,15,Jits_Phase_8,1,5,63,98,4089063784
72,19,15,Jits_Phase_8,2,1,48,25,4089096568
72,19,15,Jits_Phase_8,3,5,80,127,4089114052
72,19,15,Jits_Phase_8,0,5,80,127,4089783612
72,19,15,Jits_Phase_8,1,5,56,103,4089833744
72,19,15,Jits_Phase_8,2,1,48,42,4089834708
72,19,15,Jits_Phase_8,3,5,63,98,4089854416
72,19,15,Jits_Phase_8,0,1,48,38,4090527304
72,19,15,Jits_Phase_8,1,5,80,127,4090593640
72,19,15,Jits_Phase_8,2,5,63,98,4090654092
72,19,15,Jits_Phase_8,3,5,56,103,4090733836
72,19,15,Jits_Phase_8,0,1,48,33,4091280760
72,19,15,Jits_Phase_8,1,5,80,127,4091373920
72,19,15,Jits_Phase_8,2,5,56,103,4091413844
72,19,15,Jits_Phase_8,3,5,63,98,4091434304
72,19,15,Jits_Phase_8,0,1,48,30,4092171484
72,19,15,Jits_Phase_8,1,5,56,103,4092223824
72,19,15,Jits_Phase_8,2,5,80,127,4092234092
72,19,15,Jits_Phase_8,3,5,63,98,4092273940
72,19,15,Jits_Phase_8,0,1,48,28,4092945684
72,19,15,Jits_Phase_8,1,5,56,103,4093094512
72,19,15,Jits_Phase_8,2,5,63,98,4093134300
72,19,15,Jits_Phase_8,3,5,80,127,4093137664
72,19,15,Jits_Phase_8,0,5,63,98,4093763856
72,19,15,Jits_Phase_8,1,1,48,38,4093801280
72,19,15,Jits_Phase_8,2,5,80,127,4093803864
72,19,15,Jits_Phase_8,3,5,56,103,4093873616
72,19,15,Jits_Phase_8,0,5,63,98,4094534024
72,19,15,Jits_Phase_8,1,5,56,103,4094613820
72,19,15,Jits_Phase_8,2,1,48,27,4094641052
72,19,15,Jits_Phase_8,3,5,80,127,4094674424
72,19,15,Jits_Phase_8,0,1,48,41,4095329164
72,19,15,Jits_Phase_8,1,5,80,127,4095343888
72,19,15,Jits_Phase_8,2,5,63,98,4095394016
72,19,15,Jits_Phase_8,3,5,56,103,4095425020
72,19,15,Jits_Phase_8,0,1,48,38,4096078956
72,19,15,Jits_Phase_8,1,5,56,103,4096133680
72,19,15,Jits_Phase_8,2,5,63,98,4096183572
72,19,15,Jits_Phase_8,3,5,80,127,4096193768
72,19,15,Jits_Phase_8,0,1,48,40,4096835636
72,19,15,Jits_Phase_8,1,1,48,24,4096891860
72,19,15,Jits_Phase_8,2,5,56,103,4096943600
72,19,15,Jits_Phase_8,3,5,63,98,4097054020
72,19,15,Jits_Phase_8,4,5,80,127,4097073608
72,19,15,Jits_Phase_8,0,1,48,37,4097708536
72,19,15,Jits_Phase_8,1,5,63,98,4097744452
72,19,15,Jits_Phase_8,2,1,48,23,4097766064
72,19,15,Jits_Phase_8,3,5,80,127,4097794488
72,19,15,Jits_Phase_8,4,5,56,103,4097883656
72,19,15,Jits_Phase_8,0,1,48,33,4098529900
72,19,15,Jits_Phase_8,1,5,63,98,4098533680
72,19,15,Jits_Phase_8,2,5,80,127,4098563580
72,19,15,Jits_Phase_8,3,5,56,103,4098653496
72,19,15,Jits_Phase_8,0,1,48,32,4099318568
72,19,15,Jits_Phase_8,1,5,63,98,4099333584
72,19,15,Jits_Phase_8,2,5,56,103,4099343708
72,19,15,Jits_Phase_8,3,5,80,127,4099444036
72,19,15,Jits_Phase_8,0,1,48,35,4100075620
72,19,15,Jits_Phase_8,1,5,63,98,4100233664
72,19,15,Jits_Phase_8,2,5,80,127,4100264388
72,19,15,Jits_Phase_8,3,5,56,103,4100293988
72,19,15,Jits_Phase_8,0,1,48,34,4101006820
72,19,15,Jits_Phase_8,1,5,80,127,4101053824
72,19,15,Jits_Phase_8,2,5,63,98,4101064020
72,19,15,Jits_Phase_8,3,5,56,103,4101093844
72,19,15,Jits_Phase_8,0,5,80,127,4101754316
72,19,15,Jits_Phase_8,1,5,63,98,4101773732
72,19,15,Jits_Phase_8,2,5,56,103,4101823856
72,19,15,Jits_Phase_8,3,1,48,36,4101844732
72,19,15,Jits_Phase_8,0,1,48,37,4102486324
72,19,15,Jits_Phase_8,1,1,48,22,4102547284
72,19,15,Jits_Phase_8,2,5,63,98,4102583652
72,19,15,Jits_Phase_8,3,5,80,127,4102644252
72,19,15,Jits_Phase_8,4,5,56,103,4102663440
72,19,15,Jits_Phase_8,0,1,48,29,4103309784
72,19,15,Jits_Phase_8,1,5,63,98,4103343532
72,19,15,Jits_Phase_8,2,5,56,103,4103393512
72,19,15,Jits_Phase_8,3,5,80,127,4103403768
72,19,15,Jits_Phase_8,0,1,48,25,4104057320
72,19,15,Jits_Phase_8,1,5,56,103,4104174060
72,19,15,Jits_Phase_8,2,5,80,127,4104184404
72,19,15,Jits_Phase_8,3,5,63,98,4104283556
72,19,15,Jits_Phase_8,0,1,48,28,4104918216
72,19,15,Jits_Phase_8,1,5,80,127,4104933752
72,19,15,Jits_Phase_8,2,5,63,98,4104944096
72,19,15,Jits_Phase_8,3,5,56,103,4105093572
72,19,15,Jits_Phase_8,0,1,48,27,4105634888
72,19,15,Jits_Phase_8,1,5,63,98,4105743684
72,19,15,Jits_Phase_8,2,5,80,127,4105783648
72,19,15,Jits_Phase_8,3,5,56,103,4105863444
72,19,15,Jits_Phase_8,0,1,48,33,4106473756
72,19,15,Jits_Phase_8,1,5,56,103,4106494528
72,19,15,Jits_Phase_8,2,5,80,127,4106593664
72,19,15,Jits_Phase_8,3,5,63,98,4106614572
72,19,15,Jits_Phase_8,0,5,80,127,4107313508
72,19,15,Jits_Phase_8,1,5,56,103,4107323852
72,19,15,Jits_Phase_8,2,1,48,27,4107329592
72,19,15,Jits_Phase_8,3,5,63,98,4107413976
72,19,15,Jits_Phase_8,0,1,48,32,4108103364
72,19,15,Jits_Phase_8,1,5,56,103,4108114396
72,19,15,Jits_Phase_8,2,5,63,98,4108133960
72,19,15,Jits_Phase_8,3,5,80,127,4108213516
72,19,15,Jits_Phase_8,0,5,63,98,4108863896
72,19,15,Jits_Phase_8,1,1,48,45,4108877356
72,19,15,Jits_Phase_8,2,5,56,103,4108954096
72,19,15,Jits_Phase_8,3,5,80,127,4108957088
72,19,15,Jits_Phase_8,0,5,56,103,4109694364
72,19,15,Jits_Phase_8,1,5,80,127,4109753780
72,19,15,Jits_Phase_8,2,5,63,98,4109764052
72,19,15,Jits_Phase_8,3,1,48,39,4109771360
72,19,15,Jits_Phase_8,0,5,80,127,4110544308
72,19,15,Jits_Phase_8,1,5,56,103,4110553456
72,19,15,Jits_Phase_8,2,1,48,38,4110556600
72,19,15,Jits_Phase_8,3,5,63,98,4110558084
72,19,15,Jits_Phase_8,0,5,56,103,4111304292
72,19,15,Jits_Phase_8,1,5,80,127,4111314340
72,19,15,Jits_Phase_8,2,5,63,98,4111333676
72,19,15,Jits_Phase_8,3,1,48,31,4111380236
72,19,15,Jits_Phase_8,0,5,63,98,4112074316
72,19,15,Jits_Phase_8,1,1,48,29,4112081624
72,19,15,Jits_Phase_8,2,5,80,127,4112133508
72,19,15,Jits_Phase_8,3,5,56,103,4112183716
72,19,15,Jits_Phase_8,0,1,48,34,4112863488
72,19,15,Jits_Phase_8,1,5,63,98,4112953740
72,19,15,Jits_Phase_8,2,5,56,103,4112964068
72,19,15,Jits_Phase_8,3,5,80,127,4113014196
72,19,15,Jits_Phase_8,0,5,63,98,4113654284
72,19,15,Jits_Phase_8,1,1,48,33,4113655328
72,19,15,Jits_Phase_8,2,5,80,127,4113673544
72,19,15,Jits_Phase_8,3,5,56,103,4113683740
72,19,15,Jits_Phase_8,0,1,48,35,4114430468
72,19,15,Jits_Phase_8,1,5,63,98,4114453804
72,19,15,Jits_Phase_8,2,5,80,127,4114457316
72,19,15,Jits_Phase_8,3,5,56,103,4114493912
72,19,15,Jits_Phase_8,0,1,48,45,4115141348
72,19,15,Jits_Phase_8,1,5,63,98,4115324208
72,19,15,Jits_Phase_8,2,5,80,127,4115354180
72,19,15,Jits_Phase_8,3,5,56,103,4115364152
72,19,15,Jits_Phase_8,0,1,48,41,4116035996
72,19,15,Jits_Phase_8,1,5,56,103,4116074008
72,19,15,Jits_Phase_8,2,5,80,127,4116103464
72,19,15,Jits_Phase_8,3,5,63,98,4116134244
72,19,15,Jits_Phase_8,0,1,48,42,4116833364
72,19,15,Jits_Phase_8,1,5,63,98,4116974072
72,19,15,Jits_Phase_8,2,5,56,103,4117014080
72,19,15,Jits_Phase_8,3,5,80,127,4117017224
72,19,15,Jits_Phase_8,0,1,48,31,4117674280
72,19,15,Jits_Phase_8,1,5,80,127,4117675544
72,19,15,Jits_Phase_8,2,5,56,103,4117754292
72,19,15,Jits_Phase_8,3,5,63,98,4117804356
72,19,15,Jits_Phase_8,0,1,48,18,4118351948
72,19,15,Jits_Phase_8,1,5,80,127,4118453564
72,19,15,Jits_Phase_8,2,5,56,103,4118474100
72,19,15,Jits_Phase_8,3,5,63,98,4118564156
72,19,15,Jits_Phase_8,0,1,48,34,4119179280
72,19,15,Jits_Phase_8,1,5,80,127,4119294372
72,19,15,Jits_Phase_8,2,5,63,98,4119334240
72,19,15,Jits_Phase_8,3,5,56,103,4119374276
72,19,15,Jits_Phase_8,0,5,63,98,4120104272
72,19,15,Jits_Phase_8,1,1,48,36,4120115216
72,19,15,Jits_Phase_8,2,5,80,127,4120163784
72,19,15,Jits_Phase_8,3,5,56,103,4120194356
72,19,15,Jits_Phase_8,0,5,56,103,4120944420
72,19,15,Jits_Phase_8,1,1,48,43,4120945388
72,19,15,Jits_Phase_8,2,5,80,127,4120973644
72,19,15,Jits_Phase_8,3,5,63,98,4121063908
72,19,15,Jits_Phase_8,0,5,56,103,4121754156
72,19,15,Jits_Phase_8,1,1,48,46,4121810164
72,19,15,Jits_Phase_8,2,5,80,127,4121863392
72,19,15,Jits_Phase_8,3,5,63,98,4121894264
72,19,15,Jits_Phase_8,0,5,56,103,4122603980
72,19,15,Jits_Phase_8,1,1,48,41,4122620728
72,19,15,Jits_Phase_8,2,5,63,98,4122664292
72,19,15,Jits_Phase_8,3,5,80,127,4122694212
72,19,15,Jits_Phase_8,0,5,56,103,4123373868
72,19,15,Jits_Phase_8,1,1,48,35,4123432212
72,19,15,Jits_Phase_8,2,5,63,98,4123443716
72,19,15,Jits_Phase_8,3,5,80,127,4123464176
72,19,15,Jits_Phase_8,0,5,80,127,4124144196
72,19,15,Jits_Phase_8,1,5,63,98,4124163384
72,19,15,Jits_Phase_8,2,5,56,103,4124213612
72,19,15,Jits_Phase_8,3,1,48,38,4124269088
72,19,15,Jits_Phase_8,0,5,63,98,4124964196
72,19,15,Jits_Phase_8,1,5,80,127,4124973368
72,19,15,Jits_Phase_8,2,5,56,103,4125023496
72,19,15,Jits_Phase_8,3,1,48,34,4125037700
72,19,15,Jits_Phase_8,0,5,63,98,4125764124
72,19,15,Jits_Phase_8,1,1,48,35,4125767992
72,19,15,Jits_Phase_8,2,5,80,127,4125833500
72,19,15,Jits_Phase_8,3,5,56,103,4125854032
72,19,15,Jits_Phase_8,0,1,48,33,4126546912
72,19,15,Jits_Phase_8,1,5,63,98,4126594368
72,19,15,Jits_Phase_8,2,5,80,127,4126597732
72,19,15,Jits_Phase_8,3,5,56,103,4126664032
72,19,15,Jits_Phase_8,0,1,48,34,4127319684
72,19,15,Jits_Phase_8,1,5,80,127,4127344216
72,19,15,Jits_Phase_8,2,5,56,103,4127363556
72,19,15,Jits_Phase_8,3,5,63,98,4127373900
72,19,15,Jits_Phase_8,0,1,48,35,4128049536
72,19,15,Jits_Phase_8,1,5,56,103,4128164184
72,19,15,Jits_Phase_8,2,5,63,98,4128254388
72,19,15,Jits_Phase_8,3,5,80,127,4128257904
72,19,15,Jits_Phase_8,0,1,48,34,4128834532
72,19,15,Jits_Phase_8,1,5,80,127,4128934192
72,19,15,Jits_Phase_8,2,5,56,103,4128943340
72,19,15,Jits_Phase_8,3,5,63,98,4128964096
72,19,15,Jits_Phase_8,0,1,48,29,4129469716
72,19,15,Jits_Phase_8,1,5,63,98,4129733936
72,19,15,Jits_Phase_8,2,5,80,127,4129794476
72,19,15,Jits_Phase_8,3,5,56,103,4129803624
72,19,15,Jits_Phase_8,0,1,48,25,4130222216
72,19,15,Jits_Phase_8,1,5,63,98,4130604424
72,19,15,Jits_Phase_8,2,5,80,127,4130634024
72,19,15,Jits_Phase_8,3,5,56,103,4130673888
72,19,15,Jits_Phase_8,4,1,48,32,4130962004
72,19,15,Jits_Phase_8,0,5,56,103,4131394048
72,19,15,Jits_Phase_8,1,5,80,127,4131404244
72,19,15,Jits_Phase_8,2,5,63,98,4131444108
72,19,15,Jits_Phase_8,0,1,48,34,4131818120
72,19,15,Jits_Phase_8,1,5,80,127,4132153884
72,19,15,Jits_Phase_8,2,5,56,103,4132233608
72,19,15,Jits_Phase_8,3,5,63,98,4132243804
72,19,15,Jits_Phase_8,0,1,48,39,4132635312
72,19,15,Jits_Phase_8,1,5,80,127,4133003620
72,19,15,Jits_Phase_8,2,5,56,103,4133083416
72,19,15,Jits_Phase_8,3,5,63,98,4133093984
72,19,15,Jits_Phase_8,0,1,48,39,4133608088
72,19,15,Jits_Phase_8,1,5,80,127,4133844212
72,19,15,Jits_Phase_8,2,5,56,103,4133893368
72,19,15,Jits_Phase_8,3,5,63,98,4133943592
72,19,15,Jits_Phase_8,4,1,48,29,4134072868
72,19,15,Jits_Phase_8,0,1,48,37,4134705888
72,19,15,Jits_Phase_8,1,5,56,103,4134784356
72,19,15,Jits_Phase_8,2,5,63,98,4134787348
72,19,15,Jits_Phase_8,3,5,80,127,4134833420
72,19,15,Jits_Phase_8,0,1,48,38,4135351584
72,19,15,Jits_Phase_8,1,5,56,103,4135603580
72,19,15,Jits_Phase_8,2,5,63,98,4135634300
72,19,15,Jits_Phase_8,3,5,80,127,4135643524
72,19,15,Jits_Phase_8,0,1,48,37,4136087348
72,19,15,Jits_Phase_8,1,5,63,98,4136314256
72,19,15,Jits_Phase_8,2,5,56,103,4136383788
72,19,15,Jits_Phase_8,3,5,80,127,4136433916
72,19,15,Jits_Phase_8,0,1,48,36,4136896928
72,19,15,Jits_Phase_8,1,5,63,98,4137143684
72,19,15,Jits_Phase_8,2,5,56,103,4137153880
72,19,15,Jits_Phase_8,3,5,80,127,4137157096
72,19,15,Jits_Phase_8,0,1,48,35,4137715256
72,19,15,Jits_Phase_8,1,5,80,127,4137894132
72,19,15,Jits_Phase_8,2,5,56,103,4137953772
72,19,15,Jits_Phase_8,3,5,63,98,4138044004
72,19,15,Jits_Phase_8,0,1,48,26,4138616256
72,19,15,Jits_Phase_8,1,5,80,127,4138693904
72,19,15,Jits_Phase_8,2,5,56,103,4138794236
72,19,15,Jits_Phase_8,3,5,63,98,4138834172
72,19,15,Jits_Phase_8,0,1,48,36,4139446732
72,19,15,Jits_Phase_8,1,5,56,103,4139543916
72,19,15,Jits_Phase_8,2,5,63,98,4139564328
72,19,15,Jits_Phase_8,3,5,80,127,4139604264
72,19,15,Jits_Phase_8,0,1,48,37,4140255928
72,19,15,Jits_Phase_8,1,5,63,98,4140314096
72,19,15,Jits_Phase_8,2,5,56,103,4140333460
72,19,15,Jits_Phase_8,3,5,80,127,4140433760
72,19,15,Jits_Phase_8,0,1,48,36,4141017696
72,19,15,Jits_Phase_8,1,5,63,98,4141103764
72,19,15,Jits_Phase_8,2,5,80,127,4141214112
72,19,15,Jits_Phase_8,3,5,56,103,4141243860
72,19,15,Jits_Phase_8,0,1,48,30,4141802860
72,19,15,Jits_Phase_8,1,5,56,103,4141923964
72,19,15,Jits_Phase_8,2,5,63,98,4141954612
72,19,15,Jits_Phase_8,3,5,80,127,4142003688
72,19,15,Jits_Phase_8,0,1,48,35,4142644212
72,19,15,Jits_Phase_8,1,5,63,98,4142693688
72,19,15,Jits_Phase_8,2,5,56,103,4142723436
72,19,15,Jits_Phase_8,3,5,80,127,4142773696
72,19,15,Jits_Phase_8,0,1,48,22,4143395760
72,19,15,Jits_Phase_8,1,5,56,103,4143524140
72,19,15,Jits_Phase_8,2,5,63,98,4143543848
72,19,15,Jits_Phase_8,3,5,80,127,4143623644
72,19,15,Jits_Phase_8,0,1,48,35,4144202216
72,19,15,Jits_Phase_8,1,5,63,98,4144294168
72,19,15,Jits_Phase_8,2,5,56,103,4144353868
72,19,15,Jits_Phase_8,3,5,80,127,4144384296
72,19,15,Jits_Phase_8,0,1,48,36,4145024892
72,19,15,Jits_Phase_8,1,5,56,103,4145134064
72,19,15,Jits_Phase_8,2,5,80,127,4145194332
72,19,15,Jits_Phase_8,3,5,63,98,4145234268
72,19,15,Jits_Phase_8,0,1,48,29,4145761876
72,19,15,Jits_Phase_8,1,5,63,98,4145914196
72,19,15,Jits_Phase_8,2,5,56,103,4145973640
72,19,15,Jits_Phase_8,3,5,80,127,4146044216
72,19,15,Jits_Phase_8,0,1,48,24,4146642252
72,19,15,Jits_Phase_8,1,5,56,103,4146793772
72,19,15,Jits_Phase_8,2,5,63,98,4146804116
72,19,15,Jits_Phase_8,3,5,80,127,4146807556
72,19,15,Jits_Phase_8,0,1,48,36,4147460644
72,19,15,Jits_Phase_8,1,5,63,98,4147534128
72,19,15,Jits_Phase_8,2,5,56,103,4147593756
72,19,15,Jits_Phase_8,3,5,80,127,4147596600
72,19,15,Jits_Phase_8,0,1,48,30,4148245192
72,19,15,Jits_Phase_8,1,5,63,98,4148313720
72,19,15,Jits_Phase_8,2,5,80,127,4148344132
72,19,15,Jits_Phase_8,3,5,56,103,4148363840
72,19,15,Jits_Phase_8,0,1,48,29,4149042672
72,19,15,Jits_Phase_8,1,5,56,103,4149044164
72,19,15,Jits_Phase_8,2,5,63,98,4149093696
72,19,15,Jits_Phase_8,3,5,80,127,4149173772
72,19,15,Jits_Phase_8,0,5,80,127,4149744124
72,19,15,Jits_Phase_8,1,5,63,98,4149783916
72,19,15,Jits_Phase_8,2,5,56,103,4149804472
72,19,15,Jits_Phase_8,3,1,48,30,4149819800
72,19,15,Jits_Phase_8,0,1,48,29,4150464748
72,19,15,Jits_Phase_8,1,5,56,103,4150614476
72,19,15,Jits_Phase_8,2,5,80,127,4150623700
72,19,15,Jits_Phase_8,3,5,63,98,4150643936
72,19,15,Jits_Phase_8,0,1,48,26,4151286380
72,19,15,Jits_Phase_8,1,5,56,103,4151393636
72,19,15,Jits_Phase_8,2,5,63,98,4151443836
72,19,15,Jits_Phase_8,3,5,80,127,4151473512
72,19,15,Jits_Phase_8,0,1,48,34,4152057820
72,19,15,Jits_Phase_8,1,5,56,103,4152144264
72,19,15,Jits_Phase_8,2,5,63,98,4152153472
72,19,15,Jits_Phase_8,3,5,80,127,4152203524
72,19,15,Jits_Phase_8,0,1,48,38,4152847080
72,19,15,Jits_Phase_8,1,5,56,103,4152933744
72,19,15,Jits_Phase_8,2,5,80,127,4152936660
72,19,15,Jits_Phase_8,3,5,63,98,4153093604
72,19,15,Jits_Phase_8,0,1,48,30,4153665736
72,19,15,Jits_Phase_8,1,5,63,98,4153754020
72,19,15,Jits_Phase_8,2,5,56,103,4153823688
72,19,15,Jits_Phase_8,3,5,80,127,4153863624
72,19,15,Jits_Phase_8,0,1,48,38,4154466768
72,19,15,Jits_Phase_8,1,5,63,98,4154593624
72,19,15,Jits_Phase_8,2,5,56,103,4154683704
72,19,15,Jits_Phase_8,3,5,80,127,4154686920
72,19,15,Jits_Phase_8,0,1,48,34,4155323472
72,19,15,Jits_Phase_8,1,5,56,103,4155373988
72,19,15,Jits_Phase_8,2,5,63,98,4155463908
72,19,15,Jits_Phase_8,3,5,80,127,4155474476
72,19,15,Jits_Phase_8,0,5,56,103,4156144012
72,19,15,Jits_Phase_8,1,1,48,35,4156161972
72,19,15,Jits_Phase_8,2,5,63,98,4156194356
72,19,15,Jits_Phase_8,3,5,80,127,4156223908
72,19,15,Jits_Phase_8,0,1,48,36,4156945624
72,19,15,Jits_Phase_8,1,5,63,98,4157023668
72,19,15,Jits_Phase_8,2,5,80,127,4157033864
72,19,15,Jits_Phase_8,3,5,56,103,4157094532
72,19,15,Jits_Phase_8,0,5,63,98,4157743424
72,19,15,Jits_Phase_8,1,1,48,37,4157792248
72,19,15,Jits_Phase_8,2,5,80,127,4157803880
72,19,15,Jits_Phase_8,3,5,56,103,4157843820
72,19,15,Jits_Phase_8,0,1,48,38,4158572820
72,19,15,Jits_Phase_8,1,5,56,103,4158643644
72,19,15,Jits_Phase_8,2,5,80,127,4158664836
72,19,15,Jits_Phase_8,3,5,63,98,4158683424
72,19,15,Jits_Phase_8,0,5,63,98,4159363320
72,19,15,Jits_Phase_8,1,5,56,103,4159383852
72,19,15,Jits_Phase_8,2,1,48,32,4159394996
72,19,15,Jits_Phase_8,3,5,80,127,4159423860
72,19,15,Jits_Phase_8,0,1,48,42,4160124680
72,19,15,Jits_Phase_8,1,5,63,98,4160173408
72,19,15,Jits_Phase_8,2,5,80,127,4160204280
72,19,15,Jits_Phase_8,3,5,56,103,4160223528
72,19,15,Jits_Phase_8,0,1,48,37,4160896492
72,19,15,Jits_Phase_8,1,5,80,127,4160943644
72,19,15,Jits_Phase_8,2,5,56,103,4160993608
72,19,15,Jits_Phase_8,3,5,63,98,4161053924
72,19,15,Jits_Phase_8,0,1,48,35,4161707780
72,19,15,Jits_Phase_8,1,5,63,98,4161733960
72,19,15,Jits_Phase_8,2,5,56,103,4161853848
72,19,15,Jits_Phase_8,3,5,80,127,4161883448
72,19,15,Jits_Phase_8,0,1,48,37,4162456444
72,19,15,Jits_Phase_8,1,5,80,127,4162573636
72,19,15,Jits_Phase_8,2,5,63,98,4162594544
72,19,15,Jits_Phase_8,3,5,56,103,4162663652
72,19,15,Jits_Phase_8,0,1,48,37,4163121576
72,19,15,Jits_Phase_8,1,5,63,98,4163393876
72,19,15,Jits_Phase_8,2,5,56,103,4163404368
72,19,15,Jits_Phase_8,3,5,80,127,4163484012
72,19,15,Jits_Phase_8,0,1,48,37,4164100536
72,19,15,Jits_Phase_8,1,5,56,103,4164254172
72,19,15,Jits_Phase_8,2,5,80,127,4164283700
72,19,15,Jits_Phase_8,3,5,63,98,4164293896
72,19,15,Jits_Phase_8,0,9999,9999,9999,4029411396
72,19,15,Jits_Phase_8,1,9999,9999,9999,4030211168
72,19,15,Jits_Phase_8,2,9999,9999,9999,4031011904
72,19,15,Jits_Phase_8,3,9999,9999,9999,4031811680
72,19,15,Jits_Phase_8,4,9999,9999,9999,4032611436
72,19,15,Jits_Phase_8,5,9999,9999,9999,4033411196
72,19,15,Jits_Phase_8,6,9999,9999,9999,4034211924
72,19,15,Jits_Phase_8,7,9999,9999,9999,4035011700
72,19,15,Jits_Phase_8,8,9999,9999,9999,4035811400
72,19,15,Jits_Phase_8,9,9999,9999,9999,4036611144
72,19,15,Jits_Phase_8,10,9999,9999,9999,4037411900
72,19,15,Jits_Phase_8,11,9999,9999,9999,4038211680
72,19,15,Jits_Phase_8,12,9999,9999,9999,4039011384
72,19,15,Jits_Phase_8,13,9999,9999,9999,4039811152
72,19,15,Jits_Phase_8,14,9999,9999,9999,4040611948
72,19,15,Jits_Phase_8,15,9999,9999,9999,4041411696
72,19,15,Jits_Phase_8,16,9999,9999,9999,4042211436
72,19,15,Jits_Phase_8,17,9999,9999,9999,4043011128
72,19,15,Jits_Phase_8,18,9999,9999,9999,4043811936
72,19,15,Jits_Phase_8,19,9999,9999,9999,4044611656
72,19,15,Jits_Phase_8,20,9999,9999,9999,4045411416
72,19,15,Jits_Phase_8,21,9999,9999,9999,4046211172
72,19,15,Jits_Phase_8,22,9999,9999,9999,4047011908
72,19,15,Jits_Phase_8,23,9999,9999,9999,4047811680
72,19,15,Jits_Phase_8,24,9999,9999,9999,4048611436
72,19,15,Jits_Phase_8,25,9999,9999,9999,4049411192
72,19,15,Jits_Phase_8,26,9999,9999,9999,4050211936
72,19,15,Jits_Phase_8,27,9999,9999,9999,4051011652
72,19,15,Jits_Phase_8,28,9999,9999,9999,4051811424
72,19,15,Jits_Phase_8,29,9999,9999,9999,4052611192
72,19,15,Jits_Phase_8,30,9999,9999,9999,4053391472
72,19,15,Jits_Phase_8,31,9999,9999,9999,4054191228
72,19,15,Jits_Phase_8,32,9999,9999,9999,4054991960
72,19,15,Jits_Phase_8,33,9999,9999,9999,4055791708
72,19,15,Jits_Phase_8,34,9999,9999,9999,4056591468
72,19,15,Jits_Phase_8,35,9999,9999,9999,4057391184
72,19,15,Jits_Phase_8,36,9999,9999,9999,4058191996
72,19,15,Jits_Phase_8,37,9999,9999,9999,4058991680
72,19,15,Jits_Phase_8,38,9999,9999,9999,4059791436
72,19,15,Jits_Phase_8,39,9999,9999,9999,4060591196
72,19,15,Jits_Phase_8,40,9999,9999,9999,4061391932
72,19,15,Jits_Phase_8,41,9999,9999,9999,4062191692
72,19,15,Jits_Phase_8,42,9999,9999,9999,4062991448
72,19,15,Jits_Phase_8,43,9999,9999,9999,4063791220
72,19,15,Jits_Phase_8,44,9999,9999,9999,4064591932
72,19,15,Jits_Phase_8,45,9999,9999,9999,4065391692
72,19,15,Jits_Phase_8,46,9999,9999,9999,4066191428
72,19,15,Jits_Phase_8,47,9999,9999,9999,4066991180
72,19,15,Jits_Phase_8,48,9999,9999,9999,4067811440
72,19,15,Jits_Phase_8,49,9999,9999,9999,4068611192
72,19,15,Jits_Phase_8,50,9999,9999,9999,4069411924
72,19,15,Jits_Phase_8,51,9999,9999,9999,4070211700
72,19,15,Jits_Phase_8,52,9999,9999,9999,4071011388
72,19,15,Jits_Phase_8,53,9999,9999,9999,4071811152
72,19,15,Jits_Phase_8,54,9999,9999,9999,4072611928
72,19,15,Jits_Phase_8,55,9999,9999,9999,4073411688
72,19,15,Jits_Phase_8,56,9999,9999,9999,4074211444
72,19,15,Jits_Phase_8,57,9999,9999,9999,4075011128
72,19,15,Jits_Phase_8,58,9999,9999,9999,4075811936
72,19,15,Jits_Phase_8,59,9999,9999,9999,4076611712
72,19,15,Jits_Phase_8,60,9999,9999,9999,4077411396
72,19,15,Jits_Phase_8,61,9999,9999,9999,4078211172
72,19,15,Jits_Phase_8,62,9999,9999,9999,4079011900
72,19,15,Jits_Phase_8,63,9999,9999,9999,4079811652
72,19,15,Jits_Phase_8,64,9999,9999,9999,4080651352
72,19,15,Jits_Phase_8,65,9999,9999,9999,4081451064
72,19,15,Jits_Phase_8,66,9999,9999,9999,4082251872
72,19,15,Jits_Phase_8,67,9999,9999,9999,4083051636
72,19,15,Jits_Phase_8,68,9999,9999,9999,4083851384
72,19,15,Jits_Phase_8,69,9999,9999,9999,4084651088
72,19,15,Jits_Phase_8,70,9999,9999,9999,4085451888
72,19,15,Jits_Phase_8,71,9999,9999,9999,4086251584
72,19,15,Jits_Phase_8,72,9999,9999,9999,4087051344
72,19,15,Jits_Phase_8,73,9999,9999,9999,4087851124
72,19,15,Jits_Phase_8,74,9999,9999,9999,4088651888
72,19,15,Jits_Phase_8,75,9999,9999,9999,4089451608
72,19,15,Jits_Phase_8,76,9999,9999,9999,4090251376
72,19,15,Jits_Phase_8,77,9999,9999,9999,4091051080
72,19,15,Jits_Phase_8,78,9999,9999,9999,4091851880
72,19,15,Jits_Phase_8,79,9999,9999,9999,4092651636
72,19,15,Jits_Phase_8,80,9999,9999,9999,4093451324
72,19,15,Jits_Phase_8,81,9999,9999,9999,4094211148
72,19,15,Jits_Phase_8,82,9999,9999,9999,4095011956
72,19,15,Jits_Phase_8,83,9999,9999,9999,4095811660
72,19,15,Jits_Phase_8,84,9999,9999,9999,4096611416
72,19,15,Jits_Phase_8,85,9999,9999,9999,4097411152
72,19,15,Jits_Phase_8,86,9999,9999,9999,4098211912
72,19,15,Jits_Phase_8,87,9999,9999,9999,4099011640
72,19,15,Jits_Phase_8,88,9999,9999,9999,4099811396
72,19,15,Jits_Phase_8,89,9999,9999,9999,4100611160
72,19,15,Jits_Phase_8,90,9999,9999,9999,4101411896
72,19,15,Jits_Phase_8,91,9999,9999,9999,4102211668
72,19,15,Jits_Phase_8,92,9999,9999,9999,4103011424
72,19,15,Jits_Phase_8,93,9999,9999,9999,4103811156
72,19,15,Jits_Phase_8,94,9999,9999,9999,4104611960
72,19,15,Jits_Phase_8,95,9999,9999,9999,4105411640
72,19,15,Jits_Phase_8,96,9999,9999,9999,4106211400
72,19,15,Jits_Phase_8,97,9999,9999,9999,4106931296
72,19,15,Jits_Phase_8,98,9999,9999,9999,4107732028
72,19,15,Jits_Phase_8,99,9999,9999,9999,4108531808
72,19,15,Jits_Phase_8,100,9999,9999,9999,4109331556
72,19,15,Jits_Phase_8,101,9999,9999,9999,4110131316
72,19,15,Jits_Phase_8,102,9999,9999,9999,4110932056
72,19,15,Jits_Phase_8,103,9999,9999,9999,4111731824
72,19,15,Jits_Phase_8,104,9999,9999,9999,4112531524
72,19,15,Jits_Phase_8,105,9999,9999,9999,4113331292
72,19,15,Jits_Phase_8,106,9999,9999,9999,4114132084
72,19,15,Jits_Phase_8,107,9999,9999,9999,4114931824
72,19,15,Jits_Phase_8,108,9999,9999,9999,4115731512
72,19,15,Jits_Phase_8,109,9999,9999,9999,4116531292
72,19,15,Jits_Phase_8,110,9999,9999,9999,4117332028
72,19,15,Jits_Phase_8,111,9999,9999,9999,4118131784
72,19,15,Jits_Phase_8,112,9999,9999,9999,4118931540
72,19,15,Jits_Phase_8,113,9999,9999,9999,4119731300
72,19,15,Jits_Phase_8,114,9999,9999,9999,4120611964
72,19,15,Jits_Phase_8,115,9999,9999,9999,4121411668
72,19,15,Jits_Phase_8,116,9999,9999,9999,4122211444
72,19,15,Jits_Phase_8,117,9999,9999,9999,4123011148
72,19,15,Jits_Phase_8,118,9999,9999,9999,4123811892
72,19,15,Jits_Phase_8,119,9999,9999,9999,4124611660
72,19,15,Jits_Phase_8,120,9999,9999,9999,4125411432
72,19,15,Jits_Phase_8,121,9999,9999,9999,4126211192
72,19,15,Jits_Phase_8,122,9999,9999,9999,4127011916
72,19,15,Jits_Phase_8,123,9999,9999,9999,4127811688
72,19,15,Jits_Phase_8,124,9999,9999,9999,4128611440
72,19,15,Jits_Phase_8,125,9999,9999,9999,4129411188
72,19,15,Jits_Phase_8,126,9999,9999,9999,4130211912
72,19,15,Jits_Phase_8,127,9999,9999,9999,4131011652
72,19,15,Jits_Phase_8,128,9999,9999,9999,4131811396
72,19,15,Jits_Phase_8,129,9999,9999,9999,4132611164
72,19,15,Jits_Phase_8,130,9999,9999,9999,4133411904
72,19,15,Jits_Phase_8,131,9999,9999,9999,4134371384
72,19,15,Jits_Phase_8,132,9999,9999,9999,4135171188
72,19,15,Jits_Phase_8,133,9999,9999,9999,4135971928
72,19,15,Jits_Phase_8,134,9999,9999,9999,4136771708
72,19,15,Jits_Phase_8,135,9999,9999,9999,4137571456
72,19,15,Jits_Phase_8,136,9999,9999,9999,4138371136
72,19,15,Jits_Phase_8,137,9999,9999,9999,4139171940
72,19,15,Jits_Phase_8,138,9999,9999,9999,4139971700
72,19,15,Jits_Phase_8,139,9999,9999,9999,4140771456
72,19,15,Jits_Phase_8,140,9999,9999,9999,4141571144
72,19,15,Jits_Phase_8,141,9999,9999,9999,4142371948
72,19,15,Jits_Phase_8,142,9999,9999,9999,4143171644
72,19,15,Jits_Phase_8,143,9999,9999,9999,4143971400
72,19,15,Jits_Phase_8,144,9999,9999,9999,4144771156
72,19,15,Jits_Phase_8,145,9999,9999,9999,4145571964
72,19,15,Jits_Phase_8,146,9999,9999,9999,4146371652
72,19,15,Jits_Phase_8,147,9999,9999,9999,4147171404
72,19,15,Jits_Phase_8,148,9999,9999,9999,4147971156
72,19,15,Jits_Phase_8,149,9999,9999,9999,4148771952
72,19,15,Jits_Phase_8,150,9999,9999,9999,4149411912
72,19,15,Jits_Phase_8,151,9999,9999,9999,4150211668
72,19,15,Jits_Phase_8,152,9999,9999,9999,4151011444
72,19,15,Jits_Phase_8,153,9999,9999,9999,4151811132
72,19,15,Jits_Phase_8,154,9999,9999,9999,4152611932
72,19,15,Jits_Phase_8,155,9999,9999,9999,4153411696
72,19,15,Jits_Phase_8,156,9999,9999,9999,4154211384
72,19,15,Jits_Phase_8,157,9999,9999,9999,4155011140
72,19,15,Jits_Phase_8,158,9999,9999,9999,4155811948
72,19,15,Jits_Phase_8,159,9999,9999,9999,4156611700
72,19,15,Jits_Phase_8,160,9999,9999,9999,4157411408
72,19,15,Jits_Phase_8,161,9999,9999,9999,4158211164
72,19,15,Jits_Phase_8,162,9999,9999,9999,4159011904
72,19,15,Jits_Phase_8,163,9999,9999,9999,4159811680
72,19,15,Jits_Phase_8,164,9999,9999,9999,4160611436
72,19,15,Jits_Phase_8,165,9999,9999,9999,4161411196
72,19,15,Jits_Phase_8,166,9999,9999,9999,4162211924
72,19,15,Jits_Phase_8,167,9999,9999,9999,4163011684
72,19,15,Jits_Phase_8,168,9999,9999,9999,4163811444
72,19,15,Jits_Phase_8,169,9999,9999,9999,4164611140
72,20,5,ISIP_5,0,5,42,127,4223704344
72,20,5,ISIP_5,1,5,42,127,4224204280
72,20,5,ISIP_5,2,1,48,24,4224222584
72,20,5,ISIP_5,3,1,48,27,4224680148
72,20,5,ISIP_5,4,5,42,127,4224703820
72,20,5,ISIP_5,5,1,48,27,4225175952
72,20,5,ISIP_5,6,5,42,127,4225203660
72,20,5,ISIP_5,7,1,48,28,4225689860
72,20,5,ISIP_5,8,5,42,127,4225704256
72,20,5,ISIP_5,9,1,48,27,4226159556
72,20,5,ISIP_5,10,5,42,127,4226204024
72,20,5,ISIP_5,11,5,42,127,4226703724
72,20,5,ISIP_5,12,1,48,27,4226725920
72,20,5,ISIP_5,13,5,42,127,4227203496
72,20,5,ISIP_5,14,1,48,25,4227214544
72,20,5,ISIP_5,15,5,42,127,4227704236
72,20,5,ISIP_5,16,1,48,27,4227724340
72,20,5,ISIP_5,17,5,42,127,4228203932
72,20,5,ISIP_5,18,1,48,26,4228219244
72,20,5,ISIP_5,19,5,42,127,4228703556
72,20,5,ISIP_5,20,1,48,24,4228714752
72,20,5,ISIP_5,21,1,48,26,4229171644
72,20,5,ISIP_5,22,5,42,127,4229204288
72,20,5,ISIP_5,23,5,42,127,4229704140
72,20,5,ISIP_5,24,1,48,27,4229749824
72,20,5,ISIP_5,25,5,42,127,4230203836
72,20,5,ISIP_5,26,1,48,24,4230217128
72,20,5,ISIP_5,27,1,48,25,4230693392
72,20,5,ISIP_5,28,5,42,127,4230703448
72,20,5,ISIP_5,29,1,48,28,4231179896
72,20,5,ISIP_5,30,5,42,127,4231204192
72,20,5,ISIP_5,31,1,48,27,4231684304
72,20,5,ISIP_5,32,5,42,127,4231703784
72,20,5,ISIP_5,33,1,48,30,4232177864
72,20,5,ISIP_5,34,5,42,127,4232203704
72,20,5,ISIP_5,35,1,48,26,4232655716
72,20,5,ISIP_5,36,5,42,127,4232704300
72,20,5,ISIP_5,37,1,48,29,4233189524
72,20,5,ISIP_5,38,5,42,127,4233204140
72,20,5,ISIP_5,39,1,48,26,4233669920
72,20,5,ISIP_5,40,5,42,127,4233703688
72,20,5,ISIP_5,41,1,48,26,4234173804
72,20,5,ISIP_5,42,5,42,127,4234203456
72,20,5,ISIP_5,43,1,48,27,4234698252
72,20,5,ISIP_5,44,5,42,127,4234704196
72,20,5,ISIP_5,45,1,48,27,4235167208
72,20,5,ISIP_5,46,5,42,127,4235204040
72,20,5,ISIP_5,47,5,42,127,4235703596
72,20,5,ISIP_5,48,1,48,28,4235704932
72,20,5,ISIP_5,49,5,42,127,4236204336
72,20,5,ISIP_5,50,1,48,34,4236233480
72,20,5,ISIP_5,51,5,42,127,4236704028
72,20,5,ISIP_5,52,1,48,33,4236731908
72,20,5,ISIP_5,53,1,48,24,4237182588
72,20,5,ISIP_5,54,5,42,127,4237203716
72,20,5,ISIP_5,55,1,48,30,4237695820
72,20,5,ISIP_5,56,5,42,127,4237703412
72,20,5,ISIP_5,57,1,48,30,4238196636
72,20,5,ISIP_5,58,5,42,127,4238204152
72,20,5,ISIP_5,59,1,48,33,4238697152
72,20,5,ISIP_5,60,5,42,127,4238703996
72,20,5,ISIP_5,61,5,42,127,4239203624
72,20,5,ISIP_5,62,1,48,35,4239209884
72,20,5,ISIP_5,63,5,42,127,4239704368
72,20,5,ISIP_5,64,1,48,36,4239717132
72,20,5,ISIP_5,65,5,42,127,4240204060
72,20,5,ISIP_5,66,1,48,36,4240232464
72,20,5,ISIP_5,67,5,42,127,4240703976
72,20,5,ISIP_5,68,1,48,35,4240739488
72,20,5,ISIP_5,69,5,42,127,4241203452
72,20,5,ISIP_5,70,1,48,35,4241229232
72,20,5,ISIP_5,71,5,42,127,4241704268
72,20,5,ISIP_5,72,1,48,34,4241740296
72,20,5,ISIP_5,73,5,42,127,4242204088
72,20,5,ISIP_5,74,1,48,31,4242216356
72,20,5,ISIP_5,75,5,42,127,4242703708
72,20,5,ISIP_5,76,1,48,28,4242719992
72,20,5,ISIP_5,77,5,42,127,4243203404
72,20,5,ISIP_5,78,1,48,32,4243219088
72,20,5,ISIP_5,79,1,48,26,4243717732
72,20,5,ISIP_5,80,1,48,33,4244216820
72,20,5,ISIP_5,81,1,48,27,4244678876
72,20,5,ISIP_5,82,1,48,29,4245179088
72,20,5,ISIP_5,83,1,48,27,4245677360
72,20,5,ISIP_5,84,1,48,26,4246150200
72,20,5,ISIP_5,85,1,48,28,4246647420
72,20,5,ISIP_5,86,1,48,28,4247153168
72,20,5,ISIP_5,87,1,48,27,4247606108
72,20,5,ISIP_5,88,1,48,31,4248150456
72,20,5,ISIP_5,89,1,48,29,4248646784
72,20,5,ISIP_5,90,1,48,27,4249146472
72,20,5,ISIP_5,91,1,48,27,4249601112
72,20,5,ISIP_5,92,1,48,30,4250143356
72,20,5,ISIP_5,93,1,48,32,4250650904
72,20,5,ISIP_5,94,1,48,34,4251181360
72,20,5,ISIP_5,95,1,48,28,4251643548
72,20,5,ISIP_5,96,1,48,30,4252128732
72,20,5,ISIP_5,97,1,48,28,4252652956
72,20,5,ISIP_5,98,1,48,30,4253114872
72,20,5,ISIP_5,99,1,48,30,4253627504
72,20,5,ISIP_5,100,1,48,29,4254082836
72,20,5,ISIP_5,101,1,48,29,4254593300
72,20,5,ISIP_5,102,1,48,25,4255098976
72,20,5,ISIP_5,103,1,48,29,4255567028
72,20,5,ISIP_5,104,1,48,26,4256042628
72,20,5,ISIP_5,105,1,48,27,4256527640
72,20,5,ISIP_5,106,1,48,28,4257005860
72,20,5,ISIP_5,107,1,48,27,4257466880
72,20,5,ISIP_5,108,1,48,29,4257941064
72,20,5,ISIP_5,109,1,48,24,4258442252
72,20,5,ISIP_5,110,1,48,27,4258900276
72,20,5,ISIP_5,111,1,48,28,4259371992
72,20,5,ISIP_5,112,1,48,29,4259816464
72,20,5,ISIP_5,113,1,48,27,4260332380
72,20,5,ISIP_5,114,1,48,27,4260793848
72,20,5,ISIP_5,115,1,48,32,4261323984
72,20,5,ISIP_5,116,1,48,28,4261786948
72,20,5,ISIP_5,117,1,48,30,4262278264
72,20,5,ISIP_5,118,1,48,27,4262765460
72,20,5,ISIP_5,119,1,48,29,4263238148
72,20,5,ISIP_5,120,1,48,29,4263767460
72,20,5,ISIP_5,121,1,48,30,4264249500
72,20,5,ISIP_5,122,1,48,30,4264735104
72,20,5,ISIP_5,123,1,48,25,4265187508
72,20,5,ISIP_5,124,1,48,30,4265691084
72,20,5,ISIP_5,125,1,48,27,4266185612
72,20,5,ISIP_5,126,1,48,27,4266623744
72,20,5,ISIP_5,127,1,48,27,4267109452
72,20,5,ISIP_5,128,1,48,32,4267638236
72,20,5,ISIP_5,129,1,48,32,4268085644
72,20,5,ISIP_5,130,1,48,35,4268626620
72,20,5,ISIP_5,131,1,48,32,4269149500
72,20,5,ISIP_5,132,1,48,33,4269626300
72,20,5,ISIP_5,133,1,48,31,4270124352
72,20,5,ISIP_5,134,1,48,30,4270635484
72,20,5,ISIP_5,135,1,48,30,4271115628
72,20,5,ISIP_5,136,1,48,32,4271606940
72,20,5,ISIP_5,137,1,48,27,4272080892
72,20,5,ISIP_5,138,1,48,31,4272557700
72,20,5,ISIP_5,139,1,48,30,4273071452
72,20,5,ISIP_5,140,1,48,33,4273551696
72,20,5,ISIP_5,141,1,48,32,4274022740
72,20,5,ISIP_5,142,1,48,34,4274513752
72,20,5,ISIP_5,143,1,48,34,4275012172
72,20,5,ISIP_5,144,1,48,34,4275515604
72,20,5,ISIP_5,145,1,48,30,4275997316
72,20,5,ISIP_5,146,1,48,35,4276481596
72,20,5,ISIP_5,147,1,48,32,4276946960
72,20,5,ISIP_5,148,1,48,30,4277449936
72,20,5,ISIP_5,149,1,48,33,4277909612
72,20,5,ISIP_5,150,1,48,30,4278421720
72,20,5,ISIP_5,151,1,48,34,4278930984
72,20,5,ISIP_5,152,1,48,29,4279388636
72,20,5,ISIP_5,153,1,48,27,4279874188
72,20,5,ISIP_5,154,1,48,28,4280385996
72,20,5,ISIP_5,155,1,48,29,4280828664
72,20,5,ISIP_5,156,1,48,31,4281311004
72,20,5,ISIP_5,157,1,48,29,4281784740
72,20,5,ISIP_5,158,1,48,29,4282239552
72,20,5,ISIP_5,159,1,48,32,4282759288
72,20,5,ISIP_5,160,1,48,32,4283220232
72,20,5,ISIP_5,161,1,48,27,4283681456
72,20,5,ISIP_5,162,1,48,31,4284159952
72,20,5,ISIP_5,163,1,48,30,4284651264
72,20,5,ISIP_5,164,1,48,34,4285114304
72,20,5,ISIP_5,165,1,48,31,4285629404
72,20,5,ISIP_5,166,1,48,29,4286061784
72,20,5,ISIP_5,167,1,48,35,4286602388
72,20,5,ISIP_5,168,1,48,36,4287085624
72,20,5,ISIP_5,169,1,48,35,4287586732
72,20,5,ISIP_5,170,1,48,35,4288061816
72,20,5,ISIP_5,171,1,48,34,4288501564
72,20,5,ISIP_5,172,1,48,32,4288979636
72,20,5,ISIP_5,173,1,48,38,4289440284
72,20,5,ISIP_5,174,1,48,35,4289932120
72,20,5,ISIP_5,175,1,48,34,4290413936
72,20,5,ISIP_5,176,1,48,32,4290882736
72,20,5,ISIP_5,177,1,48,34,4291340812
72,20,5,ISIP_5,178,1,48,35,4291810736
72,20,5,ISIP_5,179,1,48,35,4292279080
72,20,5,ISIP_5,180,1,48,32,4292757232
72,20,5,ISIP_5,181,1,48,34,4293217356
72,20,5,ISIP_5,182,1,48,33,4293696836
72,20,5,ISIP_5,183,1,48,31,4294166956
72,20,5,ISIP_5,184,1,48,28,4294621992
72,20,5,ISIP_5,185,1,48,29,4295122652
72,20,5,ISIP_5,186,1,48,28,4295635288
72,20,5,ISIP_5,187,1,48,29,4296095260
72,20,5,ISIP_5,188,1,48,30,4296580060
72,20,5,ISIP_5,189,1,48,30,4297032408
72,20,5,ISIP_5,190,1,48,24,4297494752
72,20,5,ISIP_5,191,1,48,28,4297969380
72,20,5,ISIP_5,192,1,48,26,4298410952
72,20,5,ISIP_5,193,1,48,26,4298854848
72,20,5,ISIP_5,194,1,48,23,4299284656
72,20,5,ISIP_5,195,1,48,27,4299773424
72,20,5,ISIP_5,196,1,48,29,4300257852
72,20,5,ISIP_5,197,1,48,27,4300705780
72,20,5,ISIP_5,198,1,48,28,4301156616
72,20,5,ISIP_5,199,1,48,30,4301637160
72,20,5,ISIP_5,200,1,48,32,4302110420
72,20,5,ISIP_5,201,1,48,31,4302567852
72,20,5,ISIP_5,202,1,48,29,4303086316
72,20,5,ISIP_5,203,1,48,25,4303539180
72,20,5,ISIP_5,0,9999,9999,9999,4223702128
72,20,5,ISIP_5,1,9999,9999,9999,4224201844
72,20,5,ISIP_5,2,9999,9999,9999,4224701532
72,20,5,ISIP_5,3,9999,9999,9999,4225201228
72,20,5,ISIP_5,4,9999,9999,9999,4225701968
72,20,5,ISIP_5,5,9999,9999,9999,4226201664
72,20,5,ISIP_5,6,9999,9999,9999,4226701364
72,20,5,ISIP_5,7,9999,9999,9999,4227201132
72,20,5,ISIP_5,8,9999,9999,9999,4227701876
72,20,5,ISIP_5,9,9999,9999,9999,4228201572
72,20,5,ISIP_5,10,9999,9999,9999,4228701268
72,20,5,ISIP_5,11,9999,9999,9999,4229202000
72,20,5,ISIP_5,12,9999,9999,9999,4229701704
72,20,5,ISIP_5,13,9999,9999,9999,4230201400
72,20,5,ISIP_5,14,9999,9999,9999,4230701164
72,20,5,ISIP_5,15,9999,9999,9999,4231201880
72,20,5,ISIP_5,16,9999,9999,9999,4231701576
72,20,5,ISIP_5,17,9999,9999,9999,4232201268
72,20,5,ISIP_5,18,9999,9999,9999,4232702012
72,20,5,ISIP_5,19,9999,9999,9999,4233201780
72,20,5,ISIP_5,20,9999,9999,9999,4233701476
72,20,5,ISIP_5,21,9999,9999,9999,4234201172
72,20,5,ISIP_5,22,9999,9999,9999,4234701912
72,20,5,ISIP_5,23,9999,9999,9999,4235201604
72,20,5,ISIP_5,24,9999,9999,9999,4235701308
72,20,5,ISIP_5,25,9999,9999,9999,4236202048
72,20,5,ISIP_5,26,9999,9999,9999,4236701816
72,20,5,ISIP_5,27,9999,9999,9999,4237201504
72,20,5,ISIP_5,28,9999,9999,9999,4237701200
72,20,5,ISIP_5,29,9999,9999,9999,4238201940
72,20,5,ISIP_5,30,9999,9999,9999,4238701636
72,20,5,ISIP_5,31,9999,9999,9999,4239201336
72,20,5,ISIP_5,32,9999,9999,9999,4239702080
72,20,5,ISIP_5,33,9999,9999,9999,4240201848
72,20,5,ISIP_5,34,9999,9999,9999,4240701544
72,20,5,ISIP_5,35,9999,9999,9999,4241201236
72,20,5,ISIP_5,36,9999,9999,9999,4241701980
72,20,5,ISIP_5,37,9999,9999,9999,4242201652
72,20,5,ISIP_5,38,9999,9999,9999,4242701420
72,20,5,ISIP_5,39,9999,9999,9999,4243201116
72,20,5,ISIP_5,40,9999,9999,9999,4243701860
72,20,5,ISIP_5,41,9999,9999,9999,4244201548
72,20,5,ISIP_5,42,9999,9999,9999,4244701232
72,20,5,ISIP_5,43,9999,9999,9999,4245201972
72,20,5,ISIP_5,44,9999,9999,9999,4245701736
72,20,5,ISIP_5,45,9999,9999,9999,4246201428
72,20,5,ISIP_5,46,9999,9999,9999,4246701116
72,20,5,ISIP_5,47,9999,9999,9999,4247201856
72,20,5,ISIP_5,48,9999,9999,9999,4247701604
72,20,5,ISIP_5,49,9999,9999,9999,4248201312
72,20,5,ISIP_5,50,9999,9999,9999,4248702048
72,20,5,ISIP_5,51,9999,9999,9999,4249201740
72,20,5,ISIP_5,52,9999,9999,9999,4249701488
72,20,5,ISIP_5,53,9999,9999,9999,4250201192
72,20,5,ISIP_5,54,9999,9999,9999,4250701928
72,20,5,ISIP_5,55,9999,9999,9999,4251201620
72,20,5,ISIP_5,56,9999,9999,9999,4251701312
72,20,5,ISIP_5,57,9999,9999,9999,4252202048
72,20,5,ISIP_5,58,9999,9999,9999,4252701788
72,20,5,ISIP_5,59,9999,9999,9999,4253201480
72,20,5,ISIP_5,60,9999,9999,9999,4253701172
72,20,5,ISIP_5,61,9999,9999,9999,4254201968
72,20,5,ISIP_5,62,9999,9999,9999,4254701656
72,20,5,ISIP_5,63,9999,9999,9999,4255201348
72,20,5,ISIP_5,64,9999,9999,9999,4255702088
72,20,5,ISIP_5,65,9999,9999,9999,4256201852
72,20,5,ISIP_5,66,9999,9999,9999,4256701544
72,20,5,ISIP_5,67,9999,9999,9999,4257201232
72,20,5,ISIP_5,68,9999,9999,9999,4257701968
72,20,5,ISIP_5,69,9999,9999,9999,4258201660
72,20,5,ISIP_5,70,9999,9999,9999,4258701424
72,20,5,ISIP_5,71,9999,9999,9999,4259201116
72,20,5,ISIP_5,72,9999,9999,9999,4259701852
72,20,5,ISIP_5,73,9999,9999,9999,4260201544
72,20,5,ISIP_5,74,9999,9999,9999,4260701236
72,20,5,ISIP_5,75,9999,9999,9999,4261201972
72,20,5,ISIP_5,76,9999,9999,9999,4261701736
72,20,5,ISIP_5,77,9999,9999,9999,4262201428
72,20,5,ISIP_5,78,9999,9999,9999,4262701120
72,20,5,ISIP_5,79,9999,9999,9999,4263201856
72,20,5,ISIP_5,80,9999,9999,9999,4263701596
72,20,5,ISIP_5,81,9999,9999,9999,4264201288
72,20,5,ISIP_5,82,9999,9999,9999,4264702028
72,20,5,ISIP_5,83,9999,9999,9999,4265201784
72,20,5,ISIP_5,84,9999,9999,9999,4265701476
72,20,5,ISIP_5,85,9999,9999,9999,4266201164
72,20,5,ISIP_5,86,9999,9999,9999,4266701900
72,20,5,ISIP_5,87,9999,9999,9999,4267201592
72,20,5,ISIP_5,88,9999,9999,9999,4267701360
72,20,5,ISIP_5,89,9999,9999,9999,4268202080
72,20,5,ISIP_5,90,9999,9999,9999,4268701784
72,20,5,ISIP_5,91,9999,9999,9999,4269201476
72,20,5,ISIP_5,92,9999,9999,9999,4269701244
72,20,5,ISIP_5,93,9999,9999,9999,4270201904
72,20,5,ISIP_5,94,9999,9999,9999,4270701668
72,20,5,ISIP_5,95,9999,9999,9999,4271201360
72,20,5,ISIP_5,96,9999,9999,9999,4271702100
72,20,5,ISIP_5,97,9999,9999,9999,4272201848
72,20,5,ISIP_5,98,9999,9999,9999,4272701536
72,20,5,ISIP_5,99,9999,9999,9999,4273201228
72,20,5,ISIP_5,100,9999,9999,9999,4273701964
72,20,5,ISIP_5,101,9999,9999,9999,4274201708
72,20,5,ISIP_5,102,9999,9999,9999,4274701396
72,20,5,ISIP_5,103,9999,9999,9999,4275201088
72,20,5,ISIP_5,104,9999,9999,9999,4275701824
72,20,5,ISIP_5,105,9999,9999,9999,4276201588
72,20,5,ISIP_5,106,9999,9999,9999,4276701280
72,20,5,ISIP_5,107,9999,9999,9999,4277202016
72,20,5,ISIP_5,108,9999,9999,9999,4277701708
72,20,5,ISIP_5,109,9999,9999,9999,4278201400
72,20,5,ISIP_5,110,9999,9999,9999,4278701164
72,20,5,ISIP_5,111,9999,9999,9999,4279201900
72,20,5,ISIP_5,112,9999,9999,9999,4279701592
72,20,5,ISIP_5,113,9999,9999,9999,4280201280
72,20,5,ISIP_5,114,9999,9999,9999,4280702020
72,20,5,ISIP_5,115,9999,9999,9999,4281201784
72,20,5,ISIP_5,116,9999,9999,9999,4281701476
72,20,5,ISIP_5,117,9999,9999,9999,4282201164
72,20,5,ISIP_5,118,9999,9999,9999,4282701900
72,20,5,ISIP_5,119,9999,9999,9999,4283201592
72,20,5,ISIP_5,120,9999,9999,9999,4283701344
72,20,5,ISIP_5,121,9999,9999,9999,4284202080
72,20,5,ISIP_5,122,9999,9999,9999,4284701748
72,20,5,ISIP_5,123,9999,9999,9999,4285201512
72,20,5,ISIP_5,124,9999,9999,9999,4285701204
72,20,5,ISIP_5,125,9999,9999,9999,4286201928
72,20,5,ISIP_5,126,9999,9999,9999,4286701620
72,20,5,ISIP_5,127,9999,9999,9999,4287201384
72,20,5,ISIP_5,128,9999,9999,9999,4287702120
72,20,5,ISIP_5,129,9999,9999,9999,4288201812
72,20,5,ISIP_5,130,9999,9999,9999,4288701504
72,20,5,ISIP_5,131,9999,9999,9999,4289201268
72,20,5,ISIP_5,132,9999,9999,9999,4289702004
72,20,5,ISIP_5,133,9999,9999,9999,4290201696
72,20,5,ISIP_5,134,9999,9999,9999,4290701384
72,20,5,ISIP_5,135,9999,9999,9999,4291201076
72,20,5,ISIP_5,136,9999,9999,9999,4291701812
72,20,5,ISIP_5,137,9999,9999,9999,4292201576
72,20,5,ISIP_5,138,9999,9999,9999,4292701268
72,20,5,ISIP_5,139,9999,9999,9999,4293202004
72,20,5,ISIP_5,140,9999,9999,9999,4293701688
72,20,5,ISIP_5,141,9999,9999,9999,4294201456
72,20,5,ISIP_5,142,9999,9999,9999,4294701144
72,20,5,ISIP_5,143,9999,9999,9999,4295201880
72,20,5,ISIP_5,144,9999,9999,9999,4295701624
72,20,5,ISIP_5,145,9999,9999,9999,4296201296
72,20,5,ISIP_5,146,9999,9999,9999,4296702036
72,20,5,ISIP_5,147,9999,9999,9999,4297201724
72,20,5,ISIP_5,148,9999,9999,9999,4297701492
72,20,5,ISIP_5,149,9999,9999,9999,4298201184
72,20,5,ISIP_5,150,9999,9999,9999,4298701920
72,20,5,ISIP_5,151,9999,9999,9999,4299201612
72,20,5,ISIP_5,152,9999,9999,9999,4299701300
72,20,5,ISIP_5,153,9999,9999,9999,4300202036
72,20,5,ISIP_5,154,9999,9999,9999,4300701804
72,20,5,ISIP_5,155,9999,9999,9999,4301201488
72,20,5,ISIP_5,156,9999,9999,9999,4301701176
72,20,5,ISIP_5,157,9999,9999,9999,4302201976
72,20,5,ISIP_5,158,9999,9999,9999,4302701664
72,20,5,ISIP_5,159,9999,9999,9999,4303201356
72,21,3,ISIP_8,0,5,42,127,34266416
72,21,3,ISIP_8,1,1,48,29,34751356
72,21,3,ISIP_8,2,5,42,127,35066472
72,21,3,ISIP_8,3,1,48,22,35741248
72,21,3,ISIP_8,4,5,42,127,35867104
72,21,3,ISIP_8,5,1,48,32,36625532
72,21,3,ISIP_8,6,5,42,127,36666628
72,21,3,ISIP_8,7,5,42,127,37466444
72,21,3,ISIP_8,8,1,48,36,37536884
72,21,3,ISIP_8,9,5,42,127,38266400
72,21,3,ISIP_8,10,1,48,29,38288744
72,21,3,ISIP_8,11,1,48,20,39020464
72,21,3,ISIP_8,12,5,42,127,39067100
72,21,3,ISIP_8,13,5,42,127,39866692
72,21,3,ISIP_8,14,1,48,27,40423540
72,21,3,ISIP_8,15,5,42,127,40666424
72,21,3,ISIP_8,16,1,48,32,41235240
72,21,3,ISIP_8,17,5,42,127,41466184
72,21,3,ISIP_8,18,1,48,35,42073120
72,21,3,ISIP_8,19,5,42,127,42267112
72,21,3,ISIP_8,20,1,48,27,42970912
72,21,3,ISIP_8,21,5,42,127,43066772
72,21,3,ISIP_8,22,1,48,21,43790192
72,21,3,ISIP_8,23,5,42,127,43866372
72,21,3,ISIP_8,24,1,48,22,44618876
72,21,3,ISIP_8,25,5,42,127,44666180
72,21,3,ISIP_8,26,5,42,127,45466968
72,21,3,ISIP_8,27,1,48,22,45476896
72,21,3,ISIP_8,28,5,42,127,46266704
72,21,3,ISIP_8,29,1,48,25,46292408
72,21,3,ISIP_8,30,5,42,127,47066584
72,21,3,ISIP_8,31,1,48,22,47123584
72,21,3,ISIP_8,32,1,48,23,47859796
72,21,3,ISIP_8,33,5,42,127,47866184
72,21,3,ISIP_8,34,5,42,127,48667196
72,21,3,ISIP_8,35,1,48,22,48686324
72,21,3,ISIP_8,36,5,42,127,49467004
72,21,3,ISIP_8,37,1,48,21,49491144
72,21,3,ISIP_8,38,5,42,127,50266364
72,21,3,ISIP_8,39,1,48,22,50280104
72,21,3,ISIP_8,40,1,48,25,51043696
72,21,3,ISIP_8,41,5,42,127,51066240
72,21,3,ISIP_8,42,5,42,127,51867176
72,21,3,ISIP_8,43,1,48,25,51872092
72,21,3,ISIP_8,44,5,42,127,52666612
72,21,3,ISIP_8,45,1,48,23,52668628
72,21,3,ISIP_8,46,1,48,20,53422180
72,21,3,ISIP_8,47,5,42,127,53466492
72,21,3,ISIP_8,48,1,48,29,54109864
72,21,3,ISIP_8,49,5,42,127,54266088
72,21,3,ISIP_8,50,1,48,24,54959488
72,21,3,ISIP_8,51,5,42,127,55067236
72,21,3,ISIP_8,52,1,48,24,55747548
72,21,3,ISIP_8,53,5,42,127,55866600
72,21,3,ISIP_8,54,1,48,26,56550900
72,21,3,ISIP_8,55,5,42,127,56666408
72,21,3,ISIP_8,56,1,48,24,57390504
72,21,3,ISIP_8,57,5,42,127,57466156
72,21,3,ISIP_8,58,1,48,24,58206912
72,21,3,ISIP_8,59,1,48,19,59058704
72,21,3,ISIP_8,60,1,48,18,59827320
72,21,3,ISIP_8,61,1,48,21,60649208
72,21,3,ISIP_8,62,1,48,21,61493828
72,21,3,ISIP_8,63,1,48,21,62303128
72,21,3,ISIP_8,64,1,48,20,63148636
72,21,3,ISIP_8,65,1,48,20,63990204
72,21,3,ISIP_8,66,1,48,22,64826584
72,21,3,ISIP_8,67,1,48,23,65636636
72,21,3,ISIP_8,68,1,48,23,66448032
72,21,3,ISIP_8,69,1,48,19,67273944
72,21,3,ISIP_8,70,1,48,22,68097256
72,21,3,ISIP_8,71,1,48,23,68950316
72,21,3,ISIP_8,72,1,48,20,69796196
72,21,3,ISIP_8,73,1,48,22,70622476
72,21,3,ISIP_8,74,1,48,19,71469504
72,21,3,ISIP_8,75,1,48,22,72283668
72,21,3,ISIP_8,76,1,48,22,73111596
72,21,3,ISIP_8,77,1,48,22,73951716
72,21,3,ISIP_8,78,1,48,20,74842348
72,21,3,ISIP_8,79,1,48,16,75582692
72,21,3,ISIP_8,80,1,48,21,76411068
72,21,3,ISIP_8,81,1,48,19,77217304
72,21,3,ISIP_8,82,1,48,20,78049644
72,21,3,ISIP_8,83,1,48,19,78865032
72,21,3,ISIP_8,84,1,48,25,79745248
72,21,3,ISIP_8,85,1,48,23,80488876
72,21,3,ISIP_8,86,1,48,23,81334308
72,21,3,ISIP_8,87,1,48,21,82105760
72,21,3,ISIP_8,88,1,48,21,82923840
72,21,3,ISIP_8,89,1,48,23,83753784
72,21,3,ISIP_8,90,1,48,24,84632128
72,21,3,ISIP_8,91,1,48,25,85452500
72,21,3,ISIP_8,92,1,48,35,86303208
72,21,3,ISIP_8,93,1,48,26,87153568
72,21,3,ISIP_8,94,1,48,33,88001468
72,21,3,ISIP_8,95,1,48,29,88891956
72,21,3,ISIP_8,96,1,48,28,89728560
72,21,3,ISIP_8,97,1,48,28,90573764
72,21,3,ISIP_8,98,1,48,25,91439348
72,21,3,ISIP_8,99,1,48,24,92331524
72,21,3,ISIP_8,100,1,48,27,93193132
72,21,3,ISIP_8,101,1,48,22,94042828
72,21,3,ISIP_8,102,1,48,28,94911524
72,21,3,ISIP_8,103,1,48,24,95728104
72,21,3,ISIP_8,104,1,48,36,96501132
72,21,3,ISIP_8,105,1,48,31,97426524
72,21,3,ISIP_8,106,1,48,26,98298840
72,21,3,ISIP_8,107,1,48,29,99128344
72,21,3,ISIP_8,108,1,48,24,100012292
72,21,3,ISIP_8,109,1,48,25,100863432
72,21,3,ISIP_8,110,1,48,22,101745140
72,21,3,ISIP_8,111,1,48,24,102546592
72,21,3,ISIP_8,112,1,48,27,103419272
72,21,3,ISIP_8,113,1,48,25,104217880
72,21,3,ISIP_8,114,1,48,28,105024040
72,21,3,ISIP_8,115,1,48,23,105867000
72,21,3,ISIP_8,116,1,48,24,106685804
72,21,3,ISIP_8,117,1,48,27,107464820
72,21,3,ISIP_8,118,1,48,32,108243748
72,21,3,ISIP_8,119,1,48,27,109071704
72,21,3,ISIP_8,120,1,48,30,109866644
72,21,3,ISIP_8,121,1,48,33,110659340
72,21,3,ISIP_8,122,1,48,28,111477620
72,21,3,ISIP_8,123,1,48,29,112287900
72,21,3,ISIP_8,124,1,48,38,113083960
72,21,3,ISIP_8,125,1,48,31,113840904
72,21,3,ISIP_8,126,1,48,32,114682324
72,21,3,ISIP_8,127,1,48,32,115468960
72,21,3,ISIP_8,128,1,48,31,116291352
72,21,3,ISIP_8,129,1,48,30,117115244
72,21,3,ISIP_8,130,1,48,34,117949756
72,21,3,ISIP_8,131,1,48,30,118706696
72,21,3,ISIP_8,132,1,48,24,119538392
72,21,3,ISIP_8,133,1,48,24,120353832
72,21,3,ISIP_8,134,1,48,24,121165004
72,21,3,ISIP_8,135,1,48,29,122022548
72,21,3,ISIP_8,136,1,48,31,122823104
72,21,3,ISIP_8,137,1,48,28,123633928
72,21,3,ISIP_8,138,1,48,32,124447344
72,21,3,ISIP_8,139,1,48,32,125237428
72,21,3,ISIP_8,140,1,48,32,126043660
72,21,3,ISIP_8,141,1,48,37,126820052
72,21,3,ISIP_8,142,1,48,33,127657108
72,21,3,ISIP_8,143,1,48,34,128482264
72,21,3,ISIP_8,144,1,48,33,129330012
72,21,3,ISIP_8,145,1,48,26,130202676
72,21,3,ISIP_8,146,1,48,27,131041072
72,21,3,ISIP_8,147,1,48,32,131878240
72,21,3,ISIP_8,148,1,48,24,132853692
72,21,3,ISIP_8,149,1,48,32,133658508
72,21,3,ISIP_8,150,1,48,31,134533708
72,21,3,ISIP_8,151,1,48,31,135307336
72,21,3,ISIP_8,152,1,48,23,136114016
72,21,3,ISIP_8,153,1,48,27,136920704
72,21,3,ISIP_8,154,1,48,29,137717240
72,21,3,ISIP_8,155,1,48,29,138549284
72,21,3,ISIP_8,156,1,48,30,139376236
72,21,3,ISIP_8,157,1,48,32,140200128
72,21,3,ISIP_8,158,1,48,35,140971732
72,21,3,ISIP_8,159,1,48,31,141748872
72,21,3,ISIP_8,160,1,48,28,142573688
72,21,3,ISIP_8,161,1,48,28,143347836
72,21,3,ISIP_8,162,1,48,29,144127592
72,21,3,ISIP_8,163,1,48,31,144981696
72,21,3,ISIP_8,164,1,48,36,145820920
72,21,3,ISIP_8,165,1,48,27,146633436
72,21,3,ISIP_8,166,1,48,27,147461692
72,21,3,ISIP_8,167,1,48,32,148351180
72,21,3,ISIP_8,168,1,48,34,149147464
72,21,3,ISIP_8,169,1,48,41,149871876
72,21,3,ISIP_8,170,1,48,38,150656272
72,21,3,ISIP_8,171,1,48,40,151442688
72,21,3,ISIP_8,172,1,48,37,152237556
72,21,3,ISIP_8,173,1,48,41,153044984
72,21,3,ISIP_8,174,1,48,35,153910412
72,21,3,ISIP_8,0,9999,9999,9999,34264128
72,21,3,ISIP_8,1,9999,9999,9999,35063884
72,21,3,ISIP_8,2,9999,9999,9999,35864664
72,21,3,ISIP_8,3,9999,9999,9999,36664412
72,21,3,ISIP_8,4,9999,9999,9999,37464156
72,21,3,ISIP_8,5,9999,9999,9999,38263888
72,21,3,ISIP_8,6,9999,9999,9999,39064660
72,21,3,ISIP_8,7,9999,9999,9999,39864404
72,21,3,ISIP_8,8,9999,9999,9999,40664136
72,21,3,ISIP_8,9,9999,9999,9999,41463896
72,21,3,ISIP_8,10,9999,9999,9999,42264676
72,21,3,ISIP_8,11,9999,9999,9999,43064408
72,21,3,ISIP_8,12,9999,9999,9999,43864160
72,21,3,ISIP_8,13,9999,9999,9999,44663892
72,21,3,ISIP_8,14,9999,9999,9999,45464680
72,21,3,ISIP_8,15,9999,9999,9999,46264412
72,21,3,ISIP_8,16,9999,9999,9999,47064148
72,21,3,ISIP_8,17,9999,9999,9999,47863900
72,21,3,ISIP_8,18,9999,9999,9999,48664684
72,21,3,ISIP_8,19,9999,9999,9999,49464420
72,21,3,ISIP_8,20,9999,9999,9999,50264152
72,21,3,ISIP_8,21,9999,9999,9999,51063880
72,21,3,ISIP_8,22,9999,9999,9999,51864664
72,21,3,ISIP_8,23,9999,9999,9999,52664400
72,21,3,ISIP_8,24,9999,9999,9999,53464128
72,21,3,ISIP_8,25,9999,9999,9999,54263872
72,21,3,ISIP_8,26,9999,9999,9999,55064652
72,21,3,ISIP_8,27,9999,9999,9999,55864388
72,21,3,ISIP_8,28,9999,9999,9999,56664120
72,21,3,ISIP_8,29,9999,9999,9999,57463868
72,21,3,ISIP_8,30,9999,9999,9999,58264648
72,21,3,ISIP_8,31,9999,9999,9999,59064376
72,21,3,ISIP_8,32,9999,9999,9999,59864180
72,21,3,ISIP_8,33,9999,9999,9999,60663860
72,21,3,ISIP_8,34,9999,9999,9999,61464644
72,21,3,ISIP_8,35,9999,9999,9999,62264372
72,21,3,ISIP_8,36,9999,9999,9999,63064176
72,21,3,ISIP_8,37,9999,9999,9999,63863904
72,21,3,ISIP_8,38,9999,9999,9999,64664680
72,21,3,ISIP_8,39,9999,9999,9999,65464408
72,21,3,ISIP_8,40,9999,9999,9999,66264136
72,21,3,ISIP_8,41,9999,9999,9999,67063892
72,21,3,ISIP_8,42,9999,9999,9999,67864668
72,21,3,ISIP_8,43,9999,9999,9999,68664396
72,21,3,ISIP_8,44,9999,9999,9999,69464124
72,21,3,ISIP_8,45,9999,9999,9999,70263856
72,21,3,ISIP_8,46,9999,9999,9999,71064632
72,21,3,ISIP_8,47,9999,9999,9999,71864436
72,21,3,ISIP_8,48,9999,9999,9999,72664164
72,21,3,ISIP_8,49,9999,9999,9999,73463916
72,21,3,ISIP_8,50,9999,9999,9999,74264692
72,21,3,ISIP_8,51,9999,9999,9999,75064424
72,21,3,ISIP_8,52,9999,9999,9999,75864152
72,21,3,ISIP_8,53,9999,9999,9999,76663884
72,21,3,ISIP_8,54,9999,9999,9999,77464660
72,21,3,ISIP_8,55,9999,9999,9999,78264388
72,21,3,ISIP_8,56,9999,9999,9999,79064116
72,21,3,ISIP_8,57,9999,9999,9999,79863872
72,21,3,ISIP_8,58,9999,9999,9999,80664648
72,21,3,ISIP_8,59,9999,9999,9999,81464376
72,21,3,ISIP_8,60,9999,9999,9999,82264184
72,21,3,ISIP_8,61,9999,9999,9999,83063912
72,21,3,ISIP_8,62,9999,9999,9999,83864688
72,21,3,ISIP_8,63,9999,9999,9999,84664432
72,21,3,ISIP_8,64,9999,9999,9999,85464160
72,21,3,ISIP_8,65,9999,9999,9999,86263920
72,21,3,ISIP_8,66,9999,9999,9999,87064696
72,21,3,ISIP_8,67,9999,9999,9999,87864428
72,21,3,ISIP_8,68,9999,9999,9999,88664156
72,21,3,ISIP_8,69,9999,9999,9999,89463884
72,21,3,ISIP_8,70,9999,9999,9999,90264660
72,21,3,ISIP_8,71,9999,9999,9999,91064388
72,21,3,ISIP_8,72,9999,9999,9999,91864120
72,21,3,ISIP_8,73,9999,9999,9999,92663876
72,21,3,ISIP_8,74,9999,9999,9999,93464652
72,21,3,ISIP_8,75,9999,9999,9999,94264380
72,21,3,ISIP_8,76,9999,9999,9999,95064184
72,21,3,ISIP_8,77,9999,9999,9999,95863912
72,21,3,ISIP_8,78,9999,9999,9999,96664688
72,21,3,ISIP_8,79,9999,9999,9999,97464432
72,21,3,ISIP_8,80,9999,9999,9999,98264168
72,21,3,ISIP_8,81,9999,9999,9999,99063924
72,21,3,ISIP_8,82,9999,9999,9999,99864624
72,21,3,ISIP_8,83,9999,9999,9999,100664428
72,21,3,ISIP_8,84,9999,9999,9999,101464156
72,21,3,ISIP_8,85,9999,9999,9999,102263888
72,21,3,ISIP_8,86,9999,9999,9999,103064660
72,21,3,ISIP_8,87,9999,9999,9999,103864392
72,21,3,ISIP_8,88,9999,9999,9999,104664120
72,21,3,ISIP_8,89,9999,9999,9999,105463876
72,21,3,ISIP_8,90,9999,9999,9999,106264652
72,21,3,ISIP_8,91,9999,9999,9999,107064380
72,21,3,ISIP_8,92,9999,9999,9999,107864112
72,21,3,ISIP_8,93,9999,9999,9999,108663912
72,21,3,ISIP_8,94,9999,9999,9999,109464688
72,21,3,ISIP_8,95,9999,9999,9999,110264420
72,21,3,ISIP_8,96,9999,9999,9999,111064148
72,21,3,ISIP_8,97,9999,9999,9999,111863900
72,21,3,ISIP_8,98,9999,9999,9999,112664676
72,21,3,ISIP_8,99,9999,9999,9999,113464408
72,21,3,ISIP_8,100,9999,9999,9999,114264136
72,21,3,ISIP_8,101,9999,9999,9999,115063868
72,21,3,ISIP_8,102,9999,9999,9999,115864644
72,21,3,ISIP_8,103,9999,9999,9999,116664372
72,21,3,ISIP_8,104,9999,9999,9999,117464176
72,21,3,ISIP_8,105,9999,9999,9999,118263856
72,21,3,ISIP_8,106,9999,9999,9999,119064628
72,21,3,ISIP_8,107,9999,9999,9999,119864436
72,21,3,ISIP_8,108,9999,9999,9999,120664164
72,21,3,ISIP_8,109,9999,9999,9999,121463892
72,21,3,ISIP_8,110,9999,9999,9999,122264672
72,21,3,ISIP_8,111,9999,9999,9999,123064400
72,21,3,ISIP_8,112,9999,9999,9999,123864128
72,21,3,ISIP_8,113,9999,9999,9999,124663880
72,21,3,ISIP_8,114,9999,9999,9999,125464660
72,21,3,ISIP_8,115,9999,9999,9999,126264388
72,21,3,ISIP_8,116,9999,9999,9999,127064116
72,21,3,ISIP_8,117,9999,9999,9999,127863920
72,21,3,ISIP_8,118,9999,9999,9999,128664672
72,21,3,ISIP_8,119,9999,9999,9999,129464400
72,21,3,ISIP_8,120,9999,9999,9999,130264148
72,21,3,ISIP_8,121,9999,9999,9999,131063900
72,21,3,ISIP_8,122,9999,9999,9999,131864684
72,21,3,ISIP_8,123,9999,9999,9999,132664412
72,21,3,ISIP_8,124,9999,9999,9999,133464144
72,21,3,ISIP_8,125,9999,9999,9999,134263872
72,21,3,ISIP_8,126,9999,9999,9999,135064648
72,21,3,ISIP_8,127,9999,9999,9999,135864376
72,21,3,ISIP_8,128,9999,9999,9999,136664180
72,21,3,ISIP_8,129,9999,9999,9999,137463860
72,21,3,ISIP_8,130,9999,9999,9999,138264636
72,21,3,ISIP_8,131,9999,9999,9999,139064440
72,21,3,ISIP_8,132,9999,9999,9999,139864168
72,21,3,ISIP_8,133,9999,9999,9999,140663896
72,21,3,ISIP_8,134,9999,9999,9999,141464672
72,21,3,ISIP_8,135,9999,9999,9999,142264404
72,21,3,ISIP_8,136,9999,9999,9999,143064132
72,21,3,ISIP_8,137,9999,9999,9999,143863888
72,21,3,ISIP_8,138,9999,9999,9999,144664660
72,21,3,ISIP_8,139,9999,9999,9999,145464392
72,21,3,ISIP_8,140,9999,9999,9999,146264120
72,21,3,ISIP_8,141,9999,9999,9999,147063924
72,21,3,ISIP_8,142,9999,9999,9999,147864628
72,21,3,ISIP_8,143,9999,9999,9999,148664432
72,21,3,ISIP_8,144,9999,9999,9999,149464160
72,21,3,ISIP_8,145,9999,9999,9999,150263916
72,21,3,ISIP_8,146,9999,9999,9999,151064692
72,21,3,ISIP_8,147,9999,9999,9999,151864420
72,21,3,ISIP_8,148,9999,9999,9999,152664148
72,21,3,ISIP_8,149,9999,9999,9999,153463876
72,22,11,Pattern_Practice,0,5,42,127,268401916
72,22,11,Pattern_Practice,1,5,42,127,268901784
72,22,11,Pattern_Practice,2,5,42,127,269401724
72,22,11,Pattern_Practice,3,1,48,47,269463184
72,22,11,Pattern_Practice,4,5,42,127,269901268
72,22,11,Pattern_Practice,5,1,48,50,269915084
72,22,11,Pattern_Practice,6,1,48,19,269998164
72,22,11,Pattern_Practice,7,1,48,49,270367020
72,22,11,Pattern_Practice,8,5,42,127,270401832
72,22,11,Pattern_Practice,9,1,48,21,270462984
72,22,11,Pattern_Practice,10,1,48,50,270809892
72,22,11,Pattern_Practice,11,1,38,72,270862568
72,22,11,Pattern_Practice,12,5,42,127,270901572
72,22,11,Pattern_Practice,13,1,38,25,270934568
72,22,11,Pattern_Practice,14,1,48,47,271170932
72,22,11,Pattern_Practice,15,1,48,21,271244516
72,22,11,Pattern_Practice,16,1,38,63,271272468
72,22,11,Pattern_Practice,17,1,38,40,271312460
72,22,11,Pattern_Practice,18,5,42,127,271401588
72,22,11,Pattern_Practice,19,1,48,45,271593508
72,22,11,Pattern_Practice,20,1,48,26,271645920
72,22,11,Pattern_Practice,21,1,38,65,271799156
72,22,11,Pattern_Practice,22,5,42,127,271902048
72,22,11,Pattern_Practice,23,1,48,63,272150604
72,22,11,Pattern_Practice,24,1,48,28,272219692
72,22,11,Pattern_Practice,25,5,42,127,272401720
72,22,11,Pattern_Practice,26,1,48,65,272544636
72,22,11,Pattern_Practice,27,5,42,127,272901564
72,22,11,Pattern_Practice,28,1,48,52,273043208
72,22,11,Pattern_Practice,29,5,42,127,273401408
72,22,11,Pattern_Practice,30,1,48,50,273590404
72,22,11,Pattern_Practice,31,5,42,127,273902076
72,22,11,Pattern_Practice,32,1,48,57,274045888
72,22,11,Pattern_Practice,33,1,48,37,274104588
72,22,11,Pattern_Practice,34,5,42,127,274401600
72,22,11,Pattern_Practice,35,1,38,60,274484152
72,22,11,Pattern_Practice,36,1,48,18,274502764
72,22,11,Pattern_Practice,37,5,42,127,274901744
72,22,11,Pattern_Practice,38,1,48,60,274981704
72,22,11,Pattern_Practice,39,1,48,19,275071740
72,22,11,Pattern_Practice,40,5,42,127,275402164
72,22,11,Pattern_Practice,41,1,48,64,275479136
72,22,11,Pattern_Practice,42,5,42,127,275901860
72,22,11,Pattern_Practice,43,1,48,65,275962004
72,22,11,Pattern_Practice,44,5,42,127,276401556
72,22,11,Pattern_Practice,45,1,48,70,276436464
72,22,11,Pattern_Practice,46,5,42,127,276901400
72,22,11,Pattern_Practice,47,1,48,61,276937356
72,22,11,Pattern_Practice,48,5,42,127,277401840
72,22,11,Pattern_Practice,49,1,48,64,277441532
72,22,11,Pattern_Practice,50,1,38,76,277832008
72,22,11,Pattern_Practice,51,1,48,26,277870208
72,22,11,Pattern_Practice,52,5,42,127,277901584
72,22,11,Pattern_Practice,53,1,48,66,278190188
72,22,11,Pattern_Practice,54,5,42,127,278401532
72,22,11,Pattern_Practice,55,1,48,69,278499292
72,22,11,Pattern_Practice,56,5,42,127,278902052
72,22,11,Pattern_Practice,57,1,48,62,278978244
72,22,11,Pattern_Practice,58,5,42,127,279401820
72,22,11,Pattern_Practice,59,1,48,67,279477344
72,22,11,Pattern_Practice,60,5,42,127,279901512
72,22,11,Pattern_Practice,61,1,48,66,279921688
72,22,11,Pattern_Practice,62,1,48,19,280023688
72,22,11,Pattern_Practice,63,1,38,76,280394864
72,22,11,Pattern_Practice,64,1,48,61,280399196
72,22,11,Pattern_Practice,65,5,42,127,280401308
72,22,11,Pattern_Practice,66,1,48,58,280817392
72,22,11,Pattern_Practice,67,5,42,127,280901948
72,22,11,Pattern_Practice,68,1,38,56,280946268
72,22,11,Pattern_Practice,69,1,38,55,281370472
72,22,11,Pattern_Practice,70,1,48,56,281378680
72,22,11,Pattern_Practice,71,5,42,127,281401676
72,22,11,Pattern_Practice,72,1,48,59,281884708
72,22,11,Pattern_Practice,73,1,38,59,281900124
72,22,11,Pattern_Practice,74,5,42,127,281903420
72,22,11,Pattern_Practice,75,1,48,63,282383604
72,22,11,Pattern_Practice,76,5,42,127,282401140
72,22,11,Pattern_Practice,77,1,38,57,282436196
72,22,11,Pattern_Practice,78,5,42,127,282901852
72,22,11,Pattern_Practice,79,1,48,62,282909764
72,22,11,Pattern_Practice,80,1,38,59,282958508
72,22,11,Pattern_Practice,81,5,42,127,283401504
72,22,11,Pattern_Practice,82,1,48,62,283419356
72,22,11,Pattern_Practice,83,1,38,50,283467060
72,22,11,Pattern_Practice,84,5,42,127,283901224
72,22,11,Pattern_Practice,85,1,48,63,283935984
72,22,11,Pattern_Practice,86,1,38,56,283965956
72,22,11,Pattern_Practice,87,5,42,127,284402140
72,22,11,Pattern_Practice,88,1,48,59,284425008
72,22,11,Pattern_Practice,89,1,38,58,284466800
72,22,11,Pattern_Practice,90,1,48,60,284893596
72,22,11,Pattern_Practice,91,5,42,127,284901780
72,22,11,Pattern_Practice,92,1,38,59,284978356
72,22,11,Pattern_Practice,93,5,42,127,285401424
72,22,11,Pattern_Practice,94,1,48,61,285424236
72,22,11,Pattern_Practice,95,1,38,59,285470664
72,22,11,Pattern_Practice,96,5,42,127,285901292
72,22,11,Pattern_Practice,97,1,48,62,285920448
72,22,11,Pattern_Practice,98,1,38,62,285989684
72,22,11,Pattern_Practice,99,5,42,127,286401840
72,22,11,Pattern_Practice,100,1,48,54,286409224
72,22,11,Pattern_Practice,101,1,38,60,286503100
72,22,11,Pattern_Practice,102,1,48,54,286873344
72,22,11,Pattern_Practice,103,5,42,127,286901580
72,22,11,Pattern_Practice,104,1,38,69,286989680
72,22,11,Pattern_Practice,105,1,48,58,287276004
72,22,11,Pattern_Practice,106,5,42,127,287401312
72,22,11,Pattern_Practice,107,1,48,62,287698856
72,22,11,Pattern_Practice,108,5,42,127,287902128
72,22,11,Pattern_Practice,109,1,48,59,287989944
72,22,11,Pattern_Practice,110,5,42,127,288401672
72,22,11,Pattern_Practice,111,1,48,44,288451016
72,22,11,Pattern_Practice,112,1,48,39,288703612
72,22,11,Pattern_Practice,113,1,38,13,288715036
72,22,11,Pattern_Practice,114,5,42,127,288901444
72,22,11,Pattern_Practice,115,1,48,63,289145216
72,22,11,Pattern_Practice,116,1,48,58,289394144
72,22,11,Pattern_Practice,117,5,42,127,289401060
72,22,11,Pattern_Practice,118,1,48,55,289831828
72,22,11,Pattern_Practice,119,5,42,127,289902024
72,22,11,Pattern_Practice,120,1,48,44,290096784
72,22,11,Pattern_Practice,121,5,42,127,290401628
72,22,11,Pattern_Practice,122,1,48,56,290553248
72,22,11,Pattern_Practice,123,1,48,46,290827980
72,22,11,Pattern_Practice,124,5,42,127,290901316
72,22,11,Pattern_Practice,125,1,48,54,291271856
72,22,11,Pattern_Practice,126,5,42,127,291402268
72,22,11,Pattern_Practice,127,1,48,48,291552088
72,22,11,Pattern_Practice,128,5,42,127,291901892
72,22,11,Pattern_Practice,129,1,48,66,291992600
72,22,11,Pattern_Practice,130,1,48,34,292305108
72,22,11,Pattern_Practice,131,5,42,127,292401576
72,22,11,Pattern_Practice,132,1,48,18,292631120
72,22,11,Pattern_Practice,133,1,38,59,292788172
72,22,11,Pattern_Practice,134,5,42,127,292901236
72,22,11,Pattern_Practice,135,1,38,37,293117552
72,22,11,Pattern_Practice,136,1,48,40,293166600
72,22,11,Pattern_Practice,137,5,42,127,293402228
72,22,11,Pattern_Practice,138,1,48,63,293629616
72,22,11,Pattern_Practice,139,5,42,127,293901700
72,22,11,Pattern_Practice,140,1,48,46,293925540
72,22,11,Pattern_Practice,141,1,48,62,294383104
72,22,11,Pattern_Practice,142,5,42,127,294401316
72,22,11,Pattern_Practice,143,1,48,40,294656216
72,22,11,Pattern_Practice,144,5,42,127,294902116
72,22,11,Pattern_Practice,145,1,48,71,295111152
72,22,11,Pattern_Practice,146,5,42,127,295402032
72,22,11,Pattern_Practice,147,1,48,48,295403600
72,22,11,Pattern_Practice,148,1,48,66,295876084
72,22,11,Pattern_Practice,149,5,42,127,295901572
72,22,11,Pattern_Practice,150,1,48,54,296156620
72,22,11,Pattern_Practice,151,5,42,127,296401228
72,22,11,Pattern_Practice,152,1,48,66,296547232
72,22,11,Pattern_Practice,153,1,48,65,296869688
72,22,11,Pattern_Practice,154,5,42,127,296902260
72,22,11,Pattern_Practice,155,1,48,54,297370056
72,22,11,Pattern_Practice,156,5,42,127,297401656
72,22,11,Pattern_Practice,157,1,48,58,297640768
72,22,11,Pattern_Practice,158,5,42,127,297901484
72,22,11,Pattern_Practice,159,1,48,70,298130816
72,22,11,Pattern_Practice,160,5,42,127,298401180
72,22,11,Pattern_Practice,161,1,48,64,298423068
72,22,11,Pattern_Practice,162,1,38,31,298547612
72,22,11,Pattern_Practice,163,5,42,127,298902120
72,22,11,Pattern_Practice,164,1,38,49,298975576
72,22,11,Pattern_Practice,165,1,48,53,298995228
72,22,11,Pattern_Practice,166,5,42,127,299401768
72,22,11,Pattern_Practice,167,1,48,64,299408556
72,22,11,Pattern_Practice,168,1,48,22,299501008
72,22,11,Pattern_Practice,169,1,38,50,299648860
72,22,11,Pattern_Practice,170,1,48,14,299659760
72,22,11,Pattern_Practice,171,5,42,127,299901372
72,22,11,Pattern_Practice,172,1,48,66,299917732
72,22,11,Pattern_Practice,173,1,48,26,300000388
72,22,11,Pattern_Practice,174,1,38,38,300156764
72,22,11,Pattern_Practice,175,1,48,58,300400556
72,22,11,Pattern_Practice,176,5,42,127,300402136
72,22,11,Pattern_Practice,177,1,38,27,300646788
72,22,11,Pattern_Practice,178,1,48,41,300792052
72,22,11,Pattern_Practice,179,5,42,127,300902020
72,22,11,Pattern_Practice,180,1,38,45,301062388
72,22,11,Pattern_Practice,181,1,48,45,301128564
72,22,11,Pattern_Practice,182,5,42,127,301401440
72,22,11,Pattern_Practice,183,1,48,49,301475024
72,22,11,Pattern_Practice,184,1,38,46,301731132
72,22,11,Pattern_Practice,185,5,42,127,301901264
72,22,11,Pattern_Practice,186,1,48,50,301943204
72,22,11,Pattern_Practice,187,1,38,53,302213748
72,22,11,Pattern_Practice,188,5,42,127,302402060
72,22,11,Pattern_Practice,189,1,48,46,302455740
72,22,11,Pattern_Practice,190,1,38,46,302737436
72,22,11,Pattern_Practice,191,5,42,127,302901656
72,22,11,Pattern_Practice,192,1,48,46,302954964
72,22,11,Pattern_Practice,193,1,38,38,303227756
72,22,11,Pattern_Practice,194,5,42,127,303401404
72,22,11,Pattern_Practice,195,1,48,52,303494052
72,22,11,Pattern_Practice,196,1,38,32,303741636
72,22,11,Pattern_Practice,197,1,48,28,303892588
72,22,11,Pattern_Practice,198,5,42,127,303902192
72,22,11,Pattern_Practice,199,1,48,45,304305344
72,22,11,Pattern_Practice,200,5,42,127,304402020
72,22,11,Pattern_Practice,201,1,48,46,304763668
72,22,11,Pattern_Practice,202,5,42,127,304901420
72,22,11,Pattern_Practice,203,1,48,64,305295080
72,22,11,Pattern_Practice,204,5,42,127,305401336
72,22,11,Pattern_Practice,205,1,48,17,305402300
72,22,11,Pattern_Practice,206,1,48,70,305826920
72,22,11,Pattern_Practice,207,5,42,127,305902068
72,22,11,Pattern_Practice,208,1,48,70,306260560
72,22,11,Pattern_Practice,209,5,42,127,306401600
72,22,11,Pattern_Practice,210,1,48,59,306738040
72,22,11,Pattern_Practice,211,5,42,127,306901492
72,22,11,Pattern_Practice,212,1,48,49,307186200
72,22,11,Pattern_Practice,213,5,42,127,307402012
72,22,11,Pattern_Practice,214,1,48,55,307655424
72,22,11,Pattern_Practice,215,5,42,127,307901852
72,22,11,Pattern_Practice,216,1,48,54,308081896
72,22,11,Pattern_Practice,0,9999,9999,9999,268399704
72,22,11,Pattern_Practice,1,9999,9999,9999,268899420
72,22,11,Pattern_Practice,2,9999,9999,9999,269399140
72,22,11,Pattern_Practice,3,9999,9999,9999,269898832
72,22,11,Pattern_Practice,4,9999,9999,9999,270399548
72,22,11,Pattern_Practice,5,9999,9999,9999,270899284
72,22,11,Pattern_Practice,6,9999,9999,9999,271399004
72,22,11,Pattern_Practice,7,9999,9999,9999,271899760
72,22,11,Pattern_Practice,8,9999,9999,9999,272399436
72,22,11,Pattern_Practice,9,9999,9999,9999,272899132
72,22,11,Pattern_Practice,10,9999,9999,9999,273398896
72,22,11,Pattern_Practice,11,9999,9999,9999,273899640
72,22,11,Pattern_Practice,12,9999,9999,9999,274399312
72,22,11,Pattern_Practice,13,9999,9999,9999,274899012
72,22,11,Pattern_Practice,14,9999,9999,9999,275399732
72,22,11,Pattern_Practice,15,9999,9999,9999,275899500
72,22,11,Pattern_Practice,16,9999,9999,9999,276399192
72,22,11,Pattern_Practice,17,9999,9999,9999,276898888
72,22,11,Pattern_Practice,18,9999,9999,9999,277399628
72,22,11,Pattern_Practice,19,9999,9999,9999,277899372
72,22,11,Pattern_Practice,20,9999,9999,9999,278399096
72,22,11,Pattern_Practice,21,9999,9999,9999,278899764
72,22,11,Pattern_Practice,22,9999,9999,9999,279399532
72,22,11,Pattern_Practice,23,9999,9999,9999,279899228
72,22,11,Pattern_Practice,24,9999,9999,9999,280398900
72,22,11,Pattern_Practice,25,9999,9999,9999,280899664
72,22,11,Pattern_Practice,26,9999,9999,9999,281399392
72,22,11,Pattern_Practice,27,9999,9999,9999,281899060
72,22,11,Pattern_Practice,28,9999,9999,9999,282398780
72,22,11,Pattern_Practice,29,9999,9999,9999,282899568
72,22,11,Pattern_Practice,30,9999,9999,9999,283399288
72,22,11,Pattern_Practice,31,9999,9999,9999,283898936
72,22,11,Pattern_Practice,32,9999,9999,9999,284399704
72,22,11,Pattern_Practice,33,9999,9999,9999,284899420
72,22,11,Pattern_Practice,34,9999,9999,9999,285399136
72,22,11,Pattern_Practice,35,9999,9999,9999,285898856
72,22,11,Pattern_Practice,36,9999,9999,9999,286399552
72,22,11,Pattern_Practice,37,9999,9999,9999,286899292
72,22,11,Pattern_Practice,38,9999,9999,9999,287399024
72,22,11,Pattern_Practice,39,9999,9999,9999,287899768
72,22,11,Pattern_Practice,40,9999,9999,9999,288399460
72,22,11,Pattern_Practice,41,9999,9999,9999,288899160
72,22,11,Pattern_Practice,42,9999,9999,9999,289398848
72,22,11,Pattern_Practice,43,9999,9999,9999,289899588
72,22,11,Pattern_Practice,44,9999,9999,9999,290399344
72,22,11,Pattern_Practice,45,9999,9999,9999,290899032
72,22,11,Pattern_Practice,46,9999,9999,9999,291399760
72,22,11,Pattern_Practice,47,9999,9999,9999,291899456
72,22,11,Pattern_Practice,48,9999,9999,9999,292399216
72,22,11,Pattern_Practice,49,9999,9999,9999,292898876
72,22,11,Pattern_Practice,50,9999,9999,9999,293399644
72,22,11,Pattern_Practice,51,9999,9999,9999,293899340
72,22,11,Pattern_Practice,52,9999,9999,9999,294399028
72,22,11,Pattern_Practice,53,9999,9999,9999,294899828
72,22,11,Pattern_Practice,54,9999,9999,9999,295399524
72,22,11,Pattern_Practice,55,9999,9999,9999,295899212
72,22,11,Pattern_Practice,56,9999,9999,9999,296398940
72,22,11,Pattern_Practice,57,9999,9999,9999,296899676
72,22,11,Pattern_Practice,58,9999,9999,9999,297399368
72,22,11,Pattern_Practice,59,9999,9999,9999,297899124
72,22,11,Pattern_Practice,60,9999,9999,9999,298398816
72,22,11,Pattern_Practice,61,9999,9999,9999,298899536
72,22,11,Pattern_Practice,62,9999,9999,9999,299399260
72,22,11,Pattern_Practice,63,9999,9999,9999,299898936
72,22,11,Pattern_Practice,64,9999,9999,9999,300399708
72,22,11,Pattern_Practice,65,9999,9999,9999,300899436
72,22,11,Pattern_Practice,66,9999,9999,9999,301399156
72,22,11,Pattern_Practice,67,9999,9999,9999,301898828
72,22,11,Pattern_Practice,68,9999,9999,9999,302399548
72,22,11,Pattern_Practice,69,9999,9999,9999,302899296
72,22,11,Pattern_Practice,70,9999,9999,9999,303398968
72,22,11,Pattern_Practice,71,9999,9999,9999,303899756
72,22,11,Pattern_Practice,72,9999,9999,9999,304399452
72,22,11,Pattern_Practice,73,9999,9999,9999,304899132
72,22,11,Pattern_Practice,74,9999,9999,9999,305398900
72,22,11,Pattern_Practice,75,9999,9999,9999,305899632
72,22,11,Pattern_Practice,76,9999,9999,9999,306399312
72,22,11,Pattern_Practice,77,9999,9999,9999,306899056
72,22,11,Pattern_Practice,78,9999,9999,9999,307399796
72,22,11,Pattern_Practice,79,9999,9999,9999,307899492
72,23,13,Improv_Metronome,0,5,42,127,343351588
72,23,13,Improv_Metronome,1,5,42,127,343851304
72,23,13,Improv_Metronome,2,1,48,16,344059392
72,23,13,Improv_Metronome,3,1,48,24,344312360
72,23,13,Improv_Metronome,4,5,42,127,344352112
72,23,13,Improv_Metronome,5,1,38,16,344745908
72,23,13,Improv_Metronome,6,5,42,127,344851940
72,23,13,Improv_Metronome,7,1,38,28,344968604
72,23,13,Improv_Metronome,8,1,38,30,345177220
72,23,13,Improv_Metronome,9,5,42,127,345351464
72,23,13,Improv_Metronome,10,1,48,27,345542100
72,23,13,Improv_Metronome,11,1,48,47,345792976
72,23,13,Improv_Metronome,12,5,42,127,345851376
72,23,13,Improv_Metronome,13,1,38,38,346145844
72,23,13,Improv_Metronome,14,5,42,127,346352100
72,23,13,Improv_Metronome,15,1,38,26,346380276
72,23,13,Improv_Metronome,16,1,38,29,346697052
72,23,13,Improv_Metronome,17,5,42,127,346851624
72,23,13,Improv_Metronome,18,1,48,40,347195700
72,23,13,Improv_Metronome,19,5,42,127,347351616
72,23,13,Improv_Metronome,20,1,48,38,347449432
72,23,13,Improv_Metronome,21,1,38,15,347461524
72,23,13,Improv_Metronome,22,1,38,67,347770492
72,23,13,Improv_Metronome,23,5,42,127,347851304
72,23,13,Improv_Metronome,24,1,38,62,348018320
72,23,13,Improv_Metronome,25,1,38,47,348239200
72,23,13,Improv_Metronome,26,5,42,127,348352012
72,23,13,Improv_Metronome,27,1,48,86,348609548
72,23,13,Improv_Metronome,28,5,42,127,348851484
72,23,13,Improv_Metronome,29,1,48,63,348863728
72,23,13,Improv_Metronome,30,1,48,38,348920352
72,23,13,Improv_Metronome,31,1,38,74,349241760
72,23,13,Improv_Metronome,32,5,42,127,349351356
72,23,13,Improv_Metronome,33,1,38,73,349476424
72,23,13,Improv_Metronome,34,1,38,46,349710468
72,23,13,Improv_Metronome,35,5,42,127,349852004
72,23,13,Improv_Metronome,36,1,48,66,350105268
72,23,13,Improv_Metronome,37,5,42,127,350351624
72,23,13,Improv_Metronome,38,1,48,76,350389376
72,23,13,Improv_Metronome,39,1,48,36,350444200
72,23,13,Improv_Metronome,40,1,38,71,350849928
72,23,13,Improv_Metronome,41,5,42,127,350852632
72,23,13,Improv_Metronome,42,1,38,62,351085540
72,23,13,Improv_Metronome,43,1,38,38,351137504
72,23,13,Improv_Metronome,44,1,38,72,351335720
72,23,13,Improv_Metronome,45,5,42,127,351351312
72,23,13,Improv_Metronome,46,1,48,110,351742664
72,23,13,Improv_Metronome,47,5,42,127,351851812
72,23,13,Improv_Metronome,48,1,48,81,352022580
72,23,13,Improv_Metronome,49,5,42,127,352351656
72,23,13,Improv_Metronome,50,1,38,82,352409980
72,23,13,Improv_Metronome,51,1,38,81,352643648
72,23,13,Improv_Metronome,52,5,42,127,352851256
72,23,13,Improv_Metronome,53,1,38,69,352881524
72,23,13,Improv_Metronome,54,1,38,42,352913292
72,23,13,Improv_Metronome,55,5,42,127,353352124
72,23,13,Improv_Metronome,56,1,48,91,353372144
72,23,13,Improv_Metronome,57,1,48,92,353644568
72,23,13,Improv_Metronome,58,5,42,127,353851724
72,23,13,Improv_Metronome,59,1,48,87,353903312
72,23,13,Improv_Metronome,60,1,48,44,353958864
72,23,13,Improv_Metronome,61,1,48,37,353997068
72,23,13,Improv_Metronome,62,1,38,80,354236424
72,23,13,Improv_Metronome,63,5,42,127,354351352
72,23,13,Improv_Metronome,64,1,38,79,354479008
72,23,13,Improv_Metronome,65,1,38,35,354526436
72,23,13,Improv_Metronome,66,5,42,127,354851248
72,23,13,Improv_Metronome,67,1,38,68,354854664
72,23,13,Improv_Metronome,68,1,38,43,354893840
72,23,13,Improv_Metronome,69,1,48,111,355100432
72,23,13,Improv_Metronome,70,1,48,39,355158004
72,23,13,Improv_Metronome,71,5,42,127,355351996
72,23,13,Improv_Metronome,72,1,48,83,355425276
72,23,13,Improv_Metronome,73,1,48,86,355684608
72,23,13,Improv_Metronome,74,5,42,127,355851596
72,23,13,Improv_Metronome,75,1,38,86,356001172
72,23,13,Improv_Metronome,76,1,38,63,356238584
72,23,13,Improv_Metronome,77,5,42,127,356351268
72,23,13,Improv_Metronome,78,1,38,54,356460300
72,23,13,Improv_Metronome,79,1,48,89,356745056
72,23,13,Improv_Metronome,80,1,48,35,356807340
72,23,13,Improv_Metronome,81,5,42,127,356852128
72,23,13,Improv_Metronome,82,1,48,94,357064664
72,23,13,Improv_Metronome,83,1,48,78,357335168
72,23,13,Improv_Metronome,84,5,42,127,357351952
72,23,13,Improv_Metronome,85,1,38,53,357671176
72,23,13,Improv_Metronome,86,5,42,127,357851556
72,23,13,Improv_Metronome,87,1,38,68,357902624
72,23,13,Improv_Metronome,88,1,38,51,358131280
72,23,13,Improv_Metronome,89,5,42,127,358351204
72,23,13,Improv_Metronome,90,1,48,74,358505364
72,23,13,Improv_Metronome,91,1,48,81,358829764
72,23,13,Improv_Metronome,92,5,42,127,358852012
72,23,13,Improv_Metronome,93,1,48,73,359133568
72,23,13,Improv_Metronome,94,5,42,127,359351772
72,23,13,Improv_Metronome,95,1,38,74,359455144
72,23,13,Improv_Metronome,96,1,38,64,359667348
72,23,13,Improv_Metronome,97,5,42,127,359851296
72,23,13,Improv_Metronome,98,1,38,54,359901488
72,23,13,Improv_Metronome,99,5,42,127,360352036
72,23,13,Improv_Metronome,100,1,48,79,360360464
72,23,13,Improv_Metronome,101,1,48,74,360674424
72,23,13,Improv_Metronome,102,1,48,35,360733336
72,23,13,Improv_Metronome,103,5,42,127,360851912
72,23,13,Improv_Metronome,104,1,48,82,361066208
72,23,13,Improv_Metronome,105,5,42,127,361351532
72,23,13,Improv_Metronome,106,1,48,89,361439424
72,23,13,Improv_Metronome,107,1,48,43,361658256
72,23,13,Improv_Metronome,108,1,38,18,361670056
72,23,13,Improv_Metronome,109,5,42,127,361851232
72,23,13,Improv_Metronome,110,1,38,56,361877236
72,23,13,Improv_Metronome,111,1,38,69,362117788
72,23,13,Improv_Metronome,112,5,42,127,362352096
72,23,13,Improv_Metronome,113,1,38,61,362394188
72,23,13,Improv_Metronome,114,1,38,48,362632644
72,23,13,Improv_Metronome,115,5,42,127,362851620
72,23,13,Improv_Metronome,116,1,48,48,362962820
72,23,13,Improv_Metronome,117,1,38,15,362969868
72,23,13,Improv_Metronome,118,1,48,49,363216652
72,23,13,Improv_Metronome,119,5,42,127,363351260
72,23,13,Improv_Metronome,120,1,48,49,363460964
72,23,13,Improv_Metronome,121,1,48,52,363713032
72,23,13,Improv_Metronome,122,5,42,127,363851004
72,23,13,Improv_Metronome,123,1,38,57,363948072
72,23,13,Improv_Metronome,124,1,38,47,364162068
72,23,13,Improv_Metronome,125,5,42,127,364351872
72,23,13,Improv_Metronome,126,1,38,65,364396728
72,23,13,Improv_Metronome,127,1,38,56,364602344
72,23,13,Improv_Metronome,128,1,48,16,364681164
72,23,13,Improv_Metronome,129,5,42,127,364852032
72,23,13,Improv_Metronome,130,1,48,46,364904748
72,23,13,Improv_Metronome,131,1,38,15,364911456
72,23,13,Improv_Metronome,132,1,38,72,365130368
72,23,13,Improv_Metronome,133,5,42,127,365351212
72,23,13,Improv_Metronome,134,1,48,52,365383276
72,23,13,Improv_Metronome,135,1,38,16,365394704
72,23,13,Improv_Metronome,136,1,38,46,365646224
72,23,13,Improv_Metronome,137,5,42,127,365852032
72,23,13,Improv_Metronome,138,1,48,61,365882828
72,23,13,Improv_Metronome,139,1,38,56,366085460
72,23,13,Improv_Metronome,140,1,48,44,366287920
72,23,13,Improv_Metronome,141,5,42,127,366351924
72,23,13,Improv_Metronome,142,1,38,65,366603832
72,23,13,Improv_Metronome,143,5,42,127,366851380
72,23,13,Improv_Metronome,144,1,48,58,366926232
72,23,13,Improv_Metronome,145,1,38,19,366937952
72,23,13,Improv_Metronome,146,1,48,60,367257240
72,23,13,Improv_Metronome,147,1,38,19,367269564
72,23,13,Improv_Metronome,148,5,42,127,367350988
72,23,13,Improv_Metronome,149,1,38,48,367614564
72,23,13,Improv_Metronome,150,1,38,49,367852384
72,23,13,Improv_Metronome,151,5,42,127,367854848
72,23,13,Improv_Metronome,152,1,38,61,368057740
72,23,13,Improv_Metronome,153,5,42,127,368351608
72,23,13,Improv_Metronome,154,1,48,51,368477400
72,23,13,Improv_Metronome,155,1,38,19,368484636
72,23,13,Improv_Metronome,156,5,42,127,368851232
72,23,13,Improv_Metronome,157,1,48,61,368878536
72,23,13,Improv_Metronome,158,1,38,47,369216324
72,23,13,Improv_Metronome,159,5,42,127,369352176
72,23,13,Improv_Metronome,160,1,38,48,369452928
72,23,13,Improv_Metronome,161,1,38,65,369690488
72,23,13,Improv_Metronome,162,5,42,127,369851996
72,23,13,Improv_Metronome,163,1,48,59,370139400
72,23,13,Improv_Metronome,164,5,42,127,370351392
72,23,13,Improv_Metronome,165,1,48,59,370514528
72,23,13,Improv_Metronome,166,1,38,17,370526852
72,23,13,Improv_Metronome,167,5,42,127,370851040
72,23,13,Improv_Metronome,168,1,38,43,370864852
72,23,13,Improv_Metronome,169,1,38,51,371099644
72,23,13,Improv_Metronome,170,1,38,60,371321276
72,23,13,Improv_Metronome,171,5,42,127,371352048
72,23,13,Improv_Metronome,172,1,48,60,371747148
72,23,13,Improv_Metronome,173,5,42,127,371851880
72,23,13,Improv_Metronome,174,1,48,59,372135592
72,23,13,Improv_Metronome,175,1,38,19,372147912
72,23,13,Improv_Metronome,176,5,42,127,372351376
72,23,13,Improv_Metronome,177,1,38,67,372499328
72,23,13,Improv_Metronome,178,1,38,70,372758280
72,23,13,Improv_Metronome,179,5,42,127,372853220
72,23,13,Improv_Metronome,180,1,38,79,373004688
72,23,13,Improv_Metronome,181,5,42,127,373351940
72,23,13,Improv_Metronome,182,1,48,61,373469604
72,23,13,Improv_Metronome,183,1,48,59,373810904
72,23,13,Improv_Metronome,184,5,42,127,373851552
72,23,13,Improv_Metronome,185,1,48,61,374179676
72,23,13,Improv_Metronome,186,5,42,127,374351160
72,23,13,Improv_Metronome,187,1,38,75,374438952
72,23,13,Improv_Metronome,188,1,48,13,374629760
72,23,13,Improv_Metronome,189,1,38,52,374662500
72,23,13,Improv_Metronome,190,1,48,15,374675416
72,23,13,Improv_Metronome,191,5,42,127,374851880
72,23,13,Improv_Metronome,192,1,38,54,374893296
72,23,13,Improv_Metronome,193,1,48,14,374904796
72,23,13,Improv_Metronome,194,1,38,46,375097300
72,23,13,Improv_Metronome,195,5,42,127,375351808
72,23,13,Improv_Metronome,196,1,48,60,375410352
72,23,13,Improv_Metronome,197,1,48,58,375705132
72,23,13,Improv_Metronome,198,1,38,16,375717528
72,23,13,Improv_Metronome,199,5,42,127,375851284
72,23,13,Improv_Metronome,200,1,48,63,376020304
72,23,13,Improv_Metronome,201,1,48,22,376311740
72,23,13,Improv_Metronome,202,1,38,77,376326384
72,23,13,Improv_Metronome,203,5,42,127,376352148
72,23,13,Improv_Metronome,204,1,38,55,376581512
72,23,13,Improv_Metronome,205,1,38,53,376810320
72,23,13,Improv_Metronome,206,5,42,127,376851868
72,23,13,Improv_Metronome,207,1,38,62,377014136
72,23,13,Improv_Metronome,208,5,42,127,377351768
72,23,13,Improv_Metronome,209,1,48,62,377385776
72,23,13,Improv_Metronome,210,1,48,54,377672784
72,23,13,Improv_Metronome,211,5,42,127,377851220
72,23,13,Improv_Metronome,212,1,48,59,377975584
72,23,13,Improv_Metronome,213,1,38,19,377987312
72,23,13,Improv_Metronome,214,1,38,54,378237852
72,23,13,Improv_Metronome,215,5,42,127,378351964
72,23,13,Improv_Metronome,216,1,38,72,378494804
72,23,13,Improv_Metronome,217,1,38,62,378712472
72,23,13,Improv_Metronome,218,5,42,127,378851860
72,23,13,Improv_Metronome,219,1,38,62,378913548
72,23,13,Improv_Metronome,220,1,48,15,378924524
72,23,13,Improv_Metronome,221,1,48,60,379290788
72,23,13,Improv_Metronome,222,1,38,19,379302508
72,23,13,Improv_Metronome,223,5,42,127,379351408
72,23,13,Improv_Metronome,224,1,48,55,379587708
72,23,13,Improv_Metronome,225,5,42,127,379851112
72,23,13,Improv_Metronome,226,1,48,59,379887992
72,23,13,Improv_Metronome,227,1,38,17,379899712
72,23,13,Improv_Metronome,228,1,38,99,380253256
72,23,13,Improv_Metronome,229,5,42,127,380351784
72,23,13,Improv_Metronome,230,1,38,56,380537960
72,23,13,Improv_Metronome,231,1,38,67,380781852
72,23,13,Improv_Metronome,232,5,42,127,380851744
72,23,13,Improv_Metronome,233,1,38,40,381025860
72,23,13,Improv_Metronome,234,5,42,127,381351124
72,23,13,Improv_Metronome,235,1,48,61,381423080
72,23,13,Improv_Metronome,236,1,48,51,381742248
72,23,13,Improv_Metronome,237,5,42,127,381851992
72,23,13,Improv_Metronome,238,1,48,56,382066512
72,23,13,Improv_Metronome,239,1,38,21,382078836
72,23,13,Improv_Metronome,240,5,42,127,382351652
72,23,13,Improv_Metronome,241,1,38,82,382388732
72,23,13,Improv_Metronome,242,1,38,73,382647080
72,23,13,Improv_Metronome,243,5,42,127,382851472
72,23,13,Improv_Metronome,244,1,38,70,382868280
72,23,13,Improv_Metronome,245,1,38,33,382920240
72,23,13,Improv_Metronome,246,1,38,78,383089364
72,23,13,Improv_Metronome,247,5,42,127,383351128
72,23,13,Improv_Metronome,248,1,48,58,383468188
72,23,13,Improv_Metronome,249,1,48,63,383781144
72,23,13,Improv_Metronome,250,5,42,127,383851936
72,23,13,Improv_Metronome,251,1,38,78,384084320
72,23,13,Improv_Metronome,252,1,38,77,384323976
72,23,13,Improv_Metronome,253,5,42,127,384351684
72,23,13,Improv_Metronome,254,1,38,76,384555868
72,23,13,Improv_Metronome,255,5,42,127,384851212
72,23,13,Improv_Metronome,256,1,48,63,384929056
72,23,13,Improv_Metronome,257,1,48,61,385240764
72,23,13,Improv_Metronome,258,1,38,18,385253084
72,23,13,Improv_Metronome,259,5,42,127,385352108
72,23,13,Improv_Metronome,260,1,38,78,385540076
72,23,13,Improv_Metronome,261,1,38,77,385797164
72,23,13,Improv_Metronome,262,5,42,127,385851872
72,23,13,Improv_Metronome,263,1,38,32,385854844
72,23,13,Improv_Metronome,264,1,38,39,385962140
72,23,13,Improv_Metronome,265,5,42,127,386351680
72,23,13,Improv_Metronome,266,1,48,59,386406560
72,23,13,Improv_Metronome,267,1,48,61,386726696
72,23,13,Improv_Metronome,268,1,38,19,386739020
72,23,13,Improv_Metronome,269,5,42,127,386851084
72,23,13,Improv_Metronome,270,1,38,72,387079668
72,23,13,Improv_Metronome,271,1,38,70,387342808
72,23,13,Improv_Metronome,272,5,42,127,387351968
72,23,13,Improv_Metronome,273,1,38,73,387576644
72,23,13,Improv_Metronome,274,1,38,38,387632872
72,23,13,Improv_Metronome,275,5,42,127,387851624
72,23,13,Improv_Metronome,276,1,48,59,388030068
72,23,13,Improv_Metronome,277,1,48,54,388328544
72,23,13,Improv_Metronome,278,5,42,127,388351536
72,23,13,Improv_Metronome,279,1,48,18,388644136
72,23,13,Improv_Metronome,280,1,38,64,388745908
72,23,13,Improv_Metronome,281,5,42,127,388852016
72,23,13,Improv_Metronome,282,1,38,76,389013932
72,23,13,Improv_Metronome,283,1,38,72,389257772
72,23,13,Improv_Metronome,284,5,42,127,389351760
72,23,13,Improv_Metronome,285,1,38,27,389464612
72,23,13,Improv_Metronome,286,1,48,53,389754828
72,23,13,Improv_Metronome,287,5,42,127,389851584
72,23,13,Improv_Metronome,288,1,48,60,390055988
72,23,13,Improv_Metronome,289,5,42,127,390351108
72,23,13,Improv_Metronome,290,1,38,74,390620780
72,23,13,Improv_Metronome,291,1,38,45,390651648
72,23,13,Improv_Metronome,292,5,42,127,390851900
72,23,13,Improv_Metronome,293,1,38,67,390894388
72,23,13,Improv_Metronome,294,1,38,66,391125368
72,23,13,Improv_Metronome,295,1,38,32,391181212
72,23,13,Improv_Metronome,296,1,38,59,391339840
72,23,13,Improv_Metronome,297,5,42,127,391351616
72,23,13,Improv_Metronome,298,1,48,64,391768332
72,23,13,Improv_Metronome,299,5,42,127,391851460
72,23,13,Improv_Metronome,300,1,48,59,392053552
72,23,13,Improv_Metronome,301,5,42,127,392352040
72,23,13,Improv_Metronome,302,1,38,85,392446140
72,23,13,Improv_Metronome,303,1,38,58,392674500
72,23,13,Improv_Metronome,304,5,42,127,392851788
72,23,13,Improv_Metronome,305,1,38,57,392898592
72,23,13,Improv_Metronome,306,5,42,127,393351480
72,23,13,Improv_Metronome,307,1,48,60,393358116
72,23,13,Improv_Metronome,308,1,48,53,393641080
72,23,13,Improv_Metronome,309,5,42,127,393851228
72,23,13,Improv_Metronome,310,1,38,70,394046532
72,23,13,Improv_Metronome,311,1,38,41,394323880
72,23,13,Improv_Metronome,312,5,42,127,394351964
72,23,13,Improv_Metronome,313,1,38,62,394546656
72,23,13,Improv_Metronome,314,5,42,127,394851572
72,23,13,Improv_Metronome,315,1,48,56,395070512
72,23,13,Improv_Metronome,316,5,42,127,395351344
72,23,13,Improv_Metronome,317,1,48,56,395395376
72,23,13,Improv_Metronome,318,1,38,18,395407172
72,23,13,Improv_Metronome,319,1,38,53,395821700
72,23,13,Improv_Metronome,320,5,42,127,395851056
72,23,13,Improv_Metronome,321,1,38,59,396071844
72,23,13,Improv_Metronome,322,1,38,57,396302972
72,23,13,Improv_Metronome,323,5,42,127,396351776
72,23,13,Improv_Metronome,324,1,48,60,396695908
72,23,13,Improv_Metronome,325,5,42,127,396851680
72,23,13,Improv_Metronome,326,1,48,56,396961608
72,23,13,Improv_Metronome,327,1,48,60,397245168
72,23,13,Improv_Metronome,328,5,42,127,397351424
72,23,13,Improv_Metronome,329,1,48,61,397530792
72,23,13,Improv_Metronome,330,1,38,62,397823332
72,23,13,Improv_Metronome,331,5,42,127,397851936
72,23,13,Improv_Metronome,332,1,38,46,398058216
72,23,13,Improv_Metronome,333,5,42,127,398351692
72,23,13,Improv_Metronome,334,1,48,66,398432304
72,23,13,Improv_Metronome,335,1,48,62,398707260
72,23,13,Improv_Metronome,336,5,42,127,398851512
72,23,13,Improv_Metronome,337,1,48,49,398982760
72,23,13,Improv_Metronome,338,1,48,65,399255476
72,23,13,Improv_Metronome,339,1,38,19,399263312
72,23,13,Improv_Metronome,340,5,42,127,399351760
72,23,13,Improv_Metronome,341,1,48,32,399631572
72,23,13,Improv_Metronome,342,1,38,51,399634844
72,23,13,Improv_Metronome,343,5,42,127,399851992
72,23,13,Improv_Metronome,344,1,38,62,399884440
72,23,13,Improv_Metronome,345,1,48,61,400273232
72,23,13,Improv_Metronome,346,5,42,127,400351608
72,23,13,Improv_Metronome,347,1,48,53,400569304
72,23,13,Improv_Metronome,348,5,42,127,400851408
72,23,13,Improv_Metronome,349,1,48,57,400884324
72,23,13,Improv_Metronome,350,1,38,17,400896124
72,23,13,Improv_Metronome,351,1,48,18,401004828
72,23,13,Improv_Metronome,352,1,38,54,401219496
72,23,13,Improv_Metronome,353,1,48,16,401227036
72,23,13,Improv_Metronome,354,5,42,127,401352012
72,23,13,Improv_Metronome,355,5,42,127,401851728
72,23,13,Improv_Metronome,356,1,48,56,401946348
72,23,13,Improv_Metronome,357,1,48,49,402199768
72,23,13,Improv_Metronome,358,5,42,127,402351400
72,23,13,Improv_Metronome,359,1,48,54,402477960
72,23,13,Improv_Metronome,360,1,48,60,402768776
72,23,13,Improv_Metronome,361,5,42,127,402851312
72,23,13,Improv_Metronome,362,1,38,49,403106140
72,23,13,Improv_Metronome,363,1,38,52,403338836
72,23,13,Improv_Metronome,364,5,42,127,403351884
72,23,13,Improv_Metronome,365,1,48,61,403768520
72,23,13,Improv_Metronome,366,5,42,127,403851652
72,23,13,Improv_Metronome,367,1,48,56,404048064
72,23,13,Improv_Metronome,368,1,48,56,404349744
72,23,13,Improv_Metronome,369,5,42,127,404351252
72,23,13,Improv_Metronome,370,1,48,56,404612804
72,23,13,Improv_Metronome,371,5,42,127,404852276
72,23,13,Improv_Metronome,372,1,38,58,404946352
72,23,13,Improv_Metronome,373,1,38,48,405203880
72,23,13,Improv_Metronome,374,5,42,127,405351848
72,23,13,Improv_Metronome,375,1,48,62,405614168
72,23,13,Improv_Metronome,376,5,42,127,405851472
72,23,13,Improv_Metronome,377,1,48,59,405918616
72,23,13,Improv_Metronome,378,1,38,18,405931016
72,23,13,Improv_Metronome,379,1,48,60,406205796
72,23,13,Improv_Metronome,380,5,42,127,406351468
72,23,13,Improv_Metronome,381,1,48,54,406504428
72,23,13,Improv_Metronome,382,5,42,127,406851836
72,23,13,Improv_Metronome,383,1,38,51,406908964
72,23,13,Improv_Metronome,384,1,38,54,407148464
72,23,13,Improv_Metronome,385,1,38,44,407347360
72,23,13,Improv_Metronome,386,5,42,127,407351728
72,23,13,Improv_Metronome,387,1,38,61,407601688
72,23,13,Improv_Metronome,388,5,42,127,407851552
72,23,13,Improv_Metronome,389,1,48,59,407962908
72,23,13,Improv_Metronome,390,1,48,45,408224032
72,23,13,Improv_Metronome,391,5,42,127,408352200
72,23,13,Improv_Metronome,392,1,38,68,408671440
72,23,13,Improv_Metronome,393,5,42,127,408851820
72,23,13,Improv_Metronome,394,1,38,56,408927044
72,23,13,Improv_Metronome,395,1,38,55,409143208
72,23,13,Improv_Metronome,396,5,42,127,409351420
72,23,13,Improv_Metronome,397,1,48,48,409474144
72,23,13,Improv_Metronome,398,1,48,46,409729800
72,23,13,Improv_Metronome,399,5,42,127,409851388
72,23,13,Improv_Metronome,400,1,38,47,410097704
72,23,13,Improv_Metronome,401,5,42,127,410351908
72,23,13,Improv_Metronome,402,1,38,42,410402224
72,23,13,Improv_Metronome,403,1,38,58,410663048
72,23,13,Improv_Metronome,404,5,42,127,410851728
72,23,13,Improv_Metronome,405,1,38,21,410888288
72,23,13,Improv_Metronome,406,1,48,75,411106024
72,23,13,Improv_Metronome,407,1,38,22,411117296
72,23,13,Improv_Metronome,408,5,42,127,411351728
72,23,13,Improv_Metronome,409,1,48,55,411433684
72,23,13,Improv_Metronome,410,5,42,127,411851324
72,23,13,Improv_Metronome,411,1,38,78,411853924
72,23,13,Improv_Metronome,412,1,38,38,411909204
72,23,13,Improv_Metronome,413,1,38,64,412113748
72,23,13,Improv_Metronome,414,1,38,57,412336648
72,23,13,Improv_Metronome,415,5,42,127,412351792
72,23,13,Improv_Metronome,416,1,38,28,412509148
72,23,13,Improv_Metronome,417,1,48,56,412778952
72,23,13,Improv_Metronome,418,5,42,127,412851464
72,23,13,Improv_Metronome,419,1,48,60,413134636
72,23,13,Improv_Metronome,0,9999,9999,9999,343349300
72,23,13,Improv_Metronome,1,9999,9999,9999,343849016
72,23,13,Improv_Metronome,2,9999,9999,9999,344349752
72,23,13,Improv_Metronome,3,9999,9999,9999,344849504
72,23,13,Improv_Metronome,4,9999,9999,9999,345349176
72,23,13,Improv_Metronome,5,9999,9999,9999,345848940
72,23,13,Improv_Metronome,6,9999,9999,9999,346349664
72,23,13,Improv_Metronome,7,9999,9999,9999,346849336
72,23,13,Improv_Metronome,8,9999,9999,9999,347349084
72,23,13,Improv_Metronome,9,9999,9999,9999,347848796
72,23,13,Improv_Metronome,10,9999,9999,9999,348349504
72,23,13,Improv_Metronome,11,9999,9999,9999,348849272
72,23,13,Improv_Metronome,12,9999,9999,9999,349348924
72,23,13,Improv_Metronome,13,9999,9999,9999,349849716
72,23,13,Improv_Metronome,14,9999,9999,9999,350349412
72,23,13,Improv_Metronome,15,9999,9999,9999,350849080
72,23,13,Improv_Metronome,16,9999,9999,9999,351348800
72,23,13,Improv_Metronome,17,9999,9999,9999,351849524
72,23,13,Improv_Metronome,18,9999,9999,9999,352349296
72,23,13,Improv_Metronome,19,9999,9999,9999,352848968
72,23,13,Improv_Metronome,20,9999,9999,9999,353349688
72,23,13,Improv_Metronome,21,9999,9999,9999,353849436
72,23,13,Improv_Metronome,22,9999,9999,9999,354349140
72,23,13,Improv_Metronome,23,9999,9999,9999,354848888
72,23,13,Improv_Metronome,24,9999,9999,9999,355349564
72,23,13,Improv_Metronome,25,9999,9999,9999,355849312
72,23,13,Improv_Metronome,26,9999,9999,9999,356348984
72,23,13,Improv_Metronome,27,9999,9999,9999,356849768
72,23,13,Improv_Metronome,28,9999,9999,9999,357349440
72,23,13,Improv_Metronome,29,9999,9999,9999,357849196
72,23,13,Improv_Metronome,30,9999,9999,9999,358348920
72,23,13,Improv_Metronome,31,9999,9999,9999,358849652
72,23,13,Improv_Metronome,32,9999,9999,9999,359349336
72,23,13,Improv_Metronome,33,9999,9999,9999,359849008
72,23,13,Improv_Metronome,34,9999,9999,9999,360349748
72,23,13,Improv_Metronome,35,9999,9999,9999,360849476
72,23,13,Improv_Metronome,36,9999,9999,9999,361349168
72,23,13,Improv_Metronome,37,9999,9999,9999,361848944
72,23,13,Improv_Metronome,38,9999,9999,9999,362349664
72,23,13,Improv_Metronome,39,9999,9999,9999,362849332
72,23,13,Improv_Metronome,40,9999,9999,9999,363349048
72,23,13,Improv_Metronome,41,9999,9999,9999,363848792
72,23,13,Improv_Metronome,42,9999,9999,9999,364349512
72,23,13,Improv_Metronome,43,9999,9999,9999,364849224
72,23,13,Improv_Metronome,44,9999,9999,9999,365348928
72,23,13,Improv_Metronome,45,9999,9999,9999,365849672
72,23,13,Improv_Metronome,46,9999,9999,9999,366349416
72,23,13,Improv_Metronome,47,9999,9999,9999,366849096
72,23,13,Improv_Metronome,48,9999,9999,9999,367348792
72,23,13,Improv_Metronome,49,9999,9999,9999,367849576
72,23,13,Improv_Metronome,50,9999,9999,9999,368349248
72,23,13,Improv_Metronome,51,9999,9999,9999,368848948
72,23,13,Improv_Metronome,52,9999,9999,9999,369349740
72,23,13,Improv_Metronome,53,9999,9999,9999,369849412
72,23,13,Improv_Metronome,54,9999,9999,9999,370349108
72,23,13,Improv_Metronome,55,9999,9999,9999,370848828
72,23,13,Improv_Metronome,56,9999,9999,9999,371349616
72,23,13,Improv_Metronome,57,9999,9999,9999,371849296
72,23,13,Improv_Metronome,58,9999,9999,9999,372349016
72,23,13,Improv_Metronome,59,9999,9999,9999,372849752
72,23,13,Improv_Metronome,60,9999,9999,9999,373349428
72,23,13,Improv_Metronome,61,9999,9999,9999,373849192
72,23,13,Improv_Metronome,62,9999,9999,9999,374348872
72,23,13,Improv_Metronome,63,9999,9999,9999,374849596
72,23,13,Improv_Metronome,64,9999,9999,9999,375349296
72,23,13,Improv_Metronome,65,9999,9999,9999,375849072
72,23,13,Improv_Metronome,66,9999,9999,9999,376349788
72,23,13,Improv_Metronome,67,9999,9999,9999,376849504
72,23,13,Improv_Metronome,68,9999,9999,9999,377349184
72,23,13,Improv_Metronome,69,9999,9999,9999,377848932
72,23,13,Improv_Metronome,70,9999,9999,9999,378349680
72,23,13,Improv_Metronome,71,9999,9999,9999,378849352
72,23,13,Improv_Metronome,72,9999,9999,9999,379349048
72,23,13,Improv_Metronome,73,9999,9999,9999,379848824
72,23,13,Improv_Metronome,74,9999,9999,9999,380349496
72,23,13,Improv_Metronome,75,9999,9999,9999,380849236
72,23,13,Improv_Metronome,76,9999,9999,9999,381348912
72,23,13,Improv_Metronome,77,9999,9999,9999,381849708
72,23,13,Improv_Metronome,78,9999,9999,9999,382349368
72,23,13,Improv_Metronome,79,9999,9999,9999,382849112
72,23,13,Improv_Metronome,80,9999,9999,9999,383348840
72,23,13,Improv_Metronome,81,9999,9999,9999,383849572
72,23,13,Improv_Metronome,82,9999,9999,9999,384349248
72,23,13,Improv_Metronome,83,9999,9999,9999,384849000
72,23,13,Improv_Metronome,84,9999,9999,9999,385349748
72,23,13,Improv_Metronome,85,9999,9999,9999,385849436
72,23,13,Improv_Metronome,86,9999,9999,9999,386349168
72,23,13,Improv_Metronome,87,9999,9999,9999,386848872
72,23,13,Improv_Metronome,88,9999,9999,9999,387349608
72,23,13,Improv_Metronome,89,9999,9999,9999,387849336
72,23,13,Improv_Metronome,90,9999,9999,9999,388349024
72,23,13,Improv_Metronome,91,9999,9999,9999,388849728
72,23,13,Improv_Metronome,92,9999,9999,9999,389349476
72,23,13,Improv_Metronome,93,9999,9999,9999,389849184
72,23,13,Improv_Metronome,94,9999,9999,9999,390348896
72,23,13,Improv_Metronome,95,9999,9999,9999,390849616
72,23,13,Improv_Metronome,96,9999,9999,9999,391349332
72,23,13,Improv_Metronome,97,9999,9999,9999,391849028
72,23,13,Improv_Metronome,98,9999,9999,9999,392349752
72,23,13,Improv_Metronome,99,9999,9999,9999,392849500
72,23,13,Improv_Metronome,100,9999,9999,9999,393349196
72,23,13,Improv_Metronome,101,9999,9999,9999,393848940
72,23,13,Improv_Metronome,102,9999,9999,9999,394349680
72,23,13,Improv_Metronome,103,9999,9999,9999,394849360
72,23,13,Improv_Metronome,104,9999,9999,9999,395349056
72,23,13,Improv_Metronome,105,9999,9999,9999,395848768
72,23,13,Improv_Metronome,106,9999,9999,9999,396349488
72,23,13,Improv_Metronome,107,9999,9999,9999,396849244
72,23,13,Improv_Metronome,108,9999,9999,9999,397348916
72,23,13,Improv_Metronome,109,9999,9999,9999,397849652
72,23,13,Improv_Metronome,110,9999,9999,9999,398349408
72,23,13,Improv_Metronome,111,9999,9999,9999,398849076
72,23,13,Improv_Metronome,112,9999,9999,9999,399348820
72,23,13,Improv_Metronome,113,9999,9999,9999,399849560
72,23,13,Improv_Metronome,114,9999,9999,9999,400349248
72,23,13,Improv_Metronome,115,9999,9999,9999,400848976
72,23,13,Improv_Metronome,116,9999,9999,9999,401349724
72,23,13,Improv_Metronome,117,9999,9999,9999,401849444
72,23,13,Improv_Metronome,118,9999,9999,9999,402349116
72,23,13,Improv_Metronome,119,9999,9999,9999,402848876
72,23,13,Improv_Metronome,120,9999,9999,9999,403349596
72,23,13,Improv_Metronome,121,9999,9999,9999,403849292
72,23,13,Improv_Metronome,122,9999,9999,9999,404349044
72,23,13,Improv_Metronome,123,9999,9999,9999,404849768
72,23,13,Improv_Metronome,124,9999,9999,9999,405349488
72,23,13,Improv_Metronome,125,9999,9999,9999,405849184
72,23,13,Improv_Metronome,126,9999,9999,9999,406348884
72,23,13,Improv_Metronome,127,9999,9999,9999,406849624
72,23,13,Improv_Metronome,128,9999,9999,9999,407349364
72,23,13,Improv_Metronome,129,9999,9999,9999,407849044
72,23,13,Improv_Metronome,130,9999,9999,9999,408349764
72,23,13,Improv_Metronome,131,9999,9999,9999,408849460
72,23,13,Improv_Metronome,132,9999,9999,9999,409349208
72,23,13,Improv_Metronome,133,9999,9999,9999,409848880
72,23,13,Improv_Metronome,134,9999,9999,9999,410349624
72,23,13,Improv_Metronome,135,9999,9999,9999,410849368
72,23,13,Improv_Metronome,136,9999,9999,9999,411349072
72,23,13,Improv_Metronome,137,9999,9999,9999,411848816
72,23,13,Improv_Metronome,138,9999,9999,9999,412349504
72,23,13,Improv_Metronome,139,9999,9999,9999,412849252
72,24,14,Improv_Melody,0,2,48,80,468676056
72,24,14,Improv_Melody,1,2,72,80,468678648
72,24,14,Improv_Melody,2,5,42,127,468680216
72,24,14,Improv_Melody,3,5,42,110,469172532
72,24,14,Improv_Melody,4,5,42,110,469672404
72,24,14,Improv_Melody,5,5,42,110,470173168
72,24,14,Improv_Melody,6,5,42,127,470672668
72,24,14,Improv_Melody,7,5,42,110,471172464
72,24,14,Improv_Melody,8,5,42,110,471672336
72,24,14,Improv_Melody,9,5,42,110,472173032
72,24,14,Improv_Melody,10,2,43,80,472675188
72,24,14,Improv_Melody,11,2,67,80,472677260
72,24,14,Improv_Melody,12,5,42,127,472679652
72,24,14,Improv_Melody,13,5,42,110,473172264
72,24,14,Improv_Melody,14,5,42,110,473673036
72,24,14,Improv_Melody,15,5,42,110,474172680
72,24,14,Improv_Melody,16,5,42,127,474672476
72,24,14,Improv_Melody,17,5,42,110,475172272
72,24,14,Improv_Melody,18,5,42,110,475672892
72,24,14,Improv_Melody,19,5,42,110,476172540
72,24,14,Improv_Melody,20,2,45,80,476674916
72,24,14,Improv_Melody,21,2,69,80,476676992
72,24,14,Improv_Melody,22,5,42,127,476679532
72,24,14,Improv_Melody,23,5,42,110,477173044
72,24,14,Improv_Melody,24,5,42,110,477672768
72,24,14,Improv_Melody,25,5,42,110,478172488
72,24,14,Improv_Melody,26,5,42,127,478672184
72,24,14,Improv_Melody,27,5,42,110,479173076
72,24,14,Improv_Melody,28,5,42,110,479672576
72,24,14,Improv_Melody,29,5,42,110,480172296
72,24,14,Improv_Melody,30,2,41,80,480675796
72,24,14,Improv_Melody,31,2,65,80,480677796
72,24,14,Improv_Melody,32,5,42,127,480680408
72,24,14,Improv_Melody,33,5,42,110,481172876
72,24,14,Improv_Melody,34,5,42,110,481672524
72,24,14,Improv_Melody,35,5,42,110,482172244
72,24,14,Improv_Melody,36,5,42,127,482672940
72,24,14,Improv_Melody,37,5,42,110,483172736
72,24,14,Improv_Melody,38,5,42,110,483672384
72,24,14,Improv_Melody,39,5,42,110,484172032
72,24,14,Improv_Melody,40,2,48,80,484675300
72,24,14,Improv_Melody,41,2,72,80,484677528
72,24,14,Improv_Melody,42,5,42,127,484680068
72,24,14,Improv_Melody,43,1,48,41,484734868
72,24,14,Improv_Melody,44,1,48,48,485012148
72,24,14,Improv_Melody,45,5,42,110,485172712
72,24,14,Improv_Melody,46,1,48,41,485573932
72,24,14,Improv_Melody,47,5,42,110,485672488
72,24,14,Improv_Melody,48,1,48,48,485865244
72,24,14,Improv_Melody,49,5,42,110,486173008
72,24,14,Improv_Melody,50,1,48,48,486419396
72,24,14,Improv_Melody,51,5,42,127,486673008
72,24,14,Improv_Melody,52,1,48,48,486793564
72,24,14,Improv_Melody,53,5,42,110,487172336
72,24,14,Improv_Melody,54,1,48,45,487297824
72,24,14,Improv_Melody,55,1,48,50,487560444
72,24,14,Improv_Melody,56,5,42,110,487672088
72,24,14,Improv_Melody,57,1,48,45,487798252
72,24,14,Improv_Melody,58,5,42,110,488172984
72,24,14,Improv_Melody,59,1,48,57,488277236
72,24,14,Improv_Melody,60,1,48,48,488488836
72,24,14,Improv_Melody,61,2,43,80,488675172
72,24,14,Improv_Melody,62,2,67,80,488677548
72,24,14,Improv_Melody,63,5,42,127,488680080
72,24,14,Improv_Melody,64,1,48,47,488706912
72,24,14,Improv_Melody,65,5,42,110,489172304
72,24,14,Improv_Melody,66,1,48,53,489213864
72,24,14,Improv_Melody,67,1,48,45,489450380
72,24,14,Improv_Melody,68,5,42,110,489673080
72,24,14,Improv_Melody,69,1,48,47,489694848
72,24,14,Improv_Melody,70,1,48,49,490169216
72,24,14,Improv_Melody,71,5,42,110,490172920
72,24,14,Improv_Melody,72,1,48,45,490430136
72,24,14,Improv_Melody,73,5,42,127,490672456
72,24,14,Improv_Melody,74,1,48,41,490684552
72,24,14,Improv_Melody,75,1,48,55,491100752
72,24,14,Improv_Melody,76,5,42,110,491172072
72,24,14,Improv_Melody,77,1,48,46,491401164
72,24,14,Improv_Melody,78,1,48,39,491643588
72,24,14,Improv_Melody,79,5,42,110,491672944
72,24,14,Improv_Melody,80,1,48,43,492110672
72,24,14,Improv_Melody,81,5,42,110,492172868
72,24,14,Improv_Melody,82,1,48,43,492381992
72,24,14,Improv_Melody,83,1,48,47,492647300
72,24,14,Improv_Melody,84,2,45,80,492674828
72,24,14,Improv_Melody,85,2,69,80,492676908
72,24,14,Improv_Melody,86,5,42,127,492679744
72,24,14,Improv_Melody,87,1,48,52,493118220
72,24,14,Improv_Melody,88,1,38,30,493153880
72,24,14,Improv_Melody,89,5,42,110,493172996
72,24,14,Improv_Melody,90,1,48,49,493400636
72,24,14,Improv_Melody,91,1,38,30,493472200
72,24,14,Improv_Melody,92,5,42,110,493672912
72,24,14,Improv_Melody,93,1,48,48,493707300
72,24,14,Improv_Melody,94,1,38,26,493736824
72,24,14,Improv_Melody,95,1,48,66,494170048
72,24,14,Improv_Melody,96,5,42,110,494172780
72,24,14,Improv_Melody,97,1,48,49,494421176
72,24,14,Improv_Melody,98,1,48,59,494629044
72,24,14,Improv_Melody,99,5,42,127,494672160
72,24,14,Improv_Melody,100,1,48,58,495101664
72,24,14,Improv_Melody,101,5,42,110,495172836
72,24,14,Improv_Melody,102,1,48,17,495208776
72,24,14,Improv_Melody,103,1,38,34,495318656
72,24,14,Improv_Melody,104,1,48,41,495533456
72,24,14,Improv_Melody,105,1,38,41,495652160
72,24,14,Improv_Melody,106,5,42,110,495672844
72,24,14,Improv_Melody,107,1,48,59,496018248
72,24,14,Improv_Melody,108,5,42,110,496172380
72,24,14,Improv_Melody,109,1,48,59,496339552
72,24,14,Improv_Melody,110,1,48,49,496567212
72,24,14,Improv_Melody,111,2,41,80,496675684
72,24,14,Improv_Melody,112,2,65,80,496677688
72,24,14,Improv_Melody,113,5,42,127,496680004
72,24,14,Improv_Melody,114,1,48,51,496788360
72,24,14,Improv_Melody,115,1,48,50,497098472
72,24,14,Improv_Melody,116,1,48,24,497166396
72,24,14,Improv_Melody,117,5,42,110,497172788
72,24,14,Improv_Melody,118,1,48,50,497630112
72,24,14,Improv_Melody,119,5,42,110,497672712
72,24,14,Improv_Melody,120,1,48,58,498110640
72,24,14,Improv_Melody,121,5,42,110,498172336
72,24,14,Improv_Melody,122,1,48,26,498186512
72,24,14,Improv_Melody,123,1,48,57,498652972
72,24,14,Improv_Melody,124,5,42,127,498673060
72,24,14,Improv_Melody,125,1,48,23,498742288
72,24,14,Improv_Melody,126,1,48,55,499146496
72,24,14,Improv_Melody,127,5,42,110,499172668
72,24,14,Improv_Melody,128,1,48,25,499231568
72,24,14,Improv_Melody,129,1,48,59,499603312
72,24,14,Improv_Melody,130,5,42,110,499672716
72,24,14,Improv_Melody,131,1,48,59,499870072
72,24,14,Improv_Melody,132,5,42,110,500172076
72,24,14,Improv_Melody,133,1,48,54,500194668
72,24,14,Improv_Melody,134,2,48,80,500675480
72,24,14,Improv_Melody,135,2,72,80,500677552
72,24,14,Improv_Melody,136,5,42,127,500680092
72,24,14,Improv_Melody,137,1,48,51,500690492
72,24,14,Improv_Melody,138,1,48,56,500989988
72,24,14,Improv_Melody,139,5,42,110,501172516
72,24,14,Improv_Melody,140,1,48,60,501272968
72,24,14,Improv_Melody,141,5,42,110,501672440
72,24,14,Improv_Melody,142,1,48,58,501770724
72,24,14,Improv_Melody,143,1,48,53,502050692
72,24,14,Improv_Melody,144,5,42,110,502173012
72,24,14,Improv_Melody,145,1,48,51,502330988
72,24,14,Improv_Melody,146,5,42,127,502672788
72,24,14,Improv_Melody,147,1,48,58,502868016
72,24,14,Improv_Melody,148,1,48,47,503109840
72,24,14,Improv_Melody,149,5,42,110,503172408
72,24,14,Improv_Melody,150,1,48,56,503395816
72,24,14,Improv_Melody,151,5,42,110,503672092
72,24,14,Improv_Melody,152,1,48,59,503892896
72,24,14,Improv_Melody,153,1,38,18,504016096
72,24,14,Improv_Melody,154,5,42,110,504172896
72,24,14,Improv_Melody,155,1,38,25,504379040
72,24,14,Improv_Melody,156,1,48,52,504390536
72,24,14,Improv_Melody,157,1,48,23,504454920
72,24,14,Improv_Melody,158,2,43,80,504675352
72,24,14,Improv_Melody,159,2,67,80,504677344
72,24,14,Improv_Melody,160,5,42,127,504679884
72,24,14,Improv_Melody,161,1,38,25,504865088
72,24,14,Improv_Melody,162,1,48,58,504906056
72,24,14,Improv_Melody,163,1,38,28,505156680
72,24,14,Improv_Melody,164,5,42,110,505172348
72,24,14,Improv_Melody,165,1,48,56,505184520
72,24,14,Improv_Melody,166,1,38,27,505398116
72,24,14,Improv_Melody,167,1,48,41,505409240
72,24,14,Improv_Melody,168,5,42,110,505673000
72,24,14,Improv_Melody,169,1,38,44,505887976
72,24,14,Improv_Melody,170,1,48,57,505916296
72,24,14,Improv_Melody,171,1,38,41,506162808
72,24,14,Improv_Melody,172,1,48,54,506169748
72,24,14,Improv_Melody,173,5,42,110,506172700
72,24,14,Improv_Melody,174,1,38,34,506400644
72,24,14,Improv_Melody,175,1,48,57,506437424
72,24,14,Improv_Melody,176,1,48,31,506495744
72,24,14,Improv_Melody,177,5,42,127,506672600
72,24,14,Improv_Melody,178,1,48,61,506921012
72,24,14,Improv_Melody,179,1,38,45,507047024
72,24,14,Improv_Melody,180,5,42,110,507172132
72,24,14,Improv_Melody,181,1,48,60,507279220
72,24,14,Improv_Melody,182,1,38,36,507478708
72,24,14,Improv_Melody,183,5,42,110,507672928
72,24,14,Improv_Melody,184,1,48,54,507747336
72,24,14,Improv_Melody,185,1,38,44,507942556
72,24,14,Improv_Melody,186,5,42,110,508172608
72,24,14,Improv_Melody,187,1,48,43,508231300
72,24,14,Improv_Melody,188,1,48,17,508335624
72,24,14,Improv_Melody,189,1,38,41,508464124
72,24,14,Improv_Melody,190,2,45,80,508674768
72,24,14,Improv_Melody,191,2,69,80,508677068
72,24,14,Improv_Melody,192,5,42,127,508679756
72,24,14,Improv_Melody,193,1,48,54,508900188
72,24,14,Improv_Melody,194,1,38,50,509070708
72,24,14,Improv_Melody,195,1,48,13,509082132
72,24,14,Improv_Melody,196,5,42,110,509173208
72,24,14,Improv_Melody,197,1,48,41,509498716
72,24,14,Improv_Melody,198,1,38,40,509581868
72,24,14,Improv_Melody,199,5,42,110,509672724
72,24,14,Improv_Melody,200,1,48,62,510074524
72,24,14,Improv_Melody,201,1,38,59,510114296
72,24,14,Improv_Melody,202,5,42,110,510172388
72,24,14,Improv_Melody,203,1,48,65,510550180
72,24,14,Improv_Melody,204,1,38,51,510628548
72,24,14,Improv_Melody,205,5,42,127,510672352
72,24,14,Improv_Melody,206,1,48,46,511074380
72,24,14,Improv_Melody,207,1,38,50,511134420
72,24,14,Improv_Melody,208,5,42,110,511172892
72,24,14,Improv_Melody,209,1,48,60,511553320
72,24,14,Improv_Melody,210,1,38,55,511626904
72,24,14,Improv_Melody,211,5,42,110,511672780
72,24,14,Improv_Melody,212,1,48,46,512083804
72,24,14,Improv_Melody,213,1,38,57,512162924
72,24,14,Improv_Melody,214,5,42,110,512172384
72,24,14,Improv_Melody,215,1,48,24,512180948
72,24,14,Improv_Melody,216,1,48,63,512633176
72,24,14,Improv_Melody,217,2,41,80,512675664
72,24,14,Improv_Melody,218,2,65,80,512677892
72,24,14,Improv_Melody,219,5,42,127,512680428
72,24,14,Improv_Melody,220,1,38,66,512707328
72,24,14,Improv_Melody,221,1,48,55,513148192
72,24,14,Improv_Melody,222,5,42,110,513172984
72,24,14,Improv_Melody,223,1,38,56,513211932
72,24,14,Improv_Melody,224,1,48,60,513650772
72,24,14,Improv_Melody,225,5,42,110,513672576
72,24,14,Improv_Melody,226,1,38,58,513712348
72,24,14,Improv_Melody,227,5,42,110,514172320
72,24,14,Improv_Melody,228,1,48,62,514184940
72,24,14,Improv_Melody,229,1,38,57,514222544
72,24,14,Improv_Melody,230,1,48,57,514657572
72,24,14,Improv_Melody,231,5,42,127,514673460
72,24,14,Improv_Melody,232,1,38,60,514702688
72,24,14,Improv_Melody,233,1,48,64,515147524
72,24,14,Improv_Melody,234,5,42,110,515172620
72,24,14,Improv_Melody,235,1,38,57,515225476
72,24,14,Improv_Melody,236,1,48,59,515653256
72,24,14,Improv_Melody,237,5,42,110,515672444
72,24,14,Improv_Melody,238,1,38,59,515740716
72,24,14,Improv_Melody,239,1,48,22,515745180
72,24,14,Improv_Melody,240,1,48,67,516141160
72,24,14,Improv_Melody,241,5,42,110,516172236
72,24,14,Improv_Melody,242,1,38,60,516221580
72,24,14,Improv_Melody,243,1,48,54,516617800
72,24,14,Improv_Melody,244,2,48,80,516675396
72,24,14,Improv_Melody,245,2,72,80,516677544
72,24,14,Improv_Melody,246,5,42,127,516680304
72,24,14,Improv_Melody,247,1,48,34,516694780
72,24,14,Improv_Melody,248,1,38,57,516737100
72,24,14,Improv_Melody,249,1,48,58,517159788
72,24,14,Improv_Melody,250,5,42,110,517172472
72,24,14,Improv_Melody,251,1,38,70,517247320
72,24,14,Improv_Melody,252,1,38,41,517284372
72,24,14,Improv_Melody,253,5,42,110,517672196
72,24,14,Improv_Melody,254,1,48,69,517686312
72,24,14,Improv_Melody,255,1,38,54,517776796
72,24,14,Improv_Melody,256,5,42,110,518173276
72,24,14,Improv_Melody,257,1,48,65,518198164
72,24,14,Improv_Melody,258,1,38,61,518259628
72,24,14,Improv_Melody,259,1,48,61,518661904
72,24,14,Improv_Melody,260,5,42,127,518672640
72,24,14,Improv_Melody,261,1,38,62,518744048
72,24,14,Improv_Melody,262,5,42,110,519172312
72,24,14,Improv_Melody,263,1,48,64,519183356
72,24,14,Improv_Melody,264,1,38,61,519248564
72,24,14,Improv_Melody,265,1,48,67,519671816
72,24,14,Improv_Melody,266,5,42,110,519673304
72,24,14,Improv_Melody,267,5,42,110,520173232
72,24,14,Improv_Melody,268,1,48,56,520242996
72,24,14,Improv_Melody,269,2,43,80,520675292
72,24,14,Improv_Melody,270,2,67,80,520677144
72,24,14,Improv_Melody,271,5,42,127,520679904
72,24,14,Improv_Melody,272,1,48,63,520717584
72,24,14,Improv_Melody,273,5,42,110,521172200
72,24,14,Improv_Melody,274,1,48,62,521211148
72,24,14,Improv_Melody,275,1,48,75,521662704
72,24,14,Improv_Melody,276,5,42,110,521673288
72,24,14,Improv_Melody,277,5,42,110,522172768
72,24,14,Improv_Melody,278,1,48,78,522185388
72,24,14,Improv_Melody,279,1,48,70,522661280
72,24,14,Improv_Melody,280,5,42,127,522672536
72,24,14,Improv_Melody,281,1,48,48,523106380
72,24,14,Improv_Melody,282,5,42,110,523172088
72,24,14,Improv_Melody,283,1,48,66,523564044
72,24,14,Improv_Melody,284,5,42,110,523672896
72,24,14,Improv_Melody,285,1,48,59,524058660
72,24,14,Improv_Melody,286,5,42,110,524172596
72,24,14,Improv_Melody,287,1,48,57,524490636
72,24,14,Improv_Melody,288,1,48,38,524547712
72,24,14,Improv_Melody,289,2,45,80,524674852
72,24,14,Improv_Melody,290,2,69,80,524677080
72,24,14,Improv_Melody,291,5,42,127,524679692
72,24,14,Improv_Melody,292,1,38,63,524997284
72,24,14,Improv_Melody,293,1,38,40,525037156
72,24,14,Improv_Melody,294,1,48,15,525054936
72,24,14,Improv_Melody,295,5,42,110,525173336
72,24,14,Improv_Melody,296,1,38,48,525411720
72,24,14,Improv_Melody,297,5,42,110,525672740
72,24,14,Improv_Melody,298,1,38,45,525885544
72,24,14,Improv_Melody,299,5,42,110,526172512
72,24,14,Improv_Melody,300,1,38,54,526370208
72,24,14,Improv_Melody,301,5,42,127,526672288
72,24,14,Improv_Melody,302,1,38,46,526813736
72,24,14,Improv_Melody,303,5,42,110,527173260
72,24,14,Improv_Melody,304,1,38,50,527249232
72,24,14,Improv_Melody,305,5,42,110,527672664
72,24,14,Improv_Melody,306,1,38,50,527722228
72,24,14,Improv_Melody,307,1,38,51,528121604
72,24,14,Improv_Melody,308,5,42,110,528172356
72,24,14,Improv_Melody,309,1,48,46,528196868
72,24,14,Improv_Melody,310,1,38,41,528644080
72,24,14,Improv_Melody,311,1,48,50,528647284
72,24,14,Improv_Melody,312,2,41,80,528675624
72,24,14,Improv_Melody,313,2,65,80,528677936
72,24,14,Improv_Melody,314,5,42,127,528680392
72,24,14,Improv_Melody,315,1,48,27,528726804
72,24,14,Improv_Melody,316,1,38,49,529101292
72,24,14,Improv_Melody,317,1,48,49,529130680
72,24,14,Improv_Melody,318,5,42,110,529172756
72,24,14,Improv_Melody,319,1,48,24,529198300
72,24,14,Improv_Melody,320,1,38,46,529605396
72,24,14,Improv_Melody,321,1,48,47,529644088
72,24,14,Improv_Melody,322,5,42,110,529672472
72,24,14,Improv_Melody,323,1,48,21,529715492
72,24,14,Improv_Melody,324,1,38,44,530072204
72,24,14,Improv_Melody,325,1,48,32,530142532
72,24,14,Improv_Melody,326,5,42,110,530172400
72,24,14,Improv_Melody,327,1,48,24,530198464
72,24,14,Improv_Melody,328,1,38,56,530545380
72,24,14,Improv_Melody,329,1,48,54,530593308
72,24,14,Improv_Melody,330,1,48,31,530657084
72,24,14,Improv_Melody,331,5,42,127,530673128
72,24,14,Improv_Melody,332,1,48,43,531060048
72,24,14,Improv_Melody,333,1,38,50,531067808
72,24,14,Improv_Melody,334,5,42,110,531172692
72,24,14,Improv_Melody,335,1,38,59,531546460
72,24,14,Improv_Melody,336,1,38,41,531579500
72,24,14,Improv_Melody,337,1,48,48,531584416
72,24,14,Improv_Melody,338,5,42,110,531672292
72,24,14,Improv_Melody,339,1,38,48,532038472
72,24,14,Improv_Melody,340,1,48,47,532064560
72,24,14,Improv_Melody,341,1,48,30,532117868
72,24,14,Improv_Melody,342,5,42,110,532172120
72,24,14,Improv_Melody,343,1,38,54,532530036
72,24,14,Improv_Melody,344,1,48,57,532539520
72,24,14,Improv_Melody,345,1,38,39,532567992
72,24,14,Improv_Melody,346,1,48,21,532615988
72,24,14,Improv_Melody,347,2,48,80,532675516
72,24,14,Improv_Melody,348,2,72,80,532677748
72,24,14,Improv_Melody,349,5,42,127,532680280
72,24,14,Improv_Melody,350,1,48,53,532946796
72,24,14,Improv_Melody,351,1,38,59,533008036
72,24,14,Improv_Melody,352,5,42,110,533172588
72,24,14,Improv_Melody,353,1,48,48,533397056
72,24,14,Improv_Melody,354,1,38,59,533496112
72,24,14,Improv_Melody,355,5,42,110,533672252
72,24,14,Improv_Melody,356,1,48,51,533921856
72,24,14,Improv_Melody,357,1,38,55,533965068
72,24,14,Improv_Melody,358,5,42,110,534173076
72,24,14,Improv_Melody,359,1,48,53,534395304
72,24,14,Improv_Melody,360,1,38,51,534475764
72,24,14,Improv_Melody,361,5,42,127,534672876
72,24,14,Improv_Melody,362,1,48,46,534854188
72,24,14,Improv_Melody,363,1,38,55,534930164
72,24,14,Improv_Melody,364,5,42,110,535172392
72,24,14,Improv_Melody,365,1,48,47,535393120
72,24,14,Improv_Melody,366,1,38,62,535453764
72,24,14,Improv_Melody,367,5,42,110,535672132
72,24,14,Improv_Melody,368,1,48,49,535876036
72,24,14,Improv_Melody,369,1,38,53,535974000
72,24,14,Improv_Melody,370,5,42,110,536173008
72,24,14,Improv_Melody,371,1,48,55,536399348
72,24,14,Improv_Melody,372,1,38,61,536424160
72,24,14,Improv_Melody,373,2,43,80,536675316
72,24,14,Improv_Melody,374,2,67,80,536677548
72,24,14,Improv_Melody,375,5,42,127,536680004
72,24,14,Improv_Melody,376,1,48,52,536908140
72,24,14,Improv_Melody,377,1,38,52,536976712
72,24,14,Improv_Melody,378,5,42,110,537172412
72,24,14,Improv_Melody,379,1,48,54,537409004
72,24,14,Improv_Melody,380,1,38,58,537497096
72,24,14,Improv_Melody,381,5,42,110,537673052
72,24,14,Improv_Melody,382,1,48,52,537935076
72,24,14,Improv_Melody,383,1,38,66,538047244
72,24,14,Improv_Melody,384,1,38,47,538072680
72,24,14,Improv_Melody,385,5,42,110,538172932
72,24,14,Improv_Melody,386,1,48,59,538468160
72,24,14,Improv_Melody,387,1,38,64,538551320
72,24,14,Improv_Melody,388,5,42,127,538672376
72,24,14,Improv_Melody,389,1,48,58,538965732
72,24,14,Improv_Melody,390,1,48,34,539009468
72,24,14,Improv_Melody,391,1,38,68,539027396
72,24,14,Improv_Melody,392,5,42,110,539172152
72,24,14,Improv_Melody,393,1,48,59,539387572
72,24,14,Improv_Melody,394,1,48,38,539424724
72,24,14,Improv_Melody,395,1,38,70,539501296
72,24,14,Improv_Melody,396,5,42,110,539672920
72,24,14,Improv_Melody,397,1,48,58,539853408
72,24,14,Improv_Melody,398,1,38,65,540006796
72,24,14,Improv_Melody,399,5,42,110,540172744
72,24,14,Improv_Melody,400,1,48,59,540354404
72,24,14,Improv_Melody,401,1,48,39,540390760
72,24,14,Improv_Melody,402,1,38,68,540471000
72,24,14,Improv_Melody,403,2,45,80,540674956
72,24,14,Improv_Melody,404,2,69,80,540677032
72,24,14,Improv_Melody,405,5,42,127,540679644
72,24,14,Improv_Melody,406,1,48,54,540816804
72,24,14,Improv_Melody,407,1,48,32,540865624
72,24,14,Improv_Melody,408,1,38,65,540987772
72,24,14,Improv_Melody,409,5,42,110,541173168
72,24,14,Improv_Melody,410,1,48,54,541231856
72,24,14,Improv_Melody,411,1,38,46,541576080
72,24,14,Improv_Melody,412,5,42,110,541672932
72,24,14,Improv_Melody,413,1,48,71,541720620
72,24,14,Improv_Melody,414,1,38,66,542131104
72,24,14,Improv_Melody,415,1,38,48,542155996
72,24,14,Improv_Melody,416,5,42,110,542172588
72,24,14,Improv_Melody,417,1,48,77,542265528
72,24,14,Improv_Melody,418,1,48,48,542296468
72,24,14,Improv_Melody,419,1,38,68,542627600
72,24,14,Improv_Melody,420,5,42,127,542672096
72,24,14,Improv_Melody,421,1,48,78,542777144
72,24,14,Improv_Melody,422,1,48,43,542811308
72,24,14,Improv_Melody,423,1,38,78,543123592
72,24,14,Improv_Melody,424,1,38,50,543152220
72,24,14,Improv_Melody,425,5,42,110,543172976
72,24,14,Improv_Melody,426,1,48,70,543312016
72,24,14,Improv_Melody,427,1,48,35,543354932
72,24,14,Improv_Melody,428,1,38,67,543578500
72,24,14,Improv_Melody,429,5,42,110,543672768
72,24,14,Improv_Melody,430,1,48,65,543773520
72,24,14,Improv_Melody,431,1,48,37,543814716
72,24,14,Improv_Melody,432,1,38,68,544150332
72,24,14,Improv_Melody,433,5,42,110,544172364
72,24,14,Improv_Melody,434,1,38,46,544179212
72,24,14,Improv_Melody,435,1,48,53,544298512
72,24,14,Improv_Melody,436,1,38,69,544655748
72,24,14,Improv_Melody,437,2,41,80,544675420
72,24,14,Improv_Melody,438,2,65,80,544677576
72,24,14,Improv_Melody,439,5,42,127,544680188
72,24,14,Improv_Melody,440,1,38,44,544688900
72,24,14,Improv_Melody,441,1,48,56,544786812
72,24,14,Improv_Melody,442,5,42,110,545172964
72,24,14,Improv_Melody,443,1,38,63,545189696
72,24,14,Improv_Melody,444,1,48,51,545229212
72,24,14,Improv_Melody,445,5,42,110,545672484
72,24,14,Improv_Melody,446,1,48,57,545709116
72,24,14,Improv_Melody,447,1,38,73,545765752
72,24,14,Improv_Melody,448,1,38,46,545796996
72,24,14,Improv_Melody,449,1,48,68,546129672
72,24,14,Improv_Melody,450,1,48,40,546169668
72,24,14,Improv_Melody,451,5,42,110,546172248
72,24,14,Improv_Melody,452,1,38,79,546308968
72,24,14,Improv_Melody,453,1,38,48,546342828
72,24,14,Improv_Melody,454,5,42,127,546673036
72,24,14,Improv_Melody,455,1,48,63,546706748
72,24,14,Improv_Melody,456,1,48,36,546752728
72,24,14,Improv_Melody,457,1,38,83,546864180
72,24,14,Improv_Melody,458,1,38,59,546891676
72,24,14,Improv_Melody,459,5,42,110,547172668
72,24,14,Improv_Melody,460,1,48,66,547262628
72,24,14,Improv_Melody,461,1,48,38,547313416
72,24,14,Improv_Melody,462,1,38,71,547423276
72,24,14,Improv_Melody,463,5,42,110,547672324
72,24,14,Improv_Melody,464,1,48,68,547838528
72,24,14,Improv_Melody,465,1,48,40,547880168
72,24,14,Improv_Melody,466,5,42,110,548172004
72,24,14,Improv_Melody,467,1,38,79,548286796
72,24,14,Improv_Melody,468,2,48,80,548675252
72,24,14,Improv_Melody,469,2,72,80,548677404
72,24,14,Improv_Melody,470,5,42,127,548679944
72,24,14,Improv_Melody,471,1,48,65,548706172
72,24,14,Improv_Melody,472,1,48,42,548738692
72,24,14,Improv_Melody,473,1,48,60,549085556
72,24,14,Improv_Melody,474,5,42,110,549172584
72,24,14,Improv_Melody,475,1,48,64,549465552
72,24,14,Improv_Melody,0,9999,9999,9999,468670556
72,24,14,Improv_Melody,1,9999,9999,9999,469170240
72,24,14,Improv_Melody,2,9999,9999,9999,469669964
72,24,14,Improv_Melody,3,9999,9999,9999,470170728
72,24,14,Improv_Melody,4,9999,9999,9999,470670452
72,24,14,Improv_Melody,5,9999,9999,9999,471170100
72,24,14,Improv_Melody,6,9999,9999,9999,471669820
72,24,14,Improv_Melody,7,9999,9999,9999,472170588
72,24,14,Improv_Melody,8,9999,9999,9999,472670312
72,24,14,Improv_Melody,9,9999,9999,9999,473169972
72,24,14,Improv_Melody,10,9999,9999,9999,473670740
72,24,14,Improv_Melody,11,9999,9999,9999,474170460
72,24,14,Improv_Melody,12,9999,9999,9999,474670184
72,24,14,Improv_Melody,13,9999,9999,9999,475169908
72,24,14,Improv_Melody,14,9999,9999,9999,475670600
72,24,14,Improv_Melody,15,9999,9999,9999,476170320
72,24,14,Improv_Melody,16,9999,9999,9999,476670044
72,24,14,Improv_Melody,17,9999,9999,9999,477170752
72,24,14,Improv_Melody,18,9999,9999,9999,477670472
72,24,14,Improv_Melody,19,9999,9999,9999,478170196
72,24,14,Improv_Melody,20,9999,9999,9999,478669892
72,24,14,Improv_Melody,21,9999,9999,9999,479170636
72,24,14,Improv_Melody,22,9999,9999,9999,479670360
72,24,14,Improv_Melody,23,9999,9999,9999,480170080
72,24,14,Improv_Melody,24,9999,9999,9999,480670776
72,24,14,Improv_Melody,25,9999,9999,9999,481170508
72,24,14,Improv_Melody,26,9999,9999,9999,481670232
72,24,14,Improv_Melody,27,9999,9999,9999,482169952
72,24,14,Improv_Melody,28,9999,9999,9999,482670648
72,24,14,Improv_Melody,29,9999,9999,9999,483170368
72,24,14,Improv_Melody,30,9999,9999,9999,483670092
72,24,14,Improv_Melody,31,9999,9999,9999,484169812
72,24,14,Improv_Melody,32,9999,9999,9999,484670580
72,24,14,Improv_Melody,33,9999,9999,9999,485170272
72,24,14,Improv_Melody,34,9999,9999,9999,485669988
72,24,14,Improv_Melody,35,9999,9999,9999,486170716
72,24,14,Improv_Melody,36,9999,9999,9999,486670420
72,24,14,Improv_Melody,37,9999,9999,9999,487170120
72,24,14,Improv_Melody,38,9999,9999,9999,487669872
72,24,14,Improv_Melody,39,9999,9999,9999,488170544
72,24,14,Improv_Melody,40,9999,9999,9999,488670296
72,24,14,Improv_Melody,41,9999,9999,9999,489170008
72,24,14,Improv_Melody,42,9999,9999,9999,489670712
72,24,14,Improv_Melody,43,9999,9999,9999,490170480
72,24,14,Improv_Melody,44,9999,9999,9999,490670164
72,24,14,Improv_Melody,45,9999,9999,9999,491169856
72,24,14,Improv_Melody,46,9999,9999,9999,491670580
72,24,14,Improv_Melody,47,9999,9999,9999,492170356
72,24,14,Improv_Melody,48,9999,9999,9999,492670036
72,24,14,Improv_Melody,49,9999,9999,9999,493170776
72,24,14,Improv_Melody,50,9999,9999,9999,493670472
72,24,14,Improv_Melody,51,9999,9999,9999,494170192
72,24,14,Improv_Melody,52,9999,9999,9999,494669944
72,24,14,Improv_Melody,53,9999,9999,9999,495170620
72,24,14,Improv_Melody,54,9999,9999,9999,495670328
72,24,14,Improv_Melody,55,9999,9999,9999,496170088
72,24,14,Improv_Melody,56,9999,9999,9999,496670812
72,24,14,Improv_Melody,57,9999,9999,9999,497170496
72,24,14,Improv_Melody,58,9999,9999,9999,497670196
72,24,14,Improv_Melody,59,9999,9999,9999,498169968
72,24,14,Improv_Melody,60,9999,9999,9999,498670696
72,24,14,Improv_Melody,61,9999,9999,9999,499170376
72,24,14,Improv_Melody,62,9999,9999,9999,499670124
72,24,14,Improv_Melody,63,9999,9999,9999,500169784
72,24,14,Improv_Melody,64,9999,9999,9999,500670532
72,24,14,Improv_Melody,65,9999,9999,9999,501170296
72,24,14,Improv_Melody,66,9999,9999,9999,501669996
72,24,14,Improv_Melody,67,9999,9999,9999,502170720
72,24,14,Improv_Melody,68,9999,9999,9999,502670420
72,24,14,Improv_Melody,69,9999,9999,9999,503170116
72,24,14,Improv_Melody,70,9999,9999,9999,503669876
72,24,14,Improv_Melody,71,9999,9999,9999,504170604
72,24,14,Improv_Melody,72,9999,9999,9999,504670324
72,24,14,Improv_Melody,73,9999,9999,9999,505169984
72,24,14,Improv_Melody,74,9999,9999,9999,505670708
72,24,14,Improv_Melody,75,9999,9999,9999,506170484
72,24,14,Improv_Melody,76,9999,9999,9999,506670160
72,24,14,Improv_Melody,77,9999,9999,9999,507169840
72,24,14,Improv_Melody,78,9999,9999,9999,507670640
72,24,14,Improv_Melody,79,9999,9999,9999,508170316
72,24,14,Improv_Melody,80,9999,9999,9999,508670048
72,24,14,Improv_Melody,81,9999,9999,9999,509170768
72,24,14,Improv_Melody,82,9999,9999,9999,509670504
72,24,14,Improv_Melody,83,9999,9999,9999,510170172
72,24,14,Improv_Melody,84,9999,9999,9999,510669884
72,24,14,Improv_Melody,85,9999,9999,9999,511170676
72,24,14,Improv_Melody,86,9999,9999,9999,511670340
72,24,14,Improv_Melody,87,9999,9999,9999,512170096
72,24,14,Improv_Melody,88,9999,9999,9999,512670792
72,24,14,Improv_Melody,89,9999,9999,9999,513170544
72,24,14,Improv_Melody,90,9999,9999,9999,513670208
72,24,14,Improv_Melody,91,9999,9999,9999,514169956
72,24,14,Improv_Melody,92,9999,9999,9999,514670648
72,24,14,Improv_Melody,93,9999,9999,9999,515170400
72,24,14,Improv_Melody,94,9999,9999,9999,515670080
72,24,14,Improv_Melody,95,9999,9999,9999,516169796
72,24,14,Improv_Melody,96,9999,9999,9999,516670524
72,24,14,Improv_Melody,97,9999,9999,9999,517170252
72,24,14,Improv_Melody,98,9999,9999,9999,517669976
72,24,14,Improv_Melody,99,9999,9999,9999,518170688
72,24,14,Improv_Melody,100,9999,9999,9999,518670424
72,24,14,Improv_Melody,101,9999,9999,9999,519170096
72,24,14,Improv_Melody,102,9999,9999,9999,519669824
72,24,14,Improv_Melody,103,9999,9999,9999,520170568
72,24,14,Improv_Melody,104,9999,9999,9999,520670272
72,24,14,Improv_Melody,105,9999,9999,9999,521169984
72,24,14,Improv_Melody,106,9999,9999,9999,521670772
72,24,14,Improv_Melody,107,9999,9999,9999,522170480
72,24,14,Improv_Melody,108,9999,9999,9999,522670172
72,24,14,Improv_Melody,109,9999,9999,9999,523169872
72,24,14,Improv_Melody,110,9999,9999,9999,523670604
72,24,14,Improv_Melody,111,9999,9999,9999,524170304
72,24,14,Improv_Melody,112,9999,9999,9999,524670056
72,24,14,Improv_Melody,113,9999,9999,9999,525170748
72,24,14,Improv_Melody,114,9999,9999,9999,525670448
72,24,14,Improv_Melody,115,9999,9999,9999,526170220
72,24,14,Improv_Melody,116,9999,9999,9999,526669924
72,24,14,Improv_Melody,117,9999,9999,9999,527170672
72,24,14,Improv_Melody,118,9999,9999,9999,527670372
72,24,14,Improv_Melody,119,9999,9999,9999,528170064
72,24,14,Improv_Melody,120,9999,9999,9999,528670832
72,24,14,Improv_Melody,121,9999,9999,9999,529170536
72,24,14,Improv_Melody,122,9999,9999,9999,529670256
72,24,14,Improv_Melody,123,9999,9999,9999,530169960
72,24,14,Improv_Melody,124,9999,9999,9999,530670688
72,24,14,Improv_Melody,125,9999,9999,9999,531170404
72,24,14,Improv_Melody,126,9999,9999,9999,531670076
72,24,14,Improv_Melody,127,9999,9999,9999,532169828
72,24,14,Improv_Melody,128,9999,9999,9999,532670568
72,24,14,Improv_Melody,129,9999,9999,9999,533170296
72,24,14,Improv_Melody,130,9999,9999,9999,533669960
72,24,14,Improv_Melody,131,9999,9999,9999,534170708
72,24,14,Improv_Melody,132,9999,9999,9999,534670436
72,24,14,Improv_Melody,133,9999,9999,9999,535170100
72,24,14,Improv_Melody,134,9999,9999,9999,535669840
72,24,14,Improv_Melody,135,9999,9999,9999,536170568
72,24,14,Improv_Melody,136,9999,9999,9999,536670296
72,24,14,Improv_Melody,137,9999,9999,9999,537169972
72,24,14,Improv_Melody,138,9999,9999,9999,537670760
72,24,14,Improv_Melody,139,9999,9999,9999,538170416
72,24,14,Improv_Melody,140,9999,9999,9999,538670156
72,24,14,Improv_Melody,141,9999,9999,9999,539169860
72,24,14,Improv_Melody,142,9999,9999,9999,539670628
72,24,14,Improv_Melody,143,9999,9999,9999,540170304
72,24,14,Improv_Melody,144,9999,9999,9999,540670012
72,24,14,Improv_Melody,145,9999,9999,9999,541170800
72,24,14,Improv_Melody,146,9999,9999,9999,541670492
72,24,14,Improv_Melody,147,9999,9999,9999,542170220
72,24,14,Improv_Melody,148,9999,9999,9999,542669876
72,24,14,Improv_Melody,149,9999,9999,9999,543170608
72,24,14,Improv_Melody,150,9999,9999,9999,543670328
72,24,14,Improv_Melody,151,9999,9999,9999,544170072
72,24,14,Improv_Melody,152,9999,9999,9999,544670776
72,24,14,Improv_Melody,153,9999,9999,9999,545170524
72,24,14,Improv_Melody,154,9999,9999,9999,545670192
72,24,14,Improv_Melody,155,9999,9999,9999,546169960
72,24,14,Improv_Melody,156,9999,9999,9999,546670668
72,24,14,Improv_Melody,157,9999,9999,9999,547170376
72,24,14,Improv_Melody,158,9999,9999,9999,547670108
72,24,14,Improv_Melody,159,9999,9999,9999,548169784
72,24,14,Improv_Melody,160,9999,9999,9999,548670532
72,24,14,Improv_Melody,161,9999,9999,9999,549170292
