pid,taskRunCount,taskID,taskName,i,channel,pitch,velocity,microseconds
75,1,0,Ticks_Pract_8,0,5,42,127,375879048
75,1,0,Ticks_Pract_8,1,5,42,127,376678876
75,1,0,Ticks_Pract_8,2,5,42,127,377478632
75,1,0,Ticks_Pract_8,3,5,42,127,378279208
75,1,0,Ticks_Pract_8,4,1,48,97,379074360
75,1,0,Ticks_Pract_8,5,5,42,127,379079108
75,1,0,Ticks_Pract_8,6,1,48,106,379835272
75,1,0,Ticks_Pract_8,7,5,42,127,379878940
75,1,0,Ticks_Pract_8,8,1,48,81,380633760
75,1,0,Ticks_Pract_8,9,5,42,127,380678452
75,1,0,Ticks_Pract_8,10,1,48,76,381450848
75,1,0,Ticks_Pract_8,11,5,42,127,381479160
75,1,0,Ticks_Pract_8,12,1,48,89,382256420
75,1,0,Ticks_Pract_8,13,5,42,127,382278968
75,1,0,Ticks_Pract_8,14,1,48,92,383064308
75,1,0,Ticks_Pract_8,15,5,42,127,383078852
75,1,0,Ticks_Pract_8,16,1,48,82,383856860
75,1,0,Ticks_Pract_8,17,5,42,127,383878360
75,1,0,Ticks_Pract_8,18,1,48,89,384674844
75,1,0,Ticks_Pract_8,19,5,42,127,384679216
75,1,0,Ticks_Pract_8,20,5,42,127,385478956
75,1,0,Ticks_Pract_8,21,1,48,86,385485684
75,1,0,Ticks_Pract_8,22,1,48,92,386265356
75,1,0,Ticks_Pract_8,23,5,42,127,386278928
75,1,0,Ticks_Pract_8,24,1,48,89,387029784
75,1,0,Ticks_Pract_8,25,5,42,127,387078516
75,1,0,Ticks_Pract_8,26,1,48,95,387874848
75,1,0,Ticks_Pract_8,27,5,42,127,387879296
75,1,0,Ticks_Pract_8,28,1,48,84,388660448
75,1,0,Ticks_Pract_8,29,5,42,127,388678956
75,1,0,Ticks_Pract_8,30,1,48,86,389447240
75,1,0,Ticks_Pract_8,31,5,42,127,389478912
75,1,0,Ticks_Pract_8,32,1,48,92,390255568
75,1,0,Ticks_Pract_8,33,5,42,127,390278944
75,1,0,Ticks_Pract_8,34,1,48,87,391072584
75,1,0,Ticks_Pract_8,35,5,42,127,391079204
75,1,0,Ticks_Pract_8,36,1,48,86,391865436
75,1,0,Ticks_Pract_8,37,5,42,127,391879084
75,1,0,Ticks_Pract_8,38,1,48,92,392666248
75,1,0,Ticks_Pract_8,39,5,42,127,392678844
75,1,0,Ticks_Pract_8,40,1,48,86,393457600
75,1,0,Ticks_Pract_8,41,5,42,127,393478728
75,1,0,Ticks_Pract_8,42,5,42,127,394279364
75,1,0,Ticks_Pract_8,43,1,48,84,394292656
75,1,0,Ticks_Pract_8,44,5,42,127,395078952
75,1,0,Ticks_Pract_8,45,1,48,78,395089176
75,1,0,Ticks_Pract_8,46,5,42,127,395878684
75,1,0,Ticks_Pract_8,47,1,48,76,395890324
75,1,0,Ticks_Pract_8,48,5,42,127,396678860
75,1,0,Ticks_Pract_8,49,1,48,82,396681312
75,1,0,Ticks_Pract_8,50,5,42,127,397479272
75,1,0,Ticks_Pract_8,51,1,48,79,397482836
75,1,0,Ticks_Pract_8,52,5,42,127,398279004
75,1,0,Ticks_Pract_8,53,1,48,73,398283868
75,1,0,Ticks_Pract_8,54,1,48,84,399066752
75,1,0,Ticks_Pract_8,55,5,42,127,399078828
75,1,0,Ticks_Pract_8,56,1,48,79,399845164
75,1,0,Ticks_Pract_8,0,9999,9999,9999,375876684
75,1,0,Ticks_Pract_8,1,9999,9999,9999,376676440
75,1,0,Ticks_Pract_8,2,9999,9999,9999,377476196
75,1,0,Ticks_Pract_8,3,9999,9999,9999,378276920
75,1,0,Ticks_Pract_8,4,9999,9999,9999,379076672
75,1,0,Ticks_Pract_8,5,9999,9999,9999,379876428
75,1,0,Ticks_Pract_8,6,9999,9999,9999,380676164
75,1,0,Ticks_Pract_8,7,9999,9999,9999,381476944
75,1,0,Ticks_Pract_8,8,9999,9999,9999,382276680
75,1,0,Ticks_Pract_8,9,9999,9999,9999,383076416
75,1,0,Ticks_Pract_8,10,9999,9999,9999,383876148
75,1,0,Ticks_Pract_8,11,9999,9999,9999,384676928
75,1,0,Ticks_Pract_8,12,9999,9999,9999,385476668
75,1,0,Ticks_Pract_8,13,9999,9999,9999,386276420
75,1,0,Ticks_Pract_8,14,9999,9999,9999,387076152
75,1,0,Ticks_Pract_8,15,9999,9999,9999,387876932
75,1,0,Ticks_Pract_8,16,9999,9999,9999,388676668
75,1,0,Ticks_Pract_8,17,9999,9999,9999,389476400
75,1,0,Ticks_Pract_8,18,9999,9999,9999,390276208
75,1,0,Ticks_Pract_8,19,9999,9999,9999,391076916
75,1,0,Ticks_Pract_8,20,9999,9999,9999,391876720
75,1,0,Ticks_Pract_8,21,9999,9999,9999,392676408
75,1,0,Ticks_Pract_8,22,9999,9999,9999,393476216
75,1,0,Ticks_Pract_8,23,9999,9999,9999,394276928
75,1,0,Ticks_Pract_8,24,9999,9999,9999,395076660
75,1,0,Ticks_Pract_8,25,9999,9999,9999,395876468
75,1,0,Ticks_Pract_8,26,9999,9999,9999,396676200
75,1,0,Ticks_Pract_8,27,9999,9999,9999,397476984
75,1,0,Ticks_Pract_8,28,9999,9999,9999,398276716
75,1,0,Ticks_Pract_8,29,9999,9999,9999,399076468
75,2,1,Ticks_Pract_5,0,5,42,127,418799176
75,2,1,Ticks_Pract_5,1,5,42,127,419298820
75,2,1,Ticks_Pract_5,2,5,42,127,419799360
75,2,1,Ticks_Pract_5,3,5,42,127,420299300
75,2,1,Ticks_Pract_5,4,1,48,95,420796252
75,2,1,Ticks_Pract_5,5,5,42,127,420798760
75,2,1,Ticks_Pract_5,6,1,48,109,421258552
75,2,1,Ticks_Pract_5,7,5,42,127,421298604
75,2,1,Ticks_Pract_5,8,1,48,101,421740220
75,2,1,Ticks_Pract_5,9,5,42,127,421799272
75,2,1,Ticks_Pract_5,10,1,48,81,422272304
75,2,1,Ticks_Pract_5,11,5,42,127,422299188
75,2,1,Ticks_Pract_5,12,1,48,86,422778132
75,2,1,Ticks_Pract_5,13,5,42,127,422798584
75,2,1,Ticks_Pract_5,14,1,48,79,423280440
75,2,1,Ticks_Pract_5,15,5,42,127,423298504
75,2,1,Ticks_Pract_5,16,1,48,86,423776772
75,2,1,Ticks_Pract_5,17,5,42,127,423799244
75,2,1,Ticks_Pract_5,18,1,48,90,424293444
75,2,1,Ticks_Pract_5,19,5,42,127,424299088
75,2,1,Ticks_Pract_5,20,1,48,88,424795080
75,2,1,Ticks_Pract_5,21,5,42,127,424798632
75,2,1,Ticks_Pract_5,22,1,48,85,425279816
75,2,1,Ticks_Pract_5,23,5,42,127,425299296
75,2,1,Ticks_Pract_5,24,1,48,77,425768968
75,2,1,Ticks_Pract_5,25,5,42,127,425799216
75,2,1,Ticks_Pract_5,26,1,48,83,426282944
75,2,1,Ticks_Pract_5,27,5,42,127,426298764
75,2,1,Ticks_Pract_5,28,1,48,89,426779348
75,2,1,Ticks_Pract_5,29,5,42,127,426798384
75,2,1,Ticks_Pract_5,30,1,48,78,427263484
75,2,1,Ticks_Pract_5,31,5,42,127,427299348
75,2,1,Ticks_Pract_5,32,1,48,81,427784200
75,2,1,Ticks_Pract_5,33,5,42,127,427799040
75,2,1,Ticks_Pract_5,34,1,48,77,428293764
75,2,1,Ticks_Pract_5,35,5,42,127,428298812
75,2,1,Ticks_Pract_5,36,1,48,75,428789348
75,2,1,Ticks_Pract_5,37,5,42,127,428799332
75,2,1,Ticks_Pract_5,38,1,48,86,429274384
75,2,1,Ticks_Pract_5,39,5,42,127,429298952
75,2,1,Ticks_Pract_5,40,1,48,80,429770488
75,2,1,Ticks_Pract_5,41,5,42,127,429798868
75,2,1,Ticks_Pract_5,42,1,48,82,430258860
75,2,1,Ticks_Pract_5,43,5,42,127,430298416
75,2,1,Ticks_Pract_5,44,1,48,73,430773812
75,2,1,Ticks_Pract_5,45,5,42,127,430799304
75,2,1,Ticks_Pract_5,46,1,48,69,431280088
75,2,1,Ticks_Pract_5,47,5,42,127,431298976
75,2,1,Ticks_Pract_5,48,1,48,73,431790332
75,2,1,Ticks_Pract_5,49,5,42,127,431798520
75,2,1,Ticks_Pract_5,50,1,48,84,432287336
75,2,1,Ticks_Pract_5,51,5,42,127,432299336
75,2,1,Ticks_Pract_5,52,1,48,85,432784332
75,2,1,Ticks_Pract_5,53,5,42,127,432799032
75,2,1,Ticks_Pract_5,54,1,48,81,433285820
75,2,1,Ticks_Pract_5,55,5,42,127,433298800
75,2,1,Ticks_Pract_5,56,1,48,87,433778560
75,2,1,Ticks_Pract_5,57,5,42,127,433798492
75,2,1,Ticks_Pract_5,58,1,48,87,434274212
75,2,1,Ticks_Pract_5,59,5,42,127,434299308
75,2,1,Ticks_Pract_5,60,1,48,79,434780044
75,2,1,Ticks_Pract_5,61,5,42,127,434798856
75,2,1,Ticks_Pract_5,62,1,48,80,435274056
75,2,1,Ticks_Pract_5,63,5,42,127,435298624
75,2,1,Ticks_Pract_5,64,1,48,79,435779884
75,2,1,Ticks_Pract_5,65,5,42,127,435799440
75,2,1,Ticks_Pract_5,66,1,48,74,436266932
75,2,1,Ticks_Pract_5,67,5,42,127,436299208
75,2,1,Ticks_Pract_5,68,1,48,77,436786456
75,2,1,Ticks_Pract_5,69,5,42,127,436798904
75,2,1,Ticks_Pract_5,70,1,48,76,437290636
75,2,1,Ticks_Pract_5,71,5,42,127,437298524
75,2,1,Ticks_Pract_5,72,1,48,87,437792276
75,2,1,Ticks_Pract_5,73,5,42,127,437799340
75,2,1,Ticks_Pract_5,74,1,48,82,438292116
75,2,1,Ticks_Pract_5,75,5,42,127,438298888
75,2,1,Ticks_Pract_5,76,1,48,77,438775132
75,2,1,Ticks_Pract_5,0,9999,9999,9999,418796668
75,2,1,Ticks_Pract_5,1,9999,9999,9999,419296308
75,2,1,Ticks_Pract_5,2,9999,9999,9999,419797072
75,2,1,Ticks_Pract_5,3,9999,9999,9999,420296764
75,2,1,Ticks_Pract_5,4,9999,9999,9999,420796476
75,2,1,Ticks_Pract_5,5,9999,9999,9999,421296244
75,2,1,Ticks_Pract_5,6,9999,9999,9999,421796984
75,2,1,Ticks_Pract_5,7,9999,9999,9999,422296680
75,2,1,Ticks_Pract_5,8,9999,9999,9999,422796372
75,2,1,Ticks_Pract_5,9,9999,9999,9999,423296068
75,2,1,Ticks_Pract_5,10,9999,9999,9999,423796808
75,2,1,Ticks_Pract_5,11,9999,9999,9999,424296504
75,2,1,Ticks_Pract_5,12,9999,9999,9999,424796272
75,2,1,Ticks_Pract_5,13,9999,9999,9999,425297012
75,2,1,Ticks_Pract_5,14,9999,9999,9999,425796708
75,2,1,Ticks_Pract_5,15,9999,9999,9999,426296404
75,2,1,Ticks_Pract_5,16,9999,9999,9999,426796096
75,2,1,Ticks_Pract_5,17,9999,9999,9999,427296836
75,2,1,Ticks_Pract_5,18,9999,9999,9999,427796532
75,2,1,Ticks_Pract_5,19,9999,9999,9999,428296304
75,2,1,Ticks_Pract_5,20,9999,9999,9999,428797044
75,2,1,Ticks_Pract_5,21,9999,9999,9999,429296740
75,2,1,Ticks_Pract_5,22,9999,9999,9999,429796436
75,2,1,Ticks_Pract_5,23,9999,9999,9999,430296132
75,2,1,Ticks_Pract_5,24,9999,9999,9999,430796872
75,2,1,Ticks_Pract_5,25,9999,9999,9999,431296616
75,2,1,Ticks_Pract_5,26,9999,9999,9999,431796308
75,2,1,Ticks_Pract_5,27,9999,9999,9999,432297048
75,2,1,Ticks_Pract_5,28,9999,9999,9999,432796744
75,2,1,Ticks_Pract_5,29,9999,9999,9999,433296440
75,2,1,Ticks_Pract_5,30,9999,9999,9999,433796208
75,2,1,Ticks_Pract_5,31,9999,9999,9999,434296948
75,2,1,Ticks_Pract_5,32,9999,9999,9999,434796644
75,2,1,Ticks_Pract_5,33,9999,9999,9999,435296340
75,2,1,Ticks_Pract_5,34,9999,9999,9999,435797080
75,2,1,Ticks_Pract_5,35,9999,9999,9999,436296776
75,2,1,Ticks_Pract_5,36,9999,9999,9999,436796468
75,2,1,Ticks_Pract_5,37,9999,9999,9999,437296240
75,2,1,Ticks_Pract_5,38,9999,9999,9999,437796980
75,2,1,Ticks_Pract_5,39,9999,9999,9999,438296676
75,3,2,T1_SMS_8,0,5,42,127,507882992
75,3,2,T1_SMS_8,1,5,42,127,508682524
75,3,2,T1_SMS_8,2,5,42,127,509483324
75,3,2,T1_SMS_8,3,5,42,127,510283152
75,3,2,T1_SMS_8,4,5,42,127,511082836
75,3,2,T1_SMS_8,5,1,48,98,511107200
75,3,2,T1_SMS_8,6,1,48,83,511881436
75,3,2,T1_SMS_8,7,5,42,127,511883084
75,3,2,T1_SMS_8,8,1,48,80,512651520
75,3,2,T1_SMS_8,9,5,42,127,512683488
75,3,2,T1_SMS_8,10,1,48,78,513438768
75,3,2,T1_SMS_8,11,5,42,127,513483028
75,3,2,T1_SMS_8,12,1,48,88,514264176
75,3,2,T1_SMS_8,13,5,42,127,514282760
75,3,2,T1_SMS_8,14,1,48,84,515053740
75,3,2,T1_SMS_8,15,5,42,127,515082640
75,3,2,T1_SMS_8,16,5,42,127,515883356
75,3,2,T1_SMS_8,17,1,48,95,515887600
75,3,2,T1_SMS_8,18,5,42,127,516683236
75,3,2,T1_SMS_8,19,1,48,81,516685832
75,3,2,T1_SMS_8,20,5,42,127,517482748
75,3,2,T1_SMS_8,21,1,48,90,517514512
75,3,2,T1_SMS_8,22,5,42,127,518282628
75,3,2,T1_SMS_8,23,1,48,76,518318808
75,3,2,T1_SMS_8,24,5,42,127,519083260
75,3,2,T1_SMS_8,25,1,48,86,519087948
75,3,2,T1_SMS_8,26,1,48,85,519863876
75,3,2,T1_SMS_8,27,5,42,127,519883084
75,3,2,T1_SMS_8,28,1,48,91,520654360
75,3,2,T1_SMS_8,29,5,42,127,520682744
75,3,2,T1_SMS_8,30,1,48,83,521466068
75,3,2,T1_SMS_8,31,5,42,127,521482480
75,3,2,T1_SMS_8,32,1,48,79,522276120
75,3,2,T1_SMS_8,33,5,42,127,522283408
75,3,2,T1_SMS_8,34,1,48,79,523055212
75,3,2,T1_SMS_8,35,5,42,127,523083216
75,3,2,T1_SMS_8,36,1,48,81,523862724
75,3,2,T1_SMS_8,37,5,42,127,523882804
75,3,2,T1_SMS_8,38,1,48,74,524640544
75,3,2,T1_SMS_8,39,5,42,127,524682536
75,3,2,T1_SMS_8,40,1,48,78,525471240
75,3,2,T1_SMS_8,41,5,42,127,525483464
75,3,2,T1_SMS_8,42,1,48,85,526234544
75,3,2,T1_SMS_8,43,5,42,127,526283296
75,3,2,T1_SMS_8,44,1,48,78,527063552
75,3,2,T1_SMS_8,45,5,42,127,527082732
75,3,2,T1_SMS_8,46,1,48,80,527878176
75,3,2,T1_SMS_8,47,5,42,127,527882468
75,3,2,T1_SMS_8,48,1,48,83,528647684
75,3,2,T1_SMS_8,49,5,42,127,528683320
75,3,2,T1_SMS_8,50,5,42,127,529483284
75,3,2,T1_SMS_8,51,1,48,80,529493360
75,3,2,T1_SMS_8,52,1,48,78,530282792
75,3,2,T1_SMS_8,53,5,42,127,530284132
75,3,2,T1_SMS_8,54,1,48,76,531053388
75,3,2,T1_SMS_8,55,5,42,127,531082596
75,3,2,T1_SMS_8,56,1,48,76,531863224
75,3,2,T1_SMS_8,57,5,42,127,531883376
75,3,2,T1_SMS_8,58,1,48,79,532653384
75,3,2,T1_SMS_8,59,5,42,127,532683208
75,3,2,T1_SMS_8,60,5,42,127,533483100
75,3,2,T1_SMS_8,61,1,48,81,533486068
75,3,2,T1_SMS_8,62,5,42,127,534282684
75,3,2,T1_SMS_8,63,1,48,79,534299488
75,3,2,T1_SMS_8,64,1,48,74,535073772
75,3,2,T1_SMS_8,65,5,42,127,535083308
75,3,2,T1_SMS_8,66,1,48,81,535834536
75,3,2,T1_SMS_8,67,5,42,127,535883116
75,3,2,T1_SMS_8,68,1,48,84,536655140
75,3,2,T1_SMS_8,69,5,42,127,536683220
75,3,2,T1_SMS_8,70,1,48,81,537462804
75,3,2,T1_SMS_8,71,5,42,127,537482508
75,3,2,T1_SMS_8,72,5,42,127,538283220
75,3,2,T1_SMS_8,73,1,48,73,538303392
75,3,2,T1_SMS_8,74,5,42,127,539083056
75,3,2,T1_SMS_8,75,1,48,74,539106064
75,3,2,T1_SMS_8,76,5,42,127,539883012
75,3,2,T1_SMS_8,77,1,48,69,539895700
75,3,2,T1_SMS_8,78,1,48,70,540669316
75,3,2,T1_SMS_8,79,5,42,127,540682812
75,3,2,T1_SMS_8,80,1,48,72,541461120
75,3,2,T1_SMS_8,81,5,42,127,541483444
75,3,2,T1_SMS_8,82,1,48,69,542263400
75,3,2,T1_SMS_8,83,5,42,127,542283028
75,3,2,T1_SMS_8,84,1,48,71,543071132
75,3,2,T1_SMS_8,85,5,42,127,543083132
75,3,2,T1_SMS_8,86,1,48,74,543871836
75,3,2,T1_SMS_8,87,5,42,127,543882568
75,3,2,T1_SMS_8,88,5,42,127,544683504
75,3,2,T1_SMS_8,89,1,48,65,544688720
75,3,2,T1_SMS_8,90,5,42,127,545482964
75,3,2,T1_SMS_8,91,1,48,66,545488104
75,3,2,T1_SMS_8,92,1,48,67,546252888
75,3,2,T1_SMS_8,93,5,42,127,546282764
75,3,2,T1_SMS_8,94,1,48,61,547046412
75,3,2,T1_SMS_8,95,5,42,127,547082944
75,3,2,T1_SMS_8,96,1,48,71,547849440
75,3,2,T1_SMS_8,97,5,42,127,547883504
75,3,2,T1_SMS_8,98,1,48,73,548658300
75,3,2,T1_SMS_8,99,5,42,127,548683236
75,3,2,T1_SMS_8,100,5,42,127,549482828
75,3,2,T1_SMS_8,101,1,48,70,549485648
75,3,2,T1_SMS_8,102,1,48,71,550256116
75,3,2,T1_SMS_8,103,5,42,127,550282704
75,3,2,T1_SMS_8,104,1,48,67,551062732
75,3,2,T1_SMS_8,105,5,42,127,551083556
75,3,2,T1_SMS_8,106,1,48,73,551865980
75,3,2,T1_SMS_8,107,5,42,127,551883020
75,3,2,T1_SMS_8,108,5,42,127,552682832
75,3,2,T1_SMS_8,109,1,48,70,552689992
75,3,2,T1_SMS_8,110,1,48,63,553453056
75,3,2,T1_SMS_8,111,5,42,127,553482708
75,3,2,T1_SMS_8,112,1,48,68,554259820
75,3,2,T1_SMS_8,113,5,42,127,554283264
75,3,2,T1_SMS_8,114,1,48,67,555057084
75,3,2,T1_SMS_8,115,5,42,127,555083076
75,3,2,T1_SMS_8,116,5,42,127,555882964
75,3,2,T1_SMS_8,117,1,48,69,555888252
75,3,2,T1_SMS_8,118,5,42,127,556682696
75,3,2,T1_SMS_8,119,1,48,62,556683660
75,3,2,T1_SMS_8,120,5,42,127,557483848
75,3,2,T1_SMS_8,121,1,48,65,557489136
75,3,2,T1_SMS_8,122,1,48,66,558277736
75,3,2,T1_SMS_8,123,5,42,127,558283152
75,3,2,T1_SMS_8,124,1,48,70,559058396
75,3,2,T1_SMS_8,125,5,42,127,559082812
75,3,2,T1_SMS_8,126,5,42,127,559882552
75,3,2,T1_SMS_8,127,1,48,65,559907664
75,3,2,T1_SMS_8,128,5,42,127,560683556
75,3,2,T1_SMS_8,129,1,48,66,560698720
75,3,2,T1_SMS_8,130,1,48,65,561481096
75,3,2,T1_SMS_8,131,5,42,127,561483060
75,3,2,T1_SMS_8,132,1,48,71,562276024
75,3,2,T1_SMS_8,133,5,42,127,562282720
75,3,2,T1_SMS_8,134,1,48,58,563081476
75,3,2,T1_SMS_8,135,5,42,127,563083048
75,3,2,T1_SMS_8,136,5,42,127,563883536
75,3,2,T1_SMS_8,137,1,48,66,563887632
75,3,2,T1_SMS_8,138,1,48,66,564669168
75,3,2,T1_SMS_8,139,5,42,127,564682988
75,3,2,T1_SMS_8,140,5,42,127,565482880
75,3,2,T1_SMS_8,141,1,48,65,565490188
75,3,2,T1_SMS_8,142,1,48,59,566263276
75,3,2,T1_SMS_8,143,5,42,127,566282532
75,3,2,T1_SMS_8,144,1,48,66,567072504
75,3,2,T1_SMS_8,145,5,42,127,567083460
75,3,2,T1_SMS_8,146,1,48,63,567853392
75,3,2,T1_SMS_8,147,5,42,127,567882972
75,3,2,T1_SMS_8,148,1,48,68,568670852
75,3,2,T1_SMS_8,149,5,42,127,568682852
75,3,2,T1_SMS_8,150,1,48,62,569448444
75,3,2,T1_SMS_8,151,5,42,127,569482512
75,3,2,T1_SMS_8,152,5,42,127,570283448
75,3,2,T1_SMS_8,153,1,48,60,570306640
75,3,2,T1_SMS_8,154,5,42,127,571083428
75,3,2,T1_SMS_8,155,1,48,67,571092236
75,3,2,T1_SMS_8,156,5,42,127,571882716
75,3,2,T1_SMS_8,157,1,48,64,571884652
75,3,2,T1_SMS_8,158,5,42,127,572682524
75,3,2,T1_SMS_8,159,1,48,64,572695664
75,3,2,T1_SMS_8,160,5,42,127,573483376
75,3,2,T1_SMS_8,161,1,48,60,573495472
75,3,2,T1_SMS_8,162,5,42,127,574283260
75,3,2,T1_SMS_8,163,1,48,65,574284824
75,3,2,T1_SMS_8,164,1,48,62,575081100
75,3,2,T1_SMS_8,165,5,42,127,575082764
75,3,2,T1_SMS_8,166,1,48,59,575860696
75,3,2,T1_SMS_8,167,5,42,127,575882496
75,3,2,T1_SMS_8,168,1,48,78,576649208
75,3,2,T1_SMS_8,169,5,42,127,576683352
75,3,2,T1_SMS_8,170,1,48,69,577471380
75,3,2,T1_SMS_8,171,5,42,127,577483256
75,3,2,T1_SMS_8,172,1,48,65,578269644
75,3,2,T1_SMS_8,173,5,42,127,578282840
75,3,2,T1_SMS_8,174,1,48,74,579065412
75,3,2,T1_SMS_8,175,5,42,127,579082500
75,3,2,T1_SMS_8,176,5,42,127,579883364
75,3,2,T1_SMS_8,177,1,48,68,579891868
75,3,2,T1_SMS_8,178,1,48,70,580677752
75,3,2,T1_SMS_8,179,5,42,127,580683240
75,3,2,T1_SMS_8,180,1,48,68,581452272
75,3,2,T1_SMS_8,181,5,42,127,581482896
75,3,2,T1_SMS_8,182,1,48,64,582259484
75,3,2,T1_SMS_8,183,5,42,127,582282480
75,3,2,T1_SMS_8,184,1,48,69,583050768
75,3,2,T1_SMS_8,185,5,42,127,583083336
75,3,2,T1_SMS_8,186,1,48,67,583859924
75,3,2,T1_SMS_8,187,5,42,127,583883244
75,3,2,T1_SMS_8,188,5,42,127,584682836
75,3,2,T1_SMS_8,189,1,48,73,584689096
75,3,2,T1_SMS_8,190,1,48,72,585476920
75,3,2,T1_SMS_8,191,5,42,127,585482560
75,3,2,T1_SMS_8,192,1,48,69,586260044
75,3,2,T1_SMS_8,193,5,42,127,586283488
75,3,2,T1_SMS_8,194,1,48,70,587062920
75,3,2,T1_SMS_8,195,5,42,127,587083072
75,3,2,T1_SMS_8,196,1,48,75,587830792
75,3,2,T1_SMS_8,197,5,42,127,587882956
75,3,2,T1_SMS_8,198,1,48,67,588668372
75,3,2,T1_SMS_8,199,5,42,127,588682616
75,3,2,T1_SMS_8,200,1,48,65,589474088
75,3,2,T1_SMS_8,201,5,42,127,589483320
75,3,2,T1_SMS_8,202,1,48,63,590269184
75,3,2,T1_SMS_8,203,5,42,127,590283228
75,3,2,T1_SMS_8,204,1,48,72,591064084
75,3,2,T1_SMS_8,205,5,42,127,591083036
75,3,2,T1_SMS_8,206,5,42,127,591882480
75,3,2,T1_SMS_8,207,1,48,68,591888216
75,3,2,T1_SMS_8,208,1,48,66,592674916
75,3,2,T1_SMS_8,209,5,42,127,592683328
75,3,2,T1_SMS_8,210,1,48,69,593438152
75,3,2,T1_SMS_8,211,5,42,127,593483060
75,3,2,T1_SMS_8,212,1,48,72,594256800
75,3,2,T1_SMS_8,213,5,42,127,594282868
75,3,2,T1_SMS_8,214,1,48,68,595073072
75,3,2,T1_SMS_8,215,5,42,127,595082528
75,3,2,T1_SMS_8,216,1,48,68,595877968
75,3,2,T1_SMS_8,217,5,42,127,595883308
75,3,2,T1_SMS_8,218,5,42,127,596683220
75,3,2,T1_SMS_8,219,1,48,70,596687092
75,3,2,T1_SMS_8,220,1,48,70,597481140
75,3,2,T1_SMS_8,221,5,42,127,597483024
75,3,2,T1_SMS_8,222,5,42,127,598282540
75,3,2,T1_SMS_8,223,1,48,75,598305932
75,3,2,T1_SMS_8,224,5,42,127,599083248
75,3,2,T1_SMS_8,225,1,48,70,599105360
75,3,2,T1_SMS_8,226,1,48,72,599876504
75,3,2,T1_SMS_8,227,5,42,127,599883048
75,3,2,T1_SMS_8,228,1,48,69,600651932
75,3,2,T1_SMS_8,229,5,42,127,600683004
75,3,2,T1_SMS_8,230,1,48,67,601452936
75,3,2,T1_SMS_8,231,5,42,127,601482736
75,3,2,T1_SMS_8,232,1,48,69,602276304
75,3,2,T1_SMS_8,233,5,42,127,602283368
75,3,2,T1_SMS_8,234,5,42,127,603083132
75,3,2,T1_SMS_8,235,1,48,73,603089396
75,3,2,T1_SMS_8,0,9999,9999,9999,507880556
75,3,2,T1_SMS_8,1,9999,9999,9999,508680308
75,3,2,T1_SMS_8,2,9999,9999,9999,509481036
75,3,2,T1_SMS_8,3,9999,9999,9999,510280792
75,3,2,T1_SMS_8,4,9999,9999,9999,511080548
75,3,2,T1_SMS_8,5,9999,9999,9999,511880280
75,3,2,T1_SMS_8,6,9999,9999,9999,512681052
75,3,2,T1_SMS_8,7,9999,9999,9999,513480812
75,3,2,T1_SMS_8,8,9999,9999,9999,514280544
75,3,2,T1_SMS_8,9,9999,9999,9999,515080280
75,3,2,T1_SMS_8,10,9999,9999,9999,515881068
75,3,2,T1_SMS_8,11,9999,9999,9999,516680800
75,3,2,T1_SMS_8,12,9999,9999,9999,517480532
75,3,2,T1_SMS_8,13,9999,9999,9999,518280264
75,3,2,T1_SMS_8,14,9999,9999,9999,519081044
75,3,2,T1_SMS_8,15,9999,9999,9999,519880796
75,3,2,T1_SMS_8,16,9999,9999,9999,520680532
75,3,2,T1_SMS_8,17,9999,9999,9999,521480268
75,3,2,T1_SMS_8,18,9999,9999,9999,522281048
75,3,2,T1_SMS_8,19,9999,9999,9999,523080780
75,3,2,T1_SMS_8,20,9999,9999,9999,523880516
75,3,2,T1_SMS_8,21,9999,9999,9999,524680248
75,3,2,T1_SMS_8,22,9999,9999,9999,525481028
75,3,2,T1_SMS_8,23,9999,9999,9999,526280784
75,3,2,T1_SMS_8,24,9999,9999,9999,527080520
75,3,2,T1_SMS_8,25,9999,9999,9999,527880252
75,3,2,T1_SMS_8,26,9999,9999,9999,528681032
75,3,2,T1_SMS_8,27,9999,9999,9999,529480772
75,3,2,T1_SMS_8,28,9999,9999,9999,530280504
75,3,2,T1_SMS_8,29,9999,9999,9999,531080308
75,3,2,T1_SMS_8,30,9999,9999,9999,531881016
75,3,2,T1_SMS_8,31,9999,9999,9999,532680772
75,3,2,T1_SMS_8,32,9999,9999,9999,533480512
75,3,2,T1_SMS_8,33,9999,9999,9999,534280244
75,3,2,T1_SMS_8,34,9999,9999,9999,535081020
75,3,2,T1_SMS_8,35,9999,9999,9999,535880752
75,3,2,T1_SMS_8,36,9999,9999,9999,536680560
75,3,2,T1_SMS_8,37,9999,9999,9999,537480296
75,3,2,T1_SMS_8,38,9999,9999,9999,538281008
75,3,2,T1_SMS_8,39,9999,9999,9999,539080768
75,3,2,T1_SMS_8,40,9999,9999,9999,539880500
75,3,2,T1_SMS_8,41,9999,9999,9999,540680300
75,3,2,T1_SMS_8,42,9999,9999,9999,541481008
75,3,2,T1_SMS_8,43,9999,9999,9999,542280812
75,3,2,T1_SMS_8,44,9999,9999,9999,543080548
75,3,2,T1_SMS_8,45,9999,9999,9999,543880280
75,3,2,T1_SMS_8,46,9999,9999,9999,544681068
75,3,2,T1_SMS_8,47,9999,9999,9999,545480752
75,3,2,T1_SMS_8,48,9999,9999,9999,546280552
75,3,2,T1_SMS_8,49,9999,9999,9999,547080284
75,3,2,T1_SMS_8,50,9999,9999,9999,547881068
75,3,2,T1_SMS_8,51,9999,9999,9999,548680800
75,3,2,T1_SMS_8,52,9999,9999,9999,549480540
75,3,2,T1_SMS_8,53,9999,9999,9999,550280264
75,3,2,T1_SMS_8,54,9999,9999,9999,551081048
75,3,2,T1_SMS_8,55,9999,9999,9999,551880804
75,3,2,T1_SMS_8,56,9999,9999,9999,552680544
75,3,2,T1_SMS_8,57,9999,9999,9999,553480272
75,3,2,T1_SMS_8,58,9999,9999,9999,554281052
75,3,2,T1_SMS_8,59,9999,9999,9999,555080788
75,3,2,T1_SMS_8,60,9999,9999,9999,555880528
75,3,2,T1_SMS_8,61,9999,9999,9999,556680260
75,3,2,T1_SMS_8,62,9999,9999,9999,557481040
75,3,2,T1_SMS_8,63,9999,9999,9999,558280788
75,3,2,T1_SMS_8,64,9999,9999,9999,559080524
75,3,2,T1_SMS_8,65,9999,9999,9999,559880264
75,3,2,T1_SMS_8,66,9999,9999,9999,560681044
75,3,2,T1_SMS_8,67,9999,9999,9999,561480812
75,3,2,T1_SMS_8,68,9999,9999,9999,562280504
75,3,2,T1_SMS_8,69,9999,9999,9999,563080244
75,3,2,T1_SMS_8,70,9999,9999,9999,563881024
75,3,2,T1_SMS_8,71,9999,9999,9999,564680776
75,3,2,T1_SMS_8,72,9999,9999,9999,565480516
75,3,2,T1_SMS_8,73,9999,9999,9999,566280244
75,3,2,T1_SMS_8,74,9999,9999,9999,567081024
75,3,2,T1_SMS_8,75,9999,9999,9999,567880756
75,3,2,T1_SMS_8,76,9999,9999,9999,568680564
75,3,2,T1_SMS_8,77,9999,9999,9999,569480300
75,3,2,T1_SMS_8,78,9999,9999,9999,570281008
75,3,2,T1_SMS_8,79,9999,9999,9999,571080768
75,3,2,T1_SMS_8,80,9999,9999,9999,571880500
75,3,2,T1_SMS_8,81,9999,9999,9999,572680308
75,3,2,T1_SMS_8,82,9999,9999,9999,573481016
75,3,2,T1_SMS_8,83,9999,9999,9999,574280820
75,3,2,T1_SMS_8,84,9999,9999,9999,575080500
75,3,2,T1_SMS_8,85,9999,9999,9999,575880284
75,3,2,T1_SMS_8,86,9999,9999,9999,576681064
75,3,2,T1_SMS_8,87,9999,9999,9999,577480820
75,3,2,T1_SMS_8,88,9999,9999,9999,578280552
75,3,2,T1_SMS_8,89,9999,9999,9999,579080288
75,3,2,T1_SMS_8,90,9999,9999,9999,579881076
75,3,2,T1_SMS_8,91,9999,9999,9999,580680804
75,3,2,T1_SMS_8,92,9999,9999,9999,581480536
75,3,2,T1_SMS_8,93,9999,9999,9999,582280268
75,3,2,T1_SMS_8,94,9999,9999,9999,583081048
75,3,2,T1_SMS_8,95,9999,9999,9999,583880804
75,3,2,T1_SMS_8,96,9999,9999,9999,584680544
75,3,2,T1_SMS_8,97,9999,9999,9999,585480272
75,3,2,T1_SMS_8,98,9999,9999,9999,586281052
75,3,2,T1_SMS_8,99,9999,9999,9999,587080788
75,3,2,T1_SMS_8,100,9999,9999,9999,587880520
75,3,2,T1_SMS_8,101,9999,9999,9999,588680256
75,3,2,T1_SMS_8,102,9999,9999,9999,589481032
75,3,2,T1_SMS_8,103,9999,9999,9999,590280792
75,3,2,T1_SMS_8,104,9999,9999,9999,591080528
75,3,2,T1_SMS_8,105,9999,9999,9999,591880268
75,3,2,T1_SMS_8,106,9999,9999,9999,592681040
75,3,2,T1_SMS_8,107,9999,9999,9999,593480772
75,3,2,T1_SMS_8,108,9999,9999,9999,594280504
75,3,2,T1_SMS_8,109,9999,9999,9999,595080240
75,3,2,T1_SMS_8,110,9999,9999,9999,595881020
75,3,2,T1_SMS_8,111,9999,9999,9999,596680784
75,3,2,T1_SMS_8,112,9999,9999,9999,597480536
75,3,2,T1_SMS_8,113,9999,9999,9999,598280252
75,3,2,T1_SMS_8,114,9999,9999,9999,599081032
75,3,2,T1_SMS_8,115,9999,9999,9999,599880760
75,3,2,T1_SMS_8,116,9999,9999,9999,600680492
75,3,2,T1_SMS_8,117,9999,9999,9999,601480300
75,3,2,T1_SMS_8,118,9999,9999,9999,602281004
75,3,2,T1_SMS_8,119,9999,9999,9999,603080772
75,4,4,T1_SMS_5,0,5,42,127,674706736
75,4,4,T1_SMS_5,1,5,42,127,675206380
75,4,4,T1_SMS_5,2,5,42,127,675707440
75,4,4,T1_SMS_5,3,5,42,127,676206860
75,4,4,T1_SMS_5,4,5,42,127,676706652
75,4,4,T1_SMS_5,5,1,48,100,676722556
75,4,4,T1_SMS_5,6,1,48,96,677179528
75,4,4,T1_SMS_5,7,5,42,127,677207608
75,4,4,T1_SMS_5,8,1,48,90,677687000
75,4,4,T1_SMS_5,9,5,42,127,677707156
75,4,4,T1_SMS_5,10,1,48,82,678183400
75,4,4,T1_SMS_5,11,5,42,127,678206852
75,4,4,T1_SMS_5,12,1,48,90,678699556
75,4,4,T1_SMS_5,13,5,42,127,678706548
75,4,4,T1_SMS_5,14,1,48,81,679203364
75,4,4,T1_SMS_5,15,5,42,127,679207512
75,4,4,T1_SMS_5,16,1,48,88,679693108
75,4,4,T1_SMS_5,17,5,42,127,679706912
75,4,4,T1_SMS_5,18,1,48,88,680207132
75,4,4,T1_SMS_5,19,5,42,127,680208552
75,4,4,T1_SMS_5,20,5,42,127,680706308
75,4,4,T1_SMS_5,21,1,48,85,680719600
75,4,4,T1_SMS_5,22,5,42,127,681207572
75,4,4,T1_SMS_5,23,1,48,80,681217200
75,4,4,T1_SMS_5,24,5,42,127,681706820
75,4,4,T1_SMS_5,25,1,48,84,681723324
75,4,4,T1_SMS_5,26,1,48,84,682202432
75,4,4,T1_SMS_5,27,5,42,127,682206580
75,4,4,T1_SMS_5,28,1,48,82,682703620
75,4,4,T1_SMS_5,29,5,42,127,682707472
75,4,4,T1_SMS_5,30,1,48,84,683188412
75,4,4,T1_SMS_5,31,5,42,127,683206944
75,4,4,T1_SMS_5,32,5,42,127,683706696
75,4,4,T1_SMS_5,33,1,48,73,683712532
75,4,4,T1_SMS_5,34,1,48,78,684204340
75,4,4,T1_SMS_5,35,5,42,127,684206384
75,4,4,T1_SMS_5,36,1,48,72,684702976
75,4,4,T1_SMS_5,37,5,42,127,684707348
75,4,4,T1_SMS_5,38,1,48,76,685195416
75,4,4,T1_SMS_5,39,5,42,127,685206892
75,4,4,T1_SMS_5,40,5,42,127,685706596
75,4,4,T1_SMS_5,41,1,48,81,685711660
75,4,4,T1_SMS_5,42,1,48,77,686201608
75,4,4,T1_SMS_5,43,5,42,127,686207480
75,4,4,T1_SMS_5,44,1,48,78,686697120
75,4,4,T1_SMS_5,45,5,42,127,686707248
75,4,4,T1_SMS_5,46,1,48,73,687193300
75,4,4,T1_SMS_5,47,5,42,127,687206648
75,4,4,T1_SMS_5,48,1,48,67,687674516
75,4,4,T1_SMS_5,49,5,42,127,687706416
75,4,4,T1_SMS_5,50,1,48,70,688175556
75,4,4,T1_SMS_5,51,5,42,127,688207532
75,4,4,T1_SMS_5,52,1,48,74,688706028
75,4,4,T1_SMS_5,53,5,42,127,688707604
75,4,4,T1_SMS_5,54,1,48,78,689192524
75,4,4,T1_SMS_5,55,5,42,127,689206696
75,4,4,T1_SMS_5,56,1,48,81,689698952
75,4,4,T1_SMS_5,57,5,42,127,689707440
75,4,4,T1_SMS_5,58,1,48,74,690198944
75,4,4,T1_SMS_5,59,5,42,127,690207356
75,4,4,T1_SMS_5,60,1,48,80,690705852
75,4,4,T1_SMS_5,61,5,42,127,690707348
75,4,4,T1_SMS_5,62,1,48,74,691197736
75,4,4,T1_SMS_5,63,5,42,127,691206376
75,4,4,T1_SMS_5,64,5,42,127,691707196
75,4,4,T1_SMS_5,65,1,48,70,691708160
75,4,4,T1_SMS_5,66,5,42,127,692207040
75,4,4,T1_SMS_5,67,1,48,73,692210680
75,4,4,T1_SMS_5,68,5,42,127,692706660
75,4,4,T1_SMS_5,69,1,48,73,692719276
75,4,4,T1_SMS_5,70,1,48,73,693190528
75,4,4,T1_SMS_5,71,5,42,127,693207468
75,4,4,T1_SMS_5,72,5,42,127,693707172
75,4,4,T1_SMS_5,73,1,48,68,693712908
75,4,4,T1_SMS_5,74,1,48,71,694202308
75,4,4,T1_SMS_5,75,5,42,127,694206784
75,4,4,T1_SMS_5,76,1,48,82,694696616
75,4,4,T1_SMS_5,77,5,42,127,694706676
75,4,4,T1_SMS_5,78,1,48,74,695190560
75,4,4,T1_SMS_5,79,5,42,127,695207272
75,4,4,T1_SMS_5,80,1,48,71,695692644
75,4,4,T1_SMS_5,81,5,42,127,695707040
75,4,4,T1_SMS_5,82,1,48,70,696194284
75,4,4,T1_SMS_5,83,5,42,127,696206584
75,4,4,T1_SMS_5,84,1,48,61,696694200
75,4,4,T1_SMS_5,85,5,42,127,696706356
75,4,4,T1_SMS_5,86,1,48,68,697177368
75,4,4,T1_SMS_5,87,5,42,127,697207172
75,4,4,T1_SMS_5,88,1,48,75,697703088
75,4,4,T1_SMS_5,89,5,42,127,697706720
75,4,4,T1_SMS_5,90,5,42,127,698206492
75,4,4,T1_SMS_5,91,1,48,66,698207460
75,4,4,T1_SMS_5,92,1,48,75,698702932
75,4,4,T1_SMS_5,93,5,42,127,698707232
75,4,4,T1_SMS_5,94,1,48,72,699197316
75,4,4,T1_SMS_5,95,5,42,127,699207224
75,4,4,T1_SMS_5,96,1,48,71,699703064
75,4,4,T1_SMS_5,97,5,42,127,699706696
75,4,4,T1_SMS_5,98,1,48,75,700203064
75,4,4,T1_SMS_5,99,5,42,127,700206316
75,4,4,T1_SMS_5,100,5,42,127,700707212
75,4,4,T1_SMS_5,101,1,48,65,700711452
75,4,4,T1_SMS_5,102,1,48,74,701196396
75,4,4,T1_SMS_5,103,5,42,127,701206976
75,4,4,T1_SMS_5,104,1,48,74,701693096
75,4,4,T1_SMS_5,105,5,42,127,701706596
75,4,4,T1_SMS_5,106,1,48,72,702205376
75,4,4,T1_SMS_5,107,5,42,127,702207264
75,4,4,T1_SMS_5,108,5,42,127,702707040
75,4,4,T1_SMS_5,109,1,48,74,702713300
75,4,4,T1_SMS_5,110,1,48,76,703196968
75,4,4,T1_SMS_5,111,5,42,127,703206952
75,4,4,T1_SMS_5,112,1,48,71,703691876
75,4,4,T1_SMS_5,113,5,42,127,703706348
75,4,4,T1_SMS_5,114,1,48,67,704191648
75,4,4,T1_SMS_5,115,5,42,127,704207088
75,4,4,T1_SMS_5,116,1,48,67,704681440
75,4,4,T1_SMS_5,117,5,42,127,704707008
75,4,4,T1_SMS_5,118,1,48,71,705190632
75,4,4,T1_SMS_5,119,5,42,127,705206752
75,4,4,T1_SMS_5,120,1,48,71,705689580
75,4,4,T1_SMS_5,121,5,42,127,705707344
75,4,4,T1_SMS_5,122,1,48,76,706174392
75,4,4,T1_SMS_5,123,5,42,127,706206964
75,4,4,T1_SMS_5,124,1,48,78,706681868
75,4,4,T1_SMS_5,125,5,42,127,706706884
75,4,4,T1_SMS_5,126,1,48,83,707168172
75,4,4,T1_SMS_5,127,5,42,127,707206652
75,4,4,T1_SMS_5,128,1,48,80,707679612
75,4,4,T1_SMS_5,129,5,42,127,707707172
75,4,4,T1_SMS_5,130,1,48,73,708188660
75,4,4,T1_SMS_5,131,5,42,127,708207016
75,4,4,T1_SMS_5,132,1,48,74,708687980
75,4,4,T1_SMS_5,133,5,42,127,708706712
75,4,4,T1_SMS_5,134,1,48,77,709177876
75,4,4,T1_SMS_5,135,5,42,127,709207528
75,4,4,T1_SMS_5,136,1,48,78,709692076
75,4,4,T1_SMS_5,137,5,42,127,709707000
75,4,4,T1_SMS_5,138,1,48,82,710189380
75,4,4,T1_SMS_5,139,5,42,127,710206920
75,4,4,T1_SMS_5,140,1,48,79,710692896
75,4,4,T1_SMS_5,141,5,42,127,710706544
75,4,4,T1_SMS_5,142,1,48,79,711198200
75,4,4,T1_SMS_5,143,5,42,127,711207284
75,4,4,T1_SMS_5,144,1,48,71,711697968
75,4,4,T1_SMS_5,145,5,42,127,711706980
75,4,4,T1_SMS_5,146,1,48,73,712196468
75,4,4,T1_SMS_5,147,5,42,127,712206748
75,4,4,T1_SMS_5,148,5,42,127,712706376
75,4,4,T1_SMS_5,149,1,48,79,712712784
75,4,4,T1_SMS_5,150,1,48,81,713189648
75,4,4,T1_SMS_5,151,5,42,127,713207112
75,4,4,T1_SMS_5,152,1,48,72,713697572
75,4,4,T1_SMS_5,153,5,42,127,713706808
75,4,4,T1_SMS_5,154,1,48,76,714183952
75,4,4,T1_SMS_5,155,5,42,127,714206576
75,4,4,T1_SMS_5,156,1,48,78,714696656
75,4,4,T1_SMS_5,157,5,42,127,714707244
75,4,4,T1_SMS_5,158,1,48,73,715192964
75,4,4,T1_SMS_5,159,5,42,127,715207012
75,4,4,T1_SMS_5,160,1,48,77,715693256
75,4,4,T1_SMS_5,161,5,42,127,715706928
75,4,4,T1_SMS_5,162,1,48,75,716197140
75,4,4,T1_SMS_5,163,5,42,127,716206376
75,4,4,T1_SMS_5,164,1,48,70,716698032
75,4,4,T1_SMS_5,165,5,42,127,716707116
75,4,4,T1_SMS_5,166,1,48,76,717191668
75,4,4,T1_SMS_5,167,5,42,127,717206960
75,4,4,T1_SMS_5,168,1,48,77,717693456
75,4,4,T1_SMS_5,169,5,42,127,717706804
75,4,4,T1_SMS_5,170,5,42,127,718207256
75,4,4,T1_SMS_5,171,1,48,73,718218752
75,4,4,T1_SMS_5,172,1,48,74,718689556
75,4,4,T1_SMS_5,173,5,42,127,718707164
75,4,4,T1_SMS_5,174,1,48,73,719206868
75,4,4,T1_SMS_5,175,5,42,127,719208132
75,4,4,T1_SMS_5,176,1,48,69,719699416
75,4,4,T1_SMS_5,177,5,42,127,719706704
75,4,4,T1_SMS_5,178,1,48,65,720196488
75,4,4,T1_SMS_5,179,5,42,127,720207148
75,4,4,T1_SMS_5,180,1,48,80,720705944
75,4,4,T1_SMS_5,181,5,42,127,720707596
75,4,4,T1_SMS_5,182,1,48,76,721191172
75,4,4,T1_SMS_5,183,5,42,127,721206764
75,4,4,T1_SMS_5,184,1,48,75,721704624
75,4,4,T1_SMS_5,185,5,42,127,721707280
75,4,4,T1_SMS_5,186,1,48,71,722178964
75,4,4,T1_SMS_5,187,5,42,127,722207052
75,4,4,T1_SMS_5,188,1,48,88,722681724
75,4,4,T1_SMS_5,189,5,42,127,722706820
75,4,4,T1_SMS_5,190,1,48,73,723180676
75,4,4,T1_SMS_5,191,5,42,127,723206664
75,4,4,T1_SMS_5,192,1,48,70,723689572
75,4,4,T1_SMS_5,193,5,42,127,723707108
75,4,4,T1_SMS_5,194,1,48,70,724193076
75,4,4,T1_SMS_5,195,5,42,127,724206952
75,4,4,T1_SMS_5,196,1,48,79,724693444
75,4,4,T1_SMS_5,197,5,42,127,724706796
75,4,4,T1_SMS_5,198,1,48,74,725194112
75,4,4,T1_SMS_5,199,5,42,127,725207388
75,4,4,T1_SMS_5,200,1,48,82,725680620
75,4,4,T1_SMS_5,201,5,42,127,725707156
75,4,4,T1_SMS_5,202,1,48,78,726181732
75,4,4,T1_SMS_5,203,5,42,127,726206780
75,4,4,T1_SMS_5,204,1,48,85,726688236
75,4,4,T1_SMS_5,205,5,42,127,726706820
75,4,4,T1_SMS_5,206,1,48,86,727186740
75,4,4,T1_SMS_5,207,5,42,127,727207340
75,4,4,T1_SMS_5,208,1,48,74,727691368
75,4,4,T1_SMS_5,209,5,42,127,727707032
75,4,4,T1_SMS_5,210,1,48,76,728204300
75,4,4,T1_SMS_5,211,5,42,127,728206804
75,4,4,T1_SMS_5,212,1,48,75,728702868
75,4,4,T1_SMS_5,213,5,42,127,728706648
75,4,4,T1_SMS_5,214,1,48,76,729207320
75,4,4,T1_SMS_5,215,5,42,127,729208732
75,4,4,T1_SMS_5,216,1,48,68,729686632
75,4,4,T1_SMS_5,217,5,42,127,729706788
75,4,4,T1_SMS_5,218,1,48,79,730193652
75,4,4,T1_SMS_5,219,5,42,127,730206628
75,4,4,T1_SMS_5,220,5,42,127,730707452
75,4,4,T1_SMS_5,221,1,48,86,730708420
75,4,4,T1_SMS_5,222,1,48,83,731200976
75,4,4,T1_SMS_5,223,5,42,127,731206992
75,4,4,T1_SMS_5,224,5,42,127,731706620
75,4,4,T1_SMS_5,225,1,48,76,731712280
75,4,4,T1_SMS_5,226,1,48,71,732205256
75,4,4,T1_SMS_5,227,5,42,127,732206756
75,4,4,T1_SMS_5,228,1,48,72,732685168
75,4,4,T1_SMS_5,229,5,42,127,732707052
75,4,4,T1_SMS_5,230,1,48,73,733195036
75,4,4,T1_SMS_5,231,5,42,127,733206744
75,4,4,T1_SMS_5,232,1,48,73,733694732
75,4,4,T1_SMS_5,233,5,42,127,733706516
75,4,4,T1_SMS_5,234,1,48,73,734206052
75,4,4,T1_SMS_5,235,5,42,127,734207480
75,4,4,T1_SMS_5,236,5,42,127,734707032
75,4,4,T1_SMS_5,237,1,48,89,734716132
75,4,4,T1_SMS_5,238,5,42,127,735206728
75,4,4,T1_SMS_5,239,1,48,83,735215976
75,4,4,T1_SMS_5,240,1,48,69,735700544
75,4,4,T1_SMS_5,241,5,42,127,735706564
75,4,4,T1_SMS_5,242,1,48,67,736205188
75,4,4,T1_SMS_5,243,5,42,127,736207156
75,4,4,T1_SMS_5,244,1,48,70,736693552
75,4,4,T1_SMS_5,245,5,42,127,736706924
75,4,4,T1_SMS_5,246,5,42,127,737206676
75,4,4,T1_SMS_5,247,1,48,82,737219916
75,4,4,T1_SMS_5,248,1,48,68,737685156
75,4,4,T1_SMS_5,249,5,42,127,737707336
75,4,4,T1_SMS_5,250,1,48,64,738192184
75,4,4,T1_SMS_5,251,5,42,127,738207032
75,4,4,T1_SMS_5,252,1,48,65,738696968
75,4,4,T1_SMS_5,253,5,42,127,738706728
75,4,4,T1_SMS_5,254,1,48,64,739188580
75,4,4,T1_SMS_5,255,5,42,127,739206496
75,4,4,T1_SMS_5,256,1,48,56,739697328
75,4,4,T1_SMS_5,0,9999,9999,9999,674704444
75,4,4,T1_SMS_5,1,9999,9999,9999,675204164
75,4,4,T1_SMS_5,2,9999,9999,9999,675704928
75,4,4,T1_SMS_5,3,9999,9999,9999,676204644
75,4,4,T1_SMS_5,4,9999,9999,9999,676704360
75,4,4,T1_SMS_5,5,9999,9999,9999,677205096
75,4,4,T1_SMS_5,6,9999,9999,9999,677704792
75,4,4,T1_SMS_5,7,9999,9999,9999,678204484
75,4,4,T1_SMS_5,8,9999,9999,9999,678704184
75,4,4,T1_SMS_5,9,9999,9999,9999,679204928
75,4,4,T1_SMS_5,10,9999,9999,9999,679704696
75,4,4,T1_SMS_5,11,9999,9999,9999,680204396
75,4,4,T1_SMS_5,12,9999,9999,9999,680704092
75,4,4,T1_SMS_5,13,9999,9999,9999,681204832
75,4,4,T1_SMS_5,14,9999,9999,9999,681704528
75,4,4,T1_SMS_5,15,9999,9999,9999,682204216
75,4,4,T1_SMS_5,16,9999,9999,9999,682704960
75,4,4,T1_SMS_5,17,9999,9999,9999,683204656
75,4,4,T1_SMS_5,18,9999,9999,9999,683704404
75,4,4,T1_SMS_5,19,9999,9999,9999,684204132
75,4,4,T1_SMS_5,20,9999,9999,9999,684704836
75,4,4,T1_SMS_5,21,9999,9999,9999,685204528
75,4,4,T1_SMS_5,22,9999,9999,9999,685704308
75,4,4,T1_SMS_5,23,9999,9999,9999,686205040
75,4,4,T1_SMS_5,24,9999,9999,9999,686704736
75,4,4,T1_SMS_5,25,9999,9999,9999,687204432
75,4,4,T1_SMS_5,26,9999,9999,9999,687704128
75,4,4,T1_SMS_5,27,9999,9999,9999,688204868
75,4,4,T1_SMS_5,28,9999,9999,9999,688704572
75,4,4,T1_SMS_5,29,9999,9999,9999,689204332
75,4,4,T1_SMS_5,30,9999,9999,9999,689705072
75,4,4,T1_SMS_5,31,9999,9999,9999,690204768
75,4,4,T1_SMS_5,32,9999,9999,9999,690704468
75,4,4,T1_SMS_5,33,9999,9999,9999,691204160
75,4,4,T1_SMS_5,34,9999,9999,9999,691704904
75,4,4,T1_SMS_5,35,9999,9999,9999,692204600
75,4,4,T1_SMS_5,36,9999,9999,9999,692704372
75,4,4,T1_SMS_5,37,9999,9999,9999,693205104
75,4,4,T1_SMS_5,38,9999,9999,9999,693704804
75,4,4,T1_SMS_5,39,9999,9999,9999,694204492
75,4,4,T1_SMS_5,40,9999,9999,9999,694704236
75,4,4,T1_SMS_5,41,9999,9999,9999,695204980
75,4,4,T1_SMS_5,42,9999,9999,9999,695704676
75,4,4,T1_SMS_5,43,9999,9999,9999,696204372
75,4,4,T1_SMS_5,44,9999,9999,9999,696704068
75,4,4,T1_SMS_5,45,9999,9999,9999,697204808
75,4,4,T1_SMS_5,46,9999,9999,9999,697704504
75,4,4,T1_SMS_5,47,9999,9999,9999,698204276
75,4,4,T1_SMS_5,48,9999,9999,9999,698705016
75,4,4,T1_SMS_5,49,9999,9999,9999,699204708
75,4,4,T1_SMS_5,50,9999,9999,9999,699704404
75,4,4,T1_SMS_5,51,9999,9999,9999,700204100
75,4,4,T1_SMS_5,52,9999,9999,9999,700704848
75,4,4,T1_SMS_5,53,9999,9999,9999,701204536
75,4,4,T1_SMS_5,54,9999,9999,9999,701704308
75,4,4,T1_SMS_5,55,9999,9999,9999,702204996
75,4,4,T1_SMS_5,56,9999,9999,9999,702704748
75,4,4,T1_SMS_5,57,9999,9999,9999,703204440
75,4,4,T1_SMS_5,58,9999,9999,9999,703704132
75,4,4,T1_SMS_5,59,9999,9999,9999,704204872
75,4,4,T1_SMS_5,60,9999,9999,9999,704704568
75,4,4,T1_SMS_5,61,9999,9999,9999,705204312
75,4,4,T1_SMS_5,62,9999,9999,9999,705705056
75,4,4,T1_SMS_5,63,9999,9999,9999,706204748
75,4,4,T1_SMS_5,64,9999,9999,9999,706704444
75,4,4,T1_SMS_5,65,9999,9999,9999,707204216
75,4,4,T1_SMS_5,66,9999,9999,9999,707704884
75,4,4,T1_SMS_5,67,9999,9999,9999,708204652
75,4,4,T1_SMS_5,68,9999,9999,9999,708704348
75,4,4,T1_SMS_5,69,9999,9999,9999,709205088
75,4,4,T1_SMS_5,70,9999,9999,9999,709704784
75,4,4,T1_SMS_5,71,9999,9999,9999,710204480
75,4,4,T1_SMS_5,72,9999,9999,9999,710704180
75,4,4,T1_SMS_5,73,9999,9999,9999,711204920
75,4,4,T1_SMS_5,74,9999,9999,9999,711704688
75,4,4,T1_SMS_5,75,9999,9999,9999,712204384
75,4,4,T1_SMS_5,76,9999,9999,9999,712704084
75,4,4,T1_SMS_5,77,9999,9999,9999,713204820
75,4,4,T1_SMS_5,78,9999,9999,9999,713704516
75,4,4,T1_SMS_5,79,9999,9999,9999,714204212
75,4,4,T1_SMS_5,80,9999,9999,9999,714704952
75,4,4,T1_SMS_5,81,9999,9999,9999,715204720
75,4,4,T1_SMS_5,82,9999,9999,9999,715704392
75,4,4,T1_SMS_5,83,9999,9999,9999,716204084
75,4,4,T1_SMS_5,84,9999,9999,9999,716704828
75,4,4,T1_SMS_5,85,9999,9999,9999,717204596
75,4,4,T1_SMS_5,86,9999,9999,9999,717704292
75,4,4,T1_SMS_5,87,9999,9999,9999,718205040
75,4,4,T1_SMS_5,88,9999,9999,9999,718704728
75,4,4,T1_SMS_5,89,9999,9999,9999,719204428
75,4,4,T1_SMS_5,90,9999,9999,9999,719704116
75,4,4,T1_SMS_5,91,9999,9999,9999,720204860
75,4,4,T1_SMS_5,92,9999,9999,9999,720704560
75,4,4,T1_SMS_5,93,9999,9999,9999,721204324
75,4,4,T1_SMS_5,94,9999,9999,9999,721705064
75,4,4,T1_SMS_5,95,9999,9999,9999,722204760
75,4,4,T1_SMS_5,96,9999,9999,9999,722704456
75,4,4,T1_SMS_5,97,9999,9999,9999,723204152
75,4,4,T1_SMS_5,98,9999,9999,9999,723704892
75,4,4,T1_SMS_5,99,9999,9999,9999,724204660
75,4,4,T1_SMS_5,100,9999,9999,9999,724704356
75,4,4,T1_SMS_5,101,9999,9999,9999,725205096
75,4,4,T1_SMS_5,102,9999,9999,9999,725704792
75,4,4,T1_SMS_5,103,9999,9999,9999,726204488
75,4,4,T1_SMS_5,104,9999,9999,9999,726704232
75,4,4,T1_SMS_5,105,9999,9999,9999,727204976
75,4,4,T1_SMS_5,106,9999,9999,9999,727704668
75,4,4,T1_SMS_5,107,9999,9999,9999,728204364
75,4,4,T1_SMS_5,108,9999,9999,9999,728704060
75,4,4,T1_SMS_5,109,9999,9999,9999,729204804
75,4,4,T1_SMS_5,110,9999,9999,9999,729704496
75,4,4,T1_SMS_5,111,9999,9999,9999,730204264
75,4,4,T1_SMS_5,112,9999,9999,9999,730705016
75,4,4,T1_SMS_5,113,9999,9999,9999,731204704
75,4,4,T1_SMS_5,114,9999,9999,9999,731704404
75,4,4,T1_SMS_5,115,9999,9999,9999,732204100
75,4,4,T1_SMS_5,116,9999,9999,9999,732704836
75,4,4,T1_SMS_5,117,9999,9999,9999,733204528
75,4,4,T1_SMS_5,118,9999,9999,9999,733704300
75,4,4,T1_SMS_5,119,9999,9999,9999,734205044
75,4,4,T1_SMS_5,120,9999,9999,9999,734704740
75,4,4,T1_SMS_5,121,9999,9999,9999,735204436
75,4,4,T1_SMS_5,122,9999,9999,9999,735704124
75,4,4,T1_SMS_5,123,9999,9999,9999,736204904
75,4,4,T1_SMS_5,124,9999,9999,9999,736704560
75,4,4,T1_SMS_5,125,9999,9999,9999,737204312
75,4,4,T1_SMS_5,126,9999,9999,9999,737705048
75,4,4,T1_SMS_5,127,9999,9999,9999,738204740
75,4,4,T1_SMS_5,128,9999,9999,9999,738704436
75,4,4,T1_SMS_5,129,9999,9999,9999,739204204
75,5,20,Ticks_Linear_8,0,5,42,127,750727424
75,5,20,Ticks_Linear_8,1,5,42,127,751547784
75,5,20,Ticks_Linear_8,2,5,42,127,752368196
75,5,20,Ticks_Linear_8,3,5,42,127,753188384
75,5,20,Ticks_Linear_8,4,5,42,127,754008500
75,5,20,Ticks_Linear_8,5,1,48,89,754047200
75,5,20,Ticks_Linear_8,6,5,42,127,754818412
75,5,20,Ticks_Linear_8,7,1,48,85,754866916
75,5,20,Ticks_Linear_8,8,5,42,127,755637604
75,5,20,Ticks_Linear_8,9,1,48,83,755660664
75,5,20,Ticks_Linear_8,10,5,42,127,756447540
75,5,20,Ticks_Linear_8,11,1,48,85,756450584
75,5,20,Ticks_Linear_8,12,1,48,84,757251480
75,5,20,Ticks_Linear_8,13,5,42,127,757257516
75,5,20,Ticks_Linear_8,14,1,48,67,758051576
75,5,20,Ticks_Linear_8,15,5,42,127,758067500
75,5,20,Ticks_Linear_8,16,5,42,127,758868204
75,5,20,Ticks_Linear_8,17,1,48,68,758872148
75,5,20,Ticks_Linear_8,18,5,42,127,759668004
75,5,20,Ticks_Linear_8,19,1,48,70,759668968
75,5,20,Ticks_Linear_8,20,5,42,127,760468024
75,5,20,Ticks_Linear_8,21,1,48,65,760477364
75,5,20,Ticks_Linear_8,22,5,42,127,761267524
75,5,20,Ticks_Linear_8,23,1,48,65,761275004
75,5,20,Ticks_Linear_8,24,1,48,67,762061752
75,5,20,Ticks_Linear_8,25,5,42,127,762068312
75,5,20,Ticks_Linear_8,26,5,42,127,762858008
75,5,20,Ticks_Linear_8,27,1,48,61,762870040
75,5,20,Ticks_Linear_8,28,5,42,127,763648296
75,5,20,Ticks_Linear_8,29,1,48,53,763681516
75,5,20,Ticks_Linear_8,30,5,42,127,764438060
75,5,20,Ticks_Linear_8,31,1,48,56,764468444
75,5,20,Ticks_Linear_8,32,5,42,127,765228500
75,5,20,Ticks_Linear_8,33,1,48,61,765229392
75,5,20,Ticks_Linear_8,34,1,48,65,765997104
75,5,20,Ticks_Linear_8,35,5,42,127,766018104
75,5,20,Ticks_Linear_8,36,5,42,127,766798216
75,5,20,Ticks_Linear_8,37,1,48,69,766803504
75,5,20,Ticks_Linear_8,38,1,48,67,767577644
75,5,20,Ticks_Linear_8,39,5,42,127,767579056
75,5,20,Ticks_Linear_8,40,5,42,127,768357824
75,5,20,Ticks_Linear_8,41,1,48,72,768365968
75,5,20,Ticks_Linear_8,42,1,48,68,769117960
75,5,20,Ticks_Linear_8,43,5,42,127,769137996
75,5,20,Ticks_Linear_8,44,1,48,67,769904564
75,5,20,Ticks_Linear_8,45,5,42,127,769918396
75,5,20,Ticks_Linear_8,46,1,48,69,770687116
75,5,20,Ticks_Linear_8,47,5,42,127,770688540
75,5,20,Ticks_Linear_8,48,5,42,127,771458464
75,5,20,Ticks_Linear_8,49,1,48,70,771468028
75,5,20,Ticks_Linear_8,50,5,42,127,772237744
75,5,20,Ticks_Linear_8,51,1,48,78,772260556
75,5,20,Ticks_Linear_8,52,5,42,127,773007960
75,5,20,Ticks_Linear_8,53,1,48,70,773022088
75,5,20,Ticks_Linear_8,54,5,42,127,773777956
75,5,20,Ticks_Linear_8,55,1,48,66,773785948
75,5,20,Ticks_Linear_8,56,1,48,65,774530152
75,5,20,Ticks_Linear_8,57,5,42,127,774537684
75,5,20,Ticks_Linear_8,58,5,42,127,775298472
75,5,20,Ticks_Linear_8,59,1,48,62,775301216
75,5,20,Ticks_Linear_8,60,1,48,65,776061448
75,5,20,Ticks_Linear_8,61,5,42,127,776067560
75,5,20,Ticks_Linear_8,62,5,42,127,776828200
75,5,20,Ticks_Linear_8,63,1,48,67,776857304
75,5,20,Ticks_Linear_8,64,5,42,127,777588228
75,5,20,Ticks_Linear_8,65,1,48,73,777596076
75,5,20,Ticks_Linear_8,66,5,42,127,778337928
75,5,20,Ticks_Linear_8,67,1,48,68,778360972
75,5,20,Ticks_Linear_8,68,5,42,127,779088228
75,5,20,Ticks_Linear_8,69,1,48,71,779096224
75,5,20,Ticks_Linear_8,70,5,42,127,779837852
75,5,20,Ticks_Linear_8,71,1,48,63,779840524
75,5,20,Ticks_Linear_8,72,1,48,71,780586700
75,5,20,Ticks_Linear_8,73,5,42,127,780588368
75,5,20,Ticks_Linear_8,74,5,42,127,781337924
75,5,20,Ticks_Linear_8,75,1,48,79,781355352
75,5,20,Ticks_Linear_8,76,5,42,127,782078188
75,5,20,Ticks_Linear_8,77,1,48,80,782089692
75,5,20,Ticks_Linear_8,78,5,42,127,782817700
75,5,20,Ticks_Linear_8,79,1,48,70,782826816
75,5,20,Ticks_Linear_8,80,5,42,127,783557888
75,5,20,Ticks_Linear_8,81,1,48,82,783574776
75,5,20,Ticks_Linear_8,82,5,42,127,784298500
75,5,20,Ticks_Linear_8,83,1,48,80,784335112
75,5,20,Ticks_Linear_8,84,5,42,127,785037788
75,5,20,Ticks_Linear_8,85,1,48,69,785049972
75,5,20,Ticks_Linear_8,86,1,48,74,785755544
75,5,20,Ticks_Linear_8,87,5,42,127,785767788
75,5,20,Ticks_Linear_8,88,5,42,127,786497872
75,5,20,Ticks_Linear_8,89,1,48,69,786521136
75,5,20,Ticks_Linear_8,90,5,42,127,787227948
75,5,20,Ticks_Linear_8,91,1,48,69,787235772
75,5,20,Ticks_Linear_8,92,5,42,127,787958100
75,5,20,Ticks_Linear_8,93,1,48,64,787959660
75,5,20,Ticks_Linear_8,94,5,42,127,788688104
75,5,20,Ticks_Linear_8,95,1,48,73,788700132
75,5,20,Ticks_Linear_8,96,5,42,127,789408120
75,5,20,Ticks_Linear_8,97,1,48,70,789417608
75,5,20,Ticks_Linear_8,98,1,48,74,790123768
75,5,20,Ticks_Linear_8,99,5,42,127,790128008
75,5,20,Ticks_Linear_8,100,1,48,64,790818580
75,5,20,Ticks_Linear_8,101,5,42,127,790847828
75,5,20,Ticks_Linear_8,102,1,48,65,791551352
75,5,20,Ticks_Linear_8,103,5,42,127,791567720
75,5,20,Ticks_Linear_8,104,1,48,73,792274460
75,5,20,Ticks_Linear_8,105,5,42,127,792287616
75,5,20,Ticks_Linear_8,106,1,48,66,792993432
75,5,20,Ticks_Linear_8,107,5,42,127,792998424
75,5,20,Ticks_Linear_8,108,5,42,127,793707768
75,5,20,Ticks_Linear_8,109,1,48,73,793715592
75,5,20,Ticks_Linear_8,110,5,42,127,794417772
75,5,20,Ticks_Linear_8,111,1,48,65,794448008
75,5,20,Ticks_Linear_8,112,5,42,127,795128084
75,5,20,Ticks_Linear_8,113,1,48,70,795148204
75,5,20,Ticks_Linear_8,114,1,48,62,795833316
75,5,20,Ticks_Linear_8,115,5,42,127,795837788
75,5,20,Ticks_Linear_8,116,1,48,64,796534988
75,5,20,Ticks_Linear_8,117,5,42,127,796538332
75,5,20,Ticks_Linear_8,118,5,42,127,797237568
75,5,20,Ticks_Linear_8,119,1,48,73,797251692
75,5,20,Ticks_Linear_8,120,5,42,127,797937988
75,5,20,Ticks_Linear_8,121,1,48,69,797951140
75,5,20,Ticks_Linear_8,122,5,42,127,798637412
75,5,20,Ticks_Linear_8,123,1,48,73,798640160
75,5,20,Ticks_Linear_8,124,5,42,127,799337836
75,5,20,Ticks_Linear_8,125,1,48,78,799339924
75,5,20,Ticks_Linear_8,126,5,42,127,800027924
75,5,20,Ticks_Linear_8,127,1,48,76,800049840
75,5,20,Ticks_Linear_8,128,5,42,127,800718460
75,5,20,Ticks_Linear_8,129,1,48,68,800730868
75,5,20,Ticks_Linear_8,130,5,42,127,801408528
75,5,20,Ticks_Linear_8,131,1,48,69,801410092
75,5,20,Ticks_Linear_8,132,1,48,64,802081788
75,5,20,Ticks_Linear_8,133,5,42,127,802097636
75,5,20,Ticks_Linear_8,134,1,48,65,802780344
75,5,20,Ticks_Linear_8,135,5,42,127,802787576
75,5,20,Ticks_Linear_8,136,5,42,127,803467684
75,5,20,Ticks_Linear_8,137,1,48,65,803475604
75,5,20,Ticks_Linear_8,138,5,42,127,804147516
75,5,20,Ticks_Linear_8,139,1,48,64,804156400
75,5,20,Ticks_Linear_8,140,5,42,127,804827420
75,5,20,Ticks_Linear_8,141,1,48,66,804835860
75,5,20,Ticks_Linear_8,142,5,42,127,805507448
75,5,20,Ticks_Linear_8,143,1,48,61,805512212
75,5,20,Ticks_Linear_8,144,5,42,127,806188324
75,5,20,Ticks_Linear_8,145,1,48,65,806193908
75,5,20,Ticks_Linear_8,146,5,42,127,806858340
75,5,20,Ticks_Linear_8,147,1,48,65,806873292
75,5,20,Ticks_Linear_8,148,5,42,127,807527812
75,5,20,Ticks_Linear_8,149,1,48,65,807542608
75,5,20,Ticks_Linear_8,150,1,48,74,808190068
75,5,20,Ticks_Linear_8,151,5,42,127,808197448
75,5,20,Ticks_Linear_8,152,5,42,127,808868348
75,5,20,Ticks_Linear_8,153,1,48,67,808875740
75,5,20,Ticks_Linear_8,154,1,48,68,809528208
75,5,20,Ticks_Linear_8,155,5,42,127,809537912
75,5,20,Ticks_Linear_8,156,1,48,67,810182272
75,5,20,Ticks_Linear_8,157,5,42,127,810198348
75,5,20,Ticks_Linear_8,158,1,48,70,810855816
75,5,20,Ticks_Linear_8,159,5,42,127,810857708
75,5,20,Ticks_Linear_8,160,5,42,127,811518372
75,5,20,Ticks_Linear_8,161,1,48,63,811520816
75,5,20,Ticks_Linear_8,162,5,42,127,812177884
75,5,20,Ticks_Linear_8,163,1,48,62,812186396
75,5,20,Ticks_Linear_8,164,5,42,127,812838168
75,5,20,Ticks_Linear_8,165,1,48,64,812852292
75,5,20,Ticks_Linear_8,166,5,42,127,813487344
75,5,20,Ticks_Linear_8,167,1,48,65,813491580
75,5,20,Ticks_Linear_8,168,1,48,70,814126160
75,5,20,Ticks_Linear_8,169,5,42,127,814137656
75,5,20,Ticks_Linear_8,170,1,48,64,814785084
75,5,20,Ticks_Linear_8,171,5,42,127,814788128
75,5,20,Ticks_Linear_8,172,5,42,127,815438284
75,5,20,Ticks_Linear_8,173,1,48,64,815440876
75,5,20,Ticks_Linear_8,174,5,42,127,816088308
75,5,20,Ticks_Linear_8,175,1,48,65,816092324
75,5,20,Ticks_Linear_8,176,1,48,63,816726228
75,5,20,Ticks_Linear_8,177,5,42,127,816728340
75,5,20,Ticks_Linear_8,178,5,42,127,817368336
75,5,20,Ticks_Linear_8,179,1,48,50,817388980
75,5,20,Ticks_Linear_8,180,5,42,127,818008300
75,5,20,Ticks_Linear_8,181,1,48,60,818014632
75,5,20,Ticks_Linear_8,182,1,48,59,818621348
75,5,20,Ticks_Linear_8,183,5,42,127,818648428
75,5,20,Ticks_Linear_8,184,1,48,59,819260044
75,5,20,Ticks_Linear_8,185,5,42,127,819288396
75,5,20,Ticks_Linear_8,186,1,48,57,819915992
75,5,20,Ticks_Linear_8,187,5,42,127,819928384
75,5,20,Ticks_Linear_8,188,1,48,57,820545304
75,5,20,Ticks_Linear_8,189,5,42,127,820568496
75,5,20,Ticks_Linear_8,190,1,48,61,821196388
75,5,20,Ticks_Linear_8,191,5,42,127,821208560
75,5,20,Ticks_Linear_8,192,5,42,127,821848532
75,5,20,Ticks_Linear_8,193,1,48,61,821855996
75,5,20,Ticks_Linear_8,194,5,42,127,822488444
75,5,20,Ticks_Linear_8,195,1,48,64,822513728
75,5,20,Ticks_Linear_8,196,5,42,127,823118152
75,5,20,Ticks_Linear_8,197,1,48,53,823138796
75,5,20,Ticks_Linear_8,198,5,42,127,823737916
75,5,20,Ticks_Linear_8,199,1,48,51,823759912
75,5,20,Ticks_Linear_8,200,5,42,127,824358188
75,5,20,Ticks_Linear_8,201,1,48,59,824365040
75,5,20,Ticks_Linear_8,202,5,42,127,824977856
75,5,20,Ticks_Linear_8,203,1,48,54,824995644
75,5,20,Ticks_Linear_8,204,5,42,127,825598300
75,5,20,Ticks_Linear_8,205,1,48,59,825605076
75,5,20,Ticks_Linear_8,206,5,42,127,826207708
75,5,20,Ticks_Linear_8,207,1,48,64,826225884
75,5,20,Ticks_Linear_8,208,5,42,127,826818040
75,5,20,Ticks_Linear_8,209,1,48,55,826851340
75,5,20,Ticks_Linear_8,210,5,42,127,827428124
75,5,20,Ticks_Linear_8,211,1,48,64,827444420
75,5,20,Ticks_Linear_8,212,1,48,59,828025720
75,5,20,Ticks_Linear_8,213,5,42,127,828037456
75,5,20,Ticks_Linear_8,214,1,48,54,828648016
75,5,20,Ticks_Linear_8,215,5,42,127,828649356
75,5,20,Ticks_Linear_8,216,1,48,57,829228848
75,5,20,Ticks_Linear_8,217,5,42,127,829247988
75,5,20,Ticks_Linear_8,218,1,48,58,829835252
75,5,20,Ticks_Linear_8,219,5,42,127,829847960
75,5,20,Ticks_Linear_8,220,1,48,57,830429276
75,5,20,Ticks_Linear_8,221,5,42,127,830447960
75,5,20,Ticks_Linear_8,222,1,48,61,831040552
75,5,20,Ticks_Linear_8,223,5,42,127,831048008
75,5,20,Ticks_Linear_8,224,5,42,127,831647988
75,5,20,Ticks_Linear_8,225,1,48,58,831658376
75,5,20,Ticks_Linear_8,226,5,42,127,832237804
75,5,20,Ticks_Linear_8,227,1,48,59,832246096
75,5,20,Ticks_Linear_8,228,1,48,57,832825544
75,5,20,Ticks_Linear_8,229,5,42,127,832827960
75,5,20,Ticks_Linear_8,230,1,48,59,833404816
75,5,20,Ticks_Linear_8,231,5,42,127,833417600
75,5,20,Ticks_Linear_8,232,1,48,65,834002424
75,5,20,Ticks_Linear_8,233,5,42,127,834008460
75,5,20,Ticks_Linear_8,234,1,48,62,834584800
75,5,20,Ticks_Linear_8,235,5,42,127,834607464
75,5,20,Ticks_Linear_8,236,1,48,55,835188048
75,5,20,Ticks_Linear_8,237,5,42,127,835189312
75,5,20,Ticks_Linear_8,238,5,42,127,835767828
75,5,20,Ticks_Linear_8,239,1,48,67,835768792
75,5,20,Ticks_Linear_8,240,5,42,127,836348180
75,5,20,Ticks_Linear_8,241,1,48,51,836372936
75,5,20,Ticks_Linear_8,242,5,42,127,836927860
75,5,20,Ticks_Linear_8,243,1,48,53,836934564
75,5,20,Ticks_Linear_8,244,1,48,53,837503516
75,5,20,Ticks_Linear_8,245,5,42,127,837507312
75,5,20,Ticks_Linear_8,246,5,42,127,838077956
75,5,20,Ticks_Linear_8,247,1,48,52,838092980
75,5,20,Ticks_Linear_8,248,5,42,127,838648052
75,5,20,Ticks_Linear_8,249,1,48,60,838653856
75,5,20,Ticks_Linear_8,250,5,42,127,839217696
75,5,20,Ticks_Linear_8,251,1,48,51,839223436
75,5,20,Ticks_Linear_8,252,5,42,127,839787940
75,5,20,Ticks_Linear_8,253,1,48,58,839806564
75,5,20,Ticks_Linear_8,254,1,48,60,840354084
75,5,20,Ticks_Linear_8,255,5,42,127,840358252
75,5,20,Ticks_Linear_8,256,5,42,127,840918564
75,5,20,Ticks_Linear_8,257,1,48,59,840930600
75,5,20,Ticks_Linear_8,258,5,42,127,841477504
75,5,20,Ticks_Linear_8,259,1,48,65,841491104
75,5,20,Ticks_Linear_8,260,5,42,127,842037636
75,5,20,Ticks_Linear_8,261,1,48,57,842048172
75,5,20,Ticks_Linear_8,262,5,42,127,842597772
75,5,20,Ticks_Linear_8,263,1,48,67,842605152
75,5,20,Ticks_Linear_8,264,5,42,127,843157756
75,5,20,Ticks_Linear_8,265,1,48,67,843170756
75,5,20,Ticks_Linear_8,266,5,42,127,843707732
75,5,20,Ticks_Linear_8,267,1,48,69,843719836
75,5,20,Ticks_Linear_8,268,5,42,127,844257756
75,5,20,Ticks_Linear_8,269,1,48,65,844276676
75,5,20,Ticks_Linear_8,270,1,48,65,844805964
75,5,20,Ticks_Linear_8,271,5,42,127,844807620
75,5,20,Ticks_Linear_8,272,5,42,127,845357428
75,5,20,Ticks_Linear_8,273,1,48,61,845365716
75,5,20,Ticks_Linear_8,274,1,48,59,845904028
75,5,20,Ticks_Linear_8,275,5,42,127,845908416
75,5,20,Ticks_Linear_8,276,5,42,127,846447892
75,5,20,Ticks_Linear_8,277,1,48,53,846469656
75,5,20,Ticks_Linear_8,278,5,42,127,846987580
75,5,20,Ticks_Linear_8,279,1,48,55,847000432
75,5,20,Ticks_Linear_8,280,5,42,127,847528392
75,5,20,Ticks_Linear_8,281,1,48,54,847546820
75,5,20,Ticks_Linear_8,282,1,48,55,848063712
75,5,20,Ticks_Linear_8,283,5,42,127,848068028
75,5,20,Ticks_Linear_8,284,5,42,127,848607648
75,5,20,Ticks_Linear_8,285,1,48,49,848610768
75,5,20,Ticks_Linear_8,286,5,42,127,849138052
75,5,20,Ticks_Linear_8,287,1,48,53,849141320
75,5,20,Ticks_Linear_8,288,5,42,127,849667708
75,5,20,Ticks_Linear_8,289,1,48,58,849669044
75,5,20,Ticks_Linear_8,290,1,48,52,850193564
75,5,20,Ticks_Linear_8,291,5,42,127,850197804
75,5,20,Ticks_Linear_8,292,1,48,57,850697016
75,5,20,Ticks_Linear_8,293,5,42,127,850728360
75,5,20,Ticks_Linear_8,294,1,48,57,851237752
75,5,20,Ticks_Linear_8,295,5,42,127,851257864
75,5,20,Ticks_Linear_8,296,1,48,61,851778012
75,5,20,Ticks_Linear_8,297,5,42,127,851779424
75,5,20,Ticks_Linear_8,298,5,42,127,852298232
75,5,20,Ticks_Linear_8,299,1,48,60,852319100
75,5,20,Ticks_Linear_8,300,5,42,127,852818600
75,5,20,Ticks_Linear_8,301,1,48,59,852846740
75,5,20,Ticks_Linear_8,302,5,42,127,853337548
75,5,20,Ticks_Linear_8,303,1,48,60,853342760
75,5,20,Ticks_Linear_8,304,5,42,127,853857620
75,5,20,Ticks_Linear_8,305,1,48,58,853860212
75,5,20,Ticks_Linear_8,306,5,42,127,854367504
75,5,20,Ticks_Linear_8,307,1,48,55,854374284
75,5,20,Ticks_Linear_8,308,5,42,127,854877536
75,5,20,Ticks_Linear_8,309,1,48,54,854888296
75,5,20,Ticks_Linear_8,310,5,42,127,855387572
75,5,20,Ticks_Linear_8,311,1,48,55,855398180
75,5,20,Ticks_Linear_8,312,1,48,51,855896556
75,5,20,Ticks_Linear_8,313,5,42,127,855898044
75,5,20,Ticks_Linear_8,314,1,48,51,856407412
75,5,20,Ticks_Linear_8,315,5,42,127,856408752
75,5,20,Ticks_Linear_8,316,5,42,127,856918348
75,5,20,Ticks_Linear_8,317,1,48,56,856925444
75,5,20,Ticks_Linear_8,318,5,42,127,857418048
75,5,20,Ticks_Linear_8,319,1,48,61,857419984
75,5,20,Ticks_Linear_8,320,5,42,127,857917748
75,5,20,Ticks_Linear_8,321,1,48,53,857936148
75,5,20,Ticks_Linear_8,322,5,42,127,858417524
75,5,20,Ticks_Linear_8,323,1,48,52,858425516
75,5,20,Ticks_Linear_8,324,5,42,127,858918420
75,5,20,Ticks_Linear_8,325,1,48,51,858922660
75,5,20,Ticks_Linear_8,326,1,48,57,859399204
75,5,20,Ticks_Linear_8,327,5,42,127,859407780
75,5,20,Ticks_Linear_8,328,1,48,54,859891484
75,5,20,Ticks_Linear_8,329,5,42,127,859898416
75,5,20,Ticks_Linear_8,330,5,42,127,860387716
75,5,20,Ticks_Linear_8,331,1,48,54,860403112
75,5,20,Ticks_Linear_8,332,1,48,61,860871412
75,5,20,Ticks_Linear_8,333,5,42,127,860878196
75,5,20,Ticks_Linear_8,334,1,48,57,861359408
75,5,20,Ticks_Linear_8,335,5,42,127,861367640
75,5,20,Ticks_Linear_8,0,9999,9999,9999,750725196
75,5,20,Ticks_Linear_8,1,9999,9999,9999,751545408
75,5,20,Ticks_Linear_8,2,9999,9999,9999,752365672
75,5,20,Ticks_Linear_8,3,9999,9999,9999,753185860
75,5,20,Ticks_Linear_8,4,9999,9999,9999,754006128
75,5,20,Ticks_Linear_8,5,9999,9999,9999,754816112
75,5,20,Ticks_Linear_8,6,9999,9999,9999,755635304
75,5,20,Ticks_Linear_8,7,9999,9999,9999,756445312
75,5,20,Ticks_Linear_8,8,9999,9999,9999,757255288
75,5,20,Ticks_Linear_8,9,9999,9999,9999,758065276
75,5,20,Ticks_Linear_8,10,9999,9999,9999,758865976
75,5,20,Ticks_Linear_8,11,9999,9999,9999,759665776
75,5,20,Ticks_Linear_8,12,9999,9999,9999,760465500
75,5,20,Ticks_Linear_8,13,9999,9999,9999,761265224
75,5,20,Ticks_Linear_8,14,9999,9999,9999,762066012
75,5,20,Ticks_Linear_8,15,9999,9999,9999,762855484
75,5,20,Ticks_Linear_8,16,9999,9999,9999,763646068
75,5,20,Ticks_Linear_8,17,9999,9999,9999,764435536
75,5,20,Ticks_Linear_8,18,9999,9999,9999,765226048
75,5,20,Ticks_Linear_8,19,9999,9999,9999,766015580
75,5,20,Ticks_Linear_8,20,9999,9999,9999,766795840
75,5,20,Ticks_Linear_8,21,9999,9999,9999,767575120
75,5,20,Ticks_Linear_8,22,9999,9999,9999,768355448
75,5,20,Ticks_Linear_8,23,9999,9999,9999,769135692
75,5,20,Ticks_Linear_8,24,9999,9999,9999,769916020
75,5,20,Ticks_Linear_8,25,9999,9999,9999,770686020
75,5,20,Ticks_Linear_8,26,9999,9999,9999,771456092
75,5,20,Ticks_Linear_8,27,9999,9999,9999,772235368
75,5,20,Ticks_Linear_8,28,9999,9999,9999,773005436
75,5,20,Ticks_Linear_8,29,9999,9999,9999,773775432
75,5,20,Ticks_Linear_8,30,9999,9999,9999,774535232
75,5,20,Ticks_Linear_8,31,9999,9999,9999,775296096
75,5,20,Ticks_Linear_8,32,9999,9999,9999,776065108
75,5,20,Ticks_Linear_8,33,9999,9999,9999,776825972
75,5,20,Ticks_Linear_8,34,9999,9999,9999,777585780
75,5,20,Ticks_Linear_8,35,9999,9999,9999,778335332
75,5,20,Ticks_Linear_8,36,9999,9999,9999,779085924
75,5,20,Ticks_Linear_8,37,9999,9999,9999,779835476
75,5,20,Ticks_Linear_8,38,9999,9999,9999,780586088
75,5,20,Ticks_Linear_8,39,9999,9999,9999,781335624
75,5,20,Ticks_Linear_8,40,9999,9999,9999,782075960
75,5,20,Ticks_Linear_8,41,9999,9999,9999,782815324
75,5,20,Ticks_Linear_8,42,9999,9999,9999,783555660
75,5,20,Ticks_Linear_8,43,9999,9999,9999,784296048
75,5,20,Ticks_Linear_8,44,9999,9999,9999,785035340
75,5,20,Ticks_Linear_8,45,9999,9999,9999,785765484
75,5,20,Ticks_Linear_8,46,9999,9999,9999,786495568
75,5,20,Ticks_Linear_8,47,9999,9999,9999,787225720
75,5,20,Ticks_Linear_8,48,9999,9999,9999,787955800
75,5,20,Ticks_Linear_8,49,9999,9999,9999,788685876
75,5,20,Ticks_Linear_8,50,9999,9999,9999,789405820
75,5,20,Ticks_Linear_8,51,9999,9999,9999,790125632
75,5,20,Ticks_Linear_8,52,9999,9999,9999,790845528
75,5,20,Ticks_Linear_8,53,9999,9999,9999,791565420
75,5,20,Ticks_Linear_8,54,9999,9999,9999,792285240
75,5,20,Ticks_Linear_8,55,9999,9999,9999,792995900
75,5,20,Ticks_Linear_8,56,9999,9999,9999,793705540
75,5,20,Ticks_Linear_8,57,9999,9999,9999,794415176
75,5,20,Ticks_Linear_8,58,9999,9999,9999,795125856
75,5,20,Ticks_Linear_8,59,9999,9999,9999,795835484
75,5,20,Ticks_Linear_8,60,9999,9999,9999,796535880
75,5,20,Ticks_Linear_8,61,9999,9999,9999,797235264
75,5,20,Ticks_Linear_8,62,9999,9999,9999,797935688
75,5,20,Ticks_Linear_8,63,9999,9999,9999,798635112
75,5,20,Ticks_Linear_8,64,9999,9999,9999,799335532
75,5,20,Ticks_Linear_8,65,9999,9999,9999,800025696
75,5,20,Ticks_Linear_8,66,9999,9999,9999,800715860
75,5,20,Ticks_Linear_8,67,9999,9999,9999,801406076
75,5,20,Ticks_Linear_8,68,9999,9999,9999,802095188
75,5,20,Ticks_Linear_8,69,9999,9999,9999,802785348
75,5,20,Ticks_Linear_8,70,9999,9999,9999,803465308
75,5,20,Ticks_Linear_8,71,9999,9999,9999,804145212
75,5,20,Ticks_Linear_8,72,9999,9999,9999,804825192
75,5,20,Ticks_Linear_8,73,9999,9999,9999,805505144
75,5,20,Ticks_Linear_8,74,9999,9999,9999,806186096
75,5,20,Ticks_Linear_8,75,9999,9999,9999,806855740
75,5,20,Ticks_Linear_8,76,9999,9999,9999,807525436
75,5,20,Ticks_Linear_8,77,9999,9999,9999,808195148
75,5,20,Ticks_Linear_8,78,9999,9999,9999,808865896
75,5,20,Ticks_Linear_8,79,9999,9999,9999,809535612
75,5,20,Ticks_Linear_8,80,9999,9999,9999,810196044
75,5,20,Ticks_Linear_8,81,9999,9999,9999,810855512
75,5,20,Ticks_Linear_8,82,9999,9999,9999,811515996
75,5,20,Ticks_Linear_8,83,9999,9999,9999,812175432
75,5,20,Ticks_Linear_8,84,9999,9999,9999,812835940
75,5,20,Ticks_Linear_8,85,9999,9999,9999,813485116
75,5,20,Ticks_Linear_8,86,9999,9999,9999,814135356
75,5,20,Ticks_Linear_8,87,9999,9999,9999,814785604
75,5,20,Ticks_Linear_8,88,9999,9999,9999,815435832
75,5,20,Ticks_Linear_8,89,9999,9999,9999,816086084
75,5,20,Ticks_Linear_8,90,9999,9999,9999,816726088
75,5,20,Ticks_Linear_8,91,9999,9999,9999,817366112
75,5,20,Ticks_Linear_8,92,9999,9999,9999,818006076
75,5,20,Ticks_Linear_8,93,9999,9999,9999,818646132
75,5,20,Ticks_Linear_8,94,9999,9999,9999,819286096
75,5,20,Ticks_Linear_8,95,9999,9999,9999,819926084
75,5,20,Ticks_Linear_8,96,9999,9999,9999,820566124
75,5,20,Ticks_Linear_8,97,9999,9999,9999,821206112
75,5,20,Ticks_Linear_8,98,9999,9999,9999,821846084
75,5,20,Ticks_Linear_8,99,9999,9999,9999,822486144
75,5,20,Ticks_Linear_8,100,9999,9999,9999,823115848
75,5,20,Ticks_Linear_8,101,9999,9999,9999,823735392
75,5,20,Ticks_Linear_8,102,9999,9999,9999,824355960
75,5,20,Ticks_Linear_8,103,9999,9999,9999,824975480
75,5,20,Ticks_Linear_8,104,9999,9999,9999,825595996
75,5,20,Ticks_Linear_8,105,9999,9999,9999,826205260
75,5,20,Ticks_Linear_8,106,9999,9999,9999,826815592
75,5,20,Ticks_Linear_8,107,9999,9999,9999,827425900
75,5,20,Ticks_Linear_8,108,9999,9999,9999,828035156
75,5,20,Ticks_Linear_8,109,9999,9999,9999,828645492
75,5,20,Ticks_Linear_8,110,9999,9999,9999,829245536
75,5,20,Ticks_Linear_8,111,9999,9999,9999,829845584
75,5,20,Ticks_Linear_8,112,9999,9999,9999,830445660
75,5,20,Ticks_Linear_8,113,9999,9999,9999,831045708
75,5,20,Ticks_Linear_8,114,9999,9999,9999,831645760
75,5,20,Ticks_Linear_8,115,9999,9999,9999,832235580
75,5,20,Ticks_Linear_8,116,9999,9999,9999,832825400
75,5,20,Ticks_Linear_8,117,9999,9999,9999,833415224
75,5,20,Ticks_Linear_8,118,9999,9999,9999,834006088
75,5,20,Ticks_Linear_8,119,9999,9999,9999,834605164
75,5,20,Ticks_Linear_8,120,9999,9999,9999,835185748
75,5,20,Ticks_Linear_8,121,9999,9999,9999,835765304
75,5,20,Ticks_Linear_8,122,9999,9999,9999,836345952
75,5,20,Ticks_Linear_8,123,9999,9999,9999,836925560
75,5,20,Ticks_Linear_8,124,9999,9999,9999,837505084
75,5,20,Ticks_Linear_8,125,9999,9999,9999,838075508
75,5,20,Ticks_Linear_8,126,9999,9999,9999,838645824
75,5,20,Ticks_Linear_8,127,9999,9999,9999,839215172
75,5,20,Ticks_Linear_8,128,9999,9999,9999,839785564
75,5,20,Ticks_Linear_8,129,9999,9999,9999,840355952
75,5,20,Ticks_Linear_8,130,9999,9999,9999,840916040
75,5,20,Ticks_Linear_8,131,9999,9999,9999,841475128
75,5,20,Ticks_Linear_8,132,9999,9999,9999,842035260
75,5,20,Ticks_Linear_8,133,9999,9999,9999,842595396
75,5,20,Ticks_Linear_8,134,9999,9999,9999,843155528
75,5,20,Ticks_Linear_8,135,9999,9999,9999,843705428
75,5,20,Ticks_Linear_8,136,9999,9999,9999,844255304
75,5,20,Ticks_Linear_8,137,9999,9999,9999,844805180
75,5,20,Ticks_Linear_8,138,9999,9999,9999,845355124
75,5,20,Ticks_Linear_8,139,9999,9999,9999,845906040
75,5,20,Ticks_Linear_8,140,9999,9999,9999,846445664
75,5,20,Ticks_Linear_8,141,9999,9999,9999,846985280
75,5,20,Ticks_Linear_8,142,9999,9999,9999,847525940
75,5,20,Ticks_Linear_8,143,9999,9999,9999,848065652
75,5,20,Ticks_Linear_8,144,9999,9999,9999,848605272
75,5,20,Ticks_Linear_8,145,9999,9999,9999,849135676
75,5,20,Ticks_Linear_8,146,9999,9999,9999,849665108
75,5,20,Ticks_Linear_8,147,9999,9999,9999,850195580
75,5,20,Ticks_Linear_8,148,9999,9999,9999,850725984
75,5,20,Ticks_Linear_8,149,9999,9999,9999,851255412
75,5,20,Ticks_Linear_8,150,9999,9999,9999,851775564
75,5,20,Ticks_Linear_8,151,9999,9999,9999,852295784
75,5,20,Ticks_Linear_8,152,9999,9999,9999,852815928
75,5,20,Ticks_Linear_8,153,9999,9999,9999,853335100
75,5,20,Ticks_Linear_8,154,9999,9999,9999,853855316
75,5,20,Ticks_Linear_8,155,9999,9999,9999,854365276
75,5,20,Ticks_Linear_8,156,9999,9999,9999,854875236
75,5,20,Ticks_Linear_8,157,9999,9999,9999,855385196
75,5,20,Ticks_Linear_8,158,9999,9999,9999,855895156
75,5,20,Ticks_Linear_8,159,9999,9999,9999,856406088
75,5,20,Ticks_Linear_8,160,9999,9999,9999,856916048
75,5,20,Ticks_Linear_8,161,9999,9999,9999,857415748
75,5,20,Ticks_Linear_8,162,9999,9999,9999,857915448
75,5,20,Ticks_Linear_8,163,9999,9999,9999,858415220
75,5,20,Ticks_Linear_8,164,9999,9999,9999,858915968
75,5,20,Ticks_Linear_8,165,9999,9999,9999,859405404
75,5,20,Ticks_Linear_8,166,9999,9999,9999,859895892
75,5,20,Ticks_Linear_8,167,9999,9999,9999,860385340
75,5,20,Ticks_Linear_8,168,9999,9999,9999,860875896
75,5,20,Ticks_Linear_8,169,9999,9999,9999,861365336
75,6,21,Ticks_Linear_5,0,5,42,127,871743748
75,6,21,Ticks_Linear_5,1,5,42,127,872224148
75,6,21,Ticks_Linear_5,2,5,42,127,872704400
75,6,21,Ticks_Linear_5,3,5,42,127,873183600
75,6,21,Ticks_Linear_5,4,1,48,87,873656392
75,6,21,Ticks_Linear_5,5,5,42,127,873663992
75,6,21,Ticks_Linear_5,6,1,48,91,874133004
75,6,21,Ticks_Linear_5,7,5,42,127,874154308
75,6,21,Ticks_Linear_5,8,1,48,99,874625512
75,6,21,Ticks_Linear_5,9,5,42,127,874643972
75,6,21,Ticks_Linear_5,10,1,48,95,875115552
75,6,21,Ticks_Linear_5,11,5,42,127,875134236
75,6,21,Ticks_Linear_5,12,1,48,93,875612408
75,6,21,Ticks_Linear_5,13,5,42,127,875623752
75,6,21,Ticks_Linear_5,14,1,48,83,876097344
75,6,21,Ticks_Linear_5,15,5,42,127,876114240
75,6,21,Ticks_Linear_5,16,1,48,75,876588880
75,6,21,Ticks_Linear_5,17,5,42,127,876613936
75,6,21,Ticks_Linear_5,18,1,48,70,877071276
75,6,21,Ticks_Linear_5,19,5,42,127,877113712
75,6,21,Ticks_Linear_5,20,1,48,70,877585512
75,6,21,Ticks_Linear_5,21,5,42,127,877613484
75,6,21,Ticks_Linear_5,22,1,48,67,878080708
75,6,21,Ticks_Linear_5,23,5,42,127,878114084
75,6,21,Ticks_Linear_5,24,1,48,72,878593748
75,6,21,Ticks_Linear_5,25,5,42,127,878613856
75,6,21,Ticks_Linear_5,26,1,48,66,879104380
75,6,21,Ticks_Linear_5,27,5,42,127,879124040
75,6,21,Ticks_Linear_5,28,1,48,60,879615464
75,6,21,Ticks_Linear_5,29,5,42,127,879634072
75,6,21,Ticks_Linear_5,30,1,48,57,880124596
75,6,21,Ticks_Linear_5,31,5,42,127,880144032
75,6,21,Ticks_Linear_5,32,1,48,61,880650504
75,6,21,Ticks_Linear_5,33,5,42,127,880653620
75,6,21,Ticks_Linear_5,34,1,48,60,881163736
75,6,21,Ticks_Linear_5,35,5,42,127,881165072
75,6,21,Ticks_Linear_5,36,1,48,57,881676040
75,6,21,Ticks_Linear_5,37,5,42,127,881683796
75,6,21,Ticks_Linear_5,38,1,48,57,882171540
75,6,21,Ticks_Linear_5,39,5,42,127,882204016
75,6,21,Ticks_Linear_5,40,1,48,56,882720148
75,6,21,Ticks_Linear_5,41,5,42,127,882724160
75,6,21,Ticks_Linear_5,42,1,48,55,883240216
75,6,21,Ticks_Linear_5,43,5,42,127,883244380
75,6,21,Ticks_Linear_5,44,1,48,56,883757740
75,6,21,Ticks_Linear_5,45,5,42,127,883763624
75,6,21,Ticks_Linear_5,46,1,48,55,884266352
75,6,21,Ticks_Linear_5,47,5,42,127,884293952
75,6,21,Ticks_Linear_5,48,1,48,63,884798704
75,6,21,Ticks_Linear_5,49,5,42,127,884824432
75,6,21,Ticks_Linear_5,50,1,48,58,885327308
75,6,21,Ticks_Linear_5,51,5,42,127,885364044
75,6,21,Ticks_Linear_5,52,1,48,57,885875460
75,6,21,Ticks_Linear_5,53,5,42,127,885893476
75,6,21,Ticks_Linear_5,54,1,48,54,886418968
75,6,21,Ticks_Linear_5,55,5,42,127,886423804
75,6,21,Ticks_Linear_5,56,1,48,50,886961380
75,6,21,Ticks_Linear_5,57,5,42,127,886963568
75,6,21,Ticks_Linear_5,58,5,42,127,887504164
75,6,21,Ticks_Linear_5,59,1,48,57,887517840
75,6,21,Ticks_Linear_5,60,1,48,61,888017072
75,6,21,Ticks_Linear_5,61,5,42,127,888043844
75,6,21,Ticks_Linear_5,62,1,48,57,888560348
75,6,21,Ticks_Linear_5,63,5,42,127,888583832
75,6,21,Ticks_Linear_5,64,1,48,52,889098988
75,6,21,Ticks_Linear_5,65,5,42,127,889124124
75,6,21,Ticks_Linear_5,66,1,48,52,889648420
75,6,21,Ticks_Linear_5,67,5,42,127,889674072
75,6,21,Ticks_Linear_5,68,1,48,51,890190648
75,6,21,Ticks_Linear_5,69,5,42,127,890224020
75,6,21,Ticks_Linear_5,70,1,48,54,890746808
75,6,21,Ticks_Linear_5,71,5,42,127,890773888
75,6,21,Ticks_Linear_5,72,1,48,51,891312940
75,6,21,Ticks_Linear_5,73,5,42,127,891323692
75,6,21,Ticks_Linear_5,74,1,48,56,891867976
75,6,21,Ticks_Linear_5,75,5,42,127,891873640
75,6,21,Ticks_Linear_5,76,1,48,52,892408268
75,6,21,Ticks_Linear_5,77,5,42,127,892433696
75,6,21,Ticks_Linear_5,78,1,48,57,892993612
75,6,21,Ticks_Linear_5,79,5,42,127,892995100
75,6,21,Ticks_Linear_5,80,5,42,127,893553896
75,6,21,Ticks_Linear_5,81,1,48,54,893567720
75,6,21,Ticks_Linear_5,82,1,48,55,894106040
75,6,21,Ticks_Linear_5,83,5,42,127,894114244
75,6,21,Ticks_Linear_5,84,5,42,127,894674260
75,6,21,Ticks_Linear_5,85,1,48,53,894687492
75,6,21,Ticks_Linear_5,86,5,42,127,895243828
75,6,21,Ticks_Linear_5,87,1,48,57,895254436
75,6,21,Ticks_Linear_5,88,5,42,127,895813996
75,6,21,Ticks_Linear_5,89,1,48,52,895823708
75,6,21,Ticks_Linear_5,90,5,42,127,896384388
75,6,21,Ticks_Linear_5,91,1,48,59,896386984
75,6,21,Ticks_Linear_5,92,5,42,127,896953760
75,6,21,Ticks_Linear_5,93,1,48,64,896963248
75,6,21,Ticks_Linear_5,94,5,42,127,897524152
75,6,21,Ticks_Linear_5,95,1,48,51,897539104
75,6,21,Ticks_Linear_5,96,1,48,54,898090744
75,6,21,Ticks_Linear_5,97,5,42,127,898103748
75,6,21,Ticks_Linear_5,98,1,48,53,898659792
75,6,21,Ticks_Linear_5,99,5,42,127,898684324
75,6,21,Ticks_Linear_5,100,1,48,50,899260544
75,6,21,Ticks_Linear_5,101,5,42,127,899263880
75,6,21,Ticks_Linear_5,102,5,42,127,899843640
75,6,21,Ticks_Linear_5,103,1,48,51,899861968
75,6,21,Ticks_Linear_5,104,5,42,127,900423996
75,6,21,Ticks_Linear_5,105,1,48,53,900430856
75,6,21,Ticks_Linear_5,106,1,48,50,901005272
75,6,21,Ticks_Linear_5,107,5,42,127,901013924
75,6,21,Ticks_Linear_5,108,1,48,46,901592992
75,6,21,Ticks_Linear_5,109,5,42,127,901603816
75,6,21,Ticks_Linear_5,110,1,48,59,902192632
75,6,21,Ticks_Linear_5,111,5,42,127,902194048
75,6,21,Ticks_Linear_5,112,1,48,53,902782328
75,6,21,Ticks_Linear_5,113,5,42,127,902784292
75,6,21,Ticks_Linear_5,114,5,42,127,903374336
75,6,21,Ticks_Linear_5,115,1,48,56,903375600
75,6,21,Ticks_Linear_5,116,1,48,65,903965952
75,6,21,Ticks_Linear_5,117,5,42,127,903974380
75,6,21,Ticks_Linear_5,118,5,42,127,904574656
75,6,21,Ticks_Linear_5,119,1,48,52,904577776
75,6,21,Ticks_Linear_5,120,5,42,127,905174432
75,6,21,Ticks_Linear_5,121,1,48,57,905179720
75,6,21,Ticks_Linear_5,122,1,48,57,905765976
75,6,21,Ticks_Linear_5,123,5,42,127,905773652
75,6,21,Ticks_Linear_5,124,1,48,61,906356432
75,6,21,Ticks_Linear_5,125,5,42,127,906373552
75,6,21,Ticks_Linear_5,126,1,48,61,906969608
75,6,21,Ticks_Linear_5,127,5,42,127,906983884
75,6,21,Ticks_Linear_5,128,1,48,57,907575952
75,6,21,Ticks_Linear_5,129,5,42,127,907593968
75,6,21,Ticks_Linear_5,130,1,48,58,908184092
75,6,21,Ticks_Linear_5,131,5,42,127,908204572
75,6,21,Ticks_Linear_5,132,1,48,57,908775480
75,6,21,Ticks_Linear_5,133,5,42,127,908813784
75,6,21,Ticks_Linear_5,134,1,48,59,909368708
75,6,21,Ticks_Linear_5,135,5,42,127,909423944
75,6,21,Ticks_Linear_5,136,1,48,52,910000608
75,6,21,Ticks_Linear_5,137,5,42,127,910043564
75,6,21,Ticks_Linear_5,138,1,48,57,910631508
75,6,21,Ticks_Linear_5,139,5,42,127,910663980
75,6,21,Ticks_Linear_5,140,1,48,55,911264216
75,6,21,Ticks_Linear_5,141,5,42,127,911283452
75,6,21,Ticks_Linear_5,142,1,48,54,911896040
75,6,21,Ticks_Linear_5,143,5,42,127,911904316
75,6,21,Ticks_Linear_5,144,1,48,56,912523916
75,6,21,Ticks_Linear_5,145,5,42,127,912525336
75,6,21,Ticks_Linear_5,146,1,48,54,913145440
75,6,21,Ticks_Linear_5,147,5,42,127,913154540
75,6,21,Ticks_Linear_5,148,1,48,70,913734552
75,6,21,Ticks_Linear_5,149,5,42,127,913794356
75,6,21,Ticks_Linear_5,150,5,42,127,914434500
75,6,21,Ticks_Linear_5,151,1,48,55,914443540
75,6,21,Ticks_Linear_5,152,5,42,127,915074388
75,6,21,Ticks_Linear_5,153,1,48,54,915085448
75,6,21,Ticks_Linear_5,154,1,48,56,915711176
75,6,21,Ticks_Linear_5,155,5,42,127,915714740
75,6,21,Ticks_Linear_5,156,1,48,56,916352900
75,6,21,Ticks_Linear_5,157,5,42,127,916354332
75,6,21,Ticks_Linear_5,158,5,42,127,916994328
75,6,21,Ticks_Linear_5,159,1,48,56,916995664
75,6,21,Ticks_Linear_5,160,5,42,127,917634368
75,6,21,Ticks_Linear_5,161,1,48,53,917650360
75,6,21,Ticks_Linear_5,162,1,48,52,918272764
75,6,21,Ticks_Linear_5,163,5,42,127,918274348
75,6,21,Ticks_Linear_5,164,5,42,127,918914544
75,6,21,Ticks_Linear_5,165,1,48,53,918922760
75,6,21,Ticks_Linear_5,166,1,48,52,919571400
75,6,21,Ticks_Linear_5,167,5,42,127,919574144
75,6,21,Ticks_Linear_5,168,1,48,40,920221624
75,6,21,Ticks_Linear_5,169,5,42,127,920224368
75,6,21,Ticks_Linear_5,170,1,48,57,920874028
75,6,21,Ticks_Linear_5,171,5,42,127,920875512
75,6,21,Ticks_Linear_5,172,1,48,55,921514912
75,6,21,Ticks_Linear_5,173,5,42,127,921523592
75,6,21,Ticks_Linear_5,174,1,48,62,922162472
75,6,21,Ticks_Linear_5,175,5,42,127,922173740
75,6,21,Ticks_Linear_5,176,1,48,69,922818780
75,6,21,Ticks_Linear_5,177,5,42,127,922834248
75,6,21,Ticks_Linear_5,178,1,48,70,923479032
75,6,21,Ticks_Linear_5,179,5,42,127,923493756
75,6,21,Ticks_Linear_5,180,1,48,68,924121504
75,6,21,Ticks_Linear_5,181,5,42,127,924154336
75,6,21,Ticks_Linear_5,182,1,48,62,924801980
75,6,21,Ticks_Linear_5,183,5,42,127,924813624
75,6,21,Ticks_Linear_5,184,5,42,127,925474284
75,6,21,Ticks_Linear_5,185,1,48,56,925477036
75,6,21,Ticks_Linear_5,186,1,48,59,926141032
75,6,21,Ticks_Linear_5,187,5,42,127,926144000
75,6,21,Ticks_Linear_5,188,1,48,61,926801964
75,6,21,Ticks_Linear_5,189,5,42,127,926813544
75,6,21,Ticks_Linear_5,190,1,48,62,927479248
75,6,21,Ticks_Linear_5,191,5,42,127,927484384
75,6,21,Ticks_Linear_5,192,1,48,56,928152344
75,6,21,Ticks_Linear_5,193,5,42,127,928153928
75,6,21,Ticks_Linear_5,194,1,48,62,928814920
75,6,21,Ticks_Linear_5,195,5,42,127,928823648
75,6,21,Ticks_Linear_5,196,1,48,56,929453836
75,6,21,Ticks_Linear_5,197,5,42,127,929503480
75,6,21,Ticks_Linear_5,198,5,42,127,930183436
75,6,21,Ticks_Linear_5,199,1,48,54,930187976
75,6,21,Ticks_Linear_5,200,5,42,127,930863340
75,6,21,Ticks_Linear_5,201,1,48,59,930875072
75,6,21,Ticks_Linear_5,202,5,42,127,931544368
75,6,21,Ticks_Linear_5,203,1,48,50,931547108
75,6,21,Ticks_Linear_5,204,1,48,71,932193572
75,6,21,Ticks_Linear_5,205,5,42,127,932233600
75,6,21,Ticks_Linear_5,206,1,48,69,932917360
75,6,21,Ticks_Linear_5,207,5,42,127,932924060
75,6,21,Ticks_Linear_5,208,5,42,127,933614156
75,6,21,Ticks_Linear_5,209,1,48,64,933621020
75,6,21,Ticks_Linear_5,210,5,42,127,934304296
75,6,21,Ticks_Linear_5,211,1,48,60,934323920
75,6,21,Ticks_Linear_5,212,5,42,127,934994236
75,6,21,Ticks_Linear_5,213,1,48,64,935011356
75,6,21,Ticks_Linear_5,214,1,48,59,935674836
75,6,21,Ticks_Linear_5,215,5,42,127,935683492
75,6,21,Ticks_Linear_5,216,1,48,57,936351416
75,6,21,Ticks_Linear_5,217,5,42,127,936383840
75,6,21,Ticks_Linear_5,218,5,42,127,937084168
75,6,21,Ticks_Linear_5,219,1,48,51,937088188
75,6,21,Ticks_Linear_5,220,1,48,53,937770684
75,6,21,Ticks_Linear_5,221,5,42,127,937783540
75,6,21,Ticks_Linear_5,222,5,42,127,938483968
75,6,21,Ticks_Linear_5,223,1,48,55,938487532
75,6,21,Ticks_Linear_5,224,5,42,127,939183416
75,6,21,Ticks_Linear_5,225,1,48,57,939184384
75,6,21,Ticks_Linear_5,226,5,42,127,939894076
75,6,21,Ticks_Linear_5,227,1,48,57,939897196
75,6,21,Ticks_Linear_5,228,1,48,53,940574980
75,6,21,Ticks_Linear_5,229,5,42,127,940603848
75,6,21,Ticks_Linear_5,230,1,48,52,941295920
75,6,21,Ticks_Linear_5,231,5,42,127,941314380
75,6,21,Ticks_Linear_5,232,1,48,51,941984708
75,6,21,Ticks_Linear_5,233,5,42,127,942034420
75,6,21,Ticks_Linear_5,234,5,42,127,942744040
75,6,21,Ticks_Linear_5,235,1,48,51,942746936
75,6,21,Ticks_Linear_5,236,5,42,127,943463860
75,6,21,Ticks_Linear_5,237,1,48,52,943470944
75,6,21,Ticks_Linear_5,238,5,42,127,944183824
75,6,21,Ticks_Linear_5,239,1,48,49,944190536
75,6,21,Ticks_Linear_5,240,5,42,127,944903644
75,6,21,Ticks_Linear_5,241,1,48,54,944910952
75,6,21,Ticks_Linear_5,242,5,42,127,945624436
75,6,21,Ticks_Linear_5,243,1,48,45,945637360
75,6,21,Ticks_Linear_5,244,1,48,46,946339160
75,6,21,Ticks_Linear_5,245,5,42,127,946353608
75,6,21,Ticks_Linear_5,246,1,48,57,947065944
75,6,21,Ticks_Linear_5,247,5,42,127,947083808
75,6,21,Ticks_Linear_5,248,1,48,45,947807780
75,6,21,Ticks_Linear_5,249,5,42,127,947813960
75,6,21,Ticks_Linear_5,250,1,48,39,948527972
75,6,21,Ticks_Linear_5,251,5,42,127,948543816
75,6,21,Ticks_Linear_5,252,5,42,127,949273904
75,6,21,Ticks_Linear_5,253,1,48,55,949290272
75,6,21,Ticks_Linear_5,254,5,42,127,950004056
75,6,21,Ticks_Linear_5,255,1,48,42,950006720
75,6,21,Ticks_Linear_5,256,1,48,45,950727796
75,6,21,Ticks_Linear_5,257,5,42,127,950744312
75,6,21,Ticks_Linear_5,258,1,48,48,951484980
75,6,21,Ticks_Linear_5,259,5,42,127,951493932
75,6,21,Ticks_Linear_5,260,5,42,127,952234328
75,6,21,Ticks_Linear_5,261,1,48,48,952255748
75,6,21,Ticks_Linear_5,262,5,42,127,952973840
75,6,21,Ticks_Linear_5,263,1,48,49,952975328
75,6,21,Ticks_Linear_5,264,1,48,49,953695264
75,6,21,Ticks_Linear_5,265,5,42,127,953714100
75,6,21,Ticks_Linear_5,266,1,48,50,954455964
75,6,21,Ticks_Linear_5,267,5,42,127,954463796
75,6,21,Ticks_Linear_5,268,1,48,49,955211804
75,6,21,Ticks_Linear_5,269,5,42,127,955214244
75,6,21,Ticks_Linear_5,270,1,48,43,955957684
75,6,21,Ticks_Linear_5,271,5,42,127,955963792
75,6,21,Ticks_Linear_5,272,1,48,42,956712200
75,6,21,Ticks_Linear_5,273,5,42,127,956714316
75,6,21,Ticks_Linear_5,274,1,48,41,957427052
75,6,21,Ticks_Linear_5,275,5,42,127,957463788
75,6,21,Ticks_Linear_5,276,1,48,66,958181924
75,6,21,Ticks_Linear_5,277,5,42,127,958223820
75,6,21,Ticks_Linear_5,278,1,48,51,958974528
75,6,21,Ticks_Linear_5,279,5,42,127,958983556
75,6,21,Ticks_Linear_5,280,5,42,127,959744640
75,6,21,Ticks_Linear_5,281,1,48,50,959762524
75,6,21,Ticks_Linear_5,282,1,48,58,960480132
75,6,21,Ticks_Linear_5,283,5,42,127,960504592
75,6,21,Ticks_Linear_5,284,1,48,68,961257396
75,6,21,Ticks_Linear_5,285,5,42,127,961263956
75,6,21,Ticks_Linear_5,286,1,48,58,962007696
75,6,21,Ticks_Linear_5,287,5,42,127,962034024
75,6,21,Ticks_Linear_5,288,1,48,57,962779484
75,6,21,Ticks_Linear_5,289,5,42,127,962803940
75,6,21,Ticks_Linear_5,290,1,48,56,963532408
75,6,21,Ticks_Linear_5,291,5,42,127,963574084
75,6,21,Ticks_Linear_5,292,1,48,61,964316556
75,6,21,Ticks_Linear_5,293,5,42,127,964344152
75,6,21,Ticks_Linear_5,294,1,48,52,965096884
75,6,21,Ticks_Linear_5,295,5,42,127,965114148
75,6,21,Ticks_Linear_5,296,1,48,56,965877580
75,6,21,Ticks_Linear_5,297,5,42,127,965893504
75,6,21,Ticks_Linear_5,298,1,48,58,966661128
75,6,21,Ticks_Linear_5,299,5,42,127,966673680
75,6,21,Ticks_Linear_5,300,1,48,63,967444684
75,6,21,Ticks_Linear_5,301,5,42,127,967454156
75,6,21,Ticks_Linear_5,302,5,42,127,968234492
75,6,21,Ticks_Linear_5,303,1,48,54,968251848
75,6,21,Ticks_Linear_5,304,5,42,127,969013548
75,6,21,Ticks_Linear_5,305,1,48,52,969031560
75,6,21,Ticks_Linear_5,306,1,48,55,969790976
75,6,21,Ticks_Linear_5,307,5,42,127,969804204
75,6,21,Ticks_Linear_5,308,1,48,58,970559172
75,6,21,Ticks_Linear_5,309,5,42,127,970593592
75,6,21,Ticks_Linear_5,310,1,48,59,971372236
75,6,21,Ticks_Linear_5,311,5,42,127,971384476
75,6,21,Ticks_Linear_5,312,1,48,59,972158028
75,6,21,Ticks_Linear_5,313,5,42,127,972173644
75,6,21,Ticks_Linear_5,314,1,48,60,972916260
75,6,21,Ticks_Linear_5,315,5,42,127,972964304
75,6,21,Ticks_Linear_5,316,1,48,57,973759816
75,6,21,Ticks_Linear_5,317,5,42,127,973763904
75,6,21,Ticks_Linear_5,318,5,42,127,974563560
75,6,21,Ticks_Linear_5,319,1,48,62,974565496
75,6,21,Ticks_Linear_5,320,1,48,78,975353576
75,6,21,Ticks_Linear_5,321,5,42,127,975363424
75,6,21,Ticks_Linear_5,322,5,42,127,976164352
75,6,21,Ticks_Linear_5,323,1,48,71,976172344
75,6,21,Ticks_Linear_5,324,1,48,80,976960352
75,6,21,Ticks_Linear_5,325,5,42,127,976964292
75,6,21,Ticks_Linear_5,326,1,48,66,977740308
75,6,21,Ticks_Linear_5,327,5,42,127,977774052
75,6,21,Ticks_Linear_5,328,1,48,70,978561072
75,6,21,Ticks_Linear_5,329,5,42,127,978583884
75,6,21,Ticks_Linear_5,330,1,48,57,979347096
75,6,21,Ticks_Linear_5,331,5,42,127,979393816
75,6,21,Ticks_Linear_5,332,1,48,64,980198740
75,6,21,Ticks_Linear_5,333,5,42,127,980203876
75,6,21,Ticks_Linear_5,334,1,48,54,981001232
75,6,21,Ticks_Linear_5,335,5,42,127,981013932
75,6,21,Ticks_Linear_5,0,9999,9999,9999,871741524
75,6,21,Ticks_Linear_5,1,9999,9999,9999,872221776
75,6,21,Ticks_Linear_5,2,9999,9999,9999,872702024
75,6,21,Ticks_Linear_5,3,9999,9999,9999,873181300
75,6,21,Ticks_Linear_5,4,9999,9999,9999,873661548
75,6,21,Ticks_Linear_5,5,9999,9999,9999,874152008
75,6,21,Ticks_Linear_5,6,9999,9999,9999,874641524
75,6,21,Ticks_Linear_5,7,9999,9999,9999,875132012
75,6,21,Ticks_Linear_5,8,9999,9999,9999,875621452
75,6,21,Ticks_Linear_5,9,9999,9999,9999,876111940
75,6,21,Ticks_Linear_5,10,9999,9999,9999,876611640
75,6,21,Ticks_Linear_5,11,9999,9999,9999,877111412
75,6,21,Ticks_Linear_5,12,9999,9999,9999,877611112
75,6,21,Ticks_Linear_5,13,9999,9999,9999,878111860
75,6,21,Ticks_Linear_5,14,9999,9999,9999,878611560
75,6,21,Ticks_Linear_5,15,9999,9999,9999,879121520
75,6,21,Ticks_Linear_5,16,9999,9999,9999,879631476
75,6,21,Ticks_Linear_5,17,9999,9999,9999,880141436
75,6,21,Ticks_Linear_5,18,9999,9999,9999,880651324
75,6,21,Ticks_Linear_5,19,9999,9999,9999,881161288
75,6,21,Ticks_Linear_5,20,9999,9999,9999,881681500
75,6,21,Ticks_Linear_5,21,9999,9999,9999,882201716
75,6,21,Ticks_Linear_5,22,9999,9999,9999,882721864
75,6,21,Ticks_Linear_5,23,9999,9999,9999,883242084
75,6,21,Ticks_Linear_5,24,9999,9999,9999,883761252
75,6,21,Ticks_Linear_5,25,9999,9999,9999,884291656
75,6,21,Ticks_Linear_5,26,9999,9999,9999,884822132
75,6,21,Ticks_Linear_5,27,9999,9999,9999,885361744
75,6,21,Ticks_Linear_5,28,9999,9999,9999,885891176
75,6,21,Ticks_Linear_5,29,9999,9999,9999,886421580
75,6,21,Ticks_Linear_5,30,9999,9999,9999,886961240
75,6,21,Ticks_Linear_5,31,9999,9999,9999,887501940
75,6,21,Ticks_Linear_5,32,9999,9999,9999,888041548
75,6,21,Ticks_Linear_5,33,9999,9999,9999,888581236
75,6,21,Ticks_Linear_5,34,9999,9999,9999,889121900
75,6,21,Ticks_Linear_5,35,9999,9999,9999,889671772
75,6,21,Ticks_Linear_5,36,9999,9999,9999,890221648
75,6,21,Ticks_Linear_5,37,9999,9999,9999,890771516
75,6,21,Ticks_Linear_5,38,9999,9999,9999,891321468
75,6,21,Ticks_Linear_5,39,9999,9999,9999,891871340
75,6,21,Ticks_Linear_5,40,9999,9999,9999,892431472
75,6,21,Ticks_Linear_5,41,9999,9999,9999,892991612
75,6,21,Ticks_Linear_5,42,9999,9999,9999,893551672
75,6,21,Ticks_Linear_5,43,9999,9999,9999,894111872
75,6,21,Ticks_Linear_5,44,9999,9999,9999,894671960
75,6,21,Ticks_Linear_5,45,9999,9999,9999,895241308
75,6,21,Ticks_Linear_5,46,9999,9999,9999,895811700
75,6,21,Ticks_Linear_5,47,9999,9999,9999,896382016
75,6,21,Ticks_Linear_5,48,9999,9999,9999,896951388
75,6,21,Ticks_Linear_5,49,9999,9999,9999,897521780
75,6,21,Ticks_Linear_5,50,9999,9999,9999,898101300
75,6,21,Ticks_Linear_5,51,9999,9999,9999,898681952
75,6,21,Ticks_Linear_5,52,9999,9999,9999,899261508
75,6,21,Ticks_Linear_5,53,9999,9999,9999,899841120
75,6,21,Ticks_Linear_5,54,9999,9999,9999,900421696
75,6,21,Ticks_Linear_5,55,9999,9999,9999,901011552
75,6,21,Ticks_Linear_5,56,9999,9999,9999,901601368
75,6,21,Ticks_Linear_5,57,9999,9999,9999,902191164
75,6,21,Ticks_Linear_5,58,9999,9999,9999,902782032
75,6,21,Ticks_Linear_5,59,9999,9999,9999,903371888
75,6,21,Ticks_Linear_5,60,9999,9999,9999,903971932
75,6,21,Ticks_Linear_5,61,9999,9999,9999,904571984
75,6,21,Ticks_Linear_5,62,9999,9999,9999,905172056
75,6,21,Ticks_Linear_5,63,9999,9999,9999,905771132
75,6,21,Ticks_Linear_5,64,9999,9999,9999,906371180
75,6,21,Ticks_Linear_5,65,9999,9999,9999,906981436
75,6,21,Ticks_Linear_5,66,9999,9999,9999,907591744
75,6,21,Ticks_Linear_5,67,9999,9999,9999,908202052
75,6,21,Ticks_Linear_5,68,9999,9999,9999,908811336
75,6,21,Ticks_Linear_5,69,9999,9999,9999,909421644
75,6,21,Ticks_Linear_5,70,9999,9999,9999,910041192
75,6,21,Ticks_Linear_5,71,9999,9999,9999,910661756
75,6,21,Ticks_Linear_5,72,9999,9999,9999,911281228
75,6,21,Ticks_Linear_5,73,9999,9999,9999,911901796
75,6,21,Ticks_Linear_5,74,9999,9999,9999,912521320
75,6,21,Ticks_Linear_5,75,9999,9999,9999,913152092
75,6,21,Ticks_Linear_5,76,9999,9999,9999,913792056
75,6,21,Ticks_Linear_5,77,9999,9999,9999,914432128
75,6,21,Ticks_Linear_5,78,9999,9999,9999,915072088
75,6,21,Ticks_Linear_5,79,9999,9999,9999,915712072
75,6,21,Ticks_Linear_5,80,9999,9999,9999,916352116
75,6,21,Ticks_Linear_5,81,9999,9999,9999,916992104
75,6,21,Ticks_Linear_5,82,9999,9999,9999,917632068
75,6,21,Ticks_Linear_5,83,9999,9999,9999,918272064
75,6,21,Ticks_Linear_5,84,9999,9999,9999,918912092
75,6,21,Ticks_Linear_5,85,9999,9999,9999,919571548
75,6,21,Ticks_Linear_5,86,9999,9999,9999,920221772
75,6,21,Ticks_Linear_5,87,9999,9999,9999,920872024
75,6,21,Ticks_Linear_5,88,9999,9999,9999,921521220
75,6,21,Ticks_Linear_5,89,9999,9999,9999,922171516
75,6,21,Ticks_Linear_5,90,9999,9999,9999,922831948
75,6,21,Ticks_Linear_5,91,9999,9999,9999,923491384
75,6,21,Ticks_Linear_5,92,9999,9999,9999,924151892
75,6,21,Ticks_Linear_5,93,9999,9999,9999,924811328
75,6,21,Ticks_Linear_5,94,9999,9999,9999,925471836
75,6,21,Ticks_Linear_5,95,9999,9999,9999,926141552
75,6,21,Ticks_Linear_5,96,9999,9999,9999,926811248
75,6,21,Ticks_Linear_5,97,9999,9999,9999,927481936
75,6,21,Ticks_Linear_5,98,9999,9999,9999,928151636
75,6,21,Ticks_Linear_5,99,9999,9999,9999,928821348
75,6,21,Ticks_Linear_5,100,9999,9999,9999,929501256
75,6,21,Ticks_Linear_5,101,9999,9999,9999,930181212
75,6,21,Ticks_Linear_5,102,9999,9999,9999,930861116
75,6,21,Ticks_Linear_5,103,9999,9999,9999,931542144
75,6,21,Ticks_Linear_5,104,9999,9999,9999,932231228
75,6,21,Ticks_Linear_5,105,9999,9999,9999,932921464
75,6,21,Ticks_Linear_5,106,9999,9999,9999,933611636
75,6,21,Ticks_Linear_5,107,9999,9999,9999,934301776
75,6,21,Ticks_Linear_5,108,9999,9999,9999,934991936
75,6,21,Ticks_Linear_5,109,9999,9999,9999,935681120
75,6,21,Ticks_Linear_5,110,9999,9999,9999,936381544
75,6,21,Ticks_Linear_5,111,9999,9999,9999,937081944
75,6,21,Ticks_Linear_5,112,9999,9999,9999,937781316
75,6,21,Ticks_Linear_5,113,9999,9999,9999,938481744
75,6,21,Ticks_Linear_5,114,9999,9999,9999,939181168
75,6,21,Ticks_Linear_5,115,9999,9999,9999,939891776
75,6,21,Ticks_Linear_5,116,9999,9999,9999,940601400
75,6,21,Ticks_Linear_5,117,9999,9999,9999,941312084
75,6,21,Ticks_Linear_5,118,9999,9999,9999,942031976
75,6,21,Ticks_Linear_5,119,9999,9999,9999,942741592
75,6,21,Ticks_Linear_5,120,9999,9999,9999,943461484
75,6,21,Ticks_Linear_5,121,9999,9999,9999,944181304
75,6,21,Ticks_Linear_5,122,9999,9999,9999,944901196
75,6,21,Ticks_Linear_5,123,9999,9999,9999,945622136
75,6,21,Ticks_Linear_5,124,9999,9999,9999,946351160
75,6,21,Ticks_Linear_5,125,9999,9999,9999,947081288
75,6,21,Ticks_Linear_5,126,9999,9999,9999,947811440
75,6,21,Ticks_Linear_5,127,9999,9999,9999,948541520
75,6,21,Ticks_Linear_5,128,9999,9999,9999,949271680
75,6,21,Ticks_Linear_5,129,9999,9999,9999,950001756
75,6,21,Ticks_Linear_5,130,9999,9999,9999,950742088
75,6,21,Ticks_Linear_5,131,9999,9999,9999,951491712
75,6,21,Ticks_Linear_5,132,9999,9999,9999,952232032
75,6,21,Ticks_Linear_5,133,9999,9999,9999,952971320
75,6,21,Ticks_Linear_5,134,9999,9999,9999,953711724
75,6,21,Ticks_Linear_5,135,9999,9999,9999,954461276
75,6,21,Ticks_Linear_5,136,9999,9999,9999,955211872
75,6,21,Ticks_Linear_5,137,9999,9999,9999,955961420
75,6,21,Ticks_Linear_5,138,9999,9999,9999,956712056
75,6,21,Ticks_Linear_5,139,9999,9999,9999,957461564
75,6,21,Ticks_Linear_5,140,9999,9999,9999,958221372
75,6,21,Ticks_Linear_5,141,9999,9999,9999,958981184
75,6,21,Ticks_Linear_5,142,9999,9999,9999,959742044
75,6,21,Ticks_Linear_5,143,9999,9999,9999,960501848
75,6,21,Ticks_Linear_5,144,9999,9999,9999,961261656
75,6,21,Ticks_Linear_5,145,9999,9999,9999,962031724
75,6,21,Ticks_Linear_5,146,9999,9999,9999,962801716
75,6,21,Ticks_Linear_5,147,9999,9999,9999,963571784
75,6,21,Ticks_Linear_5,148,9999,9999,9999,964341856
75,6,21,Ticks_Linear_5,149,9999,9999,9999,965111924
75,6,21,Ticks_Linear_5,150,9999,9999,9999,965891128
75,6,21,Ticks_Linear_5,151,9999,9999,9999,966671456
75,6,21,Ticks_Linear_5,152,9999,9999,9999,967451712
75,6,21,Ticks_Linear_5,153,9999,9999,9999,968232044
75,6,21,Ticks_Linear_5,154,9999,9999,9999,969011324
75,6,21,Ticks_Linear_5,155,9999,9999,9999,969801832
75,6,21,Ticks_Linear_5,156,9999,9999,9999,970591296
75,6,21,Ticks_Linear_5,157,9999,9999,9999,971381880
75,6,21,Ticks_Linear_5,158,9999,9999,9999,972171344
75,6,21,Ticks_Linear_5,159,9999,9999,9999,972961856
75,6,21,Ticks_Linear_5,160,9999,9999,9999,973761608
75,6,21,Ticks_Linear_5,161,9999,9999,9999,974561336
75,6,21,Ticks_Linear_5,162,9999,9999,9999,975361128
75,6,21,Ticks_Linear_5,163,9999,9999,9999,976161904
75,6,21,Ticks_Linear_5,164,9999,9999,9999,976961620
75,6,21,Ticks_Linear_5,165,9999,9999,9999,977771604
75,6,21,Ticks_Linear_5,166,9999,9999,9999,978581584
75,6,21,Ticks_Linear_5,167,9999,9999,9999,979391592
75,6,21,Ticks_Linear_5,168,9999,9999,9999,980201576
75,6,21,Ticks_Linear_5,169,9999,9999,9999,981011560
75,7,22,Ticks_Phase_8,0,5,42,127,990637396
75,7,22,Ticks_Phase_8,1,5,42,127,991447392
75,7,22,Ticks_Phase_8,2,5,42,127,992247276
75,7,22,Ticks_Phase_8,3,5,42,127,993047156
75,7,22,Ticks_Phase_8,4,1,48,83,993824232
75,7,22,Ticks_Phase_8,5,5,42,127,993846588
75,7,22,Ticks_Phase_8,6,1,48,80,994627924
75,7,22,Ticks_Phase_8,7,5,42,127,994647496
75,7,22,Ticks_Phase_8,8,1,48,78,995433992
75,7,22,Ticks_Phase_8,9,5,42,127,995447284
75,7,22,Ticks_Phase_8,10,1,48,67,996245032
75,7,22,Ticks_Phase_8,11,5,42,127,996247068
75,7,22,Ticks_Phase_8,12,5,42,127,997046588
75,7,22,Ticks_Phase_8,13,1,48,65,997053216
75,7,22,Ticks_Phase_8,14,1,48,52,997832780
75,7,22,Ticks_Phase_8,15,5,42,127,997847268
75,7,22,Ticks_Phase_8,16,1,48,54,998639832
75,7,22,Ticks_Phase_8,17,5,42,127,998647128
75,7,22,Ticks_Phase_8,18,1,48,56,999432428
75,7,22,Ticks_Phase_8,19,5,42,127,999447064
75,7,22,Ticks_Phase_8,20,1,48,54,1000214924
75,7,22,Ticks_Phase_8,21,5,42,127,1000246848
75,7,22,Ticks_Phase_8,22,1,48,56,1001034928
75,7,22,Ticks_Phase_8,23,5,42,127,1001047384
75,7,22,Ticks_Phase_8,24,1,48,56,1001806328
75,7,22,Ticks_Phase_8,25,5,42,127,1001847244
75,7,22,Ticks_Phase_8,26,1,48,53,1002625512
75,7,22,Ticks_Phase_8,27,5,42,127,1002646884
75,7,22,Ticks_Phase_8,28,1,48,42,1003420876
75,7,22,Ticks_Phase_8,29,5,42,127,1003446992
75,7,22,Ticks_Phase_8,30,1,48,46,1004239188
75,7,22,Ticks_Phase_8,31,5,42,127,1004247380
75,7,22,Ticks_Phase_8,32,1,48,44,1005014192
75,7,22,Ticks_Phase_8,33,5,42,127,1005047088
75,7,22,Ticks_Phase_8,34,1,48,51,1005817640
75,7,22,Ticks_Phase_8,35,5,42,127,1005846876
75,7,22,Ticks_Phase_8,36,1,48,58,1006615476
75,7,22,Ticks_Phase_8,37,5,42,127,1006646884
75,7,22,Ticks_Phase_8,38,1,48,59,1007414204
75,7,22,Ticks_Phase_8,39,5,42,127,1007447272
75,7,22,Ticks_Phase_8,40,1,48,51,1008211008
75,7,22,Ticks_Phase_8,41,5,42,127,1008247132
75,7,22,Ticks_Phase_8,42,1,48,57,1009022244
75,7,22,Ticks_Phase_8,43,5,42,127,1009046768
75,7,22,Ticks_Phase_8,44,1,48,43,1009818292
75,7,22,Ticks_Phase_8,45,5,42,127,1009846728
75,7,22,Ticks_Phase_8,46,1,48,54,1010598232
75,7,22,Ticks_Phase_8,47,5,42,127,1010647260
75,7,22,Ticks_Phase_8,48,1,48,51,1011434668
75,7,22,Ticks_Phase_8,49,5,42,127,1011447272
75,7,22,Ticks_Phase_8,50,1,48,48,1012238792
75,7,22,Ticks_Phase_8,51,5,42,127,1012246908
75,7,22,Ticks_Phase_8,52,1,48,62,1012995668
75,7,22,Ticks_Phase_8,53,5,42,127,1013046620
75,7,22,Ticks_Phase_8,54,5,42,127,1013847388
75,7,22,Ticks_Phase_8,55,1,48,59,1013848724
75,7,22,Ticks_Phase_8,56,5,42,127,1014626580
75,7,22,Ticks_Phase_8,57,1,48,57,1014644516
75,7,22,Ticks_Phase_8,58,1,48,57,1015419812
75,7,22,Ticks_Phase_8,59,5,42,127,1015426508
75,7,22,Ticks_Phase_8,60,1,48,44,1016196836
75,7,22,Ticks_Phase_8,61,5,42,127,1016227192
75,7,22,Ticks_Phase_8,62,1,48,46,1017007804
75,7,22,Ticks_Phase_8,63,5,42,127,1017026856
75,7,22,Ticks_Phase_8,64,5,42,127,1017826648
75,7,22,Ticks_Phase_8,65,1,48,48,1017830064
75,7,22,Ticks_Phase_8,66,1,48,46,1018606328
75,7,22,Ticks_Phase_8,67,5,42,127,1018626504
75,7,22,Ticks_Phase_8,68,1,48,42,1019372636
75,7,22,Ticks_Phase_8,69,5,42,127,1019427040
75,7,22,Ticks_Phase_8,70,1,48,44,1020216392
75,7,22,Ticks_Phase_8,71,5,42,127,1020226828
75,7,22,Ticks_Phase_8,72,1,48,41,1021002388
75,7,22,Ticks_Phase_8,73,5,42,127,1021026540
75,7,22,Ticks_Phase_8,74,1,48,58,1021810788
75,7,22,Ticks_Phase_8,75,5,42,127,1021826396
75,7,22,Ticks_Phase_8,76,1,48,50,1022579416
75,7,22,Ticks_Phase_8,77,5,42,127,1022627448
75,7,22,Ticks_Phase_8,78,5,42,127,1023426896
75,7,22,Ticks_Phase_8,79,1,48,43,1023449116
75,7,22,Ticks_Phase_8,80,1,48,47,1024221252
75,7,22,Ticks_Phase_8,81,5,42,127,1024226752
75,7,22,Ticks_Phase_8,82,1,48,45,1025017448
75,7,22,Ticks_Phase_8,83,5,42,127,1025026388
75,7,22,Ticks_Phase_8,84,1,48,48,1025810864
75,7,22,Ticks_Phase_8,85,5,42,127,1025827368
75,7,22,Ticks_Phase_8,86,1,48,46,1026616496
75,7,22,Ticks_Phase_8,87,5,42,127,1026626932
75,7,22,Ticks_Phase_8,88,1,48,50,1027401596
75,7,22,Ticks_Phase_8,89,5,42,127,1027426572
75,7,22,Ticks_Phase_8,90,1,48,43,1028208804
75,7,22,Ticks_Phase_8,91,5,42,127,1028226508
75,7,22,Ticks_Phase_8,92,1,48,42,1028981176
75,7,22,Ticks_Phase_8,93,5,42,127,1029046760
75,7,22,Ticks_Phase_8,94,5,42,127,1029847528
75,7,22,Ticks_Phase_8,95,1,48,45,1029906444
75,7,22,Ticks_Phase_8,96,5,42,127,1030647388
75,7,22,Ticks_Phase_8,97,1,48,52,1030658372
75,7,22,Ticks_Phase_8,98,1,48,49,1031439872
75,7,22,Ticks_Phase_8,99,5,42,127,1031446944
75,7,22,Ticks_Phase_8,100,1,48,44,1032238388
75,7,22,Ticks_Phase_8,101,5,42,127,1032246580
75,7,22,Ticks_Phase_8,102,1,48,48,1033021024
75,7,22,Ticks_Phase_8,103,5,42,127,1033047416
75,7,22,Ticks_Phase_8,104,1,48,49,1033795500
75,7,22,Ticks_Phase_8,105,5,42,127,1033847128
75,7,22,Ticks_Phase_8,106,5,42,127,1034646996
75,7,22,Ticks_Phase_8,107,1,48,43,1034648036
75,7,22,Ticks_Phase_8,108,1,48,51,1035443396
75,7,22,Ticks_Phase_8,109,5,42,127,1035446576
75,7,22,Ticks_Phase_8,110,1,48,53,1036230680
75,7,22,Ticks_Phase_8,111,5,42,127,1036247336
75,7,22,Ticks_Phase_8,112,1,48,51,1037024404
75,7,22,Ticks_Phase_8,113,5,42,127,1037047268
75,7,22,Ticks_Phase_8,114,5,42,127,1037846912
75,7,22,Ticks_Phase_8,115,1,48,58,1037849428
75,7,22,Ticks_Phase_8,116,1,48,57,1038625920
75,7,22,Ticks_Phase_8,117,5,42,127,1038646540
75,7,22,Ticks_Phase_8,118,1,48,51,1039422628
75,7,22,Ticks_Phase_8,119,5,42,127,1039447448
75,7,22,Ticks_Phase_8,120,1,48,56,1040246336
75,7,22,Ticks_Phase_8,121,5,42,127,1040247912
75,7,22,Ticks_Phase_8,122,1,48,63,1041024160
75,7,22,Ticks_Phase_8,123,5,42,127,1041047024
75,7,22,Ticks_Phase_8,124,1,48,60,1041840736
75,7,22,Ticks_Phase_8,125,5,42,127,1041886528
75,7,22,Ticks_Phase_8,126,1,48,59,1042658500
75,7,22,Ticks_Phase_8,127,5,42,127,1042687212
75,7,22,Ticks_Phase_8,128,1,48,66,1043472208
75,7,22,Ticks_Phase_8,129,5,42,127,1043487072
75,7,22,Ticks_Phase_8,130,5,42,127,1044286716
75,7,22,Ticks_Phase_8,131,1,48,64,1044292596
75,7,22,Ticks_Phase_8,132,1,48,64,1045068636
75,7,22,Ticks_Phase_8,133,5,42,127,1045086644
75,7,22,Ticks_Phase_8,134,1,48,66,1045881904
75,7,22,Ticks_Phase_8,135,5,42,127,1045887400
75,7,22,Ticks_Phase_8,136,1,48,72,1046650988
75,7,22,Ticks_Phase_8,137,5,42,127,1046687188
75,7,22,Ticks_Phase_8,138,1,48,52,1047461332
75,7,22,Ticks_Phase_8,139,5,42,127,1047487148
75,7,22,Ticks_Phase_8,140,1,48,62,1048243468
75,7,22,Ticks_Phase_8,141,5,42,127,1048286564
75,7,22,Ticks_Phase_8,142,1,48,63,1049065728
75,7,22,Ticks_Phase_8,143,5,42,127,1049087468
75,7,22,Ticks_Phase_8,144,1,48,68,1049864840
75,7,22,Ticks_Phase_8,145,5,42,127,1049887032
75,7,22,Ticks_Phase_8,146,1,48,63,1050664164
75,7,22,Ticks_Phase_8,147,5,42,127,1050686968
75,7,22,Ticks_Phase_8,148,1,48,65,1051463500
75,7,22,Ticks_Phase_8,149,5,42,127,1051486680
75,7,22,Ticks_Phase_8,150,1,48,59,1052273100
75,7,22,Ticks_Phase_8,151,5,42,127,1052287364
75,7,22,Ticks_Phase_8,152,1,48,68,1053074548
75,7,22,Ticks_Phase_8,153,5,42,127,1053087076
75,7,22,Ticks_Phase_8,154,1,48,61,1053871052
75,7,22,Ticks_Phase_8,155,5,42,127,1053886960
75,7,22,Ticks_Phase_8,156,1,48,59,1054669044
75,7,22,Ticks_Phase_8,157,5,42,127,1054686524
75,7,22,Ticks_Phase_8,158,5,42,127,1055447452
75,7,22,Ticks_Phase_8,159,1,48,56,1055484708
75,7,22,Ticks_Phase_8,160,1,48,55,1056245496
75,7,22,Ticks_Phase_8,161,5,42,127,1056247080
75,7,22,Ticks_Phase_8,162,5,42,127,1057047020
75,7,22,Ticks_Phase_8,163,1,48,54,1057047988
75,7,22,Ticks_Phase_8,164,1,48,49,1057822352
75,7,22,Ticks_Phase_8,165,5,42,127,1057846728
75,7,22,Ticks_Phase_8,166,1,48,56,1058621164
75,7,22,Ticks_Phase_8,167,5,42,127,1058647412
75,7,22,Ticks_Phase_8,168,1,48,73,1059418636
75,7,22,Ticks_Phase_8,169,5,42,127,1059447196
75,7,22,Ticks_Phase_8,170,1,48,52,1060217376
75,7,22,Ticks_Phase_8,171,5,42,127,1060246984
75,7,22,Ticks_Phase_8,172,1,48,54,1061017236
75,7,22,Ticks_Phase_8,173,5,42,127,1061046868
75,7,22,Ticks_Phase_8,174,1,48,53,1061811948
75,7,22,Ticks_Phase_8,175,5,42,127,1061847628
75,7,22,Ticks_Phase_8,176,1,48,49,1062642360
75,7,22,Ticks_Phase_8,177,5,42,127,1062647188
75,7,22,Ticks_Phase_8,178,1,48,47,1063413768
75,7,22,Ticks_Phase_8,179,5,42,127,1063446900
75,7,22,Ticks_Phase_8,180,1,48,55,1064222312
75,7,22,Ticks_Phase_8,181,5,42,127,1064246836
75,7,22,Ticks_Phase_8,182,1,48,55,1065035732
75,7,22,Ticks_Phase_8,183,5,42,127,1065047372
75,7,22,Ticks_Phase_8,184,1,48,57,1065829380
75,7,22,Ticks_Phase_8,185,5,42,127,1065847232
75,7,22,Ticks_Phase_8,186,1,48,54,1066629760
75,7,22,Ticks_Phase_8,187,5,42,127,1066646868
75,7,22,Ticks_Phase_8,188,1,48,49,1067434284
75,7,22,Ticks_Phase_8,189,5,42,127,1067446900
75,7,22,Ticks_Phase_8,190,5,42,127,1068166692
75,7,22,Ticks_Phase_8,191,1,48,44,1068226904
75,7,22,Ticks_Phase_8,192,5,42,127,1068967600
75,7,22,Ticks_Phase_8,193,1,48,46,1069634952
75,7,22,Ticks_Phase_8,194,5,42,127,1069767016
75,7,22,Ticks_Phase_8,195,1,48,53,1070525000
75,7,22,Ticks_Phase_8,196,5,42,127,1070566740
75,7,22,Ticks_Phase_8,197,1,48,61,1071326436
75,7,22,Ticks_Phase_8,198,5,42,127,1071366528
75,7,22,Ticks_Phase_8,199,1,48,57,1072143360
75,7,22,Ticks_Phase_8,200,5,42,127,1072167212
75,7,22,Ticks_Phase_8,201,1,48,55,1072924052
75,7,22,Ticks_Phase_8,202,5,42,127,1072967000
75,7,22,Ticks_Phase_8,203,1,48,56,1073726316
75,7,22,Ticks_Phase_8,204,5,42,127,1073766712
75,7,22,Ticks_Phase_8,205,1,48,51,1074529544
75,7,22,Ticks_Phase_8,206,5,42,127,1074566568
75,7,22,Ticks_Phase_8,207,1,48,54,1075321836
75,7,22,Ticks_Phase_8,208,5,42,127,1075367256
75,7,22,Ticks_Phase_8,209,1,48,52,1076103696
75,7,22,Ticks_Phase_8,210,5,42,127,1076167040
75,7,22,Ticks_Phase_8,211,1,48,49,1076935644
75,7,22,Ticks_Phase_8,212,5,42,127,1076966900
75,7,22,Ticks_Phase_8,213,1,48,48,1077724108
75,7,22,Ticks_Phase_8,214,5,42,127,1077766688
75,7,22,Ticks_Phase_8,215,1,48,46,1078551088
75,7,22,Ticks_Phase_8,216,5,42,127,1078567220
75,7,22,Ticks_Phase_8,217,1,48,50,1079273432
75,7,22,Ticks_Phase_8,218,5,42,127,1079368188
75,7,22,Ticks_Phase_8,219,1,48,47,1080165440
75,7,22,Ticks_Phase_8,220,5,42,127,1080166792
75,7,22,Ticks_Phase_8,221,5,42,127,1080966588
75,7,22,Ticks_Phase_8,222,1,48,46,1080986108
75,7,22,Ticks_Phase_8,223,1,48,48,1081753972
75,7,22,Ticks_Phase_8,224,5,42,127,1081847120
75,7,22,Ticks_Phase_8,225,5,42,127,1082646836
75,7,22,Ticks_Phase_8,226,1,48,47,1082702520
75,7,22,Ticks_Phase_8,227,5,42,127,1083446548
75,7,22,Ticks_Phase_8,228,1,48,54,1083473548
75,7,22,Ticks_Phase_8,229,1,48,47,1084245184
75,7,22,Ticks_Phase_8,230,5,42,127,1084247672
75,7,22,Ticks_Phase_8,231,1,48,50,1085026840
75,7,22,Ticks_Phase_8,232,5,42,127,1085047088
75,7,22,Ticks_Phase_8,233,1,48,52,1085799740
75,7,22,Ticks_Phase_8,234,5,42,127,1085846872
75,7,22,Ticks_Phase_8,235,1,48,47,1086629848
75,7,22,Ticks_Phase_8,236,5,42,127,1086646608
75,7,22,Ticks_Phase_8,237,1,48,50,1087443808
75,7,22,Ticks_Phase_8,238,5,42,127,1087447516
75,7,22,Ticks_Phase_8,239,1,48,47,1088206164
75,7,22,Ticks_Phase_8,240,5,42,127,1088247376
75,7,22,Ticks_Phase_8,241,1,48,46,1088991416
75,7,22,Ticks_Phase_8,242,5,42,127,1089046792
75,7,22,Ticks_Phase_8,243,1,48,48,1089845068
75,7,22,Ticks_Phase_8,244,5,42,127,1089846580
75,7,22,Ticks_Phase_8,245,1,48,55,1090636448
75,7,22,Ticks_Phase_8,246,5,42,127,1090647412
75,7,22,Ticks_Phase_8,247,1,48,50,1091410544
75,7,22,Ticks_Phase_8,248,5,42,127,1091447420
75,7,22,Ticks_Phase_8,249,1,48,45,1092230852
75,7,22,Ticks_Phase_8,250,5,42,127,1092246912
75,7,22,Ticks_Phase_8,251,1,48,48,1093012212
75,7,22,Ticks_Phase_8,252,5,42,127,1093046720
75,7,22,Ticks_Phase_8,253,1,48,49,1093818096
75,7,22,Ticks_Phase_8,254,5,42,127,1093847404
75,7,22,Ticks_Phase_8,255,1,48,51,1094642740
75,7,22,Ticks_Phase_8,256,5,42,127,1094647268
75,7,22,Ticks_Phase_8,257,1,48,53,1095442224
75,7,22,Ticks_Phase_8,258,5,42,127,1095606500
75,7,22,Ticks_Phase_8,259,1,48,39,1096324164
75,7,22,Ticks_Phase_8,260,5,42,127,1096407276
75,7,22,Ticks_Phase_8,261,1,48,54,1097159176
75,7,22,Ticks_Phase_8,262,5,42,127,1097207432
75,7,22,Ticks_Phase_8,263,1,48,45,1097981424
75,7,22,Ticks_Phase_8,264,5,42,127,1098007068
75,7,22,Ticks_Phase_8,265,1,48,47,1098765044
75,7,22,Ticks_Phase_8,266,5,42,127,1098806780
75,7,22,Ticks_Phase_8,267,1,48,50,1099577256
75,7,22,Ticks_Phase_8,268,5,42,127,1099607540
75,7,22,Ticks_Phase_8,269,1,48,48,1100350980
75,7,22,Ticks_Phase_8,270,5,42,127,1100407176
75,7,22,Ticks_Phase_8,271,1,48,48,1101161248
75,7,22,Ticks_Phase_8,272,5,42,127,1101207188
75,7,22,Ticks_Phase_8,273,1,48,47,1101952568
75,7,22,Ticks_Phase_8,274,5,42,127,1102006772
75,7,22,Ticks_Phase_8,275,1,48,45,1102793120
75,7,22,Ticks_Phase_8,276,5,42,127,1102807384
75,7,22,Ticks_Phase_8,277,1,48,50,1103559136
75,7,22,Ticks_Phase_8,278,5,42,127,1103607244
75,7,22,Ticks_Phase_8,279,5,42,127,1104407184
75,7,22,Ticks_Phase_8,280,1,48,60,1104422656
75,7,22,Ticks_Phase_8,281,5,42,127,1105206528
75,7,22,Ticks_Phase_8,282,1,48,61,1105213904
75,7,22,Ticks_Phase_8,283,1,48,53,1105993088
75,7,22,Ticks_Phase_8,284,5,42,127,1106007352
75,7,22,Ticks_Phase_8,285,1,48,49,1106783292
75,7,22,Ticks_Phase_8,286,5,42,127,1106807288
75,7,22,Ticks_Phase_8,287,1,48,56,1107578964
75,7,22,Ticks_Phase_8,288,5,42,127,1107606852
75,7,22,Ticks_Phase_8,289,1,48,51,1108366240
75,7,22,Ticks_Phase_8,290,5,42,127,1108406588
75,7,22,Ticks_Phase_8,291,1,48,50,1109123116
75,7,22,Ticks_Phase_8,292,5,42,127,1109207348
75,7,22,Ticks_Phase_8,293,1,48,50,1109961712
75,7,22,Ticks_Phase_8,294,5,42,127,1110007284
75,7,22,Ticks_Phase_8,295,5,42,127,1110647168
75,7,22,Ticks_Phase_8,296,1,48,55,1110786836
75,7,22,Ticks_Phase_8,297,5,42,127,1111447028
75,7,22,Ticks_Phase_8,298,1,48,65,1111605568
75,7,22,Ticks_Phase_8,299,1,48,55,1112127336
75,7,22,Ticks_Phase_8,300,5,42,127,1112246744
75,7,22,Ticks_Phase_8,301,1,48,53,1112881136
75,7,22,Ticks_Phase_8,302,5,42,127,1113047356
75,7,22,Ticks_Phase_8,303,1,48,51,1113798008
75,7,22,Ticks_Phase_8,304,5,42,127,1113847084
75,7,22,Ticks_Phase_8,305,1,48,59,1114627820
75,7,22,Ticks_Phase_8,306,5,42,127,1114646944
75,7,22,Ticks_Phase_8,307,1,48,57,1115380800
75,7,22,Ticks_Phase_8,308,5,42,127,1115446808
75,7,22,Ticks_Phase_8,309,1,48,59,1116225296
75,7,22,Ticks_Phase_8,310,5,42,127,1116247340
75,7,22,Ticks_Phase_8,311,1,48,56,1117017148
75,7,22,Ticks_Phase_8,312,5,42,127,1117047128
75,7,22,Ticks_Phase_8,313,1,48,60,1117835876
75,7,22,Ticks_Phase_8,314,5,42,127,1117846988
75,7,22,Ticks_Phase_8,315,1,48,50,1118598444
75,7,22,Ticks_Phase_8,316,5,42,127,1118646796
75,7,22,Ticks_Phase_8,317,1,48,50,1119429856
75,7,22,Ticks_Phase_8,318,5,42,127,1119447408
75,7,22,Ticks_Phase_8,319,1,48,46,1120218108
75,7,22,Ticks_Phase_8,320,5,42,127,1120247120
75,7,22,Ticks_Phase_8,321,1,48,58,1121008088
75,7,22,Ticks_Phase_8,322,5,42,127,1121046908
75,7,22,Ticks_Phase_8,323,1,48,51,1121834596
75,7,22,Ticks_Phase_8,324,5,42,127,1121846768
75,7,22,Ticks_Phase_8,325,1,48,50,1122618740
75,7,22,Ticks_Phase_8,326,5,42,127,1122647376
75,7,22,Ticks_Phase_8,327,5,42,127,1123447020
75,7,22,Ticks_Phase_8,328,1,48,57,1123452676
75,7,22,Ticks_Phase_8,329,1,48,55,1124232156
75,7,22,Ticks_Phase_8,330,5,42,127,1124246872
75,7,22,Ticks_Phase_8,331,5,42,127,1125046840
75,7,22,Ticks_Phase_8,332,1,48,54,1125055128
75,7,22,Ticks_Phase_8,333,1,48,54,1125840816
75,7,22,Ticks_Phase_8,334,5,42,127,1125847516
75,7,22,Ticks_Phase_8,0,9999,9999,9999,990635084
75,7,22,Ticks_Phase_8,1,9999,9999,9999,991445100
75,7,22,Ticks_Phase_8,2,9999,9999,9999,992244836
75,7,22,Ticks_Phase_8,3,9999,9999,9999,993044568
75,7,22,Ticks_Phase_8,4,9999,9999,9999,993844296
75,7,22,Ticks_Phase_8,5,9999,9999,9999,994645056
75,7,22,Ticks_Phase_8,6,9999,9999,9999,995444844
75,7,22,Ticks_Phase_8,7,9999,9999,9999,996244580
75,7,22,Ticks_Phase_8,8,9999,9999,9999,997044300
75,7,22,Ticks_Phase_8,9,9999,9999,9999,997845052
75,7,22,Ticks_Phase_8,10,9999,9999,9999,998644836
75,7,22,Ticks_Phase_8,11,9999,9999,9999,999444552
75,7,22,Ticks_Phase_8,12,9999,9999,9999,1000244336
75,7,22,Ticks_Phase_8,13,9999,9999,9999,1001045096
75,7,22,Ticks_Phase_8,14,9999,9999,9999,1001844808
75,7,22,Ticks_Phase_8,15,9999,9999,9999,1002644592
75,7,22,Ticks_Phase_8,16,9999,9999,9999,1003444332
75,7,22,Ticks_Phase_8,17,9999,9999,9999,1004245088
75,7,22,Ticks_Phase_8,18,9999,9999,9999,1005044800
75,7,22,Ticks_Phase_8,19,9999,9999,9999,1005844588
75,7,22,Ticks_Phase_8,20,9999,9999,9999,1006644296
75,7,22,Ticks_Phase_8,21,9999,9999,9999,1007445056
75,7,22,Ticks_Phase_8,22,9999,9999,9999,1008244844
75,7,22,Ticks_Phase_8,23,9999,9999,9999,1009044552
75,7,22,Ticks_Phase_8,24,9999,9999,9999,1009844292
75,7,22,Ticks_Phase_8,25,9999,9999,9999,1010645048
75,7,22,Ticks_Phase_8,26,9999,9999,9999,1011444832
75,7,22,Ticks_Phase_8,27,9999,9999,9999,1012244548
75,7,22,Ticks_Phase_8,28,9999,9999,9999,1013044332
75,7,22,Ticks_Phase_8,29,9999,9999,9999,1013845096
75,7,22,Ticks_Phase_8,30,9999,9999,9999,1014624364
75,7,22,Ticks_Phase_8,31,9999,9999,9999,1015424072
75,7,22,Ticks_Phase_8,32,9999,9999,9999,1016224832
75,7,22,Ticks_Phase_8,33,9999,9999,9999,1017024568
75,7,22,Ticks_Phase_8,34,9999,9999,9999,1017824360
75,7,22,Ticks_Phase_8,35,9999,9999,9999,1018624068
75,7,22,Ticks_Phase_8,36,9999,9999,9999,1019424824
75,7,22,Ticks_Phase_8,37,9999,9999,9999,1020224612
75,7,22,Ticks_Phase_8,38,9999,9999,9999,1021024324
75,7,22,Ticks_Phase_8,39,9999,9999,9999,1021824104
75,7,22,Ticks_Phase_8,40,9999,9999,9999,1022624864
75,7,22,Ticks_Phase_8,41,9999,9999,9999,1023424608
75,7,22,Ticks_Phase_8,42,9999,9999,9999,1024224312
75,7,22,Ticks_Phase_8,43,9999,9999,9999,1025024100
75,7,22,Ticks_Phase_8,44,9999,9999,9999,1025824856
75,7,22,Ticks_Phase_8,45,9999,9999,9999,1026624568
75,7,22,Ticks_Phase_8,46,9999,9999,9999,1027424356
75,7,22,Ticks_Phase_8,47,9999,9999,9999,1028224068
75,7,22,Ticks_Phase_8,48,9999,9999,9999,1029044324
75,7,22,Ticks_Phase_8,49,9999,9999,9999,1029845088
75,7,22,Ticks_Phase_8,50,9999,9999,9999,1030644800
75,7,22,Ticks_Phase_8,51,9999,9999,9999,1031444580
75,7,22,Ticks_Phase_8,52,9999,9999,9999,1032244292
75,7,22,Ticks_Phase_8,53,9999,9999,9999,1033045052
75,7,22,Ticks_Phase_8,54,9999,9999,9999,1033844840
75,7,22,Ticks_Phase_8,55,9999,9999,9999,1034644556
75,7,22,Ticks_Phase_8,56,9999,9999,9999,1035444288
75,7,22,Ticks_Phase_8,57,9999,9999,9999,1036245044
75,7,22,Ticks_Phase_8,58,9999,9999,9999,1037044832
75,7,22,Ticks_Phase_8,59,9999,9999,9999,1037844548
75,7,22,Ticks_Phase_8,60,9999,9999,9999,1038644328
75,7,22,Ticks_Phase_8,61,9999,9999,9999,1039445084
75,7,22,Ticks_Phase_8,62,9999,9999,9999,1040244804
75,7,22,Ticks_Phase_8,63,9999,9999,9999,1041044584
75,7,22,Ticks_Phase_8,64,9999,9999,9999,1041884236
75,7,22,Ticks_Phase_8,65,9999,9999,9999,1042684996
75,7,22,Ticks_Phase_8,66,9999,9999,9999,1043484784
75,7,22,Ticks_Phase_8,67,9999,9999,9999,1044284500
75,7,22,Ticks_Phase_8,68,9999,9999,9999,1045084280
75,7,22,Ticks_Phase_8,69,9999,9999,9999,1045885040
75,7,22,Ticks_Phase_8,70,9999,9999,9999,1046684748
75,7,22,Ticks_Phase_8,71,9999,9999,9999,1047484488
75,7,22,Ticks_Phase_8,72,9999,9999,9999,1048284276
75,7,22,Ticks_Phase_8,73,9999,9999,9999,1049085032
75,7,22,Ticks_Phase_8,74,9999,9999,9999,1049884744
75,7,22,Ticks_Phase_8,75,9999,9999,9999,1050684528
75,7,22,Ticks_Phase_8,76,9999,9999,9999,1051484240
75,7,22,Ticks_Phase_8,77,9999,9999,9999,1052285000
75,7,22,Ticks_Phase_8,78,9999,9999,9999,1053084788
75,7,22,Ticks_Phase_8,79,9999,9999,9999,1053884524
75,7,22,Ticks_Phase_8,80,9999,9999,9999,1054684236
75,7,22,Ticks_Phase_8,81,9999,9999,9999,1055445084
75,7,22,Ticks_Phase_8,82,9999,9999,9999,1056244800
75,7,22,Ticks_Phase_8,83,9999,9999,9999,1057044584
75,7,22,Ticks_Phase_8,84,9999,9999,9999,1057844288
75,7,22,Ticks_Phase_8,85,9999,9999,9999,1058645048
75,7,22,Ticks_Phase_8,86,9999,9999,9999,1059444832
75,7,22,Ticks_Phase_8,87,9999,9999,9999,1060244544
75,7,22,Ticks_Phase_8,88,9999,9999,9999,1061044280
75,7,22,Ticks_Phase_8,89,9999,9999,9999,1061845116
75,7,22,Ticks_Phase_8,90,9999,9999,9999,1062644828
75,7,22,Ticks_Phase_8,91,9999,9999,9999,1063444536
75,7,22,Ticks_Phase_8,92,9999,9999,9999,1064244324
75,7,22,Ticks_Phase_8,93,9999,9999,9999,1065045080
75,7,22,Ticks_Phase_8,94,9999,9999,9999,1065844792
75,7,22,Ticks_Phase_8,95,9999,9999,9999,1066644576
75,7,22,Ticks_Phase_8,96,9999,9999,9999,1067444316
75,7,22,Ticks_Phase_8,97,9999,9999,9999,1068164176
75,7,22,Ticks_Phase_8,98,9999,9999,9999,1068964936
75,7,22,Ticks_Phase_8,99,9999,9999,9999,1069764728
75,7,22,Ticks_Phase_8,100,9999,9999,9999,1070564452
75,7,22,Ticks_Phase_8,101,9999,9999,9999,1071364164
75,7,22,Ticks_Phase_8,102,9999,9999,9999,1072164924
75,7,22,Ticks_Phase_8,103,9999,9999,9999,1072964708
75,7,22,Ticks_Phase_8,104,9999,9999,9999,1073764420
75,7,22,Ticks_Phase_8,105,9999,9999,9999,1074564208
75,7,22,Ticks_Phase_8,106,9999,9999,9999,1075364964
75,7,22,Ticks_Phase_8,107,9999,9999,9999,1076164676
75,7,22,Ticks_Phase_8,108,9999,9999,9999,1076964464
75,7,22,Ticks_Phase_8,109,9999,9999,9999,1077764172
75,7,22,Ticks_Phase_8,110,9999,9999,9999,1078564932
75,7,22,Ticks_Phase_8,111,9999,9999,9999,1079364716
75,7,22,Ticks_Phase_8,112,9999,9999,9999,1080164436
75,7,22,Ticks_Phase_8,113,9999,9999,9999,1080964220
75,7,22,Ticks_Phase_8,114,9999,9999,9999,1081844828
75,7,22,Ticks_Phase_8,115,9999,9999,9999,1082644548
75,7,22,Ticks_Phase_8,116,9999,9999,9999,1083444336
75,7,22,Ticks_Phase_8,117,9999,9999,9999,1084245056
75,7,22,Ticks_Phase_8,118,9999,9999,9999,1085044800
75,7,22,Ticks_Phase_8,119,9999,9999,9999,1085844584
75,7,22,Ticks_Phase_8,120,9999,9999,9999,1086644320
75,7,22,Ticks_Phase_8,121,9999,9999,9999,1087445080
75,7,22,Ticks_Phase_8,122,9999,9999,9999,1088244792
75,7,22,Ticks_Phase_8,123,9999,9999,9999,1089044576
75,7,22,Ticks_Phase_8,124,9999,9999,9999,1089844296
75,7,22,Ticks_Phase_8,125,9999,9999,9999,1090645048
75,7,22,Ticks_Phase_8,126,9999,9999,9999,1091444836
75,7,22,Ticks_Phase_8,127,9999,9999,9999,1092244548
75,7,22,Ticks_Phase_8,128,9999,9999,9999,1093044284
75,7,22,Ticks_Phase_8,129,9999,9999,9999,1093845116
75,7,22,Ticks_Phase_8,130,9999,9999,9999,1094644828
75,7,22,Ticks_Phase_8,131,9999,9999,9999,1095604284
75,7,22,Ticks_Phase_8,132,9999,9999,9999,1096405060
75,7,22,Ticks_Phase_8,133,9999,9999,9999,1097204848
75,7,22,Ticks_Phase_8,134,9999,9999,9999,1098004556
75,7,22,Ticks_Phase_8,135,9999,9999,9999,1098804344
75,7,22,Ticks_Phase_8,136,9999,9999,9999,1099605100
75,7,22,Ticks_Phase_8,137,9999,9999,9999,1100404812
75,7,22,Ticks_Phase_8,138,9999,9999,9999,1101204600
75,7,22,Ticks_Phase_8,139,9999,9999,9999,1102004336
75,7,22,Ticks_Phase_8,140,9999,9999,9999,1102805096
75,7,22,Ticks_Phase_8,141,9999,9999,9999,1103604804
75,7,22,Ticks_Phase_8,142,9999,9999,9999,1104404600
75,7,22,Ticks_Phase_8,143,9999,9999,9999,1105204312
75,7,22,Ticks_Phase_8,144,9999,9999,9999,1106005064
75,7,22,Ticks_Phase_8,145,9999,9999,9999,1106804852
75,7,22,Ticks_Phase_8,146,9999,9999,9999,1107604564
75,7,22,Ticks_Phase_8,147,9999,9999,9999,1108404300
75,7,22,Ticks_Phase_8,148,9999,9999,9999,1109205056
75,7,22,Ticks_Phase_8,149,9999,9999,9999,1110004844
75,7,22,Ticks_Phase_8,150,9999,9999,9999,1110644804
75,7,22,Ticks_Phase_8,151,9999,9999,9999,1111444592
75,7,22,Ticks_Phase_8,152,9999,9999,9999,1112244308
75,7,22,Ticks_Phase_8,153,9999,9999,9999,1113045068
75,7,22,Ticks_Phase_8,154,9999,9999,9999,1113844796
75,7,22,Ticks_Phase_8,155,9999,9999,9999,1114644580
75,7,22,Ticks_Phase_8,156,9999,9999,9999,1115444296
75,7,22,Ticks_Phase_8,157,9999,9999,9999,1116245052
75,7,22,Ticks_Phase_8,158,9999,9999,9999,1117044836
75,7,22,Ticks_Phase_8,159,9999,9999,9999,1117844548
75,7,22,Ticks_Phase_8,160,9999,9999,9999,1118644284
75,7,22,Ticks_Phase_8,161,9999,9999,9999,1119445120
75,7,22,Ticks_Phase_8,162,9999,9999,9999,1120244832
75,7,22,Ticks_Phase_8,163,9999,9999,9999,1121044544
75,7,22,Ticks_Phase_8,164,9999,9999,9999,1121844328
75,7,22,Ticks_Phase_8,165,9999,9999,9999,1122645088
75,7,22,Ticks_Phase_8,166,9999,9999,9999,1123444804
75,7,22,Ticks_Phase_8,167,9999,9999,9999,1124244584
75,7,22,Ticks_Phase_8,168,9999,9999,9999,1125044328
75,7,22,Ticks_Phase_8,169,9999,9999,9999,1125845080
75,8,23,Ticks_Phase_5,0,5,42,127,1136047556
75,8,23,Ticks_Phase_5,1,5,42,127,1136548136
75,8,23,Ticks_Phase_5,2,5,42,127,1137048044
75,8,23,Ticks_Phase_5,3,5,42,127,1137547756
75,8,23,Ticks_Phase_5,4,1,48,95,1138031628
75,8,23,Ticks_Phase_5,5,5,42,127,1138048580
75,8,23,Ticks_Phase_5,6,1,48,87,1138521356
75,8,23,Ticks_Phase_5,7,5,42,127,1138548044
75,8,23,Ticks_Phase_5,8,1,48,85,1139047964
75,8,23,Ticks_Phase_5,9,5,42,127,1139049448
75,8,23,Ticks_Phase_5,10,5,42,127,1139547504
75,8,23,Ticks_Phase_5,11,1,48,98,1139561328
75,8,23,Ticks_Phase_5,12,1,48,92,1140046720
75,8,23,Ticks_Phase_5,13,5,42,127,1140048528
75,8,23,Ticks_Phase_5,14,1,48,80,1140535220
75,8,23,Ticks_Phase_5,15,5,42,127,1140547920
75,8,23,Ticks_Phase_5,16,1,48,84,1141035524
75,8,23,Ticks_Phase_5,17,5,42,127,1141047756
75,8,23,Ticks_Phase_5,18,1,48,92,1141541868
75,8,23,Ticks_Phase_5,19,5,42,127,1141548492
75,8,23,Ticks_Phase_5,20,5,42,127,1142047964
75,8,23,Ticks_Phase_5,21,1,48,88,1142055792
75,8,23,Ticks_Phase_5,22,1,48,86,1142547048
75,8,23,Ticks_Phase_5,23,5,42,127,1142548768
75,8,23,Ticks_Phase_5,24,1,48,86,1143044524
75,8,23,Ticks_Phase_5,25,5,42,127,1143047708
75,8,23,Ticks_Phase_5,26,1,48,83,1143533356
75,8,23,Ticks_Phase_5,27,5,42,127,1143548368
75,8,23,Ticks_Phase_5,28,1,48,81,1144038668
75,8,23,Ticks_Phase_5,29,5,42,127,1144047984
75,8,23,Ticks_Phase_5,30,1,48,84,1144541272
75,8,23,Ticks_Phase_5,31,5,42,127,1144547744
75,8,23,Ticks_Phase_5,32,1,48,82,1145036692
75,8,23,Ticks_Phase_5,33,5,42,127,1145048404
75,8,23,Ticks_Phase_5,34,1,48,77,1145532860
75,8,23,Ticks_Phase_5,35,5,42,127,1145558352
75,8,23,Ticks_Phase_5,36,1,48,77,1146045272
75,8,23,Ticks_Phase_5,37,5,42,127,1146057968
75,8,23,Ticks_Phase_5,38,1,48,75,1146552904
75,8,23,Ticks_Phase_5,39,5,42,127,1146557732
75,8,23,Ticks_Phase_5,40,5,42,127,1147057500
75,8,23,Ticks_Phase_5,41,1,48,79,1147060916
75,8,23,Ticks_Phase_5,42,1,48,86,1147552700
75,8,23,Ticks_Phase_5,43,5,42,127,1147558304
75,8,23,Ticks_Phase_5,44,5,42,127,1148057900
75,8,23,Ticks_Phase_5,45,1,48,73,1148075276
75,8,23,Ticks_Phase_5,46,5,42,127,1148557660
75,8,23,Ticks_Phase_5,47,1,48,68,1148560252
75,8,23,Ticks_Phase_5,48,5,42,127,1149058396
75,8,23,Ticks_Phase_5,49,1,48,74,1149068560
75,8,23,Ticks_Phase_5,50,1,48,64,1149551228
75,8,23,Ticks_Phase_5,51,5,42,127,1149568336
75,8,23,Ticks_Phase_5,52,5,42,127,1150068104
75,8,23,Ticks_Phase_5,53,1,48,69,1150076468
75,8,23,Ticks_Phase_5,54,5,42,127,1150567792
75,8,23,Ticks_Phase_5,55,1,48,65,1150576684
75,8,23,Ticks_Phase_5,56,5,42,127,1151058344
75,8,23,Ticks_Phase_5,57,1,48,64,1151081756
75,8,23,Ticks_Phase_5,58,5,42,127,1151558180
75,8,23,Ticks_Phase_5,59,1,48,65,1151565860
75,8,23,Ticks_Phase_5,60,5,42,127,1152057792
75,8,23,Ticks_Phase_5,61,1,48,66,1152065788
75,8,23,Ticks_Phase_5,62,5,42,127,1152557408
75,8,23,Ticks_Phase_5,63,1,48,57,1152564416
75,8,23,Ticks_Phase_5,64,5,42,127,1153058368
75,8,23,Ticks_Phase_5,65,1,48,64,1153063956
75,8,23,Ticks_Phase_5,66,1,48,59,1153555712
75,8,23,Ticks_Phase_5,67,5,42,127,1153557828
75,8,23,Ticks_Phase_5,68,1,48,63,1154057968
75,8,23,Ticks_Phase_5,69,5,42,127,1154059228
75,8,23,Ticks_Phase_5,70,1,48,60,1154547660
75,8,23,Ticks_Phase_5,71,5,42,127,1154558248
75,8,23,Ticks_Phase_5,72,5,42,127,1155058164
75,8,23,Ticks_Phase_5,73,1,48,75,1155069820
75,8,23,Ticks_Phase_5,74,5,42,127,1155557780
75,8,23,Ticks_Phase_5,75,1,48,58,1155563064
75,8,23,Ticks_Phase_5,76,5,42,127,1156057392
75,8,23,Ticks_Phase_5,77,1,48,77,1156066660
75,8,23,Ticks_Phase_5,78,5,42,127,1156558204
75,8,23,Ticks_Phase_5,79,1,48,68,1156569340
75,8,23,Ticks_Phase_5,80,5,42,127,1157058040
75,8,23,Ticks_Phase_5,81,1,48,71,1157073288
75,8,23,Ticks_Phase_5,82,5,42,127,1157557656
75,8,23,Ticks_Phase_5,83,1,48,64,1157575144
75,8,23,Ticks_Phase_5,84,5,42,127,1158058240
75,8,23,Ticks_Phase_5,85,1,48,70,1158069820
75,8,23,Ticks_Phase_5,86,5,42,127,1158558128
75,8,23,Ticks_Phase_5,87,1,48,74,1158581268
75,8,23,Ticks_Phase_5,88,5,42,127,1159057892
75,8,23,Ticks_Phase_5,89,1,48,62,1159067980
75,8,23,Ticks_Phase_5,90,5,42,127,1159557432
75,8,23,Ticks_Phase_5,91,1,48,64,1159564808
75,8,23,Ticks_Phase_5,92,5,42,127,1160067376
75,8,23,Ticks_Phase_5,93,1,48,70,1160076040
75,8,23,Ticks_Phase_5,94,5,42,127,1160568036
75,8,23,Ticks_Phase_5,95,1,48,63,1160573176
75,8,23,Ticks_Phase_5,96,1,48,58,1161065676
75,8,23,Ticks_Phase_5,97,5,42,127,1161067868
75,8,23,Ticks_Phase_5,98,5,42,127,1161567564
75,8,23,Ticks_Phase_5,99,1,48,60,1161575556
75,8,23,Ticks_Phase_5,100,5,42,127,1162068296
75,8,23,Ticks_Phase_5,101,1,48,70,1162074256
75,8,23,Ticks_Phase_5,102,1,48,86,1162564120
75,8,23,Ticks_Phase_5,103,5,42,127,1162568056
75,8,23,Ticks_Phase_5,104,5,42,127,1163067896
75,8,23,Ticks_Phase_5,105,1,48,80,1163068788
75,8,23,Ticks_Phase_5,106,5,42,127,1163567588
75,8,23,Ticks_Phase_5,107,1,48,89,1163580444
75,8,23,Ticks_Phase_5,108,1,48,93,1164063336
75,8,23,Ticks_Phase_5,109,5,42,127,1164068164
75,8,23,Ticks_Phase_5,110,1,48,93,1164561904
75,8,23,Ticks_Phase_5,111,5,42,127,1164568000
75,8,23,Ticks_Phase_5,112,5,42,127,1165067624
75,8,23,Ticks_Phase_5,113,1,48,97,1165075988
75,8,23,Ticks_Phase_5,114,5,42,127,1165568356
75,8,23,Ticks_Phase_5,115,1,48,88,1165575060
75,8,23,Ticks_Phase_5,116,1,48,92,1166063580
75,8,23,Ticks_Phase_5,117,5,42,127,1166068036
75,8,23,Ticks_Phase_5,118,5,42,127,1166567884
75,8,23,Ticks_Phase_5,119,1,48,70,1166579536
75,8,23,Ticks_Phase_5,120,5,42,127,1167067496
75,8,23,Ticks_Phase_5,121,1,48,62,1167080196
75,8,23,Ticks_Phase_5,122,1,48,54,1167553664
75,8,23,Ticks_Phase_5,123,5,42,127,1167568376
75,8,23,Ticks_Phase_5,124,1,48,74,1168079564
75,8,23,Ticks_Phase_5,125,5,42,127,1168088432
75,8,23,Ticks_Phase_5,126,1,48,79,1168582540
75,8,23,Ticks_Phase_5,127,5,42,127,1168598528
75,8,23,Ticks_Phase_5,128,1,48,73,1169076404
75,8,23,Ticks_Phase_5,129,5,42,127,1169098068
75,8,23,Ticks_Phase_5,130,5,42,127,1169597840
75,8,23,Ticks_Phase_5,131,1,48,66,1169600356
75,8,23,Ticks_Phase_5,132,5,42,127,1170097528
75,8,23,Ticks_Phase_5,133,1,48,69,1170101544
75,8,23,Ticks_Phase_5,134,5,42,127,1170598116
75,8,23,Ticks_Phase_5,135,1,48,73,1170609252
75,8,23,Ticks_Phase_5,136,5,42,127,1171097852
75,8,23,Ticks_Phase_5,137,1,48,77,1171106292
75,8,23,Ticks_Phase_5,138,1,48,65,1171595920
75,8,23,Ticks_Phase_5,139,5,42,127,1171597732
75,8,23,Ticks_Phase_5,140,1,48,71,1172092888
75,8,23,Ticks_Phase_5,141,5,42,127,1172098320
75,8,23,Ticks_Phase_5,142,1,48,76,1172595420
75,8,23,Ticks_Phase_5,143,5,42,127,1172608268
75,8,23,Ticks_Phase_5,144,1,48,75,1173085228
75,8,23,Ticks_Phase_5,145,5,42,127,1173108176
75,8,23,Ticks_Phase_5,146,5,42,127,1173607948
75,8,23,Ticks_Phase_5,147,1,48,76,1173626424
75,8,23,Ticks_Phase_5,148,5,42,127,1174107560
75,8,23,Ticks_Phase_5,149,1,48,81,1174115012
75,8,23,Ticks_Phase_5,150,5,42,127,1174608220
75,8,23,Ticks_Phase_5,151,1,48,73,1174613580
75,8,23,Ticks_Phase_5,152,1,48,74,1175108204
75,8,23,Ticks_Phase_5,153,5,42,127,1175109468
75,8,23,Ticks_Phase_5,154,1,48,70,1175601112
75,8,23,Ticks_Phase_5,155,5,42,127,1175607884
75,8,23,Ticks_Phase_5,156,1,48,73,1176093236
75,8,23,Ticks_Phase_5,157,5,42,127,1176108476
75,8,23,Ticks_Phase_5,158,5,42,127,1176587652
75,8,23,Ticks_Phase_5,159,1,48,77,1176600880
75,8,23,Ticks_Phase_5,160,5,42,127,1177088388
75,8,23,Ticks_Phase_5,161,1,48,71,1177098024
75,8,23,Ticks_Phase_5,162,5,42,127,1177588076
75,8,23,Ticks_Phase_5,163,1,48,71,1177598088
75,8,23,Ticks_Phase_5,164,5,42,127,1178087912
75,8,23,Ticks_Phase_5,165,1,48,70,1178109156
75,8,23,Ticks_Phase_5,166,5,42,127,1178587600
75,8,23,Ticks_Phase_5,167,1,48,75,1178604116
75,8,23,Ticks_Phase_5,168,5,42,127,1179088260
75,8,23,Ticks_Phase_5,169,1,48,80,1179091900
75,8,23,Ticks_Phase_5,170,1,48,97,1179583264
75,8,23,Ticks_Phase_5,171,5,42,127,1179587944
75,8,23,Ticks_Phase_5,172,5,42,127,1180087788
75,8,23,Ticks_Phase_5,173,1,48,92,1180090832
75,8,23,Ticks_Phase_5,174,1,48,86,1180573856
75,8,23,Ticks_Phase_5,175,5,42,127,1180588292
75,8,23,Ticks_Phase_5,176,5,42,127,1181088112
75,8,23,Ticks_Phase_5,177,1,48,86,1181094888
75,8,23,Ticks_Phase_5,178,5,42,127,1181587848
75,8,23,Ticks_Phase_5,179,1,48,79,1181600624
75,8,23,Ticks_Phase_5,180,1,48,73,1182083228
75,8,23,Ticks_Phase_5,181,5,42,127,1182087604
75,8,23,Ticks_Phase_5,182,1,48,72,1182578572
75,8,23,Ticks_Phase_5,183,5,42,127,1182588340
75,8,23,Ticks_Phase_5,184,1,48,73,1183086440
75,8,23,Ticks_Phase_5,185,5,42,127,1183087876
75,8,23,Ticks_Phase_5,186,1,48,79,1183582812
75,8,23,Ticks_Phase_5,187,5,42,127,1183587640
75,8,23,Ticks_Phase_5,188,5,42,127,1184088756
75,8,23,Ticks_Phase_5,189,1,48,74,1184092096
75,8,23,Ticks_Phase_5,190,5,42,127,1184548228
75,8,23,Ticks_Phase_5,191,1,48,67,1184580704
75,8,23,Ticks_Phase_5,192,5,42,127,1185047916
75,8,23,Ticks_Phase_5,193,1,48,70,1185057556
75,8,23,Ticks_Phase_5,194,5,42,127,1185547680
75,8,23,Ticks_Phase_5,195,1,48,74,1185550800
75,8,23,Ticks_Phase_5,196,1,48,68,1186046292
75,8,23,Ticks_Phase_5,197,5,42,127,1186048260
75,8,23,Ticks_Phase_5,198,5,42,127,1186548032
75,8,23,Ticks_Phase_5,199,1,48,65,1186552716
75,8,23,Ticks_Phase_5,200,5,42,127,1187047720
75,8,23,Ticks_Phase_5,201,1,48,57,1187056456
75,8,23,Ticks_Phase_5,202,1,48,67,1187523028
75,8,23,Ticks_Phase_5,203,5,42,127,1187547624
75,8,23,Ticks_Phase_5,204,1,48,60,1188038444
75,8,23,Ticks_Phase_5,205,5,42,127,1188048360
75,8,23,Ticks_Phase_5,206,1,48,65,1188535276
75,8,23,Ticks_Phase_5,207,5,42,127,1188547972
75,8,23,Ticks_Phase_5,208,1,48,65,1189041192
75,8,23,Ticks_Phase_5,209,5,42,127,1189047660
75,8,23,Ticks_Phase_5,210,1,48,65,1189543864
75,8,23,Ticks_Phase_5,211,5,42,127,1189548620
75,8,23,Ticks_Phase_5,212,1,48,62,1190036576
75,8,23,Ticks_Phase_5,213,5,42,127,1190048132
75,8,23,Ticks_Phase_5,214,5,42,127,1190547752
75,8,23,Ticks_Phase_5,215,1,48,66,1190561352
75,8,23,Ticks_Phase_5,216,1,48,55,1191041308
75,8,23,Ticks_Phase_5,217,5,42,127,1191047484
75,8,23,Ticks_Phase_5,218,1,48,65,1191539424
75,8,23,Ticks_Phase_5,219,5,42,127,1191548216
75,8,23,Ticks_Phase_5,220,5,42,127,1192048060
75,8,23,Ticks_Phase_5,221,1,48,51,1192053272
75,8,23,Ticks_Phase_5,222,5,42,127,1192547676
75,8,23,Ticks_Phase_5,223,1,48,56,1192551764
75,8,23,Ticks_Phase_5,224,1,48,61,1193044548
75,8,23,Ticks_Phase_5,225,5,42,127,1193097532
75,8,23,Ticks_Phase_5,226,5,42,127,1193598572
75,8,23,Ticks_Phase_5,227,1,48,56,1193618548
75,8,23,Ticks_Phase_5,228,5,42,127,1194098112
75,8,23,Ticks_Phase_5,229,1,48,48,1194121448
75,8,23,Ticks_Phase_5,230,5,42,127,1194597724
75,8,23,Ticks_Phase_5,231,1,48,51,1194610500
75,8,23,Ticks_Phase_5,232,5,42,127,1195097636
75,8,23,Ticks_Phase_5,233,1,48,53,1195098900
75,8,23,Ticks_Phase_5,234,5,42,127,1195598296
75,8,23,Ticks_Phase_5,235,1,48,52,1195606736
75,8,23,Ticks_Phase_5,236,1,48,54,1196096632
75,8,23,Ticks_Phase_5,237,5,42,127,1196098128
75,8,23,Ticks_Phase_5,238,1,48,52,1196585196
75,8,23,Ticks_Phase_5,239,5,42,127,1196597592
75,8,23,Ticks_Phase_5,240,1,48,53,1197092748
75,8,23,Ticks_Phase_5,241,5,42,127,1197098328
75,8,23,Ticks_Phase_5,242,1,48,55,1197580464
75,8,23,Ticks_Phase_5,243,5,42,127,1197598016
75,8,23,Ticks_Phase_5,244,1,48,56,1198095116
75,8,23,Ticks_Phase_5,245,5,42,127,1198097776
75,8,23,Ticks_Phase_5,246,5,42,127,1198597472
75,8,23,Ticks_Phase_5,247,1,48,53,1198601936
75,8,23,Ticks_Phase_5,248,1,48,67,1199089484
75,8,23,Ticks_Phase_5,249,5,42,127,1199098424
75,8,23,Ticks_Phase_5,250,1,48,59,1199592384
75,8,23,Ticks_Phase_5,251,5,42,127,1199597816
75,8,23,Ticks_Phase_5,252,5,42,127,1200097584
75,8,23,Ticks_Phase_5,253,1,48,57,1200105408
75,8,23,Ticks_Phase_5,254,1,48,68,1200596196
75,8,23,Ticks_Phase_5,255,5,42,127,1200598312
75,8,23,Ticks_Phase_5,256,5,42,127,1201098232
75,8,23,Ticks_Phase_5,257,1,48,64,1201103220
75,8,23,Ticks_Phase_5,258,1,48,71,1201610164
75,8,23,Ticks_Phase_5,259,5,42,127,1201698264
75,8,23,Ticks_Phase_5,260,5,42,127,1202197884
75,8,23,Ticks_Phase_5,261,1,48,55,1202201076
75,8,23,Ticks_Phase_5,262,5,42,127,1202697644
75,8,23,Ticks_Phase_5,263,1,48,59,1202720912
75,8,23,Ticks_Phase_5,264,5,42,127,1203198456
75,8,23,Ticks_Phase_5,265,1,48,61,1203211388
75,8,23,Ticks_Phase_5,266,5,42,127,1203698220
75,8,23,Ticks_Phase_5,267,1,48,64,1203700744
75,8,23,Ticks_Phase_5,268,5,42,127,1204197688
75,8,23,Ticks_Phase_5,269,1,48,65,1204202600
75,8,23,Ticks_Phase_5,270,5,42,127,1204697524
75,8,23,Ticks_Phase_5,271,1,48,64,1204701688
75,8,23,Ticks_Phase_5,272,1,48,63,1205195820
75,8,23,Ticks_Phase_5,273,5,42,127,1205198476
75,8,23,Ticks_Phase_5,274,5,42,127,1205698024
75,8,23,Ticks_Phase_5,275,1,48,62,1205700620
75,8,23,Ticks_Phase_5,276,1,48,54,1206191532
75,8,23,Ticks_Phase_5,277,5,42,127,1206197556
75,8,23,Ticks_Phase_5,278,1,48,59,1206680788
75,8,23,Ticks_Phase_5,279,5,42,127,1206698512
75,8,23,Ticks_Phase_5,280,1,48,58,1207183396
75,8,23,Ticks_Phase_5,281,5,42,127,1207198252
75,8,23,Ticks_Phase_5,282,1,48,60,1207697348
75,8,23,Ticks_Phase_5,283,5,42,127,1207698840
75,8,23,Ticks_Phase_5,284,5,42,127,1208197412
75,8,23,Ticks_Phase_5,285,1,48,56,1208207348
75,8,23,Ticks_Phase_5,286,5,42,127,1208698368
75,8,23,Ticks_Phase_5,287,1,48,57,1208705692
75,8,23,Ticks_Phase_5,288,5,42,127,1209197908
75,8,23,Ticks_Phase_5,289,1,48,50,1209221176
75,8,23,Ticks_Phase_5,290,1,48,58,1209694632
75,8,23,Ticks_Phase_5,291,5,42,127,1209697664
75,8,23,Ticks_Phase_5,292,1,48,53,1210191328
75,8,23,Ticks_Phase_5,293,5,42,127,1210198328
75,8,23,Ticks_Phase_5,294,5,42,127,1210698544
75,8,23,Ticks_Phase_5,295,1,48,56,1210701660
75,8,23,Ticks_Phase_5,296,5,42,127,1211097436
75,8,23,Ticks_Phase_5,297,1,48,67,1211218208
75,8,23,Ticks_Phase_5,298,5,42,127,1211598172
75,8,23,Ticks_Phase_5,299,1,48,65,1211689136
75,8,23,Ticks_Phase_5,300,5,42,127,1212097860
75,8,23,Ticks_Phase_5,301,1,48,48,1212106224
75,8,23,Ticks_Phase_5,302,1,48,57,1212583052
75,8,23,Ticks_Phase_5,303,5,42,127,1212597616
75,8,23,Ticks_Phase_5,304,5,42,127,1213098356
75,8,23,Ticks_Phase_5,305,1,48,58,1213103040
75,8,23,Ticks_Phase_5,306,5,42,127,1213598172
75,8,23,Ticks_Phase_5,307,1,48,58,1213607584
75,8,23,Ticks_Phase_5,308,1,48,57,1214094268
75,8,23,Ticks_Phase_5,309,5,42,127,1214097976
75,8,23,Ticks_Phase_5,310,1,48,54,1214593660
75,8,23,Ticks_Phase_5,311,5,42,127,1214597440
75,8,23,Ticks_Phase_5,312,1,48,62,1215072680
75,8,23,Ticks_Phase_5,313,5,42,127,1215098176
75,8,23,Ticks_Phase_5,314,5,42,127,1215598020
75,8,23,Ticks_Phase_5,315,1,48,59,1215613192
75,8,23,Ticks_Phase_5,316,5,42,127,1216097560
75,8,23,Ticks_Phase_5,317,1,48,57,1216121420
75,8,23,Ticks_Phase_5,318,5,42,127,1216598368
75,8,23,Ticks_Phase_5,319,1,48,59,1216600380
75,8,23,Ticks_Phase_5,320,1,48,63,1217098208
75,8,23,Ticks_Phase_5,321,5,42,127,1217099544
75,8,23,Ticks_Phase_5,322,5,42,127,1217597896
75,8,23,Ticks_Phase_5,323,1,48,64,1217610596
75,8,23,Ticks_Phase_5,324,5,42,127,1218097432
75,8,23,Ticks_Phase_5,325,1,48,62,1218110588
75,8,23,Ticks_Phase_5,326,1,48,57,1218594156
75,8,23,Ticks_Phase_5,327,5,42,127,1218598308
75,8,23,Ticks_Phase_5,328,1,48,56,1219088908
75,8,23,Ticks_Phase_5,329,5,42,127,1219097924
75,8,23,Ticks_Phase_5,330,1,48,65,1219589196
75,8,23,Ticks_Phase_5,331,5,42,127,1219597612
75,8,23,Ticks_Phase_5,332,5,42,127,1220098352
75,8,23,Ticks_Phase_5,333,1,48,62,1220104160
75,8,23,Ticks_Phase_5,334,1,48,55,1220598380
75,8,23,Ticks_Phase_5,335,5,42,127,1220608368
75,8,23,Ticks_Phase_5,0,9999,9999,9999,1136045116
75,8,23,Ticks_Phase_5,1,9999,9999,9999,1136545848
75,8,23,Ticks_Phase_5,2,9999,9999,9999,1137045608
75,8,23,Ticks_Phase_5,3,9999,9999,9999,1137545316
75,8,23,Ticks_Phase_5,4,9999,9999,9999,1138046068
75,8,23,Ticks_Phase_5,5,9999,9999,9999,1138545756
75,8,23,Ticks_Phase_5,6,9999,9999,9999,1139045452
75,8,23,Ticks_Phase_5,7,9999,9999,9999,1139545216
75,8,23,Ticks_Phase_5,8,9999,9999,9999,1140045948
75,8,23,Ticks_Phase_5,9,9999,9999,9999,1140545628
75,8,23,Ticks_Phase_5,10,9999,9999,9999,1141045320
75,8,23,Ticks_Phase_5,11,9999,9999,9999,1141546056
75,8,23,Ticks_Phase_5,12,9999,9999,9999,1142045748
75,8,23,Ticks_Phase_5,13,9999,9999,9999,1142545516
75,8,23,Ticks_Phase_5,14,9999,9999,9999,1143045196
75,8,23,Ticks_Phase_5,15,9999,9999,9999,1143545932
75,8,23,Ticks_Phase_5,16,9999,9999,9999,1144045692
75,8,23,Ticks_Phase_5,17,9999,9999,9999,1144545380
75,8,23,Ticks_Phase_5,18,9999,9999,9999,1145046120
75,8,23,Ticks_Phase_5,19,9999,9999,9999,1145556064
75,8,23,Ticks_Phase_5,20,9999,9999,9999,1146055752
75,8,23,Ticks_Phase_5,21,9999,9999,9999,1146555516
75,8,23,Ticks_Phase_5,22,9999,9999,9999,1147055212
75,8,23,Ticks_Phase_5,23,9999,9999,9999,1147555940
75,8,23,Ticks_Phase_5,24,9999,9999,9999,1148055608
75,8,23,Ticks_Phase_5,25,9999,9999,9999,1148555372
75,8,23,Ticks_Phase_5,26,9999,9999,9999,1149056108
75,8,23,Ticks_Phase_5,27,9999,9999,9999,1149566048
75,8,23,Ticks_Phase_5,28,9999,9999,9999,1150065740
75,8,23,Ticks_Phase_5,29,9999,9999,9999,1150565504
75,8,23,Ticks_Phase_5,30,9999,9999,9999,1151055980
75,8,23,Ticks_Phase_5,31,9999,9999,9999,1151555668
75,8,23,Ticks_Phase_5,32,9999,9999,9999,1152055356
75,8,23,Ticks_Phase_5,33,9999,9999,9999,1152555120
75,8,23,Ticks_Phase_5,34,9999,9999,9999,1153055856
75,8,23,Ticks_Phase_5,35,9999,9999,9999,1153555580
75,8,23,Ticks_Phase_5,36,9999,9999,9999,1154055232
75,8,23,Ticks_Phase_5,37,9999,9999,9999,1154555960
75,8,23,Ticks_Phase_5,38,9999,9999,9999,1155055728
75,8,23,Ticks_Phase_5,39,9999,9999,9999,1155555416
75,8,23,Ticks_Phase_5,40,9999,9999,9999,1156055104
75,8,23,Ticks_Phase_5,41,9999,9999,9999,1156555840
75,8,23,Ticks_Phase_5,42,9999,9999,9999,1157055604
75,8,23,Ticks_Phase_5,43,9999,9999,9999,1157555292
75,8,23,Ticks_Phase_5,44,9999,9999,9999,1158056024
75,8,23,Ticks_Phase_5,45,9999,9999,9999,1158555764
75,8,23,Ticks_Phase_5,46,9999,9999,9999,1159055452
75,8,23,Ticks_Phase_5,47,9999,9999,9999,1159555140
75,8,23,Ticks_Phase_5,48,9999,9999,9999,1160065088
75,8,23,Ticks_Phase_5,49,9999,9999,9999,1160565824
75,8,23,Ticks_Phase_5,50,9999,9999,9999,1161065544
75,8,23,Ticks_Phase_5,51,9999,9999,9999,1161565272
75,8,23,Ticks_Phase_5,52,9999,9999,9999,1162066008
75,8,23,Ticks_Phase_5,53,9999,9999,9999,1162565688
75,8,23,Ticks_Phase_5,54,9999,9999,9999,1163065460
75,8,23,Ticks_Phase_5,55,9999,9999,9999,1163565148
75,8,23,Ticks_Phase_5,56,9999,9999,9999,1164065876
75,8,23,Ticks_Phase_5,57,9999,9999,9999,1164565564
75,8,23,Ticks_Phase_5,58,9999,9999,9999,1165065332
75,8,23,Ticks_Phase_5,59,9999,9999,9999,1165566068
75,8,23,Ticks_Phase_5,60,9999,9999,9999,1166065748
75,8,23,Ticks_Phase_5,61,9999,9999,9999,1166565444
75,8,23,Ticks_Phase_5,62,9999,9999,9999,1167065204
75,8,23,Ticks_Phase_5,63,9999,9999,9999,1167565936
75,8,23,Ticks_Phase_5,64,9999,9999,9999,1168086144
75,8,23,Ticks_Phase_5,65,9999,9999,9999,1168596088
75,8,23,Ticks_Phase_5,66,9999,9999,9999,1169095780
75,8,23,Ticks_Phase_5,67,9999,9999,9999,1169595476
75,8,23,Ticks_Phase_5,68,9999,9999,9999,1170095164
75,8,23,Ticks_Phase_5,69,9999,9999,9999,1170595900
75,8,23,Ticks_Phase_5,70,9999,9999,9999,1171095640
75,8,23,Ticks_Phase_5,71,9999,9999,9999,1171595320
75,8,23,Ticks_Phase_5,72,9999,9999,9999,1172096108
75,8,23,Ticks_Phase_5,73,9999,9999,9999,1172606052
75,8,23,Ticks_Phase_5,74,9999,9999,9999,1173105740
75,8,23,Ticks_Phase_5,75,9999,9999,9999,1173605436
75,8,23,Ticks_Phase_5,76,9999,9999,9999,1174105196
75,8,23,Ticks_Phase_5,77,9999,9999,9999,1174605932
75,8,23,Ticks_Phase_5,78,9999,9999,9999,1175105620
75,8,23,Ticks_Phase_5,79,9999,9999,9999,1175605372
75,8,23,Ticks_Phase_5,80,9999,9999,9999,1176106112
75,8,23,Ticks_Phase_5,81,9999,9999,9999,1176585288
75,8,23,Ticks_Phase_5,82,9999,9999,9999,1177086024
75,8,23,Ticks_Phase_5,83,9999,9999,9999,1177585784
75,8,23,Ticks_Phase_5,84,9999,9999,9999,1178085472
75,8,23,Ticks_Phase_5,85,9999,9999,9999,1178585160
75,8,23,Ticks_Phase_5,86,9999,9999,9999,1179085896
75,8,23,Ticks_Phase_5,87,9999,9999,9999,1179585652
75,8,23,Ticks_Phase_5,88,9999,9999,9999,1180085352
75,8,23,Ticks_Phase_5,89,9999,9999,9999,1180586076
75,8,23,Ticks_Phase_5,90,9999,9999,9999,1181085820
75,8,23,Ticks_Phase_5,91,9999,9999,9999,1181585484
75,8,23,Ticks_Phase_5,92,9999,9999,9999,1182085240
75,8,23,Ticks_Phase_5,93,9999,9999,9999,1182585976
75,8,23,Ticks_Phase_5,94,9999,9999,9999,1183085668
75,8,23,Ticks_Phase_5,95,9999,9999,9999,1183585352
75,8,23,Ticks_Phase_5,96,9999,9999,9999,1184086096
75,8,23,Ticks_Phase_5,97,9999,9999,9999,1184545864
75,8,23,Ticks_Phase_5,98,9999,9999,9999,1185045628
75,8,23,Ticks_Phase_5,99,9999,9999,9999,1185545316
75,8,23,Ticks_Phase_5,100,9999,9999,9999,1186046008
75,8,23,Ticks_Phase_5,101,9999,9999,9999,1186545740
75,8,23,Ticks_Phase_5,102,9999,9999,9999,1187045428
75,8,23,Ticks_Phase_5,103,9999,9999,9999,1187545188
75,8,23,Ticks_Phase_5,104,9999,9999,9999,1188045920
75,8,23,Ticks_Phase_5,105,9999,9999,9999,1188545608
75,8,23,Ticks_Phase_5,106,9999,9999,9999,1189045372
75,8,23,Ticks_Phase_5,107,9999,9999,9999,1189546108
75,8,23,Ticks_Phase_5,108,9999,9999,9999,1190045768
75,8,23,Ticks_Phase_5,109,9999,9999,9999,1190545464
75,8,23,Ticks_Phase_5,110,9999,9999,9999,1191045192
75,8,23,Ticks_Phase_5,111,9999,9999,9999,1191545928
75,8,23,Ticks_Phase_5,112,9999,9999,9999,1192045624
75,8,23,Ticks_Phase_5,113,9999,9999,9999,1192545384
75,8,23,Ticks_Phase_5,114,9999,9999,9999,1193095240
75,8,23,Ticks_Phase_5,115,9999,9999,9999,1193595984
75,8,23,Ticks_Phase_5,116,9999,9999,9999,1194095672
75,8,23,Ticks_Phase_5,117,9999,9999,9999,1194595436
75,8,23,Ticks_Phase_5,118,9999,9999,9999,1195095124
75,8,23,Ticks_Phase_5,119,9999,9999,9999,1195595856
75,8,23,Ticks_Phase_5,120,9999,9999,9999,1196095548
75,8,23,Ticks_Phase_5,121,9999,9999,9999,1196595300
75,8,23,Ticks_Phase_5,122,9999,9999,9999,1197096040
75,8,23,Ticks_Phase_5,123,9999,9999,9999,1197595728
75,8,23,Ticks_Phase_5,124,9999,9999,9999,1198095416
75,8,23,Ticks_Phase_5,125,9999,9999,9999,1198595184
75,8,23,Ticks_Phase_5,126,9999,9999,9999,1199095912
75,8,23,Ticks_Phase_5,127,9999,9999,9999,1199595600
75,8,23,Ticks_Phase_5,128,9999,9999,9999,1200095296
75,8,23,Ticks_Phase_5,129,9999,9999,9999,1200596060
75,8,23,Ticks_Phase_5,130,9999,9999,9999,1201095792
75,8,23,Ticks_Phase_5,131,9999,9999,9999,1201695824
75,8,23,Ticks_Phase_5,132,9999,9999,9999,1202195520
75,8,23,Ticks_Phase_5,133,9999,9999,9999,1202695280
75,8,23,Ticks_Phase_5,134,9999,9999,9999,1203196020
75,8,23,Ticks_Phase_5,135,9999,9999,9999,1203695708
75,8,23,Ticks_Phase_5,136,9999,9999,9999,1204195396
75,8,23,Ticks_Phase_5,137,9999,9999,9999,1204695160
75,8,23,Ticks_Phase_5,138,9999,9999,9999,1205195888
75,8,23,Ticks_Phase_5,139,9999,9999,9999,1205695584
75,8,23,Ticks_Phase_5,140,9999,9999,9999,1206195268
75,8,23,Ticks_Phase_5,141,9999,9999,9999,1206696000
75,8,23,Ticks_Phase_5,142,9999,9999,9999,1207195740
75,8,23,Ticks_Phase_5,143,9999,9999,9999,1207695436
75,8,23,Ticks_Phase_5,144,9999,9999,9999,1208195196
75,8,23,Ticks_Phase_5,145,9999,9999,9999,1208695932
75,8,23,Ticks_Phase_5,146,9999,9999,9999,1209195620
75,8,23,Ticks_Phase_5,147,9999,9999,9999,1209695300
75,8,23,Ticks_Phase_5,148,9999,9999,9999,1210196036
75,8,23,Ticks_Phase_5,149,9999,9999,9999,1210695804
75,8,23,Ticks_Phase_5,150,9999,9999,9999,1211095148
75,8,23,Ticks_Phase_5,151,9999,9999,9999,1211595880
75,8,23,Ticks_Phase_5,152,9999,9999,9999,1212095568
75,8,23,Ticks_Phase_5,153,9999,9999,9999,1212595324
75,8,23,Ticks_Phase_5,154,9999,9999,9999,1213095992
75,8,23,Ticks_Phase_5,155,9999,9999,9999,1213595732
75,8,23,Ticks_Phase_5,156,9999,9999,9999,1214095464
75,8,23,Ticks_Phase_5,157,9999,9999,9999,1214595152
75,8,23,Ticks_Phase_5,158,9999,9999,9999,1215095888
75,8,23,Ticks_Phase_5,159,9999,9999,9999,1215595584
75,8,23,Ticks_Phase_5,160,9999,9999,9999,1216095344
75,8,23,Ticks_Phase_5,161,9999,9999,9999,1216596080
75,8,23,Ticks_Phase_5,162,9999,9999,9999,1217095768
75,8,23,Ticks_Phase_5,163,9999,9999,9999,1217595456
75,8,23,Ticks_Phase_5,164,9999,9999,9999,1218095216
75,8,23,Ticks_Phase_5,165,9999,9999,9999,1218595948
75,8,23,Ticks_Phase_5,166,9999,9999,9999,1219095636
75,8,23,Ticks_Phase_5,167,9999,9999,9999,1219595324
75,8,23,Ticks_Phase_5,168,9999,9999,9999,1220096068
75,8,23,Ticks_Phase_5,169,9999,9999,9999,1220606080
75,9,9,Ticks_ISO_T2_8,0,5,42,127,1230811640
75,9,9,Ticks_ISO_T2_8,1,5,42,127,1231612216
75,9,9,Ticks_ISO_T2_8,2,5,42,127,1232411896
75,9,9,Ticks_ISO_T2_8,3,5,42,127,1233212100
75,9,9,Ticks_ISO_T2_8,4,1,48,82,1233965812
75,9,9,Ticks_ISO_T2_8,5,5,42,127,1234011772
75,9,9,Ticks_ISO_T2_8,6,1,48,85,1234756952
75,9,9,Ticks_ISO_T2_8,7,5,42,127,1234812256
75,9,9,Ticks_ISO_T2_8,8,1,48,77,1235606492
75,9,9,Ticks_ISO_T2_8,9,5,42,127,1235611988
75,9,9,Ticks_ISO_T2_8,10,1,48,72,1236396084
75,9,9,Ticks_ISO_T2_8,11,5,42,127,1236411748
75,9,9,Ticks_ISO_T2_8,12,1,48,70,1237199700
75,9,9,Ticks_ISO_T2_8,13,5,42,127,1237211704
75,9,9,Ticks_ISO_T2_8,14,1,48,62,1237993900
75,9,9,Ticks_ISO_T2_8,15,5,42,127,1238012260
75,9,9,Ticks_ISO_T2_8,16,1,48,59,1238801640
75,9,9,Ticks_ISO_T2_8,17,5,42,127,1238812144
75,9,9,Ticks_ISO_T2_8,18,1,48,58,1239591124
75,9,9,Ticks_ISO_T2_8,19,5,42,127,1239611728
75,9,9,Ticks_ISO_T2_8,20,1,48,59,1240380836
75,9,9,Ticks_ISO_T2_8,21,5,42,127,1240411684
75,9,9,Ticks_ISO_T2_8,22,1,48,64,1241166204
75,9,9,Ticks_ISO_T2_8,23,5,42,127,1241212388
75,9,9,Ticks_ISO_T2_8,24,1,48,80,1241985088
75,9,9,Ticks_ISO_T2_8,25,5,42,127,1242011900
75,9,9,Ticks_ISO_T2_8,26,1,48,65,1242795172
75,9,9,Ticks_ISO_T2_8,27,5,42,127,1242811808
75,9,9,Ticks_ISO_T2_8,28,1,48,81,1243571640
75,9,9,Ticks_ISO_T2_8,29,5,42,127,1243611616
75,9,9,Ticks_ISO_T2_8,30,1,48,85,1244371000
75,9,9,Ticks_ISO_T2_8,31,5,42,127,1244412244
75,9,9,Ticks_ISO_T2_8,32,1,48,91,1245183520
75,9,9,Ticks_ISO_T2_8,33,5,42,127,1245212128
75,9,9,Ticks_ISO_T2_8,34,5,42,127,1246011868
75,9,9,Ticks_ISO_T2_8,35,1,48,86,1246014540
75,9,9,Ticks_ISO_T2_8,36,5,42,127,1246811528
75,9,9,Ticks_ISO_T2_8,37,1,48,90,1246825264
75,9,9,Ticks_ISO_T2_8,38,1,48,78,1247594840
75,9,9,Ticks_ISO_T2_8,39,5,42,127,1247612448
75,9,9,Ticks_ISO_T2_8,40,1,48,71,1248393304
75,9,9,Ticks_ISO_T2_8,41,5,42,127,1248412036
75,9,9,Ticks_ISO_T2_8,42,1,48,66,1249169676
75,9,9,Ticks_ISO_T2_8,43,5,42,127,1249211696
75,9,9,Ticks_ISO_T2_8,44,1,48,81,1249980580
75,9,9,Ticks_ISO_T2_8,45,5,42,127,1250011504
75,9,9,Ticks_ISO_T2_8,46,1,48,75,1250792880
75,9,9,Ticks_ISO_T2_8,47,5,42,127,1250812432
75,9,9,Ticks_ISO_T2_8,48,1,48,64,1251600092
75,9,9,Ticks_ISO_T2_8,49,5,42,127,1251611944
75,9,9,Ticks_ISO_T2_8,50,5,42,127,1252411684
75,9,9,Ticks_ISO_T2_8,51,1,48,71,1252414424
75,9,9,Ticks_ISO_T2_8,52,5,42,127,1253211468
75,9,9,Ticks_ISO_T2_8,53,1,48,70,1253218776
75,9,9,Ticks_ISO_T2_8,54,1,48,65,1253992612
75,9,9,Ticks_ISO_T2_8,55,5,42,127,1254012464
75,9,9,Ticks_ISO_T2_8,56,1,48,67,1254804008
75,9,9,Ticks_ISO_T2_8,57,5,42,127,1254811972
75,9,9,Ticks_ISO_T2_8,58,1,48,74,1255598584
75,9,9,Ticks_ISO_T2_8,59,5,42,127,1255611856
75,9,9,Ticks_ISO_T2_8,60,1,48,74,1256390164
75,9,9,Ticks_ISO_T2_8,61,5,42,127,1256411440
75,9,9,Ticks_ISO_T2_8,62,1,48,63,1257185412
75,9,9,Ticks_ISO_T2_8,63,5,42,127,1257212520
75,9,9,Ticks_ISO_T2_8,64,1,48,68,1257984768
75,9,9,Ticks_ISO_T2_8,65,5,42,127,1258011880
75,9,9,Ticks_ISO_T2_8,66,1,48,65,1258810332
75,9,9,Ticks_ISO_T2_8,67,5,42,127,1258811840
75,9,9,Ticks_ISO_T2_8,68,1,48,65,1259594408
75,9,9,Ticks_ISO_T2_8,69,5,42,127,1259611420
75,9,9,Ticks_ISO_T2_8,70,1,48,64,1260364372
75,9,9,Ticks_ISO_T2_8,71,5,42,127,1260412424
75,9,9,Ticks_ISO_T2_8,72,5,42,127,1261211868
75,9,9,Ticks_ISO_T2_8,73,1,48,55,1261212832
75,9,9,Ticks_ISO_T2_8,74,1,48,54,1261991388
75,9,9,Ticks_ISO_T2_8,75,5,42,127,1262011616
75,9,9,Ticks_ISO_T2_8,76,5,42,127,1262811580
75,9,9,Ticks_ISO_T2_8,77,1,48,66,1262812548
75,9,9,Ticks_ISO_T2_8,78,1,48,73,1263590032
75,9,9,Ticks_ISO_T2_8,79,5,42,127,1263612280
75,9,9,Ticks_ISO_T2_8,80,1,48,65,1264385280
75,9,9,Ticks_ISO_T2_8,81,5,42,127,1264412164
75,9,9,Ticks_ISO_T2_8,82,1,48,59,1265209864
75,9,9,Ticks_ISO_T2_8,83,5,42,127,1265211600
75,9,9,Ticks_ISO_T2_8,84,1,48,62,1266005684
75,9,9,Ticks_ISO_T2_8,85,5,42,127,1266011408
75,9,9,Ticks_ISO_T2_8,86,1,48,53,1266785224
75,9,9,Ticks_ISO_T2_8,87,5,42,127,1266812336
75,9,9,Ticks_ISO_T2_8,88,1,48,58,1267593336
75,9,9,Ticks_ISO_T2_8,89,5,42,127,1267612068
75,9,9,Ticks_ISO_T2_8,90,1,48,59,1268398628
75,9,9,Ticks_ISO_T2_8,91,5,42,127,1268411676
75,9,9,Ticks_ISO_T2_8,92,1,48,64,1269199040
75,9,9,Ticks_ISO_T2_8,93,5,42,127,1269211560
75,9,9,Ticks_ISO_T2_8,94,1,48,56,1269977160
75,9,9,Ticks_ISO_T2_8,95,5,42,127,1270012192
75,9,9,Ticks_ISO_T2_8,96,1,48,69,1270812156
75,9,9,Ticks_ISO_T2_8,97,5,42,127,1270813492
75,9,9,Ticks_ISO_T2_8,98,1,48,63,1271601900
75,9,9,Ticks_ISO_T2_8,99,5,42,127,1271611956
75,9,9,Ticks_ISO_T2_8,100,1,48,64,1272404180
75,9,9,Ticks_ISO_T2_8,101,5,42,127,1272411540
75,9,9,Ticks_ISO_T2_8,102,1,48,64,1273177360
75,9,9,Ticks_ISO_T2_8,103,5,42,127,1273212248
75,9,9,Ticks_ISO_T2_8,104,1,48,54,1274000276
75,9,9,Ticks_ISO_T2_8,105,5,42,127,1274012056
75,9,9,Ticks_ISO_T2_8,106,1,48,62,1274805120
75,9,9,Ticks_ISO_T2_8,107,5,42,127,1274811888
75,9,9,Ticks_ISO_T2_8,108,1,48,57,1275581600
75,9,9,Ticks_ISO_T2_8,109,5,42,127,1275611400
75,9,9,Ticks_ISO_T2_8,110,1,48,68,1276404820
75,9,9,Ticks_ISO_T2_8,111,5,42,127,1276412404
75,9,9,Ticks_ISO_T2_8,112,1,48,76,1277201932
75,9,9,Ticks_ISO_T2_8,113,5,42,127,1277211988
75,9,9,Ticks_ISO_T2_8,114,1,48,76,1278005928
75,9,9,Ticks_ISO_T2_8,115,5,42,127,1278011872
75,9,9,Ticks_ISO_T2_8,116,1,48,78,1278799980
75,9,9,Ticks_ISO_T2_8,117,5,42,127,1278811532
75,9,9,Ticks_ISO_T2_8,118,1,48,81,1279580860
75,9,9,Ticks_ISO_T2_8,119,5,42,127,1279612160
75,9,9,Ticks_ISO_T2_8,120,1,48,76,1280384336
75,9,9,Ticks_ISO_T2_8,121,5,42,127,1280411896
75,9,9,Ticks_ISO_T2_8,122,1,48,68,1281193444
75,9,9,Ticks_ISO_T2_8,123,5,42,127,1281211876
75,9,9,Ticks_ISO_T2_8,124,1,48,84,1282003648
75,9,9,Ticks_ISO_T2_8,125,5,42,127,1282011684
75,9,9,Ticks_ISO_T2_8,126,1,48,82,1282771520
75,9,9,Ticks_ISO_T2_8,127,5,42,127,1282812244
75,9,9,Ticks_ISO_T2_8,128,5,42,127,1283611980
75,9,9,Ticks_ISO_T2_8,129,1,48,80,1283625720
75,9,9,Ticks_ISO_T2_8,130,5,42,127,1284411940
75,9,9,Ticks_ISO_T2_8,131,1,48,81,1284419776
75,9,9,Ticks_ISO_T2_8,132,5,42,127,1285211452
75,9,9,Ticks_ISO_T2_8,133,1,48,81,1285214272
75,9,9,Ticks_ISO_T2_8,134,1,48,76,1285982868
75,9,9,Ticks_ISO_T2_8,135,5,42,127,1286012148
75,9,9,Ticks_ISO_T2_8,136,1,48,85,1286785220
75,9,9,Ticks_ISO_T2_8,137,5,42,127,1286812104
75,9,9,Ticks_ISO_T2_8,138,1,48,79,1287584952
75,9,9,Ticks_ISO_T2_8,139,5,42,127,1287611764
75,9,9,Ticks_ISO_T2_8,140,1,48,67,1288380196
75,9,9,Ticks_ISO_T2_8,141,5,42,127,1288411644
75,9,9,Ticks_ISO_T2_8,142,1,48,72,1289178584
75,9,9,Ticks_ISO_T2_8,143,5,42,127,1289212128
75,9,9,Ticks_ISO_T2_8,144,1,48,75,1289985796
75,9,9,Ticks_ISO_T2_8,145,5,42,127,1290011936
75,9,9,Ticks_ISO_T2_8,146,1,48,69,1290780668
75,9,9,Ticks_ISO_T2_8,147,5,42,127,1290811892
75,9,9,Ticks_ISO_T2_8,148,1,48,69,1291603588
75,9,9,Ticks_ISO_T2_8,149,5,42,127,1291611552
75,9,9,Ticks_ISO_T2_8,150,1,48,66,1292397192
75,9,9,Ticks_ISO_T2_8,151,5,42,127,1292412332
75,9,9,Ticks_ISO_T2_8,152,5,42,127,1293212320
75,9,9,Ticks_ISO_T2_8,153,1,48,66,1293213212
75,9,9,Ticks_ISO_T2_8,154,1,48,71,1293991972
75,9,9,Ticks_ISO_T2_8,155,5,42,127,1294011748
75,9,9,Ticks_ISO_T2_8,156,1,48,73,1294775696
75,9,9,Ticks_ISO_T2_8,157,5,42,127,1294811632
75,9,9,Ticks_ISO_T2_8,158,1,48,92,1295591284
75,9,9,Ticks_ISO_T2_8,159,5,42,127,1295612188
75,9,9,Ticks_ISO_T2_8,160,1,48,79,1296357664
75,9,9,Ticks_ISO_T2_8,161,5,42,127,1296412072
75,9,9,Ticks_ISO_T2_8,162,1,48,66,1297200328
75,9,9,Ticks_ISO_T2_8,163,5,42,127,1297211732
75,9,9,Ticks_ISO_T2_8,164,1,48,68,1297985776
75,9,9,Ticks_ISO_T2_8,165,5,42,127,1298011684
75,9,9,Ticks_ISO_T2_8,166,1,48,62,1298794180
75,9,9,Ticks_ISO_T2_8,167,5,42,127,1298812244
75,9,9,Ticks_ISO_T2_8,168,1,48,53,1299576336
75,9,9,Ticks_ISO_T2_8,169,5,42,127,1299611924
75,9,9,Ticks_ISO_T2_8,170,1,48,56,1300381260
75,9,9,Ticks_ISO_T2_8,171,5,42,127,1300411660
75,9,9,Ticks_ISO_T2_8,172,1,48,55,1301143568
75,9,9,Ticks_ISO_T2_8,173,5,42,127,1301211692
75,9,9,Ticks_ISO_T2_8,174,1,48,65,1301985884
75,9,9,Ticks_ISO_T2_8,175,5,42,127,1302012396
75,9,9,Ticks_ISO_T2_8,176,1,48,59,1302762880
75,9,9,Ticks_ISO_T2_8,177,5,42,127,1302811908
75,9,9,Ticks_ISO_T2_8,178,1,48,65,1303586324
75,9,9,Ticks_ISO_T2_8,179,5,42,127,1303611716
75,9,9,Ticks_ISO_T2_8,180,1,48,65,1304351576
75,9,9,Ticks_ISO_T2_8,181,5,42,127,1304411672
75,9,9,Ticks_ISO_T2_8,182,5,42,127,1305212384
75,9,9,Ticks_ISO_T2_8,183,1,48,60,1305223880
75,9,9,Ticks_ISO_T2_8,184,1,48,60,1306010604
75,9,9,Ticks_ISO_T2_8,185,5,42,127,1306012136
75,9,9,Ticks_ISO_T2_8,186,1,48,58,1306781392
75,9,9,Ticks_ISO_T2_8,187,5,42,127,1306811644
75,9,9,Ticks_ISO_T2_8,188,1,48,60,1307583068
75,9,9,Ticks_ISO_T2_8,189,5,42,127,1307611380
75,9,9,Ticks_ISO_T2_8,190,1,48,79,1308390736
75,9,9,Ticks_ISO_T2_8,191,5,42,127,1308412384
75,9,9,Ticks_ISO_T2_8,192,1,48,82,1309183436
75,9,9,Ticks_ISO_T2_8,193,5,42,127,1309212116
75,9,9,Ticks_ISO_T2_8,194,1,48,66,1309987212
75,9,9,Ticks_ISO_T2_8,195,5,42,127,1310011700
75,9,9,Ticks_ISO_T2_8,196,1,48,69,1310758220
75,9,9,Ticks_ISO_T2_8,197,5,42,127,1310811436
75,9,9,Ticks_ISO_T2_8,198,1,48,68,1311599168
75,9,9,Ticks_ISO_T2_8,199,5,42,127,1311612364
75,9,9,Ticks_ISO_T2_8,200,1,48,60,1312348264
75,9,9,Ticks_ISO_T2_8,201,5,42,127,1312411900
75,9,9,Ticks_ISO_T2_8,202,1,48,69,1313208532
75,9,9,Ticks_ISO_T2_8,203,5,42,127,1313211708
75,9,9,Ticks_ISO_T2_8,204,1,48,69,1313997640
75,9,9,Ticks_ISO_T2_8,205,5,42,127,1314011440
75,9,9,Ticks_ISO_T2_8,206,5,42,127,1314812524
75,9,9,Ticks_ISO_T2_8,207,1,48,67,1314814088
75,9,9,Ticks_ISO_T2_8,208,1,48,66,1315584912
75,9,9,Ticks_ISO_T2_8,209,5,42,127,1315611952
75,9,9,Ticks_ISO_T2_8,210,5,42,127,1316411692
75,9,9,Ticks_ISO_T2_8,211,1,48,63,1316430896
75,9,9,Ticks_ISO_T2_8,212,1,48,63,1317189020
75,9,9,Ticks_ISO_T2_8,213,5,42,127,1317211568
75,9,9,Ticks_ISO_T2_8,214,1,48,68,1317995036
75,9,9,Ticks_ISO_T2_8,215,5,42,127,1318012424
75,9,9,Ticks_ISO_T2_8,216,1,48,67,1318775768
75,9,9,Ticks_ISO_T2_8,217,5,42,127,1318812180
75,9,9,Ticks_ISO_T2_8,218,1,48,62,1319609952
75,9,9,Ticks_ISO_T2_8,219,5,42,127,1319611688
75,9,9,Ticks_ISO_T2_8,220,1,48,63,1320386332
75,9,9,Ticks_ISO_T2_8,221,5,42,127,1320411348
75,9,9,Ticks_ISO_T2_8,222,1,48,73,1321196764
75,9,9,Ticks_ISO_T2_8,223,5,42,127,1321212428
75,9,9,Ticks_ISO_T2_8,224,1,48,71,1321989912
75,9,9,Ticks_ISO_T2_8,225,5,42,127,1322012232
75,9,9,Ticks_ISO_T2_8,226,1,48,81,1322769076
75,9,9,Ticks_ISO_T2_8,227,5,42,127,1322811744
75,9,9,Ticks_ISO_T2_8,228,1,48,68,1323602688
75,9,9,Ticks_ISO_T2_8,229,5,42,127,1323611476
75,9,9,Ticks_ISO_T2_8,230,1,48,66,1324387692
75,9,9,Ticks_ISO_T2_8,231,5,42,127,1324412184
75,9,9,Ticks_ISO_T2_8,232,1,48,55,1325190492
75,9,9,Ticks_ISO_T2_8,233,5,42,127,1325212164
75,9,9,Ticks_ISO_T2_8,234,1,48,68,1326005052
75,9,9,Ticks_ISO_T2_8,235,5,42,127,1326011672
75,9,9,Ticks_ISO_T2_8,236,1,48,76,1326783772
75,9,9,Ticks_ISO_T2_8,0,9999,9999,9999,1230809200
75,9,9,Ticks_ISO_T2_8,1,9999,9999,9999,1231609928
75,9,9,Ticks_ISO_T2_8,2,9999,9999,9999,1232409684
75,9,9,Ticks_ISO_T2_8,3,9999,9999,9999,1233209440
75,9,9,Ticks_ISO_T2_8,4,9999,9999,9999,1234009188
75,9,9,Ticks_ISO_T2_8,5,9999,9999,9999,1234809968
75,9,9,Ticks_ISO_T2_8,6,9999,9999,9999,1235609700
75,9,9,Ticks_ISO_T2_8,7,9999,9999,9999,1236409460
75,9,9,Ticks_ISO_T2_8,8,9999,9999,9999,1237209192
75,9,9,Ticks_ISO_T2_8,9,9999,9999,9999,1238009972
75,9,9,Ticks_ISO_T2_8,10,9999,9999,9999,1238809708
75,9,9,Ticks_ISO_T2_8,11,9999,9999,9999,1239609440
75,9,9,Ticks_ISO_T2_8,12,9999,9999,9999,1240409172
75,9,9,Ticks_ISO_T2_8,13,9999,9999,9999,1241209952
75,9,9,Ticks_ISO_T2_8,14,9999,9999,9999,1242009688
75,9,9,Ticks_ISO_T2_8,15,9999,9999,9999,1242809444
75,9,9,Ticks_ISO_T2_8,16,9999,9999,9999,1243609176
75,9,9,Ticks_ISO_T2_8,17,9999,9999,9999,1244409956
75,9,9,Ticks_ISO_T2_8,18,9999,9999,9999,1245209692
75,9,9,Ticks_ISO_T2_8,19,9999,9999,9999,1246009432
75,9,9,Ticks_ISO_T2_8,20,9999,9999,9999,1246809164
75,9,9,Ticks_ISO_T2_8,21,9999,9999,9999,1247609940
75,9,9,Ticks_ISO_T2_8,22,9999,9999,9999,1248409672
75,9,9,Ticks_ISO_T2_8,23,9999,9999,9999,1249209408
75,9,9,Ticks_ISO_T2_8,24,9999,9999,9999,1250009140
75,9,9,Ticks_ISO_T2_8,25,9999,9999,9999,1250809924
75,9,9,Ticks_ISO_T2_8,26,9999,9999,9999,1251609656
75,9,9,Ticks_ISO_T2_8,27,9999,9999,9999,1252409396
75,9,9,Ticks_ISO_T2_8,28,9999,9999,9999,1253209180
75,9,9,Ticks_ISO_T2_8,29,9999,9999,9999,1254009952
75,9,9,Ticks_ISO_T2_8,30,9999,9999,9999,1254809684
75,9,9,Ticks_ISO_T2_8,31,9999,9999,9999,1255609416
75,9,9,Ticks_ISO_T2_8,32,9999,9999,9999,1256409152
75,9,9,Ticks_ISO_T2_8,33,9999,9999,9999,1257209932
75,9,9,Ticks_ISO_T2_8,34,9999,9999,9999,1258009668
75,9,9,Ticks_ISO_T2_8,35,9999,9999,9999,1258809408
75,9,9,Ticks_ISO_T2_8,36,9999,9999,9999,1259609136
75,9,9,Ticks_ISO_T2_8,37,9999,9999,9999,1260409916
75,9,9,Ticks_ISO_T2_8,38,9999,9999,9999,1261209656
75,9,9,Ticks_ISO_T2_8,39,9999,9999,9999,1262009404
75,9,9,Ticks_ISO_T2_8,40,9999,9999,9999,1262809144
75,9,9,Ticks_ISO_T2_8,41,9999,9999,9999,1263609920
75,9,9,Ticks_ISO_T2_8,42,9999,9999,9999,1264409652
75,9,9,Ticks_ISO_T2_8,43,9999,9999,9999,1265209412
75,9,9,Ticks_ISO_T2_8,44,9999,9999,9999,1266009192
75,9,9,Ticks_ISO_T2_8,45,9999,9999,9999,1266809972
75,9,9,Ticks_ISO_T2_8,46,9999,9999,9999,1267609708
75,9,9,Ticks_ISO_T2_8,47,9999,9999,9999,1268409388
75,9,9,Ticks_ISO_T2_8,48,9999,9999,9999,1269209200
75,9,9,Ticks_ISO_T2_8,49,9999,9999,9999,1270009904
75,9,9,Ticks_ISO_T2_8,50,9999,9999,9999,1270809644
75,9,9,Ticks_ISO_T2_8,51,9999,9999,9999,1271609444
75,9,9,Ticks_ISO_T2_8,52,9999,9999,9999,1272409180
75,9,9,Ticks_ISO_T2_8,53,9999,9999,9999,1273209960
75,9,9,Ticks_ISO_T2_8,54,9999,9999,9999,1274009692
75,9,9,Ticks_ISO_T2_8,55,9999,9999,9999,1274809452
75,9,9,Ticks_ISO_T2_8,56,9999,9999,9999,1275609188
75,9,9,Ticks_ISO_T2_8,57,9999,9999,9999,1276409968
75,9,9,Ticks_ISO_T2_8,58,9999,9999,9999,1277209704
75,9,9,Ticks_ISO_T2_8,59,9999,9999,9999,1278009436
75,9,9,Ticks_ISO_T2_8,60,9999,9999,9999,1278809168
75,9,9,Ticks_ISO_T2_8,61,9999,9999,9999,1279609948
75,9,9,Ticks_ISO_T2_8,62,9999,9999,9999,1280409684
75,9,9,Ticks_ISO_T2_8,63,9999,9999,9999,1281209440
75,9,9,Ticks_ISO_T2_8,64,9999,9999,9999,1282009176
75,9,9,Ticks_ISO_T2_8,65,9999,9999,9999,1282809956
75,9,9,Ticks_ISO_T2_8,66,9999,9999,9999,1283609692
75,9,9,Ticks_ISO_T2_8,67,9999,9999,9999,1284409428
75,9,9,Ticks_ISO_T2_8,68,9999,9999,9999,1285209164
75,9,9,Ticks_ISO_T2_8,69,9999,9999,9999,1286009936
75,9,9,Ticks_ISO_T2_8,70,9999,9999,9999,1286809668
75,9,9,Ticks_ISO_T2_8,71,9999,9999,9999,1287609400
75,9,9,Ticks_ISO_T2_8,72,9999,9999,9999,1288409136
75,9,9,Ticks_ISO_T2_8,73,9999,9999,9999,1289209916
75,9,9,Ticks_ISO_T2_8,74,9999,9999,9999,1290009648
75,9,9,Ticks_ISO_T2_8,75,9999,9999,9999,1290809456
75,9,9,Ticks_ISO_T2_8,76,9999,9999,9999,1291609188
75,9,9,Ticks_ISO_T2_8,77,9999,9999,9999,1292409968
75,9,9,Ticks_ISO_T2_8,78,9999,9999,9999,1293209712
75,9,9,Ticks_ISO_T2_8,79,9999,9999,9999,1294009464
75,9,9,Ticks_ISO_T2_8,80,9999,9999,9999,1294809196
75,9,9,Ticks_ISO_T2_8,81,9999,9999,9999,1295609976
75,9,9,Ticks_ISO_T2_8,82,9999,9999,9999,1296409708
75,9,9,Ticks_ISO_T2_8,83,9999,9999,9999,1297209444
75,9,9,Ticks_ISO_T2_8,84,9999,9999,9999,1298009176
75,9,9,Ticks_ISO_T2_8,85,9999,9999,9999,1298809956
75,9,9,Ticks_ISO_T2_8,86,9999,9999,9999,1299609688
75,9,9,Ticks_ISO_T2_8,87,9999,9999,9999,1300409448
75,9,9,Ticks_ISO_T2_8,88,9999,9999,9999,1301209180
75,9,9,Ticks_ISO_T2_8,89,9999,9999,9999,1302009960
75,9,9,Ticks_ISO_T2_8,90,9999,9999,9999,1302809696
75,9,9,Ticks_ISO_T2_8,91,9999,9999,9999,1303609428
75,9,9,Ticks_ISO_T2_8,92,9999,9999,9999,1304409160
75,9,9,Ticks_ISO_T2_8,93,9999,9999,9999,1305209948
75,9,9,Ticks_ISO_T2_8,94,9999,9999,9999,1306009680
75,9,9,Ticks_ISO_T2_8,95,9999,9999,9999,1306809432
75,9,9,Ticks_ISO_T2_8,96,9999,9999,9999,1307609164
75,9,9,Ticks_ISO_T2_8,97,9999,9999,9999,1308409948
75,9,9,Ticks_ISO_T2_8,98,9999,9999,9999,1309209680
75,9,9,Ticks_ISO_T2_8,99,9999,9999,9999,1310009412
75,9,9,Ticks_ISO_T2_8,100,9999,9999,9999,1310809148
75,9,9,Ticks_ISO_T2_8,101,9999,9999,9999,1311609928
75,9,9,Ticks_ISO_T2_8,102,9999,9999,9999,1312409660
75,9,9,Ticks_ISO_T2_8,103,9999,9999,9999,1313209420
75,9,9,Ticks_ISO_T2_8,104,9999,9999,9999,1314009152
75,9,9,Ticks_ISO_T2_8,105,9999,9999,9999,1314809936
75,9,9,Ticks_ISO_T2_8,106,9999,9999,9999,1315609664
75,9,9,Ticks_ISO_T2_8,107,9999,9999,9999,1316409404
75,9,9,Ticks_ISO_T2_8,108,9999,9999,9999,1317209204
75,9,9,Ticks_ISO_T2_8,109,9999,9999,9999,1318009912
75,9,9,Ticks_ISO_T2_8,110,9999,9999,9999,1318809720
75,9,9,Ticks_ISO_T2_8,111,9999,9999,9999,1319609428
75,9,9,Ticks_ISO_T2_8,112,9999,9999,9999,1320409136
75,9,9,Ticks_ISO_T2_8,113,9999,9999,9999,1321209916
75,9,9,Ticks_ISO_T2_8,114,9999,9999,9999,1322009648
75,9,9,Ticks_ISO_T2_8,115,9999,9999,9999,1322809456
75,9,9,Ticks_ISO_T2_8,116,9999,9999,9999,1323609188
75,9,9,Ticks_ISO_T2_8,117,9999,9999,9999,1324409968
75,9,9,Ticks_ISO_T2_8,118,9999,9999,9999,1325209652
75,9,9,Ticks_ISO_T2_8,119,9999,9999,9999,1326009460
75,10,10,Ticks_ISO_T2_5,0,5,42,127,1335283160
75,10,10,Ticks_ISO_T2_5,1,5,42,127,1335782880
75,10,10,Ticks_ISO_T2_5,2,5,42,127,1336282520
75,10,10,Ticks_ISO_T2_5,3,5,42,127,1336783136
75,10,10,Ticks_ISO_T2_5,4,5,42,127,1337282852
75,10,10,Ticks_ISO_T2_5,5,1,48,93,1337299512
75,10,10,Ticks_ISO_T2_5,6,5,42,127,1337782844
75,10,10,Ticks_ISO_T2_5,7,1,48,93,1337789252
75,10,10,Ticks_ISO_T2_5,8,1,48,90,1338274716
75,10,10,Ticks_ISO_T2_5,9,5,42,127,1338283356
75,10,10,Ticks_ISO_T2_5,10,5,42,127,1338782984
75,10,10,Ticks_ISO_T2_5,11,1,48,84,1338799936
75,10,10,Ticks_ISO_T2_5,12,1,48,80,1339281360
75,10,10,Ticks_ISO_T2_5,13,5,42,127,1339282868
75,10,10,Ticks_ISO_T2_5,14,5,42,127,1339782496
75,10,10,Ticks_ISO_T2_5,15,1,48,77,1339787712
75,10,10,Ticks_ISO_T2_5,16,5,42,127,1340283388
75,10,10,Ticks_ISO_T2_5,17,1,48,81,1340288600
75,10,10,Ticks_ISO_T2_5,18,1,48,81,1340780736
75,10,10,Ticks_ISO_T2_5,19,5,42,127,1340782852
75,10,10,Ticks_ISO_T2_5,20,5,42,127,1341282776
75,10,10,Ticks_ISO_T2_5,21,1,48,70,1341287992
75,10,10,Ticks_ISO_T2_5,22,1,48,73,1341762832
75,10,10,Ticks_ISO_T2_5,23,5,42,127,1341783360
75,10,10,Ticks_ISO_T2_5,24,5,42,127,1342282988
75,10,10,Ticks_ISO_T2_5,25,1,48,77,1342287604
75,10,10,Ticks_ISO_T2_5,26,5,42,127,1342782756
75,10,10,Ticks_ISO_T2_5,27,1,48,71,1342809960
75,10,10,Ticks_ISO_T2_5,28,5,42,127,1343282676
75,10,10,Ticks_ISO_T2_5,29,1,48,70,1343298284
75,10,10,Ticks_ISO_T2_5,30,5,42,127,1343783192
75,10,10,Ticks_ISO_T2_5,31,1,48,67,1343821244
75,10,10,Ticks_ISO_T2_5,32,5,42,127,1344282960
75,10,10,Ticks_ISO_T2_5,33,1,48,78,1344284000
75,10,10,Ticks_ISO_T2_5,34,5,42,127,1344782880
75,10,10,Ticks_ISO_T2_5,35,1,48,85,1344784968
75,10,10,Ticks_ISO_T2_5,36,1,48,81,1345278496
75,10,10,Ticks_ISO_T2_5,37,5,42,127,1345282344
75,10,10,Ticks_ISO_T2_5,38,5,42,127,1345783168
75,10,10,Ticks_ISO_T2_5,39,1,48,81,1345784284
75,10,10,Ticks_ISO_T2_5,40,5,42,127,1346282716
75,10,10,Ticks_ISO_T2_5,41,1,48,83,1346284728
75,10,10,Ticks_ISO_T2_5,42,1,48,72,1346772196
75,10,10,Ticks_ISO_T2_5,43,5,42,127,1346782700
75,10,10,Ticks_ISO_T2_5,44,5,42,127,1347283372
75,10,10,Ticks_ISO_T2_5,45,1,48,67,1347290832
75,10,10,Ticks_ISO_T2_5,46,5,42,127,1347782920
75,10,10,Ticks_ISO_T2_5,47,1,48,68,1347790152
75,10,10,Ticks_ISO_T2_5,48,5,42,127,1348282688
75,10,10,Ticks_ISO_T2_5,49,1,48,73,1348299572
75,10,10,Ticks_ISO_T2_5,50,5,42,127,1348782532
75,10,10,Ticks_ISO_T2_5,51,1,48,65,1348787228
75,10,10,Ticks_ISO_T2_5,52,5,42,127,1349283348
75,10,10,Ticks_ISO_T2_5,53,1,48,69,1349290732
75,10,10,Ticks_ISO_T2_5,54,5,42,127,1349783016
75,10,10,Ticks_ISO_T2_5,55,1,48,69,1349793168
75,10,10,Ticks_ISO_T2_5,56,5,42,127,1350282836
75,10,10,Ticks_ISO_T2_5,57,1,48,62,1350294636
75,10,10,Ticks_ISO_T2_5,58,1,48,62,1350780472
75,10,10,Ticks_ISO_T2_5,59,5,42,127,1350783272
75,10,10,Ticks_ISO_T2_5,60,1,48,66,1351281156
75,10,10,Ticks_ISO_T2_5,61,5,42,127,1351282972
75,10,10,Ticks_ISO_T2_5,62,1,48,72,1351781468
75,10,10,Ticks_ISO_T2_5,63,5,42,127,1351783036
75,10,10,Ticks_ISO_T2_5,64,5,42,127,1352282664
75,10,10,Ticks_ISO_T2_5,65,1,48,65,1352293416
75,10,10,Ticks_ISO_T2_5,66,5,42,127,1352783108
75,10,10,Ticks_ISO_T2_5,67,1,48,68,1352793028
75,10,10,Ticks_ISO_T2_5,68,1,48,70,1353278800
75,10,10,Ticks_ISO_T2_5,69,5,42,127,1353283016
75,10,10,Ticks_ISO_T2_5,70,1,48,71,1353767124
75,10,10,Ticks_ISO_T2_5,71,5,42,127,1353782712
75,10,10,Ticks_ISO_T2_5,72,1,48,71,1354271976
75,10,10,Ticks_ISO_T2_5,73,5,42,127,1354283528
75,10,10,Ticks_ISO_T2_5,74,1,48,73,1354771968
75,10,10,Ticks_ISO_T2_5,75,5,42,127,1354783072
75,10,10,Ticks_ISO_T2_5,76,5,42,127,1355282772
75,10,10,Ticks_ISO_T2_5,77,1,48,70,1355283740
75,10,10,Ticks_ISO_T2_5,78,5,42,127,1355782768
75,10,10,Ticks_ISO_T2_5,79,1,48,76,1355783732
75,10,10,Ticks_ISO_T2_5,80,1,48,68,1356283732
75,10,10,Ticks_ISO_T2_5,81,5,42,127,1356284772
75,10,10,Ticks_ISO_T2_5,82,1,48,63,1356781320
75,10,10,Ticks_ISO_T2_5,83,5,42,127,1356782828
75,10,10,Ticks_ISO_T2_5,84,5,42,127,1357282604
75,10,10,Ticks_ISO_T2_5,85,1,48,71,1357295144
75,10,10,Ticks_ISO_T2_5,86,5,42,127,1357783492
75,10,10,Ticks_ISO_T2_5,87,1,48,76,1357796860
75,10,10,Ticks_ISO_T2_5,88,5,42,127,1358283040
75,10,10,Ticks_ISO_T2_5,89,1,48,62,1358292888
75,10,10,Ticks_ISO_T2_5,90,1,48,79,1358780988
75,10,10,Ticks_ISO_T2_5,91,5,42,127,1358782728
75,10,10,Ticks_ISO_T2_5,92,1,48,82,1359279248
75,10,10,Ticks_ISO_T2_5,93,5,42,127,1359282792
75,10,10,Ticks_ISO_T2_5,94,5,42,127,1359783392
75,10,10,Ticks_ISO_T2_5,95,1,48,66,1359787488
75,10,10,Ticks_ISO_T2_5,96,5,42,127,1360282940
75,10,10,Ticks_ISO_T2_5,97,1,48,76,1360291968
75,10,10,Ticks_ISO_T2_5,98,1,48,75,1360767536
75,10,10,Ticks_ISO_T2_5,99,5,42,127,1360782676
75,10,10,Ticks_ISO_T2_5,100,5,42,127,1361282528
75,10,10,Ticks_ISO_T2_5,101,1,48,81,1361283492
75,10,10,Ticks_ISO_T2_5,102,5,42,127,1361783120
75,10,10,Ticks_ISO_T2_5,103,1,48,74,1361797684
75,10,10,Ticks_ISO_T2_5,104,5,42,127,1362282888
75,10,10,Ticks_ISO_T2_5,105,1,48,82,1362292364
75,10,10,Ticks_ISO_T2_5,106,1,48,76,1362779552
75,10,10,Ticks_ISO_T2_5,107,5,42,127,1362782500
75,10,10,Ticks_ISO_T2_5,108,1,48,80,1363258380
75,10,10,Ticks_ISO_T2_5,109,5,42,127,1363283392
75,10,10,Ticks_ISO_T2_5,110,5,42,127,1363782944
75,10,10,Ticks_ISO_T2_5,111,1,48,83,1363790400
75,10,10,Ticks_ISO_T2_5,112,5,42,127,1364282712
75,10,10,Ticks_ISO_T2_5,113,1,48,79,1364294356
75,10,10,Ticks_ISO_T2_5,114,1,48,84,1364766356
75,10,10,Ticks_ISO_T2_5,115,5,42,127,1364782548
75,10,10,Ticks_ISO_T2_5,116,5,42,127,1365283296
75,10,10,Ticks_ISO_T2_5,117,1,48,87,1365288140
75,10,10,Ticks_ISO_T2_5,118,5,42,127,1365782844
75,10,10,Ticks_ISO_T2_5,119,1,48,80,1365808328
75,10,10,Ticks_ISO_T2_5,120,5,42,127,1366282536
75,10,10,Ticks_ISO_T2_5,121,1,48,69,1366288724
75,10,10,Ticks_ISO_T2_5,122,5,42,127,1366783428
75,10,10,Ticks_ISO_T2_5,123,1,48,67,1366800380
75,10,10,Ticks_ISO_T2_5,124,1,48,86,1367274476
75,10,10,Ticks_ISO_T2_5,125,5,42,127,1367283264
75,10,10,Ticks_ISO_T2_5,126,5,42,127,1367782744
75,10,10,Ticks_ISO_T2_5,127,1,48,81,1367783780
75,10,10,Ticks_ISO_T2_5,128,5,42,127,1368282436
75,10,10,Ticks_ISO_T2_5,129,1,48,71,1368289448
75,10,10,Ticks_ISO_T2_5,130,1,48,66,1368768780
75,10,10,Ticks_ISO_T2_5,131,5,42,127,1368783172
75,10,10,Ticks_ISO_T2_5,132,1,48,68,1369258228
75,10,10,Ticks_ISO_T2_5,133,5,42,127,1369282868
75,10,10,Ticks_ISO_T2_5,134,1,48,89,1369780900
75,10,10,Ticks_ISO_T2_5,135,5,42,127,1369782560
75,10,10,Ticks_ISO_T2_5,136,5,42,127,1370283532
75,10,10,Ticks_ISO_T2_5,137,1,48,74,1370294580
75,10,10,Ticks_ISO_T2_5,138,5,42,127,1370783152
75,10,10,Ticks_ISO_T2_5,139,1,48,75,1370790608
75,10,10,Ticks_ISO_T2_5,140,1,48,77,1371281160
75,10,10,Ticks_ISO_T2_5,141,5,42,127,1371282740
75,10,10,Ticks_ISO_T2_5,142,5,42,127,1371782444
75,10,10,Ticks_ISO_T2_5,143,1,48,69,1371795356
75,10,10,Ticks_ISO_T2_5,144,5,42,127,1372283408
75,10,10,Ticks_ISO_T2_5,145,1,48,76,1372301416
75,10,10,Ticks_ISO_T2_5,146,1,48,72,1372770944
75,10,10,Ticks_ISO_T2_5,147,5,42,127,1372783096
75,10,10,Ticks_ISO_T2_5,148,1,48,56,1373278192
75,10,10,Ticks_ISO_T2_5,149,5,42,127,1373282716
75,10,10,Ticks_ISO_T2_5,150,5,42,127,1373783316
75,10,10,Ticks_ISO_T2_5,151,1,48,76,1373784280
75,10,10,Ticks_ISO_T2_5,152,5,42,127,1374283384
75,10,10,Ticks_ISO_T2_5,153,1,48,77,1374285832
75,10,10,Ticks_ISO_T2_5,154,5,42,127,1374782780
75,10,10,Ticks_ISO_T2_5,155,1,48,83,1374785444
75,10,10,Ticks_ISO_T2_5,156,5,42,127,1375282476
75,10,10,Ticks_ISO_T2_5,157,1,48,110,1375292320
75,10,10,Ticks_ISO_T2_5,158,5,42,127,1375783364
75,10,10,Ticks_ISO_T2_5,159,1,48,90,1375786928
75,10,10,Ticks_ISO_T2_5,160,5,42,127,1376283504
75,10,10,Ticks_ISO_T2_5,161,1,48,84,1376291040
75,10,10,Ticks_ISO_T2_5,162,1,48,83,1376764908
75,10,10,Ticks_ISO_T2_5,163,5,42,127,1376782672
75,10,10,Ticks_ISO_T2_5,164,1,48,83,1377275152
75,10,10,Ticks_ISO_T2_5,165,5,42,127,1377282296
75,10,10,Ticks_ISO_T2_5,166,1,48,87,1377775968
75,10,10,Ticks_ISO_T2_5,167,5,42,127,1377783256
75,10,10,Ticks_ISO_T2_5,168,1,48,103,1378273496
75,10,10,Ticks_ISO_T2_5,169,5,42,127,1378282952
75,10,10,Ticks_ISO_T2_5,170,1,48,98,1378777452
75,10,10,Ticks_ISO_T2_5,171,5,42,127,1378782496
75,10,10,Ticks_ISO_T2_5,172,5,42,127,1379283320
75,10,10,Ticks_ISO_T2_5,173,1,48,95,1379292572
75,10,10,Ticks_ISO_T2_5,174,1,48,86,1379768988
75,10,10,Ticks_ISO_T2_5,175,5,42,127,1379783232
75,10,10,Ticks_ISO_T2_5,176,1,48,91,1380266884
75,10,10,Ticks_ISO_T2_5,177,5,42,127,1380282852
75,10,10,Ticks_ISO_T2_5,178,1,48,88,1380777132
75,10,10,Ticks_ISO_T2_5,179,5,42,127,1380782544
75,10,10,Ticks_ISO_T2_5,180,1,48,87,1381269392
75,10,10,Ticks_ISO_T2_5,181,5,42,127,1381283140
75,10,10,Ticks_ISO_T2_5,182,1,48,62,1381760112
75,10,10,Ticks_ISO_T2_5,183,5,42,127,1381783420
75,10,10,Ticks_ISO_T2_5,184,1,48,62,1382264360
75,10,10,Ticks_ISO_T2_5,185,5,42,127,1382282568
75,10,10,Ticks_ISO_T2_5,186,1,48,67,1382779760
75,10,10,Ticks_ISO_T2_5,187,5,42,127,1382783460
75,10,10,Ticks_ISO_T2_5,188,1,48,68,1383281732
75,10,10,Ticks_ISO_T2_5,189,5,42,127,1383283304
75,10,10,Ticks_ISO_T2_5,190,1,48,84,1383766292
75,10,10,Ticks_ISO_T2_5,191,5,42,127,1383782924
75,10,10,Ticks_ISO_T2_5,192,1,48,93,1384266652
75,10,10,Ticks_ISO_T2_5,193,5,42,127,1384282620
75,10,10,Ticks_ISO_T2_5,194,1,48,81,1384760368
75,10,10,Ticks_ISO_T2_5,195,5,42,127,1384783136
75,10,10,Ticks_ISO_T2_5,196,1,48,86,1385264920
75,10,10,Ticks_ISO_T2_5,197,5,42,127,1385283352
75,10,10,Ticks_ISO_T2_5,198,1,48,55,1385759156
75,10,10,Ticks_ISO_T2_5,199,5,42,127,1385782528
75,10,10,Ticks_ISO_T2_5,200,5,42,127,1386283276
75,10,10,Ticks_ISO_T2_5,201,1,48,68,1386285288
75,10,10,Ticks_ISO_T2_5,202,1,48,69,1386778588
75,10,10,Ticks_ISO_T2_5,203,5,42,127,1386783036
75,10,10,Ticks_ISO_T2_5,204,1,48,65,1387272676
75,10,10,Ticks_ISO_T2_5,205,5,42,127,1387282956
75,10,10,Ticks_ISO_T2_5,206,1,48,84,1387750908
75,10,10,Ticks_ISO_T2_5,207,5,42,127,1387782432
75,10,10,Ticks_ISO_T2_5,208,1,48,85,1388264736
75,10,10,Ticks_ISO_T2_5,209,5,42,127,1388283172
75,10,10,Ticks_ISO_T2_5,210,1,48,72,1388772812
75,10,10,Ticks_ISO_T2_5,211,5,42,127,1388783088
75,10,10,Ticks_ISO_T2_5,212,1,48,84,1389265400
75,10,10,Ticks_ISO_T2_5,213,5,42,127,1389282636
75,10,10,Ticks_ISO_T2_5,214,1,48,62,1389740040
75,10,10,Ticks_ISO_T2_5,215,5,42,127,1389783452
75,10,10,Ticks_ISO_T2_5,216,1,48,86,1390273916
75,10,10,Ticks_ISO_T2_5,217,5,42,127,1390283148
75,10,10,Ticks_ISO_T2_5,218,1,48,62,1390778772
75,10,10,Ticks_ISO_T2_5,219,5,42,127,1390782992
75,10,10,Ticks_ISO_T2_5,220,1,48,84,1391278840
75,10,10,Ticks_ISO_T2_5,221,5,42,127,1391282468
75,10,10,Ticks_ISO_T2_5,222,5,42,127,1391783216
75,10,10,Ticks_ISO_T2_5,223,1,48,65,1391794636
75,10,10,Ticks_ISO_T2_5,224,1,48,77,1392280788
75,10,10,Ticks_ISO_T2_5,225,5,42,127,1392282904
75,10,10,Ticks_ISO_T2_5,226,1,48,64,1392776928
75,10,10,Ticks_ISO_T2_5,227,5,42,127,1392782720
75,10,10,Ticks_ISO_T2_5,228,1,48,75,1393274824
75,10,10,Ticks_ISO_T2_5,229,5,42,127,1393282492
75,10,10,Ticks_ISO_T2_5,230,5,42,127,1393783016
75,10,10,Ticks_ISO_T2_5,231,1,48,66,1393784952
75,10,10,Ticks_ISO_T2_5,232,1,48,86,1394272048
75,10,10,Ticks_ISO_T2_5,233,5,42,127,1394282780
75,10,10,Ticks_ISO_T2_5,234,1,48,64,1394765084
75,10,10,Ticks_ISO_T2_5,235,5,42,127,1394782696
75,10,10,Ticks_ISO_T2_5,236,1,48,78,1395272036
75,10,10,Ticks_ISO_T2_5,237,5,42,127,1395283288
75,10,10,Ticks_ISO_T2_5,238,1,48,63,1395773000
75,10,10,Ticks_ISO_T2_5,239,5,42,127,1395783060
75,10,10,Ticks_ISO_T2_5,240,1,48,84,1396264692
75,10,10,Ticks_ISO_T2_5,241,5,42,127,1396282756
75,10,10,Ticks_ISO_T2_5,242,1,48,62,1396749656
75,10,10,Ticks_ISO_T2_5,243,5,42,127,1396782376
75,10,10,Ticks_ISO_T2_5,244,1,48,67,1397260572
75,10,10,Ticks_ISO_T2_5,245,5,42,127,1397283044
75,10,10,Ticks_ISO_T2_5,246,5,42,127,1397782892
75,10,10,Ticks_ISO_T2_5,247,1,48,82,1397784528
75,10,10,Ticks_ISO_T2_5,248,1,48,57,1398269608
75,10,10,Ticks_ISO_T2_5,249,5,42,127,1398282808
75,10,10,Ticks_ISO_T2_5,250,1,48,78,1398769684
75,10,10,Ticks_ISO_T2_5,251,5,42,127,1398783476
75,10,10,Ticks_ISO_T2_5,252,1,48,62,1399255008
75,10,10,Ticks_ISO_T2_5,253,5,42,127,1399283172
75,10,10,Ticks_ISO_T2_5,254,1,48,84,1399773032
75,10,10,Ticks_ISO_T2_5,255,5,42,127,1399782716
75,10,10,Ticks_ISO_T2_5,256,1,48,70,1400260984
75,10,10,Ticks_ISO_T2_5,0,9999,9999,9999,1335280724
75,10,10,Ticks_ISO_T2_5,1,9999,9999,9999,1335780444
75,10,10,Ticks_ISO_T2_5,2,9999,9999,9999,1336280160
75,10,10,Ticks_ISO_T2_5,3,9999,9999,9999,1336780848
75,10,10,Ticks_ISO_T2_5,4,9999,9999,9999,1337280568
75,10,10,Ticks_ISO_T2_5,5,9999,9999,9999,1337780336
75,10,10,Ticks_ISO_T2_5,6,9999,9999,9999,1338281072
75,10,10,Ticks_ISO_T2_5,7,9999,9999,9999,1338780772
75,10,10,Ticks_ISO_T2_5,8,9999,9999,9999,1339280440
75,10,10,Ticks_ISO_T2_5,9,9999,9999,9999,1339780212
75,10,10,Ticks_ISO_T2_5,10,9999,9999,9999,1340280952
75,10,10,Ticks_ISO_T2_5,11,9999,9999,9999,1340780604
75,10,10,Ticks_ISO_T2_5,12,9999,9999,9999,1341280340
75,10,10,Ticks_ISO_T2_5,13,9999,9999,9999,1341781076
75,10,10,Ticks_ISO_T2_5,14,9999,9999,9999,1342280776
75,10,10,Ticks_ISO_T2_5,15,9999,9999,9999,1342780472
75,10,10,Ticks_ISO_T2_5,16,9999,9999,9999,1343280240
75,10,10,Ticks_ISO_T2_5,17,9999,9999,9999,1343780980
75,10,10,Ticks_ISO_T2_5,18,9999,9999,9999,1344280676
75,10,10,Ticks_ISO_T2_5,19,9999,9999,9999,1344780372
75,10,10,Ticks_ISO_T2_5,20,9999,9999,9999,1345280060
75,10,10,Ticks_ISO_T2_5,21,9999,9999,9999,1345780808
75,10,10,Ticks_ISO_T2_5,22,9999,9999,9999,1346280504
75,10,10,Ticks_ISO_T2_5,23,9999,9999,9999,1346780264
75,10,10,Ticks_ISO_T2_5,24,9999,9999,9999,1347281012
75,10,10,Ticks_ISO_T2_5,25,9999,9999,9999,1347780708
75,10,10,Ticks_ISO_T2_5,26,9999,9999,9999,1348280400
75,10,10,Ticks_ISO_T2_5,27,9999,9999,9999,1348780100
75,10,10,Ticks_ISO_T2_5,28,9999,9999,9999,1349280840
75,10,10,Ticks_ISO_T2_5,29,9999,9999,9999,1349780584
75,10,10,Ticks_ISO_T2_5,30,9999,9999,9999,1350280252
75,10,10,Ticks_ISO_T2_5,31,9999,9999,9999,1350780984
75,10,10,Ticks_ISO_T2_5,32,9999,9999,9999,1351280708
75,10,10,Ticks_ISO_T2_5,33,9999,9999,9999,1351780460
75,10,10,Ticks_ISO_T2_5,34,9999,9999,9999,1352280152
75,10,10,Ticks_ISO_T2_5,35,9999,9999,9999,1352780896
75,10,10,Ticks_ISO_T2_5,36,9999,9999,9999,1353280584
75,10,10,Ticks_ISO_T2_5,37,9999,9999,9999,1353780276
75,10,10,Ticks_ISO_T2_5,38,9999,9999,9999,1354281016
75,10,10,Ticks_ISO_T2_5,39,9999,9999,9999,1354780784
75,10,10,Ticks_ISO_T2_5,40,9999,9999,9999,1355280488
75,10,10,Ticks_ISO_T2_5,41,9999,9999,9999,1355780184
75,10,10,Ticks_ISO_T2_5,42,9999,9999,9999,1356280924
75,10,10,Ticks_ISO_T2_5,43,9999,9999,9999,1356780628
75,10,10,Ticks_ISO_T2_5,44,9999,9999,9999,1357280316
75,10,10,Ticks_ISO_T2_5,45,9999,9999,9999,1357781056
75,10,10,Ticks_ISO_T2_5,46,9999,9999,9999,1358280752
75,10,10,Ticks_ISO_T2_5,47,9999,9999,9999,1358780464
75,10,10,Ticks_ISO_T2_5,48,9999,9999,9999,1359280212
75,10,10,Ticks_ISO_T2_5,49,9999,9999,9999,1359780960
75,10,10,Ticks_ISO_T2_5,50,9999,9999,9999,1360280652
75,10,10,Ticks_ISO_T2_5,51,9999,9999,9999,1360780392
75,10,10,Ticks_ISO_T2_5,52,9999,9999,9999,1361280092
75,10,10,Ticks_ISO_T2_5,53,9999,9999,9999,1361780832
75,10,10,Ticks_ISO_T2_5,54,9999,9999,9999,1362280528
75,10,10,Ticks_ISO_T2_5,55,9999,9999,9999,1362780216
75,10,10,Ticks_ISO_T2_5,56,9999,9999,9999,1363280956
75,10,10,Ticks_ISO_T2_5,57,9999,9999,9999,1363780656
75,10,10,Ticks_ISO_T2_5,58,9999,9999,9999,1364280424
75,10,10,Ticks_ISO_T2_5,59,9999,9999,9999,1364780112
75,10,10,Ticks_ISO_T2_5,60,9999,9999,9999,1365280860
75,10,10,Ticks_ISO_T2_5,61,9999,9999,9999,1365780556
75,10,10,Ticks_ISO_T2_5,62,9999,9999,9999,1366280252
75,10,10,Ticks_ISO_T2_5,63,9999,9999,9999,1366780992
75,10,10,Ticks_ISO_T2_5,64,9999,9999,9999,1367280752
75,10,10,Ticks_ISO_T2_5,65,9999,9999,9999,1367780456
75,10,10,Ticks_ISO_T2_5,66,9999,9999,9999,1368280148
75,10,10,Ticks_ISO_T2_5,67,9999,9999,9999,1368780884
75,10,10,Ticks_ISO_T2_5,68,9999,9999,9999,1369280580
75,10,10,Ticks_ISO_T2_5,69,9999,9999,9999,1369780300
75,10,10,Ticks_ISO_T2_5,70,9999,9999,9999,1370281024
75,10,10,Ticks_ISO_T2_5,71,9999,9999,9999,1370780792
75,10,10,Ticks_ISO_T2_5,72,9999,9999,9999,1371280460
75,10,10,Ticks_ISO_T2_5,73,9999,9999,9999,1371780156
75,10,10,Ticks_ISO_T2_5,74,9999,9999,9999,1372280896
75,10,10,Ticks_ISO_T2_5,75,9999,9999,9999,1372780660
75,10,10,Ticks_ISO_T2_5,76,9999,9999,9999,1373280356
75,10,10,Ticks_ISO_T2_5,77,9999,9999,9999,1373781104
75,10,10,Ticks_ISO_T2_5,78,9999,9999,9999,1374280796
75,10,10,Ticks_ISO_T2_5,79,9999,9999,9999,1374780492
75,10,10,Ticks_ISO_T2_5,80,9999,9999,9999,1375280188
75,10,10,Ticks_ISO_T2_5,81,9999,9999,9999,1375780928
75,10,10,Ticks_ISO_T2_5,82,9999,9999,9999,1376280696
75,10,10,Ticks_ISO_T2_5,83,9999,9999,9999,1376780384
75,10,10,Ticks_ISO_T2_5,84,9999,9999,9999,1377280084
75,10,10,Ticks_ISO_T2_5,85,9999,9999,9999,1377780824
75,10,10,Ticks_ISO_T2_5,86,9999,9999,9999,1378280516
75,10,10,Ticks_ISO_T2_5,87,9999,9999,9999,1378780212
75,10,10,Ticks_ISO_T2_5,88,9999,9999,9999,1379280960
75,10,10,Ticks_ISO_T2_5,89,9999,9999,9999,1379780724
75,10,10,Ticks_ISO_T2_5,90,9999,9999,9999,1380280416
75,10,10,Ticks_ISO_T2_5,91,9999,9999,9999,1380780112
75,10,10,Ticks_ISO_T2_5,92,9999,9999,9999,1381280852
75,10,10,Ticks_ISO_T2_5,93,9999,9999,9999,1381780596
75,10,10,Ticks_ISO_T2_5,94,9999,9999,9999,1382280284
75,10,10,Ticks_ISO_T2_5,95,9999,9999,9999,1382781024
75,10,10,Ticks_ISO_T2_5,96,9999,9999,9999,1383280724
75,10,10,Ticks_ISO_T2_5,97,9999,9999,9999,1383780416
75,10,10,Ticks_ISO_T2_5,98,9999,9999,9999,1384280184
75,10,10,Ticks_ISO_T2_5,99,9999,9999,9999,1384780852
75,10,10,Ticks_ISO_T2_5,100,9999,9999,9999,1385280620
75,10,10,Ticks_ISO_T2_5,101,9999,9999,9999,1385780316
75,10,10,Ticks_ISO_T2_5,102,9999,9999,9999,1386281064
75,10,10,Ticks_ISO_T2_5,103,9999,9999,9999,1386780752
75,10,10,Ticks_ISO_T2_5,104,9999,9999,9999,1387280448
75,10,10,Ticks_ISO_T2_5,105,9999,9999,9999,1387780144
75,10,10,Ticks_ISO_T2_5,106,9999,9999,9999,1388280884
75,10,10,Ticks_ISO_T2_5,107,9999,9999,9999,1388780656
75,10,10,Ticks_ISO_T2_5,108,9999,9999,9999,1389280352
75,10,10,Ticks_ISO_T2_5,109,9999,9999,9999,1389781092
75,10,10,Ticks_ISO_T2_5,110,9999,9999,9999,1390280788
75,10,10,Ticks_ISO_T2_5,111,9999,9999,9999,1390780484
75,10,10,Ticks_ISO_T2_5,112,9999,9999,9999,1391280180
75,10,10,Ticks_ISO_T2_5,113,9999,9999,9999,1391780928
75,10,10,Ticks_ISO_T2_5,114,9999,9999,9999,1392280660
75,10,10,Ticks_ISO_T2_5,115,9999,9999,9999,1392780360
75,10,10,Ticks_ISO_T2_5,116,9999,9999,9999,1393280056
75,10,10,Ticks_ISO_T2_5,117,9999,9999,9999,1393780804
75,10,10,Ticks_ISO_T2_5,118,9999,9999,9999,1394280568
75,10,10,Ticks_ISO_T2_5,119,9999,9999,9999,1394780260
75,10,10,Ticks_ISO_T2_5,120,9999,9999,9999,1395281004
75,10,10,Ticks_ISO_T2_5,121,9999,9999,9999,1395780700
75,10,10,Ticks_ISO_T2_5,122,9999,9999,9999,1396280396
75,10,10,Ticks_ISO_T2_5,123,9999,9999,9999,1396780088
75,10,10,Ticks_ISO_T2_5,124,9999,9999,9999,1397280832
75,10,10,Ticks_ISO_T2_5,125,9999,9999,9999,1397780532
75,10,10,Ticks_ISO_T2_5,126,9999,9999,9999,1398280296
75,10,10,Ticks_ISO_T2_5,127,9999,9999,9999,1398781040
75,10,10,Ticks_ISO_T2_5,128,9999,9999,9999,1399280736
75,10,10,Ticks_ISO_T2_5,129,9999,9999,9999,1399780432
75,11,25,Jits_Pract_5,0,5,56,103,1439331856
75,11,25,Jits_Pract_5,1,5,63,98,1439335028
75,11,25,Jits_Pract_5,2,5,80,127,1439338224
75,11,25,Jits_Pract_5,0,5,56,103,1439832404
75,11,25,Jits_Pract_5,1,5,63,98,1439835576
75,11,25,Jits_Pract_5,2,5,80,127,1439838924
75,11,25,Jits_Pract_5,0,5,56,103,1440332220
75,11,25,Jits_Pract_5,1,5,80,127,1440342344
75,11,25,Jits_Pract_5,2,5,63,98,1440362052
75,11,25,Jits_Pract_5,0,5,63,98,1440781844
75,11,25,Jits_Pract_5,1,5,80,127,1440812344
75,11,25,Jits_Pract_5,2,5,56,103,1440821564
75,11,25,Jits_Pract_5,0,1,48,79,1441314496
75,11,25,Jits_Pract_5,1,5,80,127,1441341800
75,11,25,Jits_Pract_5,2,5,56,103,1441352144
75,11,25,Jits_Pract_5,3,5,63,98,1441382116
75,11,25,Jits_Pract_5,0,5,63,98,1441832212
75,11,25,Jits_Pract_5,1,1,48,78,1441843196
75,11,25,Jits_Pract_5,2,5,56,103,1441861956
75,11,25,Jits_Pract_5,3,5,80,127,1441872300
75,11,25,Jits_Pract_5,0,5,56,103,1442281928
75,11,25,Jits_Pract_5,1,1,48,75,1442315840
75,11,25,Jits_Pract_5,2,5,63,98,1442331976
75,11,25,Jits_Pract_5,3,5,80,127,1442351684
75,11,25,Jits_Pract_5,0,5,80,127,1442781708
75,11,25,Jits_Pract_5,1,1,48,82,1442804380
75,11,25,Jits_Pract_5,2,5,63,98,1442831828
75,11,25,Jits_Pract_5,3,5,56,103,1442871992
75,11,25,Jits_Pract_5,0,5,56,103,1443282384
75,11,25,Jits_Pract_5,1,1,48,78,1443307680
75,11,25,Jits_Pract_5,2,5,63,98,1443312204
75,11,25,Jits_Pract_5,3,5,80,127,1443381880
75,11,25,Jits_Pract_5,0,5,56,103,1443781940
75,11,25,Jits_Pract_5,1,1,48,67,1443816372
75,11,25,Jits_Pract_5,2,5,80,127,1443842400
75,11,25,Jits_Pract_5,3,5,63,98,1443872224
75,11,25,Jits_Pract_5,0,5,56,103,1444292060
75,11,25,Jits_Pract_5,1,5,63,98,1444302180
75,11,25,Jits_Pract_5,2,1,48,69,1444322312
75,11,25,Jits_Pract_5,3,5,80,127,1444342184
75,11,25,Jits_Pract_5,0,5,63,98,1444781644
75,11,25,Jits_Pract_5,1,1,48,68,1444808508
75,11,25,Jits_Pract_5,2,5,80,127,1444862260
75,11,25,Jits_Pract_5,3,5,56,103,1444871484
75,11,25,Jits_Pract_5,0,1,48,67,1445319504
75,11,25,Jits_Pract_5,1,5,63,98,1445332204
75,11,25,Jits_Pract_5,2,5,56,103,1445372136
75,11,25,Jits_Pract_5,3,5,80,127,1445375284
75,11,25,Jits_Pract_5,0,5,56,103,1445792036
75,11,25,Jits_Pract_5,1,5,63,98,1445802308
75,11,25,Jits_Pract_5,2,5,80,127,1445842244
75,11,25,Jits_Pract_5,3,1,48,64,1445843212
75,11,25,Jits_Pract_5,0,5,56,103,1446281672
75,11,25,Jits_Pract_5,1,5,63,98,1446284588
75,11,25,Jits_Pract_5,2,5,80,127,1446302008
75,11,25,Jits_Pract_5,3,1,48,62,1446333524
75,11,25,Jits_Pract_5,0,9999,9999,9999,1439579216
75,11,25,Jits_Pract_5,1,9999,9999,9999,1440079992
75,11,25,Jits_Pract_5,2,9999,9999,9999,1440579664
75,11,25,Jits_Pract_5,3,9999,9999,9999,1441079400
75,11,25,Jits_Pract_5,4,9999,9999,9999,1441579112
75,11,25,Jits_Pract_5,5,9999,9999,9999,1442079856
75,11,25,Jits_Pract_5,6,9999,9999,9999,1442579544
75,11,25,Jits_Pract_5,7,9999,9999,9999,1443079248
75,11,25,Jits_Pract_5,8,9999,9999,9999,1443580000
75,11,25,Jits_Pract_5,9,9999,9999,9999,1444079704
75,11,25,Jits_Pract_5,10,9999,9999,9999,1444579408
75,11,25,Jits_Pract_5,11,9999,9999,9999,1445079112
75,11,25,Jits_Pract_5,12,9999,9999,9999,1445579848
75,11,25,Jits_Pract_5,13,9999,9999,9999,1446079612
75,11,25,Jits_Pract_5,14,9999,9999,9999,1446579300
75,12,24,Jits_Pract_8,0,5,56,103,1483347240
75,12,24,Jits_Pract_8,1,5,63,98,1483350488
75,12,24,Jits_Pract_8,2,5,80,127,1483353536
75,12,24,Jits_Pract_8,0,5,56,103,1484147104
75,12,24,Jits_Pract_8,1,5,63,98,1484150200
75,12,24,Jits_Pract_8,2,5,80,127,1484153248
75,12,24,Jits_Pract_8,0,5,80,127,1484887352
75,12,24,Jits_Pract_8,1,5,63,98,1484976464
75,12,24,Jits_Pract_8,2,5,56,103,1484986880
75,12,24,Jits_Pract_8,0,5,56,103,1485706560
75,12,24,Jits_Pract_8,1,5,63,98,1485717156
75,12,24,Jits_Pract_8,2,5,80,127,1485806840
75,12,24,Jits_Pract_8,0,1,48,93,1486477072
75,12,24,Jits_Pract_8,1,5,63,98,1486478488
75,12,24,Jits_Pract_8,2,5,80,127,1486507440
75,12,24,Jits_Pract_8,3,5,56,103,1486537188
75,12,24,Jits_Pract_8,0,1,48,90,1487257484
75,12,24,Jits_Pract_8,1,5,56,103,1487277292
75,12,24,Jits_Pract_8,2,5,80,127,1487376704
75,12,24,Jits_Pract_8,3,5,63,98,1487426828
75,12,24,Jits_Pract_8,0,5,56,103,1488077060
75,12,24,Jits_Pract_8,1,1,48,83,1488104908
75,12,24,Jits_Pract_8,2,5,80,127,1488127252
75,12,24,Jits_Pract_8,3,5,63,98,1488167264
75,12,24,Jits_Pract_8,0,1,48,84,1488901436
75,12,24,Jits_Pract_8,1,5,80,127,1488907008
75,12,24,Jits_Pract_8,2,5,63,98,1488937208
75,12,24,Jits_Pract_8,3,5,56,103,1489006952
75,12,24,Jits_Pract_8,0,1,48,80,1489724804
75,12,24,Jits_Pract_8,1,5,63,98,1489736960
75,12,24,Jits_Pract_8,2,5,56,103,1489766936
75,12,24,Jits_Pract_8,3,5,80,127,1489827112
75,12,24,Jits_Pract_8,0,5,56,103,1490477536
75,12,24,Jits_Pract_8,1,5,80,127,1490480528
75,12,24,Jits_Pract_8,2,1,48,83,1490545460
75,12,24,Jits_Pract_8,3,5,63,98,1490597128
75,12,24,Jits_Pract_8,0,1,48,78,1491325516
75,12,24,Jits_Pract_8,1,5,56,103,1491357104
75,12,24,Jits_Pract_8,2,5,80,127,1491396972
75,12,24,Jits_Pract_8,3,5,63,98,1491407092
75,12,24,Jits_Pract_8,0,5,56,103,1492116940
75,12,24,Jits_Pract_8,1,1,48,78,1492137696
75,12,24,Jits_Pract_8,2,5,80,127,1492139040
75,12,24,Jits_Pract_8,3,5,63,98,1492217184
75,12,24,Jits_Pract_8,0,5,80,127,1492907348
75,12,24,Jits_Pract_8,1,1,48,81,1492963356
75,12,24,Jits_Pract_8,2,5,56,103,1493006840
75,12,24,Jits_Pract_8,3,5,63,98,1493016888
75,12,24,Jits_Pract_8,0,5,63,98,1493677452
75,12,24,Jits_Pract_8,1,5,80,127,1493736944
75,12,24,Jits_Pract_8,2,5,56,103,1493746992
75,12,24,Jits_Pract_8,3,1,48,85,1493769364
75,12,24,Jits_Pract_8,0,5,56,103,1494477132
75,12,24,Jits_Pract_8,1,1,48,77,1494516744
75,12,24,Jits_Pract_8,2,5,63,98,1494546880
75,12,24,Jits_Pract_8,3,5,80,127,1494550240
75,12,24,Jits_Pract_8,0,9999,9999,9999,1483744372
75,12,24,Jits_Pract_8,1,9999,9999,9999,1484544088
75,12,24,Jits_Pract_8,2,9999,9999,9999,1485344872
75,12,24,Jits_Pract_8,3,9999,9999,9999,1486144604
75,12,24,Jits_Pract_8,4,9999,9999,9999,1486944308
75,12,24,Jits_Pract_8,5,9999,9999,9999,1487744064
75,12,24,Jits_Pract_8,6,9999,9999,9999,1488544892
75,12,24,Jits_Pract_8,7,9999,9999,9999,1489344588
75,12,24,Jits_Pract_8,8,9999,9999,9999,1490144348
75,12,24,Jits_Pract_8,9,9999,9999,9999,1490944092
75,12,24,Jits_Pract_8,10,9999,9999,9999,1491744840
75,12,24,Jits_Pract_8,11,9999,9999,9999,1492544596
75,12,24,Jits_Pract_8,12,9999,9999,9999,1493344372
75,12,24,Jits_Pract_8,13,9999,9999,9999,1494144064
75,12,24,Jits_Pract_8,14,9999,9999,9999,1494944880
75,13,25,Jits_Pract_5,0,5,56,103,1502672232
75,13,25,Jits_Pract_5,1,5,63,98,1502675180
75,13,25,Jits_Pract_5,2,5,80,127,1502678452
75,13,25,Jits_Pract_5,0,5,56,103,1503171884
75,13,25,Jits_Pract_5,1,5,63,98,1503175056
75,13,25,Jits_Pract_5,2,5,80,127,1503178180
75,13,25,Jits_Pract_5,0,5,56,103,1503671632
75,13,25,Jits_Pract_5,1,5,80,127,1503681900
75,13,25,Jits_Pract_5,2,5,63,98,1503702584
75,13,25,Jits_Pract_5,0,5,63,98,1504122280
75,13,25,Jits_Pract_5,1,5,80,127,1504151980
75,13,25,Jits_Pract_5,2,5,56,103,1504162100
75,13,25,Jits_Pract_5,0,1,48,96,1504624292
75,13,25,Jits_Pract_5,1,5,80,127,1504682336
75,13,25,Jits_Pract_5,2,5,56,103,1504691708
75,13,25,Jits_Pract_5,3,5,63,98,1504722488
75,13,25,Jits_Pract_5,0,1,48,93,1505161236
75,13,25,Jits_Pract_5,1,5,63,98,1505171768
75,13,25,Jits_Pract_5,2,5,56,103,1505201592
75,13,25,Jits_Pract_5,3,5,80,127,1505211864
75,13,25,Jits_Pract_5,0,5,56,103,1505622588
75,13,25,Jits_Pract_5,1,5,63,98,1505671668
75,13,25,Jits_Pract_5,2,1,48,86,1505685604
75,13,25,Jits_Pract_5,3,5,80,127,1505691996
75,13,25,Jits_Pract_5,0,5,80,127,1506132484
75,13,25,Jits_Pract_5,1,1,48,92,1506167816
75,13,25,Jits_Pract_5,2,5,63,98,1506181632
75,13,25,Jits_Pract_5,3,5,56,103,1506221596
75,13,25,Jits_Pract_5,0,5,56,103,1506631964
75,13,25,Jits_Pract_5,1,5,63,98,1506661640
75,13,25,Jits_Pract_5,2,1,48,96,1506683192
75,13,25,Jits_Pract_5,3,5,80,127,1506732608
75,13,25,Jits_Pract_5,0,5,56,103,1507131896
75,13,25,Jits_Pract_5,1,1,48,87,1507191308
75,13,25,Jits_Pract_5,2,5,80,127,1507193104
75,13,25,Jits_Pract_5,3,5,63,98,1507221832
75,13,25,Jits_Pract_5,0,5,56,103,1507641644
75,13,25,Jits_Pract_5,1,5,63,98,1507651916
75,13,25,Jits_Pract_5,2,1,48,87,1507690572
75,13,25,Jits_Pract_5,3,5,80,127,1507692368
75,13,25,Jits_Pract_5,0,5,63,98,1508132352
75,13,25,Jits_Pract_5,1,1,48,81,1508162000
75,13,25,Jits_Pract_5,2,5,80,127,1508212144
75,13,25,Jits_Pract_5,3,5,56,103,1508222636
75,13,25,Jits_Pract_5,0,1,48,79,1508667600
75,13,25,Jits_Pract_5,1,5,63,98,1508682012
75,13,25,Jits_Pract_5,2,5,56,103,1508722100
75,13,25,Jits_Pract_5,3,5,80,127,1508725016
75,13,25,Jits_Pract_5,0,5,56,103,1509141772
75,13,25,Jits_Pract_5,1,5,63,98,1509152044
75,13,25,Jits_Pract_5,2,5,80,127,1509191908
75,13,25,Jits_Pract_5,3,1,48,82,1509205512
75,13,25,Jits_Pract_5,0,5,56,103,1509632480
75,13,25,Jits_Pract_5,1,5,63,98,1509635476
75,13,25,Jits_Pract_5,2,5,80,127,1509651820
75,13,25,Jits_Pract_5,3,1,48,76,1509692848
75,13,25,Jits_Pract_5,0,9999,9999,9999,1502919744
75,13,25,Jits_Pract_5,1,9999,9999,9999,1503419472
75,13,25,Jits_Pract_5,2,9999,9999,9999,1503919224
75,13,25,Jits_Pract_5,3,9999,9999,9999,1504419940
75,13,25,Jits_Pract_5,4,9999,9999,9999,1504919652
75,13,25,Jits_Pract_5,5,9999,9999,9999,1505419320
75,13,25,Jits_Pract_5,6,9999,9999,9999,1505920052
75,13,25,Jits_Pract_5,7,9999,9999,9999,1506430024
75,13,25,Jits_Pract_5,8,9999,9999,9999,1506929728
75,13,25,Jits_Pract_5,9,9999,9999,9999,1507429436
75,13,25,Jits_Pract_5,10,9999,9999,9999,1507929144
75,13,25,Jits_Pract_5,11,9999,9999,9999,1508429896
75,13,25,Jits_Pract_5,12,9999,9999,9999,1508929656
75,13,25,Jits_Pract_5,13,9999,9999,9999,1509429348
75,13,25,Jits_Pract_5,14,9999,9999,9999,1509930084
75,14,18,Jits_Linear_8,0,5,56,103,1537108456
75,14,18,Jits_Linear_8,1,5,63,98,1537111708
75,14,18,Jits_Linear_8,2,5,80,127,1537114824
75,14,18,Jits_Linear_8,0,5,56,103,1537927496
75,14,18,Jits_Linear_8,1,5,63,98,1537930896
75,14,18,Jits_Linear_8,2,5,80,127,1537934012
75,14,18,Jits_Linear_8,0,5,80,127,1538688232
75,14,18,Jits_Linear_8,1,5,63,98,1538777420
75,14,18,Jits_Linear_8,2,5,56,103,1538787988
75,14,18,Jits_Linear_8,0,5,56,103,1539527988
75,14,18,Jits_Linear_8,1,5,63,98,1539538260
75,14,18,Jits_Linear_8,2,5,80,127,1539628540
75,14,18,Jits_Linear_8,0,5,63,98,1540317740
75,14,18,Jits_Linear_8,1,1,48,97,1540346048
75,14,18,Jits_Linear_8,2,5,80,127,1540348160
75,14,18,Jits_Linear_8,3,5,56,103,1540377984
75,14,18,Jits_Linear_8,0,1,48,92,1541127652
75,14,18,Jits_Linear_8,1,5,56,103,1541137788
75,14,18,Jits_Linear_8,2,5,80,127,1541238100
75,14,18,Jits_Linear_8,3,5,63,98,1541288252
75,14,18,Jits_Linear_8,0,5,56,103,1541947812
75,14,18,Jits_Linear_8,1,5,80,127,1541997868
75,14,18,Jits_Linear_8,2,1,48,86,1542015364
75,14,18,Jits_Linear_8,3,5,63,98,1542037900
75,14,18,Jits_Linear_8,0,5,80,127,1542787660
75,14,18,Jits_Linear_8,1,1,48,89,1542793772
75,14,18,Jits_Linear_8,2,5,63,98,1542818256
75,14,18,Jits_Linear_8,3,5,56,103,1542887788
75,14,18,Jits_Linear_8,0,5,63,98,1543628216
75,14,18,Jits_Linear_8,1,1,48,95,1543633800
75,14,18,Jits_Linear_8,2,5,56,103,1543657812
75,14,18,Jits_Linear_8,3,5,80,127,1543718272
75,14,18,Jits_Linear_8,0,5,56,103,1544377696
75,14,18,Jits_Linear_8,1,5,80,127,1544380764
75,14,18,Jits_Linear_8,2,1,48,81,1544433624
75,14,18,Jits_Linear_8,3,5,63,98,1544497716
75,14,18,Jits_Linear_8,0,1,48,83,1545232932
75,14,18,Jits_Linear_8,1,5,56,103,1545258440
75,14,18,Jits_Linear_8,2,5,80,127,1545298232
75,14,18,Jits_Linear_8,3,5,63,98,1545307528
75,14,18,Jits_Linear_8,0,5,56,103,1546018048
75,14,18,Jits_Linear_8,1,5,80,127,1546037908
75,14,18,Jits_Linear_8,2,1,48,98,1546053380
75,14,18,Jits_Linear_8,3,5,63,98,1546117768
75,14,18,Jits_Linear_8,0,5,80,127,1546807628
75,14,18,Jits_Linear_8,1,1,48,90,1546888816
75,14,18,Jits_Linear_8,2,5,56,103,1546907972
75,14,18,Jits_Linear_8,3,5,63,98,1546918240
75,14,18,Jits_Linear_8,0,5,63,98,1547577580
75,14,18,Jits_Linear_8,1,5,80,127,1547638120
75,14,18,Jits_Linear_8,2,5,56,103,1547648316
75,14,18,Jits_Linear_8,3,1,48,95,1547695816
75,14,18,Jits_Linear_8,0,5,56,103,1548377556
75,14,18,Jits_Linear_8,1,1,48,91,1548447320
75,14,18,Jits_Linear_8,2,5,63,98,1548449072
75,14,18,Jits_Linear_8,3,5,80,127,1548452044
75,14,18,Jits_Linear_8,0,1,48,78,1549207908
75,14,18,Jits_Linear_8,1,5,63,98,1549209468
75,14,18,Jits_Linear_8,2,5,56,103,1549257948
75,14,18,Jits_Linear_8,3,5,80,127,1549261096
75,14,18,Jits_Linear_8,0,5,56,103,1549957504
75,14,18,Jits_Linear_8,1,5,80,127,1549960572
75,14,18,Jits_Linear_8,2,1,48,80,1550007700
75,14,18,Jits_Linear_8,3,5,63,98,1550047804
75,14,18,Jits_Linear_8,0,1,48,77,1550786872
75,14,18,Jits_Linear_8,1,5,63,98,1550788444
75,14,18,Jits_Linear_8,2,5,56,103,1550879312
75,14,18,Jits_Linear_8,3,5,80,127,1550907720
75,14,18,Jits_Linear_8,0,5,56,103,1551568652
75,14,18,Jits_Linear_8,1,1,48,81,1551600544
75,14,18,Jits_Linear_8,2,5,63,98,1551667704
75,14,18,Jits_Linear_8,3,5,80,127,1551698500
75,14,18,Jits_Linear_8,0,5,63,98,1552378092
75,14,18,Jits_Linear_8,1,5,56,103,1552387540
75,14,18,Jits_Linear_8,2,1,48,81,1552421972
75,14,18,Jits_Linear_8,3,5,80,127,1552477516
75,14,18,Jits_Linear_8,0,5,63,98,1553177920
75,14,18,Jits_Linear_8,1,1,48,85,1553228692
75,14,18,Jits_Linear_8,2,5,56,103,1553257788
75,14,18,Jits_Linear_8,3,5,80,127,1553260928
75,14,18,Jits_Linear_8,0,5,80,127,1553918260
75,14,18,Jits_Linear_8,1,5,63,98,1553937748
75,14,18,Jits_Linear_8,2,5,56,103,1553998064
75,14,18,Jits_Linear_8,3,1,48,93,1554020284
75,14,18,Jits_Linear_8,0,5,56,103,1554737660
75,14,18,Jits_Linear_8,1,5,63,98,1554757888
75,14,18,Jits_Linear_8,2,5,80,127,1554761480
75,14,18,Jits_Linear_8,3,1,48,84,1554783108
75,14,18,Jits_Linear_8,0,5,63,98,1555458672
75,14,18,Jits_Linear_8,1,5,80,127,1555538472
75,14,18,Jits_Linear_8,2,1,48,74,1555539884
75,14,18,Jits_Linear_8,3,5,56,103,1555547688
75,14,18,Jits_Linear_8,0,5,63,98,1556258128
75,14,18,Jits_Linear_8,1,5,56,103,1556277620
75,14,18,Jits_Linear_8,2,1,48,71,1556306144
75,14,18,Jits_Linear_8,3,5,80,127,1556327664
75,14,18,Jits_Linear_8,0,5,80,127,1557037508
75,14,18,Jits_Linear_8,1,1,48,62,1557065044
75,14,18,Jits_Linear_8,2,5,63,98,1557078636
75,14,18,Jits_Linear_8,3,5,56,103,1557097824
75,14,18,Jits_Linear_8,0,5,56,103,1557848736
75,14,18,Jits_Linear_8,1,1,48,71,1557850232
75,14,18,Jits_Linear_8,2,5,63,98,1557857584
75,14,18,Jits_Linear_8,3,5,80,127,1557878416
75,14,18,Jits_Linear_8,0,5,56,103,1558547816
75,14,18,Jits_Linear_8,1,5,63,98,1558637880
75,14,18,Jits_Linear_8,2,1,48,73,1558641516
75,14,18,Jits_Linear_8,3,5,80,127,1558698432
75,14,18,Jits_Linear_8,0,5,80,127,1559347516
75,14,18,Jits_Linear_8,1,5,56,103,1559357860
75,14,18,Jits_Linear_8,2,1,48,72,1559419492
75,14,18,Jits_Linear_8,3,5,63,98,1559427608
75,14,18,Jits_Linear_8,0,5,63,98,1560148628
75,14,18,Jits_Linear_8,1,1,48,65,1560197756
75,14,18,Jits_Linear_8,2,5,80,127,1560237364
75,14,18,Jits_Linear_8,3,5,56,103,1560247636
75,14,18,Jits_Linear_8,0,5,63,98,1560847700
75,14,18,Jits_Linear_8,1,5,80,127,1560897976
75,14,18,Jits_Linear_8,2,5,56,103,1560958664
75,14,18,Jits_Linear_8,3,1,48,68,1560961784
75,14,18,Jits_Linear_8,0,5,56,103,1561638384
75,14,18,Jits_Linear_8,1,5,80,127,1561688364
75,14,18,Jits_Linear_8,2,5,63,98,1561707852
75,14,18,Jits_Linear_8,3,1,48,63,1561730224
75,14,18,Jits_Linear_8,0,5,56,103,1562368472
75,14,18,Jits_Linear_8,1,5,80,127,1562427820
75,14,18,Jits_Linear_8,2,5,63,98,1562498324
75,14,18,Jits_Linear_8,3,1,48,62,1562499292
75,14,18,Jits_Linear_8,0,5,56,103,1563128308
75,14,18,Jits_Linear_8,1,5,80,127,1563157836
75,14,18,Jits_Linear_8,2,5,63,98,1563187512
75,14,18,Jits_Linear_8,3,1,48,58,1563261348
75,14,18,Jits_Linear_8,0,5,56,103,1563927924
75,14,18,Jits_Linear_8,1,5,80,127,1563948384
75,14,18,Jits_Linear_8,2,5,63,98,1564007656
75,14,18,Jits_Linear_8,3,1,48,60,1564011144
75,14,18,Jits_Linear_8,0,1,48,63,1564767560
75,14,18,Jits_Linear_8,1,5,80,127,1564769044
75,14,18,Jits_Linear_8,2,5,56,103,1564777748
75,14,18,Jits_Linear_8,3,5,63,98,1564787948
75,14,18,Jits_Linear_8,0,5,56,103,1565478464
75,14,18,Jits_Linear_8,1,5,80,127,1565518180
75,14,18,Jits_Linear_8,2,1,48,68,1565533956
75,14,18,Jits_Linear_8,3,5,63,98,1565547776
75,14,18,Jits_Linear_8,0,5,56,103,1566198224
75,14,18,Jits_Linear_8,1,5,63,98,1566227680
75,14,18,Jits_Linear_8,2,5,80,127,1566267616
75,14,18,Jits_Linear_8,3,1,48,54,1566328424
75,14,18,Jits_Linear_8,0,5,80,127,1566897376
75,14,18,Jits_Linear_8,1,5,63,98,1566947728
75,14,18,Jits_Linear_8,2,5,56,103,1566968408
75,14,18,Jits_Linear_8,3,1,48,71,1567059108
75,14,18,Jits_Linear_8,0,5,56,103,1567677736
75,14,18,Jits_Linear_8,1,5,80,127,1567747420
75,14,18,Jits_Linear_8,2,5,63,98,1567807884
75,14,18,Jits_Linear_8,3,1,48,68,1567809520
75,14,18,Jits_Linear_8,0,5,80,127,1568418468
75,14,18,Jits_Linear_8,1,5,63,98,1568508308
75,14,18,Jits_Linear_8,2,5,56,103,1568527720
75,14,18,Jits_Linear_8,3,1,48,66,1568586728
75,14,18,Jits_Linear_8,0,5,63,98,1569177864
75,14,18,Jits_Linear_8,1,5,56,103,1569197352
75,14,18,Jits_Linear_8,2,5,80,127,1569238560
75,14,18,Jits_Linear_8,3,1,48,68,1569335320
75,14,18,Jits_Linear_8,0,5,80,127,1569878244
75,14,18,Jits_Linear_8,1,5,63,98,1569897884
75,14,18,Jits_Linear_8,2,5,56,103,1569977628
75,14,18,Jits_Linear_8,3,1,48,73,1570089000
75,14,18,Jits_Linear_8,0,5,63,98,1570607436
75,14,18,Jits_Linear_8,1,5,56,103,1570718272
75,14,18,Jits_Linear_8,2,5,80,127,1570721188
75,14,18,Jits_Linear_8,3,1,48,60,1570822072
75,14,18,Jits_Linear_8,0,5,63,98,1571368448
75,14,18,Jits_Linear_8,1,5,56,103,1571377596
75,14,18,Jits_Linear_8,2,5,80,127,1571380512
75,14,18,Jits_Linear_8,3,1,48,62,1571549068
75,14,18,Jits_Linear_8,0,5,56,103,1572088320
75,14,18,Jits_Linear_8,1,5,80,127,1572208124
75,14,18,Jits_Linear_8,2,5,63,98,1572248016
75,14,18,Jits_Linear_8,3,1,48,62,1572306208
75,14,18,Jits_Linear_8,0,5,56,103,1572837680
75,14,18,Jits_Linear_8,1,5,80,127,1572917476
75,14,18,Jits_Linear_8,2,5,63,98,1572938236
75,14,18,Jits_Linear_8,3,1,48,64,1573056828
75,14,18,Jits_Linear_8,0,5,56,103,1573567772
75,14,18,Jits_Linear_8,1,5,63,98,1573677388
75,14,18,Jits_Linear_8,2,5,80,127,1573680752
75,14,18,Jits_Linear_8,3,1,48,70,1573794464
75,14,18,Jits_Linear_8,0,5,56,103,1574327532
75,14,18,Jits_Linear_8,1,5,80,127,1574358404
75,14,18,Jits_Linear_8,2,5,63,98,1574377740
75,14,18,Jits_Linear_8,3,1,48,70,1574531956
75,14,18,Jits_Linear_8,0,5,63,98,1575038344
75,14,18,Jits_Linear_8,1,5,56,103,1575047492
75,14,18,Jits_Linear_8,2,5,80,127,1575057716
75,14,18,Jits_Linear_8,3,1,48,63,1575265340
75,14,18,Jits_Linear_8,0,5,80,127,1575747888
75,14,18,Jits_Linear_8,1,5,56,103,1575798316
75,14,18,Jits_Linear_8,2,5,63,98,1575838056
75,14,18,Jits_Linear_8,3,1,48,57,1575940588
75,14,18,Jits_Linear_8,0,1,48,64,1576295644
75,14,18,Jits_Linear_8,1,5,80,127,1576488300
75,14,18,Jits_Linear_8,2,5,63,98,1576507712
75,14,18,Jits_Linear_8,3,5,56,103,1576558212
75,14,18,Jits_Linear_8,0,1,48,65,1577158652
75,14,18,Jits_Linear_8,1,5,80,127,1577218468
75,14,18,Jits_Linear_8,2,5,56,103,1577248292
75,14,18,Jits_Linear_8,3,5,63,98,1577317960
75,14,18,Jits_Linear_8,0,1,48,69,1577952108
75,14,18,Jits_Linear_8,1,5,56,103,1577987432
75,14,18,Jits_Linear_8,2,5,80,127,1577997700
75,14,18,Jits_Linear_8,3,5,63,98,1578037640
75,14,18,Jits_Linear_8,0,5,56,103,1578627588
75,14,18,Jits_Linear_8,1,5,63,98,1578647996
75,14,18,Jits_Linear_8,2,5,80,127,1578717604
75,14,18,Jits_Linear_8,3,1,48,69,1578727844
75,14,18,Jits_Linear_8,0,5,63,98,1579368092
75,14,18,Jits_Linear_8,1,1,48,70,1579423672
75,14,18,Jits_Linear_8,2,5,80,127,1579428428
75,14,18,Jits_Linear_8,3,5,56,103,1579447692
75,14,18,Jits_Linear_8,0,5,80,127,1580068352
75,14,18,Jits_Linear_8,1,5,56,103,1580098028
75,14,18,Jits_Linear_8,2,5,63,98,1580127552
75,14,18,Jits_Linear_8,3,1,48,75,1580143176
75,14,18,Jits_Linear_8,0,5,56,103,1580777912
75,14,18,Jits_Linear_8,1,5,63,98,1580838232
75,14,18,Jits_Linear_8,2,1,48,69,1580839196
75,14,18,Jits_Linear_8,3,5,80,127,1580897568
75,14,18,Jits_Linear_8,0,5,80,127,1581508228
75,14,18,Jits_Linear_8,1,1,48,67,1581528392
75,14,18,Jits_Linear_8,2,5,56,103,1581529804
75,14,18,Jits_Linear_8,3,5,63,98,1581598140
75,14,18,Jits_Linear_8,0,5,80,127,1582217548
75,14,18,Jits_Linear_8,1,5,63,98,1582238180
75,14,18,Jits_Linear_8,2,1,48,64,1582239148
75,14,18,Jits_Linear_8,3,5,56,103,1582267700
75,14,18,Jits_Linear_8,0,5,80,127,1582907708
75,14,18,Jits_Linear_8,1,5,63,98,1582928168
75,14,18,Jits_Linear_8,2,1,48,58,1582964616
75,14,18,Jits_Linear_8,3,5,56,103,1582987580
75,14,18,Jits_Linear_8,0,5,80,127,1583608180
75,14,18,Jits_Linear_8,1,1,48,57,1583672808
75,14,18,Jits_Linear_8,2,5,56,103,1583707380
75,14,18,Jits_Linear_8,3,5,63,98,1583738176
75,14,18,Jits_Linear_8,0,5,63,98,1584298264
75,14,18,Jits_Linear_8,1,5,80,127,1584347420
75,14,18,Jits_Linear_8,2,5,56,103,1584368180
75,14,18,Jits_Linear_8,3,1,48,54,1584409956
75,14,18,Jits_Linear_8,0,5,80,127,1585037560
75,14,18,Jits_Linear_8,1,5,56,103,1585068356
75,14,18,Jits_Linear_8,2,5,63,98,1585071276
75,14,18,Jits_Linear_8,3,1,48,62,1585072240
75,14,18,Jits_Linear_8,0,1,48,66,1585753496
75,14,18,Jits_Linear_8,1,5,63,98,1585767764
75,14,18,Jits_Linear_8,2,5,56,103,1585807656
75,14,18,Jits_Linear_8,3,5,80,127,1585828264
75,14,18,Jits_Linear_8,0,5,80,127,1586407804
75,14,18,Jits_Linear_8,1,1,48,58,1586481424
75,14,18,Jits_Linear_8,2,5,63,98,1586487520
75,14,18,Jits_Linear_8,3,5,56,103,1586527536
75,14,18,Jits_Linear_8,0,5,63,98,1587117300
75,14,18,Jits_Linear_8,1,1,48,59,1587191516
75,14,18,Jits_Linear_8,2,5,80,127,1587198212
75,14,18,Jits_Linear_8,3,5,56,103,1587217924
75,14,18,Jits_Linear_8,0,5,56,103,1587847516
75,14,18,Jits_Linear_8,1,5,63,98,1587857960
75,14,18,Jits_Linear_8,2,1,48,64,1587870516
75,14,18,Jits_Linear_8,3,5,80,127,1587897816
75,14,18,Jits_Linear_8,0,5,56,103,1588458108
75,14,18,Jits_Linear_8,1,5,80,127,1588460952
75,14,18,Jits_Linear_8,2,1,48,58,1588547988
75,14,18,Jits_Linear_8,3,5,63,98,1588598128
75,14,18,Jits_Linear_8,0,5,56,103,1589138064
75,14,18,Jits_Linear_8,1,5,63,98,1589227976
75,14,18,Jits_Linear_8,2,1,48,60,1589250132
75,14,18,Jits_Linear_8,3,5,80,127,1589297428
75,14,18,Jits_Linear_8,0,5,63,98,1589897660
75,14,18,Jits_Linear_8,1,5,80,127,1589901048
75,14,18,Jits_Linear_8,2,1,48,63,1589904544
75,14,18,Jits_Linear_8,3,5,56,103,1589958068
75,14,18,Jits_Linear_8,0,1,48,65,1590592564
75,14,18,Jits_Linear_8,1,5,80,127,1590617392
75,14,18,Jits_Linear_8,2,5,56,103,1590638076
75,14,18,Jits_Linear_8,3,5,63,98,1590648124
75,14,18,Jits_Linear_8,0,5,56,103,1591208200
75,14,18,Jits_Linear_8,1,5,63,98,1591217496
75,14,18,Jits_Linear_8,2,5,80,127,1591288224
75,14,18,Jits_Linear_8,3,1,48,63,1591299884
75,14,18,Jits_Linear_8,0,5,80,127,1591888220
75,14,18,Jits_Linear_8,1,5,56,103,1591938424
75,14,18,Jits_Linear_8,2,1,48,57,1591954820
75,14,18,Jits_Linear_8,3,5,63,98,1591987596
75,14,18,Jits_Linear_8,0,1,48,61,1592587868
75,14,18,Jits_Linear_8,1,5,56,103,1592648056
75,14,18,Jits_Linear_8,2,5,63,98,1592658176
75,14,18,Jits_Linear_8,3,5,80,127,1592698172
75,14,18,Jits_Linear_8,0,5,56,103,1593267860
75,14,18,Jits_Linear_8,1,5,63,98,1593307432
75,14,18,Jits_Linear_8,2,1,48,65,1593313616
75,14,18,Jits_Linear_8,3,5,80,127,1593357700
75,14,18,Jits_Linear_8,0,5,80,127,1593898288
75,14,18,Jits_Linear_8,1,5,56,103,1593947372
75,14,18,Jits_Linear_8,2,5,63,98,1593967908
75,14,18,Jits_Linear_8,3,1,48,61,1593977100
75,14,18,Jits_Linear_8,0,5,80,127,1594578184
75,14,18,Jits_Linear_8,1,1,48,60,1594605192
75,14,18,Jits_Linear_8,2,5,63,98,1594637968
75,14,18,Jits_Linear_8,3,5,56,103,1594717452
75,14,18,Jits_Linear_8,0,5,80,127,1595227716
75,14,18,Jits_Linear_8,1,5,56,103,1595267804
75,14,18,Jits_Linear_8,2,5,63,98,1595287920
75,14,18,Jits_Linear_8,3,1,48,57,1595308868
75,14,18,Jits_Linear_8,0,1,48,59,1595957208
75,14,18,Jits_Linear_8,1,5,56,103,1595958848
75,14,18,Jits_Linear_8,2,5,80,127,1595968072
75,14,18,Jits_Linear_8,3,5,63,98,1596007936
75,14,18,Jits_Linear_8,0,1,48,56,1596653384
75,14,18,Jits_Linear_8,1,5,56,103,1596687884
75,14,18,Jits_Linear_8,2,5,63,98,1596727824
75,14,18,Jits_Linear_8,3,5,80,127,1596731188
75,14,18,Jits_Linear_8,0,5,63,98,1597237764
75,14,18,Jits_Linear_8,1,5,80,127,1597277480
75,14,18,Jits_Linear_8,2,5,56,103,1597348160
75,14,18,Jits_Linear_8,3,1,48,59,1597368208
75,14,18,Jits_Linear_8,0,5,63,98,1597887900
75,14,18,Jits_Linear_8,1,5,56,103,1597967996
75,14,18,Jits_Linear_8,2,5,80,127,1598028164
75,14,18,Jits_Linear_8,3,1,48,60,1598032480
75,14,18,Jits_Linear_8,0,5,80,127,1598557496
75,14,18,Jits_Linear_8,1,5,63,98,1598607876
75,14,18,Jits_Linear_8,2,5,56,103,1598637400
75,14,18,Jits_Linear_8,3,1,48,59,1598681720
75,14,18,Jits_Linear_8,0,5,56,103,1599207948
75,14,18,Jits_Linear_8,1,5,63,98,1599257928
75,14,18,Jits_Linear_8,2,5,80,127,1599268196
75,14,18,Jits_Linear_8,3,1,48,59,1599333792
75,14,18,Jits_Linear_8,0,5,56,103,1599877476
75,14,18,Jits_Linear_8,1,1,48,60,1599982280
75,14,18,Jits_Linear_8,2,5,63,98,1599987932
75,14,18,Jits_Linear_8,3,5,80,127,1600007716
75,14,18,Jits_Linear_8,0,5,63,98,1600538048
75,14,18,Jits_Linear_8,1,5,80,127,1600588100
75,14,18,Jits_Linear_8,2,1,48,60,1600640964
75,14,18,Jits_Linear_8,3,5,56,103,1600678476
75,14,18,Jits_Linear_8,0,5,63,98,1601177920
75,14,18,Jits_Linear_8,1,5,80,127,1601207820
75,14,18,Jits_Linear_8,2,5,56,103,1601297732
75,14,18,Jits_Linear_8,3,1,48,58,1601316660
75,14,18,Jits_Linear_8,0,5,63,98,1601828180
75,14,18,Jits_Linear_8,1,5,56,103,1601837404
75,14,18,Jits_Linear_8,2,5,80,127,1601937748
75,14,18,Jits_Linear_8,3,1,48,51,1601956160
75,14,18,Jits_Linear_8,0,5,63,98,1602577812
75,14,18,Jits_Linear_8,1,1,48,56,1602582056
75,14,18,Jits_Linear_8,2,5,80,127,1602607556
75,14,18,Jits_Linear_8,3,5,56,103,1602638056
75,14,18,Jits_Linear_8,0,5,80,127,1603238224
75,14,18,Jits_Linear_8,1,1,48,63,1603244260
75,14,18,Jits_Linear_8,2,5,63,98,1603247444
75,14,18,Jits_Linear_8,3,5,56,103,1603278240
75,14,18,Jits_Linear_8,0,5,80,127,1603777852
75,14,18,Jits_Linear_8,1,5,63,98,1603798240
75,14,18,Jits_Linear_8,2,5,56,103,1603847692
75,14,18,Jits_Linear_8,3,1,48,58,1603908272
75,14,18,Jits_Linear_8,0,5,63,98,1604447684
75,14,18,Jits_Linear_8,1,5,80,127,1604507956
75,14,18,Jits_Linear_8,2,1,48,54,1604517076
75,14,18,Jits_Linear_8,3,5,56,103,1604527656
75,14,18,Jits_Linear_8,0,5,63,98,1605047628
75,14,18,Jits_Linear_8,1,5,56,103,1605097832
75,14,18,Jits_Linear_8,2,5,80,127,1605108100
75,14,18,Jits_Linear_8,3,1,48,52,1605140360
75,14,18,Jits_Linear_8,0,5,56,103,1605718340
75,14,18,Jits_Linear_8,1,1,48,57,1605719308
75,14,18,Jits_Linear_8,2,5,80,127,1605727780
75,14,18,Jits_Linear_8,3,5,63,98,1605827888
75,14,18,Jits_Linear_8,0,5,80,127,1606317548
75,14,18,Jits_Linear_8,1,5,63,98,1606327596
75,14,18,Jits_Linear_8,2,1,48,57,1606399640
75,14,18,Jits_Linear_8,3,5,56,103,1606478404
75,14,18,Jits_Linear_8,0,5,63,98,1606957564
75,14,18,Jits_Linear_8,1,5,80,127,1606998624
75,14,18,Jits_Linear_8,2,5,56,103,1607078296
75,14,18,Jits_Linear_8,3,1,48,51,1607115044
75,14,18,Jits_Linear_8,0,5,56,103,1607578032
75,14,18,Jits_Linear_8,1,5,80,127,1607678656
75,14,18,Jits_Linear_8,2,5,63,98,1607697696
75,14,18,Jits_Linear_8,3,1,48,56,1607715488
75,14,18,Jits_Linear_8,0,5,80,127,1608268100
75,14,18,Jits_Linear_8,1,5,56,103,1608278592
75,14,18,Jits_Linear_8,2,1,48,57,1608306368
75,14,18,Jits_Linear_8,3,5,63,98,1608367548
75,14,18,Jits_Linear_8,0,5,56,103,1608897808
75,14,18,Jits_Linear_8,1,5,63,98,1608918488
75,14,18,Jits_Linear_8,2,1,48,56,1608943108
75,14,18,Jits_Linear_8,3,5,80,127,1608998424
75,14,18,Jits_Linear_8,0,5,63,98,1609468224
75,14,18,Jits_Linear_8,1,1,48,53,1609556828
75,14,18,Jits_Linear_8,2,5,56,103,1609558500
75,14,18,Jits_Linear_8,3,5,80,127,1609561268
75,14,18,Jits_Linear_8,0,5,56,103,1610117652
75,14,18,Jits_Linear_8,1,1,48,58,1610148300
75,14,18,Jits_Linear_8,2,5,80,127,1610177916
75,14,18,Jits_Linear_8,3,5,63,98,1610188112
75,14,18,Jits_Linear_8,0,5,80,127,1610788340
75,14,18,Jits_Linear_8,1,1,48,48,1610796272
75,14,18,Jits_Linear_8,2,5,56,103,1610797860
75,14,18,Jits_Linear_8,3,5,63,98,1610800772
75,14,18,Jits_Linear_8,0,5,56,103,1611367816
75,14,18,Jits_Linear_8,1,5,80,127,1611378012
75,14,18,Jits_Linear_8,2,5,63,98,1611397572
75,14,18,Jits_Linear_8,3,1,48,56,1611438700
75,14,18,Jits_Linear_8,0,5,63,98,1611957508
75,14,18,Jits_Linear_8,1,1,48,59,1612016696
75,14,18,Jits_Linear_8,2,5,80,127,1612018192
75,14,18,Jits_Linear_8,3,5,56,103,1612068244
75,14,18,Jits_Linear_8,0,1,48,57,1612620032
75,14,18,Jits_Linear_8,1,5,63,98,1612657968
75,14,18,Jits_Linear_8,2,5,56,103,1612668240
75,14,18,Jits_Linear_8,3,5,80,127,1612717628
75,14,18,Jits_Linear_8,0,5,63,98,1613167840
75,14,18,Jits_Linear_8,1,5,80,127,1613187400
75,14,18,Jits_Linear_8,2,5,56,103,1613197620
75,14,18,Jits_Linear_8,3,1,48,53,1613246744
75,14,18,Jits_Linear_8,0,5,63,98,1613778408
75,14,18,Jits_Linear_8,1,5,80,127,1613781700
75,14,18,Jits_Linear_8,2,5,56,103,1613818424
75,14,18,Jits_Linear_8,3,1,48,58,1613825824
75,14,18,Jits_Linear_8,0,1,48,57,1614389672
75,14,18,Jits_Linear_8,1,5,63,98,1614458404
75,14,18,Jits_Linear_8,2,5,80,127,1614487808
75,14,18,Jits_Linear_8,3,5,56,103,1614498136
75,14,18,Jits_Linear_8,0,5,56,103,1615018644
75,14,18,Jits_Linear_8,1,1,48,59,1615024608
75,14,18,Jits_Linear_8,2,5,80,127,1615048020
75,14,18,Jits_Linear_8,3,5,63,98,1615077768
75,14,18,Jits_Linear_8,0,1,48,59,1615629564
75,14,18,Jits_Linear_8,1,5,63,98,1615717848
75,14,18,Jits_Linear_8,2,5,56,103,1615757648
75,14,18,Jits_Linear_8,3,5,80,127,1615760788
75,14,18,Jits_Linear_8,0,5,80,127,1616217604
75,14,18,Jits_Linear_8,1,1,48,58,1616289300
75,14,18,Jits_Linear_8,2,5,56,103,1616298540
75,14,18,Jits_Linear_8,3,5,63,98,1616347472
75,14,18,Jits_Linear_8,0,5,80,127,1616798008
75,14,18,Jits_Linear_8,1,5,56,103,1616817420
75,14,18,Jits_Linear_8,2,5,63,98,1616907628
75,14,18,Jits_Linear_8,3,1,48,62,1616921456
75,14,18,Jits_Linear_8,0,5,80,127,1617437948
75,14,18,Jits_Linear_8,1,5,63,98,1617477964
75,14,18,Jits_Linear_8,2,1,48,57,1617496820
75,14,18,Jits_Linear_8,3,5,56,103,1617517892
75,14,18,Jits_Linear_8,0,5,63,98,1618008584
75,14,18,Jits_Linear_8,1,1,48,59,1618067512
75,14,18,Jits_Linear_8,2,5,80,127,1618068924
75,14,18,Jits_Linear_8,3,5,56,103,1618097628
75,14,18,Jits_Linear_8,0,5,56,103,1618607556
75,14,18,Jits_Linear_8,1,5,80,127,1618638356
75,14,18,Jits_Linear_8,2,1,48,57,1618656616
75,14,18,Jits_Linear_8,3,5,63,98,1618728480
75,14,18,Jits_Linear_8,0,5,56,103,1619207420
75,14,18,Jits_Linear_8,1,1,48,54,1619260132
75,14,18,Jits_Linear_8,2,5,80,127,1619318300
75,14,18,Jits_Linear_8,3,5,63,98,1619347704
75,14,18,Jits_Linear_8,0,5,56,103,1619847444
75,14,18,Jits_Linear_8,1,1,48,45,1619875904
75,14,18,Jits_Linear_8,2,5,63,98,1619908004
75,14,18,Jits_Linear_8,3,5,80,127,1619937604
75,14,18,Jits_Linear_8,0,5,56,103,1620407700
75,14,18,Jits_Linear_8,1,1,48,58,1620453744
75,14,18,Jits_Linear_8,2,5,63,98,1620478352
75,14,18,Jits_Linear_8,3,5,80,127,1620497688
75,14,18,Jits_Linear_8,0,5,80,127,1620967704
75,14,18,Jits_Linear_8,1,5,63,98,1620988384
75,14,18,Jits_Linear_8,2,5,56,103,1621037392
75,14,18,Jits_Linear_8,3,1,48,54,1621038952
75,14,18,Jits_Linear_8,0,5,63,98,1621578196
75,14,18,Jits_Linear_8,1,1,48,55,1621579160
75,14,18,Jits_Linear_8,2,5,80,127,1621588384
75,14,18,Jits_Linear_8,3,5,56,103,1621637464
75,14,18,Jits_Linear_8,0,1,48,51,1622151780
75,14,18,Jits_Linear_8,1,5,63,98,1622157756
75,14,18,Jits_Linear_8,2,5,80,127,1622228264
75,14,18,Jits_Linear_8,3,5,56,103,1622247884
75,14,18,Jits_Linear_8,0,5,63,98,1622767944
75,14,18,Jits_Linear_8,1,5,80,127,1622771384
75,14,18,Jits_Linear_8,2,1,48,51,1622787408
75,14,18,Jits_Linear_8,3,5,56,103,1622837548
75,14,18,Jits_Linear_8,0,5,80,127,1623298484
75,14,18,Jits_Linear_8,1,5,56,103,1623317752
75,14,18,Jits_Linear_8,2,5,63,98,1623328392
75,14,18,Jits_Linear_8,3,1,48,54,1623370540
75,14,18,Jits_Linear_8,0,5,56,103,1623897440
75,14,18,Jits_Linear_8,1,1,48,55,1623901680
75,14,18,Jits_Linear_8,2,5,63,98,1623987520
75,14,18,Jits_Linear_8,3,5,80,127,1623990884
75,14,18,Jits_Linear_8,0,5,80,127,1624448444
75,14,18,Jits_Linear_8,1,5,56,103,1624457444
75,14,18,Jits_Linear_8,2,5,63,98,1624478200
75,14,18,Jits_Linear_8,3,1,48,55,1624525808
75,14,18,Jits_Linear_8,0,5,63,98,1625017656
75,14,18,Jits_Linear_8,1,1,48,49,1625058388
75,14,18,Jits_Linear_8,2,5,80,127,1625078412
75,14,18,Jits_Linear_8,3,5,56,103,1625088532
75,14,18,Jits_Linear_8,0,1,48,51,1625633712
75,14,18,Jits_Linear_8,1,5,63,98,1625657652
75,14,18,Jits_Linear_8,2,5,80,127,1625688448
75,14,18,Jits_Linear_8,3,5,56,103,1625728388
75,14,18,Jits_Linear_8,0,5,56,103,1626217796
75,14,18,Jits_Linear_8,1,5,80,127,1626228140
75,14,18,Jits_Linear_8,2,1,48,57,1626253156
75,14,18,Jits_Linear_8,3,5,63,98,1626268172
75,14,18,Jits_Linear_8,0,5,80,127,1626748200
75,14,18,Jits_Linear_8,1,1,48,58,1626822896
75,14,18,Jits_Linear_8,2,5,56,103,1626828244
75,14,18,Jits_Linear_8,3,5,63,98,1626838516
75,14,18,Jits_Linear_8,0,5,80,127,1627357532
75,14,18,Jits_Linear_8,1,1,48,58,1627373908
75,14,18,Jits_Linear_8,2,5,56,103,1627437620
75,14,18,Jits_Linear_8,3,5,63,98,1627447668
75,14,18,Jits_Linear_8,0,5,80,127,1627877608
75,14,18,Jits_Linear_8,1,5,56,103,1627927888
75,14,18,Jits_Linear_8,2,1,48,55,1627978236
75,14,18,Jits_Linear_8,3,5,63,98,1627979724
75,14,18,Jits_Linear_8,0,5,56,103,1628498300
75,14,18,Jits_Linear_8,1,5,63,98,1628501368
75,14,18,Jits_Linear_8,2,1,48,55,1628526824
75,14,18,Jits_Linear_8,3,5,80,127,1628547524
75,14,18,Jits_Linear_8,0,5,56,103,1629077804
75,14,18,Jits_Linear_8,1,1,48,54,1629078768
75,14,18,Jits_Linear_8,2,5,63,98,1629107476
75,14,18,Jits_Linear_8,3,5,80,127,1629117820
75,14,18,Jits_Linear_8,0,5,63,98,1629548104
75,14,18,Jits_Linear_8,1,5,56,103,1629617440
75,14,18,Jits_Linear_8,2,1,48,52,1629647460
75,14,18,Jits_Linear_8,3,5,80,127,1629667636
75,14,18,Jits_Linear_8,0,5,63,98,1630137644
75,14,18,Jits_Linear_8,1,5,56,103,1630147912
75,14,18,Jits_Linear_8,2,5,80,127,1630151128
75,14,18,Jits_Linear_8,3,1,48,54,1630186172
75,14,18,Jits_Linear_8,0,5,80,127,1630637528
75,14,18,Jits_Linear_8,1,5,56,103,1630697696
75,14,18,Jits_Linear_8,2,1,48,52,1630727344
75,14,18,Jits_Linear_8,3,5,63,98,1630788196
75,14,18,Jits_Linear_8,0,5,80,127,1631188316
75,14,18,Jits_Linear_8,1,5,56,103,1631287596
75,14,18,Jits_Linear_8,2,1,48,56,1631323820
75,14,18,Jits_Linear_8,3,5,63,98,1631327524
75,14,18,Jits_Linear_8,0,5,56,103,1631788408
75,14,18,Jits_Linear_8,1,5,63,98,1631807748
75,14,18,Jits_Linear_8,2,1,48,56,1631810792
75,14,18,Jits_Linear_8,3,5,80,127,1631848196
75,14,18,Jits_Linear_8,0,5,63,98,1632307508
75,14,18,Jits_Linear_8,1,5,56,103,1632328264
75,14,18,Jits_Linear_8,2,1,48,53,1632368024
75,14,18,Jits_Linear_8,3,5,80,127,1632428604
75,14,18,Jits_Linear_8,0,5,63,98,1632848380
75,14,18,Jits_Linear_8,1,1,48,55,1632931988
75,14,18,Jits_Linear_8,2,5,80,127,1632958012
75,14,18,Jits_Linear_8,3,5,56,103,1632987464
75,14,18,Jits_Linear_8,0,5,56,103,1633408444
75,14,18,Jits_Linear_8,1,5,63,98,1633438148
75,14,18,Jits_Linear_8,2,1,48,54,1633457080
75,14,18,Jits_Linear_8,3,5,80,127,1633488340
75,14,18,Jits_Linear_8,0,5,63,98,1633918324
75,14,18,Jits_Linear_8,1,5,56,103,1633948100
75,14,18,Jits_Linear_8,2,1,48,52,1633991520
75,14,18,Jits_Linear_8,3,5,80,127,1633998144
75,14,18,Jits_Linear_8,0,1,48,52,1634476140
75,14,18,Jits_Linear_8,1,5,56,103,1634487696
75,14,18,Jits_Linear_8,2,5,63,98,1634508008
75,14,18,Jits_Linear_8,3,5,80,127,1634588084
75,14,18,Jits_Linear_8,0,5,63,98,1634997568
75,14,18,Jits_Linear_8,1,1,48,50,1635017176
75,14,18,Jits_Linear_8,2,5,56,103,1635058028
75,14,18,Jits_Linear_8,3,5,80,127,1635087628
75,14,18,Jits_Linear_8,0,1,48,52,1635568912
75,14,18,Jits_Linear_8,1,5,56,103,1635578152
75,14,18,Jits_Linear_8,2,5,80,127,1635637500
75,14,18,Jits_Linear_8,3,5,63,98,1635677424
75,14,18,Jits_Linear_8,0,5,63,98,1636088032
75,14,18,Jits_Linear_8,1,5,56,103,1636147528
75,14,18,Jits_Linear_8,2,1,48,51,1636151692
75,14,18,Jits_Linear_8,3,5,80,127,1636218172
75,14,18,Jits_Linear_8,0,5,56,103,1636697472
75,14,18,Jits_Linear_8,1,5,63,98,1636707892
75,14,18,Jits_Linear_8,2,5,80,127,1636711256
75,14,18,Jits_Linear_8,3,1,48,50,1636718356
75,14,18,Jits_Linear_8,0,5,63,98,1637167420
75,14,18,Jits_Linear_8,1,5,56,103,1637228180
75,14,18,Jits_Linear_8,2,5,80,127,1637231176
75,14,18,Jits_Linear_8,3,1,48,49,1637260168
75,14,18,Jits_Linear_8,0,5,63,98,1637677428
75,14,18,Jits_Linear_8,1,5,80,127,1637708004
75,14,18,Jits_Linear_8,2,5,56,103,1637727564
75,14,18,Jits_Linear_8,3,1,48,53,1637771156
75,14,18,Jits_Linear_8,0,5,56,103,1638207972
75,14,18,Jits_Linear_8,1,1,48,47,1638220160
75,14,18,Jits_Linear_8,2,5,63,98,1638258020
75,14,18,Jits_Linear_8,3,5,80,127,1638338048
75,14,18,Jits_Linear_8,0,5,80,127,1638707596
75,14,18,Jits_Linear_8,1,5,63,98,1638747464
75,14,18,Jits_Linear_8,2,5,56,103,1638767996
75,14,18,Jits_Linear_8,3,1,48,54,1638788724
75,14,18,Jits_Linear_8,0,5,56,103,1639298460
75,14,18,Jits_Linear_8,1,1,48,47,1639300904
75,14,18,Jits_Linear_8,2,5,80,127,1639307628
75,14,18,Jits_Linear_8,3,5,63,98,1639328012
75,14,18,Jits_Linear_8,0,5,56,103,1639798220
75,14,18,Jits_Linear_8,1,1,48,50,1639816108
75,14,18,Jits_Linear_8,2,5,63,98,1639848220
75,14,18,Jits_Linear_8,3,5,80,127,1639878044
75,14,18,Jits_Linear_8,0,5,56,103,1640268168
75,14,18,Jits_Linear_8,1,5,63,98,1640278588
75,14,18,Jits_Linear_8,2,5,80,127,1640327448
75,14,18,Jits_Linear_8,3,1,48,46,1640341752
75,14,18,Jits_Linear_8,0,5,56,103,1640778116
75,14,18,Jits_Linear_8,1,5,80,127,1640781108
75,14,18,Jits_Linear_8,2,1,48,47,1640853472
75,14,18,Jits_Linear_8,3,5,63,98,1640937792
75,14,18,Jits_Linear_8,0,5,63,98,1641307468
75,14,18,Jits_Linear_8,1,5,56,103,1641378152
75,14,18,Jits_Linear_8,2,5,80,127,1641418236
75,14,18,Jits_Linear_8,3,1,48,51,1641430572
75,14,18,Jits_Linear_8,0,5,63,98,1641858468
75,14,18,Jits_Linear_8,1,1,48,51,1641939980
75,14,18,Jits_Linear_8,2,5,56,103,1641947420
75,14,18,Jits_Linear_8,3,5,80,127,1641950568
75,14,18,Jits_Linear_8,0,5,56,103,1642348028
75,14,18,Jits_Linear_8,1,5,63,98,1642438112
75,14,18,Jits_Linear_8,2,5,80,127,1642448384
75,14,18,Jits_Linear_8,3,1,48,48,1642464156
75,14,18,Jits_Linear_8,0,5,56,103,1642828168
75,14,18,Jits_Linear_8,1,5,63,98,1642878372
75,14,18,Jits_Linear_8,2,5,80,127,1642908000
75,14,18,Jits_Linear_8,3,1,48,48,1642974340
75,14,18,Jits_Linear_8,0,5,63,98,1643407828
75,14,18,Jits_Linear_8,1,5,80,127,1643418096
75,14,18,Jits_Linear_8,2,1,48,44,1643466472
75,14,18,Jits_Linear_8,3,5,56,103,1643478332
75,14,18,Jits_Linear_8,0,5,63,98,1643827536
75,14,18,Jits_Linear_8,1,5,80,127,1643887928
75,14,18,Jits_Linear_8,2,5,56,103,1643928040
75,14,18,Jits_Linear_8,3,1,48,48,1643965088
75,14,18,Jits_Linear_8,0,1,48,48,1644427340
75,14,18,Jits_Linear_8,1,5,56,103,1644428900
75,14,18,Jits_Linear_8,2,5,80,127,1644448016
75,14,18,Jits_Linear_8,3,5,63,98,1644467428
75,14,18,Jits_Linear_8,0,5,63,98,1644847428
75,14,18,Jits_Linear_8,1,5,56,103,1644868112
75,14,18,Jits_Linear_8,2,5,80,127,1644907976
75,14,18,Jits_Linear_8,3,1,48,48,1644935676
75,14,18,Jits_Linear_8,0,5,63,98,1645357516
75,14,18,Jits_Linear_8,1,5,80,127,1645388164
75,14,18,Jits_Linear_8,2,1,48,48,1645389880
75,14,18,Jits_Linear_8,3,5,56,103,1645407644
75,14,18,Jits_Linear_8,0,5,80,127,1645827372
75,14,18,Jits_Linear_8,1,1,48,47,1645865616
75,14,18,Jits_Linear_8,2,5,56,103,1645877720
75,14,18,Jits_Linear_8,3,5,63,98,1645938036
75,14,18,Jits_Linear_8,0,5,63,98,1646307956
75,14,18,Jits_Linear_8,1,1,48,47,1646389596
75,14,18,Jits_Linear_8,2,5,56,103,1646427456
75,14,18,Jits_Linear_8,3,5,80,127,1646458104
75,14,18,Jits_Linear_8,0,5,80,127,1646838204
75,14,18,Jits_Linear_8,1,5,63,98,1646857544
75,14,18,Jits_Linear_8,2,5,56,103,1646928124
75,14,18,Jits_Linear_8,3,1,48,48,1646936492
75,14,18,Jits_Linear_8,0,5,63,98,1647348012
75,14,18,Jits_Linear_8,1,5,56,103,1647358356
75,14,18,Jits_Linear_8,2,5,80,127,1647438152
75,14,18,Jits_Linear_8,3,1,48,46,1647441344
75,14,18,Jits_Linear_8,0,5,56,103,1647898116
75,14,18,Jits_Linear_8,1,1,48,48,1647927116
75,14,18,Jits_Linear_8,2,5,80,127,1647928684
75,14,18,Jits_Linear_8,3,5,63,98,1647938056
75,14,18,Jits_Linear_8,0,9999,9999,9999,1537515644
75,14,18,Jits_Linear_8,1,9999,9999,9999,1538335852
75,14,18,Jits_Linear_8,2,9999,9999,9999,1539156032
75,14,18,Jits_Linear_8,3,9999,9999,9999,1539975236
75,14,18,Jits_Linear_8,4,9999,9999,9999,1540795480
75,14,18,Jits_Linear_8,5,9999,9999,9999,1541605500
75,14,18,Jits_Linear_8,6,9999,9999,9999,1542415440
75,14,18,Jits_Linear_8,7,9999,9999,9999,1543225400
75,14,18,Jits_Linear_8,8,9999,9999,9999,1544035436
75,14,18,Jits_Linear_8,9,9999,9999,9999,1544845372
75,14,18,Jits_Linear_8,10,9999,9999,9999,1545645164
75,14,18,Jits_Linear_8,11,9999,9999,9999,1546445892
75,14,18,Jits_Linear_8,12,9999,9999,9999,1547245664
75,14,18,Jits_Linear_8,13,9999,9999,9999,1548045432
75,14,18,Jits_Linear_8,14,9999,9999,9999,1548845176
75,14,18,Jits_Linear_8,15,9999,9999,9999,1549635644
75,14,18,Jits_Linear_8,16,9999,9999,9999,1550425196
75,14,18,Jits_Linear_8,17,9999,9999,9999,1551215680
75,14,18,Jits_Linear_8,18,9999,9999,9999,1552005176
75,14,18,Jits_Linear_8,19,9999,9999,9999,1552795748
75,14,18,Jits_Linear_8,20,9999,9999,9999,1553576020
75,14,18,Jits_Linear_8,21,9999,9999,9999,1554355320
75,14,18,Jits_Linear_8,22,9999,9999,9999,1555135604
75,14,18,Jits_Linear_8,23,9999,9999,9999,1555915892
75,14,18,Jits_Linear_8,24,9999,9999,9999,1556695120
75,14,18,Jits_Linear_8,25,9999,9999,9999,1557465204
75,14,18,Jits_Linear_8,26,9999,9999,9999,1558235232
75,14,18,Jits_Linear_8,27,9999,9999,9999,1559005260
75,14,18,Jits_Linear_8,28,9999,9999,9999,1559775360
75,14,18,Jits_Linear_8,29,9999,9999,9999,1560545396
75,14,18,Jits_Linear_8,30,9999,9999,9999,1561305212
75,14,18,Jits_Linear_8,31,9999,9999,9999,1562066008
75,14,18,Jits_Linear_8,32,9999,9999,9999,1562825840
75,14,18,Jits_Linear_8,33,9999,9999,9999,1563585596
75,14,18,Jits_Linear_8,34,9999,9999,9999,1564345432
75,14,18,Jits_Linear_8,35,9999,9999,9999,1565095992
75,14,18,Jits_Linear_8,36,9999,9999,9999,1565845560
75,14,18,Jits_Linear_8,37,9999,9999,9999,1566595184
75,14,18,Jits_Linear_8,38,9999,9999,9999,1567345720
75,14,18,Jits_Linear_8,39,9999,9999,9999,1568095296
75,14,18,Jits_Linear_8,40,9999,9999,9999,1568835660
75,14,18,Jits_Linear_8,41,9999,9999,9999,1569576016
75,14,18,Jits_Linear_8,42,9999,9999,9999,1570315384
75,14,18,Jits_Linear_8,43,9999,9999,9999,1571055728
75,14,18,Jits_Linear_8,44,9999,9999,9999,1571796056
75,14,18,Jits_Linear_8,45,9999,9999,9999,1572525172
75,14,18,Jits_Linear_8,46,9999,9999,9999,1573255244
75,14,18,Jits_Linear_8,47,9999,9999,9999,1573985400
75,14,18,Jits_Linear_8,48,9999,9999,9999,1574715496
75,14,18,Jits_Linear_8,49,9999,9999,9999,1575445584
75,14,18,Jits_Linear_8,50,9999,9999,9999,1576165476
75,14,18,Jits_Linear_8,51,9999,9999,9999,1576885308
75,14,18,Jits_Linear_8,52,9999,9999,9999,1577605248
75,14,18,Jits_Linear_8,53,9999,9999,9999,1578326108
75,14,18,Jits_Linear_8,54,9999,9999,9999,1579055212
75,14,18,Jits_Linear_8,55,9999,9999,9999,1579765824
75,14,18,Jits_Linear_8,56,9999,9999,9999,1580475448
75,14,18,Jits_Linear_8,57,9999,9999,9999,1581185136
75,14,18,Jits_Linear_8,58,9999,9999,9999,1581895748
75,14,18,Jits_Linear_8,59,9999,9999,9999,1582605388
75,14,18,Jits_Linear_8,60,9999,9999,9999,1583305788
75,14,18,Jits_Linear_8,61,9999,9999,9999,1584005220
75,14,18,Jits_Linear_8,62,9999,9999,9999,1584705636
75,14,18,Jits_Linear_8,63,9999,9999,9999,1585406040
75,14,18,Jits_Linear_8,64,9999,9999,9999,1586105424
75,14,18,Jits_Linear_8,65,9999,9999,9999,1586795624
75,14,18,Jits_Linear_8,66,9999,9999,9999,1587485792
75,14,18,Jits_Linear_8,67,9999,9999,9999,1588175948
75,14,18,Jits_Linear_8,68,9999,9999,9999,1588865100
75,14,18,Jits_Linear_8,69,9999,9999,9999,1589555260
75,14,18,Jits_Linear_8,70,9999,9999,9999,1590235228
75,14,18,Jits_Linear_8,71,9999,9999,9999,1590915168
75,14,18,Jits_Linear_8,72,9999,9999,9999,1591595116
75,14,18,Jits_Linear_8,73,9999,9999,9999,1592276064
75,14,18,Jits_Linear_8,74,9999,9999,9999,1592956016
75,14,18,Jits_Linear_8,75,9999,9999,9999,1593625716
75,14,18,Jits_Linear_8,76,9999,9999,9999,1594295424
75,14,18,Jits_Linear_8,77,9999,9999,9999,1594966084
75,14,18,Jits_Linear_8,78,9999,9999,9999,1595646048
75,14,18,Jits_Linear_8,79,9999,9999,9999,1596315760
75,14,18,Jits_Linear_8,80,9999,9999,9999,1596975172
75,14,18,Jits_Linear_8,81,9999,9999,9999,1597635648
75,14,18,Jits_Linear_8,82,9999,9999,9999,1598295128
75,14,18,Jits_Linear_8,83,9999,9999,9999,1598955604
75,14,18,Jits_Linear_8,84,9999,9999,9999,1599616068
75,14,18,Jits_Linear_8,85,9999,9999,9999,1600275512
75,14,18,Jits_Linear_8,86,9999,9999,9999,1600925816
75,14,18,Jits_Linear_8,87,9999,9999,9999,1601576004
75,14,18,Jits_Linear_8,88,9999,9999,9999,1602225240
75,14,18,Jits_Linear_8,89,9999,9999,9999,1602875512
75,14,18,Jits_Linear_8,90,9999,9999,9999,1603515468
75,14,18,Jits_Linear_8,91,9999,9999,9999,1604155480
75,14,18,Jits_Linear_8,92,9999,9999,9999,1604795452
75,14,18,Jits_Linear_8,93,9999,9999,9999,1605435520
75,14,18,Jits_Linear_8,94,9999,9999,9999,1606075472
75,14,18,Jits_Linear_8,95,9999,9999,9999,1606705220
75,14,18,Jits_Linear_8,96,9999,9999,9999,1607336044
75,14,18,Jits_Linear_8,97,9999,9999,9999,1607965784
75,14,18,Jits_Linear_8,98,9999,9999,9999,1608595564
75,14,18,Jits_Linear_8,99,9999,9999,9999,1609225320
75,14,18,Jits_Linear_8,100,9999,9999,9999,1609845844
75,14,18,Jits_Linear_8,101,9999,9999,9999,1610465348
75,14,18,Jits_Linear_8,102,9999,9999,9999,1611085952
75,14,18,Jits_Linear_8,103,9999,9999,9999,1611705464
75,14,18,Jits_Linear_8,104,9999,9999,9999,1612326000
75,14,18,Jits_Linear_8,105,9999,9999,9999,1612935296
75,14,18,Jits_Linear_8,106,9999,9999,9999,1613545564
75,14,18,Jits_Linear_8,107,9999,9999,9999,1614155880
75,14,18,Jits_Linear_8,108,9999,9999,9999,1614765120
75,14,18,Jits_Linear_8,109,9999,9999,9999,1615375452
75,14,18,Jits_Linear_8,110,9999,9999,9999,1615975540
75,14,18,Jits_Linear_8,111,9999,9999,9999,1616575560
75,14,18,Jits_Linear_8,112,9999,9999,9999,1617175640
75,14,18,Jits_Linear_8,113,9999,9999,9999,1617775720
75,14,18,Jits_Linear_8,114,9999,9999,9999,1618375760
75,14,18,Jits_Linear_8,115,9999,9999,9999,1618965564
75,14,18,Jits_Linear_8,116,9999,9999,9999,1619555388
75,14,18,Jits_Linear_8,117,9999,9999,9999,1620145244
75,14,18,Jits_Linear_8,118,9999,9999,9999,1620736112
75,14,18,Jits_Linear_8,119,9999,9999,9999,1621335144
75,14,18,Jits_Linear_8,120,9999,9999,9999,1621915768
75,14,18,Jits_Linear_8,121,9999,9999,9999,1622495316
75,14,18,Jits_Linear_8,122,9999,9999,9999,1623075900
75,14,18,Jits_Linear_8,123,9999,9999,9999,1623655512
75,14,18,Jits_Linear_8,124,9999,9999,9999,1624235084
75,14,18,Jits_Linear_8,125,9999,9999,9999,1624805472
75,14,18,Jits_Linear_8,126,9999,9999,9999,1625375808
75,14,18,Jits_Linear_8,127,9999,9999,9999,1625945168
75,14,18,Jits_Linear_8,128,9999,9999,9999,1626515516
75,14,18,Jits_Linear_8,129,9999,9999,9999,1627085932
75,14,18,Jits_Linear_8,130,9999,9999,9999,1627646020
75,14,18,Jits_Linear_8,131,9999,9999,9999,1628205124
75,14,18,Jits_Linear_8,132,9999,9999,9999,1628765272
75,14,18,Jits_Linear_8,133,9999,9999,9999,1629325384
75,14,18,Jits_Linear_8,134,9999,9999,9999,1629885536
75,14,18,Jits_Linear_8,135,9999,9999,9999,1630435400
75,14,18,Jits_Linear_8,136,9999,9999,9999,1630985272
75,14,18,Jits_Linear_8,137,9999,9999,9999,1631535164
75,14,18,Jits_Linear_8,138,9999,9999,9999,1632086104
75,14,18,Jits_Linear_8,139,9999,9999,9999,1632645208
75,14,18,Jits_Linear_8,140,9999,9999,9999,1633185884
75,14,18,Jits_Linear_8,141,9999,9999,9999,1633725496
75,14,18,Jits_Linear_8,142,9999,9999,9999,1634265188
75,14,18,Jits_Linear_8,143,9999,9999,9999,1634805852
75,14,18,Jits_Linear_8,144,9999,9999,9999,1635345532
75,14,18,Jits_Linear_8,145,9999,9999,9999,1635875936
75,14,18,Jits_Linear_8,146,9999,9999,9999,1636405360
75,14,18,Jits_Linear_8,147,9999,9999,9999,1636935752
75,14,18,Jits_Linear_8,148,9999,9999,9999,1637465180
75,14,18,Jits_Linear_8,149,9999,9999,9999,1637995648
75,14,18,Jits_Linear_8,150,9999,9999,9999,1638515788
75,14,18,Jits_Linear_8,151,9999,9999,9999,1639036008
75,14,18,Jits_Linear_8,152,9999,9999,9999,1639555180
75,14,18,Jits_Linear_8,153,9999,9999,9999,1640075344
75,14,18,Jits_Linear_8,154,9999,9999,9999,1640595556
75,14,18,Jits_Linear_8,155,9999,9999,9999,1641105500
75,14,18,Jits_Linear_8,156,9999,9999,9999,1641615456
75,14,18,Jits_Linear_8,157,9999,9999,9999,1642125396
75,14,18,Jits_Linear_8,158,9999,9999,9999,1642635340
75,14,18,Jits_Linear_8,159,9999,9999,9999,1643145296
75,14,18,Jits_Linear_8,160,9999,9999,9999,1643646016
75,14,18,Jits_Linear_8,161,9999,9999,9999,1644145764
75,14,18,Jits_Linear_8,162,9999,9999,9999,1644645448
75,14,18,Jits_Linear_8,163,9999,9999,9999,1645145196
75,14,18,Jits_Linear_8,164,9999,9999,9999,1645645920
75,14,18,Jits_Linear_8,165,9999,9999,9999,1646135412
75,14,18,Jits_Linear_8,166,9999,9999,9999,1646625884
75,14,18,Jits_Linear_8,167,9999,9999,9999,1647115376
75,14,18,Jits_Linear_8,168,9999,9999,9999,1647605852
75,14,18,Jits_Linear_8,169,9999,9999,9999,1648095352
75,15,19,Jits_Linear_5,0,5,56,103,1656792392
75,15,19,Jits_Linear_5,1,5,63,98,1656795412
75,15,19,Jits_Linear_5,2,5,80,127,1656798760
75,15,19,Jits_Linear_5,0,5,56,103,1657272856
75,15,19,Jits_Linear_5,1,5,63,98,1657276028
75,15,19,Jits_Linear_5,2,5,80,127,1657279072
75,15,19,Jits_Linear_5,0,5,56,103,1657752956
75,15,19,Jits_Linear_5,1,5,80,127,1657763152
75,15,19,Jits_Linear_5,2,5,63,98,1657782792
75,15,19,Jits_Linear_5,0,5,63,98,1658183068
75,15,19,Jits_Linear_5,1,5,80,127,1658212744
75,15,19,Jits_Linear_5,2,5,56,103,1658222940
75,15,19,Jits_Linear_5,0,1,48,86,1658673088
75,15,19,Jits_Linear_5,1,5,80,127,1658722640
75,15,19,Jits_Linear_5,2,5,56,103,1658732912
75,15,19,Jits_Linear_5,3,5,63,98,1658762836
75,15,19,Jits_Linear_5,0,1,48,79,1659190308
75,15,19,Jits_Linear_5,1,5,63,98,1659203004
75,15,19,Jits_Linear_5,2,5,56,103,1659232608
75,15,19,Jits_Linear_5,3,5,80,127,1659242804
75,15,19,Jits_Linear_5,0,5,56,103,1659643140
75,15,19,Jits_Linear_5,1,1,48,79,1659689184
75,15,19,Jits_Linear_5,2,5,63,98,1659693636
75,15,19,Jits_Linear_5,3,5,80,127,1659712824
75,15,19,Jits_Linear_5,0,5,80,127,1660132728
75,15,19,Jits_Linear_5,1,1,48,81,1660160432
75,15,19,Jits_Linear_5,2,5,63,98,1660182776
75,15,19,Jits_Linear_5,3,5,56,103,1660222788
75,15,19,Jits_Linear_5,0,5,56,103,1660623364
75,15,19,Jits_Linear_5,1,5,63,98,1660652892
75,15,19,Jits_Linear_5,2,1,48,86,1660667544
75,15,19,Jits_Linear_5,3,5,80,127,1660722640
75,15,19,Jits_Linear_5,0,5,56,103,1661112652
75,15,19,Jits_Linear_5,1,1,48,82,1661139512
75,15,19,Jits_Linear_5,2,5,80,127,1661173112
75,15,19,Jits_Linear_5,3,5,63,98,1661202864
75,15,19,Jits_Linear_5,0,5,56,103,1661613700
75,15,19,Jits_Linear_5,1,5,63,98,1661622556
75,15,19,Jits_Linear_5,2,1,48,81,1661638928
75,15,19,Jits_Linear_5,3,5,80,127,1661662636
75,15,19,Jits_Linear_5,0,5,63,98,1662102988
75,15,19,Jits_Linear_5,1,1,48,82,1662107156
75,15,19,Jits_Linear_5,2,5,80,127,1662182856
75,15,19,Jits_Linear_5,3,5,56,103,1662193200
75,15,19,Jits_Linear_5,0,1,48,73,1662640096
75,15,19,Jits_Linear_5,1,5,63,98,1662652720
75,15,19,Jits_Linear_5,2,5,56,103,1662692660
75,15,19,Jits_Linear_5,3,5,80,127,1662695800
75,15,19,Jits_Linear_5,0,5,56,103,1663112700
75,15,19,Jits_Linear_5,1,5,63,98,1663122896
75,15,19,Jits_Linear_5,2,1,48,75,1663155832
75,15,19,Jits_Linear_5,3,5,80,127,1663162604
75,15,19,Jits_Linear_5,0,5,56,103,1663602928
75,15,19,Jits_Linear_5,1,5,63,98,1663606148
75,15,19,Jits_Linear_5,2,5,80,127,1663622568
75,15,19,Jits_Linear_5,3,1,48,70,1663633660
75,15,19,Jits_Linear_5,0,1,48,73,1664105588
75,15,19,Jits_Linear_5,1,5,80,127,1664123368
75,15,19,Jits_Linear_5,2,5,56,103,1664132444
75,15,19,Jits_Linear_5,3,5,63,98,1664203184
75,15,19,Jits_Linear_5,0,5,63,98,1664622988
75,15,19,Jits_Linear_5,1,1,48,71,1664624548
75,15,19,Jits_Linear_5,2,5,56,103,1664642620
75,15,19,Jits_Linear_5,3,5,80,127,1664723396
75,15,19,Jits_Linear_5,0,5,56,103,1665143128
75,15,19,Jits_Linear_5,1,1,48,65,1665151796
75,15,19,Jits_Linear_5,2,5,80,127,1665183012
75,15,19,Jits_Linear_5,3,5,63,98,1665193284
75,15,19,Jits_Linear_5,0,5,80,127,1665642756
75,15,19,Jits_Linear_5,1,1,48,67,1665647440
75,15,19,Jits_Linear_5,2,5,63,98,1665672524
75,15,19,Jits_Linear_5,3,5,56,103,1665712688
75,15,19,Jits_Linear_5,0,1,48,66,1666149608
75,15,19,Jits_Linear_5,1,5,56,103,1666173540
75,15,19,Jits_Linear_5,2,5,63,98,1666203092
75,15,19,Jits_Linear_5,3,5,80,127,1666253356
75,15,19,Jits_Linear_5,0,1,48,65,1666651336
75,15,19,Jits_Linear_5,1,5,80,127,1666683420
75,15,19,Jits_Linear_5,2,5,56,103,1666723160
75,15,19,Jits_Linear_5,3,5,63,98,1666733580
75,15,19,Jits_Linear_5,0,5,80,127,1667182964
75,15,19,Jits_Linear_5,1,1,48,63,1667200552
75,15,19,Jits_Linear_5,2,5,63,98,1667222848
75,15,19,Jits_Linear_5,3,5,56,103,1667283464
75,15,19,Jits_Linear_5,0,5,56,103,1667703268
75,15,19,Jits_Linear_5,1,1,48,65,1667708556
75,15,19,Jits_Linear_5,2,5,80,127,1667713460
75,15,19,Jits_Linear_5,3,5,63,98,1667793208
75,15,19,Jits_Linear_5,0,5,80,127,1668232588
75,15,19,Jits_Linear_5,1,1,48,68,1668246420
75,15,19,Jits_Linear_5,2,5,63,98,1668292980
75,15,19,Jits_Linear_5,3,5,56,103,1668322580
75,15,19,Jits_Linear_5,0,5,56,103,1668752744
75,15,19,Jits_Linear_5,1,1,48,67,1668772952
75,15,19,Jits_Linear_5,2,5,80,127,1668813280
75,15,19,Jits_Linear_5,3,5,63,98,1668853148
75,15,19,Jits_Linear_5,0,1,48,67,1669280804
75,15,19,Jits_Linear_5,1,5,56,103,1669333436
75,15,19,Jits_Linear_5,2,5,63,98,1669342584
75,15,19,Jits_Linear_5,3,5,80,127,1669345948
75,15,19,Jits_Linear_5,0,5,80,127,1669812592
75,15,19,Jits_Linear_5,1,1,48,66,1669825824
75,15,19,Jits_Linear_5,2,5,63,98,1669902572
75,15,19,Jits_Linear_5,3,5,56,103,1669912992
75,15,19,Jits_Linear_5,0,5,56,103,1670343144
75,15,19,Jits_Linear_5,1,5,63,98,1670346168
75,15,19,Jits_Linear_5,2,5,80,127,1670349288
75,15,19,Jits_Linear_5,3,1,48,58,1670394152
75,15,19,Jits_Linear_5,0,1,48,62,1670880652
75,15,19,Jits_Linear_5,1,5,80,127,1670892808
75,15,19,Jits_Linear_5,2,5,63,98,1670943164
75,15,19,Jits_Linear_5,3,5,56,103,1670972916
75,15,19,Jits_Linear_5,0,5,56,103,1671402920
75,15,19,Jits_Linear_5,1,5,80,127,1671413188
75,15,19,Jits_Linear_5,2,1,48,62,1671447468
75,15,19,Jits_Linear_5,3,5,63,98,1671482716
75,15,19,Jits_Linear_5,0,5,56,103,1671942480
75,15,19,Jits_Linear_5,1,5,63,98,1671962868
75,15,19,Jits_Linear_5,2,1,48,62,1671976472
75,15,19,Jits_Linear_5,3,5,80,127,1672023476
75,15,19,Jits_Linear_5,0,5,80,127,1672472900
75,15,19,Jits_Linear_5,1,1,48,66,1672474460
75,15,19,Jits_Linear_5,2,5,63,98,1672542580
75,15,19,Jits_Linear_5,3,5,56,103,1672563036
75,15,19,Jits_Linear_5,0,5,80,127,1673033288
75,15,19,Jits_Linear_5,1,1,48,61,1673042056
75,15,19,Jits_Linear_5,2,5,56,103,1673043700
75,15,19,Jits_Linear_5,3,5,63,98,1673052476
75,15,19,Jits_Linear_5,0,1,48,59,1673559244
75,15,19,Jits_Linear_5,1,5,80,127,1673562424
75,15,19,Jits_Linear_5,2,5,56,103,1673582884
75,15,19,Jits_Linear_5,3,5,63,98,1673652652
75,15,19,Jits_Linear_5,0,5,56,103,1674113440
75,15,19,Jits_Linear_5,1,1,48,55,1674114924
75,15,19,Jits_Linear_5,2,5,80,127,1674143208
75,15,19,Jits_Linear_5,3,5,63,98,1674162624
75,15,19,Jits_Linear_5,0,1,48,59,1674640864
75,15,19,Jits_Linear_5,1,5,63,98,1674653168
75,15,19,Jits_Linear_5,2,5,56,103,1674712368
75,15,19,Jits_Linear_5,3,5,80,127,1674743444
75,15,19,Jits_Linear_5,0,1,48,54,1675199796
75,15,19,Jits_Linear_5,1,5,63,98,1675203124
75,15,19,Jits_Linear_5,2,5,80,127,1675206416
75,15,19,Jits_Linear_5,3,5,56,103,1675294216
75,15,19,Jits_Linear_5,0,1,48,55,1675752080
75,15,19,Jits_Linear_5,1,5,56,103,1675773308
75,15,19,Jits_Linear_5,2,5,63,98,1675803136
75,15,19,Jits_Linear_5,3,5,80,127,1675843000
75,15,19,Jits_Linear_5,0,1,48,53,1676320160
75,15,19,Jits_Linear_5,1,5,63,98,1676323416
75,15,19,Jits_Linear_5,2,5,56,103,1676363208
75,15,19,Jits_Linear_5,3,5,80,127,1676382472
75,15,19,Jits_Linear_5,0,1,48,54,1676866908
75,15,19,Jits_Linear_5,1,5,63,98,1676883492
75,15,19,Jits_Linear_5,2,5,56,103,1676923284
75,15,19,Jits_Linear_5,3,5,80,127,1676932436
75,15,19,Jits_Linear_5,0,5,80,127,1677412712
75,15,19,Jits_Linear_5,1,1,48,67,1677413972
75,15,19,Jits_Linear_5,2,5,63,98,1677483240
75,15,19,Jits_Linear_5,3,5,56,103,1677502872
75,15,19,Jits_Linear_5,0,5,56,103,1677962560
75,15,19,Jits_Linear_5,1,5,80,127,1677983172
75,15,19,Jits_Linear_5,2,1,48,60,1677997676
75,15,19,Jits_Linear_5,3,5,63,98,1678023108
75,15,19,Jits_Linear_5,0,1,48,58,1678516540
75,15,19,Jits_Linear_5,1,5,63,98,1678532980
75,15,19,Jits_Linear_5,2,5,80,127,1678552316
75,15,19,Jits_Linear_5,3,5,56,103,1678593376
75,15,19,Jits_Linear_5,0,1,48,55,1679073396
75,15,19,Jits_Linear_5,1,5,63,98,1679093196
75,15,19,Jits_Linear_5,2,5,56,103,1679112536
75,15,19,Jits_Linear_5,3,5,80,127,1679122656
75,15,19,Jits_Linear_5,0,1,48,59,1679639220
75,15,19,Jits_Linear_5,1,5,80,127,1679653192
75,15,19,Jits_Linear_5,2,5,56,103,1679672828
75,15,19,Jits_Linear_5,3,5,63,98,1679703476
75,15,19,Jits_Linear_5,0,1,48,66,1680220508
75,15,19,Jits_Linear_5,1,5,56,103,1680293300
75,15,19,Jits_Linear_5,2,5,80,127,1680296296
75,15,19,Jits_Linear_5,3,5,63,98,1680312640
75,15,19,Jits_Linear_5,0,5,63,98,1680782648
75,15,19,Jits_Linear_5,1,5,56,103,1680813448
75,15,19,Jits_Linear_5,2,1,48,56,1680837844
75,15,19,Jits_Linear_5,3,5,80,127,1680873008
75,15,19,Jits_Linear_5,0,1,48,59,1681345608
75,15,19,Jits_Linear_5,1,5,63,98,1681433072
75,15,19,Jits_Linear_5,2,5,56,103,1681443404
75,15,19,Jits_Linear_5,3,5,80,127,1681453376
75,15,19,Jits_Linear_5,0,5,56,103,1681953368
75,15,19,Jits_Linear_5,1,1,48,58,1681967872
75,15,19,Jits_Linear_5,2,5,80,127,1681982740
75,15,19,Jits_Linear_5,3,5,63,98,1681993160
75,15,19,Jits_Linear_5,0,1,48,51,1682513424
75,15,19,Jits_Linear_5,1,5,63,98,1682562376
75,15,19,Jits_Linear_5,2,5,56,103,1682572524
75,15,19,Jits_Linear_5,3,5,80,127,1682593204
75,15,19,Jits_Linear_5,0,5,56,103,1683063336
75,15,19,Jits_Linear_5,1,1,48,53,1683104168
75,15,19,Jits_Linear_5,2,5,63,98,1683122476
75,15,19,Jits_Linear_5,3,5,80,127,1683125764
75,15,19,Jits_Linear_5,0,1,48,54,1683647148
75,15,19,Jits_Linear_5,1,5,80,127,1683663216
75,15,19,Jits_Linear_5,2,5,56,103,1683672368
75,15,19,Jits_Linear_5,3,5,63,98,1683743152
75,15,19,Jits_Linear_5,0,5,80,127,1684232512
75,15,19,Jits_Linear_5,1,1,48,55,1684258324
75,15,19,Jits_Linear_5,2,5,56,103,1684303164
75,15,19,Jits_Linear_5,3,5,63,98,1684312312
75,15,19,Jits_Linear_5,0,1,48,56,1684811376
75,15,19,Jits_Linear_5,1,5,63,98,1684853056
75,15,19,Jits_Linear_5,2,5,56,103,1684863252
75,15,19,Jits_Linear_5,3,5,80,127,1684882764
75,15,19,Jits_Linear_5,0,1,48,53,1685378404
75,15,19,Jits_Linear_5,1,5,80,127,1685382804
75,15,19,Jits_Linear_5,2,5,63,98,1685443052
75,15,19,Jits_Linear_5,3,5,56,103,1685482976
75,15,19,Jits_Linear_5,0,1,48,47,1685968320
75,15,19,Jits_Linear_5,1,5,56,103,1686013236
75,15,19,Jits_Linear_5,2,5,63,98,1686022536
75,15,19,Jits_Linear_5,3,5,80,127,1686062476
75,15,19,Jits_Linear_5,0,5,56,103,1686563124
75,15,19,Jits_Linear_5,1,1,48,55,1686565492
75,15,19,Jits_Linear_5,2,5,80,127,1686593240
75,15,19,Jits_Linear_5,3,5,63,98,1686643216
75,15,19,Jits_Linear_5,0,1,48,49,1687181196
75,15,19,Jits_Linear_5,1,5,56,103,1687192904
75,15,19,Jits_Linear_5,2,5,63,98,1687232920
75,15,19,Jits_Linear_5,3,5,80,127,1687236284
75,15,19,Jits_Linear_5,0,1,48,56,1687778784
75,15,19,Jits_Linear_5,1,5,56,103,1687782716
75,15,19,Jits_Linear_5,2,5,63,98,1687793212
75,15,19,Jits_Linear_5,3,5,80,127,1687812328
75,15,19,Jits_Linear_5,0,5,56,103,1688332680
75,15,19,Jits_Linear_5,1,5,80,127,1688335596
75,15,19,Jits_Linear_5,2,1,48,46,1688362176
75,15,19,Jits_Linear_5,3,5,63,98,1688372536
75,15,19,Jits_Linear_5,0,1,48,49,1688927552
75,15,19,Jits_Linear_5,1,5,63,98,1688962424
75,15,19,Jits_Linear_5,2,5,56,103,1688993024
75,15,19,Jits_Linear_5,3,5,80,127,1689012736
75,15,19,Jits_Linear_5,0,5,80,127,1689532792
75,15,19,Jits_Linear_5,1,1,48,50,1689541248
75,15,19,Jits_Linear_5,2,5,56,103,1689542984
75,15,19,Jits_Linear_5,3,5,63,98,1689553400
75,15,19,Jits_Linear_5,0,1,48,47,1690115096
75,15,19,Jits_Linear_5,1,5,56,103,1690132952
75,15,19,Jits_Linear_5,2,5,80,127,1690172744
75,15,19,Jits_Linear_5,3,5,63,98,1690202420
75,15,19,Jits_Linear_5,0,5,63,98,1690743152
75,15,19,Jits_Linear_5,1,1,48,52,1690747316
75,15,19,Jits_Linear_5,2,5,80,127,1690753340
75,15,19,Jits_Linear_5,3,5,56,103,1690762740
75,15,19,Jits_Linear_5,0,5,56,103,1691322800
75,15,19,Jits_Linear_5,1,1,48,54,1691355964
75,15,19,Jits_Linear_5,2,5,63,98,1691393528
75,15,19,Jits_Linear_5,3,5,80,127,1691402752
75,15,19,Jits_Linear_5,0,5,80,127,1691933012
75,15,19,Jits_Linear_5,1,5,56,103,1691943212
75,15,19,Jits_Linear_5,2,1,48,57,1691949020
75,15,19,Jits_Linear_5,3,5,63,98,1691992360
75,15,19,Jits_Linear_5,0,5,80,127,1692552536
75,15,19,Jits_Linear_5,1,1,48,57,1692569960
75,15,19,Jits_Linear_5,2,5,56,103,1692613072
75,15,19,Jits_Linear_5,3,5,63,98,1692642528
75,15,19,Jits_Linear_5,0,5,56,103,1693163116
75,15,19,Jits_Linear_5,1,5,80,127,1693166036
75,15,19,Jits_Linear_5,2,1,48,63,1693198896
75,15,19,Jits_Linear_5,3,5,63,98,1693203048
75,15,19,Jits_Linear_5,0,1,48,65,1693764516
75,15,19,Jits_Linear_5,1,5,56,103,1693802984
75,15,19,Jits_Linear_5,2,5,63,98,1693832536
75,15,19,Jits_Linear_5,3,5,80,127,1693842956
75,15,19,Jits_Linear_5,0,1,48,70,1694378036
75,15,19,Jits_Linear_5,1,5,63,98,1694423544
75,15,19,Jits_Linear_5,2,5,80,127,1694432768
75,15,19,Jits_Linear_5,3,5,56,103,1694442964
75,15,19,Jits_Linear_5,0,5,80,127,1694982500
75,15,19,Jits_Linear_5,1,1,48,66,1694985548
75,15,19,Jits_Linear_5,2,5,56,103,1695032624
75,15,19,Jits_Linear_5,3,5,63,98,1695035912
75,15,19,Jits_Linear_5,0,1,48,62,1695609584
75,15,19,Jits_Linear_5,1,5,56,103,1695632800
75,15,19,Jits_Linear_5,2,5,80,127,1695653332
75,15,19,Jits_Linear_5,3,5,63,98,1695662408
75,15,19,Jits_Linear_5,0,1,48,65,1696226852
75,15,19,Jits_Linear_5,1,5,63,98,1696233100
75,15,19,Jits_Linear_5,2,5,56,103,1696262408
75,15,19,Jits_Linear_5,3,5,80,127,1696283164
75,15,19,Jits_Linear_5,0,1,48,70,1696852340
75,15,19,Jits_Linear_5,1,5,56,103,1696862480
75,15,19,Jits_Linear_5,2,5,80,127,1696872896
75,15,19,Jits_Linear_5,3,5,63,98,1696942308
75,15,19,Jits_Linear_5,0,5,63,98,1697473076
75,15,19,Jits_Linear_5,1,1,48,61,1697496128
75,15,19,Jits_Linear_5,2,5,80,127,1697512788
75,15,19,Jits_Linear_5,3,5,56,103,1697552876
75,15,19,Jits_Linear_5,0,1,48,55,1698108032
75,15,19,Jits_Linear_5,1,5,56,103,1698112860
75,15,19,Jits_Linear_5,2,5,63,98,1698123056
75,15,19,Jits_Linear_5,3,5,80,127,1698142620
75,15,19,Jits_Linear_5,0,1,48,55,1698714208
75,15,19,Jits_Linear_5,1,5,63,98,1698782644
75,15,19,Jits_Linear_5,2,5,80,127,1698803028
75,15,19,Jits_Linear_5,3,5,56,103,1698822428
75,15,19,Jits_Linear_5,0,5,56,103,1699353060
75,15,19,Jits_Linear_5,1,1,48,59,1699393344
75,15,19,Jits_Linear_5,2,5,80,127,1699432780
75,15,19,Jits_Linear_5,3,5,63,98,1699443052
75,15,19,Jits_Linear_5,0,1,48,64,1700022336
75,15,19,Jits_Linear_5,1,5,80,127,1700023820
75,15,19,Jits_Linear_5,2,5,63,98,1700033044
75,15,19,Jits_Linear_5,3,5,56,103,1700062720
75,15,19,Jits_Linear_5,0,5,63,98,1700612520
75,15,19,Jits_Linear_5,1,1,48,59,1700646728
75,15,19,Jits_Linear_5,2,5,80,127,1700653356
75,15,19,Jits_Linear_5,3,5,56,103,1700712772
75,15,19,Jits_Linear_5,0,5,63,98,1701252612
75,15,19,Jits_Linear_5,1,1,48,58,1701278300
75,15,19,Jits_Linear_5,2,5,56,103,1701302908
75,15,19,Jits_Linear_5,3,5,80,127,1701333332
75,15,19,Jits_Linear_5,0,1,48,60,1701889460
75,15,19,Jits_Linear_5,1,5,80,127,1701902832
75,15,19,Jits_Linear_5,2,5,63,98,1701912956
75,15,19,Jits_Linear_5,3,5,56,103,1701983144
75,15,19,Jits_Linear_5,0,1,48,66,1702556032
75,15,19,Jits_Linear_5,1,5,80,127,1702613524
75,15,19,Jits_Linear_5,2,5,56,103,1702622524
75,15,19,Jits_Linear_5,3,5,63,98,1702625816
75,15,19,Jits_Linear_5,0,5,56,103,1703193076
75,15,19,Jits_Linear_5,1,5,80,127,1703213392
75,15,19,Jits_Linear_5,2,5,63,98,1703222912
75,15,19,Jits_Linear_5,3,1,48,71,1703243416
75,15,19,Jits_Linear_5,0,1,48,66,1703834752
75,15,19,Jits_Linear_5,1,5,63,98,1703843168
75,15,19,Jits_Linear_5,2,5,56,103,1703883036
75,15,19,Jits_Linear_5,3,5,80,127,1703902520
75,15,19,Jits_Linear_5,0,1,48,61,1704463232
75,15,19,Jits_Linear_5,1,5,63,98,1704493524
75,15,19,Jits_Linear_5,2,5,56,103,1704553020
75,15,19,Jits_Linear_5,3,5,80,127,1704556012
75,15,19,Jits_Linear_5,0,5,56,103,1705102920
75,15,19,Jits_Linear_5,1,1,48,68,1705123304
75,15,19,Jits_Linear_5,2,5,80,127,1705124716
75,15,19,Jits_Linear_5,3,5,63,98,1705163160
75,15,19,Jits_Linear_5,0,1,48,67,1705745832
75,15,19,Jits_Linear_5,1,5,56,103,1705782648
75,15,19,Jits_Linear_5,2,5,63,98,1705803184
75,15,19,Jits_Linear_5,3,5,80,127,1705813380
75,15,19,Jits_Linear_5,0,1,48,67,1706400172
75,15,19,Jits_Linear_5,1,5,80,127,1706403204
75,15,19,Jits_Linear_5,2,5,56,103,1706432956
75,15,19,Jits_Linear_5,3,5,63,98,1706472896
75,15,19,Jits_Linear_5,0,1,48,64,1707049248
75,15,19,Jits_Linear_5,1,5,80,127,1707062916
75,15,19,Jits_Linear_5,2,5,56,103,1707083228
75,15,19,Jits_Linear_5,3,5,63,98,1707142672
75,15,19,Jits_Linear_5,0,1,48,58,1707704052
75,15,19,Jits_Linear_5,1,5,56,103,1707723108
75,15,19,Jits_Linear_5,2,5,80,127,1707742896
75,15,19,Jits_Linear_5,3,5,63,98,1707802900
75,15,19,Jits_Linear_5,0,5,80,127,1708363128
75,15,19,Jits_Linear_5,1,5,56,103,1708373548
75,15,19,Jits_Linear_5,2,1,48,61,1708408956
75,15,19,Jits_Linear_5,3,5,63,98,1708413260
75,15,19,Jits_Linear_5,0,5,63,98,1709022656
75,15,19,Jits_Linear_5,1,1,48,55,1709062896
75,15,19,Jits_Linear_5,2,5,56,103,1709064256
75,15,19,Jits_Linear_5,3,5,80,127,1709066924
75,15,19,Jits_Linear_5,0,1,48,75,1709684952
75,15,19,Jits_Linear_5,1,5,63,98,1709702608
75,15,19,Jits_Linear_5,2,5,80,127,1709742400
75,15,19,Jits_Linear_5,3,5,56,103,1709773196
75,15,19,Jits_Linear_5,0,5,56,103,1710352892
75,15,19,Jits_Linear_5,1,5,63,98,1710362944
75,15,19,Jits_Linear_5,2,1,48,62,1710378936
75,15,19,Jits_Linear_5,3,5,80,127,1710392832
75,15,19,Jits_Linear_5,0,5,80,127,1711013240
75,15,19,Jits_Linear_5,1,1,48,59,1711022212
75,15,19,Jits_Linear_5,2,5,63,98,1711082844
75,15,19,Jits_Linear_5,3,5,56,103,1711093044
75,15,19,Jits_Linear_5,0,5,63,98,1711682864
75,15,19,Jits_Linear_5,1,1,48,59,1711708384
75,15,19,Jits_Linear_5,2,5,56,103,1711752792
75,15,19,Jits_Linear_5,3,5,80,127,1711762764
75,15,19,Jits_Linear_5,0,5,63,98,1712352796
75,15,19,Jits_Linear_5,1,1,48,53,1712368724
75,15,19,Jits_Linear_5,2,5,56,103,1712373028
75,15,19,Jits_Linear_5,3,5,80,127,1712412968
75,15,19,Jits_Linear_5,0,1,48,48,1713027008
75,15,19,Jits_Linear_5,1,5,56,103,1713032536
75,15,19,Jits_Linear_5,2,5,63,98,1713042808
75,15,19,Jits_Linear_5,3,5,80,127,1713122752
75,15,19,Jits_Linear_5,0,5,63,98,1713693156
75,15,19,Jits_Linear_5,1,1,48,49,1713696724
75,15,19,Jits_Linear_5,2,5,56,103,1713722752
75,15,19,Jits_Linear_5,3,5,80,127,1713762692
75,15,19,Jits_Linear_5,0,1,48,60,1714353840
75,15,19,Jits_Linear_5,1,5,56,103,1714362708
75,15,19,Jits_Linear_5,2,5,63,98,1714402576
75,15,19,Jits_Linear_5,3,5,80,127,1714442736
75,15,19,Jits_Linear_5,0,5,80,127,1715042736
75,15,19,Jits_Linear_5,1,1,48,63,1715068772
75,15,19,Jits_Linear_5,2,5,56,103,1715122776
75,15,19,Jits_Linear_5,3,5,63,98,1715132752
75,15,19,Jits_Linear_5,0,5,56,103,1715762728
75,15,19,Jits_Linear_5,1,5,63,98,1715765796
75,15,19,Jits_Linear_5,2,5,80,127,1715772776
75,15,19,Jits_Linear_5,3,1,48,64,1715791784
75,15,19,Jits_Linear_5,0,1,48,63,1716443280
75,15,19,Jits_Linear_5,1,5,56,103,1716462932
75,15,19,Jits_Linear_5,2,5,63,98,1716482492
75,15,19,Jits_Linear_5,3,5,80,127,1716492688
75,15,19,Jits_Linear_5,0,5,63,98,1717103100
75,15,19,Jits_Linear_5,1,5,80,127,1717113148
75,15,19,Jits_Linear_5,2,5,56,103,1717132732
75,15,19,Jits_Linear_5,3,1,48,67,1717143344
75,15,19,Jits_Linear_5,0,5,63,98,1717793112
75,15,19,Jits_Linear_5,1,1,48,67,1717806120
75,15,19,Jits_Linear_5,2,5,56,103,1717872976
75,15,19,Jits_Linear_5,3,5,80,127,1717876044
75,15,19,Jits_Linear_5,0,5,63,98,1718483488
75,15,19,Jits_Linear_5,1,5,56,103,1718502752
75,15,19,Jits_Linear_5,2,1,48,64,1718505420
75,15,19,Jits_Linear_5,3,5,80,127,1718532572
75,15,19,Jits_Linear_5,0,1,48,63,1719172204
75,15,19,Jits_Linear_5,1,5,56,103,1719173544
75,15,19,Jits_Linear_5,2,5,63,98,1719193032
75,15,19,Jits_Linear_5,3,5,80,127,1719203076
75,15,19,Jits_Linear_5,0,1,48,61,1719842380
75,15,19,Jits_Linear_5,1,5,56,103,1719893500
75,15,19,Jits_Linear_5,2,5,63,98,1719923024
75,15,19,Jits_Linear_5,3,5,80,127,1719926536
75,15,19,Jits_Linear_5,0,5,56,103,1720533532
75,15,19,Jits_Linear_5,1,1,48,62,1720570512
75,15,19,Jits_Linear_5,2,5,63,98,1720573320
75,15,19,Jits_Linear_5,3,5,80,127,1720632664
75,15,19,Jits_Linear_5,0,5,56,103,1721242892
75,15,19,Jits_Linear_5,1,5,63,98,1721253312
75,15,19,Jits_Linear_5,2,1,48,64,1721262952
75,15,19,Jits_Linear_5,3,5,80,127,1721312724
75,15,19,Jits_Linear_5,0,5,56,103,1721943380
75,15,19,Jits_Linear_5,1,1,48,56,1721947768
75,15,19,Jits_Linear_5,2,5,80,127,1721962860
75,15,19,Jits_Linear_5,3,5,63,98,1721992560
75,15,19,Jits_Linear_5,0,5,80,127,1722642696
75,15,19,Jits_Linear_5,1,5,56,103,1722653188
75,15,19,Jits_Linear_5,2,1,48,58,1722655704
75,15,19,Jits_Linear_5,3,5,63,98,1722672372
75,15,19,Jits_Linear_5,0,5,63,98,1723332940
75,15,19,Jits_Linear_5,1,1,48,66,1723359876
75,15,19,Jits_Linear_5,2,5,80,127,1723412956
75,15,19,Jits_Linear_5,3,5,56,103,1723423224
75,15,19,Jits_Linear_5,0,5,80,127,1724092856
75,15,19,Jits_Linear_5,1,5,56,103,1724113464
75,15,19,Jits_Linear_5,2,1,48,56,1724115124
75,15,19,Jits_Linear_5,3,5,63,98,1724117568
75,15,19,Jits_Linear_5,0,5,63,98,1724772736
75,15,19,Jits_Linear_5,1,5,80,127,1724776100
75,15,19,Jits_Linear_5,2,1,48,66,1724801040
75,15,19,Jits_Linear_5,3,5,56,103,1724833072
75,15,19,Jits_Linear_5,0,5,56,103,1725462892
75,15,19,Jits_Linear_5,1,5,80,127,1725473384
75,15,19,Jits_Linear_5,2,1,48,78,1725513176
75,15,19,Jits_Linear_5,3,5,63,98,1725514588
75,15,19,Jits_Linear_5,0,5,56,103,1726153064
75,15,19,Jits_Linear_5,1,1,48,72,1726175736
75,15,19,Jits_Linear_5,2,5,63,98,1726212552
75,15,19,Jits_Linear_5,3,5,80,127,1726222600
75,15,19,Jits_Linear_5,0,1,48,71,1726848048
75,15,19,Jits_Linear_5,1,5,63,98,1726872980
75,15,19,Jits_Linear_5,2,5,80,127,1726912996
75,15,19,Jits_Linear_5,3,5,56,103,1726952772
75,15,19,Jits_Linear_5,0,5,56,103,1727582528
75,15,19,Jits_Linear_5,1,1,48,78,1727595012
75,15,19,Jits_Linear_5,2,5,63,98,1727662420
75,15,19,Jits_Linear_5,3,5,80,127,1727665932
75,15,19,Jits_Linear_5,0,1,48,72,1728317384
75,15,19,Jits_Linear_5,1,5,80,127,1728352484
75,15,19,Jits_Linear_5,2,5,56,103,1728383356
75,15,19,Jits_Linear_5,3,5,63,98,1728386424
75,15,19,Jits_Linear_5,0,5,56,103,1729032456
75,15,19,Jits_Linear_5,1,1,48,67,1729047108
75,15,19,Jits_Linear_5,2,5,80,127,1729053132
75,15,19,Jits_Linear_5,3,5,63,98,1729092848
75,15,19,Jits_Linear_5,0,5,80,127,1729733256
75,15,19,Jits_Linear_5,1,5,63,98,1729752372
75,15,19,Jits_Linear_5,2,1,48,67,1729758560
75,15,19,Jits_Linear_5,3,5,56,103,1729812832
75,15,19,Jits_Linear_5,0,5,63,98,1730463216
75,15,19,Jits_Linear_5,1,5,56,103,1730473264
75,15,19,Jits_Linear_5,2,1,48,67,1730492796
75,15,19,Jits_Linear_5,3,5,80,127,1730522488
75,15,19,Jits_Linear_5,0,5,56,103,1731172756
75,15,19,Jits_Linear_5,1,5,63,98,1731193216
75,15,19,Jits_Linear_5,2,1,48,68,1731199844
75,15,19,Jits_Linear_5,3,5,80,127,1731202432
75,15,19,Jits_Linear_5,0,5,56,103,1731892664
75,15,19,Jits_Linear_5,1,5,63,98,1731895584
75,15,19,Jits_Linear_5,2,1,48,68,1731897292
75,15,19,Jits_Linear_5,3,5,80,127,1731913268
75,15,19,Jits_Linear_5,0,1,48,69,1732591788
75,15,19,Jits_Linear_5,1,5,63,98,1732662616
75,15,19,Jits_Linear_5,2,5,56,103,1732693396
75,15,19,Jits_Linear_5,3,5,80,127,1732723000
75,15,19,Jits_Linear_5,0,5,80,127,1733352708
75,15,19,Jits_Linear_5,1,1,48,59,1733365796
75,15,19,Jits_Linear_5,2,5,56,103,1733443060
75,15,19,Jits_Linear_5,3,5,63,98,1733446204
75,15,19,Jits_Linear_5,0,5,56,103,1734082948
75,15,19,Jits_Linear_5,1,5,80,127,1734086092
75,15,19,Jits_Linear_5,2,1,48,60,1734157088
75,15,19,Jits_Linear_5,3,5,63,98,1734162664
75,15,19,Jits_Linear_5,0,5,80,127,1734813268
75,15,19,Jits_Linear_5,1,1,48,54,1734849652
75,15,19,Jits_Linear_5,2,5,63,98,1734872312
75,15,19,Jits_Linear_5,3,5,56,103,1734903260
75,15,19,Jits_Linear_5,0,5,63,98,1735543128
75,15,19,Jits_Linear_5,1,5,80,127,1735553400
75,15,19,Jits_Linear_5,2,1,48,52,1735572060
75,15,19,Jits_Linear_5,3,5,56,103,1735623396
75,15,19,Jits_Linear_5,0,1,48,50,1736262776
75,15,19,Jits_Linear_5,1,5,56,103,1736292696
75,15,19,Jits_Linear_5,2,5,80,127,1736322372
75,15,19,Jits_Linear_5,3,5,63,98,1736372656
75,15,19,Jits_Linear_5,0,1,48,55,1737021788
75,15,19,Jits_Linear_5,1,5,63,98,1737073060
75,15,19,Jits_Linear_5,2,5,56,103,1737102684
75,15,19,Jits_Linear_5,3,5,80,127,1737105676
75,15,19,Jits_Linear_5,0,1,48,62,1737794052
75,15,19,Jits_Linear_5,1,5,63,98,1737813336
75,15,19,Jits_Linear_5,2,5,80,127,1737832748
75,15,19,Jits_Linear_5,3,5,56,103,1737843168
75,15,19,Jits_Linear_5,0,1,48,64,1738532764
75,15,19,Jits_Linear_5,1,5,56,103,1738563132
75,15,19,Jits_Linear_5,2,5,63,98,1738566196
75,15,19,Jits_Linear_5,3,5,80,127,1738583368
75,15,19,Jits_Linear_5,0,1,48,64,1739231240
75,15,19,Jits_Linear_5,1,5,56,103,1739263248
75,15,19,Jits_Linear_5,2,5,63,98,1739272548
75,15,19,Jits_Linear_5,3,5,80,127,1739303272
75,15,19,Jits_Linear_5,0,1,48,60,1739922360
75,15,19,Jits_Linear_5,1,5,63,98,1740033260
75,15,19,Jits_Linear_5,2,5,80,127,1740053120
75,15,19,Jits_Linear_5,3,5,56,103,1740092908
75,15,19,Jits_Linear_5,0,1,48,50,1740723264
75,15,19,Jits_Linear_5,1,5,56,103,1740812672
75,15,19,Jits_Linear_5,2,5,63,98,1740852524
75,15,19,Jits_Linear_5,3,5,80,127,1740855960
75,15,19,Jits_Linear_5,0,5,80,127,1741503056
75,15,19,Jits_Linear_5,1,1,48,43,1741532104
75,15,19,Jits_Linear_5,2,5,56,103,1741542692
75,15,19,Jits_Linear_5,3,5,63,98,1741593044
75,15,19,Jits_Linear_5,0,1,48,56,1742256356
75,15,19,Jits_Linear_5,1,5,56,103,1742313176
75,15,19,Jits_Linear_5,2,5,80,127,1742323372
75,15,19,Jits_Linear_5,3,5,63,98,1742352956
75,15,19,Jits_Linear_5,0,1,48,53,1743003536
75,15,19,Jits_Linear_5,1,5,56,103,1743013228
75,15,19,Jits_Linear_5,2,5,80,127,1743053168
75,15,19,Jits_Linear_5,3,5,63,98,1743104180
75,15,19,Jits_Linear_5,0,1,48,53,1743771104
75,15,19,Jits_Linear_5,1,5,56,103,1743772988
75,15,19,Jits_Linear_5,2,5,80,127,1743813228
75,15,19,Jits_Linear_5,3,5,63,98,1743863132
75,15,19,Jits_Linear_5,0,5,80,127,1744522644
75,15,19,Jits_Linear_5,1,1,48,47,1744523608
75,15,19,Jits_Linear_5,2,5,63,98,1744602512
75,15,19,Jits_Linear_5,3,5,56,103,1744612856
75,15,19,Jits_Linear_5,0,1,48,48,1745317596
75,15,19,Jits_Linear_5,1,5,80,127,1745332468
75,15,19,Jits_Linear_5,2,5,56,103,1745342812
75,15,19,Jits_Linear_5,3,5,63,98,1745363200
75,15,19,Jits_Linear_5,0,5,63,98,1746062640
75,15,19,Jits_Linear_5,1,1,48,47,1746081572
75,15,19,Jits_Linear_5,2,5,56,103,1746133288
75,15,19,Jits_Linear_5,3,5,80,127,1746136356
75,15,19,Jits_Linear_5,0,5,80,127,1746822396
75,15,19,Jits_Linear_5,1,1,48,61,1746845588
75,15,19,Jits_Linear_5,2,5,63,98,1746872816
75,15,19,Jits_Linear_5,3,5,56,103,1746912608
75,15,19,Jits_Linear_5,0,1,48,51,1747611892
75,15,19,Jits_Linear_5,1,5,63,98,1747632440
75,15,19,Jits_Linear_5,2,5,56,103,1747672384
75,15,19,Jits_Linear_5,3,5,80,127,1747682576
75,15,19,Jits_Linear_5,0,1,48,53,1748379732
75,15,19,Jits_Linear_5,1,5,63,98,1748393328
75,15,19,Jits_Linear_5,2,5,56,103,1748412892
75,15,19,Jits_Linear_5,3,5,80,127,1748433128
75,15,19,Jits_Linear_5,0,1,48,58,1749133088
75,15,19,Jits_Linear_5,1,5,80,127,1749134356
75,15,19,Jits_Linear_5,2,5,56,103,1749143128
75,15,19,Jits_Linear_5,3,5,63,98,1749163292
75,15,19,Jits_Linear_5,0,1,48,48,1749868880
75,15,19,Jits_Linear_5,1,5,63,98,1749933300
75,15,19,Jits_Linear_5,2,5,56,103,1749973300
75,15,19,Jits_Linear_5,3,5,80,127,1750003052
75,15,19,Jits_Linear_5,0,1,48,63,1750667632
75,15,19,Jits_Linear_5,1,5,56,103,1750712844
75,15,19,Jits_Linear_5,2,5,63,98,1750743268
75,15,19,Jits_Linear_5,3,5,80,127,1750773076
75,15,19,Jits_Linear_5,0,5,80,127,1751463320
75,15,19,Jits_Linear_5,1,1,48,66,1751469052
75,15,19,Jits_Linear_5,2,5,56,103,1751532924
75,15,19,Jits_Linear_5,3,5,63,98,1751536064
75,15,19,Jits_Linear_5,0,1,48,66,1752252076
75,15,19,Jits_Linear_5,1,5,56,103,1752253724
75,15,19,Jits_Linear_5,2,5,63,98,1752303180
75,15,19,Jits_Linear_5,3,5,80,127,1752332928
75,15,19,Jits_Linear_5,0,5,63,98,1753012896
75,15,19,Jits_Linear_5,1,5,80,127,1753016108
75,15,19,Jits_Linear_5,2,1,48,67,1753030016
75,15,19,Jits_Linear_5,3,5,56,103,1753073052
75,15,19,Jits_Linear_5,0,1,48,59,1753802212
75,15,19,Jits_Linear_5,1,5,56,103,1753822536
75,15,19,Jits_Linear_5,2,5,80,127,1753833032
75,15,19,Jits_Linear_5,3,5,63,98,1753883084
75,15,19,Jits_Linear_5,0,5,63,98,1754583428
75,15,19,Jits_Linear_5,1,5,56,103,1754592948
75,15,19,Jits_Linear_5,2,1,48,59,1754598312
75,15,19,Jits_Linear_5,3,5,80,127,1754623296
75,15,19,Jits_Linear_5,0,1,48,63,1755346372
75,15,19,Jits_Linear_5,1,5,63,98,1755402816
75,15,19,Jits_Linear_5,2,5,80,127,1755406108
75,15,19,Jits_Linear_5,3,5,56,103,1755433316
75,15,19,Jits_Linear_5,0,1,48,65,1756166512
75,15,19,Jits_Linear_5,1,5,63,98,1756212768
75,15,19,Jits_Linear_5,2,5,56,103,1756233076
75,15,19,Jits_Linear_5,3,5,80,127,1756236220
75,15,19,Jits_Linear_5,0,5,63,98,1756963088
75,15,19,Jits_Linear_5,1,1,48,60,1756985688
75,15,19,Jits_Linear_5,2,5,56,103,1757032916
75,15,19,Jits_Linear_5,3,5,80,127,1757053224
75,15,19,Jits_Linear_5,0,5,56,103,1757742332
75,15,19,Jits_Linear_5,1,5,63,98,1757752900
75,15,19,Jits_Linear_5,2,1,48,56,1757764936
75,15,19,Jits_Linear_5,3,5,80,127,1757842904
75,15,19,Jits_Linear_5,0,5,56,103,1758552304
75,15,19,Jits_Linear_5,1,1,48,64,1758567032
75,15,19,Jits_Linear_5,2,5,80,127,1758593436
75,15,19,Jits_Linear_5,3,5,63,98,1758602756
75,15,19,Jits_Linear_5,0,1,48,62,1759370752
75,15,19,Jits_Linear_5,1,5,56,103,1759372640
75,15,19,Jits_Linear_5,2,5,63,98,1759403364
75,15,19,Jits_Linear_5,3,5,80,127,1759432964
75,15,19,Jits_Linear_5,0,5,80,127,1760132556
75,15,19,Jits_Linear_5,1,5,63,98,1760173396
75,15,19,Jits_Linear_5,2,5,56,103,1760192808
75,15,19,Jits_Linear_5,3,1,48,72,1760204692
75,15,19,Jits_Linear_5,0,5,56,103,1760973100
75,15,19,Jits_Linear_5,1,1,48,65,1760975840
75,15,19,Jits_Linear_5,2,5,80,127,1760992804
75,15,19,Jits_Linear_5,3,5,63,98,1761013040
75,15,19,Jits_Linear_5,0,5,63,98,1761743212
75,15,19,Jits_Linear_5,1,5,56,103,1761752288
75,15,19,Jits_Linear_5,2,1,48,59,1761756456
75,15,19,Jits_Linear_5,3,5,80,127,1761812820
75,15,19,Jits_Linear_5,0,1,48,62,1762514472
75,15,19,Jits_Linear_5,1,5,56,103,1762553236
75,15,19,Jits_Linear_5,2,5,63,98,1762622684
75,15,19,Jits_Linear_5,3,5,80,127,1762643292
75,15,19,Jits_Linear_5,0,1,48,62,1763358444
75,15,19,Jits_Linear_5,1,5,56,103,1763363124
75,15,19,Jits_Linear_5,2,5,63,98,1763392800
75,15,19,Jits_Linear_5,3,5,80,127,1763432740
75,15,19,Jits_Linear_5,0,1,48,62,1764159612
75,15,19,Jits_Linear_5,1,5,63,98,1764162864
75,15,19,Jits_Linear_5,2,5,56,103,1764213220
75,15,19,Jits_Linear_5,3,5,80,127,1764223564
75,15,19,Jits_Linear_5,0,1,48,61,1764963204
75,15,19,Jits_Linear_5,1,5,56,103,1765012856
75,15,19,Jits_Linear_5,2,5,63,98,1765063048
75,15,19,Jits_Linear_5,3,5,80,127,1765073244
75,15,19,Jits_Linear_5,0,1,48,65,1765786900
75,15,19,Jits_Linear_5,1,5,56,103,1765793000
75,15,19,Jits_Linear_5,2,5,63,98,1765803644
75,15,19,Jits_Linear_5,3,5,80,127,1765884320
75,15,19,Jits_Linear_5,0,9999,9999,9999,1657030776
75,15,19,Jits_Linear_5,1,9999,9999,9999,1657511012
75,15,19,Jits_Linear_5,2,9999,9999,9999,1657990200
75,15,19,Jits_Linear_5,3,9999,9999,9999,1658470452
75,15,19,Jits_Linear_5,4,9999,9999,9999,1658950752
75,15,19,Jits_Linear_5,5,9999,9999,9999,1659440184
75,15,19,Jits_Linear_5,6,9999,9999,9999,1659930728
75,15,19,Jits_Linear_5,7,9999,9999,9999,1660420172
75,15,19,Jits_Linear_5,8,9999,9999,9999,1660910656
75,15,19,Jits_Linear_5,9,9999,9999,9999,1661400168
75,15,19,Jits_Linear_5,10,9999,9999,9999,1661900916
75,15,19,Jits_Linear_5,11,9999,9999,9999,1662400620
75,15,19,Jits_Linear_5,12,9999,9999,9999,1662900304
75,15,19,Jits_Linear_5,13,9999,9999,9999,1663401036
75,15,19,Jits_Linear_5,14,9999,9999,9999,1663900796
75,15,19,Jits_Linear_5,15,9999,9999,9999,1664410692
75,15,19,Jits_Linear_5,16,9999,9999,9999,1664920644
75,15,19,Jits_Linear_5,17,9999,9999,9999,1665430596
75,15,19,Jits_Linear_5,18,9999,9999,9999,1665940560
75,15,19,Jits_Linear_5,19,9999,9999,9999,1666450528
75,15,19,Jits_Linear_5,20,9999,9999,9999,1666970740
75,15,19,Jits_Linear_5,21,9999,9999,9999,1667490884
75,15,19,Jits_Linear_5,22,9999,9999,9999,1668011112
75,15,19,Jits_Linear_5,23,9999,9999,9999,1668540484
75,15,19,Jits_Linear_5,24,9999,9999,9999,1669060716
75,15,19,Jits_Linear_5,25,9999,9999,9999,1669590080
75,15,19,Jits_Linear_5,26,9999,9999,9999,1670120560
75,15,19,Jits_Linear_5,27,9999,9999,9999,1670650952
75,15,19,Jits_Linear_5,28,9999,9999,9999,1671180408
75,15,19,Jits_Linear_5,29,9999,9999,9999,1671710808
75,15,19,Jits_Linear_5,30,9999,9999,9999,1672250444
75,15,19,Jits_Linear_5,31,9999,9999,9999,1672790084
75,15,19,Jits_Linear_5,32,9999,9999,9999,1673330764
75,15,19,Jits_Linear_5,33,9999,9999,9999,1673870424
75,15,19,Jits_Linear_5,34,9999,9999,9999,1674411092
75,15,19,Jits_Linear_5,35,9999,9999,9999,1674970212
75,15,19,Jits_Linear_5,36,9999,9999,9999,1675520080
75,15,19,Jits_Linear_5,37,9999,9999,9999,1676071016
75,15,19,Jits_Linear_5,38,9999,9999,9999,1676620904
75,15,19,Jits_Linear_5,39,9999,9999,9999,1677170788
75,15,19,Jits_Linear_5,40,9999,9999,9999,1677730892
75,15,19,Jits_Linear_5,41,9999,9999,9999,1678291056
75,15,19,Jits_Linear_5,42,9999,9999,9999,1678850168
75,15,19,Jits_Linear_5,43,9999,9999,9999,1679410232
75,15,19,Jits_Linear_5,44,9999,9999,9999,1679970376
75,15,19,Jits_Linear_5,45,9999,9999,9999,1680540732
75,15,19,Jits_Linear_5,46,9999,9999,9999,1681110096
75,15,19,Jits_Linear_5,47,9999,9999,9999,1681680508
75,15,19,Jits_Linear_5,48,9999,9999,9999,1682250844
75,15,19,Jits_Linear_5,49,9999,9999,9999,1682820152
75,15,19,Jits_Linear_5,50,9999,9999,9999,1683400760
75,15,19,Jits_Linear_5,51,9999,9999,9999,1683980404
75,15,19,Jits_Linear_5,52,9999,9999,9999,1684561004
75,15,19,Jits_Linear_5,53,9999,9999,9999,1685140596
75,15,19,Jits_Linear_5,54,9999,9999,9999,1685720148
75,15,19,Jits_Linear_5,55,9999,9999,9999,1686311016
75,15,19,Jits_Linear_5,56,9999,9999,9999,1686900828
75,15,19,Jits_Linear_5,57,9999,9999,9999,1687490680
75,15,19,Jits_Linear_5,58,9999,9999,9999,1688080496
75,15,19,Jits_Linear_5,59,9999,9999,9999,1688670300
75,15,19,Jits_Linear_5,60,9999,9999,9999,1689270348
75,15,19,Jits_Linear_5,61,9999,9999,9999,1689870420
75,15,19,Jits_Linear_5,62,9999,9999,9999,1690470516
75,15,19,Jits_Linear_5,63,9999,9999,9999,1691070544
75,15,19,Jits_Linear_5,64,9999,9999,9999,1691670624
75,15,19,Jits_Linear_5,65,9999,9999,9999,1692280908
75,15,19,Jits_Linear_5,66,9999,9999,9999,1692890172
75,15,19,Jits_Linear_5,67,9999,9999,9999,1693500516
75,15,19,Jits_Linear_5,68,9999,9999,9999,1694110828
75,15,19,Jits_Linear_5,69,9999,9999,9999,1694720128
75,15,19,Jits_Linear_5,70,9999,9999,9999,1695340648
75,15,19,Jits_Linear_5,71,9999,9999,9999,1695960172
75,15,19,Jits_Linear_5,72,9999,9999,9999,1696580704
75,15,19,Jits_Linear_5,73,9999,9999,9999,1697200216
75,15,19,Jits_Linear_5,74,9999,9999,9999,1697820748
75,15,19,Jits_Linear_5,75,9999,9999,9999,1698450520
75,15,19,Jits_Linear_5,76,9999,9999,9999,1699080276
75,15,19,Jits_Linear_5,77,9999,9999,9999,1699711072
75,15,19,Jits_Linear_5,78,9999,9999,9999,1700340856
75,15,19,Jits_Linear_5,79,9999,9999,9999,1700970608
75,15,19,Jits_Linear_5,80,9999,9999,9999,1701610568
75,15,19,Jits_Linear_5,81,9999,9999,9999,1702250584
75,15,19,Jits_Linear_5,82,9999,9999,9999,1702890624
75,15,19,Jits_Linear_5,83,9999,9999,9999,1703530560
75,15,19,Jits_Linear_5,84,9999,9999,9999,1704170616
75,15,19,Jits_Linear_5,85,9999,9999,9999,1704820820
75,15,19,Jits_Linear_5,86,9999,9999,9999,1705471040
75,15,19,Jits_Linear_5,87,9999,9999,9999,1706120312
75,15,19,Jits_Linear_5,88,9999,9999,9999,1706770508
75,15,19,Jits_Linear_5,89,9999,9999,9999,1707420732
75,15,19,Jits_Linear_5,90,9999,9999,9999,1708080228
75,15,19,Jits_Linear_5,91,9999,9999,9999,1708740712
75,15,19,Jits_Linear_5,92,9999,9999,9999,1709400136
75,15,19,Jits_Linear_5,93,9999,9999,9999,1710060628
75,15,19,Jits_Linear_5,94,9999,9999,9999,1710720116
75,15,19,Jits_Linear_5,95,9999,9999,9999,1711390808
75,15,19,Jits_Linear_5,96,9999,9999,9999,1712060528
75,15,19,Jits_Linear_5,97,9999,9999,9999,1712730208
75,15,19,Jits_Linear_5,98,9999,9999,9999,1713400892
75,15,19,Jits_Linear_5,99,9999,9999,9999,1714070596
75,15,19,Jits_Linear_5,100,9999,9999,9999,1714750540
75,15,19,Jits_Linear_5,101,9999,9999,9999,1715430512
75,15,19,Jits_Linear_5,102,9999,9999,9999,1716110416
75,15,19,Jits_Linear_5,103,9999,9999,9999,1716790380
75,15,19,Jits_Linear_5,104,9999,9999,9999,1717470272
75,15,19,Jits_Linear_5,105,9999,9999,9999,1718160500
75,15,19,Jits_Linear_5,106,9999,9999,9999,1718850640
75,15,19,Jits_Linear_5,107,9999,9999,9999,1719540844
75,15,19,Jits_Linear_5,108,9999,9999,9999,1720231000
75,15,19,Jits_Linear_5,109,9999,9999,9999,1720920168
75,15,19,Jits_Linear_5,110,9999,9999,9999,1721620604
75,15,19,Jits_Linear_5,111,9999,9999,9999,1722320964
75,15,19,Jits_Linear_5,112,9999,9999,9999,1723020352
75,15,19,Jits_Linear_5,113,9999,9999,9999,1723720764
75,15,19,Jits_Linear_5,114,9999,9999,9999,1724420216
75,15,19,Jits_Linear_5,115,9999,9999,9999,1725130832
75,15,19,Jits_Linear_5,116,9999,9999,9999,1725840476
75,15,19,Jits_Linear_5,117,9999,9999,9999,1726550108
75,15,19,Jits_Linear_5,118,9999,9999,9999,1727260736
75,15,19,Jits_Linear_5,119,9999,9999,9999,1727970372
75,15,19,Jits_Linear_5,120,9999,9999,9999,1728690284
75,15,19,Jits_Linear_5,121,9999,9999,9999,1729410168
75,15,19,Jits_Linear_5,122,9999,9999,9999,1730131048
75,15,19,Jits_Linear_5,123,9999,9999,9999,1730850892
75,15,19,Jits_Linear_5,124,9999,9999,9999,1731570784
75,15,19,Jits_Linear_5,125,9999,9999,9999,1732300884
75,15,19,Jits_Linear_5,126,9999,9999,9999,1733030992
75,15,19,Jits_Linear_5,127,9999,9999,9999,1733760080
75,15,19,Jits_Linear_5,128,9999,9999,9999,1734490168
75,15,19,Jits_Linear_5,129,9999,9999,9999,1735220352
75,15,19,Jits_Linear_5,130,9999,9999,9999,1735960644
75,15,19,Jits_Linear_5,131,9999,9999,9999,1736701000
75,15,19,Jits_Linear_5,132,9999,9999,9999,1737440376
75,15,19,Jits_Linear_5,133,9999,9999,9999,1738180664
75,15,19,Jits_Linear_5,134,9999,9999,9999,1738921088
75,15,19,Jits_Linear_5,135,9999,9999,9999,1739670656
75,15,19,Jits_Linear_5,136,9999,9999,9999,1740420160
75,15,19,Jits_Linear_5,137,9999,9999,9999,1741170752
75,15,19,Jits_Linear_5,138,9999,9999,9999,1741920324
75,15,19,Jits_Linear_5,139,9999,9999,9999,1742670964
75,15,19,Jits_Linear_5,140,9999,9999,9999,1743430728
75,15,19,Jits_Linear_5,141,9999,9999,9999,1744190564
75,15,19,Jits_Linear_5,142,9999,9999,9999,1744950328
75,15,19,Jits_Linear_5,143,9999,9999,9999,1745710180
75,15,19,Jits_Linear_5,144,9999,9999,9999,1746470984
75,15,19,Jits_Linear_5,145,9999,9999,9999,1747241084
75,15,19,Jits_Linear_5,146,9999,9999,9999,1748011128
75,15,19,Jits_Linear_5,147,9999,9999,9999,1748790372
75,15,19,Jits_Linear_5,148,9999,9999,9999,1749560396
75,15,19,Jits_Linear_5,149,9999,9999,9999,1750330424
75,15,19,Jits_Linear_5,150,9999,9999,9999,1751110712
75,15,19,Jits_Linear_5,151,9999,9999,9999,1751891068
75,15,19,Jits_Linear_5,152,9999,9999,9999,1752670324
75,15,19,Jits_Linear_5,153,9999,9999,9999,1753450604
75,15,19,Jits_Linear_5,154,9999,9999,9999,1754230892
75,15,19,Jits_Linear_5,155,9999,9999,9999,1755020348
75,15,19,Jits_Linear_5,156,9999,9999,9999,1755810892
75,15,19,Jits_Linear_5,157,9999,9999,9999,1756600388
75,15,19,Jits_Linear_5,158,9999,9999,9999,1757390944
75,15,19,Jits_Linear_5,159,9999,9999,9999,1758180448
75,15,19,Jits_Linear_5,160,9999,9999,9999,1758980160
75,15,19,Jits_Linear_5,161,9999,9999,9999,1759780924
75,15,19,Jits_Linear_5,162,9999,9999,9999,1760580688
75,15,19,Jits_Linear_5,163,9999,9999,9999,1761380476
75,15,19,Jits_Linear_5,164,9999,9999,9999,1762180208
75,15,19,Jits_Linear_5,165,9999,9999,9999,1762990168
75,15,19,Jits_Linear_5,166,9999,9999,9999,1763800176
75,15,19,Jits_Linear_5,167,9999,9999,9999,1764610132
75,15,19,Jits_Linear_5,168,9999,9999,9999,1765420096
75,15,19,Jits_Linear_5,169,9999,9999,9999,1766230124
75,16,15,Jits_Phase_8,0,5,56,103,1775951220
75,16,15,Jits_Phase_8,1,5,63,98,1775954316
75,16,15,Jits_Phase_8,2,5,80,127,1775957512
75,16,15,Jits_Phase_8,0,5,56,103,1776750936
75,16,15,Jits_Phase_8,1,5,63,98,1776754032
75,16,15,Jits_Phase_8,2,5,80,127,1776757308
75,16,15,Jits_Phase_8,0,5,80,127,1777491408
75,16,15,Jits_Phase_8,1,5,63,98,1777581420
75,16,15,Jits_Phase_8,2,5,56,103,1777590568
75,16,15,Jits_Phase_8,0,5,56,103,1778310652
75,16,15,Jits_Phase_8,1,5,63,98,1778320700
75,16,15,Jits_Phase_8,2,5,80,127,1778410976
75,16,15,Jits_Phase_8,0,1,48,76,1779074832
75,16,15,Jits_Phase_8,1,5,63,98,1779080412
75,16,15,Jits_Phase_8,2,5,80,127,1779111208
75,16,15,Jits_Phase_8,3,5,56,103,1779141108
75,16,15,Jits_Phase_8,0,1,48,76,1779858172
75,16,15,Jits_Phase_8,1,5,56,103,1779881288
75,16,15,Jits_Phase_8,2,5,80,127,1779980624
75,16,15,Jits_Phase_8,3,5,63,98,1780030824
75,16,15,Jits_Phase_8,0,5,56,103,1780681048
75,16,15,Jits_Phase_8,1,1,48,71,1780693160
75,16,15,Jits_Phase_8,2,5,80,127,1780731464
75,16,15,Jits_Phase_8,3,5,63,98,1780771404
75,16,15,Jits_Phase_8,0,1,48,59,1781483180
75,16,15,Jits_Phase_8,1,5,80,127,1781510556
75,16,15,Jits_Phase_8,2,5,63,98,1781541428
75,16,15,Jits_Phase_8,3,5,56,103,1781610796
75,16,15,Jits_Phase_8,0,1,48,68,1782267796
75,16,15,Jits_Phase_8,1,5,63,98,1782340960
75,16,15,Jits_Phase_8,2,5,56,103,1782370620
75,16,15,Jits_Phase_8,3,5,80,127,1782431108
75,16,15,Jits_Phase_8,0,5,56,103,1783081232
75,16,15,Jits_Phase_8,1,5,80,127,1783084380
75,16,15,Jits_Phase_8,2,1,48,65,1783114544
75,16,15,Jits_Phase_8,3,5,63,98,1783201352
75,16,15,Jits_Phase_8,0,1,48,63,1783873696
75,16,15,Jits_Phase_8,1,5,56,103,1783961032
75,16,15,Jits_Phase_8,2,5,80,127,1784000956
75,16,15,Jits_Phase_8,3,5,63,98,1784011224
75,16,15,Jits_Phase_8,0,5,56,103,1784720716
75,16,15,Jits_Phase_8,1,5,80,127,1784741472
75,16,15,Jits_Phase_8,2,1,48,61,1784745120
75,16,15,Jits_Phase_8,3,5,63,98,1784821188
75,16,15,Jits_Phase_8,0,5,80,127,1785511348
75,16,15,Jits_Phase_8,1,1,48,62,1785534168
75,16,15,Jits_Phase_8,2,5,56,103,1785610544
75,16,15,Jits_Phase_8,3,5,63,98,1785620740
75,16,15,Jits_Phase_8,0,5,63,98,1786281236
75,16,15,Jits_Phase_8,1,1,48,61,1786331928
75,16,15,Jits_Phase_8,2,5,80,127,1786340648
75,16,15,Jits_Phase_8,3,5,56,103,1786351212
75,16,15,Jits_Phase_8,0,1,48,59,1787044456
75,16,15,Jits_Phase_8,1,5,56,103,1787081196
75,16,15,Jits_Phase_8,2,5,63,98,1787150712
75,16,15,Jits_Phase_8,3,5,80,127,1787154148
75,16,15,Jits_Phase_8,0,1,48,53,1787817372
75,16,15,Jits_Phase_8,1,5,63,98,1787910464
75,16,15,Jits_Phase_8,2,5,56,103,1787960648
75,16,15,Jits_Phase_8,3,5,80,127,1787963788
75,16,15,Jits_Phase_8,0,1,48,60,1788645364
75,16,15,Jits_Phase_8,1,5,56,103,1788671396
75,16,15,Jits_Phase_8,2,5,80,127,1788674536
75,16,15,Jits_Phase_8,3,5,63,98,1788760316
75,16,15,Jits_Phase_8,0,1,48,64,1789451936
75,16,15,Jits_Phase_8,1,5,63,98,1789511148
75,16,15,Jits_Phase_8,2,5,56,103,1789601144
75,16,15,Jits_Phase_8,3,5,80,127,1789630892
75,16,15,Jits_Phase_8,0,1,48,53,1790277088
75,16,15,Jits_Phase_8,1,5,56,103,1790300500
75,16,15,Jits_Phase_8,2,5,63,98,1790400832
75,16,15,Jits_Phase_8,3,5,80,127,1790430508
75,16,15,Jits_Phase_8,0,1,48,56,1791080832
75,16,15,Jits_Phase_8,1,5,63,98,1791120740
75,16,15,Jits_Phase_8,2,5,56,103,1791131008
75,16,15,Jits_Phase_8,3,5,80,127,1791221124
75,16,15,Jits_Phase_8,0,1,48,57,1791823348
75,16,15,Jits_Phase_8,1,5,63,98,1791941160
75,16,15,Jits_Phase_8,2,5,56,103,1792020956
75,16,15,Jits_Phase_8,3,5,80,127,1792024096
75,16,15,Jits_Phase_8,0,1,48,57,1792632248
75,16,15,Jits_Phase_8,1,5,80,127,1792700924
75,16,15,Jits_Phase_8,2,5,63,98,1792721236
75,16,15,Jits_Phase_8,3,5,56,103,1792780784
75,16,15,Jits_Phase_8,0,1,48,56,1793448340
75,16,15,Jits_Phase_8,1,5,56,103,1793540456
75,16,15,Jits_Phase_8,2,5,63,98,1793561124
75,16,15,Jits_Phase_8,3,5,80,127,1793564488
75,16,15,Jits_Phase_8,0,1,48,68,1794257380
75,16,15,Jits_Phase_8,1,5,63,98,1794280868
75,16,15,Jits_Phase_8,2,5,80,127,1794360796
75,16,15,Jits_Phase_8,3,5,56,103,1794371364
75,16,15,Jits_Phase_8,0,1,48,68,1795084108
75,16,15,Jits_Phase_8,1,5,63,98,1795101000
75,16,15,Jits_Phase_8,2,5,56,103,1795120560
75,16,15,Jits_Phase_8,3,5,80,127,1795170612
75,16,15,Jits_Phase_8,0,1,48,64,1795855092
75,16,15,Jits_Phase_8,1,5,80,127,1795900680
75,16,15,Jits_Phase_8,2,5,63,98,1795940692
75,16,15,Jits_Phase_8,3,5,56,103,1795961060
75,16,15,Jits_Phase_8,0,1,48,73,1796677024
75,16,15,Jits_Phase_8,1,5,56,103,1796740316
75,16,15,Jits_Phase_8,2,5,63,98,1796750588
75,16,15,Jits_Phase_8,3,5,80,127,1796772376
75,16,15,Jits_Phase_8,0,5,56,103,1797470532
75,16,15,Jits_Phase_8,1,1,48,89,1797486452
75,16,15,Jits_Phase_8,2,5,63,98,1797560980
75,16,15,Jits_Phase_8,3,5,80,127,1797621056
75,16,15,Jits_Phase_8,0,5,80,127,1798300972
75,16,15,Jits_Phase_8,1,1,48,78,1798306108
75,16,15,Jits_Phase_8,2,5,56,103,1798311460
75,16,15,Jits_Phase_8,3,5,63,98,1798381064
75,16,15,Jits_Phase_8,0,5,63,98,1799130412
75,16,15,Jits_Phase_8,1,1,48,70,1799149344
75,16,15,Jits_Phase_8,2,5,80,127,1799220688
75,16,15,Jits_Phase_8,3,5,56,103,1799231108
75,16,15,Jits_Phase_8,0,5,63,98,1799860568
75,16,15,Jits_Phase_8,1,5,80,127,1799910844
75,16,15,Jits_Phase_8,2,1,48,70,1799945048
75,16,15,Jits_Phase_8,3,5,56,103,1799971080
75,16,15,Jits_Phase_8,0,5,56,103,1800680928
75,16,15,Jits_Phase_8,1,1,48,78,1800691392
75,16,15,Jits_Phase_8,2,5,80,127,1800730900
75,16,15,Jits_Phase_8,3,5,63,98,1800750532
75,16,15,Jits_Phase_8,0,1,48,81,1801418844
75,16,15,Jits_Phase_8,1,5,56,103,1801451020
75,16,15,Jits_Phase_8,2,5,80,127,1801511188
75,16,15,Jits_Phase_8,3,5,63,98,1801581076
75,16,15,Jits_Phase_8,0,5,56,103,1802250488
75,16,15,Jits_Phase_8,1,1,48,76,1802253456
75,16,15,Jits_Phase_8,2,5,80,127,1802281280
75,16,15,Jits_Phase_8,3,5,63,98,1802311104
75,16,15,Jits_Phase_8,0,1,48,79,1803031712
75,16,15,Jits_Phase_8,1,5,56,103,1803091300
75,16,15,Jits_Phase_8,2,5,80,127,1803110932
75,16,15,Jits_Phase_8,3,5,63,98,1803171256
75,16,15,Jits_Phase_8,0,1,48,79,1803878600
75,16,15,Jits_Phase_8,1,5,80,127,1803970800
75,16,15,Jits_Phase_8,2,5,56,103,1803981128
75,16,15,Jits_Phase_8,3,5,63,98,1803991476
75,16,15,Jits_Phase_8,0,1,48,65,1804717924
75,16,15,Jits_Phase_8,1,5,56,103,1804730700
75,16,15,Jits_Phase_8,2,5,80,127,1804770940
75,16,15,Jits_Phase_8,3,5,63,98,1804801364
75,16,15,Jits_Phase_8,0,5,56,103,1805500952
75,16,15,Jits_Phase_8,1,5,63,98,1805530628
75,16,15,Jits_Phase_8,2,1,48,68,1805551732
75,16,15,Jits_Phase_8,3,5,80,127,1805570412
75,16,15,Jits_Phase_8,0,5,80,127,1806251576
75,16,15,Jits_Phase_8,1,5,63,98,1806300508
75,16,15,Jits_Phase_8,2,5,56,103,1806320968
75,16,15,Jits_Phase_8,3,1,48,71,1806339600
75,16,15,Jits_Phase_8,0,5,56,103,1807081012
75,16,15,Jits_Phase_8,1,1,48,65,1807092376
75,16,15,Jits_Phase_8,2,5,80,127,1807150392
75,16,15,Jits_Phase_8,3,5,63,98,1807210916
75,16,15,Jits_Phase_8,0,5,80,127,1807880864
75,16,15,Jits_Phase_8,1,1,48,64,1807902712
75,16,15,Jits_Phase_8,2,5,63,98,1807970844
75,16,15,Jits_Phase_8,3,5,56,103,1807991152
75,16,15,Jits_Phase_8,0,5,63,98,1808700944
75,16,15,Jits_Phase_8,1,5,56,103,1808721180
75,16,15,Jits_Phase_8,2,5,80,127,1808761116
75,16,15,Jits_Phase_8,3,1,48,66,1808773252
75,16,15,Jits_Phase_8,0,5,80,127,1809460840
75,16,15,Jits_Phase_8,1,5,63,98,1809481004
75,16,15,Jits_Phase_8,2,1,48,62,1809482792
75,16,15,Jits_Phase_8,3,5,56,103,1809560964
75,16,15,Jits_Phase_8,0,5,63,98,1810251092
75,16,15,Jits_Phase_8,1,1,48,67,1810254732
75,16,15,Jits_Phase_8,2,5,56,103,1810360632
75,16,15,Jits_Phase_8,3,5,80,127,1810363772
75,16,15,Jits_Phase_8,0,5,63,98,1811071444
75,16,15,Jits_Phase_8,1,5,56,103,1811080892
75,16,15,Jits_Phase_8,2,1,48,67,1811084028
75,16,15,Jits_Phase_8,3,5,80,127,1811085144
75,16,15,Jits_Phase_8,0,5,56,103,1811850732
75,16,15,Jits_Phase_8,1,1,48,63,1811859632
75,16,15,Jits_Phase_8,2,5,80,127,1811970368
75,16,15,Jits_Phase_8,3,5,63,98,1812011500
75,16,15,Jits_Phase_8,0,5,56,103,1812670812
75,16,15,Jits_Phase_8,1,1,48,60,1812673560
75,16,15,Jits_Phase_8,2,5,80,127,1812750752
75,16,15,Jits_Phase_8,3,5,63,98,1812771272
75,16,15,Jits_Phase_8,0,5,56,103,1813470736
75,16,15,Jits_Phase_8,1,1,48,67,1813473252
75,16,15,Jits_Phase_8,2,5,63,98,1813581300
75,16,15,Jits_Phase_8,3,5,80,127,1813584660
75,16,15,Jits_Phase_8,0,1,48,70,1814303732
75,16,15,Jits_Phase_8,1,5,56,103,1814311256
75,16,15,Jits_Phase_8,2,5,80,127,1814340932
75,16,15,Jits_Phase_8,3,5,63,98,1814360640
75,16,15,Jits_Phase_8,0,1,48,69,1815072852
75,16,15,Jits_Phase_8,1,5,63,98,1815100896
75,16,15,Jits_Phase_8,2,5,56,103,1815111168
75,16,15,Jits_Phase_8,3,5,80,127,1815121736
75,16,15,Jits_Phase_8,0,1,48,76,1815869384
75,16,15,Jits_Phase_8,1,5,80,127,1815891284
75,16,15,Jits_Phase_8,2,5,56,103,1815940464
75,16,15,Jits_Phase_8,3,5,63,98,1815981732
75,16,15,Jits_Phase_8,0,1,48,75,1816697672
75,16,15,Jits_Phase_8,1,5,80,127,1816710696
75,16,15,Jits_Phase_8,2,5,63,98,1816730932
75,16,15,Jits_Phase_8,3,5,56,103,1816781208
75,16,15,Jits_Phase_8,0,1,48,73,1817516340
75,16,15,Jits_Phase_8,1,5,80,127,1817520792
75,16,15,Jits_Phase_8,2,5,56,103,1817551216
75,16,15,Jits_Phase_8,3,5,63,98,1817620732
75,16,15,Jits_Phase_8,0,1,48,69,1818332368
75,16,15,Jits_Phase_8,1,5,56,103,1818370528
75,16,15,Jits_Phase_8,2,5,80,127,1818380648
75,16,15,Jits_Phase_8,3,5,63,98,1818420660
75,16,15,Jits_Phase_8,0,5,56,103,1819081060
75,16,15,Jits_Phase_8,1,5,63,98,1819100920
75,16,15,Jits_Phase_8,2,1,48,68,1819132060
75,16,15,Jits_Phase_8,3,5,80,127,1819171116
75,16,15,Jits_Phase_8,0,1,48,67,1819886256
75,16,15,Jits_Phase_8,1,5,63,98,1819901276
75,16,15,Jits_Phase_8,2,5,80,127,1819960620
75,16,15,Jits_Phase_8,3,5,56,103,1819981228
75,16,15,Jits_Phase_8,0,1,48,73,1820664216
75,16,15,Jits_Phase_8,1,5,80,127,1820690844
75,16,15,Jits_Phase_8,2,5,56,103,1820720668
75,16,15,Jits_Phase_8,3,5,63,98,1820751536
75,16,15,Jits_Phase_8,0,1,48,71,1821461280
75,16,15,Jits_Phase_8,1,5,56,103,1821490600
75,16,15,Jits_Phase_8,2,5,63,98,1821550916
75,16,15,Jits_Phase_8,3,5,80,127,1821611464
75,16,15,Jits_Phase_8,0,1,48,66,1822295048
75,16,15,Jits_Phase_8,1,5,80,127,1822310888
75,16,15,Jits_Phase_8,2,5,56,103,1822331344
75,16,15,Jits_Phase_8,3,5,63,98,1822400960
75,16,15,Jits_Phase_8,0,1,48,71,1823109084
75,16,15,Jits_Phase_8,1,5,80,127,1823110744
75,16,15,Jits_Phase_8,2,5,63,98,1823130908
75,16,15,Jits_Phase_8,3,5,56,103,1823160656
75,16,15,Jits_Phase_8,0,1,48,74,1823863924
75,16,15,Jits_Phase_8,1,5,80,127,1823901212
75,16,15,Jits_Phase_8,2,5,63,98,1823920700
75,16,15,Jits_Phase_8,3,5,56,103,1823980776
75,16,15,Jits_Phase_8,0,1,48,82,1824654488
75,16,15,Jits_Phase_8,1,5,80,127,1824700744
75,16,15,Jits_Phase_8,2,5,56,103,1824801128
75,16,15,Jits_Phase_8,3,5,63,98,1824830952
75,16,15,Jits_Phase_8,0,1,48,75,1825490008
75,16,15,Jits_Phase_8,1,5,63,98,1825491656
75,16,15,Jits_Phase_8,2,5,80,127,1825540588
75,16,15,Jits_Phase_8,3,5,56,103,1825561044
75,16,15,Jits_Phase_8,0,1,48,68,1826263140
75,16,15,Jits_Phase_8,1,5,80,127,1826330896
75,16,15,Jits_Phase_8,2,5,56,103,1826360632
75,16,15,Jits_Phase_8,3,5,63,98,1826363696
75,16,15,Jits_Phase_8,0,1,48,65,1827088744
75,16,15,Jits_Phase_8,1,5,63,98,1827180992
75,16,15,Jits_Phase_8,2,5,56,103,1827220944
75,16,15,Jits_Phase_8,3,5,80,127,1827241400
75,16,15,Jits_Phase_8,0,5,80,127,1827940608
75,16,15,Jits_Phase_8,1,1,48,55,1827988316
75,16,15,Jits_Phase_8,2,5,63,98,1828020644
75,16,15,Jits_Phase_8,3,5,56,103,1828060656
75,16,15,Jits_Phase_8,0,5,63,98,1828761308
75,16,15,Jits_Phase_8,1,1,48,61,1828776484
75,16,15,Jits_Phase_8,2,5,80,127,1828840800
75,16,15,Jits_Phase_8,3,5,56,103,1828861332
75,16,15,Jits_Phase_8,0,1,48,60,1829571084
75,16,15,Jits_Phase_8,1,5,56,103,1829600704
75,16,15,Jits_Phase_8,2,5,63,98,1829611048
75,16,15,Jits_Phase_8,3,5,80,127,1829650912
75,16,15,Jits_Phase_8,0,5,56,103,1830320456
75,16,15,Jits_Phase_8,1,5,80,127,1830323744
75,16,15,Jits_Phase_8,2,1,48,66,1830359092
75,16,15,Jits_Phase_8,3,5,63,98,1830460828
75,16,15,Jits_Phase_8,0,5,56,103,1831111148
75,16,15,Jits_Phase_8,1,1,48,54,1831165732
75,16,15,Jits_Phase_8,2,5,63,98,1831201424
75,16,15,Jits_Phase_8,3,5,80,127,1831270792
75,16,15,Jits_Phase_8,0,1,48,56,1831915608
75,16,15,Jits_Phase_8,1,5,63,98,1831990708
75,16,15,Jits_Phase_8,2,5,80,127,1831993924
75,16,15,Jits_Phase_8,3,5,56,103,1832051008
75,16,15,Jits_Phase_8,0,1,48,62,1832769460
75,16,15,Jits_Phase_8,1,5,80,127,1832831468
75,16,15,Jits_Phase_8,2,5,56,103,1832850880
75,16,15,Jits_Phase_8,3,5,63,98,1832862256
75,16,15,Jits_Phase_8,0,5,56,103,1833541088
75,16,15,Jits_Phase_8,1,5,63,98,1833551432
75,16,15,Jits_Phase_8,2,5,80,127,1833620764
75,16,15,Jits_Phase_8,3,1,48,65,1833634516
75,16,15,Jits_Phase_8,0,5,80,127,1834340636
75,16,15,Jits_Phase_8,1,1,48,63,1834388888
75,16,15,Jits_Phase_8,2,5,56,103,1834390856
75,16,15,Jits_Phase_8,3,5,63,98,1834441204
75,16,15,Jits_Phase_8,0,1,48,63,1835164824
75,16,15,Jits_Phase_8,1,5,56,103,1835221268
75,16,15,Jits_Phase_8,2,5,63,98,1835230492
75,16,15,Jits_Phase_8,3,5,80,127,1835270492
75,16,15,Jits_Phase_8,0,5,56,103,1835960804
75,16,15,Jits_Phase_8,1,1,48,65,1835992016
75,16,15,Jits_Phase_8,2,5,63,98,1836000660
75,16,15,Jits_Phase_8,3,5,80,127,1836050936
75,16,15,Jits_Phase_8,0,5,80,127,1836720644
75,16,15,Jits_Phase_8,1,5,56,103,1836770624
75,16,15,Jits_Phase_8,2,1,48,65,1836782808
75,16,15,Jits_Phase_8,3,5,63,98,1836791224
75,16,15,Jits_Phase_8,0,5,80,127,1837530452
75,16,15,Jits_Phase_8,1,1,48,64,1837568640
75,16,15,Jits_Phase_8,2,5,63,98,1837590912
75,16,15,Jits_Phase_8,3,5,56,103,1837670836
75,16,15,Jits_Phase_8,0,5,80,127,1838310672
75,16,15,Jits_Phase_8,1,5,56,103,1838350684
75,16,15,Jits_Phase_8,2,5,63,98,1838371216
75,16,15,Jits_Phase_8,3,1,48,62,1838387592
75,16,15,Jits_Phase_8,0,1,48,57,1839156020
75,16,15,Jits_Phase_8,1,5,56,103,1839160776
75,16,15,Jits_Phase_8,2,5,80,127,1839170896
75,16,15,Jits_Phase_8,3,5,63,98,1839210984
75,16,15,Jits_Phase_8,0,1,48,66,1839936672
75,16,15,Jits_Phase_8,1,5,56,103,1840031264
75,16,15,Jits_Phase_8,2,5,63,98,1840071128
75,16,15,Jits_Phase_8,3,5,80,127,1840074268
75,16,15,Jits_Phase_8,0,5,63,98,1840700736
75,16,15,Jits_Phase_8,1,5,80,127,1840740748
75,16,15,Jits_Phase_8,2,1,48,57,1840784720
75,16,15,Jits_Phase_8,3,5,56,103,1840811268
75,16,15,Jits_Phase_8,0,5,63,98,1841471124
75,16,15,Jits_Phase_8,1,5,56,103,1841550648
75,16,15,Jits_Phase_8,2,1,48,56,1841570328
75,16,15,Jits_Phase_8,3,5,80,127,1841611252
75,16,15,Jits_Phase_8,0,5,80,127,1842280852
75,16,15,Jits_Phase_8,1,1,48,57,1842330552
75,16,15,Jits_Phase_8,2,5,63,98,1842332044
75,16,15,Jits_Phase_8,3,5,56,103,1842360672
75,16,15,Jits_Phase_8,0,5,56,103,1843071280
75,16,15,Jits_Phase_8,1,1,48,64,1843103388
75,16,15,Jits_Phase_8,2,5,63,98,1843120428
75,16,15,Jits_Phase_8,3,5,80,127,1843130624
75,16,15,Jits_Phase_8,0,1,48,63,1843877300
75,16,15,Jits_Phase_8,1,5,56,103,1843881452
75,16,15,Jits_Phase_8,2,5,63,98,1843990980
75,16,15,Jits_Phase_8,3,5,80,127,1844011288
75,16,15,Jits_Phase_8,0,1,48,57,1844667916
75,16,15,Jits_Phase_8,1,5,63,98,1844681212
75,16,15,Jits_Phase_8,2,5,80,127,1844731192
75,16,15,Jits_Phase_8,3,5,56,103,1844821232
75,16,15,Jits_Phase_8,0,5,63,98,1845470564
75,16,15,Jits_Phase_8,1,5,80,127,1845501288
75,16,15,Jits_Phase_8,2,1,48,60,1845563288
75,16,15,Jits_Phase_8,3,5,56,103,1845591412
75,16,15,Jits_Phase_8,0,5,63,98,1846271288
75,16,15,Jits_Phase_8,1,5,56,103,1846280516
75,16,15,Jits_Phase_8,2,1,48,69,1846358408
75,16,15,Jits_Phase_8,3,5,80,127,1846381124
75,16,15,Jits_Phase_8,0,1,48,65,1847107716
75,16,15,Jits_Phase_8,1,5,63,98,1847170408
75,16,15,Jits_Phase_8,2,5,80,127,1847201208
75,16,15,Jits_Phase_8,3,5,56,103,1847231016
75,16,15,Jits_Phase_8,0,1,48,65,1847945420
75,16,15,Jits_Phase_8,1,5,80,127,1847990628
75,16,15,Jits_Phase_8,2,5,63,98,1848000896
75,16,15,Jits_Phase_8,3,5,56,103,1848030648
75,16,15,Jits_Phase_8,0,5,80,127,1848691028
75,16,15,Jits_Phase_8,1,5,63,98,1848710616
75,16,15,Jits_Phase_8,2,5,56,103,1848760664
75,16,15,Jits_Phase_8,3,1,48,62,1848784164
75,16,15,Jits_Phase_8,0,1,48,77,1849442288
75,16,15,Jits_Phase_8,1,5,63,98,1849520484
75,16,15,Jits_Phase_8,2,5,80,127,1849580936
75,16,15,Jits_Phase_8,3,5,56,103,1849601244
75,16,15,Jits_Phase_8,0,5,63,98,1850281216
75,16,15,Jits_Phase_8,1,1,48,61,1850325016
75,16,15,Jits_Phase_8,2,5,56,103,1850330364
75,16,15,Jits_Phase_8,3,5,80,127,1850340708
75,16,15,Jits_Phase_8,0,1,48,61,1851062876
75,16,15,Jits_Phase_8,1,5,56,103,1851110928
75,16,15,Jits_Phase_8,2,5,80,127,1851121124
75,16,15,Jits_Phase_8,3,5,63,98,1851221500
75,16,15,Jits_Phase_8,0,5,80,127,1851870536
75,16,15,Jits_Phase_8,1,1,48,60,1851875900
75,16,15,Jits_Phase_8,2,5,63,98,1851880948
75,16,15,Jits_Phase_8,3,5,56,103,1852031248
75,16,15,Jits_Phase_8,0,5,63,98,1852680496
75,16,15,Jits_Phase_8,1,5,80,127,1852720360
75,16,15,Jits_Phase_8,2,1,48,62,1852739364
75,16,15,Jits_Phase_8,3,5,56,103,1852801368
75,16,15,Jits_Phase_8,0,5,56,103,1853431248
75,16,15,Jits_Phase_8,1,5,80,127,1853530524
75,16,15,Jits_Phase_8,2,1,48,61,1853534320
75,16,15,Jits_Phase_8,3,5,63,98,1853550976
75,16,15,Jits_Phase_8,0,1,48,54,1854209052
75,16,15,Jits_Phase_8,1,5,80,127,1854251328
75,16,15,Jits_Phase_8,2,5,56,103,1854260628
75,16,15,Jits_Phase_8,3,5,63,98,1854350992
75,16,15,Jits_Phase_8,0,1,48,57,1854954036
75,16,15,Jits_Phase_8,1,5,56,103,1855051148
75,16,15,Jits_Phase_8,2,5,63,98,1855070564
75,16,15,Jits_Phase_8,3,5,80,127,1855150380
75,16,15,Jits_Phase_8,0,1,48,52,1855779352
75,16,15,Jits_Phase_8,1,5,63,98,1855800952
75,16,15,Jits_Phase_8,2,5,56,103,1855890944
75,16,15,Jits_Phase_8,3,5,80,127,1855894012
75,16,15,Jits_Phase_8,0,1,48,56,1856610348
75,16,15,Jits_Phase_8,1,5,56,103,1856631044
75,16,15,Jits_Phase_8,2,5,80,127,1856690564
75,16,15,Jits_Phase_8,3,5,63,98,1856700908
75,16,15,Jits_Phase_8,0,1,48,51,1857427344
75,16,15,Jits_Phase_8,1,5,80,127,1857481028
75,16,15,Jits_Phase_8,2,5,56,103,1857491296
75,16,15,Jits_Phase_8,3,5,63,98,1857494288
75,16,15,Jits_Phase_8,0,5,56,103,1858241000
75,16,15,Jits_Phase_8,1,1,48,58,1858249228
75,16,15,Jits_Phase_8,2,5,80,127,1858251040
75,16,15,Jits_Phase_8,3,5,63,98,1858270528
75,16,15,Jits_Phase_8,0,5,63,98,1859010952
75,16,15,Jits_Phase_8,1,1,48,65,1859013700
75,16,15,Jits_Phase_8,2,5,80,127,1859071412
75,16,15,Jits_Phase_8,3,5,56,103,1859120772
75,16,15,Jits_Phase_8,0,1,48,55,1859840500
75,16,15,Jits_Phase_8,1,5,63,98,1859890796
75,16,15,Jits_Phase_8,2,5,56,103,1859900916
75,16,15,Jits_Phase_8,3,5,80,127,1859951024
75,16,15,Jits_Phase_8,0,5,63,98,1860590916
75,16,15,Jits_Phase_8,1,5,80,127,1860610328
75,16,15,Jits_Phase_8,2,5,56,103,1860620896
75,16,15,Jits_Phase_8,3,1,48,54,1860689272
75,16,15,Jits_Phase_8,0,1,48,60,1861378352
75,16,15,Jits_Phase_8,1,5,63,98,1861390732
75,16,15,Jits_Phase_8,2,5,80,127,1861394168
75,16,15,Jits_Phase_8,3,5,56,103,1861430892
75,16,15,Jits_Phase_8,0,1,48,67,1862142864
75,16,15,Jits_Phase_8,1,5,63,98,1862261180
75,16,15,Jits_Phase_8,2,5,80,127,1862290660
75,16,15,Jits_Phase_8,3,5,56,103,1862301152
75,16,15,Jits_Phase_8,0,5,56,103,1863010840
75,16,15,Jits_Phase_8,1,5,80,127,1863041292
75,16,15,Jits_Phase_8,2,1,48,57,1863062240
75,16,15,Jits_Phase_8,3,5,63,98,1863071036
75,16,15,Jits_Phase_8,0,1,48,67,1863827604
75,16,15,Jits_Phase_8,1,5,63,98,1863910728
75,16,15,Jits_Phase_8,2,5,56,103,1863950872
75,16,15,Jits_Phase_8,3,5,80,127,1863953864
75,16,15,Jits_Phase_8,0,5,80,127,1864611220
75,16,15,Jits_Phase_8,1,1,48,64,1864686928
75,16,15,Jits_Phase_8,2,5,56,103,1864691084
75,16,15,Jits_Phase_8,3,5,63,98,1864741208
75,16,15,Jits_Phase_8,0,5,80,127,1865390392
75,16,15,Jits_Phase_8,1,5,56,103,1865410848
75,16,15,Jits_Phase_8,2,1,48,64,1865461096
75,16,15,Jits_Phase_8,3,5,63,98,1865500972
75,16,15,Jits_Phase_8,0,5,80,127,1866231212
75,16,15,Jits_Phase_8,1,1,48,60,1866234332
75,16,15,Jits_Phase_8,2,5,63,98,1866270996
75,16,15,Jits_Phase_8,3,5,56,103,1866311008
75,16,15,Jits_Phase_8,0,1,48,65,1866993792
75,16,15,Jits_Phase_8,1,5,63,98,1867041096
75,16,15,Jits_Phase_8,2,5,80,127,1867100648
75,16,15,Jits_Phase_8,3,5,56,103,1867131372
75,16,15,Jits_Phase_8,0,1,48,62,1867815340
75,16,15,Jits_Phase_8,1,5,56,103,1867880708
75,16,15,Jits_Phase_8,2,5,80,127,1867910688
75,16,15,Jits_Phase_8,3,5,63,98,1868000892
75,16,15,Jits_Phase_8,0,1,48,59,1868690376
75,16,15,Jits_Phase_8,1,5,56,103,1868691868
75,16,15,Jits_Phase_8,2,5,80,127,1868801320
75,16,15,Jits_Phase_8,3,5,63,98,1868831072
75,16,15,Jits_Phase_8,0,1,48,62,1869510640
75,16,15,Jits_Phase_8,1,5,56,103,1869540636
75,16,15,Jits_Phase_8,2,5,63,98,1869601024
75,16,15,Jits_Phase_8,3,5,80,127,1869630836
75,16,15,Jits_Phase_8,0,1,48,62,1870302008
75,16,15,Jits_Phase_8,1,5,56,103,1870310728
75,16,15,Jits_Phase_8,2,5,63,98,1870381384
75,16,15,Jits_Phase_8,3,5,80,127,1870400852
75,16,15,Jits_Phase_8,0,5,80,127,1871080752
75,16,15,Jits_Phase_8,1,1,48,59,1871084316
75,16,15,Jits_Phase_8,2,5,63,98,1871101576
75,16,15,Jits_Phase_8,3,5,56,103,1871150580
75,16,15,Jits_Phase_8,0,1,48,57,1871890680
75,16,15,Jits_Phase_8,1,5,63,98,1871900968
75,16,15,Jits_Phase_8,2,5,80,127,1871911536
75,16,15,Jits_Phase_8,3,5,56,103,1871960612
75,16,15,Jits_Phase_8,0,5,63,98,1872700876
75,16,15,Jits_Phase_8,1,1,48,64,1872722056
75,16,15,Jits_Phase_8,2,5,80,127,1872770576
75,16,15,Jits_Phase_8,3,5,56,103,1872790960
75,16,15,Jits_Phase_8,0,5,63,98,1873531348
75,16,15,Jits_Phase_8,1,5,80,127,1873534736
75,16,15,Jits_Phase_8,2,1,48,60,1873546920
75,16,15,Jits_Phase_8,3,5,56,103,1873601044
75,16,15,Jits_Phase_8,0,5,80,127,1874280680
75,16,15,Jits_Phase_8,1,5,56,103,1874301536
75,16,15,Jits_Phase_8,2,5,63,98,1874310460
75,16,15,Jits_Phase_8,3,1,48,58,1874343616
75,16,15,Jits_Phase_8,0,1,48,54,1875076004
75,16,15,Jits_Phase_8,1,5,56,103,1875101064
75,16,15,Jits_Phase_8,2,5,63,98,1875191252
75,16,15,Jits_Phase_8,3,5,80,127,1875194616
75,16,15,Jits_Phase_8,0,1,48,59,1875840704
75,16,15,Jits_Phase_8,1,5,80,127,1875870996
75,16,15,Jits_Phase_8,2,5,56,103,1875881416
75,16,15,Jits_Phase_8,3,5,63,98,1875900828
75,16,15,Jits_Phase_8,0,1,48,61,1876618352
75,16,15,Jits_Phase_8,1,5,63,98,1876670892
75,16,15,Jits_Phase_8,2,5,80,127,1876731492
75,16,15,Jits_Phase_8,3,5,56,103,1876740492
75,16,15,Jits_Phase_8,0,1,48,61,1877432412
75,16,15,Jits_Phase_8,1,5,63,98,1877541504
75,16,15,Jits_Phase_8,2,5,80,127,1877571032
75,16,15,Jits_Phase_8,3,5,56,103,1877610968
75,16,15,Jits_Phase_8,0,1,48,60,1878276148
75,16,15,Jits_Phase_8,1,5,56,103,1878330724
75,16,15,Jits_Phase_8,2,5,80,127,1878340844
75,16,15,Jits_Phase_8,3,5,63,98,1878380840
75,16,15,Jits_Phase_8,0,1,48,59,1879050368
75,16,15,Jits_Phase_8,1,5,80,127,1879090544
75,16,15,Jits_Phase_8,2,5,56,103,1879170352
75,16,15,Jits_Phase_8,3,5,63,98,1879180624
75,16,15,Jits_Phase_8,0,1,48,57,1879875884
75,16,15,Jits_Phase_8,1,5,80,127,1879940376
75,16,15,Jits_Phase_8,2,5,56,103,1880021504
75,16,15,Jits_Phase_8,3,5,63,98,1880030504
75,16,15,Jits_Phase_8,0,1,48,59,1880758628
75,16,15,Jits_Phase_8,1,5,80,127,1880781124
75,16,15,Jits_Phase_8,2,5,56,103,1880831328
75,16,15,Jits_Phase_8,3,5,63,98,1880880468
75,16,15,Jits_Phase_8,0,1,48,57,1881608724
75,16,15,Jits_Phase_8,1,5,56,103,1881721184
75,16,15,Jits_Phase_8,2,5,63,98,1881724276
75,16,15,Jits_Phase_8,3,5,80,127,1881771336
75,16,15,Jits_Phase_8,0,1,48,52,1882523876
75,16,15,Jits_Phase_8,1,5,56,103,1882541360
75,16,15,Jits_Phase_8,2,5,63,98,1882571332
75,16,15,Jits_Phase_8,3,5,80,127,1882581308
75,16,15,Jits_Phase_8,0,5,63,98,1883251348
75,16,15,Jits_Phase_8,1,5,56,103,1883320684
75,16,15,Jits_Phase_8,2,1,48,55,1883341188
75,16,15,Jits_Phase_8,3,5,80,127,1883370952
75,16,15,Jits_Phase_8,0,1,48,62,1884071784
75,16,15,Jits_Phase_8,1,5,63,98,1884080428
75,16,15,Jits_Phase_8,2,5,56,103,1884090768
75,16,15,Jits_Phase_8,3,5,80,127,1884093688
75,16,15,Jits_Phase_8,0,1,48,63,1884829364
75,16,15,Jits_Phase_8,1,5,80,127,1884831100
75,16,15,Jits_Phase_8,2,5,56,103,1884890444
75,16,15,Jits_Phase_8,3,5,63,98,1884980632
75,16,15,Jits_Phase_8,0,5,80,127,1885630788
75,16,15,Jits_Phase_8,1,1,48,67,1885646040
75,16,15,Jits_Phase_8,2,5,56,103,1885731328
75,16,15,Jits_Phase_8,3,5,63,98,1885771324
75,16,15,Jits_Phase_8,0,5,56,103,1886480760
75,16,15,Jits_Phase_8,1,5,63,98,1886501516
75,16,15,Jits_Phase_8,2,1,48,63,1886512432
75,16,15,Jits_Phase_8,3,5,80,127,1886541148
75,16,15,Jits_Phase_8,0,5,63,98,1887250860
75,16,15,Jits_Phase_8,1,5,56,103,1887271320
75,16,15,Jits_Phase_8,2,1,48,58,1887296984
75,16,15,Jits_Phase_8,3,5,80,127,1887370536
75,16,15,Jits_Phase_8,0,5,63,98,1888041328
75,16,15,Jits_Phase_8,1,1,48,62,1888081988
75,16,15,Jits_Phase_8,2,5,80,127,1888151032
75,16,15,Jits_Phase_8,3,5,56,103,1888180472
75,16,15,Jits_Phase_8,0,5,56,103,1888860420
75,16,15,Jits_Phase_8,1,1,48,61,1888870956
75,16,15,Jits_Phase_8,2,5,63,98,1888891132
75,16,15,Jits_Phase_8,3,5,80,127,1888941556
75,16,15,Jits_Phase_8,0,5,63,98,1889630492
75,16,15,Jits_Phase_8,1,5,56,103,1889661388
75,16,15,Jits_Phase_8,2,1,48,60,1889662728
75,16,15,Jits_Phase_8,3,5,80,127,1889710388
75,16,15,Jits_Phase_8,0,1,48,59,1890439828
75,16,15,Jits_Phase_8,1,5,56,103,1890461128
75,16,15,Jits_Phase_8,2,5,63,98,1890480468
75,16,15,Jits_Phase_8,3,5,80,127,1890561364
75,16,15,Jits_Phase_8,0,1,48,64,1891230316
75,16,15,Jits_Phase_8,1,5,63,98,1891231888
75,16,15,Jits_Phase_8,2,5,56,103,1891290560
75,16,15,Jits_Phase_8,3,5,80,127,1891321356
75,16,15,Jits_Phase_8,0,1,48,59,1892055292
75,16,15,Jits_Phase_8,1,5,56,103,1892070680
75,16,15,Jits_Phase_8,2,5,80,127,1892131368
75,16,15,Jits_Phase_8,3,5,63,98,1892171292
75,16,15,Jits_Phase_8,0,5,63,98,1892851264
75,16,15,Jits_Phase_8,1,1,48,57,1892873268
75,16,15,Jits_Phase_8,2,5,56,103,1892910380
75,16,15,Jits_Phase_8,3,5,80,127,1892981240
75,16,15,Jits_Phase_8,0,1,48,52,1893657800
75,16,15,Jits_Phase_8,1,5,56,103,1893730736
75,16,15,Jits_Phase_8,2,5,63,98,1893740852
75,16,15,Jits_Phase_8,3,5,80,127,1893744216
75,16,15,Jits_Phase_8,0,5,63,98,1894471004
75,16,15,Jits_Phase_8,1,1,48,55,1894486108
75,16,15,Jits_Phase_8,2,5,56,103,1894530368
75,16,15,Jits_Phase_8,3,5,80,127,1894533432
75,16,15,Jits_Phase_8,0,5,63,98,1895251272
75,16,15,Jits_Phase_8,1,1,48,55,1895260172
75,16,15,Jits_Phase_8,2,5,80,127,1895281016
75,16,15,Jits_Phase_8,3,5,56,103,1895300604
75,16,15,Jits_Phase_8,0,5,56,103,1895981424
75,16,15,Jits_Phase_8,1,5,63,98,1896030580
75,16,15,Jits_Phase_8,2,1,48,55,1896040368
75,16,15,Jits_Phase_8,3,5,80,127,1896110540
75,16,15,Jits_Phase_8,0,5,80,127,1896680964
75,16,15,Jits_Phase_8,1,5,63,98,1896720680
75,16,15,Jits_Phase_8,2,5,56,103,1896741216
75,16,15,Jits_Phase_8,3,1,48,53,1896829912
75,16,15,Jits_Phase_8,0,5,56,103,1897551160
75,16,15,Jits_Phase_8,1,5,80,127,1897560384
75,16,15,Jits_Phase_8,2,5,63,98,1897581140
75,16,15,Jits_Phase_8,3,1,48,53,1897598284
75,16,15,Jits_Phase_8,0,5,56,103,1898330408
75,16,15,Jits_Phase_8,1,1,48,56,1898334504
75,16,15,Jits_Phase_8,2,5,63,98,1898380632
75,16,15,Jits_Phase_8,3,5,80,127,1898411352
75,16,15,Jits_Phase_8,0,5,56,103,1899081188
75,16,15,Jits_Phase_8,1,5,63,98,1899091236
75,16,15,Jits_Phase_8,2,1,48,55,1899139132
75,16,15,Jits_Phase_8,3,5,80,127,1899140480
75,16,15,Jits_Phase_8,0,1,48,56,1899856416
75,16,15,Jits_Phase_8,1,5,56,103,1899870608
75,16,15,Jits_Phase_8,2,5,80,127,1899873524
75,16,15,Jits_Phase_8,3,5,63,98,1900031392
75,16,15,Jits_Phase_8,0,1,48,54,1900675816
75,16,15,Jits_Phase_8,1,5,63,98,1900691056
75,16,15,Jits_Phase_8,2,5,56,103,1900760368
75,16,15,Jits_Phase_8,3,5,80,127,1900801336
75,16,15,Jits_Phase_8,0,1,48,59,1901461124
75,16,15,Jits_Phase_8,1,5,63,98,1901530452
75,16,15,Jits_Phase_8,2,5,56,103,1901620644
75,16,15,Jits_Phase_8,3,5,80,127,1901623860
75,16,15,Jits_Phase_8,0,1,48,57,1902310208
75,16,15,Jits_Phase_8,1,5,56,103,1902311776
75,16,15,Jits_Phase_8,2,5,63,98,1902401084
75,16,15,Jits_Phase_8,3,5,80,127,1902411192
75,16,15,Jits_Phase_8,0,5,56,103,1903080976
75,16,15,Jits_Phase_8,1,1,48,57,1903128064
75,16,15,Jits_Phase_8,2,5,63,98,1903131096
75,16,15,Jits_Phase_8,3,5,80,127,1903160772
75,16,15,Jits_Phase_8,0,1,48,60,1903900472
75,16,15,Jits_Phase_8,1,5,63,98,1903960436
75,16,15,Jits_Phase_8,2,5,80,127,1903970780
75,16,15,Jits_Phase_8,3,5,56,103,1904031176
75,16,15,Jits_Phase_8,0,5,63,98,1904681236
75,16,15,Jits_Phase_8,1,1,48,58,1904710736
75,16,15,Jits_Phase_8,2,5,80,127,1904740796
75,16,15,Jits_Phase_8,3,5,56,103,1904780612
75,16,15,Jits_Phase_8,0,1,48,63,1905456156
75,16,15,Jits_Phase_8,1,5,56,103,1905581612
75,16,15,Jits_Phase_8,2,5,80,127,1905601096
75,16,15,Jits_Phase_8,3,5,63,98,1905621332
75,16,15,Jits_Phase_8,0,5,63,98,1906301236
75,16,15,Jits_Phase_8,1,5,56,103,1906320724
75,16,15,Jits_Phase_8,2,1,48,51,1906325332
75,16,15,Jits_Phase_8,3,5,80,127,1906360800
75,16,15,Jits_Phase_8,0,1,48,55,1907087760
75,16,15,Jits_Phase_8,1,5,63,98,1907111172
75,16,15,Jits_Phase_8,2,5,80,127,1907141072
75,16,15,Jits_Phase_8,3,5,56,103,1907160336
75,16,15,Jits_Phase_8,0,1,48,58,1907856876
75,16,15,Jits_Phase_8,1,5,80,127,1907881408
75,16,15,Jits_Phase_8,2,5,56,103,1907930344
75,16,15,Jits_Phase_8,3,5,63,98,1907990792
75,16,15,Jits_Phase_8,0,1,48,54,1908656336
75,16,15,Jits_Phase_8,1,5,63,98,1908670752
75,16,15,Jits_Phase_8,2,5,56,103,1908790912
75,16,15,Jits_Phase_8,3,5,80,127,1908821264
75,16,15,Jits_Phase_8,0,5,80,127,1909510380
75,16,15,Jits_Phase_8,1,5,63,98,1909531136
75,16,15,Jits_Phase_8,2,1,48,52,1909564892
75,16,15,Jits_Phase_8,3,5,56,103,1909600808
75,16,15,Jits_Phase_8,0,5,63,98,1910330828
75,16,15,Jits_Phase_8,1,5,56,103,1910340952
75,16,15,Jits_Phase_8,2,1,48,57,1910352988
75,16,15,Jits_Phase_8,3,5,80,127,1910420912
75,16,15,Jits_Phase_8,0,1,48,54,1911117512
75,16,15,Jits_Phase_8,1,5,56,103,1911190848
75,16,15,Jits_Phase_8,2,5,80,127,1911220804
75,16,15,Jits_Phase_8,3,5,63,98,1911231000
75,16,15,Jits_Phase_8,0,9999,9999,9999,1776348280
75,16,15,Jits_Phase_8,1,9999,9999,9999,1777149048
75,16,15,Jits_Phase_8,2,9999,9999,9999,1777948784
75,16,15,Jits_Phase_8,3,9999,9999,9999,1778748520
75,16,15,Jits_Phase_8,4,9999,9999,9999,1779548228
75,16,15,Jits_Phase_8,5,9999,9999,9999,1780349036
75,16,15,Jits_Phase_8,6,9999,9999,9999,1781148736
75,16,15,Jits_Phase_8,7,9999,9999,9999,1781948512
75,16,15,Jits_Phase_8,8,9999,9999,9999,1782748276
75,16,15,Jits_Phase_8,9,9999,9999,9999,1783548992
75,16,15,Jits_Phase_8,10,9999,9999,9999,1784348768
75,16,15,Jits_Phase_8,11,9999,9999,9999,1785148528
75,16,15,Jits_Phase_8,12,9999,9999,9999,1785948228
75,16,15,Jits_Phase_8,13,9999,9999,9999,1786749044
75,16,15,Jits_Phase_8,14,9999,9999,9999,1787548732
75,16,15,Jits_Phase_8,15,9999,9999,9999,1788348480
75,16,15,Jits_Phase_8,16,9999,9999,9999,1789148224
75,16,15,Jits_Phase_8,17,9999,9999,9999,1789949032
75,16,15,Jits_Phase_8,18,9999,9999,9999,1790748796
75,16,15,Jits_Phase_8,19,9999,9999,9999,1791548480
75,16,15,Jits_Phase_8,20,9999,9999,9999,1792348236
75,16,15,Jits_Phase_8,21,9999,9999,9999,1793149040
75,16,15,Jits_Phase_8,22,9999,9999,9999,1793948732
75,16,15,Jits_Phase_8,23,9999,9999,9999,1794748488
75,16,15,Jits_Phase_8,24,9999,9999,9999,1795548240
75,16,15,Jits_Phase_8,25,9999,9999,9999,1796349044
75,16,15,Jits_Phase_8,26,9999,9999,9999,1797148728
75,16,15,Jits_Phase_8,27,9999,9999,9999,1797948484
75,16,15,Jits_Phase_8,28,9999,9999,9999,1798748256
75,16,15,Jits_Phase_8,29,9999,9999,9999,1799549008
75,16,15,Jits_Phase_8,30,9999,9999,9999,1800328256
75,16,15,Jits_Phase_8,31,9999,9999,9999,1801129060
75,16,15,Jits_Phase_8,32,9999,9999,9999,1801928756
75,16,15,Jits_Phase_8,33,9999,9999,9999,1802728512
75,16,15,Jits_Phase_8,34,9999,9999,9999,1803528280
75,16,15,Jits_Phase_8,35,9999,9999,9999,1804329016
75,16,15,Jits_Phase_8,36,9999,9999,9999,1805128776
75,16,15,Jits_Phase_8,37,9999,9999,9999,1805928540
75,16,15,Jits_Phase_8,38,9999,9999,9999,1806728256
75,16,15,Jits_Phase_8,39,9999,9999,9999,1807529080
75,16,15,Jits_Phase_8,40,9999,9999,9999,1808328780
75,16,15,Jits_Phase_8,41,9999,9999,9999,1809128552
75,16,15,Jits_Phase_8,42,9999,9999,9999,1809928304
75,16,15,Jits_Phase_8,43,9999,9999,9999,1810729036
75,16,15,Jits_Phase_8,44,9999,9999,9999,1811528832
75,16,15,Jits_Phase_8,45,9999,9999,9999,1812328520
75,16,15,Jits_Phase_8,46,9999,9999,9999,1813128316
75,16,15,Jits_Phase_8,47,9999,9999,9999,1813929056
75,16,15,Jits_Phase_8,48,9999,9999,9999,1814748232
75,16,15,Jits_Phase_8,49,9999,9999,9999,1815549036
75,16,15,Jits_Phase_8,50,9999,9999,9999,1816348792
75,16,15,Jits_Phase_8,51,9999,9999,9999,1817148476
75,16,15,Jits_Phase_8,52,9999,9999,9999,1817948236
75,16,15,Jits_Phase_8,53,9999,9999,9999,1818749048
75,16,15,Jits_Phase_8,54,9999,9999,9999,1819548748
75,16,15,Jits_Phase_8,55,9999,9999,9999,1820348520
75,16,15,Jits_Phase_8,56,9999,9999,9999,1821148276
75,16,15,Jits_Phase_8,57,9999,9999,9999,1821949008
75,16,15,Jits_Phase_8,58,9999,9999,9999,1822748764
75,16,15,Jits_Phase_8,59,9999,9999,9999,1823548524
75,16,15,Jits_Phase_8,60,9999,9999,9999,1824348280
75,16,15,Jits_Phase_8,61,9999,9999,9999,1825149016
75,16,15,Jits_Phase_8,62,9999,9999,9999,1825948788
75,16,15,Jits_Phase_8,63,9999,9999,9999,1826748536
75,16,15,Jits_Phase_8,64,9999,9999,9999,1827588160
75,16,15,Jits_Phase_8,65,9999,9999,9999,1828388968
75,16,15,Jits_Phase_8,66,9999,9999,9999,1829188672
75,16,15,Jits_Phase_8,67,9999,9999,9999,1829988440
75,16,15,Jits_Phase_8,68,9999,9999,9999,1830788212
75,16,15,Jits_Phase_8,69,9999,9999,9999,1831588956
75,16,15,Jits_Phase_8,70,9999,9999,9999,1832388724
75,16,15,Jits_Phase_8,71,9999,9999,9999,1833188416
75,16,15,Jits_Phase_8,72,9999,9999,9999,1833988176
75,16,15,Jits_Phase_8,73,9999,9999,9999,1834788924
75,16,15,Jits_Phase_8,74,9999,9999,9999,1835588704
75,16,15,Jits_Phase_8,75,9999,9999,9999,1836388464
75,16,15,Jits_Phase_8,76,9999,9999,9999,1837188184
75,16,15,Jits_Phase_8,77,9999,9999,9999,1837988928
75,16,15,Jits_Phase_8,78,9999,9999,9999,1838788692
75,16,15,Jits_Phase_8,79,9999,9999,9999,1839588464
75,16,15,Jits_Phase_8,80,9999,9999,9999,1840388148
75,16,15,Jits_Phase_8,81,9999,9999,9999,1841149020
75,16,15,Jits_Phase_8,82,9999,9999,9999,1841948784
75,16,15,Jits_Phase_8,83,9999,9999,9999,1842748540
75,16,15,Jits_Phase_8,84,9999,9999,9999,1843548232
75,16,15,Jits_Phase_8,85,9999,9999,9999,1844348980
75,16,15,Jits_Phase_8,86,9999,9999,9999,1845148760
75,16,15,Jits_Phase_8,87,9999,9999,9999,1845948516
75,16,15,Jits_Phase_8,88,9999,9999,9999,1846748268
75,16,15,Jits_Phase_8,89,9999,9999,9999,1847549004
75,16,15,Jits_Phase_8,90,9999,9999,9999,1848348772
75,16,15,Jits_Phase_8,91,9999,9999,9999,1849148528
75,16,15,Jits_Phase_8,92,9999,9999,9999,1849948228
75,16,15,Jits_Phase_8,93,9999,9999,9999,1850749052
75,16,15,Jits_Phase_8,94,9999,9999,9999,1851548732
75,16,15,Jits_Phase_8,95,9999,9999,9999,1852348492
75,16,15,Jits_Phase_8,96,9999,9999,9999,1853148260
75,16,15,Jits_Phase_8,97,9999,9999,9999,1853868156
75,16,15,Jits_Phase_8,98,9999,9999,9999,1854668908
75,16,15,Jits_Phase_8,99,9999,9999,9999,1855468668
75,16,15,Jits_Phase_8,100,9999,9999,9999,1856268340
75,16,15,Jits_Phase_8,101,9999,9999,9999,1857068104
75,16,15,Jits_Phase_8,102,9999,9999,9999,1857868904
75,16,15,Jits_Phase_8,103,9999,9999,9999,1858668656
75,16,15,Jits_Phase_8,104,9999,9999,9999,1859468380
75,16,15,Jits_Phase_8,105,9999,9999,9999,1860268144
75,16,15,Jits_Phase_8,106,9999,9999,9999,1861068860
75,16,15,Jits_Phase_8,107,9999,9999,9999,1861868600
75,16,15,Jits_Phase_8,108,9999,9999,9999,1862668360
75,16,15,Jits_Phase_8,109,9999,9999,9999,1863468120
75,16,15,Jits_Phase_8,110,9999,9999,9999,1864268864
75,16,15,Jits_Phase_8,111,9999,9999,9999,1865068624
75,16,15,Jits_Phase_8,112,9999,9999,9999,1865868416
75,16,15,Jits_Phase_8,113,9999,9999,9999,1866668112
75,16,15,Jits_Phase_8,114,9999,9999,9999,1867548792
75,16,15,Jits_Phase_8,115,9999,9999,9999,1868348476
75,16,15,Jits_Phase_8,116,9999,9999,9999,1869148236
75,16,15,Jits_Phase_8,117,9999,9999,9999,1869949000
75,16,15,Jits_Phase_8,118,9999,9999,9999,1870748756
75,16,15,Jits_Phase_8,119,9999,9999,9999,1871548512
75,16,15,Jits_Phase_8,120,9999,9999,9999,1872348284
75,16,15,Jits_Phase_8,121,9999,9999,9999,1873149012
75,16,15,Jits_Phase_8,122,9999,9999,9999,1873948760
75,16,15,Jits_Phase_8,123,9999,9999,9999,1874748508
75,16,15,Jits_Phase_8,124,9999,9999,9999,1875548276
75,16,15,Jits_Phase_8,125,9999,9999,9999,1876349020
75,16,15,Jits_Phase_8,126,9999,9999,9999,1877148776
75,16,15,Jits_Phase_8,127,9999,9999,9999,1877948540
75,16,15,Jits_Phase_8,128,9999,9999,9999,1878748220
75,16,15,Jits_Phase_8,129,9999,9999,9999,1879549028
75,16,15,Jits_Phase_8,130,9999,9999,9999,1880348792
75,16,15,Jits_Phase_8,131,9999,9999,9999,1881308228
75,16,15,Jits_Phase_8,132,9999,9999,9999,1882109028
75,16,15,Jits_Phase_8,133,9999,9999,9999,1882908796
75,16,15,Jits_Phase_8,134,9999,9999,9999,1883708484
75,16,15,Jits_Phase_8,135,9999,9999,9999,1884508232
75,16,15,Jits_Phase_8,136,9999,9999,9999,1885308988
75,16,15,Jits_Phase_8,137,9999,9999,9999,1886108744
75,16,15,Jits_Phase_8,138,9999,9999,9999,1886908516
75,16,15,Jits_Phase_8,139,9999,9999,9999,1887708288
75,16,15,Jits_Phase_8,140,9999,9999,9999,1888509020
75,16,15,Jits_Phase_8,141,9999,9999,9999,1889308752
75,16,15,Jits_Phase_8,142,9999,9999,9999,1890108516
75,16,15,Jits_Phase_8,143,9999,9999,9999,1890908272
75,16,15,Jits_Phase_8,144,9999,9999,9999,1891709024
75,16,15,Jits_Phase_8,145,9999,9999,9999,1892508788
75,16,15,Jits_Phase_8,146,9999,9999,9999,1893308472
75,16,15,Jits_Phase_8,147,9999,9999,9999,1894108224
75,16,15,Jits_Phase_8,148,9999,9999,9999,1894909020
75,16,15,Jits_Phase_8,149,9999,9999,9999,1895708772
75,16,15,Jits_Phase_8,150,9999,9999,9999,1896348732
75,16,15,Jits_Phase_8,151,9999,9999,9999,1897148504
75,16,15,Jits_Phase_8,152,9999,9999,9999,1897948276
75,16,15,Jits_Phase_8,153,9999,9999,9999,1898749032
75,16,15,Jits_Phase_8,154,9999,9999,9999,1899548796
75,16,15,Jits_Phase_8,155,9999,9999,9999,1900348488
75,16,15,Jits_Phase_8,156,9999,9999,9999,1901148244
75,16,15,Jits_Phase_8,157,9999,9999,9999,1901949000
75,16,15,Jits_Phase_8,158,9999,9999,9999,1902748760
75,16,15,Jits_Phase_8,159,9999,9999,9999,1903548492
75,16,15,Jits_Phase_8,160,9999,9999,9999,1904348272
75,16,15,Jits_Phase_8,161,9999,9999,9999,1905149000
75,16,15,Jits_Phase_8,162,9999,9999,9999,1905948764
75,16,15,Jits_Phase_8,163,9999,9999,9999,1906748520
75,16,15,Jits_Phase_8,164,9999,9999,9999,1907548276
75,16,15,Jits_Phase_8,165,9999,9999,9999,1908349032
75,16,15,Jits_Phase_8,166,9999,9999,9999,1909148792
75,16,15,Jits_Phase_8,167,9999,9999,9999,1909948476
75,16,15,Jits_Phase_8,168,9999,9999,9999,1910748252
75,16,15,Jits_Phase_8,169,9999,9999,9999,1911548992
75,17,17,Jits_Phase_5,0,5,56,103,1920002528
75,17,17,Jits_Phase_5,1,5,63,98,1920005704
75,17,17,Jits_Phase_5,2,5,80,127,1920008820
75,17,17,Jits_Phase_5,0,5,56,103,1920502080
75,17,17,Jits_Phase_5,1,5,63,98,1920505180
75,17,17,Jits_Phase_5,2,5,80,127,1920508304
75,17,17,Jits_Phase_5,0,5,56,103,1921001956
75,17,17,Jits_Phase_5,1,5,80,127,1921012228
75,17,17,Jits_Phase_5,2,5,63,98,1921031564
75,17,17,Jits_Phase_5,0,5,63,98,1921452536
75,17,17,Jits_Phase_5,1,5,80,127,1921482064
75,17,17,Jits_Phase_5,2,5,56,103,1921492332
75,17,17,Jits_Phase_5,3,1,48,90,1921507060
75,17,17,Jits_Phase_5,0,1,48,95,1921976372
75,17,17,Jits_Phase_5,1,5,80,127,1922021732
75,17,17,Jits_Phase_5,2,5,56,103,1922031928
75,17,17,Jits_Phase_5,3,5,63,98,1922061676
75,17,17,Jits_Phase_5,0,5,63,98,1922512272
75,17,17,Jits_Phase_5,1,1,48,80,1922531656
75,17,17,Jits_Phase_5,2,5,56,103,1922541868
75,17,17,Jits_Phase_5,3,5,80,127,1922552360
75,17,17,Jits_Phase_5,0,5,56,103,1922961756
75,17,17,Jits_Phase_5,1,5,63,98,1923011884
75,17,17,Jits_Phase_5,2,1,48,85,1923017540
75,17,17,Jits_Phase_5,3,5,80,127,1923032708
75,17,17,Jits_Phase_5,0,5,80,127,1923461668
75,17,17,Jits_Phase_5,1,1,48,79,1923499856
75,17,17,Jits_Phase_5,2,5,63,98,1923511640
75,17,17,Jits_Phase_5,3,5,56,103,1923551576
75,17,17,Jits_Phase_5,0,5,56,103,1923962188
75,17,17,Jits_Phase_5,1,5,63,98,1923992008
75,17,17,Jits_Phase_5,2,1,48,79,1924014680
75,17,17,Jits_Phase_5,3,5,80,127,1924061532
75,17,17,Jits_Phase_5,0,5,56,103,1924461924
75,17,17,Jits_Phase_5,1,1,48,78,1924494884
75,17,17,Jits_Phase_5,2,5,80,127,1924522484
75,17,17,Jits_Phase_5,3,5,63,98,1924551932
75,17,17,Jits_Phase_5,0,5,56,103,1924971804
75,17,17,Jits_Phase_5,1,5,63,98,1924982076
75,17,17,Jits_Phase_5,2,1,48,74,1925016008
75,17,17,Jits_Phase_5,3,5,80,127,1925022032
75,17,17,Jits_Phase_5,0,5,63,98,1925462500
75,17,17,Jits_Phase_5,1,1,48,74,1925495360
75,17,17,Jits_Phase_5,2,5,80,127,1925542536
75,17,17,Jits_Phase_5,3,5,56,103,1925551460
75,17,17,Jits_Phase_5,0,1,48,79,1926005736
75,17,17,Jits_Phase_5,1,5,63,98,1926021608
75,17,17,Jits_Phase_5,2,5,56,103,1926061392
75,17,17,Jits_Phase_5,3,5,80,127,1926064460
75,17,17,Jits_Phase_5,0,5,56,103,1926482520
75,17,17,Jits_Phase_5,1,5,63,98,1926491524
75,17,17,Jits_Phase_5,2,5,80,127,1926531632
75,17,17,Jits_Phase_5,3,1,48,80,1926539704
75,17,17,Jits_Phase_5,0,5,56,103,1926971712
75,17,17,Jits_Phase_5,1,5,63,98,1926974928
75,17,17,Jits_Phase_5,2,5,80,127,1926992168
75,17,17,Jits_Phase_5,3,1,48,76,1927034788
75,17,17,Jits_Phase_5,0,5,80,127,1927481648
75,17,17,Jits_Phase_5,1,5,56,103,1927491920
75,17,17,Jits_Phase_5,2,1,48,74,1927518556
75,17,17,Jits_Phase_5,3,5,63,98,1927561540
75,17,17,Jits_Phase_5,0,5,63,98,1927972416
75,17,17,Jits_Phase_5,1,5,56,103,1927991608
75,17,17,Jits_Phase_5,2,1,48,75,1928035320
75,17,17,Jits_Phase_5,3,5,80,127,1928071412
75,17,17,Jits_Phase_5,0,5,56,103,1928482132
75,17,17,Jits_Phase_5,1,1,48,73,1928516484
75,17,17,Jits_Phase_5,2,5,80,127,1928522284
75,17,17,Jits_Phase_5,3,5,63,98,1928532556
75,17,17,Jits_Phase_5,0,5,80,127,1928971704
75,17,17,Jits_Phase_5,1,5,63,98,1929002352
75,17,17,Jits_Phase_5,2,1,48,74,1929010572
75,17,17,Jits_Phase_5,3,5,56,103,1929042504
75,17,17,Jits_Phase_5,0,5,56,103,1929491768
75,17,17,Jits_Phase_5,1,5,63,98,1929521516
75,17,17,Jits_Phase_5,2,1,48,77,1929527176
75,17,17,Jits_Phase_5,3,5,80,127,1929571708
75,17,17,Jits_Phase_5,0,5,80,127,1929991456
75,17,17,Jits_Phase_5,1,5,56,103,1930031620
75,17,17,Jits_Phase_5,2,1,48,74,1930032584
75,17,17,Jits_Phase_5,3,5,63,98,1930041660
75,17,17,Jits_Phase_5,0,5,80,127,1930471816
75,17,17,Jits_Phase_5,1,5,63,98,1930511752
75,17,17,Jits_Phase_5,2,1,48,80,1930529172
75,17,17,Jits_Phase_5,3,5,56,103,1930572284
75,17,17,Jits_Phase_5,0,5,56,103,1930971580
75,17,17,Jits_Phase_5,1,5,80,127,1930981700
75,17,17,Jits_Phase_5,2,1,48,69,1931045572
75,17,17,Jits_Phase_5,3,5,63,98,1931061484
75,17,17,Jits_Phase_5,0,5,80,127,1931472388
75,17,17,Jits_Phase_5,1,5,63,98,1931531580
75,17,17,Jits_Phase_5,2,1,48,76,1931548704
75,17,17,Jits_Phase_5,3,5,56,103,1931562516
75,17,17,Jits_Phase_5,0,5,56,103,1931971928
75,17,17,Jits_Phase_5,1,5,80,127,1932032392
75,17,17,Jits_Phase_5,2,1,48,75,1932048912
75,17,17,Jits_Phase_5,3,5,63,98,1932072396
75,17,17,Jits_Phase_5,0,5,56,103,1932521744
75,17,17,Jits_Phase_5,1,5,63,98,1932532232
75,17,17,Jits_Phase_5,2,5,80,127,1932535520
75,17,17,Jits_Phase_5,3,1,48,75,1932554532
75,17,17,Jits_Phase_5,0,5,80,127,1932972424
75,17,17,Jits_Phase_5,1,1,48,82,1933030616
75,17,17,Jits_Phase_5,2,5,63,98,1933061428
75,17,17,Jits_Phase_5,3,5,56,103,1933071620
75,17,17,Jits_Phase_5,0,5,56,103,1933482436
75,17,17,Jits_Phase_5,1,5,63,98,1933485536
75,17,17,Jits_Phase_5,2,5,80,127,1933488508
75,17,17,Jits_Phase_5,3,1,48,81,1933562576
75,17,17,Jits_Phase_5,0,5,80,127,1934001520
75,17,17,Jits_Phase_5,1,5,63,98,1934051648
75,17,17,Jits_Phase_5,2,1,48,84,1934058584
75,17,17,Jits_Phase_5,3,5,56,103,1934082364
75,17,17,Jits_Phase_5,0,5,56,103,1934481660
75,17,17,Jits_Phase_5,1,5,80,127,1934491928
75,17,17,Jits_Phase_5,2,5,63,98,1934561608
75,17,17,Jits_Phase_5,3,1,48,70,1934595216
75,17,17,Jits_Phase_5,0,5,56,103,1934991760
75,17,17,Jits_Phase_5,1,5,63,98,1935012296
75,17,17,Jits_Phase_5,2,5,80,127,1935071560
75,17,17,Jits_Phase_5,3,1,48,72,1935084116
75,17,17,Jits_Phase_5,0,5,80,127,1935471872
75,17,17,Jits_Phase_5,1,5,63,98,1935541576
75,17,17,Jits_Phase_5,2,5,56,103,1935562256
75,17,17,Jits_Phase_5,3,1,48,64,1935581340
75,17,17,Jits_Phase_5,0,5,80,127,1935992388
75,17,17,Jits_Phase_5,1,5,56,103,1936002656
75,17,17,Jits_Phase_5,2,5,63,98,1936011584
75,17,17,Jits_Phase_5,3,1,48,72,1936088256
75,17,17,Jits_Phase_5,0,5,80,127,1936481712
75,17,17,Jits_Phase_5,1,5,56,103,1936502316
75,17,17,Jits_Phase_5,2,5,63,98,1936571648
75,17,17,Jits_Phase_5,3,1,48,79,1936578428
75,17,17,Jits_Phase_5,0,5,56,103,1936991664
75,17,17,Jits_Phase_5,1,5,80,127,1937022260
75,17,17,Jits_Phase_5,2,5,63,98,1937041748
75,17,17,Jits_Phase_5,3,1,48,72,1937065836
75,17,17,Jits_Phase_5,0,5,63,98,1937482356
75,17,17,Jits_Phase_5,1,1,48,67,1937541428
75,17,17,Jits_Phase_5,2,5,56,103,1937542840
75,17,17,Jits_Phase_5,3,5,80,127,1937572440
75,17,17,Jits_Phase_5,0,5,63,98,1937971468
75,17,17,Jits_Phase_5,1,5,80,127,1937974836
75,17,17,Jits_Phase_5,2,1,48,73,1938018856
75,17,17,Jits_Phase_5,3,5,56,103,1938061544
75,17,17,Jits_Phase_5,0,5,56,103,1938491740
75,17,17,Jits_Phase_5,1,5,63,98,1938521488
75,17,17,Jits_Phase_5,2,1,48,73,1938530532
75,17,17,Jits_Phase_5,3,5,80,127,1938562416
75,17,17,Jits_Phase_5,0,5,63,98,1938991356
75,17,17,Jits_Phase_5,1,5,56,103,1939032416
75,17,17,Jits_Phase_5,2,1,48,78,1939039276
75,17,17,Jits_Phase_5,3,5,80,127,1939051972
75,17,17,Jits_Phase_5,0,1,48,73,1939498856
75,17,17,Jits_Phase_5,1,5,63,98,1939501440
75,17,17,Jits_Phase_5,2,5,56,103,1939542276
75,17,17,Jits_Phase_5,3,5,80,127,1939551500
75,17,17,Jits_Phase_5,0,5,80,127,1939981572
75,17,17,Jits_Phase_5,1,1,48,78,1939989944
75,17,17,Jits_Phase_5,2,5,63,98,1940052216
75,17,17,Jits_Phase_5,3,5,56,103,1940071924
75,17,17,Jits_Phase_5,0,5,56,103,1940472268
75,17,17,Jits_Phase_5,1,5,80,127,1940491608
75,17,17,Jits_Phase_5,2,1,48,83,1940520280
75,17,17,Jits_Phase_5,3,5,63,98,1940531464
75,17,17,Jits_Phase_5,0,5,63,98,1940982224
75,17,17,Jits_Phase_5,1,1,48,76,1941000808
75,17,17,Jits_Phase_5,2,5,80,127,1941002376
75,17,17,Jits_Phase_5,3,5,56,103,1941041564
75,17,17,Jits_Phase_5,0,5,63,98,1941481748
75,17,17,Jits_Phase_5,1,5,56,103,1941502360
75,17,17,Jits_Phase_5,2,5,80,127,1941511432
75,17,17,Jits_Phase_5,3,1,48,79,1941514552
75,17,17,Jits_Phase_5,0,5,80,127,1941981496
75,17,17,Jits_Phase_5,1,5,56,103,1942002252
75,17,17,Jits_Phase_5,2,1,48,79,1942006196
75,17,17,Jits_Phase_5,3,5,63,98,1942031696
75,17,17,Jits_Phase_5,0,1,48,78,1942508640
75,17,17,Jits_Phase_5,1,5,56,103,1942551976
75,17,17,Jits_Phase_5,2,5,80,127,1942554968
75,17,17,Jits_Phase_5,3,5,63,98,1942572508
75,17,17,Jits_Phase_5,0,5,63,98,1942971644
75,17,17,Jits_Phase_5,1,5,56,103,1943001320
75,17,17,Jits_Phase_5,2,1,48,76,1943059040
75,17,17,Jits_Phase_5,3,5,80,127,1943062144
75,17,17,Jits_Phase_5,0,1,48,74,1943542984
75,17,17,Jits_Phase_5,1,5,63,98,1943552296
75,17,17,Jits_Phase_5,2,5,56,103,1943561520
75,17,17,Jits_Phase_5,3,5,80,127,1943571792
75,17,17,Jits_Phase_5,0,5,56,103,1944012280
75,17,17,Jits_Phase_5,1,5,80,127,1944041804
75,17,17,Jits_Phase_5,2,5,63,98,1944052000
75,17,17,Jits_Phase_5,3,1,48,73,1944066652
75,17,17,Jits_Phase_5,0,1,48,72,1944545048
75,17,17,Jits_Phase_5,1,5,63,98,1944551672
75,17,17,Jits_Phase_5,2,5,56,103,1944562240
75,17,17,Jits_Phase_5,3,5,80,127,1944581356
75,17,17,Jits_Phase_5,0,5,56,103,1944981832
75,17,17,Jits_Phase_5,1,5,63,98,1945042296
75,17,17,Jits_Phase_5,2,5,80,127,1945045584
75,17,17,Jits_Phase_5,3,1,48,68,1945048108
75,17,17,Jits_Phase_5,0,5,80,127,1945502188
75,17,17,Jits_Phase_5,1,5,56,103,1945512384
75,17,17,Jits_Phase_5,2,1,48,82,1945535204
75,17,17,Jits_Phase_5,3,5,63,98,1945582132
75,17,17,Jits_Phase_5,0,5,80,127,1945991544
75,17,17,Jits_Phase_5,1,1,48,76,1946025600
75,17,17,Jits_Phase_5,2,5,56,103,1946062192
75,17,17,Jits_Phase_5,3,5,63,98,1946072388
75,17,17,Jits_Phase_5,0,5,63,98,1946532064
75,17,17,Jits_Phase_5,1,1,48,68,1946540388
75,17,17,Jits_Phase_5,2,5,56,103,1946542108
75,17,17,Jits_Phase_5,3,5,80,127,1946562112
75,17,17,Jits_Phase_5,0,5,80,127,1946981744
75,17,17,Jits_Phase_5,1,1,48,70,1947019344
75,17,17,Jits_Phase_5,2,5,63,98,1947042152
75,17,17,Jits_Phase_5,3,5,56,103,1947082236
75,17,17,Jits_Phase_5,0,5,56,103,1947522364
75,17,17,Jits_Phase_5,1,5,63,98,1947531588
75,17,17,Jits_Phase_5,2,1,48,68,1947558224
75,17,17,Jits_Phase_5,3,5,80,127,1947571516
75,17,17,Jits_Phase_5,0,5,56,103,1947982096
75,17,17,Jits_Phase_5,1,5,80,127,1948012144
75,17,17,Jits_Phase_5,2,1,48,71,1948049140
75,17,17,Jits_Phase_5,3,5,63,98,1948061988
75,17,17,Jits_Phase_5,0,5,56,103,1948522088
75,17,17,Jits_Phase_5,1,1,48,71,1948540748
75,17,17,Jits_Phase_5,2,5,63,98,1948561748
75,17,17,Jits_Phase_5,3,5,80,127,1948565260
75,17,17,Jits_Phase_5,0,5,56,103,1949021552
75,17,17,Jits_Phase_5,1,5,63,98,1949031896
75,17,17,Jits_Phase_5,2,1,48,68,1949047896
75,17,17,Jits_Phase_5,3,5,80,127,1949052124
75,17,17,Jits_Phase_5,0,5,56,103,1949482404
75,17,17,Jits_Phase_5,1,5,80,127,1949485544
75,17,17,Jits_Phase_5,2,5,63,98,1949522268
75,17,17,Jits_Phase_5,3,1,48,70,1949523828
75,17,17,Jits_Phase_5,0,1,48,77,1950007368
75,17,17,Jits_Phase_5,1,5,63,98,1950022156
75,17,17,Jits_Phase_5,2,5,56,103,1950051756
75,17,17,Jits_Phase_5,3,5,80,127,1950072312
75,17,17,Jits_Phase_5,0,5,80,127,1950492020
75,17,17,Jits_Phase_5,1,1,48,68,1950501616
75,17,17,Jits_Phase_5,2,5,56,103,1950503108
75,17,17,Jits_Phase_5,3,5,63,98,1950511508
75,17,17,Jits_Phase_5,0,1,48,77,1950989588
75,17,17,Jits_Phase_5,1,5,56,103,1950991776
75,17,17,Jits_Phase_5,2,5,80,127,1951032012
75,17,17,Jits_Phase_5,3,5,63,98,1951062436
75,17,17,Jits_Phase_5,0,5,63,98,1951501576
75,17,17,Jits_Phase_5,1,5,80,127,1951512144
75,17,17,Jits_Phase_5,2,1,48,69,1951515936
75,17,17,Jits_Phase_5,3,5,56,103,1951522108
75,17,17,Jits_Phase_5,0,5,56,103,1951992180
75,17,17,Jits_Phase_5,1,1,48,81,1951996348
75,17,17,Jits_Phase_5,2,5,63,98,1952061928
75,17,17,Jits_Phase_5,3,5,80,127,1952071976
75,17,17,Jits_Phase_5,0,1,48,77,1952499940
75,17,17,Jits_Phase_5,1,5,80,127,1952502056
75,17,17,Jits_Phase_5,2,5,56,103,1952512476
75,17,17,Jits_Phase_5,3,5,63,98,1952561552
75,17,17,Jits_Phase_5,0,1,48,76,1952999068
75,17,17,Jits_Phase_5,1,5,80,127,1953012064
75,17,17,Jits_Phase_5,2,5,56,103,1953071484
75,17,17,Jits_Phase_5,3,5,63,98,1953102112
75,17,17,Jits_Phase_5,0,5,56,103,1953511896
75,17,17,Jits_Phase_5,1,5,80,127,1953514884
75,17,17,Jits_Phase_5,2,1,48,71,1953544004
75,17,17,Jits_Phase_5,3,5,63,98,1953551748
75,17,17,Jits_Phase_5,0,1,48,82,1954025472
75,17,17,Jits_Phase_5,1,5,56,103,1954042212
75,17,17,Jits_Phase_5,2,5,63,98,1954071884
75,17,17,Jits_Phase_5,3,5,80,127,1954082304
75,17,17,Jits_Phase_5,0,1,48,80,1954537060
75,17,17,Jits_Phase_5,1,5,63,98,1954552224
75,17,17,Jits_Phase_5,2,5,80,127,1954562496
75,17,17,Jits_Phase_5,3,5,56,103,1954571572
75,17,17,Jits_Phase_5,0,5,80,127,1955001788
75,17,17,Jits_Phase_5,1,5,56,103,1955051840
75,17,17,Jits_Phase_5,2,5,63,98,1955054980
75,17,17,Jits_Phase_5,3,1,48,74,1955062976
75,17,17,Jits_Phase_5,0,5,56,103,1955532180
75,17,17,Jits_Phase_5,1,1,48,74,1955544292
75,17,17,Jits_Phase_5,2,5,80,127,1955551512
75,17,17,Jits_Phase_5,3,5,63,98,1955562004
75,17,17,Jits_Phase_5,0,5,63,98,1956012396
75,17,17,Jits_Phase_5,1,1,48,72,1956027048
75,17,17,Jits_Phase_5,2,5,56,103,1956041988
75,17,17,Jits_Phase_5,3,5,80,127,1956061696
75,17,17,Jits_Phase_5,0,1,48,70,1956515328
75,17,17,Jits_Phase_5,1,5,56,103,1956522476
75,17,17,Jits_Phase_5,2,5,80,127,1956531552
75,17,17,Jits_Phase_5,3,5,63,98,1956602348
75,17,17,Jits_Phase_5,0,5,63,98,1957011820
75,17,17,Jits_Phase_5,1,1,48,75,1957035840
75,17,17,Jits_Phase_5,2,5,80,127,1957051752
75,17,17,Jits_Phase_5,3,5,56,103,1957091912
75,17,17,Jits_Phase_5,0,5,56,103,1957522056
75,17,17,Jits_Phase_5,1,5,63,98,1957532032
75,17,17,Jits_Phase_5,2,1,48,68,1957549000
75,17,17,Jits_Phase_5,3,5,80,127,1957551584
75,17,17,Jits_Phase_5,0,1,48,66,1958024708
75,17,17,Jits_Phase_5,1,5,63,98,1958061376
75,17,17,Jits_Phase_5,2,5,80,127,1958081832
75,17,17,Jits_Phase_5,3,5,56,103,1958102440
75,17,17,Jits_Phase_5,0,5,56,103,1958501772
75,17,17,Jits_Phase_5,1,1,48,78,1958549652
75,17,17,Jits_Phase_5,2,5,80,127,1958581732
75,17,17,Jits_Phase_5,3,5,63,98,1958592076
75,17,17,Jits_Phase_5,0,5,80,127,1959042616
75,17,17,Jits_Phase_5,1,5,63,98,1959051768
75,17,17,Jits_Phase_5,2,1,48,77,1959065444
75,17,17,Jits_Phase_5,3,5,56,103,1959082480
75,17,17,Jits_Phase_5,0,5,63,98,1959502128
75,17,17,Jits_Phase_5,1,5,80,127,1959541992
75,17,17,Jits_Phase_5,2,1,48,79,1959543952
75,17,17,Jits_Phase_5,3,5,56,103,1959601572
75,17,17,Jits_Phase_5,0,5,63,98,1960012140
75,17,17,Jits_Phase_5,1,1,48,81,1960035488
75,17,17,Jits_Phase_5,2,5,56,103,1960062284
75,17,17,Jits_Phase_5,3,5,80,127,1960091960
75,17,17,Jits_Phase_5,0,5,80,127,1960511968
75,17,17,Jits_Phase_5,1,5,63,98,1960522240
75,17,17,Jits_Phase_5,2,1,48,83,1960527824
75,17,17,Jits_Phase_5,3,5,56,103,1960592008
75,17,17,Jits_Phase_5,0,1,48,86,1961036348
75,17,17,Jits_Phase_5,1,5,80,127,1961071968
75,17,17,Jits_Phase_5,2,5,56,103,1961082336
75,17,17,Jits_Phase_5,3,5,63,98,1961085476
75,17,17,Jits_Phase_5,0,5,56,103,1961512236
75,17,17,Jits_Phase_5,1,5,80,127,1961532020
75,17,17,Jits_Phase_5,2,5,63,98,1961542140
75,17,17,Jits_Phase_5,3,1,48,85,1961573952
75,17,17,Jits_Phase_5,0,5,63,98,1962022192
75,17,17,Jits_Phase_5,1,1,48,89,1962050192
75,17,17,Jits_Phase_5,2,5,56,103,1962062196
75,17,17,Jits_Phase_5,3,5,80,127,1962081608
75,17,17,Jits_Phase_5,0,5,63,98,1962522020
75,17,17,Jits_Phase_5,1,1,48,86,1962547008
75,17,17,Jits_Phase_5,2,5,56,103,1962582244
75,17,17,Jits_Phase_5,3,5,80,127,1962585468
75,17,17,Jits_Phase_5,0,5,56,103,1962982056
75,17,17,Jits_Phase_5,1,5,80,127,1963002288
75,17,17,Jits_Phase_5,2,1,48,79,1963035824
75,17,17,Jits_Phase_5,3,5,63,98,1963042072
75,17,17,Jits_Phase_5,0,5,56,103,1963512312
75,17,17,Jits_Phase_5,1,1,48,71,1963530896
75,17,17,Jits_Phase_5,2,5,63,98,1963532540
75,17,17,Jits_Phase_5,3,5,80,127,1963541988
75,17,17,Jits_Phase_5,0,5,80,127,1963982112
75,17,17,Jits_Phase_5,1,5,56,103,1964011860
75,17,17,Jits_Phase_5,2,1,48,77,1964023596
75,17,17,Jits_Phase_5,3,5,63,98,1964052088
75,17,17,Jits_Phase_5,0,5,80,127,1964492068
75,17,17,Jits_Phase_5,1,5,56,103,1964511776
75,17,17,Jits_Phase_5,2,1,48,81,1964516468
75,17,17,Jits_Phase_5,3,5,63,98,1964572008
75,17,17,Jits_Phase_5,0,5,56,103,1965002096
75,17,17,Jits_Phase_5,1,1,48,84,1965011512
75,17,17,Jits_Phase_5,2,5,80,127,1965021648
75,17,17,Jits_Phase_5,3,5,63,98,1965081960
75,17,17,Jits_Phase_5,0,5,80,127,1965482456
75,17,17,Jits_Phase_5,1,5,56,103,1965491904
75,17,17,Jits_Phase_5,2,5,63,98,1965531692
75,17,17,Jits_Phase_5,3,1,48,85,1965537276
75,17,17,Jits_Phase_5,0,5,63,98,1965981996
75,17,17,Jits_Phase_5,1,5,56,103,1966021932
75,17,17,Jits_Phase_5,2,5,80,127,1966024996
75,17,17,Jits_Phase_5,3,1,48,77,1966028264
75,17,17,Jits_Phase_5,0,5,63,98,1966502112
75,17,17,Jits_Phase_5,1,1,48,80,1966506876
75,17,17,Jits_Phase_5,2,5,80,127,1966542268
75,17,17,Jits_Phase_5,3,5,56,103,1966571868
75,17,17,Jits_Phase_5,0,5,56,103,1966991824
75,17,17,Jits_Phase_5,1,5,63,98,1967001948
75,17,17,Jits_Phase_5,2,1,48,84,1967019680
75,17,17,Jits_Phase_5,3,5,80,127,1967031764
75,17,17,Jits_Phase_5,0,5,80,127,1967482220
75,17,17,Jits_Phase_5,1,1,48,84,1967514552
75,17,17,Jits_Phase_5,2,5,63,98,1967551892
75,17,17,Jits_Phase_5,3,5,56,103,1967562088
75,17,17,Jits_Phase_5,0,5,63,98,1967981812
75,17,17,Jits_Phase_5,1,1,48,86,1968008920
75,17,17,Jits_Phase_5,2,5,56,103,1968051732
75,17,17,Jits_Phase_5,3,5,80,127,1968061852
75,17,17,Jits_Phase_5,0,5,63,98,1968462236
75,17,17,Jits_Phase_5,1,5,56,103,1968481720
75,17,17,Jits_Phase_5,2,1,48,87,1968514604
75,17,17,Jits_Phase_5,3,5,80,127,1968521676
75,17,17,Jits_Phase_5,0,5,56,103,1968941532
75,17,17,Jits_Phase_5,1,5,63,98,1968951728
75,17,17,Jits_Phase_5,2,1,48,83,1968982420
75,17,17,Jits_Phase_5,3,5,80,127,1969031684
75,17,17,Jits_Phase_5,0,5,63,98,1969431856
75,17,17,Jits_Phase_5,1,1,48,86,1969459864
75,17,17,Jits_Phase_5,2,5,56,103,1969461600
75,17,17,Jits_Phase_5,3,5,80,127,1969501684
75,17,17,Jits_Phase_5,0,5,56,103,1969931828
75,17,17,Jits_Phase_5,1,1,48,81,1969947904
75,17,17,Jits_Phase_5,2,5,63,98,1969971684
75,17,17,Jits_Phase_5,3,5,80,127,1970011620
75,17,17,Jits_Phase_5,0,5,80,127,1970432340
75,17,17,Jits_Phase_5,1,1,48,79,1970445424
75,17,17,Jits_Phase_5,2,5,56,103,1970512272
75,17,17,Jits_Phase_5,3,5,63,98,1970521500
75,17,17,Jits_Phase_5,0,1,48,79,1970967496
75,17,17,Jits_Phase_5,1,5,56,103,1970971952
75,17,17,Jits_Phase_5,2,5,63,98,1970975016
75,17,17,Jits_Phase_5,3,5,80,127,1970982372
75,17,17,Jits_Phase_5,0,1,48,78,1971473088
75,17,17,Jits_Phase_5,1,5,56,103,1971492148
75,17,17,Jits_Phase_5,2,5,63,98,1971511632
75,17,17,Jits_Phase_5,3,5,80,127,1971522052
75,17,17,Jits_Phase_5,0,5,63,98,1971951972
75,17,17,Jits_Phase_5,1,5,80,127,1971962168
75,17,17,Jits_Phase_5,2,1,48,81,1971975024
75,17,17,Jits_Phase_5,3,5,56,103,1971981724
75,17,17,Jits_Phase_5,0,5,63,98,1972451648
75,17,17,Jits_Phase_5,1,1,48,74,1972452912
75,17,17,Jits_Phase_5,2,5,56,103,1972531508
75,17,17,Jits_Phase_5,3,5,80,127,1972534648
75,17,17,Jits_Phase_5,0,5,63,98,1972952660
75,17,17,Jits_Phase_5,1,1,48,73,1972971396
75,17,17,Jits_Phase_5,2,5,56,103,1972972740
75,17,17,Jits_Phase_5,3,5,80,127,1973001740
75,17,17,Jits_Phase_5,0,5,56,103,1973452260
75,17,17,Jits_Phase_5,1,5,63,98,1973471524
75,17,17,Jits_Phase_5,2,1,48,78,1973479820
75,17,17,Jits_Phase_5,3,5,80,127,1973481788
75,17,17,Jits_Phase_5,0,1,48,78,1973972596
75,17,17,Jits_Phase_5,1,5,56,103,1973981612
75,17,17,Jits_Phase_5,2,5,63,98,1974012636
75,17,17,Jits_Phase_5,3,5,80,127,1974015772
75,17,17,Jits_Phase_5,0,5,56,103,1974442476
75,17,17,Jits_Phase_5,1,1,48,78,1974468740
75,17,17,Jits_Phase_5,2,5,63,98,1974482408
75,17,17,Jits_Phase_5,3,5,80,127,1974541672
75,17,17,Jits_Phase_5,0,5,56,103,1974961496
75,17,17,Jits_Phase_5,1,5,63,98,1974971692
75,17,17,Jits_Phase_5,2,1,48,76,1974973180
75,17,17,Jits_Phase_5,3,5,80,127,1975032144
75,17,17,Jits_Phase_5,0,5,56,103,1975462232
75,17,17,Jits_Phase_5,1,5,80,127,1975481720
75,17,17,Jits_Phase_5,2,1,48,84,1975491212
75,17,17,Jits_Phase_5,3,5,63,98,1975512580
75,17,17,Jits_Phase_5,0,5,80,127,1975962072
75,17,17,Jits_Phase_5,1,5,56,103,1975972344
75,17,17,Jits_Phase_5,2,1,48,75,1975989160
75,17,17,Jits_Phase_5,3,5,63,98,1975991748
75,17,17,Jits_Phase_5,0,5,63,98,1976451424
75,17,17,Jits_Phase_5,1,1,48,72,1976478956
75,17,17,Jits_Phase_5,2,5,80,127,1976532628
75,17,17,Jits_Phase_5,3,5,56,103,1976541404
75,17,17,Jits_Phase_5,0,1,48,74,1976990404
75,17,17,Jits_Phase_5,1,5,80,127,1977042492
75,17,17,Jits_Phase_5,2,5,56,103,1977061680
75,17,17,Jits_Phase_5,3,5,63,98,1977064820
75,17,17,Jits_Phase_5,0,5,63,98,1977531672
75,17,17,Jits_Phase_5,1,5,80,127,1977535044
75,17,17,Jits_Phase_5,2,1,48,72,1977536008
75,17,17,Jits_Phase_5,3,5,56,103,1977592432
75,17,17,Jits_Phase_5,0,5,56,103,1978012020
75,17,17,Jits_Phase_5,1,5,80,127,1978022660
75,17,17,Jits_Phase_5,2,5,63,98,1978062300
75,17,17,Jits_Phase_5,3,1,48,76,1978076952
75,17,17,Jits_Phase_5,0,5,56,103,1978492524
75,17,17,Jits_Phase_5,1,5,63,98,1978551792
75,17,17,Jits_Phase_5,2,1,48,77,1978557680
75,17,17,Jits_Phase_5,3,5,80,127,1978562056
75,17,17,Jits_Phase_5,0,5,63,98,1979002332
75,17,17,Jits_Phase_5,1,5,80,127,1979042268
75,17,17,Jits_Phase_5,2,1,48,71,1979053260
75,17,17,Jits_Phase_5,3,5,56,103,1979081976
75,17,17,Jits_Phase_5,0,5,56,103,1979502056
75,17,17,Jits_Phase_5,1,1,48,77,1979561544
75,17,17,Jits_Phase_5,2,5,63,98,1979581792
75,17,17,Jits_Phase_5,3,5,80,127,1979585452
75,17,17,Jits_Phase_5,0,5,80,127,1980062000
75,17,17,Jits_Phase_5,1,1,48,74,1980063788
75,17,17,Jits_Phase_5,2,5,56,103,1980091660
75,17,17,Jits_Phase_5,3,5,63,98,1980094880
75,17,17,Jits_Phase_5,0,5,56,103,1980521952
75,17,17,Jits_Phase_5,1,5,80,127,1980542360
75,17,17,Jits_Phase_5,2,5,63,98,1980582520
75,17,17,Jits_Phase_5,3,1,48,81,1980586908
75,17,17,Jits_Phase_5,0,5,80,127,1981002088
75,17,17,Jits_Phase_5,1,5,63,98,1981021576
75,17,17,Jits_Phase_5,2,1,48,75,1981070196
75,17,17,Jits_Phase_5,3,5,56,103,1981081904
75,17,17,Jits_Phase_5,0,5,63,98,1981512188
75,17,17,Jits_Phase_5,1,5,56,103,1981522460
75,17,17,Jits_Phase_5,2,1,48,72,1981546328
75,17,17,Jits_Phase_5,3,5,80,127,1981571556
75,17,17,Jits_Phase_5,0,5,56,103,1982001676
75,17,17,Jits_Phase_5,1,5,63,98,1982022060
75,17,17,Jits_Phase_5,2,1,48,64,1982027276
75,17,17,Jits_Phase_5,3,5,80,127,1982032548
75,17,17,Jits_Phase_5,0,5,56,103,1982492144
75,17,17,Jits_Phase_5,1,5,63,98,1982495060
75,17,17,Jits_Phase_5,2,5,80,127,1982511628
75,17,17,Jits_Phase_5,3,1,48,66,1982528000
75,17,17,Jits_Phase_5,0,1,48,67,1983008484
75,17,17,Jits_Phase_5,1,5,63,98,1983031524
75,17,17,Jits_Phase_5,2,5,56,103,1983062468
75,17,17,Jits_Phase_5,3,5,80,127,1983092064
75,17,17,Jits_Phase_5,0,5,80,127,1983491400
75,17,17,Jits_Phase_5,1,1,48,69,1983555496
75,17,17,Jits_Phase_5,2,5,56,103,1983581672
75,17,17,Jits_Phase_5,3,5,63,98,1983584736
75,17,17,Jits_Phase_5,0,5,56,103,1983992128
75,17,17,Jits_Phase_5,1,5,80,127,1983995340
75,17,17,Jits_Phase_5,2,5,63,98,1984072140
75,17,17,Jits_Phase_5,3,1,48,68,1984081108
75,17,17,Jits_Phase_5,0,5,80,127,1984491956
75,17,17,Jits_Phase_5,1,5,63,98,1984552420
75,17,17,Jits_Phase_5,2,1,48,70,1984569396
75,17,17,Jits_Phase_5,3,5,56,103,1984582012
75,17,17,Jits_Phase_5,0,5,63,98,1984991648
75,17,17,Jits_Phase_5,1,5,80,127,1985001768
75,17,17,Jits_Phase_5,2,5,56,103,1985071444
75,17,17,Jits_Phase_5,3,1,48,67,1985074112
75,17,17,Jits_Phase_5,0,5,56,103,1985551708
75,17,17,Jits_Phase_5,1,1,48,71,1985567408
75,17,17,Jits_Phase_5,2,5,80,127,1985581452
75,17,17,Jits_Phase_5,3,5,63,98,1985631500
75,17,17,Jits_Phase_5,0,1,48,66,1986089408
75,17,17,Jits_Phase_5,1,5,63,98,1986141516
75,17,17,Jits_Phase_5,2,5,56,103,1986172480
75,17,17,Jits_Phase_5,3,5,80,127,1986175324
75,17,17,Jits_Phase_5,0,1,48,68,1986646172
75,17,17,Jits_Phase_5,1,5,63,98,1986651520
75,17,17,Jits_Phase_5,2,5,80,127,1986672200
75,17,17,Jits_Phase_5,3,5,56,103,1986682348
75,17,17,Jits_Phase_5,0,5,56,103,1987161612
75,17,17,Jits_Phase_5,1,5,63,98,1987164604
75,17,17,Jits_Phase_5,2,1,48,70,1987171032
75,17,17,Jits_Phase_5,3,5,80,127,1987182064
75,17,17,Jits_Phase_5,0,5,56,103,1987612000
75,17,17,Jits_Phase_5,1,5,63,98,1987622420
75,17,17,Jits_Phase_5,2,5,80,127,1987651944
75,17,17,Jits_Phase_5,3,1,48,71,1987687416
75,17,17,Jits_Phase_5,0,5,63,98,1988132360
75,17,17,Jits_Phase_5,1,5,80,127,1988151624
75,17,17,Jits_Phase_5,2,1,48,70,1988172648
75,17,17,Jits_Phase_5,3,5,56,103,1988191628
75,17,17,Jits_Phase_5,0,5,56,103,1988661560
75,17,17,Jits_Phase_5,1,1,48,65,1988681684
75,17,17,Jits_Phase_5,2,5,63,98,1988701408
75,17,17,Jits_Phase_5,3,5,80,127,1988704776
75,17,17,Jits_Phase_5,0,5,80,127,1989101908
75,17,17,Jits_Phase_5,1,5,56,103,1989141844
75,17,17,Jits_Phase_5,2,1,48,67,1989190764
75,17,17,Jits_Phase_5,3,5,63,98,1989192260
75,17,17,Jits_Phase_5,0,5,56,103,1989662280
75,17,17,Jits_Phase_5,1,5,80,127,1989672400
75,17,17,Jits_Phase_5,2,1,48,71,1989689840
75,17,17,Jits_Phase_5,3,5,63,98,1989702144
75,17,17,Jits_Phase_5,0,5,56,103,1990111556
75,17,17,Jits_Phase_5,1,5,80,127,1990151496
75,17,17,Jits_Phase_5,2,1,48,62,1990173564
75,17,17,Jits_Phase_5,3,5,63,98,1990201612
75,17,17,Jits_Phase_5,0,5,56,103,1990621588
75,17,17,Jits_Phase_5,1,1,48,63,1990659328
75,17,17,Jits_Phase_5,2,5,80,127,1990661516
75,17,17,Jits_Phase_5,3,5,63,98,1990711644
75,17,17,Jits_Phase_5,0,5,80,127,1991112288
75,17,17,Jits_Phase_5,1,1,48,77,1991140288
75,17,17,Jits_Phase_5,2,5,63,98,1991191928
75,17,17,Jits_Phase_5,3,5,56,103,1991202124
75,17,17,Jits_Phase_5,0,1,48,67,1991649420
75,17,17,Jits_Phase_5,1,5,80,127,1991662172
75,17,17,Jits_Phase_5,2,5,56,103,1991672516
75,17,17,Jits_Phase_5,3,5,63,98,1991691704
75,17,17,Jits_Phase_5,0,5,63,98,1992132040
75,17,17,Jits_Phase_5,1,1,48,66,1992154932
75,17,17,Jits_Phase_5,2,5,56,103,1992201636
75,17,17,Jits_Phase_5,3,5,80,127,1992204552
75,17,17,Jits_Phase_5,0,5,80,127,1992621296
75,17,17,Jits_Phase_5,1,1,48,65,1992657296
75,17,17,Jits_Phase_5,2,5,63,98,1992671712
75,17,17,Jits_Phase_5,3,5,56,103,1992711648
75,17,17,Jits_Phase_5,0,5,63,98,1993162264
75,17,17,Jits_Phase_5,1,1,48,63,1993185084
75,17,17,Jits_Phase_5,2,5,56,103,1993202120
75,17,17,Jits_Phase_5,3,5,80,127,1993212168
75,17,17,Jits_Phase_5,0,5,63,98,1993651604
75,17,17,Jits_Phase_5,1,5,56,103,1993672212
75,17,17,Jits_Phase_5,2,1,48,73,1993674656
75,17,17,Jits_Phase_5,3,5,80,127,1993691540
75,17,17,Jits_Phase_5,0,5,80,127,1994112320
75,17,17,Jits_Phase_5,1,5,56,103,1994121544
75,17,17,Jits_Phase_5,2,5,63,98,1994142152
75,17,17,Jits_Phase_5,3,1,48,69,1994148560
75,17,17,Jits_Phase_5,0,1,48,66,1994628892
75,17,17,Jits_Phase_5,1,5,63,98,1994641668
75,17,17,Jits_Phase_5,2,5,56,103,1994681680
75,17,17,Jits_Phase_5,3,5,80,127,1994712476
75,17,17,Jits_Phase_5,0,5,56,103,1995101620
75,17,17,Jits_Phase_5,1,5,63,98,1995132216
75,17,17,Jits_Phase_5,2,1,48,64,1995161892
75,17,17,Jits_Phase_5,3,5,80,127,1995163152
75,17,17,Jits_Phase_5,0,5,80,127,1995522428
75,17,17,Jits_Phase_5,1,5,56,103,1995592108
75,17,17,Jits_Phase_5,2,5,63,98,1995595172
75,17,17,Jits_Phase_5,3,1,48,66,1995614480
75,17,17,Jits_Phase_5,0,5,56,103,1996032524
75,17,17,Jits_Phase_5,1,5,63,98,1996081452
75,17,17,Jits_Phase_5,2,1,48,60,1996101432
75,17,17,Jits_Phase_5,3,5,80,127,1996112316
75,17,17,Jits_Phase_5,0,5,63,98,1996511460
75,17,17,Jits_Phase_5,1,5,80,127,1996515052
75,17,17,Jits_Phase_5,2,1,48,62,1996552716
75,17,17,Jits_Phase_5,3,5,56,103,1996571992
75,17,17,Jits_Phase_5,0,1,48,62,1997026072
75,17,17,Jits_Phase_5,1,5,56,103,1997042208
75,17,17,Jits_Phase_5,2,5,80,127,1997052256
75,17,17,Jits_Phase_5,3,5,63,98,1997101484
75,17,17,Jits_Phase_5,0,5,63,98,1997512000
75,17,17,Jits_Phase_5,1,5,56,103,1997522344
75,17,17,Jits_Phase_5,2,1,48,68,1997545620
75,17,17,Jits_Phase_5,3,5,80,127,1997552160
75,17,17,Jits_Phase_5,0,5,63,98,1998041336
75,17,17,Jits_Phase_5,1,5,80,127,1998044628
75,17,17,Jits_Phase_5,2,1,48,59,1998059828
75,17,17,Jits_Phase_5,3,5,56,103,1998072128
75,17,17,Jits_Phase_5,0,1,48,65,1998542472
75,17,17,Jits_Phase_5,1,5,63,98,1998561604
75,17,17,Jits_Phase_5,2,5,56,103,1998581980
75,17,17,Jits_Phase_5,3,5,80,127,1998585052
75,17,17,Jits_Phase_5,0,5,63,98,1999021420
75,17,17,Jits_Phase_5,1,1,48,66,1999064916
75,17,17,Jits_Phase_5,2,5,56,103,1999092064
75,17,17,Jits_Phase_5,3,5,80,127,1999111476
75,17,17,Jits_Phase_5,0,5,56,103,1999512104
75,17,17,Jits_Phase_5,1,5,63,98,1999522224
75,17,17,Jits_Phase_5,2,1,48,60,1999560788
75,17,17,Jits_Phase_5,3,5,80,127,1999612272
75,17,17,Jits_Phase_5,0,5,56,103,2000032020
75,17,17,Jits_Phase_5,1,1,48,60,2000062788
75,17,17,Jits_Phase_5,2,5,80,127,2000072024
75,17,17,Jits_Phase_5,3,5,63,98,2000082368
75,17,17,Jits_Phase_5,0,5,56,103,2000552236
75,17,17,Jits_Phase_5,1,1,48,54,2000579024
75,17,17,Jits_Phase_5,2,5,63,98,2000582056
75,17,17,Jits_Phase_5,3,5,80,127,2000611580
75,17,17,Jits_Phase_5,0,5,80,127,2001012196
75,17,17,Jits_Phase_5,1,5,63,98,2001052232
75,17,17,Jits_Phase_5,2,5,56,103,2001071344
75,17,17,Jits_Phase_5,3,1,48,63,2001077004
75,17,17,Jits_Phase_5,0,5,56,103,2001552136
75,17,17,Jits_Phase_5,1,1,48,63,2001569704
75,17,17,Jits_Phase_5,2,5,80,127,2001572216
75,17,17,Jits_Phase_5,3,5,63,98,2001591628
75,17,17,Jits_Phase_5,0,5,63,98,2002021688
75,17,17,Jits_Phase_5,1,5,56,103,2002032104
75,17,17,Jits_Phase_5,2,1,48,75,2002051808
75,17,17,Jits_Phase_5,3,5,80,127,2002092436
75,17,17,Jits_Phase_5,0,5,56,103,2002521432
75,17,17,Jits_Phase_5,1,1,48,64,2002544104
75,17,17,Jits_Phase_5,2,5,63,98,2002592028
75,17,17,Jits_Phase_5,3,5,80,127,2002611516
75,17,17,Jits_Phase_5,0,5,56,103,2003022172
75,17,17,Jits_Phase_5,1,5,63,98,2003052148
75,17,17,Jits_Phase_5,2,1,48,49,2003053412
75,17,17,Jits_Phase_5,3,5,80,127,2003091952
75,17,17,Jits_Phase_5,0,5,63,98,2003511520
75,17,17,Jits_Phase_5,1,1,48,66,2003545872
75,17,17,Jits_Phase_5,2,5,56,103,2003562084
75,17,17,Jits_Phase_5,3,5,80,127,2003572056
75,17,17,Jits_Phase_5,0,1,48,70,2004037896
75,17,17,Jits_Phase_5,1,5,56,103,2004052240
75,17,17,Jits_Phase_5,2,5,63,98,2004101420
75,17,17,Jits_Phase_5,3,5,80,127,2004111688
75,17,17,Jits_Phase_5,0,5,56,103,2004531624
75,17,17,Jits_Phase_5,1,5,63,98,2004541968
75,17,17,Jits_Phase_5,2,1,48,60,2004558940
75,17,17,Jits_Phase_5,3,5,80,127,2004621552
75,17,17,Jits_Phase_5,0,9999,9999,9999,1920249960
75,17,17,Jits_Phase_5,1,9999,9999,9999,1920749664
75,17,17,Jits_Phase_5,2,9999,9999,9999,1921249392
75,17,17,Jits_Phase_5,3,9999,9999,9999,1921750140
75,17,17,Jits_Phase_5,4,9999,9999,9999,1922260084
75,17,17,Jits_Phase_5,5,9999,9999,9999,1922759764
75,17,17,Jits_Phase_5,6,9999,9999,9999,1923259512
75,17,17,Jits_Phase_5,7,9999,9999,9999,1923759204
75,17,17,Jits_Phase_5,8,9999,9999,9999,1924259940
75,17,17,Jits_Phase_5,9,9999,9999,9999,1924759632
75,17,17,Jits_Phase_5,10,9999,9999,9999,1925259324
75,17,17,Jits_Phase_5,11,9999,9999,9999,1925760060
75,17,17,Jits_Phase_5,12,9999,9999,9999,1926270064
75,17,17,Jits_Phase_5,13,9999,9999,9999,1926769788
75,17,17,Jits_Phase_5,14,9999,9999,9999,1927269452
75,17,17,Jits_Phase_5,15,9999,9999,9999,1927769216
75,17,17,Jits_Phase_5,16,9999,9999,9999,1928269948
75,17,17,Jits_Phase_5,17,9999,9999,9999,1928769624
75,17,17,Jits_Phase_5,18,9999,9999,9999,1929269308
75,17,17,Jits_Phase_5,19,9999,9999,9999,1929770044
75,17,17,Jits_Phase_5,20,9999,9999,9999,1930269808
75,17,17,Jits_Phase_5,21,9999,9999,9999,1930769496
75,17,17,Jits_Phase_5,22,9999,9999,9999,1931269184
75,17,17,Jits_Phase_5,23,9999,9999,9999,1931769920
75,17,17,Jits_Phase_5,24,9999,9999,9999,1932269684
75,17,17,Jits_Phase_5,25,9999,9999,9999,1932769368
75,17,17,Jits_Phase_5,26,9999,9999,9999,1933270108
75,17,17,Jits_Phase_5,27,9999,9999,9999,1933780032
75,17,17,Jits_Phase_5,28,9999,9999,9999,1934279800
75,17,17,Jits_Phase_5,29,9999,9999,9999,1934779488
75,17,17,Jits_Phase_5,30,9999,9999,9999,1935269964
75,17,17,Jits_Phase_5,31,9999,9999,9999,1935769728
75,17,17,Jits_Phase_5,32,9999,9999,9999,1936269388
75,17,17,Jits_Phase_5,33,9999,9999,9999,1936769080
75,17,17,Jits_Phase_5,34,9999,9999,9999,1937269868
75,17,17,Jits_Phase_5,35,9999,9999,9999,1937769556
75,17,17,Jits_Phase_5,36,9999,9999,9999,1938269292
75,17,17,Jits_Phase_5,37,9999,9999,9999,1938770016
75,17,17,Jits_Phase_5,38,9999,9999,9999,1939269708
75,17,17,Jits_Phase_5,39,9999,9999,9999,1939769464
75,17,17,Jits_Phase_5,40,9999,9999,9999,1940269140
75,17,17,Jits_Phase_5,41,9999,9999,9999,1940769876
75,17,17,Jits_Phase_5,42,9999,9999,9999,1941269568
75,17,17,Jits_Phase_5,43,9999,9999,9999,1941769316
75,17,17,Jits_Phase_5,44,9999,9999,9999,1942270036
75,17,17,Jits_Phase_5,45,9999,9999,9999,1942769724
75,17,17,Jits_Phase_5,46,9999,9999,9999,1943269472
75,17,17,Jits_Phase_5,47,9999,9999,9999,1943769156
75,17,17,Jits_Phase_5,48,9999,9999,9999,1944279096
75,17,17,Jits_Phase_5,49,9999,9999,9999,1944779840
75,17,17,Jits_Phase_5,50,9999,9999,9999,1945279580
75,17,17,Jits_Phase_5,51,9999,9999,9999,1945779272
75,17,17,Jits_Phase_5,52,9999,9999,9999,1946280012
75,17,17,Jits_Phase_5,53,9999,9999,9999,1946779776
75,17,17,Jits_Phase_5,54,9999,9999,9999,1947279452
75,17,17,Jits_Phase_5,55,9999,9999,9999,1947779144
75,17,17,Jits_Phase_5,56,9999,9999,9999,1948279876
75,17,17,Jits_Phase_5,57,9999,9999,9999,1948779612
75,17,17,Jits_Phase_5,58,9999,9999,9999,1949279352
75,17,17,Jits_Phase_5,59,9999,9999,9999,1949780072
75,17,17,Jits_Phase_5,60,9999,9999,9999,1950279764
75,17,17,Jits_Phase_5,61,9999,9999,9999,1950779512
75,17,17,Jits_Phase_5,62,9999,9999,9999,1951279204
75,17,17,Jits_Phase_5,63,9999,9999,9999,1951779924
75,17,17,Jits_Phase_5,64,9999,9999,9999,1952299080
75,17,17,Jits_Phase_5,65,9999,9999,9999,1952799816
75,17,17,Jits_Phase_5,66,9999,9999,9999,1953299568
75,17,17,Jits_Phase_5,67,9999,9999,9999,1953799228
75,17,17,Jits_Phase_5,68,9999,9999,9999,1954299968
75,17,17,Jits_Phase_5,69,9999,9999,9999,1954799720
75,17,17,Jits_Phase_5,70,9999,9999,9999,1955299384
75,17,17,Jits_Phase_5,71,9999,9999,9999,1955799152
75,17,17,Jits_Phase_5,72,9999,9999,9999,1956299888
75,17,17,Jits_Phase_5,73,9999,9999,9999,1956799564
75,17,17,Jits_Phase_5,74,9999,9999,9999,1957299316
75,17,17,Jits_Phase_5,75,9999,9999,9999,1957800036
75,17,17,Jits_Phase_5,76,9999,9999,9999,1958299728
75,17,17,Jits_Phase_5,77,9999,9999,9999,1958799480
75,17,17,Jits_Phase_5,78,9999,9999,9999,1959299176
75,17,17,Jits_Phase_5,79,9999,9999,9999,1959799908
75,17,17,Jits_Phase_5,80,9999,9999,9999,1960299636
75,17,17,Jits_Phase_5,81,9999,9999,9999,1960779836
75,17,17,Jits_Phase_5,82,9999,9999,9999,1961279600
75,17,17,Jits_Phase_5,83,9999,9999,9999,1961779276
75,17,17,Jits_Phase_5,84,9999,9999,9999,1962280020
75,17,17,Jits_Phase_5,85,9999,9999,9999,1962779764
75,17,17,Jits_Phase_5,86,9999,9999,9999,1963279436
75,17,17,Jits_Phase_5,87,9999,9999,9999,1963779132
75,17,17,Jits_Phase_5,88,9999,9999,9999,1964279868
75,17,17,Jits_Phase_5,89,9999,9999,9999,1964779632
75,17,17,Jits_Phase_5,90,9999,9999,9999,1965279324
75,17,17,Jits_Phase_5,91,9999,9999,9999,1965780060
75,17,17,Jits_Phase_5,92,9999,9999,9999,1966279740
75,17,17,Jits_Phase_5,93,9999,9999,9999,1966779496
75,17,17,Jits_Phase_5,94,9999,9999,9999,1967279164
75,17,17,Jits_Phase_5,95,9999,9999,9999,1967779904
75,17,17,Jits_Phase_5,96,9999,9999,9999,1968279668
75,17,17,Jits_Phase_5,97,9999,9999,9999,1968729200
75,17,17,Jits_Phase_5,98,9999,9999,9999,1969229924
75,17,17,Jits_Phase_5,99,9999,9999,9999,1969729612
75,17,17,Jits_Phase_5,100,9999,9999,9999,1970229360
75,17,17,Jits_Phase_5,101,9999,9999,9999,1970730096
75,17,17,Jits_Phase_5,102,9999,9999,9999,1971229772
75,17,17,Jits_Phase_5,103,9999,9999,9999,1971729528
75,17,17,Jits_Phase_5,104,9999,9999,9999,1972229200
75,17,17,Jits_Phase_5,105,9999,9999,9999,1972729920
75,17,17,Jits_Phase_5,106,9999,9999,9999,1973229668
75,17,17,Jits_Phase_5,107,9999,9999,9999,1973729340
75,17,17,Jits_Phase_5,108,9999,9999,9999,1974230072
75,17,17,Jits_Phase_5,109,9999,9999,9999,1974740084
75,17,17,Jits_Phase_5,110,9999,9999,9999,1975239772
75,17,17,Jits_Phase_5,111,9999,9999,9999,1975739464
75,17,17,Jits_Phase_5,112,9999,9999,9999,1976239224
75,17,17,Jits_Phase_5,113,9999,9999,9999,1976739964
75,17,17,Jits_Phase_5,114,9999,9999,9999,1977289832
75,17,17,Jits_Phase_5,115,9999,9999,9999,1977789500
75,17,17,Jits_Phase_5,116,9999,9999,9999,1978289248
75,17,17,Jits_Phase_5,117,9999,9999,9999,1978789988
75,17,17,Jits_Phase_5,118,9999,9999,9999,1979289676
75,17,17,Jits_Phase_5,119,9999,9999,9999,1979789420
75,17,17,Jits_Phase_5,120,9999,9999,9999,1980289104
75,17,17,Jits_Phase_5,121,9999,9999,9999,1980789844
75,17,17,Jits_Phase_5,122,9999,9999,9999,1981289580
75,17,17,Jits_Phase_5,123,9999,9999,9999,1981789272
75,17,17,Jits_Phase_5,124,9999,9999,9999,1982289992
75,17,17,Jits_Phase_5,125,9999,9999,9999,1982789736
75,17,17,Jits_Phase_5,126,9999,9999,9999,1983289408
75,17,17,Jits_Phase_5,127,9999,9999,9999,1983789152
75,17,17,Jits_Phase_5,128,9999,9999,9999,1984289872
75,17,17,Jits_Phase_5,129,9999,9999,9999,1984789564
75,17,17,Jits_Phase_5,130,9999,9999,9999,1985289328
75,17,17,Jits_Phase_5,131,9999,9999,9999,1985889392
75,17,17,Jits_Phase_5,132,9999,9999,9999,1986390124
75,17,17,Jits_Phase_5,133,9999,9999,9999,1986900064
75,17,17,Jits_Phase_5,134,9999,9999,9999,1987399804
75,17,17,Jits_Phase_5,135,9999,9999,9999,1987899492
75,17,17,Jits_Phase_5,136,9999,9999,9999,1988399180
75,17,17,Jits_Phase_5,137,9999,9999,9999,1988899900
75,17,17,Jits_Phase_5,138,9999,9999,9999,1989399664
75,17,17,Jits_Phase_5,139,9999,9999,9999,1989899360
75,17,17,Jits_Phase_5,140,9999,9999,9999,1990400096
75,17,17,Jits_Phase_5,141,9999,9999,9999,1990910056
75,17,17,Jits_Phase_5,142,9999,9999,9999,1991409752
75,17,17,Jits_Phase_5,143,9999,9999,9999,1991909444
75,17,17,Jits_Phase_5,144,9999,9999,9999,1992409188
75,17,17,Jits_Phase_5,145,9999,9999,9999,1992909912
75,17,17,Jits_Phase_5,146,9999,9999,9999,1993409604
75,17,17,Jits_Phase_5,147,9999,9999,9999,1993909356
75,17,17,Jits_Phase_5,148,9999,9999,9999,1994410076
75,17,17,Jits_Phase_5,149,9999,9999,9999,1994909768
75,17,17,Jits_Phase_5,150,9999,9999,9999,1995309184
75,17,17,Jits_Phase_5,151,9999,9999,9999,1995809916
75,17,17,Jits_Phase_5,152,9999,9999,9999,1996309608
75,17,17,Jits_Phase_5,153,9999,9999,9999,1996809284
75,17,17,Jits_Phase_5,154,9999,9999,9999,1997310008
75,17,17,Jits_Phase_5,155,9999,9999,9999,1997809756
75,17,17,Jits_Phase_5,156,9999,9999,9999,1998309496
75,17,17,Jits_Phase_5,157,9999,9999,9999,1998809164
75,17,17,Jits_Phase_5,158,9999,9999,9999,1999309888
75,17,17,Jits_Phase_5,159,9999,9999,9999,1999809636
75,17,17,Jits_Phase_5,160,9999,9999,9999,2000309328
75,17,17,Jits_Phase_5,161,9999,9999,9999,2000810064
75,17,17,Jits_Phase_5,162,9999,9999,9999,2001309752
75,17,17,Jits_Phase_5,163,9999,9999,9999,2001809516
75,17,17,Jits_Phase_5,164,9999,9999,9999,2002309204
75,17,17,Jits_Phase_5,165,9999,9999,9999,2002809928
75,17,17,Jits_Phase_5,166,9999,9999,9999,2003309668
75,17,17,Jits_Phase_5,167,9999,9999,9999,2003809348
75,17,17,Jits_Phase_5,168,9999,9999,9999,2004310076
75,17,17,Jits_Phase_5,169,9999,9999,9999,2004820088
75,18,7,Jits_ISO_8,0,5,56,103,2013704784
75,18,7,Jits_ISO_8,1,5,63,98,2013707808
75,18,7,Jits_ISO_8,2,5,80,127,2013711004
75,18,7,Jits_ISO_8,0,5,56,103,2014505308
75,18,7,Jits_ISO_8,1,5,63,98,2014508476
75,18,7,Jits_ISO_8,2,5,80,127,2014511452
75,18,7,Jits_ISO_8,0,5,80,127,2015244856
75,18,7,Jits_ISO_8,1,5,63,98,2015334844
75,18,7,Jits_ISO_8,2,5,56,103,2015344968
75,18,7,Jits_ISO_8,0,5,56,103,2016064804
75,18,7,Jits_ISO_8,1,5,63,98,2016075300
75,18,7,Jits_ISO_8,2,5,80,127,2016165232
75,18,7,Jits_ISO_8,0,1,48,76,2016819532
75,18,7,Jits_ISO_8,1,5,63,98,2016834920
75,18,7,Jits_ISO_8,2,5,80,127,2016864744
75,18,7,Jits_ISO_8,3,5,56,103,2016895268
75,18,7,Jits_ISO_8,0,1,48,73,2017563948
75,18,7,Jits_ISO_8,1,5,56,103,2017634696
75,18,7,Jits_ISO_8,2,5,80,127,2017734884
75,18,7,Jits_ISO_8,3,5,63,98,2017785084
75,18,7,Jits_ISO_8,0,5,56,103,2018434588
75,18,7,Jits_ISO_8,1,1,48,73,2018468724
75,18,7,Jits_ISO_8,2,5,80,127,2018484788
75,18,7,Jits_ISO_8,3,5,63,98,2018524724
75,18,7,Jits_ISO_8,0,5,80,127,2019264876
75,18,7,Jits_ISO_8,1,1,48,76,2019266140
75,18,7,Jits_ISO_8,2,5,63,98,2019294844
75,18,7,Jits_ISO_8,3,5,56,103,2019365260
75,18,7,Jits_ISO_8,0,1,48,72,2020093500
75,18,7,Jits_ISO_8,1,5,63,98,2020095312
75,18,7,Jits_ISO_8,2,5,56,103,2020124988
75,18,7,Jits_ISO_8,3,5,80,127,2020185588
75,18,7,Jits_ISO_8,0,5,56,103,2020834564
75,18,7,Jits_ISO_8,1,5,80,127,2020837636
75,18,7,Jits_ISO_8,2,1,48,76,2020908260
75,18,7,Jits_ISO_8,3,5,63,98,2020954584
75,18,7,Jits_ISO_8,0,1,48,66,2021668932
75,18,7,Jits_ISO_8,1,5,56,103,2021715188
75,18,7,Jits_ISO_8,2,5,80,127,2021755156
75,18,7,Jits_ISO_8,3,5,63,98,2021764676
75,18,7,Jits_ISO_8,0,5,56,103,2022474980
75,18,7,Jits_ISO_8,1,5,80,127,2022494616
75,18,7,Jits_ISO_8,2,1,48,76,2022521648
75,18,7,Jits_ISO_8,3,5,63,98,2022574428
75,18,7,Jits_ISO_8,0,5,80,127,2023264736
75,18,7,Jits_ISO_8,1,1,48,77,2023310132
75,18,7,Jits_ISO_8,2,5,56,103,2023364932
75,18,7,Jits_ISO_8,3,5,63,98,2023375128
75,18,7,Jits_ISO_8,0,5,63,98,2024034648
75,18,7,Jits_ISO_8,1,5,80,127,2024095140
75,18,7,Jits_ISO_8,2,5,56,103,2024105408
75,18,7,Jits_ISO_8,3,1,48,68,2024152664
75,18,7,Jits_ISO_8,0,5,56,103,2024834456
75,18,7,Jits_ISO_8,1,1,48,65,2024837796
75,18,7,Jits_ISO_8,2,5,63,98,2024905028
75,18,7,Jits_ISO_8,3,5,80,127,2024908392
75,18,7,Jits_ISO_8,0,1,48,68,2025626564
75,18,7,Jits_ISO_8,1,5,63,98,2025664804
75,18,7,Jits_ISO_8,2,5,56,103,2025714924
75,18,7,Jits_ISO_8,3,5,80,127,2025719028
75,18,7,Jits_ISO_8,0,5,56,103,2026424644
75,18,7,Jits_ISO_8,1,5,80,127,2026427640
75,18,7,Jits_ISO_8,2,1,48,61,2026471060
75,18,7,Jits_ISO_8,3,5,63,98,2026514772
75,18,7,Jits_ISO_8,0,1,48,64,2027263748
75,18,7,Jits_ISO_8,1,5,63,98,2027265552
75,18,7,Jits_ISO_8,2,5,56,103,2027354644
75,18,7,Jits_ISO_8,3,5,80,127,2027385076
75,18,7,Jits_ISO_8,0,5,56,103,2028054864
75,18,7,Jits_ISO_8,1,1,48,57,2028082024
75,18,7,Jits_ISO_8,2,5,63,98,2028155208
75,18,7,Jits_ISO_8,3,5,80,127,2028184940
75,18,7,Jits_ISO_8,0,5,63,98,2028875048
75,18,7,Jits_ISO_8,1,5,56,103,2028885616
75,18,7,Jits_ISO_8,2,1,48,58,2028909560
75,18,7,Jits_ISO_8,3,5,80,127,2028974568
75,18,7,Jits_ISO_8,0,1,48,63,2029680560
75,18,7,Jits_ISO_8,1,5,63,98,2029695676
75,18,7,Jits_ISO_8,2,5,56,103,2029776824
75,18,7,Jits_ISO_8,3,5,80,127,2029779272
75,18,7,Jits_ISO_8,0,5,80,127,2030455380
75,18,7,Jits_ISO_8,1,5,63,98,2030474644
75,18,7,Jits_ISO_8,2,1,48,66,2030529904
75,18,7,Jits_ISO_8,3,5,56,103,2030535104
75,18,7,Jits_ISO_8,0,1,48,70,2031293840
75,18,7,Jits_ISO_8,1,5,56,103,2031295476
75,18,7,Jits_ISO_8,2,5,63,98,2031315416
75,18,7,Jits_ISO_8,3,5,80,127,2031318632
75,18,7,Jits_ISO_8,0,5,63,98,2032035324
75,18,7,Jits_ISO_8,1,1,48,70,2032092772
75,18,7,Jits_ISO_8,2,5,80,127,2032115116
75,18,7,Jits_ISO_8,3,5,56,103,2032125460
75,18,7,Jits_ISO_8,0,5,63,98,2032855488
75,18,7,Jits_ISO_8,1,1,48,67,2032856528
75,18,7,Jits_ISO_8,2,5,56,103,2032874892
75,18,7,Jits_ISO_8,3,5,80,127,2032925096
75,18,7,Jits_ISO_8,0,1,48,65,2033655640
75,18,7,Jits_ISO_8,1,5,80,127,2033656756
75,18,7,Jits_ISO_8,2,5,63,98,2033695200
75,18,7,Jits_ISO_8,3,5,56,103,2033714464
75,18,7,Jits_ISO_8,0,1,48,63,2034480264
75,18,7,Jits_ISO_8,1,5,56,103,2034494980
75,18,7,Jits_ISO_8,2,5,63,98,2034505176
75,18,7,Jits_ISO_8,3,5,80,127,2034524440
75,18,7,Jits_ISO_8,0,5,56,103,2035224944
75,18,7,Jits_ISO_8,1,1,48,66,2035295572
75,18,7,Jits_ISO_8,2,5,63,98,2035315148
75,18,7,Jits_ISO_8,3,5,80,127,2035374416
75,18,7,Jits_ISO_8,0,5,80,127,2036055436
75,18,7,Jits_ISO_8,1,5,56,103,2036064584
75,18,7,Jits_ISO_8,2,1,48,68,2036102648
75,18,7,Jits_ISO_8,3,5,63,98,2036135256
75,18,7,Jits_ISO_8,0,1,48,66,2036879500
75,18,7,Jits_ISO_8,1,5,63,98,2036884848
75,18,7,Jits_ISO_8,2,5,80,127,2036974892
75,18,7,Jits_ISO_8,3,5,56,103,2036985236
75,18,7,Jits_ISO_8,0,5,63,98,2037625228
75,18,7,Jits_ISO_8,1,5,80,127,2037675356
75,18,7,Jits_ISO_8,2,1,48,56,2037721548
75,18,7,Jits_ISO_8,3,5,56,103,2037734916
75,18,7,Jits_ISO_8,0,5,56,103,2038454752
75,18,7,Jits_ISO_8,1,1,48,68,2038488060
75,18,7,Jits_ISO_8,2,5,80,127,2038504948
75,18,7,Jits_ISO_8,3,5,63,98,2038525480
75,18,7,Jits_ISO_8,0,5,56,103,2039224728
75,18,7,Jits_ISO_8,1,1,48,66,2039245984
75,18,7,Jits_ISO_8,2,5,80,127,2039285264
75,18,7,Jits_ISO_8,3,5,63,98,2039354632
75,18,7,Jits_ISO_8,0,5,56,103,2040024452
75,18,7,Jits_ISO_8,1,5,80,127,2040055252
75,18,7,Jits_ISO_8,2,1,48,59,2040057924
75,18,7,Jits_ISO_8,3,5,63,98,2040084844
75,18,7,Jits_ISO_8,0,1,48,67,2040833880
75,18,7,Jits_ISO_8,1,5,56,103,2040865220
75,18,7,Jits_ISO_8,2,5,80,127,2040884704
75,18,7,Jits_ISO_8,3,5,63,98,2040945156
75,18,7,Jits_ISO_8,0,1,48,68,2041700684
75,18,7,Jits_ISO_8,1,5,80,127,2041744648
75,18,7,Jits_ISO_8,2,5,56,103,2041754916
75,18,7,Jits_ISO_8,3,5,63,98,2041765188
75,18,7,Jits_ISO_8,0,5,56,103,2042504584
75,18,7,Jits_ISO_8,1,5,80,127,2042544452
75,18,7,Jits_ISO_8,2,1,48,63,2042559252
75,18,7,Jits_ISO_8,3,5,63,98,2042575240
75,18,7,Jits_ISO_8,0,5,56,103,2043274568
75,18,7,Jits_ISO_8,1,5,63,98,2043305296
75,18,7,Jits_ISO_8,2,5,80,127,2043345384
75,18,7,Jits_ISO_8,3,1,48,74,2043368952
75,18,7,Jits_ISO_8,0,5,80,127,2044025372
75,18,7,Jits_ISO_8,1,1,48,62,2044065356
75,18,7,Jits_ISO_8,2,5,63,98,2044075344
75,18,7,Jits_ISO_8,3,5,56,103,2044094684
75,18,7,Jits_ISO_8,0,1,48,71,2044823264
75,18,7,Jits_ISO_8,1,5,56,103,2044854532
75,18,7,Jits_ISO_8,2,5,80,127,2044925396
75,18,7,Jits_ISO_8,3,5,63,98,2044984740
75,18,7,Jits_ISO_8,0,1,48,66,2045647248
75,18,7,Jits_ISO_8,1,5,80,127,2045655440
75,18,7,Jits_ISO_8,2,5,63,98,2045744440
75,18,7,Jits_ISO_8,3,5,56,103,2045765196
75,18,7,Jits_ISO_8,0,5,63,98,2046474640
75,18,7,Jits_ISO_8,1,1,48,62,2046492736
75,18,7,Jits_ISO_8,2,5,56,103,2046495020
75,18,7,Jits_ISO_8,3,5,80,127,2046535180
75,18,7,Jits_ISO_8,0,5,80,127,2047234340
75,18,7,Jits_ISO_8,1,5,63,98,2047255024
75,18,7,Jits_ISO_8,2,1,48,71,2047279868
75,18,7,Jits_ISO_8,3,5,56,103,2047334664
75,18,7,Jits_ISO_8,0,5,63,98,2048025068
75,18,7,Jits_ISO_8,1,1,48,63,2048057256
75,18,7,Jits_ISO_8,2,5,56,103,2048134552
75,18,7,Jits_ISO_8,3,5,80,127,2048137696
75,18,7,Jits_ISO_8,0,5,63,98,2048845292
75,18,7,Jits_ISO_8,1,1,48,61,2048849904
75,18,7,Jits_ISO_8,2,5,56,103,2048855256
75,18,7,Jits_ISO_8,3,5,80,127,2048858472
75,18,7,Jits_ISO_8,0,5,56,103,2049624456
75,18,7,Jits_ISO_8,1,1,48,58,2049628176
75,18,7,Jits_ISO_8,2,5,80,127,2049745308
75,18,7,Jits_ISO_8,3,5,63,98,2049785172
75,18,7,Jits_ISO_8,0,1,48,67,2050431056
75,18,7,Jits_ISO_8,1,5,56,103,2050444800
75,18,7,Jits_ISO_8,2,5,80,127,2050524508
75,18,7,Jits_ISO_8,3,5,63,98,2050545188
75,18,7,Jits_ISO_8,0,5,56,103,2051245412
75,18,7,Jits_ISO_8,1,1,48,63,2051272892
75,18,7,Jits_ISO_8,2,5,63,98,2051355172
75,18,7,Jits_ISO_8,3,5,80,127,2051358384
75,18,7,Jits_ISO_8,0,5,56,103,2052075024
75,18,7,Jits_ISO_8,1,1,48,68,2052103036
75,18,7,Jits_ISO_8,2,5,80,127,2052104472
75,18,7,Jits_ISO_8,3,5,63,98,2052125004
75,18,7,Jits_ISO_8,0,5,63,98,2052855264
75,18,7,Jits_ISO_8,1,5,56,103,2052865316
75,18,7,Jits_ISO_8,2,5,80,127,2052874464
75,18,7,Jits_ISO_8,3,1,48,64,2052921772
75,18,7,Jits_ISO_8,0,5,80,127,2053644628
75,18,7,Jits_ISO_8,1,1,48,67,2053647296
75,18,7,Jits_ISO_8,2,5,56,103,2053694972
75,18,7,Jits_ISO_8,3,5,63,98,2053735060
75,18,7,Jits_ISO_8,0,1,48,63,2054457728
75,18,7,Jits_ISO_8,1,5,80,127,2054465020
75,18,7,Jits_ISO_8,2,5,63,98,2054485332
75,18,7,Jits_ISO_8,3,5,56,103,2054534436
75,18,7,Jits_ISO_8,0,5,80,127,2055274924
75,18,7,Jits_ISO_8,1,1,48,77,2055275816
75,18,7,Jits_ISO_8,2,5,56,103,2055304472
75,18,7,Jits_ISO_8,3,5,63,98,2055375332
75,18,7,Jits_ISO_8,0,1,48,67,2056087756
75,18,7,Jits_ISO_8,1,5,56,103,2056125016
75,18,7,Jits_ISO_8,2,5,80,127,2056135064
75,18,7,Jits_ISO_8,3,5,63,98,2056175076
75,18,7,Jits_ISO_8,0,5,56,103,2056834456
75,18,7,Jits_ISO_8,1,5,63,98,2056854844
75,18,7,Jits_ISO_8,2,1,48,73,2056908084
75,18,7,Jits_ISO_8,3,5,80,127,2056924668
75,18,7,Jits_ISO_8,0,5,63,98,2057654780
75,18,7,Jits_ISO_8,1,1,48,68,2057660668
75,18,7,Jits_ISO_8,2,5,80,127,2057715016
75,18,7,Jits_ISO_8,3,5,56,103,2057734504
75,18,7,Jits_ISO_8,0,5,80,127,2058445124
75,18,7,Jits_ISO_8,1,1,48,65,2058463536
75,18,7,Jits_ISO_8,2,5,56,103,2058474940
75,18,7,Jits_ISO_8,3,5,63,98,2058504616
75,18,7,Jits_ISO_8,0,5,56,103,2059244988
75,18,7,Jits_ISO_8,1,1,48,67,2059245956
75,18,7,Jits_ISO_8,2,5,63,98,2059305452
75,18,7,Jits_ISO_8,3,5,80,127,2059364928
75,18,7,Jits_ISO_8,0,5,80,127,2060065092
75,18,7,Jits_ISO_8,1,5,56,103,2060084652
75,18,7,Jits_ISO_8,2,1,48,64,2060102148
75,18,7,Jits_ISO_8,3,5,63,98,2060155176
75,18,7,Jits_ISO_8,0,5,80,127,2060864964
75,18,7,Jits_ISO_8,1,5,63,98,2060885572
75,18,7,Jits_ISO_8,2,1,48,56,2060901948
75,18,7,Jits_ISO_8,3,5,56,103,2060915040
75,18,7,Jits_ISO_8,0,5,80,127,2061655388
75,18,7,Jits_ISO_8,1,5,63,98,2061674876
75,18,7,Jits_ISO_8,2,1,48,61,2061682976
75,18,7,Jits_ISO_8,3,5,56,103,2061735208
75,18,7,Jits_ISO_8,0,5,80,127,2062455284
75,18,7,Jits_ISO_8,1,1,48,67,2062466944
75,18,7,Jits_ISO_8,2,5,56,103,2062554556
75,18,7,Jits_ISO_8,3,5,63,98,2062585188
75,18,7,Jits_ISO_8,0,5,63,98,2063244896
75,18,7,Jits_ISO_8,1,1,48,73,2063291988
75,18,7,Jits_ISO_8,2,5,80,127,2063294724
75,18,7,Jits_ISO_8,3,5,56,103,2063315332
75,18,7,Jits_ISO_8,0,1,48,67,2064078804
75,18,7,Jits_ISO_8,1,5,80,127,2064085504
75,18,7,Jits_ISO_8,2,5,56,103,2064115028
75,18,7,Jits_ISO_8,3,5,63,98,2064118244
75,18,7,Jits_ISO_8,0,1,48,64,2064880304
75,18,7,Jits_ISO_8,1,5,63,98,2064914728
75,18,7,Jits_ISO_8,2,5,56,103,2064954888
75,18,7,Jits_ISO_8,3,5,80,127,2064975184
75,18,7,Jits_ISO_8,0,5,80,127,2065655108
75,18,7,Jits_ISO_8,1,1,48,74,2065713824
75,18,7,Jits_ISO_8,2,5,63,98,2065735048
75,18,7,Jits_ISO_8,3,5,56,103,2065775132
75,18,7,Jits_ISO_8,0,5,63,98,2066475660
75,18,7,Jits_ISO_8,1,1,48,70,2066549600
75,18,7,Jits_ISO_8,2,5,80,127,2066555104
75,18,7,Jits_ISO_8,3,5,56,103,2066574888
75,18,7,Jits_ISO_8,0,1,48,74,2067308304
75,18,7,Jits_ISO_8,1,5,56,103,2067314952
75,18,7,Jits_ISO_8,2,5,63,98,2067325372
75,18,7,Jits_ISO_8,3,5,80,127,2067365312
75,18,7,Jits_ISO_8,0,5,56,103,2068034924
75,18,7,Jits_ISO_8,1,5,80,127,2068038068
75,18,7,Jits_ISO_8,2,1,48,66,2068069356
75,18,7,Jits_ISO_8,3,5,63,98,2068175328
75,18,7,Jits_ISO_8,0,5,56,103,2068824376
75,18,7,Jits_ISO_8,1,1,48,68,2068835212
75,18,7,Jits_ISO_8,2,5,63,98,2068914604
75,18,7,Jits_ISO_8,3,5,80,127,2068985316
75,18,7,Jits_ISO_8,0,1,48,69,2069671356
75,18,7,Jits_ISO_8,1,5,63,98,2069705028
75,18,7,Jits_ISO_8,2,5,80,127,2069708392
75,18,7,Jits_ISO_8,3,5,56,103,2069765180
75,18,7,Jits_ISO_8,0,1,48,66,2070471060
75,18,7,Jits_ISO_8,1,5,80,127,2070544744
75,18,7,Jits_ISO_8,2,5,56,103,2070565128
75,18,7,Jits_ISO_8,3,5,63,98,2070574636
75,18,7,Jits_ISO_8,0,5,56,103,2071255608
75,18,7,Jits_ISO_8,1,5,63,98,2071264756
75,18,7,Jits_ISO_8,2,1,48,66,2071333444
75,18,7,Jits_ISO_8,3,5,80,127,2071335252
75,18,7,Jits_ISO_8,0,5,80,127,2072055104
75,18,7,Jits_ISO_8,1,1,48,73,2072092756
75,18,7,Jits_ISO_8,2,5,56,103,2072105524
75,18,7,Jits_ISO_8,3,5,63,98,2072154604
75,18,7,Jits_ISO_8,0,1,48,69,2072871948
75,18,7,Jits_ISO_8,1,5,56,103,2072934692
75,18,7,Jits_ISO_8,2,5,63,98,2072945184
75,18,7,Jits_ISO_8,3,5,80,127,2072984960
75,18,7,Jits_ISO_8,0,5,56,103,2073675124
75,18,7,Jits_ISO_8,1,1,48,70,2073684096
75,18,7,Jits_ISO_8,2,5,63,98,2073714936
75,18,7,Jits_ISO_8,3,5,80,127,2073765432
75,18,7,Jits_ISO_8,0,5,80,127,2074434916
75,18,7,Jits_ISO_8,1,1,48,64,2074479536
75,18,7,Jits_ISO_8,2,5,56,103,2074484988
75,18,7,Jits_ISO_8,3,5,63,98,2074504552
75,18,7,Jits_ISO_8,0,5,80,127,2075244972
75,18,7,Jits_ISO_8,1,1,48,70,2075257704
75,18,7,Jits_ISO_8,2,5,63,98,2075305608
75,18,7,Jits_ISO_8,3,5,56,103,2075385312
75,18,7,Jits_ISO_8,0,5,80,127,2076025096
75,18,7,Jits_ISO_8,1,5,56,103,2076065108
75,18,7,Jits_ISO_8,2,1,48,61,2076067856
75,18,7,Jits_ISO_8,3,5,63,98,2076084740
75,18,7,Jits_ISO_8,0,1,48,57,2076869656
75,18,7,Jits_ISO_8,1,5,56,103,2076875228
75,18,7,Jits_ISO_8,2,5,80,127,2076885428
75,18,7,Jits_ISO_8,3,5,63,98,2076925588
75,18,7,Jits_ISO_8,0,1,48,74,2077671612
75,18,7,Jits_ISO_8,1,5,56,103,2077744620
75,18,7,Jits_ISO_8,2,5,63,98,2077784692
75,18,7,Jits_ISO_8,3,5,80,127,2077787908
75,18,7,Jits_ISO_8,0,5,63,98,2078434648
75,18,7,Jits_ISO_8,1,5,80,127,2078474588
75,18,7,Jits_ISO_8,2,1,48,69,2078535848
75,18,7,Jits_ISO_8,3,5,56,103,2078545608
75,18,7,Jits_ISO_8,0,5,63,98,2079225064
75,18,7,Jits_ISO_8,1,5,56,103,2079305012
75,18,7,Jits_ISO_8,2,1,48,64,2079357676
75,18,7,Jits_ISO_8,3,5,80,127,2079364448
75,18,7,Jits_ISO_8,0,5,80,127,2080035184
75,18,7,Jits_ISO_8,1,5,63,98,2080085464
75,18,7,Jits_ISO_8,2,5,56,103,2080115016
75,18,7,Jits_ISO_8,3,1,48,65,2080116428
75,18,7,Jits_ISO_8,0,5,56,103,2080824792
75,18,7,Jits_ISO_8,1,5,63,98,2080874844
75,18,7,Jits_ISO_8,2,5,80,127,2080884992
75,18,7,Jits_ISO_8,3,1,48,62,2080888484
75,18,7,Jits_ISO_8,0,5,56,103,2081634620
75,18,7,Jits_ISO_8,1,1,48,64,2081704976
75,18,7,Jits_ISO_8,2,5,63,98,2081745452
75,18,7,Jits_ISO_8,3,5,80,127,2081764716
75,18,7,Jits_ISO_8,0,5,63,98,2082434444
75,18,7,Jits_ISO_8,1,5,80,127,2082484648
75,18,7,Jits_ISO_8,2,1,48,61,2082569428
75,18,7,Jits_ISO_8,3,5,56,103,2082574700
75,18,7,Jits_ISO_8,0,5,63,98,2083225008
75,18,7,Jits_ISO_8,1,5,80,127,2083254612
75,18,7,Jits_ISO_8,2,5,56,103,2083344892
75,18,7,Jits_ISO_8,3,1,48,67,2083378652
75,18,7,Jits_ISO_8,0,5,63,98,2084024788
75,18,7,Jits_ISO_8,1,5,56,103,2084034836
75,18,7,Jits_ISO_8,2,1,48,69,2084123144
75,18,7,Jits_ISO_8,3,5,80,127,2084135372
75,18,7,Jits_ISO_8,0,1,48,67,2084802576
75,18,7,Jits_ISO_8,1,5,63,98,2084924720
75,18,7,Jits_ISO_8,2,5,80,127,2084954472
75,18,7,Jits_ISO_8,3,5,56,103,2084985144
75,18,7,Jits_ISO_8,0,1,48,58,2085655944
75,18,7,Jits_ISO_8,1,5,80,127,2085745004
75,18,7,Jits_ISO_8,2,5,63,98,2085755484
75,18,7,Jits_ISO_8,3,5,56,103,2085784936
75,18,7,Jits_ISO_8,0,5,80,127,2086445504
75,18,7,Jits_ISO_8,1,5,63,98,2086464916
75,18,7,Jits_ISO_8,2,5,56,103,2086514920
75,18,7,Jits_ISO_8,3,1,48,60,2086542472
75,18,7,Jits_ISO_8,0,5,63,98,2087274820
75,18,7,Jits_ISO_8,1,1,48,56,2087303224
75,18,7,Jits_ISO_8,2,5,80,127,2087335456
75,18,7,Jits_ISO_8,3,5,56,103,2087354720
75,18,7,Jits_ISO_8,0,5,63,98,2088034748
75,18,7,Jits_ISO_8,1,5,56,103,2088085052
75,18,7,Jits_ISO_8,2,5,80,127,2088095172
75,18,7,Jits_ISO_8,3,1,48,52,2088107580
75,18,7,Jits_ISO_8,0,5,56,103,2088865192
75,18,7,Jits_ISO_8,1,1,48,54,2088867712
75,18,7,Jits_ISO_8,2,5,80,127,2088875460
75,18,7,Jits_ISO_8,3,5,63,98,2088974644
75,18,7,Jits_ISO_8,0,5,80,127,2089624984
75,18,7,Jits_ISO_8,1,5,63,98,2089635480
75,18,7,Jits_ISO_8,2,1,48,52,2089649240
75,18,7,Jits_ISO_8,3,5,56,103,2089784628
75,18,7,Jits_ISO_8,0,5,63,98,2090434972
75,18,7,Jits_ISO_8,1,1,48,60,2090474084
75,18,7,Jits_ISO_8,2,5,80,127,2090475656
75,18,7,Jits_ISO_8,3,5,56,103,2090554848
75,18,7,Jits_ISO_8,0,5,56,103,2091224412
75,18,7,Jits_ISO_8,1,1,48,59,2091242284
75,18,7,Jits_ISO_8,2,5,80,127,2091324660
75,18,7,Jits_ISO_8,3,5,63,98,2091345328
75,18,7,Jits_ISO_8,0,1,48,59,2092029268
75,18,7,Jits_ISO_8,1,5,80,127,2092084520
75,18,7,Jits_ISO_8,2,5,56,103,2092094716
75,18,7,Jits_ISO_8,3,5,63,98,2092184932
75,18,7,Jits_ISO_8,0,1,48,60,2092847640
75,18,7,Jits_ISO_8,1,5,56,103,2092885504
75,18,7,Jits_ISO_8,2,5,63,98,2092904768
75,18,7,Jits_ISO_8,3,5,80,127,2092984796
75,18,7,Jits_ISO_8,0,5,63,98,2093634952
75,18,7,Jits_ISO_8,1,1,48,58,2093653364
75,18,7,Jits_ISO_8,2,5,56,103,2093725104
75,18,7,Jits_ISO_8,3,5,80,127,2093728248
75,18,7,Jits_ISO_8,0,5,56,103,2094465472
75,18,7,Jits_ISO_8,1,1,48,60,2094479828
75,18,7,Jits_ISO_8,2,5,80,127,2094524664
75,18,7,Jits_ISO_8,3,5,63,98,2094535156
75,18,7,Jits_ISO_8,0,1,48,61,2095276704
75,18,7,Jits_ISO_8,1,5,80,127,2095315388
75,18,7,Jits_ISO_8,2,5,56,103,2095324536
75,18,7,Jits_ISO_8,3,5,63,98,2095327604
75,18,7,Jits_ISO_8,0,5,56,103,2096075388
75,18,7,Jits_ISO_8,1,5,80,127,2096085288
75,18,7,Jits_ISO_8,2,1,48,57,2096089528
75,18,7,Jits_ISO_8,3,5,63,98,2096104768
75,18,7,Jits_ISO_8,0,1,48,59,2096845220
75,18,7,Jits_ISO_8,1,5,63,98,2096846560
75,18,7,Jits_ISO_8,2,5,80,127,2096904488
75,18,7,Jits_ISO_8,3,5,56,103,2096954600
75,18,7,Jits_ISO_8,0,1,48,55,2097692240
75,18,7,Jits_ISO_8,1,5,63,98,2097724796
75,18,7,Jits_ISO_8,2,5,56,103,2097735064
75,18,7,Jits_ISO_8,3,5,80,127,2097785068
75,18,7,Jits_ISO_8,0,5,63,98,2098425164
75,18,7,Jits_ISO_8,1,5,80,127,2098444576
75,18,7,Jits_ISO_8,2,5,56,103,2098455144
75,18,7,Jits_ISO_8,3,1,48,61,2098520144
75,18,7,Jits_ISO_8,0,1,48,60,2099185948
75,18,7,Jits_ISO_8,1,5,63,98,2099225076
75,18,7,Jits_ISO_8,2,5,80,127,2099228444
75,18,7,Jits_ISO_8,3,5,56,103,2099265164
75,18,7,Jits_ISO_8,0,1,48,67,2100001508
75,18,7,Jits_ISO_8,1,5,63,98,2100095224
75,18,7,Jits_ISO_8,2,5,80,127,2100125260
75,18,7,Jits_ISO_8,3,5,56,103,2100135308
75,18,7,Jits_ISO_8,0,5,56,103,2100845088
75,18,7,Jits_ISO_8,1,1,48,70,2100855132
75,18,7,Jits_ISO_8,2,5,80,127,2100874784
75,18,7,Jits_ISO_8,3,5,63,98,2100905284
75,18,7,Jits_ISO_8,0,1,48,73,2101657160
75,18,7,Jits_ISO_8,1,5,63,98,2101745000
75,18,7,Jits_ISO_8,2,5,56,103,2101785220
75,18,7,Jits_ISO_8,3,5,80,127,2101788136
75,18,7,Jits_ISO_8,0,5,80,127,2102445440
75,18,7,Jits_ISO_8,1,1,48,58,2102500404
75,18,7,Jits_ISO_8,2,5,56,103,2102525380
75,18,7,Jits_ISO_8,3,5,63,98,2102574460
75,18,7,Jits_ISO_8,0,5,80,127,2103224560
75,18,7,Jits_ISO_8,1,5,56,103,2103245316
75,18,7,Jits_ISO_8,2,1,48,64,2103269184
75,18,7,Jits_ISO_8,3,5,63,98,2103335220
75,18,7,Jits_ISO_8,0,1,48,63,2104022600
75,18,7,Jits_ISO_8,1,5,80,127,2104065328
75,18,7,Jits_ISO_8,2,5,63,98,2104105268
75,18,7,Jits_ISO_8,3,5,56,103,2104145192
75,18,7,Jits_ISO_8,0,5,63,98,2104834476
75,18,7,Jits_ISO_8,1,1,48,63,2104855128
75,18,7,Jits_ISO_8,2,5,80,127,2104895012
75,18,7,Jits_ISO_8,3,5,56,103,2104924464
75,18,7,Jits_ISO_8,0,5,56,103,2105635300
75,18,7,Jits_ISO_8,1,1,48,64,2105643600
75,18,7,Jits_ISO_8,2,5,80,127,2105665120
75,18,7,Jits_ISO_8,3,5,63,98,2105754888
75,18,7,Jits_ISO_8,0,5,56,103,2106445208
75,18,7,Jits_ISO_8,1,1,48,59,2106463696
75,18,7,Jits_ISO_8,2,5,80,127,2106554844
75,18,7,Jits_ISO_8,3,5,63,98,2106584356
75,18,7,Jits_ISO_8,0,5,56,103,2107295084
75,18,7,Jits_ISO_8,1,1,48,59,2107305696
75,18,7,Jits_ISO_8,2,5,63,98,2107354424
75,18,7,Jits_ISO_8,3,5,80,127,2107385144
75,18,7,Jits_ISO_8,0,5,56,103,2108065140
75,18,7,Jits_ISO_8,1,5,63,98,2108134900
75,18,7,Jits_ISO_8,2,1,48,67,2108136912
75,18,7,Jits_ISO_8,3,5,80,127,2108155204
75,18,7,Jits_ISO_8,0,5,80,127,2108835120
75,18,7,Jits_ISO_8,1,5,63,98,2108854532
75,18,7,Jits_ISO_8,2,5,56,103,2108905108
75,18,7,Jits_ISO_8,3,1,48,67,2108925016
75,18,7,Jits_ISO_8,0,9999,9999,9999,2014102604
75,18,7,Jits_ISO_8,1,9999,9999,9999,2014902376
75,18,7,Jits_ISO_8,2,9999,9999,9999,2015702096
75,18,7,Jits_ISO_8,3,9999,9999,9999,2016502860
75,18,7,Jits_ISO_8,4,9999,9999,9999,2017302624
75,18,7,Jits_ISO_8,5,9999,9999,9999,2018102332
75,18,7,Jits_ISO_8,6,9999,9999,9999,2018902116
75,18,7,Jits_ISO_8,7,9999,9999,9999,2019702836
75,18,7,Jits_ISO_8,8,9999,9999,9999,2020502636
75,18,7,Jits_ISO_8,9,9999,9999,9999,2021302332
75,18,7,Jits_ISO_8,10,9999,9999,9999,2022102140
75,18,7,Jits_ISO_8,11,9999,9999,9999,2022902896
75,18,7,Jits_ISO_8,12,9999,9999,9999,2023702624
75,18,7,Jits_ISO_8,13,9999,9999,9999,2024502348
75,18,7,Jits_ISO_8,14,9999,9999,9999,2025302120
75,18,7,Jits_ISO_8,15,9999,9999,9999,2026102904
75,18,7,Jits_ISO_8,16,9999,9999,9999,2026902596
75,18,7,Jits_ISO_8,17,9999,9999,9999,2027702324
75,18,7,Jits_ISO_8,18,9999,9999,9999,2028502116
75,18,7,Jits_ISO_8,19,9999,9999,9999,2029302888
75,18,7,Jits_ISO_8,20,9999,9999,9999,2030102596
75,18,7,Jits_ISO_8,21,9999,9999,9999,2030902380
75,18,7,Jits_ISO_8,22,9999,9999,9999,2031702096
75,18,7,Jits_ISO_8,23,9999,9999,9999,2032502880
75,18,7,Jits_ISO_8,24,9999,9999,9999,2033302584
75,18,7,Jits_ISO_8,25,9999,9999,9999,2034102364
75,18,7,Jits_ISO_8,26,9999,9999,9999,2034902080
75,18,7,Jits_ISO_8,27,9999,9999,9999,2035702884
75,18,7,Jits_ISO_8,28,9999,9999,9999,2036502608
75,18,7,Jits_ISO_8,29,9999,9999,9999,2037302336
75,18,7,Jits_ISO_8,30,9999,9999,9999,2038102116
75,18,7,Jits_ISO_8,31,9999,9999,9999,2038902896
75,18,7,Jits_ISO_8,32,9999,9999,9999,2039702620
75,18,7,Jits_ISO_8,33,9999,9999,9999,2040502336
75,18,7,Jits_ISO_8,34,9999,9999,9999,2041302112
75,18,7,Jits_ISO_8,35,9999,9999,9999,2042102872
75,18,7,Jits_ISO_8,36,9999,9999,9999,2042902588
75,18,7,Jits_ISO_8,37,9999,9999,9999,2043702388
75,18,7,Jits_ISO_8,38,9999,9999,9999,2044502112
75,18,7,Jits_ISO_8,39,9999,9999,9999,2045302836
75,18,7,Jits_ISO_8,40,9999,9999,9999,2046102624
75,18,7,Jits_ISO_8,41,9999,9999,9999,2046902336
75,18,7,Jits_ISO_8,42,9999,9999,9999,2047702112
75,18,7,Jits_ISO_8,43,9999,9999,9999,2048502876
75,18,7,Jits_ISO_8,44,9999,9999,9999,2049302640
75,18,7,Jits_ISO_8,45,9999,9999,9999,2050102348
75,18,7,Jits_ISO_8,46,9999,9999,9999,2050902072
75,18,7,Jits_ISO_8,47,9999,9999,9999,2051702844
75,18,7,Jits_ISO_8,48,9999,9999,9999,2052502640
75,18,7,Jits_ISO_8,49,9999,9999,9999,2053302360
75,18,7,Jits_ISO_8,50,9999,9999,9999,2054102140
75,18,7,Jits_ISO_8,51,9999,9999,9999,2054902836
75,18,7,Jits_ISO_8,52,9999,9999,9999,2055702620
75,18,7,Jits_ISO_8,53,9999,9999,9999,2056502352
75,18,7,Jits_ISO_8,54,9999,9999,9999,2057302132
75,18,7,Jits_ISO_8,55,9999,9999,9999,2058102852
75,18,7,Jits_ISO_8,56,9999,9999,9999,2058902632
75,18,7,Jits_ISO_8,57,9999,9999,9999,2059702352
75,18,7,Jits_ISO_8,58,9999,9999,9999,2060502076
75,18,7,Jits_ISO_8,59,9999,9999,9999,2061302844
75,18,7,Jits_ISO_8,60,9999,9999,9999,2062102636
75,18,7,Jits_ISO_8,61,9999,9999,9999,2062902364
75,18,7,Jits_ISO_8,62,9999,9999,9999,2063702084
75,18,7,Jits_ISO_8,63,9999,9999,9999,2064502856
75,18,7,Jits_ISO_8,64,9999,9999,9999,2065302648
75,18,7,Jits_ISO_8,65,9999,9999,9999,2066102356
75,18,7,Jits_ISO_8,66,9999,9999,9999,2066902088
75,18,7,Jits_ISO_8,67,9999,9999,9999,2067702844
75,18,7,Jits_ISO_8,68,9999,9999,9999,2068502616
75,18,7,Jits_ISO_8,69,9999,9999,9999,2069302340
75,18,7,Jits_ISO_8,70,9999,9999,9999,2070102132
75,18,7,Jits_ISO_8,71,9999,9999,9999,2070902848
75,18,7,Jits_ISO_8,72,9999,9999,9999,2071702628
75,18,7,Jits_ISO_8,73,9999,9999,9999,2072502352
75,18,7,Jits_ISO_8,74,9999,9999,9999,2073302136
75,18,7,Jits_ISO_8,75,9999,9999,9999,2074102896
75,18,7,Jits_ISO_8,76,9999,9999,9999,2074902616
75,18,7,Jits_ISO_8,77,9999,9999,9999,2075702340
75,18,7,Jits_ISO_8,78,9999,9999,9999,2076502132
75,18,7,Jits_ISO_8,79,9999,9999,9999,2077302856
75,18,7,Jits_ISO_8,80,9999,9999,9999,2078102640
75,18,7,Jits_ISO_8,81,9999,9999,9999,2078902348
75,18,7,Jits_ISO_8,82,9999,9999,9999,2079702132
75,18,7,Jits_ISO_8,83,9999,9999,9999,2080502884
75,18,7,Jits_ISO_8,84,9999,9999,9999,2081302600
75,18,7,Jits_ISO_8,85,9999,9999,9999,2082102324
75,18,7,Jits_ISO_8,86,9999,9999,9999,2082902120
75,18,7,Jits_ISO_8,87,9999,9999,9999,2083702896
75,18,7,Jits_ISO_8,88,9999,9999,9999,2084502600
75,18,7,Jits_ISO_8,89,9999,9999,9999,2085302392
75,18,7,Jits_ISO_8,90,9999,9999,9999,2086102108
75,18,7,Jits_ISO_8,91,9999,9999,9999,2086902864
75,18,7,Jits_ISO_8,92,9999,9999,9999,2087702588
75,18,7,Jits_ISO_8,93,9999,9999,9999,2088502372
75,18,7,Jits_ISO_8,94,9999,9999,9999,2089302080
75,18,7,Jits_ISO_8,95,9999,9999,9999,2090102876
75,18,7,Jits_ISO_8,96,9999,9999,9999,2090902596
75,18,7,Jits_ISO_8,97,9999,9999,9999,2091702380
75,18,7,Jits_ISO_8,98,9999,9999,9999,2092502108
75,18,7,Jits_ISO_8,99,9999,9999,9999,2093302868
75,18,7,Jits_ISO_8,100,9999,9999,9999,2094102644
75,18,7,Jits_ISO_8,101,9999,9999,9999,2094902360
75,18,7,Jits_ISO_8,102,9999,9999,9999,2095702076
75,18,7,Jits_ISO_8,103,9999,9999,9999,2096502856
75,18,7,Jits_ISO_8,104,9999,9999,9999,2097302584
75,18,7,Jits_ISO_8,105,9999,9999,9999,2098102376
75,18,7,Jits_ISO_8,106,9999,9999,9999,2098902076
75,18,7,Jits_ISO_8,107,9999,9999,9999,2099702884
75,18,7,Jits_ISO_8,108,9999,9999,9999,2100502600
75,18,7,Jits_ISO_8,109,9999,9999,9999,2101302376
75,18,7,Jits_ISO_8,110,9999,9999,9999,2102102096
75,18,7,Jits_ISO_8,111,9999,9999,9999,2102902880
75,18,7,Jits_ISO_8,112,9999,9999,9999,2103702592
75,18,7,Jits_ISO_8,113,9999,9999,9999,2104502392
75,18,7,Jits_ISO_8,114,9999,9999,9999,2105302100
75,18,7,Jits_ISO_8,115,9999,9999,9999,2106102852
75,18,7,Jits_ISO_8,116,9999,9999,9999,2106902652
75,18,7,Jits_ISO_8,117,9999,9999,9999,2107702376
75,18,7,Jits_ISO_8,118,9999,9999,9999,2108502104
75,18,7,Jits_ISO_8,119,9999,9999,9999,2109302892
75,19,16,Jits_ISO_5,0,5,56,103,2117128716
75,19,16,Jits_ISO_5,1,5,63,98,2117131740
75,19,16,Jits_ISO_5,2,5,80,127,2117134784
75,19,16,Jits_ISO_5,0,5,56,103,2117629556
75,19,16,Jits_ISO_5,1,5,63,98,2117632508
75,19,16,Jits_ISO_5,2,5,80,127,2117635776
75,19,16,Jits_ISO_5,0,5,56,103,2118128924
75,19,16,Jits_ISO_5,1,5,80,127,2118139268
75,19,16,Jits_ISO_5,2,5,63,98,2118158904
75,19,16,Jits_ISO_5,0,5,63,98,2118578840
75,19,16,Jits_ISO_5,1,5,80,127,2118609264
75,19,16,Jits_ISO_5,2,5,56,103,2118618636
75,19,16,Jits_ISO_5,0,1,48,82,2119066304
75,19,16,Jits_ISO_5,1,5,80,127,2119138640
75,19,16,Jits_ISO_5,2,5,56,103,2119149132
75,19,16,Jits_ISO_5,3,5,63,98,2119178716
75,19,16,Jits_ISO_5,0,5,63,98,2119629316
75,19,16,Jits_ISO_5,1,1,48,73,2119634528
75,19,16,Jits_ISO_5,2,5,56,103,2119658908
75,19,16,Jits_ISO_5,3,5,80,127,2119669180
75,19,16,Jits_ISO_5,0,5,56,103,2120078856
75,19,16,Jits_ISO_5,1,5,63,98,2120128760
75,19,16,Jits_ISO_5,2,5,80,127,2120149440
75,19,16,Jits_ISO_5,3,1,48,74,2120170616
75,19,16,Jits_ISO_5,0,5,80,127,2120578600
75,19,16,Jits_ISO_5,1,5,63,98,2120628728
75,19,16,Jits_ISO_5,2,1,48,71,2120642860
75,19,16,Jits_ISO_5,3,5,56,103,2120668508
75,19,16,Jits_ISO_5,0,5,56,103,2121079172
75,19,16,Jits_ISO_5,1,5,63,98,2121108920
75,19,16,Jits_ISO_5,2,1,48,67,2121148156
75,19,16,Jits_ISO_5,3,5,80,127,2121178592
75,19,16,Jits_ISO_5,0,5,56,103,2121578820
75,19,16,Jits_ISO_5,1,1,48,69,2121632012
75,19,16,Jits_ISO_5,2,5,80,127,2121639156
75,19,16,Jits_ISO_5,3,5,63,98,2121668904
75,19,16,Jits_ISO_5,0,5,56,103,2122088908
75,19,16,Jits_ISO_5,1,5,63,98,2122099204
75,19,16,Jits_ISO_5,2,1,48,75,2122125692
75,19,16,Jits_ISO_5,3,5,80,127,2122138984
75,19,16,Jits_ISO_5,0,5,63,98,2122579212
75,19,16,Jits_ISO_5,1,1,48,74,2122598592
75,19,16,Jits_ISO_5,2,5,80,127,2122659172
75,19,16,Jits_ISO_5,3,5,56,103,2122669812
75,19,16,Jits_ISO_5,0,1,48,77,2123121112
75,19,16,Jits_ISO_5,1,5,63,98,2123129156
75,19,16,Jits_ISO_5,2,5,56,103,2123169168
75,19,16,Jits_ISO_5,3,5,80,127,2123172084
75,19,16,Jits_ISO_5,0,5,56,103,2123588932
75,19,16,Jits_ISO_5,1,5,63,98,2123599204
75,19,16,Jits_ISO_5,2,5,80,127,2123639168
75,19,16,Jits_ISO_5,3,1,48,80,2123643780
75,19,16,Jits_ISO_5,0,5,56,103,2124078484
75,19,16,Jits_ISO_5,1,5,63,98,2124081552
75,19,16,Jits_ISO_5,2,5,80,127,2124098940
75,19,16,Jits_ISO_5,3,1,48,73,2124130228
75,19,16,Jits_ISO_5,0,5,80,127,2124589528
75,19,16,Jits_ISO_5,1,1,48,68,2124597848
75,19,16,Jits_ISO_5,2,5,56,103,2124599420
75,19,16,Jits_ISO_5,3,5,63,98,2124669416
75,19,16,Jits_ISO_5,0,5,63,98,2125078860
75,19,16,Jits_ISO_5,1,5,56,103,2125099248
75,19,16,Jits_ISO_5,2,1,48,67,2125117128
75,19,16,Jits_ISO_5,3,5,80,127,2125179200
75,19,16,Jits_ISO_5,0,5,56,103,2125588780
75,19,16,Jits_ISO_5,1,1,48,72,2125610556
75,19,16,Jits_ISO_5,2,5,80,127,2125628712
75,19,16,Jits_ISO_5,3,5,63,98,2125638980
75,19,16,Jits_ISO_5,0,5,80,127,2126079536
75,19,16,Jits_ISO_5,1,5,63,98,2126109136
75,19,16,Jits_ISO_5,2,1,48,75,2126110104
75,19,16,Jits_ISO_5,3,5,56,103,2126148916
75,19,16,Jits_ISO_5,0,5,56,103,2126598684
75,19,16,Jits_ISO_5,1,1,48,78,2126603972
75,19,16,Jits_ISO_5,2,5,63,98,2126629176
75,19,16,Jits_ISO_5,3,5,80,127,2126679824
75,19,16,Jits_ISO_5,0,5,80,127,2127099332
75,19,16,Jits_ISO_5,1,1,48,80,2127126888
75,19,16,Jits_ISO_5,2,5,56,103,2127139116
75,19,16,Jits_ISO_5,3,5,63,98,2127149608
75,19,16,Jits_ISO_5,0,5,80,127,2127578556
75,19,16,Jits_ISO_5,1,5,63,98,2127618492
75,19,16,Jits_ISO_5,2,1,48,86,2127632700
75,19,16,Jits_ISO_5,3,5,56,103,2127678800
75,19,16,Jits_ISO_5,0,5,56,103,2128079276
75,19,16,Jits_ISO_5,1,5,80,127,2128088500
75,19,16,Jits_ISO_5,2,1,48,79,2128139792
75,19,16,Jits_ISO_5,3,5,63,98,2128169404
75,19,16,Jits_ISO_5,0,5,80,127,2128578872
75,19,16,Jits_ISO_5,1,1,48,82,2128628368
75,19,16,Jits_ISO_5,2,5,63,98,2128639628
75,19,16,Jits_ISO_5,3,5,56,103,2128668928
75,19,16,Jits_ISO_5,0,5,56,103,2129078624
75,19,16,Jits_ISO_5,1,5,80,127,2129139084
75,19,16,Jits_ISO_5,2,1,48,73,2129148056
75,19,16,Jits_ISO_5,3,5,63,98,2129178940
75,19,16,Jits_ISO_5,0,5,56,103,2129628496
75,19,16,Jits_ISO_5,1,5,63,98,2129638836
75,19,16,Jits_ISO_5,2,5,80,127,2129642424
75,19,16,Jits_ISO_5,3,1,48,79,2129647956
75,19,16,Jits_ISO_5,0,5,80,127,2130079532
75,19,16,Jits_ISO_5,1,1,48,78,2130140864
75,19,16,Jits_ISO_5,2,5,63,98,2130169208
75,19,16,Jits_ISO_5,3,5,56,103,2130178656
75,19,16,Jits_ISO_5,0,5,56,103,2130578740
75,19,16,Jits_ISO_5,1,5,63,98,2130581836
75,19,16,Jits_ISO_5,2,5,80,127,2130584884
75,19,16,Jits_ISO_5,3,1,48,77,2130669596
75,19,16,Jits_ISO_5,0,5,80,127,2131098856
75,19,16,Jits_ISO_5,1,5,63,98,2131149132
75,19,16,Jits_ISO_5,2,1,48,70,2131155908
75,19,16,Jits_ISO_5,3,5,56,103,2131178724
75,19,16,Jits_ISO_5,0,5,56,103,2131579568
75,19,16,Jits_ISO_5,1,5,80,127,2131588424
75,19,16,Jits_ISO_5,2,5,63,98,2131658996
75,19,16,Jits_ISO_5,3,1,48,69,2131668340
75,19,16,Jits_ISO_5,0,5,56,103,2132089352
75,19,16,Jits_ISO_5,1,5,63,98,2132108616
75,19,16,Jits_ISO_5,2,1,48,74,2132160208
75,19,16,Jits_ISO_5,3,5,80,127,2132169072
75,19,16,Jits_ISO_5,0,5,80,127,2132578664
75,19,16,Jits_ISO_5,1,5,63,98,2132649416
75,19,16,Jits_ISO_5,2,1,48,74,2132651280
75,19,16,Jits_ISO_5,3,5,56,103,2132668672
75,19,16,Jits_ISO_5,0,5,80,127,2133098864
75,19,16,Jits_ISO_5,1,5,56,103,2133109084
75,19,16,Jits_ISO_5,2,5,63,98,2133119280
75,19,16,Jits_ISO_5,3,1,48,69,2133153860
75,19,16,Jits_ISO_5,0,5,80,127,2133589540
75,19,16,Jits_ISO_5,1,5,56,103,2133608804
75,19,16,Jits_ISO_5,2,1,48,71,2133639820
75,19,16,Jits_ISO_5,3,5,63,98,2133678576
75,19,16,Jits_ISO_5,0,5,56,103,2134099404
75,19,16,Jits_ISO_5,1,5,80,127,2134129032
75,19,16,Jits_ISO_5,2,1,48,66,2134141588
75,19,16,Jits_ISO_5,3,5,63,98,2134148436
75,19,16,Jits_ISO_5,0,5,63,98,2134588660
75,19,16,Jits_ISO_5,1,1,48,69,2134628940
75,19,16,Jits_ISO_5,2,5,56,103,2134649140
75,19,16,Jits_ISO_5,3,5,80,127,2134678888
75,19,16,Jits_ISO_5,0,5,63,98,2135079472
75,19,16,Jits_ISO_5,1,5,80,127,2135082688
75,19,16,Jits_ISO_5,2,1,48,73,2135114128
75,19,16,Jits_ISO_5,3,5,56,103,2135169468
75,19,16,Jits_ISO_5,0,5,56,103,2135598524
75,19,16,Jits_ISO_5,1,1,48,71,2135608164
75,19,16,Jits_ISO_5,2,5,63,98,2135629240
75,19,16,Jits_ISO_5,3,5,80,127,2135669200
75,19,16,Jits_ISO_5,0,5,63,98,2136099248
75,19,16,Jits_ISO_5,1,1,48,65,2136111732
75,19,16,Jits_ISO_5,2,5,56,103,2136139400
75,19,16,Jits_ISO_5,3,5,80,127,2136158588
75,19,16,Jits_ISO_5,0,5,63,98,2136609244
75,19,16,Jits_ISO_5,1,1,48,72,2136620756
75,19,16,Jits_ISO_5,2,5,56,103,2136649028
75,19,16,Jits_ISO_5,3,5,80,127,2136659444
75,19,16,Jits_ISO_5,0,5,80,127,2137089572
75,19,16,Jits_ISO_5,1,1,48,75,2137120412
75,19,16,Jits_ISO_5,2,5,63,98,2137159096
75,19,16,Jits_ISO_5,3,5,56,103,2137178432
75,19,16,Jits_ISO_5,0,5,56,103,2137578832
75,19,16,Jits_ISO_5,1,5,80,127,2137599368
75,19,16,Jits_ISO_5,2,5,63,98,2137639452
75,19,16,Jits_ISO_5,3,1,48,76,2137640936
75,19,16,Jits_ISO_5,0,5,63,98,2138088768
75,19,16,Jits_ISO_5,1,5,80,127,2138109228
75,19,16,Jits_ISO_5,2,1,48,75,2138129436
75,19,16,Jits_ISO_5,3,5,56,103,2138149456
75,19,16,Jits_ISO_5,0,5,63,98,2138588576
75,19,16,Jits_ISO_5,1,5,56,103,2138608960
75,19,16,Jits_ISO_5,2,1,48,69,2138611556
75,19,16,Jits_ISO_5,3,5,80,127,2138619448
75,19,16,Jits_ISO_5,0,5,80,127,2139089428
75,19,16,Jits_ISO_5,1,1,48,71,2139098920
75,19,16,Jits_ISO_5,2,5,56,103,2139108836
75,19,16,Jits_ISO_5,3,5,63,98,2139138360
75,19,16,Jits_ISO_5,0,1,48,73,2139629452
75,19,16,Jits_ISO_5,1,5,56,103,2139658544
75,19,16,Jits_ISO_5,2,5,80,127,2139661688
75,19,16,Jits_ISO_5,3,5,63,98,2139679224
75,19,16,Jits_ISO_5,0,5,63,98,2140078420
75,19,16,Jits_ISO_5,1,5,56,103,2140109364
75,19,16,Jits_ISO_5,2,1,48,77,2140144388
75,19,16,Jits_ISO_5,3,5,80,127,2140168548
75,19,16,Jits_ISO_5,0,1,48,81,2140646900
75,19,16,Jits_ISO_5,1,5,63,98,2140659132
75,19,16,Jits_ISO_5,2,5,56,103,2140669328
75,19,16,Jits_ISO_5,3,5,80,127,2140678476
75,19,16,Jits_ISO_5,0,5,56,103,2141108532
75,19,16,Jits_ISO_5,1,5,80,127,2141139552
75,19,16,Jits_ISO_5,2,5,63,98,2141148400
75,19,16,Jits_ISO_5,3,1,48,75,2141166268
75,19,16,Jits_ISO_5,0,1,48,75,2141631172
75,19,16,Jits_ISO_5,1,5,63,98,2141649552
75,19,16,Jits_ISO_5,2,5,56,103,2141658552
75,19,16,Jits_ISO_5,3,5,80,127,2141679012
75,19,16,Jits_ISO_5,0,5,56,103,2142079400
75,19,16,Jits_ISO_5,1,1,48,70,2142130020
75,19,16,Jits_ISO_5,2,5,63,98,2142138736
75,19,16,Jits_ISO_5,3,5,80,127,2142142248
75,19,16,Jits_ISO_5,0,5,80,127,2142598472
75,19,16,Jits_ISO_5,1,5,56,103,2142608888
75,19,16,Jits_ISO_5,2,1,48,71,2142635824
75,19,16,Jits_ISO_5,3,5,63,98,2142679460
75,19,16,Jits_ISO_5,0,5,80,127,2143089300
75,19,16,Jits_ISO_5,1,1,48,69,2143129432
75,19,16,Jits_ISO_5,2,5,56,103,2143158676
75,19,16,Jits_ISO_5,3,5,63,98,2143169020
75,19,16,Jits_ISO_5,0,5,63,98,2143628684
75,19,16,Jits_ISO_5,1,1,48,73,2143637212
75,19,16,Jits_ISO_5,2,5,56,103,2143638876
75,19,16,Jits_ISO_5,3,5,80,127,2143659408
75,19,16,Jits_ISO_5,0,5,80,127,2144079396
75,19,16,Jits_ISO_5,1,5,63,98,2144138464
75,19,16,Jits_ISO_5,2,1,48,79,2144140332
75,19,16,Jits_ISO_5,3,5,56,103,2144178468
75,19,16,Jits_ISO_5,0,5,56,103,2144618852
75,19,16,Jits_ISO_5,1,5,63,98,2144629272
75,19,16,Jits_ISO_5,2,1,48,79,2144649332
75,19,16,Jits_ISO_5,3,5,80,127,2144668976
75,19,16,Jits_ISO_5,0,5,56,103,2145078496
75,19,16,Jits_ISO_5,1,5,80,127,2145109220
75,19,16,Jits_ISO_5,2,1,48,79,2145131512
75,19,16,Jits_ISO_5,3,5,63,98,2145158464
75,19,16,Jits_ISO_5,0,1,48,74,2145616480
75,19,16,Jits_ISO_5,1,5,56,103,2145619216
75,19,16,Jits_ISO_5,2,5,63,98,2145659324
75,19,16,Jits_ISO_5,3,5,80,127,2145662688
75,19,16,Jits_ISO_5,0,5,56,103,2146118948
75,19,16,Jits_ISO_5,1,1,48,71,2146122588
75,19,16,Jits_ISO_5,2,5,63,98,2146129212
75,19,16,Jits_ISO_5,3,5,80,127,2146148700
75,19,16,Jits_ISO_5,0,5,56,103,2146578764
75,19,16,Jits_ISO_5,1,5,80,127,2146581828
75,19,16,Jits_ISO_5,2,5,63,98,2146618700
75,19,16,Jits_ISO_5,3,1,48,71,2146623384
75,19,16,Jits_ISO_5,0,1,48,78,2147099668
75,19,16,Jits_ISO_5,1,5,63,98,2147118424
75,19,16,Jits_ISO_5,2,5,56,103,2147149292
75,19,16,Jits_ISO_5,3,5,80,127,2147168556
75,19,16,Jits_ISO_5,0,5,80,127,2147588348
75,19,16,Jits_ISO_5,1,5,56,103,2147598840
75,19,16,Jits_ISO_5,2,1,48,76,2147609408
75,19,16,Jits_ISO_5,3,5,63,98,2147610600
75,19,16,Jits_ISO_5,0,5,56,103,2148089360
75,19,16,Jits_ISO_5,1,1,48,73,2148099004
75,19,16,Jits_ISO_5,2,5,80,127,2148129220
75,19,16,Jits_ISO_5,3,5,63,98,2148158744
75,19,16,Jits_ISO_5,0,1,48,79,2148576580
75,19,16,Jits_ISO_5,1,5,63,98,2148599296
75,19,16,Jits_ISO_5,2,5,80,127,2148609268
75,19,16,Jits_ISO_5,3,5,56,103,2148618712
75,19,16,Jits_ISO_5,0,5,56,103,2149079480
75,19,16,Jits_ISO_5,1,1,48,77,2149089044
75,19,16,Jits_ISO_5,2,5,63,98,2149149300
75,19,16,Jits_ISO_5,3,5,80,127,2149159420
75,19,16,Jits_ISO_5,0,5,80,127,2149579152
75,19,16,Jits_ISO_5,1,5,56,103,2149589496
75,19,16,Jits_ISO_5,2,1,48,79,2149624976
75,19,16,Jits_ISO_5,3,5,63,98,2149638568
75,19,16,Jits_ISO_5,0,5,80,127,2150089312
75,19,16,Jits_ISO_5,1,1,48,81,2150108548
75,19,16,Jits_ISO_5,2,5,56,103,2150148504
75,19,16,Jits_ISO_5,3,5,63,98,2150179148
75,19,16,Jits_ISO_5,0,5,56,103,2150588840
75,19,16,Jits_ISO_5,1,5,80,127,2150591984
75,19,16,Jits_ISO_5,2,1,48,84,2150613532
75,19,16,Jits_ISO_5,3,5,63,98,2150628696
75,19,16,Jits_ISO_5,0,1,48,84,2151100304
75,19,16,Jits_ISO_5,1,5,56,103,2151119284
75,19,16,Jits_ISO_5,2,5,63,98,2151149036
75,19,16,Jits_ISO_5,3,5,80,127,2151159232
75,19,16,Jits_ISO_5,0,1,48,79,2151599448
75,19,16,Jits_ISO_5,1,5,63,98,2151629136
75,19,16,Jits_ISO_5,2,5,80,127,2151639336
75,19,16,Jits_ISO_5,3,5,56,103,2151648556
75,19,16,Jits_ISO_5,0,5,80,127,2152078756
75,19,16,Jits_ISO_5,1,1,48,85,2152110272
75,19,16,Jits_ISO_5,2,5,56,103,2152128872
75,19,16,Jits_ISO_5,3,5,63,98,2152131940
75,19,16,Jits_ISO_5,0,5,56,103,2152609208
75,19,16,Jits_ISO_5,1,1,48,85,2152613976
75,19,16,Jits_ISO_5,2,5,80,127,2152628612
75,19,16,Jits_ISO_5,3,5,63,98,2152639032
75,19,16,Jits_ISO_5,0,5,63,98,2153089252
75,19,16,Jits_ISO_5,1,1,48,85,2153111548
75,19,16,Jits_ISO_5,2,5,56,103,2153119068
75,19,16,Jits_ISO_5,3,5,80,127,2153138628
75,19,16,Jits_ISO_5,0,5,56,103,2153599248
75,19,16,Jits_ISO_5,1,5,80,127,2153608468
75,19,16,Jits_ISO_5,2,1,48,76,2153609436
75,19,16,Jits_ISO_5,3,5,63,98,2153679184
75,19,16,Jits_ISO_5,0,5,63,98,2154088932
75,19,16,Jits_ISO_5,1,5,80,127,2154128744
75,19,16,Jits_ISO_5,2,1,48,69,2154129636
75,19,16,Jits_ISO_5,3,5,56,103,2154168748
75,19,16,Jits_ISO_5,0,5,56,103,2154599000
75,19,16,Jits_ISO_5,1,5,63,98,2154609148
75,19,16,Jits_ISO_5,2,5,80,127,2154628336
75,19,16,Jits_ISO_5,3,1,48,74,2154653176
75,19,16,Jits_ISO_5,0,1,48,77,2155138028
75,19,16,Jits_ISO_5,1,5,63,98,2155139520
75,19,16,Jits_ISO_5,2,5,80,127,2155159080
75,19,16,Jits_ISO_5,3,5,56,103,2155179392
75,19,16,Jits_ISO_5,0,5,56,103,2155578928
75,19,16,Jits_ISO_5,1,1,48,81,2155647112
75,19,16,Jits_ISO_5,2,5,80,127,2155658592
75,19,16,Jits_ISO_5,3,5,63,98,2155669160
75,19,16,Jits_ISO_5,0,5,80,127,2156119280
75,19,16,Jits_ISO_5,1,5,63,98,2156128576
75,19,16,Jits_ISO_5,2,1,48,72,2156152764
75,19,16,Jits_ISO_5,3,5,56,103,2156159312
75,19,16,Jits_ISO_5,0,5,63,98,2156579244
75,19,16,Jits_ISO_5,1,5,80,127,2156619180
75,19,16,Jits_ISO_5,2,1,48,76,2156629868
75,19,16,Jits_ISO_5,3,5,56,103,2156678464
75,19,16,Jits_ISO_5,0,5,63,98,2157089088
75,19,16,Jits_ISO_5,1,5,56,103,2157139288
75,19,16,Jits_ISO_5,2,1,48,80,2157160468
75,19,16,Jits_ISO_5,3,5,80,127,2157169204
75,19,16,Jits_ISO_5,0,5,80,127,2157599088
75,19,16,Jits_ISO_5,1,5,63,98,2157609360
75,19,16,Jits_ISO_5,2,1,48,86,2157638928
75,19,16,Jits_ISO_5,3,5,56,103,2157679128
75,19,16,Jits_ISO_5,0,1,48,81,2158127284
75,19,16,Jits_ISO_5,1,5,80,127,2158168356
75,19,16,Jits_ISO_5,2,5,56,103,2158178624
75,19,16,Jits_ISO_5,3,5,63,98,2158181988
75,19,16,Jits_ISO_5,0,5,56,103,2158608904
75,19,16,Jits_ISO_5,1,5,80,127,2158629140
75,19,16,Jits_ISO_5,2,1,48,86,2158636392
75,19,16,Jits_ISO_5,3,5,63,98,2158638356
75,19,16,Jits_ISO_5,0,5,63,98,2159118916
75,19,16,Jits_ISO_5,1,1,48,85,2159124580
75,19,16,Jits_ISO_5,2,5,56,103,2159158772
75,19,16,Jits_ISO_5,3,5,80,127,2159179080
75,19,16,Jits_ISO_5,0,5,63,98,2159618356
75,19,16,Jits_ISO_5,1,1,48,87,2159627172
75,19,16,Jits_ISO_5,2,5,56,103,2159679108
75,19,16,Jits_ISO_5,3,5,80,127,2159682028
75,19,16,Jits_ISO_5,0,5,56,103,2160079196
75,19,16,Jits_ISO_5,1,5,80,127,2160098536
75,19,16,Jits_ISO_5,2,1,48,93,2160131468
75,19,16,Jits_ISO_5,3,5,63,98,2160138612
75,19,16,Jits_ISO_5,0,5,56,103,2160608836
75,19,16,Jits_ISO_5,1,1,48,89,2160621468
75,19,16,Jits_ISO_5,2,5,63,98,2160629064
75,19,16,Jits_ISO_5,3,5,80,127,2160639332
75,19,16,Jits_ISO_5,0,5,80,127,2161078764
75,19,16,Jits_ISO_5,1,5,56,103,2161109484
75,19,16,Jits_ISO_5,2,1,48,90,2161110896
75,19,16,Jits_ISO_5,3,5,63,98,2161149264
75,19,16,Jits_ISO_5,0,5,80,127,2161588696
75,19,16,Jits_ISO_5,1,5,56,103,2161609008
75,19,16,Jits_ISO_5,2,1,48,88,2161615940
75,19,16,Jits_ISO_5,3,5,63,98,2161668488
75,19,16,Jits_ISO_5,0,5,56,103,2162098560
75,19,16,Jits_ISO_5,1,1,48,86,2162113360
75,19,16,Jits_ISO_5,2,5,80,127,2162119012
75,19,16,Jits_ISO_5,3,5,63,98,2162178276
75,19,16,Jits_ISO_5,0,5,80,127,2162578904
75,19,16,Jits_ISO_5,1,5,56,103,2162588948
75,19,16,Jits_ISO_5,2,5,63,98,2162629032
75,19,16,Jits_ISO_5,3,1,48,83,2162632980
75,19,16,Jits_ISO_5,0,5,63,98,2163078576
75,19,16,Jits_ISO_5,1,5,56,103,2163118584
75,19,16,Jits_ISO_5,2,5,80,127,2163121652
75,19,16,Jits_ISO_5,3,1,48,81,2163128600
75,19,16,Jits_ISO_5,0,5,63,98,2163598744
75,19,16,Jits_ISO_5,1,1,48,76,2163617008
75,19,16,Jits_ISO_5,2,5,80,127,2163638752
75,19,16,Jits_ISO_5,3,5,56,103,2163669248
75,19,16,Jits_ISO_5,0,5,56,103,2164089112
75,19,16,Jits_ISO_5,1,5,63,98,2164098412
75,19,16,Jits_ISO_5,2,1,48,85,2164117720
75,19,16,Jits_ISO_5,3,5,80,127,2164129200
75,19,16,Jits_ISO_5,0,5,80,127,2164578796
75,19,16,Jits_ISO_5,1,1,48,86,2164591380
75,19,16,Jits_ISO_5,2,5,63,98,2164649316
75,19,16,Jits_ISO_5,3,5,56,103,2164658540
75,19,16,Jits_ISO_5,0,5,63,98,2165079440
75,19,16,Jits_ISO_5,1,1,48,86,2165119300
75,19,16,Jits_ISO_5,2,5,56,103,2165148988
75,19,16,Jits_ISO_5,3,5,80,127,2165159260
75,19,16,Jits_ISO_5,0,5,63,98,2165579100
75,19,16,Jits_ISO_5,1,1,48,94,2165590760
75,19,16,Jits_ISO_5,2,5,56,103,2165598652
75,19,16,Jits_ISO_5,3,5,80,127,2165638464
75,19,16,Jits_ISO_5,0,1,48,87,2166089244
75,19,16,Jits_ISO_5,1,5,56,103,2166090884
75,19,16,Jits_ISO_5,2,5,63,98,2166099284
75,19,16,Jits_ISO_5,3,5,80,127,2166179172
75,19,16,Jits_ISO_5,0,5,63,98,2166578628
75,19,16,Jits_ISO_5,1,1,48,92,2166591864
75,19,16,Jits_ISO_5,2,5,56,103,2166609196
75,19,16,Jits_ISO_5,3,5,80,127,2166649228
75,19,16,Jits_ISO_5,0,5,56,103,2167079332
75,19,16,Jits_ISO_5,1,1,48,86,2167095336
75,19,16,Jits_ISO_5,2,5,63,98,2167119116
75,19,16,Jits_ISO_5,3,5,80,127,2167159076
75,19,16,Jits_ISO_5,0,5,80,127,2167579004
75,19,16,Jits_ISO_5,1,1,48,84,2167597860
75,19,16,Jits_ISO_5,2,5,56,103,2167658792
75,19,16,Jits_ISO_5,3,5,63,98,2167669236
75,19,16,Jits_ISO_5,0,1,48,79,2168103664
75,19,16,Jits_ISO_5,1,5,56,103,2168118908
75,19,16,Jits_ISO_5,2,5,63,98,2168122044
75,19,16,Jits_ISO_5,3,5,80,127,2168128948
75,19,16,Jits_ISO_5,0,1,48,82,2168616644
75,19,16,Jits_ISO_5,1,5,56,103,2168638856
75,19,16,Jits_ISO_5,2,5,63,98,2168659316
75,19,16,Jits_ISO_5,3,5,80,127,2168668464
75,19,16,Jits_ISO_5,0,5,63,98,2169098744
75,19,16,Jits_ISO_5,1,5,80,127,2169108864
75,19,16,Jits_ISO_5,2,1,48,89,2169126580
75,19,16,Jits_ISO_5,3,5,56,103,2169129316
75,19,16,Jits_ISO_5,0,5,63,98,2169599296
75,19,16,Jits_ISO_5,1,1,48,86,2169603240
75,19,16,Jits_ISO_5,2,5,56,103,2169679232
75,19,16,Jits_ISO_5,3,5,80,127,2169682224
75,19,16,Jits_ISO_5,0,5,63,98,2170099028
75,19,16,Jits_ISO_5,1,5,56,103,2170118740
75,19,16,Jits_ISO_5,2,1,48,70,2170128008
75,19,16,Jits_ISO_5,3,5,80,127,2170149228
75,19,16,Jits_ISO_5,0,5,56,103,2170598760
75,19,16,Jits_ISO_5,1,5,63,98,2170619296
75,19,16,Jits_ISO_5,2,5,80,127,2170628888
75,19,16,Jits_ISO_5,3,1,48,75,2170631564
75,19,16,Jits_ISO_5,0,5,56,103,2171129152
75,19,16,Jits_ISO_5,1,1,48,81,2171153316
75,19,16,Jits_ISO_5,2,5,63,98,2171158892
75,19,16,Jits_ISO_5,3,5,80,127,2171162180
75,19,16,Jits_ISO_5,0,5,56,103,2171578920
75,19,16,Jits_ISO_5,1,5,63,98,2171619080
75,19,16,Jits_ISO_5,2,1,48,80,2171643476
75,19,16,Jits_ISO_5,3,5,80,127,2171679088
75,19,16,Jits_ISO_5,0,5,56,103,2172098972
75,19,16,Jits_ISO_5,1,5,63,98,2172109092
75,19,16,Jits_ISO_5,2,1,48,69,2172163080
75,19,16,Jits_ISO_5,3,5,80,127,2172168648
75,19,16,Jits_ISO_5,0,5,56,103,2172598720
75,19,16,Jits_ISO_5,1,1,48,71,2172612472
75,19,16,Jits_ISO_5,2,5,80,127,2172619020
75,19,16,Jits_ISO_5,3,5,63,98,2172648696
75,19,16,Jits_ISO_5,0,5,80,127,2173099588
75,19,16,Jits_ISO_5,1,5,56,103,2173108736
75,19,16,Jits_ISO_5,2,1,48,73,2173123764
75,19,16,Jits_ISO_5,3,5,63,98,2173129036
75,19,16,Jits_ISO_5,0,5,63,98,2173588844
75,19,16,Jits_ISO_5,1,1,48,74,2173623124
75,19,16,Jits_ISO_5,2,5,80,127,2173668780
75,19,16,Jits_ISO_5,3,5,56,103,2173678976
75,19,16,Jits_ISO_5,0,1,48,76,2174144208
75,19,16,Jits_ISO_5,1,5,80,127,2174148960
75,19,16,Jits_ISO_5,2,5,56,103,2174168592
75,19,16,Jits_ISO_5,3,5,63,98,2174171512
75,19,16,Jits_ISO_5,0,5,63,98,2174619096
75,19,16,Jits_ISO_5,1,5,80,127,2174622388
75,19,16,Jits_ISO_5,2,1,48,70,2174675476
75,19,16,Jits_ISO_5,3,5,56,103,2174679480
75,19,16,Jits_ISO_5,0,5,56,103,2175099124
75,19,16,Jits_ISO_5,1,5,80,127,2175108644
75,19,16,Jits_ISO_5,2,5,63,98,2175149628
75,19,16,Jits_ISO_5,3,1,48,75,2175181440
75,19,16,Jits_ISO_5,0,5,56,103,2175578764
75,19,16,Jits_ISO_5,1,5,63,98,2175638884
75,19,16,Jits_ISO_5,2,5,80,127,2175649156
75,19,16,Jits_ISO_5,3,1,48,80,2175661936
75,19,16,Jits_ISO_5,0,5,63,98,2176088556
75,19,16,Jits_ISO_5,1,5,80,127,2176129492
75,19,16,Jits_ISO_5,2,1,48,67,2176148420
75,19,16,Jits_ISO_5,3,5,56,103,2176169644
75,19,16,Jits_ISO_5,0,5,56,103,2176589112
75,19,16,Jits_ISO_5,1,1,48,65,2176621700
75,19,16,Jits_ISO_5,2,5,63,98,2176668996
75,19,16,Jits_ISO_5,3,5,80,127,2176672360
75,19,16,Jits_ISO_5,0,9999,9999,9999,2117376072
75,19,16,Jits_ISO_5,1,9999,9999,9999,2117876836
75,19,16,Jits_ISO_5,2,9999,9999,9999,2118376504
75,19,16,Jits_ISO_5,3,9999,9999,9999,2118876240
75,19,16,Jits_ISO_5,4,9999,9999,9999,2119376992
75,19,16,Jits_ISO_5,5,9999,9999,9999,2119876728
75,19,16,Jits_ISO_5,6,9999,9999,9999,2120376384
75,19,16,Jits_ISO_5,7,9999,9999,9999,2120876132
75,19,16,Jits_ISO_5,8,9999,9999,9999,2121376852
75,19,16,Jits_ISO_5,9,9999,9999,9999,2121876600
75,19,16,Jits_ISO_5,10,9999,9999,9999,2122376272
75,19,16,Jits_ISO_5,11,9999,9999,9999,2122876992
75,19,16,Jits_ISO_5,12,9999,9999,9999,2123376716
75,19,16,Jits_ISO_5,13,9999,9999,9999,2123876424
75,19,16,Jits_ISO_5,14,9999,9999,9999,2124376148
75,19,16,Jits_ISO_5,15,9999,9999,9999,2124876864
75,19,16,Jits_ISO_5,16,9999,9999,9999,2125376612
75,19,16,Jits_ISO_5,17,9999,9999,9999,2125876344
75,19,16,Jits_ISO_5,18,9999,9999,9999,2126377064
75,19,16,Jits_ISO_5,19,9999,9999,9999,2126876740
75,19,16,Jits_ISO_5,20,9999,9999,9999,2127376488
75,19,16,Jits_ISO_5,21,9999,9999,9999,2127876160
75,19,16,Jits_ISO_5,22,9999,9999,9999,2128376952
75,19,16,Jits_ISO_5,23,9999,9999,9999,2128876628
75,19,16,Jits_ISO_5,24,9999,9999,9999,2129376380
75,19,16,Jits_ISO_5,25,9999,9999,9999,2129877092
75,19,16,Jits_ISO_5,26,9999,9999,9999,2130376764
75,19,16,Jits_ISO_5,27,9999,9999,9999,2130876484
75,19,16,Jits_ISO_5,28,9999,9999,9999,2131376232
75,19,16,Jits_ISO_5,29,9999,9999,9999,2131876952
75,19,16,Jits_ISO_5,30,9999,9999,9999,2132376696
75,19,16,Jits_ISO_5,31,9999,9999,9999,2132876368
75,19,16,Jits_ISO_5,32,9999,9999,9999,2133376116
75,19,16,Jits_ISO_5,33,9999,9999,9999,2133876836
75,19,16,Jits_ISO_5,34,9999,9999,9999,2134376560
75,19,16,Jits_ISO_5,35,9999,9999,9999,2134876224
75,19,16,Jits_ISO_5,36,9999,9999,9999,2135376992
75,19,16,Jits_ISO_5,37,9999,9999,9999,2135876724
75,19,16,Jits_ISO_5,38,9999,9999,9999,2136376400
75,19,16,Jits_ISO_5,39,9999,9999,9999,2136876136
75,19,16,Jits_ISO_5,40,9999,9999,9999,2137376840
75,19,16,Jits_ISO_5,41,9999,9999,9999,2137876584
75,19,16,Jits_ISO_5,42,9999,9999,9999,2138376260
75,19,16,Jits_ISO_5,43,9999,9999,9999,2138877036
75,19,16,Jits_ISO_5,44,9999,9999,9999,2139376696
75,19,16,Jits_ISO_5,45,9999,9999,9999,2139876440
75,19,16,Jits_ISO_5,46,9999,9999,9999,2140376172
75,19,16,Jits_ISO_5,47,9999,9999,9999,2140876884
75,19,16,Jits_ISO_5,48,9999,9999,9999,2141376616
75,19,16,Jits_ISO_5,49,9999,9999,9999,2141876300
75,19,16,Jits_ISO_5,50,9999,9999,9999,2142377068
75,19,16,Jits_ISO_5,51,9999,9999,9999,2142876748
75,19,16,Jits_ISO_5,52,9999,9999,9999,2143376496
75,19,16,Jits_ISO_5,53,9999,9999,9999,2143876172
75,19,16,Jits_ISO_5,54,9999,9999,9999,2144376952
75,19,16,Jits_ISO_5,55,9999,9999,9999,2144876676
75,19,16,Jits_ISO_5,56,9999,9999,9999,2145376324
75,19,16,Jits_ISO_5,57,9999,9999,9999,2145877112
75,19,16,Jits_ISO_5,58,9999,9999,9999,2146376772
75,19,16,Jits_ISO_5,59,9999,9999,9999,2146876504
75,19,16,Jits_ISO_5,60,9999,9999,9999,2147376180
75,19,16,Jits_ISO_5,61,9999,9999,9999,2147876956
75,19,16,Jits_ISO_5,62,9999,9999,9999,2148376632
75,19,16,Jits_ISO_5,63,9999,9999,9999,2148876376
75,19,16,Jits_ISO_5,64,9999,9999,9999,2149376112
75,19,16,Jits_ISO_5,65,9999,9999,9999,2149876828
75,19,16,Jits_ISO_5,66,9999,9999,9999,2150376512
75,19,16,Jits_ISO_5,67,9999,9999,9999,2150876248
75,19,16,Jits_ISO_5,68,9999,9999,9999,2151376968
75,19,16,Jits_ISO_5,69,9999,9999,9999,2151876704
75,19,16,Jits_ISO_5,70,9999,9999,9999,2152376424
75,19,16,Jits_ISO_5,71,9999,9999,9999,2152876096
75,19,16,Jits_ISO_5,72,9999,9999,9999,2153376892
75,19,16,Jits_ISO_5,73,9999,9999,9999,2153876548
75,19,16,Jits_ISO_5,74,9999,9999,9999,2154376296
75,19,16,Jits_ISO_5,75,9999,9999,9999,2154877000
75,19,16,Jits_ISO_5,76,9999,9999,9999,2155376752
75,19,16,Jits_ISO_5,77,9999,9999,9999,2155876460
75,19,16,Jits_ISO_5,78,9999,9999,9999,2156376128
75,19,16,Jits_ISO_5,79,9999,9999,9999,2156876924
75,19,16,Jits_ISO_5,80,9999,9999,9999,2157376584
75,19,16,Jits_ISO_5,81,9999,9999,9999,2157876316
75,19,16,Jits_ISO_5,82,9999,9999,9999,2158377032
75,19,16,Jits_ISO_5,83,9999,9999,9999,2158876768
75,19,16,Jits_ISO_5,84,9999,9999,9999,2159376444
75,19,16,Jits_ISO_5,85,9999,9999,9999,2159876172
75,19,16,Jits_ISO_5,86,9999,9999,9999,2160376948
75,19,16,Jits_ISO_5,87,9999,9999,9999,2160876620
75,19,16,Jits_ISO_5,88,9999,9999,9999,2161376368
75,19,16,Jits_ISO_5,89,9999,9999,9999,2161877084
75,19,16,Jits_ISO_5,90,9999,9999,9999,2162376760
75,19,16,Jits_ISO_5,91,9999,9999,9999,2162876504
75,19,16,Jits_ISO_5,92,9999,9999,9999,2163376240
75,19,16,Jits_ISO_5,93,9999,9999,9999,2163876948
75,19,16,Jits_ISO_5,94,9999,9999,9999,2164376676
75,19,16,Jits_ISO_5,95,9999,9999,9999,2164876352
75,19,16,Jits_ISO_5,96,9999,9999,9999,2165376100
75,19,16,Jits_ISO_5,97,9999,9999,9999,2165876800
75,19,16,Jits_ISO_5,98,9999,9999,9999,2166376508
75,19,16,Jits_ISO_5,99,9999,9999,9999,2166876232
75,19,16,Jits_ISO_5,100,9999,9999,9999,2167377012
75,19,16,Jits_ISO_5,101,9999,9999,9999,2167876684
75,19,16,Jits_ISO_5,102,9999,9999,9999,2168376424
75,19,16,Jits_ISO_5,103,9999,9999,9999,2168876088
75,19,16,Jits_ISO_5,104,9999,9999,9999,2169376864
75,19,16,Jits_ISO_5,105,9999,9999,9999,2169876592
75,19,16,Jits_ISO_5,106,9999,9999,9999,2170376256
75,19,16,Jits_ISO_5,107,9999,9999,9999,2170877032
75,19,16,Jits_ISO_5,108,9999,9999,9999,2171376700
75,19,16,Jits_ISO_5,109,9999,9999,9999,2171876452
75,19,16,Jits_ISO_5,110,9999,9999,9999,2172376124
75,19,16,Jits_ISO_5,111,9999,9999,9999,2172876916
75,19,16,Jits_ISO_5,112,9999,9999,9999,2173376588
75,19,16,Jits_ISO_5,113,9999,9999,9999,2173876340
75,19,16,Jits_ISO_5,114,9999,9999,9999,2174377040
75,19,16,Jits_ISO_5,115,9999,9999,9999,2174876768
75,19,16,Jits_ISO_5,116,9999,9999,9999,2175376496
75,19,16,Jits_ISO_5,117,9999,9999,9999,2175876176
75,19,16,Jits_ISO_5,118,9999,9999,9999,2176376896
75,19,16,Jits_ISO_5,119,9999,9999,9999,2176876620
75,20,3,ISIP_8,0,5,42,127,2236847544
75,20,3,ISIP_8,1,5,42,127,2237648344
75,20,3,ISIP_8,2,5,42,127,2238447952
75,20,3,ISIP_8,3,5,42,127,2239247632
75,20,3,ISIP_8,4,1,48,65,2239997160
75,20,3,ISIP_8,5,5,42,127,2240047456
75,20,3,ISIP_8,6,1,48,76,2240787240
75,20,3,ISIP_8,7,5,42,127,2240848312
75,20,3,ISIP_8,8,5,42,127,2241648224
75,20,3,ISIP_8,9,1,48,74,2241661740
75,20,3,ISIP_8,10,1,48,63,2242429292
75,20,3,ISIP_8,11,5,42,127,2242447728
75,20,3,ISIP_8,12,1,48,62,2243236800
75,20,3,ISIP_8,13,5,42,127,2243247384
75,20,3,ISIP_8,14,1,48,64,2243995024
75,20,3,ISIP_8,15,5,42,127,2244048240
75,20,3,ISIP_8,16,5,42,127,2244847832
75,20,3,ISIP_8,17,1,48,62,2244860896
75,20,3,ISIP_8,18,1,48,48,2245629348
75,20,3,ISIP_8,19,5,42,127,2245647856
75,20,3,ISIP_8,20,5,42,127,2246447448
75,20,3,ISIP_8,21,1,48,59,2246457072
75,20,3,ISIP_8,22,1,48,57,2247243100
75,20,3,ISIP_8,23,5,42,127,2247248292
75,20,3,ISIP_8,24,5,42,127,2248048060
75,20,3,ISIP_8,25,1,48,56,2248072944
75,20,3,ISIP_8,26,5,42,127,2248847868
75,20,3,ISIP_8,27,1,48,56,2248868860
75,20,3,ISIP_8,28,5,42,127,2249647528
75,20,3,ISIP_8,29,1,48,57,2249669196
75,20,3,ISIP_8,30,1,48,53,2250434500
75,20,3,ISIP_8,31,5,42,127,2250448300
75,20,3,ISIP_8,32,1,48,54,2251239476
75,20,3,ISIP_8,33,5,42,127,2251248108
75,20,3,ISIP_8,34,1,48,49,2252036140
75,20,3,ISIP_8,35,5,42,127,2252047768
75,20,3,ISIP_8,36,1,48,55,2252836768
75,20,3,ISIP_8,37,5,42,127,2252847352
75,20,3,ISIP_8,38,1,48,57,2253642336
75,20,3,ISIP_8,39,5,42,127,2253648204
75,20,3,ISIP_8,40,5,42,127,2254447896
75,20,3,ISIP_8,41,1,48,45,2254467916
75,20,3,ISIP_8,42,1,48,56,2255226196
75,20,3,ISIP_8,43,5,42,127,2255247696
75,20,3,ISIP_8,44,1,48,65,2256007080
75,20,3,ISIP_8,45,5,42,127,2256047432
75,20,3,ISIP_8,46,1,48,64,2256822820
75,20,3,ISIP_8,47,5,42,127,2256848136
75,20,3,ISIP_8,48,5,42,127,2257648100
75,20,3,ISIP_8,49,1,48,68,2257655556
75,20,3,ISIP_8,50,5,42,127,2258447684
75,20,3,ISIP_8,51,1,48,66,2258448652
75,20,3,ISIP_8,52,1,48,59,2259230324
75,20,3,ISIP_8,53,5,42,127,2259247336
75,20,3,ISIP_8,54,1,48,60,2260039328
75,20,3,ISIP_8,55,5,42,127,2260048116
75,20,3,ISIP_8,56,1,48,64,2260880168
75,20,3,ISIP_8,57,1,48,64,2261710864
75,20,3,ISIP_8,58,1,48,66,2262493912
75,20,3,ISIP_8,59,1,48,58,2263295436
75,20,3,ISIP_8,60,1,48,61,2264089932
75,20,3,ISIP_8,61,1,48,67,2264866848
75,20,3,ISIP_8,62,1,48,77,2265631032
75,20,3,ISIP_8,63,1,48,62,2266422156
75,20,3,ISIP_8,64,1,48,60,2267224876
75,20,3,ISIP_8,65,1,48,61,2267993120
75,20,3,ISIP_8,66,1,48,76,2268752676
75,20,3,ISIP_8,67,1,48,55,2269541712
75,20,3,ISIP_8,68,1,48,66,2270344608
75,20,3,ISIP_8,69,1,48,66,2271099752
75,20,3,ISIP_8,70,1,48,78,2271856780
75,20,3,ISIP_8,71,1,48,55,2272607036
75,20,3,ISIP_8,72,1,48,53,2273398712
75,20,3,ISIP_8,73,1,48,53,2274149724
75,20,3,ISIP_8,74,1,48,64,2274895572
75,20,3,ISIP_8,75,1,48,65,2275653716
75,20,3,ISIP_8,76,1,48,62,2276434520
75,20,3,ISIP_8,77,1,48,64,2277224396
75,20,3,ISIP_8,78,1,48,63,2277989024
75,20,3,ISIP_8,79,1,48,70,2278797756
75,20,3,ISIP_8,80,1,48,62,2279619924
75,20,3,ISIP_8,81,1,48,57,2280441716
75,20,3,ISIP_8,82,1,48,72,2281243312
75,20,3,ISIP_8,83,1,48,61,2282053964
75,20,3,ISIP_8,84,1,48,70,2282863144
75,20,3,ISIP_8,85,1,48,73,2283632500
75,20,3,ISIP_8,86,1,48,80,2284424456
75,20,3,ISIP_8,87,1,48,74,2285205032
75,20,3,ISIP_8,88,1,48,73,2285995488
75,20,3,ISIP_8,89,1,48,71,2286788560
75,20,3,ISIP_8,90,1,48,76,2287589416
75,20,3,ISIP_8,91,1,48,62,2288383456
75,20,3,ISIP_8,92,1,48,62,2289178924
75,20,3,ISIP_8,93,1,48,62,2289981720
75,20,3,ISIP_8,94,1,48,80,2290725048
75,20,3,ISIP_8,95,1,48,66,2291510420
75,20,3,ISIP_8,96,1,48,63,2292331260
75,20,3,ISIP_8,97,1,48,65,2293098828
75,20,3,ISIP_8,98,1,48,83,2293893548
75,20,3,ISIP_8,99,1,48,62,2294699412
75,20,3,ISIP_8,100,1,48,65,2295495700
75,20,3,ISIP_8,101,1,48,65,2296272760
75,20,3,ISIP_8,102,1,48,69,2297072120
75,20,3,ISIP_8,103,1,48,62,2297861676
75,20,3,ISIP_8,104,1,48,76,2298638892
75,20,3,ISIP_8,105,1,48,65,2299424404
75,20,3,ISIP_8,106,1,48,63,2300208804
75,20,3,ISIP_8,107,1,48,56,2300987592
75,20,3,ISIP_8,108,1,48,54,2301793900
75,20,3,ISIP_8,109,1,48,54,2302585500
75,20,3,ISIP_8,110,1,48,60,2303384552
75,20,3,ISIP_8,111,1,48,68,2304166112
75,20,3,ISIP_8,112,1,48,59,2304993136
75,20,3,ISIP_8,113,1,48,58,2305804612
75,20,3,ISIP_8,114,1,48,62,2306600304
75,20,3,ISIP_8,115,1,48,53,2307374672
75,20,3,ISIP_8,116,1,48,54,2308195496
75,20,3,ISIP_8,117,1,48,60,2308975500
75,20,3,ISIP_8,118,1,48,67,2309763036
75,20,3,ISIP_8,119,1,48,49,2310527688
75,20,3,ISIP_8,120,1,48,53,2311310288
75,20,3,ISIP_8,121,1,48,50,2312094160
75,20,3,ISIP_8,122,1,48,64,2312868912
75,20,3,ISIP_8,123,1,48,57,2313659664
75,20,3,ISIP_8,124,1,48,62,2314476440
75,20,3,ISIP_8,125,1,48,62,2315229564
75,20,3,ISIP_8,126,1,48,65,2316035048
75,20,3,ISIP_8,127,1,48,57,2316780852
75,20,3,ISIP_8,128,1,48,60,2317569064
75,20,3,ISIP_8,129,1,48,57,2318343584
75,20,3,ISIP_8,130,1,48,72,2319122368
75,20,3,ISIP_8,131,1,48,57,2319896440
75,20,3,ISIP_8,132,1,48,61,2320670968
75,20,3,ISIP_8,133,1,48,64,2321433968
75,20,3,ISIP_8,134,1,48,67,2322221280
75,20,3,ISIP_8,135,1,48,62,2322955784
75,20,3,ISIP_8,136,1,48,63,2323726568
75,20,3,ISIP_8,137,1,48,63,2324481120
75,20,3,ISIP_8,138,1,48,62,2325262820
75,20,3,ISIP_8,139,1,48,54,2326020512
75,20,3,ISIP_8,140,1,48,59,2326826524
75,20,3,ISIP_8,141,1,48,65,2327591620
75,20,3,ISIP_8,142,1,48,81,2328325900
75,20,3,ISIP_8,143,1,48,57,2329082844
75,20,3,ISIP_8,144,1,48,65,2329854824
75,20,3,ISIP_8,145,1,48,68,2330600100
75,20,3,ISIP_8,146,1,48,83,2331348964
75,20,3,ISIP_8,147,1,48,73,2332096412
75,20,3,ISIP_8,148,1,48,71,2332857548
75,20,3,ISIP_8,149,1,48,73,2333575808
75,20,3,ISIP_8,150,1,48,75,2334352428
75,20,3,ISIP_8,151,1,48,66,2335072544
75,20,3,ISIP_8,152,1,48,67,2335863544
75,20,3,ISIP_8,153,1,48,69,2336625052
75,20,3,ISIP_8,154,1,48,81,2337406604
75,20,3,ISIP_8,155,1,48,65,2338164668
75,20,3,ISIP_8,156,1,48,65,2338964472
75,20,3,ISIP_8,157,1,48,65,2339704144
75,20,3,ISIP_8,158,1,48,89,2340490036
75,20,3,ISIP_8,159,1,48,57,2341246904
75,20,3,ISIP_8,160,1,48,65,2342027564
75,20,3,ISIP_8,161,1,48,59,2342756612
75,20,3,ISIP_8,162,1,48,76,2343560380
75,20,3,ISIP_8,163,1,48,60,2344345672
75,20,3,ISIP_8,164,1,48,61,2345145320
75,20,3,ISIP_8,165,1,48,67,2345903168
75,20,3,ISIP_8,166,1,48,92,2346711868
75,20,3,ISIP_8,167,1,48,64,2347465376
75,20,3,ISIP_8,168,1,48,65,2348244312
75,20,3,ISIP_8,169,1,48,59,2349001332
75,20,3,ISIP_8,170,1,48,91,2349745188
75,20,3,ISIP_8,171,1,48,68,2350507220
75,20,3,ISIP_8,172,1,48,69,2351284880
75,20,3,ISIP_8,173,1,48,59,2352060376
75,20,3,ISIP_8,174,1,48,92,2352828532
75,20,3,ISIP_8,175,1,48,59,2353601856
75,20,3,ISIP_8,176,1,48,68,2354382584
75,20,3,ISIP_8,177,1,48,66,2355152396
75,20,3,ISIP_8,178,1,48,93,2355894460
75,20,3,ISIP_8,179,1,48,61,2356645944
75,20,3,ISIP_8,0,9999,9999,9999,2236845104
75,20,3,ISIP_8,1,9999,9999,9999,2237645908
75,20,3,ISIP_8,2,9999,9999,9999,2238445664
75,20,3,ISIP_8,3,9999,9999,9999,2239245416
75,20,3,ISIP_8,4,9999,9999,9999,2240045168
75,20,3,ISIP_8,5,9999,9999,9999,2240845872
75,20,3,ISIP_8,6,9999,9999,9999,2241645636
75,20,3,ISIP_8,7,9999,9999,9999,2242445364
75,20,3,ISIP_8,8,9999,9999,9999,2243245172
75,20,3,ISIP_8,9,9999,9999,9999,2244045876
75,20,3,ISIP_8,10,9999,9999,9999,2244845616
75,20,3,ISIP_8,11,9999,9999,9999,2245645416
75,20,3,ISIP_8,12,9999,9999,9999,2246445156
75,20,3,ISIP_8,13,9999,9999,9999,2247245932
75,20,3,ISIP_8,14,9999,9999,9999,2248045620
75,20,3,ISIP_8,15,9999,9999,9999,2248845428
75,20,3,ISIP_8,16,9999,9999,9999,2249645164
75,20,3,ISIP_8,17,9999,9999,9999,2250445936
75,20,3,ISIP_8,18,9999,9999,9999,2251245668
75,20,3,ISIP_8,19,9999,9999,9999,2252045404
75,20,3,ISIP_8,20,9999,9999,9999,2252845136
75,20,3,ISIP_8,21,9999,9999,9999,2253645916
75,20,3,ISIP_8,22,9999,9999,9999,2254445680
75,20,3,ISIP_8,23,9999,9999,9999,2255245408
75,20,3,ISIP_8,24,9999,9999,9999,2256045144
75,20,3,ISIP_8,25,9999,9999,9999,2256845924
75,20,3,ISIP_8,26,9999,9999,9999,2257645664
75,20,3,ISIP_8,27,9999,9999,9999,2258445396
75,20,3,ISIP_8,28,9999,9999,9999,2259245124
75,20,3,ISIP_8,29,9999,9999,9999,2260045904
75,20,3,ISIP_8,30,9999,9999,9999,2260845668
75,20,3,ISIP_8,31,9999,9999,9999,2261645396
75,20,3,ISIP_8,32,9999,9999,9999,2262445128
75,20,3,ISIP_8,33,9999,9999,9999,2263245900
75,20,3,ISIP_8,34,9999,9999,9999,2264045632
75,20,3,ISIP_8,35,9999,9999,9999,2264845360
75,20,3,ISIP_8,36,9999,9999,9999,2265645156
75,20,3,ISIP_8,37,9999,9999,9999,2266445932
75,20,3,ISIP_8,38,9999,9999,9999,2267245684
75,20,3,ISIP_8,39,9999,9999,9999,2268045412
75,20,3,ISIP_8,40,9999,9999,9999,2268845128
75,20,3,ISIP_8,41,9999,9999,9999,2269645900
75,20,3,ISIP_8,42,9999,9999,9999,2270445632
75,20,3,ISIP_8,43,9999,9999,9999,2271245360
75,20,3,ISIP_8,44,9999,9999,9999,2272045164
75,20,3,ISIP_8,45,9999,9999,9999,2272845940
75,20,3,ISIP_8,46,9999,9999,9999,2273645620
75,20,3,ISIP_8,47,9999,9999,9999,2274445400
75,20,3,ISIP_8,48,9999,9999,9999,2275245128
75,20,3,ISIP_8,49,9999,9999,9999,2276045904
75,20,3,ISIP_8,50,9999,9999,9999,2276845632
75,20,3,ISIP_8,51,9999,9999,9999,2277645360
75,20,3,ISIP_8,52,9999,9999,9999,2278445164
75,20,3,ISIP_8,53,9999,9999,9999,2279245940
75,20,3,ISIP_8,54,9999,9999,9999,2280045620
75,20,3,ISIP_8,55,9999,9999,9999,2280845424
75,20,3,ISIP_8,56,9999,9999,9999,2281645152
75,20,3,ISIP_8,57,9999,9999,9999,2282445928
75,20,3,ISIP_8,58,9999,9999,9999,2283245656
75,20,3,ISIP_8,59,9999,9999,9999,2284045388
75,20,3,ISIP_8,60,9999,9999,9999,2284845116
75,20,3,ISIP_8,61,9999,9999,9999,2285645892
75,20,3,ISIP_8,62,9999,9999,9999,2286445644
75,20,3,ISIP_8,63,9999,9999,9999,2287245376
75,20,3,ISIP_8,64,9999,9999,9999,2288045104
75,20,3,ISIP_8,65,9999,9999,9999,2288845880
75,20,3,ISIP_8,66,9999,9999,9999,2289645684
75,20,3,ISIP_8,67,9999,9999,9999,2290445412
75,20,3,ISIP_8,68,9999,9999,9999,2291245140
75,20,3,ISIP_8,69,9999,9999,9999,2292045916
75,20,3,ISIP_8,70,9999,9999,9999,2292845672
75,20,3,ISIP_8,71,9999,9999,9999,2293645400
75,20,3,ISIP_8,72,9999,9999,9999,2294445128
75,20,3,ISIP_8,73,9999,9999,9999,2295245904
75,20,3,ISIP_8,74,9999,9999,9999,2296045636
75,20,3,ISIP_8,75,9999,9999,9999,2296845368
75,20,3,ISIP_8,76,9999,9999,9999,2297645168
75,20,3,ISIP_8,77,9999,9999,9999,2298445944
75,20,3,ISIP_8,78,9999,9999,9999,2299245624
75,20,3,ISIP_8,79,9999,9999,9999,2300045428
75,20,3,ISIP_8,80,9999,9999,9999,2300845156
75,20,3,ISIP_8,81,9999,9999,9999,2301645932
75,20,3,ISIP_8,82,9999,9999,9999,2302445660
75,20,3,ISIP_8,83,9999,9999,9999,2303245388
75,20,3,ISIP_8,84,9999,9999,9999,2304045120
75,20,3,ISIP_8,85,9999,9999,9999,2304845896
75,20,3,ISIP_8,86,9999,9999,9999,2305645648
75,20,3,ISIP_8,87,9999,9999,9999,2306445376
75,20,3,ISIP_8,88,9999,9999,9999,2307245104
75,20,3,ISIP_8,89,9999,9999,9999,2308045884
75,20,3,ISIP_8,90,9999,9999,9999,2308845688
75,20,3,ISIP_8,91,9999,9999,9999,2309645416
75,20,3,ISIP_8,92,9999,9999,9999,2310445144
75,20,3,ISIP_8,93,9999,9999,9999,2311245920
75,20,3,ISIP_8,94,9999,9999,9999,2312045676
75,20,3,ISIP_8,95,9999,9999,9999,2312845404
75,20,3,ISIP_8,96,9999,9999,9999,2313645132
75,20,3,ISIP_8,97,9999,9999,9999,2314445908
75,20,3,ISIP_8,98,9999,9999,9999,2315245632
75,20,3,ISIP_8,99,9999,9999,9999,2316045360
75,20,3,ISIP_8,100,9999,9999,9999,2316845168
75,20,3,ISIP_8,101,9999,9999,9999,2317645944
75,20,3,ISIP_8,102,9999,9999,9999,2318445684
75,20,3,ISIP_8,103,9999,9999,9999,2319245412
75,20,3,ISIP_8,104,9999,9999,9999,2320045140
75,20,3,ISIP_8,105,9999,9999,9999,2320845916
75,20,3,ISIP_8,106,9999,9999,9999,2321645644
75,20,3,ISIP_8,107,9999,9999,9999,2322445372
75,20,3,ISIP_8,108,9999,9999,9999,2323245176
75,20,3,ISIP_8,109,9999,9999,9999,2324045876
75,20,3,ISIP_8,110,9999,9999,9999,2324845632
75,20,3,ISIP_8,111,9999,9999,9999,2325645432
75,20,3,ISIP_8,112,9999,9999,9999,2326445164
75,20,3,ISIP_8,113,9999,9999,9999,2327245936
75,20,3,ISIP_8,114,9999,9999,9999,2328045664
75,20,3,ISIP_8,115,9999,9999,9999,2328845396
75,20,3,ISIP_8,116,9999,9999,9999,2329645124
75,20,3,ISIP_8,117,9999,9999,9999,2330445900
75,20,3,ISIP_8,118,9999,9999,9999,2331245652
75,20,3,ISIP_8,119,9999,9999,9999,2332045384
75,20,3,ISIP_8,120,9999,9999,9999,2332845112
75,20,3,ISIP_8,121,9999,9999,9999,2333645880
75,20,3,ISIP_8,122,9999,9999,9999,2334445684
75,20,3,ISIP_8,123,9999,9999,9999,2335245396
75,20,3,ISIP_8,124,9999,9999,9999,2336045128
75,20,3,ISIP_8,125,9999,9999,9999,2336845904
75,20,3,ISIP_8,126,9999,9999,9999,2337645660
75,20,3,ISIP_8,127,9999,9999,9999,2338445388
75,20,3,ISIP_8,128,9999,9999,9999,2339245116
75,20,3,ISIP_8,129,9999,9999,9999,2340045896
75,20,3,ISIP_8,130,9999,9999,9999,2340845624
75,20,3,ISIP_8,131,9999,9999,9999,2341645428
75,20,3,ISIP_8,132,9999,9999,9999,2342445160
75,20,3,ISIP_8,133,9999,9999,9999,2343245932
75,20,3,ISIP_8,134,9999,9999,9999,2344045688
75,20,3,ISIP_8,135,9999,9999,9999,2344845416
75,20,3,ISIP_8,136,9999,9999,9999,2345645144
75,20,3,ISIP_8,137,9999,9999,9999,2346445924
75,20,3,ISIP_8,138,9999,9999,9999,2347245652
75,20,3,ISIP_8,139,9999,9999,9999,2348045380
75,20,3,ISIP_8,140,9999,9999,9999,2348845112
75,20,3,ISIP_8,141,9999,9999,9999,2349645888
75,20,3,ISIP_8,142,9999,9999,9999,2350445640
75,20,3,ISIP_8,143,9999,9999,9999,2351245372
75,20,3,ISIP_8,144,9999,9999,9999,2352045176
75,20,3,ISIP_8,145,9999,9999,9999,2352845872
75,20,3,ISIP_8,146,9999,9999,9999,2353645676
75,20,3,ISIP_8,147,9999,9999,9999,2354445404
75,20,3,ISIP_8,148,9999,9999,9999,2355245120
75,20,3,ISIP_8,149,9999,9999,9999,2356045896
75,21,5,ISIP_5,0,5,42,127,2381112824
75,21,5,ISIP_5,1,5,42,127,2381613660
75,21,5,ISIP_5,2,5,42,127,2382113080
75,21,5,ISIP_5,3,5,42,127,2382612872
75,21,5,ISIP_5,4,1,48,116,2383101776
75,21,5,ISIP_5,5,5,42,127,2383112508
75,21,5,ISIP_5,6,1,48,92,2383592572
75,21,5,ISIP_5,7,5,42,127,2383613548
75,21,5,ISIP_5,8,1,48,100,2384086212
75,21,5,ISIP_5,9,5,42,127,2384112944
75,21,5,ISIP_5,10,1,48,100,2384593984
75,21,5,ISIP_5,11,5,42,127,2384612564
75,21,5,ISIP_5,12,1,48,97,2385100260
75,21,5,ISIP_5,13,5,42,127,2385112412
75,21,5,ISIP_5,14,1,48,77,2385606836
75,21,5,ISIP_5,15,5,42,127,2385613076
75,21,5,ISIP_5,16,5,42,127,2386112780
75,21,5,ISIP_5,17,1,48,101,2386128612
75,21,5,ISIP_5,18,5,42,127,2386612548
75,21,5,ISIP_5,19,1,48,101,2386617988
75,21,5,ISIP_5,20,5,42,127,2387113512
75,21,5,ISIP_5,21,1,48,93,2387115156
75,21,5,ISIP_5,22,1,48,91,2387610400
75,21,5,ISIP_5,23,5,42,127,2387613128
75,21,5,ISIP_5,24,1,48,91,2388110320
75,21,5,ISIP_5,25,5,42,127,2388112748
75,21,5,ISIP_5,26,5,42,127,2388612448
75,21,5,ISIP_5,27,1,48,86,2388628660
75,21,5,ISIP_5,28,5,42,127,2389113488
75,21,5,ISIP_5,29,1,48,84,2389116384
75,21,5,ISIP_5,30,5,42,127,2389612960
75,21,5,ISIP_5,31,1,48,87,2389616080
75,21,5,ISIP_5,32,5,42,127,2390112656
75,21,5,ISIP_5,33,1,48,102,2390119064
75,21,5,ISIP_5,34,1,48,105,2390603836
75,21,5,ISIP_5,35,5,42,127,2390613516
75,21,5,ISIP_5,36,5,42,127,2391112920
75,21,5,ISIP_5,37,1,48,100,2391115512
75,21,5,ISIP_5,38,1,48,87,2391598880
75,21,5,ISIP_5,39,5,42,127,2391612756
75,21,5,ISIP_5,40,1,48,99,2392106732
75,21,5,ISIP_5,41,5,42,127,2392112452
75,21,5,ISIP_5,42,1,48,97,2392611832
75,21,5,ISIP_5,43,5,42,127,2392613564
75,21,5,ISIP_5,44,1,48,95,2393100664
75,21,5,ISIP_5,45,5,42,127,2393112888
75,21,5,ISIP_5,46,1,48,99,2393610080
75,21,5,ISIP_5,47,5,42,127,2393612656
75,21,5,ISIP_5,48,1,48,101,2394105212
75,21,5,ISIP_5,49,5,42,127,2394113324
75,21,5,ISIP_5,50,1,48,106,2394608272
75,21,5,ISIP_5,51,5,42,127,2394613092
75,21,5,ISIP_5,52,5,42,127,2395112868
75,21,5,ISIP_5,53,1,48,101,2395114808
75,21,5,ISIP_5,54,1,48,95,2395608860
75,21,5,ISIP_5,55,5,42,127,2395612632
75,21,5,ISIP_5,56,1,48,100,2396098380
75,21,5,ISIP_5,57,5,42,127,2396113300
75,21,5,ISIP_5,58,1,48,98,2396600696
75,21,5,ISIP_5,59,5,42,127,2396612848
75,21,5,ISIP_5,60,1,48,104,2397111256
75,21,5,ISIP_5,61,5,42,127,2397113060
75,21,5,ISIP_5,62,1,48,102,2397605320
75,21,5,ISIP_5,63,5,42,127,2397613356
75,21,5,ISIP_5,64,5,42,127,2398113136
75,21,5,ISIP_5,65,1,48,100,2398118200
75,21,5,ISIP_5,66,1,48,88,2398609048
75,21,5,ISIP_5,67,5,42,127,2398612828
75,21,5,ISIP_5,68,1,48,78,2399101564
75,21,5,ISIP_5,69,5,42,127,2399112596
75,21,5,ISIP_5,70,1,48,74,2399414616
75,21,5,ISIP_5,71,5,42,127,2399613172
75,21,5,ISIP_5,72,5,42,127,2400113260
75,21,5,ISIP_5,73,1,48,59,2400134708
75,21,5,ISIP_5,74,5,42,127,2400612584
75,21,5,ISIP_5,75,1,48,67,2400615400
75,21,5,ISIP_5,76,1,48,70,2401105628
75,21,5,ISIP_5,77,1,48,60,2401614984
75,21,5,ISIP_5,78,1,48,62,2402133520
75,21,5,ISIP_5,79,1,48,52,2402642336
75,21,5,ISIP_5,80,1,48,57,2403155412
75,21,5,ISIP_5,81,1,48,64,2403661992
75,21,5,ISIP_5,82,1,48,56,2404179776
75,21,5,ISIP_5,83,1,48,48,2404679844
75,21,5,ISIP_5,84,1,48,57,2405196584
75,21,5,ISIP_5,85,1,48,63,2405716028
75,21,5,ISIP_5,86,1,48,53,2406225964
75,21,5,ISIP_5,87,1,48,49,2406750036
75,21,5,ISIP_5,88,1,48,50,2407257656
75,21,5,ISIP_5,89,1,48,61,2407771336
75,21,5,ISIP_5,90,1,48,53,2408315772
75,21,5,ISIP_5,91,1,48,53,2408828480
75,21,5,ISIP_5,92,1,48,51,2409350012
75,21,5,ISIP_5,93,1,48,59,2409863092
75,21,5,ISIP_5,94,1,48,66,2410387692
75,21,5,ISIP_5,95,1,48,72,2410902792
75,21,5,ISIP_5,96,1,48,67,2411415048
75,21,5,ISIP_5,97,1,48,102,2411939720
75,21,5,ISIP_5,98,1,48,96,2412458264
75,21,5,ISIP_5,99,1,48,103,2412976876
75,21,5,ISIP_5,100,1,48,100,2413484124
75,21,5,ISIP_5,101,1,48,101,2413982540
75,21,5,ISIP_5,102,1,48,106,2414504152
75,21,5,ISIP_5,103,1,48,90,2415017004
75,21,5,ISIP_5,104,1,48,103,2415532476
75,21,5,ISIP_5,105,1,48,105,2416054384
75,21,5,ISIP_5,106,1,48,80,2416565964
75,21,5,ISIP_5,107,1,48,85,2417068128
75,21,5,ISIP_5,108,1,48,85,2417585540
75,21,5,ISIP_5,109,1,48,86,2418093832
75,21,5,ISIP_5,110,1,48,76,2418595020
75,21,5,ISIP_5,111,1,48,90,2419100020
75,21,5,ISIP_5,112,1,48,93,2419608688
75,21,5,ISIP_5,113,1,48,98,2420109948
75,21,5,ISIP_5,114,1,48,93,2420625808
75,21,5,ISIP_5,115,1,48,92,2421148692
75,21,5,ISIP_5,116,1,48,103,2421643960
75,21,5,ISIP_5,117,1,48,106,2422159136
75,21,5,ISIP_5,118,1,48,100,2422683136
75,21,5,ISIP_5,119,1,48,89,2423185820
75,21,5,ISIP_5,120,1,48,95,2423700096
75,21,5,ISIP_5,121,1,48,93,2424208764
75,21,5,ISIP_5,122,1,48,92,2424732836
75,21,5,ISIP_5,123,1,48,87,2425220560
75,21,5,ISIP_5,124,1,48,86,2425744332
75,21,5,ISIP_5,125,1,48,93,2426247840
75,21,5,ISIP_5,126,1,48,100,2426762416
75,21,5,ISIP_5,127,1,48,89,2427268088
75,21,5,ISIP_5,128,1,48,81,2427777356
75,21,5,ISIP_5,129,1,48,85,2428268596
75,21,5,ISIP_5,130,1,48,97,2428763248
75,21,5,ISIP_5,131,1,48,92,2429286600
75,21,5,ISIP_5,132,1,48,107,2429793168
75,21,5,ISIP_5,133,1,48,93,2430318588
75,21,5,ISIP_5,134,1,48,95,2430835784
75,21,5,ISIP_5,135,1,48,93,2431349916
75,21,5,ISIP_5,136,1,48,97,2431857684
75,21,5,ISIP_5,137,1,48,92,2432357144
75,21,5,ISIP_5,138,1,48,85,2432856292
75,21,5,ISIP_5,139,1,48,92,2433364948
75,21,5,ISIP_5,140,1,48,97,2433877136
75,21,5,ISIP_5,141,1,48,88,2434370992
75,21,5,ISIP_5,142,1,48,98,2434885192
75,21,5,ISIP_5,143,1,48,92,2435395804
75,21,5,ISIP_5,144,1,48,85,2435891152
75,21,5,ISIP_5,145,1,48,95,2436404828
75,21,5,ISIP_5,146,1,48,93,2436907440
75,21,5,ISIP_5,147,1,48,83,2437416180
75,21,5,ISIP_5,148,1,48,97,2437918636
75,21,5,ISIP_5,149,1,48,91,2438421320
75,21,5,ISIP_5,150,1,48,81,2438933580
75,21,5,ISIP_5,151,1,48,82,2439434616
75,21,5,ISIP_5,152,1,48,81,2439939688
75,21,5,ISIP_5,153,1,48,88,2440434220
75,21,5,ISIP_5,154,1,48,82,2440942288
75,21,5,ISIP_5,155,1,48,104,2441467856
75,21,5,ISIP_5,156,1,48,103,2441983008
75,21,5,ISIP_5,157,1,48,94,2442485768
75,21,5,ISIP_5,158,1,48,106,2442985756
75,21,5,ISIP_5,159,1,48,100,2443492924
75,21,5,ISIP_5,160,1,48,119,2444007272
75,21,5,ISIP_5,161,1,48,105,2444511152
75,21,5,ISIP_5,162,1,48,94,2445010252
75,21,5,ISIP_5,163,1,48,110,2445519140
75,21,5,ISIP_5,164,1,48,114,2446011272
75,21,5,ISIP_5,165,1,48,100,2446519868
75,21,5,ISIP_5,166,1,48,88,2447036012
75,21,5,ISIP_5,167,1,48,98,2447546552
75,21,5,ISIP_5,168,1,48,107,2448051028
75,21,5,ISIP_5,169,1,48,105,2448552440
75,21,5,ISIP_5,170,1,48,108,2449061932
75,21,5,ISIP_5,171,1,48,91,2449579200
75,21,5,ISIP_5,172,1,48,103,2450083004
75,21,5,ISIP_5,173,1,48,111,2450597576
75,21,5,ISIP_5,174,1,48,98,2451104520
75,21,5,ISIP_5,175,1,48,97,2451610420
75,21,5,ISIP_5,176,1,48,99,2452106748
75,21,5,ISIP_5,177,1,48,105,2452611392
75,21,5,ISIP_5,178,1,48,86,2453112276
75,21,5,ISIP_5,179,1,48,106,2453642036
75,21,5,ISIP_5,180,1,48,99,2454147932
75,21,5,ISIP_5,181,1,48,106,2454638348
75,21,5,ISIP_5,182,1,48,112,2455155168
75,21,5,ISIP_5,183,1,48,87,2455669296
75,21,5,ISIP_5,184,1,48,73,2456161956
75,21,5,ISIP_5,185,1,48,97,2456657212
75,21,5,ISIP_5,186,1,48,111,2457166844
75,21,5,ISIP_5,187,1,48,92,2457663396
75,21,5,ISIP_5,188,1,48,100,2458185076
75,21,5,ISIP_5,189,1,48,100,2458673624
75,21,5,ISIP_5,190,1,48,103,2459175256
75,21,5,ISIP_5,191,1,48,104,2459675996
75,21,5,ISIP_5,192,1,48,111,2460188476
75,21,5,ISIP_5,193,1,48,117,2460695196
75,21,5,ISIP_5,0,9999,9999,9999,2381110388
75,21,5,ISIP_5,1,9999,9999,9999,2381611076
75,21,5,ISIP_5,2,9999,9999,9999,2382110792
75,21,5,ISIP_5,3,9999,9999,9999,2382610512
75,21,5,ISIP_5,4,9999,9999,9999,2383110220
75,21,5,ISIP_5,5,9999,9999,9999,2383610964
75,21,5,ISIP_5,6,9999,9999,9999,2384110660
75,21,5,ISIP_5,7,9999,9999,9999,2384610352
75,21,5,ISIP_5,8,9999,9999,9999,2385110124
75,21,5,ISIP_5,9,9999,9999,9999,2385610864
75,21,5,ISIP_5,10,9999,9999,9999,2386110568
75,21,5,ISIP_5,11,9999,9999,9999,2386610264
75,21,5,ISIP_5,12,9999,9999,9999,2387111004
75,21,5,ISIP_5,13,9999,9999,9999,2387610692
75,21,5,ISIP_5,14,9999,9999,9999,2388110388
75,21,5,ISIP_5,15,9999,9999,9999,2388610160
75,21,5,ISIP_5,16,9999,9999,9999,2389110904
75,21,5,ISIP_5,17,9999,9999,9999,2389610600
75,21,5,ISIP_5,18,9999,9999,9999,2390110268
75,21,5,ISIP_5,19,9999,9999,9999,2390611004
75,21,5,ISIP_5,20,9999,9999,9999,2391110708
75,21,5,ISIP_5,21,9999,9999,9999,2391610468
75,21,5,ISIP_5,22,9999,9999,9999,2392110164
75,21,5,ISIP_5,23,9999,9999,9999,2392610912
75,21,5,ISIP_5,24,9999,9999,9999,2393110600
75,21,5,ISIP_5,25,9999,9999,9999,2393610296
75,21,5,ISIP_5,26,9999,9999,9999,2394111036
75,21,5,ISIP_5,27,9999,9999,9999,2394610808
75,21,5,ISIP_5,28,9999,9999,9999,2395110508
75,21,5,ISIP_5,29,9999,9999,9999,2395610200
75,21,5,ISIP_5,30,9999,9999,9999,2396110940
75,21,5,ISIP_5,31,9999,9999,9999,2396610636
75,21,5,ISIP_5,32,9999,9999,9999,2397110336
75,21,5,ISIP_5,33,9999,9999,9999,2397611072
75,21,5,ISIP_5,34,9999,9999,9999,2398110772
75,21,5,ISIP_5,35,9999,9999,9999,2398610540
75,21,5,ISIP_5,36,9999,9999,9999,2399110236
75,21,5,ISIP_5,37,9999,9999,9999,2399610960
75,21,5,ISIP_5,38,9999,9999,9999,2400110676
75,21,5,ISIP_5,39,9999,9999,9999,2400610372
75,21,5,ISIP_5,40,9999,9999,9999,2401110108
75,21,5,ISIP_5,41,9999,9999,9999,2401610852
75,21,5,ISIP_5,42,9999,9999,9999,2402110544
75,21,5,ISIP_5,43,9999,9999,9999,2402610232
75,21,5,ISIP_5,44,9999,9999,9999,2403110968
75,21,5,ISIP_5,45,9999,9999,9999,2403610736
75,21,5,ISIP_5,46,9999,9999,9999,2404110428
75,21,5,ISIP_5,47,9999,9999,9999,2404610116
75,21,5,ISIP_5,48,9999,9999,9999,2405110852
75,21,5,ISIP_5,49,9999,9999,9999,2405610616
75,21,5,ISIP_5,50,9999,9999,9999,2406110308
75,21,5,ISIP_5,51,9999,9999,9999,2406611048
75,21,5,ISIP_5,52,9999,9999,9999,2407110736
75,21,5,ISIP_5,53,9999,9999,9999,2407610428
75,21,5,ISIP_5,54,9999,9999,9999,2408110192
75,21,5,ISIP_5,55,9999,9999,9999,2408610928
75,21,5,ISIP_5,56,9999,9999,9999,2409110620
75,21,5,ISIP_5,57,9999,9999,9999,2409610312
75,21,5,ISIP_5,58,9999,9999,9999,2410111048
75,21,5,ISIP_5,59,9999,9999,9999,2410610740
75,21,5,ISIP_5,60,9999,9999,9999,2411110508
75,21,5,ISIP_5,61,9999,9999,9999,2411610176
75,21,5,ISIP_5,62,9999,9999,9999,2412110912
75,21,5,ISIP_5,63,9999,9999,9999,2412610676
75,21,5,ISIP_5,64,9999,9999,9999,2413110368
75,21,5,ISIP_5,65,9999,9999,9999,2413611104
75,21,5,ISIP_5,66,9999,9999,9999,2414110796
75,21,5,ISIP_5,67,9999,9999,9999,2414610488
75,21,5,ISIP_5,68,9999,9999,9999,2415110192
75,21,5,ISIP_5,69,9999,9999,9999,2415610932
75,21,5,ISIP_5,70,9999,9999,9999,2416110696
75,21,5,ISIP_5,71,9999,9999,9999,2416610388
75,21,5,ISIP_5,72,9999,9999,9999,2417110076
75,21,5,ISIP_5,73,9999,9999,9999,2417610812
75,21,5,ISIP_5,74,9999,9999,9999,2418110580
75,21,5,ISIP_5,75,9999,9999,9999,2418610272
75,21,5,ISIP_5,76,9999,9999,9999,2419111008
75,21,5,ISIP_5,77,9999,9999,9999,2419610696
75,21,5,ISIP_5,78,9999,9999,9999,2420110388
75,21,5,ISIP_5,79,9999,9999,9999,2420610160
75,21,5,ISIP_5,80,9999,9999,9999,2421110900
75,21,5,ISIP_5,81,9999,9999,9999,2421610588
75,21,5,ISIP_5,82,9999,9999,9999,2422110280
75,21,5,ISIP_5,83,9999,9999,9999,2422610992
75,21,5,ISIP_5,84,9999,9999,9999,2423110756
75,21,5,ISIP_5,85,9999,9999,9999,2423610448
75,21,5,ISIP_5,86,9999,9999,9999,2424110140
75,21,5,ISIP_5,87,9999,9999,9999,2424610876
75,21,5,ISIP_5,88,9999,9999,9999,2425110640
75,21,5,ISIP_5,89,9999,9999,9999,2425610332
75,21,5,ISIP_5,90,9999,9999,9999,2426111068
75,21,5,ISIP_5,91,9999,9999,9999,2426610760
75,21,5,ISIP_5,92,9999,9999,9999,2427110452
75,21,5,ISIP_5,93,9999,9999,9999,2427610216
75,21,5,ISIP_5,94,9999,9999,9999,2428110952
75,21,5,ISIP_5,95,9999,9999,9999,2428610644
75,21,5,ISIP_5,96,9999,9999,9999,2429110336
75,21,5,ISIP_5,97,9999,9999,9999,2429611072
75,21,5,ISIP_5,98,9999,9999,9999,2430110836
75,21,5,ISIP_5,99,9999,9999,9999,2430610528
75,21,5,ISIP_5,100,9999,9999,9999,2431110216
75,21,5,ISIP_5,101,9999,9999,9999,2431610956
75,21,5,ISIP_5,102,9999,9999,9999,2432110648
75,21,5,ISIP_5,103,9999,9999,9999,2432610412
75,21,5,ISIP_5,104,9999,9999,9999,2433110076
75,21,5,ISIP_5,105,9999,9999,9999,2433610812
75,21,5,ISIP_5,106,9999,9999,9999,2434110580
75,21,5,ISIP_5,107,9999,9999,9999,2434610272
75,21,5,ISIP_5,108,9999,9999,9999,2435111008
75,21,5,ISIP_5,109,9999,9999,9999,2435610696
75,21,5,ISIP_5,110,9999,9999,9999,2436110388
75,21,5,ISIP_5,111,9999,9999,9999,2436610152
75,21,5,ISIP_5,112,9999,9999,9999,2437110892
75,21,5,ISIP_5,113,9999,9999,9999,2437610580
75,21,5,ISIP_5,114,9999,9999,9999,2438110272
75,21,5,ISIP_5,115,9999,9999,9999,2438611012
75,21,5,ISIP_5,116,9999,9999,9999,2439110772
75,21,5,ISIP_5,117,9999,9999,9999,2439610464
75,21,5,ISIP_5,118,9999,9999,9999,2440110156
75,21,5,ISIP_5,119,9999,9999,9999,2440610892
75,21,5,ISIP_5,120,9999,9999,9999,2441110584
75,21,5,ISIP_5,121,9999,9999,9999,2441610324
75,21,5,ISIP_5,122,9999,9999,9999,2442111060
75,21,5,ISIP_5,123,9999,9999,9999,2442610752
75,21,5,ISIP_5,124,9999,9999,9999,2443110516
75,21,5,ISIP_5,125,9999,9999,9999,2443610184
75,21,5,ISIP_5,126,9999,9999,9999,2444110924
75,21,5,ISIP_5,127,9999,9999,9999,2444610612
75,21,5,ISIP_5,128,9999,9999,9999,2445110380
75,21,5,ISIP_5,129,9999,9999,9999,2445611056
75,21,5,ISIP_5,130,9999,9999,9999,2446110808
75,21,5,ISIP_5,131,9999,9999,9999,2446610512
75,21,5,ISIP_5,132,9999,9999,9999,2447110204
75,21,5,ISIP_5,133,9999,9999,9999,2447610944
75,21,5,ISIP_5,134,9999,9999,9999,2448110708
75,21,5,ISIP_5,135,9999,9999,9999,2448610400
75,21,5,ISIP_5,136,9999,9999,9999,2449110092
75,21,5,ISIP_5,137,9999,9999,9999,2449610828
75,21,5,ISIP_5,138,9999,9999,9999,2450110520
75,21,5,ISIP_5,139,9999,9999,9999,2450610284
75,21,5,ISIP_5,140,9999,9999,9999,2451111020
75,21,5,ISIP_5,141,9999,9999,9999,2451610712
75,21,5,ISIP_5,142,9999,9999,9999,2452110404
75,21,5,ISIP_5,143,9999,9999,9999,2452610100
75,21,5,ISIP_5,144,9999,9999,9999,2453110840
75,21,5,ISIP_5,145,9999,9999,9999,2453610604
75,21,5,ISIP_5,146,9999,9999,9999,2454110296
75,21,5,ISIP_5,147,9999,9999,9999,2454611008
75,21,5,ISIP_5,148,9999,9999,9999,2455110772
75,21,5,ISIP_5,149,9999,9999,9999,2455610464
75,21,5,ISIP_5,150,9999,9999,9999,2456110156
75,21,5,ISIP_5,151,9999,9999,9999,2456610896
75,21,5,ISIP_5,152,9999,9999,9999,2457110588
75,21,5,ISIP_5,153,9999,9999,9999,2457610348
75,21,5,ISIP_5,154,9999,9999,9999,2458111088
75,21,5,ISIP_5,155,9999,9999,9999,2458610776
75,21,5,ISIP_5,156,9999,9999,9999,2459110468
75,21,5,ISIP_5,157,9999,9999,9999,2459610232
75,21,5,ISIP_5,158,9999,9999,9999,2460110896
75,21,5,ISIP_5,159,9999,9999,9999,2460610660
75,22,11,Pattern_Practice,0,5,42,127,2568976748
75,22,11,Pattern_Practice,1,5,42,127,2569476460
75,22,11,Pattern_Practice,2,5,42,127,2569977152
75,22,11,Pattern_Practice,3,5,42,127,2570477016
75,22,11,Pattern_Practice,4,1,48,64,2570958072
75,22,11,Pattern_Practice,5,5,42,127,2570976728
75,22,11,Pattern_Practice,6,1,48,99,2570985816
75,22,11,Pattern_Practice,7,1,48,48,2571127412
75,22,11,Pattern_Practice,8,1,48,51,2571235400
75,22,11,Pattern_Practice,9,1,38,127,2571473780
75,22,11,Pattern_Practice,10,5,42,127,2571477480
75,22,11,Pattern_Practice,11,1,48,43,2571742628
75,22,11,Pattern_Practice,12,5,42,127,2571977160
75,22,11,Pattern_Practice,13,1,48,60,2571980652
75,22,11,Pattern_Practice,14,1,48,54,2572196520
75,22,11,Pattern_Practice,15,1,38,127,2572463332
75,22,11,Pattern_Practice,16,5,42,127,2572476752
75,22,11,Pattern_Practice,17,1,48,44,2572728880
75,22,11,Pattern_Practice,18,1,48,45,2572823252
75,22,11,Pattern_Practice,19,1,48,42,2572894540
75,22,11,Pattern_Practice,20,1,48,102,2572967892
75,22,11,Pattern_Practice,21,5,42,127,2572976604
75,22,11,Pattern_Practice,22,1,48,127,2573211156
75,22,11,Pattern_Practice,23,1,48,79,2573458516
75,22,11,Pattern_Practice,24,5,42,127,2573477176
75,22,11,Pattern_Practice,25,1,38,127,2573709412
75,22,11,Pattern_Practice,26,1,48,64,2573976100
75,22,11,Pattern_Practice,27,5,42,127,2573977592
75,22,11,Pattern_Practice,28,1,48,88,2574454068
75,22,11,Pattern_Practice,29,1,38,115,2574471924
75,22,11,Pattern_Practice,30,5,42,127,2574476596
75,22,11,Pattern_Practice,31,1,48,51,2574716504
75,22,11,Pattern_Practice,32,1,48,51,2574780212
75,22,11,Pattern_Practice,33,1,38,59,2574840704
75,22,11,Pattern_Practice,34,1,38,52,2574923304
75,22,11,Pattern_Practice,35,1,48,96,2574975852
75,22,11,Pattern_Practice,36,5,42,127,2574977360
75,22,11,Pattern_Practice,37,1,48,86,2575224152
75,22,11,Pattern_Practice,38,5,42,127,2575477016
75,22,11,Pattern_Practice,39,1,38,127,2575491280
75,22,11,Pattern_Practice,40,1,48,60,2575735948
75,22,11,Pattern_Practice,41,1,48,56,2575976688
75,22,11,Pattern_Practice,42,5,42,127,2575978100
75,22,11,Pattern_Practice,43,1,48,93,2576471552
75,22,11,Pattern_Practice,44,5,42,127,2576476600
75,22,11,Pattern_Practice,45,1,38,127,2576484876
75,22,11,Pattern_Practice,46,1,48,54,2576717672
75,22,11,Pattern_Practice,47,1,48,48,2576770928
75,22,11,Pattern_Practice,48,1,48,54,2576847428
75,22,11,Pattern_Practice,49,1,48,43,2576923624
75,22,11,Pattern_Practice,50,1,48,100,2576963844
75,22,11,Pattern_Practice,51,5,42,127,2576977192
75,22,11,Pattern_Practice,52,1,48,81,2577202324
75,22,11,Pattern_Practice,53,1,38,127,2577454836
75,22,11,Pattern_Practice,54,5,42,127,2577476868
75,22,11,Pattern_Practice,55,1,48,46,2577720396
75,22,11,Pattern_Practice,56,1,48,45,2577825188
75,22,11,Pattern_Practice,57,1,48,53,2577958900
75,22,11,Pattern_Practice,58,5,42,127,2577976740
75,22,11,Pattern_Practice,59,1,48,94,2578068428
75,22,11,Pattern_Practice,60,1,48,106,2578181204
75,22,11,Pattern_Practice,61,1,38,127,2578448460
75,22,11,Pattern_Practice,62,5,42,127,2578477288
75,22,11,Pattern_Practice,63,1,48,45,2578669352
75,22,11,Pattern_Practice,64,1,48,42,2578733140
75,22,11,Pattern_Practice,65,1,48,55,2578796940
75,22,11,Pattern_Practice,66,1,48,46,2578871792
75,22,11,Pattern_Practice,67,1,48,96,2578935196
75,22,11,Pattern_Practice,68,5,42,127,2578977192
75,22,11,Pattern_Practice,69,1,48,73,2579184144
75,22,11,Pattern_Practice,70,1,38,127,2579440628
75,22,11,Pattern_Practice,71,5,42,127,2579476792
75,22,11,Pattern_Practice,72,1,48,42,2579686960
75,22,11,Pattern_Practice,73,1,48,40,2579744084
75,22,11,Pattern_Practice,74,1,48,59,2579809388
75,22,11,Pattern_Practice,75,1,48,42,2579886256
75,22,11,Pattern_Practice,76,1,48,94,2579940612
75,22,11,Pattern_Practice,77,5,42,127,2579976624
75,22,11,Pattern_Practice,78,1,48,84,2580203096
75,22,11,Pattern_Practice,79,1,38,127,2580470132
75,22,11,Pattern_Practice,80,5,42,127,2580477268
75,22,11,Pattern_Practice,81,1,48,43,2580724236
75,22,11,Pattern_Practice,82,5,42,127,2580976948
75,22,11,Pattern_Practice,83,1,48,86,2581209648
75,22,11,Pattern_Practice,84,1,38,127,2581473760
75,22,11,Pattern_Practice,85,5,42,127,2581476788
75,22,11,Pattern_Practice,86,1,48,61,2581598324
75,22,11,Pattern_Practice,87,1,38,59,2581721416
75,22,11,Pattern_Practice,88,1,38,59,2581836060
75,22,11,Pattern_Practice,89,1,38,77,2581970844
75,22,11,Pattern_Practice,90,5,42,127,2581976340
75,22,11,Pattern_Practice,91,1,38,51,2582098816
75,22,11,Pattern_Practice,92,1,38,48,2582216180
75,22,11,Pattern_Practice,93,1,38,89,2582326784
75,22,11,Pattern_Practice,94,1,38,51,2582461948
75,22,11,Pattern_Practice,95,5,42,127,2582477092
75,22,11,Pattern_Practice,96,1,38,49,2582575784
75,22,11,Pattern_Practice,97,1,38,101,2582706236
75,22,11,Pattern_Practice,98,1,38,61,2582842572
75,22,11,Pattern_Practice,99,1,48,80,2582969200
75,22,11,Pattern_Practice,100,5,42,127,2582977092
75,22,11,Pattern_Practice,101,1,48,96,2583224360
75,22,11,Pattern_Practice,102,5,42,127,2583476768
75,22,11,Pattern_Practice,103,1,38,127,2583481612
75,22,11,Pattern_Practice,104,1,48,65,2583720812
75,22,11,Pattern_Practice,105,1,48,57,2583789980
75,22,11,Pattern_Practice,106,1,38,47,2583837380
75,22,11,Pattern_Practice,107,1,38,37,2583924960
75,22,11,Pattern_Practice,108,5,42,127,2583977200
75,22,11,Pattern_Practice,109,1,48,94,2583986076
75,22,11,Pattern_Practice,110,1,48,101,2584225256
75,22,11,Pattern_Practice,111,5,42,127,2584476996
75,22,11,Pattern_Practice,112,1,38,88,2584495300
75,22,11,Pattern_Practice,113,1,48,56,2584730240
75,22,11,Pattern_Practice,114,1,48,49,2584788856
75,22,11,Pattern_Practice,115,1,48,49,2584843740
75,22,11,Pattern_Practice,116,1,48,40,2584919292
75,22,11,Pattern_Practice,117,1,48,98,2584968036
75,22,11,Pattern_Practice,118,5,42,127,2584976896
75,22,11,Pattern_Practice,119,1,38,119,2585226636
75,22,11,Pattern_Practice,120,1,48,62,2585476048
75,22,11,Pattern_Practice,121,5,42,127,2585477616
75,22,11,Pattern_Practice,122,1,38,47,2585600620
75,22,11,Pattern_Practice,123,1,38,74,2585722320
75,22,11,Pattern_Practice,124,1,38,56,2585841828
75,22,11,Pattern_Practice,125,5,42,127,2585977328
75,22,11,Pattern_Practice,126,1,38,62,2585984632
75,22,11,Pattern_Practice,127,1,38,66,2586094340
75,22,11,Pattern_Practice,128,1,38,127,2586203696
75,22,11,Pattern_Practice,129,1,38,127,2586332924
75,22,11,Pattern_Practice,130,1,48,57,2586443452
75,22,11,Pattern_Practice,131,5,42,127,2586476800
75,22,11,Pattern_Practice,132,1,48,55,2586509452
75,22,11,Pattern_Practice,133,1,48,69,2586591028
75,22,11,Pattern_Practice,134,1,48,66,2586655184
75,22,11,Pattern_Practice,135,1,48,118,2586726092
75,22,11,Pattern_Practice,136,1,48,111,2586851060
75,22,11,Pattern_Practice,137,1,48,121,2586962336
75,22,11,Pattern_Practice,138,5,42,127,2586976832
75,22,11,Pattern_Practice,139,1,48,75,2587210684
75,22,11,Pattern_Practice,140,1,38,127,2587459992
75,22,11,Pattern_Practice,141,1,48,127,2587465804
75,22,11,Pattern_Practice,142,5,42,127,2587477380
75,22,11,Pattern_Practice,143,1,48,58,2587704628
75,22,11,Pattern_Practice,144,1,48,50,2587765364
75,22,11,Pattern_Practice,145,1,48,48,2587821592
75,22,11,Pattern_Practice,146,1,48,39,2587892548
75,22,11,Pattern_Practice,147,1,48,92,2587956932
75,22,11,Pattern_Practice,148,5,42,127,2587977012
75,22,11,Pattern_Practice,149,1,48,88,2588196752
75,22,11,Pattern_Practice,150,1,38,125,2588461764
75,22,11,Pattern_Practice,151,5,42,127,2588476684
75,22,11,Pattern_Practice,152,1,48,62,2588711608
75,22,11,Pattern_Practice,153,5,42,127,2588976664
75,22,11,Pattern_Practice,154,1,48,76,2589187224
75,22,11,Pattern_Practice,155,1,38,127,2589468384
75,22,11,Pattern_Practice,156,5,42,127,2589477172
75,22,11,Pattern_Practice,157,1,48,62,2589729600
75,22,11,Pattern_Practice,158,5,42,127,2589976928
75,22,11,Pattern_Practice,159,1,48,105,2589977820
75,22,11,Pattern_Practice,160,1,48,57,2590233616
75,22,11,Pattern_Practice,161,5,42,127,2590476828
75,22,11,Pattern_Practice,162,1,48,102,2590490720
75,22,11,Pattern_Practice,163,1,38,113,2590494508
75,22,11,Pattern_Practice,164,1,48,54,2590746032
75,22,11,Pattern_Practice,165,1,48,41,2590857104
75,22,11,Pattern_Practice,166,5,42,127,2590977476
75,22,11,Pattern_Practice,167,1,48,93,2590986284
75,22,11,Pattern_Practice,168,1,48,81,2591099156
75,22,11,Pattern_Practice,169,1,48,90,2591231896
75,22,11,Pattern_Practice,170,5,42,127,2591477052
75,22,11,Pattern_Practice,171,1,38,127,2591485408
75,22,11,Pattern_Practice,172,1,48,58,2591743684
75,22,11,Pattern_Practice,173,1,48,57,2591849528
75,22,11,Pattern_Practice,174,5,42,127,2591976852
75,22,11,Pattern_Practice,175,1,48,78,2591984760
75,22,11,Pattern_Practice,176,1,48,88,2592092176
75,22,11,Pattern_Practice,177,1,48,90,2592226340
75,22,11,Pattern_Practice,178,5,42,127,2592476728
75,22,11,Pattern_Practice,179,1,38,127,2592480672
75,22,11,Pattern_Practice,180,1,48,65,2592710152
75,22,11,Pattern_Practice,181,1,48,83,2592850080
75,22,11,Pattern_Practice,182,1,48,92,2592968556
75,22,11,Pattern_Practice,183,5,42,127,2592977124
75,22,11,Pattern_Practice,184,1,48,95,2593087932
75,22,11,Pattern_Practice,185,1,48,64,2593214340
75,22,11,Pattern_Practice,186,1,48,109,2593432980
75,22,11,Pattern_Practice,187,5,42,127,2593476996
75,22,11,Pattern_Practice,188,1,38,115,2593561632
75,22,11,Pattern_Practice,189,1,38,59,2593682428
75,22,11,Pattern_Practice,190,1,38,94,2593813228
75,22,11,Pattern_Practice,191,1,38,123,2593933956
75,22,11,Pattern_Practice,192,5,42,127,2593976628
75,22,11,Pattern_Practice,193,1,38,102,2594056920
75,22,11,Pattern_Practice,194,1,48,68,2594181164
75,22,11,Pattern_Practice,195,1,48,91,2594281892
75,22,11,Pattern_Practice,196,1,48,101,2594429996
75,22,11,Pattern_Practice,197,5,42,127,2594477524
75,22,11,Pattern_Practice,198,1,48,127,2594548320
75,22,11,Pattern_Practice,199,1,48,121,2594673160
75,22,11,Pattern_Practice,200,1,48,117,2594808076
75,22,11,Pattern_Practice,201,1,48,122,2594948544
75,22,11,Pattern_Practice,202,5,42,127,2594977300
75,22,11,Pattern_Practice,203,1,48,65,2595200188
75,22,11,Pattern_Practice,204,1,48,118,2595460484
75,22,11,Pattern_Practice,205,1,38,127,2595463904
75,22,11,Pattern_Practice,206,5,42,127,2595476880
75,22,11,Pattern_Practice,207,1,48,53,2595722552
75,22,11,Pattern_Practice,208,1,48,56,2595841456
75,22,11,Pattern_Practice,209,1,48,104,2595966740
75,22,11,Pattern_Practice,210,5,42,127,2595976652
75,22,11,Pattern_Practice,211,1,48,59,2596224888
75,22,11,Pattern_Practice,212,5,42,127,2596477380
75,22,11,Pattern_Practice,213,1,48,114,2596480424
75,22,11,Pattern_Practice,214,1,38,127,2596484740
75,22,11,Pattern_Practice,215,1,48,51,2596745240
75,22,11,Pattern_Practice,216,5,42,127,2596976932
75,22,11,Pattern_Practice,217,1,48,86,2596994264
75,22,11,Pattern_Practice,218,1,38,127,2597127232
75,22,11,Pattern_Practice,219,1,48,84,2597214536
75,22,11,Pattern_Practice,220,1,48,76,2597469868
75,22,11,Pattern_Practice,221,5,42,127,2597476784
75,22,11,Pattern_Practice,222,1,38,127,2597485064
75,22,11,Pattern_Practice,223,1,48,70,2597728288
75,22,11,Pattern_Practice,224,1,48,57,2597790344
75,22,11,Pattern_Practice,225,1,38,60,2597855096
75,22,11,Pattern_Practice,226,1,38,49,2597931272
75,22,11,Pattern_Practice,227,5,42,127,2597976504
75,22,11,Pattern_Practice,228,1,48,82,2597983884
75,22,11,Pattern_Practice,229,1,38,127,2598245656
75,22,11,Pattern_Practice,230,5,42,127,2598477248
75,22,11,Pattern_Practice,231,1,48,62,2598493408
75,22,11,Pattern_Practice,232,1,38,114,2598617996
75,22,11,Pattern_Practice,233,1,48,72,2598747624
75,22,11,Pattern_Practice,234,1,48,97,2598976676
75,22,11,Pattern_Practice,235,5,42,127,2598978384
75,22,11,Pattern_Practice,236,1,48,49,2599251536
75,22,11,Pattern_Practice,237,5,42,127,2599476496
75,22,11,Pattern_Practice,238,1,38,126,2599492780
75,22,11,Pattern_Practice,239,1,48,85,2599495976
75,22,11,Pattern_Practice,240,1,48,54,2599758784
75,22,11,Pattern_Practice,241,1,48,65,2599881608
75,22,11,Pattern_Practice,242,5,42,127,2599977444
75,22,11,Pattern_Practice,243,1,48,99,2600007192
75,22,11,Pattern_Practice,244,1,48,64,2600247372
75,22,11,Pattern_Practice,245,5,42,127,2600477044
75,22,11,Pattern_Practice,246,1,48,102,2600493024
75,22,11,Pattern_Practice,247,1,38,127,2600502508
75,22,11,Pattern_Practice,248,1,48,53,2600746248
75,22,11,Pattern_Practice,249,1,48,57,2600852760
75,22,11,Pattern_Practice,250,5,42,127,2600976872
75,22,11,Pattern_Practice,251,1,48,94,2600985900
75,22,11,Pattern_Practice,252,1,48,70,2601247844
75,22,11,Pattern_Practice,253,5,42,127,2601476392
75,22,11,Pattern_Practice,254,1,38,119,2601485044
75,22,11,Pattern_Practice,255,1,48,123,2601494224
75,22,11,Pattern_Practice,256,1,48,61,2601753076
75,22,11,Pattern_Practice,257,1,48,51,2601870960
75,22,11,Pattern_Practice,258,5,42,127,2601977340
75,22,11,Pattern_Practice,259,1,48,107,2602007688
75,22,11,Pattern_Practice,260,1,48,55,2602115324
75,22,11,Pattern_Practice,261,1,48,76,2602243432
75,22,11,Pattern_Practice,262,1,48,75,2602355180
75,22,11,Pattern_Practice,263,5,42,127,2602477044
75,22,11,Pattern_Practice,264,1,48,127,2602478084
75,22,11,Pattern_Practice,265,1,48,52,2602724828
75,22,11,Pattern_Practice,266,5,42,127,2602976568
75,22,11,Pattern_Practice,267,1,48,102,2602978580
75,22,11,Pattern_Practice,268,1,38,58,2603224048
75,22,11,Pattern_Practice,269,1,38,67,2603340788
75,22,11,Pattern_Practice,270,1,38,127,2603473040
75,22,11,Pattern_Practice,271,5,42,127,2603477336
75,22,11,Pattern_Practice,272,1,38,48,2603708896
75,22,11,Pattern_Practice,273,1,38,40,2603769984
75,22,11,Pattern_Practice,274,1,38,59,2603829948
75,22,11,Pattern_Practice,275,1,38,46,2603896668
75,22,11,Pattern_Practice,276,1,38,91,2603959332
75,22,11,Pattern_Practice,277,5,42,127,2603977164
75,22,11,Pattern_Practice,278,1,38,42,2604193540
75,22,11,Pattern_Practice,279,1,38,98,2604449428
75,22,11,Pattern_Practice,280,1,48,21,2604461528
75,22,11,Pattern_Practice,281,5,42,127,2604476744
75,22,11,Pattern_Practice,282,1,38,38,2604686960
75,22,11,Pattern_Practice,283,1,38,35,2604746548
75,22,11,Pattern_Practice,284,1,38,55,2604817212
75,22,11,Pattern_Practice,285,1,38,51,2604887976
75,22,11,Pattern_Practice,286,1,38,85,2604949740
75,22,11,Pattern_Practice,287,5,42,127,2604976400
75,22,11,Pattern_Practice,288,1,38,45,2605176920
75,22,11,Pattern_Practice,289,1,38,35,2605235836
75,22,11,Pattern_Practice,290,1,38,54,2605310760
75,22,11,Pattern_Practice,291,1,38,48,2605376260
75,22,11,Pattern_Practice,292,1,38,127,2605444028
75,22,11,Pattern_Practice,293,5,42,127,2605477200
75,22,11,Pattern_Practice,294,1,48,46,2605683328
75,22,11,Pattern_Practice,295,1,48,51,2605743148
75,22,11,Pattern_Practice,296,1,48,54,2605801464
75,22,11,Pattern_Practice,297,1,48,50,2605876320
75,22,11,Pattern_Practice,298,1,48,97,2605945884
75,22,11,Pattern_Practice,299,5,42,127,2605976808
75,22,11,Pattern_Practice,300,1,38,51,2606187652
75,22,11,Pattern_Practice,301,1,38,40,2606248068
75,22,11,Pattern_Practice,302,1,38,55,2606306156
75,22,11,Pattern_Practice,303,1,38,49,2606370244
75,22,11,Pattern_Practice,304,1,38,109,2606433896
75,22,11,Pattern_Practice,305,5,42,127,2606476640
75,22,11,Pattern_Practice,306,1,38,120,2606702744
75,22,11,Pattern_Practice,307,1,38,92,2606937164
75,22,11,Pattern_Practice,308,5,42,127,2606977360
75,22,11,Pattern_Practice,309,1,38,48,2607185184
75,22,11,Pattern_Practice,310,1,38,44,2607245776
75,22,11,Pattern_Practice,311,1,38,56,2607314044
75,22,11,Pattern_Practice,312,1,38,47,2607386200
75,22,11,Pattern_Practice,313,1,38,98,2607443696
75,22,11,Pattern_Practice,314,5,42,127,2607477536
75,22,11,Pattern_Practice,315,1,38,54,2607690900
75,22,11,Pattern_Practice,316,1,38,56,2607819180
75,22,11,Pattern_Practice,317,1,48,95,2607938160
75,22,11,Pattern_Practice,318,5,42,127,2607976744
75,22,11,Pattern_Practice,319,1,38,68,2608211420
75,22,11,Pattern_Practice,320,1,48,98,2608475340
75,22,11,Pattern_Practice,321,5,42,127,2608477364
75,22,11,Pattern_Practice,322,1,38,65,2608731440
75,22,11,Pattern_Practice,0,9999,9999,9999,2568974456
75,22,11,Pattern_Practice,1,9999,9999,9999,2569474100
75,22,11,Pattern_Practice,2,9999,9999,9999,2569974860
75,22,11,Pattern_Practice,3,9999,9999,9999,2570474580
75,22,11,Pattern_Practice,4,9999,9999,9999,2570974292
75,22,11,Pattern_Practice,5,9999,9999,9999,2571475044
75,22,11,Pattern_Practice,6,9999,9999,9999,2571974724
75,22,11,Pattern_Practice,7,9999,9999,9999,2572474464
75,22,11,Pattern_Practice,8,9999,9999,9999,2572974168
75,22,11,Pattern_Practice,9,9999,9999,9999,2573474884
75,22,11,Pattern_Practice,10,9999,9999,9999,2573974640
75,22,11,Pattern_Practice,11,9999,9999,9999,2574474308
75,22,11,Pattern_Practice,12,9999,9999,9999,2574975080
75,22,11,Pattern_Practice,13,9999,9999,9999,2575474800
75,22,11,Pattern_Practice,14,9999,9999,9999,2575974472
75,22,11,Pattern_Practice,15,9999,9999,9999,2576474164
75,22,11,Pattern_Practice,16,9999,9999,9999,2576974904
75,22,11,Pattern_Practice,17,9999,9999,9999,2577474652
75,22,11,Pattern_Practice,18,9999,9999,9999,2577974376
75,22,11,Pattern_Practice,19,9999,9999,9999,2578475076
75,22,11,Pattern_Practice,20,9999,9999,9999,2578974828
75,22,11,Pattern_Practice,21,9999,9999,9999,2579474504
75,22,11,Pattern_Practice,22,9999,9999,9999,2579974260
75,22,11,Pattern_Practice,23,9999,9999,9999,2580474980
75,22,11,Pattern_Practice,24,9999,9999,9999,2580974660
75,22,11,Pattern_Practice,25,9999,9999,9999,2581474424
75,22,11,Pattern_Practice,26,9999,9999,9999,2581974128
75,22,11,Pattern_Practice,27,9999,9999,9999,2582474804
75,22,11,Pattern_Practice,28,9999,9999,9999,2582974580
75,22,11,Pattern_Practice,29,9999,9999,9999,2583474256
75,22,11,Pattern_Practice,30,9999,9999,9999,2583974988
75,22,11,Pattern_Practice,31,9999,9999,9999,2584474708
75,22,11,Pattern_Practice,32,9999,9999,9999,2584974384
75,22,11,Pattern_Practice,33,9999,9999,9999,2585474136
75,22,11,Pattern_Practice,34,9999,9999,9999,2585974888
75,22,11,Pattern_Practice,35,9999,9999,9999,2586474588
75,22,11,Pattern_Practice,36,9999,9999,9999,2586974320
75,22,11,Pattern_Practice,37,9999,9999,9999,2587474992
75,22,11,Pattern_Practice,38,9999,9999,9999,2587974724
75,22,11,Pattern_Practice,39,9999,9999,9999,2588474472
75,22,11,Pattern_Practice,40,9999,9999,9999,2588974152
75,22,11,Pattern_Practice,41,9999,9999,9999,2589474884
75,22,11,Pattern_Practice,42,9999,9999,9999,2589974640
75,22,11,Pattern_Practice,43,9999,9999,9999,2590474316
75,22,11,Pattern_Practice,44,9999,9999,9999,2590975036
75,22,11,Pattern_Practice,45,9999,9999,9999,2591474764
75,22,11,Pattern_Practice,46,9999,9999,9999,2591974488
75,22,11,Pattern_Practice,47,9999,9999,9999,2592474216
75,22,11,Pattern_Practice,48,9999,9999,9999,2592974908
75,22,11,Pattern_Practice,49,9999,9999,9999,2593474632
75,22,11,Pattern_Practice,50,9999,9999,9999,2593974336
75,22,11,Pattern_Practice,51,9999,9999,9999,2594475088
75,22,11,Pattern_Practice,52,9999,9999,9999,2594974788
75,22,11,Pattern_Practice,53,9999,9999,9999,2595474516
75,22,11,Pattern_Practice,54,9999,9999,9999,2595974212
75,22,11,Pattern_Practice,55,9999,9999,9999,2596474940
75,22,11,Pattern_Practice,56,9999,9999,9999,2596974644
75,22,11,Pattern_Practice,57,9999,9999,9999,2597474420
75,22,11,Pattern_Practice,58,9999,9999,9999,2597974068
75,22,11,Pattern_Practice,59,9999,9999,9999,2598474808
75,22,11,Pattern_Practice,60,9999,9999,9999,2598974536
75,22,11,Pattern_Practice,61,9999,9999,9999,2599474284
75,22,11,Pattern_Practice,62,9999,9999,9999,2599975004
75,22,11,Pattern_Practice,63,9999,9999,9999,2600474680
75,22,11,Pattern_Practice,64,9999,9999,9999,2600974432
75,22,11,Pattern_Practice,65,9999,9999,9999,2601474104
75,22,11,Pattern_Practice,66,9999,9999,9999,2601974904
75,22,11,Pattern_Practice,67,9999,9999,9999,2602474608
75,22,11,Pattern_Practice,68,9999,9999,9999,2602974280
75,22,11,Pattern_Practice,69,9999,9999,9999,2603475044
75,22,11,Pattern_Practice,70,9999,9999,9999,2603974728
75,22,11,Pattern_Practice,71,9999,9999,9999,2604474456
75,22,11,Pattern_Practice,72,9999,9999,9999,2604974188
75,22,11,Pattern_Practice,73,9999,9999,9999,2605474912
75,22,11,Pattern_Practice,74,9999,9999,9999,2605974596
75,22,11,Pattern_Practice,75,9999,9999,9999,2606474352
75,22,11,Pattern_Practice,76,9999,9999,9999,2606975072
75,22,11,Pattern_Practice,77,9999,9999,9999,2607474804
75,22,11,Pattern_Practice,78,9999,9999,9999,2607974452
75,22,11,Pattern_Practice,79,9999,9999,9999,2608474184
75,23,13,Improv_Metronome,0,5,42,127,2641140208
75,23,13,Improv_Metronome,1,5,42,127,2641639700
75,23,13,Improv_Metronome,2,5,42,127,2642139716
75,23,13,Improv_Metronome,3,5,42,127,2642640256
75,23,13,Improv_Metronome,4,1,38,55,2643094680
75,23,13,Improv_Metronome,5,5,42,127,2643140040
75,23,13,Improv_Metronome,6,1,38,50,2643155784
75,23,13,Improv_Metronome,7,1,38,51,2643245672
75,23,13,Improv_Metronome,8,1,38,47,2643310520
75,23,13,Improv_Metronome,9,1,38,56,2643373408
75,23,13,Improv_Metronome,10,1,38,50,2643428664
75,23,13,Improv_Metronome,11,1,38,56,2643511888
75,23,13,Improv_Metronome,12,1,38,44,2643574348
75,23,13,Improv_Metronome,13,1,38,127,2643630948
75,23,13,Improv_Metronome,14,5,42,127,2643639584
75,23,13,Improv_Metronome,15,5,42,127,2644140556
75,23,13,Improv_Metronome,16,1,38,43,2644164096
75,23,13,Improv_Metronome,17,1,38,107,2644392680
75,23,13,Improv_Metronome,18,1,48,127,2644407096
75,23,13,Improv_Metronome,19,5,42,127,2644640032
75,23,13,Improv_Metronome,20,1,38,108,2644886944
75,23,13,Improv_Metronome,21,1,48,127,2644900832
75,23,13,Improv_Metronome,22,1,48,56,2645123852
75,23,13,Improv_Metronome,23,5,42,127,2645139672
75,23,13,Improv_Metronome,24,1,48,51,2645181524
75,23,13,Improv_Metronome,25,1,48,67,2645236028
75,23,13,Improv_Metronome,26,1,48,54,2645305416
75,23,13,Improv_Metronome,27,1,48,103,2645343112
75,23,13,Improv_Metronome,28,1,48,127,2645605056
75,23,13,Improv_Metronome,29,5,42,127,2645639504
75,23,13,Improv_Metronome,30,1,48,57,2645875028
75,23,13,Improv_Metronome,31,1,38,73,2645998568
75,23,13,Improv_Metronome,32,1,48,119,2646120344
75,23,13,Improv_Metronome,33,5,42,127,2646140348
75,23,13,Improv_Metronome,34,1,38,116,2646379540
75,23,13,Improv_Metronome,35,5,42,127,2646639956
75,23,13,Improv_Metronome,36,1,48,123,2646647632
75,23,13,Improv_Metronome,37,1,48,60,2646761756
75,23,13,Improv_Metronome,38,1,48,61,2646882560
75,23,13,Improv_Metronome,39,1,48,107,2646998768
75,23,13,Improv_Metronome,40,1,48,127,2647123016
75,23,13,Improv_Metronome,41,5,42,127,2647139652
75,23,13,Improv_Metronome,42,1,38,127,2647629040
75,23,13,Improv_Metronome,43,5,42,127,2647640468
75,23,13,Improv_Metronome,44,1,38,39,2647869464
75,23,13,Improv_Metronome,45,1,38,37,2647923688
75,23,13,Improv_Metronome,46,1,38,67,2647978348
75,23,13,Improv_Metronome,47,1,38,54,2648047064
75,23,13,Improv_Metronome,48,1,38,96,2648098352
75,23,13,Improv_Metronome,49,5,42,127,2648140124
75,23,13,Improv_Metronome,50,1,48,127,2648348420
75,23,13,Improv_Metronome,51,5,42,127,2648639880
75,23,13,Improv_Metronome,52,1,48,92,2648844676
75,23,13,Improv_Metronome,53,1,48,59,2649110212
75,23,13,Improv_Metronome,54,5,42,127,2649139568
75,23,13,Improv_Metronome,55,1,38,127,2649368360
75,23,13,Improv_Metronome,56,1,48,100,2649619536
75,23,13,Improv_Metronome,57,5,42,127,2649640584
75,23,13,Improv_Metronome,58,1,38,127,2649884188
75,23,13,Improv_Metronome,59,5,42,127,2650140044
75,23,13,Improv_Metronome,60,1,38,122,2650141604
75,23,13,Improv_Metronome,61,1,48,127,2650148688
75,23,13,Improv_Metronome,62,1,48,54,2650381660
75,23,13,Improv_Metronome,63,1,48,51,2650443716
75,23,13,Improv_Metronome,64,1,48,53,2650491740
75,23,13,Improv_Metronome,65,1,48,53,2650562704
75,23,13,Improv_Metronome,66,1,48,127,2650640440
75,23,13,Improv_Metronome,67,5,42,127,2650641700
75,23,13,Improv_Metronome,68,1,48,127,2650759496
75,23,13,Improv_Metronome,69,1,48,77,2650884080
75,23,13,Improv_Metronome,70,1,48,111,2650989548
75,23,13,Improv_Metronome,71,1,48,106,2651113992
75,23,13,Improv_Metronome,72,5,42,127,2651139460
75,23,13,Improv_Metronome,73,1,48,61,2651356512
75,23,13,Improv_Metronome,74,1,48,127,2651611048
75,23,13,Improv_Metronome,75,1,38,127,2651616716
75,23,13,Improv_Metronome,76,5,42,127,2651640456
75,23,13,Improv_Metronome,77,1,48,50,2651851568
75,23,13,Improv_Metronome,78,1,48,46,2651916920
75,23,13,Improv_Metronome,79,1,48,60,2651960808
75,23,13,Improv_Metronome,80,1,48,46,2652026480
75,23,13,Improv_Metronome,81,1,48,89,2652098488
75,23,13,Improv_Metronome,82,5,42,127,2652139812
75,23,13,Improv_Metronome,83,1,38,127,2652355964
75,23,13,Improv_Metronome,84,1,48,56,2652609832
75,23,13,Improv_Metronome,85,5,42,127,2652639560
75,23,13,Improv_Metronome,86,1,38,127,2652883684
75,23,13,Improv_Metronome,87,5,42,127,2653140508
75,23,13,Improv_Metronome,88,1,48,48,2653151632
75,23,13,Improv_Metronome,89,1,48,50,2653244132
75,23,13,Improv_Metronome,90,1,48,72,2653389844
75,23,13,Improv_Metronome,91,1,48,59,2653498952
75,23,13,Improv_Metronome,92,1,48,73,2653637940
75,23,13,Improv_Metronome,93,5,42,127,2653640056
75,23,13,Improv_Metronome,94,1,48,59,2653769944
75,23,13,Improv_Metronome,95,1,38,50,2653892912
75,23,13,Improv_Metronome,96,1,38,59,2654012412
75,23,13,Improv_Metronome,97,1,48,109,2654128804
75,23,13,Improv_Metronome,98,5,42,127,2654139612
75,23,13,Improv_Metronome,99,1,38,65,2654250128
75,23,13,Improv_Metronome,100,1,38,57,2654381844
75,23,13,Improv_Metronome,101,1,38,52,2654442332
75,23,13,Improv_Metronome,102,1,38,67,2654501480
75,23,13,Improv_Metronome,103,1,38,54,2654566484
75,23,13,Improv_Metronome,104,1,38,114,2654634300
75,23,13,Improv_Metronome,105,5,42,127,2654639424
75,23,13,Improv_Metronome,106,1,38,127,2654759580
75,23,13,Improv_Metronome,107,1,38,81,2654879864
75,23,13,Improv_Metronome,108,1,38,73,2654988892
75,23,13,Improv_Metronome,109,1,48,104,2655126448
75,23,13,Improv_Metronome,110,5,42,127,2655140396
75,23,13,Improv_Metronome,111,1,38,127,2655392452
75,23,13,Improv_Metronome,112,1,48,90,2655514876
75,23,13,Improv_Metronome,113,5,42,127,2655639832
75,23,13,Improv_Metronome,114,1,48,114,2655642572
75,23,13,Improv_Metronome,115,1,38,127,2655886348
75,23,13,Improv_Metronome,116,1,48,106,2656009740
75,23,13,Improv_Metronome,117,5,42,127,2656139708
75,23,13,Improv_Metronome,118,1,48,101,2656271028
75,23,13,Improv_Metronome,119,1,38,127,2656412848
75,23,13,Improv_Metronome,120,1,48,80,2656546636
75,23,13,Improv_Metronome,121,5,42,127,2656641000
75,23,13,Improv_Metronome,122,1,48,92,2656677184
75,23,13,Improv_Metronome,123,1,38,127,2656917432
75,23,13,Improv_Metronome,124,5,42,127,2657140152
75,23,13,Improv_Metronome,125,1,48,70,2657163164
75,23,13,Improv_Metronome,126,1,38,52,2657293216
75,23,13,Improv_Metronome,127,1,38,95,2657411996
75,23,13,Improv_Metronome,128,1,38,127,2657534940
75,23,13,Improv_Metronome,129,5,42,127,2657639708
75,23,13,Improv_Metronome,130,1,38,76,2657667360
75,23,13,Improv_Metronome,131,1,38,61,2657791796
75,23,13,Improv_Metronome,132,1,38,76,2657912900
75,23,13,Improv_Metronome,133,1,38,61,2658026196
75,23,13,Improv_Metronome,134,5,42,127,2658139488
75,23,13,Improv_Metronome,135,1,48,127,2658155240
75,23,13,Improv_Metronome,136,1,38,99,2658279764
75,23,13,Improv_Metronome,137,1,48,76,2658410060
75,23,13,Improv_Metronome,138,1,48,69,2658535628
75,23,13,Improv_Metronome,139,5,42,127,2658640436
75,23,13,Improv_Metronome,140,1,48,64,2658659208
75,23,13,Improv_Metronome,141,1,48,78,2658779088
75,23,13,Improv_Metronome,142,1,48,116,2658888872
75,23,13,Improv_Metronome,143,1,48,92,2659006228
75,23,13,Improv_Metronome,144,1,38,20,2659015480
75,23,13,Improv_Metronome,145,1,48,127,2659136908
75,23,13,Improv_Metronome,146,5,42,127,2659140084
75,23,13,Improv_Metronome,147,1,48,35,2659395500
75,23,13,Improv_Metronome,148,5,42,127,2659639540
75,23,13,Improv_Metronome,149,1,48,127,2659648412
75,23,13,Improv_Metronome,150,1,38,127,2659653256
75,23,13,Improv_Metronome,151,1,48,51,2659907392
75,23,13,Improv_Metronome,152,5,42,127,2660140432
75,23,13,Improv_Metronome,153,1,48,107,2660397516
75,23,13,Improv_Metronome,154,5,42,127,2660640276
75,23,13,Improv_Metronome,155,1,38,127,2660644440
75,23,13,Improv_Metronome,156,1,48,103,2660873480
75,23,13,Improv_Metronome,157,5,42,127,2661139876
75,23,13,Improv_Metronome,158,1,48,111,2661368756
75,23,13,Improv_Metronome,159,1,38,111,2661616716
75,23,13,Improv_Metronome,160,5,42,127,2661639488
75,23,13,Improv_Metronome,161,1,48,68,2661849136
75,23,13,Improv_Metronome,162,1,48,55,2661964900
75,23,13,Improv_Metronome,163,1,48,96,2662093700
75,23,13,Improv_Metronome,164,5,42,127,2662140560
75,23,13,Improv_Metronome,165,1,48,73,2662203508
75,23,13,Improv_Metronome,166,1,48,101,2662316604
75,23,13,Improv_Metronome,167,1,38,105,2662599560
75,23,13,Improv_Metronome,168,5,42,127,2662640360
75,23,13,Improv_Metronome,169,1,48,62,2662849332
75,23,13,Improv_Metronome,170,1,48,127,2663073132
75,23,13,Improv_Metronome,171,5,42,127,2663139660
75,23,13,Improv_Metronome,172,1,48,115,2663457464
75,23,13,Improv_Metronome,173,5,42,127,2663640392
75,23,13,Improv_Metronome,174,1,48,119,2663863812
75,23,13,Improv_Metronome,175,5,42,127,2664140236
75,23,13,Improv_Metronome,176,1,48,103,2664255172
75,23,13,Improv_Metronome,177,1,38,127,2664639400
75,23,13,Improv_Metronome,178,5,42,127,2664641644
75,23,13,Improv_Metronome,179,1,48,115,2664642608
75,23,13,Improv_Metronome,180,1,48,123,2665046352
75,23,13,Improv_Metronome,181,5,42,127,2665139644
75,23,13,Improv_Metronome,182,1,48,115,2665437340
75,23,13,Improv_Metronome,183,5,42,127,2665640160
75,23,13,Improv_Metronome,184,1,38,127,2665673124
75,23,13,Improv_Metronome,185,1,48,117,2665812028
75,23,13,Improv_Metronome,186,5,42,127,2666140132
75,23,13,Improv_Metronome,187,1,38,127,2666156044
75,23,13,Improv_Metronome,188,1,48,127,2666168812
75,23,13,Improv_Metronome,189,1,38,127,2666524596
75,23,13,Improv_Metronome,190,1,48,26,2666534080
75,23,13,Improv_Metronome,191,5,42,127,2666639712
75,23,13,Improv_Metronome,192,1,48,127,2666669384
75,23,13,Improv_Metronome,193,1,38,54,2666911724
75,23,13,Improv_Metronome,194,5,42,127,2667139384
75,23,13,Improv_Metronome,195,1,48,126,2667145640
75,23,13,Improv_Metronome,196,1,38,40,2667397416
75,23,13,Improv_Metronome,197,1,48,96,2667528884
75,23,13,Improv_Metronome,198,5,42,127,2667640152
75,23,13,Improv_Metronome,199,1,38,39,2667646932
75,23,13,Improv_Metronome,200,1,38,44,2667761428
75,23,13,Improv_Metronome,201,1,48,119,2667889260
75,23,13,Improv_Metronome,202,1,38,122,2668121664
75,23,13,Improv_Metronome,203,5,42,127,2668140020
75,23,13,Improv_Metronome,204,1,48,95,2668245448
75,23,13,Improv_Metronome,205,1,38,50,2668357848
75,23,13,Improv_Metronome,206,1,38,51,2668474608
75,23,13,Improv_Metronome,207,1,48,127,2668602340
75,23,13,Improv_Metronome,208,5,42,127,2668639576
75,23,13,Improv_Metronome,209,1,38,35,2668783444
75,23,13,Improv_Metronome,210,1,48,122,2668962368
75,23,13,Improv_Metronome,211,1,38,37,2669099676
75,23,13,Improv_Metronome,212,5,42,127,2669140200
75,23,13,Improv_Metronome,213,1,38,37,2669206352
75,23,13,Improv_Metronome,214,1,48,121,2669342168
75,23,13,Improv_Metronome,215,1,38,125,2669594764
75,23,13,Improv_Metronome,216,5,42,127,2669640048
75,23,13,Improv_Metronome,217,1,48,72,2669723584
75,23,13,Improv_Metronome,218,1,38,43,2669849000
75,23,13,Improv_Metronome,219,1,38,48,2669962096
75,23,13,Improv_Metronome,220,1,48,102,2670090200
75,23,13,Improv_Metronome,221,5,42,127,2670139680
75,23,13,Improv_Metronome,222,1,38,44,2670210576
75,23,13,Improv_Metronome,223,1,38,48,2670345860
75,23,13,Improv_Metronome,224,1,48,99,2670442128
75,23,13,Improv_Metronome,225,1,38,127,2670607036
75,23,13,Improv_Metronome,226,5,42,127,2670639384
75,23,13,Improv_Metronome,227,1,38,60,2670841696
75,23,13,Improv_Metronome,228,1,38,52,2670902788
75,23,13,Improv_Metronome,229,1,38,62,2670966368
75,23,13,Improv_Metronome,230,1,38,58,2671030148
75,23,13,Improv_Metronome,231,1,38,127,2671085704
75,23,13,Improv_Metronome,232,5,42,127,2671140112
75,23,13,Improv_Metronome,233,1,38,127,2671357464
75,23,13,Improv_Metronome,234,5,42,127,2671639868
75,23,13,Improv_Metronome,235,1,48,79,2671847060
75,23,13,Improv_Metronome,236,1,48,127,2671889220
75,23,13,Improv_Metronome,237,1,48,85,2672124688
75,23,13,Improv_Metronome,238,5,42,127,2672139536
75,23,13,Improv_Metronome,239,1,48,127,2672151616
75,23,13,Improv_Metronome,240,1,38,86,2672620100
75,23,13,Improv_Metronome,241,5,42,127,2672640256
75,23,13,Improv_Metronome,242,1,38,106,2672642548
75,23,13,Improv_Metronome,243,1,38,84,2672867228
75,23,13,Improv_Metronome,244,1,38,127,2672898772
75,23,13,Improv_Metronome,245,5,42,127,2673140040
75,23,13,Improv_Metronome,246,1,48,86,2673359496
75,23,13,Improv_Metronome,247,1,48,127,2673624056
75,23,13,Improv_Metronome,248,1,38,29,2673634060
75,23,13,Improv_Metronome,249,5,42,127,2673639780
75,23,13,Improv_Metronome,250,1,48,58,2673858748
75,23,13,Improv_Metronome,251,1,48,52,2673915644
75,23,13,Improv_Metronome,252,1,48,78,2673973816
75,23,13,Improv_Metronome,253,1,48,62,2674041508
75,23,13,Improv_Metronome,254,1,48,127,2674108808
75,23,13,Improv_Metronome,255,5,42,127,2674139360
75,23,13,Improv_Metronome,256,1,38,127,2674244036
75,23,13,Improv_Metronome,257,1,48,70,2674365664
75,23,13,Improv_Metronome,258,1,38,127,2674487036
75,23,13,Improv_Metronome,259,1,38,127,2674607088
75,23,13,Improv_Metronome,260,5,42,127,2674640188
75,23,13,Improv_Metronome,261,1,38,82,2674736488
75,23,13,Improv_Metronome,262,1,38,127,2674861404
75,23,13,Improv_Metronome,263,1,38,83,2674920320
75,23,13,Improv_Metronome,264,1,38,122,2674983796
75,23,13,Improv_Metronome,265,1,38,127,2675119036
75,23,13,Improv_Metronome,266,5,42,127,2675140088
75,23,13,Improv_Metronome,267,5,42,127,2675639644
75,23,13,Improv_Metronome,268,1,48,94,2675880864
75,23,13,Improv_Metronome,269,1,38,22,2675890200
75,23,13,Improv_Metronome,270,1,48,127,2675908948
75,23,13,Improv_Metronome,271,5,42,127,2676140540
75,23,13,Improv_Metronome,272,1,38,127,2676372936
75,23,13,Improv_Metronome,273,1,38,106,2676399768
75,23,13,Improv_Metronome,274,5,42,127,2676640136
75,23,13,Improv_Metronome,275,1,48,76,2676871344
75,23,13,Improv_Metronome,276,1,48,86,2676891064
75,23,13,Improv_Metronome,277,1,48,103,2677124660
75,23,13,Improv_Metronome,278,1,48,127,2677133688
75,23,13,Improv_Metronome,279,5,42,127,2677140004
75,23,13,Improv_Metronome,280,1,48,70,2677386380
75,23,13,Improv_Metronome,281,1,38,53,2677490100
75,23,13,Improv_Metronome,282,1,48,89,2677623016
75,23,13,Improv_Metronome,283,5,42,127,2677639508
75,23,13,Improv_Metronome,284,1,48,62,2677747028
75,23,13,Improv_Metronome,285,1,38,59,2677861844
75,23,13,Improv_Metronome,286,1,38,68,2677982696
75,23,13,Improv_Metronome,287,1,48,127,2678108436
75,23,13,Improv_Metronome,288,5,42,127,2678140408
75,23,13,Improv_Metronome,289,1,38,103,2678232148
75,23,13,Improv_Metronome,290,1,38,63,2678360728
75,23,13,Improv_Metronome,291,1,38,53,2678413364
75,23,13,Improv_Metronome,292,1,38,67,2678479240
75,23,13,Improv_Metronome,293,1,38,57,2678542720
75,23,13,Improv_Metronome,294,1,38,115,2678598872
75,23,13,Improv_Metronome,295,5,42,127,2678639992
75,23,13,Improv_Metronome,296,1,38,93,2678722080
75,23,13,Improv_Metronome,297,1,48,20,2678731864
75,23,13,Improv_Metronome,298,1,48,60,2678834056
75,23,13,Improv_Metronome,299,1,48,58,2678897792
75,23,13,Improv_Metronome,300,1,48,68,2678964488
75,23,13,Improv_Metronome,301,1,48,54,2679033500
75,23,13,Improv_Metronome,302,1,48,108,2679093544
75,23,13,Improv_Metronome,303,5,42,127,2679139828
75,23,13,Improv_Metronome,304,5,42,127,2679640576
75,23,13,Improv_Metronome,305,1,38,104,2679838096
75,23,13,Improv_Metronome,306,1,48,107,2679853780
75,23,13,Improv_Metronome,307,5,42,127,2680140048
75,23,13,Improv_Metronome,308,1,48,94,2680360700
75,23,13,Improv_Metronome,309,1,48,93,2680483224
75,23,13,Improv_Metronome,310,1,48,127,2680623224
75,23,13,Improv_Metronome,311,5,42,127,2680639936
75,23,13,Improv_Metronome,312,1,48,127,2680743516
75,23,13,Improv_Metronome,313,5,42,127,2681139544
75,23,13,Improv_Metronome,314,1,38,80,2681384280
75,23,13,Improv_Metronome,315,1,38,106,2681514132
75,23,13,Improv_Metronome,316,5,42,127,2681640260
75,23,13,Improv_Metronome,317,1,38,127,2681647200
75,23,13,Improv_Metronome,318,1,38,109,2681766724
75,23,13,Improv_Metronome,319,5,42,127,2682139936
75,23,13,Improv_Metronome,320,1,48,112,2682145740
75,23,13,Improv_Metronome,321,1,38,22,2682155152
75,23,13,Improv_Metronome,322,1,48,127,2682166948
75,23,13,Improv_Metronome,323,1,38,127,2682505928
75,23,13,Improv_Metronome,324,1,48,127,2682514440
75,23,13,Improv_Metronome,325,5,42,127,2682639864
75,23,13,Improv_Metronome,326,1,48,127,2682891256
75,23,13,Improv_Metronome,327,1,38,120,2682894608
75,23,13,Improv_Metronome,328,5,42,127,2683139508
75,23,13,Improv_Metronome,329,1,38,81,2683365176
75,23,13,Improv_Metronome,330,1,38,117,2683375400
75,23,13,Improv_Metronome,331,1,38,83,2683622164
75,23,13,Improv_Metronome,332,5,42,127,2683640224
75,23,13,Improv_Metronome,333,1,38,127,2683649088
75,23,13,Improv_Metronome,334,1,48,86,2684135220
75,23,13,Improv_Metronome,335,5,42,127,2684139824
75,23,13,Improv_Metronome,336,1,48,126,2684141672
75,23,13,Improv_Metronome,337,1,48,100,2684384452
75,23,13,Improv_Metronome,338,1,48,127,2684395796
75,23,13,Improv_Metronome,339,5,42,127,2684639608
75,23,13,Improv_Metronome,340,1,38,105,2684887636
75,23,13,Improv_Metronome,341,1,38,105,2685010308
75,23,13,Improv_Metronome,342,1,38,127,2685134076
75,23,13,Improv_Metronome,343,5,42,127,2685140244
75,23,13,Improv_Metronome,344,1,38,127,2685247840
75,23,13,Improv_Metronome,345,1,48,62,2685379864
75,23,13,Improv_Metronome,346,1,48,71,2685489196
75,23,13,Improv_Metronome,347,1,48,127,2685631836
75,23,13,Improv_Metronome,348,5,42,127,2685640024
75,23,13,Improv_Metronome,349,1,48,124,2685757264
75,23,13,Improv_Metronome,350,1,48,60,2685870812
75,23,13,Improv_Metronome,351,1,48,57,2685936088
75,23,13,Improv_Metronome,352,1,48,93,2685997848
75,23,13,Improv_Metronome,353,1,48,66,2686059788
75,23,13,Improv_Metronome,354,1,48,127,2686129996
75,23,13,Improv_Metronome,355,5,42,127,2686139904
75,23,13,Improv_Metronome,356,1,38,102,2686251096
75,23,13,Improv_Metronome,357,1,38,57,2686370924
75,23,13,Improv_Metronome,358,1,38,33,2686424900
75,23,13,Improv_Metronome,359,1,38,80,2686499304
75,23,13,Improv_Metronome,360,1,38,73,2686558848
75,23,13,Improv_Metronome,361,1,38,116,2686628988
75,23,13,Improv_Metronome,362,5,42,127,2686639344
75,23,13,Improv_Metronome,363,1,38,127,2686744540
75,23,13,Improv_Metronome,364,1,48,66,2686854120
75,23,13,Improv_Metronome,365,1,48,68,2686914840
75,23,13,Improv_Metronome,366,1,48,71,2686991636
75,23,13,Improv_Metronome,367,1,48,57,2687062916
75,23,13,Improv_Metronome,368,1,48,127,2687126176
75,23,13,Improv_Metronome,369,5,42,127,2687140200
75,23,13,Improv_Metronome,370,1,48,127,2687623180
75,23,13,Improv_Metronome,371,1,38,95,2687626452
75,23,13,Improv_Metronome,372,5,42,127,2687640024
75,23,13,Improv_Metronome,373,1,48,53,2687861532
75,23,13,Improv_Metronome,374,1,48,47,2687922092
75,23,13,Improv_Metronome,375,1,48,57,2687987296
75,23,13,Improv_Metronome,376,1,48,38,2688059684
75,23,13,Improv_Metronome,377,1,48,118,2688108680
75,23,13,Improv_Metronome,378,5,42,127,2688139752
75,23,13,Improv_Metronome,379,1,38,127,2688365176
75,23,13,Improv_Metronome,380,1,48,61,2688619340
75,23,13,Improv_Metronome,381,5,42,127,2688640396
75,23,13,Improv_Metronome,382,1,48,47,2688754420
75,23,13,Improv_Metronome,383,1,48,79,2688861984
75,23,13,Improv_Metronome,384,1,48,78,2688991440
75,23,13,Improv_Metronome,385,1,38,122,2689111640
75,23,13,Improv_Metronome,386,5,42,127,2689140024
75,23,13,Improv_Metronome,387,1,48,74,2689250088
75,23,13,Improv_Metronome,388,1,48,71,2689367000
75,23,13,Improv_Metronome,389,1,48,83,2689487104
75,23,13,Improv_Metronome,390,1,48,75,2689602044
75,23,13,Improv_Metronome,391,5,42,127,2689640024
75,23,13,Improv_Metronome,392,1,48,66,2689720172
75,23,13,Improv_Metronome,393,1,38,127,2689856884
75,23,13,Improv_Metronome,394,1,48,71,2689972448
75,23,13,Improv_Metronome,395,1,48,71,2690095840
75,23,13,Improv_Metronome,396,5,42,127,2690139360
75,23,13,Improv_Metronome,397,1,48,79,2690229528
75,23,13,Improv_Metronome,398,1,48,70,2690353816
75,23,13,Improv_Metronome,399,1,48,72,2690471400
75,23,13,Improv_Metronome,400,1,38,123,2690605344
75,23,13,Improv_Metronome,401,5,42,127,2690640332
75,23,13,Improv_Metronome,402,1,48,63,2690843892
75,23,13,Improv_Metronome,403,1,48,57,2690912264
75,23,13,Improv_Metronome,404,1,48,55,2690983816
75,23,13,Improv_Metronome,405,1,48,45,2691054780
75,23,13,Improv_Metronome,406,1,48,117,2691101432
75,23,13,Improv_Metronome,407,5,42,127,2691139912
75,23,13,Improv_Metronome,408,1,48,105,2691372448
75,23,13,Improv_Metronome,409,1,38,127,2691631324
75,23,13,Improv_Metronome,410,5,42,127,2691639884
75,23,13,Improv_Metronome,411,1,48,58,2691877280
75,23,13,Improv_Metronome,412,1,48,54,2691937116
75,23,13,Improv_Metronome,413,1,48,57,2691998580
75,23,13,Improv_Metronome,414,1,48,45,2692076424
75,23,13,Improv_Metronome,415,1,48,73,2692140176
75,23,13,Improv_Metronome,416,5,42,127,2692141436
75,23,13,Improv_Metronome,417,1,48,127,2692395512
75,23,13,Improv_Metronome,418,1,38,127,2692398780
75,23,13,Improv_Metronome,419,1,48,43,2692636016
75,23,13,Improv_Metronome,420,5,42,127,2692640240
75,23,13,Improv_Metronome,421,1,48,47,2692693628
75,23,13,Improv_Metronome,422,1,38,65,2692747916
75,23,13,Improv_Metronome,423,1,38,55,2692821912
75,23,13,Improv_Metronome,424,1,48,97,2692885172
75,23,13,Improv_Metronome,425,5,42,127,2693139888
75,23,13,Improv_Metronome,426,1,48,127,2693145704
75,23,13,Improv_Metronome,427,1,38,62,2693258796
75,23,13,Improv_Metronome,428,1,48,61,2693376136
75,23,13,Improv_Metronome,429,1,48,67,2693488708
75,23,13,Improv_Metronome,430,1,38,127,2693636264
75,23,13,Improv_Metronome,431,5,42,127,2693639732
75,23,13,Improv_Metronome,432,1,48,68,2693740700
75,23,13,Improv_Metronome,433,1,48,60,2693876140
75,23,13,Improv_Metronome,434,1,38,50,2693978316
75,23,13,Improv_Metronome,435,1,38,56,2694105068
75,23,13,Improv_Metronome,436,5,42,127,2694140188
75,23,13,Improv_Metronome,437,1,48,127,2694231056
75,23,13,Improv_Metronome,438,1,38,52,2694348844
75,23,13,Improv_Metronome,439,1,48,67,2694500012
75,23,13,Improv_Metronome,440,1,48,76,2694622132
75,23,13,Improv_Metronome,441,5,42,127,2694640120
75,23,13,Improv_Metronome,442,1,38,127,2694755744
75,23,13,Improv_Metronome,443,1,48,73,2694900084
75,23,13,Improv_Metronome,444,1,38,49,2695009064
75,23,13,Improv_Metronome,445,1,38,51,2695080548
75,23,13,Improv_Metronome,446,1,48,127,2695136104
75,23,13,Improv_Metronome,447,5,42,127,2695139880
75,23,13,Improv_Metronome,448,1,48,68,2695379640
75,23,13,Improv_Metronome,449,1,48,124,2695628048
75,23,13,Improv_Metronome,450,1,38,94,2695631392
75,23,13,Improv_Metronome,451,5,42,127,2695640552
75,23,13,Improv_Metronome,452,1,48,54,2695873280
75,23,13,Improv_Metronome,453,1,48,54,2695932276
75,23,13,Improv_Metronome,454,1,48,58,2695995684
75,23,13,Improv_Metronome,455,1,48,47,2696064944
75,23,13,Improv_Metronome,456,1,48,100,2696125888
75,23,13,Improv_Metronome,457,5,42,127,2696140060
75,23,13,Improv_Metronome,458,1,48,93,2696388592
75,23,13,Improv_Metronome,459,1,38,127,2696427024
75,23,13,Improv_Metronome,460,5,42,127,2696639764
75,23,13,Improv_Metronome,461,1,48,100,2696866856
75,23,13,Improv_Metronome,462,5,42,127,2697139836
75,23,13,Improv_Metronome,463,1,48,100,2697388092
75,23,13,Improv_Metronome,464,1,48,127,2697628640
75,23,13,Improv_Metronome,465,1,38,127,2697634156
75,23,13,Improv_Metronome,466,5,42,127,2697640400
75,23,13,Improv_Metronome,467,1,48,61,2697869544
75,23,13,Improv_Metronome,468,1,48,56,2697928012
75,23,13,Improv_Metronome,469,1,48,58,2697984092
75,23,13,Improv_Metronome,470,1,48,50,2698058116
75,23,13,Improv_Metronome,471,1,48,94,2698128804
75,23,13,Improv_Metronome,472,5,42,127,2698139908
75,23,13,Improv_Metronome,473,1,48,111,2698243240
75,23,13,Improv_Metronome,474,1,38,23,2698253016
75,23,13,Improv_Metronome,475,1,48,63,2698369528
75,23,13,Improv_Metronome,476,1,38,100,2698607692
75,23,13,Improv_Metronome,477,1,38,125,2698637524
75,23,13,Improv_Metronome,478,5,42,127,2698639788
75,23,13,Improv_Metronome,479,1,38,65,2698734440
75,23,13,Improv_Metronome,480,1,38,64,2698875588
75,23,13,Improv_Metronome,481,1,38,127,2698996968
75,23,13,Improv_Metronome,482,1,38,49,2699132424
75,23,13,Improv_Metronome,483,5,42,127,2699139640
75,23,13,Improv_Metronome,484,1,38,119,2699367388
75,23,13,Improv_Metronome,485,1,38,127,2699514044
75,23,13,Improv_Metronome,486,1,48,23,2699523376
75,23,13,Improv_Metronome,487,1,38,46,2699608200
75,23,13,Improv_Metronome,488,5,42,127,2699640080
75,23,13,Improv_Metronome,489,1,38,42,2699667120
75,23,13,Improv_Metronome,490,1,38,64,2699754012
75,23,13,Improv_Metronome,491,1,38,60,2699819664
75,23,13,Improv_Metronome,492,1,38,108,2699872772
75,23,13,Improv_Metronome,493,1,38,127,2700008132
75,23,13,Improv_Metronome,494,1,38,43,2700129008
75,23,13,Improv_Metronome,495,5,42,127,2700139816
75,23,13,Improv_Metronome,496,1,38,86,2700235292
75,23,13,Improv_Metronome,497,1,38,71,2700355624
75,23,13,Improv_Metronome,498,1,38,102,2700468792
75,23,13,Improv_Metronome,499,1,38,90,2700597576
75,23,13,Improv_Metronome,500,5,42,127,2700639816
75,23,13,Improv_Metronome,501,1,38,82,2700660052
75,23,13,Improv_Metronome,502,1,38,71,2700745972
75,23,13,Improv_Metronome,503,1,38,34,2700848576
75,23,13,Improv_Metronome,504,1,38,79,2700978048
75,23,13,Improv_Metronome,505,1,38,89,2701108996
75,23,13,Improv_Metronome,506,5,42,127,2701140548
75,23,13,Improv_Metronome,507,1,38,58,2701238644
75,23,13,Improv_Metronome,508,1,38,53,2701352092
75,23,13,Improv_Metronome,509,1,38,48,2701412604
75,23,13,Improv_Metronome,510,1,38,72,2701477208
75,23,13,Improv_Metronome,511,1,38,63,2701539568
75,23,13,Improv_Metronome,512,1,38,107,2701610232
75,23,13,Improv_Metronome,513,5,42,127,2701640032
75,23,13,Improv_Metronome,514,1,38,127,2701740548
75,23,13,Improv_Metronome,515,1,38,54,2701854820
75,23,13,Improv_Metronome,516,1,38,42,2701925804
75,23,13,Improv_Metronome,517,1,38,72,2701985468
75,23,13,Improv_Metronome,518,1,38,64,2702051792
75,23,13,Improv_Metronome,519,1,38,111,2702107724
75,23,13,Improv_Metronome,520,5,42,127,2702139692
75,23,13,Improv_Metronome,521,1,38,106,2702248736
75,23,13,Improv_Metronome,522,1,48,51,2702354552
75,23,13,Improv_Metronome,523,1,48,53,2702430624
75,23,13,Improv_Metronome,524,1,48,59,2702500688
75,23,13,Improv_Metronome,525,1,48,59,2702570008
75,23,13,Improv_Metronome,526,5,42,127,2702639824
75,23,13,Improv_Metronome,527,1,48,127,2702644652
75,23,13,Improv_Metronome,528,1,48,127,2702774800
75,23,13,Improv_Metronome,529,1,48,92,2702894076
75,23,13,Improv_Metronome,530,1,48,122,2703017424
75,23,13,Improv_Metronome,531,5,42,127,2703140112
75,23,13,Improv_Metronome,532,1,48,127,2703151312
75,23,13,Improv_Metronome,533,1,48,127,2703636924
75,23,13,Improv_Metronome,534,5,42,127,2703639948
75,23,13,Improv_Metronome,535,1,38,127,2703644636
75,23,13,Improv_Metronome,536,1,48,54,2703887408
75,23,13,Improv_Metronome,537,1,48,69,2704021296
75,23,13,Improv_Metronome,538,5,42,127,2704139648
75,23,13,Improv_Metronome,539,1,48,78,2704149948
75,23,13,Improv_Metronome,540,1,48,91,2704264908
75,23,13,Improv_Metronome,541,1,38,21,2704274312
75,23,13,Improv_Metronome,542,1,48,72,2704393568
75,23,13,Improv_Metronome,543,1,48,65,2704506216
75,23,13,Improv_Metronome,544,1,38,127,2704633876
75,23,13,Improv_Metronome,545,5,42,127,2704640416
75,23,13,Improv_Metronome,546,1,48,73,2704753124
75,23,13,Improv_Metronome,547,1,48,59,2704881604
75,23,13,Improv_Metronome,548,1,48,71,2704993880
75,23,13,Improv_Metronome,549,1,48,76,2705135520
75,23,13,Improv_Metronome,550,5,42,127,2705140268
75,23,13,Improv_Metronome,551,1,48,71,2705263896
75,23,13,Improv_Metronome,552,1,48,73,2705377868
75,23,13,Improv_Metronome,553,1,48,75,2705504504
75,23,13,Improv_Metronome,554,1,38,127,2705625504
75,23,13,Improv_Metronome,555,5,42,127,2705639676
75,23,13,Improv_Metronome,556,1,48,73,2705751484
75,23,13,Improv_Metronome,557,1,48,60,2705883408
75,23,13,Improv_Metronome,558,1,48,57,2705989896
75,23,13,Improv_Metronome,559,1,48,127,2706130968
75,23,13,Improv_Metronome,560,5,42,127,2706139452
75,23,13,Improv_Metronome,561,1,48,56,2706243832
75,23,13,Improv_Metronome,562,1,48,46,2706319384
75,23,13,Improv_Metronome,563,1,48,85,2706373816
75,23,13,Improv_Metronome,564,1,48,68,2706490100
75,23,13,Improv_Metronome,565,1,38,127,2706611728
75,23,13,Improv_Metronome,566,5,42,127,2706640332
75,23,13,Improv_Metronome,567,1,48,68,2706747632
75,23,13,Improv_Metronome,568,1,48,55,2706870452
75,23,13,Improv_Metronome,569,1,48,47,2706963552
75,23,13,Improv_Metronome,570,1,48,43,2707039404
75,23,13,Improv_Metronome,571,1,48,107,2707120312
75,23,13,Improv_Metronome,572,5,42,127,2707139940
75,23,13,Improv_Metronome,573,1,48,54,2707241552
75,23,13,Improv_Metronome,574,1,48,66,2707374472
75,23,13,Improv_Metronome,575,1,48,65,2707496224
75,23,13,Improv_Metronome,576,1,38,123,2707627644
75,23,13,Improv_Metronome,577,5,42,127,2707639644
75,23,13,Improv_Metronome,578,1,48,71,2707748660
75,23,13,Improv_Metronome,579,1,48,65,2707875972
75,23,13,Improv_Metronome,580,1,48,51,2707994952
75,23,13,Improv_Metronome,581,1,48,49,2708077160
75,23,13,Improv_Metronome,582,5,42,127,2708140396
75,23,13,Improv_Metronome,583,1,48,87,2708142544
75,23,13,Improv_Metronome,584,1,48,64,2708267716
75,23,13,Improv_Metronome,585,1,48,69,2708399516
75,23,13,Improv_Metronome,586,1,48,70,2708523356
75,23,13,Improv_Metronome,587,5,42,127,2708640084
75,23,13,Improv_Metronome,588,1,38,127,2708648512
75,23,13,Improv_Metronome,589,1,48,70,2708761284
75,23,13,Improv_Metronome,0,1,48,66,2708892484
75,23,13,Improv_Metronome,0,9999,9999,9999,2641137772
75,23,13,Improv_Metronome,1,9999,9999,9999,2641637488
75,23,13,Improv_Metronome,2,9999,9999,9999,2642137204
75,23,13,Improv_Metronome,3,9999,9999,9999,2642637892
75,23,13,Improv_Metronome,4,9999,9999,9999,2643137604
75,23,13,Improv_Metronome,5,9999,9999,9999,2643637300
75,23,13,Improv_Metronome,6,9999,9999,9999,2644138048
75,23,13,Improv_Metronome,7,9999,9999,9999,2644637744
75,23,13,Improv_Metronome,8,9999,9999,9999,2645137460
75,23,13,Improv_Metronome,9,9999,9999,9999,2645637216
75,23,13,Improv_Metronome,10,9999,9999,9999,2646137912
75,23,13,Improv_Metronome,11,9999,9999,9999,2646637668
75,23,13,Improv_Metronome,12,9999,9999,9999,2647137364
75,23,13,Improv_Metronome,13,9999,9999,9999,2647638108
75,23,13,Improv_Metronome,14,9999,9999,9999,2648137836
75,23,13,Improv_Metronome,15,9999,9999,9999,2648637516
75,23,13,Improv_Metronome,16,9999,9999,9999,2649137204
75,23,13,Improv_Metronome,17,9999,9999,9999,2649638000
75,23,13,Improv_Metronome,18,9999,9999,9999,2650137680
75,23,13,Improv_Metronome,19,9999,9999,9999,2650637416
75,23,13,Improv_Metronome,20,9999,9999,9999,2651137100
75,23,13,Improv_Metronome,21,9999,9999,9999,2651637872
75,23,13,Improv_Metronome,22,9999,9999,9999,2652137524
75,23,13,Improv_Metronome,23,9999,9999,9999,2652637272
75,23,13,Improv_Metronome,24,9999,9999,9999,2653138000
75,23,13,Improv_Metronome,25,9999,9999,9999,2653637732
75,23,13,Improv_Metronome,26,9999,9999,9999,2654137400
75,23,13,Improv_Metronome,27,9999,9999,9999,2654637136
75,23,13,Improv_Metronome,28,9999,9999,9999,2655137888
75,23,13,Improv_Metronome,29,9999,9999,9999,2655637616
75,23,13,Improv_Metronome,30,9999,9999,9999,2656137272
75,23,13,Improv_Metronome,31,9999,9999,9999,2656638056
75,23,13,Improv_Metronome,32,9999,9999,9999,2657137716
75,23,13,Improv_Metronome,33,9999,9999,9999,2657637492
75,23,13,Improv_Metronome,34,9999,9999,9999,2658137200
75,23,13,Improv_Metronome,35,9999,9999,9999,2658637924
75,23,13,Improv_Metronome,36,9999,9999,9999,2659137644
75,23,13,Improv_Metronome,37,9999,9999,9999,2659637324
75,23,13,Improv_Metronome,38,9999,9999,9999,2660138072
75,23,13,Improv_Metronome,39,9999,9999,9999,2660637764
75,23,13,Improv_Metronome,40,9999,9999,9999,2661137512
75,23,13,Improv_Metronome,41,9999,9999,9999,2661637200
75,23,13,Improv_Metronome,42,9999,9999,9999,2662137976
75,23,13,Improv_Metronome,43,9999,9999,9999,2662637628
75,23,13,Improv_Metronome,44,9999,9999,9999,2663137376
75,23,13,Improv_Metronome,45,9999,9999,9999,2663638104
75,23,13,Improv_Metronome,46,9999,9999,9999,2664137796
75,23,13,Improv_Metronome,47,9999,9999,9999,2664637492
75,23,13,Improv_Metronome,48,9999,9999,9999,2665137220
75,23,13,Improv_Metronome,49,9999,9999,9999,2665637948
75,23,13,Improv_Metronome,50,9999,9999,9999,2666137696
75,23,13,Improv_Metronome,51,9999,9999,9999,2666637424
75,23,13,Improv_Metronome,52,9999,9999,9999,2667137096
75,23,13,Improv_Metronome,53,9999,9999,9999,2667637864
75,23,13,Improv_Metronome,54,9999,9999,9999,2668137584
75,23,13,Improv_Metronome,55,9999,9999,9999,2668637288
75,23,13,Improv_Metronome,56,9999,9999,9999,2669137988
75,23,13,Improv_Metronome,57,9999,9999,9999,2669637688
75,23,13,Improv_Metronome,58,9999,9999,9999,2670137392
75,23,13,Improv_Metronome,59,9999,9999,9999,2670637172
75,23,13,Improv_Metronome,60,9999,9999,9999,2671137900
75,23,13,Improv_Metronome,61,9999,9999,9999,2671637580
75,23,13,Improv_Metronome,62,9999,9999,9999,2672137324
75,23,13,Improv_Metronome,63,9999,9999,9999,2672638040
75,23,13,Improv_Metronome,64,9999,9999,9999,2673137752
75,23,13,Improv_Metronome,65,9999,9999,9999,2673637492
75,23,13,Improv_Metronome,66,9999,9999,9999,2674137148
75,23,13,Improv_Metronome,67,9999,9999,9999,2674637900
75,23,13,Improv_Metronome,68,9999,9999,9999,2675137652
75,23,13,Improv_Metronome,69,9999,9999,9999,2675637356
75,23,13,Improv_Metronome,70,9999,9999,9999,2676138100
75,23,13,Improv_Metronome,71,9999,9999,9999,2676637776
75,23,13,Improv_Metronome,72,9999,9999,9999,2677137496
75,23,13,Improv_Metronome,73,9999,9999,9999,2677637220
75,23,13,Improv_Metronome,74,9999,9999,9999,2678137972
75,23,13,Improv_Metronome,75,9999,9999,9999,2678637632
75,23,13,Improv_Metronome,76,9999,9999,9999,2679137392
75,23,13,Improv_Metronome,77,9999,9999,9999,2679638064
75,23,13,Improv_Metronome,78,9999,9999,9999,2680137836
75,23,13,Improv_Metronome,79,9999,9999,9999,2680637500
75,23,13,Improv_Metronome,80,9999,9999,9999,2681137256
75,23,13,Improv_Metronome,81,9999,9999,9999,2681637972
75,23,13,Improv_Metronome,82,9999,9999,9999,2682137720
75,23,13,Improv_Metronome,83,9999,9999,9999,2682637428
75,23,13,Improv_Metronome,84,9999,9999,9999,2683137072
75,23,13,Improv_Metronome,85,9999,9999,9999,2683637864
75,23,13,Improv_Metronome,86,9999,9999,9999,2684137536
75,23,13,Improv_Metronome,87,9999,9999,9999,2684637244
75,23,13,Improv_Metronome,88,9999,9999,9999,2685138032
75,23,13,Improv_Metronome,89,9999,9999,9999,2685637736
75,23,13,Improv_Metronome,90,9999,9999,9999,2686137396
75,23,13,Improv_Metronome,91,9999,9999,9999,2686637132
75,23,13,Improv_Metronome,92,9999,9999,9999,2687137912
75,23,13,Improv_Metronome,93,9999,9999,9999,2687637588
75,23,13,Improv_Metronome,94,9999,9999,9999,2688137316
75,23,13,Improv_Metronome,95,9999,9999,9999,2688638032
75,23,13,Improv_Metronome,96,9999,9999,9999,2689137736
75,23,13,Improv_Metronome,97,9999,9999,9999,2689637440
75,23,13,Improv_Metronome,98,9999,9999,9999,2690137144
75,23,13,Improv_Metronome,99,9999,9999,9999,2690637944
75,23,13,Improv_Metronome,100,9999,9999,9999,2691137624
75,23,13,Improv_Metronome,101,9999,9999,9999,2691637300
75,23,13,Improv_Metronome,102,9999,9999,9999,2692138052
75,23,13,Improv_Metronome,103,9999,9999,9999,2692637800
75,23,13,Improv_Metronome,104,9999,9999,9999,2693137528
75,23,13,Improv_Metronome,105,9999,9999,9999,2693637224
75,23,13,Improv_Metronome,106,9999,9999,9999,2694137976
75,23,13,Improv_Metronome,107,9999,9999,9999,2694637684
75,23,13,Improv_Metronome,108,9999,9999,9999,2695137368
75,23,13,Improv_Metronome,109,9999,9999,9999,2695638116
75,23,13,Improv_Metronome,110,9999,9999,9999,2696137844
75,23,13,Improv_Metronome,111,9999,9999,9999,2696637552
75,23,13,Improv_Metronome,112,9999,9999,9999,2697137248
75,23,13,Improv_Metronome,113,9999,9999,9999,2697637964
75,23,13,Improv_Metronome,114,9999,9999,9999,2698137696
75,23,13,Improv_Metronome,115,9999,9999,9999,2698637392
75,23,13,Improv_Metronome,116,9999,9999,9999,2699137132
75,23,13,Improv_Metronome,117,9999,9999,9999,2699637868
75,23,13,Improv_Metronome,118,9999,9999,9999,2700137528
75,23,13,Improv_Metronome,119,9999,9999,9999,2700637232
75,23,13,Improv_Metronome,120,9999,9999,9999,2701138036
75,23,13,Improv_Metronome,121,9999,9999,9999,2701637744
75,23,13,Improv_Metronome,122,9999,9999,9999,2702137404
75,23,13,Improv_Metronome,123,9999,9999,9999,2702637164
75,23,13,Improv_Metronome,124,9999,9999,9999,2703137900
75,23,13,Improv_Metronome,125,9999,9999,9999,2703637588
75,23,13,Improv_Metronome,126,9999,9999,9999,2704137284
75,23,13,Improv_Metronome,127,9999,9999,9999,2704638056
75,23,13,Improv_Metronome,128,9999,9999,9999,2705137760
75,23,13,Improv_Metronome,129,9999,9999,9999,2705637464
75,23,13,Improv_Metronome,130,9999,9999,9999,2706137164
75,23,13,Improv_Metronome,131,9999,9999,9999,2706637896
75,23,13,Improv_Metronome,132,9999,9999,9999,2707137656
75,23,13,Improv_Metronome,133,9999,9999,9999,2707637360
75,23,13,Improv_Metronome,134,9999,9999,9999,2708138036
75,23,13,Improv_Metronome,135,9999,9999,9999,2708637796
75,23,13,Improv_Metronome,136,9999,9999,9999,2711314888
75,23,13,Improv_Metronome,137,9999,9999,9999,2711315084
75,23,13,Improv_Metronome,138,9999,9999,9999,2711315260
75,23,13,Improv_Metronome,139,9999,9999,9999,2711315440
75,24,14,Improv_Melody,0,5,42,127,2757455912
75,24,14,Improv_Melody,1,5,42,110,2757948656
75,24,14,Improv_Melody,2,5,42,110,2758448452
75,24,14,Improv_Melody,3,5,42,110,2758949516
75,24,14,Improv_Melody,4,5,42,127,2759448940
75,24,14,Improv_Melody,5,5,42,110,2759948512
75,24,14,Improv_Melody,6,5,42,110,2760449652
75,24,14,Improv_Melody,7,5,42,110,2760949376
75,24,14,Improv_Melody,8,2,43,80,2761451380
75,24,14,Improv_Melody,9,2,67,80,2761453452
75,24,14,Improv_Melody,10,5,42,127,2761455992
75,24,14,Improv_Melody,11,5,42,110,2761948464
75,24,14,Improv_Melody,12,5,42,110,2762449528
75,24,14,Improv_Melody,13,5,42,110,2762948952
75,24,14,Improv_Melody,14,5,42,127,2763448752
75,24,14,Improv_Melody,15,5,42,110,2763949444
75,24,14,Improv_Melody,16,5,42,110,2764449388
75,24,14,Improv_Melody,17,1,48,47,2764670940
75,24,14,Improv_Melody,18,1,48,57,2764781544
75,24,14,Improv_Melody,19,1,48,127,2764930252
75,24,14,Improv_Melody,20,5,42,110,2764948836
75,24,14,Improv_Melody,21,2,45,80,2765451428
75,24,14,Improv_Melody,22,2,69,80,2765453272
75,24,14,Improv_Melody,23,5,42,127,2765455812
75,24,14,Improv_Melody,24,5,42,110,2765949476
75,24,14,Improv_Melody,25,1,38,46,2766175516
75,24,14,Improv_Melody,26,1,38,59,2766222468
75,24,14,Improv_Melody,27,1,38,70,2766437136
75,24,14,Improv_Melody,28,5,42,110,2766448996
75,24,14,Improv_Melody,29,1,38,103,2766457116
75,24,14,Improv_Melody,30,5,42,110,2766948608
75,24,14,Improv_Melody,31,1,48,54,2767164072
75,24,14,Improv_Melody,32,1,48,84,2767202296
75,24,14,Improv_Melody,33,5,42,127,2767448360
75,24,14,Improv_Melody,34,1,48,82,2767686340
75,24,14,Improv_Melody,35,1,48,46,2767942228
75,24,14,Improv_Melody,36,5,42,110,2767949544
75,24,14,Improv_Melody,37,1,48,45,2768001644
75,24,14,Improv_Melody,38,1,48,60,2768059216
75,24,14,Improv_Melody,39,1,48,47,2768130024
75,24,14,Improv_Melody,40,1,48,84,2768166804
75,24,14,Improv_Melody,41,1,38,127,2768408252
75,24,14,Improv_Melody,42,5,42,110,2768448984
75,24,14,Improv_Melody,43,1,48,127,2768645464
75,24,14,Improv_Melody,44,1,48,127,2768908532
75,24,14,Improv_Melody,45,1,38,26,2768917936
75,24,14,Improv_Melody,46,5,42,110,2768948644
75,24,14,Improv_Melody,47,1,48,127,2769436528
75,24,14,Improv_Melody,48,2,41,80,2769451788
75,24,14,Improv_Melody,49,2,65,80,2769454016
75,24,14,Improv_Melody,50,5,42,127,2769456556
75,24,14,Improv_Melody,51,5,42,110,2769949080
75,24,14,Improv_Melody,52,1,38,71,2770161432
75,24,14,Improv_Melody,53,1,38,95,2770196496
75,24,14,Improv_Melody,54,5,42,110,2770448684
75,24,14,Improv_Melody,55,1,48,62,2770904824
75,24,14,Improv_Melody,56,1,38,16,2770914828
75,24,14,Improv_Melody,57,1,38,37,2770922888
75,24,14,Improv_Melody,58,5,42,110,2770948580
75,24,14,Improv_Melody,59,1,48,66,2771137332
75,24,14,Improv_Melody,60,1,38,39,2771149504
75,24,14,Improv_Melody,61,1,48,40,2771394512
75,24,14,Improv_Melody,62,5,42,127,2771449084
75,24,14,Improv_Melody,63,1,48,67,2771640628
75,24,14,Improv_Melody,64,1,38,71,2771643224
75,24,14,Improv_Melody,65,1,48,45,2771913664
75,24,14,Improv_Melody,66,5,42,110,2771949012
75,24,14,Improv_Melody,67,1,38,16,2772163596
75,24,14,Improv_Melody,68,1,48,69,2772172104
75,24,14,Improv_Melody,69,1,48,106,2772421828
75,24,14,Improv_Melody,70,5,42,110,2772448568
75,24,14,Improv_Melody,71,1,48,43,2772651332
75,24,14,Improv_Melody,72,1,48,37,2772707032
75,24,14,Improv_Melody,73,1,48,78,2772763408
75,24,14,Improv_Melody,74,1,48,59,2772823548
75,24,14,Improv_Melody,75,1,48,81,2772893768
75,24,14,Improv_Melody,76,5,42,110,2772949228
75,24,14,Improv_Melody,77,1,38,127,2773019200
75,24,14,Improv_Melody,78,1,48,127,2773409148
75,24,14,Improv_Melody,79,2,48,80,2773451556
75,24,14,Improv_Melody,80,2,72,80,2773453864
75,24,14,Improv_Melody,81,5,42,127,2773456396
75,24,14,Improv_Melody,82,1,38,125,2773944688
75,24,14,Improv_Melody,83,5,42,110,2773948844
75,24,14,Improv_Melody,84,1,48,82,2773954504
75,24,14,Improv_Melody,85,1,48,56,2774202736
75,24,14,Improv_Melody,86,1,48,44,2774299876
75,24,14,Improv_Melody,87,1,48,94,2774424040
75,24,14,Improv_Melody,88,5,42,110,2774448392
75,24,14,Improv_Melody,89,1,38,106,2774929728
75,24,14,Improv_Melody,90,5,42,110,2774949212
75,24,14,Improv_Melody,91,5,42,127,2775449144
75,24,14,Improv_Melody,92,1,38,45,2775703084
75,24,14,Improv_Melody,93,1,38,40,2775752432
75,24,14,Improv_Melody,94,1,38,60,2775802152
75,24,14,Improv_Melody,95,1,38,49,2775874232
75,24,14,Improv_Melody,96,1,38,91,2775938492
75,24,14,Improv_Melody,97,5,42,110,2775948924
75,24,14,Improv_Melody,98,1,38,126,2776063552
75,24,14,Improv_Melody,99,1,48,40,2776188916
75,24,14,Improv_Melody,100,1,48,50,2776298176
75,24,14,Improv_Melody,101,1,48,110,2776437352
75,24,14,Improv_Melody,102,5,42,110,2776449288
75,24,14,Improv_Melody,103,1,48,127,2776556056
75,24,14,Improv_Melody,104,1,48,55,2776691144
75,24,14,Improv_Melody,105,1,48,127,2776919952
75,24,14,Improv_Melody,106,1,38,127,2776938408
75,24,14,Improv_Melody,107,5,42,110,2776948996
75,24,14,Improv_Melody,108,1,48,65,2777186284
75,24,14,Improv_Melody,109,1,48,127,2777430656
75,24,14,Improv_Melody,110,2,43,80,2777451452
75,24,14,Improv_Melody,111,2,67,80,2777453452
75,24,14,Improv_Melody,112,5,42,127,2777456216
75,24,14,Improv_Melody,113,5,42,110,2777948444
75,24,14,Improv_Melody,114,1,48,99,2777949412
75,24,14,Improv_Melody,115,1,38,127,2777955896
75,24,14,Improv_Melody,116,5,42,110,2778449232
75,24,14,Improv_Melody,117,1,38,70,2778702052
75,24,14,Improv_Melody,118,1,38,115,2778813028
75,24,14,Improv_Melody,119,5,42,110,2778949108
75,24,14,Improv_Melody,120,5,42,127,2779448608
75,24,14,Improv_Melody,121,1,38,116,2779690876
75,24,14,Improv_Melody,122,1,38,98,2779798816
75,24,14,Improv_Melody,123,5,42,110,2779949332
75,24,14,Improv_Melody,124,1,48,121,2780184648
75,24,14,Improv_Melody,125,1,48,90,2780305748
75,24,14,Improv_Melody,126,5,42,110,2780449084
75,24,14,Improv_Melody,127,1,38,127,2780691508
75,24,14,Improv_Melody,128,1,38,127,2780948104
75,24,14,Improv_Melody,129,5,42,110,2780950496
75,24,14,Improv_Melody,130,1,48,127,2781186324
75,24,14,Improv_Melody,131,1,48,127,2781446592
75,24,14,Improv_Melody,132,2,45,80,2781450956
75,24,14,Improv_Melody,133,2,69,80,2781453036
75,24,14,Improv_Melody,134,5,42,127,2781455800
75,24,14,Improv_Melody,135,5,42,110,2781949224
75,24,14,Improv_Melody,136,1,48,127,2781953392
75,24,14,Improv_Melody,137,1,38,127,2781963016
75,24,14,Improv_Melody,138,5,42,110,2782449024
75,24,14,Improv_Melody,139,1,48,62,2782452744
75,24,14,Improv_Melody,140,1,38,125,2782694716
75,24,14,Improv_Melody,141,1,48,64,2782935792
75,24,14,Improv_Melody,142,5,42,110,2782948696
75,24,14,Improv_Melody,143,1,38,111,2783191256
75,24,14,Improv_Melody,144,1,48,65,2783435764
75,24,14,Improv_Melody,145,1,38,127,2783438968
75,24,14,Improv_Melody,146,5,42,127,2783448504
75,24,14,Improv_Melody,147,1,38,127,2783807416
75,24,14,Improv_Melody,148,1,48,70,2783935700
75,24,14,Improv_Melody,149,5,42,110,2783949128
75,24,14,Improv_Melody,150,1,38,124,2784191612
75,24,14,Improv_Melody,151,1,48,127,2784432008
75,24,14,Improv_Melody,152,1,38,23,2784443132
75,24,14,Improv_Melody,153,5,42,110,2784448932
75,24,14,Improv_Melody,154,1,38,61,2784701408
75,24,14,Improv_Melody,155,1,38,70,2784818672
75,24,14,Improv_Melody,156,1,38,105,2784943812
75,24,14,Improv_Melody,157,5,42,110,2784948640
75,24,14,Improv_Melody,158,1,38,73,2785069252
75,24,14,Improv_Melody,159,1,38,65,2785188036
75,24,14,Improv_Melody,160,1,38,74,2785331772
75,24,14,Improv_Melody,161,1,48,127,2785432828
75,24,14,Improv_Melody,162,1,38,95,2785440960
75,24,14,Improv_Melody,163,2,41,80,2785451800
75,24,14,Improv_Melody,164,2,65,80,2785453956
75,24,14,Improv_Melody,165,5,42,127,2785456792
75,24,14,Improv_Melody,166,1,38,127,2785794912
75,24,14,Improv_Melody,167,1,48,111,2785798108
75,24,14,Improv_Melody,168,5,42,110,2785948996
75,24,14,Improv_Melody,169,1,38,127,2786160152
75,24,14,Improv_Melody,170,1,48,74,2786163348
75,24,14,Improv_Melody,171,1,38,81,2786438052
75,24,14,Improv_Melody,172,5,42,110,2786448792
75,24,14,Improv_Melody,173,1,48,127,2786453632
75,24,14,Improv_Melody,174,1,48,57,2786680992
75,24,14,Improv_Melody,175,1,48,50,2786736320
75,24,14,Improv_Melody,176,1,48,79,2786782144
75,24,14,Improv_Melody,177,1,48,69,2786834636
75,24,14,Improv_Melody,178,1,48,43,2786877244
75,24,14,Improv_Melody,179,1,48,127,2786907172
75,24,14,Improv_Melody,180,5,42,110,2786948420
75,24,14,Improv_Melody,181,1,38,127,2787037988
75,24,14,Improv_Melody,182,1,48,24,2787047696
75,24,14,Improv_Melody,183,1,38,127,2787399980
75,24,14,Improv_Melody,184,1,48,127,2787409644
75,24,14,Improv_Melody,185,5,42,127,2787449180
75,24,14,Improv_Melody,186,1,38,127,2787774732
75,24,14,Improv_Melody,187,1,48,119,2787781588
75,24,14,Improv_Melody,188,5,42,110,2787948788
75,24,14,Improv_Melody,189,1,38,127,2788115936
75,24,14,Improv_Melody,190,1,48,122,2788129232
75,24,14,Improv_Melody,191,1,38,127,2788409772
75,24,14,Improv_Melody,192,1,48,127,2788417980
75,24,14,Improv_Melody,193,5,42,110,2788448560
75,24,14,Improv_Melody,194,1,48,59,2788660400
75,24,14,Improv_Melody,195,1,48,57,2788716728
75,24,14,Improv_Melody,196,1,48,65,2788771676
75,24,14,Improv_Melody,197,1,48,59,2788832092
75,24,14,Improv_Melody,198,1,48,127,2788893552
75,24,14,Improv_Melody,199,5,42,110,2788949344
75,24,14,Improv_Melody,200,1,38,127,2789022680
75,24,14,Improv_Melody,201,1,48,127,2789408344
75,24,14,Improv_Melody,202,2,48,80,2789451920
75,24,14,Improv_Melody,203,2,72,80,2789453920
75,24,14,Improv_Melody,204,5,42,127,2789456380
75,24,14,Improv_Melody,205,1,48,40,2789713300
75,24,14,Improv_Melody,206,5,42,110,2789948860
75,24,14,Improv_Melody,207,1,38,127,2789966660
75,24,14,Improv_Melody,208,1,48,126,2789969856
75,24,14,Improv_Melody,209,1,48,55,2790234916
75,24,14,Improv_Melody,210,5,42,110,2790448564
75,24,14,Improv_Melody,211,1,48,119,2790470160
75,24,14,Improv_Melody,212,1,48,48,2790711980
75,24,14,Improv_Melody,213,5,42,110,2790949212
75,24,14,Improv_Melody,214,1,38,119,2790955476
75,24,14,Improv_Melody,215,1,48,127,2790959792
75,24,14,Improv_Melody,216,1,48,47,2791191192
75,24,14,Improv_Melody,217,1,48,44,2791253352
75,24,14,Improv_Melody,218,1,48,53,2791310476
75,24,14,Improv_Melody,219,1,48,34,2791377696
75,24,14,Improv_Melody,220,1,48,109,2791442296
75,24,14,Improv_Melody,221,5,42,127,2791448848
75,24,14,Improv_Melody,222,1,38,96,2791575240
75,24,14,Improv_Melody,223,1,48,63,2791675892
75,24,14,Improv_Melody,224,1,48,62,2791804552
75,24,14,Improv_Melody,225,1,38,127,2791942832
75,24,14,Improv_Melody,226,5,42,110,2791948780
75,24,14,Improv_Melody,227,1,48,54,2792081908
75,24,14,Improv_Melody,228,1,48,53,2792220792
75,24,14,Improv_Melody,229,1,48,58,2792301124
75,24,14,Improv_Melody,230,1,48,65,2792432672
75,24,14,Improv_Melody,231,5,42,110,2792449760
75,24,14,Improv_Melody,232,1,48,93,2792555812
75,24,14,Improv_Melody,233,1,48,62,2792675692
75,24,14,Improv_Melody,234,1,48,69,2792796940
75,24,14,Improv_Melody,235,1,38,127,2792928640
75,24,14,Improv_Melody,236,5,42,110,2792949024
75,24,14,Improv_Melody,237,1,48,65,2793039812
75,24,14,Improv_Melody,238,1,48,58,2793155132
75,24,14,Improv_Melody,239,1,48,56,2793292840
75,24,14,Improv_Melody,240,1,48,57,2793385264
75,24,14,Improv_Melody,241,2,43,80,2793451236
75,24,14,Improv_Melody,242,2,67,80,2793453460
75,24,14,Improv_Melody,243,1,48,91,2793455988
75,24,14,Improv_Melody,244,5,42,127,2793458076
75,24,14,Improv_Melody,245,1,48,44,2793718656
75,24,14,Improv_Melody,246,5,42,110,2793948780
75,24,14,Improv_Melody,247,1,48,119,2793956088
75,24,14,Improv_Melody,248,1,38,126,2793968412
75,24,14,Improv_Melody,249,1,48,48,2794199156
75,24,14,Improv_Melody,250,1,48,47,2794265780
75,24,14,Improv_Melody,251,1,48,55,2794323224
75,24,14,Improv_Melody,252,1,48,52,2794392460
75,24,14,Improv_Melody,253,5,42,110,2794449200
75,24,14,Improv_Melody,254,1,48,96,2794466212
75,24,14,Improv_Melody,255,1,48,72,2794703772
75,24,14,Improv_Melody,256,1,38,116,2794929968
75,24,14,Improv_Melody,257,5,42,110,2794948932
75,24,14,Improv_Melody,258,1,48,51,2795170996
75,24,14,Improv_Melody,259,1,38,40,2795288180
75,24,14,Improv_Melody,260,1,38,68,2795413992
75,24,14,Improv_Melody,261,5,42,127,2795448812
75,24,14,Improv_Melody,262,1,38,51,2795534788
75,24,14,Improv_Melody,263,1,38,94,2795645564
75,24,14,Improv_Melody,264,1,38,66,2795766796
75,24,14,Improv_Melody,265,1,38,58,2795832520
75,24,14,Improv_Melody,266,1,38,76,2795909264
75,24,14,Improv_Melody,267,5,42,110,2795949396
75,24,14,Improv_Melody,268,1,38,127,2796026768
75,24,14,Improv_Melody,269,1,38,56,2796139492
75,24,14,Improv_Melody,270,1,38,52,2796202824
75,24,14,Improv_Melody,271,1,38,77,2796273864
75,24,14,Improv_Melody,272,1,38,71,2796336068
75,24,14,Improv_Melody,273,1,38,127,2796386564
75,24,14,Improv_Melody,274,5,42,110,2796449056
75,24,14,Improv_Melody,275,1,38,100,2796514988
75,24,14,Improv_Melody,276,1,48,51,2796615640
75,24,14,Improv_Melody,277,1,48,53,2796682668
75,24,14,Improv_Melody,278,1,48,65,2796754004
75,24,14,Improv_Melody,279,1,48,57,2796809852
75,24,14,Improv_Melody,280,1,48,127,2796890492
75,24,14,Improv_Melody,281,5,42,110,2796948796
75,24,14,Improv_Melody,282,1,48,118,2797016080
75,24,14,Improv_Melody,283,1,48,59,2797129072
75,24,14,Improv_Melody,284,1,48,51,2797200032
75,24,14,Improv_Melody,285,1,38,69,2797269204
75,24,14,Improv_Melody,286,1,38,51,2797337144
75,24,14,Improv_Melody,287,1,38,30,2797396608
75,24,14,Improv_Melody,288,1,48,75,2797406392
75,24,14,Improv_Melody,289,2,45,80,2797451348
75,24,14,Improv_Melody,290,2,69,80,2797453720
75,24,14,Improv_Melody,291,5,42,127,2797456104
75,24,14,Improv_Melody,292,1,48,54,2797656528
75,24,14,Improv_Melody,293,1,48,127,2797933056
75,24,14,Improv_Melody,294,1,38,124,2797945748
75,24,14,Improv_Melody,295,5,42,110,2797949232
75,24,14,Improv_Melody,296,1,48,58,2798183608
75,24,14,Improv_Melody,297,1,48,51,2798259508
75,24,14,Improv_Melody,298,1,38,52,2798313336
75,24,14,Improv_Melody,299,1,38,41,2798384792
75,24,14,Improv_Melody,300,5,42,110,2798448888
75,24,14,Improv_Melody,301,1,48,84,2798462552
75,24,14,Improv_Melody,302,1,48,95,2798709508
75,24,14,Improv_Melody,303,5,42,110,2798948760
75,24,14,Improv_Melody,304,1,38,127,2798964820
75,24,14,Improv_Melody,305,1,48,48,2799219652
75,24,14,Improv_Melody,306,5,42,127,2799448588
75,24,14,Improv_Melody,307,1,48,127,2799696692
75,24,14,Improv_Melody,308,1,38,83,2799699888
75,24,14,Improv_Melody,309,5,42,110,2799949136
75,24,14,Improv_Melody,310,1,38,101,2800198940
75,24,14,Improv_Melody,311,1,48,107,2800207036
75,24,14,Improv_Melody,312,1,48,127,2800443192
75,24,14,Improv_Melody,313,5,42,110,2800448844
75,24,14,Improv_Melody,314,1,38,119,2800450332
75,24,14,Improv_Melody,315,1,48,51,2800684260
75,24,14,Improv_Melody,316,1,48,46,2800754420
75,24,14,Improv_Melody,317,1,48,59,2800819400
75,24,14,Improv_Melody,318,1,48,54,2800877944
75,24,14,Improv_Melody,319,1,48,115,2800942020
75,24,14,Improv_Melody,320,5,42,110,2800948720
75,24,14,Improv_Melody,321,1,38,127,2801064120
75,24,14,Improv_Melody,322,1,38,127,2801416720
75,24,14,Improv_Melody,323,2,41,80,2801451796
75,24,14,Improv_Melody,324,2,65,80,2801454180
75,24,14,Improv_Melody,325,5,42,127,2801456712
75,24,14,Improv_Melody,326,5,42,110,2801949016
75,24,14,Improv_Melody,327,1,38,127,2801952284
75,24,14,Improv_Melody,328,1,48,127,2801956528
75,24,14,Improv_Melody,329,1,48,46,2802185236
75,24,14,Improv_Melody,330,1,48,39,2802256368
75,24,14,Improv_Melody,331,1,48,73,2802321944
75,24,14,Improv_Melody,332,1,48,51,2802389388
75,24,14,Improv_Melody,333,1,48,127,2802437084
75,24,14,Improv_Melody,334,5,42,110,2802448724
75,24,14,Improv_Melody,335,1,38,127,2802687984
75,24,14,Improv_Melody,336,1,48,66,2802940960
75,24,14,Improv_Melody,337,5,42,110,2802948624
75,24,14,Improv_Melody,338,1,48,127,2803428988
75,24,14,Improv_Melody,339,1,38,76,2803443780
75,24,14,Improv_Melody,340,5,42,127,2803449204
75,24,14,Improv_Melody,341,1,48,53,2803666012
75,24,14,Improv_Melody,342,1,48,43,2803732112
75,24,14,Improv_Melody,343,1,48,66,2803784448
75,24,14,Improv_Melody,344,1,48,56,2803846236
75,24,14,Improv_Melody,345,1,48,107,2803911740
75,24,14,Improv_Melody,346,5,42,110,2803949024
75,24,14,Improv_Melody,347,1,48,127,2804045272
75,24,14,Improv_Melody,348,1,48,57,2804161940
75,24,14,Improv_Melody,349,1,48,127,2804411312
75,24,14,Improv_Melody,350,5,42,110,2804448604
75,24,14,Improv_Melody,351,1,38,127,2804537432
75,24,14,Improv_Melody,352,1,38,58,2804667580
75,24,14,Improv_Melody,353,1,38,53,2804725744
75,24,14,Improv_Melody,354,1,38,67,2804795884
75,24,14,Improv_Melody,355,1,38,62,2804861636
75,24,14,Improv_Melody,356,1,38,127,2804916816
75,24,14,Improv_Melody,357,5,42,110,2804949540
75,24,14,Improv_Melody,358,1,38,127,2805042100
75,24,14,Improv_Melody,359,1,48,103,2805165600
75,24,14,Improv_Melody,360,1,48,100,2805293260
75,24,14,Improv_Melody,361,1,38,20,2805303256
75,24,14,Improv_Melody,362,1,48,127,2805419176
75,24,14,Improv_Melody,363,2,48,80,2805451792
75,24,14,Improv_Melody,364,2,72,80,2805454012
75,24,14,Improv_Melody,365,5,42,127,2805456620
75,24,14,Improv_Melody,366,1,38,86,2805943644
75,24,14,Improv_Melody,367,1,48,116,2805947316
75,24,14,Improv_Melody,368,5,42,110,2805949420
75,24,14,Improv_Melody,369,1,48,54,2806211848
75,24,14,Improv_Melody,370,1,48,97,2806447124
75,24,14,Improv_Melody,371,5,42,110,2806448848
75,24,14,Improv_Melody,372,1,48,52,2806722516
75,24,14,Improv_Melody,373,5,42,110,2806949204
75,24,14,Improv_Melody,374,1,38,103,2806963840
75,24,14,Improv_Melody,375,1,48,105,2806967112
75,24,14,Improv_Melody,376,1,48,51,2807222220
75,24,14,Improv_Melody,377,1,48,62,2807346816
75,24,14,Improv_Melody,378,5,42,127,2807448964
75,24,14,Improv_Melody,379,1,48,111,2807462852
75,24,14,Improv_Melody,380,1,48,105,2807583104
75,24,14,Improv_Melody,381,1,48,68,2807706148
75,24,14,Improv_Melody,382,1,48,71,2807830364
75,24,14,Improv_Melody,383,1,38,123,2807938000
75,24,14,Improv_Melody,384,5,42,110,2807948588
75,24,14,Improv_Melody,385,1,48,73,2808068304
75,24,14,Improv_Melody,386,1,48,66,2808187532
75,24,14,Improv_Melody,387,1,48,67,2808303444
75,24,14,Improv_Melody,388,1,48,87,2808438308
75,24,14,Improv_Melody,389,5,42,110,2808449344
75,24,14,Improv_Melody,390,1,48,57,2808555144
75,24,14,Improv_Melody,391,1,48,78,2808689484
75,24,14,Improv_Melody,392,1,48,75,2808816616
75,24,14,Improv_Melody,393,1,38,127,2808931364
75,24,14,Improv_Melody,394,5,42,110,2808949128
75,24,14,Improv_Melody,395,1,48,76,2809052464
75,24,14,Improv_Melody,396,1,48,65,2809179772
75,24,14,Improv_Melody,397,1,38,54,2809283192
75,24,14,Improv_Melody,398,1,38,54,2809362008
75,24,14,Improv_Melody,399,1,38,100,2809438004
75,24,14,Improv_Melody,400,2,43,80,2809451468
75,24,14,Improv_Melody,401,2,67,80,2809453544
75,24,14,Improv_Melody,402,5,42,127,2809456084
75,24,14,Improv_Melody,403,1,38,103,2809700136
75,24,14,Improv_Melody,404,5,42,110,2809948516
75,24,14,Improv_Melody,405,1,38,99,2810166828
75,24,14,Improv_Melody,406,1,38,89,2810202580
75,24,14,Improv_Melody,407,1,38,16,2810379384
75,24,14,Improv_Melody,408,5,42,110,2810449456
75,24,14,Improv_Melody,409,1,38,73,2810666556
75,24,14,Improv_Melody,410,1,38,119,2810684712
75,24,14,Improv_Melody,411,1,48,24,2810693216
75,24,14,Improv_Melody,412,5,42,110,2810948972
75,24,14,Improv_Melody,413,1,38,86,2811161472
75,24,14,Improv_Melody,414,1,38,98,2811203040
75,24,14,Improv_Melody,415,1,38,51,2811422348
75,24,14,Improv_Melody,416,1,38,99,2811448628
75,24,14,Improv_Melody,417,5,42,127,2811451540
75,24,14,Improv_Melody,418,1,48,19,2811460416
75,24,14,Improv_Melody,419,1,38,44,2811700496
75,24,14,Improv_Melody,420,1,38,112,2811844932
75,24,14,Improv_Melody,421,5,42,110,2811949376
75,24,14,Improv_Melody,422,1,38,40,2811955560
75,24,14,Improv_Melody,423,1,38,46,2812070524
75,24,14,Improv_Melody,424,1,38,103,2812195044
75,24,14,Improv_Melody,425,1,38,51,2812315844
75,24,14,Improv_Melody,426,1,38,54,2812448328
75,24,14,Improv_Melody,427,5,42,110,2812451020
75,24,14,Improv_Melody,428,1,38,50,2812505460
75,24,14,Improv_Melody,429,1,38,59,2812558096
75,24,14,Improv_Melody,430,1,38,59,2812625392
75,24,14,Improv_Melody,431,1,38,111,2812682812
75,24,14,Improv_Melody,432,1,38,119,2812806756
75,24,14,Improv_Melody,433,1,48,55,2812907788
75,24,14,Improv_Melody,434,5,42,110,2812948816
75,24,14,Improv_Melody,435,1,48,49,2812969868
75,24,14,Improv_Melody,436,1,48,59,2813044516
75,24,14,Improv_Melody,437,1,48,55,2813105532
75,24,14,Improv_Melody,438,1,48,127,2813170212
75,24,14,Improv_Melody,439,1,48,127,2813296700
75,24,14,Improv_Melody,440,2,45,80,2813450988
75,24,14,Improv_Melody,441,2,69,80,2813453288
75,24,14,Improv_Melody,442,5,42,127,2813455900
75,24,14,Improv_Melody,443,1,48,97,2813927904
75,24,14,Improv_Melody,444,1,38,122,2813937984
75,24,14,Improv_Melody,445,5,42,110,2813949240
75,24,14,Improv_Melody,446,1,48,29,2813987128
75,24,14,Improv_Melody,447,1,48,71,2814186060
75,24,14,Improv_Melody,448,1,38,73,2814293772
75,24,14,Improv_Melody,449,1,48,97,2814423000
75,24,14,Improv_Melody,450,5,42,110,2814449072
75,24,14,Improv_Melody,451,1,38,127,2814663204
75,24,14,Improv_Melody,452,1,48,58,2814921408
75,24,14,Improv_Melody,453,5,42,110,2814948600
75,24,14,Improv_Melody,454,1,38,46,2815033532
75,24,14,Improv_Melody,455,1,48,64,2815173032
75,24,14,Improv_Melody,456,1,38,58,2815285656
75,24,14,Improv_Melody,457,1,48,78,2815416408
75,24,14,Improv_Melody,458,5,42,127,2815448308
75,24,14,Improv_Melody,459,1,48,59,2815544308
75,24,14,Improv_Melody,460,1,38,51,2815674536
75,24,14,Improv_Melody,461,1,38,56,2815788656
75,24,14,Improv_Melody,462,1,38,88,2815910504
75,24,14,Improv_Melody,463,5,42,110,2815949288
75,24,14,Improv_Melody,464,1,38,112,2816045440
75,24,14,Improv_Melody,465,1,48,23,2816054768
75,24,14,Improv_Melody,466,1,38,53,2816167612
75,24,14,Improv_Melody,467,1,38,64,2816285024
75,24,14,Improv_Melody,468,1,38,48,2816418168
75,24,14,Improv_Melody,469,5,42,110,2816448876
75,24,14,Improv_Melody,470,1,38,56,2816536420
75,24,14,Improv_Melody,471,1,38,104,2816645928
75,24,14,Improv_Melody,472,1,38,127,2816784956
75,24,14,Improv_Melody,473,1,48,67,2816926548
75,24,14,Improv_Melody,474,5,42,110,2816948656
75,24,14,Improv_Melody,475,1,48,55,2817047204
75,24,14,Improv_Melody,476,1,48,73,2817179000
75,24,14,Improv_Melody,477,1,48,92,2817298052
75,24,14,Improv_Melody,478,1,48,127,2817439052
75,24,14,Improv_Melody,479,2,41,80,2817451764
75,24,14,Improv_Melody,480,2,65,80,2817453992
75,24,14,Improv_Melody,481,5,42,127,2817456532
75,24,14,Improv_Melody,482,5,42,110,2817948984
75,24,14,Improv_Melody,483,1,38,127,2817972448
75,24,14,Improv_Melody,484,1,48,127,2817983268
75,24,14,Improv_Melody,485,1,48,49,2818201660
75,24,14,Improv_Melody,486,1,48,48,2818260796
75,24,14,Improv_Melody,487,1,48,59,2818327196
75,24,14,Improv_Melody,488,1,48,49,2818393324
75,24,14,Improv_Melody,489,5,42,110,2818448712
75,24,14,Improv_Melody,490,1,48,127,2818457572
75,24,14,Improv_Melody,491,1,48,127,2818707104
75,24,14,Improv_Melody,492,5,42,110,2818948600
75,24,14,Improv_Melody,493,1,38,127,2819197304
75,24,14,Improv_Melody,494,1,48,54,2819220920
75,24,14,Improv_Melody,495,5,42,127,2819449448
75,24,14,Improv_Melody,496,1,48,105,2819707800
75,24,14,Improv_Melody,497,1,48,95,2819719228
75,24,14,Improv_Melody,498,5,42,110,2819949200
75,24,14,Improv_Melody,499,1,48,127,2819966084
75,24,14,Improv_Melody,500,1,38,54,2820218304
75,24,14,Improv_Melody,501,1,38,32,2820272584
75,24,14,Improv_Melody,502,1,38,63,2820327092
75,24,14,Improv_Melody,503,1,38,50,2820395880
75,24,14,Improv_Melody,504,5,42,110,2820448756
75,24,14,Improv_Melody,505,1,38,107,2820451200
75,24,14,Improv_Melody,506,1,38,127,2820576304
75,24,14,Improv_Melody,507,1,48,60,2820693880
75,24,14,Improv_Melody,508,1,48,60,2820760060
75,24,14,Improv_Melody,509,1,48,57,2820830424
75,24,14,Improv_Melody,510,1,48,57,2820891508
75,24,14,Improv_Melody,511,5,42,110,2820949316
75,24,14,Improv_Melody,512,1,48,127,2820962892
75,24,14,Improv_Melody,513,1,48,127,2821087784
75,24,14,Improv_Melody,514,2,48,80,2821451556
75,24,14,Improv_Melody,515,2,72,80,2821453864
75,24,14,Improv_Melody,516,5,42,127,2821456544
75,24,14,Improv_Melody,517,1,48,104,2821464156
75,24,14,Improv_Melody,518,5,42,110,2821948744
75,24,14,Improv_Melody,519,1,48,99,2821951412
75,24,14,Improv_Melody,520,1,48,45,2822219736
75,24,14,Improv_Melody,521,5,42,110,2822448420
75,24,14,Improv_Melody,522,1,48,67,2822465524
75,24,14,Improv_Melody,523,1,48,28,2822725152
75,24,14,Improv_Melody,524,1,48,42,2822944984
75,24,14,Improv_Melody,525,5,42,110,2822949288
75,24,14,Improv_Melody,526,1,48,31,2823188328
75,24,14,Improv_Melody,527,1,48,55,2823398664
75,24,14,Improv_Melody,528,1,48,95,2823443596
75,24,14,Improv_Melody,529,5,42,127,2823449168
75,24,14,Improv_Melody,530,1,48,40,2823576460
75,24,14,Improv_Melody,531,1,48,50,2823772736
75,24,14,Improv_Melody,532,1,48,85,2823929640
75,24,14,Improv_Melody,533,5,42,110,2823948752
75,24,14,Improv_Melody,534,1,48,36,2824084048
75,24,14,Improv_Melody,535,1,48,52,2824255540
75,24,14,Improv_Melody,536,1,48,52,2824410524
75,24,14,Improv_Melody,537,5,42,110,2824449384
75,24,14,Improv_Melody,538,1,48,90,2824459888
75,24,14,Improv_Melody,539,1,48,124,2824806532
75,24,14,Improv_Melody,540,5,42,110,2824949344
75,24,14,Improv_Melody,541,1,48,60,2824951712
75,24,14,Improv_Melody,542,1,38,100,2825182468
75,24,14,Improv_Melody,543,2,43,80,2825451380
75,24,14,Improv_Melody,544,2,67,80,2825453904
75,24,14,Improv_Melody,545,5,42,127,2825456288
75,24,14,Improv_Melody,546,1,48,43,2825897328
75,24,14,Improv_Melody,547,1,48,62,2825946548
75,24,14,Improv_Melody,548,5,42,110,2825948580
75,24,14,Improv_Melody,549,1,48,37,2826088740
75,24,14,Improv_Melody,550,1,48,62,2826124620
75,24,14,Improv_Melody,551,1,48,47,2826244720
75,24,14,Improv_Melody,552,1,48,69,2826292424
75,24,14,Improv_Melody,553,1,48,56,2826404616
75,24,14,Improv_Melody,554,1,48,92,2826448020
75,24,14,Improv_Melody,555,5,42,110,2826449368
75,24,14,Improv_Melody,556,1,48,45,2826872508
75,24,14,Improv_Melody,557,1,48,71,2826913772
75,24,14,Improv_Melody,558,5,42,110,2826949196
75,24,14,Improv_Melody,559,1,48,40,2827032032
75,24,14,Improv_Melody,560,1,48,63,2827072472
75,24,14,Improv_Melody,561,1,48,40,2827209656
75,24,14,Improv_Melody,562,1,48,63,2827222280
75,24,14,Improv_Melody,563,1,48,33,2827377560
75,24,14,Improv_Melody,564,1,48,76,2827407460
75,24,14,Improv_Melody,565,5,42,127,2827448560
75,24,14,Improv_Melody,566,1,48,29,2827610560
75,24,14,Improv_Melody,567,1,48,76,2827850512
75,24,14,Improv_Melody,568,5,42,110,2827949420
75,24,14,Improv_Melody,569,1,48,29,2828016340
75,24,14,Improv_Melody,570,1,48,23,2828092616
75,24,14,Improv_Melody,571,1,48,50,2828179760
75,24,14,Improv_Melody,572,1,48,67,2828365184
75,24,14,Improv_Melody,573,5,42,110,2828449292
75,24,14,Improv_Melody,574,1,48,49,2828524952
75,24,14,Improv_Melody,575,1,48,46,2828602340
75,24,14,Improv_Melody,576,1,48,51,2828677224
75,24,14,Improv_Melody,577,1,48,49,2828759180
75,24,14,Improv_Melody,578,1,48,79,2828845472
75,24,14,Improv_Melody,579,5,42,110,2828949040
75,24,14,Improv_Melody,580,1,48,127,2829018880
75,24,14,Improv_Melody,581,1,38,109,2829429772
75,24,14,Improv_Melody,582,2,45,80,2829451392
75,24,14,Improv_Melody,583,2,69,80,2829453688
75,24,14,Improv_Melody,584,1,48,115,2829455028
75,24,14,Improv_Melody,585,5,42,127,2829457568
75,24,14,Improv_Melody,586,1,48,48,2829899604
75,24,14,Improv_Melody,587,5,42,110,2829949236
75,24,14,Improv_Melody,588,1,48,39,2830143972
75,24,14,Improv_Melody,589,1,48,41,2830261704
75,24,14,Improv_Melody,0,1,48,68,2830384796
75,24,14,Improv_Melody,1,1,48,37,2832655032
75,24,14,Improv_Melody,2,1,48,39,2832655660
75,24,14,Improv_Melody,3,1,48,35,2832656396
75,24,14,Improv_Melody,4,1,48,50,2832657008
75,24,14,Improv_Melody,5,1,48,48,2832657640
75,24,14,Improv_Melody,6,1,48,78,2832658264
75,24,14,Improv_Melody,7,1,48,73,2832659000
75,24,14,Improv_Melody,8,1,48,35,2832659612
75,24,14,Improv_Melody,9,1,48,36,2832660188
75,24,14,Improv_Melody,10,1,48,148,2832660872
75,24,14,Improv_Melody,11,1,42,110,2832661076
75,24,14,Improv_Melody,12,5,42,110,2832661668
75,24,14,Improv_Melody,13,5,42,127,2832662896
75,24,14,Improv_Melody,14,5,42,110,2832665860
75,24,14,Improv_Melody,15,5,42,110,2832668652
75,24,14,Improv_Melody,16,1,38,77,2832839684
75,24,14,Improv_Melody,17,1,48,54,2832846024
75,24,14,Improv_Melody,18,5,42,110,2832948568
75,24,14,Improv_Melody,19,2,41,80,2833451988
75,24,14,Improv_Melody,20,2,65,80,2833453988
75,24,14,Improv_Melody,21,5,42,127,2833456456
75,24,14,Improv_Melody,22,1,48,41,2833464132
75,24,14,Improv_Melody,23,1,38,16,2833476008
75,24,14,Improv_Melody,24,5,42,110,2833949000
75,24,14,Improv_Melody,25,1,48,79,2833971116
75,24,14,Improv_Melody,26,1,48,34,2834192296
75,24,14,Improv_Melody,27,1,48,76,2834436812
75,24,14,Improv_Melody,28,5,42,110,2834448896
75,24,14,Improv_Melody,29,1,48,41,2834688608
75,24,14,Improv_Melody,30,1,48,62,2834937168
75,24,14,Improv_Melody,31,5,42,110,2834948348
75,24,14,Improv_Melody,32,1,48,45,2835197708
75,24,14,Improv_Melody,33,1,48,109,2835439308
75,24,14,Improv_Melody,34,5,42,127,2835449148
75,24,14,Improv_Melody,35,1,48,97,2835451072
75,24,14,Improv_Melody,36,1,48,40,2835665428
75,24,14,Improv_Melody,37,1,48,39,2835725320
75,24,14,Improv_Melody,38,1,48,55,2835796456
75,24,14,Improv_Melody,39,1,48,52,2835866820
75,24,14,Improv_Melody,40,1,48,100,2835930524
75,24,14,Improv_Melody,41,5,42,110,2835948960
75,24,14,Improv_Melody,42,1,48,127,2836058752
75,24,14,Improv_Melody,43,1,48,42,2836168160
75,24,14,Improv_Melody,44,1,48,102,2836295768
75,24,14,Improv_Melody,45,1,48,43,2836408912
75,24,14,Improv_Melody,46,5,42,110,2836448672
75,24,14,Improv_Melody,47,1,48,111,2836497552
75,24,14,Improv_Melody,48,1,48,74,2836567268
75,24,14,Improv_Melody,49,1,48,122,2836666724
75,24,14,Improv_Melody,50,1,48,60,2836769848
75,24,14,Improv_Melody,51,1,48,63,2836885408
75,24,14,Improv_Melody,52,5,42,110,2836949328
75,24,14,Improv_Melody,53,1,38,89,2836984444
75,24,14,Improv_Melody,54,1,48,72,2837129484
75,24,14,Improv_Melody,55,1,38,90,2837243748
75,24,14,Improv_Melody,56,1,38,74,2837312692
75,24,14,Improv_Melody,57,1,48,116,2837405984
75,24,14,Improv_Melody,58,2,48,80,2837451824
75,24,14,Improv_Melody,59,2,72,80,2837453816
75,24,14,Improv_Melody,60,5,42,127,2837456432
75,24,14,Improv_Melody,61,1,48,55,2837696600
75,24,14,Improv_Melody,62,1,38,127,2837939992
75,24,14,Improv_Melody,63,1,48,114,2837942444
75,24,14,Improv_Melody,64,5,42,110,2837948764
75,24,14,Improv_Melody,65,1,48,52,2838179768
75,24,14,Improv_Melody,66,1,48,51,2838251708
75,24,14,Improv_Melody,67,1,38,51,2838301128
75,24,14,Improv_Melody,68,1,38,50,2838368656
75,24,14,Improv_Melody,69,1,48,127,2838435504
75,24,14,Improv_Melody,0,9999,9999,9999,2757446728
75,24,14,Improv_Melody,1,9999,9999,9999,2757946436
75,24,14,Improv_Melody,2,9999,9999,9999,2758446160
75,24,14,Improv_Melody,3,9999,9999,9999,2758946928
75,24,14,Improv_Melody,4,9999,9999,9999,2759446648
75,24,14,Improv_Melody,5,9999,9999,9999,2759946296
75,24,14,Improv_Melody,6,9999,9999,9999,2760447064
75,24,14,Improv_Melody,7,9999,9999,9999,2760946784
75,24,14,Improv_Melody,8,9999,9999,9999,2761446508
75,24,14,Improv_Melody,9,9999,9999,9999,2761946172
75,24,14,Improv_Melody,10,9999,9999,9999,2762446940
75,24,14,Improv_Melody,11,9999,9999,9999,2762946664
75,24,14,Improv_Melody,12,9999,9999,9999,2763446384
75,24,14,Improv_Melody,13,9999,9999,9999,2763947076
75,24,14,Improv_Melody,14,9999,9999,9999,2764446800
75,24,14,Improv_Melody,15,9999,9999,9999,2764946548
75,24,14,Improv_Melody,16,9999,9999,9999,2765446252
75,24,14,Improv_Melody,17,9999,9999,9999,2765946960
75,24,14,Improv_Melody,18,9999,9999,9999,2766446704
75,24,14,Improv_Melody,19,9999,9999,9999,2766946388
75,24,14,Improv_Melody,20,9999,9999,9999,2767446068
75,24,14,Improv_Melody,21,9999,9999,9999,2767946808
75,24,14,Improv_Melody,22,9999,9999,9999,2768446544
75,24,14,Improv_Melody,23,9999,9999,9999,2768946276
75,24,14,Improv_Melody,24,9999,9999,9999,2769446996
75,24,14,Improv_Melody,25,9999,9999,9999,2769946716
75,24,14,Improv_Melody,26,9999,9999,9999,2770446392
75,24,14,Improv_Melody,27,9999,9999,9999,2770946140
75,24,14,Improv_Melody,28,9999,9999,9999,2771446868
75,24,14,Improv_Melody,29,9999,9999,9999,2771946572
75,24,14,Improv_Melody,30,9999,9999,9999,2772446276
75,24,14,Improv_Melody,31,9999,9999,9999,2772947012
75,24,14,Improv_Melody,32,9999,9999,9999,2773446764
75,24,14,Improv_Melody,33,9999,9999,9999,2773946476
75,24,14,Improv_Melody,34,9999,9999,9999,2774446176
75,24,14,Improv_Melody,35,9999,9999,9999,2774946920
75,24,14,Improv_Melody,36,9999,9999,9999,2775446632
75,24,14,Improv_Melody,37,9999,9999,9999,2775946336
75,24,14,Improv_Melody,38,9999,9999,9999,2776447068
75,24,14,Improv_Melody,39,9999,9999,9999,2776946780
75,24,14,Improv_Melody,40,9999,9999,9999,2777446504
75,24,14,Improv_Melody,41,9999,9999,9999,2777946228
75,24,14,Improv_Melody,42,9999,9999,9999,2778446940
75,24,14,Improv_Melody,43,9999,9999,9999,2778946668
75,24,14,Improv_Melody,44,9999,9999,9999,2779446388
75,24,14,Improv_Melody,45,9999,9999,9999,2779947112
75,24,14,Improv_Melody,46,9999,9999,9999,2780446792
75,24,14,Improv_Melody,47,9999,9999,9999,2780946492
75,24,14,Improv_Melody,48,9999,9999,9999,2781446272
75,24,14,Improv_Melody,49,9999,9999,9999,2781946932
75,24,14,Improv_Melody,50,9999,9999,9999,2782446660
75,24,14,Improv_Melody,51,9999,9999,9999,2782946404
75,24,14,Improv_Melody,52,9999,9999,9999,2783446140
75,24,14,Improv_Melody,53,9999,9999,9999,2783946836
75,24,14,Improv_Melody,54,9999,9999,9999,2784446568
75,24,14,Improv_Melody,55,9999,9999,9999,2784946272
75,24,14,Improv_Melody,56,9999,9999,9999,2785447008
75,24,14,Improv_Melody,57,9999,9999,9999,2785946704
75,24,14,Improv_Melody,58,9999,9999,9999,2786446428
75,24,14,Improv_Melody,59,9999,9999,9999,2786946128
75,24,14,Improv_Melody,60,9999,9999,9999,2787446888
75,24,14,Improv_Melody,61,9999,9999,9999,2787946568
75,24,14,Improv_Melody,62,9999,9999,9999,2788446272
75,24,14,Improv_Melody,63,9999,9999,9999,2788947052
75,24,14,Improv_Melody,64,9999,9999,9999,2789446708
75,24,14,Improv_Melody,65,9999,9999,9999,2789946420
75,24,14,Improv_Melody,66,9999,9999,9999,2790446200
75,24,14,Improv_Melody,67,9999,9999,9999,2790946920
75,24,14,Improv_Melody,68,9999,9999,9999,2791446628
75,24,14,Improv_Melody,69,9999,9999,9999,2791946340
75,24,14,Improv_Melody,70,9999,9999,9999,2792447096
75,24,14,Improv_Melody,71,9999,9999,9999,2792946804
75,24,14,Improv_Melody,72,9999,9999,9999,2793446516
75,24,14,Improv_Melody,73,9999,9999,9999,2793946192
75,24,14,Improv_Melody,74,9999,9999,9999,2794446908
75,24,14,Improv_Melody,75,9999,9999,9999,2794946640
75,24,14,Improv_Melody,76,9999,9999,9999,2795446372
75,24,14,Improv_Melody,77,9999,9999,9999,2795947100
75,24,14,Improv_Melody,78,9999,9999,9999,2796446840
75,24,14,Improv_Melody,79,9999,9999,9999,2796946504
75,24,14,Improv_Melody,80,9999,9999,9999,2797446248
75,24,14,Improv_Melody,81,9999,9999,9999,2797946940
75,24,14,Improv_Melody,82,9999,9999,9999,2798446672
75,24,14,Improv_Melody,83,9999,9999,9999,2798946396
75,24,14,Improv_Melody,84,9999,9999,9999,2799446072
75,24,14,Improv_Melody,85,9999,9999,9999,2799946844
75,24,14,Improv_Melody,86,9999,9999,9999,2800446552
75,24,14,Improv_Melody,87,9999,9999,9999,2800946280
75,24,14,Improv_Melody,88,9999,9999,9999,2801447004
75,24,14,Improv_Melody,89,9999,9999,9999,2801946724
75,24,14,Improv_Melody,90,9999,9999,9999,2802446432
75,24,14,Improv_Melody,91,9999,9999,9999,2802946108
75,24,14,Improv_Melody,92,9999,9999,9999,2803446836
75,24,14,Improv_Melody,93,9999,9999,9999,2803946584
75,24,14,Improv_Melody,94,9999,9999,9999,2804446312
75,24,14,Improv_Melody,95,9999,9999,9999,2804947028
75,24,14,Improv_Melody,96,9999,9999,9999,2805446764
75,24,14,Improv_Melody,97,9999,9999,9999,2805946480
75,24,14,Improv_Melody,98,9999,9999,9999,2806446192
75,24,14,Improv_Melody,99,9999,9999,9999,2806946912
75,24,14,Improv_Melody,100,9999,9999,9999,2807446596
75,24,14,Improv_Melody,101,9999,9999,9999,2807946300
75,24,14,Improv_Melody,102,9999,9999,9999,2808447052
75,24,14,Improv_Melody,103,9999,9999,9999,2808946764
75,24,14,Improv_Melody,104,9999,9999,9999,2809446448
75,24,14,Improv_Melody,105,9999,9999,9999,2809946224
75,24,14,Improv_Melody,106,9999,9999,9999,2810446940
75,24,14,Improv_Melody,107,9999,9999,9999,2810946680
75,24,14,Improv_Melody,108,9999,9999,9999,2811446352
75,24,14,Improv_Melody,109,9999,9999,9999,2811947080
75,24,14,Improv_Melody,110,9999,9999,9999,2812446792
75,24,14,Improv_Melody,111,9999,9999,9999,2812946524
75,24,14,Improv_Melody,112,9999,9999,9999,2813446192
75,24,14,Improv_Melody,113,9999,9999,9999,2813946948
75,24,14,Improv_Melody,114,9999,9999,9999,2814446708
75,24,14,Improv_Melody,115,9999,9999,9999,2814946384
75,24,14,Improv_Melody,116,9999,9999,9999,2815446092
75,24,14,Improv_Melody,117,9999,9999,9999,2815946848
75,24,14,Improv_Melody,118,9999,9999,9999,2816446584
75,24,14,Improv_Melody,119,9999,9999,9999,2816946292
75,24,14,Improv_Melody,120,9999,9999,9999,2817446972
75,24,14,Improv_Melody,121,9999,9999,9999,2817946692
75,24,14,Improv_Melody,122,9999,9999,9999,2818446420
75,24,14,Improv_Melody,123,9999,9999,9999,2818946160
75,24,14,Improv_Melody,124,9999,9999,9999,2819446856
75,24,14,Improv_Melody,125,9999,9999,9999,2819946608
75,24,14,Improv_Melody,126,9999,9999,9999,2820446316
75,24,14,Improv_Melody,127,9999,9999,9999,2820947024
75,24,14,Improv_Melody,128,9999,9999,9999,2821446740
75,24,14,Improv_Melody,129,9999,9999,9999,2821946452
75,24,14,Improv_Melody,130,9999,9999,9999,2822446128
75,24,14,Improv_Melody,131,9999,9999,9999,2822946920
75,24,14,Improv_Melody,132,9999,9999,9999,2823446580
75,24,14,Improv_Melody,133,9999,9999,9999,2823946312
75,24,14,Improv_Melody,134,9999,9999,9999,2824447088
75,24,14,Improv_Melody,135,9999,9999,9999,2824946752
75,24,14,Improv_Melody,136,9999,9999,9999,2825446504
75,24,14,Improv_Melody,137,9999,9999,9999,2825946172
75,24,14,Improv_Melody,138,9999,9999,9999,2826446908
75,24,14,Improv_Melody,139,9999,9999,9999,2826946680
75,24,14,Improv_Melody,140,9999,9999,9999,2827446344
75,24,14,Improv_Melody,141,9999,9999,9999,2827947068
75,24,14,Improv_Melody,142,9999,9999,9999,2828446780
75,24,14,Improv_Melody,143,9999,9999,9999,2828946524
75,24,14,Improv_Melody,144,9999,9999,9999,2829446220
75,24,14,Improv_Melody,145,9999,9999,9999,2829946944
75,24,14,Improv_Melody,146,9999,9999,9999,2832653944
75,24,14,Improv_Melody,147,9999,9999,9999,2832654152
75,24,14,Improv_Melody,148,9999,9999,9999,2832654344
75,24,14,Improv_Melody,149,9999,9999,9999,2832654516
75,24,14,Improv_Melody,150,9999,9999,9999,2832654708
75,24,14,Improv_Melody,151,9999,9999,9999,2832946276
75,24,14,Improv_Melody,152,9999,9999,9999,2833446968
75,24,14,Improv_Melody,153,9999,9999,9999,2833946708
75,24,14,Improv_Melody,154,9999,9999,9999,2834446456
75,24,14,Improv_Melody,155,9999,9999,9999,2834946132
75,24,14,Improv_Melody,156,9999,9999,9999,2835446856
75,24,14,Improv_Melody,157,9999,9999,9999,2835946596
75,24,14,Improv_Melody,158,9999,9999,9999,2836446304
75,24,14,Improv_Melody,159,9999,9999,9999,2836947040
75,24,14,Improv_Melody,160,9999,9999,9999,2837446724
75,24,14,Improv_Melody,161,9999,9999,9999,2837946472
