pid,taskRunCount,taskID,taskName,i,channel,pitch,velocity,microseconds
1,0,Ticks_Pract_8,0,5,42,127,1349808492
711,0,Ticks_Pract_8,1,5,42,127,1350609144
711,0,Ticks_Pract_8,2,5,42,127,1351408900
711,0,Ticks_Pract_8,3,5,42,127,1352208656
711,0,Ticks_Pract_8,4,5,42,127,1353008636
711,0,Ticks_Pract_8,5,1,48,24,1353033592
711,0,Ticks_Pract_8,6,1,48,30,1353753272
711,0,Ticks_Pract_8,7,5,42,127,1353809556
711,0,Ticks_Pract_8,8,1,48,40,1354591080
711,0,Ticks_Pract_8,9,5,42,127,1354608916
711,0,Ticks_Pract_8,10,5,42,127,1355408684
711,0,Ticks_Pract_8,11,1,48,30,1355429676
711,0,Ticks_Pract_8,12,1,48,40,1356199100
711,0,Ticks_Pract_8,13,5,42,127,1356208632
711,0,Ticks_Pract_8,14,5,42,127,1357009120
711,0,Ticks_Pract_8,15,1,48,35,1357014852
711,0,Ticks_Pract_8,16,1,48,36,1357799688
711,0,Ticks_Pract_8,17,5,42,127,1357808996
711,0,Ticks_Pract_8,18,1,48,33,1358592392
711,0,Ticks_Pract_8,19,5,42,127,1358608732
711,0,Ticks_Pract_8,20,1,48,40,1359370732
711,0,Ticks_Pract_8,21,5,42,127,1359408540
711,0,Ticks_Pract_8,22,1,48,34,1360136208
711,0,Ticks_Pract_8,23,5,42,127,1360209544
711,0,Ticks_Pract_8,24,1,48,33,1360963464
711,0,Ticks_Pract_8,25,5,42,127,1361008904
711,0,Ticks_Pract_8,26,1,48,29,1361749884
711,0,Ticks_Pract_8,27,5,42,127,1361808736
711,0,Ticks_Pract_8,28,5,42,127,1362608700
711,0,Ticks_Pract_8,29,5,42,127,1363409352
711,0,Ticks_Pract_8,30,5,42,127,1364208960
711,0,Ticks_Pract_8,31,5,42,127,1365008640
711,0,Ticks_Pract_8,32,1,48,40,1365743276
711,0,Ticks_Pract_8,33,5,42,127,1365808536
711,0,Ticks_Pract_8,34,1,48,36,1366572408
711,0,Ticks_Pract_8,35,5,42,127,1366609392
711,0,Ticks_Pract_8,36,1,48,43,1367321572
711,0,Ticks_Pract_8,37,5,42,127,1367409124
711,0,Ticks_Pract_8,38,1,48,39,1368100788
711,0,Ticks_Pract_8,39,5,42,127,1368208620
711,0,Ticks_Pract_8,40,1,48,33,1368955448
711,0,Ticks_Pract_8,41,5,42,127,1369008592
711,0,Ticks_Pract_8,42,1,48,49,1369750468
711,0,Ticks_Pract_8,43,5,42,127,1369809372
711,0,Ticks_Pract_8,44,1,48,43,1370580648
711,0,Ticks_Pract_8,45,5,42,127,1370608956
711,0,Ticks_Pract_8,46,1,48,41,1371388756
711,0,Ticks_Pract_8,47,5,42,127,1371408688
711,0,Ticks_Pract_8,48,5,42,127,1372208580
711,0,Ticks_Pract_8,49,1,48,45,1372226960
711,0,Ticks_Pract_8,50,1,48,43,1372990624
711,0,Ticks_Pract_8,51,5,42,127,1373009352
711,0,Ticks_Pract_8,52,1,48,43,1373768816
711,0,Ticks_Pract_8,0,9999,9999,9999,1349806128
711,0,Ticks_Pract_8,1,9999,9999,9999,1350606932
711,0,Ticks_Pract_8,2,9999,9999,9999,1351406688
711,0,Ticks_Pract_8,3,9999,9999,9999,1352206444
711,0,Ticks_Pract_8,4,9999,9999,9999,1353006196
711,0,Ticks_Pract_8,5,9999,9999,9999,1353806968
711,0,Ticks_Pract_8,6,9999,9999,9999,1354606704
711,0,Ticks_Pract_8,7,9999,9999,9999,1355406396
711,0,Ticks_Pract_8,8,9999,9999,9999,1356206196
711,0,Ticks_Pract_8,9,9999,9999,9999,1357006908
711,0,Ticks_Pract_8,10,9999,9999,9999,1357806708
711,0,Ticks_Pract_8,11,9999,9999,9999,1358606444
711,0,Ticks_Pract_8,12,9999,9999,9999,1359406176
711,0,Ticks_Pract_8,13,9999,9999,9999,1360206956
711,0,Ticks_Pract_8,14,9999,9999,9999,1361006692
711,0,Ticks_Pract_8,15,9999,9999,9999,1361806448
711,0,Ticks_Pract_8,16,9999,9999,9999,1362606188
711,0,Ticks_Pract_8,17,9999,9999,9999,1363406916
711,0,Ticks_Pract_8,18,9999,9999,9999,1364206672
711,0,Ticks_Pract_8,19,9999,9999,9999,1365006424
711,0,Ticks_Pract_8,20,9999,9999,9999,1365806176
711,0,Ticks_Pract_8,21,9999,9999,9999,1366606956
711,0,Ticks_Pract_8,22,9999,9999,9999,1367406688
711,0,Ticks_Pract_8,23,9999,9999,9999,1368206404
711,0,Ticks_Pract_8,24,9999,9999,9999,1369006156
711,0,Ticks_Pract_8,25,9999,9999,9999,1369806936
711,0,Ticks_Pract_8,26,9999,9999,9999,1370606668
711,0,Ticks_Pract_8,27,9999,9999,9999,1371406400
711,0,Ticks_Pract_8,28,9999,9999,9999,1372206140
711,0,Ticks_Pract_8,29,9999,9999,9999,1373006916
712,1,Ticks_Pract_5,0,5,42,127,1408154960
712,1,Ticks_Pract_5,1,5,42,127,1408654752
712,1,Ticks_Pract_5,2,5,42,127,1409154392
712,1,Ticks_Pract_5,3,5,42,127,1409655004
712,1,Ticks_Pract_5,4,5,42,127,1410154772
712,1,Ticks_Pract_5,5,5,42,127,1410654636
712,1,Ticks_Pract_5,6,5,42,127,1411155400
712,1,Ticks_Pract_5,7,5,42,127,1411654968
712,1,Ticks_Pract_5,8,1,48,38,1412134892
712,1,Ticks_Pract_5,9,5,42,127,1412154824
712,1,Ticks_Pract_5,10,1,48,32,1412620756
712,1,Ticks_Pract_5,11,5,42,127,1412654372
712,1,Ticks_Pract_5,12,1,48,38,1413102348
712,1,Ticks_Pract_5,13,5,42,127,1413155188
712,1,Ticks_Pract_5,14,1,48,21,1413652692
712,1,Ticks_Pract_5,15,5,42,127,1413654808
712,1,Ticks_Pract_5,16,1,48,39,1414119016
712,1,Ticks_Pract_5,17,5,42,127,1414154652
712,1,Ticks_Pract_5,18,1,48,42,1414612724
712,1,Ticks_Pract_5,19,5,42,127,1414655244
712,1,Ticks_Pract_5,20,5,42,127,1415155016
712,1,Ticks_Pract_5,21,1,48,52,1415162772
712,1,Ticks_Pract_5,22,5,42,127,1415654640
712,1,Ticks_Pract_5,23,1,48,32,1415685732
712,1,Ticks_Pract_5,24,5,42,127,1416154632
712,1,Ticks_Pract_5,25,1,48,38,1416187896
712,1,Ticks_Pract_5,26,1,48,46,1416650028
712,1,Ticks_Pract_5,27,5,42,127,1416655144
712,1,Ticks_Pract_5,28,1,48,36,1417137828
712,1,Ticks_Pract_5,29,5,42,127,1417154988
712,1,Ticks_Pract_5,30,1,48,37,1417636924
712,1,Ticks_Pract_5,31,5,42,127,1417654608
712,1,Ticks_Pract_5,32,1,48,39,1418139384
712,1,Ticks_Pract_5,33,5,42,127,1418155424
712,1,Ticks_Pract_5,34,5,42,127,1418655052
712,1,Ticks_Pract_5,35,1,48,41,1418672080
712,1,Ticks_Pract_5,36,1,48,34,1419154448
712,1,Ticks_Pract_5,37,5,42,127,1419155932
712,1,Ticks_Pract_5,38,1,48,40,1419644080
712,1,Ticks_Pract_5,39,5,42,127,1419654584
712,1,Ticks_Pract_5,40,5,42,127,1420155552
712,1,Ticks_Pract_5,41,1,48,40,1420189192
712,1,Ticks_Pract_5,42,5,42,127,1420654924
712,1,Ticks_Pract_5,43,1,48,31,1420670708
712,1,Ticks_Pract_5,44,1,48,34,1421129668
712,1,Ticks_Pract_5,45,5,42,127,1421154612
712,1,Ticks_Pract_5,46,1,48,38,1421644696
712,1,Ticks_Pract_5,47,5,42,127,1421655648
712,1,Ticks_Pract_5,48,1,48,44,1422105800
712,1,Ticks_Pract_5,49,5,42,127,1422155196
712,1,Ticks_Pract_5,50,5,42,127,1422654752
712,1,Ticks_Pract_5,51,1,48,22,1422747056
712,1,Ticks_Pract_5,52,1,48,36,1423150216
712,1,Ticks_Pract_5,53,5,42,127,1423154512
712,1,Ticks_Pract_5,54,1,48,41,1423595832
712,1,Ticks_Pract_5,55,5,42,127,1423655252
712,1,Ticks_Pract_5,56,1,48,39,1424113472
712,1,Ticks_Pract_5,57,5,42,127,1424154948
712,1,Ticks_Pract_5,58,1,48,51,1424609360
712,1,Ticks_Pract_5,59,5,42,127,1424654640
712,1,Ticks_Pract_5,60,1,48,44,1425121620
712,1,Ticks_Pract_5,61,5,42,127,1425154412
712,1,Ticks_Pract_5,62,1,48,44,1425608896
712,1,Ticks_Pract_5,63,5,42,127,1425655004
712,1,Ticks_Pract_5,64,5,42,127,1426154852
712,1,Ticks_Pract_5,65,1,48,42,1426190364
712,1,Ticks_Pract_5,66,1,48,38,1426624812
712,1,Ticks_Pract_5,67,5,42,127,1426654688
712,1,Ticks_Pract_5,68,1,48,40,1427091220
712,1,Ticks_Pract_5,69,5,42,127,1427155728
712,1,Ticks_Pract_5,70,1,48,47,1427629216
712,1,Ticks_Pract_5,71,5,42,127,1427654904
712,1,Ticks_Pract_5,0,9999,9999,9999,1408152672
712,1,Ticks_Pract_5,1,9999,9999,9999,1408652392
712,1,Ticks_Pract_5,2,9999,9999,9999,1409152108
712,1,Ticks_Pract_5,3,9999,9999,9999,1409652792
712,1,Ticks_Pract_5,4,9999,9999,9999,1410152560
712,1,Ticks_Pract_5,5,9999,9999,9999,1410652276
712,1,Ticks_Pract_5,6,9999,9999,9999,1411152964
712,1,Ticks_Pract_5,7,9999,9999,9999,1411652680
712,1,Ticks_Pract_5,8,9999,9999,9999,1412152392
712,1,Ticks_Pract_5,9,9999,9999,9999,1412652088
712,1,Ticks_Pract_5,10,9999,9999,9999,1413152828
712,1,Ticks_Pract_5,11,9999,9999,9999,1413652560
712,1,Ticks_Pract_5,12,9999,9999,9999,1414152292
712,1,Ticks_Pract_5,13,9999,9999,9999,1414653032
712,1,Ticks_Pract_5,14,9999,9999,9999,1415152732
712,1,Ticks_Pract_5,15,9999,9999,9999,1415652428
712,1,Ticks_Pract_5,16,9999,9999,9999,1416152120
712,1,Ticks_Pract_5,17,9999,9999,9999,1416652860
712,1,Ticks_Pract_5,18,9999,9999,9999,1417152628
712,1,Ticks_Pract_5,19,9999,9999,9999,1417652320
712,1,Ticks_Pract_5,20,9999,9999,9999,1418153064
712,1,Ticks_Pract_5,21,9999,9999,9999,1418652764
712,1,Ticks_Pract_5,22,9999,9999,9999,1419152460
712,1,Ticks_Pract_5,23,9999,9999,9999,1419652148
712,1,Ticks_Pract_5,24,9999,9999,9999,1420152892
712,1,Ticks_Pract_5,25,9999,9999,9999,1420652636
712,1,Ticks_Pract_5,26,9999,9999,9999,1421152324
712,1,Ticks_Pract_5,27,9999,9999,9999,1421653068
712,1,Ticks_Pract_5,28,9999,9999,9999,1422152764
712,1,Ticks_Pract_5,29,9999,9999,9999,1422652464
712,1,Ticks_Pract_5,30,9999,9999,9999,1423152224
712,1,Ticks_Pract_5,31,9999,9999,9999,1423652968
712,1,Ticks_Pract_5,32,9999,9999,9999,1424152660
712,1,Ticks_Pract_5,33,9999,9999,9999,1424652356
712,1,Ticks_Pract_5,34,9999,9999,9999,1425152052
712,1,Ticks_Pract_5,35,9999,9999,9999,1425652792
712,1,Ticks_Pract_5,36,9999,9999,9999,1426152568
712,1,Ticks_Pract_5,37,9999,9999,9999,1426652256
712,1,Ticks_Pract_5,38,9999,9999,9999,1427152996
712,1,Ticks_Pract_5,39,9999,9999,9999,1427652692
713,4,T1_SMS_5,0,5,42,127,1506956712
713,4,T1_SMS_5,1,5,42,127,1507457476
713,4,T1_SMS_5,2,5,42,127,1507957196
713,4,T1_SMS_5,3,5,42,127,1508456664
713,4,T1_SMS_5,4,1,48,35,1508941152
713,4,T1_SMS_5,5,5,42,127,1508956672
713,4,T1_SMS_5,6,1,48,38,1509397092
713,4,T1_SMS_5,7,5,42,127,1509457336
713,4,T1_SMS_5,8,5,42,127,1509957112
713,4,T1_SMS_5,9,1,48,35,1509970256
713,4,T1_SMS_5,10,5,42,127,1510456660
713,4,T1_SMS_5,11,1,48,32,1510475256
713,4,T1_SMS_5,12,5,42,127,1510957548
713,4,T1_SMS_5,13,1,48,33,1510972408
713,4,T1_SMS_5,14,1,48,39,1511454812
713,4,T1_SMS_5,15,5,42,127,1511457312
713,4,T1_SMS_5,16,5,42,127,1511956716
713,4,T1_SMS_5,17,5,42,127,1512456432
713,4,T1_SMS_5,18,1,48,37,1512514224
713,4,T1_SMS_5,19,1,48,38,1512940976
713,4,T1_SMS_5,20,5,42,127,1512957168
713,4,T1_SMS_5,21,1,48,32,1513436260
713,4,T1_SMS_5,22,5,42,127,1513456864
713,4,T1_SMS_5,23,1,48,31,1513921440
713,4,T1_SMS_5,24,5,42,127,1513956708
713,4,T1_SMS_5,25,5,42,127,1514456408
713,4,T1_SMS_5,26,1,48,42,1514463268
713,4,T1_SMS_5,27,5,42,127,1514957300
713,4,T1_SMS_5,28,1,48,44,1514958868
713,4,T1_SMS_5,29,5,42,127,1515456772
713,4,T1_SMS_5,30,1,48,42,1515480532
713,4,T1_SMS_5,31,1,48,41,1515953284
713,4,T1_SMS_5,32,5,42,127,1515956460
713,4,T1_SMS_5,33,5,42,127,1516457208
713,4,T1_SMS_5,34,1,48,39,1516461300
713,4,T1_SMS_5,35,1,48,36,1516926640
713,4,T1_SMS_5,36,5,42,127,1516957120
713,4,T1_SMS_5,37,5,42,127,1517456824
713,4,T1_SMS_5,38,1,48,39,1517531152
713,4,T1_SMS_5,39,5,42,127,1517956368
713,4,T1_SMS_5,40,1,48,43,1518010872
713,4,T1_SMS_5,41,5,42,127,1518457184
713,4,T1_SMS_5,42,1,48,37,1518487156
713,4,T1_SMS_5,43,5,42,127,1518957104
713,4,T1_SMS_5,44,1,48,47,1518970024
713,4,T1_SMS_5,45,5,42,127,1519456476
713,4,T1_SMS_5,46,1,48,40,1519472932
713,4,T1_SMS_5,47,5,42,127,1519957368
713,4,T1_SMS_5,48,1,48,43,1519969536
713,4,T1_SMS_5,49,1,48,41,1520442132
713,4,T1_SMS_5,50,5,42,127,1520457280
713,4,T1_SMS_5,51,5,42,127,1520956756
713,4,T1_SMS_5,52,1,48,35,1521022876
713,4,T1_SMS_5,53,5,42,127,1521456376
713,4,T1_SMS_5,54,1,48,43,1521472132
713,4,T1_SMS_5,55,5,42,127,1521957192
713,4,T1_SMS_5,56,1,48,27,1521981556
713,4,T1_SMS_5,57,1,48,46,1522413236
713,4,T1_SMS_5,58,5,42,127,1522457104
713,4,T1_SMS_5,59,1,48,39,1522864536
713,4,T1_SMS_5,60,5,42,127,1522956648
713,4,T1_SMS_5,61,5,42,127,1523457400
713,4,T1_SMS_5,62,1,48,25,1523484152
713,4,T1_SMS_5,63,5,42,127,1523957240
713,4,T1_SMS_5,64,1,48,40,1524207068
713,4,T1_SMS_5,65,5,42,127,1524456712
713,4,T1_SMS_5,66,5,42,127,1524956576
713,4,T1_SMS_5,67,1,48,29,1525135192
713,4,T1_SMS_5,68,5,42,127,1525457244
713,4,T1_SMS_5,69,1,48,35,1525510024
713,4,T1_SMS_5,70,5,42,127,1525957164
713,4,T1_SMS_5,71,1,48,36,1526080708
713,4,T1_SMS_5,72,5,42,127,1526456632
713,4,T1_SMS_5,73,1,48,31,1526589000
713,4,T1_SMS_5,74,5,42,127,1526957376
713,4,T1_SMS_5,75,1,48,36,1527039704
713,4,T1_SMS_5,76,5,42,127,1527457148
713,4,T1_SMS_5,77,1,48,33,1527530420
713,4,T1_SMS_5,78,5,42,127,1527957140
713,4,T1_SMS_5,79,1,48,43,1528018672
713,4,T1_SMS_5,80,1,48,39,1528410916
713,4,T1_SMS_5,81,5,42,127,1528456532
713,4,T1_SMS_5,82,5,42,127,1528957428
713,4,T1_SMS_5,83,1,48,34,1529012236
713,4,T1_SMS_5,84,5,42,127,1529457272
713,4,T1_SMS_5,85,1,48,42,1529530480
713,4,T1_SMS_5,86,5,42,127,1529956944
713,4,T1_SMS_5,87,1,48,39,1530054780
713,4,T1_SMS_5,88,5,42,127,1530456340
713,4,T1_SMS_5,89,1,48,35,1530521264
713,4,T1_SMS_5,90,5,42,127,1530957156
713,4,T1_SMS_5,91,1,48,47,1531029712
713,4,T1_SMS_5,92,5,42,127,1531457076
713,4,T1_SMS_5,93,1,48,38,1531496316
713,4,T1_SMS_5,94,5,42,127,1531956548
713,4,T1_SMS_5,95,1,48,41,1532041740
713,4,T1_SMS_5,96,5,42,127,1532457216
713,4,T1_SMS_5,97,1,48,34,1532488380
713,4,T1_SMS_5,98,1,48,39,1532947964
713,4,T1_SMS_5,99,5,42,127,1532957124
713,4,T1_SMS_5,100,5,42,127,1533456604
713,4,T1_SMS_5,101,1,48,36,1533570448
713,4,T1_SMS_5,102,5,42,127,1533956376
713,4,T1_SMS_5,103,1,48,41,1533992700
713,4,T1_SMS_5,104,5,42,127,1534457188
713,4,T1_SMS_5,105,1,48,38,1534460232
713,4,T1_SMS_5,106,1,48,40,1534951608
713,4,T1_SMS_5,107,5,42,127,1534957100
713,4,T1_SMS_5,108,5,42,127,1535456504
713,4,T1_SMS_5,109,1,48,41,1535460596
713,4,T1_SMS_5,110,1,48,37,1535895720
713,4,T1_SMS_5,111,5,42,127,1535957388
713,4,T1_SMS_5,112,5,42,127,1536457164
713,4,T1_SMS_5,113,1,48,38,1536471056
713,4,T1_SMS_5,114,5,42,127,1536956784
713,4,T1_SMS_5,115,1,48,40,1536981000
713,4,T1_SMS_5,116,5,42,127,1537456408
713,4,T1_SMS_5,117,1,48,43,1537475304
713,4,T1_SMS_5,118,1,48,41,1537950452
713,4,T1_SMS_5,119,5,42,127,1537957220
713,4,T1_SMS_5,120,5,42,127,1538456844
713,4,T1_SMS_5,121,1,48,38,1538565796
713,4,T1_SMS_5,122,5,42,127,1538956764
713,4,T1_SMS_5,123,1,48,38,1539144932
713,4,T1_SMS_5,124,5,42,127,1539457432
713,4,T1_SMS_5,125,1,48,34,1539700224
713,4,T1_SMS_5,126,5,42,127,1539957052
713,4,T1_SMS_5,127,1,48,33,1540220192
713,4,T1_SMS_5,128,5,42,127,1540456868
713,4,T1_SMS_5,129,1,48,35,1540857940
713,4,T1_SMS_5,130,5,42,127,1540956392
713,4,T1_SMS_5,131,5,42,127,1541457304
713,4,T1_SMS_5,132,1,48,36,1541550356
713,4,T1_SMS_5,133,5,42,127,1541956924
713,4,T1_SMS_5,134,1,48,36,1542002624
713,4,T1_SMS_5,135,5,42,127,1542456768
713,4,T1_SMS_5,136,1,48,39,1542509876
713,4,T1_SMS_5,137,5,42,127,1542957360
713,4,T1_SMS_5,138,1,48,37,1543222144
713,4,T1_SMS_5,139,5,42,127,1543457280
713,4,T1_SMS_5,140,1,48,35,1543671500
713,4,T1_SMS_5,141,5,42,127,1543956824
713,4,T1_SMS_5,142,1,48,29,1544220264
713,4,T1_SMS_5,143,5,42,127,1544456444
713,4,T1_SMS_5,144,1,48,35,1544712776
713,4,T1_SMS_5,145,5,42,127,1544957332
713,4,T1_SMS_5,146,1,48,39,1545262056
713,4,T1_SMS_5,147,5,42,127,1545457028
713,4,T1_SMS_5,148,1,48,30,1545694364
713,4,T1_SMS_5,149,5,42,127,1545956724
713,4,T1_SMS_5,150,1,48,40,1546216872
713,4,T1_SMS_5,151,5,42,127,1546456568
713,4,T1_SMS_5,152,1,48,34,1546715964
713,4,T1_SMS_5,153,5,42,127,1546957232
713,4,T1_SMS_5,154,1,48,40,1547244080
713,4,T1_SMS_5,155,5,42,127,1547457004
713,4,T1_SMS_5,156,1,48,30,1547881328
713,4,T1_SMS_5,157,5,42,127,1547956712
713,4,T1_SMS_5,158,1,48,32,1548456780
713,4,T1_SMS_5,159,5,42,127,1548458280
713,4,T1_SMS_5,160,5,42,127,1548957008
713,4,T1_SMS_5,161,1,48,28,1548974484
713,4,T1_SMS_5,162,1,48,43,1549426968
713,4,T1_SMS_5,163,5,42,127,1549456696
713,4,T1_SMS_5,164,5,42,127,1549956400
713,4,T1_SMS_5,165,1,48,38,1550213332
713,4,T1_SMS_5,166,5,42,127,1550457140
713,4,T1_SMS_5,167,1,48,35,1550843024
713,4,T1_SMS_5,168,5,42,127,1550956912
713,4,T1_SMS_5,169,5,42,127,1551456828
713,4,T1_SMS_5,170,1,48,35,1551457716
713,4,T1_SMS_5,171,5,42,127,1551957788
713,4,T1_SMS_5,172,1,48,36,1552006188
713,4,T1_SMS_5,173,5,42,127,1552457040
713,4,T1_SMS_5,174,1,48,40,1552705668
713,4,T1_SMS_5,175,5,42,127,1552956808
713,4,T1_SMS_5,176,1,48,36,1553157864
713,4,T1_SMS_5,177,5,42,127,1553456500
713,4,T1_SMS_5,178,1,48,27,1553755692
713,4,T1_SMS_5,179,5,42,127,1553957392
713,4,T1_SMS_5,180,1,48,40,1554342552
713,4,T1_SMS_5,181,5,42,127,1554456940
713,4,T1_SMS_5,182,1,48,35,1554928792
713,4,T1_SMS_5,183,5,42,127,1554956648
713,4,T1_SMS_5,184,5,42,127,1555457248
713,4,T1_SMS_5,185,1,48,34,1555502848
713,4,T1_SMS_5,186,5,42,127,1555957016
713,4,T1_SMS_5,187,1,48,33,1556030672
713,4,T1_SMS_5,188,5,42,127,1556456860
713,4,T1_SMS_5,189,1,48,44,1556538592
713,4,T1_SMS_5,190,5,42,127,1556956628
713,4,T1_SMS_5,191,1,48,36,1557034172
713,4,T1_SMS_5,192,5,42,127,1557457296
713,4,T1_SMS_5,193,1,48,37,1557499456
713,4,T1_SMS_5,194,5,42,127,1557956916
713,4,T1_SMS_5,195,1,48,36,1558031164
713,4,T1_SMS_5,196,5,42,127,1558456760
713,4,T1_SMS_5,197,1,48,33,1558545592
713,4,T1_SMS_5,198,5,42,127,1558957572
713,4,T1_SMS_5,199,1,48,33,1558989340
713,4,T1_SMS_5,200,5,42,127,1559457268
713,4,T1_SMS_5,201,1,48,32,1559468688
713,4,T1_SMS_5,202,5,42,127,1559956816
713,4,T1_SMS_5,203,1,48,25,1559963896
713,4,T1_SMS_5,204,5,42,127,1560456660
713,4,T1_SMS_5,205,1,48,40,1560467932
713,4,T1_SMS_5,206,5,42,127,1560957472
713,4,T1_SMS_5,207,1,48,29,1560992980
713,4,T1_SMS_5,208,5,42,127,1561457020
713,4,T1_SMS_5,209,1,48,28,1561491928
713,4,T1_SMS_5,210,5,42,127,1561956840
713,4,T1_SMS_5,211,1,48,38,1561971804
713,4,T1_SMS_5,212,1,48,38,1562443324
713,4,T1_SMS_5,213,5,42,127,1562456676
713,4,T1_SMS_5,214,5,42,127,1562957348
713,4,T1_SMS_5,215,1,48,36,1563128040
713,4,T1_SMS_5,216,5,42,127,1563456748
713,4,T1_SMS_5,217,1,48,35,1563579040
713,4,T1_SMS_5,218,5,42,127,1563956812
713,4,T1_SMS_5,219,1,48,32,1564032660
713,4,T1_SMS_5,220,1,48,32,1564442632
713,4,T1_SMS_5,221,5,42,127,1564457252
713,4,T1_SMS_5,222,1,48,38,1564894380
713,4,T1_SMS_5,223,5,42,127,1564957020
713,4,T1_SMS_5,224,1,48,28,1565408436
713,4,T1_SMS_5,225,5,42,127,1565456788
713,4,T1_SMS_5,226,1,48,33,1565956036
713,4,T1_SMS_5,227,5,42,127,1565957604
713,4,T1_SMS_5,228,5,42,127,1566457380
713,4,T1_SMS_5,229,1,48,32,1566476956
713,4,T1_SMS_5,230,1,48,34,1566928916
713,4,T1_SMS_5,231,5,42,127,1566956776
713,4,T1_SMS_5,232,1,48,30,1567456624
713,4,T1_SMS_5,233,5,42,127,1567457964
713,4,T1_SMS_5,234,5,42,127,1567957440
713,4,T1_SMS_5,235,1,48,21,1567959808
713,4,T1_SMS_5,236,1,48,43,1568428600
713,4,T1_SMS_5,237,5,42,127,1568456984
713,4,T1_SMS_5,238,1,48,40,1568918648
713,4,T1_SMS_5,239,5,42,127,1568956752
713,4,T1_SMS_5,240,1,48,33,1569439580
713,4,T1_SMS_5,241,5,42,127,1569456600
713,4,T1_SMS_5,242,1,48,41,1569929104
713,4,T1_SMS_5,243,5,42,127,1569957340
713,4,T1_SMS_5,244,1,48,39,1570441740
713,4,T1_SMS_5,245,5,42,127,1570456884
713,4,T1_SMS_5,246,1,48,34,1570954148
713,4,T1_SMS_5,247,5,42,127,1570956656
713,4,T1_SMS_5,248,1,48,41,1571419416
713,4,T1_SMS_5,249,5,42,127,1571457544
713,4,T1_SMS_5,250,1,48,36,1571918212
713,4,T1_SMS_5,0,9999,9999,9999,1506954348
713,4,T1_SMS_5,1,9999,9999,9999,1507455036
713,4,T1_SMS_5,2,9999,9999,9999,1507954756
713,4,T1_SMS_5,3,9999,9999,9999,1508454448
713,4,T1_SMS_5,4,9999,9999,9999,1508954232
713,4,T1_SMS_5,5,9999,9999,9999,1509454900
713,4,T1_SMS_5,6,9999,9999,9999,1509954676
713,4,T1_SMS_5,7,9999,9999,9999,1510454368
713,4,T1_SMS_5,8,9999,9999,9999,1510955112
713,4,T1_SMS_5,9,9999,9999,9999,1511454872
713,4,T1_SMS_5,10,9999,9999,9999,1511954500
713,4,T1_SMS_5,11,9999,9999,9999,1512454216
713,4,T1_SMS_5,12,9999,9999,9999,1512954952
713,4,T1_SMS_5,13,9999,9999,9999,1513454648
713,4,T1_SMS_5,14,9999,9999,9999,1513954420
713,4,T1_SMS_5,15,9999,9999,9999,1514454120
713,4,T1_SMS_5,16,9999,9999,9999,1514954860
713,4,T1_SMS_5,17,9999,9999,9999,1515454556
713,4,T1_SMS_5,18,9999,9999,9999,1515954244
713,4,T1_SMS_5,19,9999,9999,9999,1516454992
713,4,T1_SMS_5,20,9999,9999,9999,1516954680
713,4,T1_SMS_5,21,9999,9999,9999,1517454384
713,4,T1_SMS_5,22,9999,9999,9999,1517954152
713,4,T1_SMS_5,23,9999,9999,9999,1518454896
713,4,T1_SMS_5,24,9999,9999,9999,1518954564
713,4,T1_SMS_5,25,9999,9999,9999,1519454260
713,4,T1_SMS_5,26,9999,9999,9999,1519955000
713,4,T1_SMS_5,27,9999,9999,9999,1520454764
713,4,T1_SMS_5,28,9999,9999,9999,1520954464
713,4,T1_SMS_5,29,9999,9999,9999,1521454160
713,4,T1_SMS_5,30,9999,9999,9999,1521954904
713,4,T1_SMS_5,31,9999,9999,9999,1522454588
713,4,T1_SMS_5,32,9999,9999,9999,1522954360
713,4,T1_SMS_5,33,9999,9999,9999,1523455032
713,4,T1_SMS_5,34,9999,9999,9999,1523954800
713,4,T1_SMS_5,35,9999,9999,9999,1524454496
713,4,T1_SMS_5,36,9999,9999,9999,1524954212
713,4,T1_SMS_5,37,9999,9999,9999,1525454952
713,4,T1_SMS_5,38,9999,9999,9999,1525954648
713,4,T1_SMS_5,39,9999,9999,9999,1526454344
713,4,T1_SMS_5,40,9999,9999,9999,1526955088
713,4,T1_SMS_5,41,9999,9999,9999,1527454780
713,4,T1_SMS_5,42,9999,9999,9999,1527954548
713,4,T1_SMS_5,43,9999,9999,9999,1528454240
713,4,T1_SMS_5,44,9999,9999,9999,1528954988
713,4,T1_SMS_5,45,9999,9999,9999,1529454684
713,4,T1_SMS_5,46,9999,9999,9999,1529954356
713,4,T1_SMS_5,47,9999,9999,9999,1530454124
713,4,T1_SMS_5,48,9999,9999,9999,1530954868
713,4,T1_SMS_5,49,9999,9999,9999,1531454560
713,4,T1_SMS_5,50,9999,9999,9999,1531954256
713,4,T1_SMS_5,51,9999,9999,9999,1532455000
713,4,T1_SMS_5,52,9999,9999,9999,1532954688
713,4,T1_SMS_5,53,9999,9999,9999,1533454388
713,4,T1_SMS_5,54,9999,9999,9999,1533954156
713,4,T1_SMS_5,55,9999,9999,9999,1534454900
713,4,T1_SMS_5,56,9999,9999,9999,1534954588
713,4,T1_SMS_5,57,9999,9999,9999,1535454288
713,4,T1_SMS_5,58,9999,9999,9999,1535955024
713,4,T1_SMS_5,59,9999,9999,9999,1536454724
713,4,T1_SMS_5,60,9999,9999,9999,1536954420
713,4,T1_SMS_5,61,9999,9999,9999,1537454192
713,4,T1_SMS_5,62,9999,9999,9999,1537954928
713,4,T1_SMS_5,63,9999,9999,9999,1538454628
713,4,T1_SMS_5,64,9999,9999,9999,1538954324
713,4,T1_SMS_5,65,9999,9999,9999,1539455064
713,4,T1_SMS_5,66,9999,9999,9999,1539954760
713,4,T1_SMS_5,67,9999,9999,9999,1540454504
713,4,T1_SMS_5,68,9999,9999,9999,1540954176
713,4,T1_SMS_5,69,9999,9999,9999,1541454940
713,4,T1_SMS_5,70,9999,9999,9999,1541954636
713,4,T1_SMS_5,71,9999,9999,9999,1542454328
713,4,T1_SMS_5,72,9999,9999,9999,1542955072
713,4,T1_SMS_5,73,9999,9999,9999,1543454840
713,4,T1_SMS_5,74,9999,9999,9999,1543954536
713,4,T1_SMS_5,75,9999,9999,9999,1544454228
713,4,T1_SMS_5,76,9999,9999,9999,1544954968
713,4,T1_SMS_5,77,9999,9999,9999,1545454664
713,4,T1_SMS_5,78,9999,9999,9999,1545954360
713,4,T1_SMS_5,79,9999,9999,9999,1546454128
713,4,T1_SMS_5,80,9999,9999,9999,1546954868
713,4,T1_SMS_5,81,9999,9999,9999,1547454564
713,4,T1_SMS_5,82,9999,9999,9999,1547954272
713,4,T1_SMS_5,83,9999,9999,9999,1548455020
713,4,T1_SMS_5,84,9999,9999,9999,1548954716
713,4,T1_SMS_5,85,9999,9999,9999,1549454408
713,4,T1_SMS_5,86,9999,9999,9999,1549954108
713,4,T1_SMS_5,87,9999,9999,9999,1550454848
713,4,T1_SMS_5,88,9999,9999,9999,1550954544
713,4,T1_SMS_5,89,9999,9999,9999,1551454312
713,4,T1_SMS_5,90,9999,9999,9999,1551955052
713,4,T1_SMS_5,91,9999,9999,9999,1552454748
713,4,T1_SMS_5,92,9999,9999,9999,1552954440
713,4,T1_SMS_5,93,9999,9999,9999,1553454136
713,4,T1_SMS_5,94,9999,9999,9999,1553954880
713,4,T1_SMS_5,95,9999,9999,9999,1554454648
713,4,T1_SMS_5,96,9999,9999,9999,1554954360
713,4,T1_SMS_5,97,9999,9999,9999,1555455032
713,4,T1_SMS_5,98,9999,9999,9999,1555954800
713,4,T1_SMS_5,99,9999,9999,9999,1556454496
713,4,T1_SMS_5,100,9999,9999,9999,1556954188
713,4,T1_SMS_5,101,9999,9999,9999,1557454932
713,4,T1_SMS_5,102,9999,9999,9999,1557954624
713,4,T1_SMS_5,103,9999,9999,9999,1558454392
713,4,T1_SMS_5,104,9999,9999,9999,1558955060
713,4,T1_SMS_5,105,9999,9999,9999,1559454828
713,4,T1_SMS_5,106,9999,9999,9999,1559954524
713,4,T1_SMS_5,107,9999,9999,9999,1560454220
713,4,T1_SMS_5,108,9999,9999,9999,1560954960
713,4,T1_SMS_5,109,9999,9999,9999,1561454656
713,4,T1_SMS_5,110,9999,9999,9999,1561954400
713,4,T1_SMS_5,111,9999,9999,9999,1562454088
713,4,T1_SMS_5,112,9999,9999,9999,1562954836
713,4,T1_SMS_5,113,9999,9999,9999,1563454532
713,4,T1_SMS_5,114,9999,9999,9999,1563954224
713,4,T1_SMS_5,115,9999,9999,9999,1564454960
713,4,T1_SMS_5,116,9999,9999,9999,1564954728
713,4,T1_SMS_5,117,9999,9999,9999,1565454424
713,4,T1_SMS_5,118,9999,9999,9999,1565954124
713,4,T1_SMS_5,119,9999,9999,9999,1566454868
713,4,T1_SMS_5,120,9999,9999,9999,1566954560
713,4,T1_SMS_5,121,9999,9999,9999,1567454260
713,4,T1_SMS_5,122,9999,9999,9999,1567955004
713,4,T1_SMS_5,123,9999,9999,9999,1568454768
713,4,T1_SMS_5,124,9999,9999,9999,1568954460
713,4,T1_SMS_5,125,9999,9999,9999,1569454160
713,4,T1_SMS_5,126,9999,9999,9999,1569954900
713,4,T1_SMS_5,127,9999,9999,9999,1570454596
713,4,T1_SMS_5,128,9999,9999,9999,1570954292
713,4,T1_SMS_5,129,9999,9999,9999,1571455032
714,2,T1_SMS_8,0,5,42,127,1641176356
714,2,T1_SMS_8,1,5,42,127,1641977232
714,2,T1_SMS_8,2,5,42,127,1642776984
714,2,T1_SMS_8,3,5,42,127,1643576668
714,2,T1_SMS_8,4,5,42,127,1644376568
714,2,T1_SMS_8,5,1,48,35,1644429300
714,2,T1_SMS_8,6,5,42,127,1645177376
714,2,T1_SMS_8,7,1,48,38,1645194704
714,2,T1_SMS_8,8,5,42,127,1645977036
714,2,T1_SMS_8,9,1,48,34,1646016204
714,2,T1_SMS_8,10,5,42,127,1646776768
714,2,T1_SMS_8,11,1,48,39,1646785344
714,2,T1_SMS_8,12,5,42,127,1647576428
714,2,T1_SMS_8,13,1,48,42,1647609536
714,2,T1_SMS_8,14,1,48,43,1648374024
714,2,T1_SMS_8,15,5,42,127,1648377572
714,2,T1_SMS_8,16,5,42,127,1649177088
714,2,T1_SMS_8,17,1,48,41,1649188212
714,2,T1_SMS_8,18,5,42,127,1649976900
714,2,T1_SMS_8,19,1,48,40,1650031576
714,2,T1_SMS_8,20,5,42,127,1650776484
714,2,T1_SMS_8,21,1,48,37,1650817844
714,2,T1_SMS_8,22,5,42,127,1651577360
714,2,T1_SMS_8,23,1,48,34,1651585492
714,2,T1_SMS_8,24,1,48,30,1652360304
714,2,T1_SMS_8,25,5,42,127,1652377164
714,2,T1_SMS_8,26,1,48,42,1653173648
714,2,T1_SMS_8,27,5,42,127,1653176676
714,2,T1_SMS_8,28,1,48,38,1653958420
714,2,T1_SMS_8,29,5,42,127,1653976336
714,2,T1_SMS_8,30,5,42,127,1654777196
714,2,T1_SMS_8,31,1,48,29,1654825044
714,2,T1_SMS_8,32,5,42,127,1655577152
714,2,T1_SMS_8,33,1,48,35,1655637416
714,2,T1_SMS_8,34,5,42,127,1656376660
714,2,T1_SMS_8,35,1,48,29,1657008904
714,2,T1_SMS_8,36,5,42,127,1657176320
714,2,T1_SMS_8,37,1,48,45,1657805044
714,2,T1_SMS_8,38,5,42,127,1657977052
714,2,T1_SMS_8,39,1,48,38,1658733528
714,2,T1_SMS_8,40,5,42,127,1658777096
714,2,T1_SMS_8,41,1,48,31,1659553984
714,2,T1_SMS_8,42,5,42,127,1659576608
714,2,T1_SMS_8,43,5,42,127,1660376420
714,2,T1_SMS_8,44,1,48,40,1660393372
714,2,T1_SMS_8,45,5,42,127,1661177052
714,2,T1_SMS_8,46,1,48,42,1661196100
714,2,T1_SMS_8,47,5,42,127,1661977008
714,2,T1_SMS_8,48,1,48,35,1662018948
714,2,T1_SMS_8,49,5,42,127,1662776592
714,2,T1_SMS_8,50,1,48,40,1662782324
714,2,T1_SMS_8,51,5,42,127,1663576328
714,2,T1_SMS_8,52,1,48,42,1663598392
714,2,T1_SMS_8,53,5,42,127,1664377204
714,2,T1_SMS_8,54,1,48,40,1664379648
714,2,T1_SMS_8,55,1,48,37,1665134560
714,2,T1_SMS_8,56,5,42,127,1665176936
714,2,T1_SMS_8,57,5,42,127,1665976676
714,2,T1_SMS_8,58,1,48,46,1666040904
714,2,T1_SMS_8,59,5,42,127,1666776408
714,2,T1_SMS_8,60,1,48,32,1666803012
714,2,T1_SMS_8,61,5,42,127,1667577188
714,2,T1_SMS_8,62,1,48,38,1667602144
714,2,T1_SMS_8,63,1,48,47,1668317112
714,2,T1_SMS_8,64,5,42,127,1668376912
714,2,T1_SMS_8,65,1,48,40,1669171148
714,2,T1_SMS_8,66,5,42,127,1669176648
714,2,T1_SMS_8,67,1,48,41,1669948744
714,2,T1_SMS_8,68,5,42,127,1669976308
714,2,T1_SMS_8,69,5,42,127,1670777116
714,2,T1_SMS_8,70,1,48,30,1670870736
714,2,T1_SMS_8,71,5,42,127,1671576924
714,2,T1_SMS_8,72,1,48,36,1671589692
714,2,T1_SMS_8,73,1,48,41,1672334128
714,2,T1_SMS_8,74,5,42,127,1672376800
714,2,T1_SMS_8,75,1,48,41,1673090780
714,2,T1_SMS_8,76,5,42,127,1673176312
714,2,T1_SMS_8,77,1,48,35,1673878772
714,2,T1_SMS_8,78,5,42,127,1673978048
714,2,T1_SMS_8,79,1,48,43,1674764068
714,2,T1_SMS_8,80,5,42,127,1674776976
714,2,T1_SMS_8,81,1,48,40,1675536432
714,2,T1_SMS_8,82,5,42,127,1675576784
714,2,T1_SMS_8,83,1,48,36,1676369748
714,2,T1_SMS_8,84,5,42,127,1676376368
714,2,T1_SMS_8,85,1,48,44,1677141136
714,2,T1_SMS_8,86,5,42,127,1677177100
714,2,T1_SMS_8,87,1,48,29,1677931844
714,2,T1_SMS_8,88,5,42,127,1677976908
714,2,T1_SMS_8,89,5,42,127,1678776796
714,2,T1_SMS_8,90,1,48,49,1678811776
714,2,T1_SMS_8,91,5,42,127,1679576308
714,2,T1_SMS_8,92,1,48,43,1679707776
714,2,T1_SMS_8,93,5,42,127,1680377160
714,2,T1_SMS_8,94,1,48,38,1680510156
714,2,T1_SMS_8,95,5,42,127,1681176896
714,2,T1_SMS_8,96,1,48,28,1681289988
714,2,T1_SMS_8,97,5,42,127,1681976780
714,2,T1_SMS_8,98,1,48,35,1682059732
714,2,T1_SMS_8,99,5,42,127,1682776512
714,2,T1_SMS_8,100,1,48,48,1682796328
714,2,T1_SMS_8,101,1,48,46,1683555732
714,2,T1_SMS_8,102,5,42,127,1683577160
714,2,T1_SMS_8,103,1,48,43,1684314000
714,2,T1_SMS_8,104,5,42,127,1684376892
714,2,T1_SMS_8,105,1,48,44,1685072744
714,2,T1_SMS_8,106,5,42,127,1685176836
714,2,T1_SMS_8,107,1,48,37,1685919400
714,2,T1_SMS_8,108,5,42,127,1685976436
714,2,T1_SMS_8,109,1,48,40,1686691164
714,2,T1_SMS_8,110,5,42,127,1686777212
714,2,T1_SMS_8,111,1,48,45,1687472348
714,2,T1_SMS_8,112,5,42,127,1687577084
714,2,T1_SMS_8,113,1,48,45,1688342988
714,2,T1_SMS_8,114,5,42,127,1688376832
714,2,T1_SMS_8,115,5,42,127,1689176644
714,2,T1_SMS_8,116,1,48,33,1689177612
714,2,T1_SMS_8,117,1,48,43,1689936096
714,2,T1_SMS_8,118,5,42,127,1689977220
714,2,T1_SMS_8,119,1,48,37,1690733308
714,2,T1_SMS_8,120,5,42,127,1690776804
714,2,T1_SMS_8,121,1,48,39,1691516736
714,2,T1_SMS_8,122,5,42,127,1691576760
714,2,T1_SMS_8,123,1,48,49,1692328664
714,2,T1_SMS_8,124,5,42,127,1692376720
714,2,T1_SMS_8,125,1,48,48,1693088908
714,2,T1_SMS_8,126,5,42,127,1693177052
714,2,T1_SMS_8,127,1,48,40,1693928656
714,2,T1_SMS_8,128,5,42,127,1693977008
714,2,T1_SMS_8,129,1,48,45,1694682240
714,2,T1_SMS_8,130,5,42,127,1694776576
714,2,T1_SMS_8,131,1,48,42,1695508528
714,2,T1_SMS_8,132,5,42,127,1695576696
714,2,T1_SMS_8,133,1,48,43,1696284020
714,2,T1_SMS_8,134,5,42,127,1696377708
714,2,T1_SMS_8,135,1,48,43,1697111284
714,2,T1_SMS_8,136,5,42,127,1697177088
714,2,T1_SMS_8,137,1,48,42,1697891372
714,2,T1_SMS_8,138,5,42,127,1697976676
714,2,T1_SMS_8,139,1,48,44,1698704492
714,2,T1_SMS_8,140,5,42,127,1698776628
714,2,T1_SMS_8,141,1,48,35,1699466532
714,2,T1_SMS_8,142,5,42,127,1699577396
714,2,T1_SMS_8,143,1,48,39,1700262668
714,2,T1_SMS_8,144,5,42,127,1700376980
714,2,T1_SMS_8,145,1,48,38,1701088956
714,2,T1_SMS_8,146,5,42,127,1701176732
714,2,T1_SMS_8,147,1,48,34,1701924592
714,2,T1_SMS_8,148,5,42,127,1701976392
714,2,T1_SMS_8,149,1,48,43,1702770648
714,2,T1_SMS_8,150,5,42,127,1702777344
714,2,T1_SMS_8,151,5,42,127,1703577008
714,2,T1_SMS_8,152,1,48,41,1703604288
714,2,T1_SMS_8,153,5,42,127,1704376668
714,2,T1_SMS_8,154,1,48,40,1704379712
714,2,T1_SMS_8,155,1,48,28,1705129536
714,2,T1_SMS_8,156,5,42,127,1705176544
714,2,T1_SMS_8,157,5,42,127,1705977332
714,2,T1_SMS_8,158,1,48,49,1705988900
714,2,T1_SMS_8,159,1,48,46,1706775932
714,2,T1_SMS_8,160,5,42,127,1706777500
714,2,T1_SMS_8,161,1,48,45,1707461340
714,2,T1_SMS_8,162,5,42,127,1707576700
714,2,T1_SMS_8,163,1,48,36,1708333332
714,2,T1_SMS_8,164,5,42,127,1708376300
714,2,T1_SMS_8,165,1,48,35,1709075544
714,2,T1_SMS_8,166,5,42,127,1709177536
714,2,T1_SMS_8,167,1,48,39,1709941348
714,2,T1_SMS_8,168,5,42,127,1709976912
714,2,T1_SMS_8,169,1,48,42,1710750880
714,2,T1_SMS_8,170,5,42,127,1710776644
714,2,T1_SMS_8,171,5,42,127,1711576312
714,2,T1_SMS_8,172,1,48,37,1711604936
714,2,T1_SMS_8,173,1,48,46,1712364108
714,2,T1_SMS_8,174,5,42,127,1712377380
714,2,T1_SMS_8,175,5,42,127,1713177272
714,2,T1_SMS_8,176,1,48,40,1713195056
714,2,T1_SMS_8,177,1,48,35,1713961336
714,2,T1_SMS_8,178,5,42,127,1713976776
714,2,T1_SMS_8,179,1,48,37,1714736240
714,2,T1_SMS_8,180,5,42,127,1714776288
714,2,T1_SMS_8,181,1,48,38,1715505600
714,2,T1_SMS_8,182,5,42,127,1715577388
714,2,T1_SMS_8,183,5,42,127,1716376904
714,2,T1_SMS_8,184,1,48,36,1716382712
714,2,T1_SMS_8,185,1,48,40,1717166504
714,2,T1_SMS_8,186,5,42,127,1717176780
714,2,T1_SMS_8,187,1,48,31,1717881632
714,2,T1_SMS_8,188,5,42,127,1717976500
714,2,T1_SMS_8,189,1,48,35,1718769184
714,2,T1_SMS_8,190,5,42,127,1718777148
714,2,T1_SMS_8,191,1,48,43,1719574076
714,2,T1_SMS_8,192,5,42,127,1719576880
714,2,T1_SMS_8,193,5,42,127,1720376548
714,2,T1_SMS_8,194,1,48,40,1720394848
714,2,T1_SMS_8,195,1,48,43,1721160904
714,2,T1_SMS_8,196,5,42,127,1721176420
714,2,T1_SMS_8,197,5,42,127,1721977232
714,2,T1_SMS_8,198,1,48,26,1722033460
714,2,T1_SMS_8,199,1,48,38,1722774768
714,2,T1_SMS_8,200,5,42,127,1722777184
714,2,T1_SMS_8,201,1,48,40,1723571872
714,2,T1_SMS_8,202,5,42,127,1723576768
714,2,T1_SMS_8,203,5,42,127,1724376508
714,2,T1_SMS_8,204,1,48,50,1724437368
714,2,T1_SMS_8,205,1,48,40,1725146356
714,2,T1_SMS_8,206,5,42,127,1725177132
714,2,T1_SMS_8,207,1,48,40,1725899488
714,2,T1_SMS_8,208,5,42,127,1725977088
714,2,T1_SMS_8,209,1,48,42,1726687632
714,2,T1_SMS_8,210,5,42,127,1726776600
714,2,T1_SMS_8,211,1,48,44,1727561632
714,2,T1_SMS_8,212,5,42,127,1727576332
714,2,T1_SMS_8,213,1,48,44,1728344388
714,2,T1_SMS_8,214,5,42,127,1728377284
714,2,T1_SMS_8,215,1,48,28,1729130084
714,2,T1_SMS_8,216,5,42,127,1729176944
714,2,T1_SMS_8,217,1,48,45,1729898180
714,2,T1_SMS_8,218,5,42,127,1729976752
714,2,T1_SMS_8,219,1,48,44,1730696868
714,2,T1_SMS_8,220,5,42,127,1730776484
714,2,T1_SMS_8,221,1,48,39,1731505796
714,2,T1_SMS_8,222,5,42,127,1731577264
714,2,T1_SMS_8,223,1,48,38,1732269928
714,2,T1_SMS_8,224,5,42,127,1732376908
714,2,T1_SMS_8,225,1,48,41,1733006536
714,2,T1_SMS_8,226,5,42,127,1733176716
714,2,T1_SMS_8,227,1,48,45,1733811124
714,2,T1_SMS_8,228,5,42,127,1733976304
714,2,T1_SMS_8,229,1,48,41,1734546008
714,2,T1_SMS_8,230,5,42,127,1734777180
714,2,T1_SMS_8,231,1,48,41,1735524160
714,2,T1_SMS_8,232,5,42,127,1735577004
714,2,T1_SMS_8,233,5,42,127,1736376820
714,2,T1_SMS_8,234,1,48,30,1736415984
714,2,T1_SMS_8,0,9999,9999,9999,1641174060
714,2,T1_SMS_8,1,9999,9999,9999,1641974864
714,2,T1_SMS_8,2,9999,9999,9999,1642774620
714,2,T1_SMS_8,3,9999,9999,9999,1643574376
714,2,T1_SMS_8,4,9999,9999,9999,1644374128
714,2,T1_SMS_8,5,9999,9999,9999,1645174860
714,2,T1_SMS_8,6,9999,9999,9999,1645974596
714,2,T1_SMS_8,7,9999,9999,9999,1646774328
714,2,T1_SMS_8,8,9999,9999,9999,1647574060
714,2,T1_SMS_8,9,9999,9999,9999,1648374836
714,2,T1_SMS_8,10,9999,9999,9999,1649174576
714,2,T1_SMS_8,11,9999,9999,9999,1649974384
714,2,T1_SMS_8,12,9999,9999,9999,1650774116
714,2,T1_SMS_8,13,9999,9999,9999,1651574848
714,2,T1_SMS_8,14,9999,9999,9999,1652374576
714,2,T1_SMS_8,15,9999,9999,9999,1653174384
714,2,T1_SMS_8,16,9999,9999,9999,1653974116
714,2,T1_SMS_8,17,9999,9999,9999,1654774904
714,2,T1_SMS_8,18,9999,9999,9999,1655574636
714,2,T1_SMS_8,19,9999,9999,9999,1656374368
714,2,T1_SMS_8,20,9999,9999,9999,1657174104
714,2,T1_SMS_8,21,9999,9999,9999,1657974836
714,2,T1_SMS_8,22,9999,9999,9999,1658774580
714,2,T1_SMS_8,23,9999,9999,9999,1659574392
714,2,T1_SMS_8,24,9999,9999,9999,1660374128
714,2,T1_SMS_8,25,9999,9999,9999,1661174836
714,2,T1_SMS_8,26,9999,9999,9999,1661974644
714,2,T1_SMS_8,27,9999,9999,9999,1662774376
714,2,T1_SMS_8,28,9999,9999,9999,1663574108
714,2,T1_SMS_8,29,9999,9999,9999,1664374840
714,2,T1_SMS_8,30,9999,9999,9999,1665174644
714,2,T1_SMS_8,31,9999,9999,9999,1665974384
714,2,T1_SMS_8,32,9999,9999,9999,1666774116
714,2,T1_SMS_8,33,9999,9999,9999,1667574896
714,2,T1_SMS_8,34,9999,9999,9999,1668374620
714,2,T1_SMS_8,35,9999,9999,9999,1669174356
714,2,T1_SMS_8,36,9999,9999,9999,1669974088
714,2,T1_SMS_8,37,9999,9999,9999,1670774900
714,2,T1_SMS_8,38,9999,9999,9999,1671574632
714,2,T1_SMS_8,39,9999,9999,9999,1672374360
714,2,T1_SMS_8,40,9999,9999,9999,1673174096
714,2,T1_SMS_8,41,9999,9999,9999,1673974876
714,2,T1_SMS_8,42,9999,9999,9999,1674774608
714,2,T1_SMS_8,43,9999,9999,9999,1675574344
714,2,T1_SMS_8,44,9999,9999,9999,1676374076
714,2,T1_SMS_8,45,9999,9999,9999,1677174880
714,2,T1_SMS_8,46,9999,9999,9999,1677974616
714,2,T1_SMS_8,47,9999,9999,9999,1678774356
714,2,T1_SMS_8,48,9999,9999,9999,1679574092
714,2,T1_SMS_8,49,9999,9999,9999,1680374868
714,2,T1_SMS_8,50,9999,9999,9999,1681174604
714,2,T1_SMS_8,51,9999,9999,9999,1681974336
714,2,T1_SMS_8,52,9999,9999,9999,1682774072
714,2,T1_SMS_8,53,9999,9999,9999,1683574868
714,2,T1_SMS_8,54,9999,9999,9999,1684374600
714,2,T1_SMS_8,55,9999,9999,9999,1685174320
714,2,T1_SMS_8,56,9999,9999,9999,1685974068
714,2,T1_SMS_8,57,9999,9999,9999,1686774848
714,2,T1_SMS_8,58,9999,9999,9999,1687574640
714,2,T1_SMS_8,59,9999,9999,9999,1688374392
714,2,T1_SMS_8,60,9999,9999,9999,1689174128
714,2,T1_SMS_8,61,9999,9999,9999,1689974852
714,2,T1_SMS_8,62,9999,9999,9999,1690774588
714,2,T1_SMS_8,63,9999,9999,9999,1691574320
714,2,T1_SMS_8,64,9999,9999,9999,1692374128
714,2,T1_SMS_8,65,9999,9999,9999,1693174836
714,2,T1_SMS_8,66,9999,9999,9999,1693974644
714,2,T1_SMS_8,67,9999,9999,9999,1694774360
714,2,T1_SMS_8,68,9999,9999,9999,1695574108
714,2,T1_SMS_8,69,9999,9999,9999,1696374836
714,2,T1_SMS_8,70,9999,9999,9999,1697174648
714,2,T1_SMS_8,71,9999,9999,9999,1697974384
714,2,T1_SMS_8,72,9999,9999,9999,1698774116
714,2,T1_SMS_8,73,9999,9999,9999,1699574880
714,2,T1_SMS_8,74,9999,9999,9999,1700374616
714,2,T1_SMS_8,75,9999,9999,9999,1701174364
714,2,T1_SMS_8,76,9999,9999,9999,1701974100
714,2,T1_SMS_8,77,9999,9999,9999,1702774904
714,2,T1_SMS_8,78,9999,9999,9999,1703574644
714,2,T1_SMS_8,79,9999,9999,9999,1704374376
714,2,T1_SMS_8,80,9999,9999,9999,1705174104
714,2,T1_SMS_8,81,9999,9999,9999,1705974892
714,2,T1_SMS_8,82,9999,9999,9999,1706774624
714,2,T1_SMS_8,83,9999,9999,9999,1707574336
714,2,T1_SMS_8,84,9999,9999,9999,1708374084
714,2,T1_SMS_8,85,9999,9999,9999,1709174852
714,2,T1_SMS_8,86,9999,9999,9999,1709974620
714,2,T1_SMS_8,87,9999,9999,9999,1710774352
714,2,T1_SMS_8,88,9999,9999,9999,1711574096
714,2,T1_SMS_8,89,9999,9999,9999,1712374868
714,2,T1_SMS_8,90,9999,9999,9999,1713174608
714,2,T1_SMS_8,91,9999,9999,9999,1713974336
714,2,T1_SMS_8,92,9999,9999,9999,1714774072
714,2,T1_SMS_8,93,9999,9999,9999,1715574876
714,2,T1_SMS_8,94,9999,9999,9999,1716374616
714,2,T1_SMS_8,95,9999,9999,9999,1717174340
714,2,T1_SMS_8,96,9999,9999,9999,1717974108
714,2,T1_SMS_8,97,9999,9999,9999,1718774856
714,2,T1_SMS_8,98,9999,9999,9999,1719574592
714,2,T1_SMS_8,99,9999,9999,9999,1720374328
714,2,T1_SMS_8,100,9999,9999,9999,1721174132
714,2,T1_SMS_8,101,9999,9999,9999,1721974868
714,2,T1_SMS_8,102,9999,9999,9999,1722774636
714,2,T1_SMS_8,103,9999,9999,9999,1723574328
714,2,T1_SMS_8,104,9999,9999,9999,1724374068
714,2,T1_SMS_8,105,9999,9999,9999,1725174840
714,2,T1_SMS_8,106,9999,9999,9999,1725974648
714,2,T1_SMS_8,107,9999,9999,9999,1726774380
714,2,T1_SMS_8,108,9999,9999,9999,1727574116
714,2,T1_SMS_8,109,9999,9999,9999,1728374844
714,2,T1_SMS_8,110,9999,9999,9999,1729174580
714,2,T1_SMS_8,111,9999,9999,9999,1729974388
714,2,T1_SMS_8,112,9999,9999,9999,1730774120
714,2,T1_SMS_8,113,9999,9999,9999,1731574900
714,2,T1_SMS_8,114,9999,9999,9999,1732374616
714,2,T1_SMS_8,115,9999,9999,9999,1733174352
714,2,T1_SMS_8,116,9999,9999,9999,1733974084
714,2,T1_SMS_8,117,9999,9999,9999,1734774888
714,2,T1_SMS_8,118,9999,9999,9999,1735574640
714,2,T1_SMS_8,119,9999,9999,9999,1736374376
715,23,Ticks_Phase_5,0,5,42,127,1747544440
715,23,Ticks_Phase_5,1,5,42,127,1748045124
715,23,Ticks_Phase_5,2,5,42,127,1748544832
715,23,Ticks_Phase_5,3,5,42,127,1749044688
715,23,Ticks_Phase_5,4,5,42,127,1749545448
715,23,Ticks_Phase_5,5,1,48,30,1749583768
715,23,Ticks_Phase_5,6,5,42,127,1750044988
715,23,Ticks_Phase_5,7,1,48,36,1750148928
715,23,Ticks_Phase_5,8,1,48,42,1750533636
715,23,Ticks_Phase_5,9,5,42,127,1750544892
715,23,Ticks_Phase_5,10,1,48,37,1750990856
715,23,Ticks_Phase_5,11,5,42,127,1751044656
715,23,Ticks_Phase_5,12,1,48,43,1751475272
715,23,Ticks_Phase_5,13,5,42,127,1751545240
715,23,Ticks_Phase_5,14,1,48,42,1751978328
715,23,Ticks_Phase_5,15,5,42,127,1752044780
715,23,Ticks_Phase_5,16,1,48,31,1752533660
715,23,Ticks_Phase_5,17,5,42,127,1752544620
715,23,Ticks_Phase_5,18,1,48,30,1753020232
715,23,Ticks_Phase_5,19,5,42,127,1753045800
715,23,Ticks_Phase_5,20,1,48,33,1753488096
715,23,Ticks_Phase_5,21,5,42,127,1753545044
715,23,Ticks_Phase_5,22,1,48,20,1754040504
715,23,Ticks_Phase_5,23,5,42,127,1754044732
715,23,Ticks_Phase_5,24,5,42,127,1754544500
715,23,Ticks_Phase_5,25,1,48,20,1754556536
715,23,Ticks_Phase_5,26,5,42,127,1755045084
715,23,Ticks_Phase_5,27,1,48,37,1755055020
715,23,Ticks_Phase_5,28,5,42,127,1755544920
715,23,Ticks_Phase_5,29,1,48,34,1755575976
715,23,Ticks_Phase_5,30,1,48,34,1756016264
715,23,Ticks_Phase_5,31,5,42,127,1756044676
715,23,Ticks_Phase_5,32,5,42,127,1756545348
715,23,Ticks_Phase_5,33,1,48,27,1756633020
715,23,Ticks_Phase_5,34,5,42,127,1757045036
715,23,Ticks_Phase_5,35,1,48,37,1757096084
715,23,Ticks_Phase_5,36,5,42,127,1757544872
715,23,Ticks_Phase_5,37,1,48,35,1757609768
715,23,Ticks_Phase_5,38,5,42,127,1758044536
715,23,Ticks_Phase_5,39,1,48,35,1758080552
715,23,Ticks_Phase_5,40,1,48,39,1758532568
715,23,Ticks_Phase_5,41,5,42,127,1758545116
715,23,Ticks_Phase_5,42,1,48,35,1759018484
715,23,Ticks_Phase_5,43,5,42,127,1759044876
715,23,Ticks_Phase_5,44,1,48,35,1759500120
715,23,Ticks_Phase_5,45,5,42,127,1759544712
715,23,Ticks_Phase_5,46,1,48,36,1760013524
715,23,Ticks_Phase_5,47,5,42,127,1760045672
715,23,Ticks_Phase_5,48,1,48,39,1760513660
715,23,Ticks_Phase_5,49,5,42,127,1760555692
715,23,Ticks_Phase_5,50,1,48,33,1761050332
715,23,Ticks_Phase_5,51,5,42,127,1761055084
715,23,Ticks_Phase_5,52,5,42,127,1761554780
715,23,Ticks_Phase_5,53,1,48,40,1761559772
715,23,Ticks_Phase_5,54,1,48,30,1762029792
715,23,Ticks_Phase_5,55,5,42,127,1762054536
715,23,Ticks_Phase_5,56,5,42,127,1762545020
715,23,Ticks_Phase_5,57,1,48,39,1762558772
715,23,Ticks_Phase_5,58,1,48,38,1763033596
715,23,Ticks_Phase_5,59,5,42,127,1763044776
715,23,Ticks_Phase_5,60,5,42,127,1763544548
715,23,Ticks_Phase_5,61,1,48,42,1763559196
715,23,Ticks_Phase_5,62,1,48,39,1764029216
715,23,Ticks_Phase_5,63,5,42,127,1764045276
715,23,Ticks_Phase_5,64,1,48,38,1764513632
715,23,Ticks_Phase_5,65,5,42,127,1764544740
715,23,Ticks_Phase_5,66,5,42,127,1765044508
715,23,Ticks_Phase_5,67,1,48,33,1765057588
715,23,Ticks_Phase_5,68,5,42,127,1765545616
715,23,Ticks_Phase_5,69,1,48,37,1765567688
715,23,Ticks_Phase_5,70,1,48,37,1766039580
715,23,Ticks_Phase_5,71,5,42,127,1766045000
715,23,Ticks_Phase_5,72,1,48,35,1766534848
715,23,Ticks_Phase_5,73,5,42,127,1766544688
715,23,Ticks_Phase_5,74,1,48,32,1767031312
715,23,Ticks_Phase_5,75,5,42,127,1767044748
715,23,Ticks_Phase_5,76,1,48,32,1767525088
715,23,Ticks_Phase_5,77,5,42,127,1767545188
715,23,Ticks_Phase_5,78,1,48,33,1768031736
715,23,Ticks_Phase_5,79,5,42,127,1768044876
715,23,Ticks_Phase_5,80,5,42,127,1768544568
715,23,Ticks_Phase_5,81,1,48,27,1768557576
715,23,Ticks_Phase_5,82,5,42,127,1769045352
715,23,Ticks_Phase_5,83,1,48,35,1769054692
715,23,Ticks_Phase_5,84,1,48,33,1769500044
715,23,Ticks_Phase_5,85,5,42,127,1769545008
715,23,Ticks_Phase_5,86,5,42,127,1770044780
715,23,Ticks_Phase_5,87,1,48,31,1770164076
715,23,Ticks_Phase_5,88,5,42,127,1770544688
715,23,Ticks_Phase_5,89,1,48,43,1770635384
715,23,Ticks_Phase_5,90,5,42,127,1771045352
715,23,Ticks_Phase_5,91,1,48,33,1771065924
715,23,Ticks_Phase_5,92,1,48,38,1771554928
715,23,Ticks_Phase_5,93,5,42,127,1771556412
715,23,Ticks_Phase_5,94,5,42,127,1772054912
715,23,Ticks_Phase_5,95,1,48,38,1772073092
715,23,Ticks_Phase_5,96,1,48,36,1772536144
715,23,Ticks_Phase_5,97,5,42,127,1772554520
715,23,Ticks_Phase_5,98,5,42,127,1773055560
715,23,Ticks_Phase_5,99,1,48,39,1773059132
715,23,Ticks_Phase_5,100,1,48,22,1773547800
715,23,Ticks_Phase_5,101,5,42,127,1773555168
715,23,Ticks_Phase_5,102,1,48,38,1774027716
715,23,Ticks_Phase_5,103,5,42,127,1774054632
715,23,Ticks_Phase_5,104,1,48,43,1774507484
715,23,Ticks_Phase_5,105,5,42,127,1774554616
715,23,Ticks_Phase_5,106,1,48,39,1775028368
715,23,Ticks_Phase_5,107,5,42,127,1775055352
715,23,Ticks_Phase_5,108,5,42,127,1775554896
715,23,Ticks_Phase_5,109,1,48,36,1775557568
715,23,Ticks_Phase_5,110,1,48,24,1776051848
715,23,Ticks_Phase_5,111,5,42,127,1776054580
715,23,Ticks_Phase_5,112,1,48,43,1776546152
715,23,Ticks_Phase_5,113,5,42,127,1776555316
715,23,Ticks_Phase_5,114,1,48,40,1776995888
715,23,Ticks_Phase_5,115,5,42,127,1777055224
715,23,Ticks_Phase_5,116,5,42,127,1777554696
715,23,Ticks_Phase_5,117,1,48,46,1777631356
715,23,Ticks_Phase_5,118,5,42,127,1778054460
715,23,Ticks_Phase_5,119,1,48,32,1778105364
715,23,Ticks_Phase_5,120,5,42,127,1778555344
715,23,Ticks_Phase_5,121,1,48,35,1778587520
715,23,Ticks_Phase_5,122,1,48,43,1779023820
715,23,Ticks_Phase_5,123,5,42,127,1779054952
715,23,Ticks_Phase_5,124,1,48,46,1779486816
715,23,Ticks_Phase_5,125,5,42,127,1779575088
715,23,Ticks_Phase_5,126,1,48,39,1780035856
715,23,Ticks_Phase_5,127,5,42,127,1780074848
715,23,Ticks_Phase_5,128,5,42,127,1780574768
715,23,Ticks_Phase_5,129,1,48,39,1780889364
715,23,Ticks_Phase_5,130,5,42,127,1781075476
715,23,Ticks_Phase_5,131,1,48,33,1781442292
715,23,Ticks_Phase_5,132,5,42,127,1781575312
715,23,Ticks_Phase_5,133,1,48,36,1781976812
715,23,Ticks_Phase_5,134,5,42,127,1782074792
715,23,Ticks_Phase_5,135,1,48,42,1782536416
715,23,Ticks_Phase_5,136,5,42,127,1782574336
715,23,Ticks_Phase_5,137,5,42,127,1783075376
715,23,Ticks_Phase_5,138,1,48,39,1783084268
715,23,Ticks_Phase_5,139,5,42,127,1783574916
715,23,Ticks_Phase_5,140,1,48,35,1783584780
715,23,Ticks_Phase_5,141,1,48,38,1784047160
715,23,Ticks_Phase_5,142,5,42,127,1784074524
715,23,Ticks_Phase_5,143,5,42,127,1784575488
715,23,Ticks_Phase_5,144,1,48,36,1784689988
715,23,Ticks_Phase_5,145,5,42,127,1785075248
715,23,Ticks_Phase_5,146,1,48,38,1785109372
715,23,Ticks_Phase_5,147,1,48,38,1785566292
715,23,Ticks_Phase_5,148,5,42,127,1785574856
715,23,Ticks_Phase_5,149,5,42,127,1786074476
715,23,Ticks_Phase_5,150,1,48,31,1786095344
715,23,Ticks_Phase_5,151,1,48,40,1786537804
715,23,Ticks_Phase_5,152,5,42,127,1786575352
715,23,Ticks_Phase_5,153,1,48,21,1787062888
715,23,Ticks_Phase_5,154,5,42,127,1787075044
715,23,Ticks_Phase_5,155,1,48,46,1787551480
715,23,Ticks_Phase_5,156,5,42,127,1787574660
715,23,Ticks_Phase_5,157,5,42,127,1788054960
715,23,Ticks_Phase_5,158,1,48,35,1788083620
715,23,Ticks_Phase_5,159,1,48,43,1788522400
715,23,Ticks_Phase_5,160,5,42,127,1788554492
715,23,Ticks_Phase_5,161,1,48,46,1789050252
715,23,Ticks_Phase_5,162,5,42,127,1789055376
715,23,Ticks_Phase_5,163,1,48,38,1789543056
715,23,Ticks_Phase_5,164,5,42,127,1789555136
715,23,Ticks_Phase_5,165,1,48,40,1790022116
715,23,Ticks_Phase_5,166,5,42,127,1790054904
715,23,Ticks_Phase_5,167,5,42,127,1790554348
715,23,Ticks_Phase_5,168,1,48,35,1790555316
715,23,Ticks_Phase_5,169,1,48,40,1791010936
715,23,Ticks_Phase_5,170,5,42,127,1791055300
715,23,Ticks_Phase_5,171,1,48,46,1791533620
715,23,Ticks_Phase_5,172,5,42,127,1791555136
715,23,Ticks_Phase_5,173,1,48,39,1792022360
715,23,Ticks_Phase_5,174,5,42,127,1792054676
715,23,Ticks_Phase_5,175,1,48,44,1792489400
715,23,Ticks_Phase_5,176,5,42,127,1792555336
715,23,Ticks_Phase_5,177,5,42,127,1793055256
715,23,Ticks_Phase_5,178,1,48,35,1793067064
715,23,Ticks_Phase_5,179,5,42,127,1793554944
715,23,Ticks_Phase_5,180,1,48,38,1793565032
715,23,Ticks_Phase_5,181,1,48,42,1794054032
715,23,Ticks_Phase_5,182,5,42,127,1794055524
715,23,Ticks_Phase_5,183,1,48,40,1794553776
715,23,Ticks_Phase_5,184,5,42,127,1794555212
715,23,Ticks_Phase_5,185,1,48,39,1795016304
715,23,Ticks_Phase_5,186,5,42,127,1795054900
715,23,Ticks_Phase_5,187,1,48,35,1795506928
715,23,Ticks_Phase_5,188,5,42,127,1795554588
715,23,Ticks_Phase_5,189,5,42,127,1796005084
715,23,Ticks_Phase_5,190,1,48,39,1796019360
715,23,Ticks_Phase_5,191,1,48,40,1796443160
715,23,Ticks_Phase_5,192,5,42,127,1796505064
715,23,Ticks_Phase_5,193,5,42,127,1797004532
715,23,Ticks_Phase_5,194,1,48,39,1797023084
715,23,Ticks_Phase_5,195,5,42,127,1797505344
715,23,Ticks_Phase_5,196,1,48,32,1797508464
715,23,Ticks_Phase_5,197,5,42,127,1798005180
715,23,Ticks_Phase_5,198,1,48,30,1798013012
715,23,Ticks_Phase_5,199,1,48,32,1798496524
715,23,Ticks_Phase_5,200,5,42,127,1798505008
715,23,Ticks_Phase_5,201,1,48,46,1798972676
715,23,Ticks_Phase_5,202,5,42,127,1799004600
715,23,Ticks_Phase_5,203,1,48,39,1799457452
715,23,Ticks_Phase_5,204,5,42,127,1799505260
715,23,Ticks_Phase_5,205,1,48,30,1799980128
715,23,Ticks_Phase_5,206,5,42,127,1800005096
715,23,Ticks_Phase_5,207,1,48,41,1800457876
715,23,Ticks_Phase_5,208,5,42,127,1800504640
715,23,Ticks_Phase_5,209,1,48,38,1800951416
715,23,Ticks_Phase_5,210,5,42,127,1801005448
715,23,Ticks_Phase_5,211,1,48,38,1801419432
715,23,Ticks_Phase_5,212,5,42,127,1801515320
715,23,Ticks_Phase_5,213,5,42,127,1802015088
715,23,Ticks_Phase_5,214,1,48,39,1802049208
715,23,Ticks_Phase_5,215,1,48,38,1802511516
715,23,Ticks_Phase_5,216,5,42,127,1802514920
715,23,Ticks_Phase_5,217,5,42,127,1803014540
715,23,Ticks_Phase_5,218,1,48,43,1803018108
715,23,Ticks_Phase_5,219,5,42,127,1803515200
715,23,Ticks_Phase_5,220,1,48,39,1803537420
715,23,Ticks_Phase_5,221,5,42,127,1804014888
715,23,Ticks_Phase_5,222,1,48,38,1804018984
715,23,Ticks_Phase_5,223,1,48,42,1804501132
715,23,Ticks_Phase_5,224,5,42,127,1804564968
715,23,Ticks_Phase_5,225,1,48,41,1805048600
715,23,Ticks_Phase_5,226,5,42,127,1805064584
715,23,Ticks_Phase_5,227,1,48,42,1805542292
715,23,Ticks_Phase_5,228,5,42,127,1805565320
715,23,Ticks_Phase_5,229,1,48,42,1806053224
715,23,Ticks_Phase_5,230,5,42,127,1806065156
715,23,Ticks_Phase_5,231,5,42,127,1806565000
715,23,Ticks_Phase_5,232,1,48,44,1806587888
715,23,Ticks_Phase_5,233,5,42,127,1807064392
715,23,Ticks_Phase_5,234,1,48,38,1807075972
715,23,Ticks_Phase_5,235,1,48,41,1807527868
715,23,Ticks_Phase_5,236,5,42,127,1807565340
715,23,Ticks_Phase_5,237,1,48,43,1808037896
715,23,Ticks_Phase_5,238,5,42,127,1808065104
715,23,Ticks_Phase_5,239,1,48,38,1808505752
715,23,Ticks_Phase_5,240,5,42,127,1808564868
715,23,Ticks_Phase_5,241,1,48,38,1809050968
715,23,Ticks_Phase_5,242,5,42,127,1809065380
715,23,Ticks_Phase_5,243,1,48,35,1809523628
715,23,Ticks_Phase_5,244,5,42,127,1809564992
715,23,Ticks_Phase_5,245,1,48,38,1810039484
715,23,Ticks_Phase_5,246,5,42,127,1810064980
715,23,Ticks_Phase_5,247,1,48,42,1810536484
715,23,Ticks_Phase_5,248,5,42,127,1810564368
715,23,Ticks_Phase_5,249,1,48,29,1811032628
715,23,Ticks_Phase_5,250,5,42,127,1811065252
715,23,Ticks_Phase_5,251,1,48,38,1811549632
715,23,Ticks_Phase_5,252,5,42,127,1811565012
715,23,Ticks_Phase_5,253,1,48,42,1811998000
715,23,Ticks_Phase_5,254,5,42,127,1812064552
715,23,Ticks_Phase_5,255,5,42,127,1812565344
715,23,Ticks_Phase_5,256,1,48,36,1812624736
715,23,Ticks_Phase_5,257,1,48,39,1813085164
715,23,Ticks_Phase_5,258,5,42,127,1813165400
715,23,Ticks_Phase_5,259,1,48,35,1813651800
715,23,Ticks_Phase_5,260,5,42,127,1813675348
715,23,Ticks_Phase_5,261,1,48,37,1814141452
715,23,Ticks_Phase_5,262,5,42,127,1814175112
715,23,Ticks_Phase_5,263,5,42,127,1814674956
715,23,Ticks_Phase_5,264,1,48,40,1814682412
715,23,Ticks_Phase_5,265,1,48,42,1815139412
715,23,Ticks_Phase_5,266,5,42,127,1815174412
715,23,Ticks_Phase_5,267,1,48,40,1815638548
715,23,Ticks_Phase_5,268,5,42,127,1815675220
715,23,Ticks_Phase_5,269,5,42,127,1816174992
715,23,Ticks_Phase_5,270,1,48,32,1816202680
715,23,Ticks_Phase_5,271,5,42,127,1816674756
715,23,Ticks_Phase_5,272,1,48,37,1816680940
715,23,Ticks_Phase_5,273,5,42,127,1817175540
715,23,Ticks_Phase_5,274,1,48,39,1817198304
715,23,Ticks_Phase_5,275,1,48,30,1817671820
715,23,Ticks_Phase_5,276,5,42,127,1817674996
715,23,Ticks_Phase_5,277,1,48,35,1818163052
715,23,Ticks_Phase_5,278,5,42,127,1818174836
715,23,Ticks_Phase_5,279,1,48,39,1818592796
715,23,Ticks_Phase_5,280,5,42,127,1818674524
715,23,Ticks_Phase_5,281,5,42,127,1819175192
715,23,Ticks_Phase_5,282,1,48,17,1819223920
715,23,Ticks_Phase_5,283,1,48,43,1819644592
715,23,Ticks_Phase_5,284,5,42,127,1819675096
715,23,Ticks_Phase_5,285,1,48,34,1820115972
715,23,Ticks_Phase_5,286,5,42,127,1820174860
715,23,Ticks_Phase_5,287,1,48,37,1820646440
715,23,Ticks_Phase_5,288,5,42,127,1820674400
715,23,Ticks_Phase_5,289,1,48,45,1821133544
715,23,Ticks_Phase_5,290,5,42,127,1821175060
715,23,Ticks_Phase_5,291,1,48,23,1821211788
715,23,Ticks_Phase_5,292,1,48,33,1821645268
715,23,Ticks_Phase_5,293,5,42,127,1821674800
715,23,Ticks_Phase_5,294,1,48,32,1822166748
715,23,Ticks_Phase_5,295,5,42,127,1822174788
715,23,Ticks_Phase_5,296,5,42,127,1822574884
715,23,Ticks_Phase_5,297,1,48,29,1822651016
715,23,Ticks_Phase_5,298,5,42,127,1823074944
715,23,Ticks_Phase_5,299,1,48,18,1823076812
715,23,Ticks_Phase_5,300,1,48,29,1823521248
715,23,Ticks_Phase_5,301,5,42,127,1823575280
715,23,Ticks_Phase_5,302,1,48,24,1824030448
715,23,Ticks_Phase_5,303,5,42,127,1824075264
715,23,Ticks_Phase_5,304,1,48,22,1824561440
715,23,Ticks_Phase_5,305,5,42,127,1824574876
715,23,Ticks_Phase_5,306,1,48,29,1825055144
715,23,Ticks_Phase_5,307,5,42,127,1825074788
715,23,Ticks_Phase_5,308,1,48,24,1825566212
715,23,Ticks_Phase_5,309,5,42,127,1825575228
715,23,Ticks_Phase_5,310,1,48,32,1826015800
715,23,Ticks_Phase_5,311,5,42,127,1826075140
715,23,Ticks_Phase_5,312,5,42,127,1826574832
715,23,Ticks_Phase_5,313,1,48,25,1826613080
715,23,Ticks_Phase_5,314,5,42,127,1827074668
715,23,Ticks_Phase_5,315,1,48,24,1827082280
715,23,Ticks_Phase_5,316,1,48,40,1827522268
715,23,Ticks_Phase_5,317,5,42,127,1827575100
715,23,Ticks_Phase_5,318,1,48,32,1828047128
715,23,Ticks_Phase_5,319,5,42,127,1828074788
715,23,Ticks_Phase_5,320,1,48,32,1828543072
715,23,Ticks_Phase_5,321,5,42,127,1828574628
715,23,Ticks_Phase_5,322,1,48,29,1829019536
715,23,Ticks_Phase_5,323,5,42,127,1829075284
715,23,Ticks_Phase_5,324,1,48,38,1829557720
715,23,Ticks_Phase_5,325,5,42,127,1829574972
715,23,Ticks_Phase_5,326,1,48,36,1830064228
715,23,Ticks_Phase_5,327,5,42,127,1830074588
715,23,Ticks_Phase_5,328,1,48,33,1830566308
715,23,Ticks_Phase_5,329,5,42,127,1830574648
715,23,Ticks_Phase_5,330,1,48,40,1831010652
715,23,Ticks_Phase_5,331,5,42,127,1831075164
715,23,Ticks_Phase_5,332,1,48,34,1831516560
715,23,Ticks_Phase_5,333,5,42,127,1831574776
715,23,Ticks_Phase_5,334,1,48,34,1831959376
715,23,Ticks_Phase_5,335,5,42,127,1832074600
715,23,Ticks_Phase_5,0,9999,9999,9999,1747542080
715,23,Ticks_Phase_5,1,9999,9999,9999,1748042836
715,23,Ticks_Phase_5,2,9999,9999,9999,1748542544
715,23,Ticks_Phase_5,3,9999,9999,9999,1749042256
715,23,Ticks_Phase_5,4,9999,9999,9999,1749543012
715,23,Ticks_Phase_5,5,9999,9999,9999,1750042700
715,23,Ticks_Phase_5,6,9999,9999,9999,1750542456
715,23,Ticks_Phase_5,7,9999,9999,9999,1751042144
715,23,Ticks_Phase_5,8,9999,9999,9999,1751542880
715,23,Ticks_Phase_5,9,9999,9999,9999,1752042568
715,23,Ticks_Phase_5,10,9999,9999,9999,1752542332
715,23,Ticks_Phase_5,11,9999,9999,9999,1753043068
715,23,Ticks_Phase_5,12,9999,9999,9999,1753542756
715,23,Ticks_Phase_5,13,9999,9999,9999,1754042444
715,23,Ticks_Phase_5,14,9999,9999,9999,1754542140
715,23,Ticks_Phase_5,15,9999,9999,9999,1755042872
715,23,Ticks_Phase_5,16,9999,9999,9999,1755542636
715,23,Ticks_Phase_5,17,9999,9999,9999,1756042316
715,23,Ticks_Phase_5,18,9999,9999,9999,1756543060
715,23,Ticks_Phase_5,19,9999,9999,9999,1757042748
715,23,Ticks_Phase_5,20,9999,9999,9999,1757542512
715,23,Ticks_Phase_5,21,9999,9999,9999,1758042172
715,23,Ticks_Phase_5,22,9999,9999,9999,1758542900
715,23,Ticks_Phase_5,23,9999,9999,9999,1759042664
715,23,Ticks_Phase_5,24,9999,9999,9999,1759542352
715,23,Ticks_Phase_5,25,9999,9999,9999,1760043088
715,23,Ticks_Phase_5,26,9999,9999,9999,1760553036
715,23,Ticks_Phase_5,27,9999,9999,9999,1761052796
715,23,Ticks_Phase_5,28,9999,9999,9999,1761552492
715,23,Ticks_Phase_5,29,9999,9999,9999,1762052176
715,23,Ticks_Phase_5,30,9999,9999,9999,1762542656
715,23,Ticks_Phase_5,31,9999,9999,9999,1763042416
715,23,Ticks_Phase_5,32,9999,9999,9999,1763542112
715,23,Ticks_Phase_5,33,9999,9999,9999,1764042840
715,23,Ticks_Phase_5,34,9999,9999,9999,1764542528
715,23,Ticks_Phase_5,35,9999,9999,9999,1765042296
715,23,Ticks_Phase_5,36,9999,9999,9999,1765543032
715,23,Ticks_Phase_5,37,9999,9999,9999,1766042712
715,23,Ticks_Phase_5,38,9999,9999,9999,1766542400
715,23,Ticks_Phase_5,39,9999,9999,9999,1767042164
715,23,Ticks_Phase_5,40,9999,9999,9999,1767542900
715,23,Ticks_Phase_5,41,9999,9999,9999,1768042588
715,23,Ticks_Phase_5,42,9999,9999,9999,1768542332
715,23,Ticks_Phase_5,43,9999,9999,9999,1769043064
715,23,Ticks_Phase_5,44,9999,9999,9999,1769542724
715,23,Ticks_Phase_5,45,9999,9999,9999,1770042492
715,23,Ticks_Phase_5,46,9999,9999,9999,1770542180
715,23,Ticks_Phase_5,47,9999,9999,9999,1771042916
715,23,Ticks_Phase_5,48,9999,9999,9999,1771552864
715,23,Ticks_Phase_5,49,9999,9999,9999,1772052552
715,23,Ticks_Phase_5,50,9999,9999,9999,1772552308
715,23,Ticks_Phase_5,51,9999,9999,9999,1773053048
715,23,Ticks_Phase_5,52,9999,9999,9999,1773552732
715,23,Ticks_Phase_5,53,9999,9999,9999,1774052420
715,23,Ticks_Phase_5,54,9999,9999,9999,1774552180
715,23,Ticks_Phase_5,55,9999,9999,9999,1775052916
715,23,Ticks_Phase_5,56,9999,9999,9999,1775552612
715,23,Ticks_Phase_5,57,9999,9999,9999,1776052292
715,23,Ticks_Phase_5,58,9999,9999,9999,1776553028
715,23,Ticks_Phase_5,59,9999,9999,9999,1777052792
715,23,Ticks_Phase_5,60,9999,9999,9999,1777552484
715,23,Ticks_Phase_5,61,9999,9999,9999,1778052176
715,23,Ticks_Phase_5,62,9999,9999,9999,1778552908
715,23,Ticks_Phase_5,63,9999,9999,9999,1779052664
715,23,Ticks_Phase_5,64,9999,9999,9999,1779572796
715,23,Ticks_Phase_5,65,9999,9999,9999,1780072560
715,23,Ticks_Phase_5,66,9999,9999,9999,1780572232
715,23,Ticks_Phase_5,67,9999,9999,9999,1781072968
715,23,Ticks_Phase_5,68,9999,9999,9999,1781572728
715,23,Ticks_Phase_5,69,9999,9999,9999,1782072432
715,23,Ticks_Phase_5,70,9999,9999,9999,1782572124
715,23,Ticks_Phase_5,71,9999,9999,9999,1783072868
715,23,Ticks_Phase_5,72,9999,9999,9999,1783572552
715,23,Ticks_Phase_5,73,9999,9999,9999,1784072312
715,23,Ticks_Phase_5,74,9999,9999,9999,1784573052
715,23,Ticks_Phase_5,75,9999,9999,9999,1785072740
715,23,Ticks_Phase_5,76,9999,9999,9999,1785572420
715,23,Ticks_Phase_5,77,9999,9999,9999,1786072192
715,23,Ticks_Phase_5,78,9999,9999,9999,1786572920
715,23,Ticks_Phase_5,79,9999,9999,9999,1787072608
715,23,Ticks_Phase_5,80,9999,9999,9999,1787572296
715,23,Ticks_Phase_5,81,9999,9999,9999,1788052596
715,23,Ticks_Phase_5,82,9999,9999,9999,1788552280
715,23,Ticks_Phase_5,83,9999,9999,9999,1789053012
715,23,Ticks_Phase_5,84,9999,9999,9999,1789552704
715,23,Ticks_Phase_5,85,9999,9999,9999,1790052468
715,23,Ticks_Phase_5,86,9999,9999,9999,1790552136
715,23,Ticks_Phase_5,87,9999,9999,9999,1791052864
715,23,Ticks_Phase_5,88,9999,9999,9999,1791552628
715,23,Ticks_Phase_5,89,9999,9999,9999,1792052316
715,23,Ticks_Phase_5,90,9999,9999,9999,1792553048
715,23,Ticks_Phase_5,91,9999,9999,9999,1793052744
715,23,Ticks_Phase_5,92,9999,9999,9999,1793552508
715,23,Ticks_Phase_5,93,9999,9999,9999,1794052196
715,23,Ticks_Phase_5,94,9999,9999,9999,1794552932
715,23,Ticks_Phase_5,95,9999,9999,9999,1795052612
715,23,Ticks_Phase_5,96,9999,9999,9999,1795552376
715,23,Ticks_Phase_5,97,9999,9999,9999,1796002868
715,23,Ticks_Phase_5,98,9999,9999,9999,1796502628
715,23,Ticks_Phase_5,99,9999,9999,9999,1797002320
715,23,Ticks_Phase_5,100,9999,9999,9999,1797503056
715,23,Ticks_Phase_5,101,9999,9999,9999,1798002744
715,23,Ticks_Phase_5,102,9999,9999,9999,1798502500
715,23,Ticks_Phase_5,103,9999,9999,9999,1799002236
715,23,Ticks_Phase_5,104,9999,9999,9999,1799502972
715,23,Ticks_Phase_5,105,9999,9999,9999,1800002660
715,23,Ticks_Phase_5,106,9999,9999,9999,1800502352
715,23,Ticks_Phase_5,107,9999,9999,9999,1801003088
715,23,Ticks_Phase_5,108,9999,9999,9999,1801513032
715,23,Ticks_Phase_5,109,9999,9999,9999,1802012728
715,23,Ticks_Phase_5,110,9999,9999,9999,1802512484
715,23,Ticks_Phase_5,111,9999,9999,9999,1803012180
715,23,Ticks_Phase_5,112,9999,9999,9999,1803512912
715,23,Ticks_Phase_5,113,9999,9999,9999,1804012600
715,23,Ticks_Phase_5,114,9999,9999,9999,1804562532
715,23,Ticks_Phase_5,115,9999,9999,9999,1805062224
715,23,Ticks_Phase_5,116,9999,9999,9999,1805562956
715,23,Ticks_Phase_5,117,9999,9999,9999,1806062644
715,23,Ticks_Phase_5,118,9999,9999,9999,1806562412
715,23,Ticks_Phase_5,119,9999,9999,9999,1807062104
715,23,Ticks_Phase_5,120,9999,9999,9999,1807562832
715,23,Ticks_Phase_5,121,9999,9999,9999,1808062520
715,23,Ticks_Phase_5,122,9999,9999,9999,1808562284
715,23,Ticks_Phase_5,123,9999,9999,9999,1809063016
715,23,Ticks_Phase_5,124,9999,9999,9999,1809562708
715,23,Ticks_Phase_5,125,9999,9999,9999,1810062396
715,23,Ticks_Phase_5,126,9999,9999,9999,1810562156
715,23,Ticks_Phase_5,127,9999,9999,9999,1811062892
715,23,Ticks_Phase_5,128,9999,9999,9999,1811562580
715,23,Ticks_Phase_5,129,9999,9999,9999,1812062268
715,23,Ticks_Phase_5,130,9999,9999,9999,1812563056
715,23,Ticks_Phase_5,131,9999,9999,9999,1813163112
715,23,Ticks_Phase_5,132,9999,9999,9999,1813673060
715,23,Ticks_Phase_5,133,9999,9999,9999,1814172752
715,23,Ticks_Phase_5,134,9999,9999,9999,1814672444
715,23,Ticks_Phase_5,135,9999,9999,9999,1815172200
715,23,Ticks_Phase_5,136,9999,9999,9999,1815672936
715,23,Ticks_Phase_5,137,9999,9999,9999,1816172628
715,23,Ticks_Phase_5,138,9999,9999,9999,1816672320
715,23,Ticks_Phase_5,139,9999,9999,9999,1817173104
715,23,Ticks_Phase_5,140,9999,9999,9999,1817672784
715,23,Ticks_Phase_5,141,9999,9999,9999,1818172476
715,23,Ticks_Phase_5,142,9999,9999,9999,1818672236
715,23,Ticks_Phase_5,143,9999,9999,9999,1819172980
715,23,Ticks_Phase_5,144,9999,9999,9999,1819672664
715,23,Ticks_Phase_5,145,9999,9999,9999,1820172348
715,23,Ticks_Phase_5,146,9999,9999,9999,1820672112
715,23,Ticks_Phase_5,147,9999,9999,9999,1821172848
715,23,Ticks_Phase_5,148,9999,9999,9999,1821672516
715,23,Ticks_Phase_5,149,9999,9999,9999,1822172276
715,23,Ticks_Phase_5,150,9999,9999,9999,1822572596
715,23,Ticks_Phase_5,151,9999,9999,9999,1823072360
715,23,Ticks_Phase_5,152,9999,9999,9999,1823573064
715,23,Ticks_Phase_5,153,9999,9999,9999,1824072828
715,23,Ticks_Phase_5,154,9999,9999,9999,1824572516
715,23,Ticks_Phase_5,155,9999,9999,9999,1825072204
715,23,Ticks_Phase_5,156,9999,9999,9999,1825572940
715,23,Ticks_Phase_5,157,9999,9999,9999,1826072704
715,23,Ticks_Phase_5,158,9999,9999,9999,1826572396
715,23,Ticks_Phase_5,159,9999,9999,9999,1827072084
715,23,Ticks_Phase_5,160,9999,9999,9999,1827572812
715,23,Ticks_Phase_5,161,9999,9999,9999,1828072504
715,23,Ticks_Phase_5,162,9999,9999,9999,1828572264
715,23,Ticks_Phase_5,163,9999,9999,9999,1829073000
715,23,Ticks_Phase_5,164,9999,9999,9999,1829572688
715,23,Ticks_Phase_5,165,9999,9999,9999,1830072376
715,23,Ticks_Phase_5,166,9999,9999,9999,1830572140
715,23,Ticks_Phase_5,167,9999,9999,9999,1831072876
715,23,Ticks_Phase_5,168,9999,9999,9999,1831572564
715,23,Ticks_Phase_5,169,9999,9999,9999,1832072312
716,22,Ticks_Phase_8,0,5,42,127,1843512612
716,22,Ticks_Phase_8,1,5,42,127,1844312568
716,22,Ticks_Phase_8,2,5,42,127,1845113152
716,22,Ticks_Phase_8,3,5,42,127,1845912956
716,22,Ticks_Phase_8,4,5,42,127,1846712616
716,22,Ticks_Phase_8,5,1,48,33,1846792276
716,22,Ticks_Phase_8,6,1,48,35,1847509664
716,22,Ticks_Phase_8,7,5,42,127,1847512544
716,22,Ticks_Phase_8,8,5,42,127,1848313308
716,22,Ticks_Phase_8,9,1,48,39,1848321600
716,22,Ticks_Phase_8,10,5,42,127,1849112800
716,22,Ticks_Phase_8,11,1,48,26,1849141232
716,22,Ticks_Phase_8,12,1,48,38,1849890448
716,22,Ticks_Phase_8,13,5,42,127,1849912580
716,22,Ticks_Phase_8,14,1,48,39,1850674444
716,22,Ticks_Phase_8,15,5,42,127,1850712368
716,22,Ticks_Phase_8,16,5,42,127,1851513232
716,22,Ticks_Phase_8,17,1,48,35,1851524292
716,22,Ticks_Phase_8,18,5,42,127,1852312872
716,22,Ticks_Phase_8,19,1,48,42,1852331272
716,22,Ticks_Phase_8,20,1,48,36,1853112804
716,22,Ticks_Phase_8,21,5,42,127,1853114292
716,22,Ticks_Phase_8,22,5,42,127,1853912292
716,22,Ticks_Phase_8,23,1,48,31,1853919676
716,22,Ticks_Phase_8,24,1,48,45,1854605700
716,22,Ticks_Phase_8,25,5,42,127,1854713252
716,22,Ticks_Phase_8,26,1,48,37,1855507784
716,22,Ticks_Phase_8,27,5,42,127,1855513056
716,22,Ticks_Phase_8,28,5,42,127,1856312624
716,22,Ticks_Phase_8,29,1,48,36,1856333640
716,22,Ticks_Phase_8,30,1,48,33,1857111132
716,22,Ticks_Phase_8,31,5,42,127,1857112628
716,22,Ticks_Phase_8,32,1,48,37,1857897928
716,22,Ticks_Phase_8,33,5,42,127,1857913460
716,22,Ticks_Phase_8,34,1,48,38,1858710760
716,22,Ticks_Phase_8,35,5,42,127,1858713024
716,22,Ticks_Phase_8,36,5,42,127,1859512596
716,22,Ticks_Phase_8,37,1,48,30,1859517884
716,22,Ticks_Phase_8,38,5,42,127,1860312308
716,22,Ticks_Phase_8,39,1,48,38,1860328752
716,22,Ticks_Phase_8,40,1,48,42,1861069216
716,22,Ticks_Phase_8,41,5,42,127,1861113356
716,22,Ticks_Phase_8,42,1,48,33,1861905324
716,22,Ticks_Phase_8,43,5,42,127,1861913068
716,22,Ticks_Phase_8,44,5,42,127,1862712564
716,22,Ticks_Phase_8,45,1,48,36,1862774272
716,22,Ticks_Phase_8,46,5,42,127,1863512428
716,22,Ticks_Phase_8,47,1,48,33,1863573284
716,22,Ticks_Phase_8,48,5,42,127,1864313184
716,22,Ticks_Phase_8,49,1,48,33,1864391724
716,22,Ticks_Phase_8,50,5,42,127,1865113268
716,22,Ticks_Phase_8,51,1,48,33,1865132944
716,22,Ticks_Phase_8,52,5,42,127,1865912760
716,22,Ticks_Phase_8,53,1,48,30,1865913800
716,22,Ticks_Phase_8,54,5,42,127,1866712324
716,22,Ticks_Phase_8,55,1,48,33,1866819980
716,22,Ticks_Phase_8,56,5,42,127,1867492712
716,22,Ticks_Phase_8,57,1,48,29,1867607340
716,22,Ticks_Phase_8,58,5,42,127,1868292500
716,22,Ticks_Phase_8,59,1,48,29,1868374772
716,22,Ticks_Phase_8,60,5,42,127,1869093184
716,22,Ticks_Phase_8,61,1,48,28,1869147328
716,22,Ticks_Phase_8,62,5,42,127,1869893116
716,22,Ticks_Phase_8,63,1,48,29,1870053828
716,22,Ticks_Phase_8,64,5,42,127,1870693004
716,22,Ticks_Phase_8,65,1,48,21,1870725256
716,22,Ticks_Phase_8,66,1,48,38,1871452244
716,22,Ticks_Phase_8,67,5,42,127,1871492336
716,22,Ticks_Phase_8,68,1,48,40,1872213436
716,22,Ticks_Phase_8,69,5,42,127,1872293092
716,22,Ticks_Phase_8,70,1,48,31,1873057572
716,22,Ticks_Phase_8,71,5,42,127,1873092952
716,22,Ticks_Phase_8,72,5,42,127,1873892892
716,22,Ticks_Phase_8,73,1,48,28,1873922528
716,22,Ticks_Phase_8,74,1,48,36,1874644864
716,22,Ticks_Phase_8,75,5,42,127,1874692376
716,22,Ticks_Phase_8,76,1,48,38,1875449892
716,22,Ticks_Phase_8,77,5,42,127,1875493136
716,22,Ticks_Phase_8,78,1,48,40,1876266604
716,22,Ticks_Phase_8,79,5,42,127,1876292920
716,22,Ticks_Phase_8,80,5,42,127,1877092664
716,22,Ticks_Phase_8,81,1,48,41,1877098852
716,22,Ticks_Phase_8,82,5,42,127,1877892600
716,22,Ticks_Phase_8,83,1,48,28,1877934440
716,22,Ticks_Phase_8,84,5,42,127,1878693212
716,22,Ticks_Phase_8,85,1,48,37,1878736764
716,22,Ticks_Phase_8,86,1,48,35,1879359180
716,22,Ticks_Phase_8,87,5,42,127,1879492904
716,22,Ticks_Phase_8,88,5,42,127,1880292932
716,22,Ticks_Phase_8,89,1,48,29,1880332680
716,22,Ticks_Phase_8,90,5,42,127,1881092496
716,22,Ticks_Phase_8,91,1,48,31,1881184084
716,22,Ticks_Phase_8,92,5,42,127,1881912800
716,22,Ticks_Phase_8,93,1,48,32,1882006484
716,22,Ticks_Phase_8,94,5,42,127,1882712292
716,22,Ticks_Phase_8,95,1,48,35,1882787400
716,22,Ticks_Phase_8,96,1,48,37,1883436628
716,22,Ticks_Phase_8,97,5,42,127,1883513144
716,22,Ticks_Phase_8,98,1,48,35,1884155608
716,22,Ticks_Phase_8,99,5,42,127,1884312916
716,22,Ticks_Phase_8,100,1,48,36,1885077864
716,22,Ticks_Phase_8,101,5,42,127,1885112716
716,22,Ticks_Phase_8,102,5,42,127,1885912432
716,22,Ticks_Phase_8,103,1,48,40,1885936292
716,22,Ticks_Phase_8,104,5,42,127,1886713116
716,22,Ticks_Phase_8,105,1,48,32,1886747912
716,22,Ticks_Phase_8,106,5,42,127,1887512904
716,22,Ticks_Phase_8,107,1,48,32,1887581128
716,22,Ticks_Phase_8,108,5,42,127,1888312688
716,22,Ticks_Phase_8,109,1,48,36,1888390800
716,22,Ticks_Phase_8,110,5,42,127,1889112328
716,22,Ticks_Phase_8,111,1,48,30,1889241884
716,22,Ticks_Phase_8,112,5,42,127,1889913184
716,22,Ticks_Phase_8,113,1,48,19,1889969768
716,22,Ticks_Phase_8,114,5,42,127,1890712824
716,22,Ticks_Phase_8,115,1,48,32,1890808952
716,22,Ticks_Phase_8,116,5,42,127,1891512832
716,22,Ticks_Phase_8,117,1,48,38,1891560508
716,22,Ticks_Phase_8,118,5,42,127,1892312320
716,22,Ticks_Phase_8,119,1,48,29,1892349356
716,22,Ticks_Phase_8,120,5,42,127,1893113128
716,22,Ticks_Phase_8,121,1,48,26,1893144328
716,22,Ticks_Phase_8,122,1,48,42,1893881056
716,22,Ticks_Phase_8,123,5,42,127,1893912908
716,22,Ticks_Phase_8,124,1,48,35,1894707420
716,22,Ticks_Phase_8,125,5,42,127,1894752708
716,22,Ticks_Phase_8,126,5,42,127,1895553400
716,22,Ticks_Phase_8,127,1,48,39,1895629832
716,22,Ticks_Phase_8,128,5,42,127,1896353112
716,22,Ticks_Phase_8,129,1,48,46,1896411952
716,22,Ticks_Phase_8,130,1,48,37,1897107480
716,22,Ticks_Phase_8,131,5,42,127,1897152816
716,22,Ticks_Phase_8,132,1,48,28,1897928832
716,22,Ticks_Phase_8,133,5,42,127,1897952604
716,22,Ticks_Phase_8,134,5,42,127,1898753592
716,22,Ticks_Phase_8,135,1,48,36,1898774764
716,22,Ticks_Phase_8,136,5,42,127,1899553008
716,22,Ticks_Phase_8,137,1,48,36,1899553972
716,22,Ticks_Phase_8,138,5,42,127,1900352868
716,22,Ticks_Phase_8,139,1,48,35,1900366172
716,22,Ticks_Phase_8,140,1,48,35,1901038788
716,22,Ticks_Phase_8,141,5,42,127,1901152584
716,22,Ticks_Phase_8,142,1,48,29,1901942320
716,22,Ticks_Phase_8,143,5,42,127,1901953652
716,22,Ticks_Phase_8,144,5,42,127,1902753296
716,22,Ticks_Phase_8,145,1,48,35,1902771176
716,22,Ticks_Phase_8,146,1,48,46,1903547732
716,22,Ticks_Phase_8,147,5,42,127,1903553004
716,22,Ticks_Phase_8,148,1,48,38,1904292404
716,22,Ticks_Phase_8,149,5,42,127,1904352564
716,22,Ticks_Phase_8,150,1,48,38,1905053472
716,22,Ticks_Phase_8,151,5,42,127,1905153680
716,22,Ticks_Phase_8,152,1,48,43,1905860364
716,22,Ticks_Phase_8,153,5,42,127,1905953260
716,22,Ticks_Phase_8,154,1,48,40,1906726576
716,22,Ticks_Phase_8,155,5,42,127,1906752972
716,22,Ticks_Phase_8,156,5,42,127,1907552716
716,22,Ticks_Phase_8,157,1,48,41,1907581600
716,22,Ticks_Phase_8,158,5,42,127,1908312660
716,22,Ticks_Phase_8,159,1,48,43,1908341776
716,22,Ticks_Phase_8,160,1,48,27,1909082984
716,22,Ticks_Phase_8,161,5,42,127,1909113188
716,22,Ticks_Phase_8,162,1,48,43,1909869880
716,22,Ticks_Phase_8,163,5,42,127,1909912976
716,22,Ticks_Phase_8,164,1,48,31,1910657392
716,22,Ticks_Phase_8,165,5,42,127,1910712612
716,22,Ticks_Phase_8,166,1,48,36,1911448640
716,22,Ticks_Phase_8,167,5,42,127,1911512696
716,22,Ticks_Phase_8,168,1,48,29,1912249992
716,22,Ticks_Phase_8,169,5,42,127,1912313304
716,22,Ticks_Phase_8,170,5,42,127,1913112876
716,22,Ticks_Phase_8,171,1,48,32,1913145580
716,22,Ticks_Phase_8,172,1,48,39,1913871668
716,22,Ticks_Phase_8,173,5,42,127,1913912804
716,22,Ticks_Phase_8,174,5,42,127,1914712472
716,22,Ticks_Phase_8,175,1,48,32,1914741580
716,22,Ticks_Phase_8,176,5,42,127,1915513380
716,22,Ticks_Phase_8,177,1,48,15,1915661640
716,22,Ticks_Phase_8,178,5,42,127,1916312944
716,22,Ticks_Phase_8,179,1,48,29,1916315988
716,22,Ticks_Phase_8,180,5,42,127,1917112656
716,22,Ticks_Phase_8,181,1,48,29,1917194260
716,22,Ticks_Phase_8,182,5,42,127,1917912364
716,22,Ticks_Phase_8,183,1,48,32,1917967456
716,22,Ticks_Phase_8,184,5,42,127,1918713272
716,22,Ticks_Phase_8,185,1,48,32,1918741332
716,22,Ticks_Phase_8,186,5,42,127,1919512912
716,22,Ticks_Phase_8,187,1,48,37,1919596180
716,22,Ticks_Phase_8,188,5,42,127,1920312548
716,22,Ticks_Phase_8,189,1,48,38,1920379344
716,22,Ticks_Phase_8,190,5,42,127,1921032504
716,22,Ticks_Phase_8,191,1,48,31,1921227884
716,22,Ticks_Phase_8,192,5,42,127,1921833264
716,22,Ticks_Phase_8,193,1,48,40,1921994272
716,22,Ticks_Phase_8,194,5,42,127,1922633272
716,22,Ticks_Phase_8,195,1,48,42,1922742088
716,22,Ticks_Phase_8,196,5,42,127,1923432860
716,22,Ticks_Phase_8,197,1,48,34,1923554300
716,22,Ticks_Phase_8,198,5,42,127,1924232648
716,22,Ticks_Phase_8,199,1,48,28,1924291560
716,22,Ticks_Phase_8,200,5,42,127,1925033332
716,22,Ticks_Phase_8,201,1,48,47,1925075096
716,22,Ticks_Phase_8,202,5,42,127,1925833268
716,22,Ticks_Phase_8,203,1,48,44,1925862300
716,22,Ticks_Phase_8,204,1,48,38,1926621792
716,22,Ticks_Phase_8,205,5,42,127,1926632752
716,22,Ticks_Phase_8,206,1,48,26,1927374692
716,22,Ticks_Phase_8,207,5,42,127,1927432536
716,22,Ticks_Phase_8,208,5,42,127,1928233304
716,22,Ticks_Phase_8,209,1,48,26,1928323544
716,22,Ticks_Phase_8,210,5,42,127,1929033164
716,22,Ticks_Phase_8,211,1,48,45,1929068132
716,22,Ticks_Phase_8,212,5,42,127,1929832900
716,22,Ticks_Phase_8,213,1,48,26,1929902304
716,22,Ticks_Phase_8,214,1,48,28,1930592064
716,22,Ticks_Phase_8,215,5,42,127,1930632532
716,22,Ticks_Phase_8,216,1,48,42,1931299780
716,22,Ticks_Phase_8,217,5,42,127,1931433276
716,22,Ticks_Phase_8,218,1,48,43,1932101752
716,22,Ticks_Phase_8,219,5,42,127,1932233208
716,22,Ticks_Phase_8,220,1,48,33,1933032344
716,22,Ticks_Phase_8,221,5,42,127,1933033908
716,22,Ticks_Phase_8,222,1,48,45,1933831228
716,22,Ticks_Phase_8,223,5,42,127,1933832724
716,22,Ticks_Phase_8,224,1,48,35,1934615560
716,22,Ticks_Phase_8,225,5,42,127,1934713340
716,22,Ticks_Phase_8,226,1,48,39,1935497596
716,22,Ticks_Phase_8,227,5,42,127,1935513124
716,22,Ticks_Phase_8,228,1,48,45,1936302996
716,22,Ticks_Phase_8,229,5,42,127,1936312836
716,22,Ticks_Phase_8,230,5,42,127,1937112332
716,22,Ticks_Phase_8,231,1,48,40,1937119040
716,22,Ticks_Phase_8,232,5,42,127,1937913312
716,22,Ticks_Phase_8,233,1,48,27,1937917036
716,22,Ticks_Phase_8,234,1,48,34,1938700492
716,22,Ticks_Phase_8,235,5,42,127,1938713092
716,22,Ticks_Phase_8,236,5,42,127,1939512812
716,22,Ticks_Phase_8,237,1,48,41,1939513852
716,22,Ticks_Phase_8,238,1,48,33,1940306492
716,22,Ticks_Phase_8,239,5,42,127,1940312392
716,22,Ticks_Phase_8,240,1,48,41,1941083988
716,22,Ticks_Phase_8,241,5,42,127,1941113076
716,22,Ticks_Phase_8,242,5,42,127,1941912944
716,22,Ticks_Phase_8,243,1,48,43,1941929536
716,22,Ticks_Phase_8,244,1,48,28,1942704456
716,22,Ticks_Phase_8,245,5,42,127,1942712648
716,22,Ticks_Phase_8,246,1,48,41,1943497276
716,22,Ticks_Phase_8,247,5,42,127,1943512360
716,22,Ticks_Phase_8,248,1,48,35,1944302084
716,22,Ticks_Phase_8,249,5,42,127,1944313192
716,22,Ticks_Phase_8,250,1,48,33,1945083300
716,22,Ticks_Phase_8,251,5,42,127,1945112908
716,22,Ticks_Phase_8,252,1,48,27,1945873648
716,22,Ticks_Phase_8,253,5,42,127,1945912764
716,22,Ticks_Phase_8,254,1,48,33,1946654484
716,22,Ticks_Phase_8,255,5,42,127,1946712428
716,22,Ticks_Phase_8,256,5,42,127,1947513196
716,22,Ticks_Phase_8,257,1,48,38,1947521044
716,22,Ticks_Phase_8,258,1,48,43,1948320204
716,22,Ticks_Phase_8,259,5,42,127,1948472772
716,22,Ticks_Phase_8,260,5,42,127,1949272456
716,22,Ticks_Phase_8,261,1,48,38,1949296992
716,22,Ticks_Phase_8,262,5,42,127,1950073140
716,22,Ticks_Phase_8,263,1,48,30,1950077384
716,22,Ticks_Phase_8,264,1,48,32,1950812832
716,22,Ticks_Phase_8,265,5,42,127,1950872920
716,22,Ticks_Phase_8,266,1,48,29,1951516432
716,22,Ticks_Phase_8,267,5,42,127,1951672840
716,22,Ticks_Phase_8,268,1,48,28,1952404692
716,22,Ticks_Phase_8,269,5,42,127,1952472568
716,22,Ticks_Phase_8,270,5,42,127,1953273256
716,22,Ticks_Phase_8,271,1,48,31,1953436960
716,22,Ticks_Phase_8,272,5,42,127,1954072896
716,22,Ticks_Phase_8,273,1,48,45,1954162684
716,22,Ticks_Phase_8,274,5,42,127,1954872904
716,22,Ticks_Phase_8,275,1,48,30,1954894152
716,22,Ticks_Phase_8,276,1,48,36,1955627052
716,22,Ticks_Phase_8,277,5,42,127,1955672636
716,22,Ticks_Phase_8,278,1,48,34,1956318768
716,22,Ticks_Phase_8,279,5,42,127,1956473156
716,22,Ticks_Phase_8,280,1,48,32,1957138100
716,22,Ticks_Phase_8,281,5,42,127,1957272940
716,22,Ticks_Phase_8,282,1,48,34,1957891688
716,22,Ticks_Phase_8,283,5,42,127,1958072800
716,22,Ticks_Phase_8,284,1,48,33,1958623772
716,22,Ticks_Phase_8,285,5,42,127,1958872288
716,22,Ticks_Phase_8,286,1,48,36,1959431428
716,22,Ticks_Phase_8,287,5,42,127,1959673348
716,22,Ticks_Phase_8,288,5,42,127,1960473156
716,22,Ticks_Phase_8,289,1,48,23,1960525400
716,22,Ticks_Phase_8,290,1,48,34,1961238524
716,22,Ticks_Phase_8,291,5,42,127,1961272784
716,22,Ticks_Phase_8,292,1,48,27,1961996224
716,22,Ticks_Phase_8,293,5,42,127,1962072372
716,22,Ticks_Phase_8,294,1,48,38,1962764416
716,22,Ticks_Phase_8,295,5,42,127,1962873188
716,22,Ticks_Phase_8,296,5,42,127,1963513240
716,22,Ticks_Phase_8,297,1,48,29,1963615156
716,22,Ticks_Phase_8,298,1,48,34,1964152580
716,22,Ticks_Phase_8,299,5,42,127,1964312852
716,22,Ticks_Phase_8,300,1,48,29,1965087912
716,22,Ticks_Phase_8,301,5,42,127,1965112952
716,22,Ticks_Phase_8,302,1,48,38,1965895036
716,22,Ticks_Phase_8,303,5,42,127,1965912836
716,22,Ticks_Phase_8,304,1,48,38,1966643228
716,22,Ticks_Phase_8,305,5,42,127,1966713372
716,22,Ticks_Phase_8,306,1,48,32,1967482876
716,22,Ticks_Phase_8,307,5,42,127,1967513012
716,22,Ticks_Phase_8,308,1,48,31,1968258620
716,22,Ticks_Phase_8,309,5,42,127,1968312872
716,22,Ticks_Phase_8,310,1,48,35,1969104992
716,22,Ticks_Phase_8,311,5,42,127,1969112804
716,22,Ticks_Phase_8,312,5,42,127,1969913420
716,22,Ticks_Phase_8,313,1,48,30,1969978100
716,22,Ticks_Phase_8,314,5,42,127,1970712836
716,22,Ticks_Phase_8,315,1,48,28,1970738272
716,22,Ticks_Phase_8,316,5,42,127,1971512696
716,22,Ticks_Phase_8,317,1,48,33,1971544524
716,22,Ticks_Phase_8,318,1,48,35,1972219280
716,22,Ticks_Phase_8,319,5,42,127,1972312868
716,22,Ticks_Phase_8,320,5,42,127,1973113188
716,22,Ticks_Phase_8,321,1,48,30,1973142296
716,22,Ticks_Phase_8,322,1,48,31,1973861268
716,22,Ticks_Phase_8,323,5,42,127,1973912968
716,22,Ticks_Phase_8,324,1,48,27,1974640004
716,22,Ticks_Phase_8,325,5,42,127,1974712680
716,22,Ticks_Phase_8,326,1,48,29,1975403704
716,22,Ticks_Phase_8,327,5,42,127,1975512524
716,22,Ticks_Phase_8,328,1,48,25,1976148044
716,22,Ticks_Phase_8,329,5,42,127,1976313184
716,22,Ticks_Phase_8,330,1,48,27,1976979656
716,22,Ticks_Phase_8,331,5,42,127,1977112824
716,22,Ticks_Phase_8,332,1,48,35,1977742528
716,22,Ticks_Phase_8,333,5,42,127,1977912680
716,22,Ticks_Phase_8,334,1,48,36,1978524712
716,22,Ticks_Phase_8,335,5,42,127,1978712420
716,22,Ticks_Phase_8,0,9999,9999,9999,1843510400
716,22,Ticks_Phase_8,1,9999,9999,9999,1844310132
716,22,Ticks_Phase_8,2,9999,9999,9999,1845110864
716,22,Ticks_Phase_8,3,9999,9999,9999,1845910596
716,22,Ticks_Phase_8,4,9999,9999,9999,1846710332
716,22,Ticks_Phase_8,5,9999,9999,9999,1847510108
716,22,Ticks_Phase_8,6,9999,9999,9999,1848310872
716,22,Ticks_Phase_8,7,9999,9999,9999,1849110584
716,22,Ticks_Phase_8,8,9999,9999,9999,1849910368
716,22,Ticks_Phase_8,9,9999,9999,9999,1850710080
716,22,Ticks_Phase_8,10,9999,9999,9999,1851510868
716,22,Ticks_Phase_8,11,9999,9999,9999,1852310580
716,22,Ticks_Phase_8,12,9999,9999,9999,1853110368
716,22,Ticks_Phase_8,13,9999,9999,9999,1853910080
716,22,Ticks_Phase_8,14,9999,9999,9999,1854710892
716,22,Ticks_Phase_8,15,9999,9999,9999,1855510620
716,22,Ticks_Phase_8,16,9999,9999,9999,1856310336
716,22,Ticks_Phase_8,17,9999,9999,9999,1857110124
716,22,Ticks_Phase_8,18,9999,9999,9999,1857910876
716,22,Ticks_Phase_8,19,9999,9999,9999,1858710628
716,22,Ticks_Phase_8,20,9999,9999,9999,1859510384
716,22,Ticks_Phase_8,21,9999,9999,9999,1860310096
716,22,Ticks_Phase_8,22,9999,9999,9999,1861110848
716,22,Ticks_Phase_8,23,9999,9999,9999,1861910632
716,22,Ticks_Phase_8,24,9999,9999,9999,1862710352
716,22,Ticks_Phase_8,25,9999,9999,9999,1863510140
716,22,Ticks_Phase_8,26,9999,9999,9999,1864310900
716,22,Ticks_Phase_8,27,9999,9999,9999,1865110612
716,22,Ticks_Phase_8,28,9999,9999,9999,1865910396
716,22,Ticks_Phase_8,29,9999,9999,9999,1866710108
716,22,Ticks_Phase_8,30,9999,9999,9999,1867490424
716,22,Ticks_Phase_8,31,9999,9999,9999,1868290140
716,22,Ticks_Phase_8,32,9999,9999,9999,1869090896
716,22,Ticks_Phase_8,33,9999,9999,9999,1869890684
716,22,Ticks_Phase_8,34,9999,9999,9999,1870690420
716,22,Ticks_Phase_8,35,9999,9999,9999,1871490124
716,22,Ticks_Phase_8,36,9999,9999,9999,1872290880
716,22,Ticks_Phase_8,37,9999,9999,9999,1873090668
716,22,Ticks_Phase_8,38,9999,9999,9999,1873890384
716,22,Ticks_Phase_8,39,9999,9999,9999,1874690164
716,22,Ticks_Phase_8,40,9999,9999,9999,1875490924
716,22,Ticks_Phase_8,41,9999,9999,9999,1876290636
716,22,Ticks_Phase_8,42,9999,9999,9999,1877090380
716,22,Ticks_Phase_8,43,9999,9999,9999,1877890164
716,22,Ticks_Phase_8,44,9999,9999,9999,1878690924
716,22,Ticks_Phase_8,45,9999,9999,9999,1879490616
716,22,Ticks_Phase_8,46,9999,9999,9999,1880290424
716,22,Ticks_Phase_8,47,9999,9999,9999,1881090136
716,22,Ticks_Phase_8,48,9999,9999,9999,1881910364
716,22,Ticks_Phase_8,49,9999,9999,9999,1882710080
716,22,Ticks_Phase_8,50,9999,9999,9999,1883510860
716,22,Ticks_Phase_8,51,9999,9999,9999,1884310628
716,22,Ticks_Phase_8,52,9999,9999,9999,1885110356
716,22,Ticks_Phase_8,53,9999,9999,9999,1885910072
716,22,Ticks_Phase_8,54,9999,9999,9999,1886710904
716,22,Ticks_Phase_8,55,9999,9999,9999,1887510616
716,22,Ticks_Phase_8,56,9999,9999,9999,1888310328
716,22,Ticks_Phase_8,57,9999,9999,9999,1889110116
716,22,Ticks_Phase_8,58,9999,9999,9999,1889910896
716,22,Ticks_Phase_8,59,9999,9999,9999,1890710608
716,22,Ticks_Phase_8,60,9999,9999,9999,1891510396
716,22,Ticks_Phase_8,61,9999,9999,9999,1892310108
716,22,Ticks_Phase_8,62,9999,9999,9999,1893110840
716,22,Ticks_Phase_8,63,9999,9999,9999,1893910620
716,22,Ticks_Phase_8,64,9999,9999,9999,1894750272
716,22,Ticks_Phase_8,65,9999,9999,9999,1895551040
716,22,Ticks_Phase_8,66,9999,9999,9999,1896350824
716,22,Ticks_Phase_8,67,9999,9999,9999,1897150532
716,22,Ticks_Phase_8,68,9999,9999,9999,1897950316
716,22,Ticks_Phase_8,69,9999,9999,9999,1898751080
716,22,Ticks_Phase_8,70,9999,9999,9999,1899550796
716,22,Ticks_Phase_8,71,9999,9999,9999,1900350580
716,22,Ticks_Phase_8,72,9999,9999,9999,1901150296
716,22,Ticks_Phase_8,73,9999,9999,9999,1901951068
716,22,Ticks_Phase_8,74,9999,9999,9999,1902750788
716,22,Ticks_Phase_8,75,9999,9999,9999,1903550568
716,22,Ticks_Phase_8,76,9999,9999,9999,1904350280
716,22,Ticks_Phase_8,77,9999,9999,9999,1905151096
716,22,Ticks_Phase_8,78,9999,9999,9999,1905950824
716,22,Ticks_Phase_8,79,9999,9999,9999,1906750536
716,22,Ticks_Phase_8,80,9999,9999,9999,1907550280
716,22,Ticks_Phase_8,81,9999,9999,9999,1908310124
716,22,Ticks_Phase_8,82,9999,9999,9999,1909110904
716,22,Ticks_Phase_8,83,9999,9999,9999,1909910616
716,22,Ticks_Phase_8,84,9999,9999,9999,1910710328
716,22,Ticks_Phase_8,85,9999,9999,9999,1911510112
716,22,Ticks_Phase_8,86,9999,9999,9999,1912310872
716,22,Ticks_Phase_8,87,9999,9999,9999,1913110592
716,22,Ticks_Phase_8,88,9999,9999,9999,1913910368
716,22,Ticks_Phase_8,89,9999,9999,9999,1914710088
716,22,Ticks_Phase_8,90,9999,9999,9999,1915510872
716,22,Ticks_Phase_8,91,9999,9999,9999,1916310580
716,22,Ticks_Phase_8,92,9999,9999,9999,1917110368
716,22,Ticks_Phase_8,93,9999,9999,9999,1917910076
716,22,Ticks_Phase_8,94,9999,9999,9999,1918710908
716,22,Ticks_Phase_8,95,9999,9999,9999,1919510624
716,22,Ticks_Phase_8,96,9999,9999,9999,1920310336
716,22,Ticks_Phase_8,97,9999,9999,9999,1921030220
716,22,Ticks_Phase_8,98,9999,9999,9999,1921830976
716,22,Ticks_Phase_8,99,9999,9999,9999,1922630764
716,22,Ticks_Phase_8,100,9999,9999,9999,1923430500
716,22,Ticks_Phase_8,101,9999,9999,9999,1924230212
716,22,Ticks_Phase_8,102,9999,9999,9999,1925030972
716,22,Ticks_Phase_8,103,9999,9999,9999,1925830756
716,22,Ticks_Phase_8,104,9999,9999,9999,1926630464
716,22,Ticks_Phase_8,105,9999,9999,9999,1927430252
716,22,Ticks_Phase_8,106,9999,9999,9999,1928231016
716,22,Ticks_Phase_8,107,9999,9999,9999,1929030728
716,22,Ticks_Phase_8,108,9999,9999,9999,1929830464
716,22,Ticks_Phase_8,109,9999,9999,9999,1930630248
716,22,Ticks_Phase_8,110,9999,9999,9999,1931430988
716,22,Ticks_Phase_8,111,9999,9999,9999,1932230772
716,22,Ticks_Phase_8,112,9999,9999,9999,1933030508
716,22,Ticks_Phase_8,113,9999,9999,9999,1933830220
716,22,Ticks_Phase_8,114,9999,9999,9999,1934710904
716,22,Ticks_Phase_8,115,9999,9999,9999,1935510616
716,22,Ticks_Phase_8,116,9999,9999,9999,1936310328
716,22,Ticks_Phase_8,117,9999,9999,9999,1937110120
716,22,Ticks_Phase_8,118,9999,9999,9999,1937910876
716,22,Ticks_Phase_8,119,9999,9999,9999,1938710584
716,22,Ticks_Phase_8,120,9999,9999,9999,1939510376
716,22,Ticks_Phase_8,121,9999,9999,9999,1940310104
716,22,Ticks_Phase_8,122,9999,9999,9999,1941110864
716,22,Ticks_Phase_8,123,9999,9999,9999,1941910584
716,22,Ticks_Phase_8,124,9999,9999,9999,1942710364
716,22,Ticks_Phase_8,125,9999,9999,9999,1943510072
716,22,Ticks_Phase_8,126,9999,9999,9999,1944310904
716,22,Ticks_Phase_8,127,9999,9999,9999,1945110620
716,22,Ticks_Phase_8,128,9999,9999,9999,1945910332
716,22,Ticks_Phase_8,129,9999,9999,9999,1946710140
716,22,Ticks_Phase_8,130,9999,9999,9999,1947510908
716,22,Ticks_Phase_8,131,9999,9999,9999,1948470336
716,22,Ticks_Phase_8,132,9999,9999,9999,1949270092
716,22,Ticks_Phase_8,133,9999,9999,9999,1950070852
716,22,Ticks_Phase_8,134,9999,9999,9999,1950870636
716,22,Ticks_Phase_8,135,9999,9999,9999,1951670332
716,22,Ticks_Phase_8,136,9999,9999,9999,1952470132
716,22,Ticks_Phase_8,137,9999,9999,9999,1953270896
716,22,Ticks_Phase_8,138,9999,9999,9999,1954070608
716,22,Ticks_Phase_8,139,9999,9999,9999,1954870396
716,22,Ticks_Phase_8,140,9999,9999,9999,1955670128
716,22,Ticks_Phase_8,141,9999,9999,9999,1956470872
716,22,Ticks_Phase_8,142,9999,9999,9999,1957270656
716,22,Ticks_Phase_8,143,9999,9999,9999,1958070368
716,22,Ticks_Phase_8,144,9999,9999,9999,1958870076
716,22,Ticks_Phase_8,145,9999,9999,9999,1959670912
716,22,Ticks_Phase_8,146,9999,9999,9999,1960470644
716,22,Ticks_Phase_8,147,9999,9999,9999,1961270348
716,22,Ticks_Phase_8,148,9999,9999,9999,1962070084
716,22,Ticks_Phase_8,149,9999,9999,9999,1962870900
716,22,Ticks_Phase_8,150,9999,9999,9999,1963510876
716,22,Ticks_Phase_8,151,9999,9999,9999,1964310640
716,22,Ticks_Phase_8,152,9999,9999,9999,1965110368
716,22,Ticks_Phase_8,153,9999,9999,9999,1965910104
716,22,Ticks_Phase_8,154,9999,9999,9999,1966710860
716,22,Ticks_Phase_8,155,9999,9999,9999,1967510648
716,22,Ticks_Phase_8,156,9999,9999,9999,1968310360
716,22,Ticks_Phase_8,157,9999,9999,9999,1969110072
716,22,Ticks_Phase_8,158,9999,9999,9999,1969910912
716,22,Ticks_Phase_8,159,9999,9999,9999,1970710624
716,22,Ticks_Phase_8,160,9999,9999,9999,1971510336
716,22,Ticks_Phase_8,161,9999,9999,9999,1972310136
716,22,Ticks_Phase_8,162,9999,9999,9999,1973110904
716,22,Ticks_Phase_8,163,9999,9999,9999,1973910608
716,22,Ticks_Phase_8,164,9999,9999,9999,1974710392
716,22,Ticks_Phase_8,165,9999,9999,9999,1975510092
716,22,Ticks_Phase_8,166,9999,9999,9999,1976310896
716,22,Ticks_Phase_8,167,9999,9999,9999,1977110608
716,22,Ticks_Phase_8,168,9999,9999,9999,1977910396
716,22,Ticks_Phase_8,169,9999,9999,9999,1978710132
717,10,Ticks_ISO_T2_5,0,5,42,127,1988836672
717,10,Ticks_ISO_T2_5,1,5,42,127,1989336388
717,10,Ticks_ISO_T2_5,2,5,42,127,1989837448
717,10,Ticks_ISO_T2_5,3,5,42,127,1990337016
717,10,Ticks_ISO_T2_5,4,5,42,127,1990836656
717,10,Ticks_ISO_T2_5,5,1,48,30,1990851516
717,10,Ticks_ISO_T2_5,6,5,42,127,1991337472
717,10,Ticks_ISO_T2_5,7,1,48,37,1991342832
717,10,Ticks_ISO_T2_5,8,5,42,127,1991837240
717,10,Ticks_ISO_T2_5,9,1,48,36,1991843576
717,10,Ticks_ISO_T2_5,10,5,42,127,1992336712
717,10,Ticks_ISO_T2_5,11,1,48,38,1992362940
717,10,Ticks_ISO_T2_5,12,1,48,39,1992828140
717,10,Ticks_ISO_T2_5,13,5,42,127,1992836548
717,10,Ticks_ISO_T2_5,14,1,48,35,1993296920
717,10,Ticks_ISO_T2_5,15,5,42,127,1993337292
717,10,Ticks_ISO_T2_5,16,5,42,127,1993836920
717,10,Ticks_ISO_T2_5,17,1,48,35,1993849760
717,10,Ticks_ISO_T2_5,18,1,48,34,1994328944
717,10,Ticks_ISO_T2_5,19,5,42,127,1994336608
717,10,Ticks_ISO_T2_5,20,1,48,35,1994814100
717,10,Ticks_ISO_T2_5,21,5,42,127,1994837424
717,10,Ticks_ISO_T2_5,22,1,48,32,1995330104
717,10,Ticks_ISO_T2_5,23,5,42,127,1995337316
717,10,Ticks_ISO_T2_5,24,5,42,127,1995836720
717,10,Ticks_ISO_T2_5,25,1,48,39,1995852404
717,10,Ticks_ISO_T2_5,26,5,42,127,1996336416
717,10,Ticks_ISO_T2_5,27,1,48,30,1996353968
717,10,Ticks_ISO_T2_5,28,5,42,127,1996837380
717,10,Ticks_ISO_T2_5,29,1,48,41,1996847756
717,10,Ticks_ISO_T2_5,30,1,48,31,1997311156
717,10,Ticks_ISO_T2_5,31,5,42,127,1997337216
717,10,Ticks_ISO_T2_5,32,1,48,35,1997817060
717,10,Ticks_ISO_T2_5,33,5,42,127,1997836616
717,10,Ticks_ISO_T2_5,34,1,48,27,1998318024
717,10,Ticks_ISO_T2_5,35,5,42,127,1998337356
717,10,Ticks_ISO_T2_5,36,5,42,127,1998837280
717,10,Ticks_ISO_T2_5,37,1,48,39,1998862840
717,10,Ticks_ISO_T2_5,38,1,48,37,1999304620
717,10,Ticks_ISO_T2_5,39,5,42,127,1999336744
717,10,Ticks_ISO_T2_5,40,1,48,38,1999822192
717,10,Ticks_ISO_T2_5,41,5,42,127,1999836588
717,10,Ticks_ISO_T2_5,42,1,48,33,2000314252
717,10,Ticks_ISO_T2_5,43,5,42,127,2000337256
717,10,Ticks_ISO_T2_5,44,5,42,127,2000837032
717,10,Ticks_ISO_T2_5,45,1,48,38,2000853240
717,10,Ticks_ISO_T2_5,46,1,48,34,2001333320
717,10,Ticks_ISO_T2_5,47,5,42,127,2001336644
717,10,Ticks_ISO_T2_5,48,5,42,127,2001837464
717,10,Ticks_ISO_T2_5,49,1,48,29,2001877236
717,10,Ticks_ISO_T2_5,50,5,42,127,2002337088
717,10,Ticks_ISO_T2_5,51,1,48,35,2002372144
717,10,Ticks_ISO_T2_5,52,1,48,37,2002830904
717,10,Ticks_ISO_T2_5,53,5,42,127,2002836776
717,10,Ticks_ISO_T2_5,54,1,48,40,2003298960
717,10,Ticks_ISO_T2_5,55,5,42,127,2003336544
717,10,Ticks_ISO_T2_5,56,1,48,44,2003814060
717,10,Ticks_ISO_T2_5,57,5,42,127,2003837208
717,10,Ticks_ISO_T2_5,58,1,48,35,2004309196
717,10,Ticks_ISO_T2_5,59,5,42,127,2004337052
717,10,Ticks_ISO_T2_5,60,1,48,45,2004760468
717,10,Ticks_ISO_T2_5,61,5,42,127,2004836896
717,10,Ticks_ISO_T2_5,62,1,48,28,2005331920
717,10,Ticks_ISO_T2_5,63,5,42,127,2005336368
717,10,Ticks_ISO_T2_5,64,5,42,127,2005837092
717,10,Ticks_ISO_T2_5,65,1,48,40,2005897308
717,10,Ticks_ISO_T2_5,66,1,48,41,2006309664
717,10,Ticks_ISO_T2_5,67,5,42,127,2006337004
717,10,Ticks_ISO_T2_5,68,1,48,31,2006830976
717,10,Ticks_ISO_T2_5,69,5,42,127,2006836548
717,10,Ticks_ISO_T2_5,70,5,42,127,2007337296
717,10,Ticks_ISO_T2_5,71,1,48,46,2007612928
717,10,Ticks_ISO_T2_5,72,5,42,127,2007837068
717,10,Ticks_ISO_T2_5,73,1,48,35,2008046200
717,10,Ticks_ISO_T2_5,74,5,42,127,2008336688
717,10,Ticks_ISO_T2_5,75,1,48,31,2008501396
717,10,Ticks_ISO_T2_5,76,5,42,127,2008836604
717,10,Ticks_ISO_T2_5,77,1,48,39,2008971240
717,10,Ticks_ISO_T2_5,78,5,42,127,2009337200
717,10,Ticks_ISO_T2_5,79,1,48,32,2009489788
717,10,Ticks_ISO_T2_5,80,5,42,127,2009836892
717,10,Ticks_ISO_T2_5,81,1,48,30,2009996136
717,10,Ticks_ISO_T2_5,82,5,42,127,2010336588
717,10,Ticks_ISO_T2_5,83,1,48,31,2010513108
717,10,Ticks_ISO_T2_5,84,5,42,127,2010837328
717,10,Ticks_ISO_T2_5,85,1,48,37,2010993208
717,10,Ticks_ISO_T2_5,86,5,42,127,2011337100
717,10,Ticks_ISO_T2_5,87,1,48,30,2011496192
717,10,Ticks_ISO_T2_5,88,5,42,127,2011836868
717,10,Ticks_ISO_T2_5,89,1,48,27,2012045928
717,10,Ticks_ISO_T2_5,90,5,42,127,2012336564
717,10,Ticks_ISO_T2_5,91,1,48,28,2012529696
717,10,Ticks_ISO_T2_5,92,5,42,127,2012837156
717,10,Ticks_ISO_T2_5,93,1,48,27,2012966828
717,10,Ticks_ISO_T2_5,94,5,42,127,2013336924
717,10,Ticks_ISO_T2_5,95,1,48,31,2013470412
717,10,Ticks_ISO_T2_5,96,5,42,127,2013836544
717,10,Ticks_ISO_T2_5,97,1,48,38,2014032940
717,10,Ticks_ISO_T2_5,98,5,42,127,2014337360
717,10,Ticks_ISO_T2_5,99,1,48,36,2014541532
717,10,Ticks_ISO_T2_5,100,5,42,127,2014837056
717,10,Ticks_ISO_T2_5,101,1,48,38,2015034868
717,10,Ticks_ISO_T2_5,102,5,42,127,2015336972
717,10,Ticks_ISO_T2_5,103,1,48,37,2015529772
717,10,Ticks_ISO_T2_5,104,5,42,127,2015836516
717,10,Ticks_ISO_T2_5,105,1,48,36,2016051984
717,10,Ticks_ISO_T2_5,106,5,42,127,2016337232
717,10,Ticks_ISO_T2_5,107,1,48,30,2016577036
717,10,Ticks_ISO_T2_5,108,5,42,127,2016837000
717,10,Ticks_ISO_T2_5,109,1,48,32,2017096544
717,10,Ticks_ISO_T2_5,110,5,42,127,2017336916
717,10,Ticks_ISO_T2_5,111,1,48,39,2017578812
717,10,Ticks_ISO_T2_5,112,5,42,127,2017837284
717,10,Ticks_ISO_T2_5,113,1,48,25,2018097212
717,10,Ticks_ISO_T2_5,114,5,42,127,2018337056
717,10,Ticks_ISO_T2_5,115,1,48,33,2018590392
717,10,Ticks_ISO_T2_5,116,5,42,127,2018836972
717,10,Ticks_ISO_T2_5,117,1,48,41,2019095544
717,10,Ticks_ISO_T2_5,118,5,42,127,2019336444
717,10,Ticks_ISO_T2_5,119,1,48,33,2019533608
717,10,Ticks_ISO_T2_5,120,5,42,127,2019837184
717,10,Ticks_ISO_T2_5,121,1,48,32,2020131440
717,10,Ticks_ISO_T2_5,122,5,42,127,2020336952
717,10,Ticks_ISO_T2_5,123,1,48,34,2020635920
717,10,Ticks_ISO_T2_5,124,5,42,127,2020836720
717,10,Ticks_ISO_T2_5,125,1,48,44,2021152740
717,10,Ticks_ISO_T2_5,126,5,42,127,2021336564
717,10,Ticks_ISO_T2_5,127,1,48,36,2021674204
717,10,Ticks_ISO_T2_5,128,5,42,127,2021837156
717,10,Ticks_ISO_T2_5,129,1,48,38,2022218476
717,10,Ticks_ISO_T2_5,130,5,42,127,2022336924
717,10,Ticks_ISO_T2_5,131,1,48,39,2022766892
717,10,Ticks_ISO_T2_5,132,5,42,127,2022836708
717,10,Ticks_ISO_T2_5,133,1,48,37,2023308920
717,10,Ticks_ISO_T2_5,134,5,42,127,2023337304
717,10,Ticks_ISO_T2_5,135,5,42,127,2023837004
717,10,Ticks_ISO_T2_5,136,1,48,34,2023868244
717,10,Ticks_ISO_T2_5,137,5,42,127,2024336700
717,10,Ticks_ISO_T2_5,138,1,48,29,2024376992
717,10,Ticks_ISO_T2_5,139,5,42,127,2024836320
717,10,Ticks_ISO_T2_5,140,1,48,28,2024863148
717,10,Ticks_ISO_T2_5,141,5,42,127,2025337284
717,10,Ticks_ISO_T2_5,142,1,48,31,2025338176
717,10,Ticks_ISO_T2_5,143,1,48,33,2025821004
717,10,Ticks_ISO_T2_5,144,5,42,127,2025836896
717,10,Ticks_ISO_T2_5,145,1,48,36,2026321052
717,10,Ticks_ISO_T2_5,146,5,42,127,2026336892
717,10,Ticks_ISO_T2_5,147,5,42,127,2026837340
717,10,Ticks_ISO_T2_5,148,1,48,37,2026897904
717,10,Ticks_ISO_T2_5,149,1,48,33,2027304952
717,10,Ticks_ISO_T2_5,150,5,42,127,2027337004
717,10,Ticks_ISO_T2_5,151,1,48,35,2027788496
717,10,Ticks_ISO_T2_5,152,5,42,127,2027836920
717,10,Ticks_ISO_T2_5,153,1,48,33,2028295888
717,10,Ticks_ISO_T2_5,154,5,42,127,2028336688
717,10,Ticks_ISO_T2_5,155,1,48,33,2028796704
717,10,Ticks_ISO_T2_5,156,5,42,127,2028837208
717,10,Ticks_ISO_T2_5,157,1,48,33,2029278000
717,10,Ticks_ISO_T2_5,158,5,42,127,2029336976
717,10,Ticks_ISO_T2_5,159,1,48,31,2029836000
717,10,Ticks_ISO_T2_5,160,5,42,127,2029837644
717,10,Ticks_ISO_T2_5,161,1,48,32,2030302300
717,10,Ticks_ISO_T2_5,162,5,42,127,2030337340
717,10,Ticks_ISO_T2_5,163,1,48,38,2030779780
717,10,Ticks_ISO_T2_5,164,5,42,127,2030836960
717,10,Ticks_ISO_T2_5,165,5,42,127,2031336808
717,10,Ticks_ISO_T2_5,166,1,48,34,2031357952
717,10,Ticks_ISO_T2_5,167,5,42,127,2031836800
717,10,Ticks_ISO_T2_5,168,1,48,35,2031894900
717,10,Ticks_ISO_T2_5,169,5,42,127,2032337172
717,10,Ticks_ISO_T2_5,170,1,48,37,2032371180
717,10,Ticks_ISO_T2_5,171,1,48,35,2032783568
717,10,Ticks_ISO_T2_5,172,5,42,127,2032837008
717,10,Ticks_ISO_T2_5,173,5,42,127,2033336932
717,10,Ticks_ISO_T2_5,174,1,48,27,2033386200
717,10,Ticks_ISO_T2_5,175,5,42,127,2033837376
717,10,Ticks_ISO_T2_5,176,1,48,37,2033886796
717,10,Ticks_ISO_T2_5,177,1,48,42,2034308160
717,10,Ticks_ISO_T2_5,178,5,42,127,2034337216
717,10,Ticks_ISO_T2_5,179,5,42,127,2034836840
717,10,Ticks_ISO_T2_5,180,1,48,40,2034849308
717,10,Ticks_ISO_T2_5,181,1,48,33,2035329612
717,10,Ticks_ISO_T2_5,182,5,42,127,2035336828
717,10,Ticks_ISO_T2_5,183,5,42,127,2035837576
717,10,Ticks_ISO_T2_5,184,1,48,29,2035842712
717,10,Ticks_ISO_T2_5,185,1,48,39,2036331620
717,10,Ticks_ISO_T2_5,186,5,42,127,2036337036
717,10,Ticks_ISO_T2_5,187,1,48,35,2036834152
717,10,Ticks_ISO_T2_5,188,5,42,127,2036836812
717,10,Ticks_ISO_T2_5,189,1,48,36,2037322608
717,10,Ticks_ISO_T2_5,190,5,42,127,2037336580
717,10,Ticks_ISO_T2_5,191,1,48,30,2037831952
717,10,Ticks_ISO_T2_5,192,5,42,127,2037837148
717,10,Ticks_ISO_T2_5,193,1,48,42,2038309432
717,10,Ticks_ISO_T2_5,194,5,42,127,2038336772
717,10,Ticks_ISO_T2_5,195,5,42,127,2038836772
717,10,Ticks_ISO_T2_5,196,1,48,49,2038859560
717,10,Ticks_ISO_T2_5,197,1,48,40,2039324684
717,10,Ticks_ISO_T2_5,198,5,42,127,2039337280
717,10,Ticks_ISO_T2_5,199,1,48,33,2039799468
717,10,Ticks_ISO_T2_5,200,5,42,127,2039837124
717,10,Ticks_ISO_T2_5,201,5,42,127,2040336676
717,10,Ticks_ISO_T2_5,202,1,48,39,2040389164
717,10,Ticks_ISO_T2_5,203,5,42,127,2040836596
717,10,Ticks_ISO_T2_5,204,1,48,34,2040842780
717,10,Ticks_ISO_T2_5,205,1,48,43,2041282024
717,10,Ticks_ISO_T2_5,206,5,42,127,2041337184
717,10,Ticks_ISO_T2_5,207,1,48,42,2041780744
717,10,Ticks_ISO_T2_5,208,5,42,127,2041837024
717,10,Ticks_ISO_T2_5,209,1,48,23,2042292260
717,10,Ticks_ISO_T2_5,210,5,42,127,2042336572
717,10,Ticks_ISO_T2_5,211,1,48,35,2042771304
717,10,Ticks_ISO_T2_5,212,5,42,127,2042837460
717,10,Ticks_ISO_T2_5,213,1,48,30,2043254396
717,10,Ticks_ISO_T2_5,214,5,42,127,2043337080
717,10,Ticks_ISO_T2_5,215,1,48,39,2043764412
717,10,Ticks_ISO_T2_5,216,5,42,127,2043836776
717,10,Ticks_ISO_T2_5,217,1,48,30,2044277796
717,10,Ticks_ISO_T2_5,218,5,42,127,2044336472
717,10,Ticks_ISO_T2_5,219,1,48,35,2044774424
717,10,Ticks_ISO_T2_5,220,5,42,127,2044837360
717,10,Ticks_ISO_T2_5,221,1,48,31,2045251500
717,10,Ticks_ISO_T2_5,222,5,42,127,2045336980
717,10,Ticks_ISO_T2_5,223,1,48,41,2045791984
717,10,Ticks_ISO_T2_5,224,5,42,127,2045836748
717,10,Ticks_ISO_T2_5,225,1,48,37,2046238324
717,10,Ticks_ISO_T2_5,226,5,42,127,2046337404
717,10,Ticks_ISO_T2_5,227,1,48,29,2046825932
717,10,Ticks_ISO_T2_5,228,5,42,127,2046837036
717,10,Ticks_ISO_T2_5,229,1,48,40,2047295536
717,10,Ticks_ISO_T2_5,230,5,42,127,2047336804
717,10,Ticks_ISO_T2_5,231,1,48,35,2047783632
717,10,Ticks_ISO_T2_5,232,5,42,127,2047836576
717,10,Ticks_ISO_T2_5,233,1,48,41,2048288560
717,10,Ticks_ISO_T2_5,234,5,42,127,2048337388
717,10,Ticks_ISO_T2_5,235,1,48,38,2048791924
717,10,Ticks_ISO_T2_5,236,5,42,127,2048836836
717,10,Ticks_ISO_T2_5,237,1,48,43,2049321240
717,10,Ticks_ISO_T2_5,238,5,42,127,2049336756
717,10,Ticks_ISO_T2_5,239,1,48,43,2049815772
717,10,Ticks_ISO_T2_5,240,5,42,127,2049837568
717,10,Ticks_ISO_T2_5,241,1,48,41,2050301404
717,10,Ticks_ISO_T2_5,242,5,42,127,2050337340
717,10,Ticks_ISO_T2_5,243,1,48,39,2050814636
717,10,Ticks_ISO_T2_5,244,5,42,127,2050836812
717,10,Ticks_ISO_T2_5,245,1,48,51,2051329072
717,10,Ticks_ISO_T2_5,246,5,42,127,2051336580
717,10,Ticks_ISO_T2_5,247,1,48,30,2051836728
717,10,Ticks_ISO_T2_5,248,5,42,127,2051838368
717,10,Ticks_ISO_T2_5,249,1,48,21,2052328608
717,10,Ticks_ISO_T2_5,250,5,42,127,2052337016
717,10,Ticks_ISO_T2_5,251,1,48,37,2052796960
717,10,Ticks_ISO_T2_5,252,5,42,127,2052836712
717,10,Ticks_ISO_T2_5,253,1,48,40,2053273244
717,10,Ticks_ISO_T2_5,254,5,42,127,2053336408
717,10,Ticks_ISO_T2_5,255,1,48,31,2053778700
717,10,Ticks_ISO_T2_5,0,9999,9999,9999,1988834380
717,10,Ticks_ISO_T2_5,1,9999,9999,9999,1989334096
717,10,Ticks_ISO_T2_5,2,9999,9999,9999,1989834860
717,10,Ticks_ISO_T2_5,3,9999,9999,9999,1990334576
717,10,Ticks_ISO_T2_5,4,9999,9999,9999,1990834296
717,10,Ticks_ISO_T2_5,5,9999,9999,9999,1991334960
717,10,Ticks_ISO_T2_5,6,9999,9999,9999,1991834728
717,10,Ticks_ISO_T2_5,7,9999,9999,9999,1992334424
717,10,Ticks_ISO_T2_5,8,9999,9999,9999,1992834112
717,10,Ticks_ISO_T2_5,9,9999,9999,9999,1993334856
717,10,Ticks_ISO_T2_5,10,9999,9999,9999,1993834556
717,10,Ticks_ISO_T2_5,11,9999,9999,9999,1994334320
717,10,Ticks_ISO_T2_5,12,9999,9999,9999,1994835044
717,10,Ticks_ISO_T2_5,13,9999,9999,9999,1995334732
717,10,Ticks_ISO_T2_5,14,9999,9999,9999,1995834432
717,10,Ticks_ISO_T2_5,15,9999,9999,9999,1996334200
717,10,Ticks_ISO_T2_5,16,9999,9999,9999,1996834868
717,10,Ticks_ISO_T2_5,17,9999,9999,9999,1997334632
717,10,Ticks_ISO_T2_5,18,9999,9999,9999,1997834324
717,10,Ticks_ISO_T2_5,19,9999,9999,9999,1998335068
717,10,Ticks_ISO_T2_5,20,9999,9999,9999,1998834768
717,10,Ticks_ISO_T2_5,21,9999,9999,9999,1999334456
717,10,Ticks_ISO_T2_5,22,9999,9999,9999,1999834224
717,10,Ticks_ISO_T2_5,23,9999,9999,9999,2000334964
717,10,Ticks_ISO_T2_5,24,9999,9999,9999,2000834668
717,10,Ticks_ISO_T2_5,25,9999,9999,9999,2001334356
717,10,Ticks_ISO_T2_5,26,9999,9999,9999,2001835104
717,10,Ticks_ISO_T2_5,27,9999,9999,9999,2002334796
717,10,Ticks_ISO_T2_5,28,9999,9999,9999,2002834484
717,10,Ticks_ISO_T2_5,29,9999,9999,9999,2003334256
717,10,Ticks_ISO_T2_5,30,9999,9999,9999,2003834996
717,10,Ticks_ISO_T2_5,31,9999,9999,9999,2004334688
717,10,Ticks_ISO_T2_5,32,9999,9999,9999,2004834384
717,10,Ticks_ISO_T2_5,33,9999,9999,9999,2005334080
717,10,Ticks_ISO_T2_5,34,9999,9999,9999,2005834804
717,10,Ticks_ISO_T2_5,35,9999,9999,9999,2006334564
717,10,Ticks_ISO_T2_5,36,9999,9999,9999,2006834260
717,10,Ticks_ISO_T2_5,37,9999,9999,9999,2007335008
717,10,Ticks_ISO_T2_5,38,9999,9999,9999,2007834704
717,10,Ticks_ISO_T2_5,39,9999,9999,9999,2008334396
717,10,Ticks_ISO_T2_5,40,9999,9999,9999,2008834168
717,10,Ticks_ISO_T2_5,41,9999,9999,9999,2009334836
717,10,Ticks_ISO_T2_5,42,9999,9999,9999,2009834604
717,10,Ticks_ISO_T2_5,43,9999,9999,9999,2010334300
717,10,Ticks_ISO_T2_5,44,9999,9999,9999,2010835040
717,10,Ticks_ISO_T2_5,45,9999,9999,9999,2011334736
717,10,Ticks_ISO_T2_5,46,9999,9999,9999,2011834432
717,10,Ticks_ISO_T2_5,47,9999,9999,9999,2012334200
717,10,Ticks_ISO_T2_5,48,9999,9999,9999,2012834868
717,10,Ticks_ISO_T2_5,49,9999,9999,9999,2013334636
717,10,Ticks_ISO_T2_5,50,9999,9999,9999,2013834328
717,10,Ticks_ISO_T2_5,51,9999,9999,9999,2014335072
717,10,Ticks_ISO_T2_5,52,9999,9999,9999,2014834764
717,10,Ticks_ISO_T2_5,53,9999,9999,9999,2015334460
717,10,Ticks_ISO_T2_5,54,9999,9999,9999,2015834228
717,10,Ticks_ISO_T2_5,55,9999,9999,9999,2016334940
717,10,Ticks_ISO_T2_5,56,9999,9999,9999,2016834636
717,10,Ticks_ISO_T2_5,57,9999,9999,9999,2017334332
717,10,Ticks_ISO_T2_5,58,9999,9999,9999,2017835072
717,10,Ticks_ISO_T2_5,59,9999,9999,9999,2018334840
717,10,Ticks_ISO_T2_5,60,9999,9999,9999,2018834536
717,10,Ticks_ISO_T2_5,61,9999,9999,9999,2019334228
717,10,Ticks_ISO_T2_5,62,9999,9999,9999,2019834968
717,10,Ticks_ISO_T2_5,63,9999,9999,9999,2020334664
717,10,Ticks_ISO_T2_5,64,9999,9999,9999,2020834360
717,10,Ticks_ISO_T2_5,65,9999,9999,9999,2021334128
717,10,Ticks_ISO_T2_5,66,9999,9999,9999,2021834868
717,10,Ticks_ISO_T2_5,67,9999,9999,9999,2022334560
717,10,Ticks_ISO_T2_5,68,9999,9999,9999,2022834272
717,10,Ticks_ISO_T2_5,69,9999,9999,9999,2023335016
717,10,Ticks_ISO_T2_5,70,9999,9999,9999,2023834716
717,10,Ticks_ISO_T2_5,71,9999,9999,9999,2024334408
717,10,Ticks_ISO_T2_5,72,9999,9999,9999,2024834104
717,10,Ticks_ISO_T2_5,73,9999,9999,9999,2025334848
717,10,Ticks_ISO_T2_5,74,9999,9999,9999,2025834608
717,10,Ticks_ISO_T2_5,75,9999,9999,9999,2026334304
717,10,Ticks_ISO_T2_5,76,9999,9999,9999,2026835052
717,10,Ticks_ISO_T2_5,77,9999,9999,9999,2027334716
717,10,Ticks_ISO_T2_5,78,9999,9999,9999,2027834484
717,10,Ticks_ISO_T2_5,79,9999,9999,9999,2028334176
717,10,Ticks_ISO_T2_5,80,9999,9999,9999,2028834920
717,10,Ticks_ISO_T2_5,81,9999,9999,9999,2029334616
717,10,Ticks_ISO_T2_5,82,9999,9999,9999,2029834316
717,10,Ticks_ISO_T2_5,83,9999,9999,9999,2030335048
717,10,Ticks_ISO_T2_5,84,9999,9999,9999,2030834744
717,10,Ticks_ISO_T2_5,85,9999,9999,9999,2031334520
717,10,Ticks_ISO_T2_5,86,9999,9999,9999,2031834216
717,10,Ticks_ISO_T2_5,87,9999,9999,9999,2032334956
717,10,Ticks_ISO_T2_5,88,9999,9999,9999,2032834644
717,10,Ticks_ISO_T2_5,89,9999,9999,9999,2033334348
717,10,Ticks_ISO_T2_5,90,9999,9999,9999,2033835088
717,10,Ticks_ISO_T2_5,91,9999,9999,9999,2034334776
717,10,Ticks_ISO_T2_5,92,9999,9999,9999,2034834552
717,10,Ticks_ISO_T2_5,93,9999,9999,9999,2035334240
717,10,Ticks_ISO_T2_5,94,9999,9999,9999,2035834988
717,10,Ticks_ISO_T2_5,95,9999,9999,9999,2036334676
717,10,Ticks_ISO_T2_5,96,9999,9999,9999,2036834372
717,10,Ticks_ISO_T2_5,97,9999,9999,9999,2037334068
717,10,Ticks_ISO_T2_5,98,9999,9999,9999,2037834860
717,10,Ticks_ISO_T2_5,99,9999,9999,9999,2038334556
717,10,Ticks_ISO_T2_5,100,9999,9999,9999,2038834260
717,10,Ticks_ISO_T2_5,101,9999,9999,9999,2039334992
717,10,Ticks_ISO_T2_5,102,9999,9999,9999,2039834688
717,10,Ticks_ISO_T2_5,103,9999,9999,9999,2040334388
717,10,Ticks_ISO_T2_5,104,9999,9999,9999,2040834160
717,10,Ticks_ISO_T2_5,105,9999,9999,9999,2041334896
717,10,Ticks_ISO_T2_5,106,9999,9999,9999,2041834588
717,10,Ticks_ISO_T2_5,107,9999,9999,9999,2042334284
717,10,Ticks_ISO_T2_5,108,9999,9999,9999,2042835024
717,10,Ticks_ISO_T2_5,109,9999,9999,9999,2043334720
717,10,Ticks_ISO_T2_5,110,9999,9999,9999,2043834488
717,10,Ticks_ISO_T2_5,111,9999,9999,9999,2044334180
717,10,Ticks_ISO_T2_5,112,9999,9999,9999,2044834924
717,10,Ticks_ISO_T2_5,113,9999,9999,9999,2045334616
717,10,Ticks_ISO_T2_5,114,9999,9999,9999,2045834312
717,10,Ticks_ISO_T2_5,115,9999,9999,9999,2046335040
717,10,Ticks_ISO_T2_5,116,9999,9999,9999,2046834748
717,10,Ticks_ISO_T2_5,117,9999,9999,9999,2047334516
717,10,Ticks_ISO_T2_5,118,9999,9999,9999,2047834212
717,10,Ticks_ISO_T2_5,119,9999,9999,9999,2048334928
717,10,Ticks_ISO_T2_5,120,9999,9999,9999,2048834620
717,10,Ticks_ISO_T2_5,121,9999,9999,9999,2049334392
717,10,Ticks_ISO_T2_5,122,9999,9999,9999,2049835060
717,10,Ticks_ISO_T2_5,123,9999,9999,9999,2050334828
717,10,Ticks_ISO_T2_5,124,9999,9999,9999,2050834524
717,10,Ticks_ISO_T2_5,125,9999,9999,9999,2051334220
717,10,Ticks_ISO_T2_5,126,9999,9999,9999,2051834968
717,10,Ticks_ISO_T2_5,127,9999,9999,9999,2052334656
717,10,Ticks_ISO_T2_5,128,9999,9999,9999,2052834424
717,10,Ticks_ISO_T2_5,129,9999,9999,9999,2053334120
718,9,Ticks_ISO_T2_8,0,5,42,127,2064490140
718,9,Ticks_ISO_T2_8,1,5,42,127,2065289524
718,9,Ticks_ISO_T2_8,2,5,42,127,2066090252
718,9,Ticks_ISO_T2_8,3,5,42,127,2066890156
718,9,Ticks_ISO_T2_8,4,5,42,127,2067689912
718,9,Ticks_ISO_T2_8,5,1,48,32,2067720180
718,9,Ticks_ISO_T2_8,6,1,48,39,2068482576
718,9,Ticks_ISO_T2_8,7,5,42,127,2068489488
718,9,Ticks_ISO_T2_8,8,5,42,127,2069290276
718,9,Ticks_ISO_T2_8,9,1,48,39,2069321968
718,9,Ticks_ISO_T2_8,10,5,42,127,2070090008
718,9,Ticks_ISO_T2_8,11,1,48,36,2070130624
718,9,Ticks_ISO_T2_8,12,5,42,127,2070889844
718,9,Ticks_ISO_T2_8,13,1,48,35,2070940528
718,9,Ticks_ISO_T2_8,14,5,42,127,2071689648
718,9,Ticks_ISO_T2_8,15,1,48,36,2071690692
718,9,Ticks_ISO_T2_8,16,5,42,127,2072490208
718,9,Ticks_ISO_T2_8,17,1,48,35,2072537680
718,9,Ticks_ISO_T2_8,18,5,42,127,2073290092
718,9,Ticks_ISO_T2_8,19,1,48,35,2073306452
718,9,Ticks_ISO_T2_8,20,5,42,127,2074089976
718,9,Ticks_ISO_T2_8,21,1,48,31,2074136100
718,9,Ticks_ISO_T2_8,22,5,42,127,2074889708
718,9,Ticks_ISO_T2_8,23,1,48,41,2074936736
718,9,Ticks_ISO_T2_8,24,1,48,36,2075689280
718,9,Ticks_ISO_T2_8,25,5,42,127,2075690852
718,9,Ticks_ISO_T2_8,26,5,42,127,2076490072
718,9,Ticks_ISO_T2_8,27,1,48,30,2076496804
718,9,Ticks_ISO_T2_8,28,5,42,127,2077289980
718,9,Ticks_ISO_T2_8,29,1,48,32,2077315240
718,9,Ticks_ISO_T2_8,30,5,42,127,2078089712
718,9,Ticks_ISO_T2_8,31,1,48,31,2078161496
718,9,Ticks_ISO_T2_8,32,5,42,127,2078890272
718,9,Ticks_ISO_T2_8,33,1,48,20,2078914108
718,9,Ticks_ISO_T2_8,34,1,48,36,2079679188
718,9,Ticks_ISO_T2_8,35,5,42,127,2079690068
718,9,Ticks_ISO_T2_8,36,1,48,38,2080427464
718,9,Ticks_ISO_T2_8,37,5,42,127,2080489952
718,9,Ticks_ISO_T2_8,38,1,48,35,2081232728
718,9,Ticks_ISO_T2_8,39,5,42,127,2081289464
718,9,Ticks_ISO_T2_8,40,1,48,38,2082080940
718,9,Ticks_ISO_T2_8,41,5,42,127,2082090392
718,9,Ticks_ISO_T2_8,42,5,42,127,2082890060
718,9,Ticks_ISO_T2_8,43,1,48,20,2082960524
718,9,Ticks_ISO_T2_8,44,1,48,39,2083690040
718,9,Ticks_ISO_T2_8,45,5,42,127,2083691304
718,9,Ticks_ISO_T2_8,46,5,42,127,2084489700
718,9,Ticks_ISO_T2_8,47,1,48,34,2084499928
718,9,Ticks_ISO_T2_8,48,1,48,29,2085247732
718,9,Ticks_ISO_T2_8,49,5,42,127,2085290400
718,9,Ticks_ISO_T2_8,50,1,48,42,2086012388
718,9,Ticks_ISO_T2_8,51,5,42,127,2086090064
718,9,Ticks_ISO_T2_8,52,1,48,38,2086773376
718,9,Ticks_ISO_T2_8,53,5,42,127,2086890004
718,9,Ticks_ISO_T2_8,54,1,48,35,2087571616
718,9,Ticks_ISO_T2_8,55,5,42,127,2087689736
718,9,Ticks_ISO_T2_8,56,5,42,127,2088490392
718,9,Ticks_ISO_T2_8,57,1,48,36,2088508320
718,9,Ticks_ISO_T2_8,58,5,42,127,2089290124
718,9,Ticks_ISO_T2_8,59,1,48,43,2089302320
718,9,Ticks_ISO_T2_8,60,1,48,36,2090076828
718,9,Ticks_ISO_T2_8,61,5,42,127,2090089952
718,9,Ticks_ISO_T2_8,62,1,48,35,2090834896
718,9,Ticks_ISO_T2_8,63,5,42,127,2090889536
718,9,Ticks_ISO_T2_8,64,1,48,40,2091617580
718,9,Ticks_ISO_T2_8,65,5,42,127,2091690316
718,9,Ticks_ISO_T2_8,66,1,48,38,2092419780
718,9,Ticks_ISO_T2_8,67,5,42,127,2092490048
718,9,Ticks_ISO_T2_8,68,5,42,127,2093289940
718,9,Ticks_ISO_T2_8,69,1,48,38,2093301212
718,9,Ticks_ISO_T2_8,70,1,48,36,2094086568
718,9,Ticks_ISO_T2_8,71,5,42,127,2094089740
718,9,Ticks_ISO_T2_8,72,1,48,23,2094841496
718,9,Ticks_ISO_T2_8,73,5,42,127,2094890224
718,9,Ticks_ISO_T2_8,74,1,48,40,2095636364
718,9,Ticks_ISO_T2_8,75,5,42,127,2095689956
718,9,Ticks_ISO_T2_8,76,1,48,36,2096449116
718,9,Ticks_ISO_T2_8,77,5,42,127,2096489716
718,9,Ticks_ISO_T2_8,78,1,48,21,2097221024
718,9,Ticks_ISO_T2_8,79,5,42,127,2097289744
718,9,Ticks_ISO_T2_8,80,1,48,42,2098012028
718,9,Ticks_ISO_T2_8,81,5,42,127,2098090304
718,9,Ticks_ISO_T2_8,82,1,48,38,2098783936
718,9,Ticks_ISO_T2_8,83,5,42,127,2098890244
718,9,Ticks_ISO_T2_8,84,1,48,18,2099558768
718,9,Ticks_ISO_T2_8,85,1,48,16,2099630104
718,9,Ticks_ISO_T2_8,86,5,42,127,2099689824
718,9,Ticks_ISO_T2_8,87,1,48,41,2100444940
718,9,Ticks_ISO_T2_8,88,5,42,127,2100489780
718,9,Ticks_ISO_T2_8,89,1,48,40,2101244228
718,9,Ticks_ISO_T2_8,90,5,42,127,2101290484
718,9,Ticks_ISO_T2_8,91,1,48,43,2101999380
718,9,Ticks_ISO_T2_8,92,5,42,127,2102089996
718,9,Ticks_ISO_T2_8,93,5,42,127,2102889960
718,9,Ticks_ISO_T2_8,94,1,48,32,2102891444
718,9,Ticks_ISO_T2_8,95,5,42,127,2103689692
718,9,Ticks_ISO_T2_8,96,1,48,29,2103731632
718,9,Ticks_ISO_T2_8,97,5,42,127,2104490472
718,9,Ticks_ISO_T2_8,98,1,48,41,2104512596
718,9,Ticks_ISO_T2_8,99,1,48,43,2105267804
718,9,Ticks_ISO_T2_8,100,5,42,127,2105290052
718,9,Ticks_ISO_T2_8,101,1,48,51,2106076512
718,9,Ticks_ISO_T2_8,102,5,42,127,2106089932
718,9,Ticks_ISO_T2_8,103,1,48,43,2106841012
718,9,Ticks_ISO_T2_8,104,5,42,127,2106889592
718,9,Ticks_ISO_T2_8,105,1,48,38,2107680684
718,9,Ticks_ISO_T2_8,106,5,42,127,2107690520
718,9,Ticks_ISO_T2_8,107,5,42,127,2108489964
718,9,Ticks_ISO_T2_8,108,1,48,46,2108518616
718,9,Ticks_ISO_T2_8,109,5,42,127,2109289724
718,9,Ticks_ISO_T2_8,110,1,48,36,2109333608
718,9,Ticks_ISO_T2_8,111,1,48,32,2110036608
718,9,Ticks_ISO_T2_8,112,5,42,127,2110089672
718,9,Ticks_ISO_T2_8,113,1,48,34,2110863268
718,9,Ticks_ISO_T2_8,114,5,42,127,2110890528
718,9,Ticks_ISO_T2_8,115,1,48,32,2111659340
718,9,Ticks_ISO_T2_8,116,5,42,127,2111689964
718,9,Ticks_ISO_T2_8,117,1,48,47,2112479940
718,9,Ticks_ISO_T2_8,118,5,42,127,2112489696
718,9,Ticks_ISO_T2_8,119,1,48,37,2113257536
718,9,Ticks_ISO_T2_8,120,5,42,127,2113289504
718,9,Ticks_ISO_T2_8,121,1,48,45,2114054872
718,9,Ticks_ISO_T2_8,122,5,42,127,2114090584
718,9,Ticks_ISO_T2_8,123,1,48,41,2114858644
718,9,Ticks_ISO_T2_8,124,5,42,127,2114889944
718,9,Ticks_ISO_T2_8,125,1,48,36,2115635860
718,9,Ticks_ISO_T2_8,126,5,42,127,2115689776
718,9,Ticks_ISO_T2_8,127,1,48,39,2116443996
718,9,Ticks_ISO_T2_8,128,5,42,127,2116489508
718,9,Ticks_ISO_T2_8,129,1,48,43,2117186108
718,9,Ticks_ISO_T2_8,130,5,42,127,2117290496
718,9,Ticks_ISO_T2_8,131,1,48,46,2118085496
718,9,Ticks_ISO_T2_8,132,5,42,127,2118090096
718,9,Ticks_ISO_T2_8,133,5,42,127,2118889912
718,9,Ticks_ISO_T2_8,134,1,48,51,2118903500
718,9,Ticks_ISO_T2_8,135,5,42,127,2119689572
718,9,Ticks_ISO_T2_8,136,1,48,39,2119693884
718,9,Ticks_ISO_T2_8,137,1,48,32,2120467348
718,9,Ticks_ISO_T2_8,138,5,42,127,2120490420
718,9,Ticks_ISO_T2_8,139,1,48,48,2121247260
718,9,Ticks_ISO_T2_8,140,5,42,127,2121290300
718,9,Ticks_ISO_T2_8,141,1,48,47,2122018568
718,9,Ticks_ISO_T2_8,142,5,42,127,2122089908
718,9,Ticks_ISO_T2_8,143,1,48,38,2122801096
718,9,Ticks_ISO_T2_8,144,5,42,127,2122889568
718,9,Ticks_ISO_T2_8,145,1,48,22,2123612748
718,9,Ticks_ISO_T2_8,146,5,42,127,2123690424
718,9,Ticks_ISO_T2_8,147,1,48,44,2124428492
718,9,Ticks_ISO_T2_8,148,5,42,127,2124490232
718,9,Ticks_ISO_T2_8,149,1,48,31,2125220816
718,9,Ticks_ISO_T2_8,150,5,42,127,2125289740
718,9,Ticks_ISO_T2_8,151,1,48,44,2125965124
718,9,Ticks_ISO_T2_8,152,1,48,24,2126039828
718,9,Ticks_ISO_T2_8,153,5,42,127,2126089528
718,9,Ticks_ISO_T2_8,154,1,48,37,2126765584
718,9,Ticks_ISO_T2_8,155,5,42,127,2126890292
718,9,Ticks_ISO_T2_8,156,1,48,37,2127596060
718,9,Ticks_ISO_T2_8,157,5,42,127,2127690040
718,9,Ticks_ISO_T2_8,158,5,42,127,2128489856
718,9,Ticks_ISO_T2_8,159,1,48,39,2128491344
718,9,Ticks_ISO_T2_8,160,5,42,127,2129289588
718,9,Ticks_ISO_T2_8,161,1,48,38,2129372224
718,9,Ticks_ISO_T2_8,162,5,42,127,2130090372
718,9,Ticks_ISO_T2_8,163,1,48,43,2130091412
718,9,Ticks_ISO_T2_8,164,1,48,42,2130823568
718,9,Ticks_ISO_T2_8,165,5,42,127,2130890172
718,9,Ticks_ISO_T2_8,166,1,48,35,2131681424
718,9,Ticks_ISO_T2_8,167,5,42,127,2131690052
718,9,Ticks_ISO_T2_8,168,1,48,29,2132455724
718,9,Ticks_ISO_T2_8,169,5,42,127,2132489564
718,9,Ticks_ISO_T2_8,170,1,48,40,2133210652
718,9,Ticks_ISO_T2_8,171,5,42,127,2133290196
718,9,Ticks_ISO_T2_8,172,1,48,27,2134037088
718,9,Ticks_ISO_T2_8,173,5,42,127,2134090080
718,9,Ticks_ISO_T2_8,174,1,48,33,2134809968
718,9,Ticks_ISO_T2_8,175,5,42,127,2134889764
718,9,Ticks_ISO_T2_8,176,1,48,34,2135625036
718,9,Ticks_ISO_T2_8,177,5,42,127,2135689568
718,9,Ticks_ISO_T2_8,178,1,48,37,2136386924
718,9,Ticks_ISO_T2_8,179,5,42,127,2136490484
718,9,Ticks_ISO_T2_8,180,1,48,44,2137221608
718,9,Ticks_ISO_T2_8,181,5,42,127,2137290008
718,9,Ticks_ISO_T2_8,182,1,48,44,2138047824
718,9,Ticks_ISO_T2_8,183,5,42,127,2138089964
718,9,Ticks_ISO_T2_8,184,1,48,42,2138808660
718,9,Ticks_ISO_T2_8,185,5,42,127,2138889552
718,9,Ticks_ISO_T2_8,186,1,48,37,2139613704
718,9,Ticks_ISO_T2_8,187,5,42,127,2139690332
718,9,Ticks_ISO_T2_8,188,1,48,27,2140461388
718,9,Ticks_ISO_T2_8,189,5,42,127,2140490216
718,9,Ticks_ISO_T2_8,190,1,48,42,2141200608
718,9,Ticks_ISO_T2_8,191,5,42,127,2141289972
718,9,Ticks_ISO_T2_8,192,1,48,41,2142007072
718,9,Ticks_ISO_T2_8,193,5,42,127,2142089632
718,9,Ticks_ISO_T2_8,194,1,48,32,2142783916
718,9,Ticks_ISO_T2_8,195,5,42,127,2142890324
718,9,Ticks_ISO_T2_8,196,1,48,38,2143574104
718,9,Ticks_ISO_T2_8,197,5,42,127,2143690132
718,9,Ticks_ISO_T2_8,198,1,48,39,2144361796
718,9,Ticks_ISO_T2_8,199,5,42,127,2144489868
718,9,Ticks_ISO_T2_8,200,1,48,38,2145238792
718,9,Ticks_ISO_T2_8,201,5,42,127,2145289688
718,9,Ticks_ISO_T2_8,202,1,48,27,2146037032
718,9,Ticks_ISO_T2_8,203,5,42,127,2146090320
718,9,Ticks_ISO_T2_8,204,1,48,33,2146818068
718,9,Ticks_ISO_T2_8,205,5,42,127,2146890056
718,9,Ticks_ISO_T2_8,206,1,48,33,2147549484
718,9,Ticks_ISO_T2_8,207,5,42,127,2147689996
718,9,Ticks_ISO_T2_8,208,1,48,29,2148478044
718,9,Ticks_ISO_T2_8,209,5,42,127,2148489448
718,9,Ticks_ISO_T2_8,210,1,48,40,2149189792
718,9,Ticks_ISO_T2_8,211,5,42,127,2149290284
718,9,Ticks_ISO_T2_8,212,1,48,38,2150007200
718,9,Ticks_ISO_T2_8,213,5,42,127,2150089960
718,9,Ticks_ISO_T2_8,214,1,48,41,2150720592
718,9,Ticks_ISO_T2_8,215,5,42,127,2150890048
718,9,Ticks_ISO_T2_8,216,1,48,41,2151587144
718,9,Ticks_ISO_T2_8,217,5,42,127,2151689560
718,9,Ticks_ISO_T2_8,218,1,48,39,2152350076
718,9,Ticks_ISO_T2_8,219,5,42,127,2152490264
718,9,Ticks_ISO_T2_8,220,1,48,37,2153216752
718,9,Ticks_ISO_T2_8,221,5,42,127,2153290012
718,9,Ticks_ISO_T2_8,222,1,48,25,2154013640
718,9,Ticks_ISO_T2_8,223,5,42,127,2154090068
718,9,Ticks_ISO_T2_8,224,1,48,29,2154789144
718,9,Ticks_ISO_T2_8,225,5,42,127,2154889712
718,9,Ticks_ISO_T2_8,226,5,42,127,2155690440
718,9,Ticks_ISO_T2_8,227,1,48,44,2155693636
718,9,Ticks_ISO_T2_8,228,1,48,41,2156461860
718,9,Ticks_ISO_T2_8,229,5,42,127,2156490168
718,9,Ticks_ISO_T2_8,230,1,48,40,2157219860
718,9,Ticks_ISO_T2_8,231,5,42,127,2157289828
718,9,Ticks_ISO_T2_8,232,1,48,45,2158032752
718,9,Ticks_ISO_T2_8,233,5,42,127,2158089856
718,9,Ticks_ISO_T2_8,234,1,48,37,2158793516
718,9,Ticks_ISO_T2_8,235,5,42,127,2158890920
718,9,Ticks_ISO_T2_8,236,1,48,38,2159578220
718,9,Ticks_ISO_T2_8,237,5,42,127,2159690060
718,9,Ticks_ISO_T2_8,238,1,48,36,2160447212
718,9,Ticks_ISO_T2_8,0,9999,9999,9999,2064487480
718,9,Ticks_ISO_T2_8,1,9999,9999,9999,2065287236
718,9,Ticks_ISO_T2_8,2,9999,9999,9999,2066088040
718,9,Ticks_ISO_T2_8,3,9999,9999,9999,2066887796
718,9,Ticks_ISO_T2_8,4,9999,9999,9999,2067687476
718,9,Ticks_ISO_T2_8,5,9999,9999,9999,2068487276
718,9,Ticks_ISO_T2_8,6,9999,9999,9999,2069287988
718,9,Ticks_ISO_T2_8,7,9999,9999,9999,2070087796
718,9,Ticks_ISO_T2_8,8,9999,9999,9999,2070887480
718,9,Ticks_ISO_T2_8,9,9999,9999,9999,2071687288
718,9,Ticks_ISO_T2_8,10,9999,9999,9999,2072487992
718,9,Ticks_ISO_T2_8,11,9999,9999,9999,2073287728
718,9,Ticks_ISO_T2_8,12,9999,9999,9999,2074087536
718,9,Ticks_ISO_T2_8,13,9999,9999,9999,2074887272
718,9,Ticks_ISO_T2_8,14,9999,9999,9999,2075688052
718,9,Ticks_ISO_T2_8,15,9999,9999,9999,2076487784
718,9,Ticks_ISO_T2_8,16,9999,9999,9999,2077287540
718,9,Ticks_ISO_T2_8,17,9999,9999,9999,2078087276
718,9,Ticks_ISO_T2_8,18,9999,9999,9999,2078887980
718,9,Ticks_ISO_T2_8,19,9999,9999,9999,2079687784
718,9,Ticks_ISO_T2_8,20,9999,9999,9999,2080487516
718,9,Ticks_ISO_T2_8,21,9999,9999,9999,2081287248
718,9,Ticks_ISO_T2_8,22,9999,9999,9999,2082088032
718,9,Ticks_ISO_T2_8,23,9999,9999,9999,2082887772
718,9,Ticks_ISO_T2_8,24,9999,9999,9999,2083687528
718,9,Ticks_ISO_T2_8,25,9999,9999,9999,2084487264
718,9,Ticks_ISO_T2_8,26,9999,9999,9999,2085288040
718,9,Ticks_ISO_T2_8,27,9999,9999,9999,2086087776
718,9,Ticks_ISO_T2_8,28,9999,9999,9999,2086887492
718,9,Ticks_ISO_T2_8,29,9999,9999,9999,2087687224
718,9,Ticks_ISO_T2_8,30,9999,9999,9999,2088488028
718,9,Ticks_ISO_T2_8,31,9999,9999,9999,2089287760
718,9,Ticks_ISO_T2_8,32,9999,9999,9999,2090087516
718,9,Ticks_ISO_T2_8,33,9999,9999,9999,2090887248
718,9,Ticks_ISO_T2_8,34,9999,9999,9999,2091688028
718,9,Ticks_ISO_T2_8,35,9999,9999,9999,2092487760
718,9,Ticks_ISO_T2_8,36,9999,9999,9999,2093287500
718,9,Ticks_ISO_T2_8,37,9999,9999,9999,2094087228
718,9,Ticks_ISO_T2_8,38,9999,9999,9999,2094888008
718,9,Ticks_ISO_T2_8,39,9999,9999,9999,2095687744
718,9,Ticks_ISO_T2_8,40,9999,9999,9999,2096487500
718,9,Ticks_ISO_T2_8,41,9999,9999,9999,2097287236
718,9,Ticks_ISO_T2_8,42,9999,9999,9999,2098088016
718,9,Ticks_ISO_T2_8,43,9999,9999,9999,2098887732
718,9,Ticks_ISO_T2_8,44,9999,9999,9999,2099687536
718,9,Ticks_ISO_T2_8,45,9999,9999,9999,2100487268
718,9,Ticks_ISO_T2_8,46,9999,9999,9999,2101288048
718,9,Ticks_ISO_T2_8,47,9999,9999,9999,2102087784
718,9,Ticks_ISO_T2_8,48,9999,9999,9999,2102887524
718,9,Ticks_ISO_T2_8,49,9999,9999,9999,2103687256
718,9,Ticks_ISO_T2_8,50,9999,9999,9999,2104488036
718,9,Ticks_ISO_T2_8,51,9999,9999,9999,2105287764
718,9,Ticks_ISO_T2_8,52,9999,9999,9999,2106087496
718,9,Ticks_ISO_T2_8,53,9999,9999,9999,2106887232
718,9,Ticks_ISO_T2_8,54,9999,9999,9999,2107688008
718,9,Ticks_ISO_T2_8,55,9999,9999,9999,2108487752
718,9,Ticks_ISO_T2_8,56,9999,9999,9999,2109287508
718,9,Ticks_ISO_T2_8,57,9999,9999,9999,2110087236
718,9,Ticks_ISO_T2_8,58,9999,9999,9999,2110888016
718,9,Ticks_ISO_T2_8,59,9999,9999,9999,2111687752
718,9,Ticks_ISO_T2_8,60,9999,9999,9999,2112487484
718,9,Ticks_ISO_T2_8,61,9999,9999,9999,2113287216
718,9,Ticks_ISO_T2_8,62,9999,9999,9999,2114087996
718,9,Ticks_ISO_T2_8,63,9999,9999,9999,2114887732
718,9,Ticks_ISO_T2_8,64,9999,9999,9999,2115687488
718,9,Ticks_ISO_T2_8,65,9999,9999,9999,2116487220
718,9,Ticks_ISO_T2_8,66,9999,9999,9999,2117287984
718,9,Ticks_ISO_T2_8,67,9999,9999,9999,2118087736
718,9,Ticks_ISO_T2_8,68,9999,9999,9999,2118887476
718,9,Ticks_ISO_T2_8,69,9999,9999,9999,2119687284
718,9,Ticks_ISO_T2_8,70,9999,9999,9999,2120487980
718,9,Ticks_ISO_T2_8,71,9999,9999,9999,2121287788
718,9,Ticks_ISO_T2_8,72,9999,9999,9999,2122087472
718,9,Ticks_ISO_T2_8,73,9999,9999,9999,2122887280
718,9,Ticks_ISO_T2_8,74,9999,9999,9999,2123687988
718,9,Ticks_ISO_T2_8,75,9999,9999,9999,2124487796
718,9,Ticks_ISO_T2_8,76,9999,9999,9999,2125287528
718,9,Ticks_ISO_T2_8,77,9999,9999,9999,2126087240
718,9,Ticks_ISO_T2_8,78,9999,9999,9999,2126888004
718,9,Ticks_ISO_T2_8,79,9999,9999,9999,2127687752
718,9,Ticks_ISO_T2_8,80,9999,9999,9999,2128487492
718,9,Ticks_ISO_T2_8,81,9999,9999,9999,2129287228
718,9,Ticks_ISO_T2_8,82,9999,9999,9999,2130088008
718,9,Ticks_ISO_T2_8,83,9999,9999,9999,2130887736
718,9,Ticks_ISO_T2_8,84,9999,9999,9999,2131687544
718,9,Ticks_ISO_T2_8,85,9999,9999,9999,2132487280
718,9,Ticks_ISO_T2_8,86,9999,9999,9999,2133287984
718,9,Ticks_ISO_T2_8,87,9999,9999,9999,2134087792
718,9,Ticks_ISO_T2_8,88,9999,9999,9999,2134887476
718,9,Ticks_ISO_T2_8,89,9999,9999,9999,2135687280
718,9,Ticks_ISO_T2_8,90,9999,9999,9999,2136488044
718,9,Ticks_ISO_T2_8,91,9999,9999,9999,2137287792
718,9,Ticks_ISO_T2_8,92,9999,9999,9999,2138087528
718,9,Ticks_ISO_T2_8,93,9999,9999,9999,2138887260
718,9,Ticks_ISO_T2_8,94,9999,9999,9999,2139688044
718,9,Ticks_ISO_T2_8,95,9999,9999,9999,2140487780
718,9,Ticks_ISO_T2_8,96,9999,9999,9999,2141287536
718,9,Ticks_ISO_T2_8,97,9999,9999,9999,2142087268
718,9,Ticks_ISO_T2_8,98,9999,9999,9999,2142888036
718,9,Ticks_ISO_T2_8,99,9999,9999,9999,2143687768
718,9,Ticks_ISO_T2_8,100,9999,9999,9999,2144487504
718,9,Ticks_ISO_T2_8,101,9999,9999,9999,2145287252
718,9,Ticks_ISO_T2_8,102,9999,9999,9999,2146088032
718,9,Ticks_ISO_T2_8,103,9999,9999,9999,2146887768
718,9,Ticks_ISO_T2_8,104,9999,9999,9999,2147687484
718,9,Ticks_ISO_T2_8,105,9999,9999,9999,2148487232
718,9,Ticks_ISO_T2_8,106,9999,9999,9999,2149288028
718,9,Ticks_ISO_T2_8,107,9999,9999,9999,2150087744
718,9,Ticks_ISO_T2_8,108,9999,9999,9999,2150887540
718,9,Ticks_ISO_T2_8,109,9999,9999,9999,2151687272
718,9,Ticks_ISO_T2_8,110,9999,9999,9999,2152488052
718,9,Ticks_ISO_T2_8,111,9999,9999,9999,2153287800
718,9,Ticks_ISO_T2_8,112,9999,9999,9999,2154087484
718,9,Ticks_ISO_T2_8,113,9999,9999,9999,2154887276
718,9,Ticks_ISO_T2_8,114,9999,9999,9999,2155688000
718,9,Ticks_ISO_T2_8,115,9999,9999,9999,2156487732
718,9,Ticks_ISO_T2_8,116,9999,9999,9999,2157287540
718,9,Ticks_ISO_T2_8,117,9999,9999,9999,2158087272
718,9,Ticks_ISO_T2_8,118,9999,9999,9999,2158888052
718,9,Ticks_ISO_T2_8,119,9999,9999,9999,2159687772
719,21,Ticks_Linear_5,0,5,42,127,2170341864
719,21,Ticks_Linear_5,1,5,42,127,2170821888
719,21,Ticks_Linear_5,2,5,42,127,2171302140
719,21,Ticks_Linear_5,3,5,42,127,2171781716
719,21,Ticks_Linear_5,4,5,42,127,2172261740
719,21,Ticks_Linear_5,5,1,48,47,2172287548
719,21,Ticks_Linear_5,6,5,42,127,2172752232
719,21,Ticks_Linear_5,7,1,48,49,2172779084
719,21,Ticks_Linear_5,8,5,42,127,2173241720
719,21,Ticks_Linear_5,9,1,48,42,2173251432
719,21,Ticks_Linear_5,10,1,48,46,2173706772
719,21,Ticks_Linear_5,11,5,42,127,2173732128
719,21,Ticks_Linear_5,12,1,48,36,2174166332
719,21,Ticks_Linear_5,13,5,42,127,2174221640
719,21,Ticks_Linear_5,14,1,48,45,2174692620
719,21,Ticks_Linear_5,15,5,42,127,2174712056
719,21,Ticks_Linear_5,16,1,48,45,2175195536
719,21,Ticks_Linear_5,17,5,42,127,2175211828
719,21,Ticks_Linear_5,18,1,48,42,2175693512
719,21,Ticks_Linear_5,19,5,42,127,2175711604
719,21,Ticks_Linear_5,20,1,48,43,2176205488
719,21,Ticks_Linear_5,21,5,42,127,2176212424
719,21,Ticks_Linear_5,22,5,42,127,2176711980
719,21,Ticks_Linear_5,23,1,48,44,2176733672
719,21,Ticks_Linear_5,24,1,48,40,2177160640
719,21,Ticks_Linear_5,25,5,42,127,2177211748
719,21,Ticks_Linear_5,26,5,42,127,2177721788
719,21,Ticks_Linear_5,27,1,48,34,2177761832
719,21,Ticks_Linear_5,28,5,42,127,2178231672
719,21,Ticks_Linear_5,29,1,48,43,2178273060
719,21,Ticks_Linear_5,30,1,48,42,2178725700
719,21,Ticks_Linear_5,31,5,42,127,2178741772
719,21,Ticks_Linear_5,32,1,48,27,2179228024
719,21,Ticks_Linear_5,33,5,42,127,2179251584
719,21,Ticks_Linear_5,34,1,48,31,2179743376
719,21,Ticks_Linear_5,35,5,42,127,2179761544
719,21,Ticks_Linear_5,36,1,48,48,2180180476
719,21,Ticks_Linear_5,37,5,42,127,2180281820
719,21,Ticks_Linear_5,38,1,48,36,2180757824
719,21,Ticks_Linear_5,39,5,42,127,2180801828
719,21,Ticks_Linear_5,40,1,48,42,2181258424
719,21,Ticks_Linear_5,41,5,42,127,2181322492
719,21,Ticks_Linear_5,42,1,48,40,2181788372
719,21,Ticks_Linear_5,43,5,42,127,2181842488
719,21,Ticks_Linear_5,44,1,48,40,2182288600
719,21,Ticks_Linear_5,45,5,42,127,2182361660
719,21,Ticks_Linear_5,46,1,48,38,2182729632
719,21,Ticks_Linear_5,47,5,42,127,2182891876
719,21,Ticks_Linear_5,48,1,48,41,2183355604
719,21,Ticks_Linear_5,49,5,42,127,2183422368
719,21,Ticks_Linear_5,50,1,48,35,2183888696
719,21,Ticks_Linear_5,51,5,42,127,2183951724
719,21,Ticks_Linear_5,52,1,48,43,2184416632
719,21,Ticks_Linear_5,53,5,42,127,2184482272
719,21,Ticks_Linear_5,54,1,48,34,2184964112
719,21,Ticks_Linear_5,55,5,42,127,2185011632
719,21,Ticks_Linear_5,56,1,48,34,2185491900
719,21,Ticks_Linear_5,57,5,42,127,2185552392
719,21,Ticks_Linear_5,58,1,48,37,2186020504
719,21,Ticks_Linear_5,59,5,42,127,2186092008
719,21,Ticks_Linear_5,60,1,48,33,2186577732
719,21,Ticks_Linear_5,61,5,42,127,2186631552
719,21,Ticks_Linear_5,62,1,48,30,2187104096
719,21,Ticks_Linear_5,63,5,42,127,2187172360
719,21,Ticks_Linear_5,64,1,48,29,2187626712
719,21,Ticks_Linear_5,65,5,42,127,2187711976
719,21,Ticks_Linear_5,66,1,48,39,2188140496
719,21,Ticks_Linear_5,67,5,42,127,2188261760
719,21,Ticks_Linear_5,68,1,48,32,2188791316
719,21,Ticks_Linear_5,69,5,42,127,2188811724
719,21,Ticks_Linear_5,70,1,48,32,2189326280
719,21,Ticks_Linear_5,71,5,42,127,2189361524
719,21,Ticks_Linear_5,72,1,48,32,2189876828
719,21,Ticks_Linear_5,73,5,42,127,2189912396
719,21,Ticks_Linear_5,74,1,48,30,2190424484
719,21,Ticks_Linear_5,75,5,42,127,2190471480
719,21,Ticks_Linear_5,76,1,48,32,2190930256
719,21,Ticks_Linear_5,77,5,42,127,2191031676
719,21,Ticks_Linear_5,78,1,48,30,2191511428
719,21,Ticks_Linear_5,79,5,42,127,2191591672
719,21,Ticks_Linear_5,80,1,48,29,2192080104
719,21,Ticks_Linear_5,81,5,42,127,2192152252
719,21,Ticks_Linear_5,82,1,48,32,2192613048
719,21,Ticks_Linear_5,83,5,42,127,2192712448
719,21,Ticks_Linear_5,84,1,48,25,2193180520
719,21,Ticks_Linear_5,85,5,42,127,2193272320
719,21,Ticks_Linear_5,86,1,48,31,2193726120
719,21,Ticks_Linear_5,87,5,42,127,2193841504
719,21,Ticks_Linear_5,88,1,48,32,2194337804
719,21,Ticks_Linear_5,89,5,42,127,2194411760
719,21,Ticks_Linear_5,90,1,48,28,2194920784
719,21,Ticks_Linear_5,91,5,42,127,2194982452
719,21,Ticks_Linear_5,92,1,48,29,2195473576
719,21,Ticks_Linear_5,93,5,42,127,2195551524
719,21,Ticks_Linear_5,94,1,48,32,2196053796
719,21,Ticks_Linear_5,95,5,42,127,2196121916
719,21,Ticks_Linear_5,96,1,48,29,2196640976
719,21,Ticks_Linear_5,97,5,42,127,2196701668
719,21,Ticks_Linear_5,98,1,48,29,2197189484
719,21,Ticks_Linear_5,99,5,42,127,2197282316
719,21,Ticks_Linear_5,100,1,48,29,2197765872
719,21,Ticks_Linear_5,101,5,42,127,2197861860
719,21,Ticks_Linear_5,102,1,48,28,2198369164
719,21,Ticks_Linear_5,103,5,42,127,2198442300
719,21,Ticks_Linear_5,104,1,48,25,2198933272
719,21,Ticks_Linear_5,105,5,42,127,2199021908
719,21,Ticks_Linear_5,106,1,48,21,2199543884
719,21,Ticks_Linear_5,107,5,42,127,2199611844
719,21,Ticks_Linear_5,108,1,48,30,2200091360
719,21,Ticks_Linear_5,109,5,42,127,2200201568
719,21,Ticks_Linear_5,110,1,48,24,2200723708
719,21,Ticks_Linear_5,111,5,42,127,2200792492
719,21,Ticks_Linear_5,112,1,48,33,2201272460
719,21,Ticks_Linear_5,113,5,42,127,2201391484
719,21,Ticks_Linear_5,114,5,42,127,2201982292
719,21,Ticks_Linear_5,115,1,48,21,2201984004
719,21,Ticks_Linear_5,116,5,42,127,2202582340
719,21,Ticks_Linear_5,117,1,48,24,2202590408
719,21,Ticks_Linear_5,118,1,48,23,2203075100
719,21,Ticks_Linear_5,119,5,42,127,2203181392
719,21,Ticks_Linear_5,120,5,42,127,2203781564
719,21,Ticks_Linear_5,121,1,48,28,2203789396
719,21,Ticks_Linear_5,122,5,42,127,2204381612
719,21,Ticks_Linear_5,123,1,48,14,2204413488
719,21,Ticks_Linear_5,124,1,48,36,2204948204
719,21,Ticks_Linear_5,125,5,42,127,2204981800
719,21,Ticks_Linear_5,126,1,48,39,2205498156
719,21,Ticks_Linear_5,127,5,42,127,2205591984
719,21,Ticks_Linear_5,128,1,48,21,2206194092
719,21,Ticks_Linear_5,129,5,42,127,2206202144
719,21,Ticks_Linear_5,130,1,48,35,2206759532
719,21,Ticks_Linear_5,131,5,42,127,2206811428
719,21,Ticks_Linear_5,132,1,48,30,2207359012
719,21,Ticks_Linear_5,133,5,42,127,2207422108
719,21,Ticks_Linear_5,134,1,48,37,2207959968
719,21,Ticks_Linear_5,135,5,42,127,2208032196
719,21,Ticks_Linear_5,136,1,48,38,2208580160
719,21,Ticks_Linear_5,137,5,42,127,2208651516
719,21,Ticks_Linear_5,138,1,48,36,2209144432
719,21,Ticks_Linear_5,139,5,42,127,2209272216
719,21,Ticks_Linear_5,140,1,48,54,2209862504
719,21,Ticks_Linear_5,141,5,42,127,2209891852
719,21,Ticks_Linear_5,142,1,48,36,2210486616
719,21,Ticks_Linear_5,143,5,42,127,2210512268
719,21,Ticks_Linear_5,144,1,48,34,2211057232
719,21,Ticks_Linear_5,145,5,42,127,2211131864
719,21,Ticks_Linear_5,146,1,48,28,2211721492
719,21,Ticks_Linear_5,147,5,42,127,2211761592
719,21,Ticks_Linear_5,148,1,48,33,2212331196
719,21,Ticks_Linear_5,149,5,42,127,2212392196
719,21,Ticks_Linear_5,150,1,48,36,2212964596
719,21,Ticks_Linear_5,151,5,42,127,2213022000
719,21,Ticks_Linear_5,152,1,48,34,2213589352
719,21,Ticks_Linear_5,153,5,42,127,2213651852
719,21,Ticks_Linear_5,154,1,48,46,2214226496
719,21,Ticks_Linear_5,155,5,42,127,2214281584
719,21,Ticks_Linear_5,156,1,48,45,2214865936
719,21,Ticks_Linear_5,157,5,42,127,2214921624
719,21,Ticks_Linear_5,158,1,48,36,2215500092
719,21,Ticks_Linear_5,159,5,42,127,2215561536
719,21,Ticks_Linear_5,160,1,48,43,2216127240
719,21,Ticks_Linear_5,161,5,42,127,2216201796
719,21,Ticks_Linear_5,162,1,48,40,2216774244
719,21,Ticks_Linear_5,163,5,42,127,2216841712
719,21,Ticks_Linear_5,164,1,48,46,2217410416
719,21,Ticks_Linear_5,165,5,42,127,2217481452
719,21,Ticks_Linear_5,166,1,48,41,2218069936
719,21,Ticks_Linear_5,167,5,42,127,2218131996
719,21,Ticks_Linear_5,168,1,48,30,2218691488
719,21,Ticks_Linear_5,169,5,42,127,2218783324
719,21,Ticks_Linear_5,170,1,48,47,2219317968
719,21,Ticks_Linear_5,171,5,42,127,2219432300
719,21,Ticks_Linear_5,172,1,48,36,2219946868
719,21,Ticks_Linear_5,173,5,42,127,2220081404
719,21,Ticks_Linear_5,174,1,48,42,2220625504
719,21,Ticks_Linear_5,175,5,42,127,2220731876
719,21,Ticks_Linear_5,176,1,48,40,2221291688
719,21,Ticks_Linear_5,177,5,42,127,2221392232
719,21,Ticks_Linear_5,178,1,48,39,2221957952
719,21,Ticks_Linear_5,179,5,42,127,2222051816
719,21,Ticks_Linear_5,180,1,48,23,2222657680
719,21,Ticks_Linear_5,181,5,42,127,2222712116
719,21,Ticks_Linear_5,182,1,48,35,2223341856
719,21,Ticks_Linear_5,183,5,42,127,2223371772
719,21,Ticks_Linear_5,184,1,48,46,2223959680
719,21,Ticks_Linear_5,185,5,42,127,2224032132
719,21,Ticks_Linear_5,186,1,48,44,2224625996
719,21,Ticks_Linear_5,187,5,42,127,2224701900
719,21,Ticks_Linear_5,188,1,48,28,2225287624
719,21,Ticks_Linear_5,189,5,42,127,2225371620
719,21,Ticks_Linear_5,190,1,48,50,2225955976
719,21,Ticks_Linear_5,191,5,42,127,2226042088
719,21,Ticks_Linear_5,192,1,48,42,2226565408
719,21,Ticks_Linear_5,193,1,48,22,2226638768
719,21,Ticks_Linear_5,194,5,42,127,2226711908
719,21,Ticks_Linear_5,195,1,48,37,2227237772
719,21,Ticks_Linear_5,196,5,42,127,2227381764
719,21,Ticks_Linear_5,197,1,48,46,2227966208
719,21,Ticks_Linear_5,198,5,42,127,2228061684
719,21,Ticks_Linear_5,199,1,48,42,2228610472
719,21,Ticks_Linear_5,200,5,42,127,2228741696
719,21,Ticks_Linear_5,201,1,48,27,2229302480
719,21,Ticks_Linear_5,202,5,42,127,2229421600
719,21,Ticks_Linear_5,203,1,48,47,2229941868
719,21,Ticks_Linear_5,204,5,42,127,2230102624
719,21,Ticks_Linear_5,205,1,48,41,2230573444
719,21,Ticks_Linear_5,206,5,42,127,2230782280
719,21,Ticks_Linear_5,207,1,48,42,2231382924
719,21,Ticks_Linear_5,208,5,42,127,2231471784
719,21,Ticks_Linear_5,209,1,48,37,2232085192
719,21,Ticks_Linear_5,210,5,42,127,2232161872
719,21,Ticks_Linear_5,211,1,48,15,2232798792
719,21,Ticks_Linear_5,212,5,42,127,2232851788
719,21,Ticks_Linear_5,213,1,48,45,2233468884
719,21,Ticks_Linear_5,214,5,42,127,2233541948
719,21,Ticks_Linear_5,215,1,48,31,2234203836
719,21,Ticks_Linear_5,216,5,42,127,2234232188
719,21,Ticks_Linear_5,217,1,48,48,2234861476
719,21,Ticks_Linear_5,218,5,42,127,2234931536
719,21,Ticks_Linear_5,219,1,48,43,2235491880
719,21,Ticks_Linear_5,220,1,48,22,2235565392
719,21,Ticks_Linear_5,221,5,42,127,2235631936
719,21,Ticks_Linear_5,222,1,48,47,2236159444
719,21,Ticks_Linear_5,223,5,42,127,2236332340
719,21,Ticks_Linear_5,224,1,48,49,2236812992
719,21,Ticks_Linear_5,225,5,42,127,2237031792
719,21,Ticks_Linear_5,226,5,42,127,2237732136
719,21,Ticks_Linear_5,227,1,48,46,2237784704
719,21,Ticks_Linear_5,228,1,48,40,2238424048
719,21,Ticks_Linear_5,229,5,42,127,2238441764
719,21,Ticks_Linear_5,230,1,48,37,2239035704
719,21,Ticks_Linear_5,231,5,42,127,2239151680
719,21,Ticks_Linear_5,232,1,48,30,2239804344
719,21,Ticks_Linear_5,233,5,42,127,2239862080
719,21,Ticks_Linear_5,234,1,48,37,2240467176
719,21,Ticks_Linear_5,235,5,42,127,2240571672
719,21,Ticks_Linear_5,236,1,48,39,2241133300
719,21,Ticks_Linear_5,237,5,42,127,2241282428
719,21,Ticks_Linear_5,238,1,48,42,2241873268
719,21,Ticks_Linear_5,239,5,42,127,2242011460
719,21,Ticks_Linear_5,240,1,48,38,2242570748
719,21,Ticks_Linear_5,241,5,42,127,2242732400
719,21,Ticks_Linear_5,242,1,48,40,2243304936
719,21,Ticks_Linear_5,243,5,42,127,2243452440
719,21,Ticks_Linear_5,244,1,48,32,2244015844
719,21,Ticks_Linear_5,245,5,42,127,2244172036
719,21,Ticks_Linear_5,246,1,48,36,2244720392
719,21,Ticks_Linear_5,247,5,42,127,2244891908
719,21,Ticks_Linear_5,248,1,48,33,2245420568
719,21,Ticks_Linear_5,249,5,42,127,2245622132
719,21,Ticks_Linear_5,250,1,48,28,2246162396
719,21,Ticks_Linear_5,251,5,42,127,2246352360
719,21,Ticks_Linear_5,252,1,48,27,2246853908
719,21,Ticks_Linear_5,253,5,42,127,2247082660
719,21,Ticks_Linear_5,254,1,48,28,2247586900
719,21,Ticks_Linear_5,255,5,42,127,2247811616
719,21,Ticks_Linear_5,256,1,48,29,2248372552
719,21,Ticks_Linear_5,257,5,42,127,2248541476
719,21,Ticks_Linear_5,258,1,48,22,2249146660
719,21,Ticks_Linear_5,259,5,42,127,2249281932
719,21,Ticks_Linear_5,260,1,48,21,2249873144
719,21,Ticks_Linear_5,261,5,42,127,2250022420
719,21,Ticks_Linear_5,262,1,48,25,2250602776
719,21,Ticks_Linear_5,263,5,42,127,2250761484
719,21,Ticks_Linear_5,264,1,48,22,2251340344
719,21,Ticks_Linear_5,265,5,42,127,2251501824
719,21,Ticks_Linear_5,266,1,48,30,2252118416
719,21,Ticks_Linear_5,267,5,42,127,2252242384
719,21,Ticks_Linear_5,268,5,42,127,2252991808
719,21,Ticks_Linear_5,269,1,48,36,2253116088
719,21,Ticks_Linear_5,270,1,48,32,2253707228
719,21,Ticks_Linear_5,271,5,42,127,2253741572
719,21,Ticks_Linear_5,272,1,48,40,2254356556
719,21,Ticks_Linear_5,273,5,42,127,2254492004
719,21,Ticks_Linear_5,274,1,48,30,2255118832
719,21,Ticks_Linear_5,275,5,42,127,2255241552
719,21,Ticks_Linear_5,276,1,48,38,2255848308
719,21,Ticks_Linear_5,277,5,42,127,2255992300
719,21,Ticks_Linear_5,278,1,48,29,2256535032
719,21,Ticks_Linear_5,279,5,42,127,2256751956
719,21,Ticks_Linear_5,280,1,48,37,2257435548
719,21,Ticks_Linear_5,281,5,42,127,2257511708
719,21,Ticks_Linear_5,282,1,48,37,2258160172
719,21,Ticks_Linear_5,283,5,42,127,2258271500
719,21,Ticks_Linear_5,284,1,48,38,2258896012
719,21,Ticks_Linear_5,285,5,42,127,2259032508
719,21,Ticks_Linear_5,286,1,48,33,2259690576
719,21,Ticks_Linear_5,287,5,42,127,2259801452
719,21,Ticks_Linear_5,288,1,48,25,2260463332
719,21,Ticks_Linear_5,289,5,42,127,2260571448
719,21,Ticks_Linear_5,290,1,48,35,2261272488
719,21,Ticks_Linear_5,291,5,42,127,2261341604
719,21,Ticks_Linear_5,292,1,48,39,2262057384
719,21,Ticks_Linear_5,293,5,42,127,2262111672
719,21,Ticks_Linear_5,294,1,48,46,2262836132
719,21,Ticks_Linear_5,295,5,42,127,2262881588
719,21,Ticks_Linear_5,296,1,48,32,2263534240
719,21,Ticks_Linear_5,297,5,42,127,2263651568
719,21,Ticks_Linear_5,298,1,48,28,2264247540
719,21,Ticks_Linear_5,299,5,42,127,2264432040
719,21,Ticks_Linear_5,300,1,48,39,2265025548
719,21,Ticks_Linear_5,301,5,42,127,2265212292
719,21,Ticks_Linear_5,302,1,48,34,2265812392
719,21,Ticks_Linear_5,303,5,42,127,2265991424
719,21,Ticks_Linear_5,304,1,48,36,2266589268
719,21,Ticks_Linear_5,305,5,42,127,2266771900
719,21,Ticks_Linear_5,306,1,48,30,2267371400
719,21,Ticks_Linear_5,307,5,42,127,2267552228
719,21,Ticks_Linear_5,308,1,48,39,2268183632
719,21,Ticks_Linear_5,309,5,42,127,2268341768
719,21,Ticks_Linear_5,310,1,48,30,2268988888
719,21,Ticks_Linear_5,311,5,42,127,2269132280
719,21,Ticks_Linear_5,312,5,42,127,2269921916
719,21,Ticks_Linear_5,313,1,48,38,2269970124
719,21,Ticks_Linear_5,314,1,48,20,2270623636
719,21,Ticks_Linear_5,315,5,42,127,2270712048
719,21,Ticks_Linear_5,316,1,48,34,2271365696
719,21,Ticks_Linear_5,317,5,42,127,2271501648
719,21,Ticks_Linear_5,318,1,48,34,2272142056
719,21,Ticks_Linear_5,319,5,42,127,2272301368
719,21,Ticks_Linear_5,320,1,48,32,2272961928
719,21,Ticks_Linear_5,321,5,42,127,2273102240
719,21,Ticks_Linear_5,322,1,48,30,2273730424
719,21,Ticks_Linear_5,323,5,42,127,2273902036
719,21,Ticks_Linear_5,324,5,42,127,2274701560
719,21,Ticks_Linear_5,325,1,48,38,2274951240
719,21,Ticks_Linear_5,326,5,42,127,2275501432
719,21,Ticks_Linear_5,327,1,48,43,2275783760
719,21,Ticks_Linear_5,328,5,42,127,2276312460
719,21,Ticks_Linear_5,329,1,48,37,2276603324
719,21,Ticks_Linear_5,330,5,42,127,2277122368
719,21,Ticks_Linear_5,331,1,48,24,2277374364
719,21,Ticks_Linear_5,332,5,42,127,2277941564
719,21,Ticks_Linear_5,333,1,48,32,2278075460
719,21,Ticks_Linear_5,334,5,42,127,2278751568
719,21,Ticks_Linear_5,335,1,48,25,2278847624
719,21,Ticks_Linear_5,336,1,48,34,2279553196
719,21,Ticks_Linear_5,337,5,42,127,2279561620
719,21,Ticks_Linear_5,0,9999,9999,9999,2170339416
719,21,Ticks_Linear_5,1,9999,9999,9999,2170819664
719,21,Ticks_Linear_5,2,9999,9999,9999,2171299916
719,21,Ticks_Linear_5,3,9999,9999,9999,2171779192
719,21,Ticks_Linear_5,4,9999,9999,9999,2172259444
719,21,Ticks_Linear_5,5,9999,9999,9999,2172749932
719,21,Ticks_Linear_5,6,9999,9999,9999,2173239420
719,21,Ticks_Linear_5,7,9999,9999,9999,2173729904
719,21,Ticks_Linear_5,8,9999,9999,9999,2174219344
719,21,Ticks_Linear_5,9,9999,9999,9999,2174709832
719,21,Ticks_Linear_5,10,9999,9999,9999,2175209532
719,21,Ticks_Linear_5,11,9999,9999,9999,2175709304
719,21,Ticks_Linear_5,12,9999,9999,9999,2176209976
719,21,Ticks_Linear_5,13,9999,9999,9999,2176709756
719,21,Ticks_Linear_5,14,9999,9999,9999,2177209448
719,21,Ticks_Linear_5,15,9999,9999,9999,2177719416
719,21,Ticks_Linear_5,16,9999,9999,9999,2178229376
719,21,Ticks_Linear_5,17,9999,9999,9999,2178739328
719,21,Ticks_Linear_5,18,9999,9999,9999,2179249212
719,21,Ticks_Linear_5,19,9999,9999,9999,2179759168
719,21,Ticks_Linear_5,20,9999,9999,9999,2180279372
719,21,Ticks_Linear_5,21,9999,9999,9999,2180799604
719,21,Ticks_Linear_5,22,9999,9999,9999,2181319748
719,21,Ticks_Linear_5,23,9999,9999,9999,2181839968
719,21,Ticks_Linear_5,24,9999,9999,9999,2182359140
719,21,Ticks_Linear_5,25,9999,9999,9999,2182889580
719,21,Ticks_Linear_5,26,9999,9999,9999,2183419996
719,21,Ticks_Linear_5,27,9999,9999,9999,2183949424
719,21,Ticks_Linear_5,28,9999,9999,9999,2184479828
719,21,Ticks_Linear_5,29,9999,9999,9999,2185009260
719,21,Ticks_Linear_5,30,9999,9999,9999,2185549948
719,21,Ticks_Linear_5,31,9999,9999,9999,2186089564
719,21,Ticks_Linear_5,32,9999,9999,9999,2186629176
719,21,Ticks_Linear_5,33,9999,9999,9999,2187169912
719,21,Ticks_Linear_5,34,9999,9999,9999,2187709528
719,21,Ticks_Linear_5,35,9999,9999,9999,2188259388
719,21,Ticks_Linear_5,36,9999,9999,9999,2188809276
719,21,Ticks_Linear_5,37,9999,9999,9999,2189359228
719,21,Ticks_Linear_5,38,9999,9999,9999,2189910096
719,21,Ticks_Linear_5,39,9999,9999,9999,2190469184
719,21,Ticks_Linear_5,40,9999,9999,9999,2191029300
719,21,Ticks_Linear_5,41,9999,9999,9999,2191589448
719,21,Ticks_Linear_5,42,9999,9999,9999,2192149584
719,21,Ticks_Linear_5,43,9999,9999,9999,2192709700
719,21,Ticks_Linear_5,44,9999,9999,9999,2193269872
719,21,Ticks_Linear_5,45,9999,9999,9999,2193839204
719,21,Ticks_Linear_5,46,9999,9999,9999,2194409540
719,21,Ticks_Linear_5,47,9999,9999,9999,2194979928
719,21,Ticks_Linear_5,48,9999,9999,9999,2195549300
719,21,Ticks_Linear_5,49,9999,9999,9999,2196119616
719,21,Ticks_Linear_5,50,9999,9999,9999,2196699220
719,21,Ticks_Linear_5,51,9999,9999,9999,2197279872
719,21,Ticks_Linear_5,52,9999,9999,9999,2197859412
719,21,Ticks_Linear_5,53,9999,9999,9999,2198440004
719,21,Ticks_Linear_5,54,9999,9999,9999,2199019608
719,21,Ticks_Linear_5,55,9999,9999,9999,2199609472
719,21,Ticks_Linear_5,56,9999,9999,9999,2200199268
719,21,Ticks_Linear_5,57,9999,9999,9999,2200790120
719,21,Ticks_Linear_5,58,9999,9999,9999,2201389108
719,21,Ticks_Linear_5,59,9999,9999,9999,2201979992
719,21,Ticks_Linear_5,60,9999,9999,9999,2202580040
719,21,Ticks_Linear_5,61,9999,9999,9999,2203179096
719,21,Ticks_Linear_5,62,9999,9999,9999,2203779192
719,21,Ticks_Linear_5,63,9999,9999,9999,2204379236
719,21,Ticks_Linear_5,64,9999,9999,9999,2204979280
719,21,Ticks_Linear_5,65,9999,9999,9999,2205589612
719,21,Ticks_Linear_5,66,9999,9999,9999,2206199920
719,21,Ticks_Linear_5,67,9999,9999,9999,2206809208
719,21,Ticks_Linear_5,68,9999,9999,9999,2207419516
719,21,Ticks_Linear_5,69,9999,9999,9999,2208029824
719,21,Ticks_Linear_5,70,9999,9999,9999,2208649292
719,21,Ticks_Linear_5,71,9999,9999,9999,2209269844
719,21,Ticks_Linear_5,72,9999,9999,9999,2209889404
719,21,Ticks_Linear_5,73,9999,9999,9999,2210509896
719,21,Ticks_Linear_5,74,9999,9999,9999,2211129416
719,21,Ticks_Linear_5,75,9999,9999,9999,2211759220
719,21,Ticks_Linear_5,76,9999,9999,9999,2212389972
719,21,Ticks_Linear_5,77,9999,9999,9999,2213019700
719,21,Ticks_Linear_5,78,9999,9999,9999,2213649480
719,21,Ticks_Linear_5,79,9999,9999,9999,2214279284
719,21,Ticks_Linear_5,80,9999,9999,9999,2214919252
719,21,Ticks_Linear_5,81,9999,9999,9999,2215559236
719,21,Ticks_Linear_5,82,9999,9999,9999,2216199276
719,21,Ticks_Linear_5,83,9999,9999,9999,2216839264
719,21,Ticks_Linear_5,84,9999,9999,9999,2217479228
719,21,Ticks_Linear_5,85,9999,9999,9999,2218129476
719,21,Ticks_Linear_5,86,9999,9999,9999,2218779768
719,21,Ticks_Linear_5,87,9999,9999,9999,2219430004
719,21,Ticks_Linear_5,88,9999,9999,9999,2220079180
719,21,Ticks_Linear_5,89,9999,9999,9999,2220729428
719,21,Ticks_Linear_5,90,9999,9999,9999,2221389936
719,21,Ticks_Linear_5,91,9999,9999,9999,2222049340
719,21,Ticks_Linear_5,92,9999,9999,9999,2222709816
719,21,Ticks_Linear_5,93,9999,9999,9999,2223369328
719,21,Ticks_Linear_5,94,9999,9999,9999,2224029760
719,21,Ticks_Linear_5,95,9999,9999,9999,2224699452
719,21,Ticks_Linear_5,96,9999,9999,9999,2225369172
719,21,Ticks_Linear_5,97,9999,9999,9999,2226039864
719,21,Ticks_Linear_5,98,9999,9999,9999,2226709612
719,21,Ticks_Linear_5,99,9999,9999,9999,2227379316
719,21,Ticks_Linear_5,100,9999,9999,9999,2228059236
719,21,Ticks_Linear_5,101,9999,9999,9999,2228739172
719,21,Ticks_Linear_5,102,9999,9999,9999,2229419080
719,21,Ticks_Linear_5,103,9999,9999,9999,2230100028
719,21,Ticks_Linear_5,104,9999,9999,9999,2230779980
719,21,Ticks_Linear_5,105,9999,9999,9999,2231469112
719,21,Ticks_Linear_5,106,9999,9999,9999,2232159352
719,21,Ticks_Linear_5,107,9999,9999,9999,2232849488
719,21,Ticks_Linear_5,108,9999,9999,9999,2233539652
719,21,Ticks_Linear_5,109,9999,9999,9999,2234229812
719,21,Ticks_Linear_5,110,9999,9999,9999,2234929240
719,21,Ticks_Linear_5,111,9999,9999,9999,2235629636
719,21,Ticks_Linear_5,112,9999,9999,9999,2236330044
719,21,Ticks_Linear_5,113,9999,9999,9999,2237029492
719,21,Ticks_Linear_5,114,9999,9999,9999,2237729912
719,21,Ticks_Linear_5,115,9999,9999,9999,2238439540
719,21,Ticks_Linear_5,116,9999,9999,9999,2239149160
719,21,Ticks_Linear_5,117,9999,9999,9999,2239859780
719,21,Ticks_Linear_5,118,9999,9999,9999,2240569448
719,21,Ticks_Linear_5,119,9999,9999,9999,2241280056
719,21,Ticks_Linear_5,120,9999,9999,9999,2242009160
719,21,Ticks_Linear_5,121,9999,9999,9999,2242730100
719,21,Ticks_Linear_5,122,9999,9999,9999,2243449920
719,21,Ticks_Linear_5,123,9999,9999,9999,2244169812
719,21,Ticks_Linear_5,124,9999,9999,9999,2244889684
719,21,Ticks_Linear_5,125,9999,9999,9999,2245619836
719,21,Ticks_Linear_5,126,9999,9999,9999,2246349912
719,21,Ticks_Linear_5,127,9999,9999,9999,2247079992
719,21,Ticks_Linear_5,128,9999,9999,9999,2247809096
719,21,Ticks_Linear_5,129,9999,9999,9999,2248539248
719,21,Ticks_Linear_5,130,9999,9999,9999,2249279560
719,21,Ticks_Linear_5,131,9999,9999,9999,2250019896
719,21,Ticks_Linear_5,132,9999,9999,9999,2250759260
719,21,Ticks_Linear_5,133,9999,9999,9999,2251499600
719,21,Ticks_Linear_5,134,9999,9999,9999,2252239936
719,21,Ticks_Linear_5,135,9999,9999,9999,2252989508
719,21,Ticks_Linear_5,136,9999,9999,9999,2253739124
719,21,Ticks_Linear_5,137,9999,9999,9999,2254489708
719,21,Ticks_Linear_5,138,9999,9999,9999,2255239256
719,21,Ticks_Linear_5,139,9999,9999,9999,2255989852
719,21,Ticks_Linear_5,140,9999,9999,9999,2256749660
719,21,Ticks_Linear_5,141,9999,9999,9999,2257509484
719,21,Ticks_Linear_5,142,9999,9999,9999,2258269276
719,21,Ticks_Linear_5,143,9999,9999,9999,2259030132
719,21,Ticks_Linear_5,144,9999,9999,9999,2259799156
719,21,Ticks_Linear_5,145,9999,9999,9999,2260569148
719,21,Ticks_Linear_5,146,9999,9999,9999,2261339232
719,21,Ticks_Linear_5,147,9999,9999,9999,2262109300
719,21,Ticks_Linear_5,148,9999,9999,9999,2262879288
719,21,Ticks_Linear_5,149,9999,9999,9999,2263649340
719,21,Ticks_Linear_5,150,9999,9999,9999,2264429668
719,21,Ticks_Linear_5,151,9999,9999,9999,2265209920
719,21,Ticks_Linear_5,152,9999,9999,9999,2265989200
719,21,Ticks_Linear_5,153,9999,9999,9999,2266769528
719,21,Ticks_Linear_5,154,9999,9999,9999,2267549780
719,21,Ticks_Linear_5,155,9999,9999,9999,2268339320
719,21,Ticks_Linear_5,156,9999,9999,9999,2269129832
719,21,Ticks_Linear_5,157,9999,9999,9999,2269919320
719,21,Ticks_Linear_5,158,9999,9999,9999,2270709824
719,21,Ticks_Linear_5,159,9999,9999,9999,2271499348
719,21,Ticks_Linear_5,160,9999,9999,9999,2272299072
719,21,Ticks_Linear_5,161,9999,9999,9999,2273099864
719,21,Ticks_Linear_5,162,9999,9999,9999,2273899588
719,21,Ticks_Linear_5,163,9999,9999,9999,2274699336
719,21,Ticks_Linear_5,164,9999,9999,9999,2275499132
719,21,Ticks_Linear_5,165,9999,9999,9999,2276310088
719,21,Ticks_Linear_5,166,9999,9999,9999,2277120072
719,21,Ticks_Linear_5,167,9999,9999,9999,2277939264
719,21,Ticks_Linear_5,168,9999,9999,9999,2278749272
719,21,Ticks_Linear_5,169,9999,9999,9999,2279559248
7110,20,Ticks_Linear_8,0,5,42,127,2289176004
7110,20,Ticks_Linear_8,1,5,42,127,2289996220
7110,20,Ticks_Linear_8,2,5,42,127,2290816560
7110,20,Ticks_Linear_8,3,1,48,34,2290919508
7110,20,Ticks_Linear_8,4,1,48,46,2291609192
7110,20,Ticks_Linear_8,5,5,42,127,2291635672
7110,20,Ticks_Linear_8,6,1,48,46,2292391836
7110,20,Ticks_Linear_8,7,5,42,127,2292455768
7110,20,Ticks_Linear_8,8,1,48,36,2293218300
7110,20,Ticks_Linear_8,9,5,42,127,2293265748
7110,20,Ticks_Linear_8,10,1,48,45,2294046112
7110,20,Ticks_Linear_8,11,5,42,127,2294075808
7110,20,Ticks_Linear_8,12,1,48,37,2294863452
7110,20,Ticks_Linear_8,13,5,42,127,2294885816
7110,20,Ticks_Linear_8,14,1,48,42,2295692008
7110,20,Ticks_Linear_8,15,5,42,127,2295695800
7110,20,Ticks_Linear_8,16,1,48,42,2296476460
7110,20,Ticks_Linear_8,17,5,42,127,2296505708
7110,20,Ticks_Linear_8,18,5,42,127,2297305812
7110,20,Ticks_Linear_8,19,1,48,40,2297332816
7110,20,Ticks_Linear_8,20,5,42,127,2298106208
7110,20,Ticks_Linear_8,21,1,48,32,2298153876
7110,20,Ticks_Linear_8,22,5,42,127,2298905860
7110,20,Ticks_Linear_8,23,1,48,43,2298957984
7110,20,Ticks_Linear_8,24,1,48,45,2299693632
7110,20,Ticks_Linear_8,25,5,42,127,2299705800
7110,20,Ticks_Linear_8,26,5,42,127,2300505856
7110,20,Ticks_Linear_8,27,1,48,42,2300560944
7110,20,Ticks_Linear_8,28,1,48,49,2301278720
7110,20,Ticks_Linear_8,29,5,42,127,2301296060
7110,20,Ticks_Linear_8,30,1,48,42,2302037556
7110,20,Ticks_Linear_8,31,5,42,127,2302085524
7110,20,Ticks_Linear_8,32,1,48,47,2302814444
7110,20,Ticks_Linear_8,33,5,42,127,2302876036
7110,20,Ticks_Linear_8,34,1,48,46,2303591316
7110,20,Ticks_Linear_8,35,5,42,127,2303665428
7110,20,Ticks_Linear_8,36,1,48,38,2304382056
7110,20,Ticks_Linear_8,37,5,42,127,2304456012
7110,20,Ticks_Linear_8,38,5,42,127,2305236568
7110,20,Ticks_Linear_8,39,1,48,34,2305243592
7110,20,Ticks_Linear_8,40,5,42,127,2306015628
7110,20,Ticks_Linear_8,41,1,48,38,2306036048
7110,20,Ticks_Linear_8,42,5,42,127,2306795876
7110,20,Ticks_Linear_8,43,1,48,16,2306826636
7110,20,Ticks_Linear_8,44,1,48,40,2307536172
7110,20,Ticks_Linear_8,45,5,42,127,2307576124
7110,20,Ticks_Linear_8,46,1,48,28,2308330196
7110,20,Ticks_Linear_8,47,5,42,127,2308355556
7110,20,Ticks_Linear_8,48,1,48,35,2309092776
7110,20,Ticks_Linear_8,49,5,42,127,2309125548
7110,20,Ticks_Linear_8,50,1,48,40,2309801512
7110,20,Ticks_Linear_8,51,5,42,127,2309895676
7110,20,Ticks_Linear_8,52,1,48,42,2310574880
7110,20,Ticks_Linear_8,53,5,42,127,2310666496
7110,20,Ticks_Linear_8,54,1,48,31,2311408228
7110,20,Ticks_Linear_8,55,5,42,127,2311435604
7110,20,Ticks_Linear_8,56,5,42,127,2312205752
7110,20,Ticks_Linear_8,57,1,48,35,2312207844
7110,20,Ticks_Linear_8,58,1,48,36,2312901932
7110,20,Ticks_Linear_8,59,5,42,127,2312965556
7110,20,Ticks_Linear_8,60,5,42,127,2313726420
7110,20,Ticks_Linear_8,61,1,48,38,2313735388
7110,20,Ticks_Linear_8,62,1,48,33,2314484108
7110,20,Ticks_Linear_8,63,5,42,127,2314486296
7110,20,Ticks_Linear_8,64,5,42,127,2315245888
7110,20,Ticks_Linear_8,65,1,48,26,2315301052
7110,20,Ticks_Linear_8,66,5,42,127,2316005776
7110,20,Ticks_Linear_8,67,1,48,39,2316056752
7110,20,Ticks_Linear_8,68,5,42,127,2316756372
7110,20,Ticks_Linear_8,69,1,48,31,2316799332
7110,20,Ticks_Linear_8,70,5,42,127,2317505920
7110,20,Ticks_Linear_8,71,1,48,40,2317527540
7110,20,Ticks_Linear_8,72,5,42,127,2318255544
7110,20,Ticks_Linear_8,73,1,48,42,2318292580
7110,20,Ticks_Linear_8,74,1,48,30,2318966328
7110,20,Ticks_Linear_8,75,5,42,127,2319006284
7110,20,Ticks_Linear_8,76,5,42,127,2319755616
7110,20,Ticks_Linear_8,77,1,48,37,2319816624
7110,20,Ticks_Linear_8,78,5,42,127,2320495956
7110,20,Ticks_Linear_8,79,1,48,31,2320561156
7110,20,Ticks_Linear_8,80,5,42,127,2321236216
7110,20,Ticks_Linear_8,81,1,48,39,2321311152
7110,20,Ticks_Linear_8,82,1,48,33,2321962920
7110,20,Ticks_Linear_8,83,5,42,127,2321975628
7110,20,Ticks_Linear_8,84,1,48,27,2322704620
7110,20,Ticks_Linear_8,85,5,42,127,2322716112
7110,20,Ticks_Linear_8,86,1,48,44,2323431768
7110,20,Ticks_Linear_8,87,5,42,127,2323456380
7110,20,Ticks_Linear_8,88,1,48,32,2324164028
7110,20,Ticks_Linear_8,89,5,42,127,2324185408
7110,20,Ticks_Linear_8,90,5,42,127,2324915572
7110,20,Ticks_Linear_8,91,1,48,34,2324939508
7110,20,Ticks_Linear_8,92,1,48,33,2325626652
7110,20,Ticks_Linear_8,93,5,42,127,2325645568
7110,20,Ticks_Linear_8,94,1,48,27,2326364452
7110,20,Ticks_Linear_8,95,5,42,127,2326375796
7110,20,Ticks_Linear_8,96,1,48,37,2327075180
7110,20,Ticks_Linear_8,97,5,42,127,2327105996
7110,20,Ticks_Linear_8,98,1,48,32,2327754632
7110,20,Ticks_Linear_8,99,5,42,127,2327825740
7110,20,Ticks_Linear_8,100,1,48,28,2328495572
7110,20,Ticks_Linear_8,101,5,42,127,2328545636
7110,20,Ticks_Linear_8,102,1,48,32,2329247664
7110,20,Ticks_Linear_8,103,5,42,127,2329265604
7110,20,Ticks_Linear_8,104,5,42,127,2329986404
7110,20,Ticks_Linear_8,105,1,48,21,2329998512
7110,20,Ticks_Linear_8,106,5,42,127,2330715508
7110,20,Ticks_Linear_8,107,1,48,26,2330740564
7110,20,Ticks_Linear_8,108,1,48,35,2331385532
7110,20,Ticks_Linear_8,109,5,42,127,2331426160
7110,20,Ticks_Linear_8,110,1,48,20,2332076520
7110,20,Ticks_Linear_8,111,5,42,127,2332136016
7110,20,Ticks_Linear_8,112,1,48,31,2332772816
7110,20,Ticks_Linear_8,113,5,42,127,2332845580
7110,20,Ticks_Linear_8,114,1,48,34,2333526124
7110,20,Ticks_Linear_8,115,5,42,127,2333556184
7110,20,Ticks_Linear_8,116,1,48,35,2334126016
7110,20,Ticks_Linear_8,117,5,42,127,2334265932
7110,20,Ticks_Linear_8,118,1,48,29,2334951948
7110,20,Ticks_Linear_8,119,5,42,127,2334966220
7110,20,Ticks_Linear_8,120,1,48,32,2335651320
7110,20,Ticks_Linear_8,121,5,42,127,2335665444
7110,20,Ticks_Linear_8,122,1,48,36,2336329204
7110,20,Ticks_Linear_8,123,5,42,127,2336366092
7110,20,Ticks_Linear_8,124,1,48,26,2336991560
7110,20,Ticks_Linear_8,125,5,42,127,2337066264
7110,20,Ticks_Linear_8,126,1,48,31,2337731220
7110,20,Ticks_Linear_8,127,5,42,127,2337766012
7110,20,Ticks_Linear_8,128,1,48,38,2338370140
7110,20,Ticks_Linear_8,129,5,42,127,2338456152
7110,20,Ticks_Linear_8,130,1,48,23,2339018196
7110,20,Ticks_Linear_8,131,5,42,127,2339146076
7110,20,Ticks_Linear_8,132,1,48,29,2339691656
7110,20,Ticks_Linear_8,133,5,42,127,2339836216
7110,20,Ticks_Linear_8,134,1,48,34,2340403208
7110,20,Ticks_Linear_8,135,5,42,127,2340525480
7110,20,Ticks_Linear_8,136,1,48,27,2341102280
7110,20,Ticks_Linear_8,137,5,42,127,2341215492
7110,20,Ticks_Linear_8,138,5,42,127,2341895620
7110,20,Ticks_Linear_8,139,1,48,27,2341913112
7110,20,Ticks_Linear_8,140,1,48,19,2342513160
7110,20,Ticks_Linear_8,141,5,42,127,2342575516
7110,20,Ticks_Linear_8,142,1,48,28,2343199336
7110,20,Ticks_Linear_8,143,5,42,127,2343256468
7110,20,Ticks_Linear_8,144,1,48,26,2343907924
7110,20,Ticks_Linear_8,145,5,42,127,2343945780
7110,20,Ticks_Linear_8,146,1,48,26,2344564916
7110,20,Ticks_Linear_8,147,5,42,127,2344625388
7110,20,Ticks_Linear_8,148,1,48,27,2345267856
7110,20,Ticks_Linear_8,149,5,42,127,2345296228
7110,20,Ticks_Linear_8,150,1,48,27,2345892188
7110,20,Ticks_Linear_8,151,5,42,127,2345965924
7110,20,Ticks_Linear_8,152,1,48,28,2346556500
7110,20,Ticks_Linear_8,153,5,42,127,2346635640
7110,20,Ticks_Linear_8,154,1,48,25,2347172288
7110,20,Ticks_Linear_8,155,5,42,127,2347306368
7110,20,Ticks_Linear_8,156,1,48,21,2347836148
7110,20,Ticks_Linear_8,157,5,42,127,2347976012
7110,20,Ticks_Linear_8,158,1,48,30,2348503776
7110,20,Ticks_Linear_8,159,5,42,127,2348635476
7110,20,Ticks_Linear_8,160,1,48,28,2349151544
7110,20,Ticks_Linear_8,161,5,42,127,2349296032
7110,20,Ticks_Linear_8,162,1,48,25,2349938168
7110,20,Ticks_Linear_8,163,5,42,127,2349955356
7110,20,Ticks_Linear_8,164,1,48,29,2350571908
7110,20,Ticks_Linear_8,165,5,42,127,2350616060
7110,20,Ticks_Linear_8,166,1,48,33,2351222232
7110,20,Ticks_Linear_8,167,5,42,127,2351276348
7110,20,Ticks_Linear_8,168,1,48,28,2351886016
7110,20,Ticks_Linear_8,169,5,42,127,2351925820
7110,20,Ticks_Linear_8,170,1,48,25,2352529072
7110,20,Ticks_Linear_8,171,5,42,127,2352575920
7110,20,Ticks_Linear_8,172,1,48,26,2353156384
7110,20,Ticks_Linear_8,173,5,42,127,2353226016
7110,20,Ticks_Linear_8,174,5,42,127,2353876468
7110,20,Ticks_Linear_8,175,1,48,25,2353883864
7110,20,Ticks_Linear_8,176,5,42,127,2354525672
7110,20,Ticks_Linear_8,177,1,48,20,2354555304
7110,20,Ticks_Linear_8,178,5,42,127,2355165784
7110,20,Ticks_Linear_8,179,1,48,23,2355170400
7110,20,Ticks_Linear_8,180,5,42,127,2355805772
7110,20,Ticks_Linear_8,181,1,48,28,2355807036
7110,20,Ticks_Linear_8,182,1,48,29,2356406748
7110,20,Ticks_Linear_8,183,5,42,127,2356445652
7110,20,Ticks_Linear_8,184,1,48,27,2357041240
7110,20,Ticks_Linear_8,185,5,42,127,2357085640
7110,20,Ticks_Linear_8,186,1,48,20,2357678092
7110,20,Ticks_Linear_8,187,5,42,127,2357725680
7110,20,Ticks_Linear_8,188,1,48,27,2358345040
7110,20,Ticks_Linear_8,189,5,42,127,2358356312
7110,20,Ticks_Linear_8,190,1,48,32,2358942308
7110,20,Ticks_Linear_8,191,5,42,127,2358986164
7110,20,Ticks_Linear_8,192,1,48,29,2359533440
7110,20,Ticks_Linear_8,193,5,42,127,2359615868
7110,20,Ticks_Linear_8,194,1,48,28,2360244472
7110,20,Ticks_Linear_8,195,5,42,127,2360246116
7110,20,Ticks_Linear_8,196,1,48,24,2360874384
7110,20,Ticks_Linear_8,197,5,42,127,2360876504
7110,20,Ticks_Linear_8,198,5,42,127,2361495828
7110,20,Ticks_Linear_8,199,1,48,25,2361520216
7110,20,Ticks_Linear_8,200,5,42,127,2362115720
7110,20,Ticks_Linear_8,201,1,48,23,2362152532
7110,20,Ticks_Linear_8,202,5,42,127,2362735864
7110,20,Ticks_Linear_8,203,1,48,30,2362765572
7110,20,Ticks_Linear_8,204,1,48,31,2363332264
7110,20,Ticks_Linear_8,205,5,42,127,2363355528
7110,20,Ticks_Linear_8,206,1,48,36,2363955612
7110,20,Ticks_Linear_8,207,5,42,127,2363976120
7110,20,Ticks_Linear_8,208,5,42,127,2364586660
7110,20,Ticks_Linear_8,209,1,48,33,2364858804
7110,20,Ticks_Linear_8,210,5,42,127,2365195624
7110,20,Ticks_Linear_8,211,1,48,30,2365368016
7110,20,Ticks_Linear_8,212,5,42,127,2365805808
7110,20,Ticks_Linear_8,213,1,48,25,2365967016
7110,20,Ticks_Linear_8,214,5,42,127,2366416188
7110,20,Ticks_Linear_8,215,1,48,27,2366492244
7110,20,Ticks_Linear_8,216,5,42,127,2367025600
7110,20,Ticks_Linear_8,217,1,48,29,2367141896
7110,20,Ticks_Linear_8,218,5,42,127,2367625672
7110,20,Ticks_Linear_8,219,1,48,35,2367738280
7110,20,Ticks_Linear_8,220,5,42,127,2368225644
7110,20,Ticks_Linear_8,221,1,48,24,2368399008
7110,20,Ticks_Linear_8,222,5,42,127,2368825844
7110,20,Ticks_Linear_8,223,1,48,29,2368990892
7110,20,Ticks_Linear_8,224,5,42,127,2369425768
7110,20,Ticks_Linear_8,225,1,48,29,2369583760
7110,20,Ticks_Linear_8,226,5,42,127,2370025816
7110,20,Ticks_Linear_8,227,1,48,42,2370432548
7110,20,Ticks_Linear_8,228,5,42,127,2370615608
7110,20,Ticks_Linear_8,229,5,42,127,2371205592
7110,20,Ticks_Linear_8,230,1,48,36,2371206932
7110,20,Ticks_Linear_8,231,5,42,127,2371796504
7110,20,Ticks_Linear_8,232,1,48,28,2371909432
7110,20,Ticks_Linear_8,233,5,42,127,2372386296
7110,20,Ticks_Linear_8,234,1,48,41,2372503336
7110,20,Ticks_Linear_8,235,5,42,127,2372976036
7110,20,Ticks_Linear_8,236,1,48,39,2373070516
7110,20,Ticks_Linear_8,237,5,42,127,2373555568
7110,20,Ticks_Linear_8,238,1,48,27,2373651620
7110,20,Ticks_Linear_8,239,5,42,127,2374136292
7110,20,Ticks_Linear_8,240,1,48,34,2374258656
7110,20,Ticks_Linear_8,241,5,42,127,2374715676
7110,20,Ticks_Linear_8,242,1,48,29,2374864256
7110,20,Ticks_Linear_8,243,5,42,127,2375296504
7110,20,Ticks_Linear_8,244,1,48,32,2375475464
7110,20,Ticks_Linear_8,245,5,42,127,2375875956
7110,20,Ticks_Linear_8,246,1,48,35,2376104740
7110,20,Ticks_Linear_8,247,5,42,127,2376446424
7110,20,Ticks_Linear_8,248,1,48,27,2376694984
7110,20,Ticks_Linear_8,249,5,42,127,2377015548
7110,20,Ticks_Linear_8,250,1,48,23,2377326504
7110,20,Ticks_Linear_8,251,5,42,127,2377586188
7110,20,Ticks_Linear_8,252,1,48,31,2378034992
7110,20,Ticks_Linear_8,253,5,42,127,2378156288
7110,20,Ticks_Linear_8,254,5,42,127,2378725876
7110,20,Ticks_Linear_8,255,1,48,32,2378905460
7110,20,Ticks_Linear_8,256,5,42,127,2379285788
7110,20,Ticks_Linear_8,257,1,48,31,2379556956
7110,20,Ticks_Linear_8,258,5,42,127,2379846020
7110,20,Ticks_Linear_8,259,1,48,38,2380242392
7110,20,Ticks_Linear_8,260,5,42,127,2380406228
7110,20,Ticks_Linear_8,261,1,48,28,2380880440
7110,20,Ticks_Linear_8,262,5,42,127,2380966304
7110,20,Ticks_Linear_8,263,1,48,29,2381496288
7110,20,Ticks_Linear_8,264,5,42,127,2381526440
7110,20,Ticks_Linear_8,265,5,42,127,2382076316
7110,20,Ticks_Linear_8,266,1,48,32,2382087380
7110,20,Ticks_Linear_8,267,5,42,127,2382626340
7110,20,Ticks_Linear_8,268,1,48,24,2382666936
7110,20,Ticks_Linear_8,269,5,42,127,2383176312
7110,20,Ticks_Linear_8,270,1,48,34,2383195320
7110,20,Ticks_Linear_8,271,5,42,127,2383725892
7110,20,Ticks_Linear_8,272,1,48,28,2383751476
7110,20,Ticks_Linear_8,273,1,48,37,2384275840
7110,20,Ticks_Linear_8,274,5,42,127,2384277256
7110,20,Ticks_Linear_8,275,1,48,34,2384791216
7110,20,Ticks_Linear_8,276,5,42,127,2384815452
7110,20,Ticks_Linear_8,277,1,48,33,2385348136
7110,20,Ticks_Linear_8,278,5,42,127,2385356116
7110,20,Ticks_Linear_8,279,5,42,127,2385895736
7110,20,Ticks_Linear_8,280,1,48,22,2385929780
7110,20,Ticks_Linear_8,281,1,48,31,2386424744
7110,20,Ticks_Linear_8,282,5,42,127,2386435568
7110,20,Ticks_Linear_8,283,1,48,35,2386935452
7110,20,Ticks_Linear_8,284,5,42,127,2386976232
7110,20,Ticks_Linear_8,285,1,48,30,2387505140
7110,20,Ticks_Linear_8,286,5,42,127,2387506708
7110,20,Ticks_Linear_8,287,5,42,127,2388035948
7110,20,Ticks_Linear_8,288,1,48,30,2388062504
7110,20,Ticks_Linear_8,289,5,42,127,2388566504
7110,20,Ticks_Linear_8,290,1,48,37,2388600548
7110,20,Ticks_Linear_8,291,1,48,29,2389056724
7110,20,Ticks_Linear_8,292,5,42,127,2389095700
7110,20,Ticks_Linear_8,293,1,48,29,2389598508
7110,20,Ticks_Linear_8,294,5,42,127,2389626252
7110,20,Ticks_Linear_8,295,1,48,28,2390125464
7110,20,Ticks_Linear_8,296,5,42,127,2390146400
7110,20,Ticks_Linear_8,297,1,48,31,2390630480
7110,20,Ticks_Linear_8,298,5,42,127,2390675900
7110,20,Ticks_Linear_8,299,5,42,127,2391196200
7110,20,Ticks_Linear_8,300,1,48,24,2391205688
7110,20,Ticks_Linear_8,301,5,42,127,2391716196
7110,20,Ticks_Linear_8,302,1,48,29,2391735268
7110,20,Ticks_Linear_8,303,1,48,33,2392209180
7110,20,Ticks_Linear_8,304,5,42,127,2392236484
7110,20,Ticks_Linear_8,305,1,48,23,2392739360
7110,20,Ticks_Linear_8,306,5,42,127,2392746292
7110,20,Ticks_Linear_8,307,1,48,30,2393235392
7110,20,Ticks_Linear_8,308,5,42,127,2393256252
7110,20,Ticks_Linear_8,309,1,48,28,2393714276
7110,20,Ticks_Linear_8,310,5,42,127,2393766284
7110,20,Ticks_Linear_8,311,1,48,33,2394253820
7110,20,Ticks_Linear_8,312,5,42,127,2394276172
7110,20,Ticks_Linear_8,313,1,48,28,2394785080
7110,20,Ticks_Linear_8,314,5,42,127,2394786428
7110,20,Ticks_Linear_8,315,1,48,23,2395280320
7110,20,Ticks_Linear_8,316,5,42,127,2395285980
7110,20,Ticks_Linear_8,317,5,42,127,2395785540
7110,20,Ticks_Linear_8,318,1,48,23,2395792476
7110,20,Ticks_Linear_8,319,1,48,30,2396252084
7110,20,Ticks_Linear_8,320,5,42,127,2396286280
7110,20,Ticks_Linear_8,321,1,48,26,2396731768
7110,20,Ticks_Linear_8,322,5,42,127,2396786128
7110,20,Ticks_Linear_8,323,1,48,31,2397268936
7110,20,Ticks_Linear_8,324,5,42,127,2397285608
7110,20,Ticks_Linear_8,325,5,42,127,2397776176
7110,20,Ticks_Linear_8,326,1,48,27,2397779892
7110,20,Ticks_Linear_8,327,1,48,34,2398262092
7110,20,Ticks_Linear_8,328,5,42,127,2398266184
7110,20,Ticks_Linear_8,329,5,42,127,2398756304
7110,20,Ticks_Linear_8,330,1,48,28,2399243876
7110,20,Ticks_Linear_8,331,5,42,127,2399245612
7110,20,Ticks_Linear_8,332,5,42,127,2399736332
7110,20,Ticks_Linear_8,333,1,48,27,2399737300
7110,20,Ticks_Linear_8,0,9999,9999,9999,2289173632
7110,20,Ticks_Linear_8,1,9999,9999,9999,2289993844
7110,20,Ticks_Linear_8,2,9999,9999,9999,2290814036
7110,20,Ticks_Linear_8,3,9999,9999,9999,2291633224
7110,20,Ticks_Linear_8,4,9999,9999,9999,2292453468
7110,20,Ticks_Linear_8,5,9999,9999,9999,2293263448
7110,20,Ticks_Linear_8,6,9999,9999,9999,2294073432
7110,20,Ticks_Linear_8,7,9999,9999,9999,2294883444
7110,20,Ticks_Linear_8,8,9999,9999,9999,2295693428
7110,20,Ticks_Linear_8,9,9999,9999,9999,2296503412
7110,20,Ticks_Linear_8,10,9999,9999,9999,2297303140
7110,20,Ticks_Linear_8,11,9999,9999,9999,2298103912
7110,20,Ticks_Linear_8,12,9999,9999,9999,2298903632
7110,20,Ticks_Linear_8,13,9999,9999,9999,2299703352
7110,20,Ticks_Linear_8,14,9999,9999,9999,2300503108
7110,20,Ticks_Linear_8,15,9999,9999,9999,2301293688
7110,20,Ticks_Linear_8,16,9999,9999,9999,2302083152
7110,20,Ticks_Linear_8,17,9999,9999,9999,2302873664
7110,20,Ticks_Linear_8,18,9999,9999,9999,2303663204
7110,20,Ticks_Linear_8,19,9999,9999,9999,2304453716
7110,20,Ticks_Linear_8,20,9999,9999,9999,2305233972
7110,20,Ticks_Linear_8,21,9999,9999,9999,2306013252
7110,20,Ticks_Linear_8,22,9999,9999,9999,2306793580
7110,20,Ticks_Linear_8,23,9999,9999,9999,2307573824
7110,20,Ticks_Linear_8,24,9999,9999,9999,2308353108
7110,20,Ticks_Linear_8,25,9999,9999,9999,2309123176
7110,20,Ticks_Linear_8,26,9999,9999,9999,2309893188
7110,20,Ticks_Linear_8,27,9999,9999,9999,2310663236
7110,20,Ticks_Linear_8,28,9999,9999,9999,2311433304
7110,20,Ticks_Linear_8,29,9999,9999,9999,2312203380
7110,20,Ticks_Linear_8,30,9999,9999,9999,2312963184
7110,20,Ticks_Linear_8,31,9999,9999,9999,2313723972
7110,20,Ticks_Linear_8,32,9999,9999,9999,2314483812
7110,20,Ticks_Linear_8,33,9999,9999,9999,2315243588
7110,20,Ticks_Linear_8,34,9999,9999,9999,2316003400
7110,20,Ticks_Linear_8,35,9999,9999,9999,2316753996
7110,20,Ticks_Linear_8,36,9999,9999,9999,2317503548
7110,20,Ticks_Linear_8,37,9999,9999,9999,2318253172
7110,20,Ticks_Linear_8,38,9999,9999,9999,2319003760
7110,20,Ticks_Linear_8,39,9999,9999,9999,2319753316
7110,20,Ticks_Linear_8,40,9999,9999,9999,2320493656
7110,20,Ticks_Linear_8,41,9999,9999,9999,2321233992
7110,20,Ticks_Linear_8,42,9999,9999,9999,2321973328
7110,20,Ticks_Linear_8,43,9999,9999,9999,2322713664
7110,20,Ticks_Linear_8,44,9999,9999,9999,2323454076
7110,20,Ticks_Linear_8,45,9999,9999,9999,2324183112
7110,20,Ticks_Linear_8,46,9999,9999,9999,2324913272
7110,20,Ticks_Linear_8,47,9999,9999,9999,2325643344
7110,20,Ticks_Linear_8,48,9999,9999,9999,2326373496
7110,20,Ticks_Linear_8,49,9999,9999,9999,2327103548
7110,20,Ticks_Linear_8,50,9999,9999,9999,2327823444
7110,20,Ticks_Linear_8,51,9999,9999,9999,2328543336
7110,20,Ticks_Linear_8,52,9999,9999,9999,2329263228
7110,20,Ticks_Linear_8,53,9999,9999,9999,2329984104
7110,20,Ticks_Linear_8,54,9999,9999,9999,2330713208
7110,20,Ticks_Linear_8,55,9999,9999,9999,2331423860
7110,20,Ticks_Linear_8,56,9999,9999,9999,2332133496
7110,20,Ticks_Linear_8,57,9999,9999,9999,2332843132
7110,20,Ticks_Linear_8,58,9999,9999,9999,2333553740
7110,20,Ticks_Linear_8,59,9999,9999,9999,2334263408
7110,20,Ticks_Linear_8,60,9999,9999,9999,2334963772
7110,20,Ticks_Linear_8,61,9999,9999,9999,2335663220
7110,20,Ticks_Linear_8,62,9999,9999,9999,2336363644
7110,20,Ticks_Linear_8,63,9999,9999,9999,2337064040
7110,20,Ticks_Linear_8,64,9999,9999,9999,2337763416
7110,20,Ticks_Linear_8,65,9999,9999,9999,2338453632
7110,20,Ticks_Linear_8,66,9999,9999,9999,2339143780
7110,20,Ticks_Linear_8,67,9999,9999,9999,2339833916
7110,20,Ticks_Linear_8,68,9999,9999,9999,2340523108
7110,20,Ticks_Linear_8,69,9999,9999,9999,2341213268
7110,20,Ticks_Linear_8,70,9999,9999,9999,2341893244
7110,20,Ticks_Linear_8,71,9999,9999,9999,2342573144
7110,20,Ticks_Linear_8,72,9999,9999,9999,2343254092
7110,20,Ticks_Linear_8,73,9999,9999,9999,2343943260
7110,20,Ticks_Linear_8,74,9999,9999,9999,2344623164
7110,20,Ticks_Linear_8,75,9999,9999,9999,2345293932
7110,20,Ticks_Linear_8,76,9999,9999,9999,2345963624
7110,20,Ticks_Linear_8,77,9999,9999,9999,2346633344
7110,20,Ticks_Linear_8,78,9999,9999,9999,2347303992
7110,20,Ticks_Linear_8,79,9999,9999,9999,2347973716
7110,20,Ticks_Linear_8,80,9999,9999,9999,2348633176
7110,20,Ticks_Linear_8,81,9999,9999,9999,2349293656
7110,20,Ticks_Linear_8,82,9999,9999,9999,2349953132
7110,20,Ticks_Linear_8,83,9999,9999,9999,2350613616
7110,20,Ticks_Linear_8,84,9999,9999,9999,2351274048
7110,20,Ticks_Linear_8,85,9999,9999,9999,2351923300
7110,20,Ticks_Linear_8,86,9999,9999,9999,2352573548
7110,20,Ticks_Linear_8,87,9999,9999,9999,2353223792
7110,20,Ticks_Linear_8,88,9999,9999,9999,2353874020
7110,20,Ticks_Linear_8,89,9999,9999,9999,2354523224
7110,20,Ticks_Linear_8,90,9999,9999,9999,2355163260
7110,20,Ticks_Linear_8,91,9999,9999,9999,2355803248
7110,20,Ticks_Linear_8,92,9999,9999,9999,2356443208
7110,20,Ticks_Linear_8,93,9999,9999,9999,2357083192
7110,20,Ticks_Linear_8,94,9999,9999,9999,2357723232
7110,20,Ticks_Linear_8,95,9999,9999,9999,2358354012
7110,20,Ticks_Linear_8,96,9999,9999,9999,2358983792
7110,20,Ticks_Linear_8,97,9999,9999,9999,2359613496
7110,20,Ticks_Linear_8,98,9999,9999,9999,2360243304
7110,20,Ticks_Linear_8,99,9999,9999,9999,2360874088
7110,20,Ticks_Linear_8,100,9999,9999,9999,2361493604
7110,20,Ticks_Linear_8,101,9999,9999,9999,2362113124
7110,20,Ticks_Linear_8,102,9999,9999,9999,2362733640
7110,20,Ticks_Linear_8,103,9999,9999,9999,2363353156
7110,20,Ticks_Linear_8,104,9999,9999,9999,2363973748
7110,20,Ticks_Linear_8,105,9999,9999,9999,2364584060
7110,20,Ticks_Linear_8,106,9999,9999,9999,2365193324
7110,20,Ticks_Linear_8,107,9999,9999,9999,2365803580
7110,20,Ticks_Linear_8,108,9999,9999,9999,2366413888
7110,20,Ticks_Linear_8,109,9999,9999,9999,2367023224
7110,20,Ticks_Linear_8,110,9999,9999,9999,2367623224
7110,20,Ticks_Linear_8,111,9999,9999,9999,2368223348
7110,20,Ticks_Linear_8,112,9999,9999,9999,2368823396
7110,20,Ticks_Linear_8,113,9999,9999,9999,2369423472
7110,20,Ticks_Linear_8,114,9999,9999,9999,2370023516
7110,20,Ticks_Linear_8,115,9999,9999,9999,2370613308
7110,20,Ticks_Linear_8,116,9999,9999,9999,2371203144
7110,20,Ticks_Linear_8,117,9999,9999,9999,2371793980
7110,20,Ticks_Linear_8,118,9999,9999,9999,2372383844
7110,20,Ticks_Linear_8,119,9999,9999,9999,2372973660
7110,20,Ticks_Linear_8,120,9999,9999,9999,2373553268
7110,20,Ticks_Linear_8,121,9999,9999,9999,2374133844
7110,20,Ticks_Linear_8,122,9999,9999,9999,2374713452
7110,20,Ticks_Linear_8,123,9999,9999,9999,2375294052
7110,20,Ticks_Linear_8,124,9999,9999,9999,2375873660
7110,20,Ticks_Linear_8,125,9999,9999,9999,2376443980
7110,20,Ticks_Linear_8,126,9999,9999,9999,2377013324
7110,20,Ticks_Linear_8,127,9999,9999,9999,2377583740
7110,20,Ticks_Linear_8,128,9999,9999,9999,2378154060
7110,20,Ticks_Linear_8,129,9999,9999,9999,2378723428
7110,20,Ticks_Linear_8,130,9999,9999,9999,2379283564
7110,20,Ticks_Linear_8,131,9999,9999,9999,2379843648
7110,20,Ticks_Linear_8,132,9999,9999,9999,2380403780
7110,20,Ticks_Linear_8,133,9999,9999,9999,2380963928
7110,20,Ticks_Linear_8,134,9999,9999,9999,2381524064
7110,20,Ticks_Linear_8,135,9999,9999,9999,2382073944
7110,20,Ticks_Linear_8,136,9999,9999,9999,2382623816
7110,20,Ticks_Linear_8,137,9999,9999,9999,2383173716
7110,20,Ticks_Linear_8,138,9999,9999,9999,2383723592
7110,20,Ticks_Linear_8,139,9999,9999,9999,2384273468
7110,20,Ticks_Linear_8,140,9999,9999,9999,2384813152
7110,20,Ticks_Linear_8,141,9999,9999,9999,2385353816
7110,20,Ticks_Linear_8,142,9999,9999,9999,2385893436
7110,20,Ticks_Linear_8,143,9999,9999,9999,2386433120
7110,20,Ticks_Linear_8,144,9999,9999,9999,2386973784
7110,20,Ticks_Linear_8,145,9999,9999,9999,2387503220
7110,20,Ticks_Linear_8,146,9999,9999,9999,2388033648
7110,20,Ticks_Linear_8,147,9999,9999,9999,2388564052
7110,20,Ticks_Linear_8,148,9999,9999,9999,2389093476
7110,20,Ticks_Linear_8,149,9999,9999,9999,2389623880
7110,20,Ticks_Linear_8,150,9999,9999,9999,2390144100
7110,20,Ticks_Linear_8,151,9999,9999,9999,2390673528
7110,20,Ticks_Linear_8,152,9999,9999,9999,2391193680
7110,20,Ticks_Linear_8,153,9999,9999,9999,2391713896
7110,20,Ticks_Linear_8,154,9999,9999,9999,2392234108
7110,20,Ticks_Linear_8,155,9999,9999,9999,2392743996
7110,20,Ticks_Linear_8,156,9999,9999,9999,2393253952
7110,20,Ticks_Linear_8,157,9999,9999,9999,2393763912
7110,20,Ticks_Linear_8,158,9999,9999,9999,2394273872
7110,20,Ticks_Linear_8,159,9999,9999,9999,2394783836
7110,20,Ticks_Linear_8,160,9999,9999,9999,2395283536
7110,20,Ticks_Linear_8,161,9999,9999,9999,2395783240
7110,20,Ticks_Linear_8,162,9999,9999,9999,2396283980
7110,20,Ticks_Linear_8,163,9999,9999,9999,2396783680
7110,20,Ticks_Linear_8,164,9999,9999,9999,2397283380
7110,20,Ticks_Linear_8,165,9999,9999,9999,2397773876
7110,20,Ticks_Linear_8,166,9999,9999,9999,2398263364
7110,20,Ticks_Linear_8,167,9999,9999,9999,2398753856
7110,20,Ticks_Linear_8,168,9999,9999,9999,2399243336
7110,20,Ticks_Linear_8,169,9999,9999,9999,2399733884
7111,25,Jits_Pract_5,0,5,56,103,2448035360
7111,25,Jits_Pract_5,1,5,63,98,2448038308
7111,25,Jits_Pract_5,2,5,80,127,2448041428
7111,25,Jits_Pract_5,0,5,56,103,2448535012
7111,25,Jits_Pract_5,1,5,63,98,2448538260
7111,25,Jits_Pract_5,2,5,80,127,2448541304
7111,25,Jits_Pract_5,0,5,56,103,2449034756
7111,25,Jits_Pract_5,1,5,80,127,2449044804
7111,25,Jits_Pract_5,2,5,63,98,2449065188
7111,25,Jits_Pract_5,0,5,63,98,2449485056
7111,25,Jits_Pract_5,1,5,80,127,2449514804
7111,25,Jits_Pract_5,2,5,56,103,2449525372
7111,25,Jits_Pract_5,0,5,80,127,2450045240
7111,25,Jits_Pract_5,1,5,56,103,2450054468
7111,25,Jits_Pract_5,2,5,63,98,2450085188
7111,25,Jits_Pract_5,0,5,63,98,2450534880
7111,25,Jits_Pract_5,1,5,56,103,2450564556
7111,25,Jits_Pract_5,2,5,80,127,2450574824
7111,25,Jits_Pract_5,0,5,56,103,2450985288
7111,25,Jits_Pract_5,1,5,63,98,2451034616
7111,25,Jits_Pract_5,2,5,80,127,2451055000
7111,25,Jits_Pract_5,0,5,80,127,2451485252
7111,25,Jits_Pract_5,1,5,63,98,2451535256
7111,25,Jits_Pract_5,2,5,56,103,2451575120
7111,25,Jits_Pract_5,0,5,56,103,2451984700
7111,25,Jits_Pract_5,1,5,63,98,2452014376
7111,25,Jits_Pract_5,2,5,80,127,2452085124
7111,25,Jits_Pract_5,0,5,56,103,2452484512
7111,25,Jits_Pract_5,1,5,80,127,2452544852
7111,25,Jits_Pract_5,2,5,63,98,2452574456
7111,25,Jits_Pract_5,0,5,56,103,2452994296
7111,25,Jits_Pract_5,1,5,63,98,2453004792
7111,25,Jits_Pract_5,2,5,80,127,2453044656
7111,25,Jits_Pract_5,0,5,63,98,2453485196
7111,25,Jits_Pract_5,1,5,80,127,2453564944
7111,25,Jits_Pract_5,2,5,56,103,2453575140
7111,25,Jits_Pract_5,0,5,63,98,2454034680
7111,25,Jits_Pract_5,1,5,56,103,2454074692
7111,25,Jits_Pract_5,2,5,80,127,2454077784
7111,25,Jits_Pract_5,0,5,56,103,2454494472
7111,25,Jits_Pract_5,1,5,63,98,2454504816
7111,25,Jits_Pract_5,2,5,80,127,2454544604
7111,25,Jits_Pract_5,0,5,56,103,2454985216
7111,25,Jits_Pract_5,1,5,63,98,2454988284
7111,25,Jits_Pract_5,2,5,80,127,2455004480
7111,25,Jits_Pract_5,0,9999,9999,9999,2448282720
7111,25,Jits_Pract_5,1,9999,9999,9999,2448782448
7111,25,Jits_Pract_5,2,9999,9999,9999,2449282120
7111,25,Jits_Pract_5,3,9999,9999,9999,2449782836
7111,25,Jits_Pract_5,4,9999,9999,9999,2450282572
7111,25,Jits_Pract_5,5,9999,9999,9999,2450782320
7111,25,Jits_Pract_5,6,9999,9999,9999,2451283020
7111,25,Jits_Pract_5,7,9999,9999,9999,2451782764
7111,25,Jits_Pract_5,8,9999,9999,9999,2452282480
7111,25,Jits_Pract_5,9,9999,9999,9999,2452782148
7111,25,Jits_Pract_5,10,9999,9999,9999,2453282936
7111,25,Jits_Pract_5,11,9999,9999,9999,2453782608
7111,25,Jits_Pract_5,12,9999,9999,9999,2454282336
7111,25,Jits_Pract_5,13,9999,9999,9999,2454783036
7111,25,Jits_Pract_5,14,9999,9999,9999,2455282764
7112,25,Jits_Pract_5,0,5,56,103,2493620640
7112,25,Jits_Pract_5,1,5,63,98,2493623664
7112,25,Jits_Pract_5,2,5,80,127,2493626860
7112,25,Jits_Pract_5,0,5,56,103,2494121416
7112,25,Jits_Pract_5,1,5,63,98,2494124436
7112,25,Jits_Pract_5,2,5,80,127,2494127484
7112,25,Jits_Pract_5,0,5,56,103,2494621156
7112,25,Jits_Pract_5,1,5,80,127,2494631352
7112,25,Jits_Pract_5,2,5,63,98,2494650616
7112,25,Jits_Pract_5,0,5,63,98,2495070560
7112,25,Jits_Pract_5,1,5,80,127,2495101580
7112,25,Jits_Pract_5,2,5,56,103,2495110504
7112,25,Jits_Pract_5,0,1,48,45,2495534632
7112,25,Jits_Pract_5,1,5,80,127,2495630592
7112,25,Jits_Pract_5,2,5,56,103,2495641068
7112,25,Jits_Pract_5,3,5,63,98,2495670524
7112,25,Jits_Pract_5,0,5,63,98,2496121228
7112,25,Jits_Pract_5,1,5,56,103,2496150756
7112,25,Jits_Pract_5,2,5,80,127,2496161400
7112,25,Jits_Pract_5,3,1,48,46,2496198224
7112,25,Jits_Pract_5,0,5,56,103,2496570876
7112,25,Jits_Pract_5,1,5,63,98,2496620856
7112,25,Jits_Pract_5,2,5,80,127,2496641536
7112,25,Jits_Pract_5,3,1,48,47,2496721972
7112,25,Jits_Pract_5,0,5,80,127,2497070480
7112,25,Jits_Pract_5,1,5,63,98,2497120708
7112,25,Jits_Pract_5,2,5,56,103,2497160572
7112,25,Jits_Pract_5,3,1,48,39,2497245040
7112,25,Jits_Pract_5,0,5,56,103,2497571308
7112,25,Jits_Pract_5,1,5,63,98,2497601008
7112,25,Jits_Pract_5,2,5,80,127,2497670540
7112,25,Jits_Pract_5,3,1,48,43,2497738672
7112,25,Jits_Pract_5,0,5,56,103,2498070792
7112,25,Jits_Pract_5,1,5,80,127,2498131208
7112,25,Jits_Pract_5,2,5,63,98,2498160956
7112,25,Jits_Pract_5,3,1,48,40,2498193288
7112,25,Jits_Pract_5,0,5,56,103,2498580836
7112,25,Jits_Pract_5,1,5,63,98,2498591032
7112,25,Jits_Pract_5,2,5,80,127,2498630996
7112,25,Jits_Pract_5,3,1,48,32,2498724456
7112,25,Jits_Pract_5,0,5,63,98,2499071240
7112,25,Jits_Pract_5,1,5,80,127,2499151436
7112,25,Jits_Pract_5,2,5,56,103,2499160288
7112,25,Jits_Pract_5,3,1,48,46,2499275392
7112,25,Jits_Pract_5,0,5,63,98,2499621264
7112,25,Jits_Pract_5,1,5,56,103,2499661604
7112,25,Jits_Pract_5,2,5,80,127,2499664516
7112,25,Jits_Pract_5,3,1,48,30,2499739340
7112,25,Jits_Pract_5,0,5,56,103,2500081092
7112,25,Jits_Pract_5,1,5,63,98,2500091436
7112,25,Jits_Pract_5,2,5,80,127,2500131300
7112,25,Jits_Pract_5,3,1,48,40,2500243968
7112,25,Jits_Pract_5,0,5,56,103,2500570460
7112,25,Jits_Pract_5,1,5,63,98,2500573600
7112,25,Jits_Pract_5,2,5,80,127,2500590844
7112,25,Jits_Pract_5,3,1,48,40,2500801268
7112,25,Jits_Pract_5,0,9999,9999,9999,2493868152
7112,25,Jits_Pract_5,1,9999,9999,9999,2494368852
7112,25,Jits_Pract_5,2,9999,9999,9999,2494868600
7112,25,Jits_Pract_5,3,9999,9999,9999,2495368268
7112,25,Jits_Pract_5,4,9999,9999,9999,2495869028
7112,25,Jits_Pract_5,5,9999,9999,9999,2496368724
7112,25,Jits_Pract_5,6,9999,9999,9999,2496868416
7112,25,Jits_Pract_5,7,9999,9999,9999,2497368124
7112,25,Jits_Pract_5,8,9999,9999,9999,2497868872
7112,25,Jits_Pract_5,9,9999,9999,9999,2498368580
7112,25,Jits_Pract_5,10,9999,9999,9999,2498868336
7112,25,Jits_Pract_5,11,9999,9999,9999,2499369024
7112,25,Jits_Pract_5,12,9999,9999,9999,2499868756
7112,25,Jits_Pract_5,13,9999,9999,9999,2500368440
7112,25,Jits_Pract_5,14,9999,9999,9999,2500868152
7113,24,Jits_Pract_8,0,5,56,103,2507124300
7113,24,Jits_Pract_8,1,5,63,98,2507127404
7113,24,Jits_Pract_8,2,5,80,127,2507130520
7113,24,Jits_Pract_8,0,5,56,103,2507924092
7113,24,Jits_Pract_8,1,5,63,98,2507927196
7113,24,Jits_Pract_8,2,5,80,127,2507930164
7113,24,Jits_Pract_8,0,5,80,127,2508664116
7113,24,Jits_Pract_8,1,5,63,98,2508754252
7113,24,Jits_Pract_8,2,5,56,103,2508763472
7113,24,Jits_Pract_8,0,5,56,103,2509484380
7113,24,Jits_Pract_8,1,5,63,98,2509493608
7113,24,Jits_Pract_8,2,5,80,127,2509583736
7113,24,Jits_Pract_8,0,5,63,98,2510253548
7113,24,Jits_Pract_8,1,5,80,127,2510284196
7113,24,Jits_Pract_8,2,1,48,33,2510293240
7113,24,Jits_Pract_8,3,5,56,103,2510313792
7113,24,Jits_Pract_8,0,1,48,29,2510998492
7113,24,Jits_Pract_8,1,5,56,103,2511054192
7113,24,Jits_Pract_8,2,5,80,127,2511153380
7113,24,Jits_Pract_8,3,5,63,98,2511203828
7113,24,Jits_Pract_8,0,5,56,103,2511853884
7113,24,Jits_Pract_8,1,5,80,127,2511904160
7113,24,Jits_Pract_8,2,5,63,98,2511944196
7113,24,Jits_Pract_8,3,1,48,36,2512009188
7113,24,Jits_Pract_8,0,5,80,127,2512684372
7113,24,Jits_Pract_8,1,5,63,98,2512714072
7113,24,Jits_Pract_8,2,5,56,103,2512783600
7113,24,Jits_Pract_8,3,1,48,35,2512811060
7113,24,Jits_Pract_8,0,5,63,98,2513514136
7113,24,Jits_Pract_8,1,5,56,103,2513543440
7113,24,Jits_Pract_8,2,1,48,29,2513601856
7113,24,Jits_Pract_8,3,5,80,127,2513604044
7113,24,Jits_Pract_8,0,5,56,103,2514254332
7113,24,Jits_Pract_8,1,5,80,127,2514257400
7113,24,Jits_Pract_8,2,5,63,98,2514374132
7113,24,Jits_Pract_8,3,1,48,31,2514382500
7113,24,Jits_Pract_8,0,5,56,103,2515133964
7113,24,Jits_Pract_8,1,5,80,127,2515173604
7113,24,Jits_Pract_8,2,5,63,98,2515184172
7113,24,Jits_Pract_8,3,1,48,32,2515235536
7113,24,Jits_Pract_8,0,5,56,103,2515893512
7113,24,Jits_Pract_8,1,5,80,127,2515914120
7113,24,Jits_Pract_8,2,5,63,98,2515993912
7113,24,Jits_Pract_8,3,1,48,29,2516007592
7113,24,Jits_Pract_8,0,5,80,127,2516684144
7113,24,Jits_Pract_8,1,5,56,103,2516783568
7113,24,Jits_Pract_8,2,5,63,98,2516793940
7113,24,Jits_Pract_8,3,1,48,27,2516889124
7113,24,Jits_Pract_8,0,5,63,98,2517454176
7113,24,Jits_Pract_8,1,5,80,127,2517513596
7113,24,Jits_Pract_8,2,5,56,103,2517523940
7113,24,Jits_Pract_8,3,1,48,38,2517673688
7113,24,Jits_Pract_8,0,5,56,103,2518254152
7113,24,Jits_Pract_8,1,5,63,98,2518323452
7113,24,Jits_Pract_8,2,5,80,127,2518327120
7113,24,Jits_Pract_8,3,1,48,40,2518481780
7113,24,Jits_Pract_8,0,9999,9999,9999,2507521112
7113,24,Jits_Pract_8,1,9999,9999,9999,2508321876
7113,24,Jits_Pract_8,2,9999,9999,9999,2509121636
7113,24,Jits_Pract_8,3,9999,9999,9999,2509921376
7113,24,Jits_Pract_8,4,9999,9999,9999,2510721084
7113,24,Jits_Pract_8,5,9999,9999,9999,2511521888
7113,24,Jits_Pract_8,6,9999,9999,9999,2512321644
7113,24,Jits_Pract_8,7,9999,9999,9999,2513121344
7113,24,Jits_Pract_8,8,9999,9999,9999,2513921120
7113,24,Jits_Pract_8,9,9999,9999,9999,2514721912
7113,24,Jits_Pract_8,10,9999,9999,9999,2515521640
7113,24,Jits_Pract_8,11,9999,9999,9999,2516321340
7113,24,Jits_Pract_8,12,9999,9999,9999,2517121120
7113,24,Jits_Pract_8,13,9999,9999,9999,2517921860
7113,24,Jits_Pract_8,14,9999,9999,9999,2518721652
7114,17,Jits_Phase_5,0,5,56,103,2546385420
7114,17,Jits_Phase_5,1,5,63,98,2546388592
7114,17,Jits_Phase_5,2,5,80,127,2546391640
7114,17,Jits_Phase_5,0,5,56,103,2546884980
7114,17,Jits_Phase_5,1,5,63,98,2546888076
7114,17,Jits_Phase_5,2,5,80,127,2546891128
7114,17,Jits_Phase_5,0,5,56,103,2547384560
7114,17,Jits_Phase_5,1,5,80,127,2547394904
7114,17,Jits_Phase_5,2,5,63,98,2547415584
7114,17,Jits_Phase_5,0,5,63,98,2547835364
7114,17,Jits_Phase_5,1,5,80,127,2547864964
7114,17,Jits_Phase_5,2,5,56,103,2547875308
7114,17,Jits_Phase_5,3,1,48,40,2547913268
7114,17,Jits_Phase_5,0,1,48,37,2548367444
7114,17,Jits_Phase_5,1,5,80,127,2548395340
7114,17,Jits_Phase_5,2,5,56,103,2548404564
7114,17,Jits_Phase_5,3,5,63,98,2548435432
7114,17,Jits_Phase_5,0,5,63,98,2548884836
7114,17,Jits_Phase_5,1,5,56,103,2548914584
7114,17,Jits_Phase_5,2,5,80,127,2548924856
7114,17,Jits_Phase_5,3,1,48,39,2548927972
7114,17,Jits_Phase_5,0,5,56,103,2549335516
7114,17,Jits_Phase_5,1,5,63,98,2549384520
7114,17,Jits_Phase_5,2,1,48,45,2549401640
7114,17,Jits_Phase_5,3,5,80,127,2549405192
7114,17,Jits_Phase_5,0,5,80,127,2549835204
7114,17,Jits_Phase_5,1,1,48,46,2549879672
7114,17,Jits_Phase_5,2,5,63,98,2549885400
7114,17,Jits_Phase_5,3,5,56,103,2549925484
7114,17,Jits_Phase_5,0,5,56,103,2550334968
7114,17,Jits_Phase_5,1,5,63,98,2550364572
7114,17,Jits_Phase_5,2,1,48,43,2550405896
7114,17,Jits_Phase_5,3,5,80,127,2550435512
7114,17,Jits_Phase_5,0,5,56,103,2550834636
7114,17,Jits_Phase_5,1,1,48,43,2550872844
7114,17,Jits_Phase_5,2,5,80,127,2550894968
7114,17,Jits_Phase_5,3,5,63,98,2550924644
7114,17,Jits_Phase_5,0,5,56,103,2551344516
7114,17,Jits_Phase_5,1,1,48,41,2551352844
7114,17,Jits_Phase_5,2,5,63,98,2551354656
7114,17,Jits_Phase_5,3,5,80,127,2551394740
7114,17,Jits_Phase_5,0,5,63,98,2551835060
7114,17,Jits_Phase_5,1,1,48,43,2551839672
7114,17,Jits_Phase_5,2,5,80,127,2551914800
7114,17,Jits_Phase_5,3,5,56,103,2551924996
7114,17,Jits_Phase_5,0,5,63,98,2552384960
7114,17,Jits_Phase_5,1,5,56,103,2552424744
7114,17,Jits_Phase_5,2,5,80,127,2552427812
7114,17,Jits_Phase_5,3,1,48,32,2552433116
7114,17,Jits_Phase_5,0,5,56,103,2552844672
7114,17,Jits_Phase_5,1,5,63,98,2552855016
7114,17,Jits_Phase_5,2,5,80,127,2552894904
7114,17,Jits_Phase_5,3,1,48,37,2552918472
7114,17,Jits_Phase_5,0,5,56,103,2553335292
7114,17,Jits_Phase_5,1,5,63,98,2553338208
7114,17,Jits_Phase_5,2,5,80,127,2553354480
7114,17,Jits_Phase_5,3,1,48,34,2553366064
7114,17,Jits_Phase_5,0,5,80,127,2553845232
7114,17,Jits_Phase_5,1,5,56,103,2553855504
7114,17,Jits_Phase_5,2,1,48,40,2553872940
7114,17,Jits_Phase_5,3,5,63,98,2553924900
7114,17,Jits_Phase_5,0,5,63,98,2554334512
7114,17,Jits_Phase_5,1,5,56,103,2554355044
7114,17,Jits_Phase_5,2,1,48,37,2554375920
7114,17,Jits_Phase_5,3,5,80,127,2554434780
7114,17,Jits_Phase_5,0,5,56,103,2554844528
7114,17,Jits_Phase_5,1,5,80,127,2554884392
7114,17,Jits_Phase_5,2,1,48,41,2554888856
7114,17,Jits_Phase_5,3,5,63,98,2554894804
7114,17,Jits_Phase_5,0,5,80,127,2555335000
7114,17,Jits_Phase_5,1,5,63,98,2555364824
7114,17,Jits_Phase_5,2,1,48,40,2555381876
7114,17,Jits_Phase_5,3,5,56,103,2555404680
7114,17,Jits_Phase_5,0,1,48,37,2555852032
7114,17,Jits_Phase_5,1,5,56,103,2555855364
7114,17,Jits_Phase_5,2,5,63,98,2555885040
7114,17,Jits_Phase_5,3,5,80,127,2555935312
7114,17,Jits_Phase_5,0,1,48,37,2556336736
7114,17,Jits_Phase_5,1,5,80,127,2556354820
7114,17,Jits_Phase_5,2,5,56,103,2556394756
7114,17,Jits_Phase_5,3,5,63,98,2556405252
7114,17,Jits_Phase_5,0,5,80,127,2556835244
7114,17,Jits_Phase_5,1,1,48,45,2556842624
7114,17,Jits_Phase_5,2,5,63,98,2556875324
7114,17,Jits_Phase_5,3,5,56,103,2556934368
7114,17,Jits_Phase_5,0,5,56,103,2557335008
7114,17,Jits_Phase_5,1,5,80,127,2557345356
7114,17,Jits_Phase_5,2,1,48,40,2557358512
7114,17,Jits_Phase_5,3,5,63,98,2557425212
7114,17,Jits_Phase_5,0,5,80,127,2557834476
7114,17,Jits_Phase_5,1,1,48,45,2557879692
7114,17,Jits_Phase_5,2,5,63,98,2557895084
7114,17,Jits_Phase_5,3,5,56,103,2557924756
7114,17,Jits_Phase_5,0,5,56,103,2558335292
7114,17,Jits_Phase_5,1,1,48,41,2558384860
7114,17,Jits_Phase_5,2,5,80,127,2558394628
7114,17,Jits_Phase_5,3,5,63,98,2558434636
7114,17,Jits_Phase_5,0,5,56,103,2558885404
7114,17,Jits_Phase_5,1,1,48,44,2558891144
7114,17,Jits_Phase_5,2,5,63,98,2558894396
7114,17,Jits_Phase_5,3,5,80,127,2558897684
7114,17,Jits_Phase_5,0,5,80,127,2559334668
7114,17,Jits_Phase_5,1,1,48,43,2559400556
7114,17,Jits_Phase_5,2,5,63,98,2559424940
7114,17,Jits_Phase_5,3,5,56,103,2559435360
7114,17,Jits_Phase_5,0,5,56,103,2559834420
7114,17,Jits_Phase_5,1,5,63,98,2559837588
7114,17,Jits_Phase_5,2,5,80,127,2559840636
7114,17,Jits_Phase_5,3,1,48,40,2559916284
7114,17,Jits_Phase_5,0,5,80,127,2560354628
7114,17,Jits_Phase_5,1,1,48,38,2560371000
7114,17,Jits_Phase_5,2,5,63,98,2560404824
7114,17,Jits_Phase_5,3,5,56,103,2560434500
7114,17,Jits_Phase_5,0,5,56,103,2560834916
7114,17,Jits_Phase_5,1,5,80,127,2560845336
7114,17,Jits_Phase_5,2,1,48,39,2560886288
7114,17,Jits_Phase_5,3,5,63,98,2560915004
7114,17,Jits_Phase_5,0,5,56,103,2561345012
7114,17,Jits_Phase_5,1,5,63,98,2561365248
7114,17,Jits_Phase_5,2,1,48,36,2561374140
7114,17,Jits_Phase_5,3,5,80,127,2561424804
7114,17,Jits_Phase_5,0,5,80,127,2561825344
7114,17,Jits_Phase_5,1,1,48,34,2561862812
7114,17,Jits_Phase_5,2,5,63,98,2561894968
7114,17,Jits_Phase_5,3,5,56,103,2561915128
7114,17,Jits_Phase_5,0,5,80,127,2562345188
7114,17,Jits_Phase_5,1,5,56,103,2562354632
7114,17,Jits_Phase_5,2,5,63,98,2562365076
7114,17,Jits_Phase_5,3,1,48,37,2562392476
7114,17,Jits_Phase_5,0,5,80,127,2562834756
7114,17,Jits_Phase_5,1,1,48,40,2562841016
7114,17,Jits_Phase_5,2,5,56,103,2562855356
7114,17,Jits_Phase_5,3,5,63,98,2562925060
7114,17,Jits_Phase_5,0,5,56,103,2563344704
7114,17,Jits_Phase_5,1,1,48,40,2563355240
7114,17,Jits_Phase_5,2,5,80,127,2563374444
7114,17,Jits_Phase_5,3,5,63,98,2563394856
7114,17,Jits_Phase_5,0,1,48,40,2563830336
7114,17,Jits_Phase_5,1,5,63,98,2563835168
7114,17,Jits_Phase_5,2,5,56,103,2563894832
7114,17,Jits_Phase_5,3,5,80,127,2563926360
7114,17,Jits_Phase_5,0,5,63,98,2564324660
7114,17,Jits_Phase_5,1,5,80,127,2564328244
7114,17,Jits_Phase_5,2,1,48,31,2564354228
7114,17,Jits_Phase_5,3,5,56,103,2564414952
7114,17,Jits_Phase_5,0,1,48,46,2564809520
7114,17,Jits_Phase_5,1,5,56,103,2564844844
7114,17,Jits_Phase_5,2,5,63,98,2564874516
7114,17,Jits_Phase_5,3,5,80,127,2564914588
7114,17,Jits_Phase_5,0,1,48,40,2565271352
7114,17,Jits_Phase_5,1,5,63,98,2565344740
7114,17,Jits_Phase_5,2,5,56,103,2565384516
7114,17,Jits_Phase_5,3,5,80,127,2565405044
7114,17,Jits_Phase_5,0,1,48,30,2565849996
7114,17,Jits_Phase_5,1,5,63,98,2565854680
7114,17,Jits_Phase_5,2,5,56,103,2565894392
7114,17,Jits_Phase_5,3,5,80,127,2565904736
7114,17,Jits_Phase_5,0,5,80,127,2566334732
7114,17,Jits_Phase_5,1,1,48,39,2566348936
7114,17,Jits_Phase_5,2,5,63,98,2566404332
7114,17,Jits_Phase_5,3,5,56,103,2566425084
7114,17,Jits_Phase_5,0,5,56,103,2566825280
7114,17,Jits_Phase_5,1,5,80,127,2566844916
7114,17,Jits_Phase_5,2,1,48,46,2566874860
7114,17,Jits_Phase_5,3,5,63,98,2566884624
7114,17,Jits_Phase_5,0,5,63,98,2567335228
7114,17,Jits_Phase_5,1,5,80,127,2567354788
7114,17,Jits_Phase_5,2,1,48,40,2567375440
7114,17,Jits_Phase_5,3,5,56,103,2567394720
7114,17,Jits_Phase_5,0,5,63,98,2567835200
7114,17,Jits_Phase_5,1,5,56,103,2567854316
7114,17,Jits_Phase_5,2,5,80,127,2567864584
7114,17,Jits_Phase_5,3,1,48,38,2567896172
7114,17,Jits_Phase_5,0,5,80,127,2568334572
7114,17,Jits_Phase_5,1,5,56,103,2568355180
7114,17,Jits_Phase_5,2,1,48,36,2568373288
7114,17,Jits_Phase_5,3,5,63,98,2568385144
7114,17,Jits_Phase_5,0,1,48,32,2568894236
7114,17,Jits_Phase_5,1,5,56,103,2568905120
7114,17,Jits_Phase_5,2,5,80,127,2568908336
7114,17,Jits_Phase_5,3,5,63,98,2568924608
7114,17,Jits_Phase_5,0,5,63,98,2569325236
7114,17,Jits_Phase_5,1,5,56,103,2569354688
7114,17,Jits_Phase_5,2,5,80,127,2569415000
7114,17,Jits_Phase_5,3,1,48,33,2569428008
7114,17,Jits_Phase_5,0,1,48,29,2569878816
7114,17,Jits_Phase_5,1,5,63,98,2569904468
7114,17,Jits_Phase_5,2,5,56,103,2569914664
7114,17,Jits_Phase_5,3,5,80,127,2569925008
7114,17,Jits_Phase_5,0,1,48,48,2570355128
7114,17,Jits_Phase_5,1,5,56,103,2570365264
7114,17,Jits_Phase_5,2,5,80,127,2570395160
7114,17,Jits_Phase_5,3,5,63,98,2570405356
7114,17,Jits_Phase_5,0,1,48,40,2570836888
7114,17,Jits_Phase_5,1,5,63,98,2570905020
7114,17,Jits_Phase_5,2,5,56,103,2570915068
7114,17,Jits_Phase_5,3,5,80,127,2570934764
7114,17,Jits_Phase_5,0,5,56,103,2571335180
7114,17,Jits_Phase_5,1,1,48,32,2571340840
7114,17,Jits_Phase_5,2,5,63,98,2571394512
7114,17,Jits_Phase_5,3,5,80,127,2571397728
7114,17,Jits_Phase_5,0,5,80,127,2571855236
7114,17,Jits_Phase_5,1,1,48,35,2571857984
7114,17,Jits_Phase_5,2,5,56,103,2571864380
7114,17,Jits_Phase_5,3,5,63,98,2571935028
7114,17,Jits_Phase_5,0,5,80,127,2572344664
7114,17,Jits_Phase_5,1,1,48,38,2572368008
7114,17,Jits_Phase_5,2,5,56,103,2572415380
7114,17,Jits_Phase_5,3,5,63,98,2572424604
7114,17,Jits_Phase_5,0,1,48,40,2572878104
7114,17,Jits_Phase_5,1,5,63,98,2572885400
7114,17,Jits_Phase_5,2,5,56,103,2572894548
7114,17,Jits_Phase_5,3,5,80,127,2572915228
7114,17,Jits_Phase_5,0,5,80,127,2573335084
7114,17,Jits_Phase_5,1,1,48,41,2573346076
7114,17,Jits_Phase_5,2,5,63,98,2573395268
7114,17,Jits_Phase_5,3,5,56,103,2573435204
7114,17,Jits_Phase_5,0,1,48,40,2573872360
7114,17,Jits_Phase_5,1,5,56,103,2573874476
7114,17,Jits_Phase_5,2,5,63,98,2573884996
7114,17,Jits_Phase_5,3,5,80,127,2573924708
7114,17,Jits_Phase_5,0,5,56,103,2574335276
7114,17,Jits_Phase_5,1,1,48,40,2574365172
7114,17,Jits_Phase_5,2,5,80,127,2574366436
7114,17,Jits_Phase_5,3,5,63,98,2574415240
7114,17,Jits_Phase_5,0,1,48,40,2574873912
7114,17,Jits_Phase_5,1,5,56,103,2574875484
7114,17,Jits_Phase_5,2,5,63,98,2574915072
7114,17,Jits_Phase_5,3,5,80,127,2574918364
7114,17,Jits_Phase_5,0,5,56,103,2575374788
7114,17,Jits_Phase_5,1,5,63,98,2575385060
7114,17,Jits_Phase_5,2,1,48,40,2575386320
7114,17,Jits_Phase_5,3,5,80,127,2575405360
7114,17,Jits_Phase_5,0,5,56,103,2575834472
7114,17,Jits_Phase_5,1,5,80,127,2575837684
7114,17,Jits_Phase_5,2,1,48,34,2575842468
7114,17,Jits_Phase_5,3,5,63,98,2575874400
7114,17,Jits_Phase_5,0,1,48,40,2576311172
7114,17,Jits_Phase_5,1,5,63,98,2576375120
7114,17,Jits_Phase_5,2,5,56,103,2576405076
7114,17,Jits_Phase_5,3,5,80,127,2576425384
7114,17,Jits_Phase_5,0,1,48,41,2576844536
7114,17,Jits_Phase_5,1,5,80,127,2576846176
7114,17,Jits_Phase_5,2,5,56,103,2576855400
7114,17,Jits_Phase_5,3,5,63,98,2576864696
7114,17,Jits_Phase_5,0,1,48,41,2577301084
7114,17,Jits_Phase_5,1,5,56,103,2577345396
7114,17,Jits_Phase_5,2,5,80,127,2577385108
7114,17,Jits_Phase_5,3,5,63,98,2577414620
7114,17,Jits_Phase_5,0,1,48,32,2577832520
7114,17,Jits_Phase_5,1,5,63,98,2577854960
7114,17,Jits_Phase_5,2,5,80,127,2577865156
7114,17,Jits_Phase_5,3,5,56,103,2577875276
7114,17,Jits_Phase_5,0,5,56,103,2578345424
7114,17,Jits_Phase_5,1,1,48,42,2578355816
7114,17,Jits_Phase_5,2,5,63,98,2578415096
7114,17,Jits_Phase_5,3,5,80,127,2578425292
7114,17,Jits_Phase_5,0,1,48,35,2578825828
7114,17,Jits_Phase_5,1,5,80,127,2578855372
7114,17,Jits_Phase_5,2,5,56,103,2578864520
7114,17,Jits_Phase_5,3,5,63,98,2578914868
7114,17,Jits_Phase_5,0,1,48,41,2579306920
7114,17,Jits_Phase_5,1,5,80,127,2579365160
7114,17,Jits_Phase_5,2,5,56,103,2579424488
7114,17,Jits_Phase_5,3,5,63,98,2579455432
7114,17,Jits_Phase_5,0,1,48,35,2579822540
7114,17,Jits_Phase_5,1,5,56,103,2579864984
7114,17,Jits_Phase_5,2,5,80,127,2579868200
7114,17,Jits_Phase_5,3,5,63,98,2579905072
7114,17,Jits_Phase_5,0,1,48,38,2580341460
7114,17,Jits_Phase_5,1,5,56,103,2580395440
7114,17,Jits_Phase_5,2,5,63,98,2580424968
7114,17,Jits_Phase_5,3,5,80,127,2580435296
7114,17,Jits_Phase_5,0,1,48,31,2580853220
7114,17,Jits_Phase_5,1,5,63,98,2580905384
7114,17,Jits_Phase_5,2,5,80,127,2580914608
7114,17,Jits_Phase_5,3,5,56,103,2580924880
7114,17,Jits_Phase_5,0,1,48,37,2581350932
7114,17,Jits_Phase_5,1,5,80,127,2581355088
7114,17,Jits_Phase_5,2,5,56,103,2581405064
7114,17,Jits_Phase_5,3,5,63,98,2581407980
7114,17,Jits_Phase_5,0,1,48,35,2581829172
7114,17,Jits_Phase_5,1,5,56,103,2581885244
7114,17,Jits_Phase_5,2,5,80,127,2581905252
7114,17,Jits_Phase_5,3,5,63,98,2581915148
7114,17,Jits_Phase_5,0,1,48,39,2582348776
7114,17,Jits_Phase_5,1,5,63,98,2582364468
7114,17,Jits_Phase_5,2,5,56,103,2582395188
7114,17,Jits_Phase_5,3,5,80,127,2582414972
7114,17,Jits_Phase_5,0,5,56,103,2582874488
7114,17,Jits_Phase_5,1,1,48,38,2582875452
7114,17,Jits_Phase_5,2,5,80,127,2582884824
7114,17,Jits_Phase_5,3,5,63,98,2582955324
7114,17,Jits_Phase_5,0,1,48,34,2583353548
7114,17,Jits_Phase_5,1,5,63,98,2583365028
7114,17,Jits_Phase_5,2,5,80,127,2583405040
7114,17,Jits_Phase_5,3,5,56,103,2583444904
7114,17,Jits_Phase_5,0,5,56,103,2583874824
7114,17,Jits_Phase_5,1,1,48,44,2583878840
7114,17,Jits_Phase_5,2,5,63,98,2583885312
7114,17,Jits_Phase_5,3,5,80,127,2583904872
7114,17,Jits_Phase_5,0,1,48,37,2584366884
7114,17,Jits_Phase_5,1,5,63,98,2584414588
7114,17,Jits_Phase_5,2,5,80,127,2584434972
7114,17,Jits_Phase_5,3,5,56,103,2584454456
7114,17,Jits_Phase_5,0,5,56,103,2584854984
7114,17,Jits_Phase_5,1,1,48,46,2584922936
7114,17,Jits_Phase_5,2,5,80,127,2584934872
7114,17,Jits_Phase_5,3,5,63,98,2584945216
7114,17,Jits_Phase_5,0,1,48,36,2585337708
7114,17,Jits_Phase_5,1,5,80,127,2585394456
7114,17,Jits_Phase_5,2,5,63,98,2585405048
7114,17,Jits_Phase_5,3,5,56,103,2585434484
7114,17,Jits_Phase_5,0,5,63,98,2585855252
7114,17,Jits_Phase_5,1,1,48,36,2585863020
7114,17,Jits_Phase_5,2,5,80,127,2585895184
7114,17,Jits_Phase_5,3,5,56,103,2585955128
7114,17,Jits_Phase_5,0,5,63,98,2586365264
7114,17,Jits_Phase_5,1,1,48,36,2586374460
7114,17,Jits_Phase_5,2,5,56,103,2586414416
7114,17,Jits_Phase_5,3,5,80,127,2586445084
7114,17,Jits_Phase_5,0,5,80,127,2586864944
7114,17,Jits_Phase_5,1,5,63,98,2586875216
7114,17,Jits_Phase_5,2,1,48,37,2586877672
7114,17,Jits_Phase_5,3,5,56,103,2586944836
7114,17,Jits_Phase_5,0,1,48,27,2587353148
7114,17,Jits_Phase_5,1,5,80,127,2587425240
7114,17,Jits_Phase_5,2,5,56,103,2587435736
7114,17,Jits_Phase_5,3,5,63,98,2587438796
7114,17,Jits_Phase_5,0,5,56,103,2587864536
7114,17,Jits_Phase_5,1,5,80,127,2587884920
7114,17,Jits_Phase_5,2,5,63,98,2587895192
7114,17,Jits_Phase_5,3,1,48,40,2587916892
7114,17,Jits_Phase_5,0,1,48,38,2588323968
7114,17,Jits_Phase_5,1,5,63,98,2588375308
7114,17,Jits_Phase_5,2,5,56,103,2588415320
7114,17,Jits_Phase_5,3,5,80,127,2588434792
7114,17,Jits_Phase_5,0,1,48,34,2588869860
7114,17,Jits_Phase_5,1,5,63,98,2588875208
7114,17,Jits_Phase_5,2,5,56,103,2588934476
7114,17,Jits_Phase_5,3,5,80,127,2588937688
7114,17,Jits_Phase_5,0,5,56,103,2589334880
7114,17,Jits_Phase_5,1,5,80,127,2589355412
7114,17,Jits_Phase_5,2,5,63,98,2589395348
7114,17,Jits_Phase_5,3,1,48,29,2589401756
7114,17,Jits_Phase_5,0,1,48,41,2589810700
7114,17,Jits_Phase_5,1,5,56,103,2589865272
7114,17,Jits_Phase_5,2,5,63,98,2589884760
7114,17,Jits_Phase_5,3,5,80,127,2589894880
7114,17,Jits_Phase_5,0,1,48,40,2590334760
7114,17,Jits_Phase_5,1,5,80,127,2590336104
7114,17,Jits_Phase_5,2,5,56,103,2590365104
7114,17,Jits_Phase_5,3,5,63,98,2590404892
7114,17,Jits_Phase_5,0,1,48,38,2590807948
7114,17,Jits_Phase_5,1,5,80,127,2590845292
7114,17,Jits_Phase_5,2,5,56,103,2590865076
7114,17,Jits_Phase_5,3,5,63,98,2590925224
7114,17,Jits_Phase_5,0,5,56,103,2591355160
7114,17,Jits_Phase_5,1,1,48,36,2591356648
7114,17,Jits_Phase_5,2,5,80,127,2591374788
7114,17,Jits_Phase_5,3,5,63,98,2591435100
7114,17,Jits_Phase_5,0,5,80,127,2591834476
7114,17,Jits_Phase_5,1,5,56,103,2591844892
7114,17,Jits_Phase_5,2,1,48,42,2591867640
7114,17,Jits_Phase_5,3,5,63,98,2591884824
7114,17,Jits_Phase_5,0,1,48,39,2592334452
7114,17,Jits_Phase_5,1,5,63,98,2592336024
7114,17,Jits_Phase_5,2,5,56,103,2592375056
7114,17,Jits_Phase_5,3,5,80,127,2592378276
7114,17,Jits_Phase_5,0,1,48,30,2592835888
7114,17,Jits_Phase_5,1,5,63,98,2592855392
7114,17,Jits_Phase_5,2,5,80,127,2592895476
7114,17,Jits_Phase_5,3,5,56,103,2592925000
7114,17,Jits_Phase_5,0,1,48,36,2593329008
7114,17,Jits_Phase_5,1,5,56,103,2593344804
7114,17,Jits_Phase_5,2,5,63,98,2593355220
7114,17,Jits_Phase_5,3,5,80,127,2593384748
7114,17,Jits_Phase_5,0,1,48,39,2593812808
7114,17,Jits_Phase_5,1,5,80,127,2593835380
7114,17,Jits_Phase_5,2,5,63,98,2593904864
7114,17,Jits_Phase_5,3,5,56,103,2593915192
7114,17,Jits_Phase_5,0,5,63,98,2594335060
7114,17,Jits_Phase_5,1,1,48,34,2594336028
7114,17,Jits_Phase_5,2,5,56,103,2594404684
7114,17,Jits_Phase_5,3,5,80,127,2594415028
7114,17,Jits_Phase_5,0,5,63,98,2594815404
7114,17,Jits_Phase_5,1,5,56,103,2594834672
7114,17,Jits_Phase_5,2,1,48,41,2594838760
7114,17,Jits_Phase_5,3,5,80,127,2594874848
7114,17,Jits_Phase_5,0,1,48,43,2595287780
7114,17,Jits_Phase_5,1,5,56,103,2595294852
7114,17,Jits_Phase_5,2,5,63,98,2595305048
7114,17,Jits_Phase_5,3,5,80,127,2595386044
7114,17,Jits_Phase_5,0,5,63,98,2595785092
7114,17,Jits_Phase_5,1,1,48,37,2595806716
7114,17,Jits_Phase_5,2,5,56,103,2595814760
7114,17,Jits_Phase_5,3,5,80,127,2595854772
7114,17,Jits_Phase_5,0,1,48,38,2596281948
7114,17,Jits_Phase_5,1,5,56,103,2596284684
7114,17,Jits_Phase_5,2,5,63,98,2596324768
7114,17,Jits_Phase_5,3,5,80,127,2596364856
7114,17,Jits_Phase_5,0,1,48,37,2596777584
7114,17,Jits_Phase_5,1,5,80,127,2596784580
7114,17,Jits_Phase_5,2,5,56,103,2596865348
7114,17,Jits_Phase_5,3,5,63,98,2596874780
7114,17,Jits_Phase_5,0,1,48,44,2597296668
7114,17,Jits_Phase_5,1,5,56,103,2597325236
7114,17,Jits_Phase_5,2,5,63,98,2597328524
7114,17,Jits_Phase_5,3,5,80,127,2597335580
7114,17,Jits_Phase_5,0,1,48,44,2597823080
7114,17,Jits_Phase_5,1,5,56,103,2597845352
7114,17,Jits_Phase_5,2,5,63,98,2597864912
7114,17,Jits_Phase_5,3,5,80,127,2597875184
7114,17,Jits_Phase_5,0,1,48,43,2598259664
7114,17,Jits_Phase_5,1,5,63,98,2598305104
7114,17,Jits_Phase_5,2,5,80,127,2598315372
7114,17,Jits_Phase_5,3,5,56,103,2598334784
7114,17,Jits_Phase_5,0,1,48,43,2598731388
7114,17,Jits_Phase_5,1,5,63,98,2598804700
7114,17,Jits_Phase_5,2,5,56,103,2598884776
7114,17,Jits_Phase_5,3,5,80,127,2598887768
7114,17,Jits_Phase_5,0,1,48,27,2599309508
7114,17,Jits_Phase_5,1,5,63,98,2599314784
7114,17,Jits_Phase_5,2,5,56,103,2599335392
7114,17,Jits_Phase_5,3,5,80,127,2599364844
7114,17,Jits_Phase_5,0,1,48,32,2599797348
7114,17,Jits_Phase_5,1,5,56,103,2599814756
7114,17,Jits_Phase_5,2,5,63,98,2599835068
7114,17,Jits_Phase_5,3,5,80,127,2599845116
7114,17,Jits_Phase_5,0,1,48,42,2600253200
7114,17,Jits_Phase_5,1,5,56,103,2600344924
7114,17,Jits_Phase_5,2,5,63,98,2600374888
7114,17,Jits_Phase_5,3,5,80,127,2600378096
7114,17,Jits_Phase_5,0,1,48,25,2600776768
7114,17,Jits_Phase_5,1,5,56,103,2600794548
7114,17,Jits_Phase_5,2,5,63,98,2600834560
7114,17,Jits_Phase_5,3,5,80,127,2600894784
7114,17,Jits_Phase_5,0,1,48,41,2601213780
7114,17,Jits_Phase_5,1,5,56,103,2601314732
7114,17,Jits_Phase_5,2,5,63,98,2601324856
7114,17,Jits_Phase_5,3,5,80,127,2601385468
7114,17,Jits_Phase_5,0,1,48,32,2601775196
7114,17,Jits_Phase_5,1,5,56,103,2601815396
7114,17,Jits_Phase_5,2,5,80,127,2601834884
7114,17,Jits_Phase_5,3,5,63,98,2601864560
7114,17,Jits_Phase_5,0,1,48,40,2602300804
7114,17,Jits_Phase_5,1,5,80,127,2602315076
7114,17,Jits_Phase_5,2,5,56,103,2602325492
7114,17,Jits_Phase_5,3,5,63,98,2602344684
7114,17,Jits_Phase_5,0,1,48,43,2602798360
7114,17,Jits_Phase_5,1,5,63,98,2602804928
7114,17,Jits_Phase_5,2,5,80,127,2602884800
7114,17,Jits_Phase_5,3,5,56,103,2602894684
7114,17,Jits_Phase_5,0,1,48,43,2603252476
7114,17,Jits_Phase_5,1,5,80,127,2603394504
7114,17,Jits_Phase_5,2,5,56,103,2603414804
7114,17,Jits_Phase_5,3,5,63,98,2603417876
7114,17,Jits_Phase_5,0,1,48,34,2603737104
7114,17,Jits_Phase_5,1,5,63,98,2603884880
7114,17,Jits_Phase_5,2,5,80,127,2603888168
7114,17,Jits_Phase_5,3,5,56,103,2603945192
7114,17,Jits_Phase_5,0,1,48,37,2604244860
7114,17,Jits_Phase_5,1,5,56,103,2604365068
7114,17,Jits_Phase_5,2,5,80,127,2604375488
7114,17,Jits_Phase_5,3,5,63,98,2604415276
7114,17,Jits_Phase_5,0,1,48,27,2604731036
7114,17,Jits_Phase_5,1,5,56,103,2604845684
7114,17,Jits_Phase_5,2,5,63,98,2604904756
7114,17,Jits_Phase_5,3,5,80,127,2604914948
7114,17,Jits_Phase_5,0,1,48,33,2605213044
7114,17,Jits_Phase_5,1,5,63,98,2605355624
7114,17,Jits_Phase_5,2,5,80,127,2605395364
7114,17,Jits_Phase_5,3,5,56,103,2605435300
7114,17,Jits_Phase_5,0,1,48,37,2605736020
7114,17,Jits_Phase_5,1,5,56,103,2605855000
7114,17,Jits_Phase_5,2,5,63,98,2605934812
7114,17,Jits_Phase_5,3,5,80,127,2605938108
7114,17,Jits_Phase_5,0,1,48,39,2606357052
7114,17,Jits_Phase_5,1,5,80,127,2606415168
7114,17,Jits_Phase_5,2,5,56,103,2606444844
7114,17,Jits_Phase_5,3,5,63,98,2606447908
7114,17,Jits_Phase_5,0,5,56,103,2606874884
7114,17,Jits_Phase_5,1,5,80,127,2606894820
7114,17,Jits_Phase_5,2,1,48,36,2606927332
7114,17,Jits_Phase_5,3,5,63,98,2606935448
7114,17,Jits_Phase_5,0,5,80,127,2607355468
7114,17,Jits_Phase_5,1,5,63,98,2607374656
7114,17,Jits_Phase_5,2,5,56,103,2607435068
7114,17,Jits_Phase_5,3,1,48,38,2607454072
7114,17,Jits_Phase_5,0,5,63,98,2607865348
7114,17,Jits_Phase_5,1,5,56,103,2607874572
7114,17,Jits_Phase_5,2,5,80,127,2607924868
7114,17,Jits_Phase_5,3,1,48,38,2607952700
7114,17,Jits_Phase_5,0,5,56,103,2608354612
7114,17,Jits_Phase_5,1,5,63,98,2608375368
7114,17,Jits_Phase_5,2,5,80,127,2608385340
7114,17,Jits_Phase_5,3,1,48,32,2608419468
7114,17,Jits_Phase_5,0,5,56,103,2608845228
7114,17,Jits_Phase_5,1,5,63,98,2608848444
7114,17,Jits_Phase_5,2,5,80,127,2608864564
7114,17,Jits_Phase_5,3,1,48,32,2608901240
7114,17,Jits_Phase_5,0,1,48,29,2609372820
7114,17,Jits_Phase_5,1,5,63,98,2609384756
7114,17,Jits_Phase_5,2,5,56,103,2609414580
7114,17,Jits_Phase_5,3,5,80,127,2609445372
7114,17,Jits_Phase_5,0,5,80,127,2609844580
7114,17,Jits_Phase_5,1,1,48,30,2609848144
7114,17,Jits_Phase_5,2,5,56,103,2609934628
7114,17,Jits_Phase_5,3,5,63,98,2609937768
7114,17,Jits_Phase_5,0,5,56,103,2610345532
7114,17,Jits_Phase_5,1,5,80,127,2610348596
7114,17,Jits_Phase_5,2,1,48,27,2610378916
7114,17,Jits_Phase_5,3,5,63,98,2610425168
7114,17,Jits_Phase_5,0,5,80,127,2610844988
7114,17,Jits_Phase_5,1,1,48,27,2610845956
7114,17,Jits_Phase_5,2,5,63,98,2610904548
7114,17,Jits_Phase_5,3,5,56,103,2610935120
7114,17,Jits_Phase_5,0,5,63,98,2611344604
7114,17,Jits_Phase_5,1,1,48,29,2611350412
7114,17,Jits_Phase_5,2,5,80,127,2611355092
7114,17,Jits_Phase_5,3,5,56,103,2611424768
7114,17,Jits_Phase_5,0,1,48,33,2611845148
7114,17,Jits_Phase_5,1,5,56,103,2611904880
7114,17,Jits_Phase_5,2,5,80,127,2611934480
7114,17,Jits_Phase_5,3,5,63,98,2611984664
7114,17,Jits_Phase_5,0,1,48,30,2612397400
7114,17,Jits_Phase_5,1,5,63,98,2612494736
7114,17,Jits_Phase_5,2,5,56,103,2612525380
7114,17,Jits_Phase_5,3,5,80,127,2612528448
7114,17,Jits_Phase_5,0,1,48,35,2612895052
7114,17,Jits_Phase_5,1,5,63,98,2612994852
7114,17,Jits_Phase_5,2,5,80,127,2613014788
7114,17,Jits_Phase_5,3,5,56,103,2613025132
7114,17,Jits_Phase_5,0,1,48,33,2613366480
7114,17,Jits_Phase_5,1,5,56,103,2613505392
7114,17,Jits_Phase_5,2,5,63,98,2613508532
7114,17,Jits_Phase_5,3,5,80,127,2613524952
7114,17,Jits_Phase_5,0,1,48,25,2613838424
7114,17,Jits_Phase_5,1,5,56,103,2613954940
7114,17,Jits_Phase_5,2,5,63,98,2613965284
7114,17,Jits_Phase_5,3,5,80,127,2613994884
7114,17,Jits_Phase_5,0,1,48,38,2614257268
7114,17,Jits_Phase_5,1,5,63,98,2614475064
7114,17,Jits_Phase_5,2,5,80,127,2614494476
7114,17,Jits_Phase_5,3,5,56,103,2614534488
7114,17,Jits_Phase_5,0,1,48,27,2614782300
7114,17,Jits_Phase_5,1,5,56,103,2615004560
7114,17,Jits_Phase_5,2,5,63,98,2615044572
7114,17,Jits_Phase_5,3,5,80,127,2615047712
7114,17,Jits_Phase_5,4,1,48,39,2615224656
7114,17,Jits_Phase_5,0,5,80,127,2615444800
7114,17,Jits_Phase_5,1,5,56,103,2615484812
7114,17,Jits_Phase_5,2,5,63,98,2615534936
7114,17,Jits_Phase_5,3,1,48,31,2615709096
7114,17,Jits_Phase_5,0,5,56,103,2616004952
7114,17,Jits_Phase_5,1,5,80,127,2616015372
7114,17,Jits_Phase_5,2,5,63,98,2616044824
7114,17,Jits_Phase_5,3,1,48,28,2616156884
7114,17,Jits_Phase_5,0,5,56,103,2616454584
7114,17,Jits_Phase_5,1,5,80,127,2616494520
7114,17,Jits_Phase_5,2,5,63,98,2616544572
7114,17,Jits_Phase_5,3,1,48,30,2616630256
7114,17,Jits_Phase_5,0,5,56,103,2616955396
7114,17,Jits_Phase_5,1,5,80,127,2616995556
7114,17,Jits_Phase_5,2,5,63,98,2617045608
7114,17,Jits_Phase_5,3,1,48,34,2617089476
7114,17,Jits_Phase_5,0,5,80,127,2617444676
7114,17,Jits_Phase_5,1,5,63,98,2617524692
7114,17,Jits_Phase_5,2,5,56,103,2617534816
7114,17,Jits_Phase_5,3,1,48,26,2617569164
7114,17,Jits_Phase_5,0,1,48,29,2617993280
7114,17,Jits_Phase_5,1,5,80,127,2617994852
7114,17,Jits_Phase_5,2,5,56,103,2618005048
7114,17,Jits_Phase_5,3,5,63,98,2618025284
7114,17,Jits_Phase_5,0,1,48,33,2618452168
7114,17,Jits_Phase_5,1,5,63,98,2618464564
7114,17,Jits_Phase_5,2,5,56,103,2618535364
7114,17,Jits_Phase_5,3,5,80,127,2618538356
7114,17,Jits_Phase_5,0,5,80,127,2618955172
7114,17,Jits_Phase_5,1,1,48,27,2618958216
7114,17,Jits_Phase_5,2,5,63,98,2619005368
7114,17,Jits_Phase_5,3,5,56,103,2619045452
7114,17,Jits_Phase_5,0,1,48,31,2619494652
7114,17,Jits_Phase_5,1,5,63,98,2619496136
7114,17,Jits_Phase_5,2,5,56,103,2619534656
7114,17,Jits_Phase_5,3,5,80,127,2619544924
7114,17,Jits_Phase_5,0,1,48,30,2619959752
7114,17,Jits_Phase_5,1,5,63,98,2619985480
7114,17,Jits_Phase_5,2,5,56,103,2620004596
7114,17,Jits_Phase_5,3,5,80,127,2620025276
7114,17,Jits_Phase_5,0,1,48,27,2620433572
7114,17,Jits_Phase_5,1,5,80,127,2620444980
7114,17,Jits_Phase_5,2,5,56,103,2620455396
7114,17,Jits_Phase_5,3,5,63,98,2620474688
7114,17,Jits_Phase_5,0,1,48,28,2620898096
7114,17,Jits_Phase_5,1,5,63,98,2620974396
7114,17,Jits_Phase_5,2,5,56,103,2621015464
7114,17,Jits_Phase_5,3,5,80,127,2621045360
7114,17,Jits_Phase_5,0,5,56,103,2621435496
7114,17,Jits_Phase_5,1,1,48,27,2621442448
7114,17,Jits_Phase_5,2,5,63,98,2621465016
7114,17,Jits_Phase_5,3,5,80,127,2621494564
7114,17,Jits_Phase_5,0,5,80,127,2621855040
7114,17,Jits_Phase_5,1,5,56,103,2621924716
7114,17,Jits_Phase_5,2,5,63,98,2621928004
7114,17,Jits_Phase_5,3,1,48,27,2621953464
7114,17,Jits_Phase_5,0,5,56,103,2622365352
7114,17,Jits_Phase_5,1,5,63,98,2622415404
7114,17,Jits_Phase_5,2,1,48,20,2622429008
7114,17,Jits_Phase_5,3,5,80,127,2622444848
7114,17,Jits_Phase_5,0,5,63,98,2622845340
7114,17,Jits_Phase_5,1,5,80,127,2622848704
7114,17,Jits_Phase_5,2,1,48,28,2622897604
7114,17,Jits_Phase_5,3,5,56,103,2622904600
7114,17,Jits_Phase_5,0,1,48,30,2623366324
7114,17,Jits_Phase_5,1,5,56,103,2623374740
7114,17,Jits_Phase_5,2,5,80,127,2623385084
7114,17,Jits_Phase_5,3,5,63,98,2623435280
7114,17,Jits_Phase_5,0,5,63,98,2623844604
7114,17,Jits_Phase_5,1,1,48,25,2623852356
7114,17,Jits_Phase_5,2,5,56,103,2623855088
7114,17,Jits_Phase_5,3,5,80,127,2623884688
7114,17,Jits_Phase_5,0,1,48,30,2624337712
7114,17,Jits_Phase_5,1,5,63,98,2624375424
7114,17,Jits_Phase_5,2,5,80,127,2624378636
7114,17,Jits_Phase_5,3,5,56,103,2624404800
7114,17,Jits_Phase_5,0,1,48,30,2624862780
7114,17,Jits_Phase_5,1,5,63,98,2624895316
7114,17,Jits_Phase_5,2,5,56,103,2624914728
7114,17,Jits_Phase_5,3,5,80,127,2624917716
7114,17,Jits_Phase_5,0,1,48,32,2625303008
7114,17,Jits_Phase_5,1,5,63,98,2625355196
7114,17,Jits_Phase_5,2,5,56,103,2625424640
7114,17,Jits_Phase_5,3,5,80,127,2625445396
7114,17,Jits_Phase_5,0,1,48,26,2625833920
7114,17,Jits_Phase_5,1,5,56,103,2625844684
7114,17,Jits_Phase_5,2,5,63,98,2625855028
7114,17,Jits_Phase_5,3,5,80,127,2625945216
7114,17,Jits_Phase_5,0,5,56,103,2626364740
7114,17,Jits_Phase_5,1,1,48,28,2626367260
7114,17,Jits_Phase_5,2,5,80,127,2626404672
7114,17,Jits_Phase_5,3,5,63,98,2626415240
7114,17,Jits_Phase_5,0,1,48,34,2626850500
7114,17,Jits_Phase_5,1,5,56,103,2626884876
7114,17,Jits_Phase_5,2,5,63,98,2626914624
7114,17,Jits_Phase_5,3,5,80,127,2626945852
7114,17,Jits_Phase_5,0,5,80,127,2627344824
7114,17,Jits_Phase_5,1,5,63,98,2627384640
7114,17,Jits_Phase_5,2,1,48,34,2627386124
7114,17,Jits_Phase_5,3,5,56,103,2627405240
7114,17,Jits_Phase_5,0,1,48,29,2627869944
7114,17,Jits_Phase_5,1,5,56,103,2627885560
7114,17,Jits_Phase_5,2,5,80,127,2627904772
7114,17,Jits_Phase_5,3,5,63,98,2627925380
7114,17,Jits_Phase_5,0,1,48,34,2628318816
7114,17,Jits_Phase_5,1,5,63,98,2628354364
7114,17,Jits_Phase_5,2,5,56,103,2628364636
7114,17,Jits_Phase_5,3,5,80,127,2628425256
7114,17,Jits_Phase_5,0,1,48,29,2628833860
7114,17,Jits_Phase_5,1,5,56,103,2628855232
7114,17,Jits_Phase_5,2,5,63,98,2628924788
7114,17,Jits_Phase_5,3,5,80,127,2628945232
7114,17,Jits_Phase_5,0,1,48,30,2629332396
7114,17,Jits_Phase_5,1,5,56,103,2629354908
7114,17,Jits_Phase_5,2,5,63,98,2629384508
7114,17,Jits_Phase_5,3,5,80,127,2629424372
7114,17,Jits_Phase_5,0,1,48,29,2629816348
7114,17,Jits_Phase_5,1,5,63,98,2629845364
7114,17,Jits_Phase_5,2,5,56,103,2629894444
7114,17,Jits_Phase_5,3,5,80,127,2629904712
7114,17,Jits_Phase_5,0,1,48,32,2630339232
7114,17,Jits_Phase_5,1,5,56,103,2630385192
7114,17,Jits_Phase_5,2,5,63,98,2630435300
7114,17,Jits_Phase_5,3,5,80,127,2630445352
7114,17,Jits_Phase_5,0,5,56,103,2630855132
7114,17,Jits_Phase_5,1,1,48,24,2630858548
7114,17,Jits_Phase_5,2,5,63,98,2630865472
7114,17,Jits_Phase_5,3,5,80,127,2630945336
7114,17,Jits_Phase_5,0,9999,9999,9999,2546632776
7114,17,Jits_Phase_5,1,9999,9999,9999,2547132488
7114,17,Jits_Phase_5,2,9999,9999,9999,2547632216
7114,17,Jits_Phase_5,3,9999,9999,9999,2548132964
7114,17,Jits_Phase_5,4,9999,9999,9999,2548632648
7114,17,Jits_Phase_5,5,9999,9999,9999,2549132400
7114,17,Jits_Phase_5,6,9999,9999,9999,2549632072
7114,17,Jits_Phase_5,7,9999,9999,9999,2550132812
7114,17,Jits_Phase_5,8,9999,9999,9999,2550632576
7114,17,Jits_Phase_5,9,9999,9999,9999,2551132268
7114,17,Jits_Phase_5,10,9999,9999,9999,2551633000
7114,17,Jits_Phase_5,11,9999,9999,9999,2552132692
7114,17,Jits_Phase_5,12,9999,9999,9999,2552632440
7114,17,Jits_Phase_5,13,9999,9999,9999,2553132088
7114,17,Jits_Phase_5,14,9999,9999,9999,2553632884
7114,17,Jits_Phase_5,15,9999,9999,9999,2554132576
7114,17,Jits_Phase_5,16,9999,9999,9999,2554632264
7114,17,Jits_Phase_5,17,9999,9999,9999,2555132992
7114,17,Jits_Phase_5,18,9999,9999,9999,2555632756
7114,17,Jits_Phase_5,19,9999,9999,9999,2556132452
7114,17,Jits_Phase_5,20,9999,9999,9999,2556632132
7114,17,Jits_Phase_5,21,9999,9999,9999,2557132924
7114,17,Jits_Phase_5,22,9999,9999,9999,2557632612
7114,17,Jits_Phase_5,23,9999,9999,9999,2558132308
7114,17,Jits_Phase_5,24,9999,9999,9999,2558633044
7114,17,Jits_Phase_5,25,9999,9999,9999,2559132732
7114,17,Jits_Phase_5,26,9999,9999,9999,2559632500
7114,17,Jits_Phase_5,27,9999,9999,9999,2560132164
7114,17,Jits_Phase_5,28,9999,9999,9999,2560632908
7114,17,Jits_Phase_5,29,9999,9999,9999,2561132668
7114,17,Jits_Phase_5,30,9999,9999,9999,2561622092
7114,17,Jits_Phase_5,31,9999,9999,9999,2562122828
7114,17,Jits_Phase_5,32,9999,9999,9999,2562622584
7114,17,Jits_Phase_5,33,9999,9999,9999,2563122248
7114,17,Jits_Phase_5,34,9999,9999,9999,2563622976
7114,17,Jits_Phase_5,35,9999,9999,9999,2564122740
7114,17,Jits_Phase_5,36,9999,9999,9999,2564622404
7114,17,Jits_Phase_5,37,9999,9999,9999,2565122152
7114,17,Jits_Phase_5,38,9999,9999,9999,2565622872
7114,17,Jits_Phase_5,39,9999,9999,9999,2566122548
7114,17,Jits_Phase_5,40,9999,9999,9999,2566622300
7114,17,Jits_Phase_5,41,9999,9999,9999,2567123032
7114,17,Jits_Phase_5,42,9999,9999,9999,2567622720
7114,17,Jits_Phase_5,43,9999,9999,9999,2568122464
7114,17,Jits_Phase_5,44,9999,9999,9999,2568622136
7114,17,Jits_Phase_5,45,9999,9999,9999,2569122940
7114,17,Jits_Phase_5,46,9999,9999,9999,2569622616
7114,17,Jits_Phase_5,47,9999,9999,9999,2570122296
7114,17,Jits_Phase_5,48,9999,9999,9999,2570632312
7114,17,Jits_Phase_5,49,9999,9999,9999,2571133036
7114,17,Jits_Phase_5,50,9999,9999,9999,2571632700
7114,17,Jits_Phase_5,51,9999,9999,9999,2572132464
7114,17,Jits_Phase_5,52,9999,9999,9999,2572632156
7114,17,Jits_Phase_5,53,9999,9999,9999,2573132892
7114,17,Jits_Phase_5,54,9999,9999,9999,2573632568
7114,17,Jits_Phase_5,55,9999,9999,9999,2574132308
7114,17,Jits_Phase_5,56,9999,9999,9999,2574633028
7114,17,Jits_Phase_5,57,9999,9999,9999,2575132788
7114,17,Jits_Phase_5,58,9999,9999,9999,2575632464
7114,17,Jits_Phase_5,59,9999,9999,9999,2576132212
7114,17,Jits_Phase_5,60,9999,9999,9999,2576632952
7114,17,Jits_Phase_5,61,9999,9999,9999,2577132624
7114,17,Jits_Phase_5,62,9999,9999,9999,2577632372
7114,17,Jits_Phase_5,63,9999,9999,9999,2578133092
7114,17,Jits_Phase_5,64,9999,9999,9999,2578652248
7114,17,Jits_Phase_5,65,9999,9999,9999,2579152984
7114,17,Jits_Phase_5,66,9999,9999,9999,2579652660
7114,17,Jits_Phase_5,67,9999,9999,9999,2580152400
7114,17,Jits_Phase_5,68,9999,9999,9999,2580652152
7114,17,Jits_Phase_5,69,9999,9999,9999,2581152876
7114,17,Jits_Phase_5,70,9999,9999,9999,2581652540
7114,17,Jits_Phase_5,71,9999,9999,9999,2582152292
7114,17,Jits_Phase_5,72,9999,9999,9999,2582653012
7114,17,Jits_Phase_5,73,9999,9999,9999,2583152760
7114,17,Jits_Phase_5,74,9999,9999,9999,2583652452
7114,17,Jits_Phase_5,75,9999,9999,9999,2584152124
7114,17,Jits_Phase_5,76,9999,9999,9999,2584652868
7114,17,Jits_Phase_5,77,9999,9999,9999,2585152616
7114,17,Jits_Phase_5,78,9999,9999,9999,2585652284
7114,17,Jits_Phase_5,79,9999,9999,9999,2586153080
7114,17,Jits_Phase_5,80,9999,9999,9999,2586652760
7114,17,Jits_Phase_5,81,9999,9999,9999,2587133032
7114,17,Jits_Phase_5,82,9999,9999,9999,2587632720
7114,17,Jits_Phase_5,83,9999,9999,9999,2588132476
7114,17,Jits_Phase_5,84,9999,9999,9999,2588632168
7114,17,Jits_Phase_5,85,9999,9999,9999,2589132884
7114,17,Jits_Phase_5,86,9999,9999,9999,2589632628
7114,17,Jits_Phase_5,87,9999,9999,9999,2590132320
7114,17,Jits_Phase_5,88,9999,9999,9999,2590633040
7114,17,Jits_Phase_5,89,9999,9999,9999,2591132788
7114,17,Jits_Phase_5,90,9999,9999,9999,2591632464
7114,17,Jits_Phase_5,91,9999,9999,9999,2592132152
7114,17,Jits_Phase_5,92,9999,9999,9999,2592632952
7114,17,Jits_Phase_5,93,9999,9999,9999,2593132628
7114,17,Jits_Phase_5,94,9999,9999,9999,2593632372
7114,17,Jits_Phase_5,95,9999,9999,9999,2594133092
7114,17,Jits_Phase_5,96,9999,9999,9999,2594632768
7114,17,Jits_Phase_5,97,9999,9999,9999,2595082300
7114,17,Jits_Phase_5,98,9999,9999,9999,2595583100
7114,17,Jits_Phase_5,99,9999,9999,9999,2596082772
7114,17,Jits_Phase_5,100,9999,9999,9999,2596582520
7114,17,Jits_Phase_5,101,9999,9999,9999,2597082196
7114,17,Jits_Phase_5,102,9999,9999,9999,2597582908
7114,17,Jits_Phase_5,103,9999,9999,9999,2598082660
7114,17,Jits_Phase_5,104,9999,9999,9999,2598582336
7114,17,Jits_Phase_5,105,9999,9999,9999,2599083128
7114,17,Jits_Phase_5,106,9999,9999,9999,2599593064
7114,17,Jits_Phase_5,107,9999,9999,9999,2600092740
7114,17,Jits_Phase_5,108,9999,9999,9999,2600592488
7114,17,Jits_Phase_5,109,9999,9999,9999,2601092160
7114,17,Jits_Phase_5,110,9999,9999,9999,2601592960
7114,17,Jits_Phase_5,111,9999,9999,9999,2602092632
7114,17,Jits_Phase_5,112,9999,9999,9999,2602592384
7114,17,Jits_Phase_5,113,9999,9999,9999,2603093108
7114,17,Jits_Phase_5,114,9999,9999,9999,2603642972
7114,17,Jits_Phase_5,115,9999,9999,9999,2604142716
7114,17,Jits_Phase_5,116,9999,9999,9999,2604642392
7114,17,Jits_Phase_5,117,9999,9999,9999,2605142140
7114,17,Jits_Phase_5,118,9999,9999,9999,2605642864
7114,17,Jits_Phase_5,119,9999,9999,9999,2606142532
7114,17,Jits_Phase_5,120,9999,9999,9999,2606642252
7114,17,Jits_Phase_5,121,9999,9999,9999,2607142972
7114,17,Jits_Phase_5,122,9999,9999,9999,2607642736
7114,17,Jits_Phase_5,123,9999,9999,9999,2608142424
7114,17,Jits_Phase_5,124,9999,9999,9999,2608642100
7114,17,Jits_Phase_5,125,9999,9999,9999,2609142892
7114,17,Jits_Phase_5,126,9999,9999,9999,2609642588
7114,17,Jits_Phase_5,127,9999,9999,9999,2610142328
7114,17,Jits_Phase_5,128,9999,9999,9999,2610643052
7114,17,Jits_Phase_5,129,9999,9999,9999,2611142744
7114,17,Jits_Phase_5,130,9999,9999,9999,2611642432
7114,17,Jits_Phase_5,131,9999,9999,9999,2612242492
7114,17,Jits_Phase_5,132,9999,9999,9999,2612742236
7114,17,Jits_Phase_5,133,9999,9999,9999,2613242960
7114,17,Jits_Phase_5,134,9999,9999,9999,2613742704
7114,17,Jits_Phase_5,135,9999,9999,9999,2614242376
7114,17,Jits_Phase_5,136,9999,9999,9999,2614742128
7114,17,Jits_Phase_5,137,9999,9999,9999,2615242840
7114,17,Jits_Phase_5,138,9999,9999,9999,2615742568
7114,17,Jits_Phase_5,139,9999,9999,9999,2616242268
7114,17,Jits_Phase_5,140,9999,9999,9999,2616742976
7114,17,Jits_Phase_5,141,9999,9999,9999,2617242740
7114,17,Jits_Phase_5,142,9999,9999,9999,2617742432
7114,17,Jits_Phase_5,143,9999,9999,9999,2618242124
7114,17,Jits_Phase_5,144,9999,9999,9999,2618742840
7114,17,Jits_Phase_5,145,9999,9999,9999,2619242592
7114,17,Jits_Phase_5,146,9999,9999,9999,2619742288
7114,17,Jits_Phase_5,147,9999,9999,9999,2620243012
7114,17,Jits_Phase_5,148,9999,9999,9999,2620742760
7114,17,Jits_Phase_5,149,9999,9999,9999,2621242440
7114,17,Jits_Phase_5,150,9999,9999,9999,2621642836
7114,17,Jits_Phase_5,151,9999,9999,9999,2622142524
7114,17,Jits_Phase_5,152,9999,9999,9999,2622642284
7114,17,Jits_Phase_5,153,9999,9999,9999,2623143008
7114,17,Jits_Phase_5,154,9999,9999,9999,2623642684
7114,17,Jits_Phase_5,155,9999,9999,9999,2624142424
7114,17,Jits_Phase_5,156,9999,9999,9999,2624642164
7114,17,Jits_Phase_5,157,9999,9999,9999,2625142876
7114,17,Jits_Phase_5,158,9999,9999,9999,2625642548
7114,17,Jits_Phase_5,159,9999,9999,9999,2626142296
7114,17,Jits_Phase_5,160,9999,9999,9999,2626643016
7114,17,Jits_Phase_5,161,9999,9999,9999,2627142784
7114,17,Jits_Phase_5,162,9999,9999,9999,2627642452
7114,17,Jits_Phase_5,163,9999,9999,9999,2628142192
7114,17,Jits_Phase_5,164,9999,9999,9999,2628642908
7114,17,Jits_Phase_5,165,9999,9999,9999,2629142584
7114,17,Jits_Phase_5,166,9999,9999,9999,2629642332
7114,17,Jits_Phase_5,167,9999,9999,9999,2630143048
7114,17,Jits_Phase_5,168,9999,9999,9999,2630642800
7114,17,Jits_Phase_5,169,9999,9999,9999,2631142476
7115,15,Jits_Phase_8,0,5,56,103,2640256280
7115,15,Jits_Phase_8,1,5,63,98,2640259528
7115,15,Jits_Phase_8,2,5,80,127,2640262500
7115,15,Jits_Phase_8,0,5,56,103,2641056220
7115,15,Jits_Phase_8,1,5,63,98,2641059168
7115,15,Jits_Phase_8,2,5,80,127,2641062292
7115,15,Jits_Phase_8,0,5,80,127,2641795412
7115,15,Jits_Phase_8,1,5,63,98,2641885548
7115,15,Jits_Phase_8,2,5,56,103,2641895968
7115,15,Jits_Phase_8,0,5,56,103,2642615676
7115,15,Jits_Phase_8,1,5,63,98,2642626172
7115,15,Jits_Phase_8,2,5,80,127,2642716004
7115,15,Jits_Phase_8,0,5,63,98,2643385816
7115,15,Jits_Phase_8,1,5,80,127,2643416392
7115,15,Jits_Phase_8,2,5,56,103,2643446140
7115,15,Jits_Phase_8,3,1,48,34,2643455704
7115,15,Jits_Phase_8,0,1,48,35,2644149864
7115,15,Jits_Phase_8,1,5,56,103,2644185340
7115,15,Jits_Phase_8,2,5,80,127,2644285892
7115,15,Jits_Phase_8,3,5,63,98,2644336020
7115,15,Jits_Phase_8,0,5,56,103,2644986300
7115,15,Jits_Phase_8,1,5,80,127,2645036504
7115,15,Jits_Phase_8,2,5,63,98,2645076316
7115,15,Jits_Phase_8,3,1,48,24,2645105360
7115,15,Jits_Phase_8,0,5,80,127,2645815988
7115,15,Jits_Phase_8,1,1,48,41,2645828924
7115,15,Jits_Phase_8,2,5,63,98,2645846408
7115,15,Jits_Phase_8,3,5,56,103,2645916012
7115,15,Jits_Phase_8,0,1,48,36,2646630108
7115,15,Jits_Phase_8,1,5,63,98,2646646100
7115,15,Jits_Phase_8,2,5,56,103,2646676000
7115,15,Jits_Phase_8,3,5,80,127,2646736296
7115,15,Jits_Phase_8,0,5,56,103,2647385480
7115,15,Jits_Phase_8,1,5,80,127,2647388472
7115,15,Jits_Phase_8,2,1,48,39,2647390184
7115,15,Jits_Phase_8,3,5,63,98,2647506304
7115,15,Jits_Phase_8,0,1,48,35,2648257660
7115,15,Jits_Phase_8,1,5,56,103,2648266072
7115,15,Jits_Phase_8,2,5,80,127,2648306088
7115,15,Jits_Phase_8,3,5,63,98,2648316284
7115,15,Jits_Phase_8,0,5,56,103,2649025760
7115,15,Jits_Phase_8,1,5,80,127,2649046444
7115,15,Jits_Phase_8,2,1,48,37,2649093624
7115,15,Jits_Phase_8,3,5,63,98,2649126304
7115,15,Jits_Phase_8,0,5,80,127,2649816468
7115,15,Jits_Phase_8,1,5,56,103,2649915844
7115,15,Jits_Phase_8,2,5,63,98,2649925964
7115,15,Jits_Phase_8,3,1,48,29,2649927900
7115,15,Jits_Phase_8,0,5,63,98,2650585452
7115,15,Jits_Phase_8,1,5,80,127,2650645844
7115,15,Jits_Phase_8,2,5,56,103,2650655964
7115,15,Jits_Phase_8,3,1,48,42,2650732360
7115,15,Jits_Phase_8,0,5,56,103,2651386252
7115,15,Jits_Phase_8,1,5,63,98,2651455808
7115,15,Jits_Phase_8,2,5,80,127,2651459396
7115,15,Jits_Phase_8,3,1,48,36,2651477880
7115,15,Jits_Phase_8,0,5,63,98,2652215780
7115,15,Jits_Phase_8,1,5,56,103,2652266056
7115,15,Jits_Phase_8,2,5,80,127,2652268972
7115,15,Jits_Phase_8,3,1,48,31,2652284540
7115,15,Jits_Phase_8,0,5,56,103,2652975420
7115,15,Jits_Phase_8,1,5,80,127,2652978660
7115,15,Jits_Phase_8,2,1,48,34,2652980144
7115,15,Jits_Phase_8,3,5,63,98,2653065864
7115,15,Jits_Phase_8,0,1,48,27,2653750808
7115,15,Jits_Phase_8,1,5,63,98,2653816176
7115,15,Jits_Phase_8,2,5,56,103,2653906220
7115,15,Jits_Phase_8,3,5,80,127,2653935968
7115,15,Jits_Phase_8,0,5,56,103,2654605824
7115,15,Jits_Phase_8,1,1,48,31,2654637564
7115,15,Jits_Phase_8,2,5,63,98,2654705992
7115,15,Jits_Phase_8,3,5,80,127,2654735816
7115,15,Jits_Phase_8,0,5,63,98,2655425980
7115,15,Jits_Phase_8,1,5,56,103,2655436176
7115,15,Jits_Phase_8,2,1,48,34,2655495416
7115,15,Jits_Phase_8,3,5,80,127,2655526300
7115,15,Jits_Phase_8,0,5,63,98,2656246044
7115,15,Jits_Phase_8,1,1,48,40,2656316768
7115,15,Jits_Phase_8,2,5,56,103,2656326004
7115,15,Jits_Phase_8,3,5,80,127,2656329000
7115,15,Jits_Phase_8,0,5,80,127,2657005944
7115,15,Jits_Phase_8,1,5,63,98,2657026404
7115,15,Jits_Phase_8,2,5,56,103,2657085920
7115,15,Jits_Phase_8,3,1,48,36,2657183712
7115,15,Jits_Phase_8,0,5,56,103,2657845748
7115,15,Jits_Phase_8,1,5,63,98,2657866056
7115,15,Jits_Phase_8,2,5,80,127,2657869344
7115,15,Jits_Phase_8,3,1,48,34,2658012252
7115,15,Jits_Phase_8,0,5,63,98,2658585924
7115,15,Jits_Phase_8,1,5,80,127,2658665816
7115,15,Jits_Phase_8,2,5,56,103,2658676160
7115,15,Jits_Phase_8,3,1,48,42,2658796072
7115,15,Jits_Phase_8,0,5,63,98,2659406228
7115,15,Jits_Phase_8,1,5,56,103,2659425640
7115,15,Jits_Phase_8,2,5,80,127,2659475768
7115,15,Jits_Phase_8,3,1,48,28,2659583528
7115,15,Jits_Phase_8,0,5,80,127,2660206056
7115,15,Jits_Phase_8,1,5,63,98,2660245776
7115,15,Jits_Phase_8,2,5,56,103,2660266380
7115,15,Jits_Phase_8,3,1,48,33,2660370328
7115,15,Jits_Phase_8,0,5,56,103,2661045756
7115,15,Jits_Phase_8,1,5,63,98,2661055804
7115,15,Jits_Phase_8,2,5,80,127,2661076188
7115,15,Jits_Phase_8,3,1,48,31,2661103268
7115,15,Jits_Phase_8,0,5,56,103,2661775852
7115,15,Jits_Phase_8,1,5,63,98,2661865840
7115,15,Jits_Phase_8,2,1,48,40,2661923484
7115,15,Jits_Phase_8,3,5,80,127,2661926144
7115,15,Jits_Phase_8,0,5,80,127,2662606048
7115,15,Jits_Phase_8,1,5,56,103,2662616688
7115,15,Jits_Phase_8,2,5,63,98,2662686068
7115,15,Jits_Phase_8,3,1,48,37,2662775892
7115,15,Jits_Phase_8,0,5,63,98,2663435632
7115,15,Jits_Phase_8,1,5,80,127,2663525792
7115,15,Jits_Phase_8,2,5,56,103,2663535840
7115,15,Jits_Phase_8,3,1,48,27,2663563984
7115,15,Jits_Phase_8,0,5,63,98,2664165644
7115,15,Jits_Phase_8,1,5,80,127,2664215996
7115,15,Jits_Phase_8,2,5,56,103,2664276484
7115,15,Jits_Phase_8,3,1,48,35,2664398940
7115,15,Jits_Phase_8,0,5,56,103,2664985852
7115,15,Jits_Phase_8,1,5,80,127,2665036152
7115,15,Jits_Phase_8,2,5,63,98,2665055564
7115,15,Jits_Phase_8,3,1,48,37,2665134872
7115,15,Jits_Phase_8,0,5,56,103,2665755876
7115,15,Jits_Phase_8,1,5,80,127,2665816588
7115,15,Jits_Phase_8,2,5,63,98,2665885972
7115,15,Jits_Phase_8,3,1,48,35,2665898752
7115,15,Jits_Phase_8,0,5,56,103,2666555672
7115,15,Jits_Phase_8,1,5,80,127,2666585720
7115,15,Jits_Phase_8,2,5,63,98,2666616068
7115,15,Jits_Phase_8,3,1,48,25,2666774784
7115,15,Jits_Phase_8,0,5,56,103,2667395592
7115,15,Jits_Phase_8,1,5,80,127,2667415904
7115,15,Jits_Phase_8,2,1,48,25,2667464652
7115,15,Jits_Phase_8,3,5,63,98,2667476284
7115,15,Jits_Phase_8,0,5,80,127,2668276204
7115,15,Jits_Phase_8,1,5,56,103,2668286476
7115,15,Jits_Phase_8,2,5,63,98,2668295476
7115,15,Jits_Phase_8,3,1,48,39,2668318000
7115,15,Jits_Phase_8,0,5,56,103,2669035828
7115,15,Jits_Phase_8,1,1,48,27,2669072056
7115,15,Jits_Phase_8,2,5,80,127,2669075760
7115,15,Jits_Phase_8,3,5,63,98,2669105536
7115,15,Jits_Phase_8,0,5,56,103,2669805860
7115,15,Jits_Phase_8,1,5,63,98,2669835612
7115,15,Jits_Phase_8,2,1,48,29,2669849744
7115,15,Jits_Phase_8,3,5,80,127,2669875492
7115,15,Jits_Phase_8,0,5,80,127,2670555588
7115,15,Jits_Phase_8,1,5,63,98,2670605716
7115,15,Jits_Phase_8,2,5,56,103,2670626100
7115,15,Jits_Phase_8,3,1,48,38,2670679208
7115,15,Jits_Phase_8,0,5,56,103,2671386072
7115,15,Jits_Phase_8,1,5,80,127,2671455628
7115,15,Jits_Phase_8,2,1,48,41,2671495612
7115,15,Jits_Phase_8,3,5,63,98,2671516084
7115,15,Jits_Phase_8,0,5,80,127,2672185572
7115,15,Jits_Phase_8,1,5,63,98,2672275780
7115,15,Jits_Phase_8,2,5,56,103,2672296240
7115,15,Jits_Phase_8,3,1,48,25,2672302872
7115,15,Jits_Phase_8,0,5,63,98,2673005880
7115,15,Jits_Phase_8,1,5,56,103,2673026636
7115,15,Jits_Phase_8,2,1,48,40,2673036952
7115,15,Jits_Phase_8,3,5,80,127,2673066716
7115,15,Jits_Phase_8,0,5,80,127,2673765632
7115,15,Jits_Phase_8,1,1,48,41,2673783496
7115,15,Jits_Phase_8,2,5,63,98,2673786160
7115,15,Jits_Phase_8,3,5,56,103,2673865956
7115,15,Jits_Phase_8,0,5,63,98,2674556556
7115,15,Jits_Phase_8,1,1,48,51,2674639392
7115,15,Jits_Phase_8,2,5,56,103,2674665792
7115,15,Jits_Phase_8,3,5,80,127,2674668856
7115,15,Jits_Phase_8,0,5,63,98,2675375416
7115,15,Jits_Phase_8,1,5,56,103,2675385760
7115,15,Jits_Phase_8,2,5,80,127,2675388752
7115,15,Jits_Phase_8,3,1,48,47,2675513400
7115,15,Jits_Phase_8,0,5,56,103,2676155676
7115,15,Jits_Phase_8,1,1,48,38,2676256340
7115,15,Jits_Phase_8,2,5,80,127,2676275496
7115,15,Jits_Phase_8,3,5,63,98,2676315436
7115,15,Jits_Phase_8,0,5,56,103,2676975908
7115,15,Jits_Phase_8,1,1,48,40,2676988908
7115,15,Jits_Phase_8,2,5,80,127,2677055796
7115,15,Jits_Phase_8,3,5,63,98,2677076700
7115,15,Jits_Phase_8,0,5,56,103,2677775828
7115,15,Jits_Phase_8,1,1,48,31,2677817860
7115,15,Jits_Phase_8,2,5,63,98,2677886580
7115,15,Jits_Phase_8,3,5,80,127,2677889872
7115,15,Jits_Phase_8,0,5,56,103,2678616380
7115,15,Jits_Phase_8,1,1,48,36,2678631480
7115,15,Jits_Phase_8,2,5,80,127,2678646272
7115,15,Jits_Phase_8,3,5,63,98,2678665608
7115,15,Jits_Phase_8,0,1,48,43,2679394096
7115,15,Jits_Phase_8,1,5,63,98,2679405808
7115,15,Jits_Phase_8,2,5,56,103,2679416300
7115,15,Jits_Phase_8,3,5,80,127,2679426572
7115,15,Jits_Phase_8,0,1,48,37,2680121680
7115,15,Jits_Phase_8,1,5,80,127,2680195440
7115,15,Jits_Phase_8,2,5,56,103,2680245624
7115,15,Jits_Phase_8,3,5,63,98,2680285636
7115,15,Jits_Phase_8,0,5,80,127,2681015580
7115,15,Jits_Phase_8,1,5,63,98,2681036336
7115,15,Jits_Phase_8,2,1,48,32,2681058712
7115,15,Jits_Phase_8,3,5,56,103,2681086528
7115,15,Jits_Phase_8,0,5,80,127,2681825540
7115,15,Jits_Phase_8,1,5,56,103,2681856488
7115,15,Jits_Phase_8,2,1,48,38,2681887624
7115,15,Jits_Phase_8,3,5,63,98,2681925888
7115,15,Jits_Phase_8,0,5,56,103,2682675536
7115,15,Jits_Phase_8,1,5,80,127,2682685808
7115,15,Jits_Phase_8,2,1,48,43,2682705940
7115,15,Jits_Phase_8,3,5,63,98,2682725740
7115,15,Jits_Phase_8,0,5,56,103,2683386504
7115,15,Jits_Phase_8,1,5,63,98,2683405548
7115,15,Jits_Phase_8,2,5,80,127,2683476520
7115,15,Jits_Phase_8,3,1,48,43,2683526540
7115,15,Jits_Phase_8,0,5,63,98,2684205384
7115,15,Jits_Phase_8,1,5,80,127,2684265800
7115,15,Jits_Phase_8,2,1,48,51,2684267284
7115,15,Jits_Phase_8,3,5,56,103,2684286472
7115,15,Jits_Phase_8,0,5,80,127,2684996096
7115,15,Jits_Phase_8,1,5,56,103,2685025624
7115,15,Jits_Phase_8,2,5,63,98,2685056348
7115,15,Jits_Phase_8,3,1,48,35,2685067336
7115,15,Jits_Phase_8,0,5,56,103,2685795640
7115,15,Jits_Phase_8,1,5,63,98,2685856256
7115,15,Jits_Phase_8,2,1,48,48,2685872628
7115,15,Jits_Phase_8,3,5,80,127,2685915444
7115,15,Jits_Phase_8,0,5,80,127,2686615784
7115,15,Jits_Phase_8,1,1,48,34,2686618600
7115,15,Jits_Phase_8,2,5,56,103,2686636684
7115,15,Jits_Phase_8,3,5,63,98,2686706288
7115,15,Jits_Phase_8,0,5,80,127,2687415708
7115,15,Jits_Phase_8,1,5,63,98,2687436168
7115,15,Jits_Phase_8,2,1,48,37,2687440036
7115,15,Jits_Phase_8,3,5,56,103,2687465984
7115,15,Jits_Phase_8,0,1,48,32,2688204824
7115,15,Jits_Phase_8,1,5,80,127,2688206400
7115,15,Jits_Phase_8,2,5,63,98,2688225516
7115,15,Jits_Phase_8,3,5,56,103,2688286276
7115,15,Jits_Phase_8,0,5,80,127,2689006084
7115,15,Jits_Phase_8,1,1,48,42,2689021708
7115,15,Jits_Phase_8,2,5,56,103,2689106276
7115,15,Jits_Phase_8,3,5,63,98,2689136084
7115,15,Jits_Phase_8,0,5,63,98,2689795448
7115,15,Jits_Phase_8,1,5,80,127,2689845600
7115,15,Jits_Phase_8,2,5,56,103,2689866208
7115,15,Jits_Phase_8,3,1,48,44,2689913368
7115,15,Jits_Phase_8,0,5,80,127,2690636280
7115,15,Jits_Phase_8,1,5,56,103,2690665952
7115,15,Jits_Phase_8,2,5,63,98,2690669168
7115,15,Jits_Phase_8,3,1,48,40,2690745416
7115,15,Jits_Phase_8,0,5,63,98,2691486092
7115,15,Jits_Phase_8,1,1,48,41,2691491600
7115,15,Jits_Phase_8,2,5,56,103,2691526248
7115,15,Jits_Phase_8,3,5,80,127,2691545364
7115,15,Jits_Phase_8,0,5,80,127,2692246068
7115,15,Jits_Phase_8,1,1,48,42,2692278704
7115,15,Jits_Phase_8,2,5,63,98,2692325708
7115,15,Jits_Phase_8,3,5,56,103,2692365648
7115,15,Jits_Phase_8,0,5,63,98,2693076336
7115,15,Jits_Phase_8,1,1,48,36,2693079228
7115,15,Jits_Phase_8,2,5,80,127,2693156348
7115,15,Jits_Phase_8,3,5,56,103,2693175544
7115,15,Jits_Phase_8,0,1,48,45,2693843540
7115,15,Jits_Phase_8,1,5,56,103,2693926288
7115,15,Jits_Phase_8,2,5,63,98,2693935440
7115,15,Jits_Phase_8,3,5,80,127,2693976556
7115,15,Jits_Phase_8,0,5,56,103,2694646312
7115,15,Jits_Phase_8,1,1,48,42,2694649156
7115,15,Jits_Phase_8,2,5,80,127,2694650492
7115,15,Jits_Phase_8,3,5,63,98,2694786340
7115,15,Jits_Phase_8,0,5,56,103,2695435512
7115,15,Jits_Phase_8,1,1,48,41,2695442968
7115,15,Jits_Phase_8,2,5,63,98,2695525892
7115,15,Jits_Phase_8,3,5,80,127,2695596600
7115,15,Jits_Phase_8,0,1,48,42,2696197344
7115,15,Jits_Phase_8,1,5,63,98,2696316200
7115,15,Jits_Phase_8,2,5,80,127,2696319492
7115,15,Jits_Phase_8,3,5,56,103,2696375620
7115,15,Jits_Phase_8,0,1,48,37,2696976716
7115,15,Jits_Phase_8,1,5,80,127,2697156188
7115,15,Jits_Phase_8,2,5,56,103,2697176496
7115,15,Jits_Phase_8,3,5,63,98,2697185648
7115,15,Jits_Phase_8,0,5,56,103,2697865540
7115,15,Jits_Phase_8,1,5,63,98,2697876032
7115,15,Jits_Phase_8,2,1,48,30,2697882216
7115,15,Jits_Phase_8,3,5,80,127,2697945332
7115,15,Jits_Phase_8,4,1,48,22,2697961164
7115,15,Jits_Phase_8,0,5,80,127,2698666312
7115,15,Jits_Phase_8,1,5,56,103,2698715616
7115,15,Jits_Phase_8,2,1,48,38,2698746084
7115,15,Jits_Phase_8,3,5,63,98,2698765736
7115,15,Jits_Phase_8,0,5,56,103,2699546176
7115,15,Jits_Phase_8,1,1,48,30,2699553480
7115,15,Jits_Phase_8,2,5,63,98,2699556068
7115,15,Jits_Phase_8,3,5,80,127,2699596252
7115,15,Jits_Phase_8,0,5,56,103,2700286316
7115,15,Jits_Phase_8,1,5,63,98,2700326332
7115,15,Jits_Phase_8,2,1,48,40,2700350824
7115,15,Jits_Phase_8,3,5,80,127,2700376400
7115,15,Jits_Phase_8,0,5,80,127,2701046232
7115,15,Jits_Phase_8,1,1,48,37,2701088460
7115,15,Jits_Phase_8,2,5,56,103,2701096280
7115,15,Jits_Phase_8,3,5,63,98,2701115716
7115,15,Jits_Phase_8,0,5,80,127,2701856264
7115,15,Jits_Phase_8,1,1,48,42,2701876120
7115,15,Jits_Phase_8,2,5,63,98,2701915404
7115,15,Jits_Phase_8,3,5,56,103,2701996452
7115,15,Jits_Phase_8,0,5,80,127,2702636260
7115,15,Jits_Phase_8,1,5,56,103,2702676296
7115,15,Jits_Phase_8,2,5,63,98,2702695932
7115,15,Jits_Phase_8,3,1,48,35,2702700468
7115,15,Jits_Phase_8,0,1,48,37,2703440504
7115,15,Jits_Phase_8,1,5,56,103,2703486240
7115,15,Jits_Phase_8,2,5,80,127,2703495392
7115,15,Jits_Phase_8,3,5,63,98,2703535536
7115,15,Jits_Phase_8,0,1,48,37,2704295108
7115,15,Jits_Phase_8,1,5,56,103,2704356116
7115,15,Jits_Phase_8,2,5,63,98,2704395664
7115,15,Jits_Phase_8,3,5,80,127,2704399028
7115,15,Jits_Phase_8,0,5,63,98,2705026488
7115,15,Jits_Phase_8,1,5,80,127,2705066352
7115,15,Jits_Phase_8,2,1,48,29,2705109920
7115,15,Jits_Phase_8,3,5,56,103,2705136100
7115,15,Jits_Phase_8,0,5,63,98,2705795308
7115,15,Jits_Phase_8,1,5,56,103,2705876228
7115,15,Jits_Phase_8,2,1,48,29,2705885644
7115,15,Jits_Phase_8,3,5,80,127,2705935932
7115,15,Jits_Phase_8,0,5,80,127,2706605476
7115,15,Jits_Phase_8,1,5,63,98,2706655532
7115,15,Jits_Phase_8,2,5,56,103,2706686252
7115,15,Jits_Phase_8,3,1,48,39,2706723296
7115,15,Jits_Phase_8,0,5,56,103,2707395952
7115,15,Jits_Phase_8,1,5,63,98,2707446232
7115,15,Jits_Phase_8,2,5,80,127,2707456352
7115,15,Jits_Phase_8,3,1,48,33,2707470560
7115,15,Jits_Phase_8,0,5,56,103,2708205984
7115,15,Jits_Phase_8,1,1,48,26,2708218020
7115,15,Jits_Phase_8,2,5,63,98,2708315972
7115,15,Jits_Phase_8,3,5,80,127,2708335912
7115,15,Jits_Phase_8,0,1,48,38,2708979276
7115,15,Jits_Phase_8,1,5,63,98,2709005900
7115,15,Jits_Phase_8,2,5,80,127,2709056276
7115,15,Jits_Phase_8,3,5,56,103,2709145944
7115,15,Jits_Phase_8,0,5,63,98,2709796148
7115,15,Jits_Phase_8,1,5,80,127,2709825924
7115,15,Jits_Phase_8,2,1,48,44,2709838036
7115,15,Jits_Phase_8,3,5,56,103,2709916048
7115,15,Jits_Phase_8,0,5,63,98,2710595928
7115,15,Jits_Phase_8,1,5,56,103,2710606196
7115,15,Jits_Phase_8,2,1,48,27,2710683548
7115,15,Jits_Phase_8,3,5,80,127,2710705536
7115,15,Jits_Phase_8,0,1,48,38,2711443828
7115,15,Jits_Phase_8,1,5,63,98,2711496140
7115,15,Jits_Phase_8,2,5,80,127,2711525964
7115,15,Jits_Phase_8,3,5,56,103,2711555404
7115,15,Jits_Phase_8,0,1,48,40,2712291304
7115,15,Jits_Phase_8,1,5,80,127,2712316212
7115,15,Jits_Phase_8,2,5,63,98,2712325364
7115,15,Jits_Phase_8,3,5,56,103,2712356084
7115,15,Jits_Phase_8,0,5,80,127,2713015668
7115,15,Jits_Phase_8,1,5,63,98,2713036276
7115,15,Jits_Phase_8,2,5,56,103,2713086180
7115,15,Jits_Phase_8,3,1,48,32,2713146784
7115,15,Jits_Phase_8,0,5,63,98,2713846008
7115,15,Jits_Phase_8,1,1,48,37,2713884568
7115,15,Jits_Phase_8,2,5,80,127,2713905592
7115,15,Jits_Phase_8,3,5,56,103,2713926124
7115,15,Jits_Phase_8,0,5,63,98,2714605980
7115,15,Jits_Phase_8,1,5,56,103,2714656256
7115,15,Jits_Phase_8,2,5,80,127,2714666304
7115,15,Jits_Phase_8,3,1,48,43,2714681056
7115,15,Jits_Phase_8,0,5,56,103,2715436452
7115,15,Jits_Phase_8,1,5,80,127,2715445700
7115,15,Jits_Phase_8,2,1,48,24,2715509720
7115,15,Jits_Phase_8,3,5,63,98,2715545940
7115,15,Jits_Phase_8,0,5,80,127,2716196144
7115,15,Jits_Phase_8,1,5,63,98,2716205444
7115,15,Jits_Phase_8,2,1,48,36,2716291956
7115,15,Jits_Phase_8,3,5,56,103,2716355824
7115,15,Jits_Phase_8,0,5,63,98,2717006200
7115,15,Jits_Phase_8,1,5,80,127,2717045992
7115,15,Jits_Phase_8,2,1,48,36,2717081392
7115,15,Jits_Phase_8,3,5,56,103,2717126000
7115,15,Jits_Phase_8,0,5,56,103,2717756056
7115,15,Jits_Phase_8,1,5,80,127,2717856084
7115,15,Jits_Phase_8,2,1,48,34,2717874056
7115,15,Jits_Phase_8,3,5,63,98,2717875416
7115,15,Jits_Phase_8,0,5,80,127,2718575992
7115,15,Jits_Phase_8,1,5,56,103,2718586188
7115,15,Jits_Phase_8,2,1,48,35,2718618972
7115,15,Jits_Phase_8,3,5,63,98,2718676312
7115,15,Jits_Phase_8,0,1,48,38,2719368248
7115,15,Jits_Phase_8,1,5,56,103,2719375912
7115,15,Jits_Phase_8,2,5,63,98,2719396148
7115,15,Jits_Phase_8,3,5,80,127,2719476076
7115,15,Jits_Phase_8,0,1,48,31,2720101316
7115,15,Jits_Phase_8,1,5,63,98,2720126452
7115,15,Jits_Phase_8,2,5,56,103,2720216420
7115,15,Jits_Phase_8,3,5,80,127,2720219708
7115,15,Jits_Phase_8,0,1,48,39,2720916208
7115,15,Jits_Phase_8,1,5,56,103,2720955944
7115,15,Jits_Phase_8,2,5,80,127,2721016172
7115,15,Jits_Phase_8,3,5,63,98,2721026368
7115,15,Jits_Phase_8,0,1,48,38,2721717688
7115,15,Jits_Phase_8,1,5,80,127,2721805824
7115,15,Jits_Phase_8,2,5,56,103,2721816004
7115,15,Jits_Phase_8,3,5,63,98,2721819068
7115,15,Jits_Phase_8,0,1,48,39,2722529576
7115,15,Jits_Phase_8,1,5,56,103,2722565492
7115,15,Jits_Phase_8,2,5,80,127,2722576208
7115,15,Jits_Phase_8,3,5,63,98,2722596296
7115,15,Jits_Phase_8,0,1,48,43,2723328804
7115,15,Jits_Phase_8,1,5,63,98,2723335804
7115,15,Jits_Phase_8,2,5,80,127,2723395924
7115,15,Jits_Phase_8,3,5,56,103,2723446256
7115,15,Jits_Phase_8,0,1,48,42,2724124976
7115,15,Jits_Phase_8,1,5,63,98,2724216272
7115,15,Jits_Phase_8,2,5,56,103,2724226380
7115,15,Jits_Phase_8,3,5,80,127,2724275608
7115,15,Jits_Phase_8,0,5,63,98,2724915652
7115,15,Jits_Phase_8,1,5,80,127,2724936036
7115,15,Jits_Phase_8,2,5,56,103,2724946232
7115,15,Jits_Phase_8,3,1,48,33,2725061640
7115,15,Jits_Phase_8,0,5,63,98,2725716444
7115,15,Jits_Phase_8,1,5,80,127,2725719808
7115,15,Jits_Phase_8,2,5,56,103,2725756304
7115,15,Jits_Phase_8,3,1,48,43,2725852908
7115,15,Jits_Phase_8,0,1,48,44,2726567400
7115,15,Jits_Phase_8,1,5,63,98,2726585932
7115,15,Jits_Phase_8,2,5,80,127,2726616580
7115,15,Jits_Phase_8,3,5,56,103,2726625656
7115,15,Jits_Phase_8,0,5,56,103,2727336248
7115,15,Jits_Phase_8,1,5,80,127,2727366000
7115,15,Jits_Phase_8,2,1,48,51,2727376092
7115,15,Jits_Phase_8,3,5,63,98,2727395816
7115,15,Jits_Phase_8,0,1,48,34,2728226044
7115,15,Jits_Phase_8,1,5,63,98,2728236328
7115,15,Jits_Phase_8,2,5,56,103,2728276512
7115,15,Jits_Phase_8,3,5,80,127,2728279504
7115,15,Jits_Phase_8,0,5,80,127,2728935844
7115,15,Jits_Phase_8,1,5,56,103,2729015816
7115,15,Jits_Phase_8,2,1,48,40,2729030992
7115,15,Jits_Phase_8,3,5,63,98,2729065860
7115,15,Jits_Phase_8,0,5,80,127,2729716064
7115,15,Jits_Phase_8,1,5,56,103,2729735696
7115,15,Jits_Phase_8,2,5,63,98,2729825780
7115,15,Jits_Phase_8,3,1,48,41,2729840660
7115,15,Jits_Phase_8,0,5,80,127,2730555788
7115,15,Jits_Phase_8,1,1,48,45,2730572160
7115,15,Jits_Phase_8,2,5,63,98,2730595796
7115,15,Jits_Phase_8,3,5,56,103,2730635656
7115,15,Jits_Phase_8,0,1,48,33,2731363232
7115,15,Jits_Phase_8,1,5,63,98,2731365744
7115,15,Jits_Phase_8,2,5,80,127,2731426136
7115,15,Jits_Phase_8,3,5,56,103,2731456916
7115,15,Jits_Phase_8,0,1,48,37,2732139164
7115,15,Jits_Phase_8,1,5,56,103,2732205652
7115,15,Jits_Phase_8,2,5,80,127,2732236000
7115,15,Jits_Phase_8,3,5,63,98,2732326192
7115,15,Jits_Phase_8,0,5,56,103,2733016572
7115,15,Jits_Phase_8,1,1,48,36,2733068020
7115,15,Jits_Phase_8,2,5,80,127,2733125912
7115,15,Jits_Phase_8,3,5,63,98,2733155732
7115,15,Jits_Phase_8,0,5,56,103,2733866624
7115,15,Jits_Phase_8,1,1,48,40,2733882800
7115,15,Jits_Phase_8,2,5,63,98,2733925764
7115,15,Jits_Phase_8,3,5,80,127,2733955660
7115,15,Jits_Phase_8,0,5,56,103,2734636508
7115,15,Jits_Phase_8,1,1,48,43,2734667076
7115,15,Jits_Phase_8,2,5,63,98,2734705984
7115,15,Jits_Phase_8,3,5,80,127,2734725692
7115,15,Jits_Phase_8,0,5,80,127,2735405640
7115,15,Jits_Phase_8,1,5,63,98,2735425800
7115,15,Jits_Phase_8,2,5,56,103,2735476000
7115,15,Jits_Phase_8,3,1,48,39,2735509304
7115,15,Jits_Phase_8,0,5,63,98,2736225636
7115,15,Jits_Phase_8,1,5,80,127,2736235836
7115,15,Jits_Phase_8,2,5,56,103,2736286184
7115,15,Jits_Phase_8,3,1,48,47,2736291920
7115,15,Jits_Phase_8,0,5,63,98,2737026588
7115,15,Jits_Phase_8,1,1,48,47,2737043804
7115,15,Jits_Phase_8,2,5,80,127,2737096264
7115,15,Jits_Phase_8,3,5,56,103,2737115528
7115,15,Jits_Phase_8,0,5,63,98,2737855792
7115,15,Jits_Phase_8,1,1,48,47,2737858632
7115,15,Jits_Phase_8,2,5,80,127,2737860196
7115,15,Jits_Phase_8,3,5,56,103,2737925464
7115,15,Jits_Phase_8,0,5,80,127,2738605644
7115,15,Jits_Phase_8,1,5,56,103,2738625808
7115,15,Jits_Phase_8,2,5,63,98,2738636004
7115,15,Jits_Phase_8,3,1,48,48,2738650052
7115,15,Jits_Phase_8,0,1,48,42,2739348812
7115,15,Jits_Phase_8,1,5,56,103,2739425636
7115,15,Jits_Phase_8,2,5,63,98,2739515776
7115,15,Jits_Phase_8,3,5,80,127,2739519064
7115,15,Jits_Phase_8,0,1,48,44,2740136424
7115,15,Jits_Phase_8,1,5,80,127,2740195564
7115,15,Jits_Phase_8,2,5,56,103,2740205908
7115,15,Jits_Phase_8,3,5,63,98,2740226516
7115,15,Jits_Phase_8,0,5,63,98,2740995544
7115,15,Jits_Phase_8,1,1,48,41,2741005184
7115,15,Jits_Phase_8,2,5,80,127,2741055804
7115,15,Jits_Phase_8,3,5,56,103,2741066000
7115,15,Jits_Phase_8,0,1,48,39,2741824212
7115,15,Jits_Phase_8,1,5,63,98,2741865892
7115,15,Jits_Phase_8,2,5,80,127,2741895420
7115,15,Jits_Phase_8,3,5,56,103,2741935488
7115,15,Jits_Phase_8,0,1,48,43,2742633716
7115,15,Jits_Phase_8,1,5,56,103,2742656360
7115,15,Jits_Phase_8,2,5,80,127,2742665584
7115,15,Jits_Phase_8,3,5,63,98,2742705372
7115,15,Jits_Phase_8,0,1,48,50,2743371948
7115,15,Jits_Phase_8,1,5,80,127,2743416036
7115,15,Jits_Phase_8,2,5,56,103,2743496040
7115,15,Jits_Phase_8,3,5,63,98,2743506684
7115,15,Jits_Phase_8,0,1,48,34,2744242656
7115,15,Jits_Phase_8,1,5,80,127,2744266068
7115,15,Jits_Phase_8,2,5,56,103,2744345996
7115,15,Jits_Phase_8,3,5,63,98,2744356564
7115,15,Jits_Phase_8,0,1,48,46,2744986540
7115,15,Jits_Phase_8,1,5,80,127,2745105904
7115,15,Jits_Phase_8,2,5,56,103,2745155908
7115,15,Jits_Phase_8,3,5,63,98,2745206552
7115,15,Jits_Phase_8,0,1,48,43,2745902508
7115,15,Jits_Phase_8,1,5,56,103,2746045776
7115,15,Jits_Phase_8,2,5,63,98,2746048916
7115,15,Jits_Phase_8,3,5,80,127,2746095904
7115,15,Jits_Phase_8,0,1,48,32,2746805888
7115,15,Jits_Phase_8,1,5,56,103,2746866000
7115,15,Jits_Phase_8,2,5,63,98,2746895604
7115,15,Jits_Phase_8,3,5,80,127,2746906008
7115,15,Jits_Phase_8,0,5,63,98,2747575644
7115,15,Jits_Phase_8,1,5,56,103,2747646596
7115,15,Jits_Phase_8,2,1,48,46,2747673084
7115,15,Jits_Phase_8,3,5,80,127,2747695396
7115,15,Jits_Phase_8,0,5,63,98,2748406268
7115,15,Jits_Phase_8,1,5,56,103,2748416464
7115,15,Jits_Phase_8,2,5,80,127,2748419452
7115,15,Jits_Phase_8,3,1,48,44,2748438160
7115,15,Jits_Phase_8,0,5,80,127,2749155592
7115,15,Jits_Phase_8,1,5,56,103,2749216208
7115,15,Jits_Phase_8,2,1,48,43,2749237932
7115,15,Jits_Phase_8,3,5,63,98,2749306284
7115,15,Jits_Phase_8,0,5,80,127,2749955368
7115,15,Jits_Phase_8,1,1,48,47,2750027584
7115,15,Jits_Phase_8,2,5,56,103,2750055784
7115,15,Jits_Phase_8,3,5,63,98,2750095648
7115,15,Jits_Phase_8,0,1,48,38,2750800300
7115,15,Jits_Phase_8,1,5,56,103,2750806252
7115,15,Jits_Phase_8,2,5,63,98,2750825812
7115,15,Jits_Phase_8,3,5,80,127,2750865676
7115,15,Jits_Phase_8,0,1,48,39,2751520240
7115,15,Jits_Phase_8,1,5,63,98,2751576416
7115,15,Jits_Phase_8,2,5,56,103,2751595900
7115,15,Jits_Phase_8,3,5,80,127,2751696504
7115,15,Jits_Phase_8,0,1,48,38,2752294832
7115,15,Jits_Phase_8,1,5,63,98,2752366056
7115,15,Jits_Phase_8,2,5,80,127,2752475580
7115,15,Jits_Phase_8,3,5,56,103,2752506304
7115,15,Jits_Phase_8,0,1,48,38,2753128400
7115,15,Jits_Phase_8,1,5,56,103,2753186268
7115,15,Jits_Phase_8,2,5,63,98,2753215796
7115,15,Jits_Phase_8,3,5,80,127,2753266280
7115,15,Jits_Phase_8,0,1,48,20,2753926292
7115,15,Jits_Phase_8,1,5,63,98,2753956432
7115,15,Jits_Phase_8,2,5,56,103,2753985884
7115,15,Jits_Phase_8,3,5,80,127,2754036068
7115,15,Jits_Phase_8,0,1,48,38,2754700780
7115,15,Jits_Phase_8,1,5,56,103,2754785628
7115,15,Jits_Phase_8,2,5,63,98,2754806224
7115,15,Jits_Phase_8,3,5,80,127,2754886116
7115,15,Jits_Phase_8,0,1,48,26,2755416636
7115,15,Jits_Phase_8,1,5,63,98,2755555628
7115,15,Jits_Phase_8,2,5,56,103,2755616316
7115,15,Jits_Phase_8,3,5,80,127,2755645868
7115,15,Jits_Phase_8,0,1,48,44,2756273856
7115,15,Jits_Phase_8,1,5,56,103,2756396364
7115,15,Jits_Phase_8,2,5,80,127,2756455780
7115,15,Jits_Phase_8,3,5,63,98,2756495644
7115,15,Jits_Phase_8,0,5,63,98,2757175764
7115,15,Jits_Phase_8,1,1,48,40,2757187276
7115,15,Jits_Phase_8,2,5,56,103,2757236152
7115,15,Jits_Phase_8,3,5,80,127,2757305740
7115,15,Jits_Phase_8,0,1,48,44,2758028836
7115,15,Jits_Phase_8,1,5,56,103,2758056436
7115,15,Jits_Phase_8,2,5,63,98,2758065584
7115,15,Jits_Phase_8,3,5,80,127,2758068944
7115,15,Jits_Phase_8,0,1,48,40,2758770592
7115,15,Jits_Phase_8,1,5,63,98,2758795576
7115,15,Jits_Phase_8,2,5,56,103,2758856264
7115,15,Jits_Phase_8,3,5,80,127,2758859404
7115,15,Jits_Phase_8,0,1,48,38,2759480440
7115,15,Jits_Phase_8,1,5,63,98,2759575920
7115,15,Jits_Phase_8,2,5,80,127,2759605656
7115,15,Jits_Phase_8,3,5,56,103,2759626112
7115,15,Jits_Phase_8,0,5,56,103,2760306000
7115,15,Jits_Phase_8,1,5,63,98,2760356204
7115,15,Jits_Phase_8,2,1,48,45,2760365548
7115,15,Jits_Phase_8,3,5,80,127,2760436212
7115,15,Jits_Phase_8,0,5,80,127,2761005392
7115,15,Jits_Phase_8,1,5,63,98,2761046376
7115,15,Jits_Phase_8,2,5,56,103,2761065716
7115,15,Jits_Phase_8,3,1,48,42,2761211828
7115,15,Jits_Phase_8,0,5,56,103,2761875960
7115,15,Jits_Phase_8,1,5,80,127,2761886080
7115,15,Jits_Phase_8,2,5,63,98,2761905568
7115,15,Jits_Phase_8,0,1,48,24,2762367704
7115,15,Jits_Phase_8,1,5,56,103,2762656268
7115,15,Jits_Phase_8,2,5,63,98,2762706248
7115,15,Jits_Phase_8,3,5,80,127,2762736072
7115,15,Jits_Phase_8,0,5,56,103,2763405560
7115,15,Jits_Phase_8,1,5,63,98,2763416204
7115,15,Jits_Phase_8,2,5,80,127,2763466328
7115,15,Jits_Phase_8,3,1,48,39,2763560092
7115,15,Jits_Phase_8,0,5,56,103,2764196256
7115,15,Jits_Phase_8,1,5,80,127,2764199320
7115,15,Jits_Phase_8,2,1,48,33,2764331224
7115,15,Jits_Phase_8,3,5,63,98,2764356224
7115,15,Jits_Phase_8,0,5,63,98,2765016320
7115,15,Jits_Phase_8,1,5,56,103,2765086152
7115,15,Jits_Phase_8,2,5,80,127,2765126112
7115,15,Jits_Phase_8,3,1,48,41,2765137104
7115,15,Jits_Phase_8,0,5,63,98,2765856236
7115,15,Jits_Phase_8,1,5,56,103,2765946244
7115,15,Jits_Phase_8,2,5,80,127,2765949236
7115,15,Jits_Phase_8,3,1,48,41,2766081724
7115,15,Jits_Phase_8,0,5,56,103,2766636608
7115,15,Jits_Phase_8,1,5,63,98,2766725396
7115,15,Jits_Phase_8,2,5,80,127,2766735592
7115,15,Jits_Phase_8,3,1,48,36,2766896132
7115,15,Jits_Phase_8,0,5,56,103,2767405368
7115,15,Jits_Phase_8,1,5,63,98,2767455496
7115,15,Jits_Phase_8,2,5,80,127,2767486440
7115,15,Jits_Phase_8,3,1,48,37,2767664292
7115,15,Jits_Phase_8,0,5,63,98,2768286200
7115,15,Jits_Phase_8,1,5,80,127,2768296248
7115,15,Jits_Phase_8,2,5,56,103,2768355816
7115,15,Jits_Phase_8,3,1,48,29,2768405084
7115,15,Jits_Phase_8,0,5,63,98,2769006016
7115,15,Jits_Phase_8,1,5,80,127,2769066332
7115,15,Jits_Phase_8,2,5,56,103,2769106268
7115,15,Jits_Phase_8,3,1,48,40,2769174120
7115,15,Jits_Phase_8,0,1,48,40,2769831796
7115,15,Jits_Phase_8,1,5,56,103,2769906084
7115,15,Jits_Phase_8,2,5,80,127,2769925348
7115,15,Jits_Phase_8,3,5,63,98,2769946088
7115,15,Jits_Phase_8,0,1,48,41,2770558448
7115,15,Jits_Phase_8,1,5,63,98,2770626056
7115,15,Jits_Phase_8,2,5,56,103,2770646368
7115,15,Jits_Phase_8,3,5,80,127,2770686216
7115,15,Jits_Phase_8,0,1,48,41,2771268520
7115,15,Jits_Phase_8,1,5,63,98,2771435912
7115,15,Jits_Phase_8,2,5,80,127,2771465516
7115,15,Jits_Phase_8,3,5,56,103,2771486268
7115,15,Jits_Phase_8,0,1,48,36,2772094508
7115,15,Jits_Phase_8,1,5,80,127,2772206144
7115,15,Jits_Phase_8,2,5,56,103,2772256052
7115,15,Jits_Phase_8,3,5,63,98,2772315492
7115,15,Jits_Phase_8,0,1,48,37,2772903016
7115,15,Jits_Phase_8,1,5,63,98,2772995432
7115,15,Jits_Phase_8,2,5,56,103,2773116216
7115,15,Jits_Phase_8,3,5,80,127,2773146112
7115,15,Jits_Phase_8,0,1,48,35,2773772752
7115,15,Jits_Phase_8,1,5,80,127,2773836196
7115,15,Jits_Phase_8,2,5,63,98,2773855536
7115,15,Jits_Phase_8,3,5,56,103,2773926396
7115,15,Jits_Phase_8,0,1,48,25,2774618992
7115,15,Jits_Phase_8,1,5,63,98,2774656408
7115,15,Jits_Phase_8,2,5,56,103,2774665484
7115,15,Jits_Phase_8,3,5,80,127,2774745484
7115,15,Jits_Phase_8,0,1,48,23,2775464536
7115,15,Jits_Phase_8,1,5,56,103,2775515428
7115,15,Jits_Phase_8,2,5,80,127,2775546376
7115,15,Jits_Phase_8,3,5,63,98,2775555376
7115,15,Jits_Phase_8,0,9999,9999,9999,2640653392
7115,15,Jits_Phase_8,1,9999,9999,9999,2641453112
7115,15,Jits_Phase_8,2,9999,9999,9999,2642253912
7115,15,Jits_Phase_8,3,9999,9999,9999,2643053648
7115,15,Jits_Phase_8,4,9999,9999,9999,2643853432
7115,15,Jits_Phase_8,5,9999,9999,9999,2644653116
7115,15,Jits_Phase_8,6,9999,9999,9999,2645453916
7115,15,Jits_Phase_8,7,9999,9999,9999,2646253692
7115,15,Jits_Phase_8,8,9999,9999,9999,2647053392
7115,15,Jits_Phase_8,9,9999,9999,9999,2647853144
7115,15,Jits_Phase_8,10,9999,9999,9999,2648653912
7115,15,Jits_Phase_8,11,9999,9999,9999,2649453672
7115,15,Jits_Phase_8,12,9999,9999,9999,2650253372
7115,15,Jits_Phase_8,13,9999,9999,9999,2651053140
7115,15,Jits_Phase_8,14,9999,9999,9999,2651853936
7115,15,Jits_Phase_8,15,9999,9999,9999,2652653696
7115,15,Jits_Phase_8,16,9999,9999,9999,2653453436
7115,15,Jits_Phase_8,17,9999,9999,9999,2654253140
7115,15,Jits_Phase_8,18,9999,9999,9999,2655053892
7115,15,Jits_Phase_8,19,9999,9999,9999,2655853668
7115,15,Jits_Phase_8,20,9999,9999,9999,2656653428
7115,15,Jits_Phase_8,21,9999,9999,9999,2657453184
7115,15,Jits_Phase_8,22,9999,9999,9999,2658253916
7115,15,Jits_Phase_8,23,9999,9999,9999,2659053688
7115,15,Jits_Phase_8,24,9999,9999,9999,2659853368
7115,15,Jits_Phase_8,25,9999,9999,9999,2660653124
7115,15,Jits_Phase_8,26,9999,9999,9999,2661453888
7115,15,Jits_Phase_8,27,9999,9999,9999,2662253660
7115,15,Jits_Phase_8,28,9999,9999,9999,2663053432
7115,15,Jits_Phase_8,29,9999,9999,9999,2663853136
7115,15,Jits_Phase_8,30,9999,9999,9999,2664633408
7115,15,Jits_Phase_8,31,9999,9999,9999,2665433168
7115,15,Jits_Phase_8,32,9999,9999,9999,2666233980
7115,15,Jits_Phase_8,33,9999,9999,9999,2667033672
7115,15,Jits_Phase_8,34,9999,9999,9999,2667833468
7115,15,Jits_Phase_8,35,9999,9999,9999,2668633176
7115,15,Jits_Phase_8,36,9999,9999,9999,2669433924
7115,15,Jits_Phase_8,37,9999,9999,9999,2670233696
7115,15,Jits_Phase_8,38,9999,9999,9999,2671033464
7115,15,Jits_Phase_8,39,9999,9999,9999,2671833164
7115,15,Jits_Phase_8,40,9999,9999,9999,2672633912
7115,15,Jits_Phase_8,41,9999,9999,9999,2673433692
7115,15,Jits_Phase_8,42,9999,9999,9999,2674233472
7115,15,Jits_Phase_8,43,9999,9999,9999,2675033160
7115,15,Jits_Phase_8,44,9999,9999,9999,2675833948
7115,15,Jits_Phase_8,45,9999,9999,9999,2676633712
7115,15,Jits_Phase_8,46,9999,9999,9999,2677433412
7115,15,Jits_Phase_8,47,9999,9999,9999,2678233180
7115,15,Jits_Phase_8,48,9999,9999,9999,2679053404
7115,15,Jits_Phase_8,49,9999,9999,9999,2679853172
7115,15,Jits_Phase_8,50,9999,9999,9999,2680653920
7115,15,Jits_Phase_8,51,9999,9999,9999,2681453676
7115,15,Jits_Phase_8,52,9999,9999,9999,2682253376
7115,15,Jits_Phase_8,53,9999,9999,9999,2683053156
7115,15,Jits_Phase_8,54,9999,9999,9999,2683853896
7115,15,Jits_Phase_8,55,9999,9999,9999,2684653668
7115,15,Jits_Phase_8,56,9999,9999,9999,2685453424
7115,15,Jits_Phase_8,57,9999,9999,9999,2686253120
7115,15,Jits_Phase_8,58,9999,9999,9999,2687053884
7115,15,Jits_Phase_8,59,9999,9999,9999,2687853656
7115,15,Jits_Phase_8,60,9999,9999,9999,2688653424
7115,15,Jits_Phase_8,61,9999,9999,9999,2689453180
7115,15,Jits_Phase_8,62,9999,9999,9999,2690253920
7115,15,Jits_Phase_8,63,9999,9999,9999,2691053668
7115,15,Jits_Phase_8,64,9999,9999,9999,2691893328
7115,15,Jits_Phase_8,65,9999,9999,9999,2692694132
7115,15,Jits_Phase_8,66,9999,9999,9999,2693504100
7115,15,Jits_Phase_8,67,9999,9999,9999,2694314104
7115,15,Jits_Phase_8,68,9999,9999,9999,2695113848
7115,15,Jits_Phase_8,69,9999,9999,9999,2695913548
7115,15,Jits_Phase_8,70,9999,9999,9999,2696713312
7115,15,Jits_Phase_8,71,9999,9999,9999,2697514052
7115,15,Jits_Phase_8,72,9999,9999,9999,2698313800
7115,15,Jits_Phase_8,73,9999,9999,9999,2699113552
7115,15,Jits_Phase_8,74,9999,9999,9999,2699913332
7115,15,Jits_Phase_8,75,9999,9999,9999,2700714080
7115,15,Jits_Phase_8,76,9999,9999,9999,2701513848
7115,15,Jits_Phase_8,77,9999,9999,9999,2702313548
7115,15,Jits_Phase_8,78,9999,9999,9999,2703113312
7115,15,Jits_Phase_8,79,9999,9999,9999,2703914056
7115,15,Jits_Phase_8,80,9999,9999,9999,2704713832
7115,15,Jits_Phase_8,81,9999,9999,9999,2705473656
7115,15,Jits_Phase_8,82,9999,9999,9999,2706273340
7115,15,Jits_Phase_8,83,9999,9999,9999,2707073092
7115,15,Jits_Phase_8,84,9999,9999,9999,2707873908
7115,15,Jits_Phase_8,85,9999,9999,9999,2708673604
7115,15,Jits_Phase_8,86,9999,9999,9999,2709473376
7115,15,Jits_Phase_8,87,9999,9999,9999,2710273128
7115,15,Jits_Phase_8,88,9999,9999,9999,2711073852
7115,15,Jits_Phase_8,89,9999,9999,9999,2711873644
7115,15,Jits_Phase_8,90,9999,9999,9999,2712673340
7115,15,Jits_Phase_8,91,9999,9999,9999,2713473096
7115,15,Jits_Phase_8,92,9999,9999,9999,2714273916
7115,15,Jits_Phase_8,93,9999,9999,9999,2715073596
7115,15,Jits_Phase_8,94,9999,9999,9999,2715873356
7115,15,Jits_Phase_8,95,9999,9999,9999,2716673124
7115,15,Jits_Phase_8,96,9999,9999,9999,2717473868
7115,15,Jits_Phase_8,97,9999,9999,9999,2718193764
7115,15,Jits_Phase_8,98,9999,9999,9999,2718993468
7115,15,Jits_Phase_8,99,9999,9999,9999,2719793272
7115,15,Jits_Phase_8,100,9999,9999,9999,2720593992
7115,15,Jits_Phase_8,101,9999,9999,9999,2721393752
7115,15,Jits_Phase_8,102,9999,9999,9999,2722193500
7115,15,Jits_Phase_8,103,9999,9999,9999,2722993260
7115,15,Jits_Phase_8,104,9999,9999,9999,2723793988
7115,15,Jits_Phase_8,105,9999,9999,9999,2724593752
7115,15,Jits_Phase_8,106,9999,9999,9999,2725393500
7115,15,Jits_Phase_8,107,9999,9999,9999,2726193264
7115,15,Jits_Phase_8,108,9999,9999,9999,2726993996
7115,15,Jits_Phase_8,109,9999,9999,9999,2727793748
7115,15,Jits_Phase_8,110,9999,9999,9999,2728593520
7115,15,Jits_Phase_8,111,9999,9999,9999,2729393280
7115,15,Jits_Phase_8,112,9999,9999,9999,2730194016
7115,15,Jits_Phase_8,113,9999,9999,9999,2730993788
7115,15,Jits_Phase_8,114,9999,9999,9999,2731873372
7115,15,Jits_Phase_8,115,9999,9999,9999,2732673124
7115,15,Jits_Phase_8,116,9999,9999,9999,2733473860
7115,15,Jits_Phase_8,117,9999,9999,9999,2734273640
7115,15,Jits_Phase_8,118,9999,9999,9999,2735073340
7115,15,Jits_Phase_8,119,9999,9999,9999,2735873080
7115,15,Jits_Phase_8,120,9999,9999,9999,2736673896
7115,15,Jits_Phase_8,121,9999,9999,9999,2737473608
7115,15,Jits_Phase_8,122,9999,9999,9999,2738273356
7115,15,Jits_Phase_8,123,9999,9999,9999,2739073108
7115,15,Jits_Phase_8,124,9999,9999,9999,2739873848
7115,15,Jits_Phase_8,125,9999,9999,9999,2740673596
7115,15,Jits_Phase_8,126,9999,9999,9999,2741473348
7115,15,Jits_Phase_8,127,9999,9999,9999,2742273108
7115,15,Jits_Phase_8,128,9999,9999,9999,2743073912
7115,15,Jits_Phase_8,129,9999,9999,9999,2743873624
7115,15,Jits_Phase_8,130,9999,9999,9999,2744673388
7115,15,Jits_Phase_8,131,9999,9999,9999,2745633920
7115,15,Jits_Phase_8,132,9999,9999,9999,2746433624
7115,15,Jits_Phase_8,133,9999,9999,9999,2747233392
7115,15,Jits_Phase_8,134,9999,9999,9999,2748033148
7115,15,Jits_Phase_8,135,9999,9999,9999,2748833868
7115,15,Jits_Phase_8,136,9999,9999,9999,2749633628
7115,15,Jits_Phase_8,137,9999,9999,9999,2750433400
7115,15,Jits_Phase_8,138,9999,9999,9999,2751233096
7115,15,Jits_Phase_8,139,9999,9999,9999,2752033900
7115,15,Jits_Phase_8,140,9999,9999,9999,2752833608
7115,15,Jits_Phase_8,141,9999,9999,9999,2753633368
7115,15,Jits_Phase_8,142,9999,9999,9999,2754433120
7115,15,Jits_Phase_8,143,9999,9999,9999,2755233848
7115,15,Jits_Phase_8,144,9999,9999,9999,2756033600
7115,15,Jits_Phase_8,145,9999,9999,9999,2756833336
7115,15,Jits_Phase_8,146,9999,9999,9999,2757633100
7115,15,Jits_Phase_8,147,9999,9999,9999,2758433900
7115,15,Jits_Phase_8,148,9999,9999,9999,2759233600
7115,15,Jits_Phase_8,149,9999,9999,9999,2760033352
7115,15,Jits_Phase_8,150,9999,9999,9999,2760673360
7115,15,Jits_Phase_8,151,9999,9999,9999,2761473128
7115,15,Jits_Phase_8,152,9999,9999,9999,2762273900
7115,15,Jits_Phase_8,153,9999,9999,9999,2763073640
7115,15,Jits_Phase_8,154,9999,9999,9999,2763873396
7115,15,Jits_Phase_8,155,9999,9999,9999,2764673080
7115,15,Jits_Phase_8,156,9999,9999,9999,2765473900
7115,15,Jits_Phase_8,157,9999,9999,9999,2766273652
7115,15,Jits_Phase_8,158,9999,9999,9999,2767073340
7115,15,Jits_Phase_8,159,9999,9999,9999,2767873112
7115,15,Jits_Phase_8,160,9999,9999,9999,2768673860
7115,15,Jits_Phase_8,161,9999,9999,9999,2769473632
7115,15,Jits_Phase_8,162,9999,9999,9999,2770273396
7115,15,Jits_Phase_8,163,9999,9999,9999,2771073080
7115,15,Jits_Phase_8,164,9999,9999,9999,2771873884
7115,15,Jits_Phase_8,165,9999,9999,9999,2772673636
7115,15,Jits_Phase_8,166,9999,9999,9999,2773473396
7115,15,Jits_Phase_8,167,9999,9999,9999,2774273080
7115,15,Jits_Phase_8,168,9999,9999,9999,2775073888
7115,15,Jits_Phase_8,169,9999,9999,9999,2775873604
7116,16,Jits_ISO_5,0,5,56,103,2786415944
7116,16,Jits_ISO_5,1,5,63,98,2786419040
7116,16,Jits_ISO_5,2,5,80,127,2786422236
7116,16,Jits_ISO_5,0,5,56,103,2786915816
7116,16,Jits_ISO_5,1,5,63,98,2786918988
7116,16,Jits_ISO_5,2,5,80,127,2786922032
7116,16,Jits_ISO_5,0,5,56,103,2787416304
7116,16,Jits_ISO_5,1,5,80,127,2787425676
7116,16,Jits_ISO_5,2,5,63,98,2787446056
7116,16,Jits_ISO_5,0,5,63,98,2787865824
7116,16,Jits_ISO_5,1,5,80,127,2787895820
7116,16,Jits_ISO_5,2,5,56,103,2787905940
7116,16,Jits_ISO_5,0,1,48,50,2788367828
7116,16,Jits_ISO_5,1,5,80,127,2788426092
7116,16,Jits_ISO_5,2,5,56,103,2788436288
7116,16,Jits_ISO_5,3,5,63,98,2788466020
7116,16,Jits_ISO_5,0,5,63,98,2788915724
7116,16,Jits_ISO_5,1,1,48,42,2788932920
7116,16,Jits_ISO_5,2,5,56,103,2788946140
7116,16,Jits_ISO_5,3,5,80,127,2788955588
7116,16,Jits_ISO_5,0,5,56,103,2789366140
7116,16,Jits_ISO_5,1,5,63,98,2789416192
7116,16,Jits_ISO_5,2,5,80,127,2789435776
7116,16,Jits_ISO_5,3,1,48,43,2789472744
7116,16,Jits_ISO_5,0,5,80,127,2789865812
7116,16,Jits_ISO_5,1,5,63,98,2789916012
7116,16,Jits_ISO_5,2,5,56,103,2789955900
7116,16,Jits_ISO_5,3,1,48,44,2789971152
7116,16,Jits_ISO_5,0,5,56,103,2790365560
7116,16,Jits_ISO_5,1,5,63,98,2790396284
7116,16,Jits_ISO_5,2,5,80,127,2790465908
7116,16,Jits_ISO_5,3,1,48,43,2790471796
7116,16,Jits_ISO_5,0,5,56,103,2790866280
7116,16,Jits_ISO_5,1,5,80,127,2790925624
7116,16,Jits_ISO_5,2,1,48,46,2790927036
7116,16,Jits_ISO_5,3,5,63,98,2790956288
7116,16,Jits_ISO_5,0,5,56,103,2791376292
7116,16,Jits_ISO_5,1,5,63,98,2791385664
7116,16,Jits_ISO_5,2,5,80,127,2791426724
7116,16,Jits_ISO_5,3,1,48,46,2791442500
7116,16,Jits_ISO_5,0,5,63,98,2791865700
7116,16,Jits_ISO_5,1,1,48,46,2791888076
7116,16,Jits_ISO_5,2,5,80,127,2791945788
7116,16,Jits_ISO_5,3,5,56,103,2791955836
7116,16,Jits_ISO_5,0,5,63,98,2792415704
7116,16,Jits_ISO_5,1,5,56,103,2792455716
7116,16,Jits_ISO_5,2,5,80,127,2792458708
7116,16,Jits_ISO_5,3,1,48,44,2792503444
7116,16,Jits_ISO_5,0,5,56,103,2792876476
7116,16,Jits_ISO_5,1,5,63,98,2792885996
7116,16,Jits_ISO_5,2,5,80,127,2792925712
7116,16,Jits_ISO_5,3,1,48,31,2793048412
7116,16,Jits_ISO_5,0,5,56,103,2793365728
7116,16,Jits_ISO_5,1,5,63,98,2793368800
7116,16,Jits_ISO_5,2,5,80,127,2793386268
7116,16,Jits_ISO_5,0,1,48,35,2793804668
7116,16,Jits_ISO_5,1,5,80,127,2793875940
7116,16,Jits_ISO_5,2,5,56,103,2793886060
7116,16,Jits_ISO_5,3,5,63,98,2793955796
7116,16,Jits_ISO_5,0,5,63,98,2794366312
7116,16,Jits_ISO_5,1,5,56,103,2794385872
7116,16,Jits_ISO_5,2,1,48,44,2794425928
7116,16,Jits_ISO_5,3,5,80,127,2794465880
7116,16,Jits_ISO_5,0,5,56,103,2794876160
7116,16,Jits_ISO_5,1,5,80,127,2794916396
7116,16,Jits_ISO_5,2,5,63,98,2794925544
7116,16,Jits_ISO_5,3,1,48,28,2795033452
7116,16,Jits_ISO_5,0,5,80,127,2795365792
7116,16,Jits_ISO_5,1,5,63,98,2795395392
7116,16,Jits_ISO_5,2,5,56,103,2795436376
7116,16,Jits_ISO_5,3,1,48,30,2795601992
7116,16,Jits_ISO_5,0,5,56,103,2795885916
7116,16,Jits_ISO_5,1,5,63,98,2795915668
7116,16,Jits_ISO_5,2,5,80,127,2795965864
7116,16,Jits_ISO_5,0,1,48,42,2796338648
7116,16,Jits_ISO_5,1,5,80,127,2796385576
7116,16,Jits_ISO_5,2,5,56,103,2796425664
7116,16,Jits_ISO_5,3,5,63,98,2796435920
7116,16,Jits_ISO_5,0,5,80,127,2796865988
7116,16,Jits_ISO_5,1,5,63,98,2796905924
7116,16,Jits_ISO_5,2,1,48,38,2796937588
7116,16,Jits_ISO_5,3,5,56,103,2796966304
7116,16,Jits_ISO_5,0,5,56,103,2797365660
7116,16,Jits_ISO_5,1,5,80,127,2797375856
7116,16,Jits_ISO_5,2,5,63,98,2797455868
7116,16,Jits_ISO_5,3,1,48,40,2797460332
7116,16,Jits_ISO_5,0,5,80,127,2797866352
7116,16,Jits_ISO_5,1,5,63,98,2797925620
7116,16,Jits_ISO_5,2,5,56,103,2797955592
7116,16,Jits_ISO_5,3,1,48,30,2797987624
7116,16,Jits_ISO_5,0,5,56,103,2798366152
7116,16,Jits_ISO_5,1,5,80,127,2798425444
7116,16,Jits_ISO_5,2,5,63,98,2798466428
7116,16,Jits_ISO_5,3,1,48,42,2798494876
7116,16,Jits_ISO_5,0,5,56,103,2798915976
7116,16,Jits_ISO_5,1,5,63,98,2798926620
7116,16,Jits_ISO_5,2,5,80,127,2798929756
7116,16,Jits_ISO_5,3,1,48,40,2798981200
7116,16,Jits_ISO_5,0,5,80,127,2799365572
7116,16,Jits_ISO_5,1,5,63,98,2799455728
7116,16,Jits_ISO_5,2,5,56,103,2799465772
7116,16,Jits_ISO_5,3,1,48,36,2799485676
7116,16,Jits_ISO_5,0,5,56,103,2799866204
7116,16,Jits_ISO_5,1,5,63,98,2799869376
7116,16,Jits_ISO_5,2,5,80,127,2799872648
7116,16,Jits_ISO_5,3,1,48,34,2800016488
7116,16,Jits_ISO_5,0,5,80,127,2800386540
7116,16,Jits_ISO_5,1,5,63,98,2800435644
7116,16,Jits_ISO_5,2,5,56,103,2800466288
7116,16,Jits_ISO_5,3,1,48,32,2800559968
7116,16,Jits_ISO_5,0,5,56,103,2800865540
7116,16,Jits_ISO_5,1,5,80,127,2800875960
7116,16,Jits_ISO_5,2,5,63,98,2800945584
7116,16,Jits_ISO_5,3,1,48,34,2801013792
7116,16,Jits_ISO_5,0,5,56,103,2801375696
7116,16,Jits_ISO_5,1,5,63,98,2801396008
7116,16,Jits_ISO_5,2,5,80,127,2801455596
7116,16,Jits_ISO_5,3,1,48,39,2801499836
7116,16,Jits_ISO_5,0,5,80,127,2801876268
7116,16,Jits_ISO_5,1,5,63,98,2801945948
7116,16,Jits_ISO_5,2,5,56,103,2801965684
7116,16,Jits_ISO_5,3,1,48,34,2802006412
7116,16,Jits_ISO_5,0,5,80,127,2802395720
7116,16,Jits_ISO_5,1,5,56,103,2802405696
7116,16,Jits_ISO_5,2,5,63,98,2802415892
7116,16,Jits_ISO_5,3,1,48,38,2802526236
7116,16,Jits_ISO_5,0,5,80,127,2802885956
7116,16,Jits_ISO_5,1,5,56,103,2802905812
7116,16,Jits_ISO_5,2,1,48,35,2802970508
7116,16,Jits_ISO_5,3,5,63,98,2802976084
7116,16,Jits_ISO_5,0,5,56,103,2803395892
7116,16,Jits_ISO_5,1,5,80,127,2803425568
7116,16,Jits_ISO_5,2,5,63,98,2803446024
7116,16,Jits_ISO_5,3,1,48,38,2803463756
7116,16,Jits_ISO_5,0,5,63,98,2803885524
7116,16,Jits_ISO_5,1,5,56,103,2803945764
7116,16,Jits_ISO_5,2,1,48,42,2803965968
7116,16,Jits_ISO_5,3,5,80,127,2803975728
7116,16,Jits_ISO_5,0,5,63,98,2804375888
7116,16,Jits_ISO_5,1,5,80,127,2804379180
7116,16,Jits_ISO_5,2,1,48,38,2804432488
7116,16,Jits_ISO_5,3,5,56,103,2804465936
7116,16,Jits_ISO_5,0,5,56,103,2804895996
7116,16,Jits_ISO_5,1,1,48,40,2804905264
7116,16,Jits_ISO_5,2,5,63,98,2804925812
7116,16,Jits_ISO_5,3,5,80,127,2804965672
7116,16,Jits_ISO_5,0,5,63,98,2805395820
7116,16,Jits_ISO_5,1,1,48,37,2805435460
7116,16,Jits_ISO_5,2,5,56,103,2805436948
7116,16,Jits_ISO_5,3,5,80,127,2805456208
7116,16,Jits_ISO_5,0,1,48,43,2805899564
7116,16,Jits_ISO_5,1,5,63,98,2805905888
7116,16,Jits_ISO_5,2,5,56,103,2805945824
7116,16,Jits_ISO_5,3,5,80,127,2805956092
7116,16,Jits_ISO_5,0,5,80,127,2806386000
7116,16,Jits_ISO_5,1,1,48,44,2806421556
7116,16,Jits_ISO_5,2,5,63,98,2806455524
7116,16,Jits_ISO_5,3,5,56,103,2806476280
7116,16,Jits_ISO_5,0,5,56,103,2806875488
7116,16,Jits_ISO_5,1,5,80,127,2806896096
7116,16,Jits_ISO_5,2,5,63,98,2806936032
7116,16,Jits_ISO_5,3,1,48,32,2807018476
7116,16,Jits_ISO_5,0,5,63,98,2807385572
7116,16,Jits_ISO_5,1,5,80,127,2807405956
7116,16,Jits_ISO_5,2,1,48,41,2807436796
7116,16,Jits_ISO_5,3,5,56,103,2807445884
7116,16,Jits_ISO_5,0,5,63,98,2807886056
7116,16,Jits_ISO_5,1,5,56,103,2807905616
7116,16,Jits_ISO_5,2,1,48,35,2807915736
7116,16,Jits_ISO_5,3,5,80,127,2807917072
7116,16,Jits_ISO_5,0,5,80,127,2808386008
7116,16,Jits_ISO_5,1,5,56,103,2808406468
7116,16,Jits_ISO_5,2,5,63,98,2808436288
7116,16,Jits_ISO_5,3,1,48,47,2808442400
7116,16,Jits_ISO_5,0,1,48,42,2808886096
7116,16,Jits_ISO_5,1,5,56,103,2808956320
7116,16,Jits_ISO_5,2,5,80,127,2808959532
7116,16,Jits_ISO_5,3,5,63,98,2808975656
7116,16,Jits_ISO_5,0,5,63,98,2809386604
7116,16,Jits_ISO_5,1,5,56,103,2809415984
7116,16,Jits_ISO_5,2,1,48,39,2809468392
7116,16,Jits_ISO_5,3,5,80,127,2809475688
7116,16,Jits_ISO_5,0,1,48,39,2809950952
7116,16,Jits_ISO_5,1,5,63,98,2809965900
7116,16,Jits_ISO_5,2,5,56,103,2809976316
7116,16,Jits_ISO_5,3,5,80,127,2809986588
7116,16,Jits_ISO_5,0,5,56,103,2810415672
7116,16,Jits_ISO_5,1,5,80,127,2810446396
7116,16,Jits_ISO_5,2,1,48,46,2810455840
7116,16,Jits_ISO_5,3,5,63,98,2810457480
7116,16,Jits_ISO_5,0,1,48,45,2810903512
7116,16,Jits_ISO_5,1,5,63,98,2810956024
7116,16,Jits_ISO_5,2,5,56,103,2810966516
7116,16,Jits_ISO_5,3,5,80,127,2810985780
7116,16,Jits_ISO_5,0,5,56,103,2811386512
7116,16,Jits_ISO_5,1,5,63,98,2811445880
7116,16,Jits_ISO_5,2,5,80,127,2811449092
7116,16,Jits_ISO_5,3,1,48,36,2811484516
7116,16,Jits_ISO_5,0,5,80,127,2811906400
7116,16,Jits_ISO_5,1,5,56,103,2811915772
7116,16,Jits_ISO_5,2,1,48,49,2811963328
7116,16,Jits_ISO_5,3,5,63,98,2811986216
7116,16,Jits_ISO_5,0,5,80,127,2812395808
7116,16,Jits_ISO_5,1,5,56,103,2812465440
7116,16,Jits_ISO_5,2,1,48,47,2812471096
7116,16,Jits_ISO_5,3,5,63,98,2812475852
7116,16,Jits_ISO_5,0,5,63,98,2812935420
7116,16,Jits_ISO_5,1,5,56,103,2812945912
7116,16,Jits_ISO_5,2,1,48,45,2812966072
7116,16,Jits_ISO_5,3,5,80,127,2812967484
7116,16,Jits_ISO_5,0,5,80,127,2813396568
7116,16,Jits_ISO_5,1,5,63,98,2813455684
7116,16,Jits_ISO_5,2,5,56,103,2813495648
7116,16,Jits_ISO_5,3,1,48,39,2813497056
7116,16,Jits_ISO_5,0,5,56,103,2813935948
7116,16,Jits_ISO_5,1,5,63,98,2813946516
7116,16,Jits_ISO_5,2,1,48,37,2813965148
7116,16,Jits_ISO_5,3,5,80,127,2813986224
7116,16,Jits_ISO_5,0,5,56,103,2814395768
7116,16,Jits_ISO_5,1,5,80,127,2814425520
7116,16,Jits_ISO_5,2,1,48,42,2814455164
7116,16,Jits_ISO_5,3,5,63,98,2814475636
7116,16,Jits_ISO_5,0,5,56,103,2814936424
7116,16,Jits_ISO_5,1,5,63,98,2814976280
7116,16,Jits_ISO_5,2,5,80,127,2814979576
7116,16,Jits_ISO_5,3,1,48,47,2814987424
7116,16,Jits_ISO_5,0,5,56,103,2815436240
7116,16,Jits_ISO_5,1,5,63,98,2815446584
7116,16,Jits_ISO_5,2,5,80,127,2815465772
7116,16,Jits_ISO_5,3,1,48,42,2815480124
7116,16,Jits_ISO_5,0,5,56,103,2815895904
7116,16,Jits_ISO_5,1,5,80,127,2815898824
7116,16,Jits_ISO_5,2,5,63,98,2815935844
7116,16,Jits_ISO_5,3,1,48,41,2815944284
7116,16,Jits_ISO_5,0,1,48,35,2816416144
7116,16,Jits_ISO_5,1,5,63,98,2816435496
7116,16,Jits_ISO_5,2,5,56,103,2816466292
7116,16,Jits_ISO_5,3,5,80,127,2816485628
7116,16,Jits_ISO_5,0,5,80,127,2816905716
7116,16,Jits_ISO_5,1,5,56,103,2816915764
7116,16,Jits_ISO_5,2,5,63,98,2816925960
7116,16,Jits_ISO_5,3,1,48,43,2816935452
7116,16,Jits_ISO_5,0,5,56,103,2817406284
7116,16,Jits_ISO_5,1,1,48,38,2817429400
7116,16,Jits_ISO_5,2,5,80,127,2817446440
7116,16,Jits_ISO_5,3,5,63,98,2817476036
7116,16,Jits_ISO_5,0,1,48,41,2817905400
7116,16,Jits_ISO_5,1,5,63,98,2817916360
7116,16,Jits_ISO_5,2,5,80,127,2817925436
7116,16,Jits_ISO_5,3,5,56,103,2817935780
7116,16,Jits_ISO_5,0,5,56,103,2818395500
7116,16,Jits_ISO_5,1,1,48,44,2818432176
7116,16,Jits_ISO_5,2,5,63,98,2818466516
7116,16,Jits_ISO_5,3,5,80,127,2818476340
7116,16,Jits_ISO_5,0,5,80,127,2818896444
7116,16,Jits_ISO_5,1,5,56,103,2818905444
7116,16,Jits_ISO_5,2,1,48,32,2818949612
7116,16,Jits_ISO_5,3,5,63,98,2818955560
7116,16,Jits_ISO_5,0,1,48,40,2819403036
7116,16,Jits_ISO_5,1,5,80,127,2819406364
7116,16,Jits_ISO_5,2,5,56,103,2819465560
7116,16,Jits_ISO_5,3,5,63,98,2819496204
7116,16,Jits_ISO_5,0,5,56,103,2819905800
7116,16,Jits_ISO_5,1,1,48,46,2819906784
7116,16,Jits_ISO_5,2,5,80,127,2819910284
7116,16,Jits_ISO_5,3,5,63,98,2819945812
7116,16,Jits_ISO_5,0,1,48,33,2820401232
7116,16,Jits_ISO_5,1,5,56,103,2820436252
7116,16,Jits_ISO_5,2,5,63,98,2820465928
7116,16,Jits_ISO_5,3,5,80,127,2820476196
7116,16,Jits_ISO_5,0,1,48,41,2820874584
7116,16,Jits_ISO_5,1,5,63,98,2820955616
7116,16,Jits_ISO_5,2,5,80,127,2820965888
7116,16,Jits_ISO_5,3,5,56,103,2820975992
7116,16,Jits_ISO_5,0,1,48,44,2821404064
7116,16,Jits_ISO_5,1,5,80,127,2821406252
7116,16,Jits_ISO_5,2,5,56,103,2821456400
7116,16,Jits_ISO_5,3,5,63,98,2821459464
7116,16,Jits_ISO_5,0,1,48,36,2821871624
7116,16,Jits_ISO_5,1,5,56,103,2821935440
7116,16,Jits_ISO_5,2,5,80,127,2821956048
7116,16,Jits_ISO_5,3,5,63,98,2821967200
7116,16,Jits_ISO_5,0,1,48,45,2822388968
7116,16,Jits_ISO_5,1,5,63,98,2822415596
7116,16,Jits_ISO_5,2,5,56,103,2822445520
7116,16,Jits_ISO_5,3,5,80,127,2822465904
7116,16,Jits_ISO_5,0,1,48,40,2822882700
7116,16,Jits_ISO_5,1,5,56,103,2822925744
7116,16,Jits_ISO_5,2,5,80,127,2822935864
7116,16,Jits_ISO_5,3,5,63,98,2823005476
7116,16,Jits_ISO_5,0,1,48,31,2823400860
7116,16,Jits_ISO_5,1,5,63,98,2823416324
7116,16,Jits_ISO_5,2,5,80,127,2823456264
7116,16,Jits_ISO_5,3,5,56,103,2823496148
7116,16,Jits_ISO_5,0,1,48,38,2823861560
7116,16,Jits_ISO_5,1,5,56,103,2823926248
7116,16,Jits_ISO_5,2,5,63,98,2823936444
7116,16,Jits_ISO_5,3,5,80,127,2823955856
7116,16,Jits_ISO_5,0,1,48,30,2824302924
7116,16,Jits_ISO_5,1,5,63,98,2824465676
7116,16,Jits_ISO_5,2,5,80,127,2824486280
7116,16,Jits_ISO_5,3,5,56,103,2824505644
7116,16,Jits_ISO_5,0,5,56,103,2824916288
7116,16,Jits_ISO_5,1,1,48,33,2824925704
7116,16,Jits_ISO_5,2,5,80,127,2824996296
7116,16,Jits_ISO_5,3,5,63,98,2825005396
7116,16,Jits_ISO_5,0,1,48,28,2825399368
7116,16,Jits_ISO_5,1,5,80,127,2825456260
7116,16,Jits_ISO_5,2,5,63,98,2825466384
7116,16,Jits_ISO_5,3,5,56,103,2825495820
7116,16,Jits_ISO_5,0,5,63,98,2825915772
7116,16,Jits_ISO_5,1,1,48,33,2825939044
7116,16,Jits_ISO_5,2,5,80,127,2825955632
7116,16,Jits_ISO_5,3,5,56,103,2826016312
7116,16,Jits_ISO_5,0,5,63,98,2826425844
7116,16,Jits_ISO_5,1,1,48,22,2826465608
7116,16,Jits_ISO_5,2,5,56,103,2826476340
7116,16,Jits_ISO_5,3,5,80,127,2826505640
7116,16,Jits_ISO_5,0,1,48,35,2826924060
7116,16,Jits_ISO_5,1,5,80,127,2826935616
7116,16,Jits_ISO_5,2,5,63,98,2826946032
7116,16,Jits_ISO_5,3,5,56,103,2827015560
7116,16,Jits_ISO_5,0,1,48,45,2827468728
7116,16,Jits_ISO_5,1,5,80,127,2827506220
7116,16,Jits_ISO_5,2,5,56,103,2827516336
7116,16,Jits_ISO_5,3,5,63,98,2827519476
7116,16,Jits_ISO_5,0,5,56,103,2827946324
7116,16,Jits_ISO_5,1,5,80,127,2827965808
7116,16,Jits_ISO_5,2,1,48,42,2827976152
7116,16,Jits_ISO_5,3,5,63,98,2827977564
7116,16,Jits_ISO_5,0,5,63,98,2828456184
7116,16,Jits_ISO_5,1,1,48,40,2828467168
7116,16,Jits_ISO_5,2,5,56,103,2828496192
7116,16,Jits_ISO_5,3,5,80,127,2828515748
7116,16,Jits_ISO_5,0,1,48,40,2828927344
7116,16,Jits_ISO_5,1,5,63,98,2828956136
7116,16,Jits_ISO_5,2,5,56,103,2829016376
7116,16,Jits_ISO_5,3,5,80,127,2829019440
7116,16,Jits_ISO_5,0,5,56,103,2829415792
7116,16,Jits_ISO_5,1,5,80,127,2829436252
7116,16,Jits_ISO_5,2,5,63,98,2829476408
7116,16,Jits_ISO_5,3,1,48,40,2829505228
7116,16,Jits_ISO_5,0,5,56,103,2829946252
7116,16,Jits_ISO_5,1,1,48,40,2829958516
7116,16,Jits_ISO_5,2,5,63,98,2829965732
7116,16,Jits_ISO_5,3,5,80,127,2829975780
7116,16,Jits_ISO_5,0,5,80,127,2830416332
7116,16,Jits_ISO_5,1,1,48,47,2830428968
7116,16,Jits_ISO_5,2,5,56,103,2830446076
7116,16,Jits_ISO_5,3,5,63,98,2830486160
7116,16,Jits_ISO_5,0,1,48,46,2830923228
7116,16,Jits_ISO_5,1,5,80,127,2830926260
7116,16,Jits_ISO_5,2,5,56,103,2830945672
7116,16,Jits_ISO_5,3,5,63,98,2831006208
7116,16,Jits_ISO_5,0,1,48,39,2831407088
7116,16,Jits_ISO_5,1,5,56,103,2831436112
7116,16,Jits_ISO_5,2,5,80,127,2831455672
7116,16,Jits_ISO_5,3,5,63,98,2831516044
7116,16,Jits_ISO_5,0,5,80,127,2831916520
7116,16,Jits_ISO_5,1,5,56,103,2831925596
7116,16,Jits_ISO_5,2,1,48,27,2831937252
7116,16,Jits_ISO_5,3,5,63,98,2831965524
7116,16,Jits_ISO_5,0,1,48,40,2832417180
7116,16,Jits_ISO_5,1,5,63,98,2832426444
7116,16,Jits_ISO_5,2,5,56,103,2832466308
7116,16,Jits_ISO_5,3,5,80,127,2832469448
7116,16,Jits_ISO_5,0,1,48,41,2832885512
7116,16,Jits_ISO_5,1,5,63,98,2832945496
7116,16,Jits_ISO_5,2,5,80,127,2832985492
7116,16,Jits_ISO_5,3,5,56,103,2833016140
7116,16,Jits_ISO_5,0,5,56,103,2833436144
7116,16,Jits_ISO_5,1,5,63,98,2833446340
7116,16,Jits_ISO_5,2,1,48,38,2833450876
7116,16,Jits_ISO_5,3,5,80,127,2833476232
7116,16,Jits_ISO_5,0,1,48,39,2833920320
7116,16,Jits_ISO_5,1,5,80,127,2833925448
7116,16,Jits_ISO_5,2,5,63,98,2833996124
7116,16,Jits_ISO_5,3,5,56,103,2834006320
7116,16,Jits_ISO_5,0,5,63,98,2834426156
7116,16,Jits_ISO_5,1,1,48,38,2834434304
7116,16,Jits_ISO_5,2,5,56,103,2834495852
7116,16,Jits_ISO_5,3,5,80,127,2834506048
7116,16,Jits_ISO_5,0,5,63,98,2834926184
7116,16,Jits_ISO_5,1,1,48,35,2834927896
7116,16,Jits_ISO_5,2,5,56,103,2834946412
7116,16,Jits_ISO_5,3,5,80,127,2834986372
7116,16,Jits_ISO_5,0,1,48,35,2835419508
7116,16,Jits_ISO_5,1,5,56,103,2835436096
7116,16,Jits_ISO_5,2,5,63,98,2835445992
7116,16,Jits_ISO_5,3,5,80,127,2835526092
7116,16,Jits_ISO_5,0,1,48,35,2835914156
7116,16,Jits_ISO_5,1,5,63,98,2835926312
7116,16,Jits_ISO_5,2,5,56,103,2835956064
7116,16,Jits_ISO_5,3,5,80,127,2835996148
7116,16,Jits_ISO_5,0,1,48,35,2836431628
7116,16,Jits_ISO_5,1,5,56,103,2836436384
7116,16,Jits_ISO_5,2,5,63,98,2836476396
7116,16,Jits_ISO_5,3,5,80,127,2836516332
7116,16,Jits_ISO_5,0,1,48,36,2836898180
7116,16,Jits_ISO_5,1,5,80,127,2836936044
7116,16,Jits_ISO_5,2,5,56,103,2837016120
7116,16,Jits_ISO_5,3,5,63,98,2837026164
7116,16,Jits_ISO_5,0,5,56,103,2837475788
7116,16,Jits_ISO_5,1,1,48,39,2837476772
7116,16,Jits_ISO_5,2,5,63,98,2837479968
7116,16,Jits_ISO_5,3,5,80,127,2837486200
7116,16,Jits_ISO_5,0,1,48,35,2837948452
7116,16,Jits_ISO_5,1,5,56,103,2837996124
7116,16,Jits_ISO_5,2,5,63,98,2838016360
7116,16,Jits_ISO_5,3,5,80,127,2838025584
7116,16,Jits_ISO_5,0,1,48,36,2838423376
7116,16,Jits_ISO_5,1,5,63,98,2838455560
7116,16,Jits_ISO_5,2,5,80,127,2838465904
7116,16,Jits_ISO_5,3,5,56,103,2838486360
7116,16,Jits_ISO_5,0,1,48,34,2838903952
7116,16,Jits_ISO_5,1,5,63,98,2838956336
7116,16,Jits_ISO_5,2,5,56,103,2839036336
7116,16,Jits_ISO_5,3,5,80,127,2839039328
7116,16,Jits_ISO_5,0,1,48,33,2839438732
7116,16,Jits_ISO_5,1,5,63,98,2839456068
7116,16,Jits_ISO_5,2,5,56,103,2839475628
7116,16,Jits_ISO_5,3,5,80,127,2839506196
7116,16,Jits_ISO_5,0,1,48,33,2839896960
7116,16,Jits_ISO_5,1,5,56,103,2839956096
7116,16,Jits_ISO_5,2,5,63,98,2839976260
7116,16,Jits_ISO_5,3,5,80,127,2839985408
7116,16,Jits_ISO_5,0,1,48,34,2840369492
7116,16,Jits_ISO_5,1,5,56,103,2840486232
7116,16,Jits_ISO_5,2,5,63,98,2840516132
7116,16,Jits_ISO_5,3,5,80,127,2840519420
7116,16,Jits_ISO_5,0,5,56,103,2840936088
7116,16,Jits_ISO_5,1,1,48,37,2840966184
7116,16,Jits_ISO_5,2,5,63,98,2840975868
7116,16,Jits_ISO_5,3,5,80,127,2841036180
7116,16,Jits_ISO_5,0,1,48,31,2841443752
7116,16,Jits_ISO_5,1,5,56,103,2841456132
7116,16,Jits_ISO_5,2,5,63,98,2841466404
7116,16,Jits_ISO_5,3,5,80,127,2841525520
7116,16,Jits_ISO_5,0,1,48,37,2841909464
7116,16,Jits_ISO_5,1,5,56,103,2841955720
7116,16,Jits_ISO_5,2,5,80,127,2841976252
7116,16,Jits_ISO_5,3,5,63,98,2842005988
7116,16,Jits_ISO_5,0,1,48,36,2842432716
7116,16,Jits_ISO_5,1,5,80,127,2842456352
7116,16,Jits_ISO_5,2,5,56,103,2842465500
7116,16,Jits_ISO_5,3,5,63,98,2842486180
7116,16,Jits_ISO_5,0,1,48,40,2842922108
7116,16,Jits_ISO_5,1,5,63,98,2842946040
7116,16,Jits_ISO_5,2,5,80,127,2843025820
7116,16,Jits_ISO_5,3,5,56,103,2843036016
7116,16,Jits_ISO_5,0,1,48,33,2843469644
7116,16,Jits_ISO_5,1,5,80,127,2843506088
7116,16,Jits_ISO_5,2,5,56,103,2843525344
7116,16,Jits_ISO_5,3,5,63,98,2843528412
7116,16,Jits_ISO_5,0,5,63,98,2843986188
7116,16,Jits_ISO_5,1,1,48,24,2843989332
7116,16,Jits_ISO_5,2,5,80,127,2843990968
7116,16,Jits_ISO_5,3,5,56,103,2844045824
7116,16,Jits_ISO_5,0,1,48,37,2844413252
7116,16,Jits_ISO_5,1,5,56,103,2844465460
7116,16,Jits_ISO_5,2,5,80,127,2844475952
7116,16,Jits_ISO_5,3,5,63,98,2844515876
7116,16,Jits_ISO_5,0,1,48,38,2844932012
7116,16,Jits_ISO_5,1,5,56,103,2844946060
7116,16,Jits_ISO_5,2,5,63,98,2845006252
7116,16,Jits_ISO_5,3,5,80,127,2845016444
7116,16,Jits_ISO_5,0,1,48,40,2845378556
7116,16,Jits_ISO_5,1,5,63,98,2845455832
7116,16,Jits_ISO_5,2,5,80,127,2845495928
7116,16,Jits_ISO_5,3,5,56,103,2845535564
7116,16,Jits_ISO_5,0,5,56,103,2845955348
7116,16,Jits_ISO_5,1,1,48,32,2845999544
7116,16,Jits_ISO_5,2,5,63,98,2846036352
7116,16,Jits_ISO_5,3,5,80,127,2846039940
7116,16,Jits_ISO_5,0,9999,9999,9999,2786663520
7116,16,Jits_ISO_5,1,9999,9999,9999,2787163244
7116,16,Jits_ISO_5,2,9999,9999,9999,2787663956
7116,16,Jits_ISO_5,3,9999,9999,9999,2788163692
7116,16,Jits_ISO_5,4,9999,9999,9999,2788663400
7116,16,Jits_ISO_5,5,9999,9999,9999,2789163060
7116,16,Jits_ISO_5,6,9999,9999,9999,2789663816
7116,16,Jits_ISO_5,7,9999,9999,9999,2790163564
7116,16,Jits_ISO_5,8,9999,9999,9999,2790663236
7116,16,Jits_ISO_5,9,9999,9999,9999,2791163960
7116,16,Jits_ISO_5,10,9999,9999,9999,2791663704
7116,16,Jits_ISO_5,11,9999,9999,9999,2792163380
7116,16,Jits_ISO_5,12,9999,9999,9999,2792663112
7116,16,Jits_ISO_5,13,9999,9999,9999,2793163888
7116,16,Jits_ISO_5,14,9999,9999,9999,2793663568
7116,16,Jits_ISO_5,15,9999,9999,9999,2794163284
7116,16,Jits_ISO_5,16,9999,9999,9999,2794663988
7116,16,Jits_ISO_5,17,9999,9999,9999,2795163724
7116,16,Jits_ISO_5,18,9999,9999,9999,2795663484
7116,16,Jits_ISO_5,19,9999,9999,9999,2796163164
7116,16,Jits_ISO_5,20,9999,9999,9999,2796663932
7116,16,Jits_ISO_5,21,9999,9999,9999,2797163592
7116,16,Jits_ISO_5,22,9999,9999,9999,2797663336
7116,16,Jits_ISO_5,23,9999,9999,9999,2798164032
7116,16,Jits_ISO_5,24,9999,9999,9999,2798663780
7116,16,Jits_ISO_5,25,9999,9999,9999,2799163452
7116,16,Jits_ISO_5,26,9999,9999,9999,2799663200
7116,16,Jits_ISO_5,27,9999,9999,9999,2800163948
7116,16,Jits_ISO_5,28,9999,9999,9999,2800663616
7116,16,Jits_ISO_5,29,9999,9999,9999,2801163364
7116,16,Jits_ISO_5,30,9999,9999,9999,2801664084
7116,16,Jits_ISO_5,31,9999,9999,9999,2802174024
7116,16,Jits_ISO_5,32,9999,9999,9999,2802673768
7116,16,Jits_ISO_5,33,9999,9999,9999,2803173444
7116,16,Jits_ISO_5,34,9999,9999,9999,2803673192
7116,16,Jits_ISO_5,35,9999,9999,9999,2804173912
7116,16,Jits_ISO_5,36,9999,9999,9999,2804673636
7116,16,Jits_ISO_5,37,9999,9999,9999,2805173368
7116,16,Jits_ISO_5,38,9999,9999,9999,2805674092
7116,16,Jits_ISO_5,39,9999,9999,9999,2806173756
7116,16,Jits_ISO_5,40,9999,9999,9999,2806673492
7116,16,Jits_ISO_5,41,9999,9999,9999,2807173236
7116,16,Jits_ISO_5,42,9999,9999,9999,2807673956
7116,16,Jits_ISO_5,43,9999,9999,9999,2808173688
7116,16,Jits_ISO_5,44,9999,9999,9999,2808673348
7116,16,Jits_ISO_5,45,9999,9999,9999,2809174140
7116,16,Jits_ISO_5,46,9999,9999,9999,2809684060
7116,16,Jits_ISO_5,47,9999,9999,9999,2810183800
7116,16,Jits_ISO_5,48,9999,9999,9999,2810683460
7116,16,Jits_ISO_5,49,9999,9999,9999,2811183216
7116,16,Jits_ISO_5,50,9999,9999,9999,2811683956
7116,16,Jits_ISO_5,51,9999,9999,9999,2812183628
7116,16,Jits_ISO_5,52,9999,9999,9999,2812683376
7116,16,Jits_ISO_5,53,9999,9999,9999,2813184100
7116,16,Jits_ISO_5,54,9999,9999,9999,2813694020
7116,16,Jits_ISO_5,55,9999,9999,9999,2814193772
7116,16,Jits_ISO_5,56,9999,9999,9999,2814693448
7116,16,Jits_ISO_5,57,9999,9999,9999,2815193192
7116,16,Jits_ISO_5,58,9999,9999,9999,2815693912
7116,16,Jits_ISO_5,59,9999,9999,9999,2816193644
7116,16,Jits_ISO_5,60,9999,9999,9999,2816693328
7116,16,Jits_ISO_5,61,9999,9999,9999,2817194100
7116,16,Jits_ISO_5,62,9999,9999,9999,2817693772
7116,16,Jits_ISO_5,63,9999,9999,9999,2818193516
7116,16,Jits_ISO_5,64,9999,9999,9999,2818693176
7116,16,Jits_ISO_5,65,9999,9999,9999,2819193968
7116,16,Jits_ISO_5,66,9999,9999,9999,2819693640
7116,16,Jits_ISO_5,67,9999,9999,9999,2820193360
7116,16,Jits_ISO_5,68,9999,9999,9999,2820694080
7116,16,Jits_ISO_5,69,9999,9999,9999,2821204080
7116,16,Jits_ISO_5,70,9999,9999,9999,2821703800
7116,16,Jits_ISO_5,71,9999,9999,9999,2822203456
7116,16,Jits_ISO_5,72,9999,9999,9999,2822703192
7116,16,Jits_ISO_5,73,9999,9999,9999,2823203948
7116,16,Jits_ISO_5,74,9999,9999,9999,2823703672
7116,16,Jits_ISO_5,75,9999,9999,9999,2824203328
7116,16,Jits_ISO_5,76,9999,9999,9999,2824704116
7116,16,Jits_ISO_5,77,9999,9999,9999,2825214040
7116,16,Jits_ISO_5,78,9999,9999,9999,2825713720
7116,16,Jits_ISO_5,79,9999,9999,9999,2826213452
7116,16,Jits_ISO_5,80,9999,9999,9999,2826713188
7116,16,Jits_ISO_5,81,9999,9999,9999,2827213892
7116,16,Jits_ISO_5,82,9999,9999,9999,2827713624
7116,16,Jits_ISO_5,83,9999,9999,9999,2828213360
7116,16,Jits_ISO_5,84,9999,9999,9999,2828714084
7116,16,Jits_ISO_5,85,9999,9999,9999,2829213812
7116,16,Jits_ISO_5,86,9999,9999,9999,2829713468
7116,16,Jits_ISO_5,87,9999,9999,9999,2830213216
7116,16,Jits_ISO_5,88,9999,9999,9999,2830713936
7116,16,Jits_ISO_5,89,9999,9999,9999,2831213684
7116,16,Jits_ISO_5,90,9999,9999,9999,2831713344
7116,16,Jits_ISO_5,91,9999,9999,9999,2832214120
7116,16,Jits_ISO_5,92,9999,9999,9999,2832724044
7116,16,Jits_ISO_5,93,9999,9999,9999,2833223776
7116,16,Jits_ISO_5,94,9999,9999,9999,2833723484
7116,16,Jits_ISO_5,95,9999,9999,9999,2834223156
7116,16,Jits_ISO_5,96,9999,9999,9999,2834723908
7116,16,Jits_ISO_5,97,9999,9999,9999,2835223636
7116,16,Jits_ISO_5,98,9999,9999,9999,2835723368
7116,16,Jits_ISO_5,99,9999,9999,9999,2836224072
7116,16,Jits_ISO_5,100,9999,9999,9999,2836734068
7116,16,Jits_ISO_5,101,9999,9999,9999,2837233728
7116,16,Jits_ISO_5,102,9999,9999,9999,2837733452
7116,16,Jits_ISO_5,103,9999,9999,9999,2838233204
7116,16,Jits_ISO_5,104,9999,9999,9999,2838733908
7116,16,Jits_ISO_5,105,9999,9999,9999,2839233636
7116,16,Jits_ISO_5,106,9999,9999,9999,2839733376
7116,16,Jits_ISO_5,107,9999,9999,9999,2840234076
7116,16,Jits_ISO_5,108,9999,9999,9999,2840733808
7116,16,Jits_ISO_5,109,9999,9999,9999,2841233468
7116,16,Jits_ISO_5,110,9999,9999,9999,2841733216
7116,16,Jits_ISO_5,111,9999,9999,9999,2842233924
7116,16,Jits_ISO_5,112,9999,9999,9999,2842733656
7116,16,Jits_ISO_5,113,9999,9999,9999,2843233392
7116,16,Jits_ISO_5,114,9999,9999,9999,2843734092
7116,16,Jits_ISO_5,115,9999,9999,9999,2844244080
7116,16,Jits_ISO_5,116,9999,9999,9999,2844743740
7116,16,Jits_ISO_5,117,9999,9999,9999,2845243472
7116,16,Jits_ISO_5,118,9999,9999,9999,2845743204
7116,16,Jits_ISO_5,119,9999,9999,9999,2846243952
7117,7,Jits_ISO_8,0,5,56,103,2856428876
7117,7,Jits_ISO_8,1,5,63,98,2856431972
7117,7,Jits_ISO_8,2,5,80,127,2856435244
7117,7,Jits_ISO_8,0,5,56,103,2857228652
7117,7,Jits_ISO_8,1,5,63,98,2857231748
7117,7,Jits_ISO_8,2,5,80,127,2857235024
7117,7,Jits_ISO_8,0,5,80,127,2857969032
7117,7,Jits_ISO_8,1,5,63,98,2858059192
7117,7,Jits_ISO_8,2,5,56,103,2858069312
7117,7,Jits_ISO_8,0,5,56,103,2858789128
7117,7,Jits_ISO_8,1,5,63,98,2858798600
7117,7,Jits_ISO_8,2,5,80,127,2858888660
7117,7,Jits_ISO_8,0,5,63,98,2859559176
7117,7,Jits_ISO_8,1,5,80,127,2859588928
7117,7,Jits_ISO_8,2,5,56,103,2859618676
7117,7,Jits_ISO_8,3,1,48,42,2859660380
7117,7,Jits_ISO_8,0,1,48,46,2860357752
7117,7,Jits_ISO_8,1,5,56,103,2860359100
7117,7,Jits_ISO_8,2,5,80,127,2860459260
7117,7,Jits_ISO_8,3,5,63,98,2860508640
7117,7,Jits_ISO_8,0,5,56,103,2861158968
7117,7,Jits_ISO_8,1,5,80,127,2861208800
7117,7,Jits_ISO_8,2,5,63,98,2861248736
7117,7,Jits_ISO_8,3,1,48,48,2861294476
7117,7,Jits_ISO_8,0,5,80,127,2861989108
7117,7,Jits_ISO_8,1,1,48,46,2862012828
7117,7,Jits_ISO_8,2,5,63,98,2862018924
7117,7,Jits_ISO_8,3,5,56,103,2862088832
7117,7,Jits_ISO_8,0,5,63,98,2862818580
7117,7,Jits_ISO_8,1,1,48,39,2862821620
7117,7,Jits_ISO_8,2,5,56,103,2862849520
7117,7,Jits_ISO_8,3,5,80,127,2862908888
7117,7,Jits_ISO_8,0,5,56,103,2863559096
7117,7,Jits_ISO_8,1,5,80,127,2863562236
7117,7,Jits_ISO_8,2,1,48,43,2863629648
7117,7,Jits_ISO_8,3,5,63,98,2863678768
7117,7,Jits_ISO_8,0,5,56,103,2864438636
7117,7,Jits_ISO_8,1,1,48,43,2864452016
7117,7,Jits_ISO_8,2,5,80,127,2864478864
7117,7,Jits_ISO_8,3,5,63,98,2864488840
7117,7,Jits_ISO_8,0,5,56,103,2865198576
7117,7,Jits_ISO_8,1,5,80,127,2865218888
7117,7,Jits_ISO_8,2,1,48,40,2865245228
7117,7,Jits_ISO_8,3,5,63,98,2865298900
7117,7,Jits_ISO_8,0,5,80,127,2865988864
7117,7,Jits_ISO_8,1,1,48,49,2866034456
7117,7,Jits_ISO_8,2,5,56,103,2866089184
7117,7,Jits_ISO_8,3,5,63,98,2866098704
7117,7,Jits_ISO_8,0,5,63,98,2866758996
7117,7,Jits_ISO_8,1,5,80,127,2866818492
7117,7,Jits_ISO_8,2,5,56,103,2866828688
7117,7,Jits_ISO_8,3,1,48,45,2866889640
7117,7,Jits_ISO_8,0,5,56,103,2867558856
7117,7,Jits_ISO_8,1,1,48,39,2867626324
7117,7,Jits_ISO_8,2,5,63,98,2867629648
7117,7,Jits_ISO_8,3,5,80,127,2867632940
7117,7,Jits_ISO_8,0,5,63,98,2868389132
7117,7,Jits_ISO_8,1,1,48,41,2868399600
7117,7,Jits_ISO_8,2,5,56,103,2868439708
7117,7,Jits_ISO_8,3,5,80,127,2868442692
7117,7,Jits_ISO_8,0,5,56,103,2869149120
7117,7,Jits_ISO_8,1,5,80,127,2869152036
7117,7,Jits_ISO_8,2,1,48,40,2869171496
7117,7,Jits_ISO_8,3,5,63,98,2869239096
7117,7,Jits_ISO_8,0,1,48,39,2869925336
7117,7,Jits_ISO_8,1,5,63,98,2869988608
7117,7,Jits_ISO_8,2,5,56,103,2870078904
7117,7,Jits_ISO_8,3,5,80,127,2870108728
7117,7,Jits_ISO_8,0,1,48,46,2870777140
7117,7,Jits_ISO_8,1,5,56,103,2870779176
7117,7,Jits_ISO_8,2,5,63,98,2870878468
7117,7,Jits_ISO_8,3,5,80,127,2870909412
7117,7,Jits_ISO_8,0,5,63,98,2871598552
7117,7,Jits_ISO_8,1,5,56,103,2871608676
7117,7,Jits_ISO_8,2,1,48,45,2871623180
7117,7,Jits_ISO_8,3,5,80,127,2871698656
7117,7,Jits_ISO_8,0,5,63,98,2872418796
7117,7,Jits_ISO_8,1,1,48,39,2872453532
7117,7,Jits_ISO_8,2,5,56,103,2872498736
7117,7,Jits_ISO_8,3,5,80,127,2872501652
7117,7,Jits_ISO_8,0,5,80,127,2873178644
7117,7,Jits_ISO_8,1,5,63,98,2873198880
7117,7,Jits_ISO_8,2,1,48,44,2873235708
7117,7,Jits_ISO_8,3,5,56,103,2873259708
7117,7,Jits_ISO_8,0,5,56,103,2874019052
7117,7,Jits_ISO_8,1,5,63,98,2874038684
7117,7,Jits_ISO_8,2,5,80,127,2874041972
7117,7,Jits_ISO_8,3,1,48,47,2874065100
7117,7,Jits_ISO_8,0,5,63,98,2874758528
7117,7,Jits_ISO_8,1,5,80,127,2874839672
7117,7,Jits_ISO_8,2,5,56,103,2874848600
7117,7,Jits_ISO_8,3,1,48,40,2874899592
7117,7,Jits_ISO_8,0,5,63,98,2875578616
7117,7,Jits_ISO_8,1,5,56,103,2875599300
7117,7,Jits_ISO_8,2,5,80,127,2875649576
7117,7,Jits_ISO_8,3,1,48,40,2875660936
7117,7,Jits_ISO_8,0,5,80,127,2876378624
7117,7,Jits_ISO_8,1,5,63,98,2876418488
7117,7,Jits_ISO_8,2,5,56,103,2876438876
7117,7,Jits_ISO_8,3,1,48,46,2876523444
7117,7,Jits_ISO_8,0,5,56,103,2877219400
7117,7,Jits_ISO_8,1,5,63,98,2877229548
7117,7,Jits_ISO_8,2,5,80,127,2877248812
7117,7,Jits_ISO_8,3,1,48,43,2877267444
7117,7,Jits_ISO_8,0,5,56,103,2877949448
7117,7,Jits_ISO_8,1,5,63,98,2878039312
7117,7,Jits_ISO_8,2,5,80,127,2878098656
7117,7,Jits_ISO_8,3,1,48,41,2878102820
7117,7,Jits_ISO_8,0,5,80,127,2878778796
7117,7,Jits_ISO_8,1,5,56,103,2878788992
7117,7,Jits_ISO_8,2,1,48,39,2878842380
7117,7,Jits_ISO_8,3,5,63,98,2878858520
7117,7,Jits_ISO_8,0,5,63,98,2879609388
7117,7,Jits_ISO_8,1,1,48,43,2879637164
7117,7,Jits_ISO_8,2,5,80,127,2879699444
7117,7,Jits_ISO_8,3,5,56,103,2879708596
7117,7,Jits_ISO_8,0,5,63,98,2880348496
7117,7,Jits_ISO_8,1,5,80,127,2880398624
7117,7,Jits_ISO_8,2,5,56,103,2880459460
7117,7,Jits_ISO_8,3,1,48,41,2880492848
7117,7,Jits_ISO_8,0,5,56,103,2881178916
7117,7,Jits_ISO_8,1,1,48,44,2881222416
7117,7,Jits_ISO_8,2,5,80,127,2881229264
7117,7,Jits_ISO_8,3,5,63,98,2881248600
7117,7,Jits_ISO_8,0,1,48,45,2881948516
7117,7,Jits_ISO_8,1,5,56,103,2881950084
7117,7,Jits_ISO_8,2,5,80,127,2882008532
7117,7,Jits_ISO_8,3,5,63,98,2882079392
7117,7,Jits_ISO_8,0,5,56,103,2882748752
7117,7,Jits_ISO_8,1,1,48,41,2882768432
7117,7,Jits_ISO_8,2,5,80,127,2882778568
7117,7,Jits_ISO_8,3,5,63,98,2882809292
7117,7,Jits_ISO_8,0,5,56,103,2883588480
7117,7,Jits_ISO_8,1,5,80,127,2883608940
7117,7,Jits_ISO_8,2,1,48,44,2883621720
7117,7,Jits_ISO_8,3,5,63,98,2883669420
7117,7,Jits_ISO_8,0,1,48,38,2884388920
7117,7,Jits_ISO_8,1,5,80,127,2884469060
7117,7,Jits_ISO_8,2,5,56,103,2884479476
7117,7,Jits_ISO_8,3,5,63,98,2884488616
7117,7,Jits_ISO_8,0,1,48,38,2885222288
7117,7,Jits_ISO_8,1,5,56,103,2885228840
7117,7,Jits_ISO_8,2,5,80,127,2885268856
7117,7,Jits_ISO_8,3,5,63,98,2885298456
7117,7,Jits_ISO_8,0,1,48,41,2885978108
7117,7,Jits_ISO_8,1,5,56,103,2885998812
7117,7,Jits_ISO_8,2,5,63,98,2886028788
7117,7,Jits_ISO_8,3,5,80,127,2886068724
7117,7,Jits_ISO_8,0,5,80,127,2886748552
7117,7,Jits_ISO_8,1,5,63,98,2886798684
7117,7,Jits_ISO_8,2,1,48,39,2886802700
7117,7,Jits_ISO_8,3,5,56,103,2886819208
7117,7,Jits_ISO_8,0,1,48,47,2887536692
7117,7,Jits_ISO_8,1,5,56,103,2887578908
7117,7,Jits_ISO_8,2,5,80,127,2887648652
7117,7,Jits_ISO_8,3,5,63,98,2887709120
7117,7,Jits_ISO_8,0,1,48,43,2888328772
7117,7,Jits_ISO_8,1,5,80,127,2888378696
7117,7,Jits_ISO_8,2,5,63,98,2888468816
7117,7,Jits_ISO_8,3,5,56,103,2888489300
7117,7,Jits_ISO_8,0,1,48,42,2889130128
7117,7,Jits_ISO_8,1,5,63,98,2889199156
7117,7,Jits_ISO_8,2,5,56,103,2889218272
7117,7,Jits_ISO_8,3,5,80,127,2889259268
7117,7,Jits_ISO_8,0,1,48,37,2889958936
7117,7,Jits_ISO_8,1,5,80,127,2889960200
7117,7,Jits_ISO_8,2,5,63,98,2889979464
7117,7,Jits_ISO_8,3,5,56,103,2890059196
7117,7,Jits_ISO_8,0,1,48,40,2890705180
7117,7,Jits_ISO_8,1,5,63,98,2890749344
7117,7,Jits_ISO_8,2,5,56,103,2890858820
7117,7,Jits_ISO_8,3,5,80,127,2890861960
7117,7,Jits_ISO_8,0,5,63,98,2891568480
7117,7,Jits_ISO_8,1,1,48,46,2891573992
7117,7,Jits_ISO_8,2,5,56,103,2891578816
7117,7,Jits_ISO_8,3,5,80,127,2891581808
7117,7,Jits_ISO_8,0,1,48,46,2892344832
7117,7,Jits_ISO_8,1,5,56,103,2892348684
7117,7,Jits_ISO_8,2,5,80,127,2892468476
7117,7,Jits_ISO_8,3,5,63,98,2892508492
7117,7,Jits_ISO_8,0,1,48,38,2893102436
7117,7,Jits_ISO_8,1,5,56,103,2893169224
7117,7,Jits_ISO_8,2,5,80,127,2893248856
7117,7,Jits_ISO_8,3,5,63,98,2893269392
7117,7,Jits_ISO_8,0,5,56,103,2893968868
7117,7,Jits_ISO_8,1,1,48,38,2893975348
7117,7,Jits_ISO_8,2,5,63,98,2894079432
7117,7,Jits_ISO_8,3,5,80,127,2894082720
7117,7,Jits_ISO_8,0,1,48,39,2894728472
7117,7,Jits_ISO_8,1,5,56,103,2894799444
7117,7,Jits_ISO_8,2,5,80,127,2894829104
7117,7,Jits_ISO_8,3,5,63,98,2894849416
7117,7,Jits_ISO_8,0,1,48,47,2895463436
7117,7,Jits_ISO_8,1,5,63,98,2895578536
7117,7,Jits_ISO_8,2,5,56,103,2895588732
7117,7,Jits_ISO_8,3,5,80,127,2895599224
7117,7,Jits_ISO_8,0,1,48,37,2896248460
7117,7,Jits_ISO_8,1,5,80,127,2896369244
7117,7,Jits_ISO_8,2,5,56,103,2896419300
7117,7,Jits_ISO_8,3,5,63,98,2896459088
7117,7,Jits_ISO_8,0,1,48,33,2897057656
7117,7,Jits_ISO_8,1,5,80,127,2897189156
7117,7,Jits_ISO_8,2,5,63,98,2897208644
7117,7,Jits_ISO_8,3,5,56,103,2897258844
7117,7,Jits_ISO_8,0,1,48,42,2897921016
7117,7,Jits_ISO_8,1,5,80,127,2897999292
7117,7,Jits_ISO_8,2,5,56,103,2898029104
7117,7,Jits_ISO_8,3,5,63,98,2898098412
7117,7,Jits_ISO_8,0,1,48,33,2898786992
7117,7,Jits_ISO_8,1,5,56,103,2898849200
7117,7,Jits_ISO_8,2,5,80,127,2898859324
7117,7,Jits_ISO_8,3,5,63,98,2898899320
7117,7,Jits_ISO_8,0,5,56,103,2899558640
7117,7,Jits_ISO_8,1,5,63,98,2899579252
7117,7,Jits_ISO_8,2,1,48,33,2899617892
7117,7,Jits_ISO_8,3,5,80,127,2899649000
7117,7,Jits_ISO_8,0,1,48,33,2900332552
7117,7,Jits_ISO_8,1,5,63,98,2900379256
7117,7,Jits_ISO_8,2,5,80,127,2900439336
7117,7,Jits_ISO_8,3,5,56,103,2900458824
7117,7,Jits_ISO_8,0,5,80,127,2901168484
7117,7,Jits_ISO_8,1,1,48,38,2901197240
7117,7,Jits_ISO_8,2,5,56,103,2901199128
7117,7,Jits_ISO_8,3,5,63,98,2901229024
7117,7,Jits_ISO_8,0,1,48,36,2901961052
7117,7,Jits_ISO_8,1,5,56,103,2901969168
7117,7,Jits_ISO_8,2,5,63,98,2902028664
7117,7,Jits_ISO_8,3,5,80,127,2902089188
7117,7,Jits_ISO_8,0,1,48,39,2902741032
7117,7,Jits_ISO_8,1,5,80,127,2902788484
7117,7,Jits_ISO_8,2,5,56,103,2902809240
7117,7,Jits_ISO_8,3,5,63,98,2902878488
7117,7,Jits_ISO_8,0,1,48,35,2903500652
7117,7,Jits_ISO_8,1,5,80,127,2903589244
7117,7,Jits_ISO_8,2,5,63,98,2903608568
7117,7,Jits_ISO_8,3,5,56,103,2903639512
7117,7,Jits_ISO_8,0,5,80,127,2904378772
7117,7,Jits_ISO_8,1,1,48,38,2904389836
7117,7,Jits_ISO_8,2,5,63,98,2904399300
7117,7,Jits_ISO_8,3,5,56,103,2904458716
7117,7,Jits_ISO_8,0,5,80,127,2905178344
7117,7,Jits_ISO_8,1,1,48,30,2905200344
7117,7,Jits_ISO_8,2,5,56,103,2905278888
7117,7,Jits_ISO_8,3,5,63,98,2905308552
7117,7,Jits_ISO_8,0,5,63,98,2905969008
7117,7,Jits_ISO_8,1,1,48,40,2905999100
7117,7,Jits_ISO_8,2,5,80,127,2906019056
7117,7,Jits_ISO_8,3,5,56,103,2906038616
7117,7,Jits_ISO_8,0,1,48,40,2906792204
7117,7,Jits_ISO_8,1,5,80,127,2906808644
7117,7,Jits_ISO_8,2,5,56,103,2906839364
7117,7,Jits_ISO_8,3,5,63,98,2906842504
7117,7,Jits_ISO_8,0,1,48,40,2907559244
7117,7,Jits_ISO_8,1,5,63,98,2907639288
7117,7,Jits_ISO_8,2,5,56,103,2907679212
7117,7,Jits_ISO_8,3,5,80,127,2907698576
7117,7,Jits_ISO_8,0,1,48,44,2908318276
7117,7,Jits_ISO_8,1,5,80,127,2908378464
7117,7,Jits_ISO_8,2,5,63,98,2908459248
7117,7,Jits_ISO_8,3,5,56,103,2908499260
7117,7,Jits_ISO_8,0,1,48,47,2909188864
7117,7,Jits_ISO_8,1,5,63,98,2909198632
7117,7,Jits_ISO_8,2,5,80,127,2909278528
7117,7,Jits_ISO_8,3,5,56,103,2909299200
7117,7,Jits_ISO_8,0,1,48,43,2909918528
7117,7,Jits_ISO_8,1,5,56,103,2910039264
7117,7,Jits_ISO_8,2,5,63,98,2910048560
7117,7,Jits_ISO_8,3,5,80,127,2910088500
7117,7,Jits_ISO_8,0,1,48,48,2910724896
7117,7,Jits_ISO_8,1,5,56,103,2910759268
7117,7,Jits_ISO_8,2,5,80,127,2910762484
7117,7,Jits_ISO_8,3,5,63,98,2910898684
7117,7,Jits_ISO_8,0,1,48,47,2911484808
7117,7,Jits_ISO_8,1,5,56,103,2911548852
7117,7,Jits_ISO_8,2,5,63,98,2911639048
7117,7,Jits_ISO_8,3,5,80,127,2911708432
7117,7,Jits_ISO_8,0,1,48,38,2912264292
7117,7,Jits_ISO_8,1,5,63,98,2912429308
7117,7,Jits_ISO_8,2,5,80,127,2912432676
7117,7,Jits_ISO_8,3,5,56,103,2912488956
7117,7,Jits_ISO_8,0,1,48,46,2913115268
7117,7,Jits_ISO_8,1,5,80,127,2913269252
7117,7,Jits_ISO_8,2,5,56,103,2913288592
7117,7,Jits_ISO_8,3,5,63,98,2913299012
7117,7,Jits_ISO_8,0,1,48,43,2913969760
7117,7,Jits_ISO_8,1,5,56,103,2913978776
7117,7,Jits_ISO_8,2,5,63,98,2913988976
7117,7,Jits_ISO_8,3,5,80,127,2914058504
7117,7,Jits_ISO_8,0,1,48,38,2914684720
7117,7,Jits_ISO_8,1,5,80,127,2914778484
7117,7,Jits_ISO_8,2,5,56,103,2914828600
7117,7,Jits_ISO_8,3,5,63,98,2914879048
7117,7,Jits_ISO_8,0,1,48,47,2915530740
7117,7,Jits_ISO_8,1,5,56,103,2915659048
7117,7,Jits_ISO_8,2,5,63,98,2915669392
7117,7,Jits_ISO_8,3,5,80,127,2915709408
7117,7,Jits_ISO_8,0,5,56,103,2916398400
7117,7,Jits_ISO_8,1,5,63,98,2916439388
7117,7,Jits_ISO_8,2,1,48,42,2916446488
7117,7,Jits_ISO_8,3,5,80,127,2916488464
7117,7,Jits_ISO_8,0,5,80,127,2917159384
7117,7,Jits_ISO_8,1,5,56,103,2917208320
7117,7,Jits_ISO_8,2,5,63,98,2917228928
7117,7,Jits_ISO_8,3,1,48,40,2917292724
7117,7,Jits_ISO_8,0,5,80,127,2917969372
7117,7,Jits_ISO_8,1,5,63,98,2918028864
7117,7,Jits_ISO_8,2,1,48,47,2918051016
7117,7,Jits_ISO_8,3,5,56,103,2918108504
7117,7,Jits_ISO_8,0,5,80,127,2918748716
7117,7,Jits_ISO_8,1,5,56,103,2918788360
7117,7,Jits_ISO_8,2,5,63,98,2918808892
7117,7,Jits_ISO_8,3,1,48,40,2918895384
7117,7,Jits_ISO_8,0,5,56,103,2919598632
7117,7,Jits_ISO_8,1,5,80,127,2919608828
7117,7,Jits_ISO_8,2,5,63,98,2919648840
7117,7,Jits_ISO_8,3,1,48,35,2919732140
7117,7,Jits_ISO_8,0,1,48,47,2920452712
7117,7,Jits_ISO_8,1,5,56,103,2920468928
7117,7,Jits_ISO_8,2,5,63,98,2920508892
7117,7,Jits_ISO_8,3,5,80,127,2920512180
7117,7,Jits_ISO_8,0,5,63,98,2921158956
7117,7,Jits_ISO_8,1,5,80,127,2921198896
7117,7,Jits_ISO_8,2,5,56,103,2921268824
7117,7,Jits_ISO_8,3,1,48,44,2921279592
7117,7,Jits_ISO_8,0,5,63,98,2921948400
7117,7,Jits_ISO_8,1,5,56,103,2922029420
7117,7,Jits_ISO_8,2,1,48,41,2922080564
7117,7,Jits_ISO_8,3,5,80,127,2922088980
7117,7,Jits_ISO_8,0,5,80,127,2922758372
7117,7,Jits_ISO_8,1,5,63,98,2922808752
7117,7,Jits_ISO_8,2,5,56,103,2922839324
7117,7,Jits_ISO_8,3,1,48,46,2922884692
7117,7,Jits_ISO_8,0,5,56,103,2923549028
7117,7,Jits_ISO_8,1,5,63,98,2923599108
7117,7,Jits_ISO_8,2,5,80,127,2923608332
7117,7,Jits_ISO_8,3,1,48,38,2923691756
7117,7,Jits_ISO_8,0,5,56,103,2924358888
7117,7,Jits_ISO_8,1,1,48,43,2924445164
7117,7,Jits_ISO_8,2,5,63,98,2924468796
7117,7,Jits_ISO_8,3,5,80,127,2924489180
7117,7,Jits_ISO_8,0,5,63,98,2925158828
7117,7,Jits_ISO_8,1,5,80,127,2925208960
7117,7,Jits_ISO_8,2,1,48,48,2925282352
7117,7,Jits_ISO_8,3,5,56,103,2925299160
7117,7,Jits_ISO_8,0,5,63,98,2925949248
7117,7,Jits_ISO_8,1,5,80,127,2925978924
7117,7,Jits_ISO_8,2,1,48,29,2926064148
7117,7,Jits_ISO_8,3,5,56,103,2926068972
7117,7,Jits_ISO_8,0,5,63,98,2926749028
7117,7,Jits_ISO_8,1,5,56,103,2926759224
7117,7,Jits_ISO_8,2,1,48,35,2926851716
7117,7,Jits_ISO_8,3,5,80,127,2926858716
7117,7,Jits_ISO_8,0,5,63,98,2927649128
7117,7,Jits_ISO_8,1,1,48,33,2927660592
7117,7,Jits_ISO_8,2,5,80,127,2927678824
7117,7,Jits_ISO_8,3,5,56,103,2927708648
7117,7,Jits_ISO_8,0,5,80,127,2928469548
7117,7,Jits_ISO_8,1,1,48,45,2928477796
7117,7,Jits_ISO_8,2,5,63,98,2928479292
7117,7,Jits_ISO_8,3,5,56,103,2928509416
7117,7,Jits_ISO_8,0,5,80,127,2929168860
7117,7,Jits_ISO_8,1,5,63,98,2929189196
7117,7,Jits_ISO_8,2,5,56,103,2929239772
7117,7,Jits_ISO_8,3,1,48,44,2929254728
7117,7,Jits_ISO_8,0,5,63,98,2929999324
7117,7,Jits_ISO_8,1,5,80,127,2930058744
7117,7,Jits_ISO_8,2,1,48,44,2930077164
7117,7,Jits_ISO_8,3,5,56,103,2930079048
7117,7,Jits_ISO_8,0,5,63,98,2930758880
7117,7,Jits_ISO_8,1,5,56,103,2930809232
7117,7,Jits_ISO_8,2,5,80,127,2930818528
7117,7,Jits_ISO_8,3,1,48,35,2930936860
7117,7,Jits_ISO_8,0,5,56,103,2931588624
7117,7,Jits_ISO_8,1,5,80,127,2931598892
7117,7,Jits_ISO_8,2,1,48,43,2931680308
7117,7,Jits_ISO_8,3,5,63,98,2931698912
7117,7,Jits_ISO_8,0,5,80,127,2932349164
7117,7,Jits_ISO_8,1,5,63,98,2932358684
7117,7,Jits_ISO_8,2,1,48,42,2932498008
7117,7,Jits_ISO_8,3,5,56,103,2932508972
7117,7,Jits_ISO_8,0,5,63,98,2933159148
7117,7,Jits_ISO_8,1,5,80,127,2933199312
7117,7,Jits_ISO_8,2,5,56,103,2933279180
7117,7,Jits_ISO_8,3,1,48,34,2933285920
7117,7,Jits_ISO_8,0,5,56,103,2933948816
7117,7,Jits_ISO_8,1,1,48,43,2934001232
7117,7,Jits_ISO_8,2,5,80,127,2934048988
7117,7,Jits_ISO_8,3,5,63,98,2934068720
7117,7,Jits_ISO_8,0,5,80,127,2934808928
7117,7,Jits_ISO_8,1,5,56,103,2934819128
7117,7,Jits_ISO_8,2,1,48,42,2934840776
7117,7,Jits_ISO_8,3,5,63,98,2934909428
7117,7,Jits_ISO_8,0,5,56,103,2935608680
7117,7,Jits_ISO_8,1,5,63,98,2935629216
7117,7,Jits_ISO_8,2,1,48,46,2935700740
7117,7,Jits_ISO_8,3,5,80,127,2935709004
7117,7,Jits_ISO_8,0,5,63,98,2936359480
7117,7,Jits_ISO_8,1,5,56,103,2936449696
7117,7,Jits_ISO_8,2,5,80,127,2936452608
7117,7,Jits_ISO_8,3,1,48,43,2936519564
7117,7,Jits_ISO_8,0,5,56,103,2937188704
7117,7,Jits_ISO_8,1,5,80,127,2937249020
7117,7,Jits_ISO_8,2,5,63,98,2937259664
7117,7,Jits_ISO_8,3,1,48,37,2937304212
7117,7,Jits_ISO_8,0,1,48,40,2938019184
7117,7,Jits_ISO_8,1,5,80,127,2938038616
7117,7,Jits_ISO_8,2,5,56,103,2938048808
7117,7,Jits_ISO_8,3,5,63,98,2938051948
7117,7,Jits_ISO_8,0,5,56,103,2938798612
7117,7,Jits_ISO_8,1,5,80,127,2938808660
7117,7,Jits_ISO_8,2,1,48,36,2938812676
7117,7,Jits_ISO_8,3,5,63,98,2938829112
7117,7,Jits_ISO_8,0,5,63,98,2939568520
7117,7,Jits_ISO_8,1,1,48,40,2939596880
7117,7,Jits_ISO_8,2,5,80,127,2939629052
7117,7,Jits_ISO_8,3,5,56,103,2939679104
7117,7,Jits_ISO_8,0,1,48,42,2940388276
7117,7,Jits_ISO_8,1,5,63,98,2940448988
7117,7,Jits_ISO_8,2,5,56,103,2940459560
7117,7,Jits_ISO_8,3,5,80,127,2940508624
7117,7,Jits_ISO_8,0,1,48,40,2941125924
7117,7,Jits_ISO_8,1,5,63,98,2941148584
7117,7,Jits_ISO_8,2,5,80,127,2941169044
7117,7,Jits_ISO_8,3,5,56,103,2941179388
7117,7,Jits_ISO_8,0,5,63,98,2941949488
7117,7,Jits_ISO_8,1,5,80,127,2941952848
7117,7,Jits_ISO_8,2,1,48,44,2941967972
7117,7,Jits_ISO_8,3,5,56,103,2941989220
7117,7,Jits_ISO_8,0,1,48,43,2942731088
7117,7,Jits_ISO_8,1,5,63,98,2942818652
7117,7,Jits_ISO_8,2,5,80,127,2942849512
7117,7,Jits_ISO_8,3,5,56,103,2942858660
7117,7,Jits_ISO_8,0,5,56,103,2943569368
7117,7,Jits_ISO_8,1,5,80,127,2943598972
7117,7,Jits_ISO_8,2,5,63,98,2943628720
7117,7,Jits_ISO_8,3,1,48,49,2943684948
7117,7,Jits_ISO_8,0,1,48,44,2944396236
7117,7,Jits_ISO_8,1,5,63,98,2944469700
7117,7,Jits_ISO_8,2,5,56,103,2944509400
7117,7,Jits_ISO_8,3,5,80,127,2944512468
7117,7,Jits_ISO_8,0,1,48,43,2945125072
7117,7,Jits_ISO_8,1,5,80,127,2945168640
7117,7,Jits_ISO_8,2,5,56,103,2945248796
7117,7,Jits_ISO_8,3,5,63,98,2945298924
7117,7,Jits_ISO_8,0,1,48,44,2945870252
7117,7,Jits_ISO_8,1,5,80,127,2945949024
7117,7,Jits_ISO_8,2,5,56,103,2945968420
7117,7,Jits_ISO_8,3,5,63,98,2946058628
7117,7,Jits_ISO_8,0,1,48,44,2946713404
7117,7,Jits_ISO_8,1,5,80,127,2946788812
7117,7,Jits_ISO_8,2,5,63,98,2946828512
7117,7,Jits_ISO_8,3,5,56,103,2946868624
7117,7,Jits_ISO_8,0,1,48,45,2947541220
7117,7,Jits_ISO_8,1,5,63,98,2947558780
7117,7,Jits_ISO_8,2,5,80,127,2947619492
7117,7,Jits_ISO_8,3,5,56,103,2947648932
7117,7,Jits_ISO_8,0,5,56,103,2948358492
7117,7,Jits_ISO_8,1,1,48,43,2948382888
7117,7,Jits_ISO_8,2,5,80,127,2948389308
7117,7,Jits_ISO_8,3,5,63,98,2948479428
7117,7,Jits_ISO_8,0,5,56,103,2949168428
7117,7,Jits_ISO_8,1,1,48,29,2949206320
7117,7,Jits_ISO_8,2,5,80,127,2949279308
7117,7,Jits_ISO_8,3,5,63,98,2949308748
7117,7,Jits_ISO_8,0,1,48,42,2949952756
7117,7,Jits_ISO_8,1,5,56,103,2950018644
7117,7,Jits_ISO_8,2,5,63,98,2950078800
7117,7,Jits_ISO_8,3,5,80,127,2950108476
7117,7,Jits_ISO_8,0,1,48,40,2950722416
7117,7,Jits_ISO_8,1,5,56,103,2950788604
7117,7,Jits_ISO_8,2,5,63,98,2950859248
7117,7,Jits_ISO_8,3,5,80,127,2950878660
7117,7,Jits_ISO_8,0,1,48,43,2951547536
7117,7,Jits_ISO_8,1,5,80,127,2951558572
7117,7,Jits_ISO_8,2,5,63,98,2951578884
7117,7,Jits_ISO_8,3,5,56,103,2951629380
7117,7,Jits_ISO_8,0,9999,9999,9999,2856826992
7117,7,Jits_ISO_8,1,9999,9999,9999,2857626696
7117,7,Jits_ISO_8,2,9999,9999,9999,2858426492
7117,7,Jits_ISO_8,3,9999,9999,9999,2859226208
7117,7,Jits_ISO_8,4,9999,9999,9999,2860026996
7117,7,Jits_ISO_8,5,9999,9999,9999,2860826708
7117,7,Jits_ISO_8,6,9999,9999,9999,2861626444
7117,7,Jits_ISO_8,7,9999,9999,9999,2862426168
7117,7,Jits_ISO_8,8,9999,9999,9999,2863226944
7117,7,Jits_ISO_8,9,9999,9999,9999,2864026716
7117,7,Jits_ISO_8,10,9999,9999,9999,2864826448
7117,7,Jits_ISO_8,11,9999,9999,9999,2865626172
7117,7,Jits_ISO_8,12,9999,9999,9999,2866426952
7117,7,Jits_ISO_8,13,9999,9999,9999,2867226744
7117,7,Jits_ISO_8,14,9999,9999,9999,2868026468
7117,7,Jits_ISO_8,15,9999,9999,9999,2868826184
7117,7,Jits_ISO_8,16,9999,9999,9999,2869626996
7117,7,Jits_ISO_8,17,9999,9999,9999,2870426724
7117,7,Jits_ISO_8,18,9999,9999,9999,2871226436
7117,7,Jits_ISO_8,19,9999,9999,9999,2872026224
7117,7,Jits_ISO_8,20,9999,9999,9999,2872826980
7117,7,Jits_ISO_8,21,9999,9999,9999,2873626688
7117,7,Jits_ISO_8,22,9999,9999,9999,2874426432
7117,7,Jits_ISO_8,23,9999,9999,9999,2875226228
7117,7,Jits_ISO_8,24,9999,9999,9999,2876026984
7117,7,Jits_ISO_8,25,9999,9999,9999,2876826692
7117,7,Jits_ISO_8,26,9999,9999,9999,2877626420
7117,7,Jits_ISO_8,27,9999,9999,9999,2878426220
7117,7,Jits_ISO_8,28,9999,9999,9999,2879226992
7117,7,Jits_ISO_8,29,9999,9999,9999,2880026724
7117,7,Jits_ISO_8,30,9999,9999,9999,2880826456
7117,7,Jits_ISO_8,31,9999,9999,9999,2881626164
7117,7,Jits_ISO_8,32,9999,9999,9999,2882426936
7117,7,Jits_ISO_8,33,9999,9999,9999,2883226712
7117,7,Jits_ISO_8,34,9999,9999,9999,2884026436
7117,7,Jits_ISO_8,35,9999,9999,9999,2884826164
7117,7,Jits_ISO_8,36,9999,9999,9999,2885627000
7117,7,Jits_ISO_8,37,9999,9999,9999,2886426712
7117,7,Jits_ISO_8,38,9999,9999,9999,2887226440
7117,7,Jits_ISO_8,39,9999,9999,9999,2888026168
7117,7,Jits_ISO_8,40,9999,9999,9999,2888827000
7117,7,Jits_ISO_8,41,9999,9999,9999,2889626708
7117,7,Jits_ISO_8,42,9999,9999,9999,2890426488
7117,7,Jits_ISO_8,43,9999,9999,9999,2891226184
7117,7,Jits_ISO_8,44,9999,9999,9999,2892027000
7117,7,Jits_ISO_8,45,9999,9999,9999,2892826708
7117,7,Jits_ISO_8,46,9999,9999,9999,2893626448
7117,7,Jits_ISO_8,47,9999,9999,9999,2894426224
7117,7,Jits_ISO_8,48,9999,9999,9999,2895226996
7117,7,Jits_ISO_8,49,9999,9999,9999,2896026696
7117,7,Jits_ISO_8,50,9999,9999,9999,2896826452
7117,7,Jits_ISO_8,51,9999,9999,9999,2897626212
7117,7,Jits_ISO_8,52,9999,9999,9999,2898426968
7117,7,Jits_ISO_8,53,9999,9999,9999,2899226680
7117,7,Jits_ISO_8,54,9999,9999,9999,2900026420
7117,7,Jits_ISO_8,55,9999,9999,9999,2900826212
7117,7,Jits_ISO_8,56,9999,9999,9999,2901626964
7117,7,Jits_ISO_8,57,9999,9999,9999,2902426740
7117,7,Jits_ISO_8,58,9999,9999,9999,2903226448
7117,7,Jits_ISO_8,59,9999,9999,9999,2904026208
7117,7,Jits_ISO_8,60,9999,9999,9999,2904826964
7117,7,Jits_ISO_8,61,9999,9999,9999,2905626696
7117,7,Jits_ISO_8,62,9999,9999,9999,2906426444
7117,7,Jits_ISO_8,63,9999,9999,9999,2907226220
7117,7,Jits_ISO_8,64,9999,9999,9999,2908026984
7117,7,Jits_ISO_8,65,9999,9999,9999,2908826696
7117,7,Jits_ISO_8,66,9999,9999,9999,2909626484
7117,7,Jits_ISO_8,67,9999,9999,9999,2910426200
7117,7,Jits_ISO_8,68,9999,9999,9999,2911226944
7117,7,Jits_ISO_8,69,9999,9999,9999,2912026728
7117,7,Jits_ISO_8,70,9999,9999,9999,2912826456
7117,7,Jits_ISO_8,71,9999,9999,9999,2913626172
7117,7,Jits_ISO_8,72,9999,9999,9999,2914427004
7117,7,Jits_ISO_8,73,9999,9999,9999,2915226712
7117,7,Jits_ISO_8,74,9999,9999,9999,2916026432
7117,7,Jits_ISO_8,75,9999,9999,9999,2916826220
7117,7,Jits_ISO_8,76,9999,9999,9999,2917626984
7117,7,Jits_ISO_8,77,9999,9999,9999,2918426712
7117,7,Jits_ISO_8,78,9999,9999,9999,2919226452
7117,7,Jits_ISO_8,79,9999,9999,9999,2920026176
7117,7,Jits_ISO_8,80,9999,9999,9999,2920826948
7117,7,Jits_ISO_8,81,9999,9999,9999,2921626728
7117,7,Jits_ISO_8,82,9999,9999,9999,2922426440
7117,7,Jits_ISO_8,83,9999,9999,9999,2923226220
7117,7,Jits_ISO_8,84,9999,9999,9999,2924026988
7117,7,Jits_ISO_8,85,9999,9999,9999,2924826712
7117,7,Jits_ISO_8,86,9999,9999,9999,2925626456
7117,7,Jits_ISO_8,87,9999,9999,9999,2926426160
7117,7,Jits_ISO_8,88,9999,9999,9999,2927226988
7117,7,Jits_ISO_8,89,9999,9999,9999,2928026704
7117,7,Jits_ISO_8,90,9999,9999,9999,2928826424
7117,7,Jits_ISO_8,91,9999,9999,9999,2929626220
7117,7,Jits_ISO_8,92,9999,9999,9999,2930426996
7117,7,Jits_ISO_8,93,9999,9999,9999,2931226700
7117,7,Jits_ISO_8,94,9999,9999,9999,2932026432
7117,7,Jits_ISO_8,95,9999,9999,9999,2932826228
7117,7,Jits_ISO_8,96,9999,9999,9999,2933627000
7117,7,Jits_ISO_8,97,9999,9999,9999,2934426708
7117,7,Jits_ISO_8,98,9999,9999,9999,2935226436
7117,7,Jits_ISO_8,99,9999,9999,9999,2936026164
7117,7,Jits_ISO_8,100,9999,9999,9999,2936827000
7117,7,Jits_ISO_8,101,9999,9999,9999,2937626708
7117,7,Jits_ISO_8,102,9999,9999,9999,2938426448
7117,7,Jits_ISO_8,103,9999,9999,9999,2939226232
7117,7,Jits_ISO_8,104,9999,9999,9999,2940027004
7117,7,Jits_ISO_8,105,9999,9999,9999,2940826696
7117,7,Jits_ISO_8,106,9999,9999,9999,2941626476
7117,7,Jits_ISO_8,107,9999,9999,9999,2942426164
7117,7,Jits_ISO_8,108,9999,9999,9999,2943226996
7117,7,Jits_ISO_8,109,9999,9999,9999,2944026704
7117,7,Jits_ISO_8,110,9999,9999,9999,2944826448
7117,7,Jits_ISO_8,111,9999,9999,9999,2945626164
7117,7,Jits_ISO_8,112,9999,9999,9999,2946426992
7117,7,Jits_ISO_8,113,9999,9999,9999,2947226700
7117,7,Jits_ISO_8,114,9999,9999,9999,2948026484
7117,7,Jits_ISO_8,115,9999,9999,9999,2948826192
7117,7,Jits_ISO_8,116,9999,9999,9999,2949626968
7117,7,Jits_ISO_8,117,9999,9999,9999,2950426696
7117,7,Jits_ISO_8,118,9999,9999,9999,2951226424
7117,7,Jits_ISO_8,119,9999,9999,9999,2952026200
7118,19,Jits_Linear_5,0,5,56,103,2959754588
7118,19,Jits_Linear_5,1,5,63,98,2959757684
7118,19,Jits_Linear_5,2,5,80,127,2959761028
7118,19,Jits_Linear_5,0,5,56,103,2960234824
7118,19,Jits_Linear_5,1,5,63,98,2960237996
7118,19,Jits_Linear_5,2,5,80,127,2960241044
7118,19,Jits_Linear_5,0,1,48,32,2960695264
7118,19,Jits_Linear_5,1,5,56,103,2960715220
7118,19,Jits_Linear_5,2,5,80,127,2960725344
7118,19,Jits_Linear_5,3,5,63,98,2960744756
7118,19,Jits_Linear_5,0,5,63,98,2961145360
7118,19,Jits_Linear_5,1,5,80,127,2961174888
7118,19,Jits_Linear_5,2,5,56,103,2961185308
7118,19,Jits_Linear_5,3,1,48,38,2961212116
7118,19,Jits_Linear_5,0,1,48,46,2961625604
7118,19,Jits_Linear_5,1,5,80,127,2961684748
7118,19,Jits_Linear_5,2,5,56,103,2961695316
7118,19,Jits_Linear_5,3,5,63,98,2961724720
7118,19,Jits_Linear_5,0,5,63,98,2962165192
7118,19,Jits_Linear_5,1,1,48,39,2962185996
7118,19,Jits_Linear_5,2,5,56,103,2962194936
7118,19,Jits_Linear_5,3,5,80,127,2962205280
7118,19,Jits_Linear_5,0,5,56,103,2962605396
7118,19,Jits_Linear_5,1,5,63,98,2962654628
7118,19,Jits_Linear_5,2,5,80,127,2962675160
7118,19,Jits_Linear_5,3,1,48,41,2962705852
7118,19,Jits_Linear_5,0,5,80,127,2963094760
7118,19,Jits_Linear_5,1,1,48,45,2963144892
7118,19,Jits_Linear_5,2,5,63,98,2963146228
7118,19,Jits_Linear_5,3,5,56,103,2963185044
7118,19,Jits_Linear_5,0,5,56,103,2963585320
7118,19,Jits_Linear_5,1,5,63,98,2963615072
7118,19,Jits_Linear_5,2,1,48,45,2963638940
7118,19,Jits_Linear_5,3,5,80,127,2963684748
7118,19,Jits_Linear_5,0,5,56,103,2964075056
7118,19,Jits_Linear_5,1,1,48,45,2964119156
7118,19,Jits_Linear_5,2,5,80,127,2964135220
7118,19,Jits_Linear_5,3,5,63,98,2964165192
7118,19,Jits_Linear_5,0,5,56,103,2964574540
7118,19,Jits_Linear_5,1,5,63,98,2964584736
7118,19,Jits_Linear_5,2,1,48,43,2964611672
7118,19,Jits_Linear_5,3,5,80,127,2964624668
7118,19,Jits_Linear_5,0,5,63,98,2965065172
7118,19,Jits_Linear_5,1,1,48,44,2965072552
7118,19,Jits_Linear_5,2,5,80,127,2965145112
7118,19,Jits_Linear_5,3,5,56,103,2965155308
7118,19,Jits_Linear_5,0,5,63,98,2965615060
7118,19,Jits_Linear_5,1,1,48,39,2965629864
7118,19,Jits_Linear_5,2,5,56,103,2965654992
7118,19,Jits_Linear_5,3,5,80,127,2965658060
7118,19,Jits_Linear_5,0,5,56,103,2966074732
7118,19,Jits_Linear_5,1,5,63,98,2966085228
7118,19,Jits_Linear_5,2,5,80,127,2966125168
7118,19,Jits_Linear_5,3,1,48,34,2966163804
7118,19,Jits_Linear_5,0,5,56,103,2966565364
7118,19,Jits_Linear_5,1,5,63,98,2966568428
7118,19,Jits_Linear_5,2,5,80,127,2966584552
7118,19,Jits_Linear_5,3,1,48,46,2966605800
7118,19,Jits_Linear_5,0,1,48,34,2967047836
7118,19,Jits_Linear_5,1,5,80,127,2967085352
7118,19,Jits_Linear_5,2,5,56,103,2967094576
7118,19,Jits_Linear_5,3,5,63,98,2967165288
7118,19,Jits_Linear_5,0,5,63,98,2967585316
7118,19,Jits_Linear_5,1,1,48,49,2967590552
7118,19,Jits_Linear_5,2,5,56,103,2967604524
7118,19,Jits_Linear_5,3,5,80,127,2967684544
7118,19,Jits_Linear_5,0,1,48,45,2968083480
7118,19,Jits_Linear_5,1,5,56,103,2968105400
7118,19,Jits_Linear_5,2,5,80,127,2968145192
7118,19,Jits_Linear_5,3,5,63,98,2968154416
7118,19,Jits_Linear_5,0,1,48,49,2968544872
7118,19,Jits_Linear_5,1,5,80,127,2968604988
7118,19,Jits_Linear_5,2,5,63,98,2968634912
7118,19,Jits_Linear_5,3,5,56,103,2968674616
7118,19,Jits_Linear_5,0,1,48,42,2969074012
7118,19,Jits_Linear_5,1,5,56,103,2969134448
7118,19,Jits_Linear_5,2,5,63,98,2969165096
7118,19,Jits_Linear_5,3,5,80,127,2969215284
7118,19,Jits_Linear_5,0,1,48,31,2969614684
7118,19,Jits_Linear_5,1,5,80,127,2969645372
7118,19,Jits_Linear_5,2,5,56,103,2969685240
7118,19,Jits_Linear_5,3,5,63,98,2969694612
7118,19,Jits_Linear_5,0,1,48,39,2970118184
7118,19,Jits_Linear_5,1,5,80,127,2970145108
7118,19,Jits_Linear_5,2,5,63,98,2970185072
7118,19,Jits_Linear_5,3,5,56,103,2970244328
7118,19,Jits_Linear_5,0,5,56,103,2970665204
7118,19,Jits_Linear_5,1,5,80,127,2970674504
7118,19,Jits_Linear_5,2,1,48,31,2970677400
7118,19,Jits_Linear_5,3,5,63,98,2970754368
7118,19,Jits_Linear_5,0,5,80,127,2971184608
7118,19,Jits_Linear_5,1,1,48,34,2971201584
7118,19,Jits_Linear_5,2,5,63,98,2971244920
7118,19,Jits_Linear_5,3,5,56,103,2971274672
7118,19,Jits_Linear_5,0,5,56,103,2971704544
7118,19,Jits_Linear_5,1,1,48,37,2971709756
7118,19,Jits_Linear_5,2,5,80,127,2971765080
7118,19,Jits_Linear_5,3,5,63,98,2971804944
7118,19,Jits_Linear_5,0,1,48,37,2972230276
7118,19,Jits_Linear_5,1,5,56,103,2972285380
7118,19,Jits_Linear_5,2,5,63,98,2972294456
7118,19,Jits_Linear_5,3,5,80,127,2972297968
7118,19,Jits_Linear_5,0,1,48,40,2972754248
7118,19,Jits_Linear_5,1,5,80,127,2972764536
7118,19,Jits_Linear_5,2,5,63,98,2972854584
7118,19,Jits_Linear_5,3,5,56,103,2972864928
7118,19,Jits_Linear_5,0,5,56,103,2973295004
7118,19,Jits_Linear_5,1,5,63,98,2973298104
7118,19,Jits_Linear_5,2,5,80,127,2973301300
7118,19,Jits_Linear_5,3,1,48,34,2973322328
7118,19,Jits_Linear_5,0,1,48,38,2973815872
7118,19,Jits_Linear_5,1,5,80,127,2973845116
7118,19,Jits_Linear_5,2,5,63,98,2973895244
7118,19,Jits_Linear_5,3,5,56,103,2973924760
7118,19,Jits_Linear_5,0,5,56,103,2974355076
7118,19,Jits_Linear_5,1,1,48,39,2974356192
7118,19,Jits_Linear_5,2,5,80,127,2974365044
7118,19,Jits_Linear_5,3,5,63,98,2974434652
7118,19,Jits_Linear_5,0,1,48,39,2974835492
7118,19,Jits_Linear_5,1,5,56,103,2974894336
7118,19,Jits_Linear_5,2,5,63,98,2974915168
7118,19,Jits_Linear_5,3,5,80,127,2974975396
7118,19,Jits_Linear_5,0,1,48,38,2975395120
7118,19,Jits_Linear_5,1,5,80,127,2975424816
7118,19,Jits_Linear_5,2,5,63,98,2975494560
7118,19,Jits_Linear_5,3,5,56,103,2975515092
7118,19,Jits_Linear_5,0,1,48,36,2975887160
7118,19,Jits_Linear_5,1,5,80,127,2975984968
7118,19,Jits_Linear_5,2,5,56,103,2975995296
7118,19,Jits_Linear_5,3,5,63,98,2976004372
7118,19,Jits_Linear_5,0,1,48,34,2976440852
7118,19,Jits_Linear_5,1,5,80,127,2976514540
7118,19,Jits_Linear_5,2,5,56,103,2976535076
7118,19,Jits_Linear_5,3,5,63,98,2976604468
7118,19,Jits_Linear_5,0,1,48,33,2976969840
7118,19,Jits_Linear_5,1,5,56,103,2977065272
7118,19,Jits_Linear_5,2,5,80,127,2977095008
7118,19,Jits_Linear_5,3,5,63,98,2977114424
7118,19,Jits_Linear_5,0,1,48,37,2977525052
7118,19,Jits_Linear_5,1,5,63,98,2977605116
7118,19,Jits_Linear_5,2,5,56,103,2977665348
7118,19,Jits_Linear_5,3,5,80,127,2977695096
7118,19,Jits_Linear_5,0,1,48,37,2978072604
7118,19,Jits_Linear_5,1,5,63,98,2978144740
7118,19,Jits_Linear_5,2,5,80,127,2978148028
7118,19,Jits_Linear_5,3,5,56,103,2978235008
7118,19,Jits_Linear_5,0,1,48,38,2978631636
7118,19,Jits_Linear_5,1,5,56,103,2978715068
7118,19,Jits_Linear_5,2,5,63,98,2978744656
7118,19,Jits_Linear_5,3,5,80,127,2978784520
7118,19,Jits_Linear_5,0,1,48,45,2979220416
7118,19,Jits_Linear_5,1,5,63,98,2979264880
7118,19,Jits_Linear_5,2,5,56,103,2979304896
7118,19,Jits_Linear_5,3,5,80,127,2979325192
7118,19,Jits_Linear_5,0,1,48,41,2979712012
7118,19,Jits_Linear_5,1,5,63,98,2979825092
7118,19,Jits_Linear_5,2,5,56,103,2979864884
7118,19,Jits_Linear_5,3,5,80,127,2979875328
7118,19,Jits_Linear_5,0,1,48,41,2980353416
7118,19,Jits_Linear_5,1,5,80,127,2980355060
7118,19,Jits_Linear_5,2,5,63,98,2980425000
7118,19,Jits_Linear_5,3,5,56,103,2980444484
7118,19,Jits_Linear_5,0,1,48,28,2980886040
7118,19,Jits_Linear_5,1,5,56,103,2980905348
7118,19,Jits_Linear_5,2,5,80,127,2980925056
7118,19,Jits_Linear_5,3,5,63,98,2980964848
7118,19,Jits_Linear_5,0,1,48,33,2981392004
7118,19,Jits_Linear_5,1,5,63,98,2981474856
7118,19,Jits_Linear_5,2,5,80,127,2981495080
7118,19,Jits_Linear_5,3,5,56,103,2981535020
7118,19,Jits_Linear_5,0,1,48,36,2981917768
7118,19,Jits_Linear_5,1,5,63,98,2982035060
7118,19,Jits_Linear_5,2,5,56,103,2982055300
7118,19,Jits_Linear_5,3,5,80,127,2982064596
7118,19,Jits_Linear_5,0,1,48,33,2982519144
7118,19,Jits_Linear_5,1,5,80,127,2982594924
7118,19,Jits_Linear_5,2,5,56,103,2982615368
7118,19,Jits_Linear_5,3,5,63,98,2982645044
7118,19,Jits_Linear_5,0,1,48,29,2983035540
7118,19,Jits_Linear_5,1,5,56,103,2983235024
7118,19,Jits_Linear_5,2,5,80,127,2983238016
7118,19,Jits_Linear_5,3,5,63,98,2983255484
7118,19,Jits_Linear_5,0,5,63,98,2983725292
7118,19,Jits_Linear_5,1,1,48,43,2983752596
7118,19,Jits_Linear_5,2,5,56,103,2983755184
7118,19,Jits_Linear_5,3,5,80,127,2983814528
7118,19,Jits_Linear_5,0,1,48,36,2984240592
7118,19,Jits_Linear_5,1,5,63,98,2984374580
7118,19,Jits_Linear_5,2,5,56,103,2984384776
7118,19,Jits_Linear_5,3,5,80,127,2984395048
7118,19,Jits_Linear_5,0,1,48,35,2984861656
7118,19,Jits_Linear_5,1,5,56,103,2984894888
7118,19,Jits_Linear_5,2,5,80,127,2984924640
7118,19,Jits_Linear_5,3,5,63,98,2984934912
7118,19,Jits_Linear_5,0,1,48,39,2985388328
7118,19,Jits_Linear_5,1,5,63,98,2985505072
7118,19,Jits_Linear_5,2,5,56,103,2985515420
7118,19,Jits_Linear_5,3,5,80,127,2985534832
7118,19,Jits_Linear_5,0,1,48,34,2985992520
7118,19,Jits_Linear_5,1,5,56,103,2986004976
7118,19,Jits_Linear_5,2,5,63,98,2986065320
7118,19,Jits_Linear_5,3,5,80,127,2986068756
7118,19,Jits_Linear_5,0,1,48,32,2986555452
7118,19,Jits_Linear_5,1,5,80,127,2986605000
7118,19,Jits_Linear_5,2,5,56,103,2986615196
7118,19,Jits_Linear_5,3,5,63,98,2986685008
7118,19,Jits_Linear_5,0,1,48,37,2987074840
7118,19,Jits_Linear_5,1,5,80,127,2987184464
7118,19,Jits_Linear_5,2,5,56,103,2987255120
7118,19,Jits_Linear_5,3,5,63,98,2987265540
7118,19,Jits_Linear_5,0,1,48,37,2987793460
7118,19,Jits_Linear_5,1,5,63,98,2987805016
7118,19,Jits_Linear_5,2,5,56,103,2987815312
7118,19,Jits_Linear_5,3,5,80,127,2987834800
7118,19,Jits_Linear_5,0,5,80,127,2988334480
7118,19,Jits_Linear_5,1,1,48,24,2988337076
7118,19,Jits_Linear_5,2,5,63,98,2988394792
7118,19,Jits_Linear_5,3,5,56,103,2988435540
7118,19,Jits_Linear_5,0,1,48,26,2988906372
7118,19,Jits_Linear_5,1,5,56,103,2988965364
7118,19,Jits_Linear_5,2,5,63,98,2988974664
7118,19,Jits_Linear_5,3,5,80,127,2989015336
7118,19,Jits_Linear_5,0,1,48,39,2989441116
7118,19,Jits_Linear_5,1,5,56,103,2989515176
7118,19,Jits_Linear_5,2,5,80,127,2989544912
7118,19,Jits_Linear_5,3,5,63,98,2989595112
7118,19,Jits_Linear_5,0,1,48,28,2990055060
7118,19,Jits_Linear_5,1,5,56,103,2990144796
7118,19,Jits_Linear_5,2,5,63,98,2990184868
7118,19,Jits_Linear_5,3,5,80,127,2990188160
7118,19,Jits_Linear_5,0,1,48,32,2990671936
7118,19,Jits_Linear_5,1,5,56,103,2990734904
7118,19,Jits_Linear_5,2,5,63,98,2990744804
7118,19,Jits_Linear_5,3,5,80,127,2990765712
7118,19,Jits_Linear_5,0,1,48,36,2991237264
7118,19,Jits_Linear_5,1,5,56,103,2991284788
7118,19,Jits_Linear_5,2,5,80,127,2991287708
7118,19,Jits_Linear_5,3,5,63,98,2991324652
7118,19,Jits_Linear_5,0,1,48,37,2991768624
7118,19,Jits_Linear_5,1,5,63,98,2991915440
7118,19,Jits_Linear_5,2,5,56,103,2991945044
7118,19,Jits_Linear_5,3,5,80,127,2991964604
7118,19,Jits_Linear_5,0,1,48,27,2992422520
7118,19,Jits_Linear_5,1,5,80,127,2992484820
7118,19,Jits_Linear_5,2,5,56,103,2992495092
7118,19,Jits_Linear_5,3,5,63,98,2992505140
7118,19,Jits_Linear_5,0,1,48,37,2992943196
7118,19,Jits_Linear_5,1,5,56,103,2993084732
7118,19,Jits_Linear_5,2,5,80,127,2993124896
7118,19,Jits_Linear_5,3,5,63,98,2993154276
7118,19,Jits_Linear_5,0,1,48,32,2993586356
7118,19,Jits_Linear_5,1,5,63,98,2993695156
7118,19,Jits_Linear_5,2,5,80,127,2993705376
7118,19,Jits_Linear_5,3,5,56,103,2993714528
7118,19,Jits_Linear_5,0,1,48,25,2994172260
7118,19,Jits_Linear_5,1,5,56,103,2994274808
7118,19,Jits_Linear_5,2,5,63,98,2994345464
7118,19,Jits_Linear_5,3,5,80,127,2994354688
7118,19,Jits_Linear_5,0,1,48,33,2994816512
7118,19,Jits_Linear_5,1,5,80,127,2994884872
7118,19,Jits_Linear_5,2,5,56,103,2994895220
7118,19,Jits_Linear_5,3,5,63,98,2994945260
7118,19,Jits_Linear_5,0,1,48,32,2995387892
7118,19,Jits_Linear_5,1,5,80,127,2995504740
7118,19,Jits_Linear_5,2,5,56,103,2995564912
7118,19,Jits_Linear_5,3,5,63,98,2995594736
7118,19,Jits_Linear_5,0,1,48,31,2996060752
7118,19,Jits_Linear_5,1,5,56,103,2996114652
7118,19,Jits_Linear_5,2,5,80,127,2996117796
7118,19,Jits_Linear_5,3,5,63,98,2996154804
7118,19,Jits_Linear_5,0,1,48,23,2996657904
7118,19,Jits_Linear_5,1,5,56,103,2996754796
7118,19,Jits_Linear_5,2,5,63,98,2996784572
7118,19,Jits_Linear_5,3,5,80,127,2996794768
7118,19,Jits_Linear_5,0,1,48,29,2997271992
7118,19,Jits_Linear_5,1,5,63,98,2997375284
7118,19,Jits_Linear_5,2,5,80,127,2997384732
7118,19,Jits_Linear_5,3,5,56,103,2997394708
7118,19,Jits_Linear_5,0,1,48,37,2997882736
7118,19,Jits_Linear_5,1,5,80,127,2997934772
7118,19,Jits_Linear_5,2,5,56,103,2997984664
7118,19,Jits_Linear_5,3,5,63,98,2997987880
7118,19,Jits_Linear_5,0,1,48,31,2998505900
7118,19,Jits_Linear_5,1,5,56,103,2998584696
7118,19,Jits_Linear_5,2,5,80,127,2998605216
7118,19,Jits_Linear_5,3,5,63,98,2998615560
7118,19,Jits_Linear_5,0,1,48,19,2999169460
7118,19,Jits_Linear_5,1,5,63,98,2999184776
7118,19,Jits_Linear_5,2,5,56,103,2999214528
7118,19,Jits_Linear_5,3,5,80,127,2999234912
7118,19,Jits_Linear_5,0,1,48,34,2999770732
7118,19,Jits_Linear_5,1,5,56,103,2999814676
7118,19,Jits_Linear_5,2,5,80,127,2999824796
7118,19,Jits_Linear_5,3,5,63,98,2999895536
7118,19,Jits_Linear_5,0,1,48,46,3000411972
7118,19,Jits_Linear_5,1,5,63,98,3000424896
7118,19,Jits_Linear_5,2,5,80,127,3000464836
7118,19,Jits_Linear_5,3,5,56,103,3000504628
7118,19,Jits_Linear_5,0,1,48,45,3001006372
7118,19,Jits_Linear_5,1,5,56,103,3001064836
7118,19,Jits_Linear_5,2,5,63,98,3001075036
7118,19,Jits_Linear_5,3,5,80,127,3001094596
7118,19,Jits_Linear_5,0,1,48,40,3001569728
7118,19,Jits_Linear_5,1,5,63,98,3001734608
7118,19,Jits_Linear_5,2,5,80,127,3001754992
7118,19,Jits_Linear_5,3,5,56,103,3001774552
7118,19,Jits_Linear_5,0,1,48,40,3002275564
7118,19,Jits_Linear_5,1,5,56,103,3002304960
7118,19,Jits_Linear_5,2,5,80,127,3002384744
7118,19,Jits_Linear_5,3,5,63,98,3002395164
7118,19,Jits_Linear_5,0,1,48,44,3002919644
7118,19,Jits_Linear_5,1,5,80,127,3002974600
7118,19,Jits_Linear_5,2,5,63,98,3002984948
7118,19,Jits_Linear_5,3,5,56,103,3003014772
7118,19,Jits_Linear_5,0,1,48,29,3003564340
7118,19,Jits_Linear_5,1,5,63,98,3003565912
7118,19,Jits_Linear_5,2,5,80,127,3003605552
7118,19,Jits_Linear_5,3,5,56,103,3003664736
7118,19,Jits_Linear_5,0,1,48,38,3004160420
7118,19,Jits_Linear_5,1,5,63,98,3004205432
7118,19,Jits_Linear_5,2,5,56,103,3004254664
7118,19,Jits_Linear_5,3,5,80,127,3004285444
7118,19,Jits_Linear_5,0,1,48,32,3004772208
7118,19,Jits_Linear_5,1,5,80,127,3004854516
7118,19,Jits_Linear_5,2,5,63,98,3004864864
7118,19,Jits_Linear_5,3,5,56,103,3004934456
7118,19,Jits_Linear_5,0,1,48,32,3005389380
7118,19,Jits_Linear_5,1,5,80,127,3005565496
7118,19,Jits_Linear_5,2,5,56,103,3005574644
7118,19,Jits_Linear_5,3,5,63,98,3005577708
7118,19,Jits_Linear_5,0,1,48,29,3006058792
7118,19,Jits_Linear_5,1,5,56,103,3006144836
7118,19,Jits_Linear_5,2,5,80,127,3006165656
7118,19,Jits_Linear_5,3,5,63,98,3006174584
7118,19,Jits_Linear_5,0,1,48,31,3006656932
7118,19,Jits_Linear_5,1,5,63,98,3006794980
7118,19,Jits_Linear_5,2,5,56,103,3006835072
7118,19,Jits_Linear_5,3,5,80,127,3006854484
7118,19,Jits_Linear_5,0,1,48,43,3007348296
7118,19,Jits_Linear_5,1,5,63,98,3007445428
7118,19,Jits_Linear_5,2,5,56,103,3007504684
7118,19,Jits_Linear_5,3,5,80,127,3007507824
7118,19,Jits_Linear_5,0,1,48,40,3008000364
7118,19,Jits_Linear_5,1,5,56,103,3008054664
7118,19,Jits_Linear_5,2,5,80,127,3008075052
7118,19,Jits_Linear_5,3,5,63,98,3008115048
7118,19,Jits_Linear_5,0,1,48,35,3008663108
7118,19,Jits_Linear_5,1,5,56,103,3008734684
7118,19,Jits_Linear_5,2,5,63,98,3008754996
7118,19,Jits_Linear_5,3,5,80,127,3008765400
7118,19,Jits_Linear_5,0,1,48,32,3009286336
7118,19,Jits_Linear_5,1,5,80,127,3009355388
7118,19,Jits_Linear_5,2,5,56,103,3009384756
7118,19,Jits_Linear_5,3,5,63,98,3009424768
7118,19,Jits_Linear_5,0,1,48,31,3009919400
7118,19,Jits_Linear_5,1,5,80,127,3010014572
7118,19,Jits_Linear_5,2,5,56,103,3010035104
7118,19,Jits_Linear_5,3,5,63,98,3010094548
7118,19,Jits_Linear_5,0,1,48,28,3010611436
7118,19,Jits_Linear_5,1,5,56,103,3010674932
7118,19,Jits_Linear_5,2,5,80,127,3010694644
7118,19,Jits_Linear_5,3,5,63,98,3010754944
7118,19,Jits_Linear_5,0,1,48,29,3011262928
7118,19,Jits_Linear_5,1,5,80,127,3011315020
7118,19,Jits_Linear_5,2,5,56,103,3011325440
7118,19,Jits_Linear_5,3,5,63,98,3011365464
7118,19,Jits_Linear_5,0,1,48,24,3011911940
7118,19,Jits_Linear_5,1,5,63,98,3011974612
7118,19,Jits_Linear_5,2,5,56,103,3012014612
7118,19,Jits_Linear_5,3,5,80,127,3012017680
7118,19,Jits_Linear_5,0,1,48,27,3012491248
7118,19,Jits_Linear_5,1,5,63,98,3012654636
7118,19,Jits_Linear_5,2,5,80,127,3012695400
7118,19,Jits_Linear_5,3,5,56,103,3012725000
7118,19,Jits_Linear_5,0,1,48,26,3013233128
7118,19,Jits_Linear_5,1,5,56,103,3013304632
7118,19,Jits_Linear_5,2,5,63,98,3013314828
7118,19,Jits_Linear_5,3,5,80,127,3013344564
7118,19,Jits_Linear_5,0,1,48,38,3013860468
7118,19,Jits_Linear_5,1,5,80,127,3013965104
7118,19,Jits_Linear_5,2,5,63,98,3014034940
7118,19,Jits_Linear_5,3,5,56,103,3014045060
7118,19,Jits_Linear_5,0,1,48,35,3014563156
7118,19,Jits_Linear_5,1,5,63,98,3014634808
7118,19,Jits_Linear_5,2,5,56,103,3014704428
7118,19,Jits_Linear_5,3,5,80,127,3014714844
7118,19,Jits_Linear_5,0,1,48,33,3015217352
7118,19,Jits_Linear_5,1,5,63,98,3015304516
7118,19,Jits_Linear_5,2,5,56,103,3015324964
7118,19,Jits_Linear_5,3,5,80,127,3015364904
7118,19,Jits_Linear_5,0,1,48,27,3015875796
7118,19,Jits_Linear_5,1,5,56,103,3015984472
7118,19,Jits_Linear_5,2,5,63,98,3015994668
7118,19,Jits_Linear_5,3,5,80,127,3016074468
7118,19,Jits_Linear_5,0,1,48,35,3016497848
7118,19,Jits_Linear_5,1,5,63,98,3016644868
7118,19,Jits_Linear_5,2,5,56,103,3016674620
7118,19,Jits_Linear_5,3,5,80,127,3016714632
7118,19,Jits_Linear_5,0,1,48,38,3017179220
7118,19,Jits_Linear_5,1,5,56,103,3017314648
7118,19,Jits_Linear_5,2,5,63,98,3017354516
7118,19,Jits_Linear_5,3,5,80,127,3017394456
7118,19,Jits_Linear_5,0,1,48,35,3017878072
7118,19,Jits_Linear_5,1,5,80,127,3017994520
7118,19,Jits_Linear_5,2,5,56,103,3018074344
7118,19,Jits_Linear_5,3,5,63,98,3018084692
7118,19,Jits_Linear_5,0,1,48,36,3018590784
7118,19,Jits_Linear_5,1,5,56,103,3018714428
7118,19,Jits_Linear_5,2,5,63,98,3018717496
7118,19,Jits_Linear_5,3,5,80,127,3018724700
7118,19,Jits_Linear_5,0,1,48,38,3019330616
7118,19,Jits_Linear_5,1,5,56,103,3019415012
7118,19,Jits_Linear_5,2,5,63,98,3019435460
7118,19,Jits_Linear_5,3,5,80,127,3019444460
7118,19,Jits_Linear_5,0,5,63,98,3020054888
7118,19,Jits_Linear_5,1,5,80,127,3020065408
7118,19,Jits_Linear_5,2,1,48,33,3020080288
7118,19,Jits_Linear_5,3,5,56,103,3020084516
7118,19,Jits_Linear_5,0,5,63,98,3020745344
7118,19,Jits_Linear_5,1,1,48,24,3020756932
7118,19,Jits_Linear_5,2,5,56,103,3020825212
7118,19,Jits_Linear_5,3,5,80,127,3020828352
7118,19,Jits_Linear_5,0,1,48,28,3021397336
7118,19,Jits_Linear_5,1,5,63,98,3021435496
7118,19,Jits_Linear_5,2,5,56,103,3021454688
7118,19,Jits_Linear_5,3,5,80,127,3021485636
7118,19,Jits_Linear_5,0,1,48,40,3022028500
7118,19,Jits_Linear_5,1,5,56,103,3022125568
7118,19,Jits_Linear_5,2,5,63,98,3022144908
7118,19,Jits_Linear_5,3,5,80,127,3022155256
7118,19,Jits_Linear_5,0,1,48,28,3022717096
7118,19,Jits_Linear_5,1,5,56,103,3022845304
7118,19,Jits_Linear_5,2,5,63,98,3022875200
7118,19,Jits_Linear_5,3,5,80,127,3022878416
7118,19,Jits_Linear_5,0,1,48,40,3023452960
7118,19,Jits_Linear_5,1,5,56,103,3023485200
7118,19,Jits_Linear_5,2,5,63,98,3023525288
7118,19,Jits_Linear_5,3,5,80,127,3023584620
7118,19,Jits_Linear_5,0,1,48,43,3024156880
7118,19,Jits_Linear_5,1,5,56,103,3024195068
7118,19,Jits_Linear_5,2,5,63,98,3024205560
7118,19,Jits_Linear_5,3,5,80,127,3024264668
7118,19,Jits_Linear_5,0,1,48,37,3024758472
7118,19,Jits_Linear_5,1,5,56,103,3024895300
7118,19,Jits_Linear_5,2,5,80,127,3024915012
7118,19,Jits_Linear_5,3,5,63,98,3024944416
7118,19,Jits_Linear_5,0,1,48,40,3025510520
7118,19,Jits_Linear_5,1,5,80,127,3025594692
7118,19,Jits_Linear_5,2,5,56,103,3025605112
7118,19,Jits_Linear_5,3,5,63,98,3025624364
7118,19,Jits_Linear_5,0,1,48,31,3026228924
7118,19,Jits_Linear_5,1,5,63,98,3026285000
7118,19,Jits_Linear_5,2,5,80,127,3026364788
7118,19,Jits_Linear_5,3,5,56,103,3026375280
7118,19,Jits_Linear_5,0,1,48,34,3026928660
7118,19,Jits_Linear_5,1,5,80,127,3027044680
7118,19,Jits_Linear_5,2,5,56,103,3027065364
7118,19,Jits_Linear_5,3,5,63,98,3027068284
7118,19,Jits_Linear_5,0,1,48,42,3027633288
7118,19,Jits_Linear_5,1,5,63,98,3027724640
7118,19,Jits_Linear_5,2,5,80,127,3027728076
7118,19,Jits_Linear_5,3,5,56,103,3027785188
7118,19,Jits_Linear_5,0,1,48,38,3028332564
7118,19,Jits_Linear_5,1,5,56,103,3028414796
7118,19,Jits_Linear_5,2,5,80,127,3028425200
7118,19,Jits_Linear_5,3,5,63,98,3028465140
7118,19,Jits_Linear_5,0,1,48,39,3029010492
7118,19,Jits_Linear_5,1,5,56,103,3029105384
7118,19,Jits_Linear_5,2,5,63,98,3029165484
7118,19,Jits_Linear_5,3,5,80,127,3029174632
7118,19,Jits_Linear_5,0,1,48,32,3029694964
7118,19,Jits_Linear_5,1,5,63,98,3029825068
7118,19,Jits_Linear_5,2,5,80,127,3029864936
7118,19,Jits_Linear_5,3,5,56,103,3029904724
7118,19,Jits_Linear_5,0,1,48,34,3030450304
7118,19,Jits_Linear_5,1,5,56,103,3030534404
7118,19,Jits_Linear_5,2,5,63,98,3030615408
7118,19,Jits_Linear_5,3,5,80,127,3030619068
7118,19,Jits_Linear_5,0,1,48,30,3031150492
7118,19,Jits_Linear_5,1,5,80,127,3031304416
7118,19,Jits_Linear_5,2,5,56,103,3031335384
7118,19,Jits_Linear_5,3,5,63,98,3031338376
7118,19,Jits_Linear_5,0,1,48,40,3031855644
7118,19,Jits_Linear_5,1,5,56,103,3031984452
7118,19,Jits_Linear_5,2,5,80,127,3032005064
7118,19,Jits_Linear_5,3,5,63,98,3032045000
7118,19,Jits_Linear_5,0,1,48,33,3032558964
7118,19,Jits_Linear_5,1,5,80,127,3032695140
7118,19,Jits_Linear_5,2,5,63,98,3032714704
7118,19,Jits_Linear_5,3,5,56,103,3032775244
7118,19,Jits_Linear_5,0,1,48,37,3033280136
7118,19,Jits_Linear_5,1,5,63,98,3033425384
7118,19,Jits_Linear_5,2,5,56,103,3033434536
7118,19,Jits_Linear_5,3,5,80,127,3033484588
7118,19,Jits_Linear_5,0,1,48,40,3033984764
7118,19,Jits_Linear_5,1,5,56,103,3034135000
7118,19,Jits_Linear_5,2,5,63,98,3034155412
7118,19,Jits_Linear_5,3,5,80,127,3034164484
7118,19,Jits_Linear_5,0,1,48,32,3034691240
7118,19,Jits_Linear_5,1,5,56,103,3034854972
7118,19,Jits_Linear_5,2,5,63,98,3034858116
7118,19,Jits_Linear_5,3,5,80,127,3034875208
7118,19,Jits_Linear_5,0,1,48,41,3035375376
7118,19,Jits_Linear_5,1,5,63,98,3035624764
7118,19,Jits_Linear_5,2,5,56,103,3035654588
7118,19,Jits_Linear_5,3,5,80,127,3035685264
7118,19,Jits_Linear_5,0,1,48,32,3036112208
7118,19,Jits_Linear_5,1,5,80,127,3036314928
7118,19,Jits_Linear_5,2,5,56,103,3036405144
7118,19,Jits_Linear_5,3,5,63,98,3036408284
7118,19,Jits_Linear_5,0,1,48,32,3036857744
7118,19,Jits_Linear_5,1,5,56,103,3037045092
7118,19,Jits_Linear_5,2,5,80,127,3037048160
7118,19,Jits_Linear_5,3,5,63,98,3037125112
7118,19,Jits_Linear_5,0,1,48,24,3037572992
7118,19,Jits_Linear_5,1,5,80,127,3037775172
7118,19,Jits_Linear_5,2,5,63,98,3037834596
7118,19,Jits_Linear_5,3,5,56,103,3037865244
7118,19,Jits_Linear_5,0,1,48,36,3038443656
7118,19,Jits_Linear_5,1,5,63,98,3038505212
7118,19,Jits_Linear_5,2,5,80,127,3038514512
7118,19,Jits_Linear_5,3,5,56,103,3038585296
7118,19,Jits_Linear_5,0,1,48,31,3039234580
7118,19,Jits_Linear_5,1,5,56,103,3039254980
7118,19,Jits_Linear_5,2,5,80,127,3039284608
7118,19,Jits_Linear_5,3,5,63,98,3039335020
7118,19,Jits_Linear_5,0,1,48,35,3039989088
7118,19,Jits_Linear_5,1,5,63,98,3040035148
7118,19,Jits_Linear_5,2,5,56,103,3040065048
7118,19,Jits_Linear_5,3,5,80,127,3040068040
7118,19,Jits_Linear_5,0,1,48,32,3040743236
7118,19,Jits_Linear_5,1,5,63,98,3040774504
7118,19,Jits_Linear_5,2,5,80,127,3040795116
7118,19,Jits_Linear_5,3,5,56,103,3040805336
7118,19,Jits_Linear_5,0,1,48,32,3041483004
7118,19,Jits_Linear_5,1,5,56,103,3041525128
7118,19,Jits_Linear_5,2,5,63,98,3041528048
7118,19,Jits_Linear_5,3,5,80,127,3041544544
7118,19,Jits_Linear_5,0,1,48,34,3042217428
7118,19,Jits_Linear_5,1,5,56,103,3042224352
7118,19,Jits_Linear_5,2,5,63,98,3042234696
7118,19,Jits_Linear_5,3,5,80,127,3042264372
7118,19,Jits_Linear_5,0,1,48,38,3042940392
7118,19,Jits_Linear_5,1,5,63,98,3042994524
7118,19,Jits_Linear_5,2,5,80,127,3043015136
7118,19,Jits_Linear_5,3,5,56,103,3043055132
7118,19,Jits_Linear_5,0,1,48,36,3043716352
7118,19,Jits_Linear_5,1,5,56,103,3043775040
7118,19,Jits_Linear_5,2,5,63,98,3043814892
7118,19,Jits_Linear_5,3,5,80,127,3043818180
7118,19,Jits_Linear_5,0,5,80,127,3044465052
7118,19,Jits_Linear_5,1,1,48,41,3044481352
7118,19,Jits_Linear_5,2,5,56,103,3044504992
7118,19,Jits_Linear_5,3,5,63,98,3044555192
7118,19,Jits_Linear_5,0,1,48,35,3045159608
7118,19,Jits_Linear_5,1,5,56,103,3045274936
7118,19,Jits_Linear_5,2,5,80,127,3045285356
7118,19,Jits_Linear_5,3,5,63,98,3045314884
7118,19,Jits_Linear_5,0,5,56,103,3045975464
7118,19,Jits_Linear_5,1,5,80,127,3046015328
7118,19,Jits_Linear_5,2,1,48,27,3046041144
7118,19,Jits_Linear_5,3,5,63,98,3046064628
7118,19,Jits_Linear_5,0,1,48,33,3046729284
7118,19,Jits_Linear_5,1,5,56,103,3046735160
7118,19,Jits_Linear_5,2,5,80,127,3046775100
7118,19,Jits_Linear_5,3,5,63,98,3046825436
7118,19,Jits_Linear_5,0,1,48,35,3047476912
7118,19,Jits_Linear_5,1,5,80,127,3047485032
7118,19,Jits_Linear_5,2,5,63,98,3047564756
7118,19,Jits_Linear_5,3,5,56,103,3047576132
7118,19,Jits_Linear_5,0,1,48,29,3048248808
7118,19,Jits_Linear_5,1,5,80,127,3048294916
7118,19,Jits_Linear_5,2,5,56,103,3048305116
7118,19,Jits_Linear_5,3,5,63,98,3048324456
7118,19,Jits_Linear_5,0,1,48,35,3048962852
7118,19,Jits_Linear_5,1,5,63,98,3049024864
7118,19,Jits_Linear_5,2,5,56,103,3049094460
7118,19,Jits_Linear_5,3,5,80,127,3049097676
7118,19,Jits_Linear_5,0,1,48,41,3049713392
7118,19,Jits_Linear_5,1,5,80,127,3049785064
7118,19,Jits_Linear_5,2,5,63,98,3049834808
7118,19,Jits_Linear_5,3,5,56,103,3049874896
7118,19,Jits_Linear_5,0,1,48,25,3050503652
7118,19,Jits_Linear_5,1,5,63,98,3050594808
7118,19,Jits_Linear_5,2,5,56,103,3050634584
7118,19,Jits_Linear_5,3,5,80,127,3050644856
7118,19,Jits_Linear_5,0,1,48,37,3051207220
7118,19,Jits_Linear_5,1,5,63,98,3051354416
7118,19,Jits_Linear_5,2,5,56,103,3051375024
7118,19,Jits_Linear_5,3,5,80,127,3051394288
7118,19,Jits_Linear_5,0,1,48,35,3051960236
7118,19,Jits_Linear_5,1,5,80,127,3052084804
7118,19,Jits_Linear_5,2,5,56,103,3052094704
7118,19,Jits_Linear_5,3,5,63,98,3052115240
7118,19,Jits_Linear_5,0,1,48,30,3052692960
7118,19,Jits_Linear_5,1,5,63,98,3052885248
7118,19,Jits_Linear_5,2,5,56,103,3052925192
7118,19,Jits_Linear_5,3,5,80,127,3052955088
7118,19,Jits_Linear_5,0,1,48,27,3053417352
7118,19,Jits_Linear_5,1,5,56,103,3053664792
7118,19,Jits_Linear_5,2,5,63,98,3053695296
7118,19,Jits_Linear_5,3,5,80,127,3053725044
7118,19,Jits_Linear_5,0,1,48,29,3054213984
7118,19,Jits_Linear_5,1,5,80,127,3054415268
7118,19,Jits_Linear_5,2,5,56,103,3054484952
7118,19,Jits_Linear_5,3,5,63,98,3054487944
7118,19,Jits_Linear_5,0,1,48,22,3054931912
7118,19,Jits_Linear_5,1,5,56,103,3055204764
7118,19,Jits_Linear_5,2,5,63,98,3055254968
7118,19,Jits_Linear_5,3,5,80,127,3055284572
7118,19,Jits_Linear_5,0,1,48,41,3055794196
7118,19,Jits_Linear_5,1,5,63,98,3055964604
7118,19,Jits_Linear_5,2,5,80,127,3055967820
7118,19,Jits_Linear_5,3,5,56,103,3056024920
7118,19,Jits_Linear_5,0,1,48,30,3056582864
7118,19,Jits_Linear_5,1,5,56,103,3056774628
7118,19,Jits_Linear_5,2,5,80,127,3056784900
7118,19,Jits_Linear_5,3,5,63,98,3056834880
7118,19,Jits_Linear_5,0,1,48,31,3057354536
7118,19,Jits_Linear_5,1,5,63,98,3057535440
7118,19,Jits_Linear_5,2,5,56,103,3057544592
7118,19,Jits_Linear_5,3,5,80,127,3057575316
7118,19,Jits_Linear_5,0,1,48,26,3058146060
7118,19,Jits_Linear_5,1,5,63,98,3058354688
7118,19,Jits_Linear_5,2,5,80,127,3058357904
7118,19,Jits_Linear_5,3,5,56,103,3058385264
7118,19,Jits_Linear_5,0,1,48,29,3059006160
7118,19,Jits_Linear_5,1,5,63,98,3059164568
7118,19,Jits_Linear_5,2,5,56,103,3059185100
7118,19,Jits_Linear_5,3,5,80,127,3059188096
7118,19,Jits_Linear_5,0,1,48,24,3059820760
7118,19,Jits_Linear_5,1,5,63,98,3059915256
7118,19,Jits_Linear_5,2,5,56,103,3059984720
7118,19,Jits_Linear_5,3,5,80,127,3060005204
7118,19,Jits_Linear_5,0,1,48,32,3060565692
7118,19,Jits_Linear_5,1,5,56,103,3060695624
7118,19,Jits_Linear_5,2,5,63,98,3060704624
7118,19,Jits_Linear_5,3,5,80,127,3060794788
7118,19,Jits_Linear_5,0,5,56,103,3061505536
7118,19,Jits_Linear_5,1,5,80,127,3061545204
7118,19,Jits_Linear_5,2,5,63,98,3061554800
7118,19,Jits_Linear_5,0,1,48,44,3062055224
7118,19,Jits_Linear_5,1,5,56,103,3062324840
7118,19,Jits_Linear_5,2,5,63,98,3062355340
7118,19,Jits_Linear_5,3,5,80,127,3062384940
7118,19,Jits_Linear_5,0,1,48,29,3062873432
7118,19,Jits_Linear_5,1,5,80,127,3063085352
7118,19,Jits_Linear_5,2,5,63,98,3063125440
7118,19,Jits_Linear_5,3,5,56,103,3063144704
7118,19,Jits_Linear_5,0,1,48,33,3063783412
7118,19,Jits_Linear_5,1,5,56,103,3063924984
7118,19,Jits_Linear_5,2,5,80,127,3063944768
7118,19,Jits_Linear_5,3,5,63,98,3063965004
7118,19,Jits_Linear_5,0,1,48,29,3064578164
7118,19,Jits_Linear_5,1,5,63,98,3064695012
7118,19,Jits_Linear_5,2,5,56,103,3064705504
7118,19,Jits_Linear_5,3,5,80,127,3064764772
7118,19,Jits_Linear_5,0,1,48,24,3065389864
7118,19,Jits_Linear_5,1,5,56,103,3065505044
7118,19,Jits_Linear_5,2,5,63,98,3065574876
7118,19,Jits_Linear_5,3,5,80,127,3065595112
7118,19,Jits_Linear_5,0,1,48,24,3066185076
7118,19,Jits_Linear_5,1,5,56,103,3066315156
7118,19,Jits_Linear_5,2,5,63,98,3066344832
7118,19,Jits_Linear_5,3,5,80,127,3066384772
7118,19,Jits_Linear_5,0,1,48,39,3067020724
7118,19,Jits_Linear_5,1,5,63,98,3067114864
7118,19,Jits_Linear_5,2,5,56,103,3067164980
7118,19,Jits_Linear_5,3,5,80,127,3067175176
7118,19,Jits_Linear_5,0,1,48,29,3067816652
7118,19,Jits_Linear_5,1,5,56,103,3067964896
7118,19,Jits_Linear_5,2,5,63,98,3068014952
7118,19,Jits_Linear_5,3,5,80,127,3068025148
7118,19,Jits_Linear_5,0,1,48,29,3068551612
7118,19,Jits_Linear_5,1,5,56,103,3068755452
7118,19,Jits_Linear_5,2,5,63,98,3068764752
7118,19,Jits_Linear_5,3,5,80,127,3068845672
7118,19,Jits_Linear_5,0,9999,9999,9999,2959992896
7118,19,Jits_Linear_5,1,9999,9999,9999,2960472160
7118,19,Jits_Linear_5,2,9999,9999,9999,2960952396
7118,19,Jits_Linear_5,3,9999,9999,9999,2961432648
7118,19,Jits_Linear_5,4,9999,9999,9999,2961912932
7118,19,Jits_Linear_5,5,9999,9999,9999,2962402364
7118,19,Jits_Linear_5,6,9999,9999,9999,2962892908
7118,19,Jits_Linear_5,7,9999,9999,9999,2963382348
7118,19,Jits_Linear_5,8,9999,9999,9999,2963872836
7118,19,Jits_Linear_5,9,9999,9999,9999,2964362348
7118,19,Jits_Linear_5,10,9999,9999,9999,2964863100
7118,19,Jits_Linear_5,11,9999,9999,9999,2965362804
7118,19,Jits_Linear_5,12,9999,9999,9999,2965862484
7118,19,Jits_Linear_5,13,9999,9999,9999,2966362172
7118,19,Jits_Linear_5,14,9999,9999,9999,2966862904
7118,19,Jits_Linear_5,15,9999,9999,9999,2967372868
7118,19,Jits_Linear_5,16,9999,9999,9999,2967882820
7118,19,Jits_Linear_5,17,9999,9999,9999,2968392772
7118,19,Jits_Linear_5,18,9999,9999,9999,2968902724
7118,19,Jits_Linear_5,19,9999,9999,9999,2969412676
7118,19,Jits_Linear_5,20,9999,9999,9999,2969932892
7118,19,Jits_Linear_5,21,9999,9999,9999,2970453104
7118,19,Jits_Linear_5,22,9999,9999,9999,2970972272
7118,19,Jits_Linear_5,23,9999,9999,9999,2971492428
7118,19,Jits_Linear_5,24,9999,9999,9999,2972012660
7118,19,Jits_Linear_5,25,9999,9999,9999,2972543072
7118,19,Jits_Linear_5,26,9999,9999,9999,2973072508
7118,19,Jits_Linear_5,27,9999,9999,9999,2973602888
7118,19,Jits_Linear_5,28,9999,9999,9999,2974132340
7118,19,Jits_Linear_5,29,9999,9999,9999,2974662744
7118,19,Jits_Linear_5,30,9999,9999,9999,2975202380
7118,19,Jits_Linear_5,31,9999,9999,9999,2975743052
7118,19,Jits_Linear_5,32,9999,9999,9999,2976282744
7118,19,Jits_Linear_5,33,9999,9999,9999,2976822388
7118,19,Jits_Linear_5,34,9999,9999,9999,2977363056
7118,19,Jits_Linear_5,35,9999,9999,9999,2977912940
7118,19,Jits_Linear_5,36,9999,9999,9999,2978462816
7118,19,Jits_Linear_5,37,9999,9999,9999,2979012704
7118,19,Jits_Linear_5,38,9999,9999,9999,2979562588
7118,19,Jits_Linear_5,39,9999,9999,9999,2980112476
7118,19,Jits_Linear_5,40,9999,9999,9999,2980672576
7118,19,Jits_Linear_5,41,9999,9999,9999,2981232720
7118,19,Jits_Linear_5,42,9999,9999,9999,2981792864
7118,19,Jits_Linear_5,43,9999,9999,9999,2982353012
7118,19,Jits_Linear_5,44,9999,9999,9999,2982912112
7118,19,Jits_Linear_5,45,9999,9999,9999,2983482472
7118,19,Jits_Linear_5,46,9999,9999,9999,2984052808
7118,19,Jits_Linear_5,47,9999,9999,9999,2984622180
7118,19,Jits_Linear_5,48,9999,9999,9999,2985192520
7118,19,Jits_Linear_5,49,9999,9999,9999,2985762936
7118,19,Jits_Linear_5,50,9999,9999,9999,2986342484
7118,19,Jits_Linear_5,51,9999,9999,9999,2986923084
7118,19,Jits_Linear_5,52,9999,9999,9999,2987512904
7118,19,Jits_Linear_5,53,9999,9999,9999,2988092484
7118,19,Jits_Linear_5,54,9999,9999,9999,2988672116
7118,19,Jits_Linear_5,55,9999,9999,9999,2989262920
7118,19,Jits_Linear_5,56,9999,9999,9999,2989852736
7118,19,Jits_Linear_5,57,9999,9999,9999,2990442568
7118,19,Jits_Linear_5,58,9999,9999,9999,2991032388
7118,19,Jits_Linear_5,59,9999,9999,9999,2991622268
7118,19,Jits_Linear_5,60,9999,9999,9999,2992222304
7118,19,Jits_Linear_5,61,9999,9999,9999,2992822380
7118,19,Jits_Linear_5,62,9999,9999,9999,2993422464
7118,19,Jits_Linear_5,63,9999,9999,9999,2994022492
7118,19,Jits_Linear_5,64,9999,9999,9999,2994622576
7118,19,Jits_Linear_5,65,9999,9999,9999,2995232872
7118,19,Jits_Linear_5,66,9999,9999,9999,2995842176
7118,19,Jits_Linear_5,67,9999,9999,9999,2996452432
7118,19,Jits_Linear_5,68,9999,9999,9999,2997062732
7118,19,Jits_Linear_5,69,9999,9999,9999,2997673080
7118,19,Jits_Linear_5,70,9999,9999,9999,2998292556
7118,19,Jits_Linear_5,71,9999,9999,9999,2998912068
7118,19,Jits_Linear_5,72,9999,9999,9999,2999532600
7118,19,Jits_Linear_5,73,9999,9999,9999,3000152188
7118,19,Jits_Linear_5,74,9999,9999,9999,3000772724
7118,19,Jits_Linear_5,75,9999,9999,9999,3001402424
7118,19,Jits_Linear_5,76,9999,9999,9999,3002032252
7118,19,Jits_Linear_5,77,9999,9999,9999,3002663000
7118,19,Jits_Linear_5,78,9999,9999,9999,3003292756
7118,19,Jits_Linear_5,79,9999,9999,9999,3003922512
7118,19,Jits_Linear_5,80,9999,9999,9999,3004562552
7118,19,Jits_Linear_5,81,9999,9999,9999,3005202492
7118,19,Jits_Linear_5,82,9999,9999,9999,3005842532
7118,19,Jits_Linear_5,83,9999,9999,9999,3006482552
7118,19,Jits_Linear_5,84,9999,9999,9999,3007122520
7118,19,Jits_Linear_5,85,9999,9999,9999,3007772796
7118,19,Jits_Linear_5,86,9999,9999,9999,3008423016
7118,19,Jits_Linear_5,87,9999,9999,9999,3009072196
7118,19,Jits_Linear_5,88,9999,9999,9999,3009722472
7118,19,Jits_Linear_5,89,9999,9999,9999,3010372700
7118,19,Jits_Linear_5,90,9999,9999,9999,3011032124
7118,19,Jits_Linear_5,91,9999,9999,9999,3011692612
7118,19,Jits_Linear_5,92,9999,9999,9999,3012352096
7118,19,Jits_Linear_5,93,9999,9999,9999,3013012592
7118,19,Jits_Linear_5,94,9999,9999,9999,3013673080
7118,19,Jits_Linear_5,95,9999,9999,9999,3014342764
7118,19,Jits_Linear_5,96,9999,9999,9999,3015012476
7118,19,Jits_Linear_5,97,9999,9999,9999,3015682156
7118,19,Jits_Linear_5,98,9999,9999,9999,3016352840
7118,19,Jits_Linear_5,99,9999,9999,9999,3017022548
7118,19,Jits_Linear_5,100,9999,9999,9999,3017702496
7118,19,Jits_Linear_5,101,9999,9999,9999,3018382396
7118,19,Jits_Linear_5,102,9999,9999,9999,3019062360
7118,19,Jits_Linear_5,103,9999,9999,9999,3019742312
7118,19,Jits_Linear_5,104,9999,9999,9999,3020422208
7118,19,Jits_Linear_5,105,9999,9999,9999,3021112440
7118,19,Jits_Linear_5,106,9999,9999,9999,3021802576
7118,19,Jits_Linear_5,107,9999,9999,9999,3022492740
7118,19,Jits_Linear_5,108,9999,9999,9999,3023182968
7118,19,Jits_Linear_5,109,9999,9999,9999,3023872060
7118,19,Jits_Linear_5,110,9999,9999,9999,3024572484
7118,19,Jits_Linear_5,111,9999,9999,9999,3025272908
7118,19,Jits_Linear_5,112,9999,9999,9999,3025972284
7118,19,Jits_Linear_5,113,9999,9999,9999,3026672760
7118,19,Jits_Linear_5,114,9999,9999,9999,3027372136
7118,19,Jits_Linear_5,115,9999,9999,9999,3028082744
7118,19,Jits_Linear_5,116,9999,9999,9999,3028792384
7118,19,Jits_Linear_5,117,9999,9999,9999,3029503048
7118,19,Jits_Linear_5,118,9999,9999,9999,3030212692
7118,19,Jits_Linear_5,119,9999,9999,9999,3030922328
7118,19,Jits_Linear_5,120,9999,9999,9999,3031642228
7118,19,Jits_Linear_5,121,9999,9999,9999,3032363108
7118,19,Jits_Linear_5,122,9999,9999,9999,3033092204
7118,19,Jits_Linear_5,123,9999,9999,9999,3033813080
7118,19,Jits_Linear_5,124,9999,9999,9999,3034532980
7118,19,Jits_Linear_5,125,9999,9999,9999,3035263060
7118,19,Jits_Linear_5,126,9999,9999,9999,3035992184
7118,19,Jits_Linear_5,127,9999,9999,9999,3036722276
7118,19,Jits_Linear_5,128,9999,9999,9999,3037452408
7118,19,Jits_Linear_5,129,9999,9999,9999,3038182500
7118,19,Jits_Linear_5,130,9999,9999,9999,3038922856
7118,19,Jits_Linear_5,131,9999,9999,9999,3039662164
7118,19,Jits_Linear_5,132,9999,9999,9999,3040402516
7118,19,Jits_Linear_5,133,9999,9999,9999,3041142880
7118,19,Jits_Linear_5,134,9999,9999,9999,3041882184
7118,19,Jits_Linear_5,135,9999,9999,9999,3042632800
7118,19,Jits_Linear_5,136,9999,9999,9999,3043382380
7118,19,Jits_Linear_5,137,9999,9999,9999,3044132920
7118,19,Jits_Linear_5,138,9999,9999,9999,3044882548
7118,19,Jits_Linear_5,139,9999,9999,9999,3045632068
7118,19,Jits_Linear_5,140,9999,9999,9999,3046392956
7118,19,Jits_Linear_5,141,9999,9999,9999,3047152732
7118,19,Jits_Linear_5,142,9999,9999,9999,3047912572
7118,19,Jits_Linear_5,143,9999,9999,9999,3048672336
7118,19,Jits_Linear_5,144,9999,9999,9999,3049432168
7118,19,Jits_Linear_5,145,9999,9999,9999,3050202192
7118,19,Jits_Linear_5,146,9999,9999,9999,3050972228
7118,19,Jits_Linear_5,147,9999,9999,9999,3051742332
7118,19,Jits_Linear_5,148,9999,9999,9999,3052512356
7118,19,Jits_Linear_5,149,9999,9999,9999,3053282384
7118,19,Jits_Linear_5,150,9999,9999,9999,3054062676
7118,19,Jits_Linear_5,151,9999,9999,9999,3054842960
7118,19,Jits_Linear_5,152,9999,9999,9999,3055622204
7118,19,Jits_Linear_5,153,9999,9999,9999,3056402556
7118,19,Jits_Linear_5,154,9999,9999,9999,3057182800
7118,19,Jits_Linear_5,155,9999,9999,9999,3057972304
7118,19,Jits_Linear_5,156,9999,9999,9999,3058762848
7118,19,Jits_Linear_5,157,9999,9999,9999,3059552352
7118,19,Jits_Linear_5,158,9999,9999,9999,3060342908
7118,19,Jits_Linear_5,159,9999,9999,9999,3061132344
7118,19,Jits_Linear_5,160,9999,9999,9999,3061932140
7118,19,Jits_Linear_5,161,9999,9999,9999,3062732912
7118,19,Jits_Linear_5,162,9999,9999,9999,3063532604
7118,19,Jits_Linear_5,163,9999,9999,9999,3064332376
7118,19,Jits_Linear_5,164,9999,9999,9999,3065132100
7118,19,Jits_Linear_5,165,9999,9999,9999,3065942136
7118,19,Jits_Linear_5,166,9999,9999,9999,3066752096
7118,19,Jits_Linear_5,167,9999,9999,9999,3067563076
7118,19,Jits_Linear_5,168,9999,9999,9999,3068382336
7118,19,Jits_Linear_5,169,9999,9999,9999,3069192296
7119,18,Jits_Linear_8,0,5,56,103,3078216116
7119,18,Jits_Linear_8,1,5,63,98,3078218988
7119,18,Jits_Linear_8,2,5,80,127,3078222336
7119,18,Jits_Linear_8,0,5,56,103,3079036352
7119,18,Jits_Linear_8,1,5,63,98,3079039528
7119,18,Jits_Linear_8,2,5,80,127,3079042644
7119,18,Jits_Linear_8,0,5,80,127,3079796068
7119,18,Jits_Linear_8,1,5,63,98,3079886652
7119,18,Jits_Linear_8,2,5,56,103,3079896624
7119,18,Jits_Linear_8,3,1,48,36,3079934140
7119,18,Jits_Linear_8,0,5,56,103,3080635696
7119,18,Jits_Linear_8,1,5,63,98,3080645968
7119,18,Jits_Linear_8,2,1,48,42,3080652228
7119,18,Jits_Linear_8,3,5,80,127,3080736044
7119,18,Jits_Linear_8,0,5,63,98,3081426396
7119,18,Jits_Linear_8,1,1,48,42,3081432356
7119,18,Jits_Linear_8,2,5,80,127,3081455916
7119,18,Jits_Linear_8,3,5,56,103,3081485740
7119,18,Jits_Linear_8,0,1,48,42,3082214876
7119,18,Jits_Linear_8,1,5,56,103,3082245540
7119,18,Jits_Linear_8,2,5,80,127,3082345804
7119,18,Jits_Linear_8,3,5,63,98,3082396004
7119,18,Jits_Linear_8,0,1,48,41,3083033652
7119,18,Jits_Linear_8,1,5,56,103,3083055440
7119,18,Jits_Linear_8,2,5,80,127,3083105568
7119,18,Jits_Linear_8,3,5,63,98,3083145640
7119,18,Jits_Linear_8,0,1,48,44,3083818000
7119,18,Jits_Linear_8,1,5,80,127,3083896392
7119,18,Jits_Linear_8,2,5,63,98,3083925760
7119,18,Jits_Linear_8,3,5,56,103,3083995512
7119,18,Jits_Linear_8,0,1,48,40,3084632132
7119,18,Jits_Linear_8,1,5,63,98,3084735844
7119,18,Jits_Linear_8,2,5,56,103,3084765524
7119,18,Jits_Linear_8,3,5,80,127,3084826060
7119,18,Jits_Linear_8,0,5,56,103,3085485404
7119,18,Jits_Linear_8,1,1,48,47,3085488092
7119,18,Jits_Linear_8,2,5,80,127,3085489584
7119,18,Jits_Linear_8,3,5,63,98,3085606328
7119,18,Jits_Linear_8,0,1,48,42,3086318844
7119,18,Jits_Linear_8,1,5,56,103,3086366172
7119,18,Jits_Linear_8,2,5,80,127,3086406260
7119,18,Jits_Linear_8,3,5,63,98,3086416368
7119,18,Jits_Linear_8,0,5,56,103,3087125904
7119,18,Jits_Linear_8,1,5,80,127,3087146540
7119,18,Jits_Linear_8,2,1,48,37,3087177980
7119,18,Jits_Linear_8,3,5,63,98,3087226476
7119,18,Jits_Linear_8,0,5,80,127,3087916336
7119,18,Jits_Linear_8,1,1,48,32,3087920504
7119,18,Jits_Linear_8,2,5,56,103,3088015816
7119,18,Jits_Linear_8,3,5,63,98,3088025940
7119,18,Jits_Linear_8,0,5,63,98,3088685320
7119,18,Jits_Linear_8,1,1,48,41,3088712180
7119,18,Jits_Linear_8,2,5,80,127,3088746080
7119,18,Jits_Linear_8,3,5,56,103,3088756424
7119,18,Jits_Linear_8,0,1,48,37,3089484988
7119,18,Jits_Linear_8,1,5,56,103,3089486408
7119,18,Jits_Linear_8,2,5,63,98,3089555944
7119,18,Jits_Linear_8,3,5,80,127,3089559308
7119,18,Jits_Linear_8,0,1,48,36,3090288224
7119,18,Jits_Linear_8,1,5,63,98,3090315752
7119,18,Jits_Linear_8,2,5,56,103,3090365952
7119,18,Jits_Linear_8,3,5,80,127,3090368872
7119,18,Jits_Linear_8,0,1,48,43,3091040616
7119,18,Jits_Linear_8,1,5,56,103,3091066192
7119,18,Jits_Linear_8,2,5,80,127,3091069112
7119,18,Jits_Linear_8,3,5,63,98,3091156384
7119,18,Jits_Linear_8,0,1,48,41,3091830840
7119,18,Jits_Linear_8,1,5,63,98,3091895608
7119,18,Jits_Linear_8,2,5,56,103,3091985728
7119,18,Jits_Linear_8,3,5,80,127,3092015504
7119,18,Jits_Linear_8,0,1,48,40,3092598916
7119,18,Jits_Linear_8,1,5,56,103,3092675888
7119,18,Jits_Linear_8,2,5,63,98,3092776300
7119,18,Jits_Linear_8,3,5,80,127,3092806048
7119,18,Jits_Linear_8,0,1,48,32,3093411628
7119,18,Jits_Linear_8,1,5,63,98,3093486212
7119,18,Jits_Linear_8,2,5,56,103,3093496036
7119,18,Jits_Linear_8,3,5,80,127,3093586252
7119,18,Jits_Linear_8,0,1,48,39,3094252068
7119,18,Jits_Linear_8,1,5,63,98,3094285748
7119,18,Jits_Linear_8,2,5,56,103,3094365480
7119,18,Jits_Linear_8,3,5,80,127,3094368620
7119,18,Jits_Linear_8,0,1,48,34,3095022752
7119,18,Jits_Linear_8,1,5,80,127,3095026008
7119,18,Jits_Linear_8,2,5,63,98,3095045424
7119,18,Jits_Linear_8,3,5,56,103,3095106284
7119,18,Jits_Linear_8,0,1,48,39,3095744900
7119,18,Jits_Linear_8,1,5,56,103,3095846376
7119,18,Jits_Linear_8,2,5,63,98,3095865636
7119,18,Jits_Linear_8,3,5,80,127,3095869152
7119,18,Jits_Linear_8,0,1,48,39,3096482296
7119,18,Jits_Linear_8,1,5,63,98,3096566096
7119,18,Jits_Linear_8,2,5,80,127,3096646128
7119,18,Jits_Linear_8,3,5,56,103,3096656248
7119,18,Jits_Linear_8,0,1,48,32,3097315028
7119,18,Jits_Linear_8,1,5,63,98,3097366076
7119,18,Jits_Linear_8,2,5,56,103,3097386484
7119,18,Jits_Linear_8,3,5,80,127,3097435552
7119,18,Jits_Linear_8,0,1,48,31,3098090276
7119,18,Jits_Linear_8,1,5,80,127,3098146224
7119,18,Jits_Linear_8,2,5,63,98,3098186016
7119,18,Jits_Linear_8,3,5,56,103,3098205488
7119,18,Jits_Linear_8,0,1,48,29,3098788660
7119,18,Jits_Linear_8,1,5,56,103,3098956084
7119,18,Jits_Linear_8,2,5,63,98,3098966428
7119,18,Jits_Linear_8,3,5,80,127,3098986064
7119,18,Jits_Linear_8,0,1,48,37,3099603996
7119,18,Jits_Linear_8,1,5,56,103,3099655652
7119,18,Jits_Linear_8,2,5,63,98,3099745652
7119,18,Jits_Linear_8,3,5,80,127,3099806192
7119,18,Jits_Linear_8,0,1,48,39,3100355216
7119,18,Jits_Linear_8,1,5,80,127,3100456248
7119,18,Jits_Linear_8,2,5,56,103,3100465548
7119,18,Jits_Linear_8,3,5,63,98,3100536276
7119,18,Jits_Linear_8,0,1,48,43,3101156696
7119,18,Jits_Linear_8,1,5,63,98,3101256080
7119,18,Jits_Linear_8,2,5,80,127,3101346144
7119,18,Jits_Linear_8,3,5,56,103,3101356488
7119,18,Jits_Linear_8,0,1,48,39,3101929184
7119,18,Jits_Linear_8,1,5,63,98,3101965628
7119,18,Jits_Linear_8,2,5,80,127,3102015856
7119,18,Jits_Linear_8,3,5,56,103,3102076232
7119,18,Jits_Linear_8,0,1,48,37,3102731036
7119,18,Jits_Linear_8,1,5,56,103,3102756192
7119,18,Jits_Linear_8,2,5,80,127,3102806324
7119,18,Jits_Linear_8,3,5,63,98,3102825880
7119,18,Jits_Linear_8,0,5,56,103,3103486176
7119,18,Jits_Linear_8,1,1,48,38,3103535924
7119,18,Jits_Linear_8,2,5,80,127,3103545616
7119,18,Jits_Linear_8,3,5,63,98,3103616344
7119,18,Jits_Linear_8,0,5,56,103,3104246092
7119,18,Jits_Linear_8,1,5,80,127,3104275844
7119,18,Jits_Linear_8,2,5,63,98,3104305396
7119,18,Jits_Linear_8,3,1,48,34,3104365976
7119,18,Jits_Linear_8,0,1,48,37,3105041696
7119,18,Jits_Linear_8,1,5,56,103,3105046148
7119,18,Jits_Linear_8,2,5,80,127,3105066336
7119,18,Jits_Linear_8,3,5,63,98,3105126052
7119,18,Jits_Linear_8,0,1,48,38,3105794564
7119,18,Jits_Linear_8,1,5,80,127,3105885496
7119,18,Jits_Linear_8,2,5,56,103,3105895900
7119,18,Jits_Linear_8,3,5,63,98,3105906024
7119,18,Jits_Linear_8,0,1,48,35,3106553700
7119,18,Jits_Linear_8,1,5,56,103,3106596172
7119,18,Jits_Linear_8,2,5,80,127,3106636188
7119,18,Jits_Linear_8,3,5,63,98,3106665924
7119,18,Jits_Linear_8,0,5,56,103,3107316124
7119,18,Jits_Linear_8,1,1,48,34,3107322384
7119,18,Jits_Linear_8,2,5,63,98,3107345872
7119,18,Jits_Linear_8,3,5,80,127,3107385684
7119,18,Jits_Linear_8,0,5,80,127,3108015580
7119,18,Jits_Linear_8,1,1,48,36,3108047396
7119,18,Jits_Linear_8,2,5,63,98,3108066072
7119,18,Jits_Linear_8,3,5,56,103,3108086160
7119,18,Jits_Linear_8,0,1,48,31,3108726008
7119,18,Jits_Linear_8,1,5,56,103,3108795784
7119,18,Jits_Linear_8,2,5,80,127,3108866352
7119,18,Jits_Linear_8,3,5,63,98,3108926016
7119,18,Jits_Linear_8,0,5,80,127,3109536136
7119,18,Jits_Linear_8,1,1,48,41,3109583004
7119,18,Jits_Linear_8,2,5,63,98,3109626268
7119,18,Jits_Linear_8,3,5,56,103,3109645904
7119,18,Jits_Linear_8,0,5,63,98,3110295980
7119,18,Jits_Linear_8,1,5,56,103,3110316364
7119,18,Jits_Linear_8,2,5,80,127,3110356376
7119,18,Jits_Linear_8,3,1,48,27,3110374336
7119,18,Jits_Linear_8,0,5,80,127,3110996244
7119,18,Jits_Linear_8,1,5,63,98,3111015880
7119,18,Jits_Linear_8,2,5,56,103,3111095824
7119,18,Jits_Linear_8,3,1,48,27,3111108528
7119,18,Jits_Linear_8,0,5,63,98,3111725284
7119,18,Jits_Linear_8,1,1,48,44,3111772448
7119,18,Jits_Linear_8,2,5,56,103,3111835936
7119,18,Jits_Linear_8,3,5,80,127,3111839156
7119,18,Jits_Linear_8,0,5,63,98,3112486220
7119,18,Jits_Linear_8,1,1,48,42,3112495444
7119,18,Jits_Linear_8,2,5,56,103,3112496952
7119,18,Jits_Linear_8,3,5,80,127,3112499772
7119,18,Jits_Linear_8,0,1,48,41,3113206296
7119,18,Jits_Linear_8,1,5,56,103,3113207708
7119,18,Jits_Linear_8,2,5,80,127,3113326032
7119,18,Jits_Linear_8,3,5,63,98,3113365972
7119,18,Jits_Linear_8,0,1,48,40,3113953192
7119,18,Jits_Linear_8,1,5,56,103,3113955776
7119,18,Jits_Linear_8,2,5,80,127,3114035528
7119,18,Jits_Linear_8,3,5,63,98,3114056044
7119,18,Jits_Linear_8,0,1,48,38,3114630236
7119,18,Jits_Linear_8,1,5,56,103,3114686008
7119,18,Jits_Linear_8,2,5,63,98,3114796460
7119,18,Jits_Linear_8,3,5,80,127,3114800044
7119,18,Jits_Linear_8,0,1,48,29,3115393664
7119,18,Jits_Linear_8,1,5,56,103,3115446052
7119,18,Jits_Linear_8,2,5,80,127,3115476404
7119,18,Jits_Linear_8,3,5,63,98,3115495876
7119,18,Jits_Linear_8,0,1,48,36,3116069784
7119,18,Jits_Linear_8,1,5,63,98,3116156204
7119,18,Jits_Linear_8,2,5,56,103,3116165428
7119,18,Jits_Linear_8,3,5,80,127,3116175836
7119,18,Jits_Linear_8,0,1,48,33,3116800580
7119,18,Jits_Linear_8,1,5,80,127,3116865972
7119,18,Jits_Linear_8,2,5,56,103,3116915936
7119,18,Jits_Linear_8,3,5,63,98,3116955876
7119,18,Jits_Linear_8,0,1,48,42,3117568056
7119,18,Jits_Linear_8,1,5,80,127,3117606164
7119,18,Jits_Linear_8,2,5,63,98,3117625876
7119,18,Jits_Linear_8,3,5,56,103,3117675912
7119,18,Jits_Linear_8,0,5,80,127,3118336524
7119,18,Jits_Linear_8,1,1,48,38,3118347440
7119,18,Jits_Linear_8,2,5,56,103,3118366140
7119,18,Jits_Linear_8,3,5,63,98,3118435896
7119,18,Jits_Linear_8,0,1,48,36,3119094536
7119,18,Jits_Linear_8,1,5,56,103,3119106396
7119,18,Jits_Linear_8,2,5,80,127,3119115768
7119,18,Jits_Linear_8,3,5,63,98,3119155656
7119,18,Jits_Linear_8,0,5,56,103,3119736168
7119,18,Jits_Linear_8,1,5,63,98,3119755880
7119,18,Jits_Linear_8,2,1,48,38,3119826680
7119,18,Jits_Linear_8,3,5,80,127,3119827796
7119,18,Jits_Linear_8,0,5,63,98,3120475624
7119,18,Jits_Linear_8,1,5,80,127,3120535796
7119,18,Jits_Linear_8,2,5,56,103,3120556628
7119,18,Jits_Linear_8,3,1,48,39,3120569184
7119,18,Jits_Linear_8,0,5,80,127,3121176012
7119,18,Jits_Linear_8,1,5,56,103,3121205860
7119,18,Jits_Linear_8,2,5,63,98,3121236288
7119,18,Jits_Linear_8,3,1,48,33,3121314028
7119,18,Jits_Linear_8,0,5,56,103,3121885724
7119,18,Jits_Linear_8,1,1,48,46,3121896188
7119,18,Jits_Linear_8,2,5,63,98,3121946108
7119,18,Jits_Linear_8,3,1,48,22,3121966600
7119,18,Jits_Linear_8,4,5,80,127,3122006404
7119,18,Jits_Linear_8,0,5,80,127,3122615696
7119,18,Jits_Linear_8,1,5,56,103,3122636080
7119,18,Jits_Linear_8,2,1,48,35,3122644748
7119,18,Jits_Linear_8,3,5,63,98,3122705976
7119,18,Jits_Linear_8,0,5,80,127,3123326308
7119,18,Jits_Linear_8,1,5,63,98,3123345800
7119,18,Jits_Linear_8,2,1,48,26,3123358960
7119,18,Jits_Linear_8,3,5,56,103,3123375616
7119,18,Jits_Linear_8,0,5,80,127,3124015428
7119,18,Jits_Linear_8,1,1,48,41,3124034144
7119,18,Jits_Linear_8,2,5,63,98,3124035880
7119,18,Jits_Linear_8,3,5,56,103,3124096344
7119,18,Jits_Linear_8,0,5,80,127,3124715972
7119,18,Jits_Linear_8,1,1,48,40,3124733616
7119,18,Jits_Linear_8,2,5,56,103,3124816092
7119,18,Jits_Linear_8,3,5,63,98,3124845900
7119,18,Jits_Linear_8,0,5,63,98,3125406064
7119,18,Jits_Linear_8,1,5,80,127,3125456272
7119,18,Jits_Linear_8,2,5,56,103,3125475832
7119,18,Jits_Linear_8,3,1,48,31,3125484424
7119,18,Jits_Linear_8,0,1,48,40,3126100964
7119,18,Jits_Linear_8,1,5,80,127,3126146628
7119,18,Jits_Linear_8,2,5,56,103,3126176224
7119,18,Jits_Linear_8,3,5,63,98,3126179144
7119,18,Jits_Linear_8,0,1,48,41,3126730684
7119,18,Jits_Linear_8,1,5,63,98,3126875636
7119,18,Jits_Linear_8,2,5,56,103,3126915652
7119,18,Jits_Linear_8,3,5,80,127,3126935816
7119,18,Jits_Linear_8,0,1,48,39,3127466632
7119,18,Jits_Linear_8,1,5,80,127,3127515732
7119,18,Jits_Linear_8,2,5,63,98,3127596292
7119,18,Jits_Linear_8,3,5,56,103,3127636228
7119,18,Jits_Linear_8,0,1,48,21,3128192364
7119,18,Jits_Linear_8,1,5,63,98,3128226040
7119,18,Jits_Linear_8,2,5,80,127,3128305972
7119,18,Jits_Linear_8,3,5,56,103,3128325680
7119,18,Jits_Linear_8,0,1,48,26,3128890304
7119,18,Jits_Linear_8,1,5,56,103,3128956344
7119,18,Jits_Linear_8,2,5,63,98,3128965644
7119,18,Jits_Linear_8,3,5,80,127,3129005568
7119,18,Jits_Linear_8,0,5,56,103,3129565564
7119,18,Jits_Linear_8,1,5,80,127,3129568628
7119,18,Jits_Linear_8,2,1,48,42,3129596628
7119,18,Jits_Linear_8,3,5,63,98,3129705816
7119,18,Jits_Linear_8,0,1,48,34,3130225868
7119,18,Jits_Linear_8,1,5,56,103,3130245592
7119,18,Jits_Linear_8,2,5,63,98,3130335792
7119,18,Jits_Linear_8,3,5,80,127,3130406396
7119,18,Jits_Linear_8,0,1,48,32,3130950624
7119,18,Jits_Linear_8,1,5,63,98,3131006168
7119,18,Jits_Linear_8,2,5,80,127,3131009764
7119,18,Jits_Linear_8,3,5,56,103,3131065728
7119,18,Jits_Linear_8,0,1,48,35,3131675168
7119,18,Jits_Linear_8,1,5,80,127,3131726140
7119,18,Jits_Linear_8,2,5,56,103,3131745700
7119,18,Jits_Linear_8,3,5,63,98,3131755824
7119,18,Jits_Linear_8,0,5,56,103,3132315960
7119,18,Jits_Linear_8,1,5,63,98,3132326528
7119,18,Jits_Linear_8,2,1,48,37,3132368756
7119,18,Jits_Linear_8,3,5,80,127,3132395904
7119,18,Jits_Linear_8,0,5,80,127,3132995860
7119,18,Jits_Linear_8,1,1,48,31,3133032384
7119,18,Jits_Linear_8,2,5,56,103,3133046056
7119,18,Jits_Linear_8,3,5,63,98,3133096408
7119,18,Jits_Linear_8,0,1,48,32,3133705748
7119,18,Jits_Linear_8,1,5,56,103,3133755848
7119,18,Jits_Linear_8,2,5,63,98,3133766044
7119,18,Jits_Linear_8,3,5,80,127,3133805816
7119,18,Jits_Linear_8,0,1,48,27,3134340680
7119,18,Jits_Linear_8,1,5,56,103,3134376524
7119,18,Jits_Linear_8,2,5,63,98,3134416464
7119,18,Jits_Linear_8,3,5,80,127,3134466576
7119,18,Jits_Linear_8,0,5,80,127,3135006072
7119,18,Jits_Linear_8,1,1,48,35,3135039084
7119,18,Jits_Linear_8,2,5,56,103,3135056272
7119,18,Jits_Linear_8,3,5,63,98,3135075832
7119,18,Jits_Linear_8,0,5,80,127,3135685948
7119,18,Jits_Linear_8,1,1,48,33,3135724664
7119,18,Jits_Linear_8,2,5,63,98,3135746708
7119,18,Jits_Linear_8,3,5,56,103,3135826436
7119,18,Jits_Linear_8,0,5,80,127,3136336404
7119,18,Jits_Linear_8,1,5,56,103,3136376044
7119,18,Jits_Linear_8,2,1,48,39,3136379536
7119,18,Jits_Linear_8,3,5,63,98,3136395600
7119,18,Jits_Linear_8,0,5,56,103,3137056156
7119,18,Jits_Linear_8,1,1,48,40,3137065676
7119,18,Jits_Linear_8,2,5,80,127,3137067320
7119,18,Jits_Linear_8,3,5,63,98,3137106432
7119,18,Jits_Linear_8,0,1,48,38,3137761392
7119,18,Jits_Linear_8,1,5,56,103,3137786224
7119,18,Jits_Linear_8,2,5,63,98,3137826032
7119,18,Jits_Linear_8,3,5,80,127,3137829700
7119,18,Jits_Linear_8,0,5,63,98,3138336196
7119,18,Jits_Linear_8,1,5,80,127,3138376212
7119,18,Jits_Linear_8,2,5,56,103,3138445744
7119,18,Jits_Linear_8,3,1,48,37,3138449464
7119,18,Jits_Linear_8,0,5,63,98,3138986460
7119,18,Jits_Linear_8,1,1,48,35,3139027644
7119,18,Jits_Linear_8,2,5,56,103,3139066700
7119,18,Jits_Linear_8,3,5,80,127,3139125608
7119,18,Jits_Linear_8,0,5,80,127,3139656084
7119,18,Jits_Linear_8,1,1,48,38,3139671632
7119,18,Jits_Linear_8,2,5,63,98,3139706204
7119,18,Jits_Linear_8,3,5,56,103,3139735808
7119,18,Jits_Linear_8,0,5,56,103,3140315428
7119,18,Jits_Linear_8,1,5,63,98,3140365632
7119,18,Jits_Linear_8,2,5,80,127,3140375976
7119,18,Jits_Linear_8,3,1,48,33,3140402860
7119,18,Jits_Linear_8,0,5,56,103,3140986408
7119,18,Jits_Linear_8,1,5,63,98,3141095876
7119,18,Jits_Linear_8,2,5,80,127,3141116260
7119,18,Jits_Linear_8,3,1,48,30,3141139532
7119,18,Jits_Linear_8,0,5,63,98,3141635420
7119,18,Jits_Linear_8,1,5,80,127,3141685500
7119,18,Jits_Linear_8,2,1,48,38,3141752512
7119,18,Jits_Linear_8,3,5,56,103,3141775624
7119,18,Jits_Linear_8,0,5,63,98,3142275520
7119,18,Jits_Linear_8,1,5,80,127,3142306020
7119,18,Jits_Linear_8,2,1,48,25,3142366536
7119,18,Jits_Linear_8,3,5,56,103,3142396444
7119,18,Jits_Linear_8,0,5,63,98,3142925556
7119,18,Jits_Linear_8,1,5,56,103,3142936052
7119,18,Jits_Linear_8,2,1,48,33,3143011636
7119,18,Jits_Linear_8,3,5,80,127,3143036464
7119,18,Jits_Linear_8,0,1,48,33,3143573720
7119,18,Jits_Linear_8,1,5,63,98,3143676296
7119,18,Jits_Linear_8,2,5,80,127,3143705996
7119,18,Jits_Linear_8,3,5,56,103,3143735596
7119,18,Jits_Linear_8,0,5,80,127,3144335612
7119,18,Jits_Linear_8,1,5,63,98,3144345884
7119,18,Jits_Linear_8,2,1,48,39,3144346852
7119,18,Jits_Linear_8,3,5,56,103,3144375628
7119,18,Jits_Linear_8,0,5,80,127,3144876512
7119,18,Jits_Linear_8,1,5,63,98,3144895852
7119,18,Jits_Linear_8,2,5,56,103,3144946424
7119,18,Jits_Linear_8,3,1,48,32,3144967604
7119,18,Jits_Linear_8,0,5,63,98,3145546224
7119,18,Jits_Linear_8,1,5,80,127,3145605568
7119,18,Jits_Linear_8,2,1,48,34,3145616932
7119,18,Jits_Linear_8,3,5,56,103,3145626020
7119,18,Jits_Linear_8,0,5,63,98,3146146596
7119,18,Jits_Linear_8,1,5,56,103,3146196576
7119,18,Jits_Linear_8,2,5,80,127,3146205576
7119,18,Jits_Linear_8,3,1,48,35,3146234324
7119,18,Jits_Linear_8,0,5,56,103,3146815836
7119,18,Jits_Linear_8,1,5,80,127,3146825960
7119,18,Jits_Linear_8,2,1,48,32,3146861512
7119,18,Jits_Linear_8,3,5,63,98,3146925528
7119,18,Jits_Linear_8,0,5,80,127,3147415920
7119,18,Jits_Linear_8,1,5,63,98,3147426344
7119,18,Jits_Linear_8,2,1,48,36,3147510740
7119,18,Jits_Linear_8,3,5,56,103,3147575680
7119,18,Jits_Linear_8,0,5,63,98,3148055864
7119,18,Jits_Linear_8,1,1,48,31,3148090020
7119,18,Jits_Linear_8,2,5,80,127,3148095896
7119,18,Jits_Linear_8,3,5,56,103,3148175688
7119,18,Jits_Linear_8,0,5,56,103,3148675512
7119,18,Jits_Linear_8,1,1,48,34,3148680796
7119,18,Jits_Linear_8,2,5,80,127,3148775828
7119,18,Jits_Linear_8,3,5,63,98,3148796424
7119,18,Jits_Linear_8,0,1,48,41,3149276464
7119,18,Jits_Linear_8,1,5,80,127,3149365596
7119,18,Jits_Linear_8,2,5,56,103,3149376076
7119,18,Jits_Linear_8,3,5,63,98,3149466060
7119,18,Jits_Linear_8,0,1,48,33,3149967288
7119,18,Jits_Linear_8,1,5,56,103,3149996460
7119,18,Jits_Linear_8,2,5,63,98,3150015800
7119,18,Jits_Linear_8,3,5,80,127,3150095732
7119,18,Jits_Linear_8,0,5,63,98,3150565676
7119,18,Jits_Linear_8,1,1,48,27,3150571860
7119,18,Jits_Linear_8,2,5,56,103,3150655828
7119,18,Jits_Linear_8,3,5,80,127,3150658896
7119,18,Jits_Linear_8,0,5,56,103,3151215960
7119,18,Jits_Linear_8,1,5,80,127,3151276500
7119,18,Jits_Linear_8,2,1,48,28,3151279544
7119,18,Jits_Linear_8,3,5,63,98,3151285496
7119,18,Jits_Linear_8,0,1,48,37,3151841704
7119,18,Jits_Linear_8,1,5,80,127,3151885572
7119,18,Jits_Linear_8,2,5,56,103,3151895916
7119,18,Jits_Linear_8,3,5,63,98,3151899228
7119,18,Jits_Linear_8,0,1,48,30,3152444656
7119,18,Jits_Linear_8,1,5,56,103,3152466400
7119,18,Jits_Linear_8,2,5,80,127,3152475400
7119,18,Jits_Linear_8,3,5,63,98,3152496160
7119,18,Jits_Linear_8,0,5,63,98,3153056208
7119,18,Jits_Linear_8,1,1,48,36,3153070192
7119,18,Jits_Linear_8,2,5,80,127,3153115624
7119,18,Jits_Linear_8,3,5,56,103,3153165600
7119,18,Jits_Linear_8,0,1,48,39,3153676244
7119,18,Jits_Linear_8,1,5,63,98,3153755568
7119,18,Jits_Linear_8,2,5,56,103,3153765764
7119,18,Jits_Linear_8,3,5,80,127,3153816024
7119,18,Jits_Linear_8,0,5,63,98,3154265520
7119,18,Jits_Linear_8,1,5,80,127,3154285832
7119,18,Jits_Linear_8,2,5,56,103,3154296396
7119,18,Jits_Linear_8,3,1,48,40,3154344104
7119,18,Jits_Linear_8,0,1,48,40,3154861196
7119,18,Jits_Linear_8,1,5,63,98,3154875764
7119,18,Jits_Linear_8,2,5,80,127,3154879128
7119,18,Jits_Linear_8,3,5,56,103,3154915704
7119,18,Jits_Linear_8,0,1,48,30,3155494108
7119,18,Jits_Linear_8,1,5,63,98,3155555640
7119,18,Jits_Linear_8,2,5,80,127,3155586512
7119,18,Jits_Linear_8,3,5,56,103,3155595644
7119,18,Jits_Linear_8,0,1,48,29,3156115032
7119,18,Jits_Linear_8,1,5,56,103,3156116448
7119,18,Jits_Linear_8,2,5,80,127,3156145456
7119,18,Jits_Linear_8,3,5,63,98,3156176324
7119,18,Jits_Linear_8,0,1,48,35,3156704288
7119,18,Jits_Linear_8,1,5,63,98,3156816176
7119,18,Jits_Linear_8,2,5,56,103,3156856340
7119,18,Jits_Linear_8,3,5,80,127,3156859408
7119,18,Jits_Linear_8,0,1,48,35,3157306024
7119,18,Jits_Linear_8,1,5,80,127,3157315940
7119,18,Jits_Linear_8,2,5,56,103,3157395816
7119,18,Jits_Linear_8,3,5,63,98,3157445928
7119,18,Jits_Linear_8,0,5,80,127,3157895492
7119,18,Jits_Linear_8,1,5,56,103,3157916248
7119,18,Jits_Linear_8,2,1,48,39,3157934660
7119,18,Jits_Linear_8,3,5,63,98,3158006224
7119,18,Jits_Linear_8,0,1,48,27,3158520704
7119,18,Jits_Linear_8,1,5,80,127,3158535428
7119,18,Jits_Linear_8,2,5,63,98,3158575464
7119,18,Jits_Linear_8,3,5,56,103,3158616376
7119,18,Jits_Linear_8,0,5,63,98,3159105932
7119,18,Jits_Linear_8,1,1,48,30,3159151976
7119,18,Jits_Linear_8,2,5,80,127,3159166392
7119,18,Jits_Linear_8,3,5,56,103,3159196216
7119,18,Jits_Linear_8,0,5,56,103,3159706072
7119,18,Jits_Linear_8,1,5,80,127,3159735676
7119,18,Jits_Linear_8,2,1,48,36,3159787868
7119,18,Jits_Linear_8,3,5,63,98,3159825800
7119,18,Jits_Linear_8,0,5,56,103,3160306156
7119,18,Jits_Linear_8,1,1,48,32,3160388720
7119,18,Jits_Linear_8,2,5,80,127,3160415716
7119,18,Jits_Linear_8,3,5,63,98,3160446216
7119,18,Jits_Linear_8,0,1,48,32,3160927376
7119,18,Jits_Linear_8,1,5,56,103,3160956244
7119,18,Jits_Linear_8,2,5,63,98,3161015736
7119,18,Jits_Linear_8,3,5,80,127,3161046444
7119,18,Jits_Linear_8,0,1,48,30,3161494264
7119,18,Jits_Linear_8,1,5,56,103,3161516388
7119,18,Jits_Linear_8,2,5,63,98,3161586144
7119,18,Jits_Linear_8,3,5,80,127,3161605468
7119,18,Jits_Linear_8,0,1,48,33,3162033724
7119,18,Jits_Linear_8,1,5,80,127,3162075404
7119,18,Jits_Linear_8,2,5,63,98,3162096236
7119,18,Jits_Linear_8,3,5,56,103,3162146076
7119,18,Jits_Linear_8,0,1,48,24,3162651788
7119,18,Jits_Linear_8,1,5,63,98,3162675644
7119,18,Jits_Linear_8,2,5,80,127,3162685692
7119,18,Jits_Linear_8,3,5,56,103,3162736264
7119,18,Jits_Linear_8,0,5,63,98,3163256240
7119,18,Jits_Linear_8,1,1,48,20,3163262128
7119,18,Jits_Linear_8,2,5,80,127,3163325844
7119,18,Jits_Linear_8,3,5,56,103,3163346228
7119,18,Jits_Linear_8,0,1,48,32,3163821212
7119,18,Jits_Linear_8,1,5,63,98,3163865448
7119,18,Jits_Linear_8,2,5,80,127,3163868740
7119,18,Jits_Linear_8,3,5,56,103,3163936260
7119,18,Jits_Linear_8,0,1,48,30,3164328816
7119,18,Jits_Linear_8,1,5,80,127,3164395980
7119,18,Jits_Linear_8,2,5,56,103,3164416440
7119,18,Jits_Linear_8,3,5,63,98,3164425572
7119,18,Jits_Linear_8,0,1,48,36,3164871336
7119,18,Jits_Linear_8,1,5,56,103,3164996052
7119,18,Jits_Linear_8,2,5,63,98,3165086036
7119,18,Jits_Linear_8,3,5,80,127,3165089328
7119,18,Jits_Linear_8,0,1,48,38,3165544424
7119,18,Jits_Linear_8,1,5,80,127,3165546080
7119,18,Jits_Linear_8,2,5,56,103,3165556352
7119,18,Jits_Linear_8,3,5,63,98,3165575468
7119,18,Jits_Linear_8,0,5,63,98,3166116332
7119,18,Jits_Linear_8,1,1,48,28,3166120496
7119,18,Jits_Linear_8,2,5,80,127,3166175524
7119,18,Jits_Linear_8,3,5,56,103,3166185940
7119,18,Jits_Linear_8,0,1,48,31,3166678232
7119,18,Jits_Linear_8,1,5,63,98,3166756128
7119,18,Jits_Linear_8,2,5,80,127,3166786088
7119,18,Jits_Linear_8,3,5,56,103,3166825804
7119,18,Jits_Linear_8,0,1,48,37,3167266052
7119,18,Jits_Linear_8,1,5,56,103,3167316200
7119,18,Jits_Linear_8,2,5,80,127,3167325424
7119,18,Jits_Linear_8,3,5,63,98,3167365500
7119,18,Jits_Linear_8,0,5,80,127,3167845780
7119,18,Jits_Linear_8,1,1,48,36,3167848224
7119,18,Jits_Linear_8,2,5,56,103,3167925496
7119,18,Jits_Linear_8,3,5,63,98,3167936136
7119,18,Jits_Linear_8,0,1,48,36,3168412556
7119,18,Jits_Linear_8,1,5,80,127,3168455976
7119,18,Jits_Linear_8,2,5,56,103,3168536304
7119,18,Jits_Linear_8,3,5,63,98,3168546128
7119,18,Jits_Linear_8,0,5,80,127,3168976268
7119,18,Jits_Linear_8,1,5,56,103,3169026324
7119,18,Jits_Linear_8,2,1,48,21,3169027292
7119,18,Jits_Linear_8,3,5,63,98,3169075572
7119,18,Jits_Linear_8,0,1,48,34,3169570348
7119,18,Jits_Linear_8,1,5,56,103,3169595624
7119,18,Jits_Linear_8,2,5,63,98,3169598772
7119,18,Jits_Linear_8,3,5,80,127,3169646128
7119,18,Jits_Linear_8,0,1,48,19,3170161052
7119,18,Jits_Linear_8,1,5,56,103,3170176368
7119,18,Jits_Linear_8,2,5,63,98,3170206044
7119,18,Jits_Linear_8,3,5,80,127,3170216392
7119,18,Jits_Linear_8,0,5,63,98,3170646316
7119,18,Jits_Linear_8,1,1,48,35,3170665848
7119,18,Jits_Linear_8,2,5,56,103,3170715992
7119,18,Jits_Linear_8,3,1,48,19,3170745992
7119,18,Jits_Linear_8,4,5,80,127,3170766244
7119,18,Jits_Linear_8,0,1,48,34,3171227372
7119,18,Jits_Linear_8,1,5,63,98,3171236316
7119,18,Jits_Linear_8,2,5,56,103,3171245464
7119,18,Jits_Linear_8,3,5,80,127,3171248456
7119,18,Jits_Linear_8,0,1,48,40,3171716024
7119,18,Jits_Linear_8,1,5,80,127,3171736128
7119,18,Jits_Linear_8,2,5,56,103,3171796224
7119,18,Jits_Linear_8,3,5,63,98,3171885468
7119,18,Jits_Linear_8,0,1,48,36,3172274448
7119,18,Jits_Linear_8,1,5,80,127,3172285928
7119,18,Jits_Linear_8,2,5,56,103,3172386116
7119,18,Jits_Linear_8,3,5,63,98,3172426128
7119,18,Jits_Linear_8,0,1,48,33,3172873404
7119,18,Jits_Linear_8,1,5,56,103,3172886008
7119,18,Jits_Linear_8,2,5,63,98,3172906320
7119,18,Jits_Linear_8,3,5,80,127,3172946256
7119,18,Jits_Linear_8,0,5,63,98,3173405996
7119,18,Jits_Linear_8,1,5,56,103,3173425560
7119,18,Jits_Linear_8,2,1,48,39,3173428752
7119,18,Jits_Linear_8,3,5,80,127,3173526004
7119,18,Jits_Linear_8,0,5,63,98,3173935492
7119,18,Jits_Linear_8,1,1,48,36,3173955628
7119,18,Jits_Linear_8,2,5,80,127,3174046000
7119,18,Jits_Linear_8,3,5,56,103,3174075808
7119,18,Jits_Linear_8,0,5,56,103,3174495636
7119,18,Jits_Linear_8,1,1,48,33,3174507300
7119,18,Jits_Linear_8,2,5,63,98,3174526280
7119,18,Jits_Linear_8,3,5,80,127,3174575508
7119,18,Jits_Linear_8,0,5,63,98,3175005516
7119,18,Jits_Linear_8,1,5,56,103,3175036168
7119,18,Jits_Linear_8,2,1,48,39,3175049996
7119,18,Jits_Linear_8,3,5,80,127,3175085392
7119,18,Jits_Linear_8,0,1,48,36,3175554612
7119,18,Jits_Linear_8,1,5,56,103,3175575984
7119,18,Jits_Linear_8,2,5,63,98,3175596296
7119,18,Jits_Linear_8,3,5,80,127,3175676224
7119,18,Jits_Linear_8,0,5,63,98,3176095972
7119,18,Jits_Linear_8,1,1,48,26,3176102156
7119,18,Jits_Linear_8,2,5,56,103,3176155460
7119,18,Jits_Linear_8,3,5,80,127,3176186180
7119,18,Jits_Linear_8,0,1,48,36,3176600700
7119,18,Jits_Linear_8,1,5,56,103,3176675880
7119,18,Jits_Linear_8,2,5,80,127,3176736136
7119,18,Jits_Linear_8,3,5,63,98,3176776000
7119,18,Jits_Linear_8,0,1,48,36,3177183860
7119,18,Jits_Linear_8,1,5,63,98,3177185596
7119,18,Jits_Linear_8,2,5,56,103,3177246088
7119,18,Jits_Linear_8,3,5,80,127,3177315980
7119,18,Jits_Linear_8,0,1,48,38,3177687576
7119,18,Jits_Linear_8,1,5,56,103,3177795948
7119,18,Jits_Linear_8,2,5,63,98,3177806292
7119,18,Jits_Linear_8,3,5,80,127,3177809584
7119,18,Jits_Linear_8,0,1,48,31,3178257296
7119,18,Jits_Linear_8,1,5,63,98,3178266116
7119,18,Jits_Linear_8,2,5,56,103,3178326280
7119,18,Jits_Linear_8,3,5,80,127,3178329352
7119,18,Jits_Linear_8,0,5,63,98,3178775832
7119,18,Jits_Linear_8,1,1,48,33,3178784724
7119,18,Jits_Linear_8,2,5,80,127,3178805800
7119,18,Jits_Linear_8,3,5,56,103,3178826036
7119,18,Jits_Linear_8,0,5,56,103,3179315888
7119,18,Jits_Linear_8,1,1,48,29,3179327400
7119,18,Jits_Linear_8,2,5,63,98,3179365864
7119,18,Jits_Linear_8,3,5,80,127,3179445868
7119,18,Jits_Linear_8,0,5,80,127,3179816408
7119,18,Jits_Linear_8,1,5,63,98,3179856200
7119,18,Jits_Linear_8,2,5,56,103,3179875984
7119,18,Jits_Linear_8,3,1,48,36,3179884956
7119,18,Jits_Linear_8,0,5,56,103,3180406152
7119,18,Jits_Linear_8,1,1,48,27,3180415220
7119,18,Jits_Linear_8,2,5,80,127,3180416864
7119,18,Jits_Linear_8,3,5,63,98,3180435980
7119,18,Jits_Linear_8,0,5,56,103,3180905848
7119,18,Jits_Linear_8,1,1,48,38,3180926280
7119,18,Jits_Linear_8,2,5,63,98,3180956120
7119,18,Jits_Linear_8,3,5,80,127,3180985648
7119,18,Jits_Linear_8,0,5,56,103,3181386140
7119,18,Jits_Linear_8,1,5,63,98,3181396336
7119,18,Jits_Linear_8,2,1,48,35,3181429496
7119,18,Jits_Linear_8,3,5,80,127,3181445632
7119,18,Jits_Linear_8,0,5,56,103,3181896016
7119,18,Jits_Linear_8,1,5,80,127,3181899156
7119,18,Jits_Linear_8,2,1,48,33,3181947312
7119,18,Jits_Linear_8,3,5,63,98,3182055800
7119,18,Jits_Linear_8,0,5,63,98,3182425448
7119,18,Jits_Linear_8,1,1,48,32,3182459428
7119,18,Jits_Linear_8,2,5,56,103,3182496020
7119,18,Jits_Linear_8,3,5,80,127,3182536032
7119,18,Jits_Linear_8,0,1,48,28,3182973184
7119,18,Jits_Linear_8,1,5,63,98,3182976812
7119,18,Jits_Linear_8,2,5,56,103,3183066124
7119,18,Jits_Linear_8,3,5,80,127,3183069176
7119,18,Jits_Linear_8,0,5,56,103,3183465788
7119,18,Jits_Linear_8,1,1,48,28,3183523212
7119,18,Jits_Linear_8,2,5,63,98,3183555992
7119,18,Jits_Linear_8,3,5,80,127,3183566112
7119,18,Jits_Linear_8,0,5,56,103,3183946004
7119,18,Jits_Linear_8,1,5,63,98,3183996208
7119,18,Jits_Linear_8,2,1,48,32,3184020152
7119,18,Jits_Linear_8,3,5,80,127,3184025952
7119,18,Jits_Linear_8,0,1,48,35,3184525940
7119,18,Jits_Linear_8,1,5,63,98,3184527276
7119,18,Jits_Linear_8,2,5,80,127,3184535904
7119,18,Jits_Linear_8,3,5,56,103,3184596296
7119,18,Jits_Linear_8,0,5,63,98,3184945904
7119,18,Jits_Linear_8,1,5,80,127,3185005924
7119,18,Jits_Linear_8,2,5,56,103,3185045864
7119,18,Jits_Linear_8,3,1,48,35,3185046828
7119,18,Jits_Linear_8,0,1,48,31,3185540028
7119,18,Jits_Linear_8,1,5,56,103,3185545532
7119,18,Jits_Linear_8,2,5,80,127,3185566140
7119,18,Jits_Linear_8,3,5,63,98,3185585476
7119,18,Jits_Linear_8,0,5,63,98,3185965280
7119,18,Jits_Linear_8,1,5,56,103,3185985888
7119,18,Jits_Linear_8,2,5,80,127,3186025976
7119,18,Jits_Linear_8,3,1,48,33,3186027464
7119,18,Jits_Linear_8,0,1,48,35,3186476420
7119,18,Jits_Linear_8,1,5,63,98,3186477832
7119,18,Jits_Linear_8,2,5,80,127,3186506160
7119,18,Jits_Linear_8,3,5,56,103,3186525500
7119,18,Jits_Linear_8,0,5,80,127,3186946628
7119,18,Jits_Linear_8,1,5,56,103,3186995656
7119,18,Jits_Linear_8,2,1,48,28,3187010012
7119,18,Jits_Linear_8,3,5,63,98,3187055968
7119,18,Jits_Linear_8,0,5,63,98,3187425716
7119,18,Jits_Linear_8,1,1,48,31,3187493804
7119,18,Jits_Linear_8,2,5,56,103,3187545320
7119,18,Jits_Linear_8,3,5,80,127,3187576264
7119,18,Jits_Linear_8,0,5,80,127,3187955968
7119,18,Jits_Linear_8,1,5,63,98,3187975828
7119,18,Jits_Linear_8,2,1,48,32,3188003836
7119,18,Jits_Linear_8,3,5,56,103,3188046128
7119,18,Jits_Linear_8,0,5,63,98,3188466004
7119,18,Jits_Linear_8,1,5,56,103,3188476200
7119,18,Jits_Linear_8,2,1,48,38,3188517480
7119,18,Jits_Linear_8,3,5,80,127,3188556016
7119,18,Jits_Linear_8,0,1,48,32,3188984764
7119,18,Jits_Linear_8,1,5,56,103,3189015832
7119,18,Jits_Linear_8,2,5,80,127,3189045732
7119,18,Jits_Linear_8,3,5,63,98,3189056000
7119,18,Jits_Linear_8,0,9999,9999,9999,3078623352
7119,18,Jits_Linear_8,1,9999,9999,9999,3079443512
7119,18,Jits_Linear_8,2,9999,9999,9999,3080263772
7119,18,Jits_Linear_8,3,9999,9999,9999,3081083992
7119,18,Jits_Linear_8,4,9999,9999,9999,3081903160
7119,18,Jits_Linear_8,5,9999,9999,9999,3082713180
7119,18,Jits_Linear_8,6,9999,9999,9999,3083523196
7119,18,Jits_Linear_8,7,9999,9999,9999,3084333164
7119,18,Jits_Linear_8,8,9999,9999,9999,3085143164
7119,18,Jits_Linear_8,9,9999,9999,9999,3085953096
7119,18,Jits_Linear_8,10,9999,9999,9999,3086753920
7119,18,Jits_Linear_8,11,9999,9999,9999,3087553604
7119,18,Jits_Linear_8,12,9999,9999,9999,3088353376
7119,18,Jits_Linear_8,13,9999,9999,9999,3089153148
7119,18,Jits_Linear_8,14,9999,9999,9999,3089953888
7119,18,Jits_Linear_8,15,9999,9999,9999,3090743368
7119,18,Jits_Linear_8,16,9999,9999,9999,3091533892
7119,18,Jits_Linear_8,17,9999,9999,9999,3092323388
7119,18,Jits_Linear_8,18,9999,9999,9999,3093113936
7119,18,Jits_Linear_8,19,9999,9999,9999,3093903428
7119,18,Jits_Linear_8,20,9999,9999,9999,3094683776
7119,18,Jits_Linear_8,21,9999,9999,9999,3095464048
7119,18,Jits_Linear_8,22,9999,9999,9999,3096243268
7119,18,Jits_Linear_8,23,9999,9999,9999,3097023544
7119,18,Jits_Linear_8,24,9999,9999,9999,3097803892
7119,18,Jits_Linear_8,25,9999,9999,9999,3098573904
7119,18,Jits_Linear_8,26,9999,9999,9999,3099343992
7119,18,Jits_Linear_8,27,9999,9999,9999,3100114004
7119,18,Jits_Linear_8,28,9999,9999,9999,3100884092
7119,18,Jits_Linear_8,29,9999,9999,9999,3101654112
7119,18,Jits_Linear_8,30,9999,9999,9999,3102423152
7119,18,Jits_Linear_8,31,9999,9999,9999,3103183948
7119,18,Jits_Linear_8,32,9999,9999,9999,3103943772
7119,18,Jits_Linear_8,33,9999,9999,9999,3104703604
7119,18,Jits_Linear_8,34,9999,9999,9999,3105463368
7119,18,Jits_Linear_8,35,9999,9999,9999,3106213984
7119,18,Jits_Linear_8,36,9999,9999,9999,3106963548
7119,18,Jits_Linear_8,37,9999,9999,9999,3107713112
7119,18,Jits_Linear_8,38,9999,9999,9999,3108463724
7119,18,Jits_Linear_8,39,9999,9999,9999,3109213304
7119,18,Jits_Linear_8,40,9999,9999,9999,3109953652
7119,18,Jits_Linear_8,41,9999,9999,9999,3110694008
7119,18,Jits_Linear_8,42,9999,9999,9999,3111433280
7119,18,Jits_Linear_8,43,9999,9999,9999,3112173624
7119,18,Jits_Linear_8,44,9999,9999,9999,3112914032
7119,18,Jits_Linear_8,45,9999,9999,9999,3113643068
7119,18,Jits_Linear_8,46,9999,9999,9999,3114373224
7119,18,Jits_Linear_8,47,9999,9999,9999,3115103300
7119,18,Jits_Linear_8,48,9999,9999,9999,3115833456
7119,18,Jits_Linear_8,49,9999,9999,9999,3116563580
7119,18,Jits_Linear_8,50,9999,9999,9999,3117283388
7119,18,Jits_Linear_8,51,9999,9999,9999,3118003276
7119,18,Jits_Linear_8,52,9999,9999,9999,3118723168
7119,18,Jits_Linear_8,53,9999,9999,9999,3119444052
7119,18,Jits_Linear_8,54,9999,9999,9999,3120163940
7119,18,Jits_Linear_8,55,9999,9999,9999,3120873556
7119,18,Jits_Linear_8,56,9999,9999,9999,3121583184
7119,18,Jits_Linear_8,57,9999,9999,9999,3122293824
7119,18,Jits_Linear_8,58,9999,9999,9999,3123003464
7119,18,Jits_Linear_8,59,9999,9999,9999,3123713080
7119,18,Jits_Linear_8,60,9999,9999,9999,3124413504
7119,18,Jits_Linear_8,61,9999,9999,9999,3125113932
7119,18,Jits_Linear_8,62,9999,9999,9999,3125813312
7119,18,Jits_Linear_8,63,9999,9999,9999,3126513764
7119,18,Jits_Linear_8,64,9999,9999,9999,3127213136
7119,18,Jits_Linear_8,65,9999,9999,9999,3127903288
7119,18,Jits_Linear_8,66,9999,9999,9999,3128593492
7119,18,Jits_Linear_8,67,9999,9999,9999,3129283712
7119,18,Jits_Linear_8,68,9999,9999,9999,3129973848
7119,18,Jits_Linear_8,69,9999,9999,9999,3130664016
7119,18,Jits_Linear_8,70,9999,9999,9999,3131343948
7119,18,Jits_Linear_8,71,9999,9999,9999,3132023916
7119,18,Jits_Linear_8,72,9999,9999,9999,3132703804
7119,18,Jits_Linear_8,73,9999,9999,9999,3133383756
7119,18,Jits_Linear_8,74,9999,9999,9999,3134063736
7119,18,Jits_Linear_8,75,9999,9999,9999,3134733412
7119,18,Jits_Linear_8,76,9999,9999,9999,3135403108
7119,18,Jits_Linear_8,77,9999,9999,9999,3136073796
7119,18,Jits_Linear_8,78,9999,9999,9999,3136743548
7119,18,Jits_Linear_8,79,9999,9999,9999,3137413184
7119,18,Jits_Linear_8,80,9999,9999,9999,3138073680
7119,18,Jits_Linear_8,81,9999,9999,9999,3138733156
7119,18,Jits_Linear_8,82,9999,9999,9999,3139393640
7119,18,Jits_Linear_8,83,9999,9999,9999,3140054092
7119,18,Jits_Linear_8,84,9999,9999,9999,3140723796
7119,18,Jits_Linear_8,85,9999,9999,9999,3141374008
7119,18,Jits_Linear_8,86,9999,9999,9999,3142023268
7119,18,Jits_Linear_8,87,9999,9999,9999,3142673528
7119,18,Jits_Linear_8,88,9999,9999,9999,3143323736
7119,18,Jits_Linear_8,89,9999,9999,9999,3143973964
7119,18,Jits_Linear_8,90,9999,9999,9999,3144613980
7119,18,Jits_Linear_8,91,9999,9999,9999,3145254016
7119,18,Jits_Linear_8,92,9999,9999,9999,3145893964
7119,18,Jits_Linear_8,93,9999,9999,9999,3146533992
7119,18,Jits_Linear_8,94,9999,9999,9999,3147173992
7119,18,Jits_Linear_8,95,9999,9999,9999,3147803768
7119,18,Jits_Linear_8,96,9999,9999,9999,3148433520
7119,18,Jits_Linear_8,97,9999,9999,9999,3149063260
7119,18,Jits_Linear_8,98,9999,9999,9999,3149694012
7119,18,Jits_Linear_8,99,9999,9999,9999,3150323832
7119,18,Jits_Linear_8,100,9999,9999,9999,3150943324
7119,18,Jits_Linear_8,101,9999,9999,9999,3151563848
7119,18,Jits_Linear_8,102,9999,9999,9999,3152183360
7119,18,Jits_Linear_8,103,9999,9999,9999,3152803956
7119,18,Jits_Linear_8,104,9999,9999,9999,3153423432
7119,18,Jits_Linear_8,105,9999,9999,9999,3154033792
7119,18,Jits_Linear_8,106,9999,9999,9999,3154644044
7119,18,Jits_Linear_8,107,9999,9999,9999,3155253340
7119,18,Jits_Linear_8,108,9999,9999,9999,3155863680
7119,18,Jits_Linear_8,109,9999,9999,9999,3156473936
7119,18,Jits_Linear_8,110,9999,9999,9999,3157074032
7119,18,Jits_Linear_8,111,9999,9999,9999,3157674104
7119,18,Jits_Linear_8,112,9999,9999,9999,3158273124
7119,18,Jits_Linear_8,113,9999,9999,9999,3158873160
7119,18,Jits_Linear_8,114,9999,9999,9999,3159473228
7119,18,Jits_Linear_8,115,9999,9999,9999,3160064076
7119,18,Jits_Linear_8,116,9999,9999,9999,3160663148
7119,18,Jits_Linear_8,117,9999,9999,9999,3161253948
7119,18,Jits_Linear_8,118,9999,9999,9999,3161843832
7119,18,Jits_Linear_8,119,9999,9999,9999,3162433660
7119,18,Jits_Linear_8,120,9999,9999,9999,3163013204
7119,18,Jits_Linear_8,121,9999,9999,9999,3163593796
7119,18,Jits_Linear_8,122,9999,9999,9999,3164173404
7119,18,Jits_Linear_8,123,9999,9999,9999,3164754012
7119,18,Jits_Linear_8,124,9999,9999,9999,3165333620
7119,18,Jits_Linear_8,125,9999,9999,9999,3165903940
7119,18,Jits_Linear_8,126,9999,9999,9999,3166473288
7119,18,Jits_Linear_8,127,9999,9999,9999,3167043644
7119,18,Jits_Linear_8,128,9999,9999,9999,3167614052
7119,18,Jits_Linear_8,129,9999,9999,9999,3168183404
7119,18,Jits_Linear_8,130,9999,9999,9999,3168743492
7119,18,Jits_Linear_8,131,9999,9999,9999,3169303660
7119,18,Jits_Linear_8,132,9999,9999,9999,3169863804
7119,18,Jits_Linear_8,133,9999,9999,9999,3170423880
7119,18,Jits_Linear_8,134,9999,9999,9999,3170983996
7119,18,Jits_Linear_8,135,9999,9999,9999,3171533932
7119,18,Jits_Linear_8,136,9999,9999,9999,3172083804
7119,18,Jits_Linear_8,137,9999,9999,9999,3172633708
7119,18,Jits_Linear_8,138,9999,9999,9999,3173183560
7119,18,Jits_Linear_8,139,9999,9999,9999,3173733436
7119,18,Jits_Linear_8,140,9999,9999,9999,3174273124
7119,18,Jits_Linear_8,141,9999,9999,9999,3174813784
7119,18,Jits_Linear_8,142,9999,9999,9999,3175353408
7119,18,Jits_Linear_8,143,9999,9999,9999,3175894140
7119,18,Jits_Linear_8,144,9999,9999,9999,3176444008
7119,18,Jits_Linear_8,145,9999,9999,9999,3176973440
7119,18,Jits_Linear_8,146,9999,9999,9999,3177503856
7119,18,Jits_Linear_8,147,9999,9999,9999,3178033276
7119,18,Jits_Linear_8,148,9999,9999,9999,3178563664
7119,18,Jits_Linear_8,149,9999,9999,9999,3179094128
7119,18,Jits_Linear_8,150,9999,9999,9999,3179623480
7119,18,Jits_Linear_8,151,9999,9999,9999,3180143696
7119,18,Jits_Linear_8,152,9999,9999,9999,3180663920
7119,18,Jits_Linear_8,153,9999,9999,9999,3181184068
7119,18,Jits_Linear_8,154,9999,9999,9999,3181713500
7119,18,Jits_Linear_8,155,9999,9999,9999,3182223452
7119,18,Jits_Linear_8,156,9999,9999,9999,3182733408
7119,18,Jits_Linear_8,157,9999,9999,9999,3183243348
7119,18,Jits_Linear_8,158,9999,9999,9999,3183753300
7119,18,Jits_Linear_8,159,9999,9999,9999,3184263256
7119,18,Jits_Linear_8,160,9999,9999,9999,3184764004
7119,18,Jits_Linear_8,161,9999,9999,9999,3185263684
7119,18,Jits_Linear_8,162,9999,9999,9999,3185763448
7119,18,Jits_Linear_8,163,9999,9999,9999,3186263124
7119,18,Jits_Linear_8,164,9999,9999,9999,3186763848
7119,18,Jits_Linear_8,165,9999,9999,9999,3187253340
7119,18,Jits_Linear_8,166,9999,9999,9999,3187743824
7119,18,Jits_Linear_8,167,9999,9999,9999,3188233292
7119,18,Jits_Linear_8,168,9999,9999,9999,3188723772
7119,18,Jits_Linear_8,169,9999,9999,9999,3189213272
7120,5,ISIP_5,0,5,42,127,3249277268
7120,5,ISIP_5,1,5,42,127,3249776912
7120,5,ISIP_5,2,5,42,127,3250276852
7120,5,ISIP_5,3,5,42,127,3250776564
7120,5,ISIP_5,4,5,42,127,3251277108
7120,5,ISIP_5,5,1,48,38,3251282540
7120,5,ISIP_5,6,1,48,45,3251740856
7120,5,ISIP_5,7,5,42,127,3251776796
7120,5,ISIP_5,8,5,42,127,3252276720
7120,5,ISIP_5,9,1,48,45,3252292252
7120,5,ISIP_5,10,5,42,127,3252777312
7120,5,ISIP_5,11,1,48,37,3252832416
7120,5,ISIP_5,12,5,42,127,3253277004
7120,5,ISIP_5,13,1,48,40,3253308024
7120,5,ISIP_5,14,5,42,127,3253776676
7120,5,ISIP_5,15,1,48,40,3253790068
7120,5,ISIP_5,16,5,42,127,3254276596
7120,5,ISIP_5,17,1,48,40,3254341368
7120,5,ISIP_5,18,5,42,127,3254777188
7120,5,ISIP_5,19,1,48,41,3254807404
7120,5,ISIP_5,20,5,42,127,3255276884
7120,5,ISIP_5,21,1,48,46,3255292712
7120,5,ISIP_5,22,5,42,127,3255776576
7120,5,ISIP_5,23,1,48,42,3255777988
7120,5,ISIP_5,24,5,42,127,3256277540
7120,5,ISIP_5,25,1,48,43,3256308708
7120,5,ISIP_5,26,5,42,127,3256776940
7120,5,ISIP_5,27,1,48,43,3256795392
7120,5,ISIP_5,28,5,42,127,3257276632
7120,5,ISIP_5,29,1,48,37,3257287528
7120,5,ISIP_5,30,1,48,35,3257741728
7120,5,ISIP_5,31,5,42,127,3257776468
7120,5,ISIP_5,32,1,48,40,3258221448
7120,5,ISIP_5,33,5,42,127,3258277212
7120,5,ISIP_5,34,1,48,41,3258724364
7120,5,ISIP_5,35,5,42,127,3258776832
7120,5,ISIP_5,36,1,48,44,3259258392
7120,5,ISIP_5,37,5,42,127,3259276600
7120,5,ISIP_5,38,1,48,45,3259768780
7120,5,ISIP_5,39,5,42,127,3259777344
7120,5,ISIP_5,40,1,48,39,3260270648
7120,5,ISIP_5,41,5,42,127,3260277040
7120,5,ISIP_5,42,5,42,127,3260776740
7120,5,ISIP_5,43,1,48,39,3260797064
7120,5,ISIP_5,44,1,48,41,3261249988
7120,5,ISIP_5,45,5,42,127,3261276504
7120,5,ISIP_5,46,5,42,127,3261777472
7120,5,ISIP_5,47,1,48,44,3261778964
7120,5,ISIP_5,48,5,42,127,3262277020
7120,5,ISIP_5,49,1,48,43,3262309464
7120,5,ISIP_5,50,5,42,127,3262776788
7120,5,ISIP_5,51,1,48,38,3262813040
7120,5,ISIP_5,52,5,42,127,3263277604
7120,5,ISIP_5,53,1,48,41,3263291648
7120,5,ISIP_5,54,5,42,127,3263777524
7120,5,ISIP_5,55,1,48,41,3263792388
7120,5,ISIP_5,56,5,42,127,3264276696
7120,5,ISIP_5,57,1,48,43,3264300384
7120,5,ISIP_5,58,5,42,127,3264776516
7120,5,ISIP_5,59,1,48,37,3264840096
7120,5,ISIP_5,60,5,42,127,3265277628
7120,5,ISIP_5,61,1,48,45,3265323188
7120,5,ISIP_5,62,5,42,127,3265777028
7120,5,ISIP_5,63,1,48,40,3265813680
7120,5,ISIP_5,64,5,42,127,3266276648
7120,5,ISIP_5,65,1,48,43,3266305200
7120,5,ISIP_5,66,1,48,37,3266749296
7120,5,ISIP_5,67,5,42,127,3266776408
7120,5,ISIP_5,68,1,48,40,3267257220
7120,5,ISIP_5,69,5,42,127,3267277372
7120,5,ISIP_5,70,1,48,39,3267758116
7120,5,ISIP_5,71,5,42,127,3267776844
7120,5,ISIP_5,72,1,48,41,3268266480
7120,5,ISIP_5,73,5,42,127,3268276612
7120,5,ISIP_5,74,1,48,41,3268752564
7120,5,ISIP_5,75,5,42,127,3268777728
7120,5,ISIP_5,76,1,48,41,3269279948
7120,5,ISIP_5,77,1,48,40,3269750080
7120,5,ISIP_5,78,1,48,39,3270259420
7120,5,ISIP_5,79,1,48,38,3270744228
7120,5,ISIP_5,80,1,48,39,3271254536
7120,5,ISIP_5,81,1,48,35,3271752432
7120,5,ISIP_5,82,1,48,40,3272218316
7120,5,ISIP_5,83,1,48,40,3272730648
7120,5,ISIP_5,84,1,48,39,3273242976
7120,5,ISIP_5,85,1,48,38,3273756428
7120,5,ISIP_5,86,1,48,41,3274205908
7120,5,ISIP_5,87,1,48,39,3274729684
7120,5,ISIP_5,88,1,48,47,3275266772
7120,5,ISIP_5,89,1,48,38,3275756064
7120,5,ISIP_5,90,1,48,45,3276252392
7120,5,ISIP_5,91,1,48,37,3276787776
7120,5,ISIP_5,92,1,48,41,3277274524
7120,5,ISIP_5,93,1,48,43,3277784536
7120,5,ISIP_5,94,1,48,37,3278283028
7120,5,ISIP_5,95,1,48,38,3278772980
7120,5,ISIP_5,96,1,48,40,3279265564
7120,5,ISIP_5,97,1,48,41,3279760772
7120,5,ISIP_5,98,1,48,39,3280272272
7120,5,ISIP_5,99,1,48,39,3280729560
7120,5,ISIP_5,100,1,48,36,3281265448
7120,5,ISIP_5,101,1,48,47,3281766188
7120,5,ISIP_5,102,1,48,36,3282224296
7120,5,ISIP_5,103,1,48,44,3282692172
7120,5,ISIP_5,104,1,48,45,3283219932
7120,5,ISIP_5,105,1,48,43,3283705612
7120,5,ISIP_5,106,1,48,42,3284186604
7120,5,ISIP_5,107,1,48,37,3284675000
7120,5,ISIP_5,108,1,48,42,3285157412
7120,5,ISIP_5,109,1,48,37,3285670116
7120,5,ISIP_5,110,1,48,39,3286125376
7120,5,ISIP_5,111,1,48,43,3286608016
7120,5,ISIP_5,112,1,48,39,3287153856
7120,5,ISIP_5,113,1,48,41,3287626992
7120,5,ISIP_5,114,1,48,30,3288109028
7120,5,ISIP_5,115,1,48,42,3288581768
7120,5,ISIP_5,116,1,48,41,3289067996
7120,5,ISIP_5,117,1,48,46,3289545100
7120,5,ISIP_5,118,1,48,42,3290016816
7120,5,ISIP_5,119,1,48,33,3290514636
7120,5,ISIP_5,120,1,48,46,3291002208
7120,5,ISIP_5,121,1,48,38,3291469960
7120,5,ISIP_5,122,1,48,44,3291931728
7120,5,ISIP_5,123,1,48,41,3292389880
7120,5,ISIP_5,124,1,48,38,3292873112
7120,5,ISIP_5,125,1,48,43,3293317308
7120,5,ISIP_5,126,1,48,44,3293766268
7120,5,ISIP_5,127,1,48,36,3294213876
7120,5,ISIP_5,128,1,48,40,3294719920
7120,5,ISIP_5,129,1,48,43,3295181464
7120,5,ISIP_5,130,1,48,43,3295670232
7120,5,ISIP_5,131,1,48,44,3296157508
7120,5,ISIP_5,132,1,48,35,3296657876
7120,5,ISIP_5,133,1,48,43,3297148812
7120,5,ISIP_5,134,1,48,39,3297590612
7120,5,ISIP_5,135,1,48,42,3298118424
7120,5,ISIP_5,136,1,48,42,3298610936
7120,5,ISIP_5,137,1,48,35,3299064156
7120,5,ISIP_5,138,1,48,34,3299590396
7120,5,ISIP_5,139,1,48,40,3300089636
7120,5,ISIP_5,140,1,48,37,3300584388
7120,5,ISIP_5,141,1,48,27,3301041968
7120,5,ISIP_5,142,1,48,38,3301550932
7120,5,ISIP_5,143,1,48,44,3301983608
7120,5,ISIP_5,144,1,48,43,3302470652
7120,5,ISIP_5,145,1,48,43,3302934372
7120,5,ISIP_5,146,1,48,42,3303401348
7120,5,ISIP_5,147,1,48,43,3303860352
7120,5,ISIP_5,148,1,48,40,3304345608
7120,5,ISIP_5,149,1,48,46,3304803784
7120,5,ISIP_5,150,1,48,40,3305270472
7120,5,ISIP_5,151,1,48,36,3305737152
7120,5,ISIP_5,152,1,48,35,3306244844
7120,5,ISIP_5,153,1,48,42,3306686644
7120,5,ISIP_5,154,1,48,46,3307130084
7120,5,ISIP_5,155,1,48,39,3307585044
7120,5,ISIP_5,156,1,48,41,3308080252
7120,5,ISIP_5,157,1,48,41,3308525236
7120,5,ISIP_5,158,1,48,39,3309019320
7120,5,ISIP_5,159,1,48,39,3309502852
7120,5,ISIP_5,160,1,48,40,3309983092
7120,5,ISIP_5,161,1,48,45,3310442092
7120,5,ISIP_5,162,1,48,38,3310910292
7120,5,ISIP_5,163,1,48,46,3311336736
7120,5,ISIP_5,164,1,48,35,3311797828
7120,5,ISIP_5,165,1,48,40,3312223680
7120,5,ISIP_5,166,1,48,35,3312662332
7120,5,ISIP_5,167,1,48,34,3313062664
7120,5,ISIP_5,168,1,48,35,3313560936
7120,5,ISIP_5,169,1,48,33,3313997948
7120,5,ISIP_5,170,1,48,42,3314439716
7120,5,ISIP_5,171,1,48,41,3314895952
7120,5,ISIP_5,172,1,48,46,3315376040
7120,5,ISIP_5,173,1,48,39,3315847908
7120,5,ISIP_5,174,1,48,40,3316291876
7120,5,ISIP_5,175,1,48,40,3316792540
7120,5,ISIP_5,176,1,48,45,3317234972
7120,5,ISIP_5,177,1,48,39,3317699660
7120,5,ISIP_5,178,1,48,39,3318180128
7120,5,ISIP_5,179,1,48,40,3318638080
7120,5,ISIP_5,180,1,48,40,3319080324
7120,5,ISIP_5,181,1,48,42,3319521424
7120,5,ISIP_5,182,1,48,41,3319970548
7120,5,ISIP_5,183,1,48,39,3320404644
7120,5,ISIP_5,184,1,48,42,3320872544
7120,5,ISIP_5,185,1,48,32,3321307736
7120,5,ISIP_5,186,1,48,38,3321754528
7120,5,ISIP_5,187,1,48,35,3322239708
7120,5,ISIP_5,188,1,48,40,3322664304
7120,5,ISIP_5,189,1,48,36,3323129784
7120,5,ISIP_5,190,1,48,37,3323575772
7120,5,ISIP_5,191,1,48,46,3324019588
7120,5,ISIP_5,192,1,48,36,3324493696
7120,5,ISIP_5,193,1,48,43,3324904508
7120,5,ISIP_5,194,1,48,33,3325382952
7120,5,ISIP_5,195,1,48,42,3325875908
7120,5,ISIP_5,196,1,48,36,3326369764
7120,5,ISIP_5,197,1,48,44,3326796008
7120,5,ISIP_5,198,1,48,40,3327227292
7120,5,ISIP_5,199,1,48,40,3327671928
7120,5,ISIP_5,200,1,48,33,3328121800
7120,5,ISIP_5,201,1,48,32,3328570108
7120,5,ISIP_5,202,1,48,32,3329001784
7120,5,ISIP_5,0,9999,9999,9999,3249274980
7120,5,ISIP_5,1,9999,9999,9999,3249774696
7120,5,ISIP_5,2,9999,9999,9999,3250274412
7120,5,ISIP_5,3,9999,9999,9999,3250774128
7120,5,ISIP_5,4,9999,9999,9999,3251274820
7120,5,ISIP_5,5,9999,9999,9999,3251774580
7120,5,ISIP_5,6,9999,9999,9999,3252274280
7120,5,ISIP_5,7,9999,9999,9999,3252775024
7120,5,ISIP_5,8,9999,9999,9999,3253274716
7120,5,ISIP_5,9,9999,9999,9999,3253774388
7120,5,ISIP_5,10,9999,9999,9999,3254274160
7120,5,ISIP_5,11,9999,9999,9999,3254774900
7120,5,ISIP_5,12,9999,9999,9999,3255274596
7120,5,ISIP_5,13,9999,9999,9999,3255774288
7120,5,ISIP_5,14,9999,9999,9999,3256275028
7120,5,ISIP_5,15,9999,9999,9999,3256774724
7120,5,ISIP_5,16,9999,9999,9999,3257274420
7120,5,ISIP_5,17,9999,9999,9999,3257774180
7120,5,ISIP_5,18,9999,9999,9999,3258274924
7120,5,ISIP_5,19,9999,9999,9999,3258774616
7120,5,ISIP_5,20,9999,9999,9999,3259274316
7120,5,ISIP_5,21,9999,9999,9999,3259775056
7120,5,ISIP_5,22,9999,9999,9999,3260274752
7120,5,ISIP_5,23,9999,9999,9999,3260774452
7120,5,ISIP_5,24,9999,9999,9999,3261274216
7120,5,ISIP_5,25,9999,9999,9999,3261774964
7120,5,ISIP_5,26,9999,9999,9999,3262274660
7120,5,ISIP_5,27,9999,9999,9999,3262774352
7120,5,ISIP_5,28,9999,9999,9999,3263275096
7120,5,ISIP_5,29,9999,9999,9999,3263774792
7120,5,ISIP_5,30,9999,9999,9999,3264274484
7120,5,ISIP_5,31,9999,9999,9999,3264774228
7120,5,ISIP_5,32,9999,9999,9999,3265274968
7120,5,ISIP_5,33,9999,9999,9999,3265774664
7120,5,ISIP_5,34,9999,9999,9999,3266274360
7120,5,ISIP_5,35,9999,9999,9999,3266774120
7120,5,ISIP_5,36,9999,9999,9999,3267274864
7120,5,ISIP_5,37,9999,9999,9999,3267774560
7120,5,ISIP_5,38,9999,9999,9999,3268274252
7120,5,ISIP_5,39,9999,9999,9999,3268774992
7120,5,ISIP_5,40,9999,9999,9999,3269274696
7120,5,ISIP_5,41,9999,9999,9999,3269774456
7120,5,ISIP_5,42,9999,9999,9999,3270274148
7120,5,ISIP_5,43,9999,9999,9999,3270774884
7120,5,ISIP_5,44,9999,9999,9999,3271274572
7120,5,ISIP_5,45,9999,9999,9999,3271774268
7120,5,ISIP_5,46,9999,9999,9999,3272275004
7120,5,ISIP_5,47,9999,9999,9999,3272774768
7120,5,ISIP_5,48,9999,9999,9999,3273274460
7120,5,ISIP_5,49,9999,9999,9999,3273774148
7120,5,ISIP_5,50,9999,9999,9999,3274274888
7120,5,ISIP_5,51,9999,9999,9999,3274774576
7120,5,ISIP_5,52,9999,9999,9999,3275274320
7120,5,ISIP_5,53,9999,9999,9999,3275775056
7120,5,ISIP_5,54,9999,9999,9999,3276274744
7120,5,ISIP_5,55,9999,9999,9999,3276774516
7120,5,ISIP_5,56,9999,9999,9999,3277274240
7120,5,ISIP_5,57,9999,9999,9999,3277774944
7120,5,ISIP_5,58,9999,9999,9999,3278274636
7120,5,ISIP_5,59,9999,9999,9999,3278774320
7120,5,ISIP_5,60,9999,9999,9999,3279275060
7120,5,ISIP_5,61,9999,9999,9999,3279774824
7120,5,ISIP_5,62,9999,9999,9999,3280274512
7120,5,ISIP_5,63,9999,9999,9999,3280774204
7120,5,ISIP_5,64,9999,9999,9999,3281274944
7120,5,ISIP_5,65,9999,9999,9999,3281774708
7120,5,ISIP_5,66,9999,9999,9999,3282274400
7120,5,ISIP_5,67,9999,9999,9999,3282774088
7120,5,ISIP_5,68,9999,9999,9999,3283274828
7120,5,ISIP_5,69,9999,9999,9999,3283774516
7120,5,ISIP_5,70,9999,9999,9999,3284274280
7120,5,ISIP_5,71,9999,9999,9999,3284775004
7120,5,ISIP_5,72,9999,9999,9999,3285274692
7120,5,ISIP_5,73,9999,9999,9999,3285774436
7120,5,ISIP_5,74,9999,9999,9999,3286274124
7120,5,ISIP_5,75,9999,9999,9999,3286774864
7120,5,ISIP_5,76,9999,9999,9999,3287274556
7120,5,ISIP_5,77,9999,9999,9999,3287774320
7120,5,ISIP_5,78,9999,9999,9999,3288275056
7120,5,ISIP_5,79,9999,9999,9999,3288774748
7120,5,ISIP_5,80,9999,9999,9999,3289274440
7120,5,ISIP_5,81,9999,9999,9999,3289774128
7120,5,ISIP_5,82,9999,9999,9999,3290274868
7120,5,ISIP_5,83,9999,9999,9999,3290774632
7120,5,ISIP_5,84,9999,9999,9999,3291274324
7120,5,ISIP_5,85,9999,9999,9999,3291775060
7120,5,ISIP_5,86,9999,9999,9999,3292274752
7120,5,ISIP_5,87,9999,9999,9999,3292774516
7120,5,ISIP_5,88,9999,9999,9999,3293274204
7120,5,ISIP_5,89,9999,9999,9999,3293774936
7120,5,ISIP_5,90,9999,9999,9999,3294274628
7120,5,ISIP_5,91,9999,9999,9999,3294774392
7120,5,ISIP_5,92,9999,9999,9999,3295275112
7120,5,ISIP_5,93,9999,9999,9999,3295774804
7120,5,ISIP_5,94,9999,9999,9999,3296274496
7120,5,ISIP_5,95,9999,9999,9999,3296774236
7120,5,ISIP_5,96,9999,9999,9999,3297274972
7120,5,ISIP_5,97,9999,9999,9999,3297774664
7120,5,ISIP_5,98,9999,9999,9999,3298274356
7120,5,ISIP_5,99,9999,9999,9999,3298774120
7120,5,ISIP_5,100,9999,9999,9999,3299274860
7120,5,ISIP_5,101,9999,9999,9999,3299774548
7120,5,ISIP_5,102,9999,9999,9999,3300274240
7120,5,ISIP_5,103,9999,9999,9999,3300774976
7120,5,ISIP_5,104,9999,9999,9999,3301274740
7120,5,ISIP_5,105,9999,9999,9999,3301774432
7120,5,ISIP_5,106,9999,9999,9999,3302274124
7120,5,ISIP_5,107,9999,9999,9999,3302774860
7120,5,ISIP_5,108,9999,9999,9999,3303274552
7120,5,ISIP_5,109,9999,9999,9999,3303774316
7120,5,ISIP_5,110,9999,9999,9999,3304275052
7120,5,ISIP_5,111,9999,9999,9999,3304774744
7120,5,ISIP_5,112,9999,9999,9999,3305274428
7120,5,ISIP_5,113,9999,9999,9999,3305774192
7120,5,ISIP_5,114,9999,9999,9999,3306274932
7120,5,ISIP_5,115,9999,9999,9999,3306774620
7120,5,ISIP_5,116,9999,9999,9999,3307274344
7120,5,ISIP_5,117,9999,9999,9999,3307775084
7120,5,ISIP_5,118,9999,9999,9999,3308274772
7120,5,ISIP_5,119,9999,9999,9999,3308774464
7120,5,ISIP_5,120,9999,9999,9999,3309274228
7120,5,ISIP_5,121,9999,9999,9999,3309774964
7120,5,ISIP_5,122,9999,9999,9999,3310274656
7120,5,ISIP_5,123,9999,9999,9999,3310774344
7120,5,ISIP_5,124,9999,9999,9999,3311275084
7120,5,ISIP_5,125,9999,9999,9999,3311774772
7120,5,ISIP_5,126,9999,9999,9999,3312274532
7120,5,ISIP_5,127,9999,9999,9999,3312774208
7120,5,ISIP_5,128,9999,9999,9999,3313274944
7120,5,ISIP_5,129,9999,9999,9999,3313774708
7120,5,ISIP_5,130,9999,9999,9999,3314274400
7120,5,ISIP_5,131,9999,9999,9999,3314774088
7120,5,ISIP_5,132,9999,9999,9999,3315274824
7120,5,ISIP_5,133,9999,9999,9999,3315774516
7120,5,ISIP_5,134,9999,9999,9999,3316274284
7120,5,ISIP_5,135,9999,9999,9999,3316775020
7120,5,ISIP_5,136,9999,9999,9999,3317274704
7120,5,ISIP_5,137,9999,9999,9999,3317774448
7120,5,ISIP_5,138,9999,9999,9999,3318274124
7120,5,ISIP_5,139,9999,9999,9999,3318774860
7120,5,ISIP_5,140,9999,9999,9999,3319274548
7120,5,ISIP_5,141,9999,9999,9999,3319774316
7120,5,ISIP_5,142,9999,9999,9999,3320275052
7120,5,ISIP_5,143,9999,9999,9999,3320774744
7120,5,ISIP_5,144,9999,9999,9999,3321274432
7120,5,ISIP_5,145,9999,9999,9999,3321774192
7120,5,ISIP_5,146,9999,9999,9999,3322274932
7120,5,ISIP_5,147,9999,9999,9999,3322774604
7120,5,ISIP_5,148,9999,9999,9999,3323274296
7120,5,ISIP_5,149,9999,9999,9999,3323775036
7120,5,ISIP_5,150,9999,9999,9999,3324274800
7120,5,ISIP_5,151,9999,9999,9999,3324774488
7120,5,ISIP_5,152,9999,9999,9999,3325274180
7120,5,ISIP_5,153,9999,9999,9999,3325774916
7120,5,ISIP_5,154,9999,9999,9999,3326274608
7120,5,ISIP_5,155,9999,9999,9999,3326774372
7120,5,ISIP_5,156,9999,9999,9999,3327275104
7120,5,ISIP_5,157,9999,9999,9999,3327774780
7120,5,ISIP_5,158,9999,9999,9999,3328274544
7120,5,ISIP_5,159,9999,9999,9999,3328774208
7121,3,ISIP_8,0,5,42,127,3351210308
7121,3,ISIP_8,1,5,42,127,3352010288
7121,3,ISIP_8,2,5,42,127,3352810116
7121,3,ISIP_8,3,5,42,127,3353609648
7121,3,ISIP_8,4,1,48,36,3354409948
7121,3,ISIP_8,5,5,42,127,3354411440
7121,3,ISIP_8,6,1,48,34,3355158036
7121,3,ISIP_8,7,5,42,127,3355210052
7121,3,ISIP_8,8,1,48,38,3355953128
7121,3,ISIP_8,9,5,42,127,3356010084
7121,3,ISIP_8,10,1,48,37,3356722644
7121,3,ISIP_8,11,5,42,127,3356809520
7121,3,ISIP_8,12,1,48,38,3357562544
7121,3,ISIP_8,13,5,42,127,3357610300
7121,3,ISIP_8,14,1,48,43,3358370432
7121,3,ISIP_8,15,5,42,127,3358409960
7121,3,ISIP_8,16,1,48,48,3359202700
7121,3,ISIP_8,17,5,42,127,3359210064
7121,3,ISIP_8,18,5,42,127,3360009508
7121,3,ISIP_8,19,1,48,44,3360039724
7121,3,ISIP_8,20,5,42,127,3360810312
7121,3,ISIP_8,21,1,48,46,3360886432
7121,3,ISIP_8,22,5,42,127,3361609972
7121,3,ISIP_8,23,1,48,39,3361678236
7121,3,ISIP_8,24,5,42,127,3362409928
7121,3,ISIP_8,25,1,48,29,3362413120
7121,3,ISIP_8,26,5,42,127,3363209960
7121,3,ISIP_8,27,1,48,45,3363217420
7121,3,ISIP_8,28,5,42,127,3364010292
7121,3,ISIP_8,29,1,48,36,3364012380
7121,3,ISIP_8,30,1,48,46,3364789716
7121,3,ISIP_8,31,5,42,127,3364810020
7121,3,ISIP_8,32,1,48,43,3365519888
7121,3,ISIP_8,33,5,42,127,3365609756
7121,3,ISIP_8,34,1,48,46,3366329120
7121,3,ISIP_8,35,5,42,127,3366409564
7121,3,ISIP_8,36,1,48,40,3367194028
7121,3,ISIP_8,37,5,42,127,3367210292
7121,3,ISIP_8,38,1,48,40,3367968256
7121,3,ISIP_8,39,5,42,127,3368010028
7121,3,ISIP_8,40,1,48,49,3368728720
7121,3,ISIP_8,41,5,42,127,3368809760
7121,3,ISIP_8,42,1,48,54,3369490380
7121,3,ISIP_8,43,5,42,127,3369609700
7121,3,ISIP_8,44,1,48,46,3370334992
7121,3,ISIP_8,45,5,42,127,3370410424
7121,3,ISIP_8,46,1,48,48,3371104288
7121,3,ISIP_8,47,5,42,127,3371210140
7121,3,ISIP_8,48,1,48,41,3371941564
7121,3,ISIP_8,49,5,42,127,3372009816
7121,3,ISIP_8,50,1,48,48,3372714448
7121,3,ISIP_8,51,5,42,127,3372809696
7121,3,ISIP_8,52,1,48,47,3373477676
7121,3,ISIP_8,53,5,42,127,3373610264
7121,3,ISIP_8,54,1,48,48,3374305612
7121,3,ISIP_8,55,5,42,127,3374410072
7121,3,ISIP_8,56,1,48,46,3375154808
7121,3,ISIP_8,57,1,48,43,3375980868
7121,3,ISIP_8,58,1,48,48,3376797728
7121,3,ISIP_8,59,1,48,41,3377641148
7121,3,ISIP_8,60,1,48,43,3378506576
7121,3,ISIP_8,61,1,48,41,3379269204
7121,3,ISIP_8,62,1,48,49,3380112620
7121,3,ISIP_8,63,1,48,43,3380924092
7121,3,ISIP_8,64,1,48,36,3381754784
7121,3,ISIP_8,65,1,48,46,3382549152
7121,3,ISIP_8,66,1,48,44,3383342676
7121,3,ISIP_8,67,1,48,43,3384165964
7121,3,ISIP_8,68,1,48,41,3384970632
7121,3,ISIP_8,69,1,48,46,3385821744
7121,3,ISIP_8,70,1,48,46,3386606140
7121,3,ISIP_8,71,1,48,45,3387471944
7121,3,ISIP_8,72,1,48,40,3388337496
7121,3,ISIP_8,73,1,48,38,3389115756
7121,3,ISIP_8,74,1,48,52,3389894464
7121,3,ISIP_8,75,1,48,35,3390720444
7121,3,ISIP_8,76,1,48,53,3391504496
7121,3,ISIP_8,77,1,48,44,3392269964
7121,3,ISIP_8,78,1,48,47,3393064756
7121,3,ISIP_8,79,1,48,49,3393838008
7121,3,ISIP_8,80,1,48,47,3394590312
7121,3,ISIP_8,81,1,48,44,3395512564
7121,3,ISIP_8,82,1,48,48,3396247292
7121,3,ISIP_8,83,1,48,48,3397076196
7121,3,ISIP_8,84,1,48,44,3397797988
7121,3,ISIP_8,85,1,48,40,3398524784
7121,3,ISIP_8,86,1,48,50,3399355032
7121,3,ISIP_8,87,1,48,44,3400117288
7121,3,ISIP_8,88,1,48,50,3400898092
7121,3,ISIP_8,89,1,48,54,3401678372
7121,3,ISIP_8,90,1,48,26,3402453268
7121,3,ISIP_8,91,1,48,55,3403195088
7121,3,ISIP_8,92,1,48,41,3403949120
7121,3,ISIP_8,93,1,48,55,3404659140
7121,3,ISIP_8,94,1,48,48,3405386312
7121,3,ISIP_8,95,1,48,53,3406140716
7121,3,ISIP_8,96,1,48,49,3406903192
7121,3,ISIP_8,97,1,48,43,3407650340
7121,3,ISIP_8,98,1,48,49,3408368588
7121,3,ISIP_8,99,1,48,48,3409082824
7121,3,ISIP_8,100,1,48,45,3409904024
7121,3,ISIP_8,101,1,48,48,3410642116
7121,3,ISIP_8,102,1,48,43,3411397192
7121,3,ISIP_8,103,1,48,48,3412162736
7121,3,ISIP_8,104,1,48,51,3412899408
7121,3,ISIP_8,105,1,48,51,3413656880
7121,3,ISIP_8,106,1,48,47,3414379928
7121,3,ISIP_8,107,1,48,50,3415133580
7121,3,ISIP_8,108,1,48,44,3415895612
7121,3,ISIP_8,109,1,48,50,3416622784
7121,3,ISIP_8,110,1,48,49,3417303340
7121,3,ISIP_8,111,1,48,42,3418094616
7121,3,ISIP_8,112,1,48,49,3418798380
7121,3,ISIP_8,113,1,48,56,3419544776
7121,3,ISIP_8,114,1,48,49,3420335528
7121,3,ISIP_8,115,1,48,47,3421039216
7121,3,ISIP_8,116,1,48,45,3421781352
7121,3,ISIP_8,117,1,48,46,3422487284
7121,3,ISIP_8,118,1,48,48,3423207632
7121,3,ISIP_8,119,1,48,51,3423901428
7121,3,ISIP_8,120,1,48,49,3424641100
7121,3,ISIP_8,121,1,48,40,3425387420
7121,3,ISIP_8,122,1,48,51,3426072112
7121,3,ISIP_8,123,1,48,49,3426919112
7121,3,ISIP_8,124,1,48,37,3427645240
7121,3,ISIP_8,125,1,48,51,3428356688
7121,3,ISIP_8,126,1,48,53,3429101512
7121,3,ISIP_8,127,1,48,61,3429756136
7121,3,ISIP_8,128,1,48,49,3430485404
7121,3,ISIP_8,129,1,48,48,3431163844
7121,3,ISIP_8,130,1,48,55,3431837692
7121,3,ISIP_8,131,1,48,53,3432552824
7121,3,ISIP_8,132,1,48,50,3433265040
7121,3,ISIP_8,133,1,48,47,3434025056
7121,3,ISIP_8,134,1,48,51,3434664468
7121,3,ISIP_8,135,1,48,37,3435391192
7121,3,ISIP_8,136,1,48,46,3436095180
7121,3,ISIP_8,137,1,48,45,3436736676
7121,3,ISIP_8,138,1,48,52,3437469308
7121,3,ISIP_8,139,1,48,49,3438121836
7121,3,ISIP_8,140,1,48,47,3438805976
7121,3,ISIP_8,141,1,48,45,3439468376
7121,3,ISIP_8,142,1,48,51,3440175656
7121,3,ISIP_8,143,1,48,49,3440795088
7121,3,ISIP_8,144,1,48,48,3441565796
7121,3,ISIP_8,145,1,48,52,3442236948
7121,3,ISIP_8,146,1,48,55,3442972420
7121,3,ISIP_8,147,1,48,51,3443624404
7121,3,ISIP_8,148,1,48,46,3444288576
7121,3,ISIP_8,149,1,48,45,3444989396
7121,3,ISIP_8,150,1,48,47,3445634964
7121,3,ISIP_8,151,1,48,46,3446324656
7121,3,ISIP_8,152,1,48,39,3446976480
7121,3,ISIP_8,153,1,48,57,3447620860
7121,3,ISIP_8,154,1,48,51,3448257056
7121,3,ISIP_8,155,1,48,46,3448881080
7121,3,ISIP_8,156,1,48,55,3449458704
7121,3,ISIP_8,157,1,48,58,3450058844
7121,3,ISIP_8,158,1,48,44,3450722136
7121,3,ISIP_8,159,1,48,46,3451342328
7121,3,ISIP_8,160,1,48,47,3451891748
7121,3,ISIP_8,161,1,48,48,3452630368
7121,3,ISIP_8,162,1,48,45,3453306604
7121,3,ISIP_8,163,1,48,48,3453952596
7121,3,ISIP_8,164,1,48,49,3454595104
7121,3,ISIP_8,165,1,48,53,3455228160
7121,3,ISIP_8,166,1,48,34,3455970356
7121,3,ISIP_8,167,1,48,53,3456607252
7121,3,ISIP_8,168,1,48,54,3457228484
7121,3,ISIP_8,169,1,48,48,3457867768
7121,3,ISIP_8,170,1,48,46,3458502320
7121,3,ISIP_8,171,1,48,46,3459103596
7121,3,ISIP_8,172,1,48,47,3459770236
7121,3,ISIP_8,173,1,48,47,3460431072
7121,3,ISIP_8,174,1,48,50,3461124188
7121,3,ISIP_8,175,1,48,44,3461802072
7121,3,ISIP_8,176,1,48,49,3462455192
7121,3,ISIP_8,177,1,48,48,3463092120
7121,3,ISIP_8,178,1,48,51,3463804712
7121,3,ISIP_8,179,1,48,47,3464514532
7121,3,ISIP_8,180,1,48,49,3465128292
7121,3,ISIP_8,181,1,48,23,3465193268
7121,3,ISIP_8,182,1,48,46,3465808400
7121,3,ISIP_8,183,1,48,53,3466424624
7121,3,ISIP_8,184,1,48,46,3467058440
7121,3,ISIP_8,185,1,48,47,3467704360
7121,3,ISIP_8,186,1,48,47,3468308940
7121,3,ISIP_8,187,1,48,49,3468918284
7121,3,ISIP_8,188,1,48,46,3469598544
7121,3,ISIP_8,189,1,48,38,3470262492
7121,3,ISIP_8,190,1,48,52,3470905144
7121,3,ISIP_8,0,9999,9999,9999,3351208020
7121,3,ISIP_8,1,9999,9999,9999,3352007776
7121,3,ISIP_8,2,9999,9999,9999,3352807532
7121,3,ISIP_8,3,9999,9999,9999,3353607284
7121,3,ISIP_8,4,9999,9999,9999,3354408040
7121,3,ISIP_8,5,9999,9999,9999,3355207764
7121,3,ISIP_8,6,9999,9999,9999,3356007500
7121,3,ISIP_8,7,9999,9999,9999,3356807232
7121,3,ISIP_8,8,9999,9999,9999,3357608012
7121,3,ISIP_8,9,9999,9999,9999,3358407748
7121,3,ISIP_8,10,9999,9999,9999,3359207480
7121,3,ISIP_8,11,9999,9999,9999,3360007220
7121,3,ISIP_8,12,9999,9999,9999,3360808024
7121,3,ISIP_8,13,9999,9999,9999,3361607756
7121,3,ISIP_8,14,9999,9999,9999,3362407492
7121,3,ISIP_8,15,9999,9999,9999,3363207224
7121,3,ISIP_8,16,9999,9999,9999,3364008004
7121,3,ISIP_8,17,9999,9999,9999,3364807732
7121,3,ISIP_8,18,9999,9999,9999,3365607540
7121,3,ISIP_8,19,9999,9999,9999,3366407276
7121,3,ISIP_8,20,9999,9999,9999,3367208004
7121,3,ISIP_8,21,9999,9999,9999,3368007740
7121,3,ISIP_8,22,9999,9999,9999,3368807472
7121,3,ISIP_8,23,9999,9999,9999,3369607264
7121,3,ISIP_8,24,9999,9999,9999,3370407988
7121,3,ISIP_8,25,9999,9999,9999,3371207780
7121,3,ISIP_8,26,9999,9999,9999,3372007528
7121,3,ISIP_8,27,9999,9999,9999,3372807260
7121,3,ISIP_8,28,9999,9999,9999,3373608052
7121,3,ISIP_8,29,9999,9999,9999,3374407784
7121,3,ISIP_8,30,9999,9999,9999,3375207532
7121,3,ISIP_8,31,9999,9999,9999,3376007260
7121,3,ISIP_8,32,9999,9999,9999,3376808036
7121,3,ISIP_8,33,9999,9999,9999,3377607772
7121,3,ISIP_8,34,9999,9999,9999,3378407504
7121,3,ISIP_8,35,9999,9999,9999,3379207232
7121,3,ISIP_8,36,9999,9999,9999,3380008032
7121,3,ISIP_8,37,9999,9999,9999,3380807764
7121,3,ISIP_8,38,9999,9999,9999,3381607492
7121,3,ISIP_8,39,9999,9999,9999,3382407220
7121,3,ISIP_8,40,9999,9999,9999,3383207996
7121,3,ISIP_8,41,9999,9999,9999,3384007728
7121,3,ISIP_8,42,9999,9999,9999,3384807532
7121,3,ISIP_8,43,9999,9999,9999,3385607260
7121,3,ISIP_8,44,9999,9999,9999,3386407984
7121,3,ISIP_8,45,9999,9999,9999,3387207788
7121,3,ISIP_8,46,9999,9999,9999,3388007516
7121,3,ISIP_8,47,9999,9999,9999,3388807248
7121,3,ISIP_8,48,9999,9999,9999,3389608020
7121,3,ISIP_8,49,9999,9999,9999,3390407748
7121,3,ISIP_8,50,9999,9999,9999,3391207476
7121,3,ISIP_8,51,9999,9999,9999,3392007284
7121,3,ISIP_8,52,9999,9999,9999,3392808008
7121,3,ISIP_8,53,9999,9999,9999,3393607740
7121,3,ISIP_8,54,9999,9999,9999,3394407544
7121,3,ISIP_8,55,9999,9999,9999,3395207272
7121,3,ISIP_8,56,9999,9999,9999,3396008048
7121,3,ISIP_8,57,9999,9999,9999,3396807776
7121,3,ISIP_8,58,9999,9999,9999,3397607504
7121,3,ISIP_8,59,9999,9999,9999,3398407236
7121,3,ISIP_8,60,9999,9999,9999,3399208036
7121,3,ISIP_8,61,9999,9999,9999,3400007764
7121,3,ISIP_8,62,9999,9999,9999,3400807496
7121,3,ISIP_8,63,9999,9999,9999,3401607224
7121,3,ISIP_8,64,9999,9999,9999,3402408000
7121,3,ISIP_8,65,9999,9999,9999,3403207796
7121,3,ISIP_8,66,9999,9999,9999,3404007524
7121,3,ISIP_8,67,9999,9999,9999,3404807288
7121,3,ISIP_8,68,9999,9999,9999,3405608012
7121,3,ISIP_8,69,9999,9999,9999,3406407744
7121,3,ISIP_8,70,9999,9999,9999,3407207472
7121,3,ISIP_8,71,9999,9999,9999,3408007276
7121,3,ISIP_8,72,9999,9999,9999,3408808052
7121,3,ISIP_8,73,9999,9999,9999,3409607780
7121,3,ISIP_8,74,9999,9999,9999,3410407508
7121,3,ISIP_8,75,9999,9999,9999,3411207236
7121,3,ISIP_8,76,9999,9999,9999,3412008036
7121,3,ISIP_8,77,9999,9999,9999,3412807764
7121,3,ISIP_8,78,9999,9999,9999,3413607492
7121,3,ISIP_8,79,9999,9999,9999,3414407216
7121,3,ISIP_8,80,9999,9999,9999,3415207992
7121,3,ISIP_8,81,9999,9999,9999,3416007780
7121,3,ISIP_8,82,9999,9999,9999,3416807512
7121,3,ISIP_8,83,9999,9999,9999,3417607240
7121,3,ISIP_8,84,9999,9999,9999,3418408040
7121,3,ISIP_8,85,9999,9999,9999,3419207768
7121,3,ISIP_8,86,9999,9999,9999,3420007496
7121,3,ISIP_8,87,9999,9999,9999,3420807228
7121,3,ISIP_8,88,9999,9999,9999,3421608004
7121,3,ISIP_8,89,9999,9999,9999,3422407732
7121,3,ISIP_8,90,9999,9999,9999,3423207492
7121,3,ISIP_8,91,9999,9999,9999,3424007244
7121,3,ISIP_8,92,9999,9999,9999,3424808048
7121,3,ISIP_8,93,9999,9999,9999,3425607776
7121,3,ISIP_8,94,9999,9999,9999,3426407504
7121,3,ISIP_8,95,9999,9999,9999,3427207236
7121,3,ISIP_8,96,9999,9999,9999,3428008012
7121,3,ISIP_8,97,9999,9999,9999,3428807740
7121,3,ISIP_8,98,9999,9999,9999,3429607468
7121,3,ISIP_8,99,9999,9999,9999,3430407272
7121,3,ISIP_8,100,9999,9999,9999,3431207992
7121,3,ISIP_8,101,9999,9999,9999,3432007784
7121,3,ISIP_8,102,9999,9999,9999,3432807512
7121,3,ISIP_8,103,9999,9999,9999,3433607240
7121,3,ISIP_8,104,9999,9999,9999,3434408016
7121,3,ISIP_8,105,9999,9999,9999,3435207744
7121,3,ISIP_8,106,9999,9999,9999,3436007476
7121,3,ISIP_8,107,9999,9999,9999,3436807272
7121,3,ISIP_8,108,9999,9999,9999,3437607984
7121,3,ISIP_8,109,9999,9999,9999,3438407788
7121,3,ISIP_8,110,9999,9999,9999,3439207516
7121,3,ISIP_8,111,9999,9999,9999,3440007248
7121,3,ISIP_8,112,9999,9999,9999,3440808016
7121,3,ISIP_8,113,9999,9999,9999,3441607744
7121,3,ISIP_8,114,9999,9999,9999,3442407532
7121,3,ISIP_8,115,9999,9999,9999,3443207264
7121,3,ISIP_8,116,9999,9999,9999,3444008040
7121,3,ISIP_8,117,9999,9999,9999,3444807768
7121,3,ISIP_8,118,9999,9999,9999,3445607496
7121,3,ISIP_8,119,9999,9999,9999,3446407224
7121,3,ISIP_8,120,9999,9999,9999,3447207980
7121,3,ISIP_8,121,9999,9999,9999,3448007784
7121,3,ISIP_8,122,9999,9999,9999,3448807516
7121,3,ISIP_8,123,9999,9999,9999,3449607224
7121,3,ISIP_8,124,9999,9999,9999,3450408024
7121,3,ISIP_8,125,9999,9999,9999,3451207752
7121,3,ISIP_8,126,9999,9999,9999,3452007532
7121,3,ISIP_8,127,9999,9999,9999,3452807264
7121,3,ISIP_8,128,9999,9999,9999,3453608036
7121,3,ISIP_8,129,9999,9999,9999,3454407768
7121,3,ISIP_8,130,9999,9999,9999,3455207496
7121,3,ISIP_8,131,9999,9999,9999,3456007220
7121,3,ISIP_8,132,9999,9999,9999,3456808004
7121,3,ISIP_8,133,9999,9999,9999,3457607732
7121,3,ISIP_8,134,9999,9999,9999,3458407536
7121,3,ISIP_8,135,9999,9999,9999,3459207244
7121,3,ISIP_8,136,9999,9999,9999,3460008020
7121,3,ISIP_8,137,9999,9999,9999,3460807752
7121,3,ISIP_8,138,9999,9999,9999,3461607480
7121,3,ISIP_8,139,9999,9999,9999,3462407284
7121,3,ISIP_8,140,9999,9999,9999,3463207984
7121,3,ISIP_8,141,9999,9999,9999,3464007788
7121,3,ISIP_8,142,9999,9999,9999,3464807520
7121,3,ISIP_8,143,9999,9999,9999,3465607224
7121,3,ISIP_8,144,9999,9999,9999,3466408000
7121,3,ISIP_8,145,9999,9999,9999,3467207784
7121,3,ISIP_8,146,9999,9999,9999,3468007512
7121,3,ISIP_8,147,9999,9999,9999,3468807240
7121,3,ISIP_8,148,9999,9999,9999,3469608036
7121,3,ISIP_8,149,9999,9999,9999,3470407748
7122,11,Pattern_Practice,0,5,42,127,3581655404
7122,11,Pattern_Practice,1,5,42,127,3582155192
7122,11,Pattern_Practice,2,5,42,127,3582654760
7122,11,Pattern_Practice,3,5,42,127,3583154476
7122,11,Pattern_Practice,4,5,42,127,3583655392
7122,11,Pattern_Practice,5,1,38,39,3583671896
7122,11,Pattern_Practice,6,1,48,36,3583697384
7122,11,Pattern_Practice,7,5,42,127,3584155188
7122,11,Pattern_Practice,8,1,48,34,3584195404
7122,11,Pattern_Practice,9,1,38,34,3584198756
7122,11,Pattern_Practice,10,5,42,127,3584654684
7122,11,Pattern_Practice,11,1,48,36,3584736492
7122,11,Pattern_Practice,12,1,38,32,3584767588
7122,11,Pattern_Practice,13,5,42,127,3585154332
7122,11,Pattern_Practice,14,1,48,37,3585262916
7122,11,Pattern_Practice,15,1,38,25,3585307212
7122,11,Pattern_Practice,16,5,42,127,3585655336
7122,11,Pattern_Practice,17,1,38,25,3585802092
7122,11,Pattern_Practice,18,1,48,46,3585806340
7122,11,Pattern_Practice,19,5,42,127,3586155284
7122,11,Pattern_Practice,20,1,38,32,3586306604
7122,11,Pattern_Practice,21,1,48,46,3586320648
7122,11,Pattern_Practice,22,5,42,127,3586654484
7122,11,Pattern_Practice,23,1,38,24,3586788576
7122,11,Pattern_Practice,24,1,48,38,3586802684
7122,11,Pattern_Practice,25,5,42,127,3587155252
7122,11,Pattern_Practice,26,1,38,30,3587337164
7122,11,Pattern_Practice,27,5,42,127,3587655172
7122,11,Pattern_Practice,28,1,38,38,3587875084
7122,11,Pattern_Practice,29,5,42,127,3588154868
7122,11,Pattern_Practice,30,1,38,39,3588408956
7122,11,Pattern_Practice,31,5,42,127,3588654412
7122,11,Pattern_Practice,32,1,38,44,3588865320
7122,11,Pattern_Practice,33,5,42,127,3589155304
7122,11,Pattern_Practice,34,1,38,56,3589362920
7122,11,Pattern_Practice,35,5,42,127,3589655072
7122,11,Pattern_Practice,36,1,38,51,3589913572
7122,11,Pattern_Practice,37,5,42,127,3590154544
7122,11,Pattern_Practice,38,1,38,49,3590386020
7122,11,Pattern_Practice,39,5,42,127,3590655408
7122,11,Pattern_Practice,40,1,38,57,3590915508
7122,11,Pattern_Practice,41,5,42,127,3591155252
7122,11,Pattern_Practice,42,1,48,54,3591432704
7122,11,Pattern_Practice,43,5,42,127,3591654652
7122,11,Pattern_Practice,44,1,38,76,3591909260
7122,11,Pattern_Practice,45,5,42,127,3592154420
7122,11,Pattern_Practice,46,1,48,53,3592409108
7122,11,Pattern_Practice,47,5,42,127,3592655160
7122,11,Pattern_Practice,48,1,38,64,3592893844
7122,11,Pattern_Practice,49,5,42,127,3593155152
7122,11,Pattern_Practice,50,1,48,48,3593371096
7122,11,Pattern_Practice,51,5,42,127,3593654624
7122,11,Pattern_Practice,52,1,38,49,3593853964
7122,11,Pattern_Practice,53,5,42,127,3594155288
7122,11,Pattern_Practice,54,1,48,53,3594366892
7122,11,Pattern_Practice,55,5,42,127,3594655208
7122,11,Pattern_Practice,56,1,38,40,3594944152
7122,11,Pattern_Practice,57,5,42,127,3595154976
7122,11,Pattern_Practice,58,1,48,53,3595462920
7122,11,Pattern_Practice,59,5,42,127,3595654448
7122,11,Pattern_Practice,60,1,38,55,3595901056
7122,11,Pattern_Practice,61,1,38,29,3595995432
7122,11,Pattern_Practice,62,5,42,127,3596155240
7122,11,Pattern_Practice,63,1,48,41,3596375820
7122,11,Pattern_Practice,64,5,42,127,3596655156
7122,11,Pattern_Practice,65,1,38,57,3596850980
7122,11,Pattern_Practice,66,5,42,127,3597154556
7122,11,Pattern_Practice,67,1,38,44,3597354936
7122,11,Pattern_Practice,68,5,42,127,3597655520
7122,11,Pattern_Practice,69,1,48,59,3597835036
7122,11,Pattern_Practice,70,5,42,127,3598154992
7122,11,Pattern_Practice,71,1,38,61,3598270228
7122,11,Pattern_Practice,72,5,42,127,3598654984
7122,11,Pattern_Practice,73,1,38,55,3598706568
7122,11,Pattern_Practice,74,5,42,127,3599154528
7122,11,Pattern_Practice,75,1,48,62,3599181060
7122,11,Pattern_Practice,76,1,48,57,3599598808
7122,11,Pattern_Practice,77,5,42,127,3599655264
7122,11,Pattern_Practice,78,1,38,46,3600099244
7122,11,Pattern_Practice,79,5,42,127,3600155108
7122,11,Pattern_Practice,80,1,48,56,3600558024
7122,11,Pattern_Practice,81,5,42,127,3600654800
7122,11,Pattern_Practice,82,1,38,68,3601050540
7122,11,Pattern_Practice,83,5,42,127,3601154408
7122,11,Pattern_Practice,84,1,48,59,3601496756
7122,11,Pattern_Practice,85,5,42,127,3601655124
7122,11,Pattern_Practice,86,1,48,68,3601950448
7122,11,Pattern_Practice,87,5,42,127,3602154816
7122,11,Pattern_Practice,88,1,38,44,3602369640
7122,11,Pattern_Practice,89,5,42,127,3602654440
7122,11,Pattern_Practice,90,1,38,45,3602778456
7122,11,Pattern_Practice,91,5,42,127,3603155252
7122,11,Pattern_Practice,92,1,38,51,3603242248
7122,11,Pattern_Practice,93,1,48,56,3603629024
7122,11,Pattern_Practice,94,5,42,127,3603655092
7122,11,Pattern_Practice,95,1,38,49,3604026628
7122,11,Pattern_Practice,96,5,42,127,3604154776
7122,11,Pattern_Practice,97,1,48,59,3604474608
7122,11,Pattern_Practice,98,5,42,127,3604654468
7122,11,Pattern_Practice,99,1,38,59,3604838624
7122,11,Pattern_Practice,100,5,42,127,3605155136
7122,11,Pattern_Practice,101,1,48,63,3605261428
7122,11,Pattern_Practice,102,5,42,127,3605654832
7122,11,Pattern_Practice,103,1,38,42,3605683904
7122,11,Pattern_Practice,104,1,48,51,3606077892
7122,11,Pattern_Practice,105,5,42,127,3606154740
7122,11,Pattern_Practice,106,1,48,53,3606562400
7122,11,Pattern_Practice,107,5,42,127,3606655408
7122,11,Pattern_Practice,108,1,48,63,3607029308
7122,11,Pattern_Practice,109,5,42,127,3607154936
7122,11,Pattern_Practice,110,1,48,49,3607458544
7122,11,Pattern_Practice,111,5,42,127,3607654932
7122,11,Pattern_Practice,112,1,38,46,3607885912
7122,11,Pattern_Practice,113,5,42,127,3608154404
7122,11,Pattern_Practice,114,1,38,52,3608322920
7122,11,Pattern_Practice,115,5,42,127,3608655144
7122,11,Pattern_Practice,116,1,38,46,3608851864
7122,11,Pattern_Practice,117,5,42,127,3609154840
7122,11,Pattern_Practice,118,1,48,37,3609263500
7122,11,Pattern_Practice,119,5,42,127,3609654832
7122,11,Pattern_Practice,120,1,48,44,3609729904
7122,11,Pattern_Practice,121,5,42,127,3610155276
7122,11,Pattern_Practice,122,1,38,49,3610222192
7122,11,Pattern_Practice,123,1,38,52,3610567916
7122,11,Pattern_Practice,124,5,42,127,3610655036
7122,11,Pattern_Practice,125,1,38,61,3611043372
7122,11,Pattern_Practice,126,5,42,127,3611154788
7122,11,Pattern_Practice,127,1,48,57,3611537536
7122,11,Pattern_Practice,128,5,42,127,3611654632
7122,11,Pattern_Practice,129,1,48,54,3612011868
7122,11,Pattern_Practice,130,5,42,127,3612155128
7122,11,Pattern_Practice,131,1,38,63,3612528992
7122,11,Pattern_Practice,132,1,38,29,3612587908
7122,11,Pattern_Practice,133,5,42,127,3612654892
7122,11,Pattern_Practice,134,1,38,58,3613008924
7122,11,Pattern_Practice,135,5,42,127,3613154796
7122,11,Pattern_Practice,136,1,48,41,3613500764
7122,11,Pattern_Practice,137,5,42,127,3613655764
7122,11,Pattern_Practice,138,1,48,55,3614001128
7122,11,Pattern_Practice,139,5,42,127,3614155084
7122,11,Pattern_Practice,140,1,38,57,3614442760
7122,11,Pattern_Practice,141,5,42,127,3614654856
7122,11,Pattern_Practice,142,1,38,55,3614863240
7122,11,Pattern_Practice,143,5,42,127,3615154700
7122,11,Pattern_Practice,144,1,48,48,3615382384
7122,11,Pattern_Practice,145,5,42,127,3615655292
7122,11,Pattern_Practice,146,1,48,47,3615882224
7122,11,Pattern_Practice,147,5,42,127,3616154912
7122,11,Pattern_Practice,148,1,38,63,3616316628
7122,11,Pattern_Practice,149,5,42,127,3616654756
7122,11,Pattern_Practice,150,1,38,51,3616751672
7122,11,Pattern_Practice,151,5,42,127,3617154600
7122,11,Pattern_Practice,152,1,48,50,3617220624
7122,11,Pattern_Practice,153,5,42,127,3617655116
7122,11,Pattern_Practice,154,1,48,38,3617677008
7122,11,Pattern_Practice,155,1,38,43,3618064788
7122,11,Pattern_Practice,156,5,42,127,3618154804
7122,11,Pattern_Practice,157,1,38,61,3618502372
7122,11,Pattern_Practice,158,5,42,127,3618654708
7122,11,Pattern_Practice,159,1,38,44,3618972300
7122,11,Pattern_Practice,160,5,42,127,3619155376
7122,11,Pattern_Practice,161,1,38,39,3619451872
7122,11,Pattern_Practice,162,5,42,127,3619654996
7122,11,Pattern_Practice,163,1,48,43,3619929208
7122,11,Pattern_Practice,164,5,42,127,3620154692
7122,11,Pattern_Practice,165,1,48,57,3620370108
7122,11,Pattern_Practice,166,5,42,127,3620654384
7122,11,Pattern_Practice,167,1,38,53,3620842028
7122,11,Pattern_Practice,168,5,42,127,3621155128
7122,11,Pattern_Practice,169,1,38,52,3621247184
7122,11,Pattern_Practice,0,9999,9999,9999,3581653112
7122,11,Pattern_Practice,1,9999,9999,9999,3582152756
7122,11,Pattern_Practice,2,9999,9999,9999,3582652472
7122,11,Pattern_Practice,3,9999,9999,9999,3583152188
7122,11,Pattern_Practice,4,9999,9999,9999,3583652952
7122,11,Pattern_Practice,5,9999,9999,9999,3584152676
7122,11,Pattern_Practice,6,9999,9999,9999,3584652396
7122,11,Pattern_Practice,7,9999,9999,9999,3585152120
7122,11,Pattern_Practice,8,9999,9999,9999,3585652824
7122,11,Pattern_Practice,9,9999,9999,9999,3586152548
7122,11,Pattern_Practice,10,9999,9999,9999,3586652268
7122,11,Pattern_Practice,11,9999,9999,9999,3587152964
7122,11,Pattern_Practice,12,9999,9999,9999,3587652660
7122,11,Pattern_Practice,13,9999,9999,9999,3588152432
7122,11,Pattern_Practice,14,9999,9999,9999,3588652124
7122,11,Pattern_Practice,15,9999,9999,9999,3589152864
7122,11,Pattern_Practice,16,9999,9999,9999,3589652560
7122,11,Pattern_Practice,17,9999,9999,9999,3590152256
7122,11,Pattern_Practice,18,9999,9999,9999,3590653048
7122,11,Pattern_Practice,19,9999,9999,9999,3591152740
7122,11,Pattern_Practice,20,9999,9999,9999,3591652436
7122,11,Pattern_Practice,21,9999,9999,9999,3592152132
7122,11,Pattern_Practice,22,9999,9999,9999,3592652868
7122,11,Pattern_Practice,23,9999,9999,9999,3593152564
7122,11,Pattern_Practice,24,9999,9999,9999,3593652336
7122,11,Pattern_Practice,25,9999,9999,9999,3594153076
7122,11,Pattern_Practice,26,9999,9999,9999,3594652772
7122,11,Pattern_Practice,27,9999,9999,9999,3595152464
7122,11,Pattern_Practice,28,9999,9999,9999,3595652160
7122,11,Pattern_Practice,29,9999,9999,9999,3596152952
7122,11,Pattern_Practice,30,9999,9999,9999,3596652644
7122,11,Pattern_Practice,31,9999,9999,9999,3597152340
7122,11,Pattern_Practice,32,9999,9999,9999,3597653080
7122,11,Pattern_Practice,33,9999,9999,9999,3598152776
7122,11,Pattern_Practice,34,9999,9999,9999,3598652472
7122,11,Pattern_Practice,35,9999,9999,9999,3599152240
7122,11,Pattern_Practice,36,9999,9999,9999,3599652972
7122,11,Pattern_Practice,37,9999,9999,9999,3600152668
7122,11,Pattern_Practice,38,9999,9999,9999,3600652364
7122,11,Pattern_Practice,39,9999,9999,9999,3601152092
7122,11,Pattern_Practice,40,9999,9999,9999,3601652836
7122,11,Pattern_Practice,41,9999,9999,9999,3602152528
7122,11,Pattern_Practice,42,9999,9999,9999,3602652224
7122,11,Pattern_Practice,43,9999,9999,9999,3603152964
7122,11,Pattern_Practice,44,9999,9999,9999,3603652728
7122,11,Pattern_Practice,45,9999,9999,9999,3604152412
7122,11,Pattern_Practice,46,9999,9999,9999,3604652104
7122,11,Pattern_Practice,47,9999,9999,9999,3605152848
7122,11,Pattern_Practice,48,9999,9999,9999,3605652540
7122,11,Pattern_Practice,49,9999,9999,9999,3606152304
7122,11,Pattern_Practice,50,9999,9999,9999,3606653044
7122,11,Pattern_Practice,51,9999,9999,9999,3607152724
7122,11,Pattern_Practice,52,9999,9999,9999,3607652420
7122,11,Pattern_Practice,53,9999,9999,9999,3608152112
7122,11,Pattern_Practice,54,9999,9999,9999,3608652856
7122,11,Pattern_Practice,55,9999,9999,9999,3609152624
7122,11,Pattern_Practice,56,9999,9999,9999,3609652320
7122,11,Pattern_Practice,57,9999,9999,9999,3610153060
7122,11,Pattern_Practice,58,9999,9999,9999,3610652748
7122,11,Pattern_Practice,59,9999,9999,9999,3611152500
7122,11,Pattern_Practice,60,9999,9999,9999,3611652196
7122,11,Pattern_Practice,61,9999,9999,9999,3612152912
7122,11,Pattern_Practice,62,9999,9999,9999,3612652600
7122,11,Pattern_Practice,63,9999,9999,9999,3613152356
7122,11,Pattern_Practice,64,9999,9999,9999,3613653100
7122,11,Pattern_Practice,65,9999,9999,9999,3614152796
7122,11,Pattern_Practice,66,9999,9999,9999,3614652492
7122,11,Pattern_Practice,67,9999,9999,9999,3615152184
7122,11,Pattern_Practice,68,9999,9999,9999,3615652928
7122,11,Pattern_Practice,69,9999,9999,9999,3616152696
7122,11,Pattern_Practice,70,9999,9999,9999,3616652392
7122,11,Pattern_Practice,71,9999,9999,9999,3617152088
7122,11,Pattern_Practice,72,9999,9999,9999,3617652828
7122,11,Pattern_Practice,73,9999,9999,9999,3618152516
7122,11,Pattern_Practice,74,9999,9999,9999,3618652272
7122,11,Pattern_Practice,75,9999,9999,9999,3619153012
7122,11,Pattern_Practice,76,9999,9999,9999,3619652708
7122,11,Pattern_Practice,77,9999,9999,9999,3620152404
7122,11,Pattern_Practice,78,9999,9999,9999,3620652096
7122,11,Pattern_Practice,79,9999,9999,9999,3621152840
7123,13,Improv_Metronome,0,5,42,127,3659432408
7123,13,Improv_Metronome,1,5,42,127,3659932048
7123,13,Improv_Metronome,2,1,48,19,3660111788
7123,13,Improv_Metronome,3,1,48,27,3660378972
7123,13,Improv_Metronome,4,5,42,127,3660431740
7123,13,Improv_Metronome,5,1,48,25,3660727404
7123,13,Improv_Metronome,6,5,42,127,3660931344
7123,13,Improv_Metronome,7,1,48,28,3661053316
7123,13,Improv_Metronome,8,5,42,127,3661432156
7123,13,Improv_Metronome,9,1,48,27,3661433124
7123,13,Improv_Metronome,10,1,48,15,3661824480
7123,13,Improv_Metronome,11,5,42,127,3661931832
7123,13,Improv_Metronome,12,1,48,37,3662169096
7123,13,Improv_Metronome,13,5,42,127,3662431600
7123,13,Improv_Metronome,14,1,48,27,3662566964
7123,13,Improv_Metronome,15,5,42,127,3662932264
7123,13,Improv_Metronome,16,1,48,33,3662933752
7123,13,Improv_Metronome,17,1,48,33,3663283192
7123,13,Improv_Metronome,18,5,42,127,3663432088
7123,13,Improv_Metronome,19,1,48,34,3663624772
7123,13,Improv_Metronome,20,5,42,127,3663931856
7123,13,Improv_Metronome,21,1,48,31,3663987260
7123,13,Improv_Metronome,22,1,38,33,3664353920
7123,13,Improv_Metronome,23,5,42,127,3664431468
7123,13,Improv_Metronome,24,1,38,50,3664708960
7123,13,Improv_Metronome,25,5,42,127,3664932124
7123,13,Improv_Metronome,26,1,48,32,3665016620
7123,13,Improv_Metronome,27,1,48,34,3665382612
7123,13,Improv_Metronome,28,5,42,127,3665431960
7123,13,Improv_Metronome,29,1,48,30,3665733984
7123,13,Improv_Metronome,30,5,42,127,3665931568
7123,13,Improv_Metronome,31,1,48,33,3666049724
7123,13,Improv_Metronome,32,1,38,44,3666378016
7123,13,Improv_Metronome,33,5,42,127,3666432304
7123,13,Improv_Metronome,34,1,38,44,3666739784
7123,13,Improv_Metronome,35,1,48,28,3666742980
7123,13,Improv_Metronome,36,5,42,127,3666932208
7123,13,Improv_Metronome,37,1,48,32,3667111500
7123,13,Improv_Metronome,38,1,38,35,3667120684
7123,13,Improv_Metronome,39,5,42,127,3667431784
7123,13,Improv_Metronome,40,1,48,30,3667475992
7123,13,Improv_Metronome,41,1,38,29,3667495196
7123,13,Improv_Metronome,42,1,48,28,3667813436
7123,13,Improv_Metronome,43,1,38,29,3667854632
7123,13,Improv_Metronome,44,5,42,127,3667931464
7123,13,Improv_Metronome,45,1,38,25,3668244280
7123,13,Improv_Metronome,46,1,48,21,3668268276
7123,13,Improv_Metronome,47,5,42,127,3668432144
7123,13,Improv_Metronome,48,1,48,34,3668656244
7123,13,Improv_Metronome,49,1,38,32,3668659440
7123,13,Improv_Metronome,50,5,42,127,3668931940
7123,13,Improv_Metronome,51,1,38,35,3669025964
7123,13,Improv_Metronome,52,1,48,28,3669032976
7123,13,Improv_Metronome,53,1,48,32,3669420772
7123,13,Improv_Metronome,54,1,38,37,3669424120
7123,13,Improv_Metronome,55,5,42,127,3669431784
7123,13,Improv_Metronome,56,1,38,34,3669788180
7123,13,Improv_Metronome,57,1,48,27,3669796240
7123,13,Improv_Metronome,58,5,42,127,3669932360
7123,13,Improv_Metronome,59,1,48,27,3670147852
7123,13,Improv_Metronome,60,1,38,36,3670169076
7123,13,Improv_Metronome,61,5,42,127,3670432080
7123,13,Improv_Metronome,62,1,38,35,3670524212
7123,13,Improv_Metronome,63,1,48,34,3670545096
7123,13,Improv_Metronome,64,1,38,30,3670887796
7123,13,Improv_Metronome,65,1,48,27,3670923000
7123,13,Improv_Metronome,66,5,42,127,3670931788
7123,13,Improv_Metronome,67,1,48,28,3671278432
7123,13,Improv_Metronome,68,1,38,27,3671291576
7123,13,Improv_Metronome,69,5,42,127,3671431616
7123,13,Improv_Metronome,70,1,38,31,3671641872
7123,13,Improv_Metronome,71,1,48,29,3671656520
7123,13,Improv_Metronome,72,5,42,127,3671932236
7123,13,Improv_Metronome,73,1,48,33,3672035660
7123,13,Improv_Metronome,74,1,38,25,3672078984
7123,13,Improv_Metronome,75,5,42,127,3672431968
7123,13,Improv_Metronome,76,1,38,41,3672486548
7123,13,Improv_Metronome,77,1,38,49,3672846432
7123,13,Improv_Metronome,78,5,42,127,3672931656
7123,13,Improv_Metronome,79,1,48,33,3673222608
7123,13,Improv_Metronome,80,5,42,127,3673432904
7123,13,Improv_Metronome,81,1,48,39,3673607344
7123,13,Improv_Metronome,82,5,42,127,3673932080
7123,13,Improv_Metronome,83,1,48,31,3673934748
7123,13,Improv_Metronome,84,1,48,32,3674295504
7123,13,Improv_Metronome,85,5,42,127,3674431976
7123,13,Improv_Metronome,86,1,38,53,3674651664
7123,13,Improv_Metronome,87,5,42,127,3674931744
7123,13,Improv_Metronome,88,1,38,41,3675003676
7123,13,Improv_Metronome,89,1,38,28,3675347008
7123,13,Improv_Metronome,90,5,42,127,3675432332
7123,13,Improv_Metronome,91,1,38,29,3675693140
7123,13,Improv_Metronome,92,5,42,127,3675931860
7123,13,Improv_Metronome,93,1,48,29,3676078220
7123,13,Improv_Metronome,94,5,42,127,3676431928
7123,13,Improv_Metronome,95,1,48,38,3676436020
7123,13,Improv_Metronome,96,1,38,35,3676880696
7123,13,Improv_Metronome,97,5,42,127,3676931688
7123,13,Improv_Metronome,98,1,38,45,3677178040
7123,13,Improv_Metronome,99,5,42,127,3677432168
7123,13,Improv_Metronome,100,1,48,42,3677565240
7123,13,Improv_Metronome,101,1,48,34,3677913648
7123,13,Improv_Metronome,102,5,42,127,3677931932
7123,13,Improv_Metronome,103,1,38,46,3678206380
7123,13,Improv_Metronome,104,5,42,127,3678431836
7123,13,Improv_Metronome,105,1,38,40,3678550172
7123,13,Improv_Metronome,106,5,42,127,3678932204
7123,13,Improv_Metronome,107,1,48,35,3678946472
7123,13,Improv_Metronome,108,1,48,29,3679303500
7123,13,Improv_Metronome,109,5,42,127,3679432024
7123,13,Improv_Metronome,110,1,38,43,3679721572
7123,13,Improv_Metronome,111,5,42,127,3679931720
7123,13,Improv_Metronome,112,1,38,42,3680078252
7123,13,Improv_Metronome,113,5,42,127,3680431712
7123,13,Improv_Metronome,114,1,48,33,3680468196
7123,13,Improv_Metronome,115,1,48,21,3680841532
7123,13,Improv_Metronome,116,5,42,127,3680932148
7123,13,Improv_Metronome,117,1,38,45,3681228560
7123,13,Improv_Metronome,118,5,42,127,3681431828
7123,13,Improv_Metronome,119,1,38,43,3681564520
7123,13,Improv_Metronome,120,5,42,127,3681931748
7123,13,Improv_Metronome,121,1,48,36,3681956188
7123,13,Improv_Metronome,122,1,48,37,3682352788
7123,13,Improv_Metronome,123,5,42,127,3682432332
7123,13,Improv_Metronome,124,1,38,44,3682712888
7123,13,Improv_Metronome,125,5,42,127,3682932160
7123,13,Improv_Metronome,126,1,38,35,3682994968
7123,13,Improv_Metronome,127,5,42,127,3683431856
7123,13,Improv_Metronome,128,1,38,45,3683437220
7123,13,Improv_Metronome,129,1,38,39,3683845568
7123,13,Improv_Metronome,130,5,42,127,3683931768
7123,13,Improv_Metronome,131,1,38,55,3684209108
7123,13,Improv_Metronome,132,5,42,127,3684432196
7123,13,Improv_Metronome,133,1,38,51,3684588200
7123,13,Improv_Metronome,134,5,42,127,3684932040
7123,13,Improv_Metronome,135,1,48,47,3684978772
7123,13,Improv_Metronome,136,1,48,44,3685346628
7123,13,Improv_Metronome,137,5,42,127,3685431728
7123,13,Improv_Metronome,138,1,38,40,3685714528
7123,13,Improv_Metronome,139,5,42,127,3685932528
7123,13,Improv_Metronome,140,1,38,41,3686098260
7123,13,Improv_Metronome,141,5,42,127,3686432224
7123,13,Improv_Metronome,142,1,38,27,3686458156
7123,13,Improv_Metronome,143,1,38,45,3686756004
7123,13,Improv_Metronome,144,5,42,127,3686931748
7123,13,Improv_Metronome,145,1,48,46,3687203640
7123,13,Improv_Metronome,146,5,42,127,3687431744
7123,13,Improv_Metronome,147,1,48,49,3687574508
7123,13,Improv_Metronome,148,1,38,42,3687865176
7123,13,Improv_Metronome,149,5,42,127,3687932376
7123,13,Improv_Metronome,150,1,48,48,3688289624
7123,13,Improv_Metronome,151,5,42,127,3688432056
7123,13,Improv_Metronome,152,1,38,41,3688644712
7123,13,Improv_Metronome,153,5,42,127,3688931676
7123,13,Improv_Metronome,154,1,48,49,3688976560
7123,13,Improv_Metronome,155,1,38,35,3689428264
7123,13,Improv_Metronome,156,5,42,127,3689432636
7123,13,Improv_Metronome,157,1,38,34,3689847180
7123,13,Improv_Metronome,158,5,42,127,3689932256
7123,13,Improv_Metronome,159,1,38,34,3690181020
7123,13,Improv_Metronome,160,5,42,127,3690431788
7123,13,Improv_Metronome,161,1,38,43,3690586920
7123,13,Improv_Metronome,162,5,42,127,3690931480
7123,13,Improv_Metronome,163,1,38,34,3690944248
7123,13,Improv_Metronome,164,1,38,27,3691366440
7123,13,Improv_Metronome,165,5,42,127,3691432512
7123,13,Improv_Metronome,166,1,38,35,3691829776
7123,13,Improv_Metronome,167,5,42,127,3691931968
7123,13,Improv_Metronome,168,1,38,35,3692187556
7123,13,Improv_Metronome,169,5,42,127,3692431740
7123,13,Improv_Metronome,170,1,38,36,3692687700
7123,13,Improv_Metronome,171,5,42,127,3692931436
7123,13,Improv_Metronome,172,1,38,38,3693136604
7123,13,Improv_Metronome,173,5,42,127,3693432024
7123,13,Improv_Metronome,174,1,38,28,3693641608
7123,13,Improv_Metronome,175,5,42,127,3693931868
7123,13,Improv_Metronome,176,1,48,37,3694127544
7123,13,Improv_Metronome,177,5,42,127,3694431564
7123,13,Improv_Metronome,178,1,48,32,3694631128
7123,13,Improv_Metronome,179,5,42,127,3694932380
7123,13,Improv_Metronome,180,1,48,41,3695108160
7123,13,Improv_Metronome,181,5,42,127,3695432000
7123,13,Improv_Metronome,182,1,48,37,3695565492
7123,13,Improv_Metronome,183,5,42,127,3695931696
7123,13,Improv_Metronome,184,1,48,33,3696051352
7123,13,Improv_Metronome,185,5,42,127,3696431536
7123,13,Improv_Metronome,186,1,48,40,3696523212
7123,13,Improv_Metronome,187,5,42,127,3696932132
7123,13,Improv_Metronome,188,1,48,40,3696986788
7123,13,Improv_Metronome,189,5,42,127,3697432124
7123,13,Improv_Metronome,190,1,48,40,3697456860
7123,13,Improv_Metronome,191,1,48,40,3697904524
7123,13,Improv_Metronome,192,5,42,127,3697931664
7123,13,Improv_Metronome,193,1,48,48,3698297112
7123,13,Improv_Metronome,194,5,42,127,3698432240
7123,13,Improv_Metronome,195,1,48,41,3698698300
7123,13,Improv_Metronome,196,5,42,127,3698932208
7123,13,Improv_Metronome,197,1,48,40,3699099604
7123,13,Improv_Metronome,198,5,42,127,3699431728
7123,13,Improv_Metronome,199,1,48,33,3699533904
7123,13,Improv_Metronome,200,1,48,42,3699910064
7123,13,Improv_Metronome,201,5,42,127,3699931640
7123,13,Improv_Metronome,202,1,48,34,3700301080
7123,13,Improv_Metronome,203,5,42,127,3700432440
7123,13,Improv_Metronome,204,1,48,39,3700694240
7123,13,Improv_Metronome,205,5,42,127,3700931988
7123,13,Improv_Metronome,206,1,48,36,3701064308
7123,13,Improv_Metronome,207,1,48,45,3701426704
7123,13,Improv_Metronome,208,5,42,127,3701431524
7123,13,Improv_Metronome,209,1,48,37,3701790712
7123,13,Improv_Metronome,210,5,42,127,3701932472
7123,13,Improv_Metronome,211,1,48,43,3702156196
7123,13,Improv_Metronome,212,5,42,127,3702432392
7123,13,Improv_Metronome,213,1,48,35,3702501860
7123,13,Improv_Metronome,214,1,48,44,3702848496
7123,13,Improv_Metronome,215,5,42,127,3702931780
7123,13,Improv_Metronome,216,1,48,47,3703219296
7123,13,Improv_Metronome,217,5,42,127,3703431388
7123,13,Improv_Metronome,218,1,48,30,3703548052
7123,13,Improv_Metronome,219,1,48,36,3703859512
7123,13,Improv_Metronome,220,5,42,127,3703932468
7123,13,Improv_Metronome,221,1,48,43,3704183700
7123,13,Improv_Metronome,222,5,42,127,3704431924
7123,13,Improv_Metronome,223,1,48,40,3704494808
7123,13,Improv_Metronome,224,1,48,27,3704785772
7123,13,Improv_Metronome,225,5,42,127,3704931748
7123,13,Improv_Metronome,226,1,48,52,3705070028
7123,13,Improv_Metronome,227,1,48,42,3705392284
7123,13,Improv_Metronome,228,5,42,127,3705432480
7123,13,Improv_Metronome,229,1,48,46,3705693444
7123,13,Improv_Metronome,230,5,42,127,3705932384
7123,13,Improv_Metronome,231,1,48,40,3705993624
7123,13,Improv_Metronome,232,1,48,31,3706306808
7123,13,Improv_Metronome,233,5,42,127,3706431908
7123,13,Improv_Metronome,234,1,48,23,3706599660
7123,13,Improv_Metronome,235,1,48,27,3706913088
7123,13,Improv_Metronome,236,5,42,127,3706931520
7123,13,Improv_Metronome,237,1,48,38,3707232644
7123,13,Improv_Metronome,238,5,42,127,3707432396
7123,13,Improv_Metronome,239,1,48,47,3707555416
7123,13,Improv_Metronome,240,1,48,41,3707858796
7123,13,Improv_Metronome,241,5,42,127,3707932156
7123,13,Improv_Metronome,242,1,48,43,3708184888
7123,13,Improv_Metronome,243,5,42,127,3708431688
7123,13,Improv_Metronome,244,1,48,40,3708472580
7123,13,Improv_Metronome,245,1,48,42,3708894368
7123,13,Improv_Metronome,246,5,42,127,3708931524
7123,13,Improv_Metronome,247,5,42,127,3709432396
7123,13,Improv_Metronome,248,1,48,46,3709435072
7123,13,Improv_Metronome,249,1,38,27,3709483632
7123,13,Improv_Metronome,250,5,42,127,3709931760
7123,13,Improv_Metronome,251,1,38,36,3709940116
7123,13,Improv_Metronome,252,1,48,47,3709971920
7123,13,Improv_Metronome,253,5,42,127,3710431716
7123,13,Improv_Metronome,254,1,38,39,3710447180
7123,13,Improv_Metronome,255,1,48,44,3710471952
7123,13,Improv_Metronome,256,5,42,127,3710932276
7123,13,Improv_Metronome,257,1,38,40,3710952296
7123,13,Improv_Metronome,258,1,48,44,3710989716
7123,13,Improv_Metronome,259,1,38,33,3711420456
7123,13,Improv_Metronome,260,5,42,127,3711432300
7123,13,Improv_Metronome,261,1,48,28,3711460852
7123,13,Improv_Metronome,262,1,38,38,3711876132
7123,13,Improv_Metronome,263,5,42,127,3711931960
7123,13,Improv_Metronome,264,1,38,32,3712414872
7123,13,Improv_Metronome,265,5,42,127,3712431508
7123,13,Improv_Metronome,266,1,38,47,3712889580
7123,13,Improv_Metronome,267,5,42,127,3712932248
7123,13,Improv_Metronome,268,1,38,48,3713394140
7123,13,Improv_Metronome,269,5,42,127,3713432240
7123,13,Improv_Metronome,270,1,38,50,3713892560
7123,13,Improv_Metronome,271,5,42,127,3713931712
7123,13,Improv_Metronome,272,1,38,54,3714417840
7123,13,Improv_Metronome,273,5,42,127,3714432308
7123,13,Improv_Metronome,274,1,38,52,3714907584
7123,13,Improv_Metronome,275,5,42,127,3714932148
7123,13,Improv_Metronome,276,1,38,52,3715395532
7123,13,Improv_Metronome,277,5,42,127,3715431992
7123,13,Improv_Metronome,278,1,38,46,3715905176
7123,13,Improv_Metronome,279,5,42,127,3715931464
7123,13,Improv_Metronome,280,1,38,50,3716397616
7123,13,Improv_Metronome,281,5,42,127,3716432356
7123,13,Improv_Metronome,282,1,38,54,3716880256
7123,13,Improv_Metronome,283,5,42,127,3716931904
7123,13,Improv_Metronome,284,1,38,52,3717397008
7123,13,Improv_Metronome,285,5,42,127,3717431520
7123,13,Improv_Metronome,286,1,38,51,3717830180
7123,13,Improv_Metronome,287,5,42,127,3717932324
7123,13,Improv_Metronome,288,1,38,48,3718337276
7123,13,Improv_Metronome,289,5,42,127,3718432092
7123,13,Improv_Metronome,290,1,48,36,3718847444
7123,13,Improv_Metronome,291,5,42,127,3718931800
7123,13,Improv_Metronome,292,1,48,51,3719161016
7123,13,Improv_Metronome,293,5,42,127,3719431480
7123,13,Improv_Metronome,294,1,48,45,3719523536
7123,13,Improv_Metronome,295,1,48,46,3719822648
7123,13,Improv_Metronome,296,5,42,127,3719932272
7123,13,Improv_Metronome,297,1,48,49,3720136300
7123,13,Improv_Metronome,298,5,42,127,3720432016
7123,13,Improv_Metronome,299,1,48,46,3720480936
7123,13,Improv_Metronome,300,1,48,44,3720800172
7123,13,Improv_Metronome,301,5,42,127,3720931540
7123,13,Improv_Metronome,302,1,48,40,3721124596
7123,13,Improv_Metronome,303,5,42,127,3721432356
7123,13,Improv_Metronome,304,1,48,40,3721466216
7123,13,Improv_Metronome,305,1,48,46,3721790340
7123,13,Improv_Metronome,306,5,42,127,3721932028
7123,13,Improv_Metronome,307,1,48,35,3722110348
7123,13,Improv_Metronome,308,5,42,127,3722431948
7123,13,Improv_Metronome,309,1,48,34,3722460120
7123,13,Improv_Metronome,310,1,48,45,3722803996
7123,13,Improv_Metronome,311,5,42,127,3722931472
7123,13,Improv_Metronome,312,1,48,35,3723184740
7123,13,Improv_Metronome,313,5,42,127,3723432292
7123,13,Improv_Metronome,314,1,48,43,3723495396
7123,13,Improv_Metronome,315,1,48,46,3723803068
7123,13,Improv_Metronome,316,5,42,127,3723931960
7123,13,Improv_Metronome,317,1,48,43,3724161520
7123,13,Improv_Metronome,318,5,42,127,3724431880
7123,13,Improv_Metronome,319,1,48,38,3724529848
7123,13,Improv_Metronome,320,1,48,43,3724868708
7123,13,Improv_Metronome,321,5,42,127,3724931492
7123,13,Improv_Metronome,322,1,48,43,3725201876
7123,13,Improv_Metronome,323,5,42,127,3725432220
7123,13,Improv_Metronome,324,1,48,34,3725562868
7123,13,Improv_Metronome,325,1,48,42,3725921752
7123,13,Improv_Metronome,326,5,42,127,3725931812
7123,13,Improv_Metronome,327,1,48,41,3726273924
7123,13,Improv_Metronome,328,5,42,127,3726431564
7123,13,Improv_Metronome,329,1,48,39,3726626788
7123,13,Improv_Metronome,330,5,42,127,3726932232
7123,13,Improv_Metronome,331,1,48,41,3726976268
7123,13,Improv_Metronome,332,1,48,38,3727297228
7123,13,Improv_Metronome,333,5,42,127,3727432128
7123,13,Improv_Metronome,334,1,48,41,3727626760
7123,13,Improv_Metronome,335,5,42,127,3727931900
7123,13,Improv_Metronome,336,1,48,45,3727972568
7123,13,Improv_Metronome,337,5,42,127,3728431520
7123,13,Improv_Metronome,338,1,38,48,3728586404
7123,13,Improv_Metronome,339,1,38,39,3728922948
7123,13,Improv_Metronome,340,5,42,127,3728932180
7123,13,Improv_Metronome,341,1,38,42,3729248860
7123,13,Improv_Metronome,0,9999,9999,9999,3659429972
7123,13,Improv_Metronome,1,9999,9999,9999,3659929688
7123,13,Improv_Metronome,2,9999,9999,9999,3660429376
7123,13,Improv_Metronome,3,9999,9999,9999,3660929132
7123,13,Improv_Metronome,4,9999,9999,9999,3661429872
7123,13,Improv_Metronome,5,9999,9999,9999,3661929544
7123,13,Improv_Metronome,6,9999,9999,9999,3662429240
7123,13,Improv_Metronome,7,9999,9999,9999,3662929980
7123,13,Improv_Metronome,8,9999,9999,9999,3663429728
7123,13,Improv_Metronome,9,9999,9999,9999,3663929420
7123,13,Improv_Metronome,10,9999,9999,9999,3664429108
7123,13,Improv_Metronome,11,9999,9999,9999,3664929912
7123,13,Improv_Metronome,12,9999,9999,9999,3665429600
7123,13,Improv_Metronome,13,9999,9999,9999,3665929280
7123,13,Improv_Metronome,14,9999,9999,9999,3666430016
7123,13,Improv_Metronome,15,9999,9999,9999,3666929772
7123,13,Improv_Metronome,16,9999,9999,9999,3667429496
7123,13,Improv_Metronome,17,9999,9999,9999,3667929180
7123,13,Improv_Metronome,18,9999,9999,9999,3668429932
7123,13,Improv_Metronome,19,9999,9999,9999,3668929652
7123,13,Improv_Metronome,20,9999,9999,9999,3669429348
7123,13,Improv_Metronome,21,9999,9999,9999,3669930072
7123,13,Improv_Metronome,22,9999,9999,9999,3670429796
7123,13,Improv_Metronome,23,9999,9999,9999,3670929500
7123,13,Improv_Metronome,24,9999,9999,9999,3671429180
7123,13,Improv_Metronome,25,9999,9999,9999,3671929948
7123,13,Improv_Metronome,26,9999,9999,9999,3672429684
7123,13,Improv_Metronome,27,9999,9999,9999,3672929372
7123,13,Improv_Metronome,28,9999,9999,9999,3673430096
7123,13,Improv_Metronome,29,9999,9999,9999,3673929792
7123,13,Improv_Metronome,30,9999,9999,9999,3674429540
7123,13,Improv_Metronome,31,9999,9999,9999,3674929236
7123,13,Improv_Metronome,32,9999,9999,9999,3675429972
7123,13,Improv_Metronome,33,9999,9999,9999,3675929648
7123,13,Improv_Metronome,34,9999,9999,9999,3676429416
7123,13,Improv_Metronome,35,9999,9999,9999,3676929108
7123,13,Improv_Metronome,36,9999,9999,9999,3677429880
7123,13,Improv_Metronome,37,9999,9999,9999,3677929572
7123,13,Improv_Metronome,38,9999,9999,9999,3678429252
7123,13,Improv_Metronome,39,9999,9999,9999,3678929992
7123,13,Improv_Metronome,40,9999,9999,9999,3679429740
7123,13,Improv_Metronome,41,9999,9999,9999,3679929432
7123,13,Improv_Metronome,42,9999,9999,9999,3680429128
7123,13,Improv_Metronome,43,9999,9999,9999,3680929864
7123,13,Improv_Metronome,44,9999,9999,9999,3681429616
7123,13,Improv_Metronome,45,9999,9999,9999,3681929312
7123,13,Improv_Metronome,46,9999,9999,9999,3682430048
7123,13,Improv_Metronome,47,9999,9999,9999,3682929728
7123,13,Improv_Metronome,48,9999,9999,9999,3683429496
7123,13,Improv_Metronome,49,9999,9999,9999,3683929184
7123,13,Improv_Metronome,50,9999,9999,9999,3684429908
7123,13,Improv_Metronome,51,9999,9999,9999,3684929604
7123,13,Improv_Metronome,52,9999,9999,9999,3685429368
7123,13,Improv_Metronome,53,9999,9999,9999,3685930096
7123,13,Improv_Metronome,54,9999,9999,9999,3686429788
7123,13,Improv_Metronome,55,9999,9999,9999,3686929464
7123,13,Improv_Metronome,56,9999,9999,9999,3687429232
7123,13,Improv_Metronome,57,9999,9999,9999,3687929940
7123,13,Improv_Metronome,58,9999,9999,9999,3688429620
7123,13,Improv_Metronome,59,9999,9999,9999,3688929388
7123,13,Improv_Metronome,60,9999,9999,9999,3689430124
7123,13,Improv_Metronome,61,9999,9999,9999,3689929820
7123,13,Improv_Metronome,62,9999,9999,9999,3690429500
7123,13,Improv_Metronome,63,9999,9999,9999,3690929268
7123,13,Improv_Metronome,64,9999,9999,9999,3691430004
7123,13,Improv_Metronome,65,9999,9999,9999,3691929656
7123,13,Improv_Metronome,66,9999,9999,9999,3692429380
7123,13,Improv_Metronome,67,9999,9999,9999,3692929072
7123,13,Improv_Metronome,68,9999,9999,9999,3693429812
7123,13,Improv_Metronome,69,9999,9999,9999,3693929584
7123,13,Improv_Metronome,70,9999,9999,9999,3694429276
7123,13,Improv_Metronome,71,9999,9999,9999,3694930020
7123,13,Improv_Metronome,72,9999,9999,9999,3695429712
7123,13,Improv_Metronome,73,9999,9999,9999,3695929408
7123,13,Improv_Metronome,74,9999,9999,9999,3696429176
7123,13,Improv_Metronome,75,9999,9999,9999,3696929844
7123,13,Improv_Metronome,76,9999,9999,9999,3697429612
7123,13,Improv_Metronome,77,9999,9999,9999,3697929300
7123,13,Improv_Metronome,78,9999,9999,9999,3698430028
7123,13,Improv_Metronome,79,9999,9999,9999,3698929772
7123,13,Improv_Metronome,80,9999,9999,9999,3699429440
7123,13,Improv_Metronome,81,9999,9999,9999,3699929204
7123,13,Improv_Metronome,82,9999,9999,9999,3700429932
7123,13,Improv_Metronome,83,9999,9999,9999,3700929624
7123,13,Improv_Metronome,84,9999,9999,9999,3701429312
7123,13,Improv_Metronome,85,9999,9999,9999,3701930040
7123,13,Improv_Metronome,86,9999,9999,9999,3702429808
7123,13,Improv_Metronome,87,9999,9999,9999,3702929496
7123,13,Improv_Metronome,88,9999,9999,9999,3703429176
7123,13,Improv_Metronome,89,9999,9999,9999,3703929960
7123,13,Improv_Metronome,90,9999,9999,9999,3704429640
7123,13,Improv_Metronome,91,9999,9999,9999,3704929388
7123,13,Improv_Metronome,92,9999,9999,9999,3705430120
7123,13,Improv_Metronome,93,9999,9999,9999,3705929800
7123,13,Improv_Metronome,94,9999,9999,9999,3706429548
7123,13,Improv_Metronome,95,9999,9999,9999,3706929236
7123,13,Improv_Metronome,96,9999,9999,9999,3707429960
7123,13,Improv_Metronome,97,9999,9999,9999,3707929648
7123,13,Improv_Metronome,98,9999,9999,9999,3708429400
7123,13,Improv_Metronome,99,9999,9999,9999,3708929088
7123,13,Improv_Metronome,100,9999,9999,9999,3709429812
7123,13,Improv_Metronome,101,9999,9999,9999,3709929548
7123,13,Improv_Metronome,102,9999,9999,9999,3710429280
7123,13,Improv_Metronome,103,9999,9999,9999,3710929988
7123,13,Improv_Metronome,104,9999,9999,9999,3711429716
7123,13,Improv_Metronome,105,9999,9999,9999,3711929452
7123,13,Improv_Metronome,106,9999,9999,9999,3712429148
7123,13,Improv_Metronome,107,9999,9999,9999,3712929888
7123,13,Improv_Metronome,108,9999,9999,9999,3713429584
7123,13,Improv_Metronome,109,9999,9999,9999,3713929280
7123,13,Improv_Metronome,110,9999,9999,9999,3714430020
7123,13,Improv_Metronome,111,9999,9999,9999,3714929716
7123,13,Improv_Metronome,112,9999,9999,9999,3715429484
7123,13,Improv_Metronome,113,9999,9999,9999,3715929176
7123,13,Improv_Metronome,114,9999,9999,9999,3716429920
7123,13,Improv_Metronome,115,9999,9999,9999,3716929616
7123,13,Improv_Metronome,116,9999,9999,9999,3717429312
7123,13,Improv_Metronome,117,9999,9999,9999,3717930036
7123,13,Improv_Metronome,118,9999,9999,9999,3718429804
7123,13,Improv_Metronome,119,9999,9999,9999,3718929512
7123,13,Improv_Metronome,120,9999,9999,9999,3719429192
7123,13,Improv_Metronome,121,9999,9999,9999,3719929960
7123,13,Improv_Metronome,122,9999,9999,9999,3720429656
7123,13,Improv_Metronome,123,9999,9999,9999,3720929328
7123,13,Improv_Metronome,124,9999,9999,9999,3721430068
7123,13,Improv_Metronome,125,9999,9999,9999,3721929816
7123,13,Improv_Metronome,126,9999,9999,9999,3722429512
7123,13,Improv_Metronome,127,9999,9999,9999,3722929260
7123,13,Improv_Metronome,128,9999,9999,9999,3723430004
7123,13,Improv_Metronome,129,9999,9999,9999,3723929676
7123,13,Improv_Metronome,130,9999,9999,9999,3724429372
7123,13,Improv_Metronome,131,9999,9999,9999,3724929132
7123,13,Improv_Metronome,132,9999,9999,9999,3725429860
7123,13,Improv_Metronome,133,9999,9999,9999,3725929524
7123,13,Improv_Metronome,134,9999,9999,9999,3726429276
7123,13,Improv_Metronome,135,9999,9999,9999,3726930020
7123,13,Improv_Metronome,136,9999,9999,9999,3727429696
7123,13,Improv_Metronome,137,9999,9999,9999,3727929464
7123,13,Improv_Metronome,138,9999,9999,9999,3728429156
7123,13,Improv_Metronome,139,9999,9999,9999,3728929892
7124,14,Improv_Melody,0,2,48,80,3787806040
7124,14,Improv_Melody,1,2,72,80,3787807980
7124,14,Improv_Melody,2,5,42,127,3787810808
7124,14,Improv_Melody,3,5,42,110,3788303804
7124,14,Improv_Melody,4,5,42,110,3788803376
7124,14,Improv_Melody,5,5,42,110,3789304144
7124,14,Improv_Melody,6,5,42,127,3789803840
7124,14,Improv_Melody,7,5,42,110,3790303636
7124,14,Improv_Melody,8,5,42,110,3790804256
7124,14,Improv_Melody,9,5,42,110,3791303980
7124,14,Improv_Melody,10,2,43,80,3791806200
7124,14,Improv_Melody,11,2,67,80,3791808356
7124,14,Improv_Melody,12,5,42,127,3791810968
7124,14,Improv_Melody,13,5,42,110,3792303584
7124,14,Improv_Melody,14,5,42,110,3792804128
7124,14,Improv_Melody,15,5,42,110,3793303928
7124,14,Improv_Melody,16,5,42,127,3793803648
7124,14,Improv_Melody,17,5,42,110,3794304416
7124,14,Improv_Melody,18,5,42,110,3794804064
7124,14,Improv_Melody,19,5,42,110,3795303860
7124,14,Improv_Melody,20,2,45,80,3795806012
7124,14,Improv_Melody,21,2,69,80,3795808160
7124,14,Improv_Melody,22,5,42,127,3795810848
7124,14,Improv_Melody,23,5,42,110,3796304216
7124,14,Improv_Melody,24,5,42,110,3796803936
7124,14,Improv_Melody,25,5,42,110,3797303660
7124,14,Improv_Melody,26,5,42,127,3797804576
7124,14,Improv_Melody,27,5,42,110,3798304148
7124,14,Improv_Melody,28,5,42,110,3798803796
7124,14,Improv_Melody,29,5,42,110,3799303668
7124,14,Improv_Melody,30,2,41,80,3799806708
7124,14,Improv_Melody,31,2,65,80,3799808940
7124,14,Improv_Melody,32,5,42,127,3799811552
7124,14,Improv_Melody,33,5,42,110,3800303920
7124,14,Improv_Melody,34,5,42,110,3800803640
7124,14,Improv_Melody,35,5,42,110,3801304708
7124,14,Improv_Melody,36,5,42,127,3801804056
7124,14,Improv_Melody,37,5,42,110,3802303928
7124,14,Improv_Melody,38,5,42,110,3802803648
7124,14,Improv_Melody,39,5,42,110,3803304564
7124,14,Improv_Melody,40,2,48,80,3803806488
7124,14,Improv_Melody,41,2,72,80,3803808716
7124,14,Improv_Melody,42,5,42,127,3803811332
7124,14,Improv_Melody,43,5,42,110,3804303724
7124,14,Improv_Melody,44,5,42,110,3804803520
7124,14,Improv_Melody,45,5,42,110,3805304064
7124,14,Improv_Melody,46,5,42,127,3805803864
7124,14,Improv_Melody,47,1,48,36,3805845728
7124,14,Improv_Melody,48,5,42,110,3806303488
7124,14,Improv_Melody,49,5,42,110,3806804552
7124,14,Improv_Melody,50,1,48,29,3806894512
7124,14,Improv_Melody,51,5,42,110,3807304104
7124,14,Improv_Melody,52,2,43,80,3807806484
7124,14,Improv_Melody,53,2,67,80,3807808404
7124,14,Improv_Melody,54,5,42,127,3807810940
7124,14,Improv_Melody,55,1,48,44,3807867316
7124,14,Improv_Melody,56,5,42,110,3808303388
7124,14,Improv_Melody,57,1,48,39,3808793336
7124,14,Improv_Melody,58,5,42,110,3808804372
7124,14,Improv_Melody,59,5,42,110,3809303784
7124,14,Improv_Melody,60,5,42,127,3809803580
7124,14,Improv_Melody,61,1,48,40,3809806700
7124,14,Improv_Melody,62,5,42,110,3810304548
7124,14,Improv_Melody,63,5,42,110,3810804096
7124,14,Improv_Melody,64,1,48,44,3810841568
7124,14,Improv_Melody,65,5,42,110,3811303796
7124,14,Improv_Melody,66,2,45,80,3811805944
7124,14,Improv_Melody,67,2,69,80,3811808172
7124,14,Improv_Melody,68,5,42,127,3811810788
7124,14,Improv_Melody,69,1,48,48,3811816076
7124,14,Improv_Melody,70,5,42,110,3812304352
7124,14,Improv_Melody,71,1,48,50,3812779196
7124,14,Improv_Melody,72,5,42,110,3812803844
7124,14,Improv_Melody,73,5,42,110,3813303624
7124,14,Improv_Melody,74,1,48,48,3813776452
7124,14,Improv_Melody,75,5,42,127,3813804316
7124,14,Improv_Melody,76,5,42,110,3814304244
7124,14,Improv_Melody,77,1,48,44,3814755972
7124,14,Improv_Melody,78,5,42,110,3814803736
7124,14,Improv_Melody,79,5,42,110,3815303520
7124,14,Improv_Melody,80,1,48,48,3815804096
7124,14,Improv_Melody,81,2,41,80,3815807756
7124,14,Improv_Melody,82,2,65,80,3815809832
7124,14,Improv_Melody,83,5,42,127,3815812368
7124,14,Improv_Melody,84,5,42,110,3816303924
7124,14,Improv_Melody,85,1,48,45,3816767172
7124,14,Improv_Melody,86,5,42,110,3816803640
7124,14,Improv_Melody,87,5,42,110,3817304392
7124,14,Improv_Melody,88,1,48,45,3817768836
7124,14,Improv_Melody,89,5,42,127,3817804256
7124,14,Improv_Melody,90,5,42,110,3818303740
7124,14,Improv_Melody,91,1,48,49,3818729640
7124,14,Improv_Melody,92,5,42,110,3818803456
7124,14,Improv_Melody,93,5,42,110,3819304284
7124,14,Improv_Melody,94,1,48,48,3819803960
7124,14,Improv_Melody,95,2,48,80,3819807548
7124,14,Improv_Melody,96,2,72,80,3819809548
7124,14,Improv_Melody,97,5,42,127,3819812236
7124,14,Improv_Melody,98,5,42,110,3820303792
7124,14,Improv_Melody,99,1,48,48,3820799428
7124,14,Improv_Melody,100,5,42,110,3820803656
7124,14,Improv_Melody,101,5,42,110,3821304188
7124,14,Improv_Melody,102,1,48,49,3821744524
7124,14,Improv_Melody,103,5,42,127,3821804028
7124,14,Improv_Melody,104,5,42,110,3822303584
7124,14,Improv_Melody,105,1,48,50,3822726816
7124,14,Improv_Melody,106,5,42,110,3822804196
7124,14,Improv_Melody,107,5,42,110,3823304056
7124,14,Improv_Melody,108,1,48,48,3823663484
7124,14,Improv_Melody,109,2,43,80,3823806488
7124,14,Improv_Melody,110,2,67,80,3823808408
7124,14,Improv_Melody,111,5,42,127,3823811244
7124,14,Improv_Melody,112,5,42,110,3824303416
7124,14,Improv_Melody,113,1,48,44,3824687604
7124,14,Improv_Melody,114,5,42,110,3824804088
7124,14,Improv_Melody,115,5,42,110,3825303956
7124,14,Improv_Melody,116,1,48,49,3825617436
7124,14,Improv_Melody,117,5,42,127,3825803508
7124,14,Improv_Melody,118,5,42,110,3826304352
7124,14,Improv_Melody,119,1,48,46,3826606540
7124,14,Improv_Melody,120,5,42,110,3826803980
7124,14,Improv_Melody,121,5,42,110,3827303776
7124,14,Improv_Melody,122,1,48,40,3827636776
7124,14,Improv_Melody,123,2,45,80,3827806052
7124,14,Improv_Melody,124,2,69,80,3827808128
7124,14,Improv_Melody,125,5,42,127,3827810888
7124,14,Improv_Melody,126,5,42,110,3828304180
7124,14,Improv_Melody,127,1,48,57,3828582580
7124,14,Improv_Melody,128,5,42,110,3828803956
7124,14,Improv_Melody,129,5,42,110,3829303604
7124,14,Improv_Melody,130,1,48,53,3829536824
7124,14,Improv_Melody,131,5,42,127,3829804500
7124,14,Improv_Melody,132,5,42,110,3830303996
7124,14,Improv_Melody,133,1,48,54,3830542004
7124,14,Improv_Melody,134,5,42,110,3830803772
7124,14,Improv_Melody,135,5,42,110,3831303492
7124,14,Improv_Melody,136,1,48,51,3831539456
7124,14,Improv_Melody,137,2,41,80,3831806588
7124,14,Improv_Melody,138,2,65,80,3831808892
7124,14,Improv_Melody,139,5,42,127,3831811508
7124,14,Improv_Melody,140,5,42,110,3832304024
7124,14,Improv_Melody,141,1,48,51,3832549136
7124,14,Improv_Melody,142,5,42,110,3832803648
7124,14,Improv_Melody,143,5,42,110,3833304344
7124,14,Improv_Melody,144,1,48,58,3833589800
7124,14,Improv_Melody,145,5,42,127,3833804116
7124,14,Improv_Melody,146,5,42,110,3834303988
7124,14,Improv_Melody,147,1,48,51,3834670524
7124,14,Improv_Melody,148,5,42,110,3834803612
7124,14,Improv_Melody,149,5,42,110,3835304232
7124,14,Improv_Melody,150,1,48,50,3835723644
7124,14,Improv_Melody,151,2,48,80,3835806372
7124,14,Improv_Melody,152,2,72,80,3835808676
7124,14,Improv_Melody,153,5,42,127,3835811212
7124,14,Improv_Melody,154,5,42,110,3836303740
7124,14,Improv_Melody,155,1,48,51,3836712164
7124,14,Improv_Melody,156,5,42,110,3836803380
7124,14,Improv_Melody,157,5,42,110,3837304060
7124,14,Improv_Melody,158,1,48,57,3837689444
7124,14,Improv_Melody,159,5,42,127,3837804132
7124,14,Improv_Melody,160,5,42,110,3838303560
7124,14,Improv_Melody,161,1,48,54,3838686304
7124,14,Improv_Melody,162,5,42,110,3838804304
7124,14,Improv_Melody,163,5,42,110,3839304028
7124,14,Improv_Melody,164,1,48,54,3839742292
7124,14,Improv_Melody,165,2,43,80,3839806240
7124,14,Improv_Melody,166,2,67,80,3839808548
7124,14,Improv_Melody,167,5,42,127,3839811080
7124,14,Improv_Melody,168,5,42,110,3840303612
7124,14,Improv_Melody,169,1,48,58,3840671844
7124,14,Improv_Melody,170,5,42,110,3840804208
7124,14,Improv_Melody,171,5,42,110,3841303928
7124,14,Improv_Melody,172,1,48,55,3841710232
7124,14,Improv_Melody,173,5,42,127,3841803852
7124,14,Improv_Melody,174,5,42,110,3842304472
7124,14,Improv_Melody,175,5,42,110,3842804020
7124,14,Improv_Melody,176,1,48,53,3842810748
7124,14,Improv_Melody,177,5,42,110,3843303940
7124,14,Improv_Melody,178,1,48,55,3843739216
7124,14,Improv_Melody,179,2,45,80,3843806012
7124,14,Improv_Melody,180,2,69,80,3843808392
7124,14,Improv_Melody,181,5,42,127,3843810848
7124,14,Improv_Melody,182,5,42,110,3844304352
7124,14,Improv_Melody,183,1,48,53,3844785024
7124,14,Improv_Melody,184,5,42,110,3844803916
7124,14,Improv_Melody,185,5,42,110,3845303920
7124,14,Improv_Melody,186,1,48,51,3845760368
7124,14,Improv_Melody,187,5,42,127,3845804464
7124,14,Improv_Melody,188,5,42,110,3846304020
7124,14,Improv_Melody,189,1,48,48,3846718128
7124,14,Improv_Melody,190,5,42,110,3846804036
7124,14,Improv_Melody,191,5,42,110,3847303740
7124,14,Improv_Melody,192,1,48,47,3847710588
7124,14,Improv_Melody,193,2,41,80,3847807596
7124,14,Improv_Melody,194,2,65,80,3847809592
7124,14,Improv_Melody,195,5,42,127,3847812132
7124,14,Improv_Melody,196,5,42,110,3848304000
7124,14,Improv_Melody,197,1,48,52,3848706960
7124,14,Improv_Melody,198,5,42,110,3848803788
7124,14,Improv_Melody,199,5,42,110,3849304396
7124,14,Improv_Melody,200,1,48,59,3849755680
7124,14,Improv_Melody,201,5,42,127,3849804256
7124,14,Improv_Melody,202,5,42,110,3850303964
7124,14,Improv_Melody,203,5,42,110,3850803836
7124,14,Improv_Melody,204,1,48,53,3850808676
7124,14,Improv_Melody,205,5,42,110,3851304212
7124,14,Improv_Melody,206,2,48,80,3851806660
7124,14,Improv_Melody,207,2,72,80,3851808732
7124,14,Improv_Melody,208,5,42,127,3851811272
7124,14,Improv_Melody,209,1,48,42,3851817532
7124,14,Improv_Melody,210,5,42,110,3852303868
7124,14,Improv_Melody,211,1,48,59,3852744648
7124,14,Improv_Melody,212,5,42,110,3852803580
7124,14,Improv_Melody,213,5,42,110,3853304036
7124,14,Improv_Melody,214,1,48,43,3853698892
7124,14,Improv_Melody,215,5,42,127,3853803860
7124,14,Improv_Melody,216,5,42,110,3854303508
7124,14,Improv_Melody,217,1,48,48,3854697340
7124,14,Improv_Melody,218,5,42,110,3854804476
7124,14,Improv_Melody,219,5,42,110,3855303976
7124,14,Improv_Melody,220,1,48,48,3855675452
7124,14,Improv_Melody,221,2,43,80,3855806328
7124,14,Improv_Melody,222,2,67,80,3855808480
7124,14,Improv_Melody,223,5,42,127,3855810944
7124,14,Improv_Melody,224,5,42,110,3856303560
7124,14,Improv_Melody,225,1,48,46,3856767184
7124,14,Improv_Melody,226,5,42,110,3856804396
7124,14,Improv_Melody,227,5,42,110,3857304028
7124,14,Improv_Melody,228,1,48,59,3857700408
7124,14,Improv_Melody,229,5,42,127,3857803508
7124,14,Improv_Melody,230,5,42,110,3858304424
7124,14,Improv_Melody,231,1,48,36,3858745388
7124,14,Improv_Melody,232,5,42,110,3858803988
7124,14,Improv_Melody,233,5,42,110,3859303696
7124,14,Improv_Melody,234,1,48,59,3859748396
7124,14,Improv_Melody,235,2,45,80,3859805912
7124,14,Improv_Melody,236,2,69,80,3859808140
7124,14,Improv_Melody,237,5,42,127,3859810828
7124,14,Improv_Melody,238,5,42,110,3860304180
7124,14,Improv_Melody,239,1,48,55,3860736760
7124,14,Improv_Melody,240,5,42,110,3860803892
7124,14,Improv_Melody,241,5,42,110,3861303600
7124,14,Improv_Melody,242,1,48,54,3861643632
7124,14,Improv_Melody,243,5,42,127,3861804568
7124,14,Improv_Melody,244,5,42,110,3862304144
7124,14,Improv_Melody,245,1,48,53,3862685016
7124,14,Improv_Melody,246,5,42,110,3862803692
7124,14,Improv_Melody,247,5,42,110,3863303492
7124,14,Improv_Melody,248,2,41,80,3863806760
7124,14,Improv_Melody,249,2,65,80,3863809068
7124,14,Improv_Melody,250,5,42,127,3863811600
7124,14,Improv_Melody,251,1,48,47,3863839552
7124,14,Improv_Melody,252,5,42,110,3864304096
7124,14,Improv_Melody,253,1,48,46,3864776320
7124,14,Improv_Melody,254,5,42,110,3864803736
7124,14,Improv_Melody,255,5,42,110,3865304564
7124,14,Improv_Melody,256,1,48,54,3865642676
7124,14,Improv_Melody,257,5,42,127,3865804340
7124,14,Improv_Melody,258,5,42,110,3866303912
7124,14,Improv_Melody,259,1,48,54,3866646592
7124,14,Improv_Melody,260,5,42,110,3866803464
7124,14,Improv_Melody,261,5,42,110,3867304532
7124,14,Improv_Melody,262,1,48,53,3867791040
7124,14,Improv_Melody,263,2,48,80,3867806448
7124,14,Improv_Melody,264,2,72,80,3867808904
7124,14,Improv_Melody,265,5,42,127,3867811288
7124,14,Improv_Melody,266,5,42,110,3868303596
7124,14,Improv_Melody,267,1,48,59,3868747172
7124,14,Improv_Melody,0,9999,9999,9999,3787801656
7124,14,Improv_Melody,1,9999,9999,9999,3788301360
7124,14,Improv_Melody,2,9999,9999,9999,3788801084
7124,14,Improv_Melody,3,9999,9999,9999,3789301824
7124,14,Improv_Melody,4,9999,9999,9999,3789801548
7124,14,Improv_Melody,5,9999,9999,9999,3790301268
7124,14,Improv_Melody,6,9999,9999,9999,3790802036
7124,14,Improv_Melody,7,9999,9999,9999,3791301684
7124,14,Improv_Melody,8,9999,9999,9999,3791801408
7124,14,Improv_Melody,9,9999,9999,9999,3792301144
7124,14,Improv_Melody,10,9999,9999,9999,3792801912
7124,14,Improv_Melody,11,9999,9999,9999,3793301556
7124,14,Improv_Melody,12,9999,9999,9999,3793801280
7124,14,Improv_Melody,13,9999,9999,9999,3794302048
7124,14,Improv_Melody,14,9999,9999,9999,3794801768
7124,14,Improv_Melody,15,9999,9999,9999,3795301492
7124,14,Improv_Melody,16,9999,9999,9999,3795801140
7124,14,Improv_Melody,17,9999,9999,9999,3796301920
7124,14,Improv_Melody,18,9999,9999,9999,3796801640
7124,14,Improv_Melody,19,9999,9999,9999,3797301364
7124,14,Improv_Melody,20,9999,9999,9999,3797802060
7124,14,Improv_Melody,21,9999,9999,9999,3798301780
7124,14,Improv_Melody,22,9999,9999,9999,3798801500
7124,14,Improv_Melody,23,9999,9999,9999,3799301224
7124,14,Improv_Melody,24,9999,9999,9999,3799801916
7124,14,Improv_Melody,25,9999,9999,9999,3800301628
7124,14,Improv_Melody,26,9999,9999,9999,3800801348
7124,14,Improv_Melody,27,9999,9999,9999,3801302116
7124,14,Improv_Melody,28,9999,9999,9999,3801801836
7124,14,Improv_Melody,29,9999,9999,9999,3802301556
7124,14,Improv_Melody,30,9999,9999,9999,3802801208
7124,14,Improv_Melody,31,9999,9999,9999,3803301976
7124,14,Improv_Melody,32,9999,9999,9999,3803801696
7124,14,Improv_Melody,33,9999,9999,9999,3804301432
7124,14,Improv_Melody,34,9999,9999,9999,3804801076
7124,14,Improv_Melody,35,9999,9999,9999,3805301844
7124,14,Improv_Melody,36,9999,9999,9999,3805801568
7124,14,Improv_Melody,37,9999,9999,9999,3806301268
7124,14,Improv_Melody,38,9999,9999,9999,3806802036
7124,14,Improv_Melody,39,9999,9999,9999,3807301736
7124,14,Improv_Melody,40,9999,9999,9999,3807801456
7124,14,Improv_Melody,41,9999,9999,9999,3808301168
7124,14,Improv_Melody,42,9999,9999,9999,3808801856
7124,14,Improv_Melody,43,9999,9999,9999,3809301564
7124,14,Improv_Melody,44,9999,9999,9999,3809801284
7124,14,Improv_Melody,45,9999,9999,9999,3810302032
7124,14,Improv_Melody,46,9999,9999,9999,3810801728
7124,14,Improv_Melody,47,9999,9999,9999,3811301428
7124,14,Improv_Melody,48,9999,9999,9999,3811801148
7124,14,Improv_Melody,49,9999,9999,9999,3812301912
7124,14,Improv_Melody,50,9999,9999,9999,3812801624
7124,14,Improv_Melody,51,9999,9999,9999,3813301332
7124,14,Improv_Melody,52,9999,9999,9999,3813802096
7124,14,Improv_Melody,53,9999,9999,9999,3814301800
7124,14,Improv_Melody,54,9999,9999,9999,3814801516
7124,14,Improv_Melody,55,9999,9999,9999,3815301224
7124,14,Improv_Melody,56,9999,9999,9999,3815801916
7124,14,Improv_Melody,57,9999,9999,9999,3816301632
7124,14,Improv_Melody,58,9999,9999,9999,3816801344
7124,14,Improv_Melody,59,9999,9999,9999,3817302100
7124,14,Improv_Melody,60,9999,9999,9999,3817801816
7124,14,Improv_Melody,61,9999,9999,9999,3818301520
7124,14,Improv_Melody,62,9999,9999,9999,3818801236
7124,14,Improv_Melody,63,9999,9999,9999,3819301988
7124,14,Improv_Melody,64,9999,9999,9999,3819801708
7124,14,Improv_Melody,65,9999,9999,9999,3820301424
7124,14,Improv_Melody,66,9999,9999,9999,3820801136
7124,14,Improv_Melody,67,9999,9999,9999,3821301820
7124,14,Improv_Melody,68,9999,9999,9999,3821801584
7124,14,Improv_Melody,69,9999,9999,9999,3822301292
7124,14,Improv_Melody,70,9999,9999,9999,3822801980
7124,14,Improv_Melody,71,9999,9999,9999,3823301684
7124,14,Improv_Melody,72,9999,9999,9999,3823801460
7124,14,Improv_Melody,73,9999,9999,9999,3824301120
7124,14,Improv_Melody,74,9999,9999,9999,3824801868
7124,14,Improv_Melody,75,9999,9999,9999,3825301588
7124,14,Improv_Melody,76,9999,9999,9999,3825801288
7124,14,Improv_Melody,77,9999,9999,9999,3826302060
7124,14,Improv_Melody,78,9999,9999,9999,3826801760
7124,14,Improv_Melody,79,9999,9999,9999,3827301480
7124,14,Improv_Melody,80,9999,9999,9999,3827801180
7124,14,Improv_Melody,81,9999,9999,9999,3828301888
7124,14,Improv_Melody,82,9999,9999,9999,3828801588
7124,14,Improv_Melody,83,9999,9999,9999,3829301308
7124,14,Improv_Melody,84,9999,9999,9999,3829802056
7124,14,Improv_Melody,85,9999,9999,9999,3830301776
7124,14,Improv_Melody,86,9999,9999,9999,3830801476
7124,14,Improv_Melody,87,9999,9999,9999,3831301200
7124,14,Improv_Melody,88,9999,9999,9999,3831801944
7124,14,Improv_Melody,89,9999,9999,9999,3832301656
7124,14,Improv_Melody,90,9999,9999,9999,3832801356
7124,14,Improv_Melody,91,9999,9999,9999,3833302124
7124,14,Improv_Melody,92,9999,9999,9999,3833801824
7124,14,Improv_Melody,93,9999,9999,9999,3834301544
7124,14,Improv_Melody,94,9999,9999,9999,3834801244
7124,14,Improv_Melody,95,9999,9999,9999,3835301936
7124,14,Improv_Melody,96,9999,9999,9999,3835801652
7124,14,Improv_Melody,97,9999,9999,9999,3836301372
7124,14,Improv_Melody,98,9999,9999,9999,3836801088
7124,14,Improv_Melody,99,9999,9999,9999,3837301840
7124,14,Improv_Melody,100,9999,9999,9999,3837801540
7124,14,Improv_Melody,101,9999,9999,9999,3838301264
7124,14,Improv_Melody,102,9999,9999,9999,3838802012
7124,14,Improv_Melody,103,9999,9999,9999,3839301732
7124,14,Improv_Melody,104,9999,9999,9999,3839801448
7124,14,Improv_Melody,105,9999,9999,9999,3840301168
7124,14,Improv_Melody,106,9999,9999,9999,3840801912
7124,14,Improv_Melody,107,9999,9999,9999,3841301560
7124,14,Improv_Melody,108,9999,9999,9999,3841801336
7124,14,Improv_Melody,109,9999,9999,9999,3842302028
7124,14,Improv_Melody,110,9999,9999,9999,3842801724
7124,14,Improv_Melody,111,9999,9999,9999,3843301424
7124,14,Improv_Melody,112,9999,9999,9999,3843801140
7124,14,Improv_Melody,113,9999,9999,9999,3844301908
7124,14,Improv_Melody,114,9999,9999,9999,3844801624
7124,14,Improv_Melody,115,9999,9999,9999,3845301328
7124,14,Improv_Melody,116,9999,9999,9999,3845802092
7124,14,Improv_Melody,117,9999,9999,9999,3846301800
7124,14,Improv_Melody,118,9999,9999,9999,3846801516
7124,14,Improv_Melody,119,9999,9999,9999,3847301224
7124,14,Improv_Melody,120,9999,9999,9999,3847801912
7124,14,Improv_Melody,121,9999,9999,9999,3848301632
7124,14,Improv_Melody,122,9999,9999,9999,3848801348
7124,14,Improv_Melody,123,9999,9999,9999,3849302100
7124,14,Improv_Melody,124,9999,9999,9999,3849801816
7124,14,Improv_Melody,125,9999,9999,9999,3850301520
7124,14,Improv_Melody,126,9999,9999,9999,3850801244
7124,14,Improv_Melody,127,9999,9999,9999,3851301992
7124,14,Improv_Melody,128,9999,9999,9999,3851801712
7124,14,Improv_Melody,129,9999,9999,9999,3852301424
7124,14,Improv_Melody,130,9999,9999,9999,3852801140
7124,14,Improv_Melody,131,9999,9999,9999,3853301816
7124,14,Improv_Melody,132,9999,9999,9999,3853801568
7124,14,Improv_Melody,133,9999,9999,9999,3854301288
7124,14,Improv_Melody,134,9999,9999,9999,3854802032
7124,14,Improv_Melody,135,9999,9999,9999,3855301680
7124,14,Improv_Melody,136,9999,9999,9999,3855801456
7124,14,Improv_Melody,137,9999,9999,9999,3856301120
7124,14,Improv_Melody,138,9999,9999,9999,3856801880
7124,14,Improv_Melody,139,9999,9999,9999,3857301584
7124,14,Improv_Melody,140,9999,9999,9999,3857801288
7124,14,Improv_Melody,141,9999,9999,9999,3858302052
7124,14,Improv_Melody,142,9999,9999,9999,3858801772
7124,14,Improv_Melody,143,9999,9999,9999,3859301476
7124,14,Improv_Melody,144,9999,9999,9999,3859801192
7124,14,Improv_Melody,145,9999,9999,9999,3860301884
7124,14,Improv_Melody,146,9999,9999,9999,3860801600
7124,14,Improv_Melody,147,9999,9999,9999,3861301304
7124,14,Improv_Melody,148,9999,9999,9999,3861802052
7124,14,Improv_Melody,149,9999,9999,9999,3862301772
7124,14,Improv_Melody,150,9999,9999,9999,3862801472
7124,14,Improv_Melody,151,9999,9999,9999,3863301196
7124,14,Improv_Melody,152,9999,9999,9999,3863801964
7124,14,Improv_Melody,153,9999,9999,9999,3864301652
7124,14,Improv_Melody,154,9999,9999,9999,3864801368
7124,14,Improv_Melody,155,9999,9999,9999,3865302120
7124,14,Improv_Melody,156,9999,9999,9999,3865801824
7124,14,Improv_Melody,157,9999,9999,9999,3866301544
7124,14,Improv_Melody,158,9999,9999,9999,3866801244
7124,14,Improv_Melody,159,9999,9999,9999,3867301940
7124,14,Improv_Melody,160,9999,9999,9999,3867801656
7124,14,Improv_Melody,161,9999,9999,9999,3868301376
71